<svg width="85" height="80" fill="none" xmlns="http://www.w3.org/2000/svg"><path d="M56.075 3.126c3.61 3.115 7.216 6.996 7.333 12.08-2.13 7.033-1.006 14.549-2.943 21.63-2.004 8.04-4.01 16.772-10.222 22.68-6.621 5.794-15.098 9.043-21.441 15.223-2.983-7.052-6.686-14.243-6.24-22.081.616-10.922 4.814-21.718 12.358-29.662 6.445-7.273 14.905-12.419 21.153-19.874l.002.004Zm-5.354 17.646c-4.301 4.759-4.579 11.438-6.441 17.29-1.303 5.357-3.955 10.24-5.64 15.465 8.163-5.1 10.839-15.022 12.42-23.948.355-2.898 1.539-6.168-.343-8.805l.004-.002Z" fill="#F1A729"/><path d="M30.688 18.88c7.085-7.035 15.66-13.155 25.388-15.753-6.25 7.451-14.707 12.6-21.153 19.874-7.54 7.941-11.744 18.735-12.358 29.661-.445 7.84 3.258 15.03 6.24 22.082-.07.49-.207 1.515-.278 2.029l-.818.37c-3.106-4.685-6.415-9.228-9.31-14.035-4.385-15.655 1.07-32.909 12.29-44.217l-.001-.011Z" fill="#73231A"/><path d="M63.408 15.207c.161.914.492 2.73.65 3.64 3.286 13.36.111 27.594-6.987 39.116-5.408 8.777-15.242 12.872-23.525 18.311-1.265.118-3.765.366-5.022.495.075-.516.211-1.534.278-2.028 6.343-6.18 14.82-9.43 21.442-15.224 6.212-5.907 8.224-14.638 10.222-22.68 1.934-7.085.81-14.6 2.942-21.63Z" fill="#6E3B21"/><path d="M50.72 20.771c1.882 2.637.697 5.914.343 8.805-1.585 8.929-4.26 18.851-12.42 23.948 1.685-5.226 4.338-10.108 5.64-15.465 1.869-5.85 2.14-12.531 6.44-17.29l-.003.002Z" fill="#A85525"/></svg>