<svg width="40" height="37" fill="none" xmlns="http://www.w3.org/2000/svg"><path d="M9.644.06C27.476-1.18 41.367 17.045 39.893 33.652c-.975.028-2.887.121-3.848.15-3.983 4.41-10.533 3.378-15.689 2.076C9.06 32.168 1.616 21.048 0 9.775c2.858 4.064 5.547 8.236 8.56 12.216 6.856 8.12 17.54 12.618 28.277 11.661C34.087 19.014 24.387 5.011 9.644.06Z" fill="#6D2817"/><path d="M3.005 1.882C5.095.889 7.369.282 9.69 0 24.497 4.987 34.238 19.112 37 33.872c-10.777.964-21.511-3.571-28.396-11.758 5.282-1.506 10.09 1.717 15.037 2.983C17.4 16.792 8.774 10.582 3 1.882h.005Z" fill="#EC6E26"/><path d="m2.077 1 1.295.713C9.137 10.439 17.757 16.67 24 25c-4.943-1.27-9.75-4.507-15.028-2.992C5.952 17.986 3.249 13.767.38 9.65-.934 6.9 1.538 3.737 2.072 1h.005Z" fill="#CE5328"/></svg>