<svg width="69" height="79" fill="none" xmlns="http://www.w3.org/2000/svg"><path d="M12.857 21.035C23.156 5.579 43.795-3.64 62.109 1.37c-9.212 4.808-20.453 3.872-29.235 9.795-14.88 8.568-22.517 25.215-25.516 41.398-.767 4.807-1.278 9.625-1.97 14.45-1.517 3.801-3.005 7.638-4.167 11.567l-.035.11c-3.453-19.774.692-40.764 11.67-57.655Z" fill="#622519"/><path d="M62.11 1.37c1.97 3.203 4.388 6.871 3.394 10.8a203.476 203.476 0 0 0-3.435-6.48c-5.894 5.789-9.759 13.165-14.745 19.646C35.181 40.646 23.947 56.754 9.27 69.844A38.043 38.043 0 0 1 7.36 52.563c3.005-16.183 10.636-32.83 25.515-41.398 8.783-5.923 20.023-4.993 29.236-9.794Z" fill="#F7AC2D"/><path d="M47.324 25.336c4.992-6.481 8.858-13.858 14.745-19.647 1.18 2.139 2.325 4.301 3.435 6.481 5.685 13.334 2.587 28.343-4.109 40.689C55.223 66.693 41 75.836 26.104 77.592c-8.277.854-16.588 1.47-24.882.988 1.162-3.93 2.644-7.766 4.167-11.567-.017 1.9-.076 5.72-.093 7.614 14.315-1.546 31.804-.093 42.12-12.084 7.336-7.934 4.389-19.403.96-28.36-9.137 8.364-15.31 19.368-24.597 27.563-4.522 4.116-10.148 6.702-15.571 9.423.261-.337.808-.988 1.07-1.32 14.67-13.09 25.91-29.203 38.052-44.507l-.006-.006Zm3.528 5.156c3.377 6.667 4.632 14.078 5.835 21.379 6.754-11.451 8.631-25.495 4.69-38.23-4.632 4.86-7.392 11.026-10.525 16.85Z" fill="#7A2F1A"/><path d="M50.852 30.492c3.132-5.83 5.893-11.992 10.525-16.85 3.941 12.735 2.064 26.778-4.69 38.23-1.203-7.302-2.459-14.713-5.835-21.38Z" fill="#EC872B"/><path d="M23.778 61.741c9.288-8.196 15.46-19.2 24.597-27.564 3.435 8.958 6.382 20.432-.96 28.36C37.094 74.53 19.61 73.076 5.296 74.622c.017-1.9.075-5.72.093-7.615.692-4.824 1.203-9.649 1.97-14.45-.691 5.847-.058 11.73 1.912 17.281-.261.337-.807.988-1.069 1.32 5.423-2.72 11.049-5.308 15.57-9.423l.007.006Z" fill="#EF8D24"/></svg>