<svg width="111" height="111" fill="none" xmlns="http://www.w3.org/2000/svg"><circle cx="55.5" cy="55.5" r="55.5" fill="#F8C0A2"/><path d="m26.973 68.553-3.67-2.007a.728.728 0 0 1-.29-.29l-2.007-3.67a.73.73 0 0 0-1.28 0l-2.008 3.67a.729.729 0 0 1-.29.29l-3.67 2.007a.73.73 0 0 0 0 1.28l3.67 2.008a.729.729 0 0 1 .29.29l2.007 3.67a.73.73 0 0 0 1.28 0l2.008-3.67a.728.728 0 0 1 .29-.29l3.67-2.007a.73.73 0 0 0 0-1.281Zm67.475-2.574-3.67-2.007a.73.73 0 0 1-.29-.29l-2.006-3.67a.73.73 0 0 0-1.28 0l-2.008 3.67a.73.73 0 0 1-.29.29l-3.67 2.007a.73.73 0 0 0 0 1.28l3.67 2.007a.73.73 0 0 1 .29.29l2.007 3.67a.73.73 0 0 0 1.28 0l2.008-3.67a.73.73 0 0 1 .29-.29l3.67-2.007a.73.73 0 0 0 0-1.28Z" fill="#FFD9AC"/><path d="M70.121 79.061c-1.048 5.041-4.519 13.473-16.017 13.473-11.499 0-14.97-8.431-16.018-13.473l8.246-2.359a3.71 3.71 0 0 0 2.692-3.57v-5.226h10.16v5.226a3.708 3.708 0 0 0 2.691 3.57l8.246 2.36Z" fill="#FFD0A6"/><path d="M61.875 76.702a3.71 3.71 0 0 1-2.692-3.57v-5.226h-5.515v5.226a3.708 3.708 0 0 0 2.691 3.57l8.246 2.36c-.959 4.612-3.948 12.063-13.26 13.296.865.114 1.782.176 2.758.176 11.499 0 14.97-8.431 16.018-13.473l-8.246-2.359Z" fill="#E8B182"/><path d="M81.197 90.278v8.447c0 1.122-.91 2.031-2.032 2.031H29.042a2.032 2.032 0 0 1-2.032-2.031v-8.447c0-5 3.246-9.42 8.016-10.919l10.862-3.411a.725.725 0 0 1 .924.526c.498 2.15 2.32 6.505 7.292 6.505 4.97 0 6.794-4.355 7.292-6.505a.725.725 0 0 1 .924-.526l10.862 3.411a11.445 11.445 0 0 1 8.015 10.919Z" fill="#FFBB69"/><path d="M73.182 79.36 62.32 75.947a.725.725 0 0 0-.925.526 10.24 10.24 0 0 1-.235.842l6.506 2.043a11.445 11.445 0 0 1 8.015 10.919v8.447c0 1.122-.91 2.031-2.032 2.031h5.516c1.122 0 2.032-.91 2.032-2.031v-8.447c0-5-3.246-9.42-8.015-10.919Z" fill="#FFD9AC"/><path d="M36.966 47.372c0 4.512-2.76 8.17-6.163 8.17-3.404 0-5.381-4.2-5.381-8.713 0-4.512 1.977-7.626 5.38-7.626 3.405 0 6.164 3.657 6.164 8.17Zm34.276 0c0 4.512 2.759 8.17 6.163 8.17 3.403 0 5.38-4.2 5.38-8.713 0-4.512-1.977-7.626-5.38-7.626-3.404 0-6.163 3.657-6.163 8.17Z" fill="#E8B182"/><path d="M34.213 52.027V38.492c0-10.986 8.905-19.891 19.89-19.891 10.986 0 19.892 8.905 19.892 19.89v13.46c0 11.007-8.922 19.93-19.929 19.93-10.965 0-19.853-8.89-19.853-19.854Z" fill="#FFD0A6"/><path d="M54.103 18.601c-.936 0-1.856.066-2.758.191 9.68 1.343 17.133 9.65 17.133 19.7v13.46c0 10.07-7.468 18.393-17.168 19.737.901.126 1.82.192 2.756.192 11.006 0 19.928-8.923 19.928-19.929v-13.46c0-10.985-8.905-19.89-19.89-19.89Z" fill="#E8B182"/><path d="M75.005 42.782c-.617 1.331-1.01 4.964-1.01 4.964s-3.033-19.55-8.278-18.347c-5.245 1.203-7.406 2.076-11.789 2.076-4.385 0-6.545-.873-11.789-2.076-5.247-1.202-7.928 18.334-7.928 18.334s-.744-3.62-1.362-4.95c-.291-.626-2.121-6.476-1.458-12.82 0-.009 0-.018-.003-.027a.07.07 0 0 0-.06-.048c-1.57-.131-2.683-.568-3.064-.737a.227.227 0 0 1-.136-.225c.71-9.874 10.826-19.547 20.398-19.547 5.086 0 7.274 1.96 8.208 3.81 27.343 1.555 19.22 27.554 18.271 29.593Z" fill="#FFBF3E"/><path d="M56.734 13.188c-.934-1.85-3.121-3.81-8.207-3.81-.889 0-1.782.085-2.672.244 2.428.453 4.412 2.245 5.516 3.703a3.013 3.013 0 0 0 2.165 1.196c16.846 1.32 18.576 13.204 17.576 21.409 1.87 5.28 2.883 11.816 2.883 11.816s.393-3.633 1.011-4.964c.949-2.039 9.072-28.038-18.272-29.594Z" fill="#E8A328"/><path d="M63.296 100.756H44.91c0-3.35 4.116-6.067 9.193-6.067s9.193 2.717 9.193 6.067Z" fill="#FA8D8D"/><path d="m73.595 78.043-10.862-3.411a2.11 2.11 0 0 0-1.53.106 2.342 2.342 0 0 1-.64-1.607v-.886c7.205-2.312 12.75-8.362 14.345-15.857.797.35 1.641.532 2.496.532 4.438 0 6.76-5.076 6.76-10.091 0-5.319-2.508-8.807-6.421-8.997.21-1.213.379-2.571.455-4.024.324-6.202-1.24-11.444-4.52-15.16a1.379 1.379 0 0 0-2.067 1.826c3.528 3.996 4.031 9.378 3.832 13.19-.175 3.35-.9 6.176-1.352 7.6-.144-.602-.296-1.201-.456-1.799-1.576-5.903-3.328-9.441-5.356-10.816-.903-.612-1.895-.818-2.87-.594-1.246.285-2.328.555-3.283.793-3.127.778-5.014 1.248-8.197 1.248-3.185 0-5.073-.47-8.2-1.249-.954-.238-2.035-.507-3.28-.792-.982-.224-1.974-.016-2.872.604-2.001 1.383-3.688 4.924-5.156 10.827-.18.724-.349 1.45-.507 2.18-.514-1.644-1.685-6.447-1.15-11.561a1.452 1.452 0 0 0-1.32-1.591 9.173 9.173 0 0 1-1.852-.347c.54-4.104 2.826-8.331 6.366-11.722 3.775-3.614 8.356-5.687 12.57-5.687 3.606 0 5.953 1.027 6.976 3.052a1.378 1.378 0 0 0 1.152.755c4.058.231 7.516 1.038 10.277 2.399a1.378 1.378 0 1 0 1.22-2.474c-2.921-1.44-6.482-2.322-10.595-2.63C56.317 9.963 53.766 8 48.528 8c-4.918 0-10.194 2.352-14.477 6.454-4.275 4.094-6.935 9.333-7.297 14.373a1.611 1.611 0 0 0 .951 1.584c.343.152 1.122.46 2.213.672-.144 2.466.043 4.801.34 6.764-3.794.302-6.215 3.758-6.215 8.982 0 5.015 2.322 10.091 6.76 10.091.854 0 1.692-.18 2.483-.526 1.577 7.512 7.136 13.575 14.359 15.872v.866a2.316 2.316 0 0 1-.64 1.606 2.111 2.111 0 0 0-1.53-.106l-10.862 3.411a12.771 12.771 0 0 0-8.981 12.235v1.357a1.379 1.379 0 0 0 2.758 0v-1.357c0-4.42 2.833-8.28 7.049-9.604l10.21-3.206c1.013 3.448 3.696 6.89 8.455 6.89s7.441-3.442 8.455-6.89l10.21 3.206a10.025 10.025 0 0 1 7.049 9.604v8.446a.654.654 0 0 1-.653.653h-7.252l-.372-4.905a1.379 1.379 0 0 0-2.75.208l.356 4.697h-4.65c-.907-3.482-5.193-6.067-10.393-6.067-5.204 0-9.487 2.584-10.394 6.067h-4.65l.356-4.696a1.38 1.38 0 0 0-2.75-.209l-.371 4.905h-7.252a.654.654 0 0 1-.653-.653v-.552a1.379 1.379 0 1 0-2.758 0v.552c0 1.881 1.53 3.411 3.41 3.411h50.123c1.88 0 3.41-1.53 3.41-3.41v-8.447c0-5.63-3.608-10.547-8.98-12.235Zm3.81-37.462c2.95 0 4.002 3.228 4.002 6.248 0 3.605-1.497 7.333-4.002 7.333-.73 0-1.43-.236-2.086-.696.035-.5.055-1.005.055-1.514v-4.123c.148-1.331.51-3.662.883-4.465.147-.319.514-1.31.893-2.772.085-.006.17-.01.254-.01ZM30.803 54.163c-2.505 0-4.002-3.729-4.002-7.334 0-3.012 1.046-6.23 3.978-6.247.353 1.514.7 2.525.82 2.78.387.836.95 3.155 1.235 4.517v4.148c0 .486.018.967.05 1.445-.65.453-1.362.69-2.081.69Zm4.789-2.136v-4.202c.782-5.628 2.964-15.108 5.553-16.897.327-.226.531-.22.687-.185 1.22.28 2.288.546 3.23.78 3.218.802 5.344 1.33 8.867 1.33 3.521 0 5.646-.528 8.863-1.329.944-.235 2.013-.5 3.234-.78.149-.035.363-.044.706.188 2.635 1.786 4.996 11.276 5.884 16.919v4.101c0 10.228-8.321 18.55-18.55 18.55-10.187 0-18.474-8.288-18.474-18.475ZM54.104 81.6c-3.53 0-5.053-2.739-5.66-4.454.349-.272.66-.588.927-.94a5.12 5.12 0 0 0 1.032-3.075v-.189a21.283 21.283 0 0 0 7.402-.011v.2c0 1.104.366 2.196 1.031 3.074.267.353.578.669.927.94-.606 1.716-2.13 4.455-5.66 4.455Zm0 14.468c3.404 0 6.428 1.422 7.447 3.31H46.656c1.019-1.889 4.042-3.31 7.448-3.31Z" fill="#96544A"/><path d="M51.532 54.07a1.379 1.379 0 0 0 .986 1.683c.6.157 1.093.235 1.585.235.493 0 .986-.078 1.586-.235a1.38 1.38 0 1 0-.697-2.668c-.747.195-1.03.195-1.777 0a1.38 1.38 0 0 0-1.683.986Zm-7.644-13.459c.72-.459 1.584-.727 2.568-.796 1.622-.114 2.545.43 3.035.908a1.374 1.374 0 0 0 1.732.157 1.38 1.38 0 0 0 .193-2.132c-.732-.713-2.375-1.879-5.153-1.684-1.449.102-2.747.513-3.859 1.223a1.378 1.378 0 1 0 1.484 2.324Zm13.866.504c.36 0 .705-.14.962-.392.49-.477 1.414-1.02 3.034-.908.985.07 1.85.337 2.569.796a1.378 1.378 0 1 0 1.484-2.324c-1.112-.71-2.41-1.121-3.86-1.223-2.779-.197-4.42.971-5.152 1.684a1.38 1.38 0 0 0 .963 2.367ZM53.26 16.029c-.074.058-7.521 5.779-13.939 7.947a1.38 1.38 0 0 0-.865 1.748 1.402 1.402 0 0 0 1.748.865c6.85-2.315 14.423-8.13 14.742-8.377a1.379 1.379 0 0 0-1.686-2.183Zm-5.774 30.122c.77 0 1.45.463 1.732 1.18a1.403 1.403 0 0 0 1.789.776 1.38 1.38 0 0 0 .777-1.788 4.594 4.594 0 0 0-4.298-2.927 4.594 4.594 0 0 0-4.298 2.927 1.38 1.38 0 1 0 2.566 1.011 1.851 1.851 0 0 1 1.732-1.18Zm9.714 1.956a1.379 1.379 0 0 0 1.789-.777 1.852 1.852 0 0 1 1.732-1.18c.77 0 1.45.464 1.732 1.18a1.399 1.399 0 0 0 1.789.777 1.38 1.38 0 0 0 .777-1.788 4.594 4.594 0 0 0-4.298-2.927 4.594 4.594 0 0 0-4.298 2.927 1.38 1.38 0 0 0 .777 1.788ZM28.731 69.195c0-.772-.42-1.48-1.097-1.85l-3.503-1.916-1.915-3.503a2.108 2.108 0 0 0-3.7 0L16.6 65.428l-3.503 1.915a2.108 2.108 0 0 0 0 3.7L16.6 72.96l1.915 3.503a2.108 2.108 0 0 0 3.7 0l1.916-3.503 3.503-1.915a2.108 2.108 0 0 0 1.097-1.85Zm-6.09 1.437a2.105 2.105 0 0 0-.838.838l-1.438 2.628-1.437-2.628a2.104 2.104 0 0 0-.838-.838l-2.628-1.437 2.628-1.438c.354-.193.645-.484.838-.838l1.438-2.629 1.437 2.629c.194.354.485.645.838.838l2.629 1.438-2.629 1.437Zm72.469-5.862-3.503-1.915-1.915-3.503a2.108 2.108 0 0 0-3.7 0l-1.916 3.503-3.503 1.915a2.108 2.108 0 0 0 0 3.7l3.503 1.916 1.916 3.503a2.108 2.108 0 0 0 3.7 0l1.915-3.503 3.503-1.916a2.108 2.108 0 0 0 0-3.7Zm-4.993 3.288a2.105 2.105 0 0 0-.838.838l-1.438 2.628-1.437-2.628a2.105 2.105 0 0 0-.838-.838l-2.629-1.438 2.629-1.437c.354-.193.645-.484.838-.838l1.438-2.629 1.437 2.629c.193.354.484.645.838.838l2.629 1.437-2.629 1.438Zm-28.5-7.67a1.379 1.379 0 1 0-1.34-2.41c-3.808 2.12-8.539 2.12-12.346 0a1.378 1.378 0 1 0-1.342 2.41 15.461 15.461 0 0 0 7.515 1.935c2.598 0 5.196-.645 7.514-1.934Z" fill="#96544A"/><path d="M98 25.445c0-9.572-7.715-17.343-17.267-17.432-9.57-.088-17.491 7.666-17.596 17.237-.07 6.333 3.239 11.897 8.234 15.006a2.836 2.836 0 0 1 1.256 3.142l-.638 2.375c-.351 1.308 1.078 2.373 2.23 1.663l3.287-2.025a25.143 25.143 0 0 1 7.214-3.032C92.343 40.516 98 33.642 98 25.445Z" fill="#FFFAEE"/><path d="M92.942 37.724A17.374 17.374 0 0 0 98 25.445c0-9.572-7.715-17.343-17.267-17.432-9.57-.088-17.491 7.666-17.596 17.237-.07 6.332 3.239 11.897 8.234 15.006a2.836 2.836 0 0 1 1.256 3.142l-.638 2.375c-.351 1.309 1.077 2.373 2.23 1.663l3.287-2.025a25.148 25.148 0 0 1 7.214-3.032 17.31 17.31 0 0 0 4.465-1.778" stroke="#96544A" stroke-width="2" stroke-miterlimit="10" stroke-linecap="round" stroke-linejoin="round"/><path d="M80.567 20.55c2.308-3.796 6.851-2.21 7.81.835 1.343 4.265-.93 9.362-7.81 12.446-6.88-3.084-9.153-8.18-7.81-12.446.959-3.046 5.502-4.63 7.81-.835Z" fill="#FA8D8D"/><path d="M80.567 20.55c2.308-3.796 6.851-2.21 7.81.835 1.343 4.265-.93 9.362-7.81 12.446-6.88-3.084-9.153-8.18-7.81-12.446.959-3.046 5.502-4.63 7.81-.835Z" stroke="#96544A" stroke-width="2" stroke-miterlimit="10" stroke-linecap="round" stroke-linejoin="round"/></svg>