<svg width="111" height="111" fill="none" xmlns="http://www.w3.org/2000/svg"><circle cx="55.5" cy="55.5" r="55.5" fill="#F8C0A2"/><mask id="a" style="mask-type:luminance" maskUnits="userSpaceOnUse" x="13" y="13" width="85" height="85"><path d="M13 13h85v85H13V13Z" fill="#fff"/></mask><g mask="url(#a)"><path d="M55.5 30.155V14.66H40.167v7.843a15.63 15.63 0 0 0 13.44 7.652H55.5Z" fill="#FFD0A6"/><path d="M30.949 39.752a7.25 7.25 0 0 0 2.587 9.558L60.14 65.793h25.94a1.293 1.293 0 0 0 1.293-1.293V59.93H61.951l-31.002-20.18Z" fill="#fff"/><path d="M87.376 59.931v-.582c0-7.962-6.455-14.417-14.418-14.417h-6.566L54.453 29.415a17.922 17.922 0 0 1-12.589-5.223l-1.697-1.69-9.215 17.25 31 20.18h25.424Z" fill="#FA8D8D"/><path d="m40.167 22.503 1.697 1.69a17.923 17.923 0 0 0 12.589 5.223l5.465 7.103h-2.45a31.224 31.224 0 0 1-20.82-8.045l3.52-5.971Z" fill="#fff"/><path d="M87.376 59.931v-.582c0-7.962-6.455-14.417-14.418-14.417h-6.566L54.453 29.415a17.922 17.922 0 0 1-12.589-5.223l-1.697-1.69-9.215 17.25 31 20.18h25.424Z" stroke="#96544A" stroke-width="2" stroke-miterlimit="10" stroke-linecap="round" stroke-linejoin="round"/><path d="M87.376 59.931V64.5a1.293 1.293 0 0 1-1.293 1.293h-25.94L33.538 49.31a7.25 7.25 0 0 1-2.587-9.558M36.93 28.725c5.676 5 12.974 7.77 20.538 7.794h1.963M66.392 44.932l-4.239 4.24M73.935 45.74l-5.233 5.233M61.663 39.752l-4.396 4.396M40.167 22.503V14.66M55.5 30.155V14.66" stroke="#96544A" stroke-width="2" stroke-miterlimit="10" stroke-linecap="round" stroke-linejoin="round"/><path d="M45.871 81.066H96.34V65.793H45.87v15.273Zm50.469 0H14.66V96.34h81.68V81.066Z" fill="#FFBB69"/><path d="M25.437 81.066H14.66V96.34h81.68V81.066H40.89M45.871 81.066H96.34V65.793H45.87v15.273Z" stroke="#96544A" stroke-width="2" stroke-miterlimit="10" stroke-linecap="round" stroke-linejoin="round"/></g></svg>