<svg width="900" height="484" fill="none" xmlns="http://www.w3.org/2000/svg"><mask id="a" style="mask-type:alpha" maskUnits="userSpaceOnUse" x="0" y="0" width="900" height="484"><path fill="#D9D9D9" d="M0 0h900v484H0z"/></mask><g mask="url(#a)"><path d="M850.706 37.031c-23.268 1.674-40.751 22.208-39.049 45.864 1.702 23.656 21.945 41.475 45.213 39.801 23.268-1.674 40.75-22.208 39.048-45.864-1.702-23.655-21.944-41.475-45.212-39.801Z" fill="#68CCEA"/><path d="M649.233 238.564c-4.548-63.213 43.324-118.162 106.924-122.738 63.594-4.576 118.841 42.954 123.389 106.167 4.548 63.213-43.325 118.166-106.919 122.741-63.602 4.575-118.846-42.959-123.394-106.17Z" fill="#F37E60"/><path d="M304.692 330.965c-49.534-119.571 7.84-256.893 128.14-306.73 120.291-49.832 257.97 6.686 307.504 126.256 49.533 119.568-7.84 256.899-128.131 306.731-120.304 49.836-257.981-6.692-307.513-126.257Z" fill="#D6EDFA"/><path d="M455.663 30.282c77.421 7.918 63.133 67.111 121.224 99.578 58.09 32.467 127.947 20.144 136.302 90.027 8.405 69.883 27.933 148.229-61.452 186.784-89.385 38.554-171.404-32.962-221.189 8.117-49.785 41.078-125.723 69.635-196.124 39.989-70.401-29.646-52.504-77.752-104.464-106.26C78 320.01 52.884 195.833 135.546 156.141c82.662-39.693 117.319 5.592 155.881-39.693 38.562-45.286 65.902-96.213 164.236-86.166Z" fill="#D6EDFA"/><path d="M235.842 342.263c-16.722 6.211-51.796 8-51.218 16.948.579 8.947 1.788 7.157 25.557 10.105 23.768 3 31.551 4.631 36.862-2.737 5.364-7.368-11.201-24.316-11.201-24.316Z" fill="#FDA87E"/><path d="M199.238 368.053c-4.522-.527-54.426 14.947-62.734 10.789-8.309-4.158 19.614-12.473 31.498-17.263 11.885-4.737 22.559-9.526 31.499-7.737 8.939 1.79-.263 14.211-.263 14.211Z" fill="#FDA87E"/><path d="M195.927 356.842c2.05-8.052-74.251 10.105-64.785 17.263 9.518 7.158 20.823-2.947 31.498-4.736 10.675-1.79 32.025-7.579 33.287-12.527ZM222.062 359.79c-15.513 3.894-29.132 8.315-33.287 14.842-4.154 6.526-11.305 8.316-4.154 12.473 7.152 4.158 16.039-7.736 24.978-7.736 8.94 0 22.875-3 30.184-8.053 7.257-4.947-10.57-13.316-17.721-11.526Z" fill="#FDA87E"/><path d="M196.614 369.263a.838.838 0 0 1-.736-.421c-.263-.421-.158-.947.263-1.21 4.049-2.579 14.566-5.579 20.823-7.369 2.314-.631 4.47-1.263 4.891-1.473a.882.882 0 0 1 1.157.105c.368.368.368.895 0 1.263-.316.316-.842.474-5.522 1.842-6.205 1.79-16.564 4.737-20.35 7.158-.211.053-.368.105-.526.105ZM135.928 375.579a.984.984 0 0 1-.42-.105c-.421-.211-.579-.79-.368-1.211 3.628-6.684 38.755-16.579 42.751-17.684.474-.158.947.158 1.105.632a.943.943 0 0 1-.631 1.105c-10.623 2.947-38.861 11.737-41.648 16.789-.158.264-.473.474-.789.474Z" fill="#DD8762"/><path d="M329.44 232.842c-16.301 11.264-57.423 48.474-72.883 77-15.46 28.527-39.228 50.527-24.347 58.264 14.882 7.736 36.232-17.843 64.154-45.211 27.923-27.368 46.065-42.526 50.798-55.632 4.732-13.052 1.63-47.789-17.722-34.421Z" fill="#FDA87E"/><path d="M366.463 197.421c-29.501 20.158-51.113 48.158-42.174 64.211 8.887 16.052 9.203 22.894 42.174 0 12.304-8.579 14.881-9.527 30.289-32.106 15.407-22.579 7.151-57.684-30.289-32.105Z" fill="#FDA87E"/><path d="M516.383 106.895c53.952 12.895 78.825 22.158 96.651 59.632C630.861 204 626.707 262.895 623.131 317c-3.576 54.105-7.152 127.895-7.152 127.895s-106.012 34.737-182.05-26.526c0 0 38.335-81.79 27.607-129.948-10.674-48.158-36.283-71.421-33.286-127.579 2.997-56.158 77.668-56.473 88.133-53.947Z" fill="#BBB"/><path d="M631.486 257.526c2.261 11.211 9.097 87.842-11.516 112s-44.382-19.842-41.385-56.105c2.998-36.263-2.944-67.789 11.306-71.368 14.251-3.579 36.862-8.316 41.595 15.473Z" fill="#FDA87E"/><path d="M520.271 363.316c-1.63 0-3.365-.053-5.153-.158-10.57-.526-20.929-2.684-25.767-5.369-11.832-6.473-20.298-14.842-20.403-14.947-.368-.368-.368-.895 0-1.263.368-.368.894-.368 1.262 0 .105.105 8.361 8.316 19.982 14.632 9.676 5.263 40.806 7.894 50.114 1.263 2.156-1.527 2.997-3.369 2.629-5.632-2.261-14.21-49.693-42.842-66.678-51.684-.42-.211-.631-.79-.368-1.211.211-.421.789-.631 1.21-.368 12.778 6.632 65.048 36.947 67.624 53 .473 2.947-.683 5.474-3.365 7.368-3.944 2.842-11.516 4.369-21.087 4.369Z" fill="#86A2A3"/><path d="M466.321 109.369c-25.557 1.263-76.038 39.894-109.903 81.526-16.617 22-21.402 32.684-21.402 32.684s21.665 41.948 52.585 34.79c.21-.79 54.636-40.737 50.482-37.474-4.891 3.895 28.238-111.526 28.238-111.526ZM568.806 131.105c27.028-11.421 70.096 48.79 73.672 130.843 0 0-19.036 22.579-67.152 11.315 0 0-16.196-92-12.2-117.473 1.788-11.263-1.945-21.421 5.68-24.685Z" fill="#BBB"/><path d="M438.663 64.684c-19.93 6.895-29.763 33.79-25.188 59.579 4.574 25.79 31.761 80 59.526 76.211 22.138-3.053 41.227-43.527 37.23-67.632-4.049-24.052-13.777-88.21-71.568-68.158Z" fill="#FDA87E"/><path d="M469.844 173.053c2.366.579 20.192 22 33.865 20.21 13.672-1.789 38.019-27.368 28.501-50.579l-32.656-35.105-29.71 65.474Z" fill="#FDA87E"/><path d="M555.137 191.474c-.473 0-.894-.368-.894-.842-1.209-41.105 15.197-50.421 15.934-50.79.42-.21.999-.052 1.209.369.21.421.053.947-.368 1.21-.158.106-16.144 9.263-14.987 49.158a.887.887 0 0 1-.894.895Z" fill="#86A2A3"/><path d="M478.466 93.632c-5.732-12.316-25.556 17.263-45.171 12.473-19.614-4.736-20.981.474-20.981.474s-14.987-.789-11.411-12.684C404.479 82 412.209 81.42 412.209 81.42s18.405-43.42 45.17-39.263c26.766 4.158 32.708 18.421 32.708 18.421s14.251-5.947 24.347 6.526c10.097 12.474 7.415 49.053 7.415 49.053L506.704 123s-2.997 20.842-7.151 21.421c-4.154.579-8.046-21.684-13.988-28.842-5.889-7.053-2.945-13-7.099-21.947Z" fill="#A0655D"/><path d="M512.067 137.369s-3.208 32.315-21.192 52.421c0 0 8.151 4.631 12.883 3.473 0 0 16.617-25.579 8.309-55.894Z" fill="#DD8762"/><path d="M511.281 145.105c13.514 1.79 21.349-19.842 12.62-29.157-9.202-9.79-16.932 7.421-16.932 7.421l4.312 21.736Z" fill="#FDA87E"/><path d="M467.789 143.632c1.104 3.632.631 6.947-1.104 7.474-1.735.526-4.049-1.948-5.153-5.579-1.105-3.632-.631-6.948 1.104-7.474 1.735-.526 4.049 1.947 5.153 5.579ZM438.344 149.421c1.104 3.632.631 6.947-1.104 7.474-1.736.526-4.049-1.948-5.154-5.579-1.104-3.632-.631-6.948 1.105-7.474 1.735-.526 4.049 1.947 5.153 5.579Z" fill="#0A043C"/><path d="M454.386 173.105c-1.841 0-3.629-.579-4.575-2.315-2.472-4.316-3.628-21.632-3.681-22.369-.053-.474.316-.895.841-.947.474-.053.894.316.947.842.315 4.895 1.577 18.368 3.471 21.631 1.893 3.316 9.465-.315 9.517-.368.421-.211 1-.053 1.21.421.21.421.053 1-.421 1.211-.263.105-3.996 1.894-7.309 1.894Z" fill="#DD8762"/><path d="M424.094 141.526c-.369 0-.737-.052-1.052-.21-1.525-.579-2.314-2.316-1.683-3.842 3.681-9.526 13.62-9.632 14.04-9.632 1.631 0 2.998 1.316 2.998 2.948 0 1.631-1.315 2.947-2.945 3-.316 0-6.363.158-8.519 5.842-.526 1.158-1.63 1.894-2.839 1.894ZM470.155 132.316c-.788 0-1.63-.316-2.208-.947-4.838-5.263-12.095-1.369-12.41-1.211-1.42.79-3.261.263-4.049-1.158-.789-1.421-.316-3.21 1.156-4.052 3.997-2.263 13.252-4.632 19.667 2.368 1.105 1.211 1.052 3.105-.157 4.211a2.917 2.917 0 0 1-1.999.789Z" fill="#A0655D"/><path d="M510.175 136.737h-.052a.963.963 0 0 1-.842-.947c.842-12.421 9.571-15.474 9.939-15.632.473-.158.946.105 1.104.579.158.474-.105.948-.578 1.105-.316.106-7.993 2.895-8.729 14.053a.831.831 0 0 1-.842.842Z" fill="#DD8762"/><path d="M485.037 71.421c-.21 0-.421-.052-.578-.21-.106-.105-12.516-11.316-19.72-9.684-3.681.842-5.889 2.789-7.835 4.526-1.998 1.79-3.734 3.316-6.258 2.579a.943.943 0 0 1-.631-1.106.942.942 0 0 1 1.104-.631c1.525.421 2.63-.474 4.628-2.21 1.998-1.79 4.47-4 8.624-4.948 8.098-1.895 20.771 9.632 21.297 10.105.368.316.368.895.053 1.264-.211.21-.421.315-.684.315ZM410.634 97.263c.578-2.684 3.208-3.736 5.521-2.473 1.42.79 2.367 2.263 3.839 3.052 2.209 1.158 4.628.948 6.784-.105 1.051-.474.105-2.052-.894-1.526-3.681 1.79-5.627-.684-8.361-2.684-1-.737-2.104-1.21-3.418-1.158-2.577.105-4.681 1.947-5.259 4.473-.158 1.106 1.578 1.58 1.788.421ZM493.351 110.053c3.418 3.842 4.996 8.789 4.312 13.894-.157 1.106 1.578 1.632 1.736.474.788-5.789-.842-11.316-4.786-15.632-.788-.842-2.05.421-1.262 1.264ZM501.604 112.053c.684 1.842.894 3.632.737 5.579-.106 1.158 1.682 1.158 1.787 0a13.216 13.216 0 0 0-.788-6.053c-.421-1.105-2.156-.631-1.736.474Z" fill="#824D48"/><path d="M422.467 210.421c3.733 5.895 8.571 10.316 15.88 10.526 1.157.053 1.157-1.736 0-1.789-6.625-.158-10.99-4.263-14.355-9.632-.579-1-2.156-.105-1.525.895ZM384.026 173.421c-.421 9.842-.158 19.895 2.682 29.369 2.839 9.421 8.203 17.789 13.567 25.947.631.947 2.156.053 1.525-.895-5.206-8.052-10.57-16.263-13.357-25.526-2.787-9.369-3.05-19.211-2.629-28.895.052-1.158-1.735-1.158-1.788 0Z" fill="#86A2A3"/><path d="M455.328 180.579s8.572 0 21.402-7.474c0 0 1.052 11.264-7.467 13.369-8.624 2.158-13.935-5.895-13.935-5.895Z" fill="#C75643"/><mask id="b" style="mask-type:luminance" maskUnits="userSpaceOnUse" x="455" y="173" width="22" height="14"><path d="M455.328 180.579s8.572 0 21.402-7.474c0 0 1.052 11.264-7.467 13.369-8.624 2.158-13.935-5.895-13.935-5.895Z" fill="#fff"/></mask><g mask="url(#b)"><path d="M474.943 172.158s3.997 6.474-8.308 10.105c-10.097 2.948-12.463-4.736-12.463-4.736l20.771-5.369Z" fill="#fff"/></g><path d="M428.825 190.158c-.631 10.895 2.366 21.579 8.519 30.579.631.947 2.208.053 1.525-.895-5.995-8.789-8.835-19.105-8.256-29.684.052-1.158-1.736-1.158-1.788 0Z" fill="#86A2A3"/><path d="m329.016 466.263 160.753-16.737-136.985-55.21-128.307 8.316 104.539 63.631Z" fill="#6A6461"/><path d="m329.334 465.947 160.437-16.421v-4.368l-161.279 16.421.842 4.368ZM339.323 450.421l97.388-10.105c1.577-.158 1.893-2.369.421-2.948l-82.612-33.315c-.21-.106-.421-.106-.683-.106L275.958 409c-1.525.105-1.998 2.053-.684 2.842l63.103 38.421c.315.158.631.211.946.158Z" fill="#4F4A48"/><path d="m308.404 292.105 20.666 174.158-104.592-63.632L207.651 254c-.21-1.632 1.42-2.842 2.945-2.263l96.441 38.631c.736.263 1.262.948 1.367 1.737Z" fill="#D4CEC7"/><path d="M257.242 365.684c-2.209 0-4.365-1.632-6.1-4.684-1.788-3.053-2.997-7.158-3.418-11.632-.421-4.473-.053-8.789 1.052-12.105 1.209-3.579 3.155-5.632 5.521-5.895 2.366-.21 4.68 1.421 6.573 4.684 1.788 3.053 2.998 7.158 3.418 11.632.421 4.474.053 8.789-1.051 12.105-1.21 3.579-3.156 5.632-5.522 5.895h-.473Zm-2.577-32.579h-.263c-1.577.158-3.05 1.842-3.996 4.684-1.052 3.106-1.42 7.105-.947 11.369.421 4.21 1.578 8.105 3.208 10.947 1.472 2.579 3.26 3.947 4.838 3.789 1.577-.157 3.05-1.842 3.996-4.684 1.052-3.105 1.42-7.105.947-11.368-.421-4.211-1.578-8.105-3.208-10.948-1.42-2.421-3.05-3.789-4.575-3.789Z" fill="#fff"/><path d="M497.501 241.158c-4.733 6.526-5.364 17.263 0 19.632 5.363 2.368 7.151 4.263 7.151 4.263s-5.942 7.631 0 11.158c5.942 3.579 14.251-4.737 14.251-4.737l3.576-21.421-11.306-13.684-13.672 4.789Z" fill="#0A043C"/><path d="M609.405 292.474c30.815 8.474 54.163 31.632 61.893 73.263 4.154 22.369 3.838 52 2.682 74.579-1 18.895-16.565 33.684-35.443 33.684h-77.984c-11.463 0-20.823-9.157-21.086-20.631-.842-35.211-2.104-104.474.526-118.579 3.575-19 36.599-51.369 69.412-42.316Z" fill="#C75643"/><path d="M616.924 444.526c-.473 9.053-61.209-17.842-54.057-32.105 7.151-14.263 55.267 10.105 54.057 32.105Z" fill="#933B2F"/><path d="M574.07 389.737c-11.306 19.526-26.871 66.316-13.882 71.789 11.305 4.737 11.305 5.948 17.826 2.948 11.884-5.421 27.66-23.263 40.28-50 12.621-26.737-20.298-66.211-44.224-24.737ZM519.802 380c-20.929 21.632-55.846 36.895-71.306 31.526-15.46-5.368-9.518-15.473-6.521-22 2.945-6.526 57.634-33.315 59.422-33.894 1.735-.579 36.809 5.368 18.405 24.368Z" fill="#FDA87E"/><path d="M567.02 300.842c-16.932 3.053-86.45 64.895-86.45 64.895s19.036 34.474 43.383 36.895c0 0 23.769-23.79 32.656-42.842 8.939-19 10.411-58.948 10.411-58.948Z" fill="#C75643"/><path d="M567.336 424.632C544.829 421.158 438.081 419 438.081 419l-.315 14.579s121.787 39.947 135.775 32.474c13.987-7.527 16.932-37.842-6.205-41.421ZM401.534 418.105c-8.308 2.369-16.617 1.79-17.826 4.158-1.21 2.368-8.887 13.105-13.094 11.316-4.154-1.79 3.576-12.474 6.521-15.474 2.997-3 4.732-7.158 8.308-7.158 3.629 0 16.091 7.158 16.091 7.158Z" fill="#FDA87E"/><path d="M443.128 420.684s-26.503-15-31.919-13.473c-5.416 1.473-25.609 1-26.608 4.947-.999 3.947 17.721 13.316 24.137 14.789 6.415 1.474 23.663 9.843 30.552 5.895 6.888-3.947 3.838-12.158 3.838-12.158Z" fill="#FDA87E"/><path d="M402.375 411.105c-9.361 1.895-11.306 1.474-12.831 4.421-1.473 2.948-3.471 11.842-3.944 13.316-.473 1.474-6.784 6.474-3.471 8.368 3.471 1.948 4.417-.473 7.415-3.473 2.945-2.948 4.101-10.211 6.731-11 2.629-.79 10.043-1.79 13.462-4.737 3.47-2.948 0-8.369-7.362-6.895Z" fill="#FDA87E"/><path d="M390.54 418.053c-2.944 3.947-7.414 3.947-5.889 6.421 1.472 2.473 1.472 7.894 0 11.315-1.473 3.474-4.417 1.474-5.89-5.421-1.472-6.894-1.472-5.894.999-10.842 2.472-4.947 4.733-8.894 7.047-8.631 2.261.21 3.733 7.158 3.733 7.158Z" fill="#FDA87E"/><path d="M388.7 418.895a.847.847 0 0 1-.473-.158c-.421-.263-.526-.842-.263-1.21.105-.211 3.155-4.737 8.834-6.264 5.521-1.526 8.519-1.263 8.624-1.263.473.053.841.474.789.948-.053.473-.474.842-.947.789 0 0-2.839-.21-8.045 1.211-4.996 1.368-7.783 5.473-7.783 5.526-.158.316-.473.421-.736.421ZM378.238 429.158a.901.901 0 0 1-.894-.684c-.053-.316-1.683-8.369 6.573-16.948.368-.368.894-.368 1.262 0 .368.369.368.895 0 1.263-7.572 7.895-6.205 15.053-6.152 15.316a.895.895 0 0 1-.684 1.053h-.105Z" fill="#DD8762"/><path d="M463.9 387.158c-15.144-9.21-54.951-9.21-70.99-9.21-16.038 0-13.094 5.368-10.096 11.316 2.944 5.947 60.841 23.842 70.674 23.368 9.834-.474 24.084-17.158 10.412-25.474Z" fill="#FDA87E"/><path d="M633.274 331.842c-21.77-7.263-36.231 5.369-49.903 33.895-13.673 28.526-20.824 48.158-20.824 48.158s38.65-13.684 54.057 30.947c0 0 35.653-33.894 38.02-65.421 2.366-31.526-7.099-42.789-21.35-47.579Z" fill="#C75643"/><path d="M525.738 195.053c-23.296 10.211-33.287 39.842-21.981 71.368 11.306 31.527 25.241 59.79 41.91 58 16.617-1.789 50.219-28.842 53.795-53.842 3.576-25 .579-56.473-19.036-69.579-19.667-13.052-45.223-10.105-54.688-5.947Z" fill="#FDA87E"/><path d="M562.547 315.211c.789.263 4.838 5 8.939 10.053 6.258 7.684 17.406 9.421 25.609 3.894 7.73-5.21 11.727-11.789 13.304-20.052.474-2.579 0-5.263-1.367-7.527l-16.459-27.105-30.026 40.737Z" fill="#FDA87E"/><path d="M596.044 280.263s-13.409 26.684-31.919 36.316l5.469 6.316s31.235-24.211 28.869-38.684l-2.419-3.948Z" fill="#DD8762"/><path d="M582.168 268.211c-1.209 7.158-2.681.895-16.354-7.421-13.672-8.316-9.78-16.263-10.096-15.474-2.103 5.053-5.942 9.684-15.46 8.316-8.308-1.211-8.308-11.316-8.308-11.316s-5.049 22.316-18.721 18.737c-13.672-3.579-15.723-14-15.723-14s-7.73 2.947-11.884-4.158c-5.995-10.263 8.046-15.737 8.046-15.737s-8.309-4.737-5.364-13.105c2.997-8.316 12.463-6.526 12.463-6.526s38.597-45.211 68.939-28.527c0 0 21.402-5.368 33.865 12.474 12.462 17.842 9.517 23.21 9.517 23.21s11.885 5.948 9.518 17.843c-2.366 11.894-5.942 10.684-5.942 10.684s7.73 7.158 4.155 17.842c-3.576 10.684-10.675 11.895-10.675 11.895s2.945 11.157-5.942 11.21l-18.405-1.105-3.629-14.842Z" fill="#0A043C"/><path d="M579.797 272.947c.578-7.157 2.997-19.052 11.884-14.842 8.94 4.158 10.096 14.843 7.152 22.579-2.945 7.737-11.937 15.369-17.196 11.158-.946-.737-1.525-2.526-1.525-2.526l-.315-16.369ZM391.437 378.842c-8.045-1-29.29-2.684-34.285-1.21-4.996 1.526-3.997 10.052 1.998 13.526 5.995 3.526 9.045 4.526 16.564 3 7.52-1.526 12.621-1.158 12.621-1.158l3.102-14.158Z" fill="#FDA87E"/><path d="M385.076 392.053c-2.261 6.053-8.834 8.158-17.406 8.684-8.518.527-16.564 8.527-22.085 4.527-2.998-3.527 1.998-7.527 6.993-9.053 4.996-1.526 8.046-4 11.517-7 3.575-3 24.82-7.316 20.981 2.842Z" fill="#FDA87E"/><path d="M362.201 390.842c-.946-5.053-12.042 1.842-13.093 3.842-1 2-4.996 9.053-5.995 10.527-.999 1.526.999 11.052-3.523 11.052-4.523 0-2.524-8.526-2.998-10.052-.526-1.527 2.998-11.527 3.997-13.527.999-2 14.566-15.579 16.564-15.052 1.998.526 5.048 13.421 5.048 13.21Z" fill="#FDA87E"/><path d="M357.153 377.632c-3.997-.527-22.559 0-24.084 2-1.525 2-12.042 19.052-10.044 20.579 1.998 1.526 7.52-3.527 10.044-7 2.524-3.474 4.522-5.527 4.522-5.527s4.996 0 11.516-2c6.521-2 8.046-8.052 8.046-8.052Z" fill="#FDA87E"/><path d="M346.843 386.842c-.263 0-.578-.158-.736-.368a.974.974 0 0 1 .21-1.263l9.518-6.527c.421-.263.947-.158 1.262.211.263.421.158.947-.21 1.263l-9.518 6.526a.882.882 0 0 1-.526.158Z" fill="#DD8762"/><path d="M544.199 273.316c.736 3.421 0 6.421-1.63 6.79-1.63.368-3.524-2.158-4.26-5.527-.736-3.421 0-6.421 1.63-6.789 1.631-.316 3.524 2.158 4.26 5.526ZM518.644 277.474c.736 3.421 0 6.421-1.63 6.789-1.63.369-3.523-2.158-4.259-5.526-.737-3.421 0-6.421 1.63-6.789 1.63-.316 3.523 2.157 4.259 5.526Z" fill="#0A043C"/><path d="M530.999 298.948c-1.735 0-3.313-.527-4.207-2.106-2.261-3.947-3.365-19.947-3.365-20.579-.053-.473.315-.842.789-.894.473-.053.841.316.894.789.315 4.527 1.472 16.895 3.155 19.895 1.735 3.053 8.676-.316 8.781-.316a.805.805 0 0 1 1.105.369.805.805 0 0 1-.368 1.105c-.316.105-3.734 1.737-6.784 1.737Z" fill="#DD8762"/><path d="M508.178 268.526c-.368 0-.736-.105-1.051-.263-1.157-.579-1.63-2-1.052-3.21 3.628-7.316 10.885-6.79 11.201-6.79 1.314.105 2.261 1.263 2.156 2.579a2.35 2.35 0 0 1-2.524 2.158c-.211 0-4.418-.21-6.626 4.158-.368.895-1.21 1.368-2.104 1.368ZM547.878 262.263c-.421 0-.894-.105-1.262-.368-5.837-3.684-10.57-1.369-10.622-1.369-1.157.579-2.577.106-3.208-1.052-.579-1.158-.105-2.579 1.052-3.211.315-.158 7.256-3.526 15.302 1.632 1.104.684 1.42 2.158.736 3.263-.421.737-1.209 1.105-1.998 1.105Z" fill="#0A043C"/><path d="M531.844 306.421s7.888 0 19.667-6.895c0 0 .999 10.369-6.889 12.316-7.835 2-12.778-5.421-12.778-5.421Z" fill="#C75643"/><mask id="c" style="mask-type:luminance" maskUnits="userSpaceOnUse" x="531" y="299" width="21" height="14"><path d="M531.844 306.421s7.888 0 19.667-6.895c0 0 .999 10.369-6.889 12.316-7.835 2-12.778-5.421-12.778-5.421Z" fill="#fff"/></mask><g mask="url(#c)"><path d="M549.883 298.684s3.681 5.947-7.677 9.316c-9.308 2.737-11.464-4.369-11.464-4.369l19.141-4.947Z" fill="#fff"/></g><path d="M584.27 281.895c-.42 0-.736-.263-.841-.684 0-.106-.631-2.579 0-9.211.315-3.21 2.156-5.684 5.101-6.737 2.103-.789 4.417-.684 5.311.264.368.368.368.894 0 1.263-.368.368-.894.368-1.262 0-.316-.263-1.893-.474-3.681.263-1.525.631-3.418 2-3.681 5.158-.579 6.263-.053 8.631 0 8.631.105.474-.158.948-.631 1.053h-.316Z" fill="#DD8762"/><path d="M562.284 413.316c-.105 0-.211 0-.316-.053-.473-.158-.683-.684-.526-1.158 19.615-51.21 35.811-76.526 52.428-82.052.473-.158.946.105 1.104.579.158.473-.105.947-.578 1.105-16.039 5.316-31.867 30.316-51.323 81-.106.368-.474.579-.789.579ZM617.242 445.737c-.21 0-.42-.053-.578-.211a.909.909 0 0 1-.105-1.263c27.449-31.579 37.493-70.316 37.598-70.684.105-.474.631-.79 1.104-.632.474.106.789.632.631 1.106-.105.368-10.254 39.526-37.966 71.421-.21.158-.421.263-.684.263ZM538.412 387.474a.887.887 0 0 1-.894-.895c-.368-42 9.045-56.421 9.466-57.052.263-.421.841-.527 1.262-.263.42.263.526.842.263 1.263-.106.158-9.518 14.684-9.15 56-.053.526-.421.947-.947.947Z" fill="#933B2F"/><path d="M498.977 222.737h-.105a.899.899 0 0 1-.789-1c1.262-11.421 12.147-10.895 12.253-10.895a.964.964 0 0 1 .841.948.964.964 0 0 1-.947.842c-.368 0-9.255-.369-10.359 9.315a.91.91 0 0 1-.894.79ZM578.587 250.053c-5.574-.211-9.886-1.947-12.83-5.211-4.628-5.158-4.155-12.105-4.102-12.368a.963.963 0 0 1 .947-.842.963.963 0 0 1 .841.947c0 .053-.421 6.527 3.681 11.053 2.577 2.895 6.468 4.474 11.516 4.631a.86.86 0 0 1 .841.948c0 .473-.368.842-.894.842ZM569.124 194.158a1 1 0 0 1-.421-.105c-.421-.211-.578-.79-.368-1.211 3.102-5.737 10.254-4.684 13.567-3.368.473.158.684.684.473 1.158-.158.473-.683.684-1.157.473-.315-.157-8.203-3.21-11.358 2.579-.158.316-.421.474-.736.474ZM510.86 225.684h-.211a.893.893 0 0 1-.683-1.052c2.524-12 12.83-10.211 12.936-10.211.473.105.788.579.736 1.053-.105.473-.579.789-1.052.737-.368-.053-8.677-1.474-10.833 8.842-.105.368-.473.631-.893.631Z" fill="#483466"/><path d="M9.421 153.919c-14.589-35.217 2.31-75.663 37.742-90.342 35.43-14.677 75.98 1.97 90.57 37.187 14.589 35.216-2.31 75.665-37.739 90.342-35.433 14.678-75.984-1.971-90.573-37.187Z" fill="#D6EDFA"/></g></svg>