<svg width="322" height="509" viewBox="0 0 322 509" fill="none" xmlns="http://www.w3.org/2000/svg">
<path d="M300.476 301.072C294.602 279.147 272.065 266.135 250.139 272.01C228.214 277.885 215.202 300.422 221.077 322.347C226.952 344.273 249.489 357.284 271.414 351.409C293.34 345.534 306.351 322.998 300.476 301.072Z" fill="#68CCEA"/>
<path d="M209.085 182.31C195.573 131.881 143.739 101.954 93.3102 115.467C42.8817 128.979 12.9551 180.813 26.4674 231.242C39.9797 281.67 91.814 311.597 142.243 298.085C192.671 284.572 222.598 232.738 209.085 182.31Z" fill="#F2C45B"/>
<path d="M128.522 148.897C130.723 146.621 134.036 145.659 137.147 146.108C143.549 146.909 148.871 151.163 155.209 152.21C162.872 153.439 170.589 150.906 178.252 152.2C182.848 153.065 187.08 155.63 190.008 159.264C191.291 160.846 192.221 162.674 193.29 164.394C193.29 162.374 193.322 160.29 192.552 158.388C191.9 156.72 190.575 155.459 189.527 154.049C191.9 154.85 193.439 157.062 194.091 159.382C194.786 161.808 194.454 164.362 194.241 166.842C197.308 166.201 201.498 165.41 203.496 168.541C202.16 168.167 200.889 167.622 199.52 167.355C198.131 167.088 196.71 167.398 195.352 167.665C197.575 169.011 200.001 170.23 201.583 172.378C204.768 176.472 205.196 181.922 204.832 186.913C204.234 194.192 202.374 201.363 199.713 208.161C198.879 207.434 197.992 206.761 197.073 206.151C195.844 205.339 194.39 204.912 192.926 204.805C190.5 204.591 188.074 204.431 185.658 204.164C185.744 198.606 185.658 192.728 182.869 187.736C181.683 185.684 180.015 183.6 177.643 182.948C175.526 182.649 173.378 183.151 171.241 182.938C166.004 182.446 161.044 180.501 156.331 178.288C154.354 177.23 152.409 178.855 150.485 179.24C144.927 180.576 139.081 179.058 134.069 176.578C132.348 175.285 130.787 173.789 129.419 172.143C127.496 169.845 126.737 166.874 125.443 164.234C125.54 166.03 125.711 167.889 126.63 169.482C127.463 171.213 128.885 172.624 129.473 174.462C129.516 176.6 128.511 178.598 127.923 180.629C126.01 178.93 124.204 177.006 123.274 174.569C122.002 171.331 121.147 167.686 122.098 164.255C122.462 162.919 122.889 161.605 123.22 160.269C121.051 162.257 120.666 165.335 120.559 168.103C120.442 173.019 122.857 177.754 126.534 180.928C127.421 181.623 127.87 182.724 127.485 183.825C127.068 185.984 125.818 187.822 124.792 189.724C123.114 187.683 121.959 185.3 120.709 182.991C118.464 178.652 116.637 173.896 116.701 168.937C116.722 165.645 117.866 162.257 120.292 159.959C121.628 158.634 123.402 157.918 125.091 157.18C125.443 154.198 126.288 151.088 128.522 148.94V148.897ZM130.029 152.691C131.92 153.867 134.175 154.273 136.067 155.438C138.461 156.881 140.716 158.559 142.832 160.386C146.648 163.689 150.517 166.927 154.418 170.134C157.956 173.051 162.017 175.242 166.089 177.305C168.676 178.63 171.593 179.347 174.5 179.09C175.216 179.047 175.794 178.588 176.392 178.267C173.667 177.85 170.867 177.743 168.248 176.814C163.417 175.317 159.431 172.09 155.412 169.15C149.673 165.207 145.066 159.809 139.135 156.122C136.377 154.38 133.352 152.777 130.007 152.691H130.029ZM130.082 162.599C130.552 164.886 131.845 166.874 133.363 168.605C136.773 172.72 141.796 175.189 146.937 176.365C148.583 176.621 150.752 176.942 151.778 175.264C149.395 175.05 146.958 175.242 144.649 174.516C140.898 173.383 137.724 170.946 134.817 168.402C132.871 166.778 131.749 164.448 130.071 162.599H130.082ZM193.183 172.239C194.978 173.703 197.169 174.729 198.633 176.578C200.033 178.085 200.44 180.266 201.989 181.666C201.797 179.368 200.846 177.188 199.36 175.413C197.853 173.575 195.716 171.854 193.172 172.228L193.183 172.239ZM185.723 181.655C186.364 185.364 189.367 187.929 192.018 190.312C194.679 192.706 198.356 194.128 201.957 193.486C200.482 192.503 198.623 192.642 197.02 192.012C193.151 190.569 189.784 187.715 187.871 184.038C187.379 183.066 186.738 182.136 185.723 181.655Z" fill="#58301F"/>
<path d="M130.016 152.703C133.35 152.789 136.386 154.392 139.143 156.134C145.075 159.821 149.681 165.208 155.42 169.162C159.439 172.112 163.426 175.329 168.257 176.825C170.875 177.755 173.675 177.862 176.401 178.279C175.802 178.61 175.214 179.059 174.509 179.102C171.602 179.358 168.684 178.642 166.098 177.317C162.026 175.254 157.964 173.074 154.416 170.146C150.515 166.939 146.646 163.701 142.83 160.398C140.714 158.571 138.459 156.893 136.065 155.45C134.162 154.296 131.918 153.879 130.026 152.703H130.016Z" fill="#341707"/>
<path d="M120.562 168.08C120.679 165.301 121.053 162.223 123.223 160.246C122.892 161.582 122.464 162.897 122.101 164.233C121.139 167.663 122.005 171.308 123.276 174.546C124.206 176.983 126.012 178.907 127.926 180.606C128.513 178.576 129.507 176.588 129.475 174.439C128.898 172.601 127.466 171.19 126.632 169.459C125.724 167.866 125.553 166.007 125.446 164.211C126.739 166.851 127.498 169.822 129.422 172.12C130.79 173.766 132.361 175.273 134.071 176.556C130.918 182.274 129.315 188.665 128.054 195.024C126.803 193.368 125.457 191.679 124.783 189.691C125.809 187.789 127.06 185.95 127.477 183.791C127.861 182.69 127.413 181.59 126.525 180.895C122.849 177.721 120.433 172.986 120.551 168.07L120.562 168.08Z" fill="#3A1807"/>
<path d="M130.074 162.598C131.752 164.457 132.874 166.777 134.82 168.401C137.727 170.945 140.901 173.382 144.652 174.515C146.961 175.241 149.398 175.049 151.781 175.263C150.755 176.941 148.585 176.609 146.94 176.364C141.799 175.199 136.775 172.73 133.366 168.604C131.838 166.873 130.544 164.885 130.085 162.598H130.074Z" fill="#381906"/>
<path d="M193.184 172.238C195.727 171.853 197.865 173.574 199.372 175.423C200.847 177.186 201.798 179.377 202.001 181.675C200.451 180.275 200.045 178.106 198.645 176.588C197.181 174.728 194.99 173.713 193.194 172.249L193.184 172.238Z" fill="#39190A"/>
<path d="M134.068 176.557C139.081 179.047 144.927 180.554 150.485 179.218C152.409 178.833 154.354 177.208 156.331 178.267C161.044 180.49 166.014 182.424 171.251 182.916C173.378 183.13 175.526 182.627 177.653 182.926C180.037 183.578 181.704 185.663 182.879 187.715C185.658 192.706 185.754 198.584 185.669 204.142C182.687 203.864 179.641 203.703 176.83 202.571C173.613 201.309 170.428 199.717 166.912 199.578C162.38 199.343 157.592 199.407 153.413 201.395C151.66 202.175 150.57 203.81 149.651 205.424C147.802 205.264 145.953 205.189 144.104 205.178C142.512 202.934 140.321 201.085 137.638 200.326C134.528 199.279 131.183 199.193 127.934 199.428L128.201 199.343C129.879 198.766 131.664 198.381 133.427 198.702C135.415 198.958 137.275 199.931 139.295 199.909C140.866 199.909 142.052 197.836 140.962 196.585C139.583 195.175 137.563 194.694 135.693 194.288C133.085 193.721 130.413 194.245 127.998 195.271L128.062 195.004C129.312 188.644 130.915 182.253 134.079 176.535L134.068 176.557ZM160.82 193.785C159.024 194.159 157.122 194.544 155.679 195.73C154.279 196.938 155.562 199.546 157.346 199.386C160.296 199.247 163.139 198.21 166.1 198.295C168.259 198.199 170.279 199.065 172.405 199.3C173.378 199.439 174.447 198.787 174.596 197.772C174.404 196.596 173.335 195.848 172.363 195.324C168.836 193.518 164.7 193.091 160.82 193.775V193.785Z" fill="#F5A288"/>
<path d="M185.719 181.652C186.734 182.133 187.375 183.063 187.867 184.036C189.78 187.712 193.147 190.555 197.016 192.009C198.619 192.639 200.479 192.5 201.953 193.484C198.352 194.125 194.675 192.714 192.014 190.309C189.363 187.915 186.36 185.361 185.719 181.652Z" fill="#391A0A"/>
<path d="M160.823 193.784C164.703 193.111 168.839 193.528 172.366 195.334C173.339 195.858 174.408 196.606 174.6 197.781C174.45 198.786 173.382 199.438 172.409 199.31C170.293 199.075 168.262 198.209 166.103 198.305C163.132 198.209 160.289 199.256 157.35 199.395C155.576 199.555 154.282 196.948 155.683 195.74C157.125 194.554 159.028 194.158 160.823 193.795V193.784Z" fill="#562F1E"/>
<path d="M128.003 195.294C130.419 194.268 133.091 193.744 135.699 194.31C137.569 194.717 139.589 195.198 140.968 196.608C142.058 197.848 140.871 199.932 139.3 199.932C137.27 199.954 135.421 198.981 133.433 198.725C131.669 198.404 129.874 198.789 128.206 199.366C127.127 198.169 127.383 196.651 128.014 195.304L128.003 195.294Z" fill="#542D1C"/>
<path d="M120.556 202.058C123.004 201.149 125.376 200.006 127.931 199.428C131.169 199.193 134.514 199.279 137.635 200.326C140.318 201.096 142.498 202.945 144.101 205.178C145.961 205.178 147.799 205.264 149.648 205.424C150.568 203.821 151.658 202.175 153.41 201.395C157.589 199.407 162.378 199.343 166.909 199.578C170.425 199.728 173.61 201.309 176.827 202.571C179.638 203.703 182.684 203.864 185.666 204.142C188.082 204.409 190.508 204.569 192.934 204.783C194.409 204.89 195.841 205.317 197.081 206.13C195.392 206.29 193.703 206.546 192.057 206.953C189.728 206.888 187.43 206.493 185.11 206.29C182.919 206.301 180.322 205.21 178.431 206.739C177.041 207.733 177.159 209.603 176.892 211.11C176.368 214.894 175.385 218.998 172.413 221.648C169.154 224.427 164.483 224.801 160.422 224.021C157.044 223.38 154.148 221.06 152.588 218.036C151.006 215.449 150.568 212.414 149.766 209.539C149.178 207.337 146.196 207.07 144.497 208.139C143.653 209.742 142.819 211.345 141.868 212.884C142.124 210.159 142.616 207.209 141.28 204.665C137.09 200.861 130.528 200.091 125.398 202.335C126.125 202.517 126.862 202.71 127.599 202.891C127.578 203.597 127.557 204.302 127.535 205.018C125.889 204.922 124.254 204.804 122.608 204.687C121.946 208.321 122.117 212.115 123.164 215.663C123.741 217.63 125.056 219.318 126.712 220.494C127.525 220.879 128.369 221.21 129.235 221.477C130.774 221.755 132.356 221.873 133.905 221.648C135.637 221.392 137.144 220.451 138.672 219.639C138.277 220.622 137.902 221.606 137.518 222.589C134.205 223.636 130.592 223.882 127.268 222.728C124.895 221.67 122.94 219.703 121.956 217.288C120.663 214.455 120.556 211.292 120.407 208.224C120.481 206.493 118.429 205.446 118.803 203.671C118.675 202.645 119.851 202.432 120.556 202.058ZM152.502 205.114C151.177 208.085 152.245 211.484 153.175 214.434C154.212 218.399 157.493 221.627 161.544 222.386C165.242 222.76 169.549 222.3 172.018 219.179C174.722 215.492 175.203 210.683 174.946 206.236L174.711 206.215C174.326 205.104 173.878 203.885 172.766 203.308C169.581 201.491 165.744 201.256 162.153 201.47C158.754 201.769 154.714 202.175 152.502 205.114Z" fill="#435A8C"/>
<path d="M125.371 202.335C130.491 200.101 137.053 200.871 141.253 204.665C140.035 205.744 138.848 206.845 137.662 207.935C136.166 207.411 134.584 207.102 133.002 207.24C131.025 207.486 128.342 209.186 128.962 211.484C130.662 211.932 131.869 210.319 132.97 209.303C134.06 209.453 135.15 209.592 136.219 209.87C136.358 209.977 136.647 210.19 136.786 210.297C133.932 213.803 131.869 217.843 129.208 221.477C128.342 221.209 127.498 220.878 126.686 220.493C126.942 215.331 127.22 210.169 127.509 205.017C127.53 204.301 127.551 203.596 127.573 202.891C126.835 202.709 126.098 202.516 125.371 202.335Z" fill="#FBCDC0"/>
<path d="M152.498 205.113C154.7 202.174 158.751 201.768 162.149 201.469C160.942 203.938 159.296 206.161 158.344 208.747C157.842 209.549 157.318 210.34 156.741 211.098C155.715 212.381 154.454 213.439 153.161 214.433C152.231 211.483 151.173 208.084 152.487 205.113H152.498Z" fill="#F5AF9B"/>
<path d="M162.149 201.468C165.74 201.254 169.577 201.489 172.762 203.306C173.873 203.883 174.322 205.102 174.707 206.213C173.959 206.117 173.221 205.978 172.484 205.882C171.404 207.09 170.346 208.308 169.288 209.537C168.262 208.8 167.236 208.041 166.146 207.389L165.782 207.325C163.207 206.683 160.556 207.389 158.344 208.746C159.295 206.16 160.941 203.926 162.149 201.468Z" fill="#FACABE"/>
<path d="M141.256 204.664C142.592 207.197 142.1 210.158 141.844 212.883C140.732 215.117 139.61 217.34 138.648 219.648C137.131 220.461 135.624 221.401 133.881 221.658C132.332 221.882 130.75 221.765 129.211 221.487C131.872 217.853 133.935 213.813 136.789 210.307C137.879 211.216 139.022 212.06 140.273 212.733C140.679 211.013 139.664 209.57 138.413 208.512C138.157 208.309 137.9 208.127 137.633 207.945C138.83 206.844 140.016 205.744 141.224 204.675L141.256 204.664Z" fill="#FAB5A1"/>
<path d="M172.471 205.883C173.208 205.979 173.946 206.118 174.694 206.214L174.929 206.236C175.185 210.671 174.704 215.491 172 219.178C169.531 222.299 165.214 222.759 161.516 222.385C163.514 218.783 165.353 215.085 167.597 211.622C168.163 211.558 168.741 211.494 169.318 211.44C169.296 210.799 169.275 210.169 169.264 209.538C170.322 208.309 171.38 207.091 172.46 205.883H172.471Z" fill="#F9B7A5"/>
<path d="M178.416 206.738C180.318 205.209 182.915 206.299 185.095 206.289C185.095 208.843 184.604 211.365 184.219 213.888C184.518 213.984 185.106 214.198 185.395 214.294C187.351 211.633 189.328 208.907 192.032 206.951C193.678 206.545 195.366 206.299 197.055 206.128C197.974 206.748 198.861 207.411 199.695 208.138C202.207 210.97 202.57 215.117 201.629 218.665C200.582 222.406 198.562 225.986 195.495 228.434C193.817 229.802 191.69 230.689 189.51 230.668C188.665 230.635 187.832 230.55 186.998 230.486C186.998 232.452 187.051 234.43 187.222 236.396C187.778 243.578 187.949 250.793 188.676 257.964C188.697 262.442 189.445 266.888 189.445 271.367C188.826 273.547 187.864 275.631 186.645 277.544C181.878 283.38 174.825 287.291 167.332 288.136C162.16 288.766 156.666 288.136 152.145 285.378C149.591 283.861 147.699 281.285 147.047 278.388C146.502 275.994 146.758 273.536 146.929 271.121C149.409 271.078 151.921 271.153 154.347 270.565C160.952 268.983 167.183 265.82 172.195 261.213C177.582 256.201 182.231 250.194 184.753 243.226C185.117 242.146 185.288 241.013 185.47 239.902C183.984 242.039 182.99 244.487 181.419 246.571C178.287 250.664 174.611 254.48 170.015 256.917C162.918 260.732 154.528 262.325 146.577 260.711L146.277 260.668C143.52 259.557 140.645 258.499 138.422 256.446C133.848 252.599 131.357 246.945 129.637 241.355C128.408 237.241 127.83 232.965 127.296 228.722C127.029 226.734 126.965 224.714 127.243 222.716C130.566 223.87 134.179 223.624 137.492 222.577C138.433 225.131 140.442 227.557 143.253 228.006C145.187 227.974 147.015 227.258 148.896 226.895C148.746 226.467 148.586 226.05 148.426 225.634C146.566 225.879 144.803 226.702 142.922 226.724C140.859 225.965 138.529 223.582 139.758 221.262C141.66 217.03 144.76 213.001 144.45 208.116C146.149 207.058 149.12 207.315 149.719 209.516C150.521 212.391 150.948 215.416 152.541 218.013C154.112 221.038 157.008 223.357 160.375 223.998C164.436 224.779 169.107 224.405 172.366 221.626C175.338 218.986 176.332 214.882 176.845 211.088C177.122 209.581 177.005 207.71 178.384 206.716L178.416 206.738ZM194.276 213.813C191.326 216.228 188.89 219.595 188.377 223.453C190.087 221.775 190.129 218.922 192.342 217.693C193.015 219.371 193.4 221.177 194.426 222.694C194.832 220.503 194.02 218.409 192.994 216.528C194.469 215.234 196.061 214.08 197.547 212.787C196.392 212.883 195.163 212.99 194.276 213.813ZM147.304 231.833C143.99 232.196 140.592 231.854 137.385 232.923C136.423 233.81 135.429 234.868 135.579 236.3C135.729 241.398 138.914 246.272 143.424 248.612C147.635 250.504 152.701 250.547 156.784 248.302C160.043 246.603 162.373 243.504 163.634 240.105C164.383 237.283 164.938 234.109 163.271 231.501L163.015 231.715C162.053 231.148 160.995 230.742 159.862 230.828C155.661 230.903 151.493 231.523 147.304 231.833Z" fill="#F5A48A"/>
<path d="M185.096 206.289C187.415 206.492 189.713 206.888 192.043 206.952C189.339 208.908 187.362 211.644 185.406 214.294C185.107 214.198 184.519 213.984 184.23 213.888C184.615 211.366 185.096 208.843 185.107 206.289H185.096Z" fill="#4F2A19"/>
<path d="M133.002 207.24C134.584 207.09 136.165 207.411 137.662 207.935C137.918 208.106 138.185 208.298 138.431 208.501C137.694 208.95 136.956 209.41 136.23 209.869C135.161 209.591 134.06 209.452 132.98 209.303C133.483 208.651 133.942 207.967 134.391 207.283C134.049 207.272 133.344 207.24 133.002 207.24Z" fill="#6E6868"/>
<path d="M158.353 208.747C160.576 207.401 163.216 206.684 165.792 207.326C165.193 207.262 164.584 207.208 163.986 207.155C163.601 207.967 163.216 208.779 162.842 209.592C163.045 209.592 163.462 209.57 163.665 209.559C161.442 209.795 159.582 211.088 157.872 212.413C157.498 211.964 157.124 211.526 156.75 211.088C157.327 210.329 157.84 209.538 158.353 208.737V208.747Z" fill="#726462"/>
<path d="M128.97 211.483C128.35 209.185 131.033 207.486 133.01 207.24C133.362 207.24 134.057 207.272 134.399 207.283C133.94 207.967 133.491 208.651 132.988 209.303C131.888 210.318 130.669 211.932 128.97 211.483Z" fill="#524945"/>
<path d="M162.844 209.593C163.218 208.781 163.603 207.969 163.987 207.156C164.586 207.21 165.184 207.263 165.794 207.327L166.157 207.391C165.858 208.097 165.569 208.802 165.27 209.518C164.735 209.529 164.201 209.55 163.667 209.572C163.464 209.572 163.047 209.593 162.844 209.604V209.593Z" fill="#29150D"/>
<path d="M166.142 207.389C167.232 208.041 168.248 208.799 169.284 209.537C169.306 210.167 169.327 210.798 169.338 211.439C168.761 211.503 168.183 211.557 167.617 211.621C166.837 210.905 166.046 210.21 165.266 209.516C165.554 208.81 165.853 208.105 166.153 207.389H166.142Z" fill="#796B6F"/>
<path d="M141.839 212.872C142.79 211.333 143.635 209.73 144.468 208.127C144.768 213.011 141.668 217.041 139.777 221.273C138.547 223.592 140.867 225.976 142.94 226.734C144.81 226.713 146.585 225.89 148.444 225.644C148.594 226.061 148.754 226.478 148.915 226.905C147.034 227.269 145.206 227.985 143.271 228.017C140.45 227.568 138.451 225.142 137.5 222.588C137.885 221.604 138.259 220.61 138.654 219.638C139.616 217.34 140.738 215.106 141.85 212.872H141.839Z" fill="#D0684F"/>
<path d="M136.23 209.868C136.957 209.398 137.695 208.949 138.432 208.5C139.672 209.558 140.687 211.001 140.292 212.722C139.041 212.048 137.898 211.193 136.808 210.296C136.669 210.189 136.38 209.986 136.241 209.868H136.23Z" fill="#2F1B15"/>
<path d="M163.668 209.573C164.203 209.552 164.737 209.53 165.271 209.52C166.062 210.214 166.843 210.92 167.633 211.625C165.389 215.088 163.551 218.786 161.552 222.388C157.501 221.618 154.22 218.39 153.184 214.436C154.477 213.442 155.749 212.384 156.764 211.101C157.138 211.54 157.512 211.978 157.886 212.427C159.596 211.091 161.456 209.808 163.679 209.573H163.668Z" fill="#FBCDC1"/>
<path d="M194.267 213.813C195.154 212.99 196.383 212.883 197.537 212.787C196.052 214.08 194.459 215.235 192.984 216.528C194.01 218.409 194.833 220.504 194.416 222.695C193.401 221.177 193.006 219.371 192.332 217.693C190.12 218.922 190.077 221.786 188.367 223.454C188.87 219.595 191.317 216.229 194.267 213.813Z" fill="#C76246"/>
<path d="M47.412 223.903C49.2503 223.326 51.281 222.546 53.2048 223.251C55.3316 224.106 56.4966 226.233 57.3409 228.231C52.3497 228.018 47.5723 229.792 42.8055 230.989C41.4375 231.31 40.1764 231.919 39.0434 232.742C44.9217 231.876 50.5328 229.493 56.4859 229.119C59.5105 228.969 60.3656 232.528 60.4404 234.911C54.6583 235.211 48.8869 236.205 43.3506 237.882C44.8469 237.957 46.3432 237.947 47.8181 237.69C51.5161 237.017 55.2461 236.44 58.9975 236.172C60.5045 236.119 62.3428 236.076 63.3688 237.391C64.4911 238.748 64.2345 240.619 64.2132 242.254C60.6648 241.794 57.063 242.04 53.5361 242.585C52.2963 242.777 51.11 243.226 49.9664 243.729C53.9636 243.9 57.8967 242.606 61.8939 243.034C62.952 243.12 64.0956 243.686 64.2773 244.851C65.0361 248.335 64.2559 251.937 63.4543 255.346C63.1871 255.881 62.61 256.148 62.0436 256.244C60.0236 256.479 57.9929 256.629 55.9729 256.885C55.9729 255.539 55.9729 254.192 55.9729 252.845C57.1913 253.177 58.4097 253.519 59.6388 253.861C59.3182 253.369 58.9975 252.877 58.6769 252.386C59.3289 251.499 59.9701 250.601 60.6221 249.714C59.5319 250.462 58.4952 251.37 57.2127 251.755C56.3363 251.755 55.4919 251.509 54.6476 251.328C54.4232 253.636 54.4873 256.052 55.6629 258.136C57.6295 262.187 59.6709 266.643 58.741 271.26C58.4204 273.377 57.0951 275.097 56.0477 276.893C55.353 278.411 55.0431 280.056 54.7117 281.67C47.925 281.029 41.2879 279.351 34.8431 277.203C34.8431 275.813 34.8431 274.424 34.7683 273.045C34.4584 269.7 33.5499 266.451 32.9942 263.148C31.5834 255.357 30.194 247.566 29.1466 239.721C28.9328 236.931 28.377 233.276 31.1345 231.502C36.1684 228.231 41.7581 225.891 47.4227 223.946L47.412 223.903Z" fill="#F4A489"/>
<path d="M42.7991 230.978C47.5765 229.781 52.3433 228.007 57.3345 228.221C57.7406 228.338 58.1361 228.509 58.5101 228.734C59.4293 229.461 60.4019 230.284 60.7653 231.448C61.289 232.763 61.3424 234.345 62.3898 235.403C63.17 236.29 64.1747 237.017 64.7197 238.096C65.2221 239.251 64.9656 240.544 64.8801 241.762C64.5594 243.611 65.671 245.321 65.5748 247.17C65.4786 249.992 64.9335 252.888 63.4265 255.314C64.2388 251.905 65.0083 248.303 64.2495 244.819C64.0785 243.665 62.9242 243.087 61.8661 243.002C57.8689 242.574 53.9358 243.868 49.9385 243.697C51.0821 243.194 52.2685 242.745 53.5083 242.553C57.0352 242.008 60.6263 241.762 64.1854 242.222C64.2067 240.587 64.4739 238.716 63.341 237.359C62.315 236.044 60.4767 236.087 58.9697 236.14C55.2183 236.408 51.4883 236.985 47.7903 237.658C46.3154 237.915 44.8191 237.925 43.3228 237.85C48.8698 236.172 54.6305 235.179 60.4126 234.879C60.3378 232.496 59.4934 228.937 56.4581 229.086C50.4943 229.461 44.8939 231.844 39.0156 232.71C40.1485 231.887 41.4204 231.277 42.7777 230.957L42.7991 230.978Z" fill="#C25D42"/>
<path d="M100.402 429.098C101.567 432.528 101.792 436.258 103.502 439.497C105.939 444.146 108.878 448.56 112.49 452.386C111.731 452.237 110.962 452.098 110.214 451.927C109.07 449.244 106.804 447.288 105.383 444.766C102.625 440.16 100.253 434.997 100.424 429.525V429.098H100.413H100.402Z" fill="#C25D42"/>
<path d="M58.5195 228.734C60.0586 228.52 61.7793 228.306 63.1367 229.258C65.4025 230.818 66.5995 233.404 67.9248 235.734C68.534 237.038 69.4638 238.481 69.0363 239.977C68.363 241.623 66.375 241.591 64.8894 241.773C64.975 240.555 65.2315 239.261 64.7291 238.107C64.1841 237.028 63.1901 236.301 62.3992 235.414C61.3518 234.356 61.2984 232.774 60.7747 231.459C60.4006 230.294 59.4387 229.471 58.5195 228.745V228.734Z" fill="#F4A588"/>
<path d="M187.008 230.498C187.841 230.573 188.675 230.648 189.519 230.68C188.867 232.625 188.087 234.538 187.232 236.408C187.061 234.442 187.019 232.475 187.008 230.498Z" fill="#502A18"/>
<path d="M147.312 231.833C151.501 231.512 155.67 230.903 159.87 230.828C161.003 230.732 162.061 231.149 163.012 231.715C161.644 232.87 160.158 233.896 158.481 234.537C153.468 236.471 148.017 237.241 142.663 236.835C141.391 236.696 140.055 236.546 138.975 235.819C138.078 235.114 137.832 233.928 137.383 232.934C140.589 231.865 143.999 232.207 147.301 231.844L147.312 231.833Z" fill="#FEFEFE"/>
<path d="M163.001 231.704L163.258 231.49C164.925 234.109 164.369 237.283 163.621 240.094C160.148 239.463 156.46 239.121 153.072 240.393C148.947 241.793 145.698 244.978 143.411 248.601C138.89 246.261 135.715 241.387 135.566 236.289C135.416 234.868 136.41 233.799 137.372 232.912C137.821 233.906 138.067 235.092 138.965 235.797C140.044 236.513 141.391 236.674 142.652 236.813C148.006 237.219 153.457 236.449 158.47 234.515C160.148 233.874 161.633 232.848 163.001 231.693V231.704Z" fill="#701115"/>
<path d="M153.076 240.404C156.453 239.132 160.14 239.474 163.625 240.105C162.364 243.504 160.034 246.592 156.774 248.302C152.691 250.547 147.625 250.504 143.414 248.612C145.712 244.989 148.95 241.804 153.076 240.404Z" fill="#DE594C"/>
<path d="M181.417 246.581C182.999 244.497 183.982 242.05 185.468 239.912C185.286 241.024 185.126 242.157 184.763 243.236C182.24 250.204 177.602 256.222 172.205 261.224C167.192 265.83 160.95 268.994 154.356 270.575C151.93 271.152 149.418 271.088 146.939 271.131L146.586 271.152C147.088 267.7 146.928 264.184 146.586 260.721C154.538 262.324 162.928 260.743 170.024 256.927C174.62 254.49 178.297 250.675 181.428 246.581H181.417Z" fill="#CE6851"/>
<path d="M57.2039 251.713C58.4864 251.328 59.5231 250.42 60.6133 249.672C59.9613 250.559 59.32 251.457 58.6681 252.344C58.9887 252.835 59.3093 253.327 59.63 253.819C58.4116 253.477 57.1825 253.135 55.9641 252.803C55.9534 254.15 55.9534 255.497 55.9641 256.843C57.9841 256.587 60.0147 256.437 62.0347 256.202C60.0254 257.196 57.7062 257.185 55.6648 258.094C54.4892 256.02 54.425 253.605 54.6495 251.286C55.4938 251.467 56.3381 251.724 57.2145 251.713H57.2039Z" fill="#C15D41"/>
<path d="M189.456 271.379C189.456 266.901 188.708 262.455 188.687 257.977C191.947 258.137 195.185 258.746 198.263 259.826C203.404 261.696 207.604 265.501 210.853 269.819C211.837 271.08 212.488 272.597 213.6 273.773C215.096 274.66 216.86 274.949 218.484 275.558C225.517 278.048 232.389 280.966 239.069 284.29C247.566 288.576 256.031 293.161 263.255 299.424C268.044 304.062 271.325 309.951 274.595 315.701C282.996 331.305 288.949 348.096 294.015 365.036C296.035 372.026 297.873 379.058 299.551 386.144C300.171 388.913 300.78 391.691 301.304 394.492C303.121 404.217 304.457 414.05 305.034 423.936C304.959 425.593 304.949 427.239 304.959 428.896C304.959 429.719 304.959 430.552 304.959 431.386C304.949 432.722 304.884 434.058 304.81 435.394C304.66 437.531 304.489 439.669 304.158 441.796C303.591 445.088 302.886 448.369 301.721 451.5C300.631 454.065 299.113 456.577 296.74 458.159C294.474 459.644 291.984 460.745 289.483 461.793C287.559 462.53 285.582 463.182 283.616 463.791C282.515 464.123 281.403 464.443 280.292 464.732C279.362 464.903 278.432 465.074 277.502 465.266C274.531 465.875 271.528 466.367 268.525 466.816C266.633 467.072 264.741 467.265 262.839 467.425C249.329 468.708 235.756 469.092 222.193 468.964C212.585 468.814 202.784 469.766 193.389 467.297C190.076 466.517 187.191 464.614 183.941 463.631C185.972 465.79 188.804 466.837 191.53 467.82C196.991 469.616 202.816 469.349 208.459 470.15C216.689 471.273 225.004 471.572 233.255 472.566C240.063 473.314 246.828 474.319 253.615 475.238C257.409 475.719 261.182 476.446 265.019 476.488C266.195 481.554 267.263 486.652 268.343 491.74C268.589 492.99 268.834 494.251 269.027 495.523C269.636 500.098 270.534 504.661 270.416 509.3C243.045 509.3 215.673 509.3 188.302 509.3C184.551 509.246 180.778 509.535 177.048 508.979C175.776 494.198 175.487 479.353 175.605 464.529C172.527 464.358 169.395 464.187 166.488 463.118C167.782 462.06 169.16 461.023 170.101 459.612C171.255 457.87 171.864 455.839 172.516 453.873C171.757 453.83 170.999 453.798 170.25 453.798C171.084 453.713 171.907 453.584 172.73 453.477C173.884 448.989 173.799 444.329 173.254 439.765C178.245 439.081 183.215 438.247 188.227 437.67C189.307 442.982 189.937 448.508 188.676 453.852C188.056 457.047 186.111 459.762 185.342 462.904C186.368 462.028 187.351 461.055 187.896 459.805C189.691 456.01 190.546 451.81 190.696 447.621C190.814 444.211 190.151 440.834 189.446 437.51C195.484 436.516 201.523 435.565 207.561 434.678C209.507 434.368 211.484 434.293 213.397 433.801C214.551 433.534 215.139 432.412 215.727 431.503C216.015 430.563 216.208 429.612 216.4 428.65C205.873 428.479 195.335 428.725 184.818 428.5C186.464 426.448 188.794 425.144 191.198 424.193C203.073 419.255 215.759 416.786 227.943 412.789C231.812 411.571 235.681 410.299 239.646 409.433C240.704 409.134 241.869 408.974 242.724 408.225C242.617 405.895 241.73 403.715 241.207 401.471C239.454 394.481 238.171 387.374 236.889 380.288C236.258 377.124 236.28 373.821 235.082 370.786C234.153 373.169 234.666 375.735 234.783 378.203C235.04 382.756 235.446 387.288 235.841 391.83C236.173 396.041 236.226 400.359 235.115 404.474C234.398 407.135 232.549 409.487 230.081 410.726C227.398 412.073 224.448 412.682 221.605 413.548C212.446 416.209 203.19 418.582 194.148 421.639C189.991 423.167 185.684 425.005 182.798 428.511C180.489 428.564 178.17 428.564 175.861 428.554C175.883 421.66 176.439 414.798 176.567 407.926C176.749 404.282 176.749 400.637 176.973 396.993C177.465 390.74 177.39 384.456 177.892 378.214C178.149 374.997 178.245 371.78 178.373 368.563C179.388 348.791 181.163 329.05 184.027 309.449C185.587 298.131 187.372 286.844 189.061 275.547C189.264 274.179 189.435 272.801 189.52 271.422L189.456 271.379ZM214.69 276.734C214.883 277.77 215.107 278.818 215.438 279.833C217.629 286.278 219.446 292.883 220.344 299.648C220.601 302.342 220.793 305.088 220.387 307.782C220.237 309.16 219.04 310.432 217.576 310.283C213.611 309.876 210.811 305.997 206.696 306.157C203.65 306.392 201.833 309.257 200.379 311.608C196.329 319.014 192.299 326.464 189.189 334.33C188.099 337.216 186.827 340.08 186.357 343.148C186.881 342.25 187.362 341.331 187.714 340.358C189.072 336.553 190.685 332.844 192.46 329.211C195.57 322.937 198.691 316.642 202.453 310.721C203.511 309.15 204.975 307.311 207.08 307.472C210.757 308.017 213.472 311.116 217.17 311.629C218.399 311.843 219.713 311.362 220.451 310.325C221.936 308.455 221.787 305.922 221.83 303.667C221.691 295.437 219.222 287.453 216.368 279.801C215.973 278.689 215.385 277.674 214.69 276.734ZM254.588 301.786C248.998 306.927 244.872 313.478 241.794 320.383C238.609 327.298 236.472 334.661 235.115 342.143C233.746 349.881 233.212 357.79 233.96 365.624C234.131 366.874 233.917 368.435 235.125 369.247C235.296 366.49 234.847 363.754 234.794 361.007C234.559 348 236.985 334.961 241.869 322.916C244.456 316.717 247.812 310.764 252.204 305.655C253.925 303.549 256.276 302.021 257.826 299.755C256.629 300.215 255.507 300.867 254.588 301.764V301.786ZM183.61 374.698C183.642 375.051 183.706 375.745 183.738 376.098C185.224 376.322 186.72 376.675 188.227 376.451C188.847 376.376 189.349 375.895 189.178 375.254C187.5 374.228 185.459 374.377 183.61 374.698ZM184.722 401.791C183.835 402.112 183.022 403.02 183.311 404.014C183.599 405.895 186.581 405.917 187.265 404.324C187.8 402.871 186.165 401.214 184.722 401.791ZM248.72 406.387C246.7 406.954 244.498 407.253 242.852 408.674C245.589 408.931 248.314 408.375 251.05 408.396C260.605 408.439 270.117 411.143 278.261 416.134C278.475 416.028 278.902 415.803 279.116 415.696C276.188 412.821 272.148 411.549 268.364 410.203C262.08 407.99 255.357 407.402 248.731 407.541C250.003 406.911 251.349 406.419 252.76 406.227C258.841 405.308 265.094 404.966 271.164 406.152C273.665 406.622 275.985 407.712 278.475 408.247C277.962 407.573 277.417 406.857 276.605 406.558C271.474 404.356 265.756 404.217 260.263 404.421C256.34 404.549 252.482 405.372 248.709 406.387H248.72ZM182.851 483.638C182.851 483.948 182.841 484.558 182.841 484.868C185.01 484.825 187.426 485.413 189.349 484.109C187.255 483.382 185.032 483.553 182.851 483.649V483.638Z" fill="#6A86C4"/>
<path d="M25.5211 287.261C26.3333 282.676 26.483 277.867 28.4281 273.57C30.1702 275.377 32.4254 276.563 34.8408 277.172C41.2962 279.32 47.9333 280.998 54.7094 281.64C57.4348 282.024 60.235 281.565 62.629 280.165C63.1527 284.589 62.6932 289.036 62.7893 293.471C63.8154 294.283 64.8948 295.106 65.5147 296.293C66.3804 297.906 66.7118 299.734 67.0003 301.53C67.7805 306.98 68.3149 312.485 68.7531 317.978C68.7531 321.366 69.373 324.711 69.7364 328.067C70.2708 332.353 70.7197 336.65 71.4892 340.903C59.6471 340.925 47.8051 340.861 35.963 340.861C28.0541 340.796 20.1344 340.978 12.2255 340.818C12.2148 340.658 12.1934 340.337 12.1827 340.166C12.1506 339.61 12.172 339.054 12.2361 338.499C14.3416 324.637 16.5433 310.796 18.8091 296.955C19.2366 294.679 19.568 292.263 20.9894 290.35C22.1223 288.843 23.9072 288.084 25.5317 287.251L25.5211 287.261ZM26.2799 288.961C27.0173 289.655 27.7975 290.329 28.706 290.82C34.3812 293.834 40.5801 295.769 46.8859 296.966C51.3962 297.693 56.056 298.131 60.577 297.308C61.2824 297.254 61.7526 296.72 62.1908 296.228C58.8776 296.271 55.5751 296.827 52.2619 296.485C44.1605 295.822 36.1981 293.492 28.9732 289.773C28.1182 289.388 27.199 289.174 26.2799 288.971V288.961Z" fill="#6A86C4"/>
<path d="M135.311 264.944C138.742 262.988 142.6 262.048 146.266 260.68L146.565 260.722C146.918 264.185 147.067 267.702 146.565 271.154C144.695 275.023 142.974 278.966 141.478 282.996L141.349 283.37C138.955 289.665 137.138 296.163 135.386 302.661C131.656 316.876 129.037 331.39 127.487 346C126.932 344.109 126.151 341.779 124.078 341.116C121.652 340.592 119.162 340.945 116.703 340.902C109.008 340.881 101.324 340.966 93.6285 340.881C95.1996 331.903 96.5356 322.84 96.5463 313.712C96.5463 312.783 96.4287 311.853 96.3646 310.923C95.8195 312.238 95.563 313.659 95.5309 315.08C95.3492 320.307 94.6652 325.512 93.9064 330.685C93.4254 334.083 92.6452 337.45 92.3246 340.87C85.8051 340.913 79.2855 340.881 72.7766 340.881C72.0819 335.43 71.3765 329.99 70.7246 324.539C70.4788 322.092 70.2223 319.644 69.5703 317.271C73.8561 311.521 78.3022 305.889 82.8125 300.321C86.115 296.398 89.4923 292.508 93.3292 289.088C94.9004 287.666 96.6745 286.501 98.577 285.572C105.332 282.248 112.354 279.447 119.578 277.278C120.861 276.872 122.325 276.562 123.127 275.365C126.344 271.036 130.512 267.434 135.289 264.933L135.311 264.944ZM115.421 284.385C113.123 287.966 111.317 291.845 109.692 295.778C108.987 297.574 108.292 299.562 108.816 301.496C109.083 302.469 110.12 302.918 111.018 303.099C113.754 303.58 116.393 302.009 119.119 302.49C120.177 303.057 120.562 304.297 120.882 305.365C121.609 308.23 121.887 311.179 122.218 314.119C122.689 318.714 123.308 323.31 123.843 327.895C123.96 328.985 124.27 330.043 124.644 331.069C124.954 328.194 124.452 325.33 124.196 322.476C123.683 317.015 123.383 311.511 122.71 306.071C122.4 304.115 122.005 301.731 120.059 300.737C116.939 299.583 113.444 302.383 110.472 300.62C110.173 298.632 111.018 296.719 111.744 294.923C113.155 291.428 114.822 288.04 116.639 284.738C117.687 282.846 119.023 281.125 120.027 279.202C117.922 280.345 116.703 282.461 115.41 284.374L115.421 284.385Z" fill="#6A86C4"/>
<path d="M71.5989 441.477C78.1718 441.509 87.1603 441.519 93.7333 441.477C95.8174 445.036 97.4312 446.564 100.98 448.21C102.027 448.637 103.117 448.99 104.175 449.407C106.11 450.412 108.055 451.459 110.214 451.919C110.973 452.09 111.731 452.228 112.49 452.378C115.964 453.105 119.373 454.27 122.964 454.323C122.836 459.475 122.879 464.626 122.783 469.778C122.28 482.165 122.494 494.584 121.586 506.961C121.511 507.687 121.415 508.425 121.329 509.162C113.1 509.397 104.859 509.194 96.6296 509.269C85.3433 509.269 74.057 509.291 62.7708 509.248C62.6425 507.869 62.5142 506.49 62.3646 505.122C62.3432 504.257 62.3646 503.402 62.3753 502.547C62.5784 492.062 64.2884 481.684 65.9664 471.36C67.6123 461.783 69.2903 452.207 71.2355 442.695C71.3424 442.278 71.4706 441.872 71.5882 441.477H71.5989ZM112.309 479.621C111.026 480.337 110.673 482.186 111.443 483.405C112.362 485.222 115.707 484.88 115.975 482.742C116.584 480.658 114.286 478.67 112.309 479.621Z" fill="#6A86C4"/>
<path d="M146.587 271.154L146.94 271.133C146.769 273.548 146.513 276.006 147.058 278.4C147.71 281.297 149.601 283.873 152.156 285.39C156.666 288.137 162.17 288.778 167.343 288.148C174.835 287.293 181.889 283.392 186.656 277.556C186.902 280.549 186.41 283.541 185.726 286.448C185.491 287.453 184.989 288.415 184.134 289.024C178.854 293.011 172.259 294.945 165.708 295.319C159.092 295.693 152.273 293.823 147.036 289.687C144.696 287.902 143.605 285.027 141.5 283.018C142.986 278.988 144.706 275.045 146.587 271.176V271.154Z" fill="#E9E9E9"/>
<path d="M186.652 277.545C187.871 275.632 188.843 273.558 189.453 271.367C189.367 272.746 189.196 274.125 188.993 275.493C187.315 286.79 185.519 298.076 183.959 309.394C181.095 328.985 179.321 348.725 178.305 368.508C178.166 371.725 178.081 374.942 177.824 378.16C177.322 384.412 177.397 390.686 176.905 396.938C176.67 400.582 176.681 404.227 176.499 407.872C176.371 414.754 175.815 421.616 175.794 428.499C173.72 428.499 171.647 428.499 169.573 428.499C169.894 425.955 169.851 423.38 169.862 420.825C170.706 404.248 171.465 387.672 172.972 371.138C174.703 351.579 177.247 332.084 180.646 312.75C181.202 309.202 181.875 305.675 182.623 302.159C183.467 298.236 183.927 294.25 184.846 290.338C181.362 292.272 177.771 294.111 173.923 295.201C168.419 296.708 162.53 297.103 156.972 295.671C153.477 294.827 150.004 293.512 147.214 291.172C144.703 289.077 142.116 286.672 141.379 283.359L141.507 282.985C143.613 284.994 144.703 287.869 147.043 289.654C152.27 293.79 159.099 295.661 165.715 295.286C172.267 294.912 178.85 292.978 184.141 288.991C184.996 288.382 185.509 287.42 185.733 286.416C186.428 283.509 186.909 280.516 186.663 277.523L186.652 277.545Z" fill="#BFBFBF"/>
<path d="M28.4248 273.57C30.4768 272.982 32.625 272.843 34.7519 273.003C34.8267 274.393 34.8267 275.771 34.8267 277.161C32.4113 276.552 30.1562 275.376 28.4141 273.559L28.4248 273.57Z" fill="#4B5A7D"/>
<path d="M54.707 281.629C55.0384 280.015 55.3483 278.359 56.043 276.852C58.3943 277.45 61.6327 277.471 62.6267 280.165C60.2326 281.554 57.4324 282.024 54.707 281.64V281.629Z" fill="#4B5A7D"/>
<path d="M214.699 276.732C215.383 277.684 215.982 278.699 216.377 279.811C219.242 287.463 221.7 295.447 221.839 303.676C221.796 305.931 221.946 308.464 220.46 310.335C219.723 311.361 218.408 311.842 217.179 311.639C213.492 311.126 210.766 308.016 207.09 307.481C204.984 307.31 203.52 309.159 202.451 310.73C198.689 316.641 195.568 322.936 192.458 329.22C190.695 332.843 189.07 336.552 187.713 340.367C187.36 341.34 186.879 342.27 186.355 343.157C186.836 340.09 188.098 337.225 189.188 334.34C192.298 326.473 196.327 319.024 200.378 311.617C201.831 309.255 203.638 306.402 206.694 306.167C210.798 306.006 213.599 309.886 217.574 310.292C219.039 310.442 220.236 309.181 220.385 307.791C220.791 305.098 220.599 302.351 220.343 299.658C219.445 292.892 217.628 286.298 215.437 279.843C215.106 278.827 214.87 277.791 214.689 276.743L214.699 276.732Z" fill="#3D5B9C"/>
<path d="M115.429 284.384C116.722 282.471 117.94 280.344 120.046 279.211C119.041 281.135 117.705 282.855 116.658 284.747C114.841 288.05 113.173 291.438 111.763 294.933C111.036 296.739 110.202 298.641 110.491 300.629C113.473 302.382 116.968 299.582 120.078 300.747C122.023 301.73 122.418 304.124 122.728 306.069C123.402 311.52 123.69 317.014 124.214 322.475C124.47 325.329 124.973 328.193 124.663 331.068C124.278 330.042 123.979 328.984 123.861 327.894C123.327 323.298 122.707 318.713 122.237 314.117C121.905 311.178 121.627 308.228 120.901 305.364C120.58 304.284 120.195 303.045 119.137 302.489C116.412 302.008 113.761 303.579 111.036 303.098C110.127 302.916 109.091 302.468 108.834 301.495C108.31 299.56 109.016 297.573 109.711 295.777C111.335 291.844 113.141 287.975 115.439 284.384H115.429Z" fill="#3D5B9C"/>
<path d="M135.421 302.661C137.173 296.162 138.98 289.664 141.384 283.369C142.122 286.693 144.719 289.098 147.22 291.182C149.999 293.523 153.472 294.826 156.978 295.681C162.536 297.114 168.435 296.729 173.929 295.211C177.776 294.121 181.367 292.283 184.852 290.348C183.933 294.26 183.484 298.247 182.629 302.169C181.88 305.685 181.207 309.212 180.651 312.761C177.253 332.095 174.709 351.589 172.978 371.148C171.471 387.682 170.712 404.269 169.867 420.835C169.867 423.39 169.899 425.966 169.579 428.509C163.027 428.445 156.476 428.659 149.924 428.37C148.919 425.57 148.214 422.695 147.434 419.831C142.4 401.768 137.601 383.642 132.685 365.537C130.985 359.017 129.072 352.54 127.512 345.989C129.061 331.379 131.68 316.865 135.41 302.65L135.421 302.661Z" fill="#E9E9E9"/>
<path d="M26.2724 288.96C27.1916 289.163 28.1107 289.377 28.9657 289.761C36.18 293.481 44.1531 295.811 52.2544 296.473C55.5676 296.815 58.8701 296.26 62.1834 296.217C61.7452 296.709 61.2749 297.243 60.5695 297.307C56.0379 298.119 51.3887 297.681 46.8678 296.954C40.5727 295.757 34.3631 293.834 28.6878 290.809C27.7794 290.328 27.0099 289.644 26.2617 288.949L26.2724 288.96Z" fill="#3D5B9C"/>
<path d="M254.596 301.785C255.515 300.876 256.637 300.235 257.834 299.775C256.284 302.031 253.933 303.559 252.212 305.675C247.82 310.784 244.464 316.726 241.877 322.936C236.993 334.981 234.567 348.02 234.802 361.027C234.855 363.774 235.304 366.51 235.133 369.267C233.926 368.455 234.129 366.895 233.968 365.644C233.22 357.81 233.755 349.89 235.123 342.163C236.48 334.682 238.617 327.318 241.802 320.403C244.881 313.498 249.006 306.947 254.596 301.806V301.785Z" fill="#3D5B9C"/>
<path d="M95.5618 315.091C95.5832 313.659 95.8504 312.248 96.3954 310.934C96.4596 311.853 96.5771 312.793 96.5771 313.723C96.5771 322.85 95.2305 331.914 93.6594 340.891C93.3281 340.891 92.6761 340.891 92.3555 340.891C92.6868 337.461 93.4563 334.105 93.9373 330.706C94.7068 325.533 95.3908 320.339 95.5618 315.102V315.091Z" fill="#3D5B9C"/>
<path d="M68.7461 317.976C68.9598 317.794 69.3874 317.452 69.5904 317.281C70.2317 319.654 70.4989 322.112 70.7447 324.56C71.386 330.01 72.0914 335.461 72.7968 340.901C72.4654 340.901 71.8135 340.901 71.4929 340.901C70.7233 336.648 70.2851 332.351 69.7401 328.065C69.366 324.709 68.7568 321.364 68.7568 317.976H68.7461Z" fill="#3D5B9C"/>
<path d="M2.04511 341.307C4.69568 340.676 7.60276 340.858 9.9327 340.815C10.4778 340.783 11.7924 340.815 12.2199 340.815C20.1288 340.965 28.0485 340.783 35.9574 340.858C47.7995 340.858 59.6416 340.922 71.4836 340.89C71.815 340.89 72.4669 340.89 72.7875 340.89C79.3071 340.89 85.8159 340.911 92.3355 340.879C92.6668 340.879 93.3188 340.879 93.6394 340.879C101.335 340.965 109.019 340.879 116.714 340.901C119.162 340.943 121.663 340.591 124.089 341.114C126.173 341.777 126.943 344.107 127.498 345.999C129.059 352.561 130.972 359.027 132.671 365.547C137.588 383.641 142.397 401.767 147.42 419.83C148.201 422.683 148.906 425.569 149.911 428.369C150.167 429.096 150.413 429.812 150.637 430.56C151.236 432.356 151.364 434.28 151.108 436.15C150.669 436.364 150.242 436.588 149.804 436.802C147.965 429.363 145.977 421.967 143.819 414.614C141.916 407.485 140.056 400.357 138.004 393.26C134.306 379.184 130.405 365.172 126.601 351.129C125.895 348.585 125.425 345.721 123.362 343.872C122.283 342.814 120.712 342.6 119.258 342.557C82.4279 342.653 45.5871 342.536 8.75704 342.611C5.88203 342.504 2.98564 342.589 0.164062 343.252C0.75189 342.568 1.24353 341.756 2.03442 341.307H2.04511Z" fill="#DFE5E9"/>
<path d="M0.17447 343.265C2.99604 342.602 5.88175 342.517 8.76745 342.624C45.5975 342.549 82.4383 342.667 119.268 342.57C120.711 342.602 122.282 342.827 123.373 343.885C125.435 345.734 125.906 348.598 126.611 351.142C130.416 365.196 134.317 379.208 138.015 393.284C140.067 400.37 141.937 407.509 143.829 414.638C145.988 421.991 147.987 429.387 149.814 436.826C147.901 437.831 145.689 437.702 143.605 437.521C139.394 437.136 135.172 437.392 130.961 437.264C128.663 437.189 126.354 437.243 124.078 437.531C122.379 433.673 120.989 429.409 117.633 426.619C116.554 425.646 114.801 425.005 113.529 425.999C112.46 426.897 112.749 428.457 112.813 429.686C112.834 429.868 112.888 430.242 112.909 430.424C113.262 432.668 113.764 434.87 114.373 437.05C113.721 437.157 113.07 437.264 112.418 437.382C110.686 433.427 109.596 429.088 106.945 425.593C105.684 423.819 102.884 423.049 101.11 424.471C100.073 425.743 100.458 427.57 100.426 429.099V429.526C99.0685 429.483 97.615 429.152 96.3004 429.697C95.3492 430.274 95.5309 431.535 95.5202 432.497C95.8194 433.598 96.1508 434.688 96.4607 435.789C96.5783 436.195 96.6958 436.601 96.8134 437.018C87.4188 437.414 78.0243 437.093 68.619 437.168C56.4456 437.179 44.2616 437.168 32.0775 437.211C30.8591 437.211 29.6407 437.189 28.4223 437.093C27.1932 436.495 25.9534 435.672 25.3976 434.368C24.4251 431.952 24.393 431.097 23.3776 428.254C23.3349 427.966 23.025 426.929 22.7791 425.689C21.9348 421.777 20.8126 419.17 19.7545 415.311C17.2215 406.419 14.6992 397.527 12.0913 388.667C10.6271 383.857 9.4194 378.962 7.80555 374.195C7.37804 372.496 6.89709 370.818 6.40545 369.14C4.34271 362.022 2.3334 354.883 0.259972 347.765C-0.16754 346.29 0.0248405 344.751 0.185157 343.254H0.17447V343.265ZM67.935 383.344C65.5196 383.558 63.1255 384.723 61.7361 386.754C59.8871 389.319 59.8337 392.867 61.1162 395.689C63.3606 401.022 70.2756 404.046 75.5875 401.471C78.9221 400.103 80.8352 396.191 80.0336 392.696C78.9327 387.288 73.5247 382.853 67.9243 383.334L67.935 383.344Z" fill="#B2B7BF"/>
<path d="M234.729 378.171C234.623 375.702 234.11 373.137 235.029 370.754C236.226 373.789 236.204 377.092 236.835 380.255C238.128 387.341 239.4 394.438 241.153 401.439C241.676 403.683 242.564 405.874 242.67 408.193C241.815 408.941 240.64 409.102 239.592 409.401C235.616 410.267 231.758 411.538 227.889 412.757C215.705 416.743 203.019 419.212 191.145 424.161C188.74 425.123 186.421 426.427 184.764 428.468C184.08 428.468 183.407 428.468 182.723 428.468C185.608 424.962 189.916 423.124 194.073 421.606C203.115 418.55 212.371 416.188 221.53 413.516C224.373 412.65 227.333 412.03 230.005 410.694C232.474 409.454 234.323 407.103 235.039 404.442C236.151 400.338 236.097 396.009 235.766 391.798C235.381 387.256 234.965 382.724 234.708 378.171H234.729Z" fill="#3D5B9C"/>
<path d="M19.7247 424.213C13.8678 418.249 9.93473 410.447 8.58807 402.196C7.04903 392.951 7.14522 383.503 7.78649 374.184C9.40035 378.95 10.6081 383.835 12.0723 388.655C14.6801 397.515 17.3414 406.525 19.8744 415.417C20.9325 419.275 22.8563 425.25 23.7006 429.162" fill="#6A86C4"/>
<path d="M183.617 374.697C185.466 374.376 187.508 374.237 189.196 375.253C189.367 375.904 188.854 376.385 188.245 376.45C186.738 376.674 185.231 376.321 183.756 376.097C183.724 375.744 183.66 375.049 183.628 374.697H183.617Z" fill="#3D5B9C"/>
<path d="M67.9483 383.344C73.5487 382.863 78.9568 387.288 80.0576 392.707C80.8592 396.191 78.9461 400.114 75.6115 401.482C70.2997 404.047 63.3847 401.033 61.1402 395.7C59.847 392.878 59.9111 389.33 61.7601 386.765C63.1495 384.734 65.5436 383.569 67.959 383.355L67.9483 383.344Z" fill="#DEE5EA"/>
<path d="M184.731 401.792C186.174 401.214 187.82 402.871 187.275 404.325C186.591 405.917 183.609 405.896 183.32 404.015C183.021 403.021 183.844 402.112 184.731 401.792Z" fill="#3D5B9C"/>
<path d="M248.728 406.387C252.511 405.372 256.359 404.549 260.282 404.421C265.786 404.217 271.493 404.356 276.623 406.558C277.446 406.857 277.98 407.573 278.493 408.247C276.003 407.712 273.684 406.622 271.183 406.152C265.112 404.976 258.86 405.318 252.779 406.227C251.368 406.419 250.021 406.911 248.749 407.541C255.376 407.392 262.088 407.99 268.383 410.203C272.166 411.549 276.196 412.821 279.135 415.696C278.921 415.803 278.493 416.027 278.28 416.134C270.136 411.143 260.623 408.439 251.069 408.396C248.333 408.375 245.607 408.92 242.871 408.674C244.506 407.253 246.719 406.954 248.739 406.387H248.728Z" fill="#3D5B9C"/>
<path d="M101.09 424.47C102.864 423.059 105.664 423.818 106.925 425.593C109.576 429.087 110.666 433.427 112.397 437.381C113.584 439.487 115.315 441.229 116.373 443.409C117.666 446.006 119.131 448.582 121.29 450.57C122.487 451.724 123.951 452.515 125.33 453.424C125.565 453.68 125.789 453.947 126.014 454.225C124.988 454.257 123.972 454.321 122.957 454.332C119.376 454.268 115.956 453.114 112.483 452.387C108.87 448.561 105.931 444.157 103.494 439.497C101.784 436.259 101.56 432.529 100.395 429.098C100.438 427.57 100.042 425.742 101.079 424.47H101.09ZM100.801 425.817C100.961 427.238 100.78 428.831 101.539 430.113C102.255 431.289 104.317 430.926 104.542 429.547C104.766 428.2 104.724 426.501 103.58 425.55C102.661 425.229 101.71 425.667 100.801 425.817Z" fill="#F5A58B"/>
<path d="M100.809 425.816C101.717 425.666 102.668 425.218 103.587 425.549C104.731 426.5 104.774 428.199 104.549 429.546C104.325 430.925 102.262 431.299 101.546 430.113C100.787 428.819 100.969 427.238 100.809 425.816Z" fill="#FBC8B9"/>
<path d="M113.52 425.999C114.792 425.005 116.545 425.646 117.624 426.619C120.98 429.408 122.37 433.672 124.069 437.531C124.924 439.166 126.207 440.513 127.511 441.795C128.697 443.398 129.905 445.119 131.764 446.017C136.05 448.261 140.988 448.518 145.594 449.715C148.309 450.356 150.938 451.382 153.728 451.671C151.098 449.939 147.914 449.544 144.953 448.657C140.87 447.502 136.563 447.182 132.619 445.547C131.08 444.991 130.182 443.58 129.37 442.265C130.514 440.598 132.031 439.08 134.062 438.6C140.026 436.825 146.107 439.294 151.558 441.581C153.279 441.966 155.064 441.977 156.816 441.859C162.31 441.378 167.75 440.491 173.201 439.743C173.746 444.307 173.831 448.967 172.677 453.456C171.854 453.573 171.031 453.691 170.198 453.776C167.654 453.937 165.121 454.15 162.588 454.364C158.879 454.663 155.171 455.016 151.451 455.059C146.139 455.155 140.838 455.529 135.526 455.208C132.331 455.048 129.21 454.14 126.004 454.246C125.779 453.969 125.555 453.712 125.32 453.445C123.77 451.446 121.493 450.153 120.008 448.101C117.592 444.734 115.38 441.133 114.343 437.082C113.734 434.902 113.232 432.689 112.879 430.455C113.232 431.364 113.648 432.251 114.044 433.138C114.717 432.882 115.401 432.636 116.021 432.272C116.727 430.99 116.385 429.344 115.722 428.104C115.23 427.164 114.001 427.303 113.125 427.067C112.997 427.944 112.858 428.82 112.772 429.707C112.708 428.478 112.43 426.907 113.488 426.02L113.52 425.999ZM133.218 440.673C131.935 440.791 131.262 442.169 131.38 443.334C132.705 444.403 134.426 444.798 136.082 445.034C138.091 445.835 139.823 442.533 138.113 441.325C136.617 440.587 134.853 440.459 133.229 440.673H133.218Z" fill="#F4A48A"/>
<path d="M113.155 427.034C114.031 427.269 115.26 427.13 115.752 428.071C116.404 429.3 116.756 430.946 116.051 432.239C115.431 432.613 114.747 432.848 114.074 433.105C113.678 432.207 113.261 431.331 112.909 430.411C112.887 430.23 112.834 429.856 112.812 429.674C112.898 428.776 113.037 427.9 113.165 427.023L113.155 427.034Z" fill="#FBC7BC"/>
<path d="M149.922 428.383C156.463 428.671 163.025 428.458 169.577 428.522C171.65 428.522 173.724 428.511 175.797 428.522C178.116 428.532 180.425 428.543 182.733 428.479C183.407 428.468 184.091 428.468 184.775 428.479C195.302 428.703 205.83 428.468 216.357 428.629C216.165 429.58 215.972 430.542 215.684 431.482C207.176 432.177 198.744 433.588 190.258 434.518C183.118 435.244 176.021 436.399 168.861 436.986C164.778 437.403 160.674 437.745 156.655 438.632C156.709 439.712 156.762 440.791 156.837 441.871C155.084 441.988 153.299 441.978 151.578 441.593C152.637 440.161 152.69 438.376 152.295 436.709C156.153 436.099 160.043 435.843 163.912 435.383C170.165 434.667 176.417 433.919 182.68 433.235C185.908 432.797 189.178 432.594 192.352 431.824C190.226 430.595 187.692 431.162 185.363 431.012C179.463 430.777 173.553 431.044 167.653 430.713C161.988 430.552 156.313 430.734 150.649 430.595C150.424 429.858 150.168 429.131 149.922 428.415V428.383Z" fill="#C0C6CC"/>
<path d="M96.2898 429.685C97.6044 429.14 99.058 429.471 100.426 429.514C100.255 434.997 102.628 440.159 105.385 444.755C106.807 447.277 109.072 449.233 110.216 451.915C108.068 451.456 106.123 450.398 104.177 449.404C101.484 446.315 99.0259 443.002 97.4869 439.165C97.2197 438.449 97.0059 437.733 96.7922 437.006C96.6746 436.589 96.557 436.172 96.4395 435.777C97.1662 435.659 97.9892 435.755 98.6518 435.371C99.6779 434.035 98.9938 431.405 97.1449 431.299C96.5463 431.619 96.0333 432.068 95.4989 432.485C95.5203 431.534 95.3279 430.273 96.2791 429.685H96.2898Z" fill="#F6A68B"/>
<path d="M150.66 430.562C156.325 430.701 162 430.52 167.664 430.68C173.564 431.011 179.474 430.744 185.374 430.979C187.704 431.118 190.237 430.562 192.364 431.792C189.19 432.561 185.919 432.764 182.691 433.202C176.428 433.886 170.176 434.635 163.924 435.351C160.055 435.81 156.154 436.067 152.306 436.676C151.911 436.494 151.526 436.323 151.141 436.152C151.398 434.282 151.269 432.358 150.671 430.562H150.66Z" fill="#6B6E76"/>
<path d="M95.5 432.487C96.0344 432.07 96.5367 431.621 97.1459 431.301C98.9949 431.408 99.6789 434.048 98.6529 435.373C98.0009 435.758 97.178 435.651 96.4405 435.779C96.1306 434.678 95.7993 433.588 95.5 432.487Z" fill="#FCC4B5"/>
<path d="M190.259 434.496C198.745 433.577 207.177 432.156 215.685 431.461C215.097 432.369 214.499 433.492 213.355 433.759C211.442 434.25 209.465 434.336 207.519 434.635C201.47 435.522 195.432 436.474 189.404 437.467C189.104 437.51 188.495 437.585 188.196 437.628C183.194 438.205 178.214 439.039 173.222 439.723C167.761 440.471 162.321 441.369 156.838 441.839C156.774 440.759 156.71 439.68 156.656 438.6C160.675 437.713 164.779 437.382 168.862 436.954C176.023 436.367 183.119 435.223 190.259 434.486V434.496Z" fill="#85888F"/>
<path d="M149.814 436.804C150.253 436.591 150.68 436.366 151.118 436.152C151.503 436.323 151.888 436.494 152.283 436.676C152.679 438.354 152.636 440.128 151.567 441.56C146.116 439.273 140.035 436.804 134.071 438.578C132.041 439.059 130.523 440.577 129.379 442.244C128.759 442.095 128.129 441.945 127.52 441.785C126.216 440.502 124.933 439.156 124.078 437.531C126.365 437.242 128.663 437.189 130.961 437.264C135.172 437.381 139.394 437.136 143.605 437.52C145.689 437.702 147.891 437.83 149.814 436.826V436.804Z" fill="#878B94"/>
<path d="M32.0664 437.21C44.2505 437.157 56.4239 437.178 68.6079 437.167C78.0025 437.092 87.4077 437.413 96.8023 437.018C97.0161 437.744 97.2298 438.46 97.497 439.176C97.2726 439.176 96.813 439.177 96.5885 439.187C94.5472 439.08 94.9854 439.946 93.6601 441.485C87.0871 441.528 78.1842 441.517 71.6112 441.485C71.4829 441.881 71.3654 442.287 71.2585 442.703C71.2478 442.404 71.2157 441.795 71.2051 441.496C59.4592 441.496 47.724 441.496 35.9781 441.496C34.9414 441.442 33.8833 441.41 32.9001 441.068C32.1412 439.935 32.2481 438.503 32.0771 437.21H32.0664Z" fill="#8B8F96"/>
<path d="M112.418 437.381C113.07 437.264 113.722 437.157 114.374 437.061C115.4 441.111 117.623 444.713 120.038 448.08C121.524 450.132 123.8 451.425 125.35 453.424C123.982 452.504 122.518 451.714 121.321 450.57C119.162 448.593 117.698 446.006 116.405 443.409C115.336 441.229 113.604 439.487 112.429 437.381H112.418Z" fill="#CB6E4F"/>
<path d="M188.182 437.627C188.481 437.584 189.09 437.51 189.389 437.467C190.095 440.791 190.757 444.157 190.64 447.577C190.49 451.767 189.635 455.957 187.84 459.762C187.284 461.012 186.3 461.985 185.285 462.861C186.055 459.708 188 456.993 188.62 453.808C189.892 448.465 189.261 442.939 188.171 437.627H188.182Z" fill="#3D5B9C"/>
<path d="M93.6435 441.356C94.8512 439.721 95.4284 440.031 97.4697 439.988C98.3568 443.312 100.89 445.856 102.514 448.795C98.8484 447.406 96.1765 447.395 93.6328 441.367L93.6435 441.356Z" fill="#F5A68A"/>
<path d="M96.3193 439.176C96.5544 439.176 97.2598 439.176 97.4843 439.176C99.0233 443.013 101.481 446.326 104.175 449.415C103.117 448.998 102.037 448.645 100.979 448.218C99.5684 445.172 96.9605 442.564 96.3086 439.186L96.3193 439.176Z" fill="#C46243"/>
<path d="M133.218 440.671C134.853 440.458 136.606 440.586 138.102 441.323C139.812 442.531 138.091 445.834 136.071 445.032C134.425 444.797 132.694 444.401 131.369 443.333C131.251 442.168 131.924 440.789 133.207 440.671H133.218Z" fill="#FCCEC0"/>
<path d="M127.52 441.784C128.129 441.944 128.749 442.094 129.379 442.244C130.191 443.569 131.1 444.98 132.628 445.525C136.572 447.16 140.89 447.47 144.962 448.635C147.923 449.522 151.097 449.928 153.737 451.649C150.947 451.36 148.318 450.334 145.603 449.693C140.986 448.496 136.048 448.24 131.773 445.995C129.914 445.097 128.706 443.387 127.52 441.773V441.784Z" fill="#CB6E4F"/>
<path d="M162.604 454.342C165.137 454.128 167.67 453.914 170.214 453.754C170.973 453.754 171.721 453.786 172.48 453.829C171.828 455.795 171.229 457.826 170.065 459.568C169.124 460.979 167.756 462.016 166.452 463.074C163.695 461.075 162.701 457.601 162.594 454.342H162.604Z" fill="#3D5B9C"/>
<path d="M122.965 454.333C123.98 454.333 125.006 454.258 126.021 454.226C129.228 454.13 132.349 455.028 135.544 455.188C140.845 455.508 146.157 455.134 151.469 455.038C155.199 454.995 158.897 454.643 162.606 454.343C162.713 457.593 163.696 461.077 166.464 463.075C169.382 464.144 172.513 464.315 175.581 464.486C175.463 479.31 175.762 494.155 177.023 508.937C174.084 508.573 171.134 509.129 168.195 509.129C154.109 509.129 140.012 509.108 125.925 509.129C124.589 509.108 123.253 509.054 121.917 509.001C121.8 508.306 121.671 507.633 121.586 506.949C122.494 494.572 122.281 482.153 122.783 469.766C122.879 464.614 122.836 459.463 122.965 454.311V454.333Z" fill="#E9E9E9"/>
<path d="M183.926 463.598C187.164 464.581 190.061 466.473 193.374 467.264C202.779 469.732 212.58 468.781 222.177 468.931C235.74 469.059 249.314 468.674 262.823 467.392C263.657 470.384 264.33 473.42 265.003 476.455C261.166 476.412 257.383 475.696 253.599 475.205C246.813 474.285 240.047 473.281 233.25 472.533C224.999 471.539 216.684 471.239 208.454 470.117C202.822 469.316 196.986 469.583 191.525 467.787C188.799 466.804 185.967 465.757 183.936 463.598H183.926Z" fill="#3D5B9C"/>
<path d="M112.309 479.62C114.286 478.668 116.574 480.656 115.975 482.751C115.708 484.889 112.363 485.22 111.443 483.414C110.685 482.195 111.037 480.346 112.309 479.63V479.62Z" fill="#3D5B9C"/>
<path d="M182.866 483.636C185.036 483.54 187.27 483.369 189.364 484.096C187.441 485.399 185.025 484.812 182.855 484.854C182.855 484.544 182.866 483.935 182.866 483.625V483.636Z" fill="#3D5B9C"/>
<path d="M99.5584 444.307C97.4849 441.101 95.807 437.542 95.6573 433.684C94.5351 433.726 93.3167 433.545 92.28 434.068C91.5318 434.603 91.7563 435.618 91.799 436.409C92.2159 436.035 92.6006 435.639 93.0709 435.34C94.5886 435.319 95.3046 437.435 94.5458 438.589C94.0328 438.942 93.3488 438.91 92.7609 439.049C92.8785 439.369 92.9961 439.701 93.1243 440.043C93.3381 440.62 93.5625 441.208 93.819 441.774C94.4496 443.067 95.2084 444.264 96.0528 445.408C96.8544 445.077 99.6866 447.824 101.375 448.401C101.621 448.486 99.9111 444.842 99.5584 444.318V444.307Z" fill="#F6A68B"/>
<path d="M91.7891 436.397C92.2059 436.023 92.5906 435.628 93.0609 435.328C94.5786 435.307 95.2947 437.434 94.5358 438.577C94.0228 438.93 93.3388 438.898 92.751 439.037C92.4303 438.15 92.099 437.273 91.7891 436.397Z" fill="#FCC4B5"/>
<path d="M234.388 24.4383C239.708 17.7789 250.826 16.7264 257.103 22.5821C261.944 26.9451 263.685 34.5612 260.93 40.5317C259.418 43.8231 256.471 46.1386 254.672 49.2577C253.333 51.8028 252.988 54.7307 252.414 57.5245C251.993 57.4863 251.132 57.4097 250.692 57.3906C250.692 51.688 250.788 45.9663 251.419 40.3021C253.429 39.2304 257.026 38.3693 256.375 35.365C256.184 33.3748 253.869 32.6094 252.185 33.1834C250.654 34.4273 250.118 36.4366 249.314 38.1397C247.63 38.3885 245.946 38.6181 244.262 38.8669C243.707 37.2977 243.459 35.5563 242.406 34.2168C240.607 32.0353 236.397 33.8723 236.895 36.7045C236.818 39.7471 240.454 40.2064 242.655 40.991C242.865 46.3873 243.478 51.7646 243.114 57.1801C242.157 57.0653 241.22 56.9696 240.301 56.8739C239.823 54.0226 239.44 51.0183 237.833 48.5497C235.9 45.5071 233.183 42.9237 231.92 39.4983C230.083 34.523 230.81 28.5142 234.388 24.4765V24.4383Z" fill="#FFD08E"/>
<path d="M238.902 35.3086C239.763 35.5191 240.644 35.7296 241.543 35.9401C241.505 36.6481 241.409 38.0451 241.352 38.7531C239.897 38.1407 239.209 36.7821 238.902 35.3086Z" fill="#FFD08E"/>
<path d="M244.988 40.5117C246.309 40.4734 247.648 40.4543 249.007 40.416C248.72 45.9655 248.375 51.5341 248.28 57.1027C247.667 57.0644 246.423 57.0261 245.792 56.9879C245.161 51.5149 244.931 46.0037 245.007 40.5117H244.988Z" fill="#FFD08E"/>
<path d="M245.482 1.10989C246.075 0.516676 246.936 0.306177 247.721 0C248.065 3.21486 248.142 6.44886 248.046 9.68286C247.128 9.68286 246.209 9.68286 245.31 9.70199C245.233 6.83158 244.851 3.9229 245.482 1.10989Z" fill="#FFF2E0"/>
<path d="M223.363 8.85938C226.31 9.91186 228.798 12.0168 230.444 14.6576C230.903 15.5379 230.386 16.5904 230.424 17.528C227.497 15.2126 224.033 12.8205 223.382 8.85938H223.363Z" fill="#FFF2E0"/>
<path d="M268.543 29.2971C271.72 29.1058 274.915 29.1058 278.092 29.2589C278.092 29.8138 278.092 30.9046 278.092 31.4595C274.915 31.6126 271.739 31.6126 268.562 31.4212V29.2971H268.543Z" fill="#FFF2E0"/>
<path d="M267.104 9.93307C267.927 9.26331 269.247 8.59355 269.917 9.85653C268.635 12.6313 266.377 14.9276 263.793 16.535C263.009 16.248 262.262 15.8653 261.535 15.5208C263.353 13.6263 265.056 11.5788 267.104 9.93307Z" fill="#FFF2E0"/>
<path d="M234.021 21.0885C241.025 14.3143 253.502 14.5822 260.027 21.8922C264.792 26.8676 265.864 34.5603 263.701 40.9709C262.476 44.4537 259.568 46.8839 257.616 49.9074C255.836 52.7013 255.855 56.1267 255.473 59.2841C252.487 59.4564 249.521 59.6286 246.536 59.6668C243.57 59.7051 240.623 59.7625 237.657 59.8582C237.14 56.9304 237.045 53.8878 236.05 51.0747C234.863 48.4531 232.701 46.4438 231.189 44.0327C226.52 37.0289 227.477 26.5806 234.04 21.0694L234.021 21.0885ZM234.385 24.4373C230.806 28.475 230.098 34.4838 231.916 39.4591C233.179 42.9036 235.896 45.4679 237.829 48.5105C239.456 50.9791 239.819 53.9834 240.298 56.8347C241.235 56.9304 242.154 57.0261 243.111 57.1409C243.474 51.7445 242.862 46.3481 242.651 40.9518C240.451 40.1672 236.815 39.7079 236.891 36.6653C236.394 33.8331 240.585 31.9961 242.403 34.1776C243.455 35.498 243.723 37.2585 244.259 38.8277C245.943 38.598 247.627 38.3493 249.311 38.1005C250.134 36.3974 250.669 34.3881 252.181 33.1442C253.865 32.5702 256.181 33.3356 256.372 35.3258C257.023 38.3301 253.425 39.1912 251.416 40.2629C250.784 45.9271 250.708 51.6488 250.689 57.3514C251.129 57.3897 251.99 57.4662 252.411 57.4853C252.985 54.6915 253.329 51.7828 254.669 49.2186C256.449 46.0994 259.396 43.7839 260.907 40.4925C263.644 34.522 261.921 26.925 257.08 22.5429C250.784 16.6872 239.685 17.7588 234.366 24.3991L234.385 24.4373ZM238.901 35.3066C239.188 36.7992 239.896 38.1388 241.35 38.7511C241.388 38.0431 241.484 36.6461 241.542 35.9381C240.661 35.7276 239.781 35.5171 238.901 35.3066ZM245.005 40.5116C244.929 46.0228 245.158 51.534 245.79 56.9878C246.402 57.0069 247.665 57.0643 248.277 57.1026C248.392 51.534 248.718 45.9846 249.005 40.416C247.646 40.4542 246.326 40.4734 244.986 40.5116H245.005Z" fill="#FFF2E0"/>
<path d="M214.141 30.1761C217.451 29.6595 220.819 29.6595 224.13 29.9274C224.13 30.4823 224.111 31.5922 224.091 32.1663C221.412 32.2428 218.714 32.549 216.054 32.1663C215.078 31.9558 214.753 30.8268 214.141 30.1761Z" fill="#FFF2E0"/>
<path d="M252.184 38.7531C252.145 38.0451 252.05 36.6481 251.992 35.9401C252.872 35.7296 253.753 35.5191 254.633 35.3086C254.346 36.8012 253.638 38.1407 252.184 38.7531Z" fill="#FFD08E"/>
<path d="M236.91 59.878H237.637C240.603 59.7823 243.55 59.7058 246.516 59.6675C249.54 59.6483 252.563 59.8206 255.587 59.9737C255.587 60.5095 255.53 61.5811 255.51 62.1169C249.329 62.2317 243.149 62.2508 236.968 62.1934C236.968 61.6002 236.929 60.4521 236.91 59.8588V59.878Z" fill="#D2E2FE"/>
<path d="M237.008 64.335C243.246 63.7992 249.504 63.78 255.761 63.627C255.761 64.2202 255.704 65.4066 255.685 65.9998C249.465 66.4974 243.246 66.7653 237.008 66.6696V64.3541V64.335Z" fill="#D2E2FE"/>
<path d="M237.293 68.0859C243.053 68.0859 249.138 68.2964 254.956 68.0859C254.898 68.6026 254.152 69.4446 254.094 69.9613C253.444 70.8989 252.889 72.8126 251.836 73.0613C249.98 73.8076 244.22 73.8268 241.675 73.3101C238.46 72.5064 241.139 71.4156 238.307 69.7891L237.293 68.1051V68.0859Z" fill="#D2E2FE"/>
<path d="M177.006 92.3035C176.841 88.5394 180.221 84.9948 183.996 85.2363H184.018H184.04C208.797 85.2363 280.115 85.2802 304.949 85.2363C304.949 87.8042 305.673 90.4708 307.462 92.4571C309.185 94.5422 311.763 95.6834 314.353 95.9907C314.397 100.907 314.386 103.003 314.386 105.088C314.386 107.25 314.364 109.412 314.408 114.69C314.419 116.644 314.298 118.553 313.267 120.057V120.078C311.994 122.076 309.656 123.239 307.275 123.316H306.792H306.781C286.436 123.305 219.464 123.338 199.118 123.283C197.867 123.206 196.847 123.7 195.98 124.303C195.541 124.611 195.124 124.951 194.729 125.269C194.323 125.598 193.95 125.906 193.565 126.158C192.095 127.201 190.668 128.309 189.264 129.395C188.122 130.262 186.992 131.118 185.818 131.908C185.939 129.275 186.41 126.685 186.729 123.996L186.795 123.415L186.213 123.382C185.225 123.327 184.303 123.316 183.371 123.206C182.57 123.107 181.823 122.932 181.143 122.602L180.858 122.449C178.586 121.11 176.962 118.63 177.061 116.018V115.996C177.061 109.971 177.072 107.063 177.072 104.155L177.05 92.3144L177.006 92.3035Z" fill="#D2E2FE" stroke="url(#paint0_linear_2100_36)" stroke-width="0.794415"/>
<path d="M196.617 108.871V101.029H194.443C193.918 101.029 193.507 101.16 193.211 101.423C192.914 101.677 192.766 102.029 192.766 102.478C192.766 102.927 192.914 103.283 193.211 103.545C193.507 103.8 193.918 103.927 194.443 103.927H196.744V105.172H194.443C193.816 105.172 193.261 105.062 192.778 104.842C192.304 104.613 191.935 104.295 191.673 103.889C191.41 103.482 191.279 103.011 191.279 102.478C191.279 101.935 191.41 101.465 191.673 101.067C191.935 100.66 192.304 100.346 192.778 100.126C193.261 99.8974 193.816 99.783 194.443 99.783H198.079V108.871H196.617ZM190.656 108.871L193.719 104.638H195.346L192.397 108.871H190.656ZM202.623 108.871V102.528H205.864C206.55 102.528 207.093 102.681 207.491 102.986C207.889 103.291 208.088 103.702 208.088 104.219C208.088 104.541 207.991 104.825 207.796 105.071C207.61 105.308 207.355 105.49 207.033 105.617L207.021 105.503C207.427 105.613 207.758 105.804 208.012 106.075C208.266 106.337 208.393 106.659 208.393 107.041C208.393 107.405 208.283 107.727 208.063 108.007C207.851 108.278 207.563 108.49 207.199 108.642C206.834 108.795 206.428 108.871 205.978 108.871H202.623ZM203.932 108.515L203.195 107.803H205.801C206.182 107.803 206.47 107.731 206.665 107.587C206.868 107.443 206.97 107.231 206.97 106.952C206.97 106.672 206.868 106.46 206.665 106.316C206.47 106.172 206.182 106.1 205.801 106.1H203.335V105.096H205.699C206.055 105.096 206.305 105.028 206.449 104.893C206.601 104.757 206.678 104.566 206.678 104.321C206.678 104.075 206.601 103.893 206.449 103.774C206.305 103.655 206.055 103.596 205.699 103.596H203.157L203.932 102.859V108.515ZM214.303 106.876C213.498 106.876 212.876 106.659 212.435 106.227C212.003 105.787 211.787 105.16 211.787 104.346V102.528H213.21V104.206C213.21 104.749 213.337 105.134 213.592 105.363C213.846 105.583 214.214 105.693 214.697 105.693C215.257 105.693 215.803 105.511 216.337 105.147L216.629 106.113C216.426 106.274 216.197 106.414 215.943 106.532C215.697 106.642 215.43 106.727 215.142 106.787C214.863 106.846 214.583 106.876 214.303 106.876ZM216.261 108.871V102.528H217.684V108.871H216.261ZM219.541 108.871V102.528H220.914V107.041L220.812 107.003L224.321 102.528H225.566V108.871H224.194V104.359L224.282 104.397L220.787 108.871H219.541ZM232.254 106.926L233.169 107.816C232.855 108.206 232.47 108.515 232.012 108.744C231.554 108.964 231.029 109.074 230.436 109.074C229.783 109.074 229.199 108.93 228.682 108.642C228.173 108.346 227.771 107.947 227.474 107.448C227.178 106.939 227.029 106.354 227.029 105.693C227.029 105.041 227.178 104.465 227.474 103.965C227.771 103.456 228.178 103.058 228.695 102.77C229.22 102.473 229.813 102.325 230.474 102.325C231.05 102.325 231.563 102.435 232.012 102.656C232.47 102.876 232.855 103.185 233.169 103.583L232.254 104.473C232.067 104.185 231.83 103.956 231.542 103.787C231.262 103.609 230.923 103.52 230.525 103.52C230.135 103.52 229.788 103.613 229.483 103.8C229.178 103.986 228.94 104.244 228.771 104.575C228.601 104.897 228.517 105.27 228.517 105.693C228.517 106.117 228.601 106.494 228.771 106.825C228.94 107.155 229.178 107.414 229.483 107.6C229.788 107.786 230.135 107.88 230.525 107.88C230.923 107.88 231.262 107.791 231.542 107.613C231.83 107.435 232.067 107.206 232.254 106.926ZM233.837 108.871V107.689H234.295C234.524 107.689 234.693 107.634 234.803 107.524C234.922 107.414 234.99 107.223 235.007 106.952L235.413 102.528H240.243V108.871H238.82V102.757L239.837 103.685H235.68L236.761 102.757L236.329 107.231C236.269 107.842 236.1 108.269 235.82 108.515C235.54 108.752 235.113 108.871 234.536 108.871H233.837ZM247.383 106.952L248.197 107.842C247.866 108.223 247.455 108.524 246.964 108.744C246.472 108.964 245.926 109.074 245.324 109.074C244.612 109.074 243.981 108.93 243.43 108.642C242.888 108.354 242.46 107.956 242.147 107.448C241.841 106.939 241.689 106.359 241.689 105.706C241.689 105.045 241.837 104.461 242.134 103.952C242.43 103.444 242.837 103.045 243.354 102.757C243.871 102.469 244.451 102.325 245.095 102.325C245.722 102.325 246.277 102.469 246.76 102.757C247.243 103.037 247.625 103.427 247.904 103.927C248.184 104.418 248.324 104.99 248.324 105.643V105.719H246.913V105.579C246.913 105.155 246.832 104.787 246.671 104.473C246.519 104.151 246.307 103.905 246.036 103.736C245.765 103.558 245.447 103.469 245.083 103.469C244.701 103.469 244.362 103.562 244.066 103.749C243.778 103.927 243.553 104.181 243.392 104.511C243.231 104.833 243.151 105.223 243.151 105.681C243.151 106.138 243.244 106.537 243.43 106.876C243.625 107.214 243.888 107.477 244.218 107.664C244.557 107.842 244.947 107.931 245.388 107.931C246.193 107.931 246.858 107.604 247.383 106.952ZM248.324 106.151H242.68V105.185H248.121L248.324 105.655V106.151ZM252.286 108.871V102.528H258.146V108.871H256.722V102.757L257.739 103.685H252.617L253.71 102.757V108.871H252.286ZM265.307 106.952L266.121 107.842C265.79 108.223 265.379 108.524 264.888 108.744C264.396 108.964 263.85 109.074 263.248 109.074C262.536 109.074 261.905 108.93 261.354 108.642C260.812 108.354 260.384 107.956 260.07 107.448C259.765 106.939 259.613 106.359 259.613 105.706C259.613 105.045 259.761 104.461 260.058 103.952C260.354 103.444 260.761 103.045 261.278 102.757C261.795 102.469 262.375 102.325 263.019 102.325C263.646 102.325 264.201 102.469 264.684 102.757C265.167 103.037 265.549 103.427 265.828 103.927C266.108 104.418 266.248 104.99 266.248 105.643V105.719H264.837V105.579C264.837 105.155 264.756 104.787 264.595 104.473C264.443 104.151 264.231 103.905 263.96 103.736C263.689 103.558 263.371 103.469 263.007 103.469C262.625 103.469 262.286 103.562 261.99 103.749C261.702 103.927 261.477 104.181 261.316 104.511C261.155 104.833 261.075 105.223 261.075 105.681C261.075 106.138 261.168 106.537 261.354 106.876C261.549 107.214 261.812 107.477 262.142 107.664C262.481 107.842 262.871 107.931 263.312 107.931C264.117 107.931 264.782 107.604 265.307 106.952ZM266.248 106.151H260.604V105.185H266.044L266.248 105.655V106.151ZM269.139 111.337H267.715V102.528H269.126V104.486H268.821C268.88 104.062 269.028 103.689 269.266 103.367C269.503 103.045 269.808 102.791 270.181 102.605C270.554 102.418 270.969 102.325 271.426 102.325C272.02 102.325 272.553 102.469 273.028 102.757C273.511 103.045 273.892 103.444 274.172 103.952C274.452 104.461 274.591 105.041 274.591 105.693C274.591 106.354 274.447 106.939 274.159 107.448C273.88 107.956 273.498 108.354 273.015 108.642C272.532 108.93 271.986 109.074 271.376 109.074C270.816 109.074 270.333 108.96 269.927 108.731C269.52 108.494 269.211 108.176 268.999 107.778C268.795 107.371 268.711 106.918 268.745 106.418L269.037 106.189C269.079 106.52 269.194 106.812 269.38 107.066C269.566 107.32 269.808 107.52 270.105 107.664C270.401 107.808 270.723 107.88 271.071 107.88C271.486 107.88 271.842 107.786 272.138 107.6C272.443 107.414 272.681 107.155 272.85 106.825C273.02 106.494 273.104 106.117 273.104 105.693C273.104 105.278 273.024 104.905 272.863 104.575C272.702 104.244 272.473 103.986 272.176 103.8C271.888 103.613 271.545 103.52 271.147 103.52C270.757 103.52 270.41 103.617 270.105 103.812C269.808 103.999 269.571 104.261 269.393 104.6C269.223 104.939 269.139 105.338 269.139 105.795V111.337ZM276.057 108.871V102.528H279.298C279.984 102.528 280.527 102.681 280.925 102.986C281.323 103.291 281.522 103.702 281.522 104.219C281.522 104.541 281.425 104.825 281.23 105.071C281.043 105.308 280.789 105.49 280.467 105.617L280.454 105.503C280.861 105.613 281.192 105.804 281.446 106.075C281.7 106.337 281.827 106.659 281.827 107.041C281.827 107.405 281.717 107.727 281.497 108.007C281.285 108.278 280.997 108.49 280.632 108.642C280.268 108.795 279.861 108.871 279.412 108.871H276.057ZM277.366 108.515L276.629 107.803H279.234C279.616 107.803 279.904 107.731 280.099 107.587C280.302 107.443 280.404 107.231 280.404 106.952C280.404 106.672 280.302 106.46 280.099 106.316C279.904 106.172 279.616 106.1 279.234 106.1H276.768V105.096H279.133C279.488 105.096 279.738 105.028 279.883 104.893C280.035 104.757 280.111 104.566 280.111 104.321C280.111 104.075 280.035 103.893 279.883 103.774C279.738 103.655 279.488 103.596 279.133 103.596H276.59L277.366 102.859V108.515ZM283.132 108.871V102.528H284.505V108.68L283.513 107.714H286.119C286.483 107.714 286.763 107.63 286.958 107.46C287.153 107.282 287.25 107.041 287.25 106.736C287.25 106.431 287.153 106.193 286.958 106.024C286.763 105.854 286.483 105.77 286.119 105.77H283.844V104.613H286.221C286.975 104.613 287.576 104.808 288.025 105.198C288.475 105.588 288.699 106.087 288.699 106.698C288.699 107.13 288.593 107.511 288.381 107.842C288.178 108.164 287.89 108.418 287.517 108.604C287.144 108.782 286.712 108.871 286.221 108.871H283.132ZM289.449 108.871V102.528H290.873V108.871H289.449ZM293.566 108.871H291.939L294.392 105.579L292.155 102.528H293.769L295.294 104.753L296.832 102.528H298.447L296.21 105.579L298.65 108.871H297.023L295.294 106.443L293.566 108.871ZM301.291 108.083C301.291 108.337 301.198 108.553 301.012 108.731C300.834 108.909 300.618 108.998 300.364 108.998C300.101 108.998 299.876 108.909 299.69 108.731C299.512 108.553 299.423 108.337 299.423 108.083C299.423 107.829 299.512 107.613 299.69 107.435C299.876 107.257 300.101 107.168 300.364 107.168C300.618 107.168 300.834 107.257 301.012 107.435C301.198 107.613 301.291 107.829 301.291 108.083ZM300.732 106.113H299.995C299.978 105.977 299.957 105.753 299.931 105.439C299.906 105.117 299.876 104.749 299.842 104.333C299.809 103.918 299.775 103.49 299.741 103.05C299.707 102.609 299.673 102.194 299.639 101.804C299.614 101.414 299.588 101.092 299.563 100.838C299.546 100.575 299.537 100.419 299.537 100.368C299.537 100.139 299.618 99.9525 299.779 99.8084C299.94 99.6559 300.135 99.5796 300.364 99.5796C300.592 99.5796 300.783 99.6559 300.936 99.8084C301.097 99.9525 301.177 100.139 301.177 100.368C301.177 100.419 301.169 100.575 301.152 100.838C301.135 101.092 301.109 101.414 301.075 101.804C301.05 102.194 301.02 102.609 300.986 103.05C300.952 103.49 300.919 103.918 300.885 104.333C300.851 104.749 300.821 105.117 300.796 105.439C300.77 105.753 300.749 105.977 300.732 106.113Z" fill="#6783C2"/>
<path d="M311.663 95.3436C316.821 95.3436 321.002 91.1625 321.002 86.0048C321.002 80.8471 316.821 76.666 311.663 76.666C306.505 76.666 302.324 80.8471 302.324 86.0048C302.324 91.1625 306.505 95.3436 311.663 95.3436Z" fill="#6683C2" stroke="white" stroke-width="1.35845"/>
<path d="M311.278 81.0117H312.694V91.0968H311.08V82.7127L308.523 84.5453V82.8992L311.278 81.0117Z" fill="white"/>
<defs>
<linearGradient id="paint0_linear_2100_36" x1="178.037" y1="34.8001" x2="237.242" y2="126.641" gradientUnits="userSpaceOnUse">
<stop stop-color="white"/>
<stop offset="1" stop-color="white" stop-opacity="0"/>
</linearGradient>
</defs>
</svg>
