<svg width="150" height="153" fill="none" xmlns="http://www.w3.org/2000/svg"><g clip-path="url(#a)"><path d="M150 67c0 14.912-11.864 27-26.502 27C108.864 94 97 81.912 97 67c0-14.911 11.864-27 26.498-27C138.136 40 150 52.089 150 67Z" fill="#F37E60"/><path d="M87 55.5C87 61.851 81.628 67 75 67c-6.627 0-12-5.149-12-11.5S68.372 44 75 44s12 5.149 12 11.5Z" fill="#F2C45B"/><path d="M104 129.001C104 157.72 80.718 181 52 181S0 157.72 0 129.001C0 100.281 23.282 77 52 77c28.719 0 52 23.282 52 52.001Z" fill="#A0D76A"/></g><defs><clipPath id="a"><path fill="#fff" d="M0 0h150v153H0z"/></clipPath></defs></svg>