<svg width="1284" height="135" viewBox="0 0 1284 135" fill="none" xmlns="http://www.w3.org/2000/svg">
<rect width="1287.37" height="19.5283" transform="translate(1.75275) rotate(5.14949)" fill="#F2C45B"/>
<path d="M17.5345 12.1438C16.7492 12.0731 16.1544 11.8249 15.75 11.3994C15.3461 10.9671 15.176 10.3983 15.2396 9.69293L15.4501 7.35709L16.598 7.46055L16.3992 9.66661C16.359 10.1125 16.4582 10.4636 16.6968 10.7199C16.9426 10.9701 17.3117 11.1174 17.8041 11.1618C18.1435 11.1924 18.4775 11.1722 18.8059 11.1011C19.1349 11.0235 19.4164 10.9146 19.6504 10.7747L19.925 11.524C19.621 11.7717 19.263 11.9474 18.8511 12.0512C18.4392 12.1549 18.0003 12.1858 17.5345 12.1438ZM19.1691 14.8875L19.8123 7.75021L20.9602 7.85366L20.317 14.9909L19.1691 14.8875ZM27.0087 15.594L22.0975 15.1514L22.7407 8.01411L27.6519 8.4567L27.5637 9.43496L23.8004 9.09581L23.3336 14.2766L27.0968 14.6157L27.0087 15.594ZM27.1015 12.4425L23.4281 12.1114L23.5162 11.1332L27.1897 11.4642L27.1015 12.4425ZM29.5038 15.8188L28.3558 15.7154L28.999 8.5781L31.8539 8.83538C32.3464 8.87976 32.7708 9.00858 33.1273 9.22185C33.4844 9.42845 33.7517 9.70077 33.9292 10.0388C34.114 10.3708 34.1872 10.7497 34.1488 11.1756C34.111 11.5949 33.9712 11.9546 33.7295 12.2548C33.4944 12.5557 33.1824 12.7791 32.7936 12.9252C32.4053 13.0647 31.965 13.1122 31.4725 13.0678L29.6657 12.905L29.7539 11.9267L31.5607 12.0896C31.9666 12.1262 32.295 12.0551 32.5459 11.8765C32.8041 11.6918 32.9491 11.4231 32.9809 11.0703C33.0126 10.7176 32.9177 10.4307 32.6962 10.2094C32.4818 9.98215 32.1717 9.85022 31.7658 9.81364L30.0588 9.65981L29.5038 15.8188ZM39.8155 16.7481L40.4587 9.61083L41.6067 9.71428L40.9635 16.8515L39.8155 16.7481ZM36.1521 16.4179L35.0041 16.3145L35.6473 9.17724L36.7953 9.28069L36.1521 16.4179ZM36.3392 13.2246L36.4283 12.2364L40.2914 12.5845L40.2023 13.5728L36.3392 13.2246ZM47.8299 15.7395L43.7172 15.3688L43.8054 14.3906L47.918 14.7612L47.8299 15.7395ZM49.0926 17.5841L47.8748 17.4744L46.0022 10.8953L46.3815 10.9295L43.3629 17.0678L42.185 16.9616L45.6531 10.0789L46.9109 10.1923L49.0926 17.5841ZM54.3618 18.059L54.9169 11.9L53.2099 11.7461C52.7973 11.709 52.4653 11.783 52.2137 11.9683C51.9628 12.147 51.8215 12.4127 51.7897 12.7654C51.7579 13.1181 51.8492 13.4081 52.0635 13.6354C52.2784 13.856 52.5922 13.9849 53.0048 14.0221L54.8116 14.1849L54.7234 15.1632L52.9166 15.0003C52.4242 14.956 51.9961 14.8302 51.6324 14.623C51.2759 14.4097 51.0089 14.1341 50.8314 13.796C50.6539 13.458 50.584 13.0794 50.6218 12.6601C50.6602 12.2342 50.7966 11.8742 51.0311 11.58C51.2662 11.2791 51.5778 11.059 51.9661 10.9196C52.3616 10.7741 52.8056 10.7235 53.2981 10.7679L56.153 11.0252L55.5098 18.1624L54.3618 18.059ZM49.6802 17.6371L52.3854 14.5298L53.6632 14.645L51.0477 17.7603L49.6802 17.6371ZM59.2382 18.4984L59.8814 11.3612L65.8108 11.8955L65.1676 19.0328L64.0197 18.9293L64.6386 12.0616L65.1528 12.8325L60.3214 12.3971L61.0051 11.7341L60.3861 18.6019L59.2382 18.4984ZM71.0118 19.5594L71.5668 13.4004L69.8599 13.2466C69.4473 13.2094 69.1152 13.2835 68.8637 13.4688C68.6128 13.6475 68.4715 13.9131 68.4397 14.2658C68.4079 14.6185 68.4992 14.9085 68.7135 15.1358C68.9284 15.3565 69.2422 15.4854 69.6548 15.5226L71.4615 15.6854L71.3734 16.6636L69.5666 16.5008C69.0742 16.4564 68.6461 16.3306 68.2823 16.1234C67.9259 15.9102 67.6589 15.6345 67.4813 15.2965C67.3038 14.9585 67.234 14.5798 67.2718 14.1606C67.3101 13.7347 67.4466 13.3746 67.6811 13.0805C67.9161 12.7796 68.2278 12.5595 68.6161 12.42C69.0116 12.2745 69.4556 12.224 69.948 12.2684L72.8029 12.5256L72.1597 19.6629L71.0118 19.5594ZM66.3301 19.1375L69.0354 16.0303L70.3131 16.1454L67.6977 19.2608L66.3301 19.1375ZM76.8134 20.0823L75.6654 19.9788L76.2286 13.73L77.3765 13.8334L76.8134 20.0823ZM79.6534 14.1393L73.9436 13.6247L74.0327 12.6365L79.7425 13.151L79.6534 14.1393ZM85.135 20.8322L85.7782 13.6949L86.9262 13.7984L86.283 20.9357L85.135 20.8322ZM81.4716 20.5021L80.3236 20.3986L80.9668 13.2614L82.1147 13.3648L81.4716 20.5021ZM81.6587 17.3088L81.7478 16.3205L85.6109 16.6687L85.5218 17.6569L81.6587 17.3088ZM88.0734 21.097L88.7166 13.9598L89.8646 14.0632L89.2736 20.6215L88.5349 20.5549L93.4781 14.3889L94.7159 14.5004L94.0727 21.6377L92.9248 21.5342L93.5167 14.9659L94.2354 15.0307L89.2913 21.2068L88.0734 21.097ZM95.8525 21.7981L96.4957 14.6608L97.6437 14.7642L97.0248 21.632L96.4706 20.8575L101.272 21.2902L100.628 21.9567L101.247 15.089L102.395 15.1924L101.752 22.3297L95.8525 21.7981ZM101.316 24.0414L101.562 21.3163L102.65 21.4143L102.404 24.1395L101.316 24.0414ZM108.932 21.2459L104.819 20.8752L104.907 19.897L109.02 20.2676L108.932 21.2459ZM110.195 23.0905L108.977 22.9808L107.104 16.4017L107.483 16.4359L104.465 22.5742L103.287 22.468L106.755 15.5853L108.013 15.6987L110.195 23.0905Z" fill="#243353"/>
<path d="M129.78 22.5409L130.776 23.7678C130.421 24.1317 129.973 24.4133 129.432 24.6128C128.897 24.8128 128.321 24.8849 127.702 24.8292C127.123 24.777 126.605 24.6398 126.149 24.4175C125.693 24.1886 125.307 23.8922 124.991 23.5283C124.682 23.1649 124.454 22.7486 124.309 22.2793C124.164 21.8033 124.116 21.2925 124.165 20.7468C124.214 20.2078 124.355 19.7207 124.589 19.2855C124.823 18.8438 125.128 18.4721 125.504 18.1705C125.887 17.8696 126.323 17.6505 126.811 17.5135C127.307 17.3703 127.841 17.3245 128.414 17.3761C129.033 17.4319 129.581 17.6053 130.057 17.8966C130.541 18.1884 130.925 18.545 131.209 18.9664L130.009 19.9954C129.829 19.684 129.587 19.4307 129.283 19.2356C128.986 19.0344 128.651 18.917 128.278 18.8834C127.879 18.8474 127.511 18.9115 127.174 19.0757C126.844 19.2339 126.575 19.4712 126.365 19.7878C126.155 20.1043 126.031 20.4789 125.992 20.9114C125.953 21.344 126.008 21.7381 126.157 22.0936C126.307 22.4426 126.529 22.7276 126.825 22.9488C127.127 23.1639 127.478 23.2895 127.878 23.3255C128.25 23.359 128.601 23.3034 128.929 23.1586C129.264 23.0143 129.548 22.8084 129.78 22.5409ZM133.483 25.1892L131.766 25.0345L132.41 17.8972L134.127 18.0519L133.483 25.1892ZM138.744 25.6633L136.508 25.4618L133.568 21.4633L133.727 21.4777L136.892 18.3011L138.968 18.4882L135.57 21.7948L135.597 21.4953L138.744 25.6633ZM139.643 25.7443L140.286 18.607L142.003 18.7617L141.424 25.1903L140.246 25.0841L144.918 19.0244L146.715 19.1863L146.072 26.3236L144.355 26.1689L144.942 19.6505L146.14 19.7585L141.44 25.9062L139.643 25.7443ZM147.508 25.648L147.566 25.0092L148.025 25.0505C148.211 25.0673 148.372 24.9544 148.508 24.7117C148.645 24.4624 148.776 24.0482 148.902 23.4691L149.766 19.4614L154.728 19.9084L154.179 25.9976L152.482 25.8447L153.011 19.9751L153.7 21.2649L149.826 20.9159L151.374 19.8276L150.492 23.8036C150.39 24.2707 150.241 24.6532 150.047 24.951C149.859 25.2427 149.622 25.4528 149.336 25.5812C149.049 25.7097 148.716 25.7569 148.337 25.7227L147.508 25.648ZM147.03 28.161L147.316 24.9867L155.142 25.6919L154.856 28.8663L153.259 28.7223L153.489 26.1669L154.314 27.0664L148.035 26.5006L148.841 25.9292L148.627 28.3049L147.03 28.161ZM157.873 27.3872L156.156 27.2324L156.8 20.0952L158.517 20.2499L157.873 27.3872ZM163.134 27.8613L160.898 27.6597L157.958 23.6613L158.117 23.6757L161.282 20.4991L163.358 20.6862L159.961 23.9927L159.988 23.6933L163.134 27.8613ZM164.033 27.9423L164.676 20.805L166.393 20.9597L165.814 27.3883L164.636 27.2821L169.308 21.2224L171.105 21.3843L170.462 28.5216L168.745 28.3669L169.332 21.8485L170.53 21.9565L165.83 28.1042L164.033 27.9423ZM173.848 28.0217L173.905 27.3828L174.365 27.4242C174.551 27.441 174.712 27.3281 174.848 27.0854C174.985 26.836 175.116 26.4219 175.242 25.8428L176.106 21.835L181.067 22.2821L180.518 28.3713L178.822 28.2183L179.35 22.3488L180.039 23.6386L176.166 23.2896L177.713 22.2013L176.832 26.1773C176.729 26.6444 176.581 27.0269 176.386 27.3246C176.199 27.6164 175.962 27.8265 175.675 27.9549C175.389 28.0834 175.056 28.1306 174.676 28.0964L173.848 28.0217ZM173.37 30.5347L173.656 27.3604L181.482 28.0656L181.196 31.24L179.599 31.096L179.829 28.5406L180.654 29.4401L174.375 28.8743L175.181 28.3029L174.967 30.6786L173.37 30.5347ZM185.84 30.0685C185.275 30.0176 184.764 29.8776 184.308 29.6487C183.853 29.4198 183.464 29.1231 183.141 28.7585C182.825 28.3946 182.591 27.9777 182.438 27.5078C182.293 27.0318 182.245 26.5243 182.294 25.9853C182.342 25.4462 182.48 24.9588 182.707 24.5231C182.941 24.088 183.246 23.7196 183.622 23.4181C184.005 23.1171 184.441 22.8948 184.93 22.751C185.419 22.6073 185.947 22.5609 186.512 22.6118C187.078 22.6628 187.589 22.8028 188.045 23.0317C188.5 23.2606 188.886 23.557 189.202 23.9209C189.525 24.2855 189.759 24.7024 189.905 25.1717C190.057 25.6416 190.109 26.1461 190.06 26.6851C190.011 27.2242 189.87 27.7146 189.636 28.1564C189.408 28.5921 189.104 28.9604 188.721 29.2614C188.345 29.563 187.912 29.7856 187.423 29.9294C186.934 30.0731 186.406 30.1195 185.84 30.0685ZM185.976 28.5612C186.389 28.5984 186.757 28.5376 187.08 28.3789C187.41 28.2141 187.676 27.9731 187.879 27.656C188.09 27.3328 188.214 26.9549 188.253 26.5223C188.292 26.0897 188.237 25.699 188.087 25.3501C187.944 25.0017 187.725 24.7203 187.429 24.5058C187.14 24.2852 186.789 24.1563 186.377 24.1192C185.971 24.0826 185.603 24.1467 185.272 24.3115C184.943 24.4696 184.673 24.707 184.464 25.0235C184.261 25.3407 184.14 25.7155 184.101 26.1481C184.062 26.5806 184.113 26.9744 184.256 27.3294C184.406 27.6783 184.628 27.9634 184.923 28.1846C185.219 28.3991 185.57 28.5246 185.976 28.5612ZM198.471 23.8505L198.348 25.2081L194.593 30.6963L192.756 30.5308L196.621 25.0524L193.078 24.7331L193.2 23.3755L198.471 23.8505ZM201.315 31.4631C200.69 31.4067 200.164 31.2151 199.737 30.8881C199.317 30.5551 199.013 30.1017 198.823 29.5277C198.634 28.9472 198.575 28.2609 198.646 27.469C198.754 26.2711 199.103 25.3734 199.694 24.7759C200.285 24.1783 201.049 23.9219 201.987 24.0064C202.926 24.091 203.632 24.48 204.106 25.1735C204.58 25.867 204.763 26.8127 204.656 28.0105C204.584 28.8024 204.404 29.4671 204.114 30.0045C203.824 30.5353 203.44 30.9267 202.961 31.1787C202.49 31.4247 201.941 31.5195 201.315 31.4631ZM201.44 30.0856C201.839 30.1215 202.166 29.9564 202.42 29.5903C202.682 29.218 202.848 28.6393 202.919 27.854C202.99 27.0621 202.93 26.4629 202.738 26.0566C202.554 25.6441 202.262 25.4199 201.863 25.384C201.464 25.348 201.133 25.5161 200.872 25.8883C200.617 26.2545 200.455 26.8336 200.383 27.6255C200.312 28.4108 200.369 29.0096 200.553 29.422C200.745 29.8284 201.04 30.0496 201.44 30.0856ZM207.021 31.8163L205.374 31.6679L211.168 24.9948L212.815 25.1432L207.021 31.8163ZM211.011 32.3168C210.685 32.2874 210.396 32.1842 210.144 32.0071C209.891 31.8301 209.701 31.6016 209.571 31.3216C209.442 31.0416 209.393 30.7352 209.423 30.4025C209.452 30.0764 209.555 29.7905 209.732 29.5447C209.909 29.2923 210.137 29.1016 210.417 28.9725C210.697 28.8435 211 28.7936 211.326 28.823C211.659 28.853 211.948 28.9562 212.194 29.1327C212.446 29.3097 212.637 29.5382 212.766 29.8182C212.896 30.0915 212.946 30.3946 212.916 30.7273C212.886 31.0534 212.783 31.3426 212.606 31.595C212.429 31.8474 212.201 32.0382 211.921 32.1672C211.647 32.2969 211.344 32.3468 211.011 32.3168ZM211.115 31.1688C211.268 31.1826 211.403 31.1377 211.519 31.0342C211.637 30.924 211.703 30.7857 211.718 30.6194C211.733 30.453 211.692 30.3084 211.596 30.1857C211.5 30.0563 211.376 29.9847 211.223 29.971C211.07 29.9572 210.935 30.0054 210.817 30.1156C210.701 30.2191 210.635 30.354 210.62 30.5204C210.605 30.6868 210.645 30.8347 210.741 30.964C210.837 31.0868 210.962 31.155 211.115 31.1688ZM206.863 27.9881C206.537 27.9587 206.248 27.8555 205.995 27.6784C205.743 27.5014 205.552 27.2728 205.423 26.9929C205.294 26.7129 205.244 26.4065 205.274 26.0738C205.304 25.7477 205.407 25.4618 205.583 25.216C205.76 24.9636 205.989 24.7729 206.269 24.6438C206.549 24.5148 206.852 24.4649 207.178 24.4943C207.511 24.5243 207.8 24.6275 208.046 24.804C208.298 24.981 208.489 25.2095 208.618 25.4895C208.747 25.7628 208.797 26.0659 208.767 26.3986C208.738 26.7247 208.635 27.0139 208.458 27.2663C208.281 27.5187 208.052 27.7095 207.772 27.8385C207.499 27.9682 207.196 28.018 206.863 27.9881ZM206.966 26.8401C207.119 26.8539 207.254 26.809 207.371 26.7055C207.488 26.5953 207.554 26.457 207.569 26.2907C207.584 26.1243 207.544 25.9797 207.448 25.857C207.352 25.7276 207.227 25.656 207.074 25.6422C206.921 25.6285 206.786 25.6767 206.669 25.7868C206.552 25.8904 206.486 26.0253 206.471 26.1917C206.456 26.3581 206.497 26.5059 206.592 26.6353C206.689 26.7581 206.813 26.8263 206.966 26.8401Z" fill="#243353"/>
<path d="M228.735 31.1768C227.95 31.106 227.355 30.8579 226.951 30.4323C226.547 30.0001 226.377 29.4313 226.44 28.7259L226.651 26.3901L227.799 26.4935L227.6 28.6996C227.56 29.1454 227.659 29.4965 227.897 29.7528C228.143 30.0031 228.512 30.1504 229.005 30.1948C229.344 30.2254 229.678 30.2051 230.007 30.1341C230.336 30.0564 230.617 29.9476 230.851 29.8077L231.126 30.557C230.822 30.8046 230.464 30.9804 230.052 31.0841C229.64 31.1879 229.201 31.2188 228.735 31.1768ZM230.37 33.9204L231.013 26.7832L232.161 26.8866L231.518 34.0239L230.37 33.9204ZM238.209 34.6269L233.298 34.1843L233.941 27.0471L238.853 27.4897L238.764 28.4679L235.001 28.1288L234.534 33.3095L238.298 33.6487L238.209 34.6269ZM238.302 31.4754L234.629 31.1444L234.717 30.1661L238.39 30.4972L238.302 31.4754ZM240.704 34.8518L239.556 34.7483L240.2 27.6111L243.055 27.8683C243.547 27.9127 243.972 28.0415 244.328 28.2548C244.685 28.4614 244.952 28.7337 245.13 29.0717C245.315 29.4037 245.388 29.7827 245.349 30.2086C245.312 30.6278 245.172 30.9876 244.93 31.2878C244.695 31.5886 244.383 31.8121 243.994 31.9582C243.606 32.0976 243.166 32.1452 242.673 32.1008L240.866 31.938L240.955 30.9597L242.761 31.1225C243.167 31.1591 243.496 31.0881 243.747 30.9094C244.005 30.7247 244.15 30.456 244.182 30.1033C244.213 29.7506 244.118 29.4636 243.897 29.2424C243.683 29.0151 243.372 28.8832 242.966 28.8466L241.259 28.6928L240.704 34.8518ZM251.016 35.7811L251.659 28.6438L252.807 28.7472L252.164 35.8845L251.016 35.7811ZM247.353 35.4509L246.205 35.3475L246.848 28.2102L247.996 28.3136L247.353 35.4509ZM247.54 32.2576L247.629 31.2694L251.492 31.6175L251.403 32.6057L247.54 32.2576ZM259.031 34.7724L254.918 34.4018L255.006 33.4235L259.119 33.7942L259.031 34.7724ZM260.293 36.6171L259.075 36.5073L257.203 29.9283L257.582 29.9625L254.564 36.1007L253.386 35.9946L256.854 29.1119L258.112 29.2252L260.293 36.6171ZM265.562 37.0919L266.118 30.9329L264.411 30.7791C263.998 30.7419 263.666 30.816 263.414 31.0013C263.164 31.1799 263.022 31.4456 262.99 31.7983C262.959 32.151 263.05 32.441 263.264 32.6683C263.479 32.889 263.793 33.0179 264.205 33.055L266.012 33.2179L265.924 34.1961L264.117 34.0333C263.625 33.9889 263.197 33.8631 262.833 33.6559C262.477 33.4427 262.21 33.167 262.032 32.829C261.855 32.491 261.785 32.1123 261.822 31.6931C261.861 31.2672 261.997 30.9071 262.232 30.6129C262.467 30.3121 262.779 30.092 263.167 29.9525C263.562 29.807 264.006 29.7565 264.499 29.8009L267.354 30.0581L266.71 37.1954L265.562 37.0919ZM260.881 36.67L263.586 33.5628L264.864 33.6779L262.248 36.7933L260.881 36.67ZM270.439 37.5314L271.082 30.3941L277.011 30.9285L276.368 38.0657L275.22 37.9623L275.839 31.0945L276.353 31.8654L271.522 31.43L272.206 30.7671L271.587 37.6348L270.439 37.5314ZM282.212 38.5924L282.768 32.4334L281.061 32.2796C280.648 32.2424 280.316 32.3165 280.064 32.5018C279.813 32.6804 279.672 32.9461 279.64 33.2988C279.609 33.6515 279.7 33.9415 279.914 34.1688C280.129 34.3894 280.443 34.5183 280.855 34.5555L282.662 34.7183L282.574 35.6966L280.767 35.5338C280.275 35.4894 279.847 35.3636 279.483 35.1564C279.127 34.9431 278.86 34.6675 278.682 34.3295C278.505 33.9914 278.435 33.6128 278.472 33.1935C278.511 32.7676 278.647 32.4076 278.882 32.1134C279.117 31.8126 279.428 31.5924 279.817 31.453C280.212 31.3075 280.656 31.2569 281.149 31.3013L284.004 31.5586L283.36 38.6959L282.212 38.5924ZM277.531 38.1705L280.236 35.0632L281.514 35.1784L278.898 38.2937L277.531 38.1705ZM288.014 39.1152L286.866 39.0118L287.429 32.7629L288.577 32.8664L288.014 39.1152ZM290.854 33.1722L285.144 32.6577L285.233 31.6694L290.943 32.184L290.854 33.1722ZM296.336 39.8652L296.979 32.7279L298.127 32.8314L297.484 39.9686L296.336 39.8652ZM292.672 39.535L291.524 39.4316L292.167 32.2943L293.315 32.3978L292.672 39.535ZM292.859 36.3417L292.948 35.3535L296.812 35.7016L296.722 36.6898L292.859 36.3417ZM299.274 40.13L299.917 32.9927L301.065 33.0962L300.474 39.6545L299.736 39.5879L304.679 33.4218L305.917 33.5334L305.273 40.6706L304.125 40.5672L304.717 33.9989L305.436 34.0637L300.492 40.2397L299.274 40.13ZM307.053 40.831L307.696 33.6938L308.844 33.7972L308.225 40.6649L307.671 39.8905L312.473 40.3232L311.829 40.9897L312.448 34.122L313.596 34.2254L312.953 41.3627L307.053 40.831ZM312.517 43.0744L312.762 40.3492L313.85 40.4473L313.605 43.1724L312.517 43.0744ZM320.132 40.2788L316.02 39.9082L316.108 38.9299L320.221 39.3006L320.132 40.2788ZM321.395 42.1235L320.177 42.0137L318.305 35.4347L318.684 35.4689L315.665 41.6071L314.488 41.501L317.956 34.6183L319.213 34.7316L321.395 42.1235Z" fill="#243353"/>
<path d="M340.981 41.5741L341.977 42.801C341.622 43.1649 341.174 43.4465 340.633 43.646C340.098 43.846 339.521 43.9182 338.903 43.8624C338.324 43.8102 337.806 43.673 337.35 43.4507C336.894 43.2218 336.508 42.9254 336.192 42.5615C335.883 42.1981 335.655 41.7818 335.51 41.3125C335.365 40.8365 335.317 40.3257 335.366 39.78C335.414 39.241 335.556 38.7539 335.789 38.3187C336.024 37.877 336.329 37.5053 336.705 37.2037C337.088 36.9028 337.523 36.6838 338.012 36.5467C338.508 36.4035 339.042 36.3577 339.614 36.4093C340.233 36.4651 340.781 36.6386 341.258 36.9298C341.742 37.2216 342.126 37.5782 342.41 37.9996L341.21 39.0286C341.03 38.7172 340.788 38.4639 340.483 38.2688C340.186 38.0676 339.851 37.9502 339.479 37.9166C339.079 37.8806 338.711 37.9447 338.374 38.1089C338.045 38.2671 337.775 38.5044 337.566 38.821C337.356 39.1375 337.232 39.5121 337.193 39.9446C337.154 40.3772 337.209 40.7713 337.358 41.1269C337.507 41.4758 337.73 41.7608 338.025 41.982C338.328 42.1971 338.679 42.3227 339.078 42.3587C339.451 42.3923 339.801 42.3366 340.13 42.1918C340.465 42.0475 340.748 41.8416 340.981 41.5741ZM344.684 44.2224L342.967 44.0677L343.61 36.9304L345.327 37.0851L344.684 44.2224ZM349.945 44.6965L347.709 44.495L344.768 40.4965L344.928 40.5109L348.092 37.3343L350.169 37.5214L346.771 40.828L346.798 40.5285L349.945 44.6965ZM350.844 44.7775L351.487 37.6402L353.204 37.7949L352.624 44.2235L351.447 44.1173L356.119 38.0576L357.915 38.2196L357.272 45.3568L355.555 45.2021L356.143 38.6837L357.341 38.7917L352.64 44.9394L350.844 44.7775ZM358.709 44.6812L358.766 44.0424L359.226 44.0837C359.412 44.1005 359.573 43.9876 359.709 43.7449C359.845 43.4956 359.977 43.0814 360.103 42.5023L360.967 38.4946L365.928 38.9417L365.379 45.0308L363.682 44.8779L364.211 39.0083L364.9 40.2981L361.027 39.9491L362.574 38.8608L361.693 42.8368C361.59 43.3039 361.442 43.6864 361.247 43.9842C361.06 44.2759 360.823 44.486 360.536 44.6145C360.25 44.7429 359.917 44.7901 359.537 44.7559L358.709 44.6812ZM358.231 47.1942L358.517 44.0199L366.343 44.7251L366.057 47.8995L364.46 47.7555L364.69 45.2001L365.515 46.0996L359.236 45.5338L360.042 44.9624L359.828 47.3381L358.231 47.1942ZM369.074 46.4204L367.357 46.2657L368 39.1284L369.717 39.2831L369.074 46.4204ZM374.335 46.8945L372.099 46.693L369.158 42.6945L369.318 42.7089L372.482 39.5323L374.559 39.7194L371.161 43.0259L371.188 42.7265L374.335 46.8945ZM375.234 46.9755L375.877 39.8382L377.594 39.9929L377.015 46.4215L375.837 46.3153L380.509 40.2556L382.305 40.4175L381.662 47.5548L379.945 47.4001L380.533 40.8817L381.731 40.9897L377.031 47.1374L375.234 46.9755ZM385.049 47.0549L385.106 46.416L385.565 46.4574C385.752 46.4742 385.913 46.3613 386.049 46.1186C386.185 45.8692 386.316 45.4551 386.442 44.876L387.307 40.8683L392.268 41.3153L391.719 47.4045L390.022 47.2515L390.551 41.382L391.24 42.6718L387.367 42.3228L388.914 41.2345L388.032 45.2105C387.93 45.6776 387.781 46.0601 387.587 46.3578C387.4 46.6496 387.163 46.8597 386.876 46.9881C386.589 47.1166 386.256 47.1638 385.877 47.1296L385.049 47.0549ZM384.57 49.5679L384.857 46.3936L392.683 47.0988L392.397 50.2732L390.799 50.1292L391.03 47.5738L391.854 48.4733L385.576 47.9075L386.382 47.3361L386.168 49.7118L384.57 49.5679ZM397.041 49.1017C396.476 49.0508 395.965 48.9108 395.509 48.6819C395.053 48.453 394.664 48.1563 394.342 47.7917C394.025 47.4278 393.791 47.0109 393.639 46.541C393.494 46.065 393.446 45.5575 393.495 45.0185C393.543 44.4794 393.681 43.992 393.908 43.5563C394.142 43.1212 394.447 42.7528 394.823 42.4513C395.205 42.1503 395.641 41.928 396.131 41.7842C396.62 41.6405 397.147 41.5941 397.713 41.645C398.279 41.696 398.789 41.836 399.245 42.0649C399.701 42.2938 400.087 42.5902 400.403 42.9541C400.726 43.3187 400.96 43.7356 401.105 44.2049C401.257 44.6748 401.309 45.1793 401.261 45.7183C401.212 46.2574 401.071 46.7478 400.836 47.1896C400.609 47.6253 400.304 47.9937 399.922 48.2946C399.546 48.5962 399.113 48.8188 398.624 48.9626C398.134 49.1063 397.607 49.1527 397.041 49.1017ZM397.177 47.5944C397.59 47.6316 397.957 47.5708 398.28 47.4121C398.61 47.2473 398.877 47.0063 399.08 46.6892C399.29 46.366 399.415 45.9881 399.454 45.5555C399.493 45.123 399.438 44.7322 399.288 44.3833C399.145 44.0349 398.925 43.7535 398.629 43.539C398.341 43.3184 397.99 43.1895 397.577 43.1524C397.171 43.1158 396.803 43.1799 396.473 43.3447C396.144 43.5028 395.874 43.7402 395.664 44.0567C395.461 44.3739 395.34 44.7487 395.301 45.1813C395.262 45.6138 395.314 46.0076 395.457 46.3626C395.606 46.7115 395.829 46.9966 396.124 47.2178C396.42 47.4323 396.771 47.5578 397.177 47.5944ZM409.671 42.8837L409.549 44.2413L405.794 49.7295L403.957 49.564L407.822 44.0856L404.278 43.7663L404.401 42.4087L409.671 42.8837ZM412.516 50.4963C411.89 50.4399 411.364 50.2483 410.938 49.9213C410.518 49.5883 410.213 49.1349 410.024 48.5609C409.835 47.9804 409.776 47.2941 409.847 46.5022C409.955 45.3043 410.304 44.4066 410.895 43.8091C411.485 43.2115 412.25 42.9551 413.188 43.0396C414.126 43.1242 414.833 43.5132 415.307 44.2067C415.781 44.9002 415.964 45.8459 415.856 47.0437C415.785 47.8356 415.604 48.5003 415.314 49.0377C415.025 49.5685 414.641 49.9599 414.162 50.2119C413.69 50.4579 413.142 50.5527 412.516 50.4963ZM412.64 49.1188C413.039 49.1547 413.366 48.9896 413.621 48.6235C413.882 48.2512 414.049 47.6725 414.119 46.8872C414.191 46.0953 414.131 45.4961 413.939 45.0898C413.755 44.6773 413.463 44.4531 413.064 44.4172C412.665 44.3812 412.334 44.5493 412.072 44.9215C411.818 45.2877 411.655 45.8668 411.584 46.6587C411.513 47.444 411.57 48.0428 411.754 48.4552C411.946 48.8616 412.241 49.0828 412.64 49.1188ZM418.222 50.8495L416.575 50.7011L422.369 44.028L424.016 44.1764L418.222 50.8495ZM422.212 51.35C421.886 51.3206 421.597 51.2174 421.344 51.0403C421.092 50.8633 420.901 50.6348 420.772 50.3548C420.643 50.0748 420.594 49.7684 420.624 49.4357C420.653 49.1096 420.756 48.8237 420.932 48.5779C421.109 48.3255 421.338 48.1348 421.618 48.0057C421.898 47.8767 422.201 47.8268 422.527 47.8562C422.86 47.8862 423.149 47.9894 423.395 48.1659C423.647 48.3429 423.838 48.5714 423.967 48.8514C424.097 49.1247 424.146 49.4278 424.116 49.7605C424.087 50.0866 423.984 50.3758 423.807 50.6282C423.63 50.8806 423.401 51.0714 423.121 51.2004C422.848 51.3301 422.545 51.38 422.212 51.35ZM422.316 50.202C422.469 50.2158 422.603 50.1709 422.72 50.0674C422.837 49.9572 422.904 49.8189 422.919 49.6526C422.934 49.4862 422.893 49.3416 422.797 49.2189C422.701 49.0895 422.577 49.018 422.424 49.0042C422.27 48.9904 422.135 49.0386 422.018 49.1488C421.901 49.2523 421.835 49.3872 421.821 49.5536C421.806 49.72 421.846 49.8679 421.942 49.9972C422.038 50.12 422.162 50.1882 422.316 50.202ZM418.064 47.0213C417.738 46.9919 417.448 46.8887 417.196 46.7116C416.944 46.5346 416.753 46.306 416.624 46.0261C416.495 45.7461 416.445 45.4397 416.475 45.107C416.505 44.7809 416.607 44.495 416.784 44.2492C416.961 43.9968 417.189 43.8061 417.469 43.677C417.749 43.548 418.052 43.4981 418.379 43.5275C418.711 43.5575 419.001 43.6607 419.246 43.8372C419.499 44.0142 419.689 44.2427 419.818 44.5227C419.948 44.796 419.998 45.0991 419.968 45.4318C419.939 45.7579 419.835 46.0471 419.658 46.2995C419.481 46.5519 419.253 46.7427 418.973 46.8717C418.699 47.0014 418.396 47.0513 418.064 47.0213ZM418.167 45.8733C418.32 45.8871 418.455 45.8422 418.572 45.7387C418.689 45.6285 418.755 45.4902 418.77 45.3239C418.785 45.1575 418.744 45.0129 418.648 44.8902C418.553 44.7608 418.428 44.6892 418.275 44.6755C418.122 44.6617 417.987 44.7099 417.87 44.82C417.753 44.9236 417.687 45.0585 417.672 45.2249C417.657 45.3913 417.697 45.5392 417.793 45.6685C417.889 45.7913 418.014 45.8595 418.167 45.8733Z" fill="#243353"/>
<path d="M439.936 50.21C439.151 50.1392 438.556 49.8911 438.151 49.4655C437.748 49.0333 437.577 48.4645 437.641 47.7591L437.851 45.4233L438.999 45.5267L438.801 47.7328C438.76 48.1786 438.86 48.5297 439.098 48.786C439.344 49.0363 439.713 49.1836 440.206 49.228C440.545 49.2586 440.879 49.2383 441.207 49.1673C441.536 49.0896 441.818 48.9808 442.052 48.8409L442.326 49.5902C442.022 49.8378 441.664 50.0136 441.252 50.1173C440.841 50.2211 440.402 50.252 439.936 50.21ZM441.57 52.9536L442.214 45.8164L443.362 45.9198L442.718 53.0571L441.57 52.9536ZM449.41 53.6601L444.499 53.2175L445.142 46.0803L450.053 46.5229L449.965 47.5011L446.202 47.162L445.735 52.3427L449.498 52.6819L449.41 53.6601ZM449.503 50.5086L445.829 50.1776L445.918 49.1993L449.591 49.5304L449.503 50.5086ZM451.905 53.885L450.757 53.7815L451.4 46.6443L454.255 46.9015C454.748 46.9459 455.172 47.0747 455.529 47.288C455.886 47.4946 456.153 47.7669 456.331 48.105C456.515 48.4369 456.589 48.8159 456.55 49.2418C456.512 49.661 456.373 50.0208 456.131 50.321C455.896 50.6218 455.584 50.8453 455.195 50.9914C454.807 51.1308 454.366 51.1784 453.874 51.134L452.067 50.9712L452.155 49.9929L453.962 50.1557C454.368 50.1923 454.696 50.1213 454.947 49.9426C455.205 49.7579 455.35 49.4892 455.382 49.1365C455.414 48.7838 455.319 48.4968 455.098 48.2756C454.883 48.0483 454.573 47.9164 454.167 47.8798L452.46 47.726L451.905 53.885ZM462.217 54.8143L462.86 47.677L464.008 47.7804L463.365 54.9177L462.217 54.8143ZM458.553 54.4841L457.405 54.3807L458.049 47.2434L459.197 47.3468L458.553 54.4841ZM458.741 51.2908L458.83 50.3026L462.693 50.6507L462.604 51.6389L458.741 51.2908ZM470.231 53.8056L466.119 53.435L466.207 52.4567L470.319 52.8274L470.231 53.8056ZM471.494 55.6503L470.276 55.5405L468.404 48.9615L468.783 48.9957L465.764 55.1339L464.586 55.0278L468.054 48.1451L469.312 48.2585L471.494 55.6503ZM476.763 56.1251L477.318 49.9661L475.611 49.8123C475.199 49.7751 474.867 49.8492 474.615 50.0345C474.364 50.2132 474.223 50.4788 474.191 50.8315C474.159 51.1842 474.251 51.4742 474.465 51.7015C474.68 51.9222 474.994 52.0511 475.406 52.0882L477.213 52.2511L477.125 53.2293L475.318 53.0665C474.826 53.0221 474.397 52.8963 474.034 52.6891C473.677 52.4759 473.41 52.2002 473.233 51.8622C473.055 51.5242 472.985 51.1455 473.023 50.7263C473.062 50.3004 473.198 49.9403 473.432 49.6461C473.668 49.3453 473.979 49.1252 474.367 48.9857C474.763 48.8402 475.207 48.7897 475.699 48.8341L478.554 49.0913L477.911 56.2286L476.763 56.1251ZM472.082 55.7032L474.787 52.596L476.065 52.7111L473.449 55.8265L472.082 55.7032ZM481.64 56.5646L482.283 49.4273L488.212 49.9617L487.569 57.0989L486.421 56.9955L487.04 50.1278L487.554 50.8986L482.723 50.4632L483.406 49.8003L482.788 56.668L481.64 56.5646ZM493.413 57.6256L493.968 51.4666L492.261 51.3128C491.849 51.2756 491.517 51.3497 491.265 51.535C491.014 51.7136 490.873 51.9793 490.841 52.332C490.809 52.6847 490.901 52.9747 491.115 53.202C491.33 53.4226 491.644 53.5515 492.056 53.5887L493.863 53.7515L493.775 54.7298L491.968 54.567C491.476 54.5226 491.047 54.3968 490.684 54.1896C490.327 53.9763 490.06 53.7007 489.883 53.3627C489.705 53.0246 489.635 52.646 489.673 52.2268C489.712 51.8008 489.848 51.4408 490.082 51.1466C490.318 50.8458 490.629 50.6256 491.017 50.4862C491.413 50.3407 491.857 50.2901 492.349 50.3345L495.204 50.5918L494.561 57.7291L493.413 57.6256ZM488.732 57.2037L491.437 54.0964L492.714 54.2116L490.099 57.327L488.732 57.2037ZM499.215 58.1484L498.067 58.045L498.63 51.7961L499.778 51.8996L499.215 58.1484ZM502.055 52.2054L496.345 51.6909L496.434 50.7026L502.144 51.2172L502.055 52.2054ZM507.536 58.8984L508.18 51.7611L509.328 51.8646L508.684 59.0018L507.536 58.8984ZM503.873 58.5682L502.725 58.4648L503.368 51.3275L504.516 51.431L503.873 58.5682ZM504.06 55.3749L504.149 54.3867L508.012 54.7348L507.923 55.7231L504.06 55.3749ZM510.475 59.1632L511.118 52.0259L512.266 52.1294L511.675 58.6877L510.936 58.6211L515.88 52.455L517.117 52.5666L516.474 59.7038L515.326 59.6004L515.918 53.0321L516.637 53.0969L511.693 59.2729L510.475 59.1632ZM518.254 59.8642L518.897 52.727L520.045 52.8304L519.426 59.6981L518.872 58.9237L523.673 59.3564L523.03 60.0229L523.649 53.1552L524.797 53.2586L524.153 60.3959L518.254 59.8642ZM523.717 62.1076L523.963 59.3824L525.051 59.4805L524.805 62.2056L523.717 62.1076ZM531.333 59.312L527.22 58.9414L527.309 57.9631L531.421 58.3338L531.333 59.312ZM532.596 61.1567L531.378 61.0469L529.505 54.4679L529.885 54.5021L526.866 60.6403L525.688 60.5342L529.156 53.6515L530.414 53.7649L532.596 61.1567Z" fill="#243353"/>
<path d="M552.181 60.607L553.178 61.834C552.823 62.1978 552.375 62.4795 551.833 62.6789C551.299 62.879 550.722 62.9511 550.103 62.8953C549.524 62.8432 549.007 62.7059 548.55 62.4837C548.095 62.2548 547.709 61.9584 547.393 61.5944C547.083 61.2311 546.856 60.8148 546.71 60.3455C546.565 59.8695 546.517 59.3587 546.567 58.813C546.615 58.2739 546.756 57.7868 546.99 57.3517C547.224 56.9099 547.53 56.5382 547.906 56.2367C548.288 55.9357 548.724 55.7167 549.213 55.5796C549.709 55.4365 550.243 55.3907 550.815 55.4422C551.434 55.498 551.982 55.6715 552.459 55.9627C552.942 56.2545 553.326 56.6111 553.61 57.0326L552.411 58.0616C552.231 57.7502 551.988 57.4969 551.684 57.3017C551.387 57.1005 551.052 56.9831 550.679 56.9496C550.28 56.9136 549.912 56.9777 549.575 57.1419C549.246 57.3 548.976 57.5374 548.766 57.8539C548.557 58.1705 548.432 58.545 548.393 58.9776C548.354 59.4101 548.409 59.8042 548.558 60.1598C548.708 60.5087 548.931 60.7938 549.226 61.015C549.529 61.2301 549.88 61.3556 550.279 61.3916C550.652 61.4252 551.002 61.3696 551.331 61.2247C551.666 61.0805 551.949 60.8746 552.181 60.607ZM555.885 63.2553L554.168 63.1006L554.811 55.9634L556.528 56.1181L555.885 63.2553ZM561.145 63.7294L558.909 63.5279L555.969 59.5295L556.129 59.5439L559.293 56.3673L561.369 56.5544L557.972 59.8609L557.999 59.5614L561.145 63.7294ZM562.044 63.8104L562.688 56.6732L564.404 56.8279L563.825 63.2564L562.647 63.1503L567.319 57.0906L569.116 57.2525L568.473 64.3898L566.756 64.235L567.343 57.7167L568.541 57.8246L563.841 63.9724L562.044 63.8104ZM569.91 63.7142L569.967 63.0753L570.426 63.1167C570.613 63.1335 570.774 63.0205 570.91 62.7779C571.046 62.5285 571.177 62.1143 571.303 61.5353L572.168 57.5275L577.129 57.9746L576.58 64.0637L574.883 63.9108L575.412 58.0413L576.101 59.3311L572.228 58.982L573.775 57.8938L572.893 61.8698C572.791 62.3369 572.642 62.7193 572.448 63.0171C572.261 63.3088 572.024 63.5189 571.737 63.6474C571.45 63.7759 571.117 63.823 570.738 63.7888L569.91 63.7142ZM569.431 66.2272L569.718 63.0528L577.544 63.7581L577.258 66.9324L575.66 66.7885L575.891 64.2331L576.715 65.1326L570.436 64.5667L571.243 63.9953L571.029 66.3711L569.431 66.2272ZM580.275 65.4533L578.558 65.2986L579.201 58.1613L580.918 58.3161L580.275 65.4533ZM585.535 65.9274L583.299 65.7259L580.359 61.7275L580.519 61.7419L583.683 58.5653L585.759 58.7524L582.362 62.0589L582.389 61.7594L585.535 65.9274ZM586.434 66.0084L587.078 58.8712L588.795 59.0259L588.215 65.4544L587.037 65.3483L591.709 59.2886L593.506 59.4505L592.863 66.5878L591.146 66.433L591.733 59.9147L592.931 60.0226L588.231 66.1704L586.434 66.0084ZM596.249 66.0879L596.307 65.449L596.766 65.4904C596.952 65.5072 597.113 65.3942 597.249 65.1515C597.386 64.9022 597.517 64.488 597.643 63.909L598.507 59.9012L603.469 60.3483L602.92 66.4374L601.223 66.2845L601.752 60.415L602.441 61.7048L598.568 61.3557L600.115 60.2674L599.233 64.2435C599.131 64.7106 598.982 65.093 598.788 65.3908C598.6 65.6825 598.363 65.8926 598.077 66.0211C597.79 66.1496 597.457 66.1967 597.078 66.1625L596.249 66.0879ZM595.771 68.6009L596.057 65.4265L603.883 66.1318L603.597 69.3061L602 69.1622L602.23 66.6068L603.055 67.5063L596.776 66.9404L597.582 66.369L597.368 68.7448L595.771 68.6009ZM608.242 68.1347C607.676 68.0837 607.166 67.9438 606.71 67.7149C606.254 67.4859 605.865 67.1892 605.542 66.8247C605.226 66.4608 604.992 66.0439 604.84 65.5739C604.695 65.098 604.647 64.5905 604.695 64.0514C604.744 63.5124 604.882 63.025 605.109 62.5893C605.343 62.1541 605.647 61.7858 606.023 61.4842C606.406 61.1833 606.842 60.9609 607.331 60.8172C607.821 60.6734 608.348 60.627 608.914 60.678C609.479 60.729 609.99 60.8689 610.446 61.0978C610.902 61.3268 611.287 61.6232 611.604 61.9871C611.926 62.3516 612.16 62.7685 612.306 63.2379C612.458 63.7078 612.51 64.2123 612.461 64.7513C612.413 65.2903 612.271 65.7807 612.037 66.2225C611.81 66.6583 611.505 67.0266 611.122 67.3276C610.746 67.6291 610.314 67.8518 609.824 67.9955C609.335 68.1393 608.808 68.1857 608.242 68.1347ZM608.378 66.6274C608.79 66.6646 609.158 66.6038 609.481 66.445C609.811 66.2802 610.078 66.0393 610.281 65.7221C610.491 65.3989 610.616 65.021 610.655 64.5885C610.694 64.1559 610.638 63.7652 610.489 63.4162C610.345 63.0679 610.126 62.7865 609.83 62.572C609.541 62.3514 609.191 62.2225 608.778 62.1853C608.372 62.1487 608.004 62.2128 607.674 62.3776C607.344 62.5358 607.075 62.7731 606.865 63.0897C606.662 63.4068 606.541 63.7817 606.502 64.2142C606.463 64.6468 606.515 65.0406 606.657 65.3956C606.807 65.7445 607.029 66.0296 607.325 66.2507C607.621 66.4653 607.972 66.5908 608.378 66.6274ZM620.872 61.9167L620.75 63.2742L616.994 68.7625L615.158 68.5969L619.023 63.1186L615.479 62.7993L615.601 61.4417L620.872 61.9167ZM623.717 69.5293C623.091 69.4729 622.565 69.2812 622.138 68.9543C621.719 68.6213 621.414 68.1678 621.224 67.5939C621.035 67.0133 620.976 66.3271 621.048 65.5351C621.156 64.3373 621.505 63.4396 622.095 62.842C622.686 62.2445 623.45 61.988 624.389 62.0726C625.327 62.1571 626.033 62.5462 626.508 63.2397C626.982 63.9331 627.165 64.8788 627.057 66.0767C626.986 66.8686 626.805 67.5333 626.515 68.0707C626.226 68.6014 625.841 68.9928 625.363 69.2449C624.891 69.4908 624.342 69.5856 623.717 69.5293ZM623.841 68.1517C624.24 68.1877 624.567 68.0226 624.821 67.6564C625.083 67.2842 625.249 66.7054 625.32 65.9202C625.391 65.1282 625.331 64.5291 625.14 64.1227C624.956 63.7103 624.664 63.4861 624.265 63.4501C623.865 63.4141 623.535 63.5823 623.273 63.9545C623.019 64.3207 622.856 64.8997 622.785 65.6917C622.714 66.4769 622.77 67.0758 622.955 67.4882C623.146 67.8946 623.442 68.1157 623.841 68.1517ZM629.423 69.8825L627.775 69.734L633.569 63.0609L635.217 63.2094L629.423 69.8825ZM633.413 70.3829C633.087 70.3535 632.797 70.2503 632.545 70.0733C632.293 69.8962 632.102 69.6677 631.973 69.3877C631.844 69.1077 631.794 68.8014 631.824 68.4686C631.854 68.1426 631.957 67.8566 632.133 67.6109C632.31 67.3585 632.539 67.1678 632.819 67.0387C633.099 66.9096 633.402 66.8598 633.728 66.8892C634.06 66.9192 634.35 67.0224 634.595 67.1988C634.848 67.3759 635.038 67.6044 635.168 67.8844C635.297 68.1577 635.347 68.4607 635.317 68.7935C635.288 69.1196 635.184 69.4088 635.007 69.6612C634.83 69.9136 634.602 70.1043 634.322 70.2334C634.049 70.3631 633.746 70.4129 633.413 70.3829ZM633.516 69.235C633.669 69.2488 633.804 69.2039 633.921 69.1004C634.038 68.9902 634.104 68.8519 634.119 68.6855C634.134 68.5192 634.094 68.3746 633.997 68.2519C633.902 68.1225 633.777 68.0509 633.624 68.0371C633.471 68.0233 633.336 68.0715 633.219 68.1817C633.102 68.2853 633.036 68.4202 633.021 68.5866C633.006 68.7529 633.047 68.9008 633.142 69.0302C633.239 69.1529 633.363 69.2212 633.516 69.235ZM629.264 66.0542C628.938 66.0248 628.649 65.9216 628.397 65.7446C628.144 65.5675 627.953 65.339 627.824 65.059C627.695 64.779 627.646 64.4727 627.676 64.1399C627.705 63.8138 627.808 63.5279 627.985 63.2822C628.162 63.0298 628.39 62.8391 628.67 62.71C628.95 62.5809 629.253 62.5311 629.579 62.5605C629.912 62.5904 630.201 62.6937 630.447 62.8701C630.699 63.0472 630.89 63.2757 631.019 63.5557C631.149 63.829 631.199 64.132 631.169 64.4648C631.139 64.7909 631.036 65.0801 630.859 65.3325C630.682 65.5849 630.453 65.7756 630.173 65.9047C629.9 66.0344 629.597 66.0842 629.264 66.0542ZM629.368 64.9063C629.521 64.9201 629.656 64.8752 629.772 64.7717C629.89 64.6615 629.956 64.5232 629.971 64.3568C629.986 64.1904 629.945 64.0459 629.849 63.9232C629.753 63.7938 629.629 63.7222 629.476 63.7084C629.323 63.6946 629.188 63.7428 629.07 63.853C628.954 63.9565 628.888 64.0915 628.873 64.2579C628.858 64.4242 628.898 64.5721 628.994 64.7015C629.09 64.8242 629.215 64.8925 629.368 64.9063Z" fill="#243353"/>
<path d="M651.137 69.243C650.351 69.1722 649.756 68.924 649.352 68.4985C648.948 68.0663 648.778 67.4975 648.842 66.792L649.052 64.4562L650.2 64.5597L650.001 66.7657C649.961 67.2116 650.06 67.5627 650.299 67.819C650.545 68.0692 650.914 68.2166 651.406 68.2609C651.746 68.2915 652.08 68.2713 652.408 68.2003C652.737 68.1226 653.018 68.0138 653.252 67.8738L653.527 68.6231C653.223 68.8708 652.865 69.0465 652.453 69.1503C652.041 69.2541 651.602 69.2849 651.137 69.243ZM652.771 71.9866L653.414 64.8493L654.562 64.9528L653.919 72.09L652.771 71.9866ZM660.611 72.6931L655.7 72.2505L656.343 65.1132L661.254 65.5558L661.166 66.5341L657.402 66.1949L656.936 71.3757L660.699 71.7148L660.611 72.6931ZM660.704 69.5416L657.03 69.2105L657.118 68.2323L660.792 68.5633L660.704 69.5416ZM663.106 72.9179L661.958 72.8145L662.601 65.6772L665.456 65.9345C665.948 65.9789 666.373 66.1077 666.729 66.321C667.086 66.5276 667.354 66.7999 667.531 67.1379C667.716 67.4699 667.789 67.8488 667.751 68.2747C667.713 68.694 667.573 69.0537 667.332 69.354C667.096 69.6548 666.784 69.8783 666.396 70.0244C666.007 70.1638 665.567 70.2113 665.075 70.1669L663.268 70.0041L663.356 69.0259L665.163 69.1887C665.569 69.2253 665.897 69.1542 666.148 68.9756C666.406 68.7909 666.551 68.5222 666.583 68.1695C666.615 67.8168 666.52 67.5298 666.298 67.3086C666.084 67.0813 665.774 66.9493 665.368 66.9128L663.661 66.7589L663.106 72.9179ZM673.418 73.8472L674.061 66.71L675.209 66.8134L674.566 73.9507L673.418 73.8472ZM669.754 73.5171L668.606 73.4136L669.249 66.2764L670.397 66.3798L669.754 73.5171ZM669.941 70.3238L670.03 69.3355L673.893 69.6837L673.804 70.6719L669.941 70.3238ZM681.432 72.8386L677.319 72.468L677.407 71.4897L681.52 71.8603L681.432 72.8386ZM682.695 74.6833L681.477 74.5735L679.604 67.9945L679.984 68.0286L676.965 74.1669L675.787 74.0607L679.255 67.1781L680.513 67.2914L682.695 74.6833ZM687.964 75.1581L688.519 68.9991L686.812 68.8453C686.399 68.8081 686.067 68.8821 685.816 69.0675C685.565 69.2461 685.424 69.5118 685.392 69.8645C685.36 70.2172 685.451 70.5072 685.666 70.7345C685.88 70.9551 686.194 71.084 686.607 71.1212L688.414 71.284L688.325 72.2623L686.519 72.0995C686.026 72.0551 685.598 71.9293 685.234 71.7221C684.878 71.5088 684.611 71.2332 684.433 70.8952C684.256 70.5571 684.186 70.1785 684.224 69.7592C684.262 69.3333 684.399 68.9733 684.633 68.6791C684.868 68.3783 685.18 68.1581 685.568 68.0187C685.964 67.8732 686.408 67.8226 686.9 67.867L689.755 68.1243L689.112 75.2616L687.964 75.1581ZM683.282 74.7362L685.987 71.6289L687.265 71.7441L684.65 74.8594L683.282 74.7362ZM692.84 75.5976L693.483 68.4603L699.413 68.9946L698.77 76.1319L697.622 76.0285L698.241 69.1607L698.755 69.9316L693.923 69.4962L694.607 68.8333L693.988 75.701L692.84 75.5976ZM704.614 76.6586L705.169 70.4996L703.462 70.3457C703.049 70.3086 702.717 70.3826 702.466 70.5679C702.215 70.7466 702.074 71.0123 702.042 71.365C702.01 71.7177 702.101 72.0077 702.316 72.2349C702.53 72.4556 702.844 72.5845 703.257 72.6217L705.064 72.7845L704.975 73.7628L703.169 73.5999C702.676 73.5555 702.248 73.4298 701.884 73.2225C701.528 73.0093 701.261 72.7336 701.083 72.3956C700.906 72.0576 700.836 71.679 700.874 71.2597C700.912 70.8338 701.049 70.4738 701.283 70.1796C701.518 69.8787 701.83 69.6586 702.218 69.5192C702.614 69.3737 703.058 69.3231 703.55 69.3675L706.405 69.6248L705.762 76.762L704.614 76.6586ZM699.932 76.2367L702.637 73.1294L703.915 73.2445L701.3 76.3599L699.932 76.2367ZM710.415 77.1814L709.267 77.0779L709.831 70.8291L710.979 70.9326L710.415 77.1814ZM713.255 71.2384L707.546 70.7238L707.635 69.7356L713.345 70.2501L713.255 71.2384ZM718.737 77.9313L719.38 70.7941L720.528 70.8975L719.885 78.0348L718.737 77.9313ZM715.074 77.6012L713.926 77.4977L714.569 70.3605L715.717 70.4639L715.074 77.6012ZM715.261 74.4079L715.35 73.4196L719.213 73.7678L719.124 74.756L715.261 74.4079ZM721.675 78.1961L722.319 71.0589L723.467 71.1623L722.876 77.7206L722.137 77.6541L727.08 71.488L728.318 71.5995L727.675 78.7368L726.527 78.6333L727.119 72.0651L727.837 72.1298L722.893 78.3059L721.675 78.1961ZM729.455 78.8972L730.098 71.7599L731.246 71.8634L730.627 78.7311L730.073 77.9566L734.874 78.3893L734.23 79.0559L734.849 72.1881L735.997 72.2916L735.354 79.4288L729.455 78.8972ZM734.918 81.1405L735.164 78.4154L736.252 78.5135L736.006 81.2386L734.918 81.1405ZM742.534 78.345L738.421 77.9743L738.509 76.9961L742.622 77.3667L742.534 78.345ZM743.797 80.1897L742.579 80.0799L740.706 73.5009L741.085 73.535L738.067 79.6733L736.889 79.5671L740.357 72.6845L741.615 72.7978L743.797 80.1897Z" fill="#243353"/>
<path d="M763.382 79.64L764.378 80.8669C764.024 81.2308 763.576 81.5124 763.034 81.7119C762.5 81.9119 761.923 81.9841 761.304 81.9283C760.725 81.8761 760.207 81.7389 759.751 81.5166C759.295 81.2877 758.91 80.9913 758.593 80.6274C758.284 80.2641 758.057 79.8477 757.911 79.3784C757.766 78.9024 757.718 78.3916 757.767 77.8459C757.816 77.3069 757.957 76.8198 758.191 76.3847C758.425 75.9429 758.73 75.5712 759.106 75.2697C759.489 74.9687 759.925 74.7497 760.414 74.6126C760.909 74.4694 761.444 74.4236 762.016 74.4752C762.635 74.531 763.183 74.7045 763.66 74.9957C764.143 75.2875 764.527 75.6441 764.811 76.0655L763.611 77.0945C763.431 76.7831 763.189 76.5299 762.885 76.3347C762.588 76.1335 762.253 76.0161 761.88 75.9825C761.481 75.9465 761.113 76.0106 760.776 76.1748C760.446 76.333 760.177 76.5703 759.967 76.8869C759.757 77.2034 759.633 77.578 759.594 78.0105C759.555 78.4431 759.61 78.8372 759.759 79.1928C759.909 79.5417 760.132 79.8268 760.427 80.0479C760.73 80.263 761.08 80.3886 761.48 80.4246C761.852 80.4582 762.203 80.4025 762.531 80.2577C762.866 80.1135 763.15 79.9076 763.382 79.64ZM767.086 82.2883L765.369 82.1336L766.012 74.9963L767.729 75.151L767.086 82.2883ZM772.346 82.7624L770.11 82.5609L767.17 78.5624L767.329 78.5768L770.494 75.4002L772.57 75.5873L769.173 78.8939L769.2 78.5944L772.346 82.7624ZM773.245 82.8434L773.888 75.7061L775.605 75.8609L775.026 82.2894L773.848 82.1832L778.52 76.1235L780.317 76.2855L779.674 83.4227L777.957 83.268L778.544 76.7496L779.742 76.8576L775.042 83.0053L773.245 82.8434ZM781.11 82.7471L781.168 82.1083L781.627 82.1497C781.813 82.1664 781.975 82.0535 782.11 81.8108C782.247 81.5615 782.378 81.1473 782.504 80.5683L783.369 76.5605L788.33 77.0076L787.781 83.0967L786.084 82.9438L786.613 77.0742L787.302 78.364L783.429 78.015L784.976 76.9267L784.094 80.9028C783.992 81.3699 783.843 81.7523 783.649 82.0501C783.461 82.3418 783.224 82.5519 782.938 82.6804C782.651 82.8088 782.318 82.856 781.939 82.8218L781.11 82.7471ZM780.632 85.2601L780.918 82.0858L788.744 82.7911L788.458 85.9654L786.861 85.8215L787.091 83.266L787.916 84.1655L781.637 83.5997L782.444 83.0283L782.229 85.4041L780.632 85.2601ZM791.476 84.4863L789.759 84.3316L790.402 77.1943L792.119 77.349L791.476 84.4863ZM796.736 84.9604L794.5 84.7589L791.56 80.7604L791.719 80.7748L794.884 77.5982L796.96 77.7853L793.563 81.0919L793.59 80.7924L796.736 84.9604ZM797.635 85.0414L798.278 77.9041L799.995 78.0589L799.416 84.4874L798.238 84.3812L802.91 78.3215L804.707 78.4835L804.064 85.6207L802.347 85.466L802.934 78.9476L804.132 79.0556L799.432 85.2033L797.635 85.0414ZM807.45 85.1208L807.508 84.482L807.967 84.5233C808.153 84.5401 808.314 84.4272 808.45 84.1845C808.587 83.9352 808.718 83.521 808.844 82.942L809.708 78.9342L814.669 79.3813L814.121 85.4704L812.424 85.3175L812.953 79.4479L813.641 80.7377L809.768 80.3887L811.316 79.3004L810.434 83.2764C810.331 83.7435 810.183 84.126 809.988 84.4238C809.801 84.7155 809.564 84.9256 809.277 85.0541C808.991 85.1825 808.658 85.2297 808.279 85.1955L807.45 85.1208ZM806.972 87.6338L807.258 84.4595L815.084 85.1647L814.798 88.3391L813.201 88.1951L813.431 85.6397L814.256 86.5392L807.977 85.9734L808.783 85.402L808.569 87.7777L806.972 87.6338ZM819.443 87.1677C818.877 87.1167 818.366 86.9767 817.911 86.7478C817.455 86.5189 817.066 86.2222 816.743 85.8577C816.427 85.4937 816.193 85.0768 816.041 84.6069C815.896 84.1309 815.847 83.6234 815.896 83.0844C815.945 82.5453 816.082 82.058 816.31 81.6222C816.543 81.1871 816.848 80.8187 817.224 80.5172C817.607 80.2162 818.043 79.9939 818.532 79.8501C819.022 79.7064 819.549 79.66 820.115 79.711C820.68 79.7619 821.191 79.9019 821.647 80.1308C822.102 80.3597 822.488 80.6561 822.804 81.0201C823.127 81.3846 823.361 81.8015 823.507 82.2708C823.659 82.7407 823.711 83.2452 823.662 83.7843C823.614 84.3233 823.472 84.8137 823.238 85.2555C823.011 85.6912 822.706 86.0596 822.323 86.3605C821.947 86.6621 821.514 86.8847 821.025 87.0285C820.536 87.1722 820.008 87.2186 819.443 87.1677ZM819.578 85.6603C819.991 85.6975 820.359 85.6367 820.682 85.478C821.012 85.3132 821.279 85.0722 821.482 84.7551C821.692 84.4319 821.816 84.054 821.855 83.6214C821.894 83.1889 821.839 82.7981 821.689 82.4492C821.546 82.1009 821.327 81.8194 821.031 81.6049C820.742 81.3843 820.391 81.2555 819.979 81.2183C819.573 81.1817 819.205 81.2458 818.875 81.4106C818.545 81.5687 818.275 81.8061 818.066 82.1226C817.863 82.4398 817.742 82.8146 817.703 83.2472C817.664 83.6798 817.716 84.0735 817.858 84.4285C818.008 84.7775 818.23 85.0625 818.526 85.2837C818.822 85.4982 819.173 85.6238 819.578 85.6603ZM832.073 80.9496L831.95 82.3072L828.195 87.7954L826.359 87.6299L830.223 82.1516L826.68 81.8322L826.802 80.4746L832.073 80.9496ZM834.918 88.5622C834.292 88.5059 833.766 88.3142 833.339 87.9873C832.92 87.6543 832.615 87.2008 832.425 86.6269C832.236 86.0463 832.177 85.36 832.248 84.5681C832.356 83.3702 832.706 82.4725 833.296 81.875C833.887 81.2775 834.651 81.021 835.59 81.1055C836.528 81.1901 837.234 81.5791 837.708 82.2726C838.183 82.9661 838.366 83.9118 838.258 85.1096C838.186 85.9016 838.006 86.5662 837.716 87.1036C837.426 87.6344 837.042 88.0258 836.563 88.2778C836.092 88.5238 835.543 88.6186 834.918 88.5622ZM835.042 87.1847C835.441 87.2207 835.768 87.0556 836.022 86.6894C836.284 86.3171 836.45 85.7384 836.521 84.9531C836.592 84.1612 836.532 83.5621 836.341 83.1557C836.156 82.7433 835.865 82.5191 835.465 82.4831C835.066 82.4471 834.736 82.6152 834.474 82.9875C834.22 83.3537 834.057 83.9327 833.985 84.7246C833.915 85.5099 833.971 86.1087 834.156 86.5212C834.347 86.9275 834.642 87.1487 835.042 87.1847ZM840.623 88.9154L838.976 88.767L844.77 82.0939L846.417 82.2423L840.623 88.9154ZM844.614 89.4159C844.288 89.3865 843.998 89.2833 843.746 89.1062C843.493 88.9292 843.303 88.7007 843.174 88.4207C843.045 88.1407 842.995 87.8343 843.025 87.5016C843.054 87.1755 843.157 86.8896 843.334 86.6439C843.511 86.3915 843.739 86.2007 844.019 86.0717C844.299 85.9426 844.602 85.8927 844.928 85.9221C845.261 85.9521 845.55 86.0553 845.796 86.2318C846.049 86.4088 846.239 86.6373 846.368 86.9173C846.498 87.1907 846.548 87.4937 846.518 87.8264C846.489 88.1525 846.385 88.4418 846.208 88.6942C846.031 88.9466 845.803 89.1373 845.523 89.2664C845.249 89.396 844.946 89.4459 844.614 89.4159ZM844.717 88.2679C844.87 88.2817 845.005 88.2369 845.122 88.1333C845.239 88.0231 845.305 87.8849 845.32 87.7185C845.335 87.5521 845.294 87.4076 845.198 87.2848C845.102 87.1555 844.978 87.0839 844.825 87.0701C844.672 87.0563 844.537 87.1045 844.419 87.2147C844.303 87.3182 844.237 87.4532 844.222 87.6195C844.207 87.7859 844.247 87.9338 844.343 88.0632C844.439 88.1859 844.564 88.2541 844.717 88.2679ZM840.465 85.0872C840.139 85.0578 839.85 84.9546 839.597 84.7775C839.345 84.6005 839.154 84.372 839.025 84.092C838.896 83.812 838.847 83.5056 838.877 83.1729C838.906 82.8468 839.009 82.5609 839.185 82.3152C839.362 82.0628 839.591 81.872 839.871 81.7429C840.151 81.6139 840.454 81.564 840.78 81.5934C841.113 81.6234 841.402 81.7266 841.648 81.9031C841.9 82.0801 842.091 82.3086 842.22 82.5886C842.35 82.862 842.399 83.165 842.369 83.4977C842.34 83.8238 842.237 84.1131 842.06 84.3655C841.883 84.6178 841.654 84.8086 841.374 84.9377C841.101 85.0673 840.798 85.1172 840.465 85.0872ZM840.569 83.9392C840.722 83.953 840.857 83.9082 840.973 83.8046C841.09 83.6944 841.157 83.5561 841.172 83.3898C841.187 83.2234 841.146 83.0789 841.05 82.9561C840.954 82.8268 840.83 82.7552 840.677 82.7414C840.524 82.7276 840.388 82.7758 840.271 82.886C840.154 82.9895 840.089 83.1245 840.074 83.2908C840.059 83.4572 840.099 83.6051 840.195 83.7345C840.291 83.8572 840.416 83.9254 840.569 83.9392Z" fill="#243353"/>
<path d="M862.337 88.2759C861.552 88.2052 860.957 87.957 860.553 87.5314C860.149 87.0992 859.979 86.5304 860.042 85.825L860.253 83.4892L861.401 83.5926L861.202 85.7987C861.162 86.2446 861.261 86.5956 861.5 86.852C861.745 87.1022 862.115 87.2495 862.607 87.2939C862.946 87.3245 863.28 87.3043 863.609 87.2332C863.938 87.1555 864.219 87.0467 864.453 86.9068L864.728 87.6561C864.424 87.9038 864.066 88.0795 863.654 88.1832C863.242 88.287 862.803 88.3179 862.337 88.2759ZM863.972 91.0196L864.615 83.8823L865.763 83.9857L865.12 91.123L863.972 91.0196ZM871.812 91.726L866.9 91.2835L867.544 84.1462L872.455 84.5888L872.367 85.567L868.603 85.2279L868.136 90.4086L871.9 90.7478L871.812 91.726ZM871.904 88.5745L868.231 88.2435L868.319 87.2652L871.993 87.5963L871.904 88.5745ZM874.307 91.9509L873.159 91.8474L873.802 84.7102L876.657 84.9675C877.149 85.0118 877.574 85.1407 877.93 85.3539C878.287 85.5605 878.555 85.8328 878.732 86.1709C878.917 86.5028 878.99 86.8818 878.952 87.3077C878.914 87.7269 878.774 88.0867 878.532 88.3869C878.297 88.6878 877.985 88.9112 877.596 89.0573C877.208 89.1968 876.768 89.2443 876.275 89.1999L874.469 89.0371L874.557 88.0588L876.364 88.2217C876.769 88.2582 877.098 88.1872 877.349 88.0085C877.607 87.8238 877.752 87.5551 877.784 87.2024C877.815 86.8497 877.721 86.5628 877.499 86.3415C877.285 86.1142 876.975 85.9823 876.569 85.9457L874.862 85.7919L874.307 91.9509ZM884.618 92.8802L885.262 85.7429L886.41 85.8464L885.766 92.9836L884.618 92.8802ZM880.955 92.55L879.807 92.4466L880.45 85.3093L881.598 85.4128L880.955 92.55ZM881.142 89.3567L881.231 88.3685L885.094 88.7166L885.005 89.7049L881.142 89.3567ZM892.633 91.8715L888.52 91.5009L888.608 90.5227L892.721 90.8933L892.633 91.8715ZM893.895 93.7162L892.678 93.6065L890.805 87.0274L891.184 87.0616L888.166 93.1999L886.988 93.0937L890.456 86.211L891.714 86.3244L893.895 93.7162ZM899.165 94.1911L899.72 88.0321L898.013 87.8782C897.6 87.841 897.268 87.9151 897.017 88.1004C896.766 88.2791 896.624 88.5447 896.593 88.8975C896.561 89.2502 896.652 89.5402 896.866 89.7674C897.081 89.9881 897.395 90.117 897.808 90.1542L899.614 90.317L899.526 91.2952L897.719 91.1324C897.227 91.088 896.799 90.9622 896.435 90.755C896.079 90.5418 895.812 90.2661 895.634 89.9281C895.457 89.5901 895.387 89.2115 895.425 88.7922C895.463 88.3663 895.599 88.0062 895.834 87.7121C896.069 87.4112 896.381 87.1911 896.769 87.0516C897.164 86.9062 897.608 86.8556 898.101 86.9L900.956 87.1573L900.313 94.2945L899.165 94.1911ZM894.483 93.7692L897.188 90.6619L898.466 90.777L895.851 93.8924L894.483 93.7692ZM904.041 94.6305L904.684 87.4933L910.614 88.0276L909.97 95.1649L908.823 95.0614L909.441 88.1937L909.956 88.9646L905.124 88.5292L905.808 87.8662L905.189 94.734L904.041 94.6305ZM915.815 95.6915L916.37 89.5325L914.663 89.3787C914.25 89.3415 913.918 89.4156 913.667 89.6009C913.416 89.7795 913.274 90.0452 913.243 90.3979C913.211 90.7506 913.302 91.0406 913.516 91.2679C913.731 91.4885 914.045 91.6174 914.458 91.6546L916.264 91.8175L916.176 92.7957L914.369 92.6329C913.877 92.5885 913.449 92.4627 913.085 92.2555C912.729 92.0422 912.462 91.7666 912.284 91.4286C912.107 91.0906 912.037 90.7119 912.075 90.2927C912.113 89.8668 912.249 89.5067 912.484 89.2125C912.719 88.9117 913.031 88.6916 913.419 88.5521C913.814 88.4066 914.258 88.3561 914.751 88.4004L917.606 88.6577L916.963 95.795L915.815 95.6915ZM911.133 95.2696L913.838 92.1624L915.116 92.2775L912.501 95.3929L911.133 95.2696ZM921.616 96.2144L920.468 96.1109L921.031 89.8621L922.179 89.9655L921.616 96.2144ZM924.456 90.2713L918.746 89.7568L918.836 88.7685L924.545 89.2831L924.456 90.2713ZM929.938 96.9643L930.581 89.827L931.729 89.9305L931.086 97.0677L929.938 96.9643ZM926.274 96.6341L925.126 96.5307L925.77 89.3934L926.918 89.4969L926.274 96.6341ZM926.462 93.4408L926.551 92.4526L930.414 92.8007L930.325 93.789L926.462 93.4408ZM932.876 97.2291L933.519 90.0918L934.667 90.1953L934.076 96.7536L933.338 96.687L938.281 90.5209L939.519 90.6325L938.876 97.7697L937.728 97.6663L938.32 91.098L939.038 91.1628L934.094 97.3388L932.876 97.2291ZM940.655 97.9301L941.299 90.7929L942.447 90.8963L941.828 97.7641L941.273 96.9896L946.075 97.4223L945.431 98.0888L946.05 91.2211L947.198 91.3245L946.555 98.4618L940.655 97.9301ZM946.119 100.173L946.364 97.4484L947.452 97.5464L947.207 100.272L946.119 100.173ZM953.735 97.3779L949.622 97.0073L949.71 96.0291L953.823 96.3997L953.735 97.3779ZM954.997 99.2226L953.78 99.1129L951.907 92.5338L952.286 92.568L949.268 98.7063L948.09 98.6001L951.558 91.7174L952.816 91.8308L954.997 99.2226Z" fill="#243353"/>
<path d="M974.583 98.6732L975.579 99.9001C975.224 100.264 974.776 100.546 974.235 100.745C973.7 100.945 973.124 101.017 972.505 100.961C971.926 100.909 971.408 100.772 970.952 100.55C970.496 100.321 970.11 100.025 969.794 99.6606C969.485 99.2973 969.257 98.8809 969.112 98.4116C968.967 97.9357 968.919 97.4248 968.968 96.8791C969.017 96.3401 969.158 95.853 969.392 95.4179C969.626 94.9761 969.931 94.6044 970.307 94.3029C970.69 94.0019 971.126 93.7829 971.614 93.6458C972.11 93.5026 972.644 93.4568 973.217 93.5084C973.836 93.5642 974.383 93.7377 974.86 94.0289C975.344 94.3207 975.728 94.6773 976.012 95.0987L974.812 96.1277C974.632 95.8163 974.39 95.5631 974.086 95.3679C973.788 95.1667 973.453 95.0493 973.081 95.0157C972.681 94.9797 972.313 95.0438 971.977 95.208C971.647 95.3662 971.377 95.6035 971.168 95.9201C970.958 96.2366 970.834 96.6112 970.795 97.0437C970.756 97.4763 970.811 97.8704 970.96 98.226C971.11 98.5749 971.332 98.86 971.628 99.0811C971.93 99.2963 972.281 99.4218 972.68 99.4578C973.053 99.4914 973.404 99.4357 973.732 99.2909C974.067 99.1467 974.351 98.9408 974.583 98.6732ZM978.286 101.322L976.569 101.167L977.212 94.0295L978.929 94.1842L978.286 101.322ZM983.547 101.796L981.311 101.594L978.37 97.5956L978.53 97.61L981.694 94.4334L983.771 94.6205L980.373 97.9271L980.4 97.6276L983.547 101.796ZM984.446 101.877L985.089 94.7393L986.806 94.8941L986.227 101.323L985.049 101.216L989.721 95.1567L991.518 95.3187L990.874 102.456L989.157 102.301L989.745 95.7828L990.943 95.8908L986.243 102.039L984.446 101.877ZM992.311 101.78L992.369 101.141L992.828 101.183C993.014 101.2 993.175 101.087 993.311 100.844C993.448 100.595 993.579 100.18 993.705 99.6015L994.569 95.5937L999.53 96.0408L998.982 102.13L997.285 101.977L997.814 96.1075L998.502 97.3972L994.629 97.0482L996.177 95.9599L995.295 99.936C995.192 100.403 995.044 100.785 994.849 101.083C994.662 101.375 994.425 101.585 994.138 101.714C993.852 101.842 993.519 101.889 993.14 101.855L992.311 101.78ZM991.833 104.293L992.119 101.119L999.945 101.824L999.659 104.999L998.062 104.855L998.292 102.299L999.117 103.199L992.838 102.633L993.644 102.061L993.43 104.437L991.833 104.293ZM1002.68 103.519L1000.96 103.365L1001.6 96.2275L1003.32 96.3822L1002.68 103.519ZM1007.94 103.994L1005.7 103.792L1002.76 99.7936L1002.92 99.808L1006.08 96.6314L1008.16 96.8185L1004.76 100.125L1004.79 99.8256L1007.94 103.994ZM1008.84 104.075L1009.48 96.9373L1011.2 97.0921L1010.62 103.521L1009.44 103.414L1014.11 97.3547L1015.91 97.5167L1015.26 104.654L1013.55 104.499L1014.13 97.9808L1015.33 98.0888L1010.63 104.237L1008.84 104.075ZM1018.65 104.154L1018.71 103.515L1019.17 103.557C1019.35 103.573 1019.51 103.46 1019.65 103.218C1019.79 102.968 1019.92 102.554 1020.04 101.975L1020.91 97.9674L1025.87 98.4145L1025.32 104.504L1023.62 104.351L1024.15 98.4811L1024.84 99.7709L1020.97 99.4219L1022.52 98.3336L1021.63 102.31C1021.53 102.777 1021.38 103.159 1021.19 103.457C1021 103.749 1020.76 103.959 1020.48 104.087C1020.19 104.216 1019.86 104.263 1019.48 104.229L1018.65 104.154ZM1018.17 106.667L1018.46 103.493L1026.28 104.198L1026 107.372L1024.4 107.228L1024.63 104.673L1025.46 105.572L1019.18 105.007L1019.98 104.435L1019.77 106.811L1018.17 106.667ZM1030.64 106.201C1030.08 106.15 1029.57 106.01 1029.11 105.781C1028.66 105.552 1028.27 105.255 1027.94 104.891C1027.63 104.527 1027.39 104.11 1027.24 103.64C1027.1 103.164 1027.05 102.657 1027.1 102.118C1027.15 101.579 1027.28 101.091 1027.51 100.655C1027.74 100.22 1028.05 99.852 1028.42 99.5504C1028.81 99.2494 1029.24 99.0271 1029.73 98.8833C1030.22 98.7396 1030.75 98.6932 1031.32 98.7442C1031.88 98.7951 1032.39 98.9351 1032.85 99.164C1033.3 99.3929 1033.69 99.6893 1034 100.053C1034.33 100.418 1034.56 100.835 1034.71 101.304C1034.86 101.774 1034.91 102.278 1034.86 102.817C1034.81 103.356 1034.67 103.847 1034.44 104.289C1034.21 104.724 1033.91 105.093 1033.52 105.394C1033.15 105.695 1032.72 105.918 1032.23 106.062C1031.74 106.205 1031.21 106.252 1030.64 106.201ZM1030.78 104.694C1031.19 104.731 1031.56 104.67 1031.88 104.511C1032.21 104.346 1032.48 104.105 1032.68 103.788C1032.89 103.465 1033.02 103.087 1033.06 102.655C1033.1 102.222 1033.04 101.831 1032.89 101.482C1032.75 101.134 1032.53 100.853 1032.23 100.638C1031.94 100.418 1031.59 100.289 1031.18 100.251C1030.77 100.215 1030.41 100.279 1030.08 100.444C1029.75 100.602 1029.48 100.839 1029.27 101.156C1029.06 101.473 1028.94 101.848 1028.9 102.28C1028.86 102.713 1028.92 103.107 1029.06 103.462C1029.21 103.811 1029.43 104.096 1029.73 104.317C1030.02 104.531 1030.37 104.657 1030.78 104.694ZM1043.27 99.9828L1043.15 101.34L1039.4 106.829L1037.56 106.663L1041.42 101.185L1037.88 100.865L1038 99.5078L1043.27 99.9828ZM1046.12 107.595C1045.49 107.539 1044.97 107.347 1044.54 107.02C1044.12 106.687 1043.82 106.234 1043.63 105.66C1043.44 105.079 1043.38 104.393 1043.45 103.601C1043.56 102.403 1043.91 101.506 1044.5 100.908C1045.09 100.311 1045.85 100.054 1046.79 100.139C1047.73 100.223 1048.43 100.612 1048.91 101.306C1049.38 101.999 1049.57 102.945 1049.46 104.143C1049.39 104.935 1049.21 105.599 1048.92 106.137C1048.63 106.668 1048.24 107.059 1047.76 107.311C1047.29 107.557 1046.74 107.652 1046.12 107.595ZM1046.24 106.218C1046.64 106.254 1046.97 106.089 1047.22 105.723C1047.48 105.35 1047.65 104.772 1047.72 103.986C1047.79 103.194 1047.73 102.595 1047.54 102.189C1047.36 101.776 1047.07 101.552 1046.67 101.516C1046.27 101.48 1045.94 101.648 1045.67 102.021C1045.42 102.387 1045.26 102.966 1045.19 103.758C1045.12 104.543 1045.17 105.142 1045.36 105.554C1045.55 105.961 1045.84 106.182 1046.24 106.218ZM1051.82 107.949L1050.18 107.8L1055.97 101.127L1057.62 101.276L1051.82 107.949ZM1055.81 108.449C1055.49 108.42 1055.2 108.316 1054.95 108.139C1054.69 107.962 1054.5 107.734 1054.37 107.454C1054.25 107.174 1054.2 106.868 1054.23 106.535C1054.26 106.209 1054.36 105.923 1054.53 105.677C1054.71 105.425 1054.94 105.234 1055.22 105.105C1055.5 104.976 1055.8 104.926 1056.13 104.955C1056.46 104.985 1056.75 105.089 1057 105.265C1057.25 105.442 1057.44 105.671 1057.57 105.951C1057.7 106.224 1057.75 106.527 1057.72 106.86C1057.69 107.186 1057.59 107.475 1057.41 107.727C1057.23 107.98 1057 108.17 1056.72 108.3C1056.45 108.429 1056.15 108.479 1055.81 108.449ZM1055.92 107.301C1056.07 107.315 1056.21 107.27 1056.32 107.167C1056.44 107.056 1056.51 106.918 1056.52 106.752C1056.54 106.585 1056.5 106.441 1056.4 106.318C1056.3 106.189 1056.18 106.117 1056.03 106.103C1055.87 106.089 1055.74 106.138 1055.62 106.248C1055.5 106.351 1055.44 106.486 1055.42 106.653C1055.41 106.819 1055.45 106.967 1055.54 107.096C1055.64 107.219 1055.76 107.287 1055.92 107.301ZM1051.67 104.12C1051.34 104.091 1051.05 103.988 1050.8 103.811C1050.55 103.634 1050.35 103.405 1050.23 103.125C1050.1 102.845 1050.05 102.539 1050.08 102.206C1050.11 101.88 1050.21 101.594 1050.39 101.348C1050.56 101.096 1050.79 100.905 1051.07 100.776C1051.35 100.647 1051.65 100.597 1051.98 100.627C1052.31 100.657 1052.6 100.76 1052.85 100.936C1053.1 101.113 1053.29 101.342 1053.42 101.622C1053.55 101.895 1053.6 102.198 1053.57 102.531C1053.54 102.857 1053.44 103.146 1053.26 103.399C1053.08 103.651 1052.85 103.842 1052.57 103.971C1052.3 104.101 1052 104.15 1051.67 104.12ZM1051.77 102.972C1051.92 102.986 1052.06 102.941 1052.17 102.838C1052.29 102.728 1052.36 102.589 1052.37 102.423C1052.39 102.257 1052.35 102.112 1052.25 101.989C1052.15 101.86 1052.03 101.788 1051.88 101.775C1051.72 101.761 1051.59 101.809 1051.47 101.919C1051.36 102.023 1051.29 102.158 1051.27 102.324C1051.26 102.49 1051.3 102.638 1051.4 102.768C1051.49 102.89 1051.62 102.959 1051.77 102.972Z" fill="#243353"/>
<path d="M1073.54 107.309C1072.75 107.238 1072.16 106.99 1071.75 106.565C1071.35 106.132 1071.18 105.564 1071.24 104.858L1071.45 102.522L1072.6 102.626L1072.4 104.832C1072.36 105.278 1072.46 105.629 1072.7 105.885C1072.95 106.135 1073.32 106.283 1073.81 106.327C1074.15 106.358 1074.48 106.337 1074.81 106.266C1075.14 106.189 1075.42 106.08 1075.65 105.94L1075.93 106.689C1075.62 106.937 1075.27 107.113 1074.85 107.216C1074.44 107.32 1074 107.351 1073.54 107.309ZM1075.17 110.053L1075.82 102.915L1076.96 103.019L1076.32 110.156L1075.17 110.053ZM1083.01 110.759L1078.1 110.317L1078.74 103.179L1083.66 103.622L1083.57 104.6L1079.8 104.261L1079.34 109.442L1083.1 109.781L1083.01 110.759ZM1083.11 107.608L1079.43 107.277L1079.52 106.298L1083.19 106.629L1083.11 107.608ZM1085.51 110.984L1084.36 110.881L1085 103.743L1087.86 104.001C1088.35 104.045 1088.77 104.174 1089.13 104.387C1089.49 104.594 1089.76 104.866 1089.93 105.204C1090.12 105.536 1090.19 105.915 1090.15 106.341C1090.11 106.76 1089.97 107.12 1089.73 107.42C1089.5 107.721 1089.19 107.944 1088.8 108.091C1088.41 108.23 1087.97 108.277 1087.48 108.233L1085.67 108.07L1085.76 107.092L1087.56 107.255C1087.97 107.291 1088.3 107.22 1088.55 107.042C1088.81 106.857 1088.95 106.588 1088.98 106.236C1089.02 105.883 1088.92 105.596 1088.7 105.375C1088.49 105.147 1088.18 105.016 1087.77 104.979L1086.06 104.825L1085.51 110.984ZM1095.82 111.913L1096.46 104.776L1097.61 104.88L1096.97 112.017L1095.82 111.913ZM1092.16 111.583L1091.01 111.48L1091.65 104.343L1092.8 104.446L1092.16 111.583ZM1092.34 108.39L1092.43 107.402L1096.29 107.75L1096.21 108.738L1092.34 108.39ZM1103.83 110.905L1099.72 110.534L1099.81 109.556L1103.92 109.926L1103.83 110.905ZM1105.1 112.749L1103.88 112.64L1102.01 106.061L1102.39 106.095L1099.37 112.233L1098.19 112.127L1101.66 105.244L1102.91 105.358L1105.1 112.749ZM1110.37 113.224L1110.92 107.065L1109.21 106.911C1108.8 106.874 1108.47 106.948 1108.22 107.134C1107.97 107.312 1107.83 107.578 1107.79 107.931C1107.76 108.283 1107.85 108.573 1108.07 108.801C1108.28 109.021 1108.6 109.15 1109.01 109.187L1110.82 109.35L1110.73 110.328L1108.92 110.166C1108.43 110.121 1108 109.995 1107.64 109.788C1107.28 109.575 1107.01 109.299 1106.83 108.961C1106.66 108.623 1106.59 108.245 1106.63 107.825C1106.66 107.399 1106.8 107.039 1107.03 106.745C1107.27 106.444 1107.58 106.224 1107.97 106.085C1108.37 105.939 1108.81 105.889 1109.3 105.933L1112.16 106.19L1111.51 113.328L1110.37 113.224ZM1105.68 112.802L1108.39 109.695L1109.67 109.81L1107.05 112.926L1105.68 112.802ZM1115.24 113.664L1115.88 106.526L1121.81 107.061L1121.17 114.198L1120.02 114.095L1120.64 107.227L1121.16 107.998L1116.32 107.562L1117.01 106.899L1116.39 113.767L1115.24 113.664ZM1127.02 114.725L1127.57 108.566L1125.86 108.412C1125.45 108.375 1125.12 108.449 1124.87 108.634C1124.62 108.813 1124.47 109.078 1124.44 109.431C1124.41 109.784 1124.5 110.074 1124.72 110.301C1124.93 110.522 1125.25 110.651 1125.66 110.688L1127.47 110.851L1127.38 111.829L1125.57 111.666C1125.08 111.622 1124.65 111.496 1124.29 111.289C1123.93 111.075 1123.66 110.8 1123.48 110.462C1123.31 110.124 1123.24 109.745 1123.28 109.326C1123.31 108.9 1123.45 108.54 1123.68 108.246C1123.92 107.945 1124.23 107.725 1124.62 107.585C1125.02 107.44 1125.46 107.389 1125.95 107.434L1128.81 107.691L1128.16 114.828L1127.02 114.725ZM1122.33 114.303L1125.04 111.196L1126.32 111.311L1123.7 114.426L1122.33 114.303ZM1132.82 115.248L1131.67 115.144L1132.23 108.895L1133.38 108.999L1132.82 115.248ZM1135.66 109.305L1129.95 108.79L1130.04 107.802L1135.75 108.316L1135.66 109.305ZM1141.14 115.997L1141.78 108.86L1142.93 108.964L1142.29 116.101L1141.14 115.997ZM1137.48 115.667L1136.33 115.564L1136.97 108.427L1138.12 108.53L1137.48 115.667ZM1137.66 112.474L1137.75 111.486L1141.61 111.834L1141.53 112.822L1137.66 112.474ZM1144.08 116.262L1144.72 109.125L1145.87 109.228L1145.28 115.787L1144.54 115.72L1149.48 109.554L1150.72 109.666L1150.08 116.803L1148.93 116.699L1149.52 110.131L1150.24 110.196L1145.29 116.372L1144.08 116.262ZM1151.86 116.963L1152.5 109.826L1153.65 109.93L1153.03 116.797L1152.47 116.023L1157.28 116.455L1156.63 117.122L1157.25 110.254L1158.4 110.358L1157.76 117.495L1151.86 116.963ZM1157.32 119.207L1157.57 116.482L1158.65 116.58L1158.41 119.305L1157.32 119.207ZM1164.94 116.411L1160.82 116.041L1160.91 115.062L1165.02 115.433L1164.94 116.411ZM1166.2 118.256L1164.98 118.146L1163.11 111.567L1163.49 111.601L1160.47 117.739L1159.29 117.633L1162.76 110.751L1164.02 110.864L1166.2 118.256Z" fill="#243353"/>
<path d="M1185.78 117.706L1186.78 118.933C1186.43 119.297 1185.98 119.579 1185.44 119.778C1184.9 119.978 1184.32 120.05 1183.71 119.994C1183.13 119.942 1182.61 119.805 1182.15 119.583C1181.7 119.354 1181.31 119.057 1180.99 118.694C1180.69 118.33 1180.46 117.914 1180.31 117.445C1180.17 116.969 1180.12 116.458 1180.17 115.912C1180.22 115.373 1180.36 114.886 1180.59 114.451C1180.83 114.009 1181.13 113.637 1181.51 113.336C1181.89 113.035 1182.33 112.816 1182.82 112.679C1183.31 112.536 1183.85 112.49 1184.42 112.541C1185.04 112.597 1185.58 112.771 1186.06 113.062C1186.54 113.354 1186.93 113.71 1187.21 114.132L1186.01 115.161C1185.83 114.849 1185.59 114.596 1185.29 114.401C1184.99 114.2 1184.65 114.082 1184.28 114.049C1183.88 114.013 1183.51 114.077 1183.18 114.241C1182.85 114.399 1182.58 114.636 1182.37 114.953C1182.16 115.27 1182.03 115.644 1182 116.077C1181.96 116.509 1182.01 116.903 1182.16 117.259C1182.31 117.608 1182.53 117.893 1182.83 118.114C1183.13 118.329 1183.48 118.455 1183.88 118.491C1184.25 118.524 1184.6 118.469 1184.93 118.324C1185.27 118.18 1185.55 117.974 1185.78 117.706ZM1189.49 120.354L1187.77 120.2L1188.41 113.062L1190.13 113.217L1189.49 120.354ZM1194.75 120.829L1192.51 120.627L1189.57 116.629L1189.73 116.643L1192.9 113.466L1194.97 113.654L1191.57 116.96L1191.6 116.661L1194.75 120.829ZM1195.65 120.91L1196.29 113.772L1198.01 113.927L1197.43 120.356L1196.25 120.249L1200.92 114.19L1202.72 114.352L1202.08 121.489L1200.36 121.334L1200.95 114.816L1202.14 114.924L1197.44 121.071L1195.65 120.91ZM1203.51 120.813L1203.57 120.174L1204.03 120.216C1204.21 120.233 1204.38 120.12 1204.51 119.877C1204.65 119.628 1204.78 119.213 1204.91 118.634L1205.77 114.627L1210.73 115.074L1210.18 121.163L1208.49 121.01L1209.01 115.14L1209.7 116.43L1205.83 116.081L1207.38 114.993L1206.5 118.969C1206.39 119.436 1206.24 119.818 1206.05 120.116C1205.86 120.408 1205.63 120.618 1205.34 120.747C1205.05 120.875 1204.72 120.922 1204.34 120.888L1203.51 120.813ZM1203.03 123.326L1203.32 120.152L1211.15 120.857L1210.86 124.032L1209.26 123.888L1209.49 121.332L1210.32 122.232L1204.04 121.666L1204.85 121.094L1204.63 123.47L1203.03 123.326ZM1213.88 122.552L1212.16 122.398L1212.8 115.26L1214.52 115.415L1213.88 122.552ZM1219.14 123.027L1216.9 122.825L1213.96 118.827L1214.12 118.841L1217.29 115.664L1219.36 115.851L1215.96 119.158L1215.99 118.859L1219.14 123.027ZM1220.04 123.108L1220.68 115.97L1222.4 116.125L1221.82 122.554L1220.64 122.447L1225.31 116.388L1227.11 116.55L1226.47 123.687L1224.75 123.532L1225.34 117.014L1226.53 117.122L1221.83 123.269L1220.04 123.108ZM1229.85 123.187L1229.91 122.548L1230.37 122.59C1230.55 122.606 1230.72 122.493 1230.85 122.251C1230.99 122.001 1231.12 121.587 1231.25 121.008L1232.11 117L1237.07 117.447L1236.52 123.537L1234.83 123.384L1235.35 117.514L1236.04 118.804L1232.17 118.455L1233.72 117.367L1232.84 121.343C1232.73 121.81 1232.58 122.192 1232.39 122.49C1232.2 122.782 1231.97 122.992 1231.68 123.12C1231.39 123.249 1231.06 123.296 1230.68 123.262L1229.85 123.187ZM1229.37 125.7L1229.66 122.526L1237.49 123.231L1237.2 126.405L1235.6 126.261L1235.83 123.706L1236.66 124.605L1230.38 124.04L1231.18 123.468L1230.97 125.844L1229.37 125.7ZM1241.84 125.234C1241.28 125.183 1240.77 125.043 1240.31 124.814C1239.86 124.585 1239.47 124.288 1239.14 123.924C1238.83 123.56 1238.59 123.143 1238.44 122.673C1238.3 122.197 1238.25 121.69 1238.3 121.151C1238.35 120.612 1238.48 120.124 1238.71 119.688C1238.94 119.253 1239.25 118.885 1239.63 118.583C1240.01 118.282 1240.44 118.06 1240.93 117.916C1241.42 117.773 1241.95 117.726 1242.52 117.777C1243.08 117.828 1243.59 117.968 1244.05 118.197C1244.5 118.426 1244.89 118.722 1245.21 119.086C1245.53 119.451 1245.76 119.868 1245.91 120.337C1246.06 120.807 1246.11 121.311 1246.06 121.85C1246.02 122.389 1245.87 122.88 1245.64 123.322C1245.41 123.757 1245.11 124.126 1244.72 124.427C1244.35 124.728 1243.92 124.951 1243.43 125.095C1242.94 125.238 1242.41 125.285 1241.84 125.234ZM1241.98 123.727C1242.39 123.764 1242.76 123.703 1243.08 123.544C1243.41 123.379 1243.68 123.138 1243.88 122.821C1244.09 122.498 1244.22 122.12 1244.26 121.688C1244.3 121.255 1244.24 120.864 1244.09 120.515C1243.95 120.167 1243.73 119.886 1243.43 119.671C1243.14 119.45 1242.79 119.322 1242.38 119.284C1241.97 119.248 1241.61 119.312 1241.28 119.477C1240.95 119.635 1240.68 119.872 1240.47 120.189C1240.26 120.506 1240.14 120.881 1240.1 121.313C1240.07 121.746 1240.12 122.14 1240.26 122.495C1240.41 122.844 1240.63 123.129 1240.93 123.35C1241.22 123.564 1241.57 123.69 1241.98 123.727ZM1254.47 119.016L1254.35 120.373L1250.6 125.862L1248.76 125.696L1252.62 120.218L1249.08 119.898L1249.2 118.541L1254.47 119.016ZM1257.32 126.628C1256.69 126.572 1256.17 126.38 1255.74 126.053C1255.32 125.72 1255.02 125.267 1254.83 124.693C1254.64 124.112 1254.58 123.426 1254.65 122.634C1254.76 121.436 1255.11 120.539 1255.7 119.941C1256.29 119.344 1257.05 119.087 1257.99 119.172C1258.93 119.256 1259.64 119.645 1260.11 120.339C1260.58 121.032 1260.77 121.978 1260.66 123.176C1260.59 123.968 1260.41 124.632 1260.12 125.17C1259.83 125.701 1259.44 126.092 1258.96 126.344C1258.49 126.59 1257.94 126.685 1257.32 126.628ZM1257.44 125.251C1257.84 125.287 1258.17 125.122 1258.42 124.756C1258.69 124.383 1258.85 123.805 1258.92 123.019C1258.99 122.227 1258.93 121.628 1258.74 121.222C1258.56 120.809 1258.27 120.585 1257.87 120.549C1257.47 120.513 1257.14 120.681 1256.88 121.054C1256.62 121.42 1256.46 121.999 1256.39 122.791C1256.32 123.576 1256.37 124.175 1256.56 124.587C1256.75 124.994 1257.04 125.215 1257.44 125.251ZM1263.02 126.982L1261.38 126.833L1267.17 120.16L1268.82 120.308L1263.02 126.982ZM1267.02 127.482C1266.69 127.453 1266.4 127.349 1266.15 127.172C1265.89 126.995 1265.7 126.767 1265.58 126.487C1265.45 126.207 1265.4 125.901 1265.43 125.568C1265.46 125.242 1265.56 124.956 1265.74 124.71C1265.91 124.458 1266.14 124.267 1266.42 124.138C1266.7 124.009 1267 123.959 1267.33 123.988C1267.66 124.018 1267.95 124.121 1268.2 124.298C1268.45 124.475 1268.64 124.704 1268.77 124.983C1268.9 125.257 1268.95 125.56 1268.92 125.893C1268.89 126.219 1268.79 126.508 1268.61 126.76C1268.43 127.013 1268.2 127.203 1267.92 127.333C1267.65 127.462 1267.35 127.512 1267.02 127.482ZM1267.12 126.334C1267.27 126.348 1267.41 126.303 1267.52 126.199C1267.64 126.089 1267.71 125.951 1267.72 125.785C1267.74 125.618 1267.7 125.474 1267.6 125.351C1267.5 125.222 1267.38 125.15 1267.23 125.136C1267.07 125.122 1266.94 125.171 1266.82 125.281C1266.7 125.384 1266.64 125.519 1266.62 125.686C1266.61 125.852 1266.65 126 1266.74 126.129C1266.84 126.252 1266.97 126.32 1267.12 126.334ZM1262.87 123.153C1262.54 123.124 1262.25 123.021 1262 122.844C1261.75 122.667 1261.56 122.438 1261.43 122.158C1261.3 121.878 1261.25 121.572 1261.28 121.239C1261.31 120.913 1261.41 120.627 1261.59 120.381C1261.76 120.129 1261.99 119.938 1262.27 119.809C1262.55 119.68 1262.86 119.63 1263.18 119.66C1263.51 119.69 1263.8 119.793 1264.05 119.969C1264.3 120.146 1264.49 120.375 1264.62 120.655C1264.75 120.928 1264.8 121.231 1264.77 121.564C1264.74 121.89 1264.64 122.179 1264.46 122.432C1264.28 122.684 1264.06 122.875 1263.78 123.004C1263.5 123.133 1263.2 123.183 1262.87 123.153ZM1262.97 122.005C1263.12 122.019 1263.26 121.974 1263.37 121.871C1263.49 121.761 1263.56 121.622 1263.57 121.456C1263.59 121.29 1263.55 121.145 1263.45 121.022C1263.36 120.893 1263.23 120.821 1263.08 120.808C1262.92 120.794 1262.79 120.842 1262.67 120.952C1262.56 121.056 1262.49 121.191 1262.48 121.357C1262.46 121.523 1262.5 121.671 1262.6 121.801C1262.69 121.923 1262.82 121.992 1262.97 122.005Z" fill="#243353"/>
</svg>
