<svg width="260" height="31" viewBox="0 0 260 31" fill="none" xmlns="http://www.w3.org/2000/svg">
<mask id="mask0_15_488" style="mask-type:alpha" maskUnits="userSpaceOnUse" x="0" y="0" width="260" height="31">
<rect width="259.759" height="31" fill="url(#paint0_linear_15_488)"/>
</mask>
<g mask="url(#mask0_15_488)">
<path d="M12.7224 27.2069H9.43858V5.28029H12.7224V27.2069ZM20.7269 5.62236H1.46837V2.74898H20.7269V5.62236ZM29.1153 27.7542C27.3365 27.7542 25.763 27.3665 24.3947 26.5912C23.0265 25.8158 21.9547 24.7554 21.1793 23.4099C20.4039 22.0417 20.0163 20.4796 20.0163 18.7236C20.0163 16.9676 20.4039 15.4169 21.1793 14.0715C21.9547 12.726 23.0265 11.6656 24.3947 10.8902C25.763 10.0921 27.3365 9.69298 29.1153 9.69298C30.8941 9.69298 32.4562 10.0921 33.8016 10.8902C35.1699 11.6656 36.2417 12.726 37.0171 14.0715C37.8153 15.4169 38.2143 16.9676 38.2143 18.7236C38.2143 20.4796 37.8153 22.0417 37.0171 23.4099C36.2417 24.7554 35.1699 25.8158 33.8016 26.5912C32.4562 27.3665 30.8941 27.7542 29.1153 27.7542ZM29.1153 25.0177C30.2555 25.0177 31.2589 24.7554 32.1255 24.2309C32.9921 23.7064 33.6648 22.9653 34.1437 22.0075C34.6226 21.0497 34.8621 19.955 34.8621 18.7236C34.8621 17.4921 34.6226 16.4089 34.1437 15.4739C33.6648 14.5161 32.9921 13.775 32.1255 13.2505C31.2589 12.7032 30.2555 12.4295 29.1153 12.4295C27.9751 12.4295 26.9603 12.7032 26.0709 13.2505C25.2043 13.775 24.5316 14.5161 24.0527 15.4739C23.5738 16.4089 23.3343 17.4921 23.3343 18.7236C23.3343 19.955 23.5738 21.0497 24.0527 22.0075C24.5316 22.9653 25.2043 23.7064 26.0709 24.2309C26.9603 24.7554 27.9751 25.0177 29.1153 25.0177ZM40.3726 27.2069V24.5388H41.6724C42.311 24.5388 42.7785 24.3791 43.0749 24.0599C43.3942 23.7406 43.588 23.1819 43.6564 22.3837L44.7169 10.2403H57.2024V27.2069H54.0211V10.8218L56.2788 12.9084H45.3326L47.7955 10.8218L46.6324 22.931C46.4956 24.5274 46.0737 25.6448 45.3668 26.2833C44.6598 26.899 43.5994 27.2069 42.1855 27.2069H40.3726ZM62.3989 27.2069V10.2403H65.5459V26.728L63.4593 24.573H70.5059C71.5549 24.573 72.3645 24.3221 72.9346 23.8204C73.5275 23.2959 73.824 22.5776 73.824 21.6654C73.824 20.776 73.5275 20.0919 72.9346 19.613C72.3645 19.1113 71.5549 18.8604 70.5059 18.8604H63.9724V16.1923H70.6427C72.5811 16.1923 74.1318 16.7054 75.2949 17.7316C76.4807 18.735 77.0736 20.0349 77.0736 21.6312C77.0736 22.7258 76.8 23.695 76.2527 24.5388C75.7054 25.3597 74.9414 26.0097 73.9608 26.4886C73.003 26.9675 71.897 27.2069 70.6427 27.2069H62.3989ZM92.0322 27.2069L82.7621 18.4157H83.1042L91.4849 10.2403H95.5555L86.4565 19.0999L85.8065 17.3211L96.3765 27.2069H92.0322ZM80.5045 27.2069V10.2403H83.6857V27.2069H80.5045ZM106.081 27.7542C104.302 27.7542 102.729 27.3665 101.36 26.5912C99.992 25.8158 98.9202 24.7554 98.1448 23.4099C97.3695 22.0417 96.9818 20.4796 96.9818 18.7236C96.9818 16.9676 97.3695 15.4169 98.1448 14.0715C98.9202 12.726 99.992 11.6656 101.36 10.8902C102.729 10.0921 104.302 9.69298 106.081 9.69298C107.86 9.69298 109.422 10.0921 110.767 10.8902C112.135 11.6656 113.207 12.726 113.983 14.0715C114.781 15.4169 115.18 16.9676 115.18 18.7236C115.18 20.4796 114.781 22.0417 113.983 23.4099C113.207 24.7554 112.135 25.8158 110.767 26.5912C109.422 27.3665 107.86 27.7542 106.081 27.7542ZM106.081 25.0177C107.221 25.0177 108.224 24.7554 109.091 24.2309C109.958 23.7064 110.63 22.9653 111.109 22.0075C111.588 21.0497 111.828 19.955 111.828 18.7236C111.828 17.4921 111.588 16.4089 111.109 15.4739C110.63 14.5161 109.958 13.775 109.091 13.2505C108.224 12.7032 107.221 12.4295 106.081 12.4295C104.941 12.4295 103.926 12.7032 103.036 13.2505C102.17 13.775 101.497 14.5161 101.018 15.4739C100.539 16.4089 100.3 17.4921 100.3 18.7236C100.3 19.955 100.539 21.0497 101.018 22.0075C101.497 22.9653 102.17 23.7064 103.036 24.2309C103.926 24.7554 104.941 25.0177 106.081 25.0177ZM138.899 22.3837L141.054 24.4362C140.233 25.4624 139.218 26.2719 138.01 26.8648C136.801 27.4578 135.433 27.7542 133.905 27.7542C132.172 27.7542 130.621 27.3665 129.253 26.5912C127.907 25.8158 126.847 24.7554 126.072 23.4099C125.296 22.0417 124.909 20.4796 124.909 18.7236C124.909 16.9904 125.296 15.4511 126.072 14.1057C126.847 12.7374 127.919 11.6656 129.287 10.8902C130.678 10.0921 132.24 9.69298 133.973 9.69298C135.478 9.69298 136.824 9.98944 138.01 10.5824C139.218 11.1753 140.233 11.9848 141.054 13.011L138.899 15.0635C138.375 14.2653 137.713 13.6268 136.915 13.1479C136.117 12.669 135.159 12.4295 134.042 12.4295C132.902 12.4295 131.887 12.7032 130.997 13.2505C130.131 13.775 129.447 14.5161 128.945 15.4739C128.466 16.4089 128.227 17.4921 128.227 18.7236C128.227 19.955 128.466 21.0497 128.945 22.0075C129.447 22.9424 130.131 23.6836 130.997 24.2309C131.887 24.7554 132.902 25.0177 134.042 25.0177C135.182 25.0177 136.14 24.7782 136.915 24.2993C137.713 23.8204 138.375 23.1819 138.899 22.3837ZM158.268 22.2127L160.252 24.2651C159.363 25.3597 158.268 26.2149 156.968 26.8306C155.691 27.4464 154.243 27.7542 152.624 27.7542C150.777 27.7542 149.135 27.3665 147.698 26.5912C146.261 25.8158 145.133 24.7554 144.312 23.4099C143.513 22.0417 143.114 20.4796 143.114 18.7236C143.114 16.9676 143.502 15.4169 144.277 14.0715C145.053 12.7032 146.125 11.6314 147.493 10.856C148.861 10.0807 150.4 9.69298 152.111 9.69298C153.775 9.69298 155.246 10.0807 156.523 10.856C157.823 11.6086 158.838 12.6576 159.568 14.003C160.32 15.3257 160.697 16.865 160.697 18.621V18.8262H157.481V18.5184C157.481 17.2869 157.253 16.2151 156.797 15.3029C156.341 14.3679 155.702 13.6496 154.882 13.1479C154.083 12.6234 153.16 12.3611 152.111 12.3611C150.993 12.3611 150.001 12.6234 149.135 13.1479C148.268 13.6724 147.595 14.4135 147.117 15.3713C146.638 16.3063 146.398 17.4123 146.398 18.6894C146.398 19.9664 146.66 21.0953 147.185 22.0759C147.732 23.0337 148.485 23.7748 149.443 24.2993C150.4 24.8238 151.495 25.0861 152.726 25.0861C154.984 25.0861 156.831 24.1283 158.268 22.2127ZM160.697 19.784H145.475V17.4237H160.149L160.697 18.621V19.784ZM164.819 27.2069V10.2403H176.86V12.9084H165.435L168 10.8902V27.2069H164.819ZM187.823 27.7542C186.045 27.7542 184.471 27.3665 183.103 26.5912C181.734 25.8158 180.663 24.7554 179.887 23.4099C179.112 22.0417 178.724 20.4796 178.724 18.7236C178.724 16.9676 179.112 15.4169 179.887 14.0715C180.663 12.726 181.734 11.6656 183.103 10.8902C184.471 10.0921 186.045 9.69298 187.823 9.69298C189.602 9.69298 191.164 10.0921 192.51 10.8902C193.878 11.6656 194.95 12.726 195.725 14.0715C196.523 15.4169 196.922 16.9676 196.922 18.7236C196.922 20.4796 196.523 22.0417 195.725 23.4099C194.95 24.7554 193.878 25.8158 192.51 26.5912C191.164 27.3665 189.602 27.7542 187.823 27.7542ZM187.823 25.0177C188.964 25.0177 189.967 24.7554 190.833 24.2309C191.7 23.7064 192.373 22.9653 192.852 22.0075C193.331 21.0497 193.57 19.955 193.57 18.7236C193.57 17.4921 193.331 16.4089 192.852 15.4739C192.373 14.5161 191.7 13.775 190.833 13.2505C189.967 12.7032 188.964 12.4295 187.823 12.4295C186.683 12.4295 185.668 12.7032 184.779 13.2505C183.912 13.775 183.24 14.5161 182.761 15.4739C182.282 16.4089 182.042 17.4921 182.042 18.7236C182.042 19.955 182.282 21.0497 182.761 22.0075C183.24 22.9653 183.912 23.7064 184.779 24.2309C185.668 24.7554 186.683 25.0177 187.823 25.0177ZM199.066 26.0439V24.573H199.682C200.161 24.573 200.526 24.4704 200.777 24.2651C201.05 24.0599 201.267 23.7178 201.427 23.2389C201.586 22.7372 201.712 22.0417 201.803 21.1523L203.034 10.2403H215.246V25.6334H212.099V10.8218L214.323 12.9084H203.547L206.079 10.8218L204.779 21.3917C204.642 22.5548 204.414 23.4784 204.095 24.1625C203.798 24.8238 203.354 25.3027 202.761 25.5992C202.168 25.8956 201.358 26.0439 200.332 26.0439H199.066ZM198.314 31.688V24.573H217.778V31.688H214.767V25.1887L216.751 27.2069H200.127L201.324 25.1887V31.688H198.314ZM234.768 27.2069V10.2403H237.949V27.2069H234.768ZM222.009 27.2069V10.2403H225.19V27.2069H222.009ZM223.548 19.613V16.979H236.547V19.613H223.548ZM254.066 27.2069V10.7192L256.084 12.8058H249.346C248.456 12.8058 247.681 13.0224 247.02 13.4557C246.358 13.8662 246.028 14.5504 246.028 15.5081C246.028 16.3747 246.324 17.0475 246.917 17.5264C247.51 18.0053 248.331 18.2447 249.38 18.2447H255.571V20.7076H249.175C247.259 20.7076 245.72 20.2401 244.557 19.3051C243.394 18.3473 242.812 17.0817 242.812 15.5081C242.812 14.5047 243.086 13.6154 243.633 12.84C244.203 12.0419 244.967 11.4147 245.925 10.9586C246.906 10.4797 248 10.2403 249.209 10.2403H257.111V27.2069H254.066ZM242.025 27.2069L248.08 19.4761H251.467L245.72 27.2069H242.025Z" fill="#F37E60"/>
</g>
<defs>
<linearGradient id="paint0_linear_15_488" x1="146.879" y1="-48" x2="89.3794" y2="99" gradientUnits="userSpaceOnUse">
<stop stop-opacity="0"/>
<stop offset="1"/>
</linearGradient>
</defs>
</svg>
