<svg width="269" height="63" viewBox="0 0 269 63" fill="none" xmlns="http://www.w3.org/2000/svg">
<mask id="mask0_15_484" style="mask-type:alpha" maskUnits="userSpaceOnUse" x="0" y="0" width="269" height="63">
<rect width="269" height="63" fill="url(#paint0_linear_15_484)"/>
</mask>
<g mask="url(#mask0_15_484)">
<path d="M2.19054 61.0078V51.8028H6.85697C8.09283 51.8028 8.92384 51.5897 9.34999 51.1636C9.81877 50.7374 10.1384 49.8638 10.3088 48.5427L14.0803 15.3024H45.9783V61.0078H34.9834V16.7087L40.2251 24.5074H16.3177L24.5638 16.7087L20.6645 48.5427C20.2809 51.5684 19.6417 53.9975 18.7468 55.83C17.8518 57.6625 16.5947 58.9836 14.9753 59.7933C13.3985 60.603 11.3316 61.0078 8.77468 61.0078H2.19054ZM96.7926 62.0306C93.426 62.0306 90.315 61.4553 87.4598 60.3047C84.6471 59.1114 82.1967 57.4494 80.1085 55.3186C78.0204 53.1452 76.401 50.6096 75.2503 47.7117C74.0997 44.7712 73.5244 41.575 73.5244 38.1231C73.5244 34.6712 74.0997 31.4964 75.2503 28.5985C76.401 25.7006 78.0204 23.1863 80.1085 21.0555C82.1967 18.8821 84.6471 17.2201 87.4598 16.0694C90.315 14.8762 93.426 14.2796 96.7926 14.2796C100.159 14.2796 103.249 14.8762 106.062 16.0694C108.917 17.2201 111.389 18.8821 113.477 21.0555C115.565 23.1863 117.184 25.7006 118.335 28.5985C119.486 31.4964 120.061 34.6712 120.061 38.1231C120.061 41.575 119.486 44.7712 118.335 47.7117C117.184 50.6096 115.565 53.1452 113.477 55.3186C111.389 57.4494 108.917 59.1114 106.062 60.3047C103.249 61.4553 100.159 62.0306 96.7926 62.0306ZM56.2011 61.0078V15.3024H67.196V61.0078H56.2011ZM62.0821 42.2782V33.0732H80.7478V42.2782H62.0821ZM96.7926 52.3781C99.1791 52.3781 101.246 51.8028 102.993 50.6522C104.74 49.4589 106.083 47.7969 107.02 45.6661C108.001 43.4927 108.491 40.9571 108.491 38.0592C108.491 35.2039 108.001 32.7322 107.02 30.644C106.083 28.5133 104.74 26.8725 102.993 25.7219C101.246 24.5287 99.1791 23.9321 96.7926 23.9321C94.4488 23.9321 92.3819 24.5287 90.592 25.7219C88.8448 26.8725 87.4811 28.5133 86.5009 30.644C85.5634 32.7748 85.0946 35.2679 85.0946 38.1231C85.0946 40.9784 85.5634 43.4927 86.5009 45.6661C87.4811 47.7969 88.8448 49.4589 90.592 50.6522C92.3819 51.8028 94.4488 52.3781 96.7926 52.3781ZM128.178 61.0078V15.3024H139.173V52.6338L138.405 51.8667H148.441C150.317 51.8667 151.787 51.3979 152.852 50.4604C153.96 49.5229 154.514 48.2231 154.514 46.5611C154.514 45.0269 153.96 43.8336 152.852 42.9813C151.787 42.129 150.317 41.7029 148.441 41.7029H133.355V32.5618H148.378C151.872 32.5618 154.898 33.1371 157.455 34.2877C160.054 35.4383 162.057 37.0577 163.464 39.1459C164.913 41.2341 165.637 43.7058 165.637 46.5611C165.637 49.4163 164.913 51.9306 163.464 54.1041C162.057 56.2775 160.054 57.9821 157.455 59.2179C154.855 60.4112 151.829 61.0078 148.378 61.0078H128.178ZM133.164 24.5713V15.3024H162.057V24.5713H133.164ZM194.944 62.0306C191.322 62.0306 187.998 61.434 184.972 60.2407C181.947 59.0475 179.304 57.3855 177.046 55.2547C174.83 53.1239 173.104 50.6096 171.868 47.7117C170.675 44.7712 170.078 41.575 170.078 38.1231C170.078 34.6712 170.675 31.4964 171.868 28.5985C173.104 25.7006 174.83 23.1863 177.046 21.0555C179.304 18.9247 181.947 17.2627 184.972 16.0694C187.998 14.8762 191.322 14.2796 194.944 14.2796C198.567 14.2796 201.891 14.8762 204.917 16.0694C207.942 17.2627 210.563 18.9247 212.779 21.0555C215.038 23.1863 216.764 25.7006 217.957 28.5985C219.193 31.4964 219.811 34.6712 219.811 38.1231C219.811 41.575 219.193 44.7712 217.957 47.7117C216.764 50.6096 215.038 53.1239 212.779 55.2547C210.563 57.3855 207.942 59.0475 204.917 60.2407C201.891 61.434 198.567 62.0306 194.944 62.0306ZM194.944 52.3781C197.587 52.3781 199.888 51.7815 201.848 50.5882C203.851 49.3524 205.407 47.6691 206.515 45.5383C207.665 43.3649 208.241 40.8932 208.241 38.1231C208.241 35.3531 207.665 32.9027 206.515 30.7719C205.407 28.6411 203.851 26.9791 201.848 25.7858C199.888 24.55 197.587 23.9321 194.944 23.9321C192.345 23.9321 190.044 24.55 188.041 25.7858C186.038 26.9791 184.461 28.6411 183.31 30.7719C182.202 32.9027 181.648 35.3531 181.648 38.1231C181.648 40.8932 182.202 43.3649 183.31 45.5383C184.461 47.6691 186.038 49.3524 188.041 50.5882C190.044 51.7815 192.345 52.3781 194.944 52.3781ZM227.934 61.0078V15.3024H238.929V56.4692H231.386L257.594 15.3024H269.101V61.0078H258.106V19.2656H265.776L239.44 61.0078H227.934ZM249.22 10.1245C245.981 10.1245 243.254 9.31484 241.038 7.69544C238.822 6.07604 237.48 3.51909 237.011 0.0245897H245.129C245.342 1.55876 245.811 2.64546 246.535 3.2847C247.26 3.92394 248.155 4.24355 249.22 4.24355C250.371 4.24355 251.287 3.92394 251.969 3.2847C252.693 2.64546 253.141 1.55876 253.311 0.0245897H261.494C261.067 3.51909 259.725 6.07604 257.466 7.69544C255.25 9.31484 252.502 10.1245 249.22 10.1245Z" fill="#F37E60"/>
</g>
<defs>
<linearGradient id="paint0_linear_15_484" x1="145.5" y1="31.5" x2="280.5" y2="31.5" gradientUnits="userSpaceOnUse">
<stop stop-color="white"/>
<stop offset="1" stop-color="white" stop-opacity="0"/>
</linearGradient>
</defs>
</svg>
