<svg width="77" height="79" viewBox="0 0 77 79" fill="none" xmlns="http://www.w3.org/2000/svg">
<g clip-path="url(#clip0_121_3346)">
<path d="M30.5019 21.4384C17.7724 13.0034 0.637009 16.4541 -7.7723 29.1447C-16.1809 41.8342 -12.6801 58.9597 0.0494062 67.3948C12.7786 75.8297 29.915 72.3793 38.3237 59.6897C46.7329 46.9987 43.2309 29.8732 30.5019 21.4384Z" fill="#7FCBB4"/>
<path d="M63.2624 -1.96031C54.9483 -7.46958 43.7162 -5.15719 38.1739 3.20669C32.6331 11.5684 34.881 22.8136 43.1954 28.323C51.5098 33.8325 62.7419 31.5201 68.2829 23.1581C73.8251 14.7942 71.5768 3.54913 63.2624 -1.96031Z" fill="#68CCEA"/>
<path d="M14.4182 -0.579354C17.2536 -4.8583 23.0808 -5.98889 27.4335 -3.10461C31.7862 -0.220319 33.0162 5.58663 30.1808 9.86557C27.3454 14.1445 21.5183 15.2751 17.1656 12.3908C12.8129 9.50653 11.5828 3.69959 14.4182 -0.579354Z" fill="#F2C45B"/>
</g>
<defs>
<clipPath id="clip0_121_3346">
<rect width="77" height="79" fill="white"/>
</clipPath>
</defs>
</svg>
