<svg width="66" height="60" viewBox="0 0 66 60" fill="none" xmlns="http://www.w3.org/2000/svg">
<circle cx="33" cy="30" r="5" fill="white"/>
<circle cx="32.4961" cy="10.5" r="8.5" fill="white"/>
<path d="M59.4961 13.9998C45.4961 13.9998 39.9961 18.9998 32.9961 18.9998L46.9961 0C57.8294 4.83326 75.5011 13.9998 59.4961 13.9998Z" fill="white"/>
<path d="M6.41016 13.9998C20.4102 13.9998 25.9102 18.9998 32.9102 18.9998L18.9102 0C8.07682 4.83326 -9.59484 13.9998 6.41016 13.9998Z" fill="white"/>
<circle cx="8.5" cy="8.5" r="8.5" transform="matrix(1 0 0 -1 24.0039 58)" fill="white"/>
<path d="M59.5039 46.0002C45.5039 46.0002 40.0039 41.0002 33.0039 41.0002L47.0039 60C57.8372 55.1667 75.5089 46.0002 59.5039 46.0002Z" fill="white"/>
<path d="M6.42188 46.0002C20.4219 46.0002 25.9219 41.0002 32.9219 41.0002L18.9219 60C8.08854 55.1667 -9.58312 46.0002 6.42188 46.0002Z" fill="white"/>
</svg>
