<svg width="313" height="195" fill="none" xmlns="http://www.w3.org/2000/svg"><g clip-path="url(#a)"><path d="M289.5 198.5V217l-6.5 3.5-9.5-.5-4-8-8-18.5-2-7.5-23-8v-45.5l-1-34L237 97l18.5-5 23.5 37 15 19.5 7.5 26.5-12 23.5Z" fill="#fff"/><path d="M213.129 26.968c.689-.712 1.375-1.421 1.944-2.235 2.088-2.987 3.492-6.338 7.739-6.405 1.439-.022 2.825.152 4.25-.154 1.576-.338 3.102-1.042 4.632-1.547 2.759-.911 6.022-.835 8.715.265 3.23 1.318 5.654 3.938 9.026 5.03 3.582 1.16 7.321.813 10.22 3.612 4.401 4.25 1.858 8.297 4.31 12.376 1.935 3.22 5.999 3.645 7.384 7.53.868 3.519-1.085 6.54-1.208 9.977-.077 2.146.787 4.267 1.319 6.314 1.203 4.621.248 10.101-2.199 14.17-.296.493-.599 1.045-1.116 1.326l-.247-.089c.007-.53 1.932-3.818 2.32-4.895.783-2.175 1.129-4.385 1.182-6.691-1.775 5.759-4.624 10.329-10.112 13.247-1.576.838-4.217 2.031-6.019 1.9-.173-.352-.061-.665-.017-1.048-.466-.145-4.418 1.193-5.37 1.338-.256.04-.511.085-.768.122.379-5.757-.101-10.451 2.289-15.877a9.12 9.12 0 0 0 1.538.547c1.423.346 3.001-.038 4.224-.806 2.191-1.375 3.678-4.042 4.207-6.536.367-1.727.33-3.664-.707-5.165-.594-.862-1.457-1.45-2.502-1.599-2.081-.293-3.895 1.054-5.444 2.246l-.546-1.67c-1.385-.199-2.801-.21-4.195-.351l1.727-.094.154-.236c.717-.041 1.465.03 2.184.056-.172-.515-.354-1.024-.597-1.51-2.494-4.977-7.909-5.467-12.561-7.092-4.045-1.413-5.326-3.563-6.248-7.595-.247-1.078-.427-2.228-.929-3.223-.401-.795-.977-1.497-1.859-1.759-.844-.25-7.286-.12-7.998.341-1.688 1.092-1.241 3.859-1.612 5.55-.821 3.743-5.632 5.381-6.418 8.306l.035.38c-.286.294-.633.612-.838.968-.731 1.268-1.42 5.099-1.401 6.544.009.38.033.758.072 1.135l-.351.543c-.362.976-.353 2.16-.384 3.196-.118 3.948.236 7.511 1.901 11.15 2.426 5.3 7.242 10.365 12.799 12.37 3.696 1.333 7.493 1.336 11.057-.384 1.755-.846 3.351-2.058 4.969-3.138-1.709 2.76-7.97 6.626-10.939 7.91-1.499.647-3.2.94-4.627 1.697a6.869 6.869 0 0 1-.142-1.38l.017-2.23c-1.424-.06-2.83-.437-4.253-.558-3.189-.27-7.718.486-10.461-1.479-1.33-.953-1.789-2.447-2.053-3.992.641.457 1.097.983 1.839 1.293-.026-.076-.048-.153-.079-.227l-.13.123-.018-.275c-.515-.45-.991-.823-1.599-1.14-1.517-1.886-3.534-3.044-5.234-4.65l-1-1.5-.5-2c-.5-1.5-.518-1.628-1.042-2.897-2.949-7.147-1.517-10.907 1.292-17.654.753-1.406 1.41-2.838 2.057-4.294a33.527 33.527 0 0 1-.389-5.133c-.004-7.16 4.407-7.79 8.71-12.054Zm-7.738 11.462c-.166 1.382-.417 2.935-.208 4.323l.073-.005c.405-1.133.586-3.05.234-4.215l-.099-.103Zm3.954 8.2c.729.523 2.385.5 3.288.56-.864-.67-2.227-.606-3.288-.56Z" fill="#493027"/><path d="M213.824 44.644c.786-2.924 5.598-4.563 6.418-8.305.371-1.692-.075-4.459 1.612-5.55.712-.46 7.155-.592 7.998-.342.882.262 1.459.964 1.86 1.76.501.995.681 2.144.928 3.222.923 4.032 2.203 6.182 6.248 7.595 4.653 1.625 10.067 2.115 12.561 7.092.244.486.425.996.597 1.51-.719-.025-1.466-.097-2.183-.055l-3.053-.188c-.626-1.895-1.508-3.309-3.187-4.467-2.056-1.42-4.69-2.04-7.149-1.536-2.654.545-4.25 2.13-5.69 4.293-1.742-.56-3.64-.806-5.434-1.184a10.73 10.73 0 0 0-.734-1.472c-1.076-1.78-3.033-3.117-5.057-3.554-2.111-.456-3.964-.003-5.735 1.181Z" fill="#E9B49C"/><path d="M213.819 44.644c1.77-1.184 3.624-1.638 5.735-1.181 2.024.437 3.98 1.773 5.056 3.554.281.464.53.97.735 1.471 1.793.378 3.692.625 5.434 1.184 1.44-2.162 3.036-3.748 5.69-4.292 2.458-.505 5.092.115 7.149 1.535 1.678 1.159 2.561 2.572 3.187 4.467l3.052.188-.154.236-1.727.094c-.468.022-.726-.078-1.062.276-.049 2.528-.611 4.59-2.478 6.431-1.858 1.834-4.457 2.809-7.056 2.765-2.218-.038-4.417-.848-5.948-2.493-1.287-1.384-2.039-3.336-1.953-5.23.058-1.302.477-2.51 1.015-3.684-1.654-.331-3.371-.548-4.99-1.012.737 2.673.896 4.973-.525 7.492-.606 1.076-2.095 2.713-1.619 4.028.163.452.557.808 1.01.955 1.008.326 2.09.409 3.111.732-.23.243-1.11.238-1.47.238-.879 0-1.776-.208-2.405-.86a2.968 2.968 0 0 1-.826-2.273c.015-.22.048-.434.08-.651-2.288 1.016-4.394 1.52-6.842.6a7.668 7.668 0 0 1-4.386-4.24 18.951 18.951 0 0 1-.296-.76l.351-.543c.33 1.352.944 2.56 1.965 3.525 1.441 1.36 3.77 2.18 5.746 2.053 1.816-.117 3.462-.82 4.636-2.228.465-.559 1.192-1.381 1.121-2.139-.423.242-.57.583-.823.986.094-.863.884-1.9 1.147-2.78.521-1.744-.162-4.124-1.065-5.662a7.433 7.433 0 0 0-4.619-3.46c-2.21-.568-4.041-.066-5.941 1.058l-.035-.38Zm22.798 1.13c-2.33.581-4.148 1.74-5.424 3.83-1.092 1.793-1.59 3.975-1.056 6.034.488 1.885 1.794 3.438 3.501 4.35 1.776.951 3.891 1.101 5.85.748 2.496-.73 4.684-1.878 6.017-4.236.934-1.653 1.218-3.678.673-5.507-.568-1.906-1.935-3.331-3.681-4.23-1.893-.975-3.778-1.2-5.88-.988Z" fill="#110A09"/><path d="M213.853 45.024c1.899-1.124 3.731-1.626 5.94-1.057a7.43 7.43 0 0 1 4.619 3.459c.904 1.538 1.587 3.918 1.065 5.662-.263.88-1.053 1.917-1.146 2.78.253-.403.399-.744.822-.986.071.758-.656 1.58-1.121 2.139-1.173 1.409-2.82 2.11-4.635 2.228-1.977.128-4.306-.693-5.747-2.053-1.021-.964-1.635-2.173-1.965-3.525a13.888 13.888 0 0 1-.071-1.135c-.019-1.445.67-5.276 1.4-6.544.205-.356.553-.674.839-.968Zm5.089 5.193c-.723.757-1.245 1.522-1.234 2.611.006.531.211 1.065.61 1.425.619.56 1.345.513 2.113.419.705-.646 1.09-1.242 1.122-2.224.021-.64-.157-1.28-.621-1.74-.462-.457-1.042-.588-1.673-.534-.106.009-.211.029-.317.043ZM239.487 60.736c-1.96.353-4.075.203-5.851-.747-1.707-.914-3.013-2.466-3.501-4.35-.534-2.06-.036-4.242 1.056-6.035 1.276-2.09 3.094-3.25 5.424-3.83 2.102-.211 3.988.014 5.88.988 1.746.9 3.114 2.325 3.681 4.231.545 1.828.261 3.854-.673 5.507-1.333 2.358-3.521 3.507-6.016 4.236Zm-1.526-9.403c-.767.438-1.132.772-1.369 1.64-.2.727-.136 1.45.267 2.096.244.39.576.698 1.037.808.302.072.639.061.947.062.682-.53 1.089-.993 1.226-1.871.101-.652-.037-1.315-.444-1.84-.448-.58-.961-.787-1.664-.895Z" fill="#E9B49C"/><path d="M212.627 47.19c-.903-.06-2.559-.036-3.288-.56 1.061-.046 2.424-.11 3.288.56Z" fill="#110A09"/><path d="M230.494 49.966c-.538 1.173-.957 2.382-1.016 3.682-.085 1.895.667 3.847 1.954 5.23 1.531 1.647 3.73 2.456 5.948 2.494 2.599.044 5.198-.931 7.056-2.765 1.866-1.84 2.429-3.903 2.478-6.431.336-.354.594-.254 1.062-.276 1.394.14 2.81.152 4.195.352l.546 1.67c1.549-1.193 3.363-2.54 5.444-2.246 1.045.148 1.908.736 2.502 1.598 1.037 1.502 1.074 3.438.707 5.165-.529 2.495-2.016 5.161-4.207 6.537-1.223.767-2.801 1.15-4.224.805a9.12 9.12 0 0 1-1.538-.547c-2.39 5.426-1.91 10.12-2.289 15.877-.258 2.07-.114 4.31-.109 6.401a172.336 172.336 0 0 0-12.671 10.402c-2.321-2.683-5.09-5.15-7.646-7.625-.88-.853-2.219-1.832-2.859-2.858.087-.588.1-1.201.143-1.795.009.481.04.909.142 1.38 1.427-.758 3.128-1.05 4.627-1.699 2.969-1.282 9.23-5.149 10.939-7.908-1.618 1.08-3.214 2.291-4.969 3.137-3.564 1.72-7.361 1.717-11.057.384-5.557-2.004-10.373-7.07-12.799-12.37-1.665-3.639-2.019-7.202-1.901-11.15.031-1.035.022-2.22.384-3.196.093.255.192.51.296.76a7.668 7.668 0 0 0 4.386 4.24c2.447.92 4.554.416 6.842-.6a7.934 7.934 0 0 0-.08.651c-.06.84.241 1.667.826 2.273.629.653 1.526.86 2.405.86.36 0 1.24.005 1.47-.238-1.021-.323-2.103-.405-3.111-.731a1.612 1.612 0 0 1-1.011-.956c-.475-1.315 1.014-2.952 1.62-4.027 1.421-2.52 1.261-4.82.525-7.493 1.619.464 3.336.68 4.99 1.013Zm24.186 8.44.093.347c1.032.231 2.348.203 3.409.196-.055-.217-.019-.363-.24-.468-.839-.392-2.352-.137-3.262-.076Zm-20.95 8.196c-1.958 1.373-3.83 2.492-6.335 2.007-1.027-.2-3.478-1.762-3.484-1.763-.068-.003-.124.057-.186.086l.059.257c1.67 1.353 3.404 2.199 5.621 1.936 1.328-.158 3.452-.975 4.323-2.033.105-.128.111-.186.154-.326l-.152-.164Z" fill="#E9B49C"/><path d="M220.438 54.672c-.768.094-1.494.14-2.113-.419-.399-.36-.604-.894-.609-1.425-.012-1.09.51-1.854 1.233-2.611.106-.014.211-.034.317-.044.631-.053 1.211.077 1.673.534.464.46.642 1.1.621 1.74-.032.982-.417 1.579-1.122 2.225ZM238.842 55.94c-.309-.001-.645.01-.947-.063-.461-.11-.793-.418-1.037-.808-.404-.647-.467-1.368-.268-2.095.238-.87.603-1.203 1.37-1.64.703.107 1.215.314 1.664.894.407.525.545 1.188.443 1.84-.136.878-.543 1.341-1.225 1.871Z" fill="#493027"/><path d="M258.178 58.948c-1.062.007-2.378.036-3.409-.196l-.093-.347c.909-.062 2.422-.317 3.261.076.222.104.186.25.241.467ZM223.789 67.19l-.059-.258c.062-.029.117-.09.185-.086.007 0 2.458 1.564 3.485 1.763 2.505.485 4.377-.634 6.334-2.007l.153.164c-.043.14-.049.198-.154.326-.871 1.058-2.996 1.875-4.323 2.033-2.217.263-3.952-.583-5.621-1.936Z" fill="#110A09"/><path d="M209.225 77.151c.608.317 1.084.69 1.599 1.14l.018.274.13-.123c.031.074.053.151.079.227-.742-.31-1.198-.836-1.839-1.293l.013-.225Z" fill="#895F4D"/><path d="M127.621 85.18c-.205 1.184.187 2.352.695 3.945l9.484 13.823c.228.066.324 0-.206.361-1.338-.843-2.678-2.396-3.494-2.828l-1.555-1.435c-1.528-1.031-4.336-4.884-4.924-6.18-.105-.232-.099-.234-.154-.442-.649-.923-1.388-2.257-2.617-2.426-.482-.066-.851.062-1.224.38-.486.415-.637 1.213-.625 1.817.026 1.37.763 2.582 1.437 3.73.65 1 1.06 1.053 1.645 2.09l.617.923c.163.31.767.822.617.936.451.487.913 1.198 1.283 1.573 1.441 1.465 4.023 3.867 5.908 4.641.526-.709 1.01-1.433 1.748-1.94l.058.098c-.479.749-1.226 1.487-1.567 2.286-.25.156-.331.153-.616.172-2.858-1.026-5.3-4.131-7.268-6.343-.78-.496-1.164-.494-1.499 0-.231.339-.062.74 0 1.132.599 3.782 5.93 12.375 8.36 15.082 1.307 1.457 2.98 2.735 4.605 3.815a45.6 45.6 0 0 0 3.053 1.873c.511 1.932.877 3.959 1.462 5.861.403 1.703.817 3.403 1.241 5.101 5.065-2.466 10.87-4.671 15.738-7.357-1.865-4.339-4.476-10.878-4.186-15.536l-.082-.447c-.297-1.093-.143-2.595-.155-3.744v-.368c0-.184-.036-.505-.043-.757-.017-.649.015-.541.026-.866.07-2.129.358-2.917.818-4.997.448-1.33 1.089-3.633.558-4.998a1.552 1.552 0 0 0-.898-.926c-.512-.216-1.239-.053-1.725.16-2.184.955-3.376 3.633-4.26 5.694-.518 1.697-.97 3.4-1.401 5.121.252 1.055-.553 1.801-1.216 2.514-1.539 1.653-3.544 3.623-4.033 5.93-.222 1.049-.178 2.102-.476 3.146l-.151.031c-.244-.536-.099-1.436-.026-2.021.65-5.189 4.784-6.345 5.676-9.36.014-.047.025-.095.038-.142-1.219-1.165-2.023-3.655-2.704-5.231-.583-1.942-1.707-3.843-2.531-5.712-1.306-2.958-2.45-6.072-3.964-8.928-.341-.644-.794-1.558-1.418-1.952-.445-.28-1.104-.292-1.605-.186-.626.133-.949.432-1.292.94-.268 3.23 3.271 9.679 4.26 13.548.211.827.504 1.384.617 1.85.152.63.572 1.527.616 1.85.045.324 0 .617-.616.617l-1.234-2.467c-1.202-2.302-2.684-4.176-3.861-6.493-1.059-2.127-1.999-5.056-3.577-6.795a55.757 55.757 0 0 0-.845-.727c-.527-.443-1.117-.582-1.797-.513-.349.243-.641.649-.715 1.078Z" fill="#E9B49C"/><path d="M219.999 90.768c-.136-.434-.326-.825-.156-1.273 1.079-1.11 2.899-1.908 4.375-2.34.681-.198 1.011-.066 1.611.276.64 1.026 1.978 2.005 2.859 2.857 2.556 2.476 5.325 4.943 7.646 7.626l-.075.191c-3.778 3.598-6.861 8.235-10.133 12.303-2.459-6.351-4.085-13.136-6.127-19.64ZM249.002 87.5h1c.5 0 2 1 2 1 2.216 1.005 2.762 2.074 5.057 2.767-2.072 3.524-4.009 7.123-6.059 10.66-1.651 2.847-3.515 5.707-4.959 8.657-1.135-1.225-2.11-2.677-3.113-4.015-2.106-2.749-4.489-6.198-6.426-9.069 2.985-2.739 9.07-8.52 12.5-10Z" fill="#E58967"/><path d="m219.649 91.36.344-.593c2.042 6.505 3.668 13.29 6.127 19.641 3.272-4.068 6.355-8.705 10.133-12.303l.194.382c-3.82 3.955-7.046 8.656-10.537 12.915-2.455-6.493-4.29-13.383-6.261-20.043ZM257.059 91.267l.329.097c-1.355 3.295-3.444 6.5-5.222 9.593-1.961 3.411-3.853 6.969-6.027 10.245l-.26.083-.174-.226c.192-.17.231-.249.336-.475 1.444-2.95 3.307-5.811 4.958-8.657 2.051-3.537 3.988-7.136 6.06-10.66Z" fill="#FEFEFE"/><path d="M257.39 91.364c2.109.263 6.988 2.706 9.106 3.674 12.181 5.567 23.753 11.391 32.136 22.228 5.492 7.1 8.417 17.278 10.609 25.888.88 4.975 2.015 9.904 2.943 14.87a248.457 248.457 0 0 1 2.638 18.819c.342 3.654.754 7.646.123 11.277-.386 2.215-1.326 4.21-2.617 6.04-6.947 9.842-23.794 17.727-34.751 22.35a941.166 941.166 0 0 1-9.037-15.362c-1.389-2.403-2.886-4.762-4.127-7.245 3.036-2.046 6.228-3.847 9.34-5.774 3.802-2.355 7.516-4.808 11.421-6.999 3.902-2.188 8.077-4.113 11.854-6.5.369-.233.638-.392.799-.809l-.199-.195c-1.075.242-2.522 1.467-3.536 2.039-3.152 1.778-6.37 3.684-9.657 5.195-1.075-5.177-1.683-10.476-2.436-15.708-1.148-7.975-2.321-15.923-2.692-23.982-.045-.965.215-7.778.191-7.838-.036-.092-.135-.144-.202-.216-.859.968-.595 8.024-.507 9.542.39 6.645 1.338 13.242 2.283 19.825l2.754 18.741a1054.666 1054.666 0 0 1-20.231 12.363c4.197 8.085 9.379 15.651 13.723 23.653 4.115-1.699 8.227-3.508 12.172-5.574-.169 5.363.235 10.762.534 16.116l18.676-.018c2.959-.005 6.258-.307 9.164.059-6.807.356-14.178.065-21.053.06h-40.967l.06-.182c.474-1.31.161-4.189.147-5.661 3.908.176 7.614.343 11.216-1.448.678-6.107-1.767-15.081-5.16-20.129-1.998-.307-4.191.025-6.126-.455.05-8.168.052-16.335.009-24.503-.674-1.144-1.244-1.873-2.39-2.606-1.951-.104-15.128.262-15.843-.25.416-2.275.134-4.994.119-7.326l-.059-13.761c.078-17.009.066-34.018-.036-51.027 1.569 2.171 3.198 4.303 4.794 6.454 1.009 1.359 1.969 2.841 3.132 4.07l.174.226.26-.083c2.174-3.276 4.066-6.834 6.027-10.245 1.778-3.092 3.867-6.298 5.222-9.593Zm-7.529 41.793c.125.116.226.263.374.347.608.341 18.143.253 20.2.168a7.2 7.2 0 0 0 .624-.061l-.25-.421c-1.402-.356-19.13-.312-20.948-.033ZM202.633 99.697a104.695 104.695 0 0 1 17.012-8.338c1.971 6.66 3.806 13.55 6.261 20.043 3.491-4.259 6.717-8.96 10.537-12.915.556.824.598 1.578.663 2.548.228 3.412.143 6.865.148 10.283l.006 15.855c-.075 15.231-.062 30.461.041 45.691a2600.527 2600.527 0 0 0-46.654-.029c.789-3.343 3.01-38.691 2.474-39.849l-.07.058c-.67 2.559-.557 5.302-.69 7.932l-.622 12.103c-.351 6.595-1.071 13.17-1.386 19.765l-5.419.006c-.074-1.946-.116-3.864-.029-5.811a50.218 50.218 0 0 1-.88-1.693c-2.712-5.406-5.077-10.988-7.608-16.481-1.715-3.722-3.832-7.564-5.136-11.431-.155-.462-.117-.723.035-1.179.762-.702 3.459-6.637 4.276-8.038 7.902-13.075 14.324-19.977 27.041-28.52Zm30.872 21.398c-.603.652-.948 1.175-.939 2.089.005.563.19 1.006.615 1.389.449.405 1.007.379 1.57.334.585-.537.98-1.01.989-1.84a1.88 1.88 0 0 0-.612-1.423c-.498-.455-.967-.516-1.623-.549Zm.009 26.212c-.632.542-1.073 1.06-1.15 1.922a1.75 1.75 0 0 0 .463 1.383c.422.472 1.033.554 1.632.566.588-.413.998-.769 1.149-1.5.111-.54.027-1.081-.292-1.535-.307-.437-.749-.692-1.269-.792-.194-.038-.342-.037-.533-.044Z" fill="#E58967"/><path d="M134.507 106.088c.526-.709 1.01-1.433 1.747-1.94l.058.098c-.479.749-1.225 1.487-1.566 2.286l-.239-.444Z" fill="#E99E87"/><path d="m148.287 104.302.188-.097c.252 1.054-.553 1.8-1.216 2.513-1.539 1.654-3.545 3.624-4.033 5.93-.222 1.049-.179 2.102-.476 3.146l-.152.031c-.244-.535-.098-1.435-.025-2.02.649-5.19 4.784-6.345 5.676-9.361.014-.047.025-.094.038-.142Z" fill="#C79076"/><path d="M234.76 124.907c-.564.046-1.121.071-1.571-.334-.425-.383-.609-.826-.615-1.389-.008-.914.337-1.437.939-2.088.656.033 1.125.094 1.623.548.4.364.623.883.612 1.423-.009.83-.403 1.304-.988 1.84Zm-1.158-3.21c-.266.593-.561 1.253-.329 1.911.117.332.364.585.693.703.187.066.381.111.575.145.39-.516.71-.958.598-1.646a1.28 1.28 0 0 0-.66-.913c-.275-.149-.574-.167-.877-.2Z" fill="#FEFEFE"/><path d="M234.544 124.457a3.655 3.655 0 0 1-.574-.145 1.133 1.133 0 0 1-.694-.704c-.231-.657.064-1.317.329-1.911.303.034.603.051.877.2.347.189.596.522.66.913.112.689-.208 1.13-.598 1.647ZM159.825 125.869c.614-.41 1.221-.745 1.891-1.055.572 1.073.996 2.198 1.525 3.288a166.32 166.32 0 0 0 2.617 6.298c1.03-.299 2.051-.585 3.103-.801.515.846.968 1.705 1.409 2.592-3.181 1.953-6.906 3.456-10.292 5.029-6 2.789-12.023 5.601-18.173 8.046-.776-1.162-1.796-5.672-2.271-7.304 1.365-.629 2.788-1.081 4.222-1.521-.685-2.091-1.471-4.123-2.308-6.157l2.539-1.059c5.064-2.466 10.869-4.67 15.738-7.356Z" fill="#E58967"/><path d="m171.322 136.256-.956-.065c-3.181 1.953-6.906 3.456-10.293 5.029-6 2.789-12.022 5.601-18.173 8.045l-.095.185.061.245c3.223-1.067 6.318-2.512 9.408-3.91a892.887 892.887 0 0 0 12.871-5.97c2.038-.961 4.096-2.109 6.186-2.93l10.079 22.036c1.081 2.368 3.179 5.893 3.834 8.271.486 1.763.04 3.806.401 5.655-1.459-.023-4.064-.39-5.349.298-.325.527-.431.999-.494 1.614-.2 1.943-.052 25.524-.033 27.482l-.069 25.639 50.002-.032c9.037.013 18.105.197 27.138.035l.06-.182-.021-5.718c-2.956-.219-5.935-.726-8.823-1.39-3.857-.885-8.264-2.241-10.472-5.778-.76-.255-1.219-.367-1.639-1.091-.043-.187-.002-.112-.219-.28-.281-.216-.547-.406-.814-.644-.554-.496-1.402-1.18-1.373-1.99.029-.806.809-1.421 1.393-1.88l.035-.028-.052-.025c-.671-.32-1.421-.678-1.856-1.3-.296-.422-.356-.901-.237-1.395.526-2.199 1.923-1.045 3.18-1.846-.401-.557-1.003-1.345-.973-2.066.021-.485.166-.813.528-1.14.589-.532 1.866-.734 2.641-.837 3.117-.414 6.421-.28 9.562-.318 3.038-.038 6.192-.222 9.217.032.049-8.167.052-16.334.008-24.502-.673-1.145-1.243-1.873-2.39-2.606-1.95-.104-15.127.262-15.843-.25l-.445.215a2609.88 2609.88 0 0 0-46.654-.029c.789-3.343 3.011-38.69 2.474-39.849l-.069.058c-.67 2.56-.558 5.302-.69 7.932l-.622 12.104c-.351 6.594-1.072 13.169-1.387 19.765l-5.418.006c-.074-1.947-.116-3.864-.03-5.811a50.266 50.266 0 0 1-.879-1.693c-2.712-5.407-5.078-10.989-7.609-16.481-1.714-3.722-3.832-7.564-5.135-11.432-.156-.461-.117-.722.034-1.178Z" fill="#fff"/><path d="M151.277 145.785c-3.09 1.398-6.185 2.843-9.408 3.91l4.407 12.909c.129.362.302.743.378 1.118.381.341.399.725.481 1.202.193.472.324.361.29.879l.18.324.204.423c2.457 6.703 6.15 17.265 10.162 22.957 1.854.848 3.936 2.17 5.546 2.519 1.61.349 4.966.227 4.966.227 3.525.053 6.929-.13 10.427-.564l-.13-10.953c-.019-1.958-.175-4.034.025-5.977.063-.615.169-1.087.493-1.614 1.286-.688 3.891-.321 5.35-.298-.361-1.849.085-3.892-.401-5.655-.655-2.378-2.753-5.903-3.834-8.271l-10.079-22.036c-2.09.821-4.148 1.969-6.186 2.93a892.887 892.887 0 0 1-12.871 5.97Z" fill="#E58967"/><path d="M234.463 151.178c-.599-.012-1.21-.093-1.632-.565-.357-.4-.51-.854-.463-1.383.077-.862.518-1.38 1.15-1.922.192.006.339.005.533.043.52.101.962.356 1.269.792.319.454.404.996.292 1.535-.151.731-.561 1.088-1.149 1.5Zm-.638-3.452c-.439.465-.886.965-.873 1.649.009.413.224.763.542 1.012.208.163.433.265.675.364.515-.441.863-.786.86-1.519a1.446 1.446 0 0 0-.559-1.149 2.075 2.075 0 0 0-.645-.357Z" fill="#FEFEFE"/><path d="M234.171 150.751a2.823 2.823 0 0 1-.675-.364c-.318-.249-.533-.599-.541-1.012-.014-.684.433-1.185.873-1.649.257.092.426.186.645.357.358.28.557.694.558 1.149.003.733-.344 1.077-.86 1.519Z" fill="#F37E60"/><path d="m266.384 143.699.711.166 2.306 6.625a.306.306 0 0 1-.32.404l-3.232-.339a.31.31 0 0 0-.245.086l-2.324 2.272a.305.305 0 0 1-.501-.118l-2.321-6.668.336-.492 5.59-1.936Z" fill="#E66973"/><path d="m260.458 146.127-.469-1.347 6.638-2.258.467 1.344a12.18 12.18 0 0 1-6.636 2.261Z" fill="#CF565F"/><path d="m253.604 143.699-.711.166-2.305 6.625a.305.305 0 0 0 .319.404l3.233-.339a.299.299 0 0 1 .244.086l2.324 2.272c.16.156.428.093.501-.118l2.321-6.668-.336-.492-5.59-1.936Z" fill="#E66973"/><path d="m259.53 146.127.469-1.347-6.638-2.258-.467 1.344a12.18 12.18 0 0 0 6.636 2.261Z" fill="#CF565F"/><path d="M259.999 144.012c-10.876 0-10.885-10.489-10.876-10.671.286-5.759 5.046-10.341 10.876-10.341 5.83 0 10.591 4.582 10.876 10.341.009.182.014 10.671-10.876 10.671Z" fill="#F2C45B"/><path d="M259.999 143.682c-5.83 0-10.59-4.582-10.876-10.341-.009.183-.014.366-.014.549 0 6.014 4.876 10.89 10.89 10.89s10.89-4.876 10.89-10.89c0-.184-.005-.367-.014-.549-.286 5.759-5.046 10.341-10.876 10.341Z" fill="#FAC967"/><path d="M259.999 141.752c-8.561 0-8.573-8.23-8.561-8.411a8.58 8.58 0 0 1 17.123 0c.011.181.017 8.411-8.562 8.411Z" fill="#EEAB6D"/><path d="M259.999 141.371a8.58 8.58 0 0 1-8.561-8.03 8.58 8.58 0 1 0 17.122 0 8.579 8.579 0 0 1-8.561 8.03Z" fill="#E59F55"/><path d="m260.784 129.711.8 1.621a.876.876 0 0 0 .66.479l1.789.26a.876.876 0 0 1 .485 1.494l-1.294 1.262a.872.872 0 0 0-.252.775l.305 1.782c.03.169-.046.469-.046.469h-1.224l-2.008-1.129-2.008 1.129-1.214.024s-.087-.314-.056-.493l.305-1.782a.875.875 0 0 0-.252-.775l-1.294-1.262a.876.876 0 0 1 .485-1.494l1.789-.26a.875.875 0 0 0 .66-.479l.8-1.621a.875.875 0 0 1 1.57 0Z" fill="#FFF5F5"/><path d="m259.857 136.229-3.089 1.624a.876.876 0 0 0 1.223.454l1.601-.841a.873.873 0 0 1 .815 0l1.6.841a.877.877 0 0 0 1.224-.454l-3.09-1.624a.305.305 0 0 0-.142-.036.308.308 0 0 0-.142.036Z" fill="#EFE2DD"/></g><defs><clipPath id="a"><path fill="#fff" d="M0 0h313v195H0z"/></clipPath></defs></svg>