<svg width="213" height="259" fill="none" xmlns="http://www.w3.org/2000/svg"><g clip-path="url(#a)"><path d="M91.513 58.072c25.31-2.535 50.62-5.069 75.93-7.607 2.27-.226 1.814-4.686-.46-4.456-25.31 2.534-50.619 5.068-75.93 7.606-2.27.226-1.813 4.686.46 4.457ZM78.045 77.088c14.58-.91 29.161-1.823 43.738-2.733 2.28-.143 1.817-4.6-.46-4.456-14.58.91-29.16 1.823-43.737 2.732-2.28.144-1.818 4.6.459 4.457ZM134.385 73.24a515.587 515.587 0 0 1 57.385-6.95c2.28-.146 1.817-4.603-.46-4.456a517.2 517.2 0 0 0-57.385 6.95c-2.239.4-1.793 4.857.46 4.456ZM26.707 123.808a423.94 423.94 0 0 1 67.322-6.888c2.02-.044 1.605-3.981-.408-3.937a424.21 424.21 0 0 0-67.322 6.889c-1.975.362-1.584 4.302.408 3.936ZM106.692 117.197a476.897 476.897 0 0 1 73.495-7.832c2.02-.059 1.605-3.995-.408-3.937a477.216 477.216 0 0 0-73.495 7.832c-1.975.366-1.581 4.306.408 3.937ZM191.335 107.805a487.362 487.362 0 0 1 24.98-2.028c2.016-.113 1.605-4.05-.408-3.937a488.495 488.495 0 0 0-24.98 2.028c-2.003.216-1.602 4.152.408 3.937ZM27.773 140.085a301.284 301.284 0 0 1 28.417-2.291c2.02-.069 1.605-4.005-.408-3.937a301.384 301.384 0 0 0-28.417 2.295c-1.995.257-1.598 4.197.409 3.937v-.004ZM66.827 137.171a710.272 710.272 0 0 1 51.429-5.219c2.013-.13 1.605-4.07-.408-3.937a710.274 710.274 0 0 0-51.429 5.219c-1.992.277-1.594 4.214.408 3.937ZM129.828 131.196a225.786 225.786 0 0 1 28.996-2.825c2.02-.065 1.605-4.005-.408-3.937a225.855 225.855 0 0 0-28.996 2.825c-1.985.325-1.587 4.265.408 3.937ZM39.926 251.711a423.94 423.94 0 0 1 67.323-6.888c2.02-.045 1.605-3.981-.408-3.937a424.208 424.208 0 0 0-67.322 6.889c-1.976.362-1.585 4.302.407 3.936ZM119.903 245.104a476.775 476.775 0 0 1 73.495-7.833c2.02-.058 1.605-3.995-.408-3.936a477.216 477.216 0 0 0-73.495 7.832c-1.975.366-1.581 4.306.408 3.937ZM204.554 235.711a488.626 488.626 0 0 1 24.981-2.028c2.016-.113 1.605-4.049-.408-3.936a487.493 487.493 0 0 0-24.981 2.028c-2.002.215-1.601 4.152.408 3.936ZM80.047 265.078a709.72 709.72 0 0 1 51.429-5.22c2.013-.13 1.605-4.07-.408-3.936a710.274 710.274 0 0 0-51.43 5.219c-1.992.277-1.594 4.214.409 3.937ZM143.039 259.099a225.607 225.607 0 0 1 28.996-2.825c2.02-.065 1.605-4.005-.408-3.937a225.32 225.32 0 0 0-28.996 2.825c-1.985.325-1.587 4.265.408 3.937ZM32.47 179.36a190.656 190.656 0 0 1 39.54-3.065c2.02.055 1.599-3.885-.407-3.937a190.726 190.726 0 0 0-39.54 3.065c-1.976.362-1.585 4.303.407 3.937ZM86.185 175.153c12.327-1.265 24.651-2.534 36.978-3.8 2.006-.205 1.602-4.145-.408-3.936-12.327 1.265-24.651 2.534-36.978 3.8-2.006.205-1.602 4.145.408 3.936ZM134.335 169.673c17.451-1.792 34.901-3.588 52.352-5.38 2.006-.205 1.601-4.145-.408-3.936-17.451 1.792-34.901 3.587-52.352 5.38-2.006.205-1.601 4.145.408 3.936ZM199.324 164.766c12.578-1.543 25.156-3.085 37.737-4.631 1.999-.246 1.598-4.183-.408-3.937-12.578 1.543-25.156 3.085-37.737 4.631-1.999.247-1.598 4.183.408 3.937Z" fill="#6683C2"/><path d="M144.497 176.572c12.578-1.542 25.156-3.085 37.737-4.631 1.999-.246 1.598-4.183-.408-3.937-12.578 1.543-25.156 3.085-37.737 4.631-1.999.247-1.598 4.183.408 3.937ZM119.407 251.855c12.577-1.543 25.155-3.085 37.736-4.631 2-.247 1.598-4.183-.408-3.937-12.577 1.543-25.155 3.085-37.736 4.631-1.999.246-1.598 4.183.408 3.937Z" fill="#F37E60"/><path d="M35.125 197.062c7.318-1.005 14.632-2.007 21.95-3.013 1.995-.274 1.594-4.214-.408-3.937-7.318 1.006-14.632 2.008-21.95 3.014-1.995.273-1.594 4.213.408 3.936ZM67.482 193.188c12.996-1.563 25.989-3.13 38.981-4.693 1.999-.239 1.598-4.179-.408-3.937-12.993 1.563-25.989 3.13-38.981 4.693-2 .239-1.598 4.179.408 3.937ZM119.412 187.838l42.435-3.827c2.009-.181 1.601-4.118-.408-3.937l-42.435 3.828c-2.009.181-1.601 4.118.408 3.936ZM176.018 182.992c12.962-1.847 25.923-3.69 38.885-5.537 1.992-.284 1.595-4.224-.408-3.937-12.962 1.847-25.923 3.691-38.885 5.537-1.993.284-1.595 4.224.408 3.937ZM37.376 214.718l47.74-5.301c2.002-.223 1.6-4.163-.409-3.937l-47.739 5.301c-2.003.223-1.601 4.163.408 3.937Z" fill="#6683C2"/><path d="m98.417 208.192 41.605-3.704c2.009-.178 1.604-4.118-.408-3.937l-41.605 3.705c-2.01.177-1.605 4.117.408 3.936ZM37.244 150.941a423.94 423.94 0 0 1 67.322-6.888c2.02-.045 1.605-3.982-.408-3.937a424.326 424.326 0 0 0-67.322 6.888c-1.975.363-1.584 4.303.408 3.937ZM145.406 116.763l-10.342-10.316a1.567 1.567 0 0 1 0-2.219 1.576 1.576 0 0 1 2.225 0l10.342 10.315a1.568 1.568 0 0 1 0 2.22 1.578 1.578 0 0 1-2.225 0Z" fill="#F37E60"/><path d="m135.064 114.547 10.342-10.316a1.578 1.578 0 0 1 2.225 0 1.568 1.568 0 0 1 0 2.22l-10.342 10.316a1.578 1.578 0 0 1-2.225 0 1.568 1.568 0 0 1 0-2.22ZM50.171 199.396l-10.342-10.315a1.568 1.568 0 0 1 0-2.22 1.578 1.578 0 0 1 2.225 0l10.343 10.315a1.568 1.568 0 0 1 0 2.22 1.578 1.578 0 0 1-2.226 0Z" fill="#F37E60"/><path d="m39.829 197.18 10.342-10.315a1.578 1.578 0 0 1 2.226 0 1.568 1.568 0 0 1 0 2.22L42.053 199.4a1.578 1.578 0 0 1-2.225 0 1.568 1.568 0 0 1 0-2.22Z" fill="#F37E60"/></g><defs><clipPath id="a"><path d="M0 0h213v239c0 11.046-8.954 20-20 20H0V0Z" fill="#fff"/></clipPath></defs></svg>