<svg width="660" height="186" fill="none" xmlns="http://www.w3.org/2000/svg"><g clip-path="url(#a)"><circle cx="282.368" cy="150.473" r="63.642" transform="rotate(-153.256 282.368 150.473)" fill="#F7F9FC" fill-opacity=".81"/><circle cx="168.959" cy="188.805" r="36.455" transform="rotate(-153.256 168.959 188.805)" fill="#F7F9FC" fill-opacity=".81"/><circle cx="194.577" cy="126.988" r="19.154" transform="rotate(-153.256 194.577 126.988)" fill="#F7F9FC" fill-opacity=".81"/><path d="M660 28.19v189.083c0 2.87-2.411 5.193-5.382 5.193H330.382c-2.971 0-5.382-2.323-5.382-5.193V28.189c0-2.867 2.411-5.189 5.382-5.189h324.236c2.971 0 5.382 2.322 5.382 5.19Z" fill="#F2F6FD"/><path d="M639.474 37.198H426.961a2 2 0 0 0-2 2V175.06a2 2 0 0 0 2 2h212.513a2 2 0 0 0 2-2V39.198a2 2 0 0 0-2-2ZM409.572 37.198h-67.369a2 2 0 0 0-2 2v42.103a2 2 0 0 0 2 2h67.369a2 2 0 0 0 2-2V39.198a2 2 0 0 0-2-2ZM641.474 185.992H424.961v4.145h216.513v-4.145ZM409.572 90.915h-67.369a2 2 0 0 0-2 2v.145a2 2 0 0 0 2 2h67.369a2 2 0 0 0 2-2v-.145a2 2 0 0 0-2-2ZM409.572 102.585h-67.369a2 2 0 0 0-2 2v42.103a2 2 0 0 0 2 2h67.369a2 2 0 0 0 2-2v-42.103a2 2 0 0 0-2-2ZM409.572 156.306h-67.369a2 2 0 0 0-2 2v.145a2 2 0 0 0 2 2h67.369a2 2 0 0 0 2-2v-.145a2 2 0 0 0-2-2ZM409.572 167.974h-67.369a2 2 0 0 0-2 2v39.083a2 2 0 0 0 2 2h67.369a2 2 0 0 0 2-2v-39.083a2 2 0 0 0-2-2Z" fill="#DFE9FF"/><path d="M524.077 120.407c-2.895 1.406-6.271-.685-6.303-3.905l-.16-15.987-.161-15.987c-.032-3.22 3.3-5.378 6.224-4.028l18.053 8.317 15.919 7.333c3.364 1.55 3.412 6.316.08 7.934l-15.767 7.649-17.881 8.674h-.004Z" fill="#6683C2"/><path d="M533.232 138.776c-21.754 0-39.451-17.697-39.451-39.451s17.697-39.451 39.451-39.451 39.451 17.697 39.451 39.45c0 21.755-17.697 39.452-39.451 39.452Zm0-76.099c-20.208 0-36.643 16.44-36.643 36.644 0 20.204 16.439 36.643 36.643 36.643s36.643-16.439 36.643-36.643-16.439-36.644-36.643-36.644ZM372.237 68.632a1.744 1.744 0 0 1-2.507-1.554l-.064-6.36-.064-6.359a1.744 1.744 0 0 1 2.475-1.602l7.18 3.308 6.332 2.916c1.337.616 1.357 2.51.032 3.155l-6.272 3.044-7.112 3.452Z" fill="#6683C2"/><path d="M375.866 75.942c-8.654 0-15.694-7.04-15.694-15.695 0-8.654 7.04-15.694 15.694-15.694 8.655 0 15.695 7.04 15.695 15.694 0 8.655-7.04 15.695-15.695 15.695Zm0-30.272c-8.037 0-14.577 6.54-14.577 14.577 0 8.038 6.54 14.578 14.577 14.578 8.038 0 14.578-6.54 14.578-14.578 0-8.037-6.54-14.577-14.578-14.577ZM372.237 134.023a1.744 1.744 0 0 1-2.507-1.554l-.064-6.36-.064-6.359a1.744 1.744 0 0 1 2.475-1.602l7.18 3.308 6.332 2.915c1.337.617 1.357 2.511.032 3.156l-6.272 3.044-7.112 3.452Z" fill="#6683C2"/><path d="M375.866 141.332c-8.654 0-15.694-7.041-15.694-15.695s7.04-15.695 15.694-15.695c8.655 0 15.695 7.041 15.695 15.695s-7.04 15.695-15.695 15.695Zm0-30.272c-8.037 0-14.577 6.539-14.577 14.577s6.54 14.577 14.577 14.577c8.038 0 14.578-6.539 14.578-14.577s-6.54-14.577-14.578-14.577ZM372.237 199.413a1.744 1.744 0 0 1-2.507-1.553l-.064-6.36-.064-6.36a1.744 1.744 0 0 1 2.475-1.601l7.18 3.307 6.332 2.916c1.337.617 1.357 2.511.032 3.156l-6.272 3.043-7.112 3.452Z" fill="#6683C2"/><path d="M375.866 206.719c-8.654 0-15.694-7.04-15.694-15.694 0-8.655 7.04-15.695 15.694-15.695 8.655 0 15.695 7.04 15.695 15.695 0 8.654-7.04 15.694-15.695 15.694Zm0-30.272c-8.037 0-14.577 6.54-14.577 14.578 0 8.037 6.54 14.577 14.577 14.577 8.038 0 14.578-6.54 14.578-14.577 0-8.038-6.54-14.578-14.578-14.578Z" fill="#6683C2"/><path d="M625.462 169.51H440.987a4.884 4.884 0 0 1-4.885-4.886 4.884 4.884 0 0 1 4.885-4.886h184.475a4.885 4.885 0 1 1 0 9.772Z" fill="#999" style="mix-blend-mode:screen"/><path d="M595.097 163.906H443.009c-.377 0-.681.333-.681.745 0 .413.304.745.681.745h152.088c.377 0 .681-.332.681-.745 0-.412-.304-.745-.681-.745Z" fill="#E58967"/><path d="M471.21 162.697h-.905v3.921h.905v-3.921ZM438.195 164.657a1.2 1.2 0 1 1 2.403 0 1.2 1.2 0 0 1-1.201 1.201 1.2 1.2 0 0 1-1.202-1.201ZM605.086 164.657a1.2 1.2 0 1 1 2.403 0 1.2 1.2 0 1 1-2.403 0ZM610.141 164.657a1.2 1.2 0 0 1 1.201-1.202 1.2 1.2 0 0 1 1.201 1.202 1.2 1.2 0 0 1-1.201 1.201 1.2 1.2 0 0 1-1.201-1.201ZM599.328 164.657a1.2 1.2 0 1 1 2.403 0 1.2 1.2 0 1 1-2.403 0ZM624.529 167.986a.404.404 0 1 1 0-.809c.825 0 1.494-.668 1.494-1.489 0-.225.18-.405.405-.405.224 0 .404.18.404.405a2.3 2.3 0 0 1-2.299 2.294l-.004.004ZM626.428 164.018a.404.404 0 0 1-.405-.405c0-.821-.669-1.49-1.494-1.49a.404.404 0 1 1 0-.809c1.27 0 2.299 1.03 2.299 2.295 0 .224-.18.405-.404.405l.004.004ZM617.709 164.019a.404.404 0 0 1-.404-.405 2.3 2.3 0 0 1 2.298-2.295.404.404 0 1 1 0 .809c-.825 0-1.493.669-1.493 1.49a.405.405 0 0 1-.405.405l.004-.004ZM619.619 167.987a2.298 2.298 0 0 1-2.299-2.294.404.404 0 1 1 .809 0c0 .821.669 1.489 1.494 1.489a.405.405 0 1 1 0 .809l-.004-.004Z" fill="#E58967"/></g><defs><clipPath id="a"><path fill="#fff" d="M0 0h660v186H0z"/></clipPath></defs></svg>