<svg width="154" height="61" viewBox="0 0 154 61" fill="none" xmlns="http://www.w3.org/2000/svg">
<path d="M13.625 50.5195C13.625 48.6392 13.625 46.7554 13.625 44.8715C13.625 42.9911 13.625 41.1073 13.625 39.2234C19.1977 38.7612 24.7845 38.292 30.3712 37.8262C30.3712 40.0437 30.3712 42.2578 30.3712 44.4683C30.3712 46.6824 30.3712 48.8964 30.3712 51.1105C28.8553 51.0548 27.3392 51.0027 25.8373 50.9471C25.8373 48.9485 25.8373 46.95 25.8373 44.9514C25.8373 42.9529 25.8373 40.9509 25.8373 38.9523C26.5531 39.5084 27.269 40.0715 27.999 40.6416C23.9002 40.8883 19.8153 41.1316 15.7305 41.3714C16.5306 40.7736 17.3448 40.1619 18.1589 39.5432C18.1589 41.3993 18.1589 43.2553 18.1589 45.1114C18.1589 46.9674 18.1589 48.8234 18.1589 50.676C16.643 50.6238 15.1269 50.5682 13.625 50.5195ZM45.0261 51.6248C45.0261 49.6229 45.0261 47.6208 45.0261 45.6188C45.0261 43.6168 45.0261 41.6148 45.0261 39.6093C43.9031 39.6753 42.7801 39.7458 41.6712 39.8108C40.8851 39.8569 40.2693 40.0562 39.8183 40.3947C39.357 40.7409 39.1305 41.1698 39.1305 41.7017C39.1305 42.2369 39.3563 42.6502 39.8183 42.9529C40.2686 43.248 40.8852 43.3946 41.6712 43.37C42.8784 43.3322 44.0856 43.2935 45.2928 43.2553C45.2928 44.2632 45.2928 45.2643 45.2928 46.2687C44.0856 46.2757 42.8783 46.2851 41.6712 46.2931C40.2535 46.3024 39.0187 46.1125 37.9373 45.7439C36.857 45.3756 36.0282 44.861 35.4246 44.2042C34.8211 43.5472 34.5263 42.7861 34.5263 41.9137C34.5263 41.0274 34.8222 40.237 35.4246 39.5328C36.0294 38.8259 36.8571 38.2395 37.9373 37.7706C39.0188 37.3011 40.2536 37.0024 41.6712 36.8843C44.2962 36.6653 46.9351 36.4428 49.5741 36.2273C49.5741 38.8237 49.5741 41.4167 49.5741 44.0096C49.5741 46.599 49.5741 49.1953 49.5741 51.7847C48.0581 51.7326 46.5421 51.677 45.0261 51.6248ZM32.8839 51.1974C33.9227 50.172 34.9648 49.1328 36.0002 48.0622C37.0422 46.9849 38.0776 45.8725 39.1305 44.7464C40.8149 44.7151 42.4993 44.6804 44.1839 44.6456C43.1872 45.8169 42.1933 46.9728 41.208 48.1004C40.2282 49.2215 39.2427 50.311 38.2601 51.385C36.4634 51.326 34.6667 51.2599 32.8839 51.1974ZM62.7129 52.2505C61.1969 52.1983 59.6808 52.1462 58.1649 52.0906C58.1649 49.8487 58.1649 47.6069 58.1649 45.3651C58.1649 43.1232 58.1649 40.8814 58.1649 38.6395C59.6808 38.5457 61.1969 38.4553 62.7129 38.3615C62.7129 40.6763 62.7129 42.9946 62.7129 45.306C62.7129 47.6208 62.7129 49.9356 62.7129 52.2505ZM68.3979 38.2642C63.0919 38.5804 57.7859 38.8933 52.4799 39.2095C52.4799 38.1356 52.4799 37.0581 52.4799 35.9806C57.7859 35.5357 63.0919 35.0943 68.3979 34.6528C68.3979 35.8589 68.3979 37.0616 68.3979 38.2642ZM83.5721 52.9874C83.5721 49.7201 83.5721 46.453 83.5721 43.1893C83.5721 39.9255 83.5721 36.6583 83.5721 33.3877C85.0741 33.2626 86.5901 33.1374 88.1062 33.0123C88.1062 36.3699 88.1062 39.7274 88.1062 43.0815C88.1062 46.4356 88.1062 49.7932 88.1062 53.1472C86.5901 53.0951 85.0741 53.0395 83.5721 52.9874ZM75.8517 52.7162C74.3357 52.6606 72.8197 52.6085 71.3037 52.5564C71.3037 49.5325 71.3037 46.5086 71.3037 43.4847C71.3037 40.4643 71.3037 37.4404 71.3037 34.413C72.8197 34.2844 74.3357 34.1558 75.8517 34.0307C75.8517 37.1484 75.8517 40.2627 75.8517 43.3734C75.8517 46.4877 75.8517 49.602 75.8517 52.7162ZM75.5849 45.0627C75.5849 43.8114 75.5849 42.5602 75.5849 41.3089C78.3222 41.2081 81.0735 41.1038 83.8247 41.003C83.8247 42.3203 83.8247 43.6411 83.8247 44.9549C81.0735 44.9897 78.3222 45.0279 75.5849 45.0627ZM92.3454 53.2967C92.3454 49.8557 92.3454 46.4147 92.3454 42.9772C92.3454 39.5398 92.3454 36.0987 92.3454 32.6543C93.8614 32.5292 95.3774 32.404 96.8934 32.2789C96.8934 35.4627 96.8934 38.643 96.8934 41.8198C96.8934 44.9966 96.8934 48.177 96.8934 51.3572C95.8406 51.3294 94.8018 51.3086 93.7631 51.2808C95.5599 48.17 97.3939 45.0007 99.1814 41.7468C100.987 38.4594 102.803 35.0734 104.614 31.6324C106.2 31.4969 107.786 31.3683 109.372 31.2328C109.372 35.0143 109.372 38.7924 109.372 42.5671C109.372 46.3418 109.372 50.1233 109.372 53.898C107.856 53.8458 106.34 53.7903 104.824 53.7381C104.824 50.3701 104.824 47.0056 104.824 43.6376C104.824 40.2731 104.824 36.9052 104.824 33.5372C105.877 33.4572 106.93 33.3807 107.997 33.3008C106.172 36.8287 104.359 40.3005 102.536 43.6828C100.737 47.0226 98.9147 50.2693 97.104 53.4635C95.5177 53.4079 93.9315 53.3523 92.3454 53.2967ZM113.598 54.0475C113.598 50.1894 113.598 46.3244 113.598 42.4663C113.598 38.6082 113.598 34.7467 113.598 30.8817C115.114 30.7566 116.63 30.6314 118.146 30.5028C118.146 34.2253 118.146 37.9444 118.146 41.6634C118.146 45.3789 118.146 49.1015 118.146 52.8171C117.331 51.6735 116.517 50.5335 115.717 49.4074C119.732 49.4525 123.747 49.4943 127.761 49.5429C127.031 50.7142 126.315 51.8786 125.599 53.0255C125.599 49.171 125.599 45.3095 125.599 41.4548C125.599 37.6003 125.599 33.7387 125.599 29.8807C127.115 29.7555 128.631 29.6269 130.147 29.5019C130.147 33.6936 130.147 37.8818 130.147 42.0666C130.147 46.2549 130.147 50.4431 130.147 54.6314C124.631 54.4333 119.114 54.2421 113.598 54.0475ZM128.379 60.6305C128.379 58.7848 128.379 56.9393 128.379 55.0936C128.379 53.2445 128.379 51.3989 128.379 49.5498C129.782 49.5672 131.186 49.5811 132.604 49.5985C132.604 51.4858 132.604 53.3696 132.604 55.2535C132.604 57.1374 132.604 59.0212 132.604 60.9016C131.186 60.8077 129.782 60.7209 128.379 60.6305ZM149.968 50.3354C146.037 50.2832 142.107 50.2276 138.177 50.172C138.177 48.4342 138.177 46.6962 138.177 44.9549C142.107 44.9167 146.037 44.8785 149.968 44.8367C149.968 46.6719 149.968 48.5037 149.968 50.3354ZM153.997 55.469C152.354 55.4134 150.726 55.3578 149.098 55.2987C148.143 51.5241 147.206 47.7755 146.262 44.0651C145.325 40.3792 144.381 36.7314 143.441 33.1027C143.82 33.0783 144.213 33.0575 144.606 33.0297C143.651 36.7626 142.701 40.4631 141.756 44.1277C140.82 47.762 139.861 51.3677 138.921 54.9407C137.334 54.8851 135.762 54.8295 134.19 54.7738C135.411 50.5265 136.652 46.2303 137.868 41.8824C139.094 37.4959 140.324 33.0471 141.56 28.5495C143.244 28.4104 144.929 28.2714 146.613 28.1289C147.834 32.5675 149.075 37.0513 150.291 41.5834C151.518 46.1577 152.761 50.7942 153.997 55.469Z" fill="white"/>
<path d="M8.62254 22.7414C5.92182 22.8082 3.80747 21.9054 2.28197 19.9882C0.745652 18.0573 0 15.3475 0 11.913C0 9.92812 0 7.94315 0 5.95825C0 3.97335 0 1.98845 0 0C1.93534 0.153001 3.88514 0.305932 5.83502 0.455377C5.83502 2.23525 5.83502 4.01157 5.83502 5.78795C5.83502 7.56085 5.83502 9.33717 5.83502 11.1135C5.83502 12.8203 6.15215 14.0485 6.78826 14.7948C7.42316 15.5396 8.44929 15.9141 9.85022 15.9245C10.7601 15.9313 11.6409 15.8008 12.4934 15.5525C13.3596 15.3003 14.0965 14.9652 14.7031 14.5479C15.1364 16.081 15.5842 17.607 16.0319 19.1262C15.2231 20.2489 14.1531 21.1169 12.8545 21.7403C11.5535 22.3648 10.1391 22.704 8.62254 22.7414ZM14.472 33.6428C14.472 28.2269 14.472 22.8075 14.472 17.3881C14.472 11.9721 14.472 6.54919 14.472 1.12631C16.4218 1.27931 18.3717 1.43224 20.3216 1.58168C20.3216 6.85164 20.3216 12.1251 20.3216 17.3881C20.3216 22.6545 20.3216 27.9244 20.3216 33.1874C18.3717 33.3368 16.4218 33.4898 14.472 33.6428ZM43.4884 31.3867C37.5667 31.849 31.6594 32.3079 25.7522 32.7667C25.7522 27.6428 25.7522 22.5154 25.7522 17.3881C25.7522 12.2641 25.7522 7.13323 25.7522 2.00233C31.6594 2.4612 37.5667 2.92006 43.4884 3.37892C43.4884 5.2491 43.4884 7.11587 43.4884 8.98256C39.5165 8.79832 35.5591 8.61415 31.6017 8.42991C31.6017 11.4159 31.6017 14.402 31.6017 17.3845C31.6017 20.3706 31.6017 23.3567 31.6017 26.3427C35.5591 26.1585 39.5165 25.9742 43.4884 25.7865C43.4884 27.6568 43.4884 29.5235 43.4884 31.3867ZM42.8529 20.1203C38.9821 20.1795 35.1114 20.2386 31.2551 20.2976C31.2551 18.3058 31.2551 16.3104 31.2551 14.3151C35.1114 14.3777 38.9821 14.4367 42.8529 14.4992C42.8529 16.373 42.8529 18.2501 42.8529 20.1203ZM53.5842 30.6046C51.6344 30.7575 49.6846 30.9105 47.7347 31.06C47.7347 26.5061 47.7347 21.9453 47.7347 17.3881C47.7347 12.8307 47.7347 8.26993 47.7347 3.70919C51.1144 3.96987 54.5086 4.23277 57.9027 4.49819C59.7081 4.6394 61.3102 5.11417 62.6979 5.89221C64.0688 6.66098 65.1474 7.66218 65.9186 8.87831C66.6928 10.099 67.0741 11.4785 67.0741 13.0462C67.0741 14.5897 66.6929 15.9413 65.9186 17.1308C65.1475 18.3155 64.0684 19.2627 62.6979 19.957C61.3099 20.6601 59.7081 21.0422 57.9027 21.0833C56.3429 21.1187 54.7974 21.1493 53.252 21.1841C53.252 19.4216 53.252 17.6522 53.252 15.8863C54.7974 15.9002 56.3429 15.9154 57.9027 15.9281C58.8992 15.9362 59.6953 15.6673 60.2858 15.1146C60.8652 14.5724 61.1668 13.8249 61.1668 12.8829C61.1668 11.9408 60.8648 11.177 60.2858 10.6025C59.6949 10.0161 58.8993 9.70022 57.9027 9.65343C56.4585 9.58557 55.0141 9.52142 53.5842 9.45531C53.5842 12.9802 53.5842 16.5086 53.5842 20.0334C53.5842 23.5582 53.5842 27.0832 53.5842 30.6046ZM86.7602 28.0287C86.7602 24.4829 86.7602 20.9338 86.7602 17.3881C86.7602 13.8423 86.7602 10.2896 86.7602 6.74041C88.6956 6.88985 90.6455 7.03944 92.5953 7.1923C92.5953 10.592 92.5953 13.9918 92.5953 17.3881C92.5953 20.7843 92.5953 24.1841 92.5953 27.5769C90.6455 27.7298 88.6956 27.8792 86.7602 28.0287ZM76.8378 28.8004C74.888 28.9534 72.9381 29.1029 70.9882 29.2558C70.9882 25.3033 70.9882 21.344 70.9882 17.3881C70.9882 13.4321 70.9882 9.47274 70.9882 5.51326C72.9381 5.66627 74.888 5.81578 76.8378 5.96871C76.8378 9.77512 76.8378 13.5851 76.8378 17.3881C76.8378 21.191 76.8378 24.9975 76.8378 28.8004ZM76.4911 19.4529C76.4911 17.9164 76.4911 16.3799 76.4911 14.8435C80.0152 14.906 83.5538 14.9652 87.0924 15.0277C87.0924 16.4529 87.0924 17.8782 87.0924 19.3034C83.5538 19.3555 80.0152 19.4042 76.4911 19.4529ZM116.455 22.6962C111.4 22.943 106.345 23.1933 101.304 23.4401C101.304 22.1748 101.304 20.9059 101.304 19.6371C106.345 19.5433 111.4 19.4495 116.455 19.3591C116.455 20.4714 116.455 21.5838 116.455 22.6962ZM121.626 25.3242C119.517 25.4876 117.423 25.651 115.329 25.8143C114.116 23.5723 112.879 21.2805 111.689 18.9246C110.481 16.5321 109.263 14.0683 108.064 11.5654C108.555 11.5932 109.046 11.6175 109.552 11.6419C108.324 14.0404 107.102 16.4892 105.897 19.0011C104.675 21.5506 103.471 24.1701 102.258 26.8259C100.221 26.9858 98.1848 27.1423 96.1627 27.2987C97.7371 23.9163 99.3121 20.5966 100.9 17.3881C102.461 14.2351 104.063 11.1865 105.652 8.20738C107.804 8.37419 109.97 8.54113 112.137 8.70794C113.711 11.6836 115.286 14.5951 116.874 17.3881C118.435 20.1329 120.037 22.7623 121.626 25.3242ZM138.582 24.0068C138.582 22.2443 138.582 20.4784 138.582 18.7124C138.582 16.9466 138.582 15.1806 138.582 13.4113C137.138 13.3452 135.694 13.2751 134.264 13.2096C133.267 13.1639 132.473 13.2846 131.881 13.5712C131.288 13.8581 131 14.2769 131 14.8156C131 15.3544 131.288 15.7871 131.881 16.1088C132.472 16.43 133.267 16.5894 134.264 16.5989C135.809 16.6136 137.355 16.6268 138.915 16.6406C138.915 17.5201 138.915 18.3996 138.915 19.2791C137.355 19.3139 135.809 19.3499 134.264 19.3834C132.444 19.4228 130.854 19.2686 129.469 18.8932C128.096 18.5213 127.014 17.957 126.248 17.2282C125.468 16.4867 125.092 15.6256 125.092 14.6522C125.092 13.665 125.468 12.8199 126.248 12.1285C127.013 11.4502 128.096 10.9504 129.469 10.6546C130.855 10.356 132.444 10.2841 134.264 10.4252C137.644 10.6873 141.038 10.9535 144.432 11.2143C144.432 13.2722 144.432 15.3302 144.432 17.3845C144.432 19.4424 144.432 21.4969 144.432 23.5513C142.482 23.7043 140.532 23.8573 138.582 24.0068ZM122.984 25.2164C124.313 23.9163 125.651 22.6331 126.985 21.4065C128.308 20.1893 129.656 19.0254 131 17.8817C133.152 17.8677 135.318 17.8573 137.485 17.8469C136.214 18.9106 134.923 19.9945 133.672 21.1284C132.41 22.2713 131.13 23.4679 129.873 24.6811C127.577 24.8619 125.28 25.0392 122.984 25.2164Z" fill="white"/>
</svg>
