<svg width="263" height="191" fill="none" xmlns="http://www.w3.org/2000/svg"><g clip-path="url(#a)"><path d="m70.798 184.454-46.369-26.696c-1.83-1.061-1.83-2.77 0-3.831l66.865-38.6c1.832-1.061 4.785-1.061 6.616 0l46.428 26.696c1.831 1.061 1.831 2.77 0 3.83l-66.865 38.601c-1.832 1.061-4.844 1.061-6.675 0ZM188.654 249.951l69.516-40.08c1.95-1.123 1.95-2.956 0-4.079l-96.707-55.864c-1.951-1.123-5.143-1.123-7.094 0l-69.515 40.08c-1.95 1.123-1.95 2.956 0 4.079l96.707 55.864c1.951 1.123 5.143 1.123 7.093 0Z" fill="#E0E0E0"/><path d="m33.996 155.88 41.132 23.229 63.177-36.232-41.133-23.229-63.176 36.232Z" fill="#89ADFA"/><path opacity=".6" d="m33.996 155.88 41.132 23.229 63.177-36.232-41.133-23.229-63.176 36.232Z" fill="#000"/><path d="m75.592 177.381-39.714-22.579c1.005-2.778.886-3.664-.177-7.388l39.477 22.342c-.059.059.65 0 .414 7.625Z" fill="#F5F5F5"/><path d="M73.223 166.744c2.01 1.123 3.605 3.96 3.605 6.265v4.906c0 2.305-1.655 3.251-3.605 2.068l-39.182-22.282v-1.833l38.71 21.869c1.181.71 2.186.119 2.186-1.241l-.06-4.374c0-1.359-1.004-3.073-2.186-3.723l-38.65-21.869v-2.069l39.182 22.283Z" fill="#89ADFA"/><path opacity=".5" d="M73.223 166.744c2.01 1.123 3.605 3.96 3.605 6.265v4.906c0 2.305-1.655 3.251-3.605 2.068l-39.182-22.282v-1.833l38.71 21.869c1.181.71 2.186.119 2.186-1.241l-.06-4.374c0-1.359-1.004-3.073-2.186-3.723l-38.65-21.869v-2.069l39.182 22.283Z" fill="#000"/><path d="m33.981 144.458 63.177-36.231 39.182 22.282c2.01 1.123 3.605 3.96 3.605 6.266v4.905c0 1.123-.413 1.951-1.063 2.306l-63.177 36.231c.65-.354 1.064-1.182 1.064-2.305v-4.906c0-2.305-1.655-5.083-3.605-6.265L33.98 144.458Z" fill="#89ADFA"/><path opacity=".35" d="m33.981 144.458 63.177-36.231 39.182 22.282c2.01 1.123 3.605 3.96 3.605 6.266v4.905c0 1.123-.413 1.951-1.063 2.306l-63.177 36.231c.65-.354 1.064-1.182 1.064-2.305v-4.906c0-2.305-1.655-5.083-3.605-6.265L33.98 144.458Z" fill="#000"/><path d="M75.768 169.404c.65 1.123 1.063 2.423 1.063 3.546v4.906c0 1.123-.413 1.95-1.063 2.305l63.176-36.232c.65-.355 1.064-1.182 1.064-2.305v-4.906c0-1.123-.414-2.423-1.064-3.546l-63.176 36.232Z" fill="#89ADFA"/><path opacity=".45" d="M75.768 169.404c.65 1.123 1.063 2.423 1.063 3.546v4.906c0 1.123-.413 1.95-1.063 2.305l63.176-36.232c.65-.355 1.064-1.182 1.064-2.305v-4.906c0-1.123-.414-2.423-1.064-3.546l-63.176 36.232Z" fill="#000"/><path d="M130.379 138.023c1.182 5.084 1.182 7.093 0 10.876l-3.014 1.714c1.182-3.724 1.182-5.733 0-10.875l3.014-1.715ZM88.95 161.844c1.181 5.083 1.181 7.033 0 10.816l-3.015 1.714c1.182-3.724 1.182-5.674 0-10.816l3.014-1.714ZM25.714 143.869l41.133 23.229 63.176-36.291-41.132-23.229-63.177 36.291Z" fill="#89ADFA"/><path opacity=".4" d="m25.714 143.869 41.133 23.229 63.176-36.291-41.132-23.229-63.177 36.291Z" fill="#000"/><path d="m67.272 165.38-39.715-22.578c1.005-2.778.887-4.078-.177-7.802l39.478 22.342s.71.355.414 8.038Z" fill="#F5F5F5"/><path d="M64.895 154.33c2.01 1.123 3.605 3.96 3.605 6.265v5.26c0 2.305-1.655 3.251-3.605 2.069l-39.182-22.283v-1.832l38.71 21.869c1.181.709 2.186.118 2.186-1.241l-.06-4.729c0-1.359-1.004-3.073-2.186-3.723l-38.65-21.869v-2.069l39.182 22.283Z" fill="#89ADFA"/><path opacity=".25" d="M64.895 154.33c2.01 1.123 3.605 3.96 3.605 6.265v5.26c0 2.305-1.655 3.251-3.605 2.069l-39.182-22.283v-1.832l38.71 21.869c1.181.709 2.186.118 2.186-1.241l-.06-4.729c0-1.359-1.004-3.073-2.186-3.723l-38.65-21.869v-2.069l39.182 22.283Z" fill="#000"/><path d="m25.716 132.06 63.176-36.232 39.183 22.283c2.009 1.123 3.605 3.96 3.605 6.265v5.261c0 1.123-.414 1.95-1.064 2.305l-63.177 36.231c.65-.354 1.064-1.182 1.064-2.305v-5.319c0-2.305-1.654-5.083-3.605-6.265L25.716 132.06Z" fill="#89ADFA"/><path d="M67.494 157.001c.65 1.123 1.064 2.423 1.064 3.546v5.32c0 1.123-.414 1.95-1.064 2.305l63.177-36.232c.65-.355 1.063-1.182 1.063-2.305v-5.261c0-1.123-.413-2.423-1.063-3.546l-63.177 36.173Z" fill="#89ADFA"/><path opacity=".15" d="M67.494 157.001c.65 1.123 1.064 2.423 1.064 3.546v5.32c0 1.123-.414 1.95-1.064 2.305l63.177-36.232c.65-.355 1.063-1.182 1.063-2.305v-5.261c0-1.123-.413-2.423-1.063-3.546l-63.177 36.173Z" fill="#000"/><path d="M122.106 125.609c1.182 5.083 1.182 7.507 0 11.29l-3.014 1.714c1.182-3.724 1.182-6.147 0-11.29l3.014-1.714ZM80.676 149.422c1.182 5.083 1.182 7.447 0 11.171l-3.014 1.714c1.182-3.724 1.182-6.088 0-11.171l3.014-1.714Z" fill="#89ADFA"/><g opacity=".4" fill="#fff"><path d="M122.106 125.609c1.182 5.083 1.182 7.507 0 11.29l-3.014 1.714c1.182-3.724 1.182-6.147 0-11.29l3.014-1.714ZM80.676 149.422c1.182 5.083 1.182 7.447 0 11.171l-3.014 1.714c1.182-3.724 1.182-6.088 0-11.171l3.014-1.714Z"/></g><path d="m248.102 207.711-63.886 36.291-92.667-53.195 63.886-36.291 92.667 53.195Z" fill="#89ADFA"/><path opacity=".4" d="m248.102 207.711-63.886 36.291-92.667-53.195 63.886-36.291 92.667 53.195Z" fill="#000"/><path d="m248.102 195.054-92.667-53.195-61.817 35.286c-2.128 1.242-3.9 4.197-3.9 6.679v5.675c0 1.241.413 2.068 1.122 2.482l92.667 53.195c-.709-.414-1.123-1.241-1.123-2.482v-5.674c0-2.483 1.714-5.438 3.9-6.679l61.818-35.287Z" fill="#89ADFA"/><path opacity=".2" d="m248.102 195.054-92.667-53.195-61.817 35.286c-2.128 1.242-3.9 4.197-3.9 6.679v5.675c0 1.241.413 2.068 1.122 2.482l92.667 53.195c-.709-.414-1.123-1.241-1.123-2.482v-5.674c0-2.483 1.714-5.438 3.9-6.679l61.818-35.287Z" fill="#000"/><path d="M183.508 233.226c-.709 1.182-1.123 2.601-1.123 3.783v5.674c0 1.242.414 2.069 1.123 2.483l-92.667-53.195c-.709-.414-1.123-1.242-1.123-2.483v-5.674c0-1.241.414-2.601 1.123-3.783l92.667 53.195Z" fill="#89ADFA"/><path d="M183.508 233.226c-.709 1.182-1.123 2.601-1.123 3.783v5.674c0 1.242.414 2.069 1.123 2.483l-92.667-53.195c-.709-.414-1.123-1.242-1.123-2.483v-5.674c0-1.241.414-2.601 1.123-3.783l92.667 53.195Z" fill="#89ADFA"/><path d="M99.996 185.18c-1.24 5.437-1.24 8.038 0 12.057l3.192 1.833c-1.242-4.02-1.242-6.561 0-12.058l-3.192-1.832Z" fill="#89ADFA"/><path d="M99.996 185.18c-1.24 5.437-1.24 8.038 0 12.057l3.192 1.833c-1.242-4.02-1.242-6.561 0-12.058l-3.192-1.832Z" fill="#fff" opacity=".4"/><path d="m256.258 195.414-63.886 36.291-92.607-53.195 63.826-36.291 92.667 53.195Z" fill="#89ADFA"/><path opacity=".2" d="m256.258 195.414-63.886 36.291-92.607-53.195 63.826-36.291 92.667 53.195Z" fill="#fff"/><path d="m191.895 229.88 62.408-35.581c-1.064-3.015-1.005-3.901.236-7.861l-62.113 35.345c-.059 0-.827-.059-.531 8.097Z" fill="#F5F5F5"/><path d="M194.441 218.461c-2.128 1.242-3.901 4.197-3.901 6.679v5.202c0 2.482 1.714 3.428 3.901 2.246l61.817-35.227v-1.951l-61.285 34.813c-1.301.71-2.305.119-2.305-1.359l.059-4.669c0-1.478 1.064-3.251 2.305-4.02l61.226-34.754v-2.187l-61.817 35.227Z" fill="#89ADFA"/><path opacity=".4" d="M194.441 218.461c-2.128 1.242-3.901 4.197-3.901 6.679v5.202c0 2.482 1.714 3.428 3.901 2.246l61.817-35.227v-1.951l-61.285 34.813c-1.301.71-2.305.119-2.305-1.359l.059-4.669c0-1.478 1.064-3.251 2.305-4.02l61.226-34.754v-2.187l-61.817 35.227Z" fill="#fff"/><path d="m256.258 183.226-92.667-53.195-61.758 35.227c-2.127 1.241-3.9 4.197-3.9 6.679v5.201c0 1.242.413 2.069 1.122 2.483l92.667 53.195c-.709-.414-1.123-1.241-1.123-2.482v-5.202c0-2.482 1.714-5.437 3.901-6.679l61.758-35.227Z" fill="#89ADFA"/><path opacity=".85" d="m256.258 183.226-92.667-53.195-61.758 35.227c-2.127 1.241-3.9 4.197-3.9 6.679v5.201c0 1.242.413 2.069 1.122 2.483l92.667 53.195c-.709-.414-1.123-1.241-1.123-2.482v-5.202c0-2.482 1.714-5.437 3.901-6.679l61.758-35.227Z" fill="#fff"/><path d="M191.719 221.351c-.709 1.182-1.123 2.601-1.123 3.783v5.201c0 1.242.414 2.069 1.123 2.483l-92.667-53.195c-.71-.414-1.123-1.241-1.123-2.483v-5.201c0-1.241.414-2.601 1.123-3.783l92.667 53.195Z" fill="#89ADFA"/><path opacity=".6" d="M191.719 221.351c-.709 1.182-1.123 2.601-1.123 3.783v5.201c0 1.242.414 2.069 1.123 2.483l-92.667-53.195c-.71-.414-1.123-1.241-1.123-2.483v-5.201c0-1.241.414-2.601 1.123-3.783l92.667 53.195Z" fill="#fff"/><path d="M108.152 173.367c-1.241 5.438-1.241 7.625 0 11.585l3.192 1.832c-1.241-4.019-1.241-6.147 0-11.585l-3.192-1.832Z" fill="#fff"/><path d="M112.538 99.84v24.055c0 3.487-3.014 6.916-9.101 9.575-12.115 5.32-31.736 5.32-43.851 0-6.028-2.659-9.101-6.147-9.101-9.575V99.839c-.06-3.487 2.955-7.033 9.042-9.693 12.115-5.32 31.736-5.32 43.851 0 6.205 2.66 9.219 6.147 9.16 9.693Z" fill="#37474F"/><path d="M112.538 99.84c.059-3.488-2.955-7.034-9.101-9.694-12.115-5.32-31.736-5.32-43.851 0-6.146 2.66-9.16 6.206-9.042 9.693v10.994c0-2.719 2.423-4.669 9.574-2.069 11.76 4.315 18.32 11.467 30.258 14.954 9.87 2.896 18.675 1.773 22.162-1.832V99.839Z" fill="#263238"/><path d="M112.523 112.543v2.719c0 3.488-3.014 6.916-9.101 9.575-12.115 5.32-31.736 5.32-43.851 0-6.087-2.659-9.101-6.147-9.101-9.693v-2.66c0 3.488 3.014 6.916 9.101 9.575 12.115 5.32 31.736 5.32 43.851 0 6.087-2.541 9.101-6.028 9.101-9.516Z" fill="#89ADFA"/><path d="m32.863 92.156 48.698-22.992 48.697 22.992v3.842L81.56 116.449 32.864 95.998v-3.842Z" fill="#37474F"/><path opacity=".2" d="M81.563 116.441v-3.842l-48.698-20.45v3.841l48.697 20.451Z" fill="#89ADFA"/><path opacity=".2" d="M81.563 112.599 33.574 93.271l-.709 2.72v-3.843L81.562 112.6Z" fill="#89ADFA"/><path d="m81.56 69.164 48.698 22.992-48.698 20.451-48.697-20.45 48.698-22.993Z" fill="#455A64"/><path d="M107.685 110.999c0-.296.178-7.802-.591-9.93-.709-2.128-3.486-4.315-9.278-7.211-6.442-3.25-12.293-4.67-12.943-4.788l-.236 1.064c.65.118 6.442 1.478 12.706 4.67 5.437 2.778 8.097 4.787 8.747 6.619.532 1.596.532 7.448.532 9.576h1.063Z" fill="#89ADFA"/><path opacity=".8" d="M107.685 110.999c0-.296.178-7.802-.591-9.93-.709-2.128-3.486-4.315-9.278-7.211-6.442-3.25-12.293-4.67-12.943-4.788l-.236 1.064c.65.118 6.442 1.478 12.706 4.67 5.437 2.778 8.097 4.787 8.747 6.619.532 1.596.532 7.448.532 9.576h1.063Z" fill="#fff"/><path d="M101.37 133.879c0-5.615.945-15.603 3.841-18.559h3.901c2.955 2.896 3.841 12.944 3.841 18.559 0 .828-.591 1.715-1.714 2.365-1.123.65-2.6 1.005-4.078 1.005-1.477 0-2.954-.355-4.077-1.005-1.182-.65-1.714-1.537-1.714-2.365Z" fill="#89ADFA"/><path opacity=".5" d="M101.37 133.879c0-5.615.945-15.603 3.841-18.559h3.901c2.955 2.896 3.841 12.944 3.841 18.559 0 .828-.591 1.715-1.714 2.365-1.123.65-2.6 1.005-4.078 1.005-1.477 0-2.954-.355-4.077-1.005-1.182-.65-1.714-1.537-1.714-2.365Z" fill="#fff"/><path opacity=".6" d="M109.093 115.317c.237.236.414.473.65.768-.709.769-1.891 1.005-3.014 1.064-1.063.059-2.304 1.005-2.777 5.615-.473 4.61-1.478 10.462.354 12.235 1.832 1.773 5.91 1.773 8.038.414-.237.295-.591.532-1.005.768-1.123.65-2.6 1.005-4.078 1.005-1.477 0-2.955-.355-4.078-1.005-1.122-.65-1.713-1.537-1.713-2.364 0-5.615.945-15.604 3.841-18.559h3.782v.059Z" fill="#89ADFA"/><path d="M104.255 113.31a2.9 2.9 0 0 0 2.896 2.896 2.9 2.9 0 0 0 2.896-2.896 2.9 2.9 0 0 0-2.896-2.896 2.9 2.9 0 0 0-2.896 2.896Z" fill="#89ADFA"/><path opacity=".5" d="M104.255 113.31a2.9 2.9 0 0 0 2.896 2.896 2.9 2.9 0 0 0 2.896-2.896 2.9 2.9 0 0 0-2.896-2.896 2.9 2.9 0 0 0-2.896 2.896Z" fill="#fff"/><path opacity=".4" d="M105.435 110.938c-.709.768-.828 2.777.709 3.782s3.132.237 3.723-.532c-.354 1.182-1.477 2.01-2.777 2.01a2.9 2.9 0 0 1-2.896-2.896c.059-1.005.532-1.833 1.241-2.364Z" fill="#89ADFA"/><path d="M85.46 87.651c0-.59-.354-1.182-1.122-1.595-1.536-.887-4.019-.887-5.555 0-.769.413-1.123 1.004-1.123 1.595v1.3c0 .592.355 1.183 1.123 1.597 1.536.886 4.019.886 5.555 0 .768-.414 1.123-1.005 1.123-1.596v-1.3Z" fill="#263238"/><path d="M78.792 89.318c-1.536-.887-1.536-2.305 0-3.192 1.537-.887 4.019-.887 5.556 0 1.536.886 1.536 2.305 0 3.192-1.537.827-4.02.827-5.556 0ZM251.766 175.069c0 1.537-1.123 2.483-2.542 3.31l-57.857 33.395c-1.419.827-3.723.827-5.083 0l-93.316-53.845c-1.419-.828-2.542-1.892-2.542-3.369 0-1.537 1.123-2.483 2.542-3.31l57.857-33.395c1.419-.827 3.723-.827 5.083 0l93.316 53.904c1.419.769 2.542 1.833 2.542 3.31Z" fill="#37474F"/><path d="m249.225 174.715-57.857 33.394c-1.419.828-3.724.828-5.083 0l-93.316-53.904c-1.419-.827-1.419-2.128 0-2.955l57.857-33.395c1.418-.827 3.723-.827 5.083 0l93.316 53.904c1.419.769 1.419 2.128 0 2.956Z" fill="#455A64"/><path d="M188.826 208.706v3.723c.945 0 1.832-.177 2.541-.591l57.857-33.394c1.419-.828 2.542-1.774 2.542-3.31 0-1.419-1.005-2.424-2.364-3.251 1.123.768 1.123 2.069-.178 2.837l-57.857 33.395a5.76 5.76 0 0 1-2.541.591Z" fill="#263238"/><path d="M252.884 172.129c1.123-.532 1.419-1.418 1.537-2.955l5.023-73.35c.118-1.596-.945-3.487-2.364-4.315l-93.317-53.845c-1.418-.828-2.423-1.242-3.723-.355-1.359.946-1.359 1.36-1.418 2.955l-5.024 73.351c-.118 1.595.946 3.487 2.364 4.314l93.258 53.846c1.418.827 2.187 1.063 3.664.354Z" fill="#37474F"/><path d="M158.566 40.205c.118-1.536 1.359-2.187 2.777-1.36l93.258 53.905c.709.414 1.3 1.123 1.773 1.892l2.423-1.242c-.414-.768-1.064-1.477-1.773-1.891l-93.317-53.845c-1.418-.828-2.423-1.242-3.723-.355-1.3.887-1.3 1.36-1.418 2.896Z" fill="#455A64"/><path d="M249.397 171.879c1.301.768 2.069.827 3.487.295 1.064-.414 1.419-1.418 1.537-2.955l5.023-73.35c.059-.769-.177-1.655-.591-2.424l-2.423 1.242c.414.768.65 1.654.591 2.423l-5.023 73.35c-.118 1.359-1.36 2.128-2.601 1.419Z" fill="#263238"/><path d="m253.008 95.529-89.771-51.836c-.828-.473-1.596-.118-1.655.827l-4.669 68.445c-.059.945.591 2.128 1.419 2.6l89.77 51.777c.828.473 1.596.118 1.655-.827l4.669-68.445c.059-.886-.591-2.069-1.418-2.541Z" fill="#000"/><path d="M253.008 95.518c.827.473 1.477 1.655 1.418 2.6l-4.61 67.263-88.766-51.245c-.827-.472-1.477-1.655-1.418-2.6l4.609-67.263 88.767 51.245Z" fill="#89ADFA"/><path opacity=".8" d="M253.008 95.518c.827.473 1.477 1.655 1.418 2.6l-4.61 67.263-88.766-51.245c-.827-.472-1.477-1.655-1.418-2.6l4.609-67.263 88.767 51.245Z" fill="#fff"/><path d="m241.304 172.187-85.693-49.53c-.65-.355-1.773-.355-2.423 0l-3.132 1.773c-.65.354-.65 1.005 0 1.418l85.752 49.472c.65.354 1.773.354 2.423 0l3.132-1.773c.65-.355.65-1.005-.059-1.36ZM232.908 177.135l-85.752-49.531c-.65-.354-1.655-.413-2.187-.118l-22.339 12.885c-.532.296-.473.887.236 1.3l85.634 49.413c.65.354 1.655.414 2.187.118l22.398-12.826c.591-.295.473-.886-.177-1.241Z" fill="#263238"/><path d="m158.627 148.41-2.659-1.537c-.118-.059-.118-.177 0-.236l2.541-1.478a.506.506 0 0 1 .414 0l2.659 1.537c.118.059.118.177 0 .236l-2.541 1.478a.506.506 0 0 1-.414 0Zm3.901-5.379 2.659 1.537c.118.059.118.177 0 .236l-2.541 1.478a.506.506 0 0 1-.414 0l-2.659-1.537c-.118-.059-.118-.177 0-.236l2.541-1.478a.506.506 0 0 1 .414 0Zm8.687 5.024 4.551 2.601c.118.059.118.177 0 .236l-2.541 1.478a.506.506 0 0 1-.414 0l-4.551-2.601c-.118-.059-.118-.177 0-.236l2.542-1.478a.504.504 0 0 1 .413 0Zm-4.728-2.719 2.66 1.537c.118.059.118.178 0 .237l-2.541 1.477a.506.506 0 0 1-.414 0l-2.66-1.536c-.118-.06-.118-.178 0-.237l2.542-1.478a.504.504 0 0 1 .413 0Zm10.52 6.088 2.659 1.537c.119.059.119.177 0 .237l-2.541 1.477a.506.506 0 0 1-.414 0l-2.659-1.537c-.118-.059-.118-.177 0-.236l2.541-1.478c.118-.118.296-.059.414 0Zm3.9 2.246 2.66 1.537c.118.059.118.177 0 .237l-2.541 1.477a.506.506 0 0 1-.414 0l-2.659-1.537c-.119-.059-.119-.177 0-.236l2.541-1.478a.504.504 0 0 1 .413 0Zm-10.046 6.029-2.66-1.537c-.118-.059-.118-.177 0-.236l2.542-1.478a.504.504 0 0 1 .413 0l2.66 1.537c.118.059.118.177 0 .236l-2.542 1.478a.285.285 0 0 1-.413 0Zm3.9 2.305-2.659-1.537c-.118-.059-.118-.177 0-.236l2.541-1.478a.506.506 0 0 1 .414 0l2.659 1.537c.118.059.118.177 0 .237l-2.541 1.477a.506.506 0 0 1-.414 0Zm3.96 2.246-2.66-1.536c-.118-.06-.118-.178 0-.237l2.542-1.478a.504.504 0 0 1 .413 0l2.66 1.537c.118.059.118.178 0 .237l-2.541 1.477a.506.506 0 0 1-.414 0Zm3.9 2.246-2.659-1.536c-.118-.06-.118-.178 0-.237l2.541-1.478a.506.506 0 0 1 .414 0l2.659 1.537c.118.059.118.178 0 .237l-2.541 1.477c-.118.118-.295.059-.414 0Zm-20.093-15.781-2.66-1.537c-.118-.059-.118-.177 0-.236l2.542-1.478a.504.504 0 0 1 .413 0l2.66 1.537c.118.059.118.177 0 .236l-2.542 1.478a.504.504 0 0 1-.413 0Zm4.373 6.738-5.969-3.428c-.118-.059-.118-.177 0-.236l6.265-3.606a.504.504 0 0 1 .413 0l3.073 1.773c.119.059.119.178 0 .237l-3.309 1.891c-.118.059-.118.177 0 .237l2.482 1.418c.118.059.118.177 0 .236l-2.541 1.478a.506.506 0 0 1-.414 0Zm17.966-1.537 2.66 1.537c.118.059.118.177 0 .237l-2.542 1.477a.504.504 0 0 1-.413 0l-2.66-1.537c-.118-.059-.118-.177 0-.236l2.541-1.478a.506.506 0 0 1 .414 0Zm3.901 2.305 2.659 1.537c.118.059.118.178 0 .237l-2.541 1.477a.506.506 0 0 1-.414 0l-2.659-1.536c-.119-.06-.119-.178 0-.237l2.541-1.478c.118-.118.295-.059.414 0Zm21.689 24.175a.506.506 0 0 1-.414 0l-2.659-1.537c-.119-.059-.119-.177 0-.236l2.541-1.478a.506.506 0 0 1 .414 0l2.659 1.537c.118.059.118.177 0 .236l-2.541 1.478Zm9.692-6.088 2.659 1.537c.119.059.119.177 0 .236l-2.541 1.478a.506.506 0 0 1-.414 0l-2.659-1.537c-.118-.059-.118-.177 0-.237l2.541-1.477a.506.506 0 0 1 .414 0Zm-4.964 4.551a.506.506 0 0 1-.414 0l-2.659-1.537c-.119-.059-.119-.177 0-.236l2.541-1.478a.504.504 0 0 1 .413 0l2.66 1.537c.118.059.118.177 0 .236l-2.541 1.478Zm-10.815 2.423-2.66-1.536c-.118-.06-.118-.178 0-.237l2.541-1.478a.506.506 0 0 1 .414 0l2.66 1.537c.118.059.118.178 0 .237l-2.542 1.477c-.118.119-.295.059-.413 0Zm4.314 2.305a.499.499 0 0 1-.414 0l-2.659-1.536c-.118-.059-.118-.178 0-.237l2.541-1.477a.499.499 0 0 1 .414 0l2.659 1.536c.118.059.118.178 0 .237l-2.541 1.477Zm7.564-11.525 2.66 1.537c.118.059.118.177 0 .236l-2.541 1.478a.506.506 0 0 1-.414 0l-2.659-1.537c-.119-.059-.119-.177 0-.237l2.541-1.477a.504.504 0 0 1 .413 0Zm-19.62-11.348 2.659 1.536c.118.059.118.178 0 .237l-2.541 1.477a.506.506 0 0 1-.414 0l-2.659-1.536c-.118-.06-.118-.178 0-.237l2.541-1.477a.499.499 0 0 1 .414 0Zm15.661 9.102 2.659 1.537c.118.059.118.177 0 .236l-2.541 1.478a.506.506 0 0 1-.414 0l-2.659-1.537c-.118-.059-.118-.177 0-.237l2.541-1.477c.118-.118.296-.059.414 0Zm-19.621-11.349 2.66 1.537c.118.059.118.178 0 .237l-2.542 1.477a.504.504 0 0 1-.413 0l-2.66-1.536c-.118-.06-.118-.178 0-.237l2.541-1.478a.506.506 0 0 1 .414 0Zm7.86 4.552 2.66 1.536c.118.059.118.178 0 .237l-2.542 1.477a.496.496 0 0 1-.413 0l-2.66-1.536c-.118-.059-.118-.178 0-.237l2.542-1.477c.118-.119.295-.059.413 0Zm3.901 2.246 2.659 1.536c.118.06.118.178 0 .237l-2.541 1.477a.499.499 0 0 1-.414 0l-2.659-1.536c-.118-.059-.118-.178 0-.237l2.541-1.477c.177-.059.355-.059.414 0Zm3.959 2.246 2.66 1.536c.118.06.118.178 0 .237l-2.541 1.477a.499.499 0 0 1-.414 0l-2.66-1.536c-.118-.059-.118-.178 0-.237l2.542-1.477a.504.504 0 0 1 .413 0Zm-17.907 1.536-2.659-1.536c-.118-.059-.118-.178 0-.237l2.541-1.477a.499.499 0 0 1 .414 0l2.659 1.536c.119.059.119.178 0 .237l-2.541 1.477a.499.499 0 0 1-.414 0Zm-36.641-32.981 2.66 1.537c.118.059.118.178 0 .237l-2.542 1.477a.504.504 0 0 1-.413 0l-2.66-1.537c-.118-.059-.118-.177 0-.236l2.542-1.478c.177-.059.354-.059.413 0Zm4.787 2.719 2.66 1.537c.118.059.118.177 0 .236l-2.542 1.478a.504.504 0 0 1-.413 0l-2.66-1.537c-.118-.059-.118-.177 0-.236l2.542-1.478a.504.504 0 0 1 .413 0Zm-8.687-5.024 2.659 1.537c.118.059.118.177 0 .236l-2.541 1.478a.506.506 0 0 1-.414 0l-2.659-1.537c-.118-.059-.118-.177 0-.236l2.541-1.478a.506.506 0 0 1 .414 0Zm21.689 20.155-2.659-1.536c-.119-.059-.119-.178 0-.237l2.541-1.477a.496.496 0 0 1 .413 0l2.66 1.536c.118.059.118.178 0 .237l-2.541 1.477c-.119.119-.296.059-.414 0Zm-26.003-22.401a.504.504 0 0 1 .413 0l2.66 1.537c.118.059.118.177 0 .236l-2.542 1.478a.504.504 0 0 1-.413 0l-2.66-1.537c-.118-.059-.118-.177 0-.236l2.542-1.478Zm40.896 35.286-2.66-1.536c-.118-.059-.118-.178 0-.237l2.542-1.477a.496.496 0 0 1 .413 0l2.66 1.536c.118.059.118.178 0 .237l-2.541 1.477a.499.499 0 0 1-.414 0Zm-48.106-27.779-2.66-1.537c-.118-.059-.118-.177 0-.236l2.541-1.478a.506.506 0 0 1 .414 0l2.659 1.537c.119.059.119.177 0 .236l-2.541 1.478a.504.504 0 0 1-.413 0Zm7.623.118-2.659-1.537c-.118-.059-.118-.177 0-.236l2.541-1.478a.506.506 0 0 1 .414 0l2.659 1.537c.118.059.118.177 0 .236l-2.541 1.478a.506.506 0 0 1-.414 0Zm-4.078-5.497a.506.506 0 0 1 .414 0l2.66 1.537c.118.059.118.177 0 .236l-2.542 1.478a.504.504 0 0 1-.413 0l-2.66-1.537c-.118-.059-.118-.177 0-.236l2.541-1.478Zm-.827-.473-6.264 3.606a.506.506 0 0 1-.414 0l-2.659-1.537c-.119-.059-.119-.177 0-.236l6.264-3.606a.506.506 0 0 1 .414 0l2.659 1.537c.118.059.118.177 0 .236Zm9.042 5.024 2.66 1.537c.118.059.118.177 0 .236l-2.542 1.478a.504.504 0 0 1-.413 0l-2.66-1.537c-.118-.059-.118-.177 0-.236l2.541-1.478c.178-.118.296-.118.414 0Zm29.549 17.023 2.66 1.536c.118.06.118.178 0 .237l-2.541 1.477a.499.499 0 0 1-.414 0l-2.659-1.536c-.119-.059-.119-.178 0-.237l2.541-1.477a.504.504 0 0 1 .413 0Zm-36.995-13.949a.506.506 0 0 1-.414 0l-2.659-1.537c-.119-.059-.119-.177 0-.236l2.541-1.478a.506.506 0 0 1 .414 0l2.659 1.537c.118.059.118.177 0 .236l-2.541 1.478Zm33.095 11.703 2.659 1.536c.119.06.119.178 0 .237l-2.541 1.477a.499.499 0 0 1-.414 0l-2.659-1.536c-.118-.059-.118-.178 0-.237l2.541-1.477a.506.506 0 0 1 .414 0Zm30.731 25.179a.504.504 0 0 1-.413 0l-2.66-1.537c-.118-.059-.118-.177 0-.236l2.541-1.478a.506.506 0 0 1 .414 0l2.66 1.537c.118.059.118.177 0 .236l-2.542 1.478Zm4.551-4.788 2.659 1.537c.119.059.119.177 0 .236l-2.541 1.478a.506.506 0 0 1-.414 0l-2.659-1.537c-.118-.059-.118-.177 0-.236l2.541-1.478c.118-.118.296-.059.414 0Zm-8.865 2.483-2.659-1.537c-.119-.059-.119-.177 0-.237l2.541-1.477a.506.506 0 0 1 .414 0l2.659 1.537c.118.059.118.177 0 .236l-2.541 1.478a.506.506 0 0 1-.414 0Zm-3.9-2.246-2.66-1.537c-.118-.059-.118-.178 0-.237l2.482-1.477a.506.506 0 0 1 .414 0l2.659 1.536c.119.06.119.178 0 .237l-2.541 1.478c-.118.059-.295.059-.354 0Zm-3.96-2.306-2.659-1.536c-.119-.059-.119-.178 0-.237l2.541-1.477a.504.504 0 0 1 .413 0l2.66 1.536c.118.059.118.178 0 .237l-2.541 1.477c-.119.119-.296.06-.414 0Zm12.824-.236 2.66 1.537c.118.059.118.177 0 .236l-2.541 1.478a.506.506 0 0 1-.414 0l-2.66-1.537c-.118-.059-.118-.177 0-.236l2.542-1.478a.504.504 0 0 1 .413 0Zm-3.959-2.246 2.659 1.537c.118.059.118.177 0 .236l-2.541 1.478a.506.506 0 0 1-.414 0l-2.659-1.537c-.118-.059-.118-.177 0-.236l2.541-1.478a.506.506 0 0 1 .414 0Zm-15.661-9.043 2.659 1.537c.118.059.118.177 0 .236l-2.541 1.478a.506.506 0 0 1-.414 0l-2.659-1.537c-.119-.059-.119-.177 0-.237l2.541-1.477a.506.506 0 0 1 .414 0Zm3.9 2.246 2.66 1.537c.118.059.118.177 0 .236l-2.542 1.478a.504.504 0 0 1-.413 0l-2.66-1.537c-.118-.059-.118-.177 0-.237l2.541-1.477a.506.506 0 0 1 .414 0Zm-7.86-4.551 2.659 1.536c.119.06.119.178 0 .237l-2.541 1.478a.504.504 0 0 1-.413 0l-2.66-1.537c-.118-.059-.118-.178 0-.237l2.541-1.477c.178-.059.296-.059.414 0Zm15.72 9.102 2.66 1.537c.118.059.118.177 0 .236l-2.542 1.478a.504.504 0 0 1-.413 0l-2.66-1.537c-.118-.059-.118-.177 0-.236l2.542-1.478c.118-.118.295-.059.413 0Zm-3.9-2.305 2.659 1.537c.118.059.118.177 0 .236l-2.541 1.478a.506.506 0 0 1-.414 0l-2.659-1.537c-.118-.059-.118-.177 0-.236l2.541-1.478a.506.506 0 0 1 .414 0Zm4.964 14.776-2.659-1.536c-.119-.06-.119-.178 0-.237l2.541-1.478a.506.506 0 0 1 .414 0l2.659 1.537c.118.059.118.178 0 .237l-2.541 1.477a.506.506 0 0 1-.414 0Zm20.685-1.005 2.541-1.477a.504.504 0 0 1 .413 0l2.66 1.537c.118.059.118.177 0 .236l-2.541 1.478a.506.506 0 0 1-.414 0l-2.659-1.537c-.06-.059-.06-.177 0-.237Zm-5.083 1.301 2.541-1.478a.506.506 0 0 1 .414 0l4.137 2.364c.118.06.118.178 0 .237l-2.541 1.477a.499.499 0 0 1-.414 0l-4.137-2.364c-.118-.059-.118-.177 0-.236Zm8.924-4.197 2.541-1.477a.506.506 0 0 1 .414 0l3.309 1.891c.119.059.119.177 0 .236l-2.541 1.478a.506.506 0 0 1-.414 0l-3.309-1.891c-.059-.059-.118-.178 0-.237Zm-2.541-1.477a.506.506 0 0 1-.414 0l-2.659-1.537c-.119-.059-.119-.177 0-.237l2.541-1.477a.506.506 0 0 1 .414 0l2.659 1.537c.118.059.118.177 0 .236l-2.541 1.478Zm-11.111 7.211 2.541-1.478a.506.506 0 0 1 .414 0l5.142 2.955c.118.059.118.178 0 .237l-2.542 1.477a.504.504 0 0 1-.413 0l-5.142-2.955a.18.18 0 0 1 0-.236Zm-1.773 3.191 2.541-1.477a.506.506 0 0 1 .414 0l3.31 1.891c.118.059.118.177 0 .236l-2.542 1.478a.504.504 0 0 1-.413 0l-3.31-1.891c-.118-.059-.118-.178 0-.237Zm-16.252-27.247a.506.506 0 0 1-.414 0l-2.659-1.537c-.118-.059-.118-.178 0-.237l2.541-1.477a.506.506 0 0 1 .414 0l2.659 1.536c.119.06.119.178 0 .237l-2.541 1.478Zm7.86 4.551a.504.504 0 0 1-.413 0l-2.66-1.537c-.118-.059-.118-.177 0-.237l2.541-1.477a.506.506 0 0 1 .414 0l2.659 1.537c.119.059.119.177 0 .236l-2.541 1.478Zm17.375 10.048a.504.504 0 0 1-.413 0l-2.66-1.537c-.118-.059-.118-.177 0-.237l2.541-1.477a.506.506 0 0 1 .414 0l2.659 1.537c.119.059.119.177 0 .236l-2.541 1.478Zm-21.334-12.294a.506.506 0 0 1-.414 0l-2.66-1.537c-.118-.059-.118-.177 0-.237l2.542-1.477a.504.504 0 0 1 .413 0l2.66 1.537c.118.059.118.177 0 .236l-2.541 1.478Zm7.86 4.492a.506.506 0 0 1-.414 0l-2.659-1.537c-.119-.059-.119-.177 0-.236l2.541-1.478a.506.506 0 0 1 .414 0l2.659 1.537c.118.059.118.177 0 .236l-2.541 1.478Zm2.541 20.628a.499.499 0 0 1 .414 0l4.137 2.364c.118.059.118.177 0 .236l-2.542 1.478a.504.504 0 0 1-.413 0l-4.137-2.364c-.118-.059-.118-.178 0-.237l2.541-1.477Zm3.073-17.377a.506.506 0 0 1-.414 0l-2.659-1.537c-.118-.059-.118-.178 0-.237l2.541-1.477a.506.506 0 0 1 .414 0l2.659 1.536c.119.06.119.178 0 .237l-2.541 1.478Zm3.96 2.305a.506.506 0 0 1-.414 0l-2.659-1.537c-.119-.059-.119-.177 0-.237l2.541-1.477a.504.504 0 0 1 .413 0l2.66 1.537c.118.059.118.177 0 .236l-2.541 1.478Zm-79.724-26.893a.496.496 0 0 1 .413 0l6.619 3.841c.119.06.119.178 0 .237l-2.541 1.477a.499.499 0 0 1-.414 0l-6.619-3.841c-.118-.06-.118-.178 0-.237l2.542-1.477Zm8.687 4.964a.506.506 0 0 1 .414 0l2.659 1.537c.118.059.118.177 0 .237l-2.541 1.477a.506.506 0 0 1-.414 0l-2.659-1.537c-.118-.059-.118-.177 0-.236l2.541-1.478Zm52.953 29.553-2.66-1.536c-.118-.06-.118-.178 0-.237l2.541-1.478a.506.506 0 0 1 .414 0l2.659 1.537c.119.059.119.178 0 .237l-2.541 1.477a.504.504 0 0 1-.413 0Zm-45.093-25.001a.499.499 0 0 1 .414 0l2.659 1.536c.119.059.119.178 0 .237l-2.541 1.477a.506.506 0 0 1-.414 0l-2.659-1.536c-.118-.059-.118-.178 0-.237l2.541-1.477Zm-20.448-11.822a.506.506 0 0 1 .414 0l2.659 1.537c.118.059.118.177 0 .237l-2.541 1.477a.506.506 0 0 1-.414 0l-2.659-1.537c-.118-.059-.118-.177 0-.236l2.541-1.478Zm-6.501-.768 6.265-3.605a.496.496 0 0 1 .413 0l2.66 1.536c.118.059.118.178 0 .237l-6.265 3.605a.504.504 0 0 1-.413 0l-2.66-1.537c-.118-.059-.118-.177 0-.236Zm41.606 21.042a.504.504 0 0 1 .413 0l3.31 1.891c.118.059.118.177 0 .236l-2.541 1.478a.506.506 0 0 1-.414 0l-3.31-1.891c-.118-.059-.118-.178 0-.237l2.542-1.477Zm-9.929-5.734a.506.506 0 0 1 .414 0l4.137 2.365c.118.059.118.177 0 .236l-2.542 1.478a.504.504 0 0 1-.413 0l-4.137-2.365c-.118-.059-.118-.177 0-.236l2.541-1.478Zm18.971 10.994a.504.504 0 0 1 .413 0l22.103 12.767c.119.059.119.177 0 .236l-2.541 1.478a.506.506 0 0 1-.414 0l-22.102-12.767c-.119-.059-.119-.177 0-.236l2.541-1.478Zm23.344 13.476a.504.504 0 0 1 .413 0l3.31 1.892c.118.059.118.177 0 .236l-2.541 1.478a.506.506 0 0 1-.414 0l-3.309-1.892c-.119-.059-.119-.177 0-.236l2.541-1.478ZM170.624 164.9a.506.506 0 0 1 .414 0l3.31 1.892c.118.059.118.177 0 .236l-2.542 1.478a.504.504 0 0 1-.413 0l-3.31-1.892c-.118-.059-.118-.177 0-.236l2.541-1.478Zm32.386 18.678a.506.506 0 0 1 .414 0l3.31 1.891c.118.059.118.178 0 .237l-2.542 1.477a.504.504 0 0 1-.413 0l-3.31-1.891c-.118-.059-.118-.177 0-.237l2.541-1.477Zm-41.487-23.938a.506.506 0 0 1 .414 0l3.309 1.891c.119.06.119.178 0 .237l-2.541 1.477a.499.499 0 0 1-.414 0l-3.309-1.891c-.118-.059-.118-.177 0-.236l2.541-1.478Zm-14.065-8.097a.496.496 0 0 1 .413 0l2.66 1.536c.118.059.118.178 0 .237l-2.541 1.477a.506.506 0 0 1-.414 0l-2.66-1.536c-.118-.06-.118-.178 0-.237l2.542-1.477Zm-8.747-6.147-2.659-1.537c-.119-.059-.119-.178 0-.237l2.541-1.477a.506.506 0 0 1 .414 0l2.659 1.536c.118.06.118.178 0 .237l-2.541 1.478a.506.506 0 0 1-.414 0Zm16.016.768-2.66-1.537c-.118-.059-.118-.177 0-.236l2.542-1.478a.504.504 0 0 1 .413 0l2.66 1.537c.118.059.118.177 0 .236l-2.542 1.478c-.177.059-.354.059-.413 0Zm10.401 14.481-7.86-4.551c-.118-.059-.118-.178 0-.237l2.541-1.477a.506.506 0 0 1 .414 0l7.86 4.551c.118.059.118.177 0 .236l-2.541 1.478a.506.506 0 0 1-.414 0Zm-22.103-13.003a.504.504 0 0 1-.413 0l-2.66-1.537c-.118-.059-.118-.178 0-.237l2.541-1.477a.506.506 0 0 1 .414 0l2.659 1.536c.119.06.119.178 0 .237l-2.541 1.478Zm3.251-2.128-2.66-1.537c-.118-.059-.118-.177 0-.236l2.541-1.478a.506.506 0 0 1 .414 0l2.66 1.537c.118.059.118.177 0 .236l-2.542 1.478c-.118.118-.295.059-.413 0Zm22.753 17.377-2.66-1.537c-.118-.059-.118-.177 0-.236l2.541-1.478a.506.506 0 0 1 .414 0l2.66 1.537c.118.059.118.177 0 .236l-2.542 1.478c-.118.118-.295.059-.413 0Zm-17.375-10.225a.506.506 0 0 1-.414 0l-2.659-1.537c-.119-.059-.119-.178 0-.237l2.541-1.477a.504.504 0 0 1 .413 0l2.66 1.536c.118.06.118.178 0 .237l-2.541 1.478Zm36.995 21.573-2.659-1.537c-.118-.059-.118-.177 0-.236l2.541-1.478a.506.506 0 0 1 .414 0l2.659 1.537c.119.059.119.177 0 .236l-2.541 1.478a.506.506 0 0 1-.414 0Zm-3.9-2.246-2.66-1.537c-.118-.059-.118-.177 0-.236l2.542-1.478a.504.504 0 0 1 .413 0l2.66 1.537c.118.059.118.177 0 .236l-2.541 1.478a.506.506 0 0 1-.414 0Zm7.86 4.492-2.659-1.537c-.119-.059-.119-.177 0-.236l2.541-1.478a.504.504 0 0 1 .413 0l2.66 1.537c.118.059.118.177 0 .236l-2.541 1.478c-.178.118-.355.059-.414 0Zm-15.72-9.043-2.66-1.537c-.118-.059-.118-.177 0-.236l2.542-1.478a.504.504 0 0 1 .413 0l2.66 1.537c.118.059.118.177 0 .236l-2.542 1.478a.504.504 0 0 1-.413 0Zm3.9 2.246-2.659-1.537c-.118-.059-.118-.177 0-.236l2.541-1.478a.506.506 0 0 1 .414 0l2.659 1.537c.118.059.118.177 0 .236l-2.541 1.478c-.118.118-.296.059-.414 0Zm-7.801-4.492-2.659-1.537c-.118-.059-.118-.177 0-.236l2.541-1.478a.506.506 0 0 1 .414 0l2.659 1.537c.118.059.118.177 0 .236l-2.541 1.478c-.177.059-.296.059-.414 0Zm-21.453-31.503a.504.504 0 0 1-.413 0l-2.66-1.537c-.118-.059-.118-.177 0-.237l.709-.413a.506.506 0 0 1 .414 0l2.66 1.536c.118.06.118.178 0 .237l-.71.414Zm19.503 12.294a.506.506 0 0 1-.414 0l-2.659-1.537c-.118-.059-.118-.177 0-.237l2.541-1.477a.506.506 0 0 1 .414 0l2.659 1.537c.118.059.118.177 0 .236l-2.541 1.478Zm-7.801-4.492a.506.506 0 0 1-.414 0l-2.659-1.537c-.118-.059-.118-.177 0-.237l2.541-1.477a.506.506 0 0 1 .414 0l2.659 1.536c.118.06.118.178 0 .237l-2.541 1.478Zm12.588 7.27a.506.506 0 0 1-.414 0l-2.659-1.537c-.118-.059-.118-.177 0-.237l2.541-1.477a.506.506 0 0 1 .414 0l2.659 1.537c.118.059.118.177 0 .236l-2.541 1.478Zm-8.688-5.024a.504.504 0 0 1-.413 0l-2.66-1.537c-.118-.059-.118-.177 0-.237l2.542-1.477a.504.504 0 0 1 .413 0l2.66 1.537c.118.059.118.177 0 .236l-2.542 1.478Zm16.548 9.575a.506.506 0 0 1-.414 0l-2.659-1.537c-.118-.059-.118-.177 0-.236l2.541-1.478a.506.506 0 0 1 .414 0l2.659 1.537c.119.059.119.177 0 .236l-2.541 1.478Zm-3.9-2.246a.506.506 0 0 1-.414 0l-2.66-1.537c-.118-.059-.118-.177 0-.236l2.542-1.478a.504.504 0 0 1 .413 0l2.66 1.537c.118.059.118.177 0 .236l-2.541 1.478Zm-20.389-12.885a.506.506 0 0 1-.414 0l-2.66-1.537c-.118-.059-.118-.177 0-.237l.71-.413a.504.504 0 0 1 .413 0l2.66 1.536c.118.06.118.178 0 .237l-.709.414Zm-11.761-6.798a.499.499 0 0 1-.414 0l-2.659-1.536c-.118-.059-.118-.178 0-.237l.709-.413a.499.499 0 0 1 .414 0l2.659 1.536c.118.059.118.178 0 .237l-.709.413Zm-5.378 3.133a.506.506 0 0 1-.414 0l-2.659-1.537c-.118-.059-.118-.177 0-.236l2.541-1.478a.506.506 0 0 1 .414 0l2.659 1.537c.118.059.118.177 0 .236l-2.541 1.478Zm-7.506 8.63-2.659-1.537c-.118-.059-.118-.178 0-.237l2.541-1.477a.506.506 0 0 1 .414 0l2.659 1.536c.119.06.119.178 0 .237l-2.541 1.478a.506.506 0 0 1-.414 0Zm20.744-7.211a.506.506 0 0 1-.414 0l-2.659-1.537c-.118-.059-.118-.177 0-.237l.709-.413a.506.506 0 0 1 .414 0l2.659 1.536c.118.06.118.178 0 .237l-.709.414Zm32.15 19.623a.506.506 0 0 1-.414 0l-2.659-1.537c-.119-.059-.119-.177 0-.236l2.541-1.478a.506.506 0 0 1 .414 0l2.659 1.537c.118.059.118.177 0 .236l-2.541 1.478Z" fill="#455A64"/><path d="m176.352 177.91-.532.355-15.543 8.925-27.54-15.9-.591-.354 16.075-9.28 28.131 16.254Z" fill="#263238"/><path d="m133.095 171.474 15.129-8.747 27.245 15.722-15.189 8.747-27.185-15.722Z" fill="#37474F"/><path d="M211.865 17.622c4.846-3.192 11.11-2.601 14.479-.06 4.728 3.606 6.383 7.566 7.269 15.368 1.182 10.994 2.423 14.185 3.723 16.668 1.419 2.719 3.546 4.019 5.437 4.67a6.453 6.453 0 0 1-6.264.236c1.123 5.32 2.659 9.752 1.3 15.426-.945 3.783-2.896 8.098-5.792 10.757-2.482 2.306-6.028 3.015-9.042 4.315 2.01-4.315 3.074-8.393 1.714-13.24-1.536-5.378-5.141-9.93-6.737-15.308-2.187-7.447-4.728-15.19-5.378-22.992-.473-6.62-.709-11.348-.709-15.84Z" fill="#263238"/><path d="M214.286 18.574c.769-.709 4.196-.236 6.265 2.187 2.068 2.483 3.309 6.03.768 7.98-2.305 1.832-11.465-7.743-7.033-10.167Z" fill="#89ADFA"/><path d="M186.22 29.382c-1.714-.65-2.423-2.837-1.891-4.55.532-1.774 1.95-3.074 3.427-4.08 3.428-2.245 7.683-3.19 11.761-2.718 3.605-1.182 7.742-1.418 11.82-.591 4.255.887 9.042 4.906 9.456 11.053 6.087 1.418 8.746 8.866 4.964 16.845-2.719 5.792-8.865 9.752-9.633 12.648l-22.99-17.908c-.886 1.418-3.664 1.477-4.787.886-1.123-.532-1.832-2.6-1.063-3.605-2.069.177-4.137-1.478-4.374-3.547-.354-2.01 1.3-4.137 3.31-4.433Z" fill="#263238"/><path d="M211.275 17.445a12.213 12.213 0 0 1 6.382 4.079 12.155 12.155 0 0 1 1.95 3.25c.473 1.182.71 2.424.828 3.724v.177l.177.06a8.071 8.071 0 0 1 3.782 2.127c1.005 1.005 1.773 2.365 2.187 3.724.827 2.837.591 5.91-.414 8.689-.945 2.837-2.659 5.319-4.609 7.565l-3.014 3.37c-.473.59-1.005 1.122-1.478 1.772-.413.591-.886 1.241-1.064 2.01.237-.71.71-1.36 1.182-1.892.473-.59 1.005-1.123 1.537-1.654 1.064-1.064 2.128-2.128 3.132-3.251 1.005-1.123 2.01-2.306 2.837-3.547.886-1.24 1.477-2.66 2.009-4.078.532-1.419.828-2.955.946-4.492s0-3.074-.473-4.551c-.473-1.478-1.241-2.896-2.364-3.96a8.53 8.53 0 0 0-4.019-2.246l.178.236c-.178-2.66-1.3-5.201-3.073-7.152a12.088 12.088 0 0 0-3.014-2.482 9.698 9.698 0 0 0-3.605-1.478Z" fill="#000"/><path d="M126.955 67.27c-1.242-1.063-1.478-1.359-3.192-2.718-1.241-1.005-2.246-1.833-2.6-2.424-.65-1.182-.059-2.305.473-2.127 1.063.354 2.305 1.3 4.787 2.955 2.718 1.832 4.609 3.724 4.787 3.428 0 0-.591-.946-2.896-3.428-3.31-3.606-3.96-4.256-4.61-5.379-1.3-2.423.532-2.778 1.3-2.305.887.591 1.891 1.655 4.255 4.02 2.601 2.54 4.846 5.142 5.024 5.023.177-.177-3.369-4.078-5.496-6.915-2.01-2.66-.71-3.783-.119-3.842.591-.118 1.301.71 2.246 1.714 1.714 1.833 6.737 8.039 7.801 9.22 1.064 1.242 1.832 1.597 2.01-.295.118-1.773.059-3.724.827-4.906 1.3-2.068 2.718-1.536 2.778-.177 0 1.95.472 4.138.827 7.27.177 1.596.177 3.546.177 4.67.178 3.96 3.546 5.97 6.265 7.92 2.777 1.891 10.283 6.206 10.283 6.206s14.006-14.422 18.084-17.968c4.846-4.197 6.264-4.493 13.12-4.433l-9.692 24.942s-13.179 12.176-17.671 14.836c-4.491 2.6-6.323 1.182-11.76-3.665-4.196-3.723-11.052-12.176-12.707-14.067-1.654-1.891-2.364-3.073-4.314-3.783-2.6-.945-3.959-2.246-5.732-4.255-.828-.946-2.187-2.897-3.487-4.138-2.069-2.127-4.669-3.96-5.437-4.55-1.123-.947-1.3-2.956.295-2.306 3.073 1.182 6.087 3.783 6.206 3.605.177-.413-.946-1.418-1.832-2.127Z" fill="#FFBDA7"/><path d="M139.719 67.383c-1.419 2.069-1.714 6.915-.355 9.811-2.777-2.719-2.482-7.683.355-9.811ZM161.935 85.061c2.304 1.537 5.082 5.911 4.314 10.403 1.004-3.31 1.891-7.506-3.192-11.644l-1.122 1.242Z" fill="#F0997A"/><path d="m228.887 69.93-5.378-2.186s-8.096-2.069-14.774-3.547c-7.033-.886-13.179-1.536-13.179-1.536l-2.423-.06s-5.319 4.67-9.22 8.985c-3.9 4.314-7.328 7.92-7.505 13.358-.296 7.388 4.432 10.047 4.432 10.047l-.295 9.398-6.147 17.436 59.454 34.4c-1.832-21.219-6.501-24.706-9.161-39.364.532-7.684 4.314-18.205 4.965-23.584 2.245-18.559-.769-23.346-.769-23.346Z" fill="#89ADFA"/><path d="M216.296 60.71c-.236-2.601-.591-7.743-.591-7.743.651.886 4.137 2.068 6.501-1.3 2.778-3.843 2.305-6.62.414-8.512-2.187-2.128-6.028-1.596-7.624 1.773-1.004 2.364-2.955-.414-1.004-4.137.65-6.561-7.683-2.187-12.884-15.84-5.26-.296-8.392 1.181-10.933 5.555-1.182 1.95-2.541 4.788-2.246 13.063.355 10.461 1.95 13.771 5.615 15.544 1.713.828 3.427 1.123 6.678.887l.059 1.005c0 .236 0 .473-.059.71-.059.413-.296 1.063-1.123 1.122-1.655.118-3.605-.118-3.605-.118s-2.66 6.679 6.205 8.57c12.47 2.66 21.808-3.546 21.808-3.546s-2.01-1.005-3.783-2.305c-2.777-1.95-3.25-3.133-3.428-4.729Z" fill="#FFBDA7"/><path d="M219.727 51.129c0 .709-.591 1.24-1.301 1.24-.709 0-1.241-.59-1.241-1.3 0-.709.591-1.24 1.3-1.24.71 0 1.242.59 1.242 1.3Z" fill="#FAFAFA"/><path d="m202.936 49.703-5.674 1.773c.473 1.655 2.128 2.542 3.664 2.069 1.596-.473 2.482-2.187 2.01-3.842Z" fill="#B16668"/><path d="M202.586 51.072c-1.595-.059-2.955 1.064-3.309 2.542a2.641 2.641 0 0 0 1.655 0c1.122-.354 1.891-1.36 2.068-2.482-.118-.06-.236-.06-.414-.06Z" fill="#F28F8F"/><path d="m190.106 35.47 3.605-.886c-.177-1.004-1.182-1.655-2.128-1.418a2.018 2.018 0 0 0-1.477 2.305ZM207.616 35.298l-3.487-1.3c.355-1.005 1.36-1.478 2.364-1.123.946.355 1.478 1.477 1.123 2.423ZM193.668 40.139c.059.828-.591 1.596-1.418 1.655-.828.059-1.596-.532-1.655-1.36-.059-.827.591-1.595 1.418-1.654.828-.119 1.596.532 1.655 1.359ZM206.137 40.2c.059.827-.591 1.595-1.418 1.654-.828.06-1.596-.532-1.655-1.359-.059-.828.591-1.596 1.418-1.655.887-.06 1.596.532 1.655 1.36Z" fill="#263238"/><path d="M200.224 59.939c3.191-.296 7.151-1.36 9.751-2.72 2.128-1.181 3.192-3.013 3.783-4.196 0 0 .059 3.074-2.601 5.32-2.955 2.482-10.933 3.31-10.933 3.31.059-.237.059-.414.059-.71l-.059-1.004ZM204.484 96.365c-2.895-2.424-4.373-3.428-5.732-3.901-1.359-.473-6.206-2.837-8.097-3.428-1.182-.355-1.773 1.536-.354 2.896 1.123 1.064 4.078 2.6 5.378 3.428 1.3.827 3.723 4.197 3.723 4.197l5.082-3.192Z" fill="#F0997A"/><path d="M210.982 117.864c9.456 5.379 17.73 12.058 26.89 13.417 8.924 1.36 9.22-6.087 9.042-11.584-.177-6.975-4.077-28.785-6.146-36.055-2.127-7.743-3.546-10.58-11.938-13.712-6.914 4.55-5.319 19.505-3.841 25.238 1.596 5.969 4.078 17.081 4.078 17.081s-10.874-3.428-13.534-4.787c-2.6-1.36-6.974-7.27-8.747-9.162-2.363-2.541-3.605-2.305-4.905-2.186-4.196.354-5.141.65-6.087 1.182-.945.532-.886 1.595-.886 1.595-1.123.06-2.778-.059-3.073 1.715-.237 1.182-.178 1.477-.178 1.477s-.413 0-.768.355c-1.005 1.005.355 4.787 1.3 5.792.65.65 1.655.828 3.014.709 1.123-.059.709-1.241.709-1.241l1.537.178c3.25 2.6 3.428 6.501 7.801 7.861 1.064.177 3.487.709 5.732 2.127Z" fill="#FFBDA7"/><path d="m195.023 98.834 5.024-.709h-4.846a1.578 1.578 0 0 0-.178.71ZM191.775 102.025l5.733-.354-5.733-.296v.65ZM192.364 104.555c.177.295.413.532.709.709.295.177.591.295.945.414l-.059-.059c.118.295.296.591.414.886l.118-.118c-.354-.059-.65 0-.945.177a1.611 1.611 0 0 0-.532.71c.177-.237.354-.473.591-.592.236-.118.532-.177.768-.118l.236.059-.118-.177c-.118-.295-.295-.591-.414-.887v-.059h-.059a5.81 5.81 0 0 1-.945-.295c-.237-.237-.532-.355-.709-.65Z" fill="#F0997A"/><path d="M193.843 105.391c.532.177 2.068.295 2.068.295s0 .414.65 1.123c.355.414 1.064 1.005 1.064 1.005l-1.537-.177s-.354-.71-1.713-1.064l-.532-1.182ZM228.707 110.18l.473 2.068c4.019 1.301 8.274 4.433 9.101 6.738-.532-3.605-2.541-6.442-9.574-8.806Z" fill="#F0997A"/><path d="M186.464 36.242c.178 0 .414-.06.591-.06 1.951-.236 4.61-.236 6.206.296 2.068.71 2.777 1.419 3.959 1.478 1.301 0 2.187-.71 4.61-1.36 1.95-.532 5.319-.413 7.978-.177.296.06.591.06.828.118.473.06 1.005.65.945 1.36 0 .709-.591 1.24-.768 1.536-.118.119-.177.355-.295.65-.296 1.064-.414 3.192-1.005 4.374-.236.473-.532 1.064-1.064 1.537-.177.177-.354.296-.532.473-.118.06-.236.118-.295.177a4.58 4.58 0 0 1-.946.414c-.059 0-.118.06-.177.06s-.177.058-.236.058c-.06 0-.178.06-.237.06-.236.058-.532.058-.827.058H204.43c-3.309-.236-4.609-1.891-5.377-3.546-.71-1.596-.414-3.783-1.833-3.842h-.236c-1.005.237-1.005 2.187-1.714 3.606-.295.532-.591 1.064-1.064 1.536l-.236.237-.118.118c-.059.06-.118.06-.118.118-.059.06-.059.06-.119.06-.059.058-.118.058-.118.058-.059 0-.059.06-.118.06 0 0-.059 0-.059.059-.355.177-.768.354-1.182.413h-.118c-.414.06-.887.119-1.419.06-2.659-.178-3.368-1.951-3.723-3.015-.295-1.064-.295-2.896-.414-3.9 0-.237-.118-.355-.177-.474-.177-.236-.473-.768-.413-1.36-.119-.65.295-1.181.59-1.24Zm13.416 5.91c.118.591.354 1.537 1.064 2.305.65.769 1.773 1.419 3.546 1.537 1.832.06 2.955-.65 3.605-1.477.059-.06.059-.119.118-.178s.059-.118.118-.177c.059-.06.059-.118.118-.178 0-.059.059-.118.059-.118 0-.059.059-.059.059-.118s.059-.059.059-.118c0-.06.06-.118.06-.177.059-.178.118-.355.177-.473s.059-.178.059-.296c.059-.177.059-.354.118-.473v-.177c.237-1.123.532-3.369-.059-3.9-.591-.474-2.127-1.065-4.551-.828h-.236c-.355.059-.709.118-1.123.177-.118 0-.295.059-.413.118-.355.118-.71.177-1.064.296-.118.059-.237.059-.296.118l-.354.177s-.059 0-.059.06c-.06 0-.06.058-.119.058-.354.178-.591.355-.709.532-.473.65-.414 2.069-.177 3.31Zm-12.647-1.005c.059.828.236 2.601 1.655 3.429.413.236.886.413 1.536.472 1.714.119 2.719-.59 3.369-1.418 0-.06.059-.06.059-.118 0-.06.059-.06.059-.118 0 0 0-.06.059-.06.059-.059.059-.118.118-.177.059-.06.059-.118.118-.177 0-.06.06-.06.06-.118v-.06s0-.059.059-.059v-.059c.118-.295.177-.532.236-.768.296-1.182.473-2.542.118-3.192-.354-.65-1.891-1.36-3.368-1.596-.355-.059-.65-.059-.946-.059h-1.064c-.177 0-.354.06-.473.06h-.177c-.059 0-.059 0-.118.058-.059 0-.118.06-.118.06a.45.45 0 0 0-.237.118h-.059a2.085 2.085 0 0 0-.532.354c-.532.473-.472 2.424-.354 3.428Z" fill="#37474F"/><path d="m211.107 37 7.565 4.965c-.709.118-1.537.414-2.187 1.005l-5.791-3.96.413-2.01Z" fill="#37474F"/><path d="M194.121 44.422a1.99 1.99 0 1 0 3.527 1.55l.717-4.445c.022-.14.023-.342-.007-.48-.171-.81-1.036-.683-1.548-.033l-2.689 3.408Z" fill="#F0997A"/><path opacity=".8" d="M158.387 105.684v-.236c0-.06 0-.119.059-.178 0-.059.059-.177.118-.236 0-.059.059-.059.059-.118 0 0 0-.059.06-.059l.118-.119c.059-.059.118-.059.118-.059.295-.118.709-.118 1.123.118l85.752 49.413c.946.532 1.714 1.359 1.714 3.783v2.6c0 .887-.946 1.478-1.773 1.005l-85.693-49.353c-.946-.532-1.714-1.892-1.714-2.956v-3.428c0-.059 0-.118.059-.177Z" fill="#455A64"/><path opacity=".9" d="m246.914 161.6.059-.059 1.773-1.064c.473-.295.828-.768.887-1.3v-3.251c0-.591-.237-1.3-.591-1.832l-2.128 1.241c.355.591.532 1.241.532 2.482v2.778c0 .178-.059.296-.059.414a1.017 1.017 0 0 1-.473.591Z" fill="#263238"/><path opacity=".6" d="M158.914 104.733c.295-.178.709-.118 1.123.118l85.752 49.353c.177.119.295.237.472.355.119.059.178.177.296.295.118.119.295.296.355.473l2.127-1.241c-.118-.177-.236-.355-.355-.473l-.118-.118-.118-.118c-.059-.059-.118-.059-.118-.118-.118-.06-.177-.178-.296-.237l-85.752-49.353c-.473-.296-.945-.296-1.241-.118-.354.177-1.773 1.004-2.127 1.182Z" fill="#455A64"/><path d="M241.062 156.231v-2.068c0-.178-.118-.296-.177-.296h-1.832c-.118 0-.118.237 0 .414l1.832 2.128c.059.059.177 0 .177-.178ZM236.734 153.747v-2.069c0-.177-.118-.295-.177-.295h-1.832c-.118 0-.118.236 0 .414l1.832 2.127c.118.059.177 0 .177-.177Z" fill="#fff"/><path d="M234.499 152.69c.059.059.118 0 .118-.118v-2.128a.453.453 0 0 0-.118-.296c-.059-.059-.118 0-.118.118v2.128c-.059.118.059.237.118.296ZM243.238 157.535v-2.069c0-.177.118-.177.177-.118l1.832 2.128c.118.118.118.413 0 .413h-1.832c-.118-.059-.177-.236-.177-.354ZM245.491 159.01a.45.45 0 0 1-.118-.295v-2.128c0-.119.059-.178.118-.118.06.059.119.177.119.295v2.128c.059.118 0 .177-.119.118ZM162.526 109.574c.118 0 .177-.059.177-.177v-.946c0-.059-.059-.118-.059-.118l-.768-.473c-.059-.059-.178 0-.237.06-.059.059 0 .177.059.236l.71.414v.886c-.059.059 0 .118.118.118ZM160.382 108.402c.118 0 .177-.059.177-.177v-.651l.532.296c.059.059.177 0 .236-.059s0-.177-.059-.237l-.768-.472h-.178c-.059 0-.059.059-.059.118v.945c0 .178.059.237.119.237ZM161.154 110.652c.059 0 .118 0 .118-.06.059-.059 0-.177-.059-.236l-.709-.414v-.827c0-.118-.059-.177-.177-.177s-.177.059-.177.177v.946c0 .059.059.118.059.118l.768.473h.177ZM162.522 111.425h.06c.059 0 .059-.059.059-.118v-1.005c0-.118-.059-.177-.178-.177-.118 0-.177.059-.177.177v.65l-.532-.295c-.059-.059-.177 0-.236.059s0 .177.059.236l.768.473h.177ZM163.699 110.119l.295.119h.06c0-.06.059-.119.059-.178v-.118l-.178-.414v-.059l.237-.177s.059 0 .059.059l.236.355c0 .059.059.059.059.059h.178s.059 0 .059-.059l.059-.414s0-.059.059 0l.354.177.06.059.059.414c0 .059 0 .059.059.118l.177.178.059.059.237-.119s.059 0 .059.06l.236.413c0 .059.059.059 0 .059l-.177.237v.118c0 .059.059.177.059.236 0 .06.059.06.059.06l.295.236.06.059v.473c0 .059 0 .059-.06.059l-.295-.118h-.059c0 .059-.059.118-.059.236v.118l.177.414v.059l-.236.178s-.059 0-.059-.059l-.237-.355c0-.059-.059-.059-.059-.059h-.177s-.059 0-.059.059l-.059.414s0 .059-.06 0l-.354-.178-.059-.059-.059-.414s0-.059-.059-.059l-.178-.177c0-.059-.059-.059-.059-.059l-.236.118s-.059 0-.059-.059l-.237-.414v-.118l.178-.236v-.059c-.059-.06-.059-.178-.059-.237s-.06-.059-.06-.118l-.295-.236-.059-.06.059-.591c-.059 0-.059 0 0 0Zm1.3 1.833c.296.177.591 0 .591-.414s-.236-.887-.591-1.123c-.295-.177-.591 0-.591.414 0 .413.237.945.591 1.123Z" fill="#fff"/><path d="M215.06 140.564V139.5l16.252 9.398c.295.177.532.532.532.827 0 .296-.237.355-.591.178l-16.193-9.339Z" fill="#89ADFA"/><path opacity=".5" d="M169.017 112.953c.059 0 .118.059.236.059l45.802 26.479v1.064l-45.861-26.479c-.177-.119-.295-.237-.414-.355a.447.447 0 0 1-.118-.236c0-.06-.059-.178-.059-.237.059-.236.237-.355.414-.295Z" fill="#fff"/><path d="M214.236 139.613c0 .591.354 1.301.827 1.537s.828 0 .828-.591-.355-1.3-.828-1.537c-.413-.295-.827 0-.827.591Z" fill="#89ADFA"/><path opacity=".5" d="M214.236 139.613c0 .591.354 1.301.827 1.537s.828 0 .828-.591-.355-1.3-.828-1.537c-.413-.295-.827 0-.827.591Z" fill="#fff"/><path d="M214.53 139.787c0 .414.236.827.532 1.005.295.177.532 0 .532-.414s-.237-.828-.532-1.005c-.296-.177-.532 0-.532.414ZM142.004 52.116l-9.971-6.056s-6.339 1.917-16.971 1.15c-15.65-1.073-24.828-8.738-22.516-19.545 2.377-11.038 12.876-15.407 31.563-14.563 23.375 1.073 29.054 19.468 15.121 30.352l2.774 8.662Z" fill="#89ADFA"/><path d="m142.004 52.116-9.971-6.056s-6.339 1.917-16.971 1.15c-15.65-1.073-24.828-8.738-22.516-19.545 2.377-11.038 12.876-15.407 31.563-14.563 23.375 1.073 29.054 19.468 15.121 30.352l2.774 8.662Z" fill="#F37E60"/><path d="M132.494 33.419a2.912 2.912 0 1 1 0-5.825 2.912 2.912 0 0 1 0 5.825ZM118.861 33.419a2.912 2.912 0 1 1 0-5.825 2.912 2.912 0 0 1 0 5.825ZM105.299 33.419a2.913 2.913 0 1 1 0-5.825 2.913 2.913 0 0 1 0 5.825Z" fill="#fff"/></g><defs><clipPath id="a"><path d="M0 0h263v181c0 5.523-4.477 10-10 10H0V0Z" fill="#fff"/></clipPath></defs></svg>