<svg width="33" height="33" fill="none" xmlns="http://www.w3.org/2000/svg"><circle cx="16.5" cy="16.5" r="16.5" fill="#F37E60"/><path d="M19.653 9.682h-1.172v7.128a10.074 10.074 0 0 0-3.39-2.957V9.681h-1.172l2.867-3.76 2.867 3.76ZM9.68 14.589h.725c4.456 0 8.078 3.632 8.078 8.09v4.002h-3.39v-4.334a4.37 4.37 0 0 0-4.367-4.367H9.68v1.17l-3.76-2.866 3.76-2.867v1.172Zm17.981 1.695-3.76 2.866v-1.17h-1.045c-.909 0-1.755.28-2.457.758v-3.655a8.059 8.059 0 0 1 2.783-.494h.72v-1.172l3.76 2.867Z" stroke="#fff"/></svg>