<svg width="111" height="112" fill="none" xmlns="http://www.w3.org/2000/svg"><g clip-path="url(#a)"><path d="M60.262 69.12c-.57-3.559-1.993-6.975-4.318-9.917-7.449-9.3-23.391-12.004-32.928-4.507-10.2 8.066-17.46 26.76-5.361 35.395a26.188 26.188 0 0 0 4.555 2.515c-.427 2.04-1.424 5.457-3.37 6.738 0 0 7.26.569 9.965-4.793 10.77 1.993 23.486-.664 28.468-9.536 2.752-4.935 3.843-10.581 2.989-15.895Z" fill="#6683C2"/><path d="M37.49 87.672c-4.745-.617-9.3-2.562-12.147-6.595-2.894-4.08-3.985-9.3-3.653-14.282.285-4.697 1.66-9.49 5.172-12.81 1.328-1.234 2.8-2.23 4.365-3.085-2.99.665-5.836 1.898-8.256 3.796-10.153 8.066-17.413 26.76-5.314 35.395a26.195 26.195 0 0 0 4.555 2.515c-.427 2.04-1.423 5.457-3.369 6.738 0 0 7.26.569 9.964-4.792 10.77 1.992 23.486-.665 28.468-9.537.475-.902.95-1.803 1.329-2.705-5.741 4.65-13.855 6.263-21.114 5.362Z" fill="#506FB2"/><path d="M56.953 73.914c-.031.54-.276.81-.735.81-.444 0-.666-.23-.666-.688l-.026-.534c-.793.127-1.36.534-1.703 1.221l.005 2.66c0 .2-.068.367-.206.497a.72.72 0 0 1-.523.2c-.219 0-.388-.07-.508-.21a.705.705 0 0 1-.17-.487v-3.464c0-.109.004-.271.011-.486.008-.219.011-.383.011-.492 0-.197.058-.361.175-.492.12-.133.289-.2.507-.2.391 0 .624.2.698.602a3.395 3.395 0 0 1 2.078-.698c.705 0 1.058.47 1.058 1.407 0 .18-.002.298-.006.354ZM51.516 74.67c0 .236.002.593.005 1.068.004.476.006.832.006 1.069 0 .073.005.185.016.333.014.144.02.253.02.328 0 .197-.072.359-.216.486a.742.742 0 0 1-.523.196.67.67 0 0 1-.64-.397 4.033 4.033 0 0 1-1.402.248c-.5 0-.921-.105-1.263-.317a1.473 1.473 0 0 1-.688-1.063 15.502 15.502 0 0 1-.206-2.363c0-.459.053-.982.159-1.57.07-.399.308-.598.714-.598.204 0 .378.065.523.195.145.127.217.29.217.487 0 .155-.027.398-.08.73-.049.331-.074.583-.074.756 0 .497.016.932.048 1.306.035.37.086.677.153.92.089.039.173.069.254.09a1 1 0 0 0 .243.032 5.55 5.55 0 0 0 1.29-.17c0-.271-.001-.58-.005-.925-.007-.412-.01-.709-.01-.888 0-.723.033-1.347.1-1.872.053-.42.293-.63.72-.63a.78.78 0 0 1 .533.196c.149.13.217.295.207.492-.067 1.343-.1 1.963-.1 1.861ZM43.367 78.038a2.35 2.35 0 0 1-1.681-.671c-.515-.49-.784-1.144-.81-1.962a3.232 3.232 0 0 1 .64-2.083c.537-.72 1.282-1.079 2.238-1.079.705 0 1.265.282 1.681.846.374.508.56 1.137.56 1.888 0 .818-.218 1.516-.655 2.094-.49.645-1.148.968-1.973.968Zm.318-4.399c-.434-.003-.776.194-1.026.592a2.151 2.151 0 0 0-.317 1.174c0 .423.12.748.36.973.19.18.412.27.665.27.307 0 .573-.104.799-.312.257-.243.395-.573.412-.989.046-1.135-.252-1.704-.893-1.708ZM38.745 71.397a.841.841 0 0 1-.587-.227.737.737 0 0 1-.243-.56c0-.222.08-.41.243-.56a.83.83 0 0 1 .587-.234.83.83 0 0 1 .587.233.73.73 0 0 1 .248.56.73.73 0 0 1-.248.561.841.841 0 0 1-.587.227Zm-.254 7.319c0-.37-.06-1.347-.18-2.93-.12-1.582-.18-2.522-.18-2.818 0-.212.062-.402.185-.571a.673.673 0 0 1 .561-.286c.162 0 .324.055.486.164.177.12.268.257.275.413.043.673.1 1.651.175 2.934.095 1.71.143 2.759.143 3.147 0 .51-.16.98-.482 1.406-.355.472-.798.709-1.327.709-.853 0-1.553-.603-2.099-1.809a.795.795 0 0 1-.08-.328c0-.194.078-.36.233-.502a.779.779 0 0 1 .524-.196c.225 0 .425.122.597.365l.386.682c.141.244.288.365.44.365.183 0 .297-.248.343-.745ZM35.315 78.103c-.433 0-.675-.213-.724-.64l-.148-1.095a8.119 8.119 0 0 1-.08-1.094c0-.092.006-.249.016-.47.014-.223.022-.38.022-.471 0-.025.003-.087.01-.186.007-.102.01-.184.01-.248 0-.293-.075-.439-.227-.439-.324 0-.643.19-.957.571-.31.377-.553.857-.73 1.438a7.467 7.467 0 0 1-.047.466 3.51 3.51 0 0 0-.032.465c0 .099.01.249.032.45.025.197.037.345.037.444 0 .2-.07.366-.212.497a.72.72 0 0 1-.523.2.72.72 0 0 1-.524-.2.655.655 0 0 1-.206-.497c0-.099-.01-.247-.032-.444a4.71 4.71 0 0 1-.031-.45c0-.338.024-.809.074-1.412.05-.603.074-1.073.074-1.412a7.57 7.57 0 0 0-.021-.47c-.01-.212-.016-.368-.016-.47 0-.198.07-.36.211-.487a.76.76 0 0 1 .53-.196c.46 0 .708.277.74.83l.005.058c.514-.518 1.057-.777 1.628-.777.666 0 1.127.279 1.38.836.17.373.254.932.254 1.676v.375l-.005.344c0 .275.037.63.11 1.063.078.433.117.786.117 1.057 0 .198-.07.362-.211.492a.742.742 0 0 1-.524.196ZM27.633 78.038a2.35 2.35 0 0 1-1.681-.671c-.515-.49-.785-1.144-.81-1.962a3.232 3.232 0 0 1 .64-2.083c.536-.72 1.282-1.079 2.237-1.079.705 0 1.266.282 1.682.846.373.508.56 1.137.56 1.888 0 .818-.218 1.516-.656 2.094-.49.645-1.147.968-1.972.968Zm.317-4.399c-.433-.003-.775.194-1.026.592a2.151 2.151 0 0 0-.317 1.174c0 .423.12.748.36.973.19.18.412.27.666.27.307 0 .573-.104.799-.312.257-.243.394-.573.412-.989.046-1.135-.252-1.704-.894-1.708ZM22.754 77.52c-.822.307-1.86.46-3.115.46-.211 0-.401-.087-.57-.264-.166-.176-.25-.364-.25-.565v-5.605c-.01-.24-.019-.48-.026-.72a3.73 3.73 0 0 1 .027-.687c.05-.331.358-.532.925-.603.268-.077.712-.116 1.333-.116.666 0 1.304.215 1.914.645.715.5 1.073 1.126 1.073 1.877 0 .406-.074.748-.222 1.026-.116.226-.319.467-.608.724.342.166.645.416.91.751.3.374.449.746.449 1.116 0 .469-.256.913-.767 1.332-.342.279-.7.489-1.073.63Zm-1.676-6.667c-.455 0-.728.003-.82.01l.005 1.121-.005 1.11c.32.04.562.052.725.038 1.078-.085 1.618-.481 1.618-1.19 0-.25-.16-.492-.476-.724a1.726 1.726 0 0 0-1.047-.365Zm.618 3.738c-.32 0-.8-.012-1.438-.037v1.978a8.987 8.987 0 0 0 1.972-.35c.62-.175.927-.366.92-.57-.01-.272-.21-.513-.597-.725a2.263 2.263 0 0 0-.857-.296Z" fill="#fff"/><g clip-path="url(#b)"><path d="m64.875 69.673 40.748 9.45a5.112 5.112 0 0 1 4.29 5.828l-6.278 19.775a5.111 5.111 0 0 1-5.819 4.302l-1.988-.162s-1.819 4.172.117 6.802c0 0-6.51-2.633-6.886-7.412l-26.363-2.328c-2.773-.418-4.708-3.049-4.289-5.828l.643-26.08c.426-2.824 3.052-4.765 5.825-4.347Z" fill="#F37E60"/><path d="M76.977 83.22a54.973 54.973 0 0 1-3.624-1.362l.912-2.182a50.57 50.57 0 0 0 9.794 2.983l.291-1.93 2.358.355-.3 1.992c2.48.374 5.092.612 7.914.708l-.074 2.371c-2.884-.106-5.56-.338-8.102-.721a53.4 53.4 0 0 1-6.792-1.464c.083 2.16.714 6.125 3.708 9.992 3.724-2.117 5.16-5.363 5.25-5.553l2.196.91c-.099.237-1.71 3.911-5.844 6.452 1.355 1.364 3.049 2.67 5.158 3.834l-1.147 2.068c-2.606-1.428-4.626-3.08-6.196-4.79-1.628.663-3.545 1.142-5.797 1.24l-.116-2.367a14.766 14.766 0 0 0 4.314-.807c-3.433-4.717-3.899-9.567-3.903-11.73Z" fill="#fff"/><path d="M59.285 73.047c-.165 1.396-.234 2.761-.31 4.171-.113 2.871-.091 5.763-.026 8.66.069 2.578.206 5.304 1.024 7.766 1.335 4.19 5.322 6.258 9.253 7.493 4.154 1.269 8.436 1.686 12.645 2.596 2.305.486 4.648 1.023 7.032 1.291 2.026.214 4.334.379 6.279-.382 3.748-1.497 5.087-6.43 6.076-9.948 1.152-3.998 2.986-9.177.696-13.098-1.054-1.81-2.645-2.783-4.467-3.746-.592-.319-1.363-.664-2.128-1.055l10.165 2.36c2.869.387 4.812 2.972 4.386 5.796l-6.278 19.774a5.112 5.112 0 0 1-5.819 4.303l-1.988-.163s-1.819 4.172.117 6.803c0 0-6.51-2.633-6.886-7.412l-26.362-2.328c-2.773-.419-4.71-3.049-4.29-5.828l.643-26.08c.054-.359.146-.666.238-.973Z" fill="#E56A4A"/></g><g clip-path="url(#c)"><path d="M99.83 46.471c0-3.262-2.605-5.898-5.828-5.898-.752 0-1.45.136-2.095.407-.617-3.398-3.571-5.98-7.09-5.98-3.087 0-5.72 1.984-6.74 4.757a3.132 3.132 0 0 0-1.772-.57c-1.692 0-3.088 1.386-3.088 3.125 0 .19.026.38.053.544a4.098 4.098 0 0 0-2.04-.544c-2.283 0-4.136 1.876-4.136 4.187a4.158 4.158 0 0 0 2.846 3.968c-.913 1.06-1.477 2.42-1.477 3.915 0 3.289 2.632 5.926 5.855 5.926.859 0 1.665-.19 2.39-.517.241 3.045 2.739 5.464 5.827 5.464 2.659 0 4.915-1.794 5.613-4.268a5.789 5.789 0 0 0 3.894 1.495c3.222 0 5.827-2.636 5.827-5.898a5.975 5.975 0 0 0-2.04-4.486 5.96 5.96 0 0 0 4-5.627Z" fill="#68CCEA"/><path d="M99.825 46.471c0-2.773-1.88-5.11-4.431-5.736 1.262 1.196 2.175 2.963 2.229 4.703.054 1.74-.51 3.806-1.934 4.893-.617.462-1.88 1.06-2.658.979 1.128 1.468 1.53 3.289-.108 4.757-1.826 1.658-4.028 1.468-5.478-.3.027 1.496-.456 3.426-1.745 4.268-1.075.68-2.579 1.06-3.84.925-2.552-.327-4.029-2.202-4.27-4.703 0 .136-.806.652-.94.761a4.604 4.604 0 0 1-1.02.544c-2.445.897-5.56-1.17-5.291-3.86.08-.897.403-2.039.832-2.827.188-.354.779-1.224 1.262-1.196-3.222-.218-3.974-5.709-.376-7.313a4.397 4.397 0 0 0-.859-.081c-2.282 0-4.135 1.875-4.135 4.186a4.158 4.158 0 0 0 2.846 3.969c-.913 1.06-1.477 2.42-1.477 3.914 0 3.29 2.632 5.926 5.854 5.926.86 0 1.665-.19 2.39-.516.242 3.044 2.74 5.464 5.828 5.464 2.658 0 4.914-1.795 5.612-4.268a5.789 5.789 0 0 0 3.894 1.495c3.223 0 5.828-2.637 5.828-5.899a5.975 5.975 0 0 0-2.041-4.485c2.336-.761 4.028-2.99 4.028-5.6Z" fill="#5EBCD8"/><path d="M74.018 63.814c-.564.68-1.718.625-2.605-.108-.886-.734-1.127-1.876-.59-2.556.564-.68 1.718-.625 2.605.11.886.733 1.154 1.875.59 2.554ZM70.98 65.31c-.43.516-1.316.488-1.96-.082-.672-.571-.86-1.441-.43-1.958.43-.516 1.315-.489 1.96.082.671.57.86 1.44.43 1.957ZM68.298 65.99c-.296.353-.913.326-1.397-.055-.456-.408-.617-1.006-.322-1.386.295-.354.913-.327 1.397.054.483.408.617 1.033.322 1.386Z" fill="#68CCEA"/><path d="M82.66 44.161c0-2.093 1.666-3.778 3.733-3.778.833 0 1.585.272 2.203.734a3.7 3.7 0 0 0-3.035-1.577c-2.068 0-3.733 1.685-3.733 3.779 0 1.25.618 2.364 1.558 3.071a3.745 3.745 0 0 1-.725-2.229ZM76.328 53.186c1.53-.3 3.034.734 3.33 2.283a3.028 3.028 0 0 1-.215 1.767c.59-.652.913-1.576.725-2.5-.296-1.55-1.773-2.583-3.33-2.284a2.83 2.83 0 0 0-2.041 1.604 2.577 2.577 0 0 1 1.53-.87Z" fill="#5EBCD8"/><path d="M93.63 52.666c-.072 0-.187-.079-.343-.236-.145.069-.272.121-.381.156a.916.916 0 0 1-.28.054c-.378 0-.662-.102-.852-.305-.188-.204-.282-.509-.282-.915 0-.38.14-.705.419-.976.279-.271.613-.407 1.002-.407.149 0 .321.043.517.128.237.103.355.222.355.358a.224.224 0 0 1-.054.149 1.705 1.705 0 0 0-.037.24 4.083 4.083 0 0 0-.012.333c0 .302.02.519.063.652.005.014.041.096.108.246.062.136.092.213.092.232a.263.263 0 0 1-.096.209.32.32 0 0 1-.219.082Zm-.583-1.625c0-.05.003-.108.01-.172.007-.067.018-.14.032-.22a.42.42 0 0 0-.146-.046c-.213 0-.4.085-.56.254a.818.818 0 0 0-.24.582c0 .212.038.371.114.479.075.106.188.159.338.159a.793.793 0 0 0 .522-.192 7.45 7.45 0 0 1-.07-.844ZM91.079 51.4c0 .09.002.234.007.433.006.199.01.343.01.433a.305.305 0 0 1-.325.315.323.323 0 0 1-.233-.087.305.305 0 0 1-.092-.228c0-.09-.003-.234-.01-.433a7.363 7.363 0 0 1 .017-.962c.016-.211.024-.388.024-.528 0-.092.03-.167.091-.225a.319.319 0 0 1 .233-.09c.094 0 .172.03.233.09a.298.298 0 0 1 .092.225c0 .14-.008.317-.024.528a7.363 7.363 0 0 0-.023.528Zm.28-2.355a1.892 1.892 0 0 0-.308.289c-.13.142-.231.24-.306.296a.33.33 0 0 1-.419-.012.243.243 0 0 1-.092-.187c0-.058.033-.122.1-.192l.17-.161c.169-.185.267-.29.297-.317.143-.13.269-.195.379-.195.083 0 .154.028.214.083a.248.248 0 0 1 .091.187c0 .081-.042.15-.126.209ZM89.135 50.13c.02-.539.045-.91.073-1.116.027-.187.129-.28.306-.28.092 0 .167.03.223.09a.31.31 0 0 1 .085.22c0 .23-.018.57-.054 1.024-.035.453-.052.794-.052 1.023 0 .56.018.934.054 1.123a.38.38 0 0 1 .007.069.278.278 0 0 1-.094.215.32.32 0 0 1-.219.083.276.276 0 0 1-.258-.156 1.306 1.306 0 0 1-.687.194c-.351 0-.643-.113-.875-.339a1.177 1.177 0 0 1-.355-.88c0-.426.12-.768.358-1.029.238-.262.55-.393.933-.393a1.2 1.2 0 0 1 .315.038.706.706 0 0 1 .24.114Zm-.047.746a.537.537 0 0 0-.202-.223.574.574 0 0 0-.296-.073c-.232 0-.407.068-.523.203-.115.134-.173.337-.173.607 0 .17.062.316.188.438a.61.61 0 0 0 .437.182c.12 0 .212-.014.275-.042a1.257 1.257 0 0 0 .294-.225 34.907 34.907 0 0 1 0-.867ZM84.66 52.679c-.193 0-.3-.096-.322-.287l-.066-.49a3.667 3.667 0 0 1-.029-.701c.007-.1.01-.17.01-.211 0-.011.001-.039.005-.083.003-.046.004-.083.004-.111 0-.132-.033-.197-.1-.197-.145 0-.287.085-.427.256a1.85 1.85 0 0 0-.324.644c-.003.052-.01.122-.021.209a1.588 1.588 0 0 0 0 .41c.01.088.016.154.016.198 0 .09-.031.164-.094.223a.319.319 0 0 1-.233.09.319.319 0 0 1-.232-.09.295.295 0 0 1-.092-.223c0-.044-.005-.11-.014-.199a2.137 2.137 0 0 1-.014-.201c0-.152.01-.362.032-.633.022-.27.033-.48.033-.632 0-.047-.003-.118-.009-.21a4.677 4.677 0 0 1-.007-.212.28.28 0 0 1 .094-.218.337.337 0 0 1 .235-.087c.206 0 .315.124.33.372l.002.026c.229-.232.47-.348.724-.348.296 0 .501.124.614.374.075.167.113.418.113.75v.169a2.974 2.974 0 0 0 .047.63c.034.194.052.352.052.474a.288.288 0 0 1-.094.22.329.329 0 0 1-.233.088ZM81.299 52.62c-.375 0-.681-.09-.92-.27-.263-.2-.395-.48-.395-.842 0-.399.105-.737.313-1.013.232-.307.545-.46.939-.46.272 0 .499.044.68.133.236.117.354.298.354.545 0 .173-.096.327-.289.462a3.725 3.725 0 0 1-.53.27l-.792.352a.71.71 0 0 0 .273.185c.107.041.23.062.367.062.21 0 .388-.044.534-.13.13-.078.234-.117.313-.117.163 0 .244.08.244.24 0 .18-.13.327-.392.44-.22.095-.453.142-.699.142Zm-.064-2.012a.525.525 0 0 0-.373.147 1.027 1.027 0 0 0-.25.44l.53-.229c.211-.096.38-.185.505-.268a.825.825 0 0 0-.412-.09ZM79.66 51.141c0 .106 0 .266.002.479.002.213.002.372.002.478 0 .033.003.083.008.15.006.064.009.113.009.146a.278.278 0 0 1-.096.218.328.328 0 0 1-.233.088.298.298 0 0 1-.285-.178 1.78 1.78 0 0 1-.623.112c-.223 0-.41-.048-.562-.143a.66.66 0 0 1-.306-.476 6.987 6.987 0 0 1-.092-1.059c0-.205.024-.44.07-.703.032-.178.138-.268.318-.268.091 0 .169.03.233.088.064.057.097.13.097.218 0 .07-.012.178-.036.327a2.505 2.505 0 0 0-.032.338c0 .223.007.418.02.586.016.165.04.303.069.412.039.017.077.03.113.04.037.01.073.014.108.014.174 0 .365-.025.574-.076a40.307 40.307 0 0 0-.007-.812c0-.324.015-.603.044-.839.024-.188.13-.281.32-.281.093 0 .172.029.238.087a.262.262 0 0 1 .091.22c-.03.602-.044.88-.044.834ZM76.404 52.418c-.365.137-.827.206-1.385.206a.344.344 0 0 1-.254-.118.367.367 0 0 1-.11-.254v-2.51a23.116 23.116 0 0 1-.013-.323c-.004-.121 0-.224.012-.308.022-.148.16-.238.412-.27.119-.035.317-.052.593-.052.296 0 .58.096.85.289.32.224.478.505.478.84a.975.975 0 0 1-.099.46 1.19 1.19 0 0 1-.27.325c.152.074.287.186.405.336.133.168.2.334.2.5 0 .21-.114.41-.341.597a1.71 1.71 0 0 1-.478.282Zm-.745-2.987c-.203 0-.324.002-.365.005l.002.502-.002.497c.143.018.25.023.322.017.48-.038.72-.216.72-.533 0-.112-.07-.22-.212-.325a.765.765 0 0 0-.465-.163Zm.275 1.675c-.143 0-.356-.006-.64-.017v.886c.27-.014.562-.066.877-.156.276-.08.413-.165.41-.256-.005-.122-.094-.23-.266-.325a1.001 1.001 0 0 0-.381-.132Z" fill="#fff"/></g></g><defs><clipPath id="a"><rect width="111" height="112" rx="10" fill="#fff"/></clipPath><clipPath id="b"><path fill="#fff" transform="scale(-1 1) rotate(-8.582 455.233 779.066)" d="M0 0h51.925v40.798H0z"/></clipPath><clipPath id="c"><path fill="#fff" transform="translate(66.445 35)" d="M0 0h33.38v31.261H0z"/></clipPath></defs></svg>