<svg width="207" height="131" fill="none" xmlns="http://www.w3.org/2000/svg"><path opacity=".5" d="M155.79 57.332c-28.288 0-51.212 22.924-51.212 51.212 0 28.289 22.924 51.213 51.212 51.213 28.289 0 51.213-22.924 51.213-51.213 0-28.288-22.924-51.212-51.213-51.212ZM189.933 41.76c0 4.338-3.533 7.866-7.877 7.866-4.344 0-7.876-3.528-7.876-7.866 0-4.338 3.532-7.865 7.876-7.865s7.877 3.527 7.877 7.865Z" fill="#92D5C1"/><path d="M203.079 30.894a6.078 6.078 0 0 1-6.09 6.082 6.078 6.078 0 0 1-6.091-6.082 6.078 6.078 0 0 1 6.091-6.081 6.078 6.078 0 0 1 6.09 6.081Z" fill="#92D5C1"/><path d="M196.429 52.705a1.301 1.301 0 0 0-1.868 0 1.298 1.298 0 0 0 0 1.865c2.234 2.27 2.233 5.92-.04 8.15a1.296 1.296 0 0 0 0 1.864 1.3 1.3 0 0 0 1.867 0c3.289-3.284 3.33-8.595.041-11.88Z" fill="#F37E60"/><path d="M200.084 68.275c5.318-5.271 5.359-13.907.081-19.259a1.301 1.301 0 0 0-1.868 0 1.298 1.298 0 0 0 0 1.865c4.263 4.298 4.263 11.272-.081 15.57a1.296 1.296 0 0 0 0 1.864c.528.446 1.381.446 1.868-.04ZM193.587 56.841a2.576 2.576 0 0 0-3.654 0 2.567 2.567 0 0 0 0 3.65 2.576 2.576 0 0 0 3.654 0c1.015-.974 1.015-2.636 0-3.65ZM192.893 122.456l-.036-3.357c0-.322-.25-.572-.608-.572-1.251 0-2.253 1.036-2.253 2.286v1.607l-3.719.036h-.608c-.679 0-1.216.571-1.216 1.214 0 .464.286.857.644 1.071a1.206 1.206 0 0 0-.644 1.072c0 .464.286.857.644 1.071a1.204 1.204 0 0 0-.644 1.072c0 .5.322.964.787 1.142-.465.179-.787.607-.751 1.143 0 .679.572 1.214 1.216 1.214h.608l5.507-.035h.501a2.304 2.304 0 0 0 2.289-2.286l-.036-4.393c.072-1.142-.679-2.035-1.681-2.285ZM198.114 123.278h-1.717a.87.87 0 0 0-.858.857l.036 5.429a.87.87 0 0 0 .858.857h1.717a.87.87 0 0 0 .858-.857l-.036-5.429c0-.5-.393-.857-.858-.857Z" fill="#F37E60"/><path d="M177.259 32.353H1.945v114.861H177.26V32.354Z" fill="#CAD9F8"/><path d="M175.803 35.355H3.453v2.067h172.35v-2.067Z" fill="#E2E2E2"/><path d="M167.27 22.947h-36.215v3.77h36.215v-3.77Z" fill="#6683C2"/><path d="m177.218 30.407-3.288-6.122H5.884l-3.532 3.163v7.906h174.866v-4.947Z" fill="#6683C2"/><path d="m169.672 27.977 3.329 3.324M173.001 27.977l-3.329 3.324" stroke="#fff" stroke-width="2.217" stroke-miterlimit="10" stroke-linecap="round"/><mask id="a" style="mask-type:luminance" maskUnits="userSpaceOnUse" x="1" y="0" width="178" height="148"><path d="M178.324 0H2.807l-.893 147.215H177.43L178.324 0Z" fill="#fff"/></mask><g mask="url(#a)"><path opacity=".4" d="M27.811 145.35c-3.37-8.717-2.68-32.638 19.53-61.991-4.426-16.502 2.03-42.774 13.6-48.004l20.22.486S101.38 93.576 97.197 145.31H27.81v.04Z" fill="#9B9B9B"/></g><path d="M148.071 26.273c-.325-1.987-1.218-3.609-.609-7.906.203-1.46-.041-1.541.121-2.757.082-.65.528-1.298.528-1.865 0-1.825-.203-1.622-.203-2.636.284-2.31 4.101 1.217 2.721 5.96.121 2.555.406 2.514.649 2.311.122-.121 1.299-1.094 2.193-3.608.446-1.257.73-3.69 1.258-5.068.569-1.42.893-2.798 1.624-3.973.853-1.338 1.624-2.109 2.396-1.176.243.284.121 1.338-.488 2.716-.446 1.014-.446 1.42-.933 2.717-.406 1.257-1.178 4.987-1.097 5.068.082.04 1.259-2.838 2.842-5.798.609-1.095 1.056-1.784 1.421-2.473.569-1.136 1.503-1.176 1.746-.933.528.568.487 1.298-.203 2.92-.365.891-.934 1.986-1.461 3.04-1.137 2.19-1.99 4.136-1.909 4.257 0 0 .203.77.447.406.934-1.379 3.045-5.839 4.222-7.42.853-1.135 1.381-.324 1.34.649 0 .365-.081 1.054-.69 2.027-.284.405-.771 1.825-1.299 2.757-.69 1.216-1.584 2.879-1.543 2.96 0 0 .203.446.447.04.487-.81 1.096-2.23 1.908-3.486.325-.893.853-1.663 1.177-1.987.406-.406.772 0 .853.243.284.77.162 1.095-.244 2.149-.324.81-.649 1.581-.852 1.905-.406.73-1.056 1.906-1.381 2.636-.528 1.095-1.177 2.27-1.624 3.487-.934 2.635-4.019 6.406-5.806 8.352-.406 1.54-4.019 13.38-4.019 13.38s-8.689.405-7.958-1.988c.812-2.392 3.573-13.5 4.426-16.906Z" fill="#FFA383"/><path d="M98.664 80.115c3.086 1.298 21.721-6.811 29.07-7.784 1.99-.325 8.932-25.502 12.302-33.854 3.207-7.988 20.26 1.946 19.285 6.608-1.015 4.663-15.834 41.03-18.676 44.923-2.842 3.892-33.333 16.217-35.931 25.178" fill="#F37E60"/><path d="M143.242 36.854c1.38-2.19 3.085-5.027 3.451-6.73.365-1.662 10.353 1.784 9.46 3.649-1.34 2.757-1.503 6.041-1.462 7.298 0 1.946-12.343-2.798-11.449-4.217Z" fill="#E45F3C"/><path d="M153.227 40.787s.162-4.582 2.03-7.42l-2.03 7.42ZM152.055 40.137s.162-4.581 2.03-7.42l-2.03 7.42ZM150.516 39.693s.121-4.46 2.314-7.42l-2.314 7.42ZM149.211 39.166s.162-4.46 2.395-7.42l-2.395 7.42ZM147.422 38.477s.812-4.785 2.964-7.217l-2.964 7.217ZM146.25 38.03s.812-4.784 2.964-7.216l-2.964 7.216ZM144.625 37.178s1.218-4.46 3.451-6.649l-3.451 6.65Z" fill="#9B9B9B"/><path d="M98.583 83.967c-2.396-5.676 3.045-35.8-2.233-47.355-3.248-7.096-10.881-11.312-17.58-8.596-5.157-.162-8.445 3.65-11.003 8.23-4.832 8.718-.122 18.326-2.883 20.8-4.507 4.054-8.12 7.176-7.998 11.88.203 6.973 5.237 9.203 4.182 14.392-3.086 14.636 37.515.649 37.515.649Z" fill="#59514D"/><path d="M66.752 58.424c-1.3 5.879 2.395 8.92 2.923 12.163.487 3-.081 7.257-2.883 9.041l6.01-1.297 1.623-12.528-4.303-7.784-3.37.405Z" fill="#423935"/><path d="M86.769 77.68c7.105 3.244 18.189 10.704 20.137 16.624 1.949 5.919-4.993 30.732-5.318 37.827-.325 7.055-.487 11.15-.65 15.002-.243 5.838-48.68 4.054-48.436-2.149.162-3.852.365-7.947.65-15.001.324-7.055-4.426-32.395-1.95-38.152 2.477-5.717 14.17-12.204 21.519-14.799l14.048.649Z" fill="#F37E60"/><path d="M99.844 54.287c-.487 2.798-2.842 6.325-4.913 5.15-1.665-.974-3.004-2.474-2.517-5.312.487-2.797 2.03-4.135 4.303-4.5 2.436-.325 3.614 1.865 3.127 4.662Z" fill="#E5886E"/><path d="M99.31 50.68c-.406-.568-2.842-.973-3.654 1.094l.366-1.986s.812-.325 1.705-.162c1.218.283 1.583 1.054 1.583 1.054Z" fill="#FFA383"/><path d="M63.302 52.666c.243 2.838 2.273 6.568 4.425 5.555 1.746-.811 3.208-2.23 2.964-5.068-.243-2.838-1.665-4.298-3.898-4.866-2.395-.527-3.735 1.541-3.491 4.38Z" fill="#E5886E"/><path d="M64.117 49.14c.487-.528 2.923-.73 3.532 1.418l-.162-2.027s-.771-.405-1.705-.284c-1.218.163-1.665.892-1.665.892ZM71.663 66.248c.772 3.122-.771 10.014-1.055 11.758-.65.243-4.954 2.19-4.954 2.19-1.218 4.256 2.274 7.662 5.563 12.162 3.735 5.068 7.998 12.407 7.673 18.123l1.38.041c3.127-11.88 10.8-26.435 9.014-31.543-.203-.69-1.462-6.528-.163-11.555l-17.458-1.176Z" fill="#FFA383"/><path d="M71.864 68.073s.081 1.094-.122 2.96c0 0 4.791 6.203 8.404 6.365 3.614.162 8.486-5.15 8.486-5.15s.081-3.689.325-5.23l-17.093 1.055Z" fill="#E5886E"/><path d="M96.11 48.248c-.366 7.866-7.025 13.947-14.901 13.623-7.877-.365-13.967-7.014-13.642-14.88.447-10.582 7.065-15.366 14.941-15 7.877.323 14.048 5.919 13.601 16.257Z" fill="#FFA383"/><path d="M96.104 48.246c-.325 7.622-.61 13.988-3.695 18.002-1.868 2.432-6.618 6.487-9.947 7.46-.812.243-3.167 0-3.979-.325-3.207-1.297-7.227-5.676-8.81-8.108-2.72-4.258-2.436-10.664-2.111-18.286" fill="#FFA383"/><path d="M90.223 53.923c-.04 1.297-.893 2.311-1.827 2.27-.975-.04-1.705-1.135-1.624-2.432.04-1.297.893-2.311 1.867-2.27.934.04 1.665 1.135 1.584 2.432ZM76.74 53.235c-.04 1.297-.893 2.31-1.868 2.27-.974-.04-1.705-1.135-1.624-2.433.041-1.297.894-2.31 1.868-2.27.934.04 1.665 1.135 1.624 2.433Z" fill="#030304"/><path d="M84.496 47.072s.163-.081.406-.122c.285-.081.65-.162 1.097-.243a12.1 12.1 0 0 1 3.41.04c.325.04.61.122.893.203.284.081.61.203.853.284.284.121.528.243.771.365.244.121.487.284.69.405.204.122.366.284.528.446.163.122.284.284.366.406.203.243.284.365.284.365.081.121.04.243-.081.324-.04.04-.081.04-.122.04h-.04s-.163 0-.407-.08c-.122-.041-.284-.041-.446-.082a2.396 2.396 0 0 0-.569-.08c-.203-.041-.446-.082-.69-.122l-.73-.122a5.748 5.748 0 0 1-.813-.162c-.284-.04-.568-.122-.812-.162-.568-.122-1.137-.244-1.664-.365a38.596 38.596 0 0 1-1.462-.365c-.853-.244-1.462-.527-1.462-.527-.121-.04-.162-.203-.121-.284 0-.081.08-.122.121-.162ZM78.974 47.76s-.162.041-.406.122c-.122.04-.284.081-.447.122-.162.04-.365.122-.568.162-.406.122-.893.203-1.42.325-.529.121-1.056.202-1.625.283-.284.04-.528.081-.812.163-.284.04-.528.08-.771.121l-.731.122c-.244.04-.447.08-.65.121-.203.04-.406.081-.568.081-.163.041-.325.041-.447.082-.243.04-.406.08-.406.08h-.04c-.163 0-.285-.121-.325-.283 0-.081 0-.122.04-.203 0 0 .082-.121.285-.365a1.55 1.55 0 0 1 .365-.365c.162-.121.325-.284.528-.405.203-.122.406-.243.65-.406.243-.121.487-.243.77-.324.285-.081.57-.203.853-.243.285-.081.61-.122.894-.162 1.218-.203 2.436-.162 3.329 0 .447.08.812.162 1.096.243.244.081.406.162.406.162.162.081.203.243.162.406a.317.317 0 0 1-.162.162Z" fill="#59514D"/><path d="M78.77 61.302c.852-.325 3.816-.203 4.506.203.69.405-1.543.81-2.274.77-.812-.04-2.923-.69-2.233-.973Z" fill="#E5886E"/><path opacity=".5" d="M82.748 69.735c-1.3-.284-3.532-.324-4.588-.202-.73.08.974-.568 2.274-.487 1.258.04 3.004.851 2.314.69Z" fill="#E5886E"/><path d="M76.577 64.344c2.76.933 6.13.933 8.729.73.325-.04.162.04-.122.405-.528.609-2.192 2.433-4.425 2.311-2.152-.121-3.98-2.797-4.426-3.568-.203-.243 0 .041.244.122Z" fill="#fff"/><path d="M67.405 56.276c-1.096-.811-1.746-1.784-.974-3 .203-.284.487-.609.893-.933 1.99-1.622.934 1.986.934 1.986l-.853 1.947Z" fill="#FFA383"/><path d="M75.893 63.816c1.746.284 3.897-.69 4.912.405 1.38-.851 3.695.69 5.482.69.04 0 .08.08-.041.08-.934.284-6.212 1.338-10.394-.973-.203-.121-.162-.243.04-.202Z" fill="#865B57"/><path d="M76.008 64.019s1.38 2.27 2.395 3.203c.975.892 3.654 1.175 4.791.446 1.015-.69 2.72-2.676 2.72-2.676l-.406.121c-.974.568-1.542 1.176-2.639 1.54-1.096.366-2.273.406-3.37.041-1.42-.445-1.705-1.5-2.68-2.31l-.486-.284-.325-.081Z" fill="#865B57"/><path d="M76.984 64.545c.731.567 2.152 1.095 3.898 1.216 2.152.162 4.385-.567 4.385-.567s-2.314.324-4.304.243c-2.07-.081-3.979-.892-3.979-.892Z" fill="#E2E2E2"/><path d="M67.4 56.275c0-4.338 1.583-10.541 4.344-13.014 2.314-2.068 6.05-4.257 5.522-8.028 0 0-.813 4.42 3.491 7.257 3.086 2.028 17.783 2.23 13.398 14.07l1.665-1.623.244-6.04-4.06-6.001L76.9 32.516 68.82 43.14l-2.07 7.38.65 5.756Z" fill="#E5886E"/><path d="M95.536 56.801c.122-3.933.487-7.014-2.558-9.974-4.303-4.176-8.363-2.96-11.855-5.554-3.289-2.433-4.426-6.082-3.898-9.569l5.197-.486 5.278.973 5.968 4.743 2.924 6.934s.568 2.432.203 6.446c-.406 4.014-1.259 6.487-1.259 6.487Z" fill="#59514D"/><path d="M78.195 31.746c-9.947 3.081-10.678 8.028-11.49 13.744-.812 5.758.73 10.785.73 10.785-.202-2.514.407-11.798 5.32-15.163 4.912-3.365 4.587-5.839 4.587-5.839l.853-3.527Z" fill="#59514D"/><path d="M77.268 35.233s-.73-4.784 1.502-7.257c0 0-1.908.162-2.68 2.635-.69 2.31 1.178 4.622 1.178 4.622Z" fill="#423934"/><path d="M63.26 81.452c-.69 4.014 1.868 7.014 5.807 12.406 3.938 5.393 8.282 11.069 8.607 16.502.365 6.243-2.477 36.651-2.477 36.651l2.924.122 2.192-36.652c.122-4.297-2.76-8.879-4.953-12.528-2.152-3.649-7.39-9.77-8.526-12.082-1.097-2.31-1.624-3.852-1.178-5.676-.04-.04-1.543-.527-2.395 1.257Z" fill="#E45F3C"/><path d="M80.065 109.914c.569-2.027 2.558-7.46 3.289-9.082.73-1.662 1.99 1.582 1.99 1.582s-5.32 13.46-5.725 17.92c-.366 4.46-.447-6.811-.447-6.811l.893-3.609ZM104.633 115.145c.649-3.284 3.167-9.569 2.152-15.123-1.015-5.514 1.745-.649 3.654.202 1.908.852 27.892-6.04 30.125-10.257 0 0-.527.851-2.03 1.784-3.004 1.865-8.891 4.905-15.063 8.392-13.966 7.866-18.27 12.285-18.838 15.002ZM118.68 74.721c1.746-.567 8.607-1.743 11.084 1.095 2.476 2.838 2.639.162 1.624-1.054-1.015-1.216-2.071-4.338-1.909-5.352-.69 1.703-1.096 2.352-1.542 2.798-.812.365-1.178-.122-9.257 2.513ZM140.846 37.057c-.609.892 3.491 4.257 9.257 6.081 5.765 1.825 8.891 2.068 9.216 1.42 0 0 .243.526-2.233 6.932 0 0 1.218-4.5-1.421-4.703-3.126-.284-10.15-2.027-14.089-6.73-.893-1.054-1.542-.608-2.842 1.784 1.218-3.203 1.543-4.298 2.112-4.784ZM63.266 109.428s-4.385 10.298-2.761 12.731c1.664 2.392 5.197 3 5.197 4.662 0 1.663-3.898-.365-3.654 1.257.162 1.135 12.099 11.555 14.738 15.61 1.136 1.743-.366 6.284-.041 6.933l-1.38-.041c-3.858-3.243-17.621-17.636-17.621-17.636s-3.979-14.596-3.492-15.569c.528-.973 3.573-8.555 3.898-9.082.406-.608 5.116 1.135 5.116 1.135Z" fill="#E45F3C"/><path d="M52.337 89.967c-4.466 3.608-22.412 34.016-20.016 44.152 2.03 8.636 24.563 26.881 27.933 27.773 5.887 1.54 21.884-14.312 14.17-18.569-7.715-4.258-17.459-16.664-17.946-18.245-.487-1.622 7.877-17.961 7.877-17.961" fill="#F37E60"/><path d="M103.37 121.389c-1.583 3.608-8.201 11.393-7.755 14.231.447 2.838 5.847 5.27 5.4 9.771 0 0 .041-14.029 2.355-24.002Z" fill="#E45F3C"/><path d="M79.906 95.522c.244 2.554 2.07 8.838 2.07 8.838l1.26-3.081s-2.802-1.46-3.33-5.757Z" fill="#E2E2E2"/><path d="M81.977 104.36c2.72 2.108 14.17 3.892 18.432-2.595 4.263-6.487 2.599-11.798 2.599-11.798l-19.773 11.312-1.258 3.081ZM32.08 130.876c.202 3.203 30.694 31.624 36.459 27.57 0 0-4.466 3.973-8.283 3.406-2.476-.284-20.178-14.434-25.74-23.273-3.249-4.905-2.518-7.014-2.437-7.703Z" fill="#E45F3C"/><mask id="b" style="mask-type:luminance" maskUnits="userSpaceOnUse" x="32" y="35" width="128" height="128"><path d="M139.995 38.479c-3.329 8.352-10.313 33.53-12.302 33.854-7.349.973-25.984 9.122-29.07 7.784l.934 5.555c-4.06-3.284-9.014-6.203-12.83-7.947l-14.048-.608c-6.577 2.311-16.565 7.703-20.381 12.893-4.466 3.608-22.412 34.016-20.017 44.152 2.03 8.636 24.564 26.881 27.934 27.773 3.897 1.013 12.14-5.514 15.144-11.312 12.464.608 25.416-.405 25.538-3.406.162-3.851.365-7.946.649-15.001.122-3.203 1.624-9.974 3.045-16.988 2.639-8.96 33.09-21.285 35.932-25.177 2.842-3.893 17.661-40.26 18.676-44.923 1.056-4.703-15.997-14.636-19.204-6.65Z" fill="#fff"/></mask><g mask="url(#b)" fill="#EDEDED"><path d="M110.482 79.59a3.576 3.576 0 0 1-3.573 3.568 3.575 3.575 0 0 1-3.573-3.568 3.576 3.576 0 0 1 3.573-3.568 3.576 3.576 0 0 1 3.573 3.568ZM121.036 90.618a3.576 3.576 0 0 1-3.573 3.568 3.575 3.575 0 0 1-3.572-3.568 3.575 3.575 0 0 1 3.572-3.568c1.949 0 3.573 1.622 3.573 3.568ZM126.193 75.293a3.576 3.576 0 0 1-3.573 3.567 3.575 3.575 0 0 1-3.573-3.567 3.576 3.576 0 0 1 3.573-3.568 3.576 3.576 0 0 1 3.573 3.568ZM139.146 90.618a3.576 3.576 0 0 1-3.573 3.568A3.575 3.575 0 0 1 132 90.618a3.576 3.576 0 0 1 3.573-3.568c1.949 0 3.573 1.622 3.573 3.568ZM144.628 79.59a3.57 3.57 0 0 0 3.572-3.567 3.57 3.57 0 0 0-3.572-3.568 3.57 3.57 0 0 0-3.573 3.568 3.57 3.57 0 0 0 3.573 3.568ZM106.95 110.89a3.575 3.575 0 0 1-3.572 3.568 3.576 3.576 0 0 1-3.573-3.568 3.576 3.576 0 0 1 3.573-3.568 3.55 3.55 0 0 1 3.572 3.568ZM89.896 122.728a3.575 3.575 0 0 1-3.573 3.568 3.576 3.576 0 0 1-3.573-3.568 3.575 3.575 0 0 1 3.573-3.568 3.576 3.576 0 0 1 3.573 3.568ZM56.841 125.162c0 1.986-1.624 3.567-3.573 3.567a3.575 3.575 0 0 1-3.573-3.567 3.575 3.575 0 0 1 3.573-3.568 3.576 3.576 0 0 1 3.573 3.568ZM39.107 121.634a3.575 3.575 0 0 1-3.573 3.568 3.576 3.576 0 0 1-3.573-3.568 3.576 3.576 0 0 1 3.573-3.568 3.55 3.55 0 0 1 3.573 3.568ZM61.474 108.133a3.575 3.575 0 0 1-3.573 3.568 3.576 3.576 0 0 1-3.573-3.568 3.576 3.576 0 0 1 3.573-3.568 3.576 3.576 0 0 1 3.573 3.568ZM46.661 104.362a3.576 3.576 0 0 1-3.572 3.568 3.576 3.576 0 0 1-3.573-3.568 3.575 3.575 0 0 1 3.573-3.568 3.55 3.55 0 0 1 3.572 3.568ZM59.888 88.347a3.576 3.576 0 0 1-3.573 3.568 3.575 3.575 0 0 1-3.573-3.568 3.576 3.576 0 0 1 3.573-3.568 3.576 3.576 0 0 1 3.573 3.568ZM74.302 118.066a3.576 3.576 0 0 1-3.573 3.568 3.576 3.576 0 0 1-3.573-3.568 3.576 3.576 0 0 1 3.573-3.568c1.99-.041 3.573 1.581 3.573 3.568ZM73.978 100.957c-.61.487-1.38.77-2.233.77a3.575 3.575 0 0 1-3.573-3.568c0-1.297.69-2.473 1.746-3.08.893 1.378 2.395 3.445 4.06 5.878ZM137.239 59.683a3.575 3.575 0 0 1-3.572 3.568 3.575 3.575 0 0 1-3.573-3.568 3.576 3.576 0 0 1 3.573-3.568 3.55 3.55 0 0 1 3.572 3.568ZM156.396 56.804a3.576 3.576 0 0 1-3.573 3.568 3.575 3.575 0 0 1-3.573-3.568 3.576 3.576 0 0 1 3.573-3.568 3.55 3.55 0 0 1 3.573 3.568ZM147.302 44.033a3.576 3.576 0 0 1-3.573 3.568 3.576 3.576 0 0 1-3.573-3.568 3.576 3.576 0 0 1 3.573-3.568c.162 0 .284 0 .447.04a17.549 17.549 0 0 0 2.273 1.217c.528.608.853 1.419.853 2.31Z"/></g><path opacity=".5" d="M104.633 115.145c.649-3.284 3.167-9.569 2.152-15.123-1.015-5.514 1.745-.649 3.654.202 1.908.852 27.892-6.04 30.125-10.257 0 0-.527.851-2.03 1.784-3.004 1.865-8.891 4.905-15.063 8.392-13.966 7.866-18.27 12.285-18.838 15.002ZM118.68 74.721c1.746-.567 8.607-1.743 11.084 1.095 2.476 2.838 2.639.162 1.624-1.054-1.015-1.216-2.071-4.338-1.909-5.352-.69 1.703-1.096 2.352-1.542 2.798-.812.365-1.178-.122-9.257 2.513ZM140.846 37.057c-.609.892 3.491 4.257 9.257 6.081 5.765 1.825 8.891 2.068 9.216 1.42 0 0 .243.526-2.233 6.932 0 0 1.218-4.5-1.421-4.703-3.126-.284-10.15-2.027-14.089-6.73-.893-1.054-1.542-.608-2.842 1.784 1.218-3.203 1.543-4.298 2.112-4.784ZM63.262 109.429s-4.385 10.298-2.76 12.73c1.664 2.393 5.196 3.001 5.196 4.663 0 1.662-3.897-.365-3.654 1.257.163 1.135 12.1 11.555 14.738 15.609 1.137 1.744-.365 6.285-.04 6.933l-1.38-.04c1.826-3.73 1.502-6.001-1.584-7.622-8.689-4.947-16.971-17.232-16.971-17.232s-.244-1.5.162-2.554c2.03-5.514 6.293-13.744 6.293-13.744ZM103.37 121.389c-1.583 3.608-8.201 11.393-7.755 14.231.447 2.838 5.847 5.27 5.4 9.771 0 0 .041-14.029 2.355-24.002ZM81.977 104.36c2.72 2.108 14.17 3.892 18.432-2.595 4.263-6.487 2.599-11.798 2.599-11.798l-19.773 11.312-1.258 3.081ZM32.08 130.876c.202 3.203 30.694 31.624 36.459 27.57 0 0-4.466 3.973-8.283 3.406-2.476-.284-20.178-14.434-25.74-23.273-3.249-4.905-2.518-7.014-2.437-7.703Z" fill="#E45F3C"/><path d="M97.526 40.057c1.421 6.406.325 7.5 3.37 12.852 2.355 4.054 7.308 12.447 2.477 18.447-1.624 2.028-4.507 3.568-4.71 6.447-.162 2.149 1.462 4.257 2.314 6.203 1.746 3.933 3.533 9.204.975 13.136-2.152 3.325-5.928 5.555-9.623 6.001-4.506.568-9.703-.527-11.692-5.109-2.193-4.987 1.177-8.879 4.506-12.082 1.502-1.46 3.37-2.676 3.573-4.987.203-2.351-1.015-4.013-2.192-5.96-5.4-9 8.81-14.96 9.054-22.623.121-3.487-1.503-5.027.121-8.19-.04.04 1.827-4.135 1.827-4.135Z" fill="#59514D"/><path d="M85.425 72.29c5.156 2.96 9.013 4.298 9.054 6.406.04 2.068-11.896 8.028-14.251 14.028v-.243s-.568-2.879 2.193-6.933c1.542-2.23 3.775-3.933 4.384-6.77.406-1.542-1.299-4.177-1.38-6.488Z" fill="#706661"/><path d="M85.796 121.105c0 1.257-.975 2.271-2.152 2.271s-2.152-1.014-2.152-2.271c0-1.256.975-2.27 2.152-2.27s2.152 1.014 2.152 2.27Z" fill="#484A4E"/><path d="M82.305 121.672c0-.202.446.406 1.34.406.933 0 1.34-.568 1.34-.406 0 .568-.61 1.054-1.34 1.054-.731 0-1.34-.446-1.34-1.054Z" fill="#6683C2"/><path d="M82.305 121.672c0-.202.446.406 1.34.406.933 0 1.34-.568 1.34-.406 0 .568-.61 1.054-1.34 1.054-.731 0-1.34-.446-1.34-1.054Z" fill="#EDEDED"/><path d="M2.03 22.947c-1.137 0-2.03.892-2.03 1.986v122.2c0 1.135.893 2.027 2.03 2.027h175.232c1.137 0 2.03-.892 2.03-2.027V24.974a2.009 2.009 0 0 0-2.03-2.027H165.65c-1.136 0-2.111.851-2.233 1.905-.121 1.055.691 1.906 1.827 1.906h8.526a2.01 2.01 0 0 1 2.031 2.027v114.577a2.01 2.01 0 0 1-2.031 2.027H5.481a2.009 2.009 0 0 1-2.03-2.027V28.745c0-1.136.893-2.028 2.03-2.028H138.57c1.137 0 2.03-.851 1.989-1.905 0-1.054-.934-1.906-2.07-1.906H2.03v.04Z" fill="#6683C2"/><path d="M188.74 101.942c-1.664 2.23-22.655 7.582-25.74 7.217-3.086-.324-7.633-14.434-5.847-18.083 1.746-3.649 24.279-9.284 26.837-7.703 2.477 1.54 6.415 16.34 4.75 18.569Z" fill="#fff"/><path d="m176.276 94.644-5.969-2.513c-.69-.284-1.461.324-1.258 1.094l1.867 7.501a.945.945 0 0 0 1.624.365l4.06-5.028c.406-.446.244-1.175-.324-1.419ZM37.98 58.093H25.647c-3.03 0-5.539 2.472-5.539 5.46v5.51c0 2.987 2.508 5.46 5.539 5.46h9.249l1.776 2.266c.366.463 1.097.36 1.358-.155l.993-2.163c2.56-.463 4.546-2.678 4.546-5.356v-5.511c-.052-3.039-2.56-5.511-5.59-5.511Zm-12.384 9.94c-.836 0-1.515-.67-1.515-1.493 0-.825.679-1.494 1.515-1.494.836 0 1.515.67 1.515 1.493.052.825-.68 1.494-1.515 1.494Zm6.218 0c-.836 0-1.516-.67-1.516-1.493 0-.825.68-1.494 1.516-1.494s1.515.67 1.515 1.493c0 .825-.68 1.494-1.515 1.494Zm6.218 0c-.836 0-1.516-.67-1.516-1.493 0-.825.68-1.494 1.516-1.494s1.515.67 1.515 1.493c0 .825-.68 1.494-1.515 1.494Z" fill="#F37E60"/><path d="m120.379 122.648.041.041 6.902 2.432 3.979-6.122.04-.04c1.056-1.622.609-3.852-1.055-4.906-1.624-1.054-3.857-.608-4.913 1.054l-.974 1.5-1.706-.608c-1.827-.649-3.897.324-4.547 2.149-.568 1.824.406 3.852 2.233 4.5ZM159.236 76.344l2.761 4.216 4.709-1.662h.041a2.408 2.408 0 0 0 1.462-3.081 2.413 2.413 0 0 0-3.086-1.46l-1.137.405-.69-1.013a2.46 2.46 0 0 0-3.37-.69c-1.096.65-1.421 2.15-.69 3.285Z" fill="#fff"/><path d="M12.755 50.998h.04l4.71 1.663 2.72-4.176.041-.04c.731-1.095.406-2.636-.69-3.366s-2.639-.405-3.37.69l-.65 1.013-1.136-.405a2.412 2.412 0 0 0-3.086 1.46c-.487 1.296.162 2.715 1.421 3.161Z" fill="#F37E60"/></svg>