<svg width="257" height="264" fill="none" xmlns="http://www.w3.org/2000/svg"><path d="M233.148 194.81c-41.172 64.104-121.393 87.95-179.197 53.258-57.8-34.694-71.274-114.773-30.103-178.878C65.02 5.084 145.246-18.76 203.048 15.932c57.802 34.694 71.277 114.774 30.1 178.878Z" fill="#A2B1D1"/><path d="M114.219 164.447h64.312a5.967 5.967 0 0 0 5.96-5.96V56.328a5.967 5.967 0 0 0-5.96-5.96H29.327a5.967 5.967 0 0 0-5.96 5.96v102.159a5.966 5.966 0 0 0 5.96 5.96h84.892Z" fill="#D8F6FF"/><path d="M29.452 162.117a3.622 3.622 0 0 1-3.63-3.63V56.328a3.622 3.622 0 0 1 3.63-3.63h149.204a3.622 3.622 0 0 1 3.63 3.63v102.159a3.622 3.622 0 0 1-3.63 3.63H29.452Z" fill="#68CCEA"/><path d="M194.678 253.312h-11.871V107.616l11.749-.834.122 146.53Z" fill="#7799E2"/><path d="M226.539 253.312h-31.862c-.073 0-.122-.074-.122-.172V106.954c0-.098.049-.172.122-.172l31.838 1.668c.073 0 .122.074.122.172V253.14c.025.098-.049.172-.098.172Z" fill="#6683C2"/><path d="M216.083 177.3a.378.378 0 0 1-.368-.368v-59.161c0-.197.172-.368.368-.368s.368.171.368.368v59.161a.378.378 0 0 1-.368.368ZM206.005 156.206a.377.377 0 0 1-.368-.368v-17.464c0-.196.171-.368.368-.368.196 0 .368.172.368.368v17.464a.361.361 0 0 1-.368.368ZM206.005 216.054a.377.377 0 0 1-.368-.368V185.59c0-.196.171-.368.368-.368.196 0 .368.172.368.368v30.121c0 .196-.172.343-.368.343Z" fill="#4D69A6"/><path d="M137.127 253.336h-18.984V144.555l18.886-3.704.098 112.485Z" fill="#9FE9FF"/><path d="M188.393 253.336h-51.166c-.098 0-.196-.049-.196-.122v-112.24c0-.074.098-.123.196-.123l51.166 1.3c.098 0 .196.049.196.123v110.94c0 .049-.098.122-.196.122Z" fill="#68CCEA"/><path d="M162.813 199.718a.378.378 0 0 1-.368-.368v-49.816c0-.196.172-.368.368-.368s.368.172.368.368v49.816c0 .221-.147.368-.368.368ZM149.325 166.164a.378.378 0 0 1-.368-.368v-8.487c0-.196.172-.368.368-.368s.368.172.368.368v8.487a.378.378 0 0 1-.368.368ZM149.325 222.505a.378.378 0 0 1-.368-.368v-42.286c0-.197.172-.368.368-.368s.368.171.368.368v42.31c0 .196-.172.344-.368.344ZM176.333 182.917a.378.378 0 0 1-.368-.368v-8.487c0-.196.172-.368.368-.368s.368.172.368.368v8.487a.378.378 0 0 1-.368.368Z" fill="#4BADCB"/><path d="M67.483 253.336H44.23v-62.521l23.253-2.576v65.097Z" fill="#FFDA87"/><path d="M130.912 253.336h-63.43v-64.949c0-.074.123-.123.27-.123l63.16 1.055v64.017Z" fill="#F3C55C"/><path d="M84.374 235.161a.377.377 0 0 1-.368-.368v-38.778c0-.196.172-.368.368-.368s.368.172.368.368v38.778a.377.377 0 0 1-.368.368ZM117.608 239.699a.378.378 0 0 1-.368-.368v-38.779c0-.196.172-.368.368-.368s.368.172.368.368v38.779a.378.378 0 0 1-.368.368ZM100.981 224.492a.378.378 0 0 1-.368-.368v-7.947c0-.196.172-.368.368-.368s.368.172.368.368v7.947c0 .221-.147.368-.368.368Z" fill="#D1A746"/><path d="M33.91 253.336H23.633v-31.003l10.179-2.33.098 33.333Z" fill="#FFAE99"/><path d="M61.474 253.336h-27.57c-.048 0-.097-.049-.097-.122v-33.088c0-.074.049-.123.098-.123l27.57.515c.048 0 .097.049.097.123v32.573c0 .073-.049.122-.098.122Z" fill="#F37E60"/><path d="M53.165 245.831a.377.377 0 0 1-.368-.368v-19.72c0-.197.172-.368.368-.368s.368.171.368.368v19.72a.361.361 0 0 1-.368.368ZM44.454 238.791a.377.377 0 0 1-.368-.368v-5.813c0-.196.172-.368.368-.368s.368.172.368.368v5.813a.377.377 0 0 1-.368.368Z" fill="#CB6247"/><path d="M150.817 99.448c-1.423 1.178-.589 2.183-2.404 4.857-1.324 1.987-2.453 2.453-2.428 3.753.024 1.177 1.005 2.011 1.619 2.55 2.869 2.502 6.818 2.232 9.271 2.061 1.962-.123 4.66-.319 5.028-1.545.368-1.227-1.962-2.061-2.158-4.44-.172-1.938 1.251-2.477.932-4.17-.417-2.207-3.14-3.336-3.581-3.507-1.791-.736-4.538-1.006-6.279.441Z" fill="#363537"/><path d="M152.218 99.694s-.392-3.753-3.409-2.944c-3.017.834-.344 4.072 1.864 4.44 2.232.368 1.545-1.496 1.545-1.496Z" fill="#363537"/><path d="m163.207 164.153-3.238 5.396-1.766-2.306 2.845-5.273 2.159 2.183Z" fill="#fff"/><path d="M161.095 168.715c-.859 1.668-3.017 5.74-5.102 7.677-.515.466-1.374.246-1.545-.392-.663-2.355-1.08-7.211 1.349-11.062 0 0 1.152-.123 3.311.245l-.491 1.913.27-.172c.393-.269.932-.245 1.325.05l.613.515c.368.294.49.809.27 1.226Z" fill="#3C3C3C"/><path d="M155.627 176.073a.385.385 0 0 1-.343-.22c-1.938-4.832.589-10.327.687-10.547.073-.197.294-.27.49-.172.196.074.27.294.172.491-.025.049-2.477 5.42-.662 9.958a.363.363 0 0 1-.197.466c-.049 0-.098.024-.147.024ZM159.82 171.413c-.074 0-.123-.024-.196-.049l-1.619-1.006c-.172-.098-.221-.343-.123-.515.098-.171.343-.22.515-.122l1.619 1.005c.172.098.221.344.123.515a.358.358 0 0 1-.319.172ZM159.01 172.787a.397.397 0 0 1-.221-.074l-1.496-1.079c-.172-.123-.196-.344-.074-.515.123-.172.344-.196.515-.074l1.497 1.079c.171.123.196.344.073.515a.348.348 0 0 1-.294.148ZM172.43 166.238c0 .122 2.968 6.279 2.968 6.279l-3.385.245-2.306-5.249 2.723-1.275Z" fill="#fff"/><path d="M172.281 171.241s.687-1.545 2.429-.76c0 0 3.237 4.415 4.439 8.07.344 1.03-.785 1.962-1.815 1.52-2.428-1.03-6.255-3.237-8.438-7.284 0 0 .687-1.668 1.766-2.429l1.619.883Z" fill="#3C3C3C"/><path d="M178.167 179.311c-.932 0-4.341-.441-8.756-6.181-.123-.172-.098-.392.073-.515.172-.123.393-.098.515.074 4.783 6.254 8.291 5.886 8.315 5.886a.381.381 0 0 1 .417.319.38.38 0 0 1-.319.417h-.245ZM175.396 175.853a.383.383 0 0 1-.319-.197c-.098-.171-.024-.392.147-.49l1.619-.908c.172-.098.393-.024.491.147.098.172.024.393-.147.491l-1.619.908c-.049.024-.098.049-.172.049ZM174.587 174.7c-.123 0-.27-.074-.319-.196-.098-.172-.025-.393.172-.491l1.766-.907c.171-.099.392-.025.49.171.098.172.025.393-.172.491l-1.766.907c-.049 0-.098.025-.171.025Z" fill="#fff"/><path d="M156.166 133.248s8.83 1.496 15.183 7.8c1.594 1.594 2.183 3.899 1.471 5.984-1.422 4.317-4.488 12.191-9.615 18.126l-3.924-3.213s.956-7.432 3.507-12.043c2.576-4.611-12.46-14.618-12.46-14.618l5.838-2.036Z" fill="#539A85"/><path d="m173.505 167.391-4.611 1.275s-8.389-16.802-10.817-19.23c-2.428-2.428-7.162-6.402-12.166-7.824-5.003-1.423-4.12-4.636-4.12-4.636l7.628-2.674s11.896 4.881 15.82 10.376c3.949 5.543 8.266 22.713 8.266 22.713Z" fill="#3C3C3C"/><path d="M159.255 139.453c2.404 1.57 4.661 3.361 6.01 5.249 3.924 5.519 8.266 22.689 8.266 22.689l-4.612 1.275s-8.388-16.802-10.817-19.23c-2.428-2.428-7.162-6.402-12.165-7.824-5.004-1.423-4.121-4.636-4.121-4.636l7.628-2.674c-.024.025 5.151 2.134 9.811 5.151Z" fill="#539A85"/><path d="M169.757 155.176a.37.37 0 0 1-.344-.246c-1.643-4.807-3.164-8.167-4.464-10.007-2.134-2.992-6.72-5.813-10.203-7.653-.172-.098-.245-.319-.147-.49.098-.172.318-.246.49-.147 3.557 1.888 8.242 4.758 10.449 7.873 1.349 1.889 2.894 5.323 4.562 10.204.074.196-.024.392-.22.466h-.123ZM165.728 162.853c-.122 0-.27-.074-.319-.196-1.692-3.263-3.188-5.985-4.415-8.095a.345.345 0 0 1 .148-.49.345.345 0 0 1 .49.147 217.765 217.765 0 0 1 4.415 8.119c.098.171.025.392-.147.49-.049.025-.098.025-.172.025Z" fill="#fff"/><path d="M150.598 109.627a3.914 3.914 0 0 0-3.557.442c-1.692 1.177-4.022 3.385-4.268 6.72-.417 5.348-5.199 18.495-.245 24.357.417-.319 7.825-7.506 14.962-7.53-.172-3.459.245-14.227-1.104-18.764-.883-3.017-3.85-4.489-5.788-5.225Z" fill="#F37E60"/><path d="m162.383 116.912 1.349-3.532 1.619-.073 3.213 4.12.147.54-4.047 7.53-5.004.589.123-3.434 1.349-5.764 1.251.024Z" fill="#F3C55C"/><path d="m163.735 113.38 2.355 3.385-3.729.073 1.374-3.458Z" fill="#fff"/><path d="M145.027 122.75s2.674.736 5.029-.491l.049 4.023s5.935-1.84 7.481-2.919c1.545-1.079.392-4.856 3.286-5.739 0 0-.613 1.741-.368 1.962.27.196 1.031.319 1.914-.27.883-.564 2.477-1.349 3.556-1.079 1.079.27-.588 4.415-3.188 5.298-3.312 1.128-9.125 8.56-13.859 9.835a2.427 2.427 0 0 1-2.869-1.324c-.27-.589-.54-1.398-.638-2.502-.295-2.821-.393-6.794-.393-6.794Z" fill="#F1BBA2"/><path d="m151.252 106.39-1.545 2.698c-.761 1.324-.687 3.017.27 4.219.171.196.343.416.539.588a1.028 1.028 0 0 0 1.644-.319l1.643-3.581-2.551-3.605Z" fill="#EAAC8E"/><path d="M159.43 104.035c.417.123-1.717 6.941-3.9 7.138-2.183.196-5.004-1.766-4.807-4.146 0 0-1.399-.392-.687-2.207.588-1.521 1.741-.147 2.085.294.073.098.171.147.269.196 1.423.246.565-2.379 4.538-2.6-.049-.049.908.859 2.502 1.325Z" fill="#F1BBA2"/><path d="M30.827 212.645c4.342-5.691 8.462-12.534 9.59-19.598l.221-1.349-5.396-3.287-1.986 10.449c-.736 4.636-5.397 11.896-5.397 11.896l2.968 1.889Z" fill="#539A85"/><path d="m42.208 214.877 3.58-.025.835-6.966c.22-2.796.49-5.47.294-8.29l-.589-9.051-6.328.024 1.594 8.487c.442 3.189.736 6.108.81 9.443l-.197 6.378Z" fill="#539A85"/><path d="m41.837 213.797.049.663c.049.637 0 1.251-.319 1.79-.27.466-.54 1.128-.54 1.864 0 0 5.421 1.251 10.18.074 0 0 .024-.564-1.423-.883-1.447-.319-3.189-.54-3.312-1.03-.122-.491-.122-1.791-.318-2.061-.197-.269-1.938-.686-2.846 0-.049-.024-.858-.588-1.471-.417Z" fill="#6683C2"/><path d="M51.181 219.292a5.586 5.586 0 0 0 0-.908.207.207 0 0 0-.245-.196c-.957.147-4.93.662-9.689-.074-.122-.024-.245.074-.245.221v.908c0 .245.196.466.441.515 1.325.171 5.838.588 9.37-.074.196 0 .343-.172.368-.392Z" fill="#435F9A"/><path d="M48.977 218.016c-.049 0-.098 0-.122-.024-.197-.074-.295-.295-.221-.466l.172-.442c.073-.196.294-.294.466-.221.196.074.294.295.22.466l-.171.442a.369.369 0 0 1-.344.245ZM47.854 217.992c-.05 0-.098 0-.147-.025-.197-.074-.27-.294-.197-.491l.27-.637c.074-.197.295-.27.49-.197.197.074.27.295.197.491l-.27.638c-.049.147-.196.221-.343.221ZM46.67 217.697a.395.395 0 0 1-.22-.073.361.361 0 0 1-.075-.515l.467-.589a.362.362 0 0 1 .515-.074.361.361 0 0 1 .073.515l-.466.589a.35.35 0 0 1-.294.147ZM45.546 216.912a.37.37 0 0 1-.344-.22.39.39 0 0 1 .172-.491l.858-.392a.39.39 0 0 1 .491.171.39.39 0 0 1-.172.491l-.858.392c-.05.049-.098.049-.147.049ZM45.253 215.711c-.196 0-.343-.148-.368-.344-.024-.196.147-.368.343-.392l1.03-.074c.197-.024.369.147.393.344.025.196-.147.367-.343.392l-1.03.074h-.025Z" fill="#CCDCFF"/><path d="m28.055 209.701-.319.589c-.294.54-.687 1.03-1.25 1.324-.491.246-1.08.638-1.472 1.251 0 0 3.85 4.023 8.486 5.617 0 0 .32-.466-.711-1.52-1.055-1.055-2.404-2.208-2.208-2.674.221-.564.835-1.251.908-1.692.074-.515-1.3-1.865-2.428-1.766-.025 0-.393-.932-1.006-1.129Z" fill="#6683C2"/><path d="M32.892 219.439c.122-.172.294-.417.441-.638a.305.305 0 0 0-.147-.441c-1.03-.466-4.464-2.159-7.898-5.225a.333.333 0 0 0-.49.074l-.417.637a.497.497 0 0 0 .098.663c1.005.858 4.586 3.679 7.873 5.052a.417.417 0 0 0 .54-.122Z" fill="#435F9A"/><path d="M31.933 217.207a.35.35 0 0 1-.294-.147c-.122-.172-.098-.393.074-.515l.368-.27a.38.38 0 0 1 .515.073c.122.172.098.393-.074.515l-.368.27a.396.396 0 0 1-.22.074ZM31.026 216.594c-.122 0-.245-.049-.294-.172-.122-.172-.073-.392.098-.515l.564-.393c.172-.122.393-.073.516.099.122.171.073.392-.099.515l-.564.392c-.098.049-.147.074-.22.074ZM30.193 215.686a.369.369 0 0 1-.343-.245c-.074-.196.049-.393.22-.466l.712-.245c.196-.074.392.049.466.22.074.197-.05.393-.22.466l-.712.246c-.05.024-.074.024-.123.024ZM30.588 214.558h-.05l-.931-.147a.381.381 0 0 1-.32-.417.38.38 0 0 1 .418-.319l.932.147a.38.38 0 0 1 .319.417.392.392 0 0 1-.368.319ZM31.005 213.748a.447.447 0 0 1-.172-.049l-.907-.49c-.172-.098-.246-.319-.148-.491.098-.171.32-.245.49-.147l.908.491c.172.098.246.318.148.49a.382.382 0 0 1-.32.196Z" fill="#CCDCFF"/><path d="M57.43 175.23c.854-2.327-.794-5.072-3.68-6.132-2.887-1.06-5.92-.032-6.773 2.295-.855 2.327.793 5.072 3.68 6.132 2.886 1.059 5.918.032 6.773-2.295Z" fill="#F1BBA2"/><path d="M60.158 172.667a1.84 1.84 0 1 0-3.678-.006 1.84 1.84 0 0 0 3.678.006ZM48.54 170.922a1.84 1.84 0 1 0 .002-3.678 1.84 1.84 0 0 0-.001 3.678Z" fill="#F1BBA2"/><path d="M58.3 174.847c-.222 0-.442-.025-.663-.098a1.867 1.867 0 0 1-.687-.368.361.361 0 0 1-.074-.515.36.36 0 0 1 .516-.074c.147.098.294.196.466.245a1.469 1.469 0 0 0 1.84-.956c.122-.368.073-.761-.099-1.128a1.377 1.377 0 0 0-.858-.712 1.493 1.493 0 0 0-1.717.662c-.098.172-.32.246-.49.123-.172-.098-.246-.319-.123-.49a2.25 2.25 0 0 1 2.575-1.006 2.19 2.19 0 0 1 1.3 1.079c.27.515.319 1.128.147 1.668-.319.981-1.177 1.57-2.134 1.57ZM48.612 171.266c-.687 0-1.35-.319-1.766-.883a2.289 2.289 0 0 1-.417-1.644 2.129 2.129 0 0 1 .858-1.447c.981-.736 2.355-.515 3.09.442.221.294.344.613.418.956.024.197-.099.393-.295.417-.196.025-.392-.098-.417-.294a1.48 1.48 0 0 0-.27-.638 1.48 1.48 0 0 0-2.06-.294 1.45 1.45 0 0 0-.564.957c-.049.392.05.784.27 1.079.319.417.834.637 1.349.588a.381.381 0 0 1 .417.319.38.38 0 0 1-.319.417c-.098.025-.196.025-.294.025Z" fill="#CE8563"/><path d="M58.226 183.358c-.712.368-1.62.098-1.987-.613l-2.87-5.421 2.6-1.373 2.87 5.42c.368.712.098 1.619-.613 1.987ZM26.54 189.785c-.49.171-.809-.074-.76-.491.074-.392.515-.564 1.006-1.079.098-.098-1.398.294-2.06.27a.808.808 0 0 1-.638-.442s-.344-.613.22-.981c.835-.564 3.165-.957 3.753-1.3l1.276-.785 1.471 1.57-1.79 1.619c-.098.073-.785.637-1.276.907l-1.201.712Z" fill="#F1BBA2"/><path d="M42.48 169.794s-3.581 7.359-3.704 7.555c-2.11 3.728-3.606 6.353-7.996 9.934l-2.257-2.429 2.085-3.139a45.784 45.784 0 0 0 4.71-9.026l1.741-4.538 5.42 1.643Z" fill="#F37E60"/><path d="m38.675 167.832 3.778-.025 3.973 4.563a17.6 17.6 0 0 0 4.145 3.483l3.385 2.035a2.823 2.823 0 0 1 .515 3.655c-.833 1.276-2.526 1.693-3.826.883l-2.82-1.717v13.147H32.003l6.672-26.024Z" fill="#F37E60"/><path d="M51.178 185.467c1.07 0 1.938-.922 1.938-2.06s-.868-2.06-1.938-2.06c-1.07 0-1.938.922-1.938 2.06s.868 2.06 1.938 2.06ZM47.772 181.567c.589-1.03.319-2.305-.613-2.845-.932-.539-2.183-.147-2.772.883-.588 1.03-.319 2.306.614 2.845.932.54 2.183.148 2.771-.883ZM44.593 159.321c.368.098.687 1.3.785 1.741.294 1.545.147 4.268-.736 4.562-.834.27-1.055-.147-1.619.319-.49.393-.711 1.153-.785 2.379 0 .074.76.859 1.227 1.35.122.122-.957 1.373-3.116 1.25-2.722-.147-2.428-1.962-2.452-2.084-.025-.099 1.717-10.719 6.696-9.517Z" fill="#F1BBA2"/><path d="M46.04 159.664c.073.491-.27.957-.76 1.006-1.35.147-2.65.49-3.606 1.619-.932 1.103-.908 6.671-1.3 10.203a2.392 2.392 0 0 1-3.238 1.962c-3.728-1.398-6.083-4.954-4.562-7.579l4.464-8.069c.54-.908 1.35-1.619 2.404-2.11.49-.22 1.349-.441 1.888-.466 3.63-.171 4.514 2.11 4.71 3.434Z" fill="#363537"/><path d="M42.535 162.926c-.932-.122-1.153-1.937-.589-2.134.564-.22.981.712.981.712l-.392 1.422ZM94.396 180.611l.27 4.415c.024.123-.074.245-.172.245l-2.159.123c-.098 0-.171-.074-.196-.172l-.711-4.12 2.968-.491Z" fill="#F1BBA2"/><path d="M95.05 183.898c.147.515.441 1.962.564 2.821a1.103 1.103 0 0 1-.785 1.201c-1.496.393-5.053.393-8.02.515-.197 0-.59-.098-.736-.588-.565-1.668 2.55-2.183 5.616-3.876a.274.274 0 0 1 .197 0c.024.025.073.049.122.099.54.343 1.423.343 1.963.024l.613-.368c.196-.098.392-.024.466.172Z" fill="#99B9FF"/><path d="M95.682 187.111v.024c.073.54-.442.883-.932 1.104-1.472.687-7.383.294-7.628.27h-.025c-.073 0-.834 0-1.03-.466a.586.586 0 0 1-.049-.221c-.025-.122 0-.245.025-.368.024-.098.122-.171.22-.147 1.104.27 3.655.368 6.23.098 1.717-.196 2.453-.564 2.846-.785.098-.073.245 0 .27.123l.073.368Z" fill="#fff"/><path d="M91.495 185.688a.395.395 0 0 1-.22-.073l-.908-.687c-.172-.123-.196-.343-.074-.515.123-.172.344-.196.515-.074l.908.687c.172.123.196.343.074.515a.383.383 0 0 1-.295.147ZM90.29 186.179a.397.397 0 0 1-.22-.074l-.785-.588c-.172-.123-.196-.344-.074-.515.123-.172.344-.197.516-.074l.784.589c.172.122.197.343.074.515a.383.383 0 0 1-.294.147Z" fill="#556C9E"/><path d="M100.684 140.68s1.716 3.409 2.281 7.015c.539 3.335 2.501 17.12 7.284 28.182.54 1.251-.073 2.551-1.422 2.845-.54.123-.761-.073-1.227-.294-.245-.123-.637-.466-.637-.466s-8.487-7.088-11.945-25.656c-2.232-11.945-1.865-10.989-1.865-10.989l7.531-.637Z" fill="#539A85"/><path d="M98.305 142.225s1.006 6.475-.883 11.283c-1.815 4.611-2.967 22.688-2.28 27.912.048.319-.197.638-.516.687-.834.123-2.305.27-3.336.074a.47.47 0 0 1-.392-.368c-.662-2.649-6.23-26.613-2.306-38.901l9.713-.687Z" fill="#539A85"/><path d="M96.467 159.223a.361.361 0 0 1-.368-.368c0-.098-.074-2.649.98-5.077.344-.81.393-1.619.369-2.649 0-.197.147-.368.343-.368.196-.025.368.147.368.343.05 1.104-.024 2.036-.417 2.968-.981 2.281-.932 4.758-.932 4.783.025.196-.123.368-.343.368ZM92.44 152.551c-.27 0-.54-.049-.81-.171l-1.79-.785a1.795 1.795 0 0 1-1.08-1.717l.123-3.508c0-.221.099-.417.27-.564a.806.806 0 0 1 .613-.196c2.085.221 4.047.024 5.029-.123a.836.836 0 0 1 .637.196c.172.172.27.393.246.614l-.197 3.679a1.757 1.757 0 0 1-.76 1.373l-1.153.834c-.294.246-.711.368-1.128.368Zm-2.747-6.205c-.025 0-.025 0-.025.024 0 0-.024.025-.024.049l-.123 3.508c-.024.441.245.834.638 1.03l1.79.785c.393.172.883.122 1.227-.123l1.153-.834c.27-.196.417-.49.441-.809l.196-3.655c0-.024 0-.024-.024-.049-.025 0-.025-.024-.05-.024-1.005.122-3.016.318-5.2.098ZM101.449 151.717a.689.689 0 0 1-.368-.098l-1.962-1.006c-.245-.122-.393-.368-.442-.637l-.441-4.072a.81.81 0 0 1 .662-.883l2.379-.368c.196-.024.393.098.417.319a.363.363 0 0 1-.319.417l-2.379.368c-.024 0-.049.024-.049.073l.442 4.072c0 .025.024.049.024.049l1.962 1.006h.074l1.177-.834c.172-.123.393-.074.515.098.123.172.074.392-.098.515l-1.177.834c-.098.098-.245.147-.417.147Z" fill="#39836D"/><path d="M108.856 180.807c-.27-1.3-.368-1.569-1.006-2.575-.466-.76.663-1.889 1.251-1.962.957-.197.81.098 1.913 1.52l.859 1.055s-2.796 3.091-3.017 1.962Z" fill="#F1BBA2"/><path d="m108.684 180.317 1.104-1.668a1.502 1.502 0 0 1 2.305-.245l1.276 1.079s.245.736.171 1.202a9.774 9.774 0 0 1-.686 2.379c-.589 1.349-2.232 4.047-2.821 4.979-.123.196-.417.393-.638.294a3.007 3.007 0 0 1-.76-.564c-.393-.368-.27-2.085-.123-3.286.098-.761.025-2.723 0-3.532 0-.221.049-.442.172-.638Z" fill="#99B9FF"/><path d="M108.563 182.598c-.171 0-.319-.098-.343-.27a.371.371 0 0 1 .245-.442l1.202-.318c.196-.05.392.049.442.245a.37.37 0 0 1-.246.441l-1.202.319c-.024.025-.073.025-.098.025ZM108.657 183.677c-.172 0-.319-.098-.343-.27a.37.37 0 0 1 .245-.441l1.202-.319c.196-.049.392.049.441.245a.371.371 0 0 1-.245.442l-1.202.319c-.049.024-.073.024-.098.024Z" fill="#556C9E"/><path d="M109.887 188.411c-.123 0-.246-.025-.344-.049-.368-.123-1.251-.393-1.153-1.668.098-1.325 1.129-2.011 1.864-2.87.565-.662.516-3.458.687-3.998.319-.981 1.742-1.128 2.478-.343.466.49.515 1.545.466 2.33-.074 1.472-.932 4.366-2.036 5.789-.564.662-1.374.809-1.962.809Z" fill="#fff"/><path d="M102.35 113.797s1.3-3.924 1.349-5.224c.074-1.3-1.226-7.236-1.741-9.15 0 0 .49-3.63-2.282-4.267-.196-.05-.318-.196-.392-.368-.22-.613-.319-1.006-.54-1.742-.196-.613-1.079-.343-1.005.344.024.27.294 2.477.417 3.385.024.122-.05.27-.123.368-.196.22-.368.662 0 1.447.589 1.226.834.858 1.472 1.888.637 1.006.834 4.636.858 6.574.049 1.938-.76 3.581-1.177 4.292-.368.712 3.164 2.453 3.164 2.453Z" fill="#F1BBA2"/><path d="M100.321 109.676a1.104 1.104 0 0 0-1.202.589c-.466.883-3.851 4.562-4.366 4.955-.613.49-2.404 3.483-6.28 3.385a.942.942 0 0 0-.612.22c-.442.368-1.472 1.08-3.287 1.619-1.08.319-1.962 1.374-2.06 3.728-.123 2.821-3.042 8.34-2.208 10.449 1.496 3.679 3.875 2.649 6.132 1.889 0 0 .147 0 .024 3.311-.196 5.053-.319 5.274 6.672 4.808 5.273-.344 10.081-1.104 10.13-2.208.049-.809-1.374-5.2-1.668-10.473-.294-5.274.638-13.343 1.226-15.404.565-1.815-.122-6.353-2.501-6.868Z" fill="#F3EB5D"/><path d="M86.073 137.27a.369.369 0 0 1-.343-.245c-.074-.196.024-.392.22-.466.05-.025 1.815-.834 1.521-5.887 0-.196.147-.368.343-.392.197-.025.368.147.393.343.343 5.715-1.889 6.574-1.987 6.623-.073.024-.098.024-.147.024Z" fill="#D7CE37"/><path d="M92.836 107.543c.123.466.392 1.594.662 1.937.687.859 1.276 3.655.196 5.568-.613 1.079-.662 1.962-.613 2.453a.93.93 0 0 1-.417.858 5.11 5.11 0 0 1-2.28.81l-.246.024a.923.923 0 0 1-.932-.515c-.515-1.055-1.644-3.262-2.355-3.802-.957-.735-6.475-6.966-2.796-8.903 6.353-3.385 8.364.147 8.78 1.57Z" fill="#F1BBA2"/><path d="M94.23 108.254s-.197-5.126-3.581-5.813c-3.385-.687-7.432.441-8.536 1.937-1.104 1.497-.147 3.999-.147 3.999s-1.3 2.354.417 3.433c1.717 1.08 3.458 3.876 5.249 2.944 1.79-.908 2.771-1.962 2.698-3.802-.074-2.404 3.9-2.698 3.9-2.698Z" fill="#363537"/><path d="M194.321 128.906c.686-2.256.564-3.679-.05-5.175l-1.054-2.085 3.139-1.251.957 2.379c.319.761.76 1.472 1.324 2.061l.516.539-4.832 3.532Z" fill="#F1BBA2"/><path d="M197.743 124.221c.073-.245.392-.294.588-.122.491.539 1.374 1.422 2.036 1.864.613.417.81 1.251.466 1.913-.981 1.864-3.483 5.911-6.132 8.977-.171.221-.637.491-1.275.196-2.159-.981-.098-5.371 1.079-9.958a.475.475 0 0 1 .368-.343l.662-.123c1.202-.245 1.693-.809 2.208-2.404Z" fill="#24604E"/><path d="M193.966 137.54c-.221 0-.442-.049-.687-.147-1.962-.883-1.055-3.876-.025-7.334.295-.981.614-2.011.883-3.041a.815.815 0 0 1 .663-.614l.662-.122c1.055-.221 1.472-.687 1.938-2.159a.664.664 0 0 1 .515-.466.775.775 0 0 1 .686.196c.467.491 1.325 1.374 1.987 1.816a1.841 1.841 0 0 1 .564 2.379c-1.03 1.937-3.532 5.96-6.181 9.051-.196.245-.564.441-1.005.441Zm4.12-13.171c-.564 1.717-1.177 2.354-2.501 2.624l-.663.123c-.049 0-.073.049-.073.073-.27 1.055-.589 2.085-.883 3.091-.957 3.139-1.766 5.837-.393 6.451.515.22.785-.049.834-.098 2.6-3.042 5.053-6.991 6.083-8.904a1.087 1.087 0 0 0-.343-1.423c-.638-.49-1.472-1.324-2.061-1.937Z" fill="#000"/><path d="M200.232 125.865s.098.073.147.098c.613.417.81 1.251.466 1.913-.981 1.864-3.483 5.911-6.132 8.977-.171.221-.637.491-1.275.196-.196-.098-.491-.343-.491-.343l.172-.221a83.681 83.681 0 0 0 6.843-10.154l.27-.466Z" fill="#F5F0ED"/><path d="M193.977 137.54c-.221 0-.441-.049-.687-.147-.245-.098-.539-.344-.588-.393-.147-.122-.172-.343-.049-.515l.171-.22a84.736 84.736 0 0 0 6.819-10.106l.27-.49c.049-.099.147-.148.245-.172a.423.423 0 0 1 .295.049l.147.098c.76.54 1.005 1.545.588 2.379-1.03 1.938-3.532 5.96-6.181 9.051-.22.27-.588.466-1.03.466Zm-.515-.883c.049.025.098.049.123.074.515.22.785-.049.834-.099 2.6-3.041 5.052-6.99 6.083-8.903.22-.442.147-.957-.172-1.276l-.074.123a83.294 83.294 0 0 1-6.794 10.081ZM193.601 130.893a.368.368 0 0 1-.367-.319c-.025-.196.098-.392.294-.417l2.183-.368c.196-.024.392.098.417.295.024.196-.098.392-.294.417l-2.183.367c-.025.025-.025.025-.05.025ZM193.234 132.119a.369.369 0 0 1-.368-.318c-.024-.197.098-.393.319-.417l1.766-.27a.363.363 0 0 1 .417.319.363.363 0 0 1-.319.417l-1.766.269h-.049Z" fill="#000"/><path d="M212.083 96.088s-21.879-4.783-28.526-1.006c-1.005.565-1.962 1.766-2.158 2.895-.638 3.458 1.275 10.988 11.822 25.141.147.196.417.27.638.196l3.336-1.275a.556.556 0 0 0 .343-.663l-4.464-15.599a.57.57 0 0 1 .638-.736l20.849 2.551-2.478-11.504Z" fill="#F37E60"/><path d="m205.639 137.221-.417 2.036c-.565 2.968 1.594 4.464 1.594 4.464l-6.402.785s1.398-.859 1.104-4.955l-.368-3.434 4.489 1.104Z" fill="#F1BBA2"/><path d="M205.762 140.974c.54.613 1.496 1.741 2.208 2.845.466.687.196 1.496-.319 2.159-1.006 1.349-2.404 2.403-4.023 3.458-1.422.932-3.017 1.913-4.93 2.796-.515.245-1.692.564-2.477.172-2.355-1.178 1.569-4.857 4.66-9.1a.501.501 0 0 1 .54-.196l.735.147a1.794 1.794 0 0 0 1.865-.785l.981-1.447c.22-.245.564-.27.76-.049Z" fill="#24604E"/><path d="M197.153 152.968c-.368 0-.736-.049-1.055-.221-.49-.245-.785-.588-.883-1.054-.294-1.349 1.276-3.312 3.238-5.789.711-.908 1.472-1.84 2.183-2.821a.91.91 0 0 1 .908-.343l.735.147a1.428 1.428 0 0 0 1.497-.613l.981-1.447a.822.822 0 0 1 .637-.368.744.744 0 0 1 .663.294c.515.589 1.496 1.766 2.256 2.894.491.736.368 1.644-.319 2.576-1.079 1.447-2.624 2.575-4.12 3.556-1.349.883-2.993 1.914-4.98 2.821a4.595 4.595 0 0 1-1.741.368Zm4.219-9.492a.136.136 0 0 0-.123.073 67.048 67.048 0 0 1-2.207 2.846c-1.717 2.133-3.336 4.145-3.091 5.175.025.147.123.368.491.564.613.294 1.643.049 2.158-.172 1.913-.883 3.532-1.888 4.857-2.771 1.668-1.104 2.968-2.085 3.924-3.385.344-.466.687-1.153.294-1.742-.735-1.103-1.692-2.232-2.183-2.82-.024-.025-.049-.025-.073-.025-.025 0-.049 0-.074.025l-.981 1.447a2.193 2.193 0 0 1-2.256.932l-.736-.147Z" fill="#000"/><path d="M207.595 143.329s.343.466.392.515c.123.172.172.368.221.588.123.663-.122 1.35-.588 1.84l-.442.442a29.4 29.4 0 0 1-6.206 4.488c-1.152.613-3.679 1.913-4.709 1.227-.319-.221-.515-.834-.515-.834s.613.368 2.428-.54c3.066-1.521 5.151-3.238 7.702-5.298.491-.392.834-.785 1.202-1.202.27-.368.466-.785.515-1.226Z" fill="#F5F0ED"/><path d="M197.049 152.968c-.393 0-.736-.073-.981-.245-.417-.27-.638-.908-.662-1.055-.05-.147 0-.343.122-.417.123-.098.27-.098.417 0 .098.025.662.147 2.085-.539 2.943-1.472 5.004-3.115 7.383-5.053l.245-.196a8.537 8.537 0 0 0 1.153-1.153c.245-.294.392-.638.441-1.03a.4.4 0 0 1 .27-.319c.147-.049.295.024.393.122.098.148.343.466.392.54.123.196.221.442.27.711.147.761-.123 1.57-.687 2.159-.122.122-.27.27-.466.441-1.864 1.766-3.973 3.287-6.279 4.563-1.791 1.005-3.14 1.471-4.096 1.471Zm-.687-.956c.025.049.074.073.098.098.27.196 1.276.441 4.342-1.251a29.266 29.266 0 0 0 6.132-4.44c.171-.171.318-.319.441-.417.393-.417.589-.981.491-1.52a1.23 1.23 0 0 0-.098-.319c-.099.22-.221.417-.368.613a8.8 8.8 0 0 1-1.251 1.275l-.246.197c-2.428 1.962-4.513 3.63-7.53 5.126-.932.441-1.569.589-2.011.638ZM201.519 146.64h-.074l-2.379-.515a.367.367 0 0 1 .171-.712l2.38.515c.196.05.319.246.269.442a.399.399 0 0 1-.367.27ZM200.19 147.719h-.073l-1.938-.466a.366.366 0 1 1 .172-.711l1.937.466a.365.365 0 0 1 .27.441.399.399 0 0 1-.368.27Z" fill="#000"/><path d="M197.93 102.318c6.378-5.445 26.883-5.617 26.883-5.617s2.551 3.042 1.349 9.174c-.392 2.011-1.84 3.826-4.096 3.826l-12.583.098c-.932 0-1.643.785-1.619 1.692.245 6.083.442 18.617-1.3 27.177a.971.971 0 0 1-.662.712c-.81.22-2.379.564-4.096.539-.54 0-.981-.417-1.055-.932l-4.17-31.101a9.913 9.913 0 0 1 .025-2.821c.172-.956.539-2.06 1.324-2.747Z" fill="#F37E60"/><path d="M196.216 106.316a.361.361 0 0 1-.368-.368c.147-5.224 6.867-6.72 6.941-6.745.196-.05.392.074.442.294.049.197-.074.393-.295.442-.073.024-6.23 1.373-6.353 6.034 0 .196-.147.343-.367.343Z" fill="#CB6247"/><path d="M210.811 97.928s-.221.441 5.47 1.25c4.096.59 7.824.32 9.59.148a.95.95 0 0 0 .81-1.177c-.466-1.84-.81-3.557-2.576-8.242-1.226-3.238.54-9.91-2.551-12.877-5.273-5.053-20.554 3.9-20.554 3.9l1.741 2.036a41.952 41.952 0 0 1 7.457 12.705l.613 2.257Z" fill="#68CCEB"/><path d="M188.372 84.045c.049-.712.269-1.496-.098-2.06l-.761-.982c-.539-.834-.49-1.962-.147-2.87l.981-2.379c.098-.27.466.344.54.614l2.673 9.492c.442 1.373 1.963 1.496 2.821.907l3.532-2.403 4.17 5.788s-4.047 2.87-9.247 3.778c-1.178.171-5.053.073-4.464-9.885Z" fill="#F1BBA2"/><path d="m196.736 83.726.197-.147c1.005-.76 2.084-1.496 3.188-2.11l2.845-1.52 4.44 7.873-6.083 3.115-4.587-7.211Z" fill="#68CCEB"/><path d="m208.434 86.4-2.428 2.231c-.172.148-.368.27-.589.32a1.299 1.299 0 0 1-1.276-.467l-4.782-7.088a2.064 2.064 0 0 0-1.57-.908l-3.042-.245c-.392-.024-.637.442-.368.736.295.294.736.588 1.349.711.393.074.687.368.736.736.246 1.643 2.134 2.355 2.134 2.355s1.84 10.94 7.015 9.615c6.892-1.766 10.841-6.574 10.841-6.574l-8.02-1.422Z" fill="#F1BBA2"/><path d="M208.657 85.664a.394.394 0 0 1-.221-.074c-.172-.123-.221-.343-.098-.515l1.103-1.594c.123-.172.344-.221.516-.098.171.122.22.343.098.515l-1.104 1.594a.32.32 0 0 1-.294.172ZM216.746 87.528a.393.393 0 0 1-.27-.123c-.123-.147-.123-.392.024-.515 3.655-3.189 4.759-5.813 5.249-6.941l.074-.147c.073-.197.294-.27.49-.197.197.074.27.295.197.49l-.074.148c-.49 1.177-1.643 3.9-5.445 7.211a.415.415 0 0 1-.245.074Z" fill="#379EBE"/><path d="m191.481 88.24 5.862.269c.883.049 1.693-.515 1.595-1.128l-1.963-12.24c-.073-.392-.49-.662-1.054-.711l-5.887-.245c-.883-.05-1.692.515-1.594 1.128l1.962 12.24c.074.392.491.662 1.079.686Z" fill="#fff"/><path d="m215.925 76.27 1.693.441c.392.098.392.638 0 .785-4.415 1.643-6.598 1.006-7.972.834-.392-.05-.49-.589-.122-.76.49-.221.711-.785.515-1.3l-1.178-2.968 2.551-4.98 2.674 6.427c.343.76 1.03 1.3 1.839 1.52Z" fill="#F1BBA2"/><path d="M205.751 66.238c-2.526 1.864-1.496 3.556-1.496 3.556.171.49.613 1.644.564 1.889-.074.294-.368.834-.344 1.005.025.172.368.393.883.368 0 0 .908 2.404 1.644 2.625.76.22 2.992-1.276 2.992-1.276l.368-.294c1.178-.932 1.668-2.281 1.644-3.777 0 0-.491-8.34-6.255-4.096Z" fill="#F1BBA2"/><path d="M206.289 64.643c-.687.393-1.276 1.08-1.644 1.227-.588.245-1.054-.295-1.741.22-.613.442-1.055 1.03-.957 1.717.025.123.049.246.098.344.638 1.619 1.766 1.496 2.232 1.447 0 0 2.478-.687 2.993-.711.466-.025 1.275.417 1.766 1.349.073.122.196.171.343.147a.305.305 0 0 0 .245-.344c-.049-.49-.122-1.52.368-1.692.565-.196 1.595.711 1.055 1.619-.172.27.025.662.344.687.269.024.564-.05.809-.417 0 0 .711-2.968-.613-4.93-1.325-1.914-4.366-1.178-5.298-.663Z" fill="#363537"/><path d="M204.423 73.228a.455.455 0 0 1-.172-.05c-.343-.17-.638-.612-.834-1.152a2.665 2.665 0 0 1-.147-1.03c.049-.54.343-.736.515-.785.515-.172 1.104.319 1.398 1.177.074.197-.025.393-.221.466-.196.074-.392-.024-.466-.22-.147-.393-.343-.638-.466-.687-.049.123-.073.441.074.858.147.393.343.663.49.736.172.098.246.32.147.49a.382.382 0 0 1-.318.197Z" fill="#000"/><path d="M206.164 72.517c-.515 0-1.054-.466-1.324-1.178-.123-.367-.172-.76-.098-1.103.098-.393.318-.687.637-.785.589-.221 1.3.294 1.595 1.153.122.368.171.76.098 1.103-.098.393-.319.687-.638.785-.098 0-.196.025-.27.025Zm-.49-2.38h-.049c-.074.025-.123.123-.148.246-.049.196-.024.441.074.687.172.49.515.735.662.686.074-.024.123-.122.147-.245.049-.196.025-.441-.073-.687-.172-.441-.466-.686-.613-.686Z" fill="#000"/><path d="M206.389 70.579a.368.368 0 0 1-.343-.245c-.074-.197.024-.393.221-.466l2.624-1.03a.355.355 0 0 1 .466.22c.074.196-.024.393-.221.466l-2.624 1.03c-.025.025-.074.025-.123.025Z" fill="#000"/><path d="M132.125 83.971a.359.359 0 0 1-.319-.172c-.122-.171-.073-.392.099-.515l26.122-17.071c.171-.123.392-.074.515.098.122.172.073.392-.098.515l-26.123 17.071a.277.277 0 0 1-.196.074ZM130.263 79.875a.315.315 0 0 1-.245-.098.38.38 0 0 1-.025-.515l10.032-10.596a.38.38 0 0 1 .515-.025.378.378 0 0 1 .025.515l-10.032 10.596a.396.396 0 0 1-.27.123Z" fill="#449AB4"/><path d="M42.84 129.519a.35.35 0 0 1-.295-.147c-.122-.172-.098-.392.074-.515l14.349-10.645c.171-.123.392-.098.515.073.123.172.098.393-.074.516L43.06 129.446a.395.395 0 0 1-.22.073ZM57.383 123.755a.35.35 0 0 1-.294-.147.38.38 0 0 1 .074-.515l12.68-9.321a.382.382 0 0 1 .516.074.38.38 0 0 1-.074.515l-12.68 9.321a.395.395 0 0 1-.222.073ZM44.56 133.174a.35.35 0 0 1-.295-.147.38.38 0 0 1 .073-.515l9.713-7.138a.381.381 0 0 1 .515.074.38.38 0 0 1-.073.515L44.78 133.1a.39.39 0 0 1-.22.074ZM112.258 125.595a.351.351 0 0 1-.295-.147c-.122-.172-.098-.393.074-.515l14.349-10.645c.171-.123.392-.099.515.073.122.172.098.393-.074.515l-14.349 10.645a.394.394 0 0 1-.22.074ZM113.973 129.274a.351.351 0 0 1-.295-.147c-.122-.172-.098-.393.074-.515l22.762-17.096c.171-.123.392-.098.515.073.122.172.098.393-.074.516L114.193 129.2a.387.387 0 0 1-.22.074Z" fill="#fff"/></svg>