<svg width="239" height="158" fill="none" xmlns="http://www.w3.org/2000/svg"><g clip-path="url(#a)"><g clip-path="url(#b)"><path d="M206.981 91.745c-1.956-.958-3.411 2.148-1.044 3.056 2.368.91 3.71 1.501 4.456 1.501.745 0 1.428-1.934.791-2.572-.638-.637-2.852-1.325-4.203-1.985Z" fill="#F1BBA2"/><path d="M114.15 66.42c3.316 0 4.188 4.263 8.328 5.637 5.133 1.704 11.802-.99 13.524-5.385 2.237-5.71-1.997-8.684-1.035-18.174.637-6.288-3.642-5.732-7.307-11.853-3.664-6.126-2.684-6.79-7.654-12.42-4.971-5.628-13.276-6.424-19.516-5.434-6.24.99-9.35 2.134-14.234 5.493-4.885 3.36-2.675 6.958-5.816 9.332-3.14 2.368-4.54 5.122-5.49 9.833-1.825 9.041 4.311 13.413 1.555 16.537-2.757 3.124-8.35 17.125 6.123 16.28 5.115-.299 9.697 1.383 12.204-2.5 3.692-5.715 5.536-1.913 10.592-4.417 5.061-2.51 8.721-2.92 8.721-2.92l.005-.01Z" fill="#363537"/><path d="M77.055 69.511c12.186-9.923 13.343 0 42.579-1.939 3.606-.24 20.018 3.065 23.185 5.014 16.059 9.869 28.612 74.5 28.612 74.5l-92.994-1.027-1.382-76.548Z" fill="#F3C55C"/><path d="M100.364 65c-.212 4.096-3.94.221-3.94 5.411 0 4.508 5.043 11.71 19.317 9.426 9.078-1.45 11.807-9.204 6.412-11.465-3.055-1.28-4.496-6.42-4.496-6.42l-17.293 3.043V65Z" fill="#F1BBA2"/><path d="M119.715 41.518c2.807 11.248 2.698 27.587-10.108 28.568-15.666 1.202-32.914-29.558-20.343-40.851 12.571-11.293 26.475-3.644 30.451 12.283Z" fill="#F1BBA2"/><path d="M94.876 37.648c-1.843 3.558-1.974 4.195-4.017 6.239-2.042 2.043-1.852 7.337-.876 10.357 4.65 14.4.668 7.446-.254 8.368-.921.923-4.74-8.48-5.264-9.005-.528-.53-4.672-15.606-4.672-17.189 0-1.582 9.982-11.121 11.188-12.333 1.211-1.211 12.11-3.472 15.205-3.472 3.096 0 9.282-.393 10.601 1.714 1.315 2.106 9.873 19.756 9.873 19.756s5.134 8.224 1.663 7.993c-4.442-.298-5.277-1.194-6.416-3.793-1.22-2.794-2.377-9.07-8.495-6.994-10.343 3.504-18.536-1.632-18.536-1.632v-.01Z" fill="#363537"/><path d="M52.407 153.338c-3.963-24.689 15.715-81.49 28.49-86.661 9-3.649 15.937-.778 17.609 9.19 1.672 9.97-13.547 56.942-13.547 56.942s44.631-12.27 48.584 0c3.95 12.269 1.975 20.963 1.975 20.963l-83.107-.434h-.005Z" fill="#F3C55C"/><path d="M93.668 134.061c-4.09 0-7.722-.09-10.47-.163-1.323-.031-2.471-.063-3.407-.077a1.122 1.122 0 0 1-.957-.515c-1.022-1.578 1.201-6.962 5.562-17.148 4.46-10.425 10.009-23.4 10.009-30.44a.556.556 0 1 1 1.111 0c0 7.27-5.598 20.359-10.099 30.879-1.794 4.191-3.484 8.146-4.546 11.094-1.518 4.218-1.192 4.91-1.102 5.014h.036c.94.013 2.092.04 3.42.077 6.1.153 15.314.388 24.794-.312a.557.557 0 1 1 .082 1.112c-4.975.366-9.973.474-14.433.474v.005Z" fill="#C99565"/><path d="M100.51 52.712c-.1.642.573 2.581 2.01 2.138.949-.294.791-2.717-.325-3.16-.908-.357-1.586.38-1.685 1.022ZM112.285 49.113c-.167.629.425 2.618 1.898 2.324.976-.19.945-2.604-.113-3.16-.863-.457-1.618.208-1.785.836Z" fill="#372313"/><path d="M106.795 63.494c.782.904 2.657 1.967 5.54.99 2.883-.976 2.553-3.883 2.553-3.883-2.603 1.645-5.084 2.437-8.093 2.889v.004Z" fill="#E66C40"/><path d="M110.177 46.894c.578 0 2.408-1.285 4.148-1.004 1.74.28 1.676.04 1.261-.38-.421-.42-1.6-.854-3.805-.57-2.675.349-2.106 1.954-1.604 1.954ZM102.506 48.738c.031-.556-1.162-.692-2.025-.466-1.184.312-2.991 2.04-3.29 3.278-.157.647.299.963.963.054.786-1.071 1.405-1.722 2.404-1.876.804-.127 1.925-.552 1.948-.986v-.004Z" fill="#363537"/><path d="M92.538 54.448c1.41 1.99 3.353 5.9 1.907 6.926-1.446 1.026-5.734-1.216-7.144-3.205-1.41-1.99-1.382-4.435.064-5.462 1.446-1.026 3.764-.248 5.173 1.74Z" fill="#F1BBA2"/><path d="M109.855 71.46c-2.842 0-5.201-.95-5.332-1.004a.365.365 0 0 1 .276-.673c.04.018 4.143 1.663 7.885.57a.367.367 0 0 1 .452.248.367.367 0 0 1-.249.452 10.828 10.828 0 0 1-3.032.412v-.005Z" fill="#C99565"/><path d="M94.057 61.957c1.026 1.026 5.775 5.678 10.605 8.165 1.401.723.692 5.534.57 6.252-.922 5.47-6.778 4.29-10.276 2.541-3.755-1.88-.24-13.87-5.553-14.232-6.024-.411-8.418 2.256-9.295 2.026-1.717-.457 1.36-3.124 5.549-4.386 3.357-1.008 7.785-.76 8.4-.366Z" fill="#363537"/><path d="M96.6 24.985c-2.278-.375-3.39 2.37-4.456 3.875-.213.298.28.678.506.393.994-1.239 1.902-3.856 3.859-3.617.366.045.456-.587.086-.65h.004ZM97.63 27.331c-1.535.14-2.435 1.33-3.325 2.455-.257.326.194.787.461.461.764-.945 1.564-2.097 2.87-2.256.41-.05.429-.7 0-.66h-.005ZM86.618 41.188c-1.31 1.574-2.2 3.58-2.567 5.597-.076.412.552.592.638.177.38-1.89 1.183-3.798 2.39-5.313.258-.32-.19-.782-.461-.46ZM101.8 73.151c.032-.43-.623-.42-.664 0-.081.913.095 1.831.05 2.749-.023.411-.072.89-.33 1.23-.33.434-.872.434-1.37.397-.433-.031-.41.61 0 .665 3.046.38 2.188-3.21 2.314-5.04ZM132.298 52.332c-.375-.778-.863-1.492-1.319-2.22-.298-.479-.836-1.153-.809-1.75.018-.415-.623-.415-.646 0-.032.502.248 1.004.488 1.425.375.664.809 1.297 1.197 1.953.353.588.75 1.234.863 1.926.118.719-.302 1.022-.948 1.198-.416.113-.24.728.176.642.659-.14 1.283-.511 1.437-1.212.144-.664-.149-1.37-.434-1.957l-.005-.005ZM132.335 60.302c-.375-.42-.849-.624-1.346-.859-.601-.289-.909-.574-.823-1.288.041-.357-.587-.448-.637-.086-.149 1.062.375 1.596 1.288 2.02.452.209 1.193.525 1.306 1.086.086.443-.646.8-.904 1.085-.285.316.158.768.47.47.343-.33.84-.606 1.039-1.058.222-.502-.054-.99-.388-1.365l-.005-.005ZM115.079 29.904c-.573-.615-1.305-.836-2.123-.913-.922-.09-1.821-.04-2.458-.828-.276-.339-.746.14-.479.48 1.188 1.496 3.307.46 4.586 1.731.303.303.759-.158.47-.47h.004Z" fill="#352D27"/><path d="M139.803 71.505c5.065.687 21.138 19.503 41.481 23.87 20.343 4.367 27.776-.24 27.776-.24l8.685 14.079c-19.905 14.589-50.998 6.926-70.708-2.898l-7.234-34.811Z" fill="#F3C55C"/><path d="M220.467 151.331s12.29-38.803-13.47-57.818c-5.423-4.001-10.14-5.886-21.541-5.846-12.141.046-23.068 11.425-27.36 19.133-7.953 14.281-14.541 44.531-14.541 44.531h76.912Z" fill="#7FCBB4"/><path d="M205.942 151.299a.542.542 0 0 1-.543-.543v-22.107c-.004-.104-.686-13.273-2.53-18.4a.54.54 0 0 1 .33-.696.54.54 0 0 1 .696.33c1.902 5.28 2.566 18.197 2.598 18.744v22.134a.54.54 0 0 1-.542.542l-.009-.004ZM165.871 147.777a.543.543 0 0 1-.538-.484c-.131-1.134-3.217-27.921-1.455-37.333a.546.546 0 0 1 1.071.203c-1.735 9.25 1.437 36.733 1.469 37.008a.548.548 0 0 1-.479.606h-.068Z" fill="#539A85"/><path d="M178.321 92.17c-2.729 3.101-4.468 12.59.511 12.844 11.708.601 15.788-15.308 12.652-16.32-7.166-2.32-13.163 3.476-13.163 3.476Z" fill="#F1F2F2"/><path d="M177.822 84.236c0 1.211-.709 8.942 1.279 10.045 5.82 3.228 12.39-3.526 12.39-5.583V82.06l-13.664 2.18-.005-.005Z" fill="#F1BBA2"/><path d="M168.479 53.869c-.569-5.913-4.026-10.85-7.013-8.373-2.987 2.478-6.403 5.086-5.675 8.373.406 1.84 9.981 4.846 9.981 4.846l2.707-4.846Z" fill="#363537"/><path d="M162.586 59.638a.544.544 0 0 1-.343-.968c1.902-1.532 2.828-3.169 2.828-5 0-.303.244-.542.542-.542.299 0 .543.244.543.542 0 2.152-1.089 4.119-3.236 5.85a.537.537 0 0 1-.339.122l.005-.004Z" fill="#DE501D"/><path d="M164.294 67.92c-1.894.425-3.294.913-4.072.14-.777-.778 0-2.78 0-2.78l2.499-.403 1.573 3.043Z" fill="#82512B"/><path d="M199.28 69.932c-1.798 12.41-9.764 22.238-20.944 22.238-8.26 0-13.714-4.137-14.608-12.595-.208-1.967.189-4.697.04-5.85-.248-1.94-1.676-4.092-1.676-6.126 0-12.41 10.664-18.364 21.843-18.364s17.126 8.418 15.345 20.697Z" fill="#F1BBA2"/><path d="M175.275 71.048c-.045-.402.908-1.211 2.214-.904 1.301.308 2.268 1.23 1.844 1.483-.425.253-1.378-.533-2.21-.438-.831.09-1.812.144-1.843-.14h-.005ZM168.806 71.284c.045-.403-.909-1.212-2.215-.905-1.301.308-2.268 1.23-1.843 1.483.425.253 1.378-.533 2.209-.438.832.095 1.812.144 1.844-.14h.005ZM173.601 63.43c9.517-.93 10.054 2.907 12.775 6.502 2.724 3.594 9.394 2.902 12.458 2.418 1.043-.162 2.62-6.953 2.187-11.008-.321-3.007-.145-8.531-6.336-11.75-6.19-3.219-8.341-3.942-14.355-2.826-6.01 1.117-12.54 17.234-6.733 16.665h.004Z" fill="#363537"/><path d="M189.789 54.244c.569-5.913 6.358-10.945 9.349-8.468 2.992 2.478 5.789 9.517 4.239 10.593-1.55 1.076-10.881 2.721-10.881 2.721l-2.707-4.846Z" fill="#363537"/><path d="M193.428 59.249c-2.635 0-3.719-1.614-4.081-2.374-.632-1.324-.565-2.943.154-3.607a.543.543 0 1 1 .736.8c-.253.235-.411 1.297.086 2.337.38.796 1.406 2.07 4.013 1.686a.546.546 0 0 1 .158 1.08 7.694 7.694 0 0 1-1.071.082l.005-.004Z" fill="#D9886B"/><path d="M159.503 67.454c3.177 4.128 4.419-7.102 13.249-4.954 3.448.836.741-5.078 4.026-7.37 3.281-2.292 8.513-7.418 2.82-8.16-5.694-.741-13.403 2.55-15.545 6.067-.953 1.564-2.923 3.653-3.208 6.474-.379 3.807-2.255 6.754-1.337 7.943h-.005Z" fill="#363537"/><path d="M170.133 84.512s.989 2.278 3.628 2.418c2.639.14 3.114-2.396 3.114-2.396-2.323.791-4.334.954-6.742-.022Z" fill="#F1F2F2"/><path d="M177.203 74.204c-.461.172-.926.913-.705 2.007.222 1.09 1.04 1.569 1.55 1.239.511-.33.877-1.858.556-2.496-.321-.637-1.107-.859-1.405-.746l.004-.004ZM166.871 74.222c-.452.19-.89.95-.624 2.035.267 1.08 1.098 1.523 1.6 1.175.501-.353.8-1.89.456-2.514-.343-.624-1.143-.814-1.432-.691v-.005Z" fill="#372313"/><path d="M183.843 59.01c-1.125-1.303-3.231-1.65-4.794-1.045-.38.15-.222.76.171.62 1.433-.512 3.069-.172 4.153.894.307.303.75-.149.47-.47ZM185.996 53c-1.92-.46-3.692-.234-5.454.638-.379.19-.045.755.334.57 1.627-.791 3.186-.913 4.948-.574.412.081.592-.534.177-.633h-.005ZM193.687 65.343c-1.13.37-2.54-.823-2.495-1.98.018-.416-.614-.411-.641 0-.1 1.537 1.798 3.21 3.312 2.618.384-.154.235-.774-.176-.638ZM167.287 56.387c-1.098-.104-2.2.263-2.842 1.203-.239.348-.357.746-.483 1.144-.186.583-.384.85-1.026.908-.416.041-.429.651 0 .66.949.014 1.414-.542 1.685-1.388.159-.497.308-.944.71-1.31.533-.489 1.261-.62 1.961-.58.416.023.402-.6 0-.637h-.005ZM172.574 50.705c-.727-.186-1.215-.72-2.02-.62-.75.095-1.346.62-1.807 1.185-.262.32.172.786.465.465.443-.474.99-1.044 1.704-.976.529.05.962.47 1.486.574.407.081.583-.524.172-.628Z" fill="#251C16"/><path d="M178.324 92.532a.363.363 0 0 1-.361-.362c0-.199.163-.362.361-.362 3.163 0 5.798-.61 7.822-1.813a.363.363 0 0 1 .371.624c-2.138 1.27-4.894 1.913-8.193 1.913Z" fill="#C48976"/><path d="M180.379 151.452c0-5.809 8.111-17.111 23-17.111s22.516 1.04 22.516 1.04v15.854l-45.516.217Z" fill="#7FCBB4"/><path d="M180.125 138.437a.544.544 0 0 1-.194-1.053c4.631-1.773 22.087-3.626 26.018-3.577a.54.54 0 0 1 .538.552.544.544 0 0 1-.543.538h-.009c-3.764-.054-21.188 1.808-25.611 3.504a.61.61 0 0 1-.195.036h-.004Z" fill="#539A85"/><path d="M107.792 141.846H176.1a7.286 7.286 0 0 1 7.28 7.283v1.13h-75.593v-8.418l.005.005Z" fill="#7C8CAF"/><path d="M166.857 150.264H91.64l-4.944-55.928c-.284-1.614.42-3.102 2.038-3.102h70.46c1.256 0 2.336.913 2.557 2.17l5.106 56.86Z" fill="#7C8CAF"/><path d="M129.45 112.27c.199 3.101-1.97 5.764-4.844 5.95-2.874.185-5.368-2.175-5.571-5.276-.204-3.102 1.97-5.764 4.844-5.95 2.874-.185 5.368 2.175 5.571 5.276Z" fill="#DBDBDB"/><path d="M293.703 149.382H3.433v11.895h290.27v-11.895Z" fill="#DCBFA3"/><path d="M234.667-1.137s14.392 55.752 14.392 66.873c0 11.122-6.629 6.845-6.629 6.845s-4.916-38.713-6.629-43.134c-1.708-4.421-.641-8.129-.641-11.194 0-3.065-1.568-6.985-1.568-9.91s1.071-9.48 1.071-9.48h.004Z" fill="#A7CBBD"/><path d="M242.538 121.371c-2.991-6.678-7.695-20.982-7.695-27.899 0-6.917 1.071-13.59 0-17.405-1.071-3.816-7.081-29.296-4.74-38.668 1.46-5.84 1.961-1.727 1.961-1.727s9.408 14.883 10.474 20.842c1.067 5.958-.329 17.17 1.071 20.488 1.397 3.319 3.85 11.226 3.85 16.475v27.184l-4.916.714-.005-.004Z" fill="#C2E8D8"/><path d="M268.165 149.509h-30.926l-4.076-34.567a2.943 2.943 0 0 1 2.924-3.287h33.063a2.941 2.941 0 0 1 2.924 3.274l-3.904 34.58h-.005Z" fill="#E3AC69"/><path d="M270.383 139.242h-35.589l-1.202-16.683h37.92l-1.129 16.683Z" fill="#FCC583"/><path d="M39.987 136.272c-19.01 0-34.477-15.476-34.477-34.495 0-10.692 4.835-20.606 13.271-27.198a1 1 0 0 1 1.387.15l42.778 51.479a1 1 0 0 1-.108 1.392 34.42 34.42 0 0 1-22.855 8.667l.004.005ZM19.26 76.776c-7.474 6.199-11.74 15.258-11.74 25.006 0 17.911 14.564 32.482 32.467 32.482a32.417 32.417 0 0 0 20.786-7.527L19.26 76.777Z" fill="#9CA8D3"/><path d="M39.985 129.377c15.235 0 27.586-12.357 27.586-27.6 0-15.243-12.35-27.6-27.586-27.6-15.236 0-27.587 12.357-27.587 27.6 0 15.243 12.351 27.6 27.587 27.6Z" fill="#68CCEB"/><mask id="c" style="mask-type:luminance" maskUnits="userSpaceOnUse" x="12" y="74" width="32" height="32"><path d="M28.176 105.748c8.714 0 15.778-7.067 15.778-15.785 0-8.719-7.064-15.786-15.778-15.786-8.713 0-15.778 7.067-15.778 15.786 0 8.718 7.064 15.785 15.778 15.785Z" fill="#fff"/></mask><g mask="url(#c)"><path d="M26.48 95.34c-4.27 2.884-9.652 13.331-4.27 12.54 5.376-.791 7.911-4.43 10.442-.633 2.53 3.798 2.801 6.492 7.334 6.492 4.532 0 10.415 3.391 11.337 2.473.917-.917-2.372-6.428-4.112-11.655-1.74-5.221-6.963-10.447-10.443-11.871-3.479-1.425-10.284 2.653-10.284 2.653h-.005Z" fill="#F3C55C"/><path d="M42.673 97.234c-1.966-2.157-4.157-3.834-5.91-4.548-3.48-1.425-10.285 2.653-10.285 2.653-1.965 1.33-4.166 4.259-5.445 6.958 2.58.551 2.757-1.777 7.388-2.229 5.377-.529 5.061-.533 7.804 1.157 2.743 1.691 1.717-.944 3.76-2.002 1.305-.674 2.205-1.393 2.688-1.99Z" fill="#7DD2B1"/><path d="M22.839 95.339c-3.005-1.072-4.903-.755-4.903-4.399s1.152-4.679-.768-4.679-6.195 8.305-6.195 10.764c0 2.46 4.893 2.5 5.933 1.46 1.039-1.04 5.933-3.146 5.933-3.146Z" fill="#F3C55C"/><path d="M49.255 73.191c-8.07 0-13.13 7.143-7.596 9.2 5.536 2.057 6.49 1.718 9.81 3.87 3.322 2.147 6.485 4.837 7.28 2.78.79-2.057 4.112-2.531 4.112-4.272 0-1.74-12.34-11.573-13.606-11.573v-.005Z" fill="#7CC8AA"/><path d="M21.861 80.497c1.64 0 2.373.787 6.964-.796 4.586-1.582 7.04-5.402 7.04-5.402l-8.622 1.523-5.377 4.675h-.005Z" fill="#F1F2F2"/></g><path d="M56.132 108.264c.79.792.75 2.256 1.663 1.348.908-.909-.158-1.782 1.346-1.348 1.505.434 2.454-.474 2.454-1.822 0-1.347.081-2.771-1.423-2.215-1.505.556-2.454.95-3.403 1.424-.949.475-.633 2.613-.633 2.613h-.004ZM61.584 110.638c0-.95.46-1.546 1.265-.742.805.805 2.928 2.717 1.505 2.243-1.423-.475-2.765-1.506-2.765-1.506l-.005.005Z" fill="#DCF8C1"/><path d="M59.607 102.328c0-.791 1.672-1.641 2.567-2.531.89-.89.208-2.374 1.035-2.374s.827-.24.827.95c0 1.189.632 2.771-.475 2.771s-1.265.475-1.974 1.189c-.714.714-1.98 0-1.98 0v-.005Z" fill="#F3C55C"/><path d="m40.311 135.268 4.998 10.131H34.672l5.64-10.131Z" fill="#9CA8D3"/><path d="M32.572 143.654h14.835a5.206 5.206 0 0 1 5.2 5.204v.976H27.372v-.976a5.206 5.206 0 0 1 5.201-5.204Z" fill="#9CA8D3"/><path d="M209.343 95.376c-.38 4-5.752 6.347-1.161 10.94 1.287 1.289 3.217 2.414 4.762 2.161 2.779-.456 5.021-3.806 4.844-5.52-.506-4.864-6.588-10.109-7.252-9.444-.664.664-1.062.51-1.193 1.862Z" fill="#F1BBA2"/><path d="M207.388 105.263a.253.253 0 0 1-.212-.118.244.244 0 0 1 .081-.339c1.69-1.04 3.755-3.286 4.157-5.095.398-1.8 1.121-4.602 1.13-4.63a.249.249 0 0 1 .303-.175.247.247 0 0 1 .176.302c-.009.028-.727 2.821-1.125 4.616-.434 1.967-2.567 4.295-4.383 5.412a.232.232 0 0 1-.131.036l.004-.009ZM208.696 106.764a.247.247 0 0 1-.05-.489c1.248-.244 3.936-2.69 4.429-3.842.524-1.226 1.613-4.924 1.613-5.358a.25.25 0 0 1 .248-.248.25.25 0 0 1 .249.248c0 .584-1.17 4.431-1.649 5.552-.507 1.184-3.272 3.838-4.79 4.132-.014 0-.032.005-.045.005h-.005ZM211.317 107.993a.246.246 0 0 1-.235-.167.247.247 0 0 1 .154-.316c1.627-.57 3.506-2.613 3.981-3.717.488-1.13 1.328-3.81 1.333-3.838a.248.248 0 1 1 .474.149c-.036.113-.858 2.731-1.351 3.884-.501 1.171-2.462 3.359-4.274 3.992a.26.26 0 0 1-.082.013Z" fill="#C99565"/><path d="m81.675 149.79-24.365.072-.03-10.375 24.364-.072a1.695 1.695 0 0 1 1.7 1.69l.02 6.98a1.696 1.696 0 0 1-1.69 1.701v.004Z" fill="#6683C2"/><path d="m64.854 146.95-.013-4.652c0-.52-.366-.945-.818-.945l-27.803.086a.079.079 0 0 1-.068-.045c-.249-.542-.24-1.144 0-1.79.013-.032.036-.05.068-.05l29.34-.09c.447 0 .813.42.817.944l.027 8.486c0 .52-.361.945-.813.95l-29.182.09c-.135 0-.257-.095-.302-.244-.154-.47-.14-.954.004-1.456.045-.149.167-.248.303-.248l27.627-.082c.447 0 .813-.425.813-.949v-.005Z" fill="#92AEEA"/><path d="m41.533 142.931-4.428.013c.081-.23.19-.23.316-1.844l27.243-.081c.1 0 .131.425.135.538l.019 6.379c0 .113-27.537.099-27.537.099-.217-1.537-.271-1.609-.343-2.274l2.652-.068-2.59.009c-.072 0-.04-1.677.069-2.513l4.464-.263v.005Z" fill="#E6E6E6"/><path d="m64.207 143.32.009 3.033.005.678-1.194-.334-1.188.343v-.678l-.009-3.033 2.377-.009Z" fill="#F3C55C"/><path d="M236.095 100.218c-.782 6.026-6.584 10.095-12.58 9.145-5.996-.949-10.09-6.587-9.137-12.586.949-6 6.584-10.095 12.58-9.141 5.996.954 9.72 8.088 9.141 12.586l-.004-.004Z" fill="#FCDCB5"/><path d="M252.772 123.486c1.445 13.527 1.762 26.787-16.344 26.787-13.805 0-17.488-10.186-16.729-25.765.746-15.294 5.215-31.167 13.556-27.184 9.246 4.412 18.052 12.514 19.517 26.162Z" fill="#FCDCB5"/><path d="M222.045 108.957a.519.519 0 0 1-.447-.778c3.267-5.678 6.696-7.392 10.216-8.78 3.638-1.433 4.822-.673 5.025-.506l-.664.8s.009.01.027.018c-.009-.004-.94-.556-4.004.651-3.339 1.316-6.597 2.943-9.697 8.332a.519.519 0 0 1-.451.263h-.005Z" fill="#9E614B"/><path d="M263.444 177.448h-.126a2.824 2.824 0 0 1-2.698-2.943c0-.05.222-5.258-.04-10.823-.452-9.562-2.115-11.235-3.394-11.904-1.898-.913-9.652-2.124-17.071-2.766a2.822 2.822 0 0 1 .488-5.624c3.944.343 17.08 1.605 20.6 3.49 1.853.99 3.095 3.169 3.909 6.858.519 2.346.881 5.384 1.075 9.028.326 6.076.082 11.75.073 11.99a2.825 2.825 0 0 1-2.82 2.699l.004-.005ZM216.242 96.56l-3.638-4.688a.723.723 0 0 1 .642-1.162l5.824.588-2.828 5.262ZM229.781 89.132l-2.083-4.403a.427.427 0 0 0-.804 0l-1.839 3.956 4.726.443v.004ZM224.624 124.553a3.526 3.526 0 0 1-3.072-3.639c.108-2.604-1.171-3.978-2.264-4.675-1.378-.877-2.693-.849-3.037-.691a3.525 3.525 0 0 1-4.912-.651 3.517 3.517 0 0 1 .629-4.937c2.525-1.953 6.601-2.039 10.144-.208 4.266 2.202 6.688 6.487 6.48 11.46a3.52 3.52 0 0 1-3.665 3.369c-.104 0-.203-.014-.303-.028ZM230.142 144.947c-.741 0-12.806-.719-12.842 2.568-.041 3.287 1.545 2.699 5.964 2.699 4.419 0 11.374.041 11.374.041l-4.496-5.308Z" fill="#FCDCB5"/></g></g><defs><clipPath id="a"><path fill="#fff" d="M0 0h239v157.057H0z"/></clipPath><clipPath id="b"><rect x="4.096" y="-45.069" width="289.531" height="206.223" rx="43.703" fill="#fff"/></clipPath></defs></svg>