<svg width="121" height="125" viewBox="0 0 121 125" fill="none" xmlns="http://www.w3.org/2000/svg">
<g clip-path="url(#clip0_2002_64)">
<path d="M90.9999 78.2329C90.9999 87.3422 83.6445 94.7272 74.569 94.7272C65.4959 94.7272 58.1401 87.3425 58.1401 78.2329C58.1401 69.1233 65.4956 61.7383 74.569 61.7383C83.6445 61.7383 90.9999 69.1233 90.9999 78.2329Z" fill="#F37E60"/>
<path d="M51.94 71.2074C51.94 75.0873 48.6092 78.2327 44.4996 78.2327C40.391 78.2327 37.0601 75.0874 37.0601 71.2074C37.0601 67.3274 40.3908 64.1819 44.4996 64.1819C48.6092 64.1819 51.94 67.3274 51.94 71.2074Z" fill="#68CCEA"/>
<path d="M62.4796 116.109C62.4796 133.654 48.045 147.876 30.2392 147.876C12.435 147.876 -2 133.654 -2 116.109C-2 98.5645 12.435 84.3418 30.2392 84.3418C48.0453 84.3422 62.4796 98.5649 62.4796 116.109Z" fill="#6683C2"/>
</g>
<defs>
<clipPath id="clip0_2002_64">
<rect width="121" height="125" fill="white"/>
</clipPath>
</defs>
</svg>
