<svg width="136" height="136" viewBox="0 0 136 136" fill="none" xmlns="http://www.w3.org/2000/svg">
<path d="M105.409 97.1028C104.838 95.0041 104.637 92.822 104.814 90.6542L105.877 80.6441C106.396 74.3634 105.439 68.0708 102.658 62.4153C95.4744 47.8025 97.1224 46.7421 96.8992 32.2393C96.8992 29.2768 94.4974 26.8747 91.5347 26.8747C88.5719 26.8747 86.1701 29.2765 86.1701 32.2393C86.1701 91.2165 86.2798 86.8887 85.9162 88.6179V96.3407C85.9162 102.847 80.6225 108.141 74.1158 108.141H44.7504C49.268 114.428 55.4475 119.331 62.5959 122.303L62.729 122.358C68.2627 124.696 74.4414 129.359 75.4739 135.146L75.5738 135.559C90.1462 133.87 103.25 127.369 113.255 117.684L105.409 97.1028ZM24.8259 27.0622L23.192 25.5485C20.6731 23.2147 16.7028 23.3661 14.369 25.8847C12.0352 28.4037 12.1866 32.374 14.7053 34.7077L24.8259 44.0851V27.0622Z" fill="#F1BBA2"/>
<path d="M18.0259 30.0148C16.4807 28.5831 15.8307 26.5362 16.0945 24.5857C15.4476 24.914 14.8635 25.3537 14.369 25.8846C12.0352 28.4035 12.1866 32.3738 14.7053 34.7076L24.8259 44.085V36.3157L18.0259 30.0148Z" fill="#FBC5AC"/>
<path d="M105.898 98.3843C103.682 113.665 90.5309 125.403 74.6365 125.403C71.9563 125.405 69.2867 125.067 66.6919 124.396C70.9002 126.969 74.6859 130.729 75.4737 135.146L75.5736 135.559C90.1461 133.87 103.249 127.369 113.255 117.683L105.898 98.3843Z" fill="#E7AF95"/>
<path d="M76.9286 108.395H33.8349C28.7389 108.395 24.5933 104.249 24.5933 99.153V9.24189C24.5933 4.14587 28.7389 0 33.8349 0H76.9286C82.0246 0 86.1702 4.14587 86.1702 9.24189V99.1533C86.1702 104.249 82.0243 108.395 76.9286 108.395Z" fill="#96C269"/>
<path d="M33.8349 0C28.7389 0 24.5933 4.14587 24.5933 9.24162V99.153C24.5933 104.249 28.7391 108.395 33.8349 108.395H46.6816C43.8304 105.486 47.156 102.645 47.156 102.645C42.4632 101.414 42.8616 96.4819 42.8616 96.4819V16.397C42.8616 11.6822 47.6508 10.4914 47.6508 10.4914C45.7644 8.60492 47.6508 6.62256 47.6508 6.62256V3.42842C45.9107 2.32555 46.2534 0.823969 46.6322 0H33.8349Z" fill="#96C269"/>
<path d="M48.5737 6.62287H47.6509C47.2273 6.62287 46.8211 6.4546 46.5215 6.15506C46.222 5.85553 46.0537 5.44927 46.0537 5.02567C46.0537 4.60207 46.222 4.19581 46.5215 3.89628C46.8211 3.59674 47.2273 3.42847 47.6509 3.42847H48.5737C48.9973 3.42847 49.4036 3.59674 49.7031 3.89628C50.0026 4.19581 50.1709 4.60207 50.1709 5.02567C50.1709 5.44927 50.0026 5.85553 49.7031 6.15506C49.4036 6.4546 48.9973 6.62287 48.5737 6.62287ZM62.8919 6.62287H54.0249C53.6012 6.62287 53.195 6.4546 52.8955 6.15506C52.5959 5.85553 52.4276 5.44927 52.4276 5.02567C52.4276 4.60207 52.5959 4.19581 52.8955 3.89628C53.195 3.59674 53.6012 3.42847 54.0249 3.42847H62.8919C63.3155 3.42847 63.7218 3.59674 64.0213 3.89628C64.3209 4.19581 64.4891 4.60207 64.4891 5.02567C64.4891 5.44927 64.3209 5.85553 64.0213 6.15506C63.7218 6.4546 63.3155 6.62287 62.8919 6.62287Z" fill="#83AC58"/>
<path d="M76.9288 5.74976H70.4521C69.8723 5.74976 69.3163 5.98008 68.9063 6.39005C68.4963 6.80002 68.266 7.35606 68.266 7.93585C68.266 9.34127 67.1161 10.4914 65.7107 10.4914H45.0538C43.6484 10.4914 42.4983 9.34154 42.4983 7.93585C42.4983 7.35606 42.2679 6.80002 41.858 6.39005C41.448 5.98008 40.892 5.74976 40.3122 5.74976H33.8352C31.9067 5.74976 30.3433 7.31322 30.3433 9.24166V99.1531C30.3433 101.082 31.9067 102.645 33.8352 102.645H76.9288C78.8573 102.645 80.4207 101.082 80.4207 99.1531V9.24166C80.4207 7.31322 78.8573 5.74976 76.9288 5.74976Z" fill="#FFEABC"/>
<path d="M47.156 102.645C46.4919 99.7799 49.8154 99.1105 49.8154 99.1105C49.8154 99.1105 51.9293 80.5941 49.8154 78.4802C47.7016 76.3664 49.8154 74.3702 49.8154 74.3702C49.8154 74.3702 52.1248 56.0495 49.8154 53.7399C47.5061 51.4306 49.8154 49.6299 49.8154 49.6299V28.9996C45.6791 26.388 47.8549 22.6302 47.8549 22.6302V16.7134C44.7292 13.5878 47.6498 10.4927 47.6509 10.4917H45.0536C43.6482 10.4917 42.498 9.34178 42.498 7.93609C42.498 7.35631 42.2677 6.80026 41.8577 6.39029C41.4477 5.98032 40.8917 5.75 40.3119 5.75H33.8352C31.9067 5.75 30.3433 7.3132 30.3433 9.24191V99.1536C30.3433 101.082 31.9067 102.645 33.8352 102.645H47.156V102.645Z" fill="#FFEABC"/>
<path d="M42.3902 22.6299H68.3733C70.0072 22.6299 71.3316 21.3055 71.3316 19.6716C71.3316 18.0378 70.0072 16.7134 68.3733 16.7134H42.3902C40.7563 16.7134 39.4316 18.0378 39.4316 19.6716C39.4316 21.3058 40.7563 22.6299 42.3902 22.6299Z" fill="#B7DD90"/>
<path d="M42.3904 16.7134H47.8548V22.6302H42.3904C40.7565 22.6302 39.4321 21.3058 39.4321 19.6719C39.4319 18.0375 40.7565 16.7134 42.3904 16.7134Z" fill="#B7DD90"/>
<path d="M73.6239 49.6296H37.1395C35.676 49.6296 34.4785 48.4321 34.4785 46.9685V31.6603C34.4785 30.1967 35.676 28.9993 37.1395 28.9993H73.6239C75.0875 28.9993 76.285 30.1967 76.285 31.6603V46.9685C76.285 48.4321 75.0875 49.6296 73.6239 49.6296ZM73.6239 74.3699H37.1395C35.676 74.3699 34.4785 73.1724 34.4785 71.7088V56.4006C34.4785 54.937 35.676 53.7396 37.1395 53.7396H73.6239C75.0875 53.7396 76.285 54.937 76.285 56.4006V71.7088C76.285 73.1724 75.0875 74.3699 73.6239 74.3699ZM73.6239 99.1102H37.1395C35.676 99.1102 34.4785 97.9127 34.4785 96.4492V81.1409C34.4785 79.6773 35.676 78.4799 37.1395 78.4799H73.6239C75.0875 78.4799 76.285 79.6773 76.285 81.1409V96.4492C76.285 97.9127 75.0875 99.1102 73.6239 99.1102Z" fill="#E9EFFF"/>
<path d="M73.6239 49.6296H37.1395C35.676 49.6296 34.4785 48.4321 34.4785 46.9685V31.6603C34.4785 30.1967 35.676 28.9993 37.1395 28.9993H73.6239C75.0875 28.9993 76.285 30.1967 76.285 31.6603V46.9685C76.285 48.4321 75.0875 49.6296 73.6239 49.6296ZM73.6239 74.3699H37.1395C35.676 74.3699 34.4785 73.1724 34.4785 71.7088V56.4006C34.4785 54.937 35.676 53.7396 37.1395 53.7396H73.6239C75.0875 53.7396 76.285 54.937 76.285 56.4006V71.7088C76.285 73.1724 75.0875 74.3699 73.6239 74.3699ZM73.6239 99.1102H37.1395C35.676 99.1102 34.4785 97.9127 34.4785 96.4492V81.1409C34.4785 79.6773 35.676 78.4799 37.1395 78.4799H73.6239C75.0875 78.4799 76.285 79.6773 76.285 81.1409V96.4492C76.285 97.9127 75.0875 99.1102 73.6239 99.1102Z" fill="#C9E6AB"/>
<path d="M47.1541 46.9685V31.6605C47.1541 30.1969 48.3516 28.9995 49.8152 28.9995H37.1395C35.676 28.9995 34.4785 30.1969 34.4785 31.6605V46.9685C34.4785 48.4321 35.676 49.6295 37.1395 49.6295H49.8152C48.3516 49.6295 47.1541 48.4321 47.1541 46.9685ZM47.1541 71.7088V56.4006C47.1541 54.937 48.3516 53.7396 49.8152 53.7396H37.1395C35.676 53.7396 34.4785 54.937 34.4785 56.4006V71.7088C34.4785 73.1724 35.676 74.3699 37.1395 74.3699H49.8152C48.3516 74.3699 47.1541 73.1724 47.1541 71.7088ZM47.1541 96.4491V81.1409C47.1541 79.6773 48.3516 78.4799 49.8152 78.4799H37.1395C35.676 78.4799 34.4785 79.6773 34.4785 81.1409V96.4491C34.4785 97.9127 35.676 99.1102 37.1395 99.1102H49.8152C48.3516 99.1102 47.1541 97.9127 47.1541 96.4491Z" fill="#C9E6AB"/>
<path d="M53.9433 37.5559H43.2734C42.1732 37.5559 41.2812 36.6642 41.2812 35.5637C41.2812 34.4632 42.1732 33.5715 43.2734 33.5715H53.9433C54.4717 33.5715 54.9784 33.7814 55.352 34.155C55.7256 34.5286 55.9355 35.0354 55.9355 35.5637C55.9355 36.0921 55.7256 36.5988 55.352 36.9724C54.9784 37.346 54.4717 37.5559 53.9433 37.5559Z" fill="#96C269"/>
<path d="M67.4902 45.0577H43.2734C42.1732 45.0577 41.2812 44.166 41.2812 43.0655C41.2812 41.965 42.1732 41.0733 43.2734 41.0733H67.4902C68.5904 41.0733 69.4824 41.965 69.4824 43.0655C69.4824 44.166 68.5904 45.0577 67.4902 45.0577ZM62.2662 37.5559H60.7609C59.6606 37.5559 58.7687 36.6642 58.7687 35.5637C58.7687 34.4632 59.6606 33.5715 60.7609 33.5715H62.2662C62.7945 33.5715 63.3012 33.7814 63.6748 34.155C64.0485 34.5286 64.2583 35.0354 64.2583 35.5637C64.2583 36.0921 64.0485 36.5988 63.6748 36.9724C63.3012 37.346 62.7945 37.5559 62.2662 37.5559Z" fill="#ACD383"/>
<path d="M53.9433 62.2961H43.2734C42.1732 62.2961 41.2812 61.4044 41.2812 60.304C41.2812 59.2035 42.1732 58.3118 43.2734 58.3118H53.9433C55.0435 58.3118 55.9355 59.2035 55.9355 60.304C55.9355 61.4044 55.0435 62.2961 53.9433 62.2961Z" fill="#96C269"/>
<path d="M67.4902 69.7979H43.2734C42.1732 69.7979 41.2812 68.9062 41.2812 67.8057C41.2812 66.7053 42.1732 65.8135 43.2734 65.8135H67.4902C68.0186 65.8135 68.5253 66.0234 68.8989 66.397C69.2725 66.7707 69.4824 67.2774 69.4824 67.8057C69.4824 68.3341 69.2725 68.8408 68.8989 69.2144C68.5253 69.588 68.0186 69.7979 67.4902 69.7979ZM62.2662 62.2961H60.7609C59.6606 62.2961 58.7687 61.4044 58.7687 60.304C58.7687 59.2035 59.6606 58.3118 60.7609 58.3118H62.2662C63.3664 58.3118 64.2583 59.2035 64.2583 60.304C64.2583 61.4044 63.3666 62.2961 62.2662 62.2961Z" fill="#ACD383"/>
<path d="M53.9433 87.0366H43.2734C42.7451 87.0366 42.2384 86.8267 41.8647 86.4531C41.4911 86.0795 41.2812 85.5728 41.2812 85.0444C41.2812 84.5161 41.4911 84.0094 41.8647 83.6357C42.2384 83.2621 42.7451 83.0522 43.2734 83.0522H53.9433C55.0435 83.0522 55.9355 83.9439 55.9355 85.0444C55.9355 86.1449 55.0435 87.0366 53.9433 87.0366Z" fill="#96C269"/>
<path d="M67.4902 94.5384H43.2734C42.1732 94.5384 41.2812 93.6467 41.2812 92.5462C41.2812 91.4457 42.1732 90.554 43.2734 90.554H67.4902C68.5904 90.554 69.4824 91.4457 69.4824 92.5462C69.4824 93.6467 68.5904 94.5384 67.4902 94.5384ZM62.2662 87.0366H60.7609C60.2325 87.0366 59.7258 86.8267 59.3522 86.4531C58.9786 86.0795 58.7687 85.5728 58.7687 85.0444C58.7687 84.5161 58.9786 84.0094 59.3522 83.6357C59.7258 83.2621 60.2325 83.0522 60.7609 83.0522H62.2662C63.3664 83.0522 64.2583 83.9439 64.2583 85.0444C64.2583 86.1449 63.3666 87.0366 62.2662 87.0366Z" fill="#ACD383"/>
<path d="M33.912 59.9893C31.8585 62.2054 28.3974 62.3374 26.1813 60.2839L17.018 51.7935C14.8019 49.7402 14.6699 46.2788 16.7235 44.0627C18.777 41.8466 22.2381 41.7146 24.4542 43.7681L33.6175 52.2586C35.8336 54.3121 35.9656 57.7732 33.912 59.9893Z" fill="#F1BBA2"/>
<path d="M29.951 56.4247L20.7878 47.9343C19.2551 46.5142 18.721 44.4211 19.2153 42.532C18.2604 42.8052 17.3986 43.3347 16.7235 44.063C14.6699 46.2792 14.8019 49.7405 17.018 51.7938L26.1813 60.2842C28.3974 62.3375 31.8585 62.2058 33.912 59.9897C34.5236 59.3309 34.9626 58.5309 35.1897 57.6612C33.4082 58.1752 31.4104 57.777 29.951 56.4247Z" fill="#FBC5AC"/>
<path d="M33.912 89.8321C31.8585 92.0482 28.3974 92.1802 26.1813 90.1267L17.018 81.6362C14.8019 79.583 14.6699 76.1216 16.7235 73.9055C18.777 71.6894 22.2381 71.5574 24.4542 73.6109L33.6175 82.1013C35.8336 84.1546 35.9656 87.616 33.912 89.8321Z" fill="#F1BBA2"/>
<path d="M29.951 86.267L20.7878 77.7766C19.2551 76.3565 18.721 74.2634 19.2153 72.3743C18.2604 72.6474 17.3986 73.177 16.7235 73.9053C14.6699 76.1214 14.8019 79.5828 17.018 81.6361L26.1813 90.1265C28.3974 92.1798 31.8585 92.0481 33.912 89.8319C34.5236 89.1732 34.9626 88.3732 35.1897 87.5035C33.4082 88.0177 31.4104 87.6193 29.951 86.267Z" fill="#FBC5AC"/>
<path d="M33.912 74.9107C31.8585 77.1268 28.3974 77.2588 26.1813 75.2053L17.018 66.7148C14.8019 64.6616 14.6699 61.2002 16.7235 58.9841C18.777 56.768 22.2381 56.636 24.4542 58.6895L33.6175 67.18C35.8336 69.2332 35.9656 72.6943 33.912 74.9107Z" fill="#F1BBA2"/>
<path d="M29.951 71.3458L20.7878 62.8554C19.2551 61.4354 18.721 59.3422 19.2153 57.4531C18.2604 57.7262 17.3986 58.2558 16.7235 58.9842C14.6699 61.2003 14.8019 64.6614 17.018 66.7149L26.1813 75.2054C28.3974 77.2589 31.8585 77.1269 33.912 74.9108C34.5236 74.252 34.9626 73.4521 35.1897 72.5823C33.4082 73.0966 31.4104 72.6981 29.951 71.3458Z" fill="#FBC5AC"/>
</svg>
