<svg width="170" height="156" viewBox="0 0 170 156" fill="none" xmlns="http://www.w3.org/2000/svg">
<path d="M85.1608 118.831L144.841 75.8772L62.4179 60.5582L1.79932 101.117L85.1608 118.831Z" fill="#FFDA87"/>
<path d="M83.9931 76.1876L24.3125 37.593L106.741 23.8251L166.982 59.7855L83.9931 76.1876Z" fill="#FDFDFD"/>
<path d="M62.7713 42.8718L13.9077 11.2759L81.3948 0L130.925 29.0249L62.7713 42.8718Z" fill="#B1DD85"/>
<path d="M89.6299 121.509C88.804 120.175 87.6744 119.244 86.4276 119.005L2.73047 103.686C2.73047 103.686 6.31667 114.276 6.18882 121.323C6.09268 127.032 2.77837 137.834 2.77837 137.834L86.4702 153.154C87.7171 153.393 88.8466 152.876 89.6676 151.853C90.4879 150.83 90.9997 149.306 90.9944 147.532L90.9679 126.319C90.9676 124.545 90.4559 122.831 89.6299 121.509ZM166.426 62.5772L82.7344 76.3401C81.4823 76.5581 80.3527 77.3905 79.5268 78.593C78.6599 79.8603 78.1933 81.3681 78.1894 82.914L78.1683 101.983C78.1627 103.583 78.6691 104.949 79.4898 105.857C80.3101 106.782 81.44 107.245 82.6868 107.033L166.384 93.2645C166.384 93.2645 163.981 87.1805 163.299 77.5318C162.851 71.2137 166.426 62.5772 166.426 62.5772ZM61.7025 68.1282L130.218 56.8468C130.218 56.8468 127.208 51.6769 126.92 44.4936C126.691 38.8071 130.256 31.7213 130.256 31.7213L61.7345 42.9969C60.7166 43.1713 59.7893 43.8569 59.1127 44.8364C58.4357 45.8105 58.0201 47.0622 58.0201 48.3734L57.999 63.9812C57.9934 65.2815 58.4093 66.4081 59.0806 67.1591C59.7523 67.9105 60.6793 68.2857 61.7025 68.1282Z" fill="#FFF3E4"/>
<path d="M107.801 102.534L88.1843 116.653C87.7721 116.479 87.3436 116.348 86.9054 116.263L3.20829 100.943C1.75366 100.671 0.309597 101.681 0.0429852 103.193C-0.0204155 103.554 -0.0136234 103.923 0.062973 104.281C0.139569 104.639 0.284467 104.978 0.489378 105.278C0.694288 105.579 0.955191 105.835 1.25716 106.032C1.55913 106.23 1.89625 106.364 2.24922 106.428L85.9196 121.743C86.2658 121.811 86.8093 122.172 87.3263 123.008C87.9071 123.933 88.2375 125.138 88.2375 126.322L88.2643 147.54C88.2695 148.577 88.0033 149.529 87.5553 150.087C87.2355 150.476 87.0544 150.424 86.9477 150.411L3.2562 135.092C1.80685 134.817 0.357501 135.829 0.0908893 137.342C0.0274437 137.702 0.0342031 138.072 0.110781 138.43C0.187359 138.788 0.332252 139.126 0.537169 139.427C0.742087 139.727 1.00301 139.984 1.305 140.181C1.60699 140.378 1.94413 140.513 2.29712 140.577L85.9622 155.891C86.3408 155.965 86.7135 156 87.0812 156C88.55 156 89.9389 155.433 91.0771 154.372L147.993 112.845C149.624 111.664 150.711 109.264 150.705 106.309L150.692 95.8456L107.801 102.534Z" fill="#F3C55C"/>
<path d="M165.952 90.5138L82.2387 104.284C82.0415 104.325 81.802 104.32 81.4928 103.969C81.1198 103.55 80.8908 102.812 80.8958 101.985L80.9169 82.9135C80.9169 81.9614 81.2209 80.9708 81.759 80.1927C82.1852 79.5753 82.7075 79.1697 83.1658 79.0908L166.858 65.3279C167.212 65.2702 167.551 65.1417 167.856 64.9498C168.162 64.7579 168.427 64.5063 168.637 64.2096C168.847 63.9128 168.997 63.5766 169.079 63.2204C169.162 62.8641 169.175 62.4947 169.117 62.1334C168.877 60.6151 167.449 59.562 165.995 59.8259C165.995 59.8259 99.068 70.9429 80.719 74.0672L69.5388 66.8374L58.9725 68.5524L54.8055 57.3099L24.3163 37.5929C21.6892 38.3817 18.5933 41.9845 18.476 46.0441L18.4492 65.2597C18.4492 67.91 19.5309 70.065 21.1613 71.1261L78.5412 108.703C78.5191 108.689 78.5029 108.674 78.4817 108.66C79.5422 109.451 80.7874 109.87 82.0838 109.87C82.4247 109.87 82.7713 109.843 83.1175 109.783L166.815 96.0144C167.169 95.9568 167.508 95.8283 167.813 95.6365C168.119 95.4446 168.384 95.1931 168.594 94.8963C168.804 94.5996 168.954 94.2635 169.036 93.9072C169.119 93.551 169.132 93.1816 169.074 92.8203C168.84 91.2999 167.396 90.2685 165.952 90.5138Z" fill="#E9E9E9"/>
<path d="M129.788 54.0963L61.0967 65.2821C60.9153 65.0807 60.729 64.6373 60.729 63.9841L60.7501 48.3736C60.7501 47.688 60.9636 46.9889 61.3418 46.4417C61.6616 45.9791 61.9973 45.7777 62.1678 45.7476L130.689 34.4721C131.043 34.4142 131.382 34.2856 131.687 34.0936C131.992 33.9017 132.258 33.6501 132.467 33.3534C132.677 33.0567 132.828 32.7206 132.91 32.3644C132.993 32.0082 133.006 31.6389 132.948 31.2776C132.708 29.7566 131.275 28.7197 129.826 28.9701C129.826 28.9701 60.1343 40.5449 59.5961 40.8159L13.9114 11.2761C11.764 11.9182 9.22772 14.8681 9.13158 18.1874L8.97168 34.6249C8.97168 36.8072 9.85642 38.5701 11.1938 39.441C11.1938 39.441 57.6529 70.0148 59.6051 70.6927C60.6788 71.0655 61.8374 70.9255 62.1357 70.8792L130.652 59.5979C131.005 59.54 131.345 59.4115 131.65 59.2195C131.955 59.0275 132.22 58.776 132.43 58.4793C132.64 58.1826 132.79 57.8465 132.873 57.4903C132.955 57.1341 132.968 56.7647 132.911 56.4034C132.671 54.8824 131.243 53.8459 129.788 54.0963Z" fill="#96C269"/>
</svg>
