<svg width="149" height="139" viewBox="0 0 149 139" fill="none" xmlns="http://www.w3.org/2000/svg">
<path d="M125.357 138.4H116.675V31.8506L125.267 31.2407L125.357 138.4Z" fill="#9BBE75"/>
<path d="M148.657 138.4H125.356C125.302 138.4 125.266 138.346 125.266 138.274V31.3663C125.266 31.2945 125.302 31.2407 125.356 31.2407L148.639 32.4605C148.693 32.4605 148.728 32.5143 148.728 32.586V138.274C148.746 138.346 148.693 138.4 148.657 138.4Z" fill="#83AC58"/>
<path d="M141.01 82.8114C140.866 82.8114 140.741 82.6858 140.741 82.5423V39.2769C140.741 39.1334 140.866 39.0078 141.01 39.0078C141.153 39.0078 141.279 39.1334 141.279 39.2769V82.5423C141.279 82.6858 141.153 82.8114 141.01 82.8114Z" fill="#759A4F"/>
<path d="M133.64 67.3851C133.496 67.3851 133.371 67.2596 133.371 67.1161V54.3445C133.371 54.201 133.496 54.0754 133.64 54.0754C133.783 54.0754 133.909 54.201 133.909 54.3445V67.1161C133.909 67.2775 133.783 67.3851 133.64 67.3851Z" fill="#759A4F"/>
<path d="M133.64 111.153C133.496 111.153 133.371 111.027 133.371 110.883V88.874C133.371 88.7305 133.496 88.605 133.64 88.605C133.783 88.605 133.909 88.7305 133.909 88.874V110.901C133.909 111.045 133.783 111.153 133.64 111.153Z" fill="#759A4F"/>
<path d="M83.2689 138.418H69.3853V58.8646L83.1972 56.156L83.2689 138.418Z" fill="#B9E68C"/>
<path d="M120.76 138.417H83.3417C83.27 138.417 83.1982 138.382 83.1982 138.328V56.2454C83.1982 56.1916 83.27 56.1558 83.3417 56.1558L120.76 57.1065C120.831 57.1065 120.903 57.1423 120.903 57.1961V138.328C120.903 138.364 120.831 138.417 120.76 138.417Z" fill="#9CCB6D"/>
<path d="M102.053 99.2059C101.91 99.2059 101.784 99.0804 101.784 98.9369V62.5056C101.784 62.3621 101.91 62.2366 102.053 62.2366C102.197 62.2366 102.322 62.3621 102.322 62.5056V98.9369C102.322 99.0983 102.215 99.2059 102.053 99.2059Z" fill="#91BF63"/>
<path d="M92.189 74.6674C92.0455 74.6674 91.9199 74.5418 91.9199 74.3983V68.1919C91.9199 68.0484 92.0455 67.9229 92.189 67.9229C92.3325 67.9229 92.458 68.0484 92.458 68.1919V74.3983C92.458 74.5418 92.3325 74.6674 92.189 74.6674Z" fill="#91BF63"/>
<path d="M92.189 115.87C92.0455 115.87 91.9199 115.745 91.9199 115.601V84.6768C91.9199 84.5333 92.0455 84.4077 92.189 84.4077C92.3325 84.4077 92.458 84.5333 92.458 84.6768V115.619C92.458 115.763 92.3325 115.87 92.189 115.87Z" fill="#91BF63"/>
<path d="M111.94 86.9189C111.796 86.9189 111.671 86.7933 111.671 86.6498V80.4434C111.671 80.2999 111.796 80.1743 111.94 80.1743C112.083 80.1743 112.209 80.2999 112.209 80.4434V86.6498C112.209 86.7933 112.083 86.9189 111.94 86.9189Z" fill="#91BF63"/>
<path d="M32.3373 138.418H15.3325V92.6947L32.3373 90.8113V138.418Z" fill="#C6EE9E"/>
<path d="M78.7245 138.418H32.3379V90.919C32.3379 90.8652 32.4276 90.8293 32.5352 90.8293L78.7245 91.6007V138.418Z" fill="#AED784"/>
<path d="M44.6905 125.126C44.5469 125.126 44.4214 125 44.4214 124.857V96.4976C44.4214 96.3541 44.5469 96.2285 44.6905 96.2285C44.834 96.2285 44.9595 96.3541 44.9595 96.4976V124.857C44.9595 125 44.834 125.126 44.6905 125.126Z" fill="#99BD73"/>
<path d="M68.9951 128.444C68.8516 128.444 68.7261 128.319 68.7261 128.175V99.8159C68.7261 99.6724 68.8516 99.5469 68.9951 99.5469C69.1386 99.5469 69.2642 99.6724 69.2642 99.8159V128.175C69.2642 128.319 69.1386 128.444 68.9951 128.444Z" fill="#99BD73"/>
<path d="M56.836 117.323C56.6925 117.323 56.5669 117.197 56.5669 117.054V111.242C56.5669 111.098 56.6925 110.973 56.836 110.973C56.9795 110.973 57.105 111.098 57.105 111.242V117.054C57.105 117.215 56.9974 117.323 56.836 117.323Z" fill="#99BD73"/>
<path d="M7.7844 138.418H0.268555V115.745L7.71265 114.041L7.7844 138.418Z" fill="#CFF5A8"/>
<path d="M27.9431 138.418H7.78122C7.74535 138.418 7.70947 138.382 7.70947 138.328V114.13C7.70947 114.076 7.74535 114.041 7.78122 114.041L27.9431 114.417C27.9789 114.417 28.0148 114.453 28.0148 114.507V138.328C28.0148 138.382 27.9789 138.418 27.9431 138.418Z" fill="#B6DF8B"/>
<path d="M21.8662 132.929C21.7227 132.929 21.5972 132.803 21.5972 132.66V118.238C21.5972 118.094 21.7227 117.969 21.8662 117.969C22.0097 117.969 22.1353 118.094 22.1353 118.238V132.66C22.1353 132.803 22.0277 132.929 21.8662 132.929Z" fill="#A7D27A"/>
<path d="M15.4956 127.781C15.3521 127.781 15.2266 127.655 15.2266 127.511V123.26C15.2266 123.117 15.3521 122.991 15.4956 122.991C15.6391 122.991 15.7647 123.117 15.7647 123.26V127.511C15.7647 127.655 15.6391 127.781 15.4956 127.781Z" fill="#A7D27A"/>
<path d="M93.2801 25.8772C92.2397 26.7383 92.8496 27.4737 91.5222 29.4289C90.5536 30.8818 89.7284 31.2226 89.7464 32.1733C89.7643 33.0343 90.4818 33.6442 90.9303 34.0388C93.029 35.8685 95.9169 35.6712 97.7107 35.5456C99.1457 35.4559 101.119 35.3124 101.388 34.4155C101.657 33.5187 99.9529 32.9088 99.8094 31.1688C99.6838 29.7518 100.724 29.3571 100.491 28.1194C100.186 26.5051 98.195 25.6799 97.8721 25.5544C96.5627 25.0162 94.5536 24.8189 93.2801 25.8772Z" fill="#363537"/>
<path d="M94.3047 26.0567C94.3047 26.0567 94.0177 23.3122 91.8114 23.9042C89.6051 24.5141 91.5603 26.8818 93.1747 27.1509C94.807 27.4199 94.3047 26.0567 94.3047 26.0567Z" fill="#363537"/>
<path d="M102.341 73.1968L99.9731 77.1431L98.6816 75.4569L100.762 71.6003L102.341 73.1968Z" fill="white"/>
<path d="M100.796 76.5331C100.168 77.7528 98.5893 80.7305 97.0646 82.1475C96.6879 82.4884 96.0601 82.3269 95.9345 81.8605C95.4502 80.1385 95.1452 76.5869 96.9211 73.7707C96.9211 73.7707 97.7641 73.681 99.3426 73.9501L98.9839 75.3492L99.1812 75.2236C99.4682 75.0263 99.8628 75.0443 100.15 75.2595L100.598 75.6362C100.867 75.8515 100.957 76.2281 100.796 76.5331Z" fill="#3C3C3C"/>
<path d="M96.7976 81.9144C96.6899 81.9144 96.5823 81.8426 96.5464 81.7529C95.1294 78.2192 96.9769 74.2012 97.0487 74.0398C97.1025 73.8963 97.2639 73.8425 97.4074 73.9142C97.5509 73.968 97.6047 74.1295 97.533 74.273C97.5151 74.3088 95.7213 78.2372 97.0487 81.5556C97.1025 81.6991 97.0307 81.8426 96.9052 81.8964C96.8693 81.8964 96.8334 81.9144 96.7976 81.9144Z" fill="white"/>
<path d="M99.8628 78.5064C99.809 78.5064 99.7731 78.4885 99.7193 78.4706L98.5354 77.7351C98.4099 77.6634 98.374 77.484 98.4457 77.3584C98.5175 77.2329 98.6969 77.197 98.8224 77.2687L100.006 78.0042C100.132 78.0759 100.168 78.2553 100.096 78.3809C100.042 78.4706 99.9525 78.5064 99.8628 78.5064Z" fill="white"/>
<path d="M99.2717 79.5108C99.2179 79.5108 99.1641 79.4928 99.1103 79.457L98.0161 78.6677C97.8906 78.578 97.8726 78.4166 97.9623 78.291C98.052 78.1655 98.2134 78.1475 98.339 78.2372L99.4332 79.0265C99.5588 79.1161 99.5767 79.2776 99.487 79.4032C99.4332 79.4749 99.3614 79.5108 99.2717 79.5108Z" fill="white"/>
<path d="M109.085 74.7217C109.085 74.8114 111.256 79.3137 111.256 79.3137L108.78 79.4931L107.094 75.6544L109.085 74.7217Z" fill="white"/>
<path d="M108.978 78.3805C108.978 78.3805 109.48 77.2505 110.754 77.8245C110.754 77.8245 113.121 81.0532 114 83.7259C114.251 84.4793 113.426 85.1609 112.673 84.8381C110.897 84.0847 108.099 82.4703 106.502 79.5106C106.502 79.5106 107.005 78.2909 107.794 77.7348L108.978 78.3805Z" fill="#3C3C3C"/>
<path d="M113.281 84.2824C112.599 84.2824 110.106 83.9595 106.877 79.7621C106.788 79.6365 106.806 79.4751 106.931 79.3854C107.057 79.2957 107.218 79.3137 107.308 79.4392C110.806 84.0133 113.371 83.7442 113.389 83.7442C113.532 83.7263 113.676 83.8339 113.694 83.9774C113.712 84.1209 113.604 84.2644 113.46 84.2824C113.46 84.2824 113.389 84.2824 113.281 84.2824Z" fill="white"/>
<path d="M111.255 81.753C111.165 81.753 111.075 81.6992 111.021 81.6095C110.95 81.4839 111.003 81.3225 111.129 81.2508L112.313 80.5871C112.438 80.5153 112.6 80.5691 112.672 80.6947C112.743 80.8203 112.69 80.9817 112.564 81.0534L111.38 81.7171C111.344 81.7351 111.308 81.753 111.255 81.753Z" fill="white"/>
<path d="M110.663 80.91C110.573 80.91 110.465 80.8562 110.43 80.7665C110.358 80.6409 110.412 80.4795 110.555 80.4077L111.847 79.744C111.972 79.6723 112.134 79.7261 112.205 79.8696C112.277 79.9952 112.223 80.1566 112.08 80.2284L110.788 80.892C110.752 80.892 110.717 80.91 110.663 80.91Z" fill="white"/>
<path d="M97.191 50.5955C97.191 50.5955 103.649 51.6897 108.294 56.2996C109.46 57.4656 109.891 59.1517 109.371 60.6764C108.33 63.8334 106.088 69.5914 102.339 73.9322L99.4691 71.5824C99.4691 71.5824 100.169 66.1473 102.034 62.7751C103.918 59.4028 92.9219 52.0843 92.9219 52.0843L97.191 50.5955Z" fill="#96D6D2"/>
<path d="M109.872 75.5645L106.5 76.4972C106.5 76.4972 100.366 64.21 98.5898 62.4342C96.8139 60.6584 93.352 57.7525 89.6927 56.7121C86.0334 55.6717 86.6792 53.3219 86.6792 53.3219L92.2578 51.3667C92.2578 51.3667 100.958 54.9363 103.828 58.9543C106.715 63.0082 109.872 75.5645 109.872 75.5645Z" fill="#3C3C3C"/>
<path d="M99.4514 55.1333C101.209 56.2814 102.86 57.5908 103.846 58.972C106.716 63.0079 109.891 75.5642 109.891 75.5642L106.519 76.497C106.519 76.497 100.384 64.2098 98.6083 62.4339C96.8325 60.6581 93.3705 57.7522 89.7113 56.7118C86.052 55.6715 86.6978 53.3216 86.6978 53.3216L92.2763 51.3665C92.2584 51.3844 96.0432 52.927 99.4514 55.1333Z" fill="#96D6D2"/>
<path d="M107.131 66.6315C107.023 66.6315 106.915 66.5598 106.88 66.4521C105.678 62.9364 104.566 60.4789 103.615 59.1336C102.054 56.9452 98.7001 54.8824 96.1529 53.5371C96.0274 53.4653 95.9736 53.3039 96.0453 53.1783C96.1171 53.0528 96.2785 52.999 96.4041 53.0707C99.005 54.4519 102.431 56.5506 104.045 58.8287C105.032 60.2099 106.162 62.7211 107.382 66.2907C107.436 66.4342 107.364 66.5777 107.22 66.6315C107.202 66.6315 107.167 66.6315 107.131 66.6315Z" fill="white"/>
<path d="M104.185 72.2463C104.096 72.2463 103.988 72.1925 103.952 72.1028C102.714 69.7171 101.62 67.7261 100.723 66.1834C100.652 66.0579 100.688 65.8964 100.831 65.8247C100.957 65.7529 101.118 65.7888 101.19 65.9323C102.087 67.4929 103.181 69.484 104.419 71.8697C104.49 71.9952 104.436 72.1567 104.311 72.2284C104.275 72.2463 104.239 72.2463 104.185 72.2463Z" fill="white"/>
<path d="M93.1206 33.3215C92.2596 32.9986 91.291 33.1242 90.5197 33.6444C89.282 34.5054 87.5779 36.1197 87.3985 38.5592C87.0936 42.4696 83.5958 52.0842 87.2192 56.3713C87.5241 56.1381 92.9412 50.8824 98.1611 50.8644C98.0355 48.3352 98.3405 40.4606 97.3539 37.1422C96.7081 34.9359 94.5377 33.8596 93.1206 33.3215Z" fill="#539A85"/>
<path d="M101.739 38.6488L102.726 36.0658L103.91 36.012L106.259 39.0255L106.367 39.4201L103.407 44.9269L99.748 45.3574L99.8377 42.8462L100.824 38.6309L101.739 38.6488Z" fill="#F3C55C"/>
<path d="M102.728 36.0657L104.45 38.5411L101.723 38.5949L102.728 36.0657Z" fill="white"/>
<path d="M89.0469 42.9181C89.0469 42.9181 91.0021 43.4563 92.7241 42.5594L92.76 45.5012C92.76 45.5012 97.1008 44.1558 98.2309 43.3666C99.361 42.5773 98.5179 39.8149 100.635 39.1692C100.635 39.1692 100.186 40.4428 100.365 40.6042C100.563 40.7477 101.119 40.8374 101.765 40.4069C102.41 39.9943 103.576 39.4203 104.366 39.6176C105.155 39.8149 103.935 42.8464 102.034 43.4921C99.6121 44.3173 95.3609 49.7524 91.899 50.6851C91.0559 50.9183 90.1769 50.5237 89.8003 49.7165C89.6029 49.286 89.4056 48.694 89.3339 47.8868C89.1186 45.824 89.0469 42.9181 89.0469 42.9181Z" fill="#F1BBA2"/>
<path d="M93.5993 30.9536L92.4692 32.9267C91.9131 33.8954 91.967 35.1331 92.6665 36.012C92.7921 36.1555 92.9176 36.3169 93.0611 36.4425C93.4378 36.8013 94.0477 36.6757 94.263 36.2093L95.4648 33.5904L93.5993 30.9536Z" fill="#EAAC8E"/>
<path d="M99.5792 29.2315C99.8841 29.3212 98.3235 34.3078 96.7271 34.4513C95.1306 34.5948 93.0678 33.1598 93.2113 31.4199C93.2113 31.4199 92.1889 31.1329 92.7091 29.8055C93.1396 28.6934 93.9826 29.6979 94.2338 30.0208C94.2876 30.0925 94.3593 30.1284 94.4311 30.1643C95.4714 30.3436 94.8436 28.4243 97.7495 28.2629C97.7136 28.227 98.4132 28.8907 99.5792 29.2315Z" fill="#F1BBA2"/>
<path d="M5.5308 108.659C8.70575 104.498 11.7193 99.493 12.5444 94.327L12.7058 93.3404L8.75956 90.9368L7.30662 98.5782C6.76849 101.968 3.36035 107.278 3.36035 107.278L5.5308 108.659Z" fill="#539A85"/>
<path d="M13.8536 110.291L16.4725 110.273L17.0824 105.179C17.2438 103.134 17.4412 101.179 17.2977 99.1163L16.8672 92.4973L12.2393 92.5152L13.4052 98.7217C13.7281 101.054 13.9433 103.188 13.9971 105.628L13.8536 110.291Z" fill="#539A85"/>
<path d="M13.5827 109.502L13.6185 109.987C13.6544 110.453 13.6185 110.901 13.3853 111.296C13.188 111.637 12.9907 112.121 12.9907 112.659C12.9907 112.659 16.9549 113.574 20.4348 112.713C20.4348 112.713 20.4528 112.301 19.3944 112.067C18.3361 111.834 17.0626 111.673 16.9729 111.314C16.8832 110.955 16.8832 110.005 16.7397 109.807C16.5962 109.61 15.3226 109.305 14.6589 109.807C14.623 109.789 14.0311 109.377 13.5827 109.502Z" fill="#2F6F5C"/>
<path d="M20.4167 113.52C20.4347 113.341 20.4347 113.072 20.4167 112.856C20.4167 112.767 20.3271 112.695 20.2374 112.713C19.5378 112.82 16.6319 113.197 13.152 112.659C13.0623 112.641 12.9727 112.713 12.9727 112.82V113.484C12.9727 113.663 13.1162 113.825 13.2955 113.861C14.2642 113.986 17.5647 114.291 20.1477 113.807C20.2912 113.807 20.3988 113.681 20.4167 113.52Z" fill="#539A85"/>
<path d="M18.8051 112.587C18.7693 112.587 18.7334 112.587 18.7154 112.569C18.5719 112.516 18.5002 112.354 18.554 112.229L18.6796 111.906C18.7334 111.762 18.8948 111.69 19.0204 111.744C19.1639 111.798 19.2356 111.959 19.1818 112.085L19.0563 112.408C19.0204 112.516 18.9128 112.587 18.8051 112.587Z" fill="#CCDCFF"/>
<path d="M17.983 112.57C17.9471 112.57 17.9113 112.57 17.8754 112.552C17.7319 112.498 17.6781 112.336 17.7319 112.193L17.9292 111.726C17.983 111.583 18.1445 111.529 18.288 111.583C18.4315 111.637 18.4853 111.798 18.4315 111.942L18.2341 112.408C18.1983 112.516 18.0906 112.57 17.983 112.57Z" fill="#CCDCFF"/>
<path d="M17.1175 112.354C17.0637 112.354 17.0099 112.336 16.9561 112.3C16.8305 112.211 16.8126 112.031 16.9022 111.924L17.2431 111.493C17.3327 111.368 17.5121 111.35 17.6197 111.439C17.7453 111.529 17.7632 111.708 17.6736 111.816L17.3327 112.247C17.2789 112.318 17.2072 112.354 17.1175 112.354Z" fill="#CCDCFF"/>
<path d="M16.2953 111.78C16.1877 111.78 16.098 111.726 16.0442 111.619C15.9904 111.475 16.0442 111.332 16.1698 111.26L16.7976 110.973C16.9411 110.919 17.0846 110.973 17.1563 111.098C17.2102 111.242 17.1563 111.385 17.0308 111.457L16.403 111.744C16.3671 111.78 16.3312 111.78 16.2953 111.78Z" fill="#CCDCFF"/>
<path d="M16.0818 110.901C15.9383 110.901 15.8307 110.793 15.8127 110.65C15.7948 110.506 15.9204 110.381 16.0639 110.363L16.8173 110.309C16.9608 110.291 17.0863 110.417 17.1043 110.56C17.1222 110.704 16.9966 110.829 16.8531 110.847L16.0998 110.901H16.0818Z" fill="#CCDCFF"/>
<path d="M3.50453 106.507L3.27134 106.937C3.05609 107.332 2.76909 107.69 2.35653 107.906C1.99778 108.085 1.56727 108.372 1.28027 108.821C1.28027 108.821 4.09647 111.762 7.48667 112.928C7.48667 112.928 7.71986 112.587 6.96648 111.816C6.19517 111.045 5.2086 110.202 5.3521 109.861C5.51354 109.448 5.96198 108.946 6.01579 108.623C6.06961 108.247 5.0651 107.26 4.23997 107.332C4.22204 107.332 3.95297 106.65 3.50453 106.507Z" fill="#2F6F5C"/>
<path d="M7.04131 113.628C7.131 113.502 7.25656 113.323 7.36419 113.161C7.43594 113.036 7.38212 112.892 7.25656 112.838C6.50318 112.498 3.99192 111.26 1.48066 109.018C1.37304 108.928 1.2116 108.946 1.12191 109.072L0.816973 109.538C0.709347 109.699 0.745222 109.897 0.888723 110.022C1.62416 110.65 4.24305 112.713 6.64668 113.717C6.79018 113.789 6.95162 113.753 7.04131 113.628Z" fill="#539A85"/>
<path d="M6.33967 111.995C6.24998 111.995 6.17823 111.96 6.12441 111.888C6.03473 111.762 6.05266 111.601 6.17823 111.511L6.44729 111.314C6.57285 111.224 6.73429 111.26 6.82398 111.368C6.91367 111.493 6.89573 111.655 6.77017 111.744L6.5011 111.942C6.44729 111.977 6.39348 111.995 6.33967 111.995Z" fill="#CCDCFF"/>
<path d="M5.67669 111.547C5.58701 111.547 5.49732 111.511 5.46144 111.421C5.37175 111.296 5.40763 111.134 5.53319 111.045L5.94576 110.758C6.07132 110.668 6.23276 110.704 6.32245 110.829C6.41213 110.955 6.37626 111.116 6.2507 111.206L5.83813 111.493C5.76638 111.529 5.73051 111.547 5.67669 111.547Z" fill="#CCDCFF"/>
<path d="M5.06735 110.883C4.95973 110.883 4.8521 110.812 4.81622 110.704C4.76241 110.561 4.8521 110.417 4.97766 110.363L5.49785 110.184C5.64135 110.13 5.78485 110.22 5.83867 110.345C5.89248 110.489 5.80279 110.632 5.67723 110.686L5.15704 110.866C5.12116 110.883 5.10323 110.883 5.06735 110.883Z" fill="#CCDCFF"/>
<path d="M5.35597 110.058C5.33803 110.058 5.32009 110.058 5.32009 110.058L4.63846 109.95C4.49496 109.933 4.38734 109.789 4.40528 109.646C4.42321 109.502 4.56671 109.394 4.71021 109.412L5.39184 109.52C5.53534 109.538 5.64297 109.681 5.62503 109.825C5.60709 109.95 5.48153 110.058 5.35597 110.058Z" fill="#CCDCFF"/>
<path d="M5.66095 109.466C5.62507 109.466 5.57126 109.448 5.53539 109.431L4.8717 109.072C4.74613 109 4.69232 108.839 4.76407 108.713C4.83582 108.587 4.99726 108.534 5.12282 108.605L5.78651 108.964C5.91208 109.036 5.96589 109.197 5.89414 109.323C5.84033 109.413 5.75064 109.466 5.66095 109.466Z" fill="#CCDCFF"/>
<path d="M24.9851 81.2972C25.6098 79.5954 24.405 77.5877 22.2941 76.8127C20.1831 76.0378 17.9654 76.7891 17.3406 78.4909C16.7159 80.1927 17.9207 82.2005 20.0317 82.9754C22.1427 83.7504 24.3604 82.999 24.9851 81.2972Z" fill="#F1BBA2"/>
<path d="M26.9811 79.4228C26.9821 78.6798 26.3806 78.0767 25.6376 78.0756C24.8946 78.0746 24.2915 78.6761 24.2904 79.4191C24.2894 80.1621 24.8909 80.7652 25.6339 80.7663C26.3769 80.7673 26.98 80.1658 26.9811 79.4228Z" fill="#F1BBA2"/>
<path d="M18.485 78.1469C19.228 78.1469 19.8303 77.5446 19.8303 76.8016C19.8303 76.0586 19.228 75.4563 18.485 75.4563C17.742 75.4563 17.1396 76.0586 17.1396 76.8016C17.1396 77.5446 17.742 78.1469 18.485 78.1469Z" fill="#F1BBA2"/>
<path d="M25.6215 81.0172C25.4601 81.0172 25.2987 80.9993 25.1372 80.9455C24.9578 80.8917 24.7785 80.802 24.635 80.6764C24.5094 80.5867 24.4915 80.4074 24.5812 80.2997C24.6708 80.1742 24.8502 80.1562 24.9578 80.2459C25.0655 80.3177 25.1731 80.3894 25.2987 80.4253C25.8727 80.6047 26.4646 80.2818 26.644 79.7257C26.7337 79.4567 26.6978 79.1697 26.5722 78.9006C26.4467 78.6495 26.2135 78.4522 25.9444 78.3804C25.4601 78.2369 24.9399 78.4342 24.6888 78.8647C24.617 78.9903 24.4556 79.0441 24.33 78.9544C24.2045 78.8827 24.1506 78.7212 24.2403 78.5957C24.617 77.9499 25.4063 77.645 26.1238 77.8602C26.5363 77.9858 26.8772 78.2728 27.0745 78.6495C27.2718 79.0262 27.3077 79.4746 27.1821 79.8692C26.9489 80.5867 26.3211 81.0172 25.6215 81.0172Z" fill="#CE8563"/>
<path d="M18.5372 78.3981C18.035 78.3981 17.5507 78.1649 17.2457 77.7523C16.9946 77.4115 16.887 76.981 16.9408 76.5505C16.9946 76.12 17.2278 75.7433 17.5686 75.4922C18.2861 74.9541 19.2906 75.1155 19.8287 75.8151C19.9902 76.0303 20.0799 76.2635 20.1337 76.5146C20.1516 76.6581 20.0619 76.8016 19.9184 76.8196C19.7749 76.8375 19.6314 76.7478 19.6135 76.6043C19.5776 76.4249 19.5238 76.2814 19.4162 76.1379C19.0574 75.6716 18.3937 75.5639 17.9094 75.9227C17.6762 76.1021 17.5327 76.3532 17.4968 76.6223C17.461 76.9093 17.5327 77.1963 17.6942 77.4115C17.9273 77.7164 18.304 77.8779 18.6807 77.842C18.8242 77.8241 18.9677 77.9317 18.9857 78.0752C19.0036 78.2187 18.896 78.3622 18.7525 78.3801C18.6807 78.3981 18.609 78.3981 18.5372 78.3981Z" fill="#CE8563"/>
<path d="M25.5673 87.2414C25.0471 87.5104 24.3834 87.3131 24.1143 86.7929L22.0156 82.8287L23.917 81.8242L26.0157 85.7884C26.2848 86.3086 26.0875 86.9723 25.5673 87.2414Z" fill="#F1BBA2"/>
<path d="M2.39728 91.9413C2.03853 92.0669 1.80534 91.8875 1.84122 91.5826C1.89503 91.2956 2.21791 91.17 2.57666 90.7933C2.64841 90.7215 1.55422 91.0085 1.0699 90.9906C0.872591 90.9727 0.693215 90.8471 0.603527 90.6677C0.603527 90.6677 0.352401 90.2193 0.764965 89.9502C1.37484 89.5377 3.07891 89.2507 3.50941 88.9995L4.44217 88.4255L5.51842 89.5735L4.20898 90.7574C4.13723 90.8112 3.63498 91.2238 3.27623 91.4211L2.39728 91.9413Z" fill="#F1BBA2"/>
<path d="M14.0527 77.3222C14.0527 77.3222 11.4338 82.7035 11.3441 82.847C9.80147 85.5735 8.70727 87.4928 5.49645 90.1117L3.84619 88.3358L5.37089 86.0398C6.75208 83.977 7.91802 81.7707 8.8149 79.4388L10.0885 76.1204L14.0527 77.3222Z" fill="#F37E60"/>
<path d="M11.2711 75.8871L14.0335 75.8691L16.9394 79.2055C17.8183 80.21 18.8408 81.071 19.9708 81.7527L22.4462 83.2415C23.2175 83.9231 23.379 85.0532 22.8229 85.9142C22.213 86.8469 20.9753 87.1519 20.0246 86.5599L17.9618 85.3043V94.9188H6.39209L11.2711 75.8871Z" fill="#F37E60"/>
<path d="M20.4141 88.7843C21.1968 88.7843 21.8312 88.1097 21.8312 87.2775C21.8312 86.4454 21.1968 85.7708 20.4141 85.7708C19.6315 85.7708 18.9971 86.4454 18.9971 87.2775C18.9971 88.1097 19.6315 88.7843 20.4141 88.7843Z" fill="#F1BBA2"/>
<path d="M17.9227 85.932C18.3532 85.1787 18.1559 84.2459 17.4742 83.8513C16.7926 83.4567 15.8778 83.7437 15.4473 84.497C15.0168 85.2504 15.2141 86.1832 15.8957 86.5778C16.5773 86.9724 17.4922 86.6854 17.9227 85.932Z" fill="#F1BBA2"/>
<path d="M15.5978 69.6628C15.8669 69.7346 16.1001 70.6135 16.1718 70.9364C16.3871 72.0665 16.2795 74.0575 15.6337 74.2728C15.0238 74.4701 14.8624 74.1652 14.4498 74.506C14.0911 74.793 13.9296 75.349 13.8758 76.2459C13.8758 76.2997 14.4319 76.8737 14.7727 77.2325C14.8624 77.3222 14.0731 78.237 12.4946 78.1473C10.5036 78.0397 10.7188 76.7123 10.7009 76.6226C10.6829 76.5509 11.9565 68.7839 15.5978 69.6628Z" fill="#F1BBA2"/>
<path d="M16.6557 69.914C16.7095 70.2727 16.4584 70.6135 16.0996 70.6494C15.1131 70.757 14.1624 71.0081 13.4628 71.8333C12.7812 72.6405 12.7991 76.7123 12.5121 79.2953C12.3865 80.4254 11.2206 81.1429 10.1444 80.7303C7.41784 79.7079 5.69583 77.1069 6.80796 75.1876L10.0726 69.2861C10.4672 68.6225 11.0592 68.1023 11.8305 67.7435C12.1892 67.5821 12.8171 67.4206 13.2117 67.4027C15.8664 67.2771 16.5122 68.9453 16.6557 69.914Z" fill="#363537"/>
<path d="M14.093 72.2999C13.4113 72.2102 13.2499 70.8828 13.6625 70.7393C14.075 70.5779 14.38 71.2595 14.38 71.2595L14.093 72.2999Z" fill="#F1BBA2"/>
<path d="M52.0176 85.2324L52.2149 88.4612C52.2329 88.5509 52.1611 88.6406 52.0894 88.6406L50.5109 88.7302C50.4391 88.7302 50.3853 88.6764 50.3674 88.6047L49.8472 85.5912L52.0176 85.2324Z" fill="#F1BBA2"/>
<path d="M52.4967 87.6365C52.6043 88.0131 52.8196 89.0715 52.9093 89.6993C52.9631 90.0939 52.712 90.4706 52.3353 90.5782C51.2411 90.8652 48.6401 90.8652 46.4697 90.9549C46.3262 90.9549 46.0392 90.8832 45.9316 90.5244C45.519 89.3046 47.7971 88.928 50.0393 87.6903C50.0751 87.6723 50.129 87.6723 50.1828 87.6903C50.2007 87.7082 50.2366 87.7261 50.2725 87.762C50.6671 88.0131 51.3128 88.0131 51.7075 87.78L52.1559 87.5109C52.2994 87.4391 52.4429 87.493 52.4967 87.6365Z" fill="#539A85"/>
<path d="M52.9591 89.9859C52.9591 90.0039 52.9591 90.0039 52.9591 90.0039C53.0129 90.3985 52.6362 90.6496 52.2775 90.8111C51.2012 91.3133 46.8783 91.0263 46.6989 91.0084C46.6989 91.0084 46.6989 91.0084 46.681 91.0084C46.6271 91.0084 46.0711 91.0084 45.9276 90.6676C45.9096 90.6317 45.8917 90.5599 45.8917 90.5061C45.8738 90.4164 45.8917 90.3268 45.9096 90.2371C45.9276 90.1653 45.9993 90.1115 46.0711 90.1294C46.8783 90.3267 48.7438 90.3985 50.6272 90.2012C51.8829 90.0577 52.421 89.7886 52.708 89.6272C52.7797 89.5734 52.8874 89.6272 52.9053 89.7169C52.9232 89.8066 52.9412 89.8962 52.9591 89.9859Z" fill="white"/>
<path d="M49.8974 88.9455C49.8436 88.9455 49.7898 88.9275 49.736 88.8916L49.0723 88.3894C48.9467 88.2997 48.9288 88.1383 49.0185 88.0127C49.1081 87.8871 49.2696 87.8692 49.3951 87.9589L50.0588 88.4611C50.1844 88.5508 50.2023 88.7123 50.1126 88.8378C50.0588 88.9096 49.9692 88.9455 49.8974 88.9455Z" fill="white"/>
<path d="M49.0157 89.3044C48.9619 89.3044 48.9081 89.2864 48.8543 89.2506L48.2803 88.8201C48.1547 88.7304 48.1368 88.5689 48.2265 88.4434C48.3162 88.3178 48.4776 88.2999 48.6032 88.3895L49.1772 88.8201C49.3027 88.9097 49.3207 89.0712 49.231 89.1967C49.1772 89.2685 49.0875 89.3044 49.0157 89.3044Z" fill="white"/>
<path d="M56.6166 56.0303C56.6166 56.0303 57.8723 58.5236 58.2848 61.1604C58.6795 63.5999 60.1145 73.6808 63.6123 81.7707C64.0069 82.6855 63.5585 83.6362 62.5719 83.8514C62.1773 83.9411 62.0158 83.7976 61.675 83.6362C61.4957 83.5465 61.2087 83.2954 61.2087 83.2954C61.2087 83.2954 55.0023 78.1114 52.4731 64.5327C50.8407 55.7971 51.1098 56.4966 51.1098 56.4966L56.6166 56.0303Z" fill="#9BD5E3"/>
<path d="M54.8776 57.1602C54.8776 57.1602 55.613 61.8957 54.2318 65.4114C52.9045 68.7837 52.0614 82.0037 52.5636 85.8244C52.5995 86.0576 52.4201 86.2908 52.187 86.3266C51.5771 86.4163 50.5008 86.524 49.7474 86.3805C49.6039 86.3625 49.4963 86.2549 49.4604 86.1114C48.9761 84.1741 44.9043 66.6491 47.7743 57.6624L54.8776 57.1602Z" fill="#9BD5E3"/>
<path d="M53.5331 69.5908C53.3896 69.5908 53.264 69.4832 53.264 69.3217C53.264 69.25 53.2102 67.3845 53.9815 65.6087C54.2326 65.0167 54.2685 64.4248 54.2506 63.6714C54.2506 63.5279 54.3582 63.4023 54.5017 63.4023C54.6452 63.3844 54.7707 63.51 54.7707 63.6535C54.8066 64.4607 54.7528 65.1423 54.4658 65.8239C53.7483 67.4921 53.7842 69.3038 53.7842 69.3217C53.8021 69.4652 53.6945 69.5908 53.5331 69.5908Z" fill="#79BBCB"/>
<path d="M50.5884 64.7121C50.391 64.7121 50.1937 64.6763 49.9964 64.5866L48.687 64.0126C48.1847 63.7973 47.8798 63.2951 47.8977 62.757L47.9874 60.1919C47.9874 60.0304 48.0592 59.8869 48.1847 59.7793C48.3103 59.6717 48.4717 59.6179 48.6332 59.6358C50.1579 59.7972 51.5929 59.6537 52.3104 59.5461C52.4897 59.5282 52.6512 59.582 52.7767 59.6896C52.9023 59.8152 52.9741 59.9766 52.9561 60.1381L52.8126 62.8287C52.7947 63.2233 52.5974 63.6 52.2566 63.8332L51.4135 64.4431C51.1982 64.6225 50.8933 64.7121 50.5884 64.7121ZM48.5793 60.1739C48.5614 60.1739 48.5614 60.1739 48.5614 60.1919C48.5614 60.1919 48.5435 60.2098 48.5435 60.2278L48.4538 62.7928C48.4359 63.1157 48.6332 63.4027 48.9202 63.5462L50.2296 64.1202C50.5166 64.2458 50.8754 64.2099 51.1265 64.0305L51.9695 63.4206C52.1669 63.2771 52.2745 63.0619 52.2924 62.8287L52.4359 60.156C52.4359 60.1381 52.4359 60.1381 52.418 60.1201C52.4001 60.1201 52.4001 60.1022 52.3821 60.1022C51.6467 60.1919 50.1758 60.3354 48.5793 60.1739Z" fill="#79BBCB"/>
<path d="M57.177 64.1021C57.0873 64.1021 56.9976 64.0842 56.9079 64.0304L55.4729 63.2949C55.2935 63.2052 55.1859 63.0259 55.15 62.8286L54.8271 59.8509C54.7913 59.546 55.0065 59.259 55.3115 59.2052L57.0514 58.9361C57.1949 58.9182 57.3384 59.0079 57.3563 59.1693C57.3743 59.3128 57.2846 59.4563 57.1232 59.4742L55.3832 59.7433C55.3653 59.7433 55.3473 59.7612 55.3473 59.7971L55.6702 62.7747C55.6702 62.7927 55.6881 62.8106 55.6881 62.8106L57.1232 63.5461C57.1411 63.5461 57.159 63.5461 57.177 63.5461L58.038 62.9362C58.1635 62.8465 58.325 62.8824 58.4147 63.0079C58.5043 63.1335 58.4685 63.2949 58.3429 63.3846L57.4819 63.9945C57.4102 64.0662 57.3025 64.1021 57.177 64.1021Z" fill="#79BBCB"/>
<path d="M62.5933 85.3762C62.396 84.4255 62.3242 84.2282 61.8578 83.4927C61.517 82.9367 62.3421 82.1115 62.7726 82.0577C63.4722 81.9142 63.3646 82.1295 64.1718 83.1699L64.7996 83.9412C64.7996 83.9412 62.7547 86.2013 62.5933 85.3762Z" fill="#F1BBA2"/>
<path d="M62.4665 85.0171L63.2737 83.7974C63.6504 83.2234 64.4576 83.1337 64.9598 83.618L65.8926 84.4073C65.8926 84.4073 66.0719 84.9454 66.0181 85.2862C65.9464 85.7346 65.8029 86.3804 65.5159 87.0262C65.0854 88.0127 63.8836 89.9859 63.4531 90.6675C63.3634 90.811 63.1481 90.9545 62.9867 90.8827C62.8073 90.793 62.61 90.6495 62.4306 90.4702C62.1436 90.2011 62.2333 88.9455 62.3409 88.0665C62.4127 87.5105 62.3589 86.0755 62.3409 85.4835C62.3409 85.3221 62.3768 85.1606 62.4665 85.0171Z" fill="#539A85"/>
<path d="M62.3792 86.6854C62.2537 86.6854 62.146 86.6136 62.1281 86.4881C62.0922 86.3446 62.1819 86.2011 62.3075 86.1652L63.1864 85.932C63.3299 85.8961 63.4734 85.9679 63.5093 86.1114C63.5452 86.2549 63.4555 86.3984 63.3299 86.4342L62.451 86.6674C62.433 86.6854 62.3972 86.6854 62.3792 86.6854Z" fill="white"/>
<path d="M62.4476 87.4749C62.322 87.4749 62.2144 87.4032 62.1964 87.2776C62.1606 87.1341 62.2503 86.9906 62.3758 86.9547L63.2548 86.7215C63.3983 86.6857 63.5418 86.7574 63.5776 86.9009C63.6135 87.0444 63.5238 87.1879 63.3983 87.2238L62.5193 87.457C62.4835 87.4749 62.4655 87.4749 62.4476 87.4749Z" fill="white"/>
<path d="M63.3463 90.9369C63.2566 90.9369 63.1669 90.919 63.0952 90.901C62.8261 90.8113 62.1804 90.614 62.2521 89.6813C62.3239 88.7126 63.0772 88.2104 63.6154 87.5826C64.0279 87.0983 63.9921 85.0534 64.1176 84.6587C64.3508 83.9412 65.3912 83.8336 65.9293 84.4076C66.2701 84.7664 66.306 85.5377 66.2701 86.1117C66.2163 87.1879 65.5885 89.3046 64.7813 90.345C64.3687 90.8293 63.7768 90.9369 63.3463 90.9369Z" fill="white"/>
<path d="M57.8354 36.3703C57.8354 36.3703 58.7861 33.5003 58.822 32.5496C58.8758 31.5989 57.9251 27.258 57.5484 25.8588C57.5484 25.8588 57.9072 23.2041 55.8802 22.7377C55.7367 22.7018 55.647 22.5942 55.5932 22.4686C55.4318 22.0202 55.36 21.7332 55.1986 21.1951C55.0551 20.7466 54.4093 20.9439 54.4631 21.4462C54.4811 21.6435 54.6784 23.2579 54.7681 23.9216C54.786 24.0113 54.7322 24.1189 54.6784 24.1906C54.5349 24.3521 54.4093 24.675 54.6784 25.249C55.1089 26.1458 55.2883 25.8768 55.7546 26.6302C56.221 27.3656 56.3645 30.0204 56.3825 31.4374C56.4183 32.8545 55.8264 34.0563 55.5215 34.5765C55.2524 35.0967 57.8354 36.3703 57.8354 36.3703Z" fill="#F1BBA2"/>
<path d="M56.3515 33.357C55.9927 33.2853 55.6339 33.4646 55.4725 33.7875C55.1317 34.4333 52.6563 37.1239 52.2796 37.4109C51.8312 37.7697 50.5217 39.958 47.6876 39.8863C47.5262 39.8863 47.3647 39.9401 47.2392 40.0477C46.9163 40.3168 46.1629 40.837 44.8355 41.2316C44.0463 41.4648 43.4005 42.2361 43.3288 43.9581C43.2391 46.0209 41.1045 50.0569 41.7144 51.5995C42.8086 54.2902 44.5485 53.5368 46.1988 52.9807C46.1988 52.9807 46.3064 52.9807 46.2167 55.4023C46.0732 59.0974 45.9835 59.2589 51.0957 58.9181C54.9523 58.6669 58.4681 58.1109 58.504 57.3037C58.5398 56.7117 57.4995 53.5009 57.2842 49.6443C57.069 45.7878 57.7506 39.8863 58.1811 38.3795C58.5937 37.0522 58.0914 33.7337 56.3515 33.357Z" fill="#B0D37E"/>
<path d="M45.9316 53.5368C45.824 53.5368 45.7163 53.465 45.6805 53.3574C45.6267 53.2139 45.6984 53.0704 45.8419 53.0166C45.8778 52.9986 47.1693 52.4067 46.954 48.7116C46.954 48.5681 47.0617 48.4425 47.2052 48.4246C47.3487 48.4066 47.4742 48.5322 47.4922 48.6757C47.7433 52.8552 46.111 53.483 46.0392 53.5188C45.9854 53.5368 45.9675 53.5368 45.9316 53.5368Z" fill="#9EC269"/>
<path d="M50.8765 31.7965C50.9662 32.1373 51.1635 32.9625 51.3608 33.2136C51.8631 33.8414 52.2936 35.8863 51.5043 37.2854C51.0559 38.0747 51.02 38.7204 51.0559 39.0792C51.0738 39.3303 50.9662 39.5635 50.7509 39.707C50.2487 40.0299 49.6747 40.2451 49.0827 40.2989L48.9034 40.3169C48.6164 40.3527 48.3473 40.1913 48.2217 39.9402C47.845 39.1689 47.0199 37.5545 46.4997 37.1598C45.8002 36.6217 41.7642 32.0656 44.4548 30.6485C49.1007 28.1731 50.5716 30.7561 50.8765 31.7965Z" fill="#F1BBA2"/>
<path d="M51.8966 32.3169C51.8966 32.3169 51.7531 28.5679 49.2778 28.0657C46.8024 27.5634 43.8427 28.3886 43.0355 29.4828C42.2283 30.577 42.9279 32.4066 42.9279 32.4066C42.9279 32.4066 41.9772 34.1286 43.2328 34.9178C44.4884 35.7071 45.762 37.752 47.0714 37.0704C48.3809 36.4067 49.0984 35.6354 49.0446 34.29C48.9908 32.5322 51.8966 32.3169 51.8966 32.3169Z" fill="#363537"/>
<path d="M125.097 47.4206C125.599 45.7704 125.509 44.73 125.061 43.6358L124.29 42.1111L126.586 41.1963L127.285 42.9362C127.518 43.4923 127.841 44.0125 128.254 44.443L128.63 44.8376L125.097 47.4206Z" fill="#F1BBA2"/>
<path d="M127.599 43.9943C127.653 43.815 127.886 43.7791 128.029 43.9047C128.388 44.2993 129.034 44.945 129.518 45.2679C129.967 45.5729 130.11 46.1827 129.859 46.667C129.141 48.0303 127.312 50.99 125.375 53.2322C125.249 53.3936 124.908 53.5909 124.442 53.3757C122.863 52.6582 124.37 49.4474 125.231 46.093C125.267 45.9675 125.375 45.8599 125.5 45.8419L125.984 45.7522C126.863 45.5729 127.222 45.1603 127.599 43.9943Z" fill="#24604E"/>
<path d="M129.42 45.1965C129.42 45.1965 129.491 45.2504 129.527 45.2683C129.976 45.5732 130.119 46.1831 129.868 46.6674C129.151 48.0307 127.321 50.9904 125.384 53.2326C125.258 53.394 124.917 53.5913 124.451 53.3761C124.308 53.3043 124.092 53.1249 124.092 53.1249L124.218 52.9635C126.065 50.6137 127.734 48.1383 129.222 45.5374L129.42 45.1965Z" fill="#F5F0ED"/>
<path d="M124.57 48.8737C124.445 48.8737 124.319 48.784 124.301 48.6405C124.283 48.497 124.373 48.3535 124.516 48.3355L126.113 48.0665C126.256 48.0485 126.4 48.1382 126.418 48.2817C126.436 48.4252 126.346 48.5687 126.202 48.5867L124.606 48.8557C124.588 48.8737 124.588 48.8737 124.57 48.8737Z" fill="black"/>
<path d="M124.302 49.7704C124.176 49.7704 124.05 49.6807 124.033 49.5372C124.015 49.3937 124.104 49.2502 124.266 49.2323L125.557 49.035C125.701 49.017 125.844 49.1067 125.862 49.2682C125.88 49.4117 125.79 49.5552 125.629 49.5731L124.337 49.7704C124.337 49.7704 124.32 49.7704 124.302 49.7704Z" fill="black"/>
<path d="M138.086 23.4201C138.086 23.4201 122.085 19.9222 117.224 22.6846C116.489 23.0972 115.789 23.9761 115.646 24.8013C115.179 27.3305 116.578 32.8373 124.292 43.1873C124.399 43.3308 124.597 43.3846 124.758 43.3308L127.197 42.398C127.395 42.3263 127.502 42.111 127.449 41.9137L124.184 30.5054C124.094 30.2005 124.345 29.9135 124.65 29.9673L139.897 31.8328L138.086 23.4201Z" fill="#B0D37E"/>
<path d="M133.373 53.5015L133.068 54.9903C132.655 57.1608 134.234 58.255 134.234 58.255L129.552 58.829C129.552 58.829 130.575 58.2012 130.359 55.2056L130.09 52.6943L133.373 53.5015Z" fill="#F1BBA2"/>
<path d="M133.462 56.2462C133.857 56.6946 134.557 57.5197 135.077 58.3269C135.418 58.8292 135.22 59.4211 134.844 59.9054C134.108 60.892 133.086 61.6633 131.902 62.4346C130.861 63.1163 129.695 63.8338 128.296 64.4795C127.92 64.6589 127.059 64.8921 126.485 64.6051C124.763 63.7441 127.633 61.0534 129.893 57.9502C129.982 57.8247 130.126 57.7709 130.287 57.8067L130.826 57.9144C131.364 58.022 131.902 57.7888 132.189 57.3404L132.906 56.282C133.068 56.1027 133.319 56.0847 133.462 56.2462Z" fill="#24604E"/>
<path d="M134.803 57.9685C134.803 57.9685 135.054 58.3093 135.09 58.3452C135.179 58.4708 135.215 58.6143 135.251 58.7757C135.341 59.26 135.161 59.7623 134.82 60.121C134.731 60.2107 134.623 60.3183 134.498 60.4439C133.134 61.7354 131.61 62.8296 129.959 63.7265C129.116 64.1749 127.269 65.1256 126.515 64.6233C126.282 64.4619 126.139 64.0135 126.139 64.0135C126.139 64.0135 126.587 64.2825 127.914 63.6188C130.157 62.5067 131.681 61.2511 133.547 59.7443C133.906 59.4573 134.157 59.1703 134.426 58.8654C134.623 58.5963 134.767 58.2914 134.803 57.9685Z" fill="#F5F0ED"/>
<path d="M130.359 60.3899C130.341 60.3899 130.323 60.3899 130.306 60.3899L128.566 60.0132C128.422 59.9773 128.332 59.8338 128.368 59.6903C128.404 59.5468 128.548 59.4571 128.691 59.493L130.431 59.8697C130.575 59.9056 130.664 60.0491 130.628 60.1926C130.593 60.3002 130.485 60.3899 130.359 60.3899Z" fill="black"/>
<path d="M129.389 61.179C129.371 61.179 129.353 61.179 129.335 61.179L127.918 60.8382C127.775 60.8023 127.685 60.6588 127.721 60.5153C127.757 60.3718 127.9 60.2821 128.044 60.318L129.461 60.6588C129.604 60.6947 129.694 60.8382 129.658 60.9817C129.622 61.0893 129.515 61.179 129.389 61.179Z" fill="black"/>
<path d="M127.735 27.9761C132.399 23.994 147.395 23.8684 147.395 23.8684C147.395 23.8684 149.26 26.0927 148.381 30.5771C148.094 32.0479 147.036 33.3753 145.386 33.3753L136.184 33.4471C135.502 33.4471 134.982 34.0211 135 34.6848C135.179 39.1333 135.323 48.2994 134.049 54.5596C133.996 54.8107 133.798 55.008 133.565 55.0798C132.973 55.2412 131.825 55.4924 130.569 55.4744C130.175 55.4744 129.852 55.1695 129.798 54.7928L126.749 32.0479C126.659 31.3663 126.659 30.6667 126.767 29.9851C126.892 29.2856 127.161 28.4784 127.735 27.9761Z" fill="#B0D37E"/>
<path d="M126.482 30.9002C126.321 30.9002 126.213 30.7746 126.213 30.6311C126.321 26.8104 131.235 25.7162 131.289 25.6983C131.433 25.6624 131.576 25.7521 131.612 25.9135C131.648 26.057 131.558 26.2005 131.397 26.2364C131.343 26.2543 126.841 27.2409 126.751 30.6491C126.751 30.7926 126.643 30.9002 126.482 30.9002Z" fill="#94B761"/>
<path d="M137.155 24.7652C137.155 24.7652 136.993 25.0881 141.155 25.6801C144.15 26.1106 146.877 25.9133 148.168 25.7877C148.581 25.7339 148.868 25.3392 148.76 24.9267C148.419 23.5814 148.168 22.3257 146.877 18.8997C145.98 16.5319 147.271 11.6529 145.011 9.48243C141.155 5.78729 129.979 12.3345 129.979 12.3345L131.253 13.8233C133.603 16.5678 135.45 19.7248 136.706 23.115L137.155 24.7652Z" fill="#68CCEB"/>
<path d="M120.745 14.6127C120.781 14.0925 120.943 13.5185 120.674 13.1059L120.118 12.3884C119.723 11.7786 119.759 10.9534 120.01 10.2897L120.727 8.5498C120.799 8.35249 121.068 8.80093 121.122 8.99824L123.077 15.9401C123.4 16.9446 124.512 17.0343 125.14 16.6038L127.723 14.8459L130.772 19.0792C130.772 19.0792 127.813 21.1779 124.01 21.8415C123.149 21.9671 120.315 21.8954 120.745 14.6127Z" fill="#F1BBA2"/>
<path d="M126.862 14.3798L127.005 14.2722C127.741 13.7161 128.53 13.178 129.337 12.7296L131.418 11.6174L134.665 17.3754L130.216 19.6535L126.862 14.3798Z" fill="#68CCEB"/>
<path d="M135.417 16.3348L133.641 17.9671C133.515 18.0747 133.372 18.1644 133.21 18.2003C132.869 18.2721 132.511 18.1465 132.278 17.8595L128.78 12.6755C128.511 12.2809 128.098 12.0477 127.632 12.0118L125.407 11.8325C125.12 11.8145 124.941 12.1553 125.138 12.3706C125.354 12.5858 125.676 12.8011 126.125 12.8908C126.412 12.9446 126.627 13.1598 126.663 13.4289C126.842 14.6307 128.224 15.1509 128.224 15.1509C128.224 15.1509 129.569 23.1511 133.354 22.1824C138.394 20.8909 141.282 17.3752 141.282 17.3752L135.417 16.3348Z" fill="#F1BBA2"/>
<path d="M135.579 15.7966C135.525 15.7966 135.471 15.7787 135.417 15.7428C135.292 15.6531 135.256 15.4917 135.346 15.3661L136.153 14.2002C136.243 14.0746 136.404 14.0387 136.53 14.1284C136.655 14.2181 136.691 14.3796 136.601 14.5051L135.794 15.6711C135.74 15.7608 135.669 15.7966 135.579 15.7966Z" fill="#379EBE"/>
<path d="M141.495 17.1598C141.424 17.1598 141.352 17.1239 141.298 17.0701C141.208 16.9625 141.208 16.7831 141.316 16.6934C143.989 14.3615 144.796 12.4422 145.155 11.6171L145.208 11.5094C145.262 11.3659 145.424 11.3121 145.567 11.3659C145.711 11.4197 145.765 11.5812 145.711 11.7247L145.657 11.8323C145.298 12.6933 144.455 14.6844 141.675 17.106C141.621 17.1418 141.567 17.1598 141.495 17.1598Z" fill="#379EBE"/>
<path d="M123.019 17.6801L127.306 17.8774C127.952 17.9133 128.544 17.5007 128.472 17.0523L127.037 8.1014C126.983 7.8144 126.678 7.61709 126.265 7.58121L121.96 7.40184C121.315 7.36596 120.723 7.77853 120.794 8.22697L122.229 17.1778C122.283 17.4648 122.588 17.6621 123.019 17.6801Z" fill="white"/>
<path d="M140.895 8.92628L142.133 9.24915C142.42 9.3209 142.42 9.71553 142.133 9.82315C138.904 11.025 137.308 10.5586 136.303 10.433C136.016 10.3972 135.944 10.0025 136.213 9.87697C136.572 9.71553 136.734 9.30297 136.59 8.92628L135.729 6.75583L137.595 3.1145L139.55 7.81415C139.801 8.37021 140.303 8.76484 140.895 8.92628Z" fill="#F1BBA2"/>
<path d="M133.453 1.58995C131.605 2.95321 132.359 4.1909 132.359 4.1909C132.484 4.54965 132.807 5.39272 132.771 5.57209C132.717 5.78734 132.502 6.18197 132.52 6.30753C132.538 6.4331 132.789 6.59453 133.166 6.5766C133.166 6.5766 133.829 8.33448 134.368 8.49592C134.924 8.65736 136.556 7.56316 136.556 7.56316L136.825 7.34791C137.686 6.66629 138.045 5.67972 138.027 4.58553C138.027 4.58553 137.668 -1.51325 133.453 1.58995Z" fill="#F1BBA2"/>
<path d="M133.847 0.423927C133.344 0.710928 132.914 1.21318 132.645 1.32081C132.214 1.50018 131.873 1.10555 131.371 1.48224C130.923 1.80512 130.6 2.23562 130.672 2.73787C130.69 2.82756 130.707 2.91725 130.743 2.989C131.21 4.17288 132.035 4.08319 132.376 4.04732C132.376 4.04732 134.187 3.54507 134.564 3.52713C134.905 3.50919 135.497 3.83207 135.856 4.51369C135.909 4.60338 135.999 4.63926 136.107 4.62132C136.214 4.60338 136.304 4.49576 136.286 4.37019C136.25 4.01144 136.196 3.25806 136.555 3.1325C136.968 2.989 137.721 3.65269 137.326 4.31638C137.201 4.5137 137.344 4.8007 137.578 4.81863C137.775 4.83657 137.99 4.78276 138.17 4.51369C138.17 4.51369 138.69 2.34325 137.721 0.908242C136.752 -0.490889 134.528 0.0472381 133.847 0.423927Z" fill="#363537"/>
<path d="M132.482 6.70193C132.446 6.70193 132.392 6.68399 132.356 6.66605C132.105 6.54049 131.89 6.21762 131.746 5.82299C131.657 5.55393 131.621 5.28486 131.639 5.06961C131.675 4.67498 131.89 4.53148 132.015 4.49561C132.392 4.37005 132.823 4.7288 133.038 5.35661C133.092 5.50011 133.02 5.64361 132.876 5.69743C132.733 5.75124 132.589 5.67949 132.536 5.53599C132.428 5.24899 132.285 5.06961 132.195 5.03374C132.159 5.12342 132.141 5.35661 132.249 5.66155C132.356 5.94855 132.5 6.14587 132.607 6.19968C132.733 6.27143 132.787 6.43287 132.715 6.55843C132.661 6.64812 132.572 6.70193 132.482 6.70193Z" fill="black"/>
<path d="M133.756 6.1819C133.379 6.1819 132.984 5.84108 132.787 5.32089C132.697 5.05183 132.661 4.76483 132.715 4.5137C132.787 4.2267 132.948 4.01145 133.182 3.9397C133.612 3.77826 134.132 4.15495 134.348 4.78276C134.437 5.05183 134.473 5.33883 134.419 5.58996C134.348 5.87696 134.186 6.09221 133.953 6.16396C133.881 6.16396 133.809 6.1819 133.756 6.1819ZM133.397 4.44195C133.379 4.44195 133.379 4.44195 133.361 4.44195C133.307 4.45989 133.271 4.53164 133.253 4.62133C133.217 4.76483 133.235 4.9442 133.307 5.12358C133.433 5.48233 133.684 5.66171 133.791 5.62583C133.845 5.60789 133.881 5.53614 133.899 5.44645C133.935 5.30295 133.917 5.12358 133.845 4.9442C133.72 4.62133 133.504 4.44195 133.397 4.44195Z" fill="black"/>
<path d="M133.92 4.76482C133.813 4.76482 133.705 4.69307 133.669 4.58545C133.615 4.44195 133.687 4.29845 133.831 4.24463L135.75 3.49126C135.893 3.43744 136.037 3.50919 136.091 3.65269C136.145 3.79619 136.073 3.93969 135.929 3.99351L134.01 4.74689C133.992 4.76482 133.956 4.76482 133.92 4.76482Z" fill="black"/>
</svg>
