<svg width="130" height="83" viewBox="0 0 130 83" fill="none" xmlns="http://www.w3.org/2000/svg">
<g clip-path="url(#clip0_2039_368)">
<path d="M110.572 48.9504C109.614 48.4762 108.903 50.0128 110.061 50.4623C111.219 50.9119 111.876 51.2049 112.24 51.2049C112.605 51.2049 112.939 50.2476 112.627 49.9322C112.316 49.6169 111.233 49.2769 110.572 48.9504Z" fill="#F1BBA2"/>
<path d="M65.1579 36.4213C66.7805 36.4213 67.2071 38.5304 69.2319 39.2103C71.7431 40.0535 75.0058 38.7205 75.8481 36.5465C76.9423 33.7217 74.871 32.2501 75.3418 27.5555C75.6535 24.4444 73.5602 24.7195 71.7674 21.6912C69.9747 18.6607 70.4544 18.3319 68.0228 15.5474C65.5912 12.7628 61.5283 12.3692 58.4755 12.859C55.4228 13.3488 53.9019 13.9147 51.5123 15.5764C49.1228 17.2382 50.2037 19.0185 48.6674 20.1927C47.1311 21.3647 46.4458 22.7267 45.9816 25.0573C45.0885 29.5304 48.0904 31.6932 46.742 33.2386C45.3936 34.7841 42.657 41.7108 49.7373 41.2925C52.2396 41.1449 54.4811 41.9769 55.7079 40.0557C57.5139 37.2287 58.4158 39.1096 60.8894 37.8706C63.3652 36.6293 65.1557 36.4257 65.1557 36.4257L65.1579 36.4213Z" fill="#363537"/>
<path d="M47.0156 37.9511C52.9774 33.0419 53.5433 37.9511 67.8454 36.9916C69.6094 36.8731 77.6381 38.508 79.1877 39.472C87.0439 44.3544 93.1847 76.3284 93.1847 76.3284L47.692 75.8207L47.0156 37.9511Z" fill="#F3EB5D"/>
<path d="M58.412 35.719C58.3081 37.7453 56.4844 35.8286 56.4844 38.3962C56.4844 40.626 58.9513 44.1889 65.9344 43.0594C70.3753 42.3415 71.7105 38.5058 69.0711 37.3875C67.5768 36.7545 66.8717 34.2115 66.8717 34.2115L58.412 35.7168V35.719Z" fill="#F1BBA2"/>
<path d="M67.8835 24.1023C69.2562 29.6668 69.2032 37.7498 62.9385 38.2351C55.2746 38.8301 46.837 23.6124 52.9867 18.0255C59.1364 12.4385 65.9382 16.2228 67.8835 24.1023Z" fill="#F1BBA2"/>
<path d="M55.7381 22.1876C54.8362 23.9478 54.7721 24.2632 53.773 25.2741C52.7738 26.285 52.8666 28.9041 53.3441 30.3981C55.6188 37.5216 53.6713 34.0817 53.2203 34.538C52.7694 34.9942 50.9015 30.3422 50.6451 30.0827C50.3864 29.821 48.3594 22.3621 48.3594 21.5793C48.3594 20.7965 53.2424 16.0773 53.8326 15.4779C54.4251 14.8785 59.7569 13.7602 61.2711 13.7602C62.7853 13.7602 65.8115 13.5657 66.457 14.6079C67.1002 15.6501 71.287 24.3817 71.287 24.3817C71.287 24.3817 73.7982 28.45 72.1005 28.336C69.9275 28.1883 69.5186 27.7455 68.9615 26.4595C68.3647 25.0773 67.7988 21.9729 64.8057 22.9995C59.7458 24.7328 55.7381 22.1921 55.7381 22.1921V22.1876Z" fill="#363537"/>
<path d="M34.9564 79.4215C33.0178 67.2076 42.6447 39.1073 48.8938 36.5487C53.2972 34.7438 56.6904 36.164 57.5083 41.0956C58.3262 46.0273 50.8811 69.2652 50.8811 69.2652C50.8811 69.2652 72.7145 63.1952 74.6487 69.2652C76.5807 75.3353 75.6147 79.6362 75.6147 79.6362L34.9587 79.4215H34.9564Z" fill="#F3EB5D"/>
<path d="M55.1429 69.8848C53.1424 69.8848 51.3651 69.8401 50.0211 69.8043C49.3735 69.7887 48.812 69.773 48.3544 69.7663C48.1554 69.7641 47.9897 69.6724 47.8858 69.5113C47.3862 68.7308 48.4738 66.067 50.6069 61.028C52.7887 55.8705 55.5032 49.4515 55.5032 45.9692C55.5032 45.8171 55.6248 45.6941 55.7751 45.6941C55.9255 45.6941 56.047 45.8171 56.047 45.9692C56.047 49.5656 53.3082 56.0405 51.1065 61.245C50.2289 63.3183 49.4022 65.2753 48.8827 66.7335C48.14 68.8202 48.2991 69.1624 48.3433 69.2139C48.3433 69.2139 48.35 69.2139 48.361 69.2139C48.8208 69.2206 49.3845 69.234 50.0344 69.2519C53.0186 69.3279 57.5259 69.4442 62.1636 69.0976C62.3139 69.0864 62.4443 69.2004 62.4554 69.3525C62.4664 69.5046 62.3537 69.6366 62.2034 69.6478C59.7696 69.8289 57.3247 69.8826 55.1429 69.8826V69.8848Z" fill="#C99565"/>
<path d="M58.4891 29.64C58.4404 29.9575 58.7698 30.917 59.4728 30.6979C59.937 30.5525 59.8596 29.3537 59.3136 29.1345C58.8693 28.9578 58.5377 29.3224 58.4891 29.64Z" fill="#372313"/>
<path d="M64.2478 27.8597C64.166 28.1706 64.4556 29.1546 65.1762 29.0093C65.6537 28.9153 65.6382 27.721 65.121 27.4459C64.6988 27.22 64.3296 27.5488 64.2478 27.8597Z" fill="#372313"/>
<path d="M61.5625 34.9741C61.9449 35.4214 62.8623 35.947 64.2726 35.4639C65.6829 34.9808 65.5216 33.5427 65.5216 33.5427C64.2483 34.3568 63.0347 34.7482 61.5625 34.9719V34.9741Z" fill="#E66C40"/>
<path d="M63.2147 26.7614C63.4976 26.7614 64.3929 26.1262 65.2439 26.2649C66.095 26.4036 66.064 26.285 65.8607 26.077C65.6551 25.869 65.0781 25.6543 63.9994 25.7952C62.6908 25.9674 62.9693 26.7614 63.2147 26.7614Z" fill="#363537"/>
<path d="M59.4665 27.674C59.482 27.3989 58.8984 27.3318 58.4762 27.4437C57.8971 27.598 57.0128 28.4523 56.8669 29.0652C56.7896 29.385 57.0128 29.5416 57.3378 29.092C57.7224 28.5619 58.0253 28.2399 58.5138 28.1638C58.9073 28.1012 59.4555 27.891 59.4665 27.6763V27.674Z" fill="#363537"/>
<path d="M54.594 30.4988C55.2837 31.4829 56.2342 33.4175 55.5268 33.9252C54.8195 34.4329 52.7217 33.3236 52.032 32.3395C51.3423 31.3554 51.3556 30.1454 52.0629 29.6377C52.7703 29.13 53.9043 29.5147 54.594 30.4988Z" fill="#F1BBA2"/>
<path d="M63.0629 38.915C61.6724 38.915 60.5185 38.4453 60.4544 38.4185C60.3638 38.3805 60.3196 38.2753 60.3572 38.1836C60.3947 38.0919 60.4986 38.0472 60.5893 38.0852C60.6092 38.0942 62.6163 38.9083 64.4466 38.367C64.5417 38.3402 64.639 38.3939 64.6677 38.49C64.6942 38.5862 64.6412 38.6846 64.5461 38.7137C64.0465 38.8613 63.5403 38.9172 63.0629 38.9172V38.915Z" fill="#C99565"/>
<path d="M55.3268 34.2138C55.8285 34.7215 58.1518 37.023 60.5149 38.2531C61.2001 38.6109 60.8531 40.9906 60.7934 41.3462C60.3424 44.0525 57.4776 43.4688 55.7667 42.6032C53.9297 41.6728 55.6495 35.7414 53.0499 35.5625C50.1033 35.359 48.9317 36.6785 48.5029 36.5645C47.6628 36.3386 49.1682 35.019 51.2174 34.395C52.8598 33.8962 55.0261 34.0192 55.3268 34.2138Z" fill="#363537"/>
<path d="M56.5722 15.9229C55.4581 15.7373 54.9143 17.0949 54.3926 17.8396C54.2887 17.9872 54.5297 18.1751 54.6402 18.0342C55.1265 17.4214 55.5708 16.1264 56.528 16.245C56.707 16.2673 56.7512 15.9542 56.57 15.9229H56.5722Z" fill="#352D27"/>
<path d="M57.0707 17.0837C56.3191 17.153 55.8792 17.7412 55.4438 18.2981C55.3178 18.4592 55.5388 18.6873 55.6692 18.5263C56.0428 18.0588 56.4341 17.4885 57.0729 17.4102C57.2741 17.3856 57.2829 17.0635 57.0729 17.0837H57.0707Z" fill="#352D27"/>
<path d="M51.6884 23.9388C51.0474 24.7171 50.6119 25.7102 50.4329 26.7077C50.3953 26.9112 50.7025 27.0007 50.7445 26.7949C50.9302 25.86 51.3237 24.9162 51.9139 24.1669C52.0399 24.0081 51.8211 23.78 51.6884 23.9388Z" fill="#352D27"/>
<path d="M59.115 39.7514C59.1304 39.539 58.8099 39.5434 58.79 39.7514C58.7502 40.2032 58.8364 40.6572 58.8143 41.1113C58.8033 41.3148 58.779 41.5519 58.653 41.7196C58.4916 41.9343 58.2263 41.9343 57.9832 41.9164C57.771 41.9008 57.782 42.2184 57.9832 42.2452C59.4731 42.4331 59.0531 40.6572 59.115 39.7514Z" fill="#352D27"/>
<path d="M74.0381 29.452C73.8547 29.0673 73.6159 28.7139 73.3927 28.3539C73.2468 28.1168 72.9837 27.7835 72.997 27.4883C73.0058 27.2825 72.6919 27.2825 72.6809 27.4883C72.6654 27.7366 72.8025 27.9848 72.9196 28.1928C73.1031 28.5216 73.3153 28.8347 73.5054 29.159C73.6778 29.4498 73.8724 29.7696 73.9276 30.1118C73.9851 30.4674 73.7795 30.6173 73.4634 30.7045C73.26 30.7604 73.3463 31.0646 73.5496 31.0221C73.8724 30.9528 74.1774 30.7694 74.2526 30.4227C74.3233 30.0939 74.1796 29.745 74.0404 29.4543L74.0381 29.452Z" fill="#352D27"/>
<path d="M74.0569 33.3949C73.8735 33.1869 73.6413 33.0862 73.3982 32.9699C73.1042 32.8268 72.9539 32.6859 72.9959 32.3325C73.0158 32.1558 72.7085 32.1111 72.6842 32.29C72.6112 32.8156 72.8677 33.0795 73.3142 33.2897C73.5352 33.3926 73.8978 33.5492 73.953 33.8265C73.995 34.0457 73.6369 34.2224 73.5109 34.3633C73.3717 34.5199 73.5883 34.7435 73.7408 34.5959C73.9088 34.4326 74.152 34.2962 74.2492 34.0725C74.3576 33.8243 74.2227 33.5827 74.0591 33.3971L74.0569 33.3949Z" fill="#352D27"/>
<path d="M65.6083 18.3563C65.3275 18.0522 64.9694 17.9426 64.5693 17.9045C64.1184 17.8598 63.6785 17.8844 63.3668 17.4952C63.2319 17.3275 63.002 17.5646 63.1325 17.7323C63.7138 18.4726 64.7506 17.9605 65.3761 18.5889C65.5243 18.7388 65.7475 18.5106 65.606 18.3563H65.6083Z" fill="#352D27"/>
<path d="M77.7109 38.937C80.1889 39.277 88.0518 48.5856 98.0036 50.7461C107.955 52.9066 111.592 50.6276 111.592 50.6276L115.84 57.5922C106.103 64.8097 90.8923 61.0187 81.25 56.1586L77.7109 38.937Z" fill="#F3EB5D"/>
<path d="M117.172 78.4288C117.172 78.4288 123.185 59.2323 110.583 49.8252C107.93 47.8459 105.622 46.9132 100.045 46.9334C94.1054 46.9557 88.7604 52.5852 86.6604 56.3985C82.7698 63.4639 79.5469 78.4288 79.5469 78.4288H117.172Z" fill="#7FCBB4"/>
<path d="M110.066 78.4129C109.918 78.4129 109.801 78.2921 109.801 78.1445V67.2077C109.799 67.1562 109.465 60.6411 108.563 58.1048C108.512 57.9639 108.585 57.8096 108.724 57.7604C108.864 57.709 109.016 57.7828 109.065 57.9237C109.995 60.536 110.32 66.9259 110.336 67.1965V78.1468C110.336 78.2966 110.217 78.4151 110.071 78.4151L110.066 78.4129Z" fill="#539A85"/>
<path d="M90.4667 76.6708C90.334 76.6708 90.2191 76.5701 90.2036 76.4315C90.1395 75.8701 88.6297 62.6184 89.4918 57.9619C89.5183 57.8165 89.6576 57.7203 89.8035 57.7472C89.9472 57.774 90.0422 57.9149 90.0157 58.0625C89.1669 62.6385 90.7187 76.2347 90.7341 76.3711C90.7518 76.5187 90.6457 76.6529 90.4998 76.6708C90.4888 76.6708 90.4777 76.6708 90.4689 76.6708H90.4667Z" fill="#539A85"/>
<path d="M96.5559 49.1609C95.2208 50.6952 94.3697 55.3897 96.8057 55.515C102.533 55.8124 104.529 47.9419 102.995 47.4409C99.4893 46.2936 96.5559 49.1609 96.5559 49.1609Z" fill="#F1F2F2"/>
<path d="M96.3102 45.2357C96.3102 45.8351 95.9631 49.6596 96.9358 50.2054C99.7829 51.8023 102.997 48.4608 102.997 47.4432V44.1599L96.3124 45.2379L96.3102 45.2357Z" fill="#F1BBA2"/>
<path d="M91.74 30.2127C91.4615 27.2873 89.7705 24.845 88.3093 26.0706C86.8481 27.2963 85.177 28.5868 85.5329 30.2127C85.7318 31.123 90.4159 32.6103 90.4159 32.6103L91.74 30.2127Z" fill="#363537"/>
<path d="M88.8604 33.0667C88.783 33.0667 88.7056 33.0332 88.6526 32.9661C88.5597 32.8498 88.5796 32.6798 88.6924 32.5881C89.623 31.8299 90.0761 31.0203 90.0761 30.1145C90.0761 29.9646 90.1955 29.8461 90.3414 29.8461C90.4873 29.8461 90.6067 29.9668 90.6067 30.1145C90.6067 31.1791 90.0739 32.152 89.0239 33.0086C88.9753 33.0488 88.9156 33.069 88.8581 33.069L88.8604 33.0667Z" fill="#DE501D"/>
<path d="M89.6919 37.164C88.7657 37.3743 88.0804 37.6158 87.7002 37.2334C87.32 36.8487 87.7002 35.8579 87.7002 35.8579L88.9227 35.6588L89.6919 37.164Z" fill="#82512B"/>
<path d="M106.81 38.1593C105.93 44.2987 102.033 49.161 96.564 49.161C92.5232 49.161 89.8551 47.1145 89.4174 42.9299C89.3157 41.957 89.5102 40.6061 89.4373 40.0358C89.3157 39.0763 88.6172 38.0117 88.6172 37.0052C88.6172 30.8659 93.834 27.9203 99.3029 27.9203C104.772 27.9203 107.681 32.0848 106.81 38.1593Z" fill="#F1BBA2"/>
<path d="M95.0633 38.7117C95.0411 38.5127 95.5076 38.1123 96.1464 38.2644C96.783 38.4165 97.2561 38.8728 97.0483 38.998C96.8405 39.1233 96.3741 38.7341 95.9674 38.7811C95.5606 38.8258 95.0809 38.8526 95.0655 38.7117H95.0633Z" fill="#363537"/>
<path d="M91.9018 38.8281C91.9239 38.6291 91.4575 38.2287 90.8187 38.3808C90.182 38.5329 89.709 38.9892 89.9168 39.1144C90.1246 39.2397 90.591 38.8505 90.9977 38.8975C91.4045 38.9444 91.8841 38.969 91.8996 38.8281H91.9018Z" fill="#363537"/>
<path d="M94.2479 34.943C98.9033 34.4822 99.1664 36.3811 100.497 38.1592C101.83 39.9372 105.093 39.595 106.592 39.3557C107.102 39.2752 107.874 35.9159 107.661 33.9097C107.504 32.4224 107.591 29.6893 104.562 28.0968C101.534 26.5044 100.482 26.1465 97.5394 26.699C94.5994 27.2514 91.4052 35.2248 94.2457 34.943H94.2479Z" fill="#363537"/>
<path d="M102.164 30.3983C102.443 27.4728 105.274 24.9835 106.738 26.2092C108.201 27.4348 109.569 30.9171 108.811 31.4494C108.053 31.9818 103.488 32.7959 103.488 32.7959L102.164 30.3983Z" fill="#363537"/>
<path d="M103.942 32.874C102.654 32.874 102.123 32.0755 101.946 31.6998C101.637 31.0445 101.67 30.2438 102.021 29.915C102.13 29.8144 102.298 29.8211 102.397 29.9307C102.497 30.0403 102.49 30.2102 102.382 30.3109C102.258 30.4272 102.181 30.9528 102.424 31.4672C102.609 31.8608 103.111 32.4915 104.387 32.3014C104.53 32.2791 104.667 32.382 104.69 32.5296C104.712 32.6772 104.61 32.8136 104.464 32.836C104.276 32.8628 104.102 32.8762 103.94 32.8762L103.942 32.874Z" fill="#D9886B"/>
<path d="M87.3544 36.9336C88.9084 38.9756 89.5163 33.42 93.8357 34.4823C95.5223 34.8961 94.1982 31.9707 95.8053 30.8367C97.4101 29.7028 99.9699 27.1665 97.1846 26.7997C94.3994 26.4329 90.6282 28.0611 89.5804 29.8012C89.114 30.575 88.1502 31.6083 88.0109 33.004C87.8252 34.8871 86.9079 36.3454 87.3566 36.9336H87.3544Z" fill="#363537"/>
<path d="M92.5469 45.3723C92.5469 45.3723 93.031 46.4995 94.3219 46.5689C95.6129 46.6382 95.845 45.3835 95.845 45.3835C94.7088 45.7749 93.7251 45.8554 92.5469 45.3723Z" fill="#F1F2F2"/>
<path d="M96.0055 40.2729C95.78 40.3579 95.5523 40.7247 95.6606 41.266C95.7689 41.805 96.169 42.042 96.4188 41.8788C96.6686 41.7155 96.8477 40.9595 96.6907 40.6442C96.5338 40.3288 96.1491 40.2192 96.0033 40.2751L96.0055 40.2729Z" fill="#372313"/>
<path d="M90.9541 40.2818C90.733 40.3757 90.5186 40.7515 90.6491 41.2882C90.7795 41.8228 91.1862 42.042 91.4316 41.8697C91.6769 41.6953 91.8228 40.9349 91.6548 40.6262C91.4868 40.3176 91.0956 40.2236 90.9541 40.284V40.2818Z" fill="#372313"/>
<path d="M99.2639 32.7558C98.7135 32.1117 97.6834 31.9395 96.9185 32.2392C96.7329 32.313 96.8102 32.6149 97.0025 32.5456C97.7033 32.2929 98.5035 32.4606 99.034 32.9884C99.1843 33.1383 99.401 32.9146 99.2639 32.7558Z" fill="#251C16"/>
<path d="M100.312 29.7833C99.3729 29.5552 98.5063 29.667 97.6442 30.0987C97.4586 30.1926 97.6221 30.4722 97.8078 30.3805C98.6036 29.9891 99.3662 29.9287 100.228 30.0964C100.43 30.1367 100.518 29.8325 100.315 29.7833H100.312Z" fill="#251C16"/>
<path d="M104.075 35.8892C103.522 36.0726 102.833 35.4822 102.855 34.9096C102.864 34.7038 102.554 34.7061 102.541 34.9096C102.492 35.67 103.421 36.4976 104.161 36.2046C104.349 36.1285 104.276 35.8221 104.075 35.8892Z" fill="#251C16"/>
<path d="M91.1588 31.4585C90.6216 31.4071 90.0822 31.5883 89.7683 32.0535C89.6512 32.2257 89.5937 32.4225 89.5318 32.6193C89.4412 32.9078 89.3439 33.0398 89.03 33.0689C88.8267 33.089 88.82 33.3909 89.03 33.3954C89.4942 33.4021 89.7219 33.127 89.8546 32.7088C89.9319 32.4628 90.0049 32.2413 90.2016 32.0602C90.4624 31.8186 90.8183 31.7538 91.161 31.7739C91.3643 31.7851 91.3577 31.4764 91.161 31.4585H91.1588Z" fill="#251C16"/>
<path d="M93.7478 28.6473C93.3919 28.5556 93.1532 28.2917 92.7597 28.3409C92.3928 28.3879 92.101 28.6473 91.8755 28.9269C91.7473 29.0857 91.9595 29.316 92.1032 29.1572C92.3198 28.9224 92.5873 28.6406 92.9365 28.6741C93.1952 28.6988 93.4074 28.9067 93.6638 28.9582C93.8628 28.9984 93.949 28.6987 93.7478 28.6473Z" fill="#251C16"/>
<path d="M96.5597 49.3399C96.4624 49.3399 96.3828 49.2594 96.3828 49.161C96.3828 49.0626 96.4624 48.9821 96.5597 48.9821C98.107 48.9821 99.3958 48.6801 100.386 48.0852C100.47 48.0338 100.578 48.0628 100.629 48.1478C100.68 48.2328 100.651 48.3424 100.567 48.3939C99.5218 49.0223 98.1733 49.3399 96.5597 49.3399Z" fill="#C48976"/>
<path d="M97.5625 78.4889C97.5625 75.6149 101.53 70.0234 108.814 70.0234C116.098 70.0234 119.829 70.5379 119.829 70.5379V78.3815L97.5625 78.4889Z" fill="#7FCBB4"/>
<path d="M97.4374 72.0499C97.3313 72.0499 97.2296 71.985 97.1898 71.8777C97.1368 71.739 97.2053 71.5824 97.3424 71.5288C99.6082 70.652 108.147 69.735 110.071 69.7596C110.219 69.7596 110.336 69.8827 110.334 70.0325C110.334 70.1801 110.212 70.2987 110.068 70.2987C110.068 70.2987 110.066 70.2987 110.064 70.2987C108.223 70.2718 99.6988 71.1933 97.5347 72.032C97.5037 72.0432 97.4706 72.0499 97.4396 72.0499H97.4374Z" fill="#539A85"/>
<path d="M62.0491 73.7364H95.4657C97.4308 73.7364 99.0268 75.3512 99.0268 77.3395V77.8986H62.0469V73.7341L62.0491 73.7364Z" fill="#7C8CAF"/>
<path d="M90.9481 77.9008H54.1516L51.7333 50.2322C51.594 49.4337 51.9389 48.6979 52.7302 48.6979H87.199C87.8135 48.6979 88.3419 49.1497 88.4502 49.7714L90.9481 77.9008Z" fill="#7C8CAF"/>
<path d="M72.6486 59.1048C72.7459 60.639 71.6848 61.9564 70.2789 62.0481C68.873 62.1398 67.6528 60.9723 67.5533 59.438C67.4538 57.9037 68.5171 56.5864 69.923 56.4947C71.3289 56.403 72.5491 57.5705 72.6486 59.1048Z" fill="#DBDBDB"/>
<path d="M153 77.4644H11V83.3488H153V77.4644Z" fill="#DCBFA3"/>
<path d="M124.12 2.99985C124.12 2.99985 131.16 30.5812 131.16 36.0832C131.16 41.5852 127.918 39.4694 127.918 39.4694C127.918 39.4694 125.512 20.3176 124.675 18.1303C123.839 15.9429 124.361 14.1089 124.361 12.5925C124.361 11.0761 123.594 9.137 123.594 7.68994C123.594 6.24288 124.118 2.99985 124.118 2.99985H124.12Z" fill="#A7CBBD"/>
<path d="M127.971 63.6066C126.508 60.3031 124.206 53.2266 124.206 49.8047C124.206 46.3827 124.73 43.0816 124.206 41.1939C123.682 39.3062 120.742 26.7009 121.888 22.0645C122.602 19.1749 122.847 21.2101 122.847 21.2101C122.847 21.2101 127.449 28.5729 127.971 31.5207C128.493 34.4685 127.81 40.0152 128.495 41.6569C129.178 43.2985 130.378 47.2103 130.378 49.8069V63.2554L127.973 63.6088L127.971 63.6066Z" fill="#C2E8D8"/>
<path d="M133.932 19.9576L129.121 10.4029C129.121 10.4029 127.448 15.8288 127.448 17.598C127.448 19.3671 126.82 20.7828 126.82 22.552C126.82 24.3211 128.284 27.9779 128.284 31.0465C128.284 34.115 127.76 37.2977 127.76 39.8943C127.76 42.491 130.375 63.6065 130.375 63.6065H132.258L133.932 19.9598V19.9576Z" fill="#92BCAB"/>
<path d="M140.508 77.5269H125.379L123.385 60.4261C123.284 59.5606 123.953 58.8001 124.815 58.8001H140.99C141.85 58.8001 142.517 59.5561 142.42 60.4194L140.51 77.5269H140.508Z" fill="#E3AC69"/>
<path d="M141.592 72.4476H124.182L123.594 64.1947H142.145L141.592 72.4476Z" fill="#FCC583"/>
<path d="M28.882 70.9787C19.5823 70.9787 12.0156 63.3229 12.0156 53.9136C12.0156 48.6242 14.3809 43.7194 18.5079 40.4584C18.7179 40.2929 19.0186 40.3265 19.1866 40.5322L40.1137 66.0001C40.2839 66.2058 40.2596 66.5122 40.0606 66.6889C36.9769 69.4533 33.0068 70.9764 28.8798 70.9764L28.882 70.9787ZM18.7423 41.5454C15.086 44.6117 12.9993 49.0938 12.9993 53.9159C12.9993 62.7772 20.1238 69.9856 28.882 69.9856C32.6089 69.9856 36.201 68.6661 39.0504 66.2617L18.7423 41.5454Z" fill="#9CA8D3"/>
<path d="M28.8859 67.5678C36.3391 67.5678 42.3812 61.4546 42.3812 53.9135C42.3812 46.3725 36.3391 40.2593 28.8859 40.2593C21.4327 40.2593 15.3906 46.3725 15.3906 53.9135C15.3906 61.4546 21.4327 67.5678 28.8859 67.5678Z" fill="#68CCEB"/>
<mask id="mask0_2039_368" style="mask-type:luminance" maskUnits="userSpaceOnUse" x="15" y="40" width="99" height="99">
<path d="M64.6829 138.947C91.9063 138.947 113.975 116.855 113.975 89.6031C113.975 62.3513 91.9063 40.2593 64.6829 40.2593C37.4595 40.2593 15.3906 62.3513 15.3906 89.6031C15.3906 116.855 37.4595 138.947 64.6829 138.947Z" fill="white"/>
</mask>
<g mask="url(#mask0_2039_368)">
<path d="M22.2873 50.7285C20.1984 52.1555 17.5656 57.3242 20.1984 56.9328C22.8289 56.5414 24.069 54.7409 25.3069 56.6197C26.5448 58.4984 26.6775 59.8314 28.8946 59.8314C31.1118 59.8314 33.9899 61.5088 34.4408 61.0548C34.8896 60.6008 33.2803 57.8744 32.4293 55.2889C31.5782 52.7057 29.0228 50.1202 27.3207 49.4157C25.6186 48.7111 22.2896 50.7285 22.2896 50.7285H22.2873Z" fill="#F3C55C"/>
<path d="M30.2034 51.6657C29.2418 50.5988 28.1697 49.769 27.312 49.4157C25.6099 48.7111 22.2809 50.7285 22.2809 50.7285C21.3193 51.3861 20.2428 52.8354 19.6172 54.1706C20.8794 54.4435 20.9656 53.2916 23.2314 53.068C25.8619 52.8063 25.7072 52.8041 27.049 53.6405C28.3908 54.477 27.889 53.1731 28.8881 52.6497C29.527 52.3165 29.9669 51.9609 30.2034 51.6657Z" fill="#7DD2B1"/>
<path d="M20.5002 50.7286C19.0302 50.1985 18.1017 50.355 18.1017 48.5524C18.1017 46.7497 18.6654 46.2375 17.7259 46.2375C16.7865 46.2375 14.6953 50.3461 14.6953 51.5628C14.6953 52.7795 17.0893 52.7996 17.5977 52.2852C18.1062 51.7708 20.5002 50.7286 20.5002 50.7286Z" fill="#F3C55C"/>
<path d="M33.4248 39.7715C29.4768 39.7715 27.001 43.3053 29.7089 44.3229C32.4168 45.3405 32.8832 45.1728 34.508 46.2374C36.1327 47.2998 37.6801 48.6305 38.0691 47.6129C38.456 46.5953 40.0807 46.3604 40.0807 45.4993C40.0807 44.6383 34.0437 39.7737 33.4248 39.7737V39.7715Z" fill="#7CC8AA"/>
<path d="M27.3098 68.1315C26.8456 66.8791 26.8124 66.4877 28.5698 65.7831C30.3272 65.0786 30.5593 64.9221 32.0315 64.2175C33.5015 63.513 33.811 63.513 35.2832 63.513C36.7554 63.513 37.4495 65.1569 37.4495 65.1569C37.4495 65.1569 34.5449 66.973 34.326 67.1922C34.1072 67.4114 27.3098 68.1315 27.3098 68.1315Z" fill="#F1F2F2"/>
<path d="M20.0156 43.386C20.818 43.386 21.1762 43.7752 23.4221 42.9924C25.6657 42.2096 26.8661 40.3197 26.8661 40.3197L22.6484 41.0734L20.0178 43.386H20.0156Z" fill="#F1F2F2"/>
</g>
<path d="M36.7804 57.1228C37.1672 57.5142 37.1473 58.2389 37.5938 57.7893C38.0382 57.3398 37.5165 56.9081 38.2526 57.1228C38.9887 57.3375 39.4529 56.888 39.4529 56.2215C39.4529 55.555 39.4927 54.8505 38.7566 55.1256C38.0205 55.4007 37.5563 55.5953 37.092 55.8301C36.6278 56.0649 36.7826 57.1228 36.7826 57.1228H36.7804Z" fill="#DCF8C1"/>
<path d="M39.4531 58.2971C39.4531 57.8274 39.6786 57.5322 40.0721 57.9303C40.4655 58.3284 41.5045 59.2745 40.8082 59.0396C40.1119 58.8048 39.4553 58.2949 39.4553 58.2949L39.4531 58.2971Z" fill="#DCF8C1"/>
<path d="M38.4766 54.1863C38.4766 53.7949 39.2945 53.3745 39.7321 52.9339C40.1676 52.4933 39.8338 51.7597 40.2384 51.7597C40.6429 51.7597 40.6429 51.6411 40.6429 52.2293C40.6429 52.8176 40.9524 53.6004 40.4108 53.6004C39.8692 53.6004 39.7918 53.8352 39.4448 54.1886C39.0955 54.542 38.4766 54.1886 38.4766 54.1886V54.1863Z" fill="#F3C55C"/>
<path d="M29.0322 70.4823L31.477 75.4944H26.2734L29.0322 70.4823Z" fill="#9CA8D3"/>
<path d="M25.2474 74.6311H32.5046C33.9083 74.6311 35.0489 75.7852 35.0489 77.2054V77.6885H22.7031V77.2054C22.7031 75.7852 23.8438 74.6311 25.2474 74.6311Z" fill="#9CA8D3"/>
<path d="M111.729 50.7464C111.543 52.7258 108.915 53.8866 111.161 56.1589C111.791 56.7963 112.735 57.3532 113.491 57.228C114.85 57.0021 115.947 55.3448 115.86 54.4971C115.613 52.0906 112.637 49.4962 112.312 49.8249C111.987 50.1537 111.793 50.0777 111.729 50.7464Z" fill="#F1BBA2"/>
<path d="M110.771 55.6376C110.731 55.6376 110.691 55.6175 110.667 55.5795C110.631 55.5213 110.649 55.4453 110.706 55.4118C111.533 54.8973 112.543 53.7858 112.74 52.8911C112.935 52.001 113.288 50.6143 113.293 50.6009C113.31 50.536 113.377 50.4958 113.441 50.5137C113.505 50.5316 113.545 50.5964 113.527 50.6635C113.523 50.6769 113.171 52.0591 112.977 52.947C112.764 53.92 111.721 55.0718 110.832 55.6242C110.813 55.6376 110.79 55.6421 110.768 55.6421L110.771 55.6376Z" fill="#C99565"/>
<path d="M111.411 56.3802C111.353 56.3802 111.302 56.34 111.291 56.2818C111.278 56.2147 111.322 56.1521 111.386 56.1387C111.997 56.0179 113.312 54.8079 113.553 54.2376C113.809 53.6315 114.342 51.802 114.342 51.5872C114.342 51.5202 114.397 51.4642 114.464 51.4642C114.53 51.4642 114.585 51.5202 114.585 51.5872C114.585 51.8758 114.013 53.7791 113.778 54.3338C113.531 54.9197 112.178 56.2326 111.435 56.378C111.428 56.378 111.42 56.3802 111.413 56.3802H111.411Z" fill="#C99565"/>
<path d="M112.692 56.9885C112.641 56.9885 112.595 56.9572 112.577 56.9058C112.555 56.8409 112.588 56.7716 112.652 56.7492C113.448 56.4674 114.368 55.4565 114.6 54.9107C114.839 54.3516 115.25 53.0253 115.252 53.0119C115.272 52.947 115.34 52.9113 115.404 52.9314C115.469 52.9515 115.504 53.0208 115.484 53.0857C115.466 53.1416 115.064 54.4366 114.823 55.0069C114.578 55.5862 113.618 56.6687 112.732 56.9818C112.719 56.9863 112.705 56.9885 112.692 56.9885Z" fill="#C99565"/>
<path d="M49.2726 77.6661L37.3535 77.7018L37.3384 72.5689L49.2576 72.5332C49.7151 72.5318 50.0876 72.9064 50.089 73.3694L50.0991 76.8226C50.1005 77.2856 49.7302 77.6625 49.2726 77.6638L49.2726 77.6661Z" fill="#6683C2"/>
<path d="M41.0449 76.2611L41.0382 73.9596C41.0382 73.7024 40.8592 73.4922 40.6381 73.4922L27.0368 73.5347C27.0235 73.5347 27.0102 73.5257 27.0036 73.5123C26.882 73.2439 26.8864 72.9465 27.0036 72.6266C27.0102 72.611 27.0213 72.602 27.0368 72.602L41.3897 72.5573C41.6086 72.5573 41.7876 72.7653 41.7898 73.0248L41.8031 77.2228C41.8031 77.48 41.6262 77.6902 41.4052 77.6925L27.1296 77.7372C27.0633 77.7372 27.0036 77.6902 26.9815 77.6164C26.9063 77.3838 26.913 77.1445 26.9837 76.8963C27.0058 76.8225 27.0655 76.7732 27.1318 76.7732L40.647 76.733C40.8658 76.733 41.0449 76.5227 41.0449 76.2633V76.2611Z" fill="#92AEEA"/>
<path d="M29.6387 74.2727L27.4724 74.2794C27.5122 74.1654 27.5653 74.1654 27.6272 73.3669L40.9544 73.3267C41.0031 73.3267 41.0185 73.5369 41.0208 73.5928L41.0296 76.7486C41.0296 76.8045 27.5586 76.7978 27.5586 76.7978C27.4525 76.0374 27.426 76.0016 27.3906 75.6728L28.6882 75.6393L27.4216 75.6438C27.3862 75.6438 27.4017 74.814 27.4547 74.4002L29.6387 74.2705V74.2727Z" fill="#E6E6E6"/>
<path d="M40.7252 74.4652L40.7297 75.9659L40.7319 76.3014L40.1483 76.1359L39.5669 76.3059V75.9704L39.5625 74.4697L40.7252 74.4652Z" fill="#F3C55C"/>
<path d="M124.808 53.1417C124.426 56.1231 121.588 58.136 118.654 57.6663C115.721 57.1966 113.718 54.4076 114.185 51.4397C114.649 48.4718 117.405 46.4454 120.339 46.9174C123.272 47.3893 125.094 50.9186 124.811 53.144L124.808 53.1417Z" fill="#FCDCB5"/>
<path d="M132.975 64.6533C133.682 71.3451 133.837 77.9049 124.979 77.9049C118.226 77.9049 116.425 72.866 116.796 65.1587C117.161 57.5924 119.347 49.7398 123.428 51.7102C127.95 53.8931 132.259 57.9011 132.975 64.6533Z" fill="#FCDCB5"/>
<path d="M117.941 57.465C117.899 57.465 117.855 57.4539 117.815 57.4315C117.693 57.3599 117.651 57.2034 117.722 57.0803C119.32 54.2712 120.998 53.4235 122.72 52.7369C124.499 52.0279 125.079 52.4037 125.178 52.4864L124.853 52.8823C124.853 52.8823 124.857 52.8868 124.866 52.8912C124.862 52.889 124.407 52.6161 122.908 53.2133C121.274 53.8642 119.68 54.6693 118.164 57.3353C118.118 57.4181 118.031 57.465 117.943 57.465H117.941Z" fill="#9E614B"/>
<path d="M138.197 91.349C138.177 91.349 138.158 91.349 138.135 91.349C137.373 91.3154 136.783 90.6624 136.816 89.893C136.816 89.8684 136.924 87.2918 136.796 84.5386C136.575 79.8083 135.761 78.9808 135.136 78.6497C134.207 78.198 130.414 77.5986 126.784 77.281C126.024 77.2139 125.462 76.5362 125.529 75.769C125.595 74.9997 126.265 74.4316 127.023 74.4987C128.953 74.6686 135.379 75.2927 137.101 76.2253C138.007 76.7151 138.615 77.7931 139.013 79.6182C139.267 80.779 139.444 82.2819 139.539 84.0846C139.698 87.0906 139.579 89.8975 139.574 90.016C139.541 90.7652 138.931 91.3512 138.195 91.3512L138.197 91.349Z" fill="#FCDCB5"/>
<path d="M115.104 51.3324L113.325 49.0131C113.135 48.7649 113.331 48.407 113.639 48.4383L116.488 48.7291L115.104 51.3324Z" fill="#FCDCB5"/>
<path d="M121.726 47.6576L120.707 45.4792C120.641 45.2913 120.378 45.2935 120.314 45.4792L119.414 47.4362L121.726 47.6554V47.6576Z" fill="#FCDCB5"/>
<path d="M119.204 65.1812C118.326 65.0671 117.663 64.2911 117.701 63.3808C117.754 62.0925 117.128 61.4126 116.593 61.0682C115.919 60.6343 115.276 60.6477 115.108 60.726C114.356 61.3008 113.284 61.1599 112.705 60.4039C112.121 59.6435 112.26 58.5498 113.012 57.9616C114.248 56.9954 116.242 56.9529 117.975 57.8587C120.061 58.9479 121.246 61.0682 121.145 63.5284C121.105 64.4901 120.302 65.2349 119.352 65.1946C119.301 65.1946 119.252 65.1879 119.204 65.1812Z" fill="#FCDCB5"/>
<path d="M121.9 75.2704C121.537 75.2704 115.635 74.9147 115.618 76.5407C115.598 78.1667 116.374 77.876 118.535 77.876C120.697 77.876 124.099 77.8961 124.099 77.8961L121.9 75.2704Z" fill="#FCDCB5"/>
</g>
<defs>
<clipPath id="clip0_2039_368">
<rect width="130" height="83" fill="white"/>
</clipPath>
</defs>
</svg>
