<svg width="279" height="313" fill="none" xmlns="http://www.w3.org/2000/svg"><path d="M110.72 2.496c1.897-1.961 4.751-2.79 7.43-2.403 5.515.69 10.101 4.355 15.561 5.257 6.601 1.059 13.249-1.123 19.851-.01 3.959.747 7.605 2.956 10.128 6.087 1.104 1.363 1.906 2.937 2.826 4.42 0-1.74.028-3.536-.635-5.175-.562-1.437-1.703-2.523-2.606-3.738 2.044.69 3.37 2.596 3.932 4.594.598 2.09.313 4.29.129 6.427 2.642-.553 6.251-1.234 7.973 1.464-1.151-.323-2.246-.792-3.425-1.022-1.197-.23-2.421.037-3.591.267 1.915 1.16 4.005 2.21 5.368 4.06 2.744 3.527 3.112 8.222 2.799 12.522-.515 6.27-2.118 12.448-4.41 18.304a21.835 21.835 0 0 0-2.274-1.73c-1.059-.7-2.311-1.069-3.573-1.16-2.09-.185-4.18-.323-6.261-.553.074-4.788 0-9.852-2.403-14.152-1.022-1.768-2.458-3.563-4.502-4.125-1.823-.257-3.674.175-5.515-.009-4.512-.424-8.784-2.1-12.845-4.005-1.703-.912-3.379.488-5.036.82-4.788 1.15-9.824-.157-14.143-2.293a23.89 23.89 0 0 1-4.005-3.821c-1.657-1.98-2.311-4.54-3.425-6.814.083 1.547.23 3.15 1.022 4.521.718 1.492 1.943 2.707 2.449 4.29.037 1.842-.828 3.564-1.335 5.313-1.648-1.464-3.204-3.121-4.005-5.22-1.096-2.79-1.832-5.93-1.013-8.885.313-1.151.682-2.284.967-3.435-1.869 1.713-2.201 4.365-2.293 6.75-.101 4.235 1.98 8.313 5.147 11.048.765.599 1.151 1.547.82 2.495-.359 1.86-1.437 3.444-2.32 5.083-1.446-1.759-2.44-3.812-3.518-5.8-1.933-3.74-3.508-7.836-3.452-12.108.018-2.836 1.003-5.755 3.093-7.735 1.151-1.141 2.68-1.758 4.134-2.394.304-2.568 1.032-5.248 2.956-7.098v-.037Zm1.298 3.268c1.63 1.013 3.573 1.363 5.202 2.367 2.063 1.243 4.005 2.688 5.828 4.263a513.555 513.555 0 0 0 9.981 8.397c3.048 2.513 6.547 4.4 10.055 6.178 2.228 1.141 4.741 1.758 7.246 1.537.617-.036 1.114-.432 1.629-.709-2.347-.359-4.76-.45-7.015-1.252-4.162-1.289-7.597-4.07-11.059-6.601-4.944-3.398-8.912-8.048-14.022-11.224-2.376-1.5-4.981-2.882-7.863-2.956h.018Zm.046 8.536c.405 1.97 1.519 3.683 2.827 5.174 2.937 3.545 7.264 5.672 11.693 6.685 1.418.22 3.287.497 4.171-.949-2.053-.184-4.152-.018-6.141-.644-3.232-.976-5.967-3.076-8.471-5.267-1.676-1.4-2.643-3.407-4.088-5h.009Zm54.36 8.305c1.547 1.26 3.435 2.145 4.696 3.738 1.206 1.298 1.556 3.176 2.891 4.382-.166-1.98-.985-3.858-2.265-5.386-1.298-1.584-3.14-3.066-5.331-2.744l.009.01Zm-6.427 8.111c.553 3.195 3.14 5.405 5.424 7.458 2.292 2.063 5.46 3.287 8.562 2.735-1.27-.847-2.872-.728-4.253-1.27-3.333-1.244-6.234-3.702-7.882-6.87-.423-.837-.976-1.638-1.851-2.053Z" fill="#58301F"/><path d="M112.01 5.771c2.872.074 5.487 1.455 7.863 2.956 5.11 3.177 9.078 7.817 14.023 11.224 3.462 2.541 6.896 5.312 11.058 6.601 2.255.802 4.668.893 7.016 1.253-.516.285-1.022.672-1.63.709-2.505.22-5.018-.396-7.246-1.538-3.508-1.777-7.007-3.655-10.064-6.178a510.926 510.926 0 0 1-9.981-8.397c-1.823-1.575-3.765-3.02-5.828-4.263-1.639-.995-3.572-1.354-5.202-2.367h-.009Z" fill="#341707"/><path d="M103.864 19.022c.102-2.393.424-5.045 2.293-6.749-.285 1.151-.654 2.284-.967 3.435-.828 2.955-.083 6.095 1.013 8.885.801 2.1 2.357 3.756 4.005 5.22.507-1.749 1.363-3.462 1.335-5.312-.497-1.584-1.731-2.8-2.449-4.29-.783-1.373-.93-2.975-1.022-4.522 1.114 2.275 1.768 4.834 3.425 6.814a23.865 23.865 0 0 0 4.005 3.82c-2.716 4.927-4.097 10.433-5.183 15.911-1.078-1.427-2.238-2.882-2.818-4.594.884-1.64 1.961-3.223 2.32-5.083.332-.948-.055-1.897-.819-2.495-3.167-2.735-5.248-6.813-5.147-11.049l.009.01Z" fill="#3A1807"/><path d="M112.053 14.299c1.445 1.602 2.412 3.6 4.088 5 2.504 2.19 5.239 4.29 8.471 5.266 1.988.626 4.088.46 6.141.644-.884 1.446-2.753 1.16-4.171.949-4.429-1.004-8.756-3.13-11.693-6.685-1.317-1.491-2.431-3.204-2.827-5.174h-.009Z" fill="#381906"/><path d="M166.426 22.604c2.191-.332 4.033 1.15 5.331 2.743 1.27 1.52 2.09 3.407 2.265 5.386-1.335-1.206-1.685-3.075-2.891-4.382-1.262-1.602-3.149-2.477-4.696-3.738l-.009-.01Z" fill="#39190A"/><path d="M115.502 26.323c4.318 2.145 9.354 3.444 14.142 2.293 1.658-.332 3.333-1.731 5.037-.82 4.06 1.915 8.341 3.582 12.853 4.006 1.832.184 3.683-.25 5.515.009 2.054.561 3.49 2.357 4.503 4.124 2.394 4.3 2.476 9.364 2.403 14.152-2.569-.24-5.193-.377-7.615-1.353-2.771-1.087-5.515-2.459-8.544-2.578-3.904-.203-8.029-.148-11.629 1.565-1.51.672-2.449 2.08-3.241 3.471a59.26 59.26 0 0 0-4.779-.212c-1.371-1.933-3.259-3.526-5.57-4.18-2.679-.902-5.561-.976-8.36-.773l.23-.074c1.446-.497 2.983-.829 4.502-.552 1.713.22 3.315 1.058 5.055 1.04 1.354 0 2.376-1.786 1.437-2.863-1.188-1.216-2.928-1.63-4.54-1.98-2.246-.488-4.548-.037-6.629.847l.055-.23c1.078-5.478 2.459-10.984 5.184-15.91l-.009.018Zm23.046 14.842c-1.547.323-3.186.654-4.429 1.676-1.206 1.04-.101 3.287 1.436 3.149 2.542-.12 4.991-1.013 7.541-.94 1.86-.082 3.6.664 5.432.866.838.12 1.759-.442 1.888-1.316-.166-1.013-1.086-1.658-1.924-2.109-3.039-1.556-6.602-1.924-9.944-1.335v.01Z" fill="#F5A288"/><path d="M159.99 30.715c.875.414 1.427 1.215 1.851 2.053 1.648 3.167 4.548 5.617 7.881 6.869 1.381.543 2.984.423 4.254 1.27-3.103.553-6.27-.663-8.563-2.734-2.283-2.063-4.87-4.263-5.423-7.458Z" fill="#391A0A"/><path d="M138.549 41.166c3.342-.58 6.905-.221 9.944 1.335.838.451 1.758 1.096 1.924 2.108-.129.866-1.05 1.427-1.888 1.317-1.823-.203-3.572-.948-5.432-.865-2.559-.083-5.009.819-7.541.939-1.528.138-2.642-2.109-1.436-3.15 1.243-1.021 2.882-1.362 4.429-1.675v-.01Z" fill="#562F1E"/><path d="M110.271 42.463c2.081-.884 4.383-1.335 6.629-.847 1.612.35 3.352.764 4.54 1.98.939 1.068-.083 2.863-1.437 2.863-1.749.019-3.342-.82-5.055-1.04-1.519-.276-3.066.055-4.502.552-.93-1.031-.709-2.338-.166-3.499l-.009-.009Z" fill="#542D1C"/><path d="M103.852 48.294c2.109-.783 4.153-1.768 6.353-2.265 2.79-.203 5.672-.13 8.36.773 2.311.663 4.19 2.256 5.571 4.18 1.602 0 3.186.074 4.778.212.792-1.381 1.731-2.8 3.241-3.471 3.6-1.713 7.725-1.768 11.629-1.566 3.029.13 5.773 1.492 8.545 2.579 2.421.976 5.045 1.114 7.614 1.353 2.081.23 4.171.368 6.261.553 1.271.092 2.504.46 3.572 1.16a29.87 29.87 0 0 0-4.327.709c-2.007-.056-3.987-.396-5.985-.571-1.887.009-4.125-.93-5.754.387-1.197.856-1.096 2.467-1.326 3.765-.451 3.26-1.298 6.795-3.858 9.079-2.808 2.394-6.832 2.716-10.331 2.044-2.909-.553-5.404-2.55-6.749-5.156-1.362-2.229-1.74-4.843-2.43-7.32-.507-1.897-3.076-2.127-4.54-1.206-.727 1.38-1.445 2.762-2.265 4.088.221-2.348.645-4.89-.506-7.08-3.609-3.279-9.263-3.941-13.682-2.008.626.157 1.261.322 1.897.479l-.056 1.832c-1.418-.083-2.826-.184-4.244-.285-.571 3.13-.424 6.399.479 9.456.497 1.694 1.629 3.148 3.056 4.161.7.332 1.428.617 2.173.847 1.326.24 2.689.341 4.024.148 1.492-.221 2.79-1.032 4.106-1.731-.34.847-.662 1.694-.994 2.54-2.854.903-5.966 1.115-8.83.12-2.044-.91-3.729-2.605-4.576-4.686-1.114-2.44-1.206-5.165-1.335-7.808.065-1.491-1.703-2.394-1.381-3.922-.11-.884.902-1.068 1.51-1.39Zm27.521 2.633c-1.142 2.56-.221 5.487.58 8.029.893 3.416 3.72 6.196 7.209 6.85 3.186.322 6.896-.074 9.023-2.762 2.33-3.177 2.744-7.32 2.523-11.15l-.202-.019c-.332-.957-.719-2.007-1.676-2.504-2.744-1.565-6.049-1.768-9.143-1.584-2.928.258-6.408.608-8.314 3.14Z" fill="#435A8C"/><path d="M108.006 48.532c4.41-1.925 10.063-1.262 13.682 2.007-1.05.93-2.072 1.878-3.094 2.817-1.289-.451-2.651-.718-4.014-.598-1.703.211-4.015 1.675-3.48 3.655 1.463.387 2.504-1.004 3.452-1.878.939.129 1.879.248 2.799.488.12.092.369.276.488.368-2.458 3.02-4.235 6.5-6.528 9.63a16.342 16.342 0 0 1-2.173-.846c.221-4.447.461-8.894.709-13.332l.056-1.833c-.636-.156-1.271-.322-1.897-.478Z" fill="#FBCDC0"/><path d="M131.372 50.927c1.897-2.532 5.387-2.882 8.314-3.14-1.04 2.127-2.458 4.042-3.277 6.27a27.23 27.23 0 0 1-1.381 2.026c-.884 1.105-1.971 2.016-3.085 2.873-.801-2.542-1.712-5.47-.58-8.03h.009Z" fill="#F5AF9B"/><path d="M139.688 47.785c3.094-.184 6.399.018 9.143 1.584.957.497 1.344 1.546 1.676 2.504-.645-.083-1.28-.203-1.916-.285-.929 1.04-1.841 2.09-2.753 3.148-.883-.635-1.767-1.289-2.706-1.85l-.314-.056c-2.219-.552-4.502.056-6.408 1.225.82-2.228 2.238-4.152 3.278-6.27Z" fill="#FACABE"/><path d="M121.685 50.54c1.151 2.181.728 4.732.507 7.08-.958 1.924-1.925 3.839-2.753 5.828-1.308.7-2.606 1.51-4.107 1.73-1.335.194-2.698.093-4.023-.147 2.292-3.13 4.069-6.61 6.528-9.63.939.782 1.924 1.51 3.001 2.09.35-1.483-.525-2.726-1.602-3.637a11.398 11.398 0 0 0-.672-.488c1.031-.949 2.053-1.897 3.094-2.818l.027-.009Z" fill="#FAB5A1"/><path d="M148.58 51.588c.635.083 1.271.203 1.915.285l.203.019c.221 3.82-.194 7.973-2.523 11.15-2.127 2.688-5.847 3.084-9.032 2.762 1.721-3.103 3.305-6.289 5.239-9.272.488-.055.985-.11 1.482-.156-.018-.553-.037-1.096-.046-1.64a220.772 220.772 0 0 1 2.753-3.148h.009Z" fill="#F9B7A5"/><path d="M153.701 52.326c1.639-1.317 3.876-.378 5.754-.387 0 2.2-.423 4.374-.755 6.547.258.082.764.267 1.013.35 1.685-2.293 3.388-4.641 5.718-6.326 1.418-.35 2.873-.562 4.327-.709a23.072 23.072 0 0 1 2.274 1.73c2.164 2.44 2.477 6.013 1.667 9.07-.902 3.223-2.642 6.307-5.285 8.416-1.446 1.178-3.278 1.942-5.156 1.924-.727-.028-1.446-.101-2.164-.157 0 1.695.046 3.398.194 5.092.478 6.187.626 12.402 1.252 18.58.018 3.858.663 7.689.663 11.546a20.24 20.24 0 0 1-2.413 5.322c-4.106 5.028-10.183 8.397-16.637 9.125-4.457.543-9.189 0-13.084-2.376-2.2-1.307-3.83-3.526-4.392-6.021-.469-2.063-.248-4.18-.101-6.261 2.136-.037 4.3.027 6.39-.479 5.69-1.363 11.058-4.088 15.376-8.056 4.641-4.319 8.646-9.493 10.819-15.496.313-.93.46-1.906.617-2.864-1.28 1.842-2.137 3.95-3.49 5.745-2.698 3.527-5.865 6.814-9.824 8.913-6.114 3.287-13.342 4.659-20.192 3.269l-.258-.037c-2.375-.958-4.852-1.87-6.767-3.637-3.941-3.315-6.086-8.185-7.569-13-1.058-3.546-1.556-7.228-2.016-10.884-.23-1.712-.285-3.453-.046-5.174 2.864.994 5.976.782 8.83-.12.81 2.2 2.541 4.29 4.963 4.677 1.666-.027 3.241-.644 4.861-.957-.129-.368-.267-.728-.405-1.087-1.602.212-3.121.921-4.742.94-1.777-.654-3.784-2.707-2.725-4.706 1.639-3.646 4.309-7.117 4.042-11.324 1.464-.912 4.023-.691 4.539 1.206.691 2.477 1.059 5.082 2.431 7.32 1.353 2.605 3.848 4.603 6.749 5.156 3.499.672 7.522.35 10.33-2.044 2.56-2.275 3.416-5.81 3.858-9.079.24-1.298.138-2.91 1.326-3.766l.028.019Zm13.663 6.095c-2.541 2.08-4.64 4.981-5.082 8.305 1.473-1.445 1.51-3.904 3.416-4.963.58 1.446.911 3.002 1.795 4.31.35-1.888-.35-3.693-1.234-5.313 1.271-1.114 2.643-2.109 3.923-3.223-.995.083-2.053.175-2.818.884Zm-40.466 15.524c-2.854.313-5.782.018-8.544.939-.829.764-1.685 1.675-1.556 2.91.129 4.391 2.872 8.59 6.758 10.606 3.628 1.63 7.992 1.667 11.509-.267 2.808-1.464 4.816-4.134 5.902-7.062.644-2.43 1.123-5.165-.313-7.412l-.221.184c-.829-.488-1.74-.838-2.716-.764-3.619.065-7.21.599-10.819.866Z" fill="#F5A48A"/><path d="M159.455 51.938c1.998.174 3.977.515 5.985.57-2.33 1.685-4.033 4.042-5.718 6.326-.258-.083-.764-.267-1.013-.35.331-2.173.746-4.346.755-6.547h-.009Z" fill="#4F2A19"/><path d="M114.581 52.758c1.363-.129 2.725.148 4.014.599.221.147.451.313.663.488-.635.386-1.27.782-1.896 1.178-.921-.24-1.87-.359-2.8-.488.433-.561.829-1.15 1.216-1.74-.295-.01-.902-.037-1.197-.037Z" fill="#6E6868"/><path d="M136.416 54.056c1.915-1.16 4.19-1.777 6.409-1.224-.516-.055-1.041-.101-1.556-.148-.332.7-.663 1.4-.986 2.1.175 0 .534-.019.709-.028-1.915.203-3.517 1.317-4.99 2.459-.322-.387-.645-.765-.967-1.142.497-.654.939-1.335 1.381-2.026v.01Z" fill="#726462"/><path d="M111.11 56.413c-.534-1.98 1.777-3.443 3.48-3.655.304 0 .902.027 1.197.037-.396.589-.783 1.178-1.215 1.74-.949.875-1.998 2.265-3.462 1.878Z" fill="#524945"/><path d="M140.285 54.785c.322-.7.654-1.4.985-2.1.516.047 1.032.093 1.556.148l.313.055c-.257.608-.506 1.215-.764 1.832-.46.01-.921.028-1.381.046-.175 0-.534.019-.709.028v-.01Z" fill="#29150D"/><path d="M143.13 52.887c.939.561 1.814 1.215 2.707 1.85.018.544.037 1.087.046 1.64-.497.054-.994.1-1.482.156-.673-.617-1.354-1.215-2.026-1.814.249-.608.506-1.215.764-1.832h-.009Z" fill="#796B6F"/><path d="M232.037 14.905c.285-.285.7-.387 1.077-.534.166 1.547.203 3.103.157 4.659-.442 0-.884 0-1.317.01-.037-1.382-.221-2.781.083-4.135ZM221.393 18.635c1.418.506 2.614 1.519 3.406 2.79.221.423-.027.93-.009 1.38-1.409-1.113-3.075-2.264-3.388-4.17h-.009ZM243.131 28.47a42.462 42.462 0 0 1 4.594-.018v1.058a42.296 42.296 0 0 1-4.585-.018V28.47h-.009ZM242.439 19.153c.396-.322 1.031-.645 1.354-.037-.617 1.335-1.704 2.44-2.947 3.213-.377-.138-.736-.322-1.086-.488.874-.911 1.694-1.896 2.679-2.688ZM226.518 24.518c3.369-3.26 9.373-3.13 12.512.386 2.293 2.394 2.809 6.096 1.768 9.18-.589 1.676-1.989 2.845-2.928 4.3-.856 1.344-.847 2.992-1.031 4.511-1.436.083-2.863.166-4.3.184a220.57 220.57 0 0 0-4.272.093c-.249-1.41-.295-2.873-.773-4.227-.571-1.261-1.612-2.228-2.339-3.388-2.247-3.37-1.786-8.397 1.372-11.049l-.009.01Zm.175 1.61c-1.722 1.944-2.063 4.835-1.188 7.229.607 1.657 1.915 2.89 2.845 4.355.782 1.187.957 2.633 1.188 4.005.451.046.893.092 1.353.147.175-2.596-.12-5.193-.221-7.79-1.059-.377-2.808-.598-2.771-2.062-.24-1.362 1.777-2.246 2.651-1.197.507.636.636 1.483.894 2.238.81-.11 1.62-.23 2.43-.35.396-.82.654-1.786 1.381-2.385.811-.276 1.925.092 2.017 1.05.313 1.445-1.418 1.86-2.385 2.375-.304 2.726-.341 5.479-.35 8.222.212.019.626.056.829.065.276-1.344.442-2.744 1.086-3.978.857-1.5 2.274-2.614 3.002-4.198 1.317-2.873.488-6.528-1.842-8.637-3.029-2.817-8.369-2.301-10.929.893l.01.019Zm2.172 5.23c.139.719.479 1.363 1.179 1.658.018-.34.064-1.013.092-1.354l-1.271-.303Zm2.938 2.505a61.469 61.469 0 0 0 .377 7.928c.295.009.902.036 1.197.055.055-2.68.212-5.35.35-8.029-.654.018-1.289.028-1.934.046h.01Z" fill="#FFF2E0"/><path d="M226.696 26.13c2.559-3.205 7.909-3.711 10.929-.894 2.329 2.1 3.167 5.764 1.841 8.637-.727 1.584-2.145 2.698-3.011 4.199-.644 1.224-.81 2.633-1.086 3.977a23.352 23.352 0 0 0-.829-.064c0-2.744.046-5.497.35-8.223.967-.515 2.698-.93 2.385-2.375-.092-.958-1.206-1.326-2.017-1.05-.736.599-.994 1.566-1.381 2.385-.81.12-1.62.23-2.43.35-.267-.755-.387-1.593-.894-2.238-.865-1.05-2.891-.165-2.651 1.198-.037 1.463 1.712 1.684 2.771 2.062.101 2.596.396 5.184.221 7.79-.46-.056-.911-.102-1.353-.148-.231-1.372-.415-2.817-1.188-4.005-.93-1.464-2.237-2.707-2.845-4.355-.884-2.394-.534-5.285 1.188-7.228v-.018Z" fill="#FFD08E"/><path d="M216.955 28.892c1.593-.248 3.213-.248 4.806-.12 0 .268-.009.802-.018 1.078-1.289.037-2.587.184-3.867 0-.47-.101-.626-.644-.921-.958Z" fill="#FFF2E0"/><path d="M228.867 31.36c.415.1.838.202 1.271.303-.019.34-.065 1.013-.092 1.354-.7-.295-1.031-.949-1.179-1.658ZM235.26 33.017a61.491 61.491 0 0 0-.092-1.354l1.271-.304c-.139.718-.479 1.363-1.179 1.658ZM231.797 33.864c.635-.018 1.28-.027 1.933-.046-.138 2.67-.303 5.35-.349 8.03-.295-.02-.894-.038-1.197-.056a61.627 61.627 0 0 1-.378-7.928h-.009Z" fill="#FFD08E"/><path d="M227.91 43.182h.35c1.427-.046 2.845-.083 4.272-.101 1.455-.01 2.91.073 4.365.147 0 .258-.028.773-.037 1.031a319.71 319.71 0 0 1-8.922.037c0-.285-.019-.838-.028-1.123v.01Z" fill="#5F8FBB"/><path d="M227.957 45.327c3.002-.258 6.012-.267 9.023-.34 0 .285-.027.856-.037 1.141-2.992.24-5.984.368-8.986.322v-1.123Z" fill="#5E89B2"/><path d="M228.096 47.133c2.771 0 5.699.101 8.498 0-.028.248-.387.653-.414.902-.313.451-.58 1.372-1.087 1.492-.893.359-3.664.368-4.889.12-1.547-.387-.258-.912-1.62-1.695l-.488-.81v-.01Z" fill="#5F88AF"/><path d="M122.195 57.61c.82-1.326 1.547-2.707 2.265-4.088.258 4.207-2.412 7.678-4.042 11.325-1.059 1.998.939 4.05 2.726 4.704 1.611-.018 3.139-.727 4.741-.939.129.36.267.719.405 1.087-1.62.313-3.194.93-4.861.957-2.431-.386-4.153-2.477-4.972-4.677.331-.847.654-1.703.994-2.541.829-1.98 1.796-3.904 2.753-5.829h-.009Z" fill="#D0684F"/><path d="M117.359 55.022c.626-.405 1.262-.791 1.897-1.178 1.068.911 1.943 2.154 1.602 3.637-1.077-.58-2.062-1.317-3.001-2.09-.12-.093-.369-.267-.488-.369h-.01Z" fill="#2F1B15"/><path d="M140.997 54.765c.461-.019.921-.037 1.381-.046.682.598 1.354 1.206 2.035 1.814-1.933 2.983-3.517 6.169-5.239 9.271-3.489-.663-6.316-3.443-7.209-6.85 1.114-.856 2.21-1.768 3.084-2.873.323.378.645.755.967 1.142 1.473-1.15 3.075-2.256 4.99-2.458h-.009Z" fill="#FBCDC1"/><path d="M167.358 58.421c.764-.709 1.823-.801 2.817-.884-1.28 1.114-2.651 2.109-3.922 3.223.884 1.62 1.593 3.425 1.234 5.312-.875-1.307-1.216-2.863-1.796-4.309-1.906 1.06-1.942 3.527-3.416 4.963.433-3.324 2.542-6.224 5.083-8.305Z" fill="#C76246"/><path d="M40.845 67.112c1.584-.498 3.333-1.17 4.99-.562 1.833.737 2.837 2.569 3.564 4.29-4.3-.184-8.416 1.345-12.522 2.376a9.007 9.007 0 0 0-3.241 1.51c5.064-.746 9.898-2.799 15.026-3.121 2.606-.13 3.343 2.937 3.407 4.99a61.925 61.925 0 0 0-14.723 2.56c1.29.064 2.579.055 3.85-.166 3.185-.58 6.398-1.077 9.63-1.307 1.298-.046 2.882-.083 3.766 1.05.967 1.169.746 2.78.727 4.189-3.057-.396-6.16-.184-9.198.285-1.068.166-2.09.552-3.075.985 3.443.147 6.832-.966 10.275-.598.912.073 1.897.561 2.053 1.565.654 3.002-.018 6.104-.709 9.042-.23.46-.727.69-1.215.773-1.74.203-3.49.332-5.23.552v-3.48c1.05.285 2.1.58 3.159.875l-.83-1.27c.563-.765 1.115-1.538 1.677-2.303-.94.645-1.833 1.428-2.938 1.759-.755 0-1.482-.212-2.21-.368-.193 1.988-.137 4.07.875 5.865 1.694 3.489 3.453 7.329 2.652 11.306-.276 1.823-1.418 3.306-2.32 4.853-.599 1.307-.866 2.725-1.151 4.115-5.847-.552-11.565-1.998-17.117-3.848 0-1.197 0-2.394-.064-3.582-.267-2.882-1.05-5.681-1.528-8.526-1.216-6.712-2.413-13.424-3.315-20.183-.184-2.403-.663-5.552 1.713-7.08 4.336-2.817 9.152-4.834 14.032-6.51l-.01-.036Z" fill="#F4A489"/><path d="M36.87 73.207c4.116-1.031 8.223-2.56 12.523-2.375.35.1.69.248 1.013.442.791.626 1.63 1.335 1.942 2.338.451 1.133.497 2.495 1.4 3.407.672.764 1.537 1.39 2.007 2.32.433.995.212 2.109.138 3.158-.276 1.593.681 3.066.599 4.66-.083 2.43-.553 4.925-1.851 7.015.7-2.937 1.363-6.04.709-9.041-.148-.995-1.142-1.492-2.053-1.566-3.444-.368-6.832.746-10.276.599.985-.433 2.007-.82 3.075-.985 3.039-.47 6.133-.682 9.199-.286.018-1.409.248-3.02-.728-4.19-.884-1.132-2.467-1.095-3.766-1.049-3.231.23-6.445.728-9.63 1.308-1.271.22-2.56.23-3.85.165a62.005 62.005 0 0 1 14.723-2.56c-.064-2.052-.791-5.118-3.406-4.99-5.138.323-9.963 2.376-15.027 3.122a9.08 9.08 0 0 1 3.241-1.51l.019.018ZM86.5 243.885c1.004 2.955 1.197 6.169 2.67 8.958 2.1 4.006 4.631 7.808 7.743 11.105-.653-.129-1.316-.249-1.96-.396-.986-2.311-2.938-3.996-4.162-6.169-2.376-3.969-4.42-8.416-4.273-13.13v-.368H86.5Z" fill="#C25D42"/><path d="M50.412 71.273c1.326-.184 2.808-.368 3.978.451 1.952 1.344 2.983 3.573 4.125 5.58.524 1.123 1.325 2.366.957 3.655-.58 1.418-2.293 1.39-3.572 1.547.073-1.05.294-2.164-.138-3.158-.47-.93-1.326-1.556-2.008-2.32-.902-.912-.948-2.275-1.4-3.407-.321-1.004-1.15-1.713-1.942-2.339v-.009Z" fill="#F4A588"/><path d="M161.102 72.793c.718.064 1.436.129 2.163.156a50.527 50.527 0 0 1-1.97 4.936c-.147-1.695-.184-3.389-.193-5.092Z" fill="#502A18"/><path d="M126.907 73.944c3.609-.276 7.2-.801 10.819-.866.976-.082 1.887.276 2.707.764-1.179.995-2.459 1.879-3.904 2.431-4.318 1.667-9.014 2.33-13.627 1.98-1.096-.12-2.247-.249-3.177-.875-.773-.608-.985-1.63-1.371-2.486 2.762-.92 5.699-.626 8.544-.939l.009-.01Z" fill="#FEFEFE"/><path d="m140.424 73.833.221-.185c1.436 2.256.957 4.99.313 7.412-2.993-.543-6.169-.838-9.088.258-3.554 1.206-6.353 3.95-8.323 7.071-3.895-2.016-6.63-6.215-6.759-10.606-.129-1.225.728-2.146 1.556-2.91.387.856.599 1.878 1.372 2.486.93.617 2.09.755 3.177.875 4.613.35 9.308-.313 13.627-1.98 1.445-.552 2.725-1.436 3.904-2.43v.009Z" fill="#701115"/><path d="M131.87 81.33c2.91-1.096 6.086-.802 9.088-.258-1.087 2.928-3.094 5.588-5.902 7.062-3.517 1.933-7.881 1.896-11.509.267 1.979-3.122 4.769-5.865 8.323-7.072Z" fill="#DE594C"/><path d="M156.286 86.65c1.363-1.796 2.21-3.904 3.49-5.746-.157.958-.295 1.934-.608 2.864-2.173 6.003-6.169 11.187-10.819 15.496-4.318 3.968-9.695 6.693-15.376 8.056-2.09.497-4.254.442-6.39.479l-.304.018c.433-2.974.295-6.003 0-8.986 6.851 1.381 14.078.018 20.192-3.269 3.959-2.099 7.126-5.386 9.824-8.912h-.009Z" fill="#CE6851"/><path d="M49.283 91.071c1.105-.331 1.998-1.114 2.937-1.758-.561.764-1.114 1.537-1.675 2.301l.828 1.27a406.93 406.93 0 0 0-3.158-.874c-.01 1.16-.01 2.32 0 3.48 1.74-.22 3.49-.35 5.23-.552-1.731.856-3.73.847-5.488 1.63-1.013-1.786-1.068-3.867-.874-5.865.727.156 1.454.377 2.21.368h-.01Z" fill="#C15D41"/><path d="M163.212 108.011c0-3.858-.644-7.688-.663-11.546 2.809.138 5.598.663 8.25 1.593 4.429 1.611 8.047 4.889 10.846 8.609.847 1.086 1.409 2.393 2.367 3.406 1.289.764 2.808 1.013 4.207 1.538a158.785 158.785 0 0 1 17.734 7.522c7.32 3.692 14.612 7.642 20.836 13.038 4.125 3.996 6.951 9.069 9.769 14.023 7.237 13.442 12.365 27.907 16.73 42.501a385.734 385.734 0 0 1 4.769 18.184c.534 2.385 1.059 4.779 1.51 7.191 1.565 8.379 2.716 16.849 3.213 25.366a83.375 83.375 0 0 0-.064 4.272v2.146a72.333 72.333 0 0 1-.129 3.452c-.129 1.842-.276 3.683-.562 5.516-.488 2.836-1.095 5.662-2.099 8.36-.939 2.21-2.247 4.373-4.291 5.736-1.951 1.28-4.097 2.228-6.251 3.131a81.484 81.484 0 0 1-5.055 1.721 77.07 77.07 0 0 1-2.864.811c-.801.147-1.602.294-2.403.46-2.559.525-5.147.948-7.734 1.335-1.63.221-3.259.387-4.898.525-11.638 1.105-23.332 1.436-35.016 1.326-8.277-.129-16.72.69-24.813-1.437-2.855-.672-5.341-2.311-8.14-3.158 1.75 1.86 4.19 2.762 6.538 3.609 4.704 1.547 9.722 1.317 14.584 2.008 7.09.966 14.253 1.224 21.361 2.081 5.865.644 11.693 1.51 17.54 2.301 3.268.415 6.519 1.041 9.824 1.078 1.013 4.364 1.934 8.756 2.864 13.138a77.05 77.05 0 0 1 .589 3.26c.525 3.941 1.298 7.872 1.197 11.868h-70.74c-3.232-.046-6.482.203-9.695-.276-1.096-12.734-1.345-25.523-1.243-38.293-2.652-.148-5.35-.295-7.854-1.216 1.114-.911 2.302-1.804 3.112-3.02.994-1.501 1.519-3.25 2.081-4.944a34.703 34.703 0 0 0-1.952-.065c.718-.073 1.427-.184 2.136-.276.994-3.867.921-7.881.451-11.813 4.3-.589 8.581-1.307 12.899-1.804.93 4.576 1.474 9.336.387 13.94-.534 2.753-2.21 5.091-2.872 7.798.883-.755 1.73-1.593 2.2-2.67 1.547-3.269 2.283-6.887 2.412-10.496.102-2.938-.469-5.847-1.077-8.71a903.742 903.742 0 0 1 15.607-2.44c1.675-.267 3.379-.332 5.027-.755.994-.231 1.501-1.197 2.007-1.98.249-.81.414-1.63.58-2.458-9.069-.148-18.148.064-27.208-.129 1.418-1.768 3.425-2.891 5.497-3.711 10.229-4.254 21.159-6.38 31.655-9.824 3.333-1.05 6.666-2.145 10.082-2.891.911-.258 1.915-.396 2.652-1.041-.092-2.007-.857-3.885-1.308-5.819-1.51-6.021-2.615-12.144-3.72-18.249-.543-2.725-.524-5.57-1.556-8.185-.801 2.053-.359 4.263-.257 6.39.221 3.922.57 7.826.911 11.739.286 3.628.332 7.348-.626 10.893-.617 2.292-2.21 4.318-4.337 5.386-2.311 1.16-4.852 1.685-7.301 2.431-7.891 2.292-15.864 4.336-23.654 6.97-3.581 1.316-7.292 2.9-9.778 5.92-1.989.046-3.987.046-5.975.037.018-5.939.497-11.85.607-17.77.157-3.14.157-6.28.35-9.419.424-5.387.359-10.801.792-16.178.221-2.771.304-5.543.414-8.314.875-17.034 2.403-34.039 4.871-50.926 1.344-9.75 2.882-19.473 4.337-29.205.175-1.179.322-2.367.396-3.554l-.056-.037Zm21.739 4.613c.166.893.359 1.795.644 2.67 1.888 5.552 3.453 11.242 4.226 17.07.221 2.32.387 4.687.037 7.007-.129 1.188-1.16 2.283-2.421 2.155-3.416-.35-5.828-3.693-9.373-3.555-2.624.203-4.19 2.671-5.442 4.696-3.489 6.381-6.961 12.798-9.64 19.575-.939 2.486-2.035 4.954-2.44 7.596.451-.773.866-1.565 1.17-2.403 1.169-3.278 2.559-6.473 4.088-9.603 2.679-5.405 5.367-10.828 8.608-15.929.912-1.353 2.173-2.937 3.987-2.799 3.168.47 5.506 3.14 8.692 3.582 1.059.184 2.191-.231 2.827-1.124 1.279-1.611 1.15-3.793 1.187-5.736-.119-7.089-2.246-13.967-4.705-20.56-.34-.957-.847-1.832-1.445-2.642Zm34.371 21.582c-4.816 4.428-8.37 10.072-11.021 16.02-2.744 5.958-4.586 12.301-5.755 18.747-1.179 6.666-1.639 13.479-.994 20.228.147 1.077-.037 2.422 1.003 3.121.148-2.375-.239-4.732-.285-7.099a83.57 83.57 0 0 1 6.095-32.814c2.228-5.341 5.119-10.469 8.904-14.87 1.482-1.814 3.508-3.131 4.843-5.083-1.032.396-1.998.958-2.79 1.731v.019Zm-61.146 62.812.11 1.206c1.28.194 2.569.497 3.867.304.535-.064.967-.479.82-1.031-1.446-.884-3.204-.755-4.797-.479Zm.957 23.341c-.764.276-1.463 1.058-1.215 1.915.249 1.62 2.818 1.639 3.407.267.46-1.252-.949-2.68-2.192-2.182Zm55.134 3.959c-1.74.488-3.637.746-5.055 1.97 2.357.221 4.705-.258 7.062-.239a45.496 45.496 0 0 1 23.442 6.666c.184-.092.552-.286.737-.378-2.523-2.476-6.004-3.572-9.263-4.732-5.414-1.906-11.205-2.413-16.914-2.293 1.096-.543 2.256-.967 3.471-1.132 5.239-.792 10.626-1.087 15.855-.065 2.155.405 4.153 1.344 6.298 1.805-.442-.58-.911-1.197-1.611-1.455-4.42-1.897-9.346-2.016-14.078-1.841-3.379.11-6.703.819-9.953 1.694h.009Zm-56.745 66.55c0 .267-.009.792-.009 1.059 1.869-.037 3.95.47 5.607-.654-1.804-.626-3.719-.478-5.598-.395v-.01ZM21.99 121.693c.7-3.95.828-8.093 2.504-11.795 1.5 1.556 3.444 2.578 5.524 3.103 5.562 1.851 11.28 3.297 17.117 3.849 2.348.331 4.76-.064 6.823-1.271.45 3.812.055 7.642.138 11.463.884.7 1.814 1.409 2.348 2.431.745 1.391 1.03 2.965 1.28 4.512.672 4.696 1.132 9.437 1.51 14.17 0 2.919.533 5.8.846 8.692.46 3.692.848 7.393 1.51 11.058-10.201.018-20.403-.037-30.605-.037-6.813-.055-13.636.101-20.45-.037l-.036-.562a8.323 8.323 0 0 1 .046-1.436 3141.389 3141.389 0 0 1 5.663-35.789c.368-1.961.653-4.042 1.878-5.69.976-1.298 2.514-1.952 3.913-2.67l-.01.009Zm.654 1.464c.635.598 1.307 1.179 2.09 1.602 4.889 2.597 10.229 4.263 15.661 5.294 3.886.626 7.9 1.004 11.795.295.608-.046 1.013-.506 1.39-.93-2.854.037-5.7.516-8.553.221-6.98-.571-13.84-2.578-20.063-5.782-.737-.332-1.529-.516-2.32-.691v-.009ZM116.568 102.469c2.955-1.685 6.279-2.495 9.437-3.674l.258.037c.304 2.983.433 6.012 0 8.986-1.611 3.333-3.094 6.731-4.383 10.202l-.11.322c-2.062 5.423-3.628 11.021-5.138 16.619-3.213 12.246-5.469 24.75-6.804 37.336-.479-1.63-1.151-3.637-2.937-4.208-2.09-.451-4.235-.147-6.353-.184-6.63-.018-13.25.055-19.879-.018 1.354-7.734 2.505-15.542 2.514-23.405 0-.801-.101-1.602-.157-2.403-.47 1.132-.69 2.357-.718 3.581-.156 4.503-.746 8.987-1.4 13.443-.414 2.928-1.086 5.828-1.362 8.774-5.617.037-11.233.01-16.84.01-.599-4.696-1.206-9.383-1.768-14.078-.212-2.109-.433-4.217-.994-6.261 3.692-4.954 7.522-9.806 11.407-14.603 2.846-3.379 5.755-6.731 9.06-9.677 1.354-1.225 2.882-2.228 4.521-3.029 5.82-2.864 11.868-5.276 18.093-7.145 1.105-.35 2.366-.617 3.056-1.648 2.772-3.729 6.363-6.832 10.478-8.987l.019.01Zm-17.135 16.748c-1.98 3.084-3.536 6.426-4.935 9.815-.608 1.547-1.206 3.259-.755 4.926.23.838 1.123 1.224 1.897 1.381 2.357.414 4.631-.939 6.979-.525.911.488 1.243 1.556 1.519 2.477.626 2.467.865 5.009 1.151 7.541.405 3.959.939 7.918 1.399 11.868.102.939.369 1.85.691 2.734.267-2.476-.166-4.944-.387-7.402-.442-4.705-.7-9.447-1.28-14.134-.267-1.685-.607-3.738-2.283-4.594-2.689-.994-5.7 1.418-8.259-.101-.258-1.713.47-3.361 1.096-4.908 1.215-3.011 2.651-5.929 4.217-8.774.902-1.63 2.053-3.112 2.918-4.77-1.813.985-2.863 2.808-3.977 4.457l.009.009ZM61.682 254.547c5.662.027 13.406.037 19.068 0 1.796 3.066 3.186 4.383 6.243 5.801.902.368 1.841.672 2.753 1.031 1.666.865 3.342 1.768 5.202 2.163.654.148 1.307.267 1.961.396 2.992.626 5.93 1.63 9.023 1.676-.11 4.438-.073 8.876-.156 13.314-.433 10.671-.249 21.37-1.032 32.032-.064.626-.147 1.262-.221 1.897-7.09.202-14.188.028-21.278.092-9.723 0-19.446.018-29.169-.018-.11-1.188-.22-2.376-.35-3.554-.018-.746 0-1.483.01-2.219.175-9.033 1.648-17.973 3.094-26.867 1.417-8.25 2.863-16.5 4.539-24.694.092-.36.202-.709.304-1.05h.009Zm35.07 32.861c-1.104.617-1.408 2.21-.745 3.259.791 1.565 3.673 1.271 3.904-.571.524-1.795-1.455-3.508-3.159-2.688Z" fill="#6A86C4"/><path d="m126.281 107.819.304-.018c-.147 2.081-.368 4.198.101 6.261.562 2.495 2.192 4.714 4.392 6.021 3.886 2.367 8.627 2.919 13.084 2.376 6.454-.737 12.531-4.097 16.637-9.125.212 2.578-.211 5.156-.801 7.661-.202.865-.635 1.694-1.372 2.219-4.548 3.434-10.229 5.101-15.873 5.423-5.699.322-11.574-1.289-16.085-4.852-2.017-1.538-2.956-4.015-4.77-5.746 1.28-3.471 2.763-6.868 4.383-10.201v-.019Z" fill="#E9E9E9"/><path d="M160.801 113.326c1.05-1.648 1.888-3.435 2.412-5.322a41.658 41.658 0 0 1-.396 3.554c-1.445 9.732-2.992 19.455-4.336 29.206-2.468 16.877-3.996 33.883-4.871 50.925-.12 2.772-.193 5.543-.414 8.314-.433 5.387-.368 10.791-.792 16.178-.203 3.139-.193 6.279-.35 9.419-.11 5.929-.589 11.84-.608 17.77h-5.358c.276-2.191.239-4.41.248-6.611.728-14.28 1.381-28.561 2.68-42.805a591.968 591.968 0 0 1 6.611-50.299 169.68 169.68 0 0 1 1.703-9.125c.727-3.379 1.123-6.813 1.915-10.183-3.002 1.666-6.095 3.25-9.41 4.189-4.742 1.298-9.815 1.639-14.603.405-3.01-.727-6.003-1.86-8.406-3.876-2.164-1.805-4.392-3.876-5.027-6.73l.11-.323c1.814 1.731 2.753 4.208 4.77 5.746 4.502 3.563 10.386 5.174 16.085 4.852 5.644-.322 11.316-1.989 15.873-5.423.737-.525 1.179-1.354 1.372-2.219.599-2.505 1.013-5.083.801-7.661l-.009.019Z" fill="#BFBFBF"/><path d="M24.488 109.899c1.768-.507 3.618-.626 5.45-.488.065 1.197.065 2.384.065 3.581-2.08-.525-4.024-1.537-5.524-3.103l.009.01ZM47.127 116.84c.285-1.39.552-2.817 1.15-4.115 2.026.515 4.816.534 5.673 2.854-2.063 1.197-4.475 1.602-6.823 1.27v-.009Z" fill="#4B5A7D"/><path d="M184.957 112.625c.589.819 1.105 1.694 1.445 2.652 2.468 6.592 4.586 13.47 4.705 20.56-.036 1.942.092 4.125-1.187 5.736-.636.884-1.768 1.298-2.827 1.123-3.177-.442-5.524-3.121-8.692-3.582-1.814-.147-3.075 1.446-3.996 2.8-3.241 5.091-5.929 10.514-8.609 15.928-1.519 3.121-2.918 6.316-4.088 9.603-.303.838-.718 1.639-1.169 2.404.414-2.643 1.501-5.111 2.44-7.597 2.679-6.776 6.15-13.194 9.64-19.574 1.252-2.035 2.808-4.493 5.442-4.696 3.535-.138 5.948 3.204 9.373 3.554 1.261.129 2.292-.958 2.421-2.155.35-2.32.184-4.686-.037-7.006-.773-5.829-2.338-11.509-4.226-17.071a19.045 19.045 0 0 1-.644-2.67l.009-.009ZM99.443 119.216c1.114-1.648 2.164-3.48 3.978-4.456-.866 1.657-2.017 3.139-2.919 4.769-1.565 2.845-3.002 5.764-4.217 8.775-.626 1.556-1.344 3.195-1.096 4.907 2.57 1.51 5.58-.902 8.259.102 1.676.847 2.017 2.909 2.284 4.585.58 4.696.828 9.428 1.279 14.133.221 2.458.654 4.926.387 7.403-.331-.884-.589-1.796-.69-2.735-.461-3.959-.995-7.909-1.4-11.868-.285-2.532-.525-5.073-1.151-7.541-.276-.93-.607-1.998-1.519-2.477-2.348-.414-4.631.939-6.98.525-.782-.156-1.675-.543-1.896-1.381-.451-1.666.157-3.379.755-4.926 1.4-3.388 2.956-6.721 4.935-9.815h-.009Z" fill="#3D5B9C"/><path d="M116.659 134.961c1.51-5.598 3.066-11.196 5.138-16.619.635 2.863 2.872 4.935 5.027 6.73 2.394 2.017 5.386 3.14 8.406 3.877 4.788 1.233 9.871.902 14.603-.405 3.315-.94 6.408-2.523 9.41-4.19-.792 3.37-1.179 6.804-1.915 10.183a169.864 169.864 0 0 0-1.703 9.125 591.938 591.938 0 0 0-6.611 50.3c-1.299 14.243-1.952 28.533-2.68 42.804 0 2.201.028 4.42-.248 6.611-5.644-.055-11.288.129-16.933-.119-.865-2.413-1.473-4.89-2.145-7.357-4.336-15.56-8.471-31.176-12.706-46.773-1.464-5.617-3.112-11.196-4.456-16.84 1.335-12.587 3.591-25.09 6.804-37.336l.009.009Z" fill="#E9E9E9"/><path d="M22.632 123.158c.792.175 1.584.359 2.32.69 6.215 3.204 13.084 5.212 20.063 5.782 2.855.295 5.7-.184 8.554-.221-.378.424-.783.884-1.39.94-3.904.699-7.91.322-11.804-.304-5.423-1.031-10.773-2.689-15.662-5.294-.783-.415-1.445-1.004-2.09-1.603l.01.01ZM219.332 134.208c.792-.783 1.759-1.336 2.79-1.731-1.335 1.942-3.361 3.259-4.843 5.082-3.784 4.401-6.675 9.52-8.904 14.87a83.607 83.607 0 0 0-6.095 32.815c.046 2.366.433 4.723.286 7.099-1.041-.7-.866-2.044-1.004-3.122-.645-6.749-.184-13.571.994-20.228 1.17-6.445 3.011-12.789 5.755-18.746 2.652-5.948 6.206-11.592 11.021-16.021v-.018ZM82.329 145.67a9.707 9.707 0 0 1 .718-3.582c.055.792.156 1.602.156 2.403 0 7.863-1.16 15.671-2.513 23.405h-1.124c.286-2.956.949-5.847 1.363-8.775.663-4.456 1.252-8.931 1.4-13.442v-.009ZM59.225 148.155c.184-.156.552-.451.727-.598.552 2.044.783 4.161.994 6.27.553 4.696 1.16 9.391 1.768 14.078h-1.123c-.663-3.665-1.04-7.366-1.51-11.058-.322-2.891-.847-5.773-.847-8.692h-.01Z" fill="#3D5B9C"/><path d="M1.76 168.256c2.283-.543 4.787-.387 6.794-.423.47-.028 1.602 0 1.97 0 6.814.128 13.637-.028 20.45.036 10.202 0 20.403.056 30.605.028h1.123c5.617 0 11.224.018 16.84-.009h1.124c6.63.073 13.25 0 19.879.018 2.108.037 4.263-.267 6.353.184 1.795.571 2.458 2.578 2.937 4.208 1.344 5.653 2.992 11.224 4.456 16.84 4.235 15.588 8.379 31.204 12.706 46.764.672 2.459 1.28 4.945 2.146 7.357.22.626.432 1.243.626 1.887.515 1.547.626 3.205.405 4.816-.378.184-.746.377-1.124.562a455.756 455.756 0 0 0-5.156-19.115c-1.639-6.141-3.241-12.282-5.008-18.396-3.186-12.126-6.547-24.197-9.825-36.295-.607-2.192-1.012-4.659-2.789-6.252-.93-.912-2.284-1.096-3.536-1.133-31.729.083-63.466-.018-95.195.046-2.476-.092-4.972-.018-7.402.553.506-.589.93-1.289 1.61-1.676h.01Z" fill="#DFE5E9"/><path d="M.15 169.94c2.431-.571 4.917-.644 7.403-.552 31.728-.065 63.466.037 95.195-.046 1.243.027 2.596.221 3.535 1.132 1.777 1.593 2.182 4.061 2.79 6.252 3.278 12.108 6.638 24.179 9.824 36.305 1.768 6.104 3.379 12.255 5.009 18.396a442.31 442.31 0 0 1 5.156 19.114c-1.648.866-3.554.755-5.349.599-3.628-.332-7.265-.111-10.893-.221-1.979-.065-3.968-.019-5.929.23-1.464-3.324-2.661-6.998-5.552-9.401-.93-.838-2.44-1.39-3.536-.534-.92.774-.672 2.118-.617 3.177.019.156.065.478.083.635.304 1.934.737 3.83 1.262 5.709-.562.092-1.124.184-1.685.285-1.492-3.407-2.431-7.145-4.715-10.156-1.086-1.528-3.498-2.191-5.027-.966-.893 1.095-.561 2.67-.589 3.986v.369c-1.17-.037-2.421-.323-3.554.147-.82.497-.663 1.584-.672 2.412.258.949.543 1.888.81 2.836.101.35.203.7.304 1.059-8.093.341-16.187.064-24.289.129-10.487.009-20.983 0-31.48.037-1.05 0-2.1-.019-3.149-.102-1.059-.515-2.127-1.224-2.605-2.347-.838-2.081-.866-2.818-1.74-5.267-.037-.249-.304-1.142-.516-2.21-.728-3.37-1.694-5.616-2.606-8.94-2.182-7.661-4.355-15.321-6.602-22.954-1.26-4.143-2.301-8.36-3.692-12.467a117.271 117.271 0 0 0-1.206-4.355c-1.777-6.132-3.508-12.282-5.294-18.414-.368-1.271-.203-2.597-.064-3.886H.15v.009Zm58.375 34.528c-2.081.184-4.143 1.187-5.34 2.937-1.593 2.21-1.64 5.266-.535 7.697 1.934 4.595 7.891 7.2 12.467 4.981 2.873-1.178 4.521-4.548 3.83-7.559-.948-4.659-5.607-8.48-10.431-8.065l.009.009Z" fill="#B2B7BF"/><path d="M202.213 200.013c-.092-2.127-.534-4.337.258-6.39 1.031 2.615 1.013 5.46 1.556 8.185 1.114 6.105 2.21 12.218 3.72 18.249.451 1.934 1.215 3.821 1.307 5.819-.737.645-1.749.783-2.652 1.041-3.425.746-6.749 1.841-10.082 2.891-10.496 3.434-21.425 5.561-31.654 9.824-2.072.829-4.07 1.952-5.497 3.711h-1.759c2.486-3.02 6.197-4.604 9.778-5.911 7.79-2.634 15.763-4.669 23.654-6.97 2.449-.746 5-1.28 7.301-2.431 2.127-1.068 3.72-3.094 4.337-5.386.958-3.536.912-7.265.626-10.893-.331-3.913-.69-7.817-.911-11.739h.018Z" fill="#3D5B9C"/><path d="M16.99 239.676c-5.045-5.138-8.433-11.859-9.593-18.967-1.326-7.965-1.243-16.104-.69-24.133 1.39 4.107 2.43 8.314 3.691 12.467 2.247 7.633 4.54 15.395 6.722 23.055.911 3.324 2.569 8.471 3.296 11.841" fill="#6A86C4"/><path d="M158.186 197.018c1.592-.277 3.351-.396 4.806.478.147.562-.295.976-.82 1.032-1.298.193-2.596-.111-3.867-.304l-.11-1.206h-.009Z" fill="#3D5B9C"/><path d="M58.535 204.466c4.825-.414 9.484 3.398 10.432 8.066.69 3.002-.957 6.381-3.83 7.559-4.576 2.21-10.533-.386-12.467-4.981-1.114-2.431-1.059-5.487.534-7.697 1.197-1.75 3.26-2.753 5.34-2.937l-.009-.01Z" fill="#DEE5EA"/><path d="M159.142 220.359c1.243-.497 2.661.93 2.192 2.182-.59 1.372-3.158 1.354-3.407-.267-.258-.856.451-1.639 1.215-1.915ZM214.276 224.318c3.259-.874 6.574-1.583 9.953-1.694 4.742-.175 9.659-.055 14.078 1.842.709.257 1.17.874 1.611 1.454-2.145-.46-4.143-1.399-6.297-1.804-5.23-1.013-10.616-.718-15.855.064-1.216.166-2.376.589-3.472 1.133 5.709-.129 11.491.386 16.914 2.292 3.26 1.16 6.731 2.256 9.263 4.733-.184.092-.552.285-.737.377a45.503 45.503 0 0 0-23.442-6.666c-2.357-.018-4.704.451-7.062.24 1.409-1.225 3.315-1.483 5.055-1.971h-.009Z" fill="#3D5B9C"/><path d="M87.086 239.896c1.528-1.215 3.94-.562 5.027.967 2.283 3.011 3.222 6.749 4.714 10.155 1.022 1.814 2.514 3.315 3.425 5.193 1.114 2.238 2.376 4.457 4.235 6.169 1.032.995 2.293 1.676 3.481 2.459.202.221.396.451.589.69-.884.028-1.758.083-2.633.092-3.085-.055-6.031-1.049-9.023-1.675-3.112-3.297-5.644-7.09-7.744-11.105-1.473-2.789-1.666-6.003-2.67-8.958.037-1.317-.304-2.891.59-3.987h.009Zm-.249 1.16c.138 1.225-.018 2.597.635 3.701.617 1.013 2.394.7 2.588-.488.193-1.16.156-2.624-.83-3.443-.79-.276-1.61.101-2.393.23Z" fill="#F5A58B"/><path d="M86.846 241.056c.782-.129 1.602-.516 2.394-.231.985.82 1.022 2.284.828 3.444-.193 1.188-1.97 1.51-2.587.488-.654-1.114-.497-2.477-.635-3.701Z" fill="#FBC8B9"/><path d="M97.796 241.213c1.096-.856 2.606-.304 3.536.534 2.891 2.403 4.088 6.077 5.552 9.4.736 1.409 1.841 2.569 2.964 3.674 1.022 1.381 2.063 2.864 3.665 3.637 3.692 1.934 7.946 2.155 11.914 3.186 2.339.552 4.604 1.436 7.007 1.685-2.265-1.492-5.009-1.832-7.559-2.597-3.517-.994-7.228-1.27-10.625-2.679-1.326-.479-2.1-1.694-2.799-2.827.985-1.436 2.292-2.743 4.042-3.158 5.137-1.528 10.376.599 15.072 2.569 1.482.332 3.02.341 4.53.239 4.732-.414 9.419-1.178 14.115-1.823.469 3.932.543 7.946-.451 11.813-.709.102-1.418.203-2.137.277-2.191.138-4.373.322-6.555.506-3.195.258-6.39.562-9.594.599-4.576.082-9.143.405-13.719.128-2.753-.138-5.442-.92-8.204-.828-.193-.24-.387-.461-.589-.691-1.335-1.722-3.296-2.836-4.576-4.603-2.081-2.901-3.987-6.004-4.88-9.493a50.497 50.497 0 0 1-1.261-5.709c.303.783.662 1.547 1.003 2.311.58-.221 1.17-.432 1.704-.746.607-1.104.313-2.522-.258-3.59-.424-.811-1.483-.691-2.238-.893-.11.755-.23 1.51-.303 2.274-.056-1.059-.295-2.413.616-3.177l.028-.018Zm16.969 12.641c-1.105.102-1.685 1.289-1.584 2.293 1.142.921 2.625 1.261 4.052 1.464 1.731.691 3.222-2.154 1.749-3.195-1.289-.635-2.808-.746-4.208-.562h-.009Z" fill="#F4A48A"/><path d="M97.484 242.105c.755.202 1.814.083 2.238.893.561 1.059.865 2.477.257 3.591-.534.322-1.123.525-1.703.746-.34-.774-.7-1.529-1.004-2.321-.018-.156-.064-.478-.083-.635.074-.773.194-1.528.304-2.283l-.009.009Z" fill="#FBC7BC"/><path d="M129.156 243.268c5.635.248 11.288.064 16.933.119 1.786 0 3.572-.009 5.358 0 1.998.009 3.987.019 5.976-.037.58-.009 1.169-.009 1.758 0 9.07.194 18.139-.009 27.208.129-.166.82-.331 1.648-.58 2.459-7.329.598-14.594 1.814-21.904 2.615-6.151.626-12.264 1.62-18.433 2.126-3.518.36-7.053.654-10.515 1.418.046.93.092 1.86.156 2.79-1.51.101-3.047.092-4.53-.239.912-1.234.958-2.772.617-4.208 3.324-.525 6.676-.746 10.009-1.142 5.386-.616 10.772-1.261 16.168-1.85 2.78-.378 5.598-.553 8.332-1.216-1.832-1.059-4.014-.57-6.021-.699-5.083-.203-10.174.027-15.257-.258-4.88-.138-9.769.018-14.649-.101-.193-.636-.414-1.262-.626-1.879v-.027Z" fill="#C0C6CC"/><path d="M82.951 244.39c1.133-.47 2.385-.184 3.564-.147-.148 4.723 1.896 9.17 4.272 13.129 1.224 2.173 3.176 3.858 4.161 6.169-1.85-.396-3.526-1.307-5.202-2.164-2.32-2.661-4.438-5.515-5.763-8.82a27.35 27.35 0 0 1-.599-1.86c-.101-.359-.203-.718-.304-1.059.626-.101 1.335-.018 1.906-.35.884-1.151.295-3.416-1.298-3.508-.516.276-.958.663-1.418 1.022.018-.819-.147-1.906.672-2.412h.01Z" fill="#F6A68B"/><path d="M129.789 245.145c4.88.119 9.769-.037 14.649.101 5.082.285 10.174.055 15.256.258 2.008.119 4.19-.359 6.022.699-2.735.663-5.552.838-8.333 1.216-5.395.589-10.781 1.234-16.168 1.85-3.333.396-6.693.617-10.008 1.142a89.295 89.295 0 0 0-1.004-.451c.221-1.611.111-3.269-.405-4.815h-.009Z" fill="#6B6E76"/><path d="M82.272 246.803c.46-.359.893-.746 1.417-1.022 1.593.092 2.183 2.367 1.299 3.508-.562.332-1.271.24-1.906.35-.267-.948-.553-1.887-.81-2.836Z" fill="#FCC4B5"/><path d="M163.901 248.533c7.311-.792 14.575-2.017 21.904-2.615-.506.783-1.022 1.749-2.007 1.98-1.648.423-3.351.497-5.027.755a886.465 886.465 0 0 0-15.607 2.439c-.257.037-.782.102-1.04.139-4.309.497-8.6 1.215-12.9 1.804-4.704.645-9.391 1.418-14.114 1.823-.056-.93-.111-1.86-.157-2.79 3.462-.764 6.998-1.049 10.515-1.417 6.169-.507 12.282-1.492 18.433-2.127v.009Z" fill="#85888F"/><path d="M129.064 250.523c.377-.185.746-.378 1.123-.562.332.147.663.295 1.004.451.34 1.446.304 2.974-.617 4.208-4.696-1.971-9.935-4.097-15.073-2.569-1.749.414-3.056 1.722-4.042 3.158-.534-.129-1.077-.258-1.602-.396-1.123-1.105-2.228-2.265-2.964-3.664 1.97-.249 3.95-.295 5.929-.231 3.628.102 7.265-.11 10.892.221 1.796.157 3.692.267 5.35-.598v-.018Z" fill="#878B94"/><path d="M27.625 250.873c10.496-.046 20.983-.028 31.48-.037 8.093-.065 16.196.212 24.289-.129.184.626.368 1.243.598 1.86-.193 0-.589 0-.782.009-1.759-.092-1.381.654-2.523 1.98-5.663.037-13.332.027-18.995 0-.11.34-.212.69-.304 1.049-.009-.257-.037-.782-.046-1.04H30.995c-.893-.046-1.805-.074-2.652-.368-.654-.976-.561-2.21-.709-3.324h-.009Z" fill="#8B8F96"/><path d="M96.848 251.02a54.705 54.705 0 0 1 1.685-.276c.883 3.49 2.799 6.593 4.879 9.493 1.28 1.768 3.241 2.882 4.577 4.604-1.179-.792-2.44-1.474-3.472-2.459-1.86-1.703-3.121-3.931-4.235-6.169-.92-1.878-2.412-3.379-3.425-5.193h-.01Z" fill="#CB6E4F"/><path d="M162.116 251.232c.258-.037.783-.101 1.041-.138.607 2.863 1.178 5.764 1.077 8.71-.129 3.609-.866 7.218-2.412 10.496-.479 1.078-1.326 1.915-2.201 2.67.663-2.716 2.339-5.054 2.873-7.798 1.095-4.604.552-9.364-.387-13.94h.009Z" fill="#3D5B9C"/><path d="M80.667 254.444c1.04-1.409 1.538-1.142 3.297-1.178.764 2.863 2.946 5.054 4.346 7.586-3.159-1.196-5.46-1.206-7.652-6.399l.01-.009Z" fill="#F5A68A"/><path d="M82.978 252.566h1.004c1.325 3.306 3.443 6.16 5.763 8.821-.911-.359-1.841-.663-2.753-1.031-1.215-2.624-3.462-4.871-4.023-7.78l.009-.01Z" fill="#C46243"/><path d="M114.764 253.856c1.409-.184 2.919-.074 4.208.561 1.473 1.041-.009 3.886-1.749 3.195-1.418-.202-2.91-.543-4.051-1.464-.102-1.003.478-2.191 1.583-2.292h.009Z" fill="#FCCEC0"/><path d="M109.854 254.812c.524.138 1.058.267 1.602.396.699 1.142 1.482 2.357 2.799 2.827 3.397 1.408 7.117 1.675 10.625 2.679 2.55.764 5.285 1.114 7.559 2.596-2.403-.248-4.668-1.132-7.007-1.685-3.977-1.031-8.231-1.252-11.914-3.185-1.602-.774-2.642-2.247-3.664-3.637v.009Z" fill="#CB6E4F"/><path d="M140.081 265.631c2.183-.184 4.365-.368 6.556-.506.654 0 1.298.028 1.952.064-.562 1.695-1.077 3.444-2.081 4.945-.81 1.215-1.989 2.108-3.112 3.02-2.375-1.722-3.232-4.714-3.324-7.523h.009Z" fill="#3D5B9C"/><path d="M105.934 265.622c.875 0 1.758-.065 2.633-.092 2.762-.083 5.451.69 8.204.828 4.567.277 9.143-.046 13.719-.129 3.213-.036 6.399-.34 9.594-.598.092 2.799.939 5.801 3.324 7.522 2.513.921 5.211 1.068 7.854 1.216-.102 12.77.156 25.559 1.242 38.293-2.532-.313-5.073.166-7.605.166-12.135 0-24.279-.019-36.415 0a147.173 147.173 0 0 1-3.452-.111c-.102-.598-.212-1.178-.286-1.768.783-10.662.599-21.361 1.031-32.032.083-4.438.046-8.876.157-13.314v.019Z" fill="#E9E9E9"/><path d="M158.453 273.605c2.79.848 5.285 2.477 8.139 3.159 8.103 2.126 16.546 1.307 24.814 1.436 11.684.11 23.378-.221 35.016-1.326.718 2.578 1.298 5.193 1.878 7.808-3.306-.037-6.565-.654-9.824-1.077-5.847-.792-11.675-1.658-17.531-2.302-7.108-.857-14.271-1.114-21.361-2.081-4.852-.691-9.88-.46-14.584-2.007-2.348-.847-4.788-1.75-6.538-3.61h-.009ZM96.753 287.408c1.704-.82 3.674.893 3.159 2.698-.23 1.841-3.113 2.127-3.904.571-.654-1.05-.35-2.643.745-3.26v-.009ZM157.533 290.868c1.869-.083 3.793-.23 5.598.396-1.658 1.123-3.738.617-5.608.653 0-.267.01-.791.01-1.058v.009Z" fill="#3D5B9C"/><path d="M189.464 66.303c-.138-3.158 2.698-6.133 5.865-5.93h.037c20.771 0 45.742.028 66.578-.01 0 2.155.608 4.393 2.108 6.06 1.446 1.749 3.61 2.706 5.783 2.964.036 4.125.027 5.883.027 7.633 0 1.814-.018 3.628.019 8.056.009 1.64-.092 3.241-.958 4.503v.018c-1.068 1.676-3.029 2.652-5.027 2.716H263.482c-17.071-.009-38.395.028-55.465-.018-1.05-.065-1.906.35-2.634.856-.368.258-.718.543-1.049.81-.341.277-.654.534-.976.746-1.234.875-2.431 1.805-3.61 2.716-.957.728-1.905 1.446-2.891 2.109.102-2.21.498-4.383.765-6.639l.055-.488-.488-.027c-.829-.046-1.602-.055-2.385-.148-.672-.083-1.298-.23-1.869-.506l-.239-.129c-1.906-1.123-3.269-3.204-3.186-5.395v-.019c0-5.055.009-7.495.009-9.934l-.018-9.935-.037-.01Z" fill="#D2E2FE" stroke="url(#a)"/><path d="M264.521 77.647a.726.726 0 0 1-.24.552.756.756 0 0 1-.552.23.777.777 0 0 1-.571-.23.758.758 0 0 1-.23-.552c0-.221.073-.396.23-.553a.815.815 0 0 1 .571-.23c.221 0 .396.074.552.23a.73.73 0 0 1 .24.553Zm-.479-1.676h-.626a6.88 6.88 0 0 1-.056-.57c-.018-.277-.046-.59-.073-.94-.028-.35-.055-.718-.083-1.086-.028-.378-.055-.728-.083-1.06-.018-.33-.046-.607-.064-.819-.019-.22-.019-.359-.019-.396 0-.193.065-.35.203-.47a.703.703 0 0 1 .497-.192c.193 0 .359.064.488.193.138.12.203.276.203.47 0 .046 0 .174-.019.395-.018.212-.037.488-.064.82-.019.331-.046.681-.074 1.059-.028.377-.055.736-.083 1.086-.027.35-.055.663-.074.94-.018.266-.036.46-.055.57h-.018ZM259.014 78.483c-.571 0-1.077-.12-1.519-.368a2.664 2.664 0 0 1-1.032-1.013 2.948 2.948 0 0 1-.377-1.492c0-.561.129-1.05.377-1.473a2.726 2.726 0 0 1 1.032-1.013c.442-.248.948-.368 1.519-.368s1.077.12 1.519.368c.442.249.792.58 1.031 1.013.249.433.378.92.378 1.473s-.129 1.059-.378 1.492a2.595 2.595 0 0 1-1.031 1.013c-.442.248-.948.368-1.519.368Zm0-1.013c.341 0 .635-.083.884-.24.248-.156.442-.377.58-.644.147-.276.212-.608.212-.967s-.074-.672-.212-.948a1.604 1.604 0 0 0-.58-.654 1.626 1.626 0 0 0-.884-.24c-.341 0-.617.084-.875.24a1.625 1.625 0 0 0-.589.654c-.138.276-.203.59-.203.948 0 .36.065.69.203.967.147.276.341.488.589.645.249.156.543.239.875.239ZM252.514 78.309v-4.981h1.207v4.98h-1.207Zm-1.887-4.392v-.985h4.972v.985h-4.972ZM247.223 78.483c-.488 0-.93-.092-1.335-.276a2.912 2.912 0 0 1-1.013-.782l.755-.737c.184.258.396.46.654.608.267.147.571.211.902.211.543 0 .967-.165 1.271-.506.303-.34.451-.792.451-1.372 0-.58-.157-1.04-.461-1.381-.303-.34-.718-.506-1.252-.506-.35 0-.644.073-.902.211-.258.148-.479.341-.645.59l-.745-.719c.276-.34.607-.598 1.003-.782a3.12 3.12 0 0 1 1.335-.276c.571 0 1.068.12 1.501.368.442.24.783.57 1.022 1.004.249.423.378.92.378 1.491 0 .571-.12 1.068-.369 1.51a2.606 2.606 0 0 1-1.022 1.004c-.442.24-.948.359-1.528.359v-.019Zm-1.105-2.486v-.838h3.526v.838h-3.526ZM236.264 78.309v-1.004h.386c.194 0 .341-.046.433-.138.101-.092.157-.258.175-.488l.35-3.747h4.097v5.377h-1.206v-5.184l.866.783h-3.527l.912-.783-.369 3.793c-.046.516-.193.884-.432 1.087-.24.202-.599.304-1.087.304h-.598ZM235.452 78.308h-1.114V77.24l-.055-.23v-2.017c0-.405-.129-.718-.387-.939-.257-.23-.607-.34-1.058-.34-.323 0-.627.064-.903.193a2.154 2.154 0 0 0-.709.543l-.69-.755a3.26 3.26 0 0 1 1.031-.69 3.357 3.357 0 0 1 1.317-.25c.506 0 .957.093 1.335.268.386.175.69.423.902.755.212.331.322.727.322 1.188v3.342h.009Zm-3.02.175c-.414 0-.773-.074-1.086-.23a1.808 1.808 0 0 1-.737-.617 1.57 1.57 0 0 1-.257-.903c0-.377.11-.69.322-.948.212-.267.515-.47.893-.608.387-.147.829-.211 1.335-.211h1.51v.828h-1.4c-.423 0-.764.074-1.031.23a.73.73 0 0 0-.386.673c0 .267.101.478.303.635.203.147.461.23.783.23s.589-.064.856-.193a1.63 1.63 0 0 0 .617-.525c.157-.23.249-.488.267-.783l.387.184c0 .442-.101.83-.304 1.179-.202.34-.479.608-.838.801a2.66 2.66 0 0 1-1.224.276l-.01-.018ZM223.75 78.309v-1.004h.387c.193 0 .34-.046.432-.138.102-.092.157-.258.175-.488l.35-3.747h4.098v5.377h-1.207v-5.184l.866.783h-3.527l.921-.783-.368 3.793c-.046.516-.193.884-.433 1.087-.239.202-.598.304-1.086.304h-.608ZM222.278 76.687l.691.755c-.276.323-.626.58-1.041.765a3.404 3.404 0 0 1-1.39.276c-.598 0-1.142-.12-1.602-.368a2.81 2.81 0 0 1-1.086-1.013 2.813 2.813 0 0 1-.387-1.474c0-.552.129-1.058.377-1.491a2.726 2.726 0 0 1 1.032-1.013c.442-.248.93-.368 1.473-.368s1.003.12 1.409.368c.405.24.727.571.966.995.24.414.359.902.359 1.454v.065h-1.197v-.12c0-.359-.064-.672-.202-.94a1.453 1.453 0 0 0-.543-.625 1.473 1.473 0 0 0-.811-.23 1.63 1.63 0 0 0-.865.239 1.497 1.497 0 0 0-.571.644c-.138.277-.203.608-.203.995s.083.727.24 1.013c.166.285.387.506.672.672.285.147.617.23.994.23.682 0 1.243-.276 1.695-.829h-.01Zm.801-.68h-4.787v-.82h4.612l.175.395v.424ZM210.852 77.803v-.47h.174a.692.692 0 0 0 .36-.083.546.546 0 0 0 .202-.322 3.69 3.69 0 0 0 .12-.653l.368-3.334h4.024v4.705h-1.188v-4.511l.838.782h-3.471l.948-.782-.387 3.231c-.037.36-.11.645-.211.848a.917.917 0 0 1-.461.45c-.202.093-.469.139-.819.139h-.497Zm-.258 1.952v-2.422h6.334v2.422h-1.132V77.61l.681.7h-5.174l.432-.7v2.145h-1.141ZM209.223 76.661l.774.755a2.85 2.85 0 0 1-.986.783c-.386.184-.828.276-1.335.276-.552 0-1.049-.12-1.491-.368a2.76 2.76 0 0 1-1.022-1.013 2.939 2.939 0 0 1-.378-1.492c0-.561.129-1.04.378-1.464a2.717 2.717 0 0 1 1.031-1.013 3.036 3.036 0 0 1 1.51-.377c.488 0 .921.092 1.307.276.387.184.718.451.986.783l-.774.755a1.713 1.713 0 0 0-.598-.58 1.618 1.618 0 0 0-.866-.23 1.65 1.65 0 0 0-.884.239c-.258.157-.46.377-.598.654-.148.276-.212.589-.212.948 0 .36.074.681.212.958.147.276.35.497.598.653.258.157.553.24.884.24.332 0 .626-.074.866-.23a1.89 1.89 0 0 0 .598-.58v.027ZM200.024 78.31v-6.648h-1.842c-.442 0-.792.11-1.04.331-.249.212-.378.516-.378.893 0 .378.129.682.378.903.248.212.598.322 1.04.322h1.952v1.059h-1.952c-.534 0-1.003-.092-1.409-.276a2.192 2.192 0 0 1-.939-.81 2.164 2.164 0 0 1-.331-1.198c0-.45.11-.856.331-1.197.221-.34.534-.607.939-.8a3.296 3.296 0 0 1 1.409-.295h3.085V78.3h-1.243v.01Zm-5.055 0 2.596-3.591h1.381l-2.495 3.59h-1.482Z" fill="#3A4F73"/><path d="M270.183 68.853a7.836 7.836 0 1 0 0-15.673 7.836 7.836 0 0 0 0 15.673Z" fill="#6683C2" stroke="#fff" stroke-width="1.71"/><path d="M269.862 56.828h1.188v8.462h-1.354v-7.035l-2.145 1.538v-1.381l2.311-1.584Z" fill="#fff"/><path d="M85.77 256.986c-1.787-2.762-3.232-5.828-3.361-9.152-.967.037-2.017-.12-2.91.331-.644.461-.45 1.335-.414 2.017.36-.322.69-.663 1.096-.921 1.307-.018 1.924 1.805 1.27 2.799-.442.304-1.03.276-1.537.396.1.276.202.562.313.856.184.498.377 1.004.598 1.492a20.088 20.088 0 0 0 1.924 3.13c.691-.285 3.131 2.081 4.586 2.578.212.074-1.262-3.066-1.566-3.517v-.009Z" fill="#F6A68B"/><path d="M79.074 250.171c.36-.322.69-.663 1.096-.921 1.307-.018 1.924 1.814 1.27 2.799-.441.304-1.03.276-1.537.396-.276-.764-.562-1.519-.829-2.274Z" fill="#FCC4B5"/><defs><linearGradient id="a" x1="190.329" y1="18.056" x2="240.003" y2="95.112" gradientUnits="userSpaceOnUse"><stop stop-color="#fff"/><stop offset="1" stop-color="#fff" stop-opacity="0"/></linearGradient></defs></svg>