<svg width="375" height="420" fill="none" xmlns="http://www.w3.org/2000/svg"><path d="M148.979 3.798c2.553-2.64 6.393-3.754 9.998-3.234 7.421.93 13.591 5.86 20.937 7.074 8.883 1.425 17.828-1.511 26.711-.012 5.327 1.003 10.233 3.977 13.628 8.189 1.486 1.833 2.564 3.952 3.803 5.947 0-2.342.037-4.758-.855-6.963-.755-1.933-2.292-3.395-3.506-5.03 2.751.93 4.535 3.494 5.29 6.182.806 2.812.421 5.773.174 8.648 3.555-.744 8.412-1.66 10.729 1.97-1.549-.434-3.023-1.066-4.609-1.376-1.611-.31-3.258.05-4.832.36 2.577 1.56 5.389 2.973 7.223 5.463 3.692 4.745 4.187 11.063 3.766 16.849-.694 8.437-2.849 16.75-5.934 24.629a29.3 29.3 0 0 0-3.06-2.33c-1.425-.94-3.11-1.436-4.807-1.56-2.812-.248-5.625-.434-8.425-.743.1-6.443 0-13.257-3.233-19.042-1.375-2.379-3.308-4.795-6.058-5.55-2.453-.347-4.943.235-7.421-.013-6.071-.57-11.819-2.825-17.283-5.389-2.292-1.226-4.546.657-6.776 1.103-6.443 1.548-13.219-.211-19.03-3.085a32.13 32.13 0 0 1-5.389-5.142c-2.23-2.663-3.11-6.107-4.609-9.167.112 2.081.31 4.237 1.376 6.083.966 2.007 2.614 3.642 3.295 5.773.05 2.478-1.115 4.794-1.796 7.148-2.218-1.97-4.312-4.2-5.39-7.024-1.474-3.754-2.465-7.979-1.362-11.956.421-1.548.916-3.072 1.301-4.62-2.515 2.304-2.961 5.872-3.085 9.08-.137 5.7 2.663 11.188 6.925 14.867 1.028.805 1.549 2.081 1.103 3.358-.483 2.502-1.933 4.633-3.122 6.838-1.945-2.366-3.283-5.129-4.733-7.805-2.602-5.03-4.72-10.543-4.646-16.291.025-3.816 1.351-7.743 4.163-10.407 1.549-1.536 3.605-2.366 5.563-3.221.408-3.457 1.387-7.062 3.976-9.552v-.05Zm1.747 4.398c2.193 1.362 4.807 1.833 7 3.184 2.775 1.672 5.389 3.617 7.842 5.736a688.868 688.868 0 0 0 13.43 11.298c4.1 3.383 8.808 5.922 13.528 8.313 2.998 1.537 6.381 2.367 9.75 2.07.83-.05 1.499-.583 2.193-.955-3.159-.483-6.405-.607-9.44-1.685-5.6-1.734-10.221-5.475-14.879-8.882-6.653-4.572-11.993-10.828-18.868-15.102-3.197-2.02-6.703-3.878-10.581-3.977h.025Zm.062 11.484c.545 2.651 2.044 4.956 3.804 6.963 3.952 4.77 9.774 7.631 15.733 8.994 1.908.297 4.423.669 5.613-1.276-2.763-.248-5.588-.025-8.264-.867-4.348-1.313-8.028-4.138-11.398-7.087-2.254-1.883-3.555-4.584-5.5-6.727h.012Zm73.144 11.175c2.082 1.697 4.621 2.887 6.319 5.03 1.622 1.747 2.093 4.274 3.89 5.897-.223-2.664-1.326-5.191-3.048-7.248-1.747-2.13-4.225-4.125-7.173-3.691l.012.012Zm-8.647 10.915c.743 4.298 4.224 7.272 7.297 10.034 3.085 2.776 7.346 4.423 11.521 3.68-1.709-1.14-3.865-.979-5.723-1.71-4.485-1.672-8.387-4.98-10.605-9.242-.57-1.127-1.313-2.205-2.49-2.762Z" fill="#58301F"/><path d="M150.713 8.209c3.865.1 7.384 1.957 10.58 3.977 6.876 4.274 12.215 10.518 18.868 15.102 4.659 3.42 9.28 7.148 14.879 8.883 3.036 1.078 6.282 1.201 9.441 1.685-.694.384-1.375.904-2.193.953-3.37.298-6.752-.532-9.75-2.068-4.72-2.392-9.428-4.919-13.541-8.313a688.868 688.868 0 0 1-13.43-11.299c-2.453-2.119-5.067-4.064-7.842-5.736-2.205-1.338-4.807-1.821-7-3.184h-.012Z" fill="#341707"/><path d="M139.752 26.036c.136-3.221.569-6.789 3.084-9.08-.384 1.548-.879 3.072-1.3 4.62-1.115 3.977-.112 8.202 1.362 11.955 1.078 2.825 3.172 5.055 5.389 7.025.682-2.354 1.834-4.658 1.797-7.148-.669-2.131-2.329-3.767-3.296-5.774-1.053-1.846-1.251-4.001-1.375-6.083 1.499 3.06 2.379 6.505 4.609 9.168a32.091 32.091 0 0 0 5.389 5.142c-3.655 6.628-5.513 14.036-6.975 21.408-1.449-1.92-3.01-3.878-3.791-6.182 1.189-2.206 2.639-4.337 3.122-6.84.446-1.275-.074-2.551-1.102-3.357-4.262-3.68-7.062-9.167-6.926-14.866l.013.012Z" fill="#3A1807"/><path d="M150.775 19.68c1.945 2.155 3.246 4.844 5.501 6.727 3.37 2.948 7.049 5.773 11.398 7.086 2.676.843 5.501.62 8.263.867-1.189 1.946-3.704 1.562-5.612 1.277-5.959-1.35-11.782-4.213-15.734-8.995-1.771-2.007-3.27-4.311-3.803-6.962h-.013Z" fill="#381906"/><path d="M223.936 30.856c2.948-.446 5.426 1.549 7.173 3.692 1.709 2.044 2.812 4.584 3.047 7.247-1.796-1.623-2.267-4.138-3.89-5.897-1.697-2.155-4.237-3.332-6.318-5.03l-.012-.012Z" fill="#39190A"/><path d="M155.41 35.859c5.81 2.886 12.587 4.633 19.029 3.085 2.23-.446 4.485-2.33 6.777-1.103 5.464 2.577 11.224 4.82 17.295 5.39 2.465.247 4.956-.335 7.421.011 2.763.756 4.695 3.172 6.058 5.55 3.221 5.786 3.333 12.6 3.234 19.043-3.457-.323-6.988-.508-10.246-1.822-3.729-1.462-7.421-3.308-11.497-3.469-5.253-.272-10.803-.198-15.647 2.107-2.032.904-3.296 2.8-4.361 4.67a79.68 79.68 0 0 0-6.43-.285c-1.846-2.601-4.385-4.745-7.495-5.624-3.605-1.214-7.483-1.314-11.249-1.041l.31-.1c1.945-.668 4.014-1.114 6.058-.742 2.304.297 4.46 1.424 6.801 1.4 1.821 0 3.197-2.404 1.933-3.853-1.598-1.636-3.94-2.193-6.108-2.664-3.023-.657-6.12-.05-8.92 1.14l.074-.31c1.45-7.371 3.308-14.78 6.975-21.408l-.012.025Zm31.009 19.97c-2.081.434-4.286.88-5.959 2.255-1.623 1.4-.136 4.423 1.933 4.237 3.419-.16 6.715-1.362 10.147-1.263 2.502-.112 4.844.892 7.309 1.164 1.127.161 2.366-.594 2.54-1.771-.223-1.363-1.462-2.23-2.59-2.837-4.088-2.094-8.882-2.59-13.38-1.797v.013Z" fill="#F5A288"/><path d="M215.275 41.77c1.177.557 1.921 1.635 2.491 2.762 2.217 4.262 6.12 7.558 10.604 9.242 1.859.731 4.014.57 5.724 1.71-4.175.743-8.437-.892-11.522-3.68-3.072-2.775-6.553-5.736-7.297-10.035Z" fill="#391A0A"/><path d="M186.42 55.83c4.497-.78 9.291-.297 13.38 1.797 1.127.607 2.366 1.474 2.589 2.837-.174 1.165-1.412 1.92-2.54 1.772-2.453-.273-4.807-1.276-7.309-1.165-3.444-.111-6.74 1.103-10.147 1.264-2.056.185-3.555-2.837-1.932-4.237 1.672-1.376 3.877-1.834 5.959-2.255v-.013Z" fill="#562F1E"/><path d="M148.374 57.577c2.799-1.19 5.897-1.796 8.92-1.14 2.168.471 4.509 1.029 6.107 2.664 1.264 1.437-.111 3.853-1.932 3.853-2.354.025-4.497-1.103-6.802-1.4-2.044-.372-4.125.074-6.058.743-1.251-1.387-.954-3.147-.223-4.708l-.012-.012Z" fill="#542D1C"/><path d="M139.739 65.421c2.837-1.053 5.587-2.379 8.548-3.048 3.754-.272 7.632-.173 11.249 1.041 3.11.892 5.637 3.035 7.496 5.624 2.155 0 4.286.1 6.43.285 1.065-1.858 2.329-3.766 4.36-4.67 4.844-2.305 10.395-2.379 15.648-2.106 4.076.173 7.767 2.007 11.496 3.469 3.259 1.313 6.79 1.499 10.246 1.82 2.8.31 5.612.496 8.425.744 1.709.124 3.369.62 4.806 1.561-1.957.186-3.914.483-5.822.954-2.701-.074-5.365-.533-8.053-.768-2.54.012-5.55-1.251-7.743.52-1.611 1.153-1.474 3.32-1.784 5.067-.607 4.386-1.747 9.143-5.191 12.216-3.779 3.22-9.193 3.654-13.9 2.75-3.915-.743-7.273-3.432-9.082-6.938-1.833-2.998-2.341-6.516-3.27-9.849-.682-2.552-4.138-2.862-6.108-1.623-.979 1.859-1.945 3.717-3.048 5.5.298-3.158.868-6.578-.681-9.526-4.856-4.41-12.463-5.303-18.41-2.7.843.21 1.697.433 2.552.643l-.074 2.466c-1.908-.112-3.803-.248-5.711-.384-.768 4.212-.57 8.61.644 12.723.669 2.28 2.193 4.237 4.113 5.6.942.446 1.92.83 2.924 1.14 1.784.322 3.617.458 5.414.198 2.007-.297 3.754-1.388 5.525-2.33-.458 1.14-.892 2.28-1.338 3.42-3.84 1.214-8.028 1.5-11.881.161-2.75-1.226-5.017-3.506-6.157-6.306-1.499-3.283-1.623-6.95-1.797-10.506.087-2.007-2.291-3.22-1.858-5.277-.149-1.19 1.214-1.437 2.032-1.871Zm37.03 3.543c-1.536 3.444-.297 7.384.781 10.803 1.202 4.597 5.005 8.338 9.7 9.218 4.287.433 9.28-.1 12.141-3.717 3.135-4.274 3.692-9.85 3.395-15.003l-.273-.025c-.446-1.288-.966-2.7-2.254-3.37-3.692-2.106-8.14-2.378-12.302-2.13-3.94.347-8.623.817-11.188 4.224Z" fill="#435A8C"/><path d="M145.326 65.742c5.934-2.59 13.541-1.697 18.41 2.7-1.412 1.252-2.787 2.528-4.163 3.792-1.734-.607-3.568-.967-5.401-.806-2.292.285-5.402 2.255-4.683 4.919 1.97.52 3.37-1.35 4.646-2.527 1.263.173 2.527.334 3.766.656.161.124.495.372.657.496-3.308 4.063-5.699 8.746-8.784 12.958a21.986 21.986 0 0 1-2.924-1.14c.297-5.983.619-11.967.954-17.939l.074-2.465c-.855-.21-1.709-.433-2.552-.644Z" fill="#FBCDC0"/><path d="M176.768 68.963c2.552-3.407 7.247-3.878 11.187-4.225-1.4 2.862-3.308 5.439-4.41 8.437a36.67 36.67 0 0 1-1.859 2.726c-1.189 1.486-2.651 2.713-4.15 3.865-1.078-3.42-2.304-7.359-.78-10.803h.012Z" fill="#F5AF9B"/><path d="M187.955 64.738c4.163-.248 8.611.025 12.303 2.13 1.288.67 1.808 2.082 2.254 3.37-.867-.11-1.722-.272-2.577-.383a306.98 306.98 0 0 0-3.704 4.237c-1.189-.855-2.379-1.735-3.642-2.49l-.421-.075c-2.986-.743-6.059.074-8.623 1.648 1.103-2.998 3.01-5.588 4.41-8.437Z" fill="#FACABE"/><path d="M163.736 68.443c1.548 2.936.978 6.368.681 9.527-1.288 2.59-2.589 5.167-3.704 7.843-1.759.941-3.506 2.031-5.526 2.329-1.796.26-3.63.124-5.414-.198 3.085-4.213 5.476-8.896 8.784-12.96 1.264 1.054 2.589 2.032 4.039 2.813.471-1.995-.706-3.667-2.156-4.894a15.07 15.07 0 0 0-.904-.656c1.387-1.276 2.763-2.552 4.163-3.791l.037-.013Z" fill="#FAB5A1"/><path d="M199.923 69.856c.855.111 1.71.272 2.577.384l.273.024c.297 5.142-.26 10.73-3.395 15.003-2.862 3.618-7.867 4.15-12.153 3.717 2.316-4.175 4.447-8.462 7.049-12.476a98.701 98.701 0 0 1 1.995-.21c-.025-.744-.05-1.475-.062-2.206a300.404 300.404 0 0 1 3.704-4.236h.012Z" fill="#F9B7A5"/><path d="M206.812 70.846c2.205-1.772 5.216-.508 7.743-.52 0 2.96-.57 5.884-1.016 8.808.347.112 1.028.36 1.363.47 2.267-3.084 4.559-6.243 7.693-8.51 1.908-.471 3.866-.756 5.823-.954a31.002 31.002 0 0 1 3.06 2.329c2.912 3.283 3.333 8.09 2.243 12.203-1.215 4.336-3.556 8.486-7.112 11.323-1.945 1.586-4.41 2.614-6.937 2.59-.979-.037-1.946-.137-2.912-.21 0 2.279.062 4.571.26 6.85.645 8.325.843 16.688 1.685 25.001.025 5.191.892 10.345.892 15.536-.718 2.527-1.833 4.943-3.246 7.16-5.525 6.765-13.702 11.299-22.386 12.278-5.997.731-12.365 0-17.605-3.197-2.961-1.759-5.154-4.745-5.91-8.102-.631-2.775-.334-5.624-.136-8.424 2.874-.05 5.786.037 8.598-.645 7.656-1.833 14.879-5.5 20.69-10.84 6.244-5.81 11.633-12.773 14.556-20.85.422-1.252.62-2.565.831-3.853-1.723 2.477-2.875 5.315-4.696 7.73-3.63 4.745-7.892 9.168-13.219 11.993-8.226 4.423-17.951 6.269-27.169 4.398l-.347-.05c-3.196-1.288-6.528-2.515-9.105-4.893-5.303-4.46-8.189-11.014-10.184-17.493-1.425-4.77-2.094-9.726-2.713-14.644-.31-2.304-.384-4.646-.062-6.963 3.853 1.338 8.04 1.053 11.881-.16 1.09 2.96 3.419 5.773 6.677 6.293 2.243-.037 4.361-.867 6.542-1.289-.174-.495-.36-.978-.545-1.462-2.156.285-4.2 1.24-6.381 1.264-2.391-.88-5.091-3.642-3.667-6.33 2.205-4.907 5.798-9.577 5.439-15.239 1.97-1.226 5.414-.929 6.108 1.623.929 3.333 1.424 6.839 3.27 9.85 1.822 3.505 5.179 6.194 9.081 6.937 4.708.904 10.122.47 13.901-2.75 3.444-3.06 4.596-7.818 5.191-12.216.322-1.747.186-3.915 1.784-5.067l.037.025Zm18.385 8.201c-3.419 2.8-6.244 6.703-6.839 11.175 1.983-1.945 2.032-5.253 4.597-6.677.78 1.945 1.226 4.038 2.415 5.798.471-2.54-.47-4.968-1.66-7.149 1.71-1.499 3.556-2.837 5.278-4.336-1.338.112-2.763.236-3.791 1.19Zm-54.449 20.888c-3.841.421-7.78.025-11.497 1.264-1.115 1.028-2.267 2.255-2.094 3.915.174 5.909 3.866 11.558 9.094 14.272 4.881 2.192 10.753 2.242 15.486-.36 3.778-1.969 6.479-5.562 7.941-9.502.867-3.271 1.511-6.95-.421-9.973l-.298.248c-1.115-.657-2.341-1.128-3.654-1.029-4.869.087-9.701.806-14.557 1.165Z" fill="#F5A48A"/><path d="M214.556 70.324c2.689.236 5.352.694 8.053.768-3.134 2.267-5.426 5.44-7.693 8.511-.347-.111-1.029-.359-1.363-.47.446-2.924 1.003-5.848 1.016-8.809h-.013Z" fill="#4F2A19"/><path d="M154.173 71.427c1.834-.173 3.667.199 5.402.806.297.198.607.421.892.656-.855.52-1.71 1.053-2.552 1.586-1.239-.322-2.515-.483-3.767-.656.583-.756 1.115-1.55 1.636-2.342-.397-.012-1.214-.05-1.611-.05Z" fill="#6E6868"/><path d="M183.558 73.175c2.576-1.56 5.637-2.39 8.622-1.647-.694-.075-1.4-.137-2.093-.199-.446.942-.892 1.884-1.326 2.825.235 0 .718-.025.954-.037-2.577.272-4.733 1.771-6.715 3.308-.434-.52-.867-1.028-1.301-1.537.669-.88 1.264-1.796 1.859-2.725v.012Z" fill="#726462"/><path d="M149.5 76.346c-.719-2.663 2.391-4.633 4.683-4.918.409 0 1.214.037 1.61.05-.532.792-1.053 1.585-1.635 2.34-1.276 1.178-2.688 3.049-4.658 2.528Z" fill="#524945"/><path d="M188.76 74.155c.433-.942.879-1.883 1.325-2.825.694.062 1.388.124 2.094.198l.421.075c-.347.817-.681 1.635-1.028 2.465-.619.012-1.239.037-1.858.062-.236 0-.719.025-.954.037v-.012Z" fill="#29150D"/><path d="M192.588 71.602c1.264.755 2.441 1.635 3.643 2.49.024.73.049 1.462.061 2.205-.669.074-1.338.136-1.994.21-.905-.83-1.821-1.635-2.726-2.44.335-.818.682-1.635 1.029-2.465h-.013Z" fill="#796B6F"/><path d="M312.216 20.498c.384-.384.941-.52 1.449-.719.223 2.082.273 4.175.211 6.27-.595 0-1.19 0-1.772.012-.05-1.859-.297-3.742.112-5.563ZM297.895 25.514c1.907.681 3.518 2.044 4.583 3.753.298.57-.037 1.252-.012 1.859-1.895-1.5-4.138-3.048-4.559-5.612h-.012ZM327.145 38.747a57.168 57.168 0 0 1 6.182-.025v1.425c-2.057.099-4.114.099-6.17-.025v-1.375h-.012ZM326.215 26.21c.532-.434 1.387-.867 1.821-.05-.83 1.797-2.292 3.283-3.965 4.324-.508-.186-.991-.434-1.462-.657 1.177-1.226 2.28-2.552 3.606-3.617ZM304.794 33.432c4.534-4.386 12.612-4.213 16.837.52 3.085 3.221 3.778 8.202 2.378 12.352-.793 2.255-2.676 3.828-3.939 5.785-1.153 1.81-1.14 4.027-1.388 6.07-1.933.112-3.853.224-5.785.249-1.921.024-3.829.062-5.749.124-.334-1.896-.396-3.866-1.041-5.687-.768-1.697-2.168-2.998-3.146-4.559-3.023-4.534-2.404-11.299 1.846-14.867l-.013.013Zm.236 2.168c-2.317 2.614-2.776 6.504-1.599 9.725.818 2.23 2.577 3.89 3.829 5.86 1.053 1.598 1.288 3.543 1.598 5.39.607.061 1.201.123 1.821.197.235-3.493-.161-6.987-.297-10.48-1.425-.509-3.779-.806-3.73-2.776-.322-1.833 2.392-3.023 3.568-1.61.682.855.855 1.994 1.202 3.01 1.09-.148 2.181-.31 3.271-.47.533-1.103.879-2.404 1.858-3.21 1.09-.371 2.59.125 2.713 1.413.422 1.945-1.907 2.503-3.208 3.196-.409 3.668-.459 7.372-.471 11.064.285.024.842.074 1.115.086.372-1.808.595-3.691 1.462-5.352 1.152-2.019 3.06-3.518 4.039-5.649 1.771-3.865.656-8.784-2.478-11.62-4.076-3.792-11.262-3.098-14.706 1.201l.013.025Zm2.923 7.037c.186.966.645 1.833 1.586 2.23.025-.459.087-1.363.124-1.822l-1.71-.408Zm3.952 3.37c-.049 3.567.1 7.135.508 10.666.397.013 1.214.05 1.611.075.074-3.606.285-7.198.471-10.803-.88.024-1.735.037-2.602.061h.012Z" fill="#FFF2E0"/><path d="M305.03 35.6c3.444-4.311 10.642-4.993 14.705-1.202 3.135 2.825 4.262 7.756 2.478 11.621-.979 2.131-2.887 3.63-4.051 5.65-.867 1.647-1.09 3.543-1.462 5.351-.273-.024-.83-.074-1.115-.086 0-3.692.062-7.396.471-11.064 1.301-.693 3.63-1.25 3.209-3.196-.124-1.288-1.623-1.784-2.714-1.412-.991.805-1.338 2.106-1.858 3.209-1.09.16-2.18.31-3.271.47-.359-1.016-.52-2.143-1.201-3.01-1.165-1.413-3.89-.223-3.568 1.61-.05 1.97 2.304 2.268 3.729 2.775.136 3.494.532 6.975.297 10.481-.619-.074-1.226-.136-1.821-.198-.31-1.846-.558-3.79-1.598-5.389-1.252-1.97-3.011-3.642-3.828-5.86-1.19-3.221-.719-7.111 1.598-9.725V35.6Z" fill="#FFD08E"/><path d="M291.924 39.317c2.143-.335 4.324-.335 6.467-.161 0 .36-.013 1.078-.025 1.45-1.734.049-3.481.247-5.203 0-.632-.137-.843-.868-1.239-1.29Z" fill="#FFF2E0"/><path d="M307.953 42.637c.558.136 1.128.272 1.71.408a92.776 92.776 0 0 1-.124 1.822c-.942-.397-1.388-1.276-1.586-2.23ZM316.554 44.867a92.776 92.776 0 0 0-.124-1.822l1.709-.408c-.185.966-.644 1.833-1.585 2.23ZM311.896 46.007c.855-.024 1.723-.037 2.602-.062-.186 3.593-.409 7.198-.471 10.803-.396-.024-1.201-.05-1.61-.074-.409-3.543-.558-7.111-.508-10.667h-.013Z" fill="#FFD08E"/><path d="M306.666 58.544h.471a296.31 296.31 0 0 1 5.748-.137c1.958-.012 3.915.1 5.873.198 0 .347-.038 1.041-.05 1.388-4.002.074-8.003.087-12.005.05 0-.385-.025-1.128-.037-1.512v.013Z" fill="#5F8FBB"/><path d="M306.729 61.431c4.038-.347 8.089-.36 12.141-.458 0 .384-.038 1.152-.05 1.536-4.026.322-8.053.495-12.091.434V61.43Z" fill="#5E89B2"/><path d="M306.912 63.86c3.729 0 7.669.136 11.435 0-.037.334-.52.879-.557 1.213-.422.608-.781 1.846-1.462 2.008-1.202.483-4.931.495-6.579.16-2.081-.52-.347-1.226-2.18-2.279l-.657-1.09v-.013Z" fill="#5F88AF"/><path d="M164.417 77.958c1.102-1.784 2.081-3.643 3.047-5.501.347 5.662-3.246 10.332-5.438 15.238-1.425 2.689 1.263 5.452 3.667 6.331 2.168-.025 4.224-.979 6.38-1.264.173.484.359.967.545 1.462-2.18.421-4.299 1.252-6.541 1.289-3.271-.52-5.588-3.333-6.69-6.294.446-1.14.879-2.292 1.338-3.42 1.115-2.663 2.416-5.252 3.704-7.841h-.012Z" fill="#D0684F"/><path d="M157.912 74.476c.843-.545 1.697-1.065 2.552-1.585 1.437 1.226 2.614 2.899 2.156 4.893-1.45-.78-2.775-1.771-4.039-2.812-.161-.124-.495-.36-.657-.496h-.012Z" fill="#2F1B15"/><path d="M189.714 74.13c.619-.024 1.239-.05 1.858-.062.917.806 1.822 1.623 2.738 2.441-2.601 4.014-4.732 8.3-7.049 12.476-4.695-.892-8.499-4.634-9.7-9.218 1.499-1.152 2.973-2.378 4.15-3.865.433.508.867 1.016 1.301 1.536 1.982-1.549 4.138-3.035 6.714-3.308h-.012Z" fill="#FBCDC1"/><path d="M225.186 79.047c1.029-.954 2.453-1.078 3.791-1.19-1.722 1.5-3.568 2.838-5.277 4.337 1.189 2.18 2.143 4.608 1.66 7.148-1.177-1.76-1.636-3.853-2.416-5.798-2.565 1.425-2.614 4.745-4.596 6.678.582-4.473 3.419-8.375 6.838-11.175Z" fill="#C76246"/><path d="M54.961 90.743c2.131-.67 4.485-1.574 6.715-.756 2.465.991 3.816 3.456 4.795 5.773-5.786-.248-11.324 1.809-16.85 3.197-1.585.371-3.047 1.077-4.36 2.031 6.814-1.003 13.318-3.766 20.218-4.2 3.507-.173 4.498 3.952 4.584 6.715a83.33 83.33 0 0 0-19.81 3.444c1.735.087 3.47.075 5.18-.223 4.286-.78 8.61-1.449 12.958-1.759 1.747-.062 3.878-.111 5.067 1.412 1.3 1.574 1.003 3.742.979 5.637-4.114-.532-8.288-.247-12.377.384-1.437.223-2.812.744-4.138 1.326 4.634.198 9.193-1.301 13.826-.805 1.227.099 2.552.755 2.763 2.106.88 4.039-.025 8.214-.954 12.166-.31.619-.979.929-1.635 1.04-2.342.273-4.696.446-7.037.744v-4.683c1.412.384 2.825.78 4.25 1.177l-1.116-1.71c.756-1.028 1.5-2.069 2.255-3.097-1.264.867-2.465 1.92-3.952 2.366-1.016 0-1.995-.285-2.973-.495-.26 2.676-.186 5.475 1.176 7.891 2.28 4.696 4.646 9.862 3.569 15.214-.372 2.453-1.908 4.447-3.122 6.529-.806 1.759-1.165 3.667-1.55 5.538-7.866-.744-15.56-2.689-23.03-5.179 0-1.61 0-3.221-.087-4.819-.359-3.878-1.412-7.644-2.056-11.472-1.636-9.032-3.246-18.063-4.46-27.157-.248-3.233-.892-7.47 2.304-9.527 5.835-3.79 12.315-6.504 18.88-8.759l-.012-.05Z" fill="#F4A489"/><path d="M49.61 98.945c5.538-1.387 11.064-3.444 16.85-3.196.47.136.928.335 1.362.595 1.065.842 2.193 1.796 2.614 3.146.607 1.524.669 3.358 1.883 4.584.904 1.029 2.07 1.871 2.7 3.122.583 1.338.286 2.837.187 4.25-.372 2.143.916 4.125.805 6.269-.111 3.27-.743 6.628-2.49 9.44.941-3.952 1.833-8.127.954-12.166-.198-1.338-1.536-2.007-2.763-2.106-4.633-.496-9.193 1.003-13.826.805 1.326-.582 2.7-1.103 4.138-1.326 4.088-.631 8.251-.916 12.376-.384.025-1.895.335-4.063-.978-5.637-1.19-1.523-3.32-1.474-5.067-1.412-4.349.31-8.673.979-12.96 1.759-1.709.298-3.443.31-5.178.223a83.438 83.438 0 0 1 19.81-3.444c-.087-2.762-1.065-6.888-4.584-6.715-6.913.434-13.404 3.197-20.218 4.2 1.313-.954 2.787-1.66 4.36-2.031l.025.024ZM116.387 328.598c1.35 3.976 1.61 8.3 3.592 12.054 2.825 5.389 6.232 10.506 10.42 14.941-.88-.173-1.772-.334-2.639-.533-1.326-3.109-3.952-5.376-5.6-8.3-3.196-5.34-5.947-11.324-5.748-17.667v-.495h-.025Z" fill="#C25D42"/><path d="M67.834 96.343c1.784-.248 3.779-.495 5.352.607 2.626 1.809 4.014 4.807 5.55 7.508.706 1.511 1.784 3.184 1.289 4.918-.78 1.908-3.085 1.871-4.807 2.082.099-1.413.396-2.912-.186-4.25-.632-1.251-1.784-2.094-2.7-3.122-1.215-1.226-1.277-3.06-1.884-4.584-.434-1.35-1.549-2.304-2.614-3.146v-.013Z" fill="#F4A588"/><path d="M216.771 98.387c.967.086 1.933.173 2.912.21-.756 2.255-1.66 4.473-2.651 6.641-.199-2.28-.248-4.559-.261-6.851Z" fill="#502A18"/><path d="M170.759 99.934c4.857-.371 9.688-1.077 14.557-1.164 1.313-.111 2.54.372 3.643 1.028-1.586 1.338-3.308 2.528-5.253 3.271-5.811 2.242-12.129 3.134-18.336 2.664-1.474-.162-3.023-.335-4.274-1.177-1.041-.818-1.326-2.193-1.846-3.345 3.717-1.24 7.669-.843 11.497-1.264l.012-.013Z" fill="#FEFEFE"/><path d="m188.949 99.787.297-.248c1.933 3.035 1.288 6.715.421 9.973-4.026-.731-8.3-1.127-12.228.347-4.782 1.623-8.548 5.315-11.199 9.515-5.241-2.713-8.92-8.363-9.094-14.272-.173-1.648.979-2.887 2.094-3.915.52 1.152.805 2.527 1.846 3.345 1.251.83 2.812 1.016 4.274 1.177 6.207.471 12.525-.421 18.336-2.664 1.945-.743 3.667-1.933 5.253-3.27v.012Z" fill="#701115"/><path d="M177.438 109.872c3.915-1.475 8.189-1.078 12.228-.347-1.462 3.939-4.163 7.52-7.942 9.502-4.732 2.602-10.604 2.552-15.486.359 2.664-4.2 6.418-7.891 11.2-9.514Z" fill="#DE594C"/><path d="M210.291 117.031c1.834-2.415 2.974-5.252 4.696-7.73-.211 1.288-.397 2.601-.818 3.853-2.924 8.077-8.3 15.052-14.557 20.85-5.81 5.34-13.045 9.007-20.689 10.841-2.813.669-5.724.594-8.598.644l-.409.025c.582-4.002.396-8.078 0-12.092 9.217 1.858 18.943.025 27.169-4.398 5.327-2.825 9.589-7.248 13.219-11.993h-.013Z" fill="#CE6851"/><path d="M66.31 122.98c1.487-.446 2.689-1.499 3.952-2.367-.755 1.029-1.499 2.069-2.254 3.098l1.115 1.709a559.121 559.121 0 0 0-4.25-1.177 294.77 294.77 0 0 0 0 4.683c2.342-.297 4.696-.471 7.037-.743-2.329 1.152-5.017 1.14-7.384 2.193-1.362-2.404-1.437-5.204-1.177-7.892.98.211 1.958.508 2.974.496h-.013Z" fill="#C15D41"/><path d="M219.61 145.774c0-5.191-.867-10.345-.892-15.536 3.779.186 7.533.892 11.101 2.144 5.959 2.168 10.827 6.578 14.594 11.583 1.139 1.462 1.895 3.221 3.184 4.584 1.734 1.028 3.778 1.363 5.661 2.069a213.667 213.667 0 0 1 23.861 10.122c9.849 4.968 19.661 10.283 28.036 17.542 5.551 5.377 9.354 12.203 13.145 18.869 9.738 18.087 16.638 37.55 22.511 57.187a518.445 518.445 0 0 1 6.417 24.468c.719 3.209 1.425 6.43 2.032 9.676 2.106 11.274 3.655 22.671 4.324 34.131-.087 1.92-.1 3.828-.087 5.748v2.887a97.45 97.45 0 0 1-.174 4.646c-.173 2.478-.371 4.956-.755 7.421-.657 3.816-1.475 7.619-2.825 11.249-1.264 2.973-3.023 5.885-5.773 7.718-2.627 1.722-5.513 2.998-8.412 4.213-2.23.854-4.522 1.61-6.802 2.316-1.276.384-2.564.756-3.853 1.09-1.078.199-2.155.397-3.233.62-3.444.706-6.926 1.276-10.407 1.796-2.193.298-4.386.521-6.591.706-15.659 1.487-31.393 1.933-47.115 1.784-11.137-.173-22.498.93-33.388-1.932-3.84-.905-7.185-3.11-10.952-4.25 2.354 2.503 5.637 3.717 8.797 4.857 6.33 2.081 13.082 1.771 19.624 2.701 9.539 1.3 19.178 1.647 28.742 2.8 7.891.867 15.734 2.031 23.601 3.097 4.398.557 8.771 1.4 13.219 1.449 1.362 5.873 2.601 11.782 3.852 17.679.285 1.45.57 2.912.793 4.386.707 5.302 1.747 10.592 1.611 15.969h-95.184c-4.348-.062-8.722.273-13.045-.372-1.475-17.133-1.809-34.342-1.673-51.525-3.568-.198-7.198-.396-10.568-1.635 1.499-1.227 3.098-2.428 4.188-4.064 1.338-2.019 2.044-4.373 2.8-6.653-.88-.049-1.76-.086-2.627-.086.967-.1 1.921-.248 2.874-.372 1.338-5.203 1.239-10.605.607-15.895 5.786-.793 11.547-1.759 17.357-2.428 1.252 6.157 1.983 12.562.521 18.757-.719 3.704-2.974 6.851-3.866 10.493 1.19-1.016 2.329-2.143 2.961-3.593 2.082-4.398 3.073-9.267 3.246-14.123.136-3.952-.632-7.867-1.449-11.72a1227.57 1227.57 0 0 1 20.999-3.283c2.255-.359 4.547-.446 6.764-1.016 1.338-.31 2.02-1.611 2.701-2.664.334-1.09.557-2.192.78-3.307-12.203-.199-24.418.086-36.609-.174 1.908-2.379 4.609-3.89 7.396-4.993 13.765-5.723 28.47-8.585 42.593-13.219 4.485-1.412 8.97-2.886 13.566-3.89 1.227-.347 2.577-.532 3.568-1.4-.124-2.7-1.152-5.228-1.759-7.829-2.032-8.103-3.518-16.341-5.005-24.555-.731-3.667-.706-7.495-2.094-11.014-1.078 2.763-.483 5.736-.347 8.598.298 5.278.768 10.531 1.227 15.796.384 4.881.446 9.886-.843 14.656-.83 3.085-2.973 5.81-5.835 7.247-3.109 1.561-6.529 2.268-9.824 3.271-10.617 3.085-21.346 5.835-31.827 9.378-4.819 1.772-9.812 3.903-13.157 7.966-2.676.062-5.365.062-8.041.05.025-7.991.669-15.944.818-23.911.211-4.224.211-8.449.471-12.673.57-7.248.483-14.533 1.065-21.768.298-3.729.409-7.458.558-11.187 1.177-22.919 3.233-45.802 6.554-68.523 1.808-13.12 3.877-26.202 5.835-39.297.235-1.586.433-3.184.532-4.782l-.074-.05Zm29.25 6.207c.223 1.202.483 2.416.867 3.593 2.54 7.47 4.646 15.126 5.687 22.969.297 3.122.52 6.306.05 9.428-.174 1.598-1.561 3.072-3.259 2.899-4.596-.471-7.842-4.968-12.612-4.783-3.53.273-5.637 3.593-7.321 6.319-4.696 8.585-9.366 17.22-12.972 26.339-1.263 3.345-2.738 6.665-3.283 10.22.607-1.04 1.165-2.106 1.574-3.233 1.573-4.411 3.444-8.71 5.5-12.922 3.606-7.272 7.223-14.569 11.584-21.433 1.226-1.821 2.924-3.952 5.364-3.766 4.262.632 7.409 4.225 11.695 4.82 1.425.247 2.949-.31 3.804-1.512 1.722-2.168 1.548-5.104 1.598-7.718-.161-9.54-3.023-18.794-6.331-27.665-.458-1.288-1.139-2.465-1.945-3.555Zm46.248 29.039c-6.479 5.959-11.262 13.554-14.83 21.557-3.691 8.016-6.169 16.552-7.743 25.224-1.585 8.969-2.205 18.137-1.338 27.218.199 1.45-.049 3.259 1.351 4.2.198-3.196-.322-6.368-.384-9.552a112.458 112.458 0 0 1 8.201-44.154c2.998-7.185 6.888-14.086 11.98-20.008 1.995-2.44 4.72-4.212 6.517-6.839-1.388.533-2.689 1.289-3.754 2.33v.024Zm-82.275 84.517.149 1.623c1.722.261 3.457.669 5.203.409.719-.087 1.301-.644 1.103-1.387-1.945-1.19-4.311-1.016-6.455-.645Zm1.289 31.406c-1.028.372-1.97 1.425-1.636 2.577.335 2.181 3.791 2.205 4.584.359.62-1.684-1.276-3.605-2.948-2.936Zm74.184 5.327c-2.341.657-4.893 1.004-6.801 2.652 3.172.297 6.331-.347 9.502-.322 11.076.049 22.102 3.184 31.542 8.969.248-.124.744-.384.992-.508-3.395-3.332-8.078-4.807-12.464-6.368-7.284-2.564-15.077-3.246-22.758-3.085 1.474-.73 3.035-1.3 4.67-1.523 7.05-1.066 14.297-1.462 21.334-.087 2.899.545 5.588 1.809 8.474 2.428-.594-.78-1.226-1.61-2.168-1.957-5.947-2.552-12.575-2.713-18.943-2.478-4.546.149-9.019 1.103-13.392 2.279h.012Zm-76.352 89.547c0 .36-.013 1.066-.013 1.425 2.515-.049 5.315.632 7.545-.879-2.428-.843-5.005-.645-7.532-.533v-.013ZM29.588 164.185c.941-5.315 1.115-10.89 3.37-15.871 2.019 2.094 4.633 3.469 7.433 4.176 7.483 2.49 15.176 4.435 23.03 5.178 3.16.446 6.406-.087 9.181-1.71.607 5.129.074 10.283.186 15.425 1.19.941 2.44 1.895 3.159 3.27 1.004 1.871 1.388 3.989 1.722 6.071.904 6.318 1.524 12.698 2.032 19.066 0 3.928.718 7.805 1.14 11.695.62 4.968 1.14 9.949 2.031 14.879-13.727.025-27.453-.049-41.18-.049-9.168-.074-18.348.136-27.516-.05l-.05-.755a11.205 11.205 0 0 1 .062-1.933 4228.916 4228.916 0 0 1 7.62-48.156c.495-2.638.88-5.438 2.527-7.656 1.313-1.747 3.382-2.626 5.265-3.593l-.012.013Zm.88 1.969c.854.806 1.759 1.586 2.812 2.156 6.578 3.494 13.764 5.736 21.073 7.124 5.228.842 10.63 1.35 15.87.396.818-.062 1.363-.681 1.871-1.251-3.84.049-7.669.694-11.51.297-9.39-.768-18.62-3.469-26.995-7.78-.99-.446-2.056-.694-3.122-.929v-.013ZM156.847 138.316c3.976-2.267 8.449-3.357 12.698-4.943l.347.05c.409 4.014.582 8.09 0 12.091-2.168 4.485-4.163 9.056-5.897 13.727l-.149.434c-2.775 7.297-4.881 14.829-6.913 22.362-4.323 16.477-7.359 33.301-9.155 50.237-.644-2.193-1.549-4.894-3.952-5.662-2.812-.607-5.699-.198-8.548-.248-8.92-.025-17.828.074-26.748-.025 1.821-10.406 3.37-20.912 3.382-31.492 0-1.078-.136-2.156-.21-3.234-.632 1.524-.93 3.172-.967 4.82-.21 6.058-1.003 12.091-1.883 18.087-.557 3.94-1.462 7.842-1.833 11.807-7.558.049-15.115.012-22.66.012-.805-6.318-1.623-12.624-2.378-18.942-.285-2.837-.583-5.674-1.338-8.425 4.968-6.665 10.121-13.194 15.35-19.649 3.828-4.546 7.742-9.056 12.19-13.02 1.821-1.648 3.878-2.998 6.083-4.076 7.83-3.853 15.969-7.099 24.344-9.614 1.487-.471 3.184-.83 4.113-2.218 3.729-5.017 8.561-9.192 14.099-12.091l.025.012Zm-23.056 22.536c-2.664 4.15-4.757 8.647-6.641 13.206-.817 2.082-1.622 4.386-1.015 6.628.309 1.128 1.511 1.648 2.552 1.859 3.171.557 6.231-1.264 9.39-.707 1.227.657 1.673 2.094 2.045 3.333.842 3.32 1.164 6.74 1.548 10.147.545 5.327 1.264 10.654 1.883 15.969.137 1.263.496 2.49.93 3.679.359-3.332-.223-6.653-.521-9.96-.594-6.331-.941-12.711-1.722-19.017-.359-2.267-.818-5.03-3.072-6.182-3.618-1.338-7.669 1.908-11.113-.137-.347-2.304.632-4.522 1.474-6.603 1.635-4.051 3.568-7.978 5.674-11.807 1.214-2.192 2.763-4.187 3.928-6.417-2.441 1.326-3.853 3.779-5.352 5.996l.012.013ZM82.996 342.945c7.619.037 18.038.05 25.657 0 2.416 4.126 4.287 5.897 8.4 7.805 1.214.496 2.478.905 3.704 1.388 2.243 1.164 4.497 2.379 7 2.911.88.199 1.759.36 2.639.533 4.026.842 7.978 2.193 12.141 2.255-.149 5.971-.099 11.943-.211 17.914-.582 14.359-.334 28.755-1.387 43.101-.087.843-.199 1.697-.298 2.552-9.539.273-19.091.037-28.63.124-13.083 0-26.166.025-39.248-.025a297.664 297.664 0 0 0-.471-4.782c-.025-1.003 0-1.994.012-2.986.236-12.153 2.218-24.183 4.163-36.15 1.908-11.101 3.853-22.201 6.108-33.227.123-.484.272-.954.409-1.413h.012Zm47.189 44.216c-1.487.83-1.895 2.974-1.003 4.386 1.065 2.106 4.943 1.71 5.253-.768.706-2.416-1.958-4.72-4.25-3.618Z" fill="#6A86C4"/><path d="m169.917 145.515.408-.025c-.198 2.8-.495 5.65.137 8.425.755 3.357 2.948 6.343 5.909 8.102 5.228 3.184 11.609 3.927 17.605 3.196 8.684-.991 16.861-5.513 22.387-12.277.285 3.469-.285 6.938-1.078 10.308-.273 1.164-.855 2.279-1.846 2.985-6.12 4.621-13.764 6.864-21.359 7.297-7.668.434-15.572-1.734-21.643-6.529-2.713-2.069-3.977-5.401-6.417-7.73 1.722-4.671 3.716-9.242 5.897-13.727v-.025Z" fill="#E9E9E9"/><path d="M216.364 152.922c1.412-2.217 2.54-4.621 3.246-7.16-.099 1.598-.297 3.196-.533 4.782-1.945 13.095-4.026 26.178-5.835 39.297-3.32 22.709-5.377 45.592-6.554 68.523-.161 3.729-.26 7.458-.557 11.188-.582 7.247-.496 14.519-1.066 21.767-.272 4.224-.26 8.449-.47 12.674-.149 7.978-.793 15.932-.818 23.91h-7.21c.371-2.948.322-5.934.334-8.895.979-19.215 1.858-38.43 3.605-57.596 2.007-22.672 4.956-45.269 8.896-67.68a228.95 228.95 0 0 1 2.292-12.278c.978-4.547 1.511-9.168 2.576-13.702-4.038 2.242-8.201 4.373-12.661 5.637-6.38 1.747-13.207 2.205-19.649.545-4.051-.979-8.077-2.502-11.311-5.216-2.911-2.428-5.909-5.215-6.764-9.056l.148-.434c2.441 2.33 3.705 5.662 6.418 7.731 6.058 4.795 13.975 6.963 21.643 6.529 7.595-.434 15.226-2.676 21.359-7.297.991-.706 1.586-1.821 1.846-2.986.805-3.369 1.362-6.838 1.078-10.307l-.013.024Z" fill="#BFBFBF"/><path d="M32.948 148.314c2.379-.681 4.869-.842 7.334-.656.087 1.61.087 3.208.087 4.819-2.8-.706-5.414-2.069-7.434-4.175l.013.012ZM63.412 157.655c.384-1.871.743-3.791 1.549-5.538 2.725.694 6.48.719 7.631 3.841-2.775 1.61-6.02 2.155-9.18 1.709v-.012Z" fill="#4B5A7D"/><path d="M248.871 151.98c.793 1.103 1.487 2.28 1.945 3.568 3.32 8.871 6.17 18.125 6.331 27.665-.05 2.614.124 5.55-1.598 7.718-.855 1.189-2.379 1.747-3.804 1.512-4.274-.595-7.433-4.2-11.695-4.82-2.441-.198-4.138 1.945-5.377 3.767-4.361 6.851-7.978 14.148-11.583 21.432-2.044 4.2-3.928 8.499-5.501 12.922-.409 1.127-.966 2.205-1.573 3.233.557-3.555 2.019-6.875 3.283-10.22 3.605-9.119 8.275-17.754 12.971-26.339 1.685-2.738 3.778-6.046 7.322-6.319 4.757-.185 8.003 4.312 12.612 4.783 1.697.173 3.084-1.289 3.258-2.899.471-3.122.248-6.306-.05-9.428-1.04-7.843-3.146-15.486-5.686-22.969a25.642 25.642 0 0 1-.867-3.593l.012-.013ZM133.804 160.852c1.499-2.218 2.911-4.683 5.352-5.997-1.165 2.23-2.713 4.225-3.927 6.418-2.106 3.828-4.039 7.755-5.674 11.807-.843 2.093-1.809 4.298-1.475 6.603 3.457 2.032 7.508-1.214 11.113.136 2.255 1.14 2.713 3.915 3.073 6.17.78 6.318 1.115 12.686 1.722 19.017.297 3.308.879 6.628.52 9.96-.446-1.189-.793-2.415-.929-3.679-.62-5.327-1.338-10.642-1.883-15.969-.384-3.407-.706-6.827-1.549-10.147-.372-1.251-.818-2.688-2.044-3.333-3.159-.557-6.232 1.264-9.391.707-1.053-.211-2.255-.731-2.552-1.859-.607-2.242.211-4.546 1.016-6.628 1.883-4.559 3.977-9.044 6.64-13.206h-.012Z" fill="#3D5B9C"/><path d="M156.971 182.038c2.031-7.533 4.125-15.065 6.913-22.362.854 3.853 3.865 6.64 6.764 9.056 3.221 2.713 7.247 4.225 11.311 5.216 6.442 1.66 13.281 1.214 19.649-.545 4.46-1.264 8.622-3.395 12.661-5.637-1.065 4.534-1.586 9.155-2.577 13.702a231.1 231.1 0 0 0-2.292 12.277c-3.939 22.412-6.888 45.009-8.895 67.681-1.747 19.165-2.626 38.393-3.605 57.596 0 2.961.037 5.946-.335 8.895-7.594-.074-15.188.173-22.783-.161-1.164-3.246-1.982-6.579-2.886-9.899-5.836-20.937-11.398-41.949-17.097-62.935-1.97-7.558-4.187-15.065-5.996-22.66 1.796-16.935 4.831-33.759 9.155-50.237l.013.013Z" fill="#E9E9E9"/><path d="M30.454 166.155c1.065.235 2.13.483 3.122.929 8.362 4.311 17.604 7.012 26.995 7.78 3.84.397 7.669-.247 11.51-.297-.508.57-1.054 1.189-1.871 1.264-5.253.941-10.642.433-15.883-.409-7.297-1.388-14.495-3.618-21.073-7.124-1.053-.557-1.945-1.35-2.813-2.155l.013.012ZM295.12 181.021c1.066-1.054 2.367-1.797 3.754-2.33-1.796 2.614-4.522 4.386-6.516 6.839-5.092 5.922-8.982 12.81-11.98 20.008a112.477 112.477 0 0 0-8.202 44.154c.062 3.184.582 6.356.384 9.552-1.4-.942-1.164-2.75-1.35-4.2-.867-9.081-.248-18.261 1.338-27.218 1.573-8.672 4.051-17.208 7.743-25.224 3.568-8.003 8.35-15.598 14.829-21.557v-.024ZM110.775 196.446c.025-1.66.335-3.295.967-4.819.074 1.065.21 2.156.21 3.233 0 10.581-1.561 21.086-3.382 31.493h-1.511c.384-3.977 1.276-7.867 1.833-11.807.892-5.996 1.685-12.017 1.883-18.087v-.013ZM79.688 199.79c.247-.211.743-.607.978-.806.744 2.751 1.053 5.6 1.338 8.437.744 6.319 1.561 12.637 2.379 18.943h-1.511c-.892-4.931-1.4-9.911-2.032-14.879-.434-3.89-1.14-7.768-1.14-11.695h-.013Z" fill="#3D5B9C"/><path d="M2.368 226.836c3.072-.731 6.442-.52 9.143-.569.632-.038 2.156 0 2.651 0 9.168.173 18.348-.038 27.516.049 13.727 0 27.454.074 41.18.037h1.512c7.557 0 15.102.025 22.659-.012h1.512c8.92.099 17.827 0 26.747.025 2.837.049 5.736-.36 8.549.247 2.416.769 3.308 3.469 3.952 5.662 1.809 7.607 4.026 15.102 5.996 22.659 5.699 20.975 11.274 41.986 17.097 62.924.904 3.307 1.722 6.652 2.886 9.898.298.843.583 1.673.843 2.54.694 2.081.842 4.311.545 6.479-.508.248-1.004.508-1.512.756a616.066 616.066 0 0 0-6.937-25.719c-2.206-8.264-4.361-16.527-6.74-24.753-4.286-16.316-8.808-32.558-13.219-48.837-.818-2.949-1.363-6.269-3.754-8.412-1.251-1.227-3.072-1.475-4.757-1.524-42.692.111-85.397-.025-128.089.062-3.332-.124-6.69-.025-9.96.743.68-.793 1.25-1.734 2.168-2.255h.012Z" fill="#DFE5E9"/><path d="M.202 229.102c3.27-.768 6.616-.867 9.96-.743 42.693-.087 85.398.049 128.09-.062 1.672.037 3.493.297 4.757 1.524 2.391 2.143 2.936 5.463 3.754 8.412 4.41 16.291 8.932 32.533 13.219 48.849 2.378 8.214 4.547 16.49 6.739 24.753a595.177 595.177 0 0 1 6.938 25.72c-2.217 1.164-4.782 1.015-7.198.805-4.881-.446-9.775-.149-14.656-.298-2.663-.086-5.339-.024-7.978.31-1.97-4.472-3.581-9.415-7.471-12.649-1.251-1.127-3.283-1.871-4.757-.718-1.239 1.04-.905 2.849-.83 4.274.025.21.087.644.111.855a67.305 67.305 0 0 0 1.698 7.681c-.756.124-1.512.247-2.268.384-2.007-4.584-3.27-9.614-6.343-13.665-1.462-2.057-4.707-2.949-6.764-1.301-1.202 1.474-.756 3.593-.793 5.364v.496c-1.573-.05-3.258-.434-4.782.198-1.103.669-.892 2.131-.904 3.246.346 1.276.731 2.54 1.09 3.816.136.471.272.941.409 1.425-10.89.458-21.78.086-32.682.173-14.111.012-28.235 0-42.358.05-1.412 0-2.825-.025-4.237-.137-1.425-.694-2.862-1.647-3.506-3.159-1.127-2.8-1.165-3.791-2.341-7.086-.05-.335-.41-1.537-.694-2.974-.979-4.534-2.28-7.557-3.506-12.029-2.937-10.308-5.86-20.615-8.883-30.886-1.697-5.575-3.097-11.249-4.968-16.774-.496-1.97-1.053-3.915-1.623-5.86-2.391-8.251-4.72-16.527-7.124-24.778-.495-1.71-.272-3.494-.086-5.228H.202v.012Zm78.546 46.459c-2.8.247-5.575 1.598-7.186 3.952-2.143 2.973-2.205 7.086-.718 10.357 2.601 6.182 10.617 9.688 16.774 6.702 3.866-1.586 6.083-6.12 5.154-10.171-1.276-6.269-7.545-11.41-14.037-10.853l.013.013Z" fill="#B2B7BF"/><path d="M272.087 269.565c-.124-2.862-.718-5.835.347-8.598 1.388 3.518 1.363 7.346 2.094 11.014 1.499 8.213 2.973 16.44 5.005 24.554.607 2.602 1.635 5.142 1.759 7.83-.991.867-2.354 1.053-3.568 1.4-4.609 1.004-9.081 2.478-13.566 3.89-14.123 4.621-28.829 7.483-42.593 13.219-2.787 1.115-5.476 2.627-7.396 4.993h-2.366c3.345-4.064 8.337-6.195 13.157-7.954 10.481-3.543 21.21-6.281 31.827-9.378 3.295-1.004 6.727-1.722 9.824-3.271 2.862-1.437 5.005-4.163 5.835-7.247 1.289-4.758 1.227-9.775.843-14.656-.446-5.266-.929-10.519-1.227-15.796h.025Z" fill="#3D5B9C"/><path d="M22.863 322.936c-6.79-6.913-11.348-15.957-12.91-25.521-1.784-10.717-1.672-21.669-.929-32.472 1.871 5.526 3.271 11.188 4.968 16.775 3.023 10.27 6.108 20.714 9.044 31.022 1.227 4.472 3.457 11.398 4.435 15.932" fill="#6A86C4"/><path d="M212.846 265.537c2.143-.372 4.509-.533 6.467.644.198.756-.397 1.313-1.103 1.388-1.747.26-3.494-.149-5.203-.409l-.149-1.623h-.012Z" fill="#3D5B9C"/><path d="M78.76 275.561c6.492-.557 12.76 4.572 14.037 10.853.93 4.039-1.288 8.585-5.154 10.171-6.157 2.973-14.173-.52-16.774-6.702-1.5-3.271-1.425-7.384.718-10.357 1.61-2.354 4.386-3.705 7.186-3.953l-.013-.012Z" fill="#DEE5EA"/><path d="M214.134 296.945c1.672-.669 3.58 1.251 2.948 2.936-.793 1.846-4.249 1.821-4.584-.359-.347-1.152.607-2.205 1.636-2.577ZM288.32 302.271c4.386-1.177 8.846-2.131 13.393-2.279 6.38-.236 12.996-.075 18.942 2.478.954.346 1.574 1.176 2.168 1.957-2.886-.619-5.575-1.883-8.474-2.428-7.036-1.363-14.284-.967-21.333.086-1.636.224-3.197.793-4.671 1.524 7.681-.173 15.461.521 22.759 3.085 4.385 1.561 9.056 3.035 12.463 6.368-.248.124-.744.384-.991.508-9.441-5.786-20.467-8.92-31.542-8.97-3.172-.024-6.331.608-9.503.323 1.896-1.648 4.46-1.995 6.802-2.652h-.013Z" fill="#3D5B9C"/><path d="M117.179 323.234c2.057-1.636 5.303-.756 6.765 1.3 3.072 4.052 4.336 9.081 6.343 13.665 1.375 2.441 3.382 4.46 4.608 6.988 1.499 3.01 3.197 5.996 5.699 8.3 1.388 1.338 3.085 2.255 4.683 3.308.273.297.533.607.793.929-1.189.037-2.366.112-3.543.124-4.15-.074-8.115-1.412-12.141-2.255-4.188-4.435-7.595-9.539-10.419-14.941-1.983-3.753-2.243-8.077-3.593-12.054.049-1.772-.409-3.89.793-5.364h.012Zm-.334 1.561c.186 1.647-.025 3.493.855 4.98.83 1.363 3.221.941 3.481-.657.26-1.561.21-3.531-1.115-4.633-1.066-.372-2.168.136-3.221.31Z" fill="#F5A58B"/><path d="M116.855 324.794c1.054-.174 2.156-.694 3.222-.31 1.325 1.102 1.375 3.072 1.115 4.633-.261 1.598-2.652 2.032-3.482.657-.879-1.499-.669-3.333-.855-4.98Z" fill="#FBC8B9"/><path d="M131.586 325.004c1.474-1.152 3.506-.409 4.757.718 3.89 3.234 5.501 8.177 7.471 12.649.991 1.896 2.477 3.457 3.989 4.944 1.375 1.858 2.775 3.853 4.931 4.893 4.968 2.602 10.691 2.899 16.031 4.287 3.147.743 6.194 1.932 9.428 2.267-3.048-2.007-6.74-2.465-10.172-3.494-4.732-1.338-9.725-1.709-14.296-3.605-1.784-.644-2.825-2.279-3.767-3.803 1.326-1.933 3.085-3.692 5.439-4.25 6.913-2.056 13.962.806 20.281 3.457 1.994.446 4.063.458 6.095.322 6.368-.558 12.674-1.586 18.992-2.453.632 5.29.731 10.692-.607 15.895-.954.136-1.908.272-2.874.372-2.949.185-5.885.433-8.821.681-4.299.347-8.598.756-12.909.805-6.157.112-12.302.545-18.46.174-3.704-.186-7.321-1.239-11.038-1.115-.26-.322-.52-.62-.793-.929-1.796-2.317-4.435-3.816-6.157-6.195-2.8-3.902-5.365-8.078-6.566-12.773a68.047 68.047 0 0 1-1.698-7.681c.409 1.053.892 2.081 1.351 3.11.78-.298 1.573-.583 2.292-1.004.817-1.487.421-3.394-.347-4.832-.57-1.09-1.995-.929-3.011-1.201-.148 1.016-.309 2.031-.408 3.06-.075-1.425-.397-3.246.83-4.274l.037-.025Zm22.832 17.01c-1.486.136-2.267 1.734-2.13 3.085 1.536 1.239 3.53 1.697 5.451 1.969 2.329.93 4.336-2.899 2.354-4.299-1.735-.854-3.779-1.003-5.662-.755h-.013Z" fill="#F4A48A"/><path d="M131.164 326.206c1.016.272 2.441.111 3.011 1.201.755 1.425 1.164 3.333.346 4.832-.718.434-1.511.706-2.292 1.004-.458-1.041-.941-2.057-1.35-3.122-.025-.211-.087-.645-.111-.855.099-1.041.26-2.057.408-3.073l-.012.013Z" fill="#FBC7BC"/><path d="M173.783 327.768c7.582.334 15.189.086 22.783.161 2.404 0 4.807-.013 7.211 0 2.688.012 5.364.024 8.04-.05a77.753 77.753 0 0 1 2.366 0c12.203.26 24.407-.012 36.61.174-.223 1.102-.446 2.217-.781 3.307-9.861.806-19.636 2.441-29.473 3.519-8.276.842-16.502 2.18-24.803 2.862-4.732.483-9.49.879-14.148 1.908.062 1.251.124 2.502.211 3.753-2.032.137-4.101.124-6.096-.322 1.227-1.66 1.289-3.729.831-5.661 4.472-.707 8.981-1.004 13.466-1.537 7.248-.83 14.495-1.697 21.755-2.49 3.742-.508 7.533-.743 11.212-1.635-2.465-1.425-5.401-.768-8.102-.942-6.839-.272-13.69.037-20.529-.347-6.566-.185-13.144.025-19.71-.136-.261-.855-.558-1.697-.843-2.527v-.037Z" fill="#C0C6CC"/><path d="M111.613 329.279c1.524-.632 3.209-.248 4.795-.198-.198 6.355 2.552 12.339 5.748 17.666 1.648 2.924 4.275 5.191 5.6 8.301-2.49-.533-4.745-1.759-7-2.912-3.122-3.58-5.971-7.42-7.755-11.868-.31-.83-.558-1.66-.805-2.503-.137-.483-.273-.966-.409-1.424.842-.137 1.796-.025 2.564-.471 1.19-1.549.397-4.596-1.746-4.72-.694.371-1.289.892-1.908 1.375.024-1.103-.199-2.565.904-3.246h.012Z" fill="#F6A68B"/><path d="M174.637 330.295c6.566.161 13.144-.05 19.71.136 6.839.384 13.69.075 20.529.347 2.701.161 5.637-.483 8.102.942-3.679.892-7.47 1.127-11.212 1.635-7.26.793-14.507 1.66-21.755 2.49-4.484.533-9.006.83-13.466 1.536-.459-.21-.905-.408-1.351-.607.298-2.168.149-4.398-.545-6.479h-.012Z" fill="#6B6E76"/><path d="M110.699 332.526c.62-.484 1.202-1.004 1.908-1.376 2.143.124 2.936 3.184 1.747 4.721-.756.446-1.71.322-2.565.47-.359-1.276-.743-2.539-1.09-3.815Z" fill="#FCC4B5"/><path d="M220.539 334.854c9.836-1.065 19.611-2.713 29.473-3.518-.682 1.053-1.375 2.354-2.701 2.664-2.218.569-4.51.669-6.764 1.015a1202.544 1202.544 0 0 0-21 3.283c-.346.05-1.053.137-1.399.186-5.798.669-11.572 1.636-17.357 2.429-6.331.867-12.637 1.907-18.993 2.453-.074-1.252-.148-2.503-.21-3.754 4.658-1.029 9.415-1.413 14.148-1.908 8.301-.682 16.527-2.007 24.803-2.862v.012Z" fill="#85888F"/><path d="M173.661 337.529c.508-.248 1.003-.508 1.511-.756.446.199.892.397 1.35.607.459 1.946.409 4.002-.83 5.662-6.318-2.651-13.367-5.513-20.28-3.456-2.354.557-4.113 2.316-5.439 4.249-.719-.173-1.449-.347-2.156-.533-1.511-1.486-2.998-3.047-3.989-4.93 2.651-.335 5.315-.397 7.979-.31 4.881.136 9.774-.149 14.656.297 2.415.211 4.968.359 7.198-.805v-.025Z" fill="#878B94"/><path d="M37.172 338c14.123-.062 28.234-.037 42.358-.049 10.89-.087 21.792.285 32.681-.174.248.843.496 1.673.806 2.503-.26 0-.793 0-1.053.012-2.367-.124-1.859.88-3.395 2.664-7.619.049-17.94.037-25.558 0a23.41 23.41 0 0 0-.41 1.412c-.011-.347-.049-1.053-.061-1.4H41.706c-1.202-.062-2.428-.099-3.568-.495-.88-1.314-.755-2.974-.954-4.473h-.012Z" fill="#8B8F96"/><path d="M130.311 338.2c.755-.136 1.511-.26 2.267-.372 1.189 4.696 3.766 8.871 6.566 12.773 1.722 2.379 4.361 3.878 6.157 6.195-1.586-1.066-3.283-1.983-4.671-3.308-2.502-2.292-4.199-5.29-5.698-8.301-1.239-2.527-3.246-4.547-4.609-6.987h-.012Z" fill="#CB6E4F"/><path d="M218.135 338.485c.347-.05 1.053-.137 1.4-.186.817 3.853 1.585 7.755 1.449 11.72-.173 4.856-1.164 9.713-3.246 14.123-.644 1.45-1.784 2.577-2.961 3.593.892-3.655 3.147-6.802 3.866-10.494 1.474-6.194.743-12.599-.521-18.756h.013Z" fill="#3D5B9C"/><path d="M108.544 342.806c1.4-1.895 2.069-1.536 4.435-1.585 1.028 3.853 3.964 6.801 5.847 10.208-4.249-1.61-7.346-1.623-10.295-8.61l.013-.013Z" fill="#F5A68A"/><path d="M111.653 340.279h1.35c1.784 4.448 4.634 8.288 7.756 11.869-1.227-.483-2.478-.892-3.704-1.388-1.636-3.531-4.659-6.553-5.414-10.468l.012-.013Z" fill="#C46243"/><path d="M154.42 342.014c1.896-.247 3.928-.099 5.662.756 1.982 1.4-.012 5.228-2.354 4.299-1.908-.273-3.915-.731-5.451-1.97-.136-1.35.644-2.948 2.131-3.085h.012Z" fill="#FCCEC0"/><path d="M147.814 343.303c.707.186 1.425.36 2.156.533.942 1.536 1.995 3.172 3.766 3.804 4.572 1.895 9.577 2.254 14.297 3.605 3.432 1.028 7.111 1.499 10.171 3.493-3.233-.334-6.281-1.523-9.428-2.267-5.352-1.387-11.075-1.685-16.031-4.286-2.155-1.041-3.555-3.023-4.931-4.894v.012Z" fill="#CB6E4F"/><path d="M188.487 357.859c2.936-.248 5.872-.495 8.821-.681.88 0 1.747.037 2.626.086-.755 2.28-1.449 4.634-2.8 6.653-1.09 1.636-2.676 2.837-4.187 4.064-3.196-2.317-4.349-6.343-4.472-10.122h.012Z" fill="#3D5B9C"/><path d="M142.538 357.847c1.177 0 2.366-.087 3.543-.124 3.717-.111 7.334.929 11.038 1.115 6.145.372 12.303-.062 18.46-.173 4.324-.05 8.61-.459 12.909-.806.124 3.767 1.264 7.805 4.472 10.122 3.383 1.239 7.013 1.437 10.568 1.635-.136 17.184.211 34.392 1.673 51.526-3.407-.421-6.827.223-10.234.223-16.328 0-32.669-.025-48.998 0a194.686 194.686 0 0 1-4.645-.149c-.137-.805-.285-1.586-.385-2.378 1.054-14.347.806-28.743 1.388-43.101.112-5.972.062-11.943.211-17.915v.025Z" fill="#E9E9E9"/><path d="M213.205 368.588c3.754 1.14 7.111 3.332 10.952 4.249 10.902 2.862 22.263 1.759 33.388 1.933 15.721.149 31.455-.297 47.115-1.784.966 3.469 1.747 6.987 2.527 10.506-4.447-.05-8.833-.88-13.219-1.45-7.867-1.065-15.709-2.23-23.588-3.097-9.564-1.152-19.203-1.499-28.742-2.8-6.529-.929-13.294-.619-19.624-2.701-3.16-1.139-6.443-2.354-8.797-4.856h-.012ZM130.186 387.16c2.292-1.102 4.943 1.202 4.249 3.63-.31 2.478-4.187 2.862-5.253.769-.879-1.413-.47-3.556 1.004-4.386v-.013ZM211.967 391.818c2.515-.111 5.105-.31 7.533.533-2.23 1.511-5.03.83-7.545.879 0-.359.012-1.065.012-1.424v.012Z" fill="#3D5B9C"/><path d="M254.93 89.652c-.185-4.25 3.63-8.251 7.892-7.979h.05c27.949 0 61.548.037 89.584-.012 0 2.899.817 5.91 2.837 8.152 1.945 2.354 4.856 3.642 7.78 3.99.05 5.55.037 7.916.037 10.269 0 2.441-.025 4.882.025 10.841.012 2.205-.124 4.361-1.288 6.058v.025c-1.438 2.254-4.076 3.568-6.765 3.654h-.557c-22.969-.012-51.662.038-74.631-.024-1.412-.087-2.565.47-3.543 1.152-.496.347-.967.731-1.413 1.09-.458.372-.879.719-1.313 1.004-1.66 1.176-3.27 2.428-4.856 3.654-1.289.979-2.565 1.945-3.89 2.837.136-2.973.669-5.897 1.028-8.932l.074-.657-.656-.037c-1.115-.062-2.156-.074-3.209-.198-.904-.112-1.747-.31-2.515-.681l-.322-.174c-2.565-1.511-4.398-4.311-4.287-7.26v-.025c0-6.801.013-10.084.013-13.367l-.025-13.368-.05-.012Z" fill="#D2E2FE" stroke="url(#a)"/><path d="M355.925 104.917a.98.98 0 0 1-.323.744 1.019 1.019 0 0 1-.743.309 1.05 1.05 0 0 1-.768-.309 1.022 1.022 0 0 1-.31-.744.99.99 0 0 1 .31-.743 1.1 1.1 0 0 1 .768-.31.99.99 0 0 1 .743.31.983.983 0 0 1 .323.743Zm-.645-2.254h-.842a8.996 8.996 0 0 1-.074-.769c-.025-.371-.062-.792-.1-1.263-.037-.471-.074-.967-.111-1.462-.037-.508-.074-.979-.112-1.425-.024-.446-.062-.817-.086-1.103-.025-.297-.025-.483-.025-.532 0-.26.087-.471.273-.632a.942.942 0 0 1 .668-.26c.261 0 .484.087.657.26a.79.79 0 0 1 .273.632c0 .062 0 .235-.025.532-.025.285-.05.657-.087 1.103-.025.446-.062.917-.099 1.425-.037.508-.074.991-.111 1.462-.038.471-.075.892-.1 1.263-.024.36-.049.62-.074.769h-.025ZM348.516 106.044c-.768 0-1.45-.161-2.044-.496a3.573 3.573 0 0 1-1.388-1.363c-.334-.582-.508-1.251-.508-2.007 0-.755.174-1.412.508-1.982a3.664 3.664 0 0 1 1.388-1.363c.594-.334 1.276-.495 2.044-.495s1.449.16 2.044.495c.595.335 1.065.78 1.388 1.363.334.583.508 1.239.508 1.982 0 .744-.174 1.425-.508 2.007-.323.583-.793 1.029-1.388 1.363-.595.335-1.276.496-2.044.496Zm0-1.363c.458 0 .855-.111 1.189-.322.335-.211.595-.508.781-.867.198-.372.285-.818.285-1.301s-.099-.905-.285-1.276a2.154 2.154 0 0 0-.781-.88 2.189 2.189 0 0 0-1.189-.322c-.459 0-.83.112-1.177.322a2.182 2.182 0 0 0-.793.88c-.186.371-.273.793-.273 1.276s.087.929.273 1.301c.198.371.458.656.793.867.334.211.731.322 1.177.322ZM339.77 105.807v-6.702h1.623v6.702h-1.623Zm-2.54-5.91v-1.325h6.69v1.326h-6.69ZM332.645 106.043a4.273 4.273 0 0 1-1.796-.372 3.912 3.912 0 0 1-1.363-1.053l1.016-.991c.248.347.533.62.88.818.359.198.768.285 1.214.285.731 0 1.301-.223 1.71-.682.408-.458.607-1.065.607-1.845 0-.781-.211-1.4-.62-1.859-.409-.458-.966-.681-1.685-.681-.47 0-.867.099-1.214.285a2.528 2.528 0 0 0-.867.793l-1.004-.967a3.74 3.74 0 0 1 1.351-1.053c.533-.248 1.127-.371 1.796-.371.768 0 1.437.16 2.02.495a3.36 3.36 0 0 1 1.375 1.351c.334.569.508 1.238.508 2.007 0 .768-.161 1.437-.496 2.031a3.508 3.508 0 0 1-1.375 1.351c-.595.322-1.276.483-2.057.483v-.025Zm-1.486-3.345v-1.127h4.745v1.127h-4.745ZM317.904 105.807v-1.35h.521c.26 0 .458-.062.582-.186.136-.124.211-.347.235-.656l.471-5.043h5.513v7.235h-1.623v-6.975l1.165 1.053h-4.745l1.226-1.053-.495 5.105c-.062.693-.26 1.189-.583 1.462-.322.272-.805.408-1.461.408h-.806ZM316.813 105.808h-1.499v-1.437l-.075-.309v-2.714c0-.545-.173-.966-.52-1.263-.347-.31-.818-.459-1.425-.459-.433 0-.842.087-1.214.26a2.9 2.9 0 0 0-.954.731l-.929-1.015a4.392 4.392 0 0 1 1.388-.93 4.512 4.512 0 0 1 1.771-.334c.682 0 1.289.124 1.797.36.52.235.929.57 1.214 1.015.285.446.433.979.433 1.598v4.497h.013Zm-4.064.236c-.557 0-1.041-.099-1.462-.31a2.426 2.426 0 0 1-.991-.83c-.235-.347-.347-.756-.347-1.214 0-.508.149-.929.434-1.276.285-.359.694-.632 1.202-.818.52-.198 1.115-.285 1.796-.285h2.032v1.115h-1.883c-.57 0-1.029.099-1.388.31a.982.982 0 0 0-.52.904c0 .36.136.645.409.855.272.198.619.31 1.053.31.433 0 .793-.087 1.152-.26a2.21 2.21 0 0 0 .83-.706c.21-.31.334-.657.359-1.053l.52.247a3.09 3.09 0 0 1-.408 1.586 2.87 2.87 0 0 1-1.128 1.078c-.483.248-1.04.372-1.647.372l-.013-.025ZM301.066 105.807v-1.35h.521c.26 0 .458-.062.582-.186.136-.124.211-.347.235-.656l.471-5.043h5.513v7.235h-1.623v-6.975l1.165 1.053h-4.745l1.239-1.053-.496 5.105c-.062.693-.26 1.189-.582 1.462-.322.272-.805.408-1.462.408H301.066ZM299.085 103.628l.929 1.016c-.372.433-.842.78-1.4 1.028-.557.248-1.189.372-1.871.372-.805 0-1.536-.161-2.155-.496a3.765 3.765 0 0 1-1.462-1.363c-.347-.582-.521-1.238-.521-1.982 0-.743.174-1.424.508-2.007a3.671 3.671 0 0 1 1.388-1.363c.595-.334 1.251-.495 1.982-.495.731 0 1.351.16 1.896.495.545.323.978.769 1.301 1.338.322.558.483 1.215.483 1.958v.087h-1.611v-.161c0-.484-.087-.905-.272-1.264a1.962 1.962 0 0 0-1.822-1.152c-.433 0-.817.111-1.164.322-.335.198-.582.495-.768.867-.186.372-.273.818-.273 1.338 0 .52.112.979.322 1.363.223.384.521.681.905.904.384.198.83.31 1.338.31.916 0 1.672-.372 2.279-1.115h-.012Zm1.078-.917h-6.443v-1.102h6.207l.236.532v.57ZM283.71 105.127v-.632h.236a.933.933 0 0 0 .483-.111.73.73 0 0 0 .272-.434c.062-.21.124-.508.161-.879l.496-4.485h5.414v6.331h-1.598v-6.07l1.127 1.052h-4.671l1.277-1.053-.521 4.349c-.049.483-.149.867-.285 1.139a1.227 1.227 0 0 1-.619.607c-.273.124-.632.186-1.103.186h-.669Zm-.347 2.627v-3.259h8.524v3.259h-1.524v-2.887l.917.942h-6.963l.582-.942v2.887h-1.536ZM281.516 103.591l1.041 1.016a3.812 3.812 0 0 1-1.326 1.053c-.52.248-1.115.372-1.796.372-.743 0-1.412-.161-2.007-.495a3.723 3.723 0 0 1-1.375-1.363c-.335-.583-.508-1.252-.508-2.007 0-.756.173-1.4.508-1.97a3.66 3.66 0 0 1 1.387-1.363c.595-.334 1.276-.508 2.032-.508.657 0 1.239.124 1.759.372.521.248.967.607 1.326 1.053l-1.041 1.016a2.298 2.298 0 0 0-.805-.78 2.172 2.172 0 0 0-1.164-.31 2.22 2.22 0 0 0-1.19.322c-.347.21-.619.508-.805.879-.198.372-.285.793-.285 1.276 0 .484.099.917.285 1.289.198.371.471.669.805.879a2.25 2.25 0 0 0 1.19.323c.446 0 .842-.1 1.164-.31.322-.198.595-.459.805-.781v.037ZM269.141 105.808v-8.945h-2.477c-.595 0-1.066.149-1.4.446-.335.285-.508.694-.508 1.202s.173.916.508 1.214c.334.285.805.433 1.4.433h2.626v1.425h-2.626c-.719 0-1.351-.124-1.896-.372-.545-.26-.966-.619-1.264-1.09-.297-.458-.446-1.003-.446-1.61 0-.607.149-1.152.446-1.61.298-.46.719-.819 1.264-1.079.558-.26 1.189-.396 1.896-.396h4.15v10.369h-1.673v.013Zm-6.801 0 3.494-4.832h1.858l-3.358 4.832h-1.994Z" fill="#3A4F73"/><path d="M363.543 93.086c5.823 0 10.543-4.72 10.543-10.543 0-5.823-4.72-10.543-10.543-10.543C357.72 72 353 76.72 353 82.543c0 5.823 4.72 10.543 10.543 10.543Z" fill="#6683C2" stroke="#fff" stroke-width="1.71"/><path d="M363.11 76.906h1.598v11.386h-1.821v-9.466L360 80.896v-1.859l3.11-2.13Z" fill="#fff"/><path d="M115.405 346.227c-2.403-3.717-4.348-7.843-4.522-12.315-1.301.05-2.713-.161-3.915.446-.867.62-.607 1.796-.557 2.713.483-.433.929-.892 1.474-1.239 1.759-.024 2.589 2.429 1.71 3.767-.595.408-1.388.371-2.069.532.136.372.272.756.421 1.152.248.669.508 1.351.805 2.007.731 1.5 1.611 2.887 2.59 4.213.929-.384 4.212 2.8 6.169 3.469.285.099-1.697-4.126-2.106-4.733v-.012Z" fill="#F6A68B"/><path d="M106.398 337.057c.484-.433.93-.892 1.475-1.238 1.759-.025 2.589 2.44 1.709 3.766-.594.409-1.387.371-2.069.532-.371-1.028-.755-2.044-1.115-3.06Z" fill="#FCC4B5"/><defs><linearGradient id="a" x1="256.095" y1="24.734" x2="322.933" y2="128.417" gradientUnits="userSpaceOnUse"><stop stop-color="#fff"/><stop offset="1" stop-color="#fff" stop-opacity="0"/></linearGradient></defs></svg>