<svg width="61" height="61" viewBox="0 0 61 61" fill="none" xmlns="http://www.w3.org/2000/svg">
<ellipse cx="30.5" cy="30.4082" rx="30.5" ry="30.4082" fill="#F37E60"/>
<path d="M14.4765 4.59375L3.68426 5.27991C1.98863 5.38929 0.696957 6.85111 0.806675 8.54164L3.48478 50.4171C3.59449 52.1076 5.06072 53.3954 6.75635 53.286L17.5486 52.5999L14.4765 4.59375Z" fill="#81ABDD"/>
<path d="M44.2147 5.78215L46.8928 47.6576C47.0025 49.3481 45.7108 50.8099 44.0152 50.9193L10.2422 53.0673C8.54653 53.1767 7.0803 51.8889 6.97059 50.1984L4.29248 8.32292C4.18277 6.63239 5.47444 5.17058 7.17007 5.06119L40.9431 2.91322C42.6387 2.80384 44.1049 4.09162 44.2147 5.78215Z" fill="#C7E0FF"/>
<path d="M44.2146 5.78207L46.8927 47.6575C47.0025 49.348 45.7108 50.8099 44.0151 50.9192L10.2421 53.0672C9.48907 53.1169 8.78089 52.8882 8.21735 52.4755L42.8781 3.44019C43.2647 3.70366 43.586 4.05149 43.8176 4.45728C44.0491 4.86307 44.1849 5.31613 44.2146 5.78207Z" fill="#C7E0FF"/>
<path d="M41.228 5.88672L43.933 47.9412L9.9785 50.112L7.27347 8.05756L41.228 5.88672Z" fill="white"/>
<path d="M7.27179 8.04141L9.06816 7.92705L11.7732 49.9815L9.97682 50.0958L7.27179 8.04141ZM39.3337 5.98742L41.1306 5.87256L43.8356 47.927L42.0387 48.0419L39.3337 5.98742Z" fill="#EDEDED"/>
<path d="M31.5874 8.27809L17.384 9.18303C16.4813 9.24269 15.7632 8.4372 15.9228 7.55713L16.5362 4.14127C16.5916 3.8356 16.7478 3.55712 16.98 3.34997C17.2122 3.14282 17.507 3.01884 17.8179 2.99767L19.8626 2.8684C20.3863 2.83359 20.86 2.51537 21.0545 2.03307C21.4336 1.07842 22.5657 0.347516 23.9471 0.258017C25.3285 0.168518 26.5404 0.755232 27.0441 1.65022C27.2985 2.10766 27.8072 2.36124 28.3308 2.3314L30.3755 2.20213C31.0139 2.16235 31.5974 2.56509 31.7919 3.1717L32.8342 6.47818C33.0985 7.33836 32.4901 8.2234 31.5874 8.27809Z" fill="#F4F4F4"/>
<path d="M17.1646 7.47775C17.005 8.35782 17.7281 9.16331 18.6258 9.10364L17.384 9.1832C16.4813 9.24286 15.7632 8.43738 15.9228 7.55731L16.5362 4.14144C16.5898 3.83581 16.7448 3.55697 16.9763 3.34961C17.2078 3.14225 17.5024 3.01838 17.8129 2.99785L19.0547 2.91829C18.7442 2.93882 18.4496 3.06269 18.2181 3.27005C17.9866 3.47741 17.8316 3.75625 17.778 4.06189L17.1646 7.47775ZM24.5655 0.263163C23.4783 0.496854 22.6155 1.14821 22.2963 1.95369C22.0969 2.44594 21.6281 2.75918 21.0994 2.79399L19.8576 2.87354C20.3863 2.83874 20.8551 2.52549 21.0545 2.03325C21.4336 1.08357 22.5657 0.34769 23.9421 0.258191C24.1566 0.243275 24.361 0.243275 24.5655 0.263163Z" fill="#DEDEDE"/>
<path d="M20.4957 5.70787C20.3661 5.70787 20.2564 5.60843 20.2464 5.47418C20.2364 5.33496 20.3411 5.2206 20.4808 5.21066L28.176 4.72339C28.2395 4.72379 28.3005 4.74825 28.3466 4.79182C28.3927 4.83539 28.4205 4.89481 28.4243 4.95804C28.4281 5.02126 28.4076 5.08356 28.3671 5.13232C28.3265 5.18107 28.2689 5.21263 28.2059 5.2206L20.5107 5.70787H20.4957ZM22.6053 14.4141C22.4756 14.4141 22.3659 14.3147 22.356 14.1804C22.346 14.0412 22.4507 13.9268 22.5903 13.9169L37.7862 12.9473C37.9259 12.9424 38.0406 13.0418 38.0505 13.181C38.0605 13.3202 37.9558 13.4346 37.8161 13.4445L22.6253 14.4091C22.6203 14.4091 22.6153 14.4141 22.6053 14.4141ZM22.7749 17.0593C22.6452 17.0593 22.5355 16.9598 22.5255 16.8256C22.5155 16.6864 22.6203 16.572 22.7599 16.5621L37.9558 15.5975C38.1004 15.5875 38.2101 15.6919 38.2201 15.8312C38.2301 15.9704 38.1253 16.0847 37.9857 16.0947L22.7948 17.0593H22.7749ZM22.9444 19.7045C22.8148 19.7045 22.7051 19.605 22.6951 19.4708C22.6851 19.3316 22.7898 19.2172 22.9295 19.2073L32.3203 18.6106C32.4699 18.6056 32.5746 18.7051 32.5846 18.8443C32.5946 18.9835 32.4899 19.0979 32.3502 19.1078L22.9594 19.7045H22.9444ZM23.3334 25.7257C23.2038 25.7257 23.0941 25.6263 23.0841 25.4921C23.0741 25.3528 23.1788 25.2385 23.3185 25.2285L35.6517 24.4429C35.8013 24.433 35.9061 24.5374 35.916 24.6766C35.926 24.8158 35.8213 24.9302 35.6816 24.9401L23.3484 25.7257H23.3334ZM23.503 28.3709C23.3733 28.3709 23.2636 28.2715 23.2536 28.1372C23.2437 27.998 23.3484 27.8837 23.488 27.8737L35.8213 27.0881C35.9709 27.0782 36.0756 27.1826 36.0856 27.3218C36.0956 27.461 35.9908 27.5754 35.8512 27.5853L23.518 28.3709H23.503ZM23.6726 31.0211C23.5429 31.0211 23.4332 30.9216 23.4232 30.7874C23.4132 30.6482 23.518 30.5338 23.6576 30.5239L33.0484 29.9272C33.198 29.9173 33.3028 30.0217 33.3127 30.1609C33.3227 30.3001 33.218 30.4145 33.0783 30.4244L23.6875 31.0211C23.6825 31.0161 23.6775 31.0211 23.6726 31.0211ZM24.0566 37.0374C23.9269 37.0374 23.8172 36.9379 23.8072 36.8037C23.7972 36.6645 23.902 36.5501 24.0416 36.5402L39.2375 35.5756C39.3871 35.5706 39.4918 35.67 39.5018 35.8093C39.5118 35.9485 39.407 36.0628 39.2674 36.0728L24.0715 37.0374H24.0566ZM24.2261 39.6875C24.0965 39.6875 23.9868 39.5881 23.9768 39.4538C23.9668 39.3146 24.0715 39.2003 24.2112 39.1903L39.407 38.2257C39.5567 38.2208 39.6614 38.3202 39.6714 38.4594C39.6813 38.5986 39.5766 38.713 39.437 38.7229L24.2411 39.6875H24.2261ZM24.3957 42.3327C24.266 42.3327 24.1563 42.2333 24.1463 42.099C24.1364 41.9598 24.2411 41.8455 24.3807 41.8355L33.7715 41.2389C33.9262 41.2339 34.0259 41.3333 34.0359 41.4725C34.0458 41.6118 33.9411 41.7261 33.8015 41.7361L24.4107 42.3327H24.3957Z" fill="#727E99"/>
<path d="M18.9798 17.0493C19.0447 18.0437 18.6956 18.9635 18.0822 19.6646C17.7693 20.0194 17.3894 20.3092 16.9641 20.5174C16.5388 20.7256 16.0764 20.8481 15.6035 20.8778C13.6087 21.0071 11.8931 19.4956 11.7634 17.5117C11.6986 16.5172 12.0477 15.5974 12.6561 14.9013C13.2899 14.1846 14.1833 13.7481 15.1397 13.6881C16.1372 13.6235 17.0598 13.9715 17.753 14.5781C18.112 14.888 18.4054 15.2662 18.616 15.6905C18.8267 16.1148 18.9504 16.5767 18.9798 17.0493Z" fill="#F37E60"/>
<path d="M18.9796 17.0489C19.0445 18.0433 18.6954 18.9632 18.082 19.6642C17.7691 20.019 17.3892 20.3088 16.9639 20.517C16.5385 20.7252 16.0762 20.8477 15.6033 20.8774C14.7151 20.9368 13.8367 20.6638 13.1397 20.1117L17.274 14.2197C17.4436 14.3241 17.6082 14.4435 17.7578 14.5727C18.1153 14.8846 18.4074 15.264 18.6171 15.689C18.8268 16.114 18.95 16.5762 18.9796 17.0489Z" fill="#F37E60"/>
<path d="M14.8852 18.5157C14.8254 18.5157 14.7655 18.4958 14.7206 18.456L13.8579 17.7002C13.8328 17.6786 13.8124 17.6523 13.7978 17.6227C13.7832 17.5931 13.7747 17.5608 13.7729 17.5279C13.771 17.495 13.7758 17.462 13.787 17.431C13.7982 17.3999 13.8155 17.3714 13.8379 17.3472C13.9277 17.2428 14.0873 17.2328 14.192 17.3273L14.8653 17.919L16.4861 16.0843C16.5759 15.9799 16.7354 15.9699 16.8402 16.0594C16.9449 16.1489 16.9549 16.308 16.8651 16.4124L15.0797 18.4361C15.0348 18.4858 14.975 18.5156 14.9101 18.5206C14.8952 18.5156 14.8902 18.5157 14.8852 18.5157Z" fill="white"/>
<path d="M19.7027 28.3657C19.7676 29.3601 19.4185 30.2799 18.8051 30.981C18.4922 31.3358 18.1123 31.6256 17.687 31.8338C17.2617 32.042 16.7993 32.1645 16.3264 32.1942C14.3316 32.3235 12.616 30.812 12.4863 28.8281C12.4215 27.8336 12.7706 26.9138 13.379 26.2177C14.0128 25.501 14.9062 25.0646 15.8626 25.0045C16.8601 24.9399 17.7827 25.2879 18.4759 25.8945C18.8353 26.2041 19.129 26.5822 19.3397 27.0065C19.5504 27.4309 19.6738 27.893 19.7027 28.3657Z" fill="#F37E60"/>
<path d="M19.7028 28.3606C19.7676 29.3551 19.4185 30.2749 18.8051 30.976C18.4923 31.3308 18.1124 31.6206 17.687 31.8288C17.2617 32.037 16.7994 32.1594 16.3265 32.1892C15.4383 32.2486 14.5598 31.9756 13.8629 31.4235L17.9972 25.5315C18.1668 25.6359 18.3313 25.7552 18.481 25.8845C18.8389 26.196 19.1312 26.5753 19.341 27.0004C19.5507 27.4255 19.6737 27.8878 19.7028 28.3606Z" fill="#F37E60"/>
<path d="M15.6082 29.8272C15.5483 29.8272 15.4885 29.8073 15.4436 29.7675L14.5808 29.0117C14.5558 28.9902 14.5354 28.9638 14.5208 28.9342C14.5062 28.9046 14.4977 28.8724 14.4958 28.8394C14.494 28.8065 14.4988 28.7735 14.51 28.7425C14.5211 28.7115 14.5384 28.683 14.5609 28.6587C14.6506 28.5543 14.8102 28.5444 14.915 28.6388L15.5882 29.2305L17.209 27.3958C17.2988 27.2914 17.4584 27.2814 17.5631 27.3709C17.6679 27.4604 17.6778 27.6195 17.5881 27.724L15.8027 29.7476C15.7578 29.7973 15.6979 29.8272 15.6331 29.8321C15.6181 29.8272 15.6132 29.8272 15.6082 29.8272Z" fill="white"/>
<path d="M20.4262 39.6774C20.491 40.6719 20.1419 41.5917 19.5285 42.2928C19.2157 42.6476 18.8357 42.9374 18.4104 43.1456C17.9851 43.3537 17.5227 43.4762 17.0499 43.506C15.055 43.6353 13.3394 42.1237 13.2097 40.1398C13.1449 39.1454 13.494 38.2256 14.1024 37.5295C14.7362 36.8127 15.6296 36.3763 16.5861 36.3163C17.5835 36.2516 18.5061 36.5997 19.1993 37.2063C19.5591 37.5155 19.8531 37.8935 20.0638 38.318C20.2745 38.7424 20.3978 39.2047 20.4262 39.6774Z" fill="#F37E60"/>
<path d="M20.4261 39.6773C20.4909 40.6717 20.1418 41.5916 19.5284 42.2926C19.2156 42.6475 18.8357 42.9372 18.4103 43.1454C17.985 43.3536 17.5227 43.4761 17.0498 43.5059C16.1616 43.5653 15.2831 43.2922 14.5862 42.7401L18.7205 36.8481C19.2123 37.1479 19.6243 37.5616 19.9212 38.0542C20.2182 38.5468 20.3914 39.1036 20.4261 39.6773Z" fill="#F37E60"/>
<path d="M16.3315 41.1441C16.2716 41.1441 16.2118 41.1242 16.1669 41.0844L15.3041 40.3286C15.2791 40.3071 15.2587 40.2807 15.2441 40.2511C15.2295 40.2215 15.221 40.1893 15.2191 40.1563C15.2173 40.1234 15.2221 40.0904 15.2332 40.0594C15.2444 40.0283 15.2617 39.9999 15.2842 39.9756C15.3739 39.8712 15.5335 39.8613 15.6383 39.9557L16.3115 40.5474L17.9323 38.7127C18.0221 38.6083 18.1817 38.5983 18.2864 38.6878C18.3912 38.7773 18.4011 38.9364 18.3114 39.0409L16.526 41.0645C16.4811 41.1142 16.4212 41.1441 16.3564 41.149C16.3414 41.1441 16.3365 41.1441 16.3315 41.1441Z" fill="white"/>
<path d="M39.5305 23.1457L48.4062 7.39844L55.6859 11.4771L46.8103 27.2239L39.5305 23.1457Z" fill="#6683C2"/>
<path d="M39.5277 23.146L48.4034 7.39917L49.6511 8.09825L40.7755 23.8451L39.5277 23.146ZM45.5682 26.528L54.4438 10.7812L55.6916 11.4803L46.8164 27.2271L45.5682 26.528Z" fill="#7F9BD8"/>
<path d="M58.5827 6.36396L57.0666 9.04892L49.7803 4.96678L51.2964 2.28182C51.63 1.69267 52.1842 1.25932 52.8375 1.07666C53.4909 0.894002 54.1903 0.976929 54.7825 1.30728L57.6102 2.89339C58.2006 3.22518 58.6347 3.77715 58.8171 4.42795C58.9994 5.07875 58.9151 5.77512 58.5827 6.36396Z" fill="#C7E0FF"/>
<path d="M53.7052 0.994197C52.7527 0.929559 51.8002 1.39694 51.3014 2.28198L49.7853 4.96694L51.0621 5.68293L53.7052 0.994197ZM58.4331 3.64435C58.9817 4.42498 59.0814 5.47908 58.5827 6.36412L57.0666 9.04908L55.7899 8.33309L58.4331 3.64435Z" fill="#C7E0FF"/>
<path d="M48.3936 7.40053L49.7771 4.94678L57.0698 9.03239L55.6869 11.4866L48.3936 7.40053Z" fill="#EDEDED"/>
<path d="M49.6382 8.09781L51.0211 5.64355L55.8223 8.33349L54.4388 10.7872L49.6382 8.09781Z" fill="white"/>
<path d="M46.8078 27.2421L39.2928 31.7781L39.5265 23.155L46.8078 27.2421Z" fill="#CECECE"/>
<path d="M40.0751 31.8314L39.2928 31.5042L39.5265 23.155L40.504 23.702L40.0751 31.8314Z" fill="#9F9F9F"/>
<path d="M43.1672 25.447C43.1273 25.447 43.0824 25.437 43.0425 25.4171C43.0139 25.4012 42.9887 25.3799 42.9685 25.3542C42.9482 25.3286 42.9332 25.2992 42.9244 25.2678C42.9156 25.2363 42.9132 25.2035 42.9172 25.1711C42.9212 25.1387 42.9316 25.1074 42.9477 25.079L51.8249 9.33719C51.8897 9.21786 52.0443 9.17311 52.164 9.24272C52.2837 9.31233 52.3286 9.46149 52.2588 9.58082L43.3816 25.3226C43.3367 25.4022 43.252 25.447 43.1672 25.447ZM40.6695 28.7238C40.0232 28.3616 39.2213 28.8034 39.182 29.5432L39.1298 30.5269C39.086 31.3531 40.0072 31.8722 40.6911 31.4066L41.5074 30.851C42.1214 30.433 42.0815 29.5151 41.4335 29.1519L40.6695 28.7238Z" fill="#4665A9"/>
<path d="M50.6835 38.9863L52.1258 35.0498L54.5046 35.9164L53.0623 39.8524L50.6835 38.9863Z" fill="white"/>
<path d="M48.3591 60.9982C54.9695 60.9982 60.3283 55.6555 60.3283 49.065C60.3283 42.4745 54.9695 37.1318 48.3591 37.1318C41.7487 37.1318 36.39 42.4745 36.39 49.065C36.39 55.6555 41.7487 60.9982 48.3591 60.9982Z" fill="#6683C2"/>
<path d="M56.2935 51.9585C54.6926 56.3241 49.8401 58.5715 45.4614 56.9754C43.4599 56.2508 41.8092 54.7953 40.8433 52.9032C40.3109 51.8717 39.9988 50.7413 39.9267 49.5834C39.8546 48.4255 40.024 47.2652 40.4244 46.1759C42.0252 41.8054 46.8777 39.558 51.2615 41.1541C53.381 41.9247 54.9968 43.4562 55.9294 45.3207C56.9219 47.3195 57.1214 49.7012 56.2935 51.9585Z" fill="white"/>
<path d="M59.5998 53.1617C57.3306 59.3471 50.4583 62.5342 44.2493 60.2719C41.4073 59.2392 39.065 57.1687 37.6962 54.4793L59.0711 43.7395C60.4825 46.5786 60.7718 49.9597 59.5998 53.1617Z" fill="#7F9BD8"/>
<path d="M56.2936 51.9585C54.6927 56.3241 49.8402 58.5715 45.4615 56.9754C43.46 56.2508 41.8093 54.7952 40.8434 52.9032L55.9295 45.3257C56.9219 47.3195 57.1214 49.7012 56.2936 51.9585Z" fill="#FADFCB"/>
<path d="M50.9222 42.3175C50.8822 42.3174 50.8428 42.3077 50.8074 42.2892C50.7719 42.2708 50.7414 42.2441 50.7185 42.2115C50.6955 42.1788 50.6807 42.1412 50.6754 42.1017C50.6701 42.0621 50.6743 42.0219 50.6878 41.9844L51.022 41.0695C51.0475 41.0118 51.0941 40.966 51.1523 40.9412C51.2105 40.9164 51.276 40.9145 51.3355 40.936C51.395 40.9575 51.4441 41.0006 51.4729 41.0568C51.5017 41.1129 51.5081 41.1779 51.4907 41.2386L51.1566 42.1534C51.1217 42.2579 51.0219 42.3175 50.9222 42.3175ZM45.4613 57.224C45.4213 57.2239 45.3819 57.2142 45.3465 57.1958C45.311 57.1773 45.2805 57.1506 45.2575 57.118C45.2346 57.0853 45.2198 57.0477 45.2145 57.0082C45.2091 56.9686 45.2134 56.9284 45.2269 56.8909L45.561 55.976C45.5866 55.9183 45.6332 55.8725 45.6914 55.8477C45.7496 55.8229 45.815 55.821 45.8745 55.8425C45.934 55.864 45.9831 55.9071 46.012 55.9633C46.0408 56.0194 46.0472 56.0844 46.0298 56.1451L45.6957 57.06C45.6558 57.1594 45.561 57.224 45.4613 57.224ZM41.3419 46.7577C41.312 46.7577 41.282 46.7527 41.2571 46.7427L40.3395 46.4096C40.2816 46.3841 40.2356 46.3376 40.2107 46.2796C40.1859 46.2216 40.184 46.1564 40.2055 46.097C40.2271 46.0377 40.2704 45.9888 40.3267 45.96C40.383 45.9313 40.4482 45.9249 40.509 45.9422L41.4267 46.2754C41.4812 46.2958 41.5269 46.3346 41.5558 46.385C41.5847 46.4354 41.595 46.4944 41.585 46.5516C41.5749 46.6088 41.5451 46.6607 41.5007 46.6983C41.4563 46.736 41.4001 46.757 41.3419 46.7577ZM56.2934 52.2022C56.2635 52.2022 56.2335 52.1972 56.2086 52.1872L55.291 51.8541C55.2331 51.8286 55.1871 51.7822 55.1622 51.7241C55.1374 51.6661 55.1355 51.6009 55.157 51.5415C55.1786 51.4822 55.2218 51.4333 55.2782 51.4045C55.3345 51.3758 55.3997 51.3694 55.4605 51.3867L56.3782 51.7199C56.4327 51.7403 56.4784 51.7791 56.5073 51.8295C56.5362 51.8799 56.5465 51.9389 56.5364 51.9961C56.5264 52.0533 56.4966 52.1052 56.4522 52.1428C56.4078 52.1805 56.3516 52.2015 56.2934 52.2022ZM45.2119 42.5612C45.1172 42.5612 45.0274 42.5065 44.9875 42.417L44.5736 41.5319C44.5594 41.5026 44.5512 41.4708 44.5495 41.4383C44.5479 41.4058 44.5528 41.3732 44.5639 41.3427C44.5751 41.3121 44.5923 41.284 44.6145 41.2602C44.6367 41.2363 44.6635 41.2171 44.6933 41.2038C44.7226 41.1896 44.7546 41.1815 44.7872 41.1798C44.8198 41.1782 44.8524 41.183 44.8831 41.1942C44.9138 41.2053 44.9419 41.2224 44.9658 41.2446C44.9898 41.2667 45.009 41.2934 45.0224 41.3231L45.4363 42.2081C45.4962 42.3324 45.4413 42.4816 45.3166 42.5363C45.2817 42.5512 45.2468 42.5612 45.2119 42.5612ZM51.9196 56.9506C51.8249 56.9506 51.7351 56.8959 51.6952 56.8064L51.2813 55.9213C51.2214 55.797 51.2763 55.6479 51.401 55.5932C51.5257 55.5385 51.6753 55.5882 51.7301 55.7125L52.1441 56.5975C52.2039 56.7218 52.149 56.871 52.0244 56.9257C51.9895 56.9456 51.9545 56.9506 51.9196 56.9506ZM40.6985 52.8635C40.6038 52.8635 40.514 52.8088 40.4741 52.7193C40.4599 52.69 40.4517 52.6581 40.4501 52.6256C40.4484 52.5931 40.4533 52.5606 40.4645 52.53C40.4756 52.4994 40.4928 52.4714 40.515 52.4475C40.5373 52.4236 40.564 52.4045 40.5938 52.3911L41.4815 51.9784C41.6062 51.9237 41.7558 51.9734 41.8107 52.0977C41.8705 52.222 41.8157 52.3712 41.691 52.4259L40.8033 52.8386C40.7684 52.8535 40.7334 52.8635 40.6985 52.8635ZM55.1314 46.1759C55.0366 46.1759 54.9468 46.1212 54.9069 46.0317C54.8927 46.0024 54.8846 45.9706 54.8829 45.9381C54.8813 45.9056 54.8862 45.873 54.8973 45.8425C54.9085 45.8119 54.9257 45.7838 54.9479 45.76C54.9701 45.7361 54.9969 45.7169 55.0266 45.7036L55.9143 45.2909C56.039 45.2362 56.1886 45.2859 56.2435 45.4102C56.3034 45.5345 56.2485 45.6837 56.1238 45.7384L55.2361 46.1511C55.2012 46.166 55.1663 46.1759 55.1314 46.1759Z" fill="#727E99"/>
<path d="M56.1589 36.1671V36.1721C56.0535 36.4573 55.8388 36.6893 55.5621 36.817C55.2853 36.9447 54.9691 36.9577 54.6827 36.8532L51.4211 35.6649C51.2788 35.6144 51.148 35.5362 51.0362 35.4349C50.9244 35.3336 50.8339 35.2112 50.7699 35.0748C50.7058 34.9383 50.6696 34.7906 50.6633 34.6401C50.6569 34.4896 50.6806 34.3394 50.7329 34.1981V34.1931C50.8386 33.9068 51.0538 33.6738 51.3314 33.5452C51.609 33.4166 51.9263 33.4029 52.2141 33.507L55.4757 34.6953C56.0741 34.9141 56.3783 35.5754 56.1589 36.1671Z" fill="#F37E60"/>
<path d="M52.5484 36.0775L51.4213 35.6648C51.2794 35.6138 51.1489 35.5353 51.0375 35.4339C50.926 35.3325 50.8357 35.2101 50.7718 35.0739C50.7078 34.9376 50.6715 34.7901 50.6649 34.6398C50.6582 34.4895 50.6814 34.3394 50.7331 34.198V34.1931C50.9525 33.5964 51.6108 33.2832 52.2143 33.5019L53.3414 33.9146C52.7379 33.6958 52.0746 34.0041 51.8552 34.6008V34.6058C51.6408 35.2024 51.945 35.8587 52.5484 36.0775Z" fill="#F37E60"/>
<path d="M48.359 50.1784C48.976 50.1784 49.4761 49.6798 49.4761 49.0647C49.4761 48.4496 48.976 47.9509 48.359 47.9509C47.742 47.9509 47.2419 48.4496 47.2419 49.0647C47.2419 49.6798 47.742 50.1784 48.359 50.1784Z" fill="#727E99"/>
</svg>
