<svg width="292" height="142" viewBox="0 0 292 142" fill="none" xmlns="http://www.w3.org/2000/svg">
<g clip-path="url(#clip0_52_1216)">
<path d="M182.268 81.5799L164.688 101.948L113.279 161.514L166.799 159.483C166.799 159.483 179.765 132.925 185.515 121.399C192.313 107.773 200.3 92.4989 202.799 90.7186C207.416 87.4317 215.116 84.6934 217.57 80.7171L182.268 81.5829L182.268 81.5799Z" fill="#FFB098"/>
<path d="M111.342 160.156C111.342 160.156 165.16 96.8223 169.824 94.4918L193.202 108.254C193.202 108.254 179.009 152.039 171.634 162.591C164.258 173.14 112.677 167.582 112.677 167.582L111.345 160.155L111.342 160.156Z" fill="#6787C3"/>
<path d="M229.454 58.6238C227.722 58.8242 225.977 58.3573 224.574 57.319L212.429 48.313C209.61 46.294 206.114 45.4479 202.683 45.9584L193.041 47.392C191.551 47.615 190.228 48.4729 189.421 49.746L186.523 54.3183L183.926 54.9857C181.912 55.3894 180.386 56.4323 180.129 58.2737C179.879 60.0769 180.918 62.0743 182.614 62.567C181.137 62.8935 180.084 64.2591 180.113 65.6333C180.186 69.2033 183.24 69.8924 183.24 69.8924C181.715 70.0247 180.72 70.8891 180.563 72.0309C180.466 72.733 180.429 73.9716 181.714 74.9223C181.209 75.0071 180.811 75.3022 180.437 75.7236C179.83 76.4061 180.073 78.213 180.267 79.3456C180.267 79.3456 180.443 82.6338 183.369 83.2336L199.547 86.1437C199.547 86.1437 207.298 87.5146 218.152 82.3092C218.894 81.9534 219.69 81.7259 220.508 81.6468L315.542 68.1369L296.51 32.0188L229.453 58.6147L229.454 58.6238Z" fill="#FFBEAC"/>
<path d="M241.134 53.9922L301.381 27.9291C301.381 27.9291 317.083 41.7091 321.242 73.0181C321.242 73.0181 251.189 80.8348 245.487 78.1723L245.169 63.5954L241.134 53.9922Z" fill="#F37E60"/>
<path d="M231.318 53.382C230.53 53.0011 229.821 52.9399 229.245 53.017C228.886 53.0644 228.548 53.1862 228.243 53.3619C228.198 53.0343 228.118 52.7085 227.999 52.3917C227.723 51.6618 227.236 50.9137 226.404 50.2762C224.908 49.134 223.407 49.8233 222.379 50.6524C222.414 49.8944 222.294 48.1188 220.642 46.972C218.493 45.4814 216.696 46.1965 215.159 47.2196C215.159 47.2196 216.593 44.1643 213.53 42.7703L206.456 49.8571C206.456 49.8571 203.39 52.7291 204.363 55.2382C205.336 57.7443 207.805 58.3506 208.406 58.27C208.406 58.27 206.021 61.6595 209.377 63.9948C211.585 65.5292 213.466 64.0489 214.595 62.6719C214.78 63.6849 215.265 64.8359 216.447 65.5513C218.929 67.0539 220.927 65.491 222.197 64.2725C222.896 63.6011 224.837 60.8076 226.315 58.5357C226.565 59.028 226.945 59.4605 227.456 59.7682C228.662 60.5016 230.211 60.3194 231.214 59.3266L232.212 58.3222C232.725 57.4276 233.17 56.6114 233.101 55.8381C233.013 54.8816 232.393 53.8996 231.328 53.3836L231.318 53.382Z" fill="#FFB098"/>
<path d="M212.37 46.7268C210.325 48.7831 207.13 50.1101 204.522 50.9123L188.618 53.9895C189.948 52.5513 192.939 49.2197 195.397 46.3829C197.728 43.6891 199.654 42.5274 200.545 42.0874C200.862 41.9315 201.211 41.8638 201.563 41.8762C206.909 42.0736 210.065 41.3132 211.301 40.8865C211.837 40.701 212.442 40.8148 212.848 41.2095C213.84 42.17 214.839 44.2478 212.376 46.7259L212.37 46.7268Z" fill="#FFB098"/>
<path d="M211.43 85.1428C211.416 85.1512 211.399 85.1599 211.381 85.1657C211.11 85.2589 204.672 87.4244 199.501 86.3892C194.397 85.3687 189.891 84.6584 189.846 84.6526C189.713 84.6323 189.623 84.5063 189.644 84.3732C189.664 84.2401 189.79 84.15 189.923 84.1703C189.967 84.1761 194.483 84.8881 199.596 85.9102C204.642 86.9176 211.16 84.7248 211.225 84.7027C211.352 84.659 211.492 84.7278 211.533 84.8549C211.571 84.9638 211.526 85.082 211.43 85.1398L211.43 85.1428Z" fill="#DB9885"/>
<path d="M182.041 62.4851L189.815 63.6604" stroke="#DB9885" stroke-width="1.5" stroke-linecap="round" stroke-linejoin="round"/>
<path d="M183.184 70.136L191.738 71.5973" stroke="#DB9885" stroke-width="1.5" stroke-linecap="round" stroke-linejoin="round"/>
<path d="M181.514 75.3425L190.923 77.8406" stroke="#DB9885" stroke-width="1.5" stroke-linecap="round" stroke-linejoin="round"/>
<path d="M241.133 53.9924C241.133 53.9924 245.479 64.7044 245.36 78.6992C245.36 78.6992 251.253 78.9325 252.618 78.722C252.618 78.722 254.299 61.7983 247.988 50.8848C247.988 50.8848 244.879 52.0006 241.133 53.9924Z" fill="#D86344"/>
<path d="M170.366 88.9592C170.366 88.9592 189.981 94.4216 198.681 106.412C198.681 106.412 197.415 111.586 195.701 114.643C195.701 114.643 176.035 101.143 163.493 97.9459C163.493 97.9459 165.851 92.0821 170.366 88.9592Z" fill="#81A3E3"/>
<path d="M188.371 54.0171C188.371 54.0171 202.681 52.1511 207.376 49.8191C212.071 47.484 214.117 43.7765 214.117 43.7765" stroke="#DB9885" stroke-width="1.5" stroke-linecap="round" stroke-linejoin="round"/>
<path d="M214.622 49.0665C214.622 49.0665 210.378 59.732 206.745 58.2993C203.112 56.8636 203.831 53.0231 205.523 50.9206" stroke="#DB9885" stroke-width="1.5" stroke-linecap="round" stroke-linejoin="round"/>
<path d="M221.312 52.5381C221.312 52.5381 217.527 60.2076 213.861 63.7053C210.199 67.2025 205.109 62.8003 208.397 58.2657" stroke="#DB9885" stroke-width="1.5" stroke-linecap="round" stroke-linejoin="round"/>
<path d="M226.996 55.2869C226.996 55.2869 224.638 64.583 219.725 66.0184C214.812 67.4537 214.677 62.8646 214.677 62.8646" stroke="#DB9885" stroke-width="1.5" stroke-linecap="round" stroke-linejoin="round"/>
<path d="M232.32 58.1084C232.32 58.1084 228.431 63.0087 226.084 58.0659" stroke="#DB9885" stroke-width="1.5" stroke-linecap="round" stroke-linejoin="round"/>
</g>
<defs>
<clipPath id="clip0_52_1216">
<rect width="292" height="142" rx="10" fill="white"/>
</clipPath>
</defs>
</svg>
