<svg width="229" height="316" fill="none" xmlns="http://www.w3.org/2000/svg"><g clip-path="url(#a)"><path d="M216.137 1.46H12.787C5.776 1.46 0 7.158 0 14.24v288.903c0 7.082 5.777 12.778 12.786 12.778h203.351c7.086 0 12.786-5.773 12.786-12.778V14.24c.077-7.083-5.7-12.78-12.786-12.78Z" fill="#506186"/><path d="M216.137 1.46H12.787C5.776 1.46 0 7.158 0 14.24v3.694C0 10.93 5.777 5.156 12.786 5.156h203.351c7.086 0 12.786 5.773 12.786 12.778V14.24c.077-7.082-5.7-12.778-12.786-12.778Z" fill="#6277A7"/><path d="M27.5 298.448c-5.16 0-9.32-4.157-9.32-9.391V28.79c0-5.158 4.16-9.392 9.32-9.392h179.934c5.161 0 9.32 4.157 9.32 9.392v260.267c0 5.157-4.159 9.391-9.32 9.391H27.5Z" fill="#3D4D71"/><path d="M24.492 293.984a9.3 9.3 0 0 1-9.32-9.315V25.326a9.3 9.3 0 0 1 9.32-9.314h179.934a9.3 9.3 0 0 1 9.32 9.314V284.67a9.3 9.3 0 0 1-9.32 9.315H24.492Z" fill="#fff"/><path d="M48.685 35.488H37.67c-1.848 0-3.389 1.54-3.389 3.387V49.96c0 1.848 1.54 3.387 3.39 3.387h11.091c1.849 0 3.39-1.54 3.39-3.387V38.875c0-1.847-1.541-3.387-3.467-3.387Zm.847 14.472a.855.855 0 0 1-.847.847H37.67a.855.855 0 0 1-.847-.847V38.875c0-.462.385-.846.847-.846h11.092c.462 0 .847.384.847.846V49.96h-.077ZM61.627 50.733h131.87c1.617 0 1.617-2.463 0-2.463H61.627c-1.617 0-1.617 2.463 0 2.463ZM61.627 40.647h131.87c1.617 0 1.617-2.463 0-2.463H61.627c-1.617 0-1.617 2.463 0 2.463ZM48.685 63.121H37.67c-1.848 0-3.389 1.54-3.389 3.387v11.085c0 1.848 1.54 3.387 3.39 3.387h11.091c1.849 0 3.39-1.54 3.39-3.387V66.508c0-1.847-1.541-3.387-3.467-3.387Zm.847 14.472a.855.855 0 0 1-.847.847H37.67a.855.855 0 0 1-.847-.847V66.508c0-.462.385-.847.847-.847h11.092c.462 0 .847.385.847.847v11.085h-.077ZM61.627 78.366h131.87c1.617 0 1.617-2.464 0-2.464H61.627c-1.617 0-1.617 2.464 0 2.464ZM61.627 68.28h131.87c1.617 0 1.617-2.464 0-2.464H61.627c-1.617 0-1.617 2.464 0 2.464ZM48.685 90.758H37.67c-1.848 0-3.389 1.54-3.389 3.387v11.085c0 1.847 1.54 3.387 3.39 3.387h11.091c1.849 0 3.39-1.54 3.39-3.387V94.145c0-1.848-1.541-3.387-3.467-3.387Zm.847 14.472a.855.855 0 0 1-.847.847H37.67a.855.855 0 0 1-.847-.847V94.145c0-.462.385-.847.847-.847h11.092c.462 0 .847.385.847.847v11.085h-.077ZM61.627 106.002h131.87c1.617 0 1.617-2.463 0-2.463H61.627c-1.617 0-1.617 2.463 0 2.463ZM61.627 95.916h131.87c1.617 0 1.617-2.463 0-2.463H61.627c-1.617 0-1.617 2.463 0 2.463ZM48.685 118.395H37.67c-1.848 0-3.389 1.539-3.389 3.387v11.085c0 1.847 1.54 3.387 3.39 3.387h11.091c1.849 0 3.39-1.54 3.39-3.387v-11.085c0-1.848-1.541-3.387-3.467-3.387Zm.847 14.472a.854.854 0 0 1-.847.846H37.67a.854.854 0 0 1-.847-.846v-11.085c0-.462.385-.847.847-.847h11.092c.462 0 .847.385.847.847v11.085h-.077ZM61.627 133.639h131.87c1.617 0 1.617-2.463 0-2.463H61.627c-1.617 0-1.617 2.463 0 2.463ZM61.627 123.553h131.87c1.617 0 1.617-2.463 0-2.463H61.627c-1.617 0-1.617 2.463 0 2.463ZM48.685 146.031H37.67c-1.848 0-3.389 1.54-3.389 3.387v11.085c0 1.848 1.54 3.387 3.39 3.387h11.091c1.849 0 3.39-1.539 3.39-3.387v-11.085c0-1.847-1.541-3.387-3.467-3.387Zm.847 14.472a.855.855 0 0 1-.847.847H37.67a.855.855 0 0 1-.847-.847v-11.085c0-.462.385-.846.847-.846h11.092c.462 0 .847.384.847.846v11.085h-.077ZM61.627 161.276h131.87c1.617 0 1.617-2.463 0-2.463H61.627c-1.617-.001-1.617 2.463 0 2.463ZM61.627 151.19h131.87c1.617 0 1.617-2.463 0-2.463H61.627c-1.617 0-1.617 2.463 0 2.463ZM48.685 173.664H37.67c-1.848 0-3.389 1.54-3.389 3.387v11.085c0 1.848 1.54 3.387 3.39 3.387h11.091c1.849 0 3.39-1.539 3.39-3.387v-11.085c0-1.847-1.541-3.387-3.467-3.387Zm.847 14.472a.855.855 0 0 1-.847.847H37.67a.855.855 0 0 1-.847-.847v-11.085c0-.462.385-.847.847-.847h11.092c.462 0 .847.385.847.847v11.085h-.077ZM61.627 188.909h131.87c1.617 0 1.617-2.464 0-2.464H61.627c-1.617 0-1.617 2.464 0 2.464ZM61.627 178.823h131.87c1.617 0 1.617-2.464 0-2.464H61.627c-1.617 0-1.617 2.464 0 2.464ZM48.685 201.301H37.67c-1.848 0-3.389 1.539-3.389 3.387v11.085c0 1.847 1.54 3.387 3.39 3.387h11.091c1.849 0 3.39-1.54 3.39-3.387v-11.008a3.45 3.45 0 0 0-3.467-3.464Zm.847 14.472a.855.855 0 0 1-.847.847H37.67a.855.855 0 0 1-.847-.847v-11.008c0-.462.385-.847.847-.847h11.092c.462 0 .847.385.847.847v11.008h-.077ZM61.627 216.545h131.87c1.617 0 1.617-2.463 0-2.463H61.627c-1.617 0-1.617 2.463 0 2.463ZM61.627 206.459h131.87c1.617 0 1.617-2.463 0-2.463H61.627c-1.617 0-1.617 2.463 0 2.463ZM48.685 228.938H37.67c-1.848 0-3.389 1.539-3.389 3.387v11.085c0 1.847 1.54 3.387 3.39 3.387h11.091c1.849 0 3.39-1.54 3.39-3.387v-11.085c0-1.848-1.541-3.387-3.467-3.387Zm.847 14.472a.854.854 0 0 1-.847.846H37.67a.855.855 0 0 1-.847-.846v-11.085c0-.462.385-.847.847-.847h11.092c.462 0 .847.385.847.847v11.085h-.077ZM61.627 244.182h131.87c1.617 0 1.617-2.463 0-2.463H61.627c-1.617 0-1.617 2.463 0 2.463ZM61.627 234.096h131.87c1.617 0 1.617-2.463 0-2.463H61.627c-1.617 0-1.617 2.463 0 2.463ZM48.685 256.57H37.67c-1.848 0-3.389 1.54-3.389 3.387v11.085c0 1.848 1.54 3.388 3.39 3.388h11.091c1.849 0 3.39-1.54 3.39-3.388v-11.085c0-1.847-1.541-3.387-3.467-3.387Zm.847 14.472a.855.855 0 0 1-.847.847H37.67a.855.855 0 0 1-.847-.847v-11.085c0-.461.385-.846.847-.846h11.092c.462 0 .847.385.847.846v11.085h-.077ZM61.627 271.815h131.87c1.617 0 1.617-2.463 0-2.463H61.627c-1.617 0-1.617 2.463 0 2.463ZM61.627 261.729h131.87c1.617 0 1.617-2.463 0-2.463H61.627c-1.617 0-1.617 2.463 0 2.463Z" fill="#929496"/><path d="M54.998 32.485c-4.93 1.848-8.781 6.62-11.785 11.162-2.234-2.54-5.007-4.388-8.396-5.542-2.003-.616-2.773 2.386-.847 3.079 3.389 1.231 5.93 3.387 7.78 6.389.77 1.155 2.31 1.078 3.08 0 3.39-4.927 8.242-8.39 11.709-13.087.693-.923-.463-2.386-1.541-2.001ZM55.618 55.735c-5.315 2.848-9.32 9.006-12.478 14.395-2.157-1.77-4.468-3.387-6.933-4.62-1.848-.923-3.466 1.771-1.617 2.772 3.004 1.694 5.315 3.618 7.24 6.543.925 1.463 2.927 1.386 3.929 0 3.851-5.62 9.397-11.085 12.093-17.397.385-1.309-1.233-2.232-2.234-1.693ZM57.152 80.903c-3.544 1.848-6.085 5.543-8.55 8.622-2.003 2.54-4.006 5.158-5.854 7.775l-4.237-3.387c-1.617-1.309-3.62.693-2.233 2.232 1.771 2.079 3.62 4.157 5.391 6.236.77.923 2.465.846 3.235 0 2.927-3.234 5.546-6.775 8.32-10.085 2.387-2.848 5.16-5.927 6.316-9.468.462-1.463-1.233-2.54-2.388-1.925ZM55.383 109.156c-3.004 2.54-5.315 6.158-7.395 9.468-1.463 2.386-3.235 4.927-4.467 7.544-1.464-1.771-3.004-3.387-4.699-4.85-1.54-1.308-3.697.847-2.233 2.233 2.31 2.078 4.313 4.388 6.085 6.928.616.924 1.848 1.078 2.696.308 2.927-2.618 4.852-6.467 7.086-9.7 2.234-3.233 4.545-6.62 5.854-10.392.616-1.693-1.695-2.54-2.927-1.539Z" fill="#F37E60"/><path opacity=".53" d="m183.706 28.405-.539-14.395v-.77c-.154-4.003-3.543-7.313-7.625-7.313H167.762l-.154-4.388H61.311l.154 4.388h-7.779c-4.083 0-7.24 3.31-7.087 7.313v.77l.54 14.395v-.077l.076 1.386c.154 4.002 3.544 7.313 7.626 7.313h33.584c1.617 0 3.08 1 3.543 2.386 0 .077.077.154.077.23.693 2.772 1.925 4.85 3.466 6.39.077.077.077.077.077.154 4.776 4.773 12.786 4.773 20.566 4.773 7.934 0 16.099 0 20.489-5.004 1.387-1.54 2.388-3.618 2.927-6.312 0-.154.077-.385.154-.539 0-.077.077-.154.077-.231.539-1.078 1.772-1.848 3.158-1.848h33.584c4.082 0 7.24-3.233 7.086-7.313l.077-1.308Zm-4.236-15.242.616 16.55c.077 1.848-1.54 3.31-3.543 3.31h-33.584c-3.466 0-6.316 2.31-7.009 5.62-1.541 7.852-8.55 8.314-19.873 8.314s-18.41-.385-20.412-8.314c-.847-3.31-3.928-5.62-7.395-5.62H54.688c-2.003 0-3.697-1.462-3.774-3.31l-.617-16.55c0-.693.154-1.309.54-1.848.616-.846 1.694-1.462 3.004-1.462h7.78v.23l.076 2.156c.077 2.617 2.157 4.773 4.622 4.773h97.439c2.464 0 4.39-2.155 4.313-4.773l-.077-2.155v-.231h7.78c1.232 0 2.388.539 3.081 1.462.308.54.616 1.155.616 1.848Z" fill="#C9CAC6"/><path d="M175.391 4.078H53.535c-4.082 0-7.394 3.08-7.394 6.774v15.396c0 3.772 3.312 6.774 7.394 6.774H87.12c1.694 0 3.235 1.001 3.543 2.387 2.619 10.546 13.326 10.546 23.801 10.546 10.399 0 21.183 0 23.801-10.546.309-1.386 1.849-2.387 3.544-2.387h33.583c4.083 0 7.395-3.002 7.395-6.774V10.852c0-3.695-3.312-6.774-7.395-6.774Zm3.697 22.247c0 1.694-1.617 3.08-3.62 3.08h-33.583c-3.467 0-6.394 2.155-7.164 5.234-1.771 7.313-8.858 7.698-20.181 7.698s-18.332-.385-20.18-7.698c-.771-3.08-3.698-5.235-7.164-5.235h-33.66c-2.004 0-3.621-1.385-3.621-3.079V10.93c0-1.693 1.617-3.079 3.62-3.079h121.856c2.003 0 3.62 1.386 3.62 3.08v15.395h.077Z" fill="#C9CAC6"/><path d="M175.391 4.078H53.535c-4.082 0-7.394 3.08-7.394 6.774v.77c0-3.772 3.312-6.774 7.394-6.774h121.856c4.083 0 7.395 3.08 7.395 6.774v-.77c0-3.695-3.312-6.774-7.395-6.774ZM53.534 30.099h33.584c3.466 0 6.393 2.155 7.163 5.235 1.772 7.313 8.858 7.697 20.181 7.697s18.333-.384 20.181-7.697c.771-3.08 3.698-5.235 7.164-5.235h33.583c2.003 0 3.621-1.386 3.621-3.08v-.769c0 1.694-1.618 3.08-3.621 3.08h-33.583c-3.466 0-6.393 2.155-7.164 5.234-1.771 7.313-8.858 7.698-20.181 7.698s-18.332-.385-20.18-7.698c-.77-3.08-3.698-5.235-7.164-5.235H53.534c-2.002 0-3.62-1.386-3.62-3.079v.77c0 1.693 1.618 3.079 3.62 3.079Z" fill="#E4E5E6"/><path d="M175.39 6.543H53.534c-2.002 0-3.62 1.386-3.62 3.08v1.308c0-1.694 1.618-3.08 3.62-3.08H175.39c2.003 0 3.621 1.386 3.621 3.08V9.622c.077-1.693-1.618-3.079-3.621-3.079ZM175.391 31.794h-33.583c-1.695 0-3.235 1-3.544 2.386-2.618 10.546-13.325 10.546-23.801 10.546-10.398 0-21.182 0-23.801-10.546-.308-1.386-1.849-2.386-3.543-2.386H53.535c-4.082 0-7.394-3.08-7.394-6.774v1.308c0 3.772 3.312 6.774 7.394 6.774H87.12c1.694 0 3.235 1.001 3.543 2.387 2.619 10.546 13.326 10.546 23.801 10.546 10.399 0 21.183 0 23.801-10.546.309-1.386 1.849-2.387 3.544-2.387h33.583c4.083 0 7.395-3.079 7.395-6.774V25.02c0 3.695-3.312 6.774-7.395 6.774Z" fill="#9C9D9B"/><path d="M170.617 4.078H58.313v3.695h112.304V4.078Z" fill="#C9CAC6"/><path d="M163.065 14.472h-97.13c-2.543 0-4.623-2.078-4.623-4.619V0h106.374v9.853c0 2.54-2.08 4.62-4.621 4.62Z" fill="#C9CAC6"/><path d="M163.219 12.469H65.78a4.47 4.47 0 0 1-4.468-4.465v2.001a4.47 4.47 0 0 0 4.468 4.465h97.439a4.469 4.469 0 0 0 4.467-4.465V8.004a4.469 4.469 0 0 1-4.467 4.465Z" fill="#9C9D9B"/><path d="M121.242 4.62h-54.69a1.216 1.216 0 0 1-1.232-1.232c0-.693.54-1.232 1.233-1.232h54.689c.693 0 1.232.54 1.232 1.232 0 .693-.539 1.232-1.232 1.232ZM162.449 4.62h-33.584a1.216 1.216 0 0 1-1.232-1.232c0-.693.539-1.232 1.232-1.232h33.584c.693 0 1.232.54 1.232 1.232-.077.693-.616 1.232-1.232 1.232Z" fill="#F3F4F4"/></g><defs><clipPath id="a"><path fill="#fff" d="M0 0h229v316H0z"/></clipPath></defs></svg>