<svg width="317" height="336" fill="none" xmlns="http://www.w3.org/2000/svg"><g clip-path="url(#a)"><path d="M299.186 2.027H17.692c-9.703 0-17.7 7.896-17.7 17.712v400.442c0 9.817 7.997 17.712 17.7 17.712h281.494c9.809 0 17.7-8.002 17.7-17.712V19.739c.106-9.816-7.891-17.712-17.7-17.712Z" fill="#506186"/><path d="M299.186 2.027H17.692c-9.703 0-17.7 7.896-17.7 17.712v5.122c0-9.71 7.997-17.712 17.7-17.712h281.494c9.809 0 17.7 8.002 17.7 17.712v-5.122c.106-9.816-7.891-17.712-17.7-17.712Z" fill="#6277A7"/><path d="M38.058 413.671c-7.144 0-12.902-5.762-12.902-13.017V39.904c0-7.149 5.758-13.017 12.902-13.017h249.079c7.144 0 12.902 5.761 12.902 13.017v360.75c0 7.149-5.758 13.017-12.902 13.017H38.058Z" fill="#3D4D71"/><path d="M33.902 407.486A12.883 12.883 0 0 1 21 394.575V35.105c0-7.148 5.758-12.91 12.902-12.91H282.98a12.883 12.883 0 0 1 12.902 12.91v359.47a12.883 12.883 0 0 1-12.902 12.911H33.901Z" fill="#fff"/><path d="M67.377 49.191H52.129c-2.559 0-4.691 2.134-4.691 4.695v15.365c0 2.56 2.132 4.695 4.691 4.695h15.354c2.56 0 4.692-2.134 4.692-4.695V53.886c0-2.56-2.133-4.695-4.798-4.695Zm1.172 20.06c0 .64-.533 1.173-1.172 1.173H52.129c-.64 0-1.173-.533-1.173-1.173V53.886c0-.64.533-1.174 1.173-1.174h15.354c.64 0 1.173.534 1.173 1.174v15.365h-.107ZM85.289 70.317H267.833c2.239 0 2.239-3.415 0-3.415H85.289c-2.24 0-2.24 3.415 0 3.415ZM85.289 56.34H267.833c2.239 0 2.239-3.414 0-3.414H85.289c-2.24 0-2.24 3.414 0 3.414ZM67.377 87.496H52.129c-2.559 0-4.691 2.134-4.691 4.695v15.365c0 2.56 2.132 4.694 4.691 4.694h15.354c2.56 0 4.692-2.134 4.692-4.694V92.191c0-2.56-2.133-4.695-4.798-4.695Zm1.172 20.06c0 .64-.533 1.173-1.172 1.173H52.129c-.64 0-1.173-.533-1.173-1.173V92.191c0-.64.533-1.174 1.173-1.174h15.354c.64 0 1.173.534 1.173 1.174v15.365h-.107ZM85.289 108.621H267.833c2.239 0 2.239-3.414 0-3.414H85.289c-2.24 0-2.24 3.414 0 3.414ZM85.289 94.645H267.833c2.239 0 2.239-3.414 0-3.414H85.289c-2.24 0-2.24 3.414 0 3.414ZM67.377 125.801H52.129c-2.559 0-4.691 2.134-4.691 4.695v15.364c0 2.561 2.132 4.695 4.691 4.695h15.354c2.56 0 4.692-2.134 4.692-4.695v-15.364c0-2.561-2.133-4.695-4.798-4.695Zm1.172 20.059c0 .64-.533 1.174-1.172 1.174H52.129c-.64 0-1.173-.534-1.173-1.174v-15.364c0-.641.533-1.174 1.173-1.174h15.354c.64 0 1.173.533 1.173 1.174v15.364h-.107ZM85.289 146.926H267.833c2.239 0 2.239-3.414 0-3.414H85.289c-2.24 0-2.24 3.414 0 3.414ZM85.289 132.95H267.833c2.239 0 2.239-3.415 0-3.415H85.289c-2.24 0-2.24 3.415 0 3.415ZM67.377 164.105H52.129c-2.559 0-4.691 2.134-4.691 4.695v15.365c0 2.561 2.132 4.695 4.691 4.695h15.354c2.56 0 4.692-2.134 4.692-4.695V168.8c0-2.561-2.133-4.695-4.798-4.695Zm1.172 20.06c0 .64-.533 1.174-1.172 1.174H52.129c-.64 0-1.173-.534-1.173-1.174V168.8c0-.64.533-1.173 1.173-1.173h15.354c.64 0 1.173.533 1.173 1.173v15.365h-.107ZM85.289 185.231H267.833c2.239 0 2.239-3.415 0-3.415H85.289c-2.24 0-2.24 3.415 0 3.415ZM85.289 171.254H267.833c2.239 0 2.239-3.414 0-3.414H85.289c-2.24 0-2.24 3.414 0 3.414ZM67.377 202.41H52.129c-2.559 0-4.691 2.134-4.691 4.695v15.365c0 2.56 2.132 4.694 4.691 4.694h15.354c2.56 0 4.692-2.134 4.692-4.694v-15.365c0-2.561-2.133-4.695-4.798-4.695Zm1.172 20.06c0 .64-.533 1.173-1.172 1.173H52.129c-.64 0-1.173-.533-1.173-1.173v-15.365c0-.64.533-1.174 1.173-1.174h15.354c.64 0 1.173.534 1.173 1.174v15.365h-.107ZM85.289 223.535H267.833c2.239 0 2.239-3.414 0-3.414H85.289c-2.24 0-2.24 3.414 0 3.414ZM85.289 209.559H267.833c2.239 0 2.239-3.414 0-3.414H85.289c-2.24 0-2.24 3.414 0 3.414ZM67.377 240.715H52.129c-2.559 0-4.691 2.134-4.691 4.695v15.364c0 2.561 2.132 4.695 4.691 4.695h15.354c2.56 0 4.692-2.134 4.692-4.695V245.41c0-2.561-2.133-4.695-4.798-4.695Zm1.172 20.059c0 .64-.533 1.174-1.172 1.174H52.129c-.64 0-1.173-.534-1.173-1.174V245.41c0-.641.533-1.174 1.173-1.174h15.354c.64 0 1.173.533 1.173 1.174v15.364h-.107ZM85.289 261.84H267.833c2.239 0 2.239-3.414 0-3.414H85.289c-2.24 0-2.24 3.414 0 3.414ZM85.289 247.864H267.833c2.239 0 2.239-3.415 0-3.415H85.289c-2.24 0-2.24 3.415 0 3.415ZM67.377 279.02H52.129c-2.559 0-4.691 2.134-4.691 4.694v15.365c0 2.561 2.132 4.695 4.691 4.695h15.354c2.56 0 4.692-2.134 4.692-4.695v-15.258a4.78 4.78 0 0 0-4.798-4.801Zm1.172 20.059c0 .64-.533 1.174-1.172 1.174H52.129c-.64 0-1.173-.534-1.173-1.174v-15.258c0-.64.533-1.174 1.173-1.174h15.354c.64 0 1.173.534 1.173 1.174v15.258h-.107ZM85.289 300.145H267.833c2.239 0 2.239-3.415 0-3.415H85.289c-2.24 0-2.24 3.415 0 3.415ZM85.289 286.168H267.833c2.239 0 2.239-3.414 0-3.414H85.289c-2.24 0-2.24 3.414 0 3.414ZM67.377 317.324H52.129c-2.559 0-4.691 2.134-4.691 4.695v15.365c0 2.56 2.132 4.694 4.691 4.694h15.354c2.56 0 4.692-2.134 4.692-4.694v-15.365c0-2.561-2.133-4.695-4.798-4.695Zm1.172 20.06c0 .64-.533 1.173-1.172 1.173H52.129c-.64 0-1.173-.533-1.173-1.173v-15.365c0-.64.533-1.174 1.173-1.174h15.354c.64 0 1.173.534 1.173 1.174v15.365h-.107ZM85.289 338.45H267.833c2.239 0 2.239-3.415 0-3.415H85.289c-2.24 0-2.24 3.415 0 3.415ZM85.289 324.473H267.833c2.239 0 2.239-3.414 0-3.414H85.289c-2.24 0-2.24 3.414 0 3.414Z" fill="#929496"/><path d="M76.123 45.029c-6.824 2.56-12.156 9.176-16.314 15.471-3.092-3.52-6.93-6.081-11.622-7.682-2.773-.854-3.839 3.308-1.173 4.268 4.691 1.707 8.21 4.695 10.769 8.856 1.066 1.6 3.199 1.494 4.265 0 4.692-6.829 11.409-11.63 16.207-18.139.96-1.28-.64-3.308-2.132-2.774ZM76.973 77.252C69.616 81.2 64.072 89.736 59.7 97.205c-2.986-2.454-6.184-4.695-9.596-6.402-2.56-1.28-4.799 2.454-2.24 3.84 4.159 2.348 7.358 5.016 10.023 9.07 1.28 2.028 4.052 1.921 5.438 0 5.331-7.789 13.009-15.364 16.74-24.114.534-1.814-1.706-3.094-3.092-2.347ZM79.11 112.143c-4.905 2.561-8.424 7.683-11.836 11.951-2.772 3.521-5.544 7.149-8.104 10.776l-5.864-4.694c-2.24-1.814-5.011.96-3.092 3.094 2.452 2.881 5.011 5.762 7.464 8.643 1.066 1.28 3.412 1.173 4.478 0 4.052-4.482 7.677-9.39 11.516-13.978 3.305-3.948 7.144-8.216 8.743-13.124.64-2.027-1.706-3.521-3.305-2.668ZM76.66 151.302c-4.159 3.521-7.358 8.536-10.236 13.124-2.026 3.307-4.479 6.828-6.185 10.456-2.026-2.454-4.158-4.695-6.504-6.722-2.133-1.814-5.118 1.174-3.092 3.094 3.199 2.881 5.97 6.082 8.423 9.603.853 1.281 2.56 1.494 3.732.427 4.052-3.628 6.718-8.963 9.81-13.444 3.092-4.481 6.29-9.176 8.103-14.404.853-2.348-2.345-3.521-4.051-2.134Z" fill="#F37E60"/><path opacity=".53" d="m254.294 39.37-.746-19.952v-1.067c-.213-5.548-4.905-10.136-10.556-10.136h-10.769l-.213-6.082H84.865l.214 6.082H74.31c-5.652 0-10.024 4.588-9.81 10.136v1.067l.746 19.953v-.107l.107 1.92c.213 5.55 4.904 10.137 10.556 10.137h46.489c2.239 0 4.265 1.387 4.905 3.308 0 .107.106.213.106.32.96 3.841 2.666 6.722 4.798 8.856.107.107.107.107.107.213 6.611 6.616 17.7 6.616 28.469 6.616 10.983 0 22.285 0 28.363-6.936 1.919-2.134 3.305-5.015 4.052-8.75 0-.212.106-.533.213-.746 0-.107.106-.213.106-.32.747-1.494 2.453-2.56 4.372-2.56h46.489c5.651 0 10.023-4.482 9.81-10.137l.106-1.814Zm-5.864-21.126.853 22.94c.107 2.562-2.132 4.589-4.905 4.589h-46.489c-4.798 0-8.743 3.2-9.703 7.789-2.132 10.883-11.835 11.523-27.509 11.523s-25.484-.533-28.256-11.523c-1.173-4.588-5.438-7.79-10.237-7.79H75.695c-2.772 0-5.118-2.026-5.224-4.587l-.853-22.94c0-.96.213-1.815.746-2.561.853-1.174 2.346-2.028 4.158-2.028h10.77v.32l.106 2.988c.107 3.628 2.986 6.615 6.398 6.615h134.882c3.412 0 6.078-2.987 5.971-6.615l-.106-2.988v-.32h10.769c1.706 0 3.305.747 4.265 2.028.427.746.853 1.6.853 2.56Z" fill="#C9CAC6"/><path d="M242.778 5.656H74.095c-5.65 0-10.236 4.268-10.236 9.39v21.34c0 5.228 4.585 9.39 10.236 9.39h46.49c2.345 0 4.478 1.386 4.904 3.307C129.115 63.7 143.936 63.7 158.437 63.7c14.394 0 29.322 0 32.947-14.618.427-1.92 2.559-3.308 4.905-3.308h46.489c5.652 0 10.236-4.161 10.236-9.39v-21.34c0-5.12-4.584-9.389-10.236-9.389Zm5.118 30.836c0 2.348-2.239 4.268-5.011 4.268h-46.489c-4.798 0-8.85 2.988-9.916 7.256-2.453 10.136-12.262 10.67-27.936 10.67-15.675 0-25.378-.534-27.937-10.67-1.066-4.268-5.118-7.256-9.916-7.256H74.095c-2.772 0-5.01-1.92-5.01-4.268v-21.34c0-2.347 2.238-4.268 5.01-4.268h168.683c2.773 0 5.012 1.921 5.012 4.268v21.34h.106Z" fill="#C9CAC6"/><path d="M242.778 5.656H74.095c-5.65 0-10.236 4.268-10.236 9.39v1.067c0-5.229 4.585-9.39 10.236-9.39h168.683c5.652 0 10.236 4.268 10.236 9.39v-1.067c0-5.122-4.584-9.39-10.236-9.39ZM74.097 41.722h46.489c4.799 0 8.85 2.987 9.917 7.255 2.452 10.137 12.262 10.67 27.936 10.67s25.377-.533 27.936-10.67c1.066-4.268 5.118-7.255 9.916-7.255h46.489c2.772 0 5.012-1.92 5.012-4.268v-1.067c0 2.347-2.24 4.268-5.012 4.268h-46.489c-4.798 0-8.85 2.987-9.916 7.255-2.453 10.137-12.262 10.67-27.936 10.67s-25.377-.533-27.936-10.67c-1.067-4.268-5.118-7.255-9.917-7.255H74.097c-2.772 0-5.011-1.92-5.011-4.268v1.067c0 2.347 2.24 4.268 5.011 4.268Z" fill="#E4E5E6"/><path d="M242.78 9.07H74.097c-2.772 0-5.011 1.92-5.011 4.268v1.814c0-2.347 2.24-4.268 5.011-4.268H242.78c2.772 0 5.012 1.92 5.012 4.268v-1.814c.106-2.347-2.24-4.268-5.012-4.268ZM242.778 44.07h-46.489c-2.346 0-4.478 1.386-4.905 3.307-3.625 14.618-18.446 14.618-32.947 14.618-14.395 0-29.322 0-32.948-14.618-.426-1.92-2.559-3.308-4.904-3.308h-46.49c-5.65 0-10.236-4.268-10.236-9.39v1.815c0 5.228 4.585 9.39 10.236 9.39h46.49c2.345 0 4.478 1.386 4.904 3.307 3.626 14.618 18.447 14.618 32.948 14.618 14.394 0 29.322 0 32.947-14.618.427-1.92 2.559-3.308 4.905-3.308h46.489c5.652 0 10.236-4.268 10.236-9.39V34.68c0 5.121-4.584 9.39-10.236 9.39Z" fill="#9C9D9B"/><path d="M236.164 5.656H80.704v5.122h155.46V5.656Z" fill="#C9CAC6"/><path d="M225.721 20.06H91.265c-3.519 0-6.398-2.881-6.398-6.402V0h147.251v13.658c0 3.52-2.879 6.401-6.397 6.401Z" fill="#C9CAC6"/><path d="M225.934 17.286H91.052a6.19 6.19 0 0 1-6.185-6.188v2.774a6.19 6.19 0 0 0 6.184 6.188h134.883a6.19 6.19 0 0 0 6.184-6.188v-2.774a6.19 6.19 0 0 1-6.184 6.188Z" fill="#9C9D9B"/><path d="M167.817 6.403H92.112c-.96 0-1.706-.747-1.706-1.708 0-.96.747-1.707 1.706-1.707h75.705c.96 0 1.706.747 1.706 1.707 0 .96-.746 1.708-1.706 1.708ZM224.859 6.403H178.37c-.96 0-1.706-.747-1.706-1.708 0-.96.746-1.707 1.706-1.707h46.489c.96 0 1.706.747 1.706 1.707-.106.96-.853 1.708-1.706 1.708Z" fill="#F3F4F4"/></g><defs><clipPath id="a"><path fill="#fff" transform="translate(-.008)" d="M0 0h317v438H0z"/></clipPath></defs></svg>