<svg width="407" height="497" fill="none" xmlns="http://www.w3.org/2000/svg"><path d="M384.266 2.594H22.733C10.27 2.594 0 12.707 0 25.28v512.907c0 12.574 10.27 22.687 22.733 22.687h361.533c12.599 0 22.733-10.25 22.733-22.687V25.28c.137-12.573-10.134-22.686-22.733-22.686Z" fill="#506186"/><path d="M384.266 2.594H22.733C10.27 2.594 0 12.707 0 25.28v6.56C0 19.404 10.27 9.154 22.733 9.154h361.533c12.599 0 22.733 10.25 22.733 22.686v-6.56c.137-12.573-10.134-22.686-22.733-22.686Z" fill="#6277A7"/><path d="M48.89 529.855c-9.175 0-16.57-7.38-16.57-16.673V51.115c0-9.157 7.395-16.674 16.57-16.674h319.903c9.175 0 16.57 7.38 16.57 16.674v462.067c0 9.157-7.395 16.673-16.57 16.673H48.891Z" fill="#3D4D71"/><path d="M43.555 521.926c-9.176 0-16.57-7.38-16.57-16.536V44.962c0-9.156 7.394-16.536 16.57-16.536h319.902c9.175 0 16.57 7.38 16.57 16.536V505.39c0 9.156-7.395 16.536-16.57 16.536H43.555Z" fill="#fff"/><path d="M86.554 63.004H66.97c-3.287 0-6.026 2.733-6.026 6.013v19.68c0 3.28 2.74 6.013 6.026 6.013h19.72c3.287 0 6.025-2.733 6.025-6.013v-19.68c0-3.28-2.738-6.013-6.162-6.013Zm1.506 25.693c0 .82-.684 1.503-1.506 1.503H66.97a1.518 1.518 0 0 1-1.507-1.503v-19.68c0-.82.685-1.503 1.507-1.503h19.72c.822 0 1.506.683 1.506 1.503v19.68h-.137ZM109.563 90.065h234.449c2.876 0 2.876-4.374 0-4.374H109.563c-2.876 0-2.876 4.374 0 4.374ZM109.563 72.162h234.449c2.876 0 2.876-4.373 0-4.373H109.563c-2.876 0-2.876 4.373 0 4.373ZM86.554 112.066H66.97c-3.287 0-6.026 2.734-6.026 6.014v19.68c0 3.28 2.74 6.013 6.026 6.013h19.72c3.287 0 6.025-2.733 6.025-6.013v-19.68c0-3.28-2.738-6.014-6.162-6.014Zm1.506 25.694c0 .82-.684 1.503-1.506 1.503H66.97a1.518 1.518 0 0 1-1.507-1.503v-19.68c0-.82.685-1.504 1.507-1.504h19.72c.822 0 1.506.684 1.506 1.504v19.68h-.137ZM109.563 139.127h234.449c2.876 0 2.876-4.373 0-4.373H109.563c-2.876 0-2.876 4.373 0 4.373ZM109.563 121.225h234.449c2.876 0 2.876-4.373 0-4.373H109.563c-2.876 0-2.876 4.373 0 4.373ZM86.554 161.129H66.97c-3.287 0-6.026 2.733-6.026 6.013v19.68c0 3.28 2.74 6.013 6.026 6.013h19.72c3.287 0 6.025-2.733 6.025-6.013v-19.68c0-3.28-2.738-6.013-6.162-6.013Zm1.506 25.693c0 .82-.684 1.503-1.506 1.503H66.97a1.518 1.518 0 0 1-1.507-1.503v-19.68c0-.82.685-1.503 1.507-1.503h19.72c.822 0 1.506.683 1.506 1.503v19.68h-.137ZM109.563 188.19h234.449c2.876 0 2.876-4.374 0-4.374H109.563c-2.876 0-2.876 4.374 0 4.374ZM109.563 170.283h234.449c2.876 0 2.876-4.373 0-4.373H109.563c-2.876 0-2.876 4.373 0 4.373ZM86.554 210.191H66.97c-3.287 0-6.026 2.734-6.026 6.014v19.68c0 3.28 2.74 6.013 6.026 6.013h19.72c3.287 0 6.025-2.733 6.025-6.013v-19.68c0-3.28-2.738-6.014-6.162-6.014Zm1.506 25.694c0 .82-.684 1.503-1.506 1.503H66.97a1.518 1.518 0 0 1-1.507-1.503v-19.68c0-.82.685-1.504 1.507-1.504h19.72c.822 0 1.506.684 1.506 1.504v19.68h-.137ZM109.563 237.252h234.449c2.876 0 2.876-4.373 0-4.373H109.563c-2.876 0-2.876 4.373 0 4.373ZM109.563 219.35h234.449c2.876 0 2.876-4.373 0-4.373H109.563c-2.876 0-2.876 4.373 0 4.373ZM86.554 259.254H66.97c-3.287 0-6.026 2.733-6.026 6.013v19.68c0 3.28 2.74 6.013 6.026 6.013h19.72c3.287 0 6.025-2.733 6.025-6.013v-19.68c0-3.28-2.738-6.013-6.162-6.013Zm1.506 25.693c0 .82-.684 1.503-1.506 1.503H66.97a1.518 1.518 0 0 1-1.507-1.503v-19.68c0-.82.685-1.503 1.507-1.503h19.72c.822 0 1.506.683 1.506 1.503v19.68h-.137ZM109.563 286.315h234.449c2.876 0 2.876-4.374 0-4.374H109.563c-2.876 0-2.876 4.374 0 4.374ZM109.563 268.412h234.449c2.876 0 2.876-4.373 0-4.373H109.563c-2.876 0-2.876 4.373 0 4.373ZM86.554 308.32H66.97c-3.287 0-6.026 2.734-6.026 6.014v19.679c0 3.28 2.74 6.014 6.026 6.014h19.72c3.287 0 6.025-2.734 6.025-6.014v-19.679c0-3.28-2.738-6.014-6.162-6.014Zm1.506 25.693c0 .82-.684 1.504-1.506 1.504H66.97a1.519 1.519 0 0 1-1.507-1.504v-19.679c0-.82.685-1.504 1.507-1.504h19.72c.822 0 1.506.684 1.506 1.504v19.679h-.137ZM109.563 335.377h234.449c2.876 0 2.876-4.373 0-4.373H109.563c-2.876 0-2.876 4.373 0 4.373ZM109.563 317.475h234.449c2.876 0 2.876-4.373 0-4.373H109.563c-2.876 0-2.876 4.373 0 4.373ZM86.554 357.383H66.97c-3.287 0-6.026 2.733-6.026 6.013v19.68c0 3.28 2.74 6.013 6.026 6.013h19.72c3.287 0 6.025-2.733 6.025-6.013v-19.543a6.13 6.13 0 0 0-6.162-6.15Zm1.506 25.693c0 .82-.684 1.503-1.506 1.503H66.97a1.518 1.518 0 0 1-1.507-1.503v-19.543c0-.82.685-1.504 1.507-1.504h19.72c.822 0 1.506.684 1.506 1.504v19.543h-.137ZM109.563 384.444h234.449c2.876 0 2.876-4.374 0-4.374H109.563c-2.876 0-2.876 4.374 0 4.374ZM109.563 366.537h234.449c2.876 0 2.876-4.373 0-4.373H109.563c-2.876 0-2.876 4.373 0 4.373ZM86.554 406.445H66.97c-3.287 0-6.026 2.734-6.026 6.014v19.68c0 3.28 2.74 6.013 6.026 6.013h19.72c3.287 0 6.025-2.733 6.025-6.013v-19.68c0-3.28-2.738-6.014-6.162-6.014Zm1.506 25.694c0 .82-.684 1.503-1.506 1.503H66.97a1.518 1.518 0 0 1-1.507-1.503v-19.68c0-.82.685-1.504 1.507-1.504h19.72c.822 0 1.506.684 1.506 1.504v19.68h-.137ZM109.563 433.506h234.449c2.876 0 2.876-4.373 0-4.373H109.563c-2.876 0-2.876 4.373 0 4.373ZM109.563 415.604h234.449c2.876 0 2.876-4.374 0-4.374H109.563c-2.876 0-2.876 4.374 0 4.374ZM86.554 455.508H66.97c-3.287 0-6.026 2.733-6.026 6.013v19.68c0 3.28 2.74 6.013 6.026 6.013h19.72c3.287 0 6.025-2.733 6.025-6.013v-19.68c0-3.28-2.738-6.013-6.162-6.013Zm1.506 25.693c0 .82-.684 1.503-1.506 1.503H66.97a1.518 1.518 0 0 1-1.507-1.503v-19.68c0-.82.685-1.503 1.507-1.503h19.72c.822 0 1.506.683 1.506 1.503v19.68h-.137ZM109.563 482.569h234.449c2.876 0 2.876-4.374 0-4.374H109.563c-2.876 0-2.876 4.374 0 4.374ZM109.563 464.666h234.449c2.876 0 2.876-4.373 0-4.373H109.563c-2.876 0-2.876 4.373 0 4.373Z" fill="#929496"/><path d="M97.782 57.675c-8.765 3.28-15.612 11.753-20.953 19.816-3.971-4.51-8.901-7.79-14.926-9.84-3.561-1.093-4.93 4.237-1.507 5.467 6.026 2.187 10.545 6.013 13.832 11.343 1.369 2.05 4.108 1.913 5.477 0 6.026-8.746 14.653-14.896 20.816-23.233 1.232-1.64-.822-4.237-2.74-3.553ZM98.876 98.946c-9.449 5.056-16.57 15.99-22.185 25.556-3.834-3.143-7.942-6.013-12.325-8.2-3.286-1.64-6.162 3.144-2.876 4.92 5.341 3.007 9.45 6.424 12.873 11.617 1.644 2.596 5.204 2.46 6.984 0 6.848-9.977 16.708-19.68 21.501-30.887.684-2.323-2.191-3.963-3.972-3.006ZM101.618 143.634c-6.3 3.28-10.818 9.84-15.2 15.307-3.561 4.51-7.122 9.156-10.408 13.803l-7.532-6.013c-2.876-2.324-6.437 1.23-3.972 3.963 3.15 3.69 6.437 7.38 9.586 11.07 1.37 1.64 4.383 1.503 5.752 0 5.204-5.74 9.86-12.027 14.79-17.903 4.245-5.057 9.175-10.524 11.23-16.81.821-2.597-2.192-4.51-4.246-3.417ZM98.46 193.793c-5.34 4.51-9.45 10.933-13.147 16.81-2.602 4.236-5.751 8.746-7.942 13.393-2.602-3.143-5.341-6.013-8.354-8.61-2.739-2.323-6.573 1.503-3.971 3.963 4.108 3.69 7.668 7.79 10.818 12.3 1.096 1.64 3.287 1.914 4.793.547 5.204-4.647 8.628-11.48 12.599-17.22 3.971-5.74 8.08-11.753 10.408-18.45 1.095-3.006-3.013-4.51-5.204-2.733Z" fill="#F37E60"/><path opacity=".53" d="m326.614 50.43-.958-25.556v-1.366c-.274-7.107-6.3-12.984-13.558-12.984h-13.831l-.274-7.79H109.01l.274 7.79H95.453c-7.259 0-12.874 5.877-12.6 12.984v1.366l.959 25.557v-.137l.137 2.46c.274 7.107 6.3 12.983 13.557 12.983h59.708c2.876 0 5.478 1.777 6.3 4.237 0 .137.137.273.137.41 1.232 4.92 3.423 8.61 6.162 11.343.137.137.137.137.137.274 8.491 8.473 22.733 8.473 36.564 8.473 14.105 0 28.621 0 36.427-8.883 2.465-2.734 4.246-6.424 5.204-11.207 0-.273.137-.683.274-.957 0-.136.137-.273.137-.41.959-1.913 3.15-3.28 5.615-3.28h59.707c7.259 0 12.873-5.74 12.599-12.983l.137-2.323Zm-7.532-27.06 1.096 29.384c.137 3.28-2.739 5.877-6.3 5.877h-59.707c-6.163 0-11.23 4.1-12.462 9.976-2.739 13.94-15.201 14.76-35.332 14.76s-32.73-.683-36.29-14.76c-1.506-5.876-6.984-9.976-13.147-9.976H97.233c-3.561 0-6.574-2.597-6.71-5.877l-1.096-29.383c0-1.23.274-2.323.958-3.28 1.096-1.503 3.013-2.597 5.341-2.597h13.832v.41l.136 3.827c.137 4.647 3.835 8.473 8.217 8.473h173.235c4.382 0 7.806-3.826 7.669-8.473l-.137-3.827v-.41h13.831c2.191 0 4.245.957 5.478 2.597.548.957 1.095 2.05 1.095 3.28Z" fill="#C9CAC6"/><path d="M311.824 7.242H95.178c-7.258 0-13.147 5.467-13.147 12.027v27.333c0 6.697 5.889 12.027 13.147 12.027h59.708c3.012 0 5.751 1.776 6.299 4.236 4.656 18.723 23.691 18.723 42.316 18.723 18.487 0 37.66 0 42.316-18.723.547-2.46 3.286-4.236 6.299-4.236h59.708c7.258 0 13.147-5.33 13.147-12.027V19.269c0-6.56-5.889-12.027-13.147-12.027Zm6.573 39.497c0 3.006-2.876 5.466-6.436 5.466h-59.708c-6.162 0-11.366 3.827-12.736 9.294-3.149 12.983-15.748 13.666-35.879 13.666s-32.593-.683-35.88-13.666c-1.369-5.467-6.573-9.294-12.735-9.294H95.178c-3.56 0-6.436-2.46-6.436-5.466V19.406c0-3.007 2.875-5.467 6.436-5.467h216.646c3.56 0 6.436 2.46 6.436 5.466V46.74h.137Z" fill="#C9CAC6"/><path d="M311.824 7.242H95.178c-7.258 0-13.147 5.467-13.147 12.027v1.366c0-6.696 5.889-12.026 13.147-12.026h216.646c7.258 0 13.147 5.466 13.147 12.026V19.27c0-6.56-5.889-12.027-13.147-12.027ZM95.179 53.435h59.707c6.163 0 11.367 3.826 12.736 9.293 3.15 12.983 15.749 13.667 35.88 13.667 20.13 0 32.592-.684 35.879-13.667 1.369-5.467 6.573-9.293 12.736-9.293h59.708c3.56 0 6.436-2.46 6.436-5.467v-1.366c0 3.006-2.876 5.466-6.436 5.466h-59.708c-6.163 0-11.367 3.827-12.736 9.294-3.15 12.983-15.749 13.666-35.879 13.666-20.131 0-32.593-.683-35.88-13.667-1.369-5.466-6.573-9.293-12.736-9.293H95.179c-3.561 0-6.437-2.46-6.437-5.466v1.366c0 3.007 2.876 5.467 6.437 5.467Z" fill="#E4E5E6"/><path d="M311.825 11.617H95.179c-3.561 0-6.437 2.46-6.437 5.467v2.323c0-3.006 2.876-5.466 6.437-5.466h216.646c3.56 0 6.436 2.46 6.436 5.466v-2.323c.137-3.007-2.876-5.467-6.436-5.467ZM311.824 56.445h-59.708c-3.013 0-5.752 1.776-6.299 4.236-4.656 18.723-23.692 18.723-42.316 18.723-18.488 0-37.66 0-42.316-18.723-.548-2.46-3.287-4.236-6.299-4.236H95.178c-7.258 0-13.147-5.467-13.147-12.027v2.323c0 6.697 5.889 12.027 13.147 12.027h59.708c3.012 0 5.751 1.776 6.299 4.236 4.656 18.724 23.691 18.724 42.316 18.724 18.487 0 37.66 0 42.316-18.723.547-2.46 3.286-4.237 6.299-4.237h59.708c7.258 0 13.147-5.467 13.147-12.027v-2.323c0 6.56-5.889 12.027-13.147 12.027Z" fill="#9C9D9B"/><path d="M303.337 7.242H103.672v6.56h199.665v-6.56Z" fill="#C9CAC6"/><path d="M289.919 25.693H117.232c-4.519 0-8.216-3.69-8.216-8.2V0h189.12v17.493c0 4.51-3.698 8.2-8.217 8.2Z" fill="#C9CAC6"/><path d="M290.193 22.138H116.958c-4.382 0-7.942-3.554-7.942-7.927v3.553c0 4.374 3.56 7.927 7.942 7.927h173.235c4.382 0 7.943-3.553 7.943-7.927v-3.553c0 4.373-3.561 7.927-7.943 7.927Z" fill="#9C9D9B"/><path d="M215.554 8.201h-97.23a2.16 2.16 0 0 1-2.191-2.186 2.16 2.16 0 0 1 2.191-2.187h97.23c1.233 0 2.192.957 2.192 2.187s-.959 2.186-2.192 2.186ZM288.829 8.201h-59.708a2.16 2.16 0 0 1-2.191-2.186 2.16 2.16 0 0 1 2.191-2.187h59.708c1.232 0 2.191.957 2.191 2.187-.137 1.23-1.096 2.186-2.191 2.186Z" fill="#F3F4F4"/></svg>