<svg width="91" height="148" fill="none" xmlns="http://www.w3.org/2000/svg"><path d="M30.49 0c12.877 0 23.315 10.215 23.315 22.82 0 12.6-10.438 22.817-23.314 22.817-12.877 0-23.315-10.216-23.315-22.817C7.176 10.215 17.614 0 30.49 0Z" fill="#F37E60"/><path d="M.921 43.609c5.48 0 9.921 4.59 9.921 10.252 0 5.662-4.441 10.251-9.92 10.251-5.48 0-9.922-4.59-9.922-10.25 0-5.664 4.442-10.253 9.921-10.253Z" fill="#68CCEA"/><path d="M45.928 57.757c24.75 0 44.81 20.063 44.81 44.811 0 24.746-20.06 44.81-44.81 44.81-24.748 0-44.81-20.064-44.81-44.81 0-24.749 20.062-44.811 44.81-44.811Z" fill="#6683C2"/></svg>