<svg width="412" height="346" viewBox="0 0 412 346" fill="none" xmlns="http://www.w3.org/2000/svg">
<g clip-path="url(#clip0_2006_1919)">
<path d="M355.904 232.096L251.632 232.066L251.574 260.504C254.829 260.601 258.242 260.746 261.483 260.488C263.953 260.44 266.462 260.703 268.329 262.523C269.402 263.568 269.82 264.833 270.046 266.284C270.661 270.243 270.185 275.208 270.173 279.255L270.226 305.091C276.738 305.024 283.485 304.631 289.976 305.075L362.354 305.197C375.757 305.184 389.257 304.699 402.646 305.16C402.399 300.719 402.559 296.175 402.556 291.725L402.545 267.213C402.44 267.253 402.335 267.291 402.231 267.331C399.517 268.391 396.935 270.488 394.351 271.876C384.337 277.259 373.803 263.863 362.354 260.488L363.5 256.168C369.997 256.601 338.757 254.214 344.172 250.586C344.901 249.155 345.418 247.581 345.989 246.079C345.543 245.538 345.239 245.226 345.337 244.5C345.74 241.484 353.519 234.11 355.904 232.096Z" fill="#F37E60"/>
<g clip-path="url(#clip1_2006_1919)">
<path d="M418.728 240.535C421.076 246.917 417.78 254.06 411.397 256.407L346.398 280.326C340.016 282.674 332.873 279.378 330.526 272.995C328.178 266.613 331.475 259.47 337.857 257.123L402.856 233.204C409.238 230.856 416.381 234.152 418.728 240.535Z" fill="#FBC399"/>
<path d="M341.366 260.965C341.455 262.128 341.069 263.33 340.198 264.242C338.573 265.953 335.87 266.024 334.155 264.406C334.036 264.293 326.428 257.306 314.742 255.811C312.396 255.515 310.736 253.367 311.039 251.02C311.335 248.674 313.483 247.014 315.828 247.311C330.435 249.176 339.665 257.815 340.049 258.187C340.85 258.947 341.292 259.94 341.366 260.965Z" fill="#FBC399"/>
<path opacity="0.5" d="M338.858 261.406C337.233 263.117 334.53 263.188 332.813 261.565C332.694 261.451 325.086 254.465 313.4 252.97C312.466 252.847 311.647 252.437 311.01 251.835C311.138 253.838 312.671 255.543 314.74 255.805C326.426 257.3 334.034 264.287 334.153 264.401C335.868 266.018 338.571 265.947 340.196 264.236C341.067 263.324 341.453 262.122 341.364 260.959C341.286 259.942 340.843 258.943 340.048 258.181C340.048 258.181 340.03 258.166 340.029 258.161C340.102 259.315 339.721 260.49 338.862 261.398L338.858 261.406Z" fill="#EA9975"/>
<path d="M327.215 265.335C327.393 267.655 325.665 269.696 323.338 269.894L297.298 272.135C294.959 272.337 292.897 270.603 292.695 268.265C292.691 268.253 292.686 268.235 292.688 268.221C292.511 265.901 294.239 263.86 296.565 263.661L322.605 261.42C324.944 261.218 327.007 262.952 327.209 265.291C327.212 265.303 327.216 265.315 327.215 265.335Z" fill="#FBC399"/>
<path opacity="0.5" d="M325.404 262.836C325.404 262.836 325.412 262.86 325.411 262.879C325.588 265.2 323.861 267.24 321.534 267.439L295.494 269.68C294.524 269.763 293.601 269.507 292.838 269.021C293.369 270.962 295.226 272.316 297.304 272.133L323.344 269.893C325.671 269.694 327.399 267.653 327.221 265.333C327.218 265.321 327.212 265.303 327.215 265.289C327.096 263.92 326.338 262.763 325.267 262.077C325.341 262.322 325.385 262.575 325.404 262.836Z" fill="#EA9975"/>
<path d="M323.535 274.01C323.676 275.886 322.486 277.661 320.613 278.199L296.719 284.983C294.567 285.591 292.34 284.349 291.726 282.199C291.12 280.053 292.361 277.82 294.507 277.214L318.401 270.429C320.545 269.817 322.78 271.064 323.386 273.21C323.464 273.472 323.507 273.745 323.529 274.012L323.535 274.01Z" fill="#FBC399"/>
<path opacity="0.5" d="M321.391 271.292C321.533 273.168 320.343 274.944 318.469 275.481L294.575 282.266C293.569 282.555 292.549 282.426 291.685 281.996C291.705 282.062 291.712 282.131 291.734 282.203C292.346 284.347 294.574 285.595 296.718 284.983L320.612 278.199C322.488 277.667 323.676 275.886 323.535 274.01C323.513 273.744 323.466 273.478 323.391 273.208C323.069 272.069 322.283 271.187 321.297 270.697C321.344 270.897 321.378 271.095 321.391 271.292Z" fill="#EA9975"/>
<path d="M325.699 281.709C325.81 283.204 325.035 284.692 323.621 285.416L304.1 295.393C302.211 296.358 299.905 295.607 298.942 293.725C297.978 291.836 298.727 289.524 300.611 288.567L320.128 278.598C322.016 277.634 324.323 278.384 325.291 280.265C325.529 280.733 325.664 281.226 325.701 281.715L325.699 281.709Z" fill="#FBC399"/>
<path opacity="0.5" d="M323.04 278.659C323.278 279.127 323.413 279.62 323.449 280.109C323.561 281.604 322.785 283.092 321.371 283.817L301.854 293.786C300.986 294.229 300.034 294.307 299.16 294.082C300.223 295.694 302.345 296.285 304.104 295.386L323.62 285.416C325.041 284.69 325.816 283.202 325.699 281.709C325.662 281.22 325.527 280.727 325.289 280.259C324.768 279.238 323.854 278.557 322.826 278.294C322.907 278.413 322.976 278.535 323.041 278.665L323.04 278.659Z" fill="#EA9975"/>
<path d="M347.882 267.479C350.716 275.608 346.934 284.314 339.434 286.926L335.513 288.397C328.013 291.009 319.641 286.541 316.807 278.412C313.974 270.284 317.756 261.577 325.256 258.966L329.177 257.495C336.677 254.883 345.049 259.35 347.882 267.479Z" fill="#FBC399"/>
<path d="M334.996 285.554C335.116 287.144 334.174 288.682 332.595 289.248C330.718 289.949 321.838 296.493 314.691 302.159C313.115 303.407 310.832 303.144 309.584 301.568C308.337 299.992 308.6 297.708 310.176 296.461C313.911 293.505 326.385 283.753 330.147 282.401C332.037 281.723 334.116 282.711 334.794 284.601C334.907 284.911 334.972 285.236 334.996 285.554Z" fill="#FBC399"/>
<g opacity="0.5">
<path d="M417.017 239.105C419.341 245.494 416.009 252.628 409.618 254.945L345.292 278.311C343.689 281.459 341.006 283.956 337.536 285.155L333.609 286.608C332.837 286.873 332.061 287.061 331.283 287.177C331.095 287.286 330.901 287.377 330.688 287.447C328.81 288.142 319.899 294.65 312.729 300.284C311.666 301.118 310.293 301.264 309.124 300.796C309.237 301.041 309.38 301.278 309.558 301.504C310.8 303.082 313.081 303.359 314.659 302.117C321.835 296.481 330.739 289.975 332.618 289.28C332.829 289.204 333.022 289.113 333.213 289.01C333.99 288.893 334.772 288.704 335.539 288.441L339.465 286.988C342.937 285.795 345.618 283.292 347.221 280.144L411.547 256.778C417.937 254.454 421.27 247.327 418.946 240.937C418.114 238.645 416.66 236.747 414.845 235.361C415.762 236.445 416.503 237.698 417.017 239.105Z" fill="#EA9975"/>
</g>
</g>
<g clip-path="url(#clip2_2006_1919)">
<path d="M238.038 189.729C232.422 194.636 223.814 194.062 218.906 188.446L168.913 131.256C164.005 125.64 164.58 117.032 170.196 112.124C175.812 107.216 184.42 107.791 189.328 113.407L239.321 170.596C244.229 176.213 243.654 184.821 238.038 189.729Z" fill="#FBC399"/>
<path d="M186.769 118.508C185.613 119.055 184.23 119.131 182.955 118.597C180.565 117.604 179.432 114.863 180.416 112.472C180.486 112.306 184.657 101.774 181.604 89.2183C180.988 86.6997 182.536 84.1572 185.059 83.5461C187.578 82.9297 190.12 84.4783 190.737 86.9969C194.556 102.689 189.328 115.53 189.098 116.07C188.633 117.189 187.79 118.03 186.769 118.508Z" fill="#FBC399"/>
<path opacity="0.5" d="M185.334 116.113C182.944 115.119 181.811 112.378 182.8 109.983C182.87 109.817 187.041 99.2847 183.988 86.7295C183.747 85.7247 183.846 84.7246 184.214 83.8369C182.212 84.7533 181.067 86.9923 181.61 89.2142C184.663 101.769 180.491 112.302 180.421 112.468C179.437 114.859 180.571 117.6 182.96 118.593C184.236 119.127 185.619 119.051 186.775 118.503C187.786 118.025 188.634 117.179 189.104 116.066C189.104 116.066 189.111 116.043 189.117 116.038C187.963 116.567 186.61 116.637 185.343 116.114L185.334 116.113Z" fill="#EA9975"/>
<path d="M176.743 105.729C174.436 106.821 171.669 105.852 170.552 103.547L158.043 77.7552C156.919 75.4391 157.886 72.6466 160.202 71.5221C160.213 71.5138 160.229 71.5013 160.244 71.4983C162.551 70.4068 165.319 71.3756 166.435 73.6809L178.944 99.4722C180.069 101.788 179.101 104.581 176.785 105.705C176.775 105.714 176.764 105.722 176.743 105.729Z" fill="#FBC399"/>
<path opacity="0.5" d="M178.592 102.894C178.592 102.894 178.571 102.911 178.55 102.918C176.243 104.009 173.476 103.04 172.359 100.735L159.85 74.9439C159.385 73.9833 159.285 72.9382 159.483 71.9654C157.704 73.2708 157.046 75.7037 158.048 77.7606L170.556 103.552C171.673 105.857 174.441 106.826 176.747 105.734C176.758 105.726 176.775 105.714 176.789 105.711C178.145 105.052 179.033 103.822 179.316 102.456C179.094 102.627 178.852 102.771 178.592 102.894Z" fill="#EA9975"/>
<path d="M166.414 105.362C164.548 106.243 162.263 105.72 160.978 104.012L144.656 82.201C143.19 80.2354 143.589 77.4674 145.551 75.9955C147.511 74.5332 150.284 74.9282 151.746 76.8883L168.068 98.6992C169.535 100.655 169.135 103.433 167.175 104.895C166.937 105.079 166.674 105.23 166.41 105.357L166.414 105.362Z" fill="#FBC399"/>
<path opacity="0.5" d="M168.357 102.101C166.491 102.981 164.206 102.459 162.921 100.75L146.6 78.9396C145.909 78.0232 145.641 76.9273 145.742 75.8739C145.682 75.9198 145.615 75.9549 145.55 76.0051C143.594 77.4728 143.189 80.245 144.657 82.2009L160.978 104.012C162.258 105.725 164.548 106.243 166.414 105.362C166.679 105.235 166.932 105.083 167.179 104.9C168.219 104.123 168.815 102.973 168.93 101.77C168.743 101.897 168.554 102.009 168.357 102.101Z" fill="#EA9975"/>
<path d="M159.378 110.599C157.89 111.299 156.062 111.089 154.765 109.924L136.89 93.8444C135.162 92.2883 135.026 89.6317 136.576 87.9074C138.133 86.179 140.795 86.0387 142.513 87.5935L160.379 103.672C162.107 105.228 162.243 107.885 160.697 109.614C160.311 110.042 159.859 110.373 159.372 110.603L159.378 110.599Z" fill="#FBC399"/>
<path opacity="0.5" d="M161.458 106.679C161.072 107.106 160.621 107.438 160.134 107.667C158.646 108.367 156.818 108.157 155.522 106.992L137.656 90.914C136.862 90.1985 136.408 89.2541 136.296 88.2708C135.062 89.9919 135.289 92.3972 136.9 93.8456L154.765 109.924C156.066 111.094 157.894 111.304 159.378 110.599C159.865 110.369 160.316 110.038 160.702 109.61C161.543 108.676 161.882 107.473 161.748 106.316C161.659 106.446 161.561 106.565 161.453 106.683L161.458 106.679Z" fill="#EA9975"/>
<path d="M182.653 127.737C175.439 133.827 165.039 133.369 159.422 126.712L156.378 123.273C150.761 116.616 152.053 106.289 159.267 100.199C166.481 94.1082 176.881 94.5669 182.498 101.224L185.543 104.663C191.159 111.319 189.868 121.647 182.653 127.737Z" fill="#FBC399"/>
<path d="M159.086 121.629C157.505 122.376 155.56 122.014 154.362 120.619C152.908 118.971 142.722 112.444 134.115 107.346C132.219 106.221 131.593 103.779 132.718 101.883C133.842 99.9876 136.284 99.3613 138.18 100.486C142.673 103.152 157.553 112.103 160.414 115.426C161.85 117.095 161.653 119.612 159.984 121.048C159.71 121.286 159.403 121.48 159.086 121.629Z" fill="#FBC399"/>
<g opacity="0.5">
<path d="M238.832 187.415C233.199 192.301 224.586 191.688 219.706 186.051L170.543 129.333C166.69 128.926 163.08 127.157 160.491 124.074L157.463 120.622C156.889 119.935 156.392 119.214 155.968 118.463C155.782 118.313 155.613 118.15 155.458 117.959C154.009 116.308 143.849 109.735 135.266 104.601C133.996 103.839 133.307 102.49 133.328 101.11C133.121 101.322 132.935 101.561 132.773 101.832C131.644 103.722 132.255 106.167 134.146 107.296C142.733 112.435 152.889 119.003 154.338 120.654C154.499 120.841 154.668 121.004 154.847 121.158C155.272 121.909 155.773 122.635 156.343 123.317L159.371 126.769C161.955 129.856 165.57 131.621 169.423 132.028L218.586 188.745C223.472 194.378 232.079 194.996 237.712 190.11C239.734 188.359 241.106 186.125 241.814 183.723C241.064 185.087 240.071 186.338 238.832 187.415Z" fill="#EA9975"/>
</g>
<path opacity="0.5" d="M156.81 114.593C156.81 114.593 170.75 106.518 173.485 100.237C173.485 100.237 170.982 111.733 156.81 114.593Z" fill="#EA9975"/>
<path opacity="0.5" d="M175.785 102.723C175.785 102.723 169.795 116.801 171.305 123.135C171.305 123.135 166.655 112.97 175.785 102.723Z" fill="#EA9975"/>
</g>
<path d="M252.714 71.1534C248.46 69.4829 245.082 65.2235 243.298 61.1255C240.011 53.5738 240.101 44.6618 243.145 37.0449C246.167 29.4835 251.592 23.1917 259.179 19.9746C261.298 19.0758 263.598 18.4257 265.864 18.0234C270.562 9.74582 276.362 3.882 285.845 1.29945C295.646 -1.3698 304.599 0.880117 313.922 4.13158C318.185 1.10997 324.044 -0.666015 329.276 0.234595C332.451 0.781017 335.267 2.468 337.08 5.1634C337.965 6.47968 338.449 7.86661 338.89 9.37007C350.311 9.17509 359.755 12.0742 368.14 20.1228C374.927 26.6386 379.706 35.8773 379.849 45.4036C379.987 54.6295 376.142 64.277 372.822 72.7789C372.357 73.6942 370.93 75.8661 371.347 76.8167C371.361 76.8484 371.39 76.8708 371.412 76.8975L371.225 77.3939C370.727 77.4315 370.437 77.2691 370.047 76.9594C367.373 74.8343 365.605 65.9576 365.101 62.5588C361.488 62.5905 357.918 62.4524 354.339 61.922C343.044 60.2474 327.742 55.0892 317.703 49.7796C315.81 52.0304 313.693 53.7349 311.102 55.1369C303.851 59.0587 298.382 57.4369 290.757 57.814C288.139 57.9434 285.495 58.5187 283.005 59.3216C277.76 61.0131 274.188 64.3412 269.734 67.3362C264.461 70.8822 258.974 72.3981 252.714 71.1534ZM266.006 18.2651C265.36 18.9721 264.619 19.6177 264.367 20.566C264.477 21.3216 264.617 21.3969 265.117 21.9414C265.777 21.4845 265.931 20.4912 266.071 19.7158C266.181 19.1034 266.338 18.8038 266.006 18.2651ZM271.675 18.1674C270.755 19.4282 269.729 20.5898 269.567 22.1956C269.728 22.5026 269.72 22.5796 270.029 22.7641C270.678 21.7359 272.258 19.7287 272.2 18.5331C272.037 18.4129 271.859 18.25 271.675 18.1674Z" fill="#865950"/>
<path d="M265.12 21.9419C264.621 21.3973 264.48 21.3221 264.371 20.5665C264.623 19.6181 265.363 18.9726 266.009 18.2656C266.342 18.8042 266.185 19.1038 266.075 19.7163C265.935 20.4917 265.781 21.485 265.12 21.9419Z" fill="#5D4130"/>
<path d="M270.036 22.7607C269.727 22.5763 269.735 22.4992 269.574 22.1923C269.736 20.5865 270.762 19.4248 271.682 18.1641C271.866 18.2466 272.044 18.4095 272.207 18.5297C272.265 19.7253 270.684 21.7325 270.036 22.7607Z" fill="#533636"/>
<path d="M252.712 71.1511C258.972 72.3958 264.458 70.88 269.732 67.334C274.186 64.339 277.757 61.0109 283.003 59.3193C285.493 58.5164 288.137 57.9411 290.755 57.8117C298.38 57.4346 303.849 59.0564 311.1 55.1347C313.691 53.7326 315.808 52.0282 317.701 49.7773C327.74 55.087 343.042 60.2452 354.337 61.9198C357.916 62.4501 361.486 62.5882 365.099 62.5566C365.602 65.9553 367.371 74.832 370.045 76.9571C370.435 77.2668 370.725 77.4292 371.223 77.3916C372.163 77.5118 373.004 77.6472 373.798 78.1991C375.136 79.1286 375.91 80.6559 376.152 82.2406C376.409 83.9308 376.089 85.7903 375.004 87.1488C374.146 88.2232 373.039 88.7357 371.695 88.8844C371.216 88.9371 370.9 88.9564 370.47 89.1973L370.648 89.4111C371.898 89.4845 373.006 89.3147 374.082 88.6297C375.42 87.7787 376.278 86.2931 376.594 84.7639C376.989 82.859 376.574 80.766 375.42 79.191C374.364 77.7513 373.123 77.2072 371.41 76.8952C371.388 76.8686 371.359 76.8461 371.345 76.8144C370.928 75.8638 372.355 73.6919 372.82 72.7766C375.199 73.1955 377.261 74.1636 378.692 76.1809C380.307 78.4565 380.725 81.8015 380.241 84.5157C379.709 87.4951 377.582 90.3144 375.071 91.9528C373.199 93.1741 371.359 93.5384 369.168 93.5865C367.512 107.702 359.738 121.255 348.56 130C345.657 132.271 342.227 133.374 339.397 135.341C339.009 135.611 338.959 135.923 338.875 136.36L338.616 135.866C336.081 136.05 332.134 138.541 329.44 139.243C314.878 143.034 302.513 142.695 288.304 137.542C288.052 137.245 288.161 137.308 287.846 137.155C284.808 135.682 281.79 134.28 279.006 132.343C265.219 122.748 258.425 111.412 255.528 95.0331C253.138 94.4716 250.893 93.7934 248.798 92.4785C245.827 90.6191 243.744 87.6277 243.031 84.1969C242.466 81.59 242.808 78.7698 244.282 76.5139C246.179 73.6084 249.216 72.1095 252.516 71.4461L252.712 71.1511ZM331.58 66.0315C331.278 66.616 331.06 66.8531 331.127 67.5184C332.698 68.4066 335.34 68.5984 337.123 69.0347C339.206 69.5449 341.114 70.2455 343.041 71.1796C343.261 70.6387 343.356 70.2845 343.065 69.7293C342.103 67.8923 338.62 66.7586 336.673 66.309C334.947 65.9108 333.336 65.8878 331.58 66.0315ZM287.368 66.3058C284.944 66.6894 281.528 67.2115 279.954 69.2976C279.657 69.6912 279.693 69.7839 279.631 70.2455C279.865 70.468 279.935 70.6382 280.287 70.6483C280.897 70.6657 281.401 70.3189 281.922 70.0441L282.042 69.9821L282.303 69.8518C283.983 69.0306 289.296 68.2694 289.913 67.3321C289.81 66.95 289.876 66.8683 289.505 66.6444C288.837 66.242 288.125 66.1911 287.368 66.3058ZM252.5 76.3566C250.308 76.8957 248.389 77.8321 247.17 79.8241C246.41 81.0652 245.595 83.7092 246.08 85.1461C246.163 85.3911 246.2 85.4122 246.341 85.5861L246.678 85.4852L246.747 84.8663C246.768 83.0499 247.055 80.8638 248.412 79.5264C249.57 78.3854 254.188 77.232 254.259 77.1104C254.337 76.976 254.319 76.8048 254.349 76.652C253.888 76.229 253.599 76.3066 252.99 76.3213C252.826 76.3254 252.663 76.3401 252.5 76.3566ZM334.864 84.1244C333.737 84.7337 333.027 85.1819 332.623 86.4441C331.882 88.7559 331.834 93.1521 333.089 95.2753C333.544 96.0466 334.206 96.6568 335.103 96.838C335.71 96.9605 336.271 96.905 336.879 96.8279C338.172 96.0874 338.865 95.3116 339.237 93.849C339.824 91.5399 339.897 87.6686 338.571 85.6301C338.063 84.8502 337.364 84.2905 336.428 84.1487C335.91 84.0698 335.384 84.101 334.864 84.1244ZM286.246 85.0668C284.837 86.1357 284.534 87.0263 284.295 88.7766C284.013 90.8512 284.04 93.6067 285.389 95.3075C285.889 95.9374 286.674 96.4641 287.499 96.4953C287.878 96.5095 288.268 96.454 288.644 96.4063C289.973 95.5667 290.475 94.5679 290.809 93.0461C291.249 91.0416 291.218 88.3031 290.06 86.5468C289.608 85.8609 288.824 85.1415 287.978 85.0356C287.423 84.9658 286.803 85.0085 286.246 85.0668ZM309.751 94.7831C308.504 95.8993 307.657 96.9573 307.579 98.6943C307.509 100.284 308.183 101.766 309.282 102.895C310.518 104.163 312.436 105.075 314.222 105.058C314.412 105.057 314.602 105.038 314.792 105.021C314.799 104.67 314.911 104.136 314.67 103.86C313.251 102.233 309.26 102.991 309.149 99.7701C309.089 98.0515 310.841 96.7614 310.822 95.2653C310.395 94.9239 310.29 94.8785 309.751 94.7831ZM317.706 116.343C315.334 116.5 312.955 116.546 310.578 116.482C309.059 116.455 307.411 116.243 305.914 116.427C305.455 116.483 305.168 116.602 304.8 116.894C304.511 117.795 304.656 118.303 305.089 119.132C305.754 120.405 306.607 121.559 307.858 122.301C310.031 123.353 312.267 123.842 314.616 123.023C316.492 122.368 318.211 120.912 319.049 119.098C319.431 118.271 319.572 117.631 319.286 116.75C318.716 116.325 318.422 116.296 317.706 116.343Z" fill="#FBC399"/>
<path d="M343.044 71.1819C341.116 70.2478 339.209 69.5472 337.125 69.037C335.343 68.6007 332.7 68.4089 331.129 67.5207C331.062 66.8555 331.281 66.6183 331.583 66.0338C333.339 65.8902 334.949 65.9131 336.675 66.3113C338.622 66.7609 342.105 67.8946 343.067 69.7316C343.358 70.2868 343.264 70.641 343.044 71.1819Z" fill="#533636"/>
<path d="M282.048 69.9837L281.928 70.0457C281.406 70.3205 280.903 70.6673 280.293 70.6499C279.94 70.6398 279.871 70.4696 279.637 70.2471C279.698 69.7855 279.662 69.6928 279.959 69.2992C281.533 67.2131 284.949 66.691 287.373 66.3074C288.131 66.1927 288.843 66.2436 289.51 66.646C289.882 66.8699 289.815 66.9515 289.919 67.3337C289.302 68.271 283.989 69.0322 282.309 69.8534L282.048 69.9837Z" fill="#533636"/>
<path d="M246.746 84.8686L246.678 85.4875L246.34 85.5884C246.2 85.4146 246.162 85.3935 246.08 85.1485C245.594 83.7115 246.41 81.0675 247.169 79.8265C248.388 77.8344 250.308 76.898 252.5 76.3589C252.663 76.3424 252.825 76.3277 252.989 76.3236C253.599 76.3089 253.888 76.2314 254.349 76.6544C254.319 76.8071 254.337 76.9783 254.259 77.1127C254.188 77.2343 249.57 78.3877 248.411 79.5287C247.054 80.8661 246.768 83.0522 246.746 84.8686Z" fill="#533636"/>
<path d="M371.229 77.3909L371.416 76.8945C373.13 77.2065 374.371 77.7507 375.426 79.1903C376.581 80.7654 376.995 82.8584 376.601 84.7633C376.284 86.2924 375.426 87.778 374.089 88.6291C373.012 89.3141 371.904 89.4838 370.655 89.4104L370.477 89.1966C370.906 88.9557 371.223 88.9365 371.701 88.8837C373.045 88.7351 374.152 88.2226 375.01 87.1481C376.095 85.7896 376.416 83.9301 376.158 82.2399C375.916 80.6553 375.142 79.1279 373.805 78.1984C373.01 77.6465 372.169 77.5111 371.229 77.3909Z" fill="#533636"/>
<path d="M72.7876 83.1561C78.6606 83.3603 84.5987 83.1951 90.4782 83.2038C94.1815 83.2098 98.3855 83.5933 102.024 83.0171C115.523 83.3938 129.413 82.6253 142.809 83.2295C145.377 83.9815 147.623 84.6518 149.333 86.8677C149.73 90.9606 149.486 95.2246 149.459 99.3382C149.403 106.193 149.383 113.049 149.401 119.904C149.433 129.406 149.408 138.907 149.323 148.408C149.303 153.099 149.692 158.238 149.102 162.877C148.33 163.666 147.627 164.261 146.683 164.83L146.418 164.993C146.365 165.026 146.311 165.057 146.257 165.088C135.216 165.415 124.095 165.128 113.046 165.122L61.8215 165.105C61.5898 160.639 61.7724 156.087 61.7844 151.609C61.8523 143.1 61.8541 134.59 61.7894 126.079L61.7123 102.727C61.7041 98.7647 61.3985 94.4883 61.8394 90.5569C62.0468 88.7057 62.4808 87.1825 63.7847 85.7781C66.1589 83.2203 69.5627 83.2024 72.7876 83.1561ZM108.323 107.975C107.317 109.143 106.085 111.086 104.741 111.807C102.901 112.795 95.2152 113.009 95.7602 116.151C95.8814 116.849 96.7017 117.605 97.3045 117.851C99.4301 118.719 104.466 115.638 105.548 117.839C106.494 119.762 105.958 133.625 105.945 136.775C105.916 138.694 105.486 142.352 106.903 143.811C107.375 144.296 107.769 144.452 108.443 144.46C109.235 144.471 110.182 144.023 110.711 143.445C111.121 142.998 111.207 142.546 111.267 141.96C111.802 136.677 111.429 129.958 111.446 124.568C111.46 120.125 111.912 113.868 111.303 109.575C111.228 109.046 111.093 108.589 110.626 108.276C109.974 107.839 109.071 107.935 108.323 107.975Z" fill="#89A2D8"/>
<path d="M142.8 83.2216C145.492 83.1386 148.222 83.217 150.906 83.0234C153.281 84.9985 154.87 86.9562 155.155 90.1673C155.565 94.802 155.106 100.673 155.16 105.484C155.183 108.837 155.114 112.217 155.23 115.567C155.1 127.161 155.388 138.779 155.417 150.377C155.429 155.225 155.894 160.724 155.198 165.479C155.002 166.822 154.592 167.898 153.612 168.867C152.838 169.633 151.906 170.231 150.991 170.813C144.87 171.201 138.697 170.86 132.564 171.018C129.232 170.349 117.626 170.886 113.5 170.898C101.275 170.931 88.8992 170.486 76.6939 171.007C73.2915 171.024 69.3697 171.466 66.0962 170.481C63.739 169.144 62.598 167.646 61.8125 165.097L113.037 165.114C124.086 165.12 135.207 165.407 146.248 165.08C146.302 165.049 146.356 165.018 146.409 164.985L146.674 164.822C147.618 164.253 148.321 163.658 149.093 162.869C149.683 158.23 149.294 153.091 149.314 148.4C149.399 138.899 149.424 129.398 149.392 119.896C149.374 113.041 149.394 106.186 149.45 99.3303C149.477 95.2168 149.721 90.9527 149.324 86.8599C147.614 84.6439 145.368 83.9736 142.8 83.2216Z" fill="#6680B9"/>
<path d="M336.885 96.8352C336.277 96.9123 335.716 96.9678 335.109 96.8453C334.212 96.6641 333.55 96.0539 333.095 95.2827C331.841 93.1594 331.888 88.7632 332.629 86.4514C333.033 85.1892 333.743 84.741 334.87 84.1317C335.39 84.1083 335.916 84.0771 336.434 84.156C337.37 84.2978 338.07 84.8575 338.577 85.6375C339.903 87.6759 339.83 91.5472 339.243 93.8563C338.871 95.3189 338.178 96.0947 336.885 96.8352Z" fill="#5D4130"/>
<path d="M288.644 96.4069C288.269 96.4546 287.878 96.5101 287.499 96.4959C286.674 96.4647 285.889 95.938 285.389 95.3081C284.041 93.6073 284.013 90.8518 284.296 88.7771C284.534 87.0268 284.838 86.1363 286.247 85.0673C286.803 85.0091 287.423 84.9664 287.979 85.0361C288.824 85.1421 289.609 85.8615 290.06 86.5474C291.218 88.3037 291.25 91.0422 290.809 93.0467C290.475 94.5685 289.973 95.5673 288.644 96.4069Z" fill="#533636"/>
<path d="M314.8 105.027C314.61 105.044 314.42 105.063 314.23 105.064C312.443 105.081 310.525 104.169 309.29 102.901C308.191 101.772 307.516 100.29 307.587 98.7003C307.664 96.9633 308.512 95.9053 309.759 94.7891C310.297 94.8845 310.403 94.9299 310.829 95.2713C310.849 96.7674 309.097 98.0575 309.156 99.7761C309.268 102.997 313.259 102.239 314.678 103.866C314.919 104.142 314.806 104.676 314.8 105.027Z" fill="#533636"/>
<path d="M105.943 136.771C105.956 133.621 106.492 119.758 105.546 117.835C104.464 115.634 99.428 118.715 97.3024 117.847C96.6995 117.601 95.8792 116.845 95.7581 116.147C95.213 113.005 102.899 112.791 104.738 111.803C106.083 111.082 107.315 109.139 108.321 107.971C109.069 107.931 109.972 107.835 110.624 108.272C111.09 108.585 111.225 109.042 111.301 109.571C111.909 113.864 111.457 120.121 111.444 124.564C111.427 129.954 111.8 136.673 111.265 141.956C111.205 142.542 111.118 142.994 110.709 143.441C110.18 144.019 109.233 144.467 108.441 144.456C107.767 144.448 107.373 144.292 106.901 143.807C105.484 142.348 105.914 138.69 105.943 136.771Z" fill="#FFFEFE"/>
<path d="M198.266 114.147C213.01 113.185 217.588 118.517 228.873 126.191C235.81 130.907 242.712 135.287 250.437 138.613C262.705 143.897 275.011 145.44 288.258 145.367C288.268 144.424 288.226 143.449 288.332 142.512C288.59 144.959 288.698 147.385 289.137 149.814C290.384 156.715 293.611 164.181 299.14 168.714C304.098 172.781 310.216 174.164 316.521 173.496C322.371 172.919 327.739 170 331.404 165.403C334.755 161.188 336.314 156.087 337.492 150.921C337.883 148.957 338.15 146.969 338.442 144.988C358.641 145.872 377.269 151.607 394.067 162.92C399.567 166.624 404.701 170.636 409.194 175.532C422.027 189.515 429.765 205.998 428.942 225.292C428.351 239.122 423.96 249.29 413.659 258.681C411.491 260.657 409.281 262.701 406.884 264.397C405.509 265.37 403.838 266.177 402.545 267.208C402.44 267.247 402.335 267.285 402.23 267.326C399.516 268.386 396.934 270.482 394.351 271.871C384.336 277.254 371.157 282.853 359.709 279.478C354.685 277.891 350.48 275.298 347.475 270.886C343.221 264.639 342.777 257.813 344.172 250.581C344.901 249.15 345.418 247.576 345.988 246.074C352.449 233.633 371.895 221.646 385.526 219.754C388.549 219.334 391.364 219.275 394.395 219.489C395.038 219.534 395.808 219.732 396.36 219.4L396.513 218.753C396.349 218.208 396.314 218.111 395.77 217.83C395.058 217.462 393.848 217.51 393.053 217.488C387.049 217.321 381.335 218.796 375.655 220.576C370.729 212.473 367.452 204.228 365.766 194.891C365.323 192.436 365.088 187.718 364.364 185.665C364.181 185.144 363.923 184.943 363.46 184.678L363.213 184.796C363.127 184.987 363.079 185.068 363.028 185.26C362.524 187.119 363.238 189.981 363.54 191.866C365.384 203.37 368.183 211.051 374.019 221.153C369.822 223.098 365.461 225.104 361.631 227.72C359.655 229.069 357.858 230.698 355.903 232.091L251.632 232.061L251.616 217.942C247.87 215.064 244.076 212.138 240.513 209.037C233.454 202.891 226.699 196.482 218.546 191.743C218.52 187.055 219.655 177.156 216.77 173.51C215.316 171.671 213.436 170.968 211.173 170.695C202.587 170.807 194.001 170.866 185.414 170.87C184.498 168.889 182.964 167.189 181.859 165.305C177.902 158.565 175.705 151.525 175.367 143.686C175.686 142.429 175.691 141.008 175.846 139.717C176.23 136.514 177.1 133.556 178.545 130.665C182.945 121.86 189.116 117.239 198.266 114.147ZM254.853 175.452C251.613 186.444 250.986 198.527 251.266 209.919C251.31 211.707 251.05 214.465 251.808 216.092C251.974 216.447 252.3 216.415 252.654 216.503C252.69 216.512 252.728 216.518 252.765 216.525C253.295 215.105 252.728 204.541 252.785 202.072C253 192.671 254.28 185.346 256.184 176.219C255.92 175.696 255.816 175.701 255.225 175.536C255.103 175.501 254.976 175.48 254.853 175.452Z" fill="#ECECEC"/>
<path d="M307.86 122.303C306.61 121.56 305.756 120.406 305.092 119.134C304.658 118.304 304.514 117.796 304.803 116.896C305.171 116.603 305.458 116.485 305.917 116.428C307.414 116.244 309.062 116.456 310.581 116.484C312.958 116.547 315.336 116.501 317.709 116.345C318.424 116.298 318.718 116.327 319.288 116.752C319.574 117.633 319.433 118.273 319.051 119.099C318.213 120.913 316.494 122.37 314.619 123.024C312.27 123.844 310.033 123.355 307.86 122.303ZM306.597 118.119C307.163 119.753 308.309 120.645 309.78 121.477C312.339 121.671 314.009 121.659 316.258 120.268C316.839 119.539 317.328 118.827 317.778 118.01C314.051 118.075 310.324 118.111 306.597 118.119Z" fill="#533636"/>
<path d="M309.781 121.475C308.31 120.644 307.163 119.751 306.598 118.117C310.325 118.11 314.052 118.073 317.779 118.008C317.329 118.825 316.84 119.537 316.258 120.266C314.01 121.658 312.34 121.669 309.781 121.475Z" fill="#FFFEFE"/>
<path d="M288.311 137.547C302.52 142.7 314.886 143.039 329.447 139.248C332.141 138.546 336.088 136.055 338.623 135.871L338.882 136.365C338.762 139.223 338.743 142.155 338.445 144.996C338.153 146.977 337.887 148.965 337.495 150.929C332.52 148.693 327.215 147.471 322.042 145.8C319.34 144.928 316.587 143.645 313.769 143.227C310.965 142.812 307.999 142.91 305.163 142.716C301.523 142.467 291.595 140.932 288.309 139.832L288.311 137.547Z" fill="#E2A87D"/>
<path d="M288.309 139.832C291.595 140.931 301.523 142.467 305.163 142.716C307.999 142.91 310.965 142.812 313.769 143.227C316.587 143.645 319.34 144.927 322.042 145.8C327.215 147.471 332.52 148.693 337.495 150.929C336.318 156.095 334.758 161.196 331.407 165.411C327.742 170.008 322.374 172.927 316.524 173.504C310.219 174.172 304.102 172.788 299.143 168.722C293.615 164.189 290.387 156.722 289.14 149.822C288.701 147.393 288.593 144.967 288.335 142.52L288.309 139.832Z" fill="#FBC399"/>
<path d="M66.0987 170.488C69.3722 171.473 73.294 171.032 76.6964 171.014C88.8599 171.482 101.105 170.899 113.281 171.078C114.581 172.145 115.738 173.134 116.681 174.543C116.792 191.543 116.813 208.543 116.747 225.543L116.755 242.769C116.756 245.847 116.969 249.121 116.654 252.177C116.558 253.102 116.374 253.833 115.702 254.517C114.618 255.618 113.071 255.877 111.599 256.019C106.566 256.502 101.312 256.226 96.2529 256.249C87.2128 256.376 78.1719 256.385 69.1314 256.276L45.0874 256.244C42.1076 256.256 39.0804 256.535 36.1121 256.438C34.0571 256.371 32.9592 255.876 31.2778 254.747L31.0117 254.873C30.9456 254.776 30.8704 254.684 30.8135 254.581C30.2441 253.555 30.2556 251.95 30.2189 250.793C30.0326 244.923 30.1693 239.009 30.1716 233.135L30.1849 200.948L30.206 184.971C30.2157 182.243 29.9225 178.974 30.5189 176.325C31.0273 174.066 32.7849 172.478 34.665 171.299C40.9202 170.709 62.5307 172.195 66.0987 170.488ZM74.0638 195.434C70.9312 196.095 67.9935 197.617 66.1474 200.336C65.5748 201.18 65.1871 202.144 65.439 203.171C65.6285 203.943 66.1877 204.702 66.9007 205.055C67.2356 205.221 67.5586 205.235 67.9224 205.128C70.9 204.255 71.6244 197.537 77.9755 199.913C79.7409 200.575 81.438 201.963 82.1629 203.736C82.9534 205.67 82.4836 207.758 81.6339 209.586C79.0798 215.078 73.8386 219.87 69.5966 224.122C68.1817 225.54 66.508 226.956 65.3885 228.611C64.6948 229.637 64.3228 230.498 64.6609 231.717C65.1449 232.373 65.5092 232.648 66.3272 232.789C68.3276 233.131 70.583 232.88 72.6163 232.898C74.9337 232.915 87.5445 233.557 88.8292 232.33C89.2572 231.921 89.4522 231.29 89.4508 230.706C89.4494 230.11 89.3003 229.645 88.8535 229.227C87.5702 228.03 74.1446 228.635 71.7029 228.646C77.2726 223.025 87.4794 213.938 87.3762 205.567C87.3395 202.585 86.0998 199.963 83.9141 197.957C81.2338 195.496 78.0957 195.132 74.6254 195.381C74.4378 195.394 74.2506 195.412 74.0638 195.434Z" fill="#ECECEC"/>
<path d="M132.568 171.02C138.702 170.863 144.875 171.203 150.996 170.816C162.452 171.052 173.951 170.849 185.413 170.874C194 170.87 202.587 170.812 211.172 170.699L210.571 170.997C211.381 172.578 212.653 173.802 212.885 175.633C213.261 178.594 212.844 182.588 212.847 185.688L212.7 213.618C212.68 221.738 212.719 229.858 212.817 237.978C212.881 243.018 213.196 248.18 212.814 253.2C211.884 254.51 210.984 255.489 209.597 256.341C189.895 256.416 170.193 256.378 150.491 256.226C146.779 256.206 143.066 256.207 139.353 256.23C136.249 256.254 132.848 256.546 129.808 255.869C129.142 255.72 128.704 255.55 128.064 255.79C128.029 255.737 127.989 255.688 127.959 255.632C127.509 254.805 127.518 253.786 127.496 252.869C127.16 239.039 127.514 225.13 127.52 211.29C127.522 207.33 127.028 177.557 127.763 175.524C128.492 173.511 130.055 172.11 131.921 171.148L132.568 171.02Z" fill="#F37E60"/>
<path d="M76.6964 171.004C88.9017 170.483 101.278 170.928 113.502 170.895C117.628 170.883 129.234 170.346 132.566 171.015L131.919 171.142C127.493 170.738 122.91 170.99 118.465 171.047C119.94 172.079 121.543 173.432 121.915 175.301C122.5 178.242 122.058 182.027 122.035 185.04L121.987 202.541L121.997 236.909C122.004 242.488 122.372 248.24 121.997 253.791C121.918 254.973 121.598 255.921 120.904 256.886C120.179 257.897 119.298 258.598 118.276 259.284C117.527 259.586 116.784 259.872 115.975 259.959C113.109 260.27 110.103 260.12 107.217 260.141L91.2636 260.253C89.4376 260.24 84.7042 259.809 83.2191 260.596C81.4105 260.356 79.4267 260.507 77.5966 260.502C74.5085 260.36 71.3685 260.474 68.2739 260.478C57.4818 260.493 46.4611 260.936 35.6974 260.293C33.4901 258.662 31.9761 257.529 31.0117 254.863L31.2778 254.737C32.9593 255.866 34.0572 256.36 36.1121 256.427C39.0805 256.524 42.1076 256.246 45.0875 256.234L69.1314 256.266C78.1719 256.374 87.2129 256.365 96.2529 256.238C101.312 256.215 106.566 256.491 111.6 256.008C113.071 255.867 114.618 255.607 115.702 254.506C116.374 253.823 116.558 253.092 116.654 252.167C116.969 249.11 116.756 245.836 116.755 242.758L116.747 225.533C116.813 208.533 116.792 191.533 116.681 174.533C115.738 173.123 114.581 172.134 113.281 171.067C101.105 170.889 88.86 171.472 76.6964 171.004Z" fill="#E9B49C"/>
<path d="M212.816 253.2C213.198 248.18 212.884 243.018 212.82 237.978C212.721 229.858 212.682 221.738 212.702 213.618L212.849 185.688C212.846 182.588 213.263 178.594 212.888 175.633C212.655 173.802 211.383 172.578 210.573 170.997L211.175 170.699C213.437 170.973 215.318 171.676 216.772 173.514C219.657 177.16 218.522 187.059 218.547 191.748L218.568 234.569L218.581 246.782C218.586 249.25 218.761 251.882 218.417 254.329C218.202 255.853 217.426 257.259 216.331 258.331C215.561 259.085 214.607 259.632 213.691 260.189C209.979 260.846 205.892 260.517 202.121 260.516L178.764 260.344L134.826 260.325C133.925 260.287 133.025 259.97 132.159 259.733C130.307 258.749 129.022 257.684 128.066 255.79C128.706 255.55 129.145 255.72 129.811 255.869C132.85 256.546 136.252 256.254 139.355 256.23C143.068 256.207 146.781 256.206 150.494 256.226C170.195 256.378 189.898 256.416 209.6 256.341C210.986 255.489 211.887 254.51 212.816 253.2Z" fill="#E26A4A"/>
<path d="M252.769 216.53C252.732 216.523 252.695 216.517 252.658 216.508C252.305 216.42 251.978 216.452 251.813 216.097C251.054 214.47 251.314 211.712 251.271 209.924C250.991 198.532 251.618 186.449 254.857 175.457C254.981 175.485 255.107 175.506 255.229 175.541C255.82 175.706 255.924 175.701 256.188 176.224C254.284 185.351 253.004 192.676 252.789 202.077C252.732 204.546 253.299 215.11 252.769 216.53Z" fill="#533636"/>
<path d="M355.905 232.101C357.86 230.707 359.657 229.079 361.633 227.729C365.464 225.114 369.825 223.107 374.022 221.162C368.186 211.061 365.387 203.379 363.543 191.875C363.24 189.991 362.526 187.129 363.03 185.269C363.082 185.078 363.13 184.996 363.216 184.806L363.462 184.688C363.925 184.953 364.183 185.153 364.367 185.675C365.09 187.727 365.325 192.445 365.769 194.901C367.455 204.237 370.732 212.482 375.657 220.586C381.338 218.806 387.052 217.33 393.055 217.497C393.85 217.52 395.06 217.471 395.773 217.839C396.317 218.12 396.352 218.217 396.515 218.762L396.362 219.41C395.811 219.741 395.04 219.544 394.397 219.498C391.366 219.285 388.551 219.344 385.528 219.764C371.897 221.656 352.451 233.643 345.99 246.083C345.545 245.542 345.241 245.23 345.339 244.504C345.741 241.489 353.521 234.115 355.905 232.101Z" fill="#5D4130"/>
<path d="M72.6172 232.897C70.5838 232.878 68.3284 233.129 66.3281 232.787C65.51 232.646 65.1458 232.371 64.6617 231.715C64.3236 230.496 64.6957 229.635 65.3894 228.61C66.5088 226.954 68.1825 225.538 69.5974 224.12C73.8394 219.869 79.0807 215.076 81.6348 209.584C82.4844 207.757 82.9542 205.668 82.1637 203.734C81.4389 201.961 79.7418 200.573 77.9763 199.912C71.6253 197.535 70.9008 204.253 67.9233 205.126C67.5595 205.233 67.2365 205.219 66.9016 205.053C66.1886 204.701 65.6293 203.942 65.4398 203.17C65.188 202.142 65.5756 201.178 66.1482 200.335C67.9944 197.615 70.932 196.094 74.0647 195.432C74.2514 195.41 74.4386 195.392 74.6262 195.379C78.0965 195.131 81.2347 195.494 83.915 197.955C86.1006 199.962 87.3403 202.584 87.377 205.565C87.4802 213.936 77.2735 223.023 71.7037 228.644C74.1454 228.633 87.5711 228.028 88.8543 229.226C89.3012 229.643 89.4503 230.108 89.4517 230.704C89.453 231.288 89.2581 231.919 88.83 232.329C87.5454 233.555 74.9345 232.914 72.6172 232.897Z" fill="#6683C2"/>
<path d="M91.2677 260.261L107.221 260.15C110.107 260.129 113.114 260.278 115.979 259.968C116.788 259.881 117.531 259.594 118.28 259.293C119.565 259.79 130.593 260.359 131.703 259.993C131.958 259.909 131.975 259.876 132.159 259.736C133.025 259.973 133.925 260.29 134.825 260.328C138.571 261.072 143.689 260.561 147.536 260.532C155.884 260.415 164.233 260.419 172.58 260.542C172.726 279.313 172.766 298.084 172.7 316.856L172.722 332.564C172.737 335.325 172.93 338.181 172.679 340.927C172.572 342.101 172.328 343.107 171.484 343.97C170.907 344.559 170.232 344.981 169.528 345.399C162.703 345.532 155.863 345.387 149.037 345.38C138.075 345.45 127.114 345.455 116.153 345.396L100.612 345.356C97.799 345.356 94.9165 345.241 92.1114 345.452C91.6599 345.387 91.2631 345.232 90.841 345.062C89.1949 344.4 88.2084 343.538 87.4946 341.91C87.2753 325.814 87.5386 309.704 87.4973 293.605L87.4735 275.45C87.4716 271.685 87.3083 267.817 87.6845 264.07C88.7595 262.602 89.8991 261.45 91.2677 260.261ZM129.19 283.518C125.582 284.182 122.222 286.146 120.147 289.227C119.6 290.039 119.15 291 119.324 292.003C119.44 292.674 119.829 293.368 120.444 293.696C120.927 293.953 121.626 294.042 122.153 293.878C124.48 293.152 124.12 289.188 128.844 288.246C130.192 287.977 131.588 288.057 132.877 288.549C134.349 289.11 135.27 290.031 135.856 291.489C136.456 292.98 136.676 294.62 136.036 296.137C135.382 297.686 133.983 298.85 132.425 299.43C130.663 300.086 127.617 300.345 126.608 302.186C126.235 302.867 126.34 303.542 126.633 304.219C126.823 304.657 127.039 304.929 127.492 305.075C130.36 305.999 134.29 303.862 136.524 307.724C137.58 309.55 138.237 311.831 137.573 313.907C137.079 315.449 135.864 316.654 134.438 317.369C131.988 318.598 129.069 318.455 126.49 317.734C124.326 316.568 122.563 313.193 119.966 313.427C119.455 313.731 119.23 313.847 119.054 314.467C118.7 315.719 119.522 317.251 120.254 318.208C122.23 320.789 125.227 322.317 128.428 322.672C131.866 323.054 135.638 322.312 138.363 320.098C140.57 318.305 142.158 315.58 142.429 312.733C142.705 309.824 141.61 306.956 139.703 304.783C138.858 303.82 137.856 303.141 136.801 302.437C139.174 300.345 141.093 298.172 141.309 294.836C141.494 291.976 140.497 288.774 138.56 286.652C136.612 284.52 133.792 283.499 130.946 283.45C130.362 283.44 129.771 283.481 129.19 283.518Z" fill="#ECECEC"/>
<path d="M0.22526 264.01C0.755349 263.104 1.33347 262.251 2.08617 261.511C2.83359 260.776 3.82577 260.227 4.86953 260.077C7.71945 259.665 11.0547 259.996 13.9454 260.013C21.1984 260.052 28.4509 260.147 35.7025 260.298C46.4663 260.94 57.4869 260.497 68.2791 260.483C71.3737 260.479 74.5136 260.365 77.6018 260.507C79.0273 261.617 80.6321 262.82 80.8711 264.753C81.2772 268.035 80.9863 271.694 80.9863 275.008L81.0583 294.593L81.1827 326.223C81.1872 330.225 81.5992 336.284 81.0978 339.957C80.9202 341.259 80.1614 342.389 79.3447 343.381C78.7644 344.077 78.1633 344.756 77.5426 345.416L3.90207 345.422C3.28307 344.968 2.65053 344.486 2.09654 343.955C1.19139 343.085 0.482505 341.98 0.294767 340.724C-0.131818 337.869 0.0321998 334.819 0.025639 331.935L0.00224122 317.97L0.22526 264.01ZM42.5133 284.812C41.61 286.686 40.5575 289.113 38.464 289.903C36.488 290.648 32.8979 288.546 31.4234 291.122C31.0747 291.732 31.0834 292.449 31.3385 293.087C31.5073 293.509 31.8817 293.966 32.3038 294.159C33.526 294.716 39.1875 294.273 40.8598 294.241C40.7786 301.775 40.7538 309.31 40.7846 316.845C40.7548 318.336 40.3593 321 41.3764 322.162C41.8573 322.711 42.5771 323.02 43.3038 323.021C43.9053 323.022 44.5224 322.793 44.9454 322.36C45.3734 321.92 45.5606 321.41 45.618 320.811C45.8313 318.582 45.7299 316.247 45.7418 314.005L45.7652 301.377C45.7579 297.217 46.1382 290.904 45.6042 286.923C45.5193 286.289 45.2523 285.621 44.7192 285.229C44.1223 284.79 43.2217 284.814 42.5133 284.812Z" fill="#89A2D8"/>
<path d="M178.766 260.346L202.123 260.519C205.894 260.519 209.981 260.848 213.693 260.191C226.313 260.533 238.95 260.139 251.577 260.506C254.832 260.602 258.245 260.748 261.486 260.49C263.679 262.627 264.85 264.22 264.879 267.37C265.018 282.931 264.707 298.513 264.742 314.079L264.807 330.765C264.831 334.192 265.043 337.744 264.679 341.154C264.548 342.373 264.063 343.417 263.21 344.297C262.755 344.766 262.239 345.193 261.745 345.62C243.707 345.899 225.631 345.631 207.59 345.636C202.558 345.637 186.136 346.247 182.116 345.239C180.103 344.734 179.18 343.13 178.236 341.452C177.762 338.383 178.124 334.721 178.135 331.596L178.232 309.841L178.107 279.505C178.113 275.071 177.817 270.411 178.257 266.008C178.457 264.011 179.365 262.458 180.498 260.861L180.423 260.582C179.873 260.48 179.322 260.413 178.766 260.346ZM220.461 284.658C217.645 285.365 213.847 286.72 212.348 289.409C211.897 290.217 211.799 290.997 212.028 291.89C212.494 292.539 213.02 293.027 213.87 293.07C216.997 293.226 217.464 287.452 223.962 288.611C225.462 288.879 226.957 289.466 228.088 290.512C229.101 291.447 229.717 292.64 229.702 294.037C229.686 295.544 229.016 297.149 227.889 298.158C225.014 300.736 219.66 299.064 218.54 301.595C218.523 302.357 218.54 303.098 219.183 303.639C221.577 305.654 229.029 302.495 230.466 309.411C230.836 311.193 230.608 313.074 229.565 314.593C228.324 316.4 226.139 317.466 224.01 317.77C221.7 318.1 219.606 317.56 217.59 316.444C216.1 315.176 214.257 312.931 212.085 313.311C211.697 313.379 211.493 313.567 211.218 313.824C210.863 314.658 210.863 315.329 211.203 316.168C212.025 318.196 214.346 319.718 216.319 320.489C220.334 322.057 225.174 322.263 229.126 320.402C231.723 319.18 233.853 317.088 234.762 314.326C235.591 311.806 235.296 308.758 234.061 306.417C232.807 304.04 230.844 302.883 228.502 301.802C230.732 300.838 232.679 299.26 233.618 296.959C234.465 294.884 234.236 292.542 233.316 290.531C232.114 287.902 229.767 286.136 227.075 285.212C224.882 284.459 222.742 284.448 220.461 284.658Z" fill="#D4987C"/>
<path d="M134.827 260.324L178.766 260.343C179.321 260.41 179.872 260.476 180.423 260.579L180.498 260.857C179.365 262.455 178.456 264.007 178.257 266.004C177.817 270.408 178.113 275.068 178.106 279.502L178.231 309.838L178.134 331.592C178.124 334.718 177.761 338.38 178.235 341.448C177.694 342.954 176.891 344.263 175.409 345C174.2 345.602 172.661 345.581 171.335 345.619C164.671 345.806 157.958 345.625 151.289 345.615L117.476 345.607L100.898 345.589C98.0391 345.589 94.9238 345.852 92.1133 345.449C94.9183 345.238 97.8009 345.353 100.614 345.353L116.154 345.393C127.115 345.451 138.077 345.446 149.038 345.377C155.865 345.383 162.704 345.529 169.529 345.396C170.234 344.978 170.909 344.556 171.486 343.967C172.33 343.104 172.574 342.098 172.681 340.924C172.931 338.178 172.739 335.322 172.724 332.561L172.702 316.853C172.768 298.081 172.728 279.31 172.582 260.539C164.235 260.416 155.886 260.412 147.538 260.528C143.691 260.557 138.572 261.068 134.827 260.324Z" fill="#E9B49C"/>
<path d="M77.6022 260.507C79.4323 260.512 81.4161 260.361 83.2247 260.601C85.0699 261.445 86.5119 262.347 87.686 264.067C87.3097 267.814 87.4731 271.681 87.4749 275.447L87.4988 293.602C87.5401 309.701 87.2767 325.811 87.496 341.907C86.0774 343.675 84.8947 345.108 82.4924 345.406C80.8935 345.606 79.1524 345.449 77.543 345.417C78.1637 344.756 78.7647 344.078 79.3451 343.382C80.1618 342.389 80.9206 341.259 81.0982 339.958C81.5996 336.284 81.1876 330.226 81.183 326.224L81.0587 294.594L80.9867 275.009C80.9867 271.695 81.2775 268.036 80.8715 264.753C80.6325 262.821 79.0276 261.618 77.6022 260.507Z" fill="#6683C2"/>
<path d="M261.488 260.489C263.958 260.441 266.467 260.705 268.334 262.525C269.407 263.57 269.825 264.835 270.051 266.285C270.666 270.245 270.19 275.209 270.178 279.257L270.231 305.093C276.743 305.026 283.49 304.633 289.981 305.077C283.439 305.482 276.749 305.242 270.19 305.269C270.306 313.558 270.34 321.848 270.29 330.138C270.27 333.48 270.693 337.801 269.922 341.041C269.688 342.022 269.037 342.928 268.37 343.664C267.822 344.268 267.187 344.747 266.504 345.185L266.33 345.592L261.747 345.62C262.241 345.193 262.757 344.766 263.212 344.297C264.065 343.417 264.55 342.372 264.681 341.153C265.045 337.744 264.833 334.192 264.809 330.765L264.744 314.079C264.709 298.513 265.02 282.931 264.881 267.37C264.852 264.22 263.681 262.627 261.488 260.489Z" fill="#865950"/>
<path d="M126.49 317.734C129.068 318.456 131.988 318.599 134.438 317.37C135.863 316.654 137.078 315.45 137.572 313.908C138.237 311.832 137.58 309.551 136.524 307.725C134.289 303.863 130.359 306 127.492 305.076C127.039 304.93 126.823 304.658 126.632 304.22C126.339 303.543 126.234 302.868 126.607 302.187C127.616 300.346 130.662 300.087 132.425 299.431C133.982 298.851 135.382 297.687 136.035 296.138C136.675 294.621 136.455 292.981 135.856 291.49C135.27 290.032 134.349 289.111 132.877 288.55C131.588 288.057 130.191 287.978 128.843 288.247C124.119 289.189 124.479 293.153 122.153 293.879C121.625 294.043 120.926 293.954 120.443 293.696C119.828 293.369 119.439 292.675 119.323 292.004C119.15 291.001 119.6 290.04 120.147 289.228C122.222 286.147 125.582 284.183 129.189 283.519C129.771 283.482 130.362 283.441 130.945 283.451C133.792 283.5 136.612 284.521 138.559 286.653C140.497 288.775 141.493 291.976 141.308 294.837C141.092 298.173 139.173 300.346 136.8 302.438C137.856 303.142 138.858 303.821 139.703 304.784C141.609 306.957 142.704 309.825 142.428 312.734C142.158 315.581 140.569 318.306 138.362 320.099C135.637 322.313 131.865 323.055 128.427 322.673C125.226 322.318 122.23 320.79 120.253 318.209C119.521 317.252 118.699 315.72 119.054 314.468C119.23 313.848 119.454 313.732 119.965 313.428C122.563 313.194 124.325 316.569 126.49 317.734Z" fill="#FFFEFE"/>
<path d="M217.586 316.442C219.601 317.558 221.695 318.098 224.006 317.768C226.135 317.464 228.32 316.398 229.56 314.591C230.603 313.072 230.831 311.191 230.462 309.409C229.025 302.493 221.573 305.652 219.178 303.637C218.535 303.096 218.518 302.355 218.536 301.593C219.656 299.063 225.009 300.734 227.885 298.157C229.011 297.148 229.682 295.542 229.697 294.035C229.712 292.638 229.097 291.445 228.084 290.51C226.952 289.464 225.457 288.877 223.957 288.609C217.459 287.45 216.992 293.224 213.865 293.068C213.016 293.025 212.489 292.537 212.023 291.889C211.795 290.995 211.893 290.215 212.344 289.407C213.843 286.718 217.64 285.364 220.456 284.656C222.737 284.446 224.878 284.457 227.07 285.21C229.762 286.134 232.109 287.9 233.312 290.53C234.231 292.54 234.46 294.883 233.614 296.958C232.674 299.259 230.727 300.836 228.498 301.8C230.839 302.881 232.802 304.038 234.056 306.415C235.291 308.757 235.586 311.804 234.757 314.324C233.849 317.086 231.718 319.178 229.121 320.401C225.17 322.261 220.329 322.055 216.315 320.487C214.342 319.716 212.021 318.194 211.199 316.166C210.858 315.327 210.858 314.657 211.214 313.822C211.488 313.565 211.692 313.377 212.08 313.31C214.253 312.929 216.096 315.175 217.586 316.442Z" fill="#865950"/>
<path d="M167.886 226.618C169.902 227.734 171.996 228.274 174.306 227.944C176.436 227.64 178.62 226.574 179.861 224.767C180.904 223.248 181.132 221.367 180.762 219.585C179.326 212.669 171.873 215.828 169.479 213.813C168.836 213.272 168.819 212.531 168.837 211.769C169.957 209.238 175.31 210.91 178.185 208.332C179.312 207.323 179.983 205.718 179.998 204.211C180.013 202.814 179.398 201.621 178.385 200.686C177.253 199.64 175.758 199.053 174.258 198.785C167.76 197.626 167.293 203.4 164.166 203.244C163.316 203.201 162.79 202.713 162.324 202.064C162.096 201.171 162.193 200.391 162.644 199.583C164.144 196.894 167.941 195.539 170.757 194.832C173.038 194.622 175.179 194.633 177.371 195.386C180.063 196.31 182.41 198.076 183.612 200.705C184.532 202.716 184.761 205.058 183.914 207.134C182.975 209.434 181.028 211.012 178.798 211.976C181.14 213.057 183.103 214.214 184.357 216.591C185.592 218.932 185.887 221.98 185.058 224.5C184.149 227.262 182.019 229.354 179.422 230.576C175.47 232.437 170.63 232.231 166.616 230.663C164.642 229.892 162.321 228.37 161.5 226.342C161.159 225.503 161.159 224.832 161.514 223.998C161.789 223.741 161.993 223.553 162.381 223.485C164.553 223.105 166.396 225.35 167.886 226.618Z" fill="white"/>
<path d="M40.8546 294.242C39.1823 294.274 33.5208 294.716 32.2986 294.159C31.8765 293.967 31.5022 293.51 31.3333 293.088C31.0782 292.45 31.0695 291.732 31.4182 291.123C32.8928 288.547 36.4828 290.649 38.4588 289.904C40.5523 289.114 41.6048 286.687 42.5081 284.812C43.2165 284.815 44.1171 284.791 44.714 285.23C45.2471 285.622 45.5141 286.29 45.599 286.924C46.133 290.905 45.7527 297.218 45.76 301.378L45.7367 314.006C45.7247 316.248 45.8261 318.583 45.6128 320.812C45.5554 321.411 45.3682 321.921 44.9402 322.361C44.5172 322.794 43.9001 323.023 43.2986 323.022C42.5719 323.021 41.8521 322.712 41.3712 322.163C40.3541 321.001 40.7496 318.337 40.7794 316.845C40.7487 309.311 40.7734 301.776 40.8546 294.242Z" fill="#FFFEFE"/>
<path d="M289.975 305.07L362.353 305.193C375.756 305.18 389.256 304.695 402.645 305.155C403.218 318.553 402.594 332.061 402.805 345.474C396.056 345.723 389.271 345.622 382.516 345.624C364.927 345.63 347.27 345.266 329.692 345.66C329.769 343.602 329.736 341.556 329.694 339.498C324.992 339.473 320.282 339.55 315.579 339.578L315.604 345.662C310.846 345.431 305.993 345.612 301.225 345.614C289.601 345.619 277.945 345.812 266.324 345.585L266.498 345.178C267.181 344.741 267.816 344.262 268.364 343.658C269.031 342.922 269.682 342.016 269.916 341.034C270.686 337.795 270.264 333.474 270.284 330.131C270.334 321.842 270.3 313.552 270.184 305.263C276.743 305.236 283.433 305.475 289.975 305.07Z" fill="#92ABE2"/>
<path d="M315.607 345.665L315.582 339.581C320.285 339.553 324.995 339.476 329.698 339.501C329.739 341.559 329.772 343.605 329.695 345.663C325.014 345.793 320.29 345.745 315.607 345.665Z" fill="#B4CDF3"/>
</g>
<defs>
<clipPath id="clip0_2006_1919">
<rect width="412" height="346" fill="white"/>
</clipPath>
<clipPath id="clip1_2006_1919">
<rect width="52.8227" height="133.732" fill="white" transform="translate(299.205 307.081) rotate(-106.729)"/>
</clipPath>
<clipPath id="clip2_2006_1919">
<rect width="57.9326" height="146.669" fill="white" transform="translate(123 93.4148) rotate(-37.6843)"/>
</clipPath>
</defs>
</svg>
