<svg width="320" height="210" viewBox="0 0 320 210" fill="none" xmlns="http://www.w3.org/2000/svg">
<g clip-path="url(#clip0_2006_2808)">
<circle cx="254.408" cy="84.2545" r="42.5919" fill="white"/>
<circle cx="191.383" cy="64.9746" r="53.8155" fill="white"/>
<rect x="46.293" y="-0.906982" width="237.845" height="120.837" rx="3.36564" fill="#C6CEDE"/>
<rect x="48.29" y="1.08521" width="233.85" height="116.842" rx="3.36564" fill="#ABB6CC"/>
<g clip-path="url(#clip1_2006_2808)">
<rect x="51.4492" y="3.41821" width="227.526" height="112.182" rx="3.23619" fill="#F5F9FF"/>
<path d="M231.136 10.7973C224.881 6.50113 218.166 2.90461 211.058 0.30288C174.731 -12.99 129.48 -2.88916 100.533 22.2208C94.5736 27.3915 89.1496 33.24 84.7426 39.8208C78.1485 49.6593 75.874 61.2687 70.0125 71.2493C64.0636 81.383 65.0916 95.7909 65.2884 107.214C65.5181 120.212 66.207 133.385 70.2203 145.738C74.3539 158.484 81.8885 169.897 90.7243 179.91C99.1665 189.475 110.988 191.312 123.192 192.558C150.749 195.367 178.613 195.116 206.116 191.804C212.043 191.093 218.09 190.197 223.361 187.376C229.528 184.075 234.099 178.456 238.506 172.979C247.08 162.299 255.828 151.302 260.126 138.26C265.44 122.136 265.156 103.377 265.309 86.5536C265.375 79.4262 265.309 72.255 264.172 65.226C261.635 49.4735 255.041 31.2832 243.263 20.5046C239.458 16.9846 235.401 13.727 231.136 10.7973Z" fill="#DCE9FE"/>
<g clip-path="url(#clip2_2006_2808)">
<path d="M179.259 33.9171C179.259 17.7672 184.031 17.6065 189.954 17.6027C188.959 16.2406 187.724 15.5711 187.724 15.5711H203.466L206.649 27.6462C206.649 27.6462 206.584 29.8615 204.217 31.3307C204.316 31.4684 204.416 31.6253 204.503 31.8089C205.864 34.5369 203.032 39.3348 200.524 40.1307V51.8002C203.966 52.5348 210.43 53.4186 214.433 50.9087C220.093 47.3581 214.345 39.1167 213.018 35.4246C211.692 31.7324 210.899 27.65 210.899 22.9439C210.899 18.2378 205.921 9.36133 197.189 9.36133C191.315 9.36133 190.469 11.2246 190.469 11.2246C190.469 11.2246 187.526 8.81037 181.957 11.2055C177.379 13.1759 172.87 18.5018 174.906 28.8016C176.941 39.1014 168.087 41.1714 171.631 48.5978C173.976 53.5105 182.723 53.212 186.821 52.7835V49.8336C181.74 48.8312 179.259 42.2082 179.259 33.9171Z" fill="#27282D"/>
<path d="M199.821 32.5757C199.825 32.5717 199.825 32.5717 199.829 32.5676C199.825 32.5676 199.825 32.5676 199.821 32.5676C199.821 32.5717 199.821 32.5757 199.821 32.5757Z" fill="#D5694D"/>
<path d="M186.483 128.949L186.258 120.321H183.388V126.722C183.388 126.829 183.3 126.917 183.193 126.917C183.087 126.917 182.999 126.829 182.999 126.722V120.321H171.675C169.487 120.321 167.714 118.542 167.714 116.345L168.488 84.8606C168.438 84.9333 168.389 85.006 168.339 85.0825L167.177 121.09L169.269 122.107L184.909 129.721C185.618 130.066 186.498 129.633 186.483 128.949Z" fill="#F37E60"/>
<path d="M184.993 58.9547C185.008 58.9662 185.02 58.9815 185.039 58.9968C185.687 59.6128 186.403 60.1982 187.017 60.5885C188.664 61.633 190.505 62.138 192.38 62.2069C192.647 62.2222 192.91 62.2222 193.18 62.2069C196.447 62.1189 199.778 60.7568 202.412 58.6334L202.416 58.6295L204.478 56.9728L200.525 55.2511V51.8038V40.1343C200.095 40.272 199.675 40.2873 199.287 40.1572C199.138 40.1075 199.008 40.0424 198.898 39.9583C197.141 45.6209 193.093 49.6306 188.755 49.9481C189.353 49.9749 190.116 49.9443 190.966 49.7683C192.792 49.3895 195.403 48.2188 197.465 44.8135C197.522 44.7217 197.64 44.6911 197.731 44.7485C197.823 44.8059 197.853 44.9245 197.796 45.0163C196.855 46.5735 195.719 47.8132 194.423 48.7008C193.382 49.4125 192.239 49.9022 191.023 50.1509C190.318 50.2963 189.67 50.3461 189.125 50.3461C188.069 50.3461 187.383 50.1662 187.341 50.1548C187.238 50.128 187.177 50.0208 187.204 49.9137C187.204 49.9099 187.207 49.9022 187.211 49.8984C187.078 49.8793 186.948 49.8602 186.819 49.8334V52.7833V55.6911L183.487 57.21C183.766 57.6462 184.208 58.1666 184.718 58.6831C184.81 58.7749 184.901 58.8629 184.993 58.9547Z" fill="#FFBEA5"/>
<path d="M199.646 32.7908C199.646 32.7908 199.711 32.7104 199.822 32.5803C199.822 32.5765 199.822 32.5765 199.822 32.5727C196.273 32.7449 194.032 30.1661 192.717 27.2468C192.294 27.4381 192.038 27.6753 192.012 27.7021C191.913 27.8016 191.779 27.8513 191.65 27.8513C191.516 27.8513 191.379 27.7977 191.276 27.6944C191.074 27.4878 191.082 27.1588 191.284 26.956C191.303 26.9369 191.684 26.5696 192.317 26.2864C191.581 24.3313 191.238 22.3379 191.173 20.995C191.104 19.5908 190.575 18.4659 189.953 17.6089C184.03 17.6089 179.258 17.7734 179.258 33.9233C179.258 42.2144 181.743 48.8373 186.82 49.8398C186.95 49.8666 187.079 49.8857 187.213 49.9048C187.247 49.8092 187.346 49.7556 187.445 49.7824C187.457 49.7862 187.956 49.9163 188.756 49.9507C193.094 49.6332 197.142 45.6234 198.899 39.9608C196.963 38.572 199.646 32.7908 199.646 32.7908ZM194.596 31.3216C194.989 31.3216 195.309 31.884 195.309 32.5803C195.309 33.2767 194.989 33.8391 194.596 33.8391C194.203 33.8391 193.883 33.2767 193.883 32.5803C193.883 31.884 194.203 31.3216 194.596 31.3216ZM183.607 33.8391C183.214 33.8391 182.894 33.2767 182.894 32.5803C182.894 31.884 183.214 31.3216 183.607 31.3216C184 31.3216 184.32 31.884 184.32 32.5803C184.32 33.2767 184 33.8391 183.607 33.8391ZM186.134 27.6447C185.959 27.8743 185.635 27.9163 185.406 27.7403C183.332 26.141 181.728 27.637 181.663 27.7021C181.564 27.8016 181.43 27.8513 181.301 27.8513C181.167 27.8513 181.03 27.7977 180.927 27.6944C180.725 27.4878 180.733 27.1588 180.935 26.956C180.958 26.933 181.522 26.3859 182.433 26.1143C183.275 25.8617 184.583 25.7967 186.039 26.9177C186.264 27.0861 186.306 27.4151 186.134 27.6447ZM186.881 38.7786C186.61 38.3271 186.702 37.6575 187.175 36.6704C188.623 33.644 187.453 30.7591 186.881 29.6572C186.832 29.5616 186.87 29.4429 186.965 29.3932C187.06 29.3435 187.178 29.3817 187.228 29.4774C187.826 30.629 189.05 33.6555 187.529 36.8388C187.125 37.6843 187.022 38.2506 187.217 38.5758C187.388 38.8628 187.823 39.012 188.543 39.0426C188.65 39.0464 188.734 39.1382 188.73 39.2454C188.726 39.3525 188.638 39.4328 188.535 39.4328C188.532 39.4328 188.532 39.4328 188.528 39.4328C187.651 39.3984 187.129 39.1918 186.881 38.7786ZM192.267 41.6061C191.493 42.7424 190.594 43.4043 189.599 43.5765C189.42 43.6071 189.244 43.6224 189.077 43.6224C188.044 43.6224 187.316 43.1021 187.281 43.0753C187.194 43.0102 187.175 42.8878 187.239 42.8036C187.304 42.7156 187.426 42.6965 187.51 42.7615C187.525 42.773 188.406 43.3928 189.538 43.1939C190.426 43.037 191.234 42.4325 191.943 41.388C192.004 41.3 192.126 41.277 192.214 41.3382C192.305 41.3918 192.328 41.5142 192.267 41.6061Z" fill="#FFBEA5"/>
<path d="M204.508 31.8074C204.416 31.6237 204.321 31.4668 204.222 31.3291C203.265 31.9221 201.927 32.3966 200.067 32.5496C199.987 32.5573 199.907 32.5611 199.827 32.5649C199.823 32.5688 199.823 32.5688 199.819 32.5726C199.705 32.7027 199.644 32.783 199.644 32.783C199.644 32.783 196.96 38.5642 198.901 39.9531C199.015 40.0334 199.145 40.1023 199.289 40.152C199.678 40.2821 200.097 40.263 200.528 40.1291C203.036 39.3371 205.868 34.5392 204.508 31.8074ZM200.787 39.2491C200.78 39.3524 200.692 39.4289 200.593 39.4289C200.589 39.4289 200.582 39.4289 200.578 39.4289C200.471 39.4213 200.391 39.3256 200.399 39.2185C200.402 39.1687 200.787 34.3976 200.406 33.0279C200.376 32.9246 200.437 32.8174 200.54 32.7868C200.643 32.7562 200.749 32.8174 200.78 32.9207C201.184 34.3594 200.806 39.0501 200.787 39.2491Z" fill="#FFBEA5"/>
<path d="M201.74 93.3484L202.205 69.5846L193.179 62.2041C192.908 62.2194 192.645 62.2194 192.379 62.2041C191.616 62.866 189.855 64.4041 188.071 65.969L192.26 62.6518C192.264 62.6518 192.264 62.6479 192.268 62.6479C192.272 62.6441 192.276 62.6403 192.28 62.6403C192.287 62.6364 192.291 62.6326 192.299 62.6288C192.302 62.625 192.306 62.625 192.314 62.6211C192.321 62.6173 192.329 62.6173 192.337 62.6135C192.341 62.6135 192.344 62.6097 192.348 62.6097C192.36 62.6058 192.371 62.6058 192.379 62.6058H192.382C192.394 62.6058 192.405 62.6058 192.417 62.6097C192.421 62.6097 192.424 62.6135 192.428 62.6135C192.436 62.6173 192.443 62.6173 192.451 62.6211C192.455 62.6211 192.459 62.625 192.462 62.6288C192.47 62.6326 192.474 62.6364 192.482 62.6403C192.485 62.6441 192.489 62.6441 192.493 62.6479C192.497 62.6479 192.497 62.6518 192.501 62.6518L201.732 70.1777C201.816 70.2465 201.828 70.369 201.759 70.4531C201.721 70.499 201.664 70.5258 201.607 70.5258C201.565 70.5258 201.519 70.5105 201.485 70.4837L192.569 63.218V99.0837C192.569 99.1908 192.482 99.2788 192.375 99.2788C192.268 99.2788 192.18 99.1908 192.18 99.0837V63.2065L185.777 68.2799C185.693 68.3488 185.571 68.3335 185.502 68.2493C185.499 68.2417 185.495 68.2378 185.491 68.2302C185.38 68.3258 185.274 68.4215 185.167 68.5133L185.941 104.184L186.028 104.015L201.74 93.3484Z" fill="#FCF5F5"/>
<path d="M186.099 111.149L186.297 120.32H192.205L186.099 111.149Z" fill="#FCF5F5"/>
<path d="M202.421 58.6252L202.413 58.6293L202.421 58.6252Z" fill="#FCF5F5"/>
<path d="M184.994 58.9541C185.01 58.9696 185.025 58.9813 185.041 58.9968C185.025 58.9813 185.01 58.9658 184.994 58.9541Z" fill="#FCF5F5"/>
<path d="M185.542 67.974L188.073 65.9691C189.857 64.4081 191.622 62.87 192.38 62.2042C190.505 62.1354 188.664 61.6303 187.017 60.5858C186.404 60.1955 185.687 59.6102 185.039 58.9942C185.024 58.9789 185.008 58.9674 184.993 58.9521C184.902 58.8641 184.806 58.7722 184.719 58.6804C184.799 58.7608 184.883 58.8449 184.967 58.9253L185.172 68.5096C185.279 68.4178 185.386 68.3221 185.496 68.2265C185.447 68.1461 185.462 68.0352 185.542 67.974Z" fill="#FCF5F5"/>
<path d="M202.207 69.5831L202.42 58.6252L202.416 58.6291C199.783 60.7525 196.451 62.1146 193.185 62.2026L202.207 69.5831Z" fill="#FCF5F5"/>
<path d="M218.82 108.028L219.419 84.352C219.156 84.153 218.893 83.9617 218.622 83.7781L218.489 86.9155L217.566 108.552C217.841 108.437 218.161 108.307 218.512 108.154C218.611 108.12 218.714 108.074 218.82 108.028Z" fill="#F37E60"/>
<path d="M192.322 26.2789C192.463 26.2138 192.619 26.1564 192.787 26.1067C193.629 25.8542 194.936 25.7891 196.392 26.9102C196.621 27.0862 196.663 27.4114 196.488 27.6409C196.312 27.8705 195.988 27.9126 195.76 27.7366C194.487 26.7571 193.393 26.9408 192.722 27.243C194.033 30.1623 196.278 32.7411 199.827 32.5689C199.831 32.5689 199.831 32.5689 199.834 32.5689C199.914 32.5651 199.991 32.5613 200.074 32.5536C201.935 32.4006 203.272 31.93 204.229 31.3331C206.596 29.8639 206.661 27.6486 206.661 27.6486L203.471 15.5735H187.729C187.729 15.5735 188.963 16.2431 189.958 17.6051C190.583 18.4584 191.109 19.587 191.178 20.9912C191.239 22.3303 191.586 24.3237 192.322 26.2789Z" fill="#27282D"/>
<path d="M202.418 58.6269L202.204 69.5848L201.739 93.3486L203.878 91.8985L204.213 59.0746C204.213 58.9675 204.301 58.8795 204.407 58.8795C204.407 58.8795 204.407 58.8795 204.411 58.8795C204.518 58.8795 204.606 58.9675 204.606 59.0784L204.274 91.6307L204.781 91.2863L216.605 108.948C216.803 108.867 217.135 108.737 217.573 108.557L218.495 86.9208L218.629 83.7834C218.217 83.5079 217.802 83.2554 217.378 83.0297C209.664 78.9281 218.972 62.629 219.288 62.0819L218.495 61.8026L205.055 57.0582L204.587 56.8899L204.487 56.9702L202.418 58.6269Z" fill="#F37E60"/>
<path d="M169.285 73.7995C169.426 75.1348 169.483 76.428 169.491 77.5414C169.499 78.4635 169.48 79.3244 169.445 80.0819C169.445 80.0858 169.445 80.0896 169.445 80.0934C169.438 80.2924 169.426 80.4875 169.419 80.6712L169.472 83.3685C169.472 83.3685 169.125 83.9157 168.489 84.8645L167.715 116.349C167.715 118.546 169.487 120.325 171.675 120.325H183V60.2284C183 60.1213 183.087 60.0333 183.194 60.0333C183.301 60.0333 183.388 60.1213 183.388 60.2284V120.321H186.259H186.293L186.095 111.15L184.052 108.081L184.055 108.077L184.928 106.226C184.932 106.187 184.951 106.153 184.978 106.122L185.351 105.326L185.378 105.269L185.397 105.227L185.942 104.179L185.168 68.5081L184.963 58.9237C184.879 58.8434 184.799 58.7592 184.715 58.6789C184.208 58.1623 183.766 57.642 183.484 57.2058C183.48 57.1982 183.472 57.1905 183.468 57.1829L179.379 58.6482L169.037 62.3442V62.3519C169.049 62.3481 169.053 62.3442 169.053 62.3442L169.285 73.7995Z" fill="#F37E60"/>
<path d="M204.603 59.0764C204.603 58.9693 204.519 58.8813 204.409 58.8774C204.409 58.8774 204.409 58.8774 204.405 58.8774C204.298 58.8774 204.21 58.9654 204.21 59.0726L203.875 91.8965L204.268 91.6287L204.603 59.0764Z" fill="#CE654A"/>
<path d="M186.62 104.043L186.349 104.624L187.215 104.043L204.573 92.3998L215.821 109.3C216.008 109.215 216.198 109.127 216.381 109.032C216.381 109.032 216.458 109.001 216.595 108.948L204.771 91.2864L204.264 91.6307L203.871 91.8985L201.733 93.3486L186.025 104.016L185.938 104.184L185.393 105.232L186.62 104.043Z" fill="#87A0D7"/>
<path d="M185.382 105.273L185.354 105.327L185.382 105.273Z" fill="white"/>
<path d="M203.539 93.6947C203.58 93.6641 203.634 93.6565 203.683 93.6641C203.733 93.6756 203.779 93.7024 203.809 93.7483L214.47 109.814C214.638 109.76 214.813 109.703 214.989 109.638L204.248 93.4346C204.187 93.3427 204.213 93.2241 204.301 93.1629C204.392 93.1017 204.511 93.1285 204.571 93.2165L215.339 109.458C215.347 109.47 215.355 109.485 215.358 109.496C215.515 109.435 215.671 109.37 215.827 109.301L204.579 92.3977L187.221 104.04L186.356 104.622L185.967 105.46L203.539 93.6947Z" fill="white"/>
<path d="M203.59 94.1282L185.641 106.142L185.05 107.412L203.247 95.2071L213.203 110.163C213.45 110.106 213.752 110.029 214.079 109.934L203.59 94.1282Z" fill="white"/>
<path d="M184.932 106.226L184.981 106.123C184.955 106.153 184.939 106.188 184.932 106.226Z" fill="#D5694D"/>
<path d="M203.59 94.1275L214.079 109.933C214.205 109.895 214.335 109.856 214.468 109.814L203.807 93.7487C203.777 93.7066 203.735 93.676 203.681 93.6645C203.632 93.653 203.578 93.6645 203.536 93.6951L185.961 105.46L185.645 106.141L203.59 94.1275Z" fill="#777777"/>
<path d="M204.569 93.2188C204.508 93.1308 204.39 93.104 204.298 93.1652C204.207 93.2265 204.184 93.3451 204.245 93.4369L214.986 109.64C215.108 109.594 215.23 109.549 215.356 109.499C215.352 109.483 215.345 109.472 215.337 109.461L204.569 93.2188Z" fill="#777777"/>
<path d="M218.958 118.809C218.192 118.947 217.502 119.035 216.911 119.065C216.911 119.065 211.163 121.419 203.071 120.841C194.979 120.263 194.007 119.065 194.251 118.4C194.422 117.933 195.078 118.036 195.078 118.036C195.078 118.036 193.942 117.466 193.885 116.579C193.858 116.161 194.217 115.989 194.605 115.928L193.207 113.824C192.612 112.932 192.852 111.723 193.74 111.13L202.244 105.426C203.132 104.829 204.337 105.07 204.927 105.961L206.692 108.616C206.791 108.643 206.879 108.662 206.963 108.678C208.244 108.9 211.472 109.374 212.448 110.315C212.448 110.315 212.741 110.269 213.206 110.162L203.25 95.2061L185.053 107.411L185.644 106.141L185.961 105.46L186.349 104.622L186.62 104.04L185.404 105.227L185.385 105.269L185.358 105.326L184.985 106.122L184.935 106.225L184.062 108.077L184.059 108.081L186.102 111.149L192.208 120.32L202.011 135.051L216.896 125.834L221.622 122.907L221.668 122.88L218.958 118.809Z" fill="#87A0D7"/>
<path d="M195.506 115.93C195.506 115.93 193.783 115.253 194.004 114.365C194.225 113.477 195.197 113.787 195.773 113.745C195.773 113.745 193.76 113.256 194.439 111.97C194.896 111.098 203.026 112.326 207.494 111.35C207.494 111.35 202.321 108.863 202.275 107.754C202.233 106.713 205.256 108.243 206.693 108.626L204.928 105.971C204.334 105.079 203.133 104.838 202.245 105.435L193.737 111.136C192.849 111.733 192.609 112.938 193.204 113.829L194.602 115.934C195.037 115.865 195.506 115.93 195.506 115.93Z" fill="white"/>
<path d="M216.385 109.034C216.198 109.13 216.012 109.218 215.825 109.302C215.669 109.371 215.512 109.436 215.356 109.497C215.23 109.547 215.108 109.593 214.986 109.639C214.811 109.704 214.636 109.761 214.468 109.815C214.335 109.857 214.205 109.899 214.079 109.933C213.748 110.029 213.45 110.106 213.202 110.163C212.737 110.27 212.444 110.316 212.444 110.316C211.472 109.379 208.243 108.9 206.959 108.678C206.879 108.663 206.787 108.644 206.688 108.617C205.251 108.235 202.229 106.708 202.271 107.745C202.316 108.854 207.489 111.341 207.489 111.341C203.022 112.317 194.891 111.089 194.434 111.961C193.759 113.247 195.768 113.737 195.768 113.737C195.192 113.782 194.22 113.469 193.999 114.356C193.778 115.244 195.501 115.921 195.501 115.921C195.501 115.921 195.032 115.856 194.598 115.925C194.213 115.986 193.851 116.158 193.877 116.575C193.935 117.463 195.07 118.033 195.07 118.033C195.07 118.033 194.411 117.93 194.243 118.397C193.999 119.062 194.971 120.26 203.063 120.838C211.156 121.415 216.904 119.062 216.904 119.062L216.385 109.034ZM196.363 113.637C196.401 113.641 200.205 113.905 203.494 113.423C203.601 113.408 203.7 113.48 203.715 113.587C203.73 113.694 203.658 113.794 203.551 113.809C201.966 114.043 200.266 114.104 198.916 114.104C197.426 114.104 196.355 114.027 196.336 114.027C196.229 114.02 196.149 113.928 196.157 113.817C196.161 113.71 196.256 113.629 196.363 113.637ZM196.084 115.856C196.13 115.856 200.506 115.929 203.494 115.454C203.601 115.439 203.7 115.512 203.715 115.619C203.73 115.726 203.658 115.826 203.551 115.841C201.23 116.208 198.089 116.254 196.74 116.254C196.332 116.254 196.088 116.25 196.081 116.25C195.974 116.25 195.886 116.158 195.89 116.051C195.89 115.94 195.978 115.856 196.084 115.856ZM202.846 118.163C202.953 118.156 203.044 118.24 203.052 118.347C203.06 118.454 202.976 118.546 202.869 118.554C202.408 118.584 201.901 118.596 201.379 118.596C198.772 118.596 195.745 118.29 195.707 118.286C195.6 118.274 195.52 118.179 195.532 118.071C195.543 117.964 195.638 117.888 195.745 117.895C195.795 117.903 200.121 118.339 202.846 118.163Z" fill="#FFBEA5"/>
<path d="M217.374 83.028C217.797 83.2538 218.213 83.5063 218.624 83.7818C218.891 83.9616 219.158 84.1529 219.421 84.3557C226.194 89.5324 230.932 100.873 230.932 100.873C229.32 101.864 228.455 103.272 224.384 105.399C222.333 106.474 220.317 107.389 218.823 108.031C218.716 108.077 218.613 108.123 218.514 108.165L219.211 118.767C219.421 118.729 219.638 118.683 219.859 118.637C219.993 118.611 220.13 118.58 220.267 118.549C220.74 118.442 221.231 118.324 221.742 118.19C222.032 118.113 222.329 118.033 222.63 117.949C228.958 116.185 237.603 112.68 243.053 109.746C250.482 105.751 247.387 102.116 237.035 82.9439C226.686 63.7599 219.291 62.0649 219.291 62.0649C219.291 62.0649 219.288 62.0688 219.284 62.0802C218.967 62.6274 209.663 78.9265 217.374 83.028ZM239.741 98.8986C239.848 98.9024 239.931 98.9943 239.928 99.1014C239.924 99.2085 239.832 99.2927 239.726 99.2889C236.013 99.1167 231.809 100.984 231.767 101.003C231.74 101.014 231.714 101.018 231.687 101.018C231.611 101.018 231.542 100.976 231.508 100.903C231.462 100.804 231.508 100.689 231.607 100.643C231.645 100.628 235.933 98.7226 239.741 98.8986ZM231.348 99.8398C231.367 99.813 231.809 99.2047 232.766 98.5007C233.646 97.8579 235.148 97.0124 237.309 96.6374C237.416 96.6183 237.515 96.691 237.534 96.7981C237.553 96.9052 237.481 97.0047 237.374 97.0238C235.296 97.3835 233.856 98.1908 233.009 98.8068C232.095 99.4725 231.664 100.062 231.66 100.069C231.622 100.123 231.561 100.15 231.5 100.15C231.462 100.15 231.42 100.138 231.386 100.111C231.306 100.05 231.287 99.9278 231.348 99.8398ZM220.755 67.1804C220.854 67.2263 220.896 67.3411 220.85 67.4406C219.623 70.0959 219.089 73.6694 218.857 76.3821C219.371 74.5954 220.05 73.4246 220.606 72.7014C221.479 71.5613 222.245 71.2322 222.28 71.2169C222.379 71.1748 222.493 71.2208 222.535 71.3202C222.577 71.4197 222.531 71.5345 222.432 71.5766C222.425 71.5804 221.708 71.8941 220.896 72.9654C220.141 73.9564 219.15 75.8197 218.701 79.0489C218.632 80.9696 218.685 82.2934 218.685 82.3126C218.689 82.4197 218.605 82.5115 218.499 82.5153C218.495 82.5153 218.495 82.5153 218.491 82.5153C218.388 82.5153 218.3 82.4312 218.297 82.3279C218.297 82.3049 218.205 79.9289 218.426 76.9025C218.632 74.1056 219.162 70.1648 220.496 67.2722C220.542 67.1766 220.656 67.1345 220.755 67.1804Z" fill="#F37E60"/>
<path d="M216.386 109.035L216.912 119.067C217.503 119.04 218.192 118.952 218.959 118.811C219.042 118.796 219.123 118.78 219.206 118.765L218.509 108.163C218.158 108.312 217.842 108.446 217.564 108.561C217.129 108.741 216.797 108.874 216.595 108.951C216.462 109.005 216.386 109.035 216.386 109.035Z" fill="#FCF5F5"/>
<path d="M218.419 76.9053C218.194 79.9279 218.29 82.3039 218.29 82.3307C218.293 82.4378 218.381 82.5182 218.484 82.5182C218.488 82.5182 218.488 82.5182 218.492 82.5182C218.598 82.5144 218.682 82.4225 218.678 82.3154C218.678 82.2963 218.625 80.9763 218.694 79.0518C218.694 79.0556 218.694 79.0594 218.694 79.0632C218.678 79.1627 218.598 79.2316 218.499 79.2316C218.492 79.2316 218.48 79.2316 218.473 79.2316C218.366 79.2163 218.293 79.1168 218.305 79.0097C218.442 78.0111 218.633 77.1425 218.85 76.3812C219.082 73.6685 219.616 70.0949 220.843 67.4396C220.889 67.3401 220.847 67.2254 220.748 67.1794C220.649 67.1335 220.535 67.1756 220.489 67.2751C219.155 70.1676 218.629 74.1085 218.419 76.9053Z" fill="#CE654A"/>
<path d="M218.473 79.2279C218.48 79.2279 218.492 79.2279 218.499 79.2279C218.595 79.2279 218.678 79.1552 218.694 79.0595C218.694 79.0557 218.694 79.0519 218.694 79.048C219.143 75.8188 220.134 73.9593 220.889 72.9646C221.701 71.8933 222.418 71.5757 222.425 71.5757C222.524 71.5336 222.57 71.4188 222.528 71.3193C222.486 71.2199 222.372 71.174 222.273 71.216C222.242 71.2313 221.472 71.5604 220.6 72.7006C220.043 73.4237 219.365 74.5945 218.85 76.3812C218.633 77.1426 218.442 78.0112 218.305 79.0098C218.293 79.1131 218.366 79.2125 218.473 79.2279Z" fill="#D5694D"/>
<path d="M196.337 114.028C196.356 114.028 197.423 114.105 198.917 114.105C200.27 114.105 201.97 114.044 203.552 113.81C203.659 113.795 203.731 113.696 203.716 113.588C203.701 113.481 203.602 113.409 203.495 113.424C200.206 113.91 196.402 113.642 196.363 113.638C196.257 113.631 196.161 113.711 196.154 113.818C196.146 113.925 196.23 114.021 196.337 114.028Z" fill="#D29077"/>
<path d="M196.082 116.246C196.094 116.246 196.338 116.249 196.742 116.249C198.091 116.249 201.232 116.207 203.553 115.836C203.66 115.821 203.732 115.718 203.717 115.614C203.702 115.507 203.603 115.434 203.496 115.45C200.508 115.924 196.132 115.855 196.09 115.852H196.086C195.979 115.852 195.892 115.936 195.892 116.043C195.888 116.154 195.976 116.242 196.082 116.246Z" fill="#D5694D"/>
<path d="M231.503 100.905C231.533 100.977 231.605 101.019 231.682 101.019C231.708 101.019 231.735 101.015 231.762 101.004C231.804 100.985 236.008 99.1177 239.72 99.2899C239.827 99.2937 239.919 99.2134 239.923 99.1024C239.926 98.9953 239.846 98.9035 239.736 98.8997C235.932 98.7237 231.644 100.629 231.598 100.648C231.503 100.69 231.461 100.809 231.503 100.905Z" fill="#D5694D"/>
<path d="M231.393 100.11C231.427 100.133 231.466 100.149 231.507 100.149C231.568 100.149 231.629 100.122 231.668 100.068C231.671 100.061 232.102 99.4715 233.017 98.8058C233.859 98.1898 235.304 97.3825 237.381 97.0228C237.488 97.0037 237.56 96.9042 237.541 96.7971C237.522 96.69 237.423 96.6211 237.316 96.6364C235.155 97.0114 233.653 97.8569 232.773 98.4997C231.812 99.2037 231.37 99.812 231.355 99.8388C231.286 99.9268 231.305 100.049 231.393 100.11Z" fill="#D5694D"/>
<path d="M134.362 82.5275C134.362 82.5237 134.362 82.5237 134.362 82.5275C134.362 82.5275 127.871 75.6903 124.776 73.3832C123.049 72.0938 118.902 69.3925 117.199 68.2218L118.026 72.7688C118.525 72.7229 117.862 73.9763 119.326 75.5296C119.47 75.6827 123.248 74.3359 123.4 74.4928C125.249 76.0462 127.334 77.7755 127.334 77.7755C127.334 77.7755 127.338 77.8253 127.341 77.9095C128.409 78.5943 128.786 78.6402 128.794 78.6402C128.79 78.6402 128.786 78.6402 128.786 78.6402L128.775 79.0305C128.721 79.0305 128.355 78.9961 127.353 78.3801C127.372 79.7881 127.239 83.0747 125.519 81.77C124.921 81.3147 124.273 80.6375 123.636 79.8608C124.814 81.4256 125.771 82.3668 125.79 82.3821C125.866 82.4587 125.87 82.5811 125.794 82.6576C125.756 82.6959 125.706 82.7188 125.653 82.7188C125.603 82.7188 125.554 82.6997 125.516 82.6653C125.493 82.6423 123.269 77.4427 121.767 75.2656L120.337 74.981C119.961 75.2883 118.907 74.5358 119.723 76.21C118.6 76.072 120.952 78.9751 122.432 79.6274C122.535 79.5968 122.642 79.658 122.672 79.7651C122.889 80.5456 122.729 81.2267 122.257 81.5366C122.146 81.6093 122.02 81.659 121.891 81.682C121.895 81.6896 121.895 81.7011 121.895 81.7088C121.898 81.7394 121.948 82.4204 121.487 82.7188C121.353 82.8068 121.197 82.8489 121.018 82.8489C120.721 82.8489 120.355 82.7303 119.932 82.4969C118.102 81.483 116.116 78.0204 116.032 77.8712C115.979 77.7755 116.009 77.6569 116.105 77.6034C116.2 77.5498 116.318 77.5804 116.371 77.6761C116.391 77.7105 118.388 81.1922 120.126 82.1526C120.663 82.451 121.064 82.5314 121.281 82.3898C121.502 82.2482 121.521 81.8733 121.513 81.7394C121.513 81.7202 121.513 81.7011 121.517 81.682C121.22 81.6361 120.9 81.4792 120.576 81.2152C120.499 81.154 120.416 81.0736 120.328 80.978L119.326 80.7484L118.586 78.4987C117.706 77.0754 116.917 75.6368 116.859 75.5296C116.806 75.434 116.84 75.3154 116.936 75.2656C117.031 75.2121 117.149 75.2465 117.199 75.3422C117.206 75.3575 117.545 75.9773 118.026 76.7999L117.382 74.8486L117.879 72.2159C117.879 72.2159 117.774 72.3059 118.026 72.7688L117.199 68.2218C116.604 67.9272 116.047 67.499 115.422 67.3C115.422 67.3 114.576 69.1998 118.026 71.9086C118.026 71.9086 115.422 72.5231 116.76 74.9366C116.76 74.9366 115.48 75.7362 116.097 77.4235C116.097 77.4235 115.079 78.2232 115.788 79.4858C116.493 80.7446 117.957 82.5964 119.592 83.1933C120.965 83.6945 121.25 83.3501 121.407 82.9714C121.407 82.9714 124.368 87.7654 127.906 90.5623C127.906 90.5623 128.348 90.2907 128.999 89.8239C131.938 87.4632 134.313 82.627 134.362 82.5275Z" fill="#FFBEA5"/>
<path d="M121.739 81.3016L121.259 81.1907C121.43 81.2748 121.594 81.3093 121.739 81.3016Z" fill="#FFBEA5"/>
<path d="M169.473 83.3697L169.419 80.6723C169.339 82.1186 169.229 83.0636 169.225 83.0789C169.214 83.1784 169.13 83.2511 169.031 83.2511C169.023 83.2511 169.015 83.2511 169.008 83.2511C168.901 83.2396 168.825 83.1401 168.836 83.033C168.84 83.0177 168.981 81.8354 169.054 80.0869C168.604 76.85 167.754 74.8414 167.117 73.728C166.431 72.5227 165.84 72.0751 165.836 72.0713C165.749 72.0062 165.734 71.8838 165.795 71.7996C165.859 71.7116 165.981 71.6925 166.065 71.7575C166.092 71.7767 166.709 72.2396 167.434 73.5022C167.956 74.409 168.611 75.8859 169.095 78.1088C169.095 77.9252 169.095 77.7339 169.095 77.5464C169.069 74.738 168.764 70.7934 167.453 67.9621C167.407 67.8626 167.449 67.7478 167.548 67.7019C167.647 67.656 167.761 67.6981 167.807 67.7975C168.623 69.5614 169.057 71.7346 169.278 73.8045L169.054 62.353C169.054 62.353 169.046 62.3569 169.038 62.3607C168.699 62.4831 163.347 64.4956 160.138 70.9464C156.818 77.6 146.515 91.898 146.515 91.898L136.029 83.8173C135.282 85.5008 132.942 90.161 129.42 92.1658C132.195 95.0392 138.095 101.016 141.728 103.602C146.222 106.793 149.515 107.348 156.197 100.327C161.781 94.4615 166.313 88.0719 168.329 85.0876C168.379 85.0111 168.432 84.9384 168.478 84.8657C169.13 83.9168 169.473 83.3697 169.473 83.3697ZM149.454 98.2263C149.435 98.2302 149.416 98.234 149.401 98.234C149.317 98.234 149.237 98.1804 149.214 98.0924C148.432 95.4104 147.117 92.8277 147.106 92.801C147.056 92.7053 147.095 92.5867 147.19 92.537C147.285 92.4872 147.403 92.5255 147.453 92.6211C147.464 92.6479 148.798 95.265 149.587 97.9815C149.618 98.0886 149.557 98.1957 149.454 98.2263Z" fill="#F37E60"/>
<path d="M126.01 76.9768C126.54 77.3747 126.978 77.6808 127.337 77.9103C127.333 77.8262 127.329 77.7764 127.329 77.7764C127.329 77.7764 125.244 76.047 123.396 74.4937C124.257 75.4043 125.183 76.3531 126.01 76.9768Z" fill="#FFBEA5"/>
<path d="M122.673 74.2939C122.071 73.6549 121.503 73.0466 121.045 72.6334C120.386 72.0327 120.226 72.0824 120.222 72.0863C119.864 72.3005 120.173 73.6435 120.493 74.4814C121.392 76.624 122.601 78.4835 123.637 79.8608C124.274 80.6375 124.922 81.3148 125.52 81.7701C127.239 83.0748 127.373 79.7882 127.354 78.3802C126.942 78.1276 126.424 77.7756 125.779 77.2897C124.781 76.536 123.664 75.3461 122.673 74.2939Z" fill="#FFBEA5"/>
<path d="M117.879 72.2158L117.385 74.8476L118.029 76.7989C118.879 78.2682 120.175 80.384 120.823 80.912C120.972 81.0344 121.12 81.1262 121.257 81.1913L121.738 81.3022C121.852 81.2984 121.955 81.264 122.043 81.2066C122.363 80.9962 122.462 80.4682 122.298 79.8675C122.275 79.7795 122.313 79.6915 122.389 79.6455C122.355 79.592 122.317 79.5384 122.275 79.481C121.463 78.3791 119.138 74.1742 118.189 72.441C117.934 71.9781 117.879 72.2158 117.879 72.2158Z" fill="#FFBEA5"/>
<path d="M119.329 80.7487L120.332 80.9782C119.852 80.4617 119.2 79.4822 118.59 78.4951L119.329 80.7487Z" fill="#FFBEA5"/>
<path d="M136.038 83.8145L134.365 82.5251C134.316 82.6246 131.941 87.4608 129.002 89.8215C128.644 90.1084 128.278 90.361 127.908 90.5599C127.908 90.5599 128.491 91.1797 129.429 92.1592C132.955 90.1544 135.291 85.498 136.038 83.8145Z" fill="#FCF5F5"/>
<path d="M169.45 80.0508C169.45 80.0622 169.45 80.0737 169.45 80.0852C169.484 79.3276 169.503 78.4668 169.495 77.5447C169.484 76.4275 169.431 75.1343 169.29 73.8028C169.068 71.7291 168.634 69.5558 167.818 67.7958C167.773 67.6964 167.658 67.6543 167.559 67.7002C167.46 67.7461 167.418 67.8609 167.464 67.9604C168.775 70.7955 169.08 74.7363 169.107 77.5447C169.107 77.736 169.11 77.9235 169.107 78.1071C169.236 78.7002 169.351 79.3468 169.45 80.0508Z" fill="#CE654A"/>
<path d="M169.281 80.2715C169.274 80.2715 169.262 80.2715 169.254 80.2715C169.159 80.2715 169.075 80.1988 169.06 80.1031C169.06 80.0955 169.06 80.0916 169.056 80.084C168.98 81.8325 168.839 83.0148 168.839 83.0301C168.828 83.1372 168.904 83.2367 169.011 83.2481C169.018 83.2481 169.026 83.2481 169.033 83.2481C169.129 83.2481 169.216 83.1755 169.228 83.076C169.228 83.0607 169.342 82.1195 169.422 80.6694C169.434 80.4857 169.441 80.2906 169.449 80.0916C169.441 80.1835 169.373 80.26 169.281 80.2715Z" fill="#CE654A"/>
<path d="M169.254 80.2745C169.261 80.2745 169.273 80.2745 169.28 80.2745C169.372 80.263 169.44 80.1865 169.448 80.0985C169.448 80.0946 169.448 80.0908 169.448 80.087C169.448 80.0755 169.448 80.064 169.448 80.0526C169.349 79.3486 169.235 78.702 169.105 78.1089C168.625 75.8898 167.965 74.4091 167.443 73.5023C166.719 72.2397 166.098 71.7768 166.075 71.7576C165.987 71.6926 165.865 71.7117 165.804 71.7997C165.739 71.8877 165.758 72.0101 165.846 72.0714C165.854 72.0752 166.441 72.5228 167.127 73.7281C167.759 74.8414 168.613 76.8501 169.063 80.087C169.063 80.0946 169.063 80.0985 169.067 80.1061C169.075 80.2018 169.158 80.2745 169.254 80.2745Z" fill="#CE654A"/>
<path d="M119.776 73.4269C119.909 74.0429 120.119 74.6015 120.13 74.6245C120.13 74.6245 120.13 74.6283 120.134 74.6283C120.847 76.3309 121.754 77.8575 122.619 79.1125C124.121 81.2857 125.497 82.6401 125.52 82.6631C125.558 82.7013 125.608 82.7166 125.657 82.7166C125.707 82.7166 125.76 82.6975 125.798 82.6554C125.875 82.5789 125.871 82.4526 125.795 82.3799C125.776 82.3608 124.823 81.4234 123.641 79.8585C122.604 78.4812 121.396 76.6217 120.496 74.4791C120.176 73.6373 119.867 72.2982 120.226 72.084C120.233 72.0801 120.39 72.0342 121.049 72.6311C121.506 73.0481 122.074 73.6526 122.677 74.2916C123.664 75.3399 124.784 76.5337 125.779 77.2836C126.423 77.7733 126.942 78.1215 127.354 78.374C128.352 78.99 128.722 79.0245 128.775 79.0245L128.787 78.6342C128.787 78.6342 128.791 78.6342 128.794 78.6342C128.791 78.6342 128.413 78.5883 127.342 77.9034C126.984 77.6739 126.545 77.3678 126.016 76.9699C125.189 76.3462 124.262 75.3973 123.401 74.4867C123.252 74.3299 123.104 74.173 122.959 74.0199C121.495 72.4666 120.695 71.6401 120.191 71.6899C120.13 71.6937 120.073 71.7128 120.02 71.7434C119.662 71.9653 119.582 72.5125 119.776 73.4269Z" fill="#D29077"/>
<path d="M122.298 79.8683C122.466 80.4728 122.367 80.997 122.043 81.2074C121.952 81.2648 121.849 81.2992 121.738 81.3031C121.593 81.3107 121.429 81.2724 121.258 81.1921C121.117 81.1271 120.972 81.0314 120.823 80.9128C120.172 80.3848 118.879 78.2651 118.029 76.7998C117.553 75.9772 117.214 75.3573 117.202 75.342C117.149 75.2464 117.031 75.2119 116.939 75.2655C116.844 75.3191 116.81 75.4377 116.863 75.5295C116.92 75.6366 117.713 77.0791 118.59 78.4985C119.2 79.4857 119.851 80.4613 120.332 80.9817C120.419 81.0773 120.503 81.1577 120.579 81.2189C120.9 81.4791 121.224 81.6359 121.521 81.6857C121.54 81.6053 121.609 81.5403 121.692 81.5364C121.792 81.5288 121.875 81.5938 121.898 81.6857C122.028 81.6627 122.15 81.613 122.264 81.5403C122.737 81.2304 122.897 80.5493 122.68 79.7688C122.649 79.6655 122.542 79.6043 122.44 79.6311C122.424 79.6349 122.409 79.6425 122.394 79.6502C122.314 79.6923 122.276 79.7803 122.298 79.8683Z" fill="#D29077"/>
<path d="M121.689 81.5337C121.602 81.5414 121.533 81.6026 121.518 81.6829C121.514 81.7021 121.51 81.7212 121.514 81.7403C121.526 81.8742 121.503 82.2492 121.282 82.3908C121.064 82.5323 120.664 82.452 120.127 82.1536C118.389 81.1932 116.391 77.7115 116.372 77.677C116.319 77.5814 116.201 77.5508 116.105 77.6043C116.01 77.6579 115.98 77.7765 116.033 77.8722C116.117 78.0176 118.103 81.484 119.94 82.4979C120.363 82.7313 120.729 82.8499 121.026 82.8499C121.205 82.8499 121.365 82.8078 121.495 82.7198C121.956 82.4214 121.903 81.7403 121.903 81.7097C121.903 81.6982 121.899 81.6906 121.899 81.6829C121.872 81.5911 121.789 81.5223 121.689 81.5337Z" fill="#D29077"/>
<path d="M147.448 92.6211C147.398 92.5255 147.28 92.4872 147.185 92.537C147.089 92.5867 147.051 92.7053 147.101 92.801C147.112 92.8278 148.427 95.4104 149.209 98.0924C149.235 98.1766 149.312 98.234 149.395 98.234C149.415 98.234 149.434 98.2302 149.449 98.2264C149.552 98.1957 149.613 98.0886 149.582 97.9853C148.793 95.2688 147.463 92.6479 147.448 92.6211Z" fill="#CE654A"/>
<path d="M183.389 60.2296C183.389 60.1224 183.301 60.0344 183.194 60.0344C183.088 60.0344 183 60.1224 183 60.2296V120.322V126.723C183 126.83 183.088 126.918 183.194 126.918C183.301 126.918 183.389 126.83 183.389 126.723V120.322V60.2296Z" fill="#CE654A"/>
<path d="M192.38 62.6099C192.392 62.6099 192.403 62.6099 192.415 62.6138C192.407 62.6099 192.395 62.6099 192.38 62.6099Z" fill="#EFE1D5"/>
<path d="M192.428 62.6169C192.436 62.6211 192.444 62.6211 192.453 62.6253C192.444 62.6211 192.436 62.6169 192.428 62.6169Z" fill="#EFE1D5"/>
<path d="M192.311 62.6207C192.319 62.6165 192.327 62.6165 192.336 62.6123C192.327 62.6165 192.319 62.6207 192.311 62.6207Z" fill="#EFE1D5"/>
<path d="M192.574 62.8043V63.2136L201.49 70.4794C201.524 70.51 201.57 70.5215 201.612 70.5215C201.669 70.5215 201.726 70.4985 201.764 70.4488C201.833 70.3646 201.818 70.2422 201.738 70.1733L192.506 62.6474C192.502 62.6436 192.502 62.6436 192.498 62.6436C192.544 62.6818 192.574 62.7392 192.574 62.8043Z" fill="#EFE1D5"/>
<path d="M192.347 62.6138C192.359 62.6099 192.37 62.6099 192.378 62.6099C192.366 62.6099 192.359 62.6099 192.347 62.6138Z" fill="#EFE1D5"/>
<path d="M192.281 62.6394C192.29 62.6351 192.294 62.6309 192.302 62.6267C192.294 62.6309 192.285 62.6351 192.281 62.6394Z" fill="#EFE1D5"/>
<path d="M185.495 68.228C185.499 68.2357 185.503 68.2395 185.507 68.2471C185.572 68.3313 185.697 68.3466 185.781 68.2777L192.185 63.2044V62.8026C192.185 62.7376 192.215 62.6802 192.265 62.6458C192.261 62.6458 192.261 62.6496 192.257 62.6496L188.068 65.9668L185.537 67.9717C185.461 68.0329 185.446 68.1438 185.495 68.228Z" fill="#EFE1D5"/>
<path d="M192.186 62.8039V63.2057V99.0828C192.186 99.1899 192.273 99.278 192.38 99.278C192.487 99.278 192.574 99.1899 192.574 99.0828V63.2133V62.8039C192.574 62.7389 192.544 62.6815 192.494 62.6471C192.49 62.6432 192.487 62.6394 192.483 62.6394C192.475 62.6356 192.471 62.6318 192.464 62.6279C192.46 62.6241 192.456 62.6241 192.452 62.6203C192.445 62.6165 192.437 62.6165 192.429 62.6126C192.426 62.6126 192.422 62.6088 192.418 62.6088C192.407 62.605 192.395 62.605 192.384 62.605H192.38C192.369 62.605 192.357 62.605 192.349 62.6088C192.346 62.6088 192.342 62.6126 192.338 62.6126C192.33 62.6126 192.323 62.6165 192.315 62.6203C192.311 62.6203 192.308 62.6241 192.3 62.6279C192.292 62.6318 192.288 62.6356 192.281 62.6394C192.277 62.6432 192.273 62.6432 192.269 62.6471C192.216 62.6815 192.186 62.7389 192.186 62.8039Z" fill="#EFE1D5"/>
<path d="M187.214 49.9016C187.214 49.9055 187.21 49.9131 187.206 49.9169C187.18 50.0202 187.241 50.1274 187.344 50.158C187.386 50.1695 188.072 50.3493 189.128 50.3493C189.673 50.3493 190.321 50.2995 191.026 50.1542C192.242 49.9055 193.385 49.4157 194.426 48.7041C195.722 47.8164 196.858 46.5768 197.799 45.0196C197.856 44.9277 197.826 44.8053 197.734 44.7517C197.643 44.6943 197.521 44.725 197.467 44.8168C195.409 48.222 192.798 49.3889 190.969 49.7715C190.119 49.9475 189.356 49.9782 188.758 49.9514C187.961 49.9169 187.458 49.7869 187.447 49.783C187.347 49.7524 187.248 49.806 187.214 49.9016Z" fill="#C3836A"/>
<path d="M200.546 32.7891C200.443 32.8198 200.382 32.9269 200.412 33.0302C200.797 34.3999 200.409 39.1711 200.405 39.2208C200.397 39.3279 200.477 39.4236 200.584 39.4312C200.588 39.4312 200.595 39.4312 200.599 39.4312C200.698 39.4312 200.786 39.3547 200.794 39.2514C200.809 39.0524 201.19 34.3617 200.786 32.9231C200.755 32.8198 200.649 32.7585 200.546 32.7891Z" fill="#C3836A"/>
<path d="M194.596 33.8369C194.988 33.8369 195.308 33.2745 195.308 32.5781C195.308 31.8818 194.988 31.3193 194.596 31.3193C194.203 31.3193 193.883 31.8818 193.883 32.5781C193.883 33.2745 194.203 33.8369 194.596 33.8369Z" fill="#1F212B"/>
<path d="M183.604 33.8369C183.998 33.8369 184.317 33.2733 184.317 32.5781C184.317 31.8829 183.998 31.3193 183.604 31.3193C183.211 31.3193 182.892 31.8829 182.892 32.5781C182.892 33.2733 183.211 33.8369 183.604 33.8369Z" fill="#1F212B"/>
<path d="M192.215 41.332C192.127 41.2708 192.005 41.2937 191.944 41.3817C191.231 42.4224 190.423 43.0308 189.539 43.1876C188.407 43.3866 187.526 42.7668 187.511 42.7553C187.423 42.6902 187.302 42.7132 187.241 42.7974C187.176 42.8854 187.199 43.0078 187.282 43.069C187.317 43.0958 188.049 43.6161 189.078 43.6161C189.245 43.6161 189.417 43.6008 189.6 43.5702C190.595 43.3981 191.494 42.7362 192.268 41.5998C192.325 41.5118 192.302 41.3894 192.215 41.332Z" fill="#C3836A"/>
<path d="M186.033 26.9093C184.581 25.7883 183.27 25.8533 182.427 26.1058C181.52 26.3775 180.952 26.9246 180.929 26.9476C180.723 27.1503 180.72 27.4794 180.922 27.686C181.025 27.7893 181.158 27.8429 181.295 27.8429C181.425 27.8429 181.554 27.7931 181.657 27.6937C181.726 27.6286 183.327 26.1326 185.4 27.7319C185.629 27.9079 185.953 27.8658 186.128 27.6363C186.304 27.4105 186.262 27.0815 186.033 26.9093Z" fill="#27282D"/>
<path d="M195.758 27.7357C195.986 27.9117 196.31 27.8696 196.486 27.6401C196.661 27.4105 196.619 27.0853 196.39 26.9093C194.938 25.7883 193.627 25.8533 192.785 26.1058C192.617 26.1556 192.464 26.2168 192.32 26.278C191.687 26.5611 191.306 26.9284 191.287 26.9476C191.081 27.1503 191.077 27.4794 191.279 27.686C191.382 27.7893 191.515 27.8429 191.653 27.8429C191.782 27.8429 191.912 27.7931 192.015 27.6937C192.041 27.6669 192.297 27.4297 192.72 27.2383C193.391 26.9361 194.485 26.7524 195.758 27.7357Z" fill="#27282D"/>
<path d="M188.53 39.4318C188.632 39.4318 188.72 39.3477 188.724 39.2443C188.728 39.1372 188.644 39.0454 188.537 39.0416C187.817 39.0148 187.382 38.8617 187.211 38.5748C187.016 38.2496 187.119 37.6833 187.523 36.8377C189.048 33.6506 187.821 30.628 187.222 29.4764C187.173 29.3807 187.054 29.3425 186.959 29.3922C186.864 29.4419 186.826 29.5605 186.875 29.6562C187.447 30.7581 188.617 33.643 187.169 36.6694C186.696 37.6565 186.605 38.3261 186.875 38.7776C187.123 39.1908 187.645 39.3974 188.518 39.4318C188.526 39.4318 188.53 39.4318 188.53 39.4318Z" fill="#C3836A"/>
</g>
<path d="M105.598 35.8405C105.385 35.8405 105.205 35.7668 105.058 35.6193C104.91 35.4718 104.836 35.2916 104.836 35.0786C104.836 34.8655 104.91 34.6853 105.058 34.5378C105.205 34.374 105.385 34.292 105.598 34.292H107.663L107.86 21.9779L106.09 23.8705C105.942 24.0343 105.754 24.1163 105.525 24.1163C105.312 24.1163 105.131 24.0425 104.984 23.8951C104.836 23.7312 104.763 23.5428 104.763 23.3297C104.763 23.1331 104.836 22.961 104.984 22.8136L108.081 19.4462C108.146 19.3807 108.228 19.3233 108.327 19.2742C108.441 19.225 108.54 19.2004 108.622 19.2004C108.851 19.2004 109.039 19.2824 109.187 19.4462C109.334 19.5937 109.408 19.774 109.408 19.987L109.212 34.292H110.834C111.08 34.292 111.276 34.374 111.424 34.5378C111.571 34.6853 111.645 34.8655 111.645 35.0786C111.645 35.2916 111.563 35.4718 111.399 35.6193C111.252 35.7668 111.08 35.8405 110.883 35.8405H105.598Z" fill="#F37E60"/>
<path d="M97.7486 33.9231C97.5356 33.9231 97.3553 33.8576 97.2079 33.7265C97.0604 33.579 96.9866 33.3988 96.9866 33.1857V30.5558H94.3567C94.1437 30.5558 93.9634 30.4902 93.8159 30.3591C93.6685 30.2117 93.5947 30.0314 93.5947 29.8184C93.5947 29.6054 93.6685 29.4333 93.8159 29.3022C93.9634 29.1548 94.1437 29.081 94.3567 29.081H96.9866V26.6968C96.9866 26.4838 97.0604 26.3118 97.2079 26.1807C97.3553 26.0332 97.5356 25.9595 97.7486 25.9595C97.9616 25.9595 98.1337 26.0332 98.2648 26.1807C98.4122 26.3118 98.486 26.4838 98.486 26.6968V29.081H101.165C101.362 29.081 101.534 29.1548 101.681 29.3022C101.829 29.4333 101.902 29.6054 101.902 29.8184C101.902 30.0314 101.829 30.2117 101.681 30.3591C101.534 30.4902 101.362 30.5558 101.165 30.5558H98.486V33.1857C98.486 33.3988 98.4122 33.579 98.2648 33.7265C98.1337 33.8576 97.9616 33.9231 97.7486 33.9231Z" fill="#F37E60"/>
<path d="M84.9314 35.8405C84.7184 35.8405 84.5381 35.7668 84.3907 35.6193C84.2432 35.4718 84.1694 35.2916 84.1694 35.0786C84.1694 34.8655 84.2432 34.6853 84.3907 34.5378C84.5381 34.374 84.7184 34.292 84.9314 34.292H86.996L87.1927 21.9779L85.423 23.8705C85.2755 24.0343 85.0871 24.1163 84.8577 24.1163C84.6446 24.1163 84.4644 24.0425 84.3169 23.8951C84.1694 23.7312 84.0957 23.5428 84.0957 23.3297C84.0957 23.1331 84.1694 22.961 84.3169 22.8136L87.4139 19.4462C87.4794 19.3807 87.5614 19.3233 87.6597 19.2742C87.7744 19.225 87.8727 19.2004 87.9546 19.2004C88.184 19.2004 88.3725 19.2824 88.5199 19.4462C88.6674 19.5937 88.7412 19.774 88.7412 19.987L88.5445 34.292H90.1668C90.4125 34.292 90.6092 34.374 90.7567 34.5378C90.9041 34.6853 90.9779 34.8655 90.9779 35.0786C90.9779 35.2916 90.8959 35.4718 90.7321 35.6193C90.5846 35.7668 90.4125 35.8405 90.2159 35.8405H84.9314Z" fill="#F37E60"/>
<path d="M104.246 60.2967C104.246 58.9859 104.443 57.8716 104.836 56.954C105.245 56.0364 105.77 55.2744 106.409 54.6681C107.048 54.0454 107.851 53.4228 108.818 52.8001C109.686 52.2594 110.333 51.8251 110.759 51.4974C111.202 51.1697 111.571 50.7682 111.865 50.293C112.177 49.8178 112.332 49.2689 112.332 48.6462C112.332 47.8925 112.029 47.2616 111.423 46.7536C110.833 46.2457 110.104 45.9917 109.236 45.9917C108.4 45.9917 107.671 46.1965 107.048 46.6062C106.425 47.0158 105.966 47.3927 105.672 47.7368C105.508 47.917 105.377 48.0481 105.278 48.1301C105.196 48.1956 105.073 48.2284 104.91 48.2284C104.68 48.2284 104.492 48.1465 104.344 47.9826C104.197 47.8187 104.123 47.6385 104.123 47.4418C104.123 47.2944 104.172 47.1469 104.271 46.9994C104.369 46.8519 104.557 46.6553 104.836 46.4095C106.163 45.115 107.63 44.4678 109.236 44.4678C110.12 44.4678 110.915 44.6562 111.62 45.0331C112.324 45.3936 112.873 45.8934 113.266 46.5324C113.676 47.1715 113.881 47.8761 113.881 48.6462C113.881 49.5311 113.693 50.293 113.316 50.9321C112.955 51.5548 112.513 52.0791 111.988 52.5052C111.464 52.9148 110.735 53.4228 109.801 54.0291C108.998 54.5534 108.334 55.045 107.81 55.5038C107.286 55.9462 106.835 56.5034 106.458 57.1752C106.081 57.8306 105.868 58.609 105.819 59.5102H113.316C113.529 59.5102 113.709 59.5921 113.856 59.756C114.02 59.9035 114.102 60.0837 114.102 60.2967C114.102 60.4934 114.02 60.6654 113.856 60.8129C113.709 60.9604 113.529 61.0341 113.316 61.0341H104.246V60.2967Z" fill="#F37E60"/>
<path d="M97.1832 59.117C96.9702 59.117 96.7899 59.0514 96.6424 58.9203C96.495 58.7729 96.4212 58.5926 96.4212 58.3796V55.7496H93.7913C93.5782 55.7496 93.398 55.6841 93.2505 55.553C93.103 55.4055 93.0293 55.2253 93.0293 55.0122C93.0293 54.7992 93.103 54.6272 93.2505 54.4961C93.398 54.3486 93.5782 54.2749 93.7913 54.2749H96.4212V51.8907C96.4212 51.6777 96.495 51.5056 96.6424 51.3745C96.7899 51.2271 96.9702 51.1533 97.1832 51.1533C97.3962 51.1533 97.5682 51.2271 97.6993 51.3745C97.8468 51.5056 97.9205 51.6777 97.9205 51.8907V54.2749H100.6C100.796 54.2749 100.968 54.3486 101.116 54.4961C101.263 54.6272 101.337 54.7992 101.337 55.0122C101.337 55.2253 101.263 55.4055 101.116 55.553C100.968 55.6841 100.796 55.7496 100.6 55.7496H97.9205V58.3796C97.9205 58.5926 97.8468 58.7729 97.6993 58.9203C97.5682 59.0514 97.3962 59.117 97.1832 59.117Z" fill="#F37E60"/>
<path d="M80.4588 60.2967C80.4588 58.9859 80.6555 57.8716 81.0487 56.954C81.4584 56.0364 81.9827 55.2744 82.6218 54.6681C83.2609 54.0454 84.0638 53.4228 85.0306 52.8001C85.899 52.2594 86.5463 51.8251 86.9723 51.4974C87.4147 51.1697 87.7834 50.7682 88.0784 50.293C88.3897 49.8178 88.5454 49.2689 88.5454 48.6462C88.5454 47.8925 88.2422 47.2616 87.6359 46.7536C87.046 46.2457 86.3169 45.9917 85.4484 45.9917C84.6127 45.9917 83.8835 46.1965 83.2609 46.6062C82.6382 47.0158 82.1794 47.3927 81.8844 47.7368C81.7206 47.917 81.5895 48.0481 81.4912 48.1301C81.4092 48.1956 81.2863 48.2284 81.1225 48.2284C80.8931 48.2284 80.7046 48.1465 80.5571 47.9826C80.4097 47.8187 80.3359 47.6385 80.3359 47.4418C80.3359 47.2944 80.3851 47.1469 80.4834 46.9994C80.5817 46.8519 80.7702 46.6553 81.0487 46.4095C82.376 45.115 83.8426 44.4678 85.4484 44.4678C86.3332 44.4678 87.128 44.6562 87.8326 45.0331C88.5372 45.3936 89.0861 45.8934 89.4794 46.5324C89.889 47.1715 90.0939 47.8761 90.0939 48.6462C90.0939 49.5311 89.9054 50.293 89.5285 50.9321C89.168 51.5548 88.7256 52.0791 88.2013 52.5052C87.6769 52.9148 86.9477 53.4228 86.0137 54.0291C85.2108 54.5534 84.5472 55.045 84.0228 55.5038C83.4985 55.9462 83.0478 56.5034 82.671 57.1752C82.2941 57.8306 82.0811 58.609 82.0319 59.5102H89.5285C89.7416 59.5102 89.9218 59.5921 90.0693 59.756C90.2331 59.9035 90.3151 60.0837 90.3151 60.2967C90.3151 60.4934 90.2331 60.6654 90.0693 60.8129C89.9218 60.9604 89.7416 61.0341 89.5285 61.0341H80.4588V60.2967Z" fill="#F37E60"/>
</g>
<path d="M41.621 164.221C43.9274 161.055 48.902 155.764 51.6606 152.9C52.8364 151.664 55.1428 150.91 57.6451 150.91C62.5292 150.925 70.6242 150.97 74.8903 151.001C128.887 151.528 182.778 150.443 236.759 150.955C246.196 151.046 266.471 151.453 276.48 151.664C279.932 151.739 282.857 153.096 283.611 154.98C286.761 162.864 294.69 183.305 296.409 192.727C296.499 193.209 296.409 197.249 285.058 197.535C233.624 198.862 189.908 198.771 138.414 199.239C120.762 199.39 103.094 199.555 85.4423 199.495C76.5334 199.465 67.6093 199.39 58.7003 199.239C48.2839 199.058 37.5811 199.48 27.3154 197.822C26.3808 197.671 25.4311 197.505 24.6322 197.068C18.9039 193.963 28.6721 182.461 30.7373 179.341C34.1592 174.2 37.9579 169.241 41.621 164.221Z" fill="#7994B9"/>
<path d="M191.368 194.937C180.982 194.937 171.229 194.907 162.335 194.877C148.451 194.816 134.779 194.741 121.951 194.666C116.69 194.636 111.338 194.575 106.153 194.515L102.052 194.47C99.6104 194.44 97.108 194.5 94.6961 194.56C91.4852 194.636 88.1839 194.711 84.8676 194.59C74.3155 194.213 63.5976 194.213 53.5128 194.259C51.2969 194.274 48.9905 194.349 46.7444 194.424C39.0564 194.696 31.1122 194.982 23.9669 192.6C23.7861 192.54 23.6956 192.359 23.7559 192.178C23.8162 191.997 23.9971 191.907 24.178 191.967C31.2027 194.319 39.0866 194.033 46.7142 193.761C48.9603 193.686 51.2818 193.595 53.4977 193.595C63.5825 193.55 74.3155 193.535 84.8826 193.927C88.1689 194.048 91.4702 193.972 94.6659 193.897C97.0778 193.837 99.5802 193.776 102.052 193.806L106.153 193.852C111.323 193.912 116.69 193.972 121.951 194.002C134.779 194.078 148.467 194.168 162.335 194.213C191.007 194.319 228.813 194.364 266.982 193.656C268.187 193.641 269.484 193.626 270.826 193.61C279.523 193.52 290.347 193.414 293.995 190.58C294.146 190.475 294.342 190.49 294.462 190.641C294.568 190.792 294.553 190.987 294.402 191.108C290.573 194.093 279.629 194.198 270.826 194.289C269.484 194.304 268.187 194.319 266.982 194.334C240.647 194.816 214.477 194.937 191.368 194.937Z" fill="#496B99"/>
<path d="M246.556 180.726C248.395 182.957 250.385 185.218 253.053 186.334C255.917 187.54 259.369 187.223 261.962 185.52C263.183 184.721 264.239 183.59 264.751 182.218C265.475 180.259 264.992 178.013 263.937 176.219C262.882 174.41 261.314 172.978 259.716 171.636C254.259 166.993 248.23 162.848 243.903 157.135C243.617 156.758 243.33 156.366 242.923 156.125C241.778 155.431 240.331 156.23 239.23 156.999C237.677 158.084 236.034 159.29 235.461 161.099C233.291 167.762 242.848 176.219 246.556 180.726Z" fill="#FFE6D8"/>
<path d="M238.657 158.884C238.973 159.878 239.109 160.919 239.245 161.944C240.059 168.169 240.918 174.395 241.702 180.621C242.154 184.224 243.058 187.721 244.023 191.203C245.561 196.72 251.168 206.338 246.51 211.177C244.43 213.332 241.476 214.388 238.566 215.066C224.939 218.216 210.302 214.071 198.77 206.157C191.685 201.303 193.946 189.771 194.504 181.872C195.242 171.471 198.122 161.295 201.453 151.467C202.267 149.07 203.322 147.171 205.553 145.98C207.784 144.804 210.347 144.367 212.879 144.322C222.015 144.156 229.356 147.744 235.476 154.18C236.652 155.416 237.813 156.728 238.461 158.311C238.536 158.507 238.596 158.703 238.657 158.884Z" fill="#FFE6D8"/>
<path d="M227.176 89.3597C230.372 87.0231 233.522 85.4554 237.336 84.7921C240.758 84.1892 244.195 81.7169 247.798 82.4405C250.33 82.953 252.245 85.0032 253.722 87.1136C254.099 87.6563 254.461 88.214 254.687 88.8471C255.199 90.234 255.019 91.8168 254.491 93.2036C253.963 94.5905 253.104 95.8266 252.26 97.0325C250.376 99.7459 247.527 102.113 244.632 103.741C242.446 104.962 239.944 105.474 237.487 106.032C232.95 107.087 226.724 111.127 224.734 115.499C224.493 116.011 224.327 116.569 223.995 117.021C223.754 117.368 223.423 117.654 223.106 117.926C222.141 118.77 221.176 119.599 220.151 120.383C217.408 122.478 212.659 125.101 210.338 121.197C208.333 117.835 210.624 111.911 211.996 108.685C215.222 101.057 220.483 94.2739 227.176 89.3597Z" fill="#FFE6D8"/>
<path d="M267.269 125.658C265.384 124.859 263.53 123.894 261.661 123.08C256.174 120.668 249.24 122.04 245.079 126.366C244.853 126.608 244.612 126.864 244.28 126.939C243.738 127.06 243.24 126.653 242.848 126.261C241.778 125.206 240.708 124.166 239.637 123.11C238.522 122.01 237.346 120.789 237.18 119.221C236.999 117.397 238.281 115.799 239.472 114.412C241.416 112.166 243.255 110.282 245.848 108.82C248.411 107.358 251.034 105.986 253.566 104.463C255.481 103.318 257.395 102.157 259.46 101.298C270.329 96.8055 286.775 102.202 286.021 116.04C285.735 121.271 282.313 125.733 277.188 127.03C273.66 127.919 270.419 127.015 267.269 125.658Z" fill="#FFE6D8"/>
<path d="M198.745 128.114C192.188 135.727 193.981 144.38 202.212 149.837C204.066 151.073 223.723 163.358 225.216 159.936C227.477 160.072 229.753 159.846 231.999 159.59C239.461 158.761 247.149 156.71 250.33 149.083C251.535 146.189 251.43 142.887 250.631 139.857C249.576 135.787 247.526 131.581 245.415 127.964C243.938 125.416 242.129 123.215 240.411 120.848C240.245 120.622 240.079 120.396 240.019 120.125C239.943 119.838 239.973 119.522 239.883 119.236C239.687 118.602 238.948 118.301 238.285 118.18C237.23 117.999 236.265 118.226 235.24 118.346C235.617 117.457 237.35 115.964 236.747 114.864C236.551 114.502 236.114 114.382 235.722 114.321C232.135 113.658 228.336 114.261 225.125 115.979C225.623 115.422 225.939 114.698 226.014 113.959C224.266 114.336 222.517 114.728 220.769 115.105C218.854 115.527 216.94 115.934 214.98 116.115C213.744 116.221 212.493 116.236 211.302 116.567C208.724 117.291 206.674 119.507 204.684 121.165C202.483 123.004 200.629 125.913 198.745 128.114Z" fill="#FFE6D8"/>
<path d="M227.61 159.891C226.133 159.891 224.686 159.801 223.284 159.635C216.636 158.851 210.666 156.123 206.476 151.947C206.34 151.811 206.34 151.6 206.476 151.48C206.611 151.344 206.822 151.344 206.943 151.48C211.043 155.55 216.877 158.203 223.374 158.987C228.906 159.65 235.042 158.987 241.614 157.012C241.795 156.952 241.976 157.057 242.021 157.238C242.066 157.419 241.976 157.6 241.795 157.645C236.805 159.153 232.042 159.891 227.61 159.891Z" fill="#E8C2AD"/>
<path d="M192.019 150.816C194.837 152.549 198.38 153.514 201.123 155.052C202.676 155.926 204.274 157.147 204.545 158.911C204.847 160.84 203.46 162.619 201.953 163.87C199.842 165.604 197.234 166.855 194.506 166.855C191.566 166.87 188.823 165.468 186.351 163.885C178.934 159.137 171.623 151.781 168.668 143.339C167.266 139.329 165.729 131.099 170.206 128.234C170.884 127.797 171.683 127.571 172.497 127.496C177.411 126.983 181.542 131.279 183.652 135.742C185.567 139.797 186.366 145.284 189.411 148.69C190.149 149.52 191.039 150.213 192.019 150.816Z" fill="#FFE6D8"/>
<path d="M216.952 118.316C216.816 118.316 216.696 118.241 216.635 118.105C215.429 114.924 218.324 111.804 219.605 110.598C221.248 109.091 223.087 107.749 224.821 106.528C227.474 104.674 230.217 102.88 232.991 101.176C235.418 99.3977 237.89 97.5435 240.302 95.6894C240.453 95.5839 240.664 95.5989 240.77 95.7497C240.875 95.9004 240.86 96.1115 240.709 96.217C238.282 98.0711 235.81 99.9404 233.353 101.734C230.579 103.438 227.851 105.231 225.198 107.071C223.479 108.277 221.655 109.588 220.057 111.08C218.866 112.181 216.198 115.06 217.253 117.864C217.314 118.03 217.238 118.226 217.057 118.286C217.042 118.301 216.997 118.316 216.952 118.316Z" fill="#E8C2AD"/>
<path d="M242.428 123.835C242.368 123.835 242.322 123.82 242.262 123.789C242.096 123.699 242.051 123.488 242.141 123.337C243.754 120.488 246.498 118.348 249.649 117.443C252.015 116.765 254.472 116.81 256.854 116.825C260.532 116.87 264.346 116.931 267.994 117.91L268.311 118.001C270.12 118.498 272.17 119.056 273.511 117.925C273.647 117.805 273.858 117.82 273.979 117.971C274.099 118.106 274.084 118.317 273.933 118.438C272.336 119.78 270.105 119.177 268.13 118.649L267.828 118.559C264.256 117.594 260.487 117.549 256.839 117.503C254.503 117.473 252.091 117.443 249.829 118.091C246.845 118.935 244.252 120.971 242.729 123.669C242.654 123.774 242.533 123.835 242.428 123.835Z" fill="#E8C2AD"/>
<path d="M228.423 121.392C228.243 121.392 228.092 121.242 228.092 121.061C228.092 120.88 228.243 120.729 228.423 120.729C230.609 120.729 232.765 119.418 233.775 117.488C233.865 117.322 234.061 117.262 234.227 117.352C234.393 117.443 234.453 117.639 234.363 117.805C233.232 119.945 230.85 121.392 228.423 121.392Z" fill="#E8C2AD"/>
<path d="M226.135 119.399C226.044 119.399 225.954 119.369 225.893 119.293C225.773 119.158 225.773 118.947 225.908 118.826C227.25 117.53 228.908 116.565 230.687 116.052C230.868 116.007 231.049 116.098 231.094 116.278C231.139 116.459 231.049 116.64 230.868 116.685C229.18 117.168 227.627 118.072 226.361 119.293C226.3 119.369 226.21 119.399 226.135 119.399Z" fill="#E8C2AD"/>
<path d="M221.971 119.521C221.835 119.521 221.7 119.43 221.654 119.295C221.594 119.129 221.685 118.933 221.85 118.873C223.222 118.39 224.413 117.365 225.122 116.084C225.212 115.918 225.408 115.858 225.574 115.948C225.74 116.039 225.8 116.235 225.709 116.4C224.941 117.833 223.614 118.963 222.077 119.506C222.046 119.521 222.001 119.521 221.971 119.521Z" fill="#E8C2AD"/>
<path d="M210.274 120.213C210.198 120.213 210.138 120.198 210.078 120.153C209.294 119.55 208.902 118.464 209.128 117.5C209.173 117.319 209.354 117.213 209.535 117.258C209.716 117.304 209.821 117.485 209.776 117.665C209.61 118.389 209.897 119.188 210.485 119.64C210.635 119.746 210.666 119.957 210.545 120.108C210.47 120.168 210.379 120.213 210.274 120.213Z" fill="#E8C2AD"/>
<path d="M138.01 188.391C134.618 187.743 131.317 186.718 127.97 185.874C125.649 185.286 121.473 185.467 120.493 182.798C120.116 181.758 120.162 180.628 120.222 179.512C120.554 174.342 121.337 168.945 124.473 164.815C125.272 163.759 126.312 162.765 127.623 162.554C129.598 162.237 131.874 163.759 133.503 164.724C135.507 165.9 137.467 167.151 139.306 168.568C141.537 170.302 143.256 169.623 145.894 168.84C151.682 167.106 157.456 165.387 163.244 163.654C165.822 162.885 168.535 162.523 171.008 161.393C174.249 159.9 174.701 157.594 174.128 154.202C173.842 152.499 173.631 151.429 174.686 150.057C175.756 148.67 176.781 147.268 177.655 145.746C177.851 145.399 178.062 145.037 178.379 144.781C178.696 144.54 179.178 144.434 179.51 144.66C180.309 145.203 180.309 146.454 180.128 147.253C179.886 148.384 179.615 149.288 179.781 150.494C179.841 150.946 179.947 151.414 180.278 151.73C182.027 153.418 183.942 149.77 184.65 148.685C185.946 146.695 186.971 144.464 188.78 142.866C189.293 142.414 190.077 142.007 190.635 142.429C191.072 142.761 191.072 143.394 191.026 143.937C190.8 146.198 189.79 148.127 189.474 150.358C190.439 149.424 191.418 148.489 192.383 147.554C192.866 147.102 193.529 146.605 194.117 146.921C194.569 147.163 194.674 147.781 194.659 148.293C194.614 149.77 194.041 151.233 193.062 152.348C192.489 153.011 191.72 153.645 191.675 154.519C192.685 154.459 193.695 154.383 194.705 154.323C194.886 154.308 195.081 154.308 195.232 154.413C195.443 154.564 195.473 154.881 195.428 155.137C195.112 156.991 192.926 157.956 192.278 159.72C192.926 159.629 193.574 159.539 194.237 159.448C194.494 159.418 194.81 159.388 194.991 159.584C195.097 159.704 195.127 159.87 195.127 160.036C195.112 162.237 191.313 164.347 189.73 165.508C187.198 167.362 184.258 168.553 181.635 170.272C176.434 173.663 172.078 178.11 166.651 181.201C162.837 183.371 158.662 184.833 154.441 186.024C148.652 187.652 144.13 189.567 138.01 188.391Z" fill="#F6A383"/>
<path d="M186.957 154.39C186.866 154.39 186.761 154.345 186.701 154.269C186.58 154.134 186.595 153.923 186.746 153.802C187.545 153.139 188.102 152.31 188.675 151.45L188.766 151.315C188.871 151.164 189.067 151.119 189.233 151.224C189.384 151.33 189.429 151.526 189.323 151.692L189.233 151.827C188.63 152.732 188.057 153.591 187.183 154.315C187.108 154.375 187.032 154.39 186.957 154.39Z" fill="#D67E63"/>
<path d="M188.876 157.116C188.83 157.116 188.8 157.116 188.755 157.101C188.589 157.041 188.469 156.875 188.484 156.694C188.499 156.558 188.574 156.438 188.71 156.362L188.845 156.272C189.705 155.714 190.278 155.352 190.881 154.523C190.986 154.373 191.197 154.342 191.348 154.448C191.499 154.553 191.529 154.765 191.423 154.915C190.745 155.835 190.097 156.257 189.207 156.83C189.207 156.875 189.192 156.905 189.162 156.95C189.117 157.056 188.996 157.116 188.876 157.116Z" fill="#D67E63"/>
<path d="M190.709 161.59C190.664 161.59 190.634 161.59 190.589 161.56C190.423 161.499 190.332 161.303 190.408 161.123C190.574 160.715 190.86 160.459 191.146 160.188C191.342 160.007 191.523 159.841 191.644 159.63C191.734 159.479 191.945 159.419 192.096 159.51C192.247 159.6 192.307 159.811 192.217 159.962C192.051 160.248 191.81 160.459 191.599 160.655C191.357 160.881 191.131 161.077 191.026 161.349C190.965 161.514 190.845 161.59 190.709 161.59Z" fill="#D67E63"/>
<path d="M46.7353 192.599C46.8559 193.85 46.479 202.623 47.3534 203.513C47.9865 202.443 49.8105 193.338 50.3079 192.192C51.3632 189.72 52.0717 187.097 52.3882 184.444C52.7349 181.549 51.2727 173.907 48.0769 177.238C45.2128 180.223 46.4037 188.981 46.7353 192.599Z" fill="#F6A383"/>
<path d="M47.2145 198.146C46.9281 201.779 45.6467 205.517 45.6467 209.15C45.6467 209.15 45.6769 214.788 45.692 220.712C45.692 220.712 109.035 216.22 109.547 215.044C110.15 213.703 112.622 208.185 111.838 205.427C110.241 199.834 112.909 192.327 113.738 186.735C113.783 186.448 113.828 186.132 114.039 185.905C114.296 185.634 114.718 185.589 115.095 185.574C117.989 185.468 120.898 185.664 123.747 186.177C124.878 178.338 127.576 170.726 131.631 163.912C131.827 163.58 132.023 163.249 132.038 162.857C132.083 161.892 130.983 161.319 130.079 160.988C122.3 158.154 115.637 153.134 107.934 150.496C103.502 148.973 98.9951 146.983 94.2466 145.792C83.6343 143.139 74.2881 145.235 63.2989 146.622C63.1632 146.637 63.0275 146.652 62.8919 146.667C60.9623 148.25 59.5001 150.239 58.3394 152.44C58.3394 152.32 58.3545 152.244 58.3545 152.244C57.9776 151.656 57.0731 152.079 56.5757 152.576C55.4602 153.691 54.7969 154.204 54.0281 155.591C53.3045 156.887 52.0534 158.937 51.4353 160.279C50.9831 161.259 50.6967 163.219 49.2947 166.309C47.8928 169.399 46.2497 172.278 45.7221 176.574C45.5563 177.856 45.5412 179.243 46.2045 180.358C46.6869 181.142 47.4557 181.7 48.1039 182.348C48.7973 183.041 49.34 183.855 49.7168 184.76C49.5962 185.423 49.4606 186.086 49.3249 186.735C48.6465 190.533 47.531 194.272 47.2145 198.146Z" fill="#ACC7EA"/>
<path d="M49.5088 182.154C49.4786 182.154 49.4485 182.154 49.4183 182.138C49.2374 182.093 49.147 181.897 49.1922 181.731L51.4986 173.697C51.7398 172.838 51.996 171.948 52.1317 171.059C52.2071 170.607 52.2523 170.124 52.2824 169.657C52.388 168.466 52.4935 167.245 53.0814 166.144C53.1718 165.979 53.3678 165.918 53.5336 166.009C53.6994 166.099 53.7597 166.295 53.6693 166.461C53.1568 167.441 53.0512 168.541 52.9457 169.717C52.9005 170.2 52.8553 170.682 52.7799 171.164C52.6292 172.099 52.3729 173.003 52.1166 173.878L49.8102 181.912C49.7952 182.063 49.6595 182.154 49.5088 182.154Z" fill="#7D9ABF"/>
<path d="M111.931 181.851C111.84 181.851 111.75 181.82 111.69 181.745C110.649 180.584 109.82 178.745 109.021 176.966C108.539 175.896 108.087 174.871 107.604 174.057C107.514 173.891 107.559 173.695 107.725 173.605C107.876 173.514 108.087 173.56 108.177 173.725C108.675 174.57 109.142 175.61 109.624 176.695C110.408 178.429 111.207 180.223 112.187 181.308C112.308 181.444 112.293 181.655 112.157 181.775C112.081 181.82 112.006 181.851 111.931 181.851Z" fill="#7D9ABF"/>
<path d="M108.363 109.402C108.272 107.367 107.986 105.347 107.488 103.357C106.523 99.5734 104.277 96.2872 102.695 95.2621C102.031 94.84 101.579 94.6591 101.097 95.2621C100.84 95.5787 100.659 96.1666 100.494 96.7092C100.087 98.0659 99.8907 99.4829 99.9208 100.9C100.041 106.915 100.041 109.568 98.2023 116.291C98.0215 116.939 96.7703 119.848 96.1975 120.165C95.6397 120.482 94.283 119.879 93.6348 119.954C90.6953 120.24 93.876 132.526 96.9662 133.31C97.4939 134.908 98.0365 136.234 98.5792 137.365C98.6847 137.832 98.7752 138.33 98.8053 138.842C98.8656 139.943 99.5741 141.691 100.026 142.701C100.268 143.244 100.524 143.802 100.524 144.39C100.524 144.571 100.509 144.766 100.569 144.947C100.659 145.158 100.855 145.294 100.976 145.475C101.097 145.671 101.127 145.912 101.127 146.138C101.127 146.696 101.021 147.269 100.81 147.781C100.418 148.776 99.6796 148.58 98.8053 149.244C99.3932 149.334 99.9058 149.424 100.388 149.485C102.092 149.696 103.554 148.354 103.569 146.636C103.569 145.912 103.689 145.158 103.72 144.088C103.735 143.395 103.795 142.686 103.81 141.993C104.157 141.963 104.503 141.887 104.85 141.752C107.805 140.561 111.513 138.707 112.629 135.692C113.201 134.139 114.257 131.365 114.106 129.722C113.111 118.944 108.589 114.452 108.363 109.402Z" fill="#F6A383"/>
<path d="M97.2349 133.116C97.1445 133.116 97.0239 133.086 96.9183 132.98C96.7827 132.859 96.7676 132.648 96.8882 132.513C96.9485 132.437 97.0389 132.407 97.1294 132.407C97.1445 132.362 97.1746 132.302 97.1897 132.256C97.3103 131.94 97.461 131.548 97.8077 131.427C98.1243 131.322 98.3806 131.035 98.4559 130.719C98.5615 130.221 98.2901 129.724 98.0037 129.181C97.9283 129.046 97.868 128.925 97.8077 128.804C97.2198 127.614 97.0691 126.181 97.3857 124.9L97.4158 124.795C97.461 124.629 97.4912 124.478 97.4912 124.342C97.4912 123.935 97.1294 123.543 96.8279 123.197C96.6018 122.955 96.24 122.609 95.8631 122.247C95.2903 121.689 94.6873 121.131 94.3708 120.709C94.2652 120.559 94.2803 120.363 94.4311 120.242C94.5818 120.137 94.7778 120.152 94.8984 120.302C95.1848 120.679 95.8028 121.252 96.3304 121.765C96.7224 122.126 97.0842 122.488 97.3254 122.744C97.7022 123.151 98.1544 123.664 98.1695 124.327C98.1695 124.553 98.1243 124.764 98.064 124.96L98.0339 125.066C97.7474 126.212 97.8831 127.463 98.4107 128.518C98.471 128.639 98.5313 128.759 98.6067 128.88C98.9232 129.468 99.285 130.146 99.1192 130.87C98.9986 131.427 98.5765 131.895 98.0339 132.06C97.9736 132.106 97.8831 132.362 97.8379 132.483C97.7324 132.769 97.6268 133.04 97.3555 133.101C97.3103 133.116 97.2651 133.116 97.2349 133.116Z" fill="#914A47"/>
<path d="M105.378 98.4269C105.303 97.6883 105.213 96.9798 105.589 96.3466C106.916 94.1458 105.8 90.2867 102.77 89.6687C102.243 89.5632 101.851 89.126 101.76 88.5984C101.58 87.4377 99.846 85.1614 99.0772 84.7846C97.5547 84.0309 95.8815 83.654 94.7358 83.7746C94.178 83.8349 93.6354 83.6088 93.3037 83.1415C92.1882 81.5888 90.0326 80.8502 88.088 81.016C86.3092 81.1667 84.6359 81.8903 83.0381 82.7345C82.4502 83.051 81.7417 82.7797 81.4854 82.1616C81.1387 81.3476 80.385 80.6693 79.5408 80.3527C78.2595 79.8854 76.8274 80.0663 75.4858 80.3678C73.2849 80.8652 70.9635 81.8601 69.4862 83.4731C68.6872 83.051 67.7074 82.9304 66.9084 83.3374C66.3507 83.6238 65.9738 84.1213 65.7176 84.6941C65.6874 84.6941 65.6573 84.6941 65.612 84.6941C64.6171 84.6791 63.6524 85.0861 62.763 85.5534C60.6073 86.699 62.2655 90.1661 59.9591 89.3521C56.492 88.1462 56.1755 91.6585 56.3111 93.0303C56.3563 93.5127 56.0247 93.9197 55.5423 93.9649C53.7183 94.0855 52.4973 95.0804 51.427 96.5728C50.402 97.9898 49.4824 99.8288 49.8593 101.532C49.9949 102.18 49.5578 102.783 48.9247 102.949C48.2463 103.13 47.6132 103.552 47.176 104.11C46.151 105.391 45.3068 107.562 45.1711 109.115C45.0355 110.637 45.8947 111.783 46.1359 113.305C46.2263 113.923 46.0002 114.557 45.5028 114.948C45.337 115.069 45.1862 115.205 45.0505 115.355C43.7843 116.742 43.5732 118.838 44.0104 120.662C44.1612 121.265 44.2365 121.792 44.2968 122.305C43.6938 122.652 43.2265 123.239 43.0758 123.918C42.9552 124.521 43.1059 125.154 43.4376 125.681C42.9401 125.636 42.3974 125.787 42.096 126.194C41.4628 127.053 41.704 128.274 42.1864 129.224C42.3371 129.525 42.518 129.827 42.714 130.098C42.8949 130.355 42.3371 132.465 42.3522 132.917C42.3673 133.746 42.7442 135.374 42.9853 136.158C43.4677 137.786 44.6285 138.495 46.1208 139.248C46.7841 139.58 47.1911 140.304 47.1157 141.042C46.9047 143.334 47.9599 144.962 49.4975 146.122C50.9597 147.223 51.9546 148.986 53.7485 148.625C54.457 148.489 55.1504 148.851 55.3765 149.529C55.8137 150.841 56.8538 151.941 58.1502 152.393C59.1903 152.74 60.336 152.65 61.346 152.212C61.557 152.604 61.8284 152.966 62.1901 153.237C62.763 153.66 63.6674 153.388 64.6322 152.83C66.9235 154.986 70.4961 155.83 73.4658 154.73C73.918 154.564 74.4306 154.624 74.7773 154.956C75.727 155.83 77.0384 156.298 78.3348 156.207C79.2996 156.132 80.2191 155.74 80.9729 155.122C81.4402 154.73 82.0733 154.564 82.6612 154.775C84.5907 155.438 86.8519 155.227 88.5251 154.021C88.691 153.901 88.8417 153.78 88.9925 153.644C89.2638 153.69 89.5502 153.735 89.8215 153.765C92.7912 154.067 95.5347 152.936 98.0974 151.398C100.66 149.861 102.951 147.781 102.951 144.796C102.951 144.102 102.831 143.379 102.574 142.731C102.997 142.535 103.373 142.293 103.69 141.947C104.398 141.178 104.564 139.897 104.082 139.037C104.881 138.118 104.971 136.399 105.167 135.193C105.469 133.279 105.303 131.847 104.022 130.415C103.479 129.812 103.328 128.953 103.675 128.214C104.278 126.887 104.278 125.169 104.278 123.722C104.278 122.214 104.127 120.948 102.951 120.044C102.469 119.682 102.831 119.124 102.801 118.521C102.574 114.481 106.946 112.386 105.378 98.4269Z" fill="#60423F"/>
<path d="M69.9668 145.505C69.5598 145.505 69.1227 145.46 68.6554 145.37C68.173 145.279 67.8564 145.114 67.5097 144.948C67.4193 144.903 67.3137 144.842 67.2082 144.797C67.0123 144.707 66.7861 144.646 66.5449 144.586C66.2585 144.511 65.957 144.435 65.6857 144.284C65.339 144.104 65.0074 143.817 64.7511 143.47C64.1632 144.3 62.5352 144.601 61.9473 144.646C60.4097 144.767 58.2239 143.425 57.6209 141.978C57.3948 141.435 57.3496 140.772 57.5455 140.199C56.7617 140.184 55.9778 139.717 55.5105 139.28C55.209 139.008 54.8623 138.873 54.4854 138.722C53.2493 138.255 52.4202 137.682 52.978 134.622C52.9931 134.561 53.0232 134.501 53.0533 134.456L53.5508 133.898C53.6714 133.763 53.8824 133.747 54.0181 133.883C54.1538 134.004 54.1689 134.215 54.0332 134.35L53.596 134.833C53.1136 137.501 53.7769 137.757 54.6965 138.104C55.1035 138.255 55.5557 138.42 55.9476 138.797C56.4602 139.28 57.1837 139.581 57.6812 139.536C57.7716 139.521 57.8621 139.506 57.9375 139.476C58.0581 139.34 58.1937 139.235 58.3445 139.129C58.4801 139.054 58.661 139.069 58.7666 139.189C58.8721 139.31 58.8871 139.476 58.7967 139.611C58.6761 139.777 58.5404 139.898 58.3746 140.003C58.0128 140.471 57.9978 141.194 58.2239 141.722C58.7364 142.928 60.6207 144.088 61.887 143.998C62.6256 143.938 63.8768 143.606 64.2235 143.078C64.3139 142.928 64.329 142.792 64.2687 142.626C64.2084 142.46 64.2989 142.264 64.4798 142.204C64.6456 142.144 64.8415 142.234 64.9018 142.415C65.0827 142.958 65.535 143.501 65.9872 143.727C66.1982 143.832 66.4394 143.893 66.7108 143.968C66.967 144.028 67.2384 144.104 67.4946 144.224C67.6002 144.284 67.7057 144.33 67.8112 144.39C68.1278 144.556 68.384 144.691 68.776 144.752C70.1779 145.008 71.2482 144.842 71.9567 144.254C72.8913 143.47 73.1023 142.084 73.2531 140.727C73.2681 140.546 73.434 140.41 73.6148 140.425C73.7957 140.44 73.9314 140.606 73.9163 140.787C73.7656 142.28 73.5244 143.817 72.3938 144.767C71.7607 145.249 70.9467 145.505 69.9668 145.505Z" fill="#4C2A27"/>
<path d="M83.912 146.455C83.3241 146.455 82.7362 146.305 82.2236 145.973C80.9122 145.159 80.3092 143.395 80.8669 142.024C80.9423 141.858 81.1232 141.767 81.3041 141.843C81.4699 141.918 81.5604 142.099 81.485 142.28C81.0478 143.35 81.5453 144.782 82.5704 145.415C83.6105 146.064 85.0426 145.853 85.7661 144.948C86.2184 144.39 86.3842 143.667 86.4746 142.838C86.3993 142.506 86.4294 142.174 86.5802 141.888C86.6555 141.752 86.8063 141.677 86.957 141.722C87.1078 141.767 87.2133 141.903 87.1982 142.069C87.1831 142.31 87.1681 142.551 87.1379 142.777C87.153 142.838 87.1831 142.883 87.1982 142.913C87.3942 143.305 87.8012 143.591 88.1931 143.652C89.0674 143.772 89.8513 143.154 90.2432 142.762C90.7105 142.295 91.5849 140.893 91.5095 140.109C91.4944 139.868 91.3889 139.778 91.3135 139.717C91.1628 139.612 91.1175 139.401 91.2231 139.25C91.3286 139.099 91.5396 139.054 91.6904 139.159C92.3536 139.612 93.0772 139.657 93.7405 139.31C94.5847 138.843 95.1575 137.833 95.1273 136.823C95.1273 136.642 95.1273 136.461 95.1123 136.295C95.1123 135.376 95.0972 134.713 94.5244 133.959C93.9666 133.22 93.1978 132.617 92.4441 132.029L92.3084 131.924C92.1577 131.803 92.1426 131.607 92.2481 131.456C92.3687 131.306 92.5647 131.291 92.7154 131.396L92.8511 131.502C93.635 132.12 94.4339 132.753 95.052 133.552C95.7605 134.471 95.7605 135.316 95.7755 136.28C95.7755 136.446 95.7755 136.612 95.7755 136.793C95.8057 138.044 95.0972 139.31 94.042 139.883C93.439 140.215 92.7908 140.29 92.1728 140.109C92.218 141.225 91.1477 142.777 90.7105 143.214C90.1226 143.802 89.188 144.451 88.0876 144.3C87.6806 144.24 87.2886 144.029 86.9872 143.727C86.8666 144.33 86.6404 144.873 86.2636 145.34C85.7058 146.064 84.8164 146.455 83.912 146.455Z" fill="#4C2A27"/>
<path d="M67.6905 134.911C67.4192 134.911 67.1327 134.881 66.8463 134.821C65.6705 134.595 64.6304 133.675 64.1932 132.484C64.148 132.379 63.8767 131.339 63.9671 130.615C62.927 130.676 61.5552 130.495 60.8467 129.711C60.6206 129.454 60.3794 129.228 60.1533 129.017C59.5955 128.49 59.0529 127.977 58.676 127.103C58.0579 125.686 58.3444 123.455 59.3996 122.068C58.4197 122.113 57.4097 121.782 56.641 121.103C55.5707 120.169 55.0129 118.646 55.1938 117.139C55.3446 115.827 56.0229 114.727 57.0178 114.184C57.1836 114.094 57.3796 114.154 57.47 114.32C57.5605 114.486 57.5002 114.682 57.3344 114.772C56.5505 115.209 55.9777 116.144 55.8571 117.214C55.7063 118.51 56.1736 119.807 57.0781 120.606C58.0278 121.45 59.4448 121.661 60.5151 121.118C60.6809 121.028 60.8769 121.103 60.9673 121.269C61.0427 121.435 60.9824 121.631 60.8166 121.721C59.2639 122.505 58.6458 125.309 59.3091 126.847C59.6257 127.6 60.093 128.037 60.6357 128.55C60.8769 128.776 61.1181 129.017 61.3743 129.289C61.9924 129.982 63.6053 130.073 64.5098 129.907C64.6907 129.877 64.8565 129.997 64.9017 130.178C64.9319 130.344 64.8414 130.495 64.6907 130.54C64.5701 130.811 64.751 131.972 64.8565 132.258C65.2183 133.238 66.0775 133.977 67.0272 134.173C68.7759 134.519 70.3888 133.57 71.1425 131.746C71.2179 131.58 71.4139 131.49 71.5797 131.565C71.7455 131.64 71.836 131.836 71.7606 132.002C70.9466 133.841 69.4241 134.911 67.6905 134.911Z" fill="#4C2A27"/>
<path d="M96.5557 96.6333C90.5109 87.2118 80.0492 81.5287 68.8037 81.8001C66.844 81.8453 64.8542 82.0714 63.0151 82.7648C59.955 83.9105 57.3773 86.3224 56.0658 89.3222C54.5132 92.8647 59.5932 91.508 61.2213 91.1462C65.6079 90.1965 70.2056 90.1965 74.6074 91.0558C79.4161 92.0055 83.4259 93.5129 87.2849 96.5127C91.4455 99.7537 95.41 103.236 99.1485 106.959C99.4198 107.231 99.8419 107.532 100.158 107.306C100.415 107.125 100.4 106.748 100.339 106.447C99.8871 103.779 99.2389 101.487 97.9878 99.0754C97.5506 98.2312 97.0682 97.4172 96.5557 96.6333Z" fill="#ACC7EA"/>
<path d="M60.4243 193.28C80.006 192.587 99.4972 192.994 119.139 191.637C122.757 191.381 126.556 191.125 129.887 192.617C138.796 196.612 135.525 212.983 135.51 220.761C135.495 227.364 134.334 228.374 128.41 228.735C122.682 229.082 116.953 228.569 111.24 228.193C90.4224 226.836 69.5444 227.017 48.7568 228.72C44.3098 229.082 39.2448 229.278 36.0792 225.63C31.0292 219.811 32.6874 203.184 34.7677 196.069C36.7425 189.316 39.7121 190.205 43.3149 191.064C49.0733 192.451 54.5604 193.491 60.4243 193.28Z" fill="#87A0D7"/>
<path d="M196.409 190.326C203.328 190.341 210.262 190.613 217.015 190.447C230.718 190.115 244.541 190.371 258.048 193.009C259.977 193.386 261.997 193.869 263.49 195.482C265.962 198.15 265.027 204.798 265.057 208.491C265.072 212.259 266.52 225.842 263.927 227.982C262.796 228.917 261.364 228.932 260.023 228.902C240.441 228.63 220.874 228.344 201.293 228.073C194.464 227.982 187.635 227.877 180.807 227.786C178.304 227.756 175.681 227.681 173.495 226.098C169.048 222.872 171.114 214.732 171.34 209.441C171.611 202.898 169.983 192.557 178.003 191.381C184.017 190.507 190.198 190.311 196.409 190.326Z" fill="#87A0D7"/>
</g>
<defs>
<clipPath id="clip0_2006_2808">
<rect width="320" height="210" fill="white"/>
</clipPath>
<clipPath id="clip1_2006_2808">
<rect x="51.4492" y="3.41821" width="227.526" height="112.182" rx="3.23619" fill="white"/>
</clipPath>
<clipPath id="clip2_2006_2808">
<rect width="131.944" height="126.414" fill="white" transform="translate(115.196 9.36133)"/>
</clipPath>
</defs>
</svg>
