<svg width="364" height="272" viewBox="0 0 364 272" fill="none" xmlns="http://www.w3.org/2000/svg">
<mask id="mask0_2024_30" style="mask-type:alpha" maskUnits="userSpaceOnUse" x="0" y="0" width="364" height="272">
<rect width="364" height="272" fill="#D9D9D9"/>
</mask>
<g mask="url(#mask0_2024_30)">
<path d="M1236 17H2.99121V18.72H1236V17Z" fill="#6683C2" fill-opacity="0.14"/>
<path d="M1236 62.1718H2.99121V63.8917H1236V62.1718Z" fill="#6683C2" fill-opacity="0.14"/>
<path d="M1235.01 107.374H2V109.094H1235.01V107.374Z" fill="#6683C2" fill-opacity="0.14"/>
<path d="M76.3884 88.3334C77.8899 83.596 70.0517 81.6648 68.46 85.9194C64.2255 97.235 55.3061 101.55 47.2877 99.0757C38.6686 96.4203 34.5242 82.3588 33.7735 72.3408C32.9626 61.5382 34.3741 49.8303 38.2782 39.9028C40.6507 33.8075 43.9842 28.3157 49.6602 26.0827C57.1681 23.0954 61.823 26.9276 65.3968 34.4713C66.6881 37.1871 73.2951 34.4713 71.5833 30.4581C68.7003 23.7593 64.706 19.233 57.4684 17.845C50.5011 16.5173 43.1433 19.5348 38.2782 25.1171C28.3377 36.4629 25.5748 54.8997 25.8751 70.1983C26.1454 84.4107 30.2898 100.977 43.2334 106.71C50.6212 109.999 60.1713 108.732 66.4479 103.21C71.4632 98.7437 74.9468 93.0105 76.4184 88.3636L76.3884 88.3334Z" fill="#6683C2"/>
<path d="M165.882 88.3334C167.384 83.596 159.546 81.6648 157.954 85.9194C153.69 97.235 144.8 101.55 136.782 99.0757C128.163 96.4203 124.018 82.3588 123.268 72.3408C122.457 61.5382 123.868 49.8303 127.772 39.9028C130.145 33.8075 133.478 28.3157 139.154 26.0827C146.662 23.0954 151.317 26.9276 154.891 34.4713C156.182 37.1871 162.789 34.4713 161.077 30.4581C158.194 23.7593 154.2 19.233 146.963 17.845C139.995 16.5173 132.637 19.5348 127.772 25.1171C117.832 36.4629 115.069 54.8997 115.369 70.1983C115.64 84.4107 119.784 100.977 132.728 106.71C140.115 109.999 149.665 108.732 155.942 103.21C160.957 98.7437 164.441 93.0105 165.913 88.3636L165.882 88.3334Z" fill="#6683C2"/>
<path d="M256.278 88.3334C257.78 83.596 249.941 81.6648 248.35 85.9194C244.085 97.235 235.196 101.55 227.177 99.0757C218.558 96.4203 214.414 82.3588 213.663 72.3408C212.852 61.5382 214.264 49.8303 218.168 39.9028C220.54 33.8075 223.874 28.3157 229.55 26.0827C237.058 23.0954 241.713 26.9276 245.286 34.4713C246.578 37.1871 253.185 34.4713 251.473 30.4581C248.59 23.7593 244.596 19.233 237.358 17.845C230.391 16.5173 223.033 19.5348 218.168 25.1171C208.227 36.4629 205.464 54.8997 205.765 70.1983C206.035 84.4107 210.179 100.977 223.123 106.71C230.511 109.999 240.061 108.732 246.338 103.21C251.353 98.7437 254.836 93.0105 256.308 88.3636L256.278 88.3334Z" fill="#6683C2" fill-opacity="0.35"/>
<path d="M345.292 88.3334C346.793 83.596 338.955 81.6648 337.363 85.9194C333.099 97.235 324.209 101.55 316.191 99.0757C307.572 96.4203 303.428 82.3588 302.677 72.3408C301.866 61.5382 303.277 49.8303 307.182 39.9028C309.554 33.8075 312.888 28.3157 318.564 26.0827C326.071 23.0954 330.726 26.9276 334.3 34.4713C335.591 37.1871 342.198 34.4713 340.487 30.4581C337.604 23.7593 333.609 19.233 326.372 17.845C319.404 16.5173 312.047 19.5348 307.182 25.1171C297.241 36.4629 294.478 54.8997 294.778 70.1983C295.049 84.4107 299.193 100.977 312.137 106.71C319.525 109.999 329.075 108.732 335.351 103.21C340.366 98.7437 343.85 93.0105 345.322 88.3636L345.292 88.3334Z" fill="#6683C2" fill-opacity="0.35"/>
<path d="M105.452 205.784C105.25 205.916 105.019 205.981 104.788 205.981C104.336 205.981 103.903 205.737 103.692 205.305C102.412 202.665 98.8242 196.634 92.0234 194.943C89.7533 194.38 88.1084 193.609 86.9156 192.783V246.357C86.9156 253.356 80.4418 259.03 72.4578 259.03C64.4738 259.03 58 253.346 58 246.348C58 239.349 64.4738 233.675 72.4578 233.675C76.4017 233.675 79.9801 235.065 82.5869 237.311V179.03H86.9156C86.9156 179.03 86.9156 179.039 86.9156 179.067C86.9156 179.612 87.0599 186.648 94.736 189.946C102.46 193.262 105.096 197.461 105.991 204.638C106.048 205.089 105.837 205.53 105.452 205.784Z" fill="#F37E60"/>
<path d="M13.5662 156.218V186.751C12.1279 185.482 10.1534 184.696 7.97732 184.696C3.57201 184.696 0 187.903 0 191.865C0 195.827 3.57201 199.03 7.97732 199.03C12.3826 199.03 15.9546 195.822 15.9546 191.865V165.141L41.6116 160.77V181.567C40.1732 180.298 38.1988 179.512 36.0227 179.512C31.6174 179.512 28.0454 182.72 28.0454 186.676C28.0454 190.633 31.6174 193.841 36.0227 193.841C40.428 193.841 44 190.633 44 186.676V151.03L13.5662 156.218Z" fill="#D4E0F9"/>
<path d="M196.872 226.04L196.595 225.507L191.727 210.072C191.172 209.008 189.689 208.648 188.757 209.475C187.461 210.65 185.878 211.534 184.023 212.045C177.791 213.721 171.214 210.14 169.441 204.092C167.39 198.131 170.841 191.873 177.097 190.212C178.939 189.724 180.812 189.688 182.581 190.058C183.83 190.314 184.883 189.279 184.72 188.098L179.814 172.673L179.739 172.071C179.503 171.128 180.054 170.175 181.012 169.922L198.317 165.334C198.756 164.688 198.755 163.788 198.121 163.142C195.294 160.27 193.914 155.906 195.631 150.849C195.802 150.327 196.084 149.839 196.426 149.416C203.491 141.119 214.99 144.562 217.586 152.73C218.152 154.453 218.217 156.196 217.912 157.85C217.751 158.75 218.343 159.526 219.154 159.808L236.611 155.184C237.607 154.922 238.682 155.48 238.967 156.451L244.089 172.684L244.127 172.955L244.16 173.067C244.603 174.439 243.256 175.646 241.814 175.217C237.61 173.999 232.665 175.022 228.872 179.284C228.275 180.149 227.824 181.098 227.509 182.095C226.912 184.48 227.009 186.676 227.578 188.617C228.222 190.54 229.429 192.447 231.329 194.164C232.175 194.839 233.112 195.411 234.117 195.867C239.809 197.602 244.565 196.006 247.4 192.897C248.38 191.819 250.225 192.17 250.63 193.552L250.663 193.664L250.777 193.916L255.95 210.116C256.273 211.078 255.695 212.078 254.699 212.34L237.302 217.03C236.788 217.695 236.737 218.627 237.396 219.287C238.63 220.527 239.579 222.036 240.107 223.767C242.679 231.921 235.004 240.487 224.181 236.999C223.639 236.81 223.114 236.538 222.667 236.187C218.279 232.754 216.861 228.399 217.567 224.588C217.739 223.726 217.21 222.955 216.449 222.64L199.141 227.288C198.223 227.471 197.197 226.941 196.872 226.04Z" stroke="#F37E60" stroke-width="2" stroke-linejoin="round"/>
<path d="M325.334 251.765L325.294 251.835L325.211 252.022L319.008 262.893C318.634 263.542 317.755 263.736 317.07 263.341L304.881 256.374C304.235 256.422 303.679 256.872 303.672 257.57C303.652 258.845 303.321 260.103 302.652 261.261C299.503 266.716 290.502 266.898 286.506 259.352C286.302 258.977 286.176 258.553 286.126 258.127C285.635 254.055 287.287 251.15 289.807 249.611C290.378 249.263 290.507 248.613 290.291 248.044L278.177 241.12C277.491 240.724 277.219 239.912 277.555 239.287L277.693 238.876L283.648 228.563C283.925 227.741 283.327 226.764 282.354 226.694C281.004 226.592 279.609 226.184 278.33 225.446C273.983 222.96 272.355 217.647 274.748 213.673C276.956 209.592 282.363 208.317 286.718 210.832C287.997 211.57 289.058 212.557 289.811 213.693C290.358 214.5 291.531 214.523 292.086 213.861L297.985 203.516L298.272 203.19C298.543 202.762 299.053 202.565 299.572 202.608C299.717 202.785 299.9 202.938 300.123 203.066L312.606 210.25L312.851 209.526C313.153 209.303 313.382 208.991 313.379 208.568L313.398 208.322C313.601 207.971 313.84 207.642 314.108 207.305L314.178 207.228L314.21 207.13C314.368 206.684 314.507 206.273 314.709 205.922C316.623 202.607 320.909 201.433 324.645 203.052C324.962 203.188 325.297 203.335 325.612 203.517C326.872 204.244 328.024 205.331 329.001 206.806C329.217 207.118 329.422 207.447 329.617 207.794C329.786 208.101 329.887 208.44 329.922 208.764C330.171 210.943 329.774 212.702 328.974 214.087C328.761 214.455 328.511 214.802 328.253 215.121L328.184 215.198L328.152 215.296C328.036 215.627 327.949 215.904 327.846 216.126C327.671 216.258 327.467 216.398 327.273 216.519C326.856 216.77 326.688 217.234 326.719 217.65L326.314 218.094L338.983 225.385C339.15 225.481 339.318 225.532 339.506 225.593C339.82 226.032 339.894 226.589 339.631 227.045L333.373 237.885L333.263 238.032L333.223 238.102C332.686 239.032 331.299 238.909 330.74 237.908C329.124 235.057 325.833 232.924 321.351 233.025C320.542 233.143 319.766 233.373 319.035 233.699C317.374 234.564 316.195 235.708 315.427 236.995C314.696 238.304 314.314 239.907 314.395 241.778C314.479 242.575 314.686 243.372 314.988 244.132C317.152 248.047 320.665 249.794 323.942 249.769C325.042 249.703 325.871 250.836 325.334 251.765Z" stroke="#6683C2" stroke-width="2" stroke-linejoin="round"/>
</g>
</svg>
