<svg width="80" height="80" viewBox="0 0 80 80" fill="none" xmlns="http://www.w3.org/2000/svg">
<circle cx="40" cy="40" r="40" fill="#F37E60"/>
<path d="M55.4099 19.8018L52.2292 19.8041C51.6473 19.8044 50.6009 19.992 50.1216 19.575C49.6351 19.1517 49.7945 18.1704 50.4668 18.0536C51.0282 17.9561 52.0147 18.0214 52.6247 18.0216L57.369 18.0218C58.3854 17.8944 58.3668 18.7428 58.3669 19.5007L58.3663 23.6006C58.3661 23.9848 58.4747 25.2808 58.2332 25.5884C57.9327 25.9711 57.2531 26.0817 56.88 25.7434C56.3786 25.2888 56.6341 21.9306 56.5992 21.1221C56.3939 21.3672 56.1559 21.5841 55.9309 21.8109L47.3244 30.3598C46.3349 31.3384 45.3703 32.3526 44.3389 33.2875C43.1485 34.3665 42.5851 33.4776 41.5016 32.7681C40.3385 32.0065 38.3813 30.6511 37.1628 30.0558C36.0511 31.2466 34.8742 32.3803 33.7129 33.5221L28.6813 38.5579C28.1001 39.132 27.4551 40.2204 26.5358 39.5871C25.5234 38.6598 27.1146 37.6339 27.7799 36.9612L35.4191 29.3601C35.7826 29.0027 36.105 28.6004 36.4754 28.252C37.2463 27.5269 38.093 28.5294 38.7435 28.9587C40.0491 29.8204 41.9317 31.1483 43.286 31.8562L43.3253 31.8765C43.6565 31.5974 43.9507 31.2693 44.2541 30.9608L54.5996 20.5736C54.8602 20.3109 55.1165 20.028 55.4099 19.8018Z" fill="white"/>
<path d="M57.4767 59.6468L60.0441 59.6451C60.5558 59.6452 61.1559 59.5899 61.6551 59.6999C62.5315 59.8929 62.8835 61.4971 60.997 61.5219C57.6799 61.5654 54.3569 61.5219 51.0392 61.522L22.8388 61.5225C22.2807 61.5225 19.435 61.591 19.1543 61.4792C18.5369 61.2332 18.5988 60.5831 18.5899 60.036C18.5522 57.7326 18.5883 55.4219 18.5883 53.1178L18.5882 27.0825C18.5883 25.0753 18.5462 23.0601 18.5855 21.054C18.5951 20.5629 18.7955 20.2475 19.2781 20.0773C20.6921 19.988 20.4034 21.6183 20.4033 22.5318L20.4025 59.6468H23.4539L23.4527 48.0555C23.4499 47.1507 23.1608 46.1127 24.428 46.0836C25.7519 46.0531 27.0828 46.0893 28.4075 46.0865L29.9976 46.0829C32.0518 46.0786 31.7138 46.5248 31.7126 48.2898L31.7113 59.6468H36.2749L36.2756 42.7996C36.2752 41.6265 35.8418 40.0386 37.4322 40.007C38.7137 39.9816 40.0001 40.0152 41.2823 40.0118L42.8416 40.0079C45.149 40.0088 44.6355 40.832 44.6347 42.7524L44.6352 59.6468H49.2717V50.1987L49.2702 35.2681C49.2698 34.0569 48.8464 32.6418 50.377 32.5913C51.7832 32.5451 53.2036 32.5858 54.6112 32.5896C56.7524 32.5954 57.4842 32.034 57.4784 34.3798L57.4767 59.6468ZM52.6175 34.2984H51.0696V59.6468H54.1263H55.6712C55.6261 58.7493 55.6711 57.8276 55.6712 56.9273V34.2984H52.6175ZM38.0604 41.7532C38.0268 43.7353 38.0603 45.724 38.0603 47.7067L38.0604 59.6468H42.8425V41.7532H38.0604ZM25.2137 47.822L25.213 55.6954C25.2129 57.0113 25.1909 58.3313 25.2137 59.6468H29.9377V47.822H25.2137Z" fill="white"/>
</svg>
