<svg width="230" height="358" viewBox="0 0 230 358" fill="none" xmlns="http://www.w3.org/2000/svg">
<path d="M24.9435 1.80226C24.5581 1.83345 24.271 2.17112 24.3022 2.55646C24.3334 2.9418 24.6711 3.22889 25.0564 3.19769L24.9999 2.49998L24.9435 1.80226ZM212.5 323L212.909 323.568L212.5 323ZM49.6721 349.321C49.2974 349.226 48.9165 349.453 48.8214 349.828C48.7264 350.203 48.9531 350.583 49.3278 350.678L49.4999 350L49.6721 349.321ZM24.9999 2.49998L25.0564 3.19769C25.8398 3.13428 26.643 3.0722 27.4648 3.01187L27.4135 2.31375L27.3623 1.61562C26.537 1.67621 25.7303 1.73856 24.9435 1.80226L24.9999 2.49998ZM31.3204 2.04992L31.3635 2.74859C32.938 2.65142 34.5657 2.56195 36.2388 2.48257L36.2056 1.78336L36.1724 1.08415C34.4926 1.16385 32.8583 1.25368 31.2773 1.35125L31.3204 2.04992ZM40.1125 1.62026L40.1377 2.3198C41.7293 2.26245 43.3539 2.2151 45.0054 2.17959L44.9904 1.47975L44.9753 0.779915C43.3168 0.815576 41.6854 0.863124 40.0873 0.92071L40.1125 1.62026ZM48.9022 1.41908L48.9088 2.11905C50.5152 2.10388 52.1416 2.1007 53.7829 2.11109L53.7873 1.4111L53.7917 0.711113C52.1428 0.700677 50.509 0.703874 48.8956 0.719113L48.9022 1.41908ZM57.6988 1.46177L57.685 2.16163C59.3005 2.19346 60.9261 2.23928 62.5571 2.30055L62.5833 1.60105L62.6096 0.901541C60.9699 0.839944 59.336 0.793887 57.7126 0.761904L57.6988 1.46177ZM66.4901 1.77758L66.453 2.4766C68.0739 2.5625 69.6964 2.66468 71.3157 2.78453L71.3674 2.08644L71.4191 1.38835C69.7895 1.26774 68.1573 1.16496 66.5271 1.07856L66.4901 1.77758ZM75.2628 2.41022L75.1983 3.10725C76.8214 3.25739 78.4374 3.42658 80.0417 3.61627L80.1239 2.92111L80.2061 2.22595C78.5894 2.0348 76.9615 1.86437 75.3273 1.7132L75.2628 2.41022ZM83.9986 3.42316L83.9006 4.11627C85.5213 4.34536 87.1256 4.59712 88.7084 4.87307L88.8286 4.18347L88.9489 3.49387C87.3504 3.21519 85.7312 2.96111 84.0965 2.73005L83.9986 3.42316ZM92.6671 4.90975L92.5267 5.59552C94.1373 5.92536 95.7197 6.28278 97.2684 6.66948L97.438 5.99033L97.6076 5.31118C96.0382 4.91932 94.4363 4.55753 92.8076 4.22398L92.6671 4.90975ZM101.211 7.01099L101.014 7.68281C102.598 8.14634 104.137 8.64438 105.626 9.17891L105.863 8.52008L106.099 7.86125C104.582 7.3165 103.015 6.8099 101.407 6.33918L101.211 7.01099ZM109.503 9.9441L109.229 10.5881C110.746 11.2347 112.197 11.9257 113.572 12.6635L113.903 12.0467L114.234 11.4298C112.818 10.6704 111.33 9.96152 109.778 9.30012L109.503 9.9441ZM117.257 14.0379L116.872 14.6226C118.25 15.5301 119.526 16.4968 120.689 17.5257L121.153 17.0014L121.617 16.4772C120.4 15.4 119.07 14.3934 117.642 13.4532L117.257 14.0379ZM123.891 19.7806L123.358 20.2344C124.397 21.4547 125.296 22.7501 126.04 24.1251L126.656 23.7918L127.271 23.4585C126.477 21.9922 125.523 20.6166 124.424 19.3268L123.891 19.7806ZM128.194 27.3738L127.529 27.5904C128.003 29.0481 128.325 30.5882 128.481 32.2157L129.177 32.1491L129.874 32.0824C129.709 30.3552 129.367 28.7145 128.86 27.1573L128.194 27.3738ZM129.245 36.0409L128.546 36.0012C128.502 36.783 128.422 37.5832 128.307 38.4022L129 38.5L129.693 38.5977C129.814 37.7415 129.897 36.9025 129.944 36.0805L129.245 36.0409ZM129 38.5L128.307 38.4022C128.189 39.2389 128.025 40.0484 127.818 40.8323L128.495 41.0112L129.171 41.1902C129.393 40.3519 129.568 39.4882 129.693 38.5977L129 38.5ZM127.079 44.8069L126.451 44.4988C125.735 45.9602 124.842 47.3283 123.789 48.6153L124.33 49.0588L124.872 49.5022C125.989 48.1381 126.941 46.6798 127.708 45.1149L127.079 44.8069ZM121.521 51.9877L121.053 51.4678C119.861 52.5425 118.541 53.5563 117.106 54.5178L117.495 55.0994L117.885 55.681C119.368 54.6873 120.742 53.6329 121.99 52.5076L121.521 51.9877ZM114.02 57.2119L113.68 56.5996C112.258 57.3875 110.753 58.1384 109.175 58.8587L109.465 59.4956L109.756 60.1324C111.363 59.3992 112.901 58.6321 114.359 57.8242L114.02 57.2119ZM105.727 61.0944L105.466 60.445C103.94 61.0587 102.36 61.6508 100.732 62.2263L100.966 62.8863L101.199 63.5462C102.842 62.9651 104.441 62.366 105.988 61.7439L105.727 61.0944ZM97.1214 64.19L96.9044 63.5245C95.3252 64.0393 93.7103 64.5427 92.0651 65.0388L92.2672 65.709L92.4693 66.3792C94.1226 65.8807 95.7476 65.3741 97.3383 64.8555L97.1214 64.19ZM88.3717 66.8565L88.1777 66.1839C86.5698 66.6477 84.9388 67.1075 83.2894 67.5668L83.4772 68.2412L83.665 68.9155C85.3171 68.4554 86.9524 67.9944 88.5657 67.5291L88.3717 66.8565ZM79.5542 69.3258L79.3685 68.6509C77.7456 69.0973 76.1076 69.5463 74.4622 70.0001L74.6483 70.6749L74.8344 71.3497C76.4794 70.896 78.115 70.4477 79.7398 70.0007L79.5542 69.3258ZM70.7236 71.7648L70.5348 71.0908C68.9064 71.547 67.2727 72.0107 65.6381 72.4849L65.8331 73.1572L66.0282 73.8295C67.6576 73.3567 69.2871 72.8942 70.9125 72.4389L70.7236 71.7648ZM61.933 74.3103L61.7308 73.6402C60.1039 74.1311 58.4794 74.635 56.8616 75.1546L57.0757 75.821L57.2897 76.4875C58.8986 75.9708 60.5152 75.4694 62.1353 74.9805L61.933 74.3103ZM53.2118 77.0988L52.986 76.4362C51.3713 76.9866 49.7666 77.5556 48.1764 78.146L48.42 78.8022L48.6637 79.4585C50.2409 78.8728 51.8337 78.3081 53.4377 77.7614L53.2118 77.0988ZM44.6293 80.2642L44.3688 79.6144C42.779 80.2518 41.2075 80.914 39.659 81.6043L39.9441 82.2437L40.2291 82.883C41.76 82.2005 43.315 81.5452 44.8898 80.9139L44.6293 80.2642ZM36.2527 83.9669L35.9451 83.3381C34.4016 84.0932 32.8858 84.8806 31.4026 85.7038L31.7423 86.3158L32.082 86.9279C33.5425 86.1173 35.0369 85.341 36.5604 84.5957L36.2527 83.9669ZM28.2323 88.3723L27.8639 87.7772C26.4002 88.6832 24.975 89.63 23.5936 90.6212L24.0017 91.1899L24.4098 91.7586C25.7637 90.7871 27.1624 89.858 28.6008 88.9675L28.2323 88.3723ZM20.7733 93.6579L20.331 93.1154C18.9974 94.2027 17.7139 95.3397 16.4864 96.5301L16.9737 97.0326L17.4611 97.5351C18.6583 96.3741 19.9115 95.2637 21.2157 94.2004L20.7733 93.6579ZM14.162 99.9707L13.6382 99.5064C12.501 100.789 11.425 102.129 10.416 103.53L10.9839 103.939L11.5519 104.348C12.5325 102.987 13.5789 101.684 14.6859 100.435L14.162 99.9707ZM8.75025 107.331L8.14993 106.971C7.27642 108.427 6.47074 109.944 5.73812 111.524L6.37317 111.818L7.00822 112.113C7.71983 110.578 8.50227 109.105 9.35057 107.691L8.75025 107.331ZM4.82245 115.564L4.16518 115.323C3.86917 116.131 3.59101 116.954 3.33127 117.793L3.99993 118L4.66859 118.207C4.92134 117.391 5.19191 116.591 5.47971 115.805L4.82245 115.564ZM3.99993 118L3.33127 117.793C3.07953 118.606 2.8438 119.41 2.62397 120.207L3.29876 120.393L3.97355 120.579C4.18942 119.797 4.42104 119.006 4.66859 118.207L3.99993 118ZM2.36054 124.182L1.67668 124.033C1.31378 125.693 1.02353 127.318 0.804633 128.907L1.49808 129.002L2.19153 129.098C2.40521 127.547 2.68891 125.958 3.04441 124.332L2.36054 124.182ZM1.10161 132.884L0.403095 132.838C0.291869 134.541 0.267742 136.201 0.328912 137.818L1.02841 137.792L1.72791 137.765C1.66864 136.198 1.69189 134.587 1.80012 132.929L1.10161 132.884ZM1.35383 141.692L0.659753 141.783C0.880139 143.467 1.19977 145.1 1.61614 146.685L2.29316 146.507L2.97019 146.329C2.56921 144.803 2.2608 143.228 2.04791 141.601L1.35383 141.692ZM3.48852 150.237L2.83437 150.486C3.42984 152.05 4.127 153.56 4.9226 155.018L5.53713 154.683L6.15166 154.348C5.38606 152.944 4.71544 151.492 4.14267 149.988L3.48852 150.237ZM7.59119 158.017L7.01514 158.415C7.95022 159.769 8.97749 161.074 10.0936 162.33L10.6169 161.866L11.1403 161.401C10.0606 160.185 9.06873 158.925 8.16723 157.619L7.59119 158.017ZM13.3461 164.675L12.8656 165.184C14.0491 166.301 15.3095 167.376 16.6438 168.411L17.0727 167.858L17.5017 167.305C16.2012 166.296 14.9755 165.25 13.8267 164.166L13.3461 164.675ZM20.2478 170.149L19.8572 170.73C21.1994 171.633 22.6036 172.502 24.0676 173.338L24.4147 172.73L24.7618 172.122C23.3257 171.302 21.9507 170.451 20.6385 169.568L20.2478 170.149ZM27.8646 174.583L27.5487 175.207C28.9887 175.936 30.4788 176.636 32.0172 177.31L32.2982 176.669L32.5791 176.028C31.0629 175.364 29.5962 174.674 28.1804 173.958L27.8646 174.583ZM35.9244 178.174L35.6683 178.826C37.1712 179.417 38.7152 179.985 40.299 180.532L40.5274 179.87L40.7558 179.208C39.1896 178.668 37.6641 178.106 36.1805 177.523L35.9244 178.174ZM44.2602 181.095L44.0516 181.764C45.5895 182.244 47.1614 182.705 48.7662 183.149L48.9527 182.474L49.1392 181.799C47.5485 181.36 45.9913 180.902 44.4687 180.427L44.2602 181.095ZM52.7369 183.472L52.5663 184.151C54.1354 184.545 55.7334 184.923 57.3594 185.287L57.512 184.603L57.6646 183.92C56.0501 183.56 54.4641 183.184 52.9075 182.793L52.7369 183.472ZM61.3572 185.424L61.2176 186.109C62.7982 186.431 64.4033 186.739 66.0322 187.035L66.1571 186.346L66.2819 185.657C64.6624 185.363 63.0671 185.057 61.4968 184.738L61.3572 185.424ZM70.0231 187.015L69.9091 187.705C71.5124 187.97 73.1371 188.223 74.7828 188.465L74.8844 187.772L74.986 187.079C73.3484 186.839 71.7319 186.587 70.1372 186.324L70.0231 187.015ZM78.7455 188.313L78.6529 189.007C80.2598 189.221 81.8855 189.425 83.5292 189.62L83.6114 188.925L83.6935 188.229C82.0565 188.036 80.4379 187.832 78.8381 187.619L78.7455 188.313ZM87.5184 189.364L87.4439 190.06C89.052 190.232 90.6764 190.395 92.3166 190.549L92.3822 189.853L92.4477 189.156C90.8133 189.002 89.1948 188.839 87.5928 188.668L87.5184 189.364ZM96.3021 190.202L96.2432 190.9C97.8577 191.036 99.4867 191.164 101.13 191.285L101.181 190.587L101.232 189.889C99.5941 189.768 97.9703 189.641 96.361 189.505L96.3021 190.202ZM105.09 190.857L105.045 191.556C106.669 191.662 108.307 191.76 109.958 191.852L109.997 191.153L110.035 190.454C108.389 190.363 106.756 190.264 105.135 190.159L105.09 190.857ZM113.895 191.355L113.862 192.054C115.489 192.133 117.128 192.205 118.778 192.271L118.806 191.571L118.834 190.872C117.188 190.806 115.553 190.734 113.929 190.656L113.895 191.355ZM122.712 191.715L122.688 192.414C124.315 192.469 125.952 192.518 127.599 192.561L127.617 191.861L127.636 191.162C125.992 191.118 124.358 191.07 122.735 191.015L122.712 191.715ZM131.534 191.953L131.519 192.653C132.34 192.67 133.163 192.686 133.988 192.7L134 192L134.012 191.3C133.188 191.286 132.367 191.27 131.548 191.253L131.534 191.953ZM134 192L133.988 192.7C134.833 192.715 135.673 192.739 136.508 192.773L136.536 192.073L136.565 191.374C135.719 191.34 134.868 191.315 134.012 191.3L134 192ZM140.525 192.31L140.471 193.008C142.147 193.14 143.8 193.31 145.43 193.518L145.518 192.824L145.607 192.129C143.955 191.918 142.279 191.746 140.58 191.613L140.525 192.31ZM149.451 193.405L149.335 194.096C150.995 194.375 152.63 194.694 154.239 195.051L154.391 194.368L154.542 193.685C152.91 193.322 151.251 192.999 149.568 192.715L149.451 193.405ZM158.275 195.315L158.094 195.992C159.709 196.422 161.296 196.89 162.855 197.396L163.071 196.73L163.287 196.065C161.704 195.551 160.093 195.075 158.455 194.639L158.275 195.315ZM166.866 198.053L166.622 198.709C168.183 199.291 169.716 199.912 171.22 200.568L171.5 199.927L171.78 199.285C170.253 198.619 168.697 197.989 167.111 197.397L166.866 198.053ZM175.138 201.611L174.83 202.239C176.329 202.974 177.796 203.744 179.233 204.549L179.575 203.938L179.917 203.328C178.458 202.51 176.968 201.728 175.446 200.982L175.138 201.611ZM183.018 205.968L182.65 206.563C184.067 207.44 185.452 208.352 186.804 209.295L187.204 208.721L187.605 208.147C186.232 207.189 184.826 206.264 183.387 205.373L183.018 205.968ZM190.443 211.087L190.018 211.643C191.34 212.653 192.628 213.694 193.882 214.764L194.336 214.231L194.791 213.699C193.518 212.613 192.21 211.556 190.868 210.531L190.443 211.087ZM197.328 216.895L196.852 217.407C198.072 218.541 199.256 219.702 200.406 220.888L200.908 220.401L201.411 219.914C200.245 218.71 199.043 217.532 197.804 216.382L197.328 216.895ZM203.635 223.334L203.113 223.8C204.22 225.04 205.29 226.305 206.324 227.59L206.869 227.152L207.415 226.713C206.366 225.409 205.28 224.127 204.158 222.868L203.635 223.334ZM209.32 230.329L208.757 230.745C209.747 232.084 210.699 233.443 211.613 234.818L212.196 234.43L212.779 234.043C211.852 232.648 210.887 231.271 209.883 229.913L209.32 230.329ZM214.345 237.807L213.747 238.171C214.613 239.593 215.44 241.031 216.227 242.48L216.842 242.146L217.457 241.812C216.659 240.342 215.821 238.885 214.943 237.442L214.345 237.807ZM218.687 245.711L218.059 246.02C218.796 247.517 219.492 249.023 220.145 250.536L220.788 250.258L221.431 249.981C220.767 248.446 220.062 246.919 219.315 245.402L218.687 245.711ZM222.301 253.961L221.648 254.213C222.248 255.77 222.804 257.332 223.317 258.895L223.982 258.677L224.647 258.459C224.127 256.873 223.563 255.289 222.954 253.709L222.301 253.961ZM225.153 262.519L224.479 262.709C224.933 264.319 225.341 265.927 225.701 267.529L226.384 267.376L227.067 267.222C226.701 265.595 226.288 263.962 225.827 262.329L225.153 262.519ZM227.175 271.3L226.486 271.423C226.78 273.069 227.024 274.707 227.217 276.332L227.912 276.25L228.607 276.167C228.411 274.514 228.163 272.85 227.865 271.177L227.175 271.3ZM228.286 280.239L227.588 280.287C227.703 281.96 227.763 283.616 227.768 285.249L228.468 285.247L229.168 285.245C229.163 283.58 229.102 281.894 228.985 280.191L228.286 280.239ZM228.365 289.259L227.666 289.221C227.575 290.896 227.423 292.542 227.209 294.154L227.903 294.246L228.597 294.338C228.816 292.689 228.971 291.007 229.064 289.297L228.365 289.259ZM227.242 298.197L226.556 298.058C226.223 299.7 225.821 301.299 225.35 302.849L226.019 303.053L226.689 303.257C227.174 301.662 227.587 300.02 227.928 298.337L227.242 298.197ZM224.697 306.831L224.047 306.572C223.429 308.121 222.733 309.61 221.961 311.031L222.576 311.366L223.191 311.7C223.991 310.228 224.71 308.689 225.347 307.091L224.697 306.831ZM220.485 314.778L219.909 314.382C218.974 315.74 217.955 317.02 216.852 318.213L217.365 318.688L217.879 319.163C219.03 317.92 220.09 316.587 221.062 315.175L220.485 314.778ZM214.477 321.455L214.024 320.921C213.401 321.448 212.757 321.952 212.091 322.432L212.5 323L212.909 323.568C213.605 323.067 214.278 322.54 214.929 321.99L214.477 321.455ZM212.5 323L212.091 322.432C211.425 322.912 210.752 323.388 210.072 323.862L210.472 324.436L210.872 325.01C211.558 324.533 212.237 324.052 212.909 323.568L212.5 323ZM207.171 326.675L206.785 326.091C205.415 326.995 204.02 327.887 202.601 328.763L202.969 329.359L203.336 329.954C204.768 329.07 206.175 328.171 207.556 327.259L207.171 326.675ZM199.551 331.415L199.197 330.811C197.779 331.641 196.338 332.457 194.876 333.257L195.212 333.871L195.548 334.485C197.022 333.678 198.475 332.856 199.904 332.019L199.551 331.415ZM191.691 335.746L191.369 335.125C189.909 335.881 188.428 336.621 186.927 337.346L187.232 337.976L187.536 338.607C189.049 337.877 190.541 337.13 192.013 336.368L191.691 335.746ZM183.62 339.671L183.33 339.034C181.833 339.716 180.317 340.382 178.782 341.031L179.055 341.676L179.328 342.321C180.874 341.667 182.402 340.995 183.91 340.308L183.62 339.671ZM175.363 343.191L175.104 342.541C173.575 343.149 172.028 343.74 170.464 344.314L170.706 344.971L170.947 345.628C172.522 345.05 174.08 344.454 175.621 343.841L175.363 343.191ZM166.943 346.306L166.716 345.644C165.158 346.178 163.585 346.695 161.996 347.193L162.206 347.861L162.415 348.529C164.016 348.027 165.601 347.507 167.17 346.969L166.943 346.306ZM158.392 349.014L158.197 348.342C156.615 348.802 155.02 349.244 153.409 349.667L153.587 350.344L153.765 351.021C155.387 350.595 156.995 350.149 158.588 349.686L158.392 349.014ZM149.721 351.318L149.557 350.637C147.956 351.023 146.341 351.39 144.713 351.739L144.859 352.423L145.006 353.108C146.645 352.757 148.272 352.387 149.885 351.998L149.721 351.318ZM140.948 353.218L140.816 352.531C139.198 352.842 137.567 353.135 135.925 353.408L136.039 354.099L136.154 354.789C137.809 354.514 139.451 354.219 141.08 353.905L140.948 353.218ZM132.098 354.714L131.997 354.021C130.367 354.259 128.726 354.477 127.073 354.676L127.157 355.371L127.24 356.066C128.904 355.866 130.557 355.646 132.198 355.407L132.098 354.714ZM123.195 355.807L123.126 355.11C121.486 355.274 119.836 355.419 118.176 355.543L118.228 356.241L118.281 356.939C119.952 356.814 121.614 356.669 123.265 356.503L123.195 355.807ZM114.244 356.501L114.206 355.802C112.559 355.893 110.904 355.964 109.238 356.015L109.26 356.715L109.281 357.414C110.958 357.363 112.625 357.291 114.283 357.2L114.244 356.501ZM105.278 356.798L105.27 356.098C103.623 356.116 101.967 356.115 100.303 356.093L100.293 356.793L100.284 357.493C101.96 357.515 103.627 357.516 105.285 357.498L105.278 356.798ZM96.3046 356.703L96.3271 356.004C94.6794 355.951 93.0235 355.878 91.3597 355.785L91.3205 356.483L91.2813 357.182C92.9562 357.276 94.6232 357.35 96.2821 357.403L96.3046 356.703ZM87.3417 356.223L87.3941 355.525C85.7522 355.402 84.1028 355.259 82.4463 355.095L82.3776 355.792L82.309 356.489C83.9764 356.653 85.6366 356.797 87.2894 356.921L87.3417 356.223ZM78.4115 355.364L78.493 354.669C76.8554 354.476 75.211 354.264 73.56 354.032L73.4625 354.725L73.3649 355.418C75.0265 355.652 76.6816 355.866 78.3299 356.059L78.4115 355.364ZM69.5208 354.134L69.631 353.443C68.005 353.184 66.373 352.905 64.735 352.606L64.6094 353.295L64.4837 353.983C66.132 354.284 67.7744 354.565 69.4107 354.825L69.5208 354.134ZM60.6886 352.543L60.8265 351.857C59.209 351.532 57.586 351.187 55.9576 350.823L55.8046 351.506L55.6516 352.189C57.2901 352.556 58.9232 352.903 60.5507 353.23L60.6886 352.543ZM51.9306 350.603L52.0954 349.922C51.2889 349.727 50.4811 349.527 49.6721 349.321L49.4999 350L49.3278 350.678C50.1417 350.885 50.9544 351.086 51.7658 351.283L51.9306 350.603Z" fill="#F37E60"/>
</svg>
