<svg width="432" height="182" fill="none" xmlns="http://www.w3.org/2000/svg"><path fill="#F1F5FD" d="M0 0h432v182H0z"/><g clip-path="url(#a)" fill="#E2EBFD"><circle cx="289.76" cy="81.76" r="96.754" transform="rotate(52.173 289.76 81.76)"/><circle cx="470.486" cy="103.161" r="55.422" transform="rotate(52.173 470.486 103.161)"/><circle cx="394.961" cy="171.314" r="29.12" transform="rotate(52.173 394.961 171.314)"/></g><g clip-path="url(#b)"><circle cx="30.96" cy="-1.018" r="51.127" transform="rotate(52.173 30.96 -1.018)" fill="#E2EBFD"/></g><defs><clipPath id="a"><path d="M182 0h230c11.046 0 20 8.954 20 20v142c0 11.046-8.954 20-20 20H182V0Z" fill="#fff"/></clipPath><clipPath id="b"><path d="M250 0H20C8.954 0 0 8.954 0 20v142c0 11.046 8.954 20 20 20h230V0Z" fill="#fff"/></clipPath></defs></svg>