<svg width="50" height="50" fill="none" xmlns="http://www.w3.org/2000/svg"><circle cx="25" cy="25" r="25" fill="#F37E60"/><g clip-path="url(#a)" fill="#fff"><path d="M24.5 25.867c-2.5.195-4.69-1.64-4.891-4.101-.202-2.461 1.661-4.617 4.162-4.818 2.504-.201 4.7 1.635 4.901 4.1.202 2.465-1.666 4.623-4.171 4.819Zm-.538-7.455c-1.686.095-2.972 1.524-2.863 3.184.108 1.659 1.57 2.913 3.255 2.795 1.669-.117 2.929-1.538 2.821-3.18-.107-1.644-1.542-2.893-3.213-2.799Z"/><path d="M18.696 31.774c-1.566-1.175-3.22-2.236-4.776-3.422-.7-.533-.995-1.178-1.41-1.923l-1.443-2.626c-.58-1.051-1.268-2.077-1.782-3.16-.7-1.475.371-3.04 1.932-3.22 1.711-.1 2.239 1.435 2.938 2.642l1.643 2.809c.717 1.23.548.977 1.708 1.72 2.185 1.398 2.112 1.963 4.56 1.973h2.807c2.267-.002 4.278-.168 5.774 1.811.338.449.55 1.049.794 1.555l1.32 2.71c.946 1.915 1.957 3.8 2.899 5.716.423.86.959 1.641.57 2.64-.622 1.595-2.892 1.878-3.964.548-.32-.396-.5-.887-.725-1.338-.613-1.228-1.332-2.423-1.893-3.674-.067 2.96.093 5.92.25 8.875l.364 6.913c.039.677.218 1.64-.053 2.285-.643 1.534-2.133 2.137-3.695 1.493-1.725-.823-1.558-2.262-1.675-3.898l-.525-7.241c-.052-.68-.074-1.89-.294-2.49.122 1.854-.216 4.492-.335 6.38l-.215 3.293c-.043.688-.038 1.423-.175 2.099-.586 2.89-4.966 2.696-5.274-.127-.084-.774.027-1.6.067-2.377l.283-5.009c.103-1.886.263-3.78.317-5.668.084-2.935.114-6.343.008-9.289Zm-7.479-12.87c-.386.175-.592.366-.67.774.245.895 1.404 2.626 1.883 3.494l.94 1.709c1.127 2.09.942 1.971 2.887 3.326l2.535 1.771c1.711 1.194 1.465.97 1.46 2.902l-.001 2.443c0 4.327-.186 8.186-.428 12.507l-.235 4.07c-.037.608-.154 1.272-.11 1.877.08 1.108 1.638 1.554 2.216.524.343-.611.291-2.773.344-3.547l.52-7.365c.05-.67-.155-2.325.657-2.598.412-.14 1.617-.127 1.982.074.497.274.412 1.198.446 1.676l.64 8.645c.07 1.083-.199 4.175 1.733 3.684 1.494-.584.66-3.35.579-4.745l-.205-4.02c-.12-2.24-.2-4.281-.178-6.517l.001-4.91c0-.545-.176-2.381.993-1.906.59.24 1.014 1.652 1.285 2.185.323.637 2.8 5.594 3.14 5.856.38.295.993.082 1.189-.326.253-.53-.916-2.295-1.173-2.79-.614-1.184-1.208-2.384-1.804-3.577l-1.652-3.384c-1.39-2.823-1.656-2.696-5.094-2.695l-3.332.003c-1.906.002-1.608.003-3.186-.98l-2.409-1.521c-.378-.241-.674-.363-.938-.742-.815-1.168-1.775-2.922-2.478-4.177-.343-.611-.657-1.793-1.537-1.72ZM30.25 24.667l-.002-7.337c0-1.456.215-2.793 2.085-2.988 1.456-.02 2.915 0 4.372 0h1.314c1.594 0 2.813.482 2.831 2.362l.001 2.8c0 1.047.192 2.1-.628 2.913-.827.819-1.971.655-3.041.652-.596 0-4.25-.057-4.515.045-.415.161-1.986 1.257-2.417 1.553Zm4.745-9.211-1.745-.001c-1.432-.001-1.859.005-1.859 1.675l.003 5.438c1.303-.602.496-.568 2.122-.566h2.175l1.94.003c1.095 0 2.1.088 2.1-1.287v-2.94c-.002-2.081.194-2.324-2.225-2.323h-2.511Z"/><path d="M34.991 19.392c.054-.88.61-.913.995-1.457.16-.226.126-.606-.124-.76-.516-.317-.94.418-1.433.103-.872-.556.286-1.063.9-1.108 1.048-.065 2.102.676 1.815 1.779-.158.608-.757.75-1.12 1.184-.117.138-.046.335-.144.466-.083.111-.843.267-.889-.207ZM35.64 21.05a.553.553 0 0 1-.69-.347.54.54 0 0 1 .346-.683.553.553 0 0 1 .701.345.54.54 0 0 1-.357.686Z"/></g><defs><clipPath id="a"><path fill="#fff" transform="translate(9 13)" d="M0 0h33v24H0z"/></clipPath></defs></svg>