<svg width="50" height="50" fill="none" xmlns="http://www.w3.org/2000/svg"><circle cx="25" cy="25" r="25" fill="#F37E60"/><mask id="a" fill="#fff"><path d="M39.052 25.414a.938.938 0 0 1 0-.829l1.194-2.441a2.778 2.778 0 0 0-1.2-3.69l-2.4-1.273a.94.94 0 0 1-.487-.67l-.47-2.677a2.778 2.778 0 0 0-3.137-2.28l-2.691.38a.936.936 0 0 1-.788-.255l-1.953-1.89a2.778 2.778 0 0 0-3.88 0l-1.952 1.89a.939.939 0 0 1-.788.256l-2.691-.38a2.778 2.778 0 0 0-3.138 2.28l-.47 2.676a.938.938 0 0 1-.487.67l-2.4 1.274a2.778 2.778 0 0 0-1.199 3.689l1.194 2.441a.938.938 0 0 1 0 .83l-1.194 2.44a2.778 2.778 0 0 0 1.199 3.69l2.4 1.273a.94.94 0 0 1 .487.67l.47 2.677a2.776 2.776 0 0 0 3.138 2.28l2.69-.38a.937.937 0 0 1 .789.256l1.953 1.89a2.78 2.78 0 0 0 3.879 0l1.953-1.89a.939.939 0 0 1 .788-.256l2.69.38a2.778 2.778 0 0 0 3.139-2.28l.47-2.676a.938.938 0 0 1 .486-.67l2.4-1.275a2.778 2.778 0 0 0 1.2-3.688l-1.194-2.442Zm-.87 4.5-2.4 1.274a2.772 2.772 0 0 0-1.44 1.982l-.47 2.676a.94.94 0 0 1-1.062.772l-2.69-.38a2.77 2.77 0 0 0-2.33.756l-1.954 1.89a.94.94 0 0 1-1.312 0l-1.953-1.89a2.769 2.769 0 0 0-2.33-.757l-2.69.38a.94.94 0 0 1-1.062-.77l-.47-2.677a2.771 2.771 0 0 0-1.44-1.982l-2.4-1.274a.94.94 0 0 1-.406-1.248l1.193-2.442c.38-.778.38-1.67 0-2.45l-1.193-2.44a.94.94 0 0 1 .405-1.249l2.401-1.274a2.772 2.772 0 0 0 1.44-1.982l.47-2.676a.94.94 0 0 1 1.061-.771l2.69.38a2.771 2.771 0 0 0 2.33-.757l1.954-1.89a.94.94 0 0 1 1.312 0l1.953 1.89a2.771 2.771 0 0 0 2.33.757l2.691-.38a.94.94 0 0 1 1.062.77l.47 2.678c.149.853.674 1.576 1.44 1.982l2.4 1.273a.94.94 0 0 1 .405 1.248l-1.193 2.442a2.771 2.771 0 0 0 0 2.45l1.193 2.44a.94.94 0 0 1-.405 1.249Z"/></mask><path d="M39.052 25.414a.938.938 0 0 1 0-.829l1.194-2.441a2.778 2.778 0 0 0-1.2-3.69l-2.4-1.273a.94.94 0 0 1-.487-.67l-.47-2.677a2.778 2.778 0 0 0-3.137-2.28l-2.691.38a.936.936 0 0 1-.788-.255l-1.953-1.89a2.778 2.778 0 0 0-3.88 0l-1.952 1.89a.939.939 0 0 1-.788.256l-2.691-.38a2.778 2.778 0 0 0-3.138 2.28l-.47 2.676a.938.938 0 0 1-.487.67l-2.4 1.274a2.778 2.778 0 0 0-1.199 3.689l1.194 2.441a.938.938 0 0 1 0 .83l-1.194 2.44a2.778 2.778 0 0 0 1.199 3.69l2.4 1.273a.94.94 0 0 1 .487.67l.47 2.677a2.776 2.776 0 0 0 3.138 2.28l2.69-.38a.937.937 0 0 1 .789.256l1.953 1.89a2.78 2.78 0 0 0 3.879 0l1.953-1.89a.939.939 0 0 1 .788-.256l2.69.38a2.778 2.778 0 0 0 3.139-2.28l.47-2.676a.938.938 0 0 1 .486-.67l2.4-1.275a2.778 2.778 0 0 0 1.2-3.688l-1.194-2.442Zm-.87 4.5-2.4 1.274a2.772 2.772 0 0 0-1.44 1.982l-.47 2.676a.94.94 0 0 1-1.062.772l-2.69-.38a2.77 2.77 0 0 0-2.33.756l-1.954 1.89a.94.94 0 0 1-1.312 0l-1.953-1.89a2.769 2.769 0 0 0-2.33-.757l-2.69.38a.94.94 0 0 1-1.062-.77l-.47-2.677a2.771 2.771 0 0 0-1.44-1.982l-2.4-1.274a.94.94 0 0 1-.406-1.248l1.193-2.442c.38-.778.38-1.67 0-2.45l-1.193-2.44a.94.94 0 0 1 .405-1.249l2.401-1.274a2.772 2.772 0 0 0 1.44-1.982l.47-2.676a.94.94 0 0 1 1.061-.771l2.69.38a2.771 2.771 0 0 0 2.33-.757l1.954-1.89a.94.94 0 0 1 1.312 0l1.953 1.89a2.771 2.771 0 0 0 2.33.757l2.691-.38a.94.94 0 0 1 1.062.77l.47 2.678c.149.853.674 1.576 1.44 1.982l2.4 1.273a.94.94 0 0 1 .405 1.248l-1.193 2.442a2.771 2.771 0 0 0 0 2.45l1.193 2.44a.94.94 0 0 1-.405 1.249Z" fill="#fff" stroke="#F37E60" stroke-width=".4" mask="url(#a)"/><path d="M28.871 26.638a3.288 3.288 0 0 1 3.284 3.283 3.288 3.288 0 0 1-3.284 3.283 3.287 3.287 0 0 1-3.283-3.283 3.287 3.287 0 0 1 3.283-3.283Zm1.818-8.31a.823.823 0 0 1 1.163 1.163l-12.18 12.18a.82.82 0 0 1-1.163 0h-.001a.823.823 0 0 1 0-1.163l12.18-12.18Zm-1.818 9.955a1.64 1.64 0 0 0-1.638 1.638 1.64 1.64 0 0 0 1.638 1.638 1.64 1.64 0 0 0 1.638-1.638 1.64 1.64 0 0 0-1.638-1.638ZM21.49 16.794a3.288 3.288 0 0 1 3.284 3.284 3.287 3.287 0 0 1-3.284 3.284 3.288 3.288 0 0 1-3.284-3.284 3.288 3.288 0 0 1 3.284-3.284Zm0 1.646a1.64 1.64 0 0 0 0 3.276 1.64 1.64 0 0 0 1.638-1.638 1.64 1.64 0 0 0-1.638-1.638Z" fill="#fff" stroke="#F37E60" stroke-width=".2"/></svg>