<svg width="50" height="50" fill="none" xmlns="http://www.w3.org/2000/svg"><circle cx="25" cy="25" r="25" fill="#F37E60"/><path d="M13.682 16.064c.004-.353-.044-1.452.023-1.711.118-.46.966-.325 1.31-.325l1.705.001h6.19c1.096.004 1.594.272 2.353 1.037 1.339-1.339 2.286-1.037 4.005-1.037h6.044c1.164 0 1.571-.297 1.564 1.019l-.001 1.016 1.091-.002c.247 0 .605-.055.812.116.36.297.226 1.828.226 2.291 0 .357.101 1.468-.14 1.735-.279.308-.833.056-.886-.328-.037-.267-.007-.593-.006-.865V17.1h-1.097v4.427c.686-.015 1.705.96 2.005 1.462.511.853-.211 1.42-.749 1.937-.423.406-.867.81-1.256 1.25v6.495c.003 1.182.269 1.35-.943 1.34l-8.191-.002c-.891 0-1.82-.01-1.97 1.126.269.026.56.001.833 0h11.409l.001-7.245c0-.31-.078-.863.058-1.146.18-.374.829-.291.912.11.052.254.02.572.02.832v5.75c0 .323.072 2.243-.059 2.441-.292.444-1.502.266-2.013.266H13.55c-.498 0-1 .016-1.497-.007-.778-.035-.529-1.315-.528-1.917V17.55c-.004-1.143-.248-1.487 1.097-1.487l1.06.001Zm1.034-.998v17.927h8.179c.892-.003 1.03-.055 1.86.344l.017-.015c-.037-.54-.018-1.088-.018-1.63l.001-13.913c0-.445.041-1.015-.031-1.44-.22-1.285-1.392-1.274-2.36-1.274l-1.812.002c-1.945 0-3.892-.021-5.836 0Zm14.696 0H28.25c-1.62-.002-2.49.081-2.481 2.077l.001 16.194c.739-.375 1.122-.345 1.928-.345h5.962c.73 0 1.464.022 2.192 0 .026-1.23 0-2.468 0-3.7v-2.136c-.435.431-2.23 2.322-2.435 2.415-.155.07-1.792.225-2.024.223-.686-.009-.568-.685-.568-1.16 0-1.387-.252-1.194.681-2.097l3.516-3.526c.272-.278.564-.537.83-.82v-7.124h-6.44ZM12.545 17.1c-.012.238-.002.479 0 .717v17.319h12.21c-.133-1.157-1.052-1.13-1.892-1.127h-6.971c-.379.001-1.588.046-1.871-.047-.42-.137-.339-.638-.339-.983V17.1c-.378 0-.758-.007-1.137 0Zm24.448 5.39-3.655 3.678c-.381.39-.79.756-1.16 1.157.363.321.7.67 1.06.993l4.374-4.341c.137-.139.285-.269.401-.426-.075-.108-.88-.965-1.02-1.06Zm-5.162 5.928v.338c.115.001.233.008.348 0-.102-.117-.213-.257-.348-.338Z" fill="#fff"/><path d="M22.576 19.537h-4.98c-.285 0-.82.075-1.058-.118-.332-.269-.229-.861.381-.874h4.944c.286 0 .79-.072 1.038.1.389.27.165.848-.325.892ZM33.507 19.537H28.5c-.214 0-.438.015-.65-.01-.593-.068-.632-.958.155-.982l4.986-.001c.213 0 .435-.015.646.006.556.057.632.995-.129.986ZM22.574 22.876h-5.046c-.233 0-.476.013-.707-.012-.604-.064-.695-.943.097-.98h5.034c.24 0 .49-.011.73.01.54.05.558.887-.108.982ZM33.632 22.876c-.372.012-.748 0-1.12 0l-3.755.002c-.277 0-.882.074-1.115-.099-.414-.308-.205-.84.264-.895.345-.014.697 0 1.043 0h3.726c.283 0 .937-.08 1.178.082.377.255.228.868-.22.91ZM21.75 26.177h-4.452c-.186 0-.383.013-.568-.007-.378-.041-.509-.571-.249-.826.223-.217.896-.144 1.205-.142h4.336c.376 0 1.057-.087 1.071.466.018.673-.913.511-1.344.509ZM30.754 26.176c-.141.017-.3.001-.442.001h-.917c-.462-.001-1.08.04-1.527.001-.554-.047-.633-.855.04-.977.182-.012.371 0 .554 0h1.095c.495 0 1.511-.218 1.623.428.049.278-.164.51-.426.547ZM22.73 29.471c-.26.014-.528 0-.789 0h-1.58c-.548 0-3.39.091-3.74-.058-.438-.185-.328-.79.104-.935.286-.016.58 0 .867 0h3.785c.314 0 1.164-.072 1.437.052.45.204.355.806-.085.941Z" fill="#fff"/></svg>