<svg width="50" height="50" fill="none" xmlns="http://www.w3.org/2000/svg"><circle cx="25" cy="25" r="25" fill="#F37E60"/><path d="M36.353 29.64c.523-.666.773-1.381.741-2.117-.032-.811-.395-1.446-.693-1.836.346-.864.48-2.225-.678-3.281-.848-.774-2.289-1.12-4.284-1.025a16.731 16.731 0 0 0-2.625.337h-.006c-.267.048-.55.106-.837.17-.022-.341.037-1.19.666-3.1.747-2.273.705-4.012-.138-5.175-.886-1.222-2.3-1.318-2.716-1.318-.4 0-.768.165-1.03.47-.592.688-.523 1.958-.448 2.545-.704 1.888-2.678 6.52-4.348 7.805-.032.022-.059.049-.086.075a5.732 5.732 0 0 0-1.045 1.569 2.2 2.2 0 0 0-1.057-.267h-3.254c-1.228 0-2.22.998-2.22 2.22v8.67c0 1.227.998 2.22 2.22 2.22h3.254c.475 0 .918-.15 1.28-.406l1.255.15c.192.026 3.606.458 7.112.389.635.048 1.232.074 1.787.074.955 0 1.787-.074 2.481-.224 1.633-.346 2.748-1.04 3.313-2.06a3.267 3.267 0 0 0 .363-2.043c1.062-.96 1.249-2.022 1.211-2.769a3.602 3.602 0 0 0-.218-1.072Zm-21.839 6.52a.78.78 0 0 1-.778-.778v-8.676a.78.78 0 0 1 .778-.779h3.255a.78.78 0 0 1 .78.78v8.67a.78.78 0 0 1-.78.778h-3.254v.006Zm20.473-7.143a.717.717 0 0 0-.096.87c0 .005.218.378.245.89.037.7-.299 1.318-1.003 1.846a.727.727 0 0 0-.245.822c0 .005.229.71-.145 1.377-.357.64-1.152 1.099-2.358 1.355-.966.208-2.278.245-3.89.117h-.074c-3.43.075-6.899-.373-6.936-.379h-.005l-.54-.064c.033-.15.049-.31.049-.47v-8.675c0-.23-.038-.453-.102-.661.096-.358.363-1.153.993-1.83 2.395-1.9 4.738-8.308 4.839-8.585a.676.676 0 0 0 .032-.358c-.09-.597-.059-1.328.07-1.547.282.005 1.045.085 1.504.72.544.753.523 2.097-.064 3.88-.896 2.715-.971 4.145-.261 4.774.352.315.821.331 1.163.209.325-.075.634-.14.928-.187.021-.006.048-.01.07-.016 1.637-.358 4.572-.576 5.59.352.865.79.252 1.835.182 1.947a.713.713 0 0 0 .128.929c.006.005.566.533.593 1.243.021.475-.203.96-.667 1.44Z" fill="#fff"/></svg>