<svg width="50" height="50" fill="none" xmlns="http://www.w3.org/2000/svg"><circle cx="25" cy="25" r="25" fill="#F37E60"/><path d="M25.5 10.5c.035 0 .073.019.094.047l.002.003 4.053 5.317v.001c.031.041.034.093.015.132a.125.125 0 0 1-.115.07h-1.542v10.185a13.63 13.63 0 0 0-5.023-4.535v-5.65h-1.54a.137.137 0 0 1-.114-.068c-.025-.063-.009-.108.004-.124l.006-.007 4.056-5.321.002-.003a.138.138 0 0 1 .102-.047ZM15.79 20.762a.154.154 0 0 1 .075.013.124.124 0 0 1 .067.113v1.541h.808c6.216 0 11.269 5.065 11.269 11.283v5.555a.122.122 0 0 1-.01.047.123.123 0 0 1-.026.04.122.122 0 0 1-.04.026.12.12 0 0 1-.047.01h-4.778a.124.124 0 0 1-.087-.036.124.124 0 0 1-.036-.087v-6.01a5.81 5.81 0 0 0-5.805-5.806h-1.248v1.542a.124.124 0 0 1-.07.116c-.05.024-.096.014-.123-.007l-.007-.005-5.32-4.057h-.003l-.035-.044a.122.122 0 0 1-.013-.051c0-.049.016-.078.05-.104l5.321-4.057.007-.005a.095.095 0 0 1 .051-.017Zm19.472.017.008.005 5.316 4.054c.04.034.054.07.055.105a.121.121 0 0 1-.014.053.124.124 0 0 1-.035.043l-.002.001-5.32 4.057-.008.005a.114.114 0 0 1-.115.01l-.006-.003-.03-.02a.125.125 0 0 1-.042-.096v-1.542h-1.248c-1.336 0-2.57.457-3.555 1.222v-5.508a11.236 11.236 0 0 1 4.003-.736h.8v-1.541c0-.04.024-.086.068-.113.063-.026.108-.01.125.004Z" stroke="#fff"/></svg>