<svg width="320" height="210" fill="none" xmlns="http://www.w3.org/2000/svg"><g clip-path="url(#a)"><circle cx="254.408" cy="84.254" r="42.592" fill="#fff"/><circle cx="191.383" cy="64.975" r="53.816" fill="#fff"/><rect x="46.293" y="-.907" width="237.845" height="120.837" rx="3.366" fill="#C6CEDE"/><rect x="48.29" y="1.085" width="233.85" height="116.842" rx="3.366" fill="#ABB6CC"/><g clip-path="url(#b)"><rect x="51.449" y="3.418" width="227.526" height="112.182" rx="3.236" fill="#F5F9FF"/><path d="M231.136 10.797c-6.255-4.296-12.97-7.892-20.078-10.494C174.731-12.99 129.48-2.89 100.533 22.22c-5.96 5.17-11.383 11.019-15.79 17.6-6.594 9.838-8.869 21.448-14.73 31.428-5.95 10.134-4.921 24.542-4.725 35.965.23 12.998.919 26.171 4.932 38.524 4.134 12.746 11.668 24.159 20.504 34.172 8.442 9.565 20.264 11.402 32.468 12.648a375.634 375.634 0 0 0 82.924-.754c5.927-.711 11.974-1.607 17.245-4.428 6.167-3.301 10.738-8.92 15.145-14.397 8.574-10.68 17.322-21.677 21.62-34.719 5.314-16.124 5.03-34.883 5.183-51.706.066-7.128 0-14.299-1.137-21.328-2.537-15.752-9.131-33.943-20.909-44.721a107.626 107.626 0 0 0-12.127-9.708Z" fill="#DCE9FE"/><g clip-path="url(#c)"><path d="M179.259 33.917c0-16.15 4.772-16.31 10.695-16.314-.995-1.362-2.23-2.032-2.23-2.032h15.742l3.183 12.075s-.065 2.215-2.432 3.685c.099.137.199.294.286.478 1.361 2.728-1.471 7.526-3.979 8.322V51.8c3.442.734 9.906 1.618 13.909-.892 5.66-3.55-.088-11.792-1.415-15.484-1.326-3.693-2.119-7.775-2.119-12.481 0-4.706-4.978-13.583-13.71-13.583-5.874 0-6.72 1.864-6.72 1.864s-2.943-2.415-8.512-.02c-4.578 1.97-9.087 7.297-7.051 17.597 2.035 10.3-6.819 12.37-3.275 19.796 2.345 4.913 11.092 4.614 15.19 4.185v-2.95c-5.081-1.002-7.562-7.625-7.562-15.916Z" fill="#27282D"/><path d="m199.821 32.576.008-.008h-.008v.008Z" fill="#D5694D"/><path d="m186.483 128.949-.225-8.628h-2.87v6.401a.196.196 0 0 1-.195.195.196.196 0 0 1-.194-.195v-6.401h-11.324a3.968 3.968 0 0 1-3.961-3.976l.774-31.484c-.05.072-.099.145-.149.221l-1.162 36.008 2.092 1.017 15.64 7.614c.709.345 1.589-.088 1.574-.772Z" fill="#F37E60"/><path d="M184.993 58.955c.015.011.027.026.046.042.648.616 1.364 1.201 1.978 1.592 1.647 1.044 3.488 1.549 5.363 1.618.267.015.53.015.8 0 3.267-.088 6.598-1.45 9.232-3.574l.004-.004 2.062-1.656-3.953-1.722V40.134c-.43.138-.85.153-1.238.023a1.323 1.323 0 0 1-.389-.199c-1.757 5.663-5.805 9.673-10.143 9.99a8.988 8.988 0 0 0 2.211-.18c1.826-.379 4.437-1.55 6.499-4.955a.192.192 0 0 1 .266-.065.194.194 0 0 1 .065.268c-.941 1.558-2.077 2.797-3.373 3.685a9.302 9.302 0 0 1-3.4 1.45 9.44 9.44 0 0 1-1.898.195c-1.056 0-1.742-.18-1.784-.191a.196.196 0 0 1-.137-.241c0-.004.003-.012.007-.016a6.38 6.38 0 0 1-.392-.065V55.691l-3.332 1.519c.279.436.721.957 1.231 1.473l.275.272Z" fill="#FFBEA5"/><path d="M199.646 32.79s.065-.08.176-.21v-.007c-3.549.172-5.79-2.407-7.105-5.326a2.627 2.627 0 0 0-.705.455.513.513 0 0 1-.362.15.531.531 0 0 1-.374-.158.526.526 0 0 1 .008-.738 3.8 3.8 0 0 1 1.033-.67c-.736-1.955-1.079-3.948-1.144-5.291-.069-1.404-.598-2.53-1.22-3.386-5.923 0-10.695.164-10.695 16.314 0 8.291 2.485 14.914 7.562 15.917.13.027.259.046.393.065a.191.191 0 0 1 .232-.123c.012.004.511.134 1.311.169 4.338-.318 8.386-4.328 10.143-9.99-1.936-1.389.747-7.17.747-7.17Zm-5.05-1.468c.393 0 .713.562.713 1.258 0 .697-.32 1.26-.713 1.26-.393 0-.713-.563-.713-1.26 0-.696.32-1.258.713-1.258Zm-10.989 2.517c-.393 0-.713-.562-.713-1.259 0-.696.32-1.258.713-1.258.393 0 .713.562.713 1.258 0 .697-.32 1.26-.713 1.26Zm2.527-6.194a.516.516 0 0 1-.728.095c-2.074-1.599-3.678-.103-3.743-.038a.513.513 0 0 1-.362.15.531.531 0 0 1-.374-.158.526.526 0 0 1 .008-.738c.023-.023.587-.57 1.498-.842.842-.252 2.15-.317 3.606.804a.521.521 0 0 1 .095.727Zm.747 11.134c-.271-.452-.179-1.122.294-2.109 1.448-3.026.278-5.91-.294-7.013a.198.198 0 0 1 .084-.264.196.196 0 0 1 .263.084c.598 1.152 1.822 4.179.301 7.362-.404.845-.507 1.412-.312 1.737.171.287.606.436 1.326.467a.196.196 0 0 1-.008.39h-.007c-.877-.035-1.399-.241-1.647-.654Zm5.386 2.827c-.774 1.136-1.673 1.798-2.668 1.97-.179.031-.355.046-.522.046a3.26 3.26 0 0 1-1.796-.547.194.194 0 0 1-.042-.271.192.192 0 0 1 .271-.043c.015.012.896.632 2.028.433.888-.157 1.696-.762 2.405-1.806a.195.195 0 0 1 .271-.05c.091.054.114.176.053.268Z" fill="#FFBEA5"/><path d="M204.508 31.807a3.493 3.493 0 0 0-.286-.478c-.957.593-2.295 1.068-4.155 1.22-.08.008-.16.012-.24.016l-.008.008c-.114.13-.175.21-.175.21s-2.684 5.781-.743 7.17c.114.08.244.15.388.199.389.13.808.111 1.239-.023 2.508-.792 5.34-5.59 3.98-8.322Zm-3.721 7.442a.195.195 0 0 1-.194.18h-.015a.196.196 0 0 1-.179-.21c.003-.05.388-4.821.007-6.191a.194.194 0 1 1 .374-.107c.404 1.438.026 6.13.007 6.328Z" fill="#FFBEA5"/><path d="m201.74 93.348.465-23.763-9.026-7.38a6.977 6.977 0 0 1-.8 0c-.763.661-2.524 2.2-4.308 3.764l4.189-3.317c.004 0 .004-.004.008-.004.004-.004.008-.008.012-.008l.019-.011c.003-.004.007-.004.015-.008.007-.004.015-.004.023-.008.004 0 .007-.003.011-.003.012-.004.023-.004.031-.004h.003c.012 0 .023 0 .035.004.004 0 .007.004.011.004.008.003.015.003.023.007.004 0 .008.004.011.008l.02.011c.003.004.007.004.011.008.004 0 .004.004.008.004l9.231 7.526a.195.195 0 0 1 .027.275.2.2 0 0 1-.152.073.204.204 0 0 1-.122-.042l-8.916-7.266v35.866a.195.195 0 0 1-.194.195.196.196 0 0 1-.195-.195V63.206l-6.403 5.074a.195.195 0 0 1-.275-.03c-.003-.008-.007-.012-.011-.02-.111.096-.217.191-.324.283l.774 35.671.087-.169 15.712-10.667ZM186.099 111.149l.198 9.171h5.908l-6.106-9.171ZM202.421 58.625l-.008.004.008-.004ZM184.994 58.954c.016.016.031.027.047.043-.016-.016-.031-.031-.047-.043Z" fill="#FCF5F5"/><path d="m185.542 67.974 2.531-2.005c1.784-1.56 3.549-3.099 4.307-3.765-1.875-.069-3.716-.574-5.363-1.618-.613-.39-1.33-.976-1.978-1.592l-.046-.042c-.091-.088-.187-.18-.274-.272.08.08.164.165.248.245l.205 9.585c.107-.092.214-.188.324-.284a.193.193 0 0 1 .046-.252ZM202.207 69.583l.213-10.958-.004.004c-2.633 2.123-5.965 3.486-9.231 3.574l9.022 7.38Z" fill="#FCF5F5"/><path d="m218.82 108.028.599-23.676c-.263-.199-.526-.39-.797-.574l-.133 3.137-.923 21.637c.275-.115.595-.245.946-.398.099-.034.202-.08.308-.126Z" fill="#F37E60"/><path d="M192.322 26.279c.141-.065.297-.123.465-.172.842-.253 2.149-.318 3.605.803a.52.52 0 0 1-.632.827c-1.273-.98-2.367-.796-3.038-.494 1.311 2.92 3.556 5.498 7.105 5.326h.007c.08-.004.157-.008.24-.015 1.861-.153 3.198-.624 4.155-1.22 2.367-1.47 2.432-3.685 2.432-3.685l-3.19-12.076h-15.742s1.234.67 2.229 2.032c.625.853 1.151 1.982 1.22 3.386.061 1.34.408 3.333 1.144 5.288Z" fill="#27282D"/><path d="m202.418 58.627-.214 10.958-.465 23.764 2.139-1.45.335-32.824c0-.108.088-.196.194-.196h.004c.107 0 .195.089.195.2l-.332 32.552.507-.345 11.824 17.662c.198-.081.53-.211.968-.391l.922-21.636.134-3.138a14.564 14.564 0 0 0-1.251-.753c-7.714-4.102 1.594-20.401 1.91-20.948l-.793-.28-13.44-4.744-.468-.168-.1.08-2.069 1.657ZM169.285 73.8c.141 1.335.198 2.628.206 3.741.008.922-.011 1.783-.046 2.54v.012c-.007.2-.019.394-.026.578l.053 2.697s-.347.548-.983 1.497l-.774 31.484a3.967 3.967 0 0 0 3.96 3.976H183V60.228c0-.107.087-.195.194-.195.107 0 .194.088.194.195v60.093h2.905l-.198-9.171-2.043-3.069.003-.004.873-1.851a.188.188 0 0 1 .05-.104l.373-.796.027-.057.019-.042.545-1.048-.774-35.67-.205-9.585c-.084-.08-.164-.165-.248-.245-.507-.517-.949-1.037-1.231-1.473-.004-.008-.012-.016-.016-.023l-4.089 1.465-10.342 3.696v.008c.012-.004.016-.008.016-.008l.232 11.455Z" fill="#F37E60"/><path d="M204.603 59.076a.199.199 0 0 0-.194-.199h-.004a.196.196 0 0 0-.195.196l-.335 32.824.393-.268.335-32.553Z" fill="#CE654A"/><path d="m186.62 104.043-.271.581.866-.581L204.573 92.4l11.248 16.9c.187-.085.377-.173.56-.268l.214-.084-11.824-17.662-.507.345-.393.267-2.138 1.45-15.708 10.668-.087.168-.545 1.048 1.227-1.189Z" fill="#87A0D7"/><path d="m185.382 105.273-.028.054.028-.054ZM203.539 93.695a.192.192 0 0 1 .27.053l10.661 16.066c.168-.054.343-.111.519-.176l-10.741-16.203a.196.196 0 0 1 .053-.272.194.194 0 0 1 .27.053l10.768 16.242a.15.15 0 0 1 .019.038c.157-.061.313-.126.469-.195l-11.248-16.903-17.358 11.642-.865.582-.389.838 17.572-11.765Z" fill="#fff"/><path d="m203.59 94.128-17.949 12.014-.591 1.27 18.197-12.205 9.956 14.956c.247-.057.549-.134.876-.229L203.59 94.128Z" fill="#fff"/><path d="m184.932 106.226.049-.103a.214.214 0 0 0-.049.103Z" fill="#D5694D"/><path d="m203.59 94.127 10.489 15.806c.126-.038.256-.077.389-.119l-10.661-16.065a.205.205 0 0 0-.126-.084.18.18 0 0 0-.145.03l-17.575 11.765-.316.681 17.945-12.014ZM204.569 93.219a.196.196 0 1 0-.324.218l10.741 16.203c.122-.046.244-.091.37-.141a.104.104 0 0 0-.019-.038l-10.768-16.242Z" fill="#777"/><path d="M218.958 118.809c-.766.138-1.456.226-2.047.256 0 0-5.748 2.354-13.84 1.776-8.092-.578-9.064-1.776-8.82-2.441.171-.467.827-.364.827-.364s-1.136-.57-1.193-1.457c-.027-.418.332-.59.72-.651l-1.398-2.104a1.945 1.945 0 0 1 .533-2.694l8.504-5.704a1.929 1.929 0 0 1 2.683.535l1.765 2.655c.099.027.187.046.271.062 1.281.222 4.509.696 5.485 1.637 0 0 .293-.046.758-.153l-9.956-14.956-18.197 12.205.591-1.27.317-.681.388-.838.271-.582-1.216 1.187-.019.042-.027.057-.373.796-.05.103-.873 1.852-.003.004 2.043 3.068 6.106 9.171 9.803 14.731 14.885-9.217 4.726-2.927.046-.027-2.71-4.071Z" fill="#87A0D7"/><path d="M195.506 115.93s-1.723-.677-1.502-1.565c.221-.888 1.193-.578 1.769-.62 0 0-2.013-.489-1.334-1.775.457-.872 8.587.356 13.055-.62 0 0-5.173-2.487-5.219-3.596-.042-1.041 2.981.489 4.418.872l-1.765-2.655a1.929 1.929 0 0 0-2.683-.536l-8.508 5.701a1.945 1.945 0 0 0-.533 2.693l1.398 2.105c.435-.069.904-.004.904-.004Z" fill="#fff"/><path d="M216.385 109.034a11.87 11.87 0 0 1-1.399.605c-.175.065-.35.122-.518.176-.133.042-.263.084-.389.118a16.35 16.35 0 0 1-.877.23c-.465.107-.758.153-.758.153-.972-.937-4.201-1.416-5.485-1.638a3.404 3.404 0 0 1-.271-.061c-1.437-.382-4.459-1.909-4.417-.872.045 1.109 5.218 3.596 5.218 3.596-4.467.976-12.598-.252-13.055.62-.675 1.286 1.334 1.776 1.334 1.776-.576.045-1.548-.268-1.769.619-.221.888 1.502 1.565 1.502 1.565s-.469-.065-.903.004c-.385.061-.747.233-.721.65.058.888 1.193 1.458 1.193 1.458s-.659-.103-.827.364c-.244.665.728 1.863 8.82 2.441 8.093.577 13.841-1.776 13.841-1.776l-.519-10.028Zm-20.022 4.603c.038.004 3.842.268 7.131-.214a.195.195 0 0 1 .057.386c-1.585.234-3.285.295-4.635.295-1.49 0-2.561-.077-2.58-.077a.193.193 0 0 1-.179-.21.19.19 0 0 1 .206-.18Zm-.279 2.219c.046 0 4.422.073 7.41-.402a.195.195 0 0 1 .221.165.195.195 0 0 1-.164.222c-2.321.367-5.462.413-6.811.413-.408 0-.652-.004-.659-.004a.193.193 0 0 1-.191-.199c0-.111.088-.195.194-.195Zm6.762 2.307a.196.196 0 0 1 .023.391c-.461.03-.968.042-1.49.042-2.607 0-5.634-.306-5.672-.31a.196.196 0 0 1 .038-.391c.05.008 4.376.444 7.101.268Z" fill="#FFBEA5"/><path d="M217.374 83.028a14.575 14.575 0 0 1 2.047 1.328c6.773 5.176 11.511 16.517 11.511 16.517-1.612.991-2.477 2.399-6.548 4.526a81.865 81.865 0 0 1-5.561 2.632l-.309.134.697 10.602c.21-.038.427-.084.648-.13a44.52 44.52 0 0 0 2.771-.688c6.328-1.764 14.973-5.269 20.423-8.203 7.429-3.995 4.334-7.63-6.018-26.802-10.349-19.184-17.744-20.88-17.744-20.88l-.007.016c-.317.547-9.621 16.847-1.91 20.948Zm22.367 15.87c.107.004.19.096.187.203a.196.196 0 0 1-.202.188c-3.713-.172-7.917 1.695-7.959 1.714a.206.206 0 0 1-.08.015.196.196 0 0 1-.08-.375c.038-.015 4.326-1.92 8.134-1.744Zm-8.393.942c.019-.027.461-.635 1.418-1.34.88-.642 2.382-1.488 4.543-1.863a.194.194 0 0 1 .225.161.195.195 0 0 1-.16.226c-2.078.36-3.518 1.167-4.365 1.783-.914.665-1.345 1.255-1.349 1.262a.194.194 0 0 1-.274.042.201.201 0 0 1-.038-.271Zm-10.593-32.66c.099.046.141.161.095.26-1.227 2.656-1.761 6.23-1.993 8.942.514-1.787 1.193-2.957 1.749-3.68.873-1.14 1.639-1.47 1.674-1.485a.196.196 0 0 1 .152.36c-.007.003-.724.317-1.536 1.388-.755.991-1.746 2.855-2.195 6.084-.069 1.92-.016 3.244-.016 3.264a.195.195 0 0 1-.186.202h-.008a.196.196 0 0 1-.194-.187c0-.023-.092-2.4.129-5.425.206-2.797.736-6.738 2.07-9.63a.195.195 0 0 1 .259-.093Z" fill="#F37E60"/><path d="m216.386 109.035.526 10.032c.591-.027 1.28-.115 2.047-.256l.247-.046-.697-10.602c-.351.149-.667.283-.945.398-.435.18-.767.313-.969.39l-.209.084Z" fill="#FCF5F5"/><path d="M218.419 76.905c-.225 3.023-.129 5.399-.129 5.426a.193.193 0 0 0 .194.187h.008a.196.196 0 0 0 .186-.203c0-.019-.053-1.339.016-3.263v.011a.195.195 0 0 1-.195.169h-.026a.2.2 0 0 1-.168-.222c.137-.999.328-1.868.545-2.629.232-2.713.766-6.286 1.993-8.941a.194.194 0 0 0-.095-.26.193.193 0 0 0-.259.095c-1.334 2.893-1.86 6.834-2.07 9.63Z" fill="#CE654A"/><path d="M218.473 79.228h.026a.2.2 0 0 0 .195-.168v-.012c.449-3.23 1.44-5.089 2.195-6.083.812-1.072 1.529-1.39 1.536-1.39a.196.196 0 0 0-.152-.359c-.031.015-.801.344-1.673 1.485-.557.723-1.235 1.894-1.75 3.68-.217.762-.408 1.63-.545 2.629a.199.199 0 0 0 .168.218Z" fill="#D5694D"/><path d="M196.337 114.028c.019 0 1.086.077 2.58.077 1.353 0 3.053-.061 4.635-.295a.194.194 0 0 0 .164-.222.194.194 0 0 0-.221-.164c-3.289.486-7.093.218-7.132.214a.196.196 0 0 0-.209.18.198.198 0 0 0 .183.21Z" fill="#D29077"/><path d="M196.082 116.246c.012 0 .256.003.66.003 1.349 0 4.49-.042 6.811-.413a.196.196 0 0 0 .164-.222.193.193 0 0 0-.221-.164c-2.988.474-7.364.405-7.406.402h-.004a.192.192 0 0 0-.194.191.197.197 0 0 0 .19.203ZM231.503 100.905a.19.19 0 0 0 .179.114.21.21 0 0 0 .08-.015c.042-.019 4.246-1.886 7.958-1.714a.194.194 0 0 0 .203-.188.194.194 0 0 0-.187-.202c-3.804-.176-8.092 1.729-8.138 1.748a.198.198 0 0 0-.095.257ZM231.393 100.11a.206.206 0 0 0 .114.039.197.197 0 0 0 .161-.081c.003-.007.434-.596 1.349-1.262.842-.616 2.287-1.424 4.364-1.783a.195.195 0 0 0 .16-.226.197.197 0 0 0-.225-.16c-2.161.374-3.663 1.22-4.543 1.863-.961.704-1.403 1.312-1.418 1.339a.187.187 0 0 0 .038.271Z" fill="#D5694D"/><path d="M134.362 82.528c0-.004 0-.004 0 0 0 0-6.491-6.838-9.586-9.145-1.727-1.29-5.874-3.99-7.577-5.161l.827 4.547c.499-.046-.164 1.207 1.3 2.76.144.154 3.922-1.193 4.074-1.036a948.528 948.528 0 0 0 3.934 3.282s.004.05.007.134c1.068.685 1.445.731 1.453.731h-.008l-.011.39c-.054 0-.42-.034-1.422-.65.019 1.408-.114 4.695-1.834 3.39-.598-.455-1.246-1.132-1.883-1.91 1.178 1.566 2.135 2.507 2.154 2.522.076.077.08.2.004.276a.2.2 0 0 1-.141.06.205.205 0 0 1-.137-.053c-.023-.023-2.247-5.222-3.749-7.4l-1.43-.284c-.376.307-1.43-.445-.614 1.229-1.123-.138 1.229 2.765 2.709 3.417.103-.03.21.031.24.138.217.78.057 1.462-.415 1.772a.988.988 0 0 1-.366.145c.004.008.004.02.004.027.003.03.053.711-.408 1.01a.833.833 0 0 1-.469.13c-.297 0-.663-.119-1.086-.352-1.83-1.014-3.816-4.477-3.9-4.626a.195.195 0 0 1 .073-.268.193.193 0 0 1 .266.073c.02.034 2.017 3.516 3.755 4.477.537.298.938.378 1.155.237.221-.142.24-.517.232-.65 0-.02 0-.039.004-.058-.297-.046-.617-.203-.941-.467a2.267 2.267 0 0 1-.248-.237l-1.002-.23-.74-2.25a71.325 71.325 0 0 1-1.727-2.968.191.191 0 0 1 .077-.264.19.19 0 0 1 .263.076c.007.016.346.635.827 1.458l-.644-1.951.497-2.633s-.105.09.147.553l-.827-4.547c-.595-.295-1.152-.723-1.777-.922 0 0-.846 1.9 2.604 4.609 0 0-2.604.614-1.266 3.028 0 0-1.28.8-.663 2.487 0 0-1.018.8-.309 2.062.705 1.259 2.169 3.11 3.804 3.707 1.373.502 1.658.157 1.815-.222 0 0 2.961 4.794 6.499 7.591 0 0 .442-.271 1.093-.738 2.939-2.36 5.314-7.197 5.363-7.296Z" fill="#FFBEA5"/><path d="m121.739 81.302-.48-.111a.979.979 0 0 0 .48.11Z" fill="#FFBEA5"/><path d="m169.473 83.37-.054-2.698a39.737 39.737 0 0 1-.194 2.407.194.194 0 0 1-.194.172h-.023a.198.198 0 0 1-.172-.218c.004-.015.145-1.198.218-2.946-.45-3.237-1.3-5.246-1.937-6.359-.686-1.205-1.277-1.653-1.281-1.657a.197.197 0 0 1-.041-.271.19.19 0 0 1 .27-.043c.027.02.644.483 1.369 1.745.522.907 1.177 2.384 1.661 4.607v-.563c-.026-2.808-.331-6.753-1.642-9.584a.194.194 0 0 1 .095-.26.193.193 0 0 1 .259.096c.816 1.763 1.25 3.937 1.471 6.007l-.224-11.452-.016.008c-.339.122-5.691 2.135-8.9 8.585-3.32 6.654-13.623 20.952-13.623 20.952l-10.486-8.08c-.747 1.683-3.087 6.343-6.609 8.348 2.775 2.873 8.675 8.85 12.308 11.436 4.494 3.191 7.787 3.746 14.469-3.275 5.584-5.865 10.116-12.255 12.132-15.24.05-.076.103-.149.149-.221.652-.95.995-1.496.995-1.496Zm-20.019 14.856a.191.191 0 0 1-.24-.134c-.782-2.682-2.097-5.264-2.108-5.291a.196.196 0 1 1 .347-.18c.011.027 1.345 2.644 2.134 5.36a.197.197 0 0 1-.133.245Z" fill="#F37E60"/><path d="M126.01 76.977c.53.398.968.704 1.327.933a4.565 4.565 0 0 0-.008-.134s-2.085-1.729-3.933-3.282c.861.91 1.787 1.86 2.614 2.483ZM122.673 74.294c-.602-.64-1.17-1.247-1.628-1.66-.659-.601-.819-.552-.823-.548-.358.215-.049 1.558.271 2.395.899 2.143 2.108 4.003 3.144 5.38.637.776 1.285 1.454 1.883 1.91 1.719 1.304 1.853-1.983 1.834-3.39a20.35 20.35 0 0 1-1.575-1.091c-.998-.754-2.115-1.944-3.106-2.996ZM117.879 72.216l-.494 2.632.644 1.95c.85 1.47 2.146 3.586 2.794 4.114.149.122.297.214.434.28l.481.11a.589.589 0 0 0 .305-.095c.32-.21.419-.739.255-1.34a.199.199 0 0 1 .091-.222 3.065 3.065 0 0 0-.114-.164c-.812-1.102-3.137-5.307-4.086-7.04-.255-.463-.31-.225-.31-.225ZM119.329 80.749l1.003.23c-.48-.517-1.132-1.497-1.742-2.484l.739 2.254Z" fill="#FFBEA5"/><path d="m136.038 83.814-1.673-1.289c-.049.1-2.424 4.936-5.363 7.296-.358.287-.724.54-1.094.739 0 0 .583.62 1.521 1.6 3.526-2.006 5.862-6.662 6.609-8.346Z" fill="#FCF5F5"/><path d="M169.45 80.05v.035a47.82 47.82 0 0 0 .045-2.54 39.589 39.589 0 0 0-.205-3.742c-.222-2.074-.656-4.247-1.472-6.007a.193.193 0 0 0-.259-.096.194.194 0 0 0-.095.26c1.311 2.836 1.616 6.776 1.643 9.585 0 .191.003.379 0 .562.129.593.244 1.24.343 1.944ZM169.281 80.272h-.027a.2.2 0 0 1-.194-.169c0-.007 0-.011-.004-.019-.076 1.748-.217 2.93-.217 2.946a.198.198 0 0 0 .172.218h.022a.198.198 0 0 0 .195-.172c0-.015.114-.956.194-2.407.012-.183.019-.378.027-.577a.196.196 0 0 1-.168.18Z" fill="#CE654A"/><path d="M169.254 80.275h.026a.195.195 0 0 0 .168-.177v-.045a26.043 26.043 0 0 0-.343-1.944c-.48-2.22-1.14-3.7-1.662-4.607-.724-1.262-1.345-1.725-1.368-1.744a.19.19 0 0 0-.271.042.191.191 0 0 0 .042.271c.008.004.595.452 1.281 1.657.632 1.113 1.486 3.122 1.936 6.359 0 .008 0 .011.004.02a.187.187 0 0 0 .187.168Z" fill="#CE654A"/><path d="M119.776 73.427a8.85 8.85 0 0 0 .358 1.201c.713 1.703 1.62 3.23 2.485 4.484 1.502 2.174 2.878 3.528 2.901 3.551a.19.19 0 0 0 .137.054.19.19 0 0 0 .141-.062.194.194 0 0 0-.003-.275c-.019-.02-.972-.957-2.154-2.521-1.037-1.378-2.245-3.237-3.145-5.38-.32-.842-.629-2.18-.27-2.395.007-.004.164-.05.823.547.457.417 1.025 1.022 1.628 1.66.987 1.049 2.107 2.243 3.102 2.993.644.49 1.163.837 1.575 1.09.998.616 1.368.65 1.421.65l.012-.39h.007c-.003 0-.381-.046-1.452-.73-.358-.23-.797-.536-1.326-.934-.827-.624-1.754-1.573-2.615-2.483l-.442-.467c-1.464-1.553-2.264-2.38-2.768-2.33a.388.388 0 0 0-.171.053c-.358.222-.438.77-.244 1.684ZM122.298 79.868c.168.605.069 1.129-.255 1.34a.608.608 0 0 1-.305.095 1.024 1.024 0 0 1-.48-.11 2.186 2.186 0 0 1-.435-.28c-.651-.528-1.944-2.648-2.794-4.113-.476-.823-.815-1.443-.827-1.458a.191.191 0 0 0-.263-.076.193.193 0 0 0-.076.263c.057.108.85 1.55 1.727 2.97.61.987 1.261 1.962 1.742 2.483.087.095.171.176.247.237.321.26.645.417.942.467a.19.19 0 0 1 .171-.15c.1-.007.183.058.206.15.13-.023.252-.073.366-.146.473-.31.633-.99.416-1.771a.2.2 0 0 0-.24-.138.208.208 0 0 0-.046.02.19.19 0 0 0-.096.217Z" fill="#D29077"/><path d="M121.689 81.534a.187.187 0 0 0-.171.149c-.004.02-.008.038-.004.057.012.134-.011.51-.232.65-.218.142-.618.062-1.155-.236-1.738-.96-3.736-4.442-3.755-4.477a.194.194 0 0 0-.267-.073.196.196 0 0 0-.072.268c.084.146 2.07 3.612 3.907 4.626.423.233.789.352 1.086.352a.824.824 0 0 0 .469-.13c.461-.299.408-.98.408-1.01 0-.012-.004-.02-.004-.027-.027-.092-.11-.16-.21-.15Z" fill="#D29077"/><path d="M147.448 92.621a.196.196 0 1 0-.347.18c.011.027 1.326 2.61 2.108 5.291a.198.198 0 0 0 .186.142.194.194 0 0 0 .187-.249c-.789-2.716-2.119-5.337-2.134-5.364ZM183.389 60.23a.196.196 0 0 0-.195-.196.196.196 0 0 0-.194.196v66.493c0 .107.088.195.194.195a.196.196 0 0 0 .195-.195V60.23Z" fill="#CE654A"/><path d="M192.38 62.61c.012 0 .023 0 .035.004-.008-.004-.02-.004-.035-.004ZM192.428 62.617c.008.004.016.004.025.008-.009-.004-.017-.008-.025-.008ZM192.311 62.62c.008-.003.016-.003.025-.008-.009.005-.017.009-.025.009ZM192.574 62.804v.41l8.916 7.265c.034.031.08.043.122.043a.188.188 0 0 0 .152-.073.199.199 0 0 0-.026-.276l-9.232-7.526c-.004-.003-.004-.003-.008-.003a.208.208 0 0 1 .076.16ZM192.347 62.614c.012-.004.023-.004.031-.004-.012 0-.019 0-.031.004ZM192.281 62.64c.009-.005.013-.01.021-.013-.008.004-.017.008-.021.012ZM185.495 68.228l.012.02c.065.083.19.099.274.03l6.404-5.074v-.401c0-.065.03-.123.08-.157-.004 0-.004.004-.008.004l-4.189 3.317-2.531 2.005a.2.2 0 0 0-.042.256Z" fill="#EFE1D5"/><path d="M192.186 62.804v36.279c0 .107.087.195.194.195a.195.195 0 0 0 .194-.195V62.803a.188.188 0 0 0-.08-.156c-.004-.004-.007-.008-.011-.008-.008-.003-.012-.007-.019-.011-.004-.004-.008-.004-.012-.008-.007-.003-.015-.003-.023-.007-.003 0-.007-.004-.011-.004-.011-.004-.023-.004-.034-.004h-.004a.08.08 0 0 0-.031.004c-.003 0-.007.004-.011.004-.008 0-.015.004-.023.007-.004 0-.007.004-.015.008l-.019.011c-.004.004-.008.004-.012.008a.183.183 0 0 0-.083.157Z" fill="#EFE1D5"/><path d="M187.214 49.902c0 .004-.004.011-.008.015a.201.201 0 0 0 .138.241c.042.011.728.191 1.784.191.545 0 1.193-.05 1.898-.195a9.303 9.303 0 0 0 3.4-1.45c1.296-.888 2.432-2.127 3.373-3.684a.194.194 0 0 0-.065-.268.193.193 0 0 0-.267.065c-2.058 3.405-4.669 4.572-6.498 4.955a8.988 8.988 0 0 1-2.211.18c-.797-.035-1.3-.165-1.311-.169a.187.187 0 0 0-.233.119ZM200.546 32.79a.196.196 0 0 0-.134.24c.385 1.37-.003 6.141-.007 6.19a.196.196 0 0 0 .179.211h.015a.196.196 0 0 0 .195-.18c.015-.199.396-4.89-.008-6.328a.194.194 0 0 0-.24-.134Z" fill="#C3836A"/><path d="M194.596 33.837c.392 0 .712-.563.712-1.259s-.32-1.259-.712-1.259c-.393 0-.713.563-.713 1.26 0 .696.32 1.258.713 1.258ZM183.604 33.837c.394 0 .713-.564.713-1.259s-.319-1.259-.713-1.259c-.393 0-.712.564-.712 1.26 0 .694.319 1.258.712 1.258Z" fill="#1F212B"/><path d="M192.215 41.332a.195.195 0 0 0-.271.05c-.713 1.04-1.521 1.649-2.405 1.806-1.132.199-2.013-.421-2.028-.433a.193.193 0 0 0-.27.042.195.195 0 0 0 .041.272c.035.027.767.547 1.796.547.167 0 .339-.015.522-.046.995-.172 1.894-.834 2.668-1.97a.196.196 0 0 0-.053-.268Z" fill="#C3836A"/><path d="M186.033 26.91c-1.452-1.122-2.763-1.057-3.606-.804a3.915 3.915 0 0 0-1.498.842.522.522 0 0 0 .728.746c.069-.065 1.67-1.561 3.743.038a.516.516 0 0 0 .728-.096.515.515 0 0 0-.095-.727ZM195.758 27.736a.52.52 0 0 0 .632-.826c-1.452-1.122-2.763-1.057-3.605-.804-.168.05-.321.11-.465.172a3.795 3.795 0 0 0-1.033.67.522.522 0 0 0 .728.746c.026-.027.282-.264.705-.456.671-.302 1.765-.486 3.038.498Z" fill="#27282D"/><path d="M188.53 39.432a.196.196 0 0 0 .007-.39c-.72-.027-1.155-.18-1.326-.467-.195-.325-.092-.892.312-1.737 1.525-3.187.298-6.21-.301-7.362a.195.195 0 1 0-.347.18c.572 1.102 1.742 3.987.294 7.013-.473.988-.564 1.657-.294 2.109.248.413.77.62 1.643.654h.012Z" fill="#C3836A"/></g><path d="M105.598 35.84a.733.733 0 0 1-.54-.22.734.734 0 0 1-.222-.541c0-.214.074-.394.222-.541a.698.698 0 0 1 .54-.246h2.065l.197-12.314-1.77 1.892a.728.728 0 0 1-.565.246.736.736 0 0 1-.541-.22.818.818 0 0 1-.221-.566c0-.197.073-.369.221-.516l3.097-3.368a.916.916 0 0 1 .246-.172.77.77 0 0 1 .295-.074c.229 0 .417.082.565.246a.737.737 0 0 1 .221.541l-.196 14.305h1.622c.246 0 .442.082.59.246a.737.737 0 0 1 .221.54.7.7 0 0 1-.246.541.706.706 0 0 1-.516.221h-5.285ZM97.749 33.923a.785.785 0 0 1-.541-.197.736.736 0 0 1-.221-.54v-2.63h-2.63a.785.785 0 0 1-.541-.197.736.736 0 0 1-.221-.54c0-.214.073-.386.22-.517a.736.736 0 0 1 .542-.221h2.63v-2.384c0-.213.073-.385.22-.516a.735.735 0 0 1 .542-.222c.213 0 .385.074.516.222a.658.658 0 0 1 .221.516v2.384h2.679c.197 0 .369.074.516.221a.656.656 0 0 1 .221.516.733.733 0 0 1-.221.541.75.75 0 0 1-.516.197h-2.679v2.63a.736.736 0 0 1-.221.54.698.698 0 0 1-.516.197ZM84.931 35.84a.735.735 0 0 1-.54-.22.736.736 0 0 1-.222-.541c0-.214.074-.394.222-.541a.7.7 0 0 1 .54-.246h2.065l.197-12.314-1.77 1.892a.727.727 0 0 1-.565.246.736.736 0 0 1-.541-.22.82.82 0 0 1-.221-.566c0-.197.073-.369.22-.516l3.098-3.368a.935.935 0 0 1 .246-.172.773.773 0 0 1 .295-.074c.229 0 .418.082.565.246a.736.736 0 0 1 .221.541l-.197 14.305h1.623c.245 0 .442.082.59.246a.736.736 0 0 1 .22.54.7.7 0 0 1-.245.541.707.707 0 0 1-.516.221H84.93ZM104.246 60.297c0-1.311.197-2.425.59-3.343.409-.918.934-1.68 1.573-2.286.639-.623 1.442-1.245 2.409-1.868.868-.54 1.515-.975 1.941-1.303.443-.327.812-.729 1.106-1.204.312-.475.467-1.024.467-1.647 0-.754-.303-1.384-.909-1.892-.59-.508-1.319-.762-2.187-.762-.836 0-1.565.205-2.188.614-.623.41-1.082.787-1.376 1.13a4.28 4.28 0 0 1-.394.394c-.082.066-.205.098-.368.098a.728.728 0 0 1-.566-.245.793.793 0 0 1-.221-.541c0-.148.049-.295.148-.443.098-.147.286-.344.565-.59 1.327-1.294 2.794-1.941 4.4-1.941.884 0 1.679.188 2.384.565.704.36 1.253.86 1.646 1.5.41.639.615 1.343.615 2.113 0 .885-.188 1.647-.565 2.286a5.649 5.649 0 0 1-1.328 1.573c-.524.41-1.253.918-2.187 1.524-.803.524-1.467 1.016-1.991 1.475-.524.442-.975 1-1.352 1.671-.377.656-.59 1.434-.639 2.335h7.497c.213 0 .393.082.54.246a.7.7 0 0 1 .246.54.675.675 0 0 1-.246.517.733.733 0 0 1-.54.221h-9.07v-.737ZM97.183 59.117a.785.785 0 0 1-.54-.197.736.736 0 0 1-.222-.54v-2.63h-2.63a.785.785 0 0 1-.54-.197.735.735 0 0 1-.222-.54c0-.214.074-.386.222-.517a.735.735 0 0 1 .54-.221h2.63V51.89c0-.213.074-.385.221-.517a.736.736 0 0 1 .541-.22c.213 0 .385.073.516.22a.658.658 0 0 1 .222.517v2.384h2.679c.196 0 .368.074.516.221a.659.659 0 0 1 .221.516.737.737 0 0 1-.221.541.754.754 0 0 1-.516.197h-2.68v2.63a.735.735 0 0 1-.22.54.698.698 0 0 1-.517.197ZM80.459 60.297c0-1.311.197-2.425.59-3.343.41-.918.934-1.68 1.573-2.286.639-.623 1.442-1.245 2.409-1.868.868-.54 1.515-.975 1.941-1.303.443-.327.811-.729 1.106-1.204.312-.475.467-1.024.467-1.647 0-.754-.303-1.384-.91-1.892-.589-.508-1.318-.762-2.187-.762-.835 0-1.564.205-2.187.614-.623.41-1.082.787-1.377 1.13-.163.181-.294.312-.393.394-.082.066-.205.098-.368.098a.727.727 0 0 1-.566-.245.792.792 0 0 1-.221-.541c0-.148.05-.295.147-.443.099-.147.287-.344.566-.59 1.327-1.294 2.794-1.941 4.4-1.941.884 0 1.679.188 2.384.565.704.36 1.253.86 1.646 1.5.41.639.615 1.343.615 2.113 0 .885-.189 1.647-.566 2.286a5.65 5.65 0 0 1-1.327 1.573c-.524.41-1.253.918-2.187 1.524-.803.524-1.467 1.016-1.991 1.475-.524.442-.975 1-1.352 1.671-.377.656-.59 1.434-.64 2.335h7.497a.7.7 0 0 1 .541.246.7.7 0 0 1 .246.54.676.676 0 0 1-.246.517.735.735 0 0 1-.54.221h-9.07v-.737Z" fill="#F37E60"/></g><path d="M41.621 164.221c2.306-3.166 7.281-8.457 10.04-11.321 1.175-1.236 3.482-1.99 5.984-1.99 4.884.015 12.98.06 17.245.091 53.997.527 107.888-.558 161.869-.046 9.437.091 29.712.498 39.721.709 3.452.075 6.377 1.432 7.131 3.316 3.15 7.884 11.079 28.325 12.798 37.747.09.482 0 4.522-11.351 4.808-51.434 1.327-95.15 1.236-146.644 1.704-17.652.151-35.32.316-52.972.256-8.909-.03-17.833-.105-26.742-.256-10.416-.181-21.119.241-31.385-1.417-.934-.151-1.884-.317-2.683-.754-5.728-3.105 4.04-14.607 6.105-17.727 3.422-5.141 7.22-10.1 10.884-15.12Z" fill="#7994B9"/><path d="M191.368 194.937c-10.386 0-20.139-.03-29.033-.06-13.884-.061-27.556-.136-40.384-.211-5.261-.03-10.613-.091-15.798-.151l-4.101-.045c-2.442-.03-4.944.03-7.356.09-3.21.076-6.512.151-9.828.03-10.552-.377-21.27-.377-31.355-.331-2.216.015-4.523.09-6.769.165-7.688.272-15.632.558-22.777-1.824a.326.326 0 0 1-.211-.422.326.326 0 0 1 .422-.211c7.025 2.352 14.909 2.066 22.536 1.794 2.246-.075 4.568-.166 6.784-.166 10.085-.045 20.818-.06 31.385.332 3.286.121 6.587.045 9.783-.03 2.412-.06 4.914-.121 7.386-.091l4.101.046c5.17.06 10.537.12 15.798.15 12.828.076 26.516.166 40.384.211 28.672.106 66.478.151 104.647-.557l3.844-.046c8.697-.09 19.521-.196 23.169-3.03.151-.105.347-.09.467.061.106.151.091.346-.06.467-3.829 2.985-14.773 3.09-23.576 3.181l-3.844.045c-26.335.482-52.505.603-75.614.603Z" fill="#496B99"/><path d="M246.556 180.726c1.839 2.231 3.829 4.492 6.497 5.608 2.864 1.206 6.316.889 8.909-.814 1.221-.799 2.277-1.93 2.789-3.302.724-1.959.241-4.205-.814-5.999-1.055-1.809-2.623-3.241-4.221-4.583-5.457-4.643-11.486-8.788-15.813-14.501-.286-.377-.573-.769-.98-1.01-1.145-.694-2.592.105-3.693.874-1.553 1.085-3.196 2.291-3.769 4.1-2.17 6.663 7.387 15.12 11.095 19.627Z" fill="#FFE6D8"/><path d="M238.657 158.884c.316.994.452 2.035.588 3.06.814 6.225 1.673 12.451 2.457 18.677.452 3.603 1.356 7.1 2.321 10.582 1.538 5.517 7.145 15.135 2.487 19.974-2.08 2.155-5.034 3.211-7.944 3.889-13.627 3.15-28.264-.995-39.796-8.909-7.085-4.854-4.824-16.386-4.266-24.285.738-10.401 3.618-20.577 6.949-30.405.814-2.397 1.869-4.296 4.1-5.487 2.231-1.176 4.794-1.613 7.326-1.658 9.136-.166 16.477 3.422 22.597 9.858 1.176 1.236 2.337 2.548 2.985 4.131.075.196.135.392.196.573ZM227.176 89.36c3.196-2.337 6.346-3.905 10.16-4.568 3.422-.603 6.859-3.075 10.462-2.352 2.532.513 4.447 2.563 5.924 4.674.377.542.739 1.1.965 1.733.512 1.387.332 2.97-.196 4.357s-1.387 2.623-2.231 3.829c-1.884 2.713-4.733 5.08-7.628 6.708-2.186 1.221-4.688 1.733-7.145 2.291-4.537 1.055-10.763 5.095-12.753 9.467-.241.512-.407 1.07-.739 1.522-.241.347-.572.633-.889.905-.965.844-1.93 1.673-2.955 2.457-2.743 2.095-7.492 4.718-9.813.814-2.005-3.362.286-9.286 1.658-12.512 3.226-7.628 8.487-14.411 15.18-19.325ZM267.269 125.658c-1.885-.799-3.739-1.764-5.608-2.578-5.487-2.412-12.421-1.04-16.582 3.286-.226.242-.467.498-.799.573-.542.121-1.04-.286-1.432-.678-1.07-1.055-2.14-2.095-3.211-3.151-1.115-1.1-2.291-2.321-2.457-3.889-.181-1.824 1.101-3.422 2.292-4.809 1.944-2.246 3.783-4.13 6.376-5.592 2.563-1.462 5.186-2.834 7.718-4.357 1.915-1.145 3.829-2.306 5.894-3.165 10.869-4.493 27.315.904 26.561 14.742-.286 5.231-3.708 9.693-8.833 10.99-3.528.889-6.769-.015-9.919-1.372Z" fill="#FFE6D8"/><path d="M198.745 128.114c-6.557 7.613-4.764 16.266 3.467 21.723 1.854 1.236 21.511 13.521 23.004 10.099 2.261.136 4.537-.09 6.783-.346 7.462-.829 15.15-2.88 18.331-10.507 1.205-2.894 1.1-6.196.301-9.226-1.055-4.07-3.105-8.276-5.216-11.893-1.477-2.548-3.286-4.749-5.004-7.116-.166-.226-.332-.452-.392-.723-.076-.287-.046-.603-.136-.889-.196-.634-.935-.935-1.598-1.056-1.055-.181-2.02.046-3.045.166.377-.889 2.11-2.382 1.507-3.482-.196-.362-.633-.482-1.025-.543-3.587-.663-7.386-.06-10.597 1.658a3.612 3.612 0 0 0 .889-2.02c-1.748.377-3.497.769-5.245 1.146-1.915.422-3.829.829-5.789 1.01-1.236.106-2.487.121-3.678.452-2.578.724-4.628 2.94-6.618 4.598-2.201 1.839-4.055 4.748-5.939 6.949Z" fill="#FFE6D8"/><path d="M227.61 159.891a36.82 36.82 0 0 1-4.326-.256c-6.648-.784-12.618-3.512-16.808-7.688-.136-.136-.136-.347 0-.467.135-.136.346-.136.467 0 4.1 4.07 9.934 6.723 16.431 7.507 5.532.663 11.668 0 18.24-1.975a.313.313 0 0 1 .407.226c.045.181-.045.362-.226.407-4.99 1.508-9.753 2.246-14.185 2.246Z" fill="#E8C2AD"/><path d="M192.019 150.816c2.818 1.733 6.361 2.698 9.104 4.236 1.553.874 3.151 2.095 3.422 3.859.302 1.929-1.085 3.708-2.592 4.959-2.111 1.734-4.719 2.985-7.447 2.985-2.94.015-5.683-1.387-8.155-2.97-7.417-4.748-14.728-12.104-17.683-20.546-1.402-4.01-2.939-12.24 1.538-15.105.678-.437 1.477-.663 2.291-.738 4.914-.513 9.045 3.783 11.155 8.246 1.915 4.055 2.714 9.542 5.759 12.948.738.83 1.628 1.523 2.608 2.126Z" fill="#FFE6D8"/><path d="M216.952 118.316a.341.341 0 0 1-.317-.211c-1.206-3.181 1.689-6.301 2.97-7.507 1.643-1.507 3.482-2.849 5.216-4.07a165.839 165.839 0 0 1 8.17-5.352 399.997 399.997 0 0 0 7.311-5.487c.151-.105.362-.09.468.06.105.151.09.363-.061.468a424.45 424.45 0 0 1-7.356 5.517 175.881 175.881 0 0 0-8.155 5.337c-1.719 1.206-3.543 2.517-5.141 4.009-1.191 1.101-3.859 3.98-2.804 6.784a.323.323 0 0 1-.196.422c-.015.015-.06.03-.105.03ZM242.428 123.835a.336.336 0 0 1-.166-.046.327.327 0 0 1-.121-.452c1.613-2.849 4.357-4.989 7.508-5.894 2.366-.678 4.823-.633 7.205-.618 3.678.045 7.492.106 11.14 1.085l.317.091c1.809.497 3.859 1.055 5.2-.076a.323.323 0 0 1 .468.046.322.322 0 0 1-.046.467c-1.597 1.342-3.828.739-5.803.211l-.302-.09c-3.572-.965-7.341-1.01-10.989-1.056-2.336-.03-4.748-.06-7.01.588a11.955 11.955 0 0 0-7.1 5.578.39.39 0 0 1-.301.166ZM228.423 121.392a.334.334 0 0 1-.331-.331c0-.181.151-.332.331-.332 2.186 0 4.342-1.311 5.352-3.241a.328.328 0 0 1 .452-.136.33.33 0 0 1 .136.453c-1.131 2.14-3.513 3.587-5.94 3.587ZM226.135 119.399a.3.3 0 0 1-.242-.106c-.12-.135-.12-.346.015-.467a11.52 11.52 0 0 1 4.779-2.774c.181-.045.362.046.407.226.045.181-.045.362-.226.407a10.791 10.791 0 0 0-4.507 2.608.291.291 0 0 1-.226.106ZM221.971 119.521a.342.342 0 0 1-.317-.226.337.337 0 0 1 .196-.422c1.372-.483 2.563-1.508 3.272-2.789a.328.328 0 0 1 .452-.136.328.328 0 0 1 .135.452 6.693 6.693 0 0 1-3.632 3.106c-.031.015-.076.015-.106.015ZM210.274 120.213a.302.302 0 0 1-.196-.06c-.784-.603-1.176-1.689-.95-2.653a.333.333 0 0 1 .407-.242.333.333 0 0 1 .241.407 1.981 1.981 0 0 0 .709 1.975c.15.106.181.317.06.468a.434.434 0 0 1-.271.105Z" fill="#E8C2AD"/><path d="M138.01 188.391c-3.392-.648-6.693-1.673-10.04-2.517-2.321-.588-6.497-.407-7.477-3.076-.377-1.04-.331-2.17-.271-3.286.332-5.17 1.115-10.567 4.251-14.697.799-1.056 1.839-2.05 3.15-2.261 1.975-.317 4.251 1.205 5.88 2.17 2.004 1.176 3.964 2.427 5.803 3.844 2.231 1.734 3.95 1.055 6.588.272 5.788-1.734 11.562-3.453 17.35-5.186 2.578-.769 5.291-1.131 7.764-2.261 3.241-1.493 3.693-3.799 3.12-7.191-.286-1.703-.497-2.773.558-4.145 1.07-1.387 2.095-2.789 2.969-4.311.196-.347.407-.709.724-.965.317-.241.799-.347 1.131-.121.799.543.799 1.794.618 2.593-.242 1.131-.513 2.035-.347 3.241.06.452.166.92.497 1.236 1.749 1.688 3.664-1.96 4.372-3.045 1.296-1.99 2.321-4.221 4.13-5.819.513-.452 1.297-.859 1.855-.437.437.332.437.965.391 1.508-.226 2.261-1.236 4.19-1.552 6.421.965-.934 1.944-1.869 2.909-2.804.483-.452 1.146-.949 1.734-.633.452.242.557.86.542 1.372a6.508 6.508 0 0 1-1.597 4.055c-.573.663-1.342 1.297-1.387 2.171 1.01-.06 2.02-.136 3.03-.196.181-.015.376-.015.527.09.211.151.241.468.196.724-.316 1.854-2.502 2.819-3.15 4.583.648-.091 1.296-.181 1.959-.272.257-.03.573-.06.754.136.106.12.136.286.136.452-.015 2.201-3.814 4.311-5.397 5.472-2.532 1.854-5.472 3.045-8.095 4.764-5.201 3.391-9.557 7.838-14.984 10.929-3.814 2.17-7.989 3.632-12.21 4.823-5.789 1.628-10.311 3.543-16.431 2.367Z" fill="#F6A383"/><path d="M186.957 154.39a.341.341 0 0 1-.256-.121.32.32 0 0 1 .045-.467c.799-.663 1.356-1.492 1.929-2.352l.091-.135a.336.336 0 1 1 .557.377l-.09.135c-.603.905-1.176 1.764-2.05 2.488a.341.341 0 0 1-.226.075ZM188.876 157.116c-.046 0-.076 0-.121-.015a.407.407 0 0 1-.271-.407.427.427 0 0 1 .226-.332l.135-.09c.86-.558 1.433-.92 2.036-1.749a.335.335 0 0 1 .542.392c-.678.92-1.326 1.342-2.216 1.915 0 .045-.015.075-.045.12-.045.106-.166.166-.286.166ZM190.709 161.59c-.045 0-.075 0-.12-.03a.327.327 0 0 1-.181-.437c.166-.408.452-.664.738-.935.196-.181.377-.347.498-.558a.339.339 0 0 1 .452-.12.34.34 0 0 1 .121.452c-.166.286-.407.497-.618.693-.242.226-.468.422-.573.694-.061.165-.181.241-.317.241Z" fill="#D67E63"/><path d="M46.735 192.599c.12 1.251-.256 10.024.618 10.914.633-1.07 2.457-10.175 2.955-11.321a28.353 28.353 0 0 0 2.08-7.748c.347-2.895-1.115-10.537-4.311-7.206-2.864 2.985-1.673 11.743-1.342 15.361Z" fill="#F6A383"/><path d="M47.215 198.146c-.287 3.633-1.568 7.371-1.568 11.004 0 0 .03 5.638.045 11.562 0 0 63.343-4.492 63.855-5.668.603-1.341 3.075-6.859 2.291-9.617-1.597-5.593 1.071-13.1 1.9-18.692.045-.287.09-.603.301-.83.257-.271.679-.316 1.056-.331 2.894-.106 5.803.09 8.652.603a60.6 60.6 0 0 1 7.884-22.265c.196-.332.392-.663.407-1.055.045-.965-1.055-1.538-1.959-1.869-7.779-2.834-14.442-7.854-22.145-10.492-4.432-1.523-8.939-3.513-13.687-4.704-10.613-2.653-19.959-.557-30.948.83l-.407.045c-1.93 1.583-3.392 3.572-4.553 5.773 0-.12.016-.196.016-.196-.377-.588-1.282-.165-1.78.332-1.115 1.115-1.778 1.628-2.547 3.015-.724 1.296-1.975 3.346-2.593 4.688-.452.98-.738 2.94-2.14 6.03-1.402 3.09-3.045 5.969-3.573 10.265-.166 1.282-.18 2.669.483 3.784.482.784 1.25 1.342 1.899 1.99a7.437 7.437 0 0 1 1.613 2.412c-.12.663-.256 1.326-.392 1.975-.678 3.798-1.794 7.537-2.11 11.411Z" fill="#ACC7EA"/><path d="M49.509 182.154c-.03 0-.06 0-.09-.016-.182-.045-.272-.241-.227-.407l2.307-8.034c.24-.859.497-1.749.633-2.638.075-.452.12-.935.15-1.402.106-1.191.212-2.412.8-3.513a.328.328 0 0 1 .452-.135c.165.09.226.286.135.452-.512.98-.618 2.08-.723 3.256-.045.483-.09.965-.166 1.447-.15.935-.407 1.839-.663 2.714l-2.307 8.034c-.015.151-.15.242-.301.242ZM111.931 181.851a.3.3 0 0 1-.241-.106c-1.041-1.161-1.87-3-2.669-4.779-.482-1.07-.934-2.095-1.417-2.909-.09-.166-.045-.362.121-.452a.326.326 0 0 1 .452.12c.498.845.965 1.885 1.447 2.97.784 1.734 1.583 3.528 2.563 4.613a.332.332 0 0 1-.03.467.455.455 0 0 1-.226.076Z" fill="#7D9ABF"/><path d="M108.363 109.402a30.464 30.464 0 0 0-.875-6.045c-.965-3.784-3.211-7.07-4.793-8.095-.664-.422-1.116-.603-1.598 0-.257.317-.438.905-.603 1.447a13.598 13.598 0 0 0-.573 4.191c.12 6.015.12 8.668-1.719 15.391-.18.648-1.432 3.557-2.004 3.874-.558.317-1.915-.286-2.563-.211-2.94.286.241 12.572 3.331 13.356a33.881 33.881 0 0 0 1.613 4.055c.106.467.196.965.226 1.477.06 1.101.77 2.849 1.221 3.859.242.543.498 1.101.498 1.689 0 .181-.015.376.045.557.09.211.286.347.407.528.121.196.151.437.151.663 0 .558-.106 1.131-.317 1.643-.392.995-1.13.799-2.005 1.463.588.09 1.1.18 1.583.241 1.704.211 3.166-1.131 3.181-2.849 0-.724.12-1.478.151-2.548.015-.693.075-1.402.09-2.095.347-.03.693-.106 1.04-.241 2.955-1.191 6.663-3.045 7.779-6.06.572-1.553 1.628-4.327 1.477-5.97-.995-10.778-5.517-15.27-5.743-20.32Z" fill="#F6A383"/><path d="M97.235 133.116a.444.444 0 0 1-.317-.136.333.333 0 0 1-.03-.467.298.298 0 0 1 .241-.106c.015-.045.046-.105.06-.151.121-.316.272-.708.619-.829.316-.105.573-.392.648-.708.105-.498-.166-.995-.452-1.538a8.663 8.663 0 0 1-.196-.377 5.824 5.824 0 0 1-.422-3.904l.03-.105c.045-.166.075-.317.075-.453 0-.407-.362-.799-.663-1.145-.226-.242-.588-.588-.965-.95-.573-.558-1.176-1.116-1.492-1.538a.335.335 0 0 1 .06-.467.336.336 0 0 1 .467.06c.287.377.905.95 1.432 1.463.392.361.754.723.995.979.377.407.83.92.844 1.583 0 .226-.045.437-.105.633l-.03.106a5.06 5.06 0 0 0 .573 3.814c.316.588.678 1.266.512 1.99a1.61 1.61 0 0 1-1.085 1.19c-.06.046-.15.302-.196.423-.106.286-.211.557-.482.618-.046.015-.09.015-.121.015Z" fill="#914A47"/><path d="M105.378 98.427c-.075-.739-.165-1.447.211-2.08 1.327-2.201.211-6.06-2.819-6.678-.527-.106-.919-.543-1.01-1.07-.18-1.161-1.914-3.438-2.683-3.814-1.522-.754-3.195-1.131-4.341-1.01-.558.06-1.1-.166-1.432-.634-1.116-1.552-3.271-2.29-5.216-2.125-1.779.15-3.452.874-5.05 1.718-.588.317-1.296.046-1.553-.572-.346-.814-1.1-1.493-1.944-1.81-1.281-.467-2.714-.286-4.055.016-2.201.497-4.523 1.492-6 3.105-.799-.422-1.779-.543-2.578-.136-.557.287-.934.784-1.19 1.357h-.106c-.995-.015-1.96.392-2.849.86-2.156 1.145-.497 4.612-2.804 3.798-3.467-1.206-3.784 2.306-3.648 3.678a.84.84 0 0 1-.769.935c-1.824.12-3.045 1.115-4.115 2.608-1.025 1.417-1.945 3.256-1.568 4.959.136.648-.301 1.251-.934 1.417a3.366 3.366 0 0 0-1.749 1.161c-1.025 1.281-1.87 3.452-2.005 5.005-.136 1.522.724 2.668.965 4.19a1.758 1.758 0 0 1-.633 1.643 2.968 2.968 0 0 0-.453.407c-1.266 1.387-1.477 3.483-1.04 5.307.151.603.227 1.13.287 1.643-.603.347-1.07.934-1.221 1.613-.12.603.03 1.236.362 1.763-.498-.045-1.04.106-1.342.513-.633.859-.392 2.08.09 3.03.151.301.332.603.528.874.18.257-.377 2.367-.362 2.819.015.829.392 2.457.633 3.241.483 1.628 1.644 2.337 3.136 3.09a1.822 1.822 0 0 1 .995 1.794c-.211 2.292.844 3.92 2.382 5.08 1.462 1.101 2.457 2.864 4.25 2.503.709-.136 1.402.226 1.629.904.437 1.312 1.477 2.412 2.773 2.864 1.04.347 2.186.257 3.196-.181.211.392.482.754.844 1.025.573.423 1.477.151 2.442-.407 2.291 2.156 5.864 3 8.834 1.9.452-.166.965-.106 1.311.226a4.815 4.815 0 0 0 3.558 1.251 4.766 4.766 0 0 0 2.638-1.085c.467-.392 1.1-.558 1.688-.347 1.93.663 4.19.452 5.864-.754.166-.12.317-.241.468-.377.27.046.557.091.829.121 2.97.302 5.713-.829 8.275-2.367 2.563-1.537 4.854-3.617 4.854-6.602 0-.694-.12-1.417-.377-2.065.423-.196.799-.438 1.116-.784.708-.769.874-2.05.392-2.91.799-.919.889-2.638 1.085-3.844.302-1.914.136-3.346-1.145-4.778-.543-.603-.694-1.462-.347-2.201.603-1.327.603-3.045.603-4.492 0-1.508-.151-2.774-1.327-3.678-.482-.362-.12-.92-.15-1.523-.227-4.04 4.145-6.135 2.577-20.094Z" fill="#60423F"/><path d="M69.967 145.505c-.407 0-.844-.045-1.312-.135-.482-.091-.799-.256-1.145-.422-.09-.045-.196-.106-.302-.151a3.819 3.819 0 0 0-.663-.211c-.287-.075-.588-.151-.86-.302a2.796 2.796 0 0 1-.934-.814c-.588.83-2.216 1.131-2.804 1.176-1.537.121-3.723-1.221-4.326-2.668-.226-.543-.271-1.206-.076-1.779-.783-.015-1.567-.482-2.035-.919-.301-.272-.648-.407-1.025-.558-1.236-.467-2.065-1.04-1.507-4.1a.55.55 0 0 1 .075-.166l.498-.558a.32.32 0 0 1 .467-.015c.136.121.15.332.015.467l-.437.483c-.482 2.668.18 2.924 1.1 3.271.407.151.86.316 1.252.693.512.483 1.236.784 1.733.739.09-.015.181-.03.257-.06.12-.136.256-.241.406-.347.136-.075.317-.06.423.06a.34.34 0 0 1 .03.422 1.48 1.48 0 0 1-.422.392c-.362.468-.377 1.191-.151 1.719.512 1.206 2.397 2.366 3.663 2.276.739-.06 1.99-.392 2.337-.92a.482.482 0 0 0 .045-.452.331.331 0 0 1 .21-.422c.167-.06.362.03.423.211.18.543.633 1.086 1.085 1.312.211.105.452.166.724.241.256.06.527.136.784.256.105.06.21.106.316.166.317.166.573.301.965.362 1.402.256 2.472.09 3.18-.498.935-.784 1.146-2.17 1.297-3.527a.336.336 0 0 1 .362-.302c.18.015.316.181.301.362-.15 1.493-.392 3.03-1.522 3.98-.633.482-1.447.738-2.427.738ZM83.912 146.455c-.588 0-1.176-.15-1.688-.482-1.312-.814-1.915-2.578-1.357-3.949.075-.166.256-.257.437-.181.166.075.256.256.181.437-.437 1.07.06 2.502 1.085 3.135 1.04.649 2.473.438 3.196-.467.452-.558.618-1.281.709-2.11a1.368 1.368 0 0 1 .105-.95.325.325 0 0 1 .377-.166c.15.045.256.181.241.347-.015.241-.03.482-.06.708.015.061.045.106.06.136.196.392.603.678.995.739.874.12 1.658-.498 2.05-.89.468-.467 1.342-1.869 1.267-2.653-.016-.241-.121-.331-.197-.392a.338.338 0 0 1-.09-.467.34.34 0 0 1 .467-.091c.664.453 1.387.498 2.05.151.845-.467 1.418-1.477 1.387-2.487 0-.181 0-.362-.015-.528 0-.919-.015-1.582-.588-2.336-.557-.739-1.326-1.342-2.08-1.93l-.136-.105a.336.336 0 0 1-.06-.468.336.336 0 0 1 .467-.06l.136.106c.784.618 1.583 1.251 2.201 2.05.708.919.708 1.764.723 2.728v.513c.03 1.251-.678 2.517-1.733 3.09-.603.332-1.251.407-1.87.226.046 1.116-1.024 2.668-1.462 3.105-.587.588-1.522 1.237-2.622 1.086a1.997 1.997 0 0 1-1.1-.573c-.121.603-.348 1.146-.724 1.613-.558.724-1.448 1.115-2.352 1.115ZM67.69 134.911c-.27 0-.557-.03-.844-.09-1.175-.226-2.216-1.146-2.653-2.337-.045-.105-.316-1.145-.226-1.869-1.04.061-2.412-.12-3.12-.904a9.867 9.867 0 0 0-.694-.694c-.557-.527-1.1-1.04-1.477-1.914-.618-1.417-.332-3.648.724-5.035a3.921 3.921 0 0 1-2.759-.965c-1.07-.934-1.628-2.457-1.447-3.964.15-1.312.829-2.412 1.824-2.955a.329.329 0 0 1 .452.136c.09.166.03.362-.136.452-.784.437-1.356 1.372-1.477 2.442-.15 1.296.317 2.593 1.221 3.392.95.844 2.367 1.055 3.437.512.166-.09.362-.015.452.151a.347.347 0 0 1-.15.452c-1.553.784-2.171 3.588-1.508 5.126.317.753.784 1.19 1.327 1.703.24.226.482.467.738.739.618.693 2.231.784 3.136.618.18-.03.346.09.392.271a.31.31 0 0 1-.211.362c-.12.271.06 1.432.165 1.718.362.98 1.222 1.719 2.171 1.915 1.749.346 3.362-.603 4.115-2.427.076-.166.272-.256.438-.181.166.075.256.271.18.437-.813 1.839-2.336 2.909-4.07 2.909Z" fill="#4C2A27"/><path d="M96.556 96.633C90.51 87.212 80.049 81.53 68.804 81.8c-1.96.045-3.95.271-5.789.965-3.06 1.145-5.638 3.557-6.95 6.557-1.552 3.543 3.528 2.186 5.156 1.824 4.387-.95 8.985-.95 13.386-.09 4.81.95 8.819 2.457 12.678 5.457a130.12 130.12 0 0 1 11.864 10.446c.27.272.693.573 1.009.347.257-.181.242-.558.181-.859-.452-2.668-1.1-4.96-2.351-7.372a28.004 28.004 0 0 0-1.432-2.442Z" fill="#ACC7EA"/><path d="M60.424 193.28c19.582-.693 39.073-.286 58.715-1.643 3.618-.256 7.417-.512 10.748.98 8.909 3.995 5.638 20.366 5.623 28.144-.015 6.603-1.176 7.613-7.1 7.974-5.728.347-11.457-.166-17.17-.542a425.873 425.873 0 0 0-62.483.527c-4.447.362-9.512.558-12.678-3.09-5.05-5.819-3.392-22.446-1.311-29.561 1.974-6.753 4.944-5.864 8.547-5.005 5.758 1.387 11.245 2.427 17.11 2.216ZM196.409 190.326c6.919.015 13.853.287 20.606.121 13.703-.332 27.526-.076 41.033 2.562 1.929.377 3.949.86 5.442 2.473 2.472 2.668 1.537 9.316 1.567 13.009.015 3.768 1.463 17.351-1.13 19.491-1.131.935-2.563.95-3.904.92-19.582-.272-39.149-.558-58.73-.829-6.829-.091-13.658-.196-20.486-.287-2.503-.03-5.126-.105-7.312-1.688-4.447-3.226-2.381-11.366-2.155-16.657.271-6.543-1.357-16.884 6.663-18.06 6.014-.874 12.195-1.07 18.406-1.055Z" fill="#87A0D7"/></g><defs><clipPath id="a"><path fill="#fff" d="M0 0h320v210H0z"/></clipPath><clipPath id="b"><rect x="51.449" y="3.418" width="227.526" height="112.182" rx="3.236" fill="#fff"/></clipPath><clipPath id="c"><path fill="#fff" transform="translate(115.196 9.361)" d="M0 0h131.944v126.414H0z"/></clipPath></defs></svg>