<svg width="80" height="80" fill="none" xmlns="http://www.w3.org/2000/svg"><circle cx="40" cy="40" r="40" fill="#F37E60"/><path d="M56.391 18c-2.13-.137-4.277.14-6.322.036-1.232-.062-1.228-1.734-.087-1.977.468-.056.919-.006 1.388-.002l5.046-.003c1.933-.014 1.928.238 1.921 2.24l-.004 2.625c-.001 2.684.045 5.375.001 8.058.533-.5 3.274-2.76 3.769-2.951.828-.319 1.575.697 1.14 1.416-.128.213-5.243 4.39-5.945 4.562-.777-.017-1.245-.697-1.812-1.148-.444-.353-4.095-3.232-4.142-3.465-.121-.6.147-1.43.874-1.426.678.003 3.71 2.647 4.173 3.136v-7.419c0-1.223-.047-2.46 0-3.681ZM21.933 28.977V18.434c-.006-1.024-.252-2.227 1.132-2.375h4.886c.895 0 3.228-.424 3.24.992.01 1.34-2.078.952-2.906.951l-4.416-.001v11.1c.523-.495 3.661-3.182 4.22-3.154.756.038 1.16.919.738 1.54-.263.385-1.288 1.14-1.694 1.49-.722.594-1.456 1.174-2.185 1.758-2.202 1.765-2.147 1.438-4.1-.12l-2.07-1.63c-.724-.574-2.697-1.566-1.867-2.68.744-.999 1.918.215 2.55.706.832.647 1.658 1.297 2.473 1.966ZM40.278 46.855a9.396 9.396 0 0 1-9.532-9.255 9.396 9.396 0 0 1 9.251-9.536 9.396 9.396 0 1 1 .28 18.79Zm-.807-16.799a7.432 7.432 0 1 0 1.31 14.807 7.432 7.432 0 0 0-1.31-14.807ZM23.869 54.98c.706-.968 7.202-4.887 8.397-5.602.52-.311 1.35-.912 1.9-1.056.74-.04 2.039 1.491 2.57 1.983 1.135 1.051 2.29 2.086 3.396 3.166.702-.7 5.305-5.056 5.799-5.135.811-.13 4.501 2.491 5.291 3.007l2.947 1.93c2.509 1.625 2.226.858 2.224 3.626l-.004 3.614c0 .674.164 2.958-.225 3.373-.575.611-1.595.345-1.722-.484-.098-.635-.03-1.79-.03-2.472l.003-5.148c-.586-.316-1.117-.739-1.673-1.105-.469-.308-6.262-4.167-6.514-4.12-1.778 1.454-3.366 3.145-5.115 4.637-1.186 1.012-2.184-.134-3.019-.929l-1.723-1.639c-.726-.68-1.566-1.309-2.206-2.07-2.25 1.163-4.942 2.969-7.007 4.414-.435.305-.893.598-1.286.958-.086.64-.01 1.233-.002 1.87.02 1.579.155 4.053.016 5.585-.086.942-1.334 1.15-1.816.344-.31-.519-.187-3.35-.202-4.055l-.045-2.844c-.008-.598-.075-1.26.046-1.847Z" fill="#fff"/></svg>