<svg width="12" height="33" fill="none" xmlns="http://www.w3.org/2000/svg"><path d="M6.75 1a.75.75 0 0 0-1.5 0h1.5ZM5.47 32.53a.75.75 0 0 0 1.06 0l4.773-4.773a.75.75 0 0 0-1.06-1.06L6 30.939l-4.243-4.242a.75.75 0 1 0-1.06 1.06L5.47 32.53ZM5.25 3.214a.75.75 0 0 0 1.5 0h-1.5Zm1.5 3.322a.75.75 0 0 0-1.5 0h1.5Zm-1.5 4.428a.75.75 0 0 0 1.5 0h-1.5Zm1.5 3.322a.75.75 0 0 0-1.5 0h1.5Zm-1.5 4.428a.75.75 0 0 0 1.5 0h-1.5Zm1.5 3.322a.75.75 0 0 0-1.5 0h1.5Zm-1.5 4.428a.75.75 0 0 0 1.5 0h-1.5Zm1.5 3.322a.75.75 0 0 0-1.5 0h1.5ZM6 1h-.75v2.214h1.5V1H6Zm0 5.536h-.75v4.428h1.5V6.536H6Zm0 7.75h-.75v4.428h1.5v-4.428H6Zm0 7.75h-.75v4.428h1.5v-4.428H6Zm0 7.75h-.75V32h1.5v-2.214H6ZM6.75 1a.75.75 0 0 0-1.5 0h1.5ZM5.47 32.53a.75.75 0 0 0 1.06 0l4.773-4.773a.75.75 0 0 0-1.06-1.06L6 30.939l-4.243-4.242a.75.75 0 1 0-1.06 1.06L5.47 32.53ZM5.25 3.214a.75.75 0 0 0 1.5 0h-1.5Zm1.5 3.322a.75.75 0 0 0-1.5 0h1.5Zm-1.5 4.428a.75.75 0 0 0 1.5 0h-1.5Zm1.5 3.322a.75.75 0 0 0-1.5 0h1.5Zm-1.5 4.428a.75.75 0 0 0 1.5 0h-1.5Zm1.5 3.322a.75.75 0 0 0-1.5 0h1.5Zm-1.5 4.428a.75.75 0 0 0 1.5 0h-1.5Zm1.5 3.322a.75.75 0 0 0-1.5 0h1.5ZM6 1h-.75v2.214h1.5V1H6Zm0 5.536h-.75v4.428h1.5V6.536H6Zm0 7.75h-.75v4.428h1.5v-4.428H6Zm0 7.75h-.75v4.428h1.5v-4.428H6Zm0 7.75h-.75V32h1.5v-2.214H6Z" fill="#F37E60"/></svg>