<svg width="230" height="358" fill="none" xmlns="http://www.w3.org/2000/svg"><path d="M24.944 1.802a.7.7 0 1 0 .112 1.396L25 2.5l-.056-.698ZM212.5 323l.409.568-.409-.568ZM49.672 349.321a.7.7 0 0 0-.344 1.357L49.5 350l.172-.679ZM25 2.5l.056.698c.784-.064 1.587-.126 2.409-.186l-.052-.698-.05-.698c-.826.06-1.633.123-2.42.186L25 2.5Zm6.32-.45.043.699c1.575-.098 3.203-.187 4.876-.266l-.033-.7-.034-.699c-1.68.08-3.314.17-4.895.267l.043.699Zm8.792-.43.026.7c1.591-.058 3.216-.105 4.867-.14l-.015-.7-.015-.7c-1.658.036-3.29.083-4.888.14l.025.7Zm8.79-.2.007.7c1.606-.016 3.233-.02 4.874-.009l.004-.7.005-.7c-1.65-.01-3.283-.007-4.896.008l.006.7Zm8.797.042-.014.7c1.615.031 3.241.077 4.872.139l.026-.7.027-.7C60.97.84 59.336.795 57.713.762l-.014.7Zm8.791.316-.037.699c1.62.086 3.243.188 4.863.308l.051-.699.052-.698c-1.63-.12-3.262-.223-4.892-.31l-.037.7Zm8.773.632-.065.697c1.623.15 3.24.32 4.844.51l.082-.696.082-.695a192.886 192.886 0 0 0-4.879-.513l-.064.697Zm8.736 1.013-.098.693c1.62.23 3.225.481 4.807.757l.12-.69.12-.69a152.715 152.715 0 0 0-4.851-.763l-.098.693Zm8.668 1.487-.14.686c1.61.33 3.193.687 4.741 1.073l.17-.679.17-.679c-1.57-.392-3.172-.753-4.8-1.087l-.14.686Zm8.544 2.101-.197.672c1.584.463 3.123.961 4.612 1.496l.237-.659.236-.659a82.353 82.353 0 0 0-4.692-1.522l-.196.672Zm8.292 2.933-.274.644a53.83 53.83 0 0 1 4.343 2.076l.331-.617.331-.617a55.304 55.304 0 0 0-4.456-2.13l-.275.644Zm7.754 4.094-.385.585a33.837 33.837 0 0 1 3.817 2.903l.464-.525.464-.524a35.155 35.155 0 0 0-3.975-3.024l-.385.585Zm6.634 5.743-.533.453a22.57 22.57 0 0 1 2.682 3.891l.616-.333.615-.334a23.954 23.954 0 0 0-2.847-4.131l-.533.454Zm4.303 7.593-.665.216c.474 1.458.796 2.998.952 4.626l.696-.067.697-.067a22.89 22.89 0 0 0-1.014-4.925l-.666.217Zm1.051 8.667-.699-.04a28.987 28.987 0 0 1-.239 2.401l.693.098.693.098c.121-.856.204-1.695.251-2.517l-.699-.04ZM129 38.5l-.693-.098a20.987 20.987 0 0 1-.489 2.43l.677.18.676.178c.222-.838.397-1.702.522-2.592L129 38.5Zm-1.921 6.307-.628-.308a21.28 21.28 0 0 1-2.662 4.116l.541.444.542.443a22.652 22.652 0 0 0 2.836-4.387l-.629-.308Zm-5.558 7.18-.468-.52a34.858 34.858 0 0 1-3.947 3.05l.389.582.39.582a36.246 36.246 0 0 0 4.105-3.173l-.469-.52Zm-7.501 5.225-.34-.612a64.954 64.954 0 0 1-4.505 2.259l.29.637.291.636a66.185 66.185 0 0 0 4.603-2.308l-.339-.612Zm-8.293 3.882-.261-.649a118.978 118.978 0 0 1-4.734 1.781l.234.66.233.66c1.643-.58 3.242-1.18 4.789-1.802l-.261-.65Zm-8.606 3.096-.217-.665c-1.579.514-3.194 1.018-4.839 1.514l.202.67.202.67a229.048 229.048 0 0 0 4.87-1.523l-.218-.666Zm-8.75 2.666-.193-.672c-1.608.464-3.24.924-4.889 1.383l.188.674.188.674c1.652-.46 3.287-.92 4.9-1.386l-.193-.672Zm-8.817 2.47-.186-.675c-1.622.446-3.26.895-4.906 1.35l.186.674.186.675c1.645-.454 3.281-.902 4.906-1.35l-.186-.674Zm-8.83 2.439-.19-.674c-1.628.456-3.261.92-4.896 1.394l.195.672.195.672c1.63-.472 3.26-.935 4.884-1.39l-.188-.674Zm-8.791 2.545-.202-.67c-1.627.491-3.252.995-4.87 1.515l.215.666.214.666a287.353 287.353 0 0 1 4.845-1.506l-.202-.67ZM53.212 77.1l-.226-.663c-1.615.55-3.22 1.12-4.81 1.71l.244.656.244.656c1.577-.585 3.17-1.15 4.774-1.697l-.226-.662Zm-8.583 3.165-.26-.65c-1.59.638-3.161 1.3-4.71 1.99l.285.64.285.639c1.531-.682 3.086-1.338 4.66-1.97l-.26-.649Zm-8.376 3.703-.308-.629a99.09 99.09 0 0 0-4.542 2.366l.34.612.339.612a97.68 97.68 0 0 1 4.478-2.332l-.307-.63Zm-8.02 4.405-.37-.595a75.318 75.318 0 0 0-4.27 2.844l.409.569.408.569a73.99 73.99 0 0 1 4.19-2.791l-.368-.596Zm-7.46 5.286-.442-.543a59.764 59.764 0 0 0-3.845 3.415l.488.503.487.502a58.358 58.358 0 0 1 3.755-3.335l-.443-.542Zm-6.611 6.313-.524-.465a50.914 50.914 0 0 0-3.222 4.024l.568.409.568.409a49.7 49.7 0 0 1 3.134-3.913l-.524-.464Zm-5.412 7.36-.6-.36a48.507 48.507 0 0 0-2.412 4.553l.635.294.635.295a47.075 47.075 0 0 1 2.343-4.422l-.6-.36Zm-3.928 8.233-.657-.241a51.168 51.168 0 0 0-.834 2.47L4 118l.669.207c.252-.816.523-1.616.81-2.402l-.657-.241ZM4 118l-.669-.207a80.74 80.74 0 0 0-.707 2.414l.675.186.675.186c.215-.782.447-1.573.695-2.372l-.67-.207Zm-1.64 6.182-.683-.149a63.24 63.24 0 0 0-.872 4.874l.693.095.694.096c.213-1.551.497-3.14.852-4.766l-.683-.15Zm-1.258 8.702-.699-.046a48.351 48.351 0 0 0-.074 4.98l.7-.026.699-.027a46.959 46.959 0 0 1 .072-4.836l-.698-.045Zm.252 8.808-.694.091c.22 1.684.54 3.317.956 4.902l.677-.178.677-.178a37.96 37.96 0 0 1-.922-4.728l-.694.091Zm2.135 8.545-.655.249a36.748 36.748 0 0 0 2.089 4.532l.614-.335.615-.335a35.444 35.444 0 0 1-2.01-4.36l-.653.249Zm4.102 7.78-.576.398a40.79 40.79 0 0 0 3.079 3.915l.523-.464.523-.465a39.45 39.45 0 0 1-2.973-3.782l-.576.398Zm5.755 6.658-.48.509a51.366 51.366 0 0 0 3.778 3.227l.429-.553.429-.553a50.08 50.08 0 0 1-3.675-3.139l-.48.509Zm6.902 5.474-.39.581a67.535 67.535 0 0 0 4.21 2.608l.347-.608.347-.608a66.02 66.02 0 0 1-4.123-2.554l-.391.581Zm7.617 4.434-.316.624a88.7 88.7 0 0 0 4.468 2.103l.281-.641.281-.641a87.732 87.732 0 0 1-4.399-2.07l-.315.625Zm8.06 3.591-.257.652c1.503.591 3.047 1.159 4.631 1.706l.228-.662.229-.662a115.018 115.018 0 0 1-4.575-1.685l-.257.651Zm8.335 2.921-.208.669c1.538.48 3.11.941 4.714 1.385l.187-.675.186-.675c-1.59-.439-3.148-.897-4.67-1.372l-.209.668Zm8.477 2.377-.17.679c1.568.394 3.166.772 4.792 1.136l.153-.684.153-.683c-1.615-.36-3.2-.736-4.758-1.127l-.17.679Zm8.62 1.952-.14.685c1.581.322 3.186.63 4.815.926l.125-.689.125-.689c-1.62-.294-3.215-.6-4.785-.919l-.14.686Zm8.666 1.591-.114.69c1.603.265 3.228.518 4.874.76l.101-.693.102-.693c-1.638-.24-3.254-.492-4.849-.755l-.114.691Zm8.723 1.298-.093.694c1.607.214 3.232.418 4.876.613l.082-.695.082-.696a326.057 326.057 0 0 1-4.855-.61l-.092.694Zm8.772 1.051-.074.696c1.608.172 3.232.335 4.873.489l.065-.696.066-.697a393.743 393.743 0 0 1-4.855-.488l-.075.696Zm8.784.838-.059.698c1.615.136 3.244.264 4.887.385l.051-.698.051-.698a462.637 462.637 0 0 1-4.871-.384l-.059.697Zm8.788.655-.045.699c1.624.106 3.262.204 4.913.296l.039-.699.038-.699c-1.646-.091-3.279-.19-4.9-.295l-.045.698Zm8.805.498-.033.699c1.627.079 3.266.151 4.916.217l.028-.7.028-.699a620.177 620.177 0 0 1-4.905-.216l-.034.699Zm8.817.36-.024.699c1.627.055 3.264.104 4.911.147l.018-.7.019-.699a689.376 689.376 0 0 1-4.901-.147l-.023.7Zm8.822.238-.015.7c.821.017 1.644.033 2.469.047l.012-.7.012-.7a654.16 654.16 0 0 1-2.464-.047l-.014.7ZM134 192l-.012.7c.845.015 1.685.039 2.52.073l.028-.7.029-.699c-.846-.034-1.697-.059-2.553-.074l-.012.7Zm6.525.31-.054.698c1.676.132 3.329.302 4.959.51l.088-.694.089-.695a103.328 103.328 0 0 0-5.027-.516l-.055.697Zm8.926 1.095-.116.691c1.66.279 3.295.598 4.904.955l.152-.683.151-.683a98.071 98.071 0 0 0-4.974-.97l-.117.69Zm8.824 1.91-.181.677c1.615.43 3.202.898 4.761 1.404l.216-.666.216-.665a93.628 93.628 0 0 0-4.832-1.426l-.18.676Zm8.591 2.738-.244.656a91.148 91.148 0 0 1 4.598 1.859l.28-.641.28-.642a93.21 93.21 0 0 0-4.669-1.888l-.245.656Zm8.272 3.558-.308.628a90.783 90.783 0 0 1 4.403 2.31l.342-.611.342-.61a91.364 91.364 0 0 0-4.471-2.346l-.308.629Zm7.88 4.357-.368.595a90.704 90.704 0 0 1 4.154 2.732l.4-.574.401-.574a92.115 92.115 0 0 0-4.218-2.774l-.369.595Zm7.425 5.119-.425.556a92 92 0 0 1 3.864 3.121l.454-.533.455-.532a93.35 93.35 0 0 0-3.923-3.168l-.425.556Zm6.885 5.808-.476.512a95.794 95.794 0 0 1 3.554 3.481l.502-.487.503-.487a94.769 94.769 0 0 0-3.607-3.532l-.476.513Zm6.307 6.439-.522.466a97.022 97.022 0 0 1 3.211 3.79l.545-.438.546-.439a99.842 99.842 0 0 0-3.257-3.845l-.523.466Zm5.685 6.995-.563.416a99.523 99.523 0 0 1 2.856 4.073l.583-.388.583-.387a100.638 100.638 0 0 0-2.896-4.13l-.563.416Zm5.025 7.478-.598.364a100.57 100.57 0 0 1 2.48 4.309l.615-.334.615-.334a102.329 102.329 0 0 0-2.514-4.37l-.598.365Zm4.342 7.904-.628.309a99.434 99.434 0 0 1 2.086 4.516l.643-.278.643-.277a102.332 102.332 0 0 0-2.116-4.579l-.628.309Zm3.614 8.25-.653.252a98.1 98.1 0 0 1 1.669 4.682l.665-.218.665-.218a98.75 98.75 0 0 0-1.693-4.75l-.653.252Zm2.852 8.558-.674.19c.454 1.61.862 3.218 1.222 4.82l.683-.153.683-.154a93.742 93.742 0 0 0-1.24-4.893l-.674.19Zm2.022 8.781-.689.123c.294 1.646.538 3.284.731 4.909l.695-.082.695-.083a86.628 86.628 0 0 0-.742-4.99l-.69.123Zm1.111 8.939-.698.048c.115 1.673.175 3.329.18 4.962l.7-.002.7-.002a77.135 77.135 0 0 0-.183-5.054l-.699.048Zm.079 9.02-.699-.038a63.792 63.792 0 0 1-.457 4.933l.694.092.694.092c.219-1.649.374-3.331.467-5.041l-.699-.038Zm-1.123 8.938-.686-.139a52.085 52.085 0 0 1-1.206 4.791l.669.204.67.204a53.28 53.28 0 0 0 1.239-4.92l-.686-.14Zm-2.545 8.634-.65-.259a41.731 41.731 0 0 1-2.086 4.459l.615.335.615.334a42.966 42.966 0 0 0 2.156-4.609l-.65-.26Zm-4.212 7.947-.576-.396a34.229 34.229 0 0 1-3.057 3.831l.513.475.514.475a35.421 35.421 0 0 0 3.183-3.988l-.577-.397Zm-6.008 6.677-.453-.534a31.605 31.605 0 0 1-1.933 1.511l.409.568.409.568a33.038 33.038 0 0 0 2.02-1.578l-.452-.535ZM212.5 323l-.409-.568c-.666.48-1.339.956-2.019 1.43l.4.574.4.574a150.43 150.43 0 0 0 2.037-1.442L212.5 323Zm-5.329 3.675-.386-.584c-1.37.904-2.765 1.796-4.184 2.672l.368.596.367.595a163.718 163.718 0 0 0 4.22-2.695l-.385-.584Zm-7.62 4.74-.354-.604c-1.418.83-2.859 1.646-4.321 2.446l.336.614.336.614a173.011 173.011 0 0 0 4.356-2.466l-.353-.604Zm-7.86 4.331-.322-.621c-1.46.756-2.941 1.496-4.442 2.221l.305.63.304.631c1.513-.73 3.005-1.477 4.477-2.239l-.322-.622Zm-8.071 3.925-.29-.637a180.783 180.783 0 0 1-4.548 1.997l.273.645.273.645a183.511 183.511 0 0 0 4.582-2.013l-.29-.637Zm-8.257 3.52-.259-.65a185.854 185.854 0 0 1-4.64 1.773l.242.657.241.657a186.172 186.172 0 0 0 4.674-1.787l-.258-.65Zm-8.42 3.115-.227-.662a187.508 187.508 0 0 1-4.72 1.549l.21.668.209.668a188.952 188.952 0 0 0 4.755-1.56l-.227-.663Zm-8.551 2.708-.195-.672c-1.582.46-3.177.902-4.788 1.325l.178.677.178.677c1.622-.426 3.23-.872 4.823-1.335l-.196-.672Zm-8.671 2.304-.164-.681c-1.601.386-3.216.753-4.844 1.102l.146.684.147.685c1.639-.351 3.266-.721 4.879-1.11l-.164-.68Zm-8.773 1.9-.132-.687c-1.618.311-3.249.604-4.891.877l.114.691.115.69c1.655-.275 3.297-.57 4.926-.884l-.132-.687Zm-8.85 1.496-.101-.693c-1.63.238-3.271.456-4.924.655l.084.695.083.695c1.664-.2 3.317-.42 4.958-.659l-.1-.693Zm-8.903 1.093-.069-.697c-1.64.164-3.29.309-4.95.433l.052.698.053.698c1.671-.125 3.333-.27 4.984-.436l-.07-.696Zm-8.951.694-.038-.699c-1.647.091-3.302.162-4.968.213l.022.7.021.699c1.677-.051 3.344-.123 5.002-.214l-.039-.699Zm-8.966.297-.008-.7c-1.647.018-3.303.017-4.967-.005l-.01.7-.009.7c1.676.022 3.343.023 5.001.005l-.007-.7Zm-8.973-.095.022-.699a209.957 209.957 0 0 1-4.967-.219l-.04.698-.039.699c1.675.094 3.342.168 5.001.221l.023-.7Zm-8.963-.48.052-.698a207.724 207.724 0 0 1-4.948-.43l-.068.697-.069.697c1.667.164 3.328.308 4.98.432l.053-.698Zm-8.93-.859.081-.695a223.115 223.115 0 0 1-4.933-.637l-.097.693-.098.693c1.662.234 3.317.448 4.965.641l.082-.695Zm-8.891-1.23.11-.691a219.858 219.858 0 0 1-4.896-.837l-.126.689-.125.688c1.648.301 3.29.582 4.927.842l.11-.691Zm-8.832-1.591.138-.686c-1.618-.325-3.241-.67-4.87-1.034l-.152.683-.153.683c1.638.367 3.271.714 4.899 1.041l.138-.687Zm-8.758-1.94.164-.681c-.806-.195-1.614-.395-2.423-.601L49.5 350l-.172.678c.814.207 1.626.408 2.438.605l.165-.68Z" fill="#F37E60"/></svg>