<svg width="756" height="494" viewBox="0 0 756 494" fill="none" xmlns="http://www.w3.org/2000/svg">
<g clip-path="url(#clip0_2042_95)">
<path d="M489.116 373.395L329.059 373.395L329.059 231.634L480.453 231.634C496.213 231.634 508.989 245.53 508.989 262.674L489.118 373.398L489.116 373.395Z" fill="#BF9A76"/>
<g clip-path="url(#clip1_2042_95)">
<path d="M329.154 51.1759C338.795 31.7701 358.871 20.0343 379.935 17.3537C390.383 16.0198 403.152 15.7761 413.395 18.5593C429.908 23.0613 445.472 33.0656 452.971 48.8672C456.894 57.14 458.792 66.1182 461.446 74.8271C466.202 90.4363 471.497 106.456 472.035 122.912C472.227 128.748 471.997 135.853 468.074 140.586C467.766 140.958 467.215 140.855 466.894 140.586C466.625 140.355 466.356 140.124 466.086 139.906C465.548 141.433 464.792 142.843 463.715 144.023C462.099 145.781 461.112 145.511 459.048 145.524C456.087 145.55 453.984 145.986 451.42 147.474C450.241 148.153 449.087 148.833 447.83 149.346C441.331 152.04 434.882 148.897 428.126 149.282C427.113 149.333 426.1 149.398 425.1 149.423C418.729 152.963 409.229 152.861 402.729 153.104C390.998 153.54 379.255 152.707 367.525 153.579C362.14 153.976 357.679 153.412 352.461 152.155C347.243 150.911 341.551 150.129 336.551 148.166C334.936 147.538 333.705 146.666 332.718 145.652C331.487 149.115 329.59 153.386 326.359 151.27C324.192 149.859 323.205 146.332 322.321 144.036C320.962 140.483 320.064 136.777 319.539 133.019C318.551 126.003 321.782 66.0028 329.154 51.1759Z" fill="#657398"/>
<path d="M444.26 28.1661C445.901 25.447 447.785 22.8947 449.901 20.509C451.503 18.7134 453.337 16.9434 455.683 16.379C458.49 15.6993 459.939 18.0464 462.042 19.329C465.708 21.5864 472.721 23.0101 472.99 28.474C473.08 30.2311 472.17 32.0139 470.695 32.9759C469.811 33.5531 468.644 33.9763 468.362 35.0024C468.029 36.1952 469.17 37.247 469.605 38.4141C470.246 40.12 469.272 42.108 467.772 43.1469C466.272 44.1858 464.4 44.4808 462.58 44.6091C456.772 45.0452 450.875 44.173 445.439 42.0952C444.016 41.5437 442.542 40.8639 441.67 39.6069C440.055 37.2854 441.081 34.0918 442.363 31.565C442.952 30.4107 443.58 29.2692 444.26 28.1661Z" fill="#657398"/>
<path d="M308.78 31.0519C309.28 29.4358 310.446 28.0762 311.831 27.0886C313.357 25.9856 315.151 25.3058 316.933 24.6902C317.6 24.4593 318.292 24.2156 318.754 23.6898C319.074 23.3178 319.228 22.8432 319.446 22.4071C320.382 20.4191 322.408 18.9954 324.587 18.7646C328.664 18.3541 330.754 21.7145 332.766 24.6389C335.177 28.1532 337.484 31.7445 339.33 35.5795C340.343 37.6958 341.228 40.1712 340.318 42.3388C339.369 44.609 336.818 45.712 334.471 46.4431C329.215 48.0592 323.651 48.9185 318.19 48.2772C316.51 48.0848 314.792 47.7129 313.446 46.6868C312.1 45.6607 311.267 43.8138 311.844 42.2362C312.293 41.0177 313.523 39.9403 313.151 38.6962C312.818 37.5803 311.459 37.234 310.485 36.5927C308.908 35.5538 308.254 33.4375 308.639 31.6034C308.677 31.4238 308.729 31.2314 308.78 31.0647V31.0519Z" fill="#657398"/>
<path d="M444.85 36.3746C446.389 37.6572 447.478 39.3374 448.094 41.2357C448.427 42.2618 446.812 42.6978 446.491 41.6846C445.965 40.0429 444.991 38.6577 443.671 37.5546C442.85 36.862 444.03 35.6948 444.85 36.3746Z" fill="#303F66"/>
<path d="M277.054 210.616L236.542 204.357C236.542 204.357 229.055 187.17 232.004 178.564C234.953 169.958 246.157 168.675 259.542 169.47C272.939 170.266 287.541 169.804 287.541 169.804L277.054 210.616Z" fill="#FCBFA3"/>
<path d="M507.251 214.99L535.365 235.421C535.365 235.421 535.724 254.609 529.366 261.099C522.994 267.589 512.328 263.921 500.597 257.418C488.867 250.915 475.482 245.028 475.482 245.028L507.264 215.002L507.251 214.99Z" fill="#FCBFA3"/>
<path d="M500.593 257.405C500.593 257.405 521.438 245.9 521.541 241.206C521.656 235.691 520.682 238.731 528.502 220.402C532.707 210.539 548.092 177.756 549.335 170.984C549.399 170.624 570.758 176.614 570.758 176.614C569.386 187.683 567.822 198.726 566.104 209.744C563.578 225.956 562.143 244.784 552.374 258.56C539.951 276.054 514.977 268.32 500.593 257.418V257.405Z" fill="#FCBFA3"/>
<path d="M305.603 247.324C305.616 247.889 305.654 248.479 305.706 249.043C305.757 249.979 305.808 250.903 305.872 251.839C306.757 264.96 308.539 278.427 308.539 285.802C308.539 297.461 305.744 315.789 305.744 315.789C305.744 315.789 380.819 326.884 404.895 328.551C428.959 330.219 437.997 333.002 442.356 328.551C445.497 325.358 451.112 312.891 455.304 296.204C456.022 293.357 456.689 290.368 457.304 287.303C457.42 286.739 457.535 286.149 457.638 285.584C458.266 282.237 458.83 278.774 459.304 275.234C459.843 271.181 460.599 266.589 461.522 261.664C461.638 261.061 461.753 260.458 461.868 259.842C463.266 252.442 464.971 244.438 466.676 236.589C466.791 236.037 466.907 235.486 467.022 234.934C468.932 226.11 470.83 217.581 472.266 210.514C472.394 209.898 472.509 209.295 472.637 208.718C474.317 200.189 475.253 194.096 474.599 192.647C474.394 192.211 473.766 191.685 472.778 191.082C470.099 189.428 464.804 187.196 458.574 184.874C457.676 184.528 456.74 184.195 455.804 183.861C453.471 182.989 451.061 182.142 448.651 181.296C445.382 180.167 442.125 179.051 439.023 178.012C429.164 174.742 421.139 172.279 421.139 172.279C421.139 172.279 406.472 169.727 387.319 169.727C371.153 169.727 351.871 168.277 333.82 169.56C330.513 169.791 327.231 170.124 324.026 170.573C323.808 170.612 323.487 170.984 323.09 171.702C322.846 172.151 322.551 172.715 322.244 173.395C320.231 177.756 317.051 186.67 314 196.469C313.769 197.213 313.539 197.983 313.295 198.752C313.128 199.265 312.975 199.804 312.808 200.317C311.487 204.678 310.244 209.128 309.167 213.348C308.436 216.195 307.77 218.966 307.231 221.505C307.103 222.083 306.988 222.634 306.885 223.173C306.321 225.956 305.898 228.431 305.706 230.535C305.206 235.447 305.257 241.258 305.577 247.311L305.603 247.324Z" fill="#7FCBB4"/>
<path d="M372.161 178.256C372.161 178.59 372.199 178.91 372.237 179.218C372.648 181.771 374.699 183.848 377.353 184.182L389.288 185.76C398.352 186.94 407.57 185.99 416.198 182.964L416.441 182.874C418.608 182.104 420.159 180.155 420.403 177.872L422.787 156.337L423.057 152.951L424.352 136.521L415.159 139.522L372.968 153.297L372.725 161.865L372.519 168.791L372.314 173.011L372.237 175.64L372.173 177.859C372.173 177.987 372.161 178.102 372.161 178.244V178.256Z" fill="#FCBFA3"/>
<path d="M372.143 178.256C372.143 178.59 372.182 178.91 372.22 179.218C377.105 179.051 383.759 178.154 390.169 176.204C412.643 169.329 422.873 154.618 422.873 154.618C422.873 154.618 419.091 142.459 419.091 140.791C419.091 140.214 417.514 139.791 415.142 139.547L372.951 153.323L372.708 161.89L372.502 168.816L372.297 173.036L372.22 175.665L372.156 177.884C372.156 178.013 372.143 178.128 372.143 178.269V178.256Z" fill="#F7B091"/>
<path d="M337.959 119.41C338.343 123.656 339.023 127.876 340.164 132.057C343.702 145.062 351.561 157.106 363.958 163.07C375.061 168.419 388.073 168.791 399.893 165.828C408.214 163.737 416.342 160.146 422.918 154.605C434.88 144.537 439.341 129.735 440.572 124.708C443.354 113.267 444.636 101.313 444.277 89.5386C444.046 82.2406 443.405 74.2243 440.059 67.5933C431.893 51.394 388.74 44.9554 370.086 50.3166C351.42 55.6907 341.741 61.1674 340.702 68.8631C339.292 79.3034 337.523 91.5779 337.472 102.07C337.446 107.893 337.459 113.664 337.985 119.41H337.959Z" fill="#FCBFA3"/>
<path d="M355.721 108.098C355.35 106.969 355.183 105.763 355.234 104.571C355.298 103.288 355.67 101.941 356.644 101.12C360.273 98.0934 362.785 105.956 363.055 108.277C363.157 109.201 363.157 110.15 362.837 111.022C362.516 111.894 361.811 112.664 360.914 112.882C359.58 113.202 358.273 112.266 357.414 111.214C356.67 110.291 356.093 109.239 355.721 108.111V108.098Z" fill="black"/>
<path d="M408.049 109.047C407.754 107.649 407.779 106.187 408.138 104.802C408.408 103.776 408.882 102.762 409.754 102.16C413.715 99.4405 415.318 108.047 415.266 110.343C415.241 111.202 415.125 112.074 414.741 112.831C414.356 113.588 413.651 114.229 412.818 114.37C411.523 114.588 410.318 113.613 409.561 112.536C408.818 111.497 408.318 110.291 408.049 109.034V109.047Z" fill="black"/>
<path d="M428.201 99.6326C428.201 99.6326 440.495 89.577 450.7 94.7203C460.905 99.8763 456.11 119.603 448.29 126.516C441.649 132.39 432.175 134.712 432.175 134.712L428.201 99.6326Z" fill="#FCBFA3"/>
<path d="M379.76 111.099C380.094 110.086 381.696 110.522 381.363 111.548C380.324 114.754 374.709 122.424 380.876 123.335C381.927 123.489 381.478 125.092 380.427 124.938C378.171 124.605 376.504 122.899 376.248 120.616C375.863 117.281 378.773 114.139 379.747 111.112L379.76 111.099Z" fill="#F7B091"/>
<path d="M369.918 130.633C369.918 130.633 376.918 132.647 384.392 132.518C391.866 132.39 398.264 130.017 398.264 130.017C398.264 130.017 393.341 138.021 384.11 138.957C374.88 139.906 369.931 130.633 369.931 130.633H369.918Z" fill="white"/>
<path d="M404.645 91.0007C405.851 89.4744 408.863 89.3334 410.453 89.4103C413.427 89.5771 416.658 90.0131 419.363 91.501C420.94 92.3731 425.017 95.5668 420.863 95.7335C416.632 95.9003 412.376 95.6951 408.184 95.1179C406.658 94.8999 403.876 94.2585 404.158 92.1551C404.222 91.7062 404.389 91.3214 404.645 91.0007Z" fill="#657398"/>
<path d="M366.291 92.1422C366.573 94.2457 363.791 94.887 362.265 95.1051C358.073 95.6951 353.817 95.9003 349.586 95.7207C346.163 95.5796 348.83 93.117 350.24 92.1038C353.099 90.0516 356.534 89.5899 359.996 89.3975C361.586 89.3077 364.598 89.4616 365.803 90.9879C366.06 91.3086 366.227 91.6933 366.291 92.1422Z" fill="#657398"/>
<path d="M436.16 121.719C437.929 120.282 439.762 118.73 440.698 116.601C442.019 113.6 440.75 111.009 439.326 108.329C438.827 107.379 440.262 106.546 440.762 107.482C442.147 110.086 443.506 112.895 442.724 115.922C441.955 118.884 439.621 121.039 437.327 122.899C436.506 123.566 435.314 122.399 436.147 121.719H436.16Z" fill="#F7B091"/>
<path d="M359.883 77.8796C359.678 78.072 359.473 78.2515 359.242 78.4183C356.627 80.2652 353.165 78.1104 350.165 78.6876C347.601 79.1878 345.358 78.4952 342.858 78.7646C340.127 79.0596 338.012 80.573 335.101 80.4961C335.037 80.4961 334.973 80.4833 334.909 80.4833C333.96 79.1109 333.268 77.5461 332.909 75.9685C330.614 65.8103 339.704 53.3049 347.396 47.6358C356.96 40.5815 369.062 40.402 380.549 41.3639C380.882 41.0304 381.549 41.0176 381.882 41.4793C383.69 41.6461 385.485 41.8385 387.241 42.0309C388.293 42.1463 388.305 43.8137 387.241 43.6982C385.728 43.5315 384.203 43.3648 382.664 43.2237C382.87 43.6982 383.062 44.1856 383.28 44.6474C383.613 44.1343 384.536 44.1985 384.754 44.8654C385.793 44.8141 386.844 44.8141 387.895 44.0959C389.1 43.2493 389.985 41.9924 391.177 41.1202C395.318 38.0548 400.69 37.7598 405.587 38.6576C417.446 40.8124 430.497 47.0971 439.33 55.2801C447.176 62.5525 455.496 74.3524 452.342 85.6393C451.253 89.5384 448.906 93.4375 444.484 93.5145C440.484 93.5786 435.432 91.8471 433.368 88.2173C432.753 87.1271 432.65 85.8445 431.92 84.8313C430.958 83.4974 429.317 83.1767 427.856 82.42C426.612 81.7787 425.407 81.0732 424.24 80.2909C424.728 81.4837 425.202 82.6765 425.625 83.9078C425.881 84.6645 425.01 85.1263 424.407 84.8441C417.856 81.8941 412.048 77.7 406.484 73.1853C406.6 73.3905 406.715 73.5957 406.818 73.8137C407.459 75.045 409.343 77.5718 408.472 79.1365C406.561 82.5867 400.844 77.2511 399.267 76.0198C391.639 70.0557 385.716 62.2447 381.921 53.4332C379.472 56.7808 378.293 60.7953 377.203 64.7586C376.177 68.4909 375.793 72.3259 374.87 76.0583C374.383 78.0335 373.613 79.4828 371.639 80.0856C371.062 80.2652 370.652 79.7907 370.588 79.2776C370.113 75.712 370.101 72.2105 370.511 68.7475C369.844 70.2866 369.114 71.8 367.626 72.7235C366.485 73.429 365.216 73.3135 364.011 73.7881C362.088 74.532 361.306 76.52 359.909 77.8796H359.883Z" fill="#657398"/>
<path d="M389.898 28.8074C390.5 27.9224 391.936 28.7561 391.334 29.654C387.86 34.7459 385.693 40.3252 384.808 46.4176C384.654 47.4693 383.052 47.0204 383.206 45.9686C384.116 39.748 386.36 34.002 389.898 28.8074Z" fill="#303F66"/>
<path d="M391.267 46.443C392.088 55.0236 397.165 62.0009 403.536 67.4776C404.357 68.183 403.165 69.3502 402.357 68.6576C395.601 62.8602 390.46 55.4853 389.601 46.443C389.498 45.3784 391.165 45.3784 391.267 46.443Z" fill="#303F66"/>
<path d="M406.538 45.9426C408.32 50.8037 410.153 55.8571 413.717 59.7434C415.499 61.6801 417.653 63.309 420.166 64.1812C421.871 64.784 423.524 64.861 425.024 65.9255C427.691 67.811 429.64 71.2483 431.922 73.5827C435.319 77.0585 439.127 79.8418 443.909 80.9961C444.947 81.2526 444.511 82.8559 443.46 82.5994C439.473 81.6246 436.075 79.6237 432.999 76.9174C428.883 73.2877 426.14 68.1188 420.935 66.1308C411.768 62.6421 408.166 55.2158 404.922 46.3787C404.55 45.3654 406.166 44.9422 406.525 45.9298L406.538 45.9426Z" fill="#303F66"/>
<path d="M367.952 67.3619C370.196 59.4868 373.927 52.3555 379.106 46.0066C379.785 45.1729 380.952 46.3658 380.285 47.1866C375.298 53.3175 371.734 60.205 369.568 67.8108C369.273 68.8369 367.67 68.4008 367.965 67.3619H367.952Z" fill="#303F66"/>
<path d="M332.264 44.9683C334.008 42.2108 336.239 39.8764 338.918 37.991C339.79 37.3753 340.623 38.8119 339.764 39.4275C337.341 41.1462 335.303 43.2881 333.713 45.802C333.136 46.6999 331.7 45.8662 332.277 44.9555L332.264 44.9683Z" fill="#303F66"/>
<path d="M448.958 31.7703C452.266 27.2299 456.265 23.3692 460.945 20.2525C461.842 19.6497 462.676 21.099 461.791 21.689C457.368 24.639 453.535 28.3073 450.407 32.6168C449.778 33.4761 448.343 32.6425 448.971 31.7703H448.958Z" fill="#303F66"/>
<path d="M454.654 28.73C458 26.8574 461.526 25.4081 465.205 24.3692C466.244 24.0742 466.68 25.6903 465.654 25.9724C462.103 26.9729 458.718 28.3709 455.5 30.1665C454.565 30.6924 453.718 29.2559 454.654 28.73Z" fill="#303F66"/>
<path d="M321.623 26.9601C326.354 28.7301 330.418 31.616 333.572 35.5792C334.239 36.4129 333.059 37.5929 332.392 36.7592C329.431 33.0268 325.649 30.2307 321.175 28.5634C320.175 28.1914 320.611 26.5882 321.623 26.9601Z" fill="#303F66"/>
<path d="M311.836 29.3975C317.374 29.218 322.656 30.2825 327.707 32.5399C328.681 32.976 327.835 34.4125 326.861 33.9764C322.079 31.8473 317.053 30.8982 311.836 31.0649C310.759 31.1034 310.771 29.436 311.836 29.3975Z" fill="#303F66"/>
<path d="M335.878 74.1604C339.198 61.3216 344.596 49.2523 351.967 38.2348C352.557 37.3498 354.006 38.1835 353.403 39.0813C346.108 49.9834 340.762 61.9116 337.48 74.6093C337.211 75.6482 335.609 75.2122 335.878 74.1604Z" fill="#303F66"/>
<path d="M329.475 80.5862C331.167 73.5191 332.616 65.9004 336.667 59.7568C337.257 58.8718 338.693 59.7055 338.103 60.6033C334.154 66.5802 332.718 74.1604 331.077 81.0351C330.834 82.074 329.218 81.638 329.475 80.5862Z" fill="#303F66"/>
<path d="M463.544 99.5558C467.39 110.843 467.211 122.707 466.865 134.481C466.839 135.546 465.173 135.558 465.198 134.481C465.544 122.848 465.737 111.151 461.942 99.9919C461.596 98.9787 463.198 98.5426 463.544 99.543V99.5558Z" fill="#303F66"/>
<path d="M459.351 139.842C461.056 133.622 461.825 127.324 461.671 120.873C461.645 119.795 463.312 119.795 463.338 120.873C463.504 127.478 462.71 133.917 460.966 140.278C460.684 141.317 459.081 140.868 459.363 139.829L459.351 139.842Z" fill="#303F66"/>
<path d="M328.509 102.852C328.625 101.8 330.291 101.787 330.176 102.852C328.689 116.191 327.291 129.62 329.586 142.946C329.766 143.998 328.163 144.446 327.984 143.395C325.663 129.902 326.997 116.358 328.509 102.852Z" fill="#303F66"/>
<path d="M425.629 263.844C425.629 264.395 425.668 264.96 425.681 265.537C425.886 270.103 426.347 275.143 427.181 280.723C427.245 281.274 427.335 281.826 427.424 282.39C428.142 286.969 429.091 291.881 430.334 297.166C437.655 328.41 446.937 312.929 455.295 296.178C456.693 293.369 458.077 290.496 459.411 287.828C459.68 287.29 459.949 286.777 460.193 286.276C463.539 279.735 466.603 274.605 469.18 274.387C479.064 273.553 478.333 270.783 483.615 271.334C488.872 271.886 494.153 269.385 496.935 261.625C497 261.445 497.064 261.253 497.153 261.048C497.32 260.586 497.525 260.06 497.756 259.483C499.487 255.122 502.807 247.568 506.051 240.282C506.281 239.769 506.512 239.243 506.756 238.73C510.999 229.201 514.986 220.543 514.986 220.543C514.986 220.543 507.448 214.694 497.525 207.089C496.807 206.537 496.077 205.973 495.333 205.408C494.423 204.703 493.474 203.998 492.525 203.254C484.269 196.956 477.346 193.198 472.808 191.082C469.167 189.389 467.052 188.76 467.052 188.76L445.244 213.976L443.975 215.413L432.591 228.585C432.591 228.585 431.027 230.547 429.373 235.062C429.168 235.575 428.988 236.127 428.796 236.73C426.976 242.347 425.271 251.12 425.668 263.831L425.629 263.844Z" fill="#7FCBB4"/>
<path d="M270.213 169.188C270.213 169.188 270.841 180.795 271.571 193.814C271.61 194.352 271.636 194.891 271.674 195.443C272.007 201.727 272.379 208.217 272.687 213.797C272.738 214.374 272.764 214.964 272.789 215.515C273.136 221.377 273.405 226.046 273.533 228.046C274.084 236.088 282.276 237.345 290.597 240.962C293.327 242.142 295.648 244.028 298.02 246.041H298.032C298.866 246.747 299.686 247.439 300.545 248.145H300.558C302.173 249.479 303.904 250.761 305.84 251.839C308.942 253.57 312.622 254.776 317.391 254.776C321.006 254.776 323.75 254.378 325.827 253.698H325.839C326.609 253.455 327.275 253.16 327.852 252.826H327.865C328.98 252.223 329.827 251.505 330.48 250.723C332.16 248.658 332.442 246.08 332.493 243.604C332.506 243.143 332.506 242.232 332.544 240.975C332.544 240.513 332.557 240.013 332.557 239.462C332.596 237.397 332.634 234.703 332.685 231.586C332.698 231.022 332.724 230.432 332.737 229.855C332.852 222.839 333.006 214.015 333.173 205.28C333.173 204.613 333.185 203.959 333.211 203.318C333.378 193.737 333.532 184.464 333.647 178.063C333.66 177.448 333.66 176.845 333.685 176.281C333.75 172.112 333.801 169.573 333.801 169.573C333.801 169.573 326.852 169.47 317.827 169.355H317.814C316.263 169.316 314.673 169.303 313.019 169.29C311.583 169.278 310.122 169.252 308.66 169.239C305.301 169.188 301.866 169.149 298.571 169.124C289.34 169.047 281.174 168.97 278.225 169.047L270.187 169.214L270.213 169.188Z" fill="#7FCBB4"/>
<path d="M313.057 169.277C313.544 169.495 314.006 169.713 314.493 169.931C317.095 171.111 319.672 172.279 322.275 173.407C326.057 175.036 329.864 176.601 333.697 178.05C341.672 181.077 349.8 183.63 358.312 185.464C373.85 188.824 389.863 191.749 405.721 193.044C413.465 193.672 421.272 193.711 428.977 192.557C436.772 191.389 444.118 188.67 451.669 186.554C453.964 185.9 456.284 185.336 458.592 184.861C457.694 184.515 456.759 184.181 455.823 183.848C453.271 184.412 450.746 185.079 448.233 185.836C440.22 188.247 432.4 190.735 424.003 191.479C415.772 192.21 407.503 191.71 399.311 190.735C382.696 188.747 365.722 185.951 349.53 181.667C344.197 180.256 338.941 178.384 333.723 176.268C330.172 174.831 326.646 173.292 323.121 171.701C321.377 170.919 319.621 170.124 317.877 169.341H317.864C316.313 169.303 314.723 169.29 313.07 169.277H313.057Z" fill="white"/>
<path d="M271.582 193.814C271.62 194.353 271.646 194.891 271.684 195.443C283.158 195.956 294.594 197.161 305.94 199.06C308.26 199.444 310.555 199.881 312.85 200.329C319.722 201.715 326.504 203.395 333.234 205.28C341.478 207.551 349.618 210.09 357.849 212.681C366.374 215.349 374.797 216.849 383.746 216.529C392.771 216.195 401.681 214.63 410.707 214.361C421.835 214.04 432.937 215.515 443.975 215.426C450.539 215.413 457.077 214.823 463.577 212.989C466.526 212.155 469.423 211.309 472.308 210.526C478.333 208.897 484.333 207.551 490.769 207.217C493.038 207.102 495.282 207.063 497.551 207.102C496.833 206.55 496.102 205.986 495.359 205.421C492.551 205.434 489.743 205.575 486.948 205.819C482.026 206.268 477.32 207.435 472.68 208.731C468.321 209.949 463.987 211.296 459.513 212.335C454.795 213.412 450.039 213.861 445.257 214.002C431.668 214.374 417.899 211.988 404.386 213.066C394.899 213.835 385.425 215.426 375.887 214.784C366.823 214.156 358.285 211.065 349.734 208.243C344.311 206.447 338.824 204.806 333.311 203.331C326.722 201.586 320.068 200.06 313.376 198.778C299.607 196.11 285.658 194.468 271.633 193.827L271.582 193.814Z" fill="white"/>
<path d="M272.695 213.797C272.747 214.374 272.772 214.964 272.798 215.515C284.285 217.58 295.708 219.979 306.912 223.173C310.156 224.109 313.387 225.084 316.592 226.148C321.963 227.944 327.309 229.893 332.745 231.561C336.835 232.805 340.976 233.895 345.194 234.626C354.822 236.294 364.591 236.358 374.321 236.422C392.475 236.524 410.602 236.627 428.769 236.717C431.486 236.73 434.217 236.755 436.922 236.768C446.717 236.819 456.704 236.524 466.678 236.563C478.165 236.627 489.652 237.127 500.805 239.179C502.575 239.5 504.318 239.859 506.049 240.257C506.28 239.744 506.51 239.218 506.754 238.705C503.228 237.884 499.639 237.217 496.036 236.717C486.485 235.383 476.767 234.985 467.037 234.896C456.153 234.793 445.204 235.126 434.448 235.062C432.756 235.049 431.051 235.049 429.358 235.024C409.974 234.921 390.577 234.857 371.18 234.69C360.27 234.601 349.373 234.203 338.758 231.497C336.758 230.984 334.784 230.419 332.796 229.804C325.233 227.508 317.848 224.622 310.271 222.352C309.271 222.057 308.271 221.749 307.271 221.467C295.9 218.222 284.349 215.823 272.708 213.758L272.695 213.797Z" fill="white"/>
<path d="M298.054 246.054C298.888 246.734 299.708 247.44 300.567 248.132H300.58C302.298 248.414 303.99 248.709 305.695 249.03C310.041 249.825 314.375 250.749 318.682 251.775C321.092 252.352 323.477 252.993 325.861 253.673H325.874C332.515 255.52 339.092 257.585 345.784 259.291C354.476 261.51 363.117 262.318 372.078 262.395C390.014 262.561 407.795 265.127 425.68 265.537C427.09 265.576 428.513 265.588 429.923 265.588C439.154 265.601 448.051 264.421 457.063 262.561C458.551 262.266 460.025 261.946 461.512 261.664C469.537 260.048 477.55 258.778 485.845 259.47C489.652 259.791 493.422 260.368 497.165 261.074C497.332 260.612 497.537 260.086 497.768 259.509C491.422 258.29 485.05 257.431 478.537 257.611C472.909 257.764 467.371 258.739 461.871 259.855C458.576 260.535 455.294 261.266 451.999 261.882C443.256 263.562 434.487 264.062 425.641 263.844C424.398 263.806 423.141 263.754 421.872 263.716C412.129 263.254 402.437 262.138 392.732 261.42C383.257 260.74 373.796 261.035 364.348 260.548C351.912 259.919 339.925 256.289 327.913 252.814H327.9C321.387 250.928 314.874 249.094 308.298 247.812C307.4 247.645 306.503 247.465 305.605 247.311C303.093 246.85 300.58 246.413 298.067 246.042L298.054 246.054Z" fill="white"/>
<path d="M366.588 282.48C386.857 284.109 407.151 281.531 427.433 282.403C428.612 282.454 429.817 282.518 430.997 282.608C440.073 283.172 448.65 285.045 457.304 287.302C458.009 287.482 458.714 287.674 459.419 287.854C459.688 287.315 459.958 286.802 460.201 286.302C459.522 286.122 458.855 285.917 458.188 285.738C458.009 285.686 457.817 285.635 457.637 285.584C448.368 283.019 439.061 281.351 429.42 280.838C428.676 280.8 427.933 280.748 427.189 280.736C406.997 279.902 386.78 282.454 366.601 280.825C365.524 280.736 365.537 282.403 366.601 282.493L366.588 282.48Z" fill="white"/>
<path d="M347.864 363.246C347.826 357.936 347.993 352.587 348.352 347.226C348.39 346.649 348.429 346.072 348.48 345.494C348.531 344.558 348.595 343.609 348.685 342.685C349.454 333.425 350.621 324.178 351.852 314.93C352.018 313.801 352.172 312.685 352.313 311.544C353.198 305.092 353.044 297.679 361.172 295.447C372.056 292.472 384.697 292.164 395.953 292.613C407.273 293.062 419.363 294.447 430.016 298.089C438.978 301.155 443.157 307.222 445.503 315.353C445.952 316.905 446.388 318.38 446.836 319.804C449.977 329.988 452.926 337.157 454.426 346.174C454.503 346.726 454.593 347.29 454.67 347.867C454.9 349.535 455.105 351.266 455.221 353.113C455.259 353.344 455.272 353.6 455.272 353.844C455.387 355.511 455.439 357.243 455.452 359.09C455.49 368.017 456.811 373.083 457.554 381.997C458.208 389.744 455.503 407.303 456.067 415.217C456.439 420.398 457.246 425.272 458.836 430.261C460.234 434.661 451.997 373.484 452.715 378.011C454.266 387.926 449.856 411.243 450.894 421.171C451.433 426.25 453.176 430.611 455.009 435.382C456.779 439.999 457.304 444.54 457.163 449.426C457.112 451.722 457.702 455.852 455.804 457.802C455.099 458.52 454.138 458.789 453.176 459.072C450.176 459.944 446.946 460.393 443.869 461.021C432.407 463.356 420.921 465.574 409.408 467.652C403.78 468.665 398.165 469.653 392.537 470.602C389.037 471.205 382.998 473.462 379.537 471.936C377.127 470.872 376.627 467.87 375.922 465.792C374.101 460.329 372.281 454.852 370.447 449.362C367.332 439.999 363.358 430.534 361.807 420.837C361.101 416.489 361.524 412.257 361.64 407.909C361.807 402.047 359.473 398.353 356.14 394.313C355.307 393.274 354.371 392.21 353.422 391.081C348.256 385.014 353.364 443.857 352.723 436.02C352.313 430.787 353.608 425.644 353.954 420.45C354.339 414.652 353.3 408.957 352.095 403.288C349.262 389.924 347.954 376.636 347.864 363.246Z" fill="#B3E8F8"/>
<path d="M270.219 441.1C275.462 414.563 285.667 387.91 290.616 358.397C290.616 358.397 290.68 358.115 290.821 357.577C291.641 354.716 294.423 347.777 297.385 340.736C297.603 340.223 297.834 339.684 298.051 339.171C301.885 330.09 305.756 321.33 305.756 321.33C305.756 321.33 312.666 328.91 318.166 327.371C325.705 325.268 327.743 322.51 335.038 319.778C340.461 317.765 346.025 315.7 351.871 314.917C352.986 314.751 354.101 314.648 355.23 314.597C374.742 313.776 382.524 328.628 385.985 344.186C386.113 344.789 386.254 345.392 386.37 345.982C387.767 352.882 388.37 359.808 388.831 365.477C388.844 365.708 388.87 365.926 388.883 366.144C390.088 380.804 389.216 394.964 382.819 408.624C379.793 415.088 377.857 420.886 377.46 427.504C379.242 426.273 381.075 425.093 382.985 424.028C383.998 423.464 384.921 424.9 383.921 425.465C381.626 426.747 379.46 428.145 377.383 429.684C377.37 430.569 377.383 431.454 377.421 432.378C377.832 440.343 378.408 448.321 378.908 456.298C378.973 457.363 377.126 457.363 377.062 456.298C376.678 450.103 376.293 443.908 375.909 437.713C375.78 435.533 375.614 433.327 375.524 431.121C375.075 431.493 374.614 431.852 374.178 432.224C373.729 439.342 372.191 446.345 369.422 453.066C368.46 455.413 367.255 457.658 365.986 459.877C362.64 465.777 374.96 396.016 373.05 402.455C370.383 411.484 368.986 420.706 365.986 429.684C362.935 438.816 359.037 447.679 354.46 456.26C354.281 456.606 353.794 456.709 353.422 456.645C328.192 451.861 302.692 448.449 277.026 446.435C276.372 446.384 276.026 445.948 276.129 445.383C281.308 416.884 267.03 456.26 270.232 441.138L270.219 441.1Z" fill="#B3E8F8"/>
<path d="M290.617 358.397L347.872 363.246L384.089 366.311L388.82 365.477L455.292 353.844L455.459 353.806C455.459 353.806 455.395 353.562 455.241 353.1C454.972 352.151 454.408 350.266 453.69 347.726C453.536 347.175 453.395 346.598 453.203 345.982C451.382 339.389 448.792 329.475 446.844 319.791C445.677 314.058 444.741 308.402 444.318 303.553C442.293 280.518 441.318 250.325 436.524 247.401C431.729 244.49 404.742 245.849 384.089 243.233C357.833 239.936 328.462 235.537 322.795 240.616C320.244 242.912 306.424 285.507 303.924 299.667C302.527 307.568 298.552 324.883 295.296 338.697C295.168 339.261 295.027 339.813 294.912 340.364C292.963 348.611 291.335 355.319 290.796 357.577C290.668 358.115 290.591 358.397 290.591 358.397H290.617Z" fill="#B3E8F8"/>
<path d="M294.922 340.364C295.743 340.467 296.55 340.595 297.371 340.736C298.614 340.954 299.883 341.172 301.153 341.416C314.409 343.981 327.665 347.611 341.267 347.623C343.665 347.623 346.023 347.457 348.357 347.213C352.498 346.764 356.6 345.995 360.728 345.276C368.856 343.878 376.33 344.199 384.42 345.648C385.074 345.764 385.702 345.879 386.356 345.982C399.471 348.252 412.509 349.509 425.88 348.726C432.996 348.316 440.072 347.059 447.188 347.2C449.367 347.239 451.534 347.431 453.688 347.739C454.021 347.777 454.354 347.816 454.688 347.867C454.611 347.29 454.521 346.713 454.444 346.174C454.034 346.11 453.623 346.059 453.213 345.994C450.97 345.712 448.7 345.546 446.418 345.533C438.226 345.481 430.086 346.995 421.893 347.264C414.445 347.508 406.971 347.213 399.561 346.379C394.997 345.866 390.484 344.994 385.971 344.199C383.189 343.711 380.407 343.263 377.612 342.929C370.664 342.108 364.061 342.993 357.228 344.25C354.28 344.789 351.382 345.199 348.485 345.494C343.806 345.956 339.126 346.059 334.344 345.661C322.062 344.622 310.14 341.352 298.025 339.184C297.114 339.017 296.204 338.863 295.294 338.722C295.166 339.287 295.025 339.838 294.909 340.39L294.922 340.364Z" fill="#68CCEA"/>
<path d="M417.92 251.48L427.856 252.467C429.177 238.897 430.664 225.699 434.33 213.258C437.215 203.433 441.804 193.224 448.65 181.296C445.381 180.167 442.125 179.051 439.022 178.012C432.292 189.902 427.715 200.317 424.741 210.423C420.843 223.711 419.279 237.422 417.92 251.48Z" fill="#B3E8F8"/>
<path d="M298.617 169.111C299.463 175.422 302.066 192.801 306.014 204.396C307.117 207.615 308.181 210.591 309.207 213.361C313.796 225.661 317.719 233.716 320.399 238.577C324.501 246.029 327.527 249.774 330.54 250.723C331.078 250.89 331.604 250.967 332.142 250.967C332.68 250.967 333.206 250.903 333.757 250.736C334.642 250.492 338.95 248.889 337.424 242.438L332.565 243.592L327.783 244.746C327.886 243.874 328.488 242.386 330.078 241.514C330.975 241.027 331.86 240.911 332.604 240.975C333.424 241.04 334.091 241.347 334.373 241.578C334.052 241.335 333.475 240.642 332.629 239.462C329.552 235.114 323.219 223.853 315.476 201.163C314.976 199.701 314.514 198.136 314.04 196.482C311.425 186.991 309.566 175.127 308.707 169.227C305.348 169.175 301.912 169.15 298.617 169.111Z" fill="#B3E8F8"/>
<path d="M465.12 258.496C467.005 254.02 469.787 250.005 471.582 245.452C475.261 236.102 477.03 226.02 479.261 216.247C479.505 215.208 481.107 215.644 480.864 216.696C478.748 225.982 477.017 235.512 473.723 244.477C472.325 248.286 470.479 251.801 468.543 255.354C465.543 260.882 464.89 265.73 465.556 271.95C465.672 273.015 464.005 273.002 463.89 271.95C463.39 267.243 463.249 262.934 465.108 258.496H465.12Z" fill="#336660"/>
<path d="M299.021 203.01C301.406 208.551 301.483 214.297 301.855 220.223C302.329 228.034 303.867 235.716 305.406 243.374C305.611 244.425 304.008 244.874 303.803 243.822C302.521 237.499 301.252 231.15 300.56 224.725C299.816 217.734 300.419 210.436 297.585 203.857C297.162 202.882 298.598 202.035 299.021 203.01Z" fill="#336660"/>
<path d="M418.717 254.879C418.717 252.84 420.371 251.185 422.409 251.185C424.448 251.185 426.102 252.84 426.102 254.879C426.102 256.918 424.448 258.573 422.409 258.573C420.371 258.573 418.717 256.918 418.717 254.879Z" fill="white"/>
<path d="M326.772 247.619C326.772 245.528 328.465 243.848 330.541 243.848C332.618 243.848 334.311 245.541 334.311 247.619C334.311 249.697 332.618 251.39 330.541 251.39C328.465 251.39 326.772 249.697 326.772 247.619Z" fill="white"/>
<path d="M427.198 263.549C427.39 263.549 427.582 263.485 427.736 263.344C427.903 263.202 428.005 262.997 428.031 262.779L429.159 247.94C429.198 247.478 428.852 247.08 428.39 247.042C427.941 247.003 427.531 247.349 427.493 247.811L426.428 261.817L417.416 261.112L418.749 247.106C418.788 246.644 418.454 246.246 418.006 246.195C417.544 246.17 417.147 246.49 417.095 246.939L415.685 261.792C415.66 262.01 415.736 262.241 415.877 262.407C416.018 262.574 416.224 262.689 416.454 262.702L427.146 263.536C427.146 263.536 427.185 263.536 427.211 263.536L427.198 263.549Z" fill="#68CCEA"/>
<path d="M329.65 257.777C329.791 257.777 329.92 257.739 330.048 257.675L339.496 252.608C339.689 252.506 339.842 252.326 339.906 252.121C339.971 251.903 339.945 251.685 339.842 251.48L332.791 238.384C332.573 237.974 332.073 237.833 331.663 238.051C331.253 238.269 331.112 238.769 331.33 239.179L337.983 251.544L330.022 255.815L323.586 243.297C323.381 242.886 322.881 242.719 322.471 242.937C322.061 243.143 321.907 243.656 322.112 244.053L328.932 257.328C329.035 257.521 329.214 257.675 329.42 257.739C329.496 257.764 329.586 257.777 329.663 257.777H329.65Z" fill="#68CCEA"/>
<path d="M329.129 390.181C333.45 396.709 337.872 403.173 342.424 409.548C346.706 415.55 350.885 422.361 356.718 427.017L351.988 410.638C351.693 409.612 353.295 409.163 353.59 410.189C357.834 424.888 362.077 439.574 366.308 454.259C366.603 455.285 365 455.734 364.705 454.708C362.269 446.256 359.833 437.816 357.385 429.364C357.218 429.403 357.026 429.364 356.834 429.236C351.026 424.99 347.026 418.783 342.86 413.024C337.642 405.79 332.591 398.453 327.668 391.014C327.078 390.116 328.514 389.283 329.103 390.168L329.129 390.181Z" fill="#ED934E"/>
<path d="M382.983 304.58C390.317 304.58 396.086 301.283 397.739 295.935C399.624 289.868 400.65 271.719 400.688 270.95C400.701 270.719 400.624 270.501 400.47 270.334C400.316 270.168 400.098 270.078 399.868 270.065C399.701 270.065 382.522 269.847 374.714 269.436C366.945 269.026 350.215 266.14 350.048 266.115C349.817 266.076 349.587 266.14 349.394 266.281C349.215 266.422 349.1 266.64 349.074 266.871C348.741 271.04 348.497 275.452 348.356 279.992C348.33 280.787 348.266 281.737 348.189 282.775C347.792 288.368 347.202 296.82 351.843 299.731C357.612 303.336 365.727 303.669 372.894 303.964C375.496 304.067 377.958 304.169 380.214 304.413C381.163 304.516 382.086 304.567 382.996 304.567L382.983 304.58ZM398.983 271.732C398.752 275.477 397.752 290.304 396.163 295.448C394.534 300.681 388.201 303.631 380.394 302.784C378.086 302.54 375.599 302.425 372.971 302.322C366.022 302.04 358.138 301.707 352.741 298.333C348.946 295.961 349.497 288.111 349.869 282.917C349.946 281.852 350.01 280.89 350.035 280.082C350.176 275.901 350.394 271.822 350.676 267.949C354.292 268.551 367.83 270.783 374.637 271.142C381.458 271.501 395.368 271.707 398.983 271.758V271.732Z" fill="#68CCEA"/>
<path d="M400.482 276.426C400.482 276.426 382.931 276.17 371.829 275.49C365.008 275.067 348.547 272.886 348.547 272.886L349.073 266.332C349.124 265.691 349.739 265.242 350.355 265.409C353.214 266.153 359.624 267.089 373.521 267.884C386.174 268.615 396.11 268.359 399.469 268.538C400.161 268.577 400.687 269.154 400.661 269.847L400.469 276.414L400.482 276.426Z" fill="white"/>
<path d="M569.747 136.071C570.273 135.558 571.029 135.456 572.094 136.033C577.478 138.932 575.478 150.796 575.196 155.49C574.927 160.094 574.081 164.442 573.542 169.034C572.914 174.395 570.247 180.565 570.247 180.565C570.247 180.565 562.799 180.27 558.286 178.359C558.427 178.641 558.337 179.051 558.094 179.257C558.017 179.321 557.94 179.385 557.863 179.449C557.517 179.744 557.081 179.693 556.748 179.398C556.696 179.346 556.632 179.295 556.568 179.244C556.312 179.013 556.299 178.743 556.389 178.513C555.671 178.577 554.966 178.436 554.286 178.064C553.44 177.769 552.594 177.461 551.748 177.153C550.85 176.807 549.953 176.448 549.094 176.037C545.71 174.421 543.428 169.56 541.62 166.418C540.389 164.276 531.646 148.923 537.864 149.077C539.376 149.115 540.351 150.411 541.184 151.488C543.107 153.964 544.812 156.619 546.581 159.209C547.197 157.042 547.94 154.913 548.107 152.617C548.325 149.77 548.709 146.64 548.197 143.831C547.581 140.522 546.286 135.571 547.556 134.276C551.312 130.441 554.568 137.649 556.081 143.459C556.235 141.176 556.35 138.906 556.299 136.623C556.261 134.532 554.991 130.697 557.03 129.068C558.619 127.786 560.017 128.363 561.196 129.748C561.427 129.068 561.76 128.465 562.325 128.068C563.889 126.965 565.568 127.94 566.632 129.184C568.196 131.018 569.158 133.442 569.722 136.084L569.747 136.071Z" fill="#FCBFA3"/>
<path d="M549.234 159.889C554.772 161.98 558.9 166.469 560.426 172.215C560.708 173.254 559.093 173.69 558.824 172.664C557.452 167.521 553.772 163.391 548.785 161.505C547.798 161.133 548.221 159.517 549.234 159.902V159.889Z" fill="#F7B091"/>
<path d="M556.386 145.037C556.54 147.05 556.604 149.064 556.578 151.078C556.566 152.155 554.899 152.155 554.912 151.078C554.938 149.064 554.873 147.05 554.72 145.037C554.643 143.972 556.309 143.972 556.386 145.037Z" fill="#F7B091"/>
<path d="M561.386 132.108C561.283 131.044 562.95 131.044 563.052 132.108C563.668 138.765 563.822 145.422 563.501 152.117C563.45 153.181 561.783 153.194 561.835 152.117C562.155 145.434 562.014 138.778 561.386 132.108Z" fill="#F7B091"/>
<path d="M567.89 150.552C568.813 146.819 569.172 143.048 568.992 139.201C568.941 138.123 570.608 138.136 570.659 139.201C570.851 143.19 570.467 147.114 569.505 150.988C569.249 152.027 567.646 151.591 567.903 150.539L567.89 150.552Z" fill="#F7B091"/>
<path d="M233.272 203.575C215.17 198.739 202.029 175.588 192.645 162.134C186.273 152.989 180.017 143.741 173.927 134.404C173.927 134.404 190.478 119.641 190.696 119.936C194.786 125.477 222.99 148.179 231.093 155.195C246.169 168.226 253.566 170.496 256.092 175.396C258.246 179.577 263.861 179.218 263.861 179.218C269.63 201.022 253.989 209.116 233.259 203.575H233.272Z" fill="#FCBFA3"/>
<path d="M192.604 123.656C192.579 123.797 192.527 123.951 192.412 124.092C188.053 129.543 177.387 138.29 177.387 138.29C177.387 138.29 165.22 133.493 159.913 129.851C156.298 127.375 146.003 122.45 146.439 117.191C146.541 115.999 147.182 115.088 148.016 114.549C145.58 112.395 143.503 109.881 143.695 106.533C143.785 104.891 144.49 103.84 145.477 103.275C145.17 102.737 144.875 102.185 144.644 101.633C143.952 99.9661 143.964 98.1833 145.054 96.6827C146.823 94.2201 149.413 95.0153 152.016 96.58C152.221 95.3103 154.067 93.3735 156.041 93.4762C159.964 93.6814 171.528 102.288 178.066 107.662C178.335 103.981 175.81 100.877 175.361 97.3111C175.041 94.7331 176.13 90.5775 179.438 92.9375C182.335 95.0024 183.887 98.1448 185.412 101.236C187.13 104.712 188.72 108.239 190.156 111.83C190.963 113.844 191.361 115.909 191.745 118.038C191.976 119.346 192.002 121.424 192.848 122.527C193.194 122.976 192.989 123.425 192.617 123.656H192.604Z" fill="#FCBFA3"/>
<path d="M183.278 129.094C176.957 125.246 175.752 117.935 178.149 111.33C178.521 110.317 176.906 109.881 176.547 110.881C173.893 118.205 175.521 126.311 182.444 130.53C183.367 131.095 184.201 129.645 183.29 129.094H183.278Z" fill="#F7B091"/>
<path d="M165.373 107.482C161.707 104.083 157.797 100.992 153.669 98.1704C152.784 97.5676 152.04 99.0554 152.912 99.6583C156.925 102.403 160.707 105.43 164.271 108.726C165.053 109.457 166.168 108.213 165.386 107.482H165.373Z" fill="#F7B091"/>
<path d="M159.633 113.446C155.736 110.162 151.672 107.11 147.441 104.262C146.557 103.66 145.813 105.16 146.698 105.75C150.8 108.521 154.749 111.496 158.544 114.69C159.364 115.383 160.467 114.139 159.646 113.446H159.633Z" fill="#F7B091"/>
<path d="M159.529 120.77C156.465 118.91 153.439 116.999 150.452 115.037C149.555 114.447 148.721 115.896 149.606 116.473C152.606 118.435 155.631 120.346 158.683 122.206C159.606 122.771 160.439 121.321 159.529 120.77Z" fill="#F7B091"/>
</g>
<path d="M423.606 366.995L780 366.995C780 366.995 715.821 526.817 531.873 478.955C347.925 431.093 61.813 521.454 18.1996 459.23C-25.4138 397.006 61.9297 365.219 61.9297 365.219L423.606 366.995Z" fill="#F2F2F2"/>
<path d="M367.219 396.548L367.219 397.02C367.147 397.533 366.831 398.01 366.24 398.229L358.228 401.185L289.43 426.558C289.43 426.558 289.425 426.558 289.416 426.553C288.984 426.443 278.084 423.605 277.465 423.605C277.072 423.605 276.554 421.035 276.221 419.111C276.023 417.963 275.891 417.044 275.891 417.044L278.41 395.207L365.741 395.207C366.599 395.207 367.125 395.845 367.219 396.548Z" fill="#B3B3B3"/>
<path d="M292.335 421.106L322.5 409.469C324.281 408.782 323.793 406.112 321.888 406.112L289.529 406.112L292.335 421.106Z" fill="#808080"/>
<path d="M290.66 426.559L74.6346 426.559C70.8856 426.559 67.5885 424.08 66.5562 420.486L38.8905 273.605C37.7174 267.379 42.5037 261.623 48.8533 261.623L270.722 261.623C274.933 261.623 278.492 264.73 279.052 268.894L298.99 417.059C299.667 422.087 295.745 426.559 290.66 426.559Z" fill="#E6E6E6"/>
</g>
<defs>
<clipPath id="clip0_2042_95">
<rect width="756" height="494" fill="white"/>
</clipPath>
<clipPath id="clip1_2042_95">
<rect width="432.105" height="443.01" fill="white" transform="matrix(-1 0 0 1 575.783 16.8539)"/>
</clipPath>
</defs>
</svg>
