<svg width="269" height="358" viewBox="0 0 269 358" fill="none" xmlns="http://www.w3.org/2000/svg">
<g clip-path="url(#clip0_2043_260)">
<path d="M291.405 16.8504C264.573 -2.99366 226.319 3.23279 205.963 30.7576C185.607 58.2824 190.857 96.6826 217.689 116.527C244.522 136.371 282.775 130.144 303.132 102.619C323.488 75.0946 318.238 36.6945 291.405 16.8504Z" fill="#F2C45B"/>
<path d="M101.448 -34.768C119.924 -59.7502 155.152 -65.0226 180.133 -46.5474C205.113 -28.0737 210.389 7.15394 191.913 32.1361C173.438 57.1177 138.209 62.3913 113.229 43.9177C88.2476 25.4415 82.9734 -9.78696 101.448 -34.768Z" fill="#7FCBB4"/>
<path d="M131.547 72.7237C142.813 57.4903 164.155 54.1694 179.218 65.3095C194.278 76.4468 197.354 97.8251 186.087 113.059C174.821 128.293 153.479 131.614 138.419 120.476C123.356 109.336 120.281 87.9576 131.547 72.7237Z" fill="#68CCEA"/>
</g>
<defs>
<clipPath id="clip0_2043_260">
<rect width="269" height="358" fill="white"/>
</clipPath>
</defs>
</svg>
