<svg width="1344" height="197" fill="none" xmlns="http://www.w3.org/2000/svg"><path fill="#A1D86A" d="M0 0h1344v197H0z"/><path d="M1219 173.599c3.72-8.327 12.24-14.209 20.79-14.599 1.35 5.669-.89 13.323-7.1 13.748.54-3.685 2.84-6.59 3.66-10.169-6.07 3.224-10.72 9.212-17.35 11.02Z" fill="#266139"/><path d="M1240.89 169.169c4.86-3.897 10.96-5.421 16.74-6.803 4.05-.531 9.54-1.913 12.28 2.374-.86 1.63-1.67 3.295-2.45 4.996 4.79-1.559 9.04-4.996 14.08-5.457 3.66.851 3.34 6.627.28 8.115 6.11-2.339 12.49-5.174 19.13-4.394.7.496 2.05 1.453 2.76 1.949-9.22 2.799-18.41 5.669-27.63 8.468.92-3.578 2.73-6.767 4.04-10.169-5.67 1.134-10.57 5.988-16.42 5.598-.71-2.976.53-5.846 1.17-8.681-8.05.567-15.33 4.536-22.46 8.221-3.22 1.984-3.58-2.906-1.52-4.217Z" fill="#215730"/><path d="M53.928 111.013c-.904-2.14-3.02-.008-4.019.927-2.822 3.361-4.767 7.457-6.477 11.583a13.001 13.001 0 0 1-1.916 3.89 7.874 7.874 0 0 1-1.486-3.606c-1.544-3.723-1.296-9.346-5.16-11.172-1.357 3.365-2.187 6.936-2.753 10.537-.268 1.581-.594 3.191-1.096 4.742-.848-.91-1.49-1.966-2.074-3.08-1.636-2.084-3.264-7.448-6.378-5.054-1.855 3.481-.986 7.76-1.377 11.595-1.755-1.586-2.98-3.902-5.177-4.816.671 1.408 1.371 2.845 2.13 4.223-.001.41-.032 1.23-.034 1.64 1.94-1.782 4.134-.136 6.126.601-.782-4.044-.977-8.203-.82-12.333 3.57 2.909 4.935 7.774 7.975 11.209 2.844-.022 1.827-3.92 2.565-5.91.477-3.367.955-6.734 1.579-10.072.933 2.053 1.602 4.192 2.182 6.42.783 3.312 2.095 6.449 4.023 9.177 3.854-5.555 5.25-12.727 9.571-17.901l1.555-.494c.335 6.855-.298 13.677-.52 20.531 2.496-1.752 2.505-5.178 2.6-8.019.07-4.833.259-9.87-1.02-14.618Z" fill="#223712"/><path d="M37.75 122.396c-.581-2.228-1.25-4.367-2.183-6.42-.624 3.337-1.101 6.675-1.579 10.072 1.38-1.11 2.615-2.396 3.762-3.652Z" fill="#A9BA71"/><path d="M43.459 123.552c-1.111-1.379-2.225-1.294-3.402.255a7.293 7.293 0 0 0 1.486 3.606 12.52 12.52 0 0 0 1.916-3.861Z" fill="#AEC275"/><path d="M130 173.807c1.419-8.079 7.272-14.457 12.7-19.807l1.986.567c.71 6.024-.035 12.083-.461 18.106 3.512-2.834 5.357-7.83 9.401-9.85 5.25.815 1.419 8.575 1.951 12.331 4.292-3.863 6.917-10.134 12.167-12.579 5.073-.496 4.754 6.449 4.789 10.205-.745.212-2.235.708-2.944.921.248-2.941.426-5.882.497-8.788-3.832-.496-5.463 3.756-7.698 6.201-2.306 3.473-6.279 4.536-9.933 5.244l.142-1.665c.248-3.012.674-5.953 1.1-8.929-2.448 2.48-4.825 5.067-6.882 7.902l-1.987 2.834c-.887.036-2.625.106-3.512.177.071-5.988.568-11.976.887-17.964-4.541 4.571-7.059 11.267-12.203 15.094Z" fill="#275221"/><path d="M146.781 173.63c2.093-2.835 4.434-5.457 6.882-7.901-.426 2.94-.851 5.917-1.1 8.929a322.757 322.757 0 0 0-5.782-1.028Z" fill="#B8D282"/><path d="M1164.14 122.03c3.26.236 3.93 4.306 4.96 6.957.79-1.5 1.47-3.081 2.45-4.451.7-.458 1.21.306 1.37.99.3 1.35.2 2.767.12 4.168-.04.456-.14 1.368-.2 1.808 1.12-.963 2.23-1.943 3.36-2.874a90.658 90.658 0 0 1-1.94 4.157c-1.01.1-2.01.233-3.02.382.32-2.362.66-4.74.46-7.117-.97 2.233-1.77 4.596-3.29 6.505-.19-3.403-1.73-6.428-3.27-9.306-.46 3.095-.42 6.238-.56 9.365-.83-.161-1.8-.061-2.37-.841-1.71-1.803-3.32-3.786-5.42-5.084.75 2.36 1.67 4.637 2.41 6.997-1.08-.437-2.15-.891-3.26-1.214.24-.277.75-.865 1.01-1.158-.55-1.497-1.1-2.994-1.55-4.524-.1-.537-.29-1.627-.39-2.148 3.37 1.001 6.05 3.6 8.28 6.428-.03-3.029.09-6.107.85-9.04Z" fill="#3D5525"/></svg>