<svg width="125" height="98" fill="none" xmlns="http://www.w3.org/2000/svg"><path d="M123.686 84.168c-.046.212-.093.422-.141.63-1.158 4.979-3.003 8.923-5.52 11.188-16.928 2.11-107.8 1.457-107.8 1.457-4.229-2.607-7.197-7.16-8.808-12.645-.061-.209-.12-.419-.178-.63-1.667-6.14-1.673-13.371.112-20.328.053-.21.109-.42.167-.63 1.927-7.065 5.715-13.803 11.5-18.771a34.658 34.658 0 0 0 2.318-2.187c5.39-5.54 9.7-13.15 14.75-20.328l.446-.63c4.19-5.88 8.918-11.42 15.197-15.23a34.113 34.113 0 0 1 8.714-3.757C68.735-1.624 80.179-.5 90.709 5.434a50.3 50.3 0 0 1 1.084.63c5.934 3.55 11.596 8.642 17.339 15.23l.545.63c.246.286.491.574.737.865 4.393 5.197 7.777 12.03 10.174 19.463l.201.63a86.967 86.967 0 0 1 1.376 4.895l.086.344.023.095c.183.745.356 1.494.521 2.245a96.673 96.673 0 0 1 1.459 8.494c.181 1.427.328 2.847.443 4.256l.049.63c.557 7.449.196 14.545-1.06 20.327Z" fill="#5776B9"/><path d="M9.553 83.668c-.037.068-.09.142-.173.15-.072.007-.138-.045-.167-.106a.415.415 0 0 1-.024-.199c.017-.299.073-.596.167-.883a.536.536 0 0 1 .154-.263c.499-.4.14 1.122.043 1.3ZM7.296 83.606c.008.044.016.09.002.128-.026.068-.117.07-.183.025a.588.588 0 0 1-.155-.193c-.13-.222-.263-.447-.335-.691-.085-.286-.066-.794.264-.43.244.27.345.83.407 1.162Z" fill="#7096B4"/><path d="M11.392 69.153c.371-.523.538-1.15.637-1.77.083-.52.162-1.076.151-1.602-.009-.427-.306-.879-.764-.641-.412.213-.78.68-1.045 1.03a4.863 4.863 0 0 0-.93 2.154c-.077.485-.252 1.533.439 1.736.541.16 1.258-.55 1.512-.907ZM8.12 68.842c.37.77.611 1.596.71 2.435.048.408.058.84-.141 1.206-.092.17-.244.328-.446.36-.315.048-.575-.223-.743-.476a5.366 5.366 0 0 1-.87-3.47c.02-.191.053-.389.167-.55.45-.63 1.122.079 1.323.495ZM12.167 70.563a6.375 6.375 0 0 1-1.044 1.785c-.185.224-.392.441-.66.576-.11.055-.262.09-.349.005a.263.263 0 0 1-.063-.129c-.134-.52.099-1.057.348-1.54.277-.535.602-1.099 1.125-1.461.765-.53.867.176.643.764Z" fill="#6687CD"/><path d="m8.781 78.696-.101-.003c0-.023.098-2.32.497-5.074.369-2.543 1.077-6.007 2.36-8.065l.088.045c-1.274 2.046-1.98 5.496-2.347 8.031-.398 2.75-.496 5.044-.497 5.067Z" fill="#E0BA89"/><path d="m8.615 78.48-.1-.013c.407-2.433-.181-6.978-1.261-9.726l.096-.031c1.084 2.76 1.675 7.325 1.265 9.77ZM9.39 78.051c-.149-1.115-.024-2.573.332-3.9.306-1.14.933-2.758 2.18-3.993l.075.063c-2.27 2.246-2.73 5.988-2.487 7.819l-.101.011Z" fill="#E0BA89"/><path d="M6.428 76.096c.759-.37 1.595-.45 1.595-1.291v-.726c0-.077.088-.138.192-.134l.859.033.858-.033c.104-.004.192.057.192.134v.544c0 .372.2.735.552 1 .362.273.902.34 1.24.611.188.151.31.34.405.532.72 1.432-.138 2.993-.6 4.404l-.969 2.956-.013.042H6.846l-.67-2.792c-.168-.7-.708-2.886-.728-3.294-.02-.408.062-.819.246-1.204.144-.301.363-.598.722-.776l.012-.005v-.001Z" fill="#6687CD"/><path d="M7.647 75.447c.184.05.351.095.456.109.618.077 1.248.152 1.873.122a4.38 4.38 0 0 0 .714-.092c.016.012.032.025.049.036.15.107.329.182.512.25-.448.166-.986.25-1.523.265-.7.02-1.401-.07-2.078-.191a4.732 4.732 0 0 1-.619-.164c.241-.094.457-.194.617-.335h-.001ZM9.353 74.999a11.59 11.59 0 0 1-1.431-.088c.003-.034.006-.07.006-.106v-.251c.55.059 1.108.11 1.659.097a5.74 5.74 0 0 0 .569-.04v.011c0 .11.018.217.053.322a7.189 7.189 0 0 1-.856.055ZM11.562 77.995c-.007.166-.025.353-.164.456a.133.133 0 0 1-.085.031c-.048-.003-.081-.046-.101-.086-.07-.142-.062-.304-.065-.46-.006-.27-.412-1.315-.067-1.348.564-.055.493 1.148.482 1.408ZM9.455 77.66l.001.795c0 .056 0 .115-.032.163-.06.093-.215.099-.311.037-.097-.062-.147-.169-.183-.273a1.893 1.893 0 0 1-.017-1.195c.062-.194.21-.419.424-.254.156.12.118.558.118.726ZM9.338 82.735l.001.796c0 .056 0 .115-.032.162-.06.094-.215.1-.311.037-.097-.062-.147-.168-.184-.272a1.893 1.893 0 0 1-.016-1.195c.062-.194.21-.419.424-.255.156.12.117.56.118.727ZM10.512 78.37c-.02.077-.052.164-.132.19-.07.025-.151-.011-.197-.066a.438.438 0 0 1-.078-.194 3.503 3.503 0 0 1-.072-.924c.005-.104.018-.213.082-.299.391-.519.446 1.09.397 1.292ZM10.09 81.948c-.03.074-.075.156-.158.172-.073.015-.148-.031-.185-.091a.43.43 0 0 1-.048-.202c-.02-.309.001-.62.063-.924a.544.544 0 0 1 .126-.286c.463-.465.281 1.137.203 1.33ZM11.012 80.48c-.034.073-.083.153-.167.166-.074.012-.146-.037-.18-.099a.429.429 0 0 1-.04-.203c-.005-.31.031-.62.108-.921a.547.547 0 0 1 .139-.28c.485-.445.227 1.147.14 1.337ZM8.137 78.413c-.015.048-.031.098-.071.13-.075.06-.199.028-.262-.043a.498.498 0 0 1-.096-.257c-.047-.276-.094-.558-.05-.834.052-.326.373-.838.606-.339.172.368-.018.98-.127 1.343ZM8.371 82.022c-.014.048-.03.098-.071.13-.075.06-.199.028-.261-.043a.501.501 0 0 1-.096-.257c-.047-.276-.094-.558-.05-.835.051-.325.372-.837.605-.338.172.368-.018.98-.127 1.343ZM9.301 80.903c-.014.048-.031.098-.071.13-.075.06-.2.028-.262-.043a.501.501 0 0 1-.096-.257c-.047-.276-.094-.558-.05-.834.052-.326.373-.838.606-.339.172.368-.018.98-.127 1.343ZM7.204 76.881c.078.44.02.901-.165 1.313a.202.202 0 0 1-.052.078c-.058.047-.155.025-.207-.028a.373.373 0 0 1-.084-.198 3.082 3.082 0 0 1-.046-.824c.02-.256.456-.893.554-.34ZM7.422 79.35c.196.407.265.866.199 1.308a.196.196 0 0 1-.03.088c-.043.06-.143.061-.208.022a.39.39 0 0 1-.135-.173 3.145 3.145 0 0 1-.269-.785c-.05-.253.198-.972.443-.46Z" fill="#5D78B3"/><path d="M117.774 81.405c0 2.546-2.493 2.757-5.569 2.757-1.508 0-2.894.08-3.897-.4-1.042-.497-1.671-1.06-1.671-2.357 0-2.043 1.703-4.43 3.927-5.236.264-.096.088-1.29-.394-2.035-.224-.348.548-.461 1.324-.004-.084-.476.377-.691.697-.691.32 0 .627.151.667.675.463-.433 1.4-.367 1.154-.062-.478.593-.765 2.058-.554 2.112 1.802.462 3.271 1.872 3.934 3.45a4.65 4.65 0 0 1 .383 1.792h-.001Z" fill="#6687CD"/><path d="M113.492 75.555h-2.869c-.012 0-.021.008-.021.019v.432c0 .011.009.02.021.02h2.869c.011 0 .021-.009.021-.02v-.432c0-.01-.01-.02-.021-.02Z" fill="#5D78B3"/><path d="M109.676 21.924h-79.59c.147-.21.296-.42.445-.63h78.6l.545.63ZM91.794 6.064H45.731c.354-.215.714-.425 1.08-.63h43.9c.362.205.723.415 1.083.63ZM120.793 42.882H14.715c.21-.206.418-.416.625-.63h105.252l.201.63ZM124.746 63.84H1.352c.053-.21.109-.42.166-.63h123.179c.017.211.034.421.049.63ZM123.693 84.168c-.046.212-.093.422-.142.63H1.424c-.061-.209-.12-.418-.178-.63h122.447Z" fill="#6687CD"/><path d="M98.296 14.527H83.914v6.768h14.382v-6.768Z" fill="#6687CD"/><path d="M91.622 15.7c0-.237-.232-.43-.518-.43-.286 0-.518.193-.518.43 0 .188.148.348.352.405v.564h.332v-.564c.205-.057.352-.217.352-.406Z" fill="#5D78B3"/><path d="M124.251 58.954v.001l-.552 4.255-.001.011-.12-.01-3.215-.286 1.908-14.709c.183.745.356 1.494.521 2.245a96.66 96.66 0 0 1 1.459 8.494Z" fill="#6687CD"/><path d="m123.84 55.967-.353 2.722-1.729-.154 1.047-8.073a96.673 96.673 0 0 1 1.035 5.505Z" fill="#5D78B3"/><path d="m122.251 48.12-2.948 15.078-4.291-.575 3.011-15.4 4.143.554.085.343Z" fill="#6687CD"/><path d="m118.983 59.352-2.225-.298 1.561-7.986 2.225.298-1.561 7.986Z" fill="#5D78B3"/><path d="m113.373 63.16-2.182-.468 3.986-12.713 2.182.47-3.986 12.712Z" fill="#6687CD"/><path d="m113.081 62.302-1.132-.243 3.518-11.22 1.131.243-3.517 11.22Z" fill="#5D78B3"/><path d="M41.426 42.254v-1.93H22.782v1.93h18.644Z" fill="#6687CD"/><path d="M36.941 41.79v-1.001h-9.666v1h9.666Z" fill="#5D78B3"/><path d="M42.707 40.325v-2.5H27.098v2.5h15.609Z" fill="#6687CD"/><path d="M38.941 39.724v-1.297h-8.093v1.297h8.093Z" fill="#5D78B3"/><path d="M37.98 37.868v-1.297H24.84v1.297h13.14Z" fill="#6687CD"/><path d="M37.207 37.557v-.672H25.61v.672h11.597Z" fill="#5D78B3"/><path d="M67.065 37.21c1.129.147 2.355.416 3.028 1.252.75.933.78 2.081.302 3.153 2.33-1.592 3.815-3.734 4.59-6.284.492-1.616.609-3.304.653-4.98.03-1.122.027-2.261-.292-3.346-.653-2.225-2.55-3.97-4.575-5.359-1.403-.962-2.912-1.812-4.547-2.4a16.123 16.123 0 0 0-5.984-.928c-.92.032-1.876.156-2.638.624-.467.287-.833.686-1.18 1.088-1.474 1.704-2.74 3.591-3.398 5.673-.761 2.407-.674 4.997-.007 7.426.47 1.714 1.223 3.356 2.141 4.91.3.509 1.726 2.301 1.726 2.301s-.136-1.098.47-1.81c1.072-1.264 6.809-1.696 9.71-1.32Z" fill="#5C2F1F"/><path d="M70.613 46.776c-1.662-3.189-2.822-8.544-2.577-13.3.16-.27-8.246.001-8.085.271.244 4.756-.597 9.84-2.259 13.029-.536 1.03.393 2.693.95 3.69.648 1.159 1.446 2.243 2.471 3.156.68.605 1.848 1.471 3.008 1.79v.017l.031-.009.031.009v-.018c1.16-.318 2.328-1.184 3.008-1.79 1.025-.912 1.823-1.996 2.47-3.155.558-.997 1.488-2.66.951-3.69Z" fill="#FBAE96"/><path d="M67.54 37.943c.053-.034-4.489-.694-7.576-1.138a33.007 33.007 0 0 1-.179 2.304c1.482.651 5.025 1.74 7.754-1.166Z" fill="#FBAE96" style="mix-blend-mode:multiply" opacity=".28"/><path d="M74.44 23.717c-.295 1.88-1.476 6.578-2.21 8.217-1.486 3.324-3.414 6.128-7.588 7.25-.599.162-1.22.213-1.826.05-3.406-.92-5.985-4.11-7.233-6.878-.91-2.021-1.826-4.047-2.496-6.147-.966-3.027-1.62-5.86-.111-8.803 1.263-2.465 3.617-4.47 6.438-5.403 1.94-.641 3.588-.218 5.535-.232.99-.007 1.678-.155 2.696.102 1.946.49 3.762 1.476 5 2.942 2.21 2.618 2.305 5.64 1.794 8.902Z" fill="#FBAE96"/><path d="M75.228 17.562c-1.19-2.767-3.73-5.005-6.765-6.115-.832-.304-1.604-.156-2.395-.33a2.595 2.595 0 0 1-.216-.058 2.358 2.358 0 0 0-.763-.73c-.713-.409-3.626-.16-5.418.41-8.064 2.571-9.274 10.513-9.365 11.66-.178 2.249-.224 4.508-.061 6.757.162 2.233.538 4.488 1.568 6.522 1.03 2.033 2.778 3.839 5.072 4.663-1.945-3.802-2.741-8.082-2.279-12.252.072-.649.176-1.302.445-1.906.301-.678.787-1.25 1.363-1.757a15.537 15.537 0 0 1 1.925-.95c.537-.225 1.084-.435 1.63-.65 1.279-.502 2.545-1.026 3.628-1.809.12.076.24.147.363.214.89.493 1.856.868 2.789 1.292.542.246 1.074.51 1.574.822a8.309 8.309 0 0 1 2.616 2.579c.287.454.543.954 1.014 1.258.912.59 2.12-.325 2.583-1.035 1.662-2.558 1.88-5.819.692-8.585Z" fill="#7B3E29"/><path d="M68.53 29.671c-.051.561.482 1.005.972.48.211-.226.228-.658.151-.936-.083-.301-.424-.502-.745-.326-.261.143-.353.524-.377.782Z" fill="#7B3E29"/><path d="M63.73 34.855c-.623 0-1.245-.08-1.85-.237-.027-.008-.042-.033-.034-.058.007-.024.036-.038.063-.031a7.206 7.206 0 0 0 3.587.013c.027-.006.055.008.063.032.007.025-.008.05-.035.057a7.301 7.301 0 0 1-1.795.224ZM63.105 35.753c-.027 0-.05-.02-.05-.045 0-.026.022-.047.05-.047l1.053-.014c.029 0 .051.02.052.046 0 .026-.022.047-.05.047l-1.054.013ZM64.328 32.82l-.014-.002a2.894 2.894 0 0 1-.96-.437.842.842 0 0 1-.245-.239c-.143-.236-.049-.516.034-.763l.009-.026c.27-.806.313-1.668.128-2.493-.006-.025.012-.05.04-.054.027-.005.053.01.06.035.188.84.143 1.718-.13 2.539l-.01.026c-.08.24-.164.49-.042.692.052.086.14.154.218.21.273.192.593.338.926.42.027.007.043.032.035.057-.006.02-.027.034-.049.034Z" fill="#A45236"/><path d="M70.666 27.728c-.014-.149-.45-.37-.536-.41a2.562 2.562 0 0 0-.958-.235 2.563 2.563 0 0 0-1.104.22c-.23.098-.822.412-.343.645.163.08.363.02.54-.032a4.452 4.452 0 0 1 2.06-.093c.075.014.154.03.227.01.087-.025.118-.062.114-.105ZM59.676 29.671c.052.561-.481 1.005-.971.48-.211-.226-.228-.658-.151-.936.083-.301.424-.502.745-.326.261.143.353.524.377.782ZM57.52 27.728c.014-.149.45-.37.536-.41.296-.138.625-.22.958-.235.377-.018.765.075 1.104.22.23.098.822.412.343.645-.163.08-.363.02-.54-.032a4.452 4.452 0 0 0-2.06-.093c-.075.014-.154.03-.227.01-.087-.025-.118-.062-.114-.105Z" fill="#7B3E29"/><path d="M73.407 26.196c.936-.407 2.127.071 2.631.835s.47 1.71.288 2.584c-.119.572-.3 1.146-.664 1.643-.363.497-.93.912-1.6 1.034s-1.432-.098-1.763-.597c-.12-.18-.18-.383-.229-.586-.329-1.358-.478-4.122 1.337-4.913Z" fill="#FBAE96"/><path d="M72.67 30.877c-.01 0-.018-.007-.019-.017a3.747 3.747 0 0 1 .847-2.569c.465-.569 1.048-.878 1.599-.85.01 0 .018.009.018.018 0 .01-.01.017-.02.016-.766-.039-1.35.572-1.566.837a3.718 3.718 0 0 0-.84 2.547c0 .01-.007.017-.018.018h-.001Z" fill="#A45236"/><path d="M72.914 29.347a.02.02 0 0 1-.017-.009c-.005-.008-.002-.018.007-.023.608-.317 1.32-.319 1.814-.005.008.006.01.016.004.024a.02.02 0 0 1-.026.004c-.482-.306-1.178-.303-1.773.007a.02.02 0 0 1-.01.002Z" fill="#A45236"/><path d="M52.4 26.67c-1.034-.088-1.968.736-2.148 1.61-.18.876.213 1.752.717 2.515.331.5.721.98 1.252 1.333.531.351 1.222.561 1.897.465.674-.096 1.304-.543 1.425-1.115.043-.206.022-.416-.01-.621-.21-1.378-1.129-4.017-3.133-4.188Z" fill="#FBAE96"/><path d="M54.86 30.858a.05.05 0 0 1-.048-.033c-.288-.852-.926-1.62-1.748-2.108-.3-.178-1.07-.561-1.759-.289-.025.01-.055 0-.066-.024-.012-.023 0-.05.026-.06.516-.205 1.192-.097 1.854.296.843.5 1.495 1.286 1.79 2.158.009.025-.006.05-.033.058a.05.05 0 0 1-.014.002h-.001Z" fill="#A45236"/><path d="M52.367 30.059a.055.055 0 0 1-.029-.008.044.044 0 0 1-.013-.064c.35-.46 1.031-.687 1.735-.579.027.004.046.028.041.053-.005.025-.03.042-.058.038-.665-.101-1.306.11-1.634.54a.052.052 0 0 1-.042.02Z" fill="#A45236"/><path d="M71.354 31.455c.325 3.526-.26 7.076-1.189 10.512 3.526-2.174 6.227-5.505 7.174-9.276.128-.509.225-1.024.305-1.541.66-4.23.401-10.342-3.2-15.05-.358-.47-3.182-.014-3.667-.38-.54-.406 2.98.872 2.278.914-.7.04-1.375.254-2.022.502-.995.38-1.95.846-2.848 1.389-.312.189-.63.4-.796.704-.194.355-.15.773-.102 1.166.136 1.105.25 1.55.933 2.474.62.841 1.144 1.74 1.577 2.672.829 1.79 1.556 3.954 1.556 5.914Z" fill="#7B3E29"/><path d="M84.885 53.777c-2.409-2.968-6.638-3.86-10.138-5.337-1.855-.782-3.498-1.525-4.76-3.011-.334-.394-11.107-1.032-11.705.04-.9 1.615-3.13 2.19-4.984 2.971-3.5 1.476-7.226 2.663-9.635 5.631-1.268 1.563-2.315 3.3-1.978 5.216.267 1.515 1.045 2.908 1.726 4.313 2.503 5.164 6.135 23.174 7.856 32.581 6.26 3.218 21.155 1.432 25.22.208 1.784-9.603 5.7-27.743 8.147-32.79.68-1.404 1.459-2.797 1.725-4.312.338-1.916-.206-3.948-1.474-5.51Z" fill="#FBAE96"/><path d="M78.156 49.729s-12.497 2.061-26.357-.697c-6.417 1.538-10.826 6.324-13.801 12.241-4.396 8.74 8.29 2.71 9.006 16.177.025.451.703 1.083.68 1.031.35.755.395 1.786.571 2.593.406 1.86.796 3.722 1.176 5.585.645 3.17 1.26 6.343 1.842 9.522 6.26 3.219 21.155 1.432 25.22.208 1.784-9.603 5.7-27.743 8.147-32.79.68-1.404 1.598-8.878.701-10.101-1.949-2.66-7.185-3.77-7.185-3.77Z" fill="#fff"/><path d="M85.512 53.79c4.86 5.988 7.79 16.196 10.609 23.733 2.855 7.633 2.675 9.563 1.86 11.379-1.214 2.699-11.584-.177-13.721-4.514-2.139-4.338-5.29-12.614-6.61-16.346-1.322-3.733.6-13.19 7.862-14.253Z" fill="#fff"/><path d="M59.115 92.785s-.127.861-.489 1.575c-.256.503-.629.932-1.158.932-1.875 0-4.77.136-5.624 0-.342-.054-.381-.26-.21-.618.205-.427.71-1.07 1.36-1.93.166-.221.342-.455.525-.704l4.08.543 1.516.202ZM72.073 92.379c-.048 1.133-.261 2.913-1.132 2.913-1.876 0-4.77.136-5.624 0-.342-.054-.381-.26-.21-.618.037-.078.085-.163.141-.256.332-.543.978-1.336 1.744-2.378l3.665-.417 1.424-.162s.014.389-.008.917Z" fill="#FCC583"/><path d="M78.16 82.76c0 6.21-7.422 11.245-16.578 11.245-4.156 0-7.955-1.037-10.864-2.751-1.864-1.098-3.362-2.473-4.356-4.03-.232-.362-2.72-.092-3.07-.355-.636-.474-.354-4.742.169-5.306.18-.195 1.715-.484 1.827-.89 1.442-5.213 8.189-9.159 16.294-9.159 5.362 0 10.13 1.727 13.16 4.406 2.144 1.895 3.418 4.266 3.418 6.84Z" fill="#FCC583"/><path d="M53.506 75.58c-.516.25-1.018.292-1.452.195a1.613 1.613 0 0 1-.103-.11l-.022-.022c-1.033-1.023-1.462-3.903-1.18-4.582a.257.257 0 0 1 .152-.152c.143-.053.36-.002.621.12.967.552 2.01 1.236 2.336 1.593.587.643 1.291 2.155-.352 2.957ZM77.435 80.198c.66.112 1.58.025 2.057-.324.85-.623 1.186-1.623 1.407-2.574.092-.482.316-1.449-.159-1.808-.305-.228-.773-.05-.957.236-.182.28-.167.623-.079.934.387 1.314 2.159 2.082 3.549 1.617 1.102-.37 1.358-.921 1.119-.601-1.076 1.44-3.692 1.047-4.62-.39-.34-.523-.533-1.297-.058-1.804.289-.298.828-.425 1.188-.153.584.446.415 1.41.29 1.988-.191.781-.387 1.846-.907 2.505-.63.817-1.747 1.572-2.877 1.334-.644-.124-.79-1.102.047-.96Z" fill="#FCC583"/><path d="M68.884 73.62c-1.746-.467-3.899-.785-6.235-.876-2.368-.093-4.568.061-6.365.398-.08-.081-.17-.123-.284-.192 1.508-.608 3.897-.895 6.675-.766 3.136.146 4.989.592 6.453 1.264-.072.047-.149.1-.244.171ZM50.813 79.278c.082-.514-.067-.959-.332-.994-.266-.035-.547.354-.63.868-.081.514.068.959.333.994.266.035.547-.354.63-.868Z" fill="#BD8440"/><path d="M45.116 52.234c-6.368 4.683-13.216 14.544-18.04 21.192-4.884 6.734-5.95 12.028-2.74 14.127 2.608 1.704 9.037-1.063 12.31-4.77 3.275-3.708 8.625-10.996 10.94-14.305 2.317-3.31 4.261-13.554-2.47-16.244Z" fill="#fff"/><path d="M52.144 65.183a3.68 3.68 0 0 0-.062.048l-.044.037c-.333.277-1.548.644-2.126 1.26-4.586 4.883-15.207 19.13-18.572 20.583-3.837 1.657-6.522 1.01-7.648-.77-1.604-2.533-.483-5.559 2.52-8.569 2.83-2.835 16.93-11.742 20.984-16.144.249-.27.46-.522.628-.756v-.001c1.207-1.677 4.608.72 4.93 2.753.093.585-.069 1.14-.61 1.559Z" fill="#FBAE96"/><path d="M49.278 60.166c-.602-.437-.405-1.148.383-2.081.787-.934 3.027-3.377 3.573-3.984.544-.608 2.467-2.384 3.417-2.31.882.07-1.557 3.235-1.787 3.513-.23.279-3.04 3.368-3.603 4.018-.564.65-1.289 1.347-1.983.843Z" fill="#FBAE96"/><path d="M51.715 59.956c-.601-.437-.405-1.148.383-2.082.788-.933 3.028-3.375 3.573-3.983.545-.608 2.458-2.384 3.417-2.31.883.07-1.556 3.235-1.787 3.513-.23.279-3.04 3.368-3.603 4.018-.563.65-1.289 1.347-1.983.843Z" fill="#FBAE96"/><path d="M59.832 60.986c.381.457.812 1.058 1.125 1.248.312.19 2.503 1.59.976-1.131-1.527-2.722-1.15-2.557-1.97-3.546-.82-.99-3.47.19-5.81 1.172-2.422 1.019-2.734 2.046-2.417 2.532.317.486 1.264 1.116 2.77.096 1.497-1.013 3.846-2.371 4.273-1.761.428.61.728.998 1.053 1.39Z" fill="#FBAE96"/><path d="M54.23 59.85c-.6-.436-.404-1.147.384-2.08.787-.934 3.028-3.376 3.573-3.984.545-.608 2.61-2.528 3.417-2.31.849.23-1.556 3.235-1.787 3.513-.23.279-3.04 3.368-3.603 4.018-.563.65-1.289 1.347-1.983.843ZM56.526 65.134c.507.585 1.331.87 1.722 1.263.39.394.706 1.279-.653.954-1.36-.325-1.772-.735-2.88-1.11-.761-.257-1.41-.034-2.31-.059-1.142-.03-1.114-.673-2.157.059-1.239.87 7.298-8.549 6.3-7.5-.91.952-2.323 2.728-2.03 4.3.148.795 1.578 1.596 2.009 2.093Z" fill="#FBAE96"/><path d="m55.705 59.627-.027.277c-.02.197-3.183 5.106-3.604 5.327l-.075.04c-.34.186-.962.037-1.277.264-.38.275-.857.556-1.13.766-1.09.84-4.866-.648-3.45-2.671.404-.578.769-1.185 1.123-1.798.185-.32.367-.64.55-.96l.001-.001c.557-.971 1.127-1.926 1.824-2.772.16-.196.328-.386.505-.568.861-.895 4.772.861 5.56 2.096Z" fill="#FBAE96"/><path d="M52.492 57.862a.055.055 0 0 1-.03-.009.044.044 0 0 1-.01-.064c.017-.022 1.763-2.151 3.578-4.228a.054.054 0 0 1 .071-.008.043.043 0 0 1 .008.065 202.89 202.89 0 0 0-3.576 4.226.052.052 0 0 1-.04.018h-.001ZM54.64 58.299a.055.055 0 0 1-.03-.01c-.022-.015-.027-.043-.01-.064.02-.023 1.939-2.358 3.753-4.435a.054.054 0 0 1 .072-.007.043.043 0 0 1 .008.065 225.828 225.828 0 0 0-3.752 4.433.052.052 0 0 1-.04.018Z" fill="#E8825F"/><path d="M98.143 86.256c-1.123-2.737-4.405-3.89-8.876-3.717-4.47.172-20.454 5.284-25.742 4.73-2.822-.295-2.464 4.528.706 4.846 3.169.318 25.82 1.588 29.677-.03 3.857-1.62 5.024-3.906 4.235-5.83Z" fill="#FBAE96"/><path d="M54.804 90.18c-.26-1.44-.392-2.838-.114-4.197.953.09 2.233.15 3.117.296 1.353.23 2.657.62 4.006.937.69.16 1.207-.247 1.845-.203.738.052 3.178.124 4.555-.071.87-.123-.152 1.8.122 2.544a.633.633 0 0 1 .057.271c-.01.103-.08.181-.147.254-.73.793-.612 2.267-1.883 2.267-1.65 0-3.41.123-4.712.118-1.89.008-4.434-.072-6.483-.119-.445-.78-.216-1.305-.363-2.096Z" fill="#FBAE96"/><path d="M48.307 85.382c-.288-.013-.588-.025-.86.037-.273.062-.521.215-.56.432a.255.255 0 0 0 .07.231c.08.081.213.12.335.153 2.897.76 5.289 1.056 8.22 1.588 1.053.176.451-1.277-.047-1.585-.427-.26-.899-.266-1.406-.332a68.932 68.932 0 0 0-5.753-.524ZM48.702 89.75c-.319-.066-.652-.135-.951-.097-.3.038-.549.223-.465.46.067.19.315.346.549.472 1.562.84 3.367 1.254 5.062 1.488 1.415.19 2.417.32 3.903.061.13-.024.269-.372.333-.458.298-.413-.42-.937-.919-1.04-.56-.114-1.292-.024-1.874-.073a46.28 46.28 0 0 1-5.638-.813Z" fill="#FBAE96"/><path d="M54.994 87.81c.084.257-6.755-1.28-8.869-1.022-.225.028-.439.127-.556.304-.355.533.005 1.783 9.29 3.368.663.127 1.32.239 1.975.336a26.343 26.343 0 0 1-1.84-2.985Z" fill="#FBAE96"/><path d="M54.85 89.172h-.007c-2.741-.334-5.752-.807-9.197-1.992-.026-.009-.04-.035-.03-.059.01-.024.04-.036.066-.027 3.435 1.182 6.439 1.653 9.174 1.986.028.004.047.026.044.052-.004.023-.026.04-.05.04Z" fill="#E8825F"/><path d="M59.687 85.095c-.638-.204-1.258-.433-1.914-.516-.584-.073-1.138-.48-1.588-.83-.08-.06-.205-.023-.249.077-.19.432-.118.942.135 1.345.29.461.774.8 1.274 1.096.5.297 1.033.568 1.49.956.3.254.565.556.896.794.376.268.749.315 1.18.396.544.103 1.091.15 1.633.179.54.04 2.115.085 2.27-.512.158-.616-.824-1.023-1.3-1.325-1.306-.807-2.553-1.254-3.827-1.66Z" fill="#FBAE96"/><path d="M60.82 65.578c1.063-.965 1.063-2.529 0-3.493-1.064-.965-2.788-.965-3.852 0-1.063.964-1.063 2.528 0 3.493 1.064.965 2.788.965 3.851 0Z" fill="#FFCA42"/><path d="M58.893 65.873c-.082 0-.165-.005-.248-.013a2.307 2.307 0 0 1-1.511-.75 1.901 1.901 0 0 1-.484-1.502c.065-.542.36-1.03.828-1.371a2.4 2.4 0 0 1 1.654-.44c1.235.123 2.13 1.133 1.995 2.253a1.988 1.988 0 0 1-.827 1.371 2.38 2.38 0 0 1-1.407.451Zm-.008-3.995c-.488 0-.958.15-1.343.43a1.897 1.897 0 0 0-.79 1.31 1.815 1.815 0 0 0 .461 1.434c.36.406.872.66 1.443.717a2.29 2.29 0 0 0 1.58-.42c.448-.326.728-.791.79-1.309.128-1.07-.727-2.034-1.905-2.15a2.473 2.473 0 0 0-.236-.012Z" fill="#D1990A"/><path d="M58.87 61.877c-.027 0-.05-.02-.05-.046v-.414c0-.026.023-.046.05-.046.028 0 .05.02.05.046v.414c0 .026-.022.046-.05.046ZM58.87 66.285c-.027 0-.05-.02-.05-.046v-.415c0-.025.023-.046.05-.046.028 0 .05.02.05.046v.415c0 .025-.022.046-.05.046ZM61.523 63.875h-.457c-.028 0-.05-.021-.05-.047 0-.025.022-.046.05-.046h.457c.028 0 .05.02.05.046s-.022.047-.05.047ZM56.66 63.875h-.457c-.028 0-.05-.021-.05-.047 0-.025.022-.046.05-.046h.457c.028 0 .05.02.05.046s-.022.047-.05.047ZM60.434 62.462a.054.054 0 0 1-.036-.013.043.043 0 0 1 0-.066l.323-.293a.054.054 0 0 1 .072 0c.02.018.02.048 0 .066l-.323.293a.054.054 0 0 1-.036.013ZM57.016 65.58a.054.054 0 0 1-.036-.014.043.043 0 0 1 0-.065l.323-.293a.054.054 0 0 1 .072 0c.02.018.02.047 0 .065l-.323.293a.053.053 0 0 1-.036.014ZM60.757 65.58a.054.054 0 0 1-.036-.014l-.323-.293a.043.043 0 0 1 0-.066.054.054 0 0 1 .072 0l.323.294c.02.018.02.047 0 .065a.054.054 0 0 1-.036.013ZM57.339 62.462a.054.054 0 0 1-.036-.013l-.323-.293a.043.043 0 0 1 0-.066.054.054 0 0 1 .072 0l.323.293c.02.018.02.048 0 .066a.054.054 0 0 1-.036.013Z" fill="#D1990A"/><path d="M52.47 57.862c-.43 0-.856-.211-1.026-.366a.043.043 0 0 1 0-.065.054.054 0 0 1 .072 0c.153.139.558.339.954.339h.025c.03 0 .052.02.053.045 0 .025-.022.047-.05.047h-.028ZM54.622 58.3c-.43 0-.855-.212-1.025-.366a.043.043 0 0 1 0-.065.055.055 0 0 1 .072 0c.152.138.557.338.953.338h.026c.03 0 .051.02.052.045 0 .026-.022.047-.05.047h-.028ZM57.34 57.636a.051.051 0 0 1-.047-.028c-.011-.023.001-.05.027-.06l.994-.387c.026-.01.055 0 .067.024.01.023-.001.05-.027.06l-.994.387a.057.057 0 0 1-.02.004ZM52.49 60.112c-.945 0-1.838-.11-2.248-.168-.028-.004-.046-.028-.042-.053.004-.025.03-.043.058-.039.544.078 1.944.247 3.18.125.58-.057 1.383-.283 2.044-.575a.054.054 0 0 1 .068.02c.012.024.002.051-.023.063-.67.296-1.486.525-2.078.584a9.84 9.84 0 0 1-.958.043ZM50.121 61.88a.05.05 0 0 1-.047-.03c-.01-.023.003-.05.029-.059 1.627-.574 4.395-.793 4.769-.793.028 0 .05.02.05.046s-.022.046-.05.046c-.371 0-3.117.217-4.733.787a.053.053 0 0 1-.018.003Z" fill="#E8825F"/><path d="M51.18 62.738a.056.056 0 0 1-.019-.003c-.026-.01-.039-.036-.029-.06.148-.343 1.113-1.137 1.936-1.509.025-.011.055-.002.068.02.012.023.002.051-.023.062-.79.358-1.748 1.139-1.886 1.46a.051.051 0 0 1-.047.03Z" fill="#E8825F"/></svg>