<svg width="149" height="139" fill="none" xmlns="http://www.w3.org/2000/svg"><path d="M125.357 138.4h-8.682V31.85l8.592-.61.09 107.16Z" fill="#9BBE75"/><path d="M148.657 138.4h-23.301c-.054 0-.09-.054-.09-.126V31.366c0-.072.036-.125.09-.125l23.283 1.22c.054 0 .089.053.089.125v105.688c.018.072-.035.126-.071.126Z" fill="#83AC58"/><path d="M141.01 82.811a.276.276 0 0 1-.269-.269V39.277c0-.144.125-.27.269-.27.143 0 .269.126.269.27v43.265c0 .144-.126.27-.269.27ZM133.64 67.385a.275.275 0 0 1-.269-.269V54.344c0-.143.125-.269.269-.269.143 0 .269.126.269.27v12.771a.264.264 0 0 1-.269.27ZM133.64 111.153a.276.276 0 0 1-.269-.27V88.874c0-.143.125-.269.269-.269.143 0 .269.126.269.269v22.027c0 .144-.126.252-.269.252Z" fill="#759A4F"/><path d="M83.269 138.418H69.385V58.865l13.812-2.709.072 82.262Z" fill="#B9E68C"/><path d="M120.76 138.417H83.342c-.072 0-.144-.035-.144-.089V56.245c0-.053.072-.09.144-.09l37.418.951c.071 0 .143.036.143.09v81.132c0 .036-.072.089-.143.089Z" fill="#9CCB6D"/><path d="M102.053 99.206a.276.276 0 0 1-.269-.27v-36.43c0-.144.126-.27.269-.27.144 0 .269.126.269.27v36.43c0 .162-.107.27-.269.27ZM92.189 74.667a.276.276 0 0 1-.27-.269v-6.206c0-.144.127-.27.27-.27.144 0 .269.126.269.27v6.206c0 .144-.126.27-.269.27ZM92.189 115.87a.276.276 0 0 1-.27-.269V84.677c0-.144.127-.27.27-.27.144 0 .269.126.269.27v30.942c0 .144-.126.251-.269.251ZM111.94 86.919a.276.276 0 0 1-.269-.27v-6.206c0-.143.125-.269.269-.269.143 0 .269.126.269.27v6.206c0 .143-.126.269-.269.269Z" fill="#91BF63"/><path d="M32.337 138.418H15.332V92.695l17.005-1.884v47.607Z" fill="#C6EE9E"/><path d="M78.725 138.418H32.338V90.919c0-.054.09-.09.197-.09l46.19.772v46.817Z" fill="#AED784"/><path d="M44.69 125.126a.276.276 0 0 1-.269-.269v-28.36c0-.143.126-.269.27-.269.143 0 .268.126.268.27v28.359a.276.276 0 0 1-.269.269ZM68.995 128.444a.275.275 0 0 1-.269-.269v-28.36c0-.143.126-.268.27-.268.143 0 .268.125.268.269v28.359a.276.276 0 0 1-.269.269ZM56.836 117.323a.276.276 0 0 1-.27-.269v-5.812c0-.144.127-.269.27-.269.144 0 .269.125.269.269v5.812c0 .161-.108.269-.269.269Z" fill="#99BD73"/><path d="M7.784 138.418H.27v-22.673l7.444-1.704.071 24.377Z" fill="#CFF5A8"/><path d="M27.943 138.418H7.781c-.036 0-.072-.036-.072-.09V114.13c0-.054.036-.089.072-.089l20.162.376c.036 0 .072.036.072.09v23.821c0 .054-.036.09-.072.09Z" fill="#B6DF8B"/><path d="M21.866 132.929a.276.276 0 0 1-.269-.269v-14.422c0-.144.126-.269.27-.269.143 0 .268.125.268.269v14.422a.264.264 0 0 1-.269.269ZM15.496 127.781a.276.276 0 0 1-.27-.27v-4.251c0-.143.126-.269.27-.269.143 0 .269.126.269.269v4.251c0 .144-.126.27-.27.27Z" fill="#A7D27A"/><path d="M93.28 25.877c-1.04.861-.43 1.597-1.758 3.552-.968 1.453-1.794 1.794-1.776 2.744.018.861.736 1.471 1.184 1.866 2.099 1.83 4.987 1.632 6.78 1.507 1.436-.09 3.409-.234 3.678-1.13.269-.897-1.435-1.507-1.579-3.247-.125-1.417.915-1.812.682-3.05-.305-1.614-2.296-2.44-2.619-2.565-1.31-.538-3.318-.735-4.592.323Z" fill="#363537"/><path d="M94.305 26.057s-.287-2.745-2.494-2.153c-2.206.61-.25 2.978 1.364 3.247 1.632.269 1.13-1.094 1.13-1.094Z" fill="#363537"/><path d="m102.341 73.197-2.368 3.946-1.291-1.686 2.08-3.857 1.579 1.597Z" fill="#fff"/><path d="M100.796 76.533c-.628 1.22-2.207 4.198-3.731 5.614-.377.341-1.005.18-1.13-.287-.485-1.722-.79-5.273.986-8.09 0 0 .843-.089 2.422.18l-.36 1.4.198-.126a.837.837 0 0 1 .969.035l.448.377a.723.723 0 0 1 .198.897Z" fill="#3C3C3C"/><path d="M96.798 81.914a.281.281 0 0 1-.252-.161c-1.417-3.534.43-7.552.503-7.713.053-.144.215-.198.358-.126.144.054.198.215.126.359-.018.036-1.812 3.964-.484 7.283a.265.265 0 0 1-.144.34c-.036 0-.072.018-.107.018ZM99.863 78.506c-.054 0-.09-.017-.144-.035l-1.184-.736c-.125-.072-.161-.251-.09-.377.073-.125.252-.161.377-.09l1.184.736c.126.072.162.251.09.377a.262.262 0 0 1-.233.125ZM99.272 79.51a.29.29 0 0 1-.162-.053l-1.094-.79c-.125-.089-.143-.25-.054-.376.09-.126.251-.144.377-.054l1.094.79c.126.09.144.25.054.376a.256.256 0 0 1-.215.108ZM109.085 74.722c0 .09 2.171 4.592 2.171 4.592l-2.476.18-1.686-3.84 1.991-.932Z" fill="#fff"/><path d="M108.978 78.38s.502-1.13 1.776-.555c0 0 2.367 3.228 3.246 5.9.251.754-.574 1.436-1.327 1.113-1.776-.753-4.574-2.368-6.171-5.327 0 0 .503-1.22 1.292-1.776l1.184.645Z" fill="#3C3C3C"/><path d="M113.281 84.282c-.682 0-3.175-.322-6.404-4.52-.089-.126-.071-.287.054-.377.126-.09.287-.071.377.054 3.498 4.574 6.063 4.305 6.081 4.305a.279.279 0 0 1 .305.233.279.279 0 0 1-.234.305h-.179ZM111.255 81.753a.281.281 0 0 1-.234-.144.267.267 0 0 1 .108-.358l1.184-.664c.125-.072.287-.018.359.108a.267.267 0 0 1-.108.358l-1.184.664a.26.26 0 0 1-.125.036ZM110.663 80.91c-.09 0-.198-.054-.233-.144-.072-.125-.018-.287.125-.358l1.292-.664c.125-.072.287-.018.358.126.072.125.018.287-.125.358l-1.292.664c-.036 0-.071.018-.125.018Z" fill="#fff"/><path d="M97.191 50.596s6.458 1.094 11.103 5.704c1.166 1.166 1.597 2.852 1.077 4.376-1.041 3.157-3.283 8.915-7.032 13.256l-2.87-2.35s.7-5.435 2.565-8.807c1.884-3.372-9.112-10.69-9.112-10.69l4.269-1.49Z" fill="#96D6D2"/><path d="m109.872 75.564-3.372.933s-6.134-12.287-7.91-14.063c-1.776-1.776-5.238-4.681-8.897-5.722-3.66-1.04-3.014-3.39-3.014-3.39l5.579-1.955s8.7 3.57 11.57 7.587c2.887 4.054 6.044 16.61 6.044 16.61Z" fill="#3C3C3C"/><path d="M99.451 55.133c1.758 1.148 3.409 2.458 4.395 3.839 2.87 4.036 6.045 16.592 6.045 16.592l-3.372.933s-6.135-12.287-7.91-14.063c-1.776-1.776-5.238-4.682-8.898-5.722-3.659-1.04-3.013-3.39-3.013-3.39l5.578-1.956c-.018.018 3.767 1.561 7.175 3.767Z" fill="#96D6D2"/><path d="M107.131 66.632a.268.268 0 0 1-.251-.18c-1.202-3.516-2.314-5.973-3.265-7.318-1.561-2.189-4.915-4.252-7.462-5.597-.126-.072-.18-.233-.108-.359.072-.125.233-.179.36-.107 2.6 1.38 6.026 3.48 7.64 5.758.987 1.38 2.117 3.892 3.337 7.462.054.143-.018.287-.162.34h-.089ZM104.185 72.246c-.089 0-.197-.053-.233-.143a143.805 143.805 0 0 0-3.229-5.92.253.253 0 0 1 .108-.358.253.253 0 0 1 .359.107c.897 1.56 1.991 3.552 3.229 5.938.071.125.017.287-.108.358-.036.018-.072.018-.126.018Z" fill="#fff"/><path d="M93.12 33.322a2.86 2.86 0 0 0-2.6.322c-1.238.861-2.942 2.476-3.121 4.915-.305 3.91-3.803 13.525-.18 17.812.305-.233 5.722-5.489 10.942-5.507-.126-2.529.18-10.403-.807-13.722-.646-2.206-2.816-3.282-4.233-3.82Z" fill="#539A85"/><path d="m101.739 38.649.987-2.583 1.184-.054 2.349 3.014.108.394-2.96 5.507-3.659.43.09-2.51.986-4.216.915.018Z" fill="#F3C55C"/><path d="m102.728 36.066 1.722 2.475-2.727.054 1.005-2.53Z" fill="#fff"/><path d="M89.047 42.918s1.955.538 3.677-.359l.036 2.942s4.34-1.345 5.47-2.134c1.131-.79.288-3.552 2.405-4.198 0 0-.449 1.274-.27 1.435.198.144.754.233 1.4-.197.645-.413 1.811-.987 2.601-.79.789.198-.431 3.23-2.332 3.875-2.422.825-6.673 6.26-10.135 7.193a1.776 1.776 0 0 1-2.099-.968 5.476 5.476 0 0 1-.466-1.83c-.215-2.063-.287-4.969-.287-4.969Z" fill="#F1BBA2"/><path d="m93.6 30.954-1.13 1.973c-.557.968-.503 2.206.197 3.085.125.144.25.305.394.43a.752.752 0 0 0 1.202-.233l1.202-2.619-1.866-2.636Z" fill="#EAAC8E"/><path d="M99.58 29.232c.304.09-1.257 5.076-2.853 5.22-1.596.143-3.66-1.292-3.516-3.032 0 0-1.022-.287-.502-1.615.43-1.112 1.274-.107 1.525.216a.509.509 0 0 0 .197.143c1.04.18.413-1.74 3.319-1.901-.036-.036.663.628 1.83.968Z" fill="#F1BBA2"/><path d="M5.53 108.659c3.176-4.161 6.19-9.166 7.014-14.332l.162-.987-3.946-2.403-1.453 7.641c-.539 3.39-3.947 8.7-3.947 8.7l2.17 1.381Z" fill="#539A85"/><path d="m13.854 110.291 2.619-.018.61-5.094c.16-2.045.358-4 .215-6.063l-.43-6.619-4.629.018 1.166 6.207c.323 2.332.538 4.466.592 6.906l-.143 4.663Z" fill="#539A85"/><path d="m13.583 109.502.035.485c.036.466 0 .914-.233 1.309-.197.341-.394.825-.394 1.363 0 0 3.964.915 7.444.054 0 0 .018-.412-1.04-.646-1.059-.233-2.332-.394-2.422-.753-.09-.359-.09-1.309-.233-1.507-.144-.197-1.417-.502-2.081 0-.036-.018-.628-.43-1.076-.305Z" fill="#2F6F5C"/><path d="M20.417 113.52a4.082 4.082 0 0 0 0-.664c0-.089-.09-.161-.18-.143-.7.107-3.605.484-7.085-.054-.09-.018-.18.054-.18.161v.664c0 .179.144.341.324.377.968.125 4.269.43 6.852-.054.143 0 .25-.126.269-.287Z" fill="#539A85"/><path d="M18.805 112.587c-.036 0-.072 0-.09-.018-.143-.053-.215-.215-.161-.34l.126-.323c.053-.144.215-.216.34-.162.144.054.216.215.162.341l-.126.323a.269.269 0 0 1-.25.179ZM17.983 112.57c-.036 0-.072 0-.108-.018-.143-.054-.197-.216-.143-.359l.197-.467c.054-.143.216-.197.359-.143.143.054.197.215.143.359l-.197.466c-.036.108-.143.162-.251.162ZM17.117 112.354a.289.289 0 0 1-.16-.054.263.263 0 0 1-.055-.376l.341-.431a.265.265 0 0 1 .377-.054c.125.09.143.269.054.377l-.341.431a.257.257 0 0 1-.215.107ZM16.295 111.78a.271.271 0 0 1-.25-.161.286.286 0 0 1 .125-.359l.628-.287a.286.286 0 0 1 .358.125.286.286 0 0 1-.125.359l-.628.287c-.036.036-.072.036-.108.036ZM16.082 110.901c-.144 0-.251-.108-.27-.251-.017-.144.108-.269.252-.287l.753-.054c.144-.018.27.108.287.251.018.144-.107.269-.25.287l-.754.054h-.018Z" fill="#CCDCFF"/><path d="m3.505 106.507-.234.43c-.215.395-.502.753-.914.969-.36.179-.79.466-1.077.915 0 0 2.816 2.941 6.207 4.107 0 0 .233-.341-.52-1.112-.772-.771-1.758-1.614-1.615-1.955.162-.413.61-.915.664-1.238.054-.376-.95-1.363-1.776-1.291-.018 0-.287-.682-.735-.825Z" fill="#2F6F5C"/><path d="M7.041 113.628c.09-.126.216-.305.323-.467a.224.224 0 0 0-.107-.323c-.754-.34-3.265-1.578-5.776-3.82a.243.243 0 0 0-.36.054l-.304.466a.362.362 0 0 0 .072.484c.735.628 3.354 2.691 5.758 3.695a.306.306 0 0 0 .394-.089Z" fill="#539A85"/><path d="M6.34 111.995a.255.255 0 0 1-.216-.107c-.09-.126-.071-.287.054-.377l.27-.197a.278.278 0 0 1 .376.054c.09.125.072.287-.054.376l-.269.198a.295.295 0 0 1-.161.053ZM5.677 111.547c-.09 0-.18-.036-.216-.126-.09-.125-.053-.287.072-.376l.413-.287c.125-.09.287-.054.376.071.09.126.054.287-.071.377l-.413.287c-.072.036-.107.054-.161.054ZM5.067 110.883a.269.269 0 0 1-.25-.179c-.055-.143.035-.287.16-.341l.52-.179c.144-.054.288.036.342.161.053.144-.036.287-.162.341l-.52.18c-.036.017-.054.017-.09.017ZM5.356 110.058H5.32l-.682-.108a.277.277 0 0 1-.233-.304.279.279 0 0 1 .305-.234l.682.108a.278.278 0 0 1 .233.305.287.287 0 0 1-.269.233ZM5.66 109.466a.349.349 0 0 1-.125-.035l-.663-.359c-.126-.072-.18-.233-.108-.359a.267.267 0 0 1 .359-.108l.664.359c.125.072.179.233.107.359a.279.279 0 0 1-.233.143Z" fill="#CCDCFF"/><path d="M24.985 81.297c.625-1.702-.58-3.71-2.69-4.484-2.112-.775-4.33-.024-4.954 1.678-.625 1.702.58 3.71 2.69 4.484 2.112.775 4.33.024 4.954-1.678Z" fill="#F1BBA2"/><path d="M26.981 79.423a1.345 1.345 0 1 0-2.69-.004 1.345 1.345 0 0 0 2.69.004ZM18.485 78.147a1.345 1.345 0 1 0 0-2.69 1.345 1.345 0 0 0 0 2.69Z" fill="#F1BBA2"/><path d="M25.622 81.017c-.162 0-.323-.018-.485-.072a1.364 1.364 0 0 1-.502-.269.264.264 0 0 1-.054-.376.264.264 0 0 1 .377-.054c.108.072.215.143.34.18a1.075 1.075 0 0 0 1.346-.7c.09-.27.054-.556-.072-.825a1.008 1.008 0 0 0-.628-.52 1.09 1.09 0 0 0-1.255.484c-.072.125-.233.18-.359.09-.125-.072-.18-.234-.09-.36a1.645 1.645 0 0 1 1.884-.735 1.601 1.601 0 0 1 1.058 2.01 1.624 1.624 0 0 1-1.56 1.147ZM18.537 78.398c-.502 0-.986-.233-1.291-.646a1.673 1.673 0 0 1-.305-1.201c.054-.431.287-.808.628-1.059a1.624 1.624 0 0 1 2.26.323c.161.215.25.448.305.7.018.143-.072.287-.216.305-.143.018-.287-.072-.305-.216a1.083 1.083 0 0 0-.197-.466 1.082 1.082 0 0 0-1.507-.215 1.06 1.06 0 0 0-.412.7c-.036.286.036.573.197.788.233.305.61.467.987.431a.279.279 0 0 1 .305.233.279.279 0 0 1-.233.305c-.072.018-.144.018-.216.018Z" fill="#CE8563"/><path d="M25.567 87.241c-.52.27-1.184.072-1.453-.448l-2.098-3.964 1.901-1.005 2.099 3.964c.269.52.072 1.184-.449 1.453ZM2.397 91.941c-.358.126-.592-.053-.556-.358.054-.287.377-.413.736-.79.071-.072-1.023.215-1.507.198a.59.59 0 0 1-.466-.323s-.252-.449.161-.718c.61-.412 2.314-.7 2.744-.95l.933-.575 1.076 1.148-1.309 1.184c-.072.054-.574.467-.933.664l-.879.52Z" fill="#F1BBA2"/><path d="M14.053 77.322s-2.62 5.382-2.709 5.525c-1.543 2.727-2.637 4.646-5.848 7.265l-1.65-1.776 1.525-2.296a33.466 33.466 0 0 0 3.444-6.601l1.274-3.319 3.964 1.202Z" fill="#F37E60"/><path d="m11.271 75.887 2.762-.018 2.906 3.337a12.864 12.864 0 0 0 3.032 2.547l2.475 1.489c.771.681.933 1.811.377 2.672-.61.933-1.848 1.238-2.798.646l-2.063-1.256v9.615H6.392l4.88-19.032Z" fill="#F37E60"/><path d="M20.414 88.784c.783 0 1.417-.674 1.417-1.507 0-.832-.634-1.506-1.417-1.506s-1.417.674-1.417 1.507c0 .832.634 1.506 1.417 1.506ZM17.923 85.932c.43-.753.233-1.686-.449-2.08-.681-.395-1.596-.108-2.027.645-.43.753-.233 1.686.449 2.08.681.395 1.596.108 2.027-.645ZM15.598 69.663c.269.072.502.95.574 1.273.215 1.13.107 3.121-.538 3.337-.61.197-.772-.108-1.184.233-.359.287-.52.843-.574 1.74 0 .054.556.628.897.987.09.09-.7 1.004-2.278.914-1.991-.107-1.776-1.435-1.794-1.524-.018-.072 1.255-7.84 4.897-6.96Z" fill="#F1BBA2"/><path d="M16.656 69.914a.64.64 0 0 1-.556.735c-.987.108-1.938.36-2.637 1.184-.682.808-.664 4.88-.95 7.462a1.75 1.75 0 0 1-2.369 1.435c-2.726-1.022-4.448-3.623-3.336-5.542l3.265-5.902c.394-.663.986-1.184 1.758-1.543.358-.16.986-.322 1.38-.34 2.655-.126 3.301 1.542 3.445 2.511Z" fill="#363537"/><path d="M14.093 72.3c-.682-.09-.843-1.417-.43-1.56.412-.162.717.52.717.52l-.287 1.04ZM52.018 85.232l.197 3.23c.018.089-.054.179-.126.179l-1.578.09c-.072 0-.126-.055-.144-.126l-.52-3.014 2.17-.359Z" fill="#F1BBA2"/><path d="M52.497 87.636c.107.377.323 1.436.412 2.063a.807.807 0 0 1-.574.88c-1.094.286-3.695.286-5.865.376a.56.56 0 0 1-.538-.43c-.413-1.22 1.865-1.597 4.107-2.835.036-.018.09-.018.144 0 .018.018.054.036.09.072.394.251 1.04.251 1.434.018l.449-.27c.143-.07.287-.017.34.126Z" fill="#539A85"/><path d="M52.96 89.986v.018c.053.394-.324.646-.682.807-1.077.502-5.4.215-5.58.197h-.017c-.054 0-.61 0-.753-.34a.428.428 0 0 1-.036-.162c-.018-.09 0-.18.018-.269.018-.072.09-.125.161-.108.807.198 2.673.27 4.556.072 1.256-.143 1.794-.412 2.081-.574.072-.054.18 0 .197.09l.054.269ZM49.897 88.945a.29.29 0 0 1-.161-.053l-.664-.503c-.125-.09-.143-.25-.053-.376s.25-.144.376-.054l.664.502c.125.09.143.251.054.377a.28.28 0 0 1-.216.108ZM49.016 89.304a.29.29 0 0 1-.162-.053l-.574-.43c-.125-.09-.143-.252-.053-.378.09-.125.25-.143.376-.053l.574.43c.126.09.144.251.054.377a.28.28 0 0 1-.215.107Z" fill="#fff"/><path d="M56.617 56.03s1.255 2.494 1.668 5.13c.395 2.44 1.83 12.52 5.327 20.61.395.916-.053 1.866-1.04 2.081-.395.09-.556-.053-.897-.215-.18-.09-.466-.34-.466-.34s-6.207-5.185-8.736-18.763c-1.632-8.736-1.363-8.036-1.363-8.036l5.507-.467Z" fill="#9BD5E3"/><path d="M54.878 57.16s.735 4.736-.646 8.251c-1.328 3.373-2.17 16.593-1.668 20.413a.456.456 0 0 1-.377.503c-.61.09-1.686.197-2.44.053a.343.343 0 0 1-.287-.269c-.484-1.937-4.556-19.462-1.686-28.449l7.104-.502Z" fill="#9BD5E3"/><path d="M53.533 69.59a.264.264 0 0 1-.269-.268c0-.072-.054-1.938.717-3.713.252-.592.288-1.184.27-1.938 0-.143.107-.269.25-.269.144-.018.27.108.27.252.036.807-.018 1.488-.305 2.17-.718 1.668-.682 3.48-.682 3.498.018.143-.09.269-.25.269ZM50.588 64.712c-.197 0-.394-.036-.592-.125l-1.309-.574a1.312 1.312 0 0 1-.79-1.256l.09-2.565c0-.162.072-.305.198-.413a.591.591 0 0 1 .448-.143c1.525.161 2.96.018 3.677-.09a.61.61 0 0 1 .467.144.557.557 0 0 1 .18.448l-.144 2.69a1.286 1.286 0 0 1-.556 1.005l-.843.61c-.216.18-.52.27-.826.27Zm-2.009-4.538c-.018 0-.018 0-.018.018 0 0-.017.018-.017.036l-.09 2.565c-.018.323.18.61.466.753l1.31.574a.94.94 0 0 0 .897-.09l.842-.61a.793.793 0 0 0 .323-.591l.144-2.673c0-.018 0-.018-.018-.036-.018 0-.018-.018-.036-.018-.735.09-2.206.233-3.803.072ZM57.177 64.102a.506.506 0 0 1-.27-.072l-1.434-.735a.632.632 0 0 1-.323-.466l-.323-2.978a.592.592 0 0 1 .485-.646l1.74-.269c.143-.018.286.072.304.233.018.144-.071.287-.233.305l-1.74.27c-.018 0-.036.017-.036.053l.323 2.978c0 .018.018.036.018.036l1.435.735h.054l.861-.61c.126-.09.287-.054.377.072.09.125.053.287-.072.377l-.861.61a.422.422 0 0 1-.305.107Z" fill="#79BBCB"/><path d="M62.593 85.376c-.197-.95-.269-1.148-.735-1.883-.341-.556.484-1.381.915-1.435.7-.144.592.071 1.399 1.112l.628.771s-2.045 2.26-2.207 1.435Z" fill="#F1BBA2"/><path d="m62.467 85.017.807-1.22a1.1 1.1 0 0 1 1.686-.179l.933.79s.179.537.125.878a7.14 7.14 0 0 1-.502 1.74c-.43.987-1.632 2.96-2.063 3.642-.09.143-.305.286-.466.215a2.227 2.227 0 0 1-.556-.413c-.287-.269-.198-1.525-.09-2.403.072-.556.018-1.991 0-2.583a.87.87 0 0 1 .126-.467Z" fill="#539A85"/><path d="M62.38 86.685c-.126 0-.234-.071-.252-.197a.271.271 0 0 1 .18-.323l.878-.233c.144-.036.287.036.323.18a.271.271 0 0 1-.18.322l-.878.233c-.018.018-.054.018-.072.018ZM62.448 87.475c-.126 0-.234-.072-.252-.197a.271.271 0 0 1 .18-.323l.879-.233c.143-.036.287.035.323.179a.271.271 0 0 1-.18.323l-.879.233c-.035.018-.053.018-.071.018Z" fill="#fff"/><path d="M63.346 90.937c-.09 0-.18-.018-.25-.036-.27-.09-.916-.287-.844-1.22.072-.968.825-1.47 1.363-2.098.413-.485.377-2.53.503-2.924.233-.718 1.273-.825 1.811-.251.341.358.377 1.13.341 1.704-.054 1.076-.681 3.193-1.489 4.233-.412.484-1.004.592-1.435.592Z" fill="#fff"/><path d="M57.835 36.37s.951-2.87.987-3.82c.054-.951-.897-5.292-1.274-6.691 0 0 .36-2.655-1.668-3.121-.143-.036-.233-.144-.287-.27-.161-.448-.233-.735-.394-1.273-.144-.448-.79-.251-.736.251.018.197.215 1.812.305 2.476.018.09-.036.197-.09.269-.143.161-.269.484 0 1.058.43.897.61.628 1.077 1.381.466.736.61 3.39.627 4.807.036 1.418-.556 2.62-.86 3.14-.27.52 2.313 1.793 2.313 1.793Z" fill="#F1BBA2"/><path d="M56.352 33.357a.806.806 0 0 0-.88.43c-.34.646-2.816 3.337-3.192 3.624-.449.359-1.758 2.547-4.592 2.475a.689.689 0 0 0-.449.162c-.323.269-1.076.789-2.403 1.184-.79.233-1.435 1.004-1.507 2.726-.09 2.063-2.224 6.099-1.615 7.642 1.095 2.69 2.834 1.937 4.485 1.38 0 0 .107 0 .018 2.422-.144 3.695-.233 3.857 4.879 3.516 3.856-.251 7.372-.807 7.408-1.614.036-.592-1.005-3.803-1.22-7.66-.215-3.856.467-9.758.897-11.264.413-1.328-.09-4.646-1.83-5.023Z" fill="#B0D37E"/><path d="M45.932 53.537a.27.27 0 0 1-.252-.18c-.053-.143.018-.287.162-.34.036-.018 1.327-.61 1.112-4.305a.29.29 0 0 1 .251-.287c.144-.018.27.107.287.25.251 4.18-1.381 4.808-1.453 4.844-.054.018-.072.018-.107.018Z" fill="#9EC269"/><path d="M50.877 31.797c.09.34.286 1.165.484 1.417.502.627.933 2.672.143 4.071-.448.79-.484 1.435-.448 1.794a.68.68 0 0 1-.305.628 3.735 3.735 0 0 1-1.668.592l-.18.018a.676.676 0 0 1-.681-.377c-.377-.771-1.202-2.386-1.722-2.78-.7-.538-4.736-5.094-2.045-6.511 4.646-2.476 6.117.107 6.422 1.148Z" fill="#F1BBA2"/><path d="M51.897 32.317s-.144-3.75-2.62-4.251c-2.475-.503-5.434.323-6.242 1.417-.807 1.094-.107 2.924-.107 2.924s-.95 1.722.305 2.51c1.255.79 2.529 2.835 3.838 2.153 1.31-.663 2.027-1.435 1.974-2.78-.054-1.758 2.852-1.973 2.852-1.973Z" fill="#363537"/><path d="M125.097 47.42c.502-1.65.412-2.69-.036-3.784l-.771-1.525 2.296-.915.699 1.74c.233.556.556 1.077.969 1.507l.376.395-3.533 2.583Z" fill="#F1BBA2"/><path d="M127.599 43.994c.054-.179.287-.215.43-.09.359.395 1.005 1.041 1.489 1.364.449.305.592.915.341 1.399-.718 1.363-2.547 4.323-4.484 6.565-.126.162-.467.359-.933.144-1.579-.718-.072-3.929.789-7.283a.35.35 0 0 1 .269-.251l.484-.09c.879-.18 1.238-.592 1.615-1.758Z" fill="#24604E"/><path d="M129.42 45.197s.071.053.107.071c.449.305.592.915.341 1.4-.717 1.363-2.547 4.322-4.484 6.565-.126.161-.467.358-.933.143-.143-.072-.359-.251-.359-.251l.126-.161a61.102 61.102 0 0 0 5.004-7.427l.198-.34Z" fill="#F5F0ED"/><path d="M124.57 48.874a.27.27 0 0 1-.269-.233c-.018-.144.072-.288.215-.305l1.597-.27c.143-.018.287.072.305.216.018.143-.072.287-.216.305l-1.596.269c-.018.018-.018.018-.036.018ZM124.302 49.77a.269.269 0 0 1-.269-.233c-.018-.143.071-.287.233-.305l1.291-.197c.144-.018.287.072.305.233a.266.266 0 0 1-.233.305l-1.292.197h-.035Z" fill="#000"/><path d="M138.086 23.42s-16.001-3.498-20.862-.735c-.735.412-1.435 1.291-1.578 2.116-.467 2.53.932 8.036 8.646 18.386a.426.426 0 0 0 .466.144l2.439-.933a.407.407 0 0 0 .252-.484l-3.265-11.409a.417.417 0 0 1 .466-.538l15.247 1.866-1.811-8.413Z" fill="#B0D37E"/><path d="m133.373 53.502-.305 1.488c-.413 2.17 1.166 3.265 1.166 3.265l-4.682.574s1.023-.628.807-3.623l-.269-2.512 3.283.807Z" fill="#F1BBA2"/><path d="M133.462 56.246c.395.449 1.095 1.274 1.615 2.08.341.503.143 1.095-.233 1.58-.736.986-1.758 1.757-2.942 2.529-1.041.681-2.207 1.399-3.606 2.044-.376.18-1.237.413-1.811.126-1.722-.86 1.148-3.552 3.408-6.655a.366.366 0 0 1 .394-.143l.539.107a1.31 1.31 0 0 0 1.363-.574l.717-1.058c.162-.18.413-.197.556-.036Z" fill="#24604E"/><path d="M134.803 57.968s.251.341.287.377c.089.126.125.27.161.43.09.485-.09.987-.431 1.346l-.322.323a21.528 21.528 0 0 1-4.539 3.282c-.843.449-2.69 1.4-3.444.897-.233-.161-.376-.61-.376-.61s.448.27 1.775-.394c2.243-1.112 3.767-2.368 5.633-3.875.359-.287.61-.574.879-.879.197-.269.341-.574.377-.897Z" fill="#F5F0ED"/><path d="M130.359 60.39h-.053l-1.74-.377a.267.267 0 1 1 .125-.52l1.74.377c.144.036.233.18.197.323a.29.29 0 0 1-.269.197ZM129.389 61.179h-.054l-1.417-.34a.268.268 0 0 1 .126-.521l1.417.34c.143.037.233.18.197.324a.291.291 0 0 1-.269.197Z" fill="#000"/><path d="M127.735 27.976c4.664-3.982 19.66-4.108 19.66-4.108s1.865 2.225.986 6.71c-.287 1.47-1.345 2.797-2.995 2.797l-9.202.072c-.682 0-1.202.574-1.184 1.238.179 4.448.323 13.614-.951 19.875a.71.71 0 0 1-.484.52c-.592.161-1.74.412-2.996.394a.79.79 0 0 1-.771-.681l-3.049-22.745a7.201 7.201 0 0 1 .018-2.063c.125-.7.394-1.507.968-2.009Z" fill="#B0D37E"/><path d="M126.482 30.9a.264.264 0 0 1-.269-.269c.108-3.82 5.022-4.915 5.076-4.933.144-.036.287.054.323.215.036.144-.054.288-.215.323-.054.018-4.556 1.005-4.646 4.413 0 .144-.108.251-.269.251Z" fill="#94B761"/><path d="M137.155 24.765s-.162.323 4 .915c2.995.43 5.722.233 7.013.108a.694.694 0 0 0 .592-.861c-.341-1.346-.592-2.601-1.883-6.027-.897-2.368.394-7.247-1.866-9.418-3.856-3.695-15.032 2.853-15.032 2.853l1.274 1.488a30.695 30.695 0 0 1 5.453 9.292l.449 1.65Z" fill="#68CCEB"/><path d="M120.745 14.613c.036-.52.198-1.095-.071-1.507l-.556-.718c-.395-.61-.359-1.435-.108-2.098l.717-1.74c.072-.198.341.25.395.448l1.955 6.942c.323 1.005 1.435 1.094 2.063.664l2.583-1.758 3.049 4.233s-2.959 2.099-6.762 2.762c-.861.126-3.695.054-3.265-7.228Z" fill="#F1BBA2"/><path d="m126.862 14.38.143-.108a20.226 20.226 0 0 1 2.332-1.542l2.081-1.113 3.247 5.758-4.449 2.279-3.354-5.274Z" fill="#68CCEB"/><path d="m135.417 16.335-1.776 1.632a1.013 1.013 0 0 1-.431.233.947.947 0 0 1-.932-.34l-3.498-5.184a1.51 1.51 0 0 0-1.148-.664l-2.225-.18c-.287-.018-.466.323-.269.539.216.215.538.43.987.52a.647.647 0 0 1 .538.538c.179 1.202 1.561 1.722 1.561 1.722s1.345 8 5.13 7.031c5.04-1.291 7.928-4.807 7.928-4.807l-5.865-1.04Z" fill="#F1BBA2"/><path d="M135.579 15.797a.29.29 0 0 1-.162-.054c-.125-.09-.161-.251-.071-.377l.807-1.166c.09-.125.251-.161.377-.072.125.09.161.252.071.377l-.807 1.166a.234.234 0 0 1-.215.126ZM141.495 17.16a.29.29 0 0 1-.197-.09c-.09-.108-.09-.287.018-.377 2.673-2.332 3.48-4.25 3.839-5.076l.053-.108c.054-.143.216-.197.359-.143.144.054.198.215.144.359l-.054.107c-.359.861-1.202 2.852-3.982 5.274a.305.305 0 0 1-.18.054Z" fill="#379EBE"/><path d="m123.019 17.68 4.287.197c.646.036 1.238-.376 1.166-.825l-1.435-8.95c-.054-.288-.359-.485-.772-.52l-4.305-.18c-.645-.036-1.237.377-1.166.825l1.435 8.95c.054.288.359.485.79.503Z" fill="#fff"/><path d="m140.895 8.926 1.238.323c.287.072.287.467 0 .574-3.229 1.202-4.825.736-5.83.61-.287-.036-.359-.43-.09-.556a.74.74 0 0 0 .377-.95l-.861-2.171 1.866-3.642 1.955 4.7c.251.556.753.95 1.345 1.112Z" fill="#F1BBA2"/><path d="M133.453 1.59c-1.848 1.363-1.094 2.6-1.094 2.6.125.36.448 1.203.412 1.382-.054.215-.269.61-.251.736.018.125.269.287.646.269 0 0 .663 1.757 1.202 1.919.556.161 2.188-.933 2.188-.933l.269-.215c.861-.682 1.22-1.668 1.202-2.762 0 0-.359-6.1-4.574-2.996Z" fill="#F1BBA2"/><path d="M133.847.424c-.503.287-.933.79-1.202.897-.431.18-.772-.215-1.274.161-.448.323-.771.754-.699 1.256.018.09.035.18.071.251.467 1.184 1.292 1.094 1.633 1.058 0 0 1.811-.502 2.188-.52.341-.018.933.305 1.292.987.053.09.143.125.251.107a.224.224 0 0 0 .179-.25c-.036-.36-.09-1.113.269-1.239.413-.143 1.166.52.771 1.184-.125.198.018.485.252.503.197.018.412-.036.592-.305 0 0 .52-2.17-.449-3.606-.969-1.399-3.193-.86-3.874-.484Z" fill="#363537"/><path d="M132.482 6.702a.335.335 0 0 1-.126-.036c-.251-.126-.466-.448-.61-.843a1.972 1.972 0 0 1-.107-.753c.036-.395.251-.539.376-.574.377-.126.808.233 1.023.86.054.144-.018.288-.162.341-.143.054-.287-.018-.34-.161-.108-.287-.251-.466-.341-.502-.036.09-.054.323.054.628.107.287.251.484.358.538.126.071.18.233.108.358a.28.28 0 0 1-.233.144Z" fill="#000"/><path d="M133.756 6.182c-.377 0-.772-.34-.969-.861-.09-.27-.126-.556-.072-.807.072-.287.233-.503.467-.574.43-.162.95.215 1.166.843.089.269.125.556.071.807-.071.287-.233.502-.466.574-.072 0-.144.018-.197.018Zm-.359-1.74h-.036c-.054.018-.09.09-.108.18a.837.837 0 0 0 .054.502c.126.358.377.538.484.502.054-.018.09-.09.108-.18a.837.837 0 0 0-.054-.502c-.125-.323-.341-.502-.448-.502Z" fill="#000"/><path d="M133.92 4.765a.27.27 0 0 1-.251-.18c-.054-.143.018-.287.162-.34l1.919-.754c.143-.054.287.018.341.162.054.143-.018.287-.162.34l-1.919.754c-.018.018-.054.018-.09.018Z" fill="#000"/></svg>