<svg width="216" height="150" fill="none" xmlns="http://www.w3.org/2000/svg"><path d="m75.407 149.29-67.488-.123c-3.417-7.925-6.865-16.015-7.733-24.621-.868-8.605 1.242-17.965 7.495-23.846 2.86-2.689 6.485-4.586 8.782-7.782 3.308-4.6 3.145-10.774 3.218-16.469a130.07 130.07 0 0 1 9.202-46.365C33.75 17.857 39.249 6.262 54.03 2.136 68.591-1.928 81.186-.228 92.455 7.534c13.188 9.083 23.665 26.129 33.131 38.412 3.822 4.96 8.852 10.595 14.966 9.521 4.364-.766 7.348-4.74 10.977-7.314 8.8-6.243 21.273-3.784 30.238 2.213 15.006 10.037 23.184 28.52 23.976 46.736.791 18.216-5.014 36.171-13.204 52.402l-117.132-.213v-.001Z" fill="#94A8CE" fill-opacity=".39"/><path d="M184.31 54.306c-.208 0-.414-.053-.604-.16a1.343 1.343 0 0 1-.677-1.178V42.023c0-.494.259-.946.677-1.179a1.23 1.23 0 0 1 1.254.027l8.885 5.474c.395.244.631.674.631 1.152 0 .477-.236.907-.631 1.151l-8.885 5.474a1.242 1.242 0 0 1-.65.186Zm.001-12.762a.394.394 0 0 0-.186.05.48.48 0 0 0-.236.428v10.946c0 .185.088.345.236.427.072.04.215.097.384-.01l8.885-5.473a.479.479 0 0 0 .221-.417.481.481 0 0 0-.221-.417l-8.885-5.474a.371.371 0 0 0-.198-.06Z" fill="#F08F7A"/><path d="M187.507 59.971c-6.977 0-12.652-5.675-12.652-12.651 0-6.977 5.676-12.652 12.652-12.652 6.976 0 12.652 5.675 12.652 12.652 0 6.976-5.676 12.651-12.652 12.651Zm0-24.443c-6.502 0-11.791 5.29-11.791 11.791 0 6.502 5.289 11.791 11.791 11.791 6.502 0 11.791-5.29 11.791-11.791 0-6.502-5.289-11.791-11.791-11.791Z" fill="#F08F7A"/><path d="M130.296 1.777H92.583a9.144 9.144 0 0 0-9.144 9.144v.22a9.144 9.144 0 0 0 9.144 9.143h37.713a9.144 9.144 0 0 0 9.144-9.144v-.219a9.144 9.144 0 0 0-9.144-9.144Z" fill="#B1D3FC"/><path d="M90.098 17.629s-2.247 4.867-1.294 6.161c.952 1.294 7.407-5.284 7.407-5.284l-6.113-.877Z" fill="#B1D3FC"/><path d="M129.811 9.449H93.069a.43.43 0 1 1 0-.861h36.742a.43.43 0 1 1 0 .86ZM108.795 13.474H93.069a.43.43 0 1 1 0-.86h15.726a.43.43 0 1 1 0 .86ZM121.036 13.473h-9.334a.43.43 0 1 1 0-.86h9.334a.43.43 0 1 1 0 .86Z" fill="#FFF3E9"/><path d="M18.137 32.92c0-2.901 1.519-4.467 4.362-4.467h135.816c2.844 0 4.363 1.566 4.363 4.467v3.652H18.137V32.92Z" fill="#ACC1EB"/><path d="M153.765 33.849c.649 0 1.175-.537 1.175-1.2 0-.662-.526-1.199-1.175-1.199s-1.175.537-1.175 1.2c0 .662.526 1.199 1.175 1.199ZM148.671 33.849c.649 0 1.176-.537 1.176-1.2 0-.662-.527-1.199-1.176-1.199-.649 0-1.175.537-1.175 1.2 0 .662.526 1.199 1.175 1.199ZM143.578 33.849c.649 0 1.175-.537 1.175-1.2 0-.662-.526-1.199-1.175-1.199s-1.176.537-1.176 1.2c0 .662.527 1.199 1.176 1.199Z" fill="#6683C2"/><path d="M162.678 113.548V36.571H18.137V119.198h144.541v-5.65Z" fill="#D4E2FF"/><path d="M162.681 78.324h-62.113c-2.183 0-3.959-2.147-3.959-4.785V36.57h.86V73.54c0 2.163 1.39 3.925 3.099 3.925h62.113v.86Z" fill="#FFF3E9"/><path d="M162.681 74.286h-62.456a.43.43 0 0 1-.43-.43V36.57h.86v36.854h62.026v.861ZM129.409 105.343c-.416 0-.823-.042-1.215-.128-1.561-.337-2.801-1.306-3.999-2.242-.268-.21-.535-.419-.806-.62-5.018-3.732-11.797-4.494-16.485-1.849-3.115 1.754-7.333 2.087-10.497.824a.43.43 0 1 1 .32-.798c2.932 1.167 6.853.856 9.754-.777 4.98-2.803 12.143-2.02 17.421 1.91.276.205.549.418.823.632 1.174.917 2.282 1.783 3.651 2.08 1.885.407 3.659-.419 4.552-.95 1.288-.764 2.393-1.829 3.463-2.859l.279-.269c1.797-1.72 3.775-3.488 6.071-4.767 1.795-1 4.597-2.117 7.692-1.823 4.835.471 8.489 4.223 10.703 7.289a.431.431 0 0 1-.698.505c-2.11-2.922-5.574-6.497-10.089-6.936-2.874-.285-5.502.777-7.189 1.716-2.21 1.232-4.139 2.957-5.894 4.639l-.277.267c-1.106 1.064-2.249 2.164-3.621 2.978-1.307.776-2.675 1.178-3.959 1.178Z" fill="#FFF3E9"/><path d="M129.64 107.171a2.258 2.258 0 1 0 0-4.516 2.258 2.258 0 0 0 0 4.516ZM148.728 96.346a2.258 2.258 0 1 0 0-4.516 2.258 2.258 0 0 0 0 4.516Z" fill="#6683C2"/><path d="M154.935 67.192h-40.194a.43.43 0 0 1-.43-.43v-26.38c0-.158.086-.304.225-.379a.437.437 0 0 1 .442.019l40.194 26.38a.432.432 0 0 1-.237.79Zm-39.764-.86h38.324l-38.324-25.153v25.153Z" fill="#FFF3E9"/><path d="M118.527 66.761h-.861v-2.955h-2.955v-.86h3.385a.43.43 0 0 1 .431.43v3.385ZM114.818 45.02h-.121l.025-.86c1.802.062 2.548-1.522 2.579-1.59l.782.36c-.04.087-.983 2.09-3.265 2.09ZM149.604 66.878c-.019-.067-.45-1.653 1.031-2.888l.552.662c-1.056.88-.759 1.98-.756 1.99l-.827.236ZM46.175 72.116a.432.432 0 0 1-.387-.241c-1.816-3.702-3.695-7.53-6.245-10.843-2.822-3.666-6.177-6.21-9.704-7.357-4.156-1.35-8.583-.678-11.553 1.758a.434.434 0 0 1-.607-.06.432.432 0 0 1 .06-.607c3.196-2.616 7.937-3.35 12.366-1.909 3.692 1.201 7.191 3.847 10.119 7.651 2.605 3.381 4.502 7.249 6.337 10.989a.43.43 0 0 1-.387.619Z" fill="#FFF3E9"/><path d="M18.14 107.08a.43.43 0 0 1-.431-.43V32.92c0-3.158 1.701-4.897 4.792-4.897h8.492a.43.43 0 1 1 0 .861H22.5c-2.609 0-3.932 1.358-3.932 4.036v73.731a.43.43 0 0 1-.43.43v-.001Z" fill="#6683C2"/><path d="M117.291 74.471a1.414 1.414 0 1 0-2.328-1.604 1.414 1.414 0 0 0 2.328 1.604Z" fill="#B45C41"/><path d="m119.145 81.567-3.432-3.186-3.194-3.171-9.015 11.138-1.676 5.442 4.251 1.704s3.538-3.787 4.345-4.576c.807-.788 5.568-3.976 6.879-5.116 1.531-1.33 1.841-2.235 1.841-2.235h.001Z" fill="#FFB098"/><path d="m109.14 84.828 1.465.6c.285.117.599.003.697-.251l15.365-39.622c.097-.249-.049-.539-.327-.653-.278-.114-.585-.008-.691.237l-16.83 39.021c-.108.251.036.552.321.669Z" fill="#6683C2"/><path d="M113.745 75.633c1.353-1.02 1.617-2.657 1.644-3.635.017-.66-.12-1.636-.729-1.891-.36-.15-.976-.04-1.197.49-1.028 2.472-2.75 2.781-4.329 4.013-1.579 1.231-3.264 5.827-4.388 8.724-.971 2.503-4.967 5.863-4.967 5.863l2.051 2.593 11.915-16.157ZM113.921 84.595a1.373 1.373 0 0 1-.642-2.589l3.919-2.051a1.372 1.372 0 1 1 1.273 2.432l-3.919 2.051a1.36 1.36 0 0 1-.631.157Z" fill="#FFB098"/><path d="M114.181 78.329a1.372 1.372 0 0 1-.642-2.59l4.531-2.371a1.373 1.373 0 1 1 1.273 2.432l-4.531 2.372a1.366 1.366 0 0 1-.631.157ZM116.464 73.94c-.615.543-1.025.428-1.271-.042-.351-.672-.042-2.197.629-2.548l1.908-.999a1.374 1.374 0 0 1 1.274 2.433l-1.908.999a1.368 1.368 0 0 1-.632.156ZM112.819 82.176a1.374 1.374 0 0 1-.641-2.59l6.105-3.196a1.373 1.373 0 1 1 1.274 2.433l-6.106 3.196a1.364 1.364 0 0 1-.632.157Z" fill="#FFB098"/><path d="M113.917 85.025a1.803 1.803 0 0 1-.838-3.4l3.919-2.05a.43.43 0 1 1 .398.763l-3.918 2.05a.947.947 0 0 0-.398 1.273.944.944 0 0 0 .837.504h.004a.43.43 0 0 1 .001.86h-.005ZM114.178 78.758a1.802 1.802 0 0 1-.835-3.4l4.532-2.372a.431.431 0 0 1 .58.183c.111.21.029.469-.182.58l-4.532 2.372a.947.947 0 0 0-.398 1.273.944.944 0 0 0 1.272.396.43.43 0 1 1 .401.762 1.796 1.796 0 0 1-.832.205h-.006v.001Z" fill="#D58670"/><path d="M112.816 82.607a1.8 1.8 0 0 1-1.599-.967 1.806 1.806 0 0 1 .761-2.434l5.877-3.076a.428.428 0 0 1 .58.182c.111.21.029.47-.182.58l-5.876 3.077a.943.943 0 0 0 .439 1.778h.004a.43.43 0 0 1 .43.428c.001.24-.223.404-.434.432ZM115.108 74.1a.427.427 0 0 1-.41-.56c.459-1.44.15-2.509.147-2.52a.43.43 0 0 1 .822-.253c.016.054.398 1.322-.149 3.034a.431.431 0 0 1-.41.3Z" fill="#D58670"/><path d="m73.09 66.314 4.028-1.992s2.391 1.137 5.305 6.275c2.913 5.139 9.1 20.245 9.1 20.245s7.364-5.443 9.491-6.202c2.127-.76 2.806-1.449 2.806-1.449s5.997 6.855 6.074 7.758c.078.904-13.953 20.771-22.593 18.717-8.64-2.056-19.639-34.275-19.639-34.275l5.428-9.077Z" fill="#FFF3E9"/><path d="M74.223 61.691c.385-8.616 2.843-17.172 1.924-25.748-.156-1.452-.423-3.754-1.183-5.002-1.468-2.41-4.514-2.939-6.923-4.407-3.66-2.235-7.936-3.32-12.124-2.397-4.664 1.03-7.97 5.403-9.296 9.992-1.326 4.589-1.079 9.46-1.132 14.236-.053 4.777-.978 9.257-3.446 13.348-1.508 2.5-3.812 5.04-5.185 7.618-2.75 5.16-.824 12.152 3.627 15.943l35.352-15.361c-1.59-2.357-1.74-5.382-1.614-8.222Z" fill="#594646"/><path d="m68.783 61.503-1.085-.282a1.846 1.846 0 0 1-.766-.425c-.278.063-.56.123-.858.167-5.677.837-10.27-6.657-10.271-6.657-.114 1.259-.262 2.52-.568 3.75-.301 1.217-.802 2.253-1.505 3.284.056-.114-.238.273-.324.376-.19.225-.409.428-.635.616-.462.385-.973.707-1.49 1.012l.09.018s9.024 9.82 15.17 8.028c.091-.026 1.463.049 1.599-.012 4.001-1.81 1.513-7.576.643-9.875Z" fill="#FFB098"/><path d="m67.921 53.748-2.273-.147-9.59-.621a69.27 69.27 0 0 1-.257 1.324s4.594 7.495 10.27 6.657c.298-.044.58-.103.86-.167-.014-.012-.03-.02-.044-.032l1.034-7.014Z" fill="#D5856E"/><path d="M78.209 69.22c1.038-.647.465-3.864.243-4.044-1.397-1.153-2.894-1.795-4.49-2.293a47.376 47.376 0 0 0-2.319-.64l-.785-.204c-.812-.217-1.509-.406-1.846-.478l-.233-.061c.843 2.225 2.358 7.47-1.176 9.444-.241.134-1.167.475-1.356.519-6.136 1.41-14.88-8.104-14.88-8.104l-.09-.017c-1.557.922-3.437 1.505-4.991 2.221-3.857 1.78-6.977 4.066-8.317 7.705-1.718 4.681-9.325 24.928-9.69 28.349 0 0 17.106-6.638 17.665-7.692 0 0 .857 5.416.622 10.605l-4.542 14.667h35.02s.547-9.613.6-13.881c.035-.791.057-1.435.054-1.809-.033-4.045 1.94-9.5 2.085-11.983 0 0 2.92-3.087 3.177-6.996.16-2.433-2.04-10.623-4.752-15.308Z" fill="#FFF3E9"/><path d="M79.637 91.94a.429.429 0 0 1-.245-.784c1.677-1.163 2.788-4.197 3.145-6.687.264-1.864-3.198-10.428-4.392-12.712a.428.428 0 0 1 .183-.58.432.432 0 0 1 .58.182c1.035 1.98 4.806 10.943 4.48 13.23-.354 2.48-1.484 5.873-3.505 7.274a.425.425 0 0 1-.245.077ZM60.143 95.251a8.158 8.158 0 0 1-3.867-.956.433.433 0 0 1-.18-.583.434.434 0 0 1 .584-.18c3.8 2.009 7.53.02 9.322-.937l.966-.517c1.264-.685 2.179-1.181 3.841-1.386 1.025-.126 2.217.093 3.487.327.937.17 1.906.348 2.757.364a.43.43 0 0 1-.007.86h-.007c-.923-.015-1.928-.2-2.9-.378-1.201-.22-2.343-.428-3.223-.318-1.502.185-2.313.624-3.538 1.288l-.971.52c-1.218.648-3.558 1.896-6.264 1.896Z" fill="#F3DDCD"/><path d="M72.738 43.16c-.052-.993-.071-1.86-.07-2.631a7.104 7.104 0 0 0-4.463-6.632l-9.415.007-5.15 6.783s-.04 7.344.526 10.268c.888 4.59 6.543 7.1 6.543 7.1s3.924 2.02 6.724.714c2.8-1.307 4.578-4.65 5.487-7.96.583-2.123.01-3.952-.181-7.65h-.001Z" fill="#FFB098"/><path d="M61.184 41.501s-.272-.02-.55.062c-.096.029-1.776.284-3.154.922.29.127.466.27-.166.179a2.69 2.69 0 0 0-1.188 1.16c-.219.464-.31.946-.268 1.352.01.1.024.157.044.143 2.333-1.522 3.556-1.694 5.383-1.913.437-.052.701-.485.532-.872-.152-.348-.376-.673-.633-1.033ZM72.159 41.056l-.05-.012c-.606.225-.475.049-.226-.135-1.597-.316-3.374-.199-3.481-.206-.307-.02-.574.058-.574.058-.142.401-.26.761-.3 1.129-.043.408.366.766.823.722 1.673-.16 2.87-.255 5.05.366.049-.303.103-.61.162-.922a13.12 13.12 0 0 0-.377 0c.123-.037.266-.084.4-.124l.02-.1a3.267 3.267 0 0 0-1.447-.777Z" fill="#5A4747"/><path d="M61.364 52.004c.17-1.192-.676-2.297-1.887-2.47-1.211-.17-2.33.656-2.5 1.848-.168 1.192.677 2.297 1.888 2.469 1.211.172 2.33-.655 2.5-1.847ZM71.74 52.696c-1.221-.044-2.18-1.055-2.141-2.258.04-1.204 1.062-2.144 2.284-2.1.487.018.928.194 1.286.47-.002.682-.063 1.329-.247 2.001a11.57 11.57 0 0 1-.707 1.852 2.238 2.238 0 0 1-.473.035h-.001Z" fill="#8D2E2A" opacity=".29"/><path d="M64.77 50.146a.43.43 0 0 1-.054-.858c.744-.095 1.344-.387 1.459-.708.063-.18.008-.422-.068-.72-.223-.855-.443-1.528-.655-2.178a33.265 33.265 0 0 1-.671-2.23.43.43 0 0 1 .308-.525.425.425 0 0 1 .524.308c.223.855.443 1.528.656 2.178.218.662.442 1.348.67 2.23.086.33.202.782.047 1.224-.346.972-1.742 1.221-2.16 1.276-.02.001-.037.003-.056.003Z" fill="#DE8B79"/><path d="M60.712 47.54c.527-.012.934-.408.908-.887l-.054-.995c-.026-.479-.475-.858-1.003-.846-.527.01-.934.407-.907.886l.054.995c.026.479.475.858 1.002.846Z" fill="#0A0A0A"/><path d="M58.499 46.056c.097.036.21.026.297-.034.848-.588 1.606-.766 1.916-.654.155.066.334.004.4-.132.065-.136-.008-.299-.163-.362-.013-.007-.027-.011-.041-.016-.702-.254-1.778.229-2.497.728a.252.252 0 0 0-.044.382c.036.041.083.07.132.089Z" fill="#000"/><path d="M70.66 46.285c.485.012.874-.334.87-.774l-.009-.915c-.004-.44-.4-.806-.884-.818-.484-.012-.873.334-.87.774l.01.915c.003.44.4.806.883.818Z" fill="#0A0A0A"/><path d="M68.692 44.832a.3.3 0 0 0 .274-.02c.802-.503 1.506-.634 1.785-.518.14.067.307.018.372-.104.066-.122.006-.274-.133-.34a.382.382 0 0 0-.038-.016c-.634-.262-1.64.136-2.32.563a.231.231 0 0 0-.057.35.295.295 0 0 0 .117.085Z" fill="#000"/><path d="M26.408 105.889c1.576-6.67 11.563-32.62 11.563-32.62l9.73 17.884-.638 2.432-8.474 19.644s-2.916 2.174-4.915 2.018c-6.581-.518-8.618-3.638-7.267-9.358Z" fill="#FFF3E9"/><path d="M78.752 96.085a.428.428 0 0 1-.42-.52l.886-4.145a.421.421 0 0 1 .51-.33c.232.049.38.277.33.51l-.885 4.145a.429.429 0 0 1-.42.34Z" fill="#F3DDCD"/><path d="M53.848 43.986c-.468-1.093-1.58-1.825-2.633-1.734-1.053.09-1.967.999-2.164 2.15-.237 1.38.495 2.822 1.433 3.844.642.7 1.42 1.29 2.286 1.48.866.19 1.822-.084 2.327-.844l-1.249-4.896Z" fill="#FFB098"/><path d="M52.995 46.376a.432.432 0 0 1-.404-.282c-.32-.88-1.232-1.54-2.168-1.572a.431.431 0 0 1 .015-.86h.016c1.292.044 2.504.924 2.947 2.138a.431.431 0 0 1-.405.577Z" fill="#DE8B79"/><path d="M52.043 47.83a.425.425 0 0 1-.302-.124c-1.152-1.14-.81-2.33-.535-3.286a.424.424 0 0 1 .532-.294.43.43 0 0 1 .294.532c-.295 1.028-.422 1.707.314 2.437a.428.428 0 0 1-.302.736h-.001Z" fill="#DE8B79"/><path d="m36.856 106.224-10.844 2.362v10.612h13.884l.74-10.713-3.78-2.261Z" fill="#FFF3E9"/><path d="M69.523 31.848a12.644 12.644 0 0 0-9.605-.554c-3.107 1.091-5.752 3.463-7.191 6.449l-.68 4.236c1.234 1.06 2.445 2.324 4.335 1.593 1.511-.585 3.499-1.442 4.822-2.384a76.715 76.715 0 0 0 4.802-3.716c1.058-.888 2.134-1.828 3.45-2.236 1.314-.408 2.953-.125 3.703 1.04-.242-1.968-1.868-3.569-3.637-4.429h.001Z" fill="#594646"/><path d="M65.253 53.342c-.953 0-1.906-.283-2.672-.84a.43.43 0 0 1 .504-.698c1.134.824 2.772.908 3.982.208a.431.431 0 0 1 .432.746 4.504 4.504 0 0 1-2.246.584ZM64.753 54.973c-.016 0-.032 0-.05-.003l-.738-.084a.43.43 0 0 1-.378-.476c.026-.234.218-.425.476-.379l.738.084a.43.43 0 0 1-.049.858Z" fill="#DE8B79"/><path d="M40.682 108.635a.432.432 0 0 1-.384-.236 2.755 2.755 0 0 0-1.457-1.319.431.431 0 0 1 .308-.804c.823.315 1.52.947 1.917 1.736a.427.427 0 0 1-.384.623ZM46.228 95.183a.43.43 0 0 1-.384-.625 37.26 37.26 0 0 0 2.192-5.333.429.429 0 1 1 .818.263 38.093 38.093 0 0 1-2.243 5.46.43.43 0 0 1-.384.235ZM91.206 93.812a.43.43 0 0 1-.405-.576 5.873 5.873 0 0 0 .341-2.217.43.43 0 0 1 .412-.448h.019c.23 0 .42.18.43.412a6.74 6.74 0 0 1-.39 2.545.429.429 0 0 1-.406.284ZM108.013 93.29a.43.43 0 0 1-.372-.213 43.16 43.16 0 0 0-5.533-7.502.43.43 0 1 1 .633-.584 43.982 43.982 0 0 1 5.643 7.651.43.43 0 0 1-.372.648h.001Z" fill="#F3DDCD"/><path d="M18.137 119.199v11.123c0 .578.344 1.076.836 1.287.164.07.344.11.533.11h141.803c.022 0 .041-.012.063-.013h.011a1.306 1.306 0 0 0 1.295-1.319v-11.189H18.137v.001Z" fill="#6683C2"/><path d="M26.495 124.167c-.649 0-1.175.577-1.175 1.291 0 .713.526 1.291 1.175 1.291h47.84v-2.582h-47.84Z" fill="#4B6BAF"/><path d="M154.322 124.168H74.336v2.582h79.986c.649 0 1.175-.578 1.175-1.291 0-.714-.526-1.291-1.175-1.291Z" fill="#8299C9"/><path d="M74.333 127.7a2.242 2.242 0 1 0 0-4.484 2.242 2.242 0 0 0 0 4.484Z" fill="#F37E60"/><path d="M29.792 53.055a2.258 2.258 0 1 0-4.512-.15 2.258 2.258 0 0 0 4.512.15Z" fill="#5961DE"/><path d="M154.935 42.744h-17.659a.43.43 0 1 1 0-.861h17.659a.43.43 0 1 1 0 .86ZM154.935 47.257h-17.659a.43.43 0 1 1 0-.86h17.659a.43.43 0 1 1 0 .86ZM154.934 51.772h-6.943a.43.43 0 1 1 0-.86h6.943a.43.43 0 1 1 0 .86Z" fill="#FFF3E9"/><path d="M189.985 73.83c0-.663-.309-1.302-.76-1.787-.452-.484-1.037-.828-1.647-1.085-1.574-.664-3.325-.786-5.032-.719-1.707.068-3.404.315-5.112.355-.876.02-1.791-.023-2.556-.448-.126.468-.128 1.049.078 1.489-1.263.245-2.675.568-3.815 1.165-1.139.597-2.134 1.6-2.407 2.857-.127.582-.095 1.186-.181 1.775s-.326 1.203-.832 1.515c.415.509.773 1.184 1.189 1.693.375.46.755.923 1.228 1.28.473.358 1.056.604 1.648.563.591-.042 1.178-.418 1.356-.983l16.844-7.67h-.001Z" fill="#5C5C5C"/><path d="m156.508 125.648-3.572 5.341-17.02 8.094c-1.204 4.824.154 9.069.154 9.069 4.954-.603 19.834-2.056 24.401-5.679 2.009-1.594 3.926-3.921 5.443-6.027l.153-1.907c-4.089-2.186-7.946-6.925-9.56-8.89l.001-.001Z" fill="#FFA384"/><path d="M194.006 79.55c.022-1.33-.151-2.684-.789-3.803-.638-1.118-1.805-1.968-3.137-1.97-.18-.749-.658-1.484-1.29-1.903-.632-.418-1.375-.658-2.126-.837-2.919-.698-6.103-.526-9.061.488-2.313.793-1.07 1.024-3.46 1.16-1.827.104-3.316.648-4.325 2.411-.447.782-.136 4.88.55 6.011.993 1.637 1.335 2.87 3.195 3.425l13.156 10.591c-.149-.693.745-1.748 1.203-2.342.458-.593 1.248-1.367 1.71-1.959 3.785-4.857 4.305-7.06 4.374-11.273v.001Z" fill="#5C5C5C"/><path d="m185.767 93.768-.327-3.196-8.675 3.67v1.385l-.128 2.122c-.009 0-.017.002-.026.003l-.651.989-.071 1.731c7.99-.76 9.878-6.704 9.878-6.704Z" fill="#CC9182"/><path d="M196.89 103.55c-.462-.257-.528-.794-.528-.794s-1.013-.867-2.407-1.317c-2.301-.743-5.516-1.974-6.407-3.287-1.431-2.11-.601-8.218-.601-8.218l-1.509.638.327 3.196s-3.455 6.165-9.878 6.704l-2.287 17.109 23.29-14.032v.001Z" fill="#FFBEAC"/><path d="M186.32 80.535c-.384-1.092-.881-2.153-1.628-3.018-.748-.865-4.672-.581-5.836-.745l-7.772 3.093c-.144 1.613.019 3.23.476 4.738.194.641.444 1.275.466 1.957.026.737-.216 1.475-.369 2.21-.638 3.064-.864 4.57 1.566 8.059.906 1.3 2.468 2.366 4.089 1.995 2.439-.558 4.787-1.534 6.807-3.064.8-.606 1.706-1.875 2.03-2.81 1.419-4.086 1.538-8.52.171-12.414v-.001Z" fill="#FFBEAC"/><path d="M187.176 84.631c-.271.293-.55.591-.896.785-.347.194-.781.267-1.108.088-.384-.21-.514-.688-.604-1.124a36.974 36.974 0 0 1-.677-4.995c1.36-.794 3.843-2.726 5.134-3.636 3.053 2.79 2.395 10.906.423 13.876l-2.272-4.994Z" fill="#B45C41"/><path d="M170.182 78.158c.018.179.039.362.063.549.159 1.506.72 4.336 1.285 5.793-.096-.528-.052-1.592-.006-2.312.03-.465-.073-1.912.39-1.892.584.025 10.758-2.309 12.122.862l.02-.01c.126 1.088.293 2.168.513 3.234.063.308.149.637.329.877a.85.85 0 0 0 .275.247c.326.178.761.106 1.107-.088.347-.194.625-.493.897-.785l2.319 5.377c.676-1.018 1.15-3.024 1.421-4.83l.311.439s2.598-4.278.798-8.666c-.159-.387-.237-.761-.393-1.07-.05-1.268-21.614.705-21.45 2.276h-.001Z" fill="#5C5C5C"/><path d="M186.325 85.482s1.518-2.253 3.601-1.259c2.082.994-.4 7.185-3.803 5.386l.202-4.127Z" fill="#FFBEAC"/><path d="M213.148 130.576c-.421-1.775-.943-3.521-1.466-5.26-2.165-7.196-3.099-14.605-7.929-20.354a8.224 8.224 0 0 0-1.275-1.204l-11.727 8.175 8.915 21.85.117.498c-9.438 2.786-19.16 6.916-19.16 6.916l.756 8.621s27.454 1.838 31.825-6.206c1.585-2.919.94-7.077.607-9.533a36.356 36.356 0 0 0-.663-3.503Z" fill="#9DC0F4"/><path d="M213.809 134.078c-.16-1.184-.39-2.35-.664-3.502-.42-1.776-.943-3.522-1.466-5.261-2.165-7.194-3.099-14.604-7.928-20.353a8.23 8.23 0 0 0-1.276-1.204c-2.476-2.052-11.666-4.136-12.142-4.258 0 0-.818 1.099-3.024 2.325-3.631 2.015-8.893 4.027-11.329.562-.074-1.084-.077-2.388-.077-2.388-2.83 1.059-5.692 2.407-8.217 4.129-2.577 1.76-4.338 4.09-5.775 6.639l-.009-.013-.246.462c-.125.231-.25.462-.371.696 0 0-7.708 12.19-7.891 12.904-.032.124.17.445.536.891 1.73 2.108 7.352 7.188 11.737 9.531l-.165 2.044c.023.957.027 2.013.008 3.158-.042 2.56-.212 5.618-.629 9.382h16.566c.646.04 6.363.378 12.823 0h8.19a7.68 7.68 0 0 0-.014-.921c4.955-.902 9.242-2.501 10.757-5.289 1.585-2.918.939-7.077.607-9.533l-.001-.001Z" fill="#7FCBB4"/><path d="M213.716 132.58c-1.007-6.044-5.887-18.168-5.887-18.168l-11.182 6.353s3.881 15.029 3.423 15.437c-.458.408-8.517 3.081-19.362 5.221-2.21-.895-5.492-2.227-6.062-2.136-.832.133-7.931 1.968-8.85 2.627l-3.267 2.342c-.356.254-.512.708-.377 1.096.184.524.815.707 1.309.376l.251-.168-2.635 2.603a1.154 1.154 0 0 0-.33 1.066l21.231.016v.003s23.284 1.272 29.174-2.799c5.89-4.07 3.572-7.825 2.564-13.87v.001Z" fill="#FFA384"/><path d="m206.88 109.884-12.183 4.289 3.122 19.661s15.186-3.01 15.319-6.955c.134-3.974-6.258-16.995-6.258-16.995Z" fill="#7FCBB4"/><path d="M201.095 137.347a.441.441 0 0 1-.192-.044 1.52 1.52 0 0 0-1.003-.124.431.431 0 0 1-.188-.841 2.383 2.383 0 0 1 1.575.194.43.43 0 0 1-.192.815ZM181.341 142.709a.429.429 0 0 1-.326-.149l-.636-.735a.43.43 0 1 1 .65-.563l.639.735a.434.434 0 0 1-.045.608.425.425 0 0 1-.282.104Z" fill="#D37C61"/><path d="M196.27 115.424h-.017a.432.432 0 0 1-.413-.447 13.302 13.302 0 0 1 3.841-8.803.43.43 0 1 1 .608.608 12.432 12.432 0 0 0-3.589 8.228.43.43 0 0 1-.43.414ZM199.249 132.219a.432.432 0 0 1-.425-.359l-1.964-11.732a.43.43 0 0 1 .353-.496.424.424 0 0 1 .496.354l1.965 11.731a.43.43 0 0 1-.425.502ZM165.668 135.668h-.012a.431.431 0 0 1-.418-.443c.004-.127.372-12.706.826-17.157a.45.45 0 0 1 .472-.385.43.43 0 0 1 .385.472c-.452 4.421-.818 16.969-.822 17.095a.43.43 0 0 1-.431.417v.001Z" fill="#6CBEA8"/><path d="M182.403 93.85a1.9 1.9 0 1 0-1.142-3.624 1.9 1.9 0 0 0 1.142 3.624ZM172.358 91.353a1.896 1.896 0 0 0-.78-2.198c-.259 1.273-.418 2.297-.3 3.332.49-.202.898-.592 1.08-1.134Z" fill="#F9786E" opacity=".69"/><path d="M180.523 88.434c.423.08.815-.17.875-.56l.126-.81c.06-.39-.235-.77-.658-.85-.424-.081-.816.17-.876.559l-.125.81c-.06.39.235.77.658.85Z" fill="#282120"/><path d="M179.005 86.866a.267.267 0 0 0 .243.023c.777-.33 1.413-.345 1.642-.203.113.08.267.06.342-.038.076-.099.045-.242-.068-.32a.434.434 0 0 0-.031-.02c-.518-.322-1.46-.116-2.119.164a.208.208 0 0 0-.1.3c.022.04.054.07.091.094ZM172.891 87.504c.363.036.675-.211.696-.552l.044-.71c.022-.342-.255-.647-.618-.683-.363-.036-.675.212-.696.553l-.044.71c-.022.341.255.646.618.682Z" fill="#282120"/><path d="M171.496 86.271a.22.22 0 0 0 .206 0c.63-.346 1.166-.41 1.37-.305.1.06.229.031.285-.06.056-.091.019-.212-.082-.27l-.027-.015c-.462-.237-1.239.016-1.774.31a.182.182 0 0 0-.061.267.22.22 0 0 0 .083.074Z" fill="#282120"/><path d="M178.918 83.466s.213-.042.439.007c.079.017 1.262.11 2.408.554-.216.137-.175.264.314.13l.036.014c.423.189.772.51 1.01.904-.125.022-.277.06-.4.084.13.015.313.042.487.07.155.309.247.653.252 1.015.001.088-.003.138-.021.13-2.363-1.014-2.965-1.186-4.426-1.22-.349-.009-.599-.367-.502-.723.088-.32.234-.626.403-.965ZM174.123 83.788c-.102-.303-.285-.59-.5-.906 0 0-.29-.026-.605.038-.072.015-.822.1-1.78.302a12.116 12.116 0 0 0 .36 1.5 25.037 25.037 0 0 1 1.793-.2c.481-.033.845-.397.732-.734Z" fill="#5E5E5F"/><path d="M176.016 91.092h-.008c-.313-.007-.668-.015-1.013-.114-.428-.118-.77-.371-.936-.689-.243-.457-.102-.96-.012-1.292l1.171-4.19c.054-.19.252-.3.443-.249a.36.36 0 0 1 .249.443l-1.17 4.189c-.086.305-.147.575-.048.765.076.142.261.267.496.335.261.072.554.08.837.085a.358.358 0 0 1-.009.718ZM186.718 87.624a.357.357 0 0 1-.293-.565 4.245 4.245 0 0 1 3.432-1.778h.077a.36.36 0 0 1-.007.718h-.068a3.572 3.572 0 0 0-2.848 1.472.36.36 0 0 1-.293.153Z" fill="#CC8E7E"/><path d="M187.793 88.809a.356.356 0 0 1-.335-.486 7.025 7.025 0 0 0 .459-2.262c.009-.198.166-.332.372-.346a.359.359 0 0 1 .346.371 7.737 7.737 0 0 1-.507 2.492.36.36 0 0 1-.335.23ZM175.967 93.805h-.035a3.421 3.421 0 0 1-2.099-.744.356.356 0 0 1-.057-.503.356.356 0 0 1 .503-.057 2.721 2.721 0 0 0 1.66.587c.614.042 1.193-.192 1.669-.558a.359.359 0 1 1 .437.569 3.423 3.423 0 0 1-2.078.706Z" fill="#CC8E7E"/><path d="M178.334 93.067a.364.364 0 0 1-.14-.028 1.388 1.388 0 0 1-.759-.823.359.359 0 0 1 .68-.227.66.66 0 0 0 .359.389.36.36 0 0 1-.14.69Z" fill="#CC8E7E"/><path d="M184.615 78.561c-.349-.297-.829-.372-1.283-.437-1.141-.162-2.267-.258-3.393-.504-1.234-.27-2.475-.54-3.737-.59-1.261-.05-2.557.13-3.674.72-1.116.59-1.9 1.732-2.163 2.968.839.511 1.747.957 2.723 1.07.976.113 2.13-.224 2.79-.953-.022.537-.151 1.22-.508 1.623.783.164 1.589-.143 2.28-.546.691-.403 1.327-.909 2.07-1.207 1.434-.576 3.188-.246 4.315.81l1.171-1.055c-.015-.684-.07-1.454-.591-1.898Z" fill="#5C5C5C"/><path d="M107.485 122.905h-2.128c-.689 0-1.148.528-1.027 1.179l7.228 24.242c.122.65.778 1.178 1.466 1.178h5.385l25.268-26.599h-36.192Z" fill="#B1D3FC"/><path d="M167.611 146.581h-11.36l-6.708-22.497c-.121-.651-.777-1.179-1.466-1.179h-4.4l-25.267 26.599h50.832v-1.34c0-.874-.731-1.583-1.631-1.583Z" fill="#9DC0F4"/><path d="M126.849 137.087c.424 1.49 2.045 2.696 3.618 2.696 1.574 0 2.506-1.207 2.081-2.696-.425-1.489-2.045-2.695-3.618-2.695-1.574 0-2.506 1.207-2.081 2.695Z" fill="#FFF3E9"/><path d="M154.248 148.022a.43.43 0 0 1-.413-.307l-6.791-22.776a.428.428 0 0 1 .288-.535.427.427 0 0 1 .535.288l6.792 22.776a.428.428 0 0 1-.412.554h.001Z" fill="#6F77F1"/><path d="M39.814 149.874h-39a.373.373 0 1 1 0-.745h39.001a.373.373 0 0 1 0 .745ZM210.33 149.874H43.236a.373.373 0 1 1 0-.745H210.33a.373.373 0 0 1 0 .745Z" fill="#6683C2"/></svg>