<svg width="612" height="286" fill="none" xmlns="http://www.w3.org/2000/svg"><g clip-path="url(#a)"><path opacity=".54" d="M352.039 89.564c22.623-45.092 4.406-99.982-40.686-122.604-45.088-22.62-99.98-4.41-122.603 40.683-22.622 45.092-4.405 99.986 40.682 122.606 45.093 22.621 99.986 4.406 122.607-40.685ZM186.611 283.641c18.122-36.12 3.529-80.089-32.591-98.21-36.116-18.12-80.087-3.532-98.209 32.589-18.121 36.12-3.529 80.092 32.588 98.211 36.121 18.121 80.092 3.53 98.212-32.59ZM151.732 130.812c10.16-16.665 4.886-38.41-11.779-48.57-16.663-10.159-38.408-4.887-48.569 11.778-10.16 16.665-4.886 38.411 11.777 48.57 16.666 10.16 38.411 4.886 48.571-11.778Z" fill="#F7F9FE"/><path d="M434.858 211.256c42.981 54.964 122.371 64.678 177.324 21.705 54.949-42.97 64.66-122.361 21.679-177.325C590.88.673 511.486-9.044 456.537 33.926c-54.954 42.976-64.659 122.368-21.679 177.33Z" fill="#7FCBB4"/><path d="M202.879 300.102c30.911 39.529 88.293 46.299 128.173 15.113 39.869-31.178 47.133-88.499 16.221-128.029-30.912-39.53-88.294-46.3-128.165-15.121-39.88 31.186-47.141 88.507-16.229 128.037Z" fill="#68CCEA"/><g clip-path="url(#b)"><path d="m294.693 143.401-47.573 42.984-139.121 125.701 127.156 10.97s38.487-58.98 55.48-84.54c20.09-30.216 43.48-63.981 49.914-67.454 11.886-6.412 30.9-10.618 37.877-19.297l-83.733-8.357v-.007Z" fill="#FFB098"/><path d="M103.819 308.303s145.926-133.901 157.643-138.038l51.225 39.433s-46.466 99.355-67.016 122.133c-20.551 22.771-140.885-5.573-140.885-5.573l-.96-17.955h-.007Z" fill="#6787C3"/><path d="M413.035 103.025a16.389 16.389 0 0 1-11.155-4.524l-26.064-24.876a31.85 31.85 0 0 0-22.354-8.44l-23.221.548a12.385 12.385 0 0 0-9.255 4.5l-8.2 9.958-6.338.813c-4.882.36-8.796 2.377-9.946 6.656-1.124 4.19.744 9.22 4.61 10.884-3.59.337-6.482 3.256-6.818 6.514-.88 8.463 6.139 10.993 6.139 10.993-3.646-.137-6.253 1.614-6.961 4.268-.435 1.631-.889 4.549 1.869 7.176-1.217.052-2.247.632-3.254 1.519-1.637 1.435-1.596 5.779-1.47 8.514 0 0-.552 7.828 6.19 10.108l37.397 11.65s17.924 5.526 45.124-3.584a16.689 16.689 0 0 1 5.767-.872l228.705-3.939-34.36-91.016-166.405 43.128v.022Z" fill="#FFBEAC"/><path d="m442.016 95.513 150.145-43.875s33.068 37.213 33.676 112.474c0 0-167.955-2.162-180.655-10.138l3.545-34.564-6.711-23.897Z" fill="#F37E60"/><path d="M418.991 91.178c-1.751-1.132-3.409-1.486-4.796-1.474a6.484 6.484 0 0 0-2.469.521 10.847 10.847 0 0 0-.292-2.366c-.438-1.808-1.368-3.72-3.149-5.473-3.201-3.142-6.953-1.954-9.628-.296.307-1.783.546-6.017-3.022-9.215-4.642-4.158-9.103-2.997-13.04-1.03 0 0 4.293-6.803-2.54-11.002l-18.816 14.673s-8.096 5.888-6.535 12.108c1.562 6.213 7.221 8.374 8.666 8.36 0 0-6.638 7.313.61 13.824 4.769 4.279 9.653 1.333 12.727-1.591.141 2.451.948 5.315 3.531 7.355 5.427 4.285 10.614 1.178 13.975-1.329 1.85-1.382 7.264-7.416 11.427-12.352a7.228 7.228 0 0 0 2.336 3.251 7.32 7.32 0 0 0 9.016.063l2.657-2.081c1.477-1.964 2.769-3.763 2.833-5.612.075-2.288-1.103-4.793-3.469-6.327l-.022-.007Z" fill="#FFB098"/><path d="M376.146 69.856c-5.443 4.26-13.39 6.456-19.793 7.585l-38.514 2.589c3.569-3.009 11.623-10.006 18.272-15.99 6.306-5.682 11.201-7.862 13.438-8.64a5.076 5.076 0 0 1 2.47-.2c12.583 2.043 20.27 1.175 23.32.53 1.321-.28 2.719.168 3.563 1.22 2.063 2.564 3.811 7.772-2.742 12.906h-.014Z" fill="#FFB098"/><path d="M362.599 160.421a.612.612 0 0 1-.123.039c-.668.141-16.531 3.364-28.453-.608a629.13 629.13 0 0 0-22.318-6.952.581.581 0 0 1 .323-1.118c.103.027 10.571 3.041 22.362 6.965 11.635 3.87 27.694.605 27.854.572a.574.574 0 0 1 .682.451.569.569 0 0 1-.327.643v.008Z" fill="#DB9885"/><path d="m299.785 98.183 18.038 5.07M300.236 116.61l19.797 5.977M294.752 128.43l21.513 8.68" stroke="#DB9885" stroke-width="1.5" stroke-linecap="round" stroke-linejoin="round"/><path d="M442.019 95.513s7.121 26.611 2.714 59.669c0 0 13.867 2.288 17.156 2.193 0 0 8.964-39.523-2.745-67.19 0 0-7.681 1.722-17.125 5.328Z" fill="#D86344"/><path d="M264.371 157.342s44.774 18.698 61.811 49.615c0 0-4.519 11.861-9.47 18.584 0 0-42.526-37.718-71.242-48.974 0 0 7.305-13.171 18.901-19.225Z" fill="#81A3E3"/><path d="M317.249 80.022s34.39-.195 46.179-4.326c11.789-4.138 17.72-12.302 17.72-12.302M380.781 76.05s-13.178 23.97-21.346 19.512c-8.168-4.466-5.335-13.335-.715-17.808" stroke="#DB9885" stroke-width="1.5" stroke-linecap="round" stroke-linejoin="round"/><path d="M395.577 86.233s-11.21 17.02-20.909 24.21c-9.692 7.191-20.431-4.719-11.32-14.473" stroke="#DB9885" stroke-width="1.5" stroke-linecap="round" stroke-linejoin="round"/><path d="M408.208 94.408s-8.316 21.287-20.356 23.233c-12.041 1.946-11.009-8.945-11.009-8.945" stroke="#DB9885" stroke-width="1.5" stroke-linecap="round" stroke-linejoin="round"/><path d="M419.969 102.649s-10.642 10.442-14.735-1.938" stroke="#DB9885" stroke-width="1.5" stroke-linecap="round" stroke-linejoin="round"/></g></g><defs><clipPath id="a"><path fill="#fff" d="M0 0h612v286H0z"/></clipPath><clipPath id="b"><path fill="#fff" transform="rotate(-1.407 2546.88 -3949.587)" d="M0 0h525.439v282.025H0z"/></clipPath></defs></svg>