<svg width="353" height="247" fill="none" xmlns="http://www.w3.org/2000/svg"><path d="M36.213 23.292c-.099-.545-1.38-6.38-10.404-5.383 0 0 4.491-.114 5.537 1.717 0 0-3.355-1.963-5.693-.836-2.338 1.126-3.153 5.627-2.962 7.039.19 1.413 2.211 5.765 3.822 5.926.61.06 1.282-.076 1.882-.272a21.29 21.29 0 0 0-.892 2.33c-2.516 7.876 2.223 14.529 5.142 13.293 1.872-.792 2.903 2.449 2.903 2.449L52.23 31.508c.002 0-9.027-13.36-16.017-8.216Z" fill="#696B70"/><path d="m57.94 240.657-4.058 1.51S36.26 217.725 34.09 196.221c-.388-3.84-.258-7.56.58-10.994 0 0-.174-.985-.475-2.724-.138-.811-.311-1.789-.507-2.909-.573-3.282-1.362-7.774-2.263-12.889-2.073-11.769-4.76-26.814-6.847-37.874l1.094-.351 11.828-3.816 2.445-7.763 8.807-2.319s1.967 3.85 3.727 22.032c.325 2.384.62 5.014.841 7.868.685 8.705.735 19.503-.837 31.849-.405 3.16-.914 6.423-1.547 9.775-.464 2.457-.533 5.806-.338 9.653.89 17.576 7.342 44.898 7.342 44.898Z" fill="#6683C2"/><path d="m53.322 144.478-19.127 38.025c-.138-.811-.311-1.789-.507-2.909-.573-3.282-1.362-7.774-2.263-12.889-2.073-11.769-4.76-26.814-6.847-37.874l1.094-.351 11.828-3.816 2.445-7.763 8.807-2.319s1.967 3.85 3.727 22.032c.325 2.383.62 5.013.843 7.864Z" fill="#46619B"/><path d="m44.914 119.456-.443-3.796c-7.418 1.971-27.238-5.506-27.238-5.506s-7.186 6.318-6.243 21.459c.46 7.391 1.301 38.795 2.18 48.089a281.683 281.683 0 0 0 .711 6.731c.035.292-.067.567-.216.823a43.555 43.555 0 0 0-3.242 6.819c-8.624 22.98 1.328 51.279 1.328 51.279l2.582-1.04s5.663-31.493 10.264-45.406c.78-2.36 1.53-4.215 2.217-5.322 2-3.229 3.856-8.505 5.542-14.78 3.185-11.865 5.748-27.298 7.456-39.211.237.011 5.102-20.139 5.102-20.139Z" fill="#6683C2"/><path d="M56.866 89.026c.146.149.286.298.457.436 6.34 5.907 14.879 11.131 19.447 12.282 3.005.768 9.63-.262 15.131-1.393 3.667-.724 6.857-1.523 8.174-1.836.421-.099.654-.171.654-.171l-.574-3.71s-3.298-.261-7.395-.723c-5.707-.672-12.941-1.701-14.794-2.797-4.299-2.553-11.84-13.266-17.892-20a67.749 67.749 0 0 0-1.624-1.81c-.047-.048-.104-.128-.179-.17-.278-.266-.514-.515-.742-.733-.009-.028-.049-.047-.087-.07-1.076-1.08-2.96-2.39-2.96-2.39-1.057-.603-1.928-.72-2.54-.207 0 0-.79.774-1.566 2.233-.164.304-.327.64-.481 1.007-.128.2-.192.413-.255.626a12.803 12.803 0 0 0-.82 5.014c.047 1.495.333 3.144.997 4.963 1.054 2.985 3.725 6.302 7.05 9.449Z" fill="#E9B49C"/><path d="M51.347 73.376c-2.15 1.403-4.828 2.535-8.167 3.208-12.52 2.523-16.992-8.124-18.578-15.393 1.723-.922 3.325-1.092 4.25-1.177.902-.08 1.85-.124 2.634-.141 1.428-1.032 3.632-5.35 4.285-12.137l.581.173 9.728 2.96s-.537 3.103-.841 6.043c-.235 2.3-.324 4.502.097 5.054.76.187 1.216.308 1.216.308s0 .004.005.009c.125.223 2.838 4.98 4.79 11.093Z" fill="#E9B49C"/><path d="M55.708 81.195c-.057.267-.128.528-.206.796-2.197 7.349-3.976 36.724-3.976 36.724 1.164 3.672-20.182 4.425-31.953 2.727-4.281-.616-7.295-1.555-7.503-2.796-2.106-4.748 3.049-13.616 6.025-18.123.374-.566.696-1.161.96-1.777.673-1.55.997-3.24.93-4.942a89.698 89.698 0 0 0-.532-6.71c-.455-3.995-1.066-7.483-1.384-9.953v-.001c.62-.616 1.222-1.187 1.784-1.73.856-.838 1.607-1.613 2.133-2.366.58-.82.902-1.621.83-2.46a12.304 12.304 0 0 0-.328-1.914 18.64 18.64 0 0 0-.247-.898c-.955-3.132-2.715-5.842-2.715-5.842 3.187-1.863 9.328-1.92 9.328-1.92s.041.335.12.884c.299 2.203 1.138 7.849 1.998 8.814 1.074 1.204 18.052 4.694 18.642 2.763.581-1.898-2.924-9.887-3.056-10.19-.003-.005-.003-.01-.003-.01 5.436 1.293 7.798 2.753 7.906 2.84 0 0-.004 0-.006-.002-2.95 2.587 2.802 9.044 1.253 16.087Z" fill="#F37E60"/><path d="M46.08 50.873s-.539 3.1-.84 6.042c-5.539-.713-7.968-6.073-8.888-9.003l9.727 2.96Z" fill="#CC9981"/><path d="M47.662 53.845s-13.163-1.099-12.353-9.286c.81-8.186-.342-13.843 8.096-13.486 8.439.354 9.76 3.64 10.154 6.438.394 2.798-2.452 16.408-5.897 16.334Z" fill="#E9B49C"/><path d="M53.62 32.921c-1.785-2.666-3.374-2.278-4.308-1.624-6.788-4.669-12 .707-12 .707-1.467 5.786-6.039 8.726-6.039 8.726s2.248 1.72 7.911.853c1.73-.264 3.357-1.313 4.783-2.639-2.61 3.523-5.921 5.916-5.921 5.916 6.9-2.387 10.468-11.297 10.83-12.24.73.801 2.154 2.525 2.483 4.106.446 2.151.311 6.472 1.576 6.45-.002 0 3.362-6.258.685-10.255Z" fill="#696B70"/><path d="M112.349 94.142c-1.317 1.255-2.647 4.392-6.701 4.331-2.893-.024-5.821.301-7.24.476-.552.097-.872.135-.872.135l-.145-4.592s.058.005.19-.016c.98-.147 5.954-.912 7.923-2.218 2.21-1.481 7.378-.109 7.378-.109s.792.763-.533 1.993Z" fill="#E9B49C"/><path d="M26.766 247.466H6.33s-.49-3.115.578-5.478c1.022-2.267 2.625-3.298 2.24-6.041 1.298 1.338 3.416 2.834 6.37 2.437.361.586 2.336 3.727 3.545 4.595 1.334.961 7.29.618 7.702 4.487ZM70.644 247.467H50.209s-.765-3.26.578-5.478c1.187-1.963.732-3.08-.147-4.703.926.379 2.123.723 3.441.649 1.018-.059 2.096-.521 3.039-1.07.879 1.002 4.646 5.271 5.822 6.117 1.336.958 7.29.616 7.702 4.485Z" fill="#46619B"/><path d="M44.516 49.11s.183 1.084 2.851 1.087c0 0 2.24.002 2.244-1.175 0 0-2.11-.972-5.095.089Z" fill="#fff"/><path d="M22.362 101.144c-.808 5.12-4.511 15.395-2.79 20.302-4.28-.616-7.294-1.556-7.502-2.796-2.106-4.748 3.049-13.616 6.025-18.124.374-.565.696-1.16.96-1.776.673-1.55.997-3.24.93-4.942a89.699 89.699 0 0 0-.532-6.71s3.769 8.604 2.909 14.046Z" fill="#DC775D"/><path d="M51.29 66.598c.14 4.55 3.432 17.044 4.214 15.395.893-1.881 4.348-9.03 5.971-9.294-.084-.33-6.727-7.674-7.018-7.589-.002.002-1.806.552-3.168 1.488Z" fill="#F37E60"/><path d="m19.954 131.154-3.39 2.257s-.858-1.073-2.216-2.786a19.288 19.288 0 0 1-.623-.827c-1.075-1.384-2.324-3.084-3.69-4.926l-.023-.021c-2.29-3.217-4.805-6.873-6.73-10.179-1.337-2.345-2.379-4.515-2.887-6.221a3.65 3.65 0 0 1-.121-.514c-.995-4.327.83-12.918 3.735-21.301.4-1.16.82-2.3 1.224-3.414 1.545-4.111 3.282-7.975 5.026-11.097 1.023-1.877 2.042-3.514 3.025-4.736.34-.437.66-.85 1.007-1.2.187-.213.373-.417.559-.613 2.036.172 6.308.98 9.48 4.64-.054.193-.11.385-.168.582-1.282 4.136-3.261 9.21-5.314 14.185-1.116 2.732-2.258 5.444-3.258 7.994a179.36 179.36 0 0 0-1.727 4.32c-.976 2.57-1.7 4.709-1.988 6.209-.195.972.083 2.801.608 5.051.9 3.921 2.612 9.2 4.206 13.681.65 1.871 1.293 3.611 1.829 5.054a346.552 346.552 0 0 0 1.436 3.862Z" fill="#E9B49C"/><path d="M21.435 83.16c-3.386-5.112-13.091-7.311-13.091-7.311C13.82 58.47 28.199 60.082 28.199 60.082s-5.23 18.08-6.764 23.077Z" fill="#F37E60"/><path d="M16.563 133.41s.89 1.315.99 2.26c.1.947.946 4.082 2.04 5.077 1.095.995 3.583 2.986 3.93 2.687.348-.299 1.357-2.646.423-4.305-.423-.749-.995-2.838-1.75-3.343-.917-.614-2.246-4.634-2.246-4.634l-3.387 2.258Z" fill="#E9B49C"/><path d="M19.969 131.664s2.696 1.369 3.06 2.464c.366 1.095 1.873 3.303 1.717 3.559-.166.274-2.509-1.22-3.305-2.58-.796-1.36-1.472-3.443-1.472-3.443Z" fill="#E9B49C"/><path d="m84.125 118.931 98.731-59.107a17.213 17.213 0 0 1 17.685 0l98.731 59.107v96.336L84.127 204.48v-85.549h-.002Z" fill="#DC775D"/><path d="M280.749 76.246H102.641v153.92h178.108V76.246Z" fill="#F6F6F6"/><path d="M110.616 84.65a1.83 1.83 0 1 0-1.401-3.382 1.83 1.83 0 0 0 1.401 3.383ZM271.539 82.96a1.831 1.831 0 1 1 3.663 0 1.831 1.831 0 0 1-3.663 0Z" fill="#EFCBAB"/><path d="M273.369 82.76H109.906v.398h163.463v-.398Z" fill="#EFCBAB"/><path d="M110.109 82.232h-.398v163.463h.398V82.232ZM273.632 82.232h-.398v163.463h.398V82.232Z" fill="#EFCBAB"/><path d="M299.27 118.664v128.802H84.125V118.664l107.572 64.402 107.573-64.402Z" fill="#F37E60"/><path d="m84.125 247.465 98.542-70.648a15.496 15.496 0 0 1 18.061 0l98.542 70.648H84.125Z" fill="#DC775D"/><path d="M224.543 97.57h-64.938a1.72 1.72 0 0 1-1.714-1.715 1.72 1.72 0 0 1 1.714-1.714h64.938a1.72 1.72 0 0 1 1.715 1.714 1.72 1.72 0 0 1-1.715 1.715ZM241.264 104.453h-98.393a1.72 1.72 0 0 1-1.715-1.715 1.72 1.72 0 0 1 1.715-1.715h98.393a1.72 1.72 0 0 1 1.715 1.715 1.72 1.72 0 0 1-1.715 1.715ZM228.5 125.784h-71.189a1.245 1.245 0 0 1-1.241-1.241c0-.681.559-1.24 1.241-1.24H228.5c.682 0 1.241.559 1.241 1.24a1.245 1.245 0 0 1-1.241 1.241ZM164.462 132.262h-20.073a1.245 1.245 0 0 1-1.241-1.24c0-.682.559-1.241 1.241-1.241h20.073c.682 0 1.241.559 1.241 1.241 0 .683-.559 1.24-1.241 1.24ZM194.733 132.262h-24.25a1.245 1.245 0 0 1-1.241-1.24c0-.682.559-1.241 1.241-1.241h24.25c.682 0 1.241.559 1.241 1.241 0 .683-.558 1.24-1.241 1.24ZM241.43 132.262h-41.924c-.682 0-1.24-.558-1.24-1.24 0-.682.558-1.241 1.24-1.241h41.924c.681 0 1.24.559 1.24 1.241 0 .683-.559 1.24-1.24 1.24ZM194.899 139.798h-38.994a1.245 1.245 0 0 1-1.241-1.241c0-.682.559-1.241 1.241-1.241h38.994c.681 0 1.24.559 1.24 1.241s-.559 1.241-1.24 1.241ZM229.914 139.798h-30.712a1.245 1.245 0 0 1-1.241-1.241c0-.682.559-1.241 1.241-1.241h30.712c.682 0 1.241.559 1.241 1.241s-.559 1.241-1.241 1.241Z" fill="#EFCBAB"/><path d="M205.847 155.11c-2.345 1.947-4.856 3.57-7.499 5.051.223-.701.41-1.429.375-2.077-.047-.892-.76-1.283-1.472-1.654-.177-.091-.341-.188-.506-.285.277-.272.419-.647.236-1.057-.301-.677-1.146-.568-1.431.058a1.134 1.134 0 0 0-.097.338.882.882 0 0 1-.279-.218c.435-.812.845-1.639 1.222-2.483.085-.19-.023-.414-.175-.53-.626-.472-1.481-.32-1.985.274-.597.704-.446 1.775-.161 2.574.021.056.042.113.066.168-.553 1-1.156 1.971-1.801 2.916a15.36 15.36 0 0 0-.182-.18 3.977 3.977 0 0 1-.503-.606c.296-.77.484-1.579.555-2.42.031-.376-.344-.561-.659-.445-.869.322-1.336 1.204-1.223 2.113.038.311.14.609.282.885a8.09 8.09 0 0 1-.696 1.222c-.176.254-.05.514.158.635-.286.948-.668 1.917-1.322 2.601-.535.557-1.532.981-2.182.318-.412-.419-.464-1.119-.521-1.673-.139-1.365-.242-2.782-.192-4.156.024-.651.093-1.312.315-1.926.138-.382.332-.96.517-.303.092.324-.034.824-.067 1.153-.059.586.851.654.91.07.069-.688.377-2.131-.402-2.562-.645-.358-1.239.156-1.538.692-1.076 1.931-.647 4.582-.486 6.681.13 1.673.754 3.727 2.891 3.194 2.011-.5 2.75-3.035 3.212-4.779a.465.465 0 0 0-.014-.293.463.463 0 0 1 .024-.043c.083.085.166.166.251.251.119.105.232.216.341.33-.211.293-.426.584-.647.871-.125.162-.089.406.036.557.677.815 1.893.211 1.869-.791a1.505 1.505 0 0 0-.153-.626 37.23 37.23 0 0 0 1.779-2.821c.286.281.651.461 1.097.44.031-.002.061-.005.092-.009.233.248.528.454.796.606.259.145.559.237.792.427.435.355.305.76.21 1.263-.127.663-.336 1.324-.53 1.971-.919.528-1.825 1.198-2.135 2.256-.282.966-.031 1.982.796 2.58.249.18.58.035.685-.226a45.988 45.988 0 0 0 1.39-3.888l.039-.127c.812-.462 1.661-.868 2.464-1.342a47.04 47.04 0 0 0 6.056-4.281c.457-.382-.145-1.069-.598-.694Zm-11.097-1.216c-.008-.365.185-1.035.606-1.026-.19.411-.388.82-.592 1.223-.005-.066-.012-.133-.014-.197Zm1.161 10.551c-.384-.72.166-1.607.795-2.194a47.014 47.014 0 0 1-.795 2.194Z" fill="#F99746"/><g opacity=".5"><path d="m187.852 13.035 9.275 20.463-34.181 15.491-9.274-20.462 21.727 2.486 12.453-17.978Z" fill="#6683C2"/><path d="m153.672 28.526 34.18-15.493-10.219 17.224a3.795 3.795 0 0 1-3.924 1.8l-20.037-3.53Z" fill="#7D99D6"/></g><g opacity=".5"><path d="m361.167 68.777-6.856 25.692-42.913-11.453 6.856-25.692 18.028 18.573 24.885-7.12Z" fill="#6683C2"/><path d="m318.25 57.324 42.913 11.451-22.274 8.105a4.491 4.491 0 0 1-4.943-1.294L318.25 57.324Z" fill="#7D99D6"/></g><path d="m244.195 15.539 27.844 4.407L253.714 7.04l-1.004 4.032-6.805 1.124-1.71 3.342Z" fill="#AFCDFB"/><path d="M272.038 19.945 248.999 7.618l-22.741-1.493 45.78 13.82Z" fill="#EAEAEA"/><path d="m253.711 7.04 18.325 12.905L258.002 0l-4.291 7.04Z" fill="#EAEAEA"/><path d="M328.507 128.356s-5.677.394-9.867 10.619c-4.228 10.312 5.227 10.21 2.041 16.78-3.185 6.57 4.586 10.489 6.944 15.869 2.36 5.379 14.247 18.355 15.189 24.274.941 5.917 11.511-6.153 11.511-6.153s10.745-11.461 6.892-18.12c-6.35-10.975-.85-13.359-1.049-19.488-.197-6.132-11.831-30.285-31.661-23.781Z" fill="#696B70"/><path d="M325.425 165.035s-21.98 9.581-26.155 9.397c-4.175-.181-29.903-7.836-29.903-7.836l.656 4.426s19.855 11.42 26.797 12.067c6.835.639 30.202-6.134 32.459-7.563 2.253-1.429 2.702-9.043-3.854-10.491Z" fill="#D6A58E"/><path d="M323.656 175.54c2.02 1.401 4.553 2.557 7.733 3.291 11.92 2.754 16.488-7.321 18.203-14.236-1.625-.93-3.155-1.135-4.039-1.24a37.55 37.55 0 0 0-2.517-.206c-1.338-1.024-3.333-5.22-3.774-11.735l-.561.151-9.394 2.571s.431 2.986.642 5.808c.163 2.21.45 3.49.031 4.008-.733.159-1.434 1.092-1.434 1.092s0 .003-.005.008c-.126.204-2.852 4.686-4.885 10.488Z" fill="#E9B49C"/><path d="M329.297 154.138s.432 2.983.642 5.808c5.322-.533 7.791-5.599 8.753-8.38l-9.395 2.572Z" fill="#CC9981"/><path d="M327.707 156.939s12.633-.697 12.078-8.558c-.556-7.861.7-13.244-7.389-13.131-8.089.112-9.442 3.222-9.895 5.891-.452 2.669 1.907 15.776 5.206 15.798Z" fill="#E9B49C"/><path d="M353.188 201.221c1.14-5.831 4.861-29.131 1.14-36.629-1.335-2.694-6.576-2.936-12.328-2.701-1.789 1.156-8.608 5.522-11.409 4.977-.03-.005-.085-.019-.158-.037-1.318-.33-1.555-2.085-.455-2.884.002-.002-3.109.554-6.646 1.22-1.999.375-7.387 3.165-7.387 3.165s2.713 4.901 6.716 6.595c-.68 6.088.332 8.773 6.646 22.832 5.336 11.883-.72 22.584-.72 22.584s31.412 25.255 31.586 12.395c.128-9.681-8.443-24.063-6.985-31.517Z" fill="#68CCEA"/><path d="M327.026 247.804a5.839 5.839 0 0 1-4.201-2.557c-.153-.227-.314-.471-.487-.732-3.574-5.413-4.967-21.989-13.008-39.648-1.959-4.3-8.991-5.072-10.908-9.932 0 0-4.718-15.753 9.032-16.217 13.753-.465 36.83 43.831 37.195 48.476.353 4.499 9.092 23.624-17.623 20.61Z" fill="#364D7F"/><path d="M272.367 247.444h19.573s.732-3.121-.553-5.246c-1.137-1.879-.701-2.95.14-4.506-.886.364-2.033.694-3.296.621-.976-.055-2.008-.498-2.911-1.024-.842.96-4.45 5.049-5.577 5.859-1.278.919-6.983.592-7.376 4.296Z" fill="#293245"/><path d="M351.12 170.701s2.547 23.177-13.974 28.034c-16.521 4.857-21.212-21.325-7.873-23.208 13.341-1.884 21.847-4.826 21.847-4.826Z" fill="#4EB5D4"/><path d="M297.969 183.272c-1.178 8.837-5.781 36.726-13.899 50.331-2.618 4.386 6.594 6.845 6.644 6.833 1.236-.324 3.295-2.293 4.243-3.149 6.592-5.94 19.973-22.762 19.973-36.248 0-6.575.116-19.134-4.667-22.326-2.945-1.964-11.825 1.05-12.294 4.559Z" fill="#364D7F"/><path d="M338.691 247.443s-.725-1.008-1.99-2.927c-1.506-2.281-3.172-6.767-5.193-12.519-2.123-6.037-4.642-13.465-7.79-21.194-.97-2.386-2.003-4.8-3.1-7.212-1.959-4.3-7.349-3.705-9.266-8.565 0 0-7.482-16.848 6.27-17.313 13.753-.466 39.884 45.07 41.386 49.481 1.647 4.827 9.667 24.875-20.317 20.249Z" fill="#6683C2"/><path d="M286.734 247.444h19.573s.732-3.121-.553-5.246c-1.137-1.879-.701-2.95.14-4.506-.886.364-2.033.694-3.296.621-.976-.055-2.007-.498-2.911-1.024-.842.96-4.45 5.049-5.576 5.859-1.279.919-6.984.592-7.377 4.296Z" fill="#273B67"/><path d="M331.516 231.999c-2.123-6.037-4.642-13.465-7.789-21.194.821-5.856 2.595-10.979 5.576-13.043.002-.002 7.235 22.407 2.213 34.237Z" fill="#46619B"/><path d="M309.395 182.645c-1.178 8.836-2.839 37.352-10.958 50.957-2.618 4.386 6.594 6.845 6.644 6.833 1.236-.324 3.295-2.293 4.243-3.149 6.591-5.94 19.973-22.762 19.973-36.248 0-6.575-7.717-18.606-12.498-21.799-2.945-1.963-6.935-.103-7.404 3.406Z" fill="#6683C2"/><path d="M285.165 159.472s-1.002-2.547-2.828-2.382c-1.825.166-18.399 2.382-18.399 2.382s1.929.462 2.657 1.727l7.646 22.53h19.612l-8.688-24.257Z" fill="#EBF3FA"/><path d="M349.583 164.596s-27.781 10.231-31.955 10.022c-2.697-.135-25.123-8.019-25.123-8.019l-2.013 3.809s21.828 14.029 27.828 13.96c11.848-.137 31.838-7.409 34.094-8.839 2.255-1.431 3.726-9.485-2.831-10.933Z" fill="#E9B49C"/><path d="M292.508 166.595s-2.012-3.099-4.018-3.189c-2.005-.091-5.467 1.367-6.651 1.596-1.185.228-4.556 1.322-3.554 2.96 1.002 1.641 5.65 2.006 7.655 1.641 2.005-.365 4.556.801 4.556.801l2.012-3.809Z" fill="#E9B49C"/><path d="M289.035 163.505s-3.187-1.463-4.099-1.736c-.912-.273-.729.005-.455.869.273.863 1.914 1.687 1.914 1.958-.002.27 2.64-1.091 2.64-1.091Z" fill="#E9B49C"/><path d="M325.344 152.418s1.194-.473 4.554-.201c0 0-.178 1.312-2.656 1.441-1.403.075-1.898-1.24-1.898-1.24Z" fill="#fff"/><path d="M335.273 169.638s2.485 7.866 11.019 9.655c0 0 14.091-4.342 7.075-13.941 0 0-6.937-5.155-18.094 4.286Z" fill="#68CCEA"/><path d="M263.938 159.473s-1.841.704-.448 3.093l17.919-2.389s-.623-2.77.785-3.072l-18.256 2.368Z" fill="#fff"/><path d="M270.355 165.354c.426-1.703.398-2.114-.564-3.154-.636-.687-1.611 1.017-2.114 2.045-.185-.453-.5-1.192-.608-1.23-.155-.054.215 2.289.215 2.289-.01.097-.014.195-.01.294l-.002-.002s-.777 3.443 2.609 5.304l-.645-1.899c.394-.065.688-1.917 1.119-3.647Z" fill="#D6A58E"/><path d="M327.236 136.988s2.663-.933 3.954 1.787c1.289 2.72 1.699 9.224 6.869 9.756 5.17.531 5.371-11.017 5.371-11.017l-12.941-5.11-6.833 4.314 3.58.27Z" fill="#696B70"/><path d="M327.234 136.987s-2.916.062-3.582 2.517c-.666 2.455.374 7.036-1.24 7.366-1.615.332-3.082-7.632.041-10.221 3.123-2.588 4.781.338 4.781.338Z" fill="#535761"/><path d="M98.352 94.354s2.919-1.106 3.249-1.869c.332-.763 1.294-1.095 2.455-1.626 1.161-.531 1.859-1.493 2.025-1.36.166.133.199.796-.265 1.294-.465.498-2.433 3.981-3.173 4.38-.743.4-4.291-.819-4.291-.819Z" fill="#E9B49C"/></svg>