<svg width="38" height="73" viewBox="0 0 38 73" fill="none" xmlns="http://www.w3.org/2000/svg">
<mask id="mask0_3009_400" style="mask-type:alpha" maskUnits="userSpaceOnUse" x="0" y="0" width="38" height="73">
<rect width="38" height="73" fill="#D9D9D9"/>
</mask>
<g mask="url(#mask0_3009_400)">
<path d="M25.1135 24.6202C19.7998 24.0733 15.0428 27.9973 14.4882 33.3847C13.9337 38.7721 17.7917 43.5829 23.1054 44.1298C28.419 44.6767 33.1761 40.7527 33.7306 35.3653C34.2851 29.9779 30.4271 25.1671 25.1135 24.6202Z" fill="#F2C45B"/>
<path d="M-5.18191 0.0357745C-16.1044 -1.08846 -25.8825 6.97423 -27.0219 18.0443C-28.1613 29.1144 -20.2306 38.9998 -9.30813 40.1241C1.61434 41.2483 11.3924 33.1856 12.5319 22.1155C13.6713 11.0454 5.74057 1.16001 -5.18191 0.0357745Z" fill="#68CCEA"/>
<path d="M-15.4171 71.1993C-13.9358 56.8077 -1.06844 46.3431 13.3228 47.8243C27.7128 49.3055 38.179 62.1718 36.6977 76.5634C35.2164 90.9547 22.3487 101.42 7.95868 99.9391C-6.43281 98.4575 -16.8983 85.5903 -15.4171 71.1993Z" fill="#7FCBB4"/>
</g>
</svg>
