<svg width="331" height="356" fill="none" xmlns="http://www.w3.org/2000/svg"><path d="M198.723 10.68c-7.174.485-14.401 3.182-19.363 8.36-3.56 3.721-5.772 8.468-7.983 13.106-6.149 13.053-12.406 26.592-12.783 41.047-.378 13.484 4.476 26.591 11.165 38.295 2.535 4.477 5.393 8.9 9.439 12.082 7.551 6.041 17.907 6.958 27.616 7.174 7.767.216 15.534.162 23.301-.162 2.373-.108 4.908-.269 6.688-1.834 1.564-1.348 2.211-3.452 2.751-5.393l7.605-26.43c2.373-8.252 4.747-16.612 4.8-25.188.108-11.543-4.045-22.816-10.302-32.525-10.14-15.588-22.923-29.773-42.934-28.533Z" fill="#3F1A1C"/><path d="M322.079 250.702c-2.158-20.497-25.944-91.694-25.944-91.694l-27.778 11.812 24.164 86.516c3.883 7.389 12.406 10.679 19.471 8.09 5.826-2.157 9.925-8.036 10.087-14.724Z" fill="#F9B09F"/><path opacity=".56" d="m315.93 223.355-33.926-3.721-4.261-15.211c9.816-5.987 24.595-8.414 29.989-9.169 2.805 9.223 5.717 19.04 8.198 28.101Z" fill="#E59886"/><path d="m191.71 689.973-40.561-2.104s-2.373-138.565-7.928-168.716c-5.556-30.098-8.792-130.637-3.183-169.364 4.801-33.333 22.924-86.678 22.924-86.678l62.621 11.111 12.675 2.805L204.17 529.67s3.128 17.045 4.746 34.574c1.565 17.53-17.206 125.729-17.206 125.729Z" fill="#6EB1B5"/><path d="M243.112 246.281s1.726 12.244 3.56 14.725c4.908 6.581 18.446 27.346 26.052 43.474 6.796 14.563 9.007 26.537 11.65 39.967 8.145 42.018 5.502 170.119 5.502 170.119s14.671 27.67 20.604 64.402c5.933 36.731 10.302 97.573 10.302 97.573l-30.259 6.85-61.597-163.161s-29.288-142.881-38.781-161.759c-9.493-18.878-27.4-95.631-27.4-95.631l80.367-16.559Z" fill="#8CC0C3"/><path d="M119.595 235.546c-.432-3.506-.432-6.364 1.78-11.057 1.941-4.099 4.962-9.331 8.252-18.015 0 0 2.104-5.556 10.842-49.515l36.461-5.879c-1.618 11.327-14.401 98.652-33.063 102.266-5.934 1.132-11.165-.917-11.165-.917-6.904-2.697-12.19-9.547-13.107-16.883Z" fill="#F39F87"/><path d="M141.493 229.88c0-2.482-.432-6.257-2.589-9.763-7.444-11.92-27.562-7.012-52.805-13.484-8.576-2.212-20.82-5.988-35.113-12.838-5.826-1.456-9.979-3.883-13.161-5.124-6.634-2.535-13.323-5.07-13.646-5.016-5.124 1.618-3.29-1.025-6.257 2.751-2.967 3.776-13.107 16.451-10.356 21.413 2.75 4.962 30.205 4.477 35.976 6.203a443.369 443.369 0 0 0 54.153 26.052 431.023 431.023 0 0 0 35.006 12.351c1.996.594 4.045-.593 4.531-2.642l4.261-19.903Z" fill="#F9B09F"/><path opacity=".56" d="M128.71 208.739c.27-.701.593-1.456.863-2.265 0 0 1.295-3.345 5.933-25.459 14.132-7.389 34.79-7.012 34.79-7.012s.971.324 2.697 1.025c-5.394 29.774-15.75 75.674-29.18 78.263 7.982-26.105-6.581-39.32-15.103-44.552Z" fill="#DD715F"/><path d="M219.272 115.264c28.479 1.186 37.432.701 44.93 3.182 1.402.486 3.02 1.187 5.124 2.266 15.372 7.928 21.467 22.114 28.533 36.515 18.338 37.325 22.384 47.897 22.384 47.897s-35.923 9.223-41.64 8.522c-4.261-15.966-7.713-23.787-10.41-23.571-5.232.486-7.551 31.554-6.904 93.204-11.812 3.506-29.018 7.12-49.946 6.796-22.762-.377-41.154-5.394-53.236-9.709-.108-17.691-2.535-31.283-4.747-40.507-1.618-6.796-4.585-17.26-4.153-31.715.162-6.095 1.025-15.318 2.643-15.426 1.726-.108 3.829 11.381 5.394 21.629l-33.981-8.522c5.232-29.234 18.824-84.79 51.241-92.773 5.825-1.348 5.339.486 44.768 2.212Z" fill="#FEC757"/><mask id="a" style="mask-type:luminance" maskUnits="userSpaceOnUse" x="123" y="112" width="198" height="179"><path d="M219.272 115.264c28.479 1.186 37.432.701 44.93 3.182 1.402.486 3.02 1.187 5.124 2.266 15.372 7.928 21.467 22.114 28.533 36.515 18.338 37.325 22.384 47.897 22.384 47.897s-35.923 9.223-41.64 8.522c-4.261-15.966-7.713-23.787-10.41-23.571-5.232.486-7.551 31.554-6.904 93.204-11.812 3.506-29.018 7.12-49.946 6.796-22.762-.377-41.154-5.394-53.236-9.709-.108-17.691-2.535-31.283-4.747-40.507-1.618-6.796-4.585-17.26-4.153-31.715.162-6.095 1.025-15.318 2.643-15.426 1.726-.108 3.829 11.381 5.394 21.629l-33.981-8.522c5.232-29.234 18.824-84.79 51.241-92.773 5.825-1.348 5.339.486 44.768 2.212Z" fill="#fff"/></mask><g mask="url(#a)"><path d="M262.634 136.085a5.663 5.663 0 1 1 0-11.327 5.663 5.663 0 0 1 0 11.327Z" fill="#fff"/></g><mask id="b" style="mask-type:luminance" maskUnits="userSpaceOnUse" x="123" y="112" width="198" height="179"><path d="M219.272 115.264c28.479 1.186 37.432.701 44.93 3.182 1.402.486 3.02 1.187 5.124 2.266 15.372 7.928 21.467 22.114 28.533 36.515 18.338 37.325 22.384 47.897 22.384 47.897s-35.923 9.223-41.64 8.522c-4.261-15.966-7.713-23.787-10.41-23.571-5.232.486-7.551 31.554-6.904 93.204-11.812 3.506-29.018 7.12-49.946 6.796-22.762-.377-41.154-5.394-53.236-9.709-.108-17.691-2.535-31.283-4.747-40.507-1.618-6.796-4.585-17.26-4.153-31.715.162-6.095 1.025-15.318 2.643-15.426 1.726-.108 3.829 11.381 5.394 21.629l-33.981-8.522c5.232-29.234 18.824-84.79 51.241-92.773 5.825-1.348 5.339.486 44.768 2.212Z" fill="#fff"/></mask><g mask="url(#b)"><path d="M264.962 180.583a5.663 5.663 0 1 1 0-11.327 5.663 5.663 0 0 1 0 11.327Z" fill="#fff"/></g><mask id="c" style="mask-type:luminance" maskUnits="userSpaceOnUse" x="123" y="112" width="198" height="179"><path d="M219.272 115.264c28.479 1.186 37.432.701 44.93 3.182 1.402.486 3.02 1.187 5.124 2.266 15.372 7.928 21.467 22.114 28.533 36.515 18.338 37.325 22.384 47.897 22.384 47.897s-35.923 9.223-41.64 8.522c-4.261-15.966-7.713-23.787-10.41-23.571-5.232.486-7.551 31.554-6.904 93.204-11.812 3.506-29.018 7.12-49.946 6.796-22.762-.377-41.154-5.394-53.236-9.709-.108-17.691-2.535-31.283-4.747-40.507-1.618-6.796-4.585-17.26-4.153-31.715.162-6.095 1.025-15.318 2.643-15.426 1.726-.108 3.829 11.381 5.394 21.629l-33.981-8.522c5.232-29.234 18.824-84.79 51.241-92.773 5.825-1.348 5.339.486 44.768 2.212Z" fill="#fff"/></mask><g mask="url(#c)"><path d="M221.697 165.157a5.664 5.664 0 1 1 0-11.328 5.664 5.664 0 0 1 0 11.328Z" fill="#fff"/></g><mask id="d" style="mask-type:luminance" maskUnits="userSpaceOnUse" x="123" y="112" width="198" height="179"><path d="M219.272 115.264c28.479 1.186 37.432.701 44.93 3.182 1.402.486 3.02 1.187 5.124 2.266 15.372 7.928 21.467 22.114 28.533 36.515 18.338 37.325 22.384 47.897 22.384 47.897s-35.923 9.223-41.64 8.522c-4.261-15.966-7.713-23.787-10.41-23.571-5.232.486-7.551 31.554-6.904 93.204-11.812 3.506-29.018 7.12-49.946 6.796-22.762-.377-41.154-5.394-53.236-9.709-.108-17.691-2.535-31.283-4.747-40.507-1.618-6.796-4.585-17.26-4.153-31.715.162-6.095 1.025-15.318 2.643-15.426 1.726-.108 3.829 11.381 5.394 21.629l-33.981-8.522c5.232-29.234 18.824-84.79 51.241-92.773 5.825-1.348 5.339.486 44.768 2.212Z" fill="#fff"/></mask><g mask="url(#d)"><path d="M309.775 194.981a5.663 5.663 0 1 1-.001-11.327 5.663 5.663 0 0 1 .001 11.327Z" fill="#fff"/></g><mask id="e" style="mask-type:luminance" maskUnits="userSpaceOnUse" x="123" y="112" width="198" height="179"><path d="M219.272 115.264c28.479 1.186 37.432.701 44.93 3.182 1.402.486 3.02 1.187 5.124 2.266 15.372 7.928 21.467 22.114 28.533 36.515 18.338 37.325 22.384 47.897 22.384 47.897s-35.923 9.223-41.64 8.522c-4.261-15.966-7.713-23.787-10.41-23.571-5.232.486-7.551 31.554-6.904 93.204-11.812 3.506-29.018 7.12-49.946 6.796-22.762-.377-41.154-5.394-53.236-9.709-.108-17.691-2.535-31.283-4.747-40.507-1.618-6.796-4.585-17.26-4.153-31.715.162-6.095 1.025-15.318 2.643-15.426 1.726-.108 3.829 11.381 5.394 21.629l-33.981-8.522c5.232-29.234 18.824-84.79 51.241-92.773 5.825-1.348 5.339.486 44.768 2.212Z" fill="#fff"/></mask><g mask="url(#e)"><path d="M187.665 193.149a5.663 5.663 0 1 1 0-11.327 5.663 5.663 0 0 1 0 11.327Z" fill="#fff"/></g><mask id="f" style="mask-type:luminance" maskUnits="userSpaceOnUse" x="123" y="112" width="198" height="179"><path d="M219.272 115.264c28.479 1.186 37.432.701 44.93 3.182 1.402.486 3.02 1.187 5.124 2.266 15.372 7.928 21.467 22.114 28.533 36.515 18.338 37.325 22.384 47.897 22.384 47.897s-35.923 9.223-41.64 8.522c-4.261-15.966-7.713-23.787-10.41-23.571-5.232.486-7.551 31.554-6.904 93.204-11.812 3.506-29.018 7.12-49.946 6.796-22.762-.377-41.154-5.394-53.236-9.709-.108-17.691-2.535-31.283-4.747-40.507-1.618-6.796-4.585-17.26-4.153-31.715.162-6.095 1.025-15.318 2.643-15.426 1.726-.108 3.829 11.381 5.394 21.629l-33.981-8.522c5.232-29.234 18.824-84.79 51.241-92.773 5.825-1.348 5.339.486 44.768 2.212Z" fill="#fff"/></mask><g mask="url(#f)"><path d="M173.103 148.003a5.664 5.664 0 1 1 0-11.328 5.664 5.664 0 0 1 0 11.328Z" fill="#fff"/></g><mask id="g" style="mask-type:luminance" maskUnits="userSpaceOnUse" x="123" y="112" width="198" height="179"><path d="M219.272 115.264c28.479 1.186 37.432.701 44.93 3.182 1.402.486 3.02 1.187 5.124 2.266 15.372 7.928 21.467 22.114 28.533 36.515 18.338 37.325 22.384 47.897 22.384 47.897s-35.923 9.223-41.64 8.522c-4.261-15.966-7.713-23.787-10.41-23.571-5.232.486-7.551 31.554-6.904 93.204-11.812 3.506-29.018 7.12-49.946 6.796-22.762-.377-41.154-5.394-53.236-9.709-.108-17.691-2.535-31.283-4.747-40.507-1.618-6.796-4.585-17.26-4.153-31.715.162-6.095 1.025-15.318 2.643-15.426 1.726-.108 3.829 11.381 5.394 21.629l-33.981-8.522c5.232-29.234 18.824-84.79 51.241-92.773 5.825-1.348 5.339.486 44.768 2.212Z" fill="#fff"/></mask><g mask="url(#g)"><path d="M147.165 174.596a5.662 5.662 0 1 1 0-11.326 5.663 5.663 0 1 1 0 11.326Z" fill="#fff"/></g><mask id="h" style="mask-type:luminance" maskUnits="userSpaceOnUse" x="123" y="112" width="198" height="179"><path d="M219.272 115.264c28.479 1.186 37.432.701 44.93 3.182 1.402.486 3.02 1.187 5.124 2.266 15.372 7.928 21.467 22.114 28.533 36.515 18.338 37.325 22.384 47.897 22.384 47.897s-35.923 9.223-41.64 8.522c-4.261-15.966-7.713-23.787-10.41-23.571-5.232.486-7.551 31.554-6.904 93.204-11.812 3.506-29.018 7.12-49.946 6.796-22.762-.377-41.154-5.394-53.236-9.709-.108-17.691-2.535-31.283-4.747-40.507-1.618-6.796-4.585-17.26-4.153-31.715.162-6.095 1.025-15.318 2.643-15.426 1.726-.108 3.829 11.381 5.394 21.629l-33.981-8.522c5.232-29.234 18.824-84.79 51.241-92.773 5.825-1.348 5.339.486 44.768 2.212Z" fill="#fff"/></mask><g mask="url(#h)"><path d="M188.314 120.817a5.664 5.664 0 1 1 0-11.328 5.664 5.664 0 0 1 0 11.328Z" fill="#fff"/></g><mask id="i" style="mask-type:luminance" maskUnits="userSpaceOnUse" x="123" y="112" width="198" height="179"><path d="M219.272 115.264c28.479 1.186 37.432.701 44.93 3.182 1.402.486 3.02 1.187 5.124 2.266 15.372 7.928 21.467 22.114 28.533 36.515 18.338 37.325 22.384 47.897 22.384 47.897s-35.923 9.223-41.64 8.522c-4.261-15.966-7.713-23.787-10.41-23.571-5.232.486-7.551 31.554-6.904 93.204-11.812 3.506-29.018 7.12-49.946 6.796-22.762-.377-41.154-5.394-53.236-9.709-.108-17.691-2.535-31.283-4.747-40.507-1.618-6.796-4.585-17.26-4.153-31.715.162-6.095 1.025-15.318 2.643-15.426 1.726-.108 3.829 11.381 5.394 21.629l-33.981-8.522c5.232-29.234 18.824-84.79 51.241-92.773 5.825-1.348 5.339.486 44.768 2.212Z" fill="#fff"/></mask><g mask="url(#i)"><path d="M153.845 212.622a5.663 5.663 0 1 1 0-11.327 5.663 5.663 0 0 1 0 11.327Z" fill="#fff"/></g><mask id="j" style="mask-type:luminance" maskUnits="userSpaceOnUse" x="123" y="112" width="198" height="179"><path d="M219.272 115.264c28.479 1.186 37.432.701 44.93 3.182 1.402.486 3.02 1.187 5.124 2.266 15.372 7.928 21.467 22.114 28.533 36.515 18.338 37.325 22.384 47.897 22.384 47.897s-35.923 9.223-41.64 8.522c-4.261-15.966-7.713-23.787-10.41-23.571-5.232.486-7.551 31.554-6.904 93.204-11.812 3.506-29.018 7.12-49.946 6.796-22.762-.377-41.154-5.394-53.236-9.709-.108-17.691-2.535-31.283-4.747-40.507-1.618-6.796-4.585-17.26-4.153-31.715.162-6.095 1.025-15.318 2.643-15.426 1.726-.108 3.829 11.381 5.394 21.629l-33.981-8.522c5.232-29.234 18.824-84.79 51.241-92.773 5.825-1.348 5.339.486 44.768 2.212Z" fill="#fff"/></mask><g mask="url(#j)"><path d="M182.595 234.95a5.663 5.663 0 1 1 0-11.327 5.663 5.663 0 0 1 0 11.327Z" fill="#fff"/></g><mask id="k" style="mask-type:luminance" maskUnits="userSpaceOnUse" x="123" y="112" width="198" height="179"><path d="M219.272 115.264c28.479 1.186 37.432.701 44.93 3.182 1.402.486 3.02 1.187 5.124 2.266 15.372 7.928 21.467 22.114 28.533 36.515 18.338 37.325 22.384 47.897 22.384 47.897s-35.923 9.223-41.64 8.522c-4.261-15.966-7.713-23.787-10.41-23.571-5.232.486-7.551 31.554-6.904 93.204-11.812 3.506-29.018 7.12-49.946 6.796-22.762-.377-41.154-5.394-53.236-9.709-.108-17.691-2.535-31.283-4.747-40.507-1.618-6.796-4.585-17.26-4.153-31.715.162-6.095 1.025-15.318 2.643-15.426 1.726-.108 3.829 11.381 5.394 21.629l-33.981-8.522c5.232-29.234 18.824-84.79 51.241-92.773 5.825-1.348 5.339.486 44.768 2.212Z" fill="#fff"/></mask><g mask="url(#k)"><path d="M160.103 263.917a5.664 5.664 0 1 1 0-11.328 5.664 5.664 0 0 1 0 11.328Z" fill="#fff"/></g><mask id="l" style="mask-type:luminance" maskUnits="userSpaceOnUse" x="123" y="112" width="198" height="179"><path d="M219.272 115.264c28.479 1.186 37.432.701 44.93 3.182 1.402.486 3.02 1.187 5.124 2.266 15.372 7.928 21.467 22.114 28.533 36.515 18.338 37.325 22.384 47.897 22.384 47.897s-35.923 9.223-41.64 8.522c-4.261-15.966-7.713-23.787-10.41-23.571-5.232.486-7.551 31.554-6.904 93.204-11.812 3.506-29.018 7.12-49.946 6.796-22.762-.377-41.154-5.394-53.236-9.709-.108-17.691-2.535-31.283-4.747-40.507-1.618-6.796-4.585-17.26-4.153-31.715.162-6.095 1.025-15.318 2.643-15.426 1.726-.108 3.829 11.381 5.394 21.629l-33.981-8.522c5.232-29.234 18.824-84.79 51.241-92.773 5.825-1.348 5.339.486 44.768 2.212Z" fill="#fff"/></mask><g mask="url(#l)"><path d="M213.447 289.104a5.663 5.663 0 1 1-.001-11.327 5.663 5.663 0 0 1 .001 11.327Z" fill="#fff"/></g><mask id="m" style="mask-type:luminance" maskUnits="userSpaceOnUse" x="123" y="112" width="198" height="179"><path d="M219.272 115.264c28.479 1.186 37.432.701 44.93 3.182 1.402.486 3.02 1.187 5.124 2.266 15.372 7.928 21.467 22.114 28.533 36.515 18.338 37.325 22.384 47.897 22.384 47.897s-35.923 9.223-41.64 8.522c-4.261-15.966-7.713-23.787-10.41-23.571-5.232.486-7.551 31.554-6.904 93.204-11.812 3.506-29.018 7.12-49.946 6.796-22.762-.377-41.154-5.394-53.236-9.709-.108-17.691-2.535-31.283-4.747-40.507-1.618-6.796-4.585-17.26-4.153-31.715.162-6.095 1.025-15.318 2.643-15.426 1.726-.108 3.829 11.381 5.394 21.629l-33.981-8.522c5.232-29.234 18.824-84.79 51.241-92.773 5.825-1.348 5.339.486 44.768 2.212Z" fill="#fff"/></mask><g mask="url(#m)"><path d="M260.697 282.794a5.664 5.664 0 1 1 0-11.328 5.664 5.664 0 0 1 0 11.328Z" fill="#fff"/></g><mask id="n" style="mask-type:luminance" maskUnits="userSpaceOnUse" x="41" y="198" width="181" height="195"><path d="M217.169 278.618c3.377 28.304 5.286 37.066 4.034 44.863-.255 1.462-.689 3.172-1.418 5.421-5.372 16.441-18.403 24.724-31.492 33.999-33.918 24.065-43.708 29.746-43.708 29.746s-14.842-33.989-15.063-39.745c15.081-6.757 22.25-11.413 21.606-14.041-1.314-5.088-32.355-2.416-93.113 8.069-5.348-11.101-11.663-27.51-14.686-48.222-3.262-22.53-1.247-41.489 1.083-54.105 17.448-2.932 30.478-7.499 39.23-11.155 6.451-2.683 16.307-7.282 30.647-9.165 6.042-.813 15.285-1.434 15.65.146.382 1.687-10.623 5.598-20.49 8.779l2.986-34.907c29.695.496 86.711 5.042 99.768 35.769 2.261 5.535.374 5.349 4.966 44.548Z" fill="#fff"/></mask><g mask="url(#n)"><path d="M116.695 196.626a5.663 5.663 0 1 1 11.182-1.808 5.663 5.663 0 0 1-11.182 1.808Z" fill="#fff"/></g><mask id="o" style="mask-type:luminance" maskUnits="userSpaceOnUse" x="123" y="112" width="198" height="179"><path d="M219.272 115.264c28.479 1.186 37.432.701 44.93 3.182 1.402.486 3.02 1.187 5.124 2.266 15.372 7.928 21.467 22.114 28.533 36.515 18.338 37.325 22.384 47.897 22.384 47.897s-35.923 9.223-41.64 8.522c-4.261-15.966-7.713-23.787-10.41-23.571-5.232.486-7.551 31.554-6.904 93.204-11.812 3.506-29.018 7.12-49.946 6.796-22.762-.377-41.154-5.394-53.236-9.709-.108-17.691-2.535-31.283-4.747-40.507-1.618-6.796-4.585-17.26-4.153-31.715.162-6.095 1.025-15.318 2.643-15.426 1.726-.108 3.829 11.381 5.394 21.629l-33.981-8.522c5.232-29.234 18.824-84.79 51.241-92.773 5.825-1.348 5.339.486 44.768 2.212Z" fill="#fff"/></mask><g mask="url(#o)"><path d="M140.634 144.497a5.663 5.663 0 1 1 0-11.327 5.663 5.663 0 0 1 0 11.327Z" fill="#fff"/></g><mask id="p" style="mask-type:luminance" maskUnits="userSpaceOnUse" x="123" y="112" width="198" height="179"><path d="M219.272 115.264c28.479 1.186 37.432.701 44.93 3.182 1.402.486 3.02 1.187 5.124 2.266 15.372 7.928 21.467 22.114 28.533 36.515 18.338 37.325 22.384 47.897 22.384 47.897s-35.923 9.223-41.64 8.522c-4.261-15.966-7.713-23.787-10.41-23.571-5.232.486-7.551 31.554-6.904 93.204-11.812 3.506-29.018 7.12-49.946 6.796-22.762-.377-41.154-5.394-53.236-9.709-.108-17.691-2.535-31.283-4.747-40.507-1.618-6.796-4.585-17.26-4.153-31.715.162-6.095 1.025-15.318 2.643-15.426 1.726-.108 3.829 11.381 5.394 21.629l-33.981-8.522c5.232-29.234 18.824-84.79 51.241-92.773 5.825-1.348 5.339.486 44.768 2.212Z" fill="#fff"/></mask><g mask="url(#p)"><path d="M293.439 151.079a5.664 5.664 0 1 1 0-11.328 5.664 5.664 0 0 1 0 11.328Z" fill="#fff"/></g><path d="M220.305 85.439s1.024 23.786 4.045 32.524c3.02 8.738-6.365 40.507-25.297 45.145-18.986 4.639-.323-37.756-.647-46.979-.324-9.223-6.418-36.516-6.418-36.516l28.317 5.826Z" fill="#F9B09F"/><path d="M194.896 93.42a1180.481 1180.481 0 0 0-2.859-13.754l28.317 5.771s.216 4.855.701 11.004c-10.625 4.908-19.687 2.696-26.159-3.02Z" fill="#E59886"/><path opacity=".56" d="M213.563 152.859c-1.942 2.104-4.099 4.1-6.418 5.718-2.32 1.618-4.855 2.858-7.552 3.56-1.348.323-2.697.539-3.937.377-1.241-.162-2.212-.755-2.859-1.78-.647-1.025-.971-2.319-1.133-3.614-.161-1.348-.107-2.75-.053-4.153.161-2.805.647-5.609 1.186-8.414.54-2.805 1.187-5.61 1.834-8.414.647-2.805 1.348-5.61 1.942-8.414.593-2.805 1.24-5.664 1.51-8.577-.755 2.805-1.672 5.502-2.535 8.253-.863 2.751-1.78 5.501-2.535 8.252-1.618 5.556-3.128 11.219-3.506 17.098-.108 1.457-.108 2.967.108 4.531.216 1.51.539 3.129 1.51 4.531.486.701 1.133 1.348 1.888 1.78.755.431 1.618.647 2.427.755 1.672.162 3.182-.216 4.585-.647a22.608 22.608 0 0 0 7.713-4.315 27.814 27.814 0 0 0 5.825-6.527Z" fill="#E59886"/><path d="m11.828 194.605 22.33 6.635c2.805.809 5.772-.647 6.85-3.29 0 .593-.054 1.24-.215 1.833-.863 2.967-4.046 4.693-7.012 3.83l-11.759 1.241c-1.294-.108-5.717-.54-9.007-4.1-1.295-1.402-2.05-2.912-2.481-3.991l1.294-2.158Z" fill="#E59886"/><path d="M12.155 187.055s-4.693 19.957 1.726 22.384c7.12 2.697 13.484 2.32 12.675.594-.863-1.726-9.062-7.12-9.062-7.12s.432-7.821-.7-11.057c-1.187-3.344-2.536-6.527-4.64-4.801Z" fill="#F9B09F"/><path d="M17.596 189.536s10.302-2.157 10.032-3.452c-.216-1.294-3.506-2.427-3.506-2.427s-16.289-.593-14.617 2.589c1.672 3.128 8.09 3.29 8.09 3.29Z" fill="#F9B09F"/><path d="M6.706 197.358s1.349-12.514 3.452-10.141c2.535 2.859 3.183 15.912.378 17.854-2.805 1.995-4.693-.701-3.83-7.713Z" fill="#F9B09F"/><path d="M1.798 200.918S-1.438 187.38.773 186.571c.27-.108.54 0 .81.162 2.858 1.51 3.667 5.717 5.555 11.057 2.373 6.634 4.26 8.899 2.912 11.111-.054.054-1.025 1.564-8.252-7.983Z" fill="#F9B09F"/><path d="M224.774 45.738c1.942 14.024 7.659 28.21 3.236 41.532-1.294 3.992-3.452 7.605-5.016 11.489a39.142 39.142 0 0 0-2.697 11.866c-.377 5.178.971 11.381 5.718 13.485 3.667 1.618 7.875.107 11.542-1.511 5.664-2.535 11.597-5.447 17.746-4.746 3.236.377 8.036 2.319 11.057.377 2.913-1.834 4.746-7.227 5.34-10.41.755-4.315-.162-8.953-2.913-12.351-.917-1.133-2.049-2.266-2.049-3.668 0-1.349 1.132-2.481 1.402-3.83.755-3.182-2.913-5.501-4.585-8.36-2.157-3.614-.971-8.144-.647-12.298.539-7.497-3.021-12.945-5.016-19.74-1.888-6.527-5.772-12.46-10.842-16.883-6.041-5.286-20.28-11.759-22.384.863-.755 4.638-.539 9.385.108 14.185Z" fill="#552728"/><path d="M268.733 118.392c.971-.701 1.726-1.618 2.319-2.643a18.687 18.687 0 0 0 1.456-3.182c.809-2.212 1.349-4.531 1.349-6.796.054-2.32-.378-4.639-1.349-6.689a16.132 16.132 0 0 0-1.78-2.912c-.701-.863-1.618-1.726-2.157-3.075-.27-.647-.27-1.456-.054-2.103.216-.648.485-1.24.755-1.726.27-.54.485-.971.539-1.457.108-.485.054-.97-.107-1.402a5.68 5.68 0 0 0-.702-1.402c-.323-.432-.647-.917-1.024-1.349-.756-.863-1.565-1.726-2.32-2.75a9.354 9.354 0 0 1-1.564-3.507c-.27-1.24-.324-2.48-.27-3.721.108-2.427.54-4.8.594-7.066.054-2.265-.27-4.53-.863-6.742-.594-2.212-1.457-4.423-2.32-6.634a62.816 62.816 0 0 1-1.186-3.398c-.162-.594-.378-1.133-.54-1.727-.161-.539-.323-1.132-.485-1.672a39.297 39.297 0 0 0-2.805-6.364c-1.133-1.996-2.481-3.938-4.045-5.664-1.51-1.78-3.182-3.398-5.07-4.8a32.336 32.336 0 0 0-6.041-3.56 18.817 18.817 0 0 0-3.344-1.133c-1.133-.27-2.32-.485-3.506-.485 2.373-.162 4.746.378 6.958 1.24 2.211.864 4.369 1.942 6.364 3.29 3.992 2.697 7.228 6.365 9.709 10.518.647 1.025 1.187 2.104 1.726 3.183.539 1.078.971 2.211 1.348 3.344.216.593.378 1.133.54 1.726.162.54.323 1.133.539 1.672a81.644 81.644 0 0 0 1.241 3.29c.863 2.212 1.726 4.423 2.373 6.742.647 2.32 1.025 4.8.971 7.228-.108 2.481-.54 4.8-.647 7.066-.108 2.265.215 4.477 1.456 6.257.647.916 1.402 1.78 2.211 2.696.378.486.755.971 1.133 1.51.324.54.647 1.133.863 1.78.216.648.27 1.403.108 2.05-.108.701-.432 1.295-.701 1.834-.27.54-.54 1.025-.701 1.51-.162.486-.162.917 0 1.349.323.917 1.132 1.78 1.887 2.75.755.971 1.349 2.05 1.834 3.183a16.319 16.319 0 0 1 1.133 7.174c-.162 2.427-.863 4.746-1.78 6.958-.485 1.078-1.025 2.157-1.672 3.182-.539.917-1.349 1.834-2.373 2.427Z" fill="#552728"/><path d="M150.777 109.817c-1.294-1.457-2.373-3.075-3.29-4.801a38.942 38.942 0 0 1-2.319-5.34 16.265 16.265 0 0 1-.917-5.825c.054-1.942.323-3.937.971-5.825 1.294-3.776 3.883-6.85 5.231-10.356.702-1.78 1.133-3.614 1.187-5.502.054-1.888 0-3.83-.431-5.61-.216-.916-.594-1.725-.971-2.642-.378-.917-.702-1.888-.863-2.913-.216-.97-.324-1.995-.378-2.966-.054-.971-.108-1.942-.162-2.967-.108-3.937.432-7.929 1.834-11.704a25 25 0 0 1 2.751-5.34c1.079-1.672 2.319-3.236 3.884-4.585.755-.7 1.618-1.294 2.427-1.78.809-.54 1.564-1.024 2.319-1.618 1.456-1.186 2.697-2.589 3.883-4.045a21.582 21.582 0 0 0 2.913-4.747c.755-1.726 1.241-3.506 1.726-5.393.486-1.888 1.133-3.884 2.265-5.61a16.95 16.95 0 0 1 1.942-2.373l1.133-1.025 1.187-.917c1.672-1.133 3.398-2.103 5.285-2.859.432-.215.917-.377 1.403-.539.485-.162.917-.324 1.402-.485.971-.27 1.888-.54 2.859-.755a54.661 54.661 0 0 1 5.825-.971A53.696 53.696 0 0 1 199.752 0c3.938 0 7.875.431 11.651 1.402 3.775.971 7.497 2.428 10.895 4.37 3.398 1.941 6.581 4.206 9.331 7.011 1.349 1.403 2.643 2.913 3.56 4.639.486.863.917 1.726 1.133 2.697.216.917.216 1.995-.378 2.804.54-.809.486-1.887.27-2.804-.27-.917-.701-1.78-1.187-2.59-1.024-1.617-2.319-3.074-3.667-4.422-2.751-2.697-5.987-4.855-9.385-6.634-3.399-1.78-7.012-3.183-10.734-4.046a44.822 44.822 0 0 0-11.381-1.133c-3.829.054-7.659.594-11.381 1.457-.917.216-1.834.485-2.75.755-.432.162-.917.324-1.349.485-.431.162-.917.324-1.348.54-1.78.7-3.398 1.672-4.909 2.697l-1.132.863-1.025.97a12.777 12.777 0 0 0-1.726 2.104c-1.025 1.51-1.564 3.29-2.05 5.124-.485 1.834-.971 3.83-1.78 5.664-.809 1.833-1.834 3.613-3.128 5.124-1.241 1.564-2.589 3.02-4.153 4.315-.809.647-1.618 1.186-2.481 1.726a17.2 17.2 0 0 0-2.266 1.618 22.923 22.923 0 0 0-3.614 4.26c-1.024 1.565-1.941 3.237-2.589 5.017-1.348 3.506-1.887 7.336-1.833 11.111.054 1.888.107 3.83.431 5.663.162.918.432 1.78.755 2.697.324.863.701 1.834.971 2.805.486 1.996.485 3.992.378 5.987-.108 1.996-.594 3.992-1.349 5.826-1.51 3.721-4.153 6.688-5.448 10.248-.647 1.78-.97 3.667-1.132 5.555-.108 1.888.162 3.83.701 5.664.593 1.833 1.241 3.667 2.104 5.393.809 1.672 1.78 3.344 3.02 4.855Z" fill="#552728"/><path d="M212.586 25.298c-4.153-1.132-7.282-2.697-10.895-1.618-.809.216-3.614 1.942-9.224 5.34-.647.378-1.402.97-2.589 1.51-2.319 1.079-3.721 1.079-5.393 2.697-2.751 2.643-.162 4.962-1.511 11.597-.755 3.614-1.456 3.02-2.103 6.31-.216 1.133-.917 5.178 1.348 13.7 1.834 6.797 2.697 5.664 2.751 8.145.27 9.277-12.136 21.198-12.136 24.434 0 .863.054 1.402.162 1.888 0 0 .216 1.186.701 2.373 1.564 3.506 11.273 14.833 8.954 17.853-2.481 3.29-22.169.971-30.205-7.929-1.726-1.941-4.1-5.933-5.61-10.949-.485-1.564-.701-3.344-.593-5.556.593-10.356 8.198-12.136 7.659-23.624-.27-5.825-2.211-5.232-2.643-12.19-.216-4.315-.593-13.377 6.257-21.467 3.56-4.207 4.8-3.075 9.007-7.551 8.091-8.63 4.639-13.97 10.195-19.796 6.904-7.173 21.251-9.007 31.229-7.767 19.256 2.374 32.956 17.422 29.72 21.953-2.211 3.128-15.534 3.236-25.081.647Z" fill="#552728"/><path d="M173.427 58.2c2.049 4.8 6.041 7.712 8.791 6.526 2.805-1.187 3.399-6.095 1.295-10.896-2.05-4.8-6.041-7.713-8.792-6.526-2.751 1.186-3.344 6.095-1.294 10.895Z" fill="#F9B09F"/><path d="m184.54 78.049-12.028.7 1.402-10.247 6.796-.162 3.83 9.709ZM179.197 64.402c-.216 1.402-1.564 2.373-3.02 2.158-1.403-.216-2.374-1.565-2.158-3.02.216-1.403 1.564-2.374 3.021-2.158 1.402.215 2.373 1.564 2.157 3.02Z" fill="#F2C45B"/><path d="m178.355 65.623.075 5.123-2.966.043-.075-5.123 2.966-.043Z" fill="#CB7E5D"/><path d="M214.634 20.441s11.111 3.075 17.53 14.024c10.625 18.177 3.29 45.577-13.97 55.772-1.726 1.024-12.676 7.443-23.247 3.182-14.402-5.825-16.02-26.591-16.343-31.338-.486-5.717-1.295-29.504 36.03-41.64Z" fill="#F9B09F"/><path d="M231.248 60.734c-1.51 5.286.108 10.356 3.668 11.38 3.559 1.026 7.659-2.373 9.223-7.658 1.51-5.286-.108-10.356-3.668-11.381-3.56-1.025-7.659 2.373-9.223 7.659Z" fill="#F9B09F"/><path d="M197.213 71.142h6.85v-.755h-5.987l3.128-23.3-.701-.109-3.29 24.164Z" fill="#DD715F"/><path opacity=".56" d="M218.084 75.51a5.448 5.448 0 1 1 0-10.895 5.448 5.448 0 0 1 0 10.896ZM185.772 73.73a5.448 5.448 0 1 1 0-10.896 5.448 5.448 0 0 1 0 10.895Z" fill="#DD715F"/><path d="M210.266 78.965c-1.348.701-2.643 1.24-3.937 1.618a16.25 16.25 0 0 1-3.884.647c-1.294.054-2.589-.108-3.937-.377a24.882 24.882 0 0 1-3.992-1.349c.81 1.295 1.996 2.32 3.399 3.02 1.402.702 3.02 1.025 4.584.972a10.363 10.363 0 0 0 4.531-1.241c1.348-.863 2.535-1.942 3.236-3.29Z" fill="#DD715F"/><path d="M185.775 55.987c0 1.995 1.024 3.614 2.265 3.614 1.24 0 2.265-1.618 2.265-3.614 0-1.996-1.025-3.614-2.265-3.614-1.241 0-2.265 1.618-2.265 3.614ZM210.751 57.12c0 1.995 1.025 3.614 2.265 3.614 1.241 0 2.266-1.619 2.266-3.614 0-1.996-1.025-3.614-2.266-3.614-1.24 0-2.265 1.618-2.265 3.614Z" fill="#231F20"/><path d="M224.834 48.489c-3.83-1.726-8.307-2.643-12.676-2.535-.917 0-1.618.593-1.51 1.24.108.702.971 1.241 1.888 1.187h.108c3.668-.216 7.551.378 11.003 1.726.701.27 1.51.108 1.78-.377.27-.378 0-.971-.593-1.241ZM185.566 47.305c1.51-.27 3.074-.377 4.585-.27 1.564.108 3.074.432 4.476.918.756.27 1.619 0 1.888-.594.27-.593-.108-1.294-.863-1.564h-.054c-1.78-.54-3.613-.81-5.447-.863a19.318 19.318 0 0 0-5.34.593c-.593.162-.917.702-.701 1.187.269.431.863.701 1.456.593Z" fill="#552728"/><path d="M188.909 44.928c4.692 0 8.63 3.236 9.655 7.605H205.252c.054 0 .162.054.216.054a9.961 9.961 0 0 1 9.708-7.66c4.477 0 8.307 3.021 9.547 7.12h.054l11.651.54c.215 0 .377.162.377.377a.369.369 0 0 1-.377.378l-11.543-.486c.162.702.216 1.403.216 2.158 0 5.502-4.477 9.979-9.979 9.979-5.501 0-9.978-4.477-9.978-9.979 0-.54.054-1.133.162-1.672h-6.581c.108.54.162 1.079.162 1.618 0 5.502-4.477 9.979-9.978 9.979-5.502 0-9.979-4.477-9.979-9.979 0-5.556 4.477-10.032 9.979-10.032Zm26.267 19.201c5.07 0 9.224-4.153 9.224-9.223 0-5.07-4.154-9.223-9.224-9.223s-9.223 4.153-9.223 9.223c0 5.07 4.153 9.223 9.223 9.223Zm-26.267 0c5.07 0 9.223-4.153 9.223-9.223 0-5.07-4.153-9.223-9.223-9.223-5.07 0-9.224 4.153-9.224 9.223 0 5.07 4.154 9.223 9.224 9.223Z" fill="#fff"/><path d="m245.43 84.142-12.082.648 1.403-10.249 6.796-.107 3.883 9.708ZM240.034 70.443c-.216 1.403-1.564 2.373-3.021 2.158-1.402-.216-2.373-1.565-2.157-3.02.215-1.403 1.564-2.374 3.02-2.158 1.457.27 2.427 1.618 2.158 3.02Z" fill="#F2C45B"/><path d="m239.246 71.683.075 5.124-2.966.043-.075-5.124 2.966-.043Z" fill="#CB7E5D"/><path d="M197.323 29.344c-11.273 3.667-11.488 20.873-20.604 21.305-3.128.162-5.825-1.78-7.551-3.452 7.929-9.008 11.597-15.534 13.484-19.903.594-1.294 1.888-4.369 4.909-7.227 2.481-2.32 5.771-3.668 9.061-4.531 6.527-1.78 13.538-2.104 19.957.108 6.85 2.373 13.215 9.061 12.028 12.19-.431 1.132-1.834 1.618-2.697 1.887-10.895 3.129-20.334-3.074-28.587-.377Z" fill="#552728"/><path d="M227.582 24.217s1.295 25.027 8.846 28.694c7.551 3.668 7.551-17.96 6.203-19.363-1.402-1.456-15.049-9.331-15.049-9.331Z" fill="#552728"/><path d="m177.53 261.812 69.472 12.406c2.049.377 4.099-.756 4.908-2.697l34.466-86.624c1.618-4.099-.917-8.738-5.286-9.493l-66.343-11.812c-2.049-.378-4.099.755-4.908 2.697l-35.653 89.482c-1.025 2.643.594 5.502 3.344 6.041Z" fill="#35886F"/><path d="m284.33 177.128 7.389 6.473-78.964-14.671-1.564-4.477 73.139 12.675Z" fill="#fff"/><path d="m213.184 164.402 7.713 4.531 2.643 54.747-40.939 43.311-7.821-5.987c-1.186-.917-1.672-2.535-1.133-3.937l35.653-91.316c.647-1.565 2.481-2.158 3.884-1.349Z" fill="#7FCBB4"/><path d="m182.601 266.99 73.571 13.107c1.348.216 2.643-.486 3.128-1.726l36.192-92.719c.648-1.672-.377-3.506-2.103-3.775l-72.492-12.945-38.296 98.058Z" fill="#5EAF97"/><path d="M168.843 232.956c1.025-.54 2.481.539 3.668 2.265.485.701.701 1.564 1.186 2.319.594.917 1.295 1.511 1.78 1.996.54.485 1.187 1.079 2.05 1.618l-2.05-1.618c-4.315-6.311-8.63-12.891-8.036-13.323h.053c.432-.053 2.05.27 4.585 2.212.647.539 1.51 1.996 2.319 2.697.594.539 1.457 1.079 2.158 1.78.755.755 1.241 1.834 1.996 2.589 1.186 1.132 2.75 1.618 3.721 2.319 3.83 2.967 6.796 4.045 5.61 2.805-1.834-1.834-9.331-4.585-15.318-13.053-.971-1.402-1.349-2.373-.756-2.535.486-.108 2.212-.054 3.776 1.025 1.025.755 1.672 2.265 3.021 3.236.809.593 1.833.917 2.696 1.51 3.345 2.319 1.619 3.398 14.671 5.556-.539-1.187-1.348-2.266-1.779-2.805-.81-.917-8.415-5.34-6.743-6.958 1.672-1.564 19.202 7.551 19.202 7.551l9.925 7.605c13.484 1.025 24.11.108 31.229-.916 15.696-2.212 27.562-6.743 46.009-4.477 3.075.377 5.502.809 7.066 1.132l6.634 28.749c-13.916-.971-74.865-5.717-91.1-7.12-13.053.324-21.359-1.672-27.347-4.476l-6.364-1.079c-2.319-1.187-4.423-2.373-6.581-3.236 0 0-7.605-10.195-6.85-10.734.54-.432 1.295-.324 2.104.162-1.51-3.129-2.967-6.581-2.535-6.796Z" fill="#F9B09F"/></svg>