<svg width="98" height="98" viewBox="0 0 98 98" fill="none" xmlns="http://www.w3.org/2000/svg">
<circle cx="49" cy="49" r="49" fill="#ABE2F3"/>
<path d="M78.3868 80.9818H46.877C46.877 77.3074 48.5319 75.766 48.5319 75.766H76.7318C76.7318 75.766 77.144 76.1543 77.5623 76.9967C77.9745 77.8451 78.3868 79.1476 78.3868 80.9818Z" fill="#6683C2"/>
<path d="M67.4219 54.162H62.6363H57.8506C56.6378 57.7826 55.0008 61.0387 53.2383 63.321L62.6363 63.3867L72.0342 63.321C70.2717 61.0387 68.6407 57.7826 67.4219 54.162Z" fill="#3E5486"/>
<path d="M74.9367 75.7661H68.2989C65.3595 75.7661 62.641 75.7661 62.641 75.7661C62.641 75.7661 52.8906 75.7661 50.3454 75.7661C50.3454 75.7661 48.6486 73.0656 49.6046 69.8393C50.0526 68.3218 51.5224 66.6967 53.6254 65.3942H71.6626C73.7657 66.6907 75.2354 68.3218 75.6835 69.8393C76.6334 73.0715 74.9367 75.7661 74.9367 75.7661Z" fill="#6683C2"/>
<path d="M53.2422 63.3207C53.2422 64.1034 53.3796 64.7965 53.6246 65.3939H71.6617C71.9067 64.7905 72.0441 64.1034 72.0441 63.3207C70.2398 63.3207 55.0405 63.3207 53.2422 63.3207Z" fill="#3E5486"/>
<path d="M78.2979 43.2886C77.0254 49.0361 74.3786 54.3774 71.5706 59.5573H52.9778C50.8269 55.9307 50.7194 51.1511 52.7806 47.4588C54.095 45.0989 56.1503 43.2647 57.9486 41.2513C58.7014 40.4148 59.7649 39.3155 60.5714 38.0907C61.2346 37.087 61.7305 35.9996 61.7484 34.9063C61.7484 34.8883 61.7484 34.8704 61.7484 34.8525C61.6409 34.8406 61.4318 34.8525 61.139 34.8824C61.1151 34.8824 61.0912 34.8883 61.0673 34.8883C59.2092 35.0975 54.5789 35.9936 54.5789 35.9936C54.5789 35.9936 54.0293 36.8719 53.7007 37.4933L50.1757 38.1027C49.3632 37.8936 48.3176 37.2364 47.7261 36.6449C47.284 36.0175 46.9853 32.379 47.1526 31.3634C50.1518 27.9459 52.9778 26.4344 56.6342 24.4269C56.9508 23.6801 57.2615 22.9333 57.5782 22.1924C58.8687 21.2006 60.4101 20.5315 61.8082 20.2507C61.8022 20.1133 61.8022 19.9818 61.7962 19.8444C61.7723 18.9303 61.7424 18.0102 61.7185 17.0961C67.7588 16.3314 73.3331 20.2208 76.3323 25.5262C77.7184 27.9758 78.525 30.6823 78.8595 33.4664C79.2479 36.7225 79.0089 40.0862 78.2979 43.2886Z" fill="#6683C2"/>
<path d="M78.8558 33.4724C78.5152 30.6823 77.7147 27.9818 76.3286 25.5322C74.9484 23.0946 73.0306 20.9557 70.7662 19.4322C77.1172 31.1841 73.162 45.8218 69.1949 49.4723C70.2584 46.939 70.3899 44.1011 69.7267 41.4484C68.5796 44.1967 67.0202 46.8255 65.67 49.4902C64.0867 52.6149 62.7603 56.1339 62.7305 59.5633H71.5668C74.3749 54.3833 77.0276 49.0481 78.2942 43.2946C79.0111 40.0862 79.2501 36.7226 78.8558 33.4724Z" fill="#3E5486"/>
<path d="M70.4781 31.0407C68.4945 34.7808 64.7246 37.3498 60.5723 38.0907C61.2354 37.087 61.7313 35.9996 61.7493 34.9062C65.0293 34.9361 68.3033 33.4963 70.4781 31.0407Z" fill="#3E5486"/>
<path d="M61.0436 23.7455C59.9562 24.6178 58.9405 24.9584 58.2773 24.8449C58.3251 25.4602 59.0361 25.9621 59.7471 25.7709C60.6373 25.526 61.3184 24.6178 61.0436 23.7455Z" fill="#3E5486"/>
<path d="M74.9242 75.7664H68.2865C68.8779 74.5296 69.1408 73.1316 69.0273 71.7634C68.866 69.8874 67.9937 68.0771 66.6196 66.7866C66.1117 66.3086 65.5441 65.9024 65.0781 65.3945H71.6501C73.7532 66.691 75.2229 68.3221 75.671 69.8396C76.621 73.0718 74.9242 75.7664 74.9242 75.7664Z" fill="#3E5486"/>
<path d="M78.3894 80.982H70.2222C70.0609 79.1478 69.4813 77.3435 68.5254 75.7662H76.7344C76.7344 75.7662 77.1467 76.1545 77.5649 76.9969C77.9771 77.8453 78.3894 79.1478 78.3894 80.982Z" fill="#3E5486"/>
<path d="M50.3612 31.6142C49.8712 31.4648 49.2977 31.6261 48.9631 32.0205C48.6285 32.4088 48.5509 33.0003 48.7779 33.4663C49.465 32.8211 49.919 32.4506 50.3612 31.6142Z" fill="#3E5486"/>
<path d="M40.1177 37.071C40.1177 40.7393 36.8578 43.7134 32.8372 43.7134C32.287 43.7134 31.7486 43.66 31.2336 43.5532C27.9854 42.8858 25.5566 40.2373 25.5566 37.0763C25.5566 33.4027 28.8165 30.4286 32.8372 30.4286C33.5804 30.4286 34.3003 30.53 34.9792 30.7223C37.9523 31.5552 40.1177 34.0808 40.1177 37.071Z" fill="#F2C45B"/>
<path d="M40.1204 37.0711C40.1204 40.7394 36.8606 43.7135 32.8399 43.7135C32.2898 43.7135 31.7513 43.6601 31.2363 43.5533C34.7595 42.6349 37.4868 39.4633 37.4868 36.0993C37.4868 34.0917 36.5094 32.1534 34.9761 30.7224C37.955 31.5554 40.1204 34.081 40.1204 37.0711Z" fill="#B79039"/>
<path d="M44.2892 72.0668C43.8971 70.8494 42.6096 69.5466 40.7602 68.5054H24.9116C23.0622 69.5466 21.7746 70.8494 21.3825 72.0668C20.5456 74.6565 22.0321 76.819 22.0321 76.819C24.2678 76.819 32.8359 76.819 32.8359 76.819C32.8359 76.819 41.404 76.819 43.6396 76.819C43.6396 76.819 45.1262 74.6565 44.2892 72.0668Z" fill="#F2C45B"/>
<path d="M36.3397 66.8604C34.344 66.8764 32.8341 66.8924 32.8341 66.8924C32.8341 66.8924 31.3241 66.8764 29.3284 66.8604C27.8711 66.8497 26.1563 66.8391 24.5762 66.8391C24.5762 67.4691 24.6932 68.0191 24.9098 68.505H40.7584C40.9749 68.0244 41.092 67.4691 41.092 66.8391C39.5118 66.8391 37.797 66.8497 36.3397 66.8604Z" fill="#B79039"/>
<path d="M40.9769 66.6999C41.0178 66.748 41.0529 66.796 41.0939 66.8387L32.836 66.8921L24.5781 66.8387C29.5703 60.9439 33.392 52.3686 27.4341 46.6819C27.4341 46.6819 26.5914 45.7048 25.1751 45.283C24.9995 45.2296 24.8473 45.1281 24.742 44.9946C24.6366 44.8612 24.5781 44.701 24.5781 44.5301C24.5781 44.2204 24.7771 43.9481 25.0639 43.8199C26.8489 42.8588 30.9749 42.2074 32.836 42.2074C34.6971 42.2074 38.829 42.8588 40.6081 43.8199C40.7486 43.884 40.8715 43.9855 40.9593 44.1083C41.0412 44.2311 41.0939 44.3753 41.0939 44.5301C41.0939 44.8718 40.854 45.1708 40.497 45.2776C39.0806 45.6995 38.2379 46.6766 38.2379 46.6766C34.9254 49.8376 34.6386 53.885 35.8852 57.8736C36.8684 61.0133 38.8056 64.1102 40.9769 66.6999Z" fill="#F2C45B"/>
<path d="M45.2251 76.8188H32.8412H20.4573C20.4573 76.8188 19 78.0522 19 80.9997H32.8412H46.6824C46.6824 78.0522 45.2251 76.8188 45.2251 76.8188Z" fill="#F2C45B"/>
<path d="M43.6441 76.8191H37.8092C38.3301 75.8259 38.5642 74.71 38.4588 73.6153C38.3184 72.1096 37.5517 70.6626 36.3461 69.6267C35.9013 69.2476 35.398 68.9165 34.9883 68.5107H40.7589C42.6082 69.552 43.8958 70.8548 44.2879 72.0722C45.1307 74.6566 43.6441 76.8191 43.6441 76.8191Z" fill="#B79039"/>
<path d="M46.6832 80.9997H39.508C39.3676 79.5259 38.8584 78.0843 38.0215 76.8188H45.2318C45.2318 76.8188 45.5946 77.1285 45.9575 77.8066C46.3203 78.4794 46.6832 79.5259 46.6832 80.9997Z" fill="#B79039"/>
<path d="M41.1013 66.8391L36.4427 66.8711L35.8926 57.8793C36.8758 61.0136 38.813 64.1052 40.9843 66.7003C41.0194 66.7483 41.0603 66.791 41.1013 66.8391Z" fill="#B79039"/>
</svg>
