<svg width="90" height="90" viewBox="0 0 90 90" fill="none" xmlns="http://www.w3.org/2000/svg">
<circle cx="45" cy="45" r="45" fill="#ABE2F3"/>
<path fill-rule="evenodd" clip-rule="evenodd" d="M44.0361 23.384L44.6911 66.3999L43.0535 70.9854L39.7781 73.6056L39.669 73.6329L35.7113 73.824C35.5202 73.7512 35.3655 73.7239 35.1654 73.6602L32.2722 72.0498C32.2085 71.8497 32.2449 72.0589 32.163 71.8861L30.4435 70.4668C30.1068 70.2393 30.125 70.1392 29.6246 69.9482L27.1408 68.9383C26.9225 68.7381 26.6768 68.5562 26.4312 68.3924L24.5206 67.246L24.466 67.1641L23.1286 63.6705L22.6373 62.3603L17.7243 58.2662L16.769 51.1969L14.3125 46.011L15.4043 39.3512L16.5233 37.3587L16.3869 33.5375L17.5059 28.8156C17.6242 28.7792 17.5878 28.7792 17.697 28.7064L21.7093 25.4311L23.8109 21.0913L28.3145 18.6621L31.6444 18.2799L34.756 16.342H34.8379L38.7682 16.1783H38.8501L42.4257 19.0715C42.5076 19.1261 42.5349 19.1534 42.6167 19.208L44.0361 23.384Z" fill="#F2C45B"/>
<path fill-rule="evenodd" clip-rule="evenodd" d="M45.3465 23.384L44.6914 66.3999L46.3291 70.9854L49.6044 73.6056L49.7136 73.6329L53.6713 73.824C53.8623 73.7512 54.017 73.7239 54.2171 73.6602L57.1103 72.0498C57.174 71.8497 57.1376 72.0589 57.2195 71.8861L58.9391 70.4668C59.2757 70.2393 59.2575 70.1392 59.7579 69.9482L62.2417 68.9383C62.46 68.7381 62.7057 68.5562 62.9513 68.3924L64.8619 67.246L64.9165 67.1641L66.254 63.6705L66.7453 62.3603L71.6582 58.2662L72.6135 51.1969L75.07 46.011L73.9783 39.3512L72.8592 37.3587L72.9957 33.5375L71.8766 28.8156C71.7583 28.7792 71.7947 28.7792 71.6855 28.7064L67.6733 25.4311L65.5716 21.0913L61.068 18.6621L57.7381 18.2799L54.6266 16.342H54.5447L50.6143 16.1783H50.5324L46.9568 19.0715C46.875 19.1261 46.8477 19.1534 46.7658 19.208L45.3465 23.384Z" fill="#7FCBB4"/>
<path fill-rule="evenodd" clip-rule="evenodd" d="M36.2942 72.8232C39.8151 73.2872 42.2534 71.6678 42.7811 68.7109C43.0359 67.2643 42.9085 65.0079 42.9085 63.4703V26.35C42.9176 22.4924 42.9176 20.0086 40.5885 18.0252C39.5058 17.0972 38.3048 16.6514 36.4306 16.9607C35.812 17.0608 34.9112 17.352 34.4563 17.634C34.1743 17.8069 33.8559 18.0161 33.6375 18.1799C33.4101 18.3437 33.1644 18.6257 32.9824 18.7986C32.4184 19.3445 32.3729 19.7084 31.2538 19.5446C29.1339 19.2262 26.7047 19.8176 25.3036 21.3097C24.3847 22.2832 23.7206 22.9018 23.2202 24.5941C23.0655 25.1218 22.9927 26.4956 22.7471 26.7594C22.5378 26.9869 22.1557 27.087 21.8281 27.2052C19.399 28.0696 17.1426 31.0901 17.4065 34.602C17.6157 37.4133 18.844 37.3132 17.6248 38.6507C15.6141 40.8615 14.7407 43.4818 15.6778 46.5842C16.1782 48.2583 16.6968 48.8861 17.5975 49.9323C17.9978 50.4054 18.6165 50.7421 18.3254 51.7247C17.5975 54.2085 18.1434 57.0107 19.8448 58.7848C22.3649 61.4233 23.5113 60.4225 23.766 61.4961C23.9116 62.1147 23.9207 63.0609 24.0936 63.8161C24.6668 66.2726 26.9231 68.5198 29.8891 68.6563C31.0536 68.7109 31.3721 68.3196 31.7542 69.4296C31.9817 70.1029 32.3729 70.6397 32.7732 71.0582C33.4828 71.8042 34.8021 72.6322 36.2942 72.8232ZM60.8045 69.0293C64.2618 68.5562 67.2733 64.1254 65.1079 60.7409C64.4892 59.7765 64.0161 59.6309 63.2701 59.1123C61.778 58.0843 63.9434 55.0546 66.9457 59.358L67.5189 60.3315C67.5826 60.4316 67.6008 60.4407 67.6463 60.4953C72.5957 58.5301 72.5229 49.8869 66.1815 49.3228C65.7994 50.5965 62.7788 54.163 61.4323 52.8528C61.0592 52.4889 61.0138 51.7247 61.3686 51.2789C61.7052 50.8513 63.8342 50.0233 64.3801 47.6578C65.026 44.8829 63.4975 42.8176 61.3959 42.2444C59.7309 41.7895 57.3745 43.409 54.1447 41.3983C52.4797 40.3611 50.2234 37.3496 51.0058 36.0122C51.2242 35.6392 51.8701 35.3026 52.4706 35.6119C53.3349 36.0577 53.0347 37.9956 55.2728 39.4513C57.3745 40.8251 60.5134 40.3611 61.314 38.2231C61.5233 37.6681 61.4505 36.9948 61.9509 36.6764C62.5149 36.3216 64.3346 36.3852 63.543 38.8144C63.3247 39.4877 62.9517 39.8334 62.7242 40.2974C63.8251 40.5977 65.1898 41.9169 65.672 42.6902C66.6091 44.2096 66.6728 44.9466 66.782 47.0391C69.1111 47.7124 69.2021 47.6669 70.9944 49.1135C71.4766 49.5047 71.5676 49.7595 72.0134 50.1598C72.5593 49.7231 73.1688 48.7587 73.5237 47.9762C73.9422 47.0664 74.2333 46.0747 74.2788 44.9193C74.4062 41.553 72.068 38.1503 69.1384 38.7689C68.8381 38.8326 66.9457 40.0063 66.7092 38.3595C66.5454 37.1859 67.7737 36.731 68.729 36.5399C70.0573 36.2761 70.9307 36.5854 72.0407 36.9493C72.4319 35.712 72.7321 34.9386 72.532 33.3829C72.259 31.3176 71.049 29.3433 69.5751 28.1605C69.011 27.7056 67.6554 26.8686 66.7365 26.8322C66.1997 27.6146 66.2998 28.1514 64.7349 29.3615C63.8797 30.0257 62.7606 30.5442 61.3413 30.5442C60.9228 32.937 57.5474 35.2753 56.401 34.0652C55.9279 33.5648 56.1554 32.6823 56.583 32.4094C57.1471 32.0636 57.4473 32.1819 58.0933 31.6451C58.8393 31.0264 59.5672 29.7982 59.1395 28.3152C58.2479 25.2127 55.4184 27.1688 55.3547 25.2673C55.2637 22.7381 61.2321 24.3666 61.4596 28.3607C62.888 28.115 63.6886 27.5419 64.2709 26.623C65.6174 24.494 64.8623 21.6554 62.7788 20.318C61.6415 19.5901 60.7135 19.4536 59.0941 19.6356C59.1304 20.2998 59.1577 20.8275 58.7847 21.2278C58.4572 21.5826 57.8658 21.7009 57.3654 21.3733C56.31 20.6819 57.5201 17.7523 54.0173 16.9789C50.8966 16.2875 48.1217 18.4346 47.5485 21.8282C47.2028 23.8844 47.4849 27.2689 47.4303 29.498C48.4947 28.8429 49.4137 28.3061 50.9785 28.1423C52.1886 28.015 54.4995 28.2606 53.7444 29.9256C53.2076 31.1265 52.0066 29.8801 50.0141 30.6534C48.8405 31.1083 48.0489 31.9908 47.6395 33.1918C47.312 34.1471 47.3666 41.2072 47.4576 42.6447C47.6122 45.1194 49.6957 47.3394 52.1886 47.676C52.2068 47.6578 52.2341 47.6578 52.2341 47.6214C52.2432 47.585 52.2705 47.585 52.2796 47.5668C52.3251 47.5122 52.3796 47.4486 52.4069 47.4122C52.8436 46.8481 53.6261 45.9656 54.2084 45.6653C55.4821 45.0012 56.5102 46.6024 55.5822 47.494C54.9635 48.0945 54.172 48.4948 53.7444 49.6503C52.5889 52.7255 54.0446 56.9834 57.9204 56.9288C58.439 56.9197 60.5588 56.019 60.5043 57.8386C60.4679 59.0305 58.8575 59.176 57.7293 59.1851C59.4671 64.7714 52.2705 67.5281 52.6253 64.5803C52.78 63.2793 54.2357 63.9162 55.1546 62.5423C55.8187 61.5506 55.8551 60.2132 55.2637 59.1214C54.6997 58.0934 53.8899 58.2116 52.8891 56.9561C51.1878 54.8271 50.9057 53.1349 51.3606 49.7868C49.2954 49.532 48.5038 48.4948 47.4303 47.7397C47.5576 49.7959 47.4394 52.1978 47.4394 54.2903V67.3916C47.4758 71.8224 51.0149 73.824 54.7452 72.5867C57.238 71.7587 58.8029 69.3568 58.812 66.7548C58.8211 65.7267 58.3025 64.7532 59.4307 64.4529C61.7416 63.8252 61.0229 67.9648 60.8045 69.0293ZM73.1052 52.2706C73.3326 53.7445 73.6783 54.2358 73.4509 55.9917C73.2143 57.8113 71.977 60.2314 70.6578 61.2868C69.0838 62.5423 69.293 62.0965 68.1558 62.7971C68.0375 64.4529 68.0102 64.9442 67.4643 66.3817C66.3634 69.2749 62.7879 71.6587 59.7127 71.3948C57.1016 76.4261 48.1763 76.8173 45.8745 70.7852C45.547 69.93 45.4378 69.1567 45.1466 68.3378C45.0738 68.538 44.9374 69.5024 44.6098 70.4577C44.3369 71.2401 43.6182 72.5139 43.0905 73.0325L42.3717 73.6784C41.7985 74.0697 41.3982 74.3608 40.7158 74.6519C36.9856 76.2259 32.3001 74.6701 30.2985 71.5313C29.9801 71.0309 30.1802 71.04 29.5161 70.9672C25.7676 70.5214 23.2384 68.4015 22.0465 64.9533C21.8191 64.2892 21.7463 63.3612 21.5643 62.7971C21.4551 62.6697 18.8622 61.7963 16.9879 58.6392C16.4967 57.8113 15.9963 56.6195 15.8143 55.4367C15.4777 53.2168 15.878 52.8074 15.9053 51.4517C12.6845 48.1946 12.0568 42.3991 14.9227 38.3049C15.696 37.195 15.7597 37.659 15.505 36.831C14.4314 33.301 15.5413 29.8346 17.8705 27.2416C18.2708 26.8049 18.7166 26.4683 19.2261 26.0498C19.499 25.8314 20.6818 25.1855 20.7728 25.0399C21.0548 24.6032 21.0457 22.456 23.3566 20.0814C23.575 19.8631 23.7024 19.672 23.9662 19.4172C24.4393 18.9532 25.6403 18.2436 26.3317 17.9524C27.5873 17.4248 29.043 17.079 30.6169 17.2064C31.6996 17.2883 31.1446 17.2974 32.2182 16.3785C34.6929 14.2495 39.0509 14.0312 41.7166 16.0691L43.0541 17.2792C44.1185 18.3528 45.0102 21.1732 45.1193 22.8108C45.2558 22.5925 45.2467 22.4105 45.274 22.1467C45.5288 19.8631 46.4386 17.9797 48.0034 16.4058C49.6229 14.7954 52.6981 14.1403 55.0181 14.8682C57.1016 15.5232 57.4473 16.424 58.4754 17.4975C62.3421 16.3148 67.2551 19.399 67.2005 24.5941C68.6289 24.7396 70.1301 25.704 70.9671 26.3864C71.5676 26.8686 71.9042 27.2598 72.3773 27.7966C74.2697 29.8983 75.3524 33.2828 74.6245 36.2033C74.3516 37.3223 74.0241 37.8045 73.8967 38.2686C74.2788 38.4778 74.8156 39.1511 75.1249 39.5878C76.2076 41.1254 76.6716 43.782 76.4624 45.6926C76.2167 47.958 74.8156 51.2425 73.1052 52.2706Z" fill="#5F7198"/>
<path fill-rule="evenodd" clip-rule="evenodd" d="M31.5256 65.7449C31.7075 65.6175 31.562 65.7813 31.4983 65.381C31.4255 64.9079 31.6257 62.1239 31.4619 61.5598C31.0707 61.3687 27.8863 61.5962 27.2404 61.5143C27.0402 61.487 27.0311 61.4688 26.9401 61.4233C26.6581 61.2777 26.5853 61.0503 26.4852 61.0594C26.2942 60.9047 26.2305 60.8046 26.2305 60.468C26.2305 60.3679 26.2396 60.2315 26.2669 60.1314C26.3669 59.822 26.3396 59.9494 26.467 59.8402C26.467 59.8402 26.6672 59.4672 27.3404 59.4126C28.1047 59.3489 29.9698 59.54 31.4346 59.3944C31.6257 58.6302 31.4073 56.11 31.5074 55.464C31.5438 55.2457 31.5711 55.3185 31.5893 55.0182C32.2352 54.1903 33.5908 54.4814 33.6636 55.6642C33.7273 56.7378 33.7 58.1844 33.6636 59.2761C34.4006 59.2761 37.4485 59.1397 38.0125 59.4308C38.5948 59.7311 39.4045 61.5962 36.7206 61.6053C35.7016 61.6053 34.6735 61.6235 33.6636 61.5962C33.7 62.5424 33.7728 64.4257 33.6636 65.3173C33.5272 66.5092 31.9987 66.7821 31.5256 65.7449Z" fill="#5F7198"/>
<path fill-rule="evenodd" clip-rule="evenodd" d="M27.0148 43.3726C28.1429 44.6008 30.472 46.1839 29.3075 47.3121C28.3704 48.2128 27.5697 47.1483 27.1148 46.6934C26.6053 46.1748 25.8775 45.5379 25.459 45.0011C23.9942 45.9564 22.8569 48.5221 21.5195 47.3666C21.192 47.0846 21.0373 46.5751 21.2284 46.0565C21.3739 45.6744 23.5302 43.6273 23.7576 43.4908C23.239 42.2262 20.0365 40.8797 21.5195 39.4422C21.8652 39.1146 22.4384 39.0237 22.8842 39.2693C23.1845 39.4331 23.0935 39.4877 23.3118 39.7424C23.4847 39.9426 23.5302 39.9426 23.7576 40.1154C24.3217 40.5431 24.8039 41.3346 25.4226 41.7986C25.8593 41.2527 26.6053 40.6067 27.1421 40.0609C27.597 39.5877 28.3431 38.6142 29.2893 39.5059C30.4538 40.5885 28.3249 42.0442 27.0148 43.3726Z" fill="#5F7198"/>
<path fill-rule="evenodd" clip-rule="evenodd" d="M25.7415 29.6252C26.0326 28.6062 27.1153 28.8337 28.2617 28.8246C29.3534 28.8246 30.4452 28.8155 31.537 28.8246C32.4559 28.8246 35.7494 28.6881 36.3135 29.0339C36.6137 29.2158 36.8503 29.698 36.7229 30.2439C36.4773 31.2902 35.2945 31.1264 34.1754 31.1173H27.5338C26.5876 31.1264 25.3594 30.9445 25.7415 29.6252Z" fill="#5F7198"/>
<path fill-rule="evenodd" clip-rule="evenodd" d="M32.5367 44.2732C32.8097 43.0995 35.0478 43.4362 36.7219 43.4453C38.2413 43.4453 40.6614 42.9995 40.2883 44.9101C40.1337 45.7107 39.4422 45.7744 38.5415 45.7653C37.7227 45.7562 36.9038 45.7653 36.085 45.7653C34.7112 45.7562 32.0909 46.1929 32.5367 44.2732Z" fill="#5F7198"/>
<path fill-rule="evenodd" clip-rule="evenodd" d="M29.4703 33.6284C29.7978 31.4995 33.0186 31.8543 32.8002 34.0742C32.7092 34.9476 31.9086 35.6573 30.8987 35.5572C30.0344 35.4571 29.3156 34.6292 29.4703 33.6284Z" fill="#5F7198"/>
<path fill-rule="evenodd" clip-rule="evenodd" d="M29.4612 25.8951C29.5158 25.0217 30.371 24.2938 31.3536 24.403C32.1543 24.494 32.8639 25.3037 32.7729 26.2317C32.5728 28.3152 29.3247 28.1605 29.4612 25.8951Z" fill="#5F7198"/>
<path fill-rule="evenodd" clip-rule="evenodd" d="M31.589 55.0272C31.5708 55.3366 31.5435 55.2547 31.5072 55.473C31.4071 56.119 31.6254 58.6392 31.4344 59.4034C29.9696 59.549 28.1045 59.3579 27.3402 59.4216C26.667 59.4762 26.4668 59.8492 26.4668 59.8492C26.6306 59.1032 28.0408 59.3034 28.6231 59.3034C29.5329 59.3034 30.4518 59.2943 31.3616 59.3034C31.3616 58.3935 31.1614 55.5731 31.589 55.0272Z" fill="#010004"/>
<path fill-rule="evenodd" clip-rule="evenodd" d="M26.4863 61.0592C26.5864 61.0501 26.6592 61.2776 26.9412 61.4232C27.0322 61.4686 27.0413 61.4868 27.2415 61.5141C27.8874 61.596 31.0809 61.3686 31.463 61.5596C31.6268 62.1328 31.4266 64.9077 31.4994 65.3808C31.5631 65.7721 31.7087 65.6083 31.5267 65.7448C31.5267 65.7448 31.4721 65.8721 31.3811 65.4536L31.3538 61.6142C30.7624 61.6415 27.2961 61.7507 26.7957 61.4686C26.55 61.3231 26.5227 61.2139 26.4863 61.0592Z" fill="#010004"/>
</svg>
