<svg width="90" height="90" viewBox="0 0 90 90" fill="none" xmlns="http://www.w3.org/2000/svg">
<circle cx="45" cy="45" r="45" fill="#ABE2F3"/>
<path d="M34.8509 49.771H27.4487C26.2462 49.771 25.2715 50.7457 25.2715 51.9482V68.4103C25.2715 69.6128 26.2462 70.5875 27.4487 70.5875H34.8508C36.0533 70.5875 37.028 69.6128 37.028 68.4103V51.9482C37.028 50.7457 36.0533 49.771 34.8509 49.771Z" fill="#F2C45B"/>
<path d="M28.3682 68.4103V51.9482C28.3682 50.7458 29.343 49.771 30.5454 49.771H27.4487C26.2462 49.771 25.2715 50.7457 25.2715 51.9482V68.4104C25.2715 69.6129 26.2462 70.5876 27.4487 70.5876H30.5453C29.343 70.5875 28.3682 69.6128 28.3682 68.4103Z" fill="#E2B348"/>
<path d="M50.8117 42.2211H43.4096C42.2072 42.2211 41.2324 43.1958 41.2324 44.3983V68.4104C41.2324 69.6129 42.2072 70.5877 43.4096 70.5877H50.8117C52.0142 70.5877 52.9889 69.6129 52.9889 68.4104V44.3982C52.9889 43.1958 52.0142 42.2211 50.8117 42.2211Z" fill="#F37E60"/>
<path d="M44.333 68.4102V44.3981C44.333 43.1956 45.3077 42.2209 46.5102 42.2209H43.4135C42.2111 42.2209 41.2363 43.1956 41.2363 44.3981V68.4102C41.2363 69.6127 42.2111 70.5875 43.4135 70.5875H46.5102C45.3077 70.5875 44.333 69.6127 44.333 68.4102Z" fill="#D97056"/>
<path d="M66.7766 34.6709H59.3745C58.172 34.6709 57.1973 35.6456 57.1973 36.8481V68.4102C57.1973 69.6127 58.172 70.5875 59.3745 70.5875H66.7766C67.9791 70.5875 68.9538 69.6127 68.9538 68.4102V36.8481C68.9537 35.6456 67.979 34.6709 66.7766 34.6709Z" fill="#68CCEA"/>
<path d="M60.2939 68.4102V36.8481C60.2939 35.6456 61.2686 34.6709 62.4711 34.6709H59.3745C58.172 34.6709 57.1973 35.6456 57.1973 36.8481V68.4102C57.1973 69.6127 58.172 70.5875 59.3745 70.5875H62.4711C61.2686 70.5875 60.2939 69.6127 60.2939 68.4102Z" fill="#56B2CE"/>
<path d="M68.8377 19.2952L61.36 20.2698L63.1675 22.6874L56.7638 27.4753L53.3954 24.5055C53.1167 24.2598 52.7619 24.1175 52.3906 24.1025C52.0194 24.0876 51.6543 24.2008 51.3567 24.4233L37.0349 35.131L33.6845 32.6212C33.4048 32.4116 33.0648 32.2983 32.7153 32.2981C32.3658 32.298 32.0257 32.411 31.7458 32.6203L20.2051 41.2489L22.1425 43.8405L32.7136 35.9369L36.0639 38.4466C36.3436 38.6562 36.6837 38.7695 37.0332 38.7697C37.3827 38.7699 37.7228 38.6568 38.0027 38.4476L52.2413 27.8017L55.6097 30.7715C55.8884 31.0173 56.2432 31.1596 56.6145 31.1745C56.9858 31.1895 57.3509 31.0762 57.6485 30.8537L65.105 25.2787L66.9142 27.6984L69.9629 20.7997C70.3026 20.0311 69.6709 19.1866 68.8377 19.2952Z" fill="#7FCBB4"/>
</svg>
