<svg width="326" height="315" viewBox="0 0 326 315" fill="none" xmlns="http://www.w3.org/2000/svg">
<path d="M271.404 5.89296C269.902 6.25554 268.391 5.33029 268.031 3.82726C267.671 2.32464 268.599 0.814668 270.102 0.457387C271.602 0.100515 273.107 1.02577 273.466 2.52512C273.826 4.02407 272.903 5.53118 271.404 5.89296Z" fill="white"/>
<path d="M244.612 25.8674C240.694 26.7233 236.82 24.2562 235.938 20.3437C235.056 16.4315 237.497 12.5406 241.403 11.6325C245.347 10.7159 249.283 13.1854 250.173 17.1351C251.063 21.0848 248.568 25.0038 244.612 25.8674Z" fill="#68CCEA"/>
<path d="M170.392 143.91C131.594 152.385 93.2291 127.954 84.495 89.2087C75.7609 50.4674 99.9371 11.9364 138.618 2.94357C177.67 -6.1342 216.646 18.3212 225.465 57.4345C234.28 96.5477 209.566 135.358 170.392 143.91Z" fill="#F2C45B"/>
<path d="M162.126 34.3765C160.014 36.3985 158.163 38.8636 157.051 41.583C160.287 45.4759 163.683 50.6906 163.234 56.0318C163.223 56.1703 163.206 56.3079 163.192 56.4455C162.504 55.5643 162.414 53.7134 162.162 52.6105C161.125 48.0647 158.625 43.5213 154.52 41.1294C149.819 38.6329 145.597 38.7554 140.442 39.4581C136.166 40.2372 132.396 41.7328 128.988 44.4837C125.374 46.578 122.764 51.7428 121.709 55.628C119.9 62.2902 121.021 68.967 121.323 75.7166C121.185 76.3813 121.183 76.4626 120.699 76.9285C120.212 72.5672 119.769 68.0941 119.807 63.7013C119.872 56.2585 121.994 49.6686 127.385 44.3951C132.855 40.1081 137.464 39.0367 144.167 37.9673C145.273 37.9636 146.381 37.9702 147.487 37.9514C150.672 38.5475 153.456 39.3793 156.157 41.222L158.222 37.8436C163.177 30.9377 168.784 26.0913 177.399 24.6756C184.813 23.4576 192.965 25.142 199.069 29.5935C204.047 33.223 207.344 38.6835 208.951 44.5842C209.83 47.8111 210.202 51.388 212.549 53.9629C214.58 56.1907 217.504 57.3148 220.223 58.4401C222.576 59.2874 224.912 60.1093 227.133 61.2751C230.556 63.6364 232.385 66.5187 233.157 70.6142C233.925 74.6917 233.477 78.8447 232.839 82.9047C231.929 80.5033 233.736 77.2294 232.745 74.7926C232.733 74.245 232.683 73.7097 232.619 73.1654C232.084 68.5918 230.664 65.2342 227.001 62.338C224.905 60.9484 222.431 60.2261 220.079 59.3915C215.444 57.6664 211.378 55.6039 209.574 50.6804C208.966 49.0218 208.676 47.2019 208.224 45.4927C206.804 40.1167 204.267 35.301 200.037 31.6142C194.493 26.7814 186.921 24.7222 179.655 25.2934C172.69 25.841 166.638 29.1014 162.126 34.3765Z" fill="#4D261D"/>
<path d="M157.057 41.5843C158.168 38.8648 160.019 36.3998 162.132 34.3778C162.205 34.3725 162.28 34.377 162.352 34.3619C163.197 34.1851 166.197 31.709 167.357 31.0569C175.301 26.5919 185.405 26.3065 193.469 30.676C200.841 34.6706 204.354 41.2168 206.854 48.95C208.045 52.6342 209.085 56.3953 212.078 59.0747C214.266 61.0334 217.12 62.0338 219.786 63.1538C221.271 63.89 222.75 64.6377 224.223 65.3967C227.249 67.3452 229.347 68.9593 231.274 72.0418C231.813 72.9041 232.153 74.0094 232.751 74.7938C233.742 77.2307 231.934 80.5046 232.845 82.906C231.908 89.1921 228.915 94.9351 225.621 100.286C224.732 100.498 223.864 100.328 222.991 100.732C219.942 102.146 219.126 106.051 218.041 108.93C214.596 105.56 214.829 100.537 211.026 97.4152C206.802 93.9478 200.535 93.862 195.782 91.2524C190.385 88.2901 186.221 82.4262 182.276 77.7901C184.067 83.2657 186.711 86.7646 189.04 91.7392C187.054 91.6305 185.089 91.2696 183.194 90.6653C172.094 87.1137 168.263 77.0874 163.372 67.7021C163.433 67.3305 163.439 67.1795 163.389 66.8242L162.966 66.9778C160.065 67.4967 154.929 73.8273 153.311 76.145C152.71 77.0057 151.826 78.0637 151.565 79.0657L150.991 79.4356C151.005 79.5834 151 79.7705 151.052 79.9085C149.634 81.1947 148.548 83.7798 147.598 85.4669C144.661 90.6837 137.162 105.375 133.624 108.782C132.477 105.671 131.06 102.319 127.885 100.768C126.254 99.9721 124.131 99.8219 122.426 100.466C121.74 100.725 121.013 101.223 120.327 101.403C119.455 95.9114 118.575 90.2529 119.045 84.683C119.198 82.8704 120.962 78.1837 120.705 76.9298C121.189 76.4639 121.19 76.3826 121.329 75.7179C122.326 74.2491 123.33 72.8286 124.456 71.4562C124.807 68.5331 125.295 65.6283 125.921 62.7512C127.668 55.0442 130.979 48.6405 137.776 44.331C140.108 43.133 142.324 42.1788 144.863 41.5051C148.089 40.9991 151.269 40.8922 154.525 41.1306C158.631 43.5226 161.131 48.066 162.168 52.6118C162.419 53.7147 162.51 55.5656 163.198 56.4467C163.212 56.3091 163.228 56.1715 163.24 56.0331C163.689 50.6919 160.293 45.4772 157.057 41.5843ZM199.113 60.8929C199.67 64.447 205.65 70.6833 208.57 72.771C208.841 72.965 209.118 73.1361 209.404 73.3071L209.718 73.1993C209.67 73.1467 209.625 73.0924 209.576 73.0417C207.815 71.2137 205.577 69.7748 203.963 67.7777C203.049 66.6474 200.054 61.2858 199.113 60.8929ZM150.541 66.0513C147.409 72.5848 142.577 78.4606 135.511 80.8954C134.659 81.189 131.251 81.75 130.917 82.113L131.106 82.4997C136.83 82.1379 142.352 78.3034 146.029 74.0997C147.569 72.3394 150.36 68.66 150.73 66.3326L150.541 66.0513Z" fill="#7F4A43"/>
<path d="M236.125 52.0518C232.918 54.9289 229.815 57.8941 227.133 61.277C230.557 63.6384 232.386 66.5207 233.157 70.6161C233.925 74.6936 233.478 78.8467 232.839 82.9066C231.903 89.1927 228.91 94.9358 225.615 100.287C228.458 100.47 231.144 101.177 233.106 103.4C235.017 105.567 235.742 108.659 235.486 111.492C235.037 116.451 231.905 120.846 228.165 123.946C225.666 126.016 222.183 128.05 218.82 127.651C217.906 127.543 216.982 127.286 216.089 127.063C214.112 135.99 211.37 144.487 206.453 152.273L206.779 152.272C210.878 152.264 214.954 152.256 219.015 152.922C232.891 155.198 246.802 163.18 256.707 173.078C259.797 176.166 262.409 179.51 265.164 182.882C265.411 170.988 265.194 159.043 265.193 147.144C265.192 142.792 264.763 135.974 265.42 131.951C265.694 130.27 266.511 128.658 267.649 127.395C269.519 125.319 272.334 124.256 275.094 124.174C278.924 124.06 282.462 125.903 285.217 128.432C285.192 126.577 284.995 124.694 285.127 122.841C285.318 120.16 286.553 117.565 288.639 115.837C290.992 113.888 294.232 113.399 297.197 113.747C301.084 114.203 303.185 116.262 305.492 119.185C306.328 116.092 307.466 113.69 310.344 111.965C312.772 110.528 315.677 110.133 318.4 110.871C321.007 111.571 323.099 113.402 324.412 115.727C326.503 119.43 325.829 124.653 325.807 128.804C327.902 126.312 330.246 124.731 333.561 124.469C336.597 124.23 339.649 125.136 341.918 127.209C344.387 129.467 345.374 132.325 345.455 135.587C345.621 142.304 345.326 149.038 345.463 155.756C348.087 153.981 350.88 152.919 354.103 153.53C356.737 154.029 359.185 155.519 360.7 157.748C361.554 159.004 362.075 160.349 362.259 161.851C362.601 164.65 362.397 167.607 362.379 170.43L362.246 185.344C362.221 187.612 362.565 190.331 362.198 192.545C362.393 193.535 362.601 194.522 362.821 195.506C364.18 194.181 365.803 193.08 367.243 191.834C368.432 190.804 369.445 189.62 370.579 188.533C371.88 187.521 375.231 182.973 376.265 181.695C391.888 162.216 399.01 137.267 396.025 112.476C393.374 88.5794 379.682 65.0752 360.941 50.1891C339.828 33.472 312.898 25.9083 286.168 29.1871C267.344 31.3442 250.202 39.4241 236.125 52.0518Z" fill="#F2C45B"/>
<path d="M209.722 73.199L209.408 73.3068C209.122 73.1357 208.845 72.9646 208.574 72.7706C205.654 70.6829 199.674 64.4466 199.117 60.8926C200.058 61.2854 203.053 66.6471 203.967 67.7773C205.581 69.7744 207.819 71.2133 209.58 73.0414C209.629 73.092 209.674 73.1463 209.722 73.199Z" fill="#4D261D"/>
<path d="M131.102 82.4992L130.914 82.1125C131.248 81.7495 134.656 81.1885 135.508 80.8949C142.573 78.4601 147.406 72.5843 150.538 66.0508L150.726 66.3321C150.356 68.6595 147.565 72.3389 146.026 74.0992C142.349 78.3029 136.827 82.1374 131.102 82.4992Z" fill="#4D261D"/>
<path d="M162.959 66.9778L163.382 66.8242C163.432 67.1795 163.427 67.3305 163.365 67.7021C160.038 73.2365 157.695 77.8334 151.045 79.9085C150.994 79.7704 150.998 79.5834 150.984 79.4356L151.559 79.0657C157.422 77.0567 160.259 72.1479 162.959 66.9778Z" fill="#4D261D"/>
<path d="M151.57 79.0665C151.831 78.0644 152.714 77.0065 153.315 76.1457C154.934 73.8281 160.07 67.4975 162.971 66.9785C160.271 72.1487 157.433 77.0575 151.57 79.0665Z" fill="#E9B49C"/>
<path d="M151.052 79.9075C157.702 77.8324 160.045 73.2356 163.371 67.7012C168.263 77.0864 172.094 87.1127 183.193 90.6643C185.089 91.2686 187.054 91.6296 189.04 91.7382C186.711 86.7636 184.066 83.2647 182.276 77.7891C186.221 82.4252 190.385 88.2891 195.782 91.2515C200.534 93.8611 206.802 93.9468 211.026 97.4143C214.829 100.536 214.596 105.559 218.041 108.929C219.126 106.05 219.942 102.145 222.991 100.731C223.863 100.327 224.732 100.498 225.62 100.285C228.463 100.469 231.15 101.175 233.111 103.399C235.022 105.566 235.747 108.658 235.491 111.49C235.042 116.449 231.911 120.845 228.17 123.944C225.671 126.014 222.189 128.048 218.825 127.649C217.911 127.541 216.987 127.284 216.095 127.061C214.117 135.988 211.375 144.485 206.458 152.271C204.109 155.494 201.804 158.466 198.875 161.198L197.777 162.197C198.061 169.587 197.877 175.64 192.554 181.367C188.464 185.768 182.685 188.178 176.713 188.354C172.093 188.49 168.184 187.225 164.154 185.054C150.031 175.138 156.383 163.306 153.6 160.208C151.925 159.481 147.267 153.663 145.901 152.046C140.726 144.506 137.008 136.063 134.941 127.155C133.651 127.434 132.262 127.62 130.941 127.527C125.732 127.159 121.651 124.005 118.376 120.184C117.132 117.624 116.301 115.28 115.914 112.458C115.897 109.259 116.586 106.653 118.101 103.844C118.825 103.014 119.567 102.2 120.327 101.402C121.013 101.222 121.74 100.724 122.426 100.465C124.131 99.8209 126.254 99.9712 127.885 100.767C131.06 102.318 132.477 105.67 133.624 108.782C137.162 105.375 144.661 90.6827 147.598 85.466C148.548 83.7788 149.634 81.1937 151.052 79.9075ZM154.435 93.1338C150.801 93.4336 147.617 94.4327 145.187 97.3494C144.011 98.7605 143.288 100.376 142.697 102.098C144.976 100.249 147.206 98.429 149.992 97.3906C151.916 96.7736 153.911 96.3237 155.943 96.5854C157.968 96.8463 161.387 99.2607 163.138 98.1035C163.401 97.585 163.461 97.1999 163.289 96.6405C162.938 95.5029 161.793 94.9199 160.787 94.4462C158.838 93.5287 156.58 93.12 154.435 93.1338ZM196.696 93.7398C194.685 94.0064 191.428 94.4433 190.037 96.0779C189.698 96.4776 189.608 97.0378 189.692 97.5372C189.756 97.9239 189.916 98.0206 190.161 98.3028C191.96 98.979 195.365 97.0321 197.376 96.8377C199.095 96.672 200.634 97.0039 202.26 97.5008L202.534 97.6156C203.973 98.2252 206.307 100.24 207.843 99.8907C208.043 99.845 208.162 99.7482 208.322 99.6396C208.516 99.0594 208.48 98.678 208.19 98.1284C207.055 95.977 204.14 94.692 201.878 94.0906C200.265 93.6614 198.353 93.4985 196.696 93.7398ZM123.779 109.058C123.857 109.107 123.934 109.16 124.013 109.208C124.961 109.787 126.801 109.567 127.385 110.614C127.171 111.073 127.019 111.169 126.644 111.498C125.35 112.633 124.455 114.023 124.373 115.784C124.305 117.233 124.9 118.575 125.875 119.626C127.734 121.628 130.472 122.41 133.129 122.449C133.472 122.454 133.764 122.44 134.099 122.374C134.242 122.142 134.317 122.002 134.392 121.734C131.77 121.988 129.204 121.747 127.063 120.035C125.935 119.133 125.062 117.838 124.916 116.375C124.777 114.988 125.335 113.674 126.242 112.644C126.888 111.91 127.673 111.353 128.479 110.812C127.371 109.767 126.094 108.922 124.51 108.94C124.256 108.943 124.023 108.99 123.779 109.058ZM223.675 110.013C225.195 110.603 226.418 111.133 227.168 112.699C227.71 113.832 227.637 115.13 227.191 116.28C226.425 118.258 224.691 119.832 222.734 120.593C221.184 121.197 217.468 121.053 217.122 121.281L217.287 121.562C220.359 121.776 223.081 121.704 225.544 119.554C226.98 118.3 228.056 116.458 228.105 114.519C228.134 113.334 227.762 112.055 226.894 111.213C226.068 110.411 225.004 109.945 223.854 110.001C223.794 110.004 223.735 110.009 223.675 110.013ZM195.95 113.765C194.598 113.875 193.41 114.706 192.844 115.938C192.278 117.17 192.421 118.613 193.218 119.71C194.015 120.807 195.343 121.389 196.69 121.231C198.722 120.993 200.189 119.17 199.987 117.135C199.785 115.099 197.989 113.6 195.95 113.765ZM157.081 113.999C155.237 114.727 154.301 116.784 154.966 118.651C155.631 120.518 157.657 121.522 159.545 120.921C160.824 120.513 161.779 119.44 162.036 118.123C162.293 116.805 161.811 115.452 160.779 114.594C159.748 113.735 158.33 113.507 157.081 113.999ZM173.099 113.776C173.305 116.487 173.79 119.102 173.429 121.83C173.007 125.023 168.598 130.582 171.701 133.232C173.311 134.605 176.306 134.616 178.328 134.375C180.989 134.057 183.636 133.077 185.755 131.419C185.559 131.389 185.364 131.309 185.166 131.33C184.722 131.376 183.645 132.12 183.19 132.337C180.471 133.639 177.38 134.22 174.384 133.772C173.347 133.618 172.221 133.306 171.587 132.399C170.98 131.53 170.967 130.322 171.224 129.33C171.469 128.383 171.972 127.462 172.39 126.58C173.711 123.796 174.262 121.631 174.147 118.522C174.092 117.042 174.04 115.519 173.519 114.116L173.099 113.776ZM152.157 127.818C149.859 128.148 147.754 128.918 146.345 130.883C145.253 132.407 144.904 134.318 145.286 136.145C145.664 137.927 146.733 139.487 148.259 140.482C149.709 141.435 151.366 141.767 153.074 141.836C155.187 141.507 157.002 140.952 158.369 139.174C159.457 137.749 159.926 135.946 159.67 134.172C159.41 132.246 158.37 130.386 156.803 129.225C155.425 128.205 153.852 127.829 152.157 127.818ZM201.287 127.818C198.91 128.241 196.809 129.095 195.382 131.158C194.326 132.656 193.937 134.525 194.306 136.32C194.698 138.18 195.904 139.759 197.533 140.718C198.981 141.57 200.492 141.778 202.129 141.913C204.4 141.514 206.347 140.917 207.741 138.918C208.83 137.355 209.155 135.349 208.769 133.497C208.378 131.578 207.192 129.913 205.505 128.917C204.163 128.124 202.805 127.923 201.287 127.818ZM164.505 143.704C165.362 147.322 167.002 150.299 170.273 152.303C173.312 154.164 177.219 154.776 180.675 153.895C182.916 153.305 184.967 152.145 186.629 150.529C188.576 148.473 189.693 146.53 190.52 143.822C181.87 143.637 173.154 143.57 164.505 143.704ZM156.301 162.802C157.757 165.045 165.228 169.319 167.92 169.793C168.179 169.839 168.447 169.833 168.709 169.836C166.289 168.611 163.735 167.516 161.385 166.168C159.81 165.265 157.871 163.398 156.301 162.802ZM195.78 163.894C189.207 169.11 181.319 171.65 172.92 170.712C172.18 170.629 169.507 169.957 168.977 170.274C169.151 170.696 169.023 170.556 169.283 170.756C176.975 172.414 185.229 171.507 191.946 167.225C193.355 166.321 194.677 165.291 195.897 164.146L195.78 163.894Z" fill="#E9B49C"/>
<path d="M142.695 102.097C143.286 100.375 144.008 98.7598 145.184 97.3487C147.615 94.432 150.799 93.4329 154.433 93.1332C156.578 93.1193 158.836 93.528 160.785 94.4455C161.791 94.9192 162.936 95.5022 163.287 96.6398C163.459 97.1992 163.399 97.5843 163.136 98.1028C161.385 99.26 157.966 96.8456 155.941 96.5847C153.909 96.323 151.914 96.7729 149.99 97.3899C147.204 98.4283 144.974 100.249 142.695 102.097Z" fill="#4D261D"/>
<path d="M202.262 97.502C200.635 97.0051 199.097 96.6731 197.377 96.8389C195.367 97.0332 191.962 98.9801 190.163 98.3039C189.918 98.0218 189.758 97.925 189.693 97.5383C189.61 97.0389 189.699 96.4787 190.039 96.079C191.429 94.4445 194.687 94.0076 196.698 93.7409C198.354 93.4996 200.266 93.6625 201.88 94.0917C204.142 94.6931 207.057 95.9781 208.191 98.1296C208.481 98.6792 208.517 99.0605 208.324 99.6408C208.163 99.7494 208.045 99.8461 207.844 99.8919C206.309 100.241 203.975 98.2263 202.536 97.6167L202.262 97.502Z" fill="#4D261D"/>
<path d="M134.394 121.736C134.32 122.003 134.244 122.144 134.101 122.375C133.766 122.442 133.474 122.456 133.131 122.451C130.474 122.412 127.736 121.63 125.877 119.627C124.902 118.576 124.307 117.235 124.375 115.786C124.457 114.024 125.352 112.635 126.646 111.5C127.022 111.17 127.174 111.075 127.387 110.616C126.803 109.568 124.963 109.789 124.015 109.21C123.936 109.161 123.859 109.109 123.781 109.059C124.025 108.992 124.258 108.945 124.513 108.942C126.096 108.923 127.374 109.769 128.481 110.813C127.675 111.355 126.89 111.912 126.244 112.646C125.337 113.676 124.78 114.99 124.918 116.377C125.065 117.839 125.937 119.135 127.065 120.037C129.206 121.748 131.772 121.99 134.394 121.736Z" fill="#1C0C0A"/>
<path d="M217.29 121.562L217.125 121.28C217.471 121.053 221.187 121.196 222.737 120.593C224.694 119.832 226.428 118.258 227.194 116.28C227.64 115.129 227.713 113.832 227.171 112.699C226.421 111.132 225.198 110.603 223.678 110.013C223.738 110.009 223.797 110.003 223.857 110.001C225.007 109.945 226.071 110.411 226.897 111.212C227.765 112.054 228.137 113.334 228.108 114.519C228.059 116.458 226.983 118.3 225.547 119.554C223.084 121.703 220.362 121.775 217.29 121.562Z" fill="#1C0C0A"/>
<path d="M305.5 119.185C306.336 116.093 307.474 113.69 310.352 111.965C312.78 110.528 315.685 110.134 318.408 110.872C321.015 111.571 323.107 113.402 324.42 115.727C326.511 119.43 325.836 124.653 325.814 128.805C325.822 129.987 326.226 133.451 325.372 134.234C325.268 134.329 325.082 134.438 324.959 134.514C324.115 128.435 326.869 119.32 322.477 114.43C320.751 112.509 318.31 111.464 315.739 111.42C313.195 111.376 310.644 112.341 308.872 114.187C306.949 116.189 306.569 118.403 306.628 121.059C305.985 120.477 305.788 119.994 305.5 119.185Z" fill="#4D261D"/>
<path d="M306.623 121.058C306.564 118.403 306.944 116.189 308.867 114.187C310.639 112.341 313.19 111.376 315.734 111.419C318.305 111.463 320.746 112.509 322.472 114.43C326.864 119.319 324.11 128.435 324.954 134.514C324.76 140.446 324.941 146.426 324.946 152.363C325.07 168.534 327.992 184.07 327.863 200.241C331.127 200.252 331.762 200.386 334.968 200.724C332.763 201.453 330.405 201.72 328.153 202.285C331.612 215.254 334.592 228.416 337.627 241.493C333.103 241.252 328.279 241.043 323.765 241.499C323.768 238.438 323.618 235.266 323.95 232.224C323.044 231.518 317.233 231.9 315.819 231.945C316.283 229.321 315.919 226.218 315.896 223.535L315.788 206.874L315.667 151.184L315.654 133.527C315.654 130.969 315.786 128.375 315.694 125.822C315.671 125.201 315.536 124.546 315.197 124.021C314.603 125.379 314.781 222.319 315.253 230.824C315.206 231.113 315.254 231.516 314.978 231.674C313.74 232.382 310.922 231.802 309.455 231.898L309.066 231.723C308.624 230.688 313.494 205.811 313.892 202.303C314.131 200.191 314.062 198.217 312.603 196.511C311.528 195.254 310.152 194.813 308.552 194.701L307.221 194.516C307.102 194.393 306.924 194.306 306.864 194.145C306.531 193.249 306.799 184.791 306.797 183.198L306.736 141.837L306.782 129.263C306.795 126.558 306.927 123.748 306.623 121.058Z" fill="url(#paint0_linear_3001_600)"/>
<path d="M196.696 121.23C195.349 121.388 194.022 120.807 193.225 119.709C192.427 118.612 192.284 117.17 192.851 115.937C193.417 114.705 194.604 113.874 195.956 113.764C197.995 113.599 199.791 115.098 199.993 117.134C200.195 119.17 198.728 120.992 196.696 121.23Z" fill="#1C0C0A"/>
<path d="M285.221 128.432C285.196 126.576 284.999 124.694 285.131 122.841C285.322 120.159 286.557 117.564 288.643 115.837C290.996 113.887 294.236 113.398 297.201 113.746C301.088 114.203 303.189 116.261 305.496 119.184C305.784 119.993 305.981 120.476 306.624 121.058C306.928 123.748 306.796 126.558 306.784 129.262L306.737 141.837L306.798 183.197C306.8 184.79 306.532 193.249 306.865 194.145C306.925 194.306 307.103 194.392 307.222 194.516L308.553 194.7C300.839 194.849 293.122 194.877 285.407 194.786L285.221 128.432ZM294.738 130.499C294.205 133.189 294.569 136.506 294.57 139.279L294.576 157.913L294.584 175.461C294.583 178.3 294.317 181.444 294.703 184.25L295.015 184.602C295.598 182.219 295.199 177.712 295.198 175.1L295.188 153.772L295.2 138.959C295.203 136.299 295.402 133.462 295.11 130.827L294.738 130.499Z" fill="#F37E60"/>
<path d="M159.55 120.919C157.662 121.521 155.636 120.517 154.972 118.65C154.307 116.783 155.242 114.725 157.086 113.998C158.335 113.506 159.753 113.734 160.785 114.592C161.817 115.451 162.298 116.804 162.041 118.121C161.784 119.439 160.829 120.511 159.55 120.919Z" fill="#1C0C0A"/>
<path d="M185.755 131.42C183.635 133.078 180.989 134.058 178.328 134.376C176.306 134.618 173.311 134.607 171.701 133.233C168.597 130.583 173.007 125.025 173.429 121.831C173.789 119.103 173.305 116.489 173.099 113.777L173.519 114.117C174.039 115.52 174.092 117.043 174.147 118.524C174.262 121.633 173.71 123.798 172.389 126.581C171.971 127.463 171.469 128.384 171.223 129.331C170.967 130.323 170.979 131.531 171.587 132.4C172.221 133.307 173.346 133.619 174.383 133.774C177.379 134.222 180.471 133.64 183.19 132.338C183.645 132.121 184.721 131.377 185.166 131.331C185.363 131.31 185.559 131.39 185.755 131.42Z" fill="#1C0C0A"/>
<path d="M265.172 182.883C265.419 170.988 265.202 159.044 265.2 147.145C265.2 142.792 264.771 135.975 265.427 131.951C265.702 130.271 266.519 128.659 267.657 127.396C269.527 125.319 272.342 124.257 275.102 124.175C278.932 124.061 282.47 125.904 285.225 128.433L285.411 194.787C281.127 194.756 276.844 194.757 272.56 194.792C271.416 192.922 270.421 190.956 269.273 189.084C267.979 186.973 266.511 184.966 265.172 182.883Z" fill="#E99E87"/>
<path d="M315.26 230.823C314.789 222.318 314.611 125.378 315.204 124.02C315.544 124.545 315.679 125.2 315.701 125.821C315.794 128.373 315.662 130.968 315.662 133.526L315.675 151.183L315.796 206.873L315.903 223.533C315.927 226.217 316.291 229.32 315.827 231.944C315.431 231.583 315.418 231.317 315.26 230.823Z" fill="#4D261D"/>
<path d="M325.812 128.802C327.908 126.31 330.251 124.729 333.566 124.467C336.603 124.228 339.654 125.134 341.923 127.208C344.393 129.466 345.38 132.323 345.46 135.585C345.626 142.302 345.331 149.036 345.469 155.754C348.092 153.979 350.885 152.917 354.108 153.528C356.743 154.027 359.19 155.517 360.705 157.746C361.559 159.002 362.081 160.347 362.264 161.849C362.607 164.649 362.402 167.605 362.384 170.428L362.252 185.342C362.226 187.61 362.571 190.329 362.203 192.543C360.544 189.654 358.734 204.935 358.734 204.935V180.096L354.87 177.63C354.87 177.63 355.23 180.295 352.978 181.66C351.898 182.315 351.957 186.356 351.957 186.356L354.108 200.874L351.957 209.018C351.957 209.018 348.395 239.882 347.874 240.867C347.205 239.714 342.439 246.681 341.545 245.767C335.039 250.659 335.851 243.521 335.851 243.521C334.492 244.115 331.132 241.479 331.132 241.479L327.866 240.867C327.866 240.867 325.072 168.532 324.948 152.362C324.944 146.424 324.763 140.444 324.956 134.512C325.079 134.436 325.266 134.327 325.369 134.232C326.224 133.449 325.82 129.985 325.812 128.802ZM335.367 137.037C334.902 139.428 335.095 189.574 335.407 190.694L335.697 190.959C336.13 188.287 335.851 185.149 335.851 182.43L335.831 165.32L335.826 147.313C335.832 144.084 336.062 140.667 335.76 137.462C335.638 137.321 335.516 137.148 335.367 137.037Z" fill="#D4D4D4"/>
<path d="M153.07 141.836C151.362 141.768 149.705 141.435 148.255 140.482C146.729 139.487 145.66 137.928 145.282 136.145C144.9 134.319 145.25 132.408 146.342 130.884C147.75 128.918 149.855 128.148 152.154 127.818C153.849 127.83 155.421 128.205 156.799 129.225C158.367 130.386 159.407 132.247 159.666 134.173C159.922 135.947 159.454 137.75 158.366 139.175C156.999 140.952 155.183 141.507 153.07 141.836Z" fill="#E99E87"/>
<path d="M202.13 141.913C200.493 141.778 198.983 141.57 197.535 140.718C195.906 139.759 194.7 138.18 194.308 136.32C193.939 134.525 194.328 132.657 195.384 131.159C196.811 129.096 198.912 128.241 201.289 127.818C202.807 127.924 204.165 128.125 205.507 128.917C207.194 129.914 208.38 131.578 208.771 133.498C209.157 135.349 208.832 137.356 207.743 138.918C206.349 140.918 204.401 141.514 202.13 141.913Z" fill="#E99E87"/>
<path d="M295.02 184.603L294.709 184.25C294.322 181.444 294.589 178.301 294.59 175.462L294.582 157.913L294.575 139.279C294.574 136.506 294.211 133.19 294.743 130.5L295.116 130.827C295.407 133.463 295.209 136.299 295.205 138.96L295.193 153.772L295.203 175.1C295.204 177.713 295.603 182.22 295.02 184.603Z" fill="#1C0C0A"/>
<path d="M186.624 150.528C184.962 152.145 182.911 153.304 180.67 153.895C177.214 154.776 173.307 154.163 170.268 152.302C166.997 150.299 165.357 147.322 164.5 143.703C173.149 143.569 181.865 143.636 190.515 143.821C189.688 146.53 188.571 148.473 186.624 150.528Z" fill="white"/>
<path d="M23.0907 177.868C20.2193 171.872 16.6677 162.249 18.8786 155.642C19.72 153.128 21.3799 151.038 23.7892 149.878C28.5199 147.598 34.8985 149.149 39.5554 150.869C42.9792 152.134 46.2527 153.738 49.4609 155.47C57.1051 159.598 64.4989 164.439 71.8998 169.001C75.1475 171.003 79.2675 173.051 82.2107 175.378C82.8134 175.854 83.3213 176.445 83.6169 177.162C83.737 177.452 83.7447 177.726 83.7439 178.035C82.4491 180.673 70.5854 189.404 67.525 192.071C63.6541 194.614 60.1977 198.048 56.5187 200.893L47.3299 208.56C45.9481 209.702 44.4732 211.14 42.8939 211.997C42.39 212.271 42.0674 212.373 41.5072 212.182C38.4182 211.127 27.8108 188.268 25.7423 184.078C25.4391 182.116 23.9576 179.685 23.0907 177.868Z" fill="#93B1F2"/>
<path d="M97.5471 170.699C110.472 158.795 128.481 152.477 145.906 152.047C147.272 153.663 151.929 159.482 153.605 160.208C153.156 161.457 153.295 163.02 153.288 164.335C153.263 168.761 153.425 172.744 155.346 176.815C157.017 180.359 159.778 183.559 163.119 185.625C167.564 188.746 173.064 189.83 178.415 189.403C184.369 188.927 190.289 186.019 194.127 181.419C199.113 175.445 199.526 168.649 198.88 161.199C201.809 158.467 204.114 155.495 206.463 152.272C210.672 152.265 214.857 152.238 219.025 152.922C232.901 155.197 246.812 163.18 256.717 173.077C259.807 176.166 262.419 179.509 265.174 182.881C266.513 184.964 267.982 186.972 269.276 189.082C270.423 190.955 271.418 192.921 272.562 194.79L229.335 194.899C226.408 194.912 215.17 194.665 213.37 195.253C213.217 195.303 213.122 195.457 212.997 195.559L212.956 195.724C207.405 196.17 201.689 195.92 196.12 195.925L168.077 195.946C164.04 195.943 157.434 195.489 153.639 196.015C152.466 196.177 151.359 196.825 150.567 197.698C149.922 198.411 149.477 199.355 149.31 200.3C148.774 203.346 148.846 206.726 148.685 209.819C148.337 215.853 148.034 221.889 147.776 227.928L146.688 248.081C146.491 251.649 146.165 255.272 146.158 258.846C136.902 258.798 127.645 258.815 118.389 258.898C119.24 254.564 120.581 250.314 121.66 246.032C123.395 239.142 124.982 232.2 126.906 225.361C127.484 223.303 130.8 214.224 130.769 213.134C130.525 212.712 130.544 212.685 130.089 212.529C128.868 213.509 127.716 219.177 126.961 221.007L126.833 221.312C126.358 211.211 123.593 201.519 116.992 193.647C110.338 185.712 100.13 179.841 89.7266 178.951C90.7939 177.918 91.7326 176.664 92.733 175.557C94.2663 173.861 95.8902 172.274 97.5471 170.699Z" fill="#7FCBB4"/>
<path d="M163.12 185.624C159.778 183.558 157.018 180.358 155.346 176.814C153.426 172.742 153.264 168.759 153.288 164.334C153.296 163.018 153.156 161.456 153.605 160.207C156.388 163.306 150.036 175.137 164.159 185.053L163.309 185.092C163.071 185.46 163.108 185.276 163.12 185.624Z" fill="#5FA791"/>
<path d="M197.774 162.196L198.871 161.197C199.518 168.647 199.104 175.443 194.119 181.417C190.281 186.017 184.36 188.926 178.407 189.401C173.056 189.829 167.555 188.745 163.111 185.624C163.099 185.276 163.062 185.46 163.3 185.092L164.151 185.053C168.18 187.225 172.09 188.49 176.709 188.353C182.681 188.177 188.46 185.768 192.55 181.367C197.873 175.64 198.057 169.587 197.774 162.196Z" fill="#5FA791"/>
<path d="M168.714 169.838C168.451 169.836 168.184 169.841 167.924 169.795C165.232 169.321 157.761 165.048 156.305 162.805C157.875 163.4 159.814 165.267 161.389 166.17C163.739 167.518 166.293 168.613 168.714 169.838Z" fill="#E99E87"/>
<path d="M169.283 170.757C169.022 170.556 169.151 170.697 168.977 170.275C169.506 169.958 172.179 170.629 172.919 170.712C181.319 171.65 189.207 169.11 195.78 163.895L195.897 164.146C194.676 165.291 193.354 166.322 191.946 167.225C185.229 171.507 176.974 172.414 169.283 170.757Z" fill="#E99F88"/>
<path d="M23.0927 177.869C23.9596 179.685 25.4411 182.116 25.7443 184.079C24.3245 186.978 23.2297 190.102 21.9478 193.074L11.6456 217.135C14.8157 224.02 17.6139 231.087 20.6553 238.032C24.8345 247.575 29.2533 257.125 33.0194 266.833C31.5647 267.378 29.8083 267.1 28.2621 267.495C23.5131 256.965 19.095 246.237 14.5881 235.599C11.9931 229.474 9.17319 223.421 6.73438 217.234C7.23302 214.422 9.55661 210.082 10.7095 207.304L23.0927 177.869Z" fill="#415888"/>
<path d="M89.0547 179.653L89.7235 178.951C100.127 179.842 110.335 185.713 116.989 193.647C123.59 201.519 126.355 211.211 126.83 221.312L126.958 221.007C127.713 219.178 128.865 213.509 130.086 212.529C130.541 212.685 130.522 212.712 130.766 213.135C130.797 214.225 127.481 223.304 126.903 225.361C124.979 232.201 123.392 239.143 121.657 246.032C120.578 250.315 119.237 254.565 118.386 258.898L117.121 259.072L117.172 257.882C118.055 255.046 118.698 252.132 119.582 249.289C119.589 249.272 119.597 249.255 119.603 249.238C120.884 245.388 121.557 241.29 122.558 237.355C123.525 233.549 124.892 229.682 125.517 225.811C126.695 218.502 124.27 208.307 120.976 201.752C116.364 192.571 107.667 185.296 97.9855 181.973C95.1076 180.985 92.0697 180.673 89.2274 179.714C89.1694 179.695 89.1123 179.674 89.0547 179.653Z" fill="#5FA791"/>
<path d="M62.1484 230.479C68.8278 212.563 77.3466 194.835 89.0556 179.65C89.1131 179.671 89.1703 179.692 89.2283 179.711C92.0706 180.67 95.1085 180.982 97.9864 181.97C107.668 185.293 116.364 192.568 120.977 201.749C124.27 208.303 126.696 218.499 125.517 225.808C124.893 229.679 123.526 233.545 122.559 237.351C121.558 241.286 120.885 245.385 119.604 249.235C119.598 249.252 119.59 249.269 119.583 249.285C117.954 248.851 116.137 248.725 114.465 248.46C111.449 247.983 108.446 247.423 105.459 246.781C94.3735 244.331 83.1998 241.147 72.913 236.272C69.2267 234.525 65.7168 232.45 62.1484 230.479Z" fill="#7FCBB4"/>
<path d="M56.5156 200.893C60.1946 198.048 63.651 194.613 67.5219 192.07C68.6011 193.542 69.1397 195.474 68.8261 197.291C68.4978 199.194 67.2561 200.857 65.6469 201.89C63.9981 202.968 61.97 203.298 60.0647 202.798C58.683 202.448 57.6099 201.777 56.5156 200.893Z" fill="#E9B49C"/>
<path d="M212.954 195.723L212.995 195.558C213.119 195.456 213.214 195.302 213.367 195.252C215.167 194.665 226.405 194.911 229.333 194.898L272.559 194.789C276.843 194.755 281.127 194.754 285.411 194.785C293.126 194.876 300.842 194.848 308.557 194.699C310.157 194.812 311.532 195.253 312.607 196.509C314.066 198.215 314.136 200.19 313.896 202.302C313.499 205.81 308.628 230.687 309.07 231.722L309.459 231.896L309.22 232.267L309.305 232.48C308.928 232.619 308.827 232.554 308.651 232.941C307.843 234.715 306.13 246.447 305.588 249.407C303.405 261.073 301.148 272.724 298.815 284.361C298.338 286.789 298.267 288.883 296.785 290.937C296.487 291.349 295.788 292.106 295.977 292.646C296.522 294.205 297.643 294.892 297.032 296.766C296.63 298.002 295.713 299.071 294.738 299.902L329.167 299.89L363.632 299.853C368.592 299.854 374.414 299.461 374.414 299.461H376.048H377.477H379.314C379.314 299.461 381.152 299.747 381.764 299.83C384.967 299.794 388.719 299.193 391.222 301.607C393.761 304.057 392.96 311.461 392.946 314.921C392.563 314.85 392.186 314.754 391.808 314.663C391.143 313.496 391.613 310.517 391.663 309.155C391.742 306.984 391.932 304.019 390.271 302.352C389.213 301.291 387.709 301.133 386.287 301.085C380.121 300.879 373.887 301.067 367.716 301.072L331.91 301.086L221.706 301.095L88.7901 301.036L37.378 301.086C26.327 301.086 15.2468 300.908 4.1993 301.135C3.77575 301.382 3.33039 301.63 2.96515 301.959C0.204737 304.449 1.61773 311.249 1.33117 314.768L1.31022 314.998L0.318985 314.72C0.130749 314.208 0.133076 313.739 0.116498 313.201C0.0107839 309.768 -0.525791 303.762 2.0942 301.164C4.21951 299.056 12.6358 299.864 15.7042 299.845C20.329 299.684 24.9972 299.805 29.6266 299.806L55.5176 299.823C60.3374 299.824 65.2389 300.008 70.044 299.712L71.4278 299.662C73.4462 299.896 75.6658 299.739 77.7054 299.737L89.8672 299.721L127.416 299.804C127.147 299.6 126.881 299.398 126.627 299.175C125.4 298.098 124.37 296.833 124.297 295.138C124.252 294.078 124.719 293.135 125.47 292.404C125.986 291.9 126.566 291.613 127.274 291.479C129.304 291.098 131.592 291.296 133.657 291.305C137.181 291.337 140.704 291.333 144.228 291.293C146.421 291.279 148.633 291.204 150.824 291.3C151.288 291.39 151.728 291.461 152.199 291.509C152.57 291.547 152.697 291.613 152.988 291.831C152.221 292.346 150.839 292.321 149.91 292.646C148.712 293.308 147.003 294.242 146.545 295.619C146.332 296.257 146.383 296.844 146.728 297.417C147.278 298.331 148.222 298.926 149.081 299.519C154.574 300.254 160.954 299.76 166.547 299.764L200.9 299.779L259.732 299.831C270.072 299.846 280.688 300.171 290.997 299.8C292.131 299.759 293.056 299.528 293.988 298.855C294.904 298.193 295.668 297.218 295.855 296.08C295.995 295.232 295.818 294.421 295.309 293.726C294.926 293.204 294.427 292.869 293.818 292.653C293.899 292.201 294.071 291.851 294.263 291.439C294.853 291.183 295.439 290.937 295.905 290.48C296.451 289.944 296.619 289.315 296.797 288.593C297.553 285.521 298.036 282.323 298.636 279.214C299.843 273.07 301.019 266.919 302.163 260.762C304.6 247.815 307.267 234.922 309.472 221.931L311.55 209.723C312.038 207.02 312.835 204.085 312.885 201.341C312.917 199.591 312.739 198.243 311.442 196.971C310.551 196.098 309.756 195.957 308.553 195.849C304.972 195.525 301.189 195.753 297.588 195.756L277.398 195.765L212.954 195.723ZM127.98 292.598C127.153 292.74 126.281 292.925 125.74 293.638C125.259 294.274 125.31 295.265 125.523 295.995C125.916 297.334 126.997 298.254 128.219 298.841C131.436 300.387 142.663 299.728 146.896 299.712L147.029 299.546C146.195 298.47 145.093 297.325 145.331 295.864C145.549 294.526 146.738 293.434 147.654 292.517C141.107 292.533 134.523 292.402 127.98 292.598Z" fill="url(#paint1_linear_3001_600)"/>
<path d="M146.151 258.845C146.158 255.271 146.484 251.649 146.681 248.08L147.769 227.927C148.027 221.889 148.33 215.853 148.678 209.819C148.839 206.726 148.767 203.345 149.303 200.299C149.47 199.355 149.915 198.41 150.56 197.698C151.352 196.824 152.459 196.176 153.632 196.014C157.427 195.489 164.033 195.942 168.07 195.945L196.113 195.924C201.682 195.92 207.398 196.169 212.949 195.724L277.393 195.765L297.584 195.757C301.185 195.754 304.968 195.526 308.549 195.849C309.752 195.958 310.547 196.098 311.438 196.971C312.734 198.243 312.912 199.592 312.881 201.341C312.831 204.085 312.033 207.02 311.545 209.723L309.467 221.931C307.263 234.922 304.596 247.816 302.159 260.763C301.014 266.919 299.839 273.07 298.632 279.215C298.032 282.324 297.549 285.522 296.792 288.594C296.615 289.315 296.447 289.944 295.901 290.48C295.435 290.937 294.848 291.183 294.259 291.439C292.463 291.215 290.506 291.338 288.693 291.332L278.46 291.307L244.218 291.26L182.609 291.228C172.047 291.229 161.369 290.898 150.82 291.3C148.629 291.204 146.417 291.28 144.224 291.294C144.126 286.888 144.62 282.307 144.892 277.908C145.286 271.559 145.582 265.181 146.151 258.845ZM225.231 234.046C222.367 234.379 219.903 236.228 218.784 238.886C217.665 241.543 218.064 244.598 219.827 246.879C221.591 249.161 224.446 250.316 227.3 249.902C231.627 249.276 234.648 245.29 234.083 240.955C233.517 236.619 229.574 233.542 225.231 234.046Z" fill="#ECECEC"/>
<path d="M71.4237 299.662C70.1567 298.812 68.1428 298.367 66.69 297.773C61.6995 295.732 57.2166 291.828 54.4163 287.227C47.485 275.837 50.1934 264.014 54.2178 252.21C55.7335 247.826 57.2909 243.457 58.889 239.103C59.9221 236.336 61.4071 233.571 62.0944 230.7C62.1119 230.627 62.1274 230.554 62.1438 230.48C65.7121 232.451 69.222 234.527 72.9083 236.274C83.1952 241.149 94.3689 244.333 105.455 246.783C108.441 247.425 111.444 247.985 114.461 248.462C116.132 248.727 117.95 248.852 119.579 249.287C118.694 252.131 118.051 255.045 117.168 257.881C114.56 258.096 93.2627 259.856 91.8577 260.586C91.7221 260.656 91.6535 260.813 91.5514 260.927C91.5911 261.228 91.5314 261.388 91.7956 261.588C92.2636 261.943 92.8401 261.952 93.4052 261.935C95.8282 261.864 98.3088 261.343 100.731 261.108C105.576 260.638 111.082 260.558 115.773 259.508C116.243 259.403 116.685 259.29 117.117 259.07L118.382 258.897C127.638 258.814 136.895 258.797 146.151 258.845C145.582 265.181 145.286 271.558 144.892 277.907C144.62 282.307 144.126 286.888 144.224 291.293C140.7 291.333 137.176 291.337 133.653 291.305C131.588 291.296 129.3 291.098 127.27 291.48C126.562 291.613 125.982 291.9 125.465 292.404C124.715 293.135 124.248 294.078 124.293 295.138C124.365 296.833 125.396 298.098 126.623 299.175C126.877 299.398 127.142 299.6 127.412 299.804L89.863 299.721L77.7012 299.737C75.6616 299.739 73.442 299.896 71.4237 299.662Z" fill="#E9B49C"/>
<path d="M315.256 230.824C315.414 231.318 315.427 231.585 315.822 231.945C317.236 231.9 323.047 231.518 323.953 232.224C322.63 232.969 311.527 232.503 309.303 232.482L309.219 232.269L309.458 231.898C310.925 231.802 313.743 232.382 314.981 231.674C315.257 231.517 315.209 231.113 315.256 230.824Z" fill="#1C0C0A"/>
<path d="M309.301 232.482C311.525 232.503 322.627 232.969 323.951 232.225C323.619 235.267 323.769 238.439 323.765 241.5C322.071 242.874 320.942 244.382 320.76 246.626C320.637 248.137 321.027 249.901 322.035 251.068C322.188 251.246 322.352 251.412 322.519 251.577C323.399 260.44 324.758 269.314 326.008 278.132C327.035 285.377 327.928 292.683 329.163 299.892L294.734 299.904C295.709 299.073 296.626 298.004 297.028 296.768C297.64 294.894 296.518 294.207 295.973 292.648C295.785 292.108 296.484 291.351 296.781 290.939C298.263 288.885 298.335 286.791 298.811 284.363C301.144 272.726 303.401 261.075 305.584 249.409C306.126 246.449 307.839 234.717 308.647 232.943C308.823 232.556 308.924 232.621 309.301 232.482Z" fill="#6683C2"/>
<path d="M227.307 249.903C224.453 250.316 221.598 249.161 219.834 246.879C218.07 244.598 217.672 241.543 218.791 238.886C219.91 236.228 222.374 234.379 225.238 234.046C229.581 233.542 233.524 236.619 234.089 240.955C234.655 245.29 231.634 249.276 227.307 249.903Z" fill="white"/>
<path d="M117.12 259.07C116.688 259.29 116.247 259.403 115.776 259.508C111.085 260.558 105.579 260.638 100.734 261.108C98.312 261.343 95.8314 261.864 93.4085 261.935C92.8433 261.952 92.2668 261.943 91.7989 261.588C91.5347 261.388 91.5943 261.228 91.5547 260.927C91.6568 260.813 91.7254 260.656 91.8609 260.586C93.266 259.856 114.563 258.096 117.172 257.881L117.12 259.07Z" fill="#E99E87"/>
<path d="M33.0149 266.832C33.0545 266.877 33.088 266.929 33.1342 266.968C33.6899 267.433 36.6845 267.834 37.6151 268.139C44.0584 270.242 46.9219 278.057 48.0379 284.06C49.0036 289.258 48.9668 294.442 48.975 299.699C55.963 299.683 63.0629 299.399 70.039 299.713C65.2339 300.009 60.3324 299.825 55.5126 299.824L29.6215 299.807C24.9922 299.806 20.3239 299.685 15.6992 299.846C15.6747 291.914 15.4492 283.464 18.8484 276.1C20.9179 271.616 23.6433 269.199 28.2576 267.494C29.8038 267.099 31.5603 267.377 33.0149 266.832Z" fill="#93B1F2"/>
<path d="M150.82 291.301C161.369 290.898 172.047 291.23 182.609 291.228L244.218 291.261L278.46 291.308L288.693 291.332C290.506 291.338 292.463 291.215 294.259 291.44C294.066 291.852 293.895 292.202 293.814 292.654C291.894 292.826 289.866 292.698 287.934 292.691L276.735 292.653L242.126 292.602L180.05 292.573C170.018 292.578 159.93 292.881 149.906 292.647C150.834 292.322 152.217 292.347 152.983 291.832C152.693 291.614 152.566 291.548 152.194 291.51C151.724 291.462 151.284 291.391 150.82 291.301Z" fill="#5D4130"/>
<path d="M146.896 299.711C142.662 299.727 131.436 300.387 128.218 298.84C126.997 298.253 125.915 297.333 125.523 295.994C125.309 295.265 125.259 294.273 125.74 293.637C126.28 292.924 127.152 292.74 127.98 292.597C134.523 292.401 141.106 292.533 147.654 292.516C146.738 293.433 145.548 294.525 145.33 295.863C145.092 297.324 146.194 298.469 147.029 299.545L146.896 299.711Z" fill="#ECECEC"/>
<path d="M293.814 292.654C294.423 292.869 294.922 293.205 295.305 293.726C295.814 294.421 295.991 295.232 295.851 296.081C295.664 297.218 294.901 298.194 293.984 298.856C293.053 299.529 292.128 299.76 290.993 299.801C280.684 300.171 270.068 299.847 259.728 299.831L200.897 299.78L166.544 299.765C160.95 299.76 154.57 300.254 149.077 299.52C148.219 298.927 147.274 298.331 146.724 297.417C146.379 296.845 146.328 296.258 146.541 295.619C146.999 294.243 148.708 293.308 149.907 292.647C159.93 292.881 170.018 292.578 180.05 292.572L242.127 292.602L276.735 292.652L287.934 292.691C289.866 292.697 291.894 292.825 293.814 292.654Z" fill="#ECECEC"/>
<path d="M1.31043 314.998L1.33138 314.768C1.61794 311.248 0.204943 304.448 2.96536 301.959C3.3306 301.629 3.77595 301.381 4.19951 301.135C15.247 300.908 26.3272 301.086 37.3782 301.085L88.7903 301.035L221.706 301.095L331.91 301.085L367.716 301.071C373.887 301.066 380.121 300.879 386.287 301.085C387.709 301.133 389.213 301.291 390.271 302.352C391.933 304.018 391.742 306.983 391.663 309.155C391.613 310.516 391.143 313.496 391.808 314.662C392.187 314.753 392.563 314.849 392.947 314.921L109.824 314.953L31.6401 314.895L10.6175 314.876C7.67734 314.877 4.19216 314.514 1.31043 314.998Z" fill="#D4987C"/>
<path d="M310.117 197.431C309.586 196.017 309.113 194.466 308.45 193.113C308.065 192.328 307.671 191.972 306.859 191.689C306.409 191.655 305.995 191.644 305.555 191.761C304.936 191.927 304.427 192.249 304.121 192.826C303.885 193.273 303.789 193.78 303.844 194.283C303.975 195.576 305.068 197.784 305.497 199.142C305.773 198.932 306.061 198.736 306.342 198.535C307.523 197.836 308.77 197.583 310.117 197.431Z" fill="#554148"/>
<path d="M316.052 200.997C314.847 199.413 313.298 198.369 311.297 198.098C309.52 197.858 307.544 198.387 306.122 199.477C304.622 200.627 303.566 202.425 303.34 204.304C303.168 205.738 303.436 207.039 303.951 208.374C303.34 208.617 302.725 208.888 302.438 209.53C302.084 210.321 302.494 211.155 302.797 211.888C303.268 213.137 304.017 215.668 304.643 216.722C304.783 216.957 304.965 217.152 305.215 217.271C305.468 217.391 305.739 217.414 306.014 217.44C306.789 217.241 307.542 216.841 308.267 216.504C309.832 215.777 311.429 214.927 313.072 214.398L313.495 214.196C315.869 213.221 318.222 212.192 320.6 211.228C321.057 211.024 321.513 210.811 321.977 210.622C324.238 216.44 326.582 222.258 328.685 228.133L327.348 228.662L327.253 228.746C327.496 229.699 327.966 230.956 328.44 231.818L330.101 231.219C330.444 232.251 330.87 234.085 331.712 234.809C331.933 234.999 332.206 235.111 332.502 235.067C332.855 235.014 333.251 234.724 333.449 234.435C333.579 234.246 333.572 234.134 333.52 233.913C333.226 232.656 332.606 231.359 332.145 230.146L328.957 221.864L324.279 209.493C323.535 207.524 322.87 205.453 322.016 203.537C321.848 203.159 321.549 202.769 321.18 202.568C320.175 202.022 318.242 203.1 317.221 203.44C316.951 202.55 316.545 201.783 316.052 200.997Z" fill="#554148"/>
<path d="M320.598 211.23C318.22 212.194 315.867 213.223 313.494 214.198C314.09 215.388 314.51 216.713 314.985 217.959L317.666 224.953C319.101 228.58 320.491 232.225 321.835 235.887C322.399 237.406 323.167 239.013 323.527 240.592C326.242 240.637 328.964 240.595 331.68 240.588C331.174 239.664 330.864 238.471 330.507 237.474C329.833 235.584 329.143 233.699 328.439 231.82C327.965 230.958 327.494 229.701 327.252 228.748L327.346 228.664C327.005 228.357 321.384 213.202 320.598 211.23Z" fill="#F37E60"/>
<path d="M323.531 240.591C323.172 239.012 322.404 237.404 321.839 235.886C320.495 232.224 319.105 228.579 317.67 224.952L314.99 217.957C314.514 216.712 314.094 215.387 313.498 214.197L313.075 214.399C315.331 221.053 317.993 227.547 320.432 234.132C320.953 235.528 321.481 236.921 322.016 238.312C322.293 239.038 322.666 239.833 322.825 240.592L323.531 240.591Z" fill="#FEFEFE"/>
<path d="M313.07 214.4C311.428 214.93 309.83 215.779 308.265 216.506C307.54 216.843 306.787 217.243 306.013 217.442C308.286 224.086 311.07 230.558 313.404 237.179C313.739 238.128 314.569 239.657 314.693 240.58C317.402 240.604 320.111 240.608 322.82 240.593C322.662 239.835 322.289 239.04 322.011 238.313C321.476 236.923 320.948 235.529 320.428 234.133C317.989 227.548 315.327 221.054 313.07 214.4Z" fill="#F37E60"/>
<path d="M342.825 242.161C343.86 242.154 347.453 241.985 348.249 242.221L348.814 242.262C349.653 242.179 350.566 242.243 351.412 242.243C353.642 242.244 355.906 242.324 358.133 242.207C358.824 242.037 361.256 242.119 361.998 242.243C362.656 242.259 363.316 242.286 363.974 242.268C363.948 246.968 363.948 251.668 363.975 256.369C363.978 258.947 363.848 261.58 364.005 264.15C364.35 263.345 364.602 262.472 364.883 261.642C365.594 259.537 366.233 257.409 366.922 255.297C368.345 250.937 369.927 246.613 371.273 242.231L377.561 242.209C381.57 242.145 385.631 242.091 389.639 242.2L386.743 249.991C383.907 257.972 381.238 266.011 378.739 274.103C378.137 275.962 377.554 277.827 376.989 279.697C376.5 281.322 376.054 282.972 375.464 284.564C372.668 280.055 369.711 275.62 366.798 271.184C366.065 270.068 365.347 268.941 364.604 267.832C364.193 267.218 363.727 266.619 363.349 265.985L359.315 259.915C358.633 258.891 357.992 257.731 357.185 256.81C356.837 256.413 356.346 255.958 355.813 255.843C355.304 255.734 354.687 255.89 354.26 256.175C353.875 256.431 353.571 256.834 353.493 257.296C353.439 257.616 353.487 257.907 353.616 258.201C354.145 259.403 355.086 260.557 355.823 261.652C357.048 263.474 358.194 265.345 359.406 267.175C360.143 268.286 361.253 269.738 361.836 270.883C364.314 274.492 366.638 278.233 369.02 281.907L372.073 286.633C372.671 287.562 373.314 288.485 373.846 289.453C372.552 293.141 371.301 296.844 370.091 300.561C371.702 300.656 373.356 300.58 374.972 300.578L384.094 300.546C384.312 299.25 384.448 297.929 384.631 296.627L385.806 288.304L389.531 261.991L391.386 248.909C391.665 246.95 392.28 243.907 392.223 242.042C392.214 241.756 392.048 241.487 391.814 241.314C391.365 240.984 381.019 241.137 379.791 241.137L334.447 241.215L320.765 241.223C318.475 241.222 315.749 241.056 313.518 241.307C313.302 241.444 313.123 241.591 313.025 241.837C312.855 242.266 312.934 242.811 312.987 243.259C313.594 248.047 314.241 252.83 314.929 257.607C316.355 268.173 317.834 278.733 319.368 289.284C319.702 291.611 320.046 293.942 320.349 296.272C320.478 297.267 320.6 299.646 320.954 300.453C321.204 300.576 321.507 300.535 321.78 300.527C321.794 298.079 321.921 295.634 321.94 293.185C321.948 292.061 321.78 289.322 321.984 288.394C322.598 288.155 325.527 284.468 326.081 283.683C326.535 283.041 326.892 282.341 327.342 281.701L327.382 281.644C327.718 280.921 328.07 280.234 328.559 279.601C329.164 280.182 329.564 280.944 329.993 281.657C330.19 282.001 330.368 282.361 330.646 282.647L330.863 282.678C329.334 278.356 327.597 274.122 325.946 269.848C323.511 263.574 321.108 257.287 318.738 250.988C317.633 248.098 316.426 245.219 315.405 242.301L320.441 242.295C321.422 242.293 322.433 242.332 323.41 242.244C324.446 244.64 325.286 247.151 326.213 249.595L332.093 265.278C336.524 276.999 340.881 288.749 345.161 300.527L345.917 300.532C343.958 295.455 342.185 290.304 340.301 285.199L330.073 257.871L326.159 247.432C325.512 245.72 324.914 243.978 324.192 242.296L332.343 242.296C333.15 244.305 333.845 246.376 334.602 248.406L340.268 263.486C340.347 263.323 340.353 263.215 340.343 263.038C340.22 260.899 339.781 258.7 339.49 256.575C338.809 251.793 338.162 247.008 337.548 242.217C339.258 242.197 340.97 242.132 342.679 242.166L342.825 242.161Z" fill="#9BB4EB"/>
<path d="M330.866 282.68C331.883 284.984 333.827 286.629 335.412 288.518L335.544 288.588C335.712 289.963 335.552 291.546 335.544 292.939C335.539 294.014 335.668 296.245 335.487 297.215C336.03 298.215 336.353 299.464 336.738 300.541C337.766 300.627 338.833 300.574 339.865 300.568L345.164 300.529C340.884 288.751 336.527 277.002 332.095 265.28L326.216 249.597C325.289 247.154 324.449 244.642 323.412 242.246C322.436 242.335 321.425 242.296 320.444 242.298L315.408 242.303C316.429 245.221 317.636 248.101 318.74 250.99C321.111 257.289 323.513 263.576 325.949 269.85C327.6 274.125 329.337 278.359 330.866 282.68Z" fill="#F37E60"/>
<path d="M340.273 263.487L334.607 248.407C333.85 246.377 333.156 244.306 332.348 242.297L324.197 242.297C324.92 243.979 325.517 245.721 326.164 247.433L330.078 257.872L340.306 285.2C342.19 290.305 343.963 295.457 345.922 300.533C346.591 300.538 347.26 300.536 347.93 300.529C346.337 298.344 345.212 295.02 344.588 292.384C344.143 291.783 341.873 274.097 341.574 271.807C341.248 269.314 341.011 265.77 340.273 263.487Z" fill="#F37E60"/>
<path d="M330.86 282.678L330.643 282.647C330.365 282.362 330.186 282.001 329.989 281.658C329.12 281.711 328.248 281.707 327.379 281.645L327.339 281.701C326.889 282.342 326.532 283.041 326.078 283.684C325.523 284.468 322.595 288.155 321.981 288.394C322.003 288.4 322.026 288.405 322.048 288.411C323.493 288.813 324.441 290.267 325.884 290.639C327.961 291.175 330.135 289.348 332.058 288.797C333.151 288.484 334.281 288.507 335.406 288.517C333.821 286.628 331.877 284.982 330.86 282.678Z" fill="#E9B49C"/>
<path d="M335.409 288.517C334.283 288.507 333.154 288.484 332.06 288.797C330.138 289.348 327.963 291.175 325.886 290.639C324.443 290.267 323.496 288.814 322.051 288.412C322.028 288.405 322.006 288.4 321.983 288.395C321.78 289.323 321.947 292.062 321.939 293.186C321.921 295.635 321.794 298.079 321.78 300.528C323.288 300.465 324.819 300.516 326.329 300.514L335.491 300.525L335.483 297.213C335.665 296.243 335.536 294.012 335.541 292.937C335.548 291.545 335.709 289.962 335.541 288.586L335.409 288.517Z" fill="#F37E60"/>
<path d="M283.159 301.08C284.129 301.152 286.539 301.232 287.394 301.02C287.54 300.82 287.506 300.75 287.5 300.509C286.56 300.497 284.046 300.308 283.285 300.577C283.148 300.775 283.167 300.845 283.159 301.08Z" fill="#554148"/>
<defs>
<linearGradient id="paint0_linear_3001_600" x1="300.543" y1="174.04" x2="343.939" y2="179.017" gradientUnits="userSpaceOnUse">
<stop stop-color="#FDE8E5"/>
<stop offset="1" stop-color="#FBFDF7"/>
</linearGradient>
<linearGradient id="paint1_linear_3001_600" x1="206.619" y1="186.51" x2="194.746" y2="330.386" gradientUnits="userSpaceOnUse">
<stop stop-color="#3D2318"/>
<stop offset="1" stop-color="#4F3C3C"/>
</linearGradient>
</defs>
</svg>
