<svg width="394" height="431" viewBox="0 0 394 431" fill="none" xmlns="http://www.w3.org/2000/svg">
<path d="M102.517 89.3405C77.8864 91.3844 56.2629 73.0725 54.2218 48.4415C52.1802 23.8105 70.4937 2.18916 95.1247 0.149203C119.753 -1.88998 141.372 16.4211 143.413 41.0494C145.454 65.6776 127.145 87.2978 102.517 89.3405Z" fill="#647CAF"/>
<path d="M185.415 47.3657C175.929 48.9865 166.923 42.6174 165.291 33.1337C163.658 23.65 170.016 14.6364 179.498 12.9917C188.996 11.3447 198.029 17.7161 199.665 27.2164C201.3 36.7168 194.918 45.742 185.415 47.3657Z" fill="#647CAF"/>
<path d="M223.941 78.0384C219.546 75.072 214.723 73.3989 209.476 72.7883C208.51 72.6757 207.197 72.4203 206.249 72.6729C205.476 72.8783 205.395 73.0831 205.09 73.7431L205.19 74.4864C206.8 74.8016 208.681 74.553 210.332 74.5907C214.361 74.6829 218.449 76.4986 221.782 78.6606C210.767 81.2313 197.735 85.929 191.498 96.1116C186.36 104.5 188.342 115.478 190.581 124.484C192.557 132.433 195.473 139.933 198.515 147.517C194.27 149.685 191.741 153.182 190.319 157.67C188.335 163.935 188.669 171.278 191.745 177.136C193.905 181.25 197.929 185.169 202.413 186.605C205.133 187.477 208.21 187.547 210.796 186.202C211.684 185.741 212.468 185.086 213.243 184.461C214.442 188.058 215.307 191.763 216.492 195.366C218.986 202.956 222.877 209.877 227.753 216.187C229.541 218.5 231.566 220.584 233.602 222.676C234.26 223.353 235.387 224.207 235.887 224.955C236.302 225.667 236.699 226.407 237.161 227.09C234.147 227.374 230.991 227.171 227.962 227.13C227.116 226.766 226.723 226.86 225.88 227.101C225.724 227.138 225.567 227.178 225.41 227.214C221.768 228.034 217.52 227.328 213.765 227.912C200.004 229.937 187.061 235.692 176.341 244.554C174.738 245.9 172.417 247.502 171.227 249.214C171.077 249.428 170.975 249.672 170.931 249.929C169.36 250.111 168.848 250.541 167.88 251.748C164.252 256.267 158.78 265.386 155.64 270.621C154.996 270.76 154.353 270.904 153.705 271.032C150.685 271.628 147.697 273.732 145.975 276.269C142.364 281.591 145.418 285.457 144.422 288.963C134.926 307.051 124.673 324.777 115.009 342.784C109.294 353.434 102.462 363.94 99.5697 375.809C97.6219 383.871 97.8656 392.308 100.274 400.245C103.493 410.46 110.592 419.003 120.045 424.037C122.72 425.433 125.506 426.5 128.364 427.452C115.038 427.171 101.71 427.101 88.3824 427.242C89.658 419.142 90.3818 410.886 91.3499 402.74C93.1223 387.826 94.9219 372.82 96.182 357.858L80.0599 357.883C81.9983 352.753 82.8609 347.485 83.0885 342.01C83.2295 338.624 83.0358 335.045 84.0066 331.761C86.2536 324.161 93.8068 322.004 94.1054 312.318C94.3863 303.207 87.5059 302.474 82.6261 297.301C79.3738 293.854 79.8868 289.594 80.0111 285.231C80.1704 279.625 78.8537 273.597 74.7916 269.464C73.1813 267.826 70.735 266.227 68.3564 266.251C61.9063 266.316 59.5438 274.427 56.0345 278.622C54.0801 280.959 51.5472 282.746 49.4301 284.928C38.9777 295.699 53.1758 304.187 53.2685 314.721C53.3546 324.509 41.9824 329.072 42.2888 338.45C42.5286 345.797 48.7329 353.214 53.8636 357.927L35.7575 357.937L39.248 387.605C40.0213 393.974 41.061 400.451 41.3602 406.857C41.2447 406.801 41.1276 406.747 41.0138 406.687C38.6397 405.452 36.2486 402.338 34.6315 400.26C24.9503 387.825 17.485 372.386 12.4183 357.49C0.997112 323.909 0.820982 286 10.9973 252.068C14.1596 241.891 18.1517 231.991 22.9336 222.468C34.2556 199.646 53.5705 179.105 76.1704 167.249C84.529 162.864 93.235 159.287 101.696 155.128C113.379 149.385 124.915 142.128 134.856 133.714C143.669 126.255 152.082 117.866 158.157 107.981C161.291 102.882 163.817 97.4416 167.041 92.3919C183.683 66.3304 210.149 49.7427 239.001 40.0191C291.379 22.3673 352.494 29.3431 401.555 53.7521C451.778 78.7389 490.917 125.181 508.654 178.242C516.128 200.603 519.865 224.762 517.026 248.275C516.608 251.743 516.391 256.385 514.838 259.496C508.909 259.011 502.567 259.539 496.59 259.6L495.988 258.922C493.206 257.86 478.425 258.441 474.395 258.479C472.539 258.217 470.444 258.371 468.559 258.364L456.786 258.327L437.419 258.278C433.395 258.269 429.3 258.105 425.291 258.429C425.733 254.802 425.705 251.23 425.708 247.582C440.336 247.536 455.007 247.257 469.629 247.368C475.093 247.46 480.558 247.521 486.022 247.55C488.904 247.57 492.211 247.893 495.019 247.288C495.299 246.56 495.234 246.124 495.152 245.369C492.075 244.285 481.204 246.231 478.719 245.093C478.641 245.058 478.574 245.002 478.501 244.957C482.62 244.923 495.15 245.839 498.119 243.769C498.448 243.154 498.676 242.617 498.403 241.906C498.194 241.36 497.964 241.137 497.412 240.993C495.533 240.503 482.942 240.89 480.15 240.88L441.944 240.869C434.687 240.898 427.387 240.793 420.138 241.128C420.15 246.564 420.094 252.009 420.26 257.442C420.239 258.261 420.362 258.842 419.895 259.53C414.849 260.165 406.748 259.612 401.296 259.601L401.265 270.974L511.912 271.019C507.579 284.57 501.192 296.59 493.494 308.49C491.824 311.072 488.6 316.421 485.688 317.682C485.393 317.81 485.207 317.821 484.909 317.864L484.487 318.46C484.669 316.699 484.713 315.021 484.652 313.252C483.886 312.528 483.146 311.805 482.276 311.205C474.019 310.805 465.619 311.147 457.344 311.137C451.363 311.129 444.79 310.58 438.872 311.328C438.191 311.415 437.68 311.722 437.179 312.173C436.267 312.993 436.26 314.032 436.239 315.177C436.151 319.87 436.252 324.581 436.24 329.275C436.226 334.04 435.621 339.699 436.883 344.332C437.343 346.022 438.399 347.58 439.622 348.814C441.018 350.222 442.653 351.272 444.327 352.315C438.98 352.474 433.63 352.539 428.28 352.512C425.806 352.521 422.634 352.18 420.253 352.729C418.57 348.702 408.614 328.079 406.712 326.409C406.538 323.986 378.293 270.354 374.639 264.564C372.785 261.625 370.443 258.89 368.206 256.239C367.23 255.082 366.034 253.901 365.234 252.619C365.165 252.508 365.098 252.394 365.029 252.282C363.959 250.582 362.185 249.084 360.575 247.905C348.378 237.493 335.087 229.889 318.892 227.876C314.972 227.389 310.979 227.838 307.052 227.374C306.932 227.36 306.812 227.343 306.692 227.328C306.058 227.175 305.747 227.08 305.13 227.415C305.007 227.481 304.91 227.585 304.801 227.67C301.954 227.759 299.106 227.734 296.261 227.594C297.371 226.334 298.055 225.052 298.744 223.544C309.924 213.383 316.899 200.842 320.119 186.127C320.758 186.525 321.4 186.892 322.083 187.212C324.814 188.494 327.704 188.381 330.503 187.363C335.825 185.427 339.813 180.635 342.12 175.612C344.802 169.774 345.614 162.832 343.276 156.742C341.65 152.503 338.96 149.738 334.836 147.867C339.42 140.671 343.89 133.636 343.644 124.763C343.495 119.358 341.527 114.831 337.591 111.122C338.544 103.09 340.777 94.5667 338.292 86.5962C333.367 70.7989 315.244 74.2454 303.369 67.6343C296.372 63.7393 291.487 57.0449 284.477 53.3707C275.511 48.6719 265.311 49.7871 255.969 52.734C242.437 57.0032 230.599 65.3268 223.941 78.0384ZM422.853 221.326C422.747 221.342 422.64 221.36 422.534 221.374C419.752 221.764 411.172 220.945 409.402 222.246C409.254 222.965 409.327 223.115 409.57 223.818C410.75 224.98 412.266 225.027 413.852 225.021C416.569 225.011 420.022 225.279 422.643 224.643L422.809 224.376C426.324 225.247 437.735 224.664 442.009 224.662L487.354 224.592C488.049 224.648 488.801 224.759 489.494 224.674C490.162 224.592 490.65 224.275 491.019 223.696C491.483 222.967 491.684 222.108 491.435 221.261C491.265 220.684 490.85 220.09 490.268 219.868C488.277 219.108 481.243 219.599 478.689 219.605L445.602 219.822C439.984 219.872 434.229 220.202 428.627 219.906C427.495 219.846 426.285 219.768 425.281 219.19C423.811 218.341 422.9 216.64 422.527 215.034C422.113 213.256 422.352 211.284 423.396 209.759C424.136 208.678 425.309 207.841 426.582 207.526C431.171 206.39 439.944 206.988 444.891 206.972L480.878 206.876C484.349 206.863 489.336 207.52 492.622 206.797C493.202 206.669 493.336 206.622 493.607 206.088C493.892 205.525 493.875 204.996 493.667 204.434C493.037 203.843 492.068 203.895 491.248 203.86C486.433 203.653 481.554 203.81 476.731 203.813L451.146 203.787L436.044 203.757C433.03 203.749 429.8 203.509 426.82 203.983C424.882 204.291 423.146 205.232 421.743 206.596C419.8 208.484 418.854 210.826 418.893 213.523C418.941 216.854 420.572 219.095 422.853 221.326ZM472.252 226.141C467.174 226.7 461.745 226.395 456.624 226.413L424.304 226.321L424.302 238.968C432.619 239.755 441.344 239.198 449.702 239.183C465.255 239.198 480.882 239.521 496.425 239.062C497.091 234.891 496.764 230.342 496.678 226.126L472.252 226.141Z" fill="#647CAF"/>
<path d="M223.94 78.0376C230.598 65.326 242.435 57.0025 255.968 52.7333C265.31 49.7863 275.51 48.6711 284.476 53.37C291.485 57.0441 296.371 63.7385 303.368 67.6336C315.243 74.2447 333.366 70.7981 338.291 86.5954C340.776 94.566 338.543 103.089 337.59 111.121C341.526 114.831 343.493 119.357 343.643 124.762C343.889 133.635 339.418 140.67 334.835 147.866C330.01 146.832 324.946 147.952 321.491 151.625C320.369 152.817 319.279 154.522 317.888 155.355L317.397 155.152C316.208 152.623 316.074 137.673 315.819 133.898C310.835 133.44 306.013 132.646 301.342 130.761C291.432 126.762 286.554 119.705 282.56 110.167C281.889 111.199 281.2 112.218 280.493 113.226C271.841 125.552 258.922 134.991 243.913 137.584C234.605 139.193 224.483 138.725 216.535 133.155C216.543 137.079 217.279 153.165 215.027 155.846C214.823 155.861 214.611 155.956 214.418 155.893C213.793 155.688 209.607 150.213 207.712 148.97C204.96 147.167 202.03 146.697 198.842 147.437L198.514 147.516C195.471 139.932 192.556 132.432 190.579 124.484C188.341 115.477 186.359 104.499 191.497 96.1108C197.734 85.9282 210.766 81.2305 221.781 78.6599L222.541 78.9729C223.345 78.7837 223.386 78.6671 223.94 78.0376Z" fill="#5D4130"/>
<path d="M221.783 78.66C218.45 76.498 214.361 74.6823 210.332 74.5901C208.681 74.5524 206.801 74.8011 205.19 74.4858L205.09 73.7425C205.396 73.0825 205.476 72.8777 206.249 72.6723C207.197 72.4197 208.51 72.6751 209.476 72.7878C214.723 73.3984 219.547 75.0714 223.941 78.0378C223.388 78.6673 223.346 78.7838 222.542 78.9731L221.783 78.66Z" fill="#413146"/>
<path d="M198.512 147.517L198.84 147.437C202.028 146.697 204.958 147.168 207.71 148.971C209.606 150.213 213.792 155.688 214.416 155.894C214.61 155.957 214.822 155.862 215.025 155.846C217.277 153.166 216.541 137.08 216.533 133.156C224.481 138.726 234.604 139.194 243.911 137.585C258.92 134.992 271.839 125.552 280.492 113.227C281.198 112.219 281.887 111.199 282.558 110.168C286.553 119.706 291.43 126.762 301.34 130.761C306.011 132.646 310.834 133.44 315.818 133.899C316.072 137.674 316.206 152.624 317.396 155.152L317.887 155.356C319.277 154.522 320.368 152.818 321.49 151.625C324.944 147.952 330.009 146.833 334.833 147.867C338.957 149.738 341.647 152.503 343.274 156.742C345.611 162.832 344.799 169.774 342.117 175.612C339.81 180.634 335.822 185.427 330.5 187.363C327.701 188.381 324.811 188.493 322.08 187.212C321.397 186.891 320.755 186.525 320.116 186.127C316.896 200.841 309.921 213.383 298.741 223.544C298.673 223.591 298.603 223.636 298.536 223.684C295.793 225.597 293.523 228.191 290.857 230.23C282.485 236.63 271.635 240.011 261.152 238.286C256.723 237.545 252.456 236.039 248.544 233.836C243.74 231.154 241.306 228.157 237.228 225.422C236.77 225.116 236.448 224.972 235.884 224.955C235.385 224.207 234.257 223.353 233.599 222.676C231.563 220.584 229.538 218.5 227.75 216.187C222.874 209.877 218.983 202.956 216.489 195.366C215.304 191.762 214.439 188.058 213.24 184.461C212.465 185.086 211.681 185.741 210.794 186.202C208.207 187.546 205.131 187.476 202.41 186.605C197.927 185.168 193.902 181.249 191.742 177.136C188.667 171.278 188.332 163.935 190.316 157.67C191.738 153.181 194.267 149.685 198.512 147.517ZM239.884 147.009C236.676 147.358 230.751 148.126 228.605 150.818C228.168 151.366 227.941 152.156 228.101 152.86C228.267 153.586 228.52 153.932 229.143 154.348C231.117 155.667 237.239 153.336 239.522 153.015C241.453 152.738 243.412 152.697 245.353 152.893C247.781 153.101 254.57 155.302 256.139 153.986C256.973 153.287 257.5 152.546 257.584 151.434C257.326 150.484 256.88 150.01 256.048 149.512C252.215 147.211 244.263 146.333 239.884 147.009ZM286.165 147C283.823 147.304 277.941 148.118 276.641 150.242C276.19 150.98 276.153 152.216 276.531 152.989C276.86 153.662 277.316 154.173 278.054 154.398C280.417 155.119 285.069 153.121 287.684 152.861C290.13 152.617 292.528 152.777 294.944 153.216C296.809 153.772 301.191 155.827 302.934 154.862C303.527 154.533 304.196 153.54 304.326 152.879C304.471 152.144 304.329 151.626 303.899 151.022C301.956 148.295 294.77 147.231 291.641 146.973C289.886 146.828 287.908 146.745 286.165 147ZM197.635 157.682L197.372 158.556C197.986 159.52 202.727 161.685 204.15 162.83C205.739 164.11 207.091 165.771 208.327 167.383C206.994 168.767 204.16 171.368 204.185 173.365C205.923 172.95 207.625 169.662 208.903 168.376C209.843 169.856 210.615 171.312 211.324 172.915C212.25 175.645 211.549 177.525 211.949 178.895C212.013 179.112 212.273 179.212 212.436 179.37C213.053 179.006 213.201 178.574 213.396 177.884C214.27 174.79 211.921 170.395 210.286 167.835C207.399 163.319 202.842 159.239 197.635 157.682ZM335.083 158.006C329.843 159.342 326.331 162.761 323.617 167.322C322.013 170.02 320.002 173.81 320.771 177.024C320.983 177.91 321.499 178.969 322.254 179.519C322.474 179.68 322.641 179.702 322.885 179.764L323.265 179.463C323.056 178.888 322.789 178.508 322.444 178.016C321.7 176.949 321.652 176.144 321.862 174.875C322.024 173.89 322.351 172.911 322.64 171.956C323.325 170.422 324.003 169.311 325.753 168.872C326.477 168.691 326.666 168.838 327.29 169.157C328.084 170.201 327.869 172.396 328.51 172.891C329.054 172.459 329.227 172.339 329.357 171.607C329.514 170.724 329.024 169.643 328.698 168.85C327.698 167.866 326.668 167.977 325.374 167.987C325.127 167.989 324.88 167.993 324.633 167.998C326.774 164.748 329.473 160.867 333.437 159.719C333.976 159.563 334.625 159.556 335.179 159.499C335.665 159.451 335.838 159.401 336.213 159.097C336.176 158.49 336.198 158.497 335.767 158.073L335.083 158.006ZM269.701 162.825C268.149 165.849 267.335 169.514 266.278 172.757C264.075 179.425 261.911 186.107 259.785 192.8C262.88 193.327 266.005 193.787 269.072 194.458C269.37 193.806 269.479 193.762 269.278 193.086C267.361 191.881 263.894 191.956 261.619 191.75C262.665 188.784 270.782 164.963 270.788 163.87C270.789 163.666 270.628 163.495 270.548 163.307L269.701 162.825ZM243.194 163.612C241.407 163.99 240.114 164.625 239.08 166.195C238.265 167.452 237.98 168.98 238.286 170.446C238.604 171.987 239.633 173.416 240.988 174.214C241.802 174.693 242.822 174.849 243.738 175.034C245.738 174.429 247.125 173.749 248.097 171.811C248.869 170.295 248.954 168.52 248.329 166.937C247.815 165.648 246.677 164.491 245.377 163.985C244.699 163.721 243.913 163.679 243.194 163.612ZM288.063 163.896C286.48 164.807 285.401 165.743 284.954 167.58C284.551 169.24 284.774 171.008 285.717 172.45C286.454 173.569 287.6 174.355 288.91 174.637C289.731 174.815 290.553 174.654 291.366 174.513C293.123 173.452 294.357 172.338 294.858 170.268C295.201 168.85 295.017 167.324 294.225 166.083C293.461 164.886 292.118 163.998 290.713 163.78C289.844 163.646 288.929 163.792 288.063 163.896ZM235.438 178.913C232.282 179.349 228.5 180.188 226.401 182.795C225.622 183.764 225.222 184.938 225.389 186.181C225.612 187.853 226.776 189.235 228.102 190.196C231.11 192.376 234.865 192.543 238.436 192.42C241.498 191.956 244.722 191.443 246.735 188.818C247.612 187.674 247.926 186.426 248.231 185.042C247.803 184.025 247.401 183 246.855 182.039C243.042 179.661 239.914 178.675 235.438 178.913ZM295.35 179.183C292.546 179.606 289.238 180.383 287.399 182.73C286.62 183.725 286.218 184.962 286.408 186.223C286.665 187.929 287.851 189.311 289.236 190.26C291.974 192.139 295.932 192.66 299.201 192.297C302.096 191.999 305.339 191.461 307.278 189.045C308.148 187.961 308.553 186.616 308.31 185.234C308.01 183.526 306.819 182.127 305.414 181.182C302.59 179.284 298.693 178.725 295.35 179.183ZM250.294 205.76C252.637 211.033 255.988 215.42 261.596 217.477C265.607 218.904 270.025 218.649 273.845 216.769C275.533 215.913 277.086 214.814 278.454 213.507C280.592 211.07 282.059 208.767 283.249 205.745C272.284 205.631 261.257 205.539 250.294 205.76Z" fill="#E9B49C"/>
<path d="M245.354 152.893C243.413 152.697 241.454 152.738 239.523 153.015C237.24 153.336 231.118 155.667 229.144 154.348C228.521 153.932 228.268 153.586 228.102 152.86C227.942 152.155 228.169 151.366 228.606 150.818C230.752 148.126 236.677 147.358 239.885 147.009C244.264 146.333 252.216 147.211 256.049 149.511C256.881 150.01 257.327 150.483 257.585 151.434C257.501 152.546 256.974 153.287 256.14 153.985C254.571 155.302 247.782 153.101 245.354 152.893Z" fill="#5D4130"/>
<path d="M294.945 153.217C292.529 152.777 290.131 152.618 287.685 152.861C285.07 153.122 280.418 155.119 278.055 154.398C277.317 154.173 276.861 153.662 276.532 152.99C276.154 152.216 276.191 150.98 276.642 150.242C277.942 148.119 283.824 147.304 286.166 147C287.909 146.745 289.887 146.829 291.642 146.973C294.771 147.232 301.957 148.296 303.9 151.022C304.33 151.626 304.472 152.145 304.327 152.88C304.197 153.541 303.528 154.533 302.935 154.862C301.192 155.827 296.81 153.772 294.945 153.217Z" fill="#5D4130"/>
<path d="M208.326 167.382C207.09 165.77 205.738 164.11 204.149 162.83C202.726 161.684 197.986 159.52 197.371 158.556L197.634 157.682C202.842 159.238 207.398 163.319 210.285 167.835C211.921 170.394 214.269 174.79 213.395 177.884C213.2 178.574 213.052 179.005 212.435 179.37C212.272 179.211 212.012 179.112 211.948 178.894C211.548 177.525 212.249 175.645 211.323 172.915C210.614 171.311 209.842 169.856 208.902 168.375C207.624 169.662 205.922 172.949 204.184 173.365C204.159 171.367 206.993 168.766 208.326 167.382Z" fill="#413146"/>
<path d="M322.648 171.956C322.359 172.911 322.031 173.889 321.869 174.875C321.66 176.144 321.708 176.949 322.452 178.015C322.796 178.508 323.063 178.888 323.273 179.462L322.893 179.763C322.649 179.702 322.482 179.679 322.262 179.519C321.507 178.969 320.991 177.909 320.778 177.023C320.01 173.81 322.02 170.02 323.625 167.322C326.339 162.76 329.85 159.341 335.091 158.006L335.774 158.073C336.206 158.497 336.184 158.489 336.221 159.097C335.846 159.4 335.673 159.45 335.187 159.499C334.632 159.556 333.984 159.562 333.445 159.718C329.481 160.867 326.781 164.748 324.64 167.998C324.887 167.992 325.135 167.989 325.382 167.987C326.676 167.977 327.705 167.866 328.706 168.85C329.032 169.643 329.522 170.724 329.365 171.607C329.235 172.338 329.062 172.458 328.518 172.891C327.876 172.395 328.091 170.201 327.297 169.157C326.674 168.838 326.484 168.69 325.76 168.872C324.011 169.31 323.332 170.422 322.648 171.956Z" fill="#413146"/>
<path d="M259.781 192.799C261.907 186.105 264.071 179.424 266.274 172.755C267.331 169.512 268.145 165.848 269.697 162.824L270.544 163.306C270.624 163.494 270.785 163.665 270.784 163.868C270.778 164.961 262.661 188.783 261.615 191.748C263.89 191.954 267.357 191.879 269.274 193.084C269.475 193.761 269.366 193.804 269.068 194.457C266.001 193.786 262.876 193.325 259.781 192.799Z" fill="#413146"/>
<path d="M243.732 175.033C242.816 174.848 241.796 174.693 240.982 174.214C239.627 173.415 238.598 171.986 238.28 170.446C237.974 168.979 238.259 167.451 239.074 166.194C240.108 164.624 241.401 163.989 243.188 163.611C243.907 163.678 244.693 163.72 245.372 163.984C246.672 164.49 247.809 165.647 248.324 166.936C248.948 168.519 248.863 170.294 248.091 171.811C247.119 173.748 245.732 174.428 243.732 175.033Z" fill="#433849"/>
<path d="M291.369 174.513C290.556 174.654 289.734 174.815 288.913 174.637C287.603 174.355 286.457 173.569 285.721 172.45C284.778 171.008 284.554 169.24 284.957 167.58C285.404 165.743 286.483 164.807 288.066 163.896C288.932 163.793 289.847 163.646 290.716 163.78C292.121 163.999 293.464 164.886 294.228 166.083C295.021 167.325 295.204 168.851 294.861 170.268C294.361 172.338 293.126 173.452 291.369 174.513Z" fill="#433849"/>
<path d="M238.433 192.419C234.861 192.542 231.106 192.375 228.099 190.195C226.773 189.234 225.609 187.852 225.385 186.18C225.218 184.937 225.618 183.763 226.397 182.794C228.496 180.186 232.278 179.348 235.434 178.911C239.911 178.674 243.038 179.66 246.851 182.038C247.397 182.999 247.799 184.024 248.228 185.041C247.922 186.425 247.609 187.672 246.732 188.817C244.719 191.442 241.495 191.955 238.433 192.419Z" fill="#E99E87"/>
<path d="M299.206 192.297C295.938 192.66 291.98 192.138 289.241 190.26C287.857 189.31 286.671 187.929 286.414 186.222C286.224 184.961 286.626 183.725 287.405 182.73C289.244 180.382 292.551 179.606 295.356 179.182C298.699 178.724 302.596 179.284 305.42 181.182C306.825 182.127 308.016 183.526 308.316 185.234C308.559 186.615 308.154 187.96 307.284 189.045C305.345 191.461 302.102 191.998 299.206 192.297Z" fill="#E99E87"/>
<path d="M278.457 213.507C277.088 214.814 275.535 215.913 273.848 216.769C270.028 218.649 265.61 218.904 261.599 217.477C255.99 215.42 252.639 211.033 250.297 205.759C261.259 205.539 272.287 205.631 283.251 205.744C282.061 208.767 280.594 211.07 278.457 213.507Z" fill="#FEFEFE"/>
<path d="M235.883 224.954C236.447 224.971 236.769 225.115 237.227 225.421C241.306 228.156 243.74 231.153 248.543 233.835C252.456 236.038 256.722 237.544 261.151 238.285C271.634 240.01 282.484 236.629 290.856 230.228C293.522 228.19 295.793 225.596 298.535 223.683C298.602 223.635 298.672 223.59 298.741 223.543C298.051 225.051 297.367 226.333 296.258 227.593C294.173 229.283 292.24 231.19 290.076 232.778C284.04 237.206 276.005 239.808 268.561 240.119C255.919 240.646 246.196 235.445 237.157 227.088C236.695 226.406 236.299 225.666 235.883 224.954Z" fill="#413146"/>
<path d="M225.887 227.101C226.729 226.861 227.122 226.767 227.968 227.13C232.991 239.704 243.077 253.423 255.84 258.816C263.244 261.943 271.928 262.136 279.38 259.069C291.845 253.941 299.045 241.765 303.925 229.864C304.224 229.134 304.518 228.403 304.807 227.67C304.917 227.585 305.014 227.481 305.136 227.415C305.754 227.081 306.065 227.175 306.698 227.329C306.556 227.764 306.406 228.197 306.249 228.627C301.678 241.181 293.937 254.126 281.379 259.942C273.417 263.629 264.685 263.847 256.471 260.799C241.605 255.284 232.223 240.871 225.887 227.101Z" fill="#C5563A"/>
<path d="M237.16 227.09C246.199 235.447 255.923 240.648 268.564 240.121C276.008 239.81 284.043 237.207 290.079 232.78C292.243 231.192 294.177 229.285 296.261 227.594C299.105 227.734 301.954 227.759 304.8 227.67C304.511 228.403 304.217 229.134 303.918 229.864C299.038 241.765 291.838 253.941 279.373 259.069C271.921 262.135 263.237 261.943 255.834 258.815C243.07 253.423 232.984 239.704 227.961 227.13C230.991 227.171 234.147 227.375 237.16 227.09Z" fill="#E9B49C"/>
<path d="M170.924 249.928C170.969 249.671 171.07 249.426 171.221 249.213C172.41 247.501 174.731 245.899 176.334 244.553C187.054 235.691 199.997 229.936 213.758 227.911C217.513 227.327 221.761 228.033 225.403 227.213C225.561 227.177 225.717 227.137 225.874 227.1C232.209 240.87 241.592 255.283 256.457 260.798C264.672 263.845 273.404 263.628 281.366 259.941C293.924 254.125 301.665 241.18 306.236 228.626C306.393 228.195 306.543 227.762 306.685 227.327C306.805 227.342 306.925 227.359 307.046 227.373C310.972 227.837 314.966 227.388 318.885 227.875C335.08 229.888 348.371 237.492 360.568 247.904C360.386 248.286 360.135 248.516 360.296 248.944C360.748 250.149 362.527 251.853 363.711 252.414C364.244 252.667 364.519 252.473 365.023 252.281C365.091 252.393 365.158 252.507 365.227 252.618C366.027 253.9 367.223 255.081 368.199 256.238C370.436 258.889 372.778 261.624 374.632 264.563C378.286 270.353 406.531 323.984 406.705 326.407C406.358 327.189 406.322 327.416 406.615 328.225C407.681 331.162 409.419 334.047 410.831 336.846C413.428 341.992 416.025 347.209 418.327 352.493C414.117 352.005 409.991 353.347 406.672 355.943C402.897 358.895 401.222 362.706 399.932 367.216C390.881 365.012 382.077 363.995 372.765 363.982C373.176 361.615 373.144 359.016 373.299 356.614C373.611 351.382 373.983 346.152 374.415 340.927C374.622 340.84 374.599 340.877 374.759 340.649C376.293 338.453 377.153 322.253 376.609 319.431C376.473 318.724 376.283 318.687 375.722 318.292C376.158 317.333 378.336 284.72 378.203 281.98C378.065 279.16 376.458 275.97 374.375 274.101C374.073 273.591 373.658 273.234 373.212 272.845C371.384 271.251 368.955 270.336 366.575 270.001C363.29 269.538 359.602 269.848 356.28 269.855L336.155 269.887L298.685 269.933C291.918 269.947 284.962 269.629 278.22 270.088C275.42 269.998 247.381 269.742 246.85 269.972C246.714 270.031 246.626 270.167 246.515 270.265L246.355 270.907C241.273 271.314 235.864 270.974 230.745 270.977L199.347 270.967L171.438 270.947C166.851 270.936 162.005 271.249 157.465 270.766C160.702 265.555 163.923 260.27 167.369 255.195C168.366 253.726 170.641 251.555 170.924 249.928Z" fill="#F37E60"/>
<path d="M365.028 252.282C364.524 252.473 364.249 252.668 363.717 252.415C362.533 251.853 360.753 250.149 360.301 248.945C360.141 248.517 360.391 248.287 360.573 247.904C362.184 249.084 363.957 250.581 365.028 252.282Z" fill="#433849"/>
<path d="M155.633 270.619C158.772 265.385 164.244 256.266 167.872 251.746C168.841 250.539 169.352 250.11 170.923 249.928C170.64 251.554 168.365 253.726 167.368 255.195C163.923 260.269 160.701 265.554 157.464 270.766L155.633 270.619Z" fill="#433849"/>
<path d="M53.866 357.926C48.7353 353.213 42.531 345.796 42.2912 338.449C41.9848 329.071 53.357 324.508 53.2709 314.72C53.1782 304.186 38.9801 295.698 49.4325 284.927C51.5496 282.745 54.0825 280.958 56.0369 278.622C59.5462 274.426 61.9087 266.315 68.3588 266.25C70.7374 266.226 73.1837 267.825 74.794 269.463C78.8561 273.596 80.1728 279.624 80.0135 285.23C79.8892 289.593 79.3763 293.853 82.6285 297.3C87.5083 302.473 94.3887 303.206 94.1078 312.317C93.8092 322.004 86.256 324.161 84.009 331.76C83.0382 335.044 83.2319 338.623 83.0909 342.009C82.8633 347.484 82.0007 352.752 80.0624 357.882L66.401 357.865C66.0719 342.368 66.2695 326.825 66.2711 311.325C66.2722 304.97 66.6747 298.345 66.2895 292.013C66.2434 291.254 66.2112 290.872 65.7854 290.252L65.227 290.447C64.6186 291.256 64.637 291.672 64.5748 292.665C64.2634 297.652 64.6009 302.854 64.5842 307.867C64.5293 324.5 65.0977 341.262 64.4599 357.876C60.9284 357.871 57.3969 357.888 53.866 357.926Z" fill="#7FCBB4"/>
<path d="M246.359 270.908L246.519 270.265C246.631 270.168 246.719 270.031 246.855 269.972C247.385 269.743 275.425 269.998 278.225 270.088L278.547 270.119C287.454 270.905 296.664 269.383 305.527 270.431C298.044 270.809 290.37 270.379 282.866 270.405C279.979 270.416 276.987 270.315 274.121 270.673C267.644 271.482 260.606 270.925 254.071 270.858C251.715 270.833 249.094 270.628 246.763 270.973L246.359 270.908Z" fill="#2C1012"/>
<path d="M278.223 270.089C284.965 269.631 291.921 269.948 298.688 269.934L336.158 269.888L356.283 269.856C359.605 269.849 363.293 269.54 366.577 270.002C368.958 270.337 371.387 271.252 373.215 272.846C373.661 273.235 374.076 273.592 374.378 274.102C374.426 274.248 374.472 274.396 374.524 274.542C375.043 276.009 376.294 277.194 376.979 278.588C377.438 279.521 378.337 285.929 377.969 286.732C377.901 286.879 377.775 286.992 377.681 287.125C377.353 287.595 377.286 287.813 377.206 288.365C376.147 285.914 378.909 279.755 374.179 275.35L373.746 275.325C371.19 272.971 369.106 271.806 365.674 271.337C355.215 270.752 344.448 271.24 333.958 271.24L272.007 271.241C267.577 271.241 249.564 271.792 246.762 270.974C249.092 270.629 251.713 270.834 254.069 270.858C260.605 270.926 267.643 271.483 274.119 270.674C276.985 270.316 279.977 270.417 282.864 270.406C290.368 270.379 298.042 270.81 305.525 270.432C296.662 269.384 287.452 270.906 278.545 270.12L278.223 270.089Z" fill="#40282A"/>
<path d="M144.427 288.963C145.423 285.457 142.369 281.591 145.98 276.269C147.702 273.732 150.69 271.628 153.71 271.032C154.358 270.905 155.001 270.76 155.645 270.621L157.477 270.768C162.017 271.25 166.863 270.937 171.449 270.949L199.359 270.968L230.757 270.978C235.875 270.975 241.285 271.316 246.367 270.909L246.771 270.974C249.573 271.792 267.586 271.241 272.016 271.241L333.967 271.241C344.457 271.241 355.224 270.752 365.683 271.338C365.407 272.337 364.469 272.898 363.624 273.456C356.108 278.422 347.868 282.517 340.116 287.138L287.252 318.747C281.105 322.402 274.934 326 268.911 329.861C267.048 331.056 264.829 332.222 263.171 333.679C259.871 332.345 256.135 332.656 253.102 334.519C250.069 336.381 248.101 339.574 247.8 343.12C244.725 344.036 235.891 349.803 232.529 351.706C216.164 360.977 199.861 370.356 183.62 379.842C176.686 383.962 169.836 388.222 162.859 392.271C160.505 393.637 157.782 395.652 155.196 396.464C154.159 380.798 152.924 365.145 151.491 349.509C151.097 344.7 151.118 335.962 149.932 331.639L148.905 331.071C147.828 329.028 146.284 303.89 145.909 299.506C145.702 297.097 145.823 293.616 144.932 291.405C144.885 290.481 144.857 289.793 144.427 288.963Z" fill="#BFD4F3"/>
<path d="M365.678 271.338C369.11 271.806 371.194 272.971 373.75 275.326C374.882 277.092 376.186 278.995 376.545 281.101C377.479 286.564 373.385 316.885 375.028 318.265L375.729 318.294C376.289 318.688 376.48 318.725 376.616 319.432C377.16 322.254 376.299 338.455 374.766 340.65C374.606 340.878 374.629 340.841 374.422 340.929C373.739 341.107 373.284 341.057 372.972 341.766C372.34 343.202 370.972 368.632 370.973 371.815C369.92 382.682 369.674 393.638 368.767 404.521C368.36 406.532 367.937 407.784 366.174 408.954C365.784 409.209 365.388 409.454 364.986 409.69C345.779 409.177 326.512 409.487 307.297 409.481L206.478 409.463L178.255 409.467C174.244 409.468 163.055 410.107 159.648 408.966C158.993 408.572 158.307 408.178 157.737 407.666C155.55 405.701 155.684 402.593 155.465 399.887C155.403 398.744 155.313 397.603 155.191 396.465C157.777 395.653 160.5 393.637 162.854 392.271C169.831 388.223 176.681 383.962 183.615 379.842C199.856 370.356 216.159 360.977 232.524 351.707C235.886 349.803 244.72 344.036 247.795 343.12C247.307 348.857 251.245 354.03 256.904 355.087C262.564 356.144 268.104 352.741 269.72 347.216C271.336 341.69 268.503 335.839 263.166 333.679C264.824 332.222 267.043 331.056 268.906 329.862C274.929 326 281.1 322.402 287.247 318.747L340.111 287.138C347.863 282.517 356.103 278.422 363.619 273.456C364.464 272.898 365.402 272.338 365.678 271.338Z" fill="#89A2D8"/>
<path d="M374.39 274.102C376.473 275.971 378.08 279.161 378.217 281.98C378.351 284.72 376.172 317.334 375.737 318.293L375.036 318.264C373.393 316.884 377.487 286.563 376.553 281.1C376.194 278.995 374.89 277.091 373.758 275.325L374.191 275.349C378.921 279.755 376.159 285.913 377.218 288.365C377.298 287.813 377.365 287.595 377.693 287.125C377.787 286.992 377.913 286.879 377.981 286.732C378.349 285.928 377.45 279.52 376.991 278.588C376.306 277.193 375.054 276.009 374.536 274.542C374.484 274.396 374.438 274.248 374.39 274.102Z" fill="#433849"/>
<path d="M144.42 288.963C144.851 289.793 144.878 290.481 144.926 291.405L121.979 333.539L111.58 352.672C107.631 359.959 103.63 366.669 101.424 374.777C99.3255 382.485 99.2378 390.92 101.456 398.617C104.524 408.916 111.55 417.58 120.993 422.709C129.563 427.356 139.065 427.25 148.551 427.283C154.723 428.098 164.613 427.482 171.181 427.495L218.957 427.589L322.559 427.571C339.259 427.562 355.979 427.763 372.676 427.577C376.045 428.151 380.183 427.743 383.619 427.75L411.196 427.673L467.664 427.557L482.889 427.532C485.688 427.526 488.904 427.815 491.643 427.251C496.514 427.273 531.11 426.733 532.911 427.407C533.564 427.651 533.738 428.049 534 428.645C533.954 429.113 534.011 429.494 533.714 429.883C533.133 430.644 532.185 430.813 531.281 430.881C527.159 431.189 522.149 430.807 517.911 430.812L487.255 430.853L386.887 430.862L79.5371 430.819L25.9706 430.813L10.5354 430.843C7.76827 430.849 4.76551 431.064 2.01875 430.74C1.16181 430.639 0.877487 430.496 0.229863 429.925C-0.0354696 429.171 -0.0661095 429.067 0.112185 428.293C0.968357 427.446 1.81509 427.241 3.00137 427.123C6.61423 426.761 10.5167 427.216 14.1681 427.22C24.0488 427.298 33.9299 427.313 43.8109 427.264L88.3808 427.242C101.708 427.101 115.037 427.171 128.362 427.452C125.505 426.5 122.718 425.433 120.044 424.037C110.59 419.003 103.491 410.46 100.272 400.245C97.8639 392.308 97.6202 383.872 99.568 375.81C102.46 363.94 109.292 353.434 115.007 342.784C124.671 324.777 134.925 307.052 144.42 288.963Z" fill="url(#paint0_linear_3001_7273)"/>
<path d="M64.459 357.876C65.0968 341.263 64.5284 324.5 64.5833 307.867C64.6 302.854 64.2625 297.652 64.5739 292.665C64.6361 291.672 64.6177 291.256 65.2261 290.447L65.7845 290.252C66.2103 290.873 66.2425 291.254 66.2886 292.013C66.6738 298.345 66.2714 304.97 66.2702 311.325C66.2686 326.825 66.071 342.368 66.4001 357.865L64.459 357.876Z" fill="#4A68AB"/>
<path d="M148.551 427.282C139.064 427.249 129.563 427.355 120.992 422.708C111.549 417.579 104.524 408.915 101.456 398.616C99.2369 390.919 99.3246 382.484 101.423 374.776C103.629 366.668 107.63 359.958 111.579 352.671L121.978 333.538L144.925 291.404C145.816 293.615 145.695 297.096 145.901 299.505C146.276 303.889 147.821 329.027 148.897 331.07C148.215 334.464 149.098 338.986 149.397 342.466C150.031 349.874 150.939 357.338 151.269 364.76C145.605 364.388 140.719 364.958 135.309 366.589C134.183 366.929 133.096 367.14 132.104 367.81L131.802 368.326L132.051 368.912C133.441 369.403 137.346 367.789 138.939 367.335C143.089 366.152 147.157 366.123 151.424 366.524C152.924 378.328 153.098 390.39 154.263 402.247C154.603 405.663 155.204 407.077 157.697 409.452C154.144 409.837 138.763 408.972 136.909 409.932C136.853 410.28 136.783 410.614 136.784 410.969C137.961 416.698 139.525 421.676 144.634 425.14C145.881 425.986 147.279 426.504 148.551 427.282Z" fill="#F37E60"/>
<path d="M151.272 364.76C150.941 357.339 150.033 349.874 149.399 342.466C149.1 338.986 148.218 334.464 148.9 331.07L149.927 331.638C151.113 335.962 151.092 344.699 151.486 349.508C152.919 365.144 154.154 380.797 155.191 396.464C155.313 397.602 155.403 398.744 155.464 399.887C155.227 400.845 154.915 401.677 155.265 402.644L154.954 403.158L154.706 402.182L154.265 402.247C153.1 390.39 152.926 378.328 151.426 366.524C147.16 366.123 143.091 366.152 138.941 367.335C137.348 367.79 133.443 369.403 132.053 368.912L131.805 368.326L132.107 367.81C133.099 367.141 134.185 366.929 135.312 366.589C140.721 364.959 145.608 364.388 151.272 364.76Z" fill="#413146"/>
<path d="M247.795 343.12C248.096 339.574 250.064 336.381 253.096 334.519C256.129 332.656 259.866 332.345 263.166 333.679C268.502 335.838 271.335 341.69 269.72 347.216C268.104 352.741 262.564 356.144 256.904 355.087C251.245 354.029 247.307 348.856 247.795 343.12Z" fill="#FEFEFE"/>
<path d="M370.969 371.814C370.968 368.631 372.336 343.2 372.968 341.764C373.28 341.056 373.735 341.106 374.418 340.928C373.986 346.152 373.614 351.382 373.302 356.615C373.147 359.016 373.179 361.615 372.768 363.982C372.328 364.749 372.243 365.11 372.235 365.996L372.489 366.184C372.977 368.943 372.479 372.131 372.263 374.918C371.964 373.858 371.426 372.814 370.969 371.814Z" fill="url(#paint1_linear_3001_7273)"/>
<path d="M35.7539 357.936L53.86 357.926C57.3909 357.888 60.9224 357.871 64.4539 357.876L66.3951 357.865L80.0564 357.882L96.1784 357.857C94.9184 372.819 93.1188 387.826 91.3464 402.739C90.3783 410.885 89.6544 419.141 88.3788 427.241L43.809 427.263C42.7321 420.508 42.2298 413.643 41.3566 406.856C41.0574 400.45 40.0177 393.973 39.2445 387.604L35.7539 357.936Z" fill="#A57866"/>
<path d="M372.489 366.184L372.234 365.996C372.242 365.111 372.328 364.75 372.768 363.982C382.079 363.996 390.883 365.013 399.934 367.217L399.844 368.581C394.48 367.538 389.107 366.462 383.661 365.942C381.327 365.72 374.068 364.875 372.489 366.184Z" fill="#413146"/>
<path d="M372.493 366.184C374.073 364.875 381.331 365.72 383.666 365.942C389.111 366.462 394.485 367.538 399.849 368.581C399.15 373.416 400.083 378.295 403.063 382.249C404.769 384.512 406.995 386.253 409.524 387.515C401.489 387.819 415.539 392.466 407.5 392.5C428.091 393.715 404.365 391.832 404.262 393.162C404.204 393.91 404.324 394.552 404.5 395.277C405.113 395.745 405.312 395.648 406.095 395.649L404.262 397.5C408.175 402.738 412.91 404.579 412 411.052C411.5 414.613 421.297 419.402 419.5 422.5C418.637 424.018 415.937 425.867 416 427.576C411.245 427.56 377.634 427.507 372.88 427.436C374.219 426.781 375.618 426.276 376.928 425.556C383.215 422.1 386.027 418.147 387.972 411.307C388.108 410.731 388.093 410.628 387.92 410.059C386.323 409.159 371.126 409.701 368.43 409.688L368.156 409.556C368.908 408.519 369.53 407.625 369.973 406.411C370.611 402.812 370.633 398.924 370.877 395.277L372.267 374.919C372.483 372.132 372.981 368.943 372.493 366.184Z" fill="#F37E60"/>
<path d="M368.766 404.52C369.673 393.637 369.919 382.681 370.972 371.814C371.428 372.814 371.967 373.859 372.266 374.919L370.876 395.276C370.632 398.924 370.61 402.812 369.971 406.41L368.766 404.52Z" fill="#433849"/>
<path d="M155.469 399.887C155.688 402.592 155.554 405.701 157.741 407.666C158.311 408.178 158.997 408.572 159.652 408.965C159.005 409.116 158.33 409.234 157.703 409.453C155.21 407.077 154.61 405.664 154.27 402.248L154.71 402.182L154.958 403.158L155.269 402.644C154.92 401.677 155.232 400.845 155.469 399.887Z" fill="#433849"/>
<path d="M364.985 409.689C365.387 409.453 365.783 409.208 366.173 408.953C367.936 407.783 368.359 406.531 368.766 404.52L369.971 406.41C369.529 407.625 368.907 408.519 368.155 409.555L368.429 409.687C369.21 410.396 369.786 410.804 370.78 411.17C361.357 411.294 351.911 411.105 342.486 411.08L291.196 411.052L136.785 410.969C136.785 410.614 136.854 410.28 136.911 409.932C138.764 408.972 154.145 409.837 157.698 409.452C158.325 409.234 159 409.116 159.647 408.965C163.054 410.105 174.243 409.467 178.254 409.466L206.477 409.462L307.296 409.48C326.511 409.486 345.778 409.176 364.985 409.689Z" fill="url(#paint2_linear_3001_7273)"/>
<path d="M368.438 409.687C371.134 409.7 386.331 409.158 387.928 410.058C388.101 410.627 388.115 410.73 387.98 411.306C382.25 411.17 376.519 411.125 370.788 411.169C369.795 410.803 369.219 410.395 368.438 409.687Z" fill="#40282A"/>
<path d="M136.785 410.969L291.196 411.052L342.486 411.08C351.911 411.105 361.357 411.294 370.78 411.17C376.51 411.126 382.242 411.171 387.971 411.307C386.026 418.147 383.214 422.099 376.927 425.556C375.617 426.275 374.218 426.781 372.878 427.436L372.677 427.576C355.979 427.762 339.259 427.562 322.559 427.57L218.957 427.589L171.181 427.494C164.613 427.481 154.723 428.098 148.552 427.282C147.281 426.504 145.883 425.986 144.636 425.14C139.527 421.676 137.962 416.698 136.785 410.969Z" fill="#6683C2"/>
<defs>
<linearGradient id="paint0_linear_3001_7273" x1="268.054" y1="290.843" x2="266.91" y2="432.152" gradientUnits="userSpaceOnUse">
<stop stop-color="#382C43"/>
<stop offset="1" stop-color="#6C433E"/>
</linearGradient>
<linearGradient id="paint1_linear_3001_7273" x1="373.415" y1="357.79" x2="371.479" y2="357.584" gradientUnits="userSpaceOnUse">
<stop stop-color="#3E2E34"/>
<stop offset="1" stop-color="#3A2A46"/>
</linearGradient>
<linearGradient id="paint2_linear_3001_7273" x1="253.335" y1="410.448" x2="253.341" y2="405.165" gradientUnits="userSpaceOnUse">
<stop stop-color="#503A39"/>
<stop offset="1" stop-color="#34314D"/>
</linearGradient>
</defs>
</svg>
