<svg width="300" height="616" viewBox="0 0 300 616" fill="none" xmlns="http://www.w3.org/2000/svg">
<g clip-path="url(#clip0_3001_5655)">
<rect width="300" height="616" fill="#3F5483"/>
<rect y="405" width="334" height="239" fill="#324266"/>
<path d="M2.88508 455.43H-2.82812V374.244H2.88508V455.43Z" fill="#324266"/>
<path d="M8.59601 455.43H2.88281V362.089H8.59601V455.43Z" fill="#324266"/>
<path d="M20.0257 347.922H14.3125V340.395H20.0257V347.922Z" fill="#324266"/>
<path d="M20.0257 335.502H14.3125V329.582H20.0257V335.502Z" fill="#324266"/>
<path d="M14.307 455.43H8.59375V358.073H14.307V455.43Z" fill="#324266"/>
<path d="M20.0257 455.43H14.3125V353.205H20.0257V455.43Z" fill="#324266"/>
<path d="M25.7288 455.43H20.0156V368.498H25.7288V455.43Z" fill="#324266"/>
<path d="M37.1507 347.508H31.4375V338.905H37.1507V347.508Z" fill="#324266"/>
<path d="M94.2523 350.547H88.5391V344.022H94.2523V350.547Z" fill="#324266"/>
<path d="M59.9866 344.354H54.2734V338.243H59.9866V344.354Z" fill="#324266"/>
<path d="M59.9866 334.252H54.2734V328.001H59.9866V334.252Z" fill="#324266"/>
<path d="M48.5726 350.406H42.8594V344.155H48.5726V350.406Z" fill="#324266"/>
<path d="M2.88508 357.627H-2.82812V348.155H2.88508V357.627Z" fill="#324266"/>
<path d="M2.88508 343.402H-2.82812V337.391H2.88508V343.402Z" fill="#324266"/>
<path d="M31.4398 455.43H25.7266V362.089H31.4398V455.43Z" fill="#324266"/>
<path d="M37.1507 455.43H31.4375V358.073H37.1507V455.43Z" fill="#324266"/>
<path d="M42.8538 455.43H37.1406V368.498H42.8538V455.43Z" fill="#324266"/>
<path d="M48.5726 455.43H42.8594V378.119H48.5726V455.43Z" fill="#324266"/>
<path d="M54.2757 455.43H48.5625V356.053H54.2757V455.43Z" fill="#324266"/>
<path d="M59.9866 455.43H54.2734V348.899H59.9866V455.43Z" fill="#324266"/>
<path d="M65.6976 455.43H59.9844V353.205H65.6976V455.43Z" fill="#324266"/>
<path d="M71.4085 455.43H65.6953V360.582H71.4085V455.43Z" fill="#324266"/>
<path d="M82.8304 455.43H77.1172V361.551H82.8304V455.43Z" fill="#324266"/>
<path d="M88.5413 455.43H82.8281V375.023H88.5413V455.43Z" fill="#324266"/>
<path d="M82.8304 355.771H77.1172V343.153H82.8304V355.771Z" fill="#324266"/>
<path d="M117.096 348.354H111.383V341.912H117.096V348.354Z" fill="#324266"/>
<path d="M82.8304 339.436H77.1172V332.927H82.8304V339.436Z" fill="#324266"/>
<path d="M94.2523 455.43H88.5391V356.053H94.2523V455.43Z" fill="#324266"/>
<path d="M99.9632 455.43H94.25V360.582H99.9632V455.43Z" fill="#324266"/>
<path d="M77.1195 455.43H71.4062V366.569H77.1195V455.43Z" fill="#324266"/>
<path d="M105.674 455.43H99.9609V348.32H105.674V455.43Z" fill="#324266"/>
<path d="M105.674 340.18H99.9609V334.011H105.674V340.18Z" fill="#324266"/>
<path d="M111.385 455.43H105.672V353.205H111.385V455.43Z" fill="#324266"/>
<path d="M117.096 455.43H111.383V359.622H117.096V455.43Z" fill="#324266"/>
<path d="M122.799 455.43H117.086V370.849H122.799V455.43Z" fill="#324266"/>
<path d="M2.88508 390.248H-2.82812V384.104H2.88508V390.248Z" fill="#6683C2"/>
<path d="M65.6976 374.939H59.9844V368.796H65.6976V374.939Z" fill="#6683C2"/>
<path d="M88.5335 390.273H82.8203V384.088H88.5335V390.273Z" fill="#6683C2"/>
<path d="M111.385 374.955H105.672V368.77H111.385V374.955Z" fill="#6683C2"/>
<path d="M25.7288 382.457H20.0156V373.788H25.7288V382.457Z" fill="#6683C2"/>
<path d="M128.518 455.43H122.805V364.623H128.518V455.43Z" fill="#324266"/>
<path d="M134.229 455.43H128.516V354.952H134.229V455.43Z" fill="#324266"/>
<path d="M139.932 455.43H134.219V360.582H139.932V455.43Z" fill="#324266"/>
<path d="M151.362 455.43H145.648V365.716H151.362V455.43Z" fill="#324266"/>
<path d="M145.643 355.332H139.93V348.153H145.643V355.332Z" fill="#324266"/>
<path d="M134.229 349.984H128.516V342.996H134.229V349.984Z" fill="#324266"/>
<path d="M157.065 455.43H151.352V360.582H157.065V455.43Z" fill="#324266"/>
<path d="M162.776 455.43H157.062V368.498H162.776V455.43Z" fill="#324266"/>
<path d="M168.487 455.43H162.773V374.244H168.487V455.43Z" fill="#324266"/>
<path d="M174.198 455.43H168.484V362.089H174.198V455.43Z" fill="#324266"/>
<path d="M185.619 347.922H179.906V340.395H185.619V347.922Z" fill="#324266"/>
<path d="M185.619 335.502H179.906V329.582H185.619V335.502Z" fill="#324266"/>
<path d="M179.909 455.43H174.195V358.073H179.909V455.43Z" fill="#324266"/>
<path d="M185.619 455.43H179.906V353.205H185.619V455.43Z" fill="#324266"/>
<path d="M191.33 455.43H185.617V368.498H191.33V455.43Z" fill="#324266"/>
<path d="M202.752 347.508H197.039V338.905H202.752V347.508Z" fill="#324266"/>
<path d="M259.846 350.547H254.133V344.022H259.846V350.547Z" fill="#324266"/>
<path d="M225.588 344.354H219.875V338.243H225.588V344.354Z" fill="#324266"/>
<path d="M225.588 334.252H219.875V328.001H225.588V334.252Z" fill="#324266"/>
<path d="M214.174 350.406H208.461V344.155H214.174V350.406Z" fill="#324266"/>
<path d="M168.487 357.627H162.773V348.155H168.487V357.627Z" fill="#324266"/>
<path d="M168.487 343.402H162.773V337.391H168.487V343.402Z" fill="#324266"/>
<path d="M157.065 351.043H151.352V344.792H157.065V351.043Z" fill="#324266"/>
<path d="M145.643 341.465H139.93V335.213H145.643V341.465Z" fill="#324266"/>
<path d="M197.041 455.43H191.328V362.089H197.041V455.43Z" fill="#324266"/>
<path d="M202.752 455.43H197.039V358.073H202.752V455.43Z" fill="#324266"/>
<path d="M208.463 455.43H202.75V368.498H208.463V455.43Z" fill="#324266"/>
<path d="M214.174 455.43H208.461V378.119H214.174V455.43Z" fill="#324266"/>
<path d="M219.877 455.43H214.164V356.053H219.877V455.43Z" fill="#324266"/>
<path d="M145.643 455.43H139.93V370.849H145.643V455.43Z" fill="#324266"/>
<path d="M225.588 455.43H219.875V348.899H225.588V455.43Z" fill="#324266"/>
<path d="M231.299 455.43H225.586V353.205H231.299V455.43Z" fill="#324266"/>
<path d="M237.002 455.43H231.289V360.582H237.002V455.43Z" fill="#324266"/>
<path d="M248.432 455.43H242.719V361.551H248.432V455.43Z" fill="#324266"/>
<path d="M254.135 455.43H248.422V375.023H254.135V455.43Z" fill="#324266"/>
<path d="M248.432 355.771H242.719V343.153H248.432V355.771Z" fill="#324266"/>
<path d="M282.698 348.354H276.984V341.912H282.698V348.354Z" fill="#324266"/>
<path d="M248.432 339.436H242.719V332.927H248.432V339.436Z" fill="#324266"/>
<path d="M259.846 455.43H254.133V356.053H259.846V455.43Z" fill="#324266"/>
<path d="M265.565 455.43H259.852V360.582H265.565V455.43Z" fill="#324266"/>
<path d="M242.721 455.43H237.008V366.569H242.721V455.43Z" fill="#324266"/>
<path d="M271.276 455.43H265.562V348.32H271.276V455.43Z" fill="#324266"/>
<path d="M271.276 340.18H265.562V334.011H271.276V340.18Z" fill="#324266"/>
<path d="M276.987 455.43H271.273V353.205H276.987V455.43Z" fill="#324266"/>
<path d="M282.698 455.43H276.984V359.622H282.698V455.43Z" fill="#324266"/>
<path d="M288.401 455.43H282.688V370.849H288.401V455.43Z" fill="#324266"/>
<path d="M145.643 382.484H139.93V376.283H145.643V382.484Z" fill="#6683C2"/>
<path d="M168.487 390.25H162.773V384.106H168.487V390.25Z" fill="#6683C2"/>
<path d="M276.987 374.957H271.273V368.772H276.987V374.957Z" fill="#6683C2"/>
<path d="M191.33 382.459H185.617V373.79H191.33V382.459Z" fill="#6683C2"/>
<path d="M294.112 455.43H288.398V364.623H294.112V455.43Z" fill="#324266"/>
<path d="M299.83 455.43H294.117V354.952H299.83V455.43Z" fill="#324266"/>
<path d="M305.534 455.43H299.82V360.582H305.534V455.43Z" fill="#324266"/>
<path d="M299.83 349.984H294.117V342.996H299.83V349.984Z" fill="#324266"/>
<rect y="485" width="330" height="132" fill="url(#paint0_linear_3001_5655)"/>
</g>
<defs>
<linearGradient id="paint0_linear_3001_5655" x1="165" y1="485" x2="165" y2="617" gradientUnits="userSpaceOnUse">
<stop stop-color="#324266" stop-opacity="0"/>
<stop offset="1" stop-color="#324266"/>
</linearGradient>
<clipPath id="clip0_3001_5655">
<rect width="300" height="616" fill="white"/>
</clipPath>
</defs>
</svg>
