<svg width="684" height="371" viewBox="0 0 684 371" fill="none" xmlns="http://www.w3.org/2000/svg">
<g clip-path="url(#clip0_3001_6225)">
<rect width="684" height="371" fill="#3F5483"/>
<rect x="-71" y="118" width="839" height="268" fill="#324266"/>
<path d="M260.399 153.393H254.508V59.7613H260.399V153.393Z" fill="#324266"/>
<path d="M266.293 153.393H260.402V49.7894H266.293V153.393Z" fill="#324266"/>
<path d="M272.168 153.393H266.277V55.595H272.168V153.393Z" fill="#324266"/>
<path d="M283.942 153.393H278.051V60.8883H283.942V153.393Z" fill="#324266"/>
<path d="M278.067 50.1816H272.176V42.7796H278.067V50.1816Z" fill="#324266"/>
<path d="M266.293 44.666H260.402V37.4603H266.293V44.666Z" fill="#324266"/>
<path d="M289.836 153.393H283.945V55.595H289.836V153.393Z" fill="#324266"/>
<path d="M295.723 153.393H289.832V63.7569H295.723V153.393Z" fill="#324266"/>
<path d="M301.614 153.393H295.723V69.6819H301.614V153.393Z" fill="#324266"/>
<path d="M307.5 153.393H301.609V57.1488H307.5V153.393Z" fill="#324266"/>
<path d="M319.285 42.541H313.395V34.7804H319.285V42.541Z" fill="#324266"/>
<path d="M319.285 29.7344H313.395V23.63H319.285V29.7344Z" fill="#324266"/>
<path d="M313.387 153.393H307.496V53.0081H313.387V153.393Z" fill="#324266"/>
<path d="M319.285 153.393H313.395V47.988H319.285V153.393Z" fill="#324266"/>
<path d="M325.164 153.393H319.273V63.7569H325.164V153.393Z" fill="#324266"/>
<path d="M336.946 42.1152H331.055V33.2447H336.946V42.1152Z" fill="#324266"/>
<path d="M395.821 45.248H389.93V38.5205H395.821V45.248Z" fill="#324266"/>
<path d="M360.489 38.8613H354.598V32.5606H360.489V38.8613Z" fill="#324266"/>
<path d="M360.489 28.4453H354.598V21.9995H360.489V28.4453Z" fill="#324266"/>
<path d="M348.719 45.1016H342.828V38.6557H348.719V45.1016Z" fill="#324266"/>
<path d="M301.614 52.5469H295.723V42.7799H301.614V52.5469Z" fill="#324266"/>
<path d="M301.614 37.8789H295.723V31.6806H301.614V37.8789Z" fill="#324266"/>
<path d="M289.836 45.7598H283.945V39.3139H289.836V45.7598Z" fill="#324266"/>
<path d="M278.067 35.8828H272.176V29.437H278.067V35.8828Z" fill="#324266"/>
<path d="M331.055 153.393H325.164V57.1488H331.055V153.393Z" fill="#324266"/>
<path d="M336.946 153.393H331.055V53.0081H336.946V153.393Z" fill="#324266"/>
<path d="M342.821 153.393H336.93V63.7569H342.821V153.393Z" fill="#324266"/>
<path d="M348.719 153.393H342.828V73.6775H348.719V153.393Z" fill="#324266"/>
<path d="M354.602 153.393H348.711V50.9249H354.602V153.393Z" fill="#324266"/>
<path d="M278.067 153.393H272.176V66.1815H278.067V153.393Z" fill="#324266"/>
<path d="M360.489 153.393H354.598V43.5485H360.489V153.393Z" fill="#324266"/>
<path d="M366.375 153.393H360.484V47.988H366.375V153.393Z" fill="#324266"/>
<path d="M372.266 153.393H366.375V55.595H372.266V153.393Z" fill="#324266"/>
<path d="M384.043 153.393H378.152V56.5939H384.043V153.393Z" fill="#324266"/>
<path d="M389.934 153.393H384.043V70.4845H389.934V153.393Z" fill="#324266"/>
<path d="M384.043 50.6348H378.152V37.6235H384.043V50.6348Z" fill="#324266"/>
<path d="M419.379 42.9844H413.488V36.3422H419.379V42.9844Z" fill="#324266"/>
<path d="M384.043 33.791H378.152V27.0805H384.043V33.791Z" fill="#324266"/>
<path d="M395.821 153.393H389.93V50.9249H395.821V153.393Z" fill="#324266"/>
<path d="M401.707 153.393H395.816V55.595H401.707V153.393Z" fill="#324266"/>
<path d="M378.16 153.393H372.27V61.7676H378.16V153.393Z" fill="#324266"/>
<path d="M407.598 153.393H401.707V42.9509H407.598V153.393Z" fill="#324266"/>
<path d="M407.598 34.5586H401.707V28.1981H407.598V34.5586Z" fill="#324266"/>
<path d="M413.489 153.393H407.598V47.988H413.489V153.393Z" fill="#324266"/>
<path d="M419.379 153.393H413.488V54.6046H419.379V153.393Z" fill="#324266"/>
<path d="M425.254 153.393H419.363V66.1815H425.254V153.393Z" fill="#324266"/>
<path d="M278.067 78.1777H272.176V71.7831H278.067V78.1777Z" fill="#3F5483"/>
<path d="M301.614 86.1855H295.723V79.8507H301.614V86.1855Z" fill="#3F5483"/>
<path d="M366.375 70.4004H360.484V64.0655H366.375V70.4004Z" fill="#3F5483"/>
<path d="M389.926 86.2109H384.035V79.8334H389.926V86.2109Z" fill="#3F5483"/>
<path d="M413.489 70.416H407.598V64.0385H413.489V70.416Z" fill="#3F5483"/>
<path d="M325.164 78.1523H319.273V69.2135H325.164V78.1523Z" fill="#3F5483"/>
<path d="M54.3128 45.248H48.4219V38.5205H54.3128V45.248Z" fill="#324266"/>
<path d="M18.9847 38.8613H13.0938V32.5606H18.9847V38.8613Z" fill="#324266"/>
<path d="M18.9847 28.4453H13.0938V21.9995H18.9847V28.4453Z" fill="#324266"/>
<path d="M7.21122 45.1016H1.32031V38.6557H7.21122V45.1016Z" fill="#324266"/>
<path d="M1.3245 153.393H-4.56641V63.7569H1.3245V153.393Z" fill="#324266"/>
<path d="M7.21122 153.393H1.32031V73.6775H7.21122V153.393Z" fill="#324266"/>
<path d="M13.0901 153.393H7.19922V50.9249H13.0901V153.393Z" fill="#324266"/>
<path d="M18.9847 153.393H13.0938V43.5485H18.9847V153.393Z" fill="#324266"/>
<path d="M24.8753 153.393H18.9844V47.988H24.8753V153.393Z" fill="#324266"/>
<path d="M30.7581 153.393H24.8672V55.595H30.7581V153.393Z" fill="#324266"/>
<path d="M42.5433 153.393H36.6523V56.5939H42.5433V153.393Z" fill="#324266"/>
<path d="M48.4222 153.393H42.5312V70.4845H48.4222V153.393Z" fill="#324266"/>
<path d="M42.5433 50.6348H36.6523V37.6235H42.5433V50.6348Z" fill="#324266"/>
<path d="M77.8675 42.9844H71.9766V36.3422H77.8675V42.9844Z" fill="#324266"/>
<path d="M42.5433 33.791H36.6523V27.0805H42.5433V33.791Z" fill="#324266"/>
<path d="M54.3128 153.393H48.4219V50.9249H54.3128V153.393Z" fill="#324266"/>
<path d="M60.2112 153.393H54.3203V55.595H60.2112V153.393Z" fill="#324266"/>
<path d="M36.6565 153.393H30.7656V61.7676H36.6565V153.393Z" fill="#324266"/>
<path d="M66.0901 153.393H60.1992V42.9509H66.0901V153.393Z" fill="#324266"/>
<path d="M66.0901 34.5586H60.1992V28.1981H66.0901V34.5586Z" fill="#324266"/>
<path d="M71.9768 153.393H66.0859V47.988H71.9768V153.393Z" fill="#324266"/>
<path d="M77.8675 153.393H71.9766V54.6046H77.8675V153.393Z" fill="#324266"/>
<path d="M83.7464 153.393H77.8555V66.1815H83.7464V153.393Z" fill="#324266"/>
<path d="M71.9729 70.416H66.082V64.0385H71.9729V70.416Z" fill="#3F5483"/>
<path d="M431.149 153.393H425.258V59.7613H431.149V153.393Z" fill="#324266"/>
<path d="M437.035 153.393H431.145V49.7894H437.035V153.393Z" fill="#324266"/>
<path d="M442.922 153.393H437.031V55.595H442.922V153.393Z" fill="#324266"/>
<path d="M454.703 153.393H448.812V60.8883H454.703V153.393Z" fill="#324266"/>
<path d="M448.805 50.1816H442.914V42.7796H448.805V50.1816Z" fill="#324266"/>
<path d="M437.035 44.666H431.145V37.4603H437.035V44.666Z" fill="#324266"/>
<path d="M460.586 153.393H454.695V55.595H460.586V153.393Z" fill="#324266"/>
<path d="M466.469 153.393H460.578V63.7569H466.469V153.393Z" fill="#324266"/>
<path d="M472.36 153.393H466.469V69.6819H472.36V153.393Z" fill="#324266"/>
<path d="M478.25 153.393H472.359V57.1488H478.25V153.393Z" fill="#324266"/>
<path d="M490.024 42.541H484.133V34.7804H490.024V42.541Z" fill="#324266"/>
<path d="M490.024 29.7344H484.133V23.63H490.024V29.7344Z" fill="#324266"/>
<path d="M484.141 153.393H478.25V53.0081H484.141V153.393Z" fill="#324266"/>
<path d="M490.024 153.393H484.133V47.988H490.024V153.393Z" fill="#324266"/>
<path d="M495.914 153.393H490.023V63.7569H495.914V153.393Z" fill="#324266"/>
<path d="M507.696 42.1152H501.805V33.2447H507.696V42.1152Z" fill="#324266"/>
<path d="M566.563 45.248H560.672V38.5205H566.563V45.248Z" fill="#324266"/>
<path d="M531.242 38.8613H525.352V32.5606H531.242V38.8613Z" fill="#324266"/>
<path d="M531.242 28.4453H525.352V21.9995H531.242V28.4453Z" fill="#324266"/>
<path d="M519.469 45.1016H513.578V38.6557H519.469V45.1016Z" fill="#324266"/>
<path d="M472.36 52.5469H466.469V42.7799H472.36V52.5469Z" fill="#324266"/>
<path d="M472.36 37.8789H466.469V31.6806H472.36V37.8789Z" fill="#324266"/>
<path d="M460.586 45.7598H454.695V39.3139H460.586V45.7598Z" fill="#324266"/>
<path d="M448.805 35.8828H442.914V29.437H448.805V35.8828Z" fill="#324266"/>
<path d="M501.805 153.393H495.914V57.1488H501.805V153.393Z" fill="#324266"/>
<path d="M507.696 153.393H501.805V53.0081H507.696V153.393Z" fill="#324266"/>
<path d="M513.578 153.393H507.688V63.7569H513.578V153.393Z" fill="#324266"/>
<path d="M519.469 153.393H513.578V73.6775H519.469V153.393Z" fill="#324266"/>
<path d="M525.352 153.393H519.461V50.9249H525.352V153.393Z" fill="#324266"/>
<path d="M448.805 153.393H442.914V66.1815H448.805V153.393Z" fill="#324266"/>
<path d="M531.242 153.393H525.352V43.5485H531.242V153.393Z" fill="#324266"/>
<path d="M537.125 153.393H531.234V47.988H537.125V153.393Z" fill="#324266"/>
<path d="M543.008 153.393H537.117V55.595H543.008V153.393Z" fill="#324266"/>
<path d="M554.789 153.393H548.898V56.5939H554.789V153.393Z" fill="#324266"/>
<path d="M560.672 153.393H554.781V70.4845H560.672V153.393Z" fill="#324266"/>
<path d="M554.789 50.6348H548.898V37.6235H554.789V50.6348Z" fill="#324266"/>
<path d="M590.125 42.9844H584.234V36.3422H590.125V42.9844Z" fill="#324266"/>
<path d="M554.789 33.791H548.898V27.0805H554.789V33.791Z" fill="#324266"/>
<path d="M566.563 153.393H560.672V50.9249H566.563V153.393Z" fill="#324266"/>
<path d="M572.461 153.393H566.57V55.595H572.461V153.393Z" fill="#324266"/>
<path d="M548.907 153.393H543.016V61.7676H548.907V153.393Z" fill="#324266"/>
<path d="M578.352 153.393H572.461V42.9509H578.352V153.393Z" fill="#324266"/>
<path d="M578.352 34.5586H572.461V28.1981H578.352V34.5586Z" fill="#324266"/>
<path d="M584.235 153.393H578.344V47.988H584.235V153.393Z" fill="#324266"/>
<path d="M590.125 153.393H584.234V54.6046H590.125V153.393Z" fill="#324266"/>
<path d="M596 153.393H590.109V66.1815H596V153.393Z" fill="#324266"/>
<path d="M448.813 78.1777H442.922V71.7831H448.813V78.1777Z" fill="#3F5483"/>
<path d="M472.367 86.1855H466.477V79.8507H472.367V86.1855Z" fill="#3F5483"/>
<path d="M584.235 70.416H578.344V64.0385H584.235V70.416Z" fill="#3F5483"/>
<path d="M495.914 78.1523H490.023V69.2135H495.914V78.1523Z" fill="#3F5483"/>
<path d="M89.6409 153.393H83.75V59.7613H89.6409V153.393Z" fill="#324266"/>
<path d="M95.5393 153.393H89.6484V49.7894H95.5393V153.393Z" fill="#324266"/>
<path d="M101.414 153.393H95.5234V55.595H101.414V153.393Z" fill="#324266"/>
<path d="M113.2 153.393H107.309V60.8883H113.2V153.393Z" fill="#324266"/>
<path d="M107.313 50.1816H101.422V42.7796H107.313V50.1816Z" fill="#324266"/>
<path d="M95.5393 44.666H89.6484V37.4603H95.5393V44.666Z" fill="#324266"/>
<path d="M119.082 153.393H113.191V55.595H119.082V153.393Z" fill="#324266"/>
<path d="M124.981 153.393H119.09V63.7569H124.981V153.393Z" fill="#324266"/>
<path d="M130.86 153.393H124.969V69.6819H130.86V153.393Z" fill="#324266"/>
<path d="M136.746 153.393H130.855V57.1488H136.746V153.393Z" fill="#324266"/>
<path d="M148.532 42.541H142.641V34.7804H148.532V42.541Z" fill="#324266"/>
<path d="M148.532 29.7344H142.641V23.63H148.532V29.7344Z" fill="#324266"/>
<path d="M142.637 153.393H136.746V53.0081H142.637V153.393Z" fill="#324266"/>
<path d="M148.532 153.393H142.641V47.988H148.532V153.393Z" fill="#324266"/>
<path d="M154.41 153.393H148.52V63.7569H154.41V153.393Z" fill="#324266"/>
<path d="M166.192 42.1152H160.301V33.2447H166.192V42.1152Z" fill="#324266"/>
<path d="M225.067 45.248H219.176V38.5205H225.067V45.248Z" fill="#324266"/>
<path d="M189.735 38.8613H183.844V32.5606H189.735V38.8613Z" fill="#324266"/>
<path d="M189.735 28.4453H183.844V21.9995H189.735V28.4453Z" fill="#324266"/>
<path d="M177.969 45.1016H172.078V38.6557H177.969V45.1016Z" fill="#324266"/>
<path d="M130.86 52.5469H124.969V42.7799H130.86V52.5469Z" fill="#324266"/>
<path d="M130.86 37.8789H124.969V31.6806H130.86V37.8789Z" fill="#324266"/>
<path d="M119.082 45.7598H113.191V39.3139H119.082V45.7598Z" fill="#324266"/>
<path d="M107.313 35.8828H101.422V29.437H107.313V35.8828Z" fill="#324266"/>
<path d="M160.301 153.393H154.41V57.1488H160.301V153.393Z" fill="#324266"/>
<path d="M166.192 153.393H160.301V53.0081H166.192V153.393Z" fill="#324266"/>
<path d="M172.071 153.393H166.18V63.7569H172.071V153.393Z" fill="#324266"/>
<path d="M177.969 153.393H172.078V73.6775H177.969V153.393Z" fill="#324266"/>
<path d="M183.848 153.393H177.957V50.9249H183.848V153.393Z" fill="#324266"/>
<path d="M107.313 153.393H101.422V66.1815H107.313V153.393Z" fill="#324266"/>
<path d="M189.735 153.393H183.844V43.5485H189.735V153.393Z" fill="#324266"/>
<path d="M195.621 153.393H189.73V47.988H195.621V153.393Z" fill="#324266"/>
<path d="M201.516 153.393H195.625V55.595H201.516V153.393Z" fill="#324266"/>
<path d="M213.289 153.393H207.398V56.5939H213.289V153.393Z" fill="#324266"/>
<path d="M219.18 153.393H213.289V70.4845H219.18V153.393Z" fill="#324266"/>
<path d="M213.289 50.6348H207.398V37.6235H213.289V50.6348Z" fill="#324266"/>
<path d="M248.625 42.9844H242.734V36.3422H248.625V42.9844Z" fill="#324266"/>
<path d="M213.289 33.791H207.398V27.0805H213.289V33.791Z" fill="#324266"/>
<path d="M225.067 153.393H219.176V50.9249H225.067V153.393Z" fill="#324266"/>
<path d="M230.957 153.393H225.066V55.595H230.957V153.393Z" fill="#324266"/>
<path d="M207.407 153.393H201.516V61.7676H207.407V153.393Z" fill="#324266"/>
<path d="M236.848 153.393H230.957V42.9509H236.848V153.393Z" fill="#324266"/>
<path d="M236.848 34.5586H230.957V28.1981H236.848V34.5586Z" fill="#324266"/>
<path d="M242.735 153.393H236.844V47.988H242.735V153.393Z" fill="#324266"/>
<path d="M248.625 153.393H242.734V54.6046H248.625V153.393Z" fill="#324266"/>
<path d="M254.504 153.393H248.613V66.1815H254.504V153.393Z" fill="#324266"/>
<path d="M242.735 70.416H236.844V64.0385H242.735V70.416Z" fill="#3F5483"/>
<path d="M154.41 78.1504H148.52V69.2116H154.41V78.1504Z" fill="#3F5483"/>
<path d="M601.899 153.393H596.008V59.7613H601.899V153.393Z" fill="#324266"/>
<path d="M607.789 153.393H601.898V49.7894H607.789V153.393Z" fill="#324266"/>
<path d="M613.672 153.393H607.781V55.595H613.672V153.393Z" fill="#324266"/>
<path d="M625.461 153.393H619.57V60.8883H625.461V153.393Z" fill="#324266"/>
<path d="M619.563 50.1816H613.672V42.7796H619.563V50.1816Z" fill="#324266"/>
<path d="M607.789 44.666H601.898V37.4603H607.789V44.666Z" fill="#324266"/>
<path d="M631.344 153.393H625.453V55.595H631.344V153.393Z" fill="#324266"/>
<path d="M637.227 153.393H631.336V63.7569H637.227V153.393Z" fill="#324266"/>
<path d="M643.117 153.393H637.227V69.6819H643.117V153.393Z" fill="#324266"/>
<path d="M649.008 153.393H643.117V57.1488H649.008V153.393Z" fill="#324266"/>
<path d="M660.782 42.541H654.891V34.7804H660.782V42.541Z" fill="#324266"/>
<path d="M660.782 29.7344H654.891V23.63H660.782V29.7344Z" fill="#324266"/>
<path d="M654.899 153.393H649.008V53.0081H654.899V153.393Z" fill="#324266"/>
<path d="M660.782 153.393H654.891V47.988H660.782V153.393Z" fill="#324266"/>
<path d="M666.664 153.393H660.773V63.7569H666.664V153.393Z" fill="#324266"/>
<path d="M678.446 42.1152H672.555V33.2447H678.446V42.1152Z" fill="#324266"/>
<path d="M643.117 52.5469H637.227V42.7799H643.117V52.5469Z" fill="#324266"/>
<path d="M643.117 37.8789H637.227V31.6806H643.117V37.8789Z" fill="#324266"/>
<path d="M631.344 45.7598H625.453V39.3139H631.344V45.7598Z" fill="#324266"/>
<path d="M619.563 35.8828H613.672V29.437H619.563V35.8828Z" fill="#324266"/>
<path d="M672.555 153.393H666.664V57.1488H672.555V153.393Z" fill="#324266"/>
<path d="M678.446 153.393H672.555V53.0081H678.446V153.393Z" fill="#324266"/>
<path d="M684.328 153.393H678.438V63.7569H684.328V153.393Z" fill="#324266"/>
<path d="M619.563 153.393H613.672V66.1815H619.563V153.393Z" fill="#324266"/>
<path d="M666.664 78.1504H660.773V69.2116H666.664V78.1504Z" fill="#3F5483"/>
</g>
<defs>
<clipPath id="clip0_3001_6225">
<rect width="684" height="371" fill="white"/>
</clipPath>
</defs>
</svg>
