<svg width="1344" height="502" viewBox="0 0 1344 502" fill="none" xmlns="http://www.w3.org/2000/svg">
<g clip-path="url(#clip0_3001_5941)">
<rect width="1344" height="502" fill="#3F5483"/>
<rect x="-60" y="208.359" width="1461" height="428" fill="#324266"/>
<path d="M517.588 270.67H507.336V107.719H517.588V270.67Z" fill="#324266"/>
<path d="M527.846 270.67H517.594V90.3641H527.846V270.67Z" fill="#324266"/>
<path d="M538.073 270.67H527.82V100.468H538.073V270.67Z" fill="#324266"/>
<path d="M558.565 270.67H548.312V109.68H558.565V270.67Z" fill="#324266"/>
<path d="M548.338 91.0469H538.086V78.1647H548.338V91.0469Z" fill="#324266"/>
<path d="M527.846 81.4492H517.594V68.9088H527.846V81.4492Z" fill="#324266"/>
<path d="M568.823 270.67H558.57V100.468H568.823V270.67Z" fill="#324266"/>
<path d="M579.065 270.67H568.812V114.672H579.065V270.67Z" fill="#324266"/>
<path d="M589.315 270.67H579.062V124.984H589.315V270.67Z" fill="#324266"/>
<path d="M599.565 270.67H589.312V103.172H599.565V270.67Z" fill="#324266"/>
<path d="M620.073 77.75H609.82V64.2438H620.073V77.75Z" fill="#324266"/>
<path d="M620.073 55.4629H609.82V44.8392H620.073V55.4629Z" fill="#324266"/>
<path d="M609.807 270.67H599.555V95.9657H609.807V270.67Z" fill="#324266"/>
<path d="M620.073 270.67H609.82V87.229H620.073V270.67Z" fill="#324266"/>
<path d="M630.307 270.67H620.055V114.672H630.307V270.67Z" fill="#324266"/>
<path d="M650.807 77.0078H640.555V61.57H650.807V77.0078Z" fill="#324266"/>
<path d="M753.268 82.459H743.016V70.7506H753.268V82.459Z" fill="#324266"/>
<path d="M691.783 71.3457H681.531V60.3802H691.783V71.3457Z" fill="#324266"/>
<path d="M691.783 53.2188H681.531V42.0007H691.783V53.2188Z" fill="#324266"/>
<path d="M671.299 82.207H661.047V70.989H671.299V82.207Z" fill="#324266"/>
<path d="M589.315 95.1641H579.062V78.1661H589.315V95.1641Z" fill="#324266"/>
<path d="M589.315 69.6367H579.062V58.8496H589.315V69.6367Z" fill="#324266"/>
<path d="M568.823 83.3516H558.57V72.1335H568.823V83.3516Z" fill="#324266"/>
<path d="M548.338 66.1602H538.086V54.9421H548.338V66.1602Z" fill="#324266"/>
<path d="M640.557 270.67H630.305V103.172H640.557V270.67Z" fill="#324266"/>
<path d="M650.807 270.67H640.555V95.9657H650.807V270.67Z" fill="#324266"/>
<path d="M661.033 270.67H650.781V114.672H661.033V270.67Z" fill="#324266"/>
<path d="M671.299 270.67H661.047V131.938H671.299V270.67Z" fill="#324266"/>
<path d="M681.533 270.67H671.281V92.3403H681.533V270.67Z" fill="#324266"/>
<path d="M548.338 270.67H538.086V118.892H548.338V270.67Z" fill="#324266"/>
<path d="M691.783 270.67H681.531V79.5027H691.783V270.67Z" fill="#324266"/>
<path d="M702.026 270.67H691.773V87.229H702.026V270.67Z" fill="#324266"/>
<path d="M712.276 270.67H702.023V100.468H712.276V270.67Z" fill="#324266"/>
<path d="M732.776 270.67H722.523V102.206H732.776V270.67Z" fill="#324266"/>
<path d="M743.026 270.67H732.773V126.381H743.026V270.67Z" fill="#324266"/>
<path d="M732.776 91.8359H722.523V69.1918H732.776V91.8359Z" fill="#324266"/>
<path d="M794.268 78.5215H784.016V66.9617H794.268V78.5215Z" fill="#324266"/>
<path d="M732.776 62.5195H722.523V50.8409H732.776V62.5195Z" fill="#324266"/>
<path d="M753.268 270.67H743.016V92.3403H753.268V270.67Z" fill="#324266"/>
<path d="M763.518 270.67H753.266V100.468H763.518V270.67Z" fill="#324266"/>
<path d="M722.533 270.67H712.281V111.21H722.533V270.67Z" fill="#324266"/>
<path d="M773.768 270.67H763.516V78.4626H773.768V270.67Z" fill="#324266"/>
<path d="M773.768 63.8574H763.516V52.788H773.768V63.8574Z" fill="#324266"/>
<path d="M784.018 270.67H773.766V87.229H784.018V270.67Z" fill="#324266"/>
<path d="M794.268 270.67H784.016V98.7442H794.268V270.67Z" fill="#324266"/>
<path d="M804.494 270.67H794.242V118.892H804.494V270.67Z" fill="#324266"/>
<path d="M548.33 139.768H538.078V128.639H548.33V139.768Z" fill="#3F5483"/>
<path d="M589.307 153.705H579.055V142.68H589.307V153.705Z" fill="#3F5483"/>
<path d="M702.026 126.232H691.773V115.208H702.026V126.232Z" fill="#3F5483"/>
<path d="M743.002 153.75H732.75V142.651H743.002V153.75Z" fill="#3F5483"/>
<path d="M784.018 126.262H773.766V115.163H784.018V126.262Z" fill="#3F5483"/>
<path d="M630.307 139.725H620.055V124.168H630.307V139.725Z" fill="#3F5483"/>
<path d="M5.2249 270.67H-5.02734V103.172H5.2249V270.67Z" fill="#324266"/>
<path d="M25.7366 77.75H15.4844V64.2438H25.7366V77.75Z" fill="#324266"/>
<path d="M25.7366 55.4609H15.4844V44.8372H25.7366V55.4609Z" fill="#324266"/>
<path d="M15.471 270.67H5.21875V95.9657H15.471V270.67Z" fill="#324266"/>
<path d="M25.7366 270.67H15.4844V87.229H25.7366V270.67Z" fill="#324266"/>
<path d="M35.9671 270.67H25.7148V114.672H35.9671V270.67Z" fill="#324266"/>
<path d="M56.4671 77.0059H46.2148V61.5681H56.4671V77.0059Z" fill="#324266"/>
<path d="M158.936 82.459H148.684V70.7506H158.936V82.459Z" fill="#324266"/>
<path d="M97.4476 71.3457H87.1953V60.3802H97.4476V71.3457Z" fill="#324266"/>
<path d="M97.4476 53.2188H87.1953V42.0007H97.4476V53.2188Z" fill="#324266"/>
<path d="M76.9632 82.207H66.7109V70.989H76.9632V82.207Z" fill="#324266"/>
<path d="M46.2132 270.67H35.9609V103.172H46.2132V270.67Z" fill="#324266"/>
<path d="M56.4671 270.67H46.2148V95.9657H56.4671V270.67Z" fill="#324266"/>
<path d="M66.7132 270.67H56.4609V114.672H66.7132V270.67Z" fill="#324266"/>
<path d="M76.9632 270.67H66.7109V131.938H76.9632V270.67Z" fill="#324266"/>
<path d="M87.1937 270.67H76.9414V92.3403H87.1937V270.67Z" fill="#324266"/>
<path d="M97.4476 270.67H87.1953V79.5027H97.4476V270.67Z" fill="#324266"/>
<path d="M107.701 270.67H97.4492V87.229H107.701V270.67Z" fill="#324266"/>
<path d="M117.94 270.67H107.688V100.468H117.94V270.67Z" fill="#324266"/>
<path d="M138.451 270.67H128.199V102.206H138.451V270.67Z" fill="#324266"/>
<path d="M148.682 270.67H138.43V126.381H148.682V270.67Z" fill="#324266"/>
<path d="M138.451 91.834H128.199V69.1899H138.451V91.834Z" fill="#324266"/>
<path d="M199.924 78.5215H189.672V66.9617H199.924V78.5215Z" fill="#324266"/>
<path d="M138.451 62.5195H128.199V50.8409H138.451V62.5195Z" fill="#324266"/>
<path d="M158.936 270.67H148.684V92.3403H158.936V270.67Z" fill="#324266"/>
<path d="M169.198 270.67H158.945V100.468H169.198V270.67Z" fill="#324266"/>
<path d="M128.201 270.67H117.949V111.21H128.201V270.67Z" fill="#324266"/>
<path d="M179.428 270.67H169.176V78.4626H179.428V270.67Z" fill="#324266"/>
<path d="M179.428 63.8574H169.176V52.788H179.428V63.8574Z" fill="#324266"/>
<path d="M189.674 270.67H179.422V87.229H189.674V270.67Z" fill="#324266"/>
<path d="M199.924 270.67H189.672V98.7442H199.924V270.67Z" fill="#324266"/>
<path d="M210.162 270.67H199.91V118.892H210.162V270.67Z" fill="#324266"/>
<path d="M189.674 126.262H179.422V115.163H189.674V126.262Z" fill="#3F5483"/>
<path d="M35.9671 139.723H25.7148V124.166H35.9671V139.723Z" fill="#3F5483"/>
<path d="M814.76 270.67H804.508V107.719H814.76V270.67Z" fill="#324266"/>
<path d="M825.002 270.67H814.75V90.3641H825.002V270.67Z" fill="#324266"/>
<path d="M835.244 270.67H824.992V100.468H835.244V270.67Z" fill="#324266"/>
<path d="M855.752 270.67H845.5V109.68H855.752V270.67Z" fill="#324266"/>
<path d="M845.494 91.0469H835.242V78.1647H845.494V91.0469Z" fill="#324266"/>
<path d="M825.002 81.4492H814.75V68.9088H825.002V81.4492Z" fill="#324266"/>
<path d="M865.987 270.67H855.734V100.468H865.987V270.67Z" fill="#324266"/>
<path d="M876.229 270.67H865.977V114.672H876.229V270.67Z" fill="#324266"/>
<path d="M886.487 270.67H876.234V124.984H886.487V270.67Z" fill="#324266"/>
<path d="M896.737 270.67H886.484V103.172H896.737V270.67Z" fill="#324266"/>
<path d="M917.229 77.75H906.977V64.2438H917.229V77.75Z" fill="#324266"/>
<path d="M917.229 55.4629H906.977V44.8392H917.229V55.4629Z" fill="#324266"/>
<path d="M906.979 270.67H896.727V95.9657H906.979V270.67Z" fill="#324266"/>
<path d="M917.229 270.67H906.977V87.229H917.229V270.67Z" fill="#324266"/>
<path d="M927.471 270.67H917.219V114.672H927.471V270.67Z" fill="#324266"/>
<path d="M947.979 77.0078H937.727V61.57H947.979V77.0078Z" fill="#324266"/>
<path d="M1050.42 82.459H1040.17V70.7506H1050.42V82.459Z" fill="#324266"/>
<path d="M988.955 71.3457H978.703V60.3802H988.955V71.3457Z" fill="#324266"/>
<path d="M988.955 53.2188H978.703V42.0007H988.955V53.2188Z" fill="#324266"/>
<path d="M968.471 82.207H958.219V70.989H968.471V82.207Z" fill="#324266"/>
<path d="M886.487 95.1641H876.234V78.1661H886.487V95.1641Z" fill="#324266"/>
<path d="M886.487 69.6367H876.234V58.8496H886.487V69.6367Z" fill="#324266"/>
<path d="M865.987 83.3516H855.734V72.1335H865.987V83.3516Z" fill="#324266"/>
<path d="M845.494 66.1602H835.242V54.9421H845.494V66.1602Z" fill="#324266"/>
<path d="M937.729 270.67H927.477V103.172H937.729V270.67Z" fill="#324266"/>
<path d="M947.979 270.67H937.727V95.9657H947.979V270.67Z" fill="#324266"/>
<path d="M958.221 270.67H947.969V114.672H958.221V270.67Z" fill="#324266"/>
<path d="M968.471 270.67H958.219V131.938H968.471V270.67Z" fill="#324266"/>
<path d="M978.705 270.67H968.453V92.3403H978.705V270.67Z" fill="#324266"/>
<path d="M845.494 270.67H835.242V118.892H845.494V270.67Z" fill="#324266"/>
<path d="M988.955 270.67H978.703V79.5027H988.955V270.67Z" fill="#324266"/>
<path d="M999.198 270.67H988.945V87.229H999.198V270.67Z" fill="#324266"/>
<path d="M1009.43 270.67H999.18V100.468H1009.43V270.67Z" fill="#324266"/>
<path d="M1029.94 270.67H1019.69V102.206H1029.94V270.67Z" fill="#324266"/>
<path d="M1040.18 270.67H1029.93V126.381H1040.18V270.67Z" fill="#324266"/>
<path d="M1029.94 91.8359H1019.69V69.1918H1029.94V91.8359Z" fill="#324266"/>
<path d="M1091.43 78.5215H1081.18V66.9617H1091.43V78.5215Z" fill="#324266"/>
<path d="M1029.94 62.5195H1019.69V50.8409H1029.94V62.5195Z" fill="#324266"/>
<path d="M1050.42 270.67H1040.17V92.3403H1050.42V270.67Z" fill="#324266"/>
<path d="M1060.69 270.67H1050.44V100.468H1060.69V270.67Z" fill="#324266"/>
<path d="M1019.7 270.67H1009.45V111.21H1019.7V270.67Z" fill="#324266"/>
<path d="M1070.94 270.67H1060.69V78.4626H1070.94V270.67Z" fill="#324266"/>
<path d="M1070.94 63.8574H1060.69V52.788H1070.94V63.8574Z" fill="#324266"/>
<path d="M1081.18 270.67H1070.93V87.229H1081.18V270.67Z" fill="#324266"/>
<path d="M1091.43 270.67H1081.18V98.7442H1091.43V270.67Z" fill="#324266"/>
<path d="M1101.67 270.67H1091.41V118.892H1101.67V270.67Z" fill="#324266"/>
<path d="M845.487 139.768H835.234V128.639H845.487V139.768Z" fill="#3F5483"/>
<path d="M886.479 153.705H876.227V142.68H886.479V153.705Z" fill="#3F5483"/>
<path d="M1081.18 126.262H1070.93V115.163H1081.18V126.262Z" fill="#3F5483"/>
<path d="M927.471 139.723H917.219V124.166H927.471V139.723Z" fill="#3F5483"/>
<path d="M220.408 270.67H210.156V107.719H220.408V270.67Z" fill="#324266"/>
<path d="M230.67 270.67H220.418V90.3641H230.67V270.67Z" fill="#324266"/>
<path d="M240.901 270.67H230.648V100.468H240.901V270.67Z" fill="#324266"/>
<path d="M261.412 270.67H251.16V109.68H261.412V270.67Z" fill="#324266"/>
<path d="M251.162 91.0469H240.91V78.1647H251.162V91.0469Z" fill="#324266"/>
<path d="M230.67 81.4492H220.418V68.9088H230.67V81.4492Z" fill="#324266"/>
<path d="M271.651 270.67H261.398V100.468H271.651V270.67Z" fill="#324266"/>
<path d="M281.912 270.67H271.66V114.672H281.912V270.67Z" fill="#324266"/>
<path d="M292.143 270.67H281.891V124.984H292.143V270.67Z" fill="#324266"/>
<path d="M302.389 270.67H292.137V103.172H302.389V270.67Z" fill="#324266"/>
<path d="M322.901 77.75H312.648V64.2438H322.901V77.75Z" fill="#324266"/>
<path d="M322.901 55.4629H312.648V44.8392H322.901V55.4629Z" fill="#324266"/>
<path d="M312.643 270.67H302.391V95.9657H312.643V270.67Z" fill="#324266"/>
<path d="M322.901 270.67H312.648V87.229H322.901V270.67Z" fill="#324266"/>
<path d="M333.139 270.67H322.887V114.672H333.139V270.67Z" fill="#324266"/>
<path d="M353.631 77.0078H343.379V61.57H353.631V77.0078Z" fill="#324266"/>
<path d="M456.096 82.459H445.844V70.7506H456.096V82.459Z" fill="#324266"/>
<path d="M394.612 71.3457H384.359V60.3802H394.612V71.3457Z" fill="#324266"/>
<path d="M394.612 53.2188H384.359V42.0007H394.612V53.2188Z" fill="#324266"/>
<path d="M374.135 82.207H363.883V70.989H374.135V82.207Z" fill="#324266"/>
<path d="M292.143 95.1641H281.891V78.1661H292.143V95.1641Z" fill="#324266"/>
<path d="M292.143 69.6367H281.891V58.8496H292.143V69.6367Z" fill="#324266"/>
<path d="M271.651 83.3516H261.398V72.1335H271.651V83.3516Z" fill="#324266"/>
<path d="M251.162 66.1602H240.91V54.9421H251.162V66.1602Z" fill="#324266"/>
<path d="M343.385 270.67H333.133V103.172H343.385V270.67Z" fill="#324266"/>
<path d="M353.631 270.67H343.379V95.9657H353.631V270.67Z" fill="#324266"/>
<path d="M363.869 270.67H353.617V114.672H363.869V270.67Z" fill="#324266"/>
<path d="M374.135 270.67H363.883V131.938H374.135V270.67Z" fill="#324266"/>
<path d="M384.362 270.67H374.109V92.3403H384.362V270.67Z" fill="#324266"/>
<path d="M251.162 270.67H240.91V118.892H251.162V270.67Z" fill="#324266"/>
<path d="M394.612 270.67H384.359V79.5027H394.612V270.67Z" fill="#324266"/>
<path d="M404.858 270.67H394.605V87.229H404.858V270.67Z" fill="#324266"/>
<path d="M415.112 270.67H404.859V100.468H415.112V270.67Z" fill="#324266"/>
<path d="M435.604 270.67H425.352V102.206H435.604V270.67Z" fill="#324266"/>
<path d="M445.854 270.67H435.602V126.381H445.854V270.67Z" fill="#324266"/>
<path d="M435.604 91.8359H425.352V69.1918H435.604V91.8359Z" fill="#324266"/>
<path d="M497.096 78.5215H486.844V66.9617H497.096V78.5215Z" fill="#324266"/>
<path d="M435.604 62.5195H425.352V50.8409H435.604V62.5195Z" fill="#324266"/>
<path d="M456.096 270.67H445.844V92.3403H456.096V270.67Z" fill="#324266"/>
<path d="M466.354 270.67H456.102V100.468H466.354V270.67Z" fill="#324266"/>
<path d="M425.358 270.67H415.105V111.21H425.358V270.67Z" fill="#324266"/>
<path d="M476.604 270.67H466.352V78.4626H476.604V270.67Z" fill="#324266"/>
<path d="M476.604 63.8574H466.352V52.788H476.604V63.8574Z" fill="#324266"/>
<path d="M486.846 270.67H476.594V87.229H486.846V270.67Z" fill="#324266"/>
<path d="M497.096 270.67H486.844V98.7442H497.096V270.67Z" fill="#324266"/>
<path d="M507.33 270.67H497.078V118.892H507.33V270.67Z" fill="#324266"/>
<path d="M486.854 126.264H476.602V115.165H486.854V126.264Z" fill="#3F5483"/>
<path d="M333.143 139.725H322.891V124.168H333.143V139.725Z" fill="#3F5483"/>
<path d="M1111.92 270.67H1101.66V107.719H1111.92V270.67Z" fill="#324266"/>
<path d="M1122.17 270.67H1111.92V90.3641H1122.17V270.67Z" fill="#324266"/>
<path d="M1132.41 270.67H1122.16V100.468H1132.41V270.67Z" fill="#324266"/>
<path d="M1152.92 270.67H1142.67V109.68H1152.92V270.67Z" fill="#324266"/>
<path d="M1142.67 91.0469H1132.41V78.1647H1142.67V91.0469Z" fill="#324266"/>
<path d="M1122.17 81.4492H1111.92V68.9088H1122.17V81.4492Z" fill="#324266"/>
<path d="M1163.16 270.67H1152.91V100.468H1163.16V270.67Z" fill="#324266"/>
<path d="M1173.4 270.67H1163.15V114.672H1173.4V270.67Z" fill="#324266"/>
<path d="M1183.65 270.67H1173.4V124.984H1183.65V270.67Z" fill="#324266"/>
<path d="M1193.91 270.67H1183.66V103.172H1193.91V270.67Z" fill="#324266"/>
<path d="M1214.4 77.75H1204.15V64.2438H1214.4V77.75Z" fill="#324266"/>
<path d="M1214.4 55.4629H1204.15V44.8392H1214.4V55.4629Z" fill="#324266"/>
<path d="M1204.15 270.67H1193.9V95.9657H1204.15V270.67Z" fill="#324266"/>
<path d="M1214.4 270.67H1204.15V87.229H1214.4V270.67Z" fill="#324266"/>
<path d="M1224.63 270.67H1214.38V114.672H1224.63V270.67Z" fill="#324266"/>
<path d="M1245.14 77.0078H1234.88V61.57H1245.14V77.0078Z" fill="#324266"/>
<path d="M1347.6 82.459H1337.34V70.7506H1347.6V82.459Z" fill="#324266"/>
<path d="M1286.12 71.3457H1275.87V60.3802H1286.12V71.3457Z" fill="#324266"/>
<path d="M1286.12 53.2188H1275.87V42.0007H1286.12V53.2188Z" fill="#324266"/>
<path d="M1265.64 82.207H1255.39V70.989H1265.64V82.207Z" fill="#324266"/>
<path d="M1183.65 95.1641H1173.4V78.1661H1183.65V95.1641Z" fill="#324266"/>
<path d="M1183.65 69.6367H1173.4V58.8496H1183.65V69.6367Z" fill="#324266"/>
<path d="M1163.16 83.3516H1152.91V72.1335H1163.16V83.3516Z" fill="#324266"/>
<path d="M1142.67 66.1602H1132.41V54.9421H1142.67V66.1602Z" fill="#324266"/>
<path d="M1234.89 270.67H1224.63V103.172H1234.89V270.67Z" fill="#324266"/>
<path d="M1245.14 270.67H1234.88V95.9657H1245.14V270.67Z" fill="#324266"/>
<path d="M1255.38 270.67H1245.12V114.672H1255.38V270.67Z" fill="#324266"/>
<path d="M1265.64 270.67H1255.39V131.938H1265.64V270.67Z" fill="#324266"/>
<path d="M1275.87 270.67H1265.62V92.3403H1275.87V270.67Z" fill="#324266"/>
<path d="M1142.67 270.67H1132.41V118.892H1142.67V270.67Z" fill="#324266"/>
<path d="M1286.12 270.67H1275.87V79.5027H1286.12V270.67Z" fill="#324266"/>
<path d="M1296.37 270.67H1286.12V87.229H1296.37V270.67Z" fill="#324266"/>
<path d="M1306.62 270.67H1296.37V100.468H1306.62V270.67Z" fill="#324266"/>
<path d="M1327.11 270.67H1316.86V102.206H1327.11V270.67Z" fill="#324266"/>
<path d="M1337.35 270.67H1327.1V126.381H1337.35V270.67Z" fill="#324266"/>
<path d="M1327.11 91.8359H1316.86V69.1918H1327.11V91.8359Z" fill="#324266"/>
<path d="M1327.11 62.5195H1316.86V50.8409H1327.11V62.5195Z" fill="#324266"/>
<path d="M1347.6 270.67H1337.34V92.3403H1347.6V270.67Z" fill="#324266"/>
<path d="M1316.87 270.67H1306.62V111.21H1316.87V270.67Z" fill="#324266"/>
<path d="M1224.63 139.725H1214.38V124.168H1224.63V139.725Z" fill="#3F5483"/>
</g>
<defs>
<clipPath id="clip0_3001_5941">
<rect width="1344" height="502" fill="white"/>
</clipPath>
</defs>
</svg>
