<svg width="389" height="253" viewBox="0 0 389 253" fill="none" xmlns="http://www.w3.org/2000/svg">
<path d="M231.044 136.157C231.044 200.194 179.406 252.102 115.708 252.102C52.0162 252.102 0.376953 200.194 0.376953 136.157C0.376953 72.12 52.0162 20.2085 115.708 20.2085C179.407 20.2098 231.044 72.1214 231.044 136.157Z" fill="#7FCBB4"/>
<path d="M388.377 75.8366C388.377 117.662 354.353 151.57 312.372 151.57C270.403 151.57 236.377 117.663 236.377 75.8366C236.377 34.0097 270.401 0.101929 312.372 0.101929C354.353 0.101929 388.377 34.0097 388.377 75.8366Z" fill="#68CCEA"/>
<path d="M270.672 243.385C292.149 243.385 309.56 225.634 309.56 203.737C309.56 181.84 292.149 164.089 270.672 164.089C249.195 164.089 231.784 181.84 231.784 203.737C231.784 225.634 249.195 243.385 270.672 243.385Z" fill="#F2C45B"/>
</svg>
