<svg width="328" height="191" fill="none" xmlns="http://www.w3.org/2000/svg"><rect x="23" y="35.813" width="282.589" height="154.779" rx="7.083" fill="#83CBEF"/><rect x="34.723" y="65.128" width="123.249" height="113.739" rx="4.379" fill="#5BB6E3"/><path d="M78.536 170.088c-.45 0-.841-.577-1.173-1.73-.127-.44-.286-1.21-.477-2.31-.498.069-1.151.191-1.957.367l-1.95.403c-.245.641-.663 1.577-1.254 2.808-.157.274-.37.411-.638.411a.765.765 0 0 1-.528-.213.695.695 0 0 1-.227-.528c0-.234.369-1.126 1.107-2.676a.784.784 0 0 1-.125-.44c0-.396.24-.65.719-.762a60.971 60.971 0 0 1 2.111-3.607c1.158-1.853 1.88-2.779 2.163-2.779.386 0 .65.269.792.807l.462 2.463 1.092 5.095.418 1.159c.142.396.213.66.213.792a.69.69 0 0 1-.228.527.74.74 0 0 1-.52.213Zm-2.588-8.38-2.097 3.38c.591-.152 1.488-.335 2.69-.55l-.593-2.83Zm13.109 7.698c0 .21-.069.384-.206.521a.714.714 0 0 1-.528.205.705.705 0 0 1-.52-.205.707.707 0 0 1-.205-.521c0-.396-.032-.985-.096-1.767a23.79 23.79 0 0 1-.095-1.767c0-.107.02-.835.059-2.184-.191 0-.7-.005-1.525-.015a99.707 99.707 0 0 0-1.533-.015c-.17 0-.518.035-1.04.103.009.337.043.936.102 1.796.049.753.073 1.349.073 1.789 0 .235-.022.587-.066 1.056-.044.469-.066.823-.066 1.063a.703.703 0 0 1-.733.726.705.705 0 0 1-.726-.726c0-.24.022-.594.066-1.063.05-.469.073-.821.073-1.056 0-.454-.031-1.131-.095-2.031a34.44 34.44 0 0 1-.088-2.038c0-.269.083-.489.25-.66a.88.88 0 0 1 .66-.264c.175 0 .44-.024.791-.073.352-.054.619-.081.8-.081.42 0 1.053.008 1.898.022.846.01 1.479.015 1.9.015.195 0 .363.073.505.22a.68.68 0 0 1 .22.506c0 .317-.012.794-.037 1.429a40.599 40.599 0 0 0-.036 1.43c0 .401.031.997.095 1.789.068.792.103 1.391.103 1.796Zm5.154.719a6.277 6.277 0 0 1-1.613-.235l-.015 3.505a.715.715 0 0 1-.205.528.684.684 0 0 1-.513.205.709.709 0 0 1-.521-.205.73.73 0 0 1-.198-.528l.022-2.933v-2.925a55.866 55.866 0 0 0-.11-2.926l-.11-1.488c0-.347.064-.64.19-.88.147-.288.36-.432.639-.432.19 0 .35.068.476.205a.667.667 0 0 1 .198.491c0 .044-.007.125-.022.242a5.111 5.111 0 0 0-.051.418c.42-.288.826-.503 1.217-.645.39-.147.765-.22 1.122-.22 1.002 0 1.735.445 2.199 1.334.367.704.55 1.635.55 2.794 0 1.055-.284 1.925-.85 2.61-.602.723-1.403 1.085-2.405 1.085Zm.506-6.357c-.45 0-.856.1-1.218.301-.258.142-.586.401-.982.777.064 1.11.095 2.275.095 3.497a4.423 4.423 0 0 0 1.599.308c.61 0 1.077-.227 1.4-.682.279-.396.418-.909.418-1.539 0-.89-.11-1.555-.33-1.995-.215-.444-.543-.667-.982-.667Zm7.837 6.437c-1.105 0-1.999-.276-2.683-.828-.748-.611-1.122-1.466-1.122-2.566 0-1.271.308-2.336.924-3.197.669-.938 1.564-1.407 2.683-1.407.811 0 1.474.136 1.987.41.63.337.946.856.946 1.555 0 .488-.276.933-.829 1.334-.244.176-.762.45-1.554.821l-2.801 1.327c.274.406.614.711 1.019.916.411.206.888.308 1.43.308.337 0 .733-.063 1.188-.19.577-.162.948-.372 1.114-.631.166-.264.345-.396.535-.396.171 0 .323.066.455.198a.591.591 0 0 1 .205.448c0 .542-.437 1.009-1.312 1.4-.748.332-1.476.498-2.185.498Zm-.198-6.679c-.596 0-1.092.232-1.488.697-.396.459-.692 1.153-.887 2.082l2.25-1.07c.885-.431 1.516-.804 1.892-1.122-.42-.391-1.009-.587-1.767-.587Zm12.654 5.902c0 .21-.068.384-.205.521a.714.714 0 0 1-.528.205.704.704 0 0 1-.726-.726c0-.161-.012-.379-.036-.652-.03-.313-.047-.528-.052-.645a44.46 44.46 0 0 1-.022-1.525c0 .151.01-.831.03-2.948a7.215 7.215 0 0 1-.975.066c-.817 0-1.608-.014-2.376-.044 0 .201.003.506.008.917.004.405.007.711.007.916 0 1.545-.088 2.603-.264 3.175-.298.943-.919 1.415-1.862 1.415-.367 0-.687-.076-.961-.228-.327-.185-.491-.449-.491-.791a.67.67 0 0 1 .169-.462.59.59 0 0 1 .454-.191c.098 0 .237.037.418.11.181.073.318.11.411.11.357 0 .591-.256.704-.77.058-.293.088-.809.088-1.547 0-.381-.027-.953-.081-1.715a29.165 29.165 0 0 1-.073-1.709c0-.219.073-.395.22-.527a.817.817 0 0 1 .557-.198c.127 0 .295.007.506.022.264.019.435.029.513.029.538.024 1.222.037 2.053.037.181 0 .449-.035.806-.103.357-.068.628-.103.814-.103.543 0 .814.235.814.704 0 .425-.008 1.061-.022 1.906-.01.846-.015 1.481-.015 1.907 0 .596.007 1.094.022 1.495.005.122.022.347.051.675a6.7 6.7 0 0 1 .044.674Zm7.787-1.921c0 .861-.338 1.501-1.012 1.921-.572.362-1.349.543-2.332.543-.18 0-.425-.005-.733-.015a16.75 16.75 0 0 0-.74-.029.995.995 0 0 1-.235.029c-.498 0-.748-.337-.748-1.012 0-.092.027-.386.081-.879.068-.655.103-1.269.103-1.841 0-.391-.025-.943-.074-1.657a29.168 29.168 0 0 1-.066-1.664c0-.518.237-.777.711-.777.504 0 .756.225.756.674 0 .514.031 1.222.095 2.127.239-.01.428-.015.564-.015 1.178 0 2.044.159 2.596.477.689.4 1.034 1.107 1.034 2.118Zm-1.415 0c0-.547-.169-.916-.506-1.107-.274-.161-.763-.242-1.467-.242-.19 0-.454.01-.791.03.004.102.007.2.007.293 0 .371-.044 1.109-.132 2.214.406.01.726.015.96.015 1.286 0 1.929-.401 1.929-1.203Z" fill="#fff"/><rect x="57.391" y="71.371" width="12.253" height="12.253" rx="1.246" fill="#fff"/><rect x="73.797" y="71.371" width="12.253" height="12.253" rx="1.246" fill="#fff"/><rect x="90.203" y="71.371" width="12.253" height="12.253" rx="1.246" fill="#fff"/><rect x="106.609" y="71.371" width="12.253" height="12.253" rx="1.246" fill="#fff"/><rect x="123.016" y="71.371" width="12.253" height="12.253" rx="1.246" fill="#fff"/><rect x="139.426" y="71.371" width="12.253" height="12.253" rx="1.246" fill="#fff"/><rect x="40.98" y="87.759" width="12.253" height="12.253" rx="1.246" fill="#fff"/><rect x="57.387" y="87.759" width="12.253" height="12.253" rx="1.246" fill="#fff"/><rect x="73.793" y="87.759" width="12.253" height="12.253" rx="1.246" fill="#fff"/><rect x="90.203" y="87.759" width="12.253" height="12.253" rx="1.246" fill="#fff"/><rect x="106.609" y="87.759" width="12.253" height="12.253" rx="1.246" fill="#fff"/><rect x="123.016" y="87.759" width="12.253" height="12.253" rx="1.246" fill="#fff"/><rect x="139.422" y="87.759" width="12.253" height="12.253" rx="1.246" fill="#fff"/><rect x="40.98" y="104.148" width="12.253" height="12.253" rx="1.246" fill="#fff"/><rect x="57.387" y="104.148" width="12.253" height="12.253" rx="1.246" fill="#fff"/><rect x="73.793" y="104.148" width="12.253" height="12.253" rx="1.246" fill="#fff"/><rect x="90.203" y="104.148" width="12.253" height="12.253" rx="1.246" fill="#fff"/><rect x="106.609" y="104.148" width="12.253" height="12.253" rx="1.246" fill="#fff"/><rect x="123.016" y="104.148" width="12.253" height="12.253" rx="1.246" fill="#fff"/><rect x="139.422" y="104.148" width="12.253" height="12.253" rx="1.246" fill="#fff"/><rect x="40.98" y="120.538" width="12.253" height="12.253" rx="1.246" fill="#fff"/><rect x="57.387" y="120.538" width="12.253" height="12.253" rx="1.246" fill="#fff"/><rect x="73.793" y="120.538" width="12.253" height="12.253" rx="1.246" fill="#fff"/><rect x="90.203" y="120.538" width="12.253" height="12.253" rx="1.246" fill="#fff"/><rect x="106.609" y="120.538" width="12.253" height="12.253" rx="1.246" fill="#fff"/><rect x="123.016" y="120.538" width="12.253" height="12.253" rx="1.246" fill="#fff"/><rect x="139.422" y="120.538" width="12.253" height="12.253" rx="1.246" fill="#fff"/><rect x="40.98" y="136.927" width="12.253" height="12.253" rx="1.246" fill="#fff"/><rect x="57.387" y="136.927" width="12.253" height="12.253" rx="1.246" fill="#fff"/><rect x="73.793" y="136.927" width="12.253" height="12.253" rx="1.246" fill="#fff"/><rect x="169.574" y="65.128" width="123.249" height="113.739" rx="4.379" fill="#5BB6E3"/><path d="M228.236 170.477c-.264 0-.481-.137-.652-.411-.147-.234-.279-.626-.396-1.173l-.264-1.261c-.2-.782-.518-2.507-.953-5.176l-1.466 4.421-.433 1.393a7.962 7.962 0 0 1-.55 1.356c-.205.372-.481.557-.828.557-.289 0-.516-.156-.682-.469a4.01 4.01 0 0 1-.293-.784l-.213-.814a63.193 63.193 0 0 1-1.305-5.543l-.264 1.313-.946 3.871c-.039.454-.161 1.126-.366 2.016-.147.381-.389.572-.726.572a.705.705 0 0 1-.572-.257.82.82 0 0 1-.183-.542c0-.817.168-1.819.506-3.006l.806-2.955.425-2.309c.215-1.081.443-1.787.682-2.119.196-.284.438-.426.726-.426.318 0 .555.181.711.543.191.435.396 1.322.616 2.661.259 1.608.662 3.348 1.21 5.22a54.404 54.404 0 0 0 1.877-5.879l.219-1.071c.088-.43.203-.777.345-1.041.191-.362.452-.543.785-.543.42 0 .74.406.96 1.218.078.278.173.855.286 1.73.288 2.209.648 4.096 1.078 5.66l.359 1.261c.186.674.279 1.09.279 1.246 0 .21-.081.386-.242.528a.776.776 0 0 1-.536.213Zm8.087-.125c-.093 0-.261-.107-.506-.323-.22-.2-.383-.378-.491-.535a9.028 9.028 0 0 1-1.239.572c-.357.132-.655.198-.894.198-1.144 0-1.978-.323-2.501-.968-.493-.606-.74-1.534-.74-2.786 0-1.183.406-2.194 1.217-3.035.816-.841 1.789-1.261 2.918-1.261.425 0 .902.11 1.43.33.664.274.997.604.997.99a.496.496 0 0 1-.147.352c-.049.185-.088.491-.117.916-.025.425-.039.97-.044 1.635-.005.606.036 1.085.124 1.437.049.215.203.645.462 1.29.035.088.091.218.169.389l.044.125a.63.63 0 0 1-.205.483.676.676 0 0 1-.477.191Zm-1.525-5.095c0-.211.012-.438.037-.682.029-.25.071-.513.124-.792a3.377 3.377 0 0 0-.469-.205.997.997 0 0 0-.308-.066c-.757 0-1.412.31-1.965.931a3.117 3.117 0 0 0-.821 2.133c0 .802.142 1.403.426 1.804.283.401.708.601 1.275.601.469 0 .868-.085 1.195-.257.176-.092.423-.278.741-.557-.157-1.295-.235-2.265-.235-2.91Zm10.851 2.61c0 .19-.01.474-.029.85-.02.376-.03.66-.03.851a.686.686 0 0 1-.212.513.683.683 0 0 1-.514.212.712.712 0 0 1-.733-.725c0-.318.015-.792.044-1.423.03-.63.044-1.104.044-1.422 0-.601-.046-1.173-.139-1.716-.596.88-1.029 1.494-1.298 1.841-.518.664-1.029 1.212-1.532 1.642-.665.562-1.158 1.012-1.481 1.349-.259.269-.53.403-.814.403a.924.924 0 0 1-.557-.169.599.599 0 0 1-.257-.505c0-1.393-.024-2.845-.073-4.355a462.523 462.523 0 0 0-.081-2.295c0-.499.245-.748.734-.748.415 0 .657.235.725.704.01.073.027.555.052 1.444l.088 3.644c.738-.65 1.508-1.471 2.309-2.463.249-.308.931-1.203 2.046-2.684.288-.386.596-.579.923-.579.206 0 .377.068.514.205a.696.696 0 0 1 .212.521c0 .542.01 1.361.03 2.456a155.2 155.2 0 0 1 .029 2.449Zm-4.047-7.743c1.432 0 2.253-.391 2.463-1.173.083-.308.259-.461.528-.461.157 0 .291.051.403.153.118.103.171.23.162.382l-.015.102c-.059.743-.489 1.3-1.29 1.672-.626.283-1.376.425-2.251.425a2.647 2.647 0 0 1-1.826-.704c-.537-.479-.806-1.063-.806-1.752 0-.366.181-.55.542-.55.367 0 .55.184.55.55 0 .381.164.706.491.975.308.254.658.381 1.049.381Z" fill="#fff"/><rect x="225.059" y="71.371" width="12.253" height="12.253" rx="1.246" fill="#fff"/><rect x="241.465" y="71.371" width="12.253" height="12.253" rx="1.246" fill="#fff"/><rect x="257.871" y="71.371" width="12.253" height="12.253" rx="1.246" fill="#fff"/><rect x="274.281" y="71.371" width="12.253" height="12.253" rx="1.246" fill="#fff"/><rect x="175.836" y="87.759" width="12.253" height="12.253" rx="1.246" fill="#fff"/><rect x="192.242" y="87.759" width="12.253" height="12.253" rx="1.246" fill="#fff"/><rect x="208.648" y="87.759" width="12.253" height="12.253" rx="1.246" fill="#fff"/><rect x="225.059" y="87.759" width="12.253" height="12.253" rx="1.246" fill="#fff"/><rect x="241.465" y="87.759" width="12.253" height="12.253" rx="1.246" fill="#fff"/><rect x="257.871" y="87.759" width="12.253" height="12.253" rx="1.246" fill="#fff"/><rect x="274.277" y="87.759" width="12.253" height="12.253" rx="1.246" fill="#fff"/><rect x="175.836" y="104.148" width="12.253" height="12.253" rx="1.246" fill="#fff"/><rect x="192.242" y="104.148" width="12.253" height="12.253" rx="1.246" fill="#fff"/><rect x="208.648" y="104.148" width="12.253" height="12.253" rx="1.246" fill="#fff"/><rect x="225.059" y="104.148" width="12.253" height="12.253" rx="1.246" fill="#fff"/><rect x="241.465" y="104.148" width="12.253" height="12.253" rx="1.246" fill="#fff"/><rect x="257.871" y="104.148" width="12.253" height="12.253" rx="1.246" fill="#fff"/><rect x="274.277" y="104.148" width="12.253" height="12.253" rx="1.246" fill="#fff"/><rect x="175.836" y="120.538" width="12.253" height="12.253" rx="1.246" fill="#fff"/><rect x="192.242" y="120.538" width="12.253" height="12.253" rx="1.246" fill="#fff"/><rect x="208.648" y="120.538" width="12.253" height="12.253" rx="1.246" fill="#fff"/><rect x="225.059" y="120.538" width="12.253" height="12.253" rx="1.246" fill="#fff"/><rect x="241.465" y="120.538" width="12.253" height="12.253" rx="1.246" fill="#fff"/><rect x="257.871" y="120.538" width="12.253" height="12.253" rx="1.246" fill="#fff"/><rect x="274.277" y="120.538" width="12.253" height="12.253" rx="1.246" fill="#fff"/><rect x="175.836" y="136.927" width="12.253" height="12.253" rx="1.246" fill="#fff"/><rect x="192.242" y="136.927" width="12.253" height="12.253" rx="1.246" fill="#fff"/><rect x="208.648" y="136.927" width="12.253" height="12.253" rx="1.246" fill="#fff"/><rect x="225.059" y="136.927" width="12.253" height="12.253" rx="1.246" fill="#fff"/><rect x="241.465" y="136.927" width="12.253" height="12.253" rx="1.246" fill="#fff"/><rect x="257.871" y="136.927" width="12.253" height="12.253" rx="1.246" fill="#fff"/><g filter="url(#a)"><rect x="13" y="11" width="302" height="40" rx="20" fill="#fff" shape-rendering="crispEdges"/><path d="M53.556 26.681h-1.939c.3-.398.478-.893.478-1.428a2.384 2.384 0 0 0-2.382-2.382c-.79 0-1.374.284-1.835.892-.386.509-.669 1.22-1.023 2.118-.353-.898-.636-1.609-1.022-2.118-.461-.609-1.044-.892-1.835-.892a2.384 2.384 0 0 0-2.382 2.382c0 .535.178 1.03.478 1.428h-1.938a1.43 1.43 0 0 0-1.43 1.43v.952c0 .621.399 1.15.953 1.347v7.29a1.43 1.43 0 0 0 1.43 1.429h11.494a1.43 1.43 0 0 0 1.429-1.429v-7.29c.554-.197.952-.726.952-1.347v-.953a1.43 1.43 0 0 0-1.428-1.428Zm-5.826-.42c.73-1.852 1.007-2.437 1.983-2.437a1.43 1.43 0 0 1 1.43 1.429 1.43 1.43 0 0 1-1.43 1.428h-2.15l.167-.42Zm-3.732-2.437c.976 0 1.254.585 1.983 2.436.053.134.108.275.167.421h-2.15a1.43 1.43 0 0 1-1.43-1.428 1.43 1.43 0 0 1 1.43-1.43Zm.952 14.352h-3.842a.477.477 0 0 1-.476-.476v-7.208h4.318v7.684Zm0-8.637h-4.794a.477.477 0 0 1-.477-.476v-.953c0-.262.214-.476.477-.476h4.794v1.905Zm2.858 8.637h-1.905V27.634h1.905v10.542Zm5.271-.476a.477.477 0 0 1-.476.476H48.76v-7.684h4.318V37.7Zm.953-8.637a.477.477 0 0 1-.476.476H48.76v-1.905h4.794c.263 0 .477.214.477.476v.953ZM67.45 38.536c-1.652 0-3.053-.495-4.201-1.485-1.219-1.055-1.828-2.414-1.828-4.078 0-2.028.6-3.87 1.802-5.529 1.341-1.84 3.014-2.76 5.018-2.76 1.928 0 3.36.434 4.298 1.301.979.903 1.468 2.326 1.468 4.272 0 2.027-.55 3.855-1.653 5.484-1.265 1.864-2.9 2.795-4.904 2.795Zm.791-12.05c-1.435 0-2.651.715-3.647 2.145-.92 1.312-1.38 2.76-1.38 4.342 0 1.13.419 2.05 1.257 2.76.802.667 1.796 1.001 2.98 1.001 1.423 0 2.598-.717 3.524-2.153.826-1.283 1.239-2.725 1.239-4.324 0-1.4-.314-2.385-.94-2.953-.598-.545-1.609-.818-3.033-.818Zm15.548 10.96a.828.828 0 0 1-.246.624.846.846 0 0 1-.624.246.857.857 0 0 1-.633-.246.828.828 0 0 1-.246-.624c0-.45-.015-1.538-.044-3.26a95.86 95.86 0 0 1-.633-.027c-1.382 0-2.719.158-4.007.475 0 .334-.03.826-.088 1.476-.059.627-.088 1.12-.088 1.477a.856.856 0 0 1-.246.633.827.827 0 0 1-.624.246.846.846 0 0 1-.624-.246.857.857 0 0 1-.247-.633c0-.211.027-.498.08-.861.058-.37.087-.66.087-.87 0-.352-.008-.88-.026-1.583a70.259 70.259 0 0 1-.026-1.59v-1.635c.006-.715.008-1.26.008-1.635a.846.846 0 0 1 .87-.87c.258 0 .47.082.633.246a.827.827 0 0 1 .246.624c0 .422.006.993.018 1.714.018.797.03 1.368.035 1.714 1.442-.334 2.977-.469 4.606-.404v-.572c0-.351.011-.805.035-1.362.023-.604.035-1.058.035-1.362 0-.252.082-.46.246-.624a.857.857 0 0 1 .633-.247c.252 0 .46.082.624.247a.846.846 0 0 1 .246.624c0 .31-.012.764-.035 1.362a37.108 37.108 0 0 0-.035 1.362c0 .639.012 1.57.035 2.795.023 1.219.035 2.148.035 2.786Zm11.461.027c0 .252-.082.46-.246.624a.857.857 0 0 1-.633.246.846.846 0 0 1-.624-.246.846.846 0 0 1-.246-.624c0-.194-.015-.454-.044-.783a18.07 18.07 0 0 1-.061-.773 51.22 51.22 0 0 1-.027-1.828c0 .181.012-.996.035-3.533-.386.052-.776.079-1.169.079-.978 0-1.927-.018-2.847-.053 0 .24.003.607.008 1.099.006.486.01.852.01 1.098 0 1.852-.106 3.12-.317 3.806-.358 1.13-1.102 1.696-2.233 1.696-.439 0-.823-.09-1.15-.272-.394-.223-.59-.54-.59-.95 0-.216.068-.4.202-.553a.708.708 0 0 1 .545-.229c.118 0 .284.044.501.132.217.088.381.132.492.132.428 0 .71-.308.844-.923.07-.351.106-.97.106-1.854 0-.457-.033-1.143-.097-2.057a35.148 35.148 0 0 1-.088-2.048.81.81 0 0 1 .264-.633.981.981 0 0 1 .668-.237c.152 0 .354.009.606.026.317.024.522.036.615.036.645.029 1.465.044 2.461.044.217 0 .54-.041.967-.123.428-.082.753-.124.976-.124.65 0 .975.282.975.844 0 .51-.009 1.272-.026 2.285a213.82 213.82 0 0 0-.018 2.285c0 .715.01 1.313.027 1.794.006.146.026.416.061.808.035.34.053.61.053.809Zm9.343 1.107c-.112 0-.314-.129-.607-.387a3.975 3.975 0 0 1-.589-.641c-.562.304-1.057.533-1.485.685-.428.158-.785.238-1.072.238-1.371 0-2.37-.387-2.997-1.16-.592-.727-.888-1.84-.888-3.34 0-1.418.486-2.631 1.46-3.64.978-1.007 2.144-1.51 3.497-1.51.51 0 1.081.131 1.714.395.797.328 1.195.723 1.195 1.186a.594.594 0 0 1-.175.422c-.059.223-.106.589-.141 1.099-.029.51-.047 1.163-.053 1.96-.006.726.044 1.3.15 1.722.058.258.243.774.553 1.547.041.106.109.261.202.466l.053.15a.757.757 0 0 1-.246.58.813.813 0 0 1-.571.228Zm-1.828-6.108c0-.252.014-.525.044-.818.035-.299.085-.615.149-.949a4.149 4.149 0 0 0-.562-.246 1.2 1.2 0 0 0-.37-.08c-.908 0-1.693.373-2.355 1.117-.656.738-.985 1.59-.985 2.558 0 .96.17 1.681.51 2.162.34.48.85.72 1.53.72.562 0 1.04-.102 1.432-.307.211-.111.507-.334.888-.668-.188-1.553-.281-2.716-.281-3.49Zm13.007 3.129c0 .228-.011.568-.035 1.02-.023.45-.035.79-.035 1.019a.82.82 0 0 1-.255.615.82.82 0 0 1-.615.255.86.86 0 0 1-.879-.87c0-.381.018-.95.053-1.705.035-.756.053-1.325.053-1.706 0-.72-.056-1.406-.167-2.056-.715 1.054-1.234 1.79-1.556 2.206-.621.797-1.233 1.453-1.837 1.969-.797.674-1.389 1.212-1.775 1.617-.311.322-.636.483-.976.483-.258 0-.48-.067-.668-.202a.72.72 0 0 1-.308-.606c0-1.67-.029-3.41-.087-5.221-.065-1.88-.097-2.798-.097-2.751 0-.598.293-.896.879-.896.498 0 .788.28.87.843.012.088.032.665.061 1.732l.106 4.368c.885-.78 1.808-1.764 2.768-2.953.299-.37 1.117-1.442 2.453-3.217.345-.463.714-.694 1.107-.694.246 0 .451.082.615.246a.83.83 0 0 1 .255.624c0 .65.012 1.631.035 2.944.024 1.307.035 2.285.035 2.936Zm-4.851-9.282c1.717 0 2.701-.468 2.953-1.406.1-.37.311-.554.633-.554.187 0 .348.062.483.185a.535.535 0 0 1 .194.457l-.018.123c-.07.89-.586 1.559-1.547 2.004-.75.34-1.649.51-2.698.51a3.177 3.177 0 0 1-2.189-.844c-.644-.574-.966-1.274-.966-2.1 0-.44.216-.66.65-.66.439 0 .659.22.659.66 0 .456.196.846.589 1.168a1.92 1.92 0 0 0 1.257.457Zm15.267 11.127a.845.845 0 0 1-.871.87.856.856 0 0 1-.632-.246.828.828 0 0 1-.247-.624c0-.45-.014-1.538-.043-3.26a93.667 93.667 0 0 1-.633-.027c-1.383 0-2.719.158-4.008.475 0 .334-.029.826-.088 1.476-.059.627-.088 1.12-.088 1.477a.857.857 0 0 1-.246.633.827.827 0 0 1-.624.246.845.845 0 0 1-.624-.246.857.857 0 0 1-.246-.633c0-.211.026-.498.079-.861.059-.37.088-.66.088-.87 0-.352-.009-.88-.026-1.583a68.699 68.699 0 0 1-.027-1.59v-1.635c.006-.715.009-1.26.009-1.635 0-.258.082-.466.246-.624a.845.845 0 0 1 .624-.246c.258 0 .469.082.633.246a.828.828 0 0 1 .246.624c0 .422.006.993.018 1.714.017.797.029 1.368.035 1.714 1.441-.334 2.976-.469 4.605-.404v-.572c0-.351.012-.805.035-1.362a36.91 36.91 0 0 0 .035-1.362c0-.252.083-.46.247-.624a.856.856 0 0 1 .632-.247.847.847 0 0 1 .871.87c0 .311-.012.765-.036 1.363a37.992 37.992 0 0 0-.035 1.362c0 .639.012 1.57.035 2.795.024 1.219.036 2.148.036 2.786Zm13.42-2.048c0 .926-.272 1.662-.817 2.206-.539.54-1.266.81-2.18.81-.738 0-1.371-.092-1.898-.273-.768-.264-1.151-.683-1.151-1.257 0-.158.084-.328.254-.51.176-.182.343-.272.501-.272.235 0 .586.108 1.055.325.475.21.888.316 1.239.316.323 0 .624-.14.906-.422.287-.287.43-.594.43-.923 0-.427-.219-.755-.659-.984-.152-.082-.559-.214-1.222-.395-.55-.153-.826-.35-.826-.59 0-.34.141-.57.422-.694.123-.047.407-.1.853-.158.427-.047.732-.135.914-.264.287-.199.43-.536.43-1.01 0-.698-.565-1.046-1.696-1.046-.264 0-.554.12-.87.36-.316.235-.58.352-.791.352a.916.916 0 0 1-.606-.22.69.69 0 0 1-.255-.545c0-.404.325-.785.975-1.143.574-.316 1.09-.474 1.547-.474.838 0 1.585.19 2.241.571.774.457 1.16 1.072 1.16 1.846 0 1.014-.328 1.787-.984 2.32.686.72 1.028 1.412 1.028 2.074Zm9.018 3.182c-.111 0-.314-.129-.606-.387a3.93 3.93 0 0 1-.589-.641c-.563.304-1.058.533-1.486.685-.427.158-.785.238-1.072.238-1.371 0-2.37-.387-2.997-1.16-.592-.727-.888-1.84-.888-3.34 0-1.418.487-2.631 1.459-3.64.979-1.007 2.145-1.51 3.498-1.51.51 0 1.081.131 1.714.395.797.328 1.195.723 1.195 1.186a.594.594 0 0 1-.175.422c-.059.223-.106.589-.141 1.099-.029.51-.047 1.163-.053 1.96-.006.726.044 1.3.15 1.722.058.258.243.774.553 1.547.041.106.109.261.203.466l.052.15a.757.757 0 0 1-.246.58.813.813 0 0 1-.571.228Zm-1.828-6.108c0-.252.014-.525.044-.818.035-.299.085-.615.149-.949a4.149 4.149 0 0 0-.562-.246 1.2 1.2 0 0 0-.369-.08c-.909 0-1.694.373-2.356 1.117-.656.738-.984 1.59-.984 2.558 0 .96.17 1.681.509 2.162.34.48.85.72 1.53.72.562 0 1.04-.102 1.432-.307.211-.111.507-.334.888-.668-.187-1.553-.281-2.716-.281-3.49Zm11.962 4.974a.828.828 0 0 1-.246.624.845.845 0 0 1-.624.246.856.856 0 0 1-.633-.246.828.828 0 0 1-.246-.624c0-.45-.015-1.538-.044-3.26a93.667 93.667 0 0 1-.633-.027c-1.383 0-2.719.158-4.008.475 0 .334-.029.826-.088 1.476-.058.627-.088 1.12-.088 1.477a.857.857 0 0 1-.246.633.827.827 0 0 1-.624.246.845.845 0 0 1-.624-.246.857.857 0 0 1-.246-.633c0-.211.027-.498.079-.861.059-.37.088-.66.088-.87 0-.352-.009-.88-.026-1.583a68.699 68.699 0 0 1-.027-1.59v-1.635c.006-.715.009-1.26.009-1.635 0-.258.082-.466.246-.624a.845.845 0 0 1 .624-.246c.258 0 .469.082.633.246a.828.828 0 0 1 .246.624c0 .422.006.993.018 1.714.017.797.029 1.368.035 1.714 1.441-.334 2.977-.469 4.605-.404v-.572c0-.351.012-.805.036-1.362.023-.604.035-1.058.035-1.362 0-.252.082-.46.246-.624a.856.856 0 0 1 .633-.247c.252 0 .46.082.624.247a.846.846 0 0 1 .246.624c0 .31-.012.764-.035 1.362a36.182 36.182 0 0 0-.036 1.362c0 .639.012 1.57.036 2.795.023 1.219.035 2.148.035 2.786Zm9.096 0a.782.782 0 0 1-.281.616.917.917 0 0 1-.65.254.928.928 0 0 1-.659-.255.794.794 0 0 1-.273-.615c0-.246-.006-.577-.017-.993l-.036-1.151a8.736 8.736 0 0 0-2.311 1.186c-.399.287-1.037.812-1.916 1.574a.964.964 0 0 1-.651.263.935.935 0 0 1-.659-.264.802.802 0 0 1-.281-.615c0-.55.97-1.386 2.909-2.505-1.5-.656-2.25-1.45-2.25-2.381 0-1.313.894-2.394 2.681-3.244.744-.351 1.793-.527 3.146-.527.305 0 .56.111.765.334.211.217.316.486.316.809 0 .832.027 2.083.08 3.753.058 1.67.087 2.923.087 3.761Zm-1.942-3.603c-.064-2.203-.1-3.343-.105-3.42-.293.018-.484.033-.572.045-.504.052-1.037.275-1.599.668-.657.45-.988.937-.993 1.459.293.58.767.955 1.423 1.125.364.093.979.135 1.846.123Zm10.978-4.219a.887.887 0 0 1-.246.642.82.82 0 0 1-.616.246c-.158 0-.395-.006-.712-.018-.31-.017-.545-.026-.703-.026-.176 0-.392.017-.65.052.129 3.088.193 5.183.193 6.285 0 1.172-.31 1.758-.931 1.758a.912.912 0 0 1-.616-.229.735.735 0 0 1-.255-.571c0-.223.009-.557.027-1.002.017-.446.026-.78.026-1.002 0-.774-.058-2.514-.176-5.22a22.563 22.563 0 0 0-1.116-.019c-.51 0-.864-.035-1.063-.105-.369-.129-.554-.398-.554-.809 0-.246.076-.457.229-.632a.789.789 0 0 1 .615-.264h5.185c.434 0 .747.044.941.132.281.135.422.395.422.782Zm10.582 5.977c0 .228-.012.568-.036 1.02-.023.45-.035.79-.035 1.019a.82.82 0 0 1-.255.615.82.82 0 0 1-.615.255.86.86 0 0 1-.879-.87c0-.381.018-.95.053-1.705.035-.756.053-1.325.053-1.706 0-.72-.056-1.406-.167-2.056-.715 1.054-1.234 1.79-1.556 2.206-.621.797-1.233 1.453-1.837 1.969-.797.674-1.388 1.212-1.775 1.617-.311.322-.636.483-.976.483-.258 0-.48-.067-.668-.202a.719.719 0 0 1-.307-.606c0-1.67-.03-3.41-.088-5.221-.065-1.88-.097-2.798-.097-2.751 0-.598.293-.896.879-.896.498 0 .788.28.87.843.012.088.032.665.062 1.732l.105 4.368c.885-.78 1.808-1.764 2.769-2.953.298-.37 1.116-1.442 2.452-3.217.345-.463.715-.694 1.107-.694.246 0 .451.082.615.246a.83.83 0 0 1 .255.624c0 .65.012 1.631.035 2.944.024 1.307.036 2.285.036 2.936Zm9.439 1.845a.785.785 0 0 1-.281.616.921.921 0 0 1-.651.254.932.932 0 0 1-.659-.255.796.796 0 0 1-.272-.615c0-.246-.006-.577-.018-.993l-.035-1.151a8.72 8.72 0 0 0-2.311 1.186c-.399.287-1.038.812-1.916 1.574a.966.966 0 0 1-.651.263.931.931 0 0 1-.659-.264.799.799 0 0 1-.281-.615c0-.55.969-1.386 2.909-2.505-1.5-.656-2.25-1.45-2.25-2.381 0-1.313.893-2.394 2.681-3.244.744-.351 1.793-.527 3.146-.527.305 0 .56.111.765.334.211.217.316.486.316.809 0 .832.026 2.083.079 3.753.059 1.67.088 2.923.088 3.761Zm-1.942-3.603c-.065-2.203-.1-3.343-.106-3.42-.293.018-.483.033-.571.045-.504.052-1.037.275-1.6.668-.656.45-.987.937-.993 1.459.293.58.768.955 1.424 1.125.363.093.979.135 1.846.123Zm16.813 1.863c0 1.072-.832 1.831-2.496 2.276-1.043.282-2.311.422-3.806.422-.228 0-.448-.09-.659-.272-.205-.182-.307-.384-.307-.607v-1.67l.088-4.71v-.88c.005-.357.043-.644.114-.86a.52.52 0 0 1 .263-.344c.059-.035.22-.081.484-.14.351-.088.937-.132 1.758-.132.943 0 1.798.229 2.566.686.897.533 1.345 1.242 1.345 2.127 0 .82-.44 1.42-1.319 1.801.446.194.871.507 1.275.94.463.493.694.947.694 1.363Zm-2.294-4.104c0-.358-.246-.671-.738-.94-.434-.241-.844-.361-1.231-.361h-.36c-.445 0-.747.009-.905.026-.006.2-.009.522-.009.967 0 .111.015.331.044.66.023.274.029.497.018.667.334.035.635.053.905.053.656 0 1.134-.041 1.432-.123.563-.158.844-.475.844-.95Zm.554 4.025c0-.317-.232-.615-.694-.897a3.462 3.462 0 0 0-1.125-.457c-.229-.046-.566-.073-1.011-.079a20.902 20.902 0 0 1-1.02-.035c-.023.399-.035.736-.035 1.01v1.715c2.59-.111 3.885-.53 3.885-1.257Zm18.202 1.82c0 .251-.082.46-.246.623a.856.856 0 0 1-.633.246.845.845 0 0 1-.624-.246.846.846 0 0 1-.246-.624c0-.474-.038-1.18-.114-2.118-.076-.937-.114-1.643-.114-2.118 0-.129.023-1.002.07-2.62-.229 0-.838-.005-1.828-.017-.75-.012-1.363-.017-1.837-.017-.205 0-.621.04-1.248.123.012.404.053 1.122.123 2.153.058.902.088 1.617.088 2.145 0 .28-.027.703-.079 1.265-.053.563-.079.988-.079 1.275 0 .252-.083.46-.247.624a.856.856 0 0 1-.632.246.845.845 0 0 1-.624-.246.846.846 0 0 1-.247-.624c0-.288.027-.712.08-1.275.058-.562.087-.984.087-1.265 0-.545-.038-1.357-.114-2.435a41.44 41.44 0 0 1-.105-2.443c0-.323.099-.586.299-.791.205-.211.468-.317.791-.317.211 0 .527-.03.949-.088.422-.064.741-.096.958-.096.504 0 1.263.008 2.276.026 1.014.012 1.773.018 2.277.018.234 0 .436.088.606.263.176.17.264.372.264.607 0 .38-.015.952-.044 1.714-.03.761-.044 1.333-.044 1.713 0 .48.038 1.196.114 2.145.082.95.123 1.667.123 2.153Zm11.276-4.887c0 1.447-.404 2.76-1.212 3.937-.944 1.365-2.174 2.048-3.692 2.048-1.242 0-2.297-.366-3.164-1.099-.92-.773-1.38-1.775-1.38-3.006 0-1.447.443-2.768 1.327-3.963.991-1.348 2.245-2.022 3.762-2.022 2.906 0 4.359 1.368 4.359 4.105Zm-1.828 0c0-.891-.19-1.503-.571-1.837-.375-.334-1.028-.501-1.96-.501-.902 0-1.682.454-2.338 1.362a4.806 4.806 0 0 0-.923 2.856c0 .704.267 1.275.8 1.714.51.416 1.149.624 1.916.624.891 0 1.638-.454 2.241-1.362.557-.838.835-1.79.835-2.856Zm12.683 6.811c0 .252-.082.46-.246.624a.845.845 0 0 1-.624.246c-.604 0-.905-.48-.905-1.441 0-.082.002-.223.008-.422V38h-4.878c-.181 0-.439.018-.773.053-.363.035-.624.055-.782.061-.006.17-.006.39 0 .66.011.333.017.553.017.659a.828.828 0 0 1-.246.624.845.845 0 0 1-.624.246c-.609 0-.914-.434-.914-1.301 0-.223.006-.554.018-.993.011-.44.017-.77.017-.993 0-.288.097-.51.29-.668a.91.91 0 0 1 .721-.194 7.363 7.363 0 0 0 1.213-2.865c.158-.773.237-1.808.237-3.103 0-.544.117-.928.352-1.15.234-.224.627-.335 1.178-.335.146 0 .418.012.817.035.404.024.724.035.958.035.223 0 .554-.017.993-.052.44-.041.756-.062.949-.062.457 0 .753.194.888.58.07.205.105.592.105 1.16 0 .27-.017.671-.052 1.205-.03.527-.044.922-.044 1.186 0 .457.006 1.049.017 1.776.018.978.027 1.57.027 1.775.832 0 1.248.293 1.248.879 0 .24.006.597.017 1.072.012.48.018.84.018 1.081Zm-2.971-8.886c-1.465.024-2.387.024-2.768 0 0 2.121-.475 4.05-1.424 5.784.146-.012.319-.018.518-.018h3.622c0-.252-.012-.83-.036-1.731-.011-.715-.017-1.293-.017-1.732 0-.252.017-.633.053-1.142.035-.516.052-.903.052-1.16Zm11.47 8.095c-.111 0-.314-.129-.606-.387a3.93 3.93 0 0 1-.589-.641c-.563.304-1.058.533-1.486.685-.427.158-.785.238-1.072.238-1.371 0-2.37-.387-2.997-1.16-.592-.727-.888-1.84-.888-3.34 0-1.418.487-2.631 1.459-3.64.979-1.007 2.145-1.51 3.498-1.51.51 0 1.081.131 1.714.395.797.328 1.195.723 1.195 1.186a.594.594 0 0 1-.175.422c-.059.223-.106.589-.141 1.099-.029.51-.047 1.163-.053 1.96-.006.726.044 1.3.15 1.722.058.258.243.774.553 1.547.041.106.109.261.203.466l.052.15a.757.757 0 0 1-.246.58.813.813 0 0 1-.571.228Zm-1.828-6.108c0-.252.014-.525.044-.818.035-.299.085-.615.149-.949a4.149 4.149 0 0 0-.562-.246 1.2 1.2 0 0 0-.369-.08c-.909 0-1.694.373-2.356 1.117-.656.738-.984 1.59-.984 2.558 0 .96.17 1.681.509 2.162.34.48.85.72 1.53.72.562 0 1.04-.102 1.432-.307.211-.111.507-.334.888-.668-.187-1.553-.281-2.716-.281-3.49Zm7.91 5.836c-.586 0-1.23-.094-1.934-.282l-.017 4.201a.857.857 0 0 1-.246.633.817.817 0 0 1-.615.246.85.85 0 0 1-.625-.246.875.875 0 0 1-.237-.633l.027-3.515v-3.507a67.643 67.643 0 0 0-.132-3.507l-.132-1.784c0-.416.076-.768.228-1.055.176-.345.431-.518.765-.518.229 0 .419.082.571.246a.797.797 0 0 1 .238.589c0 .053-.009.15-.027.29-.029.181-.05.348-.061.5.504-.345.99-.603 1.459-.773a3.823 3.823 0 0 1 1.344-.263c1.202 0 2.081.533 2.637 1.6.44.843.659 1.96.659 3.348 0 1.266-.339 2.309-1.019 3.129-.721.867-1.682 1.3-2.883 1.3Zm.606-7.62a2.96 2.96 0 0 0-1.459.36c-.31.17-.703.48-1.177.932.076 1.33.114 2.727.114 4.192.639.246 1.277.369 1.916.369.732 0 1.292-.272 1.679-.817.334-.475.501-1.09.501-1.846 0-1.066-.132-1.863-.396-2.39-.258-.534-.65-.8-1.178-.8Zm14.124 1.872c0 1.447-.404 2.76-1.212 3.937-.944 1.365-2.174 2.048-3.692 2.048-1.242 0-2.297-.366-3.164-1.099-.92-.773-1.38-1.775-1.38-3.006 0-1.447.443-2.768 1.327-3.963.991-1.348 2.245-2.022 3.762-2.022 2.906 0 4.359 1.368 4.359 4.105Zm-1.828 0c0-.891-.19-1.503-.571-1.837-.375-.334-1.028-.501-1.96-.501-.902 0-1.682.454-2.338 1.362a4.806 4.806 0 0 0-.923 2.856c0 .704.267 1.275.8 1.714.51.416 1.149.624 1.916.624.891 0 1.638-.454 2.241-1.362.557-.838.835-1.79.835-2.856Zm10.943 4.772a.691.691 0 0 1-.282.571.951.951 0 0 1-.615.22c-.41 0-.694-.208-.852-.624-.153-.416-.577-1.12-1.275-2.11-.744-1.048-1.224-1.576-1.441-1.581h-1.055c0 .193-.003.536-.009 1.028-.005.457-.008.803-.008 1.037 0 .961-.015 1.509-.044 1.644-.094.474-.381.711-.862.711a.953.953 0 0 1-.632-.22.728.728 0 0 1-.255-.58c0-.275.011-.705.035-1.291.023-.592.035-1.029.035-1.31 0-.556-.021-1.392-.062-2.505a74.227 74.227 0 0 1-.061-2.513c0-.756.302-1.134.905-1.134.246 0 .454.076.624.228.17.153.255.346.255.58 0 .428.021 1.292.062 2.593h.641c.715-.047 1.231-.366 1.547-.958l.369-.844c.451-.937 1.011-1.406 1.679-1.406.211 0 .431.05.659.15.293.128.44.298.44.51 0 .462-.2.694-.598.694-.328 0-.668.392-1.02 1.177-.246.534-.383.83-.413.888-.181.334-.383.592-.606.773.586.417 1.201 1.102 1.846 2.057.662.979.993 1.717.993 2.215Z" fill="#003C56"/></g><defs><filter id="a" x=".473" y=".1" width="327.054" height="65.054" filterUnits="userSpaceOnUse" color-interpolation-filters="sRGB"><feFlood flood-opacity="0" result="BackgroundImageFix"/><feColorMatrix in="SourceAlpha" values="0 0 0 0 0 0 0 0 0 0 0 0 0 0 0 0 0 0 127 0" result="hardAlpha"/><feOffset dy="1.627"/><feGaussianBlur stdDeviation="6.264"/><feComposite in2="hardAlpha" operator="out"/><feColorMatrix values="0 0 0 0 0 0 0 0 0 0 0 0 0 0 0 0 0 0 0.06 0"/><feBlend in2="BackgroundImageFix" result="effect1_dropShadow_142_2422"/><feBlend in="SourceGraphic" in2="effect1_dropShadow_142_2422" result="shape"/></filter></defs></svg>