<svg width="418" height="191" fill="none" xmlns="http://www.w3.org/2000/svg"><rect y="35.814" width="417.434" height="154.779" rx="7.083" fill="#77AA51" fill-opacity=".58"/><rect x="12.168" y="65.129" width="123.249" height="113.739" rx="4.379" fill="#A6D06A"/><path d="M64.056 159.231c0 .313-.013.787-.037 1.422-.024.635-.037 1.11-.037 1.422 0 .362-.005.902-.014 1.621-.01.718-.015 1.258-.015 1.62 0 .464-.02 1.166-.059 2.104a62.826 62.826 0 0 0-.05 2.104c0 .21-.07.384-.206.521a.705.705 0 0 1-.52.205.73.73 0 0 1-.529-.205.707.707 0 0 1-.205-.521c0-.474.017-1.185.051-2.133.04-.948.06-1.66.06-2.134 0-.356.006-.909.021-1.657.01-.689.015-1.244.015-1.664v-.213c-.279.387-.728.892-1.35 1.518-.669.67-1.133 1.171-1.392 1.503a82.307 82.307 0 0 0-2.427 3.307c-.244.361-.614.897-1.107 1.605-.186.254-.394.382-.623.382a.864.864 0 0 1-.565-.206.597.597 0 0 1-.227-.506l.007-.11c.171-2.952.257-4.599.257-4.941 0-1.344-.027-2.588-.08-3.732-.006-.088-.02-.293-.045-.616a8.36 8.36 0 0 1-.03-.616.705.705 0 0 1 .726-.725c.21 0 .384.068.521.205.137.137.206.31.206.52 0 .152.012.347.036.587.025.308.04.503.044.586.03.685.044 1.535.044 2.552 0 1.168-.034 2.312-.103 3.431 1.203-1.784 2.67-3.504 4.4-5.161.254-.25.56-.616.916-1.1.42-.567.711-.943.872-1.129.079-.372.313-.557.704-.557.494 0 .74.237.74.711Zm13.966 6.1a5.67 5.67 0 0 1-1.011 3.284c-.777 1.139-1.794 1.708-3.05 1.708-1.027 0-1.9-.305-2.618-.916-.762-.645-1.139-1.479-1.129-2.5v-.139a9.614 9.614 0 0 0-.322-.008c-.445 0-.905.039-1.379.118-.269.048-.73.127-1.385.234a36.63 36.63 0 0 0-.088 2.471c0 .215-.069.381-.206.499a.645.645 0 0 1-.462.168c-.43-.01-.645-.232-.645-.667 0-.89.04-1.845.118-2.867.141-1.872.212-2.827.212-2.866.01-.113.034-.362.073-.748.035-.298.052-.56.052-.785 0-.444.217-.667.652-.667.435 0 .653.223.653.667 0 .24-.015.516-.044.829-.044.41-.069.672-.073.784-.03.479-.074 1.085-.132 1.819 1.344-.216 2.228-.323 2.654-.323.088 0 .264.007.528.022.293-1.002.767-1.821 1.422-2.456.738-.719 1.598-1.078 2.58-1.078 2.4 0 3.6 1.139 3.6 3.417Zm-1.459 0c0-.763-.16-1.288-.484-1.577-.317-.288-.87-.432-1.656-.432-.768 0-1.428.388-1.98 1.165a4.082 4.082 0 0 0-.777 2.42c0 .606.225 1.095.674 1.466.43.362.97.543 1.62.543.758 0 1.394-.389 1.907-1.166.464-.709.696-1.515.696-2.419Zm9.612 4.076a.692.692 0 0 1-.205.521.709.709 0 0 1-.52.205.718.718 0 0 1-.529-.205.691.691 0 0 1-.205-.521c0-.376-.012-1.283-.036-2.72l-.528-.022c-1.154 0-2.268.132-3.344.396 0 .278-.024.689-.073 1.232-.049.523-.073.933-.073 1.231a.715.715 0 0 1-.206.528.69.69 0 0 1-.52.205.705.705 0 0 1-.52-.205.715.715 0 0 1-.206-.528c0-.176.022-.415.066-.718.049-.308.073-.55.073-.726 0-.293-.007-.733-.022-1.32a58.978 58.978 0 0 1-.022-1.327v-1.363c.005-.597.008-1.051.008-1.364 0-.215.068-.389.205-.521a.708.708 0 0 1 .52-.205c.216 0 .392.069.529.205a.692.692 0 0 1 .205.521c0 .352.005.828.014 1.43.015.664.025 1.141.03 1.429a14.45 14.45 0 0 1 3.841-.337v-.477c0-.293.01-.672.03-1.136.02-.503.03-.882.03-1.136 0-.211.068-.384.204-.521a.714.714 0 0 1 .528-.205c.21 0 .384.068.52.205.138.137.206.31.206.521 0 .259-.01.637-.03 1.136-.019.494-.028.872-.028 1.136 0 .533.01 1.31.029 2.332.02 1.017.03 1.791.03 2.324Zm7.625-1.899c0 .86-.337 1.501-1.012 1.921-.572.362-1.349.543-2.331.543-.181 0-.425-.005-.733-.015-.357-.02-.604-.029-.74-.029a.991.991 0 0 1-.235.029c-.499 0-.748-.337-.748-1.012 0-.093.027-.386.08-.88.069-.655.103-1.268.103-1.84 0-.391-.024-.943-.073-1.657a29.168 29.168 0 0 1-.066-1.664c0-.518.237-.777.71-.777.504 0 .756.225.756.674 0 .513.032 1.222.095 2.126.24-.009.428-.014.565-.014 1.178 0 2.043.159 2.595.476.69.401 1.034 1.107 1.034 2.119Zm-1.415 0c0-.547-.169-.916-.506-1.107-.274-.161-.762-.242-1.466-.242-.19 0-.455.01-.792.029.005.103.007.201.007.294 0 .371-.044 1.109-.132 2.214.406.01.726.015.96.015 1.286 0 1.929-.401 1.929-1.203Z" fill="#E2FFC5"/><rect x="116.871" y="71.371" width="12.253" height="12.253" rx="1.246" fill="#E2FFC5"/><rect x="18.43" y="87.76" width="12.253" height="12.253" rx="1.246" fill="#E2FFC5"/><rect x="34.836" y="87.76" width="12.253" height="12.253" rx="1.246" fill="#E2FFC5"/><rect x="51.242" y="87.76" width="12.253" height="12.253" rx="1.246" fill="#E2FFC5"/><rect x="67.652" y="87.76" width="12.253" height="12.253" rx="1.246" fill="#E2FFC5"/><rect x="84.059" y="87.76" width="12.253" height="12.253" rx="1.246" fill="#E2FFC5"/><rect x="100.465" y="87.76" width="12.253" height="12.253" rx="1.246" fill="#E2FFC5"/><rect x="116.871" y="87.76" width="12.253" height="12.253" rx="1.246" fill="#E2FFC5"/><rect x="18.43" y="104.149" width="12.253" height="12.253" rx="1.246" fill="#E2FFC5"/><rect x="34.836" y="104.149" width="12.253" height="12.253" rx="1.246" fill="#E2FFC5"/><rect x="51.242" y="104.149" width="12.253" height="12.253" rx="1.246" fill="#E2FFC5"/><rect x="67.652" y="104.149" width="12.253" height="12.253" rx="1.246" fill="#E2FFC5"/><rect x="84.059" y="104.149" width="12.253" height="12.253" rx="1.246" fill="#E2FFC5"/><rect x="100.465" y="104.149" width="12.253" height="12.253" rx="1.246" fill="#E2FFC5"/><rect x="116.871" y="104.149" width="12.253" height="12.253" rx="1.246" fill="#E2FFC5"/><rect x="18.43" y="120.539" width="12.253" height="12.253" rx="1.246" fill="#E2FFC5"/><rect x="34.836" y="120.539" width="12.253" height="12.253" rx="1.246" fill="#E2FFC5"/><rect x="51.242" y="120.539" width="12.253" height="12.253" rx="1.246" fill="#E2FFC5"/><rect x="67.652" y="120.539" width="12.253" height="12.253" rx="1.246" fill="#E2FFC5"/><rect x="84.059" y="120.539" width="12.253" height="12.253" rx="1.246" fill="#E2FFC5"/><rect x="100.465" y="120.539" width="12.253" height="12.253" rx="1.246" fill="#E2FFC5"/><rect x="116.871" y="120.539" width="12.253" height="12.253" rx="1.246" fill="#E2FFC5"/><rect x="18.43" y="136.928" width="12.253" height="12.253" rx="1.246" fill="#E2FFC5"/><rect x="147.137" y="65.128" width="123.249" height="113.739" rx="4.379" fill="#A6D06A"/><path d="M197.413 159.23c0 .313-.012.787-.036 1.423a39.422 39.422 0 0 0-.037 1.422c0 .362-.005.902-.015 1.62-.009.719-.014 1.259-.014 1.621 0 .464-.02 1.165-.059 2.104a63.135 63.135 0 0 0-.051 2.104.71.71 0 0 1-.205.521.71.71 0 0 1-.521.205.735.735 0 0 1-.528-.205.706.706 0 0 1-.205-.521c0-.474.017-1.185.051-2.133.039-.949.059-1.66.059-2.134 0-.357.007-.909.022-1.657.01-.689.014-1.244.014-1.664v-.213c-.278.386-.728.892-1.349 1.518-.669.669-1.133 1.17-1.393 1.503a81.488 81.488 0 0 0-2.426 3.306c-.245.362-.614.897-1.107 1.606-.186.254-.394.381-.624.381a.862.862 0 0 1-.564-.205.597.597 0 0 1-.227-.506l.007-.11c.171-2.952.257-4.599.257-4.941 0-1.344-.027-2.588-.081-3.732-.005-.088-.02-.293-.044-.616a8.11 8.11 0 0 1-.029-.616.702.702 0 0 1 .725-.726.702.702 0 0 1 .726.726c0 .152.012.347.037.587.024.308.039.503.044.586.029.684.044 1.535.044 2.552 0 1.168-.034 2.311-.103 3.431 1.203-1.784 2.669-3.505 4.399-5.162.254-.249.56-.616.917-1.099.42-.567.711-.944.872-1.129.078-.372.313-.558.704-.558.494 0 .74.237.74.711Zm13.967 6.1a5.668 5.668 0 0 1-1.012 3.285c-.777 1.139-1.793 1.708-3.05 1.708-1.026 0-1.898-.305-2.617-.916-.762-.645-1.139-1.479-1.129-2.5v-.14a8.49 8.49 0 0 0-1.701.11c-.269.049-.731.127-1.386.235a37.032 37.032 0 0 0-.088 2.471c0 .215-.068.381-.205.498a.642.642 0 0 1-.462.169c-.43-.01-.645-.232-.645-.667 0-.89.039-1.845.117-2.867.142-1.872.213-2.827.213-2.867.01-.112.034-.361.073-.747a6.84 6.84 0 0 0 .052-.785c0-.445.217-.667.652-.667.435 0 .653.222.653.667 0 .24-.015.516-.044.829-.044.41-.069.672-.074.784a95.017 95.017 0 0 1-.132 1.818c1.345-.215 2.229-.322 2.654-.322.088 0 .264.007.528.022.294-1.002.768-1.821 1.423-2.456.738-.719 1.598-1.078 2.58-1.078 2.4 0 3.6 1.139 3.6 3.416Zm-1.459 0c0-.762-.161-1.288-.484-1.576-.317-.288-.87-.432-1.657-.432-.767 0-1.427.388-1.979 1.165a4.083 4.083 0 0 0-.777 2.42c0 .606.225 1.095.674 1.466.43.362.97.543 1.62.543.758 0 1.393-.389 1.907-1.166.464-.709.696-1.515.696-2.42Zm10.77 4.099c0 .21-.068.383-.205.52a.715.715 0 0 1-.528.206.703.703 0 0 1-.726-.726c0-.162-.012-.379-.036-.653-.03-.313-.047-.528-.052-.645a44.418 44.418 0 0 1-.022-1.525c0 .152.01-.831.03-2.947a7.215 7.215 0 0 1-.975.066c-.817 0-1.608-.015-2.376-.044 0 .2.003.506.007.916.005.406.008.711.008.917 0 1.544-.088 2.602-.264 3.174-.298.944-.919 1.415-1.862 1.415-.367 0-.687-.075-.961-.227-.327-.186-.491-.45-.491-.792a.67.67 0 0 1 .169-.462.588.588 0 0 1 .454-.19c.098 0 .237.036.418.11.181.073.318.11.411.11.356 0 .591-.257.703-.77.059-.293.088-.809.088-1.547 0-.381-.026-.953-.08-1.716a29.345 29.345 0 0 1-.074-1.708c0-.22.074-.396.22-.528a.821.821 0 0 1 .558-.198c.127 0 .295.007.506.022.263.02.435.029.513.029.537.025 1.222.037 2.053.037.18 0 .449-.034.806-.103.357-.068.628-.102.814-.102.542 0 .814.234.814.704 0 .425-.008 1.06-.022 1.906-.01.845-.015 1.481-.015 1.906 0 .596.007 1.095.022 1.496.005.122.022.347.051.674.03.284.044.509.044.675Zm7.786-1.921c0 .86-.337 1.5-1.011 1.921-.572.361-1.349.542-2.332.542-.181 0-.425-.005-.733-.014-.357-.02-.604-.03-.74-.03a.953.953 0 0 1-.235.03c-.499 0-.748-.338-.748-1.012 0-.093.027-.386.081-.88.068-.655.102-1.268.102-1.84 0-.391-.024-.943-.073-1.657a29.201 29.201 0 0 1-.066-1.664c0-.518.237-.778.711-.778.504 0 .755.225.755.675 0 .513.032 1.222.096 2.126.239-.01.427-.015.564-.015 1.178 0 2.043.159 2.596.477.689.401 1.033 1.107 1.033 2.119Zm-1.415 0c0-.548-.168-.917-.505-1.107-.274-.161-.763-.242-1.467-.242-.19 0-.454.01-.792.029.005.103.008.201.008.293 0 .372-.044 1.11-.132 2.215.406.009.726.014.96.014 1.286 0 1.928-.401 1.928-1.202Z" fill="#E2FFC5"/><rect x="169.805" y="71.371" width="12.253" height="12.253" rx="1.246" fill="#E2FFC5"/><rect x="186.211" y="71.371" width="12.253" height="12.253" rx="1.246" fill="#E2FFC5"/><rect x="202.617" y="71.371" width="12.253" height="12.253" rx="1.246" fill="#E2FFC5"/><rect x="219.023" y="71.371" width="12.253" height="12.253" rx="1.246" fill="#E2FFC5"/><rect x="235.43" y="71.371" width="12.253" height="12.253" rx="1.246" fill="#E2FFC5"/><rect x="251.84" y="71.371" width="12.253" height="12.253" rx="1.246" fill="#E2FFC5"/><rect x="153.398" y="87.76" width="12.253" height="12.253" rx="1.246" fill="#E2FFC5"/><rect x="169.805" y="87.76" width="12.253" height="12.253" rx="1.246" fill="#E2FFC5"/><rect x="186.211" y="87.76" width="12.253" height="12.253" rx="1.246" fill="#E2FFC5"/><rect x="202.621" y="87.76" width="12.253" height="12.253" rx="1.246" fill="#E2FFC5"/><rect x="219.027" y="87.76" width="12.253" height="12.253" rx="1.246" fill="#E2FFC5"/><rect x="235.434" y="87.76" width="12.253" height="12.253" rx="1.246" fill="#E2FFC5"/><rect x="251.84" y="87.76" width="12.253" height="12.253" rx="1.246" fill="#E2FFC5"/><rect x="153.398" y="104.149" width="12.253" height="12.253" rx="1.246" fill="#E2FFC5"/><rect x="169.805" y="104.149" width="12.253" height="12.253" rx="1.246" fill="#E2FFC5"/><rect x="186.211" y="104.149" width="12.253" height="12.253" rx="1.246" fill="#E2FFC5"/><rect x="202.621" y="104.149" width="12.253" height="12.253" rx="1.246" fill="#E2FFC5"/><rect x="219.027" y="104.149" width="12.253" height="12.253" rx="1.246" fill="#E2FFC5"/><rect x="235.434" y="104.149" width="12.253" height="12.253" rx="1.246" fill="#E2FFC5"/><rect x="251.84" y="104.149" width="12.253" height="12.253" rx="1.246" fill="#E2FFC5"/><rect x="153.398" y="120.539" width="12.253" height="12.253" rx="1.246" fill="#E2FFC5"/><rect x="169.805" y="120.539" width="12.253" height="12.253" rx="1.246" fill="#E2FFC5"/><rect x="186.211" y="120.539" width="12.253" height="12.253" rx="1.246" fill="#E2FFC5"/><rect x="202.621" y="120.539" width="12.253" height="12.253" rx="1.246" fill="#E2FFC5"/><rect x="219.027" y="120.539" width="12.253" height="12.253" rx="1.246" fill="#E2FFC5"/><rect x="235.434" y="120.539" width="12.253" height="12.253" rx="1.246" fill="#E2FFC5"/><rect x="251.84" y="120.539" width="12.253" height="12.253" rx="1.246" fill="#E2FFC5"/><rect x="153.398" y="136.928" width="12.253" height="12.253" rx="1.246" fill="#E2FFC5"/><rect x="169.805" y="136.928" width="12.253" height="12.253" rx="1.246" fill="#E2FFC5"/><rect x="186.211" y="136.928" width="12.253" height="12.253" rx="1.246" fill="#E2FFC5"/><rect x="202.621" y="136.928" width="12.253" height="12.253" rx="1.246" fill="#E2FFC5"/><rect x="282.117" y="65.129" width="123.249" height="113.739" rx="4.379" fill="#A6D06A"/><path d="M328.195 170.089c-.449 0-.84-.577-1.173-1.73-.127-.44-.286-1.21-.476-2.31-.499.069-1.151.191-1.958.367l-1.95.403c-.244.64-.662 1.576-1.254 2.808-.156.274-.369.411-.638.411a.763.763 0 0 1-.527-.213.693.693 0 0 1-.228-.528c0-.235.369-1.127 1.107-2.676a.787.787 0 0 1-.124-.44c0-.396.239-.65.718-.762a60.613 60.613 0 0 1 2.112-3.608c1.158-1.852 1.879-2.778 2.163-2.778.386 0 .65.269.791.806l.462 2.464 1.093 5.095.418 1.159c.141.395.212.659.212.791a.694.694 0 0 1-.227.528.74.74 0 0 1-.521.213Zm-2.588-8.38-2.097 3.38c.592-.152 1.489-.335 2.691-.55l-.594-2.83Zm11.43 6.246c0 .895-.694 1.528-2.082 1.899-.87.235-1.928.352-3.174.352-.191 0-.374-.076-.55-.227-.171-.152-.257-.32-.257-.506v-1.393l.073-3.93v-.733a2.51 2.51 0 0 1 .096-.718.429.429 0 0 1 .22-.286c.049-.03.183-.069.403-.118.293-.073.782-.11 1.466-.11.787 0 1.501.191 2.141.572.748.445 1.122 1.036 1.122 1.774 0 .685-.367 1.186-1.1 1.503.371.162.726.423 1.063.785.386.411.579.789.579 1.136Zm-1.913-3.424c0-.298-.206-.559-.616-.784-.362-.2-.704-.301-1.027-.301h-.3c-.372 0-.623.008-.755.022-.005.167-.008.435-.008.807 0 .093.013.276.037.55.02.229.024.415.015.557.278.029.53.044.755.044.547 0 .946-.034 1.195-.103.469-.132.704-.396.704-.792Zm.462 3.358c0-.264-.193-.513-.58-.747a2.888 2.888 0 0 0-.938-.382 4.858 4.858 0 0 0-.843-.066 16.347 16.347 0 0 1-.851-.029c-.019.332-.029.613-.029.843v1.43c2.16-.093 3.241-.443 3.241-1.049Zm8.864-5.022c0 .367-.201.601-.602.704-.18.044-.532.066-1.055.066-.255 0-.682-.017-1.283-.051-.548-.03-.973-.042-1.276-.037l-.198.007c.044.328.093.824.147 1.489.073 2.116.11 3.595.11 4.435 0 .21-.069.384-.206.521a.714.714 0 0 1-.528.205.704.704 0 0 1-.52-.205.706.706 0 0 1-.205-.521c0-.816-.035-2.282-.103-4.399a10.38 10.38 0 0 0-.095-.945 8.464 8.464 0 0 1-.074-.946c0-.724.565-1.085 1.694-1.085.274 0 .687.014 1.239.044.557.024.973.036 1.246.036.113 0 .279-.009.499-.029.225-.02.393-.029.506-.029.205 0 .374.071.506.212a.746.746 0 0 1 .198.528Zm7.61.462-2.537 5.484c-.626 1.334-1.105 2.451-1.437 3.351l-.484 1.422c-.127.352-.347.528-.66.528a.777.777 0 0 1-.535-.205.643.643 0 0 1-.22-.499c0-.489.528-1.904 1.584-4.245l-2.625-5.051-.33-.536c-.132-.224-.198-.413-.198-.564 0-.201.076-.377.227-.528a.732.732 0 0 1 .521-.227c.225 0 .398.085.521.256.83 1.154 1.722 2.796 2.676 4.927l1.085-2.529c.391-.875.767-1.628 1.129-2.258.156-.274.361-.411.616-.411.2 0 .376.071.527.213.157.141.235.31.235.506a.895.895 0 0 1-.095.366Zm4.736 7.002c-1.002 0-1.838-.303-2.507-.909-.704-.636-1.056-1.474-1.056-2.515 0-.992.33-2.016.99-3.072.733-1.173 1.559-1.76 2.478-1.76.479 0 1.014.113 1.605.338.748.288 1.122.64 1.122 1.055a.76.76 0 0 1-.183.499.576.576 0 0 1-.455.213.596.596 0 0 1-.374-.125l-.3-.257c-.289-.229-.76-.344-1.415-.344-.499 0-.993.445-1.481 1.334-.445.816-.667 1.523-.667 2.119 0 .645.219 1.153.659 1.525.411.347.939.52 1.584.52.293 0 .606-.078.938-.234l.851-.455c.147-.078.252-.117.315-.117a.61.61 0 0 1 .469.22.699.699 0 0 1 .198.491c0 .357-.376.702-1.129 1.034-.66.293-1.207.44-1.642.44Zm10.022-7.449a.739.739 0 0 1-.205.535.68.68 0 0 1-.513.205c-.132 0-.33-.005-.594-.014a10.944 10.944 0 0 0-.587-.022c-.146 0-.327.014-.542.044.107 2.576.161 4.323.161 5.242 0 .977-.259 1.466-.777 1.466a.754.754 0 0 1-.513-.191.611.611 0 0 1-.213-.476c0-.186.008-.464.022-.836.015-.371.022-.65.022-.836 0-.645-.049-2.097-.146-4.355a20.26 20.26 0 0 0-.932-.014c-.425 0-.721-.03-.887-.088-.308-.108-.462-.333-.462-.675 0-.205.064-.381.191-.528a.66.66 0 0 1 .513-.22h4.326c.362 0 .623.037.784.11.235.113.352.33.352.653Z" fill="#E2FFC5"/><rect x="354.004" y="71.371" width="12.253" height="12.253" rx="1.246" fill="#E2FFC5"/><rect x="370.41" y="71.371" width="12.253" height="12.253" rx="1.246" fill="#E2FFC5"/><rect x="386.82" y="71.371" width="12.253" height="12.253" rx="1.246" fill="#E2FFC5"/><rect x="288.375" y="87.76" width="12.253" height="12.253" rx="1.246" fill="#E2FFC5"/><rect x="304.781" y="87.76" width="12.253" height="12.253" rx="1.246" fill="#E2FFC5"/><rect x="321.188" y="87.76" width="12.253" height="12.253" rx="1.246" fill="#E2FFC5"/><rect x="337.598" y="87.76" width="12.253" height="12.253" rx="1.246" fill="#E2FFC5"/><rect x="354.004" y="87.76" width="12.253" height="12.253" rx="1.246" fill="#E2FFC5"/><rect x="370.41" y="87.76" width="12.253" height="12.253" rx="1.246" fill="#E2FFC5"/><rect x="386.816" y="87.76" width="12.253" height="12.253" rx="1.246" fill="#E2FFC5"/><rect x="288.375" y="104.149" width="12.253" height="12.253" rx="1.246" fill="#E2FFC5"/><rect x="304.781" y="104.149" width="12.253" height="12.253" rx="1.246" fill="#E2FFC5"/><rect x="321.188" y="104.149" width="12.253" height="12.253" rx="1.246" fill="#E2FFC5"/><rect x="337.598" y="104.149" width="12.253" height="12.253" rx="1.246" fill="#E2FFC5"/><rect x="354.004" y="104.149" width="12.253" height="12.253" rx="1.246" fill="#E2FFC5"/><rect x="370.41" y="104.149" width="12.253" height="12.253" rx="1.246" fill="#E2FFC5"/><rect x="386.816" y="104.149" width="12.253" height="12.253" rx="1.246" fill="#E2FFC5"/><rect x="288.375" y="120.539" width="12.253" height="12.253" rx="1.246" fill="#E2FFC5"/><rect x="304.781" y="120.539" width="12.253" height="12.253" rx="1.246" fill="#E2FFC5"/><rect x="321.188" y="120.539" width="12.253" height="12.253" rx="1.246" fill="#E2FFC5"/><rect x="337.598" y="120.539" width="12.253" height="12.253" rx="1.246" fill="#E2FFC5"/><rect x="354.004" y="120.539" width="12.253" height="12.253" rx="1.246" fill="#E2FFC5"/><rect x="370.41" y="120.539" width="12.253" height="12.253" rx="1.246" fill="#E2FFC5"/><rect x="386.816" y="120.539" width="12.253" height="12.253" rx="1.246" fill="#E2FFC5"/><rect x="288.375" y="136.928" width="12.253" height="12.253" rx="1.246" fill="#E2FFC5"/><rect x="304.781" y="136.928" width="12.253" height="12.253" rx="1.246" fill="#E2FFC5"/><rect x="321.188" y="136.928" width="12.253" height="12.253" rx="1.246" fill="#E2FFC5"/><rect x="337.598" y="136.928" width="12.253" height="12.253" rx="1.246" fill="#E2FFC5"/><rect x="354.004" y="136.928" width="12.253" height="12.253" rx="1.246" fill="#E2FFC5"/><rect x="370.41" y="136.928" width="12.253" height="12.253" rx="1.246" fill="#E2FFC5"/><rect x="386.816" y="136.928" width="12.253" height="12.253" rx="1.246" fill="#E2FFC5"/><g filter="url(#a)"><rect x="111" y="11" width="179" height="40" rx="20" fill="#fff" shape-rendering="crispEdges"/><path d="M158.664 36.48c0 1.142-.337 1.713-1.011 1.713-.381 0-.632-.181-.756-.545-.07-.205-.105-.545-.105-1.02 0-.544.009-1.361.026-2.451.018-1.09.027-1.907.027-2.452 0-.592-.015-1.474-.044-2.646-.03-1.178-.044-2.056-.044-2.637l-1.055.01c-.404 0-1.011-.016-1.819-.045a54.946 54.946 0 0 0-1.82-.044c-.216 0-.509.003-.878.01a29 29 0 0 1 .14 3.005c0 .557-.017 1.392-.053 2.505-.029 1.107-.043 1.94-.043 2.496 0 1.271-.208 2.194-.625 2.769-.492.68-1.353 1.019-2.583 1.019a.865.865 0 0 1-.625-.246.876.876 0 0 1-.246-.633c0-.457.203-.726.607-.808.662-.13 1.037-.223 1.125-.282.404-.275.606-.882.606-1.82 0-.556.015-1.388.044-2.495.035-1.113.053-1.948.053-2.505 0-1.307-.07-2.446-.211-3.419a.921.921 0 0 1-.132-.483c0-.246.079-.454.237-.624a.823.823 0 0 1 .616-.255c.217 0 .542.014.975.044.44.029.771.044.993.044h5.555c.246 0 .457.085.633.255a.82.82 0 0 1 .272.623c0 1.213.024 3.033.071 5.459.047 2.425.07 4.245.07 5.458Zm6.899 1.924c-1.324 0-2.396-.33-3.216-.993-.897-.732-1.345-1.758-1.345-3.076 0-1.523.369-2.8 1.107-3.832.803-1.125 1.875-1.688 3.217-1.688.973 0 1.767.165 2.382.493.756.404 1.134 1.025 1.134 1.863 0 .586-.331 1.119-.993 1.6-.293.21-.914.539-1.864.984l-3.357 1.59c.328.487.735.853 1.222 1.1.492.245 1.063.368 1.713.368.405 0 .879-.076 1.424-.228.692-.193 1.137-.445 1.336-.756.199-.316.413-.474.642-.474a.75.75 0 0 1 .545.237.71.71 0 0 1 .246.536c0 .65-.525 1.21-1.573 1.679-.897.398-1.77.597-2.62.597Zm-.237-8.007c-.715 0-1.309.279-1.784.835-.475.551-.829 1.383-1.063 2.496l2.698-1.283c1.06-.515 1.816-.964 2.267-1.344-.504-.47-1.21-.703-2.118-.703Zm12.736-.773a.887.887 0 0 1-.247.642.815.815 0 0 1-.615.246c-.158 0-.395-.006-.712-.018-.31-.017-.545-.026-.703-.026-.176 0-.392.017-.65.052.129 3.088.193 5.183.193 6.285 0 1.172-.31 1.758-.932 1.758a.911.911 0 0 1-.615-.229.735.735 0 0 1-.255-.571c0-.223.009-.557.027-1.002.017-.446.026-.78.026-1.002 0-.774-.058-2.514-.176-5.22a22.563 22.563 0 0 0-1.116-.019c-.51 0-.864-.035-1.063-.105-.37-.129-.554-.398-.554-.809 0-.246.076-.457.228-.632a.792.792 0 0 1 .616-.264h5.185c.434 0 .747.044.941.132.281.135.422.395.422.782Zm9.536 7.822a.828.828 0 0 1-.246.624.847.847 0 0 1-.624.246.856.856 0 0 1-.633-.246.828.828 0 0 1-.246-.624c0-.45-.015-1.538-.044-3.26a93.667 93.667 0 0 1-.633-.027c-1.383 0-2.719.158-4.008.475 0 .334-.029.826-.088 1.476-.058.627-.088 1.12-.088 1.477a.857.857 0 0 1-.246.633.827.827 0 0 1-.624.246.845.845 0 0 1-.624-.246.857.857 0 0 1-.246-.633c0-.211.026-.498.079-.861.059-.37.088-.66.088-.87 0-.352-.009-.88-.026-1.583a68.699 68.699 0 0 1-.027-1.59v-1.635c.006-.715.009-1.26.009-1.635 0-.258.082-.466.246-.624a.845.845 0 0 1 .624-.246c.258 0 .469.082.633.246a.828.828 0 0 1 .246.624c0 .422.006.993.018 1.714.017.797.029 1.368.035 1.714 1.441-.334 2.976-.469 4.605-.404v-.572c0-.351.012-.805.035-1.362.024-.604.036-1.058.036-1.362 0-.252.082-.46.246-.624a.856.856 0 0 1 .633-.247c.251 0 .46.082.624.247a.846.846 0 0 1 .246.624c0 .31-.012.764-.036 1.362a37.992 37.992 0 0 0-.035 1.362c0 .639.012 1.57.035 2.795.024 1.219.036 2.148.036 2.786Zm11.118-1.845c0 .228-.012.568-.035 1.02-.024.45-.035.79-.035 1.019a.82.82 0 0 1-.255.615.822.822 0 0 1-.616.255.856.856 0 0 1-.879-.87c0-.381.018-.95.053-1.705.035-.756.053-1.325.053-1.706 0-.72-.056-1.406-.167-2.056-.715 1.054-1.233 1.79-1.556 2.206-.621.797-1.233 1.453-1.837 1.969-.796.674-1.388 1.212-1.775 1.617-.311.322-.636.483-.976.483-.257 0-.48-.067-.668-.202a.719.719 0 0 1-.307-.606c0-1.67-.029-3.41-.088-5.221-.065-1.88-.097-2.798-.097-2.751 0-.598.293-.896.879-.896.498 0 .788.28.87.843.012.088.032.665.062 1.732l.105 4.368c.885-.78 1.808-1.764 2.769-2.953.299-.37 1.116-1.442 2.452-3.217.346-.463.715-.694 1.107-.694.246 0 .452.082.616.246a.83.83 0 0 1 .255.624c0 .65.011 1.631.035 2.944.023 1.307.035 2.285.035 2.936Zm11.461 0c0 .228-.012.568-.035 1.02-.024.45-.036.79-.036 1.019a.823.823 0 0 1-.254.615.822.822 0 0 1-.616.255.856.856 0 0 1-.632-.255.832.832 0 0 1-.247-.615c0-.381.018-.95.053-1.705.035-.756.053-1.325.053-1.706 0-.72-.056-1.406-.167-2.056-.715 1.054-1.234 1.79-1.556 2.206-.621.797-1.233 1.453-1.837 1.969-.797.674-1.388 1.212-1.775 1.617-.311.322-.636.483-.976.483-.257 0-.48-.067-.668-.202a.719.719 0 0 1-.307-.606c0-1.67-.03-3.41-.088-5.221-.065-1.88-.097-2.798-.097-2.751 0-.598.293-.896.879-.896.498 0 .788.28.87.843.012.088.032.665.062 1.732l.105 4.368c.885-.78 1.808-1.764 2.769-2.953.299-.37 1.116-1.442 2.452-3.217.346-.463.715-.694 1.107-.694.246 0 .452.082.616.246a.833.833 0 0 1 .254.624c0 .65.012 1.631.036 2.944.023 1.307.035 2.285.035 2.936Zm-4.852-9.282c1.717 0 2.701-.468 2.953-1.406.1-.37.311-.554.633-.554.188 0 .349.062.484.185.14.123.205.275.193.457l-.018.123c-.07.89-.586 1.559-1.547 2.004-.75.34-1.649.51-2.698.51a3.175 3.175 0 0 1-2.188-.844c-.645-.574-.967-1.274-.967-2.1 0-.44.217-.66.65-.66.44 0 .659.22.659.66 0 .456.197.846.589 1.168.37.305.788.457 1.257.457Zm20.154 11.013a.691.691 0 0 1-.282.571.951.951 0 0 1-.615.22c-.41 0-.694-.208-.853-.624-.152-.416-.577-1.12-1.274-2.11-.744-1.048-1.225-1.576-1.441-1.581h-1.055c0 .193-.003.536-.009 1.028-.006.457-.009.803-.009 1.037 0 .961-.014 1.509-.044 1.644-.093.474-.38.711-.861.711a.957.957 0 0 1-.633-.22.728.728 0 0 1-.255-.58c0-.275.012-.705.036-1.291.023-.592.035-1.029.035-1.31 0-.556-.021-1.392-.062-2.505a74.227 74.227 0 0 1-.061-2.513c0-.756.301-1.134.905-1.134.246 0 .454.076.624.228.17.153.255.346.255.58 0 .428.02 1.292.061 2.593h.642c.715-.047 1.23-.366 1.547-.958l.369-.844c.451-.937 1.011-1.406 1.679-1.406.211 0 .43.05.659.15.293.128.439.298.439.51 0 .462-.199.694-.597.694-.328 0-.668.392-1.02 1.177-.246.534-.384.83-.413.888-.182.334-.384.592-.606.773.586.417 1.201 1.102 1.845 2.057.662.979.994 1.717.994 2.215Zm9.228-7.172-3.041 6.574c-.75 1.6-1.324 2.939-1.723 4.017l-.58 1.705c-.152.422-.416.633-.791.633a.924.924 0 0 1-.641-.246.77.77 0 0 1-.264-.598c0-.586.633-2.282 1.898-5.089l-3.146-6.055-.396-.642c-.158-.27-.237-.495-.237-.677 0-.24.091-.45.273-.633a.877.877 0 0 1 .624-.272c.269 0 .477.103.624.308.996 1.382 2.065 3.351 3.208 5.906l1.3-3.032c.469-1.05.92-1.952 1.354-2.707.187-.329.434-.493.738-.493.24 0 .451.085.633.255a.79.79 0 0 1 .281.607c0 .129-.038.275-.114.44Zm5.44 8.148c-.585 0-1.23-.094-1.933-.282l-.018 4.201a.857.857 0 0 1-.246.633.816.816 0 0 1-.615.246.846.846 0 0 1-.624-.246.875.875 0 0 1-.237-.633l.026-3.515v-3.507a67.643 67.643 0 0 0-.132-3.507l-.132-1.784c0-.416.076-.768.229-1.055.176-.345.431-.518.764-.518a.75.75 0 0 1 .572.246.8.8 0 0 1 .237.589c0 .053-.009.15-.026.29a5.95 5.95 0 0 0-.062.5c.504-.345.99-.603 1.459-.773a3.828 3.828 0 0 1 1.345-.263c1.201 0 2.08.533 2.637 1.6.439.843.659 1.96.659 3.348 0 1.266-.34 2.309-1.02 3.129-.72.867-1.681 1.3-2.883 1.3Zm.607-7.62a2.96 2.96 0 0 0-1.459.36c-.311.17-.703.48-1.178.932.076 1.33.114 2.727.114 4.192a5.3 5.3 0 0 0 1.916.369c.733 0 1.292-.272 1.679-.817.334-.475.501-1.09.501-1.846 0-1.066-.132-1.863-.395-2.39-.258-.534-.651-.8-1.178-.8Zm9.264 7.866c-1.202 0-2.204-.364-3.006-1.09-.844-.762-1.266-1.767-1.266-3.015 0-1.19.396-2.417 1.187-3.682.879-1.407 1.869-2.11 2.97-2.11.575 0 1.216.135 1.925.404.897.346 1.345.768 1.345 1.266a.906.906 0 0 1-.22.598.69.69 0 0 1-.545.255.712.712 0 0 1-.448-.15l-.36-.307c-.346-.276-.912-.413-1.697-.413-.597 0-1.189.533-1.775 1.6-.533.978-.8 1.824-.8 2.54 0 .773.264 1.382.791 1.827.492.416 1.125.624 1.899.624.351 0 .726-.093 1.125-.28l1.019-.546c.176-.094.302-.14.378-.14.217 0 .404.087.563.263a.84.84 0 0 1 .237.59c0 .427-.451.84-1.354 1.238-.791.352-1.447.528-1.968.528Z" fill="#003C56"/></g><defs><filter id="a" x="98.473" y=".1" width="204.054" height="65.054" filterUnits="userSpaceOnUse" color-interpolation-filters="sRGB"><feFlood flood-opacity="0" result="BackgroundImageFix"/><feColorMatrix in="SourceAlpha" values="0 0 0 0 0 0 0 0 0 0 0 0 0 0 0 0 0 0 127 0" result="hardAlpha"/><feOffset dy="1.627"/><feGaussianBlur stdDeviation="6.264"/><feComposite in2="hardAlpha" operator="out"/><feColorMatrix values="0 0 0 0 0 0 0 0 0 0 0 0 0 0 0 0 0 0 0.06 0"/><feBlend in2="BackgroundImageFix" result="effect1_dropShadow_2025_10612"/><feBlend in="SourceGraphic" in2="effect1_dropShadow_2025_10612" result="shape"/></filter></defs></svg>