<svg width="503" height="412" viewBox="0 0 503 412" fill="none" xmlns="http://www.w3.org/2000/svg">
<g clip-path="url(#clip0_60_327)">
<path d="M475.7 350.706L318.099 350.706L318.099 211.121L467.17 211.121C482.688 211.121 495.268 224.804 495.268 241.684L475.703 350.709L475.7 350.706Z" fill="#BF9A76"/>
<g clip-path="url(#clip1_60_327)">
<path d="M318.187 33.4319C327.68 14.3239 347.448 2.76822 368.188 0.128719C378.476 -1.18472 391.049 -1.42467 401.136 1.31586C417.395 5.74871 432.72 15.5995 440.104 31.1586C443.967 39.3045 445.835 48.1449 448.448 56.7201C453.132 72.0899 458.345 87.8637 458.875 104.067C459.065 109.813 458.837 116.81 454.975 121.47C454.672 121.836 454.129 121.735 453.813 121.47C453.548 121.243 453.283 121.015 453.018 120.801C452.488 122.304 451.743 123.693 450.683 124.855C449.092 126.585 448.12 126.32 446.088 126.332C443.172 126.357 441.101 126.787 438.577 128.252C437.415 128.921 436.279 129.591 435.042 130.096C428.642 132.748 422.293 129.654 415.64 130.033C414.643 130.083 413.645 130.146 412.661 130.172C406.387 133.657 397.033 133.556 390.633 133.796C379.082 134.225 367.519 133.405 355.969 134.263C350.667 134.655 346.274 134.099 341.136 132.862C335.998 131.636 330.394 130.866 325.47 128.934C323.88 128.315 322.668 127.456 321.696 126.459C320.484 129.868 318.616 134.074 315.435 131.99C313.301 130.601 312.329 127.128 311.458 124.867C310.12 121.369 309.237 117.719 308.719 114.019C307.747 107.111 310.928 48.0312 318.187 33.4319Z" fill="#657398"/>
<path d="M431.531 10.775C433.147 8.09761 435.003 5.5844 437.086 3.23537C438.664 1.46729 440.469 -0.275542 442.779 -0.831226C445.543 -1.50057 446.97 0.810569 449.04 2.07349C452.65 4.29623 459.555 5.69807 459.821 11.0781C459.909 12.8083 459.013 14.5638 457.561 15.5109C456.69 16.0793 455.541 16.496 455.263 17.5064C454.935 18.6809 456.059 19.7165 456.488 20.8657C457.119 22.5454 456.16 24.5029 454.683 25.5259C453.206 26.5489 451.363 26.8393 449.57 26.9656C443.852 27.395 438.045 26.5362 432.693 24.4903C431.292 23.9472 429.84 23.2779 428.981 22.0402C427.391 19.7544 428.401 16.6097 429.663 14.1217C430.244 12.9851 430.862 11.8611 431.531 10.775Z" fill="#657398"/>
<path d="M298.127 13.6166C298.619 12.0253 299.768 10.6866 301.131 9.71417C302.633 8.62806 304.4 7.95871 306.155 7.35251C306.811 7.12518 307.493 6.88523 307.948 6.36743C308.263 6.00118 308.415 5.5339 308.629 5.10451C309.551 3.14699 311.545 1.74515 313.691 1.51782C317.706 1.11369 319.763 4.42254 321.745 7.30199C324.118 10.7624 326.39 14.2986 328.208 18.0747C329.206 20.1585 330.077 22.5959 329.18 24.7303C328.246 26.9656 325.734 28.0518 323.424 28.7716C318.248 30.3629 312.77 31.2091 307.392 30.5776C305.738 30.3882 304.047 30.0219 302.721 29.0116C301.396 28.0012 300.575 26.1826 301.144 24.6292C301.585 23.4295 302.797 22.3686 302.431 21.1436C302.103 20.0448 300.765 19.7039 299.805 19.0724C298.253 18.0494 297.609 15.9656 297.988 14.1596C298.026 13.9828 298.076 13.7934 298.127 13.6292V13.6166Z" fill="#657398"/>
<path d="M432.113 18.8576C433.628 20.1205 434.701 21.7749 435.307 23.644C435.635 24.6544 434.045 25.0837 433.729 24.086C433.211 22.4695 432.252 21.1055 430.952 20.0194C430.144 19.3375 431.305 18.1882 432.113 18.8576Z" fill="#303F66"/>
<path d="M266.896 190.425L227.006 184.262C227.006 184.262 219.633 167.339 222.537 158.865C225.44 150.391 236.473 149.128 249.652 149.911C262.844 150.694 277.222 150.239 277.222 150.239L266.896 190.425Z" fill="#FCBFA3"/>
<path d="M493.551 194.732L521.235 214.85C521.235 214.85 521.588 233.743 515.327 240.134C509.053 246.524 498.55 242.912 487 236.509C475.449 230.106 462.27 224.309 462.27 224.309L493.564 194.744L493.551 194.732Z" fill="#FCBFA3"/>
<path d="M487 236.496C487 236.496 507.526 225.168 507.627 220.546C507.741 215.115 506.781 218.108 514.482 200.061C518.622 190.349 533.77 158.069 534.995 151.401C535.058 151.047 556.089 156.945 556.089 156.945C554.738 167.844 553.198 178.718 551.506 189.566C549.019 205.53 547.606 224.069 537.987 237.633C525.754 254.859 501.164 247.244 487 236.509V236.496Z" fill="#FCBFA3"/>
<path d="M294.996 226.57C295.009 227.126 295.047 227.707 295.097 228.262C295.148 229.184 295.198 230.094 295.261 231.015C296.132 243.935 297.887 257.196 297.887 264.458C297.887 275.938 295.135 293.985 295.135 293.985C295.135 293.985 369.058 304.909 392.765 306.551C416.459 308.192 425.359 310.933 429.651 306.551C432.743 303.406 438.273 291.13 442.4 274.7C443.107 271.896 443.764 268.954 444.37 265.935C444.483 265.38 444.597 264.799 444.698 264.243C445.316 260.947 445.872 257.537 446.339 254.051C446.869 250.06 447.614 245.539 448.523 240.689C448.636 240.096 448.75 239.502 448.864 238.896C450.24 231.609 451.918 223.728 453.597 215.999C453.711 215.456 453.825 214.913 453.938 214.37C455.819 205.681 457.687 197.283 459.101 190.324C459.227 189.718 459.341 189.124 459.467 188.556C461.121 180.158 462.043 174.159 461.399 172.732C461.197 172.302 460.578 171.785 459.606 171.191C456.968 169.562 451.754 167.364 445.619 165.078C444.736 164.738 443.814 164.409 442.893 164.081C440.595 163.222 438.222 162.388 435.849 161.555C432.63 160.444 429.423 159.345 426.369 158.322C416.661 155.101 408.759 152.677 408.759 152.677C408.759 152.677 394.318 150.163 375.458 150.163C359.54 150.163 340.554 148.736 322.78 149.999C319.523 150.227 316.292 150.555 313.136 150.997C312.921 151.035 312.606 151.401 312.215 152.108C311.975 152.55 311.684 153.106 311.381 153.775C309.399 158.069 306.269 166.847 303.264 176.495C303.037 177.228 302.81 177.986 302.57 178.743C302.406 179.248 302.255 179.779 302.09 180.284C300.79 184.578 299.566 188.96 298.505 193.115C297.786 195.919 297.129 198.647 296.599 201.147C296.473 201.716 296.359 202.259 296.258 202.789C295.703 205.53 295.286 207.967 295.097 210.038C294.605 214.875 294.655 220.596 294.971 226.557L294.996 226.57Z" fill="#7FCBB4"/>
<path d="M360.526 158.562C360.526 158.89 360.564 159.206 360.601 159.509C361.005 162.022 363.025 164.068 365.638 164.397L377.391 165.95C386.315 167.112 395.392 166.177 403.887 163.197L404.127 163.108C406.261 162.351 407.788 160.431 408.028 158.183L410.376 136.979L410.641 133.645L411.916 117.467L402.865 120.422L361.321 133.986L361.081 142.422L360.879 149.242L360.677 153.397L360.601 155.986L360.538 158.17C360.538 158.297 360.526 158.41 360.526 158.549V158.562Z" fill="#FCBFA3"/>
<path d="M360.525 158.562C360.525 158.891 360.563 159.206 360.601 159.509C365.41 159.345 371.962 158.461 378.274 156.541C400.403 149.772 410.476 135.287 410.476 135.287C410.476 135.287 406.752 123.314 406.752 121.672C406.752 121.104 405.2 120.687 402.864 120.447L361.32 134.011L361.081 142.447L360.879 149.267L360.677 153.422L360.601 156.011L360.538 158.196C360.538 158.322 360.525 158.436 360.525 158.575V158.562Z" fill="#F7B091"/>
<path d="M326.859 100.619C327.237 104.799 327.906 108.954 329.03 113.071C332.514 125.877 340.252 137.736 352.459 143.609C363.391 148.875 376.204 149.241 387.843 146.324C396.035 144.266 404.038 140.729 410.514 135.274C422.292 125.36 426.685 110.786 427.897 105.835C430.636 94.5697 431.898 82.7993 431.545 71.2057C431.318 64.0197 430.687 56.1264 427.392 49.5971C419.351 33.6464 376.86 27.3066 358.493 32.5856C340.113 37.8772 330.582 43.2699 329.56 50.8474C328.171 61.1276 326.429 73.2137 326.379 83.5444C326.354 89.278 326.366 94.9612 326.884 100.619H326.859Z" fill="#FCBFA3"/>
<path d="M344.354 89.4801C343.988 88.3687 343.824 87.1816 343.875 86.0071C343.938 84.7442 344.304 83.4181 345.263 82.6098C348.836 79.6293 351.31 87.371 351.575 89.6569C351.676 90.5662 351.676 91.5008 351.36 92.3596C351.045 93.2184 350.35 93.9761 349.467 94.1908C348.154 94.5065 346.866 93.5846 346.021 92.549C345.288 91.6397 344.72 90.6041 344.354 89.4927V89.4801Z" fill="black"/>
<path d="M395.87 90.4147C395.58 89.0381 395.605 87.5984 395.958 86.2345C396.223 85.2241 396.69 84.2264 397.549 83.6329C401.45 80.9555 403.027 89.4297 402.977 91.6903C402.952 92.5364 402.838 93.3952 402.459 94.1403C402.081 94.8855 401.386 95.5169 400.566 95.6558C399.291 95.8705 398.104 94.9107 397.36 93.8499C396.627 92.8269 396.135 91.6398 395.87 90.4021V90.4147Z" fill="black"/>
<path d="M415.716 81.1448C415.716 81.1448 427.821 71.2435 437.87 76.3078C447.918 81.3847 443.197 100.808 435.497 107.616C428.958 113.4 419.629 115.686 419.629 115.686L415.716 81.1448Z" fill="#FCBFA3"/>
<path d="M368.023 92.4353C368.351 91.4376 369.929 91.867 369.601 92.8774C368.579 96.0347 363.05 103.587 369.121 104.484C370.157 104.635 369.715 106.214 368.68 106.062C366.458 105.734 364.817 104.054 364.564 101.806C364.186 98.5226 367.051 95.4285 368.011 92.448L368.023 92.4353Z" fill="#F7B091"/>
<path d="M358.329 111.67C358.329 111.67 365.221 113.652 372.581 113.526C379.94 113.4 386.24 111.063 386.24 111.063C386.24 111.063 381.392 118.944 372.303 119.866C363.214 120.801 358.342 111.67 358.342 111.67H358.329Z" fill="white"/>
<path d="M392.512 72.6454C393.698 71.1425 396.665 71.0036 398.23 71.0794C401.159 71.2436 404.34 71.6729 407.003 73.1379C408.556 73.9967 412.57 77.1414 408.48 77.3056C404.315 77.4697 400.124 77.2677 395.996 76.6994C394.493 76.4847 391.754 75.8532 392.032 73.782C392.095 73.34 392.259 72.9611 392.512 72.6454Z" fill="#657398"/>
<path d="M354.769 73.7695C355.047 75.8407 352.307 76.4721 350.805 76.6868C346.677 77.2678 342.486 77.4698 338.32 77.293C334.95 77.1541 337.576 74.7293 338.964 73.7316C341.779 71.7109 345.162 71.2563 348.571 71.0668C350.136 70.9784 353.103 71.13 354.289 72.6329C354.542 72.9486 354.706 73.3275 354.769 73.7695Z" fill="#657398"/>
<path d="M423.554 102.892C425.296 101.478 427.101 99.9495 428.023 97.853C429.323 94.8978 428.073 92.3467 426.672 89.7072C426.18 88.7727 427.593 87.9518 428.086 88.8737C429.449 91.4374 430.787 94.2032 430.017 97.1837C429.26 100.101 426.962 102.223 424.703 104.054C423.895 104.711 422.721 103.561 423.541 102.892H423.554Z" fill="#F7B091"/>
<path d="M348.445 59.7258C348.243 59.9153 348.041 60.0921 347.813 60.2562C345.238 62.0748 341.83 59.9531 338.876 60.5215C336.351 61.014 334.142 60.332 331.681 60.5972C328.992 60.8877 326.909 62.3779 324.043 62.3022C323.98 62.3022 323.917 62.2895 323.854 62.2895C322.92 60.9382 322.238 59.3975 321.885 57.8441C319.625 47.8417 328.575 35.5283 336.149 29.9462C345.566 23.0001 357.483 22.8233 368.794 23.7705C369.122 23.4421 369.778 23.4295 370.106 23.8842C371.886 24.0483 373.654 24.2378 375.383 24.4272C376.418 24.5409 376.431 26.1827 375.383 26.069C373.893 25.9048 372.391 25.7407 370.876 25.6017C371.078 26.069 371.268 26.5489 371.482 27.0036C371.811 26.4984 372.719 26.5616 372.934 27.2183C373.957 27.1678 374.992 27.1678 376.027 26.4605C377.213 25.627 378.084 24.3893 379.258 23.5306C383.336 20.5122 388.625 20.2217 393.447 21.1057C405.124 23.2275 417.975 29.4158 426.672 37.4732C434.398 44.6339 442.59 56.2528 439.485 67.3665C438.412 71.2057 436.102 75.045 431.747 75.1208C427.808 75.1839 422.835 73.479 420.802 69.9049C420.196 68.8315 420.095 67.5685 419.376 66.5708C418.429 65.2574 416.813 64.9417 415.374 64.1966C414.15 63.5651 412.963 62.8705 411.814 62.1001C412.294 63.2746 412.761 64.4491 413.178 65.6615C413.43 66.4067 412.572 66.8613 411.978 66.5835C405.528 63.6788 399.809 59.549 394.331 55.1035C394.444 55.3056 394.558 55.5077 394.659 55.7224C395.29 56.9348 397.146 59.4227 396.287 60.9635C394.407 64.3607 388.777 59.107 387.224 57.8946C379.713 52.022 373.881 44.3308 370.144 35.6546C367.733 38.9508 366.572 42.9037 365.499 46.8062C364.489 50.4813 364.11 54.2574 363.201 57.9325C362.722 59.8774 361.964 61.3045 360.02 61.898C359.452 62.0748 359.048 61.6076 358.985 61.1024C358.518 57.5915 358.505 54.1437 358.909 50.7338C358.253 52.2493 357.533 53.7396 356.069 54.6489C354.946 55.3435 353.696 55.2298 352.509 55.6971C350.616 56.4296 349.846 58.3871 348.47 59.7258H348.445Z" fill="#657398"/>
<path d="M378.01 11.4065C378.603 10.5351 380.017 11.356 379.424 12.24C376.003 17.2538 373.869 22.7475 372.998 28.7464C372.847 29.782 371.269 29.34 371.42 28.3044C372.317 22.1792 374.526 16.5213 378.01 11.4065Z" fill="#303F66"/>
<path d="M379.347 28.7715C380.155 37.2204 385.154 44.0907 391.428 49.4834C392.235 50.178 391.062 51.3273 390.266 50.6453C383.614 44.9369 378.552 37.6751 377.706 28.7715C377.605 27.7233 379.246 27.7233 379.347 28.7715Z" fill="#303F66"/>
<path d="M394.394 28.2789C396.149 33.0654 397.954 38.0413 401.464 41.8679C403.218 43.7749 405.339 45.3788 407.813 46.2376C409.492 46.8312 411.12 46.907 412.597 47.9552C415.223 49.8117 417.142 53.1963 419.389 55.4948C422.734 58.9173 426.483 61.6579 431.192 62.7945C432.214 63.0471 431.785 64.6257 430.75 64.3731C426.824 63.4133 423.479 61.4432 420.449 58.7784C416.397 55.2043 413.696 50.1148 408.571 48.1572C399.545 44.7221 395.998 37.4098 392.804 28.7083C392.438 27.7106 394.028 27.2938 394.382 28.2663L394.394 28.2789Z" fill="#303F66"/>
<path d="M356.398 49.3695C358.607 41.6152 362.28 34.5933 367.38 28.3419C368.049 27.521 369.198 28.6955 368.541 29.5038C363.631 35.5405 360.122 42.3224 357.988 49.8115C357.698 50.8218 356.12 50.3924 356.41 49.3695H356.398Z" fill="#303F66"/>
<path d="M321.253 27.3194C322.97 24.6041 325.166 22.3056 327.805 20.4491C328.663 19.8429 329.484 21.2574 328.638 21.8636C326.252 23.5559 324.245 25.665 322.68 28.1403C322.112 29.0244 320.698 28.2035 321.266 27.3068L321.253 27.3194Z" fill="#303F66"/>
<path d="M436.152 14.3237C439.409 9.85302 443.348 6.05163 447.955 2.98273C448.839 2.38916 449.659 3.81626 448.788 4.3972C444.433 7.30192 440.659 10.9139 437.579 15.1573C436.96 16.0034 435.546 15.1825 436.165 14.3237H436.152Z" fill="#303F66"/>
<path d="M441.77 11.3304C445.065 9.48655 448.537 8.05945 452.159 7.03648C453.182 6.74601 453.611 8.33729 452.601 8.61513C449.105 9.60021 445.772 10.9768 442.603 12.7449C441.682 13.2627 440.849 11.8482 441.77 11.3304Z" fill="#303F66"/>
<path d="M310.776 9.58768C315.434 11.3305 319.436 14.1721 322.541 18.0745C323.198 18.8954 322.036 20.0573 321.38 19.2364C318.464 15.5613 314.74 12.8081 310.334 11.1663C309.35 10.8001 309.779 9.22143 310.776 9.58768Z" fill="#303F66"/>
<path d="M301.144 11.9877C306.598 11.8109 311.798 12.8591 316.772 15.0818C317.732 15.5112 316.898 16.9257 315.939 16.4963C311.23 14.3998 306.282 13.4653 301.144 13.6295C300.084 13.6673 300.097 12.0256 301.144 11.9877Z" fill="#303F66"/>
<path d="M324.8 56.0633C328.07 43.4215 333.384 31.5374 340.643 20.689C341.223 19.8176 342.65 20.6385 342.057 21.5225C334.874 32.2573 329.61 44.0025 326.378 56.5054C326.113 57.5283 324.535 57.0989 324.8 56.0633Z" fill="#303F66"/>
<path d="M318.501 62.3907C320.168 55.432 321.594 47.9302 325.583 41.8809C326.164 41.0094 327.578 41.8303 326.997 42.7144C323.109 48.5996 321.695 56.0634 320.079 62.8327C319.839 63.8557 318.249 63.4263 318.501 62.3907Z" fill="#303F66"/>
<path d="M450.519 81.069C454.306 92.1827 454.129 103.865 453.788 115.458C453.763 116.507 452.122 116.519 452.147 115.458C452.488 104.004 452.677 92.4858 448.941 81.4984C448.6 80.5007 450.178 80.0713 450.519 81.0564V81.069Z" fill="#303F66"/>
<path d="M446.39 120.737C448.069 114.612 448.826 108.411 448.675 102.059C448.649 100.998 450.29 100.998 450.316 102.059C450.48 108.563 449.697 114.903 447.98 121.167C447.703 122.19 446.125 121.748 446.402 120.725L446.39 120.737Z" fill="#303F66"/>
<path d="M317.554 84.3146C317.668 83.279 319.309 83.2664 319.195 84.3146C317.731 97.449 316.355 110.672 318.615 123.793C318.791 124.829 317.213 125.271 317.037 124.236C314.752 110.95 316.065 97.6132 317.554 84.3146Z" fill="#303F66"/>
<path d="M413.189 242.836C413.189 243.379 413.227 243.935 413.24 244.503C413.442 248.999 413.896 253.963 414.717 259.456C414.78 259.999 414.868 260.542 414.957 261.098C415.664 265.607 416.598 270.444 417.822 275.647C425.03 306.412 434.17 291.168 442.4 274.675C443.776 271.909 445.139 269.08 446.452 266.453C446.717 265.922 446.982 265.417 447.222 264.925C450.517 258.484 453.534 253.432 456.071 253.218C465.804 252.397 465.084 249.669 470.285 250.212C475.461 250.755 480.662 248.292 483.401 240.651C483.464 240.475 483.527 240.285 483.616 240.083C483.78 239.629 483.982 239.111 484.209 238.542C485.913 234.248 489.183 226.81 492.376 219.636C492.604 219.131 492.831 218.614 493.071 218.108C497.249 208.725 501.175 200.2 501.175 200.2C501.175 200.2 493.752 194.441 483.982 186.952C483.275 186.409 482.555 185.853 481.823 185.298C480.927 184.603 479.993 183.908 479.059 183.176C470.929 176.975 464.112 173.275 459.644 171.191C456.059 169.524 453.976 168.905 453.976 168.905L432.503 193.734L431.254 195.148L420.044 208.119C420.044 208.119 418.504 210.051 416.875 214.496C416.673 215.002 416.497 215.545 416.307 216.138C414.515 221.67 412.836 230.308 413.227 242.824L413.189 242.836Z" fill="#7FCBB4"/>
<path d="M260.155 149.633C260.155 149.633 260.774 161.062 261.493 173.881C261.531 174.411 261.557 174.942 261.594 175.485C261.923 181.673 262.289 188.063 262.592 193.557C262.642 194.125 262.667 194.706 262.693 195.249C263.034 201.021 263.299 205.618 263.425 207.588C263.968 215.507 272.034 216.744 280.227 220.306C282.916 221.468 285.2 223.324 287.536 225.307H287.548C288.369 226.001 289.177 226.683 290.023 227.378H290.035C291.626 228.691 293.33 229.954 295.236 231.015C298.291 232.72 301.914 233.907 306.61 233.907C310.17 233.907 312.871 233.516 314.916 232.846H314.929C315.686 232.607 316.342 232.316 316.911 231.988H316.923C318.021 231.394 318.855 230.687 319.498 229.916C321.152 227.883 321.43 225.345 321.48 222.907C321.493 222.453 321.493 221.556 321.531 220.318C321.531 219.864 321.543 219.371 321.543 218.828C321.581 216.795 321.619 214.143 321.67 211.074C321.682 210.518 321.707 209.937 321.72 209.369C321.834 202.461 321.985 193.772 322.149 185.171C322.149 184.515 322.162 183.87 322.187 183.239C322.351 173.805 322.503 164.674 322.616 158.372C322.629 157.766 322.629 157.172 322.654 156.617C322.717 152.512 322.768 150.012 322.768 150.012C322.768 150.012 315.926 149.911 307.039 149.797H307.026C305.499 149.759 303.934 149.746 302.305 149.734C300.891 149.721 299.452 149.696 298.013 149.683C294.706 149.633 291.323 149.595 288.079 149.57C278.99 149.494 270.948 149.418 268.045 149.494L260.13 149.658L260.155 149.633Z" fill="#7FCBB4"/>
<path d="M302.343 149.721C302.823 149.936 303.277 150.151 303.757 150.365C306.319 151.527 308.857 152.676 311.419 153.788C315.143 155.392 318.892 156.932 322.667 158.36C330.518 161.34 338.522 163.853 346.904 165.659C362.203 168.968 377.97 171.848 393.585 173.123C401.21 173.742 408.898 173.78 416.484 172.643C424.159 171.494 431.393 168.817 438.828 166.733C441.087 166.089 443.372 165.533 445.645 165.066C444.761 164.725 443.839 164.396 442.918 164.068C440.406 164.624 437.919 165.28 435.445 166.025C427.555 168.4 419.855 170.85 411.586 171.582C403.482 172.302 395.34 171.81 387.274 170.85C370.914 168.892 354.2 166.139 338.257 161.921C333.005 160.532 327.83 158.688 322.692 156.604C319.195 155.19 315.724 153.674 312.252 152.108C310.535 151.338 308.806 150.555 307.089 149.784H307.077C305.549 149.746 303.984 149.734 302.355 149.721H302.343Z" fill="white"/>
<path d="M261.505 173.881C261.543 174.411 261.568 174.942 261.606 175.485C272.904 175.99 284.164 177.177 295.336 179.046C297.621 179.425 299.88 179.854 302.14 180.296C308.906 181.66 315.584 183.315 322.211 185.171C330.328 187.407 338.344 189.907 346.448 192.458C354.843 195.085 363.137 196.563 371.948 196.247C380.835 195.919 389.608 194.378 398.495 194.113C409.452 193.797 420.384 195.249 431.253 195.161C437.716 195.148 444.154 194.567 450.554 192.762C453.458 191.941 456.311 191.107 459.151 190.337C465.084 188.733 470.992 187.407 477.329 187.078C479.563 186.965 481.772 186.927 484.006 186.965C483.3 186.422 482.58 185.866 481.848 185.31C479.083 185.323 476.319 185.462 473.567 185.702C468.719 186.144 464.087 187.293 459.517 188.569C455.225 189.768 450.958 191.094 446.553 192.117C441.907 193.178 437.224 193.62 432.515 193.759C419.134 194.125 405.577 191.776 392.272 192.837C382.93 193.595 373.602 195.161 364.21 194.53C355.285 193.911 346.878 190.867 338.458 188.089C333.118 186.321 327.715 184.704 322.287 183.252C315.799 181.534 309.247 180.031 302.658 178.768C289.1 176.141 275.366 174.525 261.556 173.894L261.505 173.881Z" fill="white"/>
<path d="M262.603 193.557C262.654 194.125 262.679 194.706 262.704 195.249C274.015 197.283 285.262 199.644 296.295 202.789C299.489 203.711 302.67 204.671 305.826 205.719C311.115 207.487 316.379 209.407 321.732 211.049C325.759 212.274 329.836 213.347 333.989 214.067C343.469 215.709 353.088 215.772 362.67 215.835C380.544 215.936 398.394 216.037 416.281 216.126C418.958 216.138 421.646 216.163 424.31 216.176C433.954 216.227 443.788 215.936 453.609 215.974C464.92 216.037 476.23 216.53 487.213 218.55C488.955 218.866 490.672 219.22 492.376 219.611C492.603 219.106 492.83 218.588 493.07 218.083C489.599 217.275 486.064 216.618 482.517 216.126C473.112 214.812 463.544 214.421 453.963 214.332C443.245 214.231 432.465 214.56 421.874 214.496C420.207 214.484 418.528 214.484 416.862 214.458C397.775 214.357 378.676 214.294 359.577 214.13C348.834 214.042 338.104 213.65 327.652 210.985C325.683 210.48 323.739 209.925 321.782 209.318C314.334 207.058 307.063 204.216 299.603 201.981C298.618 201.69 297.633 201.387 296.649 201.109C285.452 197.914 274.078 195.553 262.616 193.519L262.603 193.557Z" fill="white"/>
<path d="M287.573 225.32C288.393 225.989 289.201 226.684 290.047 227.366H290.059C291.751 227.644 293.417 227.934 295.096 228.25C299.376 229.033 303.642 229.942 307.884 230.952C310.257 231.521 312.605 232.152 314.953 232.822H314.966C321.505 234.64 327.98 236.673 334.57 238.353C343.128 240.538 351.637 241.334 360.461 241.409C378.121 241.574 395.63 244.099 413.239 244.504C414.628 244.541 416.029 244.554 417.418 244.554C426.507 244.567 435.267 243.405 444.142 241.574C445.606 241.283 447.058 240.967 448.522 240.689C456.424 239.098 464.314 237.848 472.481 238.53C476.23 238.846 479.942 239.414 483.628 240.109C483.792 239.654 483.994 239.136 484.221 238.568C477.972 237.368 471.699 236.522 465.286 236.699C459.744 236.85 454.291 237.81 448.875 238.909C445.631 239.578 442.399 240.298 439.155 240.904C430.546 242.559 421.912 243.051 413.201 242.836C411.977 242.799 410.74 242.748 409.49 242.71C399.896 242.256 390.353 241.157 380.797 240.45C371.468 239.78 362.152 240.071 352.849 239.591C340.604 238.972 328.801 235.398 316.973 231.975H316.96C310.547 230.119 304.135 228.313 297.659 227.05C296.775 226.886 295.891 226.709 295.008 226.557C292.534 226.103 290.059 225.673 287.585 225.307L287.573 225.32Z" fill="white"/>
<path d="M355.057 261.186C375.014 262.79 394.997 260.252 414.968 261.111C416.129 261.161 417.316 261.224 418.477 261.313C427.414 261.868 435.859 263.712 444.38 265.935C445.075 266.112 445.769 266.301 446.463 266.478C446.728 265.948 446.993 265.442 447.233 264.95C446.564 264.773 445.908 264.571 445.251 264.394C445.075 264.344 444.885 264.293 444.708 264.243C435.582 261.717 426.417 260.075 416.924 259.57C416.192 259.532 415.46 259.481 414.728 259.469C394.846 258.648 374.939 261.161 355.069 259.557C354.009 259.469 354.021 261.111 355.069 261.199L355.057 261.186Z" fill="white"/>
<path d="M336.616 340.713C336.578 335.484 336.742 330.218 337.096 324.939C337.134 324.37 337.172 323.802 337.222 323.234C337.273 322.312 337.336 321.377 337.424 320.468C338.182 311.35 339.33 302.244 340.542 293.138C340.706 292.027 340.858 290.928 340.997 289.804C341.868 283.452 341.716 276.152 349.719 273.955C360.437 271.025 372.883 270.722 383.967 271.164C395.113 271.606 407.017 272.97 417.507 276.556C426.331 279.575 430.446 285.548 432.757 293.555C433.198 295.083 433.628 296.536 434.069 297.937C437.162 307.965 440.066 315.025 441.542 323.903C441.618 324.446 441.707 325.002 441.782 325.57C442.01 327.212 442.212 328.917 442.325 330.736C442.363 330.963 442.376 331.215 442.376 331.455C442.489 333.097 442.54 334.802 442.552 336.621C442.59 345.411 443.89 350.399 444.623 359.176C445.266 366.804 442.603 384.094 443.158 391.886C443.524 396.988 444.32 401.787 445.885 406.7C447.261 411.032 439.15 350.794 439.857 355.252C441.385 365.014 437.042 387.974 438.065 397.749C438.595 402.75 440.312 407.044 442.117 411.742C443.859 416.288 444.377 420.759 444.238 425.571C444.187 427.832 444.768 431.898 442.9 433.818C442.205 434.525 441.259 434.79 440.312 435.068C437.358 435.927 434.177 436.369 431.147 436.988C419.862 439.286 408.551 441.471 397.215 443.517C391.674 444.515 386.145 445.487 380.603 446.422C377.157 447.015 371.211 449.238 367.803 447.735C365.429 446.687 364.937 443.732 364.243 441.686C362.45 436.306 360.658 430.913 358.853 425.508C355.785 416.289 351.872 406.968 350.344 397.421C349.65 393.139 350.067 388.972 350.18 384.69C350.344 378.919 348.047 375.282 344.765 371.303C343.944 370.28 343.023 369.232 342.089 368.121C337.001 362.147 342.032 420.087 341.4 412.371C340.997 407.218 342.271 402.154 342.612 397.039C342.991 391.33 341.969 385.723 340.782 380.141C337.992 366.981 336.705 353.897 336.616 340.713Z" fill="#B3E8F8"/>
<path d="M260.155 417.372C265.318 391.242 275.366 364.998 280.239 335.939C280.239 335.939 280.302 335.661 280.441 335.13C281.249 332.314 283.988 325.482 286.904 318.548C287.118 318.043 287.346 317.513 287.56 317.007C291.335 308.066 295.147 299.44 295.147 299.44C295.147 299.44 301.951 306.904 307.367 305.389C314.789 303.317 316.796 300.602 323.979 297.912C329.319 295.929 334.797 293.896 340.554 293.126C341.652 292.961 342.75 292.86 343.861 292.81C363.074 292.002 370.736 306.626 374.145 321.945C374.271 322.539 374.41 323.133 374.523 323.713C375.899 330.508 376.493 337.328 376.947 342.91C376.96 343.137 376.985 343.352 376.998 343.567C378.184 358.002 377.326 371.944 371.027 385.394C368.048 391.76 366.141 397.468 365.75 403.985C367.505 402.772 369.31 401.61 371.191 400.562C372.188 400.006 373.097 401.421 372.112 401.977C369.853 403.239 367.719 404.616 365.674 406.132C365.662 407.003 365.674 407.874 365.712 408.784C366.116 416.626 366.684 424.482 367.177 432.337C367.24 433.385 365.422 433.385 365.359 432.337C364.98 426.237 364.601 420.137 364.223 414.037C364.096 411.89 363.932 409.718 363.844 407.546C363.402 407.912 362.948 408.266 362.518 408.632C362.077 415.641 360.562 422.537 357.835 429.155C356.888 431.466 355.702 433.676 354.452 435.861C351.157 441.67 363.289 372.98 361.408 379.32C358.782 388.211 357.406 397.291 354.452 406.132C351.448 415.124 347.61 423.85 343.104 432.299C342.927 432.64 342.447 432.741 342.081 432.678C317.238 427.967 292.13 424.608 266.858 422.625C266.214 422.575 265.873 422.145 265.974 421.59C271.074 393.528 257.015 432.299 260.167 417.409L260.155 417.372Z" fill="#B3E8F8"/>
<path d="M280.24 335.939L336.616 340.713L372.278 343.731L376.936 342.91L442.388 331.455L442.552 331.417C442.552 331.417 442.489 331.177 442.338 330.723C442.073 329.788 441.517 327.932 440.81 325.431C440.659 324.888 440.52 324.32 440.331 323.714C438.538 317.222 435.988 307.46 434.07 297.925C432.921 292.28 431.999 286.71 431.583 281.936C429.588 259.254 428.629 229.525 423.908 226.646C419.186 223.779 392.614 225.118 372.278 222.541C346.425 219.295 317.504 214.964 311.925 219.965C309.413 222.225 295.805 264.167 293.343 278.11C291.967 285.889 288.054 302.939 284.847 316.54C284.721 317.096 284.582 317.639 284.469 318.182C282.55 326.303 280.947 332.908 280.417 335.13C280.29 335.661 280.215 335.939 280.215 335.939H280.24Z" fill="#B3E8F8"/>
<path d="M284.482 318.182C285.289 318.283 286.085 318.41 286.893 318.548C288.117 318.763 289.367 318.978 290.617 319.218C303.669 321.744 316.722 325.318 330.115 325.33C332.476 325.33 334.799 325.166 337.096 324.926C341.174 324.484 345.213 323.726 349.278 323.019C357.281 321.643 364.641 321.958 372.606 323.385C373.25 323.499 373.868 323.613 374.512 323.714C387.426 325.949 400.264 327.187 413.43 326.416C420.436 326.012 427.405 324.775 434.411 324.914C436.557 324.951 438.69 325.141 440.811 325.444C441.139 325.482 441.467 325.52 441.795 325.57C441.72 325.002 441.631 324.434 441.555 323.903C441.151 323.84 440.748 323.79 440.344 323.726C438.134 323.449 435.9 323.284 433.653 323.272C425.587 323.221 417.571 324.712 409.504 324.977C402.17 325.217 394.811 324.926 387.514 324.105C383.02 323.6 378.577 322.741 374.133 321.958C371.394 321.478 368.655 321.036 365.903 320.708C359.061 319.9 352.56 320.771 345.832 322.009C342.928 322.539 340.075 322.943 337.222 323.234C332.615 323.689 328.007 323.79 323.299 323.398C311.205 322.375 299.466 319.155 287.536 317.02C286.64 316.856 285.744 316.705 284.848 316.566C284.721 317.121 284.583 317.664 284.469 318.207L284.482 318.182Z" fill="#68CCEA"/>
<path d="M405.602 230.662L415.385 231.634C416.685 218.272 418.15 205.277 421.76 193.027C424.6 183.353 429.119 173.3 435.86 161.555C432.641 160.443 429.435 159.344 426.38 158.322C419.753 170.029 415.246 180.284 412.318 190.236C408.48 203.319 406.94 216.82 405.602 230.662Z" fill="#B3E8F8"/>
<path d="M288.117 149.557C288.95 155.771 291.512 172.883 295.4 184.3C296.486 187.47 297.534 190.4 298.544 193.128C303.063 205.239 306.926 213.17 309.564 217.957C313.604 225.294 316.583 228.982 319.549 229.917C320.079 230.081 320.597 230.157 321.127 230.157C321.657 230.157 322.175 230.093 322.718 229.929C323.589 229.689 327.83 228.111 326.328 221.758L321.544 222.895L316.835 224.031C316.936 223.173 317.529 221.708 319.095 220.849C319.978 220.369 320.849 220.255 321.582 220.319C322.389 220.382 323.046 220.685 323.324 220.912C323.008 220.672 322.44 219.99 321.607 218.828C318.577 214.547 312.341 203.459 304.717 181.117C304.224 179.678 303.77 178.137 303.303 176.508C300.728 167.162 298.897 155.48 298.051 149.671C294.744 149.62 291.361 149.595 288.117 149.557Z" fill="#B3E8F8"/>
<path d="M452.071 237.57C453.927 233.163 456.666 229.21 458.433 224.727C462.056 215.52 463.798 205.593 465.995 195.97C466.234 194.947 467.812 195.376 467.573 196.412C465.49 205.555 463.786 214.939 460.541 223.767C459.165 227.518 457.348 230.978 455.441 234.476C452.488 239.919 451.844 244.693 452.5 250.818C452.614 251.867 450.973 251.854 450.859 250.818C450.367 246.184 450.228 241.94 452.058 237.57H452.071Z" fill="#336660"/>
<path d="M288.52 182.936C290.868 188.392 290.944 194.05 291.31 199.884C291.777 207.575 293.292 215.14 294.807 222.68C295.009 223.715 293.431 224.157 293.229 223.122C291.967 216.896 290.717 210.644 290.035 204.317C289.303 197.434 289.896 190.248 287.107 183.769C286.69 182.81 288.104 181.976 288.52 182.936Z" fill="#336660"/>
<path d="M406.386 234.009C406.386 232.001 408.015 230.372 410.022 230.372C412.029 230.372 413.657 232.001 413.657 234.009C413.657 236.017 412.029 237.646 410.022 237.646C408.015 237.646 406.386 236.017 406.386 234.009Z" fill="white"/>
<path d="M315.838 226.86C315.838 224.802 317.504 223.147 319.549 223.147C321.594 223.147 323.26 224.815 323.26 226.86C323.26 228.906 321.594 230.573 319.549 230.573C317.504 230.573 315.838 228.906 315.838 226.86Z" fill="white"/>
<path d="M414.729 242.546C414.919 242.546 415.108 242.483 415.259 242.344C415.423 242.205 415.524 242.003 415.55 241.788L416.661 227.176C416.698 226.721 416.358 226.33 415.903 226.292C415.461 226.254 415.057 226.595 415.02 227.05L413.972 240.841L405.097 240.146L406.41 226.355C406.448 225.9 406.12 225.509 405.678 225.458C405.224 225.433 404.832 225.749 404.782 226.191L403.393 240.816C403.368 241.03 403.444 241.258 403.583 241.422C403.722 241.586 403.923 241.7 404.151 241.712L414.679 242.533C414.679 242.533 414.717 242.533 414.742 242.533L414.729 242.546Z" fill="#68CCEA"/>
<path d="M318.679 236.862C318.818 236.862 318.944 236.825 319.07 236.761L328.374 231.773C328.563 231.672 328.714 231.495 328.777 231.293C328.841 231.078 328.815 230.864 328.714 230.662L321.771 217.767C321.557 217.363 321.065 217.224 320.661 217.439C320.257 217.653 320.118 218.146 320.332 218.55L326.884 230.725L319.045 234.93L312.708 222.604C312.506 222.2 312.014 222.036 311.61 222.25C311.206 222.453 311.054 222.958 311.256 223.349L317.972 236.42C318.073 236.61 318.25 236.761 318.451 236.825C318.527 236.85 318.616 236.862 318.691 236.862H318.679Z" fill="#68CCEA"/>
<path d="M318.174 367.234C322.428 373.662 326.783 380.027 331.264 386.304C335.48 392.215 339.596 398.921 345.339 403.505L340.681 387.378C340.391 386.367 341.969 385.925 342.259 386.936C346.438 401.409 350.616 415.869 354.782 430.33C355.072 431.34 353.494 431.782 353.204 430.772C350.805 422.449 348.407 414.139 345.996 405.816C345.832 405.854 345.642 405.816 345.453 405.69C339.735 401.51 335.796 395.397 331.693 389.727C326.556 382.604 321.582 375.38 316.735 368.055C316.154 367.171 317.568 366.35 318.148 367.221L318.174 367.234Z" fill="#ED934E"/>
<path d="M371.192 282.947C378.413 282.947 384.093 279.701 385.722 274.435C387.577 268.461 388.587 250.591 388.625 249.833C388.638 249.606 388.562 249.391 388.41 249.227C388.259 249.063 388.044 248.975 387.817 248.962C387.653 248.962 370.738 248.747 363.05 248.343C355.4 247.939 338.926 245.097 338.762 245.072C338.535 245.034 338.308 245.097 338.118 245.236C337.942 245.375 337.828 245.59 337.803 245.817C337.475 249.922 337.235 254.266 337.096 258.737C337.071 259.52 337.008 260.454 336.932 261.477C336.541 266.984 335.96 275.306 340.53 278.173C346.21 281.722 354.201 282.05 361.257 282.341C363.82 282.442 366.244 282.543 368.465 282.783C369.399 282.884 370.308 282.934 371.205 282.934L371.192 282.947ZM386.946 250.604C386.719 254.291 385.734 268.891 384.169 273.955C382.566 279.108 376.33 282.012 368.642 281.179C366.37 280.939 363.921 280.825 361.333 280.724C354.491 280.446 346.728 280.118 341.413 276.797C337.677 274.46 338.219 266.731 338.586 261.616C338.661 260.568 338.724 259.621 338.75 258.825C338.889 254.708 339.103 250.692 339.381 246.878C342.941 247.472 356.271 249.669 362.974 250.023C369.69 250.376 383.386 250.578 386.946 250.629V250.604Z" fill="#68CCEA"/>
<path d="M388.422 255.226C388.422 255.226 371.14 254.973 360.208 254.304C353.493 253.887 337.284 251.74 337.284 251.74L337.802 245.287C337.852 244.655 338.458 244.213 339.064 244.377C341.879 245.11 348.191 246.032 361.875 246.815C374.334 247.535 384.117 247.282 387.425 247.459C388.106 247.497 388.624 248.065 388.598 248.747L388.409 255.213L388.422 255.226Z" fill="white"/>
<path d="M223.787 183.492C205.963 178.731 193.024 155.935 183.783 142.687C177.509 133.683 171.349 124.577 165.353 115.383C165.353 115.383 181.65 100.847 181.864 101.137C185.891 106.593 213.663 128.947 221.641 135.855C236.486 148.686 243.77 150.921 246.257 155.746C248.378 159.863 253.907 159.509 253.907 159.509C259.587 180.979 244.187 188.948 223.774 183.492H223.787Z" fill="#FCBFA3"/>
<path d="M183.734 104.799C183.709 104.938 183.658 105.09 183.545 105.229C179.253 110.596 168.75 119.209 168.75 119.209C168.75 119.209 156.77 114.486 151.544 110.899C147.984 108.462 137.848 103.612 138.277 98.4344C138.378 97.2599 139.009 96.3632 139.83 95.8328C137.431 93.7111 135.386 91.2357 135.576 87.9395C135.664 86.323 136.358 85.2874 137.33 84.7317C137.027 84.2013 136.737 83.6582 136.51 83.1152C135.828 81.4734 135.841 79.7179 136.914 78.2403C138.656 75.8155 141.206 76.5985 143.768 78.1393C143.97 76.889 145.788 74.982 147.732 75.083C151.595 75.2851 162.981 83.7593 169.419 89.0509C169.684 85.4263 167.197 82.37 166.756 78.8591C166.44 76.3207 167.513 72.2288 170.77 74.5526C173.623 76.5859 175.15 79.68 176.652 82.7237C178.344 86.1462 179.909 89.6192 181.323 93.1554C182.118 95.1382 182.51 97.1715 182.888 99.2679C183.116 100.556 183.141 102.602 183.974 103.688C184.315 104.13 184.113 104.572 183.747 104.799H183.734Z" fill="#FCBFA3"/>
<path d="M174.544 110.154C168.321 106.365 167.134 99.1668 169.495 92.6627C169.861 91.665 168.27 91.2356 167.917 92.2207C165.304 99.432 166.907 107.414 173.724 111.569C174.633 112.124 175.453 110.697 174.557 110.154H174.544Z" fill="#F7B091"/>
<path d="M156.935 88.8741C153.325 85.5273 149.475 82.4837 145.41 79.7053C144.539 79.1117 143.807 80.5767 144.665 81.1703C148.616 83.8729 152.34 86.8534 155.85 90.0991C156.62 90.819 157.718 89.5939 156.948 88.8741H156.935Z" fill="#F7B091"/>
<path d="M151.267 94.7464C147.429 91.5134 143.427 88.5076 139.262 85.7039C138.391 85.1104 137.658 86.588 138.529 87.1689C142.569 89.8968 146.457 92.8268 150.194 95.9715C151.001 96.6535 152.087 95.4284 151.279 94.7464H151.267Z" fill="#F7B091"/>
<path d="M151.165 101.958C148.148 100.126 145.169 98.2447 142.227 96.3125C141.344 95.7315 140.523 97.1586 141.394 97.7269C144.348 99.6592 147.327 101.541 150.332 103.372C151.241 103.928 152.061 102.501 151.165 101.958Z" fill="#F7B091"/>
</g>
<path d="M411.198 344.404L566.404 344.404C566.404 344.404 503.21 501.773 322.085 454.646C140.96 407.518 54.9566 496.493 12.0124 435.224C-30.9317 373.955 55.0715 342.656 55.0715 342.656L411.198 344.404Z" fill="#F2F2F2"/>
<path d="M355.093 381.254L279.176 408.423L279.176 403.233L279.19 403.238L346.637 378.874L354.492 376.035C354.911 375.883 355.265 375.628 355.338 375.271C355.627 373.846 355.676 376.359 355.681 380.406C355.681 380.787 355.447 381.127 355.095 381.252L355.093 381.254Z" fill="#CCCCCC"/>
<path d="M355.68 373.504L355.68 373.969C355.608 374.474 355.298 374.944 354.716 375.159L346.827 378.07L279.085 403.054C279.085 403.054 279.08 403.054 279.071 403.049C278.646 402.94 267.913 400.145 267.303 400.145C266.916 400.145 266.406 397.615 266.078 395.721C265.883 394.591 265.753 393.686 265.753 393.686L268.233 372.184L354.225 372.184C355.07 372.184 355.587 372.812 355.68 373.504Z" fill="#B3B3B3"/>
<path d="M281.939 397.685L311.641 386.226C313.395 385.55 312.915 382.921 311.039 382.921L279.176 382.921L281.939 397.685Z" fill="#808080"/>
<path d="M280.293 403.054L67.5826 403.054C63.8912 403.054 60.6447 400.614 59.6282 397.074L32.3871 252.447C31.232 246.317 35.9448 240.649 42.197 240.649L260.661 240.649C264.807 240.649 268.311 243.709 268.863 247.809L288.495 393.7C289.162 398.651 285.3 403.054 280.293 403.054Z" fill="#E6E6E6"/>
</g>
<defs>
<clipPath id="clip0_60_327">
<rect width="503" height="412" fill="white"/>
</clipPath>
<clipPath id="clip1_60_327">
<rect width="425.474" height="436.212" fill="white" transform="matrix(-1 0 0 1 561.036 -0.363525)"/>
</clipPath>
</defs>
</svg>
