<svg width="256" height="169" viewBox="0 0 256 169" fill="none" xmlns="http://www.w3.org/2000/svg">
<g clip-path="url(#clip0_60_406)">
<path d="M224.649 39.403C249.335 25.1507 280.898 33.6097 295.15 58.2947C309.401 82.9776 300.945 114.542 276.259 128.794C251.574 143.046 220.009 134.588 205.758 109.905C191.507 85.2191 199.965 53.6547 224.649 39.403Z" fill="#7FCBB4"/>
<path d="M166.195 -8.14487C182.318 -17.4536 203.001 -11.8145 212.394 4.4544C221.785 20.7192 216.327 41.4515 200.204 50.7605C184.08 60.0695 163.396 54.4304 154.006 38.1651C144.613 21.8962 150.071 1.16411 166.195 -8.14487Z" fill="#68CCEA"/>
<path d="M257.076 0.701503C252.298 -7.57432 241.6 -10.343 233.182 -5.48262C224.763 -0.622191 221.812 10.0268 226.59 18.3027C231.368 26.5785 242.066 29.3472 250.485 24.4868C258.903 19.6263 261.854 8.97732 257.076 0.701503Z" fill="#F2C45B"/>
</g>
<defs>
<clipPath id="clip0_60_406">
<rect width="256" height="169" fill="white"/>
</clipPath>
</defs>
</svg>
