<svg width="68" height="61" viewBox="0 0 68 61" fill="none" xmlns="http://www.w3.org/2000/svg">
<path d="M36.267 32.0887C40.2489 39.9342 36.9722 49.5861 28.9483 53.647C20.9242 57.708 11.192 54.64 7.21002 46.7944C3.22799 38.9487 6.5044 29.2967 14.5285 25.2358C22.5523 21.1749 32.2849 24.243 36.267 32.0887Z" fill="#F37E5E"/>
<path d="M55.0704 33.5062C56.6648 36.6475 55.407 40.4848 52.261 42.0769C49.1154 43.6689 45.2727 42.413 43.6784 39.2717C42.084 36.1303 43.3417 32.2931 46.4873 30.7011C49.6333 29.1089 53.476 30.3648 55.0704 33.5062Z" fill="#7FCBB4"/>
<path d="M58.9715 22.6004C63.9578 20.0768 65.9513 13.9946 63.4242 9.01546C60.897 4.03627 54.8062 2.04558 49.8199 4.56913C44.8337 7.09268 42.8402 13.1749 45.3673 18.1541C47.8944 23.1332 53.9852 25.1239 58.9715 22.6004Z" fill="#F2C45B"/>
</svg>
