<svg width="684" height="323" viewBox="0 0 684 323" fill="none" xmlns="http://www.w3.org/2000/svg">
<g clip-path="url(#clip0_2002_805)">
<path d="M747.75 311.84H654.082C653.9 311.6 653.713 311.359 653.531 311.118C653.407 310.959 653.282 310.8 653.158 310.64C653.104 311.04 653.038 311.44 652.964 311.84H597.861C582.817 299.542 567.75 287.267 552.613 275.081C542.664 267.074 532.684 259.11 522.662 251.199C539.142 270.662 554.784 290.878 569.307 311.836H498.585C493.172 307.464 487.724 303.126 482.245 298.831C480.944 297.814 479.643 296.797 478.342 295.783C477.938 295.468 477.534 295.158 477.13 294.843C477.154 294.859 477.181 294.878 477.196 294.89C477.173 294.874 477.15 294.855 477.127 294.839C476.878 294.649 476.633 294.455 476.385 294.265C473.344 291.9 476.198 294.164 477.041 294.781C474.152 292.816 471.453 290.486 468.669 288.378C446.93 271.893 424.714 256.038 402.075 240.816C406.836 245.359 411.57 249.93 416.264 254.539C435.184 273.105 453.551 292.226 471.379 311.84H397.636C389.012 304.815 380.356 297.833 371.626 290.941C365.584 286.164 359.584 281.295 353.406 276.697C353.546 276.802 356.703 279.236 354.618 277.633C353.911 277.093 353.208 276.545 352.501 276.006C351.092 274.922 349.678 273.839 348.265 272.759C345.201 270.418 342.137 268.084 339.061 265.758C327.004 256.632 314.853 247.623 302.617 238.738C296.854 234.552 291.072 230.393 285.271 226.253C293.212 234.676 301.052 243.2 308.764 251.84C326.157 271.326 342.933 291.348 359.122 311.844H283.329C274.541 304.881 265.738 297.938 256.892 291.045C254.143 288.902 251.385 286.762 248.628 284.626C248.38 284.432 248.127 284.242 247.883 284.048C247.867 284.036 247.856 284.028 247.84 284.017C245.995 282.599 244.155 281.178 242.31 279.765C236.318 275.163 230.307 270.585 224.276 266.033C212.223 256.931 200.095 247.922 187.875 239.045C176.217 230.572 164.47 222.211 152.63 213.978C169.15 229.799 185.343 245.965 201.148 262.511C216.541 278.627 231.573 295.084 246.256 311.848H161.706C150.724 303.771 139.699 295.744 128.605 287.822C129.715 289.077 130.826 290.331 131.933 291.589C137.773 298.261 143.505 305.017 149.155 311.844H55.9918C50.7533 308 45.5032 304.175 40.2259 300.385C39.5541 299.903 38.8823 299.426 38.2104 298.948C39.224 300.043 40.253 301.126 41.2666 302.229C44.1868 305.41 47.0759 308.621 49.9456 311.844H-170.374C-171.085 309.984 -171.776 308.116 -172.436 306.229C-175.497 297.461 -170.98 287.007 -164.06 281.66C-161.062 279.341 -157.929 277.963 -154.717 277.345C-160.165 272.915 -165.652 268.53 -171.194 264.216C-178.956 258.17 -179.943 243.786 -174.848 235.888C-169.524 227.632 -158.387 221.562 -148.45 225.147C-134.501 230.179 -120.673 235.55 -106.984 241.254C-100.728 243.86 -95.653 235.701 -100.763 231.251L-101.055 230.995C-116.219 217.78 -131.515 204.713 -146.815 191.654C-154.333 185.235 -155.739 171.5 -150.469 163.325C-148.29 159.947 -145.463 157.12 -142.081 154.938C-137.689 152.107 -129.057 150.511 -124.071 152.58C-113.349 157.034 -102.763 161.733 -92.3095 166.661C-87.7894 168.789 -84.178 162.444 -88.3253 159.663C-88.4884 159.555 -88.6515 159.446 -88.8146 159.337C-98.9576 152.545 -104.328 138.414 -97.2024 127.355C-93.9832 122.365 -89.1912 117.969 -83.2343 116.614C-76.7144 115.13 -71.2933 116.303 -65.2199 118.971C-41.202 129.518 -17.7705 141.179 5.18728 153.707C7.79682 155.132 10.185 151.528 7.85507 149.687L7.62207 149.505C5.00088 147.435 2.37192 145.373 -0.264808 143.319C-1.49192 142.364 -2.71514 141.397 -3.9539 140.453C-4.28786 140.201 -4.58686 139.971 -4.78491 139.82C-10.5282 135.413 -16.3026 131.048 -22.1081 126.722C-33.719 118.07 -45.4503 109.589 -57.2942 101.263C-66.9053 94.5064 -71.6273 83.377 -66.8587 72.0728C-62.1988 61.0328 -50.8247 56.0583 -39.2837 58.5397C-12.4427 64.3063 15.9245 76.426 43.5693 90.9144C49.4719 94.0093 56.1782 88.4873 54.3454 82.08C54.3104 81.9596 54.2754 81.8353 54.2405 81.7111C52.6988 76.1153 53.394 68.6633 56.5976 63.7005C59.8168 58.7106 64.6049 54.3147 70.5657 52.9595C77.0818 51.4761 82.5106 52.641 88.5762 55.3166C108.159 63.9452 127.37 73.3427 146.262 83.342C146.565 81.9829 146.992 80.6315 147.555 79.2957C151.601 69.704 164.377 61.2269 175.13 65.7625C176.99 66.547 178.846 67.343 180.706 68.1352L180.714 68.1197C180.745 68.1391 180.772 68.1585 180.803 68.1779C234.466 91.027 286.84 116.649 337.469 145.645C338.91 146.468 340.347 147.295 341.78 148.126C345.011 149.99 348.144 145.579 345.313 143.144L345.057 142.923C325.47 126.073 305.662 109.488 285.845 92.9065C276.933 85.4467 277.461 70.6982 284.016 62.2133C291.329 52.7498 303.681 50.7887 314.17 56.1942C345.605 72.3913 376.042 90.2659 405.71 109.352C415.251 115.488 425.576 102.782 417.6 94.7161L416.886 93.9938C408.665 85.6836 407.985 72.4534 415.057 63.3006C421.856 54.5011 435.378 50.8975 445.21 57.2815C460.766 67.3741 476.047 77.9016 491.025 88.8446C498.869 94.5763 508.332 84.1575 501.878 76.8958C501.692 76.6861 501.502 76.4726 501.315 76.2629C493.184 67.1372 491.646 52.0819 501.315 43.2047C511.439 33.9121 524.203 34.9451 534.373 43.2047C550.675 56.4466 566.453 70.3292 581.671 84.7982C586.386 89.2795 594.148 85.8506 594.086 79.3462C594.086 79.2335 594.086 79.1209 594.086 79.0044C594.086 73.2728 596.634 66.4227 600.932 62.4773C609.297 54.8001 625.991 52.1556 633.991 62.4773C674.365 114.559 708.716 170.758 735.239 231.146C743.184 249.242 750.597 267.567 757.295 286.16C760.588 295.302 755.711 306.353 747.735 311.86L747.75 311.84Z" fill="url(#paint0_linear_2002_805)"/>
<path d="M584.548 94.8485C591.088 97.9046 597.864 102.918 598.369 110.77C598.908 119.165 591.581 121.453 584.564 121.359C582.187 121.328 581.733 117.612 584.133 117.643C586.393 117.674 588.901 117.806 591.049 116.964C594.773 115.504 595.192 111.197 593.891 107.892C592.012 103.116 587.445 100.332 583.01 98.258C580.836 97.2406 582.358 93.8233 584.544 94.8446L584.548 94.8485Z" fill="#446C8F"/>
<path d="M569.871 87.5396C571.412 79.4974 571.976 74.0803 577.082 72.3406L577.886 71.7426C578.829 71.0397 579.998 70.7096 581.171 70.8145L585.493 71.195C592.145 72.4726 595.939 81.8623 593.966 92.1646C591.99 102.467 584.996 109.783 578.344 108.505L571.929 106.35L572.764 104.498C568.659 100.991 568.329 95.578 569.871 87.5396Z" fill="#2E282F"/>
<path d="M579.486 79.1643C559.262 81.0438 576.158 103.194 577.513 109.702C583.187 136.819 569.463 125.363 576.158 143.502C580.966 156.526 568.341 166.813 567.444 171.046C566.547 175.271 522.255 180.948 508.434 185.651C496.008 189.887 480.374 181.302 475.838 175.842C462.961 160.348 470.836 146.706 474.696 142.248C478.56 137.786 475.24 136.862 474.164 126.998C473.92 124.715 474.502 122.536 475.605 120.443C478.168 115.62 483.542 111.197 488.164 106.829C490.202 104.902 492.101 102.984 493.53 101.05C506.302 83.8164 501.262 64.9943 509.331 44.0403C510.539 40.9182 512.034 37.7494 513.921 34.5224C516.837 29.5558 520.682 26.022 525.078 23.5639C540.494 14.9159 562.59 19.5331 574.492 21.9174C579.494 23.2921 581.082 27.3967 580.748 29.482C621.72 41.2444 593.547 69.4834 579.486 79.1604V79.1643Z" fill="#BE6B59"/>
<path d="M503.726 121.426C502.204 120.568 500.604 121.22 499.023 120.968C495.89 120.471 496.833 118.059 495.16 116.16C493.983 114.813 492.888 115.216 491.362 114.871C487.875 114.059 489.913 111.722 489.23 109.038C489.005 108.149 488.632 107.411 488.154 106.833C483.537 111.197 478.159 115.62 475.596 120.447C478.205 122.626 483.246 118.84 483.207 124.206C483.187 126.823 483.925 129.087 487.005 128.928C487.743 128.882 488.267 128.637 488.958 128.423C491.23 127.752 490.286 127.686 491.315 129.095C492.251 130.357 492.465 131.441 494.064 132.058C499.61 134.198 511.027 125.561 503.722 121.426H503.726Z" fill="#D39489"/>
<path d="M514.972 82.1001C513.038 97.8467 509.749 116.211 501.097 121.632C492.453 127.045 496.363 136.213 493.505 143.401C490.647 150.589 472.683 159.788 492.08 169.279C511.477 178.77 534.431 158.93 551.152 161.074C568.549 163.299 564.774 124.501 557.866 116.758C550.958 109.015 514.972 82.1079 514.972 82.1079V82.1001Z" fill="#873D36"/>
<path d="M540.988 185.258C501.829 182.94 516.951 162.106 507.635 159.668C512.143 156.107 510.598 145.793 512.217 143.238C515.988 137.285 524.492 108.203 523.335 92.5962L556.537 114.925C555.628 115.55 554.843 116.432 554.16 117.562C552.281 120.649 551.112 125.546 550.168 131.972C549.776 134.656 549.419 137.591 549.065 140.78C548.661 144.372 557.725 147.622 559.499 149.063C561.286 150.503 578.799 187.491 540.984 185.258H540.988Z" fill="#FFB692"/>
<path d="M557.866 119.418C554.049 120.579 551.113 125.546 550.17 131.969C543.708 128.089 533.957 111.539 533.957 101.722L557.866 119.418Z" fill="#DC765D"/>
<path d="M590.634 68.4546C593.208 53.2362 588.218 38.9458 579.038 33.3423C571.066 51.9159 543.487 44.3785 537.414 57.0689C536.862 58.2184 536.59 59.4843 536.455 60.7503C535.942 65.5927 529.954 74.3727 525.939 74.7572C514.953 75.8017 524.444 88.8068 523.799 92.5502C527.041 100.235 533.336 107.458 540.097 114.001C544.007 118.067 548.889 121.1 554.31 122.673C568.728 126.866 572.359 123.488 576.844 116.599C581.9 108.829 587.566 98.1382 588.183 93.5948C590.086 79.6345 586.622 82.644 590.634 68.4585V68.4546Z" fill="#FFB692"/>
<path d="M531.055 76.7496C528.523 65.1892 518.17 65.2086 515.025 73.8061C512.512 80.6756 516.718 92.0729 523.817 94.4844C533.983 97.9405 533.723 88.9236 531.055 76.7496Z" fill="#FFB692"/>
<path d="M552.561 70.2767C552.724 68.2263 553.963 66.6497 555.329 66.7585C556.696 66.8672 557.675 68.6186 557.512 70.6689C557.349 72.7193 556.11 74.2959 554.743 74.1871C553.376 74.0784 552.398 72.3271 552.561 70.2767Z" fill="#3D303E"/>
<path d="M580.08 73.3941C580.243 71.3438 581.482 69.7672 582.849 69.8759C584.216 69.9846 585.195 71.736 585.031 73.7863C584.868 75.8367 583.63 77.4133 582.263 77.3046C580.896 77.1958 579.917 75.4445 580.08 73.3941Z" fill="#3D303E"/>
<path d="M549.393 56.3505C555.634 54.0438 562.958 54.4826 563.404 55.8068C563.851 57.131 563.307 59.2474 562.018 59.2357C560.729 59.2241 550.624 58.8901 548.485 58.164C547.328 57.7717 548.543 56.665 549.393 56.3505Z" fill="#BE6B59"/>
<path d="M581.97 58.2105C586.043 56.6844 592.144 60.3424 592.346 61.2705C592.47 61.8452 592.058 62.5636 591.74 62.5054C590.474 62.2802 583.655 61.888 581.209 61.5268C579.997 61.3482 581.123 58.5251 581.97 58.2105Z" fill="#BE6B59"/>
<path d="M571.842 91.7341C571.799 91.7341 571.772 91.7341 571.76 91.7341C571.174 91.7108 570.716 91.2176 570.735 90.6313C570.758 90.0449 571.267 89.5672 571.838 89.6061C571.916 89.6061 573.981 89.6333 575.399 87.9052C576.319 86.7791 575.822 85.7151 574.867 83.9249C574.339 82.9346 573.791 81.9134 573.655 80.8144C573.585 80.2319 574.001 79.6999 574.587 79.63C575.17 79.5562 575.702 79.9756 575.772 80.5581C575.857 81.261 576.288 82.0648 576.742 82.9152C577.659 84.6239 578.913 86.9655 577.045 89.2488C575.108 91.6137 572.358 91.7302 571.842 91.7302V91.7341Z" fill="#DC765D"/>
<path d="M576.357 100.566C574.745 103.599 572.466 105.952 569.666 107.141C569.25 107.327 568.819 107.475 568.388 107.595C566.928 108.018 565.344 108.131 563.659 107.878C562.948 107.774 562.253 107.618 561.577 107.42C561.515 107.412 561.468 107.397 561.41 107.377C557.519 106.22 554.106 103.638 552.09 100.438C552.059 100.384 552.017 100.318 551.986 100.267C551.71 99.7935 551.446 99.2964 551.221 98.7955C551.073 98.4615 550.953 98.1275 550.832 97.7936C550.576 97.0286 551.193 96.2519 551.997 96.2947C556.164 96.5626 564.746 97.3664 571.658 98.3139C573.037 98.4965 574.349 98.6945 575.545 98.8925C576.314 99.0168 576.733 99.875 576.361 100.57L576.357 100.566Z" fill="white"/>
<path d="M576.358 100.566C574.746 103.598 572.467 105.952 569.667 107.14C569.251 107.326 568.82 107.474 568.389 107.594C566.929 108.018 565.345 108.13 563.659 107.878C563.298 107.823 562.949 107.761 562.603 107.684C562.258 107.606 561.912 107.52 561.578 107.42C561.609 107.373 561.648 107.342 561.691 107.311C561.601 107.338 561.5 107.35 561.411 107.377C561.209 107.319 561.007 107.256 560.809 107.187C560.584 107.113 560.359 107.039 560.149 106.954C559.869 106.837 559.598 106.732 559.33 106.604C559.05 106.488 558.782 106.356 558.514 106.216C558.246 106.076 557.994 105.936 557.73 105.781C557.209 105.49 556.708 105.159 556.235 104.814C555.998 104.639 555.761 104.464 555.536 104.266C555.322 104.095 555.108 103.925 554.907 103.742C554.895 103.73 554.883 103.715 554.864 103.699C554.654 103.505 554.441 103.307 554.231 103.101C554.021 102.892 553.823 102.686 553.641 102.468C553.466 102.29 553.303 102.099 553.155 101.898C552.767 101.435 552.417 100.942 552.095 100.437C552.064 100.383 552.021 100.317 551.99 100.267C552.157 100.309 552.336 100.344 552.53 100.364C552.553 100.379 552.588 100.383 552.6 100.383C555.345 100.942 559.586 101.525 563.178 101.87C565.543 102.103 567.616 102.228 568.789 102.165C572.89 101.932 573.138 99.3346 573.771 98.6123C574.389 98.6939 574.975 98.7987 575.542 98.888C576.311 99.0123 576.73 99.8705 576.358 100.566Z" fill="#5B1828"/>
<path d="M569.667 107.141C569.251 107.327 568.82 107.475 568.389 107.595C566.929 108.019 565.345 108.131 563.659 107.879C563.298 107.824 562.949 107.762 562.603 107.685C562.258 107.607 561.912 107.521 561.578 107.421C561.516 107.413 561.469 107.397 561.411 107.378C561.209 107.32 561.007 107.257 560.809 107.188C560.584 107.114 560.359 107.04 560.149 106.955C559.869 106.838 559.598 106.733 559.33 106.605C559.05 106.489 558.782 106.357 558.514 106.217C558.246 106.077 557.994 105.937 557.73 105.782C557.209 105.491 556.708 105.16 556.235 104.815C555.998 104.64 555.761 104.465 555.536 104.267C555.322 104.096 555.108 103.926 554.907 103.743C554.895 103.731 554.883 103.716 554.864 103.7C554.654 103.506 554.441 103.308 554.231 103.102C554.021 102.893 553.823 102.687 553.641 102.469C553.466 102.291 553.303 102.1 553.155 101.899C552.767 101.436 552.417 100.943 552.095 100.438C552.064 100.384 552.021 100.318 551.99 100.268C552.157 100.31 552.336 100.345 552.53 100.365C552.553 100.38 552.588 100.384 552.6 100.384C555.345 100.943 559.586 101.526 563.178 101.871C565.935 102.982 568.339 104.803 569.667 107.137V107.141Z" fill="#E57876"/>
<path d="M410.619 220.165C406.363 208.764 424.921 192.497 424.921 192.497C424.921 192.497 438.306 220.184 430.377 223.601C422.447 227.023 418.502 230.82 410.619 220.165Z" fill="#E3903A"/>
<path d="M629.351 289.718C627.751 294.028 625.367 301.088 616.113 301.088H479.656C480.227 293.655 477.551 292.859 479.171 273.738C479.602 268.69 480.002 262.554 480.386 255.731C482.106 224.894 483.361 179.759 484.025 154.945L506.155 145.897C515.619 156.025 521.583 177.507 521.583 177.507H565.818C565.818 177.507 567.806 154.309 554.129 146.728C554.774 146.895 575.926 151.431 584.267 156.545C595.326 163.345 596.6 177.62 601.283 197.37C605.92 216.93 610.382 233.725 615.834 242.66C621.274 251.6 623.146 259.576 622.342 262.007C621.531 264.438 623.437 262.585 625.503 268.142C627.569 273.687 630.955 285.403 629.355 289.721L629.351 289.718Z" fill="#F6BB5A"/>
<path d="M498.835 301.088C498.544 299.628 497.993 298.299 497.422 296.89C495.993 293.376 495.504 289.756 495.065 286.005C494.381 280.141 494.459 274.064 494.373 268.173C494.28 262.15 494.001 256.318 493.383 250.322C493.045 247.114 492.521 243.938 492.222 240.73C492.071 239.15 492.222 237.224 491.446 235.795C491.073 235.092 490.098 234.692 489.333 234.933C486.164 235.942 486.452 242.171 485.388 244.781C483.873 248.473 482.087 252.085 480.386 255.731C480.002 262.558 479.602 268.69 479.171 273.738C477.551 292.859 480.227 293.655 479.656 301.088H498.832H498.835Z" fill="#E3903A"/>
<path d="M431.156 195.823C428.693 189.862 413.675 167.238 412.785 163.758C407.814 179.354 401.002 178.22 401.002 178.22L427.274 232.317C427.274 232.317 441.082 219.039 431.156 195.819V195.823Z" fill="#F7B288"/>
<path d="M412.816 163.95C410.773 160.298 403.778 149.86 401.731 146.711C398.887 142.337 387.857 139.797 381.018 139.129C376.397 138.676 362.915 133.404 360.693 132.844C358.3 132.235 354.401 136.723 358.189 139.285C361.978 141.846 367.359 143.416 370.289 144.605C373.219 145.793 376.667 149.603 376.667 149.603C376.667 149.603 365.424 156.726 363.368 157.378C361.314 158.025 351.641 157.286 349.844 157.319C348.045 157.35 339.047 156.847 337.264 158.531C335.481 160.215 335.66 163.131 338.32 164.094C340.977 165.057 350.99 165.829 350.99 165.829C350.99 165.829 339.105 169.594 338.288 171.733C337.467 173.873 338.497 176.958 341.897 176.807C345.503 178.896 355.781 176.086 355.781 176.086C355.781 176.086 366.25 180.164 369.377 178.458C372.504 176.752 379.428 172.086 380.176 171.466C380.925 170.846 394.575 167.394 395.198 168.148C395.818 168.904 404.046 183.8 404.046 183.8C404.046 183.8 418.232 176.747 412.817 163.953L412.816 163.95Z" fill="#F7B288"/>
<path d="M398.703 154.629C393.942 152.957 390.221 150.631 385.695 153.853C383.067 155.72 381.367 158.499 379.476 161.044C377.086 164.26 374.338 167.104 371.045 169.397C368.623 171.083 366.773 172.479 363.584 171.583C362.198 171.193 360.976 170.327 359.558 169.99C357.944 169.607 356.004 169.533 354.609 170.606C352.043 172.581 353.073 176.179 355.799 177.333C356.723 177.722 357.322 176.789 356.398 176.399C354.088 174.678 354.384 172.068 356.339 171.312C357.724 170.777 358.547 171.315 360.459 171.955C361.314 172.24 362.105 172.713 362.955 173.017C363.99 173.388 365.076 173.768 366.196 173.649C369.573 173.29 373.272 169.878 375.63 167.723C378.768 164.85 380.87 161.33 383.576 158.106C385.659 155.624 388.161 153.454 391.568 153.479C393.896 153.497 396.311 154.644 398.495 155.411C399.436 155.74 399.643 154.967 398.697 154.635L398.703 154.629Z" fill="#CD9A82"/>
<path d="M376.667 149.6L381.697 145.996C381.704 145.165 375.13 148.053 375.13 148.053L376.666 149.596L376.667 149.6Z" fill="#CD9A82"/>
<path d="M484.029 154.941C475.214 157.923 457.335 182.799 453.242 200.55C448.485 221.178 439.857 234.276 437.088 240.357C431.582 252.442 445.977 299.033 453.242 301.662C475.144 309.584 482.305 275.046 482.538 270.996C484.895 270.6 485.435 268.922 487.073 266.328C489.621 262.286 491.019 256.663 491.019 256.663L484.033 154.941H484.029Z" fill="#F6BB5A"/>
<path d="M457.125 236.909C444.528 220.576 429.6 191.84 429.6 191.84C433.853 205.827 423.341 221.951 410.619 220.16C419.799 239.138 420.836 248.621 423.989 255.669C427.142 262.717 429.927 279.058 430.886 280.685C431.845 282.312 436.365 285.5 436.882 287.527C437.398 289.558 439.347 295.67 440 296.338C442.046 298.443 448.069 306.737 453.603 302.963C458.317 299.748 465.478 296.959 467.551 294.723C467.299 288.638 457.129 236.905 457.129 236.905L457.125 236.909Z" fill="#F6BB5A"/>
<path d="M469.856 263.389C468.905 261.455 467.806 260.485 466.396 258.939C464.214 256.551 464.058 254.268 463.534 251.149C462.765 246.567 461.029 242.812 457.857 239.379C456.199 237.585 454.137 236.253 452.541 234.397C449.869 231.29 448.879 227.077 447.554 223.275C447.162 222.145 445.353 222.631 445.753 223.772C447.372 228.428 448.584 233.201 452.183 236.762C456.055 240.591 459.996 243.589 461.313 249.258C462.198 253.072 461.507 257.145 464.563 259.906C469.895 264.717 469.576 270.391 469.992 277.101C470.066 278.297 471.937 278.305 471.864 277.101C471.58 272.523 471.937 267.607 469.864 263.385L469.856 263.389Z" fill="#E3903A"/>
<path d="M525.999 185.351H553.717C561.728 185.351 568.035 178.4 567.134 170.436C565.616 157.023 560.89 149.377 559.43 148.189L550.316 143.4C557.484 149.117 559.103 160.809 560.121 168.405C560.765 173.228 556.995 177.503 552.133 177.503H527.265C522.981 177.503 519.463 174.148 519.222 169.873C518.768 161.873 517.491 149.524 512.372 142.511L505.336 146.336C506.602 147.101 511.957 155.493 512.524 172.214C512.772 179.519 518.698 185.347 526.006 185.347L525.999 185.351Z" fill="#FCF7ED"/>
<path d="M410.615 220.164C417.197 233.775 418.351 242.897 421.702 249.071C433.491 256.096 451.269 233.185 445.86 220.355V220.347C437.045 206.173 429.597 191.84 429.597 191.84C433.845 205.827 423.337 221.951 410.615 220.16V220.164Z" fill="#FCF7ED"/>
<path d="M494.939 187.592C493.74 177.822 489.483 170.381 486.858 160.957C486.54 159.811 485.305 158.06 485.627 159.213C488.058 167.946 491.161 176.738 492.765 185.689C494.392 194.772 492.547 204.037 491.569 213.151C490.598 222.172 490.035 213.454 489.674 222.502C489.34 230.917 491.212 242.718 486.159 250.093C485.468 251.102 487.06 252.038 487.748 251.036C492.287 244.415 491.118 235.441 491.351 227.935C491.674 217.679 492.21 225.186 493.246 214.957C494.167 205.886 496.054 196.675 494.939 187.592Z" fill="#E3903A"/>
<path d="M562.08 232.483C548.384 234.118 536.831 239.919 525.05 246.874C524.001 247.492 524.898 249.111 525.951 248.49C537.398 241.733 549.157 234.957 562.476 233.368C563.661 233.229 563.28 232.339 562.084 232.483H562.08Z" fill="#E3903A"/>
<path d="M608.995 268.573C603.819 268.22 596.394 267.486 591.257 268.767C587.039 269.82 583.785 273.54 580.446 276.149C575.992 279.629 568.652 285.446 563.185 287.05C557.177 288.813 566.668 287.982 575.397 282.157C579.083 279.699 582.508 276.848 585.952 274.064C589.75 270.992 592.701 270.262 597.443 270.157C600.837 270.084 606.3 269.598 609.679 269.827C610.879 269.909 610.187 268.651 608.995 268.569V268.573Z" fill="#E3903A"/>
<path d="M585.705 199.909C582.901 188.559 582.377 177.74 585.114 166.284C585.394 165.111 584.773 164.284 584.489 165.465C582.043 175.689 580.924 186.19 582.982 196.469C585.285 207.979 589.572 219.376 585.782 231.286C584.12 236.505 580.544 240.668 578.299 245.603C576.385 249.805 575.62 254.43 576.043 258.962C576.253 261.191 576.882 263.202 577.464 265.342C578.633 269.645 577.437 272.363 576.505 276.475C576.171 277.943 576.031 279.318 576.16 280.63L577.942 279.147C578.124 275.384 580.489 271.268 580.023 267.598C579.402 262.725 577.344 258.671 577.965 253.502C579.134 243.774 587.157 236.699 588.698 226.937C590.162 217.675 587.895 208.744 585.708 199.905L585.705 199.909Z" fill="#E3903A"/>
<path d="M599.499 254.197C593.274 257.715 588.28 261.327 584.385 267.327C583.721 268.352 585.313 269.291 585.974 268.27C589.698 262.531 594.637 257.898 600.59 254.535C601.65 253.937 600.559 253.595 599.495 254.193L599.499 254.197Z" fill="#E3903A"/>
<path d="M591.054 179.981C588.914 184.602 586.934 189.289 585.117 194.042C584.686 195.168 586.495 195.654 586.918 194.539C588.681 189.934 589.808 185.309 591.881 180.835C592.382 179.752 591.559 178.886 591.054 179.981Z" fill="#E3903A"/>
<path d="M570.205 284.938L579.591 279.148C584.022 275.637 589.85 278.344 593.023 284.165C596.235 290.056 595.407 300.071 590.53 301.088C584.802 301.088 570.232 301.717 570.232 301.717L570.209 284.941L570.205 284.938Z" fill="#FCF7ED"/>
<path d="M570.205 284.938C565.246 286.029 562.135 287.302 559.627 287.656C557.118 288.013 544.649 286.961 537.741 286.235C530.833 285.508 528.538 286.635 513.964 289.59C507.444 294.121 502.062 294.894 500.955 296.494C499.844 298.094 499.141 301.997 503.502 301.884C507.863 301.768 577.719 301.713 577.719 301.713C586.72 301.713 578.309 283.155 570.209 284.938H570.205Z" fill="#F7B288"/>
<path d="M536.948 293.322C530.634 295.873 520.925 293.605 517.104 296.882C513.971 299.57 516.821 304.171 520.84 303.146C521.966 302.859 521.539 301.127 520.409 301.414C518.926 301.764 516.549 299.29 518.836 297.954C520.79 296.813 522.712 296.448 530.179 296.183C532.94 296.086 535.317 296.183 537.81 294.875C538.847 294.331 538.027 292.887 536.944 293.325L536.948 293.322Z" fill="#DC765D"/>
<path d="M532.276 288.72C527.36 289.508 521.123 289.508 516.506 291.473C513.17 292.89 510.332 294.405 505.408 297.437C503.641 298.525 504.138 301.297 505.78 302.688C508.565 305.041 512.576 301.767 509.244 301.767C505.264 302.055 505.932 298.843 507.753 297.783C512.297 295.694 513.252 295.302 515.325 294.141C520.312 291.352 527.162 291.341 532.707 290.455C533.849 290.273 533.414 288.541 532.276 288.723V288.72Z" fill="#DC765D"/>
<path d="M837.522 308.638C837.522 312.714 835.889 316.011 833.873 316.011H339.073C338.063 316.011 337.153 315.189 336.49 313.85C335.83 312.518 335.42 310.672 335.42 308.638C335.42 304.563 337.058 301.254 339.075 301.254H833.875C834.885 301.254 835.796 302.076 836.455 303.415C837 304.517 837.374 305.967 837.488 307.583C837.511 307.924 837.524 308.278 837.524 308.638H837.522Z" fill="#DCBFA3"/>
<path d="M832.087 316.011H340.855C340.855 319.873 342.38 323.001 344.262 323.001H828.68C830.562 323.001 832.087 319.873 832.087 316.011Z" fill="#BDA084"/>
<path d="M396.725 242.361C393.401 239.064 387.441 238.318 383.002 238.68C378.132 239.076 373.329 240.982 369.651 244.233C365.403 247.988 365.423 251.568 366.984 256.713C367.648 258.9 369.815 259.381 371.461 258.721C374.113 260.076 378.094 258.787 380.874 258.03C383.818 257.23 385.953 255.921 388.61 254.543C390.974 253.319 393.728 253.584 395.964 251.972C399.199 249.646 399.564 245.172 396.725 242.357V242.361Z" fill="#266E70"/>
<path d="M395.118 249.072C395.157 242.241 383.993 242.49 385.989 235.535C387.985 228.58 395.216 225.043 403.825 228.184C417.008 232.995 427.707 246.028 430.479 263.735C425.672 259.262 417.521 253.592 410.865 251.557C404.205 249.523 402.151 247.461 397.095 253.643L395.118 249.072Z" fill="#266E70"/>
<path d="M385.128 248.19C384.519 246.505 381.808 247.231 382.422 248.936C385.21 256.656 386.686 264.546 386.837 272.763C386.868 274.565 389.676 274.573 389.641 272.763C389.485 264.321 387.998 256.135 385.125 248.19H385.128Z" fill="#266E70"/>
<path d="M397.12 243.285C393.361 254.162 391.738 265.466 392.274 276.961C392.359 278.759 395.163 278.767 395.077 276.961C394.553 265.703 396.145 254.683 399.823 244.031C400.413 242.322 397.702 241.584 397.116 243.285H397.12Z" fill="#266E70"/>
<path d="M408.069 245.293C404.438 255.258 401.017 265.273 400.897 275.987C400.877 277.792 403.681 277.792 403.7 275.987C403.813 265.529 407.23 255.755 410.772 246.039C411.389 244.342 408.683 243.608 408.065 245.293H408.069Z" fill="#3A8585"/>
<path d="M401.057 235.146C397.365 247.386 395.753 259.994 396.25 272.766C396.32 274.564 399.124 274.576 399.054 272.766C398.564 260.235 400.141 247.898 403.76 235.891C404.284 234.159 401.578 233.417 401.054 235.146H401.057Z" fill="#3A8585"/>
<path d="M395.183 273.089C391.564 255.339 392.301 236.234 382.384 220.363C381.428 218.837 379.001 220.242 379.96 221.78C389.731 237.418 388.911 256.349 392.476 273.835C392.837 275.602 395.54 274.856 395.179 273.089H395.183Z" fill="#3A8585"/>
<path d="M388.529 275.835C386.424 265.715 381.108 256.842 373.163 250.225C371.784 249.079 369.792 251.052 371.179 252.209C378.786 258.547 383.807 266.884 385.822 276.581C386.191 278.348 388.894 277.598 388.529 275.835Z" fill="#3A8585"/>
<path d="M370.369 270.231H418.455V293.247C418.455 298.463 414.223 302.695 409.007 302.695H379.817C374.602 302.695 370.369 298.463 370.369 293.247V270.231Z" fill="#9ED2EC"/>
<path d="M384.975 302.696H409.012C414.231 302.696 418.46 298.467 418.46 293.248V281.917L384.975 302.696Z" fill="#749FC5"/>
<path d="M376.176 252.966C365.936 243.168 356.81 240.691 348.182 247.234C339.549 253.774 309.466 268.681 307 270.231C334.866 276.957 347.65 276.327 354.698 270.231C361.746 264.134 371.132 255.23 376.18 257.082C377.862 254.733 376.18 252.966 376.18 252.966H376.176Z" fill="#3A8585"/>
<path d="M387.042 229.892C386.153 220.732 389.143 201.498 376.922 198.539C364.702 195.58 326.728 191.386 323.271 189.662C336.836 207.171 335.108 208.158 351.138 216.048C367.168 223.939 381.085 229.244 384.972 232.37L387.042 229.892Z" fill="#3A8585"/>
<path d="M407.367 247.235C410.866 237.255 407.119 227.143 422.9 224.184C438.682 221.225 462.354 233.406 472.221 249.879C456.949 246.241 448.825 246.854 439.342 249.879C427.979 253.506 415.009 243.592 409.394 249.879L407.371 247.235H407.367Z" fill="#3A8585"/>
<path d="M400.248 237.958C400.209 231.337 389.725 219.994 395.212 209.14C400.703 198.29 417.719 199.312 426.348 195.102C434.98 190.893 443.609 186.206 443.609 186.206C440.894 202.973 437.197 204.006 430.538 211.012C423.878 218.017 405.762 231.189 402.862 239.029L400.244 237.958H400.248Z" fill="#3A8585"/>
<path d="M651.167 291.045C641.548 291.045 634.826 283.488 634.826 272.665C634.826 260.786 643.56 259.264 651.167 259.264C652.681 259.264 653.905 260.491 653.905 262.002V288.303C653.905 289.818 652.678 291.041 651.167 291.041V291.045ZM648.425 264.809C642.833 265.136 640.302 266.77 640.302 272.661C640.302 278.242 642.837 283.865 648.425 285.247V264.809Z" fill="#C85C6B"/>
<path d="M682.623 251.595H648.194C646.778 251.595 645.631 252.743 645.631 254.158V298.52C645.631 299.936 646.778 301.083 648.194 301.083H682.623C684.038 301.083 685.186 299.936 685.186 298.52V254.158C685.186 252.743 684.038 251.595 682.623 251.595Z" fill="#E2606E"/>
<path d="M645.631 298.52C645.631 299.929 646.784 301.083 648.194 301.083H682.627C684.036 301.083 685.189 299.929 685.189 298.52V278.338L645.635 297.957V298.52H645.631Z" fill="#C85C6B"/>
<path d="M671.635 301.083H745.638C747.008 301.083 748.119 299.972 748.119 298.602V294.753C748.119 293.383 747.008 292.272 745.638 292.272H671.635C670.264 292.272 669.153 293.383 669.153 294.753V298.602C669.153 299.972 670.264 301.083 671.635 301.083Z" fill="#3D303E"/>
<path d="M579.067 301.083H680.163C681.534 301.083 682.645 299.972 682.645 298.602V294.753C682.645 293.383 681.534 292.272 680.163 292.272H579.067C577.696 292.272 576.585 293.383 576.585 294.753V298.602C576.585 299.972 577.696 301.083 579.067 301.083Z" fill="#2E282F"/>
<path d="M731.025 169.421H791.087C792.582 169.421 793.448 170.027 796.162 171.433L746.799 289.429C746.212 290.924 736.116 292.132 734.621 292.132L686.262 293.744C682.352 291.561 680.744 290.924 681.327 289.429L727.262 172.124C727.848 170.629 729.53 169.421 731.025 169.421Z" fill="#695C70"/>
<path opacity="0.32" d="M567.707 28.1571C567.408 26.4096 566.472 24.8757 564.818 24.1457C563.816 23.7068 562.779 23.7263 561.715 23.8272C557.929 24.1923 556.236 25.7261 552.947 23.1632C551.021 21.6487 549.766 21.0973 547.382 22.0875C545.549 22.8525 545.716 23.3768 543.662 23.3418C541.887 23.3146 542.361 22.9108 540.913 22.7321C538.8 22.472 537.006 23.07 535.061 23.9088C533.282 24.6738 531.647 25.6679 529.919 26.5377C528.824 27.0892 525.702 28.9687 524.731 26.7513C524.552 26.3397 525.022 25.0233 525.049 24.4214C525.069 24.1495 525.077 23.8505 525.077 23.5632C520.681 26.0213 516.84 29.555 513.92 34.5217C512.033 37.7487 510.534 40.9174 509.33 44.0395C512.285 42.0474 514.456 38.6535 518.262 38.4593C521.741 38.2923 524.424 40.0204 527.519 37.5895C529.818 35.776 530.183 33.5509 533.232 32.8208C536.225 32.1024 536.532 34.1023 539.115 34.6071C540.629 34.8984 541.996 34.3625 543.227 33.5392C545.479 32.017 546.33 29.2288 548.873 32.4364C550.333 34.2693 550.714 35.9507 553.51 35.6517C556.325 35.3333 559.327 31.6209 561.428 33.9392C561.401 34.4984 561.653 35.0615 562.29 35.3216C562.756 36.0517 563.618 35.9779 564.189 35.5003C566.977 34.976 568.173 30.7511 567.715 28.1493L567.707 28.1571Z" fill="#D39489"/>
<path d="M525.998 74.694C525.648 73.5445 523.843 74.0338 524.196 75.191C524.728 76.9424 524.724 78.6044 523.94 80.2742C523.501 81.2062 522.883 82.0216 522.58 83.0196C522.099 84.6118 522.371 86.0369 523.027 87.532C523.509 88.6309 525.12 87.6795 524.643 86.5884C523.485 83.9555 525.275 82.4799 526.04 80.1499C526.654 78.2782 526.565 76.554 526.002 74.6901L525.998 74.694Z" fill="#DC765D"/>
<path d="M527.493 50.1513L532.059 48.167L530.184 64.0883L525.936 60.2361L527.493 50.1513Z" fill="#873D36"/>
<path d="M523.452 48.1631L529.657 49.5533L528.096 61.9409L521.588 62.135L523.452 48.1631Z" fill="#585C7A"/>
<path d="M526.149 51.4603L525.648 51.3827C522.379 50.8778 520.231 47.7052 520.934 44.4705C526.507 18.907 542.816 15.1908 558.621 17.6372C569.805 19.3653 573.925 21.1516 573.925 21.1516C573.925 21.1516 561.223 19.2371 558.295 19.0119C553.375 18.6352 539.76 17.6605 532.592 47.1111C531.885 50.0119 529.101 51.9108 526.149 51.4564V51.4603Z" fill="#FCEFE6"/>
<path d="M510.831 76.0639C511.717 67.9246 511.837 62.4764 516.788 60.3329L517.541 59.6727C518.427 58.8961 519.565 58.4728 520.741 58.4806L525.079 58.5116C531.816 59.2456 536.399 68.3013 535.222 78.724C534.038 89.2165 527.424 97.3636 520.974 96.2763C517.635 95.7132 514.567 94.1871 514.229 92.9988C507.624 86.6885 510.051 83.2285 510.831 76.0601V76.0639Z" fill="#585C7A"/>
<path d="M527.26 77.7537C528.137 69.7037 524.639 62.7177 519.443 62.1546C514.251 61.5916 509.327 67.6572 508.449 75.7072C507.572 83.7572 511.07 90.7431 516.266 91.3062C521.458 91.8693 526.382 85.8036 527.26 77.7537Z" fill="#E5F2F8"/>
<path d="M518.771 64.5039C518.907 64.5039 519.047 64.5117 519.186 64.5272C521.45 64.7719 522.86 66.9426 523.497 68.2163C524.751 70.721 525.26 74.1033 524.891 77.4973C524.204 83.8192 520.639 88.9606 516.942 88.9606C516.806 88.9606 516.666 88.9529 516.526 88.9373C514.263 88.6927 512.857 86.522 512.216 85.2482C510.962 82.7436 510.453 79.3612 510.822 75.9673C511.509 69.6453 515.074 64.5039 518.771 64.5039ZM518.771 62.1157C513.831 62.1157 509.288 68.0027 508.449 75.7071C507.572 83.7571 511.07 90.7431 516.266 91.3061C516.491 91.3294 516.717 91.3411 516.938 91.3411C521.878 91.3411 526.421 85.4541 527.26 77.7497C528.137 69.6997 524.639 62.7137 519.443 62.1507C519.218 62.1274 518.992 62.1157 518.771 62.1157Z" fill="#99B3BB"/>
</g>
<defs>
<linearGradient id="paint0_linear_2002_805" x1="232.905" y1="174.238" x2="455.415" y2="174.238" gradientUnits="userSpaceOnUse">
<stop stop-color="#E5F2F8" stop-opacity="0"/>
<stop offset="1" stop-color="#E5F2F8"/>
</linearGradient>
<clipPath id="clip0_2002_805">
<rect width="684" height="323" fill="white"/>
</clipPath>
</defs>
</svg>
