<svg width="63" height="88" fill="none" xmlns="http://www.w3.org/2000/svg"><path d="M50.336 0A2.467 2.467 0 0 1 52.8 2.464v83.072A2.467 2.467 0 0 1 50.336 88H2.464A2.467 2.467 0 0 1 0 85.536V2.464A2.467 2.467 0 0 1 2.464 0" fill="#6682C1"/><path d="M48.4 84.48h-44a1.76 1.76 0 0 1-1.76-1.76V5.28c0-.971.79-1.76 1.76-1.76h44c.972 0 1.76.789 1.76 1.76v77.44a1.76 1.76 0 0 1-1.76 1.76Z" fill="#DEE5F6"/><path d="M26.4 2.598a.88.88 0 1 0 0-1.76.88.88 0 0 0 0 1.76Z" fill="#fff"/><path d="M28.317 15.643c2.358.358 4.343 2.217 5.533 4.477.52 1 .922 2.119.894 3.28-.014.662-.169 1.317-.148 1.979.078 2.309 2.133 3.787 3.253 5.716.823 1.422 1.14 3.246.697 4.893-.444 1.647-1.704 3.055-3.218 3.4-.563.127-1.175.127-1.661.486-.535.401-.767 1.134-1.176 1.69-.816 1.112-2.224 1.38-3.499 1.57-2.421.359-5.153.62-7.004-1.084-.634-.585-1.127-1.373-1.866-1.782-1.394-.767-3.133.07-4.632-.387-1.458-.443-2.443-2.217-2.155-3.872.521-2.957 4.232-4.372 4.513-7.357.092-.985-.232-1.95-.408-2.914-.31-1.676-.141-3.548.795-4.942.592-.88 1.535-1.507 2.514-1.633 1.246-.162 1.408.288 2.196-.923 1.225-1.88 3.295-2.907 5.372-2.597Z" fill="#3D3D3D"/><path opacity=".4" d="M13.335 36.016c.521-2.956 4.232-4.371 4.513-7.356.092-.986-.232-1.95-.408-2.915-.24-1.295-.19-2.703.274-3.921.007.964.113 2.703.69 4.02.845 1.921.704 4.097 0 6.441-1.239 4.14 5.534 6.526 10.462 5.71 4.702-.782 8.701-1.88 7.927-8.392.38.479.753.971 1.056 1.492.823 1.422 1.14 3.246.697 4.893-.444 1.648-1.704 3.056-3.218 3.4-.563.127-1.175.127-1.661.486-.535.402-.767 1.134-1.176 1.69-.816 1.112-2.224 1.38-3.499 1.57-2.421.359-5.153.62-7.004-1.084-.634-.585-1.127-1.373-1.866-1.781-1.394-.768-3.133.07-4.632-.388-1.458-.436-2.443-2.21-2.155-3.865Z" fill="#202224"/><path d="M61.137 30.195c-.43.443-.936.823-1.436 1.196-.162.12-.338.247-.55.282-.217.035-.443-.035-.654-.098-.253-.085-.52-.177-.69-.367-.19-.21-.211-.506-.232-.781-.176-2.992 2.429-5.59 2.9-6.118 1-1.105 2.218-1.091 1.253 1.345-.183.457.29.936.423 1.408.317 1.147-.197 2.28-1.014 3.133Z" fill="#FFCAAD"/><path d="M57.321 28.582c.12-.704.402-1.387.901-1.893.5-.507 1.225-.81 1.93-.712.246.036.534.184.513.43-.014.204-.218.324-.387.43-.33.218-.598.527-.76.893-.204.458-.24.965-.31 1.465-.07.493-.197 1.006-.535 1.373-.268.288-1.098.64-1.338.147-.12-.246-.07-.704-.077-.971-.021-.387 0-.774.063-1.162ZM62.65 28.456c-.148.479-.564.838-1.029 1.02-.26.1-.549.155-.816.071-.401-.127-.669-.55-.69-.964-.021-.423.162-.831.422-1.162.205-.26.465-.486.782-.57.837-.218 1.556.866 1.33 1.605Z" fill="#FFCAAD"/><path d="M40.278 70.294c-5.097 3.914-9.97 6.935-13.024 8.709a125.49 125.49 0 0 1-12.278-8.146c.302-3.062.443-6.138.176-7.87-.535-3.457-.915-6.167-1.098-9.66-.282-5.364 1.02-10.573 3.512-15.332 8.026-3.38 15.362-1.612 16.96-1.056 4.273 1.478 10.933 3.04 15.023 1.119 3.928-1.844 5.463-4.393 6.984-8.335 1.675.514 2.576 2.02 2.745 2.907-.865 5.843-5.667 14.657-19.268 15.432-1.577 1.408-1.725 8.56-.838 14.77.26 1.788.655 4.583 1.106 7.462Z" fill="#F37E60"/><path opacity=".33" d="M40.278 70.294c-5.097 3.914-9.969 6.934-13.024 8.708a125.516 125.516 0 0 1-12.278-8.145c.303-3.062.444-6.139.176-7.87-.507-3.274-.873-5.886-1.07-9.117.824-1.915 1.795-3.344 2.943-3.929-.472 4.38 7.547 6.913 10.806 6.913 3.26 0 8.223-1.09 9.124-6.913.88-5.667 5.533-3.4 12.827-6.927 5.618-2.718 7.906-9.187 8.666-12.017.472.563.746 1.175.838 1.626-.866 5.843-5.667 14.657-19.269 15.431-1.577 1.408-1.724 8.561-.837 14.77.253 1.796.647 4.59 1.098 7.47Z" fill="#C2654D"/><path d="M34.02 57.861 21.292 73.117l-10.23-8.737 12.722-15.776L34.02 57.86Z" fill="#6683C2"/><path d="M26.971 64.451c.528-.014 1.063-.02 1.591-.035.296-.007.599-.014.887.07.282.085.557.275.662.55.106.281-.007.64-.281.753.239.662.352 1.5-.014 2.105-.367.605-1.12.922-1.817.845-.704-.07-1.337-.5-1.76-1.064-.415-.57-.633-1.267-.704-1.97l1.436-1.254ZM27.902 32.658l.479 4.45a.905.905 0 0 1-.62.957c-1.394.45-2.76.218-3.618-.605a.927.927 0 0 1-.275-.76l.648-5.457 3.386 1.415Z" fill="#FFCAAD"/><path d="M16.644 50.153c-1.21 2.816-.4 5.878 1.683 8.089 1.957 2.077 8.927 6.103 8.927 6.103l-1.57 2.274s-5.027-.894-7.449-2.09c-2.14-1.057-4.42-1.972-5.99-3.76-2.634-3.006-3.302-7.364-2.612-11.3.4-2.287 1.865-8.926 7.92-11.474 1.724 1.471 2.26 3.97 1.935 6.216-.316 2.246-1.95 3.858-2.844 5.942Z" fill="#F37E60"/><path opacity=".6" d="m24.426 32.004 3.323.591.148.064.387 3.618c-.71.17-1.9.19-3.267-.83a5.901 5.901 0 0 1-.908-.838l.317-2.605Z" fill="#FFCAAD"/><path d="M22.93 22.422c1.168-1.485 3.224-2.21 5.061-1.795 1.387.31 2.872 1.211 3.57 2.443.823 1.464-.205 3.407.133 5.048.092.464.19.943.17 1.415-.043.9-.423 1.612-1 2.309-.76.922-1.55 2.33-2.683 2.724-1.183.416-2.562-.324-3.618-.992-1.056-.67-1.866-1.676-2.542-2.725-.338.176-.612.141-.957-.028-.338-.169-.613-.458-.83-.767-.31-.43-.543-.93-.592-1.458-.05-.528.105-1.084.486-1.457.38-.373 1.119-.26 1.59-.028-.464-2.14.676-4.013 1.211-4.689Z" fill="#FFCAAD"/><path d="M29.176 26.372c0 .336.22.627.492.627.273 0 .492-.291.492-.627 0-.347-.22-.637-.492-.637s-.492.29-.492.637Zm1.643-1.679a.185.185 0 0 0 .113-.039.175.175 0 0 0 .05-.216.18.18 0 0 0-.085-.083 4.016 4.016 0 0 0-2.227-.313.182.182 0 0 0-.116.074.174.174 0 0 0 .047.247.183.183 0 0 0 .136.028c.01-.002 1.015-.177 2.003.285a.184.184 0 0 0 .079.017Zm-5.995 1.68c0 .335-.22.626-.492.626s-.492-.291-.492-.627c0-.347.22-.637.492-.637.273 0 .492.29.492.637Zm-1.642-1.68a.183.183 0 0 0 .079-.017c.987-.461 1.992-.287 2.002-.285a.185.185 0 0 0 .136-.028.174.174 0 0 0 .047-.247.182.182 0 0 0-.116-.074 4.021 4.021 0 0 0-2.226.313.18.18 0 0 0-.093.101.174.174 0 0 0 .074.21c.03.018.063.027.097.027ZM27 32c.798 0 1.596-.283 2.233-.849a.178.178 0 0 0 .059-.123.174.174 0 0 0-.047-.127.184.184 0 0 0-.257-.012 2.992 2.992 0 0 1-3.976 0 .183.183 0 0 0-.293.07.176.176 0 0 0 .049.192 3.352 3.352 0 0 0 2.232.85Z" fill="#000"/><path d="M27.009 27.2c.267.133.8.88.8 1.2 0 .32-.4.4-.8.4" stroke="#000" stroke-width=".3" stroke-linecap="round"/><path opacity=".33" d="M25.692 66.62s-5.027-.895-7.449-2.091c-2.14-1.056-4.42-1.971-5.99-3.76C9.618 57.763 8.95 53.406 9.64 49.47c.204-1.175.697-3.506 1.95-5.843-.795 5.048-1.45 14.91 4.957 18.036 4.808 2.345 8.032 3.45 9.771 4.056l-.627.9Z" fill="#C2654D"/><path opacity=".6" d="M19.874 27.73c-.225 2.26 2.788 2.408 2.788 2.408s2.105 2.633 4.478 3.083c1.33.254 2.956-.88 4.125-1.921-.12.183-.253.358-.394.534-.76.923-1.55 2.33-2.683 2.725-1.182.415-2.562-.324-3.618-.993-1.056-.668-1.866-1.675-2.542-2.724-.337.176-.612.14-.957-.028-.338-.17-.613-.458-.83-.768-.31-.43-.543-.929-.592-1.457-.035-.38.042-.781.225-1.12.007.085.007.163 0 .261Z" fill="#FFCAAD"/><path d="M4.399 84.769A2.028 2.028 0 0 1 2.37 82.74v-12.58H50.42v12.587c0 1.12-.908 2.028-2.027 2.028H4.399v-.007Z" fill="#fff"/><path d="M30.953 78.253a4.614 4.614 0 1 0-9.108-1.479 4.614 4.614 0 0 0 9.108 1.479Z" fill="#E07C7C"/><path d="M45.544 78.584a4.614 4.614 0 1 0-8.98-2.121 4.614 4.614 0 0 0 8.98 2.12ZM12.806 81.994a4.614 4.614 0 1 0-2.12-8.98 4.614 4.614 0 0 0 2.12 8.98Z" fill="#6783C2"/><path d="M26.398 76.37c1.394 0 2.422.612 2.422 1.802h-.935M26.398 76.37c-1.393 0-2.421.612-2.421 1.802h.934M41.458 78.69h-.782a.834.834 0 0 1-.832-.832v-1.615c0-.459.374-.832.832-.832h.782c.459 0 .833.373.833.832v1.615a.834.834 0 0 1-.833.832ZM41.059 78.69v1.165M40.098 79.855h1.928M12.654 76.014h-1.827a.91.91 0 0 0-.909.91v2.642l1.563-.79h1.173a.91.91 0 0 0 .91-.91v-.943a.91.91 0 0 0-.91-.909Z" stroke="#fff" stroke-miterlimit="10" stroke-linecap="round" stroke-linejoin="round"/><path d="M6.857 8.906a1.232 1.232 0 1 0 0-2.464 1.232 1.232 0 0 0 0 2.464Z" fill="#E07C7C"/></svg>