<svg width="74" height="66" fill="none" xmlns="http://www.w3.org/2000/svg"><path d="M47.98 50.893H25.427v12.63H47.98v-12.63Z" fill="#6683C2"/><path opacity=".5" d="M47.98 50.893H25.427v12.63H47.98v-12.63Z" fill="#6683C2"/><g opacity=".7"><path d="M47.98 51.18H25.427v3.978H47.98V51.18Z" fill="#153F59"/><path opacity=".5" d="M47.98 51.18H25.427v3.978H47.98V51.18Z" fill="#6683C2"/></g><path d="M70.536 53.64H2.83A2.835 2.835 0 0 1 0 50.81V2.83A2.835 2.835 0 0 1 2.83 0h67.706a2.835 2.835 0 0 1 2.83 2.83v47.94c0 1.599-1.272 2.87-2.83 2.87Z" fill="#92ADE8"/><path d="M70.508 47.687V2.864H2.884v44.823h67.624Z" fill="#F5F8FF"/><path d="M43.347 52.04H30.06a1.146 1.146 0 0 1-1.148-1.147c0-.657.533-1.149 1.148-1.149h13.287c.657 0 1.149.534 1.149 1.149s-.534 1.148-1.149 1.148Z" fill="#6683C2"/><path d="M70.495 2.871H2.871v1.681h67.624v-1.68Z" fill="#7595C7"/><path d="M55.69 65.861H17.714a4.63 4.63 0 0 1 4.634-4.634h28.706c2.543-.041 4.634 2.05 4.634 4.634Z" fill="#92ADE8"/><path d="M45.166 25.3c1.333.77 1.333 2.695 0 3.465L34.209 35.09c-1.333.77-3-.192-3-1.732V20.707c0-1.54 1.667-2.502 3-1.732L45.166 25.3Z" fill="#F37E60"/></svg>