<svg width="58" height="82" fill="none" xmlns="http://www.w3.org/2000/svg"><path d="M57.192 79.876c0 1.17-.953 2.124-2.123 2.124H2.534C.784 82 0 79.78 0 78.61l.953-64.565c0-1.17.953-2.124 2.124-2.124l51.268-.929c1.17 0 2.871.869 2.871 2.232v66.652h-.024Z" fill="#6683C2"/><path d="M56.444 78.947c0 1.17-.953 2.123-2.123 2.123H2.317a2.127 2.127 0 0 1-2.124-2.123V13.104c0-1.17.954-2.124 2.124-2.124h52.016c1.17 0 2.123.953 2.123 2.124v65.843h-.012Z" fill="#819DDB"/><path d="M53.537 75.315a1.859 1.859 0 0 1-1.858 1.858l-46.176-.108a1.859 1.859 0 0 1-1.858-1.858l.53-57.675c0-1.026.833-1.858 1.859-1.858l45.645-.399c1.025 0 1.858.833 1.858 1.859v58.181Z" fill="#EEEFEF"/><path d="M53.006 74.917a1.859 1.859 0 0 1-1.858 1.858H5.503a1.859 1.859 0 0 1-1.858-1.858V17.133c0-1.025.832-1.858 1.858-1.858h45.645c1.025 0 1.858.833 1.858 1.859v57.783Z" fill="#F5F8FF"/><path opacity=".1" d="M13.49 10.992v7.927c0 1.17.99 2.124 2.22 2.124h25.218c1.23 0 2.22-.953 2.22-2.123v-7.928H13.49Z" fill="#6683C2"/><path d="M40.396 7.541h-1.822V6.347c0-.845-.688-1.533-1.532-1.533H34.76V1.532C34.761.688 34.073 0 33.229 0h-9.725c-.845 0-1.533.688-1.533 1.532v3.294h-2.28c-.845 0-1.533.688-1.533 1.533v1.194h-1.822c-1.17 0-2.123.953-2.123 2.124v8.301c0 1.17.953 2.124 2.124 2.124h24.047c1.17 0 2.123-.954 2.123-2.124V9.665a2.109 2.109 0 0 0-2.111-2.124Zm-7.3-.591a.796.796 0 0 1-.796.796h-7.735a.796.796 0 0 1-.796-.796V2.329c0-.447.362-.797.796-.797H32.3c.446 0 .796.362.796.797v4.62Z" fill="#6683C2"/><path d="M11.15 18.159a1.375 1.375 0 1 1-2.75 0 1.375 1.375 0 0 1 2.75 0ZM49.144 18.159a1.375 1.375 0 1 1-2.75 0 1.375 1.375 0 0 1 2.75 0Z" fill="#819DDB"/><path d="M47.77 34.834a.726.726 0 0 1-.724.724h-6.709a.726.726 0 0 1-.724-.724v-6.708c0-.398.326-.724.724-.724h6.709c.398 0 .724.326.724.724v6.708ZM47.77 47.033a.726.726 0 0 1-.724.724h-6.709a.726.726 0 0 1-.724-.724v-6.709c0-.398.326-.724.724-.724h6.709c.398 0 .724.326.724.724v6.709ZM47.77 59.22a.726.726 0 0 1-.724.724h-6.709a.726.726 0 0 1-.724-.724V52.51c0-.398.326-.724.724-.724h6.709c.398 0 .724.326.724.724v6.709ZM47.77 71.406a.726.726 0 0 1-.724.724h-6.709a.726.726 0 0 1-.724-.724v-6.709c0-.398.326-.724.724-.724h6.709c.398 0 .724.326.724.724v6.709ZM34.329 28.741H11.123a1 1 0 0 0-1 1v4.214a1 1 0 0 0 1 1h23.206a1 1 0 0 0 1-1v-4.214a1 1 0 0 0-1-1ZM34.329 40.698H11.123a1 1 0 0 0-1 1v4.214a1 1 0 0 0 1 1h23.206a1 1 0 0 0 1-1v-4.214a1 1 0 0 0-1-1ZM34.329 52.644H11.123a1 1 0 0 0-1 1v4.214a1 1 0 0 0 1 1h23.206a1 1 0 0 0 1-1v-4.214a1 1 0 0 0-1-1ZM34.329 64.588H11.123a1 1 0 0 0-1 1v4.214a1 1 0 0 0 1 1h23.206a1 1 0 0 0 1-1v-4.214a1 1 0 0 0-1-1Z" fill="#D9E2F6"/><path d="M42.545 35.245c-.29 0-.567-.109-.773-.314l-1.99-2.015a1.085 1.085 0 0 1 0-1.532 1.085 1.085 0 0 1 1.532 0l1.182 1.206 3.475-3.813a1.086 1.086 0 0 1 1.605 1.46l-4.247 4.646c-.205.217-.483.35-.772.35.012.012 0 .012-.012.012Z" fill="#F37E60"/></svg>