<svg width="317" height="240" viewBox="0 0 317 240" fill="none" xmlns="http://www.w3.org/2000/svg">
<path d="M75.6396 0.659607L91.1626 0.706371C90.8749 24.0607 91.1182 47.4456 91.1134 70.8027C91.1119 79.3807 91.3619 88.0169 91.1309 96.5874C86.0131 96.5826 80.883 96.646 75.7668 96.5121C75.7141 91.8809 75.6959 87.249 75.7121 82.6174C75.7094 80.5029 75.9293 78.1186 75.5996 76.0457C76.2626 74.5752 75.7478 69.2327 75.6028 67.4352C76.1877 65.5118 75.7997 59.3352 75.8025 56.9936L75.8338 34.494C75.9947 29.0846 75.7308 23.6454 75.6444 18.236L75.6396 0.659607Z" fill="#89A2D8"/>
<path d="M107.132 0.626221C101.818 0.676943 96.4781 0.83228 91.1661 0.706664C90.8784 24.061 91.1217 47.4459 91.117 70.803C91.1154 79.381 91.3654 88.0172 91.1344 96.5877L93.3646 96.8789C94.8946 96.6665 96.5181 96.7672 98.0639 96.7747C98.5414 95.3398 99.0839 94.0258 100.181 92.9432C101.903 91.2448 104.028 90.9464 106.329 90.9056C106.356 89.7168 106.248 88.1262 106.926 87.1268C107.007 84.8784 107.124 82.624 107.124 80.374C106.399 78.0242 106.995 61.8862 107.011 58.3927L107.132 0.626221Z" fill="#F37E60"/>
<path d="M213.184 9.8321C216.736 6.77926 220.941 5.26513 225.664 5.62335C229.926 5.94631 233.725 7.96608 236.475 11.2293C238.747 13.9259 239.63 17.0101 240.005 20.454C240.035 22.0434 239.998 23.5136 239.636 25.0673C238.949 28.0207 236.757 31.3097 238.886 34.1343L239.332 34.2976C239.88 34 240.065 33.5498 240.235 32.9796C241.547 28.5648 242.67 26.6469 246.458 24.1048C249.114 22.8522 251.798 22.0351 254.711 23.0721C257.258 23.9784 259.34 26.1484 260.411 28.5981C261.852 31.8946 261.825 36.122 260.475 39.4467C260.161 40.2194 259.801 40.9767 259.447 41.7315C257.617 44.3826 255.828 47.3704 253.237 49.3513C255.135 51.5558 256.3 53.8862 256.117 56.8796C255.935 59.8671 254.56 62.251 252.584 64.4206C252.037 65.0213 251.281 65.6597 250.916 66.3682C248.028 66.9792 240.213 66.6167 236.95 66.4986C237.703 65.0332 238.518 63.5979 239.019 62.0231C238.104 63.4992 237.252 64.9068 236.618 66.5303C234.216 66.2957 231.66 66.4376 229.244 66.4265L214.76 66.3619C212.743 63.334 209.723 60.763 208.935 57.0639C207.798 51.7321 212.802 49.0308 212.685 44.3897C212.612 41.5223 210.428 39.2644 209.149 36.8507C207.393 33.5375 206.052 29.6664 206.017 25.886C205.96 19.5993 208.851 14.2144 213.184 9.8321ZM224.768 18.2294C222.289 21.4788 221.572 25.567 222.094 29.5677C222.26 30.8441 222.728 32.94 223.719 33.7931C222.061 29.0276 221.637 25.065 223.876 20.4025C224.189 19.751 224.544 19.1214 224.904 18.4949L224.768 18.2294ZM248.835 31.6493C249.708 36.5615 249.587 41.1688 247.551 45.8028C247.108 46.8129 244.374 51.5217 244.474 52.1708C244.489 52.2675 244.6 52.3202 244.662 52.3951C248.056 46.4154 251.098 39.6301 249.385 32.6107C249.275 32.1621 249.199 31.956 248.835 31.6493ZM227.628 41.1169C230.165 47.0181 229.957 51.9088 227.6 57.8671C227.29 58.6517 226.443 60.0034 226.579 60.8034L226.628 60.8625C229.096 55.7542 231.111 49.4861 229.206 43.852C228.897 42.9382 228.459 41.6471 227.628 41.1169Z" fill="#B2CBF3"/>
<path d="M118.535 17.6415C123.918 16.1792 129.302 14.7559 134.788 13.7299C136.88 23.8656 139.426 33.9958 141.095 44.2068C135.244 45.478 130.389 47.5089 125.473 50.931C124.794 45.5434 123.366 40.0896 122.249 34.7697C121.057 29.094 120.084 23.2253 118.535 17.6415Z" fill="#F37E60"/>
<path d="M223.721 33.7939C222.73 32.9407 222.262 30.8448 222.096 29.5685C221.574 25.5678 222.291 21.4795 224.77 18.2301L224.906 18.4956C224.546 19.1221 224.191 19.7518 223.878 20.4032C221.64 25.0657 222.063 29.0284 223.721 33.7939Z" fill="#89A2D8"/>
<path d="M244.658 52.3949C244.595 52.32 244.484 52.2673 244.469 52.1706C244.37 51.5215 247.103 46.8127 247.547 45.8026C249.583 41.1687 249.704 36.5613 248.831 31.6492C249.194 31.9559 249.271 32.1619 249.381 32.6105C251.093 39.63 248.051 46.4152 244.658 52.3949Z" fill="#89A2D8"/>
<path d="M226.631 60.8588L226.581 60.7998C226.445 59.9997 227.293 58.6481 227.603 57.8635C229.96 51.9052 230.167 47.0145 227.63 41.1133C228.462 41.6435 228.9 42.9345 229.209 43.8483C231.113 49.4824 229.099 55.7506 226.631 60.8588Z" fill="#89A2D8"/>
<path d="M125.472 50.9322C130.388 47.51 135.243 45.4792 141.094 44.2079C148.713 42.8983 156.086 43.2486 163.318 46.2265C165.308 47.046 167.216 48.3489 169.232 49.0349C170.296 49.3971 171.567 49.5025 172.679 49.7061C175.326 50.19 177.505 51.3435 179.693 52.8814C187.389 58.2909 191.86 66.6128 193.403 75.7539C194.194 80.4421 194.159 85.4755 193.817 90.2137C193.567 91.4302 191.509 91.6755 190.578 92.4094C189.235 93.4686 188.182 95.0299 187.148 96.3816C182.817 91.4338 178.415 86.7309 174.982 81.0718C173.746 79.0338 172.719 76.8345 171.642 74.7086C171.337 75.0787 171.021 75.4397 170.694 75.7916C166.439 80.3288 160.736 82.8479 154.504 83.0187C152.984 83.0603 149.982 82.9996 148.906 81.8342C148.68 81.5893 148.755 81.642 148.797 81.2814C152.238 79.1788 156.056 78.1858 159.397 75.7476C151.366 77.0481 143.626 78.1775 135.966 81.0667C129.457 83.5215 117.988 89.7267 114.996 96.3372C111.86 93.9655 111.07 92.17 106.975 90.881C106.995 89.6316 106.947 88.3746 106.923 87.1248C107.004 84.8764 107.121 82.622 107.121 80.372C107.302 79.375 107.455 78.3736 107.663 77.3818C109.862 66.9445 116.44 56.7185 125.472 50.9322Z" fill="#74534C"/>
<path d="M236.616 66.5262C237.251 64.9027 238.102 63.4952 239.017 62.0191C238.516 63.5939 237.701 65.0291 236.948 66.4945L236.616 66.5262Z" fill="#89A2D8"/>
<path d="M211.723 66.4026L214.759 66.3598L229.243 66.4244C231.66 66.4355 234.215 66.2936 236.617 66.5282L236.949 66.4965C240.213 66.6146 248.027 66.9772 250.915 66.3661C251.041 67.7511 250.962 70.131 250.125 71.2964C249.943 71.5501 249.706 71.5798 249.403 71.6087C249.241 71.6246 248.974 71.6051 248.804 71.596C245.395 71.2846 215.069 71.2596 213.553 71.7609L212.565 71.4387C211.645 70.3117 211.889 67.8648 211.723 66.4026Z" fill="#FFBEAD"/>
<path d="M213.551 71.7577C215.066 71.2565 245.393 71.2814 248.802 71.5929L248.801 72.1306L225.548 72.0252C221.66 72.028 217.418 72.3767 213.568 71.9539L213.551 71.7577Z" fill="#AA8530"/>
<path d="M213.569 71.9544C217.419 72.3772 221.661 72.0285 225.549 72.0257L248.802 72.1311C247.913 80.1892 246.02 89.4511 243.924 97.3031L243.822 97.9249C235.104 97.6816 226.362 98.0327 217.641 97.907L217.71 97.3336C218.379 95.7838 213.25 75.9757 213.569 71.9544Z" fill="#FFBEAD"/>
<path d="M106.327 90.9022C106.354 89.7134 106.245 88.1228 106.924 87.1235C106.948 88.3733 106.996 89.6302 106.976 90.8797C111.071 92.1687 111.861 93.9642 114.997 96.3358C117.989 89.7253 129.458 83.5202 135.966 81.0653C143.627 78.1762 151.367 77.0468 159.398 75.7463C156.056 78.1845 152.239 79.1775 148.798 81.2801C148.756 81.6407 148.681 81.588 148.907 81.8329C149.982 82.9983 152.985 83.059 154.505 83.0173C160.737 82.8466 166.44 80.3275 170.695 75.7902C171.021 75.4384 171.338 75.0774 171.643 74.7072C172.72 76.8332 173.747 79.0325 174.983 81.0705C178.416 86.7296 182.818 91.4325 187.149 96.3802C188.183 95.0286 189.236 93.4673 190.579 92.4081C191.51 91.6742 193.568 91.4289 193.818 90.2123L193.997 90.6669C196.721 91.1222 199.115 90.7525 200.987 93.3104C201.945 94.6176 202.107 96.0109 202.818 97.3812L202.92 97.783C205.422 98.5538 214.157 97.6832 217.499 97.9645C214.422 98.5581 206.314 98.1151 202.81 98.0897C202.75 104.184 202.526 107.974 197.972 112.483C194.832 115.594 191.288 117.527 186.798 117.52C183.846 126.007 178.035 133.604 169.844 137.569L169.144 137.904C169.151 139.84 169.072 141.817 169.181 143.747C169.107 144.735 169 145.721 168.859 146.702C168.676 147.173 168.484 147.64 168.282 148.102C166.204 152.823 162.436 156.277 157.622 158.126C152.586 160.06 147.424 159.93 142.513 157.702C137.01 155.206 133.821 151.143 131.76 145.58L131.791 143.484C131.939 141.561 131.878 139.593 131.897 137.662C130.186 136.371 128.233 135.334 126.48 134.079C120.012 129.445 116.146 124.105 113.042 116.883C113.006 116.83 112.978 116.768 112.932 116.721C112.561 116.353 111.951 116.478 111.467 116.471L111.41 116.278C111.279 116.262 111.147 116.247 111.015 116.229C107.289 115.717 103.307 112.938 101.088 109.971C98.0937 105.965 97.5481 101.771 98.2269 96.931C96.605 96.9532 94.983 96.9346 93.3623 96.8756C94.8923 96.6632 96.5158 96.7638 98.0616 96.7713C98.5391 95.3365 99.0816 94.0224 100.179 92.9398C101.901 91.2414 104.026 90.9431 106.327 90.9022ZM168.517 105.654L168.62 105.406C168.05 104.476 167.262 103.756 166.166 103.527C165.002 103.283 163.69 103.659 162.72 104.315C161.672 105.013 160.956 106.111 160.74 107.352C160.545 108.535 160.845 109.879 161.58 110.835C162.306 111.772 163.398 112.353 164.58 112.431C165.791 112.52 167.082 112.104 167.976 111.274C168.739 110.566 169.223 109.473 169.283 108.437C169.287 108.362 169.28 108.288 169.279 108.213C169.245 107.156 169.016 106.571 168.517 105.654ZM139.41 106.08C138.605 104.863 137.991 103.918 136.471 103.57C135.408 103.328 134.293 103.524 133.377 104.113C132.327 104.774 131.635 105.833 131.396 107.045C131.179 108.142 131.317 109.205 131.818 110.207C132.604 111.312 133.454 112.22 134.854 112.442C136.037 112.629 137.204 112.269 138.146 111.547C139.114 110.804 139.822 109.71 139.937 108.479C140.014 107.658 139.887 106.768 139.41 106.08ZM134.204 96.9885C132.753 97.1153 130.153 97.3812 129.264 98.6655C128.963 99.099 129.052 99.3823 129.13 99.8571C129.448 100.299 129.642 100.423 130.148 100.619C132.045 100.503 133.161 99.3831 135.388 99.4477C136.563 99.7972 138.793 100.721 139.995 100.087C140.243 99.9561 140.284 99.8987 140.472 99.7255C140.527 99.2746 140.465 99.0511 140.163 98.6921C139.026 97.3364 136.675 96.9727 135.01 96.9667C134.741 96.9667 134.473 96.9742 134.204 96.9885ZM164.458 97.1704C163.066 97.3808 160.648 97.7331 159.855 99.0435C159.597 99.4679 159.676 99.7251 159.77 100.169C160.382 100.654 160.852 100.692 161.62 100.604C163.171 100.427 164.439 99.8361 166.047 99.8797L166.402 99.8864C167.65 100.201 169.589 101.138 170.779 100.471C171.129 100.275 171.108 100.137 171.233 99.8028C171.043 99.0336 170.624 98.5704 169.962 98.1535C168.349 97.1379 166.306 97.1074 164.458 97.1704ZM102.826 98.0422L102.448 98.7087C102.602 99.2528 102.789 99.2944 103.273 99.5611C104.279 100.116 105.451 100.639 106.25 101.49C108.241 103.61 108.986 109.023 110.647 110.383C110.991 109.905 111.096 109.824 111.035 109.209C110.775 106.609 107.923 100.779 105.626 99.3507C104.745 98.8026 103.794 98.4075 102.826 98.0422ZM196.887 98.0794C194.296 99.2857 192.405 100.816 191.409 103.597C190.78 105.355 190.436 107.22 189.537 108.867C189.223 109.443 188.738 109.862 188.964 110.494C189.337 110.659 189.427 110.773 189.839 110.697C191.639 107.685 191.853 103.471 194.42 101.054C194.897 100.605 197.857 98.9912 197.963 98.7955C198.019 98.6924 197.995 98.5629 198.011 98.4468C197.539 98.0632 197.502 98.0897 196.887 98.0794ZM148.311 112.825C146.927 113.017 145.916 113.379 145.009 114.497C144.444 115.193 144.156 116.09 144.271 116.985C144.403 118.018 145.066 118.919 145.906 119.504C147.642 120.711 149.743 120.489 151.729 120.315L152.08 120.085L152.102 119.698L151.783 119.362C150.147 119.429 147.625 119.84 146.302 118.694C145.633 118.115 145.34 116.972 145.297 116.122C145.27 115.603 145.413 115.081 145.808 114.722C147.077 113.57 148.991 114.32 150.354 113.605L150.354 113.284C149.635 112.906 149.117 112.856 148.311 112.825ZM126.748 113.629C124.704 113.831 122.603 114.36 121.262 116.051C120.492 117.017 120.146 118.254 120.301 119.479C120.49 121.062 121.469 122.433 122.726 123.367C124.434 124.635 126.237 124.919 128.305 124.885C130.334 124.532 132.177 123.876 133.382 122.082C134.158 120.931 134.439 119.517 134.162 118.157C133.9 116.768 133.079 115.548 131.892 114.781C130.328 113.769 128.546 113.683 126.748 113.629ZM171.188 114.023C168.813 114.237 166.487 114.619 164.857 116.56C164.076 117.491 163.725 118.644 163.881 119.851C164.063 121.26 164.899 122.505 166.02 123.35C167.329 124.337 168.793 124.731 170.4 124.868C172.595 124.852 174.643 124.41 176.267 122.812C177.271 121.825 177.901 120.506 177.91 119.088C177.928 117.823 177.414 116.608 176.493 115.741C175.033 114.363 173.097 114.136 171.188 114.023ZM142.716 126.144C142.764 127.144 143.466 128.13 144.197 128.818C145.805 130.331 148.441 130.922 150.59 130.813C152.709 130.704 154.935 129.834 156.38 128.242C156.691 127.899 156.97 127.523 157.245 127.151L157.198 126.536L156.892 126.41C156.482 126.718 156.185 127.038 155.844 127.422C154.474 128.963 152.916 129.787 150.841 129.901C148.555 130.027 146.351 129.367 144.66 127.789C144 127.173 143.604 126.354 142.716 126.144Z" fill="#E9B49C"/>
<path d="M28.8385 96.0761L74.9017 95.6019C77.9853 95.6019 79.0929 95.7268 78.2259 96.5519C81.2169 97.1415 16.3856 96.8194 19.4131 97.0806C14.7807 97.2708 7.45693 95.7994 4.08114 99.5909C1.04732 102.998 1.85293 108.73 1.8779 112.986C1.88424 114.039 1.99043 115.318 1.74713 116.349L1.73246 117.113C1.90682 122.491 1.7919 127.908 1.79745 133.291C1.80141 137.02 1.99797 140.856 1.76734 144.567C1.54147 147.62 1.32114 155.795 1.89929 158.58C1.56802 160.493 1.79547 162.742 1.8026 164.704L1.82757 176.737L1.73405 198.504C1.71979 202.365 1.52918 206.359 1.79745 210.209L1.931 211.5L1.92029 226.88L1.92069 237.803L0.965689 237.824C0.664131 223.171 0.936367 208.459 1.04613 193.802L1.08774 152.66L1.09567 120.257C1.09329 114.868 0.736649 109.241 1.18364 103.885C1.30727 102.273 1.90484 100.733 2.90145 99.4597C4.09976 97.9175 5.82709 96.88 7.7145 96.4172C9.59399 95.9567 11.615 96.0903 13.5349 96.0943L22.9723 96.1256C24.8518 96.1315 24.5646 96.0761 26.4641 96.0761C27.3295 96.0761 28.0885 96.0761 28.8385 96.0761Z" fill="url(#paint0_linear_2006_9272)"/>
<path d="M135.39 99.4482C133.164 99.3836 132.048 100.503 130.15 100.62C129.645 100.423 129.45 100.299 129.132 99.8575C129.054 99.3828 128.965 99.0994 129.266 98.6659C130.156 97.3816 132.755 97.1157 134.206 96.9889C134.475 96.9747 134.744 96.9671 135.013 96.9671C136.677 96.9731 139.028 97.3369 140.166 98.6925C140.467 99.0515 140.529 99.275 140.474 99.7259C140.287 99.8991 140.245 99.9566 139.997 100.087C138.796 100.722 136.566 99.7977 135.39 99.4482Z" fill="#904A39"/>
<path d="M166.404 99.8884L166.049 99.8816C164.441 99.8381 163.173 100.428 161.622 100.606C160.854 100.694 160.384 100.656 159.772 100.171C159.678 99.7271 159.599 99.4699 159.857 99.0455C160.65 97.7351 163.068 97.3828 164.46 97.1724C166.308 97.1094 168.351 97.1399 169.964 98.1555C170.626 98.5724 171.045 99.0356 171.235 99.8048C171.11 100.139 171.131 100.277 170.781 100.473C169.591 101.14 167.652 100.203 166.404 99.8884Z" fill="#904A39"/>
<path d="M243.925 97.3059C248.113 97.2159 254.258 96.1539 257.486 99.2729C258.499 100.252 259.41 101.522 259.851 102.871C260.719 105.525 260.276 115.275 260.272 118.507C260.262 126.513 259.945 134.638 260.282 142.632L259.484 143.08L259.45 117.366C251.273 117.141 243.046 117.306 234.863 117.302L199.407 117.307C199.163 117.564 198.949 117.753 198.797 118.077C198.76 117.555 198.538 117.16 198.541 116.635C199.281 116.194 253.813 116.519 259.436 116.528C259.461 115.336 259.452 114.142 259.456 112.95C259.469 109.244 260.285 103.024 257.354 100.229C254.126 97.1505 247.961 97.9363 243.823 97.9276L243.925 97.3059Z" fill="#D4987C"/>
<path d="M202.818 97.3845C207.766 97.224 212.76 97.2791 217.711 97.3369L217.642 97.9103L217.5 97.9678C214.157 97.6864 205.423 98.557 202.921 97.7863L202.818 97.3845Z" fill="#F37E60"/>
<path d="M110.647 110.388C108.986 109.027 108.241 103.615 106.25 101.495C105.451 100.643 104.279 100.121 103.272 99.5657C102.789 99.299 102.602 99.2574 102.448 98.7133L102.826 98.0468C103.794 98.4121 104.745 98.8072 105.626 99.3553C107.923 100.783 110.775 106.614 111.035 109.214C111.096 109.828 110.991 109.909 110.647 110.388Z" fill="#E99E87"/>
<path d="M189.842 110.698C189.43 110.774 189.34 110.66 188.967 110.495C188.741 109.863 189.226 109.443 189.54 108.868C190.439 107.22 190.783 105.356 191.412 103.598C192.408 100.816 194.299 99.2864 196.89 98.0801C197.505 98.0904 197.542 98.0639 198.014 98.4475C197.998 98.5636 198.022 98.6932 197.966 98.7962C197.86 98.992 194.9 100.606 194.423 101.055C191.856 103.472 191.642 107.685 189.842 110.698Z" fill="#E99E87"/>
<path d="M139.41 106.082C138.834 105.711 138.512 105.565 137.834 105.469C137.383 105.642 137.184 105.674 136.994 106.163C136.954 106.267 136.942 106.379 136.917 106.488C137.432 106.897 137.576 107.047 138.241 107.162C138.879 106.932 139.089 106.664 139.41 106.082C139.887 106.77 140.014 107.661 139.937 108.482C139.822 109.712 139.114 110.806 138.146 111.549C137.204 112.271 136.037 112.631 134.854 112.444C133.454 112.222 132.604 111.314 131.818 110.209C131.318 109.207 131.179 108.144 131.396 107.047C131.635 105.835 132.327 104.777 133.378 104.115C134.294 103.526 135.408 103.33 136.471 103.572C137.992 103.92 138.606 104.865 139.41 106.082Z" fill="#533B39"/>
<path d="M168.516 105.655C167.955 105.988 167.77 106.041 167.467 106.637C167.54 107.197 167.608 107.501 168.108 107.854C168.5 108.13 168.793 108.206 169.277 108.213C169.279 108.288 169.286 108.362 169.282 108.437C169.221 109.473 168.737 110.566 167.974 111.274C167.081 112.105 165.789 112.52 164.579 112.431C163.397 112.353 162.304 111.773 161.579 110.835C160.844 109.88 160.544 108.535 160.739 107.352C160.955 106.111 161.671 105.013 162.719 104.315C163.688 103.659 165 103.283 166.165 103.527C167.26 103.757 168.048 104.477 168.619 105.407L168.516 105.655ZM161.821 107.163C161.436 107.36 161.277 107.827 161.46 108.218C161.644 108.61 162.105 108.786 162.503 108.616C162.773 108.501 162.958 108.247 162.987 107.955C163.015 107.662 162.882 107.378 162.639 107.213C162.396 107.048 162.082 107.029 161.821 107.163Z" fill="#533B39"/>
<path d="M294.85 111.498C296.533 110.651 298.315 109.989 300.227 109.983C302.941 109.974 305.117 111.344 306.976 113.179C308.05 115.195 308.674 116.938 308.633 119.27C307.959 122.149 306.729 124.146 304.437 126.062C304.542 132.212 303.456 137.841 299.03 142.407C298.09 143.377 296.991 144.195 295.893 144.977C302.443 149.673 308.266 155.864 309.586 164.165C309.865 165.919 309.848 168.025 308.726 169.507C308.236 170.157 307.553 170.609 306.734 170.704C304.971 170.91 303.197 169.656 301.925 168.56C300.657 167.469 299.584 166.218 298.571 164.892C298.983 170.959 298.548 176.399 297.018 182.312C294.788 182.41 292.574 182.383 290.344 182.34C292.191 180.815 293.282 179 294.131 176.779C295.602 172.928 295.045 170.11 293.427 166.443C292.954 161.714 291.489 151.19 287.71 148.176C286.425 147.152 278.621 145.842 276.837 146.1C274.025 146.507 271.866 148.92 270.32 151.131C266.261 156.936 264.42 163.871 264.453 170.903C263.325 169.324 262.441 167.37 261.423 165.694C262.214 162.18 262.997 158.687 263.915 155.201C262.644 156.074 261.358 156.923 260.056 157.748C260.051 159.018 260.025 160.272 259.925 161.539C259.95 162.35 259.979 163.138 259.876 163.946L259.408 163.666C259.325 161.767 259.453 159.854 259.375 157.947C257.103 158.926 254.036 160.166 251.507 159.76C250.742 159.636 250.045 159.281 249.621 158.616C248.969 157.595 249.019 156.168 249.286 155.034C250.405 150.281 255.483 145.545 259.483 143.083L260.28 142.635C263.208 140.993 265.848 139.967 269.15 139.383C268.422 138.078 267.711 136.774 267.153 135.386C264.892 129.77 265.259 124.093 267.596 118.59C267.363 118.293 267.149 117.998 266.952 117.675C265.541 115.368 265.228 112.692 265.921 110.089C266.541 107.763 267.965 105.78 270.068 104.579C272.095 103.42 274.566 103.051 276.828 103.675C279.246 104.343 281.094 106.053 282.301 108.202C287.178 108.205 290.608 109.172 294.85 111.498ZM273.921 107.824C272.536 108.215 271.14 108.811 270.434 110.153C269.72 111.511 269.991 112.904 270.47 114.286L272.22 112.314C273.927 110.745 275.585 110.286 277.775 109.76C276.812 108.695 276.011 107.944 274.506 107.836C274.312 107.822 274.116 107.824 273.921 107.824ZM300.184 114.366C299.693 114.575 299.123 114.701 298.801 115.131C299.233 115.8 299.837 116.249 300.42 116.78C301.855 118.088 302.583 119.5 303.271 121.281C303.898 120.88 304.104 119.709 304.324 118.992C304.06 117.494 303.781 115.934 302.432 115.005C301.727 114.52 301.021 114.402 300.184 114.366ZM277.744 121.762C277.43 121.874 277.202 122.148 277.151 122.477C277.1 122.806 277.233 123.136 277.498 123.338C277.763 123.539 278.117 123.579 278.42 123.442C278.863 123.241 279.069 122.728 278.888 122.277C278.706 121.827 278.201 121.599 277.744 121.762ZM291.586 125.744C291.305 125.892 291.131 126.186 291.138 126.504C291.145 126.822 291.331 127.108 291.618 127.243C291.906 127.379 292.245 127.34 292.494 127.144C292.835 126.876 292.915 126.393 292.679 126.029C292.443 125.666 291.969 125.542 291.586 125.744ZM281.054 126.081C278.426 127.029 274.656 127.867 273.386 130.633C272.659 132.217 272.951 133.964 273.608 135.519C274.747 138.215 276.971 140.461 279.721 141.498C281.612 142.21 283.437 142.19 285.405 141.99C288.054 141.355 290.921 140.292 292.453 137.873C293.263 136.592 293.541 135.053 293.128 133.584C292.331 130.745 288.702 128.391 286.212 127.1C284.488 126.205 282.999 125.882 281.054 126.081Z" fill="#F37E60"/>
<path d="M136.914 106.489C136.94 106.381 136.952 106.269 136.992 106.165C137.181 105.676 137.381 105.644 137.831 105.47C138.509 105.566 138.831 105.713 139.407 106.083C139.087 106.666 138.876 106.934 138.239 107.163C137.573 107.048 137.43 106.899 136.914 106.489Z" fill="#FEFEFE"/>
<path d="M169.284 108.215C168.8 108.207 168.507 108.131 168.115 107.855C167.615 107.503 167.547 107.198 167.474 106.638C167.777 106.042 167.962 105.99 168.523 105.656C169.021 106.573 169.251 107.157 169.284 108.215Z" fill="#FEFEFE"/>
<path d="M162.504 108.619C162.107 108.789 161.646 108.613 161.462 108.221C161.278 107.83 161.438 107.363 161.822 107.165C162.084 107.031 162.397 107.05 162.64 107.216C162.883 107.381 163.017 107.665 162.988 107.958C162.96 108.25 162.774 108.503 162.504 108.619Z" fill="#FEFEFE"/>
<path d="M270.468 114.285C269.989 112.903 269.718 111.51 270.432 110.151C271.138 108.81 272.534 108.214 273.919 107.823C274.114 107.823 274.31 107.821 274.504 107.834C276.009 107.942 276.81 108.694 277.773 109.759C275.583 110.284 273.925 110.744 272.218 112.312L270.468 114.285Z" fill="#CF6448"/>
<path d="M151.786 119.365L152.106 119.7L152.083 120.087L151.732 120.317C149.746 120.491 147.646 120.713 145.91 119.506C145.069 118.922 144.406 118.02 144.274 116.987C144.159 116.092 144.447 115.195 145.012 114.499C145.92 113.381 146.93 113.02 148.315 112.827C149.12 112.858 149.638 112.908 150.357 113.286L150.357 113.607C148.995 114.322 147.081 113.572 145.811 114.724C145.416 115.083 145.273 115.605 145.3 116.124C145.343 116.974 145.636 118.117 146.305 118.696C147.628 119.842 150.15 119.431 151.786 119.365Z" fill="#682A24"/>
<path d="M128.305 124.889C126.236 124.923 124.433 124.639 122.726 123.371C121.468 122.437 120.489 121.066 120.3 119.483C120.145 118.258 120.491 117.021 121.261 116.055C122.602 114.364 124.703 113.835 126.747 113.632C128.546 113.687 130.328 113.773 131.891 114.785C133.078 115.552 133.899 116.772 134.161 118.161C134.438 119.521 134.157 120.935 133.382 122.086C132.176 123.879 130.333 124.536 128.305 124.889Z" fill="#E99E87"/>
<path d="M170.396 124.87C168.789 124.733 167.325 124.34 166.016 123.353C164.895 122.507 164.059 121.263 163.877 119.854C163.721 118.646 164.072 117.493 164.853 116.562C166.482 114.622 168.809 114.24 171.184 114.026C173.093 114.138 175.029 114.365 176.489 115.743C177.41 116.611 177.924 117.825 177.906 119.09C177.897 120.509 177.266 121.828 176.263 122.814C174.639 124.412 172.591 124.855 170.396 124.87Z" fill="#E99E87"/>
<path d="M303.273 121.279C302.585 119.497 301.857 118.085 300.422 116.777C299.839 116.246 299.235 115.797 298.803 115.128C299.125 114.698 299.695 114.573 300.186 114.363C301.023 114.399 301.729 114.517 302.434 115.002C303.783 115.931 304.062 117.491 304.326 118.989C304.106 119.706 303.9 120.877 303.273 121.279Z" fill="#CF6448"/>
<path d="M1.7334 117.107L1.74806 116.343C11.1103 115.957 20.5652 116.313 29.94 116.294C49.2311 116.153 68.5229 116.141 87.8143 116.259L104.292 116.35C106.672 116.37 109.092 116.572 111.466 116.471C111.95 116.478 112.561 116.353 112.931 116.721C112.978 116.768 113.005 116.83 113.041 116.884C111.077 117.497 106.305 117.086 104.106 117.082L86.1746 117.062L1.7334 117.107Z" fill="#F37E60"/>
<path d="M198.797 118.079C198.949 117.754 199.163 117.565 199.407 117.309C199.689 121.134 199.503 125.071 199.508 128.91L199.54 150.196L198.906 149.753C198.737 146.051 198.861 142.284 198.859 138.574L198.797 118.079Z" fill="#F37E60"/>
<path d="M38.3398 127.999C38.3731 126.31 38.3842 124.754 39.1558 123.206C39.7581 121.997 40.7947 120.963 42.1036 120.557C43.0126 120.274 43.9549 120.364 44.7895 120.822C46.4784 121.751 47.1377 123.455 47.6061 125.202C47.5927 126.092 47.7678 127.252 47.345 128.046C46.925 128.33 46.6028 128.312 46.1118 128.34C46.138 126.776 46.2323 125.32 45.4465 123.903C45.0066 123.109 44.3037 122.421 43.3974 122.213C42.7681 122.069 42.1309 122.188 41.6039 122.563C40.6104 123.269 40.1183 124.472 39.8992 125.625C39.8361 126.386 39.9416 127.637 39.4886 128.262C39.0274 128.35 38.8752 128.281 38.4365 128.068C38.4009 128.05 38.3719 128.022 38.3398 127.999Z" fill="url(#paint1_linear_2006_9272)"/>
<path d="M278.421 123.438C278.118 123.575 277.764 123.535 277.499 123.333C277.233 123.132 277.1 122.801 277.151 122.472C277.203 122.143 277.43 121.869 277.744 121.758C278.202 121.595 278.706 121.823 278.888 122.273C279.069 122.724 278.863 123.237 278.421 123.438Z" fill="#45404A"/>
<path d="M47.613 125.2C47.6915 125.968 47.5421 127.411 47.8955 128.013C48.5157 128.108 48.931 128.041 49.3613 128.514C49.9034 133.486 49.4648 139.787 49.4267 144.895C45.3686 144.597 41.0897 144.575 37.022 144.792C37.0343 142.236 36.4831 129.892 37.1952 128.428C37.595 128.145 37.8649 128.075 38.3467 127.997C38.3788 128.02 38.4077 128.048 38.4434 128.066C38.8821 128.28 39.0342 128.348 39.4955 128.26C39.9484 127.636 39.843 126.385 39.906 125.623L39.9326 128.368L46.1187 128.338C46.6097 128.31 46.9318 128.329 47.3519 128.044C47.7747 127.25 47.5995 126.091 47.613 125.2Z" fill="#89A2D8"/>
<path d="M292.498 127.142C292.249 127.338 291.909 127.377 291.622 127.241C291.335 127.106 291.149 126.82 291.142 126.502C291.135 126.184 291.308 125.89 291.589 125.742C291.972 125.54 292.446 125.664 292.682 126.027C292.918 126.39 292.839 126.874 292.498 127.142Z" fill="#45404A"/>
<path d="M285.408 141.986C283.439 142.185 281.615 142.206 279.724 141.493C276.974 140.456 274.75 138.211 273.61 135.514C272.953 133.96 272.661 132.213 273.388 130.629C274.659 127.863 278.429 127.025 281.057 126.076C283.001 125.878 284.49 126.201 286.214 127.096C288.704 128.387 292.333 130.741 293.131 133.58C293.543 135.048 293.266 136.588 292.455 137.868C290.923 140.287 288.056 141.351 285.408 141.986ZM282.335 131.619C282.28 131.531 282.224 131.443 282.171 131.354C282.01 131.085 281.946 130.87 281.87 130.57C281.737 130.042 281.371 129.579 280.925 129.27L280.442 129.47C280.254 130.315 280.245 130.917 280.31 131.779C280.956 133.231 281.699 133.561 283.128 134.115L283.277 134.042C283.939 133.725 284.659 133.435 285.151 132.868C285.56 132.398 286.052 131.716 286.025 131.073L285.698 130.866C285.272 130.863 285.024 130.893 284.628 131.068C283.874 131.402 283.391 131.603 282.555 131.619C282.482 131.621 282.408 131.619 282.335 131.619Z" fill="#E9B49C"/>
<path d="M157.246 127.153C156.971 127.525 156.692 127.901 156.381 128.244C154.936 129.836 152.71 130.706 150.591 130.815C148.442 130.924 145.806 130.333 144.198 128.82C143.467 128.132 142.765 127.146 142.717 126.146C143.605 126.356 144.001 127.175 144.661 127.791C146.352 129.369 148.556 130.029 150.842 129.903C152.917 129.789 154.475 128.965 155.845 127.424C156.186 127.04 156.483 126.72 156.893 126.412L157.199 126.538L157.246 127.153Z" fill="#682A24"/>
<path d="M282.333 131.619C281.711 131.596 280.845 131.452 280.308 131.778C280.243 130.916 280.252 130.315 280.439 129.47L280.923 129.27C281.369 129.579 281.735 130.042 281.868 130.57C281.944 130.87 282.008 131.085 282.169 131.354C282.222 131.443 282.278 131.53 282.333 131.619Z" fill="#5D4130"/>
<path d="M280.312 131.778C280.849 131.451 281.716 131.595 282.337 131.618C282.41 131.618 282.484 131.62 282.557 131.618C283.393 131.602 283.877 131.401 284.63 131.067C285.026 130.892 285.275 130.862 285.7 130.866L286.027 131.072C286.054 131.716 285.562 132.397 285.153 132.867C284.661 133.435 283.941 133.725 283.279 134.041L283.13 134.114C281.701 133.561 280.958 133.23 280.312 131.778Z" fill="#45404A"/>
<path d="M228.313 146.958C224.275 147.56 220.518 144.761 219.938 140.72C219.358 136.679 222.176 132.937 226.22 132.379C230.234 131.824 233.942 134.617 234.517 138.627C235.093 142.638 232.321 146.361 228.313 146.958ZM225.692 133.367C222.178 134.196 220.009 137.724 220.856 141.233C221.703 144.742 225.244 146.892 228.748 146.026C232.226 145.167 234.357 141.66 233.516 138.177C232.675 134.694 229.179 132.545 225.692 133.367Z" fill="#D4987C"/>
<path d="M108.478 145.898C116.399 142.637 123.475 143.436 131.792 143.487L131.76 145.583C131.354 149.489 131.613 153.594 131.623 157.524L131.665 180.545C120.783 178.204 109.597 179.248 98.5566 179.104C101.475 178.491 105.229 178.902 108.25 178.914C108.246 167.909 108.322 156.903 108.478 145.898Z" fill="#B2CBF3"/>
<path d="M169.182 143.748C174.051 143.756 187.483 143.058 191.004 146.335L191.138 179.015C183.891 179.138 175.912 178.817 168.912 180.948L168.971 159.003C168.975 154.969 169.244 150.71 168.86 146.704C169.001 145.722 169.108 144.737 169.182 143.748Z" fill="#B2CBF3"/>
<path d="M37.0164 144.796C41.0841 144.579 45.363 144.602 49.4211 144.899C53.0426 145.102 57.2213 143.952 59.9396 147.065C61.4807 148.83 61.9582 151.186 61.7331 153.472C61.581 154.96 61.1887 156.413 60.5721 157.775C60.2658 158.104 59.9769 158.412 59.7221 158.784C59.0849 159.259 58.5384 159.676 58.0483 160.306C53.6893 160.454 49.2924 160.342 44.9283 160.34C39.2102 160.338 33.4805 160.407 27.7644 160.287C26.8966 159.53 26.0981 158.866 24.958 158.597C25.1586 158.168 25.0777 158.159 24.9735 157.723C24.54 156.334 24.2198 154.969 24.1338 153.514C24.0074 151.376 24.2428 148.734 25.7755 147.111C28.4567 144.273 33.4548 144.905 37.0164 144.796Z" fill="#E9B49C"/>
<path d="M1.76572 144.563C1.98565 148.939 1.80258 153.352 1.87232 157.736C9.5579 157.709 17.2914 157.498 24.9719 157.722C25.0761 158.158 25.1569 158.167 24.9564 158.596C17.278 158.428 9.5789 158.595 1.89768 158.576C1.31953 155.791 1.53985 147.616 1.76572 144.563Z" fill="#D4987C"/>
<path d="M131.667 180.545L131.626 157.524C131.615 153.594 131.357 149.49 131.763 145.583C133.824 151.146 137.013 155.209 142.516 157.705C147.427 159.933 152.589 160.063 157.625 158.129C162.439 156.28 166.207 152.826 168.285 148.105C168.487 147.643 168.679 147.176 168.862 146.705C169.246 150.712 168.977 154.97 168.973 159.004L168.914 180.949C161.552 183.478 154.72 188.777 151.026 195.731L150.724 195.628C146.104 188.069 140.138 183.201 131.667 180.545Z" fill="#89A2D8"/>
<path d="M87.8026 157.849C89.8184 156.887 92.6299 154.281 94.6271 152.922C98.9524 149.979 103.645 147.85 108.479 145.898C108.323 156.903 108.247 167.909 108.251 178.915C105.23 178.903 101.476 178.491 98.5577 179.105C98.4471 184.778 98.6924 190.528 98.4095 196.187C98.3917 197.115 98.4127 198.036 98.4424 198.963L97.2813 198.917C97.3301 198.053 97.7874 197.074 98.0632 196.25C92.6046 193.319 86.8009 190.704 81.1117 188.247C79.6102 187.598 74.9608 186.04 73.9535 185.324C73.3912 182.352 72.3562 180.441 70.0566 178.475C71.6821 176.295 73.0829 173.945 74.729 171.777C78.4496 166.878 82.6092 162.799 87.0632 158.604L87.8026 157.849Z" fill="#89A2D8"/>
<path d="M293.429 166.437C291.312 164.216 289.022 162.778 285.848 162.693C283.106 162.621 280.566 163.714 278.647 165.662C276.792 167.547 275.238 170.757 275.359 173.464C275.361 173.523 275.371 173.582 275.377 173.641C275.3 174.028 275.198 174.36 275.05 174.726C273.245 174.973 266.157 172.362 264.444 171.388L264.456 170.897C264.422 163.865 266.263 156.93 270.322 151.125C271.868 148.914 274.027 146.501 276.84 146.094C278.624 145.836 286.428 147.146 287.713 148.17C291.491 151.184 292.956 161.708 293.429 166.437Z" fill="#E9B49C"/>
<path d="M191.006 146.336C193.48 147.405 196.365 149.007 198.908 149.752L199.542 150.194C210.847 156.758 219.571 164.009 227.313 174.672C228.467 176.262 230.715 179.239 231.228 181.107C231.291 181.337 231.278 181.373 231.272 181.58C230.562 181.86 229.733 181.777 228.979 181.777C221.61 181.932 213.89 185.814 207.588 189.397C206.062 190.264 204.401 191.864 202.677 192.174L202.714 179.035C198.856 178.955 194.998 178.948 191.14 179.016L191.006 146.336Z" fill="#89A2D8"/>
<path d="M59.7246 158.782C59.9794 158.411 60.2683 158.102 60.5746 157.774L79.1175 157.768C81.9215 157.766 85.0282 157.495 87.8021 157.847L87.0626 158.602C81.0929 158.543 75.1223 158.526 69.1522 158.548C66.1215 158.551 62.6994 158.251 59.7246 158.782Z" fill="#D4987C"/>
<path d="M22.3282 176.981C22.0707 176.784 21.8174 176.582 21.569 176.375C19.7133 174.809 18.3743 172.409 18.1884 169.974C18.0034 167.548 18.9275 165.128 20.5617 163.346C22.5537 161.174 24.9198 160.409 27.7698 160.285C33.4859 160.406 39.2155 160.337 44.9336 160.339C49.2977 160.341 53.6947 160.453 58.0536 160.304C60.8968 160.356 63.2907 161.171 65.2914 163.293C66.9121 165.012 67.7891 167.245 67.6718 169.614C67.56 171.866 66.5405 174.238 64.8115 175.725C64.2794 176.183 63.6394 176.552 63.0378 176.912C59.7286 177.192 56.4147 177.103 53.0963 177.091L39.0558 177.044C33.8433 177.038 27.4072 177.525 22.3282 176.981Z" fill="#B2CBF3"/>
<path d="M275.377 173.644C275.371 173.585 275.362 173.526 275.359 173.467C275.239 170.76 276.792 167.55 278.647 165.665C280.566 163.717 283.107 162.624 285.849 162.697C289.022 162.781 291.312 164.219 293.43 166.441C295.048 170.108 295.605 172.925 294.134 176.777C293.285 178.997 292.194 180.813 290.347 182.337C287.927 182.672 280.853 182.838 278.489 182.302L276.7 179.896C275.719 177.767 275.331 175.985 275.377 173.644Z" fill="#A7725D"/>
<path d="M264.441 171.389C266.153 172.363 273.241 174.974 275.046 174.727C275.195 174.361 275.296 174.029 275.373 173.642C275.327 175.982 275.714 177.765 276.696 179.894C272.396 179.515 268.149 178.257 264.021 177.026C264.434 175.148 264.077 173.25 264.441 171.389Z" fill="#F37E60"/>
<path d="M17.3814 194.028C16.6301 193.744 15.9227 193.355 15.2816 192.871C13.3811 191.433 12.2188 189.357 11.9672 186.991C11.7096 184.571 12.3171 182.141 13.9355 180.29C16.149 177.758 19.1412 177.185 22.3216 176.983C27.4006 177.527 33.8367 177.039 39.0492 177.046L53.0897 177.093C56.4081 177.105 59.722 177.194 63.0313 176.914C65.7172 176.932 67.6248 177.263 70.0523 178.475C72.3518 180.441 73.3869 182.352 73.9492 185.324C73.5708 188.778 72.55 190.791 69.8443 192.975C69.6549 193.128 69.4639 193.279 69.2721 193.429C72.628 193.373 75.7316 193.902 78.2598 196.346C80.0925 198.084 81.1232 200.503 81.1066 203.029C81.0812 205.676 79.8758 208.059 77.9761 209.855C76.9224 210.239 76.3617 210.68 75.7328 211.608C72.3942 211.862 45.0721 211.871 43.6804 211.177C44.5791 210.694 45.7382 210.087 46.295 209.197C47.353 207.505 47.2658 200.352 46.801 198.362C46.3485 196.425 45.6756 195.46 43.9994 194.425C37.9508 194.041 31.7243 194.338 25.6566 194.351C22.9941 194.357 19.9718 194.637 17.3814 194.028Z" fill="#FFBEAD"/>
<path d="M98.4101 196.184C98.693 190.525 98.4477 184.775 98.5583 179.102C109.598 179.245 120.784 178.202 131.666 180.543C140.137 183.198 146.103 188.066 150.723 195.625C150.462 197.994 150.718 214.148 150.715 214.157C150.671 214.267 150.564 214.342 150.489 214.435L150.606 214.552L150.731 214.123L150.617 214.556L150.207 214.144L150.088 214.288C150.937 219.551 150.447 224.811 150.319 230.106C150.245 233.164 150.366 236.227 150.319 239.286C150.127 239.251 149.933 239.22 149.743 239.174C149.036 239.006 148.879 238.756 148.506 238.18C146.557 235.059 142.075 232.385 138.773 230.894C131.714 227.708 124.778 226.94 117.122 227.427C115.343 227.54 113.337 227.549 111.657 228.18C110.892 226.333 110.175 225.568 108.444 224.641C109.229 224.48 110.009 224.282 110.721 223.903C111.368 223.559 112.092 222.851 112.26 222.112C112.4 221.497 112.316 220.97 111.978 220.443C111.242 219.295 109.895 219.001 108.665 218.689C109.404 218.227 110.216 217.798 110.652 217.011C111.028 216.334 111.153 215.727 110.893 214.973C110.391 213.515 108.818 213.005 107.526 212.518C114.354 212.033 119.722 211.187 126.679 212.335C135.326 213.762 141.97 217.158 147.312 224.18C147.981 225.06 148.345 226.097 148.992 226.998L149.077 226.741C147.661 222.952 144.107 219.493 140.831 217.252C131.504 210.873 117.339 210.222 106.482 212.299C103.896 211.921 101.29 211.695 98.6776 211.621C98.6609 211.607 98.6419 211.595 98.6277 211.58C98.6094 211.559 98.3348 211.222 98.3344 211.22C98.1561 210.52 98.5167 208.341 98.5516 207.497C98.6693 204.671 98.6217 201.829 98.613 199.001C98.5932 198.244 98.5488 197.545 98.7497 196.808C100.44 196.304 102.361 196.215 104.112 195.992C112.886 194.877 122.887 194.249 131.437 196.932C137.854 198.946 143.777 202.781 147.31 208.606C148.292 210.224 148.914 211.903 149.772 213.556L149.895 213.325C149.336 211.048 147.756 208.44 146.377 206.554C139.727 197.467 127.565 194.641 116.877 194.622C113.559 194.617 110.172 194.976 106.873 195.289C105.088 195.459 100.052 196.576 98.5936 196.247C98.5306 196.233 98.4711 196.205 98.4101 196.184Z" fill="#FEFEFE"/>
<path d="M168.911 180.948C175.911 178.818 183.89 179.139 191.137 179.015C194.995 178.948 198.853 178.954 202.711 179.035L202.674 192.174C202.674 193.57 202.727 194.991 202.641 196.384C197.575 194.32 182.413 194.063 176.724 194.731C172.984 195.17 169.158 195.993 165.678 197.444C158.052 200.623 154.066 205.881 150.998 213.308C150.82 209.948 150.904 206.541 150.89 203.176C150.88 200.737 150.688 198.141 151.023 195.73C154.717 188.776 161.549 183.477 168.911 180.948Z" fill="#FEFEFE"/>
<path d="M202.672 192.175C204.396 191.864 206.057 190.265 207.584 189.397C213.886 185.815 221.606 181.933 228.974 181.777C228.832 182.197 228.818 182.001 228.973 182.37C227.316 182.986 226.49 183.569 225.65 185.124C225.503 189.405 225.575 193.7 225.581 197.983C225.585 201.165 225.485 204.388 225.632 207.564C226.313 208.571 227.139 209.351 228.016 210.182C226.418 210.16 221.992 209.676 220.804 210.769C220.129 211.389 219.87 212.911 219.763 213.769C219.443 216.342 219.657 219.145 219.659 221.739L219.643 236.247C219.974 236.77 220.282 237.299 220.708 237.752C215.189 237.555 209.597 237.648 204.074 237.684C201.121 237.703 198.043 237.88 195.105 237.571C193.589 236.489 191.116 236.104 190.491 233.989C190.335 233.464 190.371 233.128 190.646 232.655C191.141 231.808 192.156 231.558 193.027 231.306C192.832 231.235 192.638 231.161 192.444 231.084C191.411 230.674 190.493 230.122 190.076 229.027C189.858 228.452 189.891 227.837 190.169 227.286C190.889 225.857 192.325 225.576 193.725 225.14C192.433 224.646 190.696 224.105 190.172 222.657C189.954 222.055 189.966 221.494 190.278 220.926C190.986 219.639 192.305 219.39 193.608 219.037C192.54 218.518 190.858 217.943 190.434 216.713C190.243 216.161 190.393 215.587 190.647 215.084C192.562 211.295 199.809 213.825 202.705 212.832L202.783 212.223L202.812 211.655C202.613 207.89 202.559 204.119 202.651 200.35C204.912 204.013 206.38 208.312 208.246 212.204C213.468 213.342 215.758 216.432 217.145 221.387C217.313 221.991 217.369 222.878 217.856 223.268C218.16 222.931 218.132 223.082 218.152 222.702C218.251 220.81 215.824 216.184 214.582 214.755C212.965 212.894 211.156 211.95 208.713 211.773C206.825 208.265 204.957 201.882 202.657 199.08L202.585 196.661L202.639 196.385C202.726 194.993 202.672 193.571 202.672 192.175ZM193.855 218.669L194.005 218.973C198.82 219.348 203.842 219.042 208.688 219.135L208.671 218.753C205.887 218.167 197.142 218.585 193.855 218.669ZM193.549 225.198C196.025 225.932 205.976 225.749 208.865 225.513C208.73 225.404 208.617 225.261 208.459 225.188C207.661 224.82 195.099 225.026 193.549 225.198ZM193.281 231.145C195.041 232.033 206.23 231.699 208.686 231.438C208.046 230.8 206.509 231.015 205.612 231.016C201.921 231.019 196.836 230.695 193.281 231.145Z" fill="#E9B49C"/>
<path d="M248.984 182.307C252.505 182.631 256.404 182.66 259.924 182.272L278.486 182.299C280.849 182.836 287.924 182.67 290.344 182.335C292.574 182.378 294.788 182.404 297.018 182.307L307.926 182.222C310.503 182.189 313.739 181.737 316.229 182.362C316.553 182.816 316.789 183.183 316.849 183.748C317.182 186.85 316.757 191.904 316.691 195.166L316.503 204.052C316.463 205.82 316.544 207.689 316.265 209.435C315.967 209.855 315.753 210.038 315.301 210.285C313.201 210.241 311.1 210.228 308.999 210.247L308.969 212.165C308.643 211.66 308.745 211.21 308.741 210.617L308.516 210.646C308.369 213.398 308.651 216.243 308.384 218.97C308.262 216.655 308.762 213.008 308.176 210.896C308.057 210.47 307.793 209.92 307.369 209.736C306.642 209.42 305.759 209.733 305.042 209.951C301.135 210.199 297.155 210.05 293.24 210.05L272.575 210.063C257.75 210.104 242.831 210.608 228.017 210.18C227.14 209.349 226.315 208.568 225.633 207.562C225.486 204.385 225.586 201.162 225.582 197.98C225.576 193.697 225.504 189.403 225.652 185.122C226.491 183.566 227.317 182.984 228.974 182.368C231.037 182.148 233.282 182.305 235.359 182.31C239.9 182.339 244.443 182.338 248.984 182.307ZM232.004 188.845C232.029 193.882 231.968 198.934 232.089 203.968L309.839 203.874C309.67 198.933 309.543 193.983 309.782 189.041L232.004 188.845Z" fill="#F37E60"/>
<path d="M73.9506 185.32C74.9579 186.037 79.6073 187.595 81.1087 188.243C86.7979 190.7 92.6016 193.316 98.0602 196.246C97.7844 197.071 97.3271 198.049 97.2784 198.914C97.2649 202.789 96.8995 207.198 97.5466 210.997C92.2636 210.466 89.8107 211.373 85.1629 213.705C85.2549 212.651 85.5267 211.432 84.7235 210.581C83.4459 209.228 79.6861 209.84 77.9774 209.851C79.8771 208.055 81.0826 205.672 81.1079 203.025C81.1246 200.499 80.0939 198.08 78.2612 196.342C75.733 193.898 72.6294 193.369 69.2734 193.425C69.4652 193.275 69.6562 193.124 69.8456 192.971C72.5514 190.787 73.5721 188.774 73.9506 185.32Z" fill="#E9B49C"/>
<path d="M232.086 203.971C231.965 198.938 232.026 193.885 232.001 188.849L309.779 189.045C309.54 193.986 309.667 198.936 309.836 203.877L232.086 203.971ZM291.046 194.7C279.992 195.057 268.856 194.783 257.792 194.773C254.04 194.77 250.192 194.589 246.452 194.766C246.19 194.779 246.05 194.84 245.842 194.995C246.39 195.475 249.014 195.208 249.809 195.192L279.035 195.177C284.112 195.165 289.603 195.504 294.635 194.891L294.565 194.76C293.37 194.582 292.247 194.633 291.046 194.7ZM281.203 198.654L261.375 198.703C258.434 198.704 248.389 198.382 246.091 199.15C251.436 199.504 257.001 199.15 262.37 199.137C265.56 199.134 296.458 199.44 297.297 199.062C295.025 198.298 284.199 198.649 281.203 198.654Z" fill="#FEFEFE"/>
<path d="M9.26911 210.709C6.32757 208.652 4.08118 206.448 3.78246 203.732C3.52872 201.423 4.81077 198.93 7.56253 197.2C12.6218 194.018 20.8982 194.427 27.7646 194.269C32.3593 194.885 37.7201 194.602 42.4428 194.596C53.2052 194.583 64.2495 194.283 74.9782 194.671C77.9514 195.718 79.1449 196.694 79.9476 198.654C80.772 200.666 80.9267 207.902 79.05 209.612C78.0624 210.513 76.0065 211.127 74.4124 211.615C61.0198 211.917 47.4332 211.864 34.0209 211.882C26.5943 211.891 18.7094 212.162 11.325 211.798L9.26911 210.709Z" fill="#89A2D8"/>
<path d="M150.719 195.623L151.021 195.726C150.686 198.137 150.878 200.733 150.888 203.172C150.903 206.537 150.819 209.945 150.996 213.304C154.064 205.878 158.051 200.619 165.677 197.44C169.157 195.99 172.982 195.167 176.722 194.727C182.411 194.059 197.573 194.316 202.639 196.38L202.585 196.656C190.414 194.041 172.314 193.144 161.504 200.072C157.133 202.874 152.356 208.774 151.22 213.894C150.747 216.03 150.562 225.307 150.954 227.426L151.1 227.63L151.627 226.888L151.738 227.116C151.491 227.729 151.261 228.351 150.993 228.956C150.343 230.425 150.454 237.531 150.849 239.192L150.315 239.284C150.362 236.225 150.241 233.162 150.315 230.104C150.443 224.809 150.933 219.549 150.084 214.286L150.203 214.142L150.613 214.554L150.727 214.121L150.602 214.55L150.485 214.433C150.56 214.34 150.667 214.265 150.711 214.155C150.714 214.146 150.458 197.992 150.719 195.623Z" fill="#B2CBF3"/>
<path d="M98.4079 196.187C98.469 196.208 98.5284 196.236 98.5914 196.25C100.05 196.579 105.085 195.462 106.871 195.292C110.17 194.979 113.557 194.62 116.874 194.625C127.562 194.644 139.725 197.47 146.374 206.557C147.754 208.443 149.334 211.051 149.893 213.328L149.77 213.559C148.912 211.906 148.29 210.227 147.308 208.609C143.774 202.783 137.852 198.949 131.434 196.935C122.885 194.252 112.884 194.88 104.11 195.995C102.359 196.218 100.438 196.307 98.7475 196.811C98.5466 197.548 98.591 198.247 98.6108 199.004L98.4408 198.963C98.4111 198.036 98.3901 197.115 98.4079 196.187Z" fill="#B2CBF3"/>
<path d="M249.81 195.19C249.015 195.206 246.391 195.473 245.843 194.993C246.051 194.838 246.191 194.777 246.453 194.764C250.193 194.587 254.041 194.768 257.793 194.771C268.857 194.781 279.993 195.055 291.047 194.698C292.248 194.631 293.371 194.58 294.566 194.758L294.636 194.889C289.604 195.502 284.113 195.163 279.036 195.175L249.81 195.19Z" fill="#B2CBF3"/>
<path d="M150.853 239.193C150.458 237.531 150.347 230.425 150.998 228.956C151.266 228.352 151.495 227.73 151.742 227.116L151.632 226.888L151.104 227.631L150.958 227.427C150.567 225.307 150.751 216.031 151.225 213.895C152.36 208.775 157.137 202.874 161.508 200.073C172.318 193.144 190.419 194.041 202.589 196.657L202.661 199.075L202.655 200.345C202.563 204.114 202.617 207.885 202.816 211.65C197.654 211.085 192.583 211.082 187.401 211.127C177.196 211.215 166.903 211.28 158.475 217.969C155.977 219.951 152.549 223.411 151.743 226.573L151.889 226.671C152.785 225.474 153.258 224.044 154.175 222.862C158.612 217.147 165.528 213.325 172.673 212.317C178.212 211.536 198.414 210.668 202.787 212.218L202.709 212.827C199.813 213.82 192.566 211.29 190.651 215.079C190.397 215.583 190.247 216.156 190.438 216.709C190.862 217.939 192.545 218.514 193.612 219.032C192.309 219.385 190.99 219.634 190.282 220.922C189.97 221.49 189.959 222.05 190.176 222.652C190.7 224.1 192.437 224.641 193.729 225.135C192.329 225.571 190.893 225.853 190.173 227.281C189.896 227.832 189.862 228.447 190.081 229.022C190.497 230.117 191.415 230.669 192.448 231.08C192.642 231.156 192.836 231.23 193.031 231.302C192.161 231.554 191.145 231.803 190.651 232.651C190.375 233.124 190.339 233.46 190.495 233.984C191.12 236.099 193.593 236.484 195.109 237.566L194.373 237.553C192.225 237.357 190.083 236.902 187.949 236.579C182.26 235.72 176.538 234.739 170.819 234.126C164.518 233.45 158.279 233.465 153.143 237.607L152.816 237.635C159.214 230.705 168.026 228.002 177.097 227.016C179.324 226.774 181.585 226.515 183.827 226.535C185.473 226.55 188.574 227.244 190.001 226.56C187.813 225.599 176.121 226.686 173.123 227.126C166.072 228.162 156.814 231.82 152.405 237.713C151.97 238.076 151.64 238.433 151.27 238.861C151.072 239.091 151.15 239.009 150.853 239.193Z" fill="#FEFEFE"/>
<path d="M262.375 199.136C257.006 199.149 251.441 199.504 246.096 199.149C248.394 198.381 258.439 198.704 261.38 198.702L281.208 198.653C284.204 198.649 295.03 198.298 297.302 199.062C296.464 199.44 265.565 199.134 262.375 199.136Z" fill="#B2CBF3"/>
<path d="M97.2799 198.918L98.441 198.964L98.611 199.004C98.6197 201.833 98.6672 204.674 98.5495 207.5C98.5147 208.344 98.1541 210.523 98.3324 211.223C98.3328 211.225 98.6074 211.562 98.6256 211.583C98.6399 211.599 98.6589 211.61 98.6755 211.624L98.038 211.714L97.5482 211.001C96.9011 207.202 97.2664 202.793 97.2799 198.918Z" fill="#D5DFF4"/>
<path d="M202.657 199.081C204.957 201.883 206.826 208.266 208.713 211.774C211.156 211.951 212.965 212.895 214.583 214.756C215.824 216.184 218.251 220.81 218.152 222.703C218.132 223.083 218.16 222.932 217.857 223.269C217.369 222.879 217.314 221.992 217.145 221.388C215.758 216.433 213.468 213.343 208.246 212.204C206.38 208.313 204.912 204.014 202.651 200.35L202.657 199.081Z" fill="#904A39"/>
<path d="M305.043 209.952C305.76 209.733 306.644 209.421 307.37 209.736C307.794 209.92 308.059 210.47 308.177 210.896C308.764 213.008 308.263 216.656 308.385 218.97L308.408 230.326C308.408 232.588 308.299 234.917 308.492 237.171L308.298 237.682L307.563 237.984C307.638 234.142 307.936 213.929 307.303 212.028C306.923 210.889 306.064 210.453 305.043 209.952Z" fill="#FEFEFE"/>
<path d="M75.7363 211.607C76.3652 210.679 76.9259 210.238 77.9796 209.854C79.6883 209.843 83.4481 209.23 84.7256 210.584C85.5289 211.435 85.257 212.654 85.1651 213.707C85.0688 214.285 85.0375 214.437 85.3775 214.954C85.4294 215.033 85.5007 215.099 85.5621 215.171C85.4548 215.283 85.3085 215.367 85.24 215.507C84.8279 216.346 85.261 234.26 85.2661 236.684L84.0837 236.4C84.3032 232.599 84.5315 214.658 83.6676 211.918C82.5121 211.245 77.3178 211.599 75.7363 211.607Z" fill="#F37E60"/>
<path d="M228.016 210.183C242.83 210.611 257.749 210.108 272.574 210.067L293.239 210.053C297.154 210.053 301.134 210.202 305.041 209.955C306.062 210.456 306.921 210.892 307.301 212.031C307.934 213.932 307.636 234.144 307.561 237.987C301.226 237.846 294.865 238.003 288.527 237.987L244.415 237.953L229.403 237.978C226.625 237.982 223.424 238.292 220.708 237.753C220.282 237.3 219.974 236.771 219.643 236.247L219.659 221.74C219.657 219.145 219.443 216.343 219.763 213.77C219.87 212.912 220.129 211.39 220.804 210.769C221.992 209.677 226.418 210.16 228.016 210.183ZM226.985 216.641C226.959 221.892 226.966 227.143 227.006 232.393L301.029 232.344C301.361 230.723 301.162 228.756 301.157 227.096C301.145 223.716 301.098 220.333 301.126 216.954C287.247 216.584 273.333 216.683 259.448 216.654C248.636 216.632 237.794 216.417 226.985 216.641Z" fill="#B2CBF3"/>
<path d="M1.7998 210.207C3.51802 210.229 5.24059 210.225 6.95761 210.282L8.11669 211.358C6.07394 211.512 3.98165 211.546 1.93335 211.498L1.7998 210.207Z" fill="#E99E87"/>
<path d="M85.1654 213.704C89.8132 211.372 92.2661 210.465 97.5491 210.996L98.0389 211.709C97.9252 211.733 97.8123 211.758 97.6981 211.78C96.6877 211.975 95.569 211.877 94.5395 211.922C91.1027 212.073 88.2127 212.87 85.5625 215.167C85.5011 215.095 85.4297 215.029 85.3778 214.95C85.0378 214.433 85.0691 214.281 85.1654 213.704Z" fill="#682A24"/>
<path d="M8.11592 211.356C12.2791 211.716 16.7244 211.448 20.9114 211.439C28.4729 211.421 36.1327 211.474 43.6832 211.175C45.0749 211.87 72.397 211.861 75.7356 211.607C77.3171 211.599 82.5113 211.244 83.6669 211.917C84.5307 214.658 84.3025 232.598 84.0829 236.4C84.0318 236.883 84.0849 237.254 83.7683 237.636C81.504 237.838 77.4558 238.013 75.2438 237.58C80.7349 235.441 83.7497 229.525 82.2526 223.825C80.7551 218.125 75.222 214.454 69.3886 215.291C63.5552 216.127 59.2759 221.204 59.4403 227.095C58.2951 227.005 55.8478 226.6 54.8397 227.097L54.7259 227.232C54.212 226.963 54.1347 226.985 53.551 227.047C52.2037 226.505 43.1165 226.871 40.9601 226.839C40.435 226.685 40.3046 226.732 39.7645 226.861C35.5431 227.225 31.1743 227.04 26.9291 227.075C26.9275 220.71 21.7954 215.537 15.431 215.484C9.06656 215.43 3.84892 220.518 3.74113 226.881L1.92188 226.876L1.93258 211.496C3.98088 211.545 6.07317 211.51 8.11592 211.356Z" fill="#E9B49C"/>
<path d="M202.787 212.225C198.415 210.674 178.213 211.542 172.673 212.324C165.529 213.331 158.612 217.153 154.175 222.869C153.258 224.05 152.786 225.48 151.889 226.677L151.743 226.58C152.55 223.417 155.978 219.957 158.475 217.975C166.903 211.287 177.197 211.221 187.401 211.133C192.584 211.088 197.655 211.091 202.816 211.656L202.787 212.225Z" fill="#B2CBF3"/>
<path d="M106.481 212.303C117.338 210.227 131.504 210.877 140.831 217.257C144.107 219.498 147.661 222.956 149.077 226.745L148.992 227.003C148.345 226.102 147.981 225.064 147.312 224.185C141.97 217.162 135.326 213.766 126.679 212.339C119.722 211.192 114.354 212.038 107.526 212.522L106.481 212.303Z" fill="#B2CBF3"/>
<path d="M85.5633 215.169C88.2136 212.872 91.1035 212.074 94.5404 211.924C95.5699 211.879 96.6885 211.977 97.699 211.781C97.8131 211.76 97.9261 211.735 98.0398 211.711L98.6774 211.621C101.29 211.695 103.895 211.921 106.481 212.299L107.526 212.517C108.817 213.005 110.391 213.515 110.893 214.973C111.153 215.727 111.028 216.333 110.652 217.011C110.216 217.798 109.404 218.226 108.665 218.688C109.895 219.001 111.242 219.295 111.978 220.443C112.316 220.97 112.4 221.497 112.26 222.112C112.092 222.85 111.367 223.559 110.721 223.902C110.009 224.281 109.228 224.48 108.443 224.64C110.175 225.568 110.891 226.332 111.657 228.18L111.512 228.41C111.002 229.017 110.511 229.608 109.915 230.135C109.043 230.362 108.188 230.548 107.295 230.678C108.404 231.162 109.496 231.544 109.956 232.776C110.233 233.516 110.052 234.207 109.698 234.876C109.361 235.514 108.857 236.051 108.313 236.52C107.526 236.532 106.244 236.713 105.62 237.217L105.679 237.472C106.197 237.664 106.699 237.688 107.243 237.729C100.381 237.807 93.518 237.766 86.6578 237.607L85.2673 236.682C85.2622 234.258 84.8291 216.344 85.2412 215.504C85.3097 215.365 85.4559 215.28 85.5633 215.169ZM93.9289 218.275C95.1324 219.024 106.207 218.663 108.184 218.47C103.55 217.986 98.5795 218.059 93.9289 218.275ZM93.8243 224.602C95.1787 225.242 105.725 225.067 107.394 224.657C104.394 224.176 96.9845 224.299 93.8243 224.602ZM101.972 230.364C99.3067 230.515 96.6148 230.31 93.9626 230.595C95.2489 231.133 97.5512 230.885 98.9393 230.868C101.633 230.78 104.419 230.828 107.094 230.529C106.202 229.919 103.085 230.241 101.972 230.364Z" fill="#E9B49C"/>
<path d="M59.4431 227.098C59.2786 221.207 63.5579 216.129 69.3913 215.293C75.2248 214.457 80.7578 218.128 82.2553 223.828C83.7524 229.527 80.7376 235.443 75.2466 237.582C72.3954 238.693 69.2213 238.632 66.4154 237.412C62.2863 235.619 59.5683 231.598 59.4431 227.098ZM70.0963 223.133C68.8801 223.668 68.0737 224.251 67.6081 225.542C67.219 226.645 67.3125 227.86 67.8661 228.89C68.3488 229.784 69.2225 230.535 70.21 230.807C70.7509 230.956 71.3358 230.898 71.889 230.865C73.1242 230.309 73.9876 229.583 74.4596 228.275C74.8289 227.26 74.7782 226.14 74.3189 225.163C73.9119 224.311 73.1543 223.589 72.2528 223.288C71.5593 223.057 70.8159 223.109 70.0963 223.133Z" fill="#45404A"/>
<path d="M3.738 226.881C3.84579 220.517 9.06342 215.43 15.4279 215.483C21.7923 215.536 26.9243 220.709 26.9259 227.074C26.9271 231.477 24.435 235.5 20.4929 237.46C17.3406 239.027 13.6466 239.077 10.4531 237.596C6.29233 235.667 3.66033 231.466 3.738 226.881ZM14.9321 223.385C12.9413 223.71 11.5892 225.586 11.9086 227.578C12.2284 229.57 14.0992 230.928 16.0924 230.615C18.0943 230.3 19.4603 228.419 19.1393 226.418C18.8183 224.417 16.9325 223.057 14.9321 223.385Z" fill="#45404A"/>
<path d="M227.006 232.393C226.966 227.142 226.959 221.892 226.985 216.641C237.794 216.417 248.636 216.632 259.448 216.654C273.333 216.682 287.248 216.584 301.127 216.954C301.098 220.333 301.146 223.716 301.157 227.095C301.163 228.755 301.361 230.722 301.029 232.344L227.006 232.393ZM289.961 222.035C279.341 222.11 268.721 222.133 258.101 222.101C255.788 222.102 247.472 221.745 245.757 222.293L245.889 222.479L246.571 222.526C251.722 222.524 288.886 222.923 290.73 222.171C290.382 222.006 290.326 222.009 289.961 222.035ZM245.604 226.393C245.751 226.518 245.869 226.688 246.045 226.766C246.141 226.809 282.7 226.859 285.237 226.647C285.396 226.634 285.553 226.609 285.711 226.588L285.55 226.311C283.18 226.016 280.638 226.219 278.244 226.221L264.254 226.235L251.913 226.276C249.871 226.284 247.612 226.098 245.604 226.393Z" fill="#FEFEFE"/>
<path d="M108.182 218.471C106.205 218.664 95.1302 219.026 93.9268 218.277C98.5773 218.06 103.548 217.987 108.182 218.471Z" fill="#E99E87"/>
<path d="M208.691 219.135C203.846 219.043 198.823 219.349 194.009 218.973L193.858 218.67C197.146 218.586 205.89 218.168 208.675 218.754L208.691 219.135Z" fill="#D4987C"/>
<path d="M246.572 222.524L245.891 222.477L245.758 222.292C247.474 221.744 255.79 222.101 258.103 222.099C268.723 222.131 279.342 222.109 289.962 222.033C290.327 222.007 290.383 222.004 290.731 222.169C288.887 222.921 251.724 222.522 246.572 222.524Z" fill="#B2CBF3"/>
<path d="M71.8878 230.861C71.3346 230.894 70.7497 230.952 70.2088 230.803C69.2213 230.531 68.3475 229.78 67.8649 228.886C67.3113 227.856 67.2178 226.641 67.6069 225.538C68.0725 224.247 68.8789 223.664 70.0951 223.129C70.8147 223.105 71.5581 223.053 72.2516 223.284C73.1531 223.585 73.9107 224.307 74.3177 225.159C74.777 226.136 74.8277 227.256 74.4584 228.271C73.9864 229.58 73.1229 230.305 71.8878 230.861Z" fill="#FEFEFE"/>
<path d="M16.0957 230.612C14.1025 230.925 12.2317 229.567 11.912 227.575C11.5926 225.583 12.9446 223.707 14.9355 223.382C16.9358 223.054 18.8216 224.414 19.1426 226.415C19.4636 228.416 18.0977 230.297 16.0957 230.612Z" fill="#FEFEFE"/>
<path d="M107.392 224.66C105.723 225.071 95.1767 225.245 93.8223 224.605C96.9825 224.303 104.392 224.179 107.392 224.66Z" fill="#E99E87"/>
<path d="M208.867 225.51C205.978 225.746 196.027 225.929 193.551 225.195C195.101 225.023 207.663 224.817 208.461 225.186C208.618 225.258 208.732 225.402 208.867 225.51Z" fill="#E99E87"/>
<path d="M152.403 237.716C156.812 231.823 166.071 228.165 173.121 227.13C176.119 226.689 187.811 225.603 189.999 226.564C188.572 227.247 185.471 226.553 183.825 226.538C181.583 226.518 179.322 226.778 177.095 227.019C168.025 228.005 159.212 230.708 152.814 237.638L152.403 237.716Z" fill="#B2CBF3"/>
<path d="M285.713 226.585C285.555 226.607 285.397 226.631 285.238 226.645C282.702 226.857 246.143 226.807 246.047 226.764C245.871 226.686 245.753 226.515 245.605 226.391C247.614 226.095 249.873 226.282 251.915 226.274L264.256 226.232L278.246 226.219C280.64 226.217 283.182 226.014 285.552 226.309L285.713 226.585Z" fill="#B2CBF3"/>
<path d="M39.7624 226.861C40.3025 226.732 40.4329 226.685 40.9579 226.84C40.9397 228.87 41.359 230.525 42.8683 232.001C44.0892 233.205 45.7397 233.872 47.4539 233.853C49.0553 233.828 50.5472 233.208 51.629 232.015C52.9002 230.613 53.2291 228.846 53.5489 227.047C54.1326 226.985 54.2099 226.963 54.7238 227.233C54.5435 229.403 54.0395 231.454 52.441 233.042C51.0794 234.394 49.1575 235.03 47.2621 235.023C45.1393 235.034 43.1065 234.166 41.6482 232.623C40.0188 230.89 39.7089 229.128 39.7624 226.861Z" fill="#E7A975"/>
<path d="M1.92188 226.876L3.74114 226.882C3.66347 231.467 6.29547 235.668 10.4563 237.597C8.74954 238.321 4.08747 237.572 1.92227 237.8L1.92188 226.876Z" fill="#D5DFF4"/>
<path d="M111.653 228.179C113.333 227.547 115.339 227.539 117.118 227.426C124.774 226.939 131.71 227.707 138.769 230.893C142.071 232.383 146.553 235.057 148.502 238.179L147.915 238.093C146.948 236.41 144.976 235.119 143.427 233.974C134.248 227.193 122.343 226.825 111.508 228.409L111.653 228.179Z" fill="#B2CBF3"/>
<path d="M109.91 230.136C110.505 229.609 110.996 229.018 111.506 228.411C122.341 226.827 134.246 227.195 143.426 233.976C144.975 235.121 146.946 236.412 147.914 238.095L147.086 237.716C145.835 236.876 144.719 235.964 143.289 235.41C133.784 231.723 118.583 236.537 108.499 236.522L108.308 236.521C108.851 236.052 109.355 235.515 109.693 234.877C110.046 234.208 110.227 233.517 109.951 232.776C109.491 231.544 108.398 231.162 107.29 230.679C108.183 230.549 109.037 230.362 109.91 230.136Z" fill="#FEFEFE"/>
<path d="M98.9367 230.869C97.5485 230.887 95.2462 231.135 93.96 230.597C96.6122 230.311 99.304 230.516 101.969 230.365C103.083 230.243 106.199 229.921 107.091 230.531C104.416 230.83 101.63 230.782 98.9367 230.869Z" fill="#E99E87"/>
<path d="M208.685 231.437C206.23 231.698 195.04 232.032 193.28 231.144C196.836 230.694 201.921 231.019 205.612 231.015C206.508 231.014 208.046 230.799 208.685 231.437Z" fill="#E99E87"/>
<path d="M153.142 237.611C158.278 233.468 164.516 233.453 170.817 234.129C176.537 234.743 182.259 235.723 187.948 236.583C190.082 236.905 192.224 237.36 194.372 237.557C188.131 237.775 181.825 237.616 175.577 237.627C168.108 237.64 160.607 237.793 153.142 237.611Z" fill="#E9B49C"/>
<path d="M107.239 237.732C106.695 237.69 106.193 237.666 105.675 237.475L105.616 237.219C106.24 236.715 107.523 236.535 108.309 236.523L108.501 236.524C118.585 236.539 133.786 231.725 143.291 235.412C144.72 235.966 145.837 236.878 147.088 237.718C133.836 238.027 120.499 237.753 107.239 237.732Z" fill="#E9B49C"/>
<path d="M249.867 173.644C249.861 173.585 249.852 173.526 249.849 173.467C249.729 170.76 251.282 167.55 253.138 165.665C255.056 163.717 257.597 162.624 260.339 162.697C263.512 162.781 265.803 164.219 267.92 166.441C269.539 170.108 270.095 172.925 268.624 176.777C267.776 178.997 266.685 180.813 264.837 182.337C262.418 182.672 255.343 182.838 252.979 182.302L251.191 179.896C250.209 177.767 249.822 175.985 249.867 173.644Z" fill="#A7725D"/>
<path fill-rule="evenodd" clip-rule="evenodd" d="M45.4767 98.4496C69.5324 98.4496 89.1469 78.8349 89.1469 54.7792C89.1469 30.6866 69.5322 11.072 45.4767 11.072C21.3839 11.072 1.76953 30.6866 1.76953 54.7792C1.76953 78.8349 21.3839 98.4496 45.4767 98.4496Z" fill="#6BB69F"/>
<path fill-rule="evenodd" clip-rule="evenodd" d="M48.5098 13.1829C68.1613 13.1829 84.0751 29.0969 84.0751 48.7481C84.0751 68.3628 68.1613 84.2765 48.5098 84.2765C28.8954 84.2765 12.9814 68.3628 12.9814 48.7481C12.9814 29.0969 28.8954 13.1829 48.5098 13.1829Z" fill="#B2CBF3"/>
<path fill-rule="evenodd" clip-rule="evenodd" d="M77.8599 25.4306C84.8915 33.2026 89.1473 43.491 89.1473 54.7784C89.1473 62.7722 87.0009 70.285 83.263 76.7245L63.8705 65.955L54.6924 34.0536L58.5041 26.3188C58.5044 26.3188 66.6833 23.247 77.8599 25.4306Z" fill="#7B92C5"/>
<path fill-rule="evenodd" clip-rule="evenodd" d="M75.1953 72.2486L63.8705 65.9572L54.6924 34.0558L58.5042 26.321C58.5042 26.321 65.2769 23.7674 74.936 24.9888C80.5984 31.2802 84.077 39.6072 84.077 48.7482C84.0773 57.7412 80.7098 65.9943 75.1953 72.2486Z" fill="#B2CBF3"/>
<path fill-rule="evenodd" clip-rule="evenodd" d="M87.4074 67.0294C82.115 85.2006 65.3502 98.45 45.4765 98.45C39.592 98.45 34.0407 97.3026 28.9336 95.2301L32.0053 83.8314C39.037 66.3634 46.0687 48.8583 53.1004 31.3532C54.9136 29.6878 56.69 28.0225 58.5035 26.32C74.5654 36.8674 83.0032 51.2268 87.4074 67.0294Z" fill="#EAA594"/>
<path fill-rule="evenodd" clip-rule="evenodd" d="M33.1895 80.8338L53.1002 31.3532C54.9134 29.6878 56.6899 28.0225 58.5034 26.32C70.6053 34.277 78.4141 44.4172 83.3733 55.6678C80.1534 71.9886 65.7572 84.2756 48.511 84.2756C43.0339 84.2756 37.8526 83.0542 33.1895 80.8338Z" fill="#FFBEAD"/>
<path fill-rule="evenodd" clip-rule="evenodd" d="M45.476 11.072C51.6563 11.072 57.5408 12.3673 62.87 14.6619C61.945 20.8793 58.5029 26.3196 58.5029 26.3196L36.1868 38.5697L17.9785 27.2081L17.9043 20.8793C25.417 14.7361 35.0023 11.072 45.476 11.072Z" fill="#DF7357"/>
<path fill-rule="evenodd" clip-rule="evenodd" d="M62.6112 16.1065C61.4269 21.6581 58.5031 26.321 58.5031 26.321L36.1869 38.5711L19.4961 28.1716C25.9356 19.1043 36.557 13.1829 48.511 13.1829C53.5073 13.1829 58.2812 14.2193 62.6112 16.1065Z" fill="#F37E60"/>
<path fill-rule="evenodd" clip-rule="evenodd" d="M3.95306 68.4747C2.54667 64.1445 1.76953 59.5556 1.76953 54.7814C1.76953 35.6109 14.0933 19.3272 31.2652 13.4427C50.1767 16.3663 58.5037 26.3218 58.5037 26.3218L35.2623 48.0829L3.95306 68.4747Z" fill="#7B93C7"/>
<path fill-rule="evenodd" clip-rule="evenodd" d="M37.8143 14.8079C52.0998 18.6939 58.5022 26.3174 58.5022 26.3174L35.2607 48.0786L15.2021 61.1424C13.7589 57.2935 12.9814 53.1117 12.9814 48.7446C12.9814 32.8312 23.418 19.36 37.8143 14.8079Z" fill="#89A2D8"/>
<path fill-rule="evenodd" clip-rule="evenodd" d="M43.5161 98.4129C21.9769 97.4878 4.47178 80.9078 2.06641 59.7391C14.5752 30.9092 58.5045 26.32 58.5045 26.32C59.2817 53.0774 52.694 77.7992 43.5161 98.4129Z" fill="#C15A51"/>
<path fill-rule="evenodd" clip-rule="evenodd" d="M13.1667 44.7875C30.8568 29.2067 58.5022 26.32 58.5022 26.32C59.1314 47.1929 55.2083 66.8447 49.1391 84.2756C48.917 84.2756 48.732 84.2756 48.5098 84.2756C28.8954 84.2756 12.9814 68.3619 12.9814 48.7472C12.9817 47.415 13.0557 46.0826 13.1667 44.7875Z" fill="#D96B62"/>
<path fill-rule="evenodd" clip-rule="evenodd" d="M60.9456 19.5488C65.5717 21.2141 68.1992 25.5809 66.867 29.3558C65.4977 33.0937 60.6493 34.7964 56.0236 33.1311C51.4344 31.4654 48.7698 27.0615 50.1022 23.3237C51.4715 19.5488 56.3196 17.8834 60.9456 19.5488Z" fill="#D7554A"/>
<path fill-rule="evenodd" clip-rule="evenodd" d="M60.3924 21.212C63.1681 22.2113 64.7966 24.8759 63.9824 27.1334C63.131 29.3908 60.2445 30.4272 57.4318 29.3908C54.6561 28.3916 53.0276 25.7638 53.8418 23.5063C54.6932 21.212 57.5799 20.2127 60.3924 21.212Z" fill="#C0483E"/>
<defs>
<linearGradient id="paint0_linear_2006_9272" x1="-0.00662131" y1="166.837" x2="8.56055" y2="167.018" gradientUnits="userSpaceOnUse">
<stop stop-color="#D0825A"/>
<stop offset="1" stop-color="#DE9482"/>
</linearGradient>
<linearGradient id="paint1_linear_2006_9272" x1="42.6475" y1="120.855" x2="43.0503" y2="128.034" gradientUnits="userSpaceOnUse">
<stop stop-color="#443F51"/>
<stop offset="1" stop-color="#3E416B"/>
</linearGradient>
</defs>
</svg>
