<svg width="379" height="273" viewBox="0 0 379 273" fill="none" xmlns="http://www.w3.org/2000/svg">
<g clip-path="url(#clip0_2006_9037)">
<path d="M125.423 5.62329L142.783 5.67559C142.461 31.7941 142.733 57.9468 142.728 84.0685C142.726 93.6617 143.006 103.32 142.747 112.905C137.024 112.9 131.287 112.971 125.565 112.821C125.506 107.641 125.486 102.461 125.504 97.2815C125.501 94.9168 125.747 92.2502 125.378 89.932C126.119 88.2874 125.544 82.3126 125.381 80.3024C126.036 78.1513 125.602 71.2436 125.605 68.6249L125.64 43.4623C125.82 37.4126 125.525 31.3297 125.428 25.28L125.423 5.62329Z" fill="#89A2D8"/>
<path d="M160.643 5.58594C154.7 5.64266 148.728 5.81639 142.787 5.6759C142.466 31.7945 142.738 57.9471 142.732 84.0688C142.731 93.662 143.01 103.32 142.752 112.905L145.246 113.231C146.957 112.993 148.773 113.106 150.501 113.114C151.036 111.51 151.642 110.04 152.869 108.829C154.795 106.93 157.172 106.596 159.745 106.551C159.775 105.221 159.654 103.442 160.412 102.325C160.503 99.8101 160.634 97.2889 160.634 94.7726C159.824 92.1446 160.49 74.0966 160.507 70.1896L160.643 5.58594Z" fill="#F37E60"/>
<path d="M279.248 15.8814C283.219 12.4672 287.923 10.7739 293.204 11.1745C297.97 11.5357 302.22 13.7945 305.295 17.444C307.836 20.4598 308.823 23.9089 309.242 27.7605C309.276 29.5381 309.234 31.1822 308.83 32.9199C308.061 36.2228 305.61 39.9011 307.991 43.06L308.49 43.2426C309.102 42.9098 309.31 42.4063 309.499 41.7686C310.967 36.8313 312.223 34.6864 316.459 31.8434C319.43 30.4426 322.432 29.5288 325.69 30.6885C328.538 31.7021 330.866 34.1288 332.064 36.8685C333.675 40.5552 333.646 45.2829 332.136 49.0011C331.785 49.8653 331.382 50.7122 330.986 51.5564C328.94 54.5212 326.938 57.8627 324.04 60.0781C326.163 62.5435 327.466 65.1497 327.262 68.4974C327.059 71.8385 325.52 74.5046 323.311 76.9309C322.699 77.6027 321.854 78.3167 321.445 79.1091C318.215 79.7924 309.476 79.3869 305.826 79.2549C306.668 77.616 307.579 76.0109 308.139 74.2497C307.117 75.9005 306.164 77.4747 305.455 79.2903C302.768 79.028 299.91 79.1866 297.208 79.1742L281.01 79.102C278.754 75.7157 275.377 72.8405 274.495 68.7035C273.224 62.7407 278.82 59.7196 278.689 54.5292C278.608 51.3224 276.165 48.7973 274.735 46.0979C272.771 42.3926 271.271 38.0633 271.232 33.8355C271.169 26.8046 274.401 20.7824 279.248 15.8814ZM292.203 25.2726C289.43 28.9066 288.628 33.4787 289.211 37.9529C289.397 39.3804 289.921 41.7243 291.029 42.6784C289.175 37.3489 288.701 32.9172 291.205 27.7029C291.554 26.9743 291.951 26.2701 292.355 25.5695L292.203 25.2726ZM319.118 40.2809C320.094 45.7744 319.959 50.9271 317.682 56.1095C317.186 57.2392 314.129 62.5053 314.241 63.2312C314.257 63.3394 314.381 63.3983 314.451 63.4821C318.246 56.7947 321.648 49.2063 319.733 41.356C319.61 40.8544 319.524 40.6239 319.118 40.2809ZM295.401 50.8691C298.238 57.4687 298.005 62.9383 295.37 69.6018C295.023 70.4793 294.075 71.9909 294.227 72.8857L294.283 72.9517C297.042 67.2388 299.296 60.2288 297.166 53.9278C296.82 52.9059 296.33 51.462 295.401 50.8691Z" fill="#B2CBF3"/>
<path d="M173.396 24.6151C179.415 22.9798 185.436 21.3879 191.572 20.2405C193.912 31.5759 196.758 42.905 198.626 54.3246C192.082 55.7463 186.652 58.0175 181.155 61.8447C180.395 55.8194 178.798 49.7201 177.549 43.7705C176.216 37.4231 175.127 30.8597 173.396 24.6151Z" fill="#F37E60"/>
<path d="M291.032 42.6793C289.924 41.7252 289.4 39.3812 289.214 37.9538C288.631 33.4796 289.433 28.9074 292.206 25.2734L292.358 25.5704C291.954 26.271 291.557 26.9752 291.208 27.7038C288.704 32.9181 289.178 37.3498 291.032 42.6793Z" fill="#89A2D8"/>
<path d="M314.446 63.4819C314.376 63.3981 314.252 63.3392 314.235 63.231C314.124 62.5051 317.181 57.239 317.677 56.1093C319.954 50.9269 320.089 45.7742 319.113 40.2807C319.519 40.6237 319.605 40.8542 319.728 41.3558C321.643 49.2061 318.241 56.7945 314.446 63.4819Z" fill="#89A2D8"/>
<path d="M294.285 72.9477L294.229 72.8816C294.077 71.9869 295.025 70.4752 295.372 69.5978C298.008 62.9343 298.24 57.4647 295.403 50.8651C296.333 51.458 296.822 52.9018 297.168 53.9238C299.298 60.2247 297.045 67.2348 294.285 72.9477Z" fill="#89A2D8"/>
<path d="M181.154 61.846C186.651 58.0188 192.081 55.7476 198.625 54.3259C207.146 52.8612 215.392 53.253 223.48 56.5834C225.705 57.4999 227.839 58.957 230.093 59.7241C231.283 60.1292 232.705 60.2471 233.948 60.4749C236.908 61.016 239.345 62.306 241.792 64.026C250.399 70.0757 255.4 79.3826 257.125 89.6056C258.009 94.8488 257.97 100.478 257.588 105.777C257.309 107.137 255.007 107.412 253.966 108.232C252.464 109.417 251.286 111.163 250.13 112.675C245.286 107.141 240.363 101.882 236.524 95.553C235.142 93.2737 233.993 90.8142 232.789 88.4366C232.447 88.8505 232.093 89.2542 231.728 89.6477C226.97 94.722 220.592 97.5392 213.622 97.7302C211.922 97.7768 208.564 97.709 207.362 96.4056C207.109 96.1317 207.193 96.1907 207.239 95.7874C211.088 93.4359 215.357 92.3254 219.094 89.5985C210.112 91.053 201.457 92.3161 192.889 95.5472C185.61 98.2926 172.784 105.232 169.438 112.625C165.931 109.973 165.047 107.965 160.467 106.523C160.49 105.126 160.436 103.72 160.409 102.322C160.5 99.8078 160.63 97.2866 160.63 94.7703C160.833 93.6553 161.004 92.5354 161.237 91.4262C163.696 79.7536 171.053 68.3172 181.154 61.846Z" fill="#74534C"/>
<path d="M305.453 79.2858C306.163 77.4701 307.115 75.896 308.138 74.2452C307.578 76.0063 306.666 77.6115 305.824 79.2503L305.453 79.2858Z" fill="#89A2D8"/>
<path d="M277.612 79.1475L281.008 79.0996L297.207 79.1719C299.909 79.1843 302.767 79.0256 305.453 79.288L305.824 79.2525C309.474 79.3846 318.214 79.7901 321.443 79.1067C321.584 80.6556 321.496 83.3173 320.56 84.6206C320.356 84.9042 320.091 84.9375 319.752 84.9698C319.571 84.9876 319.272 84.9659 319.083 84.9557C315.27 84.6073 281.354 84.5794 279.659 85.14L278.554 84.7797C277.525 83.5193 277.798 80.7828 277.612 79.1475Z" fill="#FFBEAD"/>
<path d="M279.658 85.1365C281.353 84.5759 315.269 84.6038 319.082 84.9521L319.081 85.5535L293.076 85.4356C288.727 85.4387 283.984 85.8287 279.678 85.3559L279.658 85.1365Z" fill="#AA8530"/>
<path d="M279.678 85.3565C283.984 85.8293 288.728 85.4393 293.076 85.4362L319.081 85.5541C318.087 94.5659 315.97 104.924 313.626 113.705L313.511 114.401C303.762 114.129 293.985 114.521 284.232 114.381L284.309 113.74C285.058 112.006 279.321 89.8537 279.678 85.3565Z" fill="#FFBEAD"/>
<path d="M159.743 106.547C159.773 105.217 159.652 103.439 160.411 102.321C160.437 103.719 160.492 105.124 160.469 106.522C165.049 107.963 165.932 109.971 169.439 112.624C172.785 105.231 185.612 98.2912 192.891 95.5458C201.458 92.3146 210.114 91.0516 219.095 89.5971C215.359 92.3239 211.089 93.4345 207.241 95.7859C207.194 96.1892 207.11 96.1303 207.363 96.4042C208.566 97.7075 211.924 97.7753 213.623 97.7288C220.593 97.5378 226.971 94.7206 231.73 89.6463C232.095 89.2528 232.449 88.849 232.79 88.4351C233.994 90.8127 235.143 93.2723 236.526 95.5515C240.364 101.88 245.288 107.14 250.131 112.673C251.287 111.162 252.465 109.416 253.967 108.231C255.008 107.41 257.31 107.136 257.59 105.775L257.789 106.284C260.836 106.793 263.514 106.379 265.608 109.24C266.678 110.702 266.86 112.26 267.655 113.793L267.769 114.242C270.567 115.104 280.335 114.13 284.074 114.445C280.633 115.109 271.565 114.613 267.646 114.585C267.579 121.401 267.328 125.639 262.236 130.682C258.724 134.161 254.761 136.323 249.739 136.315C246.437 145.806 239.939 154.303 230.779 158.737L229.996 159.112C230.004 161.277 229.914 163.487 230.037 165.646C229.954 166.752 229.834 167.854 229.677 168.952C229.472 169.478 229.257 170 229.031 170.517C226.708 175.797 222.494 179.659 217.109 181.727C211.478 183.89 205.704 183.745 200.212 181.254C194.058 178.462 190.491 173.918 188.186 167.696L188.222 165.352C188.387 163.201 188.319 161 188.34 158.842C186.426 157.397 184.242 156.238 182.282 154.834C175.049 149.652 170.725 143.679 167.253 135.603C167.212 135.543 167.182 135.474 167.13 135.422C166.716 135.01 166.033 135.149 165.491 135.142L165.428 134.927C165.281 134.908 165.134 134.892 164.986 134.872C160.819 134.299 156.366 131.191 153.885 127.872C150.536 123.393 149.925 118.702 150.684 113.289C148.871 113.314 147.057 113.293 145.244 113.227C146.955 112.99 148.771 113.102 150.5 113.111C151.034 111.506 151.64 110.036 152.868 108.826C154.793 106.926 157.17 106.593 159.743 106.547ZM229.294 123.045L229.409 122.768C228.772 121.728 227.89 120.922 226.665 120.666C225.363 120.393 223.895 120.813 222.811 121.547C221.639 122.328 220.838 123.555 220.596 124.943C220.379 126.266 220.714 127.77 221.536 128.839C222.347 129.887 223.569 130.537 224.892 130.624C226.245 130.723 227.689 130.259 228.689 129.33C229.542 128.538 230.083 127.316 230.151 126.157C230.155 126.073 230.148 125.99 230.146 125.907C230.108 124.724 229.852 124.07 229.294 123.045ZM196.742 123.521C195.842 122.16 195.155 121.103 193.455 120.714C192.266 120.443 191.02 120.662 189.995 121.321C188.821 122.061 188.046 123.245 187.779 124.6C187.537 125.827 187.692 127.016 188.251 128.137C189.131 129.373 190.081 130.388 191.647 130.636C192.97 130.845 194.274 130.443 195.328 129.635C196.411 128.804 197.202 127.581 197.331 126.205C197.417 125.286 197.276 124.29 196.742 123.521ZM190.92 113.354C189.297 113.495 186.39 113.793 185.395 115.229C185.058 115.714 185.158 116.031 185.245 116.562C185.6 117.056 185.818 117.194 186.383 117.414C188.506 117.284 189.754 116.032 192.243 116.104C193.558 116.495 196.052 117.528 197.396 116.819C197.673 116.672 197.72 116.608 197.929 116.415C197.991 115.91 197.921 115.66 197.585 115.259C196.312 113.743 193.683 113.336 191.822 113.329C191.521 113.329 191.22 113.338 190.92 113.354ZM224.755 113.557C223.198 113.792 220.494 114.186 219.606 115.652C219.319 116.126 219.407 116.414 219.512 116.911C220.196 117.453 220.722 117.495 221.581 117.397C223.316 117.198 224.733 116.538 226.532 116.587L226.928 116.594C228.325 116.946 230.493 117.994 231.824 117.249C232.215 117.029 232.192 116.875 232.332 116.501C232.119 115.641 231.651 115.123 230.91 114.656C229.106 113.521 226.821 113.487 224.755 113.557ZM155.828 114.532L155.406 115.277C155.577 115.886 155.787 115.932 156.327 116.231C157.453 116.851 158.763 117.436 159.658 118.388C161.884 120.759 162.717 126.812 164.575 128.334C164.959 127.799 165.077 127.708 165.008 127.02C164.718 124.113 161.528 117.592 158.96 115.995C157.974 115.382 156.911 114.941 155.828 114.532ZM261.022 114.574C258.124 115.923 256.009 117.634 254.895 120.744C254.192 122.711 253.807 124.796 252.802 126.638C252.45 127.282 251.908 127.751 252.161 128.458C252.578 128.642 252.679 128.77 253.14 128.685C255.153 125.316 255.392 120.604 258.263 117.9C258.796 117.398 262.106 115.593 262.225 115.374C262.287 115.259 262.261 115.114 262.279 114.984C261.751 114.555 261.709 114.585 261.022 114.574ZM206.697 131.065C205.149 131.28 204.018 131.684 203.004 132.934C202.372 133.713 202.05 134.716 202.178 135.717C202.326 136.872 203.067 137.88 204.007 138.533C205.949 139.883 208.298 139.636 210.519 139.441L210.912 139.184L210.937 138.751L210.579 138.376C208.75 138.45 205.929 138.91 204.449 137.628C203.701 136.981 203.374 135.702 203.325 134.752C203.296 134.171 203.455 133.587 203.897 133.186C205.317 131.898 207.457 132.736 208.981 131.936L208.981 131.578C208.177 131.155 207.598 131.099 206.697 131.065ZM182.581 131.963C180.295 132.19 177.946 132.782 176.446 134.673C175.585 135.753 175.197 137.136 175.371 138.506C175.583 140.276 176.677 141.809 178.084 142.854C179.993 144.272 182.01 144.59 184.323 144.552C186.592 144.157 188.653 143.423 190.001 141.417C190.869 140.13 191.183 138.548 190.873 137.028C190.579 135.474 189.662 134.11 188.334 133.252C186.586 132.12 184.593 132.024 182.581 131.963ZM232.281 132.404C229.625 132.644 227.023 133.071 225.201 135.241C224.327 136.282 223.935 137.572 224.109 138.923C224.312 140.498 225.248 141.89 226.502 142.835C227.965 143.939 229.603 144.379 231.4 144.533C233.855 144.515 236.145 144.02 237.962 142.234C239.084 141.13 239.789 139.655 239.798 138.069C239.818 136.654 239.244 135.296 238.214 134.325C236.581 132.784 234.416 132.53 232.281 132.404ZM200.439 145.96C200.493 147.078 201.278 148.181 202.096 148.95C203.894 150.643 206.842 151.303 209.246 151.181C211.615 151.06 214.104 150.087 215.72 148.306C216.069 147.922 216.38 147.502 216.688 147.086L216.635 146.399L216.293 146.257C215.835 146.602 215.502 146.959 215.121 147.389C213.589 149.113 211.846 150.034 209.526 150.162C206.969 150.303 204.504 149.564 202.614 147.8C201.875 147.111 201.432 146.195 200.439 145.96Z" fill="#E9B49C"/>
<path d="M73.0825 112.333L124.598 111.803C128.046 111.803 129.285 111.943 128.315 112.865C131.66 113.525 59.1557 113.164 62.5415 113.457C57.3609 113.669 49.1702 112.024 45.3949 116.264C42.002 120.075 42.9029 126.485 42.9309 131.244C42.9379 132.422 43.0567 133.852 42.7846 135.005L42.7682 135.86C42.9632 141.875 42.8347 147.932 42.8409 153.953C42.8453 158.123 43.0651 162.413 42.8072 166.563C42.5546 169.978 42.3082 179.12 42.9548 182.235C42.5843 184.374 42.8387 186.889 42.8467 189.084L42.8746 202.541L42.77 226.884C42.754 231.203 42.5409 235.669 42.8409 239.975L42.9902 241.419L42.9783 258.619L42.9787 270.835L41.9107 270.858C41.5734 254.471 41.8779 238.017 42.0006 221.625L42.0472 175.614L42.056 139.376C42.0534 133.349 41.6545 127.056 42.1544 121.067C42.2927 119.264 42.961 117.542 44.0756 116.117C45.4157 114.392 47.3475 113.232 49.4583 112.715C51.5602 112.2 53.8204 112.349 55.9675 112.353L66.522 112.388C68.624 112.395 68.3028 112.333 70.4271 112.333C71.3949 112.333 72.2437 112.333 73.0825 112.333Z" fill="url(#paint0_linear_2006_9037)"/>
<path d="M192.245 116.104C189.755 116.032 188.508 117.285 186.385 117.414C185.82 117.195 185.602 117.056 185.247 116.562C185.159 116.031 185.06 115.714 185.396 115.23C186.391 113.793 189.299 113.496 190.921 113.354C191.222 113.338 191.522 113.33 191.823 113.33C193.685 113.336 196.314 113.743 197.586 115.259C197.923 115.661 197.993 115.911 197.931 116.415C197.721 116.609 197.675 116.673 197.398 116.819C196.054 117.529 193.56 116.495 192.245 116.104Z" fill="#904A39"/>
<path d="M226.93 116.597L226.533 116.589C224.735 116.54 223.317 117.201 221.582 117.399C220.723 117.498 220.197 117.455 219.513 116.913C219.408 116.416 219.32 116.129 219.608 115.654C220.495 114.189 223.199 113.795 224.756 113.559C226.822 113.489 229.107 113.523 230.911 114.659C231.652 115.125 232.12 115.643 232.333 116.503C232.193 116.877 232.217 117.031 231.825 117.251C230.494 117.996 228.326 116.948 226.93 116.597Z" fill="#904A39"/>
<path d="M313.627 113.708C318.311 113.608 325.183 112.42 328.792 115.908C329.925 117.003 330.944 118.423 331.438 119.933C332.408 122.9 331.913 133.804 331.909 137.419C331.898 146.372 331.543 155.459 331.919 164.399L331.028 164.9L330.989 136.143C321.844 135.891 312.643 136.076 303.492 136.072L263.839 136.077C263.566 136.364 263.327 136.576 263.157 136.938C263.116 136.354 262.868 135.913 262.871 135.325C263.699 134.832 324.685 135.196 330.974 135.206C331.002 133.873 330.991 132.537 330.996 131.204C331.01 127.06 331.923 120.104 328.645 116.978C325.035 113.535 318.14 114.414 313.513 114.404L313.627 113.708Z" fill="#D4987C"/>
<path d="M267.655 113.796C273.188 113.617 278.774 113.679 284.311 113.743L284.234 114.384L284.074 114.449C280.336 114.134 270.568 115.108 267.77 114.246L267.655 113.796Z" fill="#F37E60"/>
<path d="M164.575 128.339C162.717 126.817 161.884 120.764 159.657 118.393C158.763 117.441 157.453 116.857 156.327 116.236C155.786 115.937 155.577 115.891 155.405 115.282L155.828 114.537C156.91 114.946 157.974 115.388 158.959 116C161.528 117.598 164.718 124.118 165.008 127.026C165.077 127.713 164.959 127.804 164.575 128.339Z" fill="#E99E87"/>
<path d="M253.143 128.685C252.682 128.77 252.582 128.643 252.165 128.459C251.912 127.752 252.454 127.283 252.805 126.639C253.81 124.797 254.195 122.711 254.899 120.745C256.013 117.634 258.128 115.923 261.025 114.574C261.713 114.586 261.755 114.556 262.282 114.985C262.264 115.115 262.291 115.26 262.228 115.375C262.11 115.594 258.8 117.399 258.266 117.901C255.396 120.605 255.156 125.316 253.143 128.685Z" fill="#E99E87"/>
<path d="M196.742 123.523C196.098 123.108 195.738 122.945 194.979 122.838C194.476 123.031 194.253 123.068 194.041 123.614C193.996 123.73 193.983 123.856 193.954 123.977C194.53 124.435 194.691 124.602 195.435 124.731C196.148 124.474 196.384 124.174 196.742 123.523C197.276 124.293 197.418 125.289 197.332 126.207C197.203 127.583 196.412 128.806 195.329 129.637C194.275 130.445 192.97 130.848 191.648 130.638C190.082 130.39 189.131 129.375 188.252 128.139C187.692 127.018 187.537 125.83 187.78 124.602C188.047 123.247 188.822 122.063 189.996 121.324C191.021 120.665 192.267 120.446 193.455 120.716C195.156 121.106 195.843 122.162 196.742 123.523Z" fill="#533B39"/>
<path d="M229.292 123.045C228.665 123.419 228.458 123.478 228.119 124.144C228.201 124.77 228.277 125.111 228.836 125.505C229.274 125.813 229.602 125.899 230.143 125.907C230.145 125.99 230.153 126.074 230.148 126.157C230.081 127.316 229.539 128.538 228.686 129.33C227.687 130.259 226.243 130.723 224.889 130.624C223.567 130.537 222.345 129.887 221.534 128.839C220.712 127.77 220.376 126.266 220.594 124.944C220.836 123.556 221.636 122.328 222.809 121.547C223.893 120.814 225.36 120.393 226.663 120.666C227.888 120.923 228.769 121.728 229.407 122.768L229.292 123.045ZM221.804 124.732C221.374 124.953 221.196 125.475 221.401 125.913C221.607 126.351 222.122 126.547 222.567 126.357C222.869 126.228 223.077 125.945 223.108 125.618C223.14 125.291 222.991 124.973 222.719 124.788C222.447 124.604 222.097 124.582 221.804 124.732Z" fill="#533B39"/>
<path d="M370.579 129.58C372.462 128.633 374.455 127.893 376.592 127.886C379.628 127.876 382.061 129.408 384.141 131.461C385.341 133.715 386.039 135.664 385.993 138.273C385.24 141.492 383.864 143.726 381.3 145.868C381.418 152.746 380.204 159.041 375.254 164.148C374.203 165.233 372.974 166.147 371.746 167.022C379.071 172.274 385.583 179.198 387.059 188.481C387.371 190.443 387.352 192.798 386.098 194.455C385.549 195.182 384.786 195.687 383.87 195.794C381.898 196.025 379.915 194.622 378.492 193.397C377.074 192.177 375.874 190.778 374.741 189.294C375.202 196.08 374.715 202.163 373.004 208.775C370.51 208.885 368.034 208.856 365.54 208.807C367.606 207.102 368.826 205.072 369.775 202.588C371.42 198.281 370.798 195.13 368.988 191.029C368.458 185.74 366.82 173.97 362.594 170.6C361.158 169.454 352.43 167.99 350.434 168.278C347.289 168.733 344.875 171.431 343.145 173.904C338.606 180.397 336.547 188.152 336.585 196.017C335.323 194.25 334.335 192.065 333.195 190.191C334.08 186.261 334.956 182.354 335.983 178.457C334.562 179.432 333.123 180.382 331.667 181.305C331.661 182.725 331.633 184.127 331.521 185.544C331.549 186.451 331.581 187.332 331.466 188.236L330.943 187.923C330.849 185.799 330.992 183.659 330.906 181.527C328.364 182.622 324.934 184.009 322.106 183.554C321.251 183.417 320.471 183.019 319.997 182.275C319.268 181.133 319.324 179.537 319.623 178.27C320.874 172.954 326.553 167.657 331.026 164.904L331.918 164.403C335.192 162.566 338.145 161.419 341.837 160.766C341.023 159.306 340.229 157.848 339.604 156.296C337.075 150.015 337.486 143.667 340.1 137.511C339.839 137.179 339.599 136.849 339.379 136.489C337.801 133.908 337.451 130.916 338.227 128.005C338.92 125.403 340.513 123.186 342.864 121.842C345.131 120.546 347.894 120.133 350.424 120.832C353.128 121.579 355.195 123.491 356.545 125.894C361.999 125.897 365.835 126.979 370.579 129.58ZM347.173 125.471C345.624 125.909 344.063 126.575 343.274 128.076C342.475 129.595 342.778 131.153 343.313 132.699L345.271 130.493C347.18 128.738 349.034 128.224 351.483 127.637C350.406 126.446 349.51 125.605 347.828 125.485C347.61 125.469 347.391 125.472 347.173 125.471ZM376.545 132.788C375.996 133.022 375.358 133.163 374.998 133.643C375.481 134.392 376.157 134.894 376.809 135.488C378.413 136.95 379.228 138.529 379.998 140.522C380.699 140.073 380.929 138.763 381.174 137.962C380.88 136.286 380.568 134.542 379.059 133.503C378.27 132.96 377.48 132.828 376.545 132.788ZM351.448 141.059C351.097 141.184 350.843 141.491 350.786 141.858C350.729 142.226 350.877 142.596 351.174 142.821C351.47 143.047 351.866 143.091 352.205 142.938C352.7 142.714 352.931 142.139 352.728 141.636C352.524 141.132 351.96 140.877 351.448 141.059ZM366.929 145.513C366.614 145.679 366.421 146.007 366.428 146.362C366.436 146.718 366.644 147.038 366.965 147.189C367.287 147.341 367.666 147.298 367.945 147.078C368.326 146.778 368.415 146.238 368.151 145.831C367.887 145.425 367.357 145.287 366.929 145.513ZM355.15 145.889C352.211 146.95 347.996 147.887 346.575 150.98C345.762 152.752 346.088 154.706 346.823 156.444C348.097 159.46 350.585 161.971 353.66 163.131C355.774 163.928 357.815 163.905 360.016 163.681C362.979 162.971 366.185 161.782 367.898 159.077C368.805 157.645 369.115 155.923 368.654 154.28C367.762 151.106 363.704 148.473 360.919 147.029C358.991 146.029 357.326 145.667 355.15 145.889Z" fill="#F37E60"/>
<path d="M193.95 123.979C193.979 123.858 193.992 123.732 194.037 123.616C194.249 123.069 194.472 123.033 194.976 122.839C195.734 122.947 196.094 123.11 196.739 123.525C196.38 124.176 196.144 124.476 195.432 124.733C194.687 124.604 194.527 124.437 193.95 123.979Z" fill="#FEFEFE"/>
<path d="M230.151 125.908C229.61 125.9 229.281 125.815 228.843 125.506C228.284 125.112 228.208 124.772 228.126 124.145C228.465 123.479 228.672 123.42 229.299 123.047C229.857 124.072 230.113 124.726 230.151 125.908Z" fill="#FEFEFE"/>
<path d="M222.568 126.36C222.123 126.55 221.608 126.353 221.402 125.916C221.197 125.478 221.375 124.956 221.806 124.735C222.098 124.585 222.449 124.606 222.72 124.791C222.992 124.976 223.141 125.294 223.11 125.621C223.078 125.948 222.87 126.231 222.568 126.36Z" fill="#FEFEFE"/>
<path d="M343.311 132.697C342.775 131.151 342.472 129.594 343.271 128.074C344.06 126.574 345.621 125.907 347.17 125.47C347.388 125.47 347.607 125.468 347.825 125.483C349.508 125.604 350.403 126.444 351.48 127.636C349.031 128.223 347.177 128.737 345.269 130.491L343.311 132.697Z" fill="#CF6448"/>
<path d="M210.582 138.378L210.94 138.753L210.915 139.186L210.522 139.443C208.301 139.638 205.952 139.886 204.01 138.536C203.071 137.883 202.329 136.874 202.181 135.719C202.053 134.718 202.375 133.715 203.007 132.936C204.022 131.686 205.152 131.282 206.7 131.067C207.601 131.101 208.18 131.157 208.984 131.58L208.985 131.939C207.461 132.738 205.32 131.9 203.901 133.188C203.458 133.59 203.299 134.173 203.328 134.754C203.377 135.704 203.704 136.983 204.452 137.63C205.933 138.912 208.753 138.452 210.582 138.378Z" fill="#682A24"/>
<path d="M184.322 144.557C182.008 144.594 179.992 144.276 178.082 142.858C176.676 141.814 175.581 140.28 175.37 138.511C175.196 137.14 175.583 135.757 176.445 134.677C177.945 132.786 180.294 132.194 182.58 131.967C184.591 132.028 186.584 132.125 188.333 133.256C189.66 134.114 190.578 135.479 190.871 137.032C191.182 138.552 190.867 140.134 190 141.421C188.652 143.427 186.59 144.162 184.322 144.557Z" fill="#E99E87"/>
<path d="M231.396 144.535C229.598 144.382 227.961 143.942 226.497 142.838C225.244 141.893 224.308 140.501 224.105 138.925C223.931 137.575 224.323 136.285 225.196 135.244C227.019 133.074 229.621 132.647 232.277 132.407C234.412 132.533 236.577 132.787 238.21 134.328C239.239 135.298 239.814 136.657 239.794 138.071C239.785 139.657 239.079 141.133 237.957 142.236C236.141 144.023 233.85 144.518 231.396 144.535Z" fill="#E99E87"/>
<path d="M380 140.519C379.23 138.526 378.416 136.947 376.811 135.485C376.159 134.89 375.483 134.388 375 133.64C375.36 133.159 375.998 133.019 376.547 132.785C377.483 132.824 378.272 132.956 379.061 133.499C380.57 134.538 380.882 136.283 381.176 137.958C380.931 138.76 380.701 140.07 380 140.519Z" fill="#CF6448"/>
<path d="M42.7695 135.853L42.7859 134.998C53.2562 134.568 63.8302 134.965 74.3147 134.944C95.889 134.786 117.464 134.773 139.039 134.905L157.467 135.007C160.129 135.03 162.835 135.255 165.49 135.142C166.031 135.15 166.714 135.01 167.129 135.422C167.181 135.474 167.211 135.543 167.252 135.603C165.055 136.289 159.718 135.829 157.259 135.826L137.205 135.803L42.7695 135.853Z" fill="#F37E60"/>
<path d="M263.157 136.94C263.327 136.577 263.566 136.366 263.839 136.079C264.155 140.357 263.947 144.76 263.952 149.053L263.988 172.859L263.279 172.364C263.091 168.223 263.229 164.01 263.226 159.861L263.157 136.94Z" fill="#F37E60"/>
<path d="M83.709 148.035C83.7462 146.146 83.7586 144.406 84.6215 142.674C85.2951 141.322 86.4544 140.166 87.9182 139.712C88.9348 139.396 89.9887 139.495 90.922 140.008C92.8108 141.047 93.5482 142.953 94.072 144.906C94.057 145.902 94.2528 147.199 93.78 148.087C93.3102 148.405 92.9499 148.384 92.4008 148.415C92.4301 146.667 92.5356 145.039 91.6568 143.453C91.1648 142.566 90.3787 141.797 89.3651 141.564C88.6614 141.402 87.9488 141.536 87.3594 141.955C86.2483 142.745 85.6979 144.09 85.4528 145.38C85.3824 146.231 85.5003 147.63 84.9937 148.328C84.4779 148.427 84.3077 148.35 83.8171 148.111C83.7772 148.092 83.7449 148.06 83.709 148.035Z" fill="url(#paint1_linear_2006_9037)"/>
<path d="M352.205 142.933C351.866 143.087 351.47 143.042 351.174 142.817C350.877 142.591 350.728 142.222 350.785 141.854C350.843 141.486 351.097 141.179 351.448 141.055C351.96 140.873 352.524 141.127 352.727 141.631C352.93 142.135 352.7 142.709 352.205 142.933Z" fill="#45404A"/>
<path d="M94.0797 144.904C94.1674 145.763 94.0004 147.377 94.3957 148.05C95.0892 148.156 95.5537 148.081 96.035 148.611C96.6412 154.171 96.1506 161.218 96.1081 166.93C91.5696 166.597 86.7843 166.572 82.2351 166.815C82.2489 163.957 81.6324 150.152 82.4288 148.514C82.876 148.197 83.1778 148.119 83.7167 148.033C83.7526 148.058 83.7849 148.09 83.8248 148.109C84.3154 148.348 84.4856 148.425 85.0014 148.326C85.5079 147.628 85.3901 146.229 85.4605 145.378L85.4902 148.447L92.4085 148.413C92.9576 148.382 93.3179 148.403 93.7877 148.084C94.2605 147.197 94.0646 145.9 94.0797 144.904Z" fill="#89A2D8"/>
<path d="M367.949 147.076C367.671 147.296 367.291 147.339 366.97 147.187C366.649 147.035 366.441 146.715 366.433 146.36C366.425 146.005 366.619 145.676 366.933 145.51C367.362 145.284 367.892 145.423 368.156 145.829C368.42 146.235 368.33 146.776 367.949 147.076Z" fill="#45404A"/>
<path d="M360.019 163.677C357.818 163.9 355.777 163.923 353.663 163.126C350.587 161.966 348.1 159.455 346.826 156.439C346.091 154.701 345.764 152.747 346.577 150.975C347.998 147.882 352.214 146.945 355.153 145.884C357.328 145.662 358.993 146.024 360.921 147.024C363.706 148.468 367.765 151.101 368.656 154.276C369.118 155.918 368.808 157.64 367.901 159.072C366.188 161.777 362.981 162.967 360.019 163.677ZM356.583 152.083C356.522 151.984 356.459 151.886 356.399 151.786C356.219 151.485 356.148 151.246 356.063 150.91C355.915 150.319 355.505 149.802 355.006 149.456L354.465 149.68C354.256 150.624 354.246 151.298 354.319 152.261C355.041 153.885 355.872 154.255 357.47 154.874L357.636 154.793C358.377 154.439 359.182 154.114 359.732 153.48C360.189 152.954 360.74 152.192 360.71 151.473L360.344 151.241C359.868 151.238 359.591 151.27 359.147 151.467C358.305 151.84 357.764 152.065 356.829 152.083C356.747 152.085 356.665 152.083 356.583 152.083Z" fill="#E9B49C"/>
<path d="M216.689 147.088C216.381 147.504 216.069 147.925 215.721 148.308C214.105 150.089 211.615 151.062 209.246 151.183C206.843 151.306 203.894 150.645 202.096 148.952C201.278 148.183 200.494 147.08 200.439 145.962C201.433 146.197 201.875 147.113 202.614 147.802C204.505 149.567 206.97 150.305 209.527 150.164C211.847 150.036 213.589 149.115 215.121 147.391C215.503 146.962 215.836 146.604 216.293 146.259L216.635 146.401L216.689 147.088Z" fill="#682A24"/>
<path d="M356.581 152.083C355.886 152.057 354.917 151.896 354.317 152.261C354.243 151.297 354.254 150.624 354.463 149.68L355.003 149.456C355.503 149.802 355.912 150.319 356.061 150.909C356.146 151.245 356.217 151.485 356.397 151.786C356.457 151.886 356.52 151.984 356.581 152.083Z" fill="#5D4130"/>
<path d="M354.321 152.26C354.922 151.895 355.891 152.057 356.585 152.082C356.667 152.082 356.749 152.084 356.831 152.082C357.767 152.064 358.307 151.839 359.15 151.466C359.593 151.27 359.871 151.237 360.346 151.24L360.712 151.472C360.742 152.191 360.192 152.953 359.735 153.479C359.184 154.113 358.38 154.438 357.639 154.792L357.473 154.873C355.874 154.254 355.044 153.884 354.321 152.26Z" fill="#45404A"/>
<path d="M296.166 169.237C291.651 169.91 287.449 166.781 286.8 162.261C286.152 157.742 289.303 153.557 293.826 152.932C298.315 152.312 302.462 155.435 303.105 159.921C303.749 164.406 300.649 168.57 296.166 169.237ZM293.235 154.038C289.306 154.965 286.88 158.911 287.827 162.835C288.775 166.759 292.734 169.164 296.653 168.196C300.543 167.235 302.926 163.312 301.985 159.417C301.045 155.522 297.135 153.119 293.235 154.038Z" fill="#D4987C"/>
<path d="M162.148 168.051C171.006 164.405 178.92 165.298 188.222 165.355L188.186 167.699C187.732 172.068 188.021 176.659 188.033 181.054L188.079 206.8C175.91 204.182 163.399 205.349 151.053 205.188C154.316 204.502 158.514 204.962 161.894 204.976C161.889 192.668 161.974 180.359 162.148 168.051Z" fill="#B2CBF3"/>
<path d="M230.038 165.648C235.482 165.656 250.505 164.876 254.442 168.54L254.592 205.088C246.487 205.226 237.564 204.867 229.735 207.25L229.802 182.708C229.806 178.196 230.107 173.434 229.678 168.953C229.835 167.855 229.955 166.753 230.038 165.648Z" fill="#B2CBF3"/>
<path d="M82.2292 166.819C86.7784 166.577 91.5637 166.602 96.1022 166.935C100.152 167.162 104.825 165.875 107.866 169.357C109.589 171.331 110.123 173.966 109.871 176.522C109.701 178.186 109.262 179.811 108.573 181.335C108.23 181.703 107.907 182.047 107.622 182.463C106.91 182.994 106.299 183.461 105.75 184.165C100.876 184.33 95.9581 184.206 91.0775 184.204C84.6826 184.201 78.2749 184.279 71.8822 184.143C70.9116 183.297 70.0186 182.555 68.7436 182.254C68.9679 181.774 68.8775 181.765 68.7609 181.276C68.2761 179.723 67.918 178.197 67.8219 176.569C67.6805 174.178 67.9437 171.223 69.6579 169.409C72.6564 166.235 78.246 166.941 82.2292 166.819Z" fill="#E9B49C"/>
<path d="M42.8054 166.558C43.0514 171.453 42.8466 176.388 42.9246 181.291C51.5199 181.261 60.1687 181.025 68.7582 181.275C68.8748 181.764 68.9652 181.773 68.7409 182.253C60.1537 182.064 51.5434 182.252 42.953 182.23C42.3064 179.116 42.5528 169.973 42.8054 166.558Z" fill="#D4987C"/>
<path d="M188.082 206.8L188.036 181.054C188.024 176.659 187.735 172.069 188.189 167.699C190.494 173.922 194.061 178.465 200.215 181.257C205.707 183.748 211.481 183.893 217.112 181.73C222.497 179.662 226.711 175.8 229.034 170.521C229.26 170.003 229.475 169.481 229.68 168.955C230.109 173.435 229.808 178.198 229.804 182.71L229.737 207.252C221.504 210.08 213.864 216.006 209.732 223.783L209.395 223.668C204.227 215.214 197.555 209.77 188.082 206.8Z" fill="#89A2D8"/>
<path d="M139.026 181.417C141.28 180.342 144.425 177.427 146.658 175.908C151.495 172.616 156.744 170.235 162.149 168.052C161.975 180.36 161.89 192.668 161.895 204.977C158.516 204.963 154.318 204.503 151.054 205.189C150.93 211.534 151.205 217.964 150.888 224.293C150.868 225.331 150.892 226.361 150.925 227.398L149.627 227.347C149.681 226.38 150.193 225.285 150.501 224.364C144.396 221.086 137.906 218.161 131.543 215.413C129.864 214.688 124.664 212.945 123.538 212.145C122.909 208.82 121.751 206.683 119.18 204.485C120.998 202.047 122.564 199.419 124.405 196.994C128.566 191.515 133.218 186.953 138.199 182.261L139.026 181.417Z" fill="#89A2D8"/>
<path d="M368.991 191.022C366.623 188.538 364.061 186.929 360.512 186.835C357.446 186.754 354.605 187.976 352.459 190.155C350.384 192.263 348.647 195.853 348.781 198.88C348.784 198.946 348.795 199.012 348.801 199.078C348.715 199.511 348.602 199.883 348.436 200.292C346.418 200.568 338.49 197.648 336.575 196.559L336.588 196.01C336.55 188.145 338.609 180.39 343.149 173.898C344.878 171.425 347.292 168.726 350.437 168.272C352.433 167.983 361.161 169.447 362.598 170.593C366.824 173.964 368.462 185.733 368.991 191.022Z" fill="#E9B49C"/>
<path d="M254.444 168.542C257.211 169.737 260.438 171.529 263.282 172.362L263.991 172.857C276.634 180.197 286.391 188.307 295.049 200.232C296.339 202.009 298.854 205.339 299.427 207.428C299.498 207.685 299.483 207.726 299.476 207.958C298.682 208.27 297.755 208.178 296.912 208.177C288.671 208.351 280.037 212.692 272.989 216.699C271.282 217.67 269.425 219.458 267.497 219.806L267.538 205.111C263.224 205.022 258.909 205.014 254.594 205.09L254.444 168.542Z" fill="#89A2D8"/>
<path d="M107.624 182.461C107.909 182.046 108.232 181.701 108.575 181.333L129.312 181.326C132.448 181.325 135.923 181.021 139.025 181.415L138.198 182.259C131.521 182.194 124.844 182.174 118.167 182.199C114.778 182.202 110.951 181.867 107.624 182.461Z" fill="#D4987C"/>
<path d="M65.8024 202.814C65.5144 202.594 65.2312 202.368 64.9533 202.136C62.878 200.385 61.3805 197.701 61.1726 194.978C60.9657 192.265 61.9992 189.558 63.8268 187.565C66.0546 185.136 68.7007 184.281 71.888 184.142C78.2807 184.278 84.6885 184.2 91.0834 184.203C95.964 184.205 100.881 184.329 105.756 184.164C108.936 184.221 111.613 185.132 113.851 187.506C115.663 189.428 116.644 191.925 116.513 194.574C116.388 197.094 115.248 199.746 113.314 201.409C112.719 201.922 112.003 202.334 111.33 202.737C107.63 203.05 103.923 202.951 100.212 202.937L84.5099 202.884C78.6804 202.877 71.4825 203.422 65.8024 202.814Z" fill="#B2CBF3"/>
<path d="M348.801 199.082C348.794 199.016 348.784 198.95 348.781 198.884C348.646 195.857 350.383 192.267 352.458 190.159C354.604 187.98 357.446 186.758 360.512 186.839C364.061 186.933 366.622 188.542 368.99 191.026C370.8 195.127 371.423 198.278 369.778 202.586C368.829 205.069 367.609 207.099 365.542 208.804C362.837 209.179 354.924 209.364 352.281 208.764L350.281 206.074C349.183 203.693 348.75 201.7 348.801 199.082Z" fill="#A7725D"/>
<path d="M336.571 196.561C338.486 197.649 346.414 200.569 348.432 200.293C348.598 199.884 348.712 199.512 348.798 199.079C348.747 201.697 349.18 203.69 350.278 206.071C345.468 205.648 340.719 204.241 336.103 202.865C336.564 200.764 336.165 198.642 336.571 196.561Z" fill="#F37E60"/>
<path d="M60.2692 221.878C59.4289 221.561 58.6379 221.126 57.9208 220.585C55.7954 218.977 54.4956 216.655 54.2142 214.009C53.9261 211.303 54.6055 208.585 56.4154 206.514C58.8909 203.683 62.2373 203.042 65.7942 202.816C71.4743 203.424 78.6722 202.879 84.5016 202.886L100.204 202.939C103.915 202.953 107.621 203.052 111.322 202.739C114.326 202.759 116.459 203.129 119.174 204.485C121.746 206.683 122.903 208.82 123.532 212.145C123.109 216.007 121.967 218.258 118.942 220.701C118.73 220.872 118.516 221.041 118.302 221.209C122.055 221.146 125.526 221.738 128.353 224.471C130.403 226.414 131.555 229.12 131.537 231.945C131.508 234.905 130.16 237.571 128.036 239.579C126.857 240.008 126.23 240.502 125.527 241.54C121.793 241.824 91.2373 241.834 89.6809 241.057C90.686 240.517 91.9823 239.838 92.6049 238.843C93.7882 236.951 93.6907 228.952 93.1709 226.726C92.6648 224.559 91.9123 223.48 90.0377 222.323C83.2732 221.894 76.3097 222.225 69.5239 222.24C66.5462 222.247 63.1662 222.559 60.2692 221.878Z" fill="#FFBEAD"/>
<path d="M150.89 224.29C151.206 217.961 150.932 211.53 151.055 205.186C163.402 205.346 175.912 204.18 188.082 206.797C197.555 209.767 204.227 215.211 209.395 223.665C209.102 226.314 209.389 244.38 209.385 244.39C209.336 244.514 209.217 244.597 209.133 244.701L209.263 244.832L209.403 244.352L209.275 244.836L208.817 244.375L208.684 244.537C209.634 250.422 209.086 256.305 208.943 262.227C208.86 265.647 208.995 269.072 208.943 272.493C208.728 272.454 208.511 272.419 208.299 272.368C207.508 272.18 207.332 271.901 206.915 271.257C204.736 267.766 199.723 264.775 196.03 263.108C188.136 259.545 180.379 258.686 171.816 259.231C169.826 259.357 167.584 259.367 165.705 260.073C164.849 258.007 164.047 257.151 162.111 256.114C162.989 255.935 163.861 255.713 164.658 255.289C165.381 254.905 166.191 254.113 166.379 253.287C166.535 252.599 166.441 252.009 166.064 251.42C165.241 250.137 163.735 249.808 162.358 249.458C163.185 248.941 164.093 248.462 164.581 247.582C165.001 246.824 165.141 246.146 164.85 245.303C164.288 243.672 162.529 243.102 161.085 242.557C168.721 242.015 174.725 241.068 182.505 242.352C192.175 243.948 199.605 247.746 205.58 255.599C206.328 256.583 206.735 257.743 207.459 258.751L207.553 258.463C205.97 254.226 201.995 250.358 198.332 247.852C187.901 240.717 172.059 239.989 159.917 242.312C157.025 241.89 154.11 241.637 151.189 241.554C151.17 241.538 151.149 241.525 151.133 241.508C151.113 241.485 150.806 241.107 150.805 241.105C150.606 240.323 151.009 237.886 151.048 236.942C151.18 233.781 151.126 230.603 151.117 227.441C151.094 226.594 151.045 225.811 151.27 224.988C153.16 224.424 155.308 224.325 157.266 224.076C167.079 222.828 178.264 222.126 187.825 225.127C195.002 227.379 201.626 231.667 205.578 238.183C206.675 239.992 207.372 241.869 208.331 243.718L208.468 243.46C207.843 240.913 206.077 237.996 204.533 235.887C197.097 225.725 183.495 222.564 171.542 222.543C167.832 222.537 164.043 222.938 160.354 223.289C158.358 223.479 152.726 224.728 151.095 224.36C151.024 224.344 150.958 224.313 150.89 224.29Z" fill="#FEFEFE"/>
<path d="M229.735 207.251C237.563 204.868 246.487 205.227 254.592 205.089C258.906 205.013 263.222 205.021 267.536 205.111L267.494 219.805C267.494 221.366 267.554 222.956 267.457 224.513C261.792 222.205 244.835 221.917 238.472 222.665C234.29 223.156 230.012 224.077 226.12 225.699C217.591 229.254 213.133 235.135 209.701 243.44C209.503 239.683 209.597 235.872 209.581 232.109C209.57 229.381 209.355 226.478 209.729 223.782C213.861 216.005 221.502 210.079 229.735 207.251Z" fill="#FEFEFE"/>
<path d="M267.491 219.806C269.42 219.459 271.277 217.67 272.984 216.7C280.032 212.693 288.666 208.352 296.907 208.178C296.748 208.648 296.732 208.428 296.905 208.841C295.052 209.53 294.128 210.182 293.189 211.921C293.025 216.709 293.105 221.512 293.112 226.302C293.116 229.86 293.005 233.465 293.169 237.017C293.931 238.143 294.854 239.015 295.835 239.945C294.048 239.919 289.098 239.379 287.769 240.601C287.014 241.294 286.724 242.997 286.605 243.956C286.247 246.833 286.487 249.968 286.489 252.869L286.471 269.094C286.841 269.68 287.185 270.271 287.662 270.778C281.49 270.557 275.236 270.662 269.059 270.701C265.757 270.723 262.314 270.921 259.029 270.575C257.333 269.365 254.567 268.934 253.868 266.569C253.694 265.983 253.734 265.607 254.042 265.078C254.595 264.13 255.731 263.851 256.705 263.569C256.487 263.489 256.27 263.406 256.053 263.321C254.897 262.862 253.871 262.245 253.405 261.02C253.16 260.377 253.198 259.689 253.508 259.073C254.313 257.475 255.919 257.16 257.485 256.673C256.04 256.12 254.098 255.515 253.512 253.896C253.268 253.223 253.281 252.596 253.63 251.96C254.422 250.521 255.897 250.242 257.354 249.847C256.161 249.268 254.279 248.625 253.805 247.249C253.591 246.631 253.759 245.99 254.043 245.427C256.185 241.189 264.29 244.019 267.528 242.908L267.615 242.227L267.647 241.592C267.425 237.381 267.365 233.163 267.468 228.948C269.997 233.046 271.638 237.853 273.725 242.205C279.565 243.479 282.126 246.934 283.677 252.476C283.866 253.151 283.927 254.143 284.473 254.58C284.812 254.202 284.781 254.372 284.803 253.946C284.914 251.83 282.2 246.657 280.811 245.059C279.002 242.978 276.979 241.922 274.247 241.724C272.136 237.801 270.047 230.662 267.474 227.529L267.394 224.823L267.455 224.515C267.551 222.957 267.491 221.368 267.491 219.806ZM257.631 249.436L257.798 249.776C263.183 250.195 268.8 249.854 274.219 249.957L274.201 249.53C271.086 248.875 261.307 249.342 257.631 249.436ZM257.288 256.737C260.058 257.558 271.187 257.354 274.418 257.09C274.266 256.969 274.139 256.808 273.963 256.727C273.071 256.315 259.022 256.545 257.288 256.737ZM256.988 263.389C258.956 264.382 271.471 264.008 274.217 263.716C273.501 263.003 271.782 263.243 270.78 263.244C266.652 263.248 260.964 262.885 256.988 263.389Z" fill="#E9B49C"/>
<path d="M319.285 208.771C323.223 209.133 327.583 209.165 331.52 208.731L352.279 208.761C354.922 209.361 362.834 209.176 365.54 208.801C368.034 208.85 370.51 208.879 373.004 208.77L385.203 208.675C388.085 208.639 391.704 208.133 394.489 208.832C394.851 209.339 395.115 209.75 395.183 210.382C395.554 213.851 395.079 219.503 395.005 223.151L394.795 233.089C394.75 235.066 394.841 237.156 394.529 239.109C394.195 239.579 393.956 239.784 393.451 240.06C391.102 240.01 388.752 239.996 386.403 240.018L386.37 242.162C386.005 241.598 386.118 241.094 386.114 240.431L385.863 240.463C385.699 243.541 386.014 246.723 385.716 249.772C385.579 247.184 386.138 243.105 385.483 240.743C385.35 240.266 385.054 239.651 384.58 239.445C383.767 239.092 382.779 239.442 381.978 239.687C377.608 239.964 373.158 239.796 368.779 239.796L345.668 239.812C329.088 239.858 312.404 240.42 295.836 239.942C294.855 239.012 293.932 238.14 293.17 237.014C293.006 233.462 293.117 229.857 293.113 226.299C293.106 221.509 293.026 216.706 293.191 211.918C294.129 210.179 295.053 209.527 296.907 208.838C299.213 208.593 301.725 208.768 304.047 208.773C309.126 208.806 314.206 208.805 319.285 208.771ZM300.295 216.082C300.323 221.715 300.255 227.365 300.39 232.995L387.343 232.89C387.153 227.364 387.011 221.828 387.279 216.302L300.295 216.082Z" fill="#F37E60"/>
<path d="M123.534 212.14C124.661 212.941 129.861 214.684 131.54 215.409C137.902 218.156 144.393 221.082 150.498 224.359C150.189 225.281 149.678 226.375 149.623 227.342C149.608 231.677 149.2 236.607 149.923 240.856C144.015 240.263 141.272 241.276 136.074 243.884C136.177 242.706 136.481 241.343 135.582 240.391C134.154 238.877 129.949 239.562 128.038 239.575C130.162 237.566 131.511 234.901 131.539 231.94C131.558 229.116 130.405 226.41 128.355 224.466C125.528 221.733 122.057 221.142 118.304 221.205C118.518 221.037 118.732 220.867 118.944 220.696C121.97 218.254 123.111 216.003 123.534 212.14Z" fill="#E9B49C"/>
<path d="M300.387 232.999C300.252 227.369 300.32 221.719 300.292 216.086L387.276 216.306C387.008 221.832 387.15 227.368 387.34 232.894L300.387 232.999ZM366.326 222.63C353.963 223.029 341.509 222.723 329.136 222.712C324.939 222.708 320.637 222.506 316.454 222.704C316.16 222.718 316.004 222.787 315.771 222.96C316.384 223.496 319.319 223.199 320.208 223.18L352.893 223.164C358.571 223.15 364.711 223.529 370.339 222.843L370.261 222.697C368.924 222.498 367.669 222.556 366.326 222.63ZM355.318 227.052L333.143 227.107C329.854 227.108 318.62 226.748 316.049 227.606C322.027 228.003 328.251 227.607 334.255 227.592C337.823 227.589 372.379 227.932 373.317 227.509C370.776 226.654 358.668 227.047 355.318 227.052Z" fill="#FEFEFE"/>
<path d="M51.1976 240.534C47.9079 238.233 45.3957 235.769 45.0616 232.731C44.7778 230.149 46.2116 227.361 49.2891 225.426C54.9472 221.868 64.2031 222.325 71.8822 222.148C77.0207 222.837 83.0161 222.521 88.2977 222.514C100.334 222.499 112.685 222.164 124.684 222.598C128.009 223.769 129.344 224.86 130.241 227.052C131.164 229.303 131.336 237.394 129.238 239.307C128.133 240.314 125.834 241.001 124.051 241.547C109.073 241.885 93.8788 241.826 78.879 241.846C70.5734 241.856 61.7553 242.159 53.4969 241.752L51.1976 240.534Z" fill="#89A2D8"/>
<path d="M209.39 223.663L209.727 223.778C209.353 226.474 209.568 229.377 209.579 232.105C209.595 235.868 209.501 239.679 209.699 243.436C213.131 235.131 217.589 229.25 226.118 225.695C230.01 224.072 234.288 223.152 238.47 222.661C244.833 221.913 261.79 222.201 267.455 224.509L267.395 224.818C253.784 221.893 233.541 220.89 221.451 228.638C216.563 231.771 211.221 238.37 209.951 244.096C209.421 246.485 209.215 256.859 209.652 259.23L209.816 259.458L210.406 258.628L210.529 258.882C210.253 259.569 209.996 260.264 209.697 260.94C208.969 262.583 209.093 270.531 209.535 272.388L208.938 272.491C208.991 269.07 208.855 265.644 208.938 262.224C209.081 256.303 209.629 250.42 208.68 244.534L208.813 244.373L209.271 244.834L209.399 244.35L209.259 244.83L209.129 244.698C209.212 244.595 209.331 244.511 209.381 244.387C209.385 244.378 209.098 226.311 209.39 223.663Z" fill="#B2CBF3"/>
<path d="M150.886 224.293C150.954 224.316 151.021 224.347 151.091 224.363C152.723 224.732 158.354 223.482 160.351 223.292C164.04 222.942 167.828 222.54 171.538 222.546C183.491 222.567 197.094 225.728 204.53 235.891C206.073 237.999 207.84 240.916 208.465 243.463L208.327 243.721C207.368 241.873 206.672 239.995 205.574 238.186C201.622 231.67 194.999 227.382 187.822 225.13C178.26 222.129 167.075 222.831 157.263 224.079C155.305 224.328 153.156 224.428 151.266 224.991C151.041 225.815 151.091 226.597 151.113 227.444L150.923 227.398C150.89 226.361 150.866 225.331 150.886 224.293Z" fill="#B2CBF3"/>
<path d="M320.208 223.178C319.319 223.196 316.384 223.494 315.771 222.958C316.005 222.785 316.161 222.716 316.454 222.702C320.637 222.504 324.94 222.706 329.136 222.71C341.51 222.72 353.964 223.027 366.326 222.628C367.67 222.553 368.925 222.496 370.261 222.695L370.34 222.841C364.712 223.527 358.571 223.148 352.894 223.161L320.208 223.178Z" fill="#B2CBF3"/>
<path d="M209.54 272.389C209.098 270.531 208.973 262.584 209.701 260.941C210.001 260.265 210.258 259.569 210.534 258.883L210.41 258.628L209.82 259.458L209.657 259.23C209.219 256.86 209.425 246.486 209.955 244.097C211.225 238.371 216.568 231.772 221.456 228.639C233.545 220.89 253.788 221.893 267.399 224.818L267.479 227.523L267.473 228.943C267.37 233.158 267.43 237.376 267.652 241.586C261.88 240.954 256.209 240.951 250.413 241.001C239 241.1 227.489 241.173 218.063 248.653C215.27 250.869 211.437 254.739 210.534 258.276L210.698 258.385C211.7 257.047 212.229 255.447 213.254 254.126C218.216 247.734 225.952 243.459 233.942 242.333C240.137 241.459 262.73 240.488 267.62 242.222L267.533 242.903C264.295 244.014 256.19 241.184 254.048 245.422C253.764 245.984 253.596 246.626 253.81 247.244C254.284 248.619 256.166 249.263 257.359 249.842C255.902 250.237 254.427 250.515 253.635 251.955C253.286 252.591 253.273 253.217 253.517 253.891C254.103 255.51 256.045 256.115 257.49 256.667C255.924 257.155 254.318 257.47 253.513 259.068C253.203 259.684 253.165 260.372 253.41 261.015C253.876 262.239 254.902 262.857 256.058 263.316C256.275 263.401 256.492 263.484 256.71 263.564C255.736 263.846 254.6 264.125 254.047 265.073C253.739 265.602 253.699 265.977 253.873 266.564C254.572 268.929 257.338 269.36 259.034 270.57L258.21 270.555C255.808 270.336 253.412 269.827 251.026 269.466C244.664 268.505 238.265 267.408 231.868 266.722C224.821 265.966 217.844 265.983 212.1 270.616L211.735 270.647C218.89 262.897 228.745 259.874 238.89 258.771C241.38 258.501 243.908 258.211 246.416 258.233C248.257 258.25 251.725 259.026 253.321 258.261C250.874 257.187 237.798 258.402 234.445 258.894C226.56 260.053 216.206 264.143 211.275 270.734C210.788 271.14 210.419 271.54 210.006 272.018C209.784 272.275 209.871 272.184 209.54 272.389Z" fill="#FEFEFE"/>
<path d="M334.259 227.591C328.255 227.606 322.032 228.002 316.054 227.606C318.625 226.747 329.858 227.108 333.147 227.106L355.322 227.051C358.673 227.046 370.78 226.654 373.321 227.508C372.383 227.931 337.827 227.588 334.259 227.591Z" fill="#B2CBF3"/>
<path d="M149.626 227.347L150.924 227.398L151.114 227.444C151.124 230.607 151.177 233.784 151.045 236.945C151.006 237.889 150.603 240.326 150.803 241.109C150.803 241.111 151.11 241.488 151.131 241.511C151.146 241.529 151.168 241.542 151.186 241.557L150.473 241.658L149.926 240.86C149.202 236.611 149.61 231.681 149.626 227.347Z" fill="#D5DFF4"/>
<path d="M267.474 227.529C270.047 230.663 272.136 237.802 274.247 241.725C276.979 241.923 279.002 242.979 280.811 245.06C282.2 246.657 284.914 251.831 284.803 253.947C284.781 254.373 284.812 254.203 284.473 254.581C283.927 254.144 283.865 253.152 283.677 252.477C282.126 246.935 279.564 243.479 273.724 242.206C271.638 237.854 269.996 233.046 267.468 228.949L267.474 227.529Z" fill="#904A39"/>
<path d="M125.531 241.538C126.235 240.501 126.862 240.007 128.04 239.578C129.951 239.565 134.156 238.88 135.585 240.394C136.483 241.346 136.179 242.709 136.076 243.887C135.968 244.533 135.933 244.703 136.314 245.281C136.372 245.37 136.451 245.443 136.52 245.524C136.4 245.649 136.236 245.743 136.16 245.899C135.699 246.838 136.183 266.873 136.189 269.583L134.867 269.266C135.112 265.014 135.367 244.95 134.401 241.886C133.109 241.133 127.3 241.529 125.531 241.538Z" fill="#F37E60"/>
<path d="M295.836 239.946C312.403 240.424 329.088 239.862 345.667 239.816L368.778 239.8C373.157 239.8 377.608 239.967 381.977 239.69C383.119 240.251 384.08 240.739 384.504 242.013C385.213 244.138 384.879 266.743 384.796 271.041C377.711 270.882 370.597 271.059 363.509 271.041L314.176 271.002L297.387 271.031C294.281 271.035 290.7 271.382 287.663 270.779C287.186 270.272 286.842 269.681 286.472 269.095L286.49 252.87C286.487 249.969 286.248 246.834 286.606 243.957C286.725 242.998 287.015 241.295 287.77 240.602C289.099 239.38 294.049 239.92 295.836 239.946ZM294.683 247.168C294.654 253.04 294.662 258.913 294.706 264.785L377.491 264.73C377.862 262.916 377.64 260.717 377.634 258.86C377.621 255.081 377.568 251.297 377.6 247.518C362.078 247.104 346.516 247.215 330.988 247.183C318.897 247.158 306.772 246.918 294.683 247.168Z" fill="#B2CBF3"/>
<path d="M42.8447 239.973C44.7663 239.997 46.6928 239.993 48.613 240.056L49.9093 241.26C47.6247 241.431 45.2848 241.47 42.9941 241.416L42.8447 239.973Z" fill="#E99E87"/>
<path d="M136.076 243.883C141.274 241.275 144.018 240.261 149.926 240.855L150.474 241.652C150.346 241.679 150.22 241.707 150.092 241.731C148.962 241.95 147.711 241.84 146.56 241.891C142.716 242.059 139.484 242.951 136.52 245.52C136.452 245.439 136.372 245.366 136.314 245.277C135.934 244.698 135.969 244.529 136.076 243.883Z" fill="#682A24"/>
<path d="M49.9086 241.258C54.5645 241.66 59.536 241.361 64.2185 241.35C72.675 241.331 81.2415 241.39 89.6856 241.055C91.242 241.832 121.798 241.822 125.532 241.538C127.3 241.529 133.109 241.133 134.402 241.885C135.368 244.95 135.113 265.014 134.867 269.266C134.81 269.806 134.869 270.221 134.515 270.648C131.983 270.874 127.455 271.07 124.982 270.586C131.123 268.193 134.494 261.577 132.82 255.203C131.145 248.828 124.957 244.723 118.433 245.658C111.91 246.593 107.124 252.272 107.308 258.86C106.027 258.759 103.29 258.306 102.163 258.861L102.035 259.013C101.461 258.711 101.374 258.737 100.721 258.806C99.2146 258.2 89.0519 258.609 86.6401 258.573C86.0529 258.401 85.9071 258.453 85.3031 258.598C80.582 259.005 75.6961 258.798 70.9485 258.837C70.9467 251.719 65.2072 245.933 58.0895 245.874C50.9718 245.814 45.1366 251.504 45.016 258.62L42.9814 258.614L42.9934 241.414C45.2841 241.469 47.6241 241.43 49.9086 241.258Z" fill="#E9B49C"/>
<path d="M267.62 242.229C262.73 240.495 240.136 241.466 233.941 242.34C225.952 243.466 218.216 247.741 213.254 254.133C212.229 255.454 211.7 257.054 210.698 258.392L210.534 258.283C211.436 254.746 215.27 250.876 218.063 248.66C227.488 241.18 239 241.107 250.413 241.008C256.209 240.958 261.88 240.961 267.652 241.593L267.62 242.229Z" fill="#B2CBF3"/>
<path d="M159.915 242.317C172.057 239.994 187.899 240.722 198.33 247.857C201.994 250.363 205.969 254.231 207.552 258.468L207.457 258.756C206.734 257.749 206.327 256.588 205.578 255.605C199.604 247.751 192.173 243.953 182.503 242.357C174.723 241.074 168.719 242.02 161.083 242.562L159.915 242.317Z" fill="#B2CBF3"/>
<path d="M136.522 245.521C139.486 242.953 142.718 242.061 146.561 241.893C147.713 241.842 148.964 241.952 150.094 241.733C150.222 241.709 150.348 241.681 150.475 241.654L151.188 241.553C154.109 241.636 157.024 241.889 159.916 242.312L161.084 242.556C162.528 243.101 164.288 243.672 164.85 245.303C165.14 246.145 165 246.824 164.58 247.582C164.092 248.462 163.184 248.941 162.358 249.458C163.734 249.807 165.24 250.136 166.063 251.42C166.441 252.009 166.535 252.598 166.378 253.287C166.19 254.112 165.38 254.905 164.657 255.289C163.861 255.713 162.988 255.935 162.11 256.114C164.046 257.151 164.848 258.006 165.704 260.072L165.541 260.33C164.971 261.009 164.422 261.67 163.756 262.259C162.78 262.513 161.825 262.721 160.826 262.866C162.066 263.407 163.287 263.834 163.802 265.212C164.111 266.041 163.909 266.813 163.513 267.561C163.136 268.275 162.572 268.875 161.964 269.4C161.085 269.414 159.65 269.615 158.952 270.179L159.018 270.465C159.598 270.679 160.159 270.706 160.767 270.752C153.093 270.839 145.418 270.793 137.746 270.615L136.191 269.581C136.185 266.87 135.701 246.836 136.162 245.897C136.238 245.741 136.402 245.646 136.522 245.521ZM145.878 248.996C147.224 249.833 159.609 249.429 161.82 249.213C156.637 248.672 151.079 248.754 145.878 248.996ZM145.761 256.071C147.275 256.787 159.069 256.591 160.937 256.132C157.582 255.595 149.295 255.733 145.761 256.071ZM154.872 262.515C151.892 262.684 148.881 262.454 145.915 262.774C147.354 263.375 149.929 263.098 151.481 263.078C154.494 262.981 157.609 263.034 160.601 262.7C159.603 262.018 156.118 262.378 154.872 262.515Z" fill="#E9B49C"/>
<path d="M107.31 258.862C107.126 252.274 111.912 246.596 118.436 245.661C124.959 244.725 131.147 248.831 132.822 255.205C134.496 261.579 131.125 268.196 124.984 270.588C121.795 271.83 118.245 271.762 115.107 270.398C110.49 268.392 107.45 263.895 107.31 258.862ZM119.224 254.429C117.864 255.026 116.962 255.679 116.441 257.123C116.006 258.356 116.111 259.715 116.73 260.867C117.27 261.867 118.247 262.706 119.351 263.01C119.956 263.177 120.61 263.113 121.229 263.075C122.61 262.454 123.576 261.642 124.104 260.178C124.517 259.044 124.46 257.791 123.946 256.698C123.491 255.746 122.644 254.938 121.636 254.602C120.86 254.343 120.029 254.401 119.224 254.429Z" fill="#45404A"/>
<path d="M45.0116 258.619C45.1322 251.503 50.9674 245.813 58.0851 245.873C65.2028 245.932 70.9423 251.718 70.9441 258.836C70.9454 263.76 68.1583 268.259 63.7497 270.451C60.2243 272.204 56.0931 272.26 52.5216 270.603C47.8683 268.445 44.9248 263.748 45.0116 258.619ZM57.5307 254.71C55.3042 255.074 53.7921 257.172 54.1493 259.399C54.507 261.627 56.5992 263.146 58.8283 262.796C61.0672 262.444 62.5948 260.34 62.2358 258.102C61.8768 255.864 59.7678 254.343 57.5307 254.71Z" fill="#45404A"/>
<path d="M294.706 264.784C294.661 258.912 294.653 253.04 294.683 247.168C306.771 246.918 318.896 247.158 330.987 247.182C346.516 247.214 362.077 247.104 377.599 247.518C377.567 251.297 377.62 255.08 377.633 258.86C377.639 260.716 377.862 262.916 377.49 264.729L294.706 264.784ZM365.112 253.2C353.235 253.285 341.358 253.31 329.482 253.274C326.895 253.276 317.594 252.877 315.676 253.489L315.824 253.697L316.586 253.749C322.347 253.747 363.91 254.193 365.972 253.352C365.582 253.168 365.52 253.172 365.112 253.2ZM315.504 258.074C315.669 258.214 315.801 258.404 315.998 258.492C316.105 258.539 356.992 258.596 359.828 258.358C360.006 258.343 360.182 258.316 360.359 258.292L360.178 257.982C357.528 257.653 354.686 257.879 352.008 257.882L336.363 257.897L322.561 257.943C320.277 257.953 317.751 257.744 315.504 258.074Z" fill="#FEFEFE"/>
<path d="M161.817 249.214C159.606 249.43 147.221 249.835 145.875 248.997C151.076 248.755 156.635 248.674 161.817 249.214Z" fill="#E99E87"/>
<path d="M274.223 249.958C268.804 249.854 263.187 250.196 257.803 249.776L257.635 249.437C261.311 249.343 271.091 248.875 274.205 249.531L274.223 249.958Z" fill="#D4987C"/>
<path d="M316.587 253.747L315.825 253.695L315.677 253.487C317.596 252.875 326.896 253.274 329.483 253.273C341.36 253.308 353.236 253.283 365.113 253.198C365.522 253.17 365.584 253.166 365.973 253.351C363.911 254.191 322.349 253.745 316.587 253.747Z" fill="#B2CBF3"/>
<path d="M121.228 263.071C120.609 263.108 119.955 263.173 119.35 263.006C118.246 262.702 117.269 261.863 116.729 260.862C116.11 259.711 116.005 258.351 116.441 257.119C116.961 255.675 117.863 255.022 119.223 254.424C120.028 254.397 120.859 254.339 121.635 254.598C122.643 254.934 123.491 255.742 123.946 256.694C124.459 257.787 124.516 259.04 124.103 260.174C123.575 261.638 122.61 262.449 121.228 263.071Z" fill="#FEFEFE"/>
<path d="M58.8318 262.793C56.6027 263.143 54.5105 261.624 54.1528 259.396C53.7956 257.168 55.3077 255.071 57.5342 254.707C59.7713 254.34 61.8803 255.861 62.2393 258.099C62.5983 260.337 61.0707 262.441 58.8318 262.793Z" fill="#FEFEFE"/>
<path d="M160.935 256.136C159.068 256.595 147.274 256.791 145.759 256.075C149.293 255.737 157.58 255.599 160.935 256.136Z" fill="#E99E87"/>
<path d="M274.419 257.087C271.188 257.351 260.059 257.556 257.29 256.735C259.023 256.542 273.073 256.312 273.965 256.724C274.141 256.805 274.268 256.966 274.419 257.087Z" fill="#E99E87"/>
<path d="M211.272 270.738C216.203 264.147 226.557 260.056 234.443 258.898C237.795 258.406 250.871 257.19 253.318 258.265C251.722 259.03 248.254 258.254 246.413 258.237C243.906 258.214 241.377 258.504 238.887 258.775C228.743 259.877 218.887 262.9 211.732 270.65L211.272 270.738Z" fill="#B2CBF3"/>
<path d="M360.361 258.29C360.184 258.313 360.008 258.341 359.831 258.356C356.994 258.593 316.108 258.537 316.001 258.489C315.804 258.402 315.672 258.211 315.507 258.072C317.753 257.741 320.279 257.95 322.563 257.941L336.365 257.895L352.011 257.879C354.688 257.877 357.531 257.651 360.181 257.98L360.361 258.29Z" fill="#B2CBF3"/>
<path d="M85.3002 258.598C85.9042 258.454 86.05 258.401 86.6372 258.574C86.6168 260.844 87.0857 262.695 88.7737 264.346C90.1391 265.692 91.9849 266.438 93.9021 266.418C95.6929 266.389 97.3614 265.696 98.5713 264.361C99.993 262.793 100.361 260.817 100.718 258.806C101.371 258.737 101.458 258.711 102.032 259.013C101.831 261.44 101.267 263.734 99.4793 265.51C97.9566 267.022 95.8073 267.733 93.6876 267.726C91.3135 267.738 89.0401 266.767 87.4092 265.042C85.5869 263.103 85.2403 261.133 85.3002 258.598Z" fill="#E7A975"/>
<path d="M42.9814 258.614L45.016 258.621C44.9292 263.749 47.8727 268.447 52.526 270.604C50.6172 271.414 45.4034 270.576 42.9819 270.831L42.9814 258.614Z" fill="#D5DFF4"/>
<path d="M165.7 260.071C167.579 259.365 169.821 259.356 171.811 259.229C180.374 258.685 188.131 259.543 196.025 263.107C199.718 264.774 204.73 267.764 206.91 271.255L206.254 271.159C205.172 269.277 202.967 267.833 201.235 266.553C190.968 258.969 177.655 258.558 165.537 260.329L165.7 260.071Z" fill="#B2CBF3"/>
<path d="M163.75 262.26C164.415 261.671 164.964 261.01 165.535 260.331C177.652 258.56 190.966 258.971 201.232 266.555C202.965 267.835 205.169 269.279 206.251 271.161L205.326 270.737C203.927 269.798 202.678 268.778 201.079 268.158C190.449 264.035 173.449 269.418 162.172 269.403L161.957 269.401C162.565 268.876 163.129 268.276 163.506 267.562C163.902 266.814 164.104 266.042 163.795 265.213C163.28 263.835 162.059 263.408 160.819 262.867C161.818 262.722 162.773 262.513 163.75 262.26Z" fill="#FEFEFE"/>
<path d="M151.478 263.08C149.925 263.1 147.351 263.377 145.912 262.776C148.878 262.456 151.889 262.686 154.869 262.517C156.115 262.38 159.6 262.02 160.598 262.702C157.606 263.036 154.491 262.982 151.478 263.08Z" fill="#E99E87"/>
<path d="M274.215 263.715C271.47 264.007 258.955 264.381 256.987 263.388C260.963 262.884 266.651 263.247 270.779 263.243C271.781 263.242 273.5 263.002 274.215 263.715Z" fill="#E99E87"/>
<path d="M212.099 270.619C217.843 265.987 224.82 265.97 231.867 266.726C238.263 267.412 244.663 268.509 251.024 269.47C253.411 269.831 255.807 270.34 258.209 270.559C251.229 270.803 244.177 270.625 237.189 270.638C228.836 270.652 220.448 270.824 212.099 270.619Z" fill="#E9B49C"/>
<path d="M160.763 270.755C160.155 270.709 159.593 270.682 159.014 270.468L158.948 270.182C159.646 269.618 161.08 269.417 161.96 269.403L162.175 269.405C173.452 269.421 190.452 264.038 201.082 268.16C202.681 268.78 203.929 269.8 205.328 270.74C190.508 271.085 175.593 270.779 160.763 270.755Z" fill="#E9B49C"/>
<path d="M385.728 268.861L386.049 268.896C386.11 268.549 386.195 268.214 386.306 267.871C386.324 268.312 386.256 268.772 386.523 269.19C392.484 269.704 398.305 268.298 402.656 271.554C403.601 272.253 404.26 273.057 404.588 273.911C405.169 275.429 404.901 277.123 404.887 278.671L404.823 285.993C402.141 285.554 396.618 285.832 393.694 285.836L376.533 285.824L293.557 285.728L109.029 285.813L47.8558 285.814C35.991 285.819 23.9925 285.66 12.1427 285.988C12.1569 283.612 12.1387 281.236 12.0882 278.861C12.0693 277.283 11.7778 275.565 12.3706 274.018C12.725 273.062 13.477 272.164 14.5667 271.396C16.4803 270.056 19.1327 269.391 22.1306 269.172C24.2678 269.325 26.5567 269.257 28.7125 269.255C32.9631 269.249 37.226 269.193 41.4743 269.263L42.5434 269.25C44.9672 269.109 50.1861 269.574 52.0966 269.125C55.6715 270.043 59.8067 270.012 63.3355 269.041C66.4376 269.252 69.8537 269.101 72.9868 269.102L92.1283 269.101L107.378 269.096C109.674 269.096 112.514 269.278 114.736 269.009C117.877 269.765 121.43 269.803 124.622 269.115C127.098 269.383 131.63 269.275 134.165 269.149C134.519 268.912 134.46 268.682 134.517 268.383L135.841 268.559L137.397 269.132C145.077 269.231 152.759 269.256 160.441 269.208C175.285 269.221 190.215 269.391 205.049 269.199L205.975 269.434L206.632 269.487C207.05 269.845 207.226 269.999 208.017 270.104C208.23 270.132 208.446 270.151 208.662 270.173L209.259 270.116C209.591 270.002 209.504 270.053 209.726 269.911C210.14 269.645 210.509 269.424 210.997 269.199L211.457 269.15L211.822 269.133C220.179 269.247 228.576 269.151 236.937 269.143C243.931 269.136 250.99 269.235 257.977 269.1L258.801 269.108C262.089 269.3 265.536 269.19 268.841 269.178C275.024 269.156 281.284 269.098 287.462 269.22C290.502 269.555 294.086 269.362 297.196 269.36L314.001 269.344L363.382 269.365C370.476 269.375 377.597 269.278 384.688 269.365L385.51 269.178L385.728 268.861Z" fill="#A7725D"/>
<path d="M320.272 199.082C320.266 199.016 320.256 198.95 320.252 198.884C320.118 195.857 321.855 192.267 323.93 190.159C326.076 187.98 328.917 186.758 331.984 186.839C335.532 186.933 338.094 188.542 340.462 191.026C342.272 195.127 342.895 198.278 341.249 202.586C340.301 205.069 339.08 207.099 337.014 208.804C334.308 209.179 326.396 209.364 323.753 208.764L321.753 206.074C320.654 203.693 320.221 201.7 320.272 199.082Z" fill="#A7725D"/>
<path fill-rule="evenodd" clip-rule="evenodd" d="M91.6899 114.988C118.593 114.988 140.529 93.0513 140.529 66.1484C140.529 39.2043 118.593 17.268 91.6899 17.268C64.7455 17.268 42.8096 39.2043 42.8096 66.1484C42.8096 93.0513 64.7455 114.988 91.6899 114.988Z" fill="#7A96C2"/>
<path fill-rule="evenodd" clip-rule="evenodd" d="M95.0811 19.6288C117.059 19.6288 134.856 37.4264 134.856 59.4035C134.856 81.3398 117.059 99.137 95.0811 99.137C73.1452 99.137 55.3477 81.3398 55.3477 59.4035C55.3477 37.4264 73.1452 19.6288 95.0811 19.6288Z" fill="#B2CBF3"/>
<path fill-rule="evenodd" clip-rule="evenodd" d="M127.906 33.3261C135.77 42.0179 140.529 53.5241 140.529 66.1475C140.529 75.0874 138.129 83.4894 133.948 90.6911L112.26 78.6469L101.996 42.9698L106.259 34.3194C106.259 34.3194 115.406 30.8841 127.906 33.3261Z" fill="#7B92C5"/>
<path fill-rule="evenodd" clip-rule="evenodd" d="M124.926 85.6853L112.26 78.6493L101.996 42.9722L106.259 34.3218C106.259 34.3218 113.833 31.466 124.636 32.832C130.968 39.868 134.859 49.1806 134.859 59.4035C134.859 69.461 131.093 78.6908 124.926 85.6853Z" fill="#B2CBF3"/>
<path fill-rule="evenodd" clip-rule="evenodd" d="M138.584 79.8486C132.665 100.17 113.916 114.988 91.6904 114.988C85.1094 114.988 78.901 113.705 73.1895 111.387L76.6248 98.6391C84.4887 79.1036 92.3526 59.5267 100.217 39.9497C102.244 38.0872 104.231 36.2248 106.259 34.3208C124.222 46.1166 133.659 62.1755 138.584 79.8486Z" fill="#EAA594"/>
<path fill-rule="evenodd" clip-rule="evenodd" d="M77.9482 95.2868L100.216 39.9497C102.243 38.0872 104.23 36.2248 106.258 34.3208C119.793 43.2196 128.526 54.56 134.072 67.1422C130.471 85.3947 114.371 99.1359 95.0833 99.1359C88.9579 99.1359 83.1633 97.77 77.9482 95.2868Z" fill="#FFBEAD"/>
<path fill-rule="evenodd" clip-rule="evenodd" d="M91.6885 17.268C98.6003 17.268 105.181 18.7166 111.141 21.2828C110.107 28.2361 106.257 34.3203 106.257 34.3203L81.2999 48.0203L60.9365 35.314L60.8535 28.2361C69.2555 21.3658 79.9752 17.268 91.6885 17.268Z" fill="#DF7357"/>
<path fill-rule="evenodd" clip-rule="evenodd" d="M110.852 22.8984C109.527 29.1071 106.258 34.3219 106.258 34.3219L81.3001 48.0219L62.6338 36.3916C69.8355 26.251 81.714 19.6288 95.0829 19.6288C100.671 19.6288 106.009 20.7879 110.852 22.8984Z" fill="#F37E60"/>
<path fill-rule="evenodd" clip-rule="evenodd" d="M45.2515 81.4648C43.6787 76.622 42.8096 71.49 42.8096 66.1507C42.8096 44.7113 56.592 26.5003 75.7963 19.9193C96.9462 23.1888 106.259 34.3227 106.259 34.3227L80.2665 58.6594L45.2515 81.4648Z" fill="#7B93C7"/>
<path fill-rule="evenodd" clip-rule="evenodd" d="M83.1197 21.4462C99.096 25.7921 106.256 34.3179 106.256 34.3179L80.2639 58.6547L57.8311 73.2647C56.2171 68.9603 55.3477 64.2835 55.3477 59.3996C55.3477 41.6027 67.0195 26.537 83.1197 21.4462Z" fill="#89A2D8"/>
<path fill-rule="evenodd" clip-rule="evenodd" d="M89.4973 114.947C65.4087 113.912 45.8317 95.3695 43.1416 71.6953C57.1309 39.4532 106.26 34.3208 106.26 34.3208C107.129 64.2452 99.7614 91.893 89.4973 114.947Z" fill="#C15A51"/>
<path fill-rule="evenodd" clip-rule="evenodd" d="M55.5549 54.9741C75.3388 37.5492 106.256 34.3208 106.256 34.3208C106.96 57.6642 102.572 79.642 95.7849 99.1359C95.5365 99.1359 95.3296 99.1359 95.0811 99.1359C73.1452 99.1359 55.3477 81.3387 55.3477 59.4024C55.348 57.9126 55.4307 56.4225 55.5549 54.9741Z" fill="#D96B62"/>
<path fill-rule="evenodd" clip-rule="evenodd" d="M108.989 26.7481C114.163 28.6106 117.101 33.4942 115.612 37.7159C114.08 41.8962 108.658 43.8004 103.485 41.938C98.3524 40.0752 95.3724 35.1501 96.8626 30.9698C98.3939 26.7481 103.816 24.8857 108.989 26.7481Z" fill="#D7554A"/>
<path fill-rule="evenodd" clip-rule="evenodd" d="M108.37 28.6082C111.475 29.7258 113.296 32.7057 112.385 35.2304C111.433 37.7551 108.205 38.9141 105.059 37.7551C101.955 36.6376 100.134 33.6988 101.044 31.1741C101.997 28.6082 105.225 27.4907 108.37 28.6082Z" fill="#C0483E"/>
</g>
<defs>
<linearGradient id="paint0_linear_2006_9037" x1="40.8233" y1="191.469" x2="50.4045" y2="191.672" gradientUnits="userSpaceOnUse">
<stop stop-color="#D0825A"/>
<stop offset="1" stop-color="#DE9482"/>
</linearGradient>
<linearGradient id="paint1_linear_2006_9037" x1="88.5265" y1="140.045" x2="88.977" y2="148.073" gradientUnits="userSpaceOnUse">
<stop stop-color="#443F51"/>
<stop offset="1" stop-color="#3E416B"/>
</linearGradient>
<clipPath id="clip0_2006_9037">
<rect width="379" height="273" fill="white"/>
</clipPath>
</defs>
</svg>
