<svg width="331" height="356" viewBox="0 0 331 356" fill="none" xmlns="http://www.w3.org/2000/svg">
<path d="M198.723 10.6793C191.549 11.1647 184.322 13.8616 179.36 19.0396C175.8 22.7613 173.588 27.5078 171.377 32.1464C165.228 45.1993 158.971 58.7376 158.594 73.1928C158.216 86.6772 163.07 99.784 169.759 111.488C172.294 115.965 175.152 120.388 179.198 123.57C186.749 129.611 197.105 130.528 206.814 130.744C214.581 130.96 222.348 130.906 230.115 130.582C232.488 130.474 235.023 130.313 236.803 128.748C238.367 127.4 239.014 125.296 239.554 123.355L247.159 96.9253C249.532 88.6729 251.906 80.3126 251.959 71.7365C252.067 60.1939 247.914 48.921 241.657 39.2122C231.517 23.6243 218.734 9.43872 198.723 10.6793Z" fill="#3F1A1C"/>
<path d="M322.079 250.702C319.921 230.205 296.135 159.008 296.135 159.008L268.357 170.82L292.521 257.336C296.404 264.725 304.927 268.015 311.992 265.426C317.818 263.269 321.917 257.39 322.079 250.702Z" fill="#F9B09F"/>
<path opacity="0.56" d="M315.93 223.355L282.004 219.634L277.743 204.423C287.559 198.436 302.338 196.009 307.732 195.254C310.537 204.477 313.449 214.294 315.93 223.355Z" fill="#E59886"/>
<path d="M191.71 689.973L151.149 687.869C151.149 687.869 148.776 549.304 143.221 519.153C137.665 489.055 134.429 388.516 140.038 349.789C144.839 316.456 162.962 263.111 162.962 263.111L225.583 274.222L238.258 277.027L204.17 529.67C204.17 529.67 207.298 546.715 208.916 564.244C210.481 581.774 191.71 689.973 191.71 689.973Z" fill="#6EB1B5"/>
<path d="M243.112 246.281C243.112 246.281 244.838 258.525 246.672 261.006C251.58 267.587 265.118 288.352 272.724 304.48C279.52 319.043 281.731 331.017 284.374 344.447C292.519 386.465 289.876 514.566 289.876 514.566C289.876 514.566 304.547 542.236 310.48 578.968C316.413 615.699 320.782 676.541 320.782 676.541L290.523 683.391L228.926 520.23C228.926 520.23 199.638 377.349 190.145 358.471C180.652 339.593 162.745 262.84 162.745 262.84L243.112 246.281Z" fill="#8CC0C3"/>
<path d="M119.595 235.546C119.163 232.04 119.163 229.182 121.375 224.489C123.316 220.39 126.337 215.158 129.627 206.474C129.627 206.474 131.731 200.918 140.469 156.959L176.93 151.08C175.312 162.407 162.529 249.732 143.867 253.346C137.933 254.478 132.702 252.429 132.702 252.429C125.798 249.732 120.512 242.882 119.595 235.546Z" fill="#F39F87"/>
<path d="M141.493 229.88C141.493 227.398 141.061 223.623 138.904 220.117C131.46 208.197 111.342 213.105 86.099 206.633C77.5229 204.421 65.2791 200.645 50.9857 193.795C45.1604 192.339 41.0072 189.912 37.8249 188.671C31.1906 186.136 24.5024 183.601 24.1787 183.655C19.0547 185.273 20.8886 182.63 17.922 186.406C14.9554 190.182 4.81518 202.857 7.56599 207.819C10.3168 212.781 37.771 212.296 43.5423 214.022C59.1302 222.868 77.1993 231.875 97.6955 240.074C109.885 244.982 121.59 249.027 132.701 252.425C134.697 253.019 136.746 251.832 137.232 249.783L141.493 229.88Z" fill="#F9B09F"/>
<path opacity="0.56" d="M128.71 208.739C128.98 208.038 129.303 207.283 129.573 206.474C129.573 206.474 130.868 203.129 135.506 181.015C149.638 173.626 170.296 174.003 170.296 174.003C170.296 174.003 171.267 174.327 172.993 175.028C167.599 204.802 157.243 250.702 143.813 253.291C151.795 227.186 137.232 213.971 128.71 208.739Z" fill="#DD715F"/>
<path d="M219.272 115.264C247.751 116.45 256.704 115.965 264.202 118.446C265.604 118.932 267.222 119.633 269.326 120.712C284.698 128.64 290.793 142.826 297.859 157.227C316.197 194.552 320.243 205.124 320.243 205.124C320.243 205.124 284.32 214.347 278.603 213.646C274.342 197.68 270.89 189.859 268.193 190.075C262.961 190.561 260.642 221.629 261.289 283.279C249.477 286.785 232.271 290.399 211.343 290.075C188.581 289.698 170.189 284.681 158.107 280.366C157.999 262.675 155.572 249.083 153.36 239.859C151.742 233.063 148.775 222.599 149.207 208.144C149.369 202.049 150.232 192.826 151.85 192.718C153.576 192.61 155.679 204.099 157.244 214.347L123.263 205.825C128.495 176.591 142.087 121.035 174.504 113.052C180.329 111.704 179.843 113.538 219.272 115.264Z" fill="#FEC757"/>
<mask id="mask0_3002_32" style="mask-type:luminance" maskUnits="userSpaceOnUse" x="123" y="112" width="198" height="179">
<path d="M219.272 115.264C247.751 116.45 256.704 115.965 264.202 118.446C265.604 118.932 267.222 119.633 269.326 120.712C284.698 128.64 290.793 142.826 297.859 157.227C316.197 194.552 320.243 205.124 320.243 205.124C320.243 205.124 284.32 214.347 278.603 213.646C274.342 197.68 270.89 189.859 268.193 190.075C262.961 190.561 260.642 221.629 261.289 283.279C249.477 286.785 232.271 290.399 211.343 290.075C188.581 289.698 170.189 284.681 158.107 280.366C157.999 262.675 155.572 249.083 153.36 239.859C151.742 233.063 148.775 222.599 149.207 208.144C149.369 202.049 150.232 192.826 151.85 192.718C153.576 192.61 155.679 204.099 157.244 214.347L123.263 205.825C128.495 176.591 142.087 121.035 174.504 113.052C180.329 111.704 179.843 113.538 219.272 115.264Z" fill="white"/>
</mask>
<g mask="url(#mask0_3002_32)">
<path d="M262.634 136.085C259.506 136.085 256.971 133.549 256.971 130.421C256.971 127.293 259.506 124.758 262.634 124.758C265.762 124.758 268.297 127.293 268.297 130.421C268.297 133.549 265.762 136.085 262.634 136.085Z" fill="white"/>
</g>
<mask id="mask1_3002_32" style="mask-type:luminance" maskUnits="userSpaceOnUse" x="123" y="112" width="198" height="179">
<path d="M219.272 115.264C247.751 116.45 256.704 115.965 264.202 118.446C265.604 118.932 267.222 119.633 269.326 120.712C284.698 128.64 290.793 142.826 297.859 157.227C316.197 194.552 320.243 205.124 320.243 205.124C320.243 205.124 284.32 214.347 278.603 213.646C274.342 197.68 270.89 189.859 268.193 190.075C262.961 190.561 260.642 221.629 261.289 283.279C249.477 286.785 232.271 290.399 211.343 290.075C188.581 289.698 170.189 284.681 158.107 280.366C157.999 262.675 155.572 249.083 153.36 239.859C151.742 233.063 148.775 222.599 149.207 208.144C149.369 202.049 150.232 192.826 151.85 192.718C153.576 192.61 155.679 204.099 157.244 214.347L123.263 205.825C128.495 176.591 142.087 121.035 174.504 113.052C180.329 111.704 179.843 113.538 219.272 115.264Z" fill="white"/>
</mask>
<g mask="url(#mask1_3002_32)">
<path d="M264.962 180.583C261.834 180.583 259.299 178.047 259.299 174.919C259.299 171.791 261.834 169.256 264.962 169.256C268.09 169.256 270.626 171.791 270.626 174.919C270.626 178.047 268.09 180.583 264.962 180.583Z" fill="white"/>
</g>
<mask id="mask2_3002_32" style="mask-type:luminance" maskUnits="userSpaceOnUse" x="123" y="112" width="198" height="179">
<path d="M219.272 115.264C247.751 116.45 256.704 115.965 264.202 118.446C265.604 118.932 267.222 119.633 269.326 120.712C284.698 128.64 290.793 142.826 297.859 157.227C316.197 194.552 320.243 205.124 320.243 205.124C320.243 205.124 284.32 214.347 278.603 213.646C274.342 197.68 270.89 189.859 268.193 190.075C262.961 190.561 260.642 221.629 261.289 283.279C249.477 286.785 232.271 290.399 211.343 290.075C188.581 289.698 170.189 284.681 158.107 280.366C157.999 262.675 155.572 249.083 153.36 239.859C151.742 233.063 148.775 222.599 149.207 208.144C149.369 202.049 150.232 192.826 151.85 192.718C153.576 192.61 155.679 204.099 157.244 214.347L123.263 205.825C128.495 176.591 142.087 121.035 174.504 113.052C180.329 111.704 179.843 113.538 219.272 115.264Z" fill="white"/>
</mask>
<g mask="url(#mask2_3002_32)">
<path d="M221.697 165.157C218.569 165.157 216.033 162.621 216.033 159.494C216.033 156.366 218.569 153.83 221.697 153.83C224.824 153.83 227.36 156.366 227.36 159.494C227.36 162.621 224.824 165.157 221.697 165.157Z" fill="white"/>
</g>
<mask id="mask3_3002_32" style="mask-type:luminance" maskUnits="userSpaceOnUse" x="123" y="112" width="198" height="179">
<path d="M219.272 115.264C247.751 116.45 256.704 115.965 264.202 118.446C265.604 118.932 267.222 119.633 269.326 120.712C284.698 128.64 290.793 142.826 297.859 157.227C316.197 194.552 320.243 205.124 320.243 205.124C320.243 205.124 284.32 214.347 278.603 213.646C274.342 197.68 270.89 189.859 268.193 190.075C262.961 190.561 260.642 221.629 261.289 283.279C249.477 286.785 232.271 290.399 211.343 290.075C188.581 289.698 170.189 284.681 158.107 280.366C157.999 262.675 155.572 249.083 153.36 239.859C151.742 233.063 148.775 222.599 149.207 208.144C149.369 202.049 150.232 192.826 151.85 192.718C153.576 192.61 155.679 204.099 157.244 214.347L123.263 205.825C128.495 176.591 142.087 121.035 174.504 113.052C180.329 111.704 179.843 113.538 219.272 115.264Z" fill="white"/>
</mask>
<g mask="url(#mask3_3002_32)">
<path d="M309.775 194.981C306.647 194.981 304.111 192.446 304.111 189.318C304.111 186.19 306.647 183.654 309.775 183.654C312.902 183.654 315.438 186.19 315.438 189.318C315.438 192.446 312.902 194.981 309.775 194.981Z" fill="white"/>
</g>
<mask id="mask4_3002_32" style="mask-type:luminance" maskUnits="userSpaceOnUse" x="123" y="112" width="198" height="179">
<path d="M219.272 115.264C247.751 116.45 256.704 115.965 264.202 118.446C265.604 118.932 267.222 119.633 269.326 120.712C284.698 128.64 290.793 142.826 297.859 157.227C316.197 194.552 320.243 205.124 320.243 205.124C320.243 205.124 284.32 214.347 278.603 213.646C274.342 197.68 270.89 189.859 268.193 190.075C262.961 190.561 260.642 221.629 261.289 283.279C249.477 286.785 232.271 290.399 211.343 290.075C188.581 289.698 170.189 284.681 158.107 280.366C157.999 262.675 155.572 249.083 153.36 239.859C151.742 233.063 148.775 222.599 149.207 208.144C149.369 202.049 150.232 192.826 151.85 192.718C153.576 192.61 155.679 204.099 157.244 214.347L123.263 205.825C128.495 176.591 142.087 121.035 174.504 113.052C180.329 111.704 179.843 113.538 219.272 115.264Z" fill="white"/>
</mask>
<g mask="url(#mask4_3002_32)">
<path d="M187.665 193.149C184.537 193.149 182.002 190.614 182.002 187.486C182.002 184.358 184.537 181.822 187.665 181.822C190.793 181.822 193.329 184.358 193.329 187.486C193.329 190.614 190.793 193.149 187.665 193.149Z" fill="white"/>
</g>
<mask id="mask5_3002_32" style="mask-type:luminance" maskUnits="userSpaceOnUse" x="123" y="112" width="198" height="179">
<path d="M219.272 115.264C247.751 116.45 256.704 115.965 264.202 118.446C265.604 118.932 267.222 119.633 269.326 120.712C284.698 128.64 290.793 142.826 297.859 157.227C316.197 194.552 320.243 205.124 320.243 205.124C320.243 205.124 284.32 214.347 278.603 213.646C274.342 197.68 270.89 189.859 268.193 190.075C262.961 190.561 260.642 221.629 261.289 283.279C249.477 286.785 232.271 290.399 211.343 290.075C188.581 289.698 170.189 284.681 158.107 280.366C157.999 262.675 155.572 249.083 153.36 239.859C151.742 233.063 148.775 222.599 149.207 208.144C149.369 202.049 150.232 192.826 151.85 192.718C153.576 192.61 155.679 204.099 157.244 214.347L123.263 205.825C128.495 176.591 142.087 121.035 174.504 113.052C180.329 111.704 179.843 113.538 219.272 115.264Z" fill="white"/>
</mask>
<g mask="url(#mask5_3002_32)">
<path d="M173.103 148.003C169.975 148.003 167.439 145.467 167.439 142.339C167.439 139.211 169.975 136.676 173.103 136.676C176.231 136.676 178.766 139.211 178.766 142.339C178.766 145.467 176.231 148.003 173.103 148.003Z" fill="white"/>
</g>
<mask id="mask6_3002_32" style="mask-type:luminance" maskUnits="userSpaceOnUse" x="123" y="112" width="198" height="179">
<path d="M219.272 115.264C247.751 116.45 256.704 115.965 264.202 118.446C265.604 118.932 267.222 119.633 269.326 120.712C284.698 128.64 290.793 142.826 297.859 157.227C316.197 194.552 320.243 205.124 320.243 205.124C320.243 205.124 284.32 214.347 278.603 213.646C274.342 197.68 270.89 189.859 268.193 190.075C262.961 190.561 260.642 221.629 261.289 283.279C249.477 286.785 232.271 290.399 211.343 290.075C188.581 289.698 170.189 284.681 158.107 280.366C157.999 262.675 155.572 249.083 153.36 239.859C151.742 233.063 148.775 222.599 149.207 208.144C149.369 202.049 150.232 192.826 151.85 192.718C153.576 192.61 155.679 204.099 157.244 214.347L123.263 205.825C128.495 176.591 142.087 121.035 174.504 113.052C180.329 111.704 179.843 113.538 219.272 115.264Z" fill="white"/>
</mask>
<g mask="url(#mask6_3002_32)">
<path d="M147.165 174.596C144.037 174.596 141.502 172.061 141.502 168.933C141.502 165.805 144.037 163.27 147.165 163.27C150.293 163.27 152.829 165.805 152.829 168.933C152.829 172.061 150.293 174.596 147.165 174.596Z" fill="white"/>
</g>
<mask id="mask7_3002_32" style="mask-type:luminance" maskUnits="userSpaceOnUse" x="123" y="112" width="198" height="179">
<path d="M219.272 115.264C247.751 116.45 256.704 115.965 264.202 118.446C265.604 118.932 267.222 119.633 269.326 120.712C284.698 128.64 290.793 142.826 297.859 157.227C316.197 194.552 320.243 205.124 320.243 205.124C320.243 205.124 284.32 214.347 278.603 213.646C274.342 197.68 270.89 189.859 268.193 190.075C262.961 190.561 260.642 221.629 261.289 283.279C249.477 286.785 232.271 290.399 211.343 290.075C188.581 289.698 170.189 284.681 158.107 280.366C157.999 262.675 155.572 249.083 153.36 239.859C151.742 233.063 148.775 222.599 149.207 208.144C149.369 202.049 150.232 192.826 151.85 192.718C153.576 192.61 155.679 204.099 157.244 214.347L123.263 205.825C128.495 176.591 142.087 121.035 174.504 113.052C180.329 111.704 179.843 113.538 219.272 115.264Z" fill="white"/>
</mask>
<g mask="url(#mask7_3002_32)">
<path d="M188.314 120.817C185.186 120.817 182.65 118.281 182.65 115.154C182.65 112.026 185.186 109.49 188.314 109.49C191.442 109.49 193.977 112.026 193.977 115.154C193.977 118.281 191.442 120.817 188.314 120.817Z" fill="white"/>
</g>
<mask id="mask8_3002_32" style="mask-type:luminance" maskUnits="userSpaceOnUse" x="123" y="112" width="198" height="179">
<path d="M219.272 115.264C247.751 116.45 256.704 115.965 264.202 118.446C265.604 118.932 267.222 119.633 269.326 120.712C284.698 128.64 290.793 142.826 297.859 157.227C316.197 194.552 320.243 205.124 320.243 205.124C320.243 205.124 284.32 214.347 278.603 213.646C274.342 197.68 270.89 189.859 268.193 190.075C262.961 190.561 260.642 221.629 261.289 283.279C249.477 286.785 232.271 290.399 211.343 290.075C188.581 289.698 170.189 284.681 158.107 280.366C157.999 262.675 155.572 249.083 153.36 239.859C151.742 233.063 148.775 222.599 149.207 208.144C149.369 202.049 150.232 192.826 151.85 192.718C153.576 192.61 155.679 204.099 157.244 214.347L123.263 205.825C128.495 176.591 142.087 121.035 174.504 113.052C180.329 111.704 179.843 113.538 219.272 115.264Z" fill="white"/>
</mask>
<g mask="url(#mask8_3002_32)">
<path d="M153.845 212.622C150.717 212.622 148.182 210.086 148.182 206.958C148.182 203.831 150.717 201.295 153.845 201.295C156.973 201.295 159.508 203.831 159.508 206.958C159.508 210.086 156.973 212.622 153.845 212.622Z" fill="white"/>
</g>
<mask id="mask9_3002_32" style="mask-type:luminance" maskUnits="userSpaceOnUse" x="123" y="112" width="198" height="179">
<path d="M219.272 115.264C247.751 116.45 256.704 115.965 264.202 118.446C265.604 118.932 267.222 119.633 269.326 120.712C284.698 128.64 290.793 142.826 297.859 157.227C316.197 194.552 320.243 205.124 320.243 205.124C320.243 205.124 284.32 214.347 278.603 213.646C274.342 197.68 270.89 189.859 268.193 190.075C262.961 190.561 260.642 221.629 261.289 283.279C249.477 286.785 232.271 290.399 211.343 290.075C188.581 289.698 170.189 284.681 158.107 280.366C157.999 262.675 155.572 249.083 153.36 239.859C151.742 233.063 148.775 222.599 149.207 208.144C149.369 202.049 150.232 192.826 151.85 192.718C153.576 192.61 155.679 204.099 157.244 214.347L123.263 205.825C128.495 176.591 142.087 121.035 174.504 113.052C180.329 111.704 179.843 113.538 219.272 115.264Z" fill="white"/>
</mask>
<g mask="url(#mask9_3002_32)">
<path d="M182.595 234.95C179.467 234.95 176.932 232.414 176.932 229.286C176.932 226.159 179.467 223.623 182.595 223.623C185.723 223.623 188.258 226.159 188.258 229.286C188.258 232.414 185.723 234.95 182.595 234.95Z" fill="white"/>
</g>
<mask id="mask10_3002_32" style="mask-type:luminance" maskUnits="userSpaceOnUse" x="123" y="112" width="198" height="179">
<path d="M219.272 115.264C247.751 116.45 256.704 115.965 264.202 118.446C265.604 118.932 267.222 119.633 269.326 120.712C284.698 128.64 290.793 142.826 297.859 157.227C316.197 194.552 320.243 205.124 320.243 205.124C320.243 205.124 284.32 214.347 278.603 213.646C274.342 197.68 270.89 189.859 268.193 190.075C262.961 190.561 260.642 221.629 261.289 283.279C249.477 286.785 232.271 290.399 211.343 290.075C188.581 289.698 170.189 284.681 158.107 280.366C157.999 262.675 155.572 249.083 153.36 239.859C151.742 233.063 148.775 222.599 149.207 208.144C149.369 202.049 150.232 192.826 151.85 192.718C153.576 192.61 155.679 204.099 157.244 214.347L123.263 205.825C128.495 176.591 142.087 121.035 174.504 113.052C180.329 111.704 179.843 113.538 219.272 115.264Z" fill="white"/>
</mask>
<g mask="url(#mask10_3002_32)">
<path d="M160.103 263.917C156.975 263.917 154.439 261.381 154.439 258.253C154.439 255.125 156.975 252.59 160.103 252.59C163.231 252.59 165.766 255.125 165.766 258.253C165.766 261.381 163.231 263.917 160.103 263.917Z" fill="white"/>
</g>
<mask id="mask11_3002_32" style="mask-type:luminance" maskUnits="userSpaceOnUse" x="123" y="112" width="198" height="179">
<path d="M219.272 115.264C247.751 116.45 256.704 115.965 264.202 118.446C265.604 118.932 267.222 119.633 269.326 120.712C284.698 128.64 290.793 142.826 297.859 157.227C316.197 194.552 320.243 205.124 320.243 205.124C320.243 205.124 284.32 214.347 278.603 213.646C274.342 197.68 270.89 189.859 268.193 190.075C262.961 190.561 260.642 221.629 261.289 283.279C249.477 286.785 232.271 290.399 211.343 290.075C188.581 289.698 170.189 284.681 158.107 280.366C157.999 262.675 155.572 249.083 153.36 239.859C151.742 233.063 148.775 222.599 149.207 208.144C149.369 202.049 150.232 192.826 151.85 192.718C153.576 192.61 155.679 204.099 157.244 214.347L123.263 205.825C128.495 176.591 142.087 121.035 174.504 113.052C180.329 111.704 179.843 113.538 219.272 115.264Z" fill="white"/>
</mask>
<g mask="url(#mask11_3002_32)">
<path d="M213.447 289.104C210.319 289.104 207.783 286.569 207.783 283.441C207.783 280.313 210.319 277.777 213.447 277.777C216.574 277.777 219.11 280.313 219.11 283.441C219.11 286.569 216.574 289.104 213.447 289.104Z" fill="white"/>
</g>
<mask id="mask12_3002_32" style="mask-type:luminance" maskUnits="userSpaceOnUse" x="123" y="112" width="198" height="179">
<path d="M219.272 115.264C247.751 116.45 256.704 115.965 264.202 118.446C265.604 118.932 267.222 119.633 269.326 120.712C284.698 128.64 290.793 142.826 297.859 157.227C316.197 194.552 320.243 205.124 320.243 205.124C320.243 205.124 284.32 214.347 278.603 213.646C274.342 197.68 270.89 189.859 268.193 190.075C262.961 190.561 260.642 221.629 261.289 283.279C249.477 286.785 232.271 290.399 211.343 290.075C188.581 289.698 170.189 284.681 158.107 280.366C157.999 262.675 155.572 249.083 153.36 239.859C151.742 233.063 148.775 222.599 149.207 208.144C149.369 202.049 150.232 192.826 151.85 192.718C153.576 192.61 155.679 204.099 157.244 214.347L123.263 205.825C128.495 176.591 142.087 121.035 174.504 113.052C180.329 111.704 179.843 113.538 219.272 115.264Z" fill="white"/>
</mask>
<g mask="url(#mask12_3002_32)">
<path d="M260.697 282.794C257.569 282.794 255.033 280.258 255.033 277.13C255.033 274.002 257.569 271.467 260.697 271.467C263.824 271.467 266.36 274.002 266.36 277.13C266.36 280.258 263.824 282.794 260.697 282.794Z" fill="white"/>
</g>
<mask id="mask13_3002_32" style="mask-type:luminance" maskUnits="userSpaceOnUse" x="41" y="198" width="181" height="195">
<path d="M217.169 278.618C220.546 306.922 222.455 315.684 221.203 323.481C220.948 324.943 220.514 326.653 219.785 328.902C214.413 345.343 201.382 353.626 188.293 362.901C154.375 386.966 144.585 392.647 144.585 392.647C144.585 392.647 129.743 358.658 129.522 352.902C144.603 346.145 151.772 341.489 151.128 338.861C149.814 333.773 118.773 336.445 58.0149 346.93C52.6674 335.829 46.352 319.42 43.3293 298.708C40.067 276.178 42.0817 257.219 44.412 244.603C61.8598 241.671 74.8904 237.104 83.6425 233.448C90.0932 230.765 99.9494 226.166 114.289 224.283C120.331 223.47 129.574 222.849 129.939 224.429C130.321 226.116 119.316 230.027 109.449 233.208L112.435 198.301C142.13 198.797 199.146 203.343 212.203 234.07C214.464 239.605 212.577 239.419 217.169 278.618Z" fill="white"/>
</mask>
<g mask="url(#mask13_3002_32)">
<path d="M116.695 196.626C116.196 193.538 118.294 190.63 121.382 190.131C124.47 189.631 127.378 191.729 127.877 194.817C128.377 197.905 126.279 200.813 123.191 201.313C120.103 201.812 117.195 199.714 116.695 196.626Z" fill="white"/>
</g>
<mask id="mask14_3002_32" style="mask-type:luminance" maskUnits="userSpaceOnUse" x="123" y="112" width="198" height="179">
<path d="M219.272 115.264C247.751 116.45 256.704 115.965 264.202 118.446C265.604 118.932 267.222 119.633 269.326 120.712C284.698 128.64 290.793 142.826 297.859 157.227C316.197 194.552 320.243 205.124 320.243 205.124C320.243 205.124 284.32 214.347 278.603 213.646C274.342 197.68 270.89 189.859 268.193 190.075C262.961 190.561 260.642 221.629 261.289 283.279C249.477 286.785 232.271 290.399 211.343 290.075C188.581 289.698 170.189 284.681 158.107 280.366C157.999 262.675 155.572 249.083 153.36 239.859C151.742 233.063 148.775 222.599 149.207 208.144C149.369 202.049 150.232 192.826 151.85 192.718C153.576 192.61 155.679 204.099 157.244 214.347L123.263 205.825C128.495 176.591 142.087 121.035 174.504 113.052C180.329 111.704 179.843 113.538 219.272 115.264Z" fill="white"/>
</mask>
<g mask="url(#mask14_3002_32)">
<path d="M140.634 144.497C137.506 144.497 134.971 141.961 134.971 138.833C134.971 135.706 137.506 133.17 140.634 133.17C143.762 133.17 146.297 135.706 146.297 138.833C146.297 141.961 143.762 144.497 140.634 144.497Z" fill="white"/>
</g>
<mask id="mask15_3002_32" style="mask-type:luminance" maskUnits="userSpaceOnUse" x="123" y="112" width="198" height="179">
<path d="M219.272 115.264C247.751 116.45 256.704 115.965 264.202 118.446C265.604 118.932 267.222 119.633 269.326 120.712C284.698 128.64 290.793 142.826 297.859 157.227C316.197 194.552 320.243 205.124 320.243 205.124C320.243 205.124 284.32 214.347 278.603 213.646C274.342 197.68 270.89 189.859 268.193 190.075C262.961 190.561 260.642 221.629 261.289 283.279C249.477 286.785 232.271 290.399 211.343 290.075C188.581 289.698 170.189 284.681 158.107 280.366C157.999 262.675 155.572 249.083 153.36 239.859C151.742 233.063 148.775 222.599 149.207 208.144C149.369 202.049 150.232 192.826 151.85 192.718C153.576 192.61 155.679 204.099 157.244 214.347L123.263 205.825C128.495 176.591 142.087 121.035 174.504 113.052C180.329 111.704 179.843 113.538 219.272 115.264Z" fill="white"/>
</mask>
<g mask="url(#mask15_3002_32)">
<path d="M293.439 151.079C290.311 151.079 287.775 148.543 287.775 145.415C287.775 142.288 290.311 139.752 293.439 139.752C296.567 139.752 299.102 142.288 299.102 145.415C299.102 148.543 296.567 151.079 293.439 151.079Z" fill="white"/>
</g>
<path d="M220.305 85.4385C220.305 85.4385 221.329 109.225 224.35 117.963C227.37 126.701 217.985 158.47 199.053 163.108C180.067 167.747 198.73 125.352 198.406 116.129C198.082 106.906 191.988 79.6133 191.988 79.6133L220.305 85.4385Z" fill="#F9B09F"/>
<path d="M194.896 93.4201C193.385 85.9228 192.037 79.666 192.037 79.666L220.354 85.4373C220.354 85.4373 220.57 90.2917 221.055 96.4406C210.43 101.349 201.368 99.1374 194.896 93.4201Z" fill="#E59886"/>
<path opacity="0.56" d="M213.563 152.859C211.621 154.963 209.464 156.959 207.145 158.577C204.825 160.195 202.29 161.435 199.593 162.137C198.245 162.46 196.896 162.676 195.656 162.514C194.415 162.352 193.444 161.759 192.797 160.734C192.15 159.709 191.826 158.415 191.664 157.12C191.503 155.772 191.557 154.37 191.611 152.967C191.772 150.162 192.258 147.358 192.797 144.553C193.337 141.748 193.984 138.943 194.631 136.139C195.278 133.334 195.979 130.529 196.573 127.725C197.166 124.92 197.813 122.061 198.083 119.148C197.328 121.953 196.411 124.65 195.548 127.401C194.685 130.152 193.768 132.902 193.013 135.653C191.395 141.209 189.885 146.872 189.507 152.751C189.399 154.208 189.399 155.718 189.615 157.282C189.831 158.792 190.154 160.411 191.125 161.813C191.611 162.514 192.258 163.161 193.013 163.593C193.768 164.024 194.631 164.24 195.44 164.348C197.112 164.51 198.622 164.132 200.025 163.701C202.883 162.784 205.526 161.274 207.738 159.386C210.057 157.498 211.999 155.287 213.563 152.859Z" fill="#E59886"/>
<path d="M11.8282 194.605L34.1583 201.24C36.9631 202.049 39.9296 200.593 41.0084 197.95C41.0084 198.543 40.9544 199.19 40.7926 199.783C39.9296 202.75 36.7473 204.476 33.7808 203.613L22.0224 204.854C20.7279 204.746 16.305 204.314 13.0148 200.754C11.7203 199.352 10.9652 197.842 10.5337 196.763L11.8282 194.605Z" fill="#E59886"/>
<path d="M12.1546 187.055C12.1546 187.055 7.46208 207.012 13.8806 209.439C21.0004 212.136 27.365 211.759 26.5559 210.033C25.6929 208.307 17.4945 202.913 17.4945 202.913C17.4945 202.913 17.9259 195.092 16.7932 191.856C15.6066 188.512 14.2582 185.329 12.1546 187.055Z" fill="#F9B09F"/>
<path d="M17.5958 189.536C17.5958 189.536 27.8979 187.379 27.6282 186.084C27.4124 184.79 24.1223 183.657 24.1223 183.657C24.1223 183.657 7.83311 183.064 9.50517 186.246C11.1772 189.374 17.5958 189.536 17.5958 189.536Z" fill="#F9B09F"/>
<path d="M6.7063 197.358C6.7063 197.358 8.05472 184.844 10.1583 187.217C12.6933 190.076 13.3406 203.129 10.5359 205.071C7.7311 207.066 5.84331 204.37 6.7063 197.358Z" fill="#F9B09F"/>
<path d="M1.79784 200.918C1.79784 200.918 -1.43839 187.38 0.773051 186.571C1.04274 186.463 1.31243 186.571 1.58211 186.733C4.4408 188.243 5.24985 192.45 7.13767 197.79C9.51092 204.424 11.3987 206.689 10.0503 208.901C9.99633 208.955 9.02547 210.465 1.79784 200.918Z" fill="#F9B09F"/>
<path d="M224.774 45.7384C226.716 59.7621 232.433 73.9477 228.01 87.2702C226.716 91.2616 224.558 94.8754 222.994 98.7589C221.484 102.535 220.567 106.58 220.297 110.625C219.92 115.803 221.268 122.006 226.015 124.11C229.682 125.728 233.89 124.217 237.557 122.599C243.221 120.064 249.154 117.152 255.303 117.853C258.539 118.23 263.339 120.172 266.36 118.23C269.273 116.396 271.106 111.003 271.7 107.82C272.455 103.505 271.538 98.8668 268.787 95.4687C267.87 94.336 266.738 93.2034 266.738 91.801C266.738 90.4525 267.87 89.3199 268.14 87.9714C268.895 84.7891 265.227 82.4698 263.555 79.6111C261.398 75.9973 262.584 71.4666 262.908 67.3134C263.447 59.8161 259.887 54.3684 257.892 47.5722C256.004 41.0458 252.12 35.1127 247.05 30.6898C241.009 25.4039 226.77 18.9314 224.666 31.5528C223.911 36.1914 224.127 40.9379 224.774 45.7384Z" fill="#552728"/>
<path d="M268.733 118.392C269.704 117.691 270.459 116.774 271.052 115.749C271.645 114.724 272.131 113.646 272.508 112.567C273.317 110.355 273.857 108.036 273.857 105.771C273.911 103.451 273.479 101.132 272.508 99.0824C272.023 98.0576 271.43 97.0867 270.728 96.1698C270.027 95.3068 269.11 94.4438 268.571 93.0953C268.301 92.4481 268.301 91.639 268.517 90.9918C268.733 90.3445 269.002 89.7512 269.272 89.2658C269.542 88.7264 269.757 88.2949 269.811 87.8095C269.919 87.324 269.865 86.8386 269.704 86.4071C269.542 85.9216 269.326 85.4902 269.002 85.0047C268.679 84.5732 268.355 84.0878 267.978 83.6563C267.222 82.7933 266.413 81.9303 265.658 80.9055C264.903 79.8807 264.364 78.6401 264.094 77.3995C263.824 76.159 263.77 74.9184 263.824 73.6778C263.932 71.2507 264.364 68.8774 264.418 66.612C264.472 64.3467 264.148 62.0813 263.555 59.8698C262.961 57.6584 262.098 55.447 261.235 53.2355C260.804 52.1028 260.426 51.0241 260.049 49.8375C259.887 49.2442 259.671 48.7048 259.509 48.1115C259.348 47.5721 259.186 46.9788 259.024 46.4394C258.269 44.228 257.352 42.1244 256.219 40.0748C255.086 38.0791 253.738 36.1373 252.174 34.4113C250.664 32.6314 248.992 31.0133 247.104 29.6109C245.216 28.2085 243.22 27.0219 241.063 26.051C239.984 25.5656 238.851 25.188 237.719 24.9183C236.586 24.6487 235.399 24.4329 234.213 24.4329C236.586 24.2711 238.959 24.8105 241.171 25.6735C243.382 26.5365 245.54 27.6152 247.535 28.9637C251.527 31.6605 254.763 35.3283 257.244 39.4815C257.891 40.5063 258.431 41.585 258.97 42.6638C259.509 43.7425 259.941 44.8752 260.318 46.0079C260.534 46.6012 260.696 47.1406 260.858 47.7339C261.02 48.2733 261.181 48.8666 261.397 49.406C261.775 50.4847 262.206 51.6174 262.638 52.6962C263.501 54.9076 264.364 57.119 265.011 59.4383C265.658 61.7577 266.036 64.2388 265.982 66.666C265.874 69.1471 265.442 71.4664 265.335 73.7318C265.227 75.9971 265.55 78.2086 266.791 79.9885C267.438 80.9055 268.193 81.7685 269.002 82.6854C269.38 83.1708 269.757 83.6563 270.135 84.1957C270.459 84.735 270.782 85.3283 270.998 85.9756C271.214 86.6228 271.268 87.378 271.106 88.0252C270.998 88.7264 270.674 89.3197 270.405 89.8591C270.135 90.3985 269.865 90.8839 269.704 91.3693C269.542 91.8548 269.542 92.2863 269.704 92.7178C270.027 93.6347 270.836 94.4977 271.591 95.4686C272.346 96.4395 272.94 97.5182 273.425 98.6509C274.342 100.916 274.72 103.397 274.558 105.825C274.396 108.252 273.695 110.571 272.778 112.783C272.293 113.861 271.753 114.94 271.106 115.965C270.567 116.882 269.757 117.799 268.733 118.392Z" fill="#552728"/>
<path d="M150.777 109.817C149.483 108.36 148.404 106.742 147.487 105.016C146.57 103.29 145.815 101.51 145.168 99.6765C144.52 97.8426 144.197 95.8469 144.251 93.8512C144.305 91.9095 144.574 89.9138 145.222 88.026C146.516 84.2504 149.105 81.1759 150.453 77.67C151.155 75.89 151.586 74.0562 151.64 72.1684C151.694 70.2805 151.64 68.3388 151.209 66.5589C150.993 65.6419 150.615 64.8329 150.238 63.9159C149.86 62.999 149.536 62.0281 149.375 61.0033C149.159 60.0324 149.051 59.0076 148.997 58.0367C148.943 57.0659 148.889 56.095 148.835 55.0702C148.727 51.1327 149.267 47.1414 150.669 43.3657C151.37 41.4779 152.287 39.698 153.42 38.0259C154.499 36.3539 155.739 34.7897 157.304 33.4412C158.059 32.7401 158.922 32.1467 159.731 31.6613C160.54 31.1219 161.295 30.6365 162.05 30.0432C163.506 28.8566 164.747 27.4542 165.933 25.9979C167.12 24.5416 168.091 22.9234 168.846 21.2514C169.601 19.5254 170.087 17.7454 170.572 15.8576C171.058 13.9698 171.705 11.9741 172.837 10.2481C173.431 9.38512 174.078 8.57606 174.779 7.87487L175.912 6.85006L177.099 5.93312C178.771 4.80044 180.497 3.82956 182.384 3.07444C182.816 2.85869 183.301 2.69687 183.787 2.53506C184.272 2.37325 184.704 2.21144 185.189 2.04962C186.16 1.77994 187.077 1.51025 188.048 1.2945C189.99 0.863 191.931 0.539375 193.873 0.323625C195.815 0.107875 197.811 0 199.752 0C203.69 0 207.627 0.4315 211.403 1.40237C215.178 2.37325 218.9 3.82956 222.298 5.77131C225.696 7.71306 228.879 9.97844 231.629 12.7832C232.978 14.1856 234.272 15.6958 235.189 17.4218C235.675 18.2848 236.106 19.1478 236.322 20.1187C236.538 21.0356 236.538 22.1144 235.944 22.9234C236.484 22.1144 236.43 21.0356 236.214 20.1187C235.944 19.2017 235.513 18.3387 235.027 17.5297C234.003 15.9116 232.708 14.4552 231.36 13.1068C228.609 10.4099 225.373 8.25244 221.975 6.4725C218.576 4.69256 214.963 3.29019 211.241 2.42719C207.519 1.56419 203.69 1.18662 199.86 1.2945C196.031 1.34844 192.201 1.88781 188.479 2.75081C187.562 2.96656 186.645 3.23625 185.729 3.50594C185.297 3.66775 184.812 3.82956 184.38 3.99137C183.949 4.15319 183.463 4.315 183.032 4.53075C181.252 5.23194 179.634 6.20281 178.123 7.22762L176.991 8.09062L175.966 9.0615C175.319 9.70875 174.725 10.4099 174.24 11.1651C173.215 12.6753 172.676 14.4552 172.19 16.2891C171.705 18.123 171.219 20.1187 170.41 21.9526C169.601 23.7864 168.576 25.5664 167.282 27.0766C166.041 28.6408 164.693 30.0971 163.129 31.3916C162.32 32.0389 161.511 32.5782 160.648 33.1176C159.839 33.6031 159.083 34.1424 158.382 34.7357C157.034 35.9763 155.793 37.4326 154.768 38.9968C153.744 40.561 152.827 42.2331 152.179 44.013C150.831 47.5189 150.292 51.3485 150.346 55.1241C150.4 57.0119 150.453 58.9537 150.777 60.7875C150.939 61.7045 151.209 62.5675 151.532 63.4844C151.856 64.3474 152.233 65.3183 152.503 66.2892C152.989 68.2849 152.988 70.2805 152.881 72.2762C152.773 74.2719 152.287 76.2676 151.532 78.1015C150.022 81.8232 147.379 84.7897 146.084 88.3496C145.437 90.1295 145.114 92.0174 144.952 93.9052C144.844 95.793 145.114 97.7347 145.653 99.5686C146.246 101.402 146.894 103.236 147.757 104.962C148.566 106.634 149.537 108.306 150.777 109.817Z" fill="#552728"/>
<path d="M212.586 25.2983C208.433 24.1656 205.304 22.6014 201.691 23.6802C200.882 23.8959 198.077 25.6219 192.467 29.02C191.82 29.3975 191.065 29.9909 189.878 30.5302C187.559 31.609 186.157 31.609 184.485 33.2271C181.734 35.87 184.323 38.1893 182.974 44.8237C182.219 48.4375 181.518 47.8442 180.871 51.1343C180.655 52.267 179.954 56.3123 182.219 64.8345C184.053 71.6306 184.916 70.4979 184.97 72.979C185.24 82.2563 172.834 94.1765 172.834 97.4127C172.834 98.2757 172.888 98.8151 172.996 99.3005C172.996 99.3005 173.212 100.487 173.697 101.674C175.261 105.18 184.97 116.507 182.651 119.527C180.17 122.817 160.482 120.498 152.446 111.598C150.72 109.657 148.346 105.665 146.836 100.649C146.351 99.0848 146.135 97.3048 146.243 95.0934C146.836 84.7374 154.441 82.9575 153.902 71.4688C153.632 65.6435 151.691 66.2368 151.259 59.2789C151.043 54.9639 150.666 45.9024 157.516 37.8118C161.076 33.6047 162.316 34.7374 166.523 30.2605C174.614 21.6305 171.162 16.2907 176.718 10.4655C183.622 3.2918 197.969 1.45792 207.947 2.69848C227.203 5.07173 240.903 20.1203 237.667 24.651C235.456 27.7794 222.133 27.8873 212.586 25.2983Z" fill="#552728"/>
<path d="M173.427 58.1992C175.476 62.9996 179.468 65.9123 182.218 64.7256C185.023 63.539 185.617 58.6307 183.513 53.8303C181.463 49.0298 177.472 46.1172 174.721 47.3038C171.97 48.4904 171.377 53.3988 173.427 58.1992Z" fill="#F9B09F"/>
<path d="M184.54 78.0486L172.512 78.7498L173.914 68.5017L180.71 68.3398L184.54 78.0486Z" fill="#F2C45B"/>
<path d="M179.197 64.4021C178.981 65.8044 177.633 66.7753 176.177 66.5596C174.774 66.3438 173.803 64.9954 174.019 63.5391C174.235 62.1367 175.583 61.1658 177.04 61.3816C178.442 61.5973 179.413 62.9458 179.197 64.4021Z" fill="#F2C45B"/>
<path d="M178.355 65.6225L178.43 70.7461L175.464 70.7894L175.389 65.6658L178.355 65.6225Z" fill="#CB7E5D"/>
<path d="M214.634 20.4414C214.634 20.4414 225.745 23.5158 232.164 34.4652C242.789 52.6421 235.454 80.0423 218.194 90.2365C216.468 91.2613 205.518 97.6799 194.947 93.4188C180.545 87.5936 178.927 66.8276 178.604 62.0811C178.118 56.3638 177.309 32.5773 214.634 20.4414Z" fill="#F9B09F"/>
<path d="M231.248 60.7339C229.738 66.0198 231.356 71.0899 234.916 72.1148C238.475 73.1396 242.575 69.7415 244.139 64.4556C245.649 59.1698 244.031 54.0996 240.471 53.0748C236.911 52.05 232.812 55.4481 231.248 60.7339Z" fill="#F9B09F"/>
<path d="M197.213 71.1425H204.063V70.3874H198.076L201.204 47.0864L200.503 46.9785L197.213 71.1425Z" fill="#DD715F"/>
<path opacity="0.56" d="M218.084 75.5106C215.075 75.5106 212.636 73.0716 212.636 70.0629C212.636 67.0542 215.075 64.6152 218.084 64.6152C221.093 64.6152 223.532 67.0542 223.532 70.0629C223.532 73.0716 221.093 75.5106 218.084 75.5106Z" fill="#DD715F"/>
<path opacity="0.56" d="M185.772 73.7294C182.763 73.7294 180.324 71.2903 180.324 68.2817C180.324 65.273 182.763 62.834 185.772 62.834C188.78 62.834 191.219 65.273 191.219 68.2817C191.219 71.2903 188.78 73.7294 185.772 73.7294Z" fill="#DD715F"/>
<path d="M210.266 78.9648C208.918 79.666 207.623 80.2054 206.329 80.583C205.034 80.9605 203.74 81.1763 202.445 81.2302C201.151 81.2842 199.856 81.1223 198.508 80.8527C197.213 80.529 195.865 80.0975 194.516 79.5042C195.326 80.7987 196.512 81.8235 197.915 82.5247C199.317 83.2259 200.935 83.5495 202.499 83.4956C204.063 83.4417 205.628 83.0102 207.03 82.255C208.378 81.392 209.565 80.3133 210.266 78.9648Z" fill="#DD715F"/>
<path d="M185.775 55.9869C185.775 57.9825 186.799 59.6007 188.04 59.6007C189.28 59.6007 190.305 57.9825 190.305 55.9869C190.305 53.9912 189.28 52.373 188.04 52.373C186.799 52.373 185.775 53.9912 185.775 55.9869Z" fill="#231F20"/>
<path d="M210.751 57.1197C210.751 59.1154 211.776 60.7335 213.016 60.7335C214.257 60.7335 215.282 59.1154 215.282 57.1197C215.282 55.124 214.257 53.5059 213.016 53.5059C211.776 53.5059 210.751 55.124 210.751 57.1197Z" fill="#231F20"/>
<path d="M224.834 48.4889C221.004 46.7629 216.527 45.846 212.158 45.9539C211.241 45.9539 210.54 46.5472 210.648 47.1944C210.756 47.8956 211.619 48.435 212.536 48.381C212.59 48.381 212.59 48.381 212.644 48.381C216.312 48.1653 220.195 48.7586 223.647 50.107C224.348 50.3767 225.157 50.2149 225.427 49.7295C225.697 49.3519 225.427 48.7586 224.834 48.4889Z" fill="#552728"/>
<path d="M185.566 47.3052C187.076 47.0355 188.64 46.9277 190.151 47.0355C191.715 47.1434 193.225 47.467 194.627 47.9525C195.383 48.2222 196.246 47.9525 196.515 47.3592C196.785 46.7658 196.407 46.0647 195.652 45.795H195.598C193.818 45.2556 191.985 44.9859 190.151 44.932C188.317 44.878 186.483 45.0938 184.811 45.5253C184.218 45.6871 183.894 46.2265 184.11 46.7119C184.379 47.1434 184.973 47.4131 185.566 47.3052Z" fill="#552728"/>
<path d="M188.909 44.9277C193.601 44.9277 197.539 48.164 198.564 52.5329C198.618 52.5329 198.671 52.5329 198.671 52.5329H205.252C205.306 52.5329 205.414 52.5869 205.468 52.5869C206.492 48.2179 210.43 44.9277 215.176 44.9277C219.653 44.9277 223.483 47.9482 224.723 52.0475H224.777L236.428 52.5869C236.643 52.5869 236.805 52.7487 236.805 52.9644C236.805 53.1802 236.643 53.342 236.428 53.342L224.885 52.8565C225.047 53.5577 225.101 54.2589 225.101 55.014C225.101 60.5157 220.624 64.9925 215.122 64.9925C209.621 64.9925 205.144 60.5157 205.144 55.014C205.144 54.4747 205.198 53.8814 205.306 53.342H205.252H198.725C198.833 53.8814 198.887 54.4207 198.887 54.9601C198.887 60.4617 194.41 64.9385 188.909 64.9385C183.407 64.9385 178.93 60.4617 178.93 54.9601C178.93 49.4045 183.407 44.9277 188.909 44.9277ZM215.176 64.1295C220.246 64.1295 224.4 59.9763 224.4 54.9062C224.4 49.836 220.246 45.6829 215.176 45.6829C210.106 45.6829 205.953 49.836 205.953 54.9062C205.953 59.9763 210.106 64.1295 215.176 64.1295ZM188.909 64.1295C193.979 64.1295 198.132 59.9763 198.132 54.9062C198.132 49.836 193.979 45.6829 188.909 45.6829C183.839 45.6829 179.685 49.836 179.685 54.9062C179.685 59.9763 183.839 64.1295 188.909 64.1295Z" fill="white"/>
<path d="M245.43 84.1423L233.348 84.7896L234.751 74.5415L241.547 74.4336L245.43 84.1423Z" fill="#F2C45B"/>
<path d="M240.034 70.4431C239.818 71.8455 238.47 72.8163 237.013 72.6006C235.611 72.3848 234.64 71.0364 234.856 69.5801C235.071 68.1777 236.42 67.2068 237.876 67.4226C239.333 67.6923 240.303 69.0407 240.034 70.4431Z" fill="#F2C45B"/>
<path d="M239.246 71.6831L239.321 76.8066L236.355 76.8499L236.28 71.7264L239.246 71.6831Z" fill="#CB7E5D"/>
<path d="M197.323 29.3437C186.05 33.0115 185.835 50.2175 176.719 50.649C173.591 50.8108 170.894 48.8691 169.168 47.197C177.097 38.1895 180.765 31.663 182.652 27.2941C183.246 25.9996 184.54 22.9252 187.561 20.0665C190.042 17.7472 193.332 16.3987 196.622 15.5357C203.149 13.7558 210.16 13.4322 216.579 15.6436C223.429 18.0168 229.794 24.7051 228.607 27.8335C228.176 28.9661 226.773 29.4516 225.91 29.7213C215.015 32.8496 205.576 26.6468 197.323 29.3437Z" fill="#552728"/>
<path d="M227.582 24.2168C227.582 24.2168 228.877 49.2438 236.428 52.9115C243.979 56.5793 243.979 34.9504 242.631 33.548C241.229 32.0917 227.582 24.2168 227.582 24.2168Z" fill="#552728"/>
<path d="M177.53 261.812L247.002 274.218C249.051 274.595 251.101 273.462 251.91 271.521L286.376 184.897C287.994 180.798 285.459 176.159 281.09 175.404L214.747 163.592C212.698 163.214 210.648 164.347 209.839 166.289L174.186 255.771C173.161 258.414 174.78 261.273 177.53 261.812Z" fill="#35886F"/>
<path d="M284.33 177.128L291.719 183.601L212.755 168.93L211.191 164.453L284.33 177.128Z" fill="white"/>
<path d="M213.184 164.402L220.897 168.933L223.54 223.68L182.601 266.991L174.78 261.004C173.594 260.087 173.108 258.469 173.647 257.067L209.3 165.751C209.947 164.186 211.781 163.593 213.184 164.402Z" fill="#7FCBB4"/>
<path d="M182.601 266.99L256.172 280.097C257.52 280.313 258.815 279.611 259.3 278.371L295.492 185.652C296.14 183.98 295.115 182.146 293.389 181.877L220.897 168.932L182.601 266.99Z" fill="#5EAF97"/>
<path d="M168.843 232.956C169.868 232.416 171.324 233.495 172.511 235.221C172.996 235.922 173.212 236.785 173.697 237.54C174.291 238.457 174.992 239.051 175.477 239.536C176.017 240.021 176.664 240.615 177.527 241.154L175.477 239.536C171.162 233.225 166.847 226.645 167.441 226.213C167.441 226.213 167.441 226.213 167.494 226.213C167.926 226.16 169.544 226.483 172.079 228.425C172.726 228.964 173.589 230.421 174.398 231.122C174.992 231.661 175.855 232.201 176.556 232.902C177.311 233.657 177.797 234.736 178.552 235.491C179.738 236.623 181.302 237.109 182.273 237.81C186.103 240.777 189.069 241.855 187.883 240.615C186.049 238.781 178.552 236.03 172.565 227.562C171.594 226.16 171.216 225.189 171.809 225.027C172.295 224.919 174.021 224.973 175.585 226.052C176.61 226.807 177.257 228.317 178.606 229.288C179.415 229.881 180.439 230.205 181.302 230.798C184.647 233.117 182.921 234.196 195.973 236.354C195.434 235.167 194.625 234.088 194.194 233.549C193.384 232.632 185.779 228.209 187.451 226.591C189.123 225.027 206.653 234.142 206.653 234.142L216.578 241.747C230.062 242.772 240.688 241.855 247.807 240.831C263.503 238.619 275.369 234.088 293.816 236.354C296.891 236.731 299.318 237.163 300.882 237.486L307.516 266.235C293.6 265.264 232.651 260.518 216.416 259.115C203.363 259.439 195.057 257.443 189.069 254.639L182.705 253.56C180.386 252.373 178.282 251.187 176.124 250.324C176.124 250.324 168.519 240.129 169.274 239.59C169.814 239.158 170.569 239.266 171.378 239.752C169.868 236.623 168.411 233.171 168.843 232.956Z" fill="#F9B09F"/>
</svg>
