<svg width="373" height="278" fill="none" xmlns="http://www.w3.org/2000/svg"><path fill="#fff" d="M0 0h373v278H0z"/><circle cx="265.741" cy="163.884" r="62.866" transform="rotate(-133.732 265.741 163.884)" fill="#F4F7FE"/><circle cx="191.756" cy="113.036" r="18.921" transform="rotate(-133.732 191.756 113.036)" fill="#F4F7FE"/><g clip-path="url(#a)" fill="#F37E60"><path d="M44.816 52.567a4.506 4.506 0 0 1-1.956-1.1c-1.242-1.176-1.739-2.953-1.293-4.64L51.435 9.49c.445-1.686 1.753-2.988 3.417-3.398a4.503 4.503 0 0 1 4.34 1.245l25.98 26.84c1.154 1.196 1.587 2.879 1.156 4.509-.431 1.63-1.638 2.88-3.233 3.349L47.248 52.533a4.544 4.544 0 0 1-2.43.038v-.004Zm11.51-43.53a1.449 1.449 0 0 0-.694 0c-.586.148-1.038.61-1.205 1.242l-9.868 37.337c-.167.631-.005 1.256.434 1.675.217.2.663.527 1.345.32l35.849-10.5c.559-.158.987-.618 1.146-1.219.159-.6.012-1.213-.394-1.627L56.96 9.425a1.349 1.349 0 0 0-.634-.386v-.002Z"/><path d="M51.317 73.816c-23.336-6.167-37.3-30.166-31.132-53.5 6.167-23.334 30.166-37.3 53.5-31.132 23.334 6.167 37.299 30.166 31.132 53.5-6.167 23.334-30.166 37.3-53.5 31.132ZM72.925-7.94C51.178-13.688 28.81-.672 23.063 21.075c-5.748 21.747 7.268 44.114 29.015 49.862 21.747 5.747 44.115-7.269 49.862-29.016 5.748-21.747-7.268-44.114-29.015-49.862Z"/></g><g filter="url(#b)"><rect x="169.281" y="78.107" width="147" height="35" rx="17.5" transform="rotate(15 169.281 78.107)" fill="#DEE4F2" shape-rendering="crispEdges"/><path d="M184.532 106.27a6.358 6.358 0 0 1-2.217-1.058 5.858 5.858 0 0 1-1.532-1.702 5.766 5.766 0 0 1-.728-2.166 6.278 6.278 0 0 1 .184-2.42 6.166 6.166 0 0 1 1.046-2.17 5.598 5.598 0 0 1 1.709-1.497 5.739 5.739 0 0 1 2.182-.724 6.368 6.368 0 0 1 2.45.193c.845.226 1.584.579 2.218 1.058a5.742 5.742 0 0 1 1.527 1.717c.387.656.632 1.373.732 2.151a6.155 6.155 0 0 1-.18 2.404 6.275 6.275 0 0 1-1.05 2.186 5.75 5.75 0 0 1-1.713 1.512 5.85 5.85 0 0 1-2.178.709 6.357 6.357 0 0 1-2.45-.193Zm.423-1.576c.783.21 1.522.214 2.216.014a3.96 3.96 0 0 0 1.804-1.107c.511-.548.875-1.228 1.094-2.042.218-.814.241-1.581.069-2.3a3.951 3.951 0 0 0-1.009-1.861c-.5-.52-1.143-.886-1.926-1.096-.772-.207-1.511-.212-2.215-.014a3.95 3.95 0 0 0-1.804 1.107c-.509.537-.872 1.213-1.09 2.027-.218.814-.243 1.586-.074 2.316a3.963 3.963 0 0 0 1.009 1.86c.511.524 1.153.889 1.926 1.096Zm10.989 4.634c-1.319-.353-2.209-1.094-2.668-2.222-.46-1.128-.455-2.568.014-4.32.461-1.72 1.107-2.933 1.936-3.639.83-.705 1.917-.971 3.262-.799l3.517.413-.169 1.495-3.475-.385c-.601-.061-1.113-.005-1.535.169-.412.177-.767.512-1.065 1.006-.296.484-.581 1.159-.857 2.024l-.387.393c.244-.498.57-.891.978-1.179a3.056 3.056 0 0 1 1.391-.555 3.752 3.752 0 0 1 1.567.088c.742.199 1.327.527 1.757.985.443.45.729.99.858 1.621.131.621.102 1.286-.088 1.997-.213.794-.564 1.445-1.054 1.954a3.597 3.597 0 0 1-1.764 1.018c-.675.173-1.415.151-2.218-.064Zm.331-1.485c.701.188 1.305.118 1.812-.21.518-.325.878-.864 1.079-1.616.196-.731.163-1.348-.101-1.849-.26-.511-.73-.858-1.41-1.04a2.275 2.275 0 0 0-1.172-.016 2.624 2.624 0 0 0-1.049.514 2.942 2.942 0 0 0-.77 1.019l.294-.849c-.336 1.169-.399 2.085-.19 2.749.211.653.714 1.086 1.507 1.298Zm6.07 2.935 1.975-7.372.553 1.275-2.411-.646.373-1.391 3.245.869-1.992 7.434-.783-1.403 3.075.825c.443.118.811.106 1.103-.036.292-.143.489-.405.591-.786.1-.371.057-.686-.127-.945-.182-.27-.494-.464-.937-.583l-2.798-.749.373-1.391 2.936.787c.907.243 1.57.674 1.989 1.295.432.612.549 1.29.35 2.031-.138.516-.388.934-.751 1.257a2.774 2.774 0 0 1-1.315.641c-.511.095-1.06.064-1.648-.093l-3.801-1.019Zm13.148 3.523 2.005-7.48.818 1.396-3.075-.824c-.392-.105-.745-.106-1.06-.003-.304.106-.51.36-.618.762-.096.361-.052.671.132.93.195.262.514.452.957.571l2.658.712-.339 1.268-2.844-.762c-.897-.241-1.555-.649-1.974-1.225-.407-.584-.511-1.247-.312-1.989.124-.463.363-.841.717-1.132a2.653 2.653 0 0 1 1.283-.584 3.628 3.628 0 0 1 1.617.085l3.725.998-2.067 7.712-1.623-.435Zm-5.44-1.457 3.578-2.719 1.793.48-3.439 2.756-1.932-.517Zm15.832 1.707.823 1.38a4.324 4.324 0 0 1-1.709.752c-.628.118-1.303.081-2.024-.112-.793-.213-1.457-.578-1.992-1.097a4.203 4.203 0 0 1-1.079-1.846c-.195-.715-.185-1.474.031-2.278.212-.793.58-1.445 1.104-1.957a4.003 4.003 0 0 1 1.873-1.055c.735-.189 1.505-.176 2.308.039.701.188 1.288.489 1.763.903.484.417.852.918 1.104 1.505l-1.403.784a2.673 2.673 0 0 0-.642-1.067c-.282-.307-.665-.526-1.149-.656a2.4 2.4 0 0 0-2.477.712c-.311.336-.535.762-.673 1.277-.138.515-.158 1.001-.06 1.458.099.457.303.849.613 1.175.311.326.703.552 1.177.679.484.13.925.132 1.323.007a2.888 2.888 0 0 0 1.089-.603Zm7.752 4.612 2.066-7.712 1.731.464-2.066 7.712-1.731-.464Zm-5.625-1.508 2.066-7.711 1.731.463-2.067 7.712-1.73-.464Zm1.713-3.118.381-1.422 5.796 1.553-.381 1.422-5.796-1.553Zm7.9 5.695 2.067-7.712 1.669.447-1.47 5.486-.111-.079 5.723-4.297 1.514.405-2.066 7.712-1.669-.447 1.47-5.486.096.075-5.708 4.301-1.515-.405Zm9.584 2.568 2.067-7.712 1.823.488 1.433 6.215-.274-.09 4.297-4.663 1.901.509-2.067 7.712-1.591-.426 1.913-7.14.592.572-4.756 5.137-1.19-.319-1.55-6.826.829-.126-1.897 7.078-1.53-.409Zm14.459 3.874 2.066-7.712 3.941 1.056c.835.223 1.445.586 1.83 1.086.384.501.493 1.065.324 1.694a1.677 1.677 0 0 1-.633.94 2.22 2.22 0 0 1-1.105.416l.022-.143c.458.266.798.606 1.019 1.018.223.403.273.836.149 1.299a1.912 1.912 0 0 1-.717 1.067c-.346.261-.765.425-1.258.491a3.942 3.942 0 0 1-1.558-.119l-4.08-1.093Zm1.708-.006-.665-1.106 3.169.849c.463.124.837.13 1.121.019.294-.109.487-.334.578-.674.091-.34.036-.63-.164-.872-.19-.238-.517-.42-.981-.544l-2.998-.804.327-1.22 2.875.77c.433.116.759.115.978-.003.23-.115.385-.322.465-.621.08-.299.046-.545-.101-.739-.136-.191-.421-.345-.853-.461l-3.091-.828 1.183-.644-1.843 6.878Zm13.401 1.52.823 1.38a4.322 4.322 0 0 1-1.709.751c-.628.119-1.302.082-2.024-.111-.793-.213-1.457-.579-1.992-1.097a4.206 4.206 0 0 1-1.079-1.847c-.195-.714-.184-1.474.031-2.277.213-.794.581-1.446 1.104-1.957a3.999 3.999 0 0 1 1.873-1.055c.735-.19 1.505-.177 2.309.038.7.188 1.288.489 1.762.903.485.417.853.919 1.104 1.505l-1.403.784a2.656 2.656 0 0 0-.641-1.066c-.282-.308-.666-.526-1.15-.656a2.466 2.466 0 0 0-1.358 0 2.392 2.392 0 0 0-1.118.711c-.311.336-.536.762-.674 1.277-.138.515-.158 1.002-.059 1.459.098.457.302.848.613 1.174.31.326.702.553 1.176.68.484.13.925.132 1.323.007a2.902 2.902 0 0 0 1.089-.603Zm8.895 2.416.699 1.347a4.41 4.41 0 0 1-1.793.696c-.669.108-1.37.063-2.101-.133-.866-.232-1.587-.612-2.162-1.142a4.146 4.146 0 0 1-1.172-1.871c-.205-.718-.202-1.473.011-2.266.215-.804.586-1.467 1.112-1.988a4.005 4.005 0 0 1 1.873-1.056c.723-.181 1.475-.167 2.258.042.763.205 1.391.561 1.884 1.068a3.825 3.825 0 0 1 1.01 1.795c.18.689.164 1.43-.049 2.223l-.025.093-1.715-.46.045-.17c.138-.515.16-.99.067-1.423a2.142 2.142 0 0 0-.533-1.104c-.271-.304-.629-.516-1.072-.635a2.355 2.355 0 0 0-1.327.009 2.252 2.252 0 0 0-1.068.708c-.301.339-.525.786-.675 1.343-.149.556-.165 1.071-.049 1.544.127.475.361.88.702 1.215.354.326.799.562 1.335.705.978.262 1.893.082 2.745-.54Zm1.404-.667-6.862-1.839.315-1.174 6.615 1.772.094.638-.162.603Zm-.641-6.632a1.096 1.096 0 0 1-.679-.496 1.054 1.054 0 0 1-.11-.825 1.01 1.01 0 0 1 .508-.659c.261-.151.541-.186.84-.106.309.083.534.253.675.512.153.251.19.526.11.824a1.044 1.044 0 0 1-.508.659c-.248.144-.527.174-.836.091Zm-3.338-.894a1.097 1.097 0 0 1-.679-.497 1.048 1.048 0 0 1-.11-.825c.08-.298.249-.518.508-.659a1.07 1.07 0 0 1 .84-.106c.299.08.523.251.674.512.154.251.191.526.111.825a1.052 1.052 0 0 1-.508.659c-.259.14-.537.171-.836.091Zm7.066 10.871a1.088 1.088 0 0 1-.552.697 1.111 1.111 0 0 1-.875.113 1.184 1.184 0 0 1-.732-.544 1.111 1.111 0 0 1-.113-.875c.083-.309.261-.543.536-.701a1.18 1.18 0 0 1 .906-.105c.309.083.542.261.701.536.168.277.211.57.129.879Zm-.039-2.578-.896-.24c.024-.17.071-.45.142-.84l.252-1.373c.094-.516.193-1.048.295-1.594.102-.547.196-1.063.282-1.548.096-.482.17-.882.222-1.2.065-.325.106-.518.122-.58a.905.905 0 0 1 .476-.601c.246-.133.508-.162.786-.088a.98.98 0 0 1 .621.465c.149.227.186.48.111.758-.016.062-.078.25-.184.564a59.62 59.62 0 0 1-.407 1.15 156 156 0 0 1-.514 1.485 465.647 465.647 0 0 1-1.011 2.844c-.133.373-.232.639-.297.798Z" fill="#6683C2"/></g><g filter="url(#c)"><rect x="126.945" y="15" width="186" height="35" rx="17.5" transform="rotate(15 126.945 15)" fill="#DEE4F2" shape-rendering="crispEdges"/><path d="m137.131 40.712.203-.757.51.137c.288.077.571-.051.849-.386.28-.344.584-.925.914-1.742l2.735-6.87 7.125 1.908-2.713 10.123-1.761-.472 2.629-9.814.647 1.482-5.997-1.606 1.672-.861-2.722 6.758c-.249.64-.525 1.156-.829 1.55-.302.383-.653.642-1.054.778-.39.138-.853.135-1.389-.008l-.819-.22Zm-1.469 3.317 1.131-4.219 11.375 3.048-1.131 4.22-1.684-.452.994-3.71.87 1.327-9.814-2.63.909-.733-.965 3.6-1.685-.45Zm17.208 1.994c-.814-.218-1.493-.588-2.038-1.11a4 4 0 0 1-1.095-1.85c-.194-.715-.184-1.474.031-2.277.213-.794.582-1.451 1.108-1.973a4.007 4.007 0 0 1 1.873-1.055c.733-.18 1.506-.16 2.32.058.824.221 1.504.591 2.038 1.11.545.521.91 1.138 1.095 1.85.195.715.186 1.469-.027 2.262-.215.804-.586 1.467-1.112 1.988a3.86 3.86 0 0 1-1.873 1.055c-.722.182-1.496.163-2.32-.058Zm.389-1.453c.485.13.938.13 1.359 0 .421-.13.782-.365 1.083-.704.314-.346.541-.783.682-1.308.138-.515.156-.996.055-1.443a2.328 2.328 0 0 0-.582-1.166c-.3-.323-.692-.55-1.176-.68a2.383 2.383 0 0 0-1.343.005c-.421.13-.789.368-1.103.715-.3.339-.52.766-.658 1.281-.141.525-.167 1.015-.079 1.47.101.446.302.831.602 1.155.3.323.687.548 1.16.675Zm12.164 2.017.823 1.38a4.333 4.333 0 0 1-1.709.751c-.628.12-1.303.082-2.024-.111-.793-.213-1.457-.578-1.992-1.097a4.193 4.193 0 0 1-1.079-1.846c-.195-.715-.185-1.474.031-2.278.212-.793.58-1.446 1.104-1.957a3.997 3.997 0 0 1 1.873-1.055c.735-.19 1.505-.177 2.308.039.701.187 1.288.488 1.763.903.484.416.852.918 1.104 1.505l-1.403.783a2.67 2.67 0 0 0-.642-1.066c-.282-.308-.665-.526-1.149-.656a2.467 2.467 0 0 0-1.359 0 2.406 2.406 0 0 0-1.118.711c-.311.336-.535.762-.673 1.277-.138.516-.158 1.002-.06 1.459.099.457.303.848.613 1.174.31.326.702.553 1.176.68.485.13.926.132 1.324.007a2.89 2.89 0 0 0 1.089-.603Zm4.058 3.622 1.913-7.14 1.731.463-1.913 7.14-1.731-.463Zm-1.015-7.03.377-1.407 7.125 1.91-.377 1.406-7.125-1.91Zm14.67 2.423 1.747.468-6.108 7.772c-.426.56-.889.949-1.39 1.168-.5.22-1.106.234-1.817.043l-.927-.248.385-1.438.85.228c.319.086.603.079.85-.02.255-.087.485-.263.688-.528l.437-.579-1.252-8.618 1.808.485.849 7.466-.603-.162 4.483-6.037Zm1.091 8.558 2.066-7.712 7.125 1.909-2.067 7.712-1.731-.464 1.992-7.434.934 1.46-6.228-1.67 1.631-.771-1.991 7.434-1.731-.464Zm15.013 4.023 2.066-7.712 1.731.464-2.066 7.711-1.731-.463Zm-5.626-1.508 2.067-7.712 1.731.464-2.067 7.712-1.731-.464Zm1.714-3.118.381-1.422 5.795 1.553-.381 1.421-5.795-1.553Zm7.9 5.694 2.067-7.712 1.669.448-2.005 7.48-.89-1.498 3.168.85c.443.118.811.106 1.103-.037.295-.153.492-.414.591-.785.1-.371.059-.691-.123-.961s-.494-.464-.937-.583l-2.767-.74.377-1.407 2.89.774c.917.246 1.585.679 2.004 1.3.419.62.529 1.3.331 2.042-.141.526-.394.955-.759 1.288-.353.325-.786.54-1.3.645-.511.095-1.066.063-1.663-.097l-3.756-1.007Zm7.681 2.058 2.067-7.712 1.731.464-2.067 7.712-1.731-.464Zm3.986 1.068 2.066-7.712 1.824.489 1.432 6.214-.274-.09 4.297-4.662 1.901.51-2.066 7.711-1.592-.426 1.913-7.14.592.572-4.755 5.136-1.19-.318-1.55-6.826.828-.126-1.896 7.078-1.53-.41Zm19.342 5.183 2.005-7.48.818 1.395-3.075-.824c-.392-.105-.745-.105-1.06-.002-.304.106-.51.36-.618.762-.097.36-.053.67.132.93.195.262.514.452.957.57l2.658.713-.34 1.267-2.843-.762c-.897-.24-1.555-.648-1.975-1.224-.406-.584-.51-1.247-.312-1.989.125-.463.364-.841.718-1.133a2.658 2.658 0 0 1 1.283-.583 3.633 3.633 0 0 1 1.617.085l3.724.998-2.066 7.712-1.623-.435Zm-5.44-1.457 3.578-2.72 1.792.481-3.438 2.756-1.932-.517Zm11.825 3.433a5.804 5.804 0 0 1-1.826-.854 4.088 4.088 0 0 1-1.303-1.442l1.225-.798c.49.849 1.235 1.407 2.234 1.675.598.16 1.094.183 1.489.068.398-.126.647-.374.746-.745.177-.659-.312-1.143-1.466-1.452l-1.545-.415.327-1.22 1.561.418c.484.13.876.152 1.175.066.302-.096.495-.303.581-.623.085-.32-.001-.613-.261-.881-.249-.266-.636-.469-1.162-.61-.896-.24-1.753-.11-2.572.388l-.653-1.335c1.103-.654 2.319-.803 3.648-.447.65.174 1.195.425 1.637.754.455.32.782.69.979 1.107.2.407.241.832.122 1.275-.11.412-.329.734-.656.967-.328.232-.736.355-1.225.367l.033-.123c.489.274.834.615 1.034 1.022.203.397.241.832.114 1.306-.127.474-.396.86-.807 1.159-.408.288-.91.468-1.503.541-.594.073-1.236.017-1.926-.168Zm5.243 1.14 2.066-7.712 1.669.447-2.004 7.48-.891-1.497 3.169.849c.443.118.81.106 1.102-.036.295-.153.493-.415.592-.786.099-.37.058-.691-.124-.96-.181-.27-.494-.464-.937-.583l-2.766-.741.377-1.407 2.89.775c.917.245 1.585.678 2.004 1.299.419.62.529 1.3.33 2.043-.141.525-.394.954-.759 1.287-.352.325-.785.54-1.299.646-.512.095-1.066.062-1.664-.098l-3.755-1.006Zm7.681 2.058 2.066-7.712 1.731.464-2.066 7.712-1.731-.464Zm9.225 2.472-2.884-5.063.17.045 4.548-2.757 2.133.572-5.16 3.123.089-1.136 3.36 5.82-2.256-.604Zm-5.24-1.404 2.067-7.712 1.731.464-2.067 7.712-1.731-.464Zm11.854 3.441c-.814-.218-1.493-.588-2.038-1.11a4 4 0 0 1-1.095-1.85c-.195-.715-.184-1.474.031-2.277.212-.794.582-1.451 1.108-1.973a4.002 4.002 0 0 1 1.873-1.055c.733-.18 1.506-.16 2.32.059.824.22 1.504.59 2.038 1.109.545.521.91 1.138 1.095 1.85.195.715.186 1.469-.027 2.262-.215.804-.586 1.467-1.112 1.988a3.859 3.859 0 0 1-1.873 1.055c-.722.182-1.496.163-2.32-.058Zm.389-1.453c.485.13.937.13 1.359 0 .421-.13.782-.365 1.083-.704.313-.346.541-.782.682-1.308.138-.515.156-.996.055-1.443a2.328 2.328 0 0 0-.582-1.166c-.3-.323-.692-.55-1.176-.68a2.384 2.384 0 0 0-1.343.005 2.44 2.44 0 0 0-1.103.715c-.301.339-.52.766-.658 1.281-.141.526-.167 1.016-.079 1.47.101.447.302.832.602 1.155.299.323.686.548 1.16.675Zm5.657 2.808 2.067-7.712 1.823.489 1.433 6.214-.274-.09 4.297-4.662 1.901.509-2.067 7.712-1.591-.427 1.913-7.14.592.573-4.756 5.136-1.19-.319-1.55-6.826.829-.125-1.897 7.078-1.53-.41Z" fill="#6683C2"/></g><g filter="url(#d)"><rect x="101.062" y="111.593" width="162" height="35" rx="17.5" transform="rotate(15 101.062 111.593)" fill="#DEE4F2" shape-rendering="crispEdges"/><path d="m111.11 138.096 2.961-11.05 4.435 1.189c.722.193 1.317.485 1.786.876.483.383.811.83.983 1.34.183.513.197 1.057.042 1.634a2.536 2.536 0 0 1-.837 1.333c-.399.335-.903.548-1.513.638-.596.083-1.255.028-1.976-.165l-2.504-.671.207-.773 2.72.729c.773.207 1.415.512 1.925.914.511.402.865.872 1.063 1.411.201.529.22 1.097.057 1.705-.168.628-.477 1.142-.926 1.54-.447.389-.994.64-1.643.753-.646.103-1.356.051-2.128-.156l-4.652-1.247Zm2.179-1.023 2.874.771c.639.171 1.179.155 1.62-.047.443-.212.738-.592.884-1.138.144-.535.075-1.001-.205-1.396-.281-.396-.74-.679-1.379-.85l-3.029-.812.397-1.484 2.736.733c.577.155 1.067.137 1.472-.053.417-.197.692-.543.824-1.037.13-.485.061-.906-.207-1.265-.256-.367-.672-.627-1.249-.782l-2.581-.692-2.157 8.052Zm11.172 4.601 2.066-7.712 7.125 1.909-2.066 7.712-1.731-.464 1.992-7.434.934 1.46-6.229-1.669 1.632-.772-1.992 7.434-1.731-.464Zm10.3 5.973-1.731-.464 2.87-10.71 1.715.46-.638 2.38-.371-.1a3.05 3.05 0 0 1 .906-1.215 3.16 3.16 0 0 1 1.361-.629 3.462 3.462 0 0 1 1.606.066 3.803 3.803 0 0 1 1.806 1.047 3.908 3.908 0 0 1 1.002 1.826c.174.709.155 1.46-.058 2.254-.215.803-.581 1.467-1.096 1.992-.506.527-1.1.887-1.781 1.08-.681.193-1.392.19-2.134-.009-.68-.182-1.23-.479-1.65-.889a3.013 3.013 0 0 1-.818-1.462c-.115-.561-.07-1.14.134-1.736l.43-.183c-.056.415-.012.808.132 1.178.144.37.372.691.686.962.314.272.682.465 1.104.578.505.135.968.138 1.39.008a2.418 2.418 0 0 0 1.118-.711c.313-.347.539-.778.677-1.293.136-.505.159-.984.071-1.439a2.327 2.327 0 0 0-.582-1.166c-.289-.32-.676-.546-1.161-.675a2.387 2.387 0 0 0-1.362.015 2.533 2.533 0 0 0-1.122.727c-.317.357-.55.813-.699 1.37l-1.805 6.738Zm13.857.5 2.004-7.481.819 1.396-3.076-.824c-.391-.105-.744-.106-1.059-.002-.305.106-.511.36-.618.761-.097.361-.053.671.132.93.194.262.513.453.956.571l2.659.713-.34 1.267-2.844-.762c-.896-.24-1.554-.648-1.974-1.225-.407-.584-.511-1.246-.312-1.988.124-.464.363-.842.718-1.133a2.65 2.65 0 0 1 1.283-.584 3.643 3.643 0 0 1 1.617.085l3.724.998-2.066 7.712-1.623-.434Zm-5.44-1.458 3.577-2.719 1.793.481-3.438 2.756-1.932-.518Zm9.325 2.499 2.066-7.712 1.824.488 1.433 6.215-.275-.09 4.298-4.663 1.901.509-2.067 7.712-1.592-.426 1.914-7.14.591.572-4.755 5.137-1.19-.319-1.55-6.826.829-.126-1.897 7.079-1.53-.41Zm15.099 4.31c-.814-.218-1.494-.588-2.039-1.109a4.01 4.01 0 0 1-1.094-1.85c-.195-.715-.185-1.474.03-2.278.213-.793.582-1.451 1.109-1.972a3.996 3.996 0 0 1 1.873-1.056c.732-.179 1.506-.159 2.32.059.824.221 1.503.59 2.038 1.109.545.522.91 1.138 1.094 1.85.195.715.186 1.469-.026 2.263-.216.803-.586 1.466-1.113 1.987a3.855 3.855 0 0 1-1.872 1.056c-.723.182-1.496.162-2.32-.059Zm.389-1.453c.484.13.937.13 1.358 0 .422-.13.783-.365 1.083-.704.314-.346.541-.782.682-1.308.138-.515.157-.996.055-1.443a2.327 2.327 0 0 0-.582-1.166c-.299-.323-.692-.55-1.176-.68a2.384 2.384 0 0 0-1.343.005c-.421.13-.789.368-1.102.715-.301.339-.52.766-.658 1.281-.141.526-.168 1.016-.079 1.47.101.447.301.832.601 1.155.3.323.687.548 1.161.675Zm5.657 2.808 2.066-7.712 1.824.489 1.432 6.214-.274-.09 4.297-4.662 1.901.509-2.066 7.712-1.592-.426 1.913-7.141.592.573-4.755 5.136-1.19-.318-1.55-6.826.828-.126-1.896 7.078-1.53-.41Zm17.066 4.838a4.661 4.661 0 0 1-1.809-.915 4.346 4.346 0 0 1-1.15-1.518l1.363-.761c.158.44.395.813.711 1.118.326.309.731.528 1.215.657.783.21 1.456.131 2.019-.237.562-.369.954-.965 1.175-1.789.223-.835.178-1.554-.135-2.156-.303-.601-.835-1.003-1.598-1.207-.494-.133-.955-.146-1.381-.039a2.802 2.802 0 0 0-1.155.602l-.789-1.322a4.194 4.194 0 0 1 1.74-.743c.638-.116 1.313-.079 2.024.112.814.218 1.483.585 2.007 1.101a3.769 3.769 0 0 1 1.083 1.831c.198.704.188 1.463-.03 2.277-.218.814-.587 1.489-1.106 2.023a3.763 3.763 0 0 1-1.853 1.044c-.719.172-1.497.146-2.331-.078Zm-.635-3.996.323-1.206 5.053 1.354-.323 1.206-5.053-1.354Zm11.277 6.848c-1.051-.282-1.919-.691-2.603-1.228-.682-.547-1.152-1.181-1.412-1.902-.257-.731-.272-1.52-.045-2.364.223-.835.628-1.5 1.213-1.994.588-.505 1.313-.819 2.174-.942.864-.133 1.821-.058 2.872.223l.634.17c1.061.284 1.927.699 2.598 1.243.685.537 1.155 1.171 1.412 1.902.26.721.278 1.499.054 2.334-.226.845-.634 1.519-1.222 2.024-.585.495-1.31.809-2.173.942-.851.125-1.807.046-2.868-.239l-.634-.169Zm.385-1.438.634.17c1.133.304 2.049.306 2.747.008.699-.299 1.165-.886 1.4-1.762.232-.866.115-1.604-.351-2.214-.455-.608-1.245-1.063-2.368-1.364l-.633-.17c-1.134-.303-2.049-.306-2.748-.007-.696.289-1.161.871-1.395 1.746-.235.876-.125 1.618.331 2.226.455.608 1.25 1.064 2.383 1.367Zm-1.689 4.202.957-3.57.093-.223 1.681-6.275.039-.271 1.056-3.941 1.7.456-1.056 3.941-.101.254-1.681 6.275-.031.24-.957 3.57-1.7-.456Zm8.943-.983 2.066-7.712 1.669.448-1.47 5.486-.111-.079 5.723-4.297 1.515.405-2.067 7.712-1.669-.447 1.47-5.486.096.075-5.708 4.301-1.514-.406Zm10.496 6.026-1.731-.463 2.869-10.711 1.716.46-.638 2.38-.371-.099c.21-.496.512-.901.906-1.215a3.162 3.162 0 0 1 1.361-.63 3.458 3.458 0 0 1 1.605.066 3.81 3.81 0 0 1 1.807 1.047 3.921 3.921 0 0 1 1.002 1.826c.174.709.155 1.461-.058 2.254-.215.804-.581 1.468-1.097 1.992a3.905 3.905 0 0 1-1.78 1.08c-.681.193-1.392.19-2.134-.009-.68-.182-1.23-.478-1.65-.889a3.001 3.001 0 0 1-.818-1.462c-.115-.56-.07-1.139.134-1.736l.43-.183c-.056.416-.012.808.132 1.178.143.37.372.691.686.963.314.271.682.464 1.104.577.505.135.968.138 1.389.008a2.392 2.392 0 0 0 1.118-.711c.314-.347.54-.777.678-1.293.135-.504.159-.984.071-1.438a2.33 2.33 0 0 0-.582-1.167c-.29-.32-.677-.545-1.161-.675a2.379 2.379 0 0 0-1.362.016 2.53 2.53 0 0 0-1.123.726c-.316.357-.549.814-.698 1.37l-1.805 6.738Zm16.284-1.351.7 1.347a4.41 4.41 0 0 1-1.793.696c-.67.107-1.37.063-2.102-.133-.865-.232-1.586-.613-2.162-1.142a4.144 4.144 0 0 1-1.171-1.871c-.206-.718-.202-1.473.011-2.267.215-.803.586-1.466 1.112-1.987a4 4 0 0 1 1.873-1.056c.722-.182 1.475-.168 2.258.042.762.204 1.39.56 1.884 1.068a3.82 3.82 0 0 1 1.01 1.795c.18.688.163 1.429-.049 2.223l-.025.092-1.716-.459.046-.17c.138-.515.16-.99.067-1.423a2.15 2.15 0 0 0-.533-1.104c-.272-.305-.629-.516-1.072-.635a2.359 2.359 0 0 0-1.328.009 2.254 2.254 0 0 0-1.067.707c-.301.34-.526.787-.675 1.344-.149.556-.165 1.071-.049 1.544.126.475.36.88.701 1.214.354.327.799.562 1.335.706.979.262 1.894.082 2.745-.54Zm1.405-.667-6.862-1.839.315-1.174 6.614 1.772.095.638-.162.603Z" fill="#6683C2"/></g><circle cx="267.985" cy="174.437" r="6.5" transform="rotate(15 267.985 174.437)" fill="#F37E60"/><defs><filter id="b" x="151.523" y="69.407" width="168.45" height="89.254" filterUnits="userSpaceOnUse" color-interpolation-filters="sRGB"><feFlood flood-opacity="0" result="BackgroundImageFix"/><feColorMatrix in="SourceAlpha" values="0 0 0 0 0 0 0 0 0 0 0 0 0 0 0 0 0 0 127 0" result="hardAlpha"/><feOffset/><feGaussianBlur stdDeviation="4.35"/><feComposite in2="hardAlpha" operator="out"/><feColorMatrix values="0 0 0 0 0.4 0 0 0 0 0.513726 0 0 0 0 0.760784 0 0 0 0.13 0"/><feBlend in2="BackgroundImageFix" result="effect1_dropShadow_2001_1394"/><feBlend in="SourceGraphic" in2="effect1_dropShadow_2001_1394" result="shape"/></filter><filter id="c" x="109.187" y="6.3" width="206.121" height="99.348" filterUnits="userSpaceOnUse" color-interpolation-filters="sRGB"><feFlood flood-opacity="0" result="BackgroundImageFix"/><feColorMatrix in="SourceAlpha" values="0 0 0 0 0 0 0 0 0 0 0 0 0 0 0 0 0 0 127 0" result="hardAlpha"/><feOffset/><feGaussianBlur stdDeviation="4.35"/><feComposite in2="hardAlpha" operator="out"/><feColorMatrix values="0 0 0 0 0.4 0 0 0 0 0.513726 0 0 0 0 0.760784 0 0 0 0.13 0"/><feBlend in2="BackgroundImageFix" result="effect1_dropShadow_2001_1394"/><feBlend in="SourceGraphic" in2="effect1_dropShadow_2001_1394" result="shape"/></filter><filter id="d" x="83.304" y="102.893" width="182.939" height="93.136" filterUnits="userSpaceOnUse" color-interpolation-filters="sRGB"><feFlood flood-opacity="0" result="BackgroundImageFix"/><feColorMatrix in="SourceAlpha" values="0 0 0 0 0 0 0 0 0 0 0 0 0 0 0 0 0 0 127 0" result="hardAlpha"/><feOffset/><feGaussianBlur stdDeviation="4.35"/><feComposite in2="hardAlpha" operator="out"/><feColorMatrix values="0 0 0 0 0.4 0 0 0 0 0.513726 0 0 0 0 0.760784 0 0 0 0.13 0"/><feBlend in2="BackgroundImageFix" result="effect1_dropShadow_2001_1394"/><feBlend in="SourceGraphic" in2="effect1_dropShadow_2001_1394" result="shape"/></filter><clipPath id="a"><path fill="#fff" d="M0 0h136v88H0z"/></clipPath></defs></svg>