<svg width="320" height="230" fill="none" xmlns="http://www.w3.org/2000/svg"><path fill="#F1F5FD" d="M0 0h320v230H0z"/><circle cx="76.571" cy="107.249" r="55.751" fill="#E2EBFD"/><circle cx="174.211" cy="69" r="31.935" transform="rotate(24.028 174.211 69)" fill="#E2EBFD"/><circle cx="154.36" cy="124.156" r="16.779" transform="rotate(24.028 154.36 124.156)" fill="#E2EBFD"/><path d="M106.107 20h-65.92c-8.828 0-15.984 7.156-15.984 15.983v.383c0 8.828 7.156 15.984 15.984 15.984h65.92c8.827 0 15.983-7.156 15.983-15.984v-.383c0-8.827-7.156-15.983-15.983-15.983Z" fill="#F37E60"/><path d="M35.839 47.706s-3.928 8.508-2.264 10.77c1.665 2.26 12.95-9.237 12.95-9.237l-10.686-1.533Z" fill="#F37E60"/><path d="M105.257 33.41H41.034a.751.751 0 0 1-.753-.753c0-.417.336-.753.753-.753h64.223a.751.751 0 1 1 0 1.505ZM68.522 40.446H41.034a.751.751 0 0 1-.753-.752c0-.417.336-.753.753-.753h27.488a.75.75 0 0 1 .752.753.75.75 0 0 1-.752.752ZM89.927 40.446H73.612a.75.75 0 0 1-.753-.752.75.75 0 0 1 .753-.753h16.315a.75.75 0 0 1 .752.753.75.75 0 0 1-.752.752Z" fill="#F1F5FD"/><path d="M146.811 58.7h123.86c16.586 0 30.032 13.445 30.032 30.031v.72c0 16.585-13.446 30.031-30.032 30.031h-123.86c-16.586 0-30.032-13.446-30.032-30.032v-.719c0-16.586 13.446-30.032 30.032-30.032Z" fill="#6683C2"/><path d="M278.834 110.758s7.381 15.986 4.253 20.235c-3.128 4.249-24.33-17.355-24.33-17.355l20.077-2.88Z" fill="#6683C2"/><path d="M148.398 83.895h120.673a1.41 1.41 0 0 0 1.413-1.414 1.41 1.41 0 0 0-1.413-1.414H148.398c-.782 0-1.413.631-1.413 1.414 0 .783.631 1.414 1.413 1.414ZM217.422 97.115h51.649a1.41 1.41 0 0 0 1.413-1.413 1.41 1.41 0 0 0-1.413-1.414h-51.649c-.783 0-1.414.63-1.414 1.414 0 .783.631 1.413 1.414 1.413ZM177.228 97.115h30.655c.783 0 1.414-.63 1.414-1.413s-.631-1.414-1.414-1.414h-30.655c-.783 0-1.414.63-1.414 1.414 0 .783.631 1.413 1.414 1.413Z" fill="#D2E6FF"/></svg>