<svg width="320" height="435" fill="none" xmlns="http://www.w3.org/2000/svg"><path fill="#fff" d="M0 0h320v435H0z"/><g clip-path="url(#a)"><path d="M79.577 42.781c42.345-56.278 120.858-79.942 179.096-53.408 86.956 39.619 113.398 184.176 41.745 253.974-54.883 53.463-161.432 57.327-218.56-8.041C34.39 180.992 37.9 98.17 79.576 42.781Z" fill="#E2EBFD"/><path opacity=".48" d="M-10.1 278.528c40.476-53.794 115.525-76.414 171.193-51.051 83.119 37.87 108.394 176.049 39.903 242.767-52.461 51.104-154.308 54.797-208.917-7.686-45.372-51.917-42.017-131.085-2.18-184.03Z" fill="#E2EBFD"/><path d="M190.967 45.98a7.225 7.225 0 0 0-9.2-4.443L55.712 85.495a7.225 7.225 0 0 0-4.443 9.2l57.434 164.7a7.224 7.224 0 0 0 9.2 4.443l126.055-43.958a7.225 7.225 0 0 0 4.443-9.2l-57.434-164.7Z" fill="#6683C2" fill-opacity=".52" style="mix-blend-mode:multiply" opacity=".25"/><path d="M244.212 218.534 115.699 254.68a7.226 7.226 0 0 1-8.911-4.999L59.561 81.771a7.224 7.224 0 0 1 4.999-8.911l128.513-36.146a7.225 7.225 0 0 1 8.911 4.998l47.227 167.911a7.225 7.225 0 0 1-4.999 8.911Z" fill="#7FCBB4"/><path d="m171.196 73.597-68.729 19.331a3.383 3.383 0 1 1-1.832-6.513l68.729-19.33a3.383 3.383 0 1 1 1.832 6.513Z" fill="#C1E8DC"/><path d="m194.817 103.465-73.992 20.811a3.383 3.383 0 1 1-1.832-6.513l73.992-20.81a3.383 3.383 0 0 1 1.832 6.512ZM201.356 126.776l-73.992 20.811a3.383 3.383 0 1 1-1.832-6.513l73.992-20.811a3.383 3.383 0 0 1 1.832 6.513ZM208.504 152.121l-73.992 20.81a3.382 3.382 0 1 1-1.832-6.513l73.992-20.81a3.382 3.382 0 1 1 1.832 6.513ZM216.207 179.505l-73.992 20.811a3.383 3.383 0 1 1-1.831-6.513l73.991-20.811a3.383 3.383 0 1 1 1.832 6.513Z" fill="#E4ECF9"/><path d="M102.302 134.496a8.152 8.152 0 0 1-6.197-.754 8.158 8.158 0 0 1-3.886-4.936 8.153 8.153 0 0 1 .743-6.239 8.154 8.154 0 0 1 4.936-3.886 8.096 8.096 0 0 1 3.251-.243l-.265 2.097a6.021 6.021 0 0 0-2.413.182 6.051 6.051 0 0 0-3.666 2.885 6.048 6.048 0 0 0-.55 4.631 6.056 6.056 0 0 0 2.885 3.666 6.041 6.041 0 0 0 4.631.551 6.057 6.057 0 0 0 3.665-2.886 6.051 6.051 0 0 0 .552-4.632 6.293 6.293 0 0 0-.328-.895l1.922-.881c.177.386.325.791.441 1.203a8.149 8.149 0 0 1-.743 6.239 8.159 8.159 0 0 1-4.936 3.886l-.041.011-.001.001Z" fill="#DFF3ED"/><path d="M101.08 129.062a1.05 1.05 0 0 1-.804-.095l-3.738-2.097a1.056 1.056 0 1 1 1.035-1.844l2.815 1.579 6.994-12.465c.286-.51.93-.691 1.439-.404.509.285.691.93.404 1.439l-7.51 13.387a1.053 1.053 0 0 1-.635.501v-.001ZM115.996 183.155a8.152 8.152 0 0 1-6.197-.754 8.158 8.158 0 0 1-3.886-4.937c-1.225-4.357 1.323-8.899 5.68-10.124a8.323 8.323 0 0 1 3.251-.244l-.266 2.098a6.297 6.297 0 0 0-2.413.181 6.1 6.1 0 0 0-4.216 7.517 6.052 6.052 0 0 0 2.885 3.665 6.074 6.074 0 0 0 4.631.552 6.055 6.055 0 0 0 3.666-2.885 6.052 6.052 0 0 0 .551-4.632 6.351 6.351 0 0 0-.328-.896l1.922-.88c.177.387.326.791.441 1.203a8.154 8.154 0 0 1-.743 6.239 8.158 8.158 0 0 1-4.978 3.897Z" fill="#DFF3ED"/><path d="M114.751 177.72c-.26.073-.548.047-.803-.096l-3.738-2.097a1.057 1.057 0 1 1 1.035-1.844l2.815 1.58 6.994-12.466a1.056 1.056 0 1 1 1.843 1.035l-7.51 13.388a1.056 1.056 0 0 1-.635.501l-.001-.001ZM123.692 210.538a8.151 8.151 0 0 1-6.197-.754 8.159 8.159 0 0 1-3.886-4.936 8.154 8.154 0 0 1 .743-6.239 8.155 8.155 0 0 1 4.936-3.886 8.162 8.162 0 0 1 3.252-.243l-.266 2.097a6.057 6.057 0 0 0-2.413.182 6.06 6.06 0 0 0-3.665 2.885 6.045 6.045 0 0 0-.551 4.631 6.051 6.051 0 0 0 2.885 3.666 6.03 6.03 0 0 0 4.631.551 6.057 6.057 0 0 0 3.665-2.885 6.054 6.054 0 0 0 .552-4.633 6.173 6.173 0 0 0-.328-.895l1.923-.881c.177.386.325.79.441 1.204a8.151 8.151 0 0 1-.743 6.238 8.158 8.158 0 0 1-4.937 3.886l-.041.011-.001.001Z" fill="#DFF3ED"/><path d="M122.47 205.103c-.26.074-.548.048-.803-.095l-3.738-2.097a1.056 1.056 0 1 1 1.034-1.844l2.816 1.58 6.993-12.466c.286-.51.931-.691 1.439-.404.51.285.691.93.405 1.439l-7.51 13.387a1.052 1.052 0 0 1-.636.501v-.001ZM108.864 157.807a8.156 8.156 0 0 1-6.197-.755 8.159 8.159 0 0 1-3.886-4.936c-1.226-4.357 1.322-8.9 5.679-10.125 4.354-1.217 8.9 1.323 10.125 5.68a8.151 8.151 0 0 1-.743 6.238 8.159 8.159 0 0 1-4.979 3.898h.001Zm-3.802-13.789-.031.007a6.101 6.101 0 0 0-4.216 7.517 6.056 6.056 0 0 0 2.885 3.665c1.42.797 3.08 1.006 4.631.551a6.051 6.051 0 0 0 3.666-2.885 6.052 6.052 0 0 0 .551-4.632 6.103 6.103 0 0 0-7.487-4.225l.001.002Z" fill="#DFF3ED"/><path d="M223.271 32.51 93.018 61.774a7.224 7.224 0 0 0-5.465 8.632l38.235 170.184a7.224 7.224 0 0 0 8.632 5.464l130.253-29.264a7.224 7.224 0 0 0 5.465-8.632L231.902 37.975a7.222 7.222 0 0 0-8.631-5.465Z" fill="#6683C2" fill-opacity=".52" style="mix-blend-mode:multiply" opacity=".25"/><path d="m265 206.767-131.754 21.518a7.225 7.225 0 0 1-8.295-5.965L96.837 50.175a7.225 7.225 0 0 1 5.965-8.295l131.754-21.518a7.224 7.224 0 0 1 8.294 5.965l28.115 172.146a7.224 7.224 0 0 1-5.965 8.294Z" fill="#fff"/><path d="M208.673 54.561 138.211 66.07a3.384 3.384 0 0 1-1.091-6.678l70.462-11.508a3.384 3.384 0 0 1 1.091 6.678Z" fill="#6683C2"/><path d="m228.818 86.885-75.857 12.39a3.384 3.384 0 0 1-1.091-6.68l75.857-12.388a3.384 3.384 0 0 1 1.091 6.678ZM232.724 110.783l-75.857 12.389a3.384 3.384 0 0 1-1.091-6.679l75.858-12.389a3.384 3.384 0 0 1 1.09 6.679ZM236.959 136.77l-75.857 12.389a3.384 3.384 0 1 1-1.091-6.678l75.857-12.39a3.385 3.385 0 0 1 1.091 6.679ZM241.545 164.846l-75.857 12.389a3.384 3.384 0 1 1-1.091-6.678l75.857-12.389a3.384 3.384 0 0 1 1.091 6.678Z" fill="#E2EBFD"/><path d="M134.069 107.224a8.157 8.157 0 0 1-6.741-1.31 8.152 8.152 0 0 1-3.308-5.341c-.73-4.467 2.311-8.696 6.778-9.425a8.159 8.159 0 0 1 3.258.122l-.499 2.055a6.101 6.101 0 0 0-7.45 6.907 6.048 6.048 0 0 0 2.456 3.965 6.055 6.055 0 0 0 5.004.973 6.103 6.103 0 0 0 4.343-7.829l2.01-.66c.132.405.234.823.303 1.245.695 4.256-2.032 8.295-6.154 9.298Z" fill="#F37E60"/><path d="M132.793 101.819a1.051 1.051 0 0 1-.788-.186l-3.479-2.502a1.057 1.057 0 1 1 1.235-1.716l2.621 1.885 8.345-11.604a1.058 1.058 0 0 1 1.717 1.234l-8.963 12.462c-.17.237-.421.383-.687.426l-.001.001ZM142.225 157.108c-.205.05-.413.092-.625.127-4.467.729-8.695-2.311-9.424-6.778-.73-4.468 2.312-8.695 6.778-9.425a8.16 8.16 0 0 1 3.258.122l-.499 2.054a6.1 6.1 0 0 0-7.451 6.908 6.102 6.102 0 0 0 7.461 4.938 6.104 6.104 0 0 0 4.343-7.829l2.009-.66c.133.404.235.823.304 1.245.695 4.256-2.033 8.294-6.154 9.298Z" fill="#F37E60"/><path d="M140.941 151.702a1.043 1.043 0 0 1-.787-.185l-3.48-2.502a1.057 1.057 0 1 1 1.235-1.716l2.621 1.884 8.346-11.603a1.058 1.058 0 0 1 1.717 1.234l-8.963 12.462a1.06 1.06 0 0 1-.688.426h-.001ZM146.795 185.184c-.205.05-.413.092-.624.127-4.468.729-8.696-2.311-9.425-6.778-.73-4.468 2.312-8.694 6.778-9.425a8.178 8.178 0 0 1 3.258.122l-.499 2.054a6.1 6.1 0 0 0-7.45 6.908 6.101 6.101 0 0 0 7.46 4.938 6.104 6.104 0 0 0 4.343-7.829l2.01-.66c.132.404.234.823.303 1.245.695 4.256-2.032 8.294-6.154 9.298Z" fill="#F37E60"/><path d="M145.519 179.778a1.049 1.049 0 0 1-.787-.186l-3.48-2.502a1.057 1.057 0 1 1 1.235-1.716l2.621 1.885 8.346-11.604a1.058 1.058 0 0 1 1.717 1.234l-8.963 12.462a1.053 1.053 0 0 1-.688.426l-.001.001ZM137.975 131.12c-.208.05-.418.094-.632.128a8.157 8.157 0 0 1-6.116-1.437 8.152 8.152 0 0 1-3.309-5.342c-.729-4.467 2.312-8.696 6.778-9.424a8.152 8.152 0 0 1 6.117 1.437 8.152 8.152 0 0 1 3.308 5.341 8.153 8.153 0 0 1-1.437 6.116 8.148 8.148 0 0 1-4.709 3.181Zm-3.401-13.894a6.104 6.104 0 0 0-4.569 6.903 6.053 6.053 0 0 0 2.456 3.965 6.055 6.055 0 0 0 4.541 1.068 6.054 6.054 0 0 0 3.965-2.456 6.055 6.055 0 0 0 1.068-4.541 6.053 6.053 0 0 0-2.457-3.965 6.047 6.047 0 0 0-4.54-1.067 6.241 6.241 0 0 0-.464.093Z" fill="#F37E60"/><path d="m309.328 196.285-29.633-37.105-2.311 1.845-5.476-6.856a35.057 35.057 0 0 0 5.489-7.583 35.221 35.221 0 0 0 3.648-10.516c1.729-9.676-.562-20.013-7.177-28.292a35.758 35.758 0 0 0-4.311-4.523 35.061 35.061 0 0 0-11.517-6.75c-11.134-3.938-23.986-2.21-33.895 5.701a35.904 35.904 0 0 0-3.976 3.705 35.19 35.19 0 0 0-7.009 11.35c-4.253 11.204-2.702 24.282 5.203 34.375.073.097.145.191.222.287a35.305 35.305 0 0 0 7.917 7.303c11.163 7.504 25.913 8.093 37.755 1.056l5.475 6.855-2.311 1.845 29.632 37.106a4.195 4.195 0 0 0 5.896.66l5.72-4.568a4.195 4.195 0 0 0 .661-5.895h-.002Z" fill="#6683C2" fill-opacity=".63" style="mix-blend-mode:multiply" opacity=".25"/><path opacity=".31" d="M252.567 156.514c16.666-4.058 26.887-20.858 22.83-37.525-4.058-16.666-20.859-26.887-37.525-22.83-16.666 4.059-26.888 20.859-22.83 37.525 4.058 16.667 20.859 26.888 37.525 22.83Z" fill="#fff"/><path d="m271.485 146.302-7.017 6.833 9.13 9.374 7.017-6.833-9.13-9.374Z" fill="#4C4C4C"/><path d="M270.556 101.658a35.74 35.74 0 0 0-4.734-4.078 35.046 35.046 0 0 0-12.124-5.587c-11.467-2.825-24.088.156-33.172 9.003a35.224 35.224 0 0 0-9.454 16.06c-3.132 11.568-.303 24.43 8.554 33.697.082.09.163.176.249.264a35.303 35.303 0 0 0 8.597 6.49c13.237 7.12 30.086 5.214 41.424-5.83a35.19 35.19 0 0 0 7.984-11.747 35.265 35.265 0 0 0 2.597-10.824c.771-9.799-2.525-19.861-9.921-27.449v.001Zm3.17 29.85a28.842 28.842 0 0 1-4.919 11.65 29.028 29.028 0 0 1-3.382 3.937c-7.63 7.434-18.307 9.81-27.887 7.187a28.729 28.729 0 0 1-11.167-5.927 29.785 29.785 0 0 1-1.913-1.793c-8.588-8.82-10.43-21.709-5.605-32.274a28.886 28.886 0 0 1 6.138-8.708c9.036-8.802 22.346-10.515 33.046-5.231a29.002 29.002 0 0 1 7.935 5.773c6.79 6.968 9.361 16.483 7.754 25.385v.001ZM314.464 192.182l-5.244 5.108a4.194 4.194 0 0 1-5.932-.078l-33.133-34.016 11.254-10.962 33.133 34.016a4.194 4.194 0 0 1-.078 5.932Z" fill="#5B5B5B"/><path d="M78.987 144.45c-.105-.352-1.097-.699-2.611-1.016-.813-3.107-2.235-6.504-.46-8.698 0 0-1.233-3.882-1.85-5.199-.615-1.318-1.82-.932-3.752-.296-1.932.636-12.192 4.632-17.17 6.959-4.975 2.327-8.106 4.46-14.579 7.728-6.658 2.872-10.3 3.909-15.277 6.236-4.975 2.327-14.62 7.64-16.347 8.716-1.726 1.075-2.794 1.752-2.178 3.069.615 1.318 2.805 4.753 2.805 4.753 2.822.043 4.517 3.313 6.381 5.929-.727 1.364-1.097 2.349-.895 2.655.787 1.191 3.466 1.496 4.487 1.16 1.22.853 2.576 1.224 4.775 1.196 3.724-.047 9.915-3.21 12.554-4.622 2.639-1.413 4.712-3.274 5.407-6.364.695-3.09.607-9.381.4-11.158-.375-3.235-.29-4.055 1.1-4.705 1.39-.65 2.073-.189 4.315 2.173 1.231 1.297 6.003 5.398 8.82 6.845 2.818 1.447 5.575 1.049 8.35-.071 2.776-1.12 9.173-3.843 11.596-6.671 1.431-1.67 2.016-2.949 2.143-4.432.911-.568 2.395-2.819 1.986-4.186v-.001Zm-8.337-8.834c.371.641.729 1.42 1.114 2.311.522 1.209 1.176 3.137 1.722 5.019-4.891-.684-11.782-1.105-15.24-.9 4.997-2.597 9.515-4.935 12.404-6.43Zm-13.645 1.454c3.348-1.472 5.761-2.326 7.54-2.804a4325.814 4325.814 0 0 0-19.514 11.068c.863-2.683 9.188-7.04 11.974-8.265v.001Zm-21.503 12.721c-7.425 2.76-15.3 5.726-21.005 7.881 1.508-1.058 3.71-2.363 6.986-3.989 2.725-1.353 11.408-4.95 14.019-3.892Zm-22.825 15.768c-.436-.866-.805-1.64-1.06-2.336 3.001-1.261 7.692-3.228 12.889-5.398-2.375 2.521-6.47 8.079-9.08 12.274-1.095-1.626-2.155-3.363-2.749-4.54Zm26.334-2.237c-.417 3.495-1.07 4.96-3.904 6.909-2.833 1.95-6.78 3.618-9.88 4.62-2.886.935-4.985.572-6.373-.476 1.368-2.865 3.678-8.088 4.3-9.481.84-1.883 3.134-5.468 7.012-7.934.893-.568 3.706-2.102 7.5-4.123 1.306 3.268 1.653 7.898 1.344 10.485Zm31.839-9.807c-2.756 1.735-6.567 3.695-9.88 4.621-3.313.925-4.855.486-7.804-1.433-2.184-1.422-5.515-4.656-7.185-7.754 3.983-1.616 6.962-2.792 7.971-3.113 4.379-1.394 8.601-.858 10.585-.295 1.468.416 6.957 1.991 10.032 2.778-.085 1.736-1.152 3.58-3.72 5.196Z" fill="#6683C2" fill-opacity=".65" style="mix-blend-mode:multiply" opacity=".25"/><path d="M10.512 169.546s39.947-20.459 44.21-22.176c4.262-1.716 8.514-1.496 10.534-1.083 2.02.412 11.523 2.391 12.31 2.321.785-.07 2.604-2.953 2.018-4.485-.585-1.531-18.666-1.639-22.33-.572-3.665 1.067-48.965 22.281-48.965 22.281l2.223 3.712v.002Z" fill="#5B5B5B"/><path d="M73.75 134s-38.246 23.487-41.93 26.235c-3.682 2.748-5.704 6.495-6.401 8.435-.698 1.941-3.95 11.086-4.418 11.722-.468.635-3.876.69-4.88-.607s8.305-16.797 11.121-19.372c2.817-2.575 44.492-30.241 44.492-30.241l2.015 3.829V134Z" fill="#5B5B5B"/><path d="M69.788 129.6c-1.88.779-11.813 5.527-16.602 8.219-4.789 2.692-7.752 5.051-13.964 8.792-6.425 3.361-9.981 4.665-14.77 7.356-4.789 2.692-14.01 8.708-15.652 9.909-1.642 1.201-2.657 1.957-1.944 3.224.712 1.268 3.151 4.531 3.151 4.531 3.318-.197 5.411 4.187 7.919 6.67 2.507 2.482 3.893 3.465 7.603 3.14 3.71-.324 9.647-3.939 12.174-5.544 2.526-1.606 4.455-3.616 4.918-6.749.463-3.134-.093-9.4-.431-11.156-.616-3.198-.593-4.023.745-4.774 1.338-.753 2.054-.344 4.466 1.845 1.324 1.202 6.388 4.936 9.306 6.168 2.917 1.234 5.637.632 8.322-.692 2.684-1.324 8.86-4.516 11.066-7.517 2.206-3 2.088-4.695 1.27-8.127-.816-3.433-3.473-7.501-1.58-10.232 0 0-1.52-3.78-2.231-5.047-.712-1.268-1.885-.794-3.765-.016Zm-28.676 36.32c-.156 3.515-.698 5.025-3.378 7.181-2.68 2.155-6.493 4.111-9.508 5.343-3.014 1.231-5.236.904-6.701-.219-1.466-1.122-5.09-5.758-6.506-8.112-1.417-2.355-2.257-4.015-1.345-5.361.912-1.346 3.056-3.472 9.24-7.139 2.784-1.651 12.1-6.337 14.133-4.699 2.909 2.344 4.221 9.49 4.066 13.005l-.001.001Zm30.77-27.766c1.275 2.434 3.35 7.941 3.548 9.775.197 1.836-.68 3.903-3.298 5.839-2.62 1.935-6.273 4.174-9.508 5.343-3.235 1.169-4.806.847-7.89-.849-3.084-1.695-8.506-6.532-8.995-10.234-.343-2.588 8.503-8.11 11.36-9.629 6.349-3.376 9.28-4.102 10.902-4.181 1.625-.078 2.605 1.502 3.88 3.936h.001Z" fill="#5B5B5B"/><path d="M279.501 79.331a6.999 6.999 0 1 0-3.312-13.6 6.999 6.999 0 0 0 3.312 13.6ZM24.916 77.16a4.462 4.462 0 1 0-2.112-8.67 4.462 4.462 0 0 0 2.112 8.67ZM259.049 251.715a4.463 4.463 0 1 0-2.112-8.672 4.463 4.463 0 0 0 2.112 8.672Z" fill="#F37E60"/></g><defs><clipPath id="a"><path fill="#fff" d="M0 0h320v435H0z"/></clipPath></defs></svg>