<svg width="660" height="263" fill="none" xmlns="http://www.w3.org/2000/svg"><path fill="#6683C2" d="M0 0h660v263H0z"/><g opacity=".61" fill="#5A79BC" clip-path="url(#a)"><path d="M328.703-14.995c-77.79.648-140.346 64.501-139.698 142.292.648 77.79 64.501 140.346 142.292 139.698 77.79-.648 140.346-64.501 139.698-142.292-.648-77.79-64.501-140.346-142.292-139.698Zm1.945 218.461c-42.784.324-77.79-34.033-78.438-76.818-.324-42.784 34.033-77.79 76.818-78.114 42.784-.324 77.79 34.033 78.114 76.818.972 42.784-33.709 77.79-76.494 78.114Z"/><path d="M330.006 91C310.558 91.324 295 107.206 295 126.654c.324 19.447 16.206 35.006 35.654 35.006 19.447-.325 35.006-16.207 35.006-35.654 0-19.448-16.207-35.006-35.654-35.006Z"/></g><defs><clipPath id="a"><path fill="#fff" d="M0 0h660v263H0z"/></clipPath></defs></svg>