<svg width="1284" height="218" fill="none" xmlns="http://www.w3.org/2000/svg"><path fill="#6683C2" d="M0 0h1284v218H0z"/><g clip-path="url(#a)"><path d="M1122.73 123.437c-61.15 4.521-107.01 58.521-102.42 120.613 4.59 62.092 57.89 108.763 119.04 104.242 61.16-4.521 107.02-58.521 102.43-120.613-4.59-62.092-57.89-108.763-119.05-104.242Z" fill="#5A79BC"/><path d="M1194.03 40.17c-37.38 18.823-52.17 64.886-33.03 102.884 19.14 37.999 64.95 53.544 102.33 34.721 37.37-18.823 52.16-64.886 33.02-102.884-19.14-37.999-64.95-53.543-102.32-34.72Z" fill="#6F8CCA"/><path d="M1140.28-3.82c-7.87 3.964-10.99 13.667-6.96 21.672 4.03 8.004 13.68 11.279 21.56 7.314 7.87-3.965 10.98-13.668 6.95-21.673-4.03-8.004-13.68-11.279-21.55-7.314Z" fill="#5A79BC"/><g opacity=".61" fill="#5A79BC"><path d="M631.49-134.99c-150.616 1.255-271.735 124.885-270.48 275.5 1.255 150.616 124.885 271.735 275.5 270.48 150.616-1.255 271.736-124.885 270.48-275.5-1.255-150.616-124.885-271.735-275.5-270.48Zm3.765 422.978c-82.838.627-150.615-65.894-151.87-148.733-.628-82.838 65.894-150.615 148.732-151.243 82.839-.627 150.616 65.894 151.243 148.733 1.883 82.838-65.266 150.615-148.105 151.243Z"/><path d="M633.332 69.6c-37.654.627-67.777 31.378-67.777 69.032.627 37.653 31.378 67.777 69.032 67.777 37.654-.628 67.777-31.379 67.777-69.032 0-37.654-31.379-67.777-69.032-67.777Z"/></g></g><g clip-path="url(#b)"><path d="M163.269 123.437c61.156 4.521 107.011 58.521 102.421 120.613-4.59 62.092-57.887 108.763-119.043 104.242-61.156-4.521-107.012-58.521-102.422-120.613 4.59-62.092 57.887-108.763 119.044-104.242Z" fill="#5A79BC"/><path d="M91.974 40.171c37.376 18.823 52.161 64.886 33.025 102.884-19.137 37.999-64.949 53.544-102.325 34.721C-14.7 158.953-29.486 112.89-10.35 74.892 8.786 36.894 54.598 21.349 91.974 40.172Z" fill="#6F8CCA"/><path d="M145.721-3.82c7.873 3.964 10.987 13.667 6.956 21.672-4.031 8.004-13.681 11.279-21.554 7.314-7.873-3.965-10.988-13.668-6.957-21.673 4.031-8.004 13.682-11.279 21.555-7.314Z" fill="#5A79BC"/></g><defs><clipPath id="a"><path fill="#fff" transform="translate(24)" d="M0 0h1260v218H0z"/></clipPath><clipPath id="b"><path fill="#fff" transform="matrix(-1 0 0 1 298 0)" d="M0 0h296v218H0z"/></clipPath></defs></svg>