<svg width="113" height="141" fill="none" xmlns="http://www.w3.org/2000/svg"><rect x=".798" y=".368" width="111.822" height="139.777" rx="6.989" fill="#fff"/><rect x="6.385" y="5.959" width="100.639" height="100.639" rx="6.787" fill="#EAF1FF"/><g clip-path="url(#a)"><path d="M46.54 19.368H-.133v24.406H46.54V19.368Z" fill="#00237C"/><path d="M12.681 19.368H-.134v7.685l62.548 40.344 15.219-6.12L12.68 19.369Z" fill="#fff"/><path d="M-.134 20.009v5.265l63.35 40.913 2.475-3.7L-.134 20.01Z" fill="#CF142B"/><path d="M112.438 19.368H65.69v24.406h46.748V19.368Z" fill="#00237C"/><path d="M99.55 19.368h12.815v7.685L49.817 67.397l-15.219-6.12L99.55 19.369Z" fill="#fff"/><path d="M112.364 20.009v5.265l-63.35 40.913-2.475-3.7 65.825-42.478Z" fill="#CF142B"/><path d="M112.438 68.535H65.69v24.406h46.748V68.535Z" fill="#00237C"/><path d="M99.55 93.012h12.815v-7.684L49.817 44.912l-15.219 6.12 64.952 41.98Z" fill="#fff"/><path d="M112.364 92.372v-5.337l-63.35-40.842-2.475 3.629 65.825 42.55Z" fill="#CF142B"/><path d="M46.54 68.535H-.133v24.406H46.54V68.535Z" fill="#00237C"/><path d="M12.681 93.012H-.134v-7.684l62.548-40.416 15.219 6.12-64.952 41.98Z" fill="#fff"/><path d="M-.134 92.372v-5.337l63.35-40.842 2.475 3.629-65.825 42.55Z" fill="#CF142B"/><path d="M112.366 43.774H65.764V19.368H46.322v24.406H-.134v24.263h46.456v24.975h19.442V68.037h46.602V43.774Z" fill="#fff"/><path d="M112.366 48.755H61.613V19.368H50.4v29.387H-.134v14.302H50.4v29.955h11.213V63.057h50.753V48.755Z" fill="#CF142B"/></g><path d="M25.074 123.675h-5.612v-1.509h5.612v1.509Zm1.932 2.078h-1.919l-3.097-8.206h.53l-3.097 8.206H17.57l3.732-9.463h1.972l3.732 9.463Zm6.015 0v-6.657h1.747v6.657h-1.747Zm-4.711 0v-6.657h1.747v6.657H28.31Zm.82-2.793v-1.403h4.91v1.403h-4.91Zm7.464 2.793v-6.657h4.897v1.403h-4.5l1.35-1.059v6.313h-1.747Zm5.232 0v-1.429h.45c.247 0 .424-.053.53-.159.114-.106.185-.287.211-.543l.424-4.526h5.228v6.657h-1.747v-6.406l1.257 1.152h-4.434l1.337-1.152-.463 4.632c-.07.671-.265 1.134-.583 1.39-.309.256-.79.384-1.442.384h-.768Zm8.663 0v-6.657h1.667v4.433l-.093-.026 3.336-4.407h1.535v6.657h-1.668v-4.434l.093.027-3.335 4.407h-1.535Zm8.271 0v-6.657h1.668v4.433l-.093-.026 3.336-4.407h1.535v6.657h-1.668v-4.434l.093.027-3.335 4.407H58.76Zm3.296-7.782c-.635 0-1.165-.159-1.588-.477-.424-.326-.689-.816-.794-1.469h1.363c.053.353.168.605.344.755.176.15.401.225.675.225.282 0 .507-.075.675-.225.176-.15.287-.402.33-.755h1.377c-.097.653-.357 1.143-.78 1.469-.424.318-.958.477-1.602.477Zm10.045 5.585 1.085 1.059a3.582 3.582 0 0 1-1.257 1.006c-.485.229-1.041.344-1.667.344-.689 0-1.306-.15-1.853-.45a3.478 3.478 0 0 1-1.297-1.258c-.31-.538-.463-1.147-.463-1.826 0-.688.158-1.297.476-1.826.317-.539.75-.958 1.297-1.258.556-.309 1.182-.463 1.88-.463.608 0 1.155.119 1.64.357.486.23.9.556 1.245.98l-1.086 1.072a2.207 2.207 0 0 0-.714-.688 1.83 1.83 0 0 0-.993-.265c-.38 0-.715.088-1.006.265-.291.176-.52.423-.688.741a2.286 2.286 0 0 0-.252 1.085c0 .397.084.754.252 1.072.168.318.397.565.688.741.291.177.626.265 1.006.265.388 0 .723-.088 1.006-.265.282-.176.516-.406.701-.688Zm6.954 2.197-3.164-3.468h.146l2.859-3.189h2.091l-3.401 3.785-.093-1.165 3.759 4.037h-2.197Zm-4.514 0v-6.657h1.748v6.657H74.54Zm7.781 0v-6.657h1.668v4.433l-.093-.026 3.335-4.407h1.536v6.657H87.1v-4.434l.093.027-3.335 4.407h-1.536Zm8.272 0v-6.657h1.668v4.433l-.093-.026 3.335-4.407h1.535v6.657h-1.667v-4.434l.093.027-3.336 4.407h-1.535Zm3.296-7.782c-.636 0-1.165-.159-1.589-.477-.423-.326-.688-.816-.794-1.469h1.364c.052.353.167.605.344.755.176.15.401.225.675.225.282 0 .507-.075.675-.225.176-.15.286-.402.33-.755h1.377c-.097.653-.358 1.143-.781 1.469-.424.318-.957.477-1.601.477Z" fill="#003C56"/><defs><clipPath id="a"><rect x="18.798" y="19.368" width="75" height="74" rx="37" fill="#fff"/></clipPath></defs></svg>