<svg width="113" height="141" fill="none" xmlns="http://www.w3.org/2000/svg"><rect x=".798" y=".368" width="111.822" height="139.777" rx="6.989" fill="#fff"/><rect x="6.377" y="5.957" width="100.639" height="100.639" rx="6.787" fill="#EAF1FF"/><path d="M86.914 58.291c-.135-.05-4.573-3.357-4.573-3.357s-.135 2.7-.354 2.649c-.22-.051-3.51-2.835-3.476-2.768.034.068 3.78 5.248 4.1 4.877.338-.371.608-2.194.608-2.194l3.053 2.852.642-2.059ZM88.465 44.945c-.169.067-7.222 1.164-7.222 1.164s2.362 2.565 2.126 2.733c-.236.17-5.787.675-5.686.71.084.033 8.234 1.265 8.2.623-.033-.64-1.468-2.53-1.468-2.53l5.383-.237-1.333-2.463ZM81.65 36.56c-.068.1-3.814 3.306-3.814 3.306s2.312.658 2.245.844c-.085.185-3.156 2.497-3.088 2.48.067-.017 5.298-2.244 5.045-2.598-.253-.355-1.789-.962-1.789-.962l3.071-2.092-1.67-.979ZM26.273 59.523s-2.447.725-2.666 1.434c-.237.776 1.35 6.091 2.413 6.175 1.063.085 2.682-.91 2.682-.91l-2.43-6.7ZM33.783 68.246s3.206 14.072 3.493 14.983c.287.912 7.863.405 7.71-.287-.134-.674-1.923-1.822-1.855-2.733.067-.911.86-2.379.709-3.121-.136-.743-2.21-1.418-2.008-2.616.219-1.198 1.299-2.092 1.366-2.936.068-.86-.573-3.374-.573-3.374l-8.842.084Z" fill="#6683C2"/><path opacity=".3" d="M33.783 68.246s3.206 14.072 3.493 14.983c.287.912 7.863.405 7.71-.287-.134-.674-1.923-1.822-1.855-2.733.067-.911.86-2.379.709-3.121-.136-.743-2.21-1.418-2.008-2.616.219-1.198 1.299-2.092 1.366-2.936.068-.86-.573-3.374-.573-3.374l-8.842.084Z" fill="#000"/><path d="M27.789 65.85s-5.315-8.774 3.847-12.368l4.471 14.73c.017.017-6.192 1.283-8.318-2.362Z" fill="#6683C2"/><path d="M31.965 53.297s7.508-4.438 10.275-6.21c5.18-3.273 8.167-7.204 8.167-7.204L60.85 69.444s-9.938-.76-15.287-1.097c-5.349-.337-10.107-.084-10.107-.084s-3.83-3.577-4.336-9.263c-.506-5.703.844-5.703.844-5.703Z" fill="#6683C2"/><path opacity=".7" d="M31.965 53.297s7.508-4.438 10.275-6.21c5.18-3.273 8.167-7.204 8.167-7.204L60.85 69.444s-9.938-.76-15.287-1.097c-5.349-.337-10.107-.084-10.107-.084s-3.83-3.577-4.336-9.263c-.506-5.703.844-5.703.844-5.703Z" fill="#fff"/><path d="M67.517 71.664c7.047-1.663 10.642-11.988 8.03-23.062-2.612-11.074-10.443-18.704-17.49-17.042-7.048 1.663-10.643 11.988-8.03 23.062 2.612 11.075 10.443 18.704 17.49 17.042Z" fill="#6683C2"/><path opacity=".3" d="M67.35 68.264c5.269-1.243 7.784-9.698 5.616-18.886C70.8 40.19 64.77 33.75 59.5 34.993c-5.27 1.243-7.784 9.699-5.617 18.886 2.168 9.188 8.197 15.629 13.466 14.386Z" fill="#000"/><path d="M54.045 41.199c1.738-.473 4.505 1.535 6.193 3.459 5.264 6.023 5.973 15.624 1.72 22.39-6.748-4.252-10.73-16.907-7.913-25.85Z" fill="#000" opacity=".3"/><path d="M31.608 68.263s2.649 14.562 2.885 15.506c.236.945 6.48.405 6.361-.286-.118-.692-1.586-1.89-1.535-2.818.05-.945.709-2.464.59-3.24-.118-.759-1.822-1.468-1.653-2.7.169-1.231 1.063-2.16 1.13-3.053.05-.878-.472-3.493-.472-3.493l-7.306.084ZM53.878 53.87a28.703 28.703 0 0 0 2.278 6.31c.523-.235 9.955-4.47 10.225-4.757.287-.287-2.244-8.808-2.244-8.808l-11.035 1.822c.101 1.755.338 3.577.776 5.434Z" fill="#6683C2"/><path opacity=".7" d="M53.878 53.87a28.703 28.703 0 0 0 2.278 6.31c.523-.235 9.955-4.47 10.225-4.757.287-.287-2.244-8.808-2.244-8.808l-11.035 1.822c.101 1.755.338 3.577.776 5.434Z" fill="#fff"/><path d="M66.303 55.406c1.378-.325 2.031-2.56 1.458-4.99-.574-2.431-2.156-4.138-3.535-3.813-1.378.325-2.031 2.56-1.458 4.99.574 2.431 2.156 4.138 3.535 3.813Z" fill="#6683C2"/><path d="M39.78 72.413c.86-.101 1.738-.202 2.598-.287.135-.017.254-.1.254-.253 0-.118-.119-.27-.254-.253-.86.101-1.737.203-2.598.287-.135.017-.253.101-.253.253 0 .118.118.27.253.253ZM40.323 77.206a65.225 65.225 0 0 1 3.172-.237c.321-.016.321-.523 0-.506-1.063.05-2.109.135-3.172.236-.135.017-.253.102-.253.254 0 .135.118.27.253.253Z" fill="#000" opacity=".3"/><path d="M39.79 68.195c-.118.017.355 2.953.878 2.987.523.034 3.391-.101 3.408-.354.034-.59-.675-2.599-.675-2.599s-2.75-.202-3.61-.034Z" fill="#263238"/><path d="M24.087 62.931c.287-.067.59-.151.877-.219.135-.034.22-.186.169-.304-.05-.135-.169-.202-.304-.168-.287.067-.59.151-.877.219-.135.034-.22.186-.17.304.052.118.17.202.305.169ZM24.348 63.926c.287-.067.59-.151.878-.219.135-.034.22-.185.169-.304-.051-.135-.17-.202-.304-.168-.287.067-.59.151-.878.219-.135.034-.219.186-.168.304a.255.255 0 0 0 .303.168ZM24.738 64.922c.287-.067.59-.152.877-.22.135-.033.22-.185.17-.303-.052-.135-.17-.202-.305-.169-.286.068-.59.152-.877.22-.135.034-.22.185-.169.303.034.135.169.203.304.17ZM25.167 65.985c.286-.067.59-.152.877-.219.135-.034.22-.186.169-.304-.05-.135-.169-.202-.304-.169-.287.068-.59.152-.877.22-.135.034-.22.185-.169.304.034.135.169.202.304.168Z" fill="#000" opacity=".3"/><path opacity=".3" d="M32.176 54.09s-.742 4.876.81 6.867c1.57 2.008 16.688-4.235 16.688-4.235s-2.633-6.463-1.266-11.39c.422-1.535.506-2.092.236-2.007-.59.185-2.784 3.172-7.525 5.703-3.223 1.72-8.943 5.062-8.943 5.062Z" fill="#fff"/><path opacity=".3" d="m31.608 68.246.27 1.468s11.727.085 11.861-.438l-.354-1.047c-1.923-.185-7.036-.067-11.777.017ZM58.916 58.95c-2.986-4.556-3.307-9.534-3.34-10.9l-2.447.404c.067 1.755.32 3.577.76 5.433a28.697 28.697 0 0 0 2.277 6.31c.169-.084 1.3-.59 2.75-1.248ZM26.271 59.523c.473 2.463 1.097 4.792 1.974 6.952l-.439.219c-.219.101-2.463-6.867-2.142-6.969l.607-.202Z" fill="#000"/><path opacity=".1" d="M61.236 35.968c-.253-.05-2.514 4.505-2.311 5.163.186.658 3.138 4.269 3.864 4.269.725 0 6.968-.287 6.968-1.063s-3.121-7.238-8.52-8.369ZM66.835 57.718s-1.839 6.209-1.569 6.749 4.573.118 5.535-.894c.978-.996 2.024-5.94 1.94-6.75-.067-.81-5.906.895-5.906.895Z" fill="#fff"/><path d="M39.367 82.453c-.169-.556-.911-.624-1.148-1.096-.286-.59.321-1.249.27-1.89-.033-.422-.354-.76-.725-.962-.371-.185-.793-.253-1.215-.304-.658-.084-1.502-.151-2.075.203.017.995.337 2.227.624 3.172.118.405.287.81.607 1.08.287.236.692.337 1.063.388a7.736 7.736 0 0 0 1.974.05c.237-.016.507-.067.608-.303a.471.471 0 0 0 .017-.338Z" fill="#fff" opacity=".2"/><path d="M28.852 125.753v-9.463h1.787v8.113l-.16-.159h2.423c.485 0 .869-.119 1.151-.357.283-.247.424-.583.424-1.006 0-.415-.141-.737-.424-.966-.282-.23-.666-.345-1.151-.345h-3.19v-1.508h3.177c.688 0 1.283.114 1.786.344.512.229.91.556 1.191.979.283.424.424.922.424 1.496 0 .564-.141 1.063-.424 1.495-.282.433-.679.772-1.19 1.019-.513.239-1.108.358-1.787.358h-4.037Zm.913-7.941v-1.522h5.784v1.522h-5.784Zm7.157 7.941v-1.43h.45c.247 0 .423-.053.53-.159.114-.105.184-.286.21-.542l.424-4.526h5.228v6.657h-1.747v-6.406l1.258 1.151H38.84l1.337-1.151-.464 4.632c-.07.671-.264 1.134-.582 1.39-.309.256-.79.384-1.443.384h-.767Zm11.958.211c-.724 0-1.364-.15-1.92-.45a3.343 3.343 0 0 1-1.296-1.257c-.31-.538-.464-1.147-.464-1.826 0-.697.155-1.311.464-1.84a3.264 3.264 0 0 1 1.297-1.244c.556-.309 1.195-.463 1.919-.463.723 0 1.363.154 1.919.463.556.3.988.715 1.297 1.244.309.529.463 1.138.463 1.826 0 .689-.154 1.302-.463 1.84-.309.53-.741.949-1.297 1.257-.556.3-1.196.45-1.92.45Zm0-1.455c.37 0 .697-.089.98-.265.281-.177.502-.419.66-.728.16-.318.239-.679.239-1.085 0-.415-.08-.777-.238-1.086a1.809 1.809 0 0 0-.662-.741 1.813 1.813 0 0 0-.98-.264c-.37 0-.696.088-.979.264a1.81 1.81 0 0 0-.661.741c-.16.309-.239.671-.239 1.086 0 .406.08.767.239 1.085.158.309.379.551.661.728.283.176.61.265.98.265Zm5.118 1.244v-6.657h4.897v1.402h-4.5l1.35-1.058v6.313h-1.747Zm6.165 0v-6.657h4.897v1.402h-4.5l1.35-1.058v6.313h-1.747Zm6.165 0v-6.657h1.668v4.433l-.093-.026 3.336-4.407h1.535v6.657h-1.668v-4.434l.093.026-3.335 4.408h-1.536Zm12.984 0v-6.657h1.747v6.657h-1.747Zm-4.712 0v-6.657h1.747v6.657H74.6Zm.82-2.793v-1.403h4.911v1.403h-4.91Zm7.465 2.793v-6.657h4.897v1.402h-4.5l1.35-1.058v6.313h-1.747Z" fill="#003C56"/></svg>