<svg width="112" height="141" fill="none" xmlns="http://www.w3.org/2000/svg"><rect y=".322" width="111.822" height="139.777" rx="6.989" fill="#fff"/><rect x="5.588" y="5.912" width="100.639" height="100.639" rx="6.787" fill="#EAF1FF"/><path d="M41.244 69.102 29.952 39.446c.349-.39.582-.922.582-1.56 0-1.136-.757-2.058-1.688-2.058-.932 0-1.689.922-1.689 2.057 0 .639.233 1.17.583 1.561L16.447 69.102h-.96l.028.106c.582 3.05 2.154 5.357 4.657 6.811 2.183 1.277 5.123 1.916 8.674 1.916 3.58 0 6.49-.639 8.673-1.916 2.532-1.454 4.104-3.76 4.657-6.81l.029-.107h-.96Zm-.67 0H29.138v-29.23c.087-.036.174-.036.262-.071l11.176 29.3ZM28.294 39.8c.087.035.174.07.262.07v29.23H17.116l11.177-29.3Z" fill="#BF831B"/><path opacity=".5" d="M16.041 71.162c.786 2.092 2.183 3.76 4.133 4.86 2.183 1.276 5.122 1.915 8.673 1.915 3.58 0 6.49-.638 8.674-1.916 1.95-1.135 3.347-2.767 4.133-4.86H16.04Z" fill="#DF9822"/><path opacity=".5" d="M20.55 76.235c2.155 1.136 4.949 1.703 8.296 1.703 3.347 0 6.14-.567 8.295-1.703H20.55Z" fill="#DF9822"/><path opacity=".55" d="M29.198 37.282c0 .497-.35.923-.757.923-.407 0-.756-.426-.756-.922 0-.497.349-.923.756-.923.408 0 .757.39.757.922Z" fill="#DF9822"/><path d="M28.558 37.106c0 .178-.116.32-.262.32-.145 0-.262-.142-.262-.32 0-.177.117-.319.262-.319.146 0 .262.142.262.32Z" fill="#FFFDE9"/><path d="m69.797 69.102.029.106c.582 3.05 2.154 5.357 4.657 6.811 2.183 1.277 5.122 1.916 8.673 1.916 3.58 0 6.49-.639 8.673-1.916 2.533-1.454 4.104-3.76 4.657-6.81l.03-.107h-.961L84.262 39.446c.35-.39.582-.922.582-1.56 0-1.136-.756-2.058-1.688-2.058-.931 0-1.688.922-1.688 2.057 0 .639.233 1.17.582 1.561L70.757 69.102h-.96ZM82.603 39.8c.087.035.175.07.262.07v29.195H71.427l11.176-29.265Zm12.282 29.3H83.476v-29.23c.088-.035.175-.035.262-.07l11.147 29.3Z" fill="#BF831B"/><path opacity=".5" d="M95.963 71.162c-.786 2.092-2.183 3.76-4.133 4.86-2.183 1.276-5.122 1.915-8.673 1.915-3.58 0-6.49-.638-8.673-1.916-1.95-1.135-3.348-2.767-4.133-4.86h25.612Z" fill="#DF9822"/><path opacity=".5" d="M91.45 76.235c-2.154 1.136-4.948 1.703-8.295 1.703-3.376 0-6.14-.567-8.295-1.703h16.59Z" fill="#DF9822"/><path opacity=".55" d="M82.805 37.282c0 .497.349.923.756.923.408 0 .757-.426.757-.922 0-.497-.35-.923-.757-.923-.407 0-.756.39-.756.922Z" fill="#DF9822"/><path d="M83.447 37.106c0 .178.117.32.262.32.146 0 .262-.142.262-.32 0-.177-.116-.319-.262-.319-.145 0-.262.142-.262.32Z" fill="#FFFDE9"/><path d="M39.173 28.591c-2.707 1.774-4.977 4.363-7.568 6.314-1.775 1.348-4.424 1.42-5.093-1.525-.291-1.312.698-3.228 1.92-2.554.612.355.961 1.348.496 2.022 0 0-.96-.355-.67.39.204.532.873.32 1.194.107 1.076-.78.96-3.157-.233-3.69-2.387-1.1-4.395 1.845-4.366 4.505.029 2.767 1.6 4.825 3.754 5.499 4.599 1.383 13.185-9.081 19.006-8.088 5.821.993 8.033 5.427 8.033 5.427v-8.513c-5.035-3.015-11.496-3.122-16.473.106Z" fill="#BF831B"/><path opacity=".5" d="M26.516 33.377c-.291-1.312.699-3.228 1.921-2.554.582.32.931 1.242.553 1.952a.999.999 0 0 0 .64-1.065c-.058-.674-.61-1.277-1.135-1.454-1.106-.39-2.212.603-2.59 1.844-.408 1.313 0 2.697.873 3.548.931.887 2.125 1.064 3.26.78 1.193-.284 2.3-.958 3.289-1.773 1.047-.852 1.979-1.916 2.91-2.945 1.048-1.135 2.067-2.27 3.23-3.263.117-.107.234-.178.35-.284-.233.142-.437.248-.64.39-2.707 1.774-4.977 4.363-7.568 6.314-1.804 1.384-4.424 1.455-5.093-1.49ZM54.078 27.63c0 .888-.262 1.739-.902 2.2-.931.674-2.154.284-3.143 0-.699-.177-1.426-.39-2.154-.426-.727-.035-1.455 0-2.154.107a12.02 12.02 0 0 0-3.987 1.383c-2.3 1.277-4.25 3.228-6.287 5.002-.844.745-1.717 1.525-2.648 2.128a9.806 9.806 0 0 1-2.707 1.277c-.466.142-.96.249-1.455.284h.029c4.598 1.384 13.184-9.08 19.005-8.088 5.821.994 8.033 5.428 8.033 5.428V28.41c-.553-.248-1.076-.532-1.63-.78Z" fill="#DF9822"/><path opacity=".55" d="M25.617 34.409s.873 3.866 4.686 2.59c3.813-1.278 6.869-5.357 7.887-6.599 1.194-1.454 3.551-3.299 6.84-3.618 0 0-3.522.71-5.617 3.122-2.096 2.412-5.88 7.59-9.721 8.23-3.871.638-4.25-2.874-4.075-3.725Z" fill="#DF9822"/><path d="M82.743 29.655c-1.194.532-1.31 2.91-.233 3.69.32.212.99.425 1.193-.107.262-.71-.67-.39-.67-.39-.465-.674-.116-1.667.495-2.022 1.252-.674 2.212 1.242 1.921 2.554-.64 2.944-3.288 2.873-5.093 1.525-2.62-1.95-4.86-4.54-7.567-6.314-5.006-3.228-11.468-3.121-16.503-.106v8.478s2.183-4.434 8.033-5.428c5.85-.993 14.407 9.472 19.006 8.088 2.153-.638 3.725-2.731 3.754-5.498.059-2.625-1.95-5.57-4.336-4.47Z" fill="#BF831B"/><path opacity=".5" d="M85.477 33.377c.29-1.312-.699-3.228-1.921-2.554-.582.32-.931 1.242-.553 1.952a.999.999 0 0 1-.64-1.065c.058-.674.61-1.277 1.135-1.454 1.106-.39 2.212.603 2.59 1.844.408 1.313 0 2.697-.873 3.548-.931.887-2.125 1.064-3.26.78-1.193-.284-2.3-.958-3.289-1.773-1.048-.852-1.979-1.916-2.91-2.945-1.048-1.135-2.067-2.27-3.231-3.263-.116-.107-.233-.178-.35-.284.234.142.437.248.641.39 2.707 1.774 4.977 4.363 7.567 6.314 1.805 1.384 4.454 1.455 5.094-1.49ZM57.916 27.63c0 .888.262 1.739.902 2.2.932.674 2.154.284 3.144 0 .698-.177 1.426-.39 2.153-.426.728-.035 1.456 0 2.154.107a12.02 12.02 0 0 1 3.988 1.383c2.299 1.277 4.249 3.228 6.286 5.002.844.745 1.717 1.525 2.649 2.128a9.806 9.806 0 0 0 2.707 1.277c.465.142.96.249 1.455.284h-.03c-4.598 1.384-13.184-9.08-19.005-8.088-5.82.994-8.033 5.428-8.033 5.428V28.41c.553-.248 1.106-.532 1.63-.78Z" fill="#DF9822"/><path opacity=".55" d="M86.38 34.411s-.872 3.867-4.685 2.59c-3.813-1.277-6.869-5.321-7.887-6.562-1.194-1.455-3.551-3.3-6.84-3.619 0 0 3.522.71 5.617 3.122 2.096 2.377 5.88 7.591 9.75 8.23 3.842.603 4.22-2.91 4.046-3.76Z" fill="#DF9822"/><path d="m58.6 82.44-2.183-58.283h-.757l-2.24 58.282s-.408 3.264 1.28 3.654H57.319c1.688-.39 1.28-3.654 1.28-3.654Z" fill="#BF831B"/><path opacity=".5" d="m58.608 82.44-2.183-58.283h-.378v61.972h1.31c1.659-.426 1.251-3.69 1.251-3.69Z" fill="#DF9822"/><path d="M57.301 24.794c0 .674-.582 1.242-1.28 1.242-.728 0-1.28-.568-1.28-1.242s.581-1.241 1.28-1.241c.727 0 1.28.567 1.28 1.241Z" fill="#BF831B"/><path d="M56.25 24.615a.497.497 0 0 1-.495.497.48.48 0 0 1-.494-.497c0-.284.233-.496.494-.496.262.035.495.248.495.496Z" fill="#FFDBA2"/><path opacity=".55" d="m55.75 30.367-1.775 50.479s1.397.248 1.397-2.413c0-2.625.378-48.066.378-48.066Z" fill="#DF9822"/><path d="M64.13 83.469H47.89s-7.306.213-8.586 3.795h33.383c-1.251-3.582-8.557-3.795-8.557-3.795Z" fill="#A46522"/><path d="M72.877 88.262H39.29c-.35 0-.64-.355-.64-.78 0-.427.29-.781.64-.781h33.587c.35 0 .64.355.64.78 0 .426-.29.78-.64.78Z" fill="#BF831B"/><path d="M27.202 125.921a5.405 5.405 0 0 1-2.025-.371 4.997 4.997 0 0 1-1.601-1.032 4.535 4.535 0 0 1-1.06-1.562 5.227 5.227 0 0 1-.37-1.985c0-.715.124-1.372.37-1.972.248-.6.6-1.121 1.06-1.562a4.997 4.997 0 0 1 1.601-1.032 5.405 5.405 0 0 1 2.025-.371c.732 0 1.403.124 2.012.371a4.961 4.961 0 0 1 1.614 1.032c.46.441.812.962 1.06 1.562.246.6.37 1.257.37 1.972a5.23 5.23 0 0 1-.37 1.985c-.248.6-.6 1.121-1.06 1.562a4.961 4.961 0 0 1-1.614 1.032 5.303 5.303 0 0 1-2.012.371Zm0-1.575c.626 0 1.178-.146 1.654-.437a3.01 3.01 0 0 0 1.112-1.191c.274-.512.41-1.094.41-1.747s-.136-1.231-.41-1.734a3.01 3.01 0 0 0-1.112-1.191c-.476-.291-1.028-.437-1.654-.437-.618 0-1.17.146-1.654.437a3.107 3.107 0 0 0-1.125 1.191c-.265.503-.397 1.081-.397 1.734s.132 1.235.397 1.747c.273.503.648.9 1.125 1.191a3.154 3.154 0 0 0 1.654.437Zm9.85 1.575c-1.156 0-2.047-.406-2.673-1.218-.618-.812-.927-1.967-.927-3.467 0-1.483.265-2.594.794-3.336.539-.75 1.395-1.2 2.568-1.35l2.885-.37.186 1.429-2.82.384c-.485.071-.873.216-1.164.437-.283.212-.49.529-.622.953-.133.423-.216.983-.252 1.681l-.251.41c.097-.441.273-.812.53-1.112.264-.309.586-.543.965-.701.38-.168.794-.252 1.245-.252.626 0 1.164.133 1.614.397.45.265.794.627 1.032 1.085.248.459.371.993.371 1.602 0 .688-.146 1.293-.437 1.813a3.039 3.039 0 0 1-1.217 1.191c-.52.283-1.13.424-1.827.424Zm-.08-1.456c.557 0 .989-.163 1.298-.49.309-.335.463-.789.463-1.363s-.145-1.015-.437-1.323c-.29-.309-.706-.464-1.244-.464-.309 0-.59.066-.847.199a1.737 1.737 0 0 0-.648.542c-.177.239-.3.521-.37.847l.065-.688c-.017.936.11 1.628.384 2.078.282.441.728.662 1.337.662Zm4.994 1.244v-6.657h1.707v6.366l-.675-1.112h3.666l-.715 1.112v-6.366h1.708v6.366l-.437-1.112h3.706l-.993 1.112v-6.366h1.708v6.657h-9.675Zm9.092 1.813v-3.216H52.7v3.216h-1.64Zm8.216-3.891.926 1.072c-.335.38-.767.68-1.297.9a4.557 4.557 0 0 1-1.733.318c-.768 0-1.443-.15-2.025-.45a3.387 3.387 0 0 1-1.364-1.244c-.326-.53-.49-1.143-.49-1.84 0-.697.155-1.31.464-1.84a3.379 3.379 0 0 1 1.284-1.257c.547-.3 1.16-.45 1.84-.45.661 0 1.248.15 1.76.45.52.291.926.697 1.217 1.218.291.52.437 1.125.437 1.813v.079h-1.707v-.185c0-.406-.075-.759-.225-1.059-.141-.3-.34-.534-.596-.701a1.539 1.539 0 0 0-.886-.252c-.362 0-.68.088-.953.265-.274.168-.49.415-.649.741-.15.318-.225.697-.225 1.138 0 .468.093.869.278 1.205.194.326.454.578.78.754.336.168.72.252 1.152.252.794 0 1.465-.309 2.012-.927Zm1.02-.715h-5.877v-1.111h5.664l.212.516v.595Zm6.529.596 1.085 1.059a3.582 3.582 0 0 1-1.258 1.006c-.485.229-1.04.344-1.667.344-.688 0-1.306-.15-1.853-.45a3.478 3.478 0 0 1-1.297-1.258c-.309-.538-.463-1.147-.463-1.826 0-.688.159-1.297.476-1.826.318-.539.75-.958 1.297-1.258.556-.309 1.183-.463 1.88-.463.608 0 1.156.119 1.64.357.486.23.9.556 1.245.98l-1.085 1.072a2.207 2.207 0 0 0-.715-.688 1.83 1.83 0 0 0-.993-.265c-.38 0-.714.088-1.006.265-.29.176-.52.423-.688.741a2.287 2.287 0 0 0-.251 1.085c0 .397.084.754.251 1.072.168.318.397.565.688.741.292.177.627.265 1.006.265.389 0 .724-.088 1.006-.265.282-.176.516-.406.702-.688Zm4.081 2.197v-6.062h1.747v6.062h-1.747Zm-2.25-5.254v-1.403h6.247v1.403h-6.247Zm7.446 5.254v-6.657h3.428c.741 0 1.323.163 1.747.49.432.317.648.749.648 1.297 0 .344-.101.639-.304.886a1.833 1.833 0 0 1-.807.569l-.013-.119c.423.115.767.318 1.032.609.273.282.41.627.41 1.032 0 .371-.115.702-.344.993-.22.291-.525.516-.913.675-.388.15-.83.225-1.324.225H76.1Zm1.575-.45-.86-.807h2.58c.38 0 .662-.067.848-.199.194-.132.29-.331.29-.595 0-.265-.096-.464-.29-.596-.186-.132-.468-.199-.847-.199H76.96v-1.138h2.29c.353 0 .6-.061.741-.185.15-.124.225-.304.225-.543 0-.238-.075-.41-.225-.516-.141-.115-.388-.172-.741-.172h-2.501l.926-.847v5.797Zm9.178.662c-.723 0-1.363-.15-1.919-.45a3.354 3.354 0 0 1-1.297-1.258c-.309-.538-.463-1.147-.463-1.826 0-.697.154-1.31.463-1.84a3.265 3.265 0 0 1 1.297-1.244c.556-.309 1.196-.463 1.92-.463.723 0 1.362.154 1.918.463.556.3.988.715 1.297 1.244.309.53.463 1.139.463 1.827s-.154 1.301-.463 1.839c-.309.53-.74.949-1.297 1.258-.556.3-1.195.45-1.919.45Zm0-1.456c.37 0 .697-.088.98-.265.282-.176.502-.419.661-.728.16-.317.239-.679.239-1.085 0-.415-.08-.776-.239-1.085a1.796 1.796 0 0 0-.662-.741 1.805 1.805 0 0 0-.979-.265c-.37 0-.697.088-.98.265a1.796 1.796 0 0 0-.661.741c-.159.309-.238.67-.238 1.085 0 .406.08.768.238 1.085.159.309.38.552.662.728.282.177.609.265.98.265Z" fill="#003C56"/></svg>