<svg width="112" height="141" fill="none" xmlns="http://www.w3.org/2000/svg"><rect y=".653" width="111.822" height="139.777" rx="6.989" fill="#fff"/><rect x="5.588" y="6.243" width="100.639" height="100.639" rx="6.787" fill="#EAF1FF"/><path d="M78.051 51.058v-2.94h-2.94v-2.941h-5.882v-2.94h-8.822v-2.942h-5.88V27.533h-2.942v-2.94h-5.88v2.94h-2.941v26.466h-2.941v-2.941H31v8.821h2.94v2.942h2.941v5.88h2.94v5.882h2.941v5.881h2.941v8.822H75.11v-8.822h2.941v-8.822h2.94V51.058h-2.94Z" fill="#fff"/><path d="M45.713 27.533h-2.94v35.288h2.94V27.533Z" fill="#000"/><path d="M51.588 24.594h-5.881v2.94h5.881v-2.94ZM54.532 27.533H51.59V54h2.94V27.533Z" fill="#000"/><path d="M60.411 39.3h-5.88v2.941h5.88v-2.94ZM63.349 45.18h-2.94V54h2.94V45.18Z" fill="#000"/><path d="M69.23 42.24h-8.822v2.94h8.822v-2.94ZM72.172 48.119h-2.94v8.822h2.94v-8.822Z" fill="#000"/><path d="M75.113 45.18H69.23v2.94h5.882v-2.94ZM78.056 48.119h-2.94v2.94h2.94v-2.94ZM81 51.058h-2.94v20.584H81V51.058ZM78.056 71.643h-2.94v8.822h2.94v-8.822ZM75.116 80.461h-2.94v8.822h2.94v-8.822ZM72.173 86.35H45.707v2.94h26.466v-2.94ZM42.764 53.997h-2.94v2.941h2.94v-2.94Z" fill="#000"/><path d="M39.828 51.058h-8.822v2.94h8.822v-2.94Z" fill="#000"/><path d="M33.947 53.997h-2.941v5.882h2.94v-5.882ZM36.885 59.886h-2.94v2.94h2.94v-2.94ZM39.83 62.825h-2.941v5.882h2.94v-5.882Z" fill="#000"/><path d="M42.764 68.704h-2.94v5.881h2.94v-5.881ZM45.713 74.582h-2.94v5.882h2.94v-5.882Z" fill="#000"/><path d="M48.648 80.461h-2.941v5.882h2.94V80.46Z" fill="#000"/><path d="m43.635 123.287 1.178 1.191c-.415.529-.962.957-1.642 1.284-.67.326-1.407.49-2.21.49a5.48 5.48 0 0 1-2.011-.358 4.843 4.843 0 0 1-1.589-1.032 4.88 4.88 0 0 1-1.032-1.575 5.336 5.336 0 0 1-.357-1.985c0-.706.123-1.359.37-1.959a4.757 4.757 0 0 1 1.06-1.575c.45-.45.978-.794 1.587-1.032a5.368 5.368 0 0 1 2.012-.371c.803 0 1.535.163 2.197.49.662.326 1.2.754 1.615 1.284l-1.178 1.191a3.16 3.16 0 0 0-1.125-1.006A2.997 2.997 0 0 0 41 117.94c-.6 0-1.138.146-1.615.437a3.141 3.141 0 0 0-1.111 1.191c-.274.503-.41 1.081-.41 1.734s.136 1.235.41 1.747c.273.503.644.9 1.111 1.191a3.036 3.036 0 0 0 1.615.437c.556 0 1.059-.124 1.509-.371a3.293 3.293 0 0 0 1.125-1.019Zm8.549 2.753h-1.588v-1.337l-.08-.212v-2.501c0-.468-.15-.829-.45-1.085-.3-.256-.71-.384-1.23-.384-.38 0-.737.075-1.073.225a2.545 2.545 0 0 0-.86.609l-.913-1.059c.353-.353.78-.627 1.284-.821a4.344 4.344 0 0 1 1.64-.304c.645 0 1.214.11 1.708.331.494.22.878.538 1.152.953.273.406.41.904.41 1.495v4.09Zm-3.851.212c-.512 0-.962-.093-1.35-.278a2.246 2.246 0 0 1-.914-.768 2.044 2.044 0 0 1-.317-1.138c0-.459.132-.847.397-1.165.264-.326.64-.578 1.125-.754.494-.177 1.063-.265 1.707-.265h1.707v1.138h-1.575c-.476 0-.86.084-1.151.252-.291.167-.437.41-.437.728 0 .291.11.52.331.688.23.167.525.251.887.251.344 0 .657-.07.94-.211a1.91 1.91 0 0 0 .688-.609 1.76 1.76 0 0 0 .304-.874l.503.238c0 .547-.12 1.028-.357 1.443a2.554 2.554 0 0 1-1.006.979c-.424.23-.918.345-1.482.345Zm5.442-.212v-6.657h1.668v4.433l-.093-.026 3.335-4.407h1.535v6.657h-1.667v-4.434l.092.027-3.335 4.407h-1.535Zm3.296-7.782c-.636 0-1.165-.159-1.589-.477-.423-.326-.688-.816-.794-1.469h1.363c.053.353.168.605.344.755.177.15.402.224.675.224.283 0 .508-.074.675-.224.177-.15.287-.402.331-.755h1.377c-.097.653-.358 1.143-.781 1.469-.424.318-.957.477-1.601.477Zm6.617 7.782v-6.062h1.747v6.062h-1.747Zm-2.25-5.254v-1.403h6.247v1.403h-6.247Zm7.446 5.254v-6.657h1.68v6.432l-1.256-1.178h2.686c.344 0 .609-.08.794-.238.186-.159.278-.384.278-.675 0-.291-.092-.512-.278-.662-.185-.159-.45-.238-.794-.238h-2.21v-1.416h2.382c.812 0 1.46.211 1.946.635.485.423.728.966.728 1.628 0 .485-.11.904-.331 1.257-.22.353-.534.627-.94.821-.406.194-.873.291-1.403.291h-3.282Zm6.684 0v-6.657h1.747v6.657h-1.747Z" fill="#003C56"/></svg>