<svg width="113" height="141" fill="none" xmlns="http://www.w3.org/2000/svg"><rect x=".798" y=".368" width="111.822" height="139.777" rx="6.989" fill="#fff"/><rect x="6.385" y="5.959" width="100.639" height="100.639" rx="6.787" fill="#EAF1FF"/><path d="M84.643 59.722c0 13.296-10.794 24.09-24.09 24.09s-24.09-10.773-24.09-24.09c0-13.297 10.794-24.09 24.09-24.09s24.09 10.794 24.09 24.09Z" fill="#91CCC5"/><path d="M74.756 40.263a24.023 24.023 0 0 1 4.776 14.413c0 13.296-10.794 24.09-24.09 24.09a23.977 23.977 0 0 1-14.206-4.631 24.065 24.065 0 0 0 19.314 9.677c13.296 0 24.09-10.794 24.09-24.09 0-7.982-3.888-15.075-9.884-19.459Z" fill="#91CCC5"/><path d="m62.68 56.082 11.974 11.911c.269.269-.021.724-.373.58l-15.819-5.894 4.219-6.597Z" fill="#91CCC5"/><path d="M62.682 56.082 46.863 50.19c-.351-.124-.64.31-.372.579l11.973 11.91 4.218-6.596Z" fill="#91CCC5"/><path d="M60.63 56.103a3.314 3.314 0 0 1 3.247 3.35 3.314 3.314 0 0 1-3.35 3.246 3.314 3.314 0 0 1-3.246-3.35 3.262 3.262 0 0 1 3.35-3.246Z" fill="#91CCC5"/><path d="M60.613 56.992a2.4 2.4 0 0 1 2.357 2.44 2.4 2.4 0 0 1-2.44 2.357 2.4 2.4 0 0 1-2.357-2.44 2.4 2.4 0 0 1 2.44-2.357Z" fill="#91CCC5"/><path d="M88.797 56.372c0 17.452-14.144 31.617-31.617 31.617-17.453-.02-31.597-14.165-31.597-31.617 0-17.474 14.144-31.618 31.617-31.618 17.453 0 31.597 14.144 31.597 31.618Z" fill="#7D98CE"/><path d="M78.19 32.736a31.48 31.48 0 0 1 6.39 19.066c0 17.452-14.145 31.617-31.618 31.617-8.065 0-15.406-3.019-20.989-7.982 5.77 7.63 14.91 12.552 25.207 12.552 17.453 0 31.618-14.144 31.618-31.617 0-9.409-4.095-17.846-10.608-23.636Z" fill="#6685C3"/><path d="M81.292 56.371c0 13.297-10.794 24.09-24.09 24.09s-24.09-10.793-24.09-24.09c0-13.296 10.794-24.09 24.09-24.09s24.09 10.773 24.09 24.09Z" fill="#F2F2F1"/><path d="M71.384 36.892a24.024 24.024 0 0 1 4.776 14.413c0 13.297-10.794 24.09-24.09 24.09a23.976 23.976 0 0 1-14.206-4.631 24.065 24.065 0 0 0 19.314 9.677c13.316 0 24.09-10.794 24.09-24.09.02-7.982-3.888-15.075-9.884-19.459Z" fill="#DCDCDC"/><path d="m59.308 52.711 11.973 11.911c.269.27-.02.724-.372.58l-15.82-5.894 4.22-6.597Z" fill="#E0211B"/><path d="m59.31 52.712-15.82-5.894c-.35-.124-.64.31-.371.58l11.973 11.91 4.218-6.596Z" fill="#2569B2"/><path d="M57.264 52.732a3.314 3.314 0 0 1 3.247 3.35 3.314 3.314 0 0 1-3.35 3.246 3.314 3.314 0 0 1-3.247-3.35 3.274 3.274 0 0 1 3.35-3.246Z" fill="#487FB5"/><path d="M57.24 53.621a2.4 2.4 0 0 1 2.357 2.44 2.4 2.4 0 0 1-2.44 2.358 2.4 2.4 0 0 1-2.357-2.44 2.4 2.4 0 0 1 2.44-2.358Z" fill="#fff"/><path d="M56.105 33.956v4.136c0 .6.496 1.096 1.096 1.096.6 0 1.096-.496 1.096-1.096v-4.136c0-.6-.496-1.096-1.096-1.096a1.09 1.09 0 0 0-1.096 1.096ZM56.105 74.796v4.136c0 .6.496 1.096 1.096 1.096.6 0 1.096-.496 1.096-1.096v-4.136c0-.6-.496-1.096-1.096-1.096a1.09 1.09 0 0 0-1.096 1.096ZM79.68 55.359h-4.136c-.6 0-1.096.496-1.096 1.096 0 .6.497 1.096 1.096 1.096h4.136c.6 0 1.096-.497 1.096-1.096a1.09 1.09 0 0 0-1.096-1.096ZM38.837 55.359h-4.136c-.6 0-1.096.496-1.096 1.096 0 .6.497 1.096 1.096 1.096h4.136c.6 0 1.096-.497 1.096-1.096a1.09 1.09 0 0 0-1.096-1.096Z" fill="#7D98CE"/><path d="M22.367 125.753v-9.463h6.26v1.522h-5.44l.967-1.099v9.04h-1.787Zm11.63-2.078.926 1.072a3.496 3.496 0 0 1-1.297.9 4.557 4.557 0 0 1-1.734.318c-.768 0-1.443-.15-2.025-.45a3.386 3.386 0 0 1-1.363-1.244c-.327-.53-.49-1.143-.49-1.84 0-.697.154-1.31.463-1.84a3.379 3.379 0 0 1 1.284-1.257c.547-.3 1.16-.45 1.84-.45.661 0 1.248.15 1.76.45.52.291.926.697 1.218 1.218.29.52.436 1.125.436 1.813v.079h-1.707v-.185c0-.406-.075-.759-.225-1.059-.141-.3-.34-.534-.596-.701a1.539 1.539 0 0 0-.886-.252c-.362 0-.68.088-.953.265-.274.168-.49.415-.649.741-.15.318-.225.697-.225 1.138 0 .468.093.869.278 1.205.194.326.455.578.781.754.335.168.72.251 1.152.251.794 0 1.464-.308 2.011-.926Zm1.018-.715H29.14v-1.111h5.665l.211.516v.595Zm4.756 3.005c-.723 0-1.363-.15-1.919-.45a3.353 3.353 0 0 1-1.297-1.258c-.309-.538-.463-1.147-.463-1.826 0-.697.154-1.31.463-1.84a3.264 3.264 0 0 1 1.297-1.244c.556-.309 1.196-.463 1.92-.463.723 0 1.363.154 1.918.463.556.3.989.715 1.297 1.244.31.53.464 1.139.464 1.827s-.155 1.301-.464 1.839c-.309.53-.74.949-1.297 1.258-.555.3-1.195.45-1.919.45Zm0-1.456c.37 0 .697-.088.98-.265.282-.176.503-.419.661-.728.16-.317.239-.679.239-1.085 0-.415-.08-.776-.239-1.085a1.797 1.797 0 0 0-.661-.741 1.805 1.805 0 0 0-.98-.265c-.37 0-.697.088-.98.265a1.797 1.797 0 0 0-.66.741c-.16.309-.24.67-.24 1.085 0 .406.08.768.24 1.085.158.309.379.552.66.728.283.177.61.265.98.265Zm5.119 1.244v-6.657h4.897v1.403h-4.5l1.35-1.059v6.313H44.89Zm7.912 2.568h-1.747v-9.225h1.734v2.064h-.37c.06-.432.206-.82.436-1.164.238-.344.547-.613.926-.808.38-.203.812-.304 1.297-.304.61 0 1.165.15 1.668.45.503.3.9.715 1.191 1.244.3.529.45 1.147.45 1.853 0 .697-.15 1.31-.45 1.84-.3.529-.701.944-1.204 1.244-.503.3-1.068.45-1.694.45-.574 0-1.068-.124-1.483-.371a2.42 2.42 0 0 1-.94-.993 2.728 2.728 0 0 1-.277-1.389l.37-.238c.044.3.155.569.331.807.177.229.402.41.675.543.282.123.587.185.913.185.389 0 .728-.088 1.02-.265.29-.176.516-.423.674-.741.168-.318.252-.675.252-1.072 0-.415-.08-.776-.238-1.085a1.71 1.71 0 0 0-.649-.741c-.273-.177-.6-.265-.98-.265-.37 0-.7.088-.992.265a1.89 1.89 0 0 0-.675.741c-.159.309-.238.684-.238 1.125v5.85Zm12.87-2.568h-1.589v-1.337l-.08-.212v-2.501c0-.468-.15-.829-.45-1.085-.3-.256-.71-.384-1.23-.384-.38 0-.737.075-1.072.225a2.544 2.544 0 0 0-.86.609l-.913-1.059c.352-.353.78-.626 1.283-.821a4.343 4.343 0 0 1 1.641-.304c.645 0 1.214.11 1.708.331.494.22.878.538 1.151.953.274.406.41.904.41 1.495v4.09Zm-3.852.212c-.512 0-.962-.093-1.35-.278a2.239 2.239 0 0 1-.913-.768 2.043 2.043 0 0 1-.318-1.138c0-.459.133-.847.397-1.165.265-.326.64-.578 1.125-.754.494-.177 1.063-.265 1.708-.265h1.707v1.138H62.6c-.477 0-.86.084-1.151.252-.292.167-.437.41-.437.728 0 .291.11.52.33.688.23.168.526.251.887.251.345 0 .658-.07.94-.211a1.91 1.91 0 0 0 .688-.609 1.76 1.76 0 0 0 .305-.874l.503.239c0 .547-.12 1.028-.358 1.442a2.562 2.562 0 0 1-1.006.98c-.423.229-.917.344-1.482.344Zm9.545 0c-.917 0-1.716-.141-2.395-.424-.67-.291-1.187-.701-1.549-1.231-.361-.538-.542-1.164-.542-1.879 0-.732.18-1.363.542-1.893.362-.529.878-.935 1.549-1.217.68-.291 1.478-.437 2.395-.437h.675c.918 0 1.712.146 2.383.437.67.282 1.186.688 1.548 1.217.37.53.556 1.161.556 1.893 0 .715-.185 1.341-.556 1.879-.362.53-.878.94-1.548 1.231-.671.283-1.465.424-2.383.424h-.675Zm0-1.43h.675c.9 0 1.588-.181 2.065-.542.476-.362.715-.883.715-1.562 0-.688-.239-1.213-.715-1.575-.477-.362-1.165-.543-2.065-.543h-.675c-.908 0-1.601.181-2.078.543-.467.353-.701.878-.701 1.575 0 .679.234 1.2.701 1.562.477.361 1.17.542 2.078.542Zm-.516 3.918v-3.19l.053-.212v-5.135l-.053-.225v-3.467h1.72v3.467l-.052.225v5.135l.053.212v3.19h-1.72Zm7.115-2.7v-6.657h1.668v4.433l-.093-.026 3.335-4.407h1.536v6.657h-1.668v-4.434l.093.027-3.335 4.407h-1.536Zm12.428 0v-6.432l1.125 1.072h-2.674c-.309 0-.564.07-.767.212-.194.141-.291.361-.291.661 0 .291.092.512.278.662.194.15.463.225.807.225h2.17v1.204h-2.408c-.786 0-1.412-.189-1.88-.569-.467-.379-.701-.895-.701-1.548 0-.415.11-.781.33-1.099.23-.326.543-.582.94-.767.397-.186.852-.278 1.364-.278h3.308v6.657h-1.601Zm-4.672 0 2.223-2.885h1.747l-2.078 2.885H85.72Z" fill="#003C56"/></svg>