<svg width="112" height="141" fill="none" xmlns="http://www.w3.org/2000/svg"><rect y=".331" width="111.822" height="139.777" rx="6.989" fill="#fff"/><rect x="5.58" y="5.921" width="100.639" height="100.639" rx="6.787" fill="#EAF1FF"/><path d="M63.762 17.759v50.817c0 1.4-1.12 2.66-2.66 2.66H51.022c-.42 0-.84-.14-1.12-.28-.14 0-.28-.14-.28-.14-.7-.42-1.12-1.26-1.12-2.24V17.76c0-1.4 1.12-2.66 2.66-2.66h9.94c1.4 0 2.66 1.12 2.66 2.66Z" fill="#DCEEEF"/><path d="M81.547 71.237c0 .98 0 1.96-.14 2.8-.14 1.12-.28 2.24-.56 3.22-.14.7-.42 1.4-.56 2.1 0 .14 0 .14-.14.28-.84 2.24-1.96 4.34-3.22 6.3-4.06 5.74-10.359 9.659-17.639 10.499-.98.14-2.1.14-3.08.14h-.28c-.98 0-1.96 0-2.94-.14-8.259-.84-15.258-5.74-19.038-12.6-.7-1.26-1.4-2.66-1.82-4.06-.28-.7-.56-1.54-.7-2.38-.14-.42-.14-.7-.28-1.119-.14-.7-.28-1.4-.28-2.1-.28-.98-.28-1.96-.28-2.94 0-11.34 7.56-20.999 17.919-24.359 1.4-.42 2.8-.7 4.34-.98h.14c.98-.14 1.96-.14 2.94-.14H57.049c.7 0 1.4.14 2.1.14h.14c1.54.14 3.08.56 4.48.98 10.359 3.36 17.778 13.02 17.778 24.36Z" fill="#B4DEE0"/><path d="M76.359 71.238c0 11.2-9.1 20.299-20.3 20.299-11.199 0-20.298-9.1-20.298-20.3 0-1.399.14-2.799.42-4.059 1.96-9.24 10.08-16.24 19.879-16.24 9.8 0 18.059 7 19.879 16.24.28 1.4.42 2.66.42 4.06Z" fill="#EEFEFF"/><path d="M59.275 17.758v50.818c0 1.4-.42 2.66-1.12 2.66h-4.2c-.28 0-.56-.42-.84-.98 0-.14-.14-.56-.14-.98V17.758c0-1.4.42-2.66 1.12-2.66h4.2c.42 0 .98 1.12.98 2.66Z" fill="#F4FEFF"/><path d="M67.143 17.62c0 1.4-1.12 2.52-2.52 2.52H47.545a2.51 2.51 0 0 1-2.52-2.52c0-.7.28-1.26.7-1.82.42-.42 1.12-.7 1.82-.7h17.22c1.26 0 2.38 1.12 2.38 2.52Z" fill="#B4DEE0"/><path d="M76.36 71.237c0 11.2-9.1 20.299-20.3 20.299-11.199 0-20.298-9.1-20.298-20.3 0-1.4.14-2.8.42-4.06H75.94c.28 1.4.42 2.66.42 4.06Z" fill="#68CCEA"/><path d="M68.688 74.458c0 1.54-1.26 2.8-2.8 2.8-1.54 0-2.8-1.26-2.8-2.8 0-1.54 1.26-2.8 2.8-2.8 1.54 0 2.8 1.26 2.8 2.8ZM54.126 71.237c0 1.26-.98 2.24-2.24 2.24-1.26 0-2.24-.98-2.24-2.24 0-1.26.98-2.24 2.24-2.24 1.12 0 2.24.98 2.24 2.24ZM44.72 71.237c0 .7-.56 1.12-1.12 1.12-.7 0-1.12-.56-1.12-1.12 0-.7.56-1.12 1.12-1.12s1.12.56 1.12 1.12ZM64.6 82.997c0 .98-.84 1.68-1.68 1.68-.98 0-1.68-.84-1.68-1.68 0-.98.84-1.68 1.68-1.68.98-.14 1.68.7 1.68 1.68ZM52.57 83.698c0 1.68-1.4 3.08-3.079 3.08-1.68 0-3.08-1.4-3.08-3.08 0-1.68 1.4-3.08 3.08-3.08 1.68 0 3.08 1.4 3.08 3.08Z" fill="#54A6BF"/><path d="M60.682 56.958c0 1.4-1.12 2.52-2.52 2.52a2.51 2.51 0 0 1-2.52-2.52c0-1.4 1.12-2.52 2.52-2.52s2.52 1.12 2.52 2.52ZM55.105 62.278c0 1.96-1.54 3.5-3.5 3.5s-3.5-1.54-3.5-3.5 1.54-3.5 3.5-3.5c1.96.14 3.5 1.68 3.5 3.5ZM58.722 47.857c0 1.12-.98 2.1-2.1 2.1s-2.1-.98-2.1-2.1.98-2.1 2.1-2.1 2.1.98 2.1 2.1ZM59.013 34.136c0 .84-.7 1.4-1.4 1.4-.84 0-1.4-.7-1.4-1.4s.7-1.4 1.4-1.4c.84-.14 1.4.56 1.4 1.4ZM62.1 63.678c0 .84-.7 1.4-1.4 1.4-.84 0-1.4-.7-1.4-1.4 0-.84.7-1.4 1.4-1.4.84 0 1.4.7 1.4 1.4Z" fill="#68CCEA"/><path d="M37.132 125.714h-2.104l3.652-5.175v.542l-3.335-4.83h2.105l2.355 3.599h-.357l2.356-3.599h2.078l-3.309 4.83.013-.542 3.64 5.175h-2.118l-2.673-3.958h.37l-2.673 3.958Zm8.188 0v-6.658h1.667v4.434l-.092-.026 3.335-4.408h1.535v6.658h-1.667v-4.434l.092.026-3.335 4.408H45.32Zm8.272 0v-6.658h1.786l2.356 4.461h-.251l2.303-4.461h1.852v6.658h-1.561v-6.075l.609.503-2.555 4.883h-1.125l-2.554-4.883.648-.437v6.009h-1.508Zm9.874 0v-6.658h1.668v4.434l-.093-.026 3.335-4.408h1.536v6.658h-1.668v-4.434l.093.026L65 125.714h-1.535Zm12.428 0v-6.433l1.125 1.072h-2.674c-.308 0-.564.071-.767.212-.195.141-.291.362-.291.662 0 .291.092.512.277.662.195.15.464.225.808.225h2.17v1.204h-2.409c-.785 0-1.411-.19-1.879-.569-.468-.38-.701-.896-.701-1.549 0-.414.11-.78.33-1.098a2.32 2.32 0 0 1 .94-.768 3.193 3.193 0 0 1 1.364-.278h3.308v6.658h-1.601Zm-4.672 0 2.223-2.886h1.747l-2.078 2.886h-1.892Z" fill="#003C56"/></svg>