<svg width="113" height="141" fill="none" xmlns="http://www.w3.org/2000/svg"><rect x=".798" y=".824" width="111.822" height="139.777" rx="6.989" fill="#fff"/><rect x="6.385" y="6.414" width="100.639" height="100.639" rx="6.787" fill="#EAF1FF"/><path d="M56.856 102.19c7.214 0 13.062-19.948 13.062-44.555 0-24.608-5.848-44.556-13.062-44.556-7.214 0-13.062 19.948-13.062 44.556 0 24.607 5.848 44.555 13.062 44.555Z" stroke="#6683C2" stroke-width=".679" stroke-miterlimit="10" stroke-linecap="round" stroke-linejoin="round"/><path d="M63.4 68.953c21.31-12.304 35.66-27.343 32.053-33.59-3.607-6.247-23.806-1.338-45.116 10.966-21.31 12.304-35.66 27.342-32.053 33.59 3.607 6.247 23.806 1.337 45.115-10.966Z" stroke="#6683C2" stroke-width=".679" stroke-miterlimit="10" stroke-linecap="round" stroke-linejoin="round"/><path d="M95.449 79.922c3.607-6.248-10.744-21.286-32.054-33.59C42.085 34.03 21.886 29.12 18.279 35.367c-3.607 6.247 10.744 21.285 32.054 33.589 21.31 12.303 41.509 17.213 45.116 10.966Z" stroke="#6683C2" stroke-width=".679" stroke-miterlimit="10" stroke-linecap="round" stroke-linejoin="round"/><path d="M65.515 57.66c0 4.362-3.664 8.026-8.026 8.026s-8.026-3.665-8.026-8.026c0-4.362 3.664-8.026 8.026-8.026s8.026 3.664 8.026 8.026ZM38.827 33.556c0 2.178-1.835 4.013-4.013 4.013-2.179 0-4.013-1.835-4.013-4.013 0-2.179 1.834-4.013 4.013-4.013 2.178 0 4.013 1.834 4.013 4.013ZM95.571 47.205c0 2.179-1.834 4.013-4.013 4.013-2.178 0-4.013-1.834-4.013-4.013 0-2.178 1.835-4.013 4.013-4.013 2.179 0 4.013 1.72 4.013 4.013ZM50.844 89.736c0 2.178-1.834 4.013-4.013 4.013-2.178 0-4.013-1.835-4.013-4.013s1.835-4.013 4.013-4.013c2.293 0 4.013 1.835 4.013 4.013Z" fill="#F2C45B"/><path d="M37.575 125.27c-1.73 0-3.04-.322-3.93-.966-.892-.644-1.338-1.588-1.338-2.833 0-1.244.446-2.183 1.337-2.819.891-.644 2.202-.966 3.93-.966 1.73 0 3.036.322 3.918.966.892.636 1.337 1.575 1.337 2.819 0 1.245-.445 2.189-1.337 2.833-.882.644-2.188.966-3.917.966Zm0-1.469c1.209 0 2.091-.185 2.647-.556.565-.371.847-.962.847-1.774 0-.802-.282-1.389-.847-1.76-.556-.37-1.438-.556-2.647-.556-1.209 0-2.096.186-2.66.556-.556.371-.834.958-.834 1.76 0 .803.278 1.395.834 1.774.564.371 1.451.556 2.66.556Zm-.9 2.845v-1.932l.053-.582v-5.387l-.053-.516v-1.919h1.787v1.919l-.053.516v5.387l.053.582v1.932h-1.787Zm7.723-.436v-6.658h1.667v4.434l-.092-.026 3.335-4.408h1.535v6.658h-1.667v-4.434l.092.026-3.335 4.408h-1.535Zm10.522.211c-.565 0-1.12-.097-1.668-.291a3.663 3.663 0 0 1-1.376-.9l.913-1.032c.565.556 1.262.834 2.091.834.476 0 .843-.075 1.098-.225.265-.159.398-.38.398-.662 0-.503-.446-.754-1.337-.754h-1.31v-1.139h1.297c.388 0 .679-.061.873-.185a.635.635 0 0 0 .291-.556c0-.247-.119-.437-.357-.569-.23-.141-.547-.212-.953-.212-.732 0-1.368.274-1.906.821l-.9-1.072c.768-.759 1.72-1.138 2.859-1.138.573 0 1.076.083 1.509.251.44.168.79.402 1.045.702.256.291.384.622.384.992 0 .353-.101.658-.304.913-.203.247-.494.433-.874.556v-.119c.433.115.768.313 1.006.596.247.273.37.609.37 1.006 0 .414-.136.789-.41 1.125-.273.326-.644.586-1.111.78-.468.186-1.01.278-1.628.278Zm4.458-.211v-6.658h1.667v4.434l-.092-.026 3.335-4.408h1.535v6.658h-1.667v-4.434l.092.026-3.335 4.408h-1.535Zm12.785 0L69 122.742h.145l2.859-3.19h2.09l-3.4 3.786-.093-1.165 3.759 4.037h-2.197Zm-4.513 0v-6.658h1.746v6.658H67.65Zm13.53 0h-1.588v-1.337l-.08-.212v-2.501c0-.468-.15-.83-.45-1.086-.3-.255-.71-.383-1.23-.383-.38 0-.737.075-1.072.225a2.556 2.556 0 0 0-.86.608l-.914-1.058c.353-.353.781-.627 1.284-.821a4.344 4.344 0 0 1 1.641-.304c.644 0 1.214.11 1.708.331.494.22.878.538 1.151.952.274.406.41.905.41 1.496v4.09Zm-3.851.211c-.512 0-.962-.092-1.35-.278a2.235 2.235 0 0 1-.913-.767 2.046 2.046 0 0 1-.318-1.138c0-.459.133-.847.397-1.165.265-.327.64-.578 1.125-.754.494-.177 1.063-.265 1.708-.265h1.707v1.138H78.11c-.477 0-.86.084-1.152.251-.29.168-.436.411-.436.728 0 .292.11.521.33.689.23.167.526.251.887.251.344 0 .658-.07.94-.212.282-.15.512-.353.688-.608.177-.256.278-.548.305-.874l.502.238c0 .547-.119 1.028-.357 1.443a2.553 2.553 0 0 1-1.006.979c-.423.23-.917.344-1.482.344Z" fill="#003C56"/></svg>