<svg width="112" height="141" fill="none" xmlns="http://www.w3.org/2000/svg"><rect y=".661" width="111.822" height="139.777" rx="6.989" fill="#fff"/><rect x="5.588" y="6.251" width="100.639" height="100.639" rx="6.787" fill="#EAF1FF"/><path d="M56.227 84.497c-.08.067-.148.147-.228.228v-.094c.027-.013.054-.027.08-.053h.014c.04-.027.094-.054.134-.08Z" fill="#D3DCFB"/><path d="M81.165 73.11c-6.873-.308-14.134 2.545-20.605 7.582a47.535 47.535 0 0 0-4.327 3.805h-.013a.9.9 0 0 0-.148.094 72.183 72.183 0 0 1 4.475-6.86c4.609-6.23 9.66-10.717 14.455-12.392V45.056c-.013-2.117-.013-4.247-.013-6.364V33.04a23.974 23.974 0 0 1 6.15-.523v16.586c.026 7.998.026 16.01.026 24.008Z" fill="#E2EAFA"/><path d="M55.882 84.712c-.014.014-.014.014-.027.014v-.042l.027.028Z" fill="#BEC8F7"/><path d="M75.022 45.056v20.27c-4.81 1.674-9.86 6.162-14.456 12.392a73.95 73.95 0 0 0-4.474 6.86h-.014a.28.28 0 0 0-.08.053.282.282 0 0 0-.08.053V44.52c-.014-.014-.014-.014-.027-.014.04-.026.067-.053.107-.067v-.308c5.667-9.807 12.553-17.148 19.024-19.399v13.96c-.014 2.13-.014 4.247 0 6.364Z" fill="#F4F7FF"/><path d="M85.366 39.884V80.09c-.027-.013-.04-.013-.067-.013-8.266-2.224-17.001-1.26-24.745 2.17a37.128 37.128 0 0 0-4.287 2.224l.013-.027a46.545 46.545 0 0 1 4.274-3.751c6.484-5.037 13.732-7.891 20.618-7.583 0-7.998 0-16.01-.013-24.021V39.013c1.42.215 2.813.496 4.207.871ZM56.28 84.444l-.013.026c-.013 0-.027.013-.027.013l.04-.04Z" fill="#ADBFE6"/><path d="M88.848 45.055h-3.483V80.09c-.013-.013-.053-.013-.067-.013v3.885h-22.48l-2.264-1.072v-.643a40.044 40.044 0 0 0-4.328 2.237h-.013a.9.9 0 0 0-.147.094h-.014a.28.28 0 0 0-.08.054c-.027.013-.054.026-.08.053l-.027.027h-.014l-.027-.027c-.013 0-.013-.013-.013-.013l-.12-.08a42.168 42.168 0 0 0-4.569-2.372v.67l-2.25 1.072H26.403V45.055h-3.55c-.656 0-1.165.443-1.165 1.005v40.942c0 .563.522 1.005 1.165 1.005h26.111c.75 0 1.5-.161 2.144-.483l4.742-2.264 4.743 2.264a5.069 5.069 0 0 0 2.143.483h26.098c.657 0 1.166-.442 1.166-1.005V46.06c.013-.563-.51-1.005-1.153-1.005Z" fill="#6683C2"/><path d="M51.13 82.22v.67l-2.25 1.071H26.4V80.09c8.266-2.237 17-1.286 24.73 2.13Zm34.163-2.144v3.885h-22.48l-2.264-1.072v-.643c7.743-3.43 16.492-4.394 24.744-2.17Z" fill="#5171B5"/><path d="M55.704 84.59c-1.474-.883-3.001-1.674-4.569-2.37-7.73-3.417-16.465-4.368-24.744-2.13V39.883A33.327 33.327 0 0 1 30.678 39c-.014 2.023-.014 4.033-.014 6.056v4.032c0 8.012 0 16.01-.013 24.021 6.832-.308 14.027 2.506 20.47 7.476a45.836 45.836 0 0 1 4.583 4.006Z" fill="#ADBFE6"/><path d="M55.914 44.52v40.164l-.027.027h-.013l-.027-.027c-.014 0-.014-.013-.014-.013l-.12-.08c-1.474-1.448-3.001-2.8-4.569-4.006-6.457-4.97-13.651-7.784-20.484-7.476.014-7.998.014-16.01.014-24.021v-4.033c0-2.023 0-4.032.013-6.055v-6.484c8.547-.389 17.67 4.126 25.16 11.615v.348l.027.027h.013c.013 0 .013 0 .027.013Z" fill="#E2EAFA"/><path d="M51.793 51.42c-.241 0-.483-.081-.697-.242-4.93-3.939-10.249-6.498-15.353-7.395a1.11 1.11 0 0 1 .389-2.184c5.479.951 11.133 3.67 16.358 7.85a1.11 1.11 0 0 1 .174 1.568c-.228.255-.55.402-.871.402Zm0 9.337c-.241 0-.483-.08-.697-.241-4.93-3.939-10.249-6.498-15.353-7.395a1.11 1.11 0 0 1 .389-2.184c5.479.951 11.133 3.67 16.358 7.85a1.11 1.11 0 0 1 .174 1.568c-.228.255-.55.402-.871.402Zm0 10.396c-.241 0-.483-.08-.697-.24-4.93-3.94-10.249-6.499-15.353-7.396a1.11 1.11 0 0 1 .389-2.184c5.479.951 11.133 3.67 16.358 7.85a1.11 1.11 0 0 1 .174 1.568c-.228.255-.55.402-.871.402Z" fill="#F37E60"/><path d="m56.27 84.483-.416.71.416-.71Zm.308-.522-.295.482.295-.482Z" fill="#000"/><path d="M35.645 122.7c-1.05 0-1.87-.261-2.462-.781-.582-.521-.873-1.249-.873-2.184v-3.15h1.787v2.938c0 .556.154.971.463 1.244.317.265.785.397 1.403.397.414 0 .816-.057 1.204-.172a3.496 3.496 0 0 0 1.006-.45l.476 1.099a3.55 3.55 0 0 1-1.31.794 5.258 5.258 0 0 1-1.694.265Zm2.409 3.348v-9.463h1.787v9.463h-1.787Zm5.467 0v-6.062h1.747v6.062h-1.747Zm-2.25-5.254v-1.403h6.247v1.403h-6.247Zm12.786 3.176.927 1.072c-.336.38-.768.68-1.297.9a4.557 4.557 0 0 1-1.734.318c-.768 0-1.443-.15-2.025-.45a3.386 3.386 0 0 1-1.363-1.244c-.327-.53-.49-1.143-.49-1.84 0-.697.154-1.31.463-1.84a3.378 3.378 0 0 1 1.284-1.257c.547-.3 1.16-.45 1.84-.45.661 0 1.248.15 1.76.45.52.291.926.697 1.218 1.218.29.52.436 1.125.436 1.813v.079H53.37v-.185c0-.406-.075-.759-.225-1.059-.141-.3-.34-.534-.596-.701a1.539 1.539 0 0 0-.886-.252c-.362 0-.68.088-.953.265-.274.168-.49.415-.649.741-.15.318-.225.697-.225 1.138 0 .468.093.869.278 1.205.194.326.455.578.781.754.335.168.72.252 1.151.252.795 0 1.465-.309 2.012-.927Zm1.02-.715H49.2v-1.111h5.664l.212.516v.595Zm6.171 2.793v-6.657h1.747v6.657h-1.747Zm-4.711 0v-6.657h1.747v6.657h-1.747Zm.82-2.793v-1.403h4.91v1.403h-4.91Zm7.465 2.793v-6.657h1.667v4.434l-.093-.027 3.336-4.407h1.535v6.657h-1.668v-4.434l.093.027-3.335 4.407h-1.535Zm13.87-2.078.926 1.072c-.335.38-.767.68-1.297.9a4.557 4.557 0 0 1-1.734.318c-.767 0-1.442-.15-2.025-.45a3.387 3.387 0 0 1-1.363-1.244c-.326-.53-.49-1.143-.49-1.84 0-.697.155-1.31.464-1.84a3.377 3.377 0 0 1 1.284-1.257c.547-.3 1.16-.45 1.84-.45.661 0 1.248.15 1.76.45.52.291.926.697 1.217 1.218.291.52.437 1.125.437 1.813v.079h-1.707v-.185c0-.406-.076-.759-.226-1.059-.14-.3-.34-.534-.595-.701a1.539 1.539 0 0 0-.887-.252c-.362 0-.68.088-.953.265-.273.168-.49.415-.648.741-.15.318-.225.697-.225 1.138 0 .468.092.869.278 1.205.194.326.454.578.78.754.336.168.72.252 1.152.252.794 0 1.465-.309 2.012-.927Zm1.019-.715h-5.876v-1.111h5.664l.212.516v.595Z" fill="#003C56"/></svg>