<svg width="292" height="142" viewBox="0 0 292 142" fill="none" xmlns="http://www.w3.org/2000/svg">
<g clip-path="url(#clip0_2002_3400)">
<path d="M185.863 98.1398L167.858 111.485L115.206 150.511L159.073 158.629C159.073 158.629 174.457 139.411 181.234 131.093C189.245 121.261 198.525 110.305 200.881 109.314C205.233 107.486 211.99 106.665 214.711 103.882L185.863 98.1423L185.863 98.1398Z" fill="#FFB098"/>
<path d="M113.88 149.054C113.88 149.054 169.178 107.405 173.394 106.362L189.881 121.813C189.881 121.813 170.355 154.808 162.435 162.037C154.515 169.264 113.609 155.333 113.609 155.333L113.883 149.054L113.88 149.054Z" fill="#6787C3"/>
<path d="M228.402 88.0951C226.958 87.9418 225.625 87.244 224.674 86.144L216.448 76.6081C214.525 74.4526 211.838 73.127 208.956 72.9156L200.859 72.321C199.607 72.2302 198.375 72.6859 197.487 73.5733L194.297 76.7603L192.065 76.8287C190.354 76.7892 188.924 77.3584 188.379 78.808C187.847 80.2277 188.327 82.0407 189.615 82.7507C188.355 82.7463 187.25 83.6641 187.023 84.7862C186.43 87.7009 188.787 88.8183 188.787 88.8183C187.523 88.6474 186.557 89.1684 186.221 90.0677C186.014 90.6207 185.758 91.6204 186.628 92.6276C186.203 92.6045 185.825 92.7715 185.445 93.0459C184.827 93.4898 184.694 95.0025 184.645 95.9584C184.645 95.9584 184.188 98.6629 186.457 99.6844L199.073 105.002C199.073 105.002 205.122 107.531 214.894 105.282C215.562 105.128 216.25 105.088 216.929 105.173L296.63 111.539L287.754 78.7117L228.403 88.0875L228.402 88.0951Z" fill="#FFBEAC"/>
<path d="M238.739 86.4627L292.459 76.277C292.459 76.277 302.705 90.3419 300.37 116.546C300.37 116.546 242.011 110.113 237.863 106.908L240.265 95.0037L238.739 86.4627Z" fill="#F37E60"/>
<path d="M230.875 84.1752C230.304 83.722 229.739 83.5428 229.257 83.5002C228.957 83.4733 228.66 83.5107 228.38 83.5978C228.403 83.3231 228.397 83.0439 228.359 82.7647C228.267 82.121 228.008 81.4243 227.448 80.7543C226.441 79.5529 225.095 79.8392 224.109 80.3254C224.275 79.7158 224.502 78.2508 223.369 77.0174C221.894 75.4137 220.303 75.6668 218.867 76.2177C218.867 76.2177 220.591 73.9965 218.355 72.3044L211.313 76.7729C211.313 76.7729 208.297 78.5474 208.63 80.7642C208.963 82.9784 210.859 83.9218 211.362 83.9659C211.362 83.9659 208.805 86.2854 211.107 88.7958C212.621 90.4458 214.42 89.5861 215.588 88.6729C215.554 89.5301 215.738 90.5541 216.568 91.3511C218.311 93.0253 220.221 92.1199 221.475 91.3614C222.165 90.9432 224.253 89.0272 225.868 87.4506C225.982 87.8963 226.212 88.3172 226.571 88.6605C227.417 89.4766 228.709 89.6112 229.705 88.9875L230.7 88.3534C231.281 87.7201 231.791 87.1379 231.876 86.4967C231.979 85.7034 231.654 84.792 230.883 84.1783L230.875 84.1752Z" fill="#FFB098"/>
<path d="M216.689 75.3084C214.651 76.6062 211.812 77.1015 209.546 77.2775L196.06 76.8756C197.403 75.9496 200.442 73.7879 202.957 71.931C205.343 70.1672 207.12 69.5745 207.925 69.3795C208.211 69.3107 208.507 69.3194 208.791 69.3936C213.099 70.5298 215.803 70.4878 216.886 70.3668C217.355 70.3138 217.826 70.5168 218.084 70.9116C218.715 71.8733 219.147 73.7442 216.694 75.3087L216.689 75.3084Z" fill="#FFB098"/>
<path d="M208.912 106.357C208.899 106.362 208.884 106.366 208.868 106.367C208.631 106.393 203.003 106.978 198.99 105.193C195.028 103.432 191.495 102.032 191.46 102.02C191.356 101.979 191.306 101.86 191.347 101.756C191.387 101.651 191.506 101.601 191.611 101.642C191.645 101.654 195.186 103.057 199.155 104.821C203.072 106.561 208.769 105.968 208.826 105.962C208.937 105.95 209.038 106.031 209.048 106.142C209.059 106.238 209.002 106.326 208.913 106.355L208.912 106.357Z" fill="#DB9885"/>
<path d="M189.164 82.5795L195.268 84.9536" stroke="#DB9885" stroke-width="1.5" stroke-linecap="round" stroke-linejoin="round"/>
<path d="M188.695 89.0061L195.381 91.755" stroke="#DB9885" stroke-width="1.5" stroke-linecap="round" stroke-linejoin="round"/>
<path d="M186.387 92.9325L193.578 96.68" stroke="#DB9885" stroke-width="1.5" stroke-linecap="round" stroke-linejoin="round"/>
<path d="M238.739 86.4625C238.739 86.4625 240.317 95.9616 237.665 107.313C237.665 107.313 242.412 108.579 243.56 108.657C243.56 108.657 248.015 95.2096 244.877 85.1881C244.877 85.1881 242.147 85.5275 238.739 86.4625Z" fill="#D86344"/>
<path d="M174.846 101.964C174.846 101.964 189.79 109.984 194.672 121.316C194.672 121.316 192.699 125.29 190.748 127.461C190.748 127.461 177.229 112.901 167.62 108.013C167.62 108.013 170.607 103.678 174.846 101.964Z" fill="#81A3E3"/>
<path d="M195.854 76.853C195.854 76.853 207.825 77.9484 212.066 76.9101C216.308 75.8691 218.647 73.2295 218.647 73.2295" stroke="#DB9885" stroke-width="1.5" stroke-linecap="round" stroke-linejoin="round"/>
<path d="M218.092 77.6205C218.092 77.6205 212.696 85.514 210.005 83.6866C207.315 81.8566 208.6 78.8668 210.359 77.4668" stroke="#DB9885" stroke-width="1.5" stroke-linecap="round" stroke-linejoin="round"/>
<path d="M222.895 81.6631C222.895 81.6631 218.42 87.2054 214.802 89.3789C211.187 91.5526 207.854 87.0459 211.354 83.9607" stroke="#DB9885" stroke-width="1.5" stroke-linecap="round" stroke-linejoin="round"/>
<path d="M227.013 84.9345C227.013 84.9345 223.4 92.059 219.145 92.3289C214.891 92.5987 215.618 88.8443 215.618 88.8443" stroke="#DB9885" stroke-width="1.5" stroke-linecap="round" stroke-linejoin="round"/>
<path d="M230.826 88.1992C230.826 88.1992 226.771 91.4719 225.766 87.0265" stroke="#DB9885" stroke-width="1.5" stroke-linecap="round" stroke-linejoin="round"/>
</g>
<defs>
<clipPath id="clip0_2002_3400">
<rect width="292" height="142" rx="10" fill="white"/>
</clipPath>
</defs>
</svg>
