<svg width="373" height="278" viewBox="0 0 373 278" fill="none" xmlns="http://www.w3.org/2000/svg">
<rect width="373" height="278" fill="white"/>
<circle cx="265.741" cy="163.884" r="62.8659" transform="rotate(-133.732 265.741 163.884)" fill="#F4F7FE"/>
<circle cx="191.756" cy="113.036" r="18.9208" transform="rotate(-133.732 191.756 113.036)" fill="#F4F7FE"/>
<g clip-path="url(#clip0_2001_1394)">
<path d="M44.8165 52.567C44.0945 52.3761 43.4264 52.0056 42.8599 51.4679C41.6177 50.2906 41.1213 48.5135 41.567 46.827L51.4347 9.49049C51.8804 7.80393 53.1885 6.50173 54.8522 6.09242C56.4359 5.70372 58.0551 6.17129 59.1918 7.33737L85.1722 34.177C86.3265 35.3728 86.7585 37.0556 86.3277 38.6856C85.8969 40.3156 84.6899 41.5653 83.0955 42.0346L47.2469 52.5334C46.4335 52.769 45.5971 52.7774 44.8174 52.5714L44.8165 52.567ZM56.3252 9.03706C56.0468 8.96346 55.7988 9.00013 55.6315 9.03727C55.0456 9.1849 54.5936 9.64741 54.4266 10.2791L44.559 47.6156C44.392 48.2474 44.5545 48.8723 44.9929 49.2906C45.21 49.4919 45.6557 49.8183 46.3383 49.6107L82.1869 39.1119C82.746 38.953 83.1741 38.4925 83.3328 37.892C83.4915 37.2914 83.3448 36.679 82.9393 36.2652L56.9588 9.42561C56.7504 9.20782 56.5296 9.09315 56.3247 9.03901L56.3252 9.03706Z" fill="#F37E60"/>
<path d="M51.3171 73.8163C27.9812 67.6488 14.0177 43.6502 20.1847 20.3163C26.3516 -3.01772 50.3507 -16.9832 73.6846 -10.8163C97.0186 -4.64933 110.984 19.3498 104.817 42.6838C98.6502 66.0177 74.6511 79.9832 51.3171 73.8163ZM72.9246 -7.94061C51.1776 -13.6881 28.8102 -0.672158 23.0627 21.0749C17.3152 42.8219 30.3311 65.1893 52.0782 70.9368C73.8252 76.6843 96.1926 63.6684 101.94 41.9213C107.688 20.1743 94.6717 -2.1931 72.9246 -7.94061Z" fill="#F37E60"/>
</g>
<g filter="url(#filter0_d_2001_1394)">
<rect x="169.281" y="78.1074" width="147" height="35" rx="17.5" transform="rotate(15 169.281 78.1074)" fill="#DEE4F2" shape-rendering="crispEdges"/>
<path d="M184.532 106.27C183.688 106.044 182.948 105.691 182.315 105.212C181.681 104.733 181.171 104.166 180.783 103.51C180.398 102.844 180.156 102.122 180.055 101.344C179.957 100.555 180.018 99.7492 180.239 98.9249C180.46 98.1006 180.809 97.3769 181.285 96.7535C181.761 96.1302 182.331 95.6314 182.994 95.257C183.661 94.8724 184.388 94.631 185.176 94.533C185.964 94.435 186.781 94.4992 187.626 94.7256C188.471 94.952 189.21 95.3047 189.844 95.7836C190.477 96.2626 190.986 96.8352 191.371 97.5015C191.758 98.1575 192.003 98.8744 192.103 99.6523C192.204 100.43 192.144 101.231 191.923 102.056C191.702 102.88 191.352 103.609 190.873 104.242C190.397 104.866 189.826 105.37 189.16 105.754C188.496 106.129 187.77 106.365 186.982 106.463C186.194 106.561 185.377 106.497 184.532 106.27ZM184.955 104.694C185.738 104.904 186.477 104.908 187.171 104.708C187.865 104.507 188.466 104.139 188.975 103.601C189.486 103.053 189.85 102.373 190.069 101.559C190.287 100.745 190.31 99.9779 190.138 99.2583C189.967 98.5387 189.63 97.9185 189.129 97.3978C188.629 96.8771 187.986 96.5118 187.203 96.302C186.431 96.0949 185.692 96.0903 184.988 96.288C184.293 96.4885 183.692 96.8574 183.184 97.3948C182.675 97.9322 182.312 98.6079 182.094 99.4218C181.876 100.236 181.851 101.008 182.02 101.738C182.192 102.457 182.528 103.077 183.029 103.598C183.54 104.122 184.182 104.487 184.955 104.694ZM195.944 109.328C194.625 108.975 193.735 108.234 193.276 107.106C192.816 105.978 192.821 104.538 193.29 102.786C193.751 101.066 194.397 99.8527 195.226 99.1473C196.056 98.442 197.143 98.1757 198.488 98.3484L202.005 98.7607L201.836 100.256L198.361 99.8715C197.76 99.8096 197.248 99.8657 196.826 100.04C196.414 100.217 196.059 100.552 195.761 101.046C195.465 101.53 195.18 102.205 194.904 103.07L194.517 103.463C194.761 102.965 195.087 102.572 195.495 102.284C195.907 101.986 196.37 101.801 196.886 101.729C197.405 101.647 197.927 101.677 198.453 101.817C199.195 102.016 199.78 102.344 200.21 102.802C200.653 103.252 200.939 103.792 201.068 104.423C201.199 105.044 201.17 105.709 200.98 106.42C200.767 107.214 200.416 107.865 199.926 108.374C199.436 108.883 198.848 109.223 198.162 109.392C197.487 109.565 196.747 109.543 195.944 109.328ZM196.275 107.843C196.976 108.031 197.58 107.961 198.087 107.633C198.605 107.308 198.965 106.769 199.166 106.017C199.362 105.286 199.329 104.669 199.065 104.168C198.805 103.657 198.335 103.31 197.655 103.128C197.253 103.02 196.862 103.015 196.483 103.112C196.106 103.199 195.757 103.37 195.434 103.626C195.122 103.884 194.865 104.224 194.664 104.645L194.958 103.796C194.622 104.965 194.559 105.881 194.768 106.545C194.979 107.198 195.482 107.631 196.275 107.843ZM202.345 110.778L204.32 103.406L204.873 104.681L202.462 104.035L202.835 102.644L206.08 103.513L204.088 110.947L203.305 109.544L206.38 110.369C206.823 110.487 207.191 110.475 207.483 110.333C207.775 110.19 207.972 109.928 208.074 109.547C208.174 109.176 208.131 108.861 207.947 108.602C207.765 108.332 207.453 108.138 207.01 108.019L204.212 107.27L204.585 105.879L207.521 106.666C208.428 106.909 209.091 107.34 209.51 107.961C209.942 108.573 210.059 109.251 209.86 109.992C209.722 110.508 209.472 110.926 209.109 111.249C208.747 111.571 208.308 111.785 207.794 111.89C207.283 111.985 206.734 111.954 206.146 111.797L202.345 110.778ZM215.493 114.301L217.498 106.821L218.316 108.217L215.241 107.393C214.849 107.288 214.496 107.287 214.181 107.39C213.877 107.496 213.671 107.75 213.563 108.152C213.467 108.513 213.511 108.823 213.695 109.082C213.89 109.344 214.209 109.534 214.652 109.653L217.31 110.365L216.971 111.633L214.127 110.871C213.23 110.63 212.572 110.222 212.153 109.646C211.746 109.062 211.642 108.399 211.841 107.657C211.965 107.194 212.204 106.816 212.558 106.525C212.915 106.223 213.343 106.028 213.841 105.941C214.352 105.846 214.891 105.874 215.458 106.026L219.183 107.024L217.116 114.736L215.493 114.301ZM210.053 112.844L213.631 110.125L215.424 110.605L211.985 113.361L210.053 112.844ZM225.885 114.551L226.708 115.931C226.2 116.303 225.63 116.554 224.999 116.683C224.371 116.801 223.696 116.764 222.975 116.571C222.182 116.358 221.518 115.993 220.983 115.474C220.462 114.948 220.102 114.332 219.904 113.628C219.709 112.913 219.719 112.154 219.935 111.35C220.147 110.557 220.515 109.905 221.039 109.393C221.565 108.872 222.189 108.52 222.912 108.338C223.647 108.149 224.417 108.162 225.22 108.377C225.921 108.565 226.508 108.866 226.983 109.28C227.467 109.697 227.835 110.198 228.087 110.785L226.684 111.569C226.551 111.158 226.337 110.802 226.042 110.502C225.76 110.195 225.377 109.976 224.893 109.846C224.419 109.719 223.966 109.719 223.535 109.847C223.103 109.974 222.73 110.211 222.416 110.558C222.105 110.894 221.881 111.32 221.743 111.835C221.605 112.35 221.585 112.836 221.683 113.293C221.782 113.75 221.986 114.142 222.296 114.468C222.607 114.794 222.999 115.02 223.473 115.147C223.957 115.277 224.398 115.279 224.796 115.154C225.204 115.031 225.567 114.831 225.885 114.551ZM233.637 119.163L235.703 111.451L237.434 111.915L235.368 119.627L233.637 119.163ZM228.012 117.655L230.078 109.944L231.809 110.407L229.742 118.119L228.012 117.655ZM229.725 114.537L230.106 113.115L235.902 114.668L235.521 116.09L229.725 114.537ZM237.625 120.232L239.692 112.52L241.361 112.967L239.891 118.453L239.78 118.374L245.503 114.077L247.017 114.482L244.951 122.194L243.282 121.747L244.752 116.261L244.848 116.336L239.14 120.637L237.625 120.232ZM247.209 122.8L249.276 115.088L251.099 115.576L252.532 121.791L252.258 121.701L256.555 117.038L258.456 117.547L256.389 125.259L254.798 124.833L256.711 117.693L257.303 118.265L252.547 123.402L251.357 123.083L249.807 116.257L250.636 116.131L248.739 123.209L247.209 122.8ZM261.668 126.674L263.734 118.962L267.675 120.018C268.51 120.241 269.12 120.604 269.505 121.104C269.889 121.605 269.998 122.169 269.829 122.798C269.724 123.189 269.513 123.503 269.196 123.738C268.892 123.966 268.524 124.105 268.091 124.154L268.113 124.011C268.571 124.277 268.911 124.617 269.132 125.029C269.355 125.432 269.405 125.865 269.281 126.328C269.162 126.771 268.923 127.127 268.564 127.395C268.218 127.656 267.799 127.82 267.306 127.886C266.814 127.953 266.294 127.913 265.748 127.767L261.668 126.674ZM263.376 126.668L262.711 125.562L265.88 126.411C266.343 126.535 266.717 126.541 267.001 126.43C267.295 126.321 267.488 126.096 267.579 125.756C267.67 125.416 267.615 125.126 267.415 124.884C267.225 124.646 266.898 124.464 266.434 124.34L263.436 123.536L263.763 122.316L266.638 123.086C267.071 123.202 267.397 123.201 267.616 123.083C267.846 122.968 268.001 122.761 268.081 122.462C268.161 122.163 268.127 121.917 267.98 121.723C267.844 121.532 267.559 121.378 267.127 121.262L264.036 120.434L265.219 119.79L263.376 126.668ZM276.777 128.188L277.6 129.568C277.092 129.94 276.522 130.19 275.891 130.319C275.263 130.438 274.589 130.401 273.867 130.208C273.074 129.995 272.41 129.629 271.875 129.111C271.354 128.584 270.994 127.969 270.796 127.264C270.601 126.55 270.612 125.79 270.827 124.987C271.04 124.193 271.408 123.541 271.931 123.03C272.457 122.508 273.082 122.157 273.804 121.975C274.539 121.785 275.309 121.798 276.113 122.013C276.813 122.201 277.401 122.502 277.875 122.916C278.36 123.333 278.728 123.835 278.979 124.421L277.576 125.205C277.444 124.794 277.23 124.439 276.935 124.139C276.653 123.831 276.269 123.613 275.785 123.483C275.311 123.356 274.858 123.356 274.427 123.483C273.995 123.61 273.622 123.847 273.309 124.194C272.998 124.53 272.773 124.956 272.635 125.471C272.497 125.986 272.477 126.473 272.576 126.93C272.674 127.387 272.878 127.778 273.189 128.104C273.499 128.43 273.891 128.657 274.365 128.784C274.849 128.914 275.29 128.916 275.688 128.791C276.096 128.668 276.459 128.467 276.777 128.188ZM285.672 130.604L286.371 131.951C285.845 132.307 285.247 132.539 284.578 132.647C283.909 132.755 283.208 132.71 282.477 132.514C281.611 132.282 280.89 131.902 280.315 131.372C279.749 130.845 279.359 130.221 279.143 129.501C278.938 128.783 278.941 128.028 279.154 127.235C279.369 126.431 279.74 125.768 280.266 125.247C280.793 124.725 281.417 124.373 282.139 124.191C282.862 124.01 283.614 124.024 284.397 124.233C285.16 124.438 285.788 124.794 286.281 125.301C286.777 125.799 287.114 126.397 287.291 127.096C287.471 127.785 287.455 128.526 287.242 129.319L287.217 129.412L285.502 128.952L285.547 128.782C285.685 128.267 285.707 127.792 285.614 127.359C285.533 126.917 285.356 126.55 285.081 126.255C284.81 125.951 284.452 125.739 284.009 125.62C283.546 125.496 283.103 125.499 282.682 125.629C282.273 125.751 281.918 125.987 281.614 126.337C281.313 126.676 281.089 127.123 280.939 127.68C280.79 128.236 280.774 128.751 280.89 129.224C281.017 129.699 281.251 130.104 281.592 130.439C281.946 130.765 282.391 131.001 282.927 131.144C283.905 131.406 284.82 131.226 285.672 130.604ZM287.076 129.937L280.214 128.098L280.529 126.924L287.144 128.696L287.238 129.334L287.076 129.937ZM286.435 123.305C286.136 123.225 285.91 123.06 285.756 122.809C285.606 122.547 285.569 122.272 285.646 121.984C285.726 121.685 285.895 121.465 286.154 121.325C286.415 121.174 286.695 121.139 286.994 121.219C287.303 121.302 287.528 121.472 287.669 121.731C287.822 121.982 287.859 122.257 287.779 122.555C287.702 122.844 287.532 123.064 287.271 123.214C287.023 123.358 286.744 123.388 286.435 123.305ZM283.097 122.411C282.798 122.331 282.572 122.165 282.418 121.914C282.267 121.653 282.231 121.378 282.308 121.089C282.388 120.791 282.557 120.571 282.816 120.43C283.077 120.28 283.357 120.244 283.656 120.324C283.955 120.404 284.179 120.575 284.33 120.836C284.484 121.087 284.521 121.362 284.441 121.661C284.363 121.949 284.194 122.169 283.933 122.32C283.674 122.46 283.396 122.491 283.097 122.411ZM290.163 133.282C290.08 133.591 289.896 133.823 289.611 133.979C289.337 134.137 289.045 134.175 288.736 134.092C288.417 134.007 288.173 133.825 288.004 133.548C287.846 133.274 287.808 132.982 287.891 132.673C287.974 132.364 288.152 132.13 288.427 131.972C288.711 131.816 289.013 131.781 289.333 131.867C289.642 131.95 289.875 132.128 290.034 132.403C290.202 132.68 290.245 132.973 290.163 133.282ZM290.124 130.704L289.228 130.464C289.252 130.294 289.299 130.014 289.37 129.624C289.444 129.224 289.528 128.766 289.622 128.251C289.716 127.735 289.815 127.203 289.917 126.657C290.019 126.11 290.113 125.594 290.199 125.109C290.295 124.627 290.369 124.227 290.421 123.909C290.486 123.584 290.527 123.391 290.543 123.329C290.618 123.051 290.777 122.851 291.019 122.728C291.265 122.595 291.527 122.566 291.805 122.64C292.083 122.715 292.29 122.87 292.426 123.105C292.575 123.332 292.612 123.585 292.537 123.863C292.521 123.925 292.459 124.113 292.353 124.427C292.25 124.731 292.114 125.114 291.946 125.577C291.788 126.042 291.616 126.538 291.432 127.062C291.247 127.587 291.066 128.096 290.89 128.59C290.713 129.084 290.557 129.522 290.421 129.906C290.288 130.279 290.189 130.545 290.124 130.704Z" fill="#6683C2"/>
</g>
<g filter="url(#filter1_d_2001_1394)">
<rect x="126.945" y="15" width="186" height="35" rx="17.5" transform="rotate(15 126.945 15)" fill="#DEE4F2" shape-rendering="crispEdges"/>
<path d="M137.131 40.7124L137.334 39.9551L137.844 40.0917C138.132 40.169 138.415 40.0406 138.693 39.7063C138.973 39.3617 139.277 38.7808 139.607 37.9635L142.342 31.0934L149.467 33.0024L146.754 43.1253L144.993 42.6532L147.622 32.8394L148.269 34.3212L142.272 32.7145L143.944 31.8538L141.222 38.6117C140.973 39.2517 140.697 39.7684 140.393 40.1618C140.091 40.5448 139.74 40.8041 139.339 40.9397C138.949 41.078 138.486 41.0754 137.95 40.9319L137.131 40.7124ZM135.662 44.0293L136.793 39.8102L148.168 42.858L147.037 47.0772L145.353 46.6258L146.347 42.9166L147.217 44.2431L137.403 41.6135L138.312 40.8797L137.347 44.4807L135.662 44.0293ZM152.87 46.0229C152.056 45.8048 151.377 45.4351 150.832 44.9136C150.297 44.3949 149.932 43.7781 149.737 43.0633C149.543 42.3485 149.553 41.5892 149.768 40.7856C149.981 39.9922 150.35 39.3348 150.876 38.8132C151.403 38.2916 152.027 37.9399 152.749 37.758C153.482 37.5789 154.255 37.5983 155.069 37.8164C155.893 38.0373 156.573 38.4071 157.107 38.9258C157.652 39.4473 158.017 40.064 158.202 40.7761C158.397 41.4909 158.388 42.245 158.175 43.0383C157.96 43.842 157.589 44.5046 157.063 45.0262C156.547 45.5505 155.923 45.9022 155.19 46.0814C154.468 46.2633 153.694 46.2438 152.87 46.0229ZM153.259 44.5702C153.744 44.6999 154.197 44.6998 154.618 44.5697C155.039 44.4397 155.4 44.2051 155.701 43.8661C156.015 43.5195 156.242 43.0834 156.383 42.558C156.521 42.0428 156.539 41.5619 156.438 41.1151C156.35 40.6608 156.156 40.2721 155.856 39.9488C155.556 39.6255 155.164 39.3989 154.68 39.2692C154.206 39.1422 153.758 39.1437 153.337 39.2738C152.916 39.4038 152.548 39.6421 152.234 39.9887C151.934 40.3278 151.714 40.7549 151.576 41.2701C151.435 41.7955 151.409 42.2854 151.497 42.7397C151.598 43.1864 151.799 43.5715 152.099 43.8947C152.399 44.218 152.786 44.4432 153.259 44.5702ZM165.423 46.587L166.246 47.967C165.737 48.3388 165.168 48.5893 164.537 48.7184C163.909 48.8372 163.234 48.7999 162.513 48.6067C161.72 48.3941 161.056 48.0285 160.521 47.5098C159.999 46.9835 159.64 46.3681 159.442 45.6636C159.247 44.9488 159.257 44.1895 159.473 43.3859C159.685 42.5926 160.053 41.9402 160.577 41.429C161.103 40.9074 161.727 40.5557 162.45 40.3738C163.185 40.1843 163.955 40.1973 164.758 40.4126C165.459 40.6003 166.046 40.9013 166.521 41.3155C167.005 41.7325 167.373 42.2342 167.625 42.8206L166.222 43.6042C166.089 43.1932 165.875 42.8377 165.58 42.5378C165.298 42.2303 164.915 42.0117 164.431 41.8819C163.957 41.7549 163.504 41.7551 163.072 41.8824C162.641 42.0096 162.268 42.2466 161.954 42.5932C161.643 42.9295 161.419 43.3552 161.281 43.8704C161.143 44.3856 161.123 44.8717 161.221 45.3287C161.32 45.7857 161.524 46.1773 161.834 46.5034C162.144 46.8294 162.536 47.0559 163.01 47.1829C163.495 47.3127 163.936 47.3149 164.334 47.1897C164.742 47.0672 165.105 46.8663 165.423 46.587ZM169.481 50.2088L171.394 43.0687L173.125 43.5325L171.212 50.6726L169.481 50.2088ZM168.466 43.1786L168.843 41.7722L175.968 43.6812L175.591 45.0876L168.466 43.1786ZM183.136 45.602L184.883 46.07L178.775 53.842C178.349 54.4015 177.886 54.7908 177.385 55.0101C176.885 55.2294 176.279 55.2438 175.568 55.0533L174.641 54.8048L175.026 53.3675L175.876 53.5953C176.195 53.6809 176.479 53.674 176.726 53.5747C176.981 53.4884 177.211 53.3124 177.414 53.0468L177.851 52.4681L176.599 43.8503L178.407 44.3348L179.256 51.8009L178.653 51.6393L183.136 45.602ZM184.227 54.1598L186.293 46.4479L193.418 48.3569L191.351 56.0689L189.62 55.6051L191.612 48.1713L192.546 49.6308L186.318 47.9619L187.949 47.1899L185.958 54.6236L184.227 54.1598ZM199.24 58.1826L201.306 50.4707L203.037 50.9345L200.971 58.6464L199.24 58.1826ZM193.614 56.6752L195.681 48.9633L197.412 49.4271L195.345 57.139L193.614 56.6752ZM195.328 53.5565L195.709 52.1346L201.504 53.6876L201.123 55.1094L195.328 53.5565ZM203.228 59.2513L205.295 51.5393L206.964 51.9866L204.959 59.4667L204.069 57.9691L207.237 58.8181C207.68 58.9368 208.048 58.9249 208.34 58.7823C208.635 58.6294 208.832 58.3675 208.931 57.9966C209.031 57.6257 208.99 57.3055 208.808 57.0359C208.626 56.7663 208.314 56.5722 207.871 56.4535L205.104 55.7122L205.481 54.3058L208.371 55.0802C209.288 55.3259 209.956 55.7589 210.375 56.3792C210.794 56.9995 210.904 57.6805 210.706 58.4223C210.565 58.9478 210.312 59.3769 209.947 59.7097C209.594 60.035 209.161 60.2502 208.647 60.3554C208.136 60.4503 207.581 60.4177 206.984 60.2576L203.228 59.2513ZM210.909 61.3094L212.976 53.5975L214.707 54.0613L212.64 61.7732L210.909 61.3094ZM214.895 62.3773L216.961 54.6654L218.785 55.154L220.217 61.3685L219.943 61.2785L224.24 56.6159L226.141 57.1252L224.075 64.8372L222.483 64.4106L224.396 57.2705L224.988 57.8432L220.233 62.9795L219.043 62.6606L217.493 55.8348L218.321 55.709L216.425 62.7873L214.895 62.3773ZM234.237 67.5601L236.242 60.08L237.06 61.4755L233.985 60.6514C233.593 60.5465 233.24 60.5457 232.925 60.6491C232.621 60.7552 232.415 61.0092 232.307 61.411C232.21 61.7716 232.254 62.0816 232.439 62.3408C232.634 62.6028 232.953 62.7932 233.396 62.9119L236.054 63.6242L235.714 64.8915L232.871 64.1295C231.974 63.8893 231.316 63.4811 230.896 62.9048C230.49 62.321 230.386 61.6581 230.584 60.9163C230.709 60.4527 230.948 60.075 231.302 59.7834C231.659 59.4816 232.087 59.2869 232.585 59.1996C233.096 59.1047 233.635 59.1332 234.202 59.285L237.926 60.283L235.86 67.995L234.237 67.5601ZM228.797 66.1025L232.375 63.3838L234.167 63.8641L230.729 66.6201L228.797 66.1025ZM240.622 69.5358C239.972 69.3619 239.364 69.0774 238.796 68.6823C238.229 68.2873 237.794 67.8065 237.493 67.2399L238.718 66.4416C239.208 67.2908 239.953 67.8492 240.952 68.117C241.55 68.2771 242.046 68.2997 242.441 68.1848C242.839 68.0595 243.088 67.8114 243.187 67.4405C243.364 66.7811 242.875 66.2968 241.721 65.9876L240.176 65.5735L240.503 64.3525L242.064 64.7708C242.548 64.9006 242.94 64.9227 243.239 64.8371C243.541 64.7413 243.734 64.5337 243.82 64.2143C243.905 63.8949 243.819 63.6011 243.559 63.3328C243.31 63.0673 242.923 62.8641 242.397 62.7233C241.501 62.4831 240.644 62.6123 239.825 63.1108L239.172 61.7764C240.275 61.1222 241.491 60.9732 242.82 61.3293C243.47 61.5033 244.015 61.7544 244.457 62.0826C244.912 62.4034 245.239 62.7724 245.436 63.1897C245.636 63.5967 245.677 64.0217 245.558 64.4648C245.448 64.8769 245.229 65.1992 244.902 65.4318C244.574 65.6643 244.166 65.7868 243.677 65.7993L243.71 65.6756C244.199 65.9504 244.544 66.2912 244.744 66.6982C244.947 67.0949 244.985 67.5303 244.858 68.0042C244.731 68.4782 244.462 68.8643 244.051 69.1627C243.643 69.4508 243.141 69.6313 242.548 69.7041C241.954 69.7769 241.312 69.7208 240.622 69.5358ZM245.865 70.6757L247.931 62.9638L249.6 63.411L247.596 70.8912L246.705 69.3936L249.874 70.2425C250.317 70.3612 250.684 70.3493 250.976 70.2067C251.271 70.0539 251.469 69.792 251.568 69.421C251.667 69.0501 251.626 68.7299 251.444 68.4603C251.263 68.1908 250.95 67.9966 250.507 67.8779L247.741 67.1367L248.118 65.7303L251.008 66.5047C251.925 66.7504 252.593 67.1834 253.012 67.8036C253.431 68.4239 253.541 69.1049 253.342 69.8468C253.201 70.3722 252.948 70.8014 252.583 71.1342C252.231 71.4594 251.798 71.6747 251.284 71.7799C250.772 71.8748 250.218 71.8421 249.62 71.682L245.865 70.6757ZM253.546 72.7339L255.612 65.0219L257.343 65.4857L255.277 73.1977L253.546 72.7339ZM262.771 75.2056L259.887 70.1427L260.057 70.1882L264.605 67.4315L266.738 68.003L261.578 71.1259L261.667 69.9902L265.027 75.8102L262.771 75.2056ZM257.531 73.8018L259.598 66.0898L261.329 66.5536L259.262 74.2656L257.531 73.8018ZM269.385 77.243C268.571 77.0249 267.892 76.6551 267.347 76.1336C266.812 75.6149 266.447 74.9981 266.252 74.2833C266.057 73.5685 266.068 72.8093 266.283 72.0056C266.495 71.2123 266.865 70.5548 267.391 70.0333C267.917 69.5117 268.542 69.1599 269.264 68.978C269.997 68.7989 270.77 68.8184 271.584 69.0365C272.408 69.2573 273.088 69.6271 273.622 70.1458C274.167 70.6673 274.532 71.2841 274.717 71.9961C274.912 72.711 274.903 73.465 274.69 74.2584C274.475 75.062 274.104 75.7246 273.578 76.2462C273.062 76.7705 272.438 77.1223 271.705 77.3014C270.983 77.4833 270.209 77.4638 269.385 77.243ZM269.774 75.7902C270.259 75.92 270.711 75.9198 271.133 75.7898C271.554 75.6598 271.915 75.4252 272.216 75.0861C272.529 74.7395 272.757 74.3035 272.898 73.778C273.036 73.2629 273.054 72.7819 272.953 72.3352C272.865 71.8809 272.671 71.4921 272.371 71.1688C272.071 70.8455 271.679 70.619 271.195 70.4892C270.721 70.3622 270.273 70.3638 269.852 70.4938C269.43 70.6239 269.063 70.8622 268.749 71.2088C268.448 71.5479 268.229 71.975 268.091 72.4901C267.95 73.0156 267.924 73.5055 268.012 73.9597C268.113 74.4065 268.314 74.7915 268.614 75.1148C268.913 75.4381 269.3 75.6632 269.774 75.7902ZM275.431 78.598L277.498 70.8861L279.321 71.3747L280.754 77.5892L280.48 77.4992L284.777 72.8365L286.678 73.3459L284.611 81.0578L283.02 80.6313L284.933 73.4912L285.525 74.0639L280.769 79.2001L279.579 78.8813L278.029 72.0555L278.858 71.9297L276.961 79.008L275.431 78.598Z" fill="#6683C2"/>
</g>
<g filter="url(#filter2_d_2001_1394)">
<rect x="101.062" y="111.593" width="162" height="35" rx="17.5" transform="rotate(15 101.062 111.593)" fill="#DEE4F2" shape-rendering="crispEdges"/>
<path d="M111.11 138.096L114.071 127.046L118.506 128.235C119.228 128.428 119.823 128.72 120.292 129.111C120.775 129.494 121.103 129.941 121.275 130.451C121.458 130.964 121.472 131.508 121.317 132.085C121.171 132.631 120.892 133.076 120.48 133.418C120.081 133.753 119.577 133.966 118.967 134.056C118.371 134.139 117.712 134.084 116.991 133.891L114.487 133.22L114.694 132.447L117.414 133.176C118.187 133.383 118.829 133.688 119.339 134.09C119.85 134.492 120.204 134.962 120.402 135.501C120.603 136.03 120.622 136.598 120.459 137.206C120.291 137.834 119.982 138.348 119.533 138.746C119.086 139.135 118.539 139.386 117.89 139.499C117.244 139.602 116.534 139.55 115.762 139.343L111.11 138.096ZM113.289 137.073L116.163 137.844C116.802 138.015 117.342 137.999 117.783 137.797C118.226 137.585 118.521 137.205 118.667 136.659C118.811 136.124 118.742 135.658 118.462 135.263C118.181 134.867 117.722 134.584 117.083 134.413L114.054 133.601L114.451 132.117L117.187 132.85C117.764 133.005 118.254 132.987 118.659 132.797C119.076 132.6 119.351 132.254 119.483 131.76C119.613 131.275 119.544 130.854 119.276 130.495C119.02 130.128 118.604 129.868 118.027 129.713L115.446 129.021L113.289 137.073ZM124.461 141.674L126.527 133.962L133.652 135.871L131.586 143.583L129.855 143.119L131.847 135.685L132.781 137.145L126.552 135.476L128.184 134.704L126.192 142.138L124.461 141.674ZM134.761 147.647L133.03 147.183L135.9 136.473L137.615 136.933L136.977 139.313L136.606 139.213C136.817 138.718 137.118 138.312 137.512 137.998C137.905 137.684 138.359 137.474 138.873 137.369C139.387 137.264 139.922 137.286 140.479 137.435C141.2 137.628 141.802 137.977 142.285 138.482C142.779 138.99 143.112 139.598 143.287 140.308C143.461 141.017 143.442 141.768 143.229 142.562C143.014 143.365 142.648 144.029 142.133 144.554C141.627 145.081 141.033 145.441 140.352 145.634C139.671 145.827 138.96 145.824 138.218 145.625C137.538 145.443 136.988 145.146 136.568 144.736C136.151 144.315 135.878 143.827 135.75 143.274C135.635 142.713 135.68 142.134 135.884 141.538L136.314 141.355C136.258 141.77 136.302 142.163 136.446 142.533C136.59 142.903 136.818 143.224 137.132 143.495C137.446 143.767 137.814 143.96 138.236 144.073C138.741 144.208 139.204 144.211 139.626 144.081C140.057 143.953 140.43 143.716 140.744 143.37C141.057 143.023 141.283 142.592 141.421 142.077C141.557 141.572 141.58 141.093 141.492 140.638C141.404 140.184 141.21 139.795 140.91 139.472C140.621 139.152 140.234 138.926 139.749 138.797C139.275 138.67 138.821 138.675 138.387 138.812C137.965 138.943 137.591 139.185 137.265 139.539C136.948 139.896 136.715 140.352 136.566 140.909L134.761 147.647ZM148.618 148.147L150.622 140.666L151.441 142.062L148.365 141.238C147.974 141.133 147.621 141.132 147.306 141.236C147.001 141.342 146.795 141.596 146.688 141.997C146.591 142.358 146.635 142.668 146.82 142.927C147.014 143.189 147.333 143.38 147.776 143.498L150.435 144.211L150.095 145.478L147.251 144.716C146.355 144.476 145.697 144.068 145.277 143.491C144.87 142.907 144.766 142.245 144.965 141.503C145.089 141.039 145.328 140.661 145.683 140.37C146.04 140.068 146.467 139.873 146.966 139.786C147.477 139.691 148.016 139.72 148.583 139.871L152.307 140.869L150.241 148.581L148.618 148.147ZM143.178 146.689L146.755 143.97L148.548 144.451L145.11 147.207L143.178 146.689ZM152.503 149.188L154.569 141.476L156.393 141.964L157.826 148.179L157.551 148.089L161.849 143.426L163.75 143.935L161.683 151.647L160.091 151.221L162.005 144.081L162.596 144.653L157.841 149.79L156.651 149.471L155.101 142.645L155.93 142.519L154.033 149.598L152.503 149.188ZM167.602 153.498C166.788 153.28 166.108 152.91 165.563 152.389C165.029 151.87 164.664 151.253 164.469 150.539C164.274 149.824 164.284 149.065 164.499 148.261C164.712 147.468 165.081 146.81 165.608 146.289C166.134 145.767 166.758 145.415 167.481 145.233C168.213 145.054 168.987 145.074 169.801 145.292C170.625 145.513 171.304 145.882 171.839 146.401C172.384 146.923 172.749 147.539 172.933 148.251C173.128 148.966 173.119 149.72 172.907 150.514C172.691 151.317 172.321 151.98 171.794 152.501C171.278 153.026 170.654 153.378 169.922 153.557C169.199 153.739 168.426 153.719 167.602 153.498ZM167.991 152.045C168.475 152.175 168.928 152.175 169.349 152.045C169.771 151.915 170.132 151.68 170.432 151.341C170.746 150.995 170.973 150.559 171.114 150.033C171.252 149.518 171.271 149.037 171.169 148.59C171.081 148.136 170.887 147.747 170.587 147.424C170.288 147.101 169.895 146.874 169.411 146.744C168.937 146.617 168.49 146.619 168.068 146.749C167.647 146.879 167.279 147.117 166.966 147.464C166.665 147.803 166.446 148.23 166.308 148.745C166.167 149.271 166.14 149.761 166.229 150.215C166.33 150.662 166.53 151.047 166.83 151.37C167.13 151.693 167.517 151.918 167.991 152.045ZM173.648 154.853L175.714 147.141L177.538 147.63L178.97 153.844L178.696 153.754L182.993 149.092L184.894 149.601L182.828 157.313L181.236 156.887L183.149 149.746L183.741 150.319L178.986 155.455L177.796 155.137L176.246 148.311L177.074 148.185L175.178 155.263L173.648 154.853ZM190.714 159.691C190.013 159.503 189.41 159.198 188.905 158.776C188.41 158.356 188.027 157.85 187.755 157.258L189.118 156.497C189.276 156.937 189.513 157.31 189.829 157.615C190.155 157.924 190.56 158.143 191.044 158.272C191.827 158.482 192.5 158.403 193.063 158.035C193.625 157.666 194.017 157.07 194.238 156.246C194.461 155.411 194.416 154.692 194.103 154.09C193.8 153.489 193.268 153.087 192.505 152.883C192.011 152.75 191.55 152.737 191.124 152.844C190.698 152.951 190.313 153.151 189.969 153.446L189.18 152.124C189.701 151.745 190.281 151.497 190.92 151.381C191.558 151.265 192.233 151.302 192.944 151.493C193.758 151.711 194.427 152.078 194.951 152.594C195.489 153.102 195.85 153.713 196.034 154.425C196.232 155.129 196.222 155.888 196.004 156.702C195.786 157.516 195.417 158.191 194.898 158.725C194.383 159.25 193.765 159.598 193.045 159.769C192.326 159.941 191.548 159.915 190.714 159.691ZM190.079 155.695L190.402 154.489L195.455 155.843L195.132 157.049L190.079 155.695ZM201.356 162.543C200.305 162.261 199.437 161.852 198.753 161.315C198.071 160.768 197.601 160.134 197.341 159.413C197.084 158.682 197.069 157.893 197.296 157.049C197.519 156.214 197.924 155.549 198.509 155.055C199.097 154.55 199.822 154.236 200.683 154.113C201.547 153.98 202.504 154.055 203.555 154.336L204.189 154.506C205.25 154.79 206.116 155.205 206.787 155.749C207.472 156.286 207.942 156.92 208.199 157.651C208.459 158.372 208.477 159.15 208.253 159.985C208.027 160.83 207.619 161.504 207.031 162.009C206.446 162.504 205.721 162.818 204.858 162.951C204.007 163.076 203.051 162.997 201.99 162.712L201.356 162.543ZM201.741 161.105L202.375 161.275C203.508 161.579 204.424 161.581 205.122 161.283C205.821 160.984 206.287 160.397 206.522 159.521C206.754 158.655 206.637 157.917 206.171 157.307C205.716 156.699 204.926 156.244 203.803 155.943L203.17 155.773C202.036 155.47 201.121 155.467 200.422 155.766C199.726 156.055 199.261 156.637 199.027 157.512C198.792 158.388 198.902 159.13 199.358 159.738C199.813 160.346 200.608 160.802 201.741 161.105ZM200.052 165.307L201.009 161.737L201.102 161.514L202.783 155.239L202.822 154.968L203.878 151.027L205.578 151.483L204.522 155.424L204.421 155.678L202.74 161.953L202.709 162.193L201.752 165.763L200.052 165.307ZM208.995 164.324L211.061 156.612L212.73 157.06L211.26 162.546L211.149 162.467L216.872 158.17L218.387 158.575L216.32 166.287L214.651 165.84L216.121 160.354L216.217 160.429L210.509 164.73L208.995 164.324ZM219.491 170.35L217.76 169.887L220.629 159.176L222.345 159.636L221.707 162.016L221.336 161.917C221.546 161.421 221.848 161.016 222.242 160.702C222.635 160.387 223.089 160.178 223.603 160.072C224.117 159.967 224.652 159.989 225.208 160.138C225.93 160.331 226.532 160.681 227.015 161.185C227.508 161.693 227.842 162.302 228.017 163.011C228.191 163.72 228.172 164.472 227.959 165.265C227.744 166.069 227.378 166.733 226.862 167.257C226.357 167.784 225.763 168.144 225.082 168.337C224.401 168.53 223.69 168.527 222.948 168.328C222.268 168.146 221.718 167.85 221.298 167.439C220.88 167.018 220.608 166.531 220.48 165.977C220.365 165.417 220.41 164.838 220.614 164.241L221.044 164.058C220.988 164.474 221.032 164.866 221.176 165.236C221.319 165.606 221.548 165.927 221.862 166.199C222.176 166.47 222.544 166.663 222.966 166.776C223.471 166.911 223.934 166.914 224.355 166.784C224.787 166.657 225.16 166.42 225.473 166.073C225.787 165.726 226.013 165.296 226.151 164.78C226.286 164.276 226.31 163.796 226.222 163.342C226.134 162.887 225.94 162.499 225.64 162.175C225.35 161.855 224.963 161.63 224.479 161.5C224.005 161.373 223.551 161.378 223.117 161.516C222.695 161.646 222.321 161.888 221.994 162.242C221.678 162.599 221.445 163.056 221.296 163.612L219.491 170.35ZM235.775 168.999L236.475 170.346C235.949 170.702 235.351 170.934 234.682 171.042C234.012 171.149 233.312 171.105 232.58 170.909C231.715 170.677 230.994 170.296 230.418 169.767C229.853 169.24 229.462 168.616 229.247 167.896C229.041 167.178 229.045 166.423 229.258 165.629C229.473 164.826 229.844 164.163 230.37 163.642C230.896 163.12 231.521 162.768 232.243 162.586C232.965 162.404 233.718 162.418 234.501 162.628C235.263 162.832 235.891 163.188 236.385 163.696C236.881 164.193 237.218 164.792 237.395 165.491C237.575 166.179 237.558 166.92 237.346 167.714L237.321 167.806L235.605 167.347L235.651 167.177C235.789 166.662 235.811 166.187 235.718 165.754C235.637 165.312 235.459 164.945 235.185 164.65C234.913 164.345 234.556 164.134 234.113 164.015C233.649 163.891 233.207 163.894 232.785 164.024C232.377 164.146 232.021 164.382 231.718 164.731C231.417 165.071 231.192 165.518 231.043 166.075C230.894 166.631 230.878 167.146 230.994 167.619C231.12 168.094 231.354 168.499 231.695 168.833C232.049 169.16 232.494 169.395 233.03 169.539C234.009 169.801 234.924 169.621 235.775 168.999ZM237.18 168.332L230.318 166.493L230.633 165.319L237.247 167.091L237.342 167.729L237.18 168.332Z" fill="#6683C2"/>
</g>
<circle cx="267.985" cy="174.437" r="6.5" transform="rotate(15 267.985 174.437)" fill="#F37E60"/>
<defs>
<filter id="filter0_d_2001_1394" x="151.523" y="69.4074" width="168.45" height="89.2538" filterUnits="userSpaceOnUse" color-interpolation-filters="sRGB">
<feFlood flood-opacity="0" result="BackgroundImageFix"/>
<feColorMatrix in="SourceAlpha" type="matrix" values="0 0 0 0 0 0 0 0 0 0 0 0 0 0 0 0 0 0 127 0" result="hardAlpha"/>
<feOffset/>
<feGaussianBlur stdDeviation="4.35"/>
<feComposite in2="hardAlpha" operator="out"/>
<feColorMatrix type="matrix" values="0 0 0 0 0.4 0 0 0 0 0.513726 0 0 0 0 0.760784 0 0 0 0.13 0"/>
<feBlend mode="normal" in2="BackgroundImageFix" result="effect1_dropShadow_2001_1394"/>
<feBlend mode="normal" in="SourceGraphic" in2="effect1_dropShadow_2001_1394" result="shape"/>
</filter>
<filter id="filter1_d_2001_1394" x="109.187" y="6.3" width="206.121" height="99.3478" filterUnits="userSpaceOnUse" color-interpolation-filters="sRGB">
<feFlood flood-opacity="0" result="BackgroundImageFix"/>
<feColorMatrix in="SourceAlpha" type="matrix" values="0 0 0 0 0 0 0 0 0 0 0 0 0 0 0 0 0 0 127 0" result="hardAlpha"/>
<feOffset/>
<feGaussianBlur stdDeviation="4.35"/>
<feComposite in2="hardAlpha" operator="out"/>
<feColorMatrix type="matrix" values="0 0 0 0 0.4 0 0 0 0 0.513726 0 0 0 0 0.760784 0 0 0 0.13 0"/>
<feBlend mode="normal" in2="BackgroundImageFix" result="effect1_dropShadow_2001_1394"/>
<feBlend mode="normal" in="SourceGraphic" in2="effect1_dropShadow_2001_1394" result="shape"/>
</filter>
<filter id="filter2_d_2001_1394" x="83.3039" y="102.893" width="182.939" height="93.1361" filterUnits="userSpaceOnUse" color-interpolation-filters="sRGB">
<feFlood flood-opacity="0" result="BackgroundImageFix"/>
<feColorMatrix in="SourceAlpha" type="matrix" values="0 0 0 0 0 0 0 0 0 0 0 0 0 0 0 0 0 0 127 0" result="hardAlpha"/>
<feOffset/>
<feGaussianBlur stdDeviation="4.35"/>
<feComposite in2="hardAlpha" operator="out"/>
<feColorMatrix type="matrix" values="0 0 0 0 0.4 0 0 0 0 0.513726 0 0 0 0 0.760784 0 0 0 0.13 0"/>
<feBlend mode="normal" in2="BackgroundImageFix" result="effect1_dropShadow_2001_1394"/>
<feBlend mode="normal" in="SourceGraphic" in2="effect1_dropShadow_2001_1394" result="shape"/>
</filter>
<clipPath id="clip0_2001_1394">
<rect width="136" height="88" fill="white"/>
</clipPath>
</defs>
</svg>
