<svg width="320" height="224" viewBox="0 0 320 224" fill="none" xmlns="http://www.w3.org/2000/svg">
<rect width="320" height="224" fill="white"/>
<circle cx="243.563" cy="135.406" r="51.9414" transform="rotate(-133.732 243.563 135.406)" fill="#F4F7FE"/>
<circle cx="182.435" cy="93.3923" r="15.6328" transform="rotate(-133.732 182.435 93.3923)" fill="#F4F7FE"/>
<g clip-path="url(#clip0_2023_12387)">
<path d="M61.0279 43.4324C60.4314 43.2747 59.8794 42.9685 59.4113 42.5243C58.385 41.5516 57.9748 40.0833 58.3431 38.6898L66.496 7.84153C66.8643 6.44804 67.9451 5.37213 69.3197 5.03396C70.6282 4.7128 71.966 5.09911 72.9051 6.06256L94.3708 28.2381C95.3245 29.2261 95.6814 30.6165 95.3255 31.9632C94.9695 33.31 93.9723 34.3425 92.6549 34.7303L63.036 43.4047C62.3639 43.5993 61.6729 43.6063 61.0287 43.436L61.0279 43.4324ZM70.5367 7.46688C70.3066 7.40608 70.1017 7.43637 69.9635 7.46706C69.4794 7.58903 69.106 7.97117 68.968 8.49313L60.8151 39.3414C60.6772 39.8634 60.8114 40.3797 61.1737 40.7254C61.353 40.8917 61.7213 41.1614 62.2852 40.9899L91.9043 32.3155C92.3662 32.1842 92.7199 31.8037 92.851 31.3075C92.9821 30.8114 92.861 30.3054 92.5259 29.9635L71.0602 7.78792C70.888 7.60797 70.7055 7.51323 70.5363 7.4685L70.5367 7.46688Z" fill="#F37E60"/>
<path d="M66.3962 60.989C47.1155 55.8933 35.5785 36.0651 40.6738 16.786C45.769 -2.49313 65.5977 -14.0317 84.8768 -8.93648C104.156 -3.84121 115.695 15.9874 110.599 35.2666C105.504 54.5457 85.6753 66.0843 66.3962 60.989ZM84.2488 -6.56055C66.2809 -11.3093 47.8004 -0.55517 43.0517 17.4128C38.303 35.3807 49.057 53.8612 67.025 58.6099C84.9929 63.3587 103.473 52.6046 108.222 34.6366C112.971 16.6687 102.217 -1.81181 84.2488 -6.56055Z" fill="#F37E60"/>
</g>
<g filter="url(#filter0_d_2023_12387)">
<rect x="163.867" y="64.5342" width="121.455" height="28.9179" rx="14.4589" transform="rotate(15 163.867 64.5342)" fill="#DEE4F2" shape-rendering="crispEdges"/>
<path d="M176.48 87.7605C175.782 87.5734 175.171 87.282 174.647 86.8863C174.124 86.4906 173.702 86.0217 173.382 85.4797C173.064 84.9292 172.864 84.3326 172.78 83.6899C172.699 83.0387 172.75 82.3725 172.933 81.6915C173.115 81.0105 173.403 80.4125 173.796 79.8975C174.19 79.3825 174.661 78.9703 175.209 78.661C175.759 78.3432 176.36 78.1438 177.012 78.0628C177.663 77.9818 178.337 78.0349 179.035 78.2219C179.734 78.409 180.344 78.7004 180.868 79.0961C181.391 79.4919 181.812 79.965 182.13 80.5154C182.45 81.0574 182.652 81.6498 182.735 82.2925C182.818 82.9352 182.768 83.5971 182.586 84.2781C182.404 84.9592 182.114 85.5614 181.719 86.0849C181.325 86.5999 180.853 87.0163 180.303 87.3342C179.755 87.6435 179.155 87.8386 178.504 87.9196C177.852 88.0006 177.178 87.9475 176.48 87.7605ZM176.829 86.458C177.476 86.6314 178.086 86.6352 178.659 86.4696C179.233 86.3039 179.73 85.9991 180.15 85.5551C180.572 85.1026 180.874 84.5401 181.054 83.8676C181.234 83.1951 181.253 82.5615 181.111 81.967C180.97 81.3724 180.692 80.86 180.278 80.4298C179.864 79.9995 179.333 79.6977 178.686 79.5244C178.048 79.3533 177.438 79.3495 176.856 79.5128C176.282 79.6785 175.785 79.9833 175.365 80.4273C174.945 80.8713 174.645 81.4296 174.465 82.1021C174.285 82.7746 174.264 83.4124 174.404 84.0154C174.546 84.61 174.823 85.1224 175.237 85.5526C175.66 85.9852 176.19 86.287 176.829 86.458ZM185.908 90.2867C184.818 89.9948 184.083 89.3828 183.704 88.4507C183.324 87.5187 183.328 86.3291 183.716 84.8819C184.096 83.4602 184.63 82.458 185.315 81.8753C186 81.2925 186.899 81.0725 188.01 81.2151L190.916 81.5558L190.777 82.7913L187.905 82.4736C187.408 82.4225 186.985 82.4688 186.637 82.6126C186.296 82.7587 186.003 83.0359 185.757 83.4444C185.513 83.8443 185.277 84.4015 185.049 85.1159L184.729 85.4409C184.931 85.0295 185.2 84.7048 185.537 84.4668C185.877 84.2203 186.26 84.0674 186.687 84.0083C187.115 83.9407 187.547 83.9651 187.981 84.0814C188.594 84.2457 189.078 84.5167 189.433 84.8947C189.799 85.2664 190.035 85.7129 190.141 86.2342C190.25 86.7469 190.226 87.297 190.069 87.8844C189.893 88.5399 189.603 89.078 189.198 89.4987C188.794 89.9195 188.308 90.1999 187.741 90.34C187.183 90.4824 186.572 90.4647 185.908 90.2867ZM186.182 89.06C186.761 89.2151 187.26 89.1572 187.679 88.8864C188.107 88.6178 188.404 88.1728 188.57 87.5513C188.732 86.9469 188.705 86.4377 188.487 86.0236C188.272 85.6009 187.883 85.3143 187.322 85.1638C186.99 85.0748 186.667 85.0705 186.353 85.1507C186.042 85.2224 185.753 85.364 185.487 85.5755C185.229 85.7892 185.017 86.0699 184.851 86.4177L185.093 85.7163C184.816 86.6822 184.764 87.4392 184.936 87.9872C185.111 88.5268 185.526 88.8843 186.182 89.06ZM191.196 91.4849L192.829 85.394L193.285 86.447L191.293 85.9133L191.601 84.7641L194.283 85.4826L192.637 91.6245L191.99 90.4657L194.531 91.1465C194.897 91.2446 195.2 91.2348 195.442 91.117C195.683 90.9992 195.846 90.7828 195.931 90.4678C196.013 90.1614 195.978 89.901 195.825 89.6868C195.675 89.4641 195.417 89.3037 195.051 89.2056L192.74 88.5863L193.047 87.4371L195.474 88.0872C196.223 88.2879 196.77 88.6445 197.117 89.157C197.474 89.6632 197.57 90.2228 197.406 90.8358C197.292 91.2614 197.085 91.6074 196.786 91.8739C196.486 92.1404 196.124 92.317 195.699 92.404C195.277 92.4824 194.823 92.4566 194.338 92.3265L191.196 91.4849ZM202.06 94.3958L203.716 88.2156L204.393 89.3685L201.852 88.6877C201.528 88.601 201.237 88.6004 200.976 88.6858C200.725 88.7735 200.555 88.9833 200.466 89.3153C200.386 89.6132 200.422 89.8693 200.575 90.0835C200.735 90.3 200.999 90.4573 201.365 90.5554L203.561 91.1439L203.281 92.1909L200.931 91.5614C200.191 91.3629 199.647 91.0256 199.3 90.5495C198.964 90.0671 198.878 89.5195 199.042 88.9066C199.145 88.5235 199.343 88.2115 199.635 87.9706C199.93 87.7211 200.283 87.5603 200.695 87.4881C201.118 87.4097 201.563 87.4333 202.031 87.5587L205.108 88.3833L203.401 94.7551L202.06 94.3958ZM197.566 93.1915L200.522 90.9452L202.003 91.3421L199.162 93.6192L197.566 93.1915ZM210.646 94.6024L211.326 95.7426C210.906 96.0498 210.436 96.2567 209.914 96.3634C209.395 96.4616 208.838 96.4308 208.242 96.2712C207.586 96.0955 207.038 95.7934 206.596 95.3648C206.165 94.93 205.868 94.4216 205.705 93.8395C205.544 93.2489 205.552 92.6216 205.73 91.9576C205.906 91.3021 206.21 90.7632 206.642 90.3407C207.077 89.9098 207.593 89.6192 208.19 89.4689C208.797 89.3124 209.433 89.3231 210.097 89.501C210.676 89.6561 211.161 89.9048 211.553 90.247C211.954 90.5915 212.258 91.006 212.465 91.4905L211.306 92.138C211.197 91.7984 211.02 91.5047 210.776 91.2569C210.543 91.0028 210.227 90.8222 209.826 90.715C209.435 90.6101 209.061 90.6102 208.704 90.7153C208.347 90.8205 208.04 91.0163 207.78 91.3027C207.523 91.5805 207.338 91.9323 207.224 92.3579C207.11 92.7836 207.093 93.1852 207.175 93.5628C207.256 93.9404 207.425 94.2639 207.681 94.5333C207.937 94.8027 208.261 94.9899 208.653 95.0948C209.053 95.202 209.417 95.2039 209.746 95.1004C210.084 94.9992 210.384 94.8332 210.646 94.6024ZM217.051 98.4126L218.758 92.0408L220.189 92.424L218.481 98.7958L217.051 98.4126ZM212.403 97.1672L214.11 90.7954L215.541 91.1786L213.833 97.5504L212.403 97.1672ZM213.819 94.5904L214.134 93.4156L218.922 94.6987L218.607 95.8734L213.819 94.5904ZM220.346 99.2956L222.054 92.9238L223.433 93.2933L222.218 97.8263L222.126 97.7607L226.855 94.2102L228.106 94.5456L226.399 100.917L225.02 100.548L226.235 96.0148L226.314 96.077L221.598 99.6309L220.346 99.2956ZM228.265 101.417L229.972 95.0455L231.479 95.4492L232.662 100.584L232.436 100.509L235.986 96.657L237.557 97.0778L235.85 103.45L234.534 103.097L236.115 97.1979L236.604 97.6711L232.675 101.915L231.692 101.651L230.411 96.0117L231.096 95.9078L229.529 101.756L228.265 101.417ZM240.211 104.618L241.918 98.2464L245.174 99.1189C245.864 99.3037 246.368 99.6029 246.686 100.017C247.004 100.43 247.093 100.897 246.954 101.416C246.867 101.739 246.693 101.998 246.431 102.193C246.18 102.381 245.875 102.496 245.518 102.537L245.536 102.418C245.915 102.638 246.195 102.919 246.378 103.26C246.562 103.592 246.603 103.95 246.501 104.333C246.403 104.699 246.205 104.993 245.909 105.214C245.623 105.43 245.277 105.565 244.869 105.62C244.462 105.675 244.033 105.642 243.582 105.522L240.211 104.618ZM241.622 104.613L241.073 103.7L243.691 104.401C244.074 104.504 244.383 104.509 244.617 104.417C244.86 104.327 245.019 104.141 245.095 103.86C245.17 103.579 245.125 103.339 244.959 103.14C244.802 102.943 244.532 102.793 244.149 102.69L241.672 102.026L241.942 101.017L244.317 101.654C244.675 101.75 244.944 101.749 245.125 101.651C245.315 101.556 245.443 101.385 245.509 101.138C245.575 100.891 245.548 100.688 245.426 100.528C245.314 100.37 245.079 100.243 244.721 100.147L242.167 99.4628L243.145 98.9309L241.622 104.613ZM252.695 105.869L253.374 107.009C252.954 107.317 252.484 107.524 251.963 107.63C251.444 107.728 250.886 107.698 250.29 107.538C249.635 107.362 249.086 107.06 248.644 106.632C248.214 106.197 247.916 105.688 247.753 105.106C247.592 104.516 247.6 103.888 247.778 103.224C247.954 102.569 248.258 102.03 248.691 101.608C249.125 101.177 249.641 100.886 250.238 100.736C250.846 100.579 251.481 100.59 252.145 100.768C252.724 100.923 253.21 101.172 253.602 101.514C254.002 101.858 254.306 102.273 254.514 102.757L253.355 103.405C253.245 103.065 253.068 102.771 252.825 102.524C252.592 102.27 252.275 102.089 251.875 101.982C251.483 101.877 251.109 101.877 250.753 101.982C250.396 102.087 250.088 102.283 249.829 102.569C249.572 102.847 249.386 103.199 249.272 103.625C249.158 104.05 249.142 104.452 249.223 104.83C249.304 105.207 249.473 105.531 249.73 105.8C249.986 106.07 250.31 106.257 250.701 106.362C251.101 106.469 251.466 106.471 251.795 106.367C252.132 106.266 252.432 106.1 252.695 105.869ZM260.044 107.866L260.621 108.979C260.187 109.273 259.693 109.464 259.14 109.553C258.587 109.642 258.008 109.606 257.404 109.444C256.688 109.252 256.093 108.938 255.617 108.5C255.15 108.065 254.827 107.549 254.649 106.954C254.48 106.361 254.483 105.737 254.658 105.082C254.836 104.418 255.143 103.87 255.577 103.439C256.012 103.008 256.528 102.718 257.125 102.567C257.722 102.417 258.344 102.429 258.99 102.602C259.62 102.771 260.139 103.065 260.547 103.484C260.957 103.895 261.235 104.389 261.381 104.967C261.53 105.536 261.516 106.148 261.341 106.804L261.32 106.88L259.903 106.501L259.941 106.36C260.055 105.934 260.073 105.543 259.996 105.184C259.929 104.82 259.782 104.516 259.556 104.273C259.331 104.021 259.036 103.846 258.67 103.748C258.287 103.645 257.921 103.648 257.573 103.755C257.236 103.856 256.942 104.051 256.691 104.34C256.442 104.62 256.257 104.99 256.134 105.45C256.01 105.909 255.997 106.334 256.093 106.725C256.197 107.118 256.391 107.453 256.672 107.729C256.965 107.999 257.333 108.193 257.775 108.312C258.584 108.529 259.34 108.38 260.044 107.866ZM261.204 107.315L255.534 105.795L255.795 104.825L261.26 106.289L261.337 106.817L261.204 107.315ZM260.674 101.835C260.427 101.769 260.24 101.632 260.113 101.425C259.989 101.209 259.958 100.982 260.022 100.743C260.088 100.497 260.228 100.315 260.442 100.199C260.658 100.074 260.889 100.045 261.136 100.111C261.391 100.18 261.577 100.321 261.693 100.534C261.82 100.742 261.851 100.969 261.784 101.216C261.72 101.454 261.581 101.635 261.365 101.76C261.16 101.878 260.929 101.903 260.674 101.835ZM257.916 101.096C257.669 101.03 257.482 100.893 257.355 100.686C257.231 100.47 257.2 100.243 257.264 100.004C257.33 99.7575 257.47 99.576 257.684 99.4599C257.9 99.3352 258.131 99.306 258.378 99.3722C258.625 99.4383 258.81 99.5793 258.935 99.7952C259.062 100.003 259.092 100.23 259.026 100.477C258.962 100.715 258.822 100.896 258.607 101.021C258.393 101.137 258.163 101.162 257.916 101.096ZM263.754 110.078C263.685 110.333 263.534 110.525 263.298 110.654C263.072 110.785 262.831 110.816 262.575 110.748C262.311 110.677 262.11 110.527 261.97 110.298C261.84 110.071 261.808 109.83 261.877 109.575C261.945 109.32 262.093 109.127 262.319 108.996C262.555 108.867 262.804 108.838 263.068 108.909C263.323 108.977 263.517 109.125 263.647 109.352C263.787 109.58 263.822 109.823 263.754 110.078ZM263.722 107.948L262.982 107.75C263.001 107.609 263.04 107.378 263.099 107.056C263.16 106.726 263.23 106.347 263.308 105.921C263.385 105.495 263.466 105.056 263.551 104.604C263.636 104.152 263.713 103.726 263.784 103.325C263.863 102.927 263.925 102.597 263.968 102.334C264.021 102.066 264.055 101.906 264.069 101.855C264.13 101.625 264.261 101.46 264.462 101.358C264.665 101.248 264.881 101.224 265.111 101.286C265.341 101.347 265.512 101.475 265.624 101.67C265.747 101.858 265.777 102.067 265.716 102.296C265.702 102.347 265.651 102.503 265.564 102.762C265.478 103.013 265.366 103.329 265.227 103.712C265.097 104.097 264.955 104.506 264.802 104.939C264.65 105.373 264.5 105.794 264.355 106.202C264.209 106.61 264.08 106.972 263.968 107.289C263.858 107.597 263.776 107.817 263.722 107.948Z" fill="#6683C2"/>
</g>
<g filter="url(#filter1_d_2023_12387)">
<rect x="128.883" y="12.3936" width="153.678" height="28.9179" rx="14.4589" transform="rotate(15 128.883 12.3936)" fill="#DEE4F2" shape-rendering="crispEdges"/>
<path d="M137.31 33.5951L137.478 32.9694L137.899 33.0824C138.137 33.1462 138.371 33.0401 138.6 32.7639C138.832 32.4792 139.083 31.9992 139.355 31.3239L141.615 25.6477L147.502 27.225L145.261 35.5888L143.805 35.1987L145.978 27.0903L146.512 28.3146L141.558 26.9871L142.939 26.276L140.69 31.8595C140.484 32.3883 140.256 32.8152 140.005 33.1402C139.756 33.4567 139.466 33.6709 139.135 33.783C138.812 33.8972 138.429 33.8951 137.987 33.7765L137.31 33.5951ZM136.097 36.3357L137.031 32.8497L146.429 35.3679L145.495 38.8539L144.103 38.4809L144.924 35.4163L145.643 36.5123L137.535 34.3397L138.286 33.7334L137.488 36.7086L136.097 36.3357ZM150.314 37.9828C149.641 37.8027 149.08 37.4971 148.63 37.0663C148.188 36.6377 147.887 36.1281 147.726 35.5375C147.565 34.9469 147.573 34.3196 147.751 33.6556C147.927 33.0001 148.232 32.4569 148.667 32.026C149.101 31.5951 149.617 31.3044 150.214 31.1542C150.819 31.0061 151.458 31.0222 152.131 31.2024C152.812 31.3849 153.373 31.6904 153.815 32.119C154.265 32.5499 154.567 33.0595 154.719 33.6478C154.88 34.2384 154.873 34.8614 154.697 35.5169C154.519 36.1809 154.213 36.7284 153.778 37.1593C153.352 37.5925 152.836 37.8831 152.231 38.0311C151.634 38.1814 150.995 38.1653 150.314 37.9828ZM150.636 36.7825C151.036 36.8898 151.41 36.8896 151.758 36.7822C152.106 36.6747 152.404 36.4809 152.653 36.2008C152.912 35.9144 153.1 35.5542 153.216 35.12C153.33 34.6944 153.345 34.297 153.262 33.9279C153.189 33.5526 153.029 33.2313 152.781 32.9642C152.533 32.6971 152.209 32.5099 151.809 32.4027C151.418 32.2978 151.048 32.2991 150.7 32.4065C150.351 32.514 150.048 32.7109 149.789 32.9972C149.54 33.2774 149.359 33.6303 149.245 34.0559C149.129 34.4901 149.107 34.8948 149.18 35.2702C149.263 35.6393 149.429 35.9574 149.677 36.2245C149.924 36.4916 150.244 36.6776 150.636 36.7825ZM160.685 38.4489L161.365 39.5891C160.945 39.8963 160.475 40.1032 159.953 40.2099C159.434 40.308 158.877 40.2773 158.281 40.1176C157.626 39.942 157.077 39.6399 156.635 39.2113C156.204 38.7765 155.907 38.268 155.744 37.686C155.583 37.0954 155.591 36.4681 155.769 35.8041C155.945 35.1486 156.249 34.6096 156.681 34.1872C157.116 33.7563 157.632 33.4657 158.229 33.3154C158.836 33.1588 159.472 33.1695 160.136 33.3475C160.715 33.5026 161.2 33.7512 161.592 34.0935C161.993 34.438 162.297 34.8525 162.504 35.337L161.346 35.9845C161.236 35.6448 161.059 35.3511 160.815 35.1033C160.582 34.8493 160.266 34.6687 159.866 34.5614C159.474 34.4565 159.1 34.4566 158.743 34.5618C158.387 34.667 158.079 34.8627 157.819 35.1491C157.563 35.427 157.377 35.7787 157.263 36.2044C157.149 36.63 157.133 37.0316 157.214 37.4093C157.295 37.7869 157.464 38.1104 157.72 38.3798C157.977 38.6492 158.3 38.8363 158.692 38.9413C159.092 39.0485 159.457 39.0503 159.785 38.9468C160.123 38.8456 160.423 38.6796 160.685 38.4489ZM164.038 41.4413L165.619 35.542L167.049 35.9252L165.469 41.8245L164.038 41.4413ZM163.2 35.6327L163.511 34.4708L169.398 36.0481L169.086 37.2101L163.2 35.6327ZM175.32 37.6351L176.763 38.0217L171.717 44.4432C171.365 44.9054 170.982 45.2271 170.569 45.4083C170.155 45.5895 169.655 45.6013 169.068 45.444L168.301 45.2387L168.62 44.0511L169.322 44.2393C169.586 44.31 169.82 44.3043 170.024 44.2223C170.235 44.151 170.425 44.0056 170.593 43.7861L170.954 43.308L169.919 36.1878L171.413 36.5881L172.114 42.7567L171.616 42.6233L175.32 37.6351ZM176.221 44.7058L177.929 38.334L183.815 39.9113L182.108 46.2831L180.678 45.8999L182.324 39.7579L183.095 40.9638L177.949 39.5849L179.297 38.947L177.652 45.089L176.221 44.7058ZM188.626 48.0295L190.333 41.6577L191.763 42.0409L190.056 48.4127L188.626 48.0295ZM183.978 46.784L185.685 40.4122L187.115 40.7954L185.408 47.1673L183.978 46.784ZM185.394 44.2072L185.708 43.0325L190.497 44.3155L190.182 45.4903L185.394 44.2072ZM191.921 48.9124L193.628 42.5406L195.007 42.9102L193.351 49.0904L192.615 47.8531L195.233 48.5545C195.599 48.6526 195.903 48.6427 196.144 48.5249C196.388 48.3986 196.551 48.1823 196.633 47.8758C196.715 47.5693 196.681 47.3047 196.531 47.082C196.381 46.8593 196.123 46.6989 195.757 46.6008L193.471 45.9884L193.782 44.8264L196.17 45.4662C196.928 45.6692 197.48 46.027 197.826 46.5394C198.172 47.0519 198.263 47.6146 198.099 48.2275C197.983 48.6617 197.774 49.0162 197.472 49.2912C197.181 49.56 196.823 49.7378 196.398 49.8247C195.976 49.9031 195.518 49.8762 195.024 49.7439L191.921 48.9124ZM198.267 50.6129L199.975 44.2411L201.405 44.6243L199.697 50.9961L198.267 50.6129ZM201.56 51.4953L203.268 45.1235L204.774 45.5272L205.958 50.6618L205.731 50.5874L209.282 46.735L210.852 47.1558L209.145 53.5276L207.83 53.1752L209.411 47.2759L209.9 47.7491L205.971 51.9927L204.987 51.7293L203.707 46.0896L204.391 45.9857L202.824 51.834L201.56 51.4953ZM217.541 55.7774L219.197 49.5971L219.874 50.7501L217.333 50.0692C217.009 49.9826 216.718 49.9819 216.457 50.0673C216.206 50.155 216.036 50.3649 215.947 50.6969C215.867 50.9948 215.903 51.2509 216.056 51.4651C216.217 51.6816 216.48 51.8389 216.846 51.9369L219.042 52.5254L218.762 53.5725L216.412 52.943C215.672 52.7445 215.128 52.4072 214.781 51.9311C214.445 51.4487 214.359 50.901 214.523 50.2881C214.626 49.905 214.824 49.593 215.116 49.3521C215.411 49.1027 215.764 48.9419 216.176 48.8697C216.599 48.7913 217.044 48.8148 217.512 48.9403L220.59 49.7649L218.882 56.1367L217.541 55.7774ZM213.047 54.5731L216.003 52.3268L217.484 52.7237L214.643 55.0007L213.047 54.5731ZM222.816 57.4098C222.28 57.2661 221.777 57.031 221.308 56.7046C220.839 56.3782 220.48 55.9809 220.232 55.5128L221.243 54.8533C221.648 55.5548 222.264 56.0163 223.089 56.2375C223.583 56.3698 223.993 56.3885 224.32 56.2935C224.649 56.19 224.854 55.985 224.936 55.6786C225.082 55.1338 224.678 54.7336 223.725 54.4781L222.448 54.136L222.718 53.1272L224.008 53.4728C224.408 53.58 224.732 53.5983 224.979 53.5276C225.228 53.4484 225.388 53.2769 225.459 53.013C225.53 52.7491 225.458 52.5063 225.243 52.2847C225.038 52.0653 224.718 51.8974 224.283 51.7811C223.543 51.5827 222.835 51.6894 222.158 52.1013L221.619 50.9987C222.53 50.4582 223.535 50.3351 224.633 50.6294C225.169 50.7731 225.62 50.9805 225.985 51.2518C226.362 51.5168 226.631 51.8217 226.794 52.1664C226.96 52.5027 226.993 52.8539 226.895 53.2199C226.804 53.5604 226.623 53.8268 226.353 54.0189C226.082 54.211 225.745 54.3122 225.341 54.3225L225.368 54.2204C225.772 54.4474 226.057 54.729 226.223 55.0653C226.39 55.3931 226.422 55.7527 226.317 56.1443C226.212 56.5359 225.99 56.855 225.65 57.1015C225.312 57.3395 224.898 57.4886 224.408 57.5488C223.917 57.6089 223.387 57.5626 222.816 57.4098ZM227.148 58.3516L228.856 51.9798L230.235 52.3493L228.579 58.5296L227.843 57.2923L230.461 57.9937C230.827 58.0917 231.13 58.0819 231.372 57.9641C231.615 57.8378 231.778 57.6214 231.86 57.3149C231.943 57.0085 231.909 56.7439 231.758 56.5212C231.608 56.2985 231.35 56.1381 230.984 56.04L228.698 55.4275L229.01 54.2655L231.398 54.9054C232.155 55.1084 232.707 55.4661 233.053 55.9786C233.4 56.4911 233.491 57.0538 233.326 57.6667C233.21 58.1008 233.001 58.4554 232.699 58.7304C232.408 58.9991 232.05 59.1769 231.626 59.2639C231.203 59.3423 230.745 59.3153 230.251 59.183L227.148 58.3516ZM233.495 60.0521L235.202 53.6803L236.632 54.0635L234.925 60.4353L233.495 60.0521ZM241.116 62.0943L238.734 57.9112L238.874 57.9488L242.632 55.6712L244.394 56.1433L240.131 58.7235L240.204 57.7852L242.981 62.5938L241.116 62.0943ZM236.788 60.9344L238.495 54.5626L239.925 54.9458L238.218 61.3176L236.788 60.9344ZM246.581 63.7776C245.909 63.5974 245.348 63.2919 244.897 62.861C244.456 62.4325 244.154 61.9229 243.993 61.3323C243.832 60.7417 243.84 60.1144 244.018 59.4504C244.194 58.7949 244.499 58.2517 244.934 57.8208C245.369 57.3898 245.885 57.0992 246.481 56.9489C247.087 56.8009 247.726 56.817 248.398 56.9972C249.079 57.1797 249.641 57.4852 250.082 57.9138C250.533 58.3446 250.834 58.8542 250.987 59.4425C251.148 60.0331 251.14 60.6562 250.965 61.3117C250.787 61.9757 250.48 62.5231 250.046 62.9541C249.619 63.3873 249.104 63.6779 248.498 63.8259C247.901 63.9762 247.262 63.9601 246.581 63.7776ZM246.903 62.5773C247.303 62.6845 247.677 62.6844 248.025 62.577C248.373 62.4695 248.672 62.2757 248.92 61.9956C249.179 61.7092 249.367 61.3489 249.483 60.9148C249.598 60.4891 249.613 60.0918 249.529 59.7227C249.456 59.3473 249.296 59.0261 249.048 58.759C248.801 58.4919 248.477 58.3047 248.077 58.1975C247.685 58.0926 247.315 58.0938 246.967 58.2013C246.619 58.3087 246.315 58.5056 246.056 58.792C245.808 59.0722 245.626 59.4251 245.512 59.8507C245.396 60.2848 245.374 60.6896 245.447 61.0649C245.531 61.434 245.696 61.7521 245.944 62.0193C246.192 62.2864 246.511 62.4724 246.903 62.5773ZM251.577 64.8972L253.284 58.5254L254.791 58.9291L255.974 64.0637L255.748 63.9893L259.298 60.1369L260.869 60.5577L259.162 66.9296L257.847 66.5771L259.427 60.6778L259.916 61.151L255.987 65.3947L255.004 65.1312L253.723 59.4916L254.408 59.3876L252.841 65.2359L251.577 64.8972Z" fill="#6683C2"/>
</g>
<g filter="url(#filter2_d_2023_12387)">
<rect x="107.5" y="92.2012" width="133.787" height="28.9179" rx="14.4589" transform="rotate(15 107.5 92.2012)" fill="#DEE4F2" shape-rendering="crispEdges"/>
<path d="M115.783 114.048L118.229 104.918L121.894 105.9C122.49 106.06 122.982 106.301 123.37 106.624C123.769 106.941 124.039 107.31 124.182 107.731C124.333 108.155 124.345 108.605 124.217 109.082C124.096 109.533 123.865 109.9 123.525 110.183C123.195 110.46 122.779 110.635 122.275 110.71C121.782 110.779 121.238 110.733 120.642 110.574L118.573 110.02L118.744 109.381L120.992 109.983C121.63 110.154 122.16 110.406 122.582 110.738C123.004 111.07 123.297 111.459 123.461 111.904C123.626 112.341 123.642 112.81 123.508 113.312C123.368 113.832 123.113 114.256 122.742 114.585C122.373 114.906 121.921 115.114 121.385 115.207C120.851 115.292 120.265 115.249 119.627 115.078L115.783 114.048ZM117.583 113.203L119.958 113.84C120.486 113.981 120.932 113.968 121.296 113.801C121.663 113.626 121.906 113.312 122.027 112.861C122.146 112.418 122.089 112.034 121.857 111.707C121.626 111.38 121.246 111.146 120.718 111.005L118.215 110.334L118.544 109.108L120.804 109.714C121.281 109.842 121.686 109.827 122.02 109.67C122.365 109.507 122.592 109.221 122.701 108.813C122.809 108.413 122.751 108.064 122.53 107.768C122.319 107.465 121.975 107.25 121.498 107.122L119.366 106.55L117.583 113.203ZM126.814 117.004L128.521 110.632L134.408 112.21L132.701 118.581L131.271 118.198L132.916 112.056L133.688 113.262L128.542 111.883L129.89 111.245L128.244 117.387L126.814 117.004ZM135.324 121.939L133.894 121.556L136.265 112.707L137.682 113.087L137.155 115.053L136.849 114.971C137.023 114.562 137.272 114.227 137.597 113.967C137.922 113.708 138.297 113.534 138.722 113.447C139.146 113.361 139.589 113.379 140.048 113.502C140.644 113.662 141.142 113.95 141.541 114.367C141.949 114.787 142.224 115.289 142.368 115.875C142.513 116.461 142.497 117.082 142.321 117.738C142.143 118.402 141.841 118.95 141.415 119.383C140.997 119.819 140.507 120.116 139.944 120.276C139.381 120.435 138.793 120.433 138.18 120.269C137.619 120.118 137.164 119.873 136.817 119.534C136.472 119.186 136.247 118.783 136.142 118.326C136.047 117.863 136.084 117.385 136.252 116.892L136.608 116.74C136.561 117.084 136.597 117.408 136.716 117.714C136.835 118.019 137.024 118.284 137.283 118.509C137.542 118.734 137.847 118.893 138.196 118.986C138.613 119.098 138.995 119.1 139.343 118.993C139.7 118.887 140.008 118.692 140.267 118.405C140.526 118.119 140.713 117.763 140.827 117.337C140.939 116.92 140.958 116.524 140.886 116.149C140.813 115.773 140.653 115.452 140.405 115.185C140.166 114.92 139.846 114.734 139.446 114.627C139.054 114.522 138.679 114.526 138.32 114.64C137.972 114.747 137.663 114.947 137.393 115.24C137.131 115.535 136.939 115.912 136.816 116.372L135.324 121.939ZM146.773 122.352L148.429 116.172L149.106 117.325L146.565 116.644C146.241 116.557 145.949 116.557 145.689 116.642C145.438 116.73 145.267 116.939 145.178 117.271C145.099 117.569 145.135 117.826 145.287 118.04C145.448 118.256 145.712 118.413 146.078 118.512L148.274 119.1L147.994 120.147L145.644 119.518C144.903 119.319 144.36 118.982 144.013 118.506C143.677 118.023 143.591 117.476 143.755 116.863C143.858 116.48 144.055 116.168 144.348 115.927C144.643 115.677 144.996 115.517 145.408 115.444C145.83 115.366 146.276 115.389 146.744 115.515L149.821 116.339L148.114 122.711L146.773 122.352ZM142.278 121.148L145.234 118.901L146.716 119.298L143.875 121.575L142.278 121.148ZM149.983 123.212L151.69 116.84L153.197 117.244L154.381 122.379L154.154 122.304L157.705 118.452L159.275 118.873L157.568 125.244L156.253 124.892L157.834 118.993L158.323 119.466L154.394 123.71L153.41 123.446L152.13 117.807L152.814 117.703L151.247 123.551L149.983 123.212ZM162.458 126.774C161.785 126.594 161.224 126.288 160.774 125.857C160.332 125.429 160.031 124.919 159.87 124.328C159.709 123.738 159.717 123.11 159.895 122.446C160.07 121.791 160.376 121.248 160.811 120.817C161.245 120.386 161.761 120.095 162.358 119.945C162.963 119.797 163.602 119.813 164.275 119.993C164.956 120.176 165.517 120.481 165.959 120.91C166.409 121.341 166.711 121.85 166.863 122.439C167.024 123.029 167.017 123.652 166.841 124.308C166.663 124.972 166.357 125.519 165.922 125.95C165.496 126.383 164.98 126.674 164.375 126.822C163.778 126.972 163.139 126.956 162.458 126.774ZM162.78 125.573C163.18 125.681 163.554 125.681 163.902 125.573C164.25 125.466 164.548 125.272 164.797 124.992C165.056 124.705 165.244 124.345 165.36 123.911C165.474 123.485 165.489 123.088 165.406 122.719C165.333 122.343 165.173 122.022 164.925 121.755C164.677 121.488 164.353 121.301 163.953 121.194C163.562 121.089 163.192 121.09 162.844 121.197C162.495 121.305 162.192 121.502 161.933 121.788C161.684 122.068 161.503 122.421 161.389 122.847C161.273 123.281 161.251 123.686 161.324 124.061C161.407 124.43 161.573 124.748 161.821 125.015C162.068 125.282 162.388 125.468 162.78 125.573ZM167.453 127.893L169.161 121.521L170.668 121.925L171.851 127.06L171.625 126.985L175.175 123.133L176.746 123.554L175.038 129.926L173.723 129.573L175.304 123.674L175.793 124.147L171.864 128.391L170.881 128.127L169.6 122.488L170.285 122.384L168.718 128.232L167.453 127.893ZM181.554 131.89C180.975 131.735 180.477 131.483 180.059 131.134C179.651 130.787 179.334 130.369 179.109 129.88L180.235 129.252C180.366 129.615 180.562 129.923 180.823 130.175C181.092 130.43 181.427 130.611 181.827 130.718C182.474 130.892 183.03 130.826 183.495 130.522C183.959 130.217 184.283 129.725 184.465 129.044C184.65 128.354 184.613 127.76 184.354 127.262C184.104 126.766 183.664 126.434 183.034 126.265C182.625 126.156 182.245 126.145 181.893 126.233C181.541 126.321 181.223 126.487 180.938 126.73L180.287 125.639C180.717 125.325 181.196 125.121 181.724 125.025C182.251 124.929 182.809 124.96 183.396 125.117C184.069 125.297 184.622 125.6 185.055 126.027C185.499 126.447 185.797 126.951 185.95 127.539C186.113 128.121 186.105 128.749 185.924 129.421C185.744 130.094 185.44 130.651 185.011 131.092C184.585 131.526 184.075 131.813 183.48 131.955C182.885 132.097 182.243 132.075 181.554 131.89ZM181.029 128.588L181.296 127.592L185.471 128.711L185.205 129.707L181.029 128.588ZM190.347 134.246C189.478 134.014 188.761 133.676 188.196 133.232C187.633 132.78 187.244 132.256 187.03 131.661C186.817 131.056 186.805 130.405 186.992 129.707C187.177 129.018 187.511 128.468 187.994 128.06C188.48 127.642 189.079 127.383 189.79 127.282C190.504 127.172 191.295 127.233 192.163 127.466L192.687 127.606C193.564 127.841 194.28 128.184 194.834 128.633C195.4 129.077 195.789 129.601 196.001 130.205C196.215 130.801 196.23 131.443 196.045 132.133C195.858 132.831 195.522 133.389 195.036 133.806C194.552 134.215 193.954 134.474 193.24 134.584C192.537 134.687 191.747 134.622 190.87 134.387L190.347 134.246ZM190.665 133.059L191.188 133.199C192.125 133.45 192.882 133.452 193.459 133.205C194.036 132.959 194.421 132.473 194.615 131.75C194.807 131.035 194.71 130.425 194.325 129.92C193.949 129.418 193.297 129.043 192.369 128.794L191.845 128.654C190.909 128.403 190.152 128.401 189.575 128.647C189 128.886 188.616 129.367 188.422 130.09C188.228 130.814 188.319 131.427 188.696 131.929C189.072 132.431 189.728 132.808 190.665 133.059ZM189.269 136.531L190.06 133.581L190.136 133.396L191.526 128.212L191.558 127.988L192.431 124.732L193.835 125.108L192.963 128.365L192.879 128.575L191.49 133.759L191.464 133.957L190.674 136.907L189.269 136.531ZM196.658 135.719L198.365 129.347L199.744 129.716L198.53 134.249L198.438 134.184L203.166 130.633L204.418 130.969L202.71 137.34L201.331 136.971L202.546 132.438L202.625 132.5L197.909 136.054L196.658 135.719ZM205.33 140.697L203.9 140.314L206.271 131.465L207.688 131.845L207.161 133.811L206.855 133.729C207.028 133.32 207.278 132.985 207.603 132.725C207.928 132.466 208.303 132.292 208.727 132.205C209.152 132.119 209.594 132.137 210.054 132.26C210.65 132.42 211.148 132.708 211.547 133.125C211.954 133.545 212.23 134.047 212.374 134.633C212.518 135.219 212.503 135.84 212.327 136.496C212.149 137.16 211.847 137.708 211.421 138.141C211.003 138.577 210.513 138.874 209.95 139.034C209.387 139.193 208.799 139.191 208.186 139.027C207.624 138.876 207.17 138.631 206.823 138.292C206.478 137.944 206.253 137.541 206.147 137.084C206.053 136.621 206.089 136.143 206.258 135.65L206.613 135.498C206.567 135.842 206.603 136.166 206.722 136.472C206.841 136.777 207.03 137.043 207.289 137.267C207.548 137.492 207.852 137.651 208.201 137.744C208.619 137.856 209.001 137.858 209.349 137.751C209.706 137.645 210.014 137.45 210.273 137.163C210.532 136.877 210.719 136.521 210.833 136.095C210.945 135.678 210.964 135.282 210.891 134.907C210.819 134.531 210.658 134.21 210.411 133.943C210.171 133.678 209.852 133.492 209.452 133.385C209.06 133.28 208.685 133.284 208.326 133.398C207.978 133.505 207.669 133.705 207.399 133.998C207.137 134.293 206.945 134.67 206.822 135.13L205.33 140.697ZM218.785 139.581L219.363 140.694C218.928 140.988 218.434 141.179 217.881 141.268C217.328 141.358 216.749 141.321 216.145 141.159C215.43 140.968 214.834 140.653 214.359 140.215C213.891 139.78 213.569 139.264 213.391 138.669C213.221 138.076 213.224 137.452 213.4 136.797C213.578 136.133 213.884 135.585 214.319 135.154C214.754 134.723 215.269 134.433 215.866 134.283C216.463 134.132 217.085 134.144 217.732 134.317C218.362 134.486 218.881 134.78 219.288 135.199C219.698 135.61 219.976 136.105 220.123 136.682C220.271 137.251 220.258 137.863 220.082 138.519L220.062 138.596L218.644 138.216L218.682 138.075C218.796 137.65 218.814 137.258 218.737 136.899C218.67 136.535 218.524 136.231 218.297 135.988C218.073 135.736 217.777 135.561 217.411 135.463C217.028 135.36 216.663 135.363 216.314 135.47C215.977 135.571 215.683 135.766 215.432 136.055C215.184 136.335 214.998 136.705 214.875 137.165C214.752 137.624 214.738 138.05 214.834 138.44C214.939 138.833 215.132 139.168 215.414 139.444C215.706 139.714 216.074 139.908 216.517 140.027C217.325 140.244 218.081 140.095 218.785 139.581ZM219.945 139.03L214.276 137.511L214.536 136.54L220.001 138.004L220.079 138.532L219.945 139.03Z" fill="#6683C2"/>
</g>
<circle cx="245.415" cy="144.123" r="5.37046" transform="rotate(15 245.415 144.123)" fill="#F37E60"/>
<defs>
<filter id="filter0_d_2023_12387" x="149.195" y="57.346" width="139.177" height="73.7437" filterUnits="userSpaceOnUse" color-interpolation-filters="sRGB">
<feFlood flood-opacity="0" result="BackgroundImageFix"/>
<feColorMatrix in="SourceAlpha" type="matrix" values="0 0 0 0 0 0 0 0 0 0 0 0 0 0 0 0 0 0 127 0" result="hardAlpha"/>
<feOffset/>
<feGaussianBlur stdDeviation="3.59408"/>
<feComposite in2="hardAlpha" operator="out"/>
<feColorMatrix type="matrix" values="0 0 0 0 0.4 0 0 0 0 0.513726 0 0 0 0 0.760784 0 0 0 0.13 0"/>
<feBlend mode="normal" in2="BackgroundImageFix" result="effect1_dropShadow_2023_12387"/>
<feBlend mode="normal" in="SourceGraphic" in2="effect1_dropShadow_2023_12387" result="shape"/>
</filter>
<filter id="filter1_d_2023_12387" x="114.21" y="5.2054" width="170.302" height="82.0836" filterUnits="userSpaceOnUse" color-interpolation-filters="sRGB">
<feFlood flood-opacity="0" result="BackgroundImageFix"/>
<feColorMatrix in="SourceAlpha" type="matrix" values="0 0 0 0 0 0 0 0 0 0 0 0 0 0 0 0 0 0 127 0" result="hardAlpha"/>
<feOffset/>
<feGaussianBlur stdDeviation="3.59408"/>
<feComposite in2="hardAlpha" operator="out"/>
<feColorMatrix type="matrix" values="0 0 0 0 0.4 0 0 0 0 0.513726 0 0 0 0 0.760784 0 0 0 0.13 0"/>
<feBlend mode="normal" in2="BackgroundImageFix" result="effect1_dropShadow_2023_12387"/>
<feBlend mode="normal" in="SourceGraphic" in2="effect1_dropShadow_2023_12387" result="shape"/>
</filter>
<filter id="filter2_d_2023_12387" x="92.8275" y="85.013" width="151.089" height="76.9354" filterUnits="userSpaceOnUse" color-interpolation-filters="sRGB">
<feFlood flood-opacity="0" result="BackgroundImageFix"/>
<feColorMatrix in="SourceAlpha" type="matrix" values="0 0 0 0 0 0 0 0 0 0 0 0 0 0 0 0 0 0 127 0" result="hardAlpha"/>
<feOffset/>
<feGaussianBlur stdDeviation="3.59408"/>
<feComposite in2="hardAlpha" operator="out"/>
<feColorMatrix type="matrix" values="0 0 0 0 0.4 0 0 0 0 0.513726 0 0 0 0 0.760784 0 0 0 0.13 0"/>
<feBlend mode="normal" in2="BackgroundImageFix" result="effect1_dropShadow_2023_12387"/>
<feBlend mode="normal" in="SourceGraphic" in2="effect1_dropShadow_2023_12387" result="shape"/>
</filter>
<clipPath id="clip0_2023_12387">
<rect width="112.367" height="72.7078" fill="white" transform="translate(24)"/>
</clipPath>
</defs>
</svg>
