<svg width="320" height="230" viewBox="0 0 320 230" fill="none" xmlns="http://www.w3.org/2000/svg">
<rect width="320" height="230" fill="#F1F5FD"/>
<circle cx="76.5711" cy="107.249" r="55.7508" fill="#E2EBFD"/>
<circle cx="174.211" cy="69.0001" r="31.9349" transform="rotate(24.0278 174.211 69.0001)" fill="#E2EBFD"/>
<circle cx="154.36" cy="124.156" r="16.7794" transform="rotate(24.0278 154.36 124.156)" fill="#E2EBFD"/>
<path d="M106.107 20H40.1866C31.3592 20 24.2031 27.156 24.2031 35.9835V36.3662C24.2031 45.1936 31.3592 52.3497 40.1866 52.3497H106.107C114.934 52.3497 122.09 45.1936 122.09 36.3662V35.9835C122.09 27.156 114.934 20 106.107 20Z" fill="#F37E60"/>
<path d="M35.8385 47.7061C35.8385 47.7061 31.9105 56.2144 33.5752 58.4756C35.2399 60.7368 46.5241 49.2389 46.5241 49.2389L35.8385 47.7061Z" fill="#F37E60"/>
<path d="M105.257 33.4091H41.0337C40.617 33.4091 40.2812 33.0734 40.2812 32.6567C40.2812 32.24 40.617 31.9043 41.0337 31.9043H105.257C105.674 31.9043 106.01 32.24 106.01 32.6567C106.01 33.0734 105.674 33.4091 105.257 33.4091Z" fill="#F1F5FD"/>
<path d="M68.5221 40.4462H41.0337C40.617 40.4462 40.2812 40.1105 40.2812 39.6938C40.2812 39.2771 40.617 38.9414 41.0337 38.9414H68.5221C68.9388 38.9414 69.2745 39.2771 69.2745 39.6938C69.2745 40.1105 68.9388 40.4462 68.5221 40.4462Z" fill="#F1F5FD"/>
<path d="M89.927 40.4462H73.6118C73.1951 40.4462 72.8594 40.1105 72.8594 39.6938C72.8594 39.2771 73.1951 38.9414 73.6118 38.9414H89.927C90.3437 38.9414 90.6794 39.2771 90.6794 39.6938C90.6794 40.1105 90.3437 40.4462 89.927 40.4462Z" fill="#F1F5FD"/>
<path d="M146.811 58.6992H270.671C287.257 58.6992 300.703 72.145 300.703 88.7311V89.4502C300.703 106.036 287.257 119.482 270.671 119.482H146.811C130.225 119.482 116.779 106.036 116.779 89.4502V88.7311C116.779 72.145 130.225 58.6992 146.811 58.6992Z" fill="#6683C2"/>
<path d="M278.834 110.758C278.834 110.758 286.215 126.744 283.087 130.993C279.959 135.242 258.757 113.638 258.757 113.638L278.834 110.758Z" fill="#6683C2"/>
<path d="M148.398 83.8948H269.071C269.854 83.8948 270.484 83.264 270.484 82.4811C270.484 81.6982 269.854 81.0674 269.071 81.0674H148.398C147.616 81.0674 146.985 81.6982 146.985 82.4811C146.985 83.264 147.616 83.8948 148.398 83.8948Z" fill="#D2E6FF"/>
<path d="M217.422 97.1155H269.071C269.854 97.1155 270.484 96.4847 270.484 95.7018C270.484 94.9189 269.854 94.2881 269.071 94.2881H217.422C216.639 94.2881 216.008 94.9189 216.008 95.7018C216.008 96.4847 216.639 97.1155 217.422 97.1155Z" fill="#D2E6FF"/>
<path d="M177.228 97.1155H207.883C208.666 97.1155 209.297 96.4847 209.297 95.7018C209.297 94.9189 208.666 94.2881 207.883 94.2881H177.228C176.445 94.2881 175.814 94.9189 175.814 95.7018C175.814 96.4847 176.445 97.1155 177.228 97.1155Z" fill="#D2E6FF"/>
</svg>
