<svg width="495" height="428" viewBox="0 0 495 428" fill="none" xmlns="http://www.w3.org/2000/svg">
<g clip-path="url(#clip0_2001_1496)">
<rect width="495" height="428" fill="white"/>
<path opacity="0.26" d="M20.5 -11C259.363 -11 453 185.547 453 428C453 670.453 259.363 867 20.5001 867C-218.363 867 -412 670.453 -412 428C-412 185.547 -218.363 -11 20.5 -11Z" fill="url(#paint0_radial_2001_1496)"/>
<path opacity="0.58" d="M20.5001 57C222.36 57 386 223.102 386 428C386 632.898 222.36 799 20.5002 799C-181.36 799 -345 632.898 -345 428C-345 223.102 -181.36 57 20.5001 57Z" fill="url(#paint1_radial_2001_1496)"/>
<path d="M20.5001 122C186.462 122 321 258.777 321 427.5C321 596.223 186.462 733 20.5002 733C-145.461 733 -280 596.223 -280 427.5C-280 258.777 -145.461 122 20.5001 122Z" fill="url(#paint2_radial_2001_1496)"/>
<path d="M20.5001 193C147.802 193 251 298.213 251 428C251 557.787 147.802 663 20.5002 663C-106.801 663 -210 557.787 -210 428C-210 298.213 -106.802 193 20.5001 193Z" fill="url(#paint3_radial_2001_1496)"/>
<path d="M20.5002 263C110.246 263 183 336.649 183 427.5C183 518.351 110.246 592 20.5002 592C-69.2461 592 -142 518.351 -142 427.5C-142 336.649 -69.2461 263 20.5002 263Z" fill="url(#paint4_radial_2001_1496)"/>
<path d="M20.5002 323C77.6617 323 124 370.01 124 428C124 485.99 77.6617 533 20.5002 533C-36.6613 533 -82.9998 485.99 -82.9998 428C-82.9998 370.01 -36.6613 323 20.5002 323Z" fill="url(#paint5_radial_2001_1496)"/>
<path d="M20.5002 369C52.2566 369 78.0002 395.191 78.0002 427.5C78.0002 459.809 52.2566 486 20.5002 486C-11.2561 486 -36.9998 459.809 -36.9998 427.5C-36.9998 395.191 -11.2562 369 20.5002 369Z" fill="url(#paint6_radial_2001_1496)"/>
<path d="M344.952 61.5746C346.994 66.0375 351.035 69.3077 355.209 71.6883C360.168 74.5149 365.58 76.6163 371.045 78.2335C382.47 81.6111 394.511 82.8634 406.397 82.663C412.303 82.5628 418.205 82.0929 424.053 81.2581C429.456 80.4876 435.078 79.6098 440.214 77.7064C447.944 74.8392 454.704 68.9547 456.143 60.5108C457.538 52.3221 453.576 44.3194 447.751 38.7593C444.085 35.2576 439.684 32.6052 435.15 30.3869C430.117 27.9228 424.829 25.986 419.407 24.5811C409.708 22.0693 399.001 20.9363 389.128 23.2834C385.507 23.4456 381.896 23.8583 378.344 24.562C367.961 26.6229 358.305 31.527 351.068 39.3389C345.601 45.2401 341.303 53.6053 344.947 61.5722L344.952 61.5746ZM357.923 35.4365C366.289 28.939 376.739 25.9287 387.196 25.1893C392.627 24.8053 398.097 25.0009 403.499 25.664C408.685 26.3008 413.999 27.15 419.006 28.6742C419.772 28.908 420.141 27.7225 419.378 27.4887C416.847 26.7183 414.324 25.9383 411.755 25.3038C406.376 23.9704 400.739 23.3932 395.21 23.2381C394.426 23.2167 393.641 23.2047 392.856 23.2047C393.371 23.1379 393.887 23.0783 394.402 23.0306C405.193 22.0097 416.32 24.3163 426.403 28.0827C431.245 29.8907 435.918 32.1377 440.29 34.9022C444.192 37.3686 447.778 40.3741 450.454 44.1667C454.735 50.2325 456.419 58.2495 453.018 65.1239C451.296 68.6065 448.512 71.4474 445.237 73.5035C441.084 76.1106 436.412 77.3319 431.658 78.3075C420.564 80.583 409.155 81.437 397.844 80.8979C386.49 80.3588 375.081 78.4005 364.476 74.2143C356.511 71.0705 345.689 65.8324 345.279 55.9286C344.931 47.4918 351.731 40.2477 357.923 35.4365Z" fill="#F37E60"/>
<path d="M340.961 41.469C341.013 41.469 341.011 41.552 340.959 41.5497C340.907 41.5497 340.909 41.4667 340.961 41.469Z" fill="#73C3AB"/>
<path d="M327.295 89.1679C327.724 87.8727 328.185 86.5894 328.607 85.2918C328.974 84.1659 329.127 82.6751 329.759 81.6828C330.05 81.2248 330.937 81.2773 331.011 81.8903C331.152 83.0591 330.572 84.34 330.215 85.442C329.809 86.6824 329.363 87.9084 328.938 89.144C328.387 90.7493 327.846 92.3713 327.491 94.0291C328.841 92.7816 330.32 91.6367 331.662 90.4082C333.487 88.7409 335.279 87.0378 337.051 85.3132C338.818 83.5934 340.567 81.8498 342.306 80.1014C344.04 78.3553 345.702 76.4495 347.615 74.899C347.913 74.6557 348.443 75.0135 348.171 75.3594C346.704 77.2366 344.913 78.8872 343.245 80.5832C341.433 82.4294 339.61 84.2661 337.764 86.0789C335.958 87.8536 334.131 89.6068 332.271 91.3242C330.649 92.8198 329.022 94.499 327.19 95.7632C327.176 95.8849 327.161 96.0089 327.149 96.1329C332.168 95.7107 336.505 92.7267 341.442 91.942C341.821 91.8823 341.945 92.4023 341.58 92.5192C336.54 94.1293 331.775 97.0107 326.424 97.4663C326.067 97.4973 325.802 97.1133 325.802 96.7984C325.802 94.1842 326.479 91.6319 327.295 89.1655V89.1679Z" fill="#73C3AB"/>
<path d="M216.36 127.514C217.639 133.124 222.173 137.227 226.973 140.006C233.375 143.715 240.707 145.745 247.935 147.093C256.445 148.679 265.135 149.318 273.789 149.204C282.218 149.092 290.698 148.319 298.944 146.527C305.353 145.134 312.042 143.169 317.506 139.419C320.021 137.695 322.062 135.603 323.546 132.924C326.272 128.003 326.521 122.391 324.297 117.234C322.072 112.074 317.881 107.878 313.339 104.692C308.805 101.51 303.531 99.0409 298.064 98.0343C290.028 96.5554 281.737 97.364 273.727 98.6067C265.915 99.8185 258.179 101.557 250.325 102.476C252.221 102.168 254.122 101.887 256.023 101.619C258.175 101.316 260.283 100.675 262.43 100.389C263.11 100.298 262.857 99.2603 262.182 99.351C260.009 99.642 257.774 99.5322 255.591 99.8065C250.267 100.477 244.955 101.321 239.751 102.647C234.608 103.959 229.394 105.727 224.952 108.701C221.121 111.265 218.083 114.729 216.759 119.204C215.962 121.894 215.733 124.764 216.36 127.517V127.514ZM217.875 123.784C217.985 120.482 219.173 117.167 221.229 114.543C224.179 110.774 228.692 108.408 233.081 106.724C238.071 104.811 243.345 103.659 248.6 102.76C248.65 102.75 248.698 102.743 248.748 102.736C248.676 102.876 248.755 103.11 248.944 103.098C252.762 102.833 256.545 102.323 260.321 101.708C268.455 100.386 276.58 98.6807 284.835 98.3467C291.533 98.0748 298.257 98.5996 304.488 101.211C309.759 103.423 314.716 106.75 318.551 111.003C322.039 114.872 324.681 119.822 324.386 125.16C324.157 129.289 322.167 133.406 319.128 136.209C317.184 138 314.873 139.357 312.495 140.488C306.164 143.498 299.14 145.044 292.241 146.067C284.005 147.288 275.642 147.637 267.325 147.348C259.167 147.064 250.981 146.146 243.047 144.178C236.619 142.582 230.04 140.33 224.704 136.29C220.654 133.222 217.708 128.9 217.877 123.786L217.875 123.784Z" fill="#73C3AB"/>
<path d="M405.266 88.6719C405.292 88.2354 405.926 88.264 405.941 88.6957C406.136 95.3006 408.166 101.548 409.199 108.026C410.177 114.159 410.189 120.318 412.319 126.224C412.526 126.798 411.575 127.156 411.319 126.605C408.679 120.904 409.115 114.192 408.178 108.105C407.19 101.693 404.886 95.2219 405.27 88.6719H405.266Z" fill="#73C3AB"/>
<path d="M399.66 114.436C400.987 115.032 401.991 116.205 402.926 117.284C404.025 118.55 405.042 119.884 406.055 121.219C407.832 123.559 409.609 125.88 411.577 128.06C413.791 124.439 414.976 120.277 416.932 116.518C417.187 116.029 417.886 116.487 417.65 116.971C415.642 121.119 414.666 125.718 412.331 129.716C412.069 130.164 411.47 130.152 411.126 129.828C408.791 127.643 406.85 125.048 404.87 122.548C403.863 121.277 402.845 120.01 401.8 118.767C400.853 117.641 399.67 116.561 398.992 115.244C398.787 114.848 399.183 114.221 399.66 114.433V114.436Z" fill="#73C3AB"/>
<path d="M351.243 175.862C353.559 179.669 357.636 182.007 361.634 183.696C365.879 185.492 370.376 186.61 374.853 187.658C386.145 190.298 397.535 192.347 409.108 193.249C421.469 194.212 434.104 194.052 446.281 191.512C449.11 190.921 451.912 190.193 454.663 189.296C457.026 188.523 459.421 187.703 461.537 186.372C465.12 184.12 467.794 180.719 469.249 176.754C472.163 168.821 470.172 159.325 464.535 153.078C460.85 148.992 455.531 146.597 450.438 144.777C444.251 142.566 437.77 141.352 431.299 140.321C428.016 139.799 424.722 139.341 421.44 138.819C420.973 138.745 420.505 138.666 420.038 138.585C419.942 138.501 419.818 138.437 419.663 138.399C417.657 137.907 415.663 137.433 413.626 137.082C411.646 136.741 409.638 136.505 407.622 136.35C402.918 135.646 398.114 135.305 393.463 136.312C393.453 136.312 393.449 136.316 393.439 136.319C390.302 136.533 387.175 136.898 384.079 137.435C374.703 139.055 364.973 142.292 357.767 148.737C356.143 150.189 354.602 151.828 353.385 153.641C351.899 155.857 350.943 158.454 350.308 161.033C349.154 165.732 348.612 171.54 351.241 175.862H351.243ZM355.351 154.335C357.82 150.924 361.261 148.226 364.885 146.141C373.097 141.416 382.765 139.32 392.132 138.551C396.915 138.16 401.733 138.122 406.52 138.451C410.704 138.737 415.024 139.179 419.105 140.178C419.589 140.297 419.966 140.057 420.159 139.718C420.376 139.756 420.591 139.797 420.808 139.835C427.055 140.932 433.352 141.776 439.552 143.141C445.804 144.515 452.012 146.392 457.616 149.55C461.465 151.721 464.557 154.695 466.568 158.662C470.148 165.729 470.002 175.018 464.876 181.322C461.876 185.015 457.623 186.682 453.193 188.034C447.728 189.704 442.08 190.732 436.403 191.336C424.417 192.612 412.235 192.032 400.302 190.508C390.119 189.208 379.969 187.176 370.063 184.471C365.734 183.29 361.335 181.852 357.555 179.378C355.887 178.286 354.299 176.948 353.197 175.266C352.009 173.451 351.518 171.383 351.417 169.231C351.186 164.224 352.369 158.452 355.348 154.335H355.351Z" fill="#73C3AB"/>
<path d="M235.363 224.987C238.04 221.898 241.577 219.561 245.04 217.445C249.234 214.883 253.723 212.891 258.434 211.489C268.154 208.595 278.413 208.176 288.489 208.331C291 208.369 293.51 208.445 296.021 208.529C297.08 208.565 297.026 210.21 295.964 210.175C286.261 209.833 276.457 209.595 266.844 211.2C257.778 212.715 249.334 216.085 241.832 221.407C238.927 223.468 235.046 226.297 234.342 230.042C233.751 233.188 235.843 235.676 238.281 237.353C240.909 239.163 243.927 240.32 246.911 241.396C251.173 242.932 255.521 244.156 259.965 245.05C269.774 247.02 279.854 247.566 289.841 247.347C294.664 247.242 299.485 246.944 304.289 246.486C307.831 246.147 311.311 245.72 314.744 244.757C320.69 243.089 327.312 240.227 331.119 235.132C332.85 232.816 333.807 230.013 333.425 227.108C332.991 223.797 331.174 220.656 328.876 218.28C324.072 213.311 316.919 211.241 310.326 209.984C303.268 208.636 296.083 208.276 288.939 207.651C287.473 207.522 286.006 207.379 284.543 207.195C283.861 207.109 283.89 206.034 284.582 206.117C291.728 206.981 298.941 207.136 306.083 208.085C313.277 209.039 320.964 210.573 326.994 214.857C332.23 218.576 336.502 225.378 334.425 231.959C332.435 238.257 325.883 242.166 320.12 244.499C312.764 247.478 304.954 248.091 297.102 248.575C286.604 249.222 276.004 249.088 265.583 247.595C257.105 246.381 248.449 244.322 240.699 240.578C237.849 239.199 234.719 237.281 233.336 234.292C231.802 230.972 233.107 227.602 235.363 224.997V224.987Z" fill="#73C3AB"/>
<path d="M366.778 233.333C368.724 236.744 371.758 239.454 374.993 241.615C378.198 243.754 381.76 245.458 385.443 246.593C390.201 248.06 395.194 249 400.081 249.916C405.532 250.937 411.022 251.75 416.54 252.289C427.424 253.353 438.546 253.427 449.328 251.414C453.039 250.72 456.765 249.813 460.362 248.656C463.833 247.54 467.368 246.114 470.183 243.738C472.728 241.589 474.517 238.349 473.866 234.936C473.138 231.115 469.539 228.348 466.452 226.39C462.636 223.968 458.406 222.12 454.213 220.462C448.801 218.322 443.224 216.622 437.552 215.331C429.89 213.588 422.1 212.586 414.274 212.001C414.45 211.474 414.195 210.785 413.475 210.761C412.315 210.723 411.156 210.668 409.997 210.623C403.184 210.353 396.351 210.189 389.55 210.759C383.062 211.303 375.806 212.307 370.353 216.159C368.106 217.745 366.284 219.89 365.461 222.552C364.337 226.194 364.898 230.046 366.773 233.333H366.778ZM369.039 219.568C370.854 217.533 373.344 216.2 375.87 215.257C382.175 212.905 389.176 212.421 395.842 212.257C398.147 212.199 400.451 212.211 402.753 212.257C402.824 212.323 402.922 212.369 403.048 212.374C405.863 212.478 408.675 212.614 411.483 212.803C422.527 213.542 433.552 215.069 444.183 218.22C449.512 219.799 454.721 221.781 459.735 224.185C463.139 225.819 466.617 227.642 469.381 230.254C470.688 231.489 471.912 232.975 472.37 234.752C472.771 236.31 472.492 238.035 471.781 239.466C470.266 242.514 467.029 244.365 464.031 245.682C460.885 247.065 457.543 247.957 454.211 248.766C449.652 249.87 445.054 250.658 440.378 251.046C429.804 251.927 419.118 251.23 408.635 249.715C403.447 248.966 398.292 247.998 393.18 246.843C389.24 245.956 385.323 245.059 381.621 243.409C375.255 240.57 367.565 235.373 366.589 227.852C366.208 224.913 367.05 221.786 369.037 219.563L369.039 219.568Z" fill="#73C3AB"/>
<path d="M409.173 201.691C410.44 201.848 411.587 202.867 412.622 203.561C413.803 204.353 414.988 205.121 416.114 205.987C415.95 204.62 415.699 203.263 415.575 201.889C415.422 200.183 415.334 198.471 415.236 196.76C415.203 196.183 416.078 196.231 416.126 196.791C416.274 198.518 416.417 200.245 416.632 201.967C416.789 203.232 416.925 204.532 417.238 205.774C417.741 205.307 418.242 204.835 418.7 204.324C419.43 203.513 419.916 202.58 420.563 201.717C421.097 200.999 422.345 201.469 422.044 202.404C421.338 204.608 419.089 206.402 417.226 207.621C416.787 207.907 416.341 207.535 416.241 207.115C416.117 207.21 415.947 207.241 415.745 207.148C414.402 206.54 413.185 205.77 411.938 204.987C410.836 204.298 409.371 203.68 408.608 202.609C408.343 202.235 408.736 201.641 409.175 201.693L409.173 201.691Z" fill="#73C3AB"/>
<path d="M323.342 204.378C323.449 204.299 323.556 204.225 323.664 204.146C323.95 203.691 324.389 203.345 324.761 202.951C325.441 202.233 326.023 201.439 326.595 200.635C327.192 199.798 327.743 198.932 328.234 198.03C328.618 197.327 328.861 196.244 329.491 195.726C329.813 195.462 330.25 195.6 330.374 195.991C330.641 196.838 330.021 197.871 329.658 198.61C329.226 199.488 328.699 200.328 328.117 201.117C331.445 198.961 334.858 196.938 338.219 194.832C343.207 191.707 347.979 188.363 352.395 184.458C352.776 184.119 353.466 184.62 353.117 185.057C349.528 189.546 344.497 192.845 339.705 195.924C336.027 198.29 332.251 200.523 328.597 202.932C330.844 202.376 333.102 201.895 335.426 201.718C336.609 201.627 336.54 203.478 335.361 203.567C331.55 203.846 327.876 205.05 324.174 205.926C323.354 206.119 322.574 204.936 323.342 204.375V204.378Z" fill="#73C3AB"/>
<path d="M273.821 187.065C274.744 189.126 275.598 191.225 276.364 193.351C276.493 193.711 276.648 194.097 276.805 194.496C276.855 188.718 276.44 182.944 275.989 177.186C275.696 173.443 275.369 169.7 275.197 165.951C275.023 162.175 274.797 158.261 275.305 154.504C275.386 153.907 276.195 153.936 276.235 154.535C276.497 158.346 276.455 162.184 276.7 166.001C276.941 169.751 277.244 173.493 277.554 177.238C278.007 182.729 278.427 188.232 278.441 193.739C279.448 191.147 280.61 188.606 281.538 185.982C281.905 184.945 283.546 185.453 283.174 186.495C281.561 190.994 279.257 195.247 278.244 199.948C278.046 200.867 276.567 200.595 276.626 199.672C276.662 199.128 276.688 198.586 276.715 198.043C275.989 196.743 275.512 195.247 274.942 193.892C274.091 191.874 273.256 189.849 272.373 187.845C271.949 186.882 273.389 186.095 273.824 187.063L273.821 187.065Z" fill="#73C3AB"/>
</g>
<defs>
<radialGradient id="paint0_radial_2001_1496" cx="0" cy="0" r="1" gradientUnits="userSpaceOnUse" gradientTransform="translate(20.5002 283.732) rotate(-90) scale(490.335 483.075)">
<stop stop-color="#F37E60" stop-opacity="0.19"/>
<stop offset="1" stop-color="#F37E60" stop-opacity="0.24"/>
</radialGradient>
<radialGradient id="paint1_radial_2001_1496" cx="0" cy="0" r="1" gradientUnits="userSpaceOnUse" gradientTransform="translate(20.5002 306.079) rotate(-90) scale(414.383 408.24)">
<stop stop-color="#F37E60" stop-opacity="0.19"/>
<stop offset="1" stop-color="#F37E60" stop-opacity="0.24"/>
</radialGradient>
<radialGradient id="paint2_radial_2001_1496" cx="0" cy="0" r="1" gradientUnits="userSpaceOnUse" gradientTransform="translate(20.5002 327.104) rotate(-90) scale(341.224 335.639)">
<stop stop-color="#F37E60" stop-opacity="0.19"/>
<stop offset="1" stop-color="#F37E60" stop-opacity="0.24"/>
</radialGradient>
<radialGradient id="paint3_radial_2001_1496" cx="0" cy="0" r="1" gradientUnits="userSpaceOnUse" gradientTransform="translate(20.5002 350.772) rotate(-90) scale(262.48 257.454)">
<stop stop-color="#F37E60" stop-opacity="0.19"/>
<stop offset="1" stop-color="#F37E60" stop-opacity="0.24"/>
</radialGradient>
<radialGradient id="paint4_radial_2001_1496" cx="0" cy="0" r="1" gradientUnits="userSpaceOnUse" gradientTransform="translate(20.5002 373.441) rotate(-90) scale(183.736 181.502)">
<stop stop-color="#F37E60" stop-opacity="0.19"/>
<stop offset="1" stop-color="#F37E60" stop-opacity="0.24"/>
</radialGradient>
<radialGradient id="paint5_radial_2001_1496" cx="0" cy="0" r="1" gradientUnits="userSpaceOnUse" gradientTransform="translate(20.5002 393.494) rotate(-90) scale(117.278 115.603)">
<stop stop-color="#F37E60" stop-opacity="0.19"/>
<stop offset="1" stop-color="#F37E60" stop-opacity="0.24"/>
</radialGradient>
<radialGradient id="paint6_radial_2001_1496" cx="0" cy="0" r="1" gradientUnits="userSpaceOnUse" gradientTransform="translate(20.5002 408.275) rotate(-90) scale(65.3407 64.2238)">
<stop stop-color="#F37E60" stop-opacity="0.19"/>
<stop offset="1" stop-color="#F37E60" stop-opacity="0.24"/>
</radialGradient>
<clipPath id="clip0_2001_1496">
<rect width="495" height="428" fill="white"/>
</clipPath>
</defs>
</svg>
