<svg width="320" height="435" viewBox="0 0 320 435" fill="none" xmlns="http://www.w3.org/2000/svg">
<rect width="320" height="435" fill="white"/>
<g clip-path="url(#clip0_2023_12503)">
<path opacity="0.26" d="M-6.5002 -18C232.363 -18 426 178.547 426 421C426 663.453 232.363 860 -6.50012 860C-245.363 860 -439 663.453 -439 421C-439 178.547 -245.363 -18 -6.5002 -18Z" fill="url(#paint0_radial_2023_12503)"/>
<path opacity="0.58" d="M-6.50016 50C195.36 50 359 216.102 359 421C359 625.898 195.36 792 -6.50009 792C-208.36 792 -372 625.898 -372 421C-372 216.102 -208.36 50 -6.50016 50Z" fill="url(#paint1_radial_2023_12503)"/>
<path d="M-6.50014 115C159.461 115 294 251.777 294 420.5C294 589.223 159.462 726 -6.50009 726C-172.462 726 -307 589.223 -307 420.5C-307 251.777 -172.462 115 -6.50014 115Z" fill="url(#paint2_radial_2023_12503)"/>
<path d="M-6.5001 186C120.802 186 224 291.213 224 421C224 550.787 120.802 656 -6.50006 656C-133.802 656 -237 550.787 -237 421C-237 291.213 -133.802 186 -6.5001 186Z" fill="url(#paint3_radial_2023_12503)"/>
<path d="M-6.50007 256C83.2462 256 156 329.649 156 420.5C156 511.351 83.2462 585 -6.50005 585C-96.2463 585 -169 511.351 -169 420.5C-169 329.649 -96.2464 256 -6.50007 256Z" fill="url(#paint4_radial_2023_12503)"/>
<path d="M-6.50004 316C50.6614 316 97 363.01 97 421C97 478.99 50.6615 526 -6.50002 526C-63.6615 526 -110 478.99 -110 421C-110 363.01 -63.6615 316 -6.50004 316Z" fill="url(#paint5_radial_2023_12503)"/>
<path d="M-6.50003 362C25.2564 362 51 388.191 51 420.5C51 452.809 25.2564 479 -6.50002 479C-38.2564 479 -64 452.809 -64 420.5C-64 388.191 -38.2564 362 -6.50003 362Z" fill="url(#paint6_radial_2023_12503)"/>
</g>
<path d="M194.458 50.8994C196.207 54.7222 199.669 57.5235 203.244 59.5627C207.492 61.9839 212.128 63.784 216.809 65.1693C226.596 68.0625 236.911 69.1352 247.092 68.9636C252.151 68.8777 257.206 68.4752 262.216 67.7601C266.844 67.1001 271.66 66.3482 276.059 64.7177C282.681 62.2618 288.471 57.2211 289.704 49.9881C290.899 42.9737 287.505 36.1186 282.515 31.3559C279.375 28.3564 275.605 26.0843 271.721 24.1841C267.41 22.0735 262.88 20.4144 258.236 19.2109C249.928 17.0594 240.756 16.0889 232.299 18.0994C229.197 18.2383 226.104 18.5918 223.062 19.1946C214.167 20.9599 205.896 25.1608 199.697 31.8524C195.014 36.9073 191.332 44.0729 194.454 50.8973L194.458 50.8994ZM205.569 28.5097C212.735 22.9439 221.686 20.3653 230.644 19.7319C235.296 19.403 239.982 19.5705 244.609 20.1385C249.051 20.6841 253.604 21.4115 257.892 22.7171C258.548 22.9173 258.865 21.9018 258.211 21.7016C256.043 21.0416 253.882 20.3735 251.681 19.83C247.074 18.6878 242.245 18.1934 237.509 18.0606C236.837 18.0422 236.165 18.032 235.493 18.032C235.934 17.9748 236.375 17.9237 236.817 17.8828C246.06 17.0083 255.592 18.9841 264.229 22.2104C268.376 23.7591 272.379 25.6839 276.124 28.052C279.467 30.1647 282.538 32.7391 284.83 35.9879C288.498 41.1838 289.941 48.0511 287.027 53.9397C285.552 56.9228 283.167 59.3563 280.362 61.1175C276.805 63.3508 272.802 64.3969 268.73 65.2326C259.227 67.1819 249.454 67.9133 239.765 67.4516C230.039 66.9898 220.266 65.3123 211.182 61.7264C204.36 59.0335 195.09 54.5465 194.738 46.063C194.44 38.8361 200.265 32.6308 205.569 28.5097Z" fill="#F37E60"/>
<path d="M191.042 33.6773C191.087 33.6773 191.085 33.7484 191.04 33.7464C190.996 33.7464 190.998 33.6753 191.042 33.6773Z" fill="#73C3AB"/>
<path d="M179.334 74.5357C179.702 73.4262 180.096 72.327 180.458 71.2155C180.772 70.2511 180.903 68.974 181.444 68.1241C181.694 67.7318 182.454 67.7767 182.517 68.3018C182.638 69.303 182.141 70.4002 181.835 71.3442C181.487 72.4067 181.105 73.4569 180.742 74.5153C180.27 75.8904 179.806 77.2798 179.501 78.6998C180.658 77.6312 181.925 76.6504 183.075 75.5982C184.638 74.17 186.172 72.7111 187.691 71.2338C189.205 69.7607 190.702 68.2671 192.192 66.7694C193.677 65.2737 195.101 63.6412 196.74 62.3131C196.995 62.1047 197.449 62.4112 197.216 62.7074C195.96 64.3155 194.425 65.7294 192.997 67.1821C191.444 68.7636 189.883 70.3369 188.301 71.8897C186.755 73.4099 185.19 74.9117 183.596 76.3828C182.207 77.6639 180.813 79.1023 179.244 80.1852C179.232 80.2894 179.219 80.3957 179.209 80.5019C183.508 80.1403 187.223 77.5842 191.452 76.912C191.777 76.8609 191.883 77.3063 191.571 77.4064C187.253 78.7856 183.171 81.2538 178.588 81.6441C178.281 81.6707 178.055 81.3417 178.055 81.072C178.055 78.8326 178.635 76.6464 179.334 74.5337V74.5357Z" fill="#73C3AB"/>
<path d="M84.3087 107.382C85.4039 112.188 89.288 115.703 93.399 118.083C98.883 121.26 105.164 122.999 111.355 124.153C118.645 125.512 126.089 126.06 133.501 125.962C140.722 125.866 147.986 125.204 155.049 123.669C160.54 122.476 166.269 120.792 170.95 117.58C173.103 116.103 174.852 114.311 176.123 112.017C178.459 107.801 178.671 102.994 176.767 98.5762C174.861 94.1567 171.271 90.5626 167.38 87.8329C163.496 85.1072 158.979 82.9925 154.295 82.1302C147.412 80.8634 140.31 81.5561 133.448 82.6206C126.757 83.6585 120.131 85.1481 113.402 85.9347C115.027 85.6711 116.655 85.43 118.284 85.2012C120.127 84.9417 121.933 84.3921 123.772 84.1469C124.354 84.0692 124.137 83.1804 123.559 83.2581C121.698 83.5074 119.783 83.4134 117.914 83.6483C113.353 84.2225 108.803 84.9458 104.345 86.0818C99.9394 87.2056 95.4729 88.7196 91.6684 91.2675C88.387 93.464 85.7839 96.4308 84.6499 100.264C83.9675 102.569 83.7713 105.027 84.3087 107.385V107.382ZM85.6061 104.187C85.7001 101.359 86.7177 98.519 88.4789 96.2714C91.0064 93.0431 94.8722 91.0162 98.6317 89.5737C102.906 87.935 107.424 86.9481 111.925 86.1779C111.968 86.1697 112.009 86.1636 112.052 86.1574C111.99 86.278 112.058 86.4782 112.219 86.468C115.49 86.2412 118.731 85.8039 121.965 85.2768C128.933 84.1448 135.892 82.6839 142.964 82.3979C148.701 82.1649 154.461 82.6145 159.798 84.8518C164.313 86.7459 168.559 89.5962 171.845 93.2393C174.832 96.5534 177.096 100.793 176.842 105.366C176.646 108.903 174.942 112.429 172.339 114.83C170.674 116.365 168.694 117.527 166.657 118.496C161.234 121.074 155.217 122.398 149.308 123.275C142.253 124.321 135.089 124.619 127.964 124.372C120.976 124.129 113.964 123.342 107.168 121.656C101.662 120.29 96.0266 118.361 91.4559 114.9C87.9865 112.272 85.4631 108.57 85.6082 104.189L85.6061 104.187Z" fill="#73C3AB"/>
<path d="M246.126 74.1107C246.149 73.7368 246.692 73.7613 246.705 74.1312C246.872 79.7889 248.611 85.1401 249.496 90.6895C250.333 95.9426 250.343 101.218 252.168 106.277C252.346 106.77 251.531 107.076 251.312 106.604C249.05 101.721 249.424 95.9712 248.621 90.7569C247.775 85.2647 245.801 79.7214 246.13 74.1107H246.126Z" fill="#73C3AB"/>
<path d="M241.323 96.1803C242.459 96.6911 243.319 97.6963 244.12 98.6199C245.062 99.7048 245.932 100.847 246.801 101.991C248.323 103.996 249.845 105.984 251.531 107.851C253.427 104.75 254.442 101.184 256.118 97.964C256.336 97.5451 256.935 97.9374 256.733 98.3522C255.012 101.905 254.177 105.845 252.176 109.269C251.952 109.653 251.439 109.643 251.145 109.365C249.144 107.494 247.481 105.271 245.785 103.129C244.923 102.04 244.05 100.955 243.155 99.8908C242.344 98.9263 241.331 98.0008 240.751 96.8729C240.575 96.5337 240.914 95.9964 241.323 96.1782V96.1803Z" fill="#73C3AB"/>
<path d="M199.847 148.797C201.831 152.058 205.322 154.061 208.747 155.507C212.384 157.046 216.235 158.004 220.07 158.901C229.743 161.163 239.5 162.918 249.413 163.69C260.001 164.516 270.824 164.379 281.255 162.203C283.678 161.696 286.079 161.073 288.435 160.305C290.46 159.643 292.511 158.94 294.323 157.8C297.392 155.871 299.683 152.957 300.929 149.561C303.426 142.766 301.72 134.632 296.892 129.28C293.735 125.78 289.179 123.729 284.816 122.17C279.516 120.276 273.965 119.236 268.421 118.353C265.61 117.906 262.788 117.513 259.977 117.066C259.576 117.003 259.176 116.935 258.775 116.866C258.694 116.794 258.587 116.739 258.455 116.706C256.736 116.285 255.028 115.879 253.283 115.579C251.587 115.286 249.867 115.084 248.14 114.951C244.111 114.348 239.996 114.056 236.012 114.919C236.004 114.919 235.999 114.923 235.991 114.925C233.304 115.109 230.626 115.421 227.974 115.881C219.942 117.268 211.607 120.041 205.435 125.562C204.043 126.806 202.723 128.21 201.681 129.763C200.408 131.661 199.589 133.886 199.046 136.095C198.057 140.12 197.593 145.095 199.845 148.797H199.847ZM203.365 130.357C205.48 127.435 208.428 125.124 211.532 123.339C218.567 119.291 226.848 117.495 234.872 116.837C238.968 116.502 243.096 116.469 247.196 116.751C250.78 116.997 254.48 117.375 257.976 118.231C258.391 118.333 258.714 118.126 258.88 117.836C259.065 117.869 259.249 117.904 259.435 117.936C264.787 118.876 270.181 119.6 275.491 120.768C280.846 121.945 286.165 123.553 290.964 126.258C294.262 128.118 296.91 130.666 298.633 134.064C301.699 140.118 301.575 148.074 297.184 153.474C294.614 156.637 290.971 158.065 287.176 159.224C282.495 160.654 277.657 161.535 272.794 162.052C262.527 163.145 252.092 162.648 241.87 161.343C233.147 160.229 224.453 158.488 215.968 156.171C212.259 155.16 208.491 153.928 205.253 151.809C203.825 150.873 202.464 149.727 201.52 148.287C200.502 146.732 200.082 144.96 199.996 143.117C199.798 138.828 200.811 133.884 203.363 130.357H203.365Z" fill="#73C3AB"/>
<path d="M100.588 190.877C102.88 188.231 105.91 186.229 108.877 184.417C112.469 182.222 116.314 180.516 120.35 179.315C128.676 176.836 137.464 176.477 146.094 176.61C148.246 176.642 150.395 176.708 152.547 176.779C153.454 176.81 153.407 178.22 152.498 178.189C144.186 177.897 135.788 177.692 127.554 179.068C119.788 180.365 112.555 183.252 106.129 187.811C103.64 189.576 100.316 191.999 99.7131 195.207C99.2063 197.902 100.998 200.033 103.086 201.47C105.338 203.02 107.923 204.011 110.479 204.933C114.13 206.249 117.855 207.297 121.661 208.063C130.063 209.751 138.698 210.219 147.253 210.031C151.384 209.941 155.514 209.685 159.629 209.293C162.663 209.003 165.644 208.637 168.584 207.812C173.678 206.384 179.35 203.932 182.611 199.567C184.094 197.583 184.914 195.183 184.587 192.694C184.215 189.858 182.658 187.167 180.69 185.132C176.575 180.876 170.448 179.102 164.8 178.026C158.754 176.871 152.6 176.563 146.481 176.027C145.224 175.917 143.967 175.794 142.715 175.637C142.131 175.563 142.155 174.642 142.748 174.713C148.869 175.453 155.048 175.586 161.165 176.399C167.328 177.216 173.913 178.53 179.078 182.2C183.563 185.385 187.223 191.213 185.443 196.85C183.739 202.244 178.126 205.593 173.19 207.591C166.888 210.143 160.199 210.668 153.472 211.083C144.48 211.637 135.4 211.522 126.473 210.243C119.212 209.203 111.797 207.44 105.158 204.232C102.717 203.051 100.036 201.408 98.8508 198.848C97.537 196.004 98.6547 193.117 100.588 190.886V190.877Z" fill="#73C3AB"/>
<path d="M213.153 198.027C214.82 200.949 217.419 203.27 220.19 205.121C222.936 206.954 225.987 208.413 229.141 209.385C233.218 210.642 237.494 211.447 241.681 212.231C246.349 213.106 251.053 213.803 255.779 214.265C265.102 215.176 274.63 215.239 283.865 213.515C287.044 212.92 290.236 212.144 293.317 211.153C296.29 210.196 299.318 208.975 301.729 206.94C303.909 205.099 305.442 202.324 304.884 199.4C304.261 196.127 301.177 193.757 298.534 192.079C295.264 190.005 291.642 188.422 288.05 187.002C283.414 185.169 278.637 183.712 273.778 182.607C267.215 181.113 260.542 180.255 253.838 179.754C253.989 179.303 253.77 178.712 253.153 178.692C252.16 178.659 251.167 178.612 250.174 178.573C244.339 178.342 238.485 178.202 232.66 178.69C227.102 179.156 220.887 180.016 216.216 183.316C214.291 184.674 212.73 186.511 212.025 188.792C211.063 191.912 211.543 195.211 213.149 198.027H213.153ZM215.09 186.235C216.645 184.493 218.778 183.35 220.942 182.543C226.342 180.529 232.339 180.114 238.05 179.973C240.024 179.924 241.997 179.934 243.969 179.973C244.03 180.03 244.114 180.069 244.222 180.073C246.633 180.163 249.042 180.279 251.447 180.441C260.907 181.074 270.351 182.382 279.458 185.081C284.022 186.434 288.485 188.132 292.78 190.191C295.695 191.591 298.674 193.152 301.043 195.389C302.162 196.448 303.21 197.72 303.603 199.243C303.946 200.577 303.707 202.054 303.098 203.28C301.801 205.891 299.028 207.477 296.46 208.605C293.765 209.79 290.902 210.554 288.048 211.247C284.143 212.193 280.204 212.867 276.199 213.2C267.141 213.954 257.988 213.357 249.008 212.06C244.564 211.418 240.148 210.589 235.77 209.6C232.394 208.84 229.039 208.071 225.868 206.658C220.415 204.226 213.827 199.774 212.992 193.332C212.665 190.814 213.386 188.136 215.088 186.231L215.09 186.235Z" fill="#73C3AB"/>
<path d="M249.472 170.922C250.557 171.057 251.539 171.929 252.426 172.524C253.438 173.202 254.453 173.86 255.418 174.602C255.277 173.431 255.062 172.269 254.956 171.092C254.825 169.631 254.749 168.164 254.666 166.699C254.637 166.204 255.387 166.245 255.428 166.725C255.554 168.205 255.677 169.684 255.861 171.159C255.996 172.242 256.112 173.356 256.38 174.42C256.811 174.02 257.24 173.615 257.632 173.178C258.258 172.483 258.674 171.684 259.228 170.945C259.686 170.33 260.754 170.732 260.497 171.533C259.892 173.421 257.965 174.958 256.37 176.002C255.994 176.247 255.612 175.928 255.526 175.568C255.42 175.65 255.275 175.677 255.101 175.597C253.95 175.076 252.908 174.416 251.84 173.746C250.896 173.155 249.641 172.626 248.987 171.709C248.761 171.388 249.098 170.879 249.474 170.924L249.472 170.922Z" fill="#73C3AB"/>
<path d="M175.941 173.224C176.033 173.156 176.125 173.093 176.217 173.026C176.462 172.635 176.838 172.339 177.157 172.002C177.739 171.387 178.238 170.707 178.728 170.018C179.239 169.301 179.711 168.559 180.132 167.787C180.461 167.184 180.669 166.257 181.209 165.813C181.484 165.586 181.858 165.705 181.965 166.04C182.193 166.765 181.662 167.65 181.352 168.283C180.982 169.035 180.53 169.755 180.032 170.431C182.882 168.584 185.806 166.851 188.685 165.047C192.957 162.37 197.046 159.506 200.828 156.161C201.155 155.871 201.745 156.3 201.447 156.674C198.372 160.519 194.063 163.345 189.958 165.983C186.807 168.01 183.573 169.922 180.442 171.986C182.367 171.51 184.302 171.097 186.292 170.946C187.306 170.868 187.246 172.454 186.237 172.529C182.972 172.768 179.825 173.8 176.654 174.55C175.951 174.715 175.283 173.702 175.941 173.222V173.224Z" fill="#73C3AB"/>
<path d="M133.533 158.394C134.324 160.16 135.055 161.958 135.711 163.778C135.822 164.087 135.954 164.418 136.089 164.759C136.132 159.81 135.777 154.864 135.39 149.931C135.139 146.725 134.859 143.52 134.712 140.308C134.563 137.073 134.369 133.72 134.804 130.502C134.873 129.991 135.566 130.016 135.601 130.529C135.826 133.794 135.789 137.081 135.999 140.351C136.206 143.563 136.465 146.768 136.731 149.976C137.119 154.68 137.479 159.393 137.491 164.111C138.353 161.89 139.348 159.714 140.143 157.467C140.458 156.578 141.863 157.013 141.545 157.906C140.163 161.76 138.19 165.403 137.321 169.43C137.152 170.216 135.885 169.984 135.936 169.193C135.967 168.727 135.989 168.263 136.012 167.797C135.39 166.684 134.982 165.403 134.493 164.242C133.764 162.513 133.049 160.779 132.293 159.062C131.929 158.237 133.163 157.563 133.535 158.392L133.533 158.394Z" fill="#73C3AB"/>
<defs>
<radialGradient id="paint0_radial_2023_12503" cx="0" cy="0" r="1" gradientUnits="userSpaceOnUse" gradientTransform="translate(-6.50003 276.732) rotate(-90) scale(490.335 483.075)">
<stop stop-color="#F37E60" stop-opacity="0.19"/>
<stop offset="1" stop-color="#F37E60" stop-opacity="0.24"/>
</radialGradient>
<radialGradient id="paint1_radial_2023_12503" cx="0" cy="0" r="1" gradientUnits="userSpaceOnUse" gradientTransform="translate(-6.50002 299.079) rotate(-90) scale(414.383 408.24)">
<stop stop-color="#F37E60" stop-opacity="0.19"/>
<stop offset="1" stop-color="#F37E60" stop-opacity="0.24"/>
</radialGradient>
<radialGradient id="paint2_radial_2023_12503" cx="0" cy="0" r="1" gradientUnits="userSpaceOnUse" gradientTransform="translate(-6.50001 320.104) rotate(-90) scale(341.224 335.639)">
<stop stop-color="#F37E60" stop-opacity="0.19"/>
<stop offset="1" stop-color="#F37E60" stop-opacity="0.24"/>
</radialGradient>
<radialGradient id="paint3_radial_2023_12503" cx="0" cy="0" r="1" gradientUnits="userSpaceOnUse" gradientTransform="translate(-6.50002 343.772) rotate(-90) scale(262.48 257.454)">
<stop stop-color="#F37E60" stop-opacity="0.19"/>
<stop offset="1" stop-color="#F37E60" stop-opacity="0.24"/>
</radialGradient>
<radialGradient id="paint4_radial_2023_12503" cx="0" cy="0" r="1" gradientUnits="userSpaceOnUse" gradientTransform="translate(-6.50001 366.441) rotate(-90) scale(183.736 181.502)">
<stop stop-color="#F37E60" stop-opacity="0.19"/>
<stop offset="1" stop-color="#F37E60" stop-opacity="0.24"/>
</radialGradient>
<radialGradient id="paint5_radial_2023_12503" cx="0" cy="0" r="1" gradientUnits="userSpaceOnUse" gradientTransform="translate(-6.50001 386.494) rotate(-90) scale(117.278 115.603)">
<stop stop-color="#F37E60" stop-opacity="0.19"/>
<stop offset="1" stop-color="#F37E60" stop-opacity="0.24"/>
</radialGradient>
<radialGradient id="paint6_radial_2023_12503" cx="0" cy="0" r="1" gradientUnits="userSpaceOnUse" gradientTransform="translate(-6.5 401.275) rotate(-90) scale(65.3407 64.2238)">
<stop stop-color="#F37E60" stop-opacity="0.19"/>
<stop offset="1" stop-color="#F37E60" stop-opacity="0.24"/>
</radialGradient>
<clipPath id="clip0_2023_12503">
<rect width="320" height="435" fill="white"/>
</clipPath>
</defs>
</svg>
