<svg width="320" height="435" viewBox="0 0 320 435" fill="none" xmlns="http://www.w3.org/2000/svg">
<rect width="320" height="435" fill="white"/>
<g clip-path="url(#clip0_2001_3669)">
<path opacity="0.26" d="M-6.5002 -18C232.363 -18 426 178.547 426 421C426 663.453 232.363 860 -6.50012 860C-245.363 860 -439 663.453 -439 421C-439 178.547 -245.363 -18 -6.5002 -18Z" fill="url(#paint0_radial_2001_3669)"/>
<path opacity="0.58" d="M-6.50016 50C195.36 50 359 216.102 359 421C359 625.898 195.36 792 -6.50009 792C-208.36 792 -372 625.898 -372 421C-372 216.102 -208.36 50 -6.50016 50Z" fill="url(#paint1_radial_2001_3669)"/>
<path d="M-6.50014 115C159.461 115 294 251.777 294 420.5C294 589.223 159.462 726 -6.50009 726C-172.462 726 -307 589.223 -307 420.5C-307 251.777 -172.462 115 -6.50014 115Z" fill="url(#paint2_radial_2001_3669)"/>
<path d="M-6.5001 186C120.802 186 224 291.213 224 421C224 550.787 120.802 656 -6.50006 656C-133.802 656 -237 550.787 -237 421C-237 291.213 -133.802 186 -6.5001 186Z" fill="url(#paint3_radial_2001_3669)"/>
<path d="M-6.50007 256C83.2462 256 156 329.649 156 420.5C156 511.351 83.2462 585 -6.50005 585C-96.2463 585 -169 511.351 -169 420.5C-169 329.649 -96.2464 256 -6.50007 256Z" fill="url(#paint4_radial_2001_3669)"/>
<path d="M-6.50004 316C50.6614 316 97 363.01 97 421C97 478.99 50.6615 526 -6.50002 526C-63.6615 526 -110 478.99 -110 421C-110 363.01 -63.6615 316 -6.50004 316Z" fill="url(#paint5_radial_2001_3669)"/>
<path d="M-6.50003 362C25.2564 362 51 388.191 51 420.5C51 452.809 25.2564 479 -6.50002 479C-38.2564 479 -64 452.809 -64 420.5C-64 388.191 -38.2564 362 -6.50003 362Z" fill="url(#paint6_radial_2001_3669)"/>
</g>
<path d="M194.144 53.3478C195.762 56.883 198.962 59.4734 202.269 61.3591C206.197 63.5981 210.484 65.2627 214.813 66.5437C223.863 69.2192 233.401 70.2111 242.816 70.0524C247.495 69.973 252.169 69.6008 256.802 68.9395C261.082 68.3292 265.535 67.6339 269.603 66.1261C275.727 63.855 281.081 59.1938 282.221 52.5052C283.326 46.0187 280.188 39.6796 275.574 35.2753C272.67 32.5016 269.184 30.4006 265.592 28.6434C261.605 26.6916 257.416 25.1574 253.121 24.0445C245.439 22.0549 236.957 21.1574 229.137 23.0166C226.269 23.1451 223.408 23.472 220.595 24.0294C212.37 25.6619 204.721 29.5466 198.989 35.7345C194.658 40.409 191.254 47.0352 194.141 53.346L194.144 53.3478ZM204.419 32.6434C211.045 27.4965 219.323 25.112 227.606 24.5263C231.909 24.2221 236.241 24.377 240.521 24.9023C244.628 25.4068 248.838 26.0794 252.804 27.2868C253.41 27.4719 253.703 26.5329 253.099 26.3477C251.094 25.7374 249.095 25.1196 247.06 24.617C242.799 23.5608 238.335 23.1036 233.955 22.9807C233.333 22.9637 232.712 22.9543 232.09 22.9543C232.498 22.9014 232.906 22.8542 233.314 22.8164C241.862 22.0077 250.676 23.8348 258.663 26.8182C262.499 28.2504 266.2 30.0303 269.663 32.2201C272.755 34.1738 275.594 36.5545 277.714 39.5587C281.106 44.3636 282.44 50.714 279.746 56.1593C278.381 58.9179 276.176 61.1682 273.582 62.7969C270.293 64.8621 266.591 65.8295 262.826 66.6023C254.038 68.4048 245.001 69.0812 236.041 68.6542C227.047 68.2272 218.01 66.676 209.609 63.36C203.301 60.8697 194.728 56.7205 194.403 48.8755C194.127 42.1926 199.514 36.4544 204.419 32.6434Z" fill="#F37E60"/>
<path d="M190.985 37.4219C191.027 37.4219 191.025 37.488 190.983 37.4861C190.942 37.4861 190.944 37.42 190.985 37.4219Z" fill="#73C3AB"/>
<path d="M180.159 75.2048C180.499 74.1789 180.864 73.1623 181.199 72.1345C181.49 71.2427 181.61 70.0618 182.111 69.2758C182.342 68.913 183.045 68.9546 183.103 69.4401C183.215 70.366 182.755 71.3806 182.472 72.2535C182.151 73.236 181.797 74.2072 181.461 75.1859C181.025 76.4575 180.596 77.7424 180.314 79.0555C181.384 78.0673 182.555 77.1604 183.619 76.1873C185.064 74.8666 186.483 73.5176 187.887 72.1515C189.287 70.7892 190.672 69.408 192.05 68.0231C193.423 66.64 194.74 65.1303 196.255 63.9022C196.492 63.7095 196.911 63.9929 196.696 64.2669C195.534 65.7538 194.115 67.0613 192.794 68.4047C191.358 69.8671 189.915 71.322 188.452 72.758C187.022 74.1637 185.574 75.5525 184.101 76.9129C182.816 78.0976 181.527 79.4277 180.076 80.4291C180.065 80.5255 180.054 80.6237 180.044 80.722C184.019 80.3876 187.454 78.0239 191.366 77.4023C191.666 77.355 191.764 77.7669 191.475 77.8595C187.483 79.1349 183.708 81.4173 179.47 81.7782C179.186 81.8028 178.977 81.4986 178.977 81.2492C178.977 79.1783 179.513 77.1566 180.159 75.2029V75.2048Z" fill="#73C3AB"/>
<path d="M92.2855 105.579C93.2982 110.023 96.89 113.273 100.692 115.474C105.763 118.412 111.571 120.02 117.296 121.088C124.038 122.344 130.921 122.851 137.776 122.76C144.453 122.671 151.17 122.059 157.702 120.64C162.779 119.537 168.077 117.98 172.405 115.01C174.397 113.643 176.014 111.986 177.189 109.865C179.349 105.967 179.546 101.521 177.785 97.4359C176.022 93.349 172.702 90.0255 169.104 87.5012C165.513 84.9807 161.335 83.0251 157.004 82.2278C150.639 81.0563 144.071 81.6968 137.727 82.6812C131.539 83.6411 125.411 85.0185 119.189 85.7459C120.691 85.5022 122.197 85.2792 123.703 85.0676C125.407 84.8276 127.078 84.3194 128.778 84.0927C129.317 84.0209 129.116 83.1989 128.582 83.2707C126.86 83.5013 125.09 83.4143 123.361 83.6316C119.144 84.1626 114.936 84.8314 110.813 85.8819C106.74 86.9211 102.609 88.3212 99.0912 90.6773C96.0568 92.7085 93.6496 95.452 92.601 98.9966C91.9699 101.128 91.7885 103.401 92.2855 105.581V105.579ZM93.4853 102.624C93.5722 100.009 94.5131 97.383 96.1418 95.3046C98.479 92.3193 102.054 90.445 105.53 89.111C109.483 87.5957 113.661 86.6831 117.823 85.9708C117.863 85.9632 117.901 85.9575 117.94 85.9519C117.884 86.0633 117.946 86.2485 118.095 86.2391C121.12 86.0293 124.117 85.625 127.108 85.1375C133.551 84.0908 139.986 82.7398 146.526 82.4753C151.831 82.2599 157.158 82.6756 162.093 84.7445C166.268 86.496 170.195 89.1318 173.233 92.5007C175.995 95.5653 178.089 99.4859 177.854 103.714C177.673 106.985 176.097 110.246 173.69 112.466C172.15 113.885 170.319 114.96 168.436 115.856C163.421 118.241 157.857 119.465 152.392 120.275C145.868 121.243 139.244 121.519 132.655 121.29C126.193 121.065 119.709 120.338 113.425 118.779C108.332 117.515 103.121 115.731 98.8947 112.531C95.6865 110.101 93.353 106.677 93.4871 102.626L93.4853 102.624Z" fill="#73C3AB"/>
<path d="M241.921 74.8122C241.941 74.4664 242.444 74.4891 242.455 74.8311C242.61 80.0629 244.218 85.0114 245.036 90.1431C245.811 95.0009 245.821 99.8794 247.508 104.558C247.672 105.013 246.918 105.296 246.716 104.86C244.624 100.344 244.97 95.0273 244.228 90.2054C243.445 85.1266 241.62 80.0006 241.924 74.8122H241.921Z" fill="#73C3AB"/>
<path d="M237.479 95.2203C238.53 95.6927 239.325 96.6223 240.066 97.4763C240.937 98.4796 241.742 99.5358 242.545 100.594C243.952 102.447 245.36 104.286 246.919 106.013C248.672 103.145 249.611 99.8476 251.161 96.8698C251.363 96.4825 251.916 96.8452 251.729 97.2288C250.138 100.515 249.366 104.157 247.516 107.324C247.308 107.679 246.834 107.67 246.562 107.413C244.712 105.682 243.174 103.626 241.606 101.646C240.808 100.639 240.002 99.6359 239.174 98.6515C238.424 97.7597 237.487 96.9038 236.95 95.8608C236.788 95.5472 237.101 95.0503 237.479 95.2184V95.2203Z" fill="#73C3AB"/>
<path d="M199.131 143.878C200.966 146.893 204.195 148.745 207.361 150.083C210.724 151.505 214.286 152.391 217.833 153.221C226.777 155.313 235.799 156.936 244.967 157.65C254.758 158.413 264.766 158.287 274.412 156.274C276.653 155.806 278.873 155.229 281.051 154.519C282.924 153.907 284.821 153.257 286.497 152.203C289.335 150.419 291.453 147.725 292.605 144.584C294.914 138.3 293.336 130.778 288.872 125.83C285.953 122.593 281.739 120.696 277.705 119.254C272.804 117.503 267.67 116.541 262.544 115.725C259.944 115.311 257.335 114.948 254.735 114.535C254.365 114.476 253.995 114.414 253.624 114.349C253.549 114.283 253.45 114.232 253.328 114.202C251.739 113.813 250.159 113.437 248.545 113.159C246.977 112.889 245.386 112.702 243.79 112.579C240.064 112.022 236.258 111.751 232.574 112.549C232.566 112.549 232.563 112.553 232.555 112.554C230.07 112.725 227.593 113.014 225.141 113.439C217.714 114.722 210.007 117.286 204.298 122.391C203.012 123.542 201.791 124.84 200.828 126.276C199.65 128.031 198.893 130.089 198.39 132.131C197.476 135.853 197.047 140.454 199.129 143.878H199.131ZM202.384 126.825C204.34 124.124 207.067 121.987 209.937 120.335C216.442 116.592 224.1 114.931 231.52 114.323C235.308 114.013 239.125 113.983 242.917 114.244C246.231 114.47 249.653 114.82 252.885 115.612C253.269 115.706 253.568 115.515 253.721 115.247C253.893 115.277 254.063 115.309 254.235 115.34C259.183 116.209 264.171 116.878 269.082 117.958C274.034 119.047 278.952 120.534 283.391 123.035C286.44 124.755 288.889 127.111 290.482 130.253C293.318 135.851 293.202 143.209 289.142 148.203C286.765 151.127 283.396 152.448 279.887 153.519C275.559 154.842 271.085 155.656 266.588 156.134C257.093 157.145 247.444 156.686 237.991 155.479C229.925 154.449 221.885 152.839 214.039 150.697C210.609 149.761 207.125 148.622 204.13 146.663C202.81 145.797 201.551 144.737 200.678 143.405C199.737 141.967 199.348 140.329 199.269 138.625C199.086 134.659 200.023 130.087 202.383 126.825H202.384Z" fill="#73C3AB"/>
<path d="M107.336 182.79C109.456 180.343 112.258 178.491 115.001 176.816C118.323 174.786 121.879 173.209 125.611 172.098C133.31 169.806 141.436 169.473 149.417 169.596C151.407 169.626 153.395 169.687 155.384 169.753C156.223 169.781 156.18 171.085 155.339 171.056C147.653 170.786 139.887 170.597 132.273 171.869C125.091 173.069 118.402 175.739 112.46 179.954C110.159 181.586 107.085 183.827 106.527 186.794C106.059 189.286 107.716 191.256 109.647 192.585C111.729 194.019 114.119 194.935 116.483 195.787C119.859 197.004 123.304 197.973 126.824 198.682C134.593 200.243 142.578 200.675 150.489 200.502C154.309 200.418 158.128 200.182 161.933 199.819C164.739 199.551 167.496 199.213 170.215 198.45C174.925 197.129 180.17 194.862 183.186 190.826C184.557 188.991 185.315 186.771 185.013 184.47C184.669 181.847 183.229 179.359 181.41 177.477C177.604 173.541 171.938 171.901 166.715 170.905C161.124 169.838 155.433 169.552 149.775 169.057C148.613 168.955 147.451 168.842 146.292 168.697C145.752 168.629 145.775 167.776 146.323 167.843C151.983 168.527 157.697 168.649 163.354 169.401C169.053 170.157 175.142 171.372 179.919 174.765C184.066 177.711 187.45 183.1 185.804 188.313C184.229 193.301 179.038 196.398 174.473 198.246C168.646 200.605 162.46 201.091 156.24 201.475C147.925 201.987 139.528 201.881 131.273 200.698C124.558 199.736 117.701 198.106 111.563 195.139C109.305 194.047 106.826 192.528 105.73 190.161C104.515 187.531 105.548 184.861 107.336 182.797V182.79Z" fill="#73C3AB"/>
<path d="M211.429 189.402C212.971 192.104 215.375 194.25 217.937 195.962C220.476 197.657 223.297 199.006 226.214 199.905C229.984 201.067 233.938 201.812 237.81 202.537C242.127 203.346 246.477 203.99 250.847 204.417C259.468 205.26 268.279 205.318 276.819 203.724C279.759 203.174 282.711 202.456 285.56 201.54C288.309 200.655 291.109 199.525 293.339 197.644C295.355 195.941 296.772 193.375 296.256 190.672C295.68 187.645 292.828 185.453 290.384 183.902C287.36 181.984 284.01 180.52 280.689 179.206C276.402 177.512 271.984 176.164 267.491 175.142C261.422 173.761 255.251 172.967 249.052 172.505C249.192 172.087 248.99 171.541 248.419 171.522C247.501 171.492 246.583 171.448 245.664 171.412C240.268 171.199 234.855 171.069 229.468 171.52C224.329 171.951 218.581 172.746 214.262 175.798C212.482 177.054 211.038 178.753 210.386 180.862C209.497 183.747 209.941 186.798 211.426 189.402H211.429ZM213.221 178.498C214.659 176.886 216.631 175.83 218.632 175.084C223.626 173.221 229.171 172.837 234.452 172.707C236.277 172.661 238.103 172.671 239.926 172.707C239.983 172.76 240.06 172.796 240.16 172.799C242.39 172.882 244.617 172.99 246.841 173.139C255.589 173.725 264.322 174.934 272.744 177.43C276.965 178.681 281.091 180.251 285.063 182.156C287.759 183.45 290.514 184.894 292.704 186.963C293.739 187.941 294.708 189.118 295.071 190.526C295.389 191.76 295.168 193.126 294.605 194.26C293.405 196.674 290.841 198.14 288.466 199.183C285.974 200.279 283.326 200.986 280.687 201.626C277.076 202.501 273.433 203.125 269.73 203.433C261.354 204.13 252.889 203.578 244.585 202.378C240.476 201.785 236.393 201.018 232.344 200.104C229.222 199.401 226.12 198.69 223.187 197.383C218.145 195.134 212.053 191.017 211.28 185.06C210.978 182.732 211.645 180.255 213.219 178.494L213.221 178.498Z" fill="#73C3AB"/>
<path d="M245.016 164.337C246.019 164.462 246.928 165.269 247.748 165.818C248.683 166.446 249.622 167.054 250.514 167.74C250.384 166.657 250.185 165.582 250.087 164.494C249.966 163.143 249.896 161.786 249.819 160.432C249.792 159.974 250.486 160.012 250.523 160.456C250.641 161.824 250.754 163.192 250.924 164.556C251.049 165.558 251.156 166.587 251.404 167.572C251.803 167.201 252.199 166.827 252.562 166.423C253.14 165.781 253.526 165.042 254.038 164.358C254.461 163.789 255.449 164.161 255.211 164.902C254.652 166.648 252.87 168.069 251.394 169.034C251.047 169.261 250.693 168.966 250.614 168.634C250.516 168.709 250.382 168.734 250.221 168.66C249.157 168.178 248.194 167.568 247.206 166.948C246.333 166.402 245.173 165.913 244.568 165.064C244.358 164.768 244.67 164.297 245.018 164.339L245.016 164.337Z" fill="#73C3AB"/>
<path d="M177.022 166.466C177.108 166.403 177.193 166.345 177.278 166.282C177.504 165.921 177.852 165.648 178.147 165.336C178.685 164.767 179.146 164.138 179.6 163.501C180.072 162.838 180.509 162.152 180.898 161.438C181.202 160.88 181.395 160.023 181.893 159.613C182.149 159.403 182.494 159.512 182.593 159.822C182.804 160.493 182.313 161.311 182.026 161.897C181.684 162.592 181.266 163.257 180.805 163.883C183.441 162.175 186.145 160.572 188.807 158.904C192.758 156.429 196.539 153.78 200.036 150.687C200.338 150.419 200.884 150.815 200.608 151.161C197.765 154.717 193.78 157.33 189.984 159.769C187.071 161.644 184.08 163.412 181.185 165.321C182.965 164.88 184.754 164.499 186.594 164.359C187.532 164.287 187.477 165.753 186.543 165.823C183.524 166.044 180.614 166.998 177.682 167.692C177.032 167.845 176.414 166.908 177.022 166.464V166.466Z" fill="#73C3AB"/>
<path d="M137.802 152.752C138.533 154.384 139.21 156.047 139.816 157.731C139.918 158.016 140.041 158.322 140.166 158.637C140.205 154.061 139.877 149.487 139.519 144.926C139.287 141.961 139.028 138.997 138.892 136.027C138.754 133.036 138.575 129.935 138.977 126.959C139.041 126.487 139.682 126.509 139.714 126.984C139.922 130.003 139.888 133.043 140.083 136.066C140.273 139.036 140.513 142.001 140.759 144.967C141.118 149.317 141.45 153.676 141.462 158.039C142.259 155.985 143.179 153.972 143.914 151.894C144.205 151.072 145.505 151.475 145.21 152.3C143.933 155.864 142.108 159.233 141.305 162.957C141.148 163.684 139.977 163.469 140.024 162.738C140.052 162.307 140.073 161.878 140.094 161.447C139.519 160.417 139.142 159.233 138.69 158.159C138.015 156.561 137.354 154.957 136.655 153.37C136.319 152.606 137.46 151.983 137.804 152.75L137.802 152.752Z" fill="#73C3AB"/>
<defs>
<radialGradient id="paint0_radial_2001_3669" cx="0" cy="0" r="1" gradientUnits="userSpaceOnUse" gradientTransform="translate(-6.50003 276.732) rotate(-90) scale(490.335 483.075)">
<stop stop-color="#F37E60" stop-opacity="0.19"/>
<stop offset="1" stop-color="#F37E60" stop-opacity="0.24"/>
</radialGradient>
<radialGradient id="paint1_radial_2001_3669" cx="0" cy="0" r="1" gradientUnits="userSpaceOnUse" gradientTransform="translate(-6.50002 299.079) rotate(-90) scale(414.383 408.24)">
<stop stop-color="#F37E60" stop-opacity="0.19"/>
<stop offset="1" stop-color="#F37E60" stop-opacity="0.24"/>
</radialGradient>
<radialGradient id="paint2_radial_2001_3669" cx="0" cy="0" r="1" gradientUnits="userSpaceOnUse" gradientTransform="translate(-6.50001 320.104) rotate(-90) scale(341.224 335.639)">
<stop stop-color="#F37E60" stop-opacity="0.19"/>
<stop offset="1" stop-color="#F37E60" stop-opacity="0.24"/>
</radialGradient>
<radialGradient id="paint3_radial_2001_3669" cx="0" cy="0" r="1" gradientUnits="userSpaceOnUse" gradientTransform="translate(-6.50002 343.772) rotate(-90) scale(262.48 257.454)">
<stop stop-color="#F37E60" stop-opacity="0.19"/>
<stop offset="1" stop-color="#F37E60" stop-opacity="0.24"/>
</radialGradient>
<radialGradient id="paint4_radial_2001_3669" cx="0" cy="0" r="1" gradientUnits="userSpaceOnUse" gradientTransform="translate(-6.50001 366.441) rotate(-90) scale(183.736 181.502)">
<stop stop-color="#F37E60" stop-opacity="0.19"/>
<stop offset="1" stop-color="#F37E60" stop-opacity="0.24"/>
</radialGradient>
<radialGradient id="paint5_radial_2001_3669" cx="0" cy="0" r="1" gradientUnits="userSpaceOnUse" gradientTransform="translate(-6.50001 386.494) rotate(-90) scale(117.278 115.603)">
<stop stop-color="#F37E60" stop-opacity="0.19"/>
<stop offset="1" stop-color="#F37E60" stop-opacity="0.24"/>
</radialGradient>
<radialGradient id="paint6_radial_2001_3669" cx="0" cy="0" r="1" gradientUnits="userSpaceOnUse" gradientTransform="translate(-6.5 401.275) rotate(-90) scale(65.3407 64.2238)">
<stop stop-color="#F37E60" stop-opacity="0.19"/>
<stop offset="1" stop-color="#F37E60" stop-opacity="0.24"/>
</radialGradient>
<clipPath id="clip0_2001_3669">
<rect width="320" height="435" fill="white"/>
</clipPath>
</defs>
</svg>
