<svg width="1284" height="218" viewBox="0 0 1284 218" fill="none" xmlns="http://www.w3.org/2000/svg">
<rect width="1284" height="218" fill="#6683C2"/>
<g clip-path="url(#clip0_2086_12)">
<path d="M1122.73 123.437C1061.58 127.958 1015.72 181.958 1020.31 244.05C1024.9 306.142 1078.2 352.813 1139.35 348.292C1200.51 343.771 1246.37 289.771 1241.78 227.679C1237.19 165.587 1183.89 118.916 1122.73 123.437Z" fill="#5A79BC"/>
<path d="M1194.03 40.1704C1156.65 58.9932 1141.86 105.056 1161 143.054C1180.14 181.053 1225.95 196.598 1263.33 177.775C1300.7 158.952 1315.49 112.889 1296.35 74.891C1277.21 36.8925 1231.4 21.3476 1194.03 40.1704Z" fill="#6F8CCA"/>
<path d="M1140.28 -3.82074C1132.41 0.144279 1129.29 9.84738 1133.32 17.8517C1137.35 25.8561 1147 29.1306 1154.88 25.1656C1162.75 21.2006 1165.86 11.4975 1161.83 3.49314C1157.8 -4.51123 1148.15 -7.78576 1140.28 -3.82074Z" fill="#5A79BC"/>
<g opacity="0.61">
<path d="M631.49 -134.99C480.874 -133.735 359.755 -10.1051 361.01 140.51C362.265 291.126 485.895 412.245 636.51 410.99C787.126 409.735 908.246 286.105 906.99 135.49C905.735 -15.1256 782.105 -136.245 631.49 -134.99ZM635.255 287.988C552.417 288.615 484.64 222.094 483.385 139.255C482.757 56.4167 549.279 -11.3602 632.117 -11.9878C714.956 -12.6154 782.733 53.9064 783.36 136.745C785.243 219.583 718.094 287.36 635.255 287.988Z" fill="#5A79BC"/>
<path d="M633.332 69.5996C595.678 70.2272 565.555 100.978 565.555 138.632C566.182 176.285 596.933 206.409 634.587 206.409C672.241 205.781 702.364 175.03 702.364 137.377C702.364 99.7227 670.985 69.5996 633.332 69.5996Z" fill="#5A79BC"/>
</g>
</g>
<g clip-path="url(#clip1_2086_12)">
<path d="M163.269 123.437C224.425 127.958 270.28 181.958 265.69 244.05C261.1 306.142 207.803 352.813 146.647 348.292C85.4908 343.771 39.635 289.771 44.2249 227.679C48.8149 165.587 102.112 118.916 163.269 123.437Z" fill="#5A79BC"/>
<path d="M91.9739 40.1714C129.35 58.9942 144.135 105.057 124.999 143.055C105.862 181.054 60.05 196.599 22.6744 177.776C-14.7011 158.953 -29.4868 112.89 -10.3502 74.892C8.78631 36.8935 54.5984 21.3485 91.9739 40.1714Z" fill="#6F8CCA"/>
<path d="M145.721 -3.82074C153.594 0.144279 156.708 9.84738 152.677 17.8517C148.646 25.8561 138.996 29.1306 131.123 25.1656C123.25 21.2006 120.135 11.4975 124.166 3.49314C128.197 -4.51123 137.848 -7.78576 145.721 -3.82074Z" fill="#5A79BC"/>
</g>
<defs>
<clipPath id="clip0_2086_12">
<rect width="1260" height="218" fill="white" transform="translate(24)"/>
</clipPath>
<clipPath id="clip1_2086_12">
<rect width="296" height="218" fill="white" transform="matrix(-1 0 0 1 298 0)"/>
</clipPath>
</defs>
</svg>
