<svg width="111" height="111" fill="none" xmlns="http://www.w3.org/2000/svg"><circle cx="55.5" cy="55.5" r="55.5" fill="#6683C2"/><g clip-path="url(#a)"><path d="M55.203 27.383 11.768 23.94a4.532 4.532 0 0 0-4.88 4.161L2.709 80.91a4.542 4.542 0 0 0 4.162 4.888L37.193 88.2a9.095 9.095 0 0 0 7.647 5.508l.999.082A9 9 0 0 0 50 93.113l5.203-65.73Z" fill="#93AED0"/><path d="M100.735 35.541 96.548 88.35a4.54 4.54 0 0 1-4.88 4.17l-30.322-2.403a9.156 9.156 0 0 1-3.617 3.286 9.07 9.07 0 0 1-4.797.95l-1-.083a9.095 9.095 0 0 1-7.646-5.508L13.964 86.36a4.541 4.541 0 0 1-4.162-4.889l4.187-52.807a4.533 4.533 0 0 1 4.88-4.162l77.704 6.152a4.553 4.553 0 0 1 4.162 4.888Z" fill="#C7E0FF"/><path d="m19.15 24.526-.289-.025a4.534 4.534 0 0 0-4.88 4.162L9.794 81.47a4.542 4.542 0 0 0 4.162 4.889l.29.024 4.904-61.857Zm77.134 6.11.29.025a4.535 4.535 0 0 1 4.161 4.88L96.548 88.35a4.54 4.54 0 0 1-4.88 4.17l-.289-.025 4.905-61.858Z" fill="#81ABDD"/><path d="M93.997 26.978 89.72 80.975a1.871 1.871 0 0 1-2.015 1.717l-27.069-2.147a7.1 7.1 0 0 0-7.646 6.524l4.575-57.729c.314-3.914 3.732-6.837 7.646-6.523l27.069 2.147a1.87 1.87 0 0 1 1.717 2.014Z" fill="#fff"/><path d="M74.044 66.676a.8.8 0 0 0 .242-1.14l-.242 1.14Zm0 0-4.428 2.84m4.428-2.84-4.428 2.84m3.432-4.214-4.428 2.84a.8.8 0 0 0-.242 1.14l4.67-3.98Zm0 0a.918.918 0 0 1 1.238.234l-1.238-.234Zm-3.432 4.214a.918.918 0 0 1-1.238-.233l1.238.233Zm9.742-9.795h-.5v2.009c0 .44-.377.83-.884.83s-.884-.39-.884-.83v-2.01h-2.068c-.507 0-.884-.39-.884-.83 0-.441.377-.831.884-.831h2.068v-2.01c0-.44.377-.83.884-.83s.884.39.884.83v2.01h2.068c.507 0 .884.39.884.83 0 .442-.377.832-.884.832h-1.568Zm2.2-13.74a.923.923 0 0 1-1.264 0l-1.604-1.543-.347-.334-.347.334-1.604 1.543a.923.923 0 0 1-1.264 0 .796.796 0 0 1 0-1.161l1.605-1.544.374-.36-.374-.36-1.605-1.544a.796.796 0 0 1 0-1.162.923.923 0 0 1 1.264 0l1.604 1.543.347.334.347-.334 1.604-1.543a.923.923 0 0 1 1.264 0 .796.796 0 0 1 0 1.162l-1.605 1.543-.374.36.374.361 1.605 1.543a.796.796 0 0 1 0 1.162Zm-12.546 9.94a.923.923 0 0 1-1.264 0l-5.996-5.769a.796.796 0 0 1 0-1.162.923.923 0 0 1 1.264 0l5.996 5.769a.796.796 0 0 1 0 1.162Zm15.78 13.722-.619.12a9.544 9.544 0 0 0-4.83 2.487.923.923 0 0 1-1.263 0 .796.796 0 0 1 0-1.162 11.337 11.337 0 0 1 5.74-2.954l.619-.12c.57-.109 1.061.311 1.061.817 0 .373-.276.73-.707.812ZM78.08 32.75a.923.923 0 0 1 1.264 0 9.543 9.543 0 0 0 4.83 2.487l.619.12.087-.456-.087.456c.43.083.707.44.707.813 0 .505-.491.925-1.061.815l-.62-.119a11.337 11.337 0 0 1-5.739-2.954l-.346.36.346-.36a.796.796 0 0 1 0-1.162Zm-7.592 6.39a.796.796 0 0 1 0 1.162.923.923 0 0 1-1.264 0l-1.476-1.42a.796.796 0 0 1 0-1.162.923.923 0 0 1 1.264 0l1.476 1.42Zm-8.104 16.077c.506 0 .883.39.883.831 0 .441-.377.832-.883.832-.503 0-.884-.386-.884-.832 0-.44.377-.831.884-.831Zm6.734-5.437c-.507 0-.884-.39-.884-.83 0-.446.38-.833.884-.833.507 0 .884.39.884.832 0 .44-.378.831-.884.831Z" fill="#727E99" stroke="#fff"/><path d="m57.573 29.348-4.575 57.729a7.098 7.098 0 0 0-6.515-7.647l-27.068-2.147a1.87 1.87 0 0 1-1.718-2.014l4.278-53.997a1.87 1.87 0 0 1 2.014-1.717l27.069 2.147c3.914.305 6.829 3.732 6.515 7.646Z" fill="#fff"/><path d="M46.224 59.714a.39.39 0 0 0-.614.48l1.46 1.87-7.548-.925c2.125-.665 4.15-2.139 5.904-4.347 2.77-3.473 4.683-8.569 5.39-14.346a.39.39 0 0 0-.775-.095c-1.354 11.054-7.189 18.856-13.669 18.39l2.307-18.83 1.462 1.867a.39.39 0 0 0 .614-.48l-2.042-2.612a.39.39 0 0 0-.547-.067l-2.612 2.042a.39.39 0 0 0 .48.614l1.87-1.46-2.307 18.832c-6.4-1.113-10.18-10.093-8.826-21.146a.39.39 0 1 0-.776-.095c-.707 5.777-.08 11.184 1.769 15.223 1.17 2.566 2.779 4.485 4.68 5.643l-8.484-1.039a.391.391 0 0 0-.095.776L35.5 61.434l-.427 3.49a.39.39 0 1 0 .775.095l.428-3.49 10.698 1.31-1.867 1.462a.39.39 0 1 0 .48.614l2.611-2.042a.39.39 0 0 0 .068-.547l-2.042-2.612Z" fill="#727E99"/><path d="m32.82 41.543-.129 1.045a.391.391 0 0 0 .776.095l.128-1.045.84-.98a.391.391 0 0 0-.59-.51l-.538.624-.37-.734a.39.39 0 1 0-.697.351l.58 1.154Zm10.55 21.709a.39.39 0 0 0-.551.04l-.537.624-.37-.734a.39.39 0 0 0-.697.351l.516 1.026-.748.87a.39.39 0 0 0 .32.66.39.39 0 0 0 .27-.15l.538-.625.37.736a.391.391 0 1 0 .697-.351l-.516-1.026.748-.87a.391.391 0 0 0-.04-.551Z" fill="#727E99"/><path d="m55.17 23.436-4.575 57.729a7.076 7.076 0 0 1 2.403 5.904l4.575-57.729a7.11 7.11 0 0 0-2.403-5.904Zm-30.273-3.807-.9-.074a1.87 1.87 0 0 0-2.014 1.717L17.705 75.27a1.87 1.87 0 0 0 1.718 2.014l.9.075 4.574-57.729Zm35.987 4.261-4.575 57.729a7.078 7.078 0 0 0-3.303 5.45l4.575-57.729a7.092 7.092 0 0 1 3.303-5.45Zm30.495 1.007.9.075a1.87 1.87 0 0 1 1.718 2.015l-4.278 53.996a1.871 1.871 0 0 1-2.014 1.718l-.9-.075 4.574-57.729Z" fill="#EDEDED"/><path d="M101.352 101.091a.398.398 0 0 1-.104-.769l1.839-.703a.399.399 0 0 1 .285.745l-1.839.703a.396.396 0 0 1-.181.024Z" fill="#B6ABDE"/><path d="M102.059 106.663a.4.4 0 0 1-.335-.255l-.776-2.032a.4.4 0 0 1 .098-.433.402.402 0 0 1 .437-.074.392.392 0 0 1 .21.222l.777 2.033a.402.402 0 0 1-.411.539Z" fill="#88B9D4"/><path d="m101.848 95.525-16.197-1.578a.737.737 0 1 1 .143-1.467l16.197 1.578a.737.737 0 1 1-.143 1.467Z" fill="#C7E0FF"/><path d="m93.514 84.974 2.505-.958 2.988 7.815c2.181 5.704 2.882 10.032 3.076 10.826a2.207 2.207 0 0 1-.49 1.942.362.362 0 0 1-.615-.104l-7.464-19.52ZM102.951 98.243a.859.859 0 0 0-.496 1.11l.591 1.545a.86.86 0 1 0 1.605-.614l-.59-1.545a.86.86 0 0 0-1.11-.496Z" fill="#F37E60"/><path d="M82.396 104.748a.4.4 0 0 1-.299-.609l1.897-3.028a.398.398 0 0 1 .548-.124.4.4 0 0 1 .128.547l-1.897 3.029a.4.4 0 0 1-.377.185Z" fill="#81ABDD"/><path d="m84.316 99.84-1.258 2.009a.802.802 0 1 0 1.36.852l1.259-2.01-1.36-.852Z" fill="#F37E60"/><path d="m85.04 101.775-1.402-.878a.5.5 0 0 1-.228-.32.517.517 0 0 1 .065-.388L93.74 83.794l2.273 1.423-10.265 16.395a.514.514 0 0 1-.709.163Z" fill="#F37E60"/><path d="m96.144 85.037-2.872-.28.494-5.065a.796.796 0 0 1 .869-.715l1.288.126a.796.796 0 0 1 .715.869l-.494 5.065Z" fill="#C7E0FF"/><path d="M94.41 87.97a3.087 3.087 0 1 0 .598-6.145 3.087 3.087 0 0 0-.599 6.144Z" fill="#73A9EA"/><path d="M95.008 81.825a3.086 3.086 0 0 0-.934.05 3.088 3.088 0 0 1-.571 5.865 3.087 3.087 0 1 0 1.505-5.915Z" fill="#73A9EA"/><path d="M94.607 85.93a1.038 1.038 0 1 0 .202-2.066 1.038 1.038 0 0 0-.202 2.066Z" fill="#C7EEFB"/><path d="M16.67 67.61 3.224 101.895a.614.614 0 0 0 .864.763l1.756-.956.22-.523.56.099.584-.318.33-.582.45.158.584-.318.266-.548.514.123.585-.318.287-.56.493.136.584-.318.247-.475.533.05.584-.318.22-.523.56.099.584-.318.221-.523.56.099.583-.318.195-.415.585-.01.585-.318.22-.523.56.099.584-.318.247-.475.533.05.584-.318.221-.523.56.099.583-.318.317-.512.463.087.585-.317.314-.48.466.055.584-.318.26-.45.52.026.584-.318.247-.475.533.05.584-.318.198-.415.582-.01.584-.317.277-.553.504.128.404-.22a.614.614 0 0 0 .246-.832L17.779 67.54a.614.614 0 0 0-1.11.07Zm4.953 18.546a.592.592 0 0 1-.237.803l-6.673 3.632a.592.592 0 0 1-.835-.737l3.623-9.238a.592.592 0 0 1 1.071-.066l3.051 5.606Z" fill="#F2C45B"/><path d="M16.67 67.61 3.224 101.895a.614.614 0 0 0 .864.763l1.756-.956.22-.523.56.099.584-.318.33-.582.45.158.584-.318.266-.548.514.123.585-.318.287-.56.493.136.584-.318.247-.475.533.05.584-.318.22-.523.56.099.584-.318.221-.523.56.099.583-.318.195-.415.585-.01.585-.318.22-.523.56.099.584-.318.247-.475.533.05.584-.318.221-.523.56.099.583-.318.317-.512.463.087.585-.317.314-.48.466.055.584-.318.26-.45.52.026.584-.318.247-.475.533.05.584-.318.198-.415.582-.01.584-.317.277-.553.504.128.404-.22a.614.614 0 0 0 .246-.832L17.779 67.54a.614.614 0 0 0-1.11.07Zm4.953 18.546a.592.592 0 0 1-.237.803l-6.673 3.632a.592.592 0 0 1-.835-.737l3.623-9.238a.592.592 0 0 1 1.071-.066l3.051 5.606Z" stroke="#727E99"/><path d="m16.67 67.61-.776 1.976 10.895 20.02a.612.612 0 0 1 .022.54l.277-.003.585-.319.276-.553.503.13.405-.221a.614.614 0 0 0 .246-.832L17.78 67.54a.614.614 0 0 0-1.11.07Z" fill="#FFDF94"/><path d="m16.67 67.61-.776 1.976 10.895 20.02a.612.612 0 0 1 .022.54l.277-.003.585-.319.276-.553.503.13.405-.221a.614.614 0 0 0 .246-.832L17.78 67.54a.614.614 0 0 0-1.11.07Z" stroke="#727E99"/><path d="m13.376 81.192-2.458 6.268a.415.415 0 0 0 .235.537l.755.296a.414.414 0 0 0 .537-.235l2.458-6.268a.414.414 0 0 0-.235-.537l-.755-.296a.414.414 0 0 0-.537.235Z" fill="#81ABDD"/><path d="M27.385 88.368a.445.445 0 0 0-.178.603l.465.854.78-.425-.465-.854a.446.446 0 0 0-.602-.178ZM26.021 89.111a.445.445 0 0 0-.177.602l.464.854.78-.424-.464-.854a.442.442 0 0 0-.603-.178Zm-1.647.222a.442.442 0 0 0-.178.602l.748 1.375.78-.425-.748-1.374a.446.446 0 0 0-.602-.178Zm-1.081 1.263a.443.443 0 0 0-.178.602l.465.854.78-.424-.465-.854a.444.444 0 0 0-.602-.178Zm-1.364.742a.442.442 0 0 0-.178.603l.465.853.78-.424-.465-.854a.444.444 0 0 0-.602-.178Zm-1.648.222a.445.445 0 0 0-.177.603l.747 1.374.78-.425-.747-1.374a.444.444 0 0 0-.603-.178Zm-1.08 1.263a.443.443 0 0 0-.178.602l.464.854.78-.424-.464-.854a.444.444 0 0 0-.603-.178Zm-1.365.743a.445.445 0 0 0-.178.602l.465.854.78-.425-.465-.854a.444.444 0 0 0-.602-.177Zm-1.647.222a.443.443 0 0 0-.178.602l.748 1.374.78-.424-.748-1.375a.445.445 0 0 0-.602-.177Zm-1.082 1.262a.445.445 0 0 0-.177.603l.464.854.78-.425-.464-.854a.445.445 0 0 0-.603-.178Zm-1.364.743a.444.444 0 0 0-.178.602l.465.854.78-.424-.464-.855a.444.444 0 0 0-.603-.177Zm-1.647.222a.444.444 0 0 0-.178.602l.748 1.374.78-.424-.748-1.374a.444.444 0 0 0-.602-.178Zm-1.081 1.263a.442.442 0 0 0-.178.602l.465.854.78-.425-.465-.854a.444.444 0 0 0-.602-.177Zm-1.365.742a.445.445 0 0 0-.177.602l.464.854.78-.424-.464-.854a.442.442 0 0 0-.603-.178Zm-1.647.222a.445.445 0 0 0-.178.602l.748 1.375.78-.425-.748-1.374a.442.442 0 0 0-.602-.178Zm-1.08 1.263a.445.445 0 0 0-.179.602l.465.854.78-.424-.465-.855a.445.445 0 0 0-.602-.177Zm-1.365.742a.452.452 0 0 0-.214.265.44.44 0 0 0 .036.337l.465.854.78-.424-.465-.854a.45.45 0 0 0-.264-.214.437.437 0 0 0-.338.036ZM7.723 97.728a.444.444 0 0 1-.602-.178l-.123-.226a.444.444 0 1 1 .78-.424l.123.225a.444.444 0 0 1-.178.603Zm4.093-2.228a.444.444 0 0 1-.603-.177l-.122-.226a.444.444 0 0 1 .78-.424l.123.225a.444.444 0 0 1-.178.602Zm4.092-2.227a.444.444 0 0 1-.602-.178l-.122-.225a.444.444 0 0 1 .78-.425l.122.226a.442.442 0 0 1-.177.602Zm4.093-2.227a.445.445 0 0 1-.602-.178l-.123-.225a.444.444 0 1 1 .78-.425l.123.225a.444.444 0 0 1-.178.603Zm4.093-2.228a.445.445 0 0 1-.602-.177l-.123-.226a.444.444 0 0 1 .78-.424l.123.225a.445.445 0 0 1-.178.603Z" fill="#574B2F"/></g><defs><clipPath id="a"><path fill="#fff" transform="translate(1 1)" d="M0 0h109v109H0z"/></clipPath></defs></svg>