<svg width="608" height="404" fill="none" xmlns="http://www.w3.org/2000/svg"><path d="M525.415 168.064H398.948c-45.222 0-81.949 36.671-81.949 81.967v20.253c0 37.31 24.974 68.743 59.082 78.645V404l59.402-51.813h89.932c45.222 0 81.949-36.671 81.949-81.967v-20.252c0-45.233-36.663-81.968-81.949-81.968v.064Z" fill="#6683C2"/><path d="M391.216 267.813h-24.543v-11.93h24.543v11.93Zm21.076-42.012h11.845v60.93H409.48v-45.676l-15.169 9.118v-14.317l17.981-10.055Zm47.198 62.294c-5.34 0-9.942-1.222-13.805-3.664-3.806-2.5-6.732-6.108-8.777-10.823-2.046-4.772-3.068-10.539-3.068-17.299 0-10.226 2.272-18.095 6.817-23.606 4.545-5.51 10.823-8.266 18.833-8.266 8.011 0 14.289 2.756 18.834 8.266 4.545 5.511 6.817 13.38 6.817 23.606 0 6.76-1.023 12.527-3.068 17.299-2.045 4.715-4.999 8.323-8.863 10.823-3.806 2.442-8.379 3.664-13.72 3.664Zm0-11.76c3.409 0 6.051-1.648 7.926-4.943 1.931-3.352 2.897-8.38 2.897-15.083 0-6.761-.966-11.789-2.897-15.084-1.875-3.352-4.517-5.028-7.926-5.028-3.408 0-6.078 1.676-8.01 5.028-1.875 3.295-2.812 8.323-2.812 15.084 0 6.703.937 11.731 2.812 15.083 1.932 3.295 4.602 4.943 8.01 4.943Zm48.588 10.396h-14.061l43.972-60.93h14.061l-43.972 60.93Zm34.172 1.193c-2.784 0-5.312-.653-7.584-1.96a14.32 14.32 0 0 1-5.369-5.368c-1.307-2.273-1.96-4.829-1.96-7.67 0-2.784.653-5.283 1.96-7.499a14.33 14.33 0 0 1 5.369-5.369c2.272-1.306 4.8-1.96 7.584-1.96 2.841 0 5.369.654 7.585 1.96a14.328 14.328 0 0 1 5.368 5.369c1.307 2.216 1.96 4.744 1.96 7.584 0 2.784-.653 5.312-1.96 7.585a14.318 14.318 0 0 1-5.368 5.368c-2.216 1.307-4.744 1.96-7.585 1.96Zm0-9.8c1.307 0 2.415-.482 3.324-1.448.909-1.023 1.363-2.244 1.363-3.665 0-1.42-.454-2.613-1.363-3.579-.909-1.022-2.017-1.534-3.324-1.534-1.306 0-2.414.512-3.323 1.534-.909.966-1.364 2.159-1.364 3.579 0 1.421.455 2.642 1.364 3.665.909.966 2.017 1.448 3.323 1.448Zm-38.433-23.69c-2.784 0-5.312-.653-7.584-1.96a14.323 14.323 0 0 1-5.369-5.369c-1.307-2.272-1.96-4.829-1.96-7.669 0-2.784.653-5.284 1.96-7.5a14.32 14.32 0 0 1 5.369-5.368c2.272-1.307 4.8-1.96 7.584-1.96 2.841 0 5.369.653 7.584 1.96a14.32 14.32 0 0 1 5.369 5.368c1.307 2.216 1.96 4.744 1.96 7.585 0 2.784-.653 5.312-1.96 7.584a14.323 14.323 0 0 1-5.369 5.369c-2.215 1.307-4.743 1.96-7.584 1.96Zm0-9.8c1.307 0 2.414-.483 3.323-1.449.909-1.022 1.364-2.244 1.364-3.664 0-1.421-.455-2.614-1.364-3.579-.909-1.023-2.016-1.534-3.323-1.534s-2.415.511-3.324 1.534c-.908.965-1.363 2.158-1.363 3.579 0 1.42.455 2.642 1.363 3.664.909.966 2.017 1.449 3.324 1.449Z" fill="#fff"/><path d="M68.436 241.53h243.928c37.796 0 68.436-30.647 68.436-68.452V68.452C380.8 30.647 350.16 0 312.364 0H68.436C30.638 0-.002 30.647-.002 68.452v104.626c0 37.805 30.64 68.452 68.437 68.452Z" fill="#F37E60"/><path d="M87.904 136.241h-32.12v-15.614h32.12v15.614Zm18.055.558c2.38 3.197 5.094 5.688 8.142 7.472 3.123 1.785 6.617 2.677 10.484 2.677 2.602 0 4.907-.558 6.915-1.673 2.082-1.19 3.717-2.788 4.907-4.796 1.19-2.007 1.784-4.275 1.784-6.803 0-2.528-.557-4.722-1.673-6.58a10.744 10.744 0 0 0-4.461-4.462c-1.933-1.115-4.163-1.673-6.691-1.673-2.603 0-4.982.558-7.138 1.673-2.157 1.041-4.015 2.64-5.577 4.796l-6.022-.334c.52-4.016 1.747-7.622 3.68-10.819 1.933-3.197 4.536-5.725 7.807-7.584 3.346-1.859 7.25-2.788 11.711-2.788 5.353 0 10.075 1.19 14.164 3.569s7.249 5.651 9.48 9.814c2.305 4.164 3.457 8.96 3.457 14.388 0 5.725-1.412 10.781-4.238 15.168-2.751 4.387-6.506 7.807-11.264 10.26-4.759 2.454-10.112 3.681-16.06 3.681-6.32 0-12.12-1.115-17.399-3.346-5.279-2.231-10-5.725-14.164-10.484l12.156-12.156Zm46.954-40.374h-44.277l9.257-10.818-5.242 41.823H96.479l5.8-46.173h50.634v15.168Zm44.495 66.36c-6.989 0-13.011-1.599-18.067-4.796-4.982-3.271-8.811-7.993-11.488-14.164-2.677-6.246-4.015-13.793-4.015-22.641 0-13.383 2.974-23.68 8.922-30.893 5.949-7.212 14.165-10.819 24.648-10.819 10.484 0 18.7 3.607 24.648 10.819 5.949 7.212 8.923 17.51 8.923 30.893 0 8.848-1.339 16.395-4.015 22.641-2.677 6.171-6.543 10.893-11.599 14.164-4.982 3.197-10.968 4.796-17.957 4.796Zm0-15.391c4.461 0 7.919-2.156 10.373-6.469 2.528-4.387 3.792-10.967 3.792-19.741 0-8.848-1.264-15.428-3.792-19.74-2.454-4.387-5.912-6.58-10.373-6.58-4.461 0-7.955 2.193-10.483 6.58-2.454 4.312-3.681 10.892-3.681 19.74 0 8.774 1.227 15.354 3.681 19.741 2.528 4.313 6.022 6.469 10.483 6.469ZM260.997 161h-18.402l57.549-79.743h18.403L260.997 161Zm44.724 1.562c-3.643 0-6.952-.855-9.926-2.565a18.75 18.75 0 0 1-7.027-7.027c-1.71-2.974-2.565-6.32-2.565-10.037 0-3.644.855-6.915 2.565-9.815a18.748 18.748 0 0 1 7.027-7.026c2.974-1.71 6.283-2.565 9.926-2.565 3.717 0 7.026.855 9.926 2.565a18.746 18.746 0 0 1 7.026 7.026c1.71 2.9 2.565 6.209 2.565 9.926 0 3.644-.855 6.952-2.565 9.926a18.748 18.748 0 0 1-7.026 7.027c-2.9 1.71-6.209 2.565-9.926 2.565Zm0-12.826c1.71 0 3.16-.632 4.349-1.896 1.19-1.338 1.785-2.937 1.785-4.796 0-1.859-.595-3.42-1.785-4.684-1.189-1.338-2.639-2.008-4.349-2.008-1.71 0-3.16.67-4.35 2.008-1.189 1.264-1.784 2.825-1.784 4.684s.595 3.458 1.784 4.796c1.19 1.264 2.64 1.896 4.35 1.896Zm-50.3-31.005c-3.643 0-6.952-.855-9.926-2.565a18.748 18.748 0 0 1-7.026-7.027c-1.711-2.974-2.566-6.32-2.566-10.037 0-3.644.855-6.915 2.566-9.815a18.747 18.747 0 0 1 7.026-7.026c2.974-1.71 6.283-2.566 9.926-2.566 3.718 0 7.026.856 9.926 2.566a18.756 18.756 0 0 1 7.027 7.026c1.71 2.9 2.565 6.209 2.565 9.926 0 3.643-.855 6.952-2.565 9.926a18.758 18.758 0 0 1-7.027 7.027c-2.9 1.71-6.208 2.565-9.926 2.565Zm0-12.826c1.71 0 3.16-.632 4.35-1.896 1.189-1.338 1.784-2.937 1.784-4.796 0-1.859-.595-3.42-1.784-4.684-1.19-1.338-2.64-2.008-4.35-2.008-1.71 0-3.16.67-4.35 2.008-1.189 1.264-1.784 2.825-1.784 4.684s.595 3.458 1.784 4.796c1.19 1.264 2.64 1.896 4.35 1.896Z" fill="#fff"/><path d="M269.354 183.901v125.541L154.19 202.522l115.164-18.621Z" fill="#F37E60"/></svg>