<svg width="234" height="124" fill="none" xmlns="http://www.w3.org/2000/svg"><path d="M201.247 32.026h-49.301C134.317 32.026 120 46.32 120 63.979v7.895c0 14.545 9.736 26.798 23.032 30.659v21.468l23.157-20.198h35.058c17.629 0 31.946-14.296 31.946-31.954v-7.895c0-17.633-14.292-31.953-31.946-31.953v.025Z" fill="#6683C2"/><path d="M148.929 71.13h-9.567v-4.65h9.567v4.65Zm8.216-16.377h4.618v23.753h-5.714V60.7l-5.913 3.554v-5.58l7.009-3.92Zm18.4 24.284c-2.082 0-3.876-.476-5.382-1.428-1.484-.975-2.624-2.38-3.422-4.22-.797-1.86-1.196-4.107-1.196-6.743 0-3.986.886-7.054 2.658-9.202 1.772-2.148 4.219-3.222 7.342-3.222 3.123 0 5.57 1.074 7.342 3.222 1.771 2.148 2.657 5.216 2.657 9.202 0 2.636-.398 4.884-1.196 6.744-.797 1.838-1.949 3.244-3.455 4.219-1.483.952-3.266 1.428-5.348 1.428Zm0-4.584c1.329 0 2.359-.642 3.089-1.927.753-1.306 1.13-3.266 1.13-5.88 0-2.635-.377-4.595-1.13-5.88-.73-1.307-1.76-1.96-3.089-1.96s-2.37.653-3.123 1.96c-.731 1.285-1.096 3.245-1.096 5.88 0 2.614.365 4.573 1.096 5.88.753 1.285 1.794 1.927 3.123 1.927Zm18.941 4.053h-5.482l17.142-23.753h5.482l-17.142 23.753Zm13.321.465c-1.085 0-2.071-.255-2.956-.764a5.58 5.58 0 0 1-2.093-2.093c-.51-.886-.764-1.883-.764-2.99 0-1.085.254-2.06.764-2.923a5.582 5.582 0 0 1 2.093-2.093c.885-.51 1.871-.764 2.956-.764 1.107 0 2.093.255 2.957.764a5.589 5.589 0 0 1 2.093 2.093c.509.864.764 1.849.764 2.956 0 1.086-.255 2.071-.764 2.957a5.588 5.588 0 0 1-2.093 2.093c-.864.51-1.85.764-2.957.764Zm0-3.82c.51 0 .941-.189 1.296-.565.354-.399.531-.875.531-1.429 0-.553-.177-1.018-.531-1.395-.355-.398-.786-.598-1.296-.598-.509 0-.941.2-1.295.598-.355.377-.532.842-.532 1.395 0 .554.177 1.03.532 1.429a1.71 1.71 0 0 0 1.295.565Zm-14.982-9.236c-1.085 0-2.071-.254-2.957-.764a5.588 5.588 0 0 1-2.093-2.093c-.509-.886-.764-1.882-.764-2.99 0-1.085.255-2.06.764-2.923a5.588 5.588 0 0 1 2.093-2.093c.886-.51 1.872-.764 2.957-.764 1.107 0 2.093.255 2.956.764a5.58 5.58 0 0 1 2.093 2.093c.51.864.764 1.85.764 2.957 0 1.085-.254 2.07-.764 2.956a5.58 5.58 0 0 1-2.093 2.093c-.863.51-1.849.764-2.956.764Zm0-3.82a1.71 1.71 0 0 0 1.295-.565c.355-.398.532-.875.532-1.428 0-.554-.177-1.02-.532-1.396-.354-.398-.786-.598-1.295-.598-.51 0-.942.2-1.296.598-.354.377-.531.842-.531 1.396 0 .553.177 1.03.531 1.428.354.377.786.565 1.296.565Z" fill="#fff"/><path d="M23.89 84.308h85.144c13.193 0 23.888-10.698 23.888-23.894v-36.52c0-13.196-10.695-23.893-23.888-23.893H23.89C10.697 0 .002 10.698.002 23.894v36.52c0 13.196 10.695 23.894 23.888 23.894Z" fill="#F37E60"/><path d="M30.678 47.632H19.466v-5.45h11.212v5.45Zm6.302.195c.83 1.116 1.778 1.985 2.842 2.608 1.09.623 2.31.934 3.66.934.908 0 1.712-.194 2.413-.584a4.611 4.611 0 0 0 1.713-1.674c.415-.7.623-1.492.623-2.374 0-.883-.195-1.648-.584-2.297a3.753 3.753 0 0 0-1.557-1.557c-.675-.39-1.454-.584-2.336-.584-.908 0-1.74.194-2.492.584-.752.363-1.401.92-1.946 1.674l-2.102-.117c.181-1.402.61-2.66 1.284-3.776a7.406 7.406 0 0 1 2.725-2.648c1.168-.648 2.53-.973 4.088-.973 1.869 0 3.517.415 4.944 1.246a8.576 8.576 0 0 1 3.31 3.426c.804 1.453 1.206 3.127 1.206 5.022 0 1.998-.493 3.763-1.48 5.294-.96 1.531-2.27 2.725-3.931 3.582-1.661.856-3.53 1.284-5.606 1.284-2.206 0-4.23-.389-6.073-1.168-1.843-.778-3.49-1.998-4.944-3.659l4.243-4.243Zm16.39-14.093H37.913l3.231-3.776-1.83 14.599h-5.644l2.024-16.117H53.37v5.294ZM68.9 56.897c-2.439 0-4.541-.558-6.306-1.674-1.739-1.142-3.075-2.79-4.01-4.944-.934-2.18-1.401-4.814-1.401-7.903 0-4.671 1.038-8.266 3.114-10.783 2.076-2.517 4.944-3.776 8.604-3.776 3.659 0 6.527 1.259 8.603 3.776 2.076 2.517 3.114 6.112 3.114 10.784 0 3.088-.467 5.722-1.401 7.902-.934 2.154-2.284 3.802-4.049 4.944-1.739 1.116-3.828 1.674-6.267 1.674Zm0-5.372c1.558 0 2.765-.753 3.621-2.258.882-1.531 1.324-3.828 1.324-6.89 0-3.089-.442-5.386-1.324-6.891-.856-1.531-2.063-2.297-3.62-2.297-1.558 0-2.777.766-3.66 2.297-.856 1.505-1.285 3.802-1.285 6.89 0 3.063.429 5.36 1.285 6.891.883 1.505 2.102 2.258 3.66 2.258Zm22.197 4.75h-6.424l20.088-27.835h6.423L91.097 56.274Zm15.61.544c-1.271 0-2.426-.298-3.464-.895a6.546 6.546 0 0 1-2.453-2.453c-.597-1.038-.895-2.205-.895-3.503 0-1.272.298-2.414.895-3.426a6.547 6.547 0 0 1 2.453-2.453c1.038-.596 2.193-.895 3.464-.895 1.298 0 2.453.298 3.465.895a6.547 6.547 0 0 1 2.453 2.453c.597 1.012.895 2.167.895 3.465 0 1.271-.298 2.426-.895 3.465a6.546 6.546 0 0 1-2.453 2.452c-1.012.597-2.167.895-3.465.895Zm0-4.477c.597 0 1.103-.22 1.519-.661a2.436 2.436 0 0 0 .623-1.674c0-.65-.208-1.194-.623-1.635-.416-.468-.922-.701-1.519-.701-.596 0-1.103.233-1.518.7-.415.442-.623.987-.623 1.636 0 .649.208 1.207.623 1.674.415.44.922.662 1.518.662ZM89.15 41.52c-1.272 0-2.427-.298-3.465-.895a6.545 6.545 0 0 1-2.452-2.453c-.597-1.038-.896-2.206-.896-3.504 0-1.271.299-2.413.896-3.425a6.544 6.544 0 0 1 2.452-2.453c1.038-.597 2.193-.895 3.465-.895 1.298 0 2.453.298 3.465.895a6.544 6.544 0 0 1 2.452 2.453c.597 1.012.896 2.167.896 3.464 0 1.272-.299 2.427-.896 3.465a6.544 6.544 0 0 1-2.452 2.453c-1.012.597-2.167.895-3.465.895Zm0-4.477c.597 0 1.103-.22 1.518-.662a2.435 2.435 0 0 0 .623-1.674c0-.648-.207-1.194-.623-1.635-.415-.467-.921-.7-1.518-.7s-1.103.233-1.518.7c-.415.441-.623.986-.623 1.635 0 .65.208 1.207.623 1.674.415.441.921.662 1.518.662Z" fill="#fff"/><path d="M94.018 64.192v43.821L53.82 70.692l40.198-6.5Z" fill="#F37E60"/></svg>