<svg width="1920" height="80" fill="none" xmlns="http://www.w3.org/2000/svg"><g clip-path="url(#a)"><path fill="#819EDC" d="M0 0h1920v80H0z"/><path d="M322.844-24.473c-14.715 2.5-24.584 16.654-22.042 31.615 2.541 14.96 16.531 25.061 31.246 22.561S356.632 13.05 354.09-1.912c-2.541-14.96-16.531-25.061-31.246-22.561Z" fill="#68CCEA"/><path d="M1838.87 108.172c14.86 1.394 28.05-9.724 29.47-24.833 1.42-15.108-9.48-28.486-24.34-29.88-14.86-1.394-28.06 9.724-29.48 24.833-1.41 15.109 9.48 28.486 24.35 29.88ZM471.253-48.651c-23.889 4.058-39.909 27.037-35.783 51.324 4.126 24.287 26.837 40.685 50.726 36.627 23.888-4.059 39.909-27.038 35.783-51.325-4.126-24.287-26.837-40.685-50.726-36.626Z" fill="#fff"/><path d="M226.845 117.748c-5.991-35.26 17.913-68.727 53.388-74.755 35.473-6.026 69.089 17.669 75.08 52.93 5.99 35.259-17.914 68.729-53.387 74.755-35.476 6.027-69.091-17.671-75.081-52.93ZM1968.4-4.357c-3.34 35.61-35.09 61.75-70.91 58.39-35.83-3.36-62.17-34.949-58.83-70.558 3.34-35.609 35.09-61.751 70.92-58.391 35.83 3.36 62.16 34.95 58.82 70.559Z" fill="#F98585"/><path d="M388.024 57.771c-8.309 1.412-13.881 9.404-12.445 17.85 1.435 8.448 9.333 14.151 17.642 12.74 8.308-1.412 13.88-9.404 12.445-17.85-1.435-8.448-9.334-14.151-17.642-12.74Z" fill="#F3C55C"/><path d="M120.794-20.768C103.787-17.878 92.381-1.52 95.319 15.77c2.937 17.29 19.106 28.965 36.113 26.075 17.007-2.89 28.412-19.248 25.475-36.539-2.938-17.29-19.106-28.965-36.113-26.075Z" fill="#fff"/><path d="M1797.19 11.86c8.39.787 15.84-5.49 16.64-14.02.8-8.531-5.35-16.085-13.74-16.872-8.39-.787-15.84 5.49-16.64 14.021-.8 8.531 5.35 16.084 13.74 16.871Z" fill="#F3C55C"/><path d="M1692.59 86.694c-2.26 24.018-23.67 41.649-47.84 39.383-24.16-2.266-41.92-23.572-39.67-47.59 2.25-24.017 23.67-41.65 47.83-39.384 24.17 2.267 41.93 23.574 39.68 47.591Z" fill="#7FCBB4"/></g><defs><clipPath id="a"><path fill="#fff" d="M0 0h1920v80H0z"/></clipPath></defs></svg>