<svg width="310" height="212" fill="none" xmlns="http://www.w3.org/2000/svg"><path d="M30.92 19.887c-.084-.465-1.177-5.447-8.883-4.596 0 0 3.835-.098 4.727 1.466 0 0-2.864-1.676-4.86-.714-1.996.962-2.692 4.805-2.53 6.01.163 1.207 1.888 4.923 3.264 5.06.521.052 1.095-.065 1.607-.232a18.19 18.19 0 0 0-.762 1.989c-2.148 6.725 1.898 12.406 4.39 11.351 1.6-.677 2.48 2.09 2.48 2.09l14.244-15.409c.001 0-7.708-11.407-13.677-7.015Z" fill="#696B70"/><path d="m49.478 205.486-3.464 1.29s-15.048-20.87-16.9-39.232c-.331-3.278-.22-6.455.495-9.388 0 0-.148-.84-.405-2.325-.119-.693-.266-1.528-.433-2.484a7223.12 7223.12 0 0 0-1.933-11.005c-1.77-10.049-4.064-22.896-5.846-32.339l.934-.3 10.1-3.258 2.087-6.63 7.52-1.98s1.68 3.288 3.183 18.813c.277 2.036.529 4.282.718 6.718.585 7.433.628 16.653-.715 27.195-.346 2.698-.78 5.484-1.321 8.346-.396 2.098-.455 4.958-.288 8.243.76 15.007 6.268 38.336 6.268 38.336Z" fill="#6683C2"/><path d="m45.535 123.363-16.331 32.468c-.119-.693-.266-1.528-.433-2.484a7083.18 7083.18 0 0 0-1.933-11.005c-1.77-10.049-4.064-22.896-5.846-32.339l.934-.3 10.1-3.258 2.087-6.63 7.52-1.98s1.68 3.288 3.183 18.813c.277 2.034.529 4.28.72 6.715Z" fill="#46619B"/><path d="m38.352 101.999-.378-3.241c-6.334 1.683-23.258-4.701-23.258-4.701S8.58 99.45 9.386 112.38c.392 6.31 1.11 33.125 1.86 41.06.273 2.877.51 4.923.607 5.74l.001.008c.03.249-.057.484-.184.703a37.161 37.161 0 0 0-2.77 5.822c-7.363 19.622 1.136 43.786 1.136 43.786l2.204-.888s4.835-26.891 8.764-38.771c.666-2.015 1.306-3.599 1.892-4.545 1.708-2.757 3.294-7.261 4.733-12.62 2.72-10.131 4.908-23.308 6.366-33.48.202.009 4.357-17.196 4.357-17.196Z" fill="#6683C2"/><path d="M48.556 76.014c.125.127.244.254.39.373 5.414 5.043 12.705 9.504 16.605 10.486 2.567.656 8.224-.223 12.92-1.189 3.131-.618 5.855-1.3 6.98-1.568.359-.084.558-.146.558-.146l-.49-3.168s-2.816-.223-6.315-.617c-4.872-.573-11.05-1.452-12.632-2.388-3.67-2.18-10.11-11.327-15.276-17.077a58.362 58.362 0 0 0-1.388-1.545c-.04-.042-.088-.11-.152-.145-.238-.228-.439-.44-.634-.627-.007-.023-.041-.04-.074-.059-.919-.922-2.527-2.042-2.527-2.042-.903-.514-1.646-.614-2.17-.175 0 0-.675.66-1.336 1.905a9.8 9.8 0 0 0-.411.86c-.11.172-.164.353-.217.535a10.932 10.932 0 0 0-.7 4.282c.04 1.276.283 2.684.85 4.237.9 2.549 3.181 5.38 6.02 8.068Z" fill="#E9B49C"/><path d="M43.844 62.65c-1.834 1.199-4.122 2.165-6.973 2.74-10.69 2.154-14.508-6.937-15.863-13.144 1.471-.787 2.84-.932 3.63-1.004.77-.07 1.58-.107 2.248-.121 1.22-.881 3.102-4.569 3.659-10.363l.496.148 8.306 2.526s-.458 2.65-.718 5.16c-.2 1.964-.276 3.845.083 4.316.648.16 1.038.263 1.038.263s0 .003.005.008c.106.19 2.423 4.252 4.09 9.471Z" fill="#E9B49C"/><path d="M47.571 69.33c-.048.227-.109.45-.175.68C45.519 76.284 44 101.365 44 101.365c.994 3.136-17.233 3.778-27.284 2.329-3.655-.526-6.23-1.328-6.406-2.388-1.798-4.054 2.603-11.626 5.144-15.474.32-.483.594-.992.82-1.518a9.64 9.64 0 0 0 .793-4.22 76.563 76.563 0 0 0-.453-5.729c-.389-3.41-.91-6.39-1.182-8.498v-.001c.529-.526 1.043-1.014 1.523-1.478.732-.715 1.373-1.377 1.822-2.02.495-.7.77-1.384.709-2.1a10.509 10.509 0 0 0-.28-1.634 16.07 16.07 0 0 0-.212-.767c-.816-2.674-2.318-4.988-2.318-4.988 2.721-1.591 7.965-1.64 7.965-1.64s.035.287.102.755c.255 1.881.972 6.702 1.706 7.526.918 1.029 15.414 4.008 15.918 2.36.496-1.621-2.497-8.442-2.61-8.7l-.002-.01c4.642 1.104 6.659 2.35 6.75 2.425 0 0-.003 0-.004-.002-2.52 2.209 2.392 7.723 1.07 13.736Z" fill="#F37E60"/><path d="M39.345 43.436s-.46 2.648-.716 5.16c-4.73-.61-6.804-5.186-7.59-7.688l8.306 2.528Z" fill="#CC9981"/><path d="M40.695 45.976s-11.239-.938-10.547-7.93c.691-6.99-.293-11.82 6.913-11.515 7.205.303 8.332 3.109 8.67 5.498.336 2.389-2.094 14.01-5.036 13.947Z" fill="#E9B49C"/><path d="M45.784 28.11c-1.525-2.276-2.88-1.945-3.679-1.387-5.796-3.986-10.246.604-10.246.604-1.253 4.94-5.156 7.451-5.156 7.451s1.92 1.469 6.755.729c1.477-.227 2.866-1.122 4.084-2.254-2.228 3.008-5.056 5.052-5.056 5.052 5.892-2.04 8.938-9.646 9.247-10.452.623.684 1.84 2.156 2.12 3.506.381 1.837.266 5.526 1.346 5.508-.001-.001 2.87-5.344.585-8.756Z" fill="#696B70"/><path d="M95.929 80.384c-1.125 1.07-2.26 3.75-5.722 3.698-2.47-.021-4.97.257-6.182.406-.471.083-.745.115-.745.115l-.124-3.92s.05.004.163-.014c.836-.126 5.084-.779 6.765-1.894 1.887-1.265 6.3-.093 6.3-.093s.676.651-.455 1.702Z" fill="#E9B49C"/><path d="M22.857 211.3H5.408s-.418-2.659.494-4.677c.873-1.936 2.24-2.816 1.913-5.158 1.108 1.142 2.916 2.42 5.438 2.08.31.501 1.995 3.182 3.028 3.924 1.139.82 6.224.528 6.576 3.831ZM60.321 211.302H42.873s-.653-2.783.493-4.677c1.014-1.676.625-2.63-.125-4.016.79.324 1.812.618 2.938.554.869-.05 1.79-.445 2.594-.913.751.855 3.967 4.5 4.972 5.223 1.14.818 6.224.526 6.576 3.829Z" fill="#46619B"/><path d="M38.016 41.93s.156.926 2.434.929c0 0 1.912.001 1.917-1.004 0 0-1.803-.83-4.351.076Z" fill="#fff"/><path d="M19.098 86.361c-.69 4.372-3.851 13.145-2.381 17.335-3.655-.526-6.23-1.329-6.406-2.388-1.798-4.054 2.603-11.626 5.144-15.475a9.71 9.71 0 0 0 .82-1.517 9.64 9.64 0 0 0 .793-4.22 76.554 76.554 0 0 0-.453-5.729s3.218 7.347 2.483 11.994Z" fill="#DC775D"/><path d="M43.797 56.865c.121 3.886 2.931 14.553 3.599 13.145.762-1.606 3.713-7.711 5.099-7.936-.073-.282-5.745-6.552-5.993-6.48-.001.002-1.542.472-2.705 1.271Z" fill="#F37E60"/><path d="m17.038 111.987-2.894 1.926s-.733-.916-1.893-2.378c-.347-.441-.532-.707-.532-.707-.917-1.181-1.984-2.632-3.151-4.206l-.02-.018c-1.954-2.746-4.102-5.868-5.745-8.691C1.66 95.91.77 94.058.337 92.6a3.13 3.13 0 0 1-.103-.438c-.85-3.695.709-11.03 3.19-18.189.34-.99.7-1.964 1.044-2.915 1.32-3.51 2.803-6.81 4.292-9.475.873-1.603 1.743-3 2.582-4.044.291-.373.565-.725.86-1.025.16-.181.32-.356.478-.523 1.739.147 5.386.836 8.094 3.963-.045.164-.094.328-.143.496-1.095 3.531-2.785 7.864-4.537 12.112-.953 2.333-1.928 4.648-2.782 6.826a152.927 152.927 0 0 0-1.475 3.689c-.833 2.194-1.452 4.02-1.697 5.3-.167.831.07 2.393.518 4.314.769 3.347 2.231 7.855 3.592 11.682a214.927 214.927 0 0 0 1.562 4.315 291.6 291.6 0 0 0 1.226 3.298Z" fill="#E9B49C"/><path d="M18.303 71.006c-2.891-4.365-11.178-6.242-11.178-6.242C11.801 49.926 24.078 51.3 24.078 51.3s-4.466 15.438-5.775 19.705Z" fill="#F37E60"/><path d="M14.14 113.912s.761 1.123.846 1.93c.085.808.808 3.485 1.742 4.335.935.849 3.06 2.55 3.356 2.294.297-.255 1.159-2.259.36-3.676-.36-.639-.849-2.423-1.493-2.854-.783-.525-1.918-3.957-1.918-3.957l-2.892 1.928Z" fill="#E9B49C"/><path d="M17.055 112.422s2.302 1.169 2.613 2.104c.312.935 1.599 2.82 1.466 3.039-.142.233-2.142-1.042-2.822-2.203-.68-1.161-1.257-2.94-1.257-2.94Z" fill="#E9B49C"/><path d="m71.836 101.549 84.302-50.47a14.698 14.698 0 0 1 15.101 0l84.302 50.47v82.257l-183.704-9.21v-73.047h-.001Z" fill="#DC775D"/><path d="M239.72 65.102H87.64v131.426h152.08V65.102Z" fill="#F6F6F6"/><path d="M94.453 72.278a1.563 1.563 0 1 0-1.196-2.888 1.563 1.563 0 0 0 1.196 2.888ZM231.859 70.835a1.564 1.564 0 1 1 3.128.002 1.564 1.564 0 0 1-3.128-.002Z" fill="#EFCBAB"/><path d="M233.418 70.664H93.844v.34h139.574v-.34Z" fill="#EFCBAB"/><path d="M94.02 70.215h-.34v139.574h.34V70.215ZM233.645 70.215h-.34v139.574h.34V70.215Z" fill="#EFCBAB"/><path d="M255.54 101.322v109.979H71.836V101.322l91.852 54.99 91.852-54.99Z" fill="#F37E60"/><path d="m71.836 211.3 84.141-60.323a13.232 13.232 0 0 1 15.421 0L255.54 211.3H71.836Z" fill="#DC775D"/><path d="M191.732 83.311h-55.448a1.469 1.469 0 0 1-1.464-1.464c0-.805.659-1.464 1.464-1.464h55.448c.806 0 1.465.659 1.465 1.464 0 .805-.659 1.464-1.465 1.464ZM206.009 89.186h-84.014a1.469 1.469 0 0 1-1.464-1.464c0-.805.659-1.464 1.464-1.464h84.014c.806 0 1.465.659 1.465 1.464 0 .805-.659 1.464-1.465 1.464ZM195.111 107.4h-60.786a1.063 1.063 0 0 1-1.059-1.059c0-.583.477-1.06 1.059-1.06h60.786c.582 0 1.059.477 1.059 1.06a1.063 1.063 0 0 1-1.059 1.059ZM140.433 112.931h-17.139c-.582 0-1.06-.477-1.06-1.059s.478-1.06 1.06-1.06h17.139c.582 0 1.06.478 1.06 1.06 0 .583-.478 1.059-1.06 1.059ZM166.273 112.931h-20.706a1.063 1.063 0 0 1-1.059-1.059c0-.582.477-1.06 1.059-1.06h20.706c.582 0 1.06.478 1.06 1.06 0 .583-.476 1.059-1.06 1.059ZM206.153 112.931h-35.797a1.063 1.063 0 0 1-1.059-1.059c0-.582.477-1.06 1.059-1.06h35.797c.582 0 1.059.478 1.059 1.06 0 .583-.477 1.059-1.059 1.059ZM166.417 119.365h-33.295c-.582 0-1.06-.477-1.06-1.06 0-.582.478-1.059 1.06-1.059h33.295c.582 0 1.059.477 1.059 1.059 0 .583-.477 1.06-1.059 1.06ZM196.315 119.365h-26.224c-.583 0-1.06-.477-1.06-1.06 0-.582.477-1.059 1.06-1.059h26.224c.582 0 1.059.477 1.059 1.059 0 .583-.477 1.06-1.059 1.06Z" fill="#EFCBAB"/><path d="M175.767 132.441c-2.002 1.662-4.145 3.048-6.403 4.313.191-.599.35-1.221.321-1.773-.04-.763-.649-1.097-1.257-1.413a8.405 8.405 0 0 1-.432-.244c.236-.232.358-.552.201-.902-.257-.578-.978-.485-1.222.05a.97.97 0 0 0-.083.288.76.76 0 0 1-.237-.186 33.58 33.58 0 0 0 1.043-2.12c.072-.163-.02-.353-.15-.452-.534-.404-1.264-.274-1.694.233-.51.601-.381 1.516-.138 2.199.018.047.036.096.057.143a31.174 31.174 0 0 1-1.538 2.489l-.156-.153a3.417 3.417 0 0 1-.43-.517 7.513 7.513 0 0 0 .475-2.067c.026-.321-.294-.479-.563-.38-.742.275-1.141 1.028-1.045 1.804.033.266.12.52.241.756a6.864 6.864 0 0 1-.594 1.043c-.15.218-.043.439.135.543-.244.809-.571 1.637-1.129 2.22-.457.476-1.308.838-1.863.272-.352-.358-.396-.956-.445-1.429-.118-1.165-.207-2.375-.164-3.548.021-.556.08-1.12.269-1.645.118-.326.284-.82.442-.258.078.276-.03.703-.058.984-.05.5.727.558.777.06.059-.588.322-1.82-.342-2.188-.552-.306-1.058.133-1.314.591-.919 1.649-.552 3.912-.415 5.704.111 1.429.644 3.183 2.469 2.728 1.717-.427 2.347-2.592 2.742-4.081a.397.397 0 0 0-.012-.25c.006-.011.013-.025.021-.036l.214.214c.102.09.198.184.291.282-.18.25-.363.498-.553.743-.106.139-.075.347.031.476.578.696 1.617.18 1.596-.675a1.282 1.282 0 0 0-.13-.535 32.04 32.04 0 0 0 1.519-2.408c.244.239.555.393.937.375l.078-.008c.199.212.45.388.679.518.222.124.478.202.677.364.371.303.26.649.179 1.079-.108.566-.287 1.13-.452 1.683-.785.45-1.559 1.022-1.823 1.926-.241.825-.027 1.692.679 2.203.213.154.495.03.585-.193a38.788 38.788 0 0 0 1.221-3.428c.693-.394 1.418-.742 2.104-1.146a40.187 40.187 0 0 0 5.171-3.656c.39-.326-.125-.913-.512-.592Zm-9.474-1.039c-.008-.311.158-.883.517-.876-.163.352-.331.7-.506 1.045-.004-.056-.01-.114-.011-.169Zm.991 9.01c-.328-.615.142-1.373.678-1.874-.21.631-.437 1.255-.678 1.874Z" fill="#F99746"/><g opacity=".5"><path d="m160.404 11.13 7.919 17.473-29.185 13.227-7.919-17.472 18.552 2.123 10.633-15.35Z" fill="#6683C2"/><path d="m131.219 24.358 29.185-13.23-8.726 14.707a3.24 3.24 0 0 1-3.351 1.538l-17.108-3.015Z" fill="#7D99D6"/></g><g opacity=".5"><path d="m308.386 58.726-5.854 21.937-36.641-9.779 5.853-21.937 15.394 15.859 21.248-6.08Z" fill="#6683C2"/><path d="m271.742 48.947 36.642 9.778-19.019 6.92a3.835 3.835 0 0 1-4.221-1.105l-13.402-15.593Z" fill="#7D99D6"/></g><path d="m208.508 13.267 23.775 3.763-15.648-11.018-.857 3.442-5.81.96-1.46 2.853Z" fill="#AFCDFB"/><path d="M232.285 17.03 212.613 6.506 193.195 5.23l39.09 11.8Z" fill="#EAEAEA"/><path d="M216.633 6.012 232.28 17.03 220.297 0l-3.664 6.012Z" fill="#EAEAEA"/><path d="M280.505 109.597s-4.847.337-8.426 9.067c-3.609 8.806 4.463 8.718 1.744 14.328-2.72 5.61 3.915 8.956 5.928 13.55 2.016 4.593 12.166 15.672 12.969 20.727.804 5.052 9.83-5.254 9.83-5.254s9.175-9.787 5.884-15.472c-5.422-9.371-.725-11.407-.895-16.64-.168-5.236-10.103-25.86-27.034-20.306Z" fill="#696B70"/><path d="M277.866 140.914s-18.768 8.181-22.333 8.024c-3.565-.155-25.533-6.691-25.533-6.691l.56 3.779s16.953 9.751 22.881 10.304c5.836.545 25.788-5.238 27.715-6.458 1.924-1.221 2.308-7.721-3.29-8.958Z" fill="#D6A58E"/><path d="M276.359 149.885c1.725 1.197 3.888 2.184 6.603 2.81 10.178 2.352 14.078-6.251 15.543-12.155-1.388-.795-2.694-.969-3.449-1.059a32.325 32.325 0 0 0-2.149-.176c-1.142-.875-2.846-4.457-3.223-10.02l-.478.129-8.021 2.195s.368 2.55.548 4.96c.139 1.887.384 2.98.026 3.422-.626.136-1.224.932-1.224.932s0 .003-.005.007c-.108.175-2.435 4.001-4.171 8.955Z" fill="#E9B49C"/><path d="M281.172 131.61s.369 2.547.548 4.959c4.545-.455 6.653-4.781 7.474-7.155l-8.022 2.196Z" fill="#CC9981"/><path d="M279.821 134.003s10.787-.595 10.312-7.307c-.474-6.712.599-11.308-6.308-11.212-6.907.096-8.062 2.751-8.45 5.031-.385 2.278 1.629 13.469 4.446 13.488Z" fill="#E9B49C"/><path d="M301.574 171.813c.973-4.979 4.15-24.874.973-31.276-1.14-2.3-5.615-2.507-10.526-2.306-1.528.987-7.351 4.714-9.743 4.249-.025-.004-.072-.016-.134-.031-1.126-.282-1.328-1.78-.389-2.463.002-.001-2.655.473-5.674 1.042-1.707.32-6.308 2.702-6.308 2.702s2.317 4.185 5.734 5.632c-.58 5.197.284 7.49 5.675 19.495 4.557 10.147-.614 19.283-.614 19.283s26.821 21.565 26.97 10.584c.109-8.266-7.21-20.546-5.964-26.911Z" fill="#68CCEA"/><path d="M279.239 211.59a4.984 4.984 0 0 1-3.587-2.184c-.13-.193-.267-.401-.415-.624-3.053-4.622-4.242-18.776-11.108-33.854-1.672-3.672-7.676-4.331-9.313-8.481 0 0-4.029-13.45 7.712-13.846 11.743-.398 31.447 37.425 31.759 41.391.301 3.842 7.764 20.172-15.048 17.598Z" fill="#364D7F"/><path d="M232.562 211.28h16.713s.625-2.665-.473-4.479c-.97-1.605-.598-2.519.12-3.847-.756.31-1.736.592-2.814.53-.834-.047-1.714-.425-2.485-.875-.72.82-3.8 4.312-4.762 5.003-1.092.784-5.963.505-6.299 3.668Z" fill="#293245"/><path d="M299.81 145.754s2.175 19.79-11.932 23.937c-14.106 4.147-18.111-18.209-6.722-19.817 11.391-1.608 18.654-4.12 18.654-4.12Z" fill="#4EB5D4"/><path d="M254.424 156.488c-1.006 7.545-4.936 31.358-11.868 42.975-2.235 3.746 5.631 5.845 5.673 5.835 1.055-.277 2.813-1.958 3.623-2.689 5.629-5.072 17.054-19.436 17.054-30.951 0-5.614.099-16.337-3.985-19.063-2.514-1.677-10.096.897-10.497 3.893Z" fill="#364D7F"/><path d="M289.195 211.282s-.619-.862-1.699-2.5c-1.285-1.947-2.708-5.778-4.434-10.689-1.812-5.155-3.963-11.498-6.651-18.097a164.743 164.743 0 0 0-2.648-6.158c-1.672-3.672-6.274-3.163-7.911-7.314 0 0-6.389-14.385 5.354-14.783 11.743-.397 34.055 38.484 35.337 42.25 1.407 4.122 8.255 21.24-17.348 17.291Z" fill="#6683C2"/><path d="M244.836 211.28h16.713s.625-2.665-.473-4.479c-.971-1.605-.599-2.519.12-3.847-.757.31-1.736.592-2.815.53-.833-.047-1.714-.425-2.485-.875-.72.82-3.8 4.312-4.762 5.003-1.092.784-5.963.505-6.298 3.668Z" fill="#273B67"/><path d="M283.073 198.093c-1.813-5.154-3.964-11.497-6.651-18.097.702-4.999 2.216-9.374 4.762-11.137.001-.001 6.177 19.133 1.889 29.234Z" fill="#46619B"/><path d="M264.178 155.952c-1.006 7.545-2.424 31.894-9.356 43.511-2.236 3.745 5.63 5.844 5.673 5.834 1.055-.276 2.813-1.958 3.623-2.689 5.627-5.072 17.054-19.436 17.054-30.951 0-5.614-6.59-15.886-10.672-18.612-2.514-1.677-5.921-.089-6.322 2.907Z" fill="#6683C2"/><path d="M243.492 136.166s-.855-2.175-2.414-2.034c-1.559.141-15.711 2.034-15.711 2.034s1.648.394 2.27 1.474l6.528 19.238h16.745l-7.418-20.712Z" fill="#EBF3FA"/><path d="M298.495 140.539s-23.722 8.736-27.285 8.557c-2.304-.115-21.453-6.846-21.453-6.846l-1.718 3.252s18.638 11.979 23.762 11.92c10.115-.117 27.184-6.327 29.111-7.547 1.925-1.222 3.181-8.099-2.417-9.336Z" fill="#E9B49C"/><path d="M249.762 142.25s-1.718-2.646-3.43-2.723c-1.713-.078-4.669 1.167-5.68 1.362-1.012.195-3.89 1.129-3.034 2.528.855 1.401 4.823 1.712 6.536 1.401 1.712-.312 3.89.684 3.89.684l1.718-3.252Z" fill="#E9B49C"/><path d="M246.798 139.609s-2.722-1.248-3.5-1.482c-.779-.233-.622.005-.389.742.234.737 1.634 1.44 1.634 1.672-.001.231 2.255-.932 2.255-.932Z" fill="#E9B49C"/><path d="M277.797 130.142s1.019-.404 3.888-.172c0 0-.152 1.12-2.267 1.231-1.199.064-1.621-1.059-1.621-1.059Z" fill="#fff"/><path d="M286.281 144.845s2.122 6.717 9.409 8.244c0 0 12.032-3.707 6.041-11.903 0 0-5.923-4.402-15.45 3.659Z" fill="#68CCEA"/><path d="M225.367 136.166s-1.572.601-.383 2.641l15.3-2.04s-.532-2.365.671-2.622l-15.588 2.021Z" fill="#fff"/><path d="M230.846 141.188c.364-1.454.34-1.805-.482-2.693-.543-.587-1.375.869-1.805 1.746-.158-.387-.427-1.018-.519-1.05-.133-.046.184 1.954.184 1.954a1.75 1.75 0 0 0-.009.251l-.002-.001s-.663 2.94 2.228 4.528l-.551-1.62c.337-.057.588-1.637.956-3.115Z" fill="#D6A58E"/><path d="M279.416 116.968s2.274-.796 3.376 1.527c1.101 2.322 1.451 7.876 5.865 8.329 4.415.454 4.586-9.406 4.586-9.406l-11.049-4.363-5.835 3.683 3.057.23Z" fill="#696B70"/><path d="M279.415 116.967s-2.489.053-3.058 2.149c-.569 2.097.319 6.007-1.059 6.29-1.379.283-2.632-6.517.035-8.728 2.667-2.21 4.082.289 4.082.289Z" fill="#535761"/><path d="M83.977 80.567s2.492-.945 2.774-1.596c.284-.652 1.105-.935 2.097-1.389.991-.453 1.586-1.275 1.728-1.161.142.114.17.68-.226 1.105-.397.425-2.077 3.4-2.71 3.74-.633.34-3.663-.7-3.663-.7Z" fill="#E9B49C"/></svg>