<svg width="272" height="187" fill="none" xmlns="http://www.w3.org/2000/svg"><path d="M27.21 17.499c-.074-.41-1.036-4.793-7.816-4.044 0 0 3.374-.086 4.16 1.29 0 0-2.521-1.475-4.277-.628-1.757.846-2.369 4.227-2.226 5.288.143 1.062 1.662 4.33 2.872 4.452.459.045.963-.057 1.414-.204-.24.53-.467 1.11-.67 1.75-1.89 5.917 1.67 10.915 3.862 9.986 1.407-.595 2.182 1.84 2.182 1.84L39.243 23.67c.001 0-6.782-10.037-12.033-6.172Z" fill="#696B70"/><path d="m43.532 180.796-3.048 1.135s-13.24-18.362-14.87-34.517c-.29-2.885-.193-5.68.436-8.26 0 0-.13-.739-.356-2.046-.104-.61-.234-1.344-.381-2.185-.43-2.466-1.023-5.84-1.7-9.683-1.558-8.842-3.577-20.144-5.144-28.453l.821-.264 8.886-2.867 1.837-5.832 6.617-1.742s1.478 2.892 2.8 16.552c.244 1.791.465 3.767.631 5.91.515 6.54.553 14.653-.629 23.927a125.288 125.288 0 0 1-1.162 7.343c-.348 1.846-.4 4.363-.253 7.253.668 13.204 5.515 33.729 5.515 33.729Z" fill="#6683C2"/><path d="m40.063 108.542-14.37 28.566c-.103-.61-.233-1.344-.38-2.185-.43-2.466-1.023-5.84-1.7-9.683-1.558-8.842-3.577-20.144-5.144-28.453l.821-.264 8.886-2.867 1.837-5.832 6.617-1.742s1.478 2.892 2.8 16.552c.244 1.79.465 3.765.633 5.908Z" fill="#46619B"/><path d="m33.741 89.744-.333-2.852c-5.572 1.48-20.463-4.136-20.463-4.136s-5.398 4.746-4.69 16.121c.346 5.552.978 29.145 1.638 36.127a211.881 211.881 0 0 0 .535 5.056c.026.22-.051.427-.163.619a32.717 32.717 0 0 0-2.436 5.123c-6.479 17.264.998 38.524.998 38.524l1.94-.781s4.254-23.66 7.71-34.112c.587-1.773 1.15-3.167 1.666-3.999 1.503-2.425 2.897-6.389 4.163-11.103 2.394-8.914 4.319-20.508 5.602-29.457.178.007 3.833-15.13 3.833-15.13Z" fill="#6683C2"/><path d="M42.722 66.882c.11.112.215.224.343.328 4.763 4.438 11.178 8.362 14.61 9.226 2.258.577 7.235-.196 11.368-1.046 2.754-.543 5.151-1.144 6.14-1.38.316-.073.492-.128.492-.128l-.432-2.787s-2.477-.196-5.556-.543c-4.287-.505-9.722-1.278-11.114-2.1-3.229-1.92-8.895-9.967-13.44-15.026a51.833 51.833 0 0 0-1.221-1.36c-.035-.037-.078-.096-.134-.127-.21-.2-.386-.388-.558-.552-.006-.02-.036-.035-.065-.052-.808-.81-2.224-1.796-2.224-1.796-.794-.452-1.448-.54-1.908-.155 0 0-.594.581-1.177 1.677a8.607 8.607 0 0 0-.361.757c-.096.15-.144.31-.191.47a9.62 9.62 0 0 0-.616 3.767c.035 1.123.25 2.362.748 3.728.792 2.243 2.8 4.735 5.296 7.1Z" fill="#E9B49C"/><path d="M38.577 55.123c-1.615 1.054-3.627 1.905-6.136 2.41-9.406 1.895-12.765-6.103-13.957-11.564 1.295-.693 2.499-.82 3.194-.884.677-.06 1.39-.093 1.979-.106 1.072-.775 2.728-4.02 3.218-9.118l.437.13 7.308 2.223s-.403 2.332-.632 4.54c-.177 1.728-.243 3.383.073 3.798.57.14.914.231.914.231s0 .003.004.006c.093.168 2.132 3.742 3.598 8.334Z" fill="#E9B49C"/><path d="M41.856 61c-.043.2-.096.396-.155.598-1.65 5.52-2.987 27.589-2.987 27.589.875 2.758-15.162 3.324-24.005 2.048-3.216-.462-5.48-1.168-5.636-2.1-1.582-3.567 2.29-10.23 4.526-13.615.28-.425.522-.873.721-1.335a8.483 8.483 0 0 0 .698-3.713 67.399 67.399 0 0 0-.399-5.04c-.341-3.002-.8-5.623-1.04-7.478v-.001c.466-.463.918-.892 1.34-1.3.644-.63 1.208-1.212 1.603-1.777.436-.616.678-1.218.624-1.848a9.24 9.24 0 0 0-.247-1.438c-.056-.226-.118-.45-.186-.675-.717-2.352-2.04-4.388-2.04-4.388 2.395-1.4 7.009-1.443 7.009-1.443s.03.252.09.664c.224 1.655.855 5.897 1.5 6.622.808.905 13.563 3.527 14.006 2.076.437-1.426-2.197-7.428-2.296-7.655l-.002-.008c4.084.971 5.858 2.068 5.939 2.133l-.004-.001c-2.216 1.943 2.104 6.794.941 12.085Z" fill="#F37E60"/><path d="M34.62 38.218s-.404 2.33-.63 4.54c-4.16-.536-5.986-4.563-6.678-6.764l7.308 2.224Z" fill="#CC9981"/><path d="M35.8 40.452s-9.89-.825-9.28-6.977c.608-6.15-.258-10.399 6.081-10.131 6.34.266 7.332 2.735 7.628 4.837.297 2.102-1.842 12.327-4.43 12.27Z" fill="#E9B49C"/><path d="M40.28 24.735c-1.341-2.004-2.535-1.712-3.236-1.221-5.1-3.507-9.015.532-9.015.532-1.102 4.346-4.537 6.555-4.537 6.555s1.689 1.292 5.943.64c1.3-.198 2.522-.986 3.593-1.982-1.96 2.647-4.448 4.445-4.448 4.445 5.184-1.794 7.864-8.487 8.136-9.196.549.602 1.618 1.897 1.865 3.085.336 1.616.234 4.862 1.185 4.846-.002-.001 2.525-4.702.514-7.704Z" fill="#696B70"/><path d="M84.402 70.725c-.99.943-1.99 3.3-5.035 3.254-2.173-.018-4.373.226-5.439.357-.414.073-.655.102-.655.102l-.109-3.45s.044.004.143-.012c.736-.11 4.473-.685 5.952-1.666 1.66-1.113 5.543-.082 5.543-.082s.595.573-.4 1.497Z" fill="#E9B49C"/><path d="M20.116 185.911H4.764s-.368-2.34.434-4.115c.768-1.703 1.972-2.478 1.683-4.538.975 1.005 2.566 2.129 4.785 1.83.272.441 1.755 2.8 2.664 3.453 1.002.721 5.476.464 5.786 3.37ZM53.07 185.912H37.717s-.575-2.449.434-4.116c.892-1.474.55-2.314-.11-3.533.695.285 1.594.544 2.585.488.764-.045 1.574-.392 2.282-.804.66.753 3.49 3.96 4.375 4.595 1.003.721 5.476.463 5.785 3.37Z" fill="#46619B"/><path d="M33.445 36.894s.138.813 2.142.816c0 0 1.683.001 1.686-.883 0 0-1.585-.73-3.828.067Z" fill="#fff"/><path d="M16.805 75.986c-.608 3.846-3.39 11.565-2.096 15.252-3.216-.463-5.48-1.169-5.636-2.1-1.582-3.568 2.29-10.23 4.526-13.616.28-.425.522-.872.721-1.335a8.483 8.483 0 0 0 .698-3.712 67.394 67.394 0 0 0-.399-5.041s2.832 6.464 2.186 10.552Z" fill="#DC775D"/><path d="M38.531 50.032c.107 3.42 2.58 12.805 3.167 11.566.67-1.413 3.266-6.785 4.486-6.982-.064-.248-5.054-5.765-5.273-5.701 0 0-1.357.414-2.38 1.117Z" fill="#F37E60"/><path d="m14.99 98.53-2.546 1.695s-.645-.806-1.665-2.093c-.306-.388-.468-.621-.468-.621-.807-1.04-1.746-2.317-2.773-3.701l-.017-.016c-1.72-2.416-3.61-5.163-5.055-7.647C1.461 84.385.68 82.755.296 81.474a2.754 2.754 0 0 1-.09-.386c-.748-3.251.624-9.705 2.806-16.003.3-.871.616-1.728.92-2.565 1.16-3.089 2.465-5.991 3.775-8.336.769-1.41 1.534-2.64 2.272-3.558.257-.329.497-.638.757-.902.14-.16.28-.313.42-.46 1.53.128 4.74.735 7.122 3.486-.04.144-.083.289-.126.437-.963 3.107-2.45 6.92-3.992 10.656-.838 2.053-1.696 4.09-2.448 6.006a134.212 134.212 0 0 0-1.297 3.246c-.733 1.93-1.278 3.537-1.494 4.664-.147.73.063 2.104.457 3.794.676 2.946 1.963 6.912 3.16 10.278.488 1.406.97 2.713 1.374 3.797a258.804 258.804 0 0 0 1.079 2.902Z" fill="#E9B49C"/><path d="M16.1 62.474c-2.543-3.84-9.834-5.492-9.834-5.492 4.114-13.055 14.916-11.845 14.916-11.845S17.252 58.72 16.1 62.474Z" fill="#F37E60"/><path d="M12.438 100.224s.669.988.743 1.697c.075.711.711 3.067 1.533 3.814.822.748 2.692 2.244 2.953 2.019.261-.225 1.02-1.988.317-3.234-.317-.563-.747-2.132-1.314-2.512-.689-.461-1.687-3.48-1.687-3.48l-2.546 1.696Z" fill="#E9B49C"/><path d="M15 98.912s2.025 1.028 2.3 1.851c.274.823 1.406 2.482 1.289 2.674-.125.205-1.885-.916-2.483-1.938-.598-1.022-1.106-2.587-1.106-2.587Z" fill="#E9B49C"/><path d="m63.203 89.347 74.172-44.405a12.931 12.931 0 0 1 13.286 0l74.172 44.405v72.373l-161.629-8.104v-64.27Z" fill="#DC775D"/><path d="M210.922 57.281H77.117v115.634h133.805V57.281Z" fill="#F6F6F6"/><path d="M83.097 63.593a1.375 1.375 0 1 0-1.053-2.541 1.375 1.375 0 0 0 1.053 2.541ZM203.992 62.323a1.376 1.376 0 1 1 2.751 0 1.376 1.376 0 0 1-2.751 0Z" fill="#EFCBAB"/><path d="M205.365 62.172H82.562v.299h122.803v-.3Z" fill="#EFCBAB"/><path d="M82.72 61.777h-.298V184.58h.299V61.777ZM205.565 61.777h-.299V184.58h.299V61.777Z" fill="#EFCBAB"/><path d="M224.832 89.147v96.762H63.203V89.147l80.815 48.382 80.814-48.382Z" fill="#F37E60"/><path d="m63.203 185.91 74.03-53.075a11.643 11.643 0 0 1 13.569 0l74.03 53.075H63.203Z" fill="#DC775D"/><path d="M168.69 73.299h-48.785c-.708 0-1.288-.58-1.288-1.288 0-.709.58-1.288 1.288-1.288h48.785c.709 0 1.289.58 1.289 1.288 0 .708-.58 1.288-1.289 1.288ZM181.254 78.469h-73.919c-.708 0-1.288-.58-1.288-1.288 0-.709.58-1.288 1.288-1.288h73.919c.708 0 1.288.58 1.288 1.288 0 .708-.58 1.288-1.288 1.288ZM171.671 94.495H118.19a.935.935 0 0 1-.932-.932c0-.512.42-.932.932-.932h53.481c.513 0 .932.42.932.932a.935.935 0 0 1-.932.932ZM123.559 99.362h-15.08a.935.935 0 0 1-.932-.932c0-.512.42-.932.932-.932h15.08c.512 0 .932.42.932.932 0 .513-.42.932-.932.932ZM146.291 99.362h-18.218a.935.935 0 0 1-.932-.932c0-.512.419-.932.932-.932h18.218c.512 0 .932.42.932.932a.934.934 0 0 1-.932.932ZM181.38 99.362h-31.495a.935.935 0 0 1-.932-.932c0-.512.42-.932.932-.932h31.495c.512 0 .932.42.932.932 0 .513-.42.932-.932.932ZM146.414 105.022H117.12a.935.935 0 0 1-.932-.932c0-.512.419-.932.932-.932h29.294c.512 0 .932.42.932.932s-.42.932-.932.932ZM172.724 105.022h-23.073a.936.936 0 0 1-.932-.932c0-.512.42-.932.932-.932h23.073c.512 0 .932.42.932.932s-.42.932-.932.932Z" fill="#EFCBAB"/><path d="M154.64 116.527c-1.762 1.463-3.648 2.682-5.634 3.795.168-.527.308-1.074.282-1.56-.035-.671-.57-.965-1.106-1.243a8.024 8.024 0 0 1-.38-.214c.208-.204.315-.486.177-.794-.226-.509-.86-.427-1.075.044a.877.877 0 0 0-.073.253.657.657 0 0 1-.209-.164 29.57 29.57 0 0 0 .918-1.865c.064-.143-.017-.311-.131-.398-.471-.355-1.113-.24-1.491.206-.449.529-.336 1.333-.121 1.934.015.042.031.084.049.126a27.361 27.361 0 0 1-1.353 2.19l-.137-.135a2.954 2.954 0 0 1-.378-.455 6.6 6.6 0 0 0 .417-1.818c.024-.282-.258-.422-.495-.334-.652.241-1.003.904-.919 1.587.029.234.105.457.212.665a6.046 6.046 0 0 1-.523.918c-.132.191-.037.386.119.477-.215.712-.502 1.44-.993 1.954-.402.418-1.151.737-1.64.239-.309-.315-.348-.841-.391-1.257-.104-1.026-.182-2.09-.144-3.122.018-.489.07-.986.236-1.447.104-.287.25-.722.389-.228.069.243-.026.619-.051.866-.044.441.64.491.684.053.052-.517.284-1.601-.301-1.925-.485-.269-.931.117-1.156.52-.809 1.451-.486 3.442-.365 5.019.097 1.257.566 2.8 2.172 2.4 1.51-.376 2.065-2.28 2.412-3.591a.337.337 0 0 0-.01-.219l.018-.033.189.189c.089.079.174.162.256.248-.159.22-.32.438-.486.654-.094.122-.067.305.027.418.508.613 1.422.159 1.404-.594a1.127 1.127 0 0 0-.115-.47c.477-.687.923-1.394 1.337-2.119.214.211.488.346.824.33l.069-.006c.175.186.396.34.598.455.195.109.42.178.595.321.326.266.229.57.157.949-.095.497-.252.994-.397 1.48-.691.397-1.372.9-1.604 1.695-.212.726-.024 1.489.597 1.938.188.136.436.026.515-.17.39-.958.742-1.932 1.044-2.921l.03-.095c.61-.347 1.248-.652 1.851-1.008a35.38 35.38 0 0 0 4.55-3.216c.343-.288-.11-.804-.45-.522Zm-8.336-.913c-.007-.275.139-.778.455-.771-.143.309-.292.616-.445.919-.004-.05-.009-.1-.01-.148Zm.872 7.926c-.289-.54.125-1.207.597-1.648a35.16 35.16 0 0 1-.597 1.648Z" fill="#F99746"/><g opacity=".5"><path d="m141.123 9.793 6.968 15.373-25.678 11.637-6.968-15.372 16.323 1.868 9.355-13.506Z" fill="#6683C2"/><path d="m115.445 21.43 25.678-11.639-7.677 12.94a2.85 2.85 0 0 1-2.948 1.352l-15.053-2.653Z" fill="#7D99D6"/></g><g opacity=".5"><path d="m271.334 51.67-5.15 19.301-32.239-8.604 5.151-19.3 13.543 13.953 18.695-5.35Z" fill="#6683C2"/><path d="m239.094 43.066 32.238 8.603-16.733 6.089a3.375 3.375 0 0 1-3.714-.973l-11.791-13.719Z" fill="#7D99D6"/></g><path d="m183.453 11.673 20.918 3.31-13.767-9.694-.754 3.029-5.113.845-1.284 2.51Z" fill="#AFCDFB"/><path d="m204.377 14.984-17.308-9.26-17.085-1.122 34.393 10.382Z" fill="#EAEAEA"/><path d="m190.609 5.29 13.768 9.694L193.833 0l-3.224 5.29Z" fill="#EAEAEA"/><path d="M246.801 96.427s-4.265.297-7.414 7.978c-3.175 7.747 3.927 7.671 1.534 12.606-2.393 4.936 3.445 7.88 5.217 11.922 1.773 4.041 10.703 13.789 11.41 18.236.707 4.445 8.648-4.623 8.648-4.623s8.073-8.61 5.178-13.612c-4.771-8.245-.638-10.037-.788-14.641-.148-4.607-8.889-22.752-23.785-17.866Z" fill="#696B70"/><path d="M244.473 123.982s-16.512 7.198-19.649 7.06c-3.136-.136-22.465-5.887-22.465-5.887l.493 3.325s14.916 8.579 20.132 9.066c5.134.479 22.689-4.609 24.384-5.682 1.693-1.074 2.031-6.794-2.895-7.882Z" fill="#D6A58E"/><path d="M243.156 131.874c1.517 1.053 3.42 1.922 5.81 2.473 8.954 2.069 12.386-5.5 13.674-10.694-1.22-.7-2.369-.853-3.034-.932a27.9 27.9 0 0 0-1.891-.155c-1.005-.77-2.503-3.922-2.835-8.816l-.421.113-7.057 1.932s.323 2.243.482 4.363c.122 1.66.338 2.622.023 3.011-.551.12-1.077.82-1.077.82s0 .003-.004.007c-.095.153-2.142 3.52-3.67 7.878Z" fill="#E9B49C"/><path d="M247.383 115.795s.325 2.241.482 4.364c3.999-.401 5.853-4.207 6.576-6.296l-7.058 1.932Z" fill="#CC9981"/><path d="M246.195 117.903s9.491-.524 9.073-6.429c-.417-5.906.527-9.95-5.55-9.865-6.077.084-7.094 2.42-7.434 4.426-.339 2.004 1.432 11.851 3.911 11.868Z" fill="#E9B49C"/><path d="M265.331 151.167c.856-4.381 3.651-21.885.856-27.518-1.003-2.024-4.941-2.205-9.262-2.029-1.344.869-6.467 4.148-8.571 3.739-.022-.004-.064-.015-.118-.028-.991-.248-1.169-1.566-.342-2.166.001-.002-2.336.416-4.993.916-1.502.282-5.549 2.378-5.549 2.378s2.038 3.682 5.044 4.955c-.51 4.573.25 6.59 4.993 17.152 4.009 8.927-.54 16.966-.54 16.966s23.598 18.973 23.729 9.312c.096-7.272-6.343-18.077-5.247-23.677Z" fill="#68CCEA"/><path d="M245.685 186.165a4.384 4.384 0 0 1-3.156-1.921 90.76 90.76 0 0 1-.365-.55c-2.686-4.066-3.732-16.519-9.773-29.786-1.471-3.23-6.754-3.81-8.194-7.461 0 0-3.545-11.834 6.785-12.183 10.332-.349 27.668 32.928 27.943 36.418.265 3.38 6.83 17.748-13.24 15.483Z" fill="#364D7F"/><path d="M204.609 185.893h14.705s.55-2.345-.416-3.942c-.854-1.411-.527-2.216.105-3.384-.665.273-1.527.521-2.476.466-.733-.041-1.508-.374-2.187-.769-.633.721-3.343 3.793-4.189 4.401-.961.69-5.247.445-5.542 3.228Z" fill="#293245"/><path d="M263.781 128.24s1.914 17.412-10.498 21.061c-12.411 3.649-15.935-16.021-5.914-17.435 10.022-1.416 16.412-3.626 16.412-3.626Z" fill="#4EB5D4"/><path d="M223.848 137.683c-.885 6.638-4.342 27.59-10.442 37.811-1.966 3.295 4.954 5.143 4.992 5.133.928-.243 2.475-1.722 3.187-2.365 4.953-4.463 15.005-17.1 15.005-27.232 0-4.939.087-14.374-3.506-16.772-2.212-1.476-8.883.789-9.236 3.425Z" fill="#364D7F"/><path d="M254.447 185.892s-.544-.757-1.495-2.199c-1.13-1.713-2.382-5.084-3.9-9.405-1.595-4.535-3.488-10.116-5.853-15.922a145.33 145.33 0 0 0-2.329-5.418c-1.472-3.23-5.521-2.783-6.961-6.435 0 0-5.621-12.657 4.711-13.006 10.331-.35 29.962 33.859 31.091 37.173 1.237 3.626 7.262 18.687-15.264 15.212Z" fill="#6683C2"/><path d="M215.414 185.893h14.704s.55-2.345-.416-3.942c-.854-1.411-.526-2.216.106-3.384-.666.273-1.528.521-2.477.466-.733-.041-1.507-.374-2.186-.769-.633.721-3.343 3.793-4.19 4.401-.96.69-5.246.445-5.541 3.228Z" fill="#273B67"/><path d="M249.055 174.291c-1.595-4.535-3.487-10.115-5.852-15.922.618-4.399 1.95-8.248 4.19-9.799.001-.001 5.435 16.834 1.662 25.721Z" fill="#46619B"/><path d="M232.428 137.212c-.885 6.639-2.133 28.061-8.233 38.282-1.966 3.296 4.954 5.143 4.992 5.134.928-.243 2.475-1.723 3.187-2.366 4.952-4.463 15.005-17.1 15.005-27.232 0-4.939-5.797-13.977-9.389-16.376-2.212-1.475-5.21-.078-5.562 2.558Z" fill="#6683C2"/><path d="M214.236 119.804s-.752-1.914-2.124-1.79c-1.371.124-13.823 1.79-13.823 1.79s1.449.347 1.997 1.297l5.744 16.926h14.733l-6.527-18.223Z" fill="#EBF3FA"/><path d="M262.619 123.652s-20.871 7.687-24.006 7.529c-2.027-.101-18.875-6.023-18.875-6.023l-1.511 2.861s16.398 10.539 20.906 10.487c8.9-.102 23.918-5.566 25.613-6.64 1.694-1.075 2.799-7.126-2.127-8.214Z" fill="#E9B49C"/><path d="M219.753 125.157s-1.512-2.328-3.019-2.396c-1.506-.069-4.107 1.027-4.996 1.198-.891.172-3.423.994-2.67 2.225.752 1.232 4.244 1.506 5.75 1.232 1.507-.274 3.423.602 3.423.602l1.512-2.861Z" fill="#E9B49C"/><path d="M217.144 122.833s-2.395-1.099-3.08-1.304c-.685-.205-.547.004-.342.653.206.648 1.438 1.267 1.438 1.471-.001.203 1.984-.82 1.984-.82Z" fill="#E9B49C"/><path d="M244.414 114.503s.897-.355 3.421-.151c0 0-.134.986-1.995 1.083-1.054.056-1.426-.932-1.426-.932Z" fill="#fff"/><path d="M251.883 127.441s1.866 5.909 8.278 7.253c0 0 10.586-3.261 5.315-10.473 0 0-5.211-3.872-13.593 3.22Z" fill="#68CCEA"/><path d="M198.283 119.804s-1.383.529-.337 2.324l13.462-1.795s-.468-2.081.59-2.308l-13.715 1.779Z" fill="#fff"/><path d="M203.107 124.221c.319-1.279.299-1.588-.424-2.369-.479-.516-1.21.764-1.589 1.536-.139-.341-.375-.896-.456-.924-.117-.04.161 1.72.161 1.72-.007.072-.01.146-.008.221l-.001-.002s-.583 2.587 1.96 3.984l-.484-1.426c.296-.049.517-1.44.841-2.74Z" fill="#D6A58E"/><path d="M245.846 102.912s2-.7 2.97 1.343c.968 2.043 1.276 6.93 5.161 7.329 3.884.399 4.034-8.277 4.034-8.277l-9.721-3.838-5.134 3.24 2.69.203Z" fill="#696B70"/><path d="M245.838 102.912s-2.19.047-2.691 1.891c-.5 1.845.281 5.286-.932 5.534-1.213.25-2.315-5.734.031-7.678 2.347-1.945 3.592.253 3.592.253Z" fill="#535761"/><path d="M73.89 70.885s2.194-.83 2.442-1.404c.25-.573.972-.822 1.844-1.221.873-.4 1.397-1.122 1.521-1.022.125.1.15.598-.199.972-.35.375-1.827 2.991-2.384 3.29-.557.3-3.223-.615-3.223-.615Z" fill="#E9B49C"/></svg>