<svg width="680" height="438" fill="none" xmlns="http://www.w3.org/2000/svg"><mask id="a" style="mask-type:alpha" maskUnits="userSpaceOnUse" x="0" y="0" width="680" height="438"><path fill="#D9D9D9" d="M0 0h680v438H0z"/></mask><g mask="url(#a)"><path d="M662.578 254.231c-29.543 51.169-93.753 69.409-143.427 40.729-49.662-28.672-65.974-93.399-36.43-144.571 29.543-51.171 93.754-69.41 143.417-40.737 49.675 28.68 65.984 93.407 36.44 144.579Z" fill="#F37E60"/><path d="M513.671 71.607c-12.339 21.371-39.666 28.695-61.041 16.354-21.369-12.338-28.692-39.665-16.353-61.037 12.339-21.371 39.666-28.695 61.036-16.356 21.376 12.34 28.697 39.668 16.358 61.04Z" fill="#68CCEA"/><path d="M387.307 330.755c-56.309 97.53-181.503 130.656-279.633 74.001C9.553 348.106-24.358 223.12 31.951 125.59 88.26 28.062 213.46-5.07 311.58 51.58c98.131 56.659 132.033 181.648 75.727 279.175Z" fill="#7FCBB4"/></g></svg>