<svg width="158" height="111" viewBox="0 0 158 111" fill="none" xmlns="http://www.w3.org/2000/svg">
<g clip-path="url(#clip0_2022_10577)">
<circle cx="83.3425" cy="44.4677" r="41.9584" transform="rotate(54.8258 83.3425 44.4677)" fill="#F6E2B4"/>
<circle cx="34.7185" cy="94.0435" r="22.0459" transform="rotate(54.8258 34.7185 94.0435)" fill="#F6E2B4"/>
<path d="M79.1647 20.6067C79.2492 22.0966 79.8006 23.7898 80.7762 24.9337C77.9227 25.894 75.0438 26.7886 72.1807 27.7211C70.859 28.1516 69.3359 28.4965 68.1173 29.1571C67.4252 29.5323 66.7839 30.062 66.4353 30.7803C65.9904 31.6969 66.0706 32.7025 66.4201 33.6321C66.4536 33.7214 66.4905 33.8072 66.5295 33.8941L56.1132 37.0863C54.5238 37.5708 51.412 38.3278 50.0712 39.0988C49.4393 39.4621 48.8765 40.1099 48.5353 40.7499C47.7446 42.232 47.9379 43.5841 48.4212 45.1276C49.3756 48.1763 50.2829 51.2712 51.3258 54.2879C51.7866 55.3594 78.1291 137.152 78.4927 138.263C78.9932 139.794 79.7616 141.026 81.2464 141.766C82.1831 142.233 83.3821 142.469 84.4155 142.26C85.101 142.122 85.7852 141.861 86.4509 141.647C87.893 141.184 89.3235 140.685 90.7674 140.228L106.502 135.191L156.002 119.409C157.499 118.915 158.744 118.441 159.483 116.942C159.861 116.177 160.065 115.347 159.981 114.49C159.861 113.248 159.383 111.969 159.034 110.771C158.419 108.589 157.766 106.418 157.076 104.259C156.182 101.398 155.408 98.4769 154.451 95.6399C153.388 90.8081 131.895 23.8488 131.344 22.1954C130.793 20.5421 129.809 16.1351 128.005 15.1481C126.635 14.3983 125.324 14.3845 123.852 14.8226C118.885 16.3011 113.994 18.0448 109.039 19.561C108.802 18.7275 108.619 17.6529 107.782 17.2091C107.423 17.0182 106.932 16.9042 106.525 16.9701C105.277 17.1727 103.944 17.7474 102.741 18.144C100.347 18.9373 97.9498 19.7179 95.5484 20.4857C95.4323 17.998 94.8726 15.7566 92.9564 14.017C91.3263 12.5372 89.1685 11.8998 86.9919 12.0127C84.8414 12.1242 82.6754 13.1706 81.2372 14.7716C79.7993 16.3645 79.0537 18.4637 79.1647 20.6067Z" fill="#586C98"/>
<path d="M123.308 23.7023C123.411 23.6853 123.347 23.6882 123.501 23.7265C123.862 24.5585 124.112 25.4501 124.402 26.3093C125.075 28.3241 125.728 30.346 126.359 32.3746L131.438 48.1419C135.375 60.316 139.228 72.5171 142.997 84.7444L151.583 112.126C148.676 112.981 145.822 114.015 142.928 114.912L105.172 126.975L92.3887 131.117C90.4921 131.724 88.6198 132.44 86.6918 132.941C85.7655 130.498 85.0595 127.953 84.2395 125.471C83.7235 124.04 83.3703 122.524 82.9124 121.07L79.8773 111.669L70.4734 82.7547L61.7574 55.618C60.6234 52.0295 59.3257 48.472 58.3203 44.8458C60.6713 44.0803 63.0565 43.3957 65.4217 42.6736C67.1011 42.161 68.7886 41.5644 70.4999 41.1756C70.8117 42.2789 72.214 46.5038 72.7335 47.1949C72.9108 47.2526 73.0815 47.2097 73.2591 47.1727C74.7997 46.853 76.528 46.1999 78.063 45.731C81.4998 44.6921 84.93 43.632 88.3538 42.5509L101.782 38.3687C105.81 37.1414 109.866 35.9671 113.869 34.662C114.203 34.5528 115.093 34.3285 115.288 34.0327C115.372 33.4862 115.117 32.8418 114.903 32.3425C114.296 30.9206 113.354 30.1579 111.943 29.5936C111.724 28.9168 111.487 28.2424 111.345 27.5443C112.911 26.8613 114.677 26.4098 116.309 25.8979C118.642 25.166 120.961 24.3887 123.308 23.7023Z" fill="white"/>
<path d="M100.22 104.625L100.639 104.529L100.674 104.608C100.286 105.214 99.8443 105.763 99.4891 106.392C99.392 106.599 99.3642 106.754 99.4096 106.978C99.6291 108.054 100.112 109.173 100.455 110.222C101.365 113.002 102.351 115.768 103.123 118.59C101.772 119.182 100.258 119.534 98.8512 119.979C96.1445 120.835 93.4448 121.712 90.7522 122.611C90.3824 121.815 90.1622 120.95 89.8912 120.116L88.2824 115.075C87.8082 113.588 86.9613 111.522 86.7109 110.068C87.612 109.66 88.6692 109.4 89.615 109.096C91.4646 108.519 93.3022 107.905 95.1265 107.253C96.0264 106.94 96.9794 106.664 97.8473 106.272C98.4028 106.021 98.8523 105.514 99.3362 105.146C99.6072 104.941 99.9197 104.784 100.22 104.625Z" fill="white"/>
<path d="M100.212 104.625L100.632 104.529L100.666 104.608C100.279 105.214 99.8371 105.763 99.4819 106.392L99.4034 106.274C99.1822 106.67 98.9156 107.077 98.7423 107.494C96.9737 110.657 95.9975 114.897 95.2517 118.431C94.0148 117.59 92.8648 116.628 91.8184 115.559C91.39 115.118 90.4832 113.891 90.1001 113.642C90.0751 113.511 90.0635 113.48 90.1092 113.35C91.2896 113.645 92.8327 114.718 93.8937 115.337C94.2399 114.461 94.5142 113.559 94.878 112.687C95.6397 110.862 96.5503 109.123 97.4974 107.39C98.3188 106.32 98.9525 105.437 100.185 104.816L100.212 104.625Z" fill="#89A2D8"/>
<path d="M100.215 104.625L100.635 104.529L100.669 104.608C100.282 105.214 99.84 105.763 99.4848 106.392L99.4062 106.274C99.5942 105.944 100.191 105.159 100.187 104.816L100.215 104.625Z" fill="#303D5E"/>
<path d="M100.22 104.624L100.192 104.815C98.9598 105.436 98.326 106.319 97.5046 107.389L97.4389 107.325L97.5397 107.09L97.4623 106.998C96.7231 107.09 94.8881 107.871 94.0361 108.161C91.8175 108.901 89.595 109.63 87.369 110.347C87.8866 112.499 88.6803 114.643 89.3651 116.752C89.9316 118.497 90.4178 120.281 91.0501 122.002C93.515 121.129 95.9995 120.312 98.5017 119.552C99.8377 119.134 101.22 118.763 102.522 118.253C101.883 116.024 101.123 113.821 100.403 111.617C100.014 110.425 99.5443 108.622 98.9597 107.565C98.8525 107.507 98.8977 107.505 98.8336 107.516L98.7496 107.493C98.9229 107.075 99.1895 106.668 99.4106 106.273L99.4891 106.391C99.392 106.598 99.3642 106.753 99.4096 106.977C99.6291 108.053 100.112 109.172 100.455 110.221C101.365 113.001 102.351 115.767 103.123 118.589C101.772 119.181 100.258 119.533 98.8512 119.978C96.1445 120.834 93.4448 121.711 90.7522 122.61C90.3824 121.814 90.1622 120.949 89.8912 120.115L88.2824 115.074C87.8082 113.587 86.9613 111.521 86.7109 110.067C87.612 109.659 88.6692 109.399 89.615 109.095C91.4646 108.518 93.3022 107.904 95.1265 107.252C96.0264 106.939 96.9794 106.663 97.8473 106.271C98.4028 106.02 98.8523 105.513 99.3362 105.145C99.6072 104.94 99.9197 104.783 100.22 104.624Z" fill="#172B58"/>
<path d="M80.2093 52.3705C80.7356 51.4444 81.7083 50.6825 82.725 50.3831L82.978 50.3091C82.631 50.7336 81.4079 52.0234 81.4313 52.5656C81.4354 52.6601 81.4756 52.77 81.5021 52.861C81.9424 53.6613 82.3107 55.0545 82.621 55.9543C83.5795 58.7333 84.5296 61.502 85.3146 64.3362C81.2487 65.6601 77.1689 66.9409 73.0758 68.1783L70.2881 59.7341C69.8691 58.4455 69.2896 57.0593 69.0547 55.7296C70.1282 55.304 79.6279 52.3084 80.0184 52.349C80.0401 52.3512 80.061 52.36 80.0827 52.3625C80.1247 52.3672 80.167 52.3677 80.2093 52.3705Z" fill="white"/>
<path d="M69.0547 55.7297C70.1282 55.3041 79.6279 52.3084 80.0184 52.349C80.0401 52.3512 80.061 52.3601 80.0827 52.3625C80.1247 52.3672 80.167 52.3678 80.2093 52.3705L80.2938 52.4201C80.0826 52.7418 79.9116 53.0618 79.7476 53.4095L79.6704 53.3084C79.7085 53.1925 79.7259 53.1016 79.7417 52.982C79.5083 52.9044 70.786 55.6871 69.705 56.0051C70.7943 59.8741 72.1321 63.7094 73.3963 67.5259C77.208 66.5361 80.9645 65.1735 84.7273 64.0034C83.6044 60.3055 82.2932 56.7007 81.0678 53.0399L80.9634 52.9393L81.1845 52.5275C81.31 52.6308 81.4006 52.7354 81.5021 52.861C81.9424 53.6614 82.3107 55.0546 82.621 55.9544C83.5795 58.7333 84.5296 61.5021 85.3146 64.3363C81.2487 65.6602 77.1689 66.9409 73.0758 68.1783L70.2881 59.7341C69.8691 58.4455 69.2896 57.0593 69.0547 55.7297Z" fill="#172B58"/>
<path d="M80.2048 52.37C80.7311 51.4439 81.7038 50.682 82.7205 50.3826L82.9734 50.3086C82.6265 50.7331 81.4033 52.0229 81.4267 52.5651C81.4309 52.6596 81.4711 52.7696 81.4976 52.8605C81.396 52.7348 81.3055 52.6303 81.18 52.5269L80.9588 52.9387L81.0633 53.0393C79.6775 55.0295 78.3923 61.1076 77.9823 63.667C77.9713 63.7709 77.9687 63.8808 77.9392 63.9811C77.1289 63.7612 75.0403 61.8791 74.3538 61.2435C73.979 60.8962 72.6899 59.6872 72.6719 59.2226C73.1702 59.0676 76.4084 60.7266 76.9569 60.9933C77.7261 58.1067 78.2025 56.0114 79.6658 53.3078L79.7431 53.409C79.9071 53.0612 80.078 52.7413 80.2893 52.4196L80.2048 52.37Z" fill="#89A2D8"/>
<path d="M86.3737 70.1765C87.2905 69.2576 87.955 68.5697 89.1716 68.0557C88.5458 68.8435 87.9704 69.5842 87.4494 70.4501C88.613 74.3587 90.1899 78.1873 91.14 82.1513C88.4898 83.0817 85.7845 83.8794 83.1066 84.7269C81.7028 85.1712 80.3248 85.6957 78.9153 86.1209C78.5677 85.3567 78.337 84.4983 78.0708 83.7013C77.4495 81.8183 76.8444 79.9301 76.2552 78.0369C75.8293 76.715 75.1137 75.1564 74.8906 73.811C75.6645 73.4116 76.6077 73.1951 77.4376 72.9367L81.8183 71.5778C83.2225 71.1372 84.9737 70.4213 86.3737 70.1765Z" fill="white"/>
<path d="M86.3737 70.1763L86.5337 70.2582C86.3101 70.5833 86.0843 70.9068 85.8564 71.2287L85.7879 71.1574C85.8586 71.0321 85.8849 70.989 85.8958 70.8417C82.3901 71.7852 78.9965 73.1794 75.4787 74.0691C75.8371 75.4348 76.3914 76.7735 76.8165 78.1236C77.5972 80.6043 78.2881 83.1358 79.2387 85.5583C82.9475 84.1628 86.7762 83.0614 90.5453 81.8403C90.1733 80.7776 89.885 79.6822 89.5473 78.6074C89.0491 77.0218 88.512 75.4526 87.9941 73.8739C87.7064 72.997 87.4791 71.9165 87.0473 71.1085L87.02 71.0261C87.0563 70.7647 87.2288 70.5334 87.3619 70.3099L87.4494 70.4499C88.613 74.3585 90.1899 78.1871 91.14 82.1511C88.4898 83.0815 85.7845 83.8792 83.1066 84.7267C81.7028 85.171 80.3248 85.6955 78.9153 86.1207C78.5677 85.3565 78.337 84.4981 78.0708 83.7011C77.4495 81.8181 76.8444 79.9299 76.2552 78.0367C75.8293 76.7149 75.1137 75.1562 74.8906 73.8108C75.6645 73.4114 76.6077 73.1949 77.4376 72.9365L81.8183 71.5776C83.2225 71.137 84.9737 70.4211 86.3737 70.1763Z" fill="#172B58"/>
<path d="M86.3843 70.1765C87.301 69.2576 87.9655 68.5697 89.1821 68.0557C88.5563 68.8435 87.981 69.5842 87.4599 70.4501L87.3724 70.3101C87.2393 70.5336 87.0668 70.7649 87.0306 71.0263L87.0578 71.1086L86.8712 71.3177L86.8123 71.3447C85.3396 73.2953 84.136 79.735 83.7461 82.2674C81.9134 80.5315 79.9166 78.836 78.4453 76.7717C79.9108 77.2692 81.468 78.2575 82.8759 78.9585C83.5283 76.298 84.5244 73.6181 85.8669 71.2289C86.0948 70.9069 86.3206 70.5834 86.5442 70.2584L86.3843 70.1765Z" fill="#89A2D8"/>
<path d="M93.8028 86.8051C93.9946 86.7276 94.1771 86.6189 94.3859 86.6392C94.2967 86.8697 93.2602 88.4303 93.12 88.5237C93.1378 89.6708 94.335 92.5669 94.7506 93.7775C95.4813 95.8494 96.1582 97.9402 96.7804 100.047C95.8653 100.668 91.5623 101.909 90.1397 102.376C88.3808 102.952 86.6343 103.596 84.8584 104.117C84.2563 102.959 83.7527 101.033 83.3154 99.7206C82.7793 98.1098 82.256 96.4946 81.7459 94.8753C81.4288 93.8908 81.0432 92.885 80.8281 91.874C81.5047 91.5548 82.2507 91.3524 82.962 91.1224L86.3826 90.0224C87.4224 89.6896 88.4693 89.377 89.5069 89.0377C90.2928 88.7808 91.0757 88.4759 91.8863 88.3077C92.4779 87.7119 93.0212 87.1495 93.8028 86.8051Z" fill="white"/>
<path d="M91.8863 88.3063C92.4779 87.7106 93.0212 87.1482 93.8028 86.8037L93.9586 86.9336C92.8789 87.3759 92.2145 88.0744 91.5357 89.0079L91.4183 88.9883C90.0189 89.3285 88.6343 89.8479 87.2623 90.2885C85.3392 90.9061 83.3897 91.4862 81.4813 92.1439C81.7972 93.9172 82.7866 96.4718 83.3753 98.2273C83.9558 99.9586 84.4569 101.789 85.1623 103.469C86.5228 103.149 87.8467 102.608 89.173 102.168C91.5113 101.393 93.8641 100.637 96.191 99.8302C95.4715 97.4691 94.6651 95.1298 93.8743 92.7916C93.5288 91.7696 93.2422 90.581 92.768 89.6215C92.7159 89.5162 92.6876 89.4861 92.588 89.4314L92.4584 89.3938C92.6334 89.0674 92.8366 88.7581 93.035 88.4456L93.12 88.5223C93.1378 89.6695 94.335 92.5655 94.7506 93.7762C95.4813 95.848 96.1582 97.9388 96.7804 100.046C95.8653 100.667 91.5623 101.908 90.1397 102.374C88.3808 102.951 86.6343 103.595 84.8584 104.115C84.2563 102.957 83.7527 101.031 83.3154 99.7193C82.7793 98.1084 82.256 96.4932 81.7459 94.874C81.4288 93.8894 81.0432 92.8836 80.8281 91.8726C81.5047 91.5534 82.2507 91.351 82.962 91.1211L86.3826 90.0211C87.4224 89.6882 88.4693 89.3756 89.5069 89.0364C90.2928 88.7794 91.0757 88.4745 91.8863 88.3063Z" fill="#172B58"/>
<path d="M93.8039 86.8051C93.9956 86.7276 94.1782 86.6189 94.3869 86.6392C94.2978 86.8697 93.2613 88.4303 93.121 88.5237L93.036 88.447C92.8376 88.7594 92.6344 89.0687 92.4594 89.3951C91.0386 91.7653 89.5602 97.9061 89.3538 100.768C87.2949 98.9171 85.6942 97.4969 84.0312 95.233C85.3954 95.8392 86.6562 96.7392 88.0279 97.2899C88.7889 94.3814 90.1703 91.6706 91.5368 89.0092C92.2156 88.0758 92.8799 87.3773 93.9597 86.935L93.8039 86.8051Z" fill="#89A2D8"/>
<path d="M135.672 84.9521L135.766 84.9579C135.961 85.1219 136.053 85.5049 136.145 85.7416C134.708 86.4395 132.569 86.9441 131.009 87.4389C127.285 88.63 123.553 89.7997 119.816 90.948L104.293 95.8449C102.574 96.3768 100.865 96.9709 99.1301 97.4483L99.0546 97.4456C98.8665 97.2352 98.7805 96.9125 98.6797 96.6509C99.617 96.2887 100.596 96.0009 101.55 95.6858C103.849 94.9267 106.156 94.2212 108.471 93.5143L118.308 90.415C124.105 88.6375 129.835 86.5962 135.672 84.9521Z" fill="#89A2D8"/>
<path d="M123.928 48.8438L124.02 48.8683C124.203 49.1172 124.257 49.5129 124.335 49.8111L100.231 57.4161L93.0139 59.6615C91.171 60.2374 89.3331 60.8372 87.463 61.3204C87.2533 61.2943 87.1745 61.1685 87.0497 61.0148C87.01 60.8109 87.0115 60.7759 87.0803 60.5801C87.2531 60.4081 87.4172 60.2961 87.6508 60.2173C88.5072 59.928 89.4208 59.7202 90.2916 59.4647C92.144 58.9266 93.989 58.3641 95.8263 57.777C105.211 54.8551 114.579 51.8773 123.928 48.8438Z" fill="#89A2D8"/>
<path d="M134.673 81.2207C134.897 81.3535 134.97 81.8392 135.07 82.0963C133.611 82.6802 132.087 83.1182 130.589 83.5922L121.902 86.2921L109.554 90.1854C105.709 91.4062 101.884 92.6546 98.0061 93.7683L97.8573 93.7363C97.6787 93.5284 97.6112 93.2444 97.5234 92.9887C98.7633 92.409 100.215 92.1326 101.521 91.7282L108.369 89.5566L134.673 81.2207Z" fill="#89A2D8"/>
<path d="M128.667 63.3174L128.803 63.3263C129.002 63.5668 129.079 63.8768 129.181 64.1675C127.374 64.7873 125.534 65.3302 123.713 65.9077C120.423 66.9715 117.127 68.0165 113.825 69.0427L92.2597 75.8415C92.1813 75.8532 92.1218 75.836 92.0448 75.8213C91.8556 75.5833 91.8268 75.2652 91.7656 74.974C94.4282 74.0389 97.1651 73.2625 99.8585 72.4159L114.485 67.8331L122.578 65.2562C124.605 64.5911 126.612 63.893 128.667 63.3174Z" fill="#89A2D8"/>
<path d="M122.81 45.4043L122.923 45.4411C123.1 45.6775 123.147 45.942 123.218 46.2232C121.935 46.7293 120.546 47.0992 119.234 47.5412C114.576 49.1097 109.852 50.5041 105.16 51.9662L93.7374 55.566C91.2712 56.3462 88.8056 57.1758 86.2993 57.8189L86.1327 57.7438C85.9415 57.5082 85.8908 57.2153 85.8125 56.9278C87.1287 56.4429 88.5398 56.1194 89.8837 55.7082L99.1876 52.8515L122.81 45.4043Z" fill="#89A2D8"/>
<path d="M140.405 99.3535C140.566 99.618 140.63 99.934 140.714 100.23C139.568 100.81 137.79 101.213 136.534 101.61L128.638 104.132C120.465 106.778 112.275 109.367 104.068 111.899C103.843 111.654 103.839 111.316 103.797 111.001C108.449 109.375 113.295 107.997 118.006 106.51C125.457 104.077 132.923 101.692 140.405 99.3535Z" fill="#89A2D8"/>
<path d="M129.721 66.8912L129.888 66.8779C130.138 67.035 130.194 67.4948 130.26 67.774L103.272 76.269C100.023 77.2803 96.808 78.4007 93.5281 79.3074C93.3801 79.3472 93.3808 79.3521 93.2434 79.2861C93.1164 79.0372 93.0496 78.7846 92.9766 78.5166C94.1143 78.1027 95.3069 77.7883 96.4638 77.4277L102.674 75.4573L119.399 70.1599C122.843 69.0746 126.297 68.0423 129.721 66.8912Z" fill="#89A2D8"/>
<path d="M141.291 102.987C141.355 102.984 141.421 103.01 141.483 103.026C141.666 103.249 141.709 103.538 141.78 103.812C140.219 104.39 138.609 104.857 137.019 105.349C134.542 106.111 132.07 106.888 129.603 107.681C124.994 109.202 120.374 110.689 115.743 112.143C112.272 113.262 108.824 114.432 105.322 115.456C105.244 115.463 105.193 115.436 105.119 115.411C104.954 115.166 104.928 114.877 104.875 114.591L141.291 102.987Z" fill="#89A2D8"/>
<path d="M109.238 20.0619C113.111 18.7722 117.002 17.534 120.908 16.3478C122.197 15.9462 123.932 15.1982 125.216 15.0447C125.944 14.9576 126.71 15.1 127.367 15.4231C128.871 16.1635 129.269 17.5882 129.739 19.0519L147.653 75.8708C150.241 83.892 152.752 91.9381 155.184 100.008C156.205 103.259 157.197 106.519 158.16 109.788C158.526 111.049 158.987 112.299 159.257 113.586C159.474 114.624 159.486 115.716 159.002 116.686C158.636 117.421 158.077 117.968 157.343 118.331C156.312 118.842 155.071 119.129 153.971 119.481L147.908 121.426L128.861 127.505L96.9796 137.683C93.3724 138.833 89.7827 140.072 86.1603 141.17C85.6683 141.347 85.1727 141.522 84.664 141.645C83.4487 141.941 82.1985 141.789 81.1237 141.132C80.2217 140.58 79.6377 139.798 79.2353 138.831C78.6054 137.318 78.1754 135.661 77.6717 134.096C76.7759 131.333 75.8647 128.574 74.9382 125.821C70.6325 113.179 66.5007 100.477 62.5442 87.7208L53.5683 59.5449L50.3266 49.4024C49.7749 47.6786 49.0316 45.7139 48.6263 43.9728C48.3805 42.9179 48.5432 41.6669 49.1246 40.752C49.8353 39.6335 50.845 39.1603 52.0978 38.8674L63.3128 35.4137C64.8523 34.9318 66.3997 34.4966 67.9216 33.958C68.6804 36.2248 69.4366 38.4867 70.3462 40.6987C67.6522 41.4248 64.9913 42.2813 62.331 43.1208C60.7786 43.6107 59.2142 44.1628 57.6242 44.5159C59.1324 49.0179 60.5901 53.5364 61.9969 58.0709L67.1652 74.179L80.6751 115.79C82.6106 121.699 84.2825 127.71 86.3595 133.571C88.2992 133.06 90.1963 132.326 92.1075 131.715L104.264 127.83C116.432 123.837 128.634 119.947 140.868 116.16C143.625 115.322 146.345 114.363 149.092 113.491C150.14 113.158 151.179 112.765 152.25 112.51C151.875 111.184 151.426 109.876 151.024 108.557C149.669 104.096 148.276 99.647 146.845 95.21L135.831 60.2216L128.361 36.7958L125.886 29.2004C125.215 27.1181 124.59 24.9773 123.769 22.9484C119.614 24.3909 115.31 25.4806 111.209 27.0682C110.608 24.7246 109.937 22.3779 109.238 20.0619Z" fill="#F37E60"/>
<path d="M52.0978 38.8672C51.3231 40.0778 50.5623 41.4968 50.899 42.9777C51.1831 44.2272 51.6441 45.4709 52.0405 46.691C52.7507 48.8779 53.4754 51.0556 54.1379 53.2581C57.7056 64.7499 61.3733 76.2105 65.1404 87.6385C68.7643 99.0894 72.4767 110.512 76.2773 121.905L79.807 132.508C80.3563 134.132 80.8468 135.809 81.4778 137.4C81.9129 138.496 82.3159 139.408 83.3498 140.058C83.8272 140.359 84.3336 140.582 84.8722 140.747C85.2901 140.875 85.7952 140.933 86.1603 141.17C85.6683 141.347 85.1727 141.522 84.664 141.645C83.4487 141.941 82.1985 141.789 81.1237 141.131C80.2217 140.579 79.6377 139.798 79.2354 138.831C78.6054 137.318 78.1754 135.66 77.6717 134.096C76.7759 131.332 75.8647 128.574 74.9382 125.821C70.6325 113.178 66.5007 100.477 62.5442 87.7206L53.5683 59.5447L50.3266 49.4023C49.7749 47.6784 49.0316 45.7137 48.6263 43.9726C48.3805 42.9177 48.5432 41.6667 49.1246 40.7518C49.8353 39.6334 50.845 39.1601 52.0978 38.8672Z" fill="#F37E60"/>
<path d="M87.3926 12.4658C89.4169 12.4553 91.5168 13.2906 92.9404 14.7373C94.7055 16.5312 94.9738 18.7713 94.9482 21.165C96.029 20.9666 97.1271 20.5341 98.1719 20.1953L103.983 18.2949C104.793 18.0294 105.643 17.6849 106.478 17.5176C107.134 17.3859 107.413 17.6005 107.948 17.9473C108.408 18.8337 108.648 19.905 108.94 20.8604C109.622 23.1347 110.278 25.4165 110.91 27.7051C103.796 29.8319 96.7494 32.1709 89.6533 34.3555C88.8736 34.6437 88.0503 34.8645 87.2559 35.1133C85.6023 35.6359 83.9442 36.1462 82.2832 36.6445C79.2882 37.5569 76.3119 38.5466 73.3242 39.4854C72.4361 37.2955 71.7568 35.0046 70.9443 32.7832C70.6046 31.8541 70.3081 30.713 69.71 29.9199C69.3846 29.4886 68.9811 29.6746 68.7891 29.4443C69.1358 29.0974 80.1695 25.6847 81.5566 25.2168C80.6562 23.9041 79.9779 22.6847 79.7529 21.0791C79.4749 19.0939 80.0541 17.2184 81.2549 15.6328C82.6533 13.7864 84.6137 12.7994 86.8877 12.4951C87.0553 12.4769 87.2239 12.4673 87.3926 12.4658ZM91.7988 19.3877C91.5955 16.8814 89.4045 15.0107 86.8975 15.2031C84.3748 15.3968 82.4907 17.6043 82.6953 20.126C82.8999 22.6478 85.1158 24.5232 87.6367 24.3076C90.1418 24.093 92.0021 21.8937 91.7988 19.3877Z" fill="#89A2D8"/>
<path d="M86.8974 15.2041C89.4045 15.0115 91.5957 16.8819 91.799 19.3883C92.0025 21.8945 90.1417 24.0939 87.6363 24.3082C85.1154 24.5239 82.8995 22.649 82.6949 20.1271C82.4902 17.6054 84.3747 15.3978 86.8974 15.2041Z" fill="#FFEABA"/>
<path d="M111.753 30.1182C112.18 30.2241 112.585 30.4061 112.947 30.6555C114.035 31.3958 114.587 32.5524 114.818 33.8118C111.63 34.8517 108.402 35.7744 105.201 36.7718L74.9356 46.1644C74.304 46.3489 73.6704 46.5254 73.0344 46.6939C72.747 46.0771 72.5028 45.4269 72.2344 44.8003C72.4824 43.9856 72.7027 43.1674 72.8511 42.3282L101.388 33.38C104.837 32.2782 108.324 31.2798 111.753 30.1182Z" fill="#89A2D8"/>
<path d="M110.916 28.2637C111.205 28.5322 111.305 29.2614 111.409 29.6417C109.665 30.3156 107.843 30.8178 106.056 31.3635L99.3247 33.4737L73.4714 41.5718C73.3151 41.6216 73.1841 41.6453 73.0204 41.6557C72.9732 41.1543 73.2861 40.3716 73.4345 39.8735C74.6393 39.664 75.8294 39.2249 76.9949 38.8563C78.7957 38.2774 80.6001 37.7089 82.4076 37.1509L100.875 31.3428C104.193 30.2959 107.542 29.0953 110.916 28.2637Z" fill="#89A2D8"/>
<path d="M68.0554 29.8908C68.3683 29.8703 68.7216 29.8656 69.0134 29.9981C69.3236 30.1391 69.4931 30.4834 69.6397 30.7724C70.3076 32.0882 70.7481 33.6845 71.212 35.0854C71.7519 36.7003 72.3066 38.3102 72.8758 39.915C72.5515 41.2067 72.3474 42.5237 71.9979 43.8103C71.8812 43.7179 71.8135 43.3977 71.7621 43.2471C71.2988 42.0144 68.5385 33.8034 68.1582 33.4734C67.7712 33.437 67.3705 33.5683 66.9943 33.6533C66.761 33.0236 66.6072 32.3825 66.7319 31.7081C66.8828 30.8919 67.3864 30.3358 68.0554 29.8908Z" fill="#89A2D8"/>
</g>
<defs>
<clipPath id="clip0_2022_10577">
<rect width="158" height="111" fill="white"/>
</clipPath>
</defs>
</svg>
