<svg width="155" height="111" viewBox="0 0 155 111" fill="none" xmlns="http://www.w3.org/2000/svg">
<g clip-path="url(#clip0_2024_13453)">
<path d="M99.3553 15.8727C111.668 14.6397 123.981 13.4068 136.294 12.1722C137.398 12.0624 137.176 9.89267 136.07 10.0042C123.758 11.2371 111.445 12.47 99.1317 13.7046C98.0274 13.8145 98.2492 15.9842 99.3553 15.8727Z" fill="#6683C2"/>
<path d="M92.811 25.1241C99.9041 24.6816 106.997 24.2373 114.089 23.7947C115.198 23.7248 114.973 21.5568 113.865 21.6267C106.772 22.0692 99.6789 22.5135 92.5874 22.9561C91.4781 23.026 91.7033 25.194 92.811 25.1241Z" fill="#6683C2"/>
<path d="M120.213 23.252C129.455 21.6031 138.768 20.4749 148.13 19.871C149.239 19.7994 149.014 17.6314 147.907 17.7029C138.545 18.3086 129.231 19.4367 119.989 21.0839C118.9 21.2786 119.117 23.4467 120.213 23.252Z" fill="#6683C2"/>
<path d="M67.8303 47.8534C78.6485 45.8651 89.5852 44.7453 100.582 44.5024C101.564 44.4807 101.363 42.5656 100.383 42.5872C89.385 42.8318 78.4484 43.9499 67.6318 45.9383C66.6709 46.1147 66.8611 48.0315 67.8303 47.8534Z" fill="#6683C2"/>
<path d="M106.736 44.636C118.547 42.4414 130.484 41.1702 142.49 40.8257C143.473 40.7974 143.271 38.8823 142.292 38.9106C130.286 39.255 118.347 40.5279 106.538 42.7209C105.577 42.8989 105.768 44.8157 106.736 44.636Z" fill="#6683C2"/>
<path d="M147.917 40.0672C151.959 39.6346 156.009 39.3051 160.069 39.0805C161.05 39.0256 160.85 37.1104 159.871 37.1653C155.811 37.39 151.76 37.7194 147.718 38.152C146.744 38.2569 146.939 40.172 147.917 40.0672Z" fill="#6683C2"/>
<path d="M68.3445 55.7717C72.932 55.1827 77.5412 54.81 82.1688 54.6569C83.1513 54.6236 82.9495 52.7085 81.9702 52.7418C77.3427 52.8965 72.7351 53.2675 68.1459 53.8582C67.1751 53.983 67.3686 55.8998 68.3445 55.7734V55.7717Z" fill="#6683C2"/>
<path d="M87.3432 54.3544C95.6508 53.2047 103.993 52.3577 112.363 51.8153C113.342 51.7521 113.143 49.8353 112.164 49.9002C103.795 50.4426 95.4523 51.2895 87.1447 52.4393C86.1755 52.574 86.369 54.4892 87.3432 54.3544Z" fill="#6683C2"/>
<path d="M118.005 51.4473C122.676 50.6852 127.378 50.2277 132.111 50.0729C133.094 50.0413 132.892 48.1245 131.913 48.1578C127.182 48.3125 122.477 48.7701 117.806 49.5321C116.84 49.6902 117.034 51.607 118.005 51.4473Z" fill="#6683C2"/>
<path d="M74.26 110.076C85.0782 108.088 96.0149 106.968 107.012 106.725C107.994 106.703 107.792 104.788 106.813 104.81C95.8147 105.054 84.8781 106.172 74.0615 108.161C73.1006 108.337 73.2908 110.254 74.26 110.076Z" fill="#6683C2"/>
<path d="M113.166 106.862C124.977 104.667 136.914 103.396 148.92 103.051C149.903 103.023 149.701 101.108 148.722 101.136C136.716 101.48 124.776 102.753 112.967 104.946C112.006 105.124 112.198 107.041 113.166 106.862Z" fill="#6683C2"/>
<path d="M154.346 102.292C158.388 101.859 162.439 101.53 166.499 101.305C167.48 101.25 167.28 99.3349 166.301 99.3898C162.24 99.6145 158.19 99.9439 154.148 100.377C153.174 100.481 153.369 102.396 154.346 102.292Z" fill="#6683C2"/>
<path d="M124.434 113.671C129.105 112.909 133.808 112.451 138.541 112.296C139.523 112.265 139.321 110.348 138.342 110.381C133.611 110.534 128.907 110.994 124.236 111.756C123.27 111.914 123.464 113.831 124.434 113.671Z" fill="#6683C2"/>
<path d="M70.635 74.8784C76.9825 73.7136 83.4067 73.2161 89.8709 73.3875C90.8535 73.4142 90.6483 71.4973 89.6724 71.4724C83.2082 71.301 76.784 71.7985 70.4365 72.9632C69.4756 73.1396 69.6658 75.0564 70.635 74.8784Z" fill="#6683C2"/>
<path d="M96.7689 72.8321C102.766 72.2164 108.762 71.5991 114.759 70.9835C115.735 70.8837 115.538 68.9668 114.56 69.0683C108.563 69.684 102.568 70.3013 96.5704 70.9169C95.5945 71.0168 95.7914 72.9336 96.7689 72.8321Z" fill="#6683C2"/>
<path d="M120.183 70.1652C128.672 69.2934 137.162 68.4198 145.651 67.5479C146.627 67.4481 146.43 65.5313 145.453 65.6328C136.963 66.5047 128.474 67.3782 119.984 68.2501C119.009 68.3499 119.205 70.2667 120.183 70.1652Z" fill="#6683C2"/>
<path d="M151.806 67.7779C157.925 67.0275 164.044 66.2771 170.165 65.525C171.137 65.4052 170.942 63.4901 169.966 63.6099C163.847 64.3603 157.728 65.1107 151.608 65.8628C150.635 65.9826 150.83 67.8977 151.806 67.7779Z" fill="#6683C2"/>
<path d="M125.134 73.5221C131.253 72.7717 137.372 72.0212 143.493 71.2692C144.465 71.1494 144.27 69.2342 143.294 69.354C137.175 70.1044 131.056 70.8549 124.936 71.6069C123.963 71.7267 124.158 73.6419 125.134 73.5221Z" fill="#F37E60"/>
<path d="M112.931 110.146C119.05 109.396 125.169 108.645 131.29 107.893C132.262 107.773 132.067 105.858 131.091 105.978C124.972 106.728 118.853 107.479 112.733 108.231C111.76 108.351 111.955 110.266 112.931 110.146Z" fill="#F37E60"/>
<path d="M71.922 83.4894C75.4819 83.0002 79.0402 82.5127 82.6001 82.0235C83.571 81.8904 83.3758 79.9736 82.4016 80.1083C78.8417 80.5975 75.2834 81.085 71.7235 81.5742C70.7526 81.7073 70.9478 83.6241 71.922 83.4894Z" fill="#6683C2"/>
<path d="M87.6733 81.6056C93.9957 80.8452 100.316 80.0831 106.637 79.3227C107.61 79.2063 107.415 77.2894 106.439 77.4076C100.118 78.168 93.7955 78.93 87.4748 79.6904C86.5022 79.8069 86.6974 81.7237 87.6733 81.6056Z" fill="#6683C2"/>
<path d="M112.934 79.0026C119.815 78.382 126.696 77.7614 133.578 77.1407C134.555 77.0526 134.357 75.1374 133.379 75.2256C126.498 75.8462 119.616 76.4669 112.735 77.0875C111.758 77.1757 111.956 79.0908 112.934 79.0026Z" fill="#6683C2"/>
<path d="M140.476 76.6456C146.782 75.7471 153.088 74.8502 159.393 73.9517C160.363 73.8136 160.169 71.8968 159.195 72.0366C152.889 72.9351 146.583 73.8319 140.278 74.7304C139.308 74.8685 139.502 76.7853 140.476 76.6456Z" fill="#6683C2"/>
<path d="M73.0183 92.0788C80.7603 91.2186 88.5007 90.36 96.2428 89.4998C97.217 89.3916 97.0218 87.4748 96.0443 87.5846C88.3022 88.4449 80.5618 89.3034 72.8197 90.1637C71.8455 90.2718 72.0407 92.1886 73.0183 92.0788Z" fill="#6683C2"/>
<path d="M102.715 88.9047C109.462 88.304 116.209 87.7033 122.956 87.1027C123.933 87.0161 123.736 85.0993 122.757 85.1875C116.011 85.7882 109.263 86.3889 102.517 86.9895C101.539 87.076 101.736 88.9928 102.715 88.9047Z" fill="#F37E60"/>
<path d="M72.9631 61.0525C83.7814 59.0642 94.718 57.9444 105.715 57.7014C106.697 57.6798 106.495 55.7647 105.516 55.7863C94.5178 56.0309 83.5812 57.149 72.7646 59.1374C71.8038 59.3138 71.9939 61.2306 72.9631 61.0525Z" fill="#F37E60"/>
<path d="M125.576 44.426L120.544 39.4077C120.246 39.1099 120.246 38.6274 120.544 38.3279C120.843 38.03 121.327 38.03 121.627 38.3279L126.658 43.3462C126.957 43.644 126.957 44.1265 126.658 44.426C126.36 44.7239 125.876 44.7239 125.576 44.426Z" fill="#F37E60"/>
<path d="M120.544 43.3471L125.576 38.3288C125.874 38.031 126.358 38.031 126.658 38.3288C126.957 38.6267 126.957 39.1092 126.658 39.4087L121.627 44.427C121.328 44.7248 120.845 44.7248 120.544 44.427C120.246 44.1292 120.246 43.6466 120.544 43.3471Z" fill="#F37E60"/>
<path d="M79.2474 84.6252L74.2161 79.607C73.9175 79.3091 73.9175 78.8266 74.2161 78.5271C74.5147 78.2293 74.9985 78.2293 75.2988 78.5271L80.3301 83.5454C80.6287 83.8432 80.6287 84.3257 80.3301 84.6252C80.0315 84.9231 79.5477 84.9231 79.2474 84.6252Z" fill="#F37E60"/>
<path d="M74.2161 83.5483L79.2474 78.53C79.546 78.2322 80.0298 78.2322 80.3301 78.53C80.6287 78.8279 80.6287 79.3104 80.3301 79.6099L75.2988 84.6282C75.0002 84.926 74.5164 84.926 74.2161 84.6282C73.9175 84.3303 73.9175 83.8478 74.2161 83.5483Z" fill="#F37E60"/>
</g>
<defs>
<clipPath id="clip0_2024_13453">
<rect width="155" height="111" fill="white"/>
</clipPath>
</defs>
</svg>
