<svg width="299" height="163" viewBox="0 0 299 163" fill="none" xmlns="http://www.w3.org/2000/svg">
<g clip-path="url(#clip0_2024_13498)">
<path d="M280 11.368V159.248C280 161.493 278.114 163.31 275.791 163.31H22.2095C19.8858 163.31 18 161.493 18 159.248V11.368C18 9.12583 19.8858 7.30957 22.2095 7.30957H275.791C278.114 7.30957 280 9.12583 280 11.368Z" fill="#F2F6FD"/>
<path d="M263.512 18.4141H98.1797C97.0751 18.4141 96.1797 19.3095 96.1797 20.4141V125.799C96.1797 126.903 97.0751 127.799 98.1797 127.799H263.512C264.617 127.799 265.512 126.903 265.512 125.799V20.4141C265.512 19.3095 264.617 18.4141 263.512 18.4141Z" fill="#DFE9FF"/>
<path d="M83.7073 18.4141H31.8906C30.7861 18.4141 29.8906 19.3095 29.8906 20.4141V52.4705C29.8906 53.575 30.7861 54.4705 31.8906 54.4705H83.7073C84.8118 54.4705 85.7073 53.575 85.7073 52.4705V20.4141C85.7073 19.3095 84.8118 18.4141 83.7073 18.4141Z" fill="#DFE9FF"/>
<path d="M265.512 134.784H96.1797V138.026H265.512V134.784Z" fill="#DFE9FF"/>
<path d="M84.0864 60.4258H31.5115C30.6163 60.4258 29.8906 61.1515 29.8906 62.0466C29.8906 62.9418 30.6163 63.6675 31.5115 63.6675H84.0864C84.9816 63.6675 85.7073 62.9418 85.7073 62.0466C85.7073 61.1515 84.9816 60.4258 84.0864 60.4258Z" fill="#DFE9FF"/>
<path d="M83.7073 69.5518H31.8906C30.7861 69.5518 29.8906 70.4472 29.8906 71.5518V103.608C29.8906 104.713 30.7861 105.608 31.8906 105.608H83.7073C84.8118 105.608 85.7073 104.713 85.7073 103.608V71.5518C85.7073 70.4472 84.8118 69.5518 83.7073 69.5518Z" fill="#DFE9FF"/>
<path d="M84.0864 111.566H31.5115C30.6163 111.566 29.8906 112.292 29.8906 113.187C29.8906 114.082 30.6163 114.808 31.5115 114.808H84.0864C84.9816 114.808 85.7073 114.082 85.7073 113.187C85.7073 112.292 84.9816 111.566 84.0864 111.566Z" fill="#DFE9FF"/>
<path d="M83.7073 120.692H31.8906C30.7861 120.692 29.8906 121.588 29.8906 122.692V152.387C29.8906 153.492 30.7861 154.387 31.8906 154.387H83.7073C84.8118 154.387 85.7073 153.492 85.7073 152.387V122.692C85.7073 121.588 84.8118 120.692 83.7073 120.692Z" fill="#DFE9FF"/>
<path d="M265.512 141.414H96.1797V144.656H265.512V141.414Z" fill="#DFE9FF"/>
<path d="M173.696 83.4908C171.432 84.5902 168.791 82.9552 168.766 80.437L168.641 67.9338L168.516 55.4306C168.491 52.9124 171.097 51.2242 173.383 52.2797L187.502 58.785L199.952 64.5198C202.583 65.732 202.621 69.4591 200.015 70.7245L187.684 76.7067L173.699 83.4908H173.696Z" fill="#6683C2"/>
<path d="M180.854 97.8565C163.841 97.8565 150 84.0159 150 67.0025C150 49.9891 163.841 36.1484 180.854 36.1484C197.867 36.1484 211.708 49.9891 211.708 67.0025C211.708 84.0159 197.867 97.8565 180.854 97.8565ZM180.854 38.3409C165.05 38.3409 152.196 51.198 152.196 66.9993C152.196 82.8006 165.053 95.6578 180.854 95.6578C196.655 95.6578 209.512 82.8006 209.512 66.9993C209.512 51.198 196.655 38.3409 180.854 38.3409Z" fill="#6683C2"/>
<path d="M54.9438 42.9988C54.0417 43.4373 52.9925 42.7858 52.9831 41.7836L52.933 36.8099L52.8829 31.8361C52.8735 30.8339 53.9102 30.1636 54.8185 30.5833L60.4343 33.1704L65.3861 35.4505C66.4322 35.9329 66.4479 37.4143 65.4112 37.9186L60.5063 40.299L54.9438 42.9988Z" fill="#6683C2"/>
<path d="M57.7824 48.7142C51.014 48.7142 45.5078 43.208 45.5078 36.4396C45.5078 29.6712 51.014 24.165 57.7824 24.165C64.5508 24.165 70.057 29.6712 70.057 36.4396C70.057 43.208 64.5508 48.7142 57.7824 48.7142ZM57.7824 25.0389C51.4963 25.0389 46.3817 30.1536 46.3817 36.4396C46.3817 42.7257 51.4963 47.8404 57.7824 47.8404C64.0685 47.8404 69.1831 42.7257 69.1831 36.4396C69.1831 30.1536 64.0685 25.0389 57.7824 25.0389Z" fill="#6683C2"/>
<path d="M54.9438 94.1395C54.0417 94.578 52.9925 93.9265 52.9831 92.9242L52.933 87.9505L52.8829 82.9768C52.8735 81.9745 53.9102 81.3042 54.8185 81.7239L60.4343 84.311L65.3861 86.5912C66.4322 87.0735 66.4479 88.555 65.4112 89.0592L60.5063 91.4396L54.9438 94.1395Z" fill="#6683C2"/>
<path d="M57.7824 99.8548C51.014 99.8548 45.5078 94.3487 45.5078 87.5803C45.5078 80.8118 51.014 75.3057 57.7824 75.3057C64.5508 75.3057 70.057 80.8118 70.057 87.5803C70.057 94.3487 64.5508 99.8548 57.7824 99.8548ZM57.7824 76.1795C51.4963 76.1795 46.3817 81.2942 46.3817 87.5803C46.3817 93.8663 51.4963 98.981 57.7824 98.981C64.0685 98.981 69.1831 93.8663 69.1831 87.5803C69.1831 81.2942 64.0685 76.1795 57.7824 76.1795Z" fill="#6683C2"/>
<path d="M54.9438 145.28C54.0417 145.719 52.9925 145.067 52.9831 144.065L52.933 139.091L52.8829 134.117C52.8735 133.115 53.9102 132.445 54.8185 132.865L60.4343 135.452L65.3861 137.732C66.4322 138.214 66.4479 139.696 65.4112 140.2L60.5063 142.58L54.9438 145.28Z" fill="#6683C2"/>
<path d="M57.7824 150.995C51.014 150.995 45.5078 145.488 45.5078 138.72C45.5078 131.951 51.014 126.445 57.7824 126.445C64.5508 126.445 70.057 131.951 70.057 138.72C70.057 145.488 64.5508 150.995 57.7824 150.995ZM57.7824 127.319C51.4963 127.319 46.3817 132.434 46.3817 138.72C46.3817 145.006 51.4963 150.121 57.7824 150.121C64.0685 150.121 69.1831 145.006 69.1831 138.72C69.1831 132.434 64.0685 127.319 57.7824 127.319Z" fill="#6683C2"/>
<g style="mix-blend-mode:screen">
<path d="M252.988 121.893H108.712C106.601 121.893 104.891 120.183 104.891 118.072C104.891 115.961 106.601 114.251 108.712 114.251H252.988C255.099 114.251 256.809 115.961 256.809 118.072C256.809 120.183 255.099 121.893 252.988 121.893Z" fill="#999999"/>
</g>
<path d="M229.245 117.511H110.298C110.004 117.511 109.766 117.771 109.766 118.093C109.766 118.416 110.004 118.676 110.298 118.676H229.245C229.539 118.676 229.777 118.416 229.777 118.093C229.777 117.771 229.539 117.511 229.245 117.511Z" fill="#E58967"/>
<path d="M132.348 116.565H131.641V119.632H132.348V116.565Z" fill="#E58967"/>
<path d="M106.531 118.098C106.531 117.578 106.951 117.158 107.471 117.158C107.991 117.158 108.41 117.578 108.41 118.098C108.41 118.618 107.991 119.037 107.471 119.037C106.951 119.037 106.531 118.618 106.531 118.098Z" fill="#E58967"/>
<path d="M237.055 118.098C237.055 117.578 237.474 117.158 237.994 117.158C238.514 117.158 238.934 117.578 238.934 118.098C238.934 118.618 238.514 119.037 237.994 119.037C237.474 119.037 237.055 118.618 237.055 118.098Z" fill="#E58967"/>
<path d="M241 118.098C241 117.578 241.42 117.158 241.94 117.158C242.46 117.158 242.879 117.578 242.879 118.098C242.879 118.618 242.46 119.037 241.94 119.037C241.42 119.037 241 118.618 241 118.098Z" fill="#E58967"/>
<path d="M232.555 118.098C232.555 117.578 232.974 117.158 233.494 117.158C234.014 117.158 234.434 117.578 234.434 118.098C234.434 118.618 234.014 119.037 233.494 119.037C232.974 119.037 232.555 118.618 232.555 118.098Z" fill="#E58967"/>
<path d="M252.262 120.702C252.086 120.702 251.945 120.561 251.945 120.386C251.945 120.21 252.086 120.069 252.262 120.069C252.907 120.069 253.43 119.546 253.43 118.904C253.43 118.729 253.571 118.588 253.746 118.588C253.922 118.588 254.063 118.729 254.063 118.904C254.063 119.894 253.255 120.699 252.265 120.699L252.262 120.702Z" fill="#E58967"/>
<path d="M253.746 117.598C253.571 117.598 253.43 117.457 253.43 117.281C253.43 116.639 252.907 116.116 252.262 116.116C252.086 116.116 251.945 115.975 251.945 115.8C251.945 115.624 252.086 115.483 252.262 115.483C253.255 115.483 254.059 116.288 254.059 117.278C254.059 117.453 253.919 117.594 253.743 117.594L253.746 117.598Z" fill="#E58967"/>
<path d="M246.926 117.598C246.75 117.598 246.609 117.457 246.609 117.282C246.609 116.292 247.417 115.487 248.407 115.487C248.583 115.487 248.724 115.628 248.724 115.804C248.724 115.979 248.583 116.12 248.407 116.12C247.762 116.12 247.239 116.643 247.239 117.285C247.239 117.461 247.098 117.601 246.923 117.601L246.926 117.598Z" fill="#E58967"/>
<path d="M248.423 120.703C247.43 120.703 246.625 119.898 246.625 118.908C246.625 118.733 246.766 118.592 246.941 118.592C247.117 118.592 247.258 118.733 247.258 118.908C247.258 119.55 247.781 120.073 248.426 120.073C248.601 120.073 248.742 120.214 248.742 120.39C248.742 120.565 248.601 120.706 248.426 120.706L248.423 120.703Z" fill="#E58967"/>
</g>
<defs>
<clipPath id="clip0_2024_13498">
<rect width="299" height="163" fill="white"/>
</clipPath>
</defs>
</svg>
