<svg width="157" height="117" fill="none" xmlns="http://www.w3.org/2000/svg"><g clip-path="url(#a)"><path d="M97.208 39.655c.194.909.293 1.836.294 2.765 0 8.209-7.445 14.886-16.596 14.886-9.15 0-16.595-6.677-16.595-14.886 0-1.117.143-2.204.404-3.252h-4.409A17.703 17.703 0 0 0 60 42.42c0 10.586 9.379 19.198 20.906 19.198 11.528 0 20.907-8.612 20.907-19.198 0-.939-.074-1.862-.217-2.765h-4.388Z" fill="#F3C55C"/><path d="M62.416 41.776a2.158 2.158 0 0 0 2.12-1.778c1.293-7.06 8.141-12.464 16.372-12.464s15.08 5.404 16.373 12.464a2.158 2.158 0 0 0 2.12 1.778c1.339 0 2.362-1.211 2.123-2.529-1.652-9.08-10.265-16.025-20.615-16.025-10.351 0-18.964 6.944-20.615 16.026-.24 1.317.783 2.528 2.123 2.528Z" fill="#FFD77C"/><path d="M136.092 61.618c-11.528 0-20.906-8.612-20.906-19.198 0-10.585 9.378-19.198 20.906-19.198 11.528 0 20.907 8.613 20.907 19.198 0 10.586-9.379 19.198-20.907 19.198Zm0-34.084c-9.151 0-16.595 6.678-16.595 14.886 0 8.209 7.444 14.887 16.595 14.887s16.595-6.678 16.595-14.887c0-8.208-7.444-14.886-16.595-14.886Z" fill="#FDD272"/><path d="M128.59 113.347c-7.974 0-14.586-6.174-15.134-14.129l-2.189-31.831h-5.814c.065.415.099.834.099 1.256v33.367c0 2.647-3.15 5.305-6.112 7.219a11.108 11.108 0 0 0-5.101 9.325h34.34v-5.207h-.089Z" fill="#FFD77C"/><path d="M99.687 112.719c.455-.135.904-.292 1.345-.47 6.425-2.594 10.071-9.432 8.95-16.27l-4.685-28.592-1.985 31.737c-.5 7.995-7.13 14.223-15.14 14.223v5.206h7.186v-.125c0-2.658 1.78-4.951 4.329-5.709Zm-1.168 5.835h42.667v21.283H98.519v-21.283Z" fill="#E4B854"/><path d="M124.558 70.22c9.294-12.193 15.524-34.596 15.524-60.22H90.693V34.04c0 19.096 14.811 34.92 33.865 36.181Z" fill="#FFD77C"/><path d="M122.449 65.14c-5.286 0-10.269-2.865-14.65-7.931-1.044-1.208.29-3.026 1.748-2.377l.047.021 3.671 1.707c1.971.917 4.181-.69 3.918-2.846l-.489-4.02a2.777 2.777 0 0 1 .722-2.22l2.758-2.965c1.48-1.59.636-4.189-1.497-4.605l-3.973-.777a2.765 2.765 0 0 1-1.89-1.373l-1.966-3.539c-1.056-1.9-3.788-1.9-4.843 0l-1.967 3.539a2.764 2.764 0 0 1-1.889 1.373l-.05.01a4.681 4.681 0 0 1-5.355-3.14C94.252 28.346 92.441 19.535 91.51 10H76.77c0 38.65 14.173 69.982 31.656 69.982 6.039 0 11.682-3.74 16.483-10.227 1.428-1.93.004-4.626-2.396-4.615h-.064Z" fill="#F3C55C"/><path d="m110.847 29.329 1.967 3.538a2.774 2.774 0 0 0 1.89 1.373l3.973.777c2.133.417 2.977 3.015 1.497 4.606l-2.758 2.964a2.773 2.773 0 0 0-.722 2.222l.489 4.018c.262 2.158-1.948 3.763-3.918 2.847l-3.671-1.707a2.773 2.773 0 0 0-2.336 0l-3.671 1.707c-1.97.916-4.18-.69-3.918-2.847l.489-4.018a2.764 2.764 0 0 0-.722-2.222l-2.758-2.964c-1.48-1.59-.636-4.189 1.497-4.606l3.973-.777a2.775 2.775 0 0 0 1.89-1.373l1.966-3.538c1.056-1.9 3.788-1.9 4.843 0Z" fill="#fff"/></g><defs><clipPath id="a"><path d="M0 0h157v85c0 17.673-14.327 32-32 32H0V0Z" fill="#fff"/></clipPath></defs></svg>