<svg width="156" height="76" fill="none" xmlns="http://www.w3.org/2000/svg"><g clip-path="url(#a)"><path d="M110.031 10c-12.977-.017-23.552 10.543-23.552 23.52 0 8.628 4.646 16.169 11.572 20.262a4.046 4.046 0 0 1 1.974 3.487V63c.234-.099.485-.15.739-.149h18.472c.262 0 .512.053.74.148V57.27c0-1.445.772-2.773 2.015-3.511 6.902-4.099 11.529-11.627 11.529-20.237.001-12.98-10.513-23.504-23.489-23.521Z" fill="#FFD77C"/><path d="M106.241 57.27c0-1.43-.744-2.761-1.974-3.488-6.926-4.093-11.571-11.634-11.571-20.261 0-11.915 8.914-21.792 20.418-23.316a23.756 23.756 0 0 0-3.083-.205c-12.977-.017-23.552 10.543-23.552 23.52 0 8.628 4.646 16.169 11.572 20.262a4.046 4.046 0 0 1 1.974 3.487V63c.234-.099.485-.15.739-.149h5.477v-5.58Z" fill="#EAB148"/><path d="M112.947 63.978a1.126 1.126 0 0 1-1.128-1.128V52.755c0-1.014.342-2.015.962-2.818l1.614-2.09c.318-.412.49-.918.491-1.439V35.873a1.126 1.126 0 0 1 1.128-1.127 1.13 1.13 0 0 1 1.128 1.127v10.535a4.635 4.635 0 0 1-.962 2.819l-1.614 2.09a2.37 2.37 0 0 0-.491 1.438V62.85a1.13 1.13 0 0 1-1.128 1.128Zm-5.892 0a1.126 1.126 0 0 1-1.128-1.128V52.755c0-.518-.174-1.029-.491-1.439l-1.614-2.09a4.635 4.635 0 0 1-.962-2.818V35.873a1.126 1.126 0 0 1 1.128-1.127 1.128 1.128 0 0 1 1.128 1.127v10.535c0 .518.175 1.03.491 1.44l1.615 2.09c.622.807.96 1.798.961 2.817V62.85a1.13 1.13 0 0 1-1.128 1.128Z" fill="#EAB148"/><path d="M126.408 28.915a16.346 16.346 0 0 0-8.603-10.434 1.125 1.125 0 0 1-.499-1.501 1.127 1.127 0 0 1 1.492-.525 18.603 18.603 0 0 1 9.789 11.876 1.129 1.129 0 0 1-2.179.584Z" fill="#FFEAC8"/><path d="M117.14 38.252h-14.28a1.128 1.128 0 1 1 0-2.256h14.28a1.13 1.13 0 0 1 1.128 1.128 1.13 1.13 0 0 1-1.128 1.128Zm-36.132-4.206h-3.88a1.128 1.128 0 1 1 0-2.256h3.88a1.128 1.128 0 1 1 0 2.256Zm1.108-7.158-3.628-1.377a1.128 1.128 0 0 1 .8-2.109l3.628 1.377a1.128 1.128 0 0 1-.8 2.11ZM77.833 41.78a1.128 1.128 0 0 1 .655-1.455l3.628-1.377a1.128 1.128 0 0 1 .8 2.11l-3.628 1.376a1.13 1.13 0 0 1-1.455-.654Zm65.039-7.734h-3.88a1.13 1.13 0 0 1-1.128-1.128 1.13 1.13 0 0 1 1.128-1.128h3.88A1.13 1.13 0 0 1 144 32.918a1.13 1.13 0 0 1-1.128 1.128Zm-6.443-7.812a1.132 1.132 0 0 1 .655-1.455l3.628-1.377a1.127 1.127 0 0 1 .8 2.11l-3.628 1.376a1.129 1.129 0 0 1-1.455-.654Zm4.283 16.2-3.628-1.377a1.128 1.128 0 0 1 .8-2.109l3.628 1.377a1.124 1.124 0 0 1 .64 1.45 1.126 1.126 0 0 1-1.44.66Z" fill="#FFEDC2"/><path d="M117.732 73.823h-15.465a1.96 1.96 0 0 0-1.958 1.958v1.666a1.96 1.96 0 0 0 1.958 1.957h15.465a1.96 1.96 0 0 0 1.958-1.957V75.78a1.96 1.96 0 0 0-1.958-1.958Z" fill="#EFECEF"/><path d="M117.732 76.614h-15.465c-.884 0-1.632-.59-1.875-1.395a1.946 1.946 0 0 0-.083.562v1.666a1.96 1.96 0 0 0 1.958 1.957h15.465a1.96 1.96 0 0 0 1.958-1.957V75.78c0-.196-.03-.384-.084-.562a1.96 1.96 0 0 1-1.874 1.395Z" fill="#E2DFE2"/><path d="M119.235 68.318h-18.472a1.96 1.96 0 0 0-1.958 1.957v1.666a1.96 1.96 0 0 0 1.958 1.957h18.472a1.96 1.96 0 0 0 1.957-1.957v-1.666a1.96 1.96 0 0 0-1.957-1.957Z" fill="#EFECEF"/><path d="M119.235 71.108h-18.472a1.96 1.96 0 0 1-1.874-1.395 1.95 1.95 0 0 0-.084.562v1.666a1.96 1.96 0 0 0 1.958 1.958h18.472a1.96 1.96 0 0 0 1.957-1.958v-1.666c0-.195-.029-.384-.083-.562a1.96 1.96 0 0 1-1.874 1.395Z" fill="#E2DFE2"/><path d="M119.235 62.813h-18.472a1.96 1.96 0 0 0-1.958 1.957v1.666a1.96 1.96 0 0 0 1.958 1.957h18.472a1.96 1.96 0 0 0 1.957-1.957V64.77a1.96 1.96 0 0 0-1.957-1.957Z" fill="#EFECEF"/><path d="M119.235 65.603h-18.472a1.96 1.96 0 0 1-1.874-1.395 1.949 1.949 0 0 0-.084.562v1.666a1.96 1.96 0 0 0 1.958 1.957h18.472a1.96 1.96 0 0 0 1.957-1.957V64.77c0-.196-.029-.384-.083-.562a1.96 1.96 0 0 1-1.874 1.395Z" fill="#E2DFE2"/></g><defs><clipPath id="a"><rect width="156" height="76" rx="10" fill="#fff"/></clipPath></defs></svg>