<svg width="111" height="99" fill="none" xmlns="http://www.w3.org/2000/svg"><g clip-path="url(#a)"><path d="M52.245 33.496c.173.812.261 1.64.262 2.47 0 7.335-6.651 13.301-14.828 13.301-8.175 0-14.827-5.966-14.827-13.3 0-.998.127-1.97.36-2.906h-3.939c-.18.958-.272 1.93-.273 2.906 0 9.458 8.38 17.153 18.68 17.153 10.3 0 18.68-7.695 18.68-17.153 0-.839-.067-1.664-.195-2.471h-3.92Z" fill="#F3C55C"/><path d="M21.159 35.391c.933 0 1.725-.67 1.893-1.589 1.156-6.308 7.274-11.136 14.629-11.136 7.354 0 13.473 4.828 14.628 11.136.169.918.96 1.59 1.894 1.59a1.924 1.924 0 0 0 1.897-2.26c-1.476-8.114-9.171-14.318-18.42-14.318-9.247 0-16.943 6.204-18.418 14.318a1.923 1.923 0 0 0 1.897 2.26Z" fill="#FFD77C"/><path d="M86.986 53.12c-10.3 0-18.68-7.695-18.68-17.153 0-9.458 8.38-17.153 18.68-17.153 10.3 0 18.68 7.695 18.68 17.153 0 9.458-8.38 17.153-18.68 17.153Zm0-30.454c-8.175 0-14.827 5.966-14.827 13.3 0 7.335 6.651 13.301 14.827 13.301s14.828-5.966 14.828-13.3c0-7.334-6.652-13.301-14.828-13.301Z" fill="#FDD272"/><path d="M80.284 99.338c-7.124 0-13.033-5.516-13.522-12.623l-1.956-28.441h-5.194c.057.37.088.745.088 1.122v29.813c0 2.365-2.815 4.74-5.46 6.45a9.926 9.926 0 0 0-4.559 8.331h30.683v-4.652h-.08Z" fill="#FFD77C"/><path d="M54.46 98.777c.407-.12.808-.261 1.202-.42 5.74-2.317 8.997-8.427 7.996-14.536l-4.186-25.547-1.774 28.356c-.446 7.143-6.37 12.708-13.527 12.708v4.652h6.42v-.112c0-2.375 1.592-4.424 3.868-5.1Zm-1.044 5.213h38.122v19.016H53.416V103.99Z" fill="#E4B854"/><path d="M76.68 60.805C84.985 49.911 90.552 29.895 90.552 7H46.423v21.478c0 17.062 13.233 31.2 30.258 32.327Z" fill="#FFD77C"/><path d="M74.797 56.267c-4.723 0-9.176-2.56-13.09-7.087-.932-1.079.26-2.703 1.562-2.124l.043.02 3.28 1.525c1.76.818 3.735-.616 3.5-2.544l-.437-3.59a2.476 2.476 0 0 1 .645-1.986l2.464-2.648c1.323-1.421.569-3.742-1.337-4.115l-3.55-.694a2.475 2.475 0 0 1-1.688-1.227l-1.757-3.161c-.944-1.697-3.385-1.697-4.328 0l-1.757 3.161a2.474 2.474 0 0 1-1.688 1.227l-.045.009a4.182 4.182 0 0 1-4.784-2.805C49.603 23.39 47.986 15.518 47.153 7H33.984c0 34.533 12.663 62.527 28.284 62.527 5.395 0 10.437-3.341 14.727-9.138 1.275-1.723.003-4.132-2.14-4.123h-.058Z" fill="#F3C55C"/><path d="m64.43 24.27 1.758 3.161a2.474 2.474 0 0 0 1.688 1.227l3.55.694c1.906.373 2.66 2.694 1.337 4.116L70.3 36.114a2.475 2.475 0 0 0-.644 1.986l.436 3.59c.235 1.928-1.74 3.362-3.5 2.544l-3.28-1.525a2.475 2.475 0 0 0-2.087 0l-3.28 1.525c-1.76.819-3.735-.616-3.5-2.544l.436-3.59a2.476 2.476 0 0 0-.645-1.986l-2.464-2.648c-1.323-1.42-.568-3.742 1.337-4.115l3.55-.694a2.474 2.474 0 0 0 1.689-1.227l1.757-3.161c.943-1.697 3.384-1.697 4.327 0Z" fill="#fff"/></g><defs><clipPath id="a"><rect width="111" height="99" rx="10" fill="#fff"/></clipPath></defs></svg>