<svg width="111" height="76" fill="none" xmlns="http://www.w3.org/2000/svg"><g clip-path="url(#a)"><path d="M52.92 30.846c.157.731.236 1.477.236 2.224 0 6.6-5.986 11.97-13.344 11.97-7.359 0-13.345-5.37-13.345-11.97 0-.898.114-1.772.325-2.615h-3.545A14.237 14.237 0 0 0 23 33.07c0 8.513 7.542 15.438 16.812 15.438 9.27 0 16.812-6.925 16.812-15.438 0-.755-.06-1.497-.175-2.224H52.92Z" fill="#F3C55C"/><path d="M24.943 32.552c.84 0 1.552-.604 1.704-1.43 1.04-5.677 6.547-10.023 13.166-10.023 6.619 0 12.125 4.346 13.166 10.023a1.731 1.731 0 1 0 3.411-.603c-1.328-7.302-8.254-12.886-16.577-12.886-8.323 0-15.25 5.584-16.577 12.886a1.73 1.73 0 0 0 1.707 2.033Z" fill="#FFD77C"/><path d="M84.188 48.508c-9.27 0-16.812-6.925-16.812-15.438 0-8.512 7.542-15.437 16.812-15.437 9.27 0 16.812 6.925 16.812 15.437 0 8.513-7.542 15.438-16.812 15.438Zm0-27.409c-7.358 0-13.345 5.37-13.345 11.971s5.987 11.97 13.345 11.97c7.359 0 13.345-5.369 13.345-11.97 0-6.6-5.987-11.97-13.345-11.97Z" fill="#FDD272"/><path d="M78.156 90.105a12.198 12.198 0 0 1-12.17-11.362l-1.76-25.596H59.55c.052.333.08.67.08 1.01v26.831c0 2.129-2.534 4.266-4.916 5.805a8.933 8.933 0 0 0-4.102 7.499h27.614v-4.187h-.071Z" fill="#FFD77C"/><path d="M54.914 89.6c.366-.109.727-.235 1.082-.378 5.166-2.086 8.098-7.585 7.197-13.083l-3.768-22.992-1.596 25.52c-.402 6.43-5.733 11.438-12.175 11.438v4.187h5.778v-.102c0-2.137 1.433-3.98 3.482-4.59Zm-.94 4.692h34.31v17.114h-34.31V94.292Z" fill="#E4B854"/><path d="M74.913 55.425C82.386 45.62 87.397 27.605 87.397 7H47.68v19.33c0 15.356 11.91 28.08 27.232 29.095Z" fill="#FFD77C"/><path d="M73.218 51.34c-4.251 0-8.259-2.304-11.78-6.378-.84-.97.232-2.433 1.405-1.911l.037.017 2.953 1.373c1.584.737 3.361-.555 3.15-2.29l-.393-3.231a2.227 2.227 0 0 1 .58-1.787l2.218-2.383c1.19-1.28.511-3.368-1.204-3.703l-3.194-.625a2.228 2.228 0 0 1-1.52-1.104l-1.581-2.846c-.85-1.527-3.046-1.527-3.895 0l-1.581 2.846a2.227 2.227 0 0 1-1.52 1.104l-.04.008a3.764 3.764 0 0 1-4.306-2.524c-2.004-6.154-3.46-13.24-4.21-20.906H36.487c0 31.08 11.396 56.275 25.455 56.275 4.856 0 9.394-3.007 13.255-8.224 1.148-1.551.003-3.72-1.927-3.711h-.051Z" fill="#F3C55C"/><path d="m63.888 22.543 1.581 2.845a2.226 2.226 0 0 0 1.52 1.104l3.195.625c1.715.336 2.394 2.425 1.204 3.704l-2.218 2.383a2.228 2.228 0 0 0-.58 1.787l.393 3.231c.21 1.735-1.567 3.026-3.15 2.29l-2.953-1.373a2.228 2.228 0 0 0-1.878 0l-2.952 1.373c-1.585.736-3.362-.555-3.15-2.29l.392-3.231a2.229 2.229 0 0 0-.58-1.787l-2.218-2.383c-1.19-1.28-.511-3.369 1.204-3.704l3.195-.625a2.226 2.226 0 0 0 1.52-1.104l1.58-2.845c.85-1.527 3.046-1.527 3.895 0Z" fill="#fff"/></g><defs><clipPath id="a"><rect width="111" height="76" rx="10" fill="#fff"/></clipPath></defs></svg>