<svg width="89" height="114" fill="none" xmlns="http://www.w3.org/2000/svg"><path d="M64.791 0a3.175 3.175 0 0 1 3.172 3.172v106.93a3.175 3.175 0 0 1-3.172 3.172H3.171A3.175 3.175 0 0 1 0 110.102V3.172A3.175 3.175 0 0 1 3.172 0" fill="#6682C1"/><path d="M62.298 108.743H5.664a2.266 2.266 0 0 1-2.266-2.265V6.797A2.266 2.266 0 0 1 5.664 4.53h56.634a2.266 2.266 0 0 1 2.265 2.266v99.681a2.266 2.266 0 0 1-2.265 2.265Z" fill="#DEE5F6"/><path d="M33.996 3.345a1.133 1.133 0 1 0 0-2.265 1.133 1.133 0 0 0 0 2.265ZM5.664 109.115a2.61 2.61 0 0 1-2.61-2.609V90.312h61.844v16.203a2.61 2.61 0 0 1-2.61 2.609H5.664v-.009Z" fill="#fff"/><path d="M39.846 100.727a5.938 5.938 0 1 0-11.723-1.903 5.938 5.938 0 0 0 11.723 1.903Z" fill="#E07C7C"/><path d="M58.618 101.154a5.939 5.939 0 1 0-11.56-2.73 5.939 5.939 0 0 0 11.56 2.73ZM16.473 105.542a5.938 5.938 0 1 0-2.729-11.558 5.938 5.938 0 0 0 2.73 11.558Z" fill="#6783C2"/><path d="M33.984 98.303c1.794 0 3.117.788 3.117 2.319h-1.203M33.984 98.303c-1.794 0-3.117.788-3.117 2.319h1.203M53.375 101.291h-1.006c-.59 0-1.072-.482-1.072-1.072v-2.078c0-.59.481-1.072 1.072-1.072h1.006c.59 0 1.071.481 1.071 1.072v2.078c0 .59-.48 1.072-1.071 1.072ZM52.852 101.292v1.498M51.633 102.789h2.482M16.303 97.846H13.95c-.645 0-1.17.525-1.17 1.17v3.402l2.012-1.017h1.51c.645 0 1.17-.525 1.17-1.171v-1.214c0-.645-.525-1.17-1.17-1.17Z" stroke="#fff" stroke-miterlimit="10" stroke-linecap="round" stroke-linejoin="round"/><path d="M8.82 11.463a1.586 1.586 0 1 0 0-3.171 1.586 1.586 0 0 0 0 3.171Z" fill="#E07C7C"/><path d="M69.294 49.683c-.27.375.536 1.415 1.8 2.32 1.262.907 2.505 1.338 2.774.962.27-.375-.536-1.414-1.8-2.32-1.262-.907-2.505-1.337-2.774-.962Z" fill="#E0D2B8"/><path d="M38.363 46.181c.232-1.13.739-2.569 1.916-2.533 5.369.163 9.473 7.556 13.563 13.71 1.023 1.54 2.862 4.14 3.018 4.395.846-.703 8.72-7.273 12.805-11.532 1.128-1.176 1.967-2.176 2.289-2.828 0 0 .09-.188.113-.226.08-.219.189-.773-.15-1.844-.43-1.358.013-2.402.526-3.61.075-.175.15-.354.226-.538.3-.735.03-1.271-.206-1.742-.206-.409-.424-.821-.044-1.149.4-.345 1.786.542 2.169 1.105.433.64.533 1.709.467 2.117.561-.171 1.816-.113 2.92-.047 1.343.082 4.153-1.522 4.924-2.171.475-.4 1.079-.725 1.668-.814.21-.032.351.207.223.376l-1.956 1.88c.965-.72 2.45-1.722 2.378-1.1-.084.744-2.13 2.175-2.13 2.175 1.253-.425 2.053-1.117 2.195-.696.156.46-1.109 1.285-2.27 1.93.74-.164 2.436-1.14 1.7-.167-.218.29-3.138 2.425-3.433 2.53-3.762 1.345-5.067 2.76-5.067 2.76a310.937 310.937 0 0 1-2.833 4.588l-.824 1.305a299.638 299.638 0 0 1-2.808 4.345l-.004.004c-4.359 6.612-9.59 13.894-11.661 14.175h-.37c-1.566 0-5.835-2.923-8.65-6.41 0 0-3.192-3.945-6.1-8.49-2.683-4.197-5.125-8.907-4.595-11.497Z" fill="#FEA793"/><path d="M74.484 44.092c.207-.196.443-.338.697-.438.255-.098.527-.144.8-.17a5.3 5.3 0 0 1 .828-.009c.277.018.556.043.836.084a3.623 3.623 0 0 0-.823-.215 3.564 3.564 0 0 0-.856-.027c-.285.03-.574.087-.836.217-.262.127-.49.321-.645.558Z" fill="#F79686"/><path d="M56.773 61.813a4.03 4.03 0 0 0-.923.754 4.838 4.838 0 0 0-.703.977 3.817 3.817 0 0 0-.392 1.147c-.069.4-.037.814.068 1.196.035-.398.078-.775.188-1.14.022-.092.063-.18.09-.27l.045-.133c.017-.044.038-.087.056-.13.04-.086.07-.175.112-.26l.13-.253c.177-.335.386-.655.608-.968.226-.312.466-.617.721-.92Z" fill="#995439"/><path d="m69.672 50.22.499 3.217 2.386.616.824-1.305.756-1.208-4.465-1.32Z" fill="#F79686"/><path d="M38.954 50.07c.84 2.333 2.379 5.063 4.004 7.606a120.108 120.108 0 0 0 6.014 8.49c2.815 3.488 7.17 6.549 8.734 6.549h.371c2.07-.28 7.585-7.237 11.943-13.85.003-.001 2.684-4.044 3.785-5.787a.631.631 0 0 0 .022-.034l.05-.08c-2.042-.369-3.562-1.47-4.573-3.283-4.085 4.259-11.599 11.244-12.444 11.947-.157-.254-1.995-2.855-3.018-4.395-4.09-6.154-8.195-13.423-13.564-13.587-1.177-.035-1.684 1.404-1.916 2.534-.209 1.02.044 2.37.592 3.888v.001Z" fill="#91A8D9"/><path d="M38.95 50.069c.84 2.334 2.378 5.064 4.003 7.607a120.146 120.146 0 0 0 6.014 8.49c2.815 3.487 7.17 6.548 8.734 6.548h.371c2.07-.28 7.585-7.237 11.944-13.849.002-.001 2.683-4.044 3.784-5.788-.973 1.519-11.457 17.735-16.092 18.38-4.862.675-8.735-8.78-8.33-13.598.36-4.268-4.751-7.136-6.111-8.81-.053-.065-3.355.571-3.355.571l-.963.448Z" fill="#7C9BDD" style="mix-blend-mode:multiply" opacity=".3"/><path d="m26.464 22-6.132 20.199 11.128-.106s.485.239 1.298.42a8.396 8.396 0 0 0 5.526-.648c.818-.395 1.481-.558 2.035-.609 1.936-.178 2.526 1.013 3.611-1.554 1.396-3.3-.315-6.875-1.025-9.756-.71-2.882 1.025-4.862.64-8.192l-.433-.454-1.897-1.993L38.83 16.8l-7.29 1.665L26.464 22V22Z" fill="#6B2410"/><path d="M32.774 42.512a8.396 8.396 0 0 0 5.527-.65c.817-.394 1.48-.557 2.034-.608.496-1.493 1.173-3.45 1.167-4.856-.014-3.002-1.24-5.158-.607-6.641 1.79-4.19 2.315-6.853 2.233-8.46-.105-2.027-1.176-2.375-1.897-1.992-.125.065-.24.153-.336.258-1.1 1.188-5.038 1.617-5.038 1.617s-3.707 15.018-3.083 21.332Z" fill="#561909"/><path d="M50.637 89.711H21.961c.899-2.228 2.038-4.528 3.162-6.63.42-.783.838-1.54 1.24-2.254l.145-.257.249-.437.058-.102a211.556 211.556 0 0 1 1.559-2.677l.003-.006.228-.386.009-.016.28-.476.093-.159.004-.007.211-.364.065-.113c.205-.359.345-.618.403-.758v-.002c.204-.5.371-1.057.45-1.7l3.218.205 10.508.666 1.06.067.468.03.052.14.023.06.057.151c.014.04.03.08.045.119a9.956 9.956 0 0 1 .06.157 22.084 22.084 0 0 0 .111.287c.004.009.008.018.01.027a290136112208.673 290136112208.673 0 0 0 .191.48l.041.1.058.145a81.173 81.173 0 0 0 .433 1.047l.015.036.07.166.187.438a167.423 167.423 0 0 0 .603 1.387c1.288 2.931 2.404 6.59 3.307 10.636Z" fill="#FEA793"/><path d="M14.514 49.378a4.527 4.527 0 0 0 .505 1.345 6.59 6.59 0 0 0 .315.505 6.878 6.878 0 0 0 .596.731c.046.047.09.095.137.142.138.143.285.282.441.418.105.09.212.18.322.271.002.002.002 0 .002 0 .222.178.459.352.71.521.117.078.232.159.346.244.345.255.681.539 1.016.849h.003l.05.047c.13.122.259.248.388.378l.157.161c.12.124.24.252.358.384l.09.1c.122.138.244.278.363.424.505.61 1.103 1.469 1.739 2.463l.032.05c2.375 3.715 5.27 9.274 5.874 10.838.118.306.235.602.352.888.826 2.054 1.533 3.639 1.37 4.93-.037.306-.196.586-.383.85l-.035.046c-.086.118-.177.233-.263.344-.166.212-.32.416-.401.62a4.759 4.759 0 0 1-.203.406l-.009.016c-.023.044-.05.091-.078.142-.215.385-.527.92-.912 1.574l1.01-.214.569-.12c1.09-.234 2.654-.575 4.387-.965a351.25 351.25 0 0 0 3.808-.88c3.036-.722 5.952-1.48 7.353-2.015.587-.222.908-.408.86-.536a12.274 12.274 0 0 1-.161-.47 13.712 13.712 0 0 1-.587-3.1c-.089-1.157-.03-2.034-.031-2.33-.018-2.28.803-3.941 1.655-5.429l.149-.257c.034-.056.066-.112.098-.168.426-.73.84-1.427 1.142-2.146.019-.044.038-.088.055-.132l.038-.102.045-.118c.418-1.156.78-2.152.874-2.967.29-2.425-1.825-4.254-3.69-5.871-.298-.26-.582-.505-.856-.753a8.054 8.054 0 0 1-.443-.428 18.633 18.633 0 0 1-.897-.985 45.025 45.025 0 0 1-1.458-1.81c-.07-.091-.139-.18-.206-.27-.074-.096-.144-.192-.216-.286l-.206-.277a3.315 3.315 0 0 1-.102-.137l-.15-.203-.096-.132c-.05-.065-.097-.131-.144-.196a2.778 2.778 0 0 1-.091-.126 16.306 16.306 0 0 1-.267-.369l-.034-.047c1.561-.654 2.219-1.341 1.273-1.503-.943-.162-1.65-.11-2.388-.131a6.813 6.813 0 0 1-1.315-.15 7.4 7.4 0 0 1-1.404-.468c-.413-.178-.666-.543-.807-1.014a3.998 3.998 0 0 1-.143-1.079 7.61 7.61 0 0 1 .03-.748c.011-.138.026-.276.044-.416l.027-.207a12.88 12.88 0 0 1 .187-1.028c.278-1.276-6.3-2.265-6.817-1.27v.001a.269.269 0 0 0-.03.157c.097 1.131.07 2.477-.385 3.511a3.01 3.01 0 0 1-.462.754 2.368 2.368 0 0 1-.771.572l-.12.057c-.618.278-1.422.455-2.32.598-.538.085-1.11.156-1.696.23l-.678.084c-1.283.165-2.6.365-3.757.74a7.956 7.956 0 0 0-1.096.437 2.855 2.855 0 0 0-.214.12c-.783.536-1.58 1.432-2.388 2.634l-.036.053v.002c-.065.377-.076.772-.098 1.194-.02.342.006.681.074 1.018v.004Z" fill="#FEA793"/><path d="M28.465 37.213v.002c2.099 1.695 5.284 2.603 6.56 2.919.045-.549.142-1.116.258-1.65.277-1.276-6.3-2.265-6.818-1.27Z" fill="#F79686"/><path d="M28.6 76.927c-.09.219 9.688-.403 14.466-1.205 1.633-.274 2.32-1.386 2.32-1.386-.62-2.127-.777-5.338-.78-5.9-.017-2.238.773-3.878 1.608-5.345l.048-.084.441-.76c.065-.111.129-.22.192-.331.158-.275.309-.548.448-.821l.082-.164c.081-.165.157-.33.227-.496.018-.044.037-.088.054-.133l.04-.1a6.9 6.9 0 0 0 .043-.119c.419-1.155.78-2.152.875-2.967.29-2.424-1.825-4.254-3.69-5.87-.298-.26-.582-.505-.856-.753a9.038 9.038 0 0 1-.378-.362l-.065-.066a19.013 19.013 0 0 1-.897-.985A44.01 44.01 0 0 1 41.113 47a39.726 39.726 0 0 1-.422-.562l-.102-.137-.149-.202a19.623 19.623 0 0 1-.597-.822l-.034-.048-.09-.127a95.541 95.541 0 0 1-.666-.947l-.188-.272c-.01-.015-.02-.03-.03-.042-.005-.01-.012-.018-.018-.027l-.021-.031-.023-.034-.013-.019-.005-.007-.004-.008a.44.44 0 0 1-.01-.013l-.02-.035-.026-.072a7.248 7.248 0 0 1-.924-.078c1.444 2.759-.025 6.12-2.903 6.212l-.198.006a10.502 10.502 0 0 1-9.687-5.738l-.21-.416-.365-.716c-.537.085-1.107.156-1.695.23l.215.474 1.338 2.972 1.045 2.318c1.02 2.262.824 4.905-.576 6.954a7.353 7.353 0 0 1-.246.34c-.66.869-1.633 1.688-2.4 2.258 2.309 3.611 5.108 8.965 5.818 10.698 0 .001.04.097.055.14.964 2.494 1.908 4.345 1.723 5.82-.089.723-.852 1.296-1.082 1.859H28.6Z" fill="#F3F3F3"/><path d="M50.615 89.71h-28.83a51.187 51.187 0 0 1 2.397-5.702c.181-.367.385-.752.603-1.146a49.57 49.57 0 0 1 1.25-2.112l.325-.518.157-.247.169-.262c.608-.946 1.178-1.793 1.58-2.393l.407-.61c0-.002.002-.004.003-.005a.409.409 0 0 1 .019-.032l.014-.022.018-.027.017-.026a4.124 4.124 0 0 0 .09-.15c.068-.118.144-.242.223-.37l.071-.117c.01-.014.018-.028.027-.043l.082-.134.05-.083a17.83 17.83 0 0 0 .262-.456c.034-.061.067-.124.099-.186v-.003h.001l.045.006.188.024.098.012.05.006.065.008.066.008.011.001h.002a.09.09 0 0 0 .011 0l.085.012.085.01.252.028.012.002.09.01.044.005.043.004.073.008.014.002.099.01.04.004a4.323 4.323 0 0 0 .23.025l.218.022a.822.822 0 0 1 .053.005l.222.02.1.01.102.009.056.005.047.004.06.005.184.016.15.012c.05.005.1.009.151.012l.086.007.445.032.207.014.223.014.145.008a34.99 34.99 0 0 1 .491.027 405.575 405.575 0 0 1 .093.005l.212.008.087.005.043.001c.044.002.087.005.132.006l.21.007.213.006.151.005.15.004c.12.003.24.006.36.007h.002c.532.01 1.075.009 1.622-.002l.157-.003h.008l.121-.004h.03l.114-.004c.178-.005.357-.012.535-.02l.091-.004a42.26 42.26 0 0 0 .999-.06l.226-.018c.07-.005.14-.01.21-.017l.135-.013.07-.006.162-.016a11.888 11.888 0 0 0 .477-.05l.28-.034.348-.046.174-.024a23.336 23.336 0 0 0 .861-.14c.092-.015.181-.031.273-.049.064-.013.129-.025.192-.039a1.89 1.89 0 0 0 .079-.016l.042-.008a.817.817 0 0 0 .055-.011l.038-.008.034-.007.1-.021.022-.005c.172-.037.341-.076.51-.118l.066-.016.198-.05a16.836 16.836 0 0 0 .65-.181l.125-.038c.06-.018.118-.037.176-.056a10.903 10.903 0 0 0 .327-.108l.001.003c.008.022.016.044.026.066l.006.017c.02.058.043.117.065.176l.034.09.045.118.035.09.025.066.074.19.038.097.077.197.04.101.082.206.042.105.059.144a81.262 81.262 0 0 0 .432 1.047l.016.036.07.166.186.438.056.13a82.299 82.299 0 0 0 .547 1.257c1.288 2.93 2.404 6.59 3.307 10.636Z" fill="#F2C45B"/><path d="M28.855 76.458c2.194.666 5.412.732 9.501.582 4.112-.15 6.453-.755 7.608-1.183a55.12 55.12 0 0 1-.59-1.521 16.953 16.953 0 0 1-1.542.449c-.176.043-.354.084-.532.123l-.27.056a26.072 26.072 0 0 1-2.487.377 32.405 32.405 0 0 1-1.406.118c-1.105.07-2.206.087-3.27.07-.12-.003-.24-.004-.36-.008a27.24 27.24 0 0 1-.302-.008 35.682 35.682 0 0 1-.686-.025l-.305-.014-.491-.026a78.71 78.71 0 0 1-.798-.052c-.207-.015-.41-.03-.609-.048l-.244-.02a64.83 64.83 0 0 1-.798-.076l-.192-.02c-.013 0-.026-.002-.038-.004l-.017-.001-.121-.013-.088-.01c-.028-.003-.057-.005-.085-.009l-.356-.04a12.163 12.163 0 0 1-.193-.023l-.132-.016-.38-.047c-.258.507-.578.982-.815 1.391l-.002-.002Z" fill="#F79341"/><path d="m37.214 76.723-.002.146v.027l-.002.18-.06 6.534-.017 1.881-.039 4.22h-.297l.034-3.784.023-2.44.058-6.404.001-.143.001-.099.001-.12a.15.15 0 0 1 .299.002ZM39.24 89.71h-.298l-.001-.201-.104-5.355-.021-1.049v-.033l-.119-6.047-.003-.198-.003-.102a.15.15 0 0 1 .146-.152h.003c.081 0 .147.065.15.146v.057l.005.235.025 1.288.009.452.071 3.644.005.26.03 1.528.104 5.32v.207Z" fill="#F79341"/><path d="M50.643 89.71h-6.2a484.77 484.77 0 0 0-.134-8.56 91.97 91.97 0 0 0-.324-5.509l-.017-.188-.034-.376-.03-.31a119.197 119.197 0 0 0-.575-4.908 142.126 142.126 0 0 0-1.039-6.427v-.002a175.758 175.758 0 0 0-2.523-11.444v-.002a184.405 184.405 0 0 0-1.45-5.361l-.001-.002a13.46 13.46 0 0 0-.044-.152l-.189-.653c-.236-.812-.454-1.535-.646-2.16-.022-.074-.043-.145-.066-.215.518.077.903.093 1.316.105.664.018 1.303.009 2.109.124.09.013.183.028.279.044a1.573 1.573 0 0 1 .156.035c.868.237 1.463 1.155-.012 1.773.009.012.807 1.756 2.066 3.527.525.736 1.13 1.478 1.789 2.101 1.795 1.694 3.86 3.425 3.782 5.865-.063 1.978-1.873 5.069-2.329 5.821l-.014.025-.088.143c-.852 1.489-1.133 3.664-1.002 5.941.261 4.554 2.936 11.465 3.262 12.206 1.063 2.419 2.096 5.342 3.014 8.559h-1.055v.001-.001Z" fill="#91A8D9"/><path d="M37.371 43.441c.023.07.044.142.066.215.192.625.41 1.349.646 2.16 1.199 4.107 2.886 10.453 4.207 17.614l-1.494-19.76c-.806-.114-1.445-.105-2.109-.124a10.175 10.175 0 0 1-1.316-.105Z" fill="#C9DAFF"/><path d="M33.366 76.754v.322l-.002.69a420.807 420.807 0 0 1-.031 3.73 951.15 951.15 0 0 1-.117 7.161l-.02 1.055H20.275c1.15-2.695 2.401-5.34 3.372-7.66.253-.604.487-1.187.694-1.742l.002-.006c.083-.22.16-.434.233-.645.04-.11.078-.22.113-.33v-.002c.12-.356.225-.695.313-1.02.143-.523.224-1.285.246-2.192.011-.48.009-.999-.01-1.546v-.002a22.434 22.434 0 0 0-.041-.85c-.176-2.965-.746-6.474-1.591-8.64l-.002-.002-.197-.481c-.245-.597-.508-1.228-.776-1.872l-.018-.044-.13-.309-.222-.531a41.746 41.746 0 0 0-.112-.267l-.094-.222a23.85 23.85 0 0 0-.1-.237l-.143-.339-.079-.185a207.759 207.759 0 0 0-2.003-4.593v-.001l-.023-.05a103.487 103.487 0 0 0-.35-.748l-.007-.012-.003-.008a.055.055 0 0 0-.004-.008l-.114-.23a4.496 4.496 0 0 0-.24-.437c-.008-.01-.015-.023-.023-.032a.241.241 0 0 0-.013-.016l-.047-.05h-.003c-.334-.31-.67-.594-1.015-.849-.115-.083-.23-.164-.346-.242-.251-.17-.488-.343-.71-.522h-.002a23.07 23.07 0 0 1-.322-.271 7.556 7.556 0 0 1-.441-.418c-.048-.047-.091-.096-.137-.143a6.853 6.853 0 0 1-.596-.731l-.041-.06a.591.591 0 0 0-.013-.02l-.047-.07-.03-.046-.028-.045a4.684 4.684 0 0 1-.156-.264l-.035-.062a2.313 2.313 0 0 1-.033-.064l-.032-.063a4.507 4.507 0 0 1-.44-1.354c-.004-.033-.01-.066-.013-.099-.005-.033-.008-.066-.012-.1v-.002a3.891 3.891 0 0 1-.014-.619c.023-.414.03-.806.087-1.177h.001c.003-.006.007-.011.012-.017v-.002l.035-.053c.808-1.202 1.605-2.098 2.388-2.635.085-.059.17-.113.256-.162.234-.122.483-.229.74-.326 1.108-.415 2.403-.623 3.679-.79l.375-.047h.001l.36-.045.162-.02.172-.02.182-.024.231-.03c.126-.016.25-.031.374-.048.267-.035.528-.071.782-.11l.127-.02a40.234 40.234 0 0 0 .818-.14l.06-.011a7.91 7.91 0 0 0 .387-.083 8.74 8.74 0 0 0 .204-.05l.06-.014a7.825 7.825 0 0 0 .4-.118 4.82 4.82 0 0 0 .1-.035l.05-.018a3.57 3.57 0 0 0 .114-.045l.064-.025a2.077 2.077 0 0 0 .183-.084l.051.123.015.037.025.059c.036.089.073.18.112.272l.052.127a239009368359.796 239009368359.796 0 0 1 .235.581c.023.063.048.124.073.188.084.213.171.432.259.66a58.056 58.056 0 0 1 .494 1.313c.108.295.218.6.328.912l.09.252.088.255.18.523.116.342.075.227c.01.025.017.051.026.077l.065.196.061.188c.079.242.158.488.237.738l.137.435c.077.248.154.5.231.756l.077.257c.167.556.33 1.129.494 1.717l.103.379c.034.126.069.252.102.379l.006.02.098.371.101.391.01.033c.044.179.09.359.136.54a88.107 88.107 0 0 1 .748 3.26l.026.123c.041.194.08.39.12.586l.087.444.036.19.05.259a78.492 78.492 0 0 1 .166.904l.053.306c.053.305.105.613.154.922l.05.31.035.227a80.991 80.991 0 0 1 .152 1.029l.044.316v.002c.024.168.046.337.066.508.29 2.203.492 4.495.576 6.848.03.841.051 1.771.063 2.78a191.716 191.716 0 0 1 .018 3.183h.001Z" fill="#91A8D9"/><path d="M18.926 54.453c.005.005.01.01.013.017.093.113.22.356.377.699l.007.016c.88 1.817 2.88 6.535 4.254 9.89l.002.002c-2.009-7.14-2.733-14.642-2.733-14.642-.384 1.412-.992 2.761-1.92 4.02v-.002Z" fill="#7C9BDD" style="mix-blend-mode:multiply" opacity=".3"/><path d="m21.997 43.15 10.628 20.284c-.927-6.776-2.643-12.683-4.153-16.953a80.397 80.397 0 0 0-1.646-4.273c-.631.313-1.481.473-2.44.625-.538.085-1.109.156-1.696.23l-.694.086Z" fill="#C9DAFF"/><path d="M31.552 66.594a.834.834 0 0 0 0 1.666.833.833 0 0 0 0-1.666Zm-.311 1.221a.146.146 0 0 1-.147-.145.146.146 0 0 1 .293 0 .145.145 0 0 1-.146.145Zm0-.488a.146.146 0 1 1-.001-.293.146.146 0 0 1 0 .293Zm.602.488a.145.145 0 1 1 0-.291.146.146 0 1 1 0 .291Zm0-.488a.146.146 0 1 1 0-.293.146.146 0 0 1 0 .293ZM31.552 81.472a.833.833 0 1 0 0 1.666.833.833 0 0 0 0-1.666Zm-.311 1.221a.147.147 0 0 1-.147-.146.146.146 0 1 1 .147.146Zm0-.49a.147.147 0 0 1-.147-.145.146.146 0 1 1 .147.146Zm.602.49a.146.146 0 1 1 0-.292.146.146 0 0 1 0 .292Zm0-.49a.146.146 0 1 1 0-.292.146.146 0 0 1 0 .292Z" fill="#F7F2EB"/><path d="M42.848 40.568c.16-.582.268-1.18.35-1.777.083-.603.131-1.209.153-1.817.012-.61-.005-1.219-.07-1.824a8.42 8.42 0 0 0-.39-1.78c.105.598.249 1.842.247 1.834.288 1.237-.264 5.17-.29 5.365Z" fill="#561909"/><path d="M23.21 25.583c.047 6.836 4.661 10.3 7.065 11.444.01.004.152.078.386.192.906.445 3.193 1.502 4.51 1.502 1.659 0 4.435-3.389 5.398-4.736 1.154-1.617.261-4.987.254-6.11-.006-1.122.569-4.233.595-4.625.028-.42.05-.884.068-1.396 0-.733-.15-1.372-.412-1.928-1.345-2.853-5.664-3.516-8.012-3.497-2.804.023-9.897 2.318-9.85 9.154h-.001Z" fill="#FEA793"/><path d="M35.9 27.878c-.16.467-.258.957-.273 1.456-.008.25.01.502.065.75a1.822 1.822 0 0 0 .316.693c.142.202.29.402.439.597.073.097.153.193.2.29.023.05.038.1.045.156.005.055.01.118.005.17a.797.797 0 0 1-.108.324 1.327 1.327 0 0 1-.215.284 1.458 1.458 0 0 1-.613.38 1.394 1.394 0 0 0 .917-.61.876.876 0 0 0 .143-.364c.009-.07.007-.13.003-.198a.643.643 0 0 0-.05-.2c-.057-.125-.135-.221-.206-.323a20.189 20.189 0 0 1-.43-.597 1.778 1.778 0 0 1-.184-.303 1.812 1.812 0 0 1-.116-.334c-.06-.23-.08-.473-.088-.715a7.003 7.003 0 0 1 .15-1.457ZM34.31 31.752a.931.931 0 0 0-.186.322.882.882 0 0 0-.05.38.607.607 0 0 0 .165.36c.025.022.049.045.075.065l.085.047a.324.324 0 0 0 .09.031c.03.009.061.015.091.02-.096-.08-.19-.147-.246-.242a.685.685 0 0 1-.102-.298 1.354 1.354 0 0 1 .012-.334c.016-.115.04-.23.065-.352Z" fill="#F79686" style="mix-blend-mode:multiply" opacity=".3"/><path d="M20.19 20.275a66.758 66.758 0 0 1-.295 3.737c-.07.62-.148 1.241-.28 1.844l-.05.225-.066.218c-.019.072-.052.144-.077.216a9.22 9.22 0 0 1-.485 1.055c-.584 1.1-1.35 2.102-1.96 3.204a8.146 8.146 0 0 0-.739 1.733 6.037 6.037 0 0 0-.232 1.863 5.99 5.99 0 0 1 .28-1.848 8.052 8.052 0 0 1 .777-1.699c.633-1.077 1.424-2.056 2.047-3.157a9.534 9.534 0 0 0 .525-1.067c.029-.074.063-.144.086-.223l.076-.23.06-.232c.15-.619.245-1.241.333-1.865.17-1.246.295-2.495.396-3.75a.198.198 0 0 0-.395-.031v.007Z" fill="#6B2410"/><path d="M31.933 28.545c.419 0 .758-.51.758-1.137 0-.628-.34-1.137-.758-1.137s-.757.509-.757 1.137.339 1.137.757 1.137Z" fill="#211F1F"/><path d="M33.413 27.133a1.81 1.81 0 0 0-.633-.733 1.493 1.493 0 0 0-.972-.266 1.822 1.822 0 0 0-.924.38 2.421 2.421 0 0 0-.646.716c.253-.196.506-.377.77-.523.135-.07.267-.14.407-.185a1.45 1.45 0 0 1 .418-.094c.28-.028.566.04.832.17.267.13.515.317.748.535ZM39.01 28.545c.397 0 .72-.51.72-1.137 0-.628-.323-1.137-.72-1.137-.398 0-.72.509-.72 1.137s.322 1.137.72 1.137Z" fill="#211F1F"/><path d="M37.527 27.133c.233-.218.481-.405.748-.535.266-.13.552-.198.832-.17.14.009.281.042.418.094.14.044.272.114.406.185.266.146.518.328.77.523a2.42 2.42 0 0 0-.645-.716 1.822 1.822 0 0 0-.924-.38 1.492 1.492 0 0 0-.972.266 1.81 1.81 0 0 0-.633.733ZM33.181 25.12a.67.67 0 0 1-.427.24c-.165.03-.334.02-.502.015-.717-.02-1.432.071-2.143.181a.23.23 0 0 1-.215-.37 1.41 1.41 0 0 1 .315-.29c.254-.174.552-.271.853-.335a4.452 4.452 0 0 1 1.415-.068c.181.02.538.024.688.134.148.107.111.363.015.493h.002ZM37.436 25.105c.09.14.25.226.412.265.163.04.332.04.5.046.732.025 1.454.165 2.17.322.183.04.325-.16.226-.318a1.408 1.408 0 0 0-.328-.357c-.243-.188-.535-.303-.831-.386a4.464 4.464 0 0 0-1.41-.156c-.181.01-.537-.008-.694.092-.154.097-.133.355-.046.491Z" fill="#211F1F"/><path d="M36.481 35.34c-.415.018-.803.018-1.182-.01a5.24 5.24 0 0 1-1.093-.196 4.304 4.304 0 0 1-1.013-.432c-.17-.083-.319-.2-.487-.304-.09-.047-.158-.117-.24-.175a4.1 4.1 0 0 0-.255-.176c.038.096.083.189.13.282.05.092.094.19.16.271.126.167.253.34.42.475.081.068.156.149.248.203.089.06.181.117.273.174.093.055.196.092.293.139.05.02.1.044.151.061l.156.046c.415.123.855.152 1.274.092.418-.064.826-.2 1.164-.45h.001Z" fill="#EA7D6E"/><path d="M23.211 25.584c.047 6.835 4.66 10.3 7.065 11.443.01.005.28-2.12-.2-3.082-1.208-2.41-2.839-2.976-2.38-6.66.235-1.888 2.695-3.248 4.9-3.645.983-.177 2.685-.345 4.354-.855l.064-.02c.927-.288 1.839-.682 2.608-1.244l.133-.1c.29-.222.556-.47.794-.748a4.64 4.64 0 0 0 .525-.747c-1.345-2.853-5.664-3.516-8.012-3.497-2.805.023-9.897 2.318-9.85 9.154Z" fill="#F79686"/><path d="M16.694 35.501c.102.603.209 1.146.317 1.636.297 1.356.161 2.3.243 2.996.104.865.364 1.236 1.187 1.83a4.876 4.876 0 0 0 .354.235 6.58 6.58 0 0 0 1.314.623 9.062 9.062 0 0 0 2.206.464c.166.014.331.025.493.032 1.803.076 2.995.125 3.82-.63 2.523-2.305 1.248-3.724 1.041-4.506-.038-.145-.067-.232-.07-.243 1.92 1.317 1.436 4.663 1.383 4.996a.089.089 0 0 1-.004.017c.108-.245 2.515-5.92.838-9.274-1.207-2.41-2.838-2.977-2.378-6.661.233-1.887 2.694-3.247 4.899-3.644.983-.177 2.685-.346 4.353-.855l.065-.02c.926-.288 1.838-.683 2.607-1.244a5.804 5.804 0 0 0 .927-.848 4.61 4.61 0 0 0 .578-.842c1.776-1.175 2.705 1.822 1.573 5.902.035-.084 1.113-2.847 1.093-3.712-.057-2.364-2.57-9.26-11.857-7.13 0 0-.22-.115-.62-.245a6.889 6.889 0 0 0-.448-.13l-.113-.028a5.258 5.258 0 0 0-.278-.06 7.53 7.53 0 0 0-.86-.125 5.753 5.753 0 0 0-.375-.026c-1.52-.072-3.564.247-5.815 1.726-4.966 3.261-2.312 7.949-2.891 10.361-.646 2.698-4.377 4.75-3.584 9.405h.002Z" fill="#6B2410"/><path d="M23.212 20.104c1.477-4.416 8.474-5.481 8.474-5.481s-.88-.46-2.317-.59c-5.734 2.297-6.147 5.954-6.158 6.071ZM32.369 15.783c-.735.071-1.45.295-2.127.596a7.27 7.27 0 0 0-1.882 1.21c-.068.063-.14.125-.206.192l-.2.2c-.125.142-.254.28-.367.432-.118.147-.223.306-.327.463-.096.164-.195.324-.274.496-.087.167-.152.345-.221.519-.031.089-.058.179-.086.268l-.04.135-.031.136c-.02.091-.041.182-.058.273-.013.092-.026.184-.037.277-.026.183-.024.37-.029.552.121-.35.228-.692.382-1.016l.053-.122.06-.119c.041-.079.078-.159.12-.237.089-.152.17-.308.269-.454.09-.15.197-.29.296-.433.11-.135.211-.277.33-.405.227-.264.473-.514.736-.745.26-.233.535-.451.822-.657.287-.205.585-.397.89-.58a17.242 17.242 0 0 1 1.928-.98h-.001ZM32.457 21.89c.453.086.924.058 1.379-.023.457-.082.9-.23 1.324-.42l.31-.16c.104-.05.203-.11.3-.173.098-.064.198-.122.292-.189.094-.068.186-.138.278-.208l.137-.106.129-.115.255-.233c.162-.164.314-.337.463-.51-.187.136-.358.285-.54.421l-.275.2-.136.1-.142.093c-.095.06-.19.122-.283.185-.095.06-.195.112-.292.168-.05.028-.097.057-.145.085-.048.029-.1.051-.15.077l-.3.15-.309.134c-.102.049-.21.078-.314.12-.052.02-.104.042-.158.058l-.16.05-.161.05-.163.043a6.008 6.008 0 0 1-1.339.202ZM39.71 18.018a2.008 2.008 0 0 0-.517-.642 3.213 3.213 0 0 0-.695-.453l-.19-.083c-.063-.03-.13-.049-.194-.072a3.18 3.18 0 0 0-.398-.111c-.134-.034-.272-.047-.407-.067a4.31 4.31 0 0 0-.41-.014c.128.05.258.086.386.128l.19.066c.064.021.127.039.189.065l.186.07c.063.02.122.05.183.074.124.047.242.105.361.159.236.115.466.242.687.385.219.147.432.305.628.495ZM29.816 20.82c-.367.13-.708.33-1.022.563-.077.06-.155.12-.23.182l-.22.197c-.139.138-.276.279-.4.432-.062.076-.125.152-.18.234-.055.08-.114.16-.167.243l-.146.256c-.023.043-.051.084-.07.13l-.06.135a3.897 3.897 0 0 0-.325 1.12c.154-.357.295-.71.49-1.036.088-.167.197-.323.298-.481.113-.151.217-.309.343-.45.237-.293.501-.565.784-.819.283-.252.583-.488.904-.705h.001ZM28.988 42.952a7.251 7.251 0 0 0 .093-2.288 5.636 5.636 0 0 0-.257-1.132 4.124 4.124 0 0 0-.532-1.043 3.577 3.577 0 0 0-.598-.655c-.07-.062-.141-.122-.21-.185a8.803 8.803 0 0 1-.779-.81c-.487-.571-.91-1.197-1.264-1.859a8.844 8.844 0 0 1-.825-2.082c-.09-.36-.149-.73-.16-1.097-.005-.183.01-.365.026-.555.016-.188.036-.376.06-.564.09-.752.216-1.508.252-2.277.014-.384.006-.77-.05-1.151a4.05 4.05 0 0 0-.322-1.1c.128.36.203.733.235 1.11.03.376.018.754-.018 1.13-.07.754-.229 1.498-.342 2.255-.029.19-.056.38-.078.57a4.778 4.778 0 0 0-.04.585c.004.395.059.784.146 1.163.085.38.209.75.35 1.11.141.36.304.712.487 1.053.37.679.806 1.321 1.317 1.904.256.29.529.565.82.821.073.064.148.125.222.188.07.058.14.118.205.182.133.126.256.262.367.41.446.588.705 1.311.834 2.05.067.371.1.749.11 1.128a8.242 8.242 0 0 1-.05 1.138h.001ZM18.516 42.02c.09.063.18.123.272.178.015-.276.024-.553.025-.829.011-1.13-.098-2.25-.215-3.367 0 .562.02 1.123.023 1.683.003.56-.011 1.119-.054 1.675-.013.22-.03.44-.051.66ZM22.313 43.286c.166.014.331.025.493.032a4.57 4.57 0 0 1 .172-.746c.186-.63.455-1.253.686-1.897.113-.322.222-.652.31-.99.086-.33.156-.704.126-1.067a3.262 3.262 0 0 0-.257-1.04c-.138-.322-.304-.623-.465-.92-.332-.59-.632-1.19-.807-1.85.063.68.311 1.337.584 1.96.273.617.552 1.235.552 1.864.004.318-.066.616-.16.937-.092.316-.208.628-.33.94-.24.626-.514 1.248-.721 1.919-.082.274-.15.561-.183.858Z" fill="#5E1F0B"/><path d="M20.847 20.82c.103.522.19 1.047.254 1.574.069.526.117 1.054.138 1.583.034 1.053.002 2.133-.445 3.097-.385.988-.814 1.966-1.125 2.988a9.667 9.667 0 0 0-.351 1.562c-.06.529-.067 1.075.075 1.59-.106-.523-.084-1.059.002-1.58a9.64 9.64 0 0 1 .391-1.535c.331-1.006.758-1.979 1.155-2.968l.142-.373.065-.193c.02-.064.036-.13.054-.195.067-.262.109-.529.137-.796a9.481 9.481 0 0 0 .02-1.603 17.26 17.26 0 0 0-.512-3.15ZM26.785 29.59c.449.782.881 1.574 1.297 2.373.206.4.409.802.599 1.21.19.407.374.817.532 1.236.158.42.3.845.358 1.284.062.44.069.889.052 1.337-.018.448-.062.895-.122 1.341-.058.446-.136.89-.229 1.332.248-.868.417-1.761.478-2.667.03-.452.029-.909-.028-1.363a4.403 4.403 0 0 0-.143-.673 7.568 7.568 0 0 0-.219-.646 15.679 15.679 0 0 0-.546-1.245 25.29 25.29 0 0 0-.626-1.203 32.951 32.951 0 0 0-1.403-2.317ZM26.466 18.037a5.946 5.946 0 0 0-.704.643 9.096 9.096 0 0 0-1.15 1.527c-.163.276-.31.56-.447.85-.133.29-.248.589-.352.892a8.903 8.903 0 0 0-.25.925 7.721 7.721 0 0 0-.157 1.9c.07-.63.178-1.25.338-1.857.165-.605.373-1.195.637-1.763.259-.568.568-1.114.915-1.636.35-.52.734-1.02 1.169-1.482v.001ZM39.384 16.307a8.654 8.654 0 0 0-1.574-.9 9.728 9.728 0 0 0-.847-.334 9.417 9.417 0 0 0-.878-.244 6.807 6.807 0 0 0-1.815-.161c-.304.011-.606.06-.903.122l-.22.056c-.074.019-.145.045-.218.066-.146.04-.285.105-.425.159a6.215 6.215 0 0 1 1.77-.28 7.915 7.915 0 0 1 1.776.192c.584.129 1.155.313 1.711.537.278.113.553.234.824.364.272.13.538.271.798.423ZM32.462 18.933a6.6 6.6 0 0 1-.497 1.139c-.2.36-.436.7-.718.997-.068.076-.143.146-.216.216-.078.067-.154.135-.236.195a3.203 3.203 0 0 1-.516.329c-.09.05-.186.086-.279.129-.097.034-.192.075-.291.102-.196.065-.401.1-.607.137.208-.002.42-.016.626-.062.104-.018.205-.052.307-.08.1-.036.201-.069.297-.115a3.2 3.2 0 0 0 1.03-.743 4.13 4.13 0 0 0 .712-1.049c.182-.38.322-.782.388-1.196ZM19.83 42.708c.1.041.2.08.301.115.034-.096.06-.184.1-.294.096-.246.162-.498.215-.75.1-.507.142-1.016.164-1.52.017-.508.018-1.014-.007-1.519-.035-1.009-.151-2.01-.27-3.008-.01 1.007.018 2.012.01 3.013-.008.5-.016.999-.05 1.496-.031.495-.074.992-.175 1.47-.05.24-.108.477-.192.699l-.098.298h.001Z" fill="#7F2F1C"/><path d="M39.023 27.075c0 .132.081.24.18.24.1 0 .18-.108.18-.24 0-.133-.08-.24-.18-.24-.099 0-.18.107-.18.24ZM32.215 27.315c.1 0 .18-.108.18-.24 0-.133-.08-.24-.18-.24-.1 0-.18.107-.18.24 0 .132.08.24.18.24Z" fill="#F7F2EB"/><path d="M82.887 40.67a16.215 16.215 0 0 1-1.236.657l-.21.099c-.072.032-.142.064-.214.094.066-.04.134-.078.201-.118l.204-.113a16.386 16.386 0 0 1 1.255-.62ZM83.066 41.803c-.112.06-.225.116-.34.17a11.003 11.003 0 0 1-.695.302l-.176.069c-.06.02-.119.044-.18.063l.169-.088.17-.082a11.481 11.481 0 0 1 1.05-.434h.002ZM83.006 43.039c-.15.075-.306.134-.463.19a4.014 4.014 0 0 1-.48.138c.15-.075.305-.134.462-.19.157-.054.316-.104.48-.138Z" fill="#F79686"/><path d="m22.593 81.348 10.33 7.164a1.725 1.725 0 0 0 2.4-.434L45.46 73.463a1.725 1.725 0 0 0-.434-2.4l-10.33-7.164a1.725 1.725 0 0 0-2.4.434L22.159 78.948a1.725 1.725 0 0 0 .434 2.4Z" fill="#F37E60"/><path d="m37.03 66.628 4.656 3.228c.227.158.54.101.697-.126l.313-.452a.5.5 0 0 0-.126-.697l-4.656-3.228a.5.5 0 0 0-.697.126l-.313.452a.5.5 0 0 0 .126.697Z" fill="#D3CCC1"/><path d="M26.567 77.547c-.5 1.629-.337 3.212.363 3.426.699.214 1.67-1.021 2.168-2.65.499-1.628.247-3.126-.451-3.34-.7-.214-1.581.936-2.08 2.564Z" fill="#E0D2B8"/><path d="M6.602 75.853c1.372.764 9.01 2.276 9.954 2.48l1.964.324h.001l3.503.58h.001l2.537.419.098.016 1.66.276.416.07.439.071.978.163h.001l.34.056 3.327.55c.219.054.449.133.683.232l.022.01c.104.043.209.09.315.142.159.078.318.161.477.251.912.507 1.8 1.154 2.41 1.478h.001c.049.026.098.05.142.072.494.235 1.4.641 2.182.9l.134.044c.061.02.122.037.18.053l.137.039a3.649 3.649 0 0 0 .528.1c.209.017.36-.01.426-.1a.61.61 0 0 0 .13-.356c0-.017-.002-.033-.003-.047 0-.013-.003-.025-.004-.037-.002-.009-.003-.017-.007-.025a.157.157 0 0 0-.007-.025c-.002-.015-.008-.028-.013-.04a.417.417 0 0 0-.052-.1.518.518 0 0 0-.08-.097l.036.02.02.008a1.58 1.58 0 0 0 .386.131c.015.003.033.006.05.007l.013.003.024.002h.01a.387.387 0 0 0 .1 0l.026-.002.034-.004a.474.474 0 0 0 .128-.043l.032-.019a.338.338 0 0 0 .098-.09.433.433 0 0 0 .036-.055c.055-.1.034-.208-.023-.31a.655.655 0 0 0-.06-.092v-.001a1.5 1.5 0 0 0-.148-.166 2.22 2.22 0 0 0-.2-.17c.18.12.877.554 1.113.162a.484.484 0 0 0 .07-.259c0-.012 0-.023-.003-.035l-.001-.018c-.002-.012-.002-.023-.005-.034l-.001-.014-.004-.018a.753.753 0 0 0-.05-.162l-.032-.067a1.747 1.747 0 0 0-.31-.424V81.7v.002s.003-.002.004 0l.03.012.033.012a2.088 2.088 0 0 0 .353.087l.05.007h.005a.76.76 0 0 0 .237-.007.427.427 0 0 0 .203-.093.351.351 0 0 0 .093-.141.39.39 0 0 0 .019-.196.305.305 0 0 0-.01-.049.214.214 0 0 0-.008-.04l-.004-.017c-.005-.013-.009-.028-.015-.041a.834.834 0 0 0-.054-.123 1.95 1.95 0 0 0-.207-.303 4.927 4.927 0 0 0-.292-.318c-.025-.026-.051-.05-.077-.075a3.33 3.33 0 0 1-.079-.074l-.002-.002-.002-.001a10.87 10.87 0 0 0-.199-.177c-.565-.487-1.25-.963-1.661-1.293-.247-.197-.41-.343-.43-.398-.087-.252.95-.17 1.752-.376.804-.207 1.497-.965 1.432-1.175-.036-.112-.278-.328-.661-.116-.38.211-1.22-.03-1.63-.07-.411-.038-1.017.12-1.613.21-.237.035-.539.001-.873-.058-.503-.088-1.079-.234-1.618-.29-.75-.078-1.332.096-2.187.268-.172.034-.356.069-.555.101a2.859 2.859 0 0 1-.903-.012 5.396 5.396 0 0 1-.827-.188l-1.768-.781-.05-.022-.051-.022c-.263-.116-.521-.23-.753-.334l-.293-.13h-.002a33.914 33.914 0 0 0-.568-.25c-.205-.09-1.028-.43-2.188-.906-.06-.026-.122-.051-.184-.076-3.59-1.476-10.11-4.132-12.034-4.84-.031-.013-.06-.023-.089-.033a8.204 8.204 0 0 0-.11-.04c.085-.11.191-.265.31-.449.005-.006.009-.012.012-.019a2.935 2.935 0 0 0 .116-.182.445.445 0 0 0 .043-.068c.007-.01.015-.02.02-.031l.133-.216.187-.31c.115-.19.23-.383.34-.57a.135.135 0 0 0 .01-.015l.096-.166.021-.036a7.46 7.46 0 0 1 .093-.163l.018-.028c.001-.005.004-.007.006-.012l.095-.163.003-.008.02-.032.046-.084c.005-.007.009-.013.012-.02a2.036 2.036 0 0 1 .043-.075l.006-.01v-.002l.023-.04.074-.133.334-.6.2-.359c1.015-1.829 2.275-4.128 3.427-6.544l.234-.496c.34-.728.61-1.583.816-2.507v-.001a12.937 12.937 0 0 0 .13-.62 26.06 26.06 0 0 0 .387-3.159c.237-3.674-.185-7.29-.802-8.076l-.003-.002-.023-.028a.576.576 0 0 0-.074-.07.275.275 0 0 0-.087-.045 2.168 2.168 0 0 0-.984-.075c-.104.015-.21.037-.315.068-.244.07-.491.18-.74.327-.085.048-.17.103-.256.161-.782.537-1.58 1.433-2.388 2.636l-.035.052v.002l-.012.018h-.002c-.247.376-.556.894-.91 1.522l-.152.274-.17.306c-.055.104-.114.212-.173.32l-.162.3-.172.323v.003l-.004.007c-.05.095-.102.19-.153.29l-.156.297-.017.03-.142.275c-.289.556-.59 1.147-.898 1.764-.069.138-.14.28-.212.42l-.324.655a202.683 202.683 0 0 0-1.598 3.322l-.22.471c-.142.301-.282.603-.42.905-.119.256-.236.513-.354.771a159.946 159.946 0 0 0-1.817 4.126 98.894 98.894 0 0 0-.917 2.235c-.02.054-.042.108-.063.161-.037.093-.072.184-.106.275a9.15 9.15 0 0 0-.089.229c-.025.063-.048.127-.072.19-.032.082-.061.163-.093.244-.047.128-.094.253-.138.377a30.753 30.753 0 0 0-.338.956 24.433 24.433 0 0 0-.4 1.304 4.08 4.08 0 0 0-.044.167l-.01.032-.035.146c-.04.17-.07.324-.093.464l-.012.072-.008.068a3.25 3.25 0 0 0-.02.187c-.146 2.25.618 4.094 2.581 5.186l.004-.003Z" fill="#FEA793"/><path d="m38.033 83.943-.001.001c.675.225 1.259.338 1.405.136.316-.437-.042-.73-.042-.73s.742.423 1-.04c.153-.272-.29-.63-.431-.737.178.119.877.552 1.112.16.27-.449-.338-1.033-.338-1.033s.84.35 1.01-.121c.12-.328-.231-.78-.727-1.236l-.002-.002c-.037-.012-.439-.147-.744.291-.317.458-.05.732-.05.732s-.317-.059-.572.298c-.253.356-.085.617-.085.617s-.368-.072-.574.215c-.204.287.037.545.037.545s-.706.088-1 .904h.002ZM24.645 79.673l2.514.417 1.32.218-.343-4.833-3.337.73-.154 3.468Z" fill="#F79686"/><path d="M6.606 75.853c1.371.764 9.009 2.276 9.953 2.48l5.34 1.357 3.132.796.115.03.137.035 1.078.275.5.127.029.007.032.007c.006.003.01.003.01.003a7.466 7.466 0 0 1-.193-.954c-.229-1.685.204-3.209 1.415-4.542h.001c.153-.167.316-.332.494-.494-.125-.055-1.299-.484-2.958-1.084l-.505-.183a4154.733 4154.733 0 0 0-12.006-4.312l-.088-.032a9.749 9.749 0 0 0-.11-.04 7.008 7.008 0 0 0 .345-.504 2.93 2.93 0 0 0 .072-.113c.004-.006.007-.012.012-.017l.044-.07.007-.014c.007-.01.015-.02.02-.03l.133-.217.062-.1a.366.366 0 0 0 .031-.05l.065-.106a.877.877 0 0 1 .03-.053l.34-.57a.135.135 0 0 0 .01-.016l.095-.166.022-.036c.005-.007.007-.013.01-.019a7.46 7.46 0 0 1 .083-.144l.018-.028.005-.012.096-.163.003-.007.019-.032.047-.085c.004-.007.009-.013.012-.02a1.882 1.882 0 0 1 .043-.075l.005-.013c.01-.013.017-.028.024-.04l.074-.132.334-.6.2-.359.346-.616c.078-.142.157-.286.24-.431.046-.085.095-.17.142-.26.23-.413.465-.844.706-1.288l.29-.539a90.982 90.982 0 0 0 1.32-2.555l.289-.589.09-.188v-.002c.16-.333.317-.666.472-1.002.262-.572.478-1.226.65-1.927a14.259 14.259 0 0 0 .236-1.11 24.71 24.71 0 0 0 .334-3.105c.172-3.548-.298-7.028-.922-7.791 0-.002-.003-.003-.003-.003l-.023-.028a.561.561 0 0 0-.074-.07.277.277 0 0 0-.087-.045 2.168 2.168 0 0 0-.984-.075c-.104.015-.21.037-.315.068-.244.07-.491.18-.74.327-.085.049-.17.103-.256.162-.783.536-1.58 1.433-2.388 2.635l-.035.053v.001c-.005.006-.01.012-.012.018h-.002c-.247.377-.556.894-.911 1.522l-.151.274-.17.306-.173.32-.162.3-.172.323v.003l-.004.007c-.05.096-.102.191-.153.29l-.157.297a.566.566 0 0 1-.016.03l-.143.275c-.288.556-.588 1.147-.897 1.764-.07.138-.14.28-.212.42-.106.217-.214.435-.324.655-.027.058-.055.113-.084.17a202.685 202.685 0 0 0-1.514 3.152l-.22.471c-.142.302-.282.604-.421.905l-.353.771a159.946 159.946 0 0 0-1.818 4.126 98.894 98.894 0 0 0-.916 2.235c-.02.054-.043.108-.063.161l-.106.276a9.11 9.11 0 0 0-.089.228c-.025.063-.048.127-.072.19l-.093.244c-.047.128-.094.253-.138.377a30.935 30.935 0 0 0-.338.956 24.433 24.433 0 0 0-.4 1.304 4.034 4.034 0 0 0-.045.168l-.008.03-.036.148c-.04.169-.07.323-.093.463l-.012.072-.008.068a3.228 3.228 0 0 0-.02.187c-.147 2.25.618 4.094 2.581 5.186v.001Z" fill="#91A8D9"/><path d="M8.14 69.331c.389-.151.785-.23 1.186-.265a8.781 8.781 0 0 1 1.211-.012c.405.022.81.064 1.217.11a78.462 78.462 0 0 1 1.223.166 6.96 6.96 0 0 0 .345-.503c.024-.035.049-.074.072-.113l.012-.018a.142.142 0 0 0 .01-.016.445.445 0 0 0 .035-.055c.001-.004.004-.008.007-.013a16.847 16.847 0 0 0 .245-.397c.022-.036.045-.07.066-.106a28.207 28.207 0 0 0 .38-.64l.117-.2.01-.02a5.12 5.12 0 0 0 .1-.172c.002-.004.005-.007.006-.012l.096-.163.022-.04.047-.084.016-.026.038-.07c.003-.002.005-.006.006-.008l.024-.043.074-.132.334-.6.2-.36c.112-.2.228-.404.345-.616l.24-.43c.047-.086.096-.171.143-.26.23-.413.465-.844.706-1.289l.29-.538a90.806 90.806 0 0 0 1.32-2.556l.289-.588.09-.189v-.001c.16-.333.317-.667.472-1.003.262-.572.478-1.225.65-1.927.024-.094.047-.188.068-.284-.009.002-5.38 10.633-7.801 12.475-.427.324-.958.471-1.49.442h-.008a5.201 5.201 0 0 0-1.255.073c-.413.077-.825.227-1.156.481l-.001.002Z" fill="#7C9BDD" style="mix-blend-mode:multiply" opacity=".3"/><path d="M6.606 75.855c1.372.763 9.009 2.276 9.953 2.478l8.588 2.184c-4.812-1.256-17.794-4.855-19.393-7.528-1.94-3.244 6.772-22.218 7.019-22.752-3.232 6.092-8.57 17.73-8.747 20.43-.148 2.25.618 4.096 2.58 5.188Z" fill="#7C9BDD" style="mix-blend-mode:multiply" opacity=".3"/><path d="M88.964 28.96c-.09.807-.34 1.55-.71 2.197-.242.47-.535.94-.868 1.402l-.034.047c-2.243 3.086-6.205 5.875-8.134 7.128-.664.43-1.5.331-2.051-.246-1.51-1.578-4.48-4.908-6.08-8.243l-.025-.052a12.33 12.33 0 0 1-.817-2.19 5.73 5.73 0 0 1-.21-2.306c.322-2.89 2.7-4.978 5.314-4.666 3.305.395 4.318 4.292 4.318 4.292s2.142-3.52 5.146-3.16c2.614.312 4.472 2.908 4.15 5.798Z" fill="#F37E60"/></svg>