<svg width="85" height="110" fill="none" xmlns="http://www.w3.org/2000/svg"><path d="m32.527 108.385 4 .053L38.6 94.22l2.62-17.993 1.312-9.02h-2.49l-1.652 9.047-3.394 18.602-2.468 13.529Z" fill="url(#a)"/><path d="M34.994 94.856c1.198-.22 2.4-.44 3.609-.636l2.62-17.993c-.947.022-1.893.044-2.83.026l-3.399 18.603Z" fill="url(#b)"/><path d="m40.035 67.208-7.52 41.177h-1.083l7.871-40.926.732-.251Z" fill="url(#c)"/><path d="m39.312 67.459.737-.229h-.005l2.495.054-.079-.076c-.67 3.415-1.093 6.862-1.61 10.296L39.349 87.81l-1.501 10.305-.743 5.155-.57 5.173.931-5.133.758-5.15 1.501-10.306 1.501-10.305c.481-3.438 1.062-6.867 1.391-10.319v-.08h-.078l-2.49.053-.721.265-.016-.01Z" fill="#FFE1A6"/><path d="m55.066 25.627-2.029 1.094-28.533.09v-3.824l1.736-.82 28.826 3.46Z" fill="url(#d)"/><path d="M26.239 22.162v3.098l22.655.287 3.833.049 2.338.031.439-2.093-2.97-.143-4.2-.193-22.095-1.036Z" fill="url(#e)"/><path d="M48.33 23.198c.178.721.371 1.578.56 2.349l3.833.049a15.534 15.534 0 0 0-.194-2.201l-4.2-.193v-.004Z" fill="url(#f)"/><path d="m55.063 25.627.507-2.084.016-.072h-.089l-1.825-.139-1.83-.085-3.656-.17-7.316-.341-7.317-.34c-2.437-.104-4.874-.265-7.316-.283h-.02l-.011.004-1.71.866 1.767-.776h-.031c2.432.21 4.874.282 7.31.408l7.317.34 7.316.341 3.656.17 1.83.086 1.83.04-.072-.076-.361 2.107.005.004Z" fill="#FFE1A6"/><path d="m37.94.256.466 11.103.115 2.685 2.5 59.7 5.182.12-4.105-59.896-.173-2.609L41.162.256H37.94Z" fill="url(#g)"/><path d="m38.406 11.36.115 2.684 3.577-.076-.173-2.609h-3.52Z" fill="url(#h)"/><path d="m37.935.256 3.08 73.487h-1.4L36.988.83l.946-.574Z" fill="url(#i)"/><path d="m38.67.256.596 6.36-.12-6.36h-.477Z" fill="url(#j)"/><path d="m36.994.83.957-.56h-.01l3.22.049-.072-.063c.24 6.141.742 12.273 1.145 18.41l1.26 18.4 1.26 18.402.639 9.203.81 9.193-.45-9.211-.622-9.203-1.26-18.401-1.26-18.401c-.44-6.132-.78-12.273-1.376-18.397V.19h-.073L37.94.238h-.005l-.936.587-.005.005Z" fill="#FFE1A6"/><path d="m47.809 11.126-2.39.588-12.034.174v-2.46l.821-.525 13.603 2.223Z" fill="url(#k)"/><path d="m48.012 9.782-13.807-.879v1.99l13.603.233.204-1.344Z" fill="url(#l)"/><path d="M47.805 11.126c.11-.444.204-.892.303-1.336l.02-.085-.114-.013c-1.145-.117-2.301-.157-3.452-.242l-3.451-.22-3.452-.22c-1.15-.062-2.301-.179-3.457-.165h-.031l-.016.013-.779.574.863-.48-.047.014c1.145.161 2.296.188 3.446.273l3.452.22 3.451.22c1.15.062 2.301.17 3.457.197l-.094-.1c-.037.454-.078.906-.105 1.36l.006-.01Z" fill="#FFE1A6"/><path d="M50.162 14.376 60.496 77.32l.837 5.106 4.508 27.456 5.182.116-5.088-27.572-.941-5.106-11.615-62.944h-3.217Z" fill="url(#m)"/><path d="m60.499 77.32.836 5.106h4.602l-.94-5.106h-4.498Z" fill="url(#n)"/><path d="m50.152 14.38 15.684 95.502h-1.402L49.211 14.95l.941-.57Z" fill="url(#o)"/><path d="m49.213 14.95.957-.56h-.01l3.221.049-.073-.054c1.292 7.993 2.845 15.949 4.294 23.924l4.408 23.905L66.42 86.12l2.212 11.95 2.385 11.928-2.024-11.977-2.197-11.955-4.408-23.906-4.409-23.905c-1.49-7.966-2.876-15.945-4.524-23.892l-.01-.054h-.063l-3.221.05h-.006l-.936.586-.005.005Z" fill="#FFE1A6"/><path d="m23.6 109.882 5.182.116.456-27.137.088-5.648 1.057-62.837H27.16l-2.343 62.837-.209 5.648-1.01 27.021Z" fill="url(#p)"/><path d="M24.611 82.86h4.628l.09-5.647H24.82l-.209 5.648Z" fill="url(#q)"/><path d="m27.156 14.38-3.561 95.502h-1.402L26.21 14.95l.946-.57Z" fill="url(#r)"/><path d="m26.217 14.95.957-.56h-.01l3.221.049-.073-.068c-.314 7.966-.366 15.936-.518 23.906l-.403 23.906-.402 23.905-.194 11.955-.016 11.955.382-11.95.21-11.95.402-23.906.403-23.906c.115-7.97.33-15.936.282-23.906v-.067h-.073l-3.222.05h-.005l-.936.587h-.005Z" fill="#FFE1A6"/><path d="M74.99 20.948 3 18.996l4.729 53.398L85 72.996 74.99 20.948Z" fill="url(#s)"/><g clip-path="url(#t)" fill="#6683C2"><path d="M25.677 50a4.89 4.89 0 0 1-2.36-.606c-1.21-.68-1.969-1.826-2.497-2.75-1.523-2.669-2.55-5.828-3.054-9.388l-.08-.563c-.436-3.013-.975-6.764.251-9.64.418-.982 1.196-1.708 2.075-1.94 1.063-.279 2.137-.043 3.193.704 2.814 1.99 3.874 5.782 4.65 8.55.855 3.053 1.411 6.42 1.701 10.291.124 1.652-.145 2.923-.818 3.887C28.03 49.56 26.861 50 25.677 50Zm-4.802-24.546c-.247 0-.492.032-.734.095-.74.195-1.4.822-1.764 1.675-1.177 2.761-.647 6.445-.221 9.406l.08.565c.497 3.504 1.508 6.61 3 9.231.74 1.296 1.455 2.09 2.32 2.576 1.481.832 3.732.798 4.785-.71.614-.879.854-2.057.74-3.604-.288-3.844-.84-7.182-1.686-10.205-.755-2.705-1.794-6.406-4.473-8.303-.685-.483-1.37-.726-2.047-.726Z"/><path d="M16.239 47.647c-.098 0-.195-.002-.29-.01-2.173-.138-3.492-2.22-3.468-4.068.016-1.339.682-2.54 1.257-3.433 1.669-2.587 4.027-5.01 7.012-7.198l.474-.348c2.524-1.858 5.664-4.17 8.883-4.583 1.1-.141 2.146.14 2.795.755.782.74 1.103 1.748.948 2.993-.409 3.32-3.328 6.084-5.457 8.104-2.349 2.226-5.132 4.361-8.508 6.526-1.324.849-2.522 1.264-3.649 1.264l.003-.002Zm14.428-19.225c-.161 0-.328.011-.494.032-3.095.397-6.178 2.668-8.657 4.493l-.473.35c-2.938 2.155-5.258 4.535-6.898 7.075-.81 1.257-1.177 2.244-1.189 3.202-.021 1.642 1.13 3.49 3.026 3.61 1.1.07 2.294-.316 3.642-1.18 3.349-2.15 6.111-4.264 8.438-6.472 2.08-1.972 4.93-4.67 5.32-7.833.136-1.1-.138-1.981-.81-2.619-.45-.427-1.14-.66-1.902-.66l-.003.002Z"/><path d="M31.468 43.98c-.357 0-.73-.02-1.125-.061-4.043-.418-7.547-1.072-10.71-2-2.87-.841-6.799-1.992-8.779-4.75-.744-1.034-.95-2.069-.618-3.072.276-.832 1.063-1.545 2.106-1.91 3.052-1.065 6.96-.411 10.098.113l.587.098c3.708.612 6.976 1.708 9.715 3.258.948.536 2.12 1.303 2.788 2.48.92 1.625.768 4.056-1.089 5.143-.798.467-1.778.698-2.973.698v.003ZM11.246 36.91c1.885 2.628 5.724 3.751 8.527 4.573 3.135.919 6.61 1.568 10.623 1.98 1.614.166 2.857-.02 3.798-.573 1.619-.949 1.738-3.096.92-4.539-.478-.842-1.283-1.554-2.612-2.305-2.689-1.523-5.903-2.599-9.554-3.202l-.59-.098c-3.082-.515-6.919-1.155-9.852-.134-.906.316-1.585.922-1.816 1.62-.285.863-.097 1.764.559 2.678h-.003Z"/><path d="M23.31 39.096c-.81 0-1.61-.483-1.941-1.198a1.857 1.857 0 0 1 .18-1.89c.395-.54 1.051-.837 1.752-.799.58.032 1.139.302 1.534.74.363.402.537.894.49 1.384-.084.872-.835 1.623-1.748 1.748a2.116 2.116 0 0 1-.268.018l.002-.003Zm-1.506-1.381c.283.614 1.02 1.01 1.707.914.689-.095 1.278-.68 1.34-1.339.036-.367-.1-.74-.375-1.046a1.791 1.791 0 0 0-1.2-.583c-.55-.027-1.032.19-1.334.606-.31.422-.36.964-.136 1.447h-.002ZM29.735 28.374c.137.55-.217 1.1-.79 1.233-.575.131-1.152-.207-1.29-.754-.138-.547.216-1.1.789-1.232.573-.132 1.153.206 1.29.753ZM12.817 37.76c.138.549-.217 1.1-.79 1.232-.572.132-1.152-.206-1.29-.753-.138-.55.216-1.1.789-1.233.575-.131 1.153.207 1.29.754ZM33.09 43.669c.138.549-.216 1.1-.789 1.232-.573.132-1.153-.206-1.29-.753-.139-.55.216-1.1.788-1.233.573-.131 1.153.207 1.291.754Z"/></g><g clip-path="url(#u)" fill="#7FCBB4"><path d="m66.25 29.722.297-.348-3.278-2.877-.297.347 3.278 2.878ZM67.02 28.823c.782-.915.683-2.3-.223-3.096a2.145 2.145 0 0 0-3.054.218l-.327.383 3.277 2.878.327-.383ZM65.24 32.535l-.194-.674.897-1.803-.321-.282-.977 1.965-.396.278-.171-.649 1.165-1.926-.314-.276-1.172 1.936-.681.19-.013-.878 1.41-1.65-.311-.272-1.41 1.65-.86.112.09-.71 1.723-1.453-.315-.276-1.714 1.444-.658-.078.213-.438 1.78-1.261-.32-.282-1.633 1.158-.687-.098-4.37 2.609-.945 1.546 1.563-.04-.487 1.643 2.083-.288-.039 2.083 2.029-.335.015 2.13 1.535-.723.185 1.574 1.375-1.169 1.924-4.757Z"/></g><g clip-path="url(#v)"><mask id="w" style="mask-type:luminance" maskUnits="userSpaceOnUse" x="44" y="46" width="21" height="22"><path d="M54.557 67.686c5.69 0 10.304-4.814 10.304-10.753 0-5.94-4.613-10.754-10.304-10.754-5.69 0-10.303 4.815-10.303 10.754 0 5.939 4.613 10.753 10.303 10.753Z" fill="#fff"/></mask><g mask="url(#w)" fill="#F37E60"><path d="M49.188 49.287h-.006a.177.177 0 0 1-.166-.185c0-.057.044-1.396.383-2.073a.167.167 0 0 1 .231-.076.182.182 0 0 1 .073.242c-.303.605-.344 1.906-.344 1.918a.176.176 0 0 1-.172.174ZM44.796 53.063a.168.168 0 0 1-.149-.091.182.182 0 0 1 .067-.244c.575-.335 1.412-.487 1.448-.493a.171.171 0 0 1 .197.147.178.178 0 0 1-.14.206c-.01 0-.815.15-1.339.454a.157.157 0 0 1-.084.023v-.002ZM52.508 50.283a.172.172 0 0 1-.144-.08.184.184 0 0 1 .05-.248c.063-.042 1.596-1.073 4.67-1.483a.174.174 0 0 1 .193.155.178.178 0 0 1-.15.201c-2.995.4-4.51 1.418-4.525 1.429a.167.167 0 0 1-.094.028v-.002ZM60.22 56.702c-.013 0-.025 0-.037-.004a.177.177 0 0 1-.132-.212c.628-3.122.518-4.692.517-4.708a.18.18 0 0 1 .158-.193.175.175 0 0 1 .185.165c.005.064.117 1.629-.523 4.81a.173.173 0 0 1-.169.142ZM55.713 58.151a.163.163 0 0 1-.114-.044c-2.672-2.452-4.114-3.696-4.13-3.709a.185.185 0 0 1-.024-.252.167.167 0 0 1 .242-.025c.014.012 1.462 1.26 4.137 3.715.072.065.08.18.016.253a.165.165 0 0 1-.13.06l.003.002ZM47.17 60.663a.177.177 0 0 1-.172-.167c-.152-2.398.543-4.676.572-4.771a.17.17 0 0 1 .217-.115c.09.03.139.13.11.226-.007.023-.704 2.31-.557 4.636a.175.175 0 0 1-.16.19h-.011.001ZM50.578 64.21a.174.174 0 0 1-.166-.135.178.178 0 0 1 .123-.217c.028-.007 2.719-.724 4.546-1.62a.168.168 0 0 1 .228.086c.04.09.004.197-.082.238-1.858.913-4.58 1.637-4.607 1.644a.176.176 0 0 1-.043.005l.001-.002ZM58.73 67.149a.153.153 0 0 1-.06-.013.183.183 0 0 1-.1-.231c.486-1.326.453-2.658.453-2.672a.177.177 0 0 1 .166-.185h.005c.093 0 .169.077.172.174 0 .057.036 1.414-.475 2.81a.17.17 0 0 1-.16.115v.002ZM55.095 68c-.01 0-.02 0-.033-.004-2.13-.419-4.286-1.758-4.377-1.813a.183.183 0 0 1-.059-.246.167.167 0 0 1 .236-.06c.022.014 2.196 1.361 4.264 1.768a.18.18 0 0 1 .137.21.173.173 0 0 1-.168.145ZM62.16 60.553c-.065 0-.102-.003-.11-.003a.176.176 0 0 1-.159-.192.175.175 0 0 1 .184-.165c.01 0 1.003.066 2.528-.672a.17.17 0 0 1 .228.088c.04.09.002.197-.084.238-1.334.645-2.276.706-2.588.706h.002ZM64.91 55.961a.175.175 0 0 1-.167-.132c-.644-2.534-2.258-4.113-2.273-4.13a.184.184 0 0 1-.01-.252.166.166 0 0 1 .241-.011c.07.066 1.704 1.667 2.374 4.301a.18.18 0 0 1-.122.22.195.195 0 0 1-.045.004h.002Z"/><path d="M60.742 51.803c.615-.023 1.887-.19 1.887-.19.045-.57.091-1.234.091-1.234-1.324-1.794-3.176-3.139-5.314-3.78-.237 1.227-.46 2.07-.46 2.07 2.273 1.14 3.796 3.133 3.796 3.133v.001ZM46.145 52.42s.19 1.305 1.572 3.418c0 0 1.383-.712 3.907-1.543 0 0 .25-1.828.933-4.225 0 0-1.16-.855-3.366-1.068 0 0-1.57.783-3.047 3.418ZM60.24 56.41s-2.245.892-4.651 1.45c0 0-.294 3.04-.562 4.604 0 0 1.845 1.674 4.172 1.87 0 0 2.112-1.76 2.94-3.964 0 0-.215-1.84-1.898-3.962v.002ZM47.17 60.483s-.668.475-1.898.866l-.05.14a10.623 10.623 0 0 0 4.252 4.798l.21-.083s.795-.066 1.149-.136c0 0-.167-.735-.107-2.068 0 0-2.299-1.619-3.554-3.515l-.002-.002Z"/></g><path d="M54.557 67.866c-5.777 0-10.475-4.904-10.475-10.933C44.082 50.903 48.78 46 54.557 46c5.777 0 10.475 4.904 10.475 10.933s-4.698 10.933-10.475 10.933Zm0-21.508c-5.586 0-10.132 4.745-10.132 10.575 0 5.83 4.546 10.574 10.132 10.574 5.586 0 10.132-4.744 10.132-10.574s-4.546-10.575-10.132-10.575Z" fill="#F37E60"/></g><path d="M3.306 18.996 0 20.49l3.306 51.507H8l-4.694-53Z" fill="url(#x)"/><path d="m14.317 71.56-2.343.283-.21 4.576-1.678.09.314 2.246 2.787.009 2.348-1.717-1.218-5.487Z" fill="url(#y)"/><path d="m14.312 71.565.502 5.37 39.818-.278 10.58-.072 11.542-.08-.502-4.3-10.449-.111-10.888-.108-40.603-.421Z" fill="url(#z)"/><path style="mix-blend-mode:screen" d="m54.63 76.657 10.575-.076.596-4.487-10.888-.108c-.1 1.56-.189 3.115-.283 4.675v-.004Z" fill="url(#A)"/><path d="M13.186 76.72v2.044l44.928-.363 12.614-.099 9.163-.076v-1.937l-8.88.059-12.61.08-45.215.292Z" fill="url(#B)"/><path style="mix-blend-mode:screen" d="m58.111 78.4 12.614-.098.283-1.955-12.609.081-.288 1.973Z" fill="url(#C)"/><path d="M79.7 78.226h.382v-2.098h-.194l-69.805.22.005.327 69.612-.22v1.771Z" fill="#FFE1A6"/><path d="m76.567 76.522.382-.03-.517-4.448h-.173l-61.94-.645-2.37.282.053.328 2.343-.283 61.741.646.481 4.15Z" fill="#FFE1A6"/><defs><linearGradient id="a" x1="38.829" y1="69.131" x2="36.379" y2="117.027" gradientUnits="userSpaceOnUse"><stop stop-color="#FFC14F"/><stop offset="1" stop-color="#C45529"/></linearGradient><linearGradient id="b" x1="33.268" y1="120.77" x2="37.244" y2="81.369" gradientUnits="userSpaceOnUse"><stop stop-color="#FFC14F"/><stop offset="1" stop-color="#C45529"/></linearGradient><linearGradient id="c" x1="36.516" y1="117.39" x2="36.097" y2="95.839" gradientUnits="userSpaceOnUse"><stop stop-color="#FFC14F"/><stop offset="1" stop-color="#C45529"/></linearGradient><linearGradient id="d" x1="39.168" y1="13.103" x2="39.687" y2="28.072" gradientUnits="userSpaceOnUse"><stop stop-color="#FFC14F"/><stop offset="1" stop-color="#C45529"/></linearGradient><linearGradient id="e" x1="41.42" y1="20.956" x2="35.563" y2="51.422" gradientUnits="userSpaceOnUse"><stop stop-color="#FFC14F"/><stop offset="1" stop-color="#C45529"/></linearGradient><linearGradient id="f" x1="44.815" y1="24.686" x2="56.081" y2="23.906" gradientUnits="userSpaceOnUse"><stop stop-color="#FFC14F"/><stop offset="1" stop-color="#C45529"/></linearGradient><linearGradient id="g" x1="36.931" y1="11.987" x2="46.9" y2="93.562" gradientUnits="userSpaceOnUse"><stop stop-color="#FFC14F"/><stop offset="1" stop-color="#C45529"/></linearGradient><linearGradient id="h" x1="39.572" y1="18.684" x2="40.477" y2="7.755" gradientUnits="userSpaceOnUse"><stop stop-color="#FFC14F"/><stop offset="1" stop-color="#C45529"/></linearGradient><linearGradient id="i" x1="40.325" y1="87.195" x2="39.572" y2="48.568" gradientUnits="userSpaceOnUse"><stop stop-color="#FFC14F"/><stop offset="1" stop-color="#C45529"/></linearGradient><linearGradient id="j" x1="37.299" y1="-4.72" x2="39.989" y2="10.968" gradientUnits="userSpaceOnUse"><stop stop-color="#FFC14F"/><stop offset="1" stop-color="#C45529"/></linearGradient><linearGradient id="k" x1="40.231" y1="3.667" x2="40.531" y2="12.399" gradientUnits="userSpaceOnUse"><stop stop-color="#FFC14F"/><stop offset="1" stop-color="#C45529"/></linearGradient><linearGradient id="l" x1="41.386" y1="8.571" x2="38.381" y2="24.181" gradientUnits="userSpaceOnUse"><stop stop-color="#FFC14F"/><stop offset="1" stop-color="#C45529"/></linearGradient><linearGradient id="m" x1="59.241" y1="54.693" x2="72.358" y2="162.021" gradientUnits="userSpaceOnUse"><stop stop-color="#FFC14F"/><stop offset="1" stop-color="#C45529"/></linearGradient><linearGradient id="n" x1="64.186" y1="95.69" x2="62.974" y2="68.739" gradientUnits="userSpaceOnUse"><stop stop-color="#FFC14F"/><stop offset="1" stop-color="#C45529"/></linearGradient><linearGradient id="o" x1="59.346" y1="131.21" x2="58.366" y2="80.891" gradientUnits="userSpaceOnUse"><stop stop-color="#FFC14F"/><stop offset="1" stop-color="#C45529"/></linearGradient><linearGradient id="p" x1="25.802" y1="54.975" x2="38.606" y2="159.731" gradientUnits="userSpaceOnUse"><stop stop-color="#FFC14F"/><stop offset="1" stop-color="#C45529"/></linearGradient><linearGradient id="q" x1="28.026" y1="97.317" x2="26.815" y2="70.362" gradientUnits="userSpaceOnUse"><stop stop-color="#FFC14F"/><stop offset="1" stop-color="#C45529"/></linearGradient><linearGradient id="r" x1="26.497" y1="130.945" x2="25.521" y2="80.819" gradientUnits="userSpaceOnUse"><stop stop-color="#FFC14F"/><stop offset="1" stop-color="#C45529"/></linearGradient><linearGradient id="s" x1="21.657" y1="148.783" x2="28.96" y2="34.063" gradientUnits="userSpaceOnUse"><stop stop-color="#D16943"/><stop offset=".55" stop-color="#EBB590"/><stop offset=".97" stop-color="#FFECC7"/></linearGradient><linearGradient id="x" x1="-14.721" y1="10.418" x2=".858" y2="113.914" gradientUnits="userSpaceOnUse"><stop stop-color="#D16943"/><stop offset=".55" stop-color="#EBB590"/><stop offset=".97" stop-color="#FFECC7"/></linearGradient><linearGradient id="y" x1="8.512" y1="66.647" x2="13.451" y2="81.524" gradientUnits="userSpaceOnUse"><stop stop-color="#FFC14F"/><stop offset="1" stop-color="#C45529"/></linearGradient><linearGradient id="z" x1="45.486" y1="73.115" x2="46.566" y2="102.939" gradientUnits="userSpaceOnUse"><stop stop-color="#FFC14F"/><stop offset="1" stop-color="#C45529"/></linearGradient><linearGradient id="A" x1="64.457" y1="55.71" x2="59.855" y2="82.161" gradientUnits="userSpaceOnUse"><stop stop-color="#F5F2D5"/><stop offset="1"/></linearGradient><linearGradient id="B" x1="46.51" y1="76.975" x2="47.098" y2="93.21" gradientUnits="userSpaceOnUse"><stop stop-color="#FFC14F"/><stop offset="1" stop-color="#C45529"/></linearGradient><linearGradient id="C" x1="66.793" y1="67.938" x2="63.756" y2="85.402" gradientUnits="userSpaceOnUse"><stop stop-color="#F5F2D5"/><stop offset="1"/></linearGradient><clipPath id="t"><path fill="#fff" transform="translate(10.082 25)" d="M0 0h26v25H0z"/></clipPath><clipPath id="u"><path fill="#fff" transform="rotate(174.742 33.39 20.5)" d="M0 0h12.91v12.91H0z"/></clipPath><clipPath id="v"><path fill="#fff" transform="translate(44.082 46)" d="M0 0h21v22H0z"/></clipPath></defs></svg>