<svg width="156" height="135" viewBox="0 0 156 135" fill="none" xmlns="http://www.w3.org/2000/svg">
<g clip-path="url(#clip0_101_2043)">
<path d="M138.1 26.8856C137.768 83.7509 91.7521 129.767 34.8867 130.099C52.4398 152.294 81.1781 162.436 108.773 156.177C136.37 149.917 157.919 128.368 164.179 100.772C170.438 73.1766 160.295 44.4384 138.101 26.8853L138.1 26.8856Z" fill="#5CC1E0"/>
<path d="M138.099 26.8856C108.86 3.71803 66.8984 6.14082 40.5196 32.5196C14.1408 58.8984 11.718 100.86 34.8856 130.099C91.7509 129.767 137.767 83.7509 138.099 26.8856Z" fill="#68CCEA"/>
<path d="M127.98 41.4168C122.379 43.9511 119.288 40.9613 115.308 43.9511C110.392 47.6512 108.416 57.2311 112.774 64.2255C115.859 69.1528 121.39 70.3892 127.636 71.7526C133.957 58.7858 137.496 44.6406 138.026 30.2251C136.184 35.0744 132.603 39.0641 127.98 41.4168Z" fill="#7FCBB4"/>
<path d="M138.899 27.514C138.671 28.4381 138.375 29.3442 138.015 30.2254C137.484 44.6409 133.945 58.7861 127.625 71.7529L127.979 71.8283C136.672 73.729 140.043 69.6995 148.253 71.8283C151.916 72.879 155.353 74.5974 158.391 76.8969C161.911 79.8013 164.513 83.6655 165.879 88.0202C165.935 86.8519 165.993 85.6839 165.993 84.4998C166.003 73.5835 163.576 62.8028 158.888 52.9441C154.201 43.0854 147.372 34.3975 138.899 27.514ZM89.9648 114.911C94.9827 120.461 96.3005 129.838 92.4991 135.186C89.4079 139.545 85.1756 138.049 82.3619 142.788C81.3141 144.736 80.7656 146.913 80.7656 149.124C80.7656 151.336 81.3141 153.513 82.3619 155.46C82.7527 156.175 83.2194 156.845 83.7539 157.459C86.6559 157.81 89.576 157.988 92.4991 157.994C119.3 158.001 143.977 143.414 156.893 119.931C152.284 116.848 145.083 112.768 138.116 112.377C130.976 111.679 123.814 113.47 117.842 117.446C110.366 122.92 108.896 130.675 105.171 130.117C102.535 129.737 101.09 125.479 100.102 122.514C97.8385 115.762 99.066 111.194 99.0451 107.407C95.9508 109.883 92.7169 112.18 89.3594 114.285C89.5673 114.488 89.7691 114.697 89.9645 114.911H89.9648Z" fill="#56AA91"/>
<path d="M97.5676 102.24C94.9575 98.5904 90.092 97.9062 84.8961 97.1712C73.999 95.6504 69.7163 100.339 64.6218 97.1712C62.5934 95.8206 61.0229 93.886 60.1178 91.6234C59.2128 89.3608 59.0159 86.8767 59.5532 84.4998C61.6826 78.1394 70.9835 80.2935 82.3618 71.8283C86.0368 69.117 94.7795 62.6042 95.0333 54.0883C95.2867 45.7505 87.1516 43.3683 84.8961 33.814C83.916 29.698 85.7451 20.233 90.3803 11.082C63.0983 11.8525 38.4929 27.6835 26.4813 52.1898V52.2136C24.8555 61.2172 24.8983 70.443 26.6074 79.4312C28.154 89.645 29.5722 98.9199 36.7446 107.308C39.8877 111.008 44.7273 116.635 51.9503 117.446C59.9587 118.333 70.5267 113.213 72.2246 112.377C74.4956 110.886 77.116 110.012 79.8275 109.843C83.4501 110.073 86.8532 111.659 89.3596 114.285C92.717 112.18 95.9508 109.883 99.045 107.408C99.1307 105.57 98.6117 103.755 97.5676 102.24Z" fill="#7FCBB4"/>
<path d="M65 30.7786C65 39.0658 50 58.9036 50 58.9036C50 58.9036 40.6442 46.5283 36.7063 37.2475C35.7371 35.2172 35.1582 33.0228 35 30.7786C35 22.4948 41.7162 15.7786 50 15.7786C58.2845 15.7786 65 22.4948 65 30.7786Z" fill="#F27E60"/>
<path d="M55.625 28.9034C55.625 32.0098 53.1064 34.5284 50 34.5284C46.8936 34.5284 44.375 32.0098 44.375 28.9034C44.375 25.797 46.8936 23.2784 50 23.2784C53.1064 23.2784 55.625 25.797 55.625 28.9034Z" fill="#F1F2F2"/>
<path d="M143 94.5217C142.67 97.4572 141.756 100.288 140.315 102.833C137.562 108.115 134.449 113.184 131 118C131 118 127.07 112.569 123.695 106.621C122.451 104.463 121.339 102.226 120.365 99.9219C119.59 98.2271 119.127 96.3952 119 94.5217C119 87.6066 124.373 82 131 82C137.628 82 143 87.6066 143 94.5217Z" fill="#F2C45B"/>
<path d="M136 93.5C136 95.9851 133.761 98 131 98C128.239 98 126 95.9851 126 93.5C126 91.0149 128.239 89 131 89C133.761 89 136 91.0149 136 93.5Z" fill="#F1F2F2"/>
</g>
<defs>
<clipPath id="clip0_101_2043">
<path d="M0 0H156V115C156 126.046 147.046 135 136 135H0V0Z" fill="white"/>
</clipPath>
</defs>
</svg>
