<svg width="107" height="98" viewBox="0 0 107 98" fill="none" xmlns="http://www.w3.org/2000/svg">
<g clip-path="url(#clip0_2011_97)">
<path d="M99.6906 15.5629C99.4485 56.9547 65.9543 90.4491 24.5625 90.6912C37.3393 106.847 58.2576 114.229 78.3439 109.673C98.431 105.116 114.116 89.4311 118.673 69.344C123.229 49.2577 115.846 28.3394 99.6911 15.5626L99.6906 15.5629Z" fill="#5CC1E0"/>
<path d="M99.6913 15.563C78.4083 -1.30048 47.8648 0.463042 28.6639 19.6639C9.46304 38.8648 7.69952 69.4083 24.563 90.6913C65.9548 90.4492 99.4492 56.9548 99.6913 15.563Z" fill="#68CCEA"/>
<path d="M92.3269 26.1401C88.2501 27.9848 86 25.8086 83.1034 27.9848C79.5247 30.6781 78.0863 37.6512 81.2587 42.7423C83.5042 46.3289 87.5304 47.2289 92.0764 48.2213C96.6772 38.7829 99.2534 28.4867 99.6397 17.9938C98.2989 21.5235 95.692 24.4276 92.3269 26.1401Z" fill="#7FCBB4"/>
<path d="M100.276 16.0205C100.109 16.6931 99.8942 17.3527 99.632 17.9941C99.246 28.487 96.67 38.7832 92.0694 48.2216L92.3272 48.2765C98.6547 49.66 101.108 46.727 107.085 48.2765C109.751 49.0413 112.252 50.2921 114.463 51.9659C117.026 54.0799 118.92 56.8927 119.915 60.0624C119.955 59.212 119.998 58.3619 119.998 57.4999C120.005 49.5541 118.238 41.7069 114.826 34.5308C111.414 27.3548 106.443 21.0309 100.276 16.0205ZM64.6569 79.6362C68.3094 83.6761 69.2686 90.5014 66.5016 94.3937C64.2516 97.5668 61.1709 96.478 59.1229 99.9278C58.3602 101.345 57.9609 102.93 57.9609 104.539C57.9609 106.149 58.3602 107.734 59.1229 109.151C59.4073 109.671 59.747 110.159 60.1361 110.607C62.2484 110.861 64.374 110.991 66.5016 110.996C86.0094 111.001 103.972 100.383 113.374 83.2903C110.018 81.0458 104.777 78.076 99.706 77.7915C94.5086 77.2835 89.2954 78.5868 84.9485 81.4809C79.5071 85.4654 78.437 91.1104 75.725 90.7043C73.8066 90.4276 72.7551 87.3283 72.0357 85.1702C70.3881 80.2558 71.2817 76.9303 71.2664 74.1741C69.0141 75.9763 66.6602 77.6478 64.2163 79.1803C64.3676 79.3279 64.5145 79.4799 64.6567 79.6362H64.6569Z" fill="#56AA91"/>
<path d="M70.1901 70.4127C68.2903 67.7563 64.7487 67.2582 60.9666 66.7233C53.0347 65.6162 49.9174 69.0291 46.2091 66.7233C44.7327 65.7401 43.5895 64.332 42.9307 62.685C42.272 61.0381 42.1287 59.23 42.5197 57.4998C44.0697 52.8701 50.8397 54.4381 59.1219 48.2764C61.797 46.3028 68.1607 41.5622 68.3454 35.3636C68.5298 29.2946 62.6084 27.5606 60.9666 20.6061C60.2532 17.6101 61.5846 10.7206 64.9585 4.05969C45.1002 4.62048 27.1902 16.1438 18.447 33.9817V33.999C17.2636 40.5527 17.2947 47.268 18.5388 53.8105C19.6645 61.245 20.6969 67.9961 25.9176 74.102C28.2054 76.7953 31.7281 80.8907 36.9857 81.4808C42.8149 82.1264 50.5072 78.4002 51.7432 77.7914C53.3962 76.706 55.3036 76.0702 57.2772 75.9467C59.9141 76.1146 62.3912 77.269 64.2156 79.1802C66.6594 77.6478 69.0132 75.9764 71.2655 74.1742C71.3279 72.8365 70.9501 71.5152 70.1901 70.4127Z" fill="#7FCBB4"/>
<path d="M46.4813 18.3966C46.4813 24.4289 35.5629 38.8686 35.5629 38.8686C35.5629 38.8686 28.7529 29.8608 25.8865 23.1054C25.181 21.6275 24.7597 20.0302 24.6445 18.3966C24.6445 12.367 29.5332 7.47827 35.5629 7.47827C41.5931 7.47827 46.4813 12.367 46.4813 18.3966Z" fill="#F27E60"/>
<path d="M39.6575 17.0316C39.6575 19.2928 37.8243 21.126 35.5631 21.126C33.302 21.126 31.4688 19.2928 31.4688 17.0316C31.4688 14.7705 33.302 12.9373 35.5631 12.9373C37.8243 12.9373 39.6575 14.7705 39.6575 17.0316Z" fill="#F1F2F2"/>
<path d="M103.258 64.7946C103.018 66.9314 102.353 68.9921 101.304 70.8444C99.3005 74.6892 97.0346 78.3787 94.5238 81.8843C94.5238 81.8843 91.663 77.9311 89.2064 73.6015C88.301 72.031 87.4915 70.4024 86.7828 68.7254C86.2183 67.4917 85.8813 66.1583 85.7891 64.7946C85.7891 59.7612 89.7 55.6802 94.5238 55.6802C99.3479 55.6802 103.258 59.7612 103.258 64.7946Z" fill="#F2C45B"/>
<path d="M98.1656 64.0511C98.1656 65.86 96.5361 67.3267 94.5262 67.3267C92.5163 67.3267 90.8867 65.86 90.8867 64.0511C90.8867 62.2422 92.5163 60.7756 94.5262 60.7756C96.5361 60.7756 98.1656 62.2422 98.1656 64.0511Z" fill="#F1F2F2"/>
</g>
<defs>
<clipPath id="clip0_2011_97">
<rect width="107" height="98" rx="10" fill="white"/>
</clipPath>
</defs>
</svg>
