<svg width="156" height="135" viewBox="0 0 156 135" fill="none" xmlns="http://www.w3.org/2000/svg">
<g clip-path="url(#clip0_101_2027)">
<path d="M155.702 140.133C155.256 155.252 149.179 168.889 139.519 179.1C139.099 179.56 138.653 180.006 138.207 180.452C127.064 191.517 111.563 198.171 94.6189 197.672C78.9216 197.2 64.8253 190.677 54.496 180.4C54.0497 179.954 53.6034 179.508 53.1834 179.048C42.7491 168.01 36.5409 152.982 37.0265 136.628C77.5174 106.296 117.076 107.464 155.702 140.133Z" fill="#F27E60"/>
<path d="M112.19 152.441L96.4292 142.183L80.5042 152.479C77.6598 154.317 73.9118 152.288 73.8963 148.901C73.8642 141.936 74.0193 128.97 75.1965 117.508C75.4473 115.064 77.2581 113.056 79.6613 112.548C90.9371 110.162 102.131 110.425 113.25 113.317C114.373 113.61 115.38 114.239 116.136 115.121C116.891 116.003 117.358 117.094 117.475 118.25C118.597 129.424 118.838 142.064 118.809 148.876C118.794 152.268 115.032 154.292 112.19 152.441Z" fill="#F8EAE1"/>
<path d="M108.938 95.7671V128.839C108.938 135.738 103.345 141.331 96.4455 141.331C89.5461 141.331 83.9531 135.738 83.9531 128.839V95.7671H108.938Z" fill="#F0AC8F"/>
<path d="M102.899 95.7671H83.9531V116.478H89.3084C96.8141 116.478 102.899 110.393 102.899 102.887V95.7671Z" fill="#CF8A6D"/>
<path d="M127.375 64.6798C131.425 47.5501 120.821 30.3812 103.691 26.3319C86.5617 22.2827 69.3929 32.8864 65.3436 50.016C61.2943 67.1457 71.898 84.3146 89.0277 88.3638C106.157 92.4131 123.326 81.8094 127.375 64.6798Z" fill="#363B45"/>
<path d="M105.644 47.641L108.663 50.4104C108.663 50.4104 87.9652 59.0335 75.9164 50.8173L74.0527 47.5097C74.0527 47.5097 78.266 16.535 112.653 25.3547C115.816 26.1686 119.229 25.7748 121.959 23.9768L122.051 23.9243L121.014 29.1742C121.014 29.1742 124.426 29.975 128.875 21.5225C128.875 21.5225 134.388 44.6226 105.644 47.641Z" fill="#363B45"/>
<path d="M80.4391 47.287C75.2078 53.7854 71.8867 63.4068 71.8867 74.16C71.8867 93.7459 82.8758 109.604 96.4677 109.604C110.004 109.604 121.007 93.7459 121.007 74.16C121.007 63.4068 117.69 53.7854 112.453 47.287H80.4391Z" fill="#F0AC8F"/>
<path d="M126.343 68.1863L126.268 68.2682C109.799 50.0899 83.1014 50.0899 66.6175 68.2682L66.5287 68.1701C62.2298 63.4251 62.8968 55.4241 68.0259 51.8243C85.3105 39.6836 107.576 39.6836 124.86 51.8243C129.989 55.4238 130.656 63.441 126.343 68.1863Z" fill="#F8EAE1"/>
<path d="M88.2072 71.185C88.2072 72.4853 87.3757 73.6121 86.3449 73.6121C85.3141 73.6121 84.4827 72.4853 84.4827 71.185C84.4827 69.8416 85.3141 68.7145 86.3449 68.7145C87.3757 68.7148 88.2072 69.8416 88.2072 71.185ZM81.9903 64.6808C81.8344 64.6805 81.6833 64.6273 81.5616 64.5299C81.4398 64.4325 81.3547 64.2968 81.3201 64.1448C81.2856 63.9928 81.3036 63.8335 81.3712 63.6931C81.4389 63.5527 81.5522 63.4393 81.6926 63.3716C85.8513 61.3822 89.9495 62.1249 90.1236 62.1577C90.3028 62.1914 90.4612 62.2949 90.5641 62.4454C90.667 62.5958 90.7058 62.781 90.6722 62.9602C90.6557 63.049 90.6219 63.1338 90.5726 63.2095C90.5233 63.2853 90.4596 63.3506 90.3851 63.4017C90.3106 63.4528 90.2267 63.4887 90.1382 63.5074C90.0498 63.5261 89.9586 63.5271 89.8697 63.5105C89.8321 63.5039 86.0268 62.8251 82.2871 64.6134C82.1944 64.6578 82.093 64.6808 81.9903 64.6808ZM104.684 71.185C104.684 72.4853 105.515 73.6121 106.546 73.6121C107.577 73.6121 108.408 72.4853 108.408 71.185C108.408 69.8416 107.577 68.7145 106.546 68.7145C105.515 68.7148 104.684 69.8416 104.684 71.185ZM110.9 64.6808C110.798 64.6809 110.696 64.6578 110.604 64.6134C106.865 62.8265 103.061 63.5032 103.022 63.5105C102.843 63.5434 102.658 63.504 102.507 63.4009C102.357 63.2978 102.253 63.1393 102.219 62.9602C102.186 62.781 102.225 62.5958 102.328 62.4454C102.43 62.2949 102.589 62.1914 102.768 62.1577C102.941 62.1256 107.039 61.3836 111.198 63.3716C111.363 63.4504 111.49 63.5915 111.55 63.7636C111.611 63.9358 111.601 64.125 111.522 64.2898C111.466 64.4069 111.378 64.5057 111.268 64.5749C111.158 64.644 111.03 64.6807 110.9 64.6808ZM95.8006 84.7994C95.7926 84.7994 95.7843 84.7994 95.7764 84.7987C92.6412 84.6906 90.9302 83.9769 90.5451 82.6166C89.8328 80.1004 94.48 76.8623 95.4189 76.2388C95.5709 76.1448 95.7535 76.1136 95.9281 76.1518C96.1027 76.19 96.2556 76.2945 96.3546 76.4433C96.4535 76.5921 96.4908 76.7736 96.4584 76.9494C96.4261 77.1251 96.3267 77.2815 96.1812 77.3853C94.2509 78.669 91.5462 81.0998 91.8695 82.2422C91.94 82.4895 92.4319 83.3061 95.8237 83.4236C96.0044 83.4293 96.1755 83.5058 96.3002 83.6367C96.4248 83.7675 96.493 83.9422 96.49 84.1229C96.4869 84.3036 96.4129 84.4759 96.2839 84.6024C96.1549 84.729 95.9813 84.7998 95.8006 84.7994ZM96.4455 92.9877C93.424 92.9877 90.4031 91.8916 87.9937 89.6995C87.9268 89.6387 87.8726 89.5653 87.8341 89.4836C87.7957 89.4018 87.7737 89.3133 87.7695 89.2231C87.7652 89.1328 87.7788 89.0426 87.8095 88.9576C87.8401 88.8726 87.8872 88.7945 87.9481 88.7277C88.071 88.5931 88.2424 88.5126 88.4245 88.5041C88.6067 88.4955 88.7848 88.5596 88.9198 88.6821C93.2101 92.5856 99.6809 92.5856 103.971 88.6821C104.038 88.6213 104.116 88.5743 104.201 88.5437C104.286 88.513 104.376 88.4995 104.467 88.5037C104.557 88.5079 104.645 88.5299 104.727 88.5683C104.809 88.6068 104.882 88.6609 104.943 88.7277C105.004 88.7945 105.051 88.8727 105.081 88.9576C105.112 89.0426 105.126 89.1328 105.121 89.223C105.117 89.3133 105.095 89.4018 105.057 89.4835C105.018 89.5653 104.964 89.6387 104.897 89.6995C102.488 91.8916 99.467 92.9877 96.4455 92.9877ZM54.4963 155.502V180.4C54.05 179.954 53.6036 179.507 53.1836 179.048V155.502C53.1836 155.147 53.4855 154.846 53.8399 154.846C54.2075 154.846 54.4963 155.147 54.4963 155.502ZM139.519 155.502V179.1C139.099 179.56 138.653 180.006 138.207 180.452V155.502C138.207 155.147 138.496 154.846 138.863 154.846C139.218 154.846 139.519 155.147 139.519 155.502Z" fill="black"/>
<path d="M76.0732 70.5781C79.7459 74.2508 80.4441 79.5132 77.6035 82.3541C74.7627 85.1949 69.4771 84.5199 65.8044 80.8473C62.1314 77.1742 61.4865 71.9187 64.3273 69.0779C67.1682 66.237 72.4006 66.905 76.0732 70.5781Z" fill="#F0AC8F"/>
<path d="M70.6963 78.4779C70.5915 78.4781 70.4881 78.4543 70.394 78.4084C70.2999 78.3624 70.2175 78.2956 70.1532 78.2129L67.8157 75.2204C67.7044 75.0765 67.6546 74.8943 67.6772 74.7138C67.6999 74.5333 67.7931 74.3691 67.9365 74.2571C68.0799 74.1451 68.2618 74.0945 68.4424 74.1163C68.623 74.1381 68.7877 74.2305 68.9003 74.3734L71.2379 77.3659C71.3173 77.4675 71.3666 77.5893 71.3801 77.7175C71.3937 77.8457 71.3709 77.9752 71.3145 78.0911C71.258 78.207 71.1701 78.3047 71.0608 78.3731C70.9515 78.4415 70.8252 78.4778 70.6963 78.4779Z" fill="black"/>
<path d="M116.822 70.5781C113.149 74.2508 112.451 79.5132 115.291 82.3541C118.132 85.1949 123.418 84.5199 127.091 80.8473C130.764 77.1742 131.408 71.9187 128.568 69.0779C125.727 66.237 120.495 66.905 116.822 70.5781Z" fill="#F0AC8F"/>
<path d="M122.194 78.4779C122.065 78.4779 121.938 78.4417 121.829 78.3734C121.72 78.305 121.632 78.2073 121.575 78.0914C121.519 77.9755 121.496 77.8461 121.51 77.7179C121.523 77.5897 121.573 77.4679 121.652 77.3663L123.99 74.3738C124.045 74.3024 124.114 74.2427 124.193 74.1981C124.271 74.1535 124.358 74.1248 124.448 74.1138C124.538 74.1027 124.629 74.1095 124.716 74.1338C124.803 74.158 124.884 74.1992 124.955 74.255C125.027 74.3106 125.086 74.3796 125.131 74.4583C125.175 74.5369 125.204 74.6236 125.215 74.7133C125.226 74.803 125.219 74.894 125.195 74.981C125.171 75.0681 125.13 75.1496 125.074 75.2208L122.737 78.2133C122.672 78.296 122.59 78.3628 122.496 78.4087C122.402 78.4545 122.298 78.4782 122.194 78.4779Z" fill="black"/>
<path d="M77.0496 65.8508C77.1567 66.5323 70.403 54.6831 78.5754 43.9535C87.0635 33.4716 100.175 37.2254 99.4878 37.2828C99.2412 37.2361 90.237 41.6515 85.0551 49.0428C79.1018 55.8283 76.9456 65.6221 77.0496 65.8508ZM118.73 37.6659C116.424 37.1836 113.837 37.08 110.98 37.6334C97.8204 40.591 95.3688 54.0078 95.725 53.4171C95.7927 53.1753 103.744 47.0638 112.667 45.6983C114.681 45.1615 116.741 44.891 118.73 44.7753V37.6659Z" fill="#363B45"/>
</g>
<defs>
<clipPath id="clip0_101_2027">
<path d="M0 0H156V115C156 126.046 147.046 135 136 135H0V0Z" fill="white"/>
</clipPath>
</defs>
</svg>
