<svg width="107" height="98" viewBox="0 0 107 98" fill="none" xmlns="http://www.w3.org/2000/svg">
<g clip-path="url(#clip0_2011_58)">
<path d="M107 87.7812C106.673 98.8629 102.219 108.858 95.139 116.342C94.8312 116.678 94.504 117.006 94.1772 117.333C86.0101 125.442 74.6494 130.319 62.2304 129.954C50.7254 129.607 40.3939 124.827 32.8233 117.294C32.4962 116.967 32.1691 116.64 31.8612 116.303C24.2136 108.213 19.6635 97.199 20.0195 85.2129C49.6962 62.9817 78.6897 63.838 107 87.7812Z" fill="#F27E60"/>
<path d="M75.1081 96.8026L63.5567 89.2842L51.8849 96.83C49.8002 98.1777 47.0532 96.6902 47.0418 94.2078C47.0182 89.1032 47.1319 79.5996 47.9948 71.199C48.1786 69.408 49.5057 67.9363 51.2671 67.5636C59.5314 65.8152 67.7357 66.0081 75.8851 68.1275C76.7085 68.3419 77.4466 68.8033 78.0002 69.4495C78.5538 70.0958 78.8963 70.896 78.9817 71.7426C79.8043 79.9327 79.9808 89.1966 79.9595 94.1896C79.9486 96.6755 77.1915 98.1587 75.1081 96.8026Z" fill="#F8EAE1"/>
<path d="M72.7261 55.2646V79.5039C72.7261 84.5606 68.6268 88.6599 63.5701 88.6599C58.5133 88.6599 54.4141 84.5606 54.4141 79.5039V55.2646H72.7261Z" fill="#F0AC8F"/>
<path d="M68.3 55.2646H54.4141V70.4441H58.3391C63.8402 70.4441 68.3 65.9846 68.3 60.4832V55.2646Z" fill="#CF8A6D"/>
<path d="M86.2369 32.4799C89.2048 19.9251 81.433 7.34158 68.8783 4.37376C56.3235 1.40595 43.74 9.1777 40.7721 21.7325C37.8043 34.2872 45.5761 46.8707 58.1308 49.8386C70.6856 52.8064 83.2691 45.0346 86.2369 32.4799Z" fill="#363B45"/>
<path d="M70.3106 19.9917L72.5231 22.0215C72.5231 22.0215 57.3531 28.3416 48.5222 22.3197L47.1562 19.8955C47.1562 19.8955 50.2443 -2.80666 75.4476 3.65754C77.766 4.25403 80.2669 3.9654 82.2678 2.6476L82.3351 2.60912L81.5751 6.45695C81.5751 6.45695 84.0762 7.04382 87.3372 0.848755C87.3372 0.848755 91.3775 17.7794 70.3106 19.9917Z" fill="#363B45"/>
<path d="M51.8385 19.7323C48.0044 24.4951 45.5703 31.547 45.5703 39.4282C45.5703 53.7833 53.6245 65.4057 63.5864 65.4057C73.5072 65.4057 81.5715 53.7833 81.5715 39.4282C81.5715 31.547 79.1405 24.4951 75.3023 19.7323H51.8385Z" fill="#F0AC8F"/>
<path d="M85.4822 35.0499L85.4278 35.1099C73.3572 21.7865 53.7897 21.7865 41.7082 35.1099L41.6431 35.038C38.4923 31.5603 38.9812 25.6961 42.7404 23.0577C55.4088 14.1595 71.7275 14.1595 84.3959 23.0577C88.1548 25.6959 88.6437 31.5719 85.4822 35.0499Z" fill="#F8EAE1"/>
<path d="M57.533 37.2478C57.533 38.2007 56.9236 39.0266 56.1681 39.0266C55.4126 39.0266 54.8032 38.2007 54.8032 37.2478C54.8032 36.2632 55.4126 35.437 56.1681 35.437C56.9236 35.4373 57.533 36.2632 57.533 37.2478ZM52.9765 32.4806C52.8622 32.4804 52.7514 32.4414 52.6622 32.3701C52.573 32.2987 52.5106 32.1992 52.4853 32.0878C52.46 31.9764 52.4731 31.8597 52.5227 31.7567C52.5723 31.6538 52.6553 31.5707 52.7582 31.5211C55.8063 30.063 58.81 30.6074 58.9376 30.6314C59.0689 30.6561 59.185 30.7319 59.2604 30.8422C59.3358 30.9525 59.3643 31.0883 59.3397 31.2196C59.3276 31.2847 59.3028 31.3468 59.2667 31.4023C59.2306 31.4578 59.1838 31.5057 59.1292 31.5432C59.0746 31.5806 59.0131 31.607 58.9483 31.6206C58.8835 31.6343 58.8166 31.6351 58.7515 31.6229C58.7239 31.6181 55.9349 31.1206 53.194 32.4313C53.1261 32.4638 53.0518 32.4807 52.9765 32.4806ZM69.6092 37.2478C69.6092 38.2007 70.2186 39.0266 70.974 39.0266C71.7295 39.0266 72.3389 38.2007 72.3389 37.2478C72.3389 36.2632 71.7295 35.437 70.974 35.437C70.2183 35.4373 69.6092 36.2632 69.6092 37.2478ZM74.1654 32.4806C74.0902 32.4807 74.0159 32.4638 73.9482 32.4313C71.208 31.1216 68.4195 31.6176 68.3911 31.6229C68.2597 31.647 68.124 31.6181 68.0138 31.5426C67.9036 31.467 67.8278 31.3509 67.803 31.2196C67.7783 31.0883 67.8068 30.9525 67.8822 30.8422C67.9576 30.7319 68.0737 30.6561 68.205 30.6314C68.3321 30.6079 71.3353 30.064 74.3839 31.5211C74.5046 31.5789 74.5974 31.6822 74.6419 31.8084C74.6864 31.9346 74.679 32.0733 74.6214 32.194C74.58 32.2799 74.5153 32.3523 74.4346 32.403C74.354 32.4537 74.2606 32.4806 74.1654 32.4806ZM63.0984 47.2261C63.0925 47.2261 63.0865 47.2261 63.0806 47.2256C60.7828 47.1464 59.5288 46.6233 59.2465 45.6263C58.7244 43.7821 62.1305 41.4088 62.8186 40.9518C62.93 40.8829 63.0639 40.8601 63.1918 40.888C63.3198 40.916 63.4319 40.9926 63.5044 41.1017C63.5769 41.2108 63.6042 41.3438 63.5805 41.4726C63.5568 41.6014 63.484 41.716 63.3774 41.7921C61.9626 42.7329 59.9802 44.5146 60.2172 45.3518C60.2688 45.5331 60.6294 46.1316 63.1153 46.2177C63.2477 46.2219 63.3732 46.278 63.4645 46.3739C63.5559 46.4698 63.6059 46.5978 63.6036 46.7303C63.6014 46.8627 63.5472 46.989 63.4526 47.0817C63.3581 47.1745 63.2308 47.2264 63.0984 47.2261ZM63.5711 53.2275C61.3565 53.2275 59.1424 52.4242 57.3765 50.8175C57.3275 50.7729 57.2878 50.7192 57.2596 50.6592C57.2314 50.5993 57.2153 50.5345 57.2122 50.4683C57.2091 50.4022 57.219 50.3361 57.2415 50.2738C57.2639 50.2115 57.2985 50.1542 57.3431 50.1053C57.4332 50.0066 57.5588 49.9476 57.6923 49.9414C57.8258 49.9351 57.9563 49.982 58.0553 50.0719C61.1998 52.9328 65.9423 52.9328 69.0868 50.0719C69.1358 50.0273 69.1931 49.9928 69.2553 49.9704C69.3176 49.9479 69.3837 49.938 69.4499 49.9411C69.516 49.9442 69.5809 49.9603 69.6408 49.9884C69.7007 50.0166 69.7545 50.0563 69.799 50.1053C69.8436 50.1542 69.8781 50.2115 69.9005 50.2738C69.923 50.3361 69.9329 50.4022 69.9298 50.4683C69.9267 50.5344 69.9106 50.5993 69.8825 50.6592C69.8543 50.7191 69.8146 50.7729 69.7656 50.8175C67.9999 52.4242 65.7856 53.2275 63.5711 53.2275ZM32.8254 99.0458V117.294C32.4983 116.967 32.1711 116.64 31.8633 116.303V99.0458C31.8633 98.786 32.0846 98.5647 32.3443 98.5647C32.6137 98.5647 32.8254 98.786 32.8254 99.0458ZM95.1411 99.0458V116.342C94.8332 116.678 94.5061 117.006 94.1793 117.333V99.0458C94.1793 98.786 94.3909 98.5647 94.6603 98.5647C94.9198 98.5647 95.1411 98.786 95.1411 99.0458Z" fill="black"/>
<path d="M48.6396 36.8029C51.3314 39.4948 51.8431 43.3517 49.7612 45.4339C47.679 47.516 43.8051 47.0213 41.1133 44.3295C38.4213 41.6374 37.9486 37.7855 40.0307 35.7034C42.1129 33.6212 45.9478 34.1109 48.6396 36.8029Z" fill="#F0AC8F"/>
<path d="M44.6971 42.5929C44.6204 42.5931 44.5446 42.5756 44.4756 42.542C44.4066 42.5083 44.3462 42.4593 44.2991 42.3987L42.5859 40.2054C42.5043 40.1 42.4678 39.9665 42.4844 39.8341C42.501 39.7018 42.5693 39.5815 42.6744 39.4994C42.7795 39.4173 42.9128 39.3802 43.0452 39.3962C43.1776 39.4122 43.2983 39.4799 43.3808 39.5846L45.0941 41.7779C45.1523 41.8524 45.1884 41.9417 45.1984 42.0357C45.2083 42.1296 45.1916 42.2245 45.1502 42.3095C45.1088 42.3944 45.0444 42.466 44.9643 42.5161C44.8842 42.5663 44.7916 42.5929 44.6971 42.5929Z" fill="black"/>
<path d="M78.5046 36.8029C75.8128 39.4948 75.3011 43.3517 77.383 45.4339C79.4652 47.516 83.3391 47.0213 86.0309 44.3295C88.723 41.6374 89.1957 37.7855 87.1135 35.7034C85.0316 33.6212 81.1967 34.1109 78.5046 36.8029Z" fill="#F0AC8F"/>
<path d="M82.4416 42.5929C82.3471 42.5929 82.2545 42.5663 82.1744 42.5162C82.0943 42.4661 82.0298 42.3945 81.9884 42.3096C81.947 42.2247 81.9304 42.1298 81.9403 42.0358C81.9502 41.9418 81.9864 41.8526 82.0446 41.7781L83.7579 39.5848C83.7985 39.5325 83.8492 39.4888 83.9068 39.4561C83.9644 39.4234 84.028 39.4024 84.0937 39.3943C84.1595 39.3862 84.2262 39.3912 84.2901 39.4089C84.3539 39.4267 84.4136 39.4569 84.4658 39.4977C84.518 39.5385 84.5617 39.5891 84.5943 39.6468C84.627 39.7044 84.6479 39.7679 84.656 39.8336C84.6641 39.8994 84.6592 39.9661 84.6415 40.0299C84.6238 40.0937 84.5937 40.1535 84.5529 40.2056L82.8396 42.3989C82.7925 42.4595 82.7321 42.5085 82.6631 42.5421C82.5941 42.5757 82.5183 42.5931 82.4416 42.5929Z" fill="black"/>
<path d="M49.355 33.3382C49.4335 33.8377 44.4836 25.1531 50.4733 17.2891C56.6944 9.60659 66.3044 12.3579 65.8006 12.3999C65.6198 12.3657 59.0204 15.6019 55.2225 21.0192C50.8592 25.9924 49.2788 33.1706 49.355 33.3382ZM79.904 12.6807C78.2132 12.3273 76.3174 12.2513 74.2236 12.6569C64.5785 14.8246 62.7817 24.6581 63.0427 24.2252C63.0923 24.048 68.92 19.5687 75.4599 18.5679C76.9359 18.1745 78.4459 17.9762 79.904 17.8914V12.6807Z" fill="#363B45"/>
</g>
<defs>
<clipPath id="clip0_2011_58">
<rect width="107" height="98" rx="10" fill="white"/>
</clipPath>
</defs>
</svg>
