<svg width="156" height="135" viewBox="0 0 156 135" fill="none" xmlns="http://www.w3.org/2000/svg">
<g clip-path="url(#clip0_101_2055)">
<path d="M105.011 25.0202C97.422 24.733 90.4987 27.5242 85.35 32.2287C84.5925 32.9209 83.4098 32.9209 82.6523 32.2287C77.5035 27.5242 70.5801 24.7332 62.9909 25.0202C61.1608 25.0881 59.3425 25.3442 57.5649 25.7845C44.0507 29.1375 39.418 47.7554 39.418 57.1883C39.418 76.4217 75.2081 103.735 83.9178 108.838L88.8205 108.874C100.22 101.788 128.125 82.0742 131.269 57.1883C133.327 40.9027 121.415 25.6407 105.011 25.0202Z" fill="#E15F78"/>
<path d="M43.0853 54.7108C41.5653 42.6811 47.6625 31.2084 57.567 25.7842C44.0483 29.1337 34.9121 42.7581 36.7353 57.1883C40.1723 84.3919 73.1967 105.416 81.9061 110.52C82.542 110.893 83.2659 111.09 84.0033 111.09C84.7406 111.09 85.4645 110.893 86.1004 110.52C87.015 109.983 87.9226 109.435 88.8229 108.874C82.0391 105.008 46.6713 83.0929 43.0853 54.7108Z" fill="#DB4655"/>
<path d="M57.5976 98.9644L50.0979 81.465C49.5089 80.091 48.3079 79.01 46.8359 78.7488C46.1581 78.6285 45.5099 78.6638 44.9166 78.8225L45.9211 101.54L31.0512 81.7135C30.5754 81.0791 30.2924 80.3212 30.236 79.5303L28.669 57.5908C28.4777 54.9144 26.6055 52.7351 24.129 52.0574L22.125 54.3296V80.0978C22.125 83.2287 22.9162 86.3088 24.425 89.0522L41.4902 120.08C42.1841 121.342 42.4167 122.806 42.1479 124.221L39.1064 140.227L40.7187 142.677H55.3251C55.8309 142.677 56.319 142.491 56.697 142.155C57.0749 141.819 57.3163 141.356 57.3753 140.853L60.1946 116.89C60.9125 110.791 60.017 104.609 57.5976 98.9644Z" fill="#F6D190"/>
<path d="M44.0786 124.996C44.5247 122.636 44.1377 120.196 42.9839 118.09L25.9172 87.0612C24.7455 84.9271 24.1305 82.5321 24.129 80.0975V52.0574C23.5607 51.9011 22.9728 51.8278 22.3835 51.8396C21.053 51.8621 20 52.9989 20 54.3296V80.0977C20.0001 83.2287 20.7912 86.309 22.3 89.0525L39.3652 120.08C40.0591 121.342 40.2917 122.806 40.0229 124.221L36.9814 140.227C36.7397 141.499 37.7149 142.677 39.0097 142.677H40.7187L44.0786 124.996ZM44.9166 78.8225C42.7579 79.4032 41.3242 81.6202 41.8562 83.9257L46.9446 105.98C47.0681 106.514 47.3982 106.976 47.8624 107.266C48.3266 107.556 48.8869 107.65 49.4204 107.528C49.954 107.404 50.4169 107.074 50.7073 106.61C50.9977 106.145 51.0917 105.585 50.9689 105.051L44.9166 78.8225Z" fill="#ECBD83"/>
<path d="M145.615 51.8396C145.058 51.8296 144.501 51.8949 143.961 52.0336L141.624 55.2136L139.749 81.7135L122.078 101.54L126.142 83.9257C126.644 81.7502 125.401 79.6545 123.445 78.9375L119.916 81.465L112.416 98.9644C109.996 104.609 109.101 110.791 109.819 116.89L112.638 140.853L114.899 142.677H128.989C130.284 142.677 131.259 141.499 131.017 140.227L127.976 124.221C127.707 122.806 127.94 121.342 128.633 120.08L145.699 89.0525C147.208 86.3091 147.999 83.2289 147.999 80.098V54.3296C147.999 52.9989 146.946 51.8624 145.615 51.8396Z" fill="#F6D190"/>
<path d="M139.329 57.5908L137.762 79.5302C137.706 80.321 137.423 81.0789 136.947 81.7132L122.078 101.538C121.877 103.821 124.797 104.935 126.167 103.097L140.25 84.1914C141.201 82.9272 141.767 81.4149 141.879 79.8367L143.961 52.0338C141.451 52.6898 139.522 54.8898 139.329 57.5908ZM111.903 116.407C111.27 111.037 112.065 105.567 114.196 100.586L123.444 78.9374C122.756 78.6844 121.982 78.6034 121.162 78.7489C119.69 79.0099 118.489 80.0909 117.9 81.4652L110.4 98.9644C107.981 104.609 107.085 110.79 107.803 116.89L110.622 140.853C110.681 141.356 110.923 141.819 111.301 142.155C111.679 142.491 112.167 142.677 112.672 142.677H114.898L111.903 116.407Z" fill="#ECBD83"/>
</g>
<defs>
<clipPath id="clip0_101_2055">
<path d="M0 0H156V115C156 126.046 147.046 135 136 135H0V0Z" fill="white"/>
</clipPath>
</defs>
</svg>
