<svg width="52" height="52" fill="none" xmlns="http://www.w3.org/2000/svg"><path d="M52 26C52 11.64 40.36 0 25.998 0 11.64 0 0 11.64 0 26s11.64 26 25.998 26C40.36 52 52 40.36 52 26Z" fill="#6683C2"/><path d="M23.043 19.572c.07 1.024 1.241 1.585 2.087 1.003a1.124 1.124 0 0 1 1.76.925v3.72h2.786c-.494-2.02 1.108-3.99 3.24-3.842 1.874.13 3.265 1.935 2.797 3.842h2.814c2.356-3.561-.016-8.713-4.606-8.949.519-2.74-1.594-5.266-4.363-5.266-1 0-1.925.332-2.668.892v5.552a1.124 1.124 0 0 1-1.76.925c-.905-.622-2.166.065-2.087 1.198Z" fill="#fff"/><path d="M17.284 25.22c.904 0 1.438 1.015.926 1.76-.62.9.06 2.165 1.197 2.087 1.027-.071 1.585-1.243 1.004-2.087a1.124 1.124 0 0 1 .925-1.76h3.78v-2.728c-1.911.47-3.713-.927-3.843-2.798-.147-2.122 1.813-3.735 3.843-3.238v-4.559c-3.182-2.398-7.74.34-7.042 4.316-4.617.245-6.953 5.408-4.578 9.007h3.788Zm21.213 1.773h-3.776a1.124 1.124 0 0 1-.926-1.76c.582-.844.022-2.015-1.003-2.086-1.137-.08-1.818 1.185-1.198 2.086a1.124 1.124 0 0 1-.925 1.76h-3.78v2.727c2.024-.495 3.99 1.111 3.843 3.238-.13 1.872-1.932 3.267-3.843 2.798v4.62c3.182 2.397 7.74-.34 7.042-4.316 4.506-.24 7.01-5.295 4.566-9.067Z" fill="#fff"/><path d="M28.963 32.836c.078-1.132-1.182-1.82-2.088-1.198a1.124 1.124 0 0 1-1.76-.925v-3.72h-2.788c.483 1.965-1.013 3.85-3.021 3.85-2.027 0-3.49-1.91-3.015-3.85h-2.795c-2.374 3.599-.042 8.77 4.588 9.008-.519 2.74 1.594 5.267 4.364 5.267 1 0 1.924-.332 2.667-.893v-5.61a1.124 1.124 0 0 1 1.76-.926c.845.581 2.016.023 2.088-1.003Z" fill="#fff"/></svg>