<svg width="52" height="52" fill="none" xmlns="http://www.w3.org/2000/svg"><path d="M52 26C52 11.64 40.36 0 25.998 0 11.64 0 0 11.64 0 26s11.64 26 25.998 26C40.36 52 52 40.36 52 26Z" fill="#A0D76A"/><path d="M26 39c-1.993 0-3.746-.337-5.258-1.012-1.489-.699-2.657-1.639-3.505-2.82C16.412 33.965 16 32.616 16 31.122c0-1.494.435-2.808 1.306-3.94.87-1.133 2.05-2.012 3.54-2.639 1.511-.626 3.23-.94 5.154-.94 1.947 0 3.666.314 5.155.94 1.512.627 2.691 1.506 3.54 2.639.87 1.132 1.305 2.445 1.305 3.94a6.87 6.87 0 0 1-1.272 4.048c-.824 1.18-1.981 2.12-3.47 2.819C29.768 38.663 28.016 39 26 39Zm0-13.337c-1.718 0-3.253-.277-4.605-.832-1.351-.554-2.417-1.325-3.196-2.313-.779-1.012-1.168-2.18-1.168-3.506 0-1.301.367-2.482 1.1-3.542.756-1.06 1.81-1.904 3.161-2.53C22.644 12.313 24.213 12 26 12c1.81 0 3.38.313 4.708.94 1.352.626 2.394 1.47 3.127 2.53a5.96 5.96 0 0 1 1.134 3.542c0 1.325-.39 2.494-1.168 3.506-.78.988-1.845 1.76-3.196 2.313-1.329.555-2.864.832-4.605.832Zm0 8.35c.802 0 1.5-.133 2.096-.398.596-.266 1.066-.64 1.41-1.121a3.016 3.016 0 0 0 .515-1.735c0-.65-.172-1.217-.516-1.699-.343-.482-.813-.855-1.409-1.12-.595-.29-1.294-.434-2.096-.434-.779 0-1.478.145-2.096.434-.596.265-1.066.638-1.41 1.12-.343.482-.515 1.048-.515 1.699 0 .65.172 1.229.516 1.735.343.482.813.855 1.409 1.12.618.266 1.317.398 2.096.398Zm0-11.386c.642 0 1.203-.121 1.684-.362.48-.265.859-.614 1.134-1.048a2.71 2.71 0 0 0 .412-1.482 2.709 2.709 0 0 0-1.546-2.494c-.481-.265-1.043-.398-1.684-.398a3.56 3.56 0 0 0-1.684.398 2.709 2.709 0 0 0-1.546 2.494c0 .554.137 1.048.412 1.482.275.434.653.783 1.134 1.048.504.241 1.065.361 1.684.361Z" fill="#fff"/></svg>