<svg width="260" height="235" fill="none" xmlns="http://www.w3.org/2000/svg"><g clip-path="url(#a)"><path d="M231.749 230.501H37.007c-20.398 0-37.96-23.282-34.59-53.797 4.421-40.019 32.63-33.103 31.668-85.76-1.391-76.202 50.067-39.01 68.664-57.362 41.388-40.868 53.476-12.942 73.03 5.545 22.375 21.145 32.225 8.233 51.441 14.603 37.592 12.432 11.011 78.64 23.201 104.386 13.278 28.039 6.161 72.385-18.672 72.385Z" fill="#DAE6FF"/><path d="M-5.61 141.943s4.305 18.77 29.226 30.673l23.486-15.336S24.668 144.713 21.2 131.906l-26.81 10.037Z" fill="#F3F8FF" opacity=".8"/><path d="m56.396 109.379-1.732 8.885 8.268-.405.475-4.901-7.011-3.579Z" fill="#FEC7A4"/><path d="M69.23 76.266c.47-4.477.292-12.701.798-17.322.104-.952-.956-1.582-1.746-1.04l-4.548 3.116-2.36-12.643c-.1-.54-.891-.482-.913.066l-.859 20.996a.696.696 0 0 0 1.156.55l4.716-4.163 2.704 10.517c.149.578.989.519 1.052-.075v-.002ZM82.877 73.334c1.166-1.928 2.837-5.69 4.05-7.674a.56.56 0 0 0-.57-.843l-2.723.443 1.624-6.227c.07-.266-.3-.41-.429-.164l-4.859 9.325a.348.348 0 0 0 .406.495l3.022-.881-1.014 5.337c-.056.293.338.445.492.19h.001ZM64.698 86.65c-2.426-2.615-7.424-6.795-9.917-9.504a.885.885 0 0 0-1.53.499l-.512 4.339-8.77-5.183c-.375-.222-.753.28-.437.578l12.077 11.456a.551.551 0 0 0 .93-.404l-.026-4.983 7.683 3.868c.423.212.825-.32.503-.667h-.001Z" fill="#F37E60"/><path d="M180.377 201.619s-83.27 6.457-79.419-1.129c4.817-9.489-4.293-20.172-4.293-20.172s-22.37 16.37-36.332 11.274c-16.65-6.077-5.713-75.639-5.713-75.639l.485.039 7.944.636 3.486.278s3.01 44.281 4.777 44.576c2.341.391 13.18-22.489 29.585-31.737 2.911-1.641 16.606-6.075 19.991-6.778 8.905-1.853 42.381 11.217 42.381 11.217 2.679 3.32 15.937 17.495 17.105 67.435h.003Z" fill="#68CCEA"/><path d="M80.96 118.685s-2.538-.69-2.811.739c-.698 3.639 3.43 3.909 5.325 3.11l-2.512-3.849h-.002Z" fill="#FBAE7C"/><path d="m75.138 113.036.015-.008a15.7 15.7 0 0 1-.47-.51c-6.776-7.72-5.705-19.636 2.579-25.994 6.9-5.297 16.795-4.79 23.115 1.19a17.861 17.861 0 0 1 4.814 7.717c1.514 4.234 2.778 7.884 3.579 11.138 1.326 5.381 4.438 10.152 8.735 13.649l3.38 2.75c-4.398 11.642-11.752 10.859-11.752 10.859l-5.354-5.796a1.984 1.984 0 0 0-2.672-.214c-.005.004-.01.009-.015.011-10.824 8.317-21.906-10.179-25.954-14.791v-.001Z" fill="#FEC7A4"/><path d="M94.828 101.67a.975.975 0 0 0-1.107-1.286c-1.592.316-4.471 2.005-3.977 6.141a.975.975 0 0 0 1.936-.231c-.408-3.396 2.305-3.973 2.42-3.995a.975.975 0 0 0 .728-.628v-.001ZM84.674 111.45a.975.975 0 0 0 .21-1.683c-1.302-.97-4.486-1.974-7.222 1.164a.976.976 0 0 0 1.47 1.281c2.247-2.579 4.493-.952 4.588-.882a.978.978 0 0 0 .954.12ZM103.567 88.805c4.056 2.73 4.333 12.289 4.333 12.289l-2.871 1.655-11.756-10.438s8.041-5.023 10.296-3.506h-.002Z" fill="#080435"/><path d="M104.395 102.792a2.649 2.649 0 0 1 .214-1.865c.599-1.188 1.876-3.033 3.988-2.895 3.099.202 3.618 7.489-1.572 8.196 0 0-1.76-.114-2.632-3.434l.002-.002ZM92.716 118.111c1.717-.466 2.216-2.052 2.222-2.07a.29.29 0 0 0-.194-.361.291.291 0 0 0-.36.192c-.023.074-.592 1.825-2.737 1.788-.35-.006-.576-.061-.675-.163-.138-.143-.128-.492-.115-.976.03-1.113.082-2.974-1.656-5.555a.29.29 0 0 0-.48.324c1.635 2.426 1.589 4.105 1.558 5.215-.016.6-.029 1.074.274 1.393.217.227.551.332 1.082.342a3.81 3.81 0 0 0 1.08-.127l.001-.002Z" fill="#FBAE7C"/><path d="M72.717 105.922s-.74 3.051 5.943 11.621c0 0-8.634-8.513-8.502-10.402.132-1.89 2.56-1.219 2.56-1.219Z" fill="#080435"/><path d="M96.775 117.594c.59-.589 1.427-1.03 2.242-.852.707.154 1.239.734 1.627 1.345.145.228.28.473.304.741.034.416-.21.815-.532 1.082-.321.267-.713.43-1.092.608-1.578.747-2.975 1.824-4.397 2.837-.464.331-1.001.672-1.56.564-.667-.126-1.07-.887-.99-1.56.081-.674.529-1.248 1.037-1.697.573-.508 1.261-.825 1.847-1.289.61-.482.964-1.231 1.516-1.78l-.002.001Z" fill="#fff"/><path d="M85.666 114.277a1.41 1.41 0 1 1-2.454 1.387 1.41 1.41 0 0 1 2.454-1.387ZM96.336 107.479a1.467 1.467 0 1 1-2.376 1.72 1.467 1.467 0 0 1 2.376-1.72ZM83.824 78.436c-.731.01-1.686.405-1.553 1.124.054.29.283.511.511.699A7.89 7.89 0 0 0 85 81.537c-4.621-.246-8.863 2.632-11.998 6.034-3.135 3.403-4.759 6.103-9.13 8.568-1.598.901-4.168 2.354-3.698 5.987.164 1.27 2.767 2.822 4.035 2.989 1.269.167 2.551-.297 3.63-.989-.95.415-1.577 1.469-1.488 2.501.09 1.033-.505 2.126.1 2.968 1.79 2.497 6.109.699 6.878-.685 2.797-5.035 6.445-8.784 9.822-12.526l-.227 2.815c-.026.32-.048.657.085.949.185.401.627.623 1.061.705 1.123.213 2.275-.324 3.114-1.099.838-.775 1.43-1.772 2.072-2.716a27.009 27.009 0 0 1 3.18-3.85c.244-.244.501-.49.822-.614.434-.169.919-.096 1.382-.066 2.768.184 5.361-1.23 7.773-2.6.75-.425 4.369-1.45 2.402-3.243-4.523-4.126-7.948-4.428-11.818-5.427.993.256 1.999-.481 1.622-1.601-.48-1.424-2.425-.97-3.467-.663-.953.28-1.592.798-2.639.687-1.638-.176-2.916-1.247-4.69-1.223l.001-.002Z" fill="#080435"/><path d="M56.258 109.8s7.829-11.683 8.979-12.593c1.149-.91 6.242 7.221 6.242 7.221s-3.407 8.505-7.61 10.383c-4.205 1.878-7.611-5.011-7.611-5.011Z" fill="#FEC7A4"/><path d="M70.69 105.786s6.082-4.016 5.84-4.863c-.241-.848-6.163 2.261-6.163 2.261l.323 2.602ZM69.854 103.121s8.664-6.161 7.911-7.515c-.752-1.353-9.523 5.979-9.523 5.979l1.612 1.536ZM68.537 100.743s8.093-6.894 7.225-8.176c-.868-1.283-8.965 6.788-8.965 6.788l1.74 1.388Z" fill="#FEC7A4"/><path d="M66.646 98.946s7.674-6.368 6.787-7.627c-.886-1.259-8.527 6.239-8.527 6.239l1.74 1.388Z" fill="#FEC7A4"/><path d="M3 192.999c2.635 22.931 17.262 39 34.945 39h193.938c15.943 0 24.553-18.411 25.117-39H3Z" fill="#6683C2"/><path d="M129.832 95.152s-9.43-13.774-1.683-25.545c7.746-11.771 1.256-21.505 8.375-28.992 0 0-1.885 6.855 2.304 9.944 4.187 3.089 11.725-.848 8.165-12.175C143.434 27.056 150.309 12.11 162.22 3c0 0-8.504 28.451 8.77 34.324 17.273 5.874 8.166 20.549 12.563 24.046s8.667-1.795 6.574-8.423c-2.094-6.628 4.599-15.194 4.599-15.194s-3.133 11.846 4.404 17.43c7.538 5.583 1.674 19.402-2.723 25.055-4.397 5.653 4.172 13.665-1.683 22.222-5.855 8.556-64.891-7.309-64.891-7.309h-.001Z" fill="#F37E60"/><path d="M185.1 125.693c12.83-12.83 12.83-33.632 0-46.462-12.831-12.83-33.632-12.83-46.463 0-12.83 12.83-12.83 33.632 0 46.462 12.831 12.83 33.632 12.83 46.463 0Z" fill="#6683C2"/><path d="M179.714 120.701c10.206-10.207 10.206-26.754 0-36.96-10.206-10.207-26.754-10.207-36.96 0-10.207 10.206-10.207 26.753 0 36.96 10.206 10.206 26.754 10.206 36.96 0Z" fill="#fff"/><path d="M161.191 104.885a2.924 2.924 0 1 0 0-5.85 2.925 2.925 0 1 0 0 5.85Z" fill="#6683C2"/><path d="m160.367 102.275-.472-.345a.58.58 0 0 1 .684-.938l.004.003 10.646-14.555-1.206.423a.58.58 0 1 1-.384-1.095l2.971-1.04a.579.579 0 0 1 .659.89l-12.092 16.531a.581.581 0 0 1-.811.127l.001-.001Z" fill="#6683C2"/><path d="M172.632 88.865a.58.58 0 0 1-.238-.438l-.167-3.122a.58.58 0 0 1 1.161-.062l.166 3.121a.58.58 0 0 1-.922.501ZM150.766 97.595a.577.577 0 0 1-.232-.39l-.341-2.459a.581.581 0 0 1 .917-.55l10.992 8.055a.581.581 0 0 1 .126.811l-.345.473a.58.58 0 1 1-.937-.685l.003-.004-9.418-6.9.152 1.1a.58.58 0 0 1-.917.55v-.001Z" fill="#6683C2"/><path d="M150.418 95.134a.582.582 0 0 1 .195-1.032l2.466-.645a.583.583 0 0 1 .295 1.125l-2.466.645a.582.582 0 0 1-.49-.093Z" fill="#6683C2"/><path d="M154.248 29.354s-3.072 5.34 0 11.816c3.071 6.477-4.885 18.9 5.304 21.133 10.189 2.234 12.842-5.443 9.91-12.424-2.931-6.979-15.075-11.32-15.215-20.526l.001.001ZM137.502 55.605s2.094 3.98.838 7.503c-1.257 3.522-6.282 8.965-4.048 12.037 2.234 3.071 8.375-3.152 9.072-8.207.697-5.056-5.862-11.333-5.862-11.333ZM194.034 58.563s2.234 4.557-1.675 7.22c-3.908 2.661-4.746 9.598-1.674 10.178 3.071.58 10.469-7.596 3.349-17.396v-.002Z" fill="#FFA892"/><path d="M18.165 197.001h63.852v2.015h-32.76c-3.301 0-5.977 2.932-5.977 6.548 0 3.617 2.676 6.549 5.977 6.549h32.76v1.888H18.166c-4.286 0-7.759-3.806-7.759-8.5s3.473-8.5 7.758-8.5Z" fill="#F39D87"/><path d="M40.367 205.501c0-4.694 3.475-8.5 7.759-8.5h33.89v2.015H49.255c-3.301 0-5.977 2.932-5.977 6.548 0 3.617 2.676 6.549 5.977 6.549h32.76v1.888h-33.89c-4.285 0-7.758-3.806-7.758-8.5Z" fill="#F37E60"/><path d="M49.259 199.023h32.76v.046c-2.977.375-5.288 3.143-5.288 6.503 0 3.36 2.312 6.128 5.288 6.503v.045H49.26c-3.301 0-5.978-2.931-5.978-6.548s2.677-6.549 5.978-6.549Z" fill="#fff"/><path d="M43.281 205.501c0-3.616 2.677-6.547 5.978-6.547h32.76v.045c-1.538.193-2.899 1.028-3.855 2.252-6.553-.568-26.095-1.231-28.154 10.798h-.751c-3.301 0-5.978-2.931-5.978-6.548Z" fill="#FFDAD0"/><path d="M193.404 190.615h49.366v1.558h-25.327c-2.553 0-4.622 2.266-4.622 5.063 0 2.796 2.069 5.062 4.622 5.062h25.327v1.46h-49.366c-3.313 0-5.998-2.942-5.998-6.571 0-3.63 2.685-6.572 5.998-6.572Z" fill="#FF9D84"/><path d="M210.57 197.187c0-3.63 2.686-6.572 5.998-6.572h26.201v1.558h-25.327c-2.552 0-4.622 2.266-4.622 5.063 0 2.796 2.07 5.062 4.622 5.062h25.327v1.46h-26.201c-3.313 0-5.998-2.942-5.998-6.571Z" fill="#F37E60"/><path d="M217.449 192.178h25.328v.035c-2.301.29-4.088 2.43-4.088 5.028 0 2.598 1.787 4.738 4.088 5.028v.035h-25.328c-2.552 0-4.621-2.267-4.621-5.063s2.069-5.063 4.621-5.063Z" fill="#fff"/><path d="M212.828 197.186c0-2.795 2.069-5.061 4.621-5.061h25.328v.035c-1.189.149-2.241.794-2.98 1.741-5.066-.44-20.175-.952-21.767 8.348h-.581c-2.552 0-4.621-2.266-4.621-5.063Z" fill="#FFE5DE"/><path d="M197.519 178.001h47.095v1.486h-24.162c-2.434 0-4.409 2.162-4.409 4.829 0 2.668 1.975 4.83 4.409 4.83h24.162v1.393h-47.095c-3.16 0-5.722-2.806-5.722-6.268 0-3.463 2.562-6.269 5.722-6.269v-.001Z" fill="#53AF94"/><path d="M213.891 184.269c0-3.462 2.562-6.268 5.722-6.268h24.996v1.486h-24.162c-2.434 0-4.409 2.162-4.409 4.829 0 2.668 1.975 4.83 4.409 4.83h24.162v1.393h-24.996c-3.16 0-5.722-2.806-5.722-6.268v-.002Z" fill="#7FCBB4"/><path d="M220.456 179.492h24.162v.033c-2.196.277-3.9 2.318-3.9 4.797 0 2.479 1.705 4.519 3.9 4.796v.033h-24.162c-2.435 0-4.409-2.162-4.409-4.829 0-2.668 1.974-4.83 4.409-4.83Z" fill="#fff"/><path d="M216.048 184.269c0-2.666 1.974-4.829 4.409-4.829h24.162v.033c-1.135.142-2.138.758-2.843 1.661-4.833-.42-19.247-.908-20.766 7.965h-.554c-2.435 0-4.409-2.162-4.409-4.83h.001Z" fill="#D9F8EE"/><path d="M265.602 110.552s-4.434 19.339-30.114 31.604l-24.199-15.802s23.115-12.949 26.689-26.145l27.624 10.343Z" fill="#F3F8FF" opacity=".5"/><path d="m117.049 196.934-30.862 22.078 45.225 5.276 18.111-23.36-32.474-3.994Z" fill="#fff"/><path d="m134.484 166.949-2.39-.406-6.558 38.693 2.39.405 6.558-38.692ZM126.035 209.526l-.504-4.284 2.391.404-1.887 3.88Z" fill="#100259"/><path d="m134.559 164.437-1.7-.288-.415 2.453 1.699.288.416-2.453ZM133.773 171.147l-2.39-.405-.088.518 2.39.405.088-.518Z" fill="#4C4BF4"/><path d="M140.811 184.284s-13.875 6.866-15.034 7.99c-1.159 1.124 6.983 7.85 6.983 7.85s12.205-4.829 14.859-9.148c2.654-4.318-6.808-6.692-6.808-6.692Z" fill="#FFA089"/><path d="M134.356 199.456s-5.257 6.061-6.147 5.676c-.891-.386 3.354-6.402 3.354-6.402l2.793.726ZM131.57 198.16s-7.969 8.57-9.338 7.554c-1.369-1.015 7.894-9.534 7.894-9.534l1.444 1.98ZM129.169 196.378s-8.687 7.841-9.963 6.71c-1.274-1.131 8.697-8.808 8.697-8.808l1.266 2.099v-.001Z" fill="#FFA089"/><path d="M127.477 194.059s-8.053 7.459-9.299 6.31c-1.247-1.148 8.034-8.409 8.034-8.409l1.266 2.099h-.001ZM140.812 184.284l5.839-3.87 3.618 7.541-4.835 3.047-4.622-6.718Z" fill="#FFA089"/><path d="M120.883 122.967s15.659-4.603 36.993.974c18.768 4.906 40.462 33.901 41.007 46.141.544 12.239-25.733 19.827-50.795 26.854l-7.278-12.651s26.677-21.615 26.377-25.066c-.301-3.453-34.987-15.691-34.987-15.691l-11.317-20.56v-.001Z" fill="#68CCEA"/><path d="m129.822 216.189.217 2.415 39.087-3.509-.217-2.415-39.087 3.509Z" fill="#F37E60"/><path d="m173.153 213.528-4.014 1.577-.217-2.415 4.231.838ZM127.377 216.761l.154 1.717 2.479-.223-.154-1.716-2.479.222ZM134.064 215.808l.217 2.415.524-.047-.217-2.415-.524.047Z" fill="#33A4C7"/><path d="m140.902 184.415-.175-.261c.068-.045 6.837-4.587 13.495-9.282 3.911-2.757 7.017-5.026 9.234-6.742 3.814-2.955 4.068-3.573 4.055-3.691-.375-1.249-10.053-10.102-13.75-13.407l.208-.233c.546.486 13.364 11.96 13.843 13.553.151.506-1.223 2.182-13.307 10.706-6.695 4.723-13.535 9.313-13.603 9.359v-.002Z" fill="#449AB4"/><path d="M129.957 221.504c-.015-.004-1.596-.474-7.208-1.014-2.628-.253-5.011-.919-7.315-1.563-2.615-.732-5.085-1.422-7.314-1.257-4.137.308-11.901-1.848-11.98-1.869l.085-.302c.078.022 7.789 2.164 11.872 1.86 2.282-.17 4.778.528 7.421 1.267 2.291.64 4.66 1.304 7.26 1.553 5.661.543 7.207 1.007 7.271 1.026l-.092.301v-.002ZM114.899 215.804c-.062-.013-6.121-1.273-8.036-1.119-1.958.155-6.964-.596-7.175-.628l.047-.311c.051.009 5.183.781 7.104.626 1.961-.155 7.875 1.073 8.125 1.124l-.064.308h-.001ZM124.064 217.658c-1.985-.917-6.186-1.477-6.228-1.483l.04-.311c.174.023 4.292.573 6.318 1.509l-.132.285h.002ZM126.814 214.931c-.046-.005-4.665-.5-9.01-1.901-4.171-1.345-11.081-1.718-11.734-1.718v-.314c.064 0 7.278.265 11.831 1.733 4.314 1.391 8.9 1.883 8.946 1.887l-.033.312v.001ZM134.414 212.8c-.075-.014-.441-.027-.906-.046-1.943-.075-6.493-.25-9.429-1.098-3.72-1.076-7.313-1.974-7.621-1.974h-.002l-.018-.313h.011c.416 0 4.342 1.01 7.717 1.985 2.899.838 7.423 1.012 9.355 1.086.591.022.857.033.951.052l-.058.308Z" fill="#100259"/><path d="M127.848 222.453c-.528-.804-12.945-19.71-13.16-20.087l.495-.284c.192.33 8.68 13.265 13.142 20.058l-.477.313Z" fill="#FB4848"/><path d="m98.78 212.546-.012-.57.006.285-.008-.285c.475-.019 39.062-2.707 39.451-2.735l.04.569c-1.598.111-39.16 2.729-39.478 2.736Z" fill="#FB4848"/><path d="M169.797 142.049s4.752 20.72 32.264 33.859l25.926-16.93s-24.765-13.873-28.594-28.011l-29.596 11.081v.001Z" fill="#F3F8FF"/><path d="m174.353 145.229-.126-.287c.036-.015 3.597-1.581 6.092-2.205 1.657-.414 3.292-1.231 5.021-2.096.843-.421 1.715-.858 2.59-1.242 2.588-1.139 7.385-3.017 7.434-3.037l.114.292c-.049.02-4.84 1.895-7.422 3.032-.868.382-1.736.816-2.576 1.236-1.746.872-3.394 1.697-5.084 2.12-2.469.618-6.007 2.173-6.043 2.188v-.001ZM175.056 146.335l-.079-.303c.051-.014 5.121-1.344 7.827-2.426 1.351-.54 3.035-1.315 4.521-1.999 1.753-.807 2.76-1.265 3.046-1.306l.045.31c-.256.036-1.569.641-2.96 1.28-1.49.685-3.179 1.461-4.537 2.005-2.723 1.09-7.813 2.425-7.863 2.439ZM176.417 148.288l-.128-.287c.038-.016 3.728-1.661 6.375-2.44a49.585 49.585 0 0 0 4.535-1.563l.121.289c-.019.008-1.921.797-4.567 1.575-2.626.772-6.298 2.408-6.335 2.424l-.001.002ZM194.731 142.622l-2.051-3.331 4.344-2.006 2.568 2.825-4.862 2.512h.001Zm-1.599-3.195 1.714 2.784 4.239-2.191-2.139-2.353-3.814 1.762v-.002ZM202.286 150.173l-2.052-3.332 4.345-2.006 2.567 2.826-4.861 2.512h.001Zm-1.6-3.195 1.714 2.783 4.24-2.191-2.139-2.352-3.815 1.761v-.001ZM190.147 162.888l-.163-.268c.034-.021 3.363-2.035 5.755-2.978 1.589-.626 3.102-1.649 4.705-2.73a57.554 57.554 0 0 1 2.408-1.569c2.419-1.466 6.93-3.95 6.976-3.975l.151.275c-.046.025-4.551 2.508-6.965 3.97-.811.491-1.616 1.035-2.395 1.561-1.616 1.092-3.144 2.123-4.766 2.761-2.367.934-5.674 2.934-5.706 2.955v-.002ZM190.985 163.894l-.118-.291c.049-.019 4.904-1.997 7.446-3.422 1.269-.71 2.838-1.698 4.224-2.569 1.634-1.028 2.572-1.613 2.851-1.691l.085.302c-.249.069-1.473.838-2.768 1.653-1.388.874-2.962 1.863-4.237 2.578-2.56 1.434-7.432 3.419-7.481 3.439l-.002.001ZM192.586 165.654l-.164-.267c.035-.021 3.48-2.131 6.004-3.247 2.506-1.109 4.274-2.13 4.292-2.14l.158.272c-.018.009-1.802 1.04-4.324 2.154-2.504 1.108-5.933 3.207-5.966 3.228ZM210.007 157.655l-2.468-3.037 4.048-2.552 2.914 2.468-4.493 3.121h-.001Zm-2.001-2.96 2.062 2.537 3.919-2.722-2.426-2.055-3.555 2.241v-.001ZM179.832 154.018l-.121-.29c.043-.018 4.39-1.818 7.502-2.673 3.088-.849 7.538-3.027 7.582-3.049l.14.282c-.045.022-4.521 2.213-7.639 3.07-3.092.85-7.421 2.643-7.464 2.661v-.001ZM181.904 156.193l-.193-.247c.024-.018 2.376-1.839 5.51-2.66 3.091-.808 6.845-2.406 6.883-2.422l.124.29c-.038.016-3.813 1.622-6.926 2.437-3.072.804-5.374 2.584-5.396 2.602h-.002ZM184.079 158.025l-.079-.303c.015-.004 1.519-.408 4.604-1.796 3.105-1.398 6.174-2.621 6.204-2.633l.117.292c-.03.012-3.092 1.234-6.191 2.628-3.115 1.402-4.592 1.797-4.653 1.812h-.002Z" fill="#100259"/><path d="M244.268 203.428h-42.323v1.335h21.714c2.188 0 3.962 1.943 3.962 4.34s-1.774 4.34-3.962 4.34h-21.714v1.251h42.323c2.84 0 5.142-2.521 5.142-5.634 0-3.111-2.302-5.633-5.142-5.633v.001Z" fill="#6AB59F"/><path d="M229.551 209.062c0-3.112-2.303-5.634-5.143-5.634h-22.463v1.335h21.714c2.188 0 3.962 1.943 3.962 4.34s-1.774 4.34-3.962 4.34h-21.714v1.252h22.463c2.84 0 5.143-2.522 5.143-5.634v.001Z" fill="#7FCBB4"/><path d="M223.659 204.767h-21.714v.03c1.972.248 3.505 2.083 3.505 4.31 0 2.228-1.531 4.062-3.505 4.311v.029h21.714c2.188 0 3.962-1.942 3.962-4.34 0-2.397-1.774-4.34-3.962-4.34Z" fill="#fff"/><path d="M227.621 209.062c0-2.398-1.774-4.34-3.962-4.34h-21.714v.029c1.021.129 1.921.681 2.556 1.493 4.343-.378 17.295-.816 18.66 7.156h.498c2.188 0 3.962-1.942 3.962-4.339v.001Z" fill="#D9F8EE"/><path d="m179.376 186.858-14.392 5.011.104.297 14.391-5.011-.103-.297Z" fill="#449AB4"/></g><defs><clipPath id="a"><path fill="#fff" d="M0 0h260v235H0z"/></clipPath></defs></svg>