<svg width="353" height="185" viewBox="0 0 353 185" fill="none" xmlns="http://www.w3.org/2000/svg">
<g clip-path="url(#clip0_3001_3629)">
<path d="M-167.508 199.431H-92.4815C-92.3353 199.262 -92.186 199.093 -92.0398 198.924C-91.9403 198.812 -91.8408 198.7 -91.7413 198.588C-91.6977 198.869 -91.6479 199.15 -91.5857 199.431H-47.4489C-27.3369 185.023 -7.61988 170.972 12.7845 156.861C-0.416144 170.524 -12.9449 184.717 -24.5779 199.431H32.0691C38.0069 195.227 43.8265 191.192 49.2511 187.501C48.5699 187.918 53.2915 184.908 49.3226 187.457C51.2479 186.309 73.1671 170.903 109.366 149.571C91.0955 164.846 72.8529 181.116 53.8514 199.434H112.918C135.92 183.016 158.806 167.34 189.027 148.109C193.643 145.17 198.274 142.251 202.921 139.345C196.561 145.258 190.281 151.242 184.103 157.308C170.172 170.988 156.732 185.044 143.767 199.434H204.477C214.393 192.547 222.592 186.896 232.271 180.325C257.385 163.314 283.519 146.351 309.164 130.724C295.932 141.831 282.962 153.18 270.302 164.797C257.973 176.111 245.932 187.664 234.172 199.434H301.895C310.691 193.763 319.522 188.128 328.408 182.566C327.519 183.447 326.629 184.327 325.743 185.211C321.065 189.894 316.474 194.638 311.951 199.431H386.573C390.769 196.732 394.974 194.044 399.201 191.386C399.74 191.048 400.278 190.712 400.816 190.377C400.004 191.146 399.18 191.906 398.368 192.681C396.029 194.913 393.715 197.168 391.416 199.431H567.892C568.461 198.125 569.015 196.814 569.544 195.489C571.995 189.333 568.377 181.991 562.835 178.24C560.433 176.612 557.923 175.644 555.351 175.211C559.715 172.1 564.11 169.022 568.548 165.993C574.766 161.749 575.556 151.651 571.475 146.106C567.211 140.31 558.29 136.048 550.331 138.565C529.562 145.13 509.127 152.52 489.124 160.707C496.813 154.631 504.567 148.625 512.365 142.671C524.511 133.393 536.763 124.219 549.018 115.051C555.04 110.545 556.166 100.902 551.945 95.1631C550.2 92.7912 547.936 90.8065 545.226 89.2744C541.709 87.287 534.794 86.1665 530.8 87.6196C508.371 95.7847 486.701 105.136 465.628 115.394C466.327 114.928 467.027 114.459 467.73 113.996C471.351 111.613 474.996 109.258 478.663 106.932C486.523 101.946 494.492 97.0933 502.558 92.3632C510.682 87.595 514.984 77.6742 509.276 69.9099C503.587 62.1756 494.785 59.741 483.659 64.0212C478.573 65.9787 473.522 67.9879 468.502 70.0517C461.836 72.7916 456.415 64.7083 462.377 60.9242C467.13 57.909 472.094 54.8038 477.307 51.5923C495.883 40.1448 483.677 17.6806 462.881 21.5982C422.371 29.2263 377.525 52.6937 340.374 73.2605C380.399 45.4883 385.22 46.6142 387.97 37.8603C389.205 33.9317 388.648 28.7001 386.082 25.216C383.503 21.7127 379.668 18.6266 374.893 17.6752C369.674 16.6338 365.326 17.4516 360.467 19.33C344.782 25.3877 329.394 31.9852 314.262 39.0053C312.029 30.2404 300.365 23.2558 291.139 26.6636C289.649 27.2143 288.163 27.7732 286.673 28.3293L286.666 28.3184C284.673 29.4662 252.231 40.4502 204.48 62.0774C196.094 65.8751 188.536 55.9325 195.774 50.6218C198.001 48.9888 200.228 47.353 202.458 45.7173C209.596 40.4802 209.173 30.1259 203.923 24.1691C198.066 17.5252 188.172 16.1485 179.771 19.9434C154.589 31.3173 130.206 43.8689 106.439 57.2683C98.8032 61.5731 90.5419 52.6446 96.9245 46.9877C97.1142 46.8187 97.3071 46.6496 97.4968 46.4806C104.082 40.6465 104.626 31.3582 98.9618 24.9324C93.5155 18.7548 82.685 16.2248 74.8094 20.7068C53.2573 32.9639 32.3646 46.1289 12.2402 60.1445C9.3879 62.1292 5.69272 58.8332 8.01309 56.3714C14.8467 49.1169 22.2277 41.5543 29.8731 34.0299C46.1562 18.0078 23.2479 -3.31141 3.39412 10.8214C-9.66343 20.1179 -22.3011 29.8642 -34.4908 40.0194C-38.2669 43.1655 -44.4846 40.761 -44.4348 36.1945C-44.4348 36.1155 -44.4348 36.0364 -44.4348 35.9546C-44.4348 20.1097 -67.9154 14.7608 -76.3975 24.349C-120.774 74.5173 -152.177 125.457 -175.166 181.386C-177.804 187.803 -173.897 195.562 -167.508 199.428V199.431Z" fill="white" fill-opacity="0.11"/>
</g>
<defs>
<clipPath id="clip0_3001_3629">
<rect width="353" height="185" fill="white"/>
</clipPath>
</defs>
</svg>
