<svg width="353" height="183" viewBox="0 0 353 183" fill="none" xmlns="http://www.w3.org/2000/svg">
<g clip-path="url(#clip0_3001_3609)">
<path d="M-169.006 190.997H-98.3813C-98.2437 190.814 -98.1031 190.631 -97.9655 190.449C-97.8718 190.328 -97.7781 190.207 -97.6844 190.086C-97.6434 190.39 -97.5966 190.693 -97.538 190.997H-55.9905C-37.0584 175.413 -18.4982 160.216 0.70912 144.953C-11.7171 159.732 -23.5108 175.083 -34.4614 190.997H18.8624C24.4518 186.45 29.93 182.086 35.0363 178.094C34.3951 178.545 38.8397 175.289 35.1037 178.046C36.9161 176.805 57.5493 160.142 91.6247 137.069C74.4259 153.59 57.2536 171.188 39.3667 191H94.9684C116.621 173.243 138.164 156.288 166.612 135.488C170.957 132.309 175.317 129.151 179.691 126.008C173.704 132.404 167.792 138.876 161.977 145.437C148.863 160.233 136.211 175.437 124.008 191H181.155C190.49 183.552 198.208 177.439 207.319 170.333C230.96 151.933 255.56 133.586 279.701 116.684C267.246 128.697 255.036 140.973 243.119 153.537C231.513 165.774 220.179 178.271 209.108 191H272.859C281.139 184.867 289.451 178.772 297.816 172.756C296.979 173.709 296.142 174.661 295.307 175.617C290.903 180.683 286.582 185.813 282.325 190.997H352.569C356.519 188.078 360.477 185.17 364.456 182.295C364.963 181.93 365.469 181.567 365.976 181.204C365.212 182.036 364.436 182.859 363.672 183.696C361.47 186.111 359.291 188.55 357.128 190.997H523.25C523.786 189.585 524.307 188.166 524.805 186.733C527.112 180.075 523.707 172.134 518.49 168.077C516.229 166.317 513.866 165.27 511.445 164.801C515.553 161.436 519.69 158.107 523.868 154.831C529.721 150.24 530.465 139.318 526.623 133.321C522.609 127.052 514.212 122.443 506.719 125.165C487.169 132.265 467.933 140.259 449.103 149.114C456.341 142.541 463.64 136.045 470.981 129.605C482.414 119.571 493.948 109.649 505.484 99.7324C511.152 94.8582 512.212 84.4287 508.239 78.2217C506.596 75.6563 504.465 73.5097 501.914 71.8525C498.603 69.703 492.094 68.4911 488.335 70.0627C467.221 78.894 446.822 89.008 426.985 100.104C427.644 99.5997 428.303 99.0925 428.965 98.5912C432.373 96.0141 435.804 93.4664 439.256 90.9512C446.655 85.558 454.157 80.3094 461.749 75.1934C469.397 70.0362 473.446 59.3059 468.073 50.908C462.718 42.5426 454.432 39.9095 443.959 44.5389C439.172 46.6561 434.417 48.8292 429.691 51.0614C423.416 54.0248 418.313 45.282 423.926 41.1892C428.4 37.9279 433.073 34.5694 437.98 31.0958C455.466 18.7143 443.976 -5.58283 424.4 -1.34557C386.267 6.90484 344.051 32.2871 309.08 54.532C346.757 24.4937 351.295 25.7115 353.884 16.2433C355.046 11.9943 354.522 6.33575 352.106 2.56733C349.679 -1.22173 346.069 -4.55964 341.574 -5.58873C336.661 -6.71512 332.568 -5.83052 327.995 -3.79888C313.229 2.7531 298.744 9.88891 284.5 17.4818C282.398 8.00175 271.418 0.447226 262.734 4.13308C261.331 4.72871 259.932 5.3332 258.529 5.93473L258.523 5.92293C256.647 7.16433 226.108 19.0446 181.158 42.4365C173.265 46.544 166.15 35.7902 172.963 30.0461C175.059 28.2799 177.156 26.5106 179.255 24.7414C185.975 19.077 185.577 7.87791 180.634 1.43504C175.121 -5.7509 165.807 -7.23999 157.899 -3.13542C134.194 9.16648 111.242 22.7422 88.8695 37.235C81.6814 41.891 73.9048 32.234 79.9129 26.1155C80.0915 25.9327 80.273 25.7499 80.4517 25.5671C86.6501 19.2569 87.1625 9.21072 81.8307 2.26067C76.7039 -4.42105 66.5088 -7.15742 59.0952 -2.30979C38.8075 10.9475 19.1405 25.1867 0.19673 40.3459C-2.48819 42.4925 -5.9666 38.9276 -3.78235 36.2649C2.65034 28.4184 9.59836 20.2388 16.7952 12.1004C32.123 -5.22899 10.5587 -28.2877 -8.13034 -13.0017C-20.4218 -2.94671 -32.3181 7.59484 -43.7927 18.5787C-47.3472 21.9815 -53.2002 19.3807 -53.1533 14.4417C-53.1533 14.3562 -53.1533 14.2707 -53.1533 14.1822C-53.1533 -2.95555 -75.2564 -8.74087 -83.2409 1.62965C-125.014 55.8913 -154.574 110.987 -176.215 171.48C-178.698 178.421 -175.02 186.813 -169.006 190.994V190.997Z" fill="#6683C2" fill-opacity="0.06"/>
</g>
<defs>
<clipPath id="clip0_3001_3609">
<rect width="353" height="183" fill="white"/>
</clipPath>
</defs>
</svg>
