<svg width="673" height="428" viewBox="0 0 673 428" fill="none" xmlns="http://www.w3.org/2000/svg">
<path d="M672.018 197.727C672.018 256.813 625.53 304.714 568.171 304.714C510.826 304.714 464.336 256.815 464.336 197.727C464.336 138.639 510.824 90.7383 568.171 90.7383C625.53 90.7383 672.018 138.639 672.018 197.727Z" fill="#F2C45B"/>
<path d="M515.187 44.6835C515.187 69.3606 495.182 89.3662 470.501 89.3662C445.825 89.3662 425.82 69.3614 425.82 44.6835C425.82 20.0056 445.824 0 470.501 0C495.182 0 515.187 20.0056 515.187 44.6835Z" fill="#68CCEA"/>
<path d="M410.329 223.589C410.329 336.207 318.472 427.493 205.161 427.493C91.8603 427.493 0 336.207 0 223.589C0 110.973 91.8603 19.6807 205.161 19.6807C318.474 19.683 410.329 110.976 410.329 223.589Z" fill="#7FCBB4"/>
</svg>
