<svg width="389" height="253" fill="none" xmlns="http://www.w3.org/2000/svg"><path d="M231.044 136.157c0 64.037-51.638 115.945-115.336 115.945C52.016 252.102.377 200.194.377 136.157c0-64.037 51.64-115.949 115.331-115.949 63.699.002 115.336 51.913 115.336 115.949Z" fill="#7FCBB4"/><path d="M388.377 75.837c0 41.825-34.024 75.733-76.005 75.733-41.969 0-75.995-33.907-75.995-75.733 0-41.827 34.024-75.735 75.995-75.735 41.981 0 76.005 33.908 76.005 75.735Z" fill="#68CCEA"/><path d="M270.672 243.385c21.477 0 38.888-17.751 38.888-39.648 0-21.897-17.411-39.648-38.888-39.648-21.477 0-38.888 17.751-38.888 39.648 0 21.897 17.411 39.648 38.888 39.648Z" fill="#F2C45B"/></svg>