<svg width="189" height="157" fill="none" xmlns="http://www.w3.org/2000/svg"><g clip-path="url(#a)"><path d="M96.33 68.397c-1.075-6.717-3.761-13.164-8.15-18.716-14.059-17.552-44.147-22.656-62.146-8.507C6.78 56.397-6.92 91.679 15.914 107.977a49.41 49.41 0 0 0 8.598 4.746c-.806 3.851-2.687 10.298-6.358 12.716 0 0 13.7 1.075 18.805-9.044 20.327 3.761 44.326-1.254 53.729-18 5.194-9.313 7.254-19.969 5.642-29.998Z" fill="#6683C2"/><path d="M53.347 103.41c-8.955-1.164-17.552-4.835-22.925-12.447-5.462-7.701-7.522-17.552-6.895-26.954.537-8.865 3.134-17.91 9.761-24.178 2.507-2.329 5.283-4.21 8.239-5.821-5.642 1.254-11.015 3.582-15.582 7.164-19.163 15.223-32.864 50.505-10.03 66.803a49.411 49.411 0 0 0 8.597 4.746c-.806 3.851-2.686 10.298-6.358 12.716 0 0 13.701 1.075 18.805-9.044 20.328 3.761 44.327-1.254 53.73-18 .895-1.7 1.79-3.402 2.507-5.104-10.835 8.776-26.148 11.821-39.85 10.119Z" fill="#506FB2"/><path d="M90.088 77.446c-.06 1.018-.522 1.527-1.387 1.527-.839 0-1.258-.432-1.258-1.297l-.05-1.008c-1.497.24-2.568 1.008-3.213 2.305l.01 5.02c0 .38-.13.692-.39.938-.259.253-.588.38-.987.38-.413 0-.732-.134-.959-.4-.212-.24-.319-.546-.319-.918v-6.537c0-.206.007-.512.02-.918.013-.412.02-.722.02-.928 0-.373.11-.682.33-.928.226-.253.545-.38.957-.38.739 0 1.178.38 1.318 1.138 1.177-.878 2.485-1.317 3.922-1.317 1.33 0 1.996.885 1.996 2.655 0 .339-.004.562-.01.668ZM79.829 78.873c0 .446.003 1.118.01 2.016.007.898.01 1.57.01 2.016 0 .14.01.35.03.629.026.273.04.479.04.619 0 .372-.137.678-.41.918a1.4 1.4 0 0 1-.987.369c-.553 0-.955-.25-1.208-.748a7.614 7.614 0 0 1-2.645.469c-.944 0-1.74-.2-2.385-.6-.725-.458-1.157-1.127-1.297-2.005-.26-1.663-.39-3.15-.39-4.461 0-.865.1-1.853.3-2.964.133-.752.582-1.128 1.347-1.128.386 0 .716.123.988.37.273.239.41.545.41.918 0 .292-.05.751-.15 1.377-.093.625-.14 1.1-.14 1.427 0 .938.03 1.76.09 2.465.066.698.163 1.277.29 1.736.166.074.325.13.478.17.16.04.313.06.46.06.738 0 1.55-.106 2.434-.32 0-.512-.003-1.094-.01-1.746a111.4 111.4 0 0 1-.02-1.676c0-1.364.064-2.542.19-3.533.1-.792.552-1.188 1.357-1.188.393 0 .729.123 1.008.37.28.245.41.555.39.927-.127 2.535-.19 3.706-.19 3.513ZM64.439 85.23c-1.231 0-2.29-.422-3.174-1.267-.971-.925-1.48-2.159-1.527-3.703-.047-1.47.356-2.78 1.208-3.932 1.01-1.357 2.418-2.035 4.221-2.035 1.33 0 2.388.532 3.174 1.596.705.958 1.057 2.146 1.057 3.563 0 1.544-.412 2.861-1.237 3.952-.925 1.218-2.166 1.826-3.722 1.826Zm.598-8.303c-.818-.006-1.463.366-1.936 1.118-.399.632-.599 1.37-.599 2.215 0 .799.227 1.411.679 1.837.36.34.779.509 1.258.509a2.15 2.15 0 0 0 1.506-.59c.486-.458.746-1.08.779-1.865.086-2.143-.476-3.217-1.687-3.224ZM55.724 72.696c-.426 0-.795-.143-1.108-.43a1.39 1.39 0 0 1-.46-1.057c0-.42.154-.772.46-1.058.313-.293.682-.44 1.108-.44.426 0 .795.147 1.108.44.312.286.469.639.469 1.058 0 .419-.157.772-.47 1.058-.312.286-.681.429-1.107.429Zm-.48 13.812c0-.699-.112-2.542-.339-5.529-.226-2.987-.339-4.76-.339-5.32 0-.398.116-.758.35-1.077.272-.36.625-.539 1.057-.539.306 0 .612.103.918.31.333.226.506.485.52.778.08 1.27.189 3.117.329 5.539.18 3.227.27 5.206.27 5.938 0 .964-.304 1.85-.909 2.654-.672.892-1.507 1.338-2.505 1.338-1.61 0-2.93-1.138-3.962-3.413-.1-.22-.15-.426-.15-.62 0-.365.147-.681.44-.947a1.47 1.47 0 0 1 .987-.37c.426 0 .802.23 1.128.69l.729 1.287c.266.459.542.688.828.688.346 0 .562-.469.649-1.407ZM49.25 85.35c-.818 0-1.274-.402-1.367-1.207l-.28-2.066c-.1-.732-.15-1.42-.15-2.066 0-.173.01-.469.03-.888.028-.42.04-.715.04-.888 0-.047.007-.163.02-.35.014-.193.02-.349.02-.469 0-.552-.142-.828-.428-.828-.612 0-1.215.36-1.807 1.078-.585.712-1.044 1.617-1.377 2.714-.013.22-.043.513-.09.879-.04.299-.06.592-.06.878 0 .186.02.469.06.848.047.373.07.652.07.838 0 .38-.133.692-.4.938-.259.253-.588.38-.987.38-.4 0-.729-.127-.988-.38a1.237 1.237 0 0 1-.39-.938c0-.186-.02-.465-.06-.838-.04-.38-.06-.662-.06-.848 0-.639.047-1.527.14-2.665.094-1.138.14-2.026.14-2.664 0-.2-.013-.496-.04-.889-.02-.399-.03-.695-.03-.888 0-.373.133-.678.4-.918.272-.246.605-.37.998-.37.871 0 1.337.523 1.397 1.568l.01.11c.971-.979 1.996-1.468 3.074-1.468 1.257 0 2.125.526 2.604 1.577.32.705.48 1.76.48 3.164v.708c-.007.306-.01.522-.01.649 0 .519.07 1.188.209 2.006.146.818.22 1.484.22 1.996 0 .372-.134.682-.4.928a1.4 1.4 0 0 1-.988.37ZM34.735 85.23c-1.23 0-2.288-.422-3.173-1.267-.972-.925-1.48-2.159-1.527-3.703-.047-1.47.356-2.78 1.207-3.932 1.012-1.357 2.419-2.035 4.222-2.035 1.33 0 2.388.532 3.174 1.596.705.958 1.057 2.146 1.057 3.563 0 1.544-.412 2.861-1.237 3.952-.925 1.218-2.166 1.826-3.723 1.826Zm.6-8.303c-.82-.006-1.465.366-1.937 1.118-.4.632-.599 1.37-.599 2.215 0 .799.227 1.41.679 1.837.36.34.778.509 1.257.509a2.15 2.15 0 0 0 1.507-.59c.486-.458.745-1.08.779-1.865.086-2.143-.476-3.217-1.687-3.224ZM25.538 84.252c-1.55.58-3.51.869-5.878.869-.4 0-.759-.167-1.078-.5-.313-.332-.47-.688-.47-1.067V72.975c-.02-.452-.036-.905-.05-1.357a7.036 7.036 0 0 1 .05-1.297c.094-.626.676-1.005 1.747-1.138.506-.146 1.344-.22 2.515-.22 1.258 0 2.462.406 3.613 1.218 1.35.945 2.026 2.126 2.026 3.543 0 .765-.14 1.41-.42 1.936-.219.426-.602.881-1.147 1.367.645.313 1.217.785 1.716 1.417.566.706.849 1.407.849 2.106 0 .885-.483 1.723-1.447 2.515a7.277 7.277 0 0 1-2.026 1.188Zm-3.164-12.584c-.858 0-1.374.007-1.547.02l.01 2.116-.01 2.095c.606.073 1.061.097 1.367.07 2.036-.16 3.054-.908 3.054-2.245 0-.473-.3-.928-.898-1.368-.619-.459-1.277-.688-1.976-.688Zm1.168 7.056c-.606 0-1.51-.024-2.715-.07v3.732c1.145-.06 2.385-.28 3.723-.658 1.17-.333 1.75-.692 1.736-1.078-.02-.513-.396-.968-1.128-1.368-.572-.319-1.11-.505-1.616-.558Z" fill="#fff"/><g clip-path="url(#b)"><path d="m105.03 69.44 76.907 17.836c5.233.79 8.9 5.67 8.096 11l-11.849 37.32a9.647 9.647 0 0 1-10.981 8.12l-3.752-.307s-3.434 7.875.22 12.839c0 0-12.286-4.969-12.997-13.988l-49.755-4.394c-5.233-.79-8.887-5.754-8.095-10.999l1.212-49.223c.805-5.33 5.76-8.994 10.994-8.205Z" fill="#F37E60"/><path d="M127.871 95.007c-2.295-.76-4.572-1.636-6.84-2.57l1.722-4.117c6.017 2.505 12.042 4.361 18.484 5.629l.55-3.643 4.449.671-.567 3.76c4.682.706 9.612 1.154 14.938 1.337l-.14 4.474c-5.443-.201-10.493-.637-15.291-1.362-4.45-.671-8.685-1.577-12.819-2.762.158 4.075 1.348 11.559 6.999 18.859 7.028-3.996 9.737-10.123 9.91-10.481l4.143 1.719c-.187.445-3.226 7.38-11.029 12.176 2.556 2.574 5.754 5.038 9.735 7.236l-2.166 3.902c-4.917-2.694-8.73-5.812-11.693-9.04-3.074 1.252-6.69 2.155-10.942 2.341l-.218-4.469c3.083-.126 5.786-.694 8.142-1.521-6.479-8.904-7.359-18.056-7.367-22.139Z" fill="#fff"/><path d="M94.485 75.808c-.311 2.636-.441 5.212-.584 7.873-.213 5.418-.173 10.876-.05 16.345.13 4.865.39 10.009 1.933 14.655 2.519 7.908 10.045 11.812 17.463 14.143 7.84 2.395 15.923 3.182 23.865 4.9 4.351.916 8.774 1.93 13.273 2.436 3.824.404 8.18.715 11.85-.721 7.074-2.826 9.602-12.135 11.467-18.776 2.175-7.545 5.636-17.32 1.314-24.72-1.988-3.415-4.992-5.253-8.43-7.07-1.118-.601-2.573-1.254-4.016-1.99l19.184 4.452c5.415.731 9.082 5.61 8.278 10.94l-11.849 37.321a9.647 9.647 0 0 1-10.981 8.12l-3.752-.307s-3.433 7.875.22 12.839c0 0-12.286-4.969-12.997-13.988l-49.755-4.394c-5.233-.79-8.887-5.754-8.095-10.999l1.213-49.223c.102-.677.275-1.256.45-1.836Z" fill="#E56A4A"/></g><g clip-path="url(#c)"><path d="M170.995 25.65c0-6.156-4.917-11.133-10.999-11.133-1.419 0-2.737.257-3.953.77C154.877 8.874 149.302 4 142.662 4c-5.828 0-10.795 3.745-12.721 8.978-.963-.667-2.129-1.077-3.346-1.077-3.193 0-5.828 2.616-5.828 5.9 0 .359.051.718.101 1.026a7.733 7.733 0 0 0-3.852-1.026c-4.308 0-7.805 3.54-7.805 7.9 0 3.49 2.23 6.465 5.372 7.491-1.723 2.001-2.787 4.566-2.787 7.388 0 6.208 4.967 11.184 11.049 11.184 1.622 0 3.142-.359 4.511-.974.456 5.746 5.169 10.312 10.998 10.312 5.018 0 9.275-3.386 10.593-8.055a10.926 10.926 0 0 0 7.349 2.822c6.082 0 10.999-4.977 10.999-11.133 0-3.386-1.521-6.413-3.852-8.466 4.358-1.487 7.552-5.694 7.552-10.62Z" fill="#68CCEA"/><path d="M170.998 25.65c0-5.233-3.548-9.645-8.363-10.825 2.383 2.258 4.106 5.592 4.207 8.876.102 3.283-.963 7.183-3.649 9.235-1.166.872-3.548 2-5.018 1.847 2.129 2.77 2.889 6.207-.202 8.978-3.447 3.13-7.603 2.77-10.34-.565.051 2.822-.862 6.465-3.294 8.055-2.028 1.283-4.866 2.001-7.248 1.745-4.815-.616-7.603-4.156-8.059-8.876 0 .257-1.52 1.231-1.774 1.437-.608.41-1.216.77-1.926 1.026-4.612 1.693-10.491-2.206-9.985-7.286.153-1.693.761-3.847 1.572-5.335.354-.667 1.47-2.309 2.382-2.258-6.082-.41-7.501-10.774-.71-13.8a8.282 8.282 0 0 0-1.622-.154c-4.308 0-7.805 3.54-7.805 7.9 0 3.49 2.23 6.465 5.373 7.49-1.724 2.002-2.788 4.567-2.788 7.389 0 6.207 4.967 11.184 11.049 11.184 1.622 0 3.142-.36 4.511-.975.456 5.746 5.17 10.312 10.998 10.312 5.018 0 9.275-3.386 10.593-8.054a10.926 10.926 0 0 0 7.349 2.821c6.082 0 10.999-4.976 10.999-11.133 0-3.386-1.521-6.413-3.852-8.465 4.409-1.436 7.602-5.643 7.602-10.569Z" fill="#5EBCD8"/><path d="M122.289 58.383c-1.064 1.282-3.244 1.18-4.916-.206-1.673-1.385-2.129-3.54-1.115-4.822 1.064-1.283 3.244-1.18 4.916.205 1.673 1.385 2.18 3.54 1.115 4.823ZM116.562 61.204c-.81.975-2.483.924-3.699-.154-1.268-1.077-1.622-2.719-.811-3.694.811-.974 2.483-.923 3.7.154 1.267 1.078 1.621 2.72.81 3.694ZM111.494 62.487c-.557.667-1.723.616-2.635-.103-.862-.77-1.166-1.898-.608-2.616.557-.667 1.723-.616 2.635.102.912.77 1.166 1.95.608 2.617Z" fill="#68CCEA"/><path d="M138.61 21.29c0-3.95 3.143-7.132 7.045-7.132 1.572 0 2.991.513 4.156 1.386a6.981 6.981 0 0 0-5.727-2.976c-3.903 0-7.045 3.18-7.045 7.131 0 2.36 1.166 4.464 2.94 5.797a7.066 7.066 0 0 1-1.369-4.206ZM126.651 38.323c2.889-.565 5.727 1.385 6.284 4.31a5.716 5.716 0 0 1-.405 3.334c1.115-1.231 1.723-2.976 1.368-4.72-.557-2.924-3.345-4.874-6.284-4.31-1.774.36-3.143 1.488-3.852 3.027a4.862 4.862 0 0 1 2.889-1.641Z" fill="#5EBCD8"/><path d="M159.3 37.342c-.136 0-.352-.149-.648-.447-.272.131-.512.23-.719.295a1.73 1.73 0 0 1-.528.103c-.713 0-1.249-.192-1.607-.576-.355-.385-.532-.96-.532-1.726 0-.718.263-1.332.79-1.842a2.615 2.615 0 0 1 1.891-.769c.281 0 .606.08.976.241.447.194.67.42.67.675a.423.423 0 0 1-.102.282c-.029.12-.053.27-.071.452a7.686 7.686 0 0 0-.022.63c0 .57.04.98.12 1.23.009.026.077.181.204.464.115.257.173.403.173.438 0 .158-.061.29-.182.394a.605.605 0 0 1-.413.156Zm-1.1-3.066a3.7 3.7 0 0 1 .079-.743.791.791 0 0 0-.275-.084c-.402 0-.754.159-1.056.478a1.543 1.543 0 0 0-.453 1.1c0 .399.071.7.213.903.142.2.355.3.639.3.184 0 .357-.03.52-.09.165-.063.321-.154.466-.273-.089-.71-.133-1.24-.133-1.591ZM154.488 34.95c0 .17.004.443.013.819.012.375.018.648.018.818a.578.578 0 0 1-.173.429.61.61 0 0 1-.439.165.612.612 0 0 1-.44-.165.578.578 0 0 1-.173-.43c0-.17-.006-.442-.018-.817a37.547 37.547 0 0 1-.013-.818c0-.266.015-.598.044-.997.03-.4.045-.732.045-.997a.56.56 0 0 1 .173-.425.6.6 0 0 1 .439-.17c.178 0 .324.057.44.17.115.11.173.252.173.425 0 .265-.015.597-.045.997-.029.399-.044.731-.044.997Zm.528-4.443c-.157.107-.35.289-.581.545-.243.268-.435.455-.577.56a.625.625 0 0 1-.79-.023.456.456 0 0 1-.173-.354c0-.11.062-.23.186-.362.109-.1.217-.202.324-.304.317-.348.503-.548.559-.599.27-.244.508-.366.715-.366.157 0 .291.052.404.156a.469.469 0 0 1 .173.353c0 .152-.08.284-.24.394ZM150.828 32.554c.039-1.016.084-1.718.138-2.105.05-.352.242-.528.577-.528a.55.55 0 0 1 .421.17c.107.113.16.252.16.416 0 .432-.034 1.076-.102 1.931-.065.855-.098 1.5-.098 1.931 0 1.056.034 1.762.103 2.12.008.047.013.09.013.13 0 .163-.059.299-.178.406a.604.604 0 0 1-.412.156.523.523 0 0 1-.489-.295c-.201.122-.41.213-.626.273a2.393 2.393 0 0 1-.67.094c-.663 0-1.213-.213-1.651-.64-.447-.434-.67-.989-.67-1.662 0-.802.225-1.449.674-1.94.45-.495 1.038-.743 1.763-.743.222 0 .42.024.594.072.175.047.326.119.453.214Zm-.089 1.409a1.013 1.013 0 0 0-.381-.42 1.085 1.085 0 0 0-.56-.14c-.438 0-.766.129-.985.385-.219.254-.329.635-.329 1.145 0 .322.119.597.356.827.236.23.512.344.825.344.228 0 .401-.027.519-.08.08-.036.217-.132.409-.287.05-.041.099-.087.146-.138a64.25 64.25 0 0 1 0-1.636ZM142.375 37.365c-.364 0-.567-.18-.608-.541l-.124-.926a6.818 6.818 0 0 1-.067-.925c0-.078.005-.21.014-.398.011-.188.017-.32.017-.398 0-.02.003-.073.009-.156.006-.087.009-.157.009-.21 0-.248-.064-.371-.191-.371-.272 0-.54.16-.803.482-.261.32-.465.725-.613 1.216-.006.099-.019.23-.04.394a3.132 3.132 0 0 0-.026.393c0 .084.009.21.026.38.021.167.031.292.031.376a.55.55 0 0 1-.177.42.603.603 0 0 1-.44.17.6.6 0 0 1-.439-.17.557.557 0 0 1-.173-.42c0-.084-.009-.209-.027-.376a3.895 3.895 0 0 1-.026-.38c0-.286.02-.684.062-1.194.041-.51.062-.907.062-1.193 0-.09-.006-.222-.018-.398a8.57 8.57 0 0 1-.013-.398c0-.167.059-.304.177-.411a.638.638 0 0 1 .444-.166c.388 0 .595.234.622.702l.004.05c.432-.439.888-.658 1.367-.658.559 0 .946.236 1.159.707.142.316.213.788.213 1.417v.317l-.005.29c0 .233.031.533.093.9.066.366.098.664.098.893a.545.545 0 0 1-.177.416.622.622 0 0 1-.44.166ZM136.028 37.253c-.707 0-1.286-.17-1.735-.51-.498-.375-.746-.904-.746-1.587 0-.754.197-1.392.59-1.913.438-.578 1.029-.867 1.771-.867.515 0 .943.083 1.283.25.447.22.67.563.67 1.028 0 .328-.182.619-.546.872-.165.116-.498.286-.998.51l-1.496.666c.142.155.313.27.515.348.201.078.432.117.692.117.397 0 .732-.082 1.008-.246.245-.146.442-.22.59-.22.308 0 .462.151.462.452 0 .34-.247.617-.742.832a3.287 3.287 0 0 1-1.318.268Zm-.12-3.796a.992.992 0 0 0-.706.278c-.195.184-.352.462-.47.831l.999-.434c.399-.181.717-.35.954-.505-.198-.113-.457-.17-.777-.17ZM132.95 34.463c0 .2.001.501.004.903.003.403.004.704.004.903 0 .063.005.157.014.282.012.122.017.215.017.277 0 .167-.06.304-.182.411a.618.618 0 0 1-.439.166.562.562 0 0 1-.537-.335c-.379.14-.771.21-1.176.21-.42 0-.774-.09-1.061-.269a1.244 1.244 0 0 1-.577-.898 13.123 13.123 0 0 1-.173-1.998c0-.388.044-.83.133-1.328.059-.337.259-.505.599-.505.172 0 .318.055.44.165a.526.526 0 0 1 .182.411c0 .132-.023.337-.067.617-.041.28-.062.493-.062.64 0 .42.013.788.04 1.104.029.313.072.572.128.778.074.032.145.058.214.076a.839.839 0 0 0 .204.026c.328 0 .689-.047 1.083-.143 0-.23-.002-.49-.005-.782-.006-.349-.009-.599-.009-.751 0-.611.029-1.139.085-1.583.044-.354.245-.532.603-.532.175 0 .324.056.449.166.124.11.182.249.173.416-.056 1.135-.084 1.66-.084 1.573ZM126.797 36.873c-.69.26-1.561.389-2.614.389a.649.649 0 0 1-.48-.224.691.691 0 0 1-.208-.478v-4.739a41.215 41.215 0 0 1-.023-.608 3.22 3.22 0 0 1 .023-.581c.041-.28.3-.45.776-.51.225-.065.598-.098 1.119-.098.559 0 1.095.182 1.607.545.6.424.901.953.901 1.588 0 .342-.062.631-.187.867-.097.19-.267.395-.51.612.287.14.541.352.763.635.252.316.378.63.378.943 0 .397-.215.772-.644 1.127a3.224 3.224 0 0 1-.901.532Zm-1.407-5.637c-.382 0-.611.002-.688.008l.004.948-.004.94c.269.032.472.042.608.03.905-.071 1.358-.407 1.358-1.005 0-.212-.133-.416-.399-.613a1.442 1.442 0 0 0-.879-.309Zm.519 3.16c-.269 0-.672-.01-1.207-.031v1.672a7.509 7.509 0 0 0 1.656-.295c.52-.15.778-.31.772-.483-.009-.23-.176-.434-.502-.612a1.887 1.887 0 0 0-.719-.25Z" fill="#fff"/></g></g><defs><clipPath id="a"><path fill="#fff" d="M0 0h189v157H0z"/></clipPath><clipPath id="b"><path fill="#fff" transform="scale(-1 1) rotate(-8.582 454.37 1323.328)" d="M0 0h98v77H0z"/></clipPath><clipPath id="c"><path fill="#fff" transform="translate(108 4)" d="M0 0h63v59H0z"/></clipPath></defs></svg>