<svg width="221" height="130" fill="none" xmlns="http://www.w3.org/2000/svg"><g clip-path="url(#a)"><path opacity=".5" d="M169.446 51.319c-25.321 0-45.841 20.52-45.841 45.84 0 25.322 20.52 45.841 45.841 45.841s45.841-20.519 45.841-45.84c0-25.322-20.52-45.841-45.841-45.841ZM200.007 37.38c0 3.883-3.162 7.04-7.05 7.04-3.889 0-7.051-3.157-7.051-7.04s3.162-7.04 7.051-7.04c3.888 0 7.05 3.157 7.05 7.04Z" fill="#92D5C1"/><path d="M211.782 27.654a5.44 5.44 0 0 1-5.452 5.444 5.44 5.44 0 0 1-5.451-5.444 5.44 5.44 0 0 1 5.451-5.444 5.44 5.44 0 0 1 5.452 5.444Z" fill="#92D5C1"/><path d="M205.824 47.178a1.164 1.164 0 0 0-1.672 0 1.161 1.161 0 0 0 0 1.67c1.999 2.032 1.999 5.298-.036 7.294a1.161 1.161 0 0 0 0 1.67 1.164 1.164 0 0 0 1.672 0c2.944-2.94 2.98-7.694.036-10.634Z" fill="#F37E60"/><path d="M209.096 61.114c4.761-4.717 4.798-12.447.073-17.238a1.164 1.164 0 0 0-1.672 0 1.161 1.161 0 0 0 0 1.67c3.816 3.846 3.816 10.088-.072 13.935a1.16 1.16 0 0 0 0 1.67c.472.399 1.235.399 1.671-.037ZM203.28 50.88a2.304 2.304 0 0 0-3.27 0 2.297 2.297 0 0 0 0 3.266 2.304 2.304 0 0 0 3.27 0c.909-.87.909-2.358 0-3.266ZM202.66 109.613l-.032-3.005c0-.288-.224-.511-.544-.511-1.12 0-2.017.927-2.017 2.046v1.438l-3.329.032h-.544a1.1 1.1 0 0 0-1.089 1.087c0 .415.257.767.577.959a1.08 1.08 0 0 0-.577.959c0 .415.257.767.577.959a1.08 1.08 0 0 0-.577.959c0 .447.289.863.705 1.023-.416.16-.705.543-.673 1.023a1.1 1.1 0 0 0 1.089 1.087h.544l4.93-.032h.448c1.12 0 2.049-.927 2.049-2.046l-.032-3.932c.064-1.023-.608-1.822-1.505-2.046ZM207.332 110.348h-1.536a.779.779 0 0 0-.769.768l.032 4.859c0 .415.352.767.769.767h1.536a.778.778 0 0 0 .768-.767l-.032-4.859a.758.758 0 0 0-.768-.768Z" fill="#F37E60"/><path d="M188.671 28.96H31.746v102.814h156.925V28.96Z" fill="#CAD9F8"/><path d="M187.362 31.646H33.09v1.85h154.272v-1.85Z" fill="#E2E2E2"/><path d="M179.73 20.54h-32.418v3.376h32.418V20.54Z" fill="#6683C2"/><path d="m188.634 27.218-2.943-5.48H35.271L32.11 24.57v7.077h156.525v-4.428Z" fill="#6683C2"/><path d="m181.875 25.041 2.98 2.976M184.855 25.041l-2.98 2.976" stroke="#fff" stroke-width="2.217" stroke-miterlimit="10" stroke-linecap="round"/><mask id="b" style="mask-type:luminance" maskUnits="userSpaceOnUse" x="31" y="0" width="159" height="132"><path d="M189.617 0H32.511l-.8 131.774h157.106L189.617 0Z" fill="#fff"/></mask><g mask="url(#b)"><path opacity=".4" d="M54.896 130.104c-3.016-7.802-2.398-29.214 17.48-55.49-3.96-14.77 1.818-38.286 12.175-42.968l18.099.435s18.098 51.68 14.355 97.987H54.896v.036Z" fill="#9B9B9B"/></g><path d="M162.543 23.517c-.29-1.779-1.09-3.23-.545-7.077.182-1.307-.036-1.38.109-2.468.073-.58.473-1.161.473-1.67 0-1.632-.182-1.451-.182-2.358.254-2.069 3.67 1.088 2.435 5.335.109 2.286.363 2.25.581 2.068.109-.109 1.163-.98 1.963-3.23.4-1.125.654-3.302 1.126-4.536.509-1.27.8-2.504 1.454-3.557.763-1.197 1.454-1.887 2.144-1.052.218.254.109 1.197-.436 2.431-.4.908-.4 1.27-.836 2.432-.363 1.125-1.054 4.464-.981 4.536.073.037 1.127-2.54 2.544-5.19.545-.98.945-1.596 1.272-2.213.509-1.016 1.345-1.053 1.563-.835.472.508.436 1.161-.182 2.613-.327.799-.836 1.778-1.308 2.722-1.018 1.96-1.781 3.702-1.708 3.81 0 0 .181.69.399.364.836-1.234 2.726-5.226 3.78-6.642.763-1.016 1.236-.29 1.199.58 0 .327-.072.944-.618 1.815-.254.363-.69 1.633-1.163 2.468-.617 1.089-1.417 2.577-1.381 2.65 0 0 .182.399.4.036.436-.726.981-1.996 1.708-3.121.291-.799.763-1.488 1.054-1.779.364-.362.691 0 .763.218.255.69.146.98-.218 1.924-.29.726-.581 1.415-.763 1.705-.363.654-.945 1.706-1.235 2.36-.473.98-1.054 2.032-1.454 3.12-.836 2.36-3.598 5.734-5.197 7.476-.363 1.38-3.598 11.976-3.598 11.976s-7.777.363-7.123-1.778c.727-2.141 3.198-12.085 3.961-15.133Z" fill="#FFA383"/><path d="M118.312 71.711c2.762 1.162 19.443-6.096 26.021-6.968 1.781-.29 7.996-22.827 11.012-30.303 2.871-7.15 18.135 1.742 17.262 5.916-.908 4.173-14.173 36.726-16.717 40.21-2.544 3.484-29.837 14.517-32.163 22.537" fill="#F37E60"/><path d="M158.217 32.989c1.236-1.96 2.762-4.5 3.089-6.025.327-1.488 9.267 1.597 8.468 3.267-1.199 2.467-1.345 5.407-1.308 6.532 0 1.742-11.048-2.504-10.249-3.774Z" fill="#E45F3C"/><path d="M167.156 36.509s.146-4.101 1.817-6.641l-1.817 6.64ZM166.105 35.928s.146-4.1 1.818-6.641l-1.818 6.641ZM164.727 35.529s.109-3.992 2.071-6.641l-2.071 6.641ZM163.562 35.057s.146-3.992 2.145-6.641l-2.145 6.641ZM161.961 34.44s.727-4.282 2.653-6.46l-2.653 6.46ZM160.906 34.041s.727-4.282 2.653-6.46l-2.653 6.46ZM159.453 33.28s1.09-3.993 3.089-5.953l-3.089 5.952Z" fill="#9B9B9B"/><path d="M118.24 75.16c-2.144-5.082 2.726-32.046-1.999-42.39-2.907-6.35-9.739-10.124-15.736-7.693-4.615-.145-7.56 3.266-9.849 7.367-4.324 7.803-.109 16.404-2.58 18.618-4.034 3.629-7.268 6.423-7.16 10.633.183 6.242 4.689 8.238 3.744 12.883-2.762 13.102 33.58.581 33.58.581Z" fill="#59514D"/><path d="M89.75 52.296c-1.163 5.262 2.144 7.984 2.617 10.887.436 2.685-.073 6.496-2.58 8.093l5.378-1.161L96.62 58.9l-3.852-6.968-3.017.363Z" fill="#423935"/><path d="M107.666 69.534c6.36 2.903 16.281 9.58 18.026 14.88 1.744 5.298-4.471 27.508-4.761 33.859-.291 6.315-.436 9.98-.582 13.428-.218 5.226-43.574 3.629-43.356-1.924.146-3.447.327-7.113.582-13.427.29-6.315-3.962-28.997-1.745-34.15 2.217-5.118 12.684-10.924 19.262-13.247l12.574.58Z" fill="#F37E60"/><path d="M119.37 48.594c-.436 2.504-2.544 5.661-4.397 4.609-1.49-.871-2.689-2.214-2.253-4.754.436-2.504 1.817-3.702 3.852-4.029 2.18-.29 3.234 1.67 2.798 4.174Z" fill="#E5886E"/><path d="M118.896 45.364c-.364-.508-2.544-.871-3.271.98l.327-1.778s.727-.29 1.526-.146c1.091.255 1.418.944 1.418.944Z" fill="#FFA383"/><path d="M86.662 47.142c.218 2.54 2.035 5.88 3.961 4.972 1.563-.726 2.871-1.996 2.653-4.536-.218-2.54-1.49-3.847-3.489-4.355-2.144-.472-3.343 1.379-3.125 3.92Z" fill="#E5886E"/><path d="M87.39 43.985c.437-.472 2.617-.653 3.162 1.27l-.145-1.814s-.69-.363-1.526-.255c-1.09.146-1.49.799-1.49.799ZM94.148 59.3c.69 2.794-.69 8.964-.945 10.524-.582.218-4.434 1.96-4.434 1.96-1.09 3.81 2.035 6.86 4.979 10.887 3.343 4.537 7.159 11.105 6.868 16.223l1.236.036c2.798-10.633 9.667-23.662 8.068-28.235-.182-.617-1.308-5.843-.145-10.343L94.148 59.3Z" fill="#FFA383"/><path d="M94.328 60.933s.072.98-.11 2.65c0 0 4.29 5.552 7.524 5.697 3.234.145 7.595-4.61 7.595-4.61s.073-3.302.291-4.68l-15.3.943Z" fill="#E5886E"/><path d="M116.024 43.187c-.327 7.04-6.287 12.484-13.337 12.193-7.05-.326-12.502-6.278-12.211-13.319.4-9.472 6.323-13.754 13.374-13.427 7.05.29 12.574 5.298 12.174 14.553Z" fill="#FFA383"/><path d="M116.026 43.187c-.29 6.822-.545 12.52-3.307 16.113-1.672 2.177-5.924 5.806-8.904 6.678-.726.217-2.834 0-3.561-.29-2.871-1.162-6.469-5.082-7.886-7.26-2.435-3.81-2.18-9.544-1.89-16.366" fill="#FFA383"/><path d="M110.755 48.267c-.037 1.162-.8 2.069-1.636 2.033-.872-.037-1.526-1.017-1.453-2.178.036-1.161.799-2.068 1.671-2.032.836.036 1.49 1.016 1.418 2.177ZM98.69 47.65c-.037 1.162-.8 2.069-1.672 2.033-.872-.037-1.527-1.017-1.454-2.178.037-1.161.8-2.068 1.672-2.032.836.036 1.49 1.016 1.453 2.177Z" fill="#030304"/><path d="M105.63 42.134s.146-.072.364-.109c.254-.072.581-.145.981-.217a10.831 10.831 0 0 1 3.053.036c.291.036.545.109.799.181.255.073.546.182.764.254.254.11.472.218.69.327.218.109.436.254.618.363.182.109.327.254.472.4.146.108.255.253.327.362.182.218.255.327.255.327.072.108.036.217-.073.29-.036.036-.073.036-.109.036h-.036s-.146 0-.364-.072c-.109-.037-.254-.037-.399-.073a2.16 2.16 0 0 0-.509-.072c-.182-.037-.4-.073-.618-.11l-.654-.108a5.125 5.125 0 0 1-.727-.145c-.254-.037-.509-.11-.727-.146-.509-.108-1.017-.217-1.49-.326a34.879 34.879 0 0 1-1.308-.327c-.763-.218-1.309-.472-1.309-.472-.109-.036-.145-.181-.109-.254 0-.072.073-.109.109-.145ZM100.687 42.751s-.145.036-.363.109c-.109.036-.255.072-.4.109-.145.036-.327.109-.509.145-.363.109-.8.181-1.272.29-.472.11-.945.182-1.454.254a5.15 5.15 0 0 0-.726.145c-.255.037-.473.073-.69.11l-.655.108c-.218.036-.4.073-.581.109-.182.036-.364.073-.51.073-.145.036-.29.036-.399.072-.218.037-.363.073-.363.073h-.037c-.145 0-.254-.11-.29-.254 0-.073 0-.11.036-.182 0 0 .072-.109.254-.326.073-.11.182-.218.327-.327.146-.109.291-.254.473-.363.181-.109.363-.218.581-.363.218-.109.436-.218.69-.29.255-.073.51-.182.764-.218.254-.072.545-.109.8-.145 1.09-.181 2.18-.145 2.98 0 .4.073.726.145.981.218.218.072.363.145.363.145.146.072.182.218.145.363a.28.28 0 0 1-.145.145Z" fill="#59514D"/><path d="M100.509 54.872c.763-.29 3.416-.181 4.034.182.618.363-1.381.726-2.035.69-.727-.037-2.617-.618-1.999-.872Z" fill="#E5886E"/><path opacity=".5" d="M104.068 62.42c-1.162-.253-3.161-.29-4.106-.18-.654.072.872-.509 2.035-.436 1.127.036 2.689.762 2.071.617Z" fill="#E5886E"/><path d="M98.542 57.594c2.472.835 5.488.835 7.814.653.291-.036.145.037-.109.363-.473.545-1.963 2.178-3.961 2.069-1.926-.109-3.562-2.504-3.962-3.194-.181-.217 0 .037.218.11Z" fill="#fff"/><path d="M90.33 50.372c-.981-.726-1.563-1.597-.872-2.685a4.18 4.18 0 0 1 .8-.835c1.78-1.452.835 1.778.835 1.778l-.763 1.742Z" fill="#FFA383"/><path d="M97.93 57.122c1.562.254 3.488-.617 4.397.363 1.235-.762 3.307.617 4.906.617.036 0 .072.073-.037.073-.835.254-5.56 1.197-9.303-.871-.182-.11-.145-.218.036-.182Z" fill="#865B57"/><path d="M98.04 57.304s1.235 2.032 2.143 2.867c.872.798 3.271 1.052 4.289.399.908-.617 2.435-2.395 2.435-2.395l-.364.109c-.872.508-1.381 1.052-2.362 1.379-.981.326-2.035.363-3.017.036-1.272-.4-1.526-1.343-2.398-2.069l-.436-.254-.29-.072Z" fill="#865B57"/><path d="M98.906 57.776c.654.508 1.926.98 3.489 1.088 1.926.146 3.925-.508 3.925-.508s-2.071.29-3.852.218c-1.854-.073-3.562-.798-3.562-.798Z" fill="#E2E2E2"/><path d="M90.332 50.372c0-3.883 1.417-9.435 3.888-11.65 2.072-1.85 5.415-3.81 4.943-7.185 0 0-.727 3.956 3.125 6.496 2.762 1.815 15.918 1.996 11.993 12.593l1.49-1.451.218-5.408-3.634-5.37-13.52-9.291-7.232 9.508-1.853 6.605.582 5.153Z" fill="#E5886E"/><path d="M115.517 50.844c.109-3.52.436-6.278-2.29-8.928-3.852-3.738-7.486-2.649-10.612-4.972-2.944-2.177-3.961-5.443-3.489-8.564l4.652-.436 4.725.871 5.342 4.246 2.616 6.206s.509 2.177.182 5.77c-.363 3.593-1.126 5.807-1.126 5.807Z" fill="#59514D"/><path d="M100 28.416c-8.904 2.758-9.558 7.186-10.285 12.303-.727 5.153.654 9.653.654 9.653-.181-2.25.364-10.56 4.761-13.573 4.398-3.012 4.107-5.226 4.107-5.226l.763-3.157Z" fill="#59514D"/><path d="M99.164 31.537s-.655-4.282 1.344-6.496c0 0-1.708.145-2.398 2.359-.618 2.068 1.054 4.137 1.054 4.137Z" fill="#423934"/><path d="M86.624 72.909c-.618 3.593 1.672 6.278 5.197 11.105 3.525 4.827 7.414 9.908 7.704 14.77.328 5.59-2.216 32.808-2.216 32.808l2.616.109 1.963-32.807c.109-3.847-2.472-7.948-4.434-11.214-1.926-3.267-6.614-8.747-7.632-10.815-.981-2.069-1.454-3.448-1.054-5.081-.036-.036-1.38-.472-2.144 1.125Z" fill="#E45F3C"/><path d="M101.671 98.386c.508-1.815 2.289-6.678 2.943-8.13.654-1.488 1.781 1.416 1.781 1.416s-4.761 12.048-5.124 16.04c-.327 3.992-.4-6.096-.4-6.096l.8-3.23ZM123.656 103.067c.582-2.939 2.835-8.565 1.926-13.536-.908-4.936 1.563-.581 3.271.18 1.708.763 24.967-5.406 26.966-9.18 0 0-.473.761-1.817 1.596-2.689 1.67-7.959 4.391-13.483 7.512-12.502 7.04-16.354 10.997-16.863 13.428ZM136.234 66.885c1.563-.508 7.705-1.56 9.922.98 2.217 2.54 2.362.145 1.453-.944-.908-1.089-1.853-3.883-1.708-4.79-.617 1.524-.981 2.104-1.381 2.504-.726.326-1.054-.11-8.286 2.25ZM156.077 33.17c-.545.799 3.126 3.81 8.286 5.444 5.161 1.633 7.959 1.85 8.25 1.27 0 0 .218.472-1.999 6.206 0 0 1.09-4.028-1.272-4.21-2.798-.254-9.085-1.815-12.611-6.024-.799-.944-1.381-.545-2.543 1.597 1.09-2.867 1.38-3.847 1.889-4.283ZM86.624 97.95s-3.924 9.218-2.47 11.396c1.49 2.141 4.651 2.685 4.651 4.173s-3.489-.327-3.27 1.125c.145 1.016 10.83 10.343 13.191 13.972 1.018 1.561-.327 5.625-.036 6.206l-1.236-.036c-3.452-2.904-15.772-15.787-15.772-15.787s-3.562-13.065-3.126-13.936c.473-.871 3.199-7.657 3.49-8.13.363-.544 4.578 1.017 4.578 1.017Z" fill="#E45F3C"/><path d="M76.85 80.53c-3.997 3.23-20.06 30.449-17.916 39.521 1.817 7.73 21.987 24.062 25.004 24.86 5.27 1.379 19.588-12.811 12.683-16.621-6.905-3.811-15.627-14.916-16.063-16.332-.436-1.451 7.05-16.076 7.05-16.076" fill="#F37E60"/><path d="M122.531 108.656c-1.417 3.23-7.341 10.198-6.941 12.738.399 2.541 5.233 4.718 4.833 8.746 0 0 .036-12.556 2.108-21.484Z" fill="#E45F3C"/><path d="M101.523 85.502c.218 2.287 1.854 7.912 1.854 7.912l1.126-2.758s-2.507-1.307-2.98-5.154Z" fill="#E2E2E2"/><path d="M103.379 93.414c2.435 1.887 12.683 3.484 16.499-2.323 3.816-5.807 2.326-10.56 2.326-10.56l-17.698 10.124-1.127 2.759ZM58.715 117.148c.181 2.867 27.474 28.307 32.635 24.678 0 0-3.998 3.557-7.414 3.049-2.217-.254-18.062-12.92-23.04-20.832-2.908-4.391-2.254-6.278-2.181-6.895Z" fill="#E45F3C"/><mask id="c" style="mask-type:luminance" maskUnits="userSpaceOnUse" x="58" y="31" width="115" height="115"><path d="M155.315 34.44c-2.981 7.476-9.231 30.013-11.012 30.303-6.578.871-23.259 8.166-26.021 6.968l.836 4.972c-3.634-2.94-8.068-5.552-11.484-7.113l-12.575-.544c-5.887 2.068-14.827 6.895-18.243 11.54-3.998 3.23-20.061 30.449-17.917 39.522 1.817 7.73 21.987 24.061 25.004 24.859 3.488.907 10.866-4.935 13.555-10.125 11.157.544 22.75-.363 22.859-3.049.146-3.447.327-7.113.582-13.427.109-2.867 1.453-8.928 2.725-15.206 2.363-8.02 29.619-19.053 32.163-22.537 2.544-3.484 15.809-36.037 16.717-40.211.945-4.21-14.318-13.101-17.189-5.952Z" fill="#fff"/></mask><g mask="url(#c)" fill="#EDEDED"><path d="M128.896 71.24a3.2 3.2 0 0 1-3.198 3.193 3.2 3.2 0 0 1-3.198-3.193 3.2 3.2 0 0 1 3.198-3.194 3.2 3.2 0 0 1 3.198 3.194ZM138.342 81.11a3.2 3.2 0 0 1-3.199 3.195 3.2 3.2 0 0 1-3.198-3.194 3.2 3.2 0 0 1 3.198-3.194c1.745 0 3.199 1.452 3.199 3.194ZM142.959 67.393a3.2 3.2 0 0 1-3.198 3.194 3.201 3.201 0 0 1-3.199-3.194 3.2 3.2 0 0 1 3.199-3.194 3.2 3.2 0 0 1 3.198 3.194ZM154.552 81.11a3.2 3.2 0 0 1-3.198 3.195 3.2 3.2 0 0 1-3.198-3.194 3.2 3.2 0 0 1 3.198-3.194c1.745 0 3.198 1.452 3.198 3.194ZM159.456 71.24a3.196 3.196 0 0 0 3.198-3.194 3.196 3.196 0 0 0-3.198-3.194 3.196 3.196 0 0 0-3.198 3.194 3.196 3.196 0 0 0 3.198 3.194ZM125.732 99.257a3.2 3.2 0 0 1-3.198 3.193 3.2 3.2 0 0 1-3.198-3.193 3.2 3.2 0 0 1 3.198-3.194 3.177 3.177 0 0 1 3.198 3.194ZM110.47 109.854a3.2 3.2 0 0 1-3.198 3.193 3.2 3.2 0 0 1-3.198-3.193 3.2 3.2 0 0 1 3.198-3.194 3.2 3.2 0 0 1 3.198 3.194ZM119.955 123.535a3.2 3.2 0 0 1-3.198 3.194 3.2 3.2 0 0 1-3.198-3.194 3.2 3.2 0 0 1 3.198-3.193 3.2 3.2 0 0 1 3.198 3.193ZM92.732 125.568a3.2 3.2 0 0 1-3.198 3.193 3.2 3.2 0 0 1-3.198-3.193c0-1.67 1.272-3.012 2.871-3.194.073 0 1.672 1.742 3.525 3.194ZM74.963 127.056a3.2 3.2 0 0 1-3.198 3.193 3.2 3.2 0 0 1-3.199-3.193 3.2 3.2 0 0 1 3.198-3.194c1.781-.036 3.199 1.415 3.199 3.194ZM80.888 112.031a3.201 3.201 0 0 1-3.198 3.194 3.2 3.2 0 0 1-3.198-3.194 3.201 3.201 0 0 1 3.198-3.194 3.2 3.2 0 0 1 3.198 3.194ZM65.006 108.874a3.2 3.2 0 0 1-3.199 3.193 3.2 3.2 0 0 1-3.198-3.193 3.2 3.2 0 0 1 3.198-3.194 3.177 3.177 0 0 1 3.199 3.194ZM85.029 96.789a3.2 3.2 0 0 1-3.198 3.194 3.2 3.2 0 0 1-3.198-3.194 3.2 3.2 0 0 1 3.198-3.194 3.2 3.2 0 0 1 3.198 3.194ZM71.767 93.414a3.2 3.2 0 0 1-3.198 3.193 3.2 3.2 0 0 1-3.198-3.193 3.2 3.2 0 0 1 3.198-3.194 3.177 3.177 0 0 1 3.198 3.194ZM83.615 79.079a3.2 3.2 0 0 1-3.198 3.193 3.2 3.2 0 0 1-3.198-3.193 3.2 3.2 0 0 1 3.198-3.194 3.2 3.2 0 0 1 3.198 3.194ZM96.513 105.68a3.201 3.201 0 0 1-3.198 3.194 3.2 3.2 0 0 1-3.198-3.194 3.2 3.2 0 0 1 3.198-3.193c1.781-.037 3.198 1.415 3.198 3.193ZM96.224 90.365a3.176 3.176 0 0 1-1.999.69 3.2 3.2 0 0 1-3.198-3.194c0-1.161.618-2.214 1.563-2.758.8 1.234 2.144 3.085 3.634 5.262ZM152.842 53.42a3.2 3.2 0 0 1-3.199 3.194 3.2 3.2 0 0 1-3.198-3.193 3.2 3.2 0 0 1 3.198-3.194 3.178 3.178 0 0 1 3.199 3.194ZM169.998 50.844a3.2 3.2 0 0 1-3.198 3.194 3.2 3.2 0 0 1-3.198-3.194 3.2 3.2 0 0 1 3.198-3.194 3.178 3.178 0 0 1 3.198 3.194ZM161.857 39.412a3.2 3.2 0 0 1-3.198 3.194 3.2 3.2 0 0 1-3.198-3.194 3.2 3.2 0 0 1 3.198-3.193c.145 0 .254 0 .4.036a15.635 15.635 0 0 0 2.035 1.089 3.15 3.15 0 0 1 .763 2.068Z"/></g><path opacity=".5" d="M123.656 103.067c.582-2.939 2.835-8.565 1.926-13.536-.908-4.936 1.563-.581 3.271.18 1.708.763 24.967-5.406 26.966-9.18 0 0-.473.761-1.817 1.596-2.689 1.67-7.959 4.391-13.483 7.512-12.502 7.04-16.354 10.997-16.863 13.428ZM136.234 66.885c1.563-.508 7.705-1.56 9.922.98 2.217 2.54 2.362.145 1.453-.944-.908-1.089-1.853-3.883-1.708-4.79-.617 1.524-.981 2.104-1.381 2.504-.726.326-1.054-.11-8.286 2.25ZM156.077 33.17c-.545.799 3.126 3.81 8.286 5.444 5.161 1.633 7.959 1.85 8.25 1.27 0 0 .218.472-1.999 6.206 0 0 1.09-4.028-1.272-4.21-2.798-.254-9.085-1.815-12.611-6.024-.799-.944-1.381-.545-2.543 1.597 1.09-2.867 1.38-3.847 1.889-4.283ZM86.624 97.95s-3.924 9.218-2.47 11.395c1.49 2.142 4.651 2.686 4.651 4.174 0 1.488-3.489-.327-3.27 1.125.145 1.016 10.83 10.343 13.191 13.972 1.018 1.561-.327 5.625-.036 6.206l-1.236-.036c1.636-3.339 1.345-5.371-1.417-6.823-7.777-4.428-15.19-15.424-15.19-15.424s-.219-1.343.145-2.286c1.817-4.936 5.632-12.303 5.632-12.303ZM122.531 108.656c-1.417 3.23-7.341 10.198-6.941 12.738.399 2.541 5.233 4.718 4.833 8.746 0 0 .036-12.556 2.108-21.484ZM103.379 93.414c2.435 1.887 12.683 3.484 16.499-2.323 3.816-5.807 2.326-10.56 2.326-10.56l-17.698 10.124-1.127 2.759ZM58.715 117.148c.181 2.867 27.474 28.307 32.635 24.678 0 0-3.998 3.557-7.414 3.049-2.217-.254-18.062-12.92-23.04-20.832-2.908-4.391-2.254-6.278-2.181-6.895Z" fill="#E45F3C"/><path d="M117.299 35.856c1.272 5.734.29 6.713 3.016 11.504 2.108 3.63 6.542 11.141 2.217 16.513-1.454 1.814-4.034 3.193-4.216 5.77-.145 1.923 1.309 3.81 2.072 5.552 1.562 3.52 3.162 8.239.872 11.759-1.926 2.976-5.306 4.972-8.613 5.37-4.034.509-8.686-.471-10.467-4.572-1.962-4.464 1.054-7.948 4.034-10.815 1.345-1.306 3.017-2.395 3.198-4.463.182-2.105-.908-3.593-1.962-5.335-4.833-8.057 7.886-13.392 8.104-20.25.109-3.122-1.344-4.501.109-7.332-.036.037 1.636-3.701 1.636-3.701Z" fill="#59514D"/><path d="M106.468 64.707c4.616 2.65 8.068 3.847 8.105 5.734.036 1.851-10.648 7.186-12.756 12.557v-.218s-.509-2.576 1.962-6.206c1.381-1.996 3.38-3.52 3.925-6.06.364-1.38-1.163-3.738-1.236-5.807Z" fill="#706661"/><path d="M106.798 108.402c0 1.125-.873 2.032-1.927 2.032-1.053 0-1.926-.907-1.926-2.032s.873-2.032 1.926-2.032c1.054 0 1.927.907 1.927 2.032ZM105.848 125.568c0 1.125-.872 2.032-1.926 2.032-1.054 0-1.926-.907-1.926-2.032s.872-2.033 1.926-2.033c1.054 0 1.926.908 1.926 2.033Z" fill="#484A4E"/><path d="M103.668 108.91c0-.181.4.363 1.199.363.836 0 1.2-.508 1.2-.363 0 .508-.546.944-1.2.944-.654 0-1.199-.4-1.199-.944ZM102.762 126.076c0-.182.399.363 1.199.363.836 0 1.199-.508 1.199-.363 0 .544-.545.943-1.199.943-.69.037-1.199-.399-1.199-.943Z" fill="#6683C2"/><path d="M103.668 108.91c0-.181.4.363 1.199.363.836 0 1.2-.508 1.2-.363 0 .508-.546.944-1.2.944-.654 0-1.199-.4-1.199-.944ZM102.762 126.076c0-.182.399.363 1.199.363.836 0 1.199-.508 1.199-.363 0 .544-.545.943-1.199.943-.69.037-1.199-.399-1.199-.943Z" fill="#EDEDED"/><path opacity=".6" d="M188.634 120.814H33.09v10.996h155.544v-10.996Z" fill="#6683C2"/><path d="M52.206 119.725H33.09v1.052h19.116v-1.052Z" fill="#F37E60"/><path opacity=".4" d="M187.397 119.725H57.293v1.052h130.104v-1.052Z" fill="#6683C2"/><path opacity=".5" d="M57.257 119.725h-4.76v1.052h4.76v-1.052Z" fill="#fff"/><path d="M180.6 123.536h-1.381v1.379M183.471 124.914v-1.379h-1.381M182.09 127.781h1.381v-1.379M179.219 126.402v1.379h1.381" stroke="#fff" stroke-width=".739" stroke-miterlimit="10" stroke-linejoin="round"/><path d="M175.915 124.987h-3.743v2.794h3.743v-2.794Z" stroke="#fff" stroke-width=".739" stroke-miterlimit="10" stroke-linecap="round" stroke-linejoin="round"/><path d="M31.817 20.54c-1.018 0-1.817.8-1.817 1.78V131.7c0 1.016.8 1.815 1.817 1.815H188.67a1.798 1.798 0 0 0 1.817-1.815V22.355a1.798 1.798 0 0 0-1.817-1.814h-10.394c-1.017 0-1.889.762-1.998 1.706-.109.943.617 1.705 1.635 1.705h7.632c1.017 0 1.817.799 1.817 1.815v102.559c0 1.016-.8 1.814-1.817 1.814H34.906a1.798 1.798 0 0 1-1.817-1.814V25.731c0-1.017.8-1.815 1.817-1.815h119.129c1.018 0 1.817-.762 1.781-1.706 0-.943-.836-1.706-1.853-1.706H31.817v.037Z" fill="#6683C2"/><path d="M198.948 91.25c-1.491 1.995-20.279 6.786-23.041 6.459-2.762-.29-6.833-12.92-5.234-16.186 1.563-3.266 21.733-8.31 24.023-6.895 2.216 1.379 5.742 14.625 4.252 16.621Z" fill="#fff"/><path d="m187.791 84.717-5.342-2.25c-.618-.254-1.308.29-1.126.98l1.671 6.713a.846.846 0 0 0 1.454.327l3.634-4.5c.364-.4.218-1.052-.291-1.27ZM63.995 52H52.959C50.245 52 48 54.213 48 56.887v4.933c0 2.674 2.245 4.887 4.958 4.887h8.278l1.59 2.028c.328.415.983.323 1.216-.138l.889-1.937C67.223 66.246 69 64.263 69 61.866v-4.933C68.953 54.213 66.708 52 63.995 52Zm-11.084 8.898c-.748 0-1.356-.6-1.356-1.337 0-.738.608-1.337 1.356-1.337.748 0 1.356.6 1.356 1.337.047.737-.608 1.337-1.356 1.337Zm5.566 0c-.749 0-1.357-.6-1.357-1.337 0-.738.608-1.337 1.357-1.337.748 0 1.356.6 1.356 1.337s-.608 1.337-1.356 1.337Zm5.565 0c-.748 0-1.356-.6-1.356-1.337 0-.738.608-1.337 1.356-1.337.749 0 1.357.6 1.357 1.337s-.608 1.337-1.357 1.337Z" fill="#F37E60"/><path d="m137.753 109.781.036.036 6.178 2.178 3.562-5.48.036-.036c.945-1.452.545-3.448-.945-4.392-1.453-.943-3.452-.544-4.397.944l-.872 1.343-1.527-.545c-1.635-.58-3.488.291-4.07 1.924-.509 1.633.364 3.447 1.999 4.028ZM172.531 68.336l2.471 3.775 4.216-1.488h.036a2.159 2.159 0 1 0-1.454-4.065l-1.017.363-.618-.907a2.202 2.202 0 0 0-3.016-.617c-.982.58-1.272 1.923-.618 2.94Z" fill="#fff"/><path d="M41.417 45.65h.036l4.216 1.487 2.435-3.738.037-.036c.654-.98.363-2.36-.618-3.012-.982-.654-2.363-.363-3.017.617l-.581.907-1.018-.363a2.16 2.16 0 0 0-2.762 1.306c-.436 1.162.146 2.432 1.272 2.831Z" fill="#F37E60"/></g><defs><clipPath id="a"><path fill="#fff" d="M0 0h221v130H0z"/></clipPath></defs></svg>