<svg width="320" height="215" fill="none" xmlns="http://www.w3.org/2000/svg"><g clip-path="url(#a)"><path d="M288.051 21.1H98.449v25.319h189.602v-25.32Z" fill="#CBBBA0"/><path d="M156.45 68.205H98.156V208.05h58.294V68.205ZM288.344 68.205h-58.293V208.05h58.293V68.205Z" fill="#E6D4B5"/><path d="M290.992 64.966H95.797V68.5h195.195v-3.533ZM290.992 52.601H95.797v8.832h195.195v-8.832Z" fill="#DBCAAD"/><path d="M293.056 61.434H93.738v3.533h199.318v-3.533ZM293.941 49.068H92.563V52.6H293.94v-3.533Z" fill="#A89B85"/><path d="M296 44.063H90.5v5.005H296v-5.005Z" fill="#E6D4B5"/><path d="M291.878 19.332H94.621v3.533h197.257v-3.532Z" fill="#A89B85"/><path d="M293.941 14.327H92.563v5.005H293.94v-5.005Z" fill="#DBCAAD"/><path d="M143.496 188.031h-31.797v27.086h31.797v-27.086ZM275.097 188.031h-31.796v27.086h31.796v-27.086Z" fill="#D4C3A7"/><path d="M230.051 68.205V216h-5.594V107.067c0-13.837-9.127-25.614-21.786-29.44-2.945-.884-5.889-1.179-8.833-1.179h-.883c-2.944 0-6.183.59-8.832 1.178-12.66 3.827-21.787 15.604-21.787 29.441V216h-5.594V68.205h73.309Z" fill="#BDAE95"/><path d="M192.957 74.093c-18.254 0-32.975 14.72-32.975 32.974v106.872h-1.177V70.56h69.187V213.94h-1.178V107.067c0-18.253-14.721-32.974-32.974-32.974h-.883Z" fill="#A89B85"/><path d="M162.04 210.701H95.797l2.355-2.65h58.588l5.3 2.65ZM224.461 210.701h66.537l-2.65-2.65h-58.293l-5.594 2.65Z" fill="#DBCAAD"/><path d="M162.334 210.7H95.797v5.3h66.537v-5.3ZM290.998 210.7h-66.537v5.3h66.537v-5.3Z" fill="#A89B85"/><path d="M164.101 109.128H95.797v3.533H164.1v-3.533ZM290.995 109.128h-68.304v3.533h68.304v-3.533Z" fill="#DBCAAD"/><path d="M162.044 112.367H98.156v7.36h63.888v-7.36ZM288.348 112.367h-63.887v7.36h63.887v-7.36Z" fill="#A89B85"/><path d="M149.971 75.27h-45.045v26.498h45.045V75.271ZM281.572 75.27h-45.045v26.498h45.045V75.271Z" fill="#DBCAAD"/><path d="M147.912 77.332h-40.924v22.375h40.924V77.332ZM279.513 77.332H238.59v22.375h40.923V77.332Z" fill="#A89B85"/><path d="M145.848 79.393h-36.801v17.959h36.801v-17.96ZM277.45 79.393h-36.802v17.959h36.802v-17.96Z" fill="#DBCAAD"/><path d="M144.67 80.57h-34.74V96.47h34.74V80.57ZM276.569 80.57h-34.741V96.47h34.741V80.57Z" fill="#CBBBA0"/><path d="M116.703 38.469H98.449v5.594h18.254v-5.594ZM288.05 38.469h-18.253v5.594h18.253v-5.594ZM135.84 38.469h-18.254v5.594h18.254v-5.594ZM268.914 38.469H250.66v5.594h18.254v-5.594ZM154.98 38.469h-18.253v5.594h18.253v-5.594ZM249.777 38.469h-18.254v5.594h18.254v-5.594ZM174.113 38.469h-18.254v5.594h18.254v-5.594ZM230.64 38.469h-18.253v5.594h18.253v-5.594ZM192.959 38.764H175v5.593h17.959v-5.593ZM211.799 38.764H193.84v5.593h17.959v-5.593ZM111.991 30.815c0 2.355-1.766 4.121-4.122 4.121-2.355 0-4.416-2.06-4.416-4.121 0-2.356 1.767-4.122 4.122-4.122 2.355-.295 4.416 1.766 4.416 4.122ZM274.805 30.815c0 2.355 1.766 4.121 4.121 4.121 2.356 0 4.122-1.766 4.122-4.121 0-2.356-1.766-4.122-4.122-4.122-2.355-.295-4.121 1.766-4.121 4.122ZM131.13 30.815c0 2.355-1.766 4.121-4.122 4.121-2.355 0-4.121-1.766-4.121-4.121 0-2.356 1.766-4.122 4.121-4.122 2.061-.295 4.122 1.766 4.122 4.122ZM255.668 30.815c0 2.355 1.766 4.121 4.122 4.121 2.355 0 4.122-1.766 4.122-4.121 0-2.356-1.767-4.122-4.122-4.122-2.356-.295-4.122 1.766-4.122 4.122ZM149.97 30.815c0 2.355-1.766 4.121-4.122 4.121-2.355 0-4.121-1.766-4.121-4.121 0-2.356 1.766-4.122 4.121-4.122 2.356-.295 4.122 1.766 4.122 4.122ZM236.527 30.815c0 2.355 1.767 4.121 4.122 4.121s4.122-1.766 4.122-4.121c0-2.356-1.767-4.122-4.122-4.122-2.355-.295-4.122 1.766-4.122 4.122ZM169.111 30.815c0 2.355-1.767 4.121-4.122 4.121s-4.122-1.766-4.122-4.121c0-2.356 1.767-4.122 4.122-4.122 2.355-.295 4.122 1.766 4.122 4.122ZM217.391 30.815c0 2.355 1.766 4.121 4.121 4.121 2.356 0 4.122-1.766 4.122-4.121 0-2.356-1.766-4.122-4.122-4.122-2.355-.295-4.121 1.766-4.121 4.122ZM188.244 30.815c0 2.355-1.767 4.121-4.122 4.121-2.356 0-4.122-1.766-4.122-4.121 0-2.356 1.766-4.122 4.122-4.122 2.355-.295 4.122 1.766 4.122 4.122ZM198.258 30.815c0 2.355 1.766 4.121 4.122 4.121 2.355 0 4.121-1.766 4.121-4.121 0-2.356-1.766-4.122-4.121-4.122-2.356-.295-4.122 1.766-4.122 4.122ZM111.991 14.328c0 2.355-1.767 4.121-4.122 4.121-2.356 0-4.122-1.766-4.122-4.122-.294-2.355 1.766-4.121 3.827-4.121 2.356 0 4.417 1.766 4.417 4.122ZM274.805 14.328c0 2.355 1.766 4.121 4.121 4.121 2.356 0 4.122-1.766 4.122-4.122 0-2.355-1.766-4.121-4.122-4.121-2.355 0-4.121 1.766-4.121 4.122ZM131.13 14.328c0 2.355-1.766 4.121-4.122 4.121-2.355 0-4.121-1.766-4.121-4.122 0-2.355 1.766-4.121 4.121-4.121 2.061 0 4.122 1.766 4.122 4.122ZM255.668 14.328c0 2.355 1.766 4.121 4.122 4.121 2.355 0 4.122-1.766 4.122-4.122 0-2.355-1.767-4.121-4.122-4.121-2.356 0-4.122 1.766-4.122 4.122ZM149.97 14.328c0 2.355-1.766 4.121-4.122 4.121-2.355 0-4.121-1.766-4.121-4.122 0-2.355 1.766-4.121 4.121-4.121 2.356 0 4.122 1.766 4.122 4.122ZM236.527 14.328c0 2.355 1.767 4.121 4.122 4.121s4.122-1.766 4.122-4.122c0-2.355-1.767-4.121-4.122-4.121s-4.122 1.766-4.122 4.122ZM169.111 14.328c0 2.355-1.767 4.121-4.122 4.121s-4.122-1.766-4.122-4.122c0-2.355 1.767-4.121 4.122-4.121s4.122 1.766 4.122 4.122ZM217.391 14.328c0 2.355 1.766 4.121 4.121 4.121 2.356 0 4.122-1.766 4.122-4.122 0-2.355-1.766-4.121-4.122-4.121-2.355 0-4.121 1.766-4.121 4.122ZM188.244 14.328c0 2.355-1.767 4.121-4.122 4.121-2.356 0-4.122-1.766-4.122-4.122 0-2.355 1.766-4.121 4.122-4.121 2.355 0 4.122 1.766 4.122 4.122ZM198.258 14.328c0 2.355 1.766 4.121 4.122 4.121 2.355 0 4.121-1.766 4.121-4.122.295-2.355-1.766-4.121-4.121-4.121-2.356 0-4.122 1.766-4.122 4.122ZM119.943 23.749h-5.005v13.543h5.005V23.748ZM271.857 23.749h-5.005v13.543h5.005V23.748ZM138.786 23.749h-5.005v13.543h5.005V23.748ZM253.017 23.749h-5.005v13.543h5.005V23.748ZM157.919 23.749h-5.005v13.543h5.005V23.748ZM233.88 23.749h-5.005v13.543h5.005V23.748ZM177.06 23.749h-5.005v13.543h5.005V23.748ZM214.45 23.749h-5.005v13.543h5.005V23.748ZM195.903 23.749h-5.005v13.543h5.005V23.748Z" fill="#DBCAAD"/><path d="M113.167 180.965c-.883-2.65-1.472-5.594-1.766-8.243-.295-4.711.883-9.422.294-13.838-.589-5.299-2.649-10.599-.589-15.309.884-1.767 2.061-3.239 2.65-5.005 1.178-2.65.589-5.889 1.767-8.538 1.766-3.828 6.477-5.594 10.893-5.3 6.183.295 12.66 4.416 14.132 10.894.589 3.238 0 6.477 0 10.01-.295 6.477 1.766 12.659 2.355 19.136 0 2.061 0 4.122-.294 5.889-.295 1.472-.884 2.649-1.178 4.121-.294 2.65 1.178 5.889-.294 7.95-1.472 2.06-4.711 1.177-7.066.883-5.889-.883-11.777 1.472-17.665.589-.883 0-1.767-.295-2.061-.884l-1.178-2.355ZM273.329 180.965c.884-2.65 1.472-5.594 1.767-8.243.294-4.711-.589-9.422-.295-13.838.589-5.299 2.65-10.599.589-15.309-.883-1.767-2.061-3.239-2.649-5.005-1.178-2.65-.589-5.889-1.767-8.538-1.766-3.828-6.477-5.594-10.893-5.3-6.183.295-12.66 4.416-14.132 10.894-.589 3.238 0 6.477 0 10.01.294 6.477-1.766 12.659-2.355 19.136 0 2.061 0 4.122.294 5.889.295 1.472.883 2.649 1.178 4.121.294 2.65-1.178 5.889.294 7.95 1.472 2.06 4.711 1.177 7.066.883 5.888-.883 11.777 1.472 17.665.589.883 0 1.766-.295 2.061-.884.883-1.177.883-1.766 1.177-2.355Z" fill="#F0DDBD"/><path d="M117.883 160.651c2.65-1.472 4.122-5.3 5.594-8.832.294-.884.589-1.473 1.177-2.061.589-.589 1.178-.884 1.767-.589.294-.883-.294-2.061-.294-3.239.294-1.177 1.766-1.472 2.355-.294.589.883.589 2.65 0 3.533.883 0 1.472 1.177 2.061 2.355s.883 2.061 1.472 3.239c.294.883.589 1.472.883 2.355 0 .883 0 1.766-.294 2.65-.295 1.177-.589 2.649-.884 3.827l-.883 3.533c-.589 3.533 0 7.066.295 10.599h-1.472c-.295-2.944-.884-5.594-1.178-8.538v-.589c-.295-.294-.883-.294-.883.294-.295.589 0 .884 0 1.473.294 1.472.294 2.649.588 4.121.295 1.178.295 2.65-.294 3.533-.589.589-1.472.589-2.061.295.589-2.356.589-5.005.589-7.361-.589-.294-.883.295-1.472.295-.589.294-1.178.294-1.472-.295-.295-.294-.295-.588-.295-1.177 0-4.122.295-8.538.589-12.66-.883 1.766-2.355 2.944-3.533 4.122-.589.589-.883.883-1.472.883s-1.177-.883-.883-1.472Z" fill="#D4C3A7"/><path d="m132.6 169.483.884-8.833c0-1.177.294-2.649.294-3.827v-.883c0-.589-.294-.883-.589-1.178-.883-1.472-1.766-2.944-2.355-4.416-.295-.294-.295-.883-.589-1.472s-.294-1.472-.294-2.061c0-1.766-.295-3.533-.295-5.299.589.588.883 1.766 1.178 2.649.294 1.178 0 2.356.294 3.239.295.883 1.178 1.472 1.767 2.061s1.177 1.472 1.177 2.649c.295 0 .589-.588.589-1.177 0-.589-.294-.883-.294-1.472-.295-1.178.589-2.356 1.472-2.356s1.766 1.178 1.472 2.356c0 .589-.294 1.177-.589 1.766 0 .589.589 1.178.883.589.295-.883.884-1.766 1.767-2.355.294 0 .294-.295.589 0 .294 0 .294.294.294.589.589 2.944-1.472 5.888-1.178 9.126 0 .884.295 1.767.295 2.65s-.295 1.767-.295 2.65c0 .589 0 1.177.295 1.766.589 2.356.589 5.3 0 7.655 0 .589-.295.883-.295 1.472 0 .883.589 1.767.884 2.65.294.883.589 2.061 0 2.649-.295.295-.589.295-1.178.295-2.061 0-4.122 0-5.594-1.767-.883-1.177-1.177-2.944-1.177-4.71 0-1.767.294-3.533.588-5.005Z" fill="#D4C3A7"/><path d="M114.349 141.22c-.589.589-1.473 1.472-1.767 2.649.883.589 2.061 1.472 2.355 2.945 0 .883-.294 1.472-.294 2.355s0 1.766.589 2.061c-.295-1.472.589-2.944 1.766-3.533 1.178-.589 2.356-.589 3.239-.883 1.472-.295 2.649-1.178 3.533-2.356l.883-.883c.589-.294 1.472-.294 2.061-.883s1.177-1.767 1.472-2.65c.294-.883.883-1.766 1.766-2.65.295-.294.295-.294.589-.294l.295.294c.294.589.588 1.178 1.177 1.472.589.295 1.178 0 1.472-.588.295-.295.295-.589.589-.884.295-.589 1.178-.294 1.472.295l.883 1.766c.295.589 1.178.883 1.473.589-2.061-3.239-3.828-6.771-5.005-10.599.588.295 1.177.295 1.472.589.294-.294.588-1.178.294-1.766 0-.589-.589-1.178-.883-1.767-.883-1.178-1.767-1.766-2.944-1.766-1.178 0-2.356 1.177-2.356 2.649 0 .295 0 .884-.294 1.178 0 .294-.295.294-.589.589-1.766.883-3.533.589-5.005-.883-.589-.589-1.472-1.473-2.355-1.767-.295.294-1.178.883-1.767 1.472.884-.294 2.061 0 2.65 1.178.294.589.589.883.883 1.472 1.178 1.472 3.239.589 5.005 1.177 0 1.178-.294 2.061-.589 2.945-1.177.294-2.355-.589-3.238.294-.295.294-.589.883-.883 1.472-1.178 2.061-3.533 1.767-5.3 2.65-.883.294-1.766 1.177-2.649 2.061Z" fill="#D4C3A7"/><path d="M123.771 181.554c.589-1.177.589-2.944 0-4.122l-.884-1.766c-.883-2.355-.294-5.005.295-7.36.589-3.533.883-7.361.883-11.188 0-1.178-.294-2.355-.883-2.944s-1.767-.883-2.061-1.767c-.294-1.177.294-2.944-.294-3.827h-.295c-.589 0-.883-.294-1.472 0-.883.294-1.472 1.472-1.178 2.65 0 1.177.884 2.061 1.767 2.061-.883.294-.589 2.355-1.472 2.944-.589.589-1.472-.295-2.061-.884-.883-.588-1.766-1.177-2.65-1.177 0 .589.295 1.177.589 1.472 1.178 1.178 2.944 1.766 4.711 1.766 0 1.472-.295 2.944-.295 4.417 0 .294 0 .883-.294 1.177 0 .295-.295.295-.589.589-1.472.883-2.944 1.472-3.533 3.239-1.178 3.238.883 7.36 0 10.598-.294 1.178-.883 2.356-.883 3.533 3.533.295 7.066.589 10.599.589Z" fill="#D4C3A7"/><path d="M164.694 185.381H94.918v2.65h69.776v-2.65ZM291.584 185.381h-69.775v2.65h69.775v-2.65Z" fill="#DBCAAD"/><path d="M163.218 182.731H96.387v2.65h66.831v-2.65ZM290.113 182.731h-66.832v2.65h66.832v-2.65Z" fill="#BDAE95"/><path d="M144.378 185.381h-34.151v2.65h34.151v-2.65ZM276.277 185.381h-34.152v2.65h34.152v-2.65Z" fill="#A89B85"/><path d="M142.612 182.731h-30.03v2.65h30.03v-2.65ZM274.214 182.731h-30.03v2.65h30.03v-2.65Z" fill="#DBCAAD"/><path d="M272.741 169.188c.294-.294.589-.294.589-.588.589-.589.589-1.767.294-2.65-.294-2.061-1.177-3.827-2.355-5.3-.294-.588-.589-.883-.883-1.472v-2.06c0-.589.294-1.473 0-2.061-.295-.589-.884-.884-1.178-.589-.589.589-.294 1.766-.589 2.65-.294.883-1.472.883-2.355 1.177-.589.295-.883.883-1.178 1.472.295-.883.589-1.472 1.178-2.061.294-.294.589-.294.589-.588v-.884c0-1.177-.589-2.061-1.178-2.944-.294-.589-.883-.883-1.472-.294 0 0 0 .294-.294.589a12.644 12.644 0 0 0 0 4.71c-.884.295-1.472 1.178-1.767 2.355a7.186 7.186 0 0 0 0 3.533c0 .884.295 2.061 0 2.945-.294.588-.589 1.177-.883 2.06 0-.294 0-.588-.294-.588v-1.472c.294-2.061 0-4.122.588-6.183.295-1.178.884-2.355.295-3.239-.589-.883-1.767-.588-2.65-.883 0 0-.294 0-.294-.294v-.589c0-.589 0-1.178-.295-1.767.589 0 1.178 0 1.472.295.295.294.884.589 1.178.589.589 0 .883-.295.883-.884 0-.588-.883-.883-1.177-1.472-.589-.883-.295-2.355.294-3.238 0 .883.589 1.472 1.178 2.061 2.944 1.766 5.888 2.944 9.126 3.827-1.766-3.238-5.005-4.711-7.949-6.183-.294 0-.589-.294-.883-.588-.294-.589-.294-1.178-.589-1.767 0-1.766-.294-3.533-.883-4.711-.294-.588-.883-1.177-.883-2.06 0-.589 0-1.178.294-1.767.883-3.533 2.061-7.066 2.061-10.599 0-.294 0-.589-.294-.883l-.295-.294c-.294.294-.589.588-1.177.883 0 3.238-.884 6.771-2.356 9.421 0 .294-.294.589-.589.294-.294-.883 0-1.766-.294-2.649 0-.295-.294-.589-.589-.589-.883-.589-2.061-.294-2.65.589-.588.883-.588 2.355 0 3.238.295.295.589.884.295 1.178l-.295.294c-2.649.589-5.593-1.472-7.949 0-.294.295-.589.589-.589 1.178s.295.883.884.883c.883.295 2.061 0 2.944 0 1.766 0 3.238.589 4.71 1.178.884.294 1.473.589 2.061 1.472.295.589.589 1.472.884 2.355v.589s0 .295-.295.295c-.589.588-.883 1.472-1.472 2.06-.883 1.178-1.766 2.65-1.178 4.122 0 .295.295.589.295.589-.295.589 0 1.766.294 2.355.295.589.884 1.472.884 2.061-2.061-.589-4.122-2.65-4.711-5.299-.295-1.178-.295-2.65-.883-3.828-.295-1.177-1.178-2.355-2.356-2.355.884.883 1.178 2.355 1.472 3.533 0 .883.295 1.767.295 2.65.294 2.944 1.472 5.888 3.238 7.949l.589.589v.883c0 .883 0 1.766.295 2.65-.589-.295-1.178-.589-1.472-1.472-.295-.884 0-2.65-.884-2.945-.589-.294-1.472.589-2.061.589a1.878 1.878 0 0 1 0-1.766c-.294-.295-.588-.589-.883-.589.589 0 .883-.883.589-1.472-.294-.589-.589-.883-1.178-1.178-.588-.294-1.177-.589-1.766-.294-.589 0-1.178.589-1.178 1.472-.294 1.178.883 2.355 1.472 3.533-.883 0-1.472.589-1.766 1.472-.295.883-.295 1.766-.295 2.65 0 .883-.294 2.061-.883 2.355-.294.294-.589.294-.883.883v.295c0 .294.294.588.294.883.589.883 1.178 1.472 1.472 2.355.295-.294.295-1.177 0-1.766-.294-.589-.588-1.178-.294-1.767 0-.294.294-.589.589-.883.589-.883 1.177-2.061.883-3.239h.589c.589 1.473 0 3.533.589 5.005 0 .295.294.589.294.884v.883c-.294.883-.294 1.766-.589 2.65-.294 1.177-.589 2.355 0 3.238.295.589.884.883 1.178 1.178.883.589 1.472 1.472 2.061 2.65-.883.588-1.472 1.177-1.767 2.355.884.294 1.767 0 2.356-.295.294 0 .588-.294.883-.588.294-.295.294-1.178.294-1.767.295-2.355 1.178-4.416 2.356-5.888 0 1.472.294 2.944.883 4.122.294.883.589 1.472.294 2.355 0 .294-.589.883-.589 1.178-.294.294-.294.883 0 1.177.884-.294 1.767-.294 2.945-.589.588-3.238-1.472-6.477-1.472-10.01 0-.294 0-.588.294-.883.294-.294.589-.294.883 0a5.777 5.777 0 0 1 2.65 2.65c0 1.178.294 2.355.294 3.533 0 .589.295 1.177 0 1.766-.294 1.178-.883 1.767-1.472 2.65.589.294 1.178.589 1.767.294.294 0 .294-.294.294-.294v-.589c0-1.766-.294-3.533 0-5.005.295.295.295.883.589 1.178.883 1.766 2.061 2.944 3.238 4.416.295.294.884.883 1.473.883h.294c-.294-1.177-.883-1.766-1.472-2.649l-.883-1.767c-.884-1.766-1.767-3.827-2.356-5.594.295-.589.589-1.177 1.178-1.472.294 2.355 1.178 4.416 2.65 6.183.294.589.883 1.177 1.177 1.766.295.589.295 1.178.295 1.767s.294 1.177.589 1.472c.294.294.883 0 .883-.295.294.295.589.295.883 0a23.892 23.892 0 0 1 0-6.477c.589 0 1.178 0 1.472-.588v-.589c-.294-.884-.589-1.472-.883-2.356.589.589 1.472.884 2.355.884 2.061-2.061.295-3.239.589-4.417Zm-16.781.295c-.295 0-.295 0 0 0-1.178.883-2.061 1.766-2.945 3.238-.883 1.178-1.177 2.945-.883 4.417-1.178-1.178-.883-3.533-.589-5.594.295-1.178.589-2.65 1.767-2.65.589 0 .883.294 1.472.294.294 0 .883-.588 1.178-.883 0 0 0-.294.294-.294-.294.294-.294.589-.294 1.472Zm11.776 6.477c.589.883.883 1.766 1.178 2.65-.295-.884-.884-1.767-1.178-2.65Z" fill="#D4C3A7"/><path opacity=".1" d="M288.051 22.866H98.449v5.594h189.602v-5.594ZM290.992 52.601H95.797v5.594h195.195V52.6ZM290.992 67.616v.884h-2.649v9.126h-85.674c-2.944-.883-5.889-1.177-8.833-1.177h-.883c-2.944 0-6.183.589-8.832 1.177H98.152V68.5h-2.355v-.884h195.195Z" fill="#1D1D1B"/><path d="M156.048 168.357c-1.241-6.486-1.396-13.833 5.443-17.231 5.457-2.623 12.127-2.228 17.964-2.228 6.656.183 15.709.183 19.305 6.966 1.833 3.708 1.367 7.812.479 11.633-1.001 4.244-2.75 8.446-5.697 11.718-3.567 4.103-9.01 6.162-14.312 6.359-3.92.184-7.953-.253-11.619-1.776-6.529-2.694-10.322-8.687-11.563-15.441Zm2.496-.395c1.142 9.49 7.121 15.779 16.85 16.216 9.476.508 16.837-3.497 19.657-12.846.536-1.734.888-3.567 1.1-5.372.31-2.693.367-5.796-1.015-8.122-1.044-1.735-2.99-2.665-4.893-3.131-4.484-1.071-9.913-.719-14.637-.761-3.709.042-7.304-.099-10.83.62-2.087.452-3.877 1.34-5.02 3.145-.846 1.311-1.269 3.158-1.396 4.766-.169 1.819-.028 3.638.184 5.485Z" fill="#3A3E42"/><path d="m129.298 177.353 1.763 2.073a3.78 3.78 0 0 1 .86 1.918c3.906 26.947 15.271 21.574 15.271 21.574l1.269-7.854 1.523-9.377h-5.161a5.277 5.277 0 0 1-4.709-2.891l-2.242-4.385-.466-.931a4.874 4.874 0 0 0-4.343-2.665h-2.608c-1.298.028-2.003 1.537-1.157 2.538Z" fill="#65B49C"/><path d="M137.871 178.425c.776 2.623-.014 6.106.931 9.49 1.466 5.246 8.503 4.047 8.503 4.047l1.156.268 1.523-6.543h-5.161a5.28 5.28 0 0 1-4.71-2.891l-2.242-4.371Z" fill="#7FCBB4"/><path d="M189.89 171.755c0-3.977-5.754-7.192-12.86-7.192-7.093 0-12.846 3.215-12.846 7.192h25.706Z" fill="#65B49C"/><path d="M184.025 171.756c0-2.948-4.259-5.331-9.519-5.331-5.259 0-9.518 2.383-9.518 5.331h19.037Z" fill="#7FCBB4"/><path d="M145.203 193.668c0-11.45 6.698-16.78 16.569-19.008-.564-.367-.86-.748-.86-1.156 0-2.99 7.219-1.763 16.131-1.763 8.912 0 16.132-1.34 16.132 1.763 0 .408-.325.803-.903 1.184 9.899 2.256 16.611 7.643 16.611 18.98 0 11.027-5.824 16.512-15.708 18.881-.325 1.89-7.417 3.145-16.118 3.145-8.305 0-15.144-1.143-16.033-2.891-9.475-2.016-15.821-7.065-15.821-19.135ZM174.504 161.73c0 1.396 1.128 4.033 2.524 4.033 1.396 0 2.524-2.637 2.524-4.033a2.521 2.521 0 0 0-2.524-2.524 2.521 2.521 0 0 0-2.524 2.524Z" fill="#65B49C"/><path d="M178.483 161.87c-.084 0-.141-.056-.141-.141 0-.719-.592-1.311-1.311-1.311s-1.311.592-1.311 1.311c0 .085-.057.141-.141.141-.085 0-.141-.056-.141-.141a1.6 1.6 0 0 1 1.593-1.593 1.6 1.6 0 0 1 1.593 1.593.14.14 0 0 1-.141.141ZM177.032 175.746c-5.88 0-12.803-.761-12.874-.761a.167.167 0 0 1-.127-.156.153.153 0 0 1 .155-.126c.071.014 6.966.761 12.832.761 5.866 0 12.466-.761 12.536-.761.085-.015.141.042.155.126.014.071-.042.141-.127.156-.056 0-6.655.761-12.55.761ZM176.618 213.381c-5.471 0-12.225-.818-12.296-.818a.165.165 0 0 1-.127-.155.166.166 0 0 1 .155-.127c.071.014 6.811.818 12.268.818 5.457 0 13.03-.818 13.1-.818.071-.014.141.043.155.127.014.071-.042.141-.127.155-.07 0-7.671.818-13.128.818ZM133.614 176.761c-1.241 0-3.243-.55-3.751-.691-.07-.028-.113-.099-.099-.169.029-.071.099-.113.17-.099 1.508.437 4.033.959 4.385.536.127-.141.099-.226.085-.254-.071-.226-.578-.423-.875-.494-.07-.014-.127-.098-.098-.169.014-.07.098-.127.169-.098.099.028.931.225 1.086.676.042.127.056.311-.127.536-.155.169-.494.226-.945.226Z" fill="#fff"/><path d="M202.327 190.975c.705 7.347 6.204 12.818 12.267 12.24 4.315-.409 7.77-3.779 9.138-8.32.564-1.847.775-3.892.578-6.021-.705-7.347-6.204-12.818-12.268-12.24-2.228.212-4.23 1.213-5.838 2.764-2.749 2.665-4.315 6.938-3.877 11.577Zm7.092-9.532c4.076-.395 7.756 3.215 8.221 8.051.466 4.837-2.467 9.081-6.543 9.476-4.075.395-4.949-3.483-5.414-8.319-.452-4.837-.339-8.813 3.736-9.208Z" fill="#65B49C"/><path d="M171.094 208.897c12.195 0 22.082-6.818 22.082-15.229s-9.887-15.229-22.082-15.229c-12.196 0-22.082 6.818-22.082 15.229s9.886 15.229 22.082 15.229ZM206.219 179.398c10.406-4.428 18.176 8.235 17.527 15.483.564-1.848.776-3.892.578-6.021-.705-7.347-6.204-12.818-12.267-12.24-2.242.226-4.245 1.227-5.838 2.778Z" fill="#7FCBB4"/><path d="M171.009 197.137c-.056 0-.112.014-.169.014a1.057 1.057 0 0 1-1.015-1.1 1.057 1.057 0 0 1 1.1-1.015l5.118.183c-.014-.437-.014-.874-.014-1.311-.014-.691-.014-1.382-.014-2.073-.028-.747.113-1.495.635-2.073.31-.282.578.324.705.522.169.338.254.677.282 1.029.014 1.312 0 2.637-.028 3.949l5.739.211a.06.06 0 0 1 .056.056c0 .043-.014.071-.056.071l-5.768.719-.042 1.72c-.099 2.764-.24 5.528-.536 8.292-.028.211-.324.197-.352 0-.339-3.272-.494-6.543-.578-9.829l-5.063.635Zm8.546 2.383c.042.085.098.155.155.226l4.033 4.554c.07.085.225 0 .169-.113l-2.595-5.499a.98.98 0 0 0-1.297-.465.976.976 0 0 0-.465 1.297Zm-9.871 2.524a.936.936 0 1 0 1.339 1.311c.057-.056.113-.141.156-.211l2.82-5.231c.056-.099-.085-.198-.155-.113l-4.16 4.244Zm15.017-16.188c.297-.028.762.028 1.044-.127.084-.042.084-.183 0-.239-.282-.17-.733-.113-1.044-.127-.592-.014-2.115-.071-2.904-.085.042-.564.07-1.128-.029-1.692a.357.357 0 0 0-.423-.296.376.376 0 0 0-.296.296c-.07.367-.07.747-.056 1.114.014.183.014.367.028.55-2.214-.071-4.851-.141-7.361-.212 0-.112.014-.225.014-.338 0-.381-.014-.747-.141-1.114-.112-.339-.606-.339-.719 0-.155.465-.155.945-.127 1.438-1.269-.028-2.481-.056-3.581-.084a.676.676 0 1 0 0 1.353s2.947-.07 3.68-.084c.056.62.141 1.241.268 1.847.028.127.212.127.24 0 .084-.367.141-.747.183-1.114l.085-.747c2.185-.057 5.02-.141 7.501-.212l.085.959c.042.367.085.747.141 1.114.014.07.07.113.127.099.056-.014.099-.043.099-.099.098-.705.169-1.396.225-2.101.677-.014 1.326-.042 1.904-.057l1.057-.042Zm-15.257 8.912c2.792-1.41 5.26-3.92 7.135-6.458.085.155.169.296.268.451 1.41 2.186 3.384 3.934 5.457 5.485.353.268.691.508 1.072.748 1.029.606 1.918-.875.888-1.495a25.876 25.876 0 0 1-4.004-2.764c-1.227-1.029-2.383-2.186-3.173-3.582-.169-.31-.606-.338-.832-.07-.254.31-.522.635-.804.945-1.636 1.833-3.469 3.539-5.612 4.724-.353.197-.705.366-1.072.521-1.015.48-.352 1.946.677 1.495Z" fill="#65B49C"/><path d="M43.53 152.432c2.193.797 4.187 2.591 6.58 2.193 2.192-.399 3.389-2.991 4.784-4.785 2.392-3.19 6.38-5.184 10.367-5.782 3.987-.598 8.174.2 11.962 1.595 2.99.997 6.18 2.592 9.17 1.795 1.596-.399 2.792-1.197 4.387-1.795 5.582-2.392 12.56-.797 16.547 3.589.797.797 1.396 1.794 2.392 2.592 4.187 3.189 11.165-.599 15.152 2.791 2.193 1.794 2.592 5.183 1.794 7.775-.797 2.791-2.591 4.984-4.386 7.177-4.386 5.582-8.971 10.965-13.357 16.547-1.396 1.595-2.592 3.389-4.386 4.386-2.193 1.595-4.984 2.193-7.576 2.592-12.36 2.592-24.92 5.383-37.48 3.987-4.586-.398-9.37-1.794-11.962-5.383-1.396-1.993-1.795-4.585-2.592-6.778-1.196-3.987-3.39-7.775-5.582-11.364-2.393-3.987-6.38-8.572-6.18-13.357 0-6.978 4.784-7.775 10.366-7.775Z" fill="#E64455"/><path d="M94.966 147.846c2.592.598 4.785 2.193 6.579 3.987 1.197 1.196 2.193 2.592 3.788 2.991 1.595.598 3.589.199 5.383.199s3.788.399 4.586 1.994c.598 1.395-.2 3.19-1.396 3.987-1.196.797-2.791.997-4.386.997-1.595 0-3.19-.2-4.386.797-.798.798-1.196 1.795-1.794 2.791-.798 1.595-1.994 3.19-3.589 3.788-.598.2-1.196.399-1.595.2-.598-.2-.997-.798-1.196-1.595-.598-1.795-.598-3.788-.399-5.582.2-1.795.2-3.788-.797-5.583-.798-1.595-2.99-2.99-4.586-2.193-.398.2-.797.399-1.196.399-.398 0-.598-.399-.797-.598-1.595-1.994-2.393-3.389-.2-5.383 1.197-.997 3.988-1.595 5.981-1.196Z" fill="#F34D60"/><path d="M40.142 164.393c1.395 2.393 4.186 3.987 6.579 2.791.997-.398 1.794-1.196 2.79-.997 1.795.399 1.795 3.39 3.39 4.386 1.395.997 3.39-.398 4.984.2 2.791.997 2.592 6.38 5.383 7.177 1.196.199 2.193-.399 2.99-1.396.798-.797 1.396-1.993 1.994-2.99 2.592-3.987 7.775-5.582 11.962-3.788.997.399 1.993.997 2.99.797.997-.199 1.795-.996 2.393-1.594.797-.798 1.794-1.595 2.99-1.795 1.196-.199 2.392 0 3.19.798 1.196 1.395.399 3.588.797 5.383.798 3.189 4.586 4.386 7.576 3.389 2.991-.997 4.984-3.589 7.377-5.782 1.395-1.395 2.99-2.592 4.784-2.193.798.2 1.396.598 2.194.798 1.196.199 2.392-.798 3.189-1.795.798-.996 1.396-2.392 2.393-3.189.199-.2.598-.399.997-.399 1.196 0 1.196 1.794.996 2.99-2.392 7.776-9.968 12.162-14.155 18.94-1.395 2.193-2.392 4.585-4.186 6.579-1.595 1.794-3.589 2.99-5.782 3.788-4.386 1.595-9.37 1.395-13.955.598-4.586-.798-9.171-2.193-13.956-2.791-3.588-.399-7.177-.399-10.566-1.396-2.592-.797-5.183-2.193-7.576-3.588-1.595-.798-2.99-1.795-4.187-3.19-.797-.997-1.395-2.193-2.192-3.389-2.393-4.187-5.583-7.775-7.975-11.962-2.392-4.187-3.987-9.37-2.592-14.155.2-.399 2.392 0 2.592.199.797.598.598.997.797 1.994.2 1.794.598 3.788 1.795 5.582Z" fill="#CA505E"/><path d="M117.698 186.921c-.2 2.592-1.197 4.785-1.197 4.785l-38.078-1.994-17.744.997-11.762.598-4.187.2-4.186.199s-.2-.199-.2-.797c-.2-.798-.598-2.393-.797-3.988-.2-2.591 1.595-6.778 1.595-6.778h11.563s1.794 5.183 11.364 5.183c9.569 0 9.968-10.566 9.968-10.566v-1.595l4.784.798 4.785-.798v1.595s.399 10.566 9.968 10.566c9.57 0 11.364-5.183 11.364-5.183h11.563s.399 1.196.997 2.592c0 1.395.399 2.99.2 4.186Z" fill="#F2D065"/><path d="M115.299 193.101H42.133v13.557h73.166v-13.557Z" fill="#EFC745"/><path d="M73.436 130.701h-3.788c-1.196 0-2.791.399-4.386.598-1.595.399-3.589.797-5.582 1.196-1.994.598-3.987 1.196-6.18 1.994-2.193.797-4.187 1.595-6.18 2.592-1.994.996-3.789 2.193-5.384 3.389-9.37 7.177-7.177 19.537-1.993 27.512.2.399.399.598.598.997.2.199.399.598.399.598.199.199.199.399.199.399v.199l-2.193 1.595-1.396 1.395s-.199 0-.398-.199c-.2 0-.399-.199-.798-.399l-2.79-1.395-1.795-1.196c-.399-.399-1.196-.798-1.794-1.396-.4-.199-.599-.598-.997-.797-.399-.2-.598-.598-.997-.997l-.997-.997c-.2-.399-.598-.797-.797-1.196-.2-.399-.598-.798-.798-1.196-.2-.399-.598-.798-.797-1.197-.399-.797-.798-1.794-1.196-2.791-.4-.996-.599-1.993-.997-2.99 0-.598-.2-.997-.2-1.595 0-.199 0-.598-.199-.797v-3.988c0-.399 0-.997.2-1.395V146.849c.199-1.196.598-2.392 1.196-3.588.598-1.396 1.595-2.592 2.79-3.788 2.194-2.193 4.785-3.987 7.577-5.184a36.637 36.637 0 0 1 8.572-2.99 67.3 67.3 0 0 1 8.174-1.794c2.592-.399 4.984-.798 7.377-.997 2.193-.199 4.386-.399 6.18-.598 1.794-.2 3.39-.2 4.785-.399 1.196-.199 2.392-.399 2.99-.399.399 0 .598-.199.797-.199h.2l.598 3.788Z" fill="#F2D065"/><path d="M85 146.451c0 1.794-.2 3.389-.399 5.183 0 .399 0 .598-.2.997-.198.997-.398 1.794-.597 2.791 0 .199-.2.399-.2.598 0 .199-.199.399-.199.598-.2.399-.2.798-.399 1.196-.2.399-.2.798-.398 1.197-.2.398-.2.598-.4.996-.198.399-.198.598-.398.798-.2.199-.2.598-.399.797a14.397 14.397 0 0 1-.797 1.396h-7.177s-.399-.598-.798-1.396c-.199-.398-.598-.997-.797-1.595-.2-.398-.2-.598-.399-.996 0-.2 0-.2-.2-.399 0-.2-.199-.399-.199-.798-.199-.398-.199-.797-.398-1.196-.2-.399-.2-.797-.399-1.196-.2-.797-.399-1.794-.598-2.791a30.423 30.423 0 0 1-.598-5.981c0-1.994 0-4.187.398-5.981.2-1.396.599-2.791.997-3.987.2-.399.2-.997.4-1.396.198-.797.597-1.395.796-2.193.4-.598.599-1.196.798-1.595.598-.797.997-1.395.997-1.395h7.177s.399.598.997 1.395c.2.399.598.997.797 1.595.2.598.598 1.396.798 2.193.598 1.595.996 3.389 1.395 5.184.2 1.794.399 3.987.399 5.981ZM134.639 150.039v3.588c0 .2 0 .599-.199.798 0 .598-.199.997-.199 1.595-.2.997-.599 1.993-.997 2.99-.399.997-.798 1.795-1.196 2.791-.2.399-.599.798-.798 1.197-.199.398-.598.797-.797 1.196-.2.398-.598.797-.798 1.196a2.402 2.402 0 0 1-.997.997l-.996.997c-.399.398-.599.598-.997.797-.598.598-1.197.997-1.795 1.396l-1.794 1.196c-1.196.598-1.994 1.196-2.791 1.395-.399.2-.598.2-.797.399-.2 0-.399.199-.399.199l-3.788-2.99v-.199s.199-.2.199-.399c.2-.2.2-.399.399-.598.199-.2.399-.598.598-.997 5.184-7.975 7.377-20.335-1.794-27.313-1.595-1.196-3.389-2.392-5.383-3.389-1.994-.997-4.187-1.994-6.18-2.592-2.193-.797-4.187-1.395-6.18-1.994-1.994-.598-3.788-.996-5.583-1.196-1.595-.398-3.19-.598-4.386-.598h-3.987l.2-1.395.199-.997.199-1.396h.2c.199 0 .398 0 .797.2.797.199 1.794.398 2.99.398 1.197.2 2.791.399 4.785.399 1.794.199 3.788.399 6.18.598 2.193.2 4.785.598 7.377.997 2.592.399 5.383.997 8.174 1.794 2.791.798 5.781 1.795 8.572 2.991 2.791 1.395 5.583 3.19 7.576 5.183 2.193 2.193 3.589 4.785 3.988 7.377v1.794c0 .399 0 .997.199 1.396l.199.199Z" fill="#F2D065"/><path d="M85 146.45c0 1.994-.2 4.187-.599 5.981-.2.997-.399 1.795-.598 2.791 0 .2-.2.399-.2.599.4-3.589.4-6.978.2-10.567-.2-1.993-.399-4.186-1.196-5.981-.798-1.993-1.994-3.588-3.788-4.585-1.994-.997-4.785-.997-6.779.199-.598.399-1.196.798-1.794 1.396.2-.399.2-.997.399-1.396.2-.797.598-1.395.797-2.193.399-.598.598-1.196.798-1.595.598-.797.997-1.395.997-1.395h7.177s.398.598.996 1.395c.2.399.599.997.798 1.595.2.598.598 1.396.797 2.193.599 1.595.997 3.39 1.396 5.184.399 2.193.598 4.386.598 6.379ZM71.442 130.7h-.797c-1.196 0-2.791.399-4.585.598-1.795.399-3.589.798-5.583 1.197-1.993.598-4.186 1.196-6.38 1.993-1.993.798-4.186 1.795-6.379 2.791-1.994.997-3.987 2.193-5.582 3.39-7.576 5.582-7.576 14.553-4.386 22.129.797 1.794 1.595 3.589 2.79 5.184.2.398.4.598.599.996.2.2.399.598.399.598.2.2.2.399.2.399v.2l-2.194 1.594c-.598.399-1.395.798-2.193 1.197-.2 0-.598-.2-.797-.399a8.382 8.382 0 0 1-2.592-1.396l-1.794-1.196c-.598-.399-1.197-.997-1.994-1.395-.399-.2-.598-.598-.997-.798l-.797-.797-.2-.2-.997-.997c-.199-.398-.598-.797-.797-1.196-.399-.398-.598-.797-.797-1.196-.2-.399-.598-.797-.798-1.196-.598-.798-.797-1.794-1.395-2.791-.4-.997-.599-1.994-.997-2.991 0-.598-.2-.996-.2-1.595 0-.199 0-.598-.199-.797v-3.987c0-.399 0-.997.2-1.396V146.849c.199-1.196.598-2.392 1.196-3.589-.599 1.197-.997 2.592-.997 3.988-.399 4.386.598 8.971 3.588 12.161.997 1.196 2.592 1.993 3.988 1.395.797-.398 1.196-1.196 1.595-1.993 3.19-6.579 1.794-13.956 7.575-19.339 7.177-6.579 18.74-8.971 28.11-10.367 1.596 0 3.789.2 4.187 1.595ZM134.441 152.431v1.396c0 .199 0 .598-.199.797 0 .598-.2.997-.2 1.595-.199.997-.598 1.994-.997 2.991-.398.997-.797 1.794-1.196 2.791-.199.399-.598.797-.797 1.196-.2.399-.598.798-.798 1.196-.199.399-.598.798-.797 1.196-.2.399-.598.798-.997.997l-.997.997-.199.199c-.2.2-.598.399-.798.798-.598.598-1.196.997-1.794 1.395l-1.794 1.197c-1.196.598-1.994 1.196-2.791 1.395-.399.2-.598.2-.798.399-.199 0-.399.199-.399.199l-3.787-2.99v-.2s.199-.199.199-.398c.199-.2.199-.399.399-.598.199-.2.398-.598.598-.997.797-1.196 1.395-2.393 1.993-3.788 3.589-7.775 3.988-17.744-3.788-23.724-1.594-1.197-3.389-2.393-5.382-3.39-1.994-.996-4.187-1.993-6.181-2.591-2.193-.798-4.186-1.396-6.18-1.994-1.994-.598-3.788-.997-5.582-1.196-1.595-.399-3.19-.598-4.386-.598h-1.595c-.598-.598-1.396-.997-2.193-1.396-.2 0-.399-.199-.598-.199-.399-.2-.798-.2-.798-.798 0-.199.599-.199 1.595-.199 2.193.199 6.18 1.196 6.58 1.196 2.99.798 5.78 1.196 8.572 1.794 6.579 1.396 12.56 3.19 17.743 8.772 2.991 3.19 4.984 6.978 6.779 10.766.997 1.994 2.392 5.782 4.785 6.779 2.791.996 5.183-1.994 6.18-4.187.399-.399.598-.598.598-.798Z" fill="#E9C245"/><path d="m86.596 95.413-4.785 8.971H72.84l-5.582-8.971h19.338Z" fill="#E6A73F"/><path d="m91.578 116.546-1.595-.798-8.374-3.588v-7.975l7.377-3.788 2.592-1.395v17.544ZM73.238 104.185v7.975l-9.57 4.186-.398.2V99.002l2.193 1.196 7.775 3.987Z" fill="#E6A73F"/><path d="M85.797 119.137c0 4.187-3.787 7.576-8.373 7.576-4.585 0-8.373-3.389-8.373-7.576v-1.196c.598-3.588 3.987-6.379 8.174-6.379.598 0 1.196 0 1.794.199 3.987.797 6.778 3.788 6.778 7.376Z" fill="#E6A73F"/><path d="m71.443 124.52-1.595 6.978h15.151l-1.794-6.978H71.443Z" fill="#CE963B"/><path d="M85.797 119.138c0 4.186-3.787 7.575-8.373 7.575-4.585 0-8.373-3.389-8.373-7.575v-1.197c.598 1.994 1.993 3.788 3.987 4.586 2.99 1.196 6.779-.2 8.573-2.991.598-.997.996-2.392.797-3.588-.2-.997-.997-1.795-1.595-2.592-.598-.598-.996-1.196-1.595-1.595 3.788.798 6.58 3.788 6.58 7.377Z" fill="#AA8343"/><path d="M127.263 167.384c-.2.199-.598.398-.798.797-.598.598-1.196.997-1.794 1.396l-1.794 1.196c-1.196.598-1.994 1.196-2.791 1.396-.399.199-.598.199-.798.398-.199 0-.399.2-.399.2l-3.787-2.991v-.199s.199-.2.199-.399c.199-.199.199-.399.399-.598.199-.199.398-.598.598-.997.797-1.196 1.395-2.392 1.993-3.788.798 1.595 1.396 2.791 3.589 3.389 1.994.598 3.788.399 5.383.2ZM41.74 170.175l-2.193 1.595c-.598.399-1.395.797-2.193 1.196-.2 0-.598-.199-.797-.399a8.398 8.398 0 0 1-2.592-1.395l-1.794-1.196c-.598-.399-1.197-.997-1.994-1.396-.399-.199-.598-.598-.997-.797l-.797-.798c2.591.598 4.984.598 6.978-1.794.598-.598.996-1.396 1.595-1.994.199-.199.398-.399.598-.399.797 1.795 1.594 3.589 2.79 5.184.2.399.4.598.599.997.2.199.399.598.399.598.199.199.398.399.398.598Z" fill="#CFAE41"/><path d="M56.688 182.535h-.798l-8.174-1.196-2.193-6.978 6.38-6.978v.2l4.785 14.952Z" fill="#E6A73F"/><path d="M84.401 151.634c0 .399 0 .598-.199.997-.2.997-.399 1.794-.598 2.791 0 .199-.2.399-.2.598 0 .199-.199.399-.199.598-.2.399-.2.797-.398 1.196-.2.399-.2.798-.4 1.196-.199.399-.199.598-.398.997-.2.399-.2.598-.399.798-1.196.398-2.392.398-3.588.199-2.393-.199-4.785-1.196-6.779-2.392 0-.2-.199-.399-.199-.798-.2-.399-.2-.797-.399-1.196-.2-.399-.2-.797-.398-1.196-.2-.798-.4-1.794-.599-2.791.599.598 1.197 1.196 1.994 1.595 1.396.797 2.99.996 4.386.996 2.99-.199 6.18-1.196 8.373-3.588Z" fill="#CFAE41"/><path d="m86.99 156.219-4.585 9.968h-8.971l-5.782-9.968h19.339Z" fill="#E6A73F"/><path d="m91.976 178.947-5.183-2.592-4.785-2.193v-8.772l8.373-4.984 1.595-.797v19.338ZM73.632 165.988v8.972l-7.775 3.588-2.193.997v-19.338l4.585 2.591 5.383 3.19Z" fill="#E6A73F"/><path d="M71.444 146.051c.2 1.795.598 3.988 1.994 4.985.997.797 2.592.996 3.987.996.399 0 .997 0 1.396-.199a2.4 2.4 0 0 0 .996-.997c1.795-2.791 2.194-6.379 1.595-9.769-.199-.996-.398-1.993-.996-2.791-1.396-1.993-5.383-3.588-7.377-1.794-2.193 2.193-1.794 6.978-1.595 9.569ZM29.577 138.875c-2.592 2.393-4.186 5.782-4.186 9.171 0 2.392 1.196 4.785 3.19 5.782.398.199.797.199 1.196.199.398-.199.598-.399.598-.797 3.19-4.985 3.19-11.763 7.576-15.75 2.193-1.994 1.594-3.589-1.197-2.791-2.392.598-5.183 2.392-7.177 4.186ZM127.263 138.875c2.592 2.393 4.187 5.782 4.187 9.171 0 2.392-1.197 4.785-3.19 5.782-.399.199-.798.199-1.196.199-.399-.199-.598-.399-.598-.797-3.19-4.985-3.19-11.763-7.576-15.75-2.193-1.994-1.595-3.589 1.196-2.791 2.392.598 5.183 2.392 7.177 4.186Z" fill="#FBE087"/><path d="m86.99 156.219-4.784 9.968h-8.972l-5.582-9.968h1.795c.199.598.398.997.598 1.196 1.595 2.393 4.784 3.39 7.775 2.791 2.592-.598 4.984-2.193 6.778-3.987h2.393Z" fill="#DDA243"/><path d="M90.381 160.406c-.997 1.196-2.591 1.994-3.588 3.389a13.562 13.562 0 0 0-2.193 6.18c0 2.393.598 4.586 1.794 6.579l-4.585-2.193v-8.971l8.572-4.984ZM73.635 165.988v8.972l-7.776 3.588c0-1.395 1.396-2.392 2.193-3.389a8.862 8.862 0 0 0 2.393-7.975c-.2-1.595-1.196-3.189-2.193-4.585l5.383 3.389Z" fill="#DDA243"/><path d="M84 169.976a5.786 5.786 0 0 1-5.78 5.781 5.786 5.786 0 0 1-5.782-5.781 5.786 5.786 0 0 1 5.781-5.782c3.19-.199 5.782 2.392 5.782 5.782Z" fill="#D34C5B"/><path d="M81.81 169.975a3.574 3.574 0 0 1-3.589 3.589 3.574 3.574 0 0 1-3.588-3.589 3.574 3.574 0 0 1 3.588-3.588 3.574 3.574 0 0 1 3.589 3.588Z" fill="#F2D065"/><path d="M74.032 156.817c-.399 0-.997.2-.997.598 0 .2 0 .598.2.798.598.797 1.594 1.196 2.591 1.395.997.2 1.994 0 2.99-.398 1.396-.399 1.994-1.795.4-2.393-1.197-.797-3.39-.399-5.184 0ZM86.992 168.779c0 1.196 0 2.392.399 3.389.399.798.997 1.396 1.794 1.196.798-.199 1.196-.996 1.396-1.794.398-1.395.398-2.791.398-4.187 0-.996.2-3.787-.797-4.186-1.994-1.396-3.19 4.386-3.19 5.582ZM64.663 169.975c0 1.197.399 2.592 1.396 3.39.2.199.399.199.598.199.2 0 .598-.199.598-.399 1.396-1.595 2.193-6.579.2-7.974-2.991-2.393-2.991 3.19-2.792 4.784ZM74.434 115.549c-.2 0-.598.199-.798.199l-.598.599c-.996 1.196-.598 3.189.4 4.186 1.195.997 2.99 1.196 4.385.598 1.396-.797 2.193-2.193 2.393-3.788 0-.398 0-.996-.2-1.395-.997-1.396-4.386-.798-5.582-.399Z" fill="#EAA73B"/><path d="m89.983 115.748-8.374-3.588v-7.975l7.377-3.788-.399.399c-.997 1.196-1.794 2.592-2.193 4.187-.399.996-.598 2.193-.399 3.189.2 2.991 2.393 5.184 3.988 7.576Z" fill="#DDA243"/><path d="m86.596 95.413-4.785 8.971H72.84l-5.582-8.971h.598c1.196 1.794 2.193 3.589 4.386 4.585 1.994.997 4.386 1.396 6.579.798 2.193-.598 4.187-1.794 5.582-3.589.598-.598.997-1.196 1.595-1.794h.598Z" fill="#DDA243"/><path d="M73.237 104.185v7.975l-9.37 3.987c0-.797.798-1.196 1.396-1.595 1.993-1.395 3.588-3.189 4.186-5.382.798-2.193.4-4.785-.996-6.779-.798-.997-1.795-1.595-2.791-2.193l7.575 3.987Z" fill="#DDA243"/><path d="M84.002 108.571c0 3.39-2.99 5.981-6.778 5.981-3.788 0-6.779-2.791-6.779-5.981 0-3.389 2.99-5.981 6.779-5.981 3.788 0 6.778 2.791 6.778 5.981Z" fill="#D34C5B"/><path d="M75.03 104.584c-1.396.598-2.593 1.994-2.593 3.389 0 .997.4 2.193 1.396 2.791.997.598 1.994.798 3.19.399.2 0 .2 0 .2-.199 0-.2.199-.2.199-.399v-2.592c0-.598 0-1.395.598-1.595.598-.199 1.196 0 1.794 0 1.794-.199.797-2.193-.2-2.591-1.196-.2-3.787.398-4.585.797Z" fill="#F34D60"/><path d="M74.83 96.61c-.4 0-.798.199-1.197.398-.399.2-.598.598-.797.997-.2.797.598 1.395 1.395 1.794 2.193.798 4.586.399 6.779-.598 1.594-.598 1.794-2.592-.2-2.791-1.993-.399-4.186 0-5.98.2ZM87.59 109.568c.2.399.4.598.599.797.399.2.797 0 1.196-.199.399-.399.399-.798.598-1.196.399-1.396.399-2.791.399-4.386 0-.598-.2-2.393-.997-2.592-.797 0-1.395 1.396-1.595 1.994-.997 1.794-.997 3.788-.2 5.582ZM64.862 110.166c.2.2.598.598.997.399.2 0 .2-.199.398-.199.997-.997 1.595-2.592 1.595-3.988 0-1.196-.199-3.588-1.794-3.588-2.99-.2-2.193 5.981-1.196 7.376Z" fill="#EAA73B"/><path d="M50.708 157.017c1.595.598 3.589.997 4.985.199.797-.399 1.395-1.196 1.993-1.994a22.97 22.97 0 0 1 2.791-3.389c.798-.797 1.595-1.595 2.592-2.193.997-.399 2.392-.399 3.19.399 1.395 1.395.797 3.788-.598 5.183-1.396 1.396-3.19 2.592-3.988 4.386-.598 1.396-.598 2.991-.398 4.586.2.997.398 1.993.2 2.99-.2 1.196-1.197 2.393-2.393 2.791-1.197.399-2.592 0-3.589-.797-1.395-1.196-1.395-3.389-2.592-4.785-.996-1.196-2.591-1.993-4.186-2.193-1.595-.399-3.19-.399-4.785-.997-1.595-.398-2.99-1.395-3.589-2.791-2.591-6.978 8.174-2.193 10.367-1.395Z" fill="#F34D60"/><path d="M47.516 195.494c-1.595 1.595-2.791 4.186-1.994 6.379.598 2.193 2.392 3.788 4.585 4.586.2 0 .2 0 .4.199h-8.374v-13.557h8.971c-1.196.997-2.99 1.994-3.588 2.393ZM115.301 193.102v13.557H72.039c6.58-.598 13.158-.997 19.737-.997 5.184 0 10.566.399 15.152-1.794 3.19-1.595 5.781-4.984 4.585-8.374-.199-.598-.598-1.196-.598-1.993 0-.2 0-.399.199-.598h4.187v.199Z" fill="#E9C245"/><path d="M119.688 209.25v1.197a3.574 3.574 0 0 1-3.588 3.588H41.936a3.574 3.574 0 0 1-3.588-3.588v-1.197c0-1.196.598-2.193 1.395-2.791.598-.598 1.396-.797 2.393-.797h74.362c1.396 0 2.592.797 3.19 1.993v1.595Z" fill="#E6A73F"/><path d="M119.688 209.25v1.197a3.574 3.574 0 0 1-3.588 3.588H41.936a3.574 3.574 0 0 1-3.588-3.588v-1.197c0-1.196.598-2.193 1.395-2.791-.399 1.396-.399 2.791.798 3.788 1.993 1.396 4.585.997 6.778.997 2.99 0 6.18.199 9.17.199 5.982.2 11.963.798 17.944.997 7.775.2 15.35-.199 23.126-.797 6.579-.598 14.354 0 20.534-3.19.399-.199.798-.399 1.396-.598.199.199.199.797.199 1.395Z" fill="#DDA243"/><path d="M103.339 207.855c.199 0 .598 0 .797.199.399.399.2.997 0 1.396-.398.398-.797.398-1.395.598-3.19.598-6.38-.2-9.37-.399-3.788-.199-7.377.399-11.165.399-.797 0-4.386.598-4.386-.997 0-1.196 1.994-1.396 2.791-1.595 7.177-1.196 15.352-.598 22.728.399ZM65.262 207.456c.598 0 .997 0 1.395.199.4.2.997.599.997.997 0 .399-.2.997-.598 1.196-.398.2-.797.399-1.395.599-1.396.199-2.99.199-4.386.199-1.994 0-3.988 0-5.782-.399-2.99-.399-1.994-2.791.399-2.99 3.19.199 6.38.398 9.37.199Z" fill="#EAA73B"/><path d="M59.281 196.092c-1.196 0-2.193 0-3.19.598-.997.399-1.794 1.396-1.794 2.592 0 .997.797 1.794 1.595 2.392 2.392 1.794 5.781 1.994 8.772 1.994 5.383 0 10.965-.2 16.348-.798 3.19-.398 6.38-.797 9.37-2.193.797-.398 1.595-.997 1.395-1.794-.199-.399-.398-.797-.797-.997-1.994-1.395-3.589-1.196-5.782-.997-2.79 0-5.781-.398-8.772-.598-5.781-.398-11.364-.398-17.145-.199Z" fill="#FBE087"/><path d="M117.694 186.921c-.2 2.592-1.196 4.785-1.196 4.785l-38.079-1.994-17.743.997c-3.988 0-7.776.399-11.763.598-.797 0-1.595.2-2.392.2h-1.795c-1.594 0-2.99 0-4.585-.599-.2-.797-.598-2.392-.797-3.987-.2-2.592 1.594-6.778 1.594-6.778h3.19c-.797 1.595-1.595 2.99 0 4.785 1.396 1.794 3.988 2.392 6.18 2.99 4.187.797 8.573 1.396 12.96 1.794 2.79.2 5.582.2 8.173-.797 1.595-.798 2.99-1.794 4.785-2.592 3.19-1.196 6.579-.199 9.769.798 6.18 1.794 12.959 3.588 19.139 1.395 4.186-1.395 7.775-4.785 11.962-5.781.398 1.395.797 2.99.598 4.186Z" fill="#E9C245"/><path d="M119.688 191.706c0 .797-.398 1.595-.996 2.193-.598.598-1.396.997-2.193.997h-75.16c-1.795 0-3.19-1.396-3.19-3.19 0-.797.199-1.396.797-1.994l.2-.199c.597-.598 1.395-.997 2.192-.997h75.36c.997 0 1.994.399 2.392 1.196.399.598.598 1.197.598 1.994Z" fill="#E6A73F"/><path d="M119.688 191.706c0 .797-.398 1.595-.996 2.193-.598.598-1.396.997-2.193.997h-75.16c-1.795 0-3.19-1.396-3.19-3.19 0-.798.199-1.396.797-1.994.2.798.797 1.396 1.395 1.994 1.595 1.196 3.988 1.794 5.782 1.993 4.386.598 8.573 0 12.959-.398 4.784-.2 9.37-.2 14.155-.2 7.775.2 15.75.399 23.525-.598 7.376-.797 14.952-1.196 22.328-2.99.399.797.598 1.395.598 2.193Z" fill="#DDA243"/><path d="M47.32 191.507c-.2 0-.599.199-.798.398-.399.399-.2.997.2 1.396.398.399.797.399 1.395.598 3.19.399 6.18-.399 9.37-.797 3.788-.399 7.377 0 11.164 0 .798 0 4.386.398 4.386-1.197 0-1.196-1.993-1.395-2.79-1.395-7.577-1.396-15.551-.399-22.928.997ZM85.4 189.712c-.598 0-.997 0-1.395.2a2.4 2.4 0 0 0-.997.997c0 .398.2.996.598 1.196.399.199.797.398 1.395.398 1.396.2 2.99.2 4.386 0 1.994-.199 3.988-.199 5.782-.598 2.99-.398 1.794-2.791-.598-2.99-2.99.399-6.18.797-9.17.797Z" fill="#EAA73B"/><path d="m47.12 165.39-1.395 8.971-6.978 2.193-3.389-3.189-3.588-3.19 14.952-4.586.399-.199Z" fill="#E6A73F"/><path d="m47.118 165.39-1.196 8.971-6.978 2.193-3.39-3.189c1.197.398 2.393.598 3.59.797 1.195 0 2.392-.199 3.388-.598.997-.598 1.795-1.595 2.393-2.592.797-1.196 1.196-2.592 1.595-3.987 0-.399.2-.997.398-1.396l.2-.199Z" fill="#DDA243"/><path d="m55.89 182.536-8.174-1.197-2.193-6.977 6.38-6.978v.199c-.399.598-.797.997-.997 1.396-.797 1.395-1.395 2.791-1.595 4.386-.199 2.791.997 5.781 3.19 7.376.798.598 1.994.997 2.99 1.396l.4.399Z" fill="#DDA243"/><path d="M48.117 177.352c.798 2.592-.598 5.184-3.19 5.981-2.591.797-5.183-.598-5.98-3.19-.798-2.592.598-5.183 3.19-5.981 2.591-.797 5.382.598 5.98 3.19Z" fill="#D34C5B"/><path d="M46.12 178.947c0 1.395-1.195 2.392-2.392 2.392-1.196 0-2.392-1.196-2.392-2.392 0-1.396 1.196-2.393 2.392-2.393 1.197 0 2.393.997 2.393 2.393Z" fill="#F2D065"/><path d="M41.342 170.972c.797-.598 1.595-1.196 1.595-2.193 0-.199 0-.199-.2-.399 0-.199-.199-.199-.398-.199-1.795-.399-5.981-.399-6.18 1.994-.4 3.389 3.987 1.794 5.183.797ZM51.106 176.555c.399.797 1.196 1.595 2.193 1.993h.399c.2 0 .2-.199.2-.398 0-1.197-.798-5.383-1.994-5.782-2.393-.797-1.197 3.389-.798 4.187Z" fill="#EAA73B"/><path d="m125.468 170.375-2.193 1.794-4.984 4.386-6.978-2.393-.797-7.775-.2-1.395 15.152 5.383Z" fill="#E6A73F"/><path d="m123.275 172.168-4.984 4.187-6.978-2.393-.797-7.775c.199.399.199.798.398.997 1.396 3.589 3.19 5.981 7.377 5.782 1.794 0 3.389-.399 4.984-.798Z" fill="#DDA243"/><path d="m111.711 174.361-2.193 6.978-8.373 1.196h-.598l4.785-15.152 3.389 3.788 2.99 3.19Z" fill="#E6A73F"/><path d="m111.711 174.362-2.193 6.977-8.373 1.197c0-.2 0-.2.199-.399s.399-.399.797-.598c1.396-.798 3.19-1.196 4.386-2.193 2.193-1.595 3.39-4.586 2.592-7.377 0-.199-.199-.598-.199-.797l2.791 3.19Z" fill="#DDA243"/><path d="M113.707 183.532a4.784 4.784 0 1 0 0-9.569 4.784 4.784 0 0 0 0 9.569Z" fill="#D34C5B"/><path d="M116.101 178.947c0 1.395-1.196 2.392-2.392 2.392-1.396 0-2.393-1.196-2.393-2.392 0-1.396 1.197-2.393 2.393-2.393 1.196-.199 2.392.997 2.392 2.393Z" fill="#F2D065"/><path d="m103.536 174.76-.598 2.99c0 .399 0 .798.199 1.197.199.398.797.598 1.395.398.399-.199.798-.598 1.197-.996 1.196-1.396 2.99-5.184 1.595-6.978-1.595-2.592-3.39 2.392-3.788 3.389ZM113.505 167.184h-.399c-.2 0-.2.2-.2.399-.398 1.396.2 2.991 1.595 3.788.997.598 1.994.598 3.19.598 1.396 0 6.18-.598 3.19-2.592-2.193-1.196-5.183-1.794-7.376-2.193Z" fill="#EAA73B"/></g><defs><clipPath id="a"><path fill="#fff" d="M0 0h320v215H0z"/></clipPath></defs></svg>