<svg width="302" height="206" fill="none" xmlns="http://www.w3.org/2000/svg"><g clip-path="url(#a)"><path d="M74.032 138.892c-1.17-.26-2.357.47-2.701 1.627l-17.07 58.25a2.313 2.313 0 0 0 1.558 2.864l87.677 25.758c1.241.357 2.506-.317 2.863-1.559l17.305-58.086a2.255 2.255 0 0 0-1.113-2.668l-.475-.286a1.498 1.498 0 0 0-.572-.214l-42.879-12.802c-.085-.012-.946-.313-1.031-.326l-43.273-12.471c-.078-.055-.163-.068-.29-.087Z" fill="#F37E60"/><path d="M74.202 138.917s31.713 2.298 43.429 12.582l-17.82 60.684-43.405-12.75 17.796-60.516Z" fill="#FBFDFA"/><path d="M56.403 199.433s22.388 1.473 35.85 7.27c4.135 1.78 7.554 5.48 7.554 5.48l-43.404-12.75ZM106.165 181.332a.69.69 0 0 1-.361-.183c-9.367-8.381-35.373-10.478-35.626-10.515-.386-.015-.638-.354-.63-.698.015-.386.354-.638.698-.63.084.013 6.738.527 14.484 2.11 10.471 2.117 17.841 5.068 21.948 8.784.265.255.293.648.031.954-.109.156-.333.209-.544.178ZM104.071 188.441a.686.686 0 0 1-.361-.183c-9.36-8.423-35.33-10.471-35.626-10.515-.386-.014-.637-.354-.63-.698.015-.386.354-.637.698-.63.085.013 6.738.527 14.484 2.11 10.472 2.117 17.842 5.068 21.949 8.785.264.255.292.647.031.953-.11.157-.334.21-.545.178ZM101.979 195.551a.693.693 0 0 1-.361-.183c-9.403-8.43-35.366-10.52-35.62-10.558-.386-.014-.637-.354-.63-.698.015-.386.354-.637.698-.629.085.012 6.739.527 14.485 2.109 10.47 2.118 17.84 5.068 21.948 8.785.264.255.292.647.031.954a.595.595 0 0 1-.551.22ZM85.582 195.875l-.085-.013c-10.303-2.955-21.433-3.833-21.56-3.852-.385-.014-.637-.353-.629-.697.014-.386.354-.638.698-.63.126.019 11.383.915 21.813 3.889.373.099.576.474.442.799a.611.611 0 0 1-.68.504Z" fill="#B39143" opacity=".25"/><path d="M161.795 164.664s-27.941-15.198-43.338-12.913l-17.82 60.684 43.362 12.744 17.796-60.515Z" fill="#FBFDFA"/><path d="M154.487 172.293c-.084-.013-.169-.025-.204-.074-.241-.122-23.22-12.424-35.687-10.395-.357.077-.705-.191-.782-.547-.076-.357.191-.705.548-.782 5.436-.874 13.237.63 23.191 4.483 7.383 2.866 13.255 6.025 13.298 6.032a.662.662 0 0 1 .254.9c-.044.296-.322.427-.618.383ZM152.401 179.361c-.084-.013-.168-.026-.204-.074-.241-.122-23.22-12.425-35.687-10.395-.357.076-.705-.191-.782-.548-.076-.356.191-.705.548-.781 5.436-.875 13.237.63 23.191 4.482 7.383 2.867 13.255 6.026 13.298 6.032a.663.663 0 0 1 .254.901c-.044.295-.322.427-.618.383ZM150.312 186.47c-.085-.013-.169-.025-.205-.074-.241-.122-23.219-12.425-35.687-10.395-.357.077-.705-.191-.782-.548-.076-.356.191-.705.548-.781 5.436-.874 13.237.63 23.191 4.482 7.383 2.867 13.256 6.026 13.298 6.032a.663.663 0 0 1 .254.901c-.044.295-.322.427-.617.383ZM148.261 193.586c-.085-.013-.169-.025-.205-.074-.241-.122-23.219-12.425-35.687-10.395-.357.077-.705-.191-.781-.547-.077-.357.191-.705.547-.782 5.437-.874 13.237.63 23.192 4.483 7.382 2.866 13.255 6.025 13.297 6.031a.663.663 0 0 1 .254.901.55.55 0 0 1-.617.383ZM146.175 200.653c-.085-.013-.169-.025-.205-.074-.241-.122-23.219-12.425-35.687-10.395-.356.077-.705-.191-.781-.547-.077-.357.191-.705.547-.782 5.437-.874 13.238.63 23.192 4.483 7.383 2.866 13.255 6.025 13.297 6.031a.664.664 0 0 1 .255.901c-.093.331-.365.42-.618.383ZM144.081 207.763c-.084-.013-.169-.025-.205-.074-.24-.122-23.219-12.425-35.687-10.395-.356.076-.705-.191-.781-.548-.077-.356.191-.705.547-.781 5.437-.875 13.238.63 23.192 4.482 7.383 2.867 13.255 6.026 13.297 6.032a.663.663 0 0 1 .255.901.55.55 0 0 1-.618.383ZM134.983 210.94c-.042-.006-.127-.019-.163-.067-15.189-6.658-23.429-7.236-27.67-6.572-.356.076-.705-.191-.781-.548-.077-.356.191-.705.547-.781 8.047-1.307 19.888 2.913 28.436 6.642.325.135.48.546.345.871-.14.368-.419.499-.714.455Z" fill="#B39143" opacity=".25"/><path d="m125.862 150.393 3.58.877c.65.269.966 1.05.733 1.748l-5.787 20.065-2.069-4.363-3.865 2.488 5.508-19.933c.337-.812 1.172-1.206 1.9-.882Z" fill="#6683C2"/><path d="M92.511 147.205a.942.942 0 0 0-.778-1.151c-4.6-.684-11.356-1.386-13.021-1.504a1.092 1.092 0 0 0-1.115.826l-5.525 18.593c-.185.663.282 1.293.964 1.351 4.132.356 9.24 1.115 12.633 1.792.5.117.98-.2 1.097-.7l5.745-19.207ZM89.57 168.166c7.684 2.005 13.059 4.443 15.317 5.512a1.078 1.078 0 0 0 1.524-.679l5.67-18.701a1.058 1.058 0 0 0-.463-1.234c-5.143-3.137-10.353-4.947-15.91-6.161-.416-.105-.846.176-.951.592l-5.766 19.636c-.111.458.121.924.58 1.035Z" fill="#B39143" opacity=".25"/><path d="M274.25 160.285s-7.326-7.675-7.326-19.419l-10.232 8.372-10.349-8.372c0 11.744-7.326 19.419-7.326 19.419-.93 5.93 16.163 15 17.558 15.581 1.396-.581 18.605-9.767 17.675-15.581Z" fill="#F6B39F"/><path d="M256.693 149.238c4.651 0 9.069-1.279 12.79-3.604.698-.349 1.279-.814 1.977-1.28.581-.465 1.163-.93 1.628-1.395 5.232-4.651 8.605-11.395 8.605-18.953l-.117-31.628-50.232.116.116 31.628c0 5.698 1.977 10.93 5.116 15.116a41.608 41.608 0 0 0 3.024 3.372c1.046.931 2.209 1.861 3.488 2.675 3.953 2.558 8.605 4.069 13.605 3.953Z" fill="#FDC2B0"/><path d="M286.461 75.517c-1.047-7.093-4.302-10.116-7.675-11.279 2.442-3.256 2.907-6.628 2.907-6.628-1.976 4.303-10.232 6.28-10.232 6.28-1.396.232-2.326.697-2.326.697s-5.232-8.256-12.558-9.651c-7.325-1.28-7.558 4.419-7.558 4.419s-1.86-3.605-1.279-6.396c.465-2.907-7.907 9.302-7.907 9.302-2.907-2.093-13.837 2.675-18.605 13.256-.349.698-.581 1.396-.814 2.093-2.674.35-5.232-2.558-5.232-2.558-2.442 5.465 4.418 17.326 4.418 17.326 1.047 5.814 3.024 10 3.024 10l8.953 19.535 1.512-18.256c1.628 4.302 4.186-1.279 4.186-1.279-1.396 7.093 15.93-1.279 15.93-1.279-3.14 6.628 17.093-1.977 17.093-1.977-2.558 4.884 9.302 3.256 9.302 3.256l2.21 18.488 6.86-21.163c11.163-9.07-2.209-24.186-2.209-24.186Z" fill="#4C453D"/><path d="M264.132 113.657s7.094-3.721 11.861.581c4.767 4.303 1.512-3.256-3.372-4.651s-6.744.349-6.744.349-.582-.814-1.279-.814c-2.093-.349-3.605 5.814-.466 4.535ZM247.274 113.308s-6.976-3.837-11.86.349c-4.768 4.302-1.396-3.256 3.488-4.535 4.884-1.279 6.744.465 6.744.465s.582-.698 1.396-.814c1.86-.232 3.256 5.93.232 4.535Z" fill="#803128"/><path d="M236.46 129.587c-1.86 1.279-1.395 5.233 1.046 8.721 2.442 3.488 5.931 5.349 7.791 4.07 1.861-1.279 1.396-5.233-1.046-8.721-2.442-3.605-5.931-5.349-7.791-4.07ZM276.111 130.285c1.861 1.395 1.163 5.232-1.395 8.721-2.558 3.488-6.163 5.116-7.907 3.837-1.861-1.396-1.163-5.233 1.395-8.721 2.558-3.488 6.047-5.233 7.907-3.837Z" fill="#FF8682" fill-opacity=".47"/><path d="M260.184 128.889h-.233l-3.372-.116h-.698l-3.372-.116h-.232c-.349 0-.582.232-.582.465v1.744c0 .233.233.465.582.465h.232s1.163.233 1.396.814c0 0 0 .349 1.279.349h2.093c1.395 0 1.279-.233 1.279-.233.116-.581 1.279-.697 1.279-.697h.232c.349 0 .582-.233.582-.465v-1.745c.116-.232-.116-.465-.465-.465Z" fill="#FF8682"/><path d="M241.925 117.959c-.581 0-1.046.465-1.046 1.047v5h2.093v-5c.116-.582-.465-1.047-1.047-1.047ZM270.297 117.959c-.582 0-1.047.465-1.047 1.047v5h2.093v-5c0-.582-.465-1.047-1.046-1.047ZM262.857 136.564c-.116-.117-.349-.117-.465.116-3.837 5.116-10.465 3.14-10.465 3.14-.116 0-.349 0-.349.232 0 .116 0 .349.233.349.116 0 7.093 2.093 11.162-3.256 0-.349 0-.465-.116-.581Z" fill="#803128"/><path d="M312.508 171.099c-3.488-4.535-40.814-18.372-43.372-19.303-2.326 4.419-7.093 7.326-12.442 7.326-5.233 0-9.767-2.907-12.209-7.093l-.349-.349s-39.768 14.768-43.489 19.419c-3.72 4.651-11.627 73.139-11.627 73.139h135c.116 0-7.791-68.488-11.512-73.139Z" fill="#6683C2"/><path d="M315.298 181.448H197.973l116.628-3.373.697 3.373Z" fill="#73C4AC"/><path d="M226.692 127.843h.465a4.417 4.417 0 0 0 4.419-4.419v-19.767a4.417 4.417 0 0 0-4.419-4.419h-.465a4.417 4.417 0 0 0-4.419 4.419v19.767a4.417 4.417 0 0 0 4.419 4.419ZM286.696 127.843h-.465a4.417 4.417 0 0 1-4.419-4.419v-19.767a4.417 4.417 0 0 1 4.419-4.419h.465a4.417 4.417 0 0 1 4.419 4.419v19.767a4.417 4.417 0 0 1-4.419 4.419Z" fill="#F37E60"/><path d="M294.369 110.168v-2.907c0-.581-.233-1.046-.698-1.395-.698-7.674-5.581-39.418-37.442-39.418-31.976 0-36.046 31.744-36.511 39.418a1.658 1.658 0 0 0-.698 1.395v2.907c-1.279 0-2.442 1.047-2.442 2.442v2.558c0 1.28 1.047 2.442 2.442 2.442v2.907c0 .931.698 1.628 1.628 1.628.93 0 1.628-.697 1.628-1.628v-13.256c0-.348-.116-.581-.233-.813.233-6.512 3.256-37.559 34.186-37.559 30.814 0 34.651 30.93 35.117 37.559-.117.232-.233.465-.233.813v13.024c0 .93.698 1.628 1.628 1.628.93 0 1.628-.698 1.628-1.628v-2.907c1.279 0 2.442-1.047 2.442-2.442v-2.558c0-1.163-1.047-2.21-2.442-2.21Z" fill="#2C2636"/><path d="M304.792 219.538H203.314a3.315 3.315 0 0 1-3.314-3.314v-49.91a3.315 3.315 0 0 1 3.314-3.314h101.409a3.314 3.314 0 0 1 3.313 3.314v49.841c.069 1.864-1.449 3.383-3.244 3.383Z" fill="#CCC"/><path d="M304.792 222.437H203.314a3.315 3.315 0 0 1-3.314-3.314v-49.91a3.315 3.315 0 0 1 3.314-3.314h101.409a3.314 3.314 0 0 1 3.313 3.314v49.91c.069 1.795-1.449 3.314-3.244 3.314Z" fill="#E8E8E8"/><path d="M238.381 222.437c3.452-7.939 2.485-26.992 13.945-26.992 11.459 0 10.493 19.053 13.944 26.992 3.452 7.939 2.9 11.667 2.9 11.667h-33.688s-.553-3.728 2.899-11.667Z" fill="#D3D3D3"/><path d="M177.164 146.421a1.816 1.816 0 0 0 2.452-.717c3.808-6.946 1.248-15.693-5.706-19.496a1.802 1.802 0 0 0-1.371-.152c-.445.13-.84.43-1.074.867a1.81 1.81 0 0 0 .717 2.448c5.212 2.847 7.127 9.393 4.273 14.601a1.79 1.79 0 0 0 .709 2.449ZM168.3 140.675a1.81 1.81 0 0 0 .716 2.448 1.816 1.816 0 0 0 2.452-.718 6.646 6.646 0 0 0-2.64-9.02 1.797 1.797 0 0 0-2.445.715 1.81 1.81 0 0 0 .716 2.448 3.048 3.048 0 0 1 1.201 4.127Z" fill="#F37E60"/><path d="M186.556 133.093a20.194 20.194 0 0 1-1.687 15.481 2.403 2.403 0 0 0 .955 3.263 2.412 2.412 0 0 0 3.269-.956c3.234-5.9 3.972-12.692 2.084-19.14-1.887-6.449-6.178-11.776-12.074-14.996a2.39 2.39 0 0 0-1.831-.194 2.43 2.43 0 0 0-1.438 1.15 2.404 2.404 0 0 0 .955 3.264 20.206 20.206 0 0 1 9.767 12.128Z" fill="#F37E60"/></g><defs><clipPath id="a"><path fill="#fff" d="M0 0h302v206H0z"/></clipPath></defs></svg>