<svg width="320" height="138" viewBox="0 0 320 138" fill="none" xmlns="http://www.w3.org/2000/svg">
<g clip-path="url(#clip0_2036_897)">
<rect width="320" height="138" fill="url(#paint0_linear_2036_897)"/>
<path opacity="0.33" d="M207.62 83.751C163.095 85.3726 128.335 123.335 129.981 168.542C131.628 213.749 169.057 249.081 213.583 247.46C258.108 245.838 292.868 207.876 291.222 162.669C289.575 117.462 252.146 82.1293 207.62 83.751Z" fill="#5A79BC"/>
<path opacity="0.33" d="M261.649 25.2343C234.002 37.8858 222.016 70.9285 234.878 99.0371C247.74 127.146 280.58 139.676 308.228 127.025C335.876 114.373 347.862 81.3306 335 53.2219C322.137 25.1133 289.297 12.5828 261.649 25.2343Z" fill="#6F8CCA"/>
<path opacity="0.33" d="M223.815 -8.17133C217.991 -5.5063 215.466 1.45412 218.175 7.3752C220.885 13.2963 227.803 15.9358 233.627 13.2708C239.451 10.6057 241.975 3.64533 239.266 -2.27575C236.557 -8.19683 229.639 -10.8364 223.815 -8.17133Z" fill="#5A79BC"/>
</g>
<defs>
<linearGradient id="paint0_linear_2036_897" x1="160" y1="0" x2="160" y2="138" gradientUnits="userSpaceOnUse">
<stop stop-color="#6683C2"/>
<stop offset="1" stop-color="#8FABE9"/>
</linearGradient>
<clipPath id="clip0_2036_897">
<rect width="320" height="138" fill="white"/>
</clipPath>
</defs>
</svg>
