<svg width="300" height="123" viewBox="0 0 300 123" fill="none" xmlns="http://www.w3.org/2000/svg">
<g clip-path="url(#clip0_2036_1739)">
<rect width="300" height="123" fill="url(#paint0_linear_2036_1739)"/>
<path opacity="0.33" d="M214.704 69.6514C178.968 70.953 151.069 101.421 152.391 137.704C153.712 173.988 183.753 202.346 219.489 201.044C255.225 199.743 283.124 169.274 281.803 132.991C280.481 96.708 250.44 68.3499 214.704 69.6514Z" fill="#5A79BC"/>
<path opacity="0.33" d="M258.07 22.6808C235.88 32.8349 226.26 59.3549 236.583 81.9149C246.906 104.475 273.264 114.532 295.454 104.378C317.644 94.2237 327.264 67.7037 316.941 45.1436C306.617 22.5836 280.26 12.5266 258.07 22.6808Z" fill="#6F8CCA"/>
<path opacity="0.33" d="M227.7 -4.12559C223.026 -1.98663 221 3.5998 223.174 8.35207C225.349 13.1043 230.901 15.2228 235.575 13.0839C240.25 10.9449 242.276 5.35847 240.102 0.606208C237.927 -4.14605 232.375 -6.26455 227.7 -4.12559Z" fill="#5A79BC"/>
</g>
<defs>
<linearGradient id="paint0_linear_2036_1739" x1="150" y1="0" x2="150" y2="123" gradientUnits="userSpaceOnUse">
<stop stop-color="#6683C2"/>
<stop offset="1" stop-color="#8FABE9"/>
</linearGradient>
<clipPath id="clip0_2036_1739">
<rect width="300" height="123" fill="white"/>
</clipPath>
</defs>
</svg>
