<svg width="320" height="157" viewBox="0 0 320 157" fill="none" xmlns="http://www.w3.org/2000/svg">
<g clip-path="url(#clip0_2036_1514)">
<rect width="320" height="157" fill="url(#paint0_linear_2036_1514)"/>
<path d="M228.968 20.6725C246.347 -2.4251 278.571 -12.1372 302.472 -1.24733C338.161 15.013 349.013 74.3421 319.605 102.988C297.08 124.931 253.351 126.516 229.904 99.6882C210.423 77.3968 211.863 43.4052 228.968 20.6725Z" fill="#86A2E0"/>
<path d="M192.151 117.43C208.764 95.3512 239.565 86.0677 262.412 96.477C296.526 112.02 306.899 168.731 278.789 196.113C257.258 217.087 215.458 218.603 193.046 192.959C174.424 171.651 175.801 139.159 192.151 117.43Z" fill="#95AFE7"/>
<g style="mix-blend-mode:multiply" opacity="0.25">
<path d="M274.697 21.9894C274.158 20.4434 272.467 19.627 270.921 20.166L219.186 38.2072C217.64 38.7462 216.823 40.4371 217.362 41.9832L240.934 109.579C241.473 111.125 243.164 111.941 244.71 111.402L296.446 93.3611C297.992 92.8221 298.808 91.1312 298.269 89.5852L274.697 21.9894Z" fill="#6683C2" fill-opacity="0.52"/>
</g>
<path d="M296.533 92.7984L243.789 107.633C242.212 108.077 240.575 107.158 240.131 105.582L220.749 36.668C220.305 35.0917 221.224 33.4543 222.8 33.011L275.544 18.176C277.121 17.7327 278.758 18.6512 279.201 20.2275L298.584 89.1413C299.028 90.7177 298.109 92.355 296.533 92.7984Z" fill="#6C89C8"/>
<path d="M266.569 33.3199L238.361 41.2536C237.623 41.4612 236.856 41.0312 236.648 40.293C236.441 39.5548 236.871 38.7882 237.609 38.5805L265.817 30.6469C266.555 30.4392 267.322 30.8693 267.529 31.6075C267.737 32.3457 267.307 33.1123 266.569 33.3199Z" fill="white"/>
<path d="M276.263 45.5786L245.895 54.1198C245.157 54.3274 244.39 53.8974 244.183 53.1592C243.975 52.421 244.405 51.6544 245.143 51.4467L275.511 42.9055C276.249 42.6979 277.016 43.1279 277.223 43.8661C277.431 44.6043 277.001 45.3709 276.263 45.5786Z" fill="#E4ECF9"/>
<path d="M278.95 55.1411L248.583 63.6823C247.845 63.8899 247.078 63.4599 246.87 62.7217C246.663 61.9835 247.093 61.2169 247.831 61.0092L278.198 52.468C278.937 52.2604 279.703 52.6904 279.911 53.4286C280.119 54.1668 279.688 54.9334 278.95 55.1411Z" fill="#E4ECF9"/>
<path d="M281.88 65.5473L251.512 74.0885C250.774 74.2962 250.008 73.8661 249.8 73.1279C249.592 72.3897 250.022 71.6231 250.761 71.4155L281.128 62.8743C281.866 62.6666 282.633 63.0967 282.841 63.8349C283.048 64.5731 282.618 65.3397 281.88 65.5473Z" fill="#E4ECF9"/>
<path d="M285.052 76.7817L254.684 85.3229C253.946 85.5306 253.179 85.1005 252.972 84.3623C252.764 83.6241 253.194 82.8575 253.932 82.6498L284.3 74.1086C285.038 73.901 285.805 74.331 286.012 75.0692C286.22 75.8074 285.79 76.574 285.052 76.7817Z" fill="#E4ECF9"/>
<path d="M238.302 58.3104C237.441 58.5479 236.538 58.4384 235.758 58.0009C234.974 57.5604 234.407 56.841 234.163 55.9749C233.92 55.1087 234.028 54.1992 234.468 53.4144C234.909 52.6293 235.628 52.0633 236.494 51.8195C236.929 51.6955 237.381 51.6628 237.829 51.7196L237.72 52.5805C237.388 52.5385 237.053 52.5626 236.729 52.6549C236.086 52.8358 235.552 53.2565 235.225 53.8391C234.898 54.4217 234.818 55.097 234.999 55.7399C235.18 56.3832 235.6 56.9172 236.183 57.2442C236.766 57.5712 237.444 57.6531 238.084 57.4704C238.727 57.2895 239.261 56.8688 239.588 56.2862C239.915 55.7036 239.995 55.0283 239.814 54.385C239.779 54.259 239.734 54.1353 239.68 54.0174L240.469 53.6562C240.542 53.8146 240.602 53.9805 240.65 54.15C240.894 55.0161 240.785 55.9257 240.345 56.7104C239.905 57.4951 239.185 58.0616 238.319 58.3053C238.313 58.3067 238.308 58.3081 238.302 58.3099L238.302 58.3104Z" fill="#DFF3ED"/>
<path d="M237.787 56.0903C237.681 56.1204 237.562 56.1098 237.458 56.0511L235.923 55.1904C235.714 55.0734 235.64 54.8086 235.757 54.5997C235.875 54.3905 236.139 54.3163 236.348 54.4338L237.504 55.082L240.374 49.9659C240.491 49.7567 240.756 49.6824 240.965 49.7999C241.174 49.9169 241.248 50.1817 241.131 50.3906L238.048 55.8851C237.99 55.9898 237.894 56.0606 237.788 56.0907L237.787 56.0903Z" fill="#DFF3ED"/>
<path d="M243.911 78.2858C243.05 78.5234 242.147 78.4139 241.367 77.9764C240.583 77.5359 240.016 76.8165 239.772 75.9504C239.27 74.1619 240.315 72.2977 242.103 71.795C242.54 71.6759 242.99 71.6383 243.438 71.6951L243.329 72.556C242.997 72.514 242.666 72.5437 242.338 72.6304C241.011 73.0038 240.234 74.3876 240.608 75.7153C240.789 76.3587 241.209 76.8926 241.792 77.2197C242.375 77.5467 243.051 77.625 243.693 77.4463C244.336 77.2654 244.87 76.8447 245.197 76.2621C245.524 75.6795 245.605 75.0042 245.423 74.361C245.388 74.235 245.342 74.1117 245.289 73.9934L246.078 73.6321C246.15 73.791 246.211 73.9568 246.259 74.1259C246.502 74.9921 246.394 75.9016 245.954 76.6864C245.513 77.4711 244.794 78.0376 243.927 78.2814C243.922 78.2828 243.916 78.2841 243.91 78.2859L243.911 78.2858Z" fill="#DFF3ED"/>
<path d="M243.405 76.0513C243.298 76.0814 243.179 76.0708 243.075 76.0121L241.541 75.1514C241.332 75.0343 241.257 74.7695 241.375 74.5607C241.492 74.3514 241.756 74.2772 241.965 74.3947L243.121 75.0429L245.991 69.9269C246.109 69.7176 246.373 69.6434 246.582 69.7609C246.791 69.8779 246.865 70.1427 246.748 70.3515L243.665 75.8461C243.607 75.9507 243.512 76.0215 243.405 76.0516L243.405 76.0513Z" fill="#DFF3ED"/>
<path d="M247.075 89.5209C246.214 89.7585 245.312 89.649 244.532 89.2115C243.747 88.771 243.18 88.0516 242.937 87.1855C242.693 86.3193 242.801 85.4098 243.242 84.625C243.682 83.8399 244.401 83.2738 245.268 83.0301C245.705 82.9072 246.154 82.8734 246.602 82.9302L246.493 83.7911C246.161 83.7491 245.826 83.774 245.503 83.8655C244.859 84.0464 244.325 84.4671 243.998 85.0497C243.671 85.6323 243.591 86.3076 243.772 86.9504C243.953 87.5937 244.374 88.1277 244.956 88.4548C245.539 88.7818 246.216 88.8641 246.857 88.681C247.5 88.5001 248.034 88.0794 248.361 87.4968C248.688 86.9142 248.769 86.2389 248.588 85.5956C248.552 85.4696 248.507 85.3459 248.453 85.228L249.242 84.8667C249.315 85.0252 249.376 85.191 249.423 85.3606C249.667 86.2267 249.559 87.1363 249.118 87.921C248.678 88.7057 247.958 89.2722 247.092 89.5159C247.087 89.5173 247.081 89.5186 247.075 89.5205L247.075 89.5209Z" fill="#DFF3ED"/>
<path d="M246.569 87.2856C246.462 87.3158 246.344 87.3051 246.239 87.2464L244.705 86.3857C244.496 86.2687 244.421 86.0039 244.539 85.7951C244.656 85.5858 244.921 85.5116 245.129 85.6291L246.285 86.2773L249.155 81.1612C249.273 80.952 249.537 80.8777 249.746 80.9952C249.955 81.1122 250.029 81.3771 249.912 81.5859L246.83 87.0805C246.771 87.1851 246.676 87.2559 246.569 87.286L246.569 87.2856Z" fill="#DFF3ED"/>
<path d="M240.989 67.8801C240.128 68.1177 239.226 68.0081 238.446 67.5706C237.661 67.1302 237.094 66.4108 236.851 65.5447C236.347 63.7562 237.393 61.892 239.182 61.3893C240.968 60.8898 242.834 61.9321 243.337 63.7202C243.581 64.5864 243.472 65.4959 243.032 66.2807C242.592 67.0654 241.872 67.6319 241.006 67.8757C241 67.8771 240.994 67.8784 240.989 67.8802L240.989 67.8801ZM239.428 62.221C239.424 62.2221 239.42 62.223 239.416 62.224C238.088 62.5974 237.312 63.9812 237.686 65.309C237.866 65.9523 238.287 66.4863 238.87 66.8133C239.452 67.1403 240.134 67.2261 240.77 67.0395C241.414 66.8586 241.948 66.4379 242.275 65.8553C242.602 65.2727 242.682 64.5974 242.501 63.9542C242.129 62.6307 240.752 61.8553 239.428 62.2202L239.428 62.221Z" fill="#DFF3ED"/>
<g style="mix-blend-mode:multiply" opacity="0.25">
<path d="M287.951 16.4505L234.493 28.4611C232.895 28.8202 231.891 30.4061 232.25 32.0038L247.943 101.85C248.302 103.448 249.887 104.452 251.485 104.093L304.943 92.0824C306.541 91.7233 307.545 90.1374 307.186 88.5397L291.494 18.6933C291.135 17.0956 289.549 16.0915 287.951 16.4505Z" fill="#6683C2" fill-opacity="0.52"/>
</g>
<path d="M305.075 87.9678L251.001 96.7992C249.384 97.063 247.86 95.9669 247.596 94.3511L236.058 23.6994C235.794 22.083 236.89 20.5593 238.506 20.2952L292.58 11.4637C294.197 11.1999 295.72 12.296 295.984 13.9119L307.523 84.5636C307.787 86.1799 306.691 87.7037 305.075 87.9678Z" fill="white"/>
<path d="M281.985 25.5041L253.066 30.2272C252.309 30.3507 251.595 29.8375 251.471 29.0805C251.348 28.3235 251.861 27.6101 252.618 27.4862L281.537 22.7632C282.294 22.6396 283.007 23.1528 283.131 23.9098C283.255 24.6668 282.742 25.3802 281.985 25.5041Z" fill="#6683C2"/>
<path d="M290.238 38.7596L259.105 43.8443C258.348 43.9679 257.634 43.4547 257.51 42.6977C257.387 41.9407 257.9 41.2273 258.657 41.1034L289.79 36.0186C290.547 35.8951 291.261 36.4083 291.385 37.1652C291.508 37.9223 290.995 38.6356 290.238 38.7596Z" fill="#E2EBFD"/>
<path d="M291.832 48.5721L260.699 53.6568C259.941 53.7804 259.228 53.2672 259.104 52.5102C258.981 51.7532 259.494 51.0398 260.251 50.9159L291.384 45.8311C292.141 45.7076 292.854 46.2208 292.978 46.9777C293.102 47.7348 292.589 48.4481 291.832 48.5721Z" fill="#E2EBFD"/>
<path d="M293.574 59.2361L262.441 64.3209C261.684 64.4445 260.97 63.9312 260.846 63.1743C260.723 62.4172 261.236 61.7039 261.993 61.5799L293.126 56.4952C293.883 56.3716 294.597 56.8849 294.721 57.6418C294.844 58.3988 294.331 59.1122 293.574 59.2361Z" fill="#E2EBFD"/>
<path d="M295.457 70.7674L264.324 75.8522C263.566 75.9757 262.853 75.4625 262.729 74.7055C262.606 73.9485 263.119 73.2351 263.876 73.1112L295.009 68.0264C295.766 67.9029 296.479 68.4161 296.603 69.1731C296.727 69.9301 296.214 70.6434 295.457 70.7674Z" fill="#E2EBFD"/>
<path d="M251.347 47.1166C251.263 47.1371 251.177 47.1545 251.09 47.1687C250.202 47.3139 249.311 47.1044 248.58 46.5789C247.849 46.0535 247.367 45.275 247.222 44.3868C246.923 42.5533 248.171 40.8176 250.004 40.5187C250.453 40.4456 250.903 40.4621 251.341 40.5688L251.137 41.412C250.811 41.333 250.478 41.3207 250.144 41.3752C248.783 41.5978 247.857 42.8856 248.079 44.2468C248.186 44.9063 248.544 45.4843 249.087 45.8741C249.629 46.2643 250.291 46.4198 250.95 46.3122C251.015 46.3019 251.079 46.2888 251.141 46.2737C252.397 45.9679 253.227 44.7375 253.016 43.4406C252.995 43.3115 252.964 43.1836 252.923 43.0603L253.748 42.7897C253.802 42.9555 253.844 43.1272 253.872 43.3006C254.158 45.0472 253.038 46.7047 251.347 47.1166Z" fill="#F37E60"/>
<path d="M250.824 44.9044C250.715 44.9225 250.598 44.8983 250.501 44.8283L249.073 43.8014C248.878 43.6615 248.834 43.3902 248.974 43.196C249.114 43.0014 249.385 42.9571 249.58 43.097L250.656 43.8706L254.081 39.1084C254.221 38.9138 254.492 38.8695 254.687 39.0094C254.881 39.1492 254.925 39.4205 254.785 39.6147L251.107 44.7293C251.037 44.8264 250.934 44.8863 250.825 44.9043L250.824 44.9044Z" fill="#F37E60"/>
<path d="M254.69 67.5853C254.606 67.6058 254.521 67.6232 254.434 67.6374C252.601 67.9368 250.865 66.689 250.566 64.8555C250.266 63.022 251.515 61.2871 253.348 60.9874C253.796 60.9143 254.246 60.9308 254.685 61.0375L254.48 61.8807C254.155 61.8017 253.821 61.7894 253.488 61.8439C252.126 62.0657 251.2 63.3543 251.422 64.7155C251.645 66.0768 252.933 67.0031 254.294 66.7809C254.358 66.7706 254.422 66.7576 254.484 66.7424C255.74 66.4366 256.571 65.2062 256.359 63.9093C256.338 63.7802 256.307 63.6522 256.267 63.529L257.092 63.2584C257.146 63.4242 257.188 63.5959 257.216 63.7693C257.501 65.5159 256.382 67.1734 254.69 67.5853Z" fill="#F37E60"/>
<path d="M254.176 65.3654C254.066 65.3835 253.95 65.3593 253.853 65.2893L252.425 64.2623C252.23 64.1225 252.186 63.8512 252.326 63.6569C252.466 63.4623 252.737 63.4181 252.931 63.5579L254.007 64.3315L257.432 59.5693C257.572 59.3747 257.844 59.3304 258.038 59.4703C258.233 59.6102 258.277 59.8814 258.137 60.0757L254.458 65.1902C254.388 65.2873 254.286 65.3473 254.176 65.3653L254.176 65.3654Z" fill="#F37E60"/>
<path d="M256.573 79.1165C256.489 79.137 256.404 79.1544 256.317 79.1686C254.483 79.468 252.748 78.2202 252.449 76.3867C252.149 74.5532 253.398 72.8187 255.231 72.5186C255.679 72.4455 256.129 72.4624 256.568 72.5687L256.363 73.4119C256.038 73.3329 255.704 73.3206 255.371 73.3751C254.01 73.5972 253.083 74.8855 253.305 76.2467C253.527 77.608 254.816 78.5343 256.177 78.3121C256.241 78.3018 256.305 78.2888 256.367 78.2736C257.623 77.9678 258.454 76.7374 258.242 75.4405C258.221 75.3114 258.19 75.1834 258.15 75.0602L258.974 74.7896C259.029 74.9554 259.07 75.1271 259.099 75.3005C259.384 77.0471 258.265 78.7046 256.573 79.1165Z" fill="#F37E60"/>
<path d="M256.051 76.8888C255.941 76.9069 255.825 76.8827 255.728 76.8127L254.3 75.7857C254.105 75.6459 254.061 75.3746 254.201 75.1804C254.341 74.9858 254.612 74.9415 254.806 75.0813L255.882 75.855L259.307 71.0928C259.447 70.8982 259.719 70.8539 259.913 70.9937C260.108 71.1336 260.152 71.4049 260.012 71.5991L256.333 76.7137C256.263 76.8108 256.161 76.8707 256.051 76.8887L256.051 76.8888Z" fill="#F37E60"/>
<path d="M252.951 56.9209C252.866 56.9417 252.78 56.9594 252.692 56.9734C251.804 57.1186 250.912 56.9091 250.182 56.3836C249.451 55.8582 248.969 55.0797 248.824 54.1915C248.524 52.358 249.773 50.6223 251.606 50.3234C252.494 50.1782 253.385 50.3877 254.116 50.9132C254.847 51.4386 255.329 52.2171 255.474 53.1053C255.619 53.9934 255.41 54.8849 254.884 55.6156C254.411 56.2741 253.731 56.731 252.951 56.9209ZM251.556 51.2188C250.3 51.5246 249.469 52.755 249.681 54.0519C249.788 54.7114 250.146 55.2894 250.689 55.6792C251.231 56.0694 251.893 56.2249 252.552 56.1173C253.211 56.0098 253.79 55.6517 254.179 55.1093C254.57 54.5667 254.725 53.9051 254.618 53.2456C254.51 52.5861 254.152 52.0081 253.61 51.6183C253.067 51.2282 252.405 51.0727 251.746 51.1803C251.681 51.1906 251.618 51.2037 251.556 51.2188Z" fill="#F37E60"/>
<g style="mix-blend-mode:multiply" opacity="0.25">
<path d="M323.264 83.6603L311.102 68.4315L310.154 69.1888L307.906 66.3748C308.807 65.4255 309.562 64.3786 310.159 63.2629C310.889 61.9031 311.39 60.4449 311.656 58.9469C312.366 54.9756 311.425 50.7331 308.71 47.3354C308.166 46.6545 307.573 46.0348 306.941 45.4791C305.531 44.2372 303.921 43.3106 302.215 42.7088C297.645 41.0926 292.37 41.8012 288.303 45.0485C287.712 45.5213 287.168 46.0299 286.671 46.5688C285.399 47.9523 284.435 49.5378 283.795 51.2274C282.049 55.8257 282.686 61.1928 285.93 65.3354C285.96 65.3754 285.99 65.4138 286.021 65.4532C286.971 66.6439 288.07 67.6442 289.271 68.4503C293.852 71.5303 299.906 71.7718 304.766 68.8837L307.013 71.6974L306.064 72.4547L318.226 87.6835C318.819 88.4264 319.903 88.5477 320.646 87.9545L322.994 86.0796C323.736 85.4865 323.858 84.403 323.265 83.6601L323.264 83.6603Z" fill="#6683C2" fill-opacity="0.63"/>
</g>
<path opacity="0.31" d="M299.979 67.3486C306.819 65.6832 311.014 58.788 309.349 51.9478C307.683 45.1076 300.788 40.9127 293.948 42.5782C287.108 44.2436 282.913 51.1388 284.578 57.979C286.244 64.8192 293.139 69.0141 299.979 67.3486Z" fill="white"/>
<path d="M307.739 63.1563L304.859 65.9609L308.607 69.8083L311.486 67.0036L307.739 63.1563Z" fill="#4C4C4C"/>
<path d="M307.359 44.8263C306.75 44.2022 306.099 43.6438 305.416 43.1528C303.89 42.0555 302.198 41.2913 300.44 40.8599C295.733 39.7003 290.553 40.9237 286.825 44.5546C286.283 45.0831 285.792 45.643 285.35 46.2276C284.22 47.7292 283.417 49.4021 282.945 51.1462C281.66 55.8937 282.821 61.1726 286.456 64.9761C286.49 65.0131 286.523 65.0481 286.558 65.0843C287.62 66.1758 288.812 67.0635 290.086 67.7478C295.519 70.6701 302.434 69.8877 307.088 65.3553C308.54 63.9415 309.634 62.2952 310.364 60.5341C310.957 59.109 311.313 57.6087 311.43 56.0918C311.747 52.0701 310.394 47.9404 307.358 44.826L307.359 44.8263ZM308.66 57.0776C308.353 58.7688 307.68 60.4063 306.641 61.8587C306.234 62.4295 305.771 62.9693 305.253 63.4748C302.121 66.5256 297.739 67.501 293.807 66.4242C292.159 65.9747 290.589 65.1635 289.224 63.9917C288.955 63.7609 288.692 63.5148 288.439 63.2557C284.914 59.636 284.159 54.3463 286.139 50.0102C286.732 48.7087 287.573 47.494 288.658 46.436C292.366 42.8235 297.829 42.1205 302.221 44.2892C303.401 44.8713 304.505 45.6627 305.477 46.6587C308.264 49.5183 309.319 53.4236 308.66 57.0772L308.66 57.0776Z" fill="#5B5B5B"/>
<path d="M325.383 81.9881L323.23 84.0848C322.549 84.7482 321.46 84.734 320.796 84.0526L307.197 70.0917L311.816 65.5928L325.415 79.5537C326.078 80.2347 326.064 81.3246 325.383 81.9881Z" fill="#5B5B5B"/>
<g style="mix-blend-mode:multiply" opacity="0.25">
<path d="M228.732 62.3998C228.689 62.255 228.282 62.1128 227.661 61.9828C227.327 60.7074 226.743 59.3133 227.472 58.413C227.472 58.413 226.966 56.8196 226.713 56.279C226.46 55.7383 225.966 55.8964 225.173 56.1576C224.38 56.4188 220.169 58.0585 218.126 59.0137C216.084 59.9689 214.799 60.844 212.142 62.1855C209.41 63.3643 207.915 63.7896 205.873 64.7448C203.83 65.6999 199.872 67.8806 199.163 68.3219C198.455 68.7631 198.017 69.0411 198.269 69.5818C198.522 70.1224 199.421 71.5324 199.421 71.5324C200.579 71.55 201.275 72.8921 202.04 73.9657C201.741 74.5256 201.589 74.9296 201.672 75.0555C201.995 75.544 203.095 75.6691 203.514 75.5313C204.014 75.8815 204.571 76.0337 205.474 76.0221C207.002 76.0029 209.543 74.7047 210.626 74.1251C211.709 73.5455 212.56 72.7814 212.845 71.5133C213.13 70.2452 213.094 67.6634 213.009 66.9341C212.855 65.6063 212.89 65.2697 213.46 65.003C214.031 64.7361 214.312 64.9255 215.232 65.8948C215.737 66.4272 217.695 68.1102 218.852 68.7041C220.008 69.298 221.139 69.1348 222.279 68.6751C223.418 68.2154 226.043 67.0977 227.038 65.9371C227.625 65.2516 227.865 64.7269 227.917 64.1182C228.291 63.8851 228.9 62.9611 228.732 62.4001L228.732 62.3998ZM225.311 58.7741C225.463 59.0369 225.61 59.3567 225.768 59.7225C225.982 60.2188 226.251 61.0099 226.474 61.7825C224.467 61.5016 221.639 61.3288 220.22 61.4132C222.271 60.3471 224.125 59.3875 225.311 58.7741ZM219.711 59.3706C221.085 58.7666 222.075 58.4162 222.805 58.2197C220.625 59.4493 217.619 61.1501 214.796 62.7624C215.15 61.6613 218.567 59.8732 219.71 59.3702L219.711 59.3706ZM210.885 64.5916C207.838 65.7244 204.606 66.9416 202.265 67.8264C202.883 67.3918 203.787 66.8562 205.131 66.1889C206.25 65.6338 209.813 64.1575 210.885 64.5916ZM201.518 71.0633C201.338 70.7076 201.187 70.3901 201.083 70.1045C202.314 69.587 204.239 68.7795 206.372 67.889C205.398 68.9238 203.717 71.2049 202.646 72.9263C202.196 72.2592 201.761 71.5464 201.518 71.0633ZM212.325 70.1451C212.154 71.5795 211.886 72.1806 210.723 72.9808C209.56 73.7808 207.94 74.4654 206.669 74.877C205.484 75.2606 204.622 75.1114 204.053 74.6814C204.614 73.5056 205.562 71.3621 205.817 70.7903C206.162 70.0173 207.104 68.546 208.695 67.5339C209.062 67.3007 210.216 66.6714 211.773 65.842C212.309 67.183 212.452 69.0832 212.325 70.1451L212.325 70.1451ZM225.393 66.1203C224.261 66.8323 222.698 67.6367 221.338 68.0165C219.978 68.3963 219.345 68.2162 218.135 67.4284C217.239 66.8449 215.871 65.5175 215.186 64.2463C216.821 63.5829 218.043 63.1003 218.458 62.9686C220.255 62.3963 221.988 62.6165 222.802 62.8473C223.404 63.018 225.657 63.6647 226.919 63.9874C226.884 64.7001 226.446 65.4568 225.393 66.1203Z" fill="#6683C2" fill-opacity="0.65"/>
</g>
<path d="M200.648 72.696C200.648 72.696 217.043 64.2992 218.793 63.5946C220.542 62.8901 222.287 62.9806 223.116 63.1499C223.945 63.3191 227.845 64.1311 228.168 64.1024C228.491 64.0737 229.237 62.8905 228.997 62.262C228.756 61.6334 221.336 61.5892 219.832 62.0269C218.328 62.465 199.736 71.1717 199.736 71.1717L200.648 72.6951L200.648 72.696Z" fill="#5B5B5B"/>
<path d="M226.604 58.1044C226.604 58.1044 210.907 67.744 209.396 68.8719C207.884 69.9996 207.055 71.5373 206.768 72.3337C206.482 73.1301 205.148 76.8837 204.955 77.1445C204.763 77.4052 203.364 77.4276 202.952 76.8956C202.54 76.3633 206.361 70.0018 207.517 68.9449C208.673 67.8881 225.777 56.5332 225.777 56.5332L226.604 58.1049L226.604 58.1044Z" fill="#5B5B5B"/>
<path d="M224.964 56.2975C224.193 56.617 220.116 58.5659 218.151 59.6706C216.185 60.7753 214.969 61.7436 212.42 63.279C209.783 64.6584 208.323 65.1934 206.358 66.2981C204.392 67.4028 200.607 69.8721 199.934 70.3649C199.26 70.8579 198.843 71.1679 199.136 71.6882C199.428 72.2085 200.429 73.5475 200.429 73.5475C201.791 73.4668 202.65 75.2659 203.679 76.2851C204.708 77.304 205.277 77.7072 206.799 77.574C208.322 77.4408 210.759 75.9571 211.796 75.2985C212.833 74.6395 213.624 73.8145 213.815 72.5285C214.005 71.2425 213.776 68.6705 213.638 67.9498C213.385 66.6373 213.394 66.2988 213.943 65.9904C214.493 65.6816 214.787 65.8495 215.776 66.7477C216.32 67.2412 218.398 68.7735 219.596 69.2794C220.793 69.7856 221.909 69.5386 223.011 68.9951C224.113 68.452 226.648 67.1417 227.553 65.9103C228.458 64.6789 228.41 63.9834 228.074 62.5745C227.739 61.1656 226.649 59.4962 227.426 58.3752C227.426 58.3752 226.802 56.8241 226.51 56.3037C226.218 55.7834 225.736 55.9779 224.965 56.2974L224.964 56.2975ZM213.195 71.2036C213.131 72.6466 212.909 73.2659 211.809 74.1508C210.709 75.0353 209.144 75.8384 207.907 76.3437C206.669 76.849 205.757 76.7147 205.156 76.254C204.555 75.7933 203.067 73.8907 202.486 72.9245C201.905 71.958 201.56 71.2769 201.934 70.7244C202.308 70.172 203.188 69.2992 205.727 67.7943C206.869 67.1168 210.693 65.1935 211.527 65.8659C212.721 66.8279 213.259 69.7605 213.195 71.2035L213.195 71.2036ZM225.824 59.8082C226.347 60.8071 227.199 63.0671 227.28 63.8201C227.361 64.5734 227.001 65.4219 225.926 66.2162C224.851 67.0104 223.352 67.9293 222.024 68.409C220.697 68.8891 220.052 68.7568 218.786 68.0609C217.52 67.365 215.295 65.38 215.094 63.8604C214.953 62.7983 218.584 60.5322 219.757 59.9087C222.362 58.5229 223.565 58.2251 224.231 58.1927C224.898 58.1606 225.3 58.8091 225.823 59.808L225.824 59.8082Z" fill="#5B5B5B"/>
<path d="M311.009 35.675C312.55 35.2997 313.495 33.7461 313.12 32.2049C312.745 30.6637 311.191 29.7185 309.65 30.0937C308.109 30.469 307.164 32.0226 307.539 33.5638C307.914 35.105 309.468 36.0502 311.009 35.675Z" fill="#F37E60"/>
<path d="M206.529 34.7819C207.512 34.5426 208.114 33.5519 207.875 32.5692C207.636 31.5864 206.645 30.9837 205.662 31.223C204.679 31.4623 204.077 32.4529 204.316 33.4357C204.555 34.4185 205.546 35.0212 206.529 34.7819Z" fill="#F37E60"/>
<path d="M302.638 106.43C303.621 106.191 304.224 105.2 303.984 104.217C303.745 103.235 302.754 102.632 301.772 102.871C300.789 103.11 300.186 104.101 300.425 105.084C300.665 106.067 301.655 106.669 302.638 106.43Z" fill="#F37E60"/>
</g>
<defs>
<linearGradient id="paint0_linear_2036_1514" x1="160" y1="0" x2="160" y2="157" gradientUnits="userSpaceOnUse">
<stop stop-color="#6683C2"/>
<stop offset="1" stop-color="#8FABE9"/>
</linearGradient>
<clipPath id="clip0_2036_1514">
<rect width="320" height="157" fill="white"/>
</clipPath>
</defs>
</svg>
