<svg width="320" height="138" viewBox="0 0 320 138" fill="none" xmlns="http://www.w3.org/2000/svg">
<g clip-path="url(#clip0_2036_1594)">
<rect width="320" height="138" fill="url(#paint0_linear_2036_1594)"/>
<path opacity="0.54" d="M239.401 67.3315C206.043 69.7974 181.03 99.2523 183.534 133.121C186.038 166.989 215.109 192.446 248.467 189.981C281.825 187.515 306.838 158.06 304.334 124.191C301.83 90.3225 272.759 64.8656 239.401 67.3315Z" fill="#E4BA5A"/>
<path opacity="0.54" d="M278.286 21.9232C257.9 32.1903 249.835 57.3156 260.273 78.0421C270.711 98.7687 295.7 107.248 316.086 96.9808C336.473 86.7137 344.538 61.5884 334.1 40.8618C323.662 20.1353 298.673 11.6561 278.286 21.9232Z" fill="#E4BA5A"/>
<path opacity="0.54" d="M248.973 -2.08234C244.678 0.0804134 242.979 5.37305 245.178 9.73909C247.377 14.1051 252.641 15.8913 256.935 13.7285C261.23 11.5658 262.928 6.27312 260.73 1.90708C258.531 -2.45897 253.267 -4.24509 248.973 -2.08234Z" fill="#E4BA5A"/>
</g>
<defs>
<linearGradient id="paint0_linear_2036_1594" x1="160" y1="0" x2="160" y2="138" gradientUnits="userSpaceOnUse">
<stop stop-color="#F2C45B"/>
<stop offset="1" stop-color="#EED294"/>
</linearGradient>
<clipPath id="clip0_2036_1594">
<rect width="320" height="138" fill="white"/>
</clipPath>
</defs>
</svg>
