<svg width="971" height="686" fill="none" xmlns="http://www.w3.org/2000/svg"><path d="M777.108 144.031c-23.268 1.674-40.75 22.208-39.048 45.864 1.702 23.656 21.944 41.475 45.212 39.801 23.268-1.674 40.751-22.208 39.049-45.864-1.702-23.655-21.945-41.475-45.213-39.801Z" fill="#68CCEA"/><path d="M732.214 363.024c-4.549-63.214 43.324-118.162 106.923-122.738 63.595-4.576 118.842 42.954 123.39 106.167 4.548 63.213-43.325 118.166-106.92 122.741-63.601 4.575-118.845-42.959-123.393-106.17Z" fill="#F37E60"/><path d="M16.988 297.497C16.988 165.773 123.771 59 255.492 59c131.711 0 238.496 106.773 238.496 238.497C493.988 429.219 387.202 536 255.492 536c-131.723-.003-238.504-106.784-238.504-238.503Z" fill="#D6EDFA"/><path fill-rule="evenodd" clip-rule="evenodd" d="M487.492 328.668c8.656 0 12.48-3.959 17.311-8.656l46.164-44.888-57.583-34.724" fill="#fff"/><path fill-rule="evenodd" clip-rule="evenodd" d="m493.476 240.399 139.53 103.086c15.922 8.785 27.413 4.236 31.379-14.783l56.796-267.641c5.815-23.313-8.887-33.887-24.119-26.972L363.56 162.686c-22.765 9.131-22.632 21.831-4.15 27.49l85.584 26.713L643.131 91.887c9.353-5.672-142.609 142.258-149.655 148.512Z" fill="#D6EDFA"/><path d="M94.112 471.031c-23.268 1.674-40.75 22.208-39.048 45.864 1.702 23.656 21.944 41.475 45.212 39.801 23.268-1.674 40.751-22.208 39.048-45.864-1.702-23.655-21.944-41.475-45.212-39.801Z" fill="#F2C45B"/><path d="M317.68 59.868s-6.465 7.428-3.851 15.086c2.614 7.657 11.202 13.498 11.202 13.498l14.433 37.869 112.245-.27-1.063-11.351s5.575-3.154 8.717-10.977c2.231-5.559 2.473-19.3 2.473-19.3L317.68 59.869Z" fill="#964633"/><path d="m418.58 684.79-27.371-67.468-4.906 67.468H291.33V545.218h213.425l21.39 139.572H418.58Z" fill="#7FCBB4"/><path d="M493.952 597.165c.475 0 .927-.286 1.116-.753a1.202 1.202 0 0 0-.665-1.567c-.137-.057-13.671-5.583-21.397-14.425-9.338-10.691-9.535-22.59-9.539-22.707a1.206 1.206 0 0 0-1.205-1.196h-.008c-.664.004-1.2.543-1.196 1.208.004.52.177 12.886 10.131 24.278 8.109 9.285 21.736 14.844 22.312 15.077.149.061.302.085.451.085Z" fill="#5FA590"/><path d="M450.621 552.645s-43.508-.229-61.752 1.173c-18.243 1.401-57.627 16.253-73.22 5.534-15.597-10.719-21.748-45.437-21.748-45.437l43.037-289.11s11.255-17.889 15.585-20.197c4.326-2.309 9.539-3.36 9.539-3.36l-1.462 12.878s5.768 8.367 18.465 9.233c12.692.866 32.024-4.617 36.064-6.925 4.04-2.308 14.127-10.84 14.127-10.84l9.82 2.184s-22.964 33.075-32.833 57.075c-9.869 24.004 44.378 287.792 44.378 287.792Z" fill="#E3E9F5"/><path d="M545.397 537.988c-1.442 3.774-23.407 16.056-41.884 19.729-18.478 3.674-57.084 2.143-65.293 0-8.209-2.142-39.42-222.995-35.726-249.48 3.694-26.485 22.175-81.305 40.652-89.313 18.478-8.008 63.351-8.258 73.913 1.837 10.562 10.095 12.194 211.282 18.413 230.991 6.224 19.71 10.534 46.812 12.383 57.285 1.857 10.473-1.011 25.176-2.458 28.951ZM315.65 559.353c-3.251 3.174-5.994.366-10.465 0-4.476-.367-13.14-4.56-26.006-4.278-12.862.278-29.998 5.402-34.671-.012-4.672-5.414-12.745-32.794-8.157-56.753 4.588-23.96 34.973-120.306 39.15-139.169 4.177-18.86 18.453-94.308 26.099-108.584 7.645-14.272 27.016-31.605 27.016-31.605s9.688 52.507 8.157 70.856c-1.53 18.352-8.157 61.683-10.706 85.131-2.546 23.452-7.171 181.24-10.417 184.414Z" fill="#6683C2"/><path d="M422.57 331.186s-31.758-46.868-36.43-45.603c-7.481 2.026 5.893 20.237 5.893 20.237s-36.012-23.842-42.695-20.257c-8.137 4.366 26.493 22.618 26.493 22.618s-33.276-20.27-35.955-16.326c-2.679 3.943 27.549 26.662 27.549 26.662s-22.002-15.255-24.677-11.811c-2.679 3.445 22.574 22.385 22.574 22.385s-16.826-13.994-19.706-8.991c-1.792 3.114 15.497 20.854 22.385 24.677 6.888 3.826 49.164 13.2 49.164 13.2l5.405-26.791Z" fill="#F9A990"/><path d="M517.063 220.765s41.8 35.899 68.805 92.366c27.005 56.462 28.479 94.762 7.855 112.438-20.62 17.676-46.046 23.883-76.66 13.132-31.017-10.896-64.254-31.295-73.091-38.171-8.838-6.872-10.312-15.71-10.312-15.71s-18.659-8.346-19.642-12.274c-.983-3.927 2.945-45.663 8.838-47.625 5.893-1.966 31.424 13.748 31.424 13.748s29.466-12.286 47.629-8.358c0 0-5.402-35.351-2.945-50.574 2.453-15.222 7.364-28.479 7.364-28.479" fill="#6683C2"/><path d="M564.199 352.463a1.204 1.204 0 0 0 .621-2.236 140.779 140.779 0 0 0-25.12-11.899 140.707 140.707 0 0 0-30.147-7.142 1.201 1.201 0 0 0-1.341 1.047 1.2 1.2 0 0 0 1.047 1.341 138.426 138.426 0 0 1 29.627 7.018 138.277 138.277 0 0 1 24.689 11.693c.197.121.411.178.624.178Z" fill="#526DA9"/><path d="M537.146 356.281a1.206 1.206 0 0 0 .983-1.897c-3.734-5.317-7.843-9.901-12.217-13.619-4.903-4.169-10.176-7.287-15.666-9.265a1.209 1.209 0 0 0-1.543.725 1.209 1.209 0 0 0 .725 1.543c5.221 1.881 10.24 4.854 14.925 8.834 4.217 3.585 8.193 8.016 11.806 13.168.234.334.608.511.987.511Z" fill="#526DA9"/><path d="M315.289 232.298s-51.569 37.921-70.984 61.719c-19.416 23.799-21.023 119.222-11.626 126.739 9.394 7.516 45.72-15.658 45.72-15.658l36.89-172.8Z" fill="#6683C2"/><path d="M336.745 291.854s9.748-34.827 9.104-46.432c-.729-13.128-3.263-21.475-1.994-26.474 1.269-4.999 18.203-17.699 18.203-17.699l6.34-28.786s-15.472-1.389-21.276 1.942c-8.56 4.914-8.351 18.376-8.351 18.376s-10.062-3.911-16.415.742c-6.348 4.656-4.189 16.571-4.189 16.571s-15.476 6.01-18.34 16.927c-1.732 6.61 2.312 14.364 7.815 14.364 5.502 0 23.927 11.505 25.2 19.972 1.281 8.471 3.903 30.497 3.903 30.497ZM420.675 180.362s14.735-13.458 23.053-10.928c8.318 2.53 13.019 8.681 13.019 8.681s9.402-5.426 20.616 0c11.211 5.426 9.043 12.298 9.043 12.298s11.211-1.809 18.808 4.338c7.597 6.147 6.985 18.683 3.146 21.547-3.839 2.864-43.851.733-64.04 13.095-32.306 19.787-40.898 73.333-40.898 73.333s-3.666-33.808 10.441-56.954c14.107-23.146 17.857-33.41 17.857-33.41l-7.118-14.244-3.927-17.756Z" fill="#F37E60"/><path d="M517.503 499.978a1.204 1.204 0 0 0 .258-2.381c-8.302-1.816-20.632-6.042-32.209-15.879-15.44-13.12-21.511-29.45-23.754-38.022a1.202 1.202 0 0 0-1.471-.858 1.203 1.203 0 0 0-.858 1.471c2.316 8.841 8.584 25.699 24.524 39.246 11.955 10.159 24.684 14.526 33.252 16.399.085.012.174.024.258.024ZM247.747 488.449c.331 0 .657-.133.895-.395a188.31 188.31 0 0 0 23.605-32.487 188.192 188.192 0 0 0 9.655-19.339 1.204 1.204 0 1 0-2.215-.951 186.092 186.092 0 0 1-9.531 19.09 185.914 185.914 0 0 1-23.303 32.072 1.203 1.203 0 0 0 .894 2.01Z" fill="#526DA9"/><path d="M268.742 331.439s-1.889-9.128-4.471-14.107c-2.582-4.979-11.71-9.095-11.71-9.095s1.66-5.426 0-11.65c-1.66-6.223-13.692-20.745-20.745-21.99-7.053-1.244-36.922 2.075-45.635 12.447-8.713 10.373-7.468 21.188-7.468 21.188s-8.298 4.919-9.543 19.038c-1.245 14.118 3.319 54.364 23.23 69.296 19.916 14.937 40.274 24.181 40.274 24.181l36.068-89.308Z" fill="#6683C2"/><path d="M212.085 345.066c10.365 0 19.452-2.791 27.081-8.326 6.111-4.435 10.945-10.393 14.369-17.716a1.206 1.206 0 0 0-2.183-1.023c-3.251 6.948-7.827 12.596-13.603 16.785-8.661 6.284-19.352 8.822-31.787 7.545-9.7-.995-17.043-4.064-17.849-4.411a1.21 1.21 0 0 0-1.583.629c-.262.612.02 1.317.629 1.583.842.362 8.499 3.565 18.553 4.596a60.95 60.95 0 0 0 6.373.338Z" fill="#526DA9"/><path d="M356.646 210.904s5.12-7.251 6.413-14.328c1.297-7.078 2.461-18.312 2.461-18.312l56.967-10.292s-.226 19.649 1.667 26.118c1.893 6.47 7.553 18.276 7.553 18.276s-15.065 27.319-47.621 22.945c-23.392-3.15-27.44-24.407-27.44-24.407Z" fill="#F9A990"/><path d="M361.022 202.977s5.877 2.683 13.116 2.707c20.04.061 42.167-25.321 42.167-25.321l-51.021 5.072s-1.325 7.71-2.22 11.142c-.894 3.432-2.042 6.4-2.042 6.4Z" fill="#F4947A"/><path d="M343.06 60.278s-5.635 12.825-7.287 25.95c-1.172 9.32 1.052 26.517.75 31.31-.299 4.794-5.152 21.958-3.082 32.246 2.071 10.292 19.057 40.894 45.398 42.706 26.34 1.817 45.494-16.12 53.941-31.77 4.016-7.436 5.103-14.848 5.103-14.848s14.59-1.144 19.662-10.13c4.789-8.496 3.899-20.037-2.514-22.715-5.55-2.321-14.473 5.265-14.473 5.265l-2.38-54.204-46.135-13.796-48.983 9.986Z" fill="#F9A990"/><path d="M342.441 110.248s-4.684-4.829-8.717-4.89c-4.032-.06-7.919 3.621-10.042 9.801-2.123 6.179-1.244 16.475 4.677 20.503 5.921 4.028 12.431 4.902 12.431 4.902l1.651-30.316Z" fill="#F9A990"/><path d="M439.246 88.34s-3.464 3.468-3.259 12.314c.201 8.845 4.491 15.746 4.491 15.746l7.553-12.117-3.315-17.93-5.47 1.986Z" fill="#964633"/><path d="M266.266 184.158c6.695 4.878 7.859 98.774 4.061 103.801-3.795 5.024-51.339 4.246-55.202 0-3.863-4.245-5.97-98.899-3.07-103.519 2.896-4.625 47.513-5.161 54.211-.282Z" fill="#849ED9"/><path d="M262.048 184.158c6.694 4.878 7.859 98.774 4.06 103.801-3.795 5.024-51.339 4.246-55.202 0-3.863-4.245-5.97-98.899-3.069-103.519 2.896-4.625 47.516-5.161 54.211-.282Z" fill="#526DA9"/><path d="M187.639 300.825c-1.926-4.004-2.345-22.135 0-36.789 2.344-14.655 7.955-41.777 15.75-48.322 7.794-6.546 33.671-22.135 37.723-18.707 4.053 3.428-27.258 25.563-27.258 25.563s11.669-3.118 24.451-1.559c12.781 1.559 20.685 6.972 19.645 11.283-1.035 4.31-12.237 3.484-12.237 3.484s16.592 6.215 16.592 10.57c0 4.354-4.149 5.599-7.469 5.599-3.319 0-8.712-3.279-8.712-3.279s11.198 8.048 7.258 12.612c-3.939 4.564-12.237-2.28-12.237-2.28s-11.613 3.94-12.858 7.469c-1.245 3.524-4.987 11.701-3.843 16.592 1.144 4.894 8.483 8.789 8.483 8.789s-.918 9.253-8.483 15.476c-7.557 6.228-34.876-2.497-36.805-6.501Z" fill="#F9A990"/><path d="M253.705 211.654c2.819.366 4.866-1.652 4.548-4.592-.464-4.262-.717-6.466-1.213-10.675-.342-2.904-2.908-5.45-5.728-5.813-2.82-.366-4.898 1.696-4.584 4.661.459 4.294.737 6.489 1.249 10.663.354 2.88 2.904 5.393 5.728 5.756Z" fill="#374A76"/><path d="M247.931 195.944c.254 2.304 2.272 4.366 4.491 4.604 2.22.238 3.803-1.446 3.537-3.718-.266-2.272-2.264-4.278-4.471-4.548-2.204-.27-3.811 1.358-3.557 3.662Z" fill="#F9E8DE"/><path d="M248.505 196.008c.218 1.974 1.95 3.742 3.851 3.947 1.902.202 3.259-1.236 3.034-3.186-.226-1.95-1.942-3.678-3.835-3.907-1.894-.226-3.267 1.172-3.05 3.146Z" fill="#6683C2"/><path d="M249.008 205.14c.274 2.26 2.272 4.249 4.472 4.515 2.199.27 3.786-1.333 3.532-3.625-.253-2.292-2.267-4.359-4.483-4.596-2.219-.234-3.795 1.446-3.521 3.706Z" fill="#F9E8DE"/><path d="M249.578 205.2c.234 1.937 1.946 3.653 3.835 3.879 1.889.226 3.246-1.152 3.029-3.118-.222-1.962-1.946-3.734-3.843-3.935-1.905-.202-3.255 1.236-3.021 3.174Z" fill="#6683C2"/><path d="M392.026 91.191c-.077-3.303 2.65-6.59 14.473-2.735s12.959 7.915 11.396 9.89c-2.164 2.734-7.005-2.249-11.211-2.816-4.209-.56-14.586-1.036-14.658-4.339ZM359.663 88.489c.076-3.303-2.776-6.961-14.474-2.736-7.919 2.865-9.413 7.896-8.004 9.229 1.527 1.446 3.614-1.587 7.819-2.151 4.205-.564 14.582-1.04 14.659-4.342Z" fill="#BF6147"/><path d="M401.689 103.53c-2.933-.089-5.515 4.282-5.7 7.959-.217 4.234 2.655 9.168 5.635 9.185 2.953.016 5.644-4.798 5.491-8.927-.129-3.617-2.494-8.129-5.426-8.217ZM351.595 101.967c-2.932-.088-5.514 4.282-5.7 7.96-.217 4.233 2.655 9.168 5.636 9.184 2.952.016 5.643-4.798 5.49-8.926-.133-3.618-2.497-8.129-5.426-8.218Z" fill="#544A47"/><path d="M365.324 140.013c4.991 0 8.218-2.767 8.355-2.888a1.206 1.206 0 0 0-1.587-1.813c-.024.02-2.889 2.425-7.126 2.288-1.914-.06-3.452-.677-4.451-1.78a4.472 4.472 0 0 1-1.144-3.271c.088-1.305.991-2.421 2.135-3.839.918-1.136 1.957-2.425 2.727-4.056 1.748-3.722 1.969-13.934 1.982-14.365a1.205 1.205 0 0 0-1.181-1.228h-.024c-.652 0-1.192.523-1.204 1.18-.057 2.807-.48 10.687-1.753 13.389-.644 1.37-1.546 2.49-2.42 3.569-1.298 1.608-2.526 3.126-2.663 5.193a6.887 6.887 0 0 0 1.76 5.051c1.011 1.116 2.901 2.465 6.159 2.57.149-.004.294 0 .435 0Z" fill="#F4947A"/><path d="M393.831 148.278c-1.567-1.204-11.19 2.236-22.276 2.768-11.085.532-17.824-3.557-19.605-1.382-1.78 2.175 2.856 19.94 20.906 17.623 18.985-2.441 22.542-17.804 20.975-19.009Z" fill="#F9E8DE"/><path d="M394.072 132.907c.991-5.732 11.247-9.687 18.92-6.94 6.046 2.163 11.529 8.862 9.942 13.889-1.744 5.527-11.521 7.404-18.373 5.035-5.353-1.853-11.331-7.126-10.489-11.984ZM334.96 128.863c.451-1.76 1.096-5.45 1.096-5.45 6.421.056 13.796 4.576 13.949 9.841.17 5.792-8.443 10.779-15.693 10.799-.246 0-.5-.004-.754-.016.004 0-.064-9.458 1.402-15.174Z" fill="#F4947A"/><path d="M373.828 58.567s11.662 15.887 25.455 15.92c13.792.032 13.429-8.87 13.429-8.87s5.624 18.199 19.138 24.18c13.515 5.982 28.886-1.844 28.886-1.844l-.024 10.263s9.486-9.01 10.977-14.267c1.486-5.257-.516-13.6-.516-13.6s6.083-4.297 5.962-11.436c-.278-16.414-22.667-26.996-22.667-26.996s8.508.624 6.57-4.323c-1.937-4.946-12.128-10.48-18.638-12.398-6.509-1.918-16.62-2.236-16.62-2.236S417.437 1.423 404.6 2.04c-12.838.616-27.444 8.548-27.444 8.548s-15.936-14.639-29.934-9.49c-13.997 5.147-16.495 25.639-16.495 25.639s-17.321-2.848-22.143 9.78c-4.822 12.628 3.887 27.839 16.588 33.47 12.701 5.635 23.658 6.046 29.067 2.606 5.406-3.436 19.589-14.026 19.589-14.026Z" fill="#BF6147"/><path d="M454.281 339.867c.302 0 .597-.113.822-.327.056-.052 6.022-5.502 16.157-6.554 10.526-1.091 30.469-1.462 30.671-1.466a1.208 1.208 0 0 0 1.132-1.551l-12.842-42.827a1.201 1.201 0 0 0-1.499-.806 1.2 1.2 0 0 0-.805 1.499l12.382 41.309c-4.967.112-20.411.523-29.289 1.446-9.172.95-15.089 5.164-16.938 6.666l-30.731-13.446a1.203 1.203 0 0 0-1.587.621 1.207 1.207 0 0 0 .62 1.587l31.424 13.748c.157.064.322.101.483.101ZM515.759 445.202a1.204 1.204 0 0 0 .222-2.389c-10.071-1.922-66.143-39.686-75.513-47.263-5.405-4.37-6.324-7.134-6.392-8.39-.053-.995.386-1.45.407-1.471.314-.241.443-.58.427-.974-.021-.395-.274-.717-.609-.927l-19.641-12.274a1.204 1.204 0 1 0-1.277 2.043l18.622 11.637a4.728 4.728 0 0 0-.338 1.905c.056 2.985 2.509 6.457 7.291 10.324 10.469 8.472 66.163 45.769 76.575 47.754a.847.847 0 0 0 .226.025ZM257.424 423.459a1.2 1.2 0 0 0 1.168-.923c.113-.467 11.178-46.771 13.792-62.021 2.619-15.283 4.032-47.069 4.045-47.388a1.206 1.206 0 0 0-2.409-.104c-.016.318-1.422 31.951-4.012 47.089-2.603 15.17-13.648 61.401-13.761 61.869a1.204 1.204 0 0 0 .891 1.45c.096.02.193.028.286.028Z" fill="#526DA9"/><path d="M439.917 134.575c.483 0 .938-.294 1.124-.77 1.353-3.488 3.287-6.493 5.748-8.938a21.802 21.802 0 0 1 5.933-4.206c.6-.286.854-1.007.564-1.607a1.201 1.201 0 0 0-1.607-.564 24.2 24.2 0 0 0-6.59 4.669c-2.703 2.683-4.822 5.974-6.296 9.776a1.204 1.204 0 0 0 1.124 1.64Z" fill="#F4947A"/><path d="M451.598 130.123a1.201 1.201 0 0 0 .656-2.211 13.97 13.97 0 0 0-3.871-1.773 12.667 12.667 0 0 0-4.781-.411 1.208 1.208 0 0 0-1.072 1.326 1.21 1.21 0 0 0 1.325 1.071 10.322 10.322 0 0 1 3.88.334c1.111.311 2.191.806 3.202 1.467.205.133.435.197.661.197ZM333.565 122.66c.141 0 .282-.024.419-.077a1.2 1.2 0 0 0 .709-1.547 23.651 23.651 0 0 0-1.08-2.469 23.708 23.708 0 0 0-3.879-5.514 1.207 1.207 0 0 0-1.704-.053 1.208 1.208 0 0 0-.052 1.704 21.373 21.373 0 0 1 4.459 7.174c.177.484.637.782 1.128.782ZM375.839 309.385a1.207 1.207 0 0 0 .383-2.349c-.072-.024-7.428-2.537-12.672-7.488a1.208 1.208 0 0 0-1.704.048 1.207 1.207 0 0 0 .048 1.704c5.643 5.325 13.241 7.912 13.559 8.02.129.045.258.065.386.065ZM373.494 334.445a1.206 1.206 0 0 0 .367-2.353c-.057-.016-5.66-1.808-7.48-2.537-1.024-.407-4.862-4.101-7.988-7.432a1.204 1.204 0 0 0-1.704-.057 1.207 1.207 0 0 0-.057 1.704c1.124 1.196 6.824 7.21 8.85 8.02 1.902.761 7.408 2.522 7.642 2.598.125.037.249.057.37.057ZM370.749 321.526a1.204 1.204 0 0 0 .709-2.18l-13.233-9.603a1.208 1.208 0 0 0-1.684.266 1.21 1.21 0 0 0 .266 1.684l13.233 9.603c.217.153.463.23.709.23ZM246.132 249.881c.423 0 .834-.222 1.052-.617a1.208 1.208 0 0 0-.464-1.639c-1.123-.628-11.077-6.139-14.13-6.405-.927-.08-2.816.161-8.528 3.17a120.228 120.228 0 0 0-5.76 3.259 1.205 1.205 0 0 0 1.252 2.059c7.126-4.347 11.779-6.18 12.826-6.087 1.914.165 9.092 3.835 13.168 6.111.186.096.387.149.584.149ZM210.135 240.105c.177 0 .359-.041.532-.125 5.833-2.868 15.806-7.452 17.724-7.537 1.897-.077 10.102 2.872 14.815 4.757a1.205 1.205 0 1 0 .895-2.239c-1.277-.512-12.427-4.927-15.678-4.927-.048 0-.093 0-.137.004-2.989.129-16.088 6.506-18.683 7.783a1.202 1.202 0 0 0-.547 1.611 1.2 1.2 0 0 0 1.079.673Z" fill="#F4947A"/><path d="M418.583 685.994a1.199 1.199 0 0 0 1.112-1.667l-42.743-102.924a1.2 1.2 0 0 0-1.575-.649 1.2 1.2 0 0 0-.649 1.575l42.743 102.924c.194.463.641.741 1.112.741Z" fill="#5FA590"/><path d="M443.62 217.494c.387 0 .77-.185.999-.532 2.739-4.072 10.61-13.865 24.524-16.797a40.121 40.121 0 0 1 10.59-.77 1.211 1.211 0 0 0 1.273-1.132 1.204 1.204 0 0 0-1.132-1.272 42.376 42.376 0 0 0-11.231.813c-14.775 3.118-23.122 13.495-26.026 17.809a1.205 1.205 0 0 0 .326 1.671c.214.145.448.21.677.21ZM439.994 200.563c.576 0 1.083-.415 1.184-.999.898-5.228 3.094-10.006 6.357-13.82a27.198 27.198 0 0 1 4.793-4.403 1.205 1.205 0 0 0-1.406-1.954 29.793 29.793 0 0 0-5.216 4.794c-3.545 4.145-5.93 9.321-6.9 14.977a1.201 1.201 0 0 0 1.188 1.405ZM343.541 244.902a1.202 1.202 0 0 0 1.084-1.72 78.525 78.525 0 0 0-5.692-9.982 78.318 78.318 0 0 0-13.341-15.15 1.204 1.204 0 1 0-1.588 1.809 75.962 75.962 0 0 1 12.931 14.686 75.751 75.751 0 0 1 5.518 9.672c.21.431.641.685 1.088.685Z" fill="#DA7156"/><g clip-path="url(#a)"><path d="M81.234 171.894c4.082-8.146.789-18.059-7.357-22.141-8.145-4.083-18.058-.79-22.14 7.356-4.084 8.145-.79 18.058 7.355 22.141 8.146 4.083 18.059.789 22.142-7.356Z" fill="#F37E60"/><path d="M66.485 173.554a3.585 3.585 0 0 1-3.562-3.169l-.068-.58h7.26l-.067.58a3.58 3.58 0 0 1-3.563 3.169Zm-2.397-2.714a2.548 2.548 0 0 0 2.397 1.678c1.093 0 2.04-.689 2.398-1.678h-4.795ZM72.86 167.412H60.117v-5.851c0-3.376 2.745-6.121 6.116-6.121h.507a6.13 6.13 0 0 1 6.12 6.121v5.851Zm-11.707-1.035h10.672v-4.816a5.09 5.09 0 0 0-5.085-5.085h-.507a5.086 5.086 0 0 0-5.08 5.085v4.816Z" fill="#fff"/><path d="M72.346 170.84H60.628c-1.19 0-2.16-.969-2.16-2.159v-.151c0-1.191.97-2.159 2.16-2.159h11.713c1.19 0 2.16.968 2.16 2.159v.151a2.16 2.16 0 0 1-2.155 2.159Zm-11.713-3.428c-.621 0-1.123.502-1.123 1.124v.15c0 .616.502 1.123 1.123 1.123h11.713c.616 0 1.124-.502 1.124-1.123v-.15c0-.617-.503-1.124-1.124-1.124H60.633Z" fill="#fff"/></g><path d="M8.717 204h147.9c5.57 0 10.09 4.52 10.09 10.09v28.31c0 1.68-2.05 2.51-3.21 1.3l-10.01-10.39a4.71 4.71 0 0 0-3.41-1.45H8.717c-4.82 0-8.72-4.01-8.72-8.83v-11.304c0-4.81 3.9-7.726 8.72-7.726Z" fill="#6683C2"/><path d="M13.284 222v-10.01h3.892c.653 0 1.218.112 1.694.336.485.215.859.518 1.12.91.27.392.406.854.406 1.386a2.2 2.2 0 0 1-.406 1.302c-.261.373-.635.667-1.12.882-.476.205-1.04.308-1.694.308h-2.408v-.686h2.66c.681 0 1.274.112 1.778.336.513.224.91.541 1.19.952.29.401.434.882.434 1.442 0 .569-.145 1.069-.434 1.498-.28.429-.677.761-1.19.994-.504.233-1.097.35-1.778.35h-4.144Zm1.344-1.162h2.814c.625 0 1.115-.149 1.47-.448.364-.299.546-.719.546-1.26s-.182-.961-.546-1.26c-.355-.299-.845-.448-1.47-.448h-2.954v-1.134h2.66c.579 0 1.036-.14 1.372-.42.336-.289.504-.681.504-1.176 0-.476-.168-.849-.504-1.12-.336-.28-.793-.42-1.372-.42h-2.52v7.686ZM22.576 222v-6.944h1.288v6.748l-.868-.882h2.87c.438 0 .774-.103 1.008-.308.233-.215.35-.509.35-.882 0-.364-.117-.644-.35-.84-.234-.205-.57-.308-1.008-.308h-2.66v-1.092h2.73c.784 0 1.418.21 1.904.63.485.411.728.943.728 1.596 0 .448-.117.845-.35 1.19a2.321 2.321 0 0 1-.938.798c-.392.196-.84.294-1.344.294h-3.36Zm6.874 0v-6.944h1.302V222H29.45Zm3.434 0v-6.944h1.288v6.65l-.336-.784h3.626l-.364.784v-6.65h1.288v6.65l-.266-.784h3.654l-.462.784v-6.65H42.6V222h-9.716Zm17.622-2.044.812.84a3.808 3.808 0 0 1-1.344 1.05c-.523.252-1.115.378-1.778.378-.756 0-1.428-.159-2.016-.476a3.577 3.577 0 0 1-1.386-1.302c-.327-.56-.49-1.199-.49-1.918 0-.719.158-1.353.476-1.904.317-.56.756-.999 1.316-1.316a3.77 3.77 0 0 1 1.89-.476c.681 0 1.283.159 1.806.476.532.308.947.737 1.246 1.288.308.541.462 1.171.462 1.89v.084h-1.316v-.126c0-.504-.093-.943-.28-1.316a2.061 2.061 0 0 0-.784-.882 2.015 2.015 0 0 0-1.134-.322c-.457 0-.863.107-1.218.322-.355.215-.63.518-.826.91-.196.383-.294.835-.294 1.358 0 .523.107.985.322 1.386.224.392.532.695.924.91.392.215.84.322 1.344.322.924 0 1.68-.392 2.268-1.176Zm.994-.994h-6.23v-.966h6.006l.224.49v.476Zm.889 3.038v-1.092h.532c.261 0 .453-.065.574-.196.13-.131.21-.359.238-.686l.434-4.97h5.11V222h-1.302v-6.706l.924.854h-4.48l1.008-.854-.476 4.956c-.056.653-.229 1.111-.518 1.372-.29.252-.723.378-1.302.378h-.742Zm16.971 0v-6.944h1.302V222H69.36Zm-5.222 0v-6.944h1.302V222h-1.302Zm.63-3.108v-1.078h5.32v1.078h-5.32Zm11.314 3.332c-.727 0-1.371-.159-1.931-.476a3.453 3.453 0 0 1-1.316-1.302c-.318-.56-.476-1.199-.476-1.918 0-.719.158-1.353.476-1.904a3.453 3.453 0 0 1 1.316-1.302c.56-.327 1.204-.49 1.931-.49.729 0 1.368.163 1.919.49.56.317.998.751 1.316 1.302.326.551.49 1.185.49 1.904 0 .719-.164 1.358-.49 1.918A3.453 3.453 0 0 1 78 221.748c-.551.317-1.19.476-1.919.476Zm0-1.12a2.33 2.33 0 0 0 1.233-.322c.354-.215.63-.518.826-.91.195-.392.293-.84.293-1.344 0-.504-.097-.947-.293-1.33a2.173 2.173 0 0 0-.827-.91 2.258 2.258 0 0 0-1.231-.336c-.467 0-.882.112-1.246.336-.355.215-.63.518-.827.91-.196.383-.294.826-.294 1.33 0 .504.099.952.294 1.344.197.392.472.695.826.91.365.215.78.322 1.246.322Zm5.406.896v-6.944h3.542c.728 0 1.302.168 1.722.504.43.336.644.784.644 1.344 0 .355-.108.663-.322.924a1.953 1.953 0 0 1-.84.602l-.014-.126c.439.121.798.327 1.078.616s.42.644.42 1.064c0 .392-.117.742-.35 1.05a2.27 2.27 0 0 1-.938.714c-.392.168-.83.252-1.316.252h-3.626Zm1.246-.308-.728-.714h3.01c.43 0 .765-.089 1.008-.266.242-.187.364-.448.364-.784 0-.327-.122-.579-.364-.756-.243-.187-.579-.28-1.008-.28H82.16v-.98h2.786c.41 0 .7-.084.868-.252.168-.168.252-.401.252-.7 0-.289-.089-.504-.266-.644-.168-.149-.453-.224-.854-.224h-2.954l.742-.742v6.342Zm6.478.308v-6.944H90.5v6.748l-.868-.882h2.87c.44 0 .775-.103 1.008-.308.234-.215.35-.509.35-.882 0-.364-.116-.644-.35-.84-.233-.205-.569-.308-1.008-.308h-2.66v-1.092h2.73c.784 0 1.42.21 1.904.63.486.411.728.943.728 1.596 0 .448-.116.845-.35 1.19a2.321 2.321 0 0 1-.938.798c-.392.196-.84.294-1.344.294h-3.36Zm6.874 0v-6.944h1.302V222h-1.302Zm3.435 0v-6.944h1.274v5.236l-.098-.028 4.158-5.208h1.134V222h-1.274v-5.236l.112.042-4.172 5.194h-1.134Zm3.318-8.19c-.644 0-1.181-.163-1.61-.49-.429-.336-.681-.807-.756-1.414h1.106c.056.392.191.677.406.854.224.177.509.266.854.266s.625-.089.84-.266c.224-.177.364-.462.42-.854h1.106c-.075.607-.327 1.078-.756 1.414-.429.327-.966.49-1.61.49Zm12.748 8.19-3.794-3.598h.14l3.43-3.346h1.666l-3.724 3.626-.266-.728 4.326 4.046h-1.778Zm-4.718 0v-6.944h1.302V222h-1.302Zm12.848-6.944h1.33l-3.458 8.05c-.215.513-.49.91-.826 1.19-.327.28-.798.42-1.414.42h-.756v-1.092h.728c.289 0 .527-.075.714-.224.196-.14.355-.35.476-.63l.294-.742-2.996-6.972h1.386l2.506 6.23h-.504l2.52-6.23Zm3.958 9.66h-1.302v-9.66h1.288v2.128h-.294c.074-.457.247-.863.518-1.218a2.88 2.88 0 0 1 1.036-.826c.42-.205.877-.308 1.372-.308.672 0 1.269.163 1.792.49.522.317.933.756 1.232 1.316.298.551.448 1.181.448 1.89 0 .719-.154 1.358-.462 1.918a3.314 3.314 0 0 1-1.26 1.302c-.532.317-1.139.476-1.82.476-.626 0-1.167-.126-1.624-.378a2.596 2.596 0 0 1-1.036-1.05 2.677 2.677 0 0 1-.28-1.498l.266-.266c.037.401.168.761.392 1.078.233.317.527.565.882.742.364.168.756.252 1.176.252.485 0 .905-.107 1.26-.322.354-.224.634-.532.84-.924.205-.392.308-.835.308-1.33 0-.495-.098-.933-.294-1.316a2.305 2.305 0 0 0-.812-.924c-.346-.224-.752-.336-1.218-.336a2.26 2.26 0 0 0-1.246.35c-.355.224-.64.541-.854.952-.206.411-.308.887-.308 1.428v6.034Zm13.081-4.69.882.84a3.61 3.61 0 0 1-1.246.994c-.494.243-1.054.364-1.68.364-.709 0-1.344-.159-1.904-.476a3.492 3.492 0 0 1-1.302-1.302c-.317-.56-.476-1.199-.476-1.918 0-.709.159-1.339.476-1.89a3.43 3.43 0 0 1 1.316-1.316 3.784 3.784 0 0 1 1.918-.49c.616 0 1.167.121 1.652.364.495.243.91.574 1.246.994l-.882.84a2.49 2.49 0 0 0-.812-.784c-.326-.196-.718-.294-1.176-.294a2.33 2.33 0 0 0-1.246.336 2.277 2.277 0 0 0-.84.91c-.196.383-.294.826-.294 1.33 0 .504.098.952.294 1.344a2.4 2.4 0 0 0 .84.91c.364.215.78.322 1.246.322.467 0 .859-.098 1.176-.294a2.49 2.49 0 0 0 .812-.784Zm3.917 1.218a.861.861 0 0 1-.266.63.878.878 0 0 1-.644.266.861.861 0 0 1-.63-.266.861.861 0 0 1-.266-.63c0-.252.089-.462.266-.63a.861.861 0 0 1 .63-.266c.252 0 .467.089.644.266a.833.833 0 0 1 .266.63Zm-.546-2.184h-.728a39.378 39.378 0 0 0-.056-.798 50.35 50.35 0 0 0-.084-1.26l-.084-1.456c-.028-.504-.056-.975-.084-1.414l-.07-1.106a35.454 35.454 0 0 1-.014-.518.72.72 0 0 1 .21-.532.768.768 0 0 1 .546-.21c.215 0 .397.07.546.21.149.14.224.317.224.532 0 .047-.009.219-.028.518l-.07 1.106c-.019.439-.047.91-.084 1.414l-.084 1.456c-.028.476-.056.896-.084 1.26-.019.364-.037.63-.056.798Z" fill="#fff"/><path d="M164.02 218.064c6.093 0 11.032-4.94 11.032-11.032 0-6.093-4.939-11.032-11.032-11.032s-11.032 4.939-11.032 11.032c0 6.092 4.939 11.032 11.032 11.032Z" fill="#F37E60"/><path d="M165.288 212.189h-1.52v-9.171l-1.541.945v-1.57l1.541-1.03h1.52v10.826Z" fill="#fff"/><g clip-path="url(#b)"><path d="M114.158 300.156c7.814-7.814 7.814-20.484 0-28.298-7.814-7.815-20.484-7.815-28.298 0-7.814 7.814-7.814 20.484 0 28.298 7.814 7.814 20.484 7.814 28.298 0Z" fill="#F37E60"/><path d="M98.898 278.09h2.22v11.77h-2.22v-11.77Zm0 13.61h2.22v2.22h-2.22v-2.22Z" fill="#fff"/></g><defs><clipPath id="a"><path fill="#fff" transform="translate(49.988 148)" d="M0 0h33v33H0z"/></clipPath><clipPath id="b"><path fill="#fff" transform="translate(80 266)" d="M0 0h40.01v40.01H0z"/></clipPath></defs></svg>