<svg width="416" height="108" viewBox="0 0 416 108" fill="none" xmlns="http://www.w3.org/2000/svg">
<g clip-path="url(#clip0_142_909)">
<path d="M277.222 122.987C277.222 122.987 277.222 125.173 275.036 125.72C270.663 126.813 266.29 127.359 261.918 126.813C259.185 126.813 256.452 126.266 253.172 125.72C252.625 125.72 252.079 125.72 251.532 125.72C251.532 125.72 250.439 125.173 250.439 124.626C250.439 122.987 250.439 121.893 250.439 120.254C250.439 92.3772 249.346 65.0473 248.799 37.1708C248.799 32.2514 248.799 27.3321 248.799 22.4127C248.799 18.0399 248.253 18.5865 252.625 17.4933C256.998 16.4001 261.371 15.8535 265.744 15.8535C267.93 15.8535 271.21 15.8535 273.396 16.9467C275.582 18.0399 275.582 19.6797 276.129 21.8661C276.129 31.7048 277.769 114.788 277.769 122.987H277.222Z" fill="#6BA3B1"/>
<path d="M254.265 114.244C254.265 110.965 254.265 107.685 254.265 104.405C254.265 97.8463 254.265 90.7405 254.265 83.6347C254.265 69.9698 254.265 56.3049 254.265 42.6399C254.265 34.9876 254.265 27.3352 253.718 19.1362H253.172C253.172 22.4158 253.172 26.242 253.172 29.5216C253.172 32.8012 253.172 36.0808 253.172 39.3603C253.172 45.9195 253.172 53.0253 253.172 59.5844C253.172 73.2494 253.172 86.9143 253.172 100.579C253.172 104.405 253.172 108.232 253.172 112.604C253.172 116.431 253.172 120.257 253.172 124.63C253.172 121.35 253.172 117.524 253.172 114.244H254.265Z" fill="white"/>
<path d="M366.865 125.173C366.865 125.173 367.412 125.173 367.959 125.173C371.785 125.173 375.611 125.173 379.437 125.173C380.53 125.173 381.077 125.173 382.17 125.173C388.729 125.173 395.288 125.173 401.848 125.173H402.941C402.941 125.173 404.034 125.173 404.034 126.266C404.034 126.266 403.487 126.812 402.941 127.359C402.941 127.359 402.394 127.359 401.848 127.359C395.288 127.359 389.276 127.359 382.717 127.359C381.077 127.359 379.437 127.359 377.797 127.359C375.064 127.359 372.878 127.359 370.145 127.359C367.959 127.359 366.319 127.359 364.132 127.359C362.493 127.359 360.853 127.359 360.306 125.173C358.12 120.253 355.933 115.334 353.747 110.415C353.2 108.775 352.107 107.135 351.561 105.495C348.828 100.029 346.641 94.5632 343.908 89.0972C343.362 87.4574 342.268 85.8177 341.722 83.6313C338.442 75.4323 335.163 67.2333 331.883 58.4878C330.79 56.3014 330.243 54.115 329.697 51.9286C328.604 49.1956 327.51 46.4626 326.417 43.1831C325.871 41.5433 325.324 39.9035 324.777 38.8103C324.777 37.1705 324.777 36.0773 325.871 34.9841C329.697 31.7045 333.523 28.4249 337.349 25.1453C337.349 25.1453 338.442 24.5987 338.989 24.0521C340.629 22.959 342.268 22.4124 343.908 22.4124C348.828 22.959 353.747 24.0521 358.666 24.5987C363.039 25.1453 367.412 26.2385 371.785 27.3317C372.331 27.3317 373.425 27.3317 374.518 28.4249C376.157 28.9715 379.437 39.9035 380.53 42.6365C383.263 48.649 385.45 54.6616 388.183 60.1276C394.742 75.4323 401.301 90.737 407.86 106.042C407.86 107.135 408.953 108.775 409.5 109.868C409.5 110.961 410.047 112.054 410.593 113.148C411.14 115.881 410.593 116.427 407.86 116.427C403.487 116.427 399.661 116.427 395.288 116.427C390.369 116.427 385.996 116.427 381.077 116.427C378.344 116.427 376.157 116.974 374.518 118.614C372.331 120.8 369.598 122.44 366.865 124.079C366.865 124.079 366.319 124.626 365.226 125.173H366.865Z" fill="#A5CE83"/>
<path d="M379.436 49.7417C379.436 49.7417 385.449 66.1396 384.902 66.6862C384.356 67.2328 372.33 66.6862 369.597 66.6862C369.051 66.6862 367.958 66.6862 367.411 66.6862C366.864 65.0464 365.771 63.4066 365.225 61.2202C364.131 57.9406 363.038 54.1144 361.398 50.8349C361.398 50.8349 361.398 49.7417 361.398 49.1951C361.398 49.1951 361.398 49.1951 361.945 49.1951C361.945 49.1951 363.038 49.1951 363.585 49.1951C367.958 49.1951 378.343 49.1951 379.983 50.2883L379.436 49.7417Z" fill="#F5E7DE"/>
<path d="M342.816 25.6953C342.816 25.6953 342.816 26.2419 342.816 26.7885C344.456 30.6147 346.096 34.9875 347.189 38.8136C347.189 39.9068 347.735 40.4534 347.735 41.5466C348.829 44.2796 349.922 47.5592 351.015 50.2922C353.201 55.2116 355.388 60.6775 357.028 66.1435C358.121 68.8765 359.214 71.6095 360.307 74.3425C361.4 77.6221 363.04 80.355 364.133 83.6346C365.773 87.4608 367.413 91.287 369.053 95.1132C371.239 100.033 373.426 105.499 375.065 110.418C375.065 110.965 375.065 111.511 375.612 112.058C375.612 112.058 375.612 112.058 375.612 112.604H375.065C375.065 112.604 375.065 111.511 374.519 111.511C374.519 110.418 373.972 109.325 373.426 108.232C371.239 102.766 369.053 97.2996 366.866 92.3802C365.773 90.1938 365.227 88.0074 364.133 85.821C362.494 81.4482 360.854 77.6221 359.214 73.2493C358.121 70.5163 357.028 67.2367 355.934 64.5037C354.295 59.5843 352.108 54.665 349.922 50.2922C348.829 47.5592 347.735 45.3728 347.189 42.6398C346.096 39.9068 345.549 37.1739 344.456 34.4409C343.909 32.2545 342.816 30.0681 342.27 28.4283C342.27 28.4283 342.27 27.3351 342.27 26.7885L342.816 25.6953Z" fill="white"/>
<path d="M158.149 26.5821C158.149 33.1413 158.149 130.436 158.149 132.075C158.149 133.715 149.95 134.262 141.751 134.808C137.378 134.808 125.899 134.262 124.806 133.715C123.713 133.169 124.806 126.063 124.806 125.516C124.806 98.1864 124.806 70.3099 124.806 42.9801C124.806 36.4209 124.806 29.3151 124.806 22.756C124.806 21.6628 124.806 14.0104 125.353 13.4638C125.899 12.3706 137.378 12.3706 139.564 12.3706C147.763 12.3706 155.962 13.4638 157.055 14.557C158.149 15.6502 157.602 18.3832 157.602 19.4764C157.602 22.2094 157.602 24.3957 157.602 27.1287L158.149 26.5821Z" fill="#C0735B"/>
<path d="M140.109 17.2881C140.109 17.2881 142.295 17.2881 143.389 17.2881C146.122 17.2881 149.401 17.2881 151.588 19.4745C152.681 20.0211 153.774 21.1143 153.774 22.7541C153.774 23.3007 153.774 24.3939 152.681 24.9405C151.588 25.487 151.588 26.0336 150.494 26.0336C147.761 27.1268 144.482 27.6734 141.202 27.6734C139.562 27.6734 137.376 27.6734 135.736 27.1268C133.55 26.5802 129.177 24.9405 130.27 21.6609C130.27 20.0211 131.91 19.4745 133.55 18.9279C135.736 18.3813 137.923 17.8347 140.109 17.8347V17.2881Z" fill="#E3C2AC"/>
<path d="M128.086 39.7018C128.086 30.9562 128.086 22.7573 128.086 14.0117H127.539C127.539 29.3164 127.539 44.6212 127.539 59.3793C127.539 74.684 127.539 89.4422 127.539 104.747C127.539 113.492 127.539 122.238 127.539 130.437H128.086C128.086 100.374 128.086 69.7647 128.086 39.7018Z" fill="#010101"/>
<path d="M155.961 40.2489C155.961 31.5034 155.961 22.7578 155.961 14.5588H155.414C155.414 29.8636 155.414 45.1683 155.414 60.473C155.414 75.7777 155.414 90.5359 155.414 105.841C155.414 114.586 155.414 123.332 155.414 131.531C155.414 132.077 156.507 132.077 156.507 131.531C156.507 100.921 156.507 70.8584 156.507 40.2489H155.961Z" fill="#010101"/>
<path d="M327.513 112.051C327.513 116.424 327.513 120.25 327.513 123.53C327.513 124.623 327.513 125.17 325.873 125.716C319.314 128.449 312.754 127.903 305.649 126.263C305.649 126.263 305.649 126.263 304.555 126.263C304.009 126.263 304.555 122.983 304.555 122.437C304.555 114.784 305.102 28.4218 304.555 24.5956C304.555 23.5024 304.555 22.9558 304.555 21.8626C304.555 20.2228 305.649 19.1296 307.288 19.1296C308.928 19.1296 310.568 19.1296 312.208 19.1296C316.034 19.1296 319.86 19.1296 324.233 19.6762C326.419 19.6762 327.513 20.7694 327.513 22.9558C327.513 25.6888 327.513 28.9684 327.513 31.7014C327.513 34.4344 327.513 36.6208 327.513 39.3537C327.513 44.8197 327.513 50.2857 327.513 55.7517C327.513 58.4846 327.513 61.2176 327.513 63.9506C327.513 75.9758 327.513 88.0009 327.513 99.4795C327.513 103.852 327.513 108.772 327.513 112.051Z" fill="#A8C88D"/>
<path d="M275.035 12.5717C275.035 9.83875 275.035 7.10577 275.035 3.82618C275.035 2.18639 275.035 2.18639 276.675 1.63979C279.955 0.546597 285.967 0 289.793 0C295.259 0 297.992 0.546597 303.458 1.63979C306.738 1.63979 307.284 2.73299 307.284 6.01257C307.284 7.10577 307.284 44.821 307.284 54.6597C307.284 68.8713 307.284 82.5362 307.284 96.7477C307.284 104.947 307.284 113.692 306.738 121.891C306.738 124.624 305.645 125.717 303.458 126.264C301.818 126.264 300.179 126.811 297.992 127.357C292.526 128.45 287.607 127.357 282.688 126.811C281.048 126.811 279.408 125.717 277.768 125.171C276.675 125.171 276.128 124.078 276.128 122.984C276.128 94.5614 275.498 28.699 275.498 20.5L275.035 12.5717Z" fill="#C6E3AC"/>
<path d="M250.44 125.174C246.614 126.813 242.241 127.36 238.415 127.36C234.042 127.36 229.669 127.36 225.843 126.267C225.843 126.267 224.75 126.267 224.203 126.267C224.203 125.72 224.203 124.627 224.203 124.08C224.203 123.534 224.203 122.441 224.203 121.894V120.801C224.203 119.708 224.203 119.161 224.203 118.068C224.203 118.068 224.203 116.975 224.203 116.428C224.203 112.602 224.203 108.776 224.203 104.95C224.203 95.1108 224.203 85.8186 224.203 75.9798C224.203 73.7935 224.203 71.0605 224.203 68.8741C224.203 60.6751 224.203 52.4762 224.203 44.2772C224.203 36.6248 224.203 28.9725 224.203 21.3201C224.203 21.3201 224.203 20.2269 224.203 19.6803C224.203 18.5871 224.203 16.9473 224.203 15.8541C224.203 13.6677 224.75 11.4813 227.483 10.9347C231.309 10.3881 233.495 10.3882 237.321 9.84155C240.601 9.84155 247.707 9.84155 250.44 11.4813C252.08 12.0279 251.533 13.1211 252.08 14.7609C252.08 16.4007 252.08 18.0405 252.08 19.6803C252.08 19.6803 252.08 20.2269 252.08 20.7735C252.08 27.3327 252.08 33.8918 252.08 40.9976C252.08 52.4762 252.08 63.4081 252.08 74.8867C252.08 81.4458 252.08 87.4584 252.08 94.0176C252.08 96.7505 252.08 99.4835 252.08 102.217C252.08 106.589 252.08 110.962 252.08 115.335V119.708V120.801C252.08 120.801 252.08 121.347 252.08 121.894C252.08 123.534 252.08 124.08 250.44 124.627V125.174Z" fill="#8BB85D"/>
<path d="M250.986 21.8637C248.253 21.8637 244.973 21.8637 242.24 21.8637C237.321 21.8637 232.402 21.8637 226.936 21.8637C225.842 21.8637 224.203 21.8637 223.109 21.8637C223.109 21.8637 223.109 20.7705 223.109 20.2239C223.656 20.2239 224.749 20.2239 225.296 20.2239C233.495 20.2239 241.694 20.2239 249.893 20.2239C249.893 20.2239 250.439 20.2239 250.986 20.2239C250.986 20.2239 250.986 20.7705 250.986 21.3171V21.8637Z" fill="#DEF0F5"/>
<path d="M206.252 129.891C206.252 129.891 205.159 132.624 202.426 133.171C198.053 133.717 193.68 133.717 189.307 133.171C189.307 133.171 188.214 133.171 187.667 132.624C187.121 132.624 186.574 132.078 186.574 130.984C186.574 130.984 186.574 129.891 186.574 129.345C186.574 129.345 186.574 128.798 186.574 128.251C186.574 123.332 186.574 117.866 186.574 112.947C186.574 99.2818 186.574 85.6168 186.574 71.9519C186.574 57.7404 186.574 43.5288 186.574 29.3173C186.574 24.9445 186.574 20.5717 186.574 16.199C186.574 16.199 186.574 15.1058 186.574 14.5592C186.574 14.0126 186.574 13.466 186.574 12.3728C186.574 12.3728 186.574 11.2796 186.574 10.733C186.574 9.09319 187.121 9.09319 189.307 8.5466C190.947 8.5466 193.133 8 194.773 8C198.053 8 201.332 8 204.612 8C206.798 8 207.345 8.5466 207.892 10.733C207.892 10.733 207.892 10.733 207.892 11.2796C207.892 11.2796 207.892 11.8262 207.892 12.3728C207.892 12.9194 207.892 14.0126 207.892 14.5592C207.892 15.1058 207.892 15.6524 207.892 16.199V17.2922C207.892 24.3979 207.892 32.0503 207.892 39.1561C207.892 49.5414 207.892 59.3802 207.892 69.7655C207.892 88.8964 207.892 108.027 207.345 127.158C207.345 127.158 207.345 128.251 207.345 128.798L206.252 129.891Z" fill="#96C269"/>
<path d="M207.891 15.6531C207.891 15.6531 207.891 16.7463 207.891 17.2929C204.612 17.2929 201.332 17.2929 198.052 17.2929C196.959 17.2929 195.866 17.2929 194.226 17.2929C191.493 17.2929 188.76 17.2929 186.027 17.2929C186.027 17.2929 186.027 16.1997 186.027 15.6531C189.854 15.6531 193.68 15.6531 197.506 15.6531C199.692 15.6531 201.332 15.6531 203.518 15.6531C204.612 15.6531 206.251 15.6531 207.345 15.6531H207.891Z" fill="#B4DE89"/>
<path d="M207.892 13.4628C204.612 13.4628 201.879 13.4628 198.6 13.4628C195.867 13.4628 193.134 13.4628 190.947 13.4628C189.854 13.4628 188.761 13.4628 187.121 13.4628C187.121 12.9162 187.121 12.3696 187.121 11.823C191.494 11.823 196.413 11.823 200.786 11.823C203.519 11.823 205.705 11.823 208.438 11.823C208.438 11.823 208.438 11.823 208.438 12.3696C208.438 12.3696 208.438 12.9162 208.438 13.4628H207.892Z" fill="#B4DE89"/>
<path d="M187.664 131.53C187.664 131.53 177.825 134.263 172.906 134.263C164.707 134.263 158.148 132.623 157.601 132.623C157.054 132.623 157.054 124.424 156.508 121.145C156.508 93.2684 157.054 32.0495 157.054 30.9563C157.054 29.8631 157.054 28.2234 158.148 28.2234C159.787 28.2234 161.974 27.6768 163.614 27.6768C166.893 27.6768 170.173 27.6768 173.452 27.6768C176.732 27.6768 180.012 27.6768 183.291 27.6768C184.931 27.6768 184.931 27.6768 184.931 29.8631C184.931 33.1427 184.931 36.4223 184.931 39.7019C184.931 53.3668 185.477 132.077 186.024 132.623L187.664 131.53Z" fill="#8ECBC7"/>
<path d="M178.919 57.9047C178.919 57.8148 178.846 57.7429 178.756 57.7464C177.216 57.8059 165.254 58.2514 165.254 57.74C165.254 56.6468 165.254 55.007 165.254 54.4604C165.254 48.9945 165.254 43.5285 165.254 38.0625C165.254 36.9693 165.254 34.7829 165.254 34.2363C165.254 33.1431 178.919 32.5965 178.919 34.2363C178.919 35.2592 179.397 54.9452 179.011 57.9213C178.993 58.061 178.919 58.0456 178.919 57.9047Z" fill="#5AB7B1"/>
<path d="M177.826 67.0303C178.731 67.0303 179.465 67.5595 179.465 68.4651C179.465 69.3707 178.736 70.3099 177.83 70.3099C175.087 70.3099 169.625 70.3099 166.892 70.3099C165.986 70.3099 165.254 69.5757 165.254 68.6701C165.254 67.7644 165.988 67.0303 166.894 67.0303H177.826Z" fill="#5AB7B1"/>
<path d="M166.893 64.845C165.987 64.845 165.254 64.3158 165.254 63.4102C165.254 62.5046 165.988 61.5654 166.894 61.5654H177.826C178.731 61.5654 179.465 62.0946 179.465 63.0002C179.465 63.9059 178.736 64.845 177.83 64.845C175.14 64.845 169.791 64.845 166.893 64.845Z" fill="#5AB7B1"/>
<path d="M168.531 122.786C168.531 122.786 168.531 120.053 168.531 118.413C168.531 115.134 168.531 112.401 168.531 109.121C168.531 103.108 168.531 96.5492 168.531 90.5366H167.984C167.984 96.5492 167.984 103.108 167.984 109.121V118.413C167.984 118.413 167.984 121.693 167.984 122.786C167.984 124.426 167.984 126.065 167.984 127.159C167.984 125.519 167.984 124.426 167.984 122.786H168.531Z" fill="#5AB7B1"/>
<path d="M176.73 108.573C176.73 111.853 176.73 114.586 176.73 117.865C176.73 119.505 176.73 120.598 176.73 122.238C176.73 123.878 176.73 125.518 176.73 126.611C176.73 124.971 176.73 123.878 176.73 122.238C176.73 120.598 176.73 118.959 176.73 117.319C176.73 114.039 176.73 111.306 176.73 108.027C176.73 102.014 176.73 96.0016 176.73 89.4424H177.277C177.277 95.455 177.824 102.014 177.824 108.027L176.73 108.573Z" fill="#5AB7B1"/>
<path d="M126.448 130.981C126.448 133.714 124.262 134.26 122.075 134.26C113.33 135.353 105.131 135.9 96.3854 134.26C94.199 134.26 92.0126 133.167 89.8262 132.62C88.1864 132.62 87.0932 130.981 87.0932 129.341C86 124.968 86 120.595 86 116.222C86 97.6382 86 79.6005 86 61.0162C86 48.4444 86.5466 35.8727 87.0932 23.3009C87.0932 22.2077 87.0932 20.5679 87.0932 19.4748C87.0932 18.3816 88.1864 17.835 89.2796 17.835C90.9194 17.835 92.5592 17.835 94.199 17.835C103.491 17.835 112.783 18.3816 122.075 18.9282C122.075 18.9282 122.622 18.9282 123.169 18.9282C125.355 18.9282 124.808 20.5679 125.355 22.7543C125.355 24.9407 125.355 130.434 125.355 130.981H126.448Z" fill="#144683"/>
<path d="M126.448 130.981C126.448 133.714 124.262 134.26 122.075 134.26C113.33 135.353 105.131 135.9 96.3854 134.26C94.199 134.26 92.0126 133.167 89.8262 132.62C88.1864 132.62 87.0932 130.981 87.0932 129.341C86 124.968 86 120.595 86 116.222C86 97.6382 86 79.6005 86 61.0162C86 48.4444 86.5466 35.8727 87.0932 23.3009C87.0932 22.2077 87.0932 20.5679 87.0932 19.4748C87.0932 18.3816 88.1864 17.835 89.2796 17.835C90.9194 17.835 92.5592 17.835 94.199 17.835C103.491 17.835 112.783 18.3816 122.075 18.9282C122.075 18.9282 122.622 18.9282 123.169 18.9282C125.355 18.9282 124.808 20.5679 125.355 22.7543C125.355 24.9407 125.355 130.434 125.355 130.981H126.448Z" fill="#144683"/>
<path d="M126.448 130.981C126.448 133.714 124.262 134.26 122.075 134.26C113.33 135.353 105.131 135.9 96.3854 134.26C94.199 134.26 92.0126 133.167 89.8262 132.62C88.1864 132.62 87.0932 130.981 87.0932 129.341C86 124.968 86 120.595 86 116.222C86 97.6382 86 79.6005 86 61.0162C86 48.4444 86.5466 35.8727 87.0932 23.3009C87.0932 22.2077 87.0932 20.5679 87.0932 19.4748C87.0932 18.3816 88.1864 17.835 89.2796 17.835C90.9194 17.835 92.5592 17.835 94.199 17.835C103.491 17.835 112.783 18.3816 122.075 18.9282C122.075 18.9282 122.622 18.9282 123.169 18.9282C125.355 18.9282 124.808 20.5679 125.355 22.7543C125.355 24.9407 125.355 130.434 125.355 130.981H126.448Z" fill="#B1DD85"/>
<path d="M108.96 33.6859C108.96 33.6859 108.96 34.7791 108.96 35.8723C108.96 35.8723 108.96 36.4189 108.414 36.4189C108.414 36.4189 107.867 36.4189 107.32 35.8723C107.32 34.2325 107.32 32.5927 107.32 30.9529C107.32 30.9529 107.32 30.9529 107.867 30.9529C107.867 32.0461 107.867 32.5927 107.867 33.6859H108.96Z" fill="white"/>
</g>
<defs>
<clipPath id="clip0_142_909">
<rect width="416" height="108" rx="20" fill="white"/>
</clipPath>
</defs>
</svg>
