<svg width="206" height="96" viewBox="0 0 206 96" fill="none" xmlns="http://www.w3.org/2000/svg">
<g clip-path="url(#clip0_142_20210)">
<path d="M122.077 56.4122C122.358 56.2458 122.649 56.0895 122.935 55.9282C123.076 55.7164 123.256 55.5198 123.477 55.3736C126.768 53.2258 130.365 51.8846 134.102 51.1132C140.604 49.1166 147.457 48.2898 154.274 48.7334C159.722 49.0914 165.14 50.2057 170.247 52.1619C172.194 52.9081 175.224 53.7047 175.871 56.0139C176.017 56.5332 176.011 57.0576 175.886 57.5466C176.172 58.1315 176.087 58.8172 175.761 59.3819C176.197 59.8861 176.508 60.481 176.629 61.2121C176.864 62.6793 175.756 64.1364 174.16 63.6927C173.458 63.4961 172.751 63.3095 172.048 63.1179C169.57 65.8506 166.781 68.2909 163.731 70.3631C163.304 71.5933 162.05 72.5008 160.731 72.284C159.055 73.3277 156.983 74.5277 154.987 75.0621C154.63 76.6301 152.564 77.7696 150.943 77.0385C150.146 78.062 148.796 78.5763 147.547 77.6234C147.356 77.4822 147.181 77.331 146.99 77.1847C146.975 77.1696 146.965 77.1595 146.95 77.1444C144.206 75.0117 141.642 72.7227 139.254 70.2623C136.761 68.3463 134.338 66.3397 132.005 64.217C130.631 62.9667 131.218 60.9449 132.447 59.9516C132.502 59.8558 132.567 59.76 132.642 59.6693C129.457 59.8407 126.271 60.0172 123.096 60.1583C121.064 60.2491 120.417 57.3853 122.082 56.4021L122.077 56.4122ZM160.595 65.0086C160.761 65.1548 160.926 65.3061 161.092 65.4624C161.308 65.3111 161.523 65.1548 161.739 64.9985C161.563 64.9885 161.383 64.9733 161.207 64.9582C161.007 64.9784 160.801 64.9935 160.6 65.0086H160.595Z" fill="#F1BBA2"/>
<path d="M126.504 41.0497C126.915 38.2766 126.594 35.4734 127.582 32.8012C128.124 31.3441 128.816 30.0231 128.942 28.4349C129.057 26.9576 128.831 25.4703 128.801 23.993C128.751 21.5124 129.002 19.0116 129.584 16.5966C131.806 7.38002 139.442 -0.379425 149.264 0.044093C149.44 0.044093 149.535 0.0340092 149.661 0.0239255C159.559 -0.485304 167.36 7.20356 169.592 16.4705C170.174 18.8856 170.425 21.3864 170.375 23.867C170.344 25.3442 170.124 26.8316 170.234 28.3088C170.354 29.897 171.052 31.218 171.594 32.6751C172.587 35.3473 172.261 38.1506 172.672 40.9236C173.028 43.3336 174.508 45.5218 173.841 47.9923C173.786 48.194 173.575 48.3755 173.359 48.3604C168.182 47.9974 163.09 49.4646 158.209 47.357C155.52 46.1974 149.716 45.7638 149.686 41.9673C149.626 41.9673 149.56 41.9673 149.5 41.9572C149.606 45.8747 143.696 46.3083 140.977 47.4831C136.096 49.5856 131.004 48.1234 125.826 48.4864C125.611 48.5016 125.395 48.32 125.345 48.1184C124.678 45.6479 126.158 43.4647 126.514 41.0497H126.504Z" fill="#363537"/>
<path d="M67.3092 57.461C67.4547 57.4862 67.5801 57.5316 67.6955 57.587C67.545 56.2862 69.4263 55.3888 69.9931 56.7602C74.2021 66.8994 78.8877 78.173 89.0816 83.5628C93.5665 85.9325 109.188 88.5593 113.974 66.9095C114.09 66.3952 118.228 74.0286 118.65 74.321C120.561 75.6622 122.468 77.0084 124.379 78.3495C125.668 79.257 127.8 80.2604 128.442 81.8385C129.732 79.8217 129.466 84.3544 128.442 81.8385C113.031 105.949 92.5832 101.25 86.0365 97.5792C79.3292 93.818 74.2372 85.6905 70.9814 78.9293C68.9396 74.6891 67.3443 70.2119 66.2557 65.6339C65.9146 64.207 63.5568 56.8711 67.3042 57.461H67.3092Z" fill="#F1BBA2"/>
<path d="M142.515 50.4884L140.378 24.1849C140.378 23.1816 142.75 26.4437 143.588 27.0537C147.852 30.1444 151.264 31.0973 156.361 31.6317C156.516 31.6469 156.652 31.6922 156.777 31.7427C157.489 31.7427 157.434 32.0855 157.429 33.0082C157.409 38.9072 158.734 50.322 157.414 56.1201C157.073 57.6277 156.727 55.3588 155.162 56.0395C154.103 56.4983 152.147 56.2966 150.983 56.3974C149.498 56.5235 149.668 56.3621 148.183 56.4882C146.563 56.6243 144.491 57.8192 143.117 56.5033C141.777 55.2227 142.505 52.0362 142.51 50.4884H142.515Z" fill="#F1BBA2"/>
<path d="M134.343 14.3539C134.318 11.1977 135.783 9.87673 138.306 8.50534C151.901 1.11899 164.107 7.8751 164.192 9.81622C164.533 17.7068 165.206 27.7703 161.558 34.8996C158.829 40.2389 153.487 44.9631 147.386 42.3363C141.02 39.5935 134.468 31.8744 134.343 14.3539Z" fill="#F1BBA2"/>
<path d="M51.2624 49.0062C50.7056 48.3962 50.0434 47.6197 50.0032 47.0197C49.8979 45.4618 51.7039 46.6113 52.2407 47.0953C53.3694 48.1037 54.4831 49.1171 55.647 50.0902C56.2339 50.5793 56.8058 51.0936 57.4179 51.5473C57.7189 51.7692 59.4095 52.8078 59.8058 52.3944C58.1954 50.8364 56.5901 49.2785 54.9948 47.7054C54.3326 47.05 52.0601 45.0635 52.642 43.8938C52.7122 43.7475 52.8376 43.682 52.9982 43.687C54.8493 43.7677 56.7306 45.8903 57.9195 47.1407C58.7122 47.9777 59.9212 49.8684 61.0349 50.2566C61.3459 50.3625 61.6118 50.3322 61.8476 50.2112C62.0884 49.8936 62.3141 49.5608 62.5148 49.2079C62.6252 48.9407 62.7506 48.6785 62.891 48.4314C62.9211 48.3659 62.9513 48.3054 62.9763 48.2348C63.0064 48.1642 63.0516 48.1188 63.1018 48.0836C63.5583 47.3827 64.1703 46.7928 65.0231 46.4097C66.473 45.7592 69.1518 45.3962 70.3659 46.6416C70.5465 46.8281 70.4261 47.055 70.2355 47.1357C70.1201 47.3525 70.0248 47.3928 69.7087 47.5088C68.8509 47.8264 67.9479 47.8768 67.1151 48.3054C66.0114 48.8751 65.1185 49.697 64.5566 50.7205C64.2857 51.8851 64.4863 53.0851 65.284 54.1036C66.0214 55.0413 67.0549 55.485 68.1485 55.7674C68.1586 55.7321 68.1686 55.6917 68.1937 55.6564C69.3074 53.9624 69.7689 52.0364 69.9846 50.0348C70.0799 49.1726 69.794 47.5945 70.6418 47.0601C70.7973 46.9643 70.9579 47.0046 71.0682 47.1004C71.1535 47.1206 71.2338 47.176 71.2839 47.2769C72.0766 48.8146 72.4177 50.7406 72.2522 52.47C72.1217 53.8414 71.4796 55.0413 70.7973 56.2111C70.687 57.1438 70.9829 57.9858 71.2137 58.974C71.3692 59.6395 71.5548 60.658 71.2438 61.3588C71.2538 61.3991 71.2589 61.4445 71.2589 61.4899C71.2589 61.5252 71.2589 61.5605 71.2589 61.5958C71.2589 61.7269 71.1084 61.8832 70.9729 61.8832C70.9478 61.8832 70.9227 61.8832 70.8926 61.8832C70.8676 61.8832 70.8475 61.8731 70.8274 61.8731C70.7522 61.9235 70.6769 61.9689 70.5866 62.0042C70.5164 62.0344 70.4512 62.0294 70.391 62.0143C69.9244 62.3369 69.3124 62.8915 69.0816 63.0226C68.8107 63.1789 68.5147 63.4361 68.1887 63.4764C67.6318 63.552 67.0699 63.1588 66.6134 62.8815C64.677 61.7117 62.9111 60.0983 61.3108 58.5102C60.9697 58.1723 60.5784 57.8194 60.2071 57.4463C59.0683 56.7102 57.9747 55.9035 56.9312 55.1271C55.5918 54.1288 54.2975 53.0649 53.0584 51.9406C52.3109 51.2599 51.132 50.4431 51.1119 49.3339C51.1119 49.1776 51.1621 49.0768 51.2825 48.9961L51.2624 49.0062Z" fill="#F1BBA2"/>
<path d="M155.863 23.6914C155.848 24.6292 156.285 25.3956 156.837 25.4056C157.389 25.4157 157.845 24.6595 157.855 23.7217C157.87 22.7839 157.434 22.0175 156.882 22.0074C156.33 21.9973 155.874 22.7536 155.863 23.6914Z" fill="#363537"/>
<path d="M142.434 23.9932C142.444 24.931 142.901 25.6873 143.447 25.6772C143.999 25.6722 144.436 24.9058 144.426 23.968C144.416 23.0302 143.959 22.274 143.412 22.284C142.865 22.2941 142.424 23.0554 142.434 23.9932Z" fill="#363537"/>
<path d="M139.887 19.0038C139.913 18.9787 140.417 18.8403 140.438 18.8403C142.014 18.4882 144.162 18.2147 145.675 18.6737C146.461 18.9126 147.23 19.4974 146.122 19.7803C145.176 20.0224 143.819 19.9878 142.82 20.0067C142.009 20.0193 141.02 20.1073 140.251 19.8872C139.32 19.6232 139.283 19.2962 139.887 19.0007V19.0038Z" fill="#363537"/>
<path d="M160.396 19.6605C159.669 19.9251 158.665 19.9064 157.849 19.9469C156.845 19.9967 155.496 20.1182 154.507 19.9438C153.347 19.7383 154.011 19.1125 154.748 18.823C156.176 18.2688 158.372 18.3965 160.009 18.6393C160.03 18.6393 160.558 18.7389 160.589 18.7638C161.248 19.0129 161.274 19.3367 160.391 19.6605H160.396Z" fill="#363537"/>
<path d="M145.633 33.6482C150.454 35.3776 154.753 33.3154 155.009 33.3961C155.114 33.4314 155.225 33.5121 155.205 33.628C154.793 35.7255 152.425 36.9053 150.584 37.0111C148.663 37.1221 145.974 35.9826 145.342 33.9658C145.287 33.7944 145.442 33.5726 145.638 33.6432L145.633 33.6482Z" fill="white"/>
<path d="M149.04 31.1474C150.37 31.4751 151.599 31.0415 151.739 29.5542C151.804 28.8634 151.579 27.971 151.498 27.2803C151.333 25.7929 151.142 24.3106 150.941 22.8334C150.896 22.5107 151.398 22.4855 151.443 22.8081C151.614 24.0535 151.774 25.3039 151.92 26.5543C152.045 27.6534 152.381 28.9441 152.246 30.0483C152.06 31.6213 150.204 31.9591 148.935 31.6415C148.624 31.5659 148.729 31.0718 149.04 31.1474Z" fill="#CF9980"/>
<path d="M134.439 21.8905C135.673 20.7006 137.805 21.8653 138.222 23.2871C138.312 23.5946 138.111 23.7913 137.865 23.8316C138.086 24.3459 138.217 24.956 138.252 25.566C138.447 26.287 138.523 26.9979 138.407 27.5071C138.407 27.7643 138.392 28.0214 138.372 28.2785C138.482 28.571 138.523 28.8684 138.407 29.1457C137.66 30.9306 135.327 28.45 134.895 27.6634C134.123 26.2467 133.049 23.2367 134.444 21.8955L134.439 21.8905Z" fill="#F1BBA2"/>
<path d="M133.943 18.3614C133.913 18.311 133.888 18.2606 133.873 18.2052C133.15 18.19 132.363 17.5245 132.528 16.5111C132.764 15.0691 133.231 13.7532 133.858 12.5431C133.426 12.17 133.201 11.5297 133.557 10.8591C134.976 8.20711 137.655 6.44246 140.585 5.37862C140.585 4.70301 140.986 3.98202 141.784 3.89631C144.082 3.64926 146.384 3.52321 148.687 3.54338C148.757 3.11482 149.028 2.75181 149.57 2.63584C151.456 2.24762 153.157 2.58542 154.863 3.08457C155.128 2.60559 155.64 2.27283 156.252 2.41904C157.341 2.67618 158.429 3.22574 159.463 3.88623C159.909 3.40221 160.667 3.19045 161.299 3.73497C163.06 5.25258 164.936 6.93656 165.242 9.45246C165.307 9.97681 165.051 10.365 164.68 10.5768C165.483 12.4171 166.055 14.3683 166.381 16.4254C166.571 17.6153 165.453 18.3262 164.665 18.069C164.811 18.8455 164.911 19.637 164.976 20.4337C165.026 21.1042 164.108 21.1395 163.993 20.5194C163.993 20.5093 163.983 20.5042 163.978 20.4942C162.553 16.2439 158.881 14.454 155.249 12.9666C152.68 11.9129 150.884 10.0071 149.736 7.45083C149.445 8.97348 148.983 10.4709 147.985 11.686C146.56 13.4255 144.448 13.8187 142.557 14.8271C140.179 16.0926 139.206 18.2001 137.45 20.0908C136.913 20.6706 135.057 21.6286 134.866 21.3311C134.49 21.2908 134.099 21.1647 133.687 20.9177C132.995 20.5042 133.406 19.5261 134.048 19.506C133.993 19.4001 133.953 19.274 133.943 19.1228C133.928 18.8707 133.923 18.6186 133.923 18.3665L133.943 18.3614Z" fill="#363537"/>
<path d="M136.11 23.5552C136.125 24.5586 136.356 25.5115 136.803 26.4089C136.948 26.6963 136.512 26.9535 136.371 26.661C135.885 25.6829 135.629 24.6443 135.609 23.5552C135.604 23.2326 136.105 23.2326 136.11 23.5552Z" fill="#CF9980"/>
<path d="M163.271 26.0761C163.652 25.2189 163.863 24.3215 163.908 23.3887C163.923 23.0661 164.425 23.0661 164.41 23.3887C164.36 24.4173 164.124 25.3954 163.702 26.3332C163.572 26.6307 163.136 26.3735 163.271 26.0811V26.0761Z" fill="#F57256"/>
<path d="M158.398 10.6724C160.465 13.0874 162.531 15.6084 163.886 18.4469C164.006 17.1512 165.968 16.6823 166.314 18.1495C167.894 24.8249 168.757 31.6163 168.898 38.4733C168.953 38.8817 168.968 39.3102 168.923 39.7589C168.777 41.3471 166.424 41.4076 166.414 39.7589C166.414 39.4514 166.399 39.1489 166.394 38.8413C166.138 36.8599 164.548 35.2565 163.76 33.4364C162.832 31.2936 162.878 28.9895 162.918 26.7005C163.013 20.7561 160.359 16.8184 156.622 12.4471C155.573 11.2219 157.344 9.43206 158.398 10.6623V10.6724Z" fill="#363537"/>
<path d="M122.198 60.0125C122.263 58.1874 122.9 56.5689 123.883 55.1572C127.059 53.1606 130.505 51.8901 134.082 51.1489C134.358 51.4716 134.659 51.8245 135.015 52.1926C137.87 55.1522 141.341 57.5723 145.279 58.8075C153.301 61.3133 161.699 58.1773 165.697 50.7002C167.237 51.1288 168.757 51.6229 170.247 52.1926C172.194 52.9388 175.224 53.7354 175.871 56.0446C176.017 56.5639 176.011 57.0883 175.886 57.5773C176.172 58.1622 176.087 58.8479 175.761 59.4126C176.197 59.9167 176.508 60.5117 176.629 61.2428C176.864 62.7099 175.756 64.167 174.16 63.7234C173.458 63.5267 172.751 63.3402 172.048 63.1486C169.57 65.8813 166.781 68.3216 163.731 70.3938C163.304 71.624 162.05 72.5315 160.731 72.3147C159.055 73.3584 156.983 74.5583 154.987 75.0928C154.63 76.6608 152.564 77.8003 150.943 77.0692C150.146 78.0927 148.796 78.607 147.547 77.6541C147.356 77.5129 147.181 77.3616 146.99 77.2154C146.975 77.2003 146.965 77.1902 146.95 77.1751C144.206 75.0424 141.642 72.7534 139.254 70.2929C136.761 68.377 134.338 66.3703 132.005 64.2477C130.631 62.9973 131.218 60.9755 132.447 59.9823C132.502 59.8865 132.567 59.7907 132.642 59.6999C129.457 59.8714 126.271 60.0478 123.096 60.189C122.755 60.2041 122.459 60.1285 122.198 60.0025V60.0125ZM161.092 65.4931C161.308 65.3418 161.523 65.1855 161.739 65.0292C161.563 65.0191 161.383 65.004 161.207 64.9889C161.007 65.009 160.801 65.0242 160.6 65.0393C160.766 65.1855 160.931 65.3368 161.097 65.4931H161.092Z" fill="#C6F895"/>
<path d="M67.3953 76.6305C66.9588 75.7583 66.7431 74.6188 66.5023 73.9483C66.111 72.8542 64.8569 70.8425 65.3335 69.6425C65.8452 68.3619 68.4538 67.8173 69.5675 67.3182C70.9371 66.7081 73.2598 65.0292 74.7999 65.1603C75.9086 65.251 76.2196 66.0325 76.6711 66.9753C77.4989 68.7097 78.1761 70.5147 78.7982 72.3349C81.3467 71.5634 83.6443 72.9348 85.5607 74.7953C87.156 76.3482 88.5807 78.0826 90.763 78.8288C93.3716 79.7262 95.9502 78.7834 98.3281 77.6994C99.7478 77.0541 101.238 76.8272 102.738 76.6961C105.647 74.8104 108.296 72.6172 110.468 69.708C112.641 66.8039 119.604 58.2831 120.717 57.0983C123.166 54.5017 126.266 52.5707 130.038 51.4363C135.702 59.4579 142.47 66.7585 150.205 72.7735C150.752 73.2021 151.61 73.5348 152.257 73.0407C156.577 69.7383 170.924 53.2715 171.802 51.7791C184.795 56.4882 190.715 66.698 196.635 78.7683C198.646 81.8791 200.573 85.1866 203.001 87.9647C205.374 90.6722 208.544 92.462 211.003 95.0838C212.588 96.7779 213.897 98.0938 216.405 98.1694C218.021 98.2198 219.616 97.8619 221.232 98.0888C222.476 98.2652 223.579 98.6887 224.442 99.4047C225.19 99.0518 225.932 98.6988 226.68 98.3459C227.502 97.9577 228.36 97.4232 229.268 97.2871C229.464 97.2568 229.639 97.2871 229.795 97.3426C230.282 97.2064 230.859 97.3829 231.049 98.003C231.536 99.5912 232.017 101.184 232.504 102.773C232.88 104.013 233.853 105.924 233.768 107.22C233.638 109.151 229.976 109.947 228.31 110.472C224.959 114.223 221.121 118.181 215.819 118.574C212.984 118.786 210.38 117.465 207.586 117.334C204.401 117.177 201.355 118.06 198.135 117.702C195.772 117.439 193.078 117.258 190.951 116.103C188.713 114.893 187.068 112.619 185.538 110.648C183.923 108.561 182.483 106.362 181.198 104.079C180.29 106.882 179.588 109.811 179.618 111.52C179.698 116.159 179.884 116.976 178.665 121.498C178.344 122.683 177.973 123.853 177.566 125.002C169.475 126.086 154.349 124.74 146.624 124.69C142.39 124.659 132.05 125.28 127.851 125.759C127.59 125.789 127.329 125.814 127.064 125.844C126.487 125.063 125.905 124.291 125.358 123.485C123.988 121.468 124.039 118.745 123.301 116.431C122.263 113.159 120.602 102.712 119.413 98.0283C117.738 98.9963 114.532 100.64 112.846 101.593C109.997 103.201 106.997 104.729 103.671 104.895C100.375 105.057 97.0237 103.836 93.9987 102.657C92.3031 101.996 90.6626 101.084 88.8566 100.806C86.7998 100.494 84.7379 101.048 82.6761 100.771C77.6945 100.1 71.6544 95.1947 70.2799 90.2789C69.7431 88.363 69.4471 86.8202 68.2431 85.1412C67.3251 83.8656 66.3167 82.6001 65.9455 81.0321C65.5341 79.2775 66.091 77.6087 67.3903 76.6104L67.3953 76.6305Z" fill="#9FD569"/>
<path d="M123.345 87.5817C124.875 84.0423 126.285 80.4021 126.942 76.5803C127.619 72.6376 127.364 68.5738 126.26 64.7319C125.347 61.5505 123.857 58.5707 121.885 55.9439C122.011 55.833 122.136 55.7271 122.262 55.6162C125.994 60.5976 128.021 66.8243 127.8 73.0914C127.519 81.0827 123.431 88.1766 120.476 95.3966C120.105 96.3041 119.748 97.2218 119.422 98.1444C119.412 98.1091 119.402 98.0738 119.397 98.0385C119.227 98.1394 119.031 98.2453 118.83 98.3612C120.105 94.6907 121.805 91.1312 123.34 87.5817H123.345ZM184.147 59.559C184.323 59.7304 184.493 59.9018 184.664 60.0732C184.318 70.7469 180.36 81.6373 180.596 92.2757C180.701 96.8739 181.463 101.422 182.281 105.939C182.03 105.536 181.795 105.122 181.554 104.714C180.997 101.568 180.495 98.4116 180.244 95.2252C179.928 91.1766 180.149 87.1531 180.711 83.1398C181.81 75.2745 183.997 67.5402 184.147 59.559Z" fill="#8FC15C"/>
<path d="M94.2287 80.7701C96.3959 82.1566 98.6434 83.3919 100.976 84.4809C101.267 84.617 101.016 85.0506 100.725 84.9145C98.3975 83.8255 96.1451 82.5902 93.9779 81.2037C93.707 81.0323 93.9578 80.5936 94.2287 80.7701Z" fill="#8FC15C"/>
<path d="M67.8036 75.6926C71.1397 74.5784 74.4758 73.4541 77.8169 72.3549C78.1229 72.2541 78.2583 72.7432 77.9523 72.839C74.6062 73.933 71.2751 75.0624 67.939 76.1767C67.633 76.2775 67.5026 75.7935 67.8036 75.6926Z" fill="#8FC15C"/>
</g>
<defs>
<clipPath id="clip0_142_20210">
<rect width="206" height="96" rx="10" fill="white"/>
</clipPath>
</defs>
</svg>
