<svg width="167" height="111" viewBox="0 0 167 111" fill="none" xmlns="http://www.w3.org/2000/svg">
<g clip-path="url(#clip0_142_990)">
<g clip-path="url(#clip1_142_990)">
<path d="M72.0812 59.4122C72.3621 59.2458 72.6531 59.0895 72.939 58.9282C73.0795 58.7164 73.2601 58.5198 73.4808 58.3736C76.7718 56.2258 80.3687 54.8846 84.1061 54.1132C90.6077 52.1166 97.4605 51.2898 104.278 51.7334C109.726 52.0914 115.144 53.2057 120.251 55.1619C122.198 55.9081 125.228 56.7047 125.875 59.0139C126.02 59.5332 126.015 60.0576 125.89 60.5466C126.176 61.1315 126.091 61.8172 125.765 62.3819C126.201 62.8861 126.512 63.481 126.632 64.2121C126.868 65.6793 125.76 67.1364 124.164 66.6927C123.462 66.4961 122.755 66.3095 122.052 66.1179C119.574 68.8506 116.785 71.2909 113.735 73.3631C113.308 74.5933 112.054 75.5008 110.735 75.284C109.059 76.3277 106.987 77.5277 104.991 78.0621C104.634 79.6301 102.567 80.7696 100.947 80.0385C100.149 81.062 98.8 81.5763 97.5508 80.6234C97.3602 80.4822 97.1846 80.331 96.994 80.1847C96.9789 80.1696 96.9689 80.1595 96.9538 80.1444C94.2097 78.0117 91.6462 75.7227 89.2583 73.2623C86.765 71.3463 84.3419 69.3397 82.0092 67.217C80.6346 65.9667 81.2215 63.9449 82.4506 62.9516C82.5058 62.8558 82.571 62.76 82.6463 62.6693C79.4607 62.8407 76.2751 63.0172 73.0996 63.1583C71.0678 63.2491 70.4207 60.3853 72.0862 59.4021L72.0812 59.4122ZM110.599 68.0086C110.765 68.1548 110.93 68.3061 111.096 68.4624C111.312 68.3111 111.527 68.1548 111.743 67.9985C111.567 67.9885 111.387 67.9733 111.211 67.9582C111.011 67.9784 110.805 67.9935 110.604 68.0086H110.599Z" fill="#F1BBA2"/>
<path d="M76.5077 44.0497C76.919 41.2766 76.5979 38.4734 77.5862 35.8012C78.128 34.3441 78.8203 33.0231 78.9458 31.4349C79.0611 29.9576 78.8354 28.4703 78.8053 26.993C78.7551 24.5124 79.006 22.0116 79.5879 19.5966C81.8103 10.38 89.4456 2.62058 99.2683 3.04409C99.4439 3.04409 99.5392 3.03401 99.6646 3.02393C109.562 2.5147 117.363 10.2036 119.596 19.4705C120.178 21.8856 120.429 24.3864 120.378 26.867C120.348 28.3442 120.128 29.8316 120.238 31.3088C120.358 32.897 121.056 34.218 121.597 35.6751C122.591 38.3473 122.265 41.1506 122.676 43.9236C123.032 46.3336 124.512 48.5218 123.845 50.9923C123.79 51.194 123.579 51.3755 123.363 51.3604C118.186 50.9974 113.094 52.4646 108.213 50.357C105.524 49.1974 99.7198 48.7638 99.6897 44.9673C99.6295 44.9673 99.5643 44.9673 99.5041 44.9572C99.6094 48.8747 93.6998 49.3083 90.9807 50.4831C86.0995 52.5856 81.0076 51.1234 75.8304 51.4864C75.6147 51.5016 75.399 51.32 75.3488 51.1184C74.6816 48.6479 76.1615 46.4647 76.5177 44.0497H76.5077Z" fill="#363537"/>
<path d="M17.3131 60.461C17.4586 60.4862 17.584 60.5316 17.6994 60.587C17.5489 59.2862 19.4302 58.3888 19.9971 59.7602C24.206 69.8994 28.8916 81.173 39.0855 86.5628C43.5704 88.9325 59.1923 91.5593 63.9782 69.9095C64.0936 69.3952 68.2324 77.0286 68.6538 77.321C70.5651 78.6622 72.4714 80.0084 74.3828 81.3495C75.6721 82.257 77.8042 83.2604 78.4463 84.8385C79.7356 82.8217 79.4697 87.3544 78.4463 84.8385C63.0351 108.949 42.5871 104.25 36.0404 100.579C29.3331 96.818 24.2412 88.6905 20.9853 81.9293C18.9436 77.6891 17.3483 73.2119 16.2596 68.6339C15.9185 67.207 13.5607 59.8711 17.3081 60.461H17.3131Z" fill="#F1BBA2"/>
<path d="M92.5186 53.4884L90.3815 27.1849C90.3815 26.1816 92.7543 29.4437 93.5921 30.0537C97.8563 33.1444 101.268 34.0973 106.365 34.6317C106.52 34.6469 106.656 34.6922 106.781 34.7427C107.493 34.7427 107.438 35.0855 107.433 36.0082C107.413 41.9072 108.737 53.322 107.418 59.1201C107.077 60.6277 106.731 58.3588 105.166 59.0395C104.107 59.4983 102.151 59.2966 100.987 59.3974C99.5018 59.5235 99.6723 59.3621 98.1874 59.4882C96.567 59.6243 94.4951 60.8192 93.1206 59.5033C91.7811 58.2227 92.5085 55.0362 92.5135 53.4884H92.5186Z" fill="#F1BBA2"/>
<path d="M84.3469 17.3539C84.3218 14.1977 85.7867 12.8767 88.3101 11.5053C101.905 4.11899 114.111 10.8751 114.196 12.8162C114.537 20.7068 115.209 30.7703 111.562 37.8996C108.833 43.2389 103.49 47.9631 97.3902 45.3363C91.0241 42.5935 84.4723 34.8744 84.3469 17.3539Z" fill="#F1BBA2"/>
<path d="M1.26632 52.0062C0.709467 51.3962 0.0472603 50.6197 0.00712776 50.0197C-0.0982227 48.4618 1.70778 49.6113 2.24456 50.0953C3.37331 51.1037 4.48701 52.1171 5.65088 53.0902C6.23783 53.5793 6.80973 54.0936 7.42177 54.5473C7.72277 54.7692 9.41339 55.8078 9.80971 55.3944C8.19935 53.8364 6.59402 52.2785 4.99872 50.7054C4.33652 50.05 2.06397 48.0635 2.6459 46.8938C2.71614 46.7475 2.84155 46.682 3.00208 46.687C4.85323 46.7677 6.73448 48.8903 7.92343 50.1407C8.71607 50.9777 9.9251 52.8684 11.0388 53.2566C11.3498 53.3625 11.6157 53.3322 11.8515 53.2112C12.0923 52.8936 12.318 52.5608 12.5187 52.2079C12.6291 51.9407 12.7545 51.6785 12.895 51.4314C12.9251 51.3659 12.9552 51.3054 12.9802 51.2348C13.0103 51.1642 13.0555 51.1188 13.1057 51.0836C13.5622 50.3827 14.1742 49.7928 15.027 49.4097C16.4769 48.7592 19.1558 48.3962 20.3698 49.6416C20.5504 49.8281 20.43 50.055 20.2394 50.1357C20.124 50.3525 20.0287 50.3928 19.7126 50.5088C18.8548 50.8264 17.9518 50.8768 17.119 51.3054C16.0153 51.8751 15.1224 52.697 14.5605 53.7205C14.2896 54.8851 14.4903 56.0851 15.2879 57.1036C16.0254 58.0413 17.0588 58.485 18.1524 58.7674C18.1625 58.7321 18.1725 58.6917 18.1976 58.6564C19.3113 56.9624 19.7728 55.0364 19.9885 53.0348C20.0839 52.1726 19.7979 50.5945 20.6457 50.0601C20.8012 49.9643 20.9618 50.0046 21.0721 50.1004C21.1574 50.1206 21.2377 50.176 21.2878 50.2769C22.0805 51.8146 22.4216 53.7406 22.2561 55.47C22.1256 56.8414 21.4835 58.0413 20.8012 59.2111C20.6909 60.1438 20.9868 60.9858 21.2176 61.974C21.3731 62.6395 21.5587 63.658 21.2477 64.3588C21.2577 64.3991 21.2628 64.4445 21.2628 64.4899C21.2628 64.5252 21.2628 64.5605 21.2628 64.5958C21.2628 64.7269 21.1123 64.8832 20.9768 64.8832C20.9517 64.8832 20.9266 64.8832 20.8965 64.8832C20.8715 64.8832 20.8514 64.8731 20.8313 64.8731C20.7561 64.9235 20.6808 64.9689 20.5905 65.0042C20.5203 65.0344 20.4551 65.0294 20.3949 65.0143C19.9283 65.3369 19.3163 65.8915 19.0855 66.0226C18.8146 66.1789 18.5186 66.4361 18.1926 66.4764C17.6357 66.552 17.0738 66.1588 16.6173 65.8815C14.6809 64.7117 12.915 63.0983 11.3147 61.5102C10.9736 61.1723 10.5823 60.8194 10.211 60.4463C9.07225 59.7102 7.97862 58.9035 6.93515 58.1271C5.5957 57.1288 4.3014 56.0649 3.06228 54.9406C2.31479 54.2599 1.13587 53.4431 1.11581 52.3339C1.11581 52.1776 1.16599 52.0768 1.28639 51.9961L1.26632 52.0062Z" fill="#F1BBA2"/>
<path d="M105.867 26.6914C105.852 27.6292 106.289 28.3956 106.841 28.4056C107.392 28.4157 107.849 27.6595 107.859 26.7217C107.874 25.7839 107.438 25.0175 106.886 25.0074C106.334 24.9973 105.877 25.7536 105.867 26.6914Z" fill="#363537"/>
<path d="M92.4379 26.9932C92.4479 27.931 92.9044 28.6873 93.4513 28.6772C94.0031 28.6722 94.4396 27.9058 94.4295 26.968C94.4195 26.0302 93.963 25.274 93.4161 25.284C92.8693 25.2941 92.4279 26.0554 92.4379 26.9932Z" fill="#363537"/>
<path d="M89.8906 22.0038C89.9166 21.9787 90.4211 21.8403 90.4419 21.8403C92.0177 21.4882 94.1657 21.2147 95.6791 21.6737C96.4644 21.9126 97.2342 22.4974 96.1264 22.7803C95.1798 23.0224 93.8224 22.9878 92.8238 23.0067C92.0125 23.0193 91.0244 23.1073 90.2546 22.8872C89.3237 22.6232 89.2873 22.2962 89.8906 22.0007V22.0038Z" fill="#363537"/>
<path d="M110.4 22.6605C109.673 22.9251 108.669 22.9064 107.853 22.9469C106.849 22.9967 105.5 23.1182 104.511 22.9438C103.35 22.7383 104.015 22.1125 104.752 21.823C106.18 21.2688 108.376 21.3965 110.013 21.6393C110.034 21.6393 110.562 21.7389 110.593 21.7638C111.252 22.0129 111.278 22.3367 110.395 22.6605H110.4Z" fill="#363537"/>
<path d="M95.6367 36.6482C100.458 38.3776 104.757 36.3154 105.013 36.3961C105.118 36.4314 105.229 36.5121 105.209 36.628C104.797 38.7255 102.429 39.9053 100.588 40.0111C98.6668 40.1221 95.9779 38.9826 95.3458 36.9658C95.2906 36.7944 95.4461 36.5726 95.6418 36.6432L95.6367 36.6482Z" fill="white"/>
<path d="M99.044 34.1474C100.373 34.4751 101.602 34.0415 101.743 32.5542C101.808 31.8634 101.582 30.971 101.502 30.2803C101.337 28.7929 101.146 27.3106 100.945 25.8334C100.9 25.5107 101.402 25.4855 101.447 25.8081C101.618 27.0535 101.778 28.3039 101.924 29.5543C102.049 30.6534 102.385 31.9441 102.25 33.0483C102.064 34.6213 100.208 34.9591 98.9386 34.6415C98.6276 34.5659 98.733 34.0718 99.044 34.1474Z" fill="#CF9980"/>
<path d="M84.4429 24.8905C85.677 23.7006 87.8091 24.8653 88.2255 26.2871C88.3158 26.5946 88.1151 26.7913 87.8693 26.8316C88.09 27.3459 88.2204 27.956 88.2555 28.566C88.4512 29.287 88.5264 29.9979 88.4111 30.5071C88.4111 30.7643 88.396 31.0214 88.376 31.2785C88.4863 31.571 88.5264 31.8684 88.4111 32.1457C87.6636 33.9306 85.3308 31.45 84.8994 30.6634C84.1268 29.2467 83.0533 26.2367 84.4479 24.8955L84.4429 24.8905Z" fill="#F1BBA2"/>
<path d="M83.947 21.3614C83.9169 21.311 83.8918 21.2606 83.8767 21.2052C83.1543 21.19 82.3667 20.5245 82.5323 19.5111C82.768 18.0691 83.2346 16.7532 83.8617 15.5431C83.4302 15.17 83.2045 14.5297 83.5607 13.8591C84.9804 11.2071 87.6593 9.44246 90.589 8.37862C90.589 7.70301 90.9904 6.98202 91.788 6.89631C94.0856 6.64926 96.3883 6.52321 98.691 6.54338C98.7612 6.11482 99.0321 5.75181 99.5739 5.63584C101.46 5.24762 103.161 5.58542 104.866 6.08457C105.132 5.60559 105.644 5.27283 106.256 5.41904C107.345 5.67618 108.433 6.22574 109.467 6.88623C109.913 6.40221 110.671 6.19045 111.303 6.73497C113.064 8.25258 114.94 9.93656 115.246 12.4525C115.311 12.9768 115.055 13.365 114.684 13.5768C115.487 15.4171 116.059 17.3683 116.385 19.4254C116.575 20.6153 115.457 21.3262 114.669 21.069C114.815 21.8455 114.915 22.637 114.98 23.4337C115.03 24.1042 114.112 24.1395 113.997 23.5194C113.997 23.5093 113.987 23.5042 113.982 23.4942C112.557 19.2439 108.885 17.454 105.253 15.9666C102.684 14.9129 100.888 13.0071 99.7394 10.4508C99.4485 11.9735 98.9869 13.4709 97.9886 14.686C96.5639 16.4255 94.4519 16.8187 92.5606 17.8271C90.1827 19.0926 89.2094 21.2001 87.4536 23.0908C86.9168 23.6706 85.0607 24.6286 84.87 24.3311C84.4938 24.2908 84.1025 24.1647 83.6911 23.9177C82.9988 23.5042 83.4102 22.5261 84.0523 22.506C83.9971 22.4001 83.957 22.274 83.947 22.1228C83.9319 21.8707 83.9269 21.6186 83.9269 21.3665L83.947 21.3614Z" fill="#363537"/>
<path d="M86.1143 26.5552C86.1294 27.5586 86.3602 28.5115 86.8066 29.4089C86.9521 29.6963 86.5157 29.9535 86.3752 29.661C85.8886 28.6829 85.6327 27.6443 85.6127 26.5552C85.6077 26.2326 86.1093 26.2326 86.1143 26.5552Z" fill="#CF9980"/>
<path d="M113.275 29.0761C113.656 28.2189 113.867 27.3215 113.912 26.3887C113.927 26.0661 114.429 26.0661 114.414 26.3887C114.364 27.4173 114.128 28.3954 113.706 29.3332C113.576 29.6307 113.139 29.3735 113.275 29.0811V29.0761Z" fill="#F57256"/>
<path d="M108.402 13.6724C110.468 16.0874 112.535 18.6084 113.89 21.4469C114.01 20.1512 115.972 19.6823 116.318 21.1495C117.898 27.8249 118.761 34.6163 118.901 41.4733C118.957 41.8817 118.972 42.3102 118.927 42.7589C118.781 44.3471 116.428 44.4076 116.418 42.7589C116.418 42.4514 116.403 42.1489 116.398 41.8413C116.142 39.8599 114.552 38.2565 113.764 36.4364C112.836 34.2936 112.881 31.9895 112.922 29.7005C113.017 23.7561 110.363 19.8184 106.626 15.4471C105.577 14.2219 107.348 12.4321 108.402 13.6623V13.6724Z" fill="#363537"/>
<path d="M72.2016 63.0125C72.2668 61.1874 72.9039 59.5689 73.8872 58.1572C77.0627 56.1606 80.5092 54.8901 84.0861 54.1489C84.362 54.4716 84.663 54.8245 85.0192 55.1926C87.8736 58.1522 91.3452 60.5723 95.2833 61.8075C103.305 64.3133 111.703 61.1773 115.701 53.7002C117.241 54.1288 118.761 54.6229 120.251 55.1926C122.198 55.9388 125.228 56.7354 125.875 59.0446C126.02 59.5639 126.015 60.0883 125.89 60.5773C126.176 61.1622 126.091 61.8479 125.765 62.4126C126.201 62.9167 126.512 63.5117 126.632 64.2428C126.868 65.7099 125.76 67.167 124.164 66.7234C123.462 66.5267 122.755 66.3402 122.052 66.1486C119.574 68.8813 116.785 71.3216 113.735 73.3938C113.308 74.624 112.054 75.5315 110.735 75.3147C109.059 76.3584 106.987 77.5583 104.991 78.0928C104.634 79.6608 102.567 80.8003 100.947 80.0692C100.149 81.0927 98.8 81.607 97.5508 80.6541C97.3602 80.5129 97.1846 80.3616 96.994 80.2154C96.9789 80.2003 96.9689 80.1902 96.9538 80.1751C94.2097 78.0424 91.6462 75.7534 89.2582 73.2929C86.765 71.377 84.3419 69.3703 82.0092 67.2477C80.6346 65.9973 81.2215 63.9755 82.4506 62.9823C82.5058 62.8865 82.571 62.7907 82.6463 62.6999C79.4607 62.8714 76.2751 63.0478 73.0995 63.189C72.7584 63.2041 72.4624 63.1285 72.2016 63.0025V63.0125ZM111.096 68.4931C111.312 68.3418 111.527 68.1855 111.743 68.0292C111.567 68.0191 111.387 68.004 111.211 67.9889C111.011 68.009 110.805 68.0242 110.604 68.0393C110.77 68.1855 110.935 68.3368 111.101 68.4931H111.096Z" fill="#C6F895"/>
<path d="M17.3992 79.6305C16.9628 78.7583 16.747 77.6188 16.5062 76.9483C16.1149 75.8542 14.8608 73.8425 15.3374 72.6425C15.8491 71.3619 18.4577 70.8173 19.5714 70.3182C20.941 69.7081 23.2637 68.0292 24.8038 68.1603C25.9125 68.251 26.2235 69.0325 26.675 69.9753C27.5028 71.7097 28.18 73.5147 28.8021 75.3349C31.3506 74.5634 33.6482 75.9348 35.5646 77.7953C37.1599 79.3482 38.5846 81.0826 40.7669 81.8288C43.3755 82.7262 45.9541 81.7834 48.332 80.6994C49.7517 80.0541 51.2417 79.8272 52.7417 79.6961C55.6513 77.8104 58.3001 75.6172 60.4724 72.708C62.6446 69.8039 69.6077 61.2831 70.7214 60.0983C73.1695 57.5017 76.2698 55.5707 80.0424 54.4363C85.7062 62.4579 92.4737 69.7585 100.209 75.7735C100.756 76.2021 101.614 76.5348 102.261 76.0407C106.581 72.7383 120.928 56.2715 121.806 54.7791C134.799 59.4882 140.719 69.698 146.639 81.7683C148.65 84.8791 150.577 88.1866 153.005 90.9647C155.378 93.6722 158.548 95.462 161.006 98.0838C162.592 99.7779 163.901 101.094 166.409 101.169C168.025 101.22 169.62 100.862 171.235 101.089C172.48 101.265 173.583 101.689 174.446 102.405C175.194 102.052 175.936 101.699 176.684 101.346C177.506 100.958 178.364 100.423 179.272 100.287C179.468 100.257 179.643 100.287 179.799 100.343C180.285 100.206 180.862 100.383 181.053 101.003C181.54 102.591 182.021 104.184 182.508 105.773C182.884 107.013 183.857 108.924 183.772 110.22C183.642 112.151 179.979 112.947 178.314 113.472C174.963 117.223 171.125 121.181 165.822 121.574C162.988 121.786 160.384 120.465 157.59 120.334C154.404 120.177 151.359 121.06 148.139 120.702C145.776 120.439 143.082 120.258 140.955 119.103C138.717 117.893 137.072 115.619 135.542 113.648C133.926 111.561 132.487 109.362 131.202 107.079C130.294 109.882 129.592 112.811 129.622 114.52C129.702 119.159 129.888 119.976 128.669 124.498C128.348 125.683 127.977 126.853 127.57 128.002C119.478 129.086 104.353 127.74 96.6275 127.69C92.3934 127.659 82.0541 128.28 77.8551 128.759C77.5942 128.789 77.3334 128.814 77.0675 128.844C76.4906 128.063 75.9086 127.291 75.3618 126.485C73.9923 124.468 74.0424 121.745 73.305 119.431C72.2665 116.159 70.606 105.712 69.4171 101.028C67.7415 101.996 64.5359 103.64 62.8503 104.593C60.0008 106.201 57.0008 107.729 53.6747 107.895C50.3788 108.057 47.0276 106.836 44.0026 105.657C42.307 104.996 40.6665 104.084 38.8605 103.806C36.8037 103.494 34.7418 104.048 32.68 103.771C27.6984 103.1 21.6584 98.1947 20.2838 93.2789C19.747 91.363 19.451 89.8202 18.247 88.1412C17.329 86.8656 16.3206 85.6001 15.9494 84.0321C15.538 82.2775 16.0949 80.6087 17.3942 79.6104L17.3992 79.6305Z" fill="#9FD569"/>
<path d="M73.3492 90.5817C74.8793 87.0423 76.289 83.4021 76.9461 79.5803C77.6234 75.6376 77.3676 71.5738 76.2639 67.7319C75.3509 64.5505 73.8609 61.5707 71.8894 58.9439C72.0148 58.833 72.1402 58.7271 72.2656 58.6162C75.998 63.5976 78.0247 69.8243 77.804 76.0914C77.5231 84.0827 73.4345 91.1766 70.4797 98.3966C70.1084 99.3041 69.7522 100.222 69.4262 101.144C69.4161 101.109 69.4061 101.074 69.4011 101.039C69.2305 101.139 69.0349 101.245 68.8342 101.361C70.1084 97.6907 71.8091 94.1312 73.3442 90.5817H73.3492ZM134.151 62.559C134.327 62.7304 134.497 62.9018 134.668 63.0732C134.322 73.7469 130.364 84.6373 130.599 95.2757C130.705 99.8739 131.467 104.422 132.285 108.939C132.034 108.536 131.798 108.122 131.558 107.714C131.001 104.568 130.499 101.412 130.248 98.2252C129.932 94.1766 130.153 90.1531 130.715 86.1398C131.813 78.2745 134.001 70.5402 134.151 62.559Z" fill="#8FC15C"/>
<path d="M44.2326 83.7701C46.3998 85.1566 48.6473 86.3919 50.98 87.4809C51.271 87.617 51.0201 88.0506 50.7292 87.9145C48.4014 86.8255 46.149 85.5902 43.9818 84.2037C43.7109 84.0323 43.9617 83.5936 44.2326 83.7701Z" fill="#8FC15C"/>
<path d="M17.8075 78.6926C21.1436 77.5784 24.4797 76.4541 27.8208 75.3549C28.1268 75.2541 28.2622 75.7432 27.9562 75.839C24.6101 76.933 21.279 78.0624 17.9429 79.1767C17.6369 79.2775 17.5065 78.7935 17.8075 78.6926Z" fill="#8FC15C"/>
</g>
</g>
<defs>
<clipPath id="clip0_142_990">
<rect width="167" height="111" rx="20" fill="white"/>
</clipPath>
<clipPath id="clip1_142_990">
<rect width="218" height="117" fill="white" transform="translate(-9)"/>
</clipPath>
</defs>
</svg>
