<svg width="206" height="140" viewBox="0 0 206 140" fill="none" xmlns="http://www.w3.org/2000/svg">
<g clip-path="url(#clip0_142_20313)">
<path d="M151.744 160.484C183.083 160.484 208.489 135.079 208.489 103.739C208.489 72.4004 183.083 46.9951 151.744 46.9951C120.405 46.9951 95 72.4004 95 103.739C95 135.079 120.405 160.484 151.744 160.484Z" fill="#B7E888"/>
<path d="M208.486 103.246C208.486 134.584 183.08 159.99 151.741 159.99C134.737 159.99 119.476 152.508 109.078 140.655C119.066 149.422 132.157 154.736 146.487 154.736C177.825 154.736 203.232 129.33 203.232 97.9918C203.232 83.6612 197.917 70.5706 189.151 60.5825C201.004 70.9804 208.486 86.2409 208.486 103.246Z" fill="#95C366"/>
<path d="M151.743 146.067C175.392 146.067 194.564 126.895 194.564 103.246C194.564 79.5964 175.392 60.4248 151.743 60.4248C128.093 60.4248 108.922 79.5964 108.922 103.246C108.922 126.895 128.093 146.067 151.743 146.067Z" fill="#F5F5F5"/>
<path d="M194.568 103.246C194.568 126.895 175.395 146.067 151.747 146.067C138.585 146.067 126.811 140.127 118.953 130.785C126.398 137.043 136.005 140.813 146.493 140.813C170.141 140.813 189.313 121.641 189.313 97.9918C189.313 87.5046 185.544 77.8975 179.286 70.4524C188.628 78.3099 194.568 90.0844 194.568 103.246Z" fill="#E6E6E6"/>
<path d="M151.745 132.637C167.705 132.637 180.643 119.699 180.643 103.739C180.643 87.7797 167.705 74.8418 151.745 74.8418C135.786 74.8418 122.848 87.7797 122.848 103.739C122.848 119.699 135.786 132.637 151.745 132.637Z" fill="#B7E888"/>
<path d="M180.641 103.246C180.641 119.205 167.703 132.143 151.744 132.143C142.426 132.143 134.135 127.733 128.852 120.884C133.73 124.651 139.848 126.889 146.49 126.889C162.449 126.889 175.387 113.951 175.387 97.9918C175.387 91.3506 173.149 85.2322 169.382 80.3538C176.23 85.6368 180.641 93.9277 180.641 103.246Z" fill="#95C366"/>
<path d="M151.743 117.957C159.868 117.957 166.454 111.371 166.454 103.246C166.454 95.121 159.868 88.5344 151.743 88.5344C143.618 88.5344 137.031 95.121 137.031 103.246C137.031 111.371 143.618 117.957 151.743 117.957Z" fill="#F5F5F5"/>
<path d="M205.436 121.659C204.326 124.896 202.923 128.026 201.246 131.009L188.578 125.1C190.315 122.184 191.712 119.042 192.718 115.73L205.436 121.659Z" fill="#95C366"/>
<path d="M192.717 115.73C191.721 119.009 190.331 122.156 188.577 125.1L175.859 119.171C177.764 116.302 179.134 113.112 179.905 109.756L192.717 115.73Z" fill="#E6E6E6"/>
<path d="M179.905 109.756C179.134 113.112 177.763 116.302 175.859 119.171L162.719 113.045C164.994 110.496 166.397 107.152 166.454 103.482L179.905 109.756Z" fill="#95C366"/>
<path d="M166.455 103.482C166.397 107.152 164.994 110.497 162.719 113.045L150.411 107.305C148.005 106.186 146.881 103.432 147.74 100.979C147.798 100.819 147.861 100.658 147.934 100.498C148.533 99.216 149.592 98.2992 150.827 97.85C152.056 97.4034 153.461 97.4218 154.741 98.0207L166.455 103.482Z" fill="#E6E6E6"/>
<path d="M224.561 53.6895C224.982 53.7597 225.148 54.2759 224.847 54.5785L219.289 60.1621L215.879 63.5878L206.561 72.9458C206.266 73.2423 205.904 73.4639 205.506 73.5923C205.108 73.7208 204.685 73.7523 204.272 73.6843L190.375 71.3954L200.783 61.071L204.233 57.6506L210.577 51.3562L224.561 53.6895Z" fill="#F57F7F"/>
<path d="M219.286 60.1621L215.876 63.5878L200.781 61.0711L204.231 57.6506L219.286 60.1621Z" fill="#FFEFEF"/>
<path d="M203.926 45.2904L197.613 51.4666L194.18 54.8266L183.808 64.9749L181.492 50.8997C181.424 50.4882 181.455 50.0665 181.583 49.6695C181.711 49.2724 181.931 48.9115 182.226 48.6165L191.582 39.2508L195.005 35.8225L200.668 30.1546C200.971 29.8509 201.491 30.0196 201.559 30.4433L203.926 45.2904Z" fill="#F57F7F"/>
<path d="M197.61 51.4666L194.176 54.8266L191.578 39.2508L195.001 35.8225L197.61 51.4666Z" fill="#FFEFEF"/>
<path d="M215.935 44.4419C215.935 45.7502 215.436 47.0637 214.435 48.062L156.196 106.301C154.32 108.18 151.349 108.295 149.337 106.648C149.205 106.54 149.077 106.425 148.953 106.301C148.477 105.826 148.099 105.261 147.841 104.64C147.584 104.018 147.452 103.351 147.453 102.678C147.453 101.37 147.952 100.057 148.953 99.0584L207.192 40.8192C209.192 38.8174 212.436 38.8174 214.435 40.8192C214.559 40.9427 214.674 41.0714 214.782 41.2028C215.552 42.1433 215.935 43.2913 215.935 44.4419Z" fill="#918291"/>
<path d="M215.934 44.4418C215.934 45.7501 215.435 47.0636 214.434 48.0619L156.195 106.301C154.319 108.179 151.348 108.295 149.336 106.648L214.781 41.2026C215.551 42.1431 215.934 43.2911 215.934 44.4418Z" fill="#7A6E79"/>
</g>
<defs>
<clipPath id="clip0_142_20313">
<rect width="206" height="140" rx="10" fill="white"/>
</clipPath>
</defs>
</svg>
