<svg width="206" height="52" viewBox="0 0 206 52" fill="none" xmlns="http://www.w3.org/2000/svg">
<g clip-path="url(#clip0_142_9914)">
<path d="M139.084 28.6755C139.217 28.5968 139.354 28.5229 139.49 28.4466C139.556 28.3465 139.641 28.2535 139.746 28.1844C141.302 27.1687 143.003 26.5346 144.77 26.1698C147.845 25.2257 151.085 24.8347 154.309 25.0445C156.885 25.2137 159.447 25.7406 161.862 26.6657C162.783 27.0185 164.215 27.3952 164.521 28.4872C164.59 28.7327 164.588 28.9807 164.528 29.2119C164.664 29.4885 164.623 29.8127 164.469 30.0798C164.676 30.3182 164.823 30.5995 164.88 30.9452C164.991 31.639 164.467 32.328 163.712 32.1182C163.38 32.0252 163.046 31.937 162.714 31.8464C161.542 33.1386 160.223 34.2926 158.781 35.2724C158.579 35.8542 157.986 36.2833 157.362 36.1808C156.57 36.6743 155.59 37.2417 154.646 37.4945C154.477 38.2359 153.5 38.7747 152.734 38.429C152.357 38.913 151.718 39.1562 151.128 38.7056C151.038 38.6388 150.955 38.5673 150.864 38.4982C150.857 38.491 150.853 38.4863 150.845 38.4791C149.548 37.4706 148.336 36.3882 147.207 35.2248C146.028 34.3188 144.882 33.3699 143.779 32.3662C143.129 31.7749 143.406 30.8189 143.987 30.3492C144.013 30.3039 144.044 30.2586 144.08 30.2157C142.574 30.2967 141.067 30.3802 139.566 30.4469C138.605 30.4898 138.299 29.1357 139.086 28.6707L139.084 28.6755ZM157.298 32.7405C157.376 32.8096 157.455 32.8811 157.533 32.9551C157.635 32.8835 157.737 32.8096 157.839 32.7357C157.756 32.7309 157.67 32.7238 157.587 32.7166C157.492 32.7262 157.395 32.7333 157.3 32.7405H157.298Z" fill="#F1BBA2"/>
<path d="M141.176 21.4111C141.37 20.0998 141.218 18.7742 141.686 17.5106C141.942 16.8216 142.269 16.197 142.329 15.446C142.383 14.7474 142.276 14.0441 142.262 13.3455C142.238 12.1725 142.357 10.99 142.632 9.84799C143.683 5.48978 147.294 1.82058 151.938 2.02085C152.021 2.02085 152.066 2.01608 152.126 2.01131C156.806 1.77052 160.495 5.40633 161.551 9.78839C161.826 10.9304 161.944 12.1129 161.921 13.2859C161.906 13.9845 161.802 14.6878 161.854 15.3864C161.911 16.1374 162.241 16.762 162.497 17.451C162.967 18.7146 162.813 20.0402 163.007 21.3515C163.176 22.4911 163.875 23.5258 163.56 24.694C163.534 24.7894 163.434 24.8752 163.332 24.8681C160.884 24.6964 158.476 25.3902 156.168 24.3936C154.897 23.8453 152.152 23.6403 152.138 21.845C152.109 21.845 152.078 21.845 152.05 21.8402C152.1 23.6927 149.305 23.8977 148.019 24.4533C145.711 25.4474 143.303 24.756 140.855 24.9277C140.753 24.9349 140.651 24.849 140.628 24.7537C140.312 23.5854 141.012 22.5531 141.18 21.4111H141.176Z" fill="#363537"/>
<path d="M113.185 29.1715C113.253 29.1834 113.313 29.2049 113.367 29.2311C113.296 28.616 114.186 28.1916 114.454 28.8401C116.444 33.6346 118.66 38.9656 123.48 41.5142C125.601 42.6348 132.988 43.8769 135.251 33.6394C135.306 33.3962 137.263 37.0058 137.462 37.1441C138.366 37.7783 139.267 38.4148 140.171 39.049C140.781 39.4782 141.789 39.9526 142.092 40.6988C142.702 39.7452 142.576 41.8885 142.092 40.6988C134.805 52.0998 125.136 49.8778 122.04 48.1421C118.868 46.3636 116.461 42.5203 114.921 39.3232C113.955 37.3181 113.201 35.201 112.686 33.0362C112.525 32.3615 111.41 28.8926 113.182 29.1715H113.185Z" fill="#F1BBA2"/>
<path d="M148.748 25.8742L147.737 13.4362C147.737 12.9617 148.859 14.5043 149.255 14.7927C151.272 16.2542 152.885 16.7048 155.295 16.9575C155.369 16.9647 155.433 16.9862 155.492 17.01C155.829 17.01 155.803 17.1721 155.8 17.6084C155.791 20.3979 156.417 25.7956 155.793 28.5373C155.632 29.2502 155.468 28.1773 154.728 28.4992C154.228 28.7161 153.302 28.6208 152.752 28.6684C152.05 28.7281 152.131 28.6518 151.428 28.7114C150.662 28.7757 149.682 29.3408 149.032 28.7185C148.399 28.1129 148.743 26.6062 148.745 25.8742H148.748Z" fill="#F1BBA2"/>
<path d="M144.885 8.78743C144.874 7.29496 145.566 6.67031 146.76 6.02182C153.188 2.52905 158.96 5.72381 159 6.6417C159.161 10.3729 159.479 15.1316 157.755 18.5028C156.464 21.0276 153.938 23.2616 151.053 22.0194C148.043 20.7225 144.945 17.0723 144.885 8.78743Z" fill="#F1BBA2"/>
<path d="M105.598 25.1736C105.335 24.8851 105.022 24.518 105.003 24.2342C104.953 23.4975 105.807 24.0411 106.061 24.27C106.595 24.7468 107.121 25.2261 107.672 25.6862C107.949 25.9175 108.22 26.1606 108.509 26.3752C108.651 26.4801 109.451 26.9712 109.638 26.7757C108.877 26.039 108.118 25.3023 107.363 24.5585C107.05 24.2486 105.975 23.3092 106.251 22.7561C106.284 22.6869 106.343 22.6559 106.419 22.6583C107.294 22.6965 108.184 23.7002 108.746 24.2915C109.121 24.6872 109.693 25.5813 110.219 25.7649C110.366 25.8149 110.492 25.8006 110.604 25.7434C110.718 25.5932 110.824 25.4359 110.919 25.269C110.971 25.1426 111.031 25.0186 111.097 24.9018C111.111 24.8708 111.126 24.8422 111.137 24.8088C111.152 24.7755 111.173 24.754 111.197 24.7373C111.413 24.4059 111.702 24.127 112.105 23.9458C112.791 23.6382 114.058 23.4666 114.632 24.0554C114.717 24.1437 114.66 24.2509 114.57 24.2891C114.515 24.3916 114.47 24.4107 114.321 24.4655C113.915 24.6157 113.488 24.6396 113.095 24.8422C112.573 25.1116 112.15 25.5002 111.885 25.9842C111.757 26.5349 111.851 27.1024 112.229 27.584C112.577 28.0274 113.066 28.2372 113.583 28.3707C113.588 28.354 113.593 28.335 113.605 28.3183C114.131 27.5172 114.349 26.6065 114.451 25.66C114.496 25.2523 114.361 24.506 114.762 24.2533C114.836 24.208 114.912 24.2271 114.964 24.2724C115.004 24.2819 115.042 24.3082 115.066 24.3558C115.441 25.083 115.602 25.9937 115.524 26.8115C115.462 27.46 115.158 28.0274 114.836 28.5805C114.784 29.0216 114.923 29.4198 115.033 29.8871C115.106 30.2018 115.194 30.6834 115.047 31.0148C115.052 31.0338 115.054 31.0553 115.054 31.0767C115.054 31.0934 115.054 31.1101 115.054 31.1268C115.054 31.1888 114.983 31.2627 114.919 31.2627C114.907 31.2627 114.895 31.2627 114.881 31.2627C114.869 31.2627 114.859 31.2579 114.85 31.2579C114.814 31.2818 114.779 31.3032 114.736 31.3199C114.703 31.3342 114.672 31.3318 114.644 31.3247C114.423 31.4773 114.134 31.7395 114.024 31.8015C113.896 31.8754 113.756 31.997 113.602 32.0161C113.339 32.0519 113.073 31.8659 112.857 31.7348C111.942 31.1816 111.107 30.4187 110.35 29.6677C110.189 29.508 110.004 29.3411 109.828 29.1647C109.289 28.8166 108.772 28.4351 108.279 28.068C107.646 27.5959 107.033 27.0928 106.448 26.5612C106.094 26.2393 105.537 25.8531 105.527 25.3286C105.527 25.2547 105.551 25.207 105.608 25.1688L105.598 25.1736Z" fill="#F1BBA2"/>
<path d="M155.062 13.2028C155.055 13.6463 155.261 14.0087 155.522 14.0135C155.783 14.0182 155.999 13.6606 156.004 13.2172C156.011 12.7737 155.804 12.4113 155.544 12.4065C155.283 12.4018 155.067 12.7594 155.062 13.2028Z" fill="#363537"/>
<path d="M148.71 13.3456C148.715 13.7891 148.931 14.1467 149.19 14.1419C149.451 14.1395 149.657 13.7772 149.652 13.3337C149.648 12.8903 149.432 12.5326 149.173 12.5374C148.915 12.5422 148.706 12.9022 148.71 13.3456Z" fill="#363537"/>
<path d="M147.504 10.9863C147.517 10.9744 147.755 10.909 147.765 10.909C148.51 10.7425 149.526 10.6131 150.242 10.8302C150.613 10.9432 150.977 11.2197 150.453 11.3535C150.006 11.4679 149.364 11.4516 148.892 11.4605C148.508 11.4664 148.041 11.5081 147.677 11.404C147.236 11.2791 147.219 11.1245 147.504 10.9848V10.9863Z" fill="#363537"/>
<path d="M157.205 11.2968C156.861 11.4219 156.386 11.4131 156 11.4322C155.525 11.4558 154.887 11.5132 154.42 11.4308C153.871 11.3336 154.185 11.0377 154.534 10.9008C155.209 10.6387 156.248 10.6991 157.022 10.8139C157.031 10.8139 157.281 10.861 157.296 10.8728C157.608 10.9906 157.62 11.1437 157.202 11.2968H157.205Z" fill="#363537"/>
<path d="M150.223 17.9111C152.502 18.7288 154.535 17.7537 154.656 17.7919C154.706 17.8086 154.758 17.8467 154.749 17.9015C154.554 18.8933 153.435 19.4512 152.564 19.5013C151.655 19.5537 150.384 19.0149 150.085 18.0613C150.059 17.9802 150.133 17.8753 150.225 17.9087L150.223 17.9111Z" fill="white"/>
<path d="M151.832 16.7285C152.461 16.8835 153.042 16.6785 153.109 15.9752C153.14 15.6485 153.033 15.2265 152.995 14.8999C152.917 14.1966 152.826 13.4956 152.732 12.7971C152.71 12.6445 152.947 12.6326 152.969 12.7852C153.049 13.3741 153.125 13.9653 153.194 14.5566C153.253 15.0763 153.412 15.6867 153.348 16.2088C153.261 16.9526 152.383 17.1124 151.783 16.9622C151.636 16.9264 151.685 16.6928 151.832 16.7285Z" fill="#CF9980"/>
<path d="M190.866 48.8146C191.029 48.55 191.603 48.3879 191.852 48.252C192.239 48.0422 192.616 47.8157 192.989 47.582C193.098 46.5497 193.852 45.7057 194.49 44.8641C195.053 44.1226 195.847 42.4609 197.014 42.6421C197.107 42.6564 197.197 42.7661 197.145 42.8638C196.829 43.4455 196.322 43.8985 195.963 44.4564C195.752 44.783 195.572 45.124 195.415 45.4744C195.717 45.2241 196.035 44.9976 196.364 44.8569C197.425 44.2204 198.53 43.672 199.688 43.2333C200.419 42.9568 201.555 42.3894 202.352 42.6302C202.402 42.6445 202.444 42.7041 202.449 42.7541C202.523 43.4455 201.045 43.8127 200.582 43.9939C199.65 44.3563 198.744 44.7592 197.859 45.2146C197.887 45.2432 197.918 45.2718 197.947 45.3028C197.977 45.3338 198.011 45.3672 198.044 45.4005C199.128 44.9976 200.222 44.6138 201.327 44.2704C202.067 44.0416 203.092 43.6339 203.863 43.8651C203.934 43.8866 203.963 43.9677 203.963 44.0344C203.955 44.3539 203.654 44.4397 203.396 44.5709C202.833 44.8546 202.25 45.0834 201.657 45.2956C200.736 45.6246 199.802 45.9107 198.893 46.266C198.903 46.2779 198.912 46.2898 198.924 46.3017C199.908 45.999 200.91 45.72 201.927 45.5483C202.414 45.4673 203.597 45.1907 203.965 45.6604C204.001 45.7057 204.01 45.7677 203.989 45.8201C203.799 46.2922 202.905 46.4567 202.359 46.5831C202.722 46.5688 203.087 46.5711 203.455 46.5974C203.581 46.6069 203.631 46.7595 203.564 46.8549C203.196 47.3818 202.136 47.5224 201.541 47.675C200.618 47.911 199.685 48.0946 198.777 48.3783C198.727 48.4189 198.68 48.4618 198.632 48.5023C197.985 49.0673 197.235 49.6801 196.471 50.0782C196.201 50.2189 195.949 50.2833 195.717 50.288C195.468 50.3476 195.202 50.3524 194.894 50.3405C193.729 50.3023 192.787 50.5241 191.836 51.2298C191.717 51.318 191.57 51.2178 191.525 51.1034C191.34 50.6147 190.538 49.3415 190.863 48.817L190.866 48.8146Z" fill="#F1BBA2"/>
<path d="M144.931 12.3512C145.514 11.7885 146.522 12.3393 146.719 13.0116C146.762 13.157 146.667 13.25 146.551 13.2691C146.655 13.5123 146.717 13.8008 146.733 14.0892C146.826 14.4302 146.862 14.7663 146.807 15.0071C146.807 15.1287 146.8 15.2503 146.79 15.3719C146.843 15.5102 146.862 15.6509 146.807 15.782C146.454 16.626 145.35 15.453 145.146 15.081C144.781 14.4111 144.273 12.9878 144.933 12.3536L144.931 12.3512Z" fill="#F1BBA2"/>
<path d="M144.694 10.6825C144.68 10.6587 144.668 10.6349 144.661 10.6086C144.319 10.6015 143.947 10.2868 144.025 9.80756C144.137 9.1257 144.357 8.50343 144.654 7.93124C144.45 7.75481 144.343 7.45203 144.511 7.13494C145.183 5.88088 146.449 5.04643 147.835 4.54337C147.835 4.2239 148.025 3.88296 148.402 3.84243C149.488 3.72561 150.577 3.66601 151.666 3.67554C151.699 3.47289 151.827 3.30123 152.083 3.2464C152.975 3.06282 153.78 3.22256 154.586 3.45859C154.712 3.23209 154.954 3.07474 155.243 3.14388C155.758 3.26547 156.273 3.52534 156.762 3.83767C156.973 3.60879 157.331 3.50865 157.63 3.76614C158.462 4.48377 159.35 5.28007 159.494 6.46976C159.525 6.71771 159.404 6.90129 159.229 7.00142C159.608 7.87164 159.879 8.7943 160.033 9.76703C160.123 10.3297 159.594 10.6659 159.222 10.5443C159.29 10.9114 159.338 11.2857 159.369 11.6624C159.392 11.9795 158.958 11.9962 158.904 11.703C158.904 11.6982 158.899 11.6958 158.897 11.691C158.223 9.6812 156.486 8.83483 154.769 8.13151C153.554 7.63322 152.705 6.73202 152.162 5.52325C152.024 6.24327 151.806 6.95136 151.334 7.52594C150.66 8.34846 149.661 8.53443 148.767 9.01126C147.643 9.60968 147.182 10.6062 146.352 11.5003C146.098 11.7745 145.221 12.2275 145.13 12.0868C144.953 12.0677 144.768 12.0081 144.573 11.8913C144.246 11.6958 144.44 11.2333 144.744 11.2237C144.718 11.1737 144.699 11.1141 144.694 11.0425C144.687 10.9233 144.685 10.8041 144.685 10.6849L144.694 10.6825Z" fill="#363537"/>
<path d="M145.721 13.1386C145.728 13.6131 145.838 14.0637 146.049 14.488C146.117 14.6239 145.911 14.7455 145.845 14.6072C145.615 14.1447 145.494 13.6536 145.484 13.1386C145.482 12.986 145.719 12.986 145.721 13.1386Z" fill="#CF9980"/>
<path d="M158.563 14.3305C158.743 13.9252 158.843 13.5008 158.864 13.0598C158.871 12.9072 159.109 12.9072 159.101 13.0598C159.078 13.5461 158.966 14.0086 158.767 14.4521C158.705 14.5928 158.499 14.4712 158.563 14.3329V14.3305Z" fill="#F57256"/>
<path d="M156.257 7.04674C157.234 8.18874 158.211 9.38081 158.852 10.7231C158.909 10.1104 159.836 9.88863 160 10.5824C160.747 13.739 161.155 16.9505 161.222 20.1929C161.248 20.386 161.255 20.5887 161.234 20.8009C161.165 21.5519 160.052 21.5805 160.047 20.8009C160.047 20.6554 160.04 20.5124 160.038 20.3669C159.917 19.43 159.165 18.6718 158.793 17.8111C158.354 16.7979 158.375 15.7083 158.394 14.6259C158.439 11.815 157.184 9.95301 155.417 7.88595C154.921 7.30661 155.758 6.46024 156.257 7.04197V7.04674Z" fill="#363537"/>
<path d="M139.141 30.3781C139.172 29.5151 139.473 28.7498 139.938 28.0822C141.44 27.1381 143.069 26.5373 144.761 26.1868C144.891 26.3394 145.034 26.5063 145.202 26.6803C146.552 28.0798 148.193 29.2242 150.056 29.8083C153.849 30.9932 157.82 29.5103 159.711 25.9746C160.439 26.1773 161.158 26.4109 161.862 26.6803C162.783 27.0332 164.215 27.4099 164.521 28.5018C164.59 28.7474 164.588 28.9953 164.528 29.2266C164.664 29.5031 164.623 29.8274 164.469 30.0944C164.676 30.3328 164.823 30.6142 164.88 30.9599C164.991 31.6536 164.467 32.3427 163.712 32.1329C163.38 32.0399 163.046 31.9517 162.714 31.8611C161.542 33.1533 160.223 34.3072 158.781 35.2871C158.579 35.8688 157.986 36.2979 157.362 36.1954C156.57 36.6889 155.59 37.2564 154.646 37.5091C154.477 38.2506 153.5 38.7894 152.734 38.4437C152.357 38.9277 151.718 39.1708 151.128 38.7202C151.038 38.6535 150.955 38.582 150.864 38.5128C150.857 38.5057 150.853 38.5009 150.845 38.4937C149.548 37.4853 148.336 36.4029 147.207 35.2394C146.028 34.3334 144.882 33.3845 143.779 32.3808C143.129 31.7895 143.406 30.8335 143.987 30.3638C144.013 30.3185 144.044 30.2732 144.08 30.2303C142.574 30.3114 141.067 30.3948 139.566 30.4616C139.404 30.4687 139.264 30.433 139.141 30.3734V30.3781ZM157.533 32.9697C157.635 32.8982 157.737 32.8243 157.839 32.7503C157.756 32.7456 157.67 32.7384 157.587 32.7313C157.492 32.7408 157.395 32.748 157.3 32.7551C157.379 32.8243 157.457 32.8958 157.535 32.9697H157.533Z" fill="#C6F895"/>
<path d="M113.227 38.2361C113.021 37.8236 112.919 37.2848 112.805 36.9677C112.62 36.4504 112.027 35.4991 112.252 34.9316C112.494 34.3261 113.728 34.0686 114.255 33.8326C114.902 33.5441 116.001 32.7502 116.729 32.8121C117.253 32.8551 117.4 33.2246 117.614 33.6704C118.005 34.4906 118.325 35.3441 118.619 36.2048C119.825 35.84 120.911 36.4885 121.817 37.3682C122.572 38.1026 123.245 38.9227 124.277 39.2756C125.511 39.6999 126.73 39.2541 127.855 38.7415C128.526 38.4363 129.23 38.3291 129.94 38.2671C131.316 37.3754 132.568 36.3383 133.595 34.9626C134.622 33.5894 137.915 29.5602 138.442 28.9999C139.599 27.7721 141.065 26.8589 142.849 26.3225C145.528 30.1157 148.728 33.5679 152.386 36.4122C152.644 36.6149 153.05 36.7722 153.356 36.5386C155.398 34.9769 162.183 27.1903 162.598 26.4846C168.742 28.7114 171.541 33.5393 174.341 39.247C175.292 40.718 176.203 42.282 177.351 43.5956C178.473 44.8759 179.972 45.7223 181.135 46.962C181.884 47.7631 182.503 48.3854 183.69 48.4211C184.453 48.445 185.208 48.2757 185.972 48.383C186.56 48.4664 187.082 48.6667 187.49 49.0052C187.843 48.8384 188.194 48.6715 188.548 48.5046C188.937 48.321 189.343 48.0683 189.772 48.0039C189.864 47.9896 189.948 48.0039 190.021 48.0301C190.251 47.9658 190.524 48.0492 190.614 48.3425C190.844 49.0935 191.072 49.8469 191.302 50.5979C191.48 51.1844 191.94 52.0879 191.9 52.7007C191.838 53.6138 190.106 53.9905 189.319 54.2384C187.734 56.0122 185.919 57.8838 183.412 58.0698C182.072 58.1699 180.841 57.5453 179.519 57.4833C178.013 57.4094 176.573 57.8266 175.05 57.6573C173.933 57.5333 172.659 57.4475 171.653 56.9015C170.595 56.3293 169.817 55.2541 169.093 54.3219C168.329 53.3349 167.649 52.2954 167.041 51.2153C166.612 52.5409 166.28 53.9261 166.294 54.7343C166.332 56.9278 166.42 57.314 165.843 59.4526C165.692 60.0128 165.516 60.566 165.324 61.1095C161.497 61.6221 154.345 60.9856 150.692 60.9617C148.69 60.9474 143.801 61.2407 141.815 61.4672C141.692 61.4815 141.568 61.4934 141.443 61.5077C141.17 61.1382 140.895 60.7734 140.636 60.3919C139.988 59.4383 140.012 58.1508 139.663 57.0565C139.172 55.5092 138.387 50.5692 137.825 48.3544C137.033 48.8121 135.517 49.5894 134.72 50.04C133.372 50.8005 131.954 51.5229 130.381 51.6016C128.822 51.6779 127.238 51.1009 125.807 50.543C125.005 50.2307 124.23 49.7992 123.376 49.668C122.403 49.5202 121.428 49.7825 120.453 49.6514C118.098 49.3343 115.241 47.0145 114.591 44.69C114.338 43.784 114.198 43.0544 113.628 42.2605C113.194 41.6573 112.717 41.0589 112.542 40.3174C112.347 39.4878 112.611 38.6986 113.225 38.2265L113.227 38.2361Z" fill="#9FD569"/>
<path d="M139.684 43.4145C140.408 41.7409 141.074 40.0195 141.385 38.2123C141.705 36.3479 141.584 34.4263 141.062 32.6096C140.631 31.1052 139.926 29.6962 138.994 28.454C139.053 28.4016 139.112 28.3515 139.172 28.2991C140.937 30.6546 141.895 33.599 141.791 36.5625C141.658 40.3414 139.724 43.6959 138.327 47.11C138.152 47.5391 137.983 47.973 137.829 48.4093C137.824 48.3926 137.819 48.3759 137.817 48.3592C137.736 48.4069 137.644 48.457 137.549 48.5118C138.152 46.7762 138.956 45.093 139.682 43.4145H139.684ZM168.435 30.1635C168.518 30.2445 168.599 30.3256 168.68 30.4067C168.516 35.4539 166.644 40.6036 166.756 45.6342C166.806 47.8085 167.166 49.959 167.553 52.0952C167.434 51.9045 167.323 51.709 167.209 51.5159C166.946 50.0281 166.708 48.5357 166.59 47.0289C166.44 45.1144 166.545 43.2119 166.81 41.3141C167.33 37.5948 168.364 33.9376 168.435 30.1635Z" fill="#8FC15C"/>
<path d="M125.916 40.1935C126.941 40.8491 128.004 41.4333 129.107 41.9482C129.244 42.0126 129.126 42.2176 128.988 42.1533C127.887 41.6383 126.822 41.0542 125.798 40.3985C125.669 40.3175 125.788 40.1101 125.916 40.1935Z" fill="#8FC15C"/>
<path d="M187.994 50.2856C188.398 51.3561 188.803 52.4242 189.207 53.4947C189.261 53.6377 189.031 53.6997 188.979 53.5591C188.576 52.4886 188.17 51.4205 187.767 50.35C187.712 50.2069 187.942 50.145 187.994 50.2856Z" fill="#B0AB46"/>
<path d="M113.42 37.7927C114.998 37.2659 116.575 36.7342 118.155 36.2144C118.3 36.1668 118.364 36.398 118.219 36.4433C116.637 36.9607 115.062 37.4947 113.484 38.0216C113.339 38.0693 113.278 37.8404 113.42 37.7927Z" fill="#8FC15C"/>
</g>
<defs>
<clipPath id="clip0_142_9914">
<rect width="206" height="52" rx="10" fill="white"/>
</clipPath>
</defs>
</svg>
