<svg width="273" height="193" viewBox="0 0 273 193" fill="none" xmlns="http://www.w3.org/2000/svg">
<path opacity="0.66" d="M138.908 176.563C212.964 176.563 272.999 173.27 272.999 169.208C272.999 165.145 212.964 161.852 138.908 161.852C64.851 161.852 4.81641 165.145 4.81641 169.208C4.81641 173.27 64.851 176.563 138.908 176.563Z" fill="#A6A6A6" fill-opacity="0.3"/>
<path d="M258.895 57.2724V160.352C258.895 162.715 257.134 164.677 254.858 164.996C254.642 165.027 254.416 165.047 254.199 165.047H137.397C134.802 165.047 132.691 162.941 132.691 160.352V57.2724C132.691 54.6836 134.792 52.5776 137.397 52.5776H254.189C254.415 52.5776 254.632 52.5982 254.848 52.629C257.134 52.9475 258.895 54.8994 258.895 57.2724Z" fill="#E2A397"/>
<path d="M141.648 158.38H251.912V48.499H141.648V158.38Z" fill="#F37E60"/>
<path d="M141.648 48.4992H251.912V43.3113C251.912 39.9828 249.203 37.281 245.867 37.281H147.703C144.367 37.281 141.659 39.9828 141.659 43.3113V48.4992H141.648Z" fill="#E2907F"/>
<path d="M169.718 48.499H167.73V158.38H169.718V48.499Z" fill="url(#paint0_linear_101_1048)"/>
<path d="M141.648 130.386V132.358H251.912V130.386H141.648Z" fill="url(#paint1_linear_101_1048)"/>
<path d="M141.648 102.392V104.364H251.912V102.392H141.648Z" fill="url(#paint2_linear_101_1048)"/>
<path d="M141.648 74.5208V76.4932H251.912V74.5208H141.648Z" fill="url(#paint3_linear_101_1048)"/>
<path d="M197.778 48.499H195.791V158.38H197.778V48.499Z" fill="url(#paint4_linear_101_1048)"/>
<path d="M225.839 48.499H223.852V158.38H225.839V48.499Z" fill="url(#paint5_linear_101_1048)"/>
<path d="M251.916 132.358C251.916 132.358 251.895 144.398 249.064 154.61L243.029 158.38H221.766C225.802 147.655 225.833 132.358 225.833 132.358H251.916Z" fill="#F2C45B"/>
<path d="M243.041 158.38V154.527H249.065L243.041 158.38Z" fill="#D98C48"/>
<path d="M223.852 104.364C223.852 104.364 223.831 116.404 220.999 126.615L214.965 130.386H193.701C197.738 119.661 197.769 104.364 197.769 104.364H223.852Z" fill="#F2C45B"/>
<path d="M214.977 130.386V126.533H221L214.977 130.386Z" fill="#D98C48"/>
<path d="M223.852 48.4993C223.852 48.4993 223.831 60.5393 220.999 70.7507L214.965 74.521H193.701C197.738 63.7959 197.769 48.4993 197.769 48.4993H223.852Z" fill="#F2C45B"/>
<path d="M214.977 74.521V70.6686H221L214.977 74.521Z" fill="#D98C48"/>
<path d="M195.795 76.4933C195.795 76.4933 195.774 88.5333 192.943 98.7448L186.908 102.515H165.645C169.681 91.7899 169.712 76.4933 169.712 76.4933H195.795Z" fill="#F2C45B"/>
<path d="M186.92 102.515V98.6626H192.944L186.92 102.515Z" fill="#D98C48"/>
<path d="M181.858 94.2863C181.528 94.2863 181.25 94.0192 181.25 93.6802V85.3179C181.25 84.9789 181.518 84.7118 181.858 84.7118C182.197 84.7118 182.465 84.9789 182.465 85.3179V93.6905C182.465 94.0192 182.197 94.2863 181.858 94.2863Z" fill="#A3A3A3"/>
<path d="M237.457 120.667L233.668 117.37C233.359 117.102 233.328 116.63 233.596 116.322C233.864 116.013 234.337 115.983 234.646 116.25L237.324 118.582L241.144 114.329C241.422 114.021 241.896 114 242.194 114.267C242.503 114.544 242.524 115.017 242.256 115.315L237.457 120.667Z" fill="#FFDF69"/>
<path d="M115.176 172.865C155.121 172.865 187.504 140.559 187.504 100.707C187.504 60.8551 155.121 28.5488 115.176 28.5488C75.23 28.5488 42.8477 60.8551 42.8477 100.707C42.8477 140.559 75.23 172.865 115.176 172.865Z" fill="#F2C45B"/>
<path d="M48.7981 104.662C48.7981 128.444 60.331 149.545 78.1247 162.695C56.9947 150.089 42.8359 127.047 42.8359 100.707C42.8359 60.8576 75.2209 28.5488 115.164 28.5488C131.269 28.5488 146.148 33.7984 158.176 42.6846C147.343 36.2228 134.667 32.504 121.126 32.504C81.1727 32.504 48.7981 64.8128 48.7981 104.662Z" fill="#FFDB89"/>
<path d="M161.433 146.851C186.98 121.364 186.98 80.0411 161.433 54.5539C135.885 29.0666 94.4649 29.0667 68.9176 54.5539C43.3703 80.0411 43.3703 121.364 68.9176 146.851C94.4649 172.339 135.885 172.339 161.433 146.851Z" fill="#FFF2F2"/>
<path d="M135.171 94.7997C136.118 92.7862 136.499 82.811 136.499 82.811L134.44 82.5542C134.44 82.5542 134.275 85.2457 132.7 89.5091C132.226 90.7829 131.701 92.8375 131.598 93.0533C131.505 93.269 125.203 97.7789 123.731 98.611C123.041 99.0014 121.548 99.9979 120.59 101.2C119.632 102.402 120.312 103.84 120.312 103.84C122.907 106.521 126.717 102.268 126.717 102.268C126.717 102.268 133.431 98.4569 135.171 94.7997Z" fill="#EEA886"/>
<path d="M116.102 40.5684H114.238V47.3178H116.102V40.5684Z" fill="#8B84AB"/>
<path d="M116.102 154.086H114.238V160.835H116.102V154.086Z" fill="#8B84AB"/>
<path d="M175.447 101.632V99.7722H168.682V101.632H175.447Z" fill="#8B84AB"/>
<path d="M134.923 84.6912C134.923 84.6912 134.449 84.2906 134.264 83.9105C134.12 83.6023 133.687 83.2119 133.471 82.9859C133.265 82.7599 132.586 81.5477 132.462 81.2395C132.411 81.1162 132.287 80.3868 132.163 80.1403C132.03 79.904 131.71 79.4417 131.927 79.339C132.143 79.2362 132.555 79.565 132.555 79.565C132.555 79.565 132.452 79.339 132.606 79.1849C132.925 78.8972 133.173 78.9897 133.173 78.9897C133.173 78.9897 133.224 78.6918 133.379 78.5993C133.739 78.4041 133.976 78.4966 133.976 78.4966C133.976 78.4966 134.089 78.3014 134.357 78.2192C134.697 78.1165 134.944 78.3733 134.944 78.3733C134.944 78.3733 135.376 78.2397 135.572 78.4041C135.768 78.5685 135.788 78.6918 135.912 78.8664C136.025 79.0308 136.715 80.5615 136.571 81.9072C136.437 83.253 136.375 85.0405 136.375 85.0405L134.923 84.6912Z" fill="#EEA886"/>
<path d="M61.6621 101.632V99.7725H54.8968V101.632H61.6621Z" fill="#8B84AB"/>
<path d="M157.131 143.881L158.449 142.566L153.665 137.794L152.348 139.108L157.131 143.881Z" fill="#8B84AB"/>
<path d="M76.6802 63.6136L77.998 62.2988L73.2143 57.5263L71.8964 58.8411L76.6802 63.6136Z" fill="#8B84AB"/>
<path d="M71.893 142.569L73.2109 143.883L77.9947 139.111L76.6768 137.796L71.893 142.569Z" fill="#8B84AB"/>
<path d="M152.35 62.298L153.668 63.6128L158.452 58.8403L157.134 57.5255L152.35 62.298Z" fill="#8B84AB"/>
<path d="M115.178 157.548C99.9591 157.548 85.6459 151.63 74.8852 140.895C64.1246 130.16 58.1934 115.89 58.1934 100.707C58.1934 85.5233 64.1246 71.2437 74.8852 60.5084C85.6459 49.773 99.9591 43.8557 115.178 43.8557C130.398 43.8557 144.711 49.773 155.472 60.5084C166.232 71.2437 172.164 85.5233 172.164 100.707C172.164 115.89 166.232 130.17 155.472 140.905C144.701 151.63 130.398 157.548 115.178 157.548ZM115.178 44.0304C83.8542 44.0304 58.3684 69.4562 58.3684 100.707C58.3684 131.958 83.8542 157.383 115.178 157.383C146.503 157.383 171.989 131.958 171.989 100.707C171.978 69.4562 146.492 44.0304 115.178 44.0304Z" fill="#8B84AB"/>
<path d="M75.7461 100.419C79.0309 100.101 82.3158 99.8849 85.6109 99.7102C88.8957 99.5356 92.1805 99.402 95.4654 99.2993C98.7502 99.2069 102.035 99.1247 105.32 99.0939C106.967 99.0733 108.605 99.063 110.252 99.063C111.9 99.0528 113.537 99.063 115.185 99.063L114.011 99.5356C116.729 96.8338 119.468 94.1628 122.228 91.5021C124.998 88.8516 127.768 86.2114 130.589 83.6123C133.401 81.0133 136.232 78.4244 139.105 75.887L141.268 73.9865C141.999 73.3598 142.72 72.7229 143.451 72.1065C144.903 70.8532 146.375 69.6204 147.868 68.4082C146.633 69.8875 145.387 71.3463 144.12 72.7845C143.492 73.5036 142.843 74.2228 142.215 74.9419L140.289 77.0787C137.715 79.9243 135.1 82.7186 132.463 85.5026C129.827 88.2866 127.16 91.0295 124.473 93.7621C121.785 96.4845 119.077 99.1966 116.348 101.878L115.854 102.361L115.174 102.35C113.527 102.33 111.89 102.32 110.242 102.279C108.594 102.248 106.957 102.217 105.32 102.176C102.035 102.094 98.7502 101.97 95.4654 101.837C92.1805 101.683 88.8957 101.508 85.6109 101.282C82.3158 101.046 79.0309 100.779 75.7461 100.419Z" fill="#66607D"/>
<path opacity="0.69" d="M160.987 62.2445C151.256 55.3923 139.383 51.3756 126.563 51.3756C93.5497 51.3756 66.7768 78.0752 66.7768 111.021C66.7768 125.896 72.2344 139.498 81.2651 149.946C65.9221 139.149 55.8926 121.325 55.8926 101.169C55.8926 68.2337 82.6552 41.5237 115.679 41.5237C133.791 41.5237 150.02 49.5572 160.987 62.2445Z" fill="white"/>
<path d="M211.045 29.9255C211.045 29.9255 218.901 32.7712 226.81 39.6644L217.728 46.4035C217.728 46.4035 210.571 39.3665 202.766 35.8736L211.045 29.9255Z" fill="url(#paint6_linear_101_1048)"/>
<path d="M221.094 80.7771C221.094 80.7771 225.46 67.0317 236.859 52.9165L249.174 68.1001C249.174 68.1001 237.487 80.9414 231.999 94.6457L221.094 80.7771Z" fill="url(#paint7_linear_101_1048)"/>
<path d="M154.326 69.9904C154.326 69.9904 144.307 60.0049 137.49 43.1982L157.189 37.9795C157.189 37.9795 162.719 54.5089 172.141 65.5421L154.326 69.9904Z" fill="url(#paint8_linear_101_1048)"/>
<path d="M149.168 0C149.168 0 140.817 6.51312 132.98 20.5975L146.336 27.2853C146.336 27.2853 155.212 10.7867 162.74 5.19817L149.168 0Z" fill="url(#paint9_linear_101_1048)"/>
<path d="M166.951 21.2037C166.951 21.2037 175.23 20.0531 185.455 22.4673L180.584 32.6582C180.584 32.6582 170.956 29.7817 162.42 30.3365L166.951 21.2037Z" fill="url(#paint10_linear_101_1048)"/>
<path d="M24.9169 118.572L24.7109 118.192C24.7212 118.181 25.9157 117.524 27.6045 116.301L27.8619 116.651C26.1423 117.894 24.9272 118.572 24.9169 118.572ZM30.5804 114.473L30.2921 114.144C31.1673 113.373 32.0117 112.572 32.7737 111.75L33.0929 112.048C32.3206 112.88 31.4762 113.692 30.5804 114.473ZM35.3377 109.377L34.9876 109.12C35.6878 108.175 36.316 107.21 36.8617 106.244L37.2427 106.449C36.697 107.436 36.0585 108.422 35.3377 109.377ZM38.7049 103.275L38.293 103.131C38.6843 102.042 38.983 100.933 39.1786 99.8335L39.6111 99.9055C39.4154 101.025 39.1065 102.166 38.7049 103.275ZM39.4463 96.4229C39.4257 95.3031 39.3022 94.1525 39.0859 93.0225L39.5081 92.9403C39.7347 94.1012 39.8582 95.2723 39.8788 96.4126L39.4463 96.4229ZM38.1489 89.7249C37.7679 88.6873 37.2942 87.6394 36.7382 86.5916L37.1192 86.3861C37.6855 87.4442 38.1695 88.5126 38.5505 89.5708L38.1489 89.7249ZM34.9567 83.6535C34.7199 83.3042 34.4728 82.9549 34.205 82.5953C33.7725 82.0098 33.3504 81.4037 32.9591 80.8078L33.3195 80.5715C33.7108 81.1571 34.1226 81.753 34.5448 82.3385C34.8126 82.6981 35.0597 83.0576 35.2965 83.4069L34.9567 83.6535ZM31.1879 77.8184C30.6422 76.7808 30.1376 75.7227 29.6948 74.6645L30.0964 74.5002C30.5289 75.548 31.0232 76.5959 31.5689 77.6129L31.1879 77.8184ZM28.5312 71.3874C28.2017 70.2677 27.9237 69.1274 27.7177 67.9973L28.1399 67.9151C28.3459 69.0349 28.6136 70.1547 28.9431 71.2539L28.5312 71.3874ZM27.275 64.5353C27.2235 63.7956 27.1926 63.0457 27.1926 62.306C27.1926 61.8848 27.2029 61.4636 27.2132 61.0424L27.6457 61.063C27.6251 61.4739 27.6251 61.8848 27.6251 62.306C27.6251 63.0354 27.656 63.7751 27.7074 64.5045L27.275 64.5353ZM27.9855 57.6523L27.553 57.5907C27.728 56.4504 27.9752 55.2998 28.2841 54.18L28.7063 54.293C28.4077 55.3923 28.1605 56.5223 27.9855 57.6523ZM29.8184 51.0365L29.4168 50.8721C29.8493 49.7934 30.3538 48.7353 30.9099 47.7183L31.2909 47.9237C30.7451 48.9305 30.2509 49.9784 29.8184 51.0365ZM33.1238 45.0267L32.7737 44.7699C33.4533 43.8145 34.1947 42.9105 34.9773 42.0681L35.2965 42.366C34.5242 43.1879 33.7931 44.0919 33.1238 45.0267ZM37.7885 39.9929L37.5104 39.6642C38.4166 38.9143 39.3743 38.226 40.3525 37.6199L40.579 37.9897C39.6214 38.5855 38.674 39.2533 37.7885 39.9929ZM43.627 36.4076L43.4623 36.007C44.5435 35.5447 45.6659 35.1749 46.7883 34.9078L46.8913 35.329C45.7895 35.5961 44.6877 35.9659 43.627 36.4076ZM50.2688 34.805L50.2379 34.3736C50.4026 34.3633 50.5777 34.353 50.7527 34.3427C51.7516 34.3017 52.7401 34.2195 53.6875 34.0962L53.739 34.5277C52.7813 34.6509 51.7825 34.7331 50.7733 34.7845C50.5983 34.7845 50.4335 34.7948 50.2688 34.805ZM57.1679 33.8907L57.065 33.4695C58.1977 33.1922 59.2995 32.8532 60.3498 32.4525L60.5043 32.8532C59.4436 33.2538 58.3212 33.6031 57.1679 33.8907ZM63.6758 31.3841L63.4699 31.004C64.479 30.4493 65.447 29.8226 66.3531 29.1446L66.6106 29.4939C65.6941 30.1822 64.7056 30.8191 63.6758 31.3841ZM69.2569 27.203L68.948 26.8948C69.7615 26.0832 70.5132 25.1997 71.1825 24.2854L71.5326 24.5422C70.853 25.4771 70.0807 26.3708 69.2569 27.203ZM73.3862 21.5733L72.9949 21.3781C73.3759 20.6385 73.5406 20.1762 73.5509 20.1556L73.9628 20.2995C73.9422 20.3508 73.7672 20.8234 73.3862 21.5733Z" fill="#EDDAD3"/>
<path d="M90.4421 4.448L75.6758 18.2653L77.1277 12.3685L90.4421 4.448Z" fill="#D6D6D6"/>
<path d="M90.4385 4.448L80.4604 6.97517L78.957 11.2796L90.4385 4.448Z" fill="#E8E8E8"/>
<path d="M79.0762 15.0806L81.0841 16.0977L90.4444 4.448L79.0762 15.0806Z" fill="#C2C2C2"/>
<path d="M220.679 52.1564H200.939C200.764 52.1564 200.609 52.0126 200.609 51.8277V51.6222C200.609 51.4476 200.754 51.2935 200.939 51.2935H220.679C220.854 51.2935 221.008 51.4373 221.008 51.6222V51.8277C220.998 52.0126 220.854 52.1564 220.679 52.1564Z" fill="white"/>
<path d="M213.111 55.8753H200.58C200.404 55.8753 200.25 55.7314 200.25 55.5465V55.3411C200.25 55.1664 200.394 55.0123 200.58 55.0123H213.111C213.286 55.0123 213.441 55.1562 213.441 55.3411V55.5465C213.441 55.7314 213.286 55.8753 213.111 55.8753Z" fill="white"/>
<path d="M215.047 59.5941H200.085C199.91 59.5941 199.756 59.4503 199.756 59.2654V59.0599C199.756 58.8853 199.9 58.7312 200.085 58.7312H215.047C215.222 58.7312 215.377 58.875 215.377 59.0599V59.2654C215.367 59.4503 215.222 59.5941 215.047 59.5941Z" fill="white"/>
<path d="M220.856 107.693H200.9C200.776 107.693 200.684 107.6 200.684 107.477V107.056C200.684 106.932 200.776 106.84 200.9 106.84H220.856C220.98 106.84 221.072 106.932 221.072 107.056V107.477C221.072 107.59 220.98 107.693 220.856 107.693Z" fill="white"/>
<path d="M209.808 111.412H200.54C200.417 111.412 200.324 111.319 200.324 111.196V110.775C200.324 110.651 200.417 110.559 200.54 110.559H209.808C209.932 110.559 210.024 110.651 210.024 110.775V111.196C210.024 111.319 209.921 111.412 209.808 111.412Z" fill="white"/>
<path d="M216.244 115.13H200.046C199.923 115.13 199.83 115.038 199.83 114.915V114.493C199.83 114.37 199.923 114.278 200.046 114.278H216.244C216.368 114.278 216.46 114.37 216.46 114.493V114.915C216.46 115.038 216.368 115.13 216.244 115.13Z" fill="white"/>
<path d="M245.722 135.615H229.113C228.927 135.615 228.783 135.471 228.783 135.286V135.091C228.783 134.906 228.927 134.762 229.113 134.762H245.722C245.908 134.762 246.052 134.906 246.052 135.091V135.286C246.052 135.471 245.897 135.615 245.722 135.615Z" fill="white"/>
<path d="M237.921 139.334H228.622C228.437 139.334 228.293 139.19 228.293 139.005V138.81C228.293 138.625 228.437 138.481 228.622 138.481H237.921C238.106 138.481 238.25 138.625 238.25 138.81V139.005C238.261 139.19 238.106 139.334 237.921 139.334Z" fill="white"/>
<path d="M239.905 143.052H227.97C227.785 143.052 227.641 142.909 227.641 142.724V142.528C227.641 142.344 227.785 142.2 227.97 142.2H239.905C240.09 142.2 240.234 142.344 240.234 142.528V142.724C240.234 142.909 240.08 143.052 239.905 143.052Z" fill="white"/>
<path d="M258.896 57.2724V160.352C258.896 162.715 257.135 164.677 254.859 164.996V52.6187C257.135 52.9474 258.896 54.8993 258.896 57.2724Z" fill="#CF8171"/>
<path d="M74.0773 147.788V169.197H16.0419C13.8176 169.197 12.0156 167.4 12.0156 165.181V151.805C12.0156 151.692 12.0259 151.589 12.0259 151.476C12.1804 149.535 13.7147 147.994 15.6506 147.809C15.7844 147.799 15.908 147.788 16.0419 147.788H74.0773Z" fill="#68CAE8"/>
<path d="M85.0366 147.788V149.997H84.0172V166.999H85.0366V169.208H42.9208C40.6966 169.208 38.8945 167.41 38.8945 165.191V151.815C38.8945 151.702 38.9048 151.6 38.9048 151.487C39.0593 149.545 40.6039 147.994 42.5501 147.819C42.6736 147.809 42.7972 147.799 42.9208 147.799H85.0366V147.788Z" fill="#3CA5C5"/>
<path d="M84.0139 166.999H45.9552C43.7619 166.999 41.9805 165.222 41.9805 163.034V153.962C41.9805 151.774 43.7619 149.997 45.9552 149.997H84.0139V166.999Z" fill="url(#paint11_linear_101_1048)"/>
<path d="M77.2716 158.411H60.8887V158.833H77.2716V158.411Z" fill="url(#paint12_linear_101_1048)"/>
<path d="M70.7118 159.695H53.2168V160.117H70.7118V159.695Z" fill="url(#paint13_linear_101_1048)"/>
<path d="M10.9453 147.85H68.8263C71.1329 147.85 73.007 145.98 73.007 143.679V135.491C73.007 133.19 71.1329 131.321 68.8263 131.321H10.9453V147.85Z" fill="#7FCBB4"/>
<path d="M46.1421 135.491V143.679C46.1421 145.98 44.268 147.85 41.9614 147.85H0V146.145H1.01943V133.016H0V131.31H41.9614C44.1032 131.31 45.8641 132.913 46.1112 134.978C46.1318 135.163 46.1421 135.327 46.1421 135.491Z" fill="#5CB59A"/>
<path d="M1.01953 146.155H39.6549C41.9615 146.155 43.8253 144.295 43.8253 141.994V137.176C43.8253 134.875 41.9615 133.016 39.6549 133.016H1.01953V146.155Z" fill="url(#paint14_linear_101_1048)"/>
<path d="M7.76562 139.848H24.1382V139.518H7.76562V139.848Z" fill="url(#paint15_linear_101_1048)"/>
<path d="M14.3242 140.834H31.8192V140.515H14.3242V140.834Z" fill="url(#paint16_linear_101_1048)"/>
<path d="M88.9377 131.321H22.1599C20.7183 131.321 19.5547 130.16 19.5547 128.722V122.476C19.5547 121.037 20.7183 119.876 22.1599 119.876H88.948V131.321H88.9377Z" fill="#68CAE8"/>
<path d="M98.8746 121.048V130.139H99.894V131.321H56.2645C54.8744 131.321 53.752 130.201 53.752 128.814V122.383C53.752 120.996 54.8744 119.876 56.2645 119.876H99.8837V121.058H98.8746V121.048Z" fill="#3CA5C5"/>
<path d="M98.8739 130.139H58.2821C56.8919 130.139 55.7695 129.019 55.7695 127.633V123.564C55.7695 122.178 56.8919 121.058 58.2821 121.058H98.8636V130.139H98.8739Z" fill="url(#paint17_linear_101_1048)"/>
<path d="M92.129 122.989H75.7461V123.319H92.129V122.989Z" fill="url(#paint18_linear_101_1048)"/>
<path d="M85.5614 126.235H68.0664V126.462H85.5614V126.235Z" fill="url(#paint19_linear_101_1048)"/>
<path d="M203.597 136.58C203.597 136.58 195.05 137.854 182.57 144.47C170.1 151.076 192.342 146.463 203.597 136.58Z" fill="#86B9A9"/>
<path d="M180.882 145.436C180.882 145.436 187.091 133.642 196.729 128.249C196.729 128.249 193.928 136.437 183.755 145.23C173.581 154.024 180.882 145.436 180.882 145.436Z" fill="#7FCBB4"/>
<path d="M175.928 137.361C175.928 137.361 169.523 129.554 166.959 125.999C164.395 122.445 172.335 142.611 172.994 144.737C173.653 146.874 176.361 148.723 175.928 137.361Z" fill="#60B59C"/>
<path d="M182.043 149.432C184.885 145.169 186.883 125.999 186.883 125.999C181.899 130.119 177.203 148.631 177.203 148.631C177.203 148.631 179.201 153.695 182.043 149.432Z" fill="#60B59C"/>
<path d="M181.404 147.501C182.258 145.693 181.116 122.188 180.436 124.314C179.756 126.441 175.874 135.245 175.874 135.245C175.298 140.587 180.549 149.309 181.404 147.501Z" fill="#85B9A9"/>
<path d="M174.846 142.292C173.332 139.549 158.422 124.869 158.422 124.869C158.566 129.41 167.813 140.207 167.813 140.207C167.813 140.207 176.36 145.025 174.846 142.292Z" fill="#85B9A9"/>
<path d="M182.043 149.124C164.816 142.796 148.598 146.083 148.598 146.083C150.966 149.329 173.507 149.124 173.507 149.124H182.043Z" fill="#7FCBB4"/>
<path d="M178.439 149.679C169.687 140.166 149.051 135.584 149.051 135.584C155.147 141.799 163.899 147.244 163.899 147.244C163.899 147.244 187.192 159.191 178.439 149.679Z" fill="#55B497"/>
<path d="M180.201 148.641C175.073 139.19 155.57 129.841 155.57 129.841C155.57 132.82 171.377 146.699 171.377 146.699C171.377 146.699 185.319 158.092 180.201 148.641Z" fill="#8ED4BF"/>
<path d="M180.057 149.576C183.898 148.877 198.128 134.947 198.128 134.947C194.432 135.656 180.057 144.737 180.057 144.737C180.057 144.737 176.216 150.274 180.057 149.576Z" fill="#8ED4BF"/>
<path d="M186.883 149.637C191.723 149.843 207.241 140.207 207.241 140.207C202.597 140.207 191.939 143.011 186.729 144.47C184.762 145.015 183.104 146.319 182.095 148.096C179.325 152.986 182.672 149.453 186.883 149.637Z" fill="#55B497"/>
<path d="M204.823 145.446C203.382 145.333 194.063 145.744 190.067 145.929C188.482 146.001 186.958 146.586 185.763 147.614C184.033 149.103 184.548 150.213 186.896 150.696C190.026 151.333 206.677 145.6 204.823 145.446Z" fill="#B2EBDA"/>
<path d="M179.654 147.963C179.994 146.504 180.055 144.994 179.849 143.515C179.17 138.46 176.812 122.794 173.362 120.421C173.362 120.421 171.797 140.71 175.072 147.542C177.522 152.658 178.995 150.768 179.654 147.963Z" fill="#7FCBB4"/>
<path d="M179.621 150.747C181.577 148.887 189.558 130.827 189.558 130.827C182.092 135.183 178.766 144.018 178.766 144.018C178.766 144.018 177.664 152.606 179.621 150.747Z" fill="#97D5C2"/>
<path d="M161.242 152.124L163.714 168.078H192.752L195.213 152.124H161.242Z" fill="#44626C"/>
<path d="M195.213 152.124H161.242L163.703 168.088H169.81C169.81 168.088 175.03 157.866 194.492 156.746L195.213 152.124Z" fill="#2E454D"/>
<path d="M196.563 148.682H159.904V154.014H196.563V148.682Z" fill="#51595C"/>
<path d="M93.293 65.6244H112.899V80.3149V83.4071L109.902 80.3149H93.293V65.6244Z" fill="#F2C45B"/>
<path d="M103.172 74.264L101.154 73.3908C100.989 73.3188 100.917 73.1237 100.989 72.9593C101.061 72.7949 101.257 72.723 101.421 72.7949L102.853 73.4113L103.882 71.1307C103.954 70.9663 104.15 70.8944 104.315 70.9663C104.48 71.0382 104.552 71.2334 104.48 71.3978L103.172 74.264Z" fill="white"/>
<path d="M105.463 76.1851C103.599 77.4898 101.025 77.0378 99.7168 75.1886C98.409 73.3292 98.8621 70.7609 100.716 69.4562C102.579 68.1516 105.154 68.6036 106.462 70.4527C107.78 72.3019 107.326 74.8804 105.463 76.1851ZM101.055 69.9288C99.4594 71.0486 99.0784 73.247 100.19 74.8393C101.313 76.4317 103.516 76.8118 105.113 75.7023C106.709 74.5825 107.09 72.3841 105.978 70.7917C104.865 69.1891 102.652 68.809 101.055 69.9288Z" fill="white"/>
<path d="M128.924 159.479C128.924 159.479 127.956 161.256 127.822 161.523C127.688 161.79 124.877 160.239 124.877 160.239L125.464 157.917C125.464 157.917 128.656 159.078 128.924 159.479Z" fill="#424773"/>
<path d="M127.945 161.287C127.945 161.287 128.47 162.767 129.202 163.599C129.933 164.431 133.135 166.074 133.485 166.783C133.743 167.297 133.835 169.013 128.553 166.907C124.805 165.407 122.858 165.047 122.673 164.297C122.498 163.537 124.928 160.034 124.928 160.034C124.928 160.034 125.639 160.691 127.945 161.287Z" fill="#818181"/>
<path d="M100.525 169.043C100.525 169.043 99.7422 171.786 99.5259 172.721C99.3097 173.646 99.6392 176.08 99.4127 177.005C99.1964 177.929 98.661 178.196 98.2285 178.073C97.796 177.95 96.6942 177.58 95.7571 176.481C94.8201 175.371 95.1908 173.337 95.0775 172.033C94.9745 170.81 94.4288 170.173 95.4894 169.156C96.8486 167.851 97.034 167.102 97.034 167.102L100.525 169.043Z" fill="#818181"/>
<path d="M119.674 130.694C119.674 130.694 119.201 136.057 118.717 139.262C118.274 142.22 115.803 151.559 114.938 152.791C113.362 155.031 109.768 158.76 109.017 159.736C107.802 161.339 100.583 170.893 100.583 170.893C100.583 170.893 98.5546 170.441 95.9082 167.934C95.9082 167.934 103.436 159.428 104.558 156.911C105.413 155 109.099 149.494 109.078 148.61C109.048 147.131 110.108 130.684 111.601 127.746C113.115 124.808 119.674 130.694 119.674 130.694Z" fill="#4B4D61"/>
<path d="M124.227 127.509C124.227 127.509 133.597 135.985 134.75 137.916C135.904 139.837 136.635 140.083 136.151 142.138C135.657 144.182 128.521 160.702 128.397 161.225C128.263 161.79 124.618 160.085 124.288 160.044C123.959 160.003 125.823 155.062 126.513 153.058C127.213 151.055 129.355 144.193 129.931 143.165C130.508 142.138 118.378 135.872 117.101 134.361C115.834 132.831 117.657 125.794 124.227 127.509Z" fill="#4B4D61"/>
<path d="M124.876 128.311C124.876 128.311 118.842 134.957 108.926 138.532L110.491 132.636L124.876 128.311Z" fill="#F5B17F"/>
<path d="M125.46 114.021C125.46 114.021 125.285 115.356 124.389 115.808L123.617 114.349L125.46 114.021Z" fill="#323657"/>
<path d="M112.088 119.979C111.965 122.249 111.46 124.653 110.43 127.109C110.43 127.109 107.187 128.444 105.622 126.42C105.004 125.619 104.468 122.938 104.242 119.517C103.892 114.247 104.283 107.23 106.25 102.638C106.26 102.638 112.644 110.148 112.088 119.979Z" fill="#4B4D61"/>
<path d="M112.085 119.979C111.961 122.249 111.457 124.653 110.427 127.109C110.427 127.109 107.183 128.444 105.618 126.42C105 125.619 104.465 122.938 104.238 119.517L112.085 119.979Z" fill="#F5B17F"/>
<path d="M92.3689 130.108C92.3689 130.108 90.6802 133.273 90.7522 133.56C90.8243 133.858 91.0097 133.93 91.1847 133.632C91.3598 133.344 92.9044 130.622 92.9044 130.622C92.9044 130.622 91.576 134.659 91.576 134.916C91.576 135.07 91.9261 135.224 92.0394 135.07C92.1424 134.926 93.7076 130.982 93.7076 130.982C93.7076 130.982 92.4719 134.752 92.544 134.968C92.6058 135.152 92.9662 135.224 93.0794 134.947C93.1927 134.67 94.5519 131.228 94.5519 131.228C94.5519 131.228 93.8311 134.022 94.0062 134.166C94.1092 134.248 94.4078 134.403 94.5725 133.673C94.7373 132.944 95.3036 131.269 95.3036 131.269L92.3689 130.108Z" fill="#EEA886"/>
<path d="M94.9033 126.749C94.9033 126.749 94.2752 127.756 93.575 127.715C92.9778 127.674 92.1746 128.033 91.9171 128.146C91.5876 128.29 90.3931 128.383 90.5682 128.783C90.7535 129.174 92.535 128.711 92.9366 128.691C93.3279 128.66 92.2672 130.006 92.2672 130.386C92.2775 130.766 94.6974 132.235 95.3255 131.239C95.9434 130.242 95.9125 128.814 96.0669 128.66C96.2111 128.506 96.5509 127.951 96.5509 127.951L94.9033 126.749Z" fill="#EEA886"/>
<path d="M117.524 99.6589C117.524 99.6589 120.973 100.337 122.518 99.4021C123.105 99.813 124.351 105.319 124.546 106.583C124.742 107.847 124.752 113.209 124.423 115.243C124.093 117.277 125.988 126.595 125.144 128.085C125.144 128.085 118.09 134.228 109.718 134.033C109.718 134.033 109.646 122.393 109.028 119.722C108.235 116.301 106.351 108.422 106.351 108.422C106.351 108.422 105.476 103.142 106.341 102.72C108.215 101.796 113.209 99.9774 113.209 99.9774L117.524 99.6589Z" fill="#D07B7B"/>
<path d="M118.461 100.625C118.461 100.625 117.318 101.282 113.22 99.9774C113.22 99.9774 113.045 97.2859 112.005 94.8717C110.965 92.4576 117.617 97.6455 117.617 97.6455C117.555 97.6968 117.576 97.9434 117.648 98.2927C117.71 98.5803 117.813 98.9399 117.957 99.3097C118.266 100.121 118.194 99.9774 118.461 100.625Z" fill="#EEA987"/>
<path d="M117.956 99.2994C114.002 99.0631 113.178 96.9161 113.168 96.8853C114.888 98.6728 117.647 98.2824 117.647 98.2824C117.709 98.5803 117.812 98.9399 117.956 99.2994Z" fill="#A77860"/>
<path d="M104.652 118.921C103.138 120.565 96.3216 128.321 96.3216 128.321L94.7461 126.955C94.7461 126.955 96.7541 123.308 99.5549 119.301C100.327 118.192 101.357 115.572 101.511 115.387C101.666 115.202 103.952 109.85 104.209 108.186C104.312 107.528 104.94 105.566 105.352 103.902C105.805 102.042 110.13 101.128 110.13 101.128C113.693 102.258 108.822 109.223 108.822 109.223C108.822 109.223 106.773 116.62 104.652 118.921Z" fill="#EEA886"/>
<path d="M108.986 110.035L103.652 109.1C103.652 109.1 103.766 103.594 107.483 101.796C111.2 99.9981 113.229 99.9878 113.229 99.9878L108.986 110.035Z" fill="#E57575"/>
<path d="M108.843 118.777L107.957 118.027C111.057 114.401 112.055 110.579 110.933 106.665C110.099 103.737 108.019 101.56 108.009 101.539L109.141 101.056C109.224 101.138 111.139 103.152 112.055 106.357C112.591 108.247 112.683 110.158 112.313 112.028C111.849 114.349 110.686 116.62 108.843 118.777Z" fill="#4B4D61"/>
<path d="M124.72 97.8304L127.212 102.649C127.212 102.649 125.245 104.231 124.545 108.319C123.968 111.72 120.91 99.8645 120.91 99.8645C120.91 99.8645 122.3 99.731 124.72 97.8304Z" fill="#E57575"/>
<path d="M125.463 114.021L124.516 114.504C125 108.371 124.176 105.371 123.465 103.265C122.703 101.005 121.499 99.7206 121.488 99.7104L122.6 99.2275C122.786 99.4022 126.678 102.803 125.463 114.021Z" fill="#4B4D61"/>
<path d="M118.933 99.8439C118.933 99.8439 122.835 105.001 119.571 106.254C115.308 107.877 111.766 100.204 111.766 100.204C111.766 100.204 114.216 99.1967 118.933 99.8439Z" fill="#EEA987"/>
<path d="M116.553 86.7046C116.553 86.7046 119.859 87.0642 120.095 93.0534C120.353 99.6487 115.441 98.7138 114.061 97.7173C112.681 96.7209 111.322 94.2861 110.931 92.3548C110.55 90.4132 110.025 85.102 116.553 86.7046Z" fill="#EEA886"/>
<path d="M119.878 90.4954C119.878 90.4954 119.404 88.3586 116.799 89.2626C114.194 90.1666 111.98 92.6938 112.525 96.0223C112.525 96.0223 107.789 90.6084 110.301 87.6087C112.803 84.5986 118.869 84.6397 119.878 90.4954Z" fill="#4B4D61"/>
<path d="M116.143 89.5298C116.143 89.5298 119.499 91.8001 120.313 91.7282C120.313 91.7282 120.076 87.6498 116.143 89.5298Z" fill="#E68A6B"/>
<path d="M112.805 93.002C112.517 92.4473 111.704 91.7796 111.539 92.7041C111.374 93.6287 112.579 95.4676 112.908 95.1286C113.228 94.7896 113.331 94.0294 112.805 93.002Z" fill="#EEA886"/>
<path d="M108.008 101.539C108.008 101.539 108.492 101.138 109.141 101.056C109.141 101.046 108.481 101.539 108.008 101.539Z" fill="#323657"/>
<path d="M132.307 79.3288C132.307 79.3288 132.77 80.9416 133.305 81.1676C133.831 81.3937 133.697 80.8081 133.697 80.8081C133.697 80.8081 133.82 81.3937 134.304 81.3526C134.788 81.3115 134.592 80.6232 134.592 80.6232C134.592 80.6232 134.809 81.0444 135.262 80.8184C135.715 80.6026 135.427 80.0684 135.427 80.0684C135.427 80.0684 136.065 80.4999 136.199 79.8835C136.425 78.8562 135.602 77.9316 135.602 77.9316C135.602 77.9316 135.385 77.7262 134.953 77.9727C134.953 77.9727 134.448 77.4385 133.903 78.0652C133.903 78.0652 133.069 77.87 133.007 78.5583C133.017 78.548 132.121 78.3939 132.307 79.3288Z" fill="#DB9C7C"/>
<path d="M52.811 154.075L41.1133 147.819L45.088 147.49L52.811 154.075Z" fill="#D6D6D6"/>
<path d="M52.8147 154.075L49.1488 148.425L46.1523 148.394L52.8147 154.075Z" fill="#E8E8E8"/>
<path d="M43.8075 149.257L43.6016 150.716L52.8176 154.075L43.8075 149.257Z" fill="#C2C2C2"/>
<path d="M40.3976 144.563C39.7592 144.172 38.7603 143.535 37.6791 142.683L37.9366 142.364C39.0075 143.207 39.9857 143.833 40.6139 144.213L40.3976 144.563ZM35.2284 140.484C34.4355 139.662 33.725 138.799 33.138 137.926L33.4778 137.7C34.0545 138.553 34.7444 139.395 35.527 140.207L35.2284 140.484ZM31.5934 134.988C31.5523 134.896 31.5214 134.803 31.4905 134.711C31.1404 133.745 30.9138 132.759 30.8109 131.773L31.2227 131.732C31.3154 132.687 31.542 133.642 31.8715 134.577C31.9024 134.67 31.9436 134.762 31.9744 134.855L31.5934 134.988ZM31.336 128.526L30.9344 128.454C31.1095 127.407 31.4287 126.338 31.8818 125.28L32.2628 125.434C31.82 126.482 31.5111 127.509 31.336 128.526ZM33.7765 122.599L33.4367 122.373C33.6941 121.982 33.9721 121.571 34.2604 121.181C34.6208 120.698 34.9607 120.185 35.2902 119.681L35.6403 119.897C35.3108 120.411 34.9607 120.924 34.6002 121.428C34.2913 121.818 34.0236 122.208 33.7765 122.599ZM37.2261 117.02L36.8554 116.846C37.329 115.87 37.7409 114.863 38.091 113.846L38.4823 113.98C38.1219 115.007 37.6997 116.034 37.2261 117.02ZM39.3679 110.805L38.9663 110.723C39.1928 109.665 39.3576 108.586 39.4606 107.518L39.8725 107.559C39.7592 108.638 39.5944 109.727 39.3679 110.805ZM39.9548 104.261L39.5429 104.272C39.5018 103.183 39.3885 102.094 39.2031 101.046L39.6047 100.974C39.7901 102.042 39.9033 103.152 39.9548 104.261ZM38.8015 97.779L38.4102 97.9023C38.3485 97.7174 38.2867 97.5428 38.2249 97.3681C37.916 96.5257 37.5556 95.7039 37.154 94.9231L37.5144 94.7382C37.9263 95.5292 38.297 96.3716 38.6059 97.2243C38.678 97.4195 38.75 97.5941 38.8015 97.779ZM35.424 92.211C34.765 91.3481 34.0236 90.5571 33.2204 89.8482L33.4881 89.54C34.3016 90.2694 35.0636 91.081 35.7432 91.9645L35.424 92.211ZM30.6152 87.9374C29.6987 87.393 28.7205 86.9307 27.6908 86.5608L27.8349 86.1807C28.8853 86.5609 29.8841 87.0334 30.8314 87.5882L30.6152 87.9374ZM24.5707 85.7185C23.541 85.5335 22.4495 85.4103 21.3477 85.3692L21.358 84.9583C22.4804 84.9993 23.5925 85.1124 24.6428 85.3075L24.5707 85.7185Z" fill="#EDDAD3"/>
<defs>
<linearGradient id="paint0_linear_101_1048" x1="159.524" y1="154.655" x2="180.723" y2="36.04" gradientUnits="userSpaceOnUse">
<stop stop-color="#E6583B"/>
<stop offset="1" stop-color="#A16132"/>
</linearGradient>
<linearGradient id="paint1_linear_101_1048" x1="191.573" y1="160.383" x2="212.772" y2="41.7672" gradientUnits="userSpaceOnUse">
<stop stop-color="#E6583B"/>
<stop offset="1" stop-color="#A16132"/>
</linearGradient>
<linearGradient id="paint2_linear_101_1048" x1="186.703" y1="159.512" x2="207.901" y2="40.8974" gradientUnits="userSpaceOnUse">
<stop stop-color="#E6583B"/>
<stop offset="1" stop-color="#A16132"/>
</linearGradient>
<linearGradient id="paint3_linear_101_1048" x1="181.854" y1="158.645" x2="203.052" y2="40.0306" gradientUnits="userSpaceOnUse">
<stop stop-color="#E6583B"/>
<stop offset="1" stop-color="#A16132"/>
</linearGradient>
<linearGradient id="paint4_linear_101_1048" x1="186.713" y1="159.514" x2="207.911" y2="40.899" gradientUnits="userSpaceOnUse">
<stop stop-color="#E6583B"/>
<stop offset="1" stop-color="#A16132"/>
</linearGradient>
<linearGradient id="paint5_linear_101_1048" x1="213.902" y1="164.373" x2="235.1" y2="45.758" gradientUnits="userSpaceOnUse">
<stop stop-color="#E6583B"/>
<stop offset="1" stop-color="#A16132"/>
</linearGradient>
<linearGradient id="paint6_linear_101_1048" x1="205.312" y1="20.4499" x2="229.485" y2="64.8708" gradientUnits="userSpaceOnUse">
<stop stop-color="#F0EEEE"/>
<stop offset="1" stop-color="#DBBCB4"/>
</linearGradient>
<linearGradient id="paint7_linear_101_1048" x1="239.839" y1="57.6861" x2="227.493" y2="101.806" gradientUnits="userSpaceOnUse">
<stop stop-color="#F0EEEE"/>
<stop offset="1" stop-color="#DBBCB4"/>
</linearGradient>
<linearGradient id="paint8_linear_101_1048" x1="149.107" y1="19.3561" x2="158.231" y2="75.569" gradientUnits="userSpaceOnUse">
<stop stop-color="#F0EEEE"/>
<stop offset="1" stop-color="#DBBCB4"/>
</linearGradient>
<linearGradient id="paint9_linear_101_1048" x1="149.441" y1="-4.53076" x2="145.416" y2="40.1131" gradientUnits="userSpaceOnUse">
<stop stop-color="#F0EEEE"/>
<stop offset="1" stop-color="#DBBCB4"/>
</linearGradient>
<linearGradient id="paint10_linear_101_1048" x1="166.618" y1="17.3994" x2="189.735" y2="45.959" gradientUnits="userSpaceOnUse">
<stop stop-color="#F0EEEE"/>
<stop offset="1" stop-color="#DBBCB4"/>
</linearGradient>
<linearGradient id="paint11_linear_101_1048" x1="62.9962" y1="167.079" x2="62.9962" y2="140.855" gradientUnits="userSpaceOnUse">
<stop stop-color="#EBD8D1"/>
<stop offset="1" stop-color="#FAE7E0"/>
</linearGradient>
<linearGradient id="paint12_linear_101_1048" x1="69.082" y1="164.875" x2="69.082" y2="137.896" gradientUnits="userSpaceOnUse">
<stop stop-color="#BFB0AA"/>
<stop offset="1" stop-color="#FAE7E0"/>
</linearGradient>
<linearGradient id="paint13_linear_101_1048" x1="61.9586" y1="164.872" x2="61.9586" y2="137.893" gradientUnits="userSpaceOnUse">
<stop stop-color="#BFB0AA"/>
<stop offset="1" stop-color="#FAE7E0"/>
</linearGradient>
<linearGradient id="paint14_linear_101_1048" x1="22.4171" y1="146.372" x2="22.4171" y2="126.385" gradientUnits="userSpaceOnUse">
<stop stop-color="#EBD8D1"/>
<stop offset="1" stop-color="#FAE7E0"/>
</linearGradient>
<linearGradient id="paint15_linear_101_1048" x1="15.9519" y1="145.579" x2="15.9519" y2="114.826" gradientUnits="userSpaceOnUse">
<stop stop-color="#BFB0AA"/>
<stop offset="1" stop-color="#FAE7E0"/>
</linearGradient>
<linearGradient id="paint16_linear_101_1048" x1="23.0741" y1="145.577" x2="23.0741" y2="114.823" gradientUnits="userSpaceOnUse">
<stop stop-color="#BFB0AA"/>
<stop offset="1" stop-color="#FAE7E0"/>
</linearGradient>
<linearGradient id="paint17_linear_101_1048" x1="77.3204" y1="130.236" x2="77.3204" y2="115.577" gradientUnits="userSpaceOnUse">
<stop stop-color="#EBD8D1"/>
<stop offset="1" stop-color="#FAE7E0"/>
</linearGradient>
<linearGradient id="paint18_linear_101_1048" x1="83.9371" y1="134.837" x2="83.9371" y2="88.6933" gradientUnits="userSpaceOnUse">
<stop stop-color="#BFB0AA"/>
<stop offset="1" stop-color="#FAE7E0"/>
</linearGradient>
<linearGradient id="paint19_linear_101_1048" x1="76.8162" y1="134.829" x2="76.8162" y2="88.6832" gradientUnits="userSpaceOnUse">
<stop stop-color="#BFB0AA"/>
<stop offset="1" stop-color="#FAE7E0"/>
</linearGradient>
</defs>
</svg>
