<svg width="260" height="235" viewBox="0 0 260 235" fill="none" xmlns="http://www.w3.org/2000/svg">
<g clip-path="url(#clip0_3015_112)">
<path d="M231.749 230.501H37.0075C16.6091 230.501 -0.952375 207.219 2.41669 176.704C6.83825 136.685 35.0474 143.601 34.0848 90.9433C32.6938 14.742 84.1521 51.9339 102.749 33.5824C144.137 -7.28622 156.225 20.6401 175.779 39.1267C198.154 60.272 208.004 47.3603 227.22 53.7305C264.812 66.1617 238.231 132.37 250.421 158.116C263.699 186.155 256.582 230.501 231.749 230.501Z" fill="#DAE6FF"/>
<g opacity="0.8">
<path d="M-5.60938 141.943C-5.60938 141.943 -1.30548 160.713 23.6165 172.616L47.1015 157.28C47.1015 157.28 24.6681 144.713 21.2003 131.906L-5.60938 141.943Z" fill="#F3F8FF"/>
</g>
<path d="M56.3959 109.379L54.6641 118.264L62.9324 117.859L63.4068 112.958L56.3959 109.379Z" fill="#FEC7A4"/>
<path d="M69.2296 76.2663C69.6998 71.7886 69.5218 63.5647 70.0281 58.9436C70.1324 57.9922 69.0724 57.362 68.2823 57.9031L63.7336 61.0205L61.3744 48.3773C61.2742 47.8375 60.4827 47.8946 60.4605 48.4426L59.6022 69.4391C59.5772 70.0512 60.2991 70.3947 60.7582 69.9899L65.4738 65.8265L68.178 76.3428C68.3268 76.9215 69.167 76.8617 69.2296 76.2677V76.2663Z" fill="#F37E60"/>
<path d="M82.8775 73.3341C84.0432 71.4061 85.7139 67.6447 86.9269 65.6597C87.1773 65.2507 86.8309 64.7402 86.3579 64.8167L83.6343 65.2604L85.2576 59.0327C85.3272 58.767 84.9571 58.6238 84.8292 58.8686L79.9702 68.1942C79.8284 68.4668 80.0815 68.7756 80.3764 68.6894L83.3978 67.8075L82.3837 73.1449C82.3281 73.4384 82.7217 73.59 82.8761 73.3341H82.8775Z" fill="#F37E60"/>
<path d="M64.698 86.6492C62.272 84.0354 57.274 79.8553 54.7813 77.1456C54.268 76.5878 53.3387 76.891 53.2511 77.645L52.7392 81.9836L43.9687 76.8006C43.5945 76.5794 43.2161 77.0802 43.5319 77.3793L55.6089 88.8345C55.9609 89.1684 56.5423 88.9166 56.5395 88.4311L56.5131 83.4484L64.1959 87.3155C64.6187 87.5283 65.0208 86.9956 64.6994 86.6492H64.698Z" fill="#F37E60"/>
<path d="M180.377 201.619C180.377 201.619 97.1077 208.076 100.958 200.49C105.775 191.001 96.6653 180.318 96.6653 180.318C96.6653 180.318 74.2945 196.688 60.3326 191.592C43.6832 185.515 54.6196 115.953 54.6196 115.953L55.1051 115.992L63.0493 116.628L66.5353 116.906C66.5353 116.906 69.5441 161.187 71.3121 161.482C73.6533 161.873 84.4923 138.993 100.897 129.745C103.808 128.104 117.503 123.67 120.888 122.967C129.793 121.114 163.269 134.184 163.269 134.184C165.948 137.504 179.206 151.679 180.374 201.619H180.377Z" fill="#68CCEA"/>
<path d="M80.9603 118.685C80.9603 118.685 78.4216 117.995 78.149 119.424C77.4507 123.063 81.5793 123.333 83.4739 122.534L80.9617 118.685H80.9603Z" fill="#FBAE7C"/>
<path d="M75.1377 113.036L75.153 113.028C74.9944 112.861 74.8358 112.694 74.6828 112.518C67.907 104.798 68.9781 92.8825 77.2618 86.524C84.1628 81.2269 94.0573 81.7346 100.377 87.7147C102.722 89.9349 104.315 92.6015 105.191 95.4309C106.705 99.6652 107.969 103.315 108.77 106.569C110.096 111.95 113.208 116.721 117.505 120.218L120.885 122.968C116.487 134.61 109.133 133.827 109.133 133.827L103.779 128.031C103.081 127.275 101.924 127.188 101.107 127.817C101.102 127.821 101.097 127.826 101.092 127.828C90.2681 136.145 79.1856 117.649 75.1377 113.037V113.036Z" fill="#FEC7A4"/>
<path d="M94.828 101.67C94.885 101.508 94.9017 101.332 94.8669 101.151C94.7626 100.622 94.2493 100.28 93.7207 100.384C92.1293 100.7 89.2499 102.389 89.7437 106.525C89.8077 107.059 90.2932 107.441 90.8273 107.377C91.3629 107.313 91.7426 106.826 91.68 106.294C91.2725 102.898 93.985 102.321 94.1005 102.299C94.4482 102.229 94.7167 101.983 94.828 101.671V101.67Z" fill="#080435"/>
<path d="M84.6739 111.45C84.8311 111.385 84.9744 111.278 85.0843 111.132C85.4056 110.7 85.3166 110.088 84.884 109.767C83.582 108.797 80.3979 107.793 77.6617 110.931C77.3084 111.337 77.3501 111.954 77.7563 112.307C78.1625 112.66 78.7787 112.619 79.132 112.212C81.3786 109.633 83.6251 111.26 83.7197 111.33C84.0049 111.542 84.3679 111.575 84.6739 111.45Z" fill="#080435"/>
<path d="M103.567 88.8052C107.623 91.5358 107.9 101.094 107.9 101.094L105.029 102.749L93.2734 92.3107C93.2734 92.3107 101.314 87.2876 103.569 88.8052H103.567Z" fill="#080435"/>
<path d="M104.395 102.792C104.23 102.168 104.318 101.504 104.609 100.927C105.208 99.7388 106.485 97.8942 108.597 98.0319C111.696 98.2337 112.215 105.521 107.025 106.228C107.025 106.228 105.265 106.114 104.393 102.794L104.395 102.792Z" fill="#FBAE7C"/>
<path d="M92.7163 118.111C94.4328 117.645 94.9322 116.059 94.9378 116.041C94.9837 115.888 94.8974 115.728 94.7444 115.68C94.5928 115.635 94.43 115.721 94.3841 115.872C94.3605 115.946 93.7916 117.697 91.6466 117.66C91.2974 117.654 91.0707 117.599 90.9719 117.497C90.8342 117.354 90.8439 117.005 90.8565 116.521C90.8871 115.408 90.9385 113.547 89.2011 110.966C89.1107 110.834 88.9312 110.798 88.7991 110.888C88.6669 110.979 88.6322 111.158 88.7212 111.29C90.3557 113.716 90.3098 115.395 90.2792 116.505C90.2625 117.105 90.25 117.579 90.5532 117.898C90.7702 118.125 91.1041 118.23 91.6354 118.24C92.0402 118.247 92.3977 118.2 92.7149 118.113L92.7163 118.111Z" fill="#FBAE7C"/>
<path d="M72.7173 105.922C72.7173 105.922 71.9772 108.973 78.6598 117.543C78.6598 117.543 70.0256 109.03 70.1578 107.141C70.2899 105.251 72.7173 105.922 72.7173 105.922Z" fill="#080435"/>
<path d="M96.7745 117.594C97.3657 117.005 98.2017 116.564 99.0169 116.742C99.7235 116.896 100.256 117.476 100.644 118.087C100.789 118.315 100.924 118.56 100.948 118.828C100.982 119.244 100.738 119.643 100.416 119.91C100.095 120.177 99.7027 120.34 99.3243 120.518C97.7455 121.265 96.3488 122.342 94.9272 123.355C94.4626 123.686 93.9256 124.027 93.3664 123.919C92.7001 123.793 92.2967 123.032 92.3774 122.359C92.4581 121.685 92.906 121.111 93.4137 120.662C93.9868 120.154 94.6754 119.837 95.261 119.373C95.8717 118.891 96.225 118.142 96.7773 117.593L96.7745 117.594Z" fill="white"/>
<path d="M85.6663 114.277C86.0488 114.954 85.8109 115.813 85.1335 116.197C84.4561 116.579 83.5978 116.341 83.2138 115.664C82.8313 114.986 83.0692 114.128 83.7466 113.744C84.4241 113.362 85.2823 113.599 85.6663 114.277Z" fill="#080435"/>
<path d="M96.3361 107.479C96.8118 108.135 96.6644 109.052 96.0078 109.528C95.3512 110.003 94.4345 109.856 93.9588 109.199C93.483 108.543 93.6305 107.626 94.2871 107.15C94.9436 106.675 95.8603 106.822 96.3361 107.479Z" fill="#080435"/>
<path d="M83.8243 78.4365C83.0926 78.4463 82.1383 78.8413 82.2705 79.5605C82.3247 79.8498 82.5543 80.071 82.7824 80.2588C83.4445 80.8013 84.1971 81.2353 84.9997 81.5372C80.3787 81.291 76.1374 84.169 73.002 87.5715C69.8665 90.974 68.2432 93.674 63.8725 96.139C62.2742 97.0404 59.7036 98.4926 60.1737 102.126C60.3379 103.396 62.9405 104.948 64.2092 105.115C65.4778 105.282 66.7603 104.818 67.8384 104.126C66.8897 104.541 66.2623 105.595 66.3514 106.627C66.4404 107.66 65.8464 108.753 66.4501 109.595C68.2418 112.092 72.5596 110.294 73.3289 108.91C76.1262 103.875 79.7736 100.126 83.151 96.3838C83.0759 97.3228 82.9994 98.2603 82.9243 99.1993C82.8979 99.5192 82.8756 99.8559 83.0091 100.148C83.1941 100.549 83.6365 100.771 84.0705 100.853C85.1931 101.066 86.3449 100.529 87.1837 99.7543C88.0225 98.9795 88.6137 97.9821 89.2563 97.0376C90.1939 95.6605 91.2608 94.3696 92.4363 93.1886C92.6797 92.9438 92.937 92.6989 93.2584 92.5737C93.6924 92.4054 94.1765 92.4778 94.6397 92.5084C97.4079 92.692 100.001 91.2787 102.413 89.9085C103.163 89.4828 106.782 88.4576 104.815 86.6646C100.292 82.5387 96.8668 82.2369 92.9969 81.2381C93.9901 81.494 94.9958 80.7568 94.6188 79.637C94.1389 78.2126 92.1942 78.6674 91.1523 78.9735C90.1995 79.2531 89.5596 79.7719 88.5135 79.6607C86.8749 79.4854 85.5965 78.4143 83.8229 78.4379L83.8243 78.4365Z" fill="#080435"/>
<path d="M56.2578 109.8C56.2578 109.8 64.0866 98.117 65.237 97.2073C66.386 96.2975 71.4786 104.428 71.4786 104.428C71.4786 104.428 68.072 112.933 63.8682 114.811C59.6645 116.689 56.2578 109.8 56.2578 109.8Z" fill="#FEC7A4"/>
<path d="M70.6899 105.786C70.6899 105.786 76.7716 101.77 76.5309 100.923C76.2889 100.075 70.3672 103.184 70.3672 103.184L70.6899 105.786Z" fill="#FEC7A4"/>
<path d="M69.8544 103.121C69.8544 103.121 78.5178 96.9597 77.7653 95.6062C77.0127 94.2527 68.2422 101.585 68.2422 101.585L69.8544 103.121Z" fill="#FEC7A4"/>
<path d="M68.5371 100.743C68.5371 100.743 76.6302 93.8494 75.7622 92.5668C74.8942 91.2843 66.7969 99.3551 66.7969 99.3551L68.5371 100.743Z" fill="#FEC7A4"/>
<path d="M66.6464 98.9461C66.6464 98.9461 74.3195 92.5779 73.4334 91.319C72.5473 90.0601 64.9062 97.5578 64.9062 97.5578L66.6464 98.9461Z" fill="#FEC7A4"/>
<path d="M3 192.999C5.63463 215.93 20.2621 231.999 37.9446 231.999H231.883C247.826 231.999 256.436 213.588 257 192.999H3Z" fill="#6683C2"/>
<path d="M129.832 95.1522C129.832 95.1522 120.402 81.3781 128.149 69.6071C135.895 57.836 129.405 48.1015 136.524 40.6149C136.524 40.6149 134.639 47.4699 138.828 50.5595C143.015 53.6476 150.553 49.7109 146.993 38.3836C143.434 27.0563 150.309 12.1095 162.22 3.00098C162.22 3.00098 153.716 31.452 170.99 37.325C188.263 43.1994 179.156 57.8736 183.553 61.3707C187.95 64.8678 192.22 59.5762 190.127 52.9479C188.033 46.3196 194.726 37.7535 194.726 37.7535C194.726 37.7535 191.593 49.5996 199.13 55.1833C206.668 60.767 200.804 74.5856 196.407 80.2388C192.01 85.892 200.579 93.9045 194.724 102.461C188.869 111.017 129.833 95.1522 129.833 95.1522H129.832Z" fill="#F37E60"/>
<path d="M185.1 125.693C197.93 112.863 197.93 92.0608 185.1 79.2306C172.269 66.4004 151.468 66.4004 138.637 79.2306C125.807 92.0608 125.807 112.863 138.637 125.693C151.468 138.523 172.269 138.523 185.1 125.693Z" fill="#6683C2"/>
<path d="M179.714 120.701C189.92 110.494 189.92 93.9466 179.714 83.7402C169.508 73.5339 152.96 73.5339 142.754 83.7402C132.547 93.9466 132.547 110.494 142.754 120.701C152.96 130.907 169.508 130.907 179.714 120.701Z" fill="white"/>
<path d="M161.191 104.885C162.807 104.885 164.116 103.576 164.116 101.96C164.116 100.344 162.807 99.0347 161.191 99.0347C159.575 99.0347 158.266 100.344 158.266 101.96C158.266 103.576 159.575 104.885 161.191 104.885Z" fill="#6683C2"/>
<path d="M160.367 102.275L159.895 101.93C159.636 101.74 159.579 101.377 159.768 101.119C159.957 100.86 160.32 100.803 160.579 100.992L160.583 100.995L171.229 86.4403L170.023 86.8632C169.718 86.9689 169.388 86.8076 169.283 86.5071C169.177 86.2052 169.337 85.8728 169.639 85.7684L172.61 84.7279C172.851 84.6431 173.116 84.7252 173.268 84.9296C173.42 85.1341 173.42 85.4123 173.269 85.6182L161.177 102.149C160.989 102.408 160.625 102.464 160.366 102.276L160.367 102.275Z" fill="#6683C2"/>
<path d="M172.632 88.8651C172.496 88.7664 172.404 88.6078 172.394 88.427L172.227 85.3054C172.211 84.9841 172.456 84.7115 172.777 84.6948C173.095 84.6767 173.371 84.9229 173.388 85.2429L173.554 88.3644C173.571 88.6857 173.326 88.9583 173.005 88.975C172.866 88.982 172.736 88.9403 172.632 88.8651Z" fill="#6683C2"/>
<path d="M150.766 97.595C150.644 97.506 150.556 97.3683 150.534 97.2055L150.193 94.7461C150.161 94.5152 150.27 94.2871 150.47 94.1675C150.669 94.0478 150.922 94.0604 151.11 94.1967L162.102 102.251C162.361 102.44 162.416 102.803 162.228 103.062L161.883 103.535C161.694 103.794 161.331 103.851 161.072 103.661C160.814 103.472 160.757 103.109 160.946 102.85L160.949 102.846L151.531 95.9466L151.683 97.0469C151.727 97.3655 151.505 97.6576 151.188 97.7021C151.032 97.723 150.883 97.6812 150.766 97.5964V97.595Z" fill="#6683C2"/>
<path d="M150.418 95.1341C150.314 95.0576 150.233 94.9463 150.198 94.8113C150.118 94.5011 150.304 94.184 150.613 94.1019L153.079 93.4565C153.392 93.3758 153.708 93.5636 153.789 93.8724C153.869 94.1826 153.683 94.4997 153.374 94.5818L150.908 95.2273C150.731 95.2732 150.555 95.2328 150.418 95.1341Z" fill="#6683C2"/>
<path d="M154.248 29.3544C154.248 29.3544 151.176 34.6933 154.248 41.17C157.319 47.6467 149.363 60.0701 159.552 62.3027C169.741 64.5368 172.394 56.8596 169.462 49.8793C166.531 42.9004 154.387 38.559 154.247 29.353L154.248 29.3544Z" fill="#FFA892"/>
<path d="M137.502 55.6047C137.502 55.6047 139.596 59.5859 138.34 63.108C137.083 66.6302 132.058 72.0733 134.292 75.1448C136.526 78.2162 142.667 71.9927 143.364 66.9376C144.061 61.8825 137.502 55.6047 137.502 55.6047Z" fill="#FFA892"/>
<path d="M194.034 58.5635C194.034 58.5635 196.268 63.1205 192.359 65.783C188.451 68.4441 187.613 75.3812 190.685 75.9613C193.756 76.5414 201.154 68.3648 194.034 58.5649V58.5635Z" fill="#FFA892"/>
<path d="M18.1645 197.001H82.0175V199.016H49.257C45.956 199.016 43.2796 201.948 43.2796 205.564C43.2796 209.181 45.956 212.113 49.257 212.113H82.0175V214.001H18.1645C13.8793 214.001 10.4062 210.195 10.4062 205.501C10.4062 200.807 13.8793 197.001 18.1645 197.001Z" fill="#F39D87"/>
<path d="M40.3672 205.501C40.3672 200.807 43.8416 197.001 48.1255 197.001H82.0155V199.016H49.255C45.954 199.016 43.2776 201.948 43.2776 205.564C43.2776 209.181 45.954 212.113 49.255 212.113H82.0155V214.001H48.1255C43.8402 214.001 40.3672 210.195 40.3672 205.501Z" fill="#F37E60"/>
<path d="M49.2586 199.023H82.0192V199.069C79.0425 199.444 76.7313 202.212 76.7313 205.572C76.7313 208.932 79.0425 211.7 82.0192 212.075V212.12H49.2586C45.9576 212.12 43.2812 209.189 43.2812 205.572C43.2812 201.955 45.9576 199.023 49.2586 199.023Z" fill="white"/>
<path d="M43.2812 205.501C43.2812 201.885 45.9576 198.954 49.2586 198.954H82.0192V198.999C80.4808 199.192 79.12 200.027 78.164 201.251C71.6113 200.683 52.0689 200.02 50.0102 212.049H49.2586C45.9576 212.049 43.2812 209.118 43.2812 205.501Z" fill="#FFDAD0"/>
<path d="M193.404 190.615H242.77V192.173H217.443C214.89 192.173 212.821 194.439 212.821 197.236C212.821 200.032 214.89 202.298 217.443 202.298H242.77V203.758H193.404C190.091 203.758 187.406 200.816 187.406 197.187C187.406 193.557 190.091 190.615 193.404 190.615Z" fill="#FF9D84"/>
<path d="M210.57 197.187C210.57 193.557 213.256 190.615 216.568 190.615H242.769V192.173H217.442C214.89 192.173 212.82 194.439 212.82 197.236C212.82 200.032 214.89 202.298 217.442 202.298H242.769V203.758H216.568C213.255 203.758 210.57 200.816 210.57 197.187Z" fill="#F37E60"/>
<path d="M217.449 192.178H242.777V192.213C240.476 192.503 238.689 194.643 238.689 197.241C238.689 199.839 240.476 201.979 242.777 202.269V202.304H217.449C214.897 202.304 212.828 200.037 212.828 197.241C212.828 194.445 214.897 192.178 217.449 192.178Z" fill="white"/>
<path d="M212.828 197.186C212.828 194.391 214.897 192.125 217.449 192.125H242.777V192.16C241.588 192.309 240.536 192.954 239.797 193.901C234.731 193.461 219.622 192.949 218.03 202.249H217.449C214.897 202.249 212.828 199.983 212.828 197.186Z" fill="#FFE5DE"/>
<path d="M197.519 178.001H244.614V179.487H220.452C218.018 179.487 216.043 181.649 216.043 184.316C216.043 186.984 218.018 189.146 220.452 189.146H244.614V190.539H197.519C194.359 190.539 191.797 187.733 191.797 184.271C191.797 180.808 194.359 178.002 197.519 178.002V178.001Z" fill="#53AF94"/>
<path d="M213.891 184.269C213.891 180.807 216.453 178.001 219.613 178.001H244.609V179.487H220.447C218.013 179.487 216.038 181.649 216.038 184.316C216.038 186.984 218.013 189.146 220.447 189.146H244.609V190.539H219.613C216.453 190.539 213.891 187.733 213.891 184.271V184.269Z" fill="#7FCBB4"/>
<path d="M220.456 179.492H244.618V179.525C242.422 179.802 240.718 181.843 240.718 184.322C240.718 186.801 242.423 188.841 244.618 189.118V189.151H220.456C218.021 189.151 216.047 186.989 216.047 184.322C216.047 181.654 218.021 179.492 220.456 179.492Z" fill="white"/>
<path d="M216.048 184.269C216.048 181.603 218.022 179.44 220.457 179.44H244.619V179.473C243.484 179.615 242.481 180.231 241.776 181.134C236.943 180.714 222.529 180.226 221.01 189.099H220.456C218.021 189.099 216.047 186.937 216.047 184.269H216.048Z" fill="#D9F8EE"/>
<g opacity="0.5">
<path d="M265.602 110.552C265.602 110.552 261.168 129.891 235.488 142.156L211.289 126.354C211.289 126.354 234.404 113.405 237.978 100.209L265.602 110.552Z" fill="#F3F8FF"/>
</g>
<path d="M117.049 196.934L86.1875 219.012L131.412 224.288L149.523 200.928L117.049 196.934Z" fill="white"/>
<path d="M134.484 166.949L132.094 166.543L125.536 205.236L127.926 205.641L134.484 166.949Z" fill="#100259"/>
<path d="M126.035 209.526L125.531 205.242L127.922 205.646L126.035 209.526Z" fill="#100259"/>
<path d="M134.559 164.437L132.859 164.149L132.444 166.602L134.143 166.89L134.559 164.437Z" fill="#4C4BF4"/>
<path d="M133.773 171.147L131.383 170.742L131.295 171.26L133.685 171.665L133.773 171.147Z" fill="#4C4BF4"/>
<path d="M140.811 184.284C140.811 184.284 126.936 191.15 125.777 192.274C124.618 193.398 132.76 200.124 132.76 200.124C132.76 200.124 144.965 195.295 147.619 190.976C150.273 186.658 140.811 184.284 140.811 184.284Z" fill="#FFA089"/>
<path d="M134.356 199.456C134.356 199.456 129.099 205.517 128.209 205.132C127.318 204.746 131.563 198.73 131.563 198.73L134.356 199.456Z" fill="#FFA089"/>
<path d="M131.57 198.16C131.57 198.16 123.601 206.73 122.232 205.714C120.863 204.699 130.126 196.18 130.126 196.18L131.57 198.16Z" fill="#FFA089"/>
<path d="M129.169 196.378C129.169 196.378 120.482 204.219 119.206 203.088C117.932 201.957 127.903 194.28 127.903 194.28L129.169 196.379V196.378Z" fill="#FFA089"/>
<path d="M127.477 194.059C127.477 194.059 119.424 201.518 118.178 200.369C116.931 199.221 126.212 191.96 126.212 191.96L127.478 194.059H127.477Z" fill="#FFA089"/>
<path d="M140.812 184.284L146.651 180.414L150.269 187.955L145.434 191.002L140.812 184.284Z" fill="#FFA089"/>
<path d="M120.883 122.967C120.883 122.967 136.542 118.364 157.876 123.941C176.644 128.847 198.338 157.842 198.883 170.082C199.427 182.321 173.15 189.909 148.088 196.936L140.81 184.285C140.81 184.285 167.487 162.67 167.187 159.219C166.886 155.766 132.2 143.528 132.2 143.528L120.883 122.968V122.967Z" fill="#68CCEA"/>
<path d="M129.822 216.189L130.039 218.604L169.126 215.095L168.909 212.68L129.822 216.189Z" fill="#F37E60"/>
<path d="M173.153 213.528L169.139 215.105L168.922 212.69L173.153 213.528Z" fill="#33A4C7"/>
<path d="M127.377 216.761L127.531 218.478L130.01 218.255L129.856 216.539L127.377 216.761Z" fill="#33A4C7"/>
<path d="M134.064 215.808L134.281 218.223L134.805 218.176L134.588 215.761L134.064 215.808Z" fill="#33A4C7"/>
<path d="M140.902 184.415L140.727 184.154C140.795 184.109 147.564 179.567 154.222 174.872C158.133 172.115 161.239 169.846 163.456 168.13C167.27 165.175 167.524 164.557 167.511 164.439C167.136 163.19 157.458 154.337 153.761 151.032L153.969 150.799C154.515 151.285 167.333 162.759 167.812 164.352C167.963 164.858 166.589 166.534 154.505 175.058C147.81 179.781 140.97 184.371 140.902 184.417V184.415Z" fill="#449AB4"/>
<path d="M129.957 221.504C129.942 221.5 128.361 221.03 122.749 220.49C120.121 220.237 117.738 219.571 115.434 218.927C112.819 218.195 110.349 217.505 108.12 217.67C103.983 217.978 96.2185 215.822 96.1406 215.801L96.2255 215.499C96.3034 215.521 104.014 217.663 108.097 217.359C110.379 217.189 112.875 217.887 115.518 218.626C117.809 219.266 120.178 219.93 122.778 220.179C128.439 220.722 129.985 221.186 130.049 221.205L129.957 221.506V221.504Z" fill="#100259"/>
<path d="M114.899 215.804C114.837 215.791 108.778 214.531 106.863 214.685C104.905 214.84 99.8989 214.089 99.6875 214.057L99.7348 213.746C99.7863 213.755 104.918 214.527 106.839 214.372C108.8 214.217 114.714 215.445 114.964 215.496L114.9 215.804H114.899Z" fill="#100259"/>
<path d="M124.064 217.658C122.079 216.741 117.878 216.181 117.836 216.175L117.876 215.864C118.05 215.887 122.168 216.437 124.194 217.373L124.062 217.658H124.064Z" fill="#100259"/>
<path d="M126.814 214.931C126.768 214.926 122.149 214.431 117.804 213.03C113.633 211.685 106.723 211.312 106.07 211.312V210.998C106.134 210.998 113.348 211.263 117.901 212.731C122.215 214.122 126.801 214.614 126.847 214.618L126.814 214.93V214.931Z" fill="#100259"/>
<path d="M134.414 212.8C134.339 212.786 133.973 212.773 133.508 212.754C131.565 212.679 127.015 212.504 124.079 211.656C120.359 210.58 116.766 209.682 116.458 209.682H116.456L116.438 209.369C116.438 209.369 116.444 209.369 116.449 209.369C116.865 209.369 120.791 210.379 124.166 211.354C127.065 212.192 131.589 212.366 133.521 212.44C134.112 212.462 134.378 212.473 134.472 212.492L134.414 212.8Z" fill="#100259"/>
<path d="M127.848 222.453C127.32 221.649 114.903 202.743 114.688 202.366L115.183 202.082C115.375 202.412 123.863 215.347 128.325 222.14L127.848 222.453Z" fill="#FB4848"/>
<path d="M98.7795 212.546L98.7684 211.976L98.774 212.261L98.7656 211.976C99.2414 211.957 137.828 209.269 138.217 209.241L138.257 209.81C136.659 209.921 99.0967 212.539 98.7795 212.546Z" fill="#FB4848"/>
<path d="M169.797 142.049C169.797 142.049 174.549 162.769 202.061 175.908L227.987 158.978C227.987 158.978 203.222 145.105 199.393 130.967L169.797 142.048V142.049Z" fill="#F3F8FF"/>
<path d="M174.353 145.229L174.227 144.942C174.263 144.927 177.824 143.361 180.319 142.737C181.976 142.323 183.611 141.506 185.34 140.641C186.183 140.22 187.055 139.783 187.93 139.399C190.518 138.26 195.315 136.382 195.364 136.362L195.478 136.654C195.429 136.674 190.638 138.549 188.056 139.686C187.188 140.068 186.32 140.502 185.48 140.922C183.734 141.794 182.086 142.619 180.396 143.042C177.927 143.66 174.389 145.215 174.353 145.23V145.229Z" fill="#100259"/>
<path d="M175.056 146.335L174.977 146.032C175.028 146.018 180.098 144.688 182.804 143.606C184.155 143.066 185.839 142.291 187.325 141.607C189.078 140.8 190.085 140.342 190.371 140.301L190.416 140.611C190.16 140.647 188.847 141.252 187.456 141.891C185.966 142.576 184.277 143.352 182.919 143.896C180.196 144.986 175.106 146.321 175.056 146.335Z" fill="#100259"/>
<path d="M176.417 148.288L176.289 148.001C176.327 147.985 180.017 146.34 182.664 145.561C185.292 144.788 187.18 144.006 187.199 143.998L187.32 144.287C187.301 144.295 185.399 145.084 182.753 145.862C180.127 146.634 176.455 148.27 176.418 148.286L176.417 148.288Z" fill="#100259"/>
<path d="M194.731 142.622L192.68 139.291L197.024 137.285L199.592 140.11L194.73 142.622H194.731ZM193.132 139.427L194.846 142.211L199.085 140.02L196.946 137.667L193.132 139.429V139.427Z" fill="#100259"/>
<path d="M202.286 150.173L200.234 146.841L204.579 144.835L207.146 147.661L202.285 150.173H202.286ZM200.686 146.978L202.4 149.761L206.64 147.57L204.501 145.218L200.686 146.979V146.978Z" fill="#100259"/>
<path d="M190.147 162.888L189.984 162.62C190.018 162.599 193.347 160.585 195.739 159.642C197.328 159.016 198.841 157.993 200.444 156.912C201.225 156.384 202.034 155.838 202.852 155.343C205.271 153.877 209.782 151.393 209.828 151.368L209.979 151.643C209.933 151.668 205.428 154.151 203.014 155.613C202.203 156.104 201.398 156.648 200.619 157.174C199.003 158.266 197.475 159.297 195.853 159.935C193.486 160.869 190.179 162.869 190.147 162.89V162.888Z" fill="#100259"/>
<path d="M190.985 163.894L190.867 163.603C190.916 163.584 195.771 161.606 198.313 160.181C199.582 159.471 201.151 158.483 202.537 157.612C204.171 156.584 205.109 155.999 205.388 155.921L205.473 156.223C205.224 156.292 204 157.061 202.705 157.876C201.317 158.75 199.743 159.739 198.468 160.454C195.908 161.888 191.036 163.873 190.987 163.893L190.985 163.894Z" fill="#100259"/>
<path d="M192.586 165.654L192.422 165.387C192.457 165.366 195.902 163.256 198.426 162.14C200.932 161.031 202.7 160.01 202.718 160L202.876 160.272C202.858 160.281 201.074 161.312 198.552 162.426C196.048 163.534 192.619 165.633 192.586 165.654Z" fill="#100259"/>
<path d="M210.007 157.655L207.539 154.618L211.587 152.066L214.501 154.534L210.008 157.655H210.007ZM208.006 154.695L210.068 157.232L213.987 154.51L211.561 152.455L208.006 154.696V154.695Z" fill="#100259"/>
<path d="M179.832 154.018L179.711 153.728C179.754 153.71 184.101 151.91 187.213 151.055C190.301 150.206 194.751 148.028 194.795 148.006L194.935 148.288C194.89 148.31 190.414 150.501 187.296 151.358C184.204 152.208 179.875 154.001 179.832 154.019V154.018Z" fill="#100259"/>
<path d="M181.904 156.193L181.711 155.946C181.735 155.928 184.087 154.107 187.221 153.286C190.312 152.478 194.066 150.88 194.104 150.864L194.228 151.154C194.19 151.17 190.415 152.776 187.302 153.591C184.23 154.395 181.928 156.175 181.906 156.193H181.904Z" fill="#100259"/>
<path d="M184.079 158.025L184 157.722C184.015 157.718 185.519 157.314 188.604 155.926C191.709 154.528 194.778 153.305 194.808 153.293L194.925 153.585C194.895 153.597 191.833 154.819 188.734 156.213C185.619 157.615 184.142 158.01 184.081 158.025H184.079Z" fill="#100259"/>
<path d="M244.268 203.428H201.945V204.763H223.659C225.847 204.763 227.621 206.706 227.621 209.103C227.621 211.5 225.847 213.443 223.659 213.443H201.945V214.694H244.268C247.108 214.694 249.41 212.173 249.41 209.06C249.41 205.949 247.108 203.427 244.268 203.427V203.428Z" fill="#6AB59F"/>
<path d="M229.551 209.062C229.551 205.95 227.248 203.428 224.408 203.428H201.945V204.763H223.659C225.847 204.763 227.621 206.706 227.621 209.103C227.621 211.5 225.847 213.443 223.659 213.443H201.945V214.695H224.408C227.248 214.695 229.551 212.173 229.551 209.061V209.062Z" fill="#7FCBB4"/>
<path d="M223.659 204.767H201.945V204.797C203.917 205.045 205.45 206.88 205.45 209.107C205.45 211.335 203.919 213.169 201.945 213.418V213.447H223.659C225.847 213.447 227.621 211.505 227.621 209.107C227.621 206.71 225.847 204.767 223.659 204.767Z" fill="white"/>
<path d="M227.621 209.062C227.621 206.664 225.847 204.722 223.659 204.722H201.945V204.751C202.966 204.88 203.866 205.432 204.501 206.244C208.844 205.866 221.796 205.428 223.161 213.4H223.659C225.847 213.4 227.621 211.458 227.621 209.061V209.062Z" fill="#D9F8EE"/>
<path d="M179.376 186.858L164.984 191.869L165.088 192.166L179.479 187.155L179.376 186.858Z" fill="#449AB4"/>
</g>
<defs>
<clipPath id="clip0_3015_112">
<rect width="260" height="235" fill="white"/>
</clipPath>
</defs>
</svg>
