<svg width="521" height="531" viewBox="0 0 521 531" fill="none" xmlns="http://www.w3.org/2000/svg">
<path d="M10.0493 149.12V443.717L257.959 531V221.857L10.0493 149.12Z" fill="#FD6148"/>
<path d="M257.982 221.852L511.589 152.754V443.712L257.982 530.995V221.852Z" fill="#CD3D36"/>
<path d="M0 147.049L257.961 221.856V126.941L0 57.1421V147.049Z" fill="#FD6148"/>
<path d="M257.982 126.938C260.794 126.122 521 61.7817 521 61.7817V152.766L257.982 221.864V126.938Z" fill="#CD3D36"/>
<path d="M0 57.1382L257.961 4.07031L520.979 61.781L257.961 126.937L0 57.1382Z" fill="#F89078"/>
<path d="M511.589 155.238L257.982 221.869V242.813C257.982 242.813 414.288 200.851 457.84 197.787C501.401 194.723 511.589 200.736 511.589 200.736V155.238Z" fill="#9B211E"/>
<path d="M10.0493 149.12L257.959 221.857V242.812L10.0493 155.237V149.12Z" fill="#CD3D36"/>
<path d="M128.979 92.0306L408.196 37.0281L354.762 25.3062L85.9836 80.3922L128.979 92.0306Z" fill="#62CEF9"/>
<path d="M374.78 97.9934L134.015 29.5751L178.028 20.5195L420.765 85.2781L374.78 97.9934Z" fill="#62CEF9"/>
<path d="M97.6529 256.802C105.035 256.802 111.019 243.183 111.019 226.383C111.019 209.584 105.035 195.965 97.6529 195.965C90.2708 195.965 84.2864 209.584 84.2864 226.383C84.2864 243.183 90.2708 256.802 97.6529 256.802Z" fill="#FFB39F"/>
<path d="M102.282 386.678C109.664 386.678 115.648 373.059 115.648 356.259C115.648 339.459 109.664 325.84 102.282 325.84C94.8994 325.84 88.915 339.459 88.915 356.259C88.915 373.059 94.8994 386.678 102.282 386.678Z" fill="#FFB39F"/>
<path d="M405.109 259.854C414.438 259.854 422 246.235 422 229.436C422 212.636 414.438 199.017 405.109 199.017C395.779 199.017 388.217 212.636 388.217 229.436C388.217 246.235 395.779 259.854 405.109 259.854Z" fill="#DD998C"/>
<path d="M418.527 468.684C427.856 468.684 435.418 455.066 435.418 438.266C435.418 421.466 427.856 407.847 418.527 407.847C409.197 407.847 401.635 421.466 401.635 438.266C401.635 455.066 409.197 468.684 418.527 468.684Z" fill="#DD998C"/>
<path d="M85.9906 80.3916L80.4824 468.493L141.565 490.003L128.986 92.0299L85.9906 80.3916Z" fill="#5BBDEF"/>
<path d="M374.799 97.9927L377.065 490.005L435.452 469.918L420.784 85.2773L374.799 97.9927Z" fill="#4DA6C1"/>
<path d="M192.178 101.718C197.822 97.0332 203.551 92.2858 210.203 89.1697C209.93 96.2176 210.297 103.297 211.315 110.282C219.309 95.7052 234.942 87.2352 246.745 75.5133C248.445 73.8297 250.155 71.8639 250.292 69.4797C250.417 67.1374 248.896 64.9415 246.913 63.6867C244.93 62.4319 242.538 61.9718 240.199 61.7417C230.934 60.8215 220.694 63.1325 213.056 68.5804C210.328 70.5254 208.681 73.3905 206.468 75.8583C203.32 79.3718 200.456 83.0107 198.106 87.1202C195.483 91.7003 193.468 96.6359 192.178 101.749V101.718Z" fill="#62CEF9"/>
<path d="M266.996 90.1859C264.551 97.9971 260.039 104.993 255.434 111.769C259.169 110.723 262.725 109.175 266.282 107.628C272.273 105.024 278.264 102.431 284.254 99.827C284.716 105.264 284.223 110.775 282.828 116.056C292.816 107.67 300.884 97.035 306.256 85.1771C307.168 83.1694 308.018 81.0572 308.06 78.8508C308.102 76.7804 307.42 74.7622 306.497 72.9114C303.769 67.4216 298.838 63.1448 293.183 60.7502C287.528 58.3556 281.18 57.7596 275.085 58.5543C272.504 58.8889 269.587 59.6313 267.667 61.5135C264.981 64.1277 265.967 66.1877 267.09 69.2097C269.576 75.9229 269.115 83.4518 266.996 90.1964V90.1859Z" fill="#62CEF9"/>
<path d="M162.167 82.4114C165.734 82.997 175.261 83.1329 178.755 82.2232C200.609 76.5557 216.105 74.8617 239.649 70.2398C243.279 69.5287 247.014 69.4451 250.571 68.4412C252.092 68.0125 253.844 67.1551 253.96 65.5866C254.023 64.8023 253.624 64.0599 253.131 63.4429C251.442 61.3516 248.672 60.5046 246.038 59.8876C230.815 56.3323 214.962 57.0434 199.339 56.416C191.009 56.0814 182.616 55.3599 174.38 56.646C166.616 57.8486 158.453 61.1424 153.365 67.3747C148.759 73.0108 156.145 81.418 162.157 82.4114H162.167Z" fill="#4B9EBF"/>
<path d="M258.34 46.4622C253.461 38.9334 245.656 33.8514 237.902 29.3027C225.123 21.7948 211.862 15.1234 198.212 9.33038C190.301 5.97377 181.897 2.85766 173.325 3.61055C167.335 4.13338 160.987 7.1972 159.057 12.8648C156.906 19.2015 161.008 25.9147 165.635 30.7562C180.145 45.9289 201.139 53.4891 221.986 56.2288C230.988 57.4104 240.105 57.7869 249.181 57.3581C251.846 57.2327 256.934 57.7973 259.106 55.8419C261.834 53.3846 259.935 48.93 258.33 46.4622H258.34Z" fill="#457FDD"/>
<path d="M220.341 42.1075C194.017 35.1852 154.421 20.849 162.426 7.96631C149.102 18.1093 140.268 35.3525 141.695 51.9996C142.293 58.9115 144.664 66.158 150.214 70.3407C152.69 72.202 155.628 73.3313 158.618 74.1574C168.889 76.9807 179.78 76.3219 190.376 75.1926C213.605 72.7248 236.55 68.1657 259.454 63.617C259.916 60.8878 264.028 52.1564 260.933 52.1669C256.81 52.1669 252.844 51.1526 249.969 50.4415C240.915 48.1933 229.343 44.4917 220.33 42.1284L220.341 42.1075Z" fill="#5BBDEF"/>
<path d="M263.319 66.3022C264.568 67.1074 297.911 76.142 297.911 76.142C297.911 76.142 311.655 79.4672 329.69 77.951C347.715 76.4348 370.723 71.9279 370.723 71.9279C370.723 71.9279 354.073 66.2185 353.307 65.5075C352.541 64.7964 263.687 57.1421 263.687 57.1421L263.33 66.3126L263.319 66.3022Z" fill="#4B9EBF"/>
<path d="M257.184 49.2425C261.475 41.3685 268.861 35.6905 276.237 30.5667C288.397 22.1073 301.113 14.432 314.27 7.61423C321.908 3.65114 330.039 -0.0923729 338.642 0.00173764C344.654 0.064478 351.222 2.62638 353.582 8.13707C356.216 14.2856 352.638 21.2916 348.399 26.4782C335.096 42.7175 314.752 51.8566 294.178 56.1857C285.291 58.0575 276.237 59.1345 267.151 59.3959C264.486 59.4796 259.45 60.4312 257.132 58.6431C254.225 56.4053 255.778 51.8148 257.184 49.232V49.2425Z" fill="#457FDD"/>
<path d="M295.587 41.9853C321.303 33.0657 358.454 15.4565 349.483 3.22217C363.553 12.3091 374.905 29.1026 374.769 45.8124C374.706 52.7557 372.901 60.1591 367.687 64.7496C365.368 66.7886 362.514 68.148 359.608 69.1937C349.588 72.8012 338.677 72.9686 328.017 72.6653C304.673 71.9856 281.444 69.2041 258.247 66.4122C257.576 63.7353 252.802 55.3385 255.886 55.1085C259.999 54.8052 263.871 53.4772 266.683 52.5466C275.538 49.6082 286.785 45.0386 295.587 41.9853Z" fill="#5BBDEF"/>
<path d="M258.248 40.5964C256.128 40.1572 253.936 40.6591 251.869 41.3179C249.141 42.2067 246.35 43.5452 244.892 46.013C243.727 47.9789 243.601 50.3735 243.58 52.653C243.559 54.6712 243.601 56.6893 243.717 58.7075C243.8 60.276 243.937 61.9072 244.661 63.298C246.308 66.4664 250.337 67.4493 253.904 67.8257C258.772 68.3486 263.693 68.3799 268.572 67.9198C270.649 67.7212 272.852 67.3761 274.405 65.9958C276.283 64.3332 276.745 61.6144 276.839 59.1153C277.059 53.5523 276.052 47.937 273.922 42.7923C273.555 41.914 273.146 41.0251 272.516 40.3141C271.194 38.8188 269.107 38.2855 267.124 38.0763C262.381 37.564 257.482 38.5051 253.264 40.7323L258.227 40.5964H258.248Z" fill="#5BBDEF"/>
<path d="M274.427 43.0416C274.06 42.1632 273.651 41.2744 273.021 40.5634C272.035 39.4549 270.619 38.8694 269.15 38.5557C270.787 43.188 271.542 48.1236 271.353 53.0278C271.259 55.5269 270.797 58.2561 268.919 59.9083C267.356 61.2886 265.153 61.6337 263.086 61.8323C258.207 62.2924 253.286 62.2611 248.418 61.7382C247.096 61.6023 245.701 61.3723 244.4 60.9854C244.526 61.8846 244.746 62.7525 245.166 63.5577C246.823 66.7261 250.842 67.709 254.409 68.0855C259.277 68.6083 264.198 68.6397 269.077 68.1796C271.154 67.9809 273.357 67.6358 274.91 66.266C276.788 64.6034 277.25 61.8846 277.344 59.3855C277.564 53.8225 276.557 48.2072 274.427 43.0625V43.0416Z" fill="#4B9EBF"/>
<path opacity="0.36" d="M247.617 48.9811C247.134 51.2711 247.575 54.063 249.6 55.2447C250.334 55.6734 251.289 55.8198 252.013 55.3701C253.23 54.6068 253.01 52.8292 253.293 51.4175C253.639 49.713 255.003 48.2596 256.682 47.7995C257.909 47.4648 259.231 47.6322 260.48 47.3707C262.494 46.9525 263.638 45.1121 262.159 43.4704C261.162 42.362 257.71 42.1633 256.241 42.1528C252.055 42.1528 248.488 44.8298 247.617 48.9602V48.9811Z" fill="white"/>
<path opacity="0.36" d="M149.395 32.4204C146.31 40.2734 143.163 48.712 144.988 56.9519C145.24 58.0917 146.321 59.4929 147.254 58.8028C147.496 58.625 147.632 58.3427 147.747 58.0603C148.44 56.3245 148.335 54.4005 148.597 52.5496C148.86 50.6988 149.657 48.712 151.388 47.9905C153.465 47.1121 155.742 48.4401 157.809 49.3499C159.802 50.2282 161.964 50.7302 164.146 50.8347C166.181 50.9288 168.699 50.2805 169.14 48.3042C169.476 46.8089 168.374 45.3554 167.126 44.4457C165.877 43.5359 164.408 42.8981 163.412 41.7269C162.415 40.5558 162.142 38.5376 163.38 37.6174C164.293 36.9377 165.583 37.1573 166.685 37.4606C173.788 39.3428 180.482 42.7726 187.763 43.8496C188.823 44.0065 189.924 44.1006 190.932 43.7451C191.939 43.3791 192.799 42.438 192.736 41.3714C192.673 40.3257 191.781 39.5415 190.911 38.9559C188.004 37.0318 184.584 36.0698 181.3 34.8987C175.257 32.7446 169.507 29.7853 164.261 26.115C162.174 24.6511 159.981 22.7689 159.781 20.2383C159.656 18.6698 160.317 15.2191 157.62 15.5851C156.151 15.7838 155.637 17.8751 155.155 18.9312C153.14 23.3754 151.189 27.8613 149.405 32.41L149.395 32.4204Z" fill="white"/>
<path opacity="0.36" d="M347.912 19.3628C349.098 18.2231 350.273 17.031 351.762 16.3408C353.252 15.6402 355.13 15.5357 356.442 16.5291C357.774 17.5329 358.162 19.3315 358.939 20.8059C359.915 22.6358 361.541 24.0056 362.968 25.5114C366.357 29.0876 368.686 33.6467 369.609 38.4777C369.745 39.2202 369.829 40.0776 369.305 40.6214C368.539 41.4265 367.133 40.8723 366.419 40.0253C364.919 38.2477 364.3 35.1316 361.971 35.0061C360.429 34.9329 359.296 36.3341 358.141 37.3484C356.977 38.3627 354.858 38.8855 354.134 37.5366C353.903 37.0974 353.892 36.5746 353.987 36.0831C354.26 34.5878 355.298 33.3435 355.739 31.89C356.18 30.4365 355.613 28.4079 354.092 28.272C353.462 28.2092 352.864 28.5125 352.308 28.8157C349.863 30.1542 347.618 31.8482 345.31 33.4062C333.801 41.1547 320.172 45.7556 306.302 46.5817C304.896 46.6653 302.986 46.2784 302.944 44.8668C302.913 43.6747 304.371 43.0369 305.567 42.9218C313.111 42.169 321.116 37.9235 327.652 34.316C335.018 30.2378 341.858 25.2081 347.923 19.3628H347.912Z" fill="white"/>
</svg>
