<svg width="226" height="136" viewBox="0 0 226 136" fill="none" xmlns="http://www.w3.org/2000/svg">
<g clip-path="url(#clip0_128_19309)">
<path d="M139.191 54.2017C139.191 15.7011 108.075 -15.5065 69.6921 -15.5065C31.3123 -15.5065 0.195322 15.7011 0.195319 54.2017C0.195315 92.7015 31.3123 123.912 69.692 123.912C108.076 123.911 139.191 92.7008 139.191 54.2017Z" fill="#7FCBB4"/>
<path d="M233.999 90.4676C233.999 65.3214 213.496 44.9355 188.2 44.9355C162.909 44.9354 142.406 65.3206 142.406 90.4676C142.406 115.615 162.909 136 188.2 136C213.496 136 233.999 115.615 233.999 90.4676Z" fill="#68CCEA"/>
<path d="M163.07 -10.2656C176.012 -10.2656 186.503 0.406685 186.503 13.5716C186.503 26.7364 176.012 37.4087 163.07 37.4087C150.128 37.4087 139.637 26.7364 139.637 13.5716C139.637 0.406681 150.128 -10.2656 163.07 -10.2656Z" fill="#F2C45B"/>
</g>
<defs>
<clipPath id="clip0_128_19309">
<rect width="226" height="136" fill="white" transform="translate(226 136) rotate(-180)"/>
</clipPath>
</defs>
</svg>
