<svg width="266" height="256" viewBox="0 0 266 256" fill="none" xmlns="http://www.w3.org/2000/svg">
<path d="M90.1576 0H17.5942C7.87719 0 0 7.87719 0 17.5942V18.0155C0 27.7325 7.87719 35.6097 17.5942 35.6097H90.1576C99.8746 35.6097 107.752 27.7325 107.752 18.0155V17.5942C107.752 7.87719 99.8746 0 90.1576 0Z" fill="#7997D8"/>
<path d="M12.8067 30.4983C12.8067 30.4983 8.48294 39.864 10.3154 42.3531C12.1478 44.8422 24.5692 32.1856 24.5692 32.1856L12.8067 30.4983Z" fill="#7997D8"/>
<path d="M89.231 14.7607H18.5353C18.0766 14.7607 17.707 14.3911 17.707 13.9325C17.707 13.4738 18.0766 13.1042 18.5353 13.1042H89.231C89.6897 13.1042 90.0593 13.4738 90.0593 13.9325C90.0593 14.3911 89.6897 14.7607 89.231 14.7607Z" fill="#EFEFEF"/>
<path d="M48.7939 22.5061H18.5353C18.0766 22.5061 17.707 22.1365 17.707 21.6778C17.707 21.2192 18.0766 20.8496 18.5353 20.8496H48.7939C49.2525 20.8496 49.6221 21.2192 49.6221 21.6778C49.6221 22.1365 49.2525 22.5061 48.7939 22.5061Z" fill="#EFEFEF"/>
<path d="M72.3457 22.5061H54.3863C53.9277 22.5061 53.5581 22.1365 53.5581 21.6778C53.5581 21.2192 53.9277 20.8496 54.3863 20.8496H72.3457C72.8044 20.8496 73.174 21.2192 73.174 21.6778C73.174 22.1365 72.8044 22.5061 72.3457 22.5061Z" fill="#EFEFEF"/>
<path d="M42.8404 52.895H180.742C199.208 52.895 214.178 67.865 214.178 86.3315V87.1321C214.178 105.599 199.208 120.569 180.742 120.569H42.8404C24.374 120.569 9.40395 105.599 9.40395 87.1321V86.3315C9.40395 67.865 24.374 52.895 42.8404 52.895Z" fill="#B1D3FC"/>
<path d="M189.832 110.854C189.832 110.854 198.049 128.653 194.566 133.384C191.084 138.114 167.478 114.061 167.478 114.061L189.832 110.854Z" fill="#B1D3FC"/>
<path d="M44.6154 80.9466H178.968C179.839 80.9466 180.542 80.2442 180.542 79.3726C180.542 78.5009 179.839 77.7986 178.968 77.7986H44.6154C43.7438 77.7986 43.0414 78.5009 43.0414 79.3726C43.0414 80.2442 43.7438 80.9466 44.6154 80.9466Z" fill="#EFEFEF"/>
<path d="M121.463 95.6665H178.968C179.839 95.6665 180.542 94.9642 180.542 94.0926C180.542 93.2209 179.839 92.5186 178.968 92.5186H121.463C120.592 92.5186 119.889 93.2209 119.889 94.0926C119.889 94.9642 120.592 95.6665 121.463 95.6665Z" fill="#EFEFEF"/>
<path d="M76.7074 95.6665H110.838C111.71 95.6665 112.412 94.9642 112.412 94.0926C112.412 93.2209 111.71 92.5186 110.838 92.5186H76.7074C75.8358 92.5186 75.1334 93.2209 75.1334 94.0926C75.1334 94.9642 75.8358 95.6665 76.7074 95.6665Z" fill="#EFEFEF"/>
<path d="M211.496 236.52C210.783 236.52 210.075 236.337 209.421 235.972C207.986 235.172 207.094 233.621 207.094 231.921V194.284C207.094 192.584 207.984 191.031 209.421 190.231C210.789 189.47 212.399 189.508 213.733 190.323L244.283 209.143C245.641 209.982 246.451 211.46 246.451 213.103C246.451 214.746 245.641 216.224 244.283 217.064L213.733 235.883C213.039 236.308 212.269 236.524 211.498 236.524L211.496 236.52ZM211.5 192.639C211.225 192.639 211.005 192.735 210.86 192.812C210.354 193.097 210.05 193.645 210.05 194.282V231.919C210.05 232.556 210.352 233.104 210.86 233.389C211.109 233.525 211.601 233.721 212.18 233.356L242.73 214.536C243.208 214.247 243.491 213.707 243.491 213.101C243.491 212.496 243.206 211.955 242.73 211.667L212.18 192.847C211.935 192.694 211.703 192.641 211.5 192.641V192.639Z" fill="#F37E60"/>
<path d="M222.5 256C198.511 256 179 236.487 179 212.5C179 188.513 198.513 169 222.5 169C246.487 169 266 188.513 266 212.5C266 236.487 246.487 256 222.5 256ZM222.5 171.956C200.145 171.956 181.958 190.143 181.958 212.498C181.958 234.853 200.145 253.04 222.5 253.04C244.855 253.04 263.042 234.853 263.042 212.498C263.042 190.143 244.855 171.956 222.5 171.956Z" fill="#F37E60"/>
<path d="M134.327 186H24.6729C23.1927 186 22 184.661 22 183C22 181.339 23.1927 180 24.6729 180H134.327C135.807 180 137 181.339 137 183C137 184.661 135.807 186 134.327 186Z" fill="#B1D3FC"/>
<path d="M134.327 214H24.6729C23.1927 214 22 212.661 22 211C22 209.339 23.1927 208 24.6729 208H134.327C135.807 208 137 209.339 137 211C137 212.661 135.807 214 134.327 214Z" fill="#B1D3FC"/>
<circle cx="73.5" cy="238.5" r="6.5" fill="#B1D3FC"/>
<path d="M134.353 241H91.6475C90.1813 241 89 239.884 89 238.5C89 237.116 90.1813 236 91.6475 236H134.353C135.819 236 137 237.116 137 238.5C137 239.884 135.819 241 134.353 241Z" fill="#B1D3FC"/>
</svg>
