<svg width="80" height="80" viewBox="0 0 80 80" fill="none" xmlns="http://www.w3.org/2000/svg">
<circle cx="40" cy="40" r="40" fill="#F37E60"/>
<g clip-path="url(#clip0_4_8793)">
<path d="M38.8347 41.4455C34.6658 41.7715 31.0168 38.7128 30.6811 34.611C30.3454 30.5093 33.4501 26.9154 37.6179 26.5807C41.7922 26.2457 45.4512 29.306 45.7873 33.4139C46.1235 37.5218 43.0095 41.119 38.8347 41.4455ZM37.9374 29.0211C35.1259 29.1799 32.9838 31.5614 33.1648 34.3268C33.3459 37.0922 35.7809 39.1835 38.5898 38.986C41.3713 38.7906 43.4712 36.4231 43.2919 33.6848C43.1127 30.9467 40.7214 28.8638 37.9374 29.0211Z" fill="white"/>
<path d="M29.158 51.2926C26.5487 49.3344 23.7928 47.5661 21.1987 45.5893C20.0325 44.7005 19.5411 43.6253 18.8491 42.383L16.443 38.0063C15.4762 36.2552 14.3295 34.5459 13.4736 32.7412C12.3071 30.2817 14.0928 27.6732 16.6943 27.3729C19.5459 27.2074 20.4251 29.7647 21.5911 31.7774L24.3288 36.4579C25.5237 38.5074 25.2413 38.087 27.175 39.3243C30.8174 41.6547 30.6956 42.5972 34.7767 42.6134L39.4538 42.6124C43.2321 42.61 46.5846 42.3341 49.0766 45.6327C49.6411 46.3798 49.9953 47.3798 50.4003 48.2239L52.6018 52.7403C54.1766 55.9325 55.8621 59.0722 57.4318 62.2673C58.1365 63.7018 59.0302 65.0022 58.3807 66.6681C57.3447 69.3254 53.562 69.7974 51.7755 67.5811C51.2433 66.9209 50.9428 66.102 50.5677 65.3508C49.5449 63.303 48.347 61.3116 47.4129 59.2277C47.3012 64.1594 47.5674 69.095 47.8298 74.0178L48.4359 85.5408C48.4997 86.6683 48.7987 88.2725 48.3479 89.3481C47.2756 91.9058 44.7927 92.9103 42.1885 91.8364C39.3136 90.4645 39.5919 88.067 39.3966 85.3396L38.5211 73.2717C38.4358 72.1378 38.3985 70.1219 38.0325 69.1235C38.2345 72.2124 37.6718 76.609 37.4742 79.754L37.1149 85.2432C37.0446 86.3899 37.0521 87.6155 36.8237 88.7416C35.8467 93.5591 28.5468 93.2352 28.0342 88.5303C27.8937 87.2403 28.0795 85.8622 28.1449 84.5678L28.6175 76.2205C28.7886 73.0762 29.056 69.92 29.1459 66.7738C29.2856 61.8824 29.3351 56.2021 29.158 51.2926ZM16.6943 29.8418C16.0498 30.1342 15.7076 30.4513 15.5757 31.1315C15.9847 32.6229 17.9176 35.5089 18.7146 36.9558L20.2827 39.8035C22.1604 43.2883 21.8524 43.0887 25.0941 45.3472L29.3192 48.2993C32.1712 50.2891 31.7606 49.9152 31.7515 53.135L31.7497 57.207C31.7501 64.4182 31.4399 70.8509 31.0366 78.0526L30.6455 84.8352C30.5843 85.8485 30.3896 86.9548 30.4621 87.9632C30.5948 89.8106 33.192 90.5543 34.1552 88.8371C34.7266 87.8186 34.6406 84.2153 34.7294 82.9248L35.5945 70.6501C35.6795 69.5343 35.3366 66.7755 36.6898 66.3201C37.3777 66.0883 39.3851 66.1086 39.994 66.4442C40.8219 66.9007 40.6797 68.4408 40.7373 69.2371L41.8047 83.6444C41.9219 85.4503 41.4723 90.6037 44.6919 89.7859C47.1819 88.8123 45.7925 84.2024 45.6568 81.8776L45.3152 75.1766C45.1143 71.4451 44.9828 68.0414 45.0185 64.3146L45.0205 56.1321C45.0212 55.2235 44.7273 52.1634 46.6761 52.9559C47.6581 53.3552 48.3658 55.708 48.8168 56.5964C49.3561 57.6586 53.4846 65.9195 54.0493 66.3577C54.6831 66.8494 55.7061 66.4935 56.0315 65.8141C56.4544 64.9308 54.5054 61.9886 54.077 61.1632C53.053 59.1899 52.0644 57.1908 51.0708 55.2021L48.3172 49.5619C46.0007 44.8561 45.5572 45.0691 39.827 45.071L34.2738 45.0757C31.0977 45.0779 31.593 45.0796 28.9631 43.4432L24.9489 40.9064C24.3181 40.5048 23.8257 40.3017 23.3848 39.6698C22.0269 37.7237 20.4277 34.8001 19.2551 32.7088C18.6839 31.6899 18.1608 29.7202 16.6943 29.8418Z" fill="white"/>
<path d="M48.4166 39.4457L48.4141 27.2178C48.4138 24.7905 48.7718 22.5619 51.8884 22.238C54.3153 22.2056 56.7473 22.2383 59.1749 22.237L61.3659 22.2364C64.0216 22.2368 66.0532 23.0411 66.0846 26.1749L66.0862 30.8403C66.0864 32.5867 66.405 34.3413 65.0386 35.6955C63.6611 37.0606 61.7537 36.787 59.9704 36.7828C58.9775 36.7822 52.8868 36.6869 52.4459 36.8579C51.7538 37.1264 49.1362 38.9522 48.4166 39.4457ZM56.3254 24.0941L53.4179 24.0921C51.0305 24.0902 50.3193 24.101 50.3195 26.8835L50.3233 35.9475C52.4961 34.9447 51.15 35.0013 53.86 35.0039L57.4859 35.0048L60.718 35.0089C62.544 35.0105 64.2204 35.1559 64.2204 32.8637L64.2182 27.9648C64.2153 24.4956 64.5426 24.0917 60.5101 24.0924L56.3254 24.0941Z" fill="white"/>
<path d="M56.3189 30.6553C56.4093 29.1875 57.3365 29.1329 57.9771 28.2275C58.2434 27.8509 58.1877 27.2163 57.7712 26.9606C56.9106 26.4324 56.2031 27.6571 55.3817 27.1327C53.9293 26.2053 55.8598 25.3597 56.8815 25.286C58.6289 25.177 60.386 26.4129 59.9078 28.2499C59.6437 29.2644 58.646 29.5001 58.0399 30.2229C57.8462 30.4537 57.9637 30.7825 57.8011 30.9996C57.6617 31.1854 56.395 31.4461 56.3189 30.6553Z" fill="white"/>
<path d="M57.4005 33.4202C56.92 33.5705 56.4063 33.3117 56.2492 32.8405C56.092 32.3692 56.35 31.8614 56.8275 31.7023C57.3113 31.5411 57.8359 31.7991 57.9951 32.2767C58.1544 32.7542 57.8873 33.2679 57.4005 33.4202Z" fill="white"/>
</g>
<defs>
<clipPath id="clip0_4_8793">
<rect width="55" height="40" fill="white" transform="translate(13 20)"/>
</clipPath>
</defs>
</svg>
