<svg width="280" height="166" viewBox="0 0 280 166" fill="none" xmlns="http://www.w3.org/2000/svg">
<g clip-path="url(#clip0_42_3350)">
<path d="M280 4.32992V162.1C280 164.496 277.985 166.434 275.501 166.434H4.49866C2.01537 166.434 0 164.496 0 162.1V4.32992C0 1.93773 2.01537 0 4.49866 0H275.501C277.985 0 280 1.93773 280 4.32992Z" fill="#F2F6FD"/>
<path d="M262.066 12.1758H85.408C84.3034 12.1758 83.408 13.0712 83.408 14.1758V126.876C83.408 127.981 84.3034 128.876 85.408 128.876H262.066C263.17 128.876 264.066 127.981 264.066 126.876V14.1758C264.066 13.0712 263.17 12.1758 262.066 12.1758Z" fill="#DFE9FF"/>
<path d="M70.2297 12.1758H14.6799C13.5754 12.1758 12.6799 13.0712 12.6799 14.1758V48.6437C12.6799 49.7483 13.5754 50.6437 14.6799 50.6437H70.2297C71.3343 50.6437 72.2297 49.7483 72.2297 48.6437V14.1758C72.2297 13.0712 71.3343 12.1758 70.2297 12.1758Z" fill="#DFE9FF"/>
<path d="M264.066 136.33H83.408V139.788H264.066V136.33Z" fill="#DFE9FF"/>
<path d="M70.5005 56.9988H14.4092C13.4541 56.9988 12.6799 57.773 12.6799 58.728C12.6799 59.6831 13.4541 60.4573 14.4092 60.4573H70.5005C71.4555 60.4573 72.2297 59.6831 72.2297 58.728C72.2297 57.773 71.4555 56.9988 70.5005 56.9988Z" fill="#DFE9FF"/>
<path d="M70.2297 66.7363H14.6799C13.5754 66.7363 12.6799 67.6318 12.6799 68.7363V103.204C12.6799 104.309 13.5754 105.204 14.6799 105.204H70.2297C71.3343 105.204 72.2297 104.309 72.2297 103.204V68.7363C72.2297 67.6318 71.3343 66.7363 70.2297 66.7363Z" fill="#DFE9FF"/>
<path d="M70.5005 111.56H14.4092C13.4541 111.56 12.6799 112.334 12.6799 113.289C12.6799 114.244 13.4541 115.018 14.4092 115.018H70.5005C71.4555 115.018 72.2297 114.244 72.2297 113.289C72.2297 112.334 71.4555 111.56 70.5005 111.56Z" fill="#DFE9FF"/>
<path d="M70.2297 121.294H14.6799C13.5754 121.294 12.6799 122.19 12.6799 123.294V155.243C12.6799 156.347 13.5754 157.243 14.6799 157.243H70.2297C71.3343 157.243 72.2297 156.347 72.2297 155.243V123.294C72.2297 122.19 71.3343 121.294 70.2297 121.294Z" fill="#DFE9FF"/>
<path d="M264.066 143.405H83.408V146.864H264.066V143.405Z" fill="#DFE9FF"/>
<path d="M166.102 81.6055C163.686 82.7784 160.869 81.0341 160.842 78.3475L160.709 65.008L160.575 51.6686C160.548 48.9819 163.329 47.1809 165.768 48.307L180.832 55.2474L194.114 61.3657C196.921 62.6589 196.961 66.6354 194.181 67.9853L181.025 74.3677L166.105 81.6055H166.102Z" fill="#6683C2"/>
<path d="M173.734 96.9348C155.583 96.9348 140.817 82.1685 140.817 64.0172C140.817 45.8659 155.583 31.0996 173.734 31.0996C191.886 31.0996 206.652 45.8659 206.652 64.0172C206.652 82.1685 191.886 96.9348 173.734 96.9348ZM173.734 33.4387C156.873 33.4387 143.159 47.1558 143.159 64.0139C143.159 80.872 156.876 94.5891 173.734 94.5891C190.592 94.5891 204.309 80.872 204.309 64.0139C204.309 47.1558 190.592 33.4387 173.734 33.4387Z" fill="#6683C2"/>
<path d="M39.4188 38.4053C38.4564 38.8732 37.337 38.1781 37.327 37.1088L37.2735 31.8024L37.22 26.4961C37.21 25.4268 38.3161 24.7117 39.2851 25.1594L45.2765 27.9196L50.5595 30.3522C51.6756 30.8668 51.6923 32.4474 50.5862 32.9853L45.3534 35.5249L39.4188 38.4053Z" fill="#6683C2"/>
<path d="M42.453 44.5048C35.2319 44.5048 29.3574 38.6303 29.3574 31.4093C29.3574 24.1882 35.2319 18.3137 42.453 18.3137C49.674 18.3137 55.5485 24.1882 55.5485 31.4093C55.5485 38.6303 49.674 44.5048 42.453 44.5048ZM42.453 19.246C35.7465 19.246 30.2897 24.7028 30.2897 31.4093C30.2897 38.1157 35.7465 43.5725 42.453 43.5725C49.1594 43.5725 54.6162 38.1157 54.6162 31.4093C54.6162 24.7028 49.1594 19.246 42.453 19.246Z" fill="#6683C2"/>
<path d="M39.4188 92.9688C38.4564 93.4366 37.337 92.7416 37.327 91.6723L37.2735 86.3659L37.22 81.0595C37.21 79.9902 38.3161 79.2751 39.2851 79.7229L45.2765 82.483L50.5595 84.9157C51.6756 85.4303 51.6923 87.0108 50.5862 87.5488L45.3534 90.0884L39.4188 92.9688Z" fill="#6683C2"/>
<path d="M42.453 99.0656C35.2319 99.0656 29.3574 93.1911 29.3574 85.97C29.3574 78.749 35.2319 72.8745 42.453 72.8745C49.674 72.8745 55.5485 78.749 55.5485 85.97C55.5485 93.1911 49.674 99.0656 42.453 99.0656ZM42.453 73.8068C35.7465 73.8068 30.2897 79.2636 30.2897 85.97C30.2897 92.6765 35.7465 98.1333 42.453 98.1333C49.1594 98.1333 54.6162 92.6765 54.6162 85.97C54.6162 79.2636 49.1594 73.8068 42.453 73.8068Z" fill="#6683C2"/>
<path d="M39.4188 147.527C38.4564 147.995 37.337 147.299 37.327 146.23L37.2735 140.924L37.22 135.617C37.21 134.548 38.3161 133.833 39.2851 134.281L45.2765 137.041L50.5595 139.474C51.6756 139.988 51.6923 141.569 50.5862 142.107L45.3534 144.646L39.4188 147.527Z" fill="#6683C2"/>
<path d="M42.453 153.626C35.2319 153.626 29.3574 147.752 29.3574 140.531C29.3574 133.31 35.2319 127.435 42.453 127.435C49.674 127.435 55.5485 133.31 55.5485 140.531C55.5485 147.752 49.674 153.626 42.453 153.626ZM42.453 128.367C35.7465 128.367 30.2897 133.824 30.2897 140.531C30.2897 147.237 35.7465 152.694 42.453 152.694C49.1594 152.694 54.6162 147.237 54.6162 140.531C54.6162 133.824 49.1594 128.367 42.453 128.367Z" fill="#6683C2"/>
<g style="mix-blend-mode:screen">
<path d="M250.702 122.575H96.7771C94.5249 122.575 92.7004 120.751 92.7004 118.499C92.7004 116.247 94.5249 114.422 96.7771 114.422H250.702C252.954 114.422 254.779 116.247 254.779 118.499C254.779 120.751 252.954 122.575 250.702 122.575Z" fill="#999999"/>
</g>
<path d="M225.38 117.901H98.4777C98.1636 117.901 97.9097 118.178 97.9097 118.522C97.9097 118.867 98.1636 119.144 98.4777 119.144H225.38C225.694 119.144 225.948 118.867 225.948 118.522C225.948 118.178 225.694 117.901 225.38 117.901Z" fill="#E58967"/>
<path d="M122.008 116.893H121.253V120.164H122.008V116.893Z" fill="#E58967"/>
<path d="M94.4546 118.526C94.4546 117.971 94.9024 117.524 95.4571 117.524C96.0118 117.524 96.4595 117.971 96.4595 118.526C96.4595 119.081 96.0118 119.529 95.4571 119.529C94.9024 119.529 94.4546 119.081 94.4546 118.526Z" fill="#E58967"/>
<path d="M233.703 118.526C233.703 117.971 234.151 117.524 234.705 117.524C235.26 117.524 235.708 117.971 235.708 118.526C235.708 119.081 235.26 119.529 234.705 119.529C234.151 119.529 233.703 119.081 233.703 118.526Z" fill="#E58967"/>
<path d="M237.91 118.526C237.91 117.971 238.357 117.524 238.912 117.524C239.467 117.524 239.915 117.971 239.915 118.526C239.915 119.081 239.467 119.529 238.912 119.529C238.357 119.529 237.91 119.081 237.91 118.526Z" fill="#E58967"/>
<path d="M228.909 118.526C228.909 117.971 229.357 117.524 229.912 117.524C230.466 117.524 230.914 117.971 230.914 118.526C230.914 119.081 230.466 119.529 229.912 119.529C229.357 119.529 228.909 119.081 228.909 118.526Z" fill="#E58967"/>
<path d="M249.925 121.306C249.738 121.306 249.587 121.156 249.587 120.969C249.587 120.782 249.738 120.631 249.925 120.631C250.613 120.631 251.171 120.073 251.171 119.388C251.171 119.201 251.321 119.051 251.509 119.051C251.696 119.051 251.846 119.201 251.846 119.388C251.846 120.444 250.984 121.303 249.928 121.303L249.925 121.306Z" fill="#E58967"/>
<path d="M251.509 117.993C251.321 117.993 251.171 117.842 251.171 117.655C251.171 116.97 250.613 116.412 249.925 116.412C249.738 116.412 249.587 116.262 249.587 116.075C249.587 115.887 249.738 115.737 249.925 115.737C250.984 115.737 251.843 116.596 251.843 117.652C251.843 117.839 251.692 117.989 251.505 117.989L251.509 117.993Z" fill="#E58967"/>
<path d="M244.238 117.992C244.051 117.992 243.9 117.842 243.9 117.655C243.9 116.599 244.763 115.74 245.818 115.74C246.006 115.74 246.156 115.89 246.156 116.077C246.156 116.265 246.006 116.415 245.818 116.415C245.13 116.415 244.572 116.973 244.572 117.658C244.572 117.845 244.422 117.996 244.235 117.996L244.238 117.992Z" fill="#E58967"/>
<path d="M245.824 121.306C244.765 121.306 243.906 120.447 243.906 119.391C243.906 119.204 244.057 119.054 244.244 119.054C244.431 119.054 244.581 119.204 244.581 119.391C244.581 120.076 245.139 120.634 245.828 120.634C246.015 120.634 246.165 120.785 246.165 120.972C246.165 121.159 246.015 121.309 245.828 121.309L245.824 121.306Z" fill="#E58967"/>
</g>
<defs>
<clipPath id="clip0_42_3350">
<rect width="280" height="166" fill="white"/>
</clipPath>
</defs>
</svg>
