<svg width="297" height="176" viewBox="0 0 297 176" fill="none" xmlns="http://www.w3.org/2000/svg">
<g clip-path="url(#clip0_42_7487)">
<path d="M297 4.59076V171.866C297 174.405 294.862 176.46 292.228 176.46H4.7718C2.13774 176.46 0 174.405 0 171.866V4.59076C0 2.05446 2.13774 0 4.7718 0H292.228C294.862 0 297 2.05446 297 4.59076Z" fill="#F2F6FD"/>
<path d="M278.098 12.9092H90.4722C89.3676 12.9092 88.4722 13.8046 88.4722 14.9092V134.64C88.4722 135.744 89.3676 136.64 90.4722 136.64H278.098C279.203 136.64 280.098 135.744 280.098 134.64V14.9092C280.098 13.8046 279.203 12.9092 278.098 12.9092Z" fill="#DFE9FF"/>
<path d="M74.615 12.9092H15.4497C14.3451 12.9092 13.4497 13.8046 13.4497 14.9092V51.6944C13.4497 52.799 14.3451 53.6944 15.4497 53.6944H74.615C75.7196 53.6944 76.615 52.799 76.615 51.6944V14.9092C76.615 13.8046 75.7196 12.9092 74.615 12.9092Z" fill="#DFE9FF"/>
<path d="M280.098 144.542H88.4722V148.209H280.098V144.542Z" fill="#DFE9FF"/>
<path d="M74.7816 60.4324H15.2831C14.2706 60.4324 13.4497 61.2532 13.4497 62.2658C13.4497 63.2784 14.2706 64.0992 15.2831 64.0992H74.7816C75.7941 64.0992 76.615 63.2784 76.615 62.2658C76.615 61.2532 75.7941 60.4324 74.7816 60.4324Z" fill="#DFE9FF"/>
<path d="M74.615 70.7566H15.4497C14.3451 70.7566 13.4497 71.652 13.4497 72.7566V109.542C13.4497 110.646 14.3451 111.542 15.4497 111.542H74.615C75.7196 111.542 76.615 110.646 76.615 109.542V72.7566C76.615 71.652 75.7196 70.7566 74.615 70.7566Z" fill="#DFE9FF"/>
<path d="M74.7816 118.28H15.2831C14.2706 118.28 13.4497 119.101 13.4497 120.113C13.4497 121.126 14.2706 121.947 15.2831 121.947H74.7816C75.7941 121.947 76.615 121.126 76.615 120.113C76.615 119.101 75.7941 118.28 74.7816 118.28Z" fill="#DFE9FF"/>
<path d="M74.615 128.601H15.4497C14.3451 128.601 13.4497 129.497 13.4497 130.601V164.715C13.4497 165.82 14.3451 166.715 15.4497 166.715H74.615C75.7196 166.715 76.615 165.82 76.615 164.715V130.601C76.615 129.497 75.7196 128.601 74.615 128.601Z" fill="#DFE9FF"/>
<path d="M280.098 152.044H88.4722V155.711H280.098V152.044Z" fill="#DFE9FF"/>
<path d="M176.187 86.5216C173.624 87.7652 170.636 85.9158 170.608 83.0674L170.466 68.9243L170.324 54.7813C170.296 51.9328 173.245 50.0232 175.832 51.2172L191.811 58.5756L205.9 65.0626C208.877 66.4337 208.919 70.6497 205.971 72.081L192.016 78.8478L176.19 86.5216H176.187Z" fill="#6683C2"/>
<path d="M184.282 102.774C165.029 102.774 149.366 87.1185 149.366 67.8737C149.366 48.629 165.029 32.9731 184.282 32.9731C203.536 32.9731 219.199 48.629 219.199 67.8737C219.199 87.1185 203.536 102.774 184.282 102.774ZM184.282 35.4531C166.397 35.4531 151.851 49.9965 151.851 67.8702C151.851 85.7439 166.401 100.287 184.282 100.287C202.164 100.287 216.714 85.7439 216.714 67.8702C216.714 49.9965 202.164 35.4531 184.282 35.4531Z" fill="#6683C2"/>
<path d="M41.8118 40.7188C40.791 41.2148 39.6036 40.4779 39.593 39.3442L39.5363 33.7181L39.4796 28.0921C39.4689 26.9584 40.6421 26.2002 41.67 26.6749L48.0252 29.6013L53.6289 32.1805C54.8128 32.7261 54.8305 34.4019 53.6573 34.9723L48.1067 37.6649L41.8118 40.7188Z" fill="#6683C2"/>
<path d="M45.0303 47.1858C37.3708 47.1858 31.1396 40.9575 31.1396 33.3014C31.1396 25.6453 37.3708 19.417 45.0303 19.417C52.6898 19.417 58.9209 25.6453 58.9209 33.3014C58.9209 40.9575 52.6898 47.1858 45.0303 47.1858ZM45.0303 20.4054C37.9166 20.4054 32.1285 26.1909 32.1285 33.3014C32.1285 40.4119 37.9166 46.1974 45.0303 46.1974C52.1439 46.1974 57.932 40.4119 57.932 33.3014C57.932 26.1909 52.1439 20.4054 45.0303 20.4054Z" fill="#6683C2"/>
<path d="M41.8118 98.5694C40.791 99.0654 39.6036 98.3285 39.593 97.1948L39.5363 91.5687L39.4796 85.9427C39.4689 84.809 40.6421 84.0508 41.67 84.5255L48.0252 87.4519L53.6289 90.0311C54.8128 90.5767 54.8305 92.2525 53.6573 92.8229L48.1067 95.5154L41.8118 98.5694Z" fill="#6683C2"/>
<path d="M45.0303 105.033C37.3708 105.033 31.1396 98.8049 31.1396 91.1488C31.1396 83.4927 37.3708 77.2644 45.0303 77.2644C52.6898 77.2644 58.9209 83.4927 58.9209 91.1488C58.9209 98.8049 52.6898 105.033 45.0303 105.033ZM45.0303 78.2529C37.9166 78.2529 32.1285 84.0383 32.1285 91.1488C32.1285 98.2593 37.9166 104.045 45.0303 104.045C52.1439 104.045 57.932 98.2593 57.932 91.1488C57.932 84.0383 52.1439 78.2529 45.0303 78.2529Z" fill="#6683C2"/>
<path d="M41.8118 156.414C40.791 156.91 39.6036 156.173 39.593 155.039L39.5363 149.413L39.4796 143.787C39.4689 142.654 40.6421 141.896 41.67 142.37L48.0252 145.297L53.6289 147.876C54.8128 148.421 54.8305 150.097 53.6573 150.668L48.1067 153.36L41.8118 156.414Z" fill="#6683C2"/>
<path d="M45.0303 162.881C37.3708 162.881 31.1396 156.653 31.1396 148.996C31.1396 141.34 37.3708 135.112 45.0303 135.112C52.6898 135.112 58.9209 141.34 58.9209 148.996C58.9209 156.653 52.6898 162.881 45.0303 162.881ZM45.0303 136.101C37.9166 136.101 32.1285 141.886 32.1285 148.996C32.1285 156.107 37.9166 161.892 45.0303 161.892C52.1439 161.892 57.932 156.107 57.932 148.996C57.932 141.886 52.1439 136.101 45.0303 136.101Z" fill="#6683C2"/>
<g style="mix-blend-mode:screen">
<path d="M265.923 129.96H102.653C100.264 129.96 98.3286 128.025 98.3286 125.637C98.3286 123.25 100.264 121.315 102.653 121.315H265.923C268.312 121.315 270.248 123.25 270.248 125.637C270.248 128.025 268.312 129.96 265.923 129.96Z" fill="#999999"/>
</g>
<path d="M239.064 125.003H104.457C104.124 125.003 103.854 125.297 103.854 125.662C103.854 126.027 104.124 126.321 104.457 126.321H239.064C239.397 126.321 239.666 126.027 239.666 125.662C239.666 125.297 239.397 125.003 239.064 125.003Z" fill="#E58967"/>
<path d="M129.416 123.935H128.615V127.403H129.416V123.935Z" fill="#E58967"/>
<path d="M100.189 125.666C100.189 125.078 100.664 124.603 101.253 124.603C101.841 124.603 102.316 125.078 102.316 125.666C102.316 126.254 101.841 126.729 101.253 126.729C100.664 126.729 100.189 126.254 100.189 125.666Z" fill="#E58967"/>
<path d="M247.892 125.666C247.892 125.078 248.367 124.603 248.955 124.603C249.544 124.603 250.019 125.078 250.019 125.666C250.019 126.254 249.544 126.729 248.955 126.729C248.367 126.729 247.892 126.254 247.892 125.666Z" fill="#E58967"/>
<path d="M252.354 125.666C252.354 125.078 252.829 124.603 253.418 124.603C254.006 124.603 254.481 125.078 254.481 125.666C254.481 126.254 254.006 126.729 253.418 126.729C252.829 126.729 252.354 126.254 252.354 125.666Z" fill="#E58967"/>
<path d="M242.807 125.666C242.807 125.078 243.282 124.603 243.87 124.603C244.459 124.603 244.934 125.078 244.934 125.666C244.934 126.254 244.459 126.729 243.87 126.729C243.282 126.729 242.807 126.254 242.807 125.666Z" fill="#E58967"/>
<path d="M265.099 128.614C264.9 128.614 264.741 128.454 264.741 128.256C264.741 128.058 264.9 127.898 265.099 127.898C265.829 127.898 266.421 127.307 266.421 126.58C266.421 126.382 266.58 126.222 266.779 126.222C266.977 126.222 267.137 126.382 267.137 126.58C267.137 127.7 266.222 128.61 265.102 128.61L265.099 128.614Z" fill="#E58967"/>
<path d="M266.779 125.101C266.58 125.101 266.421 124.941 266.421 124.743C266.421 124.017 265.829 123.425 265.099 123.425C264.9 123.425 264.741 123.265 264.741 123.067C264.741 122.869 264.9 122.709 265.099 122.709C266.222 122.709 267.133 123.62 267.133 124.739C267.133 124.938 266.974 125.097 266.775 125.097L266.779 125.101Z" fill="#E58967"/>
<path d="M259.066 125.1C258.868 125.1 258.708 124.941 258.708 124.742C258.708 123.623 259.623 122.712 260.743 122.712C260.941 122.712 261.101 122.872 261.101 123.07C261.101 123.269 260.941 123.428 260.743 123.428C260.013 123.428 259.421 124.02 259.421 124.746C259.421 124.944 259.261 125.104 259.063 125.104L259.066 125.1Z" fill="#E58967"/>
<path d="M260.749 128.613C259.626 128.613 258.715 127.703 258.715 126.583C258.715 126.385 258.874 126.226 259.073 126.226C259.271 126.226 259.431 126.385 259.431 126.583C259.431 127.31 260.022 127.901 260.753 127.901C260.951 127.901 261.111 128.061 261.111 128.259C261.111 128.458 260.951 128.617 260.753 128.617L260.749 128.613Z" fill="#E58967"/>
</g>
<defs>
<clipPath id="clip0_42_7487">
<rect width="297" height="176" fill="white"/>
</clipPath>
</defs>
</svg>
