<svg width="290" height="253" viewBox="0 0 290 253" fill="none" xmlns="http://www.w3.org/2000/svg">
<path d="M106.251 252.271L11.1579 252.098C6.34366 240.937 1.4851 229.545 0.262406 217.426C-0.960288 205.308 2.01187 192.127 10.8228 183.846C14.8518 180.059 19.96 177.387 23.1972 172.887C27.8584 166.408 27.6289 157.715 27.732 149.695C28.0179 127.475 32.3835 105.274 40.6967 84.4023C47.5544 67.1842 55.3038 50.8565 76.1307 45.0469C96.6475 39.3234 114.393 41.7174 130.272 52.6476C148.855 65.439 163.618 89.4423 176.955 106.74C182.341 113.724 189.427 121.66 198.042 120.148C204.191 119.069 208.396 113.473 213.51 109.847C225.909 101.057 243.484 104.52 256.116 112.964C277.26 127.098 288.784 153.126 289.898 178.778C291.013 204.431 282.834 229.715 271.295 252.572L106.251 252.272V252.271Z" fill="#94A8CE" fill-opacity="0.39"/>
<path d="M28.9365 94.5619C28.9365 89.933 31.3599 87.4348 35.8967 87.4348H252.6C257.137 87.4348 259.561 89.933 259.561 94.5628V100.389H28.9365V94.5619Z" fill="#ACC1EB"/>
<path d="M245.333 96.0422C246.369 96.0422 247.208 95.1855 247.208 94.1287C247.208 93.0718 246.369 92.2151 245.333 92.2151C244.297 92.2151 243.458 93.0718 243.458 94.1287C243.458 95.1855 244.297 96.0422 245.333 96.0422Z" fill="#6683C2"/>
<path d="M237.206 96.0422C238.241 96.0422 239.081 95.1855 239.081 94.1287C239.081 93.0718 238.241 92.2151 237.206 92.2151C236.17 92.2151 235.33 93.0718 235.33 94.1287C235.33 95.1855 236.17 96.0422 237.206 96.0422Z" fill="#6683C2"/>
<path d="M229.079 96.0422C230.114 96.0422 230.954 95.1855 230.954 94.1287C230.954 93.0718 230.114 92.2151 229.079 92.2151C228.043 92.2151 227.203 93.0718 227.203 94.1287C227.203 95.1855 228.043 96.0422 229.079 96.0422Z" fill="#6683C2"/>
<path d="M259.561 223.209V100.388H28.9365V212.201V232.223H259.561V223.209Z" fill="#D4E2FF"/>
<g clip-path="url(#clip0_42_1073)">
<path d="M202.872 183.551C202.589 183.595 202.389 183.604 202.243 183.586C202.088 183.56 201.952 183.461 201.852 183.299C200.887 181.779 198.209 163.727 198.437 163.008C198.528 162.729 198.647 162.342 205.512 160.616C209.145 159.699 213.125 158.818 214.973 158.521C215.993 158.36 216.175 158.387 216.339 158.504C216.831 158.854 217.058 160.095 217.422 162.648C217.55 163.574 217.832 165.021 217.841 165.057C217.914 165.012 219.626 163.682 221.493 163.547C223.642 163.385 224.834 164.158 225.372 165.84C225.945 167.647 225.463 170.173 223.669 171.108C223.259 171.324 222.822 171.468 222.358 171.539C221.447 171.683 220.609 171.539 219.999 171.441C219.79 171.405 219.58 171.369 219.435 171.36C219.526 171.863 219.726 172.672 219.945 173.517C220.992 177.689 221.192 179.028 220.409 179.289C220.245 179.343 219.863 179.442 218.397 179.685C217.158 179.882 215.629 180.107 214.618 180.251C214.126 180.323 213.753 180.377 213.607 180.395C213.461 180.422 213.307 180.377 213.197 180.278C212.942 180.053 212.979 179.676 213.033 178.858C213.115 177.725 213.252 175.828 212.351 175.019C211.913 174.623 211.231 174.497 210.32 174.641C210.274 174.641 210.22 174.659 210.174 174.668C209.209 174.848 208.581 175.226 208.262 175.819C207.561 177.095 208.408 179.109 208.909 180.314C209.227 181.069 209.346 181.357 209.191 181.627C209.118 181.752 209 181.833 208.863 181.851C208.727 181.869 208.034 182.094 207.361 182.301C205.904 182.759 203.91 183.389 202.872 183.551Z" fill="#D4E2FF"/>
<path d="M215.037 158.917C215.647 158.818 216.029 158.782 216.093 158.827C216.721 159.268 217.022 163.592 217.404 165.031C217.504 165.417 217.605 165.552 217.768 165.525C218.196 165.453 219.061 164.347 221.556 163.943C221.675 163.925 221.793 163.907 221.921 163.889C225.718 163.412 226.173 169.337 223.478 170.739C223.077 170.946 222.676 171.072 222.285 171.135C220.937 171.351 219.726 170.883 219.234 170.964C219.052 170.991 218.97 171.099 219.007 171.333C219.298 173.059 221.056 178.651 220.263 178.912C219.999 179.001 219.244 179.136 218.315 179.289C216.466 179.586 213.971 179.927 213.525 179.999C212.86 180.107 215.128 173.454 210.238 174.246C210.183 174.246 210.138 174.264 210.083 174.273C204.984 175.235 209.327 181.357 208.781 181.447C208.308 181.528 204.347 182.894 202.799 183.146C202.571 183.182 202.407 183.2 202.298 183.182C201.442 183.047 198.647 163.7 198.829 163.125C199.029 162.477 211.303 159.519 215.037 158.908V158.917ZM214.9 158.117C213.052 158.414 209.054 159.304 205.403 160.221C198.319 162.01 198.2 162.396 198.046 162.891C197.982 163.098 197.927 163.268 198.337 166.37C198.583 168.24 198.929 170.614 199.284 172.87C200.276 179.163 201.023 182.741 201.506 183.515C201.715 183.856 201.988 183.955 202.18 183.991C202.38 184.018 202.607 184.009 202.944 183.955C204.001 183.784 206.022 183.155 207.488 182.688C208.098 182.499 208.79 182.274 208.936 182.247C209.191 182.202 209.419 182.049 209.546 181.815C209.792 181.375 209.619 180.97 209.282 180.152C208.836 179.091 208.007 177.114 208.617 176.008C208.881 175.531 209.409 175.226 210.247 175.064C210.293 175.064 210.338 175.046 210.384 175.037C211.167 174.911 211.731 175.001 212.077 175.315C212.833 175.999 212.706 177.77 212.624 178.831C212.56 179.73 212.524 180.215 212.915 180.575C213.115 180.755 213.389 180.836 213.671 180.791C213.817 180.764 214.181 180.71 214.673 180.647C215.683 180.503 217.213 180.278 218.46 180.08C219.936 179.838 220.345 179.739 220.537 179.676C221.566 179.334 221.311 177.869 221.138 176.907C220.955 175.864 220.628 174.569 220.345 173.427C220.2 172.852 220.063 172.295 219.963 171.845C220.6 171.953 221.465 172.097 222.431 171.935C222.94 171.854 223.423 171.692 223.869 171.459C225.854 170.434 226.401 167.674 225.772 165.714C225.18 163.862 223.669 162.855 221.83 163.089C221.693 163.107 221.566 163.125 221.438 163.143C219.772 163.412 218.743 163.988 218.114 164.392C218.023 163.907 217.932 163.259 217.832 162.585C217.432 159.789 217.213 158.611 216.585 158.162C216.266 157.937 215.902 157.946 214.918 158.108L214.9 158.117Z" fill="white"/>
</g>
<g clip-path="url(#clip1_42_1073)">
<path fill-rule="evenodd" clip-rule="evenodd" d="M242.118 118.202C237.662 114.873 228.002 114.613 222.885 122.424C217.862 130.079 220.438 137.544 222.842 140.769C225.023 143.69 229.024 145.225 231.403 145.676C231.325 146.075 231.016 146.664 230.535 146.838C230.175 146.968 229.831 147.184 229.831 147.652C229.831 148.034 230.252 148.268 230.647 148.277C231.394 148.294 231.669 147.462 232.158 148.043C232.047 148.216 231.944 148.493 232.09 148.771C232.21 148.996 232.502 149.031 232.459 149.308C232.381 149.846 231.214 149.456 231.145 150.045C231.076 150.635 231.841 150.574 231.798 150.973C231.755 151.372 230.905 151.502 230.673 152.308C230.089 154.328 233.06 154.345 233.378 155.23C233.627 155.897 233.335 156.391 233.06 156.799C232.776 157.206 232.081 157.9 231.677 158.533C231.428 158.932 231.282 159.573 231.437 160.041C231.574 160.475 231.978 160.613 232.381 160.726C233.068 160.926 233.781 161.09 233.498 161.94C233.283 162.573 232.639 163.006 232.347 163.622C232.098 164.142 232.098 164.766 232.424 165.217C232.57 165.416 232.854 165.564 232.974 165.841C233.206 166.353 233.18 167.072 232.811 167.931C232.759 168.061 233.034 168.043 233.292 167.315C233.463 166.821 233.635 165.989 233.214 165.425C233.043 165.2 232.828 165.018 232.682 164.766C232.442 164.359 232.682 163.812 233.017 163.422C233.446 162.92 233.867 162.425 233.97 161.792C234.056 161.281 233.815 160.752 233.326 160.509C232.931 160.31 232.004 160.284 231.858 159.781C231.634 159.001 232.734 157.978 233.146 157.449C233.772 156.651 234.09 155.993 233.884 155.134C233.541 153.686 230.75 154.198 231.162 152.369C231.3 151.762 232.047 151.727 232.21 151.008C232.356 150.383 231.626 150.461 231.695 150.097C231.746 149.82 232.871 150.106 232.88 149.17C232.88 148.667 232.27 148.701 232.553 148.207C232.897 148.415 233.12 148.086 233.369 148.129C233.669 148.173 233.618 148.459 234.021 148.485C234.382 148.511 234.562 148.181 234.82 148.268C235.318 148.441 235.61 148.337 235.73 147.713C235.79 147.384 235.567 147.124 235.163 146.968C234.76 146.82 233.798 146.603 233.867 145.867C238.349 145.641 242.531 143.933 245.458 139.182C248.987 133.46 249.58 123.802 242.084 118.193L242.118 118.202Z" fill="white"/>
<path fill-rule="evenodd" clip-rule="evenodd" d="M221.837 137.345C220.343 133.764 220.172 127.522 222.988 123.248C225.813 118.974 229.84 116.486 235.12 116.546C239.251 116.59 243.028 118.705 245.424 122.667C247.82 126.638 247.871 132.377 245.433 137.561C243.08 142.564 238.418 144.939 233.815 145.208C233.721 144.48 232.064 144.532 231.66 145.112C226.131 143.89 223.443 141.185 221.846 137.345H221.837Z" fill="#D4E2FF"/>
<path fill-rule="evenodd" clip-rule="evenodd" d="M233.223 145.468C233.077 145.598 232.167 145.442 232.038 145.338C232.132 144.974 233.266 144.991 233.223 145.468Z" fill="#D4E2FF"/>
<path fill-rule="evenodd" clip-rule="evenodd" d="M231.755 147.479C231.42 147.531 231.317 147.748 230.896 147.852C230.604 147.921 230.286 147.852 230.252 147.635C230.183 147.176 231.162 146.95 231.969 147.002C232.673 147.046 232.957 147.6 233.378 147.436C232.708 146.933 232.175 146.508 231.274 146.785C231.703 146.231 231.866 145.693 231.866 145.693C231.866 145.693 232.485 146.031 233.352 145.84C233.446 146.248 233.704 146.759 234.356 147.028C235.009 147.288 235.524 147.418 235.335 147.852C235.189 148.19 234.906 147.895 234.623 147.921C234.425 147.939 234.228 148.147 234.125 148.147C233.807 148.147 233.867 147.834 233.549 147.748C233.266 147.67 233.008 147.965 232.759 147.93C232.399 147.878 232.339 147.392 231.755 147.488V147.479Z" fill="#D4E2FF"/>
</g>
<g clip-path="url(#clip2_42_1073)">
<path d="M235.035 201.57C233.764 199.123 231.557 196.546 228.719 194.593C225.242 192.201 219.105 191.082 213.608 192.895C204.01 196.067 197.023 206.818 203.542 218.642C207.862 226.483 217.593 227.887 223.019 226.568C227.799 225.41 232.111 222.871 234.708 218.433C237.663 213.386 237.749 206.81 235.035 201.57Z" fill="white"/>
<path d="M234.115 202.218C232.064 200.675 228.821 200.142 226.676 200.636C226.107 200.767 225.608 200.999 225.14 201.269C224.111 200.32 222.988 199.478 221.795 198.738C223.854 197.179 226.177 196.075 228.79 195.936C231.035 197.518 232.891 199.664 234.115 202.226V202.218Z" fill="#D4E2FF"/>
<path d="M219.253 192.903C222.177 192.895 225.023 193.675 227.495 195.102C225.85 195.28 224.174 196.152 222.856 196.947C222.209 197.341 221.585 197.773 220.992 198.251C219.979 197.665 218.926 197.14 217.858 196.669C218.513 195.496 218.817 194.184 219.253 192.911V192.903Z" fill="#D4E2FF"/>
<path d="M214.271 193.698C215.737 193.22 217.226 192.965 218.7 192.903C218.302 193.613 218.076 194.408 217.71 195.149C217.507 195.558 217.273 195.936 217.031 196.307C215.253 195.612 212.86 194.971 210.84 195.226C211.908 194.624 213.047 194.107 214.279 193.698H214.271Z" fill="#D4E2FF"/>
<path d="M209.351 196.16C211.752 195.936 214.154 196.299 216.439 197.094C216.142 197.441 215.83 197.765 215.472 198.074C213.905 199.409 211.729 199.888 209.764 200.273C207.916 200.628 205.616 201.014 204.041 202.11C205.257 199.826 207.051 197.773 209.343 196.168L209.351 196.16Z" fill="#D4E2FF"/>
<path d="M202.216 210.121C202.107 208.107 202.419 206.1 203.105 204.202C205.234 201.377 209.476 201.616 212.673 200.544C214.396 199.965 215.963 199.062 217.156 197.688C217.226 197.611 217.281 197.526 217.343 197.449C218.349 197.85 219.324 198.321 220.259 198.869C218.77 200.165 217.437 201.663 216.205 203.152C214.162 205.63 212.376 208.393 210.825 211.202C209.133 214.258 207.526 217.939 207.238 221.497C204.517 219.004 202.489 215.323 202.216 210.129V210.121Z" fill="#D4E2FF"/>
<path d="M207.674 221.868C208.711 218.541 209.538 215.346 211.152 212.197C212.54 209.496 214.318 206.942 216.181 204.549C217.585 202.743 219.199 200.875 221.039 199.34C222.209 200.088 223.3 200.937 224.314 201.856C222.996 202.982 222.193 204.665 221.725 206.386C220.766 209.89 220.766 213.594 220.524 217.191C220.337 219.992 220.228 223.527 218.396 225.866C218.131 225.866 217.873 225.85 217.608 225.827C214.442 225.603 210.692 224.415 207.674 221.868Z" fill="#D4E2FF"/>
<path d="M230.942 221.135C227.682 224.114 223.635 225.866 219.261 225.889C220.743 224.361 221.008 221.791 221.203 219.745C221.515 216.458 221.343 213.54 221.694 210.368C222.006 207.582 222.552 204.24 224.906 202.388C225.265 202.735 225.616 203.09 225.951 203.453C228.033 205.73 229.444 208.532 230.31 211.457C231.238 214.582 232.072 217.993 230.949 221.135H230.942Z" fill="#D4E2FF"/>
<path d="M232.135 219.915C232.789 217.129 231.932 213.872 231.246 211.264C230.365 207.953 228.626 204.943 226.31 202.419C226.131 202.226 225.943 202.049 225.756 201.863C226.918 201.308 228.283 201.246 229.546 201.369C232.166 201.624 233.85 202.82 235.113 204.835C236.571 209.967 235.674 215.886 232.135 219.915Z" fill="#D4E2FF"/>
<path d="M220.665 206.81C220.517 206.903 220.665 207.135 220.813 207.034C220.961 206.942 220.813 206.71 220.665 206.81Z" fill="#D4E2FF"/>
<path d="M220.61 207.69C220.462 207.783 220.61 208.014 220.758 207.922C220.906 207.829 220.758 207.598 220.61 207.69Z" fill="#D4E2FF"/>
<path d="M214.552 203.438C214.404 203.53 214.552 203.762 214.7 203.669C214.848 203.577 214.7 203.345 214.552 203.438Z" fill="#D4E2FF"/>
</g>
<g clip-path="url(#clip3_42_1073)">
<path d="M166.764 129.916C166.847 129.804 169.198 128.792 169.528 128.625C169.129 128.154 166.728 125.126 165.899 123.853C165.736 123.605 167.703 122.916 168.348 122.9C168.554 122.896 173.668 127.731 174.001 127.889C174.333 128.047 179.756 125.387 182.128 124.253C183.553 123.573 184.989 122.859 186.464 122.251C186.88 121.804 188.17 120.416 189.344 118.317C190.511 116.209 192.115 112.538 192.31 112.379C192.51 112.219 194.128 111.987 194.134 112.051C194.272 114.368 193.685 117.761 193.051 119.96C193.607 119.753 194.091 119.597 195.011 119.261C195.926 118.926 197.645 118.406 198.646 118.25C199.652 118.094 200.502 118.009 201.941 118.085C203.381 118.167 205.192 118.346 206.752 118.829C206.935 118.883 207.003 119.11 206.865 119.253C205.958 120.156 204.507 120.997 202.665 121.659C200.823 122.315 196.939 123.673 195.571 124.218C194.205 124.769 191.191 125.816 190.433 126.08C190.002 126.937 189.197 127.924 188.607 128.647C187.497 130.002 186.447 131.174 185.233 132.586C182.838 135.378 178.161 140.963 177.973 141.099C177.784 141.235 174.552 141.942 174.587 141.767C174.641 141.519 180.692 130.75 181.611 128.685C179.412 129.106 171.985 131.199 171.573 131.207C171.465 131.21 170.665 130.132 170.359 129.693C169.125 130.962 165.611 132.38 165.61 132.282C165.614 131.875 166.676 130.034 166.759 129.922L166.764 129.916Z" fill="white"/>
<path d="M192.037 113.484C192.228 113.022 192.363 112.711 192.395 112.678C192.505 112.561 193.819 112.205 193.831 112.338C193.846 112.606 193.836 112.949 193.81 113.355C193.22 113.405 192.629 113.445 192.037 113.484Z" fill="#D4E2FF"/>
<path d="M190.257 117.636C190.685 116.79 191.436 114.945 191.923 113.759C192.54 113.715 193.164 113.675 193.78 113.62C193.598 115.636 192.983 118.742 192.64 120.065C191.394 120.497 187.786 121.757 187.505 121.856C188.582 120.657 189.54 119.025 190.256 117.63L190.257 117.636Z" fill="#D4E2FF"/>
<path d="M197.132 119.071C197.383 119.476 199.227 120.305 199.704 120.323C200.181 120.347 203.02 119.325 203.965 118.638C202.587 118.475 199.812 118.164 197.137 119.07L197.132 119.071Z" fill="#D4E2FF"/>
<path d="M176.362 139.34C178.233 136.045 181.917 129.493 182.38 127.828C183.218 127.371 190.056 124.933 190.373 124.942C190.696 124.955 188.448 128.057 187.232 129.486C186.096 130.819 184.995 132.07 183.96 133.294C182.244 135.315 180.536 137.134 178.917 139.143C178.066 139.223 177.211 139.282 176.356 139.336L176.362 139.34Z" fill="#D4E2FF"/>
<path d="M178.697 139.437C178.363 139.859 178.026 140.292 177.703 140.74C177.023 140.898 175.976 141.132 175.281 141.26C175.299 141.208 175.661 140.58 176.205 139.623C177.038 139.567 177.866 139.508 178.697 139.437Z" fill="#D4E2FF"/>
<path d="M192.788 124.786C192.4 124.405 192.082 123.962 191.875 123.468C191.562 122.71 191.526 121.616 191.895 120.776C193.661 120.177 195.436 119.603 196.731 119.201C197.02 119.67 199.055 120.871 199.787 120.764C200.891 120.607 203.526 119.507 204.383 118.727C205.037 118.823 205.796 118.992 206.356 119.142C205.585 120.14 202.044 121.498 199.527 122.338C199.213 122.442 198.405 122.737 197.443 123.048C196.476 123.365 193.26 124.621 192.783 124.787L192.788 124.786Z" fill="#D4E2FF"/>
<path d="M171.696 127.684C171.636 127.716 170.458 128.158 169.943 128.416C169.86 128.317 166.483 124.048 166.455 123.89C166.428 123.732 168.231 123.224 168.34 123.318C168.449 123.413 173.604 128.198 174.072 128.202C174.421 128.205 177.43 126.942 179.899 125.828C179.599 126.748 179.598 127.756 180.063 128.574C177.1 129.265 171.89 130.722 171.787 130.692C171.655 130.656 171.117 129.824 170.757 129.362C171.185 128.885 171.507 128.433 171.853 127.862C171.916 127.759 171.811 127.626 171.696 127.684Z" fill="#D4E2FF"/>
<path d="M180.237 125.676C180.922 125.366 181.549 125.07 182.051 124.83C183.304 124.224 184.323 123.681 186.698 122.681C187.889 122.183 189.709 121.52 191.577 120.887C191.297 121.641 191.278 122.517 191.494 123.221C191.683 123.854 192.048 124.413 192.508 124.89C191.851 125.114 191.192 125.328 190.645 125.495C190.973 124.917 191.204 124.258 191.087 124.274C190.269 124.381 182.151 127.305 182.09 127.452C181.98 127.72 181.881 127.96 181.776 128.233C181.473 128.27 180.968 128.37 180.34 128.509C179.824 127.684 179.87 126.619 180.237 125.676Z" fill="#D4E2FF"/>
<path d="M169.179 130.069C170.103 129.413 170.926 128.59 171.214 128.094C170.928 128.232 167.04 130.03 167.002 130.091C166.958 130.152 166.16 131.578 166.148 131.667C166.141 131.717 168.256 130.725 169.179 130.069Z" fill="#D4E2FF"/>
<path d="M189.94 121.046C190.16 120.351 190.539 119.694 190.779 118.99C190.998 118.35 191.134 117.67 191.227 116.998C191.233 116.97 191.282 116.967 191.287 116.998C191.291 117.762 191.111 118.498 190.92 119.231C190.76 119.834 190.516 120.668 190.081 121.135C190.018 121.206 189.915 121.116 189.939 121.041L189.94 121.046Z" fill="white"/>
<path d="M189.41 118.538C189.501 118.403 189.663 118.396 189.81 118.37C190.074 118.323 190.338 118.277 190.595 118.193C190.646 118.174 190.676 118.25 190.638 118.283C190.474 118.432 190.286 118.508 190.076 118.551C189.883 118.596 189.625 118.706 189.433 118.637C189.393 118.623 189.389 118.569 189.416 118.537L189.41 118.538Z" fill="white"/>
<path d="M181.878 128.622C182.438 128.311 183.134 128.34 183.713 128.048C183.748 128.031 183.788 128.073 183.76 128.099C183.289 128.573 182.589 128.642 181.978 128.848C181.824 128.902 181.738 128.695 181.882 128.615L181.878 128.622Z" fill="white"/>
<path d="M180.548 131.317C180.764 131.154 181.05 131.082 181.299 130.984C181.539 130.892 181.777 130.823 182.032 130.816C182.069 130.81 182.089 130.866 182.054 130.883C181.841 131.002 181.614 131.101 181.385 131.191C181.137 131.294 180.892 131.446 180.624 131.471C180.543 131.475 180.477 131.378 180.553 131.316L180.548 131.317Z" fill="white"/>
<path d="M178.183 136.775C179.363 135.325 180.469 133.829 181.486 132.257C182.453 130.769 183.231 129.136 184.283 127.703C184.319 127.659 184.401 127.693 184.379 127.752C183.676 129.377 182.676 130.925 181.738 132.418C180.746 134.008 179.63 135.544 178.284 136.855C178.223 136.914 178.129 136.839 178.183 136.775Z" fill="white"/>
<path d="M167.577 130.731C167.645 130.437 167.718 130.143 167.856 129.875C167.871 129.839 167.922 129.852 167.925 129.895C167.959 130.149 167.888 130.395 167.823 130.644C167.796 130.768 167.765 130.899 167.738 131.028C167.713 131.162 167.729 131.252 167.62 131.342C167.591 131.363 167.551 131.354 167.531 131.33C167.416 131.172 167.532 130.907 167.573 130.737L167.577 130.731Z" fill="white"/>
<path d="M167.012 125.163C167.242 124.986 167.528 124.882 167.784 124.761C167.9 124.708 168.016 124.655 168.133 124.607C168.055 124.507 167.983 124.406 167.911 124.305C167.883 124.272 167.935 124.225 167.967 124.257C168.061 124.354 168.155 124.457 168.249 124.559C168.499 124.461 168.755 124.372 169.013 124.327C169.045 124.321 169.065 124.372 169.035 124.388C168.826 124.495 168.611 124.604 168.396 124.712C169.131 125.487 169.896 126.365 170.293 127.32C170.312 127.365 170.252 127.424 170.216 127.377C169.805 126.804 169.428 126.21 168.988 125.659C168.751 125.365 168.509 125.072 168.271 124.772C168.195 124.807 168.121 124.847 168.045 124.882C167.767 125.029 167.465 125.229 167.155 125.327C167.107 125.27 167.065 125.213 167.012 125.163Z" fill="white"/>
<path d="M198.641 118.468C198.941 119.022 199.444 119.41 199.936 119.789C199.961 119.806 199.934 119.844 199.904 119.827C199.363 119.473 198.818 119.13 198.513 118.545C198.471 118.46 198.594 118.384 198.641 118.468Z" fill="white"/>
</g>
<path d="M28.934 212.89C28.5536 212.89 28.2472 212.583 28.2472 212.203V94.5616C28.2472 89.5241 30.9615 86.7495 35.8932 86.7495H49.4423C49.8226 86.7495 50.1291 87.056 50.1291 87.4363C50.1291 87.8167 49.8226 88.1231 49.4423 88.1231H35.8932C31.7304 88.1231 29.6199 90.2893 29.6199 94.5625V212.204C29.6199 212.584 29.3134 212.89 28.9331 212.89L28.934 212.89Z" fill="#6683C2"/>
<path d="M187.135 160.855C187.842 159.83 187.584 158.426 186.559 157.719C185.534 157.012 184.129 157.27 183.423 158.295C182.716 159.321 182.974 160.725 183.999 161.432C185.024 162.139 186.428 161.881 187.135 160.855Z" fill="#B45C41"/>
<path d="M190.095 172.182L184.62 167.099L179.523 162.038L165.139 179.809L162.466 188.493L169.249 191.211C169.249 191.211 174.893 185.169 176.181 183.911C177.468 182.653 185.064 177.566 187.157 175.748C189.599 173.626 190.095 172.181 190.095 172.181L190.095 172.182Z" fill="#FFB098"/>
<path d="M181.478 162.714C183.637 161.087 184.06 158.475 184.102 156.915C184.13 155.861 183.911 154.303 182.939 153.897C182.365 153.657 181.382 153.832 181.03 154.68C179.39 158.623 176.642 159.116 174.122 161.081C171.603 163.047 168.913 170.379 167.12 175.001C165.571 178.995 159.196 184.356 159.196 184.356L162.469 188.494L181.478 162.714Z" fill="#FFB098"/>
<path d="M181.76 177.013C180.969 177.015 180.203 176.587 179.811 175.838C179.25 174.766 179.664 173.443 180.736 172.882L186.989 169.609C188.06 169.048 189.384 169.462 189.945 170.534C190.506 171.606 190.091 172.929 189.02 173.49L182.767 176.763C182.445 176.932 182.1 177.012 181.76 177.013Z" fill="#FFB098"/>
<path d="M182.175 167.015C181.384 167.016 180.619 166.589 180.227 165.84C179.666 164.768 180.08 163.445 181.151 162.884L188.381 159.099C189.451 158.538 190.776 158.953 191.337 160.024C191.898 161.096 191.484 162.419 190.412 162.98L183.183 166.765C182.861 166.933 182.515 167.014 182.175 167.015Z" fill="#FFB098"/>
<path d="M185.817 160.008C184.836 160.875 184.182 160.691 183.79 159.941C183.229 158.87 183.722 156.437 184.793 155.876L195.705 150.504C196.777 149.943 198.1 150.357 198.662 151.429C199.223 152.501 198.809 153.824 197.737 154.386L186.826 159.758C186.503 159.927 186.158 160.007 185.817 160.008Z" fill="#FFB098"/>
<path d="M180.002 173.152C179.211 173.154 178.446 172.726 178.054 171.977C177.493 170.906 177.907 169.582 178.978 169.02L188.72 163.921C189.791 163.359 191.115 163.774 191.677 164.846C192.238 165.918 191.823 167.241 190.752 167.803L181.011 172.902C180.688 173.071 180.343 173.151 180.002 173.152Z" fill="#FFB098"/>
<path d="M181.752 177.694C180.679 177.694 179.702 177.104 179.201 176.154C178.466 174.747 179.011 173.004 180.415 172.268L186.668 168.998C187.001 168.821 187.417 168.951 187.594 169.289C187.771 169.624 187.641 170.04 187.303 170.214L181.052 173.485C180.318 173.87 180.032 174.782 180.417 175.517C180.679 176.013 181.19 176.322 181.751 176.322H181.758C182.135 176.322 182.444 176.628 182.444 177.006C182.446 177.386 182.141 177.694 181.76 177.694H181.751H181.752Z" fill="#D58670"/>
<path d="M182.168 167.7C181.097 167.7 180.12 167.11 179.619 166.159C178.886 164.748 179.431 163.007 180.835 162.276L188.065 158.491C188.393 158.316 188.814 158.444 188.991 158.782C189.168 159.117 189.037 159.53 188.7 159.707L181.47 163.493C180.736 163.877 180.453 164.787 180.835 165.523C181.097 166.019 181.608 166.327 182.169 166.327C182.364 166.329 182.65 166.269 182.864 166.155C183.191 165.978 183.613 166.104 183.792 166.443C183.969 166.779 183.838 167.192 183.504 167.371C183.097 167.585 182.636 167.699 182.176 167.699H182.167L182.168 167.7Z" fill="#D58670"/>
<path d="M179.995 173.842C178.919 173.842 177.942 173.252 177.443 172.299C176.708 170.893 177.254 169.152 178.657 168.416L188.035 163.508C188.366 163.329 188.783 163.461 188.96 163.799C189.137 164.134 189.007 164.548 188.669 164.724L179.295 169.632C178.562 170.017 178.275 170.927 178.66 171.66C178.922 172.159 179.434 172.469 179.995 172.469H180.001C180.379 172.469 180.688 172.775 180.688 173.153C180.69 173.535 180.332 173.797 179.995 173.842Z" fill="#D58670"/>
<path d="M183.652 160.267C183.583 160.267 183.513 160.258 183.444 160.236C183.082 160.12 182.883 159.732 182.997 159.373C183.73 157.075 183.236 155.369 183.232 155.351C183.124 154.989 183.327 154.607 183.689 154.497C184.042 154.388 184.432 154.589 184.543 154.949C184.57 155.033 185.178 157.057 184.306 159.789C184.212 160.082 183.941 160.268 183.651 160.268L183.652 160.267Z" fill="#D58670"/>
<path d="M116.619 147.842L123.045 144.664C123.045 144.664 126.861 146.477 131.509 154.676C136.157 162.874 146.029 186.977 146.029 186.977C146.029 186.977 157.779 178.293 161.173 177.081C164.566 175.87 165.651 174.77 165.651 174.77C165.651 174.77 175.219 185.708 175.342 187.149C175.466 188.59 153.078 220.289 139.293 217.011C125.508 213.732 107.958 162.324 107.958 162.324L116.619 147.842Z" fill="#FFF3E9"/>
<path d="M118.423 140.466C119.038 126.719 122.959 113.066 121.492 99.3839C121.243 97.0663 120.818 93.3933 119.605 91.4031C117.264 87.5577 112.403 86.7131 108.56 84.37C102.719 80.8055 95.8971 79.0735 89.2151 80.5465C81.7725 82.1883 76.4979 89.1676 74.3819 96.4898C72.2658 103.811 72.6607 111.582 72.5768 119.204C72.492 126.825 71.0153 133.974 67.0778 140.501C64.6708 144.49 60.996 148.543 58.8052 152.655C54.4171 160.888 57.49 172.045 64.5915 178.094L120.998 153.584C118.462 149.823 118.22 144.997 118.423 140.466Z" fill="#594646"/>
<path d="M109.739 140.163L108.008 139.714C107.536 139.591 107.133 139.342 106.787 139.034C106.343 139.136 105.892 139.231 105.417 139.301C96.3599 140.638 89.0313 128.679 89.0295 128.679C88.8471 130.689 88.6108 132.702 88.1238 134.663C87.6422 136.604 86.8441 138.258 85.7222 139.902C85.8116 139.721 85.3419 140.339 85.2051 140.503C84.9014 140.862 84.5529 141.185 84.1918 141.486C83.4539 142.1 82.6394 142.613 81.8148 143.101L81.9571 143.129C81.9571 143.129 96.3572 158.796 106.164 155.938C106.308 155.896 108.496 156.016 108.713 155.919C115.098 153.032 111.128 143.832 109.739 140.163Z" fill="#FFB098"/>
<path d="M108.37 127.794L104.743 127.559L89.4405 126.567C89.3037 127.313 89.1669 128.012 89.031 128.68H89.0328C89.0328 128.68 96.3615 140.64 105.418 139.302C105.894 139.232 106.344 139.137 106.788 139.035C106.767 139.016 106.741 139.004 106.72 138.984L108.37 127.793V127.794Z" fill="#D5856E"/>
<path d="M124.787 152.482C126.444 151.45 125.528 146.318 125.175 146.029C122.945 144.19 120.557 143.165 118.012 142.372C116.813 142 115.582 141.674 114.312 141.349C113.896 141.243 113.481 141.135 113.058 141.025C111.763 140.678 110.65 140.376 110.112 140.262L109.741 140.165C111.085 143.715 113.503 152.083 107.864 155.233C107.48 155.448 106.003 155.991 105.701 156.06C95.9111 158.311 81.9588 143.131 81.9588 143.131L81.8165 143.103C79.3311 144.575 76.3322 145.506 73.8522 146.648C67.6983 149.486 62.7201 153.134 60.5813 158.941C57.8405 166.41 45.7033 198.715 45.1214 204.173C45.1214 204.173 72.4138 193.583 73.3058 191.9C73.3058 191.9 74.674 200.541 74.2982 208.822L67.0526 232.223H122.927C122.927 232.223 123.801 216.886 123.886 210.076C123.942 208.814 123.976 207.786 123.971 207.189C123.919 200.735 127.068 192.03 127.299 188.069C127.299 188.069 131.958 183.145 132.368 176.907C132.624 173.025 129.112 159.958 124.786 152.482H124.787Z" fill="#FFF3E9"/>
<path d="M127.063 188.732C126.846 188.732 126.632 188.629 126.5 188.437C126.283 188.126 126.359 187.697 126.672 187.482C129.348 185.624 131.121 180.783 131.689 176.81C132.112 173.837 126.587 160.172 124.683 156.527C124.506 156.192 124.636 155.776 124.974 155.602C125.302 155.427 125.722 155.557 125.899 155.893C127.551 159.052 133.568 173.354 133.049 177.003C132.484 180.96 130.68 186.373 127.455 188.608C127.337 188.691 127.201 188.731 127.064 188.731L127.063 188.732Z" fill="#F3DDCD"/>
<path d="M95.9579 194.011C93.9842 194.011 91.8909 193.598 89.7877 192.486C89.452 192.308 89.3252 191.892 89.5013 191.556C89.6782 191.22 90.0978 191.095 90.4316 191.27C96.4952 194.474 102.447 191.299 105.306 189.774L106.846 188.948C108.865 187.855 110.323 187.064 112.977 186.738C114.611 186.536 116.514 186.885 118.539 187.258C120.035 187.531 121.58 187.815 122.939 187.839C123.32 187.846 123.622 188.159 123.614 188.537C123.608 188.913 123.301 189.212 122.927 189.212H122.917C121.444 189.187 119.84 188.892 118.29 188.608C116.372 188.257 114.55 187.926 113.146 188.101C110.749 188.397 109.457 189.096 107.501 190.156L105.952 190.985C104.009 192.02 100.275 194.011 95.9579 194.011V194.011Z" fill="#F3DDCD"/>
<path d="M116.058 110.896C115.976 109.313 115.945 107.929 115.948 106.698C115.958 102.038 113.153 97.8436 108.825 96.1179L93.8039 96.128L85.5851 106.952C85.5851 106.952 85.5222 118.669 86.4251 123.334C87.8425 130.658 96.8649 134.664 96.8649 134.664C96.8649 134.664 103.126 137.887 107.594 135.802C112.061 133.717 114.899 128.381 116.349 123.102C117.279 119.714 116.365 116.796 116.06 110.896L116.058 110.896Z" fill="#FFB098"/>
<path d="M97.6134 108.252C97.6134 108.252 97.1793 108.218 96.7369 108.351C96.5837 108.396 93.9021 108.804 91.704 109.822C92.1655 110.024 92.4474 110.253 91.4395 110.106C91.4167 110.118 91.3939 110.129 91.3711 110.14C90.5657 110.561 89.9364 111.203 89.5442 111.956C89.1949 112.699 89.048 113.467 89.1155 114.116C89.1319 114.274 89.1547 114.365 89.1857 114.344C92.908 111.915 94.8598 111.641 97.7749 111.291C98.4717 111.207 98.894 110.518 98.624 109.9C98.3814 109.344 98.0239 108.826 97.6134 108.251V108.252Z" fill="#5A4747"/>
<path d="M115.134 107.542C115.107 107.536 115.081 107.53 115.054 107.524C114.086 107.881 114.295 107.601 114.694 107.308C112.146 106.804 109.31 106.99 109.139 106.978C108.649 106.946 108.224 107.072 108.224 107.072C107.997 107.712 107.808 108.286 107.746 108.873C107.676 109.524 108.328 110.095 109.058 110.026C111.727 109.769 113.636 109.618 117.115 110.609C117.193 110.126 117.28 109.634 117.374 109.137C117.151 109.135 116.939 109.135 116.772 109.137C116.969 109.079 117.198 109.003 117.412 108.939C117.422 108.887 117.432 108.834 117.443 108.781C116.817 108.201 116.026 107.757 115.134 107.541L115.134 107.542Z" fill="#5A4747"/>
<g opacity="0.29">
<path d="M97.9061 125.003C98.1758 123.101 96.8276 121.337 94.895 121.063C92.9624 120.789 91.1771 122.109 90.9074 124.01C90.6378 125.912 91.9859 127.676 93.9186 127.95C95.8512 128.224 97.6365 126.904 97.9061 125.003Z" fill="#8D2E2A"/>
</g>
<g opacity="0.29">
<path d="M114.463 126.116C112.513 126.045 110.982 124.432 111.045 122.512C111.108 120.592 112.74 119.093 114.69 119.163C115.467 119.191 116.171 119.471 116.741 119.912C116.738 121 116.642 122.032 116.347 123.105C116.07 124.116 115.671 125.1 115.22 126.06C114.975 126.103 114.723 126.126 114.464 126.116H114.463Z" fill="#8D2E2A"/>
</g>
<path d="M103.345 122.042C103.002 122.042 102.707 121.79 102.662 121.443C102.616 121.067 102.881 120.723 103.257 120.674C104.444 120.522 105.401 120.057 105.585 119.543C105.685 119.257 105.598 118.87 105.477 118.394C105.121 117.03 104.77 115.957 104.431 114.92C104.082 113.863 103.724 112.769 103.36 111.361C103.264 110.994 103.485 110.618 103.852 110.524C104.232 110.429 104.594 110.649 104.688 111.016C105.044 112.38 105.395 113.453 105.734 114.49C106.083 115.547 106.441 116.641 106.805 118.049C106.942 118.576 107.127 119.297 106.879 120.001C106.327 121.552 104.1 121.95 103.431 122.038C103.402 122.039 103.373 122.042 103.344 122.042H103.345Z" fill="#DE8B79"/>
<path d="M96.8672 117.885C97.7081 117.867 98.3575 117.234 98.3156 116.471L98.2289 114.883C98.187 114.12 97.471 113.515 96.6291 113.533C95.7882 113.55 95.1388 114.183 95.1807 114.947L95.2674 116.535C95.3093 117.298 96.0253 117.903 96.8672 117.885Z" fill="#0A0A0A"/>
<path d="M93.3328 115.52C93.4888 115.577 93.6694 115.561 93.8071 115.464C95.1597 114.527 96.3701 114.243 96.8644 114.421C97.1116 114.528 97.398 114.428 97.502 114.211C97.6059 113.993 97.4901 113.734 97.2429 113.633C97.221 113.623 97.1991 113.616 97.1763 113.607C96.0563 113.203 94.3397 113.973 93.1932 114.769C92.9853 114.914 92.9534 115.187 93.123 115.38C93.1805 115.444 93.2544 115.492 93.3337 115.521L93.3328 115.52Z" fill="black"/>
<path d="M112.739 115.881C113.512 115.9 114.133 115.348 114.127 114.645L114.113 113.185C114.107 112.483 113.475 111.899 112.702 111.88C111.93 111.861 111.308 112.413 111.315 113.116L111.328 114.576C111.335 115.278 111.967 115.862 112.739 115.881Z" fill="#0A0A0A"/>
<path d="M109.599 113.566C109.739 113.624 109.906 113.617 110.035 113.535C111.315 112.732 112.438 112.523 112.884 112.707C113.106 112.815 113.373 112.736 113.478 112.541C113.583 112.346 113.487 112.103 113.264 111.999C113.245 111.989 113.225 111.981 113.204 111.973C112.193 111.555 110.587 112.19 109.502 112.872C109.305 112.995 109.265 113.245 109.412 113.428C109.462 113.49 109.527 113.537 109.599 113.566Z" fill="black"/>
<path d="M42.1332 210.987C44.6479 200.343 60.583 158.939 60.583 158.939L76.1076 187.475L75.0897 191.354L61.5698 222.698C61.5698 222.698 56.9164 226.167 53.7268 225.917C43.2259 225.092 39.9761 220.113 42.1323 210.986L42.1332 210.987Z" fill="#FFF3E9"/>
<path d="M125.649 195.348C125.602 195.348 125.553 195.344 125.506 195.333C125.134 195.254 124.897 194.89 124.978 194.519L126.391 187.906C126.47 187.537 126.823 187.288 127.205 187.378C127.576 187.457 127.813 187.821 127.732 188.192L126.319 194.806C126.252 195.129 125.966 195.349 125.649 195.349V195.348Z" fill="#F3DDCD"/>
<path d="M85.9125 112.217C85.1655 110.473 83.3915 109.305 81.7114 109.45C80.0314 109.595 78.5729 111.044 78.2583 112.879C77.8806 115.082 79.0481 117.383 80.5449 119.014C81.57 120.131 82.8123 121.071 84.1932 121.375C85.5741 121.678 87.0991 121.242 87.9054 120.028L85.9125 112.217Z" fill="#FFB098"/>
<path d="M84.5541 116.027C84.275 116.027 84.0104 115.855 83.9083 115.576C83.3984 114.174 81.9427 113.119 80.4497 113.068C80.072 113.054 79.7747 112.737 79.7875 112.357C79.8012 111.986 80.1049 111.695 80.4743 111.695H80.4989C82.5602 111.766 84.4939 113.171 85.2007 115.107C85.3302 115.463 85.1469 115.859 84.7894 115.988C84.7109 116.015 84.6325 116.028 84.555 116.028L84.5541 116.027Z" fill="#DE8B79"/>
<path d="M83.0377 118.352C82.8635 118.352 82.6893 118.287 82.5552 118.153C80.7174 116.333 81.2628 114.435 81.7015 112.91C81.8018 112.545 82.1712 112.334 82.5507 112.44C82.9155 112.545 83.1253 112.925 83.0204 113.289C82.5488 114.93 82.3473 116.013 83.5211 117.178C83.792 117.444 83.7938 117.88 83.5257 118.148C83.3916 118.285 83.2147 118.352 83.0386 118.352H83.0377Z" fill="#DE8B79"/>
<path d="M58.8036 211.52L41.5013 215.289V232.221H63.6541L64.8352 215.128L58.8036 211.52Z" fill="#FFF3E9"/>
<path d="M110.929 92.8509C106.199 90.5524 100.563 90.2277 95.6039 91.968C90.6458 93.7082 86.4255 97.4925 84.1289 102.257L83.0444 109.017C85.0127 110.707 86.9454 112.724 89.9608 111.557C92.3724 110.624 95.5437 109.258 97.6552 107.753C100.286 105.88 102.842 103.902 105.318 101.825C107.006 100.408 108.722 98.9081 110.82 98.2568C112.919 97.6056 115.534 98.0571 116.73 99.9159C116.345 96.7765 113.75 94.2227 110.927 92.85L110.929 92.8509Z" fill="#594646"/>
<path d="M104.113 127.142C102.593 127.142 101.072 126.69 99.8494 125.803C99.5411 125.58 99.4736 125.15 99.6952 124.844C99.9169 124.535 100.348 124.468 100.655 124.689C102.463 126.004 105.077 126.138 107.008 125.02C107.337 124.828 107.755 124.945 107.948 125.271C108.138 125.6 108.026 126.02 107.697 126.211C106.617 126.835 105.365 127.143 104.113 127.143V127.142Z" fill="#DE8B79"/>
<path d="M103.309 129.749C103.284 129.749 103.257 129.749 103.23 129.745L102.052 129.611C101.676 129.568 101.406 129.228 101.448 128.851C101.491 128.478 101.796 128.173 102.208 128.247L103.386 128.381C103.762 128.424 104.032 128.763 103.99 129.141C103.95 129.492 103.652 129.749 103.308 129.749H103.309Z" fill="#DE8B79"/>
<path d="M64.9123 215.371C64.6615 215.371 64.4207 215.232 64.2994 214.993C63.8187 214.038 62.9714 213.272 61.9745 212.889C61.6215 212.752 61.4427 212.357 61.5786 212.001C61.7154 211.648 62.1177 211.47 62.4661 211.606C63.7786 212.109 64.8922 213.117 65.5243 214.376C65.6967 214.716 65.5599 215.127 65.2206 215.297C65.1221 215.348 65.0172 215.371 64.9123 215.371Z" fill="#F3DDCD"/>
<path d="M73.7584 193.905C73.6535 193.905 73.5486 193.882 73.4474 193.831C73.1099 193.661 72.9731 193.247 73.1455 192.908C74.5227 190.185 75.6984 187.323 76.6442 184.399C76.7601 184.039 77.1513 183.845 77.5071 183.957C77.8692 184.073 78.0662 184.46 77.9494 184.82C76.9835 187.813 75.7787 190.742 74.3704 193.53C74.25 193.769 74.0083 193.906 73.7575 193.906L73.7584 193.905Z" fill="#F3DDCD"/>
<path d="M145.525 191.716C145.446 191.716 145.368 191.702 145.292 191.676C144.934 191.546 144.748 191.152 144.879 190.798C145.284 189.675 145.472 188.454 145.422 187.26C145.407 186.88 145.702 186.561 146.08 186.545H146.109C146.476 186.545 146.78 186.834 146.796 187.203C146.852 188.574 146.637 189.978 146.172 191.263C146.072 191.545 145.807 191.717 145.526 191.717L145.525 191.716Z" fill="#F3DDCD"/>
<path d="M172.34 190.885C172.106 190.885 171.875 190.765 171.747 190.545C169.247 186.252 166.278 182.226 162.918 178.574C162.661 178.295 162.679 177.861 162.958 177.604C163.235 177.347 163.673 177.365 163.929 177.644C167.356 181.369 170.385 185.476 172.932 189.852C173.124 190.18 173.012 190.6 172.686 190.791C172.576 190.856 172.458 190.885 172.339 190.885H172.34Z" fill="#F3DDCD"/>
<path d="M28.9361 232.222V249.97C28.9361 250.893 29.4861 251.686 30.2705 252.023C30.5323 252.136 30.8196 252.199 31.1206 252.199H257.376C257.412 252.199 257.442 252.18 257.476 252.178H257.495C258.635 252.18 259.56 251.237 259.56 250.074V232.221H28.9361V232.222Z" fill="#6683C2"/>
<path d="M42.2713 240.151C41.2361 240.151 40.397 241.073 40.397 242.211C40.397 243.349 41.2361 244.27 42.2713 244.27H118.603V240.151H42.2713Z" fill="#4B6BAF"/>
<path d="M246.224 240.151H118.601V244.27H246.224C247.26 244.27 248.099 243.349 248.099 242.211C248.099 241.073 247.26 240.151 246.224 240.151Z" fill="#8299C9"/>
<path d="M118.602 245.788C120.577 245.788 122.178 244.187 122.178 242.212C122.178 240.236 120.577 238.635 118.602 238.635C116.627 238.635 115.026 240.236 115.026 242.212C115.026 244.187 116.627 245.788 118.602 245.788Z" fill="#F37E60"/>
<path d="M54.2961 252.728H1.21123C0.931119 252.728 0.703918 252.461 0.703918 252.133C0.703918 251.805 0.931119 251.538 1.21123 251.538H54.2969C54.577 251.538 54.8042 251.805 54.8042 252.133C54.8042 252.461 54.577 252.728 54.2969 252.728H54.2961Z" fill="#6683C2"/>
<path d="M286.395 252.728H58.9565C58.6764 252.728 58.4492 252.461 58.4492 252.133C58.4492 251.805 58.6764 251.538 58.9565 251.538H286.395C286.675 251.538 286.902 251.805 286.902 252.133C286.902 252.461 286.675 252.728 286.395 252.728Z" fill="#6683C2"/>
<path d="M237.423 64.3593C236.996 64.3593 236.574 64.25 236.182 64.0315C235.325 63.5534 234.791 62.6265 234.791 61.6103V39.1146C234.791 38.0985 235.324 37.1704 236.182 36.6923C237 36.2376 237.962 36.26 238.76 36.7475L257.019 47.9959C257.831 48.4975 258.315 49.381 258.315 50.3631C258.315 51.3452 257.831 52.2286 257.019 52.7302L238.76 63.9786C238.345 64.2324 237.885 64.3616 237.424 64.3616L237.423 64.3593ZM237.425 38.1314C237.261 38.1314 237.129 38.1889 237.042 38.2347C236.74 38.4051 236.558 38.7328 236.558 39.1135V61.6091C236.558 61.9898 236.739 62.3175 237.042 62.4879C237.191 62.5689 237.485 62.6864 237.832 62.4679L256.091 51.2195C256.377 51.0468 256.546 50.7237 256.546 50.3619C256.546 50.0001 256.376 49.677 256.091 49.5043L237.832 38.2559C237.685 38.1643 237.546 38.1325 237.425 38.1325V38.1314Z" fill="#F08F7A"/>
<path d="M244 76.0042C229.662 76.0042 218 64.3411 218 50.0042C218 35.6673 229.663 24.0042 244 24.0042C258.337 24.0042 270 35.6673 270 50.0042C270 64.3411 258.337 76.0042 244 76.0042ZM244 25.771C230.638 25.771 219.768 36.6412 219.768 50.003C219.768 63.3648 230.638 74.235 244 74.235C257.362 74.235 268.232 63.3648 268.232 50.003C268.232 36.6412 257.362 25.771 244 25.771Z" fill="#F08F7A"/>
<path d="M163.122 11.272H92.1969C82.6993 11.272 75 18.9713 75 28.4688V28.8806C75 38.3782 82.6993 46.0775 92.1969 46.0775H163.122C172.619 46.0775 180.318 38.3782 180.318 28.8806V28.4688C180.318 18.9713 172.619 11.272 163.122 11.272Z" fill="#B1D3FC"/>
<path d="M87.5235 41.0798C87.5235 41.0798 83.2973 50.2341 85.0884 52.667C86.8795 55.0999 99.0203 42.729 99.0203 42.729L87.5235 41.0798Z" fill="#B1D3FC"/>
<path d="M162.21 25.6984H93.1109C92.6626 25.6984 92.3014 25.3372 92.3014 24.8889C92.3014 24.4406 92.6626 24.0793 93.1109 24.0793H162.21C162.658 24.0793 163.02 24.4406 163.02 24.8889C163.02 25.3372 162.658 25.6984 162.21 25.6984Z" fill="#FFF3E9"/>
<path d="M122.686 33.268H93.1109C92.6626 33.268 92.3014 32.9068 92.3014 32.4585C92.3014 32.0102 92.6626 31.6489 93.1109 31.6489H122.686C123.134 31.6489 123.496 32.0102 123.496 32.4585C123.496 32.9068 123.134 33.268 122.686 33.268Z" fill="#FFF3E9"/>
<path d="M145.709 33.268H128.155C127.707 33.268 127.345 32.9068 127.345 32.4585C127.345 32.0102 127.707 31.6489 128.155 31.6489H145.709C146.157 31.6489 146.518 32.0102 146.518 32.4585C146.518 32.9068 146.157 33.268 145.709 33.268Z" fill="#FFF3E9"/>
<defs>
<clipPath id="clip0_42_1073">
<rect width="28" height="26" fill="white" transform="translate(198 158)"/>
</clipPath>
<clipPath id="clip1_42_1073">
<rect width="28" height="52" fill="white" transform="translate(220 116)"/>
</clipPath>
<clipPath id="clip2_42_1073">
<rect width="36" height="35" fill="white" transform="translate(201 192)"/>
</clipPath>
<clipPath id="clip3_42_1073">
<rect width="43" height="26" fill="white" transform="matrix(-0.984744 0.174011 0.174011 0.984744 205.344 110)"/>
</clipPath>
</defs>
</svg>
