<svg width="309" height="248" fill="none" xmlns="http://www.w3.org/2000/svg"><path d="M312.679 234.623c-.117.59-.236 1.175-.358 1.754-2.927 13.88-7.59 24.874-13.953 31.189-42.795 5.882-272.52 4.061-272.52 4.061-10.69-7.268-18.193-19.959-22.266-35.25a91.573 91.573 0 0 1-.45-1.754c-4.215-17.114-4.23-37.273.283-56.667.135-.585.276-1.17.421-1.754 4.872-19.696 14.449-38.479 29.075-52.326a92.199 92.199 0 0 0 5.859-6.095c13.627-15.445 24.521-36.655 37.29-56.666.372-.587.748-1.17 1.125-1.755C87.78 42.967 99.73 27.523 115.603 16.902c.897-.6 1.807-1.186 2.73-1.755a81.923 81.923 0 0 1 19.299-8.717c36.131-10.957 65.06-7.82 91.681 8.717.915.57 1.829 1.155 2.74 1.755 15.002 9.897 29.315 24.091 43.833 42.458.458.58.917 1.166 1.377 1.755a326.24 326.24 0 0 1 1.864 2.41c11.105 14.488 19.659 33.537 25.72 54.256a261.091 261.091 0 0 1 4.202 16.357l.06.266c.462 2.078.9 4.165 1.316 6.258v.003a292.464 292.464 0 0 1 3.689 23.674v.003a292.35 292.35 0 0 1 1.243 13.615c1.409 20.766.497 40.548-2.679 56.666h.001Z" fill="#EAEFFB"/><path d="M24.169 233.227c-.094.191-.23.398-.437.42-.181.019-.35-.125-.422-.296-.072-.173-.069-.366-.06-.554.04-.834.183-1.662.422-2.461.08-.269.18-.548.388-.732 1.261-1.117.356 3.126.109 3.623ZM18.443 233.059c.02.121.04.251.004.354-.066.19-.296.196-.462.071-.166-.125-.282-.336-.391-.539-.33-.618-.665-1.246-.848-1.925-.215-.798-.168-2.213.669-1.197.616.749.871 2.313 1.028 3.236Z" fill="#6683C2"/><path d="M28.82 192.766c.94-1.458 1.363-3.203 1.613-4.933.21-1.45.408-2.997.381-4.464-.022-1.19-.774-2.45-1.932-1.788-1.04.594-1.973 1.895-2.642 2.873a14.3 14.3 0 0 0-2.35 6.001c-.195 1.353-.636 4.274 1.108 4.84 1.37.446 3.18-1.533 3.823-2.529ZM20.55 191.9a23.1 23.1 0 0 1 1.795 6.787c.121 1.136.146 2.341-.357 3.361-.232.472-.617.914-1.125 1.001-.798.137-1.456-.619-1.88-1.325a16.16 16.16 0 0 1-2.197-9.671c.048-.533.13-1.084.42-1.53 1.14-1.758 2.837.217 3.344 1.377ZM30.78 196.699a18.277 18.277 0 0 1-2.639 4.975c-.467.624-.99 1.23-1.666 1.604-.279.155-.665.251-.884.015-.09-.095-.13-.229-.16-.358-.338-1.452.25-2.947.88-4.293.7-1.492 1.521-3.063 2.844-4.072 1.933-1.476 2.191.49 1.626 2.129h-.001Z" fill="#A1B2D7"/><path d="m22.208 219.371-.257-.009c.003-.064.25-6.469 1.258-14.144.931-7.09 2.722-16.744 5.965-22.482l.224.127c-3.223 5.701-5.006 15.321-5.934 22.387-1.007 7.664-1.253 14.058-1.256 14.122v-.001Z" fill="#E0BA89"/><path d="m21.802 218.768-.254-.038c1.03-6.783-.458-19.451-3.188-27.111l.243-.087c2.74 7.693 4.235 20.42 3.199 27.236ZM23.744 217.571c-.374-3.108-.059-7.172.842-10.873.774-3.178 2.358-7.687 5.51-11.128l.189.174c-5.738 6.261-6.901 16.692-6.286 21.796l-.256.031h.001Z" fill="#E0BA89"/><path d="M16.27 212.122c1.919-1.033 4.034-1.255 4.034-3.599V206.5c0-.215.221-.386.484-.375l2.171.093 2.171-.093c.263-.011.484.16.484.375v1.516c0 1.037.507 2.049 1.396 2.788.915.761 2.282.948 3.136 1.704.474.42.781.946 1.024 1.481 1.819 3.994-.35 8.344-1.519 12.278l-2.448 8.241-.034.116h-9.841l-1.694-7.784c-.425-1.95-1.789-8.045-1.84-9.182a7.57 7.57 0 0 1 .621-3.355c.365-.84.918-1.669 1.826-2.163l.03-.016v-.002Z" fill="#A1B2D7"/><path d="M19.347 210.313c.467.139.89.267 1.153.304 1.564.216 3.154.426 4.735.341a10.21 10.21 0 0 0 1.806-.255c.04.033.08.067.123.1.379.297.831.506 1.295.696-1.134.462-2.494.695-3.85.737-1.769.055-3.543-.193-5.253-.531a11.112 11.112 0 0 1-1.565-.457c.609-.262 1.155-.542 1.558-.935h-.002ZM23.657 209.065a26.684 26.684 0 0 1-3.617-.245c.009-.095.015-.194.015-.297v-.699c1.392.165 2.8.306 4.195.271.485-.012.97-.049 1.437-.112v.033c0 .303.047.603.136.896-.697.098-1.43.147-2.165.153ZM29.225 217.417c-.017.462-.062.983-.414 1.271-.062.051-.137.093-.216.087-.12-.011-.204-.128-.255-.242-.175-.394-.157-.845-.164-1.278-.015-.757-1.04-3.668-.17-3.761 1.427-.151 1.247 3.201 1.22 3.924v-.001ZM23.94 216.478l.002 2.218c0 .155-.001.32-.08.453-.153.261-.544.276-.788.103-.244-.173-.371-.47-.463-.759a5.794 5.794 0 0 1-.043-3.331c.157-.541.534-1.167 1.072-.71.397.337.298 1.558.3 2.026ZM23.609 230.628l.002 2.217c0 .156-.001.321-.08.454-.153.261-.544.276-.788.103-.244-.173-.371-.47-.463-.76a5.788 5.788 0 0 1-.043-3.33c.157-.541.534-1.167 1.072-.71.397.337.298 1.558.299 2.026ZM26.599 218.459c-.048.216-.132.458-.334.534-.178.066-.381-.035-.497-.188-.115-.153-.16-.348-.197-.538a10.737 10.737 0 0 1-.184-2.576c.015-.29.046-.595.209-.834.989-1.445 1.127 3.04 1.003 3.602ZM25.502 228.434c-.076.206-.191.436-.402.481-.184.041-.373-.087-.466-.255-.093-.168-.112-.367-.123-.561-.051-.861.003-1.729.16-2.577.053-.286.125-.584.317-.797 1.172-1.294.712 3.169.514 3.708v.001ZM27.875 224.343c-.084.203-.21.427-.422.463-.185.031-.369-.105-.455-.277-.087-.172-.096-.373-.1-.566-.012-.862.079-1.727.272-2.567.065-.283.15-.577.352-.782 1.227-1.239.574 3.198.353 3.728v.001ZM20.581 218.581c-.037.133-.079.274-.18.364-.19.167-.502.076-.662-.122-.159-.198-.202-.463-.242-.716-.119-.77-.238-1.554-.127-2.326.131-.907.942-2.333 1.532-.943.435 1.025-.045 2.733-.322 3.742l.001.001ZM21.192 228.641c-.036.134-.078.274-.18.364-.19.167-.503.076-.661-.121-.159-.198-.203-.464-.242-.716-.12-.77-.238-1.555-.127-2.326.13-.907.942-2.334 1.532-.943.434 1.025-.046 2.733-.322 3.741v.001ZM23.507 225.522c-.037.133-.079.274-.18.364-.19.167-.503.076-.662-.122-.158-.198-.203-.463-.242-.716-.119-.77-.238-1.554-.127-2.326.131-.907.942-2.333 1.532-.943.435 1.025-.046 2.733-.322 3.742v.001ZM18.22 214.313a6.88 6.88 0 0 1-.416 3.658.573.573 0 0 1-.132.218c-.148.131-.393.07-.525-.078-.132-.149-.177-.356-.211-.554a9.452 9.452 0 0 1-.116-2.295c.051-.713 1.153-2.488 1.4-.949ZM18.803 221.193a6.873 6.873 0 0 1 .5 3.647.582.582 0 0 1-.073.245c-.11.166-.363.17-.527.061-.164-.11-.26-.298-.342-.481a9.384 9.384 0 0 1-.678-2.189c-.127-.704.5-2.707 1.12-1.282v-.001Z" fill="#6683C2"/><path d="M297.727 226.924c0 7.097-6.304 7.685-14.078 7.685-3.814 0-7.318.222-9.853-1.114-2.633-1.387-4.225-2.955-4.225-6.571 0-5.695 4.307-12.35 9.928-14.597.667-.266.222-3.593-.995-5.671-.568-.97 1.384-1.287 3.346-.012-.213-1.325.954-1.927 1.763-1.927.809 0 1.585.423 1.685 1.882 1.17-1.206 3.541-1.023 2.918-.172-1.207 1.654-1.934 5.736-1.399 5.888 4.555 1.288 8.266 5.217 9.943 9.617.625 1.636.968 3.339.968 4.994l-.001-.002Z" fill="#A1B2D7"/><path d="M286.908 210.618h-7.253a.054.054 0 0 0-.053.054v1.205c0 .029.024.053.053.053h7.253a.054.054 0 0 0 .054-.053v-1.205a.054.054 0 0 0-.054-.054Z" fill="#6683C2"/><path d="M277.267 61.115H76.065c.372-.586.748-1.17 1.125-1.754h198.7c.459.58.917 1.165 1.377 1.755ZM232.044 16.903H115.595a86.39 86.39 0 0 1 2.73-1.755h110.98c.915.57 1.829 1.155 2.739 1.755ZM305.342 119.536H37.177a101.22 101.22 0 0 0 1.581-1.754h266.077c.171.584.34 1.168.507 1.754ZM315.354 177.957H3.412c.135-.585.276-1.17.421-1.754H315.23c.043.585.085 1.17.124 1.754ZM312.666 234.623c-.116.59-.235 1.175-.358 1.755H3.571a93.7 93.7 0 0 1-.45-1.755h309.545Z" fill="#A1B2D7"/><path d="M248.536 40.497h-36.358v18.866h36.358V40.497Z" fill="#A1B2D7"/><path d="M231.664 43.764c0-.66-.587-1.196-1.31-1.196-.724 0-1.31.536-1.31 1.196 0 .526.373.972.89 1.131v1.57h.839v-1.57c.517-.16.891-.605.891-1.131Z" fill="#6683C2"/><path d="M314.136 164.34v.002l-1.395 11.861-.003.03-.302-.03-8.127-.796 4.822-41.001c.462 2.078.901 4.165 1.317 6.258v.002a293.504 293.504 0 0 1 3.689 23.675l-.001-.001Z" fill="#A1B2D7"/><path d="m313.068 156.012-.893 7.587-4.37-.428 2.647-22.506a292.102 292.102 0 0 1 2.616 15.347Z" fill="#6683C2"/><path d="m309.054 134.139-7.452 42.031-10.849-1.602 7.612-42.931 10.473 1.546c.073.319.145.637.216.957v-.001Z" fill="#A1B2D7"/><path d="m300.83 165.448-5.626-.831 3.947-22.26 5.625.831-3.946 22.26Z" fill="#6683C2"/><path d="m286.631 176.065-5.516-1.307 10.077-35.437 5.515 1.307-10.076 35.437Z" fill="#A1B2D7"/><path d="m285.905 173.668-2.86-.678 8.893-31.275 2.86.678-8.893 31.275Z" fill="#6683C2"/><path d="M104.633 117.782v-5.378h-47.13v5.378h47.13Z" fill="#A1B2D7"/><path d="M93.296 116.487v-2.788H68.858v2.788h24.438Z" fill="#6683C2"/><path d="M107.93 112.406v-6.97H68.47v6.97h39.46Z" fill="#A1B2D7"/><path d="M98.44 110.728v-3.615H77.98v3.615h20.46Z" fill="#6683C2"/><path d="M96.055 105.559v-3.615H62.838v3.615h33.217Z" fill="#A1B2D7"/><path d="M94.105 104.69v-1.875H64.787v1.875h29.317Z" fill="#6683C2"/><path d="M169.602 103.727c2.854.409 5.955 1.159 7.654 3.489 1.898 2.602 1.971 5.803.766 8.789 5.89-4.437 9.643-10.408 11.604-17.517 1.243-4.503 1.537-9.21 1.65-13.88.075-3.13.068-6.304-.738-9.329-1.651-6.202-6.449-11.067-11.567-14.937-3.547-2.684-7.36-5.053-11.494-6.691a37.312 37.312 0 0 0-15.126-2.587c-2.327.09-4.743.435-6.671 1.74-1.179.8-2.105 1.912-2.984 3.032-3.724 4.75-6.927 10.011-8.59 15.814-1.923 6.71-1.703 13.928-.017 20.7 1.19 4.779 3.092 9.354 5.414 13.688.759 1.418 4.363 6.415 4.363 6.415s-.345-3.061 1.185-5.049c2.712-3.52 17.215-4.727 24.55-3.678l.001.001Z" fill="#28252B"/><path d="M178.571 130.392c-4.201-8.887-7.132-23.815-6.514-37.073.406-.753-20.845.003-20.438.756.617 13.258-1.51 27.43-5.711 36.317-1.356 2.871.994 7.508 2.403 10.288 1.637 3.229 3.654 6.251 6.245 8.795 1.72 1.689 4.672 4.103 7.604 4.989v.05c.027-.008.052-.018.079-.025.026.007.052.017.079.025v-.05c2.932-.886 5.884-3.3 7.603-4.989 2.592-2.544 4.609-5.566 6.246-8.795 1.409-2.779 3.759-7.417 2.402-10.288h.002Z" fill="#F1BBA2"/><path d="M170.799 105.771c.137-.095-11.346-1.935-19.151-3.172a100.941 100.941 0 0 1-.452 6.422c3.746 1.815 12.703 4.847 19.603-3.25Z" fill="#F1BBA2" style="mix-blend-mode:multiply" opacity=".28"/><path d="M188.202 66.115c-.743 5.24-3.73 18.336-5.583 22.904-3.758 9.268-8.634 17.084-19.185 20.213-1.513.449-3.086.591-4.617.136-8.609-2.561-15.128-11.457-18.283-19.172-2.303-5.633-4.617-11.282-6.31-17.135-2.442-8.437-4.097-16.336-.283-24.54 3.195-6.87 9.146-12.46 16.277-15.059 4.904-1.788 9.071-.608 13.993-.648 2.504-.02 4.24-.432 6.815.284 4.919 1.367 9.51 4.116 12.638 8.202 5.587 7.298 5.828 15.723 4.538 24.815Z" fill="#F1BBA2"/><path d="M190.231 48.956c-3.007-7.711-9.427-13.949-17.102-17.044-2.102-.848-4.055-.436-6.053-.92a6.069 6.069 0 0 1-.547-.162c-.524-.842-1.158-1.545-1.929-2.033-1.803-1.141-9.167-.448-13.696 1.143-20.387 7.165-23.445 29.304-23.675 32.503-.452 6.267-.566 12.563-.155 18.833.409 6.224 1.361 12.511 3.964 18.18 2.603 5.668 7.024 10.702 12.821 12.998-4.917-10.598-6.928-22.528-5.759-34.152.182-1.808.444-3.63 1.124-5.314.761-1.888 1.989-3.482 3.447-4.897 1.546-1.013 3.206-1.883 4.866-2.65 1.356-.626 2.74-1.212 4.118-1.809 3.234-1.4 6.435-2.86 9.174-5.043.301.21.608.41.916.597 2.252 1.373 4.693 2.417 7.051 3.6 1.371.687 2.715 1.42 3.978 2.292a22.175 22.175 0 0 1 6.614 7.188c.726 1.267 1.373 2.66 2.563 3.509 2.306 1.643 5.362-.907 6.53-2.888 4.204-7.13 4.756-16.218 1.749-23.93h.001Z" fill="#363537"/><path d="M173.267 82.71c-.132 1.565 1.216 2.8 2.455 1.339.533-.63.577-1.836.383-2.61-.211-.84-1.073-1.4-1.885-.908-.66.399-.892 1.46-.953 2.179Z" fill="#363537"/><path d="M161.17 97.16c-1.574 0-3.147-.222-4.675-.663a.13.13 0 0 1-.088-.16.128.128 0 0 1 .159-.087c2.963.855 6.099.869 9.07.038a.128.128 0 0 1 .069.248 16.83 16.83 0 0 1-4.536.622l.001.001ZM159.559 99.66a.128.128 0 0 1-.002-.257l2.663-.036c.073 0 .129.055.13.126a.128.128 0 0 1-.127.13l-2.662.037h-.002ZM162.679 91.484a.169.169 0 0 1-.035-.004 7.013 7.013 0 0 1-2.429-1.217c-.22-.172-.466-.384-.619-.666-.36-.658-.123-1.438.087-2.127l.022-.072c.682-2.246.793-4.65.323-6.948a.13.13 0 0 1 .1-.152.13.13 0 0 1 .152.1 14.47 14.47 0 0 1-.329 7.075l-.022.072c-.205.672-.415 1.365-.107 1.929.131.24.353.43.551.586a6.741 6.741 0 0 0 2.34 1.171.128.128 0 0 1-.034.252Z" fill="#A45236"/><path d="M178.685 77.294c-.035-.414-1.14-1.03-1.355-1.142a6 6 0 0 0-2.422-.655c-.953-.05-1.934.209-2.791.613-.581.274-2.079 1.149-.868 1.799.413.222.917.052 1.364-.09a10.245 10.245 0 0 1 5.208-.26c.19.04.39.085.576.027.218-.07.298-.172.288-.293v.001ZM150.893 82.71c.132 1.565-1.216 2.8-2.455 1.339-.534-.63-.577-1.836-.383-2.61.211-.84 1.073-1.4 1.884-.908.66.399.893 1.46.954 2.179ZM145.47 77.295c.035-.415 1.139-1.031 1.355-1.143a5.992 5.992 0 0 1 2.422-.655c.953-.049 1.934.21 2.791.613.58.274 2.078 1.15.868 1.8-.414.221-.918.052-1.365-.091a10.245 10.245 0 0 0-5.208-.26c-.19.04-.39.086-.576.028-.218-.07-.298-.172-.287-.293Z" fill="#363537"/><path d="M185.617 73.025c2.365-1.136 5.377.198 6.651 2.326 1.274 2.13 1.188 4.764.728 7.202-.301 1.595-.76 3.197-1.679 4.582-.918 1.385-2.353 2.54-4.046 2.881-1.692.34-3.618-.274-4.457-1.665-.301-.499-.453-1.066-.577-1.631-.832-3.786-1.208-11.492 3.38-13.695Z" fill="#F1BBA2"/><path d="M183.748 86.068a.049.049 0 0 1-.048-.046 11.165 11.165 0 0 1 2.142-7.16c1.174-1.586 2.649-2.449 4.041-2.37a.048.048 0 0 1 .045.05.047.047 0 0 1-.05.046c-1.936-.11-3.413 1.593-3.959 2.33a11.073 11.073 0 0 0-2.123 7.1.048.048 0 0 1-.045.05h-.003Z" fill="#A45236"/><path d="M184.376 81.806a.05.05 0 0 1-.042-.024.048.048 0 0 1 .018-.065c1.537-.883 3.337-.888 4.585-.014a.05.05 0 0 1 .012.067.05.05 0 0 1-.067.012c-1.217-.854-2.977-.846-4.482.018a.045.045 0 0 1-.024.006Z" fill="#A45236"/><path d="M132.466 74.344c-2.612-.244-4.974 2.051-5.43 4.49-.457 2.44.538 4.88 1.814 7.007.836 1.392 1.822 2.735 3.165 3.715 1.342.98 3.088 1.566 4.794 1.297 1.705-.267 3.298-1.513 3.602-3.108.109-.573.056-1.158-.024-1.73-.533-3.84-2.853-11.197-7.921-11.671Z" fill="#F1BBA2"/><path d="M138.704 86.018a.128.128 0 0 1-.123-.091 10.984 10.984 0 0 0-4.421-5.876c-.756-.495-2.705-1.564-4.445-.805a.127.127 0 0 1-.168-.067.128.128 0 0 1 .067-.169c1.305-.57 3.014-.268 4.688.826a11.253 11.253 0 0 1 4.526 6.016.128.128 0 0 1-.123.166h-.001Z" fill="#A45236"/><path d="M132.403 83.792a.129.129 0 0 1-.105-.202c.885-1.28 2.606-1.912 4.384-1.613.07.012.118.078.106.148a.13.13 0 0 1-.149.106c-1.68-.283-3.302.307-4.13 1.505a.13.13 0 0 1-.106.056Z" fill="#A45236"/><path d="M180.426 87.684c.823 9.829-.657 19.725-3.004 29.305 8.912-6.06 15.74-15.347 18.135-25.857.324-1.42.568-2.856.771-4.297 1.67-11.79 1.015-28.83-8.087-41.95-.909-1.31-8.046-.041-9.272-1.06-1.366-1.134 7.53 2.43 5.759 2.545-1.771.114-3.477.709-5.113 1.399a43.34 43.34 0 0 0-7.2 3.873c-.789.526-1.591 1.113-2.012 1.963-.489.988-.379 2.155-.257 3.25.342 3.08.633 4.32 2.358 6.897a44.263 44.263 0 0 1 3.986 7.449c2.096 4.987 3.935 11.02 3.935 16.485l.001-.002Z" fill="#363537"/><path d="M214.656 149.907c-6.089-8.273-16.781-10.763-25.629-14.877-4.689-2.18-8.845-4.252-12.034-8.395-.843-1.096-28.077-2.875-29.589.112-2.278 4.501-7.912 6.103-12.601 8.283-8.849 4.114-18.267 7.423-24.357 15.697-3.206 4.355-5.853 9.198-5 14.539.674 4.223 2.642 8.106 4.363 12.021 6.329 14.396 15.509 64.601 19.86 90.823 15.823 8.971 53.479 3.991 63.757.578 4.509-26.769 14.409-77.334 20.594-91.402 1.721-3.914 3.689-7.798 4.363-12.021.853-5.341-.522-11.003-3.728-15.359l.001.001Z" fill="#F1BBA2"/><path d="M197.636 138.623s-31.592 5.746-66.629-1.942c-16.223 4.287-27.368 17.627-34.89 34.121-11.113 24.364 20.957 7.557 22.769 45.094.061 1.258 1.776 3.018 1.715 2.874.888 2.105 1.002 4.979 1.447 7.228a1245.09 1245.09 0 0 1 2.972 15.57 1479.79 1479.79 0 0 1 4.657 26.543c15.823 8.971 53.479 3.991 63.757.578 4.509-26.769 14.409-77.334 20.595-91.402 1.72-3.915 4.04-24.749 1.773-28.159-4.927-7.411-18.165-10.506-18.165-10.506l-.001.001Z" fill="#fff"/><path d="M216.239 149.941c12.286 16.693 19.693 45.15 26.82 66.158 7.218 21.277 6.763 26.66 4.701 31.719-3.068 7.524-29.283-.493-34.687-12.582-5.405-12.091-13.371-35.161-16.711-45.566-3.339-10.404 1.52-36.766 19.877-39.73v.001Z" fill="#fff"/><path d="M197.635 230.697c0 17.312-18.763 31.347-41.909 31.347-10.507 0-20.11-2.891-27.465-7.669-4.71-3.059-8.499-6.892-11.012-11.234-.584-1.009-6.875-.256-7.762-.988-1.605-1.321-.893-13.218.429-14.791.456-.545 4.337-1.35 4.62-2.48 3.646-14.533 20.701-25.531 41.19-25.531 13.555 0 25.607 4.812 33.268 12.279 5.42 5.283 8.641 11.894 8.641 19.067Z" fill="#FCC583"/><path d="M135.291 210.681c-1.306.701-2.574.817-3.671.545a4.179 4.179 0 0 1-.26-.307c-.017-.022-.038-.04-.056-.06-2.612-2.851-3.695-10.878-2.984-12.771.08-.215.211-.353.385-.423.363-.149.912-.006 1.571.334 2.444 1.539 5.082 3.445 5.905 4.439 1.484 1.792 3.264 6.008-.89 8.241v.002ZM195.802 223.557c1.667.313 3.995.069 5.199-.903 2.151-1.737 3-4.523 3.558-7.173.232-1.346.799-4.04-.401-5.042-.773-.634-1.956-.138-2.421.659-.459.783-.422 1.736-.199 2.602.979 3.665 5.457 5.806 8.971 4.509 2.786-1.034 3.433-2.568 2.829-1.676-2.718 4.011-9.333 2.917-11.68-1.087-.857-1.458-1.347-3.615-.145-5.027.73-.832 2.094-1.186 3.004-.427 1.475 1.244 1.048 3.928.732 5.54-.484 2.179-.977 5.147-2.293 6.984-1.593 2.277-4.417 4.38-7.273 3.717-1.629-.347-1.996-3.072.118-2.675l.001-.001Z" fill="#FCC583"/><path d="M174.212 205.218c-4.414-1.299-9.854-2.186-15.761-2.441-5.985-.258-11.548.171-16.09 1.11-.2-.226-.428-.341-.718-.535 3.813-1.693 9.851-2.495 16.875-2.134 7.928.407 12.61 1.649 16.312 3.523-.181.13-.376.28-.617.477h-.001ZM128.517 220.994c.207-1.433-.169-2.673-.841-2.77-.671-.097-1.384.986-1.591 2.418-.207 1.433.169 2.674.841 2.771.671.097 1.384-.986 1.591-2.419Z" fill="#BD8440"/><path d="M114.099 145.607c-16.097 13.055-33.41 40.544-45.602 59.076-12.348 18.769-15.045 33.526-6.927 39.378 6.59 4.751 22.844-2.962 31.119-13.296 8.278-10.337 21.802-30.652 27.657-39.877 5.855-9.227 10.77-37.782-6.247-45.28v-.001Z" fill="#fff"/><path d="M131.873 181.703c-.051.042-.102.088-.155.135l-.113.103c-.843.772-3.913 1.794-5.375 3.512-11.593 13.612-38.443 53.323-46.95 57.374-9.7 4.619-16.487 2.814-19.334-2.146-4.053-7.059-1.22-15.494 6.373-23.884 7.152-7.905 42.797-32.732 53.047-45.003a22.62 22.62 0 0 0 1.586-2.108l.003-.003c3.049-4.674 11.647 2.006 12.461 7.675.235 1.63-.174 3.176-1.543 4.345Z" fill="#F1BBA2"/><path d="M124.639 167.718c-1.521-1.217-1.024-3.198.967-5.801 1.992-2.602 7.655-9.411 9.033-11.104 1.378-1.694 6.239-6.646 8.64-6.437 2.229.194-3.936 9.014-4.518 9.791-.583.777-7.684 9.387-9.109 11.199-1.424 1.812-3.258 3.756-5.012 2.351l-.001.001Z" fill="#F1BBA2"/><path d="M130.748 167.132c-1.52-1.217-1.024-3.199.968-5.801 1.991-2.603 7.654-9.411 9.032-11.105 1.377-1.694 6.213-6.645 8.639-6.436 2.231.191-3.935 9.014-4.517 9.791-.583.776-7.685 9.386-9.109 11.198-1.425 1.812-3.259 3.756-5.013 2.352v.001Z" fill="#F1BBA2"/><path d="M151.303 170.002c.962 1.276 2.051 2.95 2.842 3.478.79.528 6.327 4.435 2.467-3.151-3.86-7.587-2.904-7.125-4.977-9.884-2.075-2.758-8.774.529-14.689 3.269-6.125 2.837-6.913 5.702-6.111 7.055.802 1.354 3.196 3.112 7.004.269 3.783-2.825 9.721-6.61 10.802-4.909 1.081 1.701 1.838 2.781 2.662 3.873Z" fill="#F1BBA2"/><path d="M137.149 166.837c-1.521-1.216-1.024-3.198.967-5.801 1.991-2.602 7.655-9.41 9.033-11.104 1.377-1.694 6.598-7.046 8.64-6.437 2.144.64-3.936 9.014-4.518 9.791-.583.777-7.684 9.387-9.109 11.199-1.425 1.812-3.258 3.756-5.013 2.352ZM142.917 181.568c1.282 1.63 3.365 2.423 4.352 3.521.987 1.097 1.784 3.564-1.651 2.658-3.435-.906-4.48-2.05-7.281-3.094-1.924-.717-3.561-.095-5.839-.163-2.885-.087-2.815-1.878-5.452.163-3.133 2.423 18.448-23.83 15.924-20.909-2.297 2.656-5.872 7.607-5.131 11.99.374 2.214 3.989 4.448 5.079 5.834h-.001Z" fill="#F1BBA2"/><path d="M140.886 166.216s-.023.282-.068.772c-.051.548-8.047 14.232-9.112 14.85l-.19.112c-.857.516-2.432.101-3.228.736-.961.764-2.167 1.549-2.856 2.134-2.758 2.339-12.301-1.807-8.723-7.446 1.022-1.61 1.945-3.303 2.842-5.013.467-.89.927-1.784 1.39-2.675l.002-.003c1.409-2.707 2.849-5.369 4.61-7.727.407-.546.831-1.075 1.276-1.585 2.178-2.494 12.064 2.402 14.057 5.845Z" fill="#F1BBA2"/><path d="M132.745 161.294a.13.13 0 0 1-.103-.205c.044-.059 4.46-5.995 9.047-11.784a.128.128 0 0 1 .18-.021.129.129 0 0 1 .021.181 551.512 551.512 0 0 0-9.041 11.778.128.128 0 0 1-.103.051h-.001ZM138.182 162.512a.13.13 0 0 1-.103-.206c.049-.065 4.902-6.571 9.489-12.36a.128.128 0 0 1 .181-.02.127.127 0 0 1 .02.18c-4.584 5.787-9.436 12.289-9.484 12.354a.125.125 0 0 1-.103.052Z" fill="#E8825F"/><path d="M248.118 240.44c-2.838-7.629-11.136-10.841-22.438-10.361-11.302.479-51.71 14.731-65.076 13.188-7.135-.824-6.229 12.621 1.783 13.507 8.012.887 65.274 4.424 75.025-.087 9.751-4.511 12.7-10.886 10.706-16.247Z" fill="#F1BBA2"/><path d="M138.59 251.387c-.658-4.016-.993-7.914-.289-11.701 2.409.252 5.645.418 7.88.826 3.42.641 6.718 1.727 10.126 2.61 1.747.446 3.053-.688 4.666-.564 1.865.145 8.032.344 11.513-.199 2.201-.343-.384 5.018.309 7.091.086.255.166.517.143.757-.026.286-.201.503-.37.706-1.846 2.211-1.548 6.32-4.762 6.32-4.17 0-8.62.343-11.91.328-4.777.024-11.21-.199-16.39-.33-1.124-2.177-.545-3.639-.916-5.844Z" fill="#F1BBA2"/><path d="M122.152 238.009c-.727-.038-1.484-.071-2.174.102-.69.174-1.317.6-1.414 1.204a.764.764 0 0 0 .176.645c.202.225.539.333.848.425 7.324 2.116 13.369 2.943 20.777 4.425 2.665.492 1.142-3.559-.116-4.418-1.081-.724-2.272-.739-3.555-.923-4.568-.658-9.307-1.187-14.542-1.46ZM139.066 244.777c.211.714-17.077-3.568-22.42-2.849-.569.076-1.111.353-1.407.845-.897 1.487.012 4.97 23.487 9.388 1.673.354 3.338.666 4.992.936a75.036 75.036 0 0 1-4.651-8.32h-.001Z" fill="#F1BBA2"/><path d="m138.696 248.57-.017-.001c-6.93-.93-14.541-2.246-23.25-5.55a.128.128 0 1 1 .091-.239c8.684 3.293 16.278 4.606 23.192 5.534.07.01.12.074.111.145a.13.13 0 0 1-.127.111Z" fill="#E8825F"/><path d="M150.951 237.208c-1.613-.567-3.179-1.205-4.838-1.436-1.477-.206-2.878-1.341-4.015-2.312-.201-.171-.518-.065-.629.211-.482 1.204-.299 2.628.34 3.749.733 1.287 1.957 2.231 3.222 3.056 1.266.827 2.611 1.583 3.766 2.664.757.708 1.428 1.549 2.267 2.213.949.748 1.892.879 2.981 1.105 1.376.285 2.76.414 4.13.497 1.365.113 5.345.237 5.736-1.427.402-1.716-2.081-2.852-3.285-3.691-3.303-2.252-6.453-3.497-9.675-4.628v-.001Z" fill="#F1BBA2"/><path d="M153.775 182.8a6.887 6.887 0 0 0 0-9.737 6.881 6.881 0 0 0-9.734 0 6.887 6.887 0 0 0 0 9.737 6.881 6.881 0 0 0 9.734 0Z" fill="#F2C45B"/><path d="M148.916 183.625a5.655 5.655 0 0 1-4.447-2.127 5.66 5.66 0 0 1-1.223-4.184 5.659 5.659 0 0 1 2.092-3.823 5.657 5.657 0 0 1 4.182-1.223 5.702 5.702 0 0 1 5.045 6.277 5.662 5.662 0 0 1-2.093 3.823 5.645 5.645 0 0 1-3.555 1.257h-.001Zm-.021-11.133a5.39 5.39 0 0 0-3.396 1.201 5.4 5.4 0 0 0-1.998 3.649 5.404 5.404 0 0 0 1.168 3.995 5.398 5.398 0 0 0 3.649 1.998 5.392 5.392 0 0 0 3.992-1.168 5.405 5.405 0 0 0 1.999-3.65 5.443 5.443 0 0 0-5.414-6.025Z" fill="#D1990A"/><path d="M148.849 172.491a.128.128 0 0 1-.128-.128v-1.154a.128.128 0 1 1 .256 0v1.154a.128.128 0 0 1-.128.128ZM148.849 184.778a.128.128 0 0 1-.128-.128v-1.155c0-.071.057-.128.128-.128.071 0 .128.057.128.128v1.155a.128.128 0 0 1-.128.128ZM155.552 178.058h-1.154a.128.128 0 0 1 0-.257h1.154a.128.128 0 0 1 0 .257ZM143.259 178.058h-1.154a.128.128 0 0 1 0-.257h1.154a.128.128 0 0 1 0 .257ZM152.809 174.123a.127.127 0 0 1-.09-.038.126.126 0 0 1 0-.181l.815-.816a.127.127 0 0 1 .182 0c.05.05.05.132 0 .181l-.816.816a.129.129 0 0 1-.091.038ZM144.138 182.812a.127.127 0 0 1-.09-.038.127.127 0 0 1 0-.182l.816-.816c.05-.05.131-.05.181 0a.127.127 0 0 1 0 .182l-.816.816a.129.129 0 0 1-.091.038ZM153.625 182.812a.13.13 0 0 1-.091-.038l-.815-.816a.127.127 0 0 1 0-.182c.05-.05.131-.05.181 0l.816.816a.13.13 0 0 1-.091.22ZM144.954 174.123a.127.127 0 0 1-.09-.038l-.816-.816a.126.126 0 0 1 0-.181.126.126 0 0 1 .181 0l.816.816a.126.126 0 0 1 0 .181.129.129 0 0 1-.091.038Z" fill="#D1990A"/><path d="M132.653 161.294c-1.084 0-2.162-.589-2.591-1.019a.128.128 0 1 1 .181-.182c.387.386 1.41.944 2.411.944h.064a.129.129 0 1 1 .007.257h-.072ZM138.11 162.513c-1.084 0-2.162-.59-2.591-1.019a.128.128 0 0 1 0-.182.128.128 0 0 1 .182 0c.386.386 1.409.944 2.41.944h.065c.074 0 .13.055.131.125a.129.129 0 0 1-.125.132h-.072ZM144.996 160.666a.128.128 0 0 1-.118-.078.128.128 0 0 1 .067-.169l2.513-1.078a.13.13 0 0 1 .169.067.13.13 0 0 1-.068.169l-2.513 1.077a.125.125 0 0 1-.05.011v.001ZM132.725 167.567c-2.391 0-4.647-.306-5.684-.47a.129.129 0 0 1 .04-.254c1.376.217 4.914.686 8.038.347 1.469-.16 3.499-.789 5.169-1.603a.129.129 0 0 1 .172.059.13.13 0 0 1-.059.172c-1.695.826-3.758 1.465-5.254 1.628-.795.086-1.616.121-2.421.121h-.001ZM126.74 172.496a.13.13 0 0 1-.047-.249c4.115-1.601 11.11-2.21 12.056-2.21.072 0 .129.057.129.129a.128.128 0 0 1-.129.128c-.938 0-7.88.605-11.963 2.193a.125.125 0 0 1-.046.009Z" fill="#E8825F"/><path d="M129.426 174.887a.13.13 0 0 1-.047-.008.128.128 0 0 1-.072-.166c.372-.957 2.811-3.169 4.892-4.207a.128.128 0 0 1 .115.23c-1.998.997-4.419 3.173-4.768 4.07a.127.127 0 0 1-.12.082v-.001Z" fill="#E8825F"/></svg>