<svg width="187" height="183" fill="none" xmlns="http://www.w3.org/2000/svg"><g clip-path="url(#a)"><path d="M-43.389 145.022c34.831 21.93 81.305 10.744 103.801-24.986C82.91 84.306 72.91 37.563 38.08 15.632 3.248-6.298-43.225 4.888-65.722 40.618-88.22 76.348-78.22 123.09-43.39 145.022Z" fill="#F2C45B"/><path d="M161.607 156.612c-14.038 22.23-43.49 28.903-65.784 14.907-22.293-13.995-28.989-43.361-14.95-65.591 14.037-22.229 43.49-28.903 65.783-14.908 22.295 13.997 28.988 43.364 14.951 65.592Z" fill="#7FCBB4"/><path d="M131.549 65.359c-8.56 13.555-26.394 17.704-39.837 9.265-13.44-8.437-17.397-26.266-8.837-39.822 8.56-13.555 26.395-17.704 39.835-9.267 13.443 8.44 17.399 26.268 8.839 39.824Z" fill="#68CCEA"/><path d="M82.567 258.66c-21.51 34.061-66.324 44.487-100.104 23.281-33.77-21.201-43.713-66.001-22.203-100.063s66.325-44.488 100.097-23.287c33.78 21.207 43.719 66.007 22.21 100.069Z" fill="#6683C2"/></g><defs><clipPath id="a"><path d="M0 0h187v183H20c-11.046 0-20-8.954-20-20V0Z" fill="#fff"/></clipPath></defs></svg>