<svg width="886" height="524" fill="none" xmlns="http://www.w3.org/2000/svg"><g clip-path="url(#a)"><path d="M-54.67 602.447H45.423c.195-.259.394-.518.589-.777l.398-.515c.058.431.125.862.208 1.292h58.884c26.832-22.104 53.136-43.661 80.358-65.309-17.611 20.962-34.326 42.737-49.846 65.309h75.574a1534.024 1534.024 0 0 1 22.923-18.302c-.909.64 5.39-3.978.095-.067 2.569-1.761 31.812-25.396 80.106-58.124-24.375 23.434-48.713 48.395-74.064 76.498h78.803c30.687-25.187 61.22-49.237 101.538-78.74a2683.909 2683.909 0 0 1 18.537-13.447 1367.855 1367.855 0 0 0-25.106 27.559c-18.586 20.987-36.517 42.552-53.813 64.628h80.994c13.229-10.565 24.167-19.236 37.081-29.315 33.505-26.099 68.37-52.123 102.584-76.097-17.652 17.04-34.957 34.451-51.846 52.273a1663.036 1663.036 0 0 0-48.202 53.139h90.351c11.735-8.7 23.516-17.345 35.371-25.877-1.186 1.35-2.373 2.701-3.556 4.057a1021.042 1021.042 0 0 0-18.4 21.815h99.555a1958.31 1958.31 0 0 1 16.848-12.342c.718-.519 1.436-1.033 2.154-1.548-1.083 1.18-2.183 2.347-3.266 3.535a908.39 908.39 0 0 0-9.275 10.355h235.441a227.598 227.598 0 0 0 2.203-6.047c3.27-9.445-1.556-20.708-8.951-26.463-3.203-2.497-6.552-3.982-9.984-4.647a1066.13 1066.13 0 0 1 17.607-14.141c8.295-6.512 9.349-22.004 3.905-30.511-5.689-8.892-17.59-15.429-28.209-11.569a969.686 969.686 0 0 0-81.658 33.97 2416.696 2416.696 0 0 1 31.007-27.671c16.204-14.233 32.55-28.307 48.899-42.373 8.034-6.914 9.536-21.707 3.905-30.511a30.004 30.004 0 0 0-8.963-9.035c-4.693-3.049-13.918-4.768-19.246-2.538-29.924 12.526-58.834 26.872-86.948 42.611.933-.715 1.867-1.435 2.805-2.146 4.83-3.655 9.693-7.269 14.586-10.837a1056.524 1056.524 0 0 1 31.878-22.351c10.839-7.315 16.578-22.535 8.963-34.447-7.59-11.866-19.333-15.601-34.177-9.034a891.799 891.799 0 0 0-20.221 9.252c-8.893 4.203-16.126-8.198-8.171-14.003a1759.67 1759.67 0 0 1 19.919-14.317c24.781-17.562 8.498-52.026-19.247-46.016-54.045 11.703-113.875 47.706-163.439 79.258 53.398-42.607 59.83-40.879 63.499-54.309 1.647-6.027.904-14.053-2.519-19.399-3.44-5.374-8.557-10.109-14.927-11.568-6.963-1.598-12.764-.343-19.246 2.538-20.927 9.294-41.455 19.415-61.643 30.185-2.98-13.446-18.541-24.162-30.849-18.934-1.988.845-3.971 1.702-5.959 2.556l-.008-.017c-2.66 1.761-45.941 18.612-109.647 51.792-11.188 5.826-21.271-9.427-11.615-17.575 2.971-2.505 5.942-5.015 8.917-7.524 9.524-8.035 8.96-23.92 1.955-33.059-7.814-10.193-21.014-12.305-32.222-6.483-33.596 17.45-66.125 36.706-97.833 57.263-10.187 6.604-21.209-7.094-12.694-15.772.253-.26.511-.519.764-.778 8.785-8.951 9.511-23.201 1.954-33.059-7.266-9.477-21.715-13.359-32.222-6.483a1073.684 1073.684 0 0 0-83.475 60.504c-3.805 3.045-8.735-2.011-5.639-5.788a1211.162 1211.162 0 0 1 29.164-34.276c21.723-24.58-8.839-57.287-35.327-35.605a867.242 867.242 0 0 0-50.543 44.794c-5.037 4.827-13.333 1.138-13.266-5.868v-.368c0-24.309-31.326-32.515-42.642-17.805C7.678 410.81-34.217 488.96-64.888 574.763c-3.518 9.846 1.694 21.749 10.217 27.68v.004Z" fill="#FCF7ED" fill-opacity=".52"/><path stroke="#fff" stroke-width=".872" d="M677.511 453.564h-4.361"/><path d="M905.98 263.871c-42.254 6.168-32.005 24.112-61.212 39.774 29.239 6.542 66.489 1.565 66.489 1.565s8.39-3.13 0 19.732c-8.389 22.862 0 54.489-4.971 62.945 15.846-9.705 39.148-54.18 39.148-54.18s3.478 2.814 11.189 12.526c7.704 9.711 20.503 13.15 23.922 19.416 4.266-18.476 0-47.914 0-47.914s-14.992 3.913 14.293 8.141c29.282 4.227 59.002-11.744 74.842-6.109-21.13-31.002-68.94-52.45-50.25-48.38.96.21-90.781 18.792-113.457-7.516h.007Z" fill="#266E70"/><path d="M935.188 260.425c.619-36.637 16.217-53.24 30.015-61.38 13.797-8.14 38.517-28.497 53.547-31.193-21.712 22.547-27.322 72.847-47.519 92.573 20.986-16.701 33.419-25.755 50.499-23.02 27.46 4.392 53.9 18.95 82.79 28.97-14.29 8.772-70.26 20.042-77.08 19.733-6.81-.316-41.296-4.695-41.296-4.695 22.066 21.297 26.796 72.341 38.406 79.856-23.49-2.189-69.478-25.992-78.801-51.043-12.427 24.111-84.513 42.278-96.628 62.004 2.799-20.666 23.922-66.706 39.462-82.361 15.532-15.656 33.244-16.912 33.244-16.912s-88.552 2.19-112.474-25.367c37.596 2.821 64.317-20.357 85.447-18.161 21.13 2.19 38.528 22.547 40.394 31.002l-.006-.006Z" fill="#3A8585"/><path d="M913.102 254.198c-8.298-4.103-17.131-3.623-26.225-4.576-2.009-.211-2.166 1.308-.176 1.518 8.539.895 17.02 1.934 24.816 5.793 1.807.894 3.405-1.834 1.585-2.735Z" fill="#8CC2BD"/><path d="M751.007 201.228c-47.687 48.861-125.567 9.021-127.171-.947-4.932-30.653 4.07-44.152-1.899-59.177-5.982-15.024-13.054-30.095-11.416-54.272 1.318-19.693 9.661-43.521 22.056-62.36C644.235 6.74 659.468-6.575 675.803-7.89c9.909-.808 20.23 2.821 30.407 12.552 12.427-6.858 42.195 16.498 44.797 45.646 8.559 95.216 47.708 102.067 0 150.928v-.007Z" fill="#363537"/><path d="M759.704 104.664c-1.083-1.71-3.804-.125-2.714 1.597 8.5 13.427 17.274 27.485 20.667 43.252 3.627 16.866-.992 37.381-19.597 42.391-1.951.526-1.122 3.583.835 3.051 15.343-4.129 23.335-19.141 23.224-34.454-.15-20.449-11.88-39.209-22.415-55.844v.007Z" fill="#363537"/><path d="M779.738 176.124c-.933-15.346-6.191-29.904-14.769-42.561-1.135-1.67-3.856-.092-2.714 1.598 6.85 10.106 11.619 21.395 13.53 33.527 2.061 13.045 2.414 30.838-11.116 37.689-1.807.914-.216 3.649 1.585 2.735 12.258-6.207 14.241-20.429 13.478-32.988h.006ZM641.959 167.215c-12.513.881-19.278-15.189-23.896-24.756-5.082-10.507-8.938-21.843-10.269-33.501-1.2-10.534-.176-21.126 3.38-31.127 3.79-10.665 9.172-23.507 17.711-31.173 1.514-1.361-.717-3.59-2.224-2.236-9.075 8.147-14.528 21.225-18.521 32.574-4.266 12.131-4.906 24.973-2.681 37.604 2.342 13.328 7.626 26.064 14.248 37.787 4.951 8.765 10.901 18.806 22.252 18.003 2.002-.138 2.022-3.307 0-3.169v-.006Z" fill="#363537"/><path d="M629.949 217.469c-14.763-12.697-15.461-34.145-14.026-52.234 1.474-18.614 5.362-36.953 3.888-55.705-.156-2.019-3.301-2.039-3.144 0 1.702 21.626-3.836 42.712-4.352 64.246-.391 16.484 2.303 34.658 15.409 45.928 1.533 1.315 3.764-.914 2.218-2.235h.007Z" fill="#363537"/><path d="M741.124 186.907s36.552 18.069 43.389 22.455c6.837 4.385 15.95 18.45 21.13 50.182 17.477 107.097 34.817 100.417 32.795 127.941 3.451 8.166 6.288 13.722 8.232 16.537 1.475 2.137 2.845 17.082-.619 27.76-1.742 5.372 4.142 24.69 4.762 28.589.62 3.899-18.808 45.185-32.312 45.185H711.899s-93.66 6.654-91.619-4.162c2.042-10.816-12.114-33.27-16.067-51.675-17.184-16.023-45.013-26.945-45.542-62.438-.326-21.896-.737-47.749 9.042-122.181 5.519-42.022 17.933-52.977 23.544-55.324 1.97-.822 47.322-22.869 47.322-22.869h102.552-.007Z" fill="#9ED2EC"/><path d="M692.431 282.905c-.15-2.025-3.23-1.38-3.079.632a690.674 690.674 0 0 1 1.663 70.677c-.052 2.032 3.079 2.255 3.131.217a699.558 699.558 0 0 0-1.715-71.526Z" fill="#446C8F"/><path d="M653.399 183.368c-11.202 30.273 20.627 90.916 35.527 100.102 35.867-31.732 38.751-86.149 37.179-101.351-.914-.158-8.351-6.746-8.409-13.104-30.042-5.103-50.859-1.979-58.485-.224-1.194 6.174-5.812 14.584-5.812 14.584v-.007Z" fill="#F1BBA2"/><path d="M655.884 149.474c1.351 5.694 4.43 28.602 6.146 32.85 8.35 20.666 19.342 22.546 26.133 22.546 7.339 0 21.365-3.55 27.374-22.132 2.061-6.371 2.152-16.326 3.985-34.868-31.339-6.24-63.644 1.597-63.644 1.597l.006.007Z" fill="#F1BBA2"/><path d="M718.893 156.516c-16.577 28.813-40.708 49.972-59.685 12.27-.176-1.046-2.12-12.848-2.12-12.848l61.837-1.302-.032 1.88Z" fill="#CD9A82"/><path d="M735.132 86.62c17.803-2.873 16.087 25.841-2.329 39.689 0 0 0-34.303 2.329-39.688ZM636.245 86.621c-17.803-2.873-21.13 22.165 2.329 39.688 0 0 0-34.303-2.329-39.688Z" fill="#F1BBA2"/><path d="M741.21 66.56c0-22.994-8.677-52.405-53.951-52.405s-54.048 29.076-54.048 58.48c-.137 22.573 1.435 37.512 6.393 56.265 5.499 20.791 19.317 30.627 34.641 42.265 2.205 1.677 7.554 4.123 13.014 4.366 5.461-.243 10.81-2.689 13.015-4.366 15.324-11.638 30.902-21.474 34.64-42.265 3.719-20.699 8.018-40.438 6.302-62.34h-.006Z" fill="#F1BBA2"/><path d="M711.892 100.547c0-3.498 2.212-6.332 4.939-6.332s4.938 2.834 4.938 6.332c0 3.498-2.211 6.332-4.938 6.332s-4.939-2.834-4.939-6.332ZM657.087 100.548c0-3.498 2.212-6.332 4.939-6.332s4.938 2.834 4.938 6.332c0 3.498-2.211 6.332-4.938 6.332s-4.939-2.834-4.939-6.332Z" fill="#363537"/><path d="M690.32 134.699a2.699 2.699 0 0 1-2.453-1.584 2.726 2.726 0 0 1 1.324-3.61c2.708-1.256 2.518-4.188 1.07-10.297-.287-1.203-.554-2.347-.744-3.439-.247-1.479.738-2.886 2.205-3.136 1.468-.257 2.864.743 3.112 2.222.157.921.405 1.973.672 3.091 1.246 5.247 3.125 13.17-4.058 16.504-.365.171-.75.249-1.128.249Z" fill="#CD9A82"/><path d="M708.998 77.678c-5.31.54-10.698 7.516-5.897 7.28 20.341-.98 27.321 3.366 27.817 2.347 1.311-2.69-8.018-11.047-21.92-9.627ZM666.326 77.896c5.336-.118 10.882 7.24 6.074 7.127-20.361-.46-24.327 3.34-24.992 2.42-1.997-2.761 6.654-9.278 18.912-9.547h.006Z" fill="#363537"/><path d="M665.393 137.868c16.883 4.208 29.057 3.755 45.542 0 0 0-6.217 16.767-22.278 16.767-16.062 0-23.264-16.767-23.264-16.767Z" fill="#5D1A1C"/><mask id="b" style="mask-type:luminance" maskUnits="userSpaceOnUse" x="665" y="137" width="46" height="18"><path d="M665.393 137.868c16.883 4.208 29.057 3.755 45.542 0 0 0-6.217 16.767-22.278 16.767-16.062 0-23.264-16.767-23.264-16.767Z" fill="#fff"/></mask><g mask="url(#b)"><path d="M689.044 168.188c10.632 0 19.251-5.479 19.251-12.237s-8.619-12.236-19.251-12.236c-10.632 0-19.251 5.478-19.251 12.236 0 6.758 8.619 12.237 19.251 12.237Z" fill="#ED4053"/><path d="M688.163 145.719c12.135 0 21.972-4.686 21.972-10.468 0-5.781-9.837-10.467-21.972-10.467-12.135 0-21.972 4.686-21.972 10.467 0 5.782 9.837 10.468 21.972 10.468Z" fill="#fff"/></g><path d="M739.163 104.776c1.083-43.24-26.623-42.082-32.077-74.471-1.05 8.994-10.386 16.07-22.102 23.052-7.352 4.386-15.644 8.726-23.407 13.486-16.413 10.067-30.491 21.988-28.384 40.037l-8.592 29.858s-14.091-83.105 8.592-105.644a108.689 108.689 0 0 1 9.863-8.706c12.643-9.751 24.49-13.73 34.922-14.663 14.717-1.295 26.609 3.432 33.909 6.43 13.791 5.668 44.877 20.233 27.269 90.621h.007Z" fill="#363537"/><path opacity=".26" d="M677.495 48.906c-4.554-4.78 5.291-12.303 5.793-17.208.202-2.15-.235-3.971-1.448-5.747-2.01-2.913-5.957-3.274-7.979-5.733-3.549-4.32 2.029-5.24 3.66-8.706.848-1.788.737-2.551.457-3.78-.092-.428-.203-.901-.301-1.506-.189-1.092-1.448-1.25-1.82-2.183-2.7-6.536-1.996-4.656-1.161-8.456.248-1.203.659-2.34 1.096-3.485-16.335 1.315-31.574 14.63-43.225 32.363 3.346-.44 7.887-2.55 10.49-2.07 1.807.348 2.687 1.932 1.604 6.173-.959 3.755-3.47 9.594-.456 13.125 1.083 1.269 2.479 1.663 4.07 1.867 1.931.27 6.518-1.867 7.822-.967 2.701 1.868-4.429 12.204-3.973 15.972.646 5.365 4.162 4.734 7.731 6.68.861.473 1.416 1 1.729 1.598 7.756-4.767 16.054-9.107 23.406-13.486-1.976-2.486-5.61-2.453-7.495-4.451Z" fill="#9ED2EC"/><path d="M718.029 164.531c6.159 3.787 20.224 17.168 25.508 27.294 10.816 20.731-20.935 118.906-26.708 117.322l-28.671-26.722c7.952-9.337 35.612-56.817 32.344-104.067-3.999-2.827-3.079-7.962-2.473-13.827Z" fill="#fff"/><path d="M655.878 180.701c-3.151 41.937 22.474 87.779 32.285 101.725-10.946 10.856-31.072 26.742-31.072 26.742-18.951-37.21-24.313-68.238-25.912-91.08-1.304-18.622 6.648-36.677 21.307-48.092 3.588-2.794 6.132-4.787 6.132-4.787 1.787 10.317.593 13.776-2.734 15.492h-.006Z" fill="#fff"/><path d="M789.791 253.85c-3.536 11.119-9.962 19.476-17.125 28.649-1.239 1.584.972 3.84 2.218 2.242 7.502-9.607 13.132-20.206 16.831-31.844.62-1.946-1.311-.98-1.924.96v-.007ZM588.276 226.918c-.6-1.94-1.338.545-.737 2.498 5.049 16.366 8.676 33.33 7.867 50.643-.861 18.292-5.656 37.038-8.637 55.094-.333 1.992 2.701 2.847 3.027.841 3.033-18.364 7.88-37.321 8.748-55.935.828-17.642-5.134-36.499-10.268-53.141Z" fill="#446C8F"/><path d="M780.535 392.066c.581-10.303-5.271-18.831-1.318-28.076a79.398 79.398 0 0 0 6.152-24.835c1.546-18.805-4.586-34.914-9.459-52.654-5.91-21.501 1.416-38.419 6.211-58.954.463-1.979-.633-3.853-1.096-1.867-3.908 16.734-12.376 33.133-10.367 50.741 1.116 9.81 4.971 18.943 7.731 28.346 3.001 10.238 4.534 20.896 4.025 31.581-.528 11.092-3.568 21.1-8.213 31.081-2.368 5.083 6.236 10.106 4.736 15.445-1.318 6.418-1.911 10.336-1.024 15.044.535 2.841 1.748 5.241 2.557 7.963 1.435 4.806 4.169 5.641.731 14.459-1.031 2.636-.64 4.517 1.096 6.93 2.505 3.485 4.684 2.545 4.631 8.817-.013 1.44-.43 3.084-.978 4.761l4.162-2.722c.496-2.006.718-3.952.346-5.661-.724-3.308-3.856-4.189-5.448-6.806-2.25-3.682.888-7.055 1.37-10.408.287-2.026-.208-3.663-.737-5.609-.939-3.452-3.177-6.464-4.11-9.968a29.92 29.92 0 0 1-1.004-7.627l.019.019h-.013Z" fill="#446C8F"/><path d="M830.771 427.652c-8.272-.638-16.785-1.295-24.92.789-7.033 1.802-13.093 5.806-19.056 9.811-8.109 5.444-16.061 9.895-25.938 11.006-8.983 1.013-18.09-.124-27.014-1.209-2.003-.244-1.983 2.926 0 3.169 15.807 1.92 31.835 3.228 46.213-4.912 6.778-3.84 12.8-9.008 19.871-12.342 9.753-4.596 20.406-3.951 30.851-3.142 2.015.157 2.009-3.012 0-3.17h-.007ZM821.541 380.758c-15.722 14.097-27.425 29.707-34.399 49.715-.672 1.927 2.362 2.755 3.027.842 6.798-19.502 18.195-36.539 33.519-50.274 1.513-1.355-.64-1.631-2.147-.283ZM596.62 294.603a198.289 198.289 0 0 0-11.084-29.168c-.868-1.841-.124 2.4.737 4.234 4.345 9.192 4.462 16.011 7.313 25.782.568 1.953 3.601 1.118 3.027-.842l.007-.006Z" fill="#446C8F"/><path d="M687.504 227.213c-14.848 0-25.397-16.655-32.24-50.886-.255-1.288.567-2.538 1.846-2.794a2.354 2.354 0 0 1 2.772 1.861c6.322 31.58 15.762 47.433 28.059 47.072 14.932-.421 24.15-15.492 29.01-47.414a2.358 2.358 0 0 1 2.688-1.986c1.285.197 2.166 1.414 1.97 2.709-3.314 21.771-10.399 50.787-33.531 51.445-.19 0-.379.006-.568.006l-.006-.013Z" fill="#F6BB5A"/><path d="M664.715 153c-7.149.637-14.952.848-21.201-3.294-7.366-4.886-7.346-12.658-6.465-20.634.378-3.399-4.906-3.373-5.278 0-.985 8.91-.581 17.372 6.706 23.494 7.353 6.174 17.138 6.568 26.232 5.753 3.353-.302 3.386-5.622 0-5.319h.006Z" fill="#9ED2EC"/><path d="M743.918 81.164h-3.458c-2.489 0-4.508 2.034-4.508 4.544V127c0 2.509 2.019 4.544 4.508 4.544h3.458c2.489 0 4.507-2.035 4.507-4.544V85.708c0-2.51-2.018-4.544-4.507-4.544ZM634.935 81.164h-3.458c-2.49 0-4.508 2.034-4.508 4.544V127c0 2.509 2.018 4.544 4.508 4.544h3.458c2.489 0 4.507-2.035 4.507-4.544V85.708c0-2.51-2.018-4.544-4.507-4.544Z" fill="#2E282F"/><path d="M745.054 70.336h-3.928V81.2h3.928V70.336ZM635.17 70.335h-3.927v10.863h3.927V70.335Z" fill="#2E282F"/><path d="M743.085 74.292c-2.166 0-3.927-1.775-3.927-3.958 0-33.336-17.21-50.235-51.152-50.235-24.581 0-50.852 13.197-50.852 50.235 0 2.183-1.755 3.958-3.927 3.958-2.173 0-3.927-1.775-3.927-3.958 0-42.923 31.62-58.151 58.699-58.151 38.601 0 59.007 20.107 59.007 58.151 0 2.183-1.755 3.958-3.928 3.958h.007ZM484.918 265.876c-.619-14.703 22.99-22.606 22.99-22.606l4.612 31.699s-15.174 12.5-27.602-9.093Z" fill="#446C8F"/><path d="M533.347 247.813c-1.017-7.16-5.786-28.346-7.123-34.697-1.86-8.824-18.045-19.792-28.646-25.131-7.163-3.61-25.598-20.508-28.828-22.796-3.477-2.473-12.551 2.334-8.043 8.824 4.508 6.489 12.199 12.374 16.178 16.115 3.98 3.742 7.163 12.033 7.163 12.033s-22.545 4.478-26.264 4.248c-3.712-.237-18.834-7.457-21.75-8.522-2.916-1.071-17.098-7.489-21.019-5.885-3.921 1.605-5.447 6.418-1.761 9.627 3.679 3.208 19.329 10.691 19.329 10.691s-21.489-1.335-24.137 1.604c-2.655 2.939-2.916 8.555 2.655 10.429 4.508 5.615 22.813 7.489 22.813 7.489s14.326 13.098 20.426 12.296c6.099-.803 20.158-4.011 21.749-4.544 1.592-.533 25.73 2.407 26.265 4.011.528 1.604 4.507 30.746 4.507 30.746s27.243-2.532 26.486-26.531v-.007Z" fill="#F1BBA2"/><path d="M516.412 223.99c-6.628-5.661-11.175-11.73-20.471-9.357-5.395 1.375-9.864 4.794-14.496 7.72-5.851 3.695-12.049 6.568-18.781 8.212-4.952 1.21-8.801 2.308-13.38-1.124-1.99-1.493-3.419-3.65-5.493-5.076-2.362-1.624-5.441-2.953-8.357-2.091-5.362 1.584-5.943 8.028-2.27 11.585 1.246 1.204 2.792.073 1.546-1.131-2.649-4.214-.548-8.238 3.073-8.238 2.563 0 3.555 1.38 6.236 3.603 1.201.993 2.179 2.249 3.36 3.268 1.435 1.242 2.948 2.531 4.827 3.037 5.663 1.526 13.746-1.67 18.886-3.675 6.844-2.676 12.421-7.042 18.788-10.553 4.9-2.703 10.282-4.642 15.755-2.479 3.738 1.479 6.915 4.833 9.955 7.43 1.311 1.118 2.127 0 .809-1.125l.013-.006ZM484.05 202.155l10.347-2.676c.528-1.335-11.86-.776-11.86-.776l1.513 3.445v.007Z" fill="#CD9A82"/><path d="M623.645 498.513c-12.936-30.535-91.109-256.079-91.109-256.079 1.272 6.898-24.288 28.806-47.479 23.467 2.394 5.615 9.002 57.553 21.326 93.165 8.761 25.321 8.859 50.129 13.145 75.352 7.567 44.56 39.494 59.46 84.109 62.662l20.015 1.44-.007-.007Z" fill="#9ED2EC"/><path d="M852.387 474.515c-2.544 0-4.599-2.078-4.599-4.635v-44.535c0-2.564 2.061-4.635 4.599-4.635 24.327 0 27.452 12.125 27.452 22.691 0 18.325-11.286 31.121-27.452 31.121v-.007Zm4.599-44.416v34.606c9.388-2.334 13.648-11.855 13.648-21.304 0-9.975-4.254-12.743-13.648-13.295v-.007Z" fill="#B52F41"/><path d="M857.385 407.725h-57.852c-2.374 0-4.299 1.94-4.299 4.333v75.128c0 2.393 1.925 4.333 4.299 4.333h57.852c2.374 0 4.299-1.94 4.299-4.333v-75.128c0-2.393-1.925-4.333-4.299-4.333Z" fill="#E2606E"/><path d="M795.234 487.178c0 2.387 1.938 4.34 4.306 4.34h57.845c2.368 0 4.305-1.953 4.305-4.34v-34.171l-66.449 33.218v.953h-.007Z" fill="#C8606B"/><path d="M823.803 305.998H535.334c-5.702 0-8.35 5.872-11.221 10.244l15.416 139.428c-1.168 10.797 3.496 14.709 8.578 14.709h262.551c5.088 0 9.746-3.912 10.418-8.778l13.81-143.991c-2.381-6.661-5.388-11.605-11.083-11.605v-.007Z" fill="#fff"/><path d="M826.484 310.508H532.287c-5.701 0-9.628 5.254-8.78 11.671l14.182 147.095c.665 4.866 5.33 8.778 10.418 8.778h262.551c5.088 0 9.746-3.912 10.418-8.778l14.182-147.095c.848-6.417-3.079-11.671-8.78-11.671h.006Z" fill="#2E282F"/><path d="M814.045 478.053H544.723c-3.218 0-5.826 2.629-5.826 5.872v.526c0 3.243 2.608 5.872 5.826 5.872h269.322c3.217 0 5.825-2.629 5.825-5.872v-.526c0-3.243-2.608-5.872-5.825-5.872Z" fill="#363537"/><path d="M667.351 402.254c-.071-5.799 5.467-10.553 12.382-10.553s12.46 4.754 12.382 10.553c-.072 5.727-5.617 10.323-12.382 10.323s-12.31-4.596-12.382-10.323Z" fill="#FCF7ED"/><path opacity=".49" d="M696.296 158.481c-5.395.77-10.008.664-15.292-.578-1.97-.461-2.805 2.59-.835 3.051 5.878 1.38 10.986 1.426 16.962.572 1.996-.283 1.148-3.334-.835-3.051v.006Z" fill="#CD9A82"/><path d="M719.03 20.62c-2.681-1.348-6.824-2.315-9.825-1.75-.476.093-3.809 1.585-3.196 1.612-.529-.027-1.592-1.256-2.094-1.467-6.459-2.709-10.281-4.372-17.712-3.912-15.35.954-25.331 6.996-36.963 16.484-5.069 4.136-9.159 9.705-12.545 15.459-4.462 7.594-4.162 20.876-1.448 30.653 1.089 3.926 6.608-2.446 6.915-6.496.489-6.437-2.088-12.77-.483-19.24 1.54-6.186 6.335-11.15 11.077-15.056 9.368-7.707 17.432-13.835 29.931-15.215 5.317-.586 10.947-1.092 15.826 1.499 2.942 1.558 3.98 2.952 7.385 2.893 4.214-.08 6.83-1.368 10.725.907 3.216 1.88 6.256 4.642 8.337 7.726 3.64 5.398 5.623 15.057 3.386 21.508-1.338 3.853 8.768 13.564 10.098 9.738 4.619-13.296-1.728-36.467-19.414-45.35v.007Z" fill="#363537"/><path d="M219.003 498.414c0 7.483 3.148 13.535 7.032 13.535h953.285c1.94 0 3.7-1.507 4.97-3.966 1.27-2.445 2.06-5.834 2.06-9.569 0-7.482-3.15-13.556-7.04-13.556H226.031c-1.947 0-3.701 1.508-4.971 3.967-1.05 2.022-1.771 4.686-1.991 7.652a27.697 27.697 0 0 0-.069 1.937h.003Z" fill="#DCBFA3"/><path d="M229.408 511.947h946.532c0 6.908-2.93 12.504-6.56 12.504H235.972c-3.626 0-6.564-5.596-6.564-12.504Z" fill="#BDA084"/></g><defs><clipPath id="a"><path fill="#fff" d="M0 0h886v524H0z"/></clipPath></defs></svg>