<svg width="220" height="494" viewBox="0 0 220 494" fill="none" xmlns="http://www.w3.org/2000/svg">
<path d="M130.456 125.537C105.397 122.958 82.9633 141.463 80.3482 166.87C77.7331 192.277 95.9274 214.964 120.986 217.544C146.045 220.123 168.479 201.617 171.094 176.211C173.71 150.804 155.515 128.116 130.456 125.537Z" fill="#E6EEFF"/>
<path d="M-12.3938 9.59935C-63.9037 4.29751 -110.017 42.3208 -115.39 94.5268C-120.764 146.733 -83.3629 193.352 -31.8529 198.654C19.657 203.956 65.7701 165.933 71.1436 113.727C76.5171 61.5205 39.1162 14.9012 -12.3938 9.59935Z" fill="#D8E3FA"/>
<path d="M-60.6772 345.203C-53.6915 277.333 6.99027 227.982 74.8587 234.967C142.721 241.952 192.08 302.629 185.094 370.5C178.108 438.369 117.425 487.724 49.5618 480.739C-18.3078 473.751 -67.6627 413.07 -60.6772 345.203Z" fill="#E6EEFF"/>
</svg>
