<svg width="409" height="351" fill="none" xmlns="http://www.w3.org/2000/svg"><path d="M347.155 259.009c-52.935 85.229-156.076 116.933-230.396 70.809-74.313-46.127-91.637-152.596-38.703-237.827 52.937-85.232 156.083-116.931 230.4-70.81 74.316 46.129 91.641 152.599 38.699 237.828Z" fill="#A8D1C5"/><mask id="a" style="mask-type:alpha" maskUnits="userSpaceOnUse" x="47" y="0" width="331" height="351"><path d="M347.155 259.009c-52.935 85.229-156.076 116.933-230.396 70.809-74.313-46.127-91.637-152.596-38.703-237.827 52.937-85.232 156.083-116.931 230.4-70.81 74.316 46.129 91.641 152.599 38.699 237.828Z" fill="#7FCBB4"/></mask><g mask="url(#a)"><path d="M315.034 290.168H206.062v-96.48h103.074c10.73 0 19.428 9.457 19.428 21.125l-13.528 75.357-.002-.002Z" fill="#BF9A76"/><g clip-path="url(#b)"><path d="M206.124 70.87c6.564-13.207 20.232-21.194 34.573-23.019 7.114-.907 15.807-1.073 22.781.821 11.242 3.064 21.838 9.873 26.944 20.627 2.671 5.63 3.963 11.74 5.77 17.668 3.238 10.624 6.843 21.526 7.21 32.726.131 3.972-.027 8.808-2.697 12.029-.21.253-.585.183-.803 0a24.591 24.591 0 0 0-.55-.463c-.367 1.039-.882 1.999-1.615 2.802-1.1 1.196-1.772 1.013-3.177 1.021-2.017.018-3.448.315-5.194 1.327-.803.463-1.588.925-2.444 1.275-4.425 1.833-8.815-.306-13.415-.044-.69.035-1.379.079-2.06.096-4.338 2.409-10.806 2.339-15.231 2.505-7.986.297-15.982-.27-23.968.323-3.666.271-6.704-.113-10.256-.969-3.552-.846-7.428-1.379-10.832-2.714a7.234 7.234 0 0 1-2.61-1.711c-.838 2.357-2.129 5.263-4.329 3.823-1.475-.96-2.147-3.361-2.749-4.923-.926-2.418-1.537-4.941-1.894-7.499-.673-4.774 1.527-45.61 6.546-55.7Z" fill="#3F4B69"/><path d="M284.494 55.21A35.398 35.398 0 0 1 288.335 50c1.091-1.222 2.339-2.427 3.936-2.81 1.912-.464 2.898 1.134 4.329 2.007 2.497 1.536 7.271 2.505 7.454 6.224.062 1.196-.558 2.409-1.562 3.064-.602.392-1.396.68-1.588 1.379-.227.812.549 1.527.846 2.322.437 1.16-.227 2.514-1.248 3.22-1.021.708-2.296.909-3.535.996a27.137 27.137 0 0 1-11.67-1.71c-.969-.376-1.972-.839-2.566-1.694-1.1-1.58-.401-3.754.471-5.474a33.73 33.73 0 0 1 1.292-2.313ZM192.254 57.174c.34-1.1 1.135-2.025 2.077-2.697 1.039-.75 2.261-1.213 3.474-1.632.454-.157.925-.323 1.24-.681.218-.253.323-.576.471-.873.637-1.353 2.016-2.322 3.5-2.48 2.776-.279 4.198 2.008 5.569 3.999 1.641 2.392 3.212 4.836 4.469 7.446.689 1.44 1.292 3.125.672 4.6-.646 1.545-2.383 2.296-3.98 2.793-3.579 1.1-7.367 1.685-11.085 1.249-1.144-.131-2.313-.384-3.23-1.083-.916-.698-1.484-1.955-1.091-3.029.306-.83 1.144-1.562.89-2.409-.227-.76-1.152-.995-1.815-1.432-1.074-.707-1.519-2.147-1.257-3.395.026-.122.061-.253.096-.367v-.009Z" fill="#3F4B69"/><path d="M284.898 60.797c1.047.873 1.789 2.017 2.208 3.309.227.698-.873.995-1.091.305-.358-1.117-1.021-2.06-1.92-2.81-.559-.472.244-1.267.803-.804Z" fill="#283556"/><path d="m170.657 179.383-27.582-4.26s-5.097-11.697-3.089-17.554c2.007-5.857 9.636-6.73 18.748-6.189 9.121.541 19.063.227 19.063.227l-7.14 27.776ZM327.376 182.36l19.141 13.905s.244 13.059-4.085 17.476c-4.338 4.417-11.6 1.921-19.586-2.505-7.987-4.426-17.099-8.432-17.099-8.432l21.637-20.435-.008-.009Z" fill="#FDA67D"/><path d="M322.847 211.227s14.192-7.83 14.262-11.025c.079-3.753-.585-1.684 4.739-14.159 2.863-6.712 13.337-29.024 14.184-33.633.044-.244 14.585 3.832 14.585 3.832a727.86 727.86 0 0 1-3.168 22.548c-1.72 11.033-2.697 23.848-9.348 33.223-8.458 11.906-25.461 6.643-35.254-.777v-.009Z" fill="#FDA67D"/><path d="M190.089 204.366c.009.384.035.786.07 1.17.035.637.069 1.266.113 1.903.602 8.93 1.816 18.095 1.816 23.115 0 7.935-1.903 20.409-1.903 20.409s51.113 7.55 67.505 8.685c16.383 1.135 22.537 3.029 25.504 0 2.139-2.173 5.962-10.658 8.816-22.015a127.534 127.534 0 0 0 1.589-7.228c.427-2.278.811-4.635 1.134-7.044.367-2.759.882-5.884 1.51-9.236l.236-1.239c.951-5.037 2.112-10.484 3.273-15.826l.236-1.126c1.3-6.006 2.592-11.811 3.57-16.621.087-.419.166-.829.253-1.222 1.143-5.805 1.78-9.951 1.335-10.937-.139-.297-.567-.655-1.239-1.065-1.824-1.126-5.429-2.645-9.671-4.225a75.828 75.828 0 0 0-1.886-.69 256.143 256.143 0 0 0-4.87-1.746 762.424 762.424 0 0 0-6.555-2.234c-6.712-2.226-12.176-3.902-12.176-3.902s-9.985-1.737-23.026-1.737c-11.006 0-24.133-.987-36.423-.114a96.503 96.503 0 0 0-6.669.69c-.148.026-.366.279-.637.768-.166.305-.366.689-.576 1.152-1.37 2.968-3.535 9.035-5.612 15.704-.157.506-.314 1.03-.48 1.554-.114.349-.218.715-.332 1.065a211.295 211.295 0 0 0-2.479 8.868 139.07 139.07 0 0 0-1.318 5.552c-.087.393-.166.768-.235 1.135-.384 1.894-.672 3.579-.803 5.011-.341 3.343-.306 7.297-.088 11.417l.018.009Z" fill="#4DAEA3"/><path d="M235.396 157.359c0 .227.027.446.053.655.279 1.737 1.676 3.151 3.482 3.378l8.127 1.074a39.826 39.826 0 0 0 18.32-1.903l.166-.061a4.086 4.086 0 0 0 2.697-3.404l1.624-14.657.183-2.304.882-11.182-6.259 2.042-28.725 9.375-.165 5.832-.14 4.713-.14 2.872-.052 1.79-.044 1.51c0 .087-.009.166-.009.262v.008Z" fill="#FDA67D"/><path d="M235.399 157.359c0 .227.026.446.053.655 3.325-.113 7.855-.724 12.219-2.051 15.301-4.679 22.267-14.691 22.267-14.691s-2.575-8.276-2.575-9.411c0-.392-1.074-.68-2.689-.846l-28.725 9.375-.166 5.831-.139 4.714-.14 2.872-.052 1.789-.044 1.51c0 .088-.009.166-.009.262v-.009Z" fill="#D28462"/><path d="M212.118 117.31c.262 2.889.725 5.761 1.502 8.607 2.409 8.851 7.759 17.048 16.199 21.107 7.559 3.64 16.419 3.893 24.466 1.877 5.665-1.423 11.199-3.867 15.676-7.638 8.144-6.853 11.181-16.926 12.019-20.348 1.894-7.786 2.767-15.922 2.523-23.935-.157-4.967-.594-10.423-2.872-14.936-5.56-11.025-34.94-15.407-47.639-11.758-12.709 3.657-19.299 7.385-20.006 12.622-.96 7.106-2.164 15.46-2.199 22.6-.018 3.963-.009 7.891.349 11.802h-.018Z" fill="#FDA67D"/><path d="M224.216 109.611a6.777 6.777 0 0 1-.332-2.401c.044-.873.297-1.789.96-2.348 2.471-2.06 4.181 3.291 4.365 4.871.069.628.069 1.274-.149 1.868-.218.594-.698 1.117-1.309 1.266-.908.218-1.798-.419-2.383-1.135a6.731 6.731 0 0 1-1.152-2.113v-.008ZM259.835 110.257a6.341 6.341 0 0 1 .061-2.89c.184-.698.506-1.388 1.1-1.798 2.697-1.85 3.788 4.007 3.753 5.569-.017.585-.096 1.179-.358 1.694-.262.515-.742.951-1.309 1.047-.882.149-1.702-.515-2.217-1.248a6.391 6.391 0 0 1-1.03-2.383v.009Z" fill="#000"/><path d="M273.56 103.849s8.37-6.843 15.318-3.343c6.948 3.509 3.683 16.935-1.641 21.64-4.521 3.998-10.972 5.578-10.972 5.578l-2.705-23.875Z" fill="#FDA67D"/><path d="M240.583 111.653c.227-.689 1.318-.393 1.091.306-.707 2.182-4.53 7.402-.332 8.022.716.105.41 1.196-.305 1.091-1.536-.227-2.671-1.388-2.846-2.942-.262-2.269 1.72-4.408 2.383-6.468l.009-.009Z" fill="#D28462"/><path d="M233.877 124.948s4.766 1.37 9.855 1.283c5.088-.087 9.444-1.702 9.444-1.702s-3.352 5.447-9.636 6.084c-6.285.646-9.654-5.665-9.654-5.665h-.009Z" fill="#fff"/><path d="M257.515 97.975c.82-1.04 2.871-1.135 3.954-1.083 2.025.114 4.224.41 6.066 1.423 1.074.594 3.849 2.767 1.021 2.881a49.231 49.231 0 0 1-8.632-.419c-1.039-.149-2.933-.585-2.741-2.017.044-.305.157-.567.332-.785ZM231.416 98.751c.192 1.432-1.702 1.869-2.741 2.017a47.55 47.55 0 0 1-8.632.419c-2.33-.096-.515-1.772.445-2.462 1.947-1.396 4.286-1.71 6.642-1.841 1.083-.062 3.134.043 3.954 1.082.175.218.288.48.332.785Z" fill="#3F4B69"/><path d="M278.98 118.881c1.205-.978 2.453-2.034 3.09-3.483.899-2.042.035-3.806-.934-5.63-.34-.646.638-1.214.978-.576.943 1.772 1.868 3.683 1.335 5.744-.523 2.016-2.112 3.482-3.674 4.748-.559.454-1.371-.34-.803-.803h.008Z" fill="#D28462"/><path d="M227.045 89.045c-.139.13-.279.253-.436.366-1.781 1.257-4.137-.21-6.18.184-1.745.34-3.273-.131-4.975.052-1.859.2-3.299 1.23-5.281 1.178-.043 0-.087-.008-.13-.008a8.957 8.957 0 0 1-1.362-3.073c-1.562-6.913 4.626-15.424 9.863-19.283 6.511-4.8 14.751-4.923 22.572-4.268.227-.227.68-.236.907.078 1.231.114 2.453.245 3.649.376.716.078.724 1.213 0 1.134a170.74 170.74 0 0 0-3.116-.323c.139.323.27.655.419.97.227-.35.855-.306 1.004.148.707-.035 1.422-.035 2.138-.524.82-.576 1.423-1.431 2.234-2.025 2.82-2.086 6.477-2.287 9.811-1.676 8.074 1.466 16.959 5.744 22.973 11.313 5.342 4.95 11.007 12.98 8.86 20.662-.742 2.654-2.34 5.307-5.351 5.36-2.723.043-6.162-1.135-7.567-3.606-.419-.742-.489-1.614-.987-2.304-.654-.908-1.772-1.126-2.767-1.641a24.939 24.939 0 0 1-2.461-1.45c.332.813.655 1.624.943 2.462.174.515-.419.83-.83.638-4.46-2.008-8.414-4.862-12.202-7.935.079.14.157.28.227.428.436.838 1.72 2.557 1.126 3.622-1.301 2.348-5.193-1.283-6.267-2.121-5.193-4.059-9.226-9.375-11.809-15.372-1.668 2.278-2.471 5.01-3.212 7.708-.699 2.54-.961 5.15-1.589 7.69-.332 1.344-.855 2.33-2.2 2.741-.392.122-.672-.2-.715-.55a28.576 28.576 0 0 1-.053-7.166c-.454 1.047-.951 2.077-1.964 2.706-.776.48-1.641.401-2.461.724-1.309.506-1.842 1.86-2.793 2.785h-.018Z" fill="#3F4B69"/><path d="M247.486 55.647c.411-.602 1.388-.035.978.576a26.793 26.793 0 0 0-4.443 11.41c-.105.715-1.196.41-1.091-.306a27.64 27.64 0 0 1 4.556-11.68ZM248.412 67.65c.559 5.84 4.015 10.588 8.353 14.315.559.48-.253 1.275-.803.803-4.6-3.945-8.1-8.964-8.685-15.118-.069-.725 1.065-.725 1.135 0ZM258.817 67.31c1.213 3.308 2.461 6.747 4.888 9.392 1.213 1.318 2.679 2.426 4.39 3.02 1.161.41 2.287.463 3.308 1.187 1.816 1.283 3.142 3.623 4.696 5.212 2.313 2.365 4.905 4.26 8.161 5.045.707.175.41 1.266-.305 1.091-2.715-.663-5.028-2.025-7.123-3.867-2.802-2.47-4.669-5.988-8.213-7.341-6.241-2.375-8.694-7.429-10.902-13.443-.253-.69.847-.978 1.091-.306l.009.01ZM232.546 81.887a40.197 40.197 0 0 1 7.594-14.534c.462-.568 1.257.244.803.803-3.396 4.172-5.822 8.86-7.297 14.036-.201.699-1.292.402-1.091-.305h-.009ZM208.242 66.646a16.653 16.653 0 0 1 4.53-4.75c.594-.418 1.161.56.576.979a15.37 15.37 0 0 0-4.12 4.338c-.392.611-1.37.044-.977-.576l-.009.009ZM287.69 57.663a31.968 31.968 0 0 1 8.161-7.838c.611-.41 1.178.576.576.977a30.345 30.345 0 0 0-7.751 7.437c-.428.585-1.405.018-.977-.576h-.009Z" fill="#283556"/><path d="M291.574 55.594a33.071 33.071 0 0 1 7.184-2.968c.707-.2 1.003.9.305 1.092a31.882 31.882 0 0 0-6.913 2.854c-.637.358-1.213-.62-.576-.978ZM201 54.39c3.221 1.204 5.988 3.169 8.135 5.866.454.567-.349 1.37-.803.803-2.016-2.54-4.591-4.443-7.637-5.578-.681-.253-.384-1.344.305-1.091Z" fill="#283556"/><path d="M194.338 56.048c3.77-.122 7.367.603 10.806 2.139.663.297.087 1.275-.577.978-3.255-1.45-6.677-2.095-10.229-1.982-.733.026-.725-1.108 0-1.135ZM210.697 86.513a79.699 79.699 0 0 1 10.954-24.45c.402-.602 1.388-.035.978.576a78.746 78.746 0 0 0-10.841 24.18c-.183.707-1.274.41-1.091-.306ZM206.343 90.887c1.153-4.81 2.139-9.995 4.897-14.177.402-.602 1.379-.035.978.577-2.689 4.067-3.666 9.226-4.784 13.905-.165.707-1.265.41-1.091-.305ZM297.625 103.797c2.618 7.682 2.496 15.756 2.26 23.77-.017.724-1.152.733-1.134 0 .235-7.918.366-15.879-2.217-23.473-.236-.69.855-.987 1.091-.306v.009ZM294.767 131.215a44.471 44.471 0 0 0 1.58-12.91c-.018-.733 1.117-.733 1.134 0a45.235 45.235 0 0 1-1.614 13.207c-.192.707-1.283.402-1.091-.305l-.009.008ZM205.686 106.04c.078-.715 1.213-.724 1.134 0-1.012 9.079-1.964 18.218-.401 27.288.122.716-.969 1.021-1.091.305-1.58-9.183-.672-18.401.358-27.593Z" fill="#283556"/><path d="M271.812 215.609c0 .376.026.76.035 1.153a99.91 99.91 0 0 0 1.021 10.335c.043.375.105.751.166 1.135a134.897 134.897 0 0 0 1.981 10.056c4.984 21.264 11.303 10.728 16.994-.672.951-1.912 1.894-3.867 2.802-5.683.183-.367.367-.716.532-1.056 2.278-4.452 4.365-7.944 6.119-8.092 6.73-.568 6.232-2.453 9.828-2.078 3.579.375 7.175-1.327 9.069-6.608.044-.122.087-.253.148-.393.114-.314.253-.672.41-1.065 1.179-2.968 3.439-8.109 5.648-13.067.157-.349.314-.707.48-1.056 2.889-6.486 5.603-12.378 5.603-12.378s-5.132-3.981-11.888-9.157c-.488-.376-.986-.76-1.492-1.144-.62-.48-1.266-.96-1.912-1.466-5.621-4.286-10.334-6.844-13.424-8.284-2.479-1.153-3.919-1.58-3.919-1.58l-14.847 17.161-.864.978-7.751 8.965s-1.065 1.335-2.191 4.408c-.139.349-.262.725-.392 1.135-1.24 3.823-2.401 9.794-2.13 18.445l-.026.008ZM166 151.188s.428 7.9.925 16.76c.027.366.044.733.07 1.108.227 4.278.48 8.695.69 12.492.035.393.052.794.07 1.17.235 3.989.419 7.166.506 8.528.375 5.473 5.953 6.329 11.617 8.79 1.859.803 3.439 2.087 5.054 3.457h.009c.567.48 1.126.952 1.711 1.432h.008c1.1.908 2.278 1.78 3.596 2.514 2.113 1.178 4.618 1.999 7.865 1.999 2.461 0 4.329-.271 5.743-.734h.009a6.85 6.85 0 0 0 1.37-.593h.009a5.982 5.982 0 0 0 1.78-1.432c1.144-1.405 1.336-3.16 1.371-4.844.008-.315.008-.934.035-1.79 0-.314.008-.655.008-1.03.027-1.405.053-3.239.088-5.36.008-.384.026-.785.035-1.178.078-4.775.183-10.781.296-16.725 0-.454.009-.899.026-1.336.114-6.521.219-12.832.297-17.188.009-.419.009-.829.026-1.213.044-2.837.079-4.565.079-4.565s-4.731-.07-10.876-.149h-.008a187.798 187.798 0 0 0-3.265-.043c-.977-.009-1.972-.027-2.967-.035a953.324 953.324 0 0 0-6.87-.079c-6.284-.052-11.844-.105-13.852-.052l-5.472.113.017-.017Z" fill="#4DAEA3"/><path d="M195.169 151.249c.332.148.646.297.978.445 1.772.803 3.526 1.598 5.298 2.366a187.524 187.524 0 0 0 7.777 3.16c5.429 2.06 10.963 3.797 16.759 5.045 10.578 2.287 21.48 4.277 32.277 5.159 5.272.428 10.588.454 15.833-.332 5.307-.794 10.309-2.645 15.45-4.085a65.058 65.058 0 0 1 4.713-1.152c-.611-.236-1.248-.463-1.885-.69a71.382 71.382 0 0 0-5.168 1.353c-5.455 1.641-10.779 3.335-16.496 3.841-5.604.498-11.234.157-16.811-.506-11.312-1.353-22.868-3.256-33.892-6.172-3.631-.96-7.21-2.234-10.762-3.675a198.827 198.827 0 0 1-7.219-3.107c-1.187-.533-2.383-1.074-3.57-1.606h-.008c-1.057-.027-2.139-.035-3.265-.044h-.009ZM166.935 167.948c.026.367.043.733.07 1.108 7.812.35 15.597 1.17 23.322 2.462 1.58.262 3.142.559 4.705.864 4.678.943 9.295 2.087 13.878 3.37 5.612 1.545 11.154 3.273 16.758 5.037 5.804 1.815 11.539 2.837 17.631 2.618 6.145-.227 12.211-1.292 18.356-1.475 7.576-.218 15.135.786 22.65.725 4.469-.009 8.921-.411 13.346-1.659 2.008-.567 3.98-1.143 5.944-1.676 4.102-1.109 8.187-2.025 12.569-2.252a67.721 67.721 0 0 1 4.617-.079c-.489-.375-.986-.759-1.492-1.143a70.13 70.13 0 0 0-5.726.27c-3.352.306-6.555 1.1-9.715 1.982-2.967.829-5.918 1.746-8.964 2.453-3.212.733-6.45 1.039-9.706 1.135-9.252.253-18.626-1.371-27.826-.638-6.459.524-12.909 1.607-19.403 1.17-6.171-.428-11.984-2.531-17.806-4.452a200.613 200.613 0 0 0-11.181-3.343 200.759 200.759 0 0 0-13.573-3.099 196.52 196.52 0 0 0-28.419-3.369l-.035-.009ZM167.693 181.548c.035.393.052.794.07 1.17 7.82 1.405 15.597 3.037 23.226 5.211a174.5 174.5 0 0 1 6.59 2.025c3.657 1.222 7.297 2.549 10.998 3.684 2.784.847 5.603 1.589 8.475 2.086 6.555 1.135 13.206 1.179 19.831 1.222 12.359.07 24.701.14 37.069.201 1.851.009 3.71.026 5.551.035 6.669.035 13.468-.166 20.259-.14 7.821.044 15.641.384 23.235 1.781a79.12 79.12 0 0 1 3.57.733c.157-.349.314-.707.48-1.056a81.64 81.64 0 0 0-7.297-1.353c-6.503-.908-13.119-1.178-19.744-1.24-7.41-.069-14.864.158-22.187.114-1.152-.009-2.313-.009-3.465-.026-13.198-.07-26.404-.114-39.61-.227-7.428-.061-14.847-.332-22.074-2.174a84.995 84.995 0 0 1-4.058-1.152c-5.15-1.563-10.178-3.527-15.336-5.072-.681-.2-1.362-.41-2.043-.602-7.742-2.209-15.606-3.841-23.531-5.246l-.009.026ZM184.959 203.502c.567.462 1.126.943 1.711 1.414h.008c1.17.192 2.322.393 3.483.611 2.959.541 5.909 1.17 8.842 1.868 1.641.393 3.264.829 4.888 1.292h.009c4.521 1.257 8.999 2.662 13.555 3.823 5.918 1.511 11.801 2.06 17.902 2.113 12.211.113 24.317 1.859 36.493 2.138.96.027 1.929.035 2.889.035 6.285.009 12.342-.794 18.478-2.06 1.013-.2 2.016-.419 3.029-.611 5.464-1.1 10.919-1.964 16.566-1.492 2.593.218 5.159.611 7.707 1.091.114-.315.254-.672.411-1.065-4.321-.83-8.659-1.414-13.093-1.292-3.832.105-7.602.768-11.347 1.527-2.243.463-4.477.961-6.721 1.38-5.952 1.143-11.923 1.484-17.945 1.335-.847-.026-1.702-.061-2.566-.087-6.634-.314-13.233-1.074-19.84-1.563-6.45-.462-12.892-.261-19.325-.593-8.466-.428-16.627-2.898-24.806-5.264h-.008c-4.434-1.283-8.868-2.531-13.346-3.404-.611-.114-1.222-.236-1.833-.341a150.509 150.509 0 0 0-5.132-.864l-.009.009ZM231.617 228.293c13.8 1.108 27.617-.646 41.425-.053.803.035 1.623.079 2.426.14 6.18.384 12.019 1.659 17.911 3.195.48.122.96.253 1.44.375.183-.366.367-.716.533-1.056-.463-.122-.917-.262-1.371-.384l-.375-.105c-6.311-1.746-12.648-2.88-19.211-3.23-.507-.026-1.013-.061-1.519-.069-13.747-.568-27.512 1.169-41.25.061-.734-.061-.725 1.073 0 1.134l-.009-.008Z" fill="#fff"/><path d="M218.866 283.261c-.027-3.614.087-7.254.331-10.903.026-.393.053-.786.088-1.179.034-.637.078-1.283.139-1.911.524-6.303 1.318-12.597 2.156-18.89a95.37 95.37 0 0 0 .314-2.305c.603-4.391.498-9.436 6.032-10.955 7.41-2.025 16.016-2.235 23.68-1.929 7.707.305 15.938 1.248 23.191 3.727 6.101 2.087 8.947 6.215 10.544 11.75.305 1.056.602 2.06.908 3.029 2.138 6.931 4.146 11.81 5.167 17.947.052.375.113.759.166 1.152.157 1.135.296 2.313.375 3.57.026.158.035.332.035.498a58.14 58.14 0 0 1 .122 3.57c.026 6.076.925 9.524 1.432 15.591.445 5.272-1.397 17.222-1.013 22.608.253 3.527.803 6.844 1.885 10.24.952 2.994-4.656-38.643-4.167-35.561 1.056 6.747-1.947 22.617-1.24 29.374.367 3.456 1.554 6.424 2.802 9.671 1.205 3.143 1.562 6.233 1.466 9.559-.034 1.562.367 4.373-.925 5.7-.48.489-1.134.672-1.789.864-2.042.594-4.242.899-6.337 1.327a1045.631 1045.631 0 0 1-34.948 6.521c-2.383.41-6.494 1.946-8.851.908-1.641-.725-1.981-2.767-2.461-4.182-1.24-3.718-2.479-7.446-3.727-11.182-2.121-6.372-4.827-12.814-5.883-19.413-.48-2.96-.192-5.84-.114-8.799.114-3.99-1.475-6.504-3.744-9.253-.567-.707-1.205-1.432-1.851-2.2-3.517-4.129-.039 35.919-.475 30.585-.28-3.562.602-7.062.838-10.597.261-3.946-.446-7.822-1.266-11.68-1.929-9.096-2.819-18.139-2.88-27.252Z" fill="#C7E0FF"/><path d="M165.998 336.247c3.57-18.061 10.517-36.2 13.887-56.286 0 0 .043-.192.139-.559.559-1.946 2.453-6.669 4.469-11.461l.454-1.065c2.61-6.18 5.246-12.143 5.246-12.143s4.704 5.159 8.449 4.112c5.132-1.432 6.52-3.308 11.486-5.168 3.693-1.37 7.481-2.776 11.461-3.308a22.145 22.145 0 0 1 2.287-.218c13.284-.559 18.582 9.549 20.939 20.138.087.41.183.82.262 1.222.951 4.696 1.361 9.41 1.676 13.268.008.157.026.306.035.454.82 9.978.227 19.615-4.129 28.911-2.06 4.4-3.378 8.345-3.648 12.85a46.225 46.225 0 0 1 3.762-2.366c.689-.384 1.318.594.637.978a41.11 41.11 0 0 0-4.452 2.872c-.008.602 0 1.204.026 1.833.28 5.421.673 10.85 1.013 16.28.044.724-1.213.724-1.257 0l-.786-12.649c-.087-1.484-.2-2.985-.261-4.487-.306.254-.62.498-.917.751-.305 4.845-1.353 9.611-3.238 14.185-.655 1.597-1.475 3.125-2.339 4.635-2.278 4.016 6.11-43.462 4.809-39.08-1.815 6.145-2.767 12.421-4.809 18.532-2.078 6.215-4.731 12.247-7.847 18.087-.122.235-.454.305-.707.261a481.258 481.258 0 0 0-52.012-6.948c-.446-.035-.681-.332-.611-.716 3.526-19.396-6.195 7.403-4.016-2.889l-.008-.026Z" fill="#C7E0FF"/><path d="m179.884 279.961 38.981 3.3 24.657 2.086 3.221-.568L292 276.862l.113-.026s-.043-.166-.148-.48c-.183-.646-.567-1.929-1.056-3.658-.105-.375-.201-.768-.332-1.187-1.239-4.487-3.002-11.234-4.329-17.825-.794-3.902-1.432-7.751-1.72-11.051-1.379-15.678-2.042-36.226-5.307-38.217-3.264-1.981-21.637-1.056-35.699-2.837-17.875-2.243-37.872-5.237-41.73-1.78-1.737 1.562-11.146 30.552-12.848 40.189-.952 5.377-3.657 17.162-5.874 26.563-.088.384-.184.759-.262 1.135-1.327 5.613-2.435 10.178-2.802 11.714-.087.367-.14.559-.14.559h.018Z" fill="#C7E0FF"/><path d="M182.817 267.688c.558.069 1.108.157 1.667.253.847.148 1.711.297 2.575.462 9.025 1.746 18.05 4.217 27.311 4.225 1.632 0 3.238-.113 4.827-.279 2.819-.306 5.612-.829 8.423-1.318 5.533-.952 10.622-.733 16.13.253.445.079.872.157 1.318.227 8.929 1.545 17.805 2.4 26.909 1.868 4.844-.279 9.662-1.135 14.507-1.039 1.484.026 2.959.157 4.425.367.227.026.454.052.681.087-.053-.393-.114-.785-.166-1.152-.279-.044-.559-.079-.838-.122a38.895 38.895 0 0 0-4.626-.315c-5.577-.034-11.12.996-16.697 1.179-5.072.166-10.16-.035-15.205-.602-3.107-.35-6.18-.943-9.252-1.484-1.894-.332-3.788-.638-5.691-.865-4.731-.558-9.226.044-13.878.9a76.09 76.09 0 0 1-5.953.846c-3.186.315-6.372.384-9.627.114-8.362-.707-16.48-2.933-24.728-4.408a66.777 66.777 0 0 0-1.859-.315c-.087.384-.183.76-.262 1.135l.009-.017Z" fill="#89A0BC"/><path d="m266.566 207.194 6.765.672c.899-9.235 1.911-18.217 4.408-26.685 1.964-6.686 5.088-13.635 9.749-21.753a774.263 774.263 0 0 0-6.555-2.235c-4.582 8.092-7.698 15.181-9.723 22.059-2.654 9.044-3.718 18.375-4.644 27.942ZM185.331 151.135c.576 4.295 2.348 16.123 5.036 24.014a264.724 264.724 0 0 0 2.174 6.102c3.125 8.371 5.795 13.853 7.62 17.162 2.793 5.071 4.853 7.62 6.904 8.266.366.114.724.166 1.091.166a3.74 3.74 0 0 0 1.1-.157c.602-.166 3.535-1.257 2.496-5.648l-3.308.786-3.256.785c.07-.593.48-1.606 1.563-2.199a3.026 3.026 0 0 1 1.719-.367c.559.044 1.013.253 1.205.41-.219-.165-.611-.637-1.187-1.44-2.095-2.959-6.407-10.623-11.679-26.065-.34-.995-.655-2.06-.978-3.186-1.78-6.46-3.046-14.535-3.631-18.55-2.286-.035-4.626-.052-6.869-.079Z" fill="#C7E0FF"/><path d="M298.694 211.969c1.283-3.046 3.177-5.778 4.399-8.877 2.505-6.364 3.71-13.225 5.229-19.877.165-.707 1.256-.41 1.091.306-1.441 6.32-2.619 12.806-4.862 18.907-.952 2.593-2.208 4.985-3.526 7.403-2.043 3.762-2.488 7.062-2.034 11.295.078.725-1.056.716-1.135 0-.34-3.203-.436-6.136.829-9.157h.009ZM185.61 174.207c1.623 3.771 1.676 7.681 1.929 11.714.323 5.316 1.37 10.545 2.417 15.756.14.716-.951 1.022-1.091.306-.872-4.304-1.737-8.625-2.208-12.998-.506-4.757-.096-9.724-2.025-14.202-.288-.664.69-1.24.978-.576Z" fill="#336660"/><path d="M267.109 209.508a2.515 2.515 0 1 1 5.03.001 2.515 2.515 0 0 1-5.03-.001ZM204.501 204.567a2.565 2.565 0 1 1 5.132 0 2.57 2.57 0 0 1-2.566 2.566 2.57 2.57 0 0 1-2.566-2.566Z" fill="#fff"/><path d="M272.877 215.408a.537.537 0 0 0 .367-.139.599.599 0 0 0 .201-.384l.768-10.1a.568.568 0 1 0-1.135-.087l-.724 9.532-6.136-.48.907-9.532a.572.572 0 0 0-.506-.62.58.58 0 0 0-.62.506l-.96 10.109a.567.567 0 0 0 .524.619l7.28.568h.043l-.009.008ZM206.462 211.48a.602.602 0 0 0 .271-.069l6.433-3.448a.586.586 0 0 0 .279-.332.584.584 0 0 0-.044-.437l-4.8-8.912a.561.561 0 0 0-.768-.227.56.56 0 0 0-.227.768l4.53 8.415-5.421 2.907-4.381-8.52a.556.556 0 0 0-.76-.244.565.565 0 0 0-.244.759l4.643 9.035a.579.579 0 0 0 .498.305h-.009Z" fill="#89A0BC"/><path d="M206.112 301.592a452.653 452.653 0 0 0 9.052 13.181c2.915 4.085 5.76 8.72 9.732 11.889l-3.221-11.147c-.201-.698.89-1.004 1.091-.306 2.889 10.004 5.778 19.999 8.659 29.994.2.698-.891 1.004-1.091.305a14505.39 14505.39 0 0 0-4.984-17.249.476.476 0 0 1-.376-.087c-3.954-2.889-6.677-7.114-9.514-11.033a453.57 453.57 0 0 1-10.343-14.98c-.401-.611.576-1.178.978-.576l.017.009Z" fill="#ED934E"/><path d="M242.773 243.333c4.993 0 8.921-2.243 10.047-5.883 1.283-4.129 1.981-16.481 2.007-17.005a.563.563 0 0 0-.558-.602c-.114 0-11.81-.148-17.126-.428-5.289-.279-16.679-2.243-16.793-2.261a.588.588 0 0 0-.445.114.595.595 0 0 0-.218.401c-.227 2.837-.393 5.84-.489 8.93a47.795 47.795 0 0 1-.114 1.895c-.27 3.806-.672 9.558 2.488 11.54 3.928 2.453 9.453 2.679 14.332 2.88 1.772.07 3.448.14 4.984.306.646.07 1.274.105 1.894.105l-.009.008Zm10.893-22.355c-.157 2.549-.838 12.64-1.92 16.14-1.108 3.562-5.42 5.569-10.736 4.993-1.571-.166-3.264-.244-5.054-.314-4.73-.192-10.098-.419-13.773-2.715-2.584-1.615-2.208-6.957-1.955-10.492.052-.725.096-1.38.113-1.93.096-2.845.245-5.621.437-8.257 2.461.41 11.678 1.929 16.313 2.173 4.644.245 14.114.384 16.575.419v-.017Z" fill="#89A0BC"/><path d="M254.686 224.173s-11.949-.175-19.508-.638c-4.644-.288-15.851-1.772-15.851-1.772l.358-4.46a.701.701 0 0 1 .873-.629c1.946.507 6.31 1.144 15.772 1.685 8.615.498 15.379.323 17.666.445a.856.856 0 0 1 .812.891l-.131 4.469.009.009Z" fill="#fff"/><path d="M369.928 128.649c.358-.349.873-.419 1.598-.026 3.666 1.973 2.304 10.047 2.112 13.242-.183 3.134-.76 6.093-1.126 9.218-.428 3.649-2.243 7.848-2.243 7.848s-5.071-.201-8.144-1.502a.537.537 0 0 1-.131.611l-.157.131c-.236.201-.532.166-.759-.035-.035-.035-.079-.07-.122-.105a.422.422 0 0 1-.123-.497 2.46 2.46 0 0 1-1.431-.306c-.576-.2-1.152-.41-1.728-.619a25.305 25.305 0 0 1-1.807-.76c-2.304-1.1-3.858-4.408-5.089-6.547-.838-1.457-6.79-11.906-2.557-11.802 1.03.027 1.693.908 2.26 1.641 1.31 1.685 2.471 3.492 3.675 5.255.419-1.475.925-2.924 1.039-4.486.148-1.938.41-4.068.061-5.98-.419-2.252-1.301-5.621-.437-6.503 2.558-2.61 4.775 2.296 5.805 6.25.105-1.554.183-3.099.148-4.653-.026-1.422-.89-4.033.498-5.141 1.082-.873 2.033-.48 2.836.463.158-.463.385-.873.769-1.144 1.064-.751 2.208-.087 2.932.759 1.065 1.249 1.72 2.899 2.104 4.697l.017-.009Z" fill="#FDA67D"/><path d="M355.963 144.859c3.771 1.423 6.581 4.478 7.62 8.389.192.707-.908 1.004-1.091.305-.934-3.5-3.439-6.311-6.834-7.594-.672-.253-.384-1.353.305-1.091v-.009ZM360.834 134.751c.105 1.37.148 2.741.131 4.111-.009.733-1.143.733-1.135 0a45.893 45.893 0 0 0-.131-4.111c-.052-.725 1.083-.725 1.135 0ZM364.226 125.952c-.07-.725 1.065-.725 1.135 0 .419 4.53.524 9.061.305 13.617-.034.725-1.169.734-1.134 0a95.841 95.841 0 0 0-.306-13.617ZM368.664 138.504c.628-2.54.873-5.106.751-7.725-.035-.733 1.099-.725 1.134 0a27.597 27.597 0 0 1-.785 8.022c-.175.707-1.266.41-1.091-.305l-.009.008Z" fill="#D28462"/><path d="M140.851 174.591c-12.325-3.291-21.271-19.047-27.66-28.204a743.78 743.78 0 0 1-12.744-18.873s11.268-10.047 11.417-9.846c2.784 3.771 21.987 19.221 27.503 23.996 10.265 8.869 15.301 10.414 17.02 13.749 1.467 2.846 5.29 2.601 5.29 2.601 3.927 14.84-6.721 20.348-20.835 16.577h.009Z" fill="#FDA67D"/><path d="M113.159 120.199a.648.648 0 0 1-.131.297c-2.968 3.71-10.23 9.663-10.23 9.663s-8.283-3.265-11.897-5.744c-2.461-1.684-9.47-5.036-9.173-8.615a2.351 2.351 0 0 1 1.073-1.799c-1.658-1.466-3.072-3.177-2.941-5.455.061-1.118.541-1.833 1.213-2.217-.21-.367-.41-.742-.567-1.118-.472-1.135-.463-2.348.28-3.369 1.204-1.676 2.967-1.135 4.739-.07.14-.864 1.396-2.182 2.74-2.113 2.671.14 10.544 5.997 14.996 9.655.183-2.505-1.537-4.618-1.842-7.045-.218-1.754.524-4.582 2.776-2.976 1.972 1.405 3.028 3.544 4.067 5.648a100.298 100.298 0 0 1 3.23 7.21c.549 1.37.82 2.776 1.082 4.225.157.89.174 2.304.75 3.055.236.306.097.611-.157.768h-.008Z" fill="#FDA67D"/><path d="M106.802 123.9c-4.303-2.618-5.124-7.594-3.492-12.09.253-.689-.846-.986-1.091-.305-1.806 4.984-.698 10.501 4.015 13.373.629.384 1.196-.602.576-.978h-.008ZM94.627 109.192a68.778 68.778 0 0 0-7.97-6.338c-.602-.41-1.108.603-.514 1.013a67.56 67.56 0 0 1 7.733 6.171c.532.498 1.292-.349.76-.846h-.01ZM90.708 113.251a96.345 96.345 0 0 0-8.3-6.25c-.603-.411-1.109.611-.507 1.012a95.633 95.633 0 0 1 8.066 6.085c.558.471 1.309-.376.75-.847h-.009ZM90.638 118.235a204.402 204.402 0 0 1-6.18-3.902c-.61-.401-1.177.585-.575.978a231.157 231.157 0 0 0 6.18 3.902c.628.384 1.195-.602.575-.978Z" fill="#D28462"/></g><path d="M270.436 285.812h107.316S334.057 394.584 208.82 362.01C83.582 329.436 24.116 390.934-5.577 348.585c-29.693-42.348 29.773-63.982 29.773-63.982l246.24 1.209Z" fill="#F2F2F2"/><path d="m231.64 311.282-52.492 18.779v-3.587l.01.003 46.636-16.84 5.431-1.962c.289-.105.534-.282.585-.528.199-.986.234.751.237 3.549a.619.619 0 0 1-.405.585l-.002.001Z" fill="#CCC"/><path d="M232.05 305.926v.321a1.004 1.004 0 0 1-.666.822l-5.455 2.012-46.84 17.269-.01-.003c-.293-.075-7.714-2.007-8.136-2.007-.268 0-.621-1.749-.847-3.058-.135-.781-.225-1.407-.225-1.407l1.715-14.862h59.458c.584 0 .942.434 1.006.913Z" fill="#B3B3B3"/><path d="m181.058 322.64 20.538-7.921c1.213-.467.881-2.284-.416-2.284h-22.032l1.91 10.205Z" fill="gray"/><path d="M179.924 326.35H32.847a5.72 5.72 0 0 1-5.5-4.133L8.512 222.252c-.8-4.238 2.46-8.155 6.782-8.155H166.35a5.718 5.718 0 0 1 5.672 4.949l13.574 100.838c.461 3.423-2.209 6.466-5.671 6.466Z" fill="#E6E6E6"/></g><path d="M120.895 314.104c0 20.195-16.378 36.564-36.58 36.564-20.2 0-36.577-16.369-36.577-36.564s16.378-36.565 36.578-36.565c20.202 0 36.579 16.371 36.579 36.565Z" fill="#6683C2"/><path d="M47.865 257.855c0 13.212-10.714 23.923-23.934 23.923C10.715 281.778 0 271.068 0 257.855c0-13.213 10.714-23.925 23.931-23.925 13.22 0 23.934 10.712 23.934 23.925Z" fill="#F2C45B"/><path d="M409.001 41.701c0 23.033-18.679 41.703-41.717 41.703-23.042 0-41.718-18.67-41.718-41.703C325.566 18.671 344.242 0 367.284 0c23.038 0 41.717 18.67 41.717 41.701Z" fill="#68CCEA"/><defs><clipPath id="b"><path fill="#fff" transform="matrix(-1 0 0 1 374.039 47.511)" d="M0 0h294.19v281.096H0z"/></clipPath></defs></svg>