<svg width="310" height="212" viewBox="0 0 310 212" fill="none" xmlns="http://www.w3.org/2000/svg">
<path d="M30.9204 19.8872C30.8362 19.4218 29.7429 14.4399 22.0366 15.2909C22.0366 15.2909 25.872 15.1934 26.7644 16.7566C26.7644 16.7566 23.8996 15.0811 21.9036 16.043C19.9076 17.0048 19.2118 20.8476 19.3743 22.0531C19.5368 23.2602 21.2624 26.9759 22.6379 27.1133C23.1595 27.165 23.7327 27.0483 24.2454 26.8814C23.972 27.4842 23.715 28.1431 23.483 28.87C21.3348 35.5953 25.3815 41.276 27.8739 40.2211C29.4725 39.5444 30.3531 42.3117 30.3531 42.3117L44.597 26.9021C44.5984 26.9021 36.8892 15.4948 30.9204 19.8872Z" fill="#696B70"/>
<path d="M49.4785 205.486L46.0139 206.776C46.0139 206.776 30.9663 185.906 29.1136 167.544C28.7827 164.266 28.8935 161.089 29.6086 158.156C29.6086 158.156 29.4608 157.316 29.2037 155.831C29.0855 155.138 28.9378 154.303 28.7709 153.347C28.2818 150.545 27.6081 146.709 26.8384 142.342C25.0684 132.293 22.774 119.446 20.9922 110.003L21.9259 109.703L32.0256 106.445L34.1132 99.8157L41.6334 97.8359C41.6334 97.8359 43.3132 101.123 44.8157 116.648C45.0935 118.684 45.3447 120.93 45.5338 123.366C46.1188 130.799 46.1617 140.019 44.8187 150.561C44.473 153.259 44.0386 156.045 43.4979 158.907C43.1019 161.005 43.0428 163.865 43.2098 167.15C43.9692 182.157 49.4785 205.486 49.4785 205.486Z" fill="#6683C2"/>
<path d="M45.5352 123.363L29.2037 155.831C29.0855 155.138 28.9378 154.303 28.7708 153.347C28.2818 150.545 27.6081 146.709 26.8384 142.342C25.0684 132.293 22.774 119.446 20.9922 110.003L21.9259 109.703L32.0256 106.445L34.1132 99.8157L41.6333 97.8359C41.6333 97.8359 43.3132 101.123 44.8157 116.648C45.0935 118.682 45.3447 120.928 45.5352 123.363Z" fill="#46619B"/>
<path d="M38.3519 101.999L37.9736 98.7578C31.6399 100.441 14.7159 94.0566 14.7159 94.0566C14.7159 94.0566 8.58019 99.4507 9.38539 112.38C9.77838 118.69 10.4964 145.505 11.2469 153.44C11.5188 156.317 11.7552 158.363 11.8527 159.18C11.8542 159.185 11.8542 159.186 11.8542 159.188C11.8837 159.437 11.7965 159.672 11.6695 159.891C10.5644 161.766 9.64985 163.717 8.90079 165.713C1.53728 185.335 10.0355 209.499 10.0355 209.499L12.2398 208.611C12.2398 208.611 17.0754 181.72 21.0039 169.84C21.6702 167.825 22.3099 166.241 22.8965 165.295C24.6044 162.538 26.1897 158.034 27.6287 152.675C30.3486 142.544 32.5367 129.367 33.9949 119.195C34.1973 119.204 38.3519 101.999 38.3519 101.999Z" fill="#6683C2"/>
<path d="M48.5565 76.0142C48.6806 76.1413 48.8002 76.2683 48.9465 76.3865C54.3598 81.4304 61.6509 85.8908 65.5513 86.8733C68.1176 87.5293 73.7747 86.6502 78.4715 85.684C81.6021 85.0664 84.3265 84.3838 85.4508 84.1164C85.8098 84.0322 86.0093 83.9702 86.0093 83.9702L85.5188 80.8025C85.5188 80.8025 82.7028 80.5795 79.2043 80.185C74.3317 79.6117 68.1546 78.7327 66.5722 77.7974C62.9023 75.6168 56.4622 66.47 51.2956 60.7198C51.0252 60.4066 50.7564 60.1052 50.4904 59.8097C50.2954 59.594 50.1019 59.3813 49.9083 59.1745C49.8684 59.1331 49.8197 59.0651 49.7561 59.0297C49.5183 58.8021 49.3173 58.5894 49.1223 58.4032C49.1149 58.3796 49.081 58.3633 49.0484 58.3441C48.1295 57.4222 46.5206 56.3023 46.5206 56.3023C45.6179 55.7882 44.8747 55.6877 44.3517 56.1265C44.3517 56.1265 43.6765 56.7869 43.0146 58.0324C42.8743 58.2924 42.7354 58.5791 42.6039 58.8923C42.4946 59.0636 42.4399 59.2454 42.3867 59.4271C41.9479 60.578 41.6288 62.0229 41.6864 63.7087C41.7263 64.9852 41.9701 66.3932 42.5374 67.9459C43.4372 70.4945 45.7183 73.3268 48.5565 76.0142Z" fill="#E9B49C"/>
<path d="M43.8444 62.6504C42.0095 63.8486 39.7224 64.8148 36.871 65.3895C26.1803 67.5436 22.3626 58.453 21.0078 52.2463C22.4793 51.4588 23.8474 51.314 24.6378 51.2417C25.4076 51.1722 26.2172 51.1353 26.8865 51.1205C28.1054 50.24 29.9876 46.5523 30.5446 40.7578L31.041 40.9056L39.3471 43.432C39.3471 43.432 38.8891 46.0825 38.6291 48.5926C38.4282 50.5561 38.3528 52.4369 38.7118 52.9082C39.3604 53.0678 39.7505 53.1712 39.7505 53.1712C39.7505 53.1712 39.7505 53.1741 39.7549 53.1786C39.8613 53.3692 42.1779 57.4306 43.8444 62.6504Z" fill="#E9B49C"/>
<path d="M47.5714 69.3299C47.5227 69.5574 47.4621 69.7805 47.3956 70.0095C45.5193 76.2841 44.0005 101.366 44.0005 101.366C44.9948 104.502 26.7677 105.144 16.7168 103.695C13.0616 103.169 10.4879 102.367 10.3106 101.307C8.51262 97.2533 12.9139 89.6815 15.4551 85.8328C15.7742 85.3496 16.049 84.8414 16.275 84.3154C16.8498 82.9917 17.126 81.5497 17.0684 80.0959C16.9916 78.1073 16.8217 76.1763 16.6148 74.3664C16.2263 70.9551 15.7047 67.9766 15.4329 65.8683C15.4329 65.8683 15.4329 65.8683 15.4329 65.8668C15.9618 65.3408 16.476 64.8533 16.9561 64.3894C17.6875 63.6743 18.3287 63.0124 18.7778 62.3697C19.2727 61.6694 19.5475 60.9854 19.487 60.2688C19.4397 59.7266 19.3422 59.177 19.2063 58.6348C19.1427 58.3777 19.0718 58.1236 18.995 57.868C18.1794 55.1938 16.6769 52.8802 16.6769 52.8802C19.3983 51.289 24.6417 51.2402 24.6417 51.2402C24.6417 51.2402 24.6772 51.5269 24.7437 51.9952C24.9993 53.876 25.7158 58.6968 26.4501 59.5212C27.3676 60.5495 41.8641 63.5295 42.3679 61.8807C42.8643 60.2599 39.8711 53.4386 39.7588 53.1801C39.7558 53.1757 39.7558 53.1712 39.7558 53.1712C44.3979 54.2749 46.4146 55.5218 46.5062 55.5957C46.5062 55.5957 46.5032 55.5957 46.5018 55.5942C43.9827 57.803 48.8937 63.3167 47.5714 69.3299Z" fill="#F37E60"/>
<path d="M39.3452 43.4361C39.3452 43.4361 38.8857 46.0836 38.6286 48.5953C33.8994 47.9866 31.8251 43.4095 31.0391 40.9082L39.3452 43.4361Z" fill="#CC9981"/>
<path d="M40.6952 45.9756C40.6952 45.9756 29.4564 45.0375 30.1478 38.0463C30.8393 31.0566 29.8553 26.2268 37.0607 26.5312C44.2662 26.8341 45.3934 29.6397 45.7303 32.0287C46.0671 34.4177 43.6368 46.0392 40.6952 45.9756Z" fill="#E9B49C"/>
<path d="M45.7841 28.1105C44.2594 25.8337 42.9031 26.1647 42.1053 26.7232C36.3094 22.7371 31.8594 27.3274 31.8594 27.3274C30.6065 32.2679 26.7031 34.7781 26.7031 34.7781C26.7031 34.7781 28.6223 36.2467 33.4579 35.5065C34.9354 35.2804 36.3241 34.3851 37.5415 33.2534C35.3136 36.2614 32.4858 38.3047 32.4858 38.3047C38.3778 36.2659 41.4242 28.6586 41.733 27.8534C42.3565 28.5374 43.5724 30.009 43.8531 31.3593C44.2343 33.1958 44.1191 36.8849 45.1991 36.8672C45.1976 36.8657 48.0697 31.5233 45.7841 28.1105Z" fill="#696B70"/>
<path d="M95.9286 80.3837C94.8043 81.4548 93.6682 84.1334 90.2065 84.0817C87.7363 84.061 85.2365 84.3388 84.025 84.488C83.5537 84.5707 83.2804 84.6032 83.2804 84.6032L83.1562 80.6821C83.1562 80.6821 83.2065 80.6866 83.3188 80.6688C84.155 80.5433 88.4026 79.8902 90.0839 78.7748C91.9706 77.5101 96.3837 78.6817 96.3837 78.6817C96.3837 78.6817 97.0603 79.3332 95.9286 80.3837Z" fill="#E9B49C"/>
<path d="M22.8567 211.3H5.40821C5.40821 211.3 4.9901 208.641 5.90167 206.623C6.77483 204.687 8.14293 203.807 7.81494 201.465C8.92302 202.607 10.7314 203.885 13.2534 203.545C13.5621 204.046 15.2479 206.727 16.2806 207.469C17.4197 208.289 22.505 207.997 22.8567 211.3Z" fill="#46619B"/>
<path d="M60.3211 211.302H42.8727C42.8727 211.302 42.2197 208.519 43.3662 206.625C44.3797 204.949 43.9911 203.995 43.2406 202.609C44.031 202.933 45.0534 203.227 46.1792 203.163C47.0479 203.113 47.9683 202.718 48.7735 202.25C49.5241 203.105 52.7404 206.75 53.7451 207.473C54.8857 208.291 59.9695 207.999 60.3211 211.302Z" fill="#46619B"/>
<path d="M38.0156 41.9308C38.0156 41.9308 38.1722 42.8557 40.4504 42.8587C40.4504 42.8587 42.3622 42.8601 42.3667 41.8555C42.3667 41.8555 40.5642 41.0252 38.0156 41.9308Z" fill="white"/>
<path d="M19.0984 86.361C18.4084 90.7327 15.2467 99.5056 16.7168 103.696C13.0616 103.17 10.4879 102.367 10.3106 101.308C8.51262 97.254 12.9139 89.6822 15.4551 85.8335C15.7742 85.3504 16.049 84.8422 16.275 84.3162C16.8498 82.9924 17.126 81.5504 17.0684 80.0967C16.9916 78.108 16.8217 76.177 16.6148 74.3672C16.6148 74.3672 19.8327 81.7144 19.0984 86.361Z" fill="#DC775D"/>
<path d="M43.7969 56.865C43.918 60.7506 46.7281 71.4176 47.3959 70.0097C48.1582 68.4037 51.1087 62.2989 52.4945 62.0744C52.4221 61.7922 46.7503 55.522 46.502 55.5944C46.5006 55.5958 44.9596 56.0657 43.7969 56.865Z" fill="#F37E60"/>
<path d="M17.038 111.987L14.1437 113.913C14.1437 113.913 13.4109 112.997 12.2511 111.535C11.9039 111.094 11.7192 110.828 11.7192 110.828C10.8017 109.647 9.73501 108.196 8.56784 106.622L8.54864 106.604C6.594 103.858 4.44582 100.736 2.80292 97.9128C1.66086 95.9108 0.771449 94.0582 0.337085 92.6014C0.289807 92.4551 0.263212 92.3281 0.233663 92.1626C-0.615859 88.4676 0.942829 81.1321 3.42343 73.974C3.76472 72.9841 4.12374 72.0105 4.46798 71.059C5.78732 67.5486 7.27066 64.2495 8.75991 61.5843C9.63307 59.9812 10.5033 58.5836 11.3425 57.5405C11.6335 57.1667 11.9068 56.8151 12.2023 56.5152C12.3619 56.3335 12.5214 56.1591 12.6795 55.9922C14.4185 56.1385 18.0662 56.8284 20.7744 59.9547C20.7286 60.1186 20.6798 60.2826 20.6311 60.4511C19.5363 63.9821 17.8461 68.3154 16.0939 72.563C15.1409 74.8959 14.1658 77.211 13.3119 79.3888C12.7697 80.6904 12.2806 81.9314 11.8374 83.0779C11.0041 85.2719 10.3851 87.098 10.1398 88.3789C9.97288 89.2092 10.2107 90.7709 10.6584 92.6915C11.4267 96.0394 12.8893 100.547 14.25 104.374C14.8055 105.971 15.3537 107.457 15.8117 108.689C16.5415 110.684 17.038 111.987 17.038 111.987Z" fill="#E9B49C"/>
<path d="M18.3032 71.0057C15.4119 66.6414 7.125 64.7636 7.125 64.7636C11.8011 49.9257 24.0785 51.3012 24.0785 51.3012C24.0785 51.3012 19.6122 66.7389 18.3032 71.0057Z" fill="#F37E60"/>
<path d="M14.1406 113.912C14.1406 113.912 14.9015 115.035 14.9857 115.842C15.0714 116.65 15.7939 119.327 16.7276 120.177C17.6628 121.026 19.7874 122.727 20.0843 122.471C20.3813 122.216 21.2426 120.212 20.4448 118.795C20.0843 118.156 19.5953 116.372 18.9511 115.941C18.1681 115.416 17.0334 111.984 17.0334 111.984L14.1406 113.912Z" fill="#E9B49C"/>
<path d="M17.0547 112.422C17.0547 112.422 19.3565 113.591 19.6683 114.526C19.98 115.461 21.2668 117.346 21.1339 117.565C20.992 117.798 18.9916 116.523 18.312 115.362C17.6324 114.201 17.0547 112.422 17.0547 112.422Z" fill="#E9B49C"/>
<path d="M71.8359 101.549L156.138 51.0798C160.788 48.2963 166.591 48.2963 171.239 51.0798L255.541 101.549V183.806L71.8374 174.596V101.549H71.8359Z" fill="#DC775D"/>
<path d="M239.72 65.1016H87.6406V196.528H239.72V65.1016Z" fill="#F6F6F6"/>
<path d="M94.4531 72.2784C95.2507 71.948 95.6294 71.0336 95.299 70.236C94.9687 69.4384 94.0543 69.0597 93.2567 69.3901C92.4591 69.7205 92.0803 70.6349 92.4107 71.4325C92.7411 72.23 93.6555 72.6088 94.4531 72.2784Z" fill="#EFCBAB"/>
<path d="M231.859 70.8346C231.859 69.9718 232.56 69.2715 233.422 69.2715C234.285 69.2715 234.986 69.9718 234.986 70.8346C234.986 71.6974 234.285 72.3977 233.422 72.3977C232.558 72.3992 231.859 71.6989 231.859 70.8346Z" fill="#EFCBAB"/>
<path d="M233.418 70.6641H93.8438V71.0039H233.418V70.6641Z" fill="#EFCBAB"/>
<path d="M94.0195 70.2148H93.6797V209.789H94.0195V70.2148Z" fill="#EFCBAB"/>
<path d="M233.645 70.2148H233.305V209.789H233.645V70.2148Z" fill="#EFCBAB"/>
<path d="M255.54 101.322V211.301H71.8359V101.322L163.688 156.312L255.54 101.322Z" fill="#F37E60"/>
<path d="M71.8359 211.3L155.977 150.977C160.587 147.672 166.789 147.672 171.398 150.977L255.54 211.3H71.8359Z" fill="#DC775D"/>
<path d="M191.732 83.3111H136.284C135.479 83.3111 134.82 82.6521 134.82 81.847C134.82 81.0418 135.479 80.3828 136.284 80.3828H191.732C192.538 80.3828 193.197 81.0418 193.197 81.847C193.197 82.6521 192.538 83.3111 191.732 83.3111Z" fill="#EFCBAB"/>
<path d="M206.009 89.1861H121.995C121.19 89.1861 120.531 88.5271 120.531 87.722C120.531 86.9168 121.19 86.2578 121.995 86.2578H206.009C206.815 86.2578 207.474 86.9168 207.474 87.722C207.474 88.5271 206.815 89.1861 206.009 89.1861Z" fill="#EFCBAB"/>
<path d="M195.111 107.4H134.325C133.743 107.4 133.266 106.923 133.266 106.341C133.266 105.758 133.743 105.281 134.325 105.281H195.111C195.693 105.281 196.17 105.758 196.17 106.341C196.169 106.924 195.693 107.4 195.111 107.4Z" fill="#EFCBAB"/>
<path d="M140.433 112.931H123.294C122.712 112.931 122.234 112.454 122.234 111.872C122.234 111.29 122.712 110.812 123.294 110.812H140.433C141.015 110.812 141.493 111.29 141.493 111.872C141.493 112.455 141.015 112.931 140.433 112.931Z" fill="#EFCBAB"/>
<path d="M166.273 112.931H145.567C144.985 112.931 144.508 112.454 144.508 111.872C144.508 111.29 144.985 110.812 145.567 110.812H166.273C166.855 110.812 167.333 111.29 167.333 111.872C167.333 112.455 166.857 112.931 166.273 112.931Z" fill="#EFCBAB"/>
<path d="M206.153 112.931H170.356C169.774 112.931 169.297 112.454 169.297 111.872C169.297 111.29 169.774 110.812 170.356 110.812H206.153C206.735 110.812 207.212 111.29 207.212 111.872C207.212 112.455 206.735 112.931 206.153 112.931Z" fill="#EFCBAB"/>
<path d="M166.417 119.365H133.122C132.54 119.365 132.062 118.888 132.062 118.305C132.062 117.723 132.54 117.246 133.122 117.246H166.417C166.999 117.246 167.476 117.723 167.476 118.305C167.476 118.888 166.999 119.365 166.417 119.365Z" fill="#EFCBAB"/>
<path d="M196.315 119.365H170.091C169.508 119.365 169.031 118.888 169.031 118.305C169.031 117.723 169.508 117.246 170.091 117.246H196.315C196.897 117.246 197.374 117.723 197.374 118.305C197.374 118.888 196.897 119.365 196.315 119.365Z" fill="#EFCBAB"/>
<path d="M175.767 132.441C173.765 134.103 171.622 135.489 169.364 136.754C169.555 136.155 169.714 135.533 169.685 134.981C169.645 134.218 169.036 133.884 168.428 133.568C168.277 133.49 168.136 133.407 167.996 133.324C168.232 133.092 168.354 132.772 168.197 132.422C167.94 131.844 167.219 131.937 166.975 132.472C166.929 132.571 166.904 132.667 166.892 132.76C166.795 132.708 166.72 132.652 166.655 132.574C167.025 131.881 167.376 131.175 167.698 130.454C167.77 130.291 167.678 130.101 167.548 130.002C167.014 129.598 166.284 129.728 165.854 130.235C165.344 130.836 165.473 131.751 165.716 132.434C165.734 132.481 165.752 132.53 165.773 132.577C165.3 133.431 164.786 134.26 164.235 135.066C164.183 135.015 164.131 134.963 164.079 134.913C163.936 134.772 163.782 134.594 163.649 134.396C163.902 133.738 164.063 133.047 164.124 132.329C164.15 132.008 163.83 131.85 163.561 131.949C162.819 132.224 162.42 132.977 162.516 133.753C162.549 134.019 162.636 134.273 162.757 134.509C162.592 134.868 162.395 135.217 162.163 135.552C162.013 135.77 162.12 135.991 162.298 136.095C162.054 136.904 161.727 137.732 161.169 138.315C160.712 138.791 159.861 139.153 159.306 138.587C158.954 138.229 158.91 137.631 158.861 137.158C158.743 135.993 158.654 134.783 158.697 133.61C158.718 133.054 158.777 132.49 158.966 131.965C159.084 131.639 159.25 131.145 159.408 131.707C159.486 131.983 159.378 132.41 159.35 132.691C159.3 133.191 160.077 133.249 160.127 132.751C160.186 132.163 160.449 130.931 159.785 130.563C159.233 130.257 158.727 130.696 158.471 131.154C157.552 132.803 157.919 135.066 158.056 136.858C158.167 138.287 158.7 140.041 160.525 139.586C162.242 139.159 162.872 136.994 163.267 135.505C163.292 135.412 163.283 135.328 163.255 135.255C163.261 135.244 163.268 135.23 163.276 135.219C163.347 135.291 163.418 135.36 163.49 135.433C163.592 135.523 163.688 135.617 163.781 135.715C163.601 135.965 163.418 136.213 163.228 136.458C163.122 136.597 163.153 136.805 163.259 136.934C163.837 137.63 164.876 137.114 164.855 136.259C164.851 136.061 164.802 135.885 164.725 135.724C165.267 134.944 165.774 134.14 166.244 133.316C166.488 133.555 166.799 133.709 167.181 133.691C167.207 133.689 167.232 133.686 167.259 133.683C167.458 133.895 167.709 134.071 167.938 134.201C168.16 134.325 168.416 134.403 168.615 134.565C168.986 134.868 168.875 135.214 168.794 135.644C168.686 136.21 168.507 136.774 168.342 137.327C167.557 137.777 166.783 138.349 166.519 139.253C166.278 140.078 166.492 140.945 167.198 141.456C167.411 141.61 167.693 141.486 167.783 141.263C168.227 140.174 168.627 139.067 168.97 137.943C168.98 137.907 168.992 137.87 169.004 137.835C169.697 137.441 170.422 137.093 171.108 136.689C172.926 135.611 174.652 134.384 176.279 133.033C176.669 132.707 176.154 132.12 175.767 132.441ZM166.293 131.402C166.285 131.091 166.451 130.519 166.81 130.526C166.647 130.878 166.479 131.226 166.304 131.571C166.3 131.515 166.294 131.457 166.293 131.402ZM167.284 140.412C166.956 139.797 167.426 139.039 167.962 138.538C167.752 139.169 167.525 139.793 167.284 140.412Z" fill="#F99746"/>
<g opacity="0.5">
<path d="M160.404 11.1309L168.323 28.6029L139.138 41.8304L131.219 24.3583L149.771 26.4813L160.404 11.1309Z" fill="#6683C2"/>
<path d="M131.219 24.3578L160.404 11.1289L151.678 25.8352C150.99 26.995 149.656 27.6082 148.327 27.3732L131.219 24.3578Z" fill="#7D99D6"/>
</g>
<g opacity="0.5">
<path d="M308.386 58.7264L302.532 80.6632L265.891 70.8841L271.744 48.9473L287.138 64.806L308.386 58.7264Z" fill="#6683C2"/>
<path d="M271.742 48.9473L308.384 58.7249L289.365 65.6452C287.865 66.1903 286.184 65.7515 285.144 64.5401L271.742 48.9473Z" fill="#7D99D6"/>
</g>
<path d="M208.508 13.2674L232.283 17.0304L216.635 6.01172L215.778 9.45413L209.968 10.4145L208.508 13.2674Z" fill="#AFCDFB"/>
<path d="M232.285 17.0307L212.613 6.50549L193.195 5.23047L232.285 17.0307Z" fill="#EAEAEA"/>
<path d="M216.633 6.01166L232.28 17.0303L220.297 0L216.633 6.01166Z" fill="#EAEAEA"/>
<path d="M280.505 109.597C280.505 109.597 275.658 109.934 272.079 118.664C268.47 127.47 276.542 127.382 273.823 132.992C271.103 138.602 277.738 141.948 279.751 146.542C281.767 151.135 291.917 162.214 292.72 167.269C293.524 172.321 302.55 162.015 302.55 162.015C302.55 162.015 311.725 152.228 308.434 146.543C303.012 137.172 307.709 135.136 307.539 129.903C307.371 124.667 297.436 104.043 280.505 109.597Z" fill="#696B70"/>
<path d="M277.866 140.914C277.866 140.914 259.098 149.095 255.533 148.938C251.968 148.783 230 142.247 230 142.247L230.56 146.026C230.56 146.026 247.513 155.777 253.441 156.33C259.277 156.875 279.229 151.092 281.156 149.872C283.08 148.651 283.464 142.151 277.866 140.914Z" fill="#D6A58E"/>
<path d="M276.359 149.885C278.084 151.082 280.247 152.069 282.962 152.695C293.14 155.047 297.04 146.444 298.505 140.54C297.117 139.745 295.811 139.571 295.056 139.481C294.32 139.394 293.546 139.336 292.907 139.305C291.765 138.43 290.061 134.848 289.684 129.285L289.206 129.414L281.185 131.609C281.185 131.609 281.553 134.159 281.733 136.569C281.872 138.456 282.117 139.549 281.759 139.991C281.133 140.127 280.535 140.923 280.535 140.923C280.535 140.923 280.535 140.926 280.53 140.93C280.422 141.105 278.095 144.931 276.359 149.885Z" fill="#E9B49C"/>
<path d="M281.172 131.61C281.172 131.61 281.541 134.157 281.72 136.569C286.265 136.114 288.373 131.788 289.194 129.414L281.172 131.61Z" fill="#CC9981"/>
<path d="M279.821 134.003C279.821 134.003 290.608 133.408 290.133 126.696C289.659 119.984 290.732 115.388 283.825 115.484C276.918 115.58 275.763 118.235 275.375 120.515C274.99 122.793 277.004 133.984 279.821 134.003Z" fill="#E9B49C"/>
<path d="M301.574 171.813C302.547 166.834 305.724 146.939 302.547 140.537C301.407 138.237 296.932 138.03 292.021 138.231C290.493 139.218 284.67 142.945 282.278 142.48C282.253 142.476 282.206 142.464 282.144 142.449C281.018 142.167 280.816 140.669 281.755 139.986C281.757 139.985 279.1 140.459 276.081 141.028C274.374 141.348 269.773 143.73 269.773 143.73C269.773 143.73 272.09 147.915 275.507 149.362C274.927 154.559 275.791 156.852 281.182 168.857C285.739 179.004 280.568 188.14 280.568 188.14C280.568 188.14 307.389 209.705 307.538 198.724C307.647 190.458 300.328 178.178 301.574 171.813Z" fill="#68CCEA"/>
<path d="M279.239 211.59C277.781 211.426 276.467 210.627 275.652 209.406C275.522 209.213 275.385 209.005 275.237 208.782C272.184 204.16 270.995 190.006 264.129 174.928C262.457 171.256 256.453 170.597 254.816 166.447C254.816 166.447 250.787 152.997 262.528 152.601C274.271 152.203 293.975 190.026 294.287 193.992C294.588 197.834 302.051 214.164 279.239 211.59Z" fill="#364D7F"/>
<path d="M232.562 211.28H249.275C249.275 211.28 249.9 208.615 248.802 206.801C247.832 205.196 248.204 204.282 248.922 202.954C248.166 203.264 247.186 203.546 246.108 203.484C245.274 203.437 244.394 203.059 243.623 202.609C242.903 203.429 239.823 206.921 238.861 207.612C237.769 208.396 232.898 208.117 232.562 211.28Z" fill="#293245"/>
<path d="M299.81 145.754C299.81 145.754 301.985 165.544 287.878 169.691C273.772 173.838 269.767 151.482 281.156 149.874C292.547 148.266 299.81 145.754 299.81 145.754Z" fill="#4EB5D4"/>
<path d="M254.424 156.488C253.418 164.033 249.488 187.846 242.556 199.463C240.321 203.209 248.187 205.308 248.229 205.298C249.284 205.021 251.042 203.34 251.852 202.609C257.481 197.537 268.906 183.173 268.906 171.658C268.906 166.044 269.005 155.321 264.921 152.595C262.407 150.918 254.825 153.492 254.424 156.488Z" fill="#364D7F"/>
<path d="M289.195 211.282C289.195 211.282 288.576 210.42 287.496 208.782C286.211 206.835 284.788 203.004 283.062 198.093C281.25 192.938 279.099 186.595 276.411 179.996C275.582 177.958 274.7 175.897 273.763 173.838C272.091 170.166 267.489 170.675 265.852 166.524C265.852 166.524 259.463 152.139 271.206 151.741C282.949 151.344 305.261 190.225 306.543 193.991C307.95 198.113 314.798 215.231 289.195 211.282Z" fill="#6683C2"/>
<path d="M244.836 211.28H261.549C261.549 211.28 262.174 208.615 261.076 206.801C260.105 205.196 260.477 204.282 261.196 202.954C260.439 203.264 259.46 203.546 258.381 203.484C257.548 203.437 256.667 203.059 255.896 202.609C255.176 203.429 252.096 206.921 251.134 207.612C250.042 208.396 245.171 208.117 244.836 211.28Z" fill="#273B67"/>
<path d="M283.073 198.093C281.26 192.939 279.109 186.596 276.422 179.996C277.124 174.997 278.638 170.622 281.184 168.859C281.185 168.858 287.361 187.992 283.073 198.093Z" fill="#46619B"/>
<path d="M264.178 155.952C263.172 163.497 261.754 187.846 254.822 199.463C252.586 203.208 260.452 205.307 260.495 205.297C261.55 205.021 263.308 203.339 264.118 202.608C269.745 197.536 281.172 183.172 281.172 171.657C281.172 166.043 274.582 155.771 270.5 153.045C267.986 151.368 264.579 152.956 264.178 155.952Z" fill="#6683C2"/>
<path d="M243.492 136.166C243.492 136.166 242.637 133.991 241.078 134.132C239.519 134.273 225.367 136.166 225.367 136.166C225.367 136.166 227.015 136.56 227.637 137.64L234.165 156.878H250.91L243.492 136.166Z" fill="#EBF3FA"/>
<path d="M298.495 140.539C298.495 140.539 274.773 149.275 271.21 149.096C268.906 148.981 249.757 142.25 249.757 142.25L248.039 145.502C248.039 145.502 266.677 157.481 271.801 157.422C281.916 157.305 298.985 151.095 300.912 149.875C302.837 148.653 304.093 141.776 298.495 140.539Z" fill="#E9B49C"/>
<path d="M249.762 142.25C249.762 142.25 248.044 139.604 246.332 139.527C244.619 139.449 241.663 140.694 240.652 140.889C239.64 141.084 236.762 142.018 237.618 143.417C238.473 144.818 242.441 145.129 244.154 144.818C245.866 144.506 248.044 145.502 248.044 145.502L249.762 142.25Z" fill="#E9B49C"/>
<path d="M246.798 139.609C246.798 139.609 244.076 138.361 243.298 138.127C242.519 137.894 242.676 138.132 242.909 138.869C243.143 139.606 244.543 140.309 244.543 140.541C244.542 140.772 246.798 139.609 246.798 139.609Z" fill="#E9B49C"/>
<path d="M277.797 130.142C277.797 130.142 278.816 129.738 281.685 129.97C281.685 129.97 281.533 131.09 279.418 131.201C278.219 131.265 277.797 130.142 277.797 130.142Z" fill="white"/>
<path d="M286.281 144.845C286.281 144.845 288.403 151.562 295.69 153.089C295.69 153.089 307.722 149.382 301.731 141.186C301.731 141.186 295.808 136.784 286.281 144.845Z" fill="#68CCEA"/>
<path d="M225.367 136.166C225.367 136.166 223.795 136.767 224.984 138.807L240.284 136.767C240.284 136.767 239.752 134.402 240.955 134.145L225.367 136.166Z" fill="white"/>
<path d="M230.846 141.188C231.21 139.734 231.186 139.383 230.364 138.495C229.821 137.908 228.989 139.364 228.559 140.241C228.401 139.854 228.132 139.223 228.04 139.191C227.907 139.145 228.224 141.145 228.224 141.145C228.215 141.228 228.212 141.312 228.215 141.396L228.213 141.395C228.213 141.395 227.55 144.335 230.441 145.923L229.89 144.303C230.227 144.246 230.478 142.666 230.846 141.188Z" fill="#D6A58E"/>
<path d="M279.416 116.968C279.416 116.968 281.69 116.172 282.792 118.495C283.893 120.817 284.243 126.371 288.657 126.824C293.072 127.278 293.243 117.418 293.243 117.418L282.194 113.055L276.359 116.738L279.416 116.968Z" fill="#696B70"/>
<path d="M279.415 116.967C279.415 116.967 276.926 117.02 276.357 119.116C275.788 121.213 276.676 125.123 275.298 125.406C273.919 125.689 272.666 118.889 275.333 116.678C278 114.468 279.415 116.967 279.415 116.967Z" fill="#535761"/>
<path d="M83.9766 80.5665C83.9766 80.5665 86.469 79.6224 86.7512 78.9709C87.0348 78.3193 87.8563 78.0357 88.8477 77.5821C89.839 77.1285 90.4344 76.3071 90.5762 76.4208C90.7181 76.5346 90.7461 77.1005 90.3502 77.526C89.9528 77.9515 88.2729 80.9255 87.6406 81.2653C87.0068 81.6066 83.9766 80.5665 83.9766 80.5665Z" fill="#E9B49C"/>
</svg>
