<svg width="150" height="122" viewBox="0 0 150 122" fill="none" xmlns="http://www.w3.org/2000/svg">
<mask id="mask0_2040_465" style="mask-type:alpha" maskUnits="userSpaceOnUse" x="0" y="0" width="150" height="122">
<rect width="150" height="122" transform="matrix(-1 0 0 1 150 0)" fill="#D9D9D9"/>
</mask>
<g mask="url(#mask0_2040_465)">
<path d="M114.299 96.8132C134.548 117.265 167.538 117.43 187.986 97.185C208.432 76.9416 208.596 43.9514 188.347 23.4998C168.098 3.04858 135.107 2.88238 114.661 23.1258C94.2128 43.3718 94.0512 76.3625 114.299 96.8132Z" fill="#7FCBB4"/>
<path d="M23.5355 144.356C38.0981 159.065 61.9305 159.081 76.7694 144.389C91.6046 129.701 91.8263 105.87 77.2633 91.1611C62.7003 76.4523 38.8679 76.4357 24.0323 91.1243C9.19337 105.816 8.97254 129.648 23.5355 144.356Z" fill="#68CCEA"/>
<path d="M53.6217 75.7502L36.1979 95.6448L-14.7551 153.824L37.8632 152.209C37.8632 152.209 50.796 126.198 56.5293 114.91C63.3079 101.567 71.2677 86.6106 73.7362 84.8786C78.2976 81.6808 85.8849 79.0442 88.326 75.1535L53.6221 75.7531L53.6217 75.7502Z" fill="#FFB098"/>
<path d="M-16.6498 152.475C-16.6498 152.475 36.6975 90.6095 41.2985 88.3521L64.1783 102.045C64.1783 102.045 49.9166 144.98 42.5922 155.298C35.2674 165.614 -15.3911 159.784 -15.3911 159.784L-16.6468 152.475L-16.6498 152.475Z" fill="#6787C3"/>
<path d="M100.163 53.5237C98.4589 53.7083 96.7471 53.237 95.3753 52.2064L83.5025 43.2682C80.7457 41.2636 77.3161 40.4072 73.9394 40.8845L64.4531 42.2248C62.987 42.4334 61.6797 43.2672 60.8779 44.5128L57.9968 48.9861L55.4394 49.6237C53.4569 50.0061 51.9503 51.0203 51.6846 52.8283C51.4257 54.5988 52.4327 56.5695 54.0964 57.0658C52.6417 57.3762 51.5973 58.711 51.6161 60.0618C51.6624 63.5712 54.6592 64.2703 54.6592 64.2703C53.159 64.3894 52.1753 65.232 52.0125 66.3531C51.913 67.0425 51.8672 68.2596 53.1233 69.2032C52.6269 69.2829 52.233 69.5701 51.8629 69.9817C51.2615 70.6482 51.487 72.4258 51.6699 73.5404C51.6699 73.5404 51.8197 76.7736 54.6914 77.384L70.5712 80.3595C70.5712 80.3595 78.1797 81.7621 88.885 76.7231C89.6173 76.3786 90.4011 76.1607 91.2057 76.0888L184.709 63.4869L166.259 27.8516L100.161 53.5148L100.163 53.5237Z" fill="#FFBEAC"/>
<path d="M111.674 49.0541L171.075 23.8662C171.075 23.8662 186.41 37.5221 190.275 68.3247C190.275 68.3247 121.365 75.5087 115.78 72.8512L115.571 58.5216L111.674 49.0541Z" fill="#F37E60"/>
<path d="M102.033 48.3845C101.262 48.0045 100.565 47.9394 99.9978 48.011C99.6453 48.055 99.3124 48.1723 99.0114 48.3429C98.9685 48.0205 98.8925 47.6998 98.7782 47.3876C98.5116 46.6681 98.0387 45.9294 97.2251 45.2969C95.7627 44.1636 94.2827 44.8304 93.2667 45.638C93.3066 44.8932 93.2011 43.1472 91.5859 42.0082C89.4843 40.5279 87.7127 41.2179 86.1942 42.2126C86.1942 42.2126 87.6261 39.2198 84.625 37.8278L77.6221 44.7429C77.6221 44.7429 74.5881 47.5439 75.5267 50.017C76.4648 52.4871 78.887 53.1006 79.4783 53.0257C79.4783 53.0257 77.1103 56.3402 80.3922 58.6594C82.5517 60.1832 84.4109 58.7416 85.5299 57.3962C85.7052 58.3933 86.1737 59.528 87.3298 60.2395C89.7588 61.7342 91.7342 60.2122 92.991 59.0236C93.6822 58.3687 95.6102 55.6368 97.0787 53.4144C97.3211 53.9 97.692 54.3278 98.1916 54.6339C99.3716 55.3633 100.895 55.1952 101.888 54.2266L102.877 53.2465C103.388 52.3709 103.83 51.5719 103.768 50.8112C103.689 49.8705 103.086 48.9009 102.043 48.3862L102.033 48.3845Z" fill="#FFB098"/>
<path d="M83.4558 41.708C81.4307 43.7146 78.2809 44.996 75.712 45.766L60.0586 48.6772C61.376 47.2732 64.3395 44.0199 66.7758 41.2492C69.086 38.6181 70.9868 37.49 71.8656 37.0638C72.1785 36.9128 72.5221 36.8488 72.8677 36.8635C78.1208 37.0956 81.2281 36.3707 82.4466 35.9601C82.9745 35.7816 83.5687 35.8978 83.9648 36.2885C84.9331 37.2397 85.8996 39.2891 83.4618 41.7072L83.4558 41.708Z" fill="#FFB098"/>
<path d="M82.2551 79.4597C82.241 79.4678 82.224 79.4763 82.2065 79.4818C81.9396 79.5715 75.596 81.654 70.5209 80.5997C65.5117 79.5604 61.0877 78.8302 61.0443 78.8242C60.9136 78.8032 60.826 78.6788 60.8469 78.5481C60.8678 78.4174 60.9922 78.3297 61.1228 78.3507C61.1663 78.3567 65.5996 79.0886 70.6182 80.1297C75.5707 81.1558 81.9927 79.0469 82.0565 79.0256C82.1813 78.9835 82.3187 79.0522 82.3578 79.1774C82.3944 79.2848 82.35 79.4006 82.2546 79.4567L82.2551 79.4597Z" fill="#DB9885"/>
<path d="M53.5312 56.9814L61.1642 58.192" stroke="#DB9885" stroke-width="1.5" stroke-linecap="round" stroke-linejoin="round"/>
<path d="M54.6016 64.5088L62.9988 66.006" stroke="#DB9885" stroke-width="1.5" stroke-linecap="round" stroke-linejoin="round"/>
<path d="M52.9258 69.6143L62.156 72.1366" stroke="#DB9885" stroke-width="1.5" stroke-linecap="round" stroke-linejoin="round"/>
<path d="M111.676 49.0532C111.676 49.0532 115.871 59.6127 115.654 73.3672C115.654 73.3672 121.445 73.6383 122.788 73.4412C122.788 73.4412 124.561 56.8193 118.435 46.0477C118.435 46.0477 115.371 47.1222 111.676 49.0532Z" fill="#D86344"/>
<path d="M41.8696 82.9179C41.8696 82.9179 61.1104 88.4264 69.5755 100.274C69.5755 100.274 68.2941 105.35 66.5885 108.342C66.5885 108.342 47.3549 94.9334 35.0505 91.7017C35.0505 91.7017 37.41 85.9551 41.8696 82.9179Z" fill="#81A3E3"/>
<path d="M59.8159 48.702C59.8159 48.702 73.895 46.9698 78.5262 44.7111C83.157 42.4495 85.1944 38.82 85.1944 38.82" stroke="#DB9885" stroke-width="1.5" stroke-linecap="round" stroke-linejoin="round"/>
<path d="M85.6538 44.0228C85.6538 44.0228 81.407 54.4755 77.8466 53.0415C74.2857 51.6045 75.0203 47.8349 76.6981 45.7804" stroke="#DB9885" stroke-width="1.5" stroke-linecap="round" stroke-linejoin="round"/>
<path d="M92.2043 47.4827C92.2043 47.4827 88.4298 54.994 84.8017 58.4057C81.1766 61.8169 76.2054 57.4538 79.4692 53.0203" stroke="#DB9885" stroke-width="1.5" stroke-linecap="round" stroke-linejoin="round"/>
<path d="M97.769 50.2251C97.769 50.2251 95.3847 59.3452 90.5458 60.721C85.7069 62.0968 85.6063 57.5852 85.6063 57.5852" stroke="#DB9885" stroke-width="1.5" stroke-linecap="round" stroke-linejoin="round"/>
<path d="M102.985 53.0364C102.985 53.0364 99.1268 57.8251 96.8555 52.9502" stroke="#DB9885" stroke-width="1.5" stroke-linecap="round" stroke-linejoin="round"/>
</g>
</svg>
