<svg width="101" height="106" viewBox="0 0 101 106" fill="none" xmlns="http://www.w3.org/2000/svg">
<path d="M67.4406 82.0514V78.1453C67.4406 78.1453 55.437 75.3034 55.437 55.7275H45.4802C45.4802 75.3034 33.4766 78.1453 33.4766 78.1453V82.0514H67.4406Z" fill="#F2C45B"/>
<path d="M55.5789 59.5551C55.6282 60.0929 55.6837 60.6138 55.7515 61.1233C57.6997 75.8533 67.4161 78.1573 67.4161 78.1573V82.0634H64.9007V78.1573C64.9007 78.1573 55.6899 75.9722 53.4088 62.2724C52.484 62.5781 51.5037 62.7366 50.4865 62.7366C48.5136 62.7366 46.6702 62.1196 45.1289 61.061C45.1967 60.5515 45.2522 60.0307 45.3015 59.4985L55.5789 59.5551Z" fill="#DAAC43"/>
<path d="M60.3783 50.553C60.3783 56.3499 55.9578 61.0542 50.5016 61.0542C45.0454 61.0542 40.625 56.3555 40.625 50.553H60.3783Z" fill="#F2C45B"/>
<path d="M60.3783 50.553C60.3783 51.6173 60.2303 52.6815 59.9282 53.7062C59.2007 56.1687 57.6348 58.2463 55.5941 59.554C54.1083 60.5051 52.3635 61.3146 50.5016 61.3146C48.6706 61.3146 46.8642 60.6636 45.477 59.5993C46.4511 59.9786 47.5054 60.1881 48.6028 60.1881C52.1662 60.1881 55.2488 58.0029 56.7285 54.8214C54.7186 55.3649 52.6348 55.6366 50.5016 55.6366C47.2094 55.6366 44.0405 54.9799 41.0751 53.7062C40.7791 52.7098 40.625 51.6512 40.625 50.553H60.3783Z" fill="#DAAC43"/>
<path d="M80.3697 9.41349C80.3697 38.132 66.9847 54.5603 50.4739 54.5603C33.9631 54.5603 20.5781 38.132 20.5781 9.41349V4.59595H80.3697V9.41349Z" fill="#F2C45B"/>
<path d="M17.161 40.7874C17.9809 41.1497 18.7701 41.3704 19.6825 41.4157C20.0833 41.4327 20.4902 41.3761 20.8847 41.3252C21.1437 41.2855 21.3965 41.2289 21.6431 41.144C22.9378 40.6911 24.1461 39.8816 24.738 38.6928C25.0832 37.9965 25.2682 37.3398 25.3237 36.5699C25.3668 35.9755 25.2805 35.3471 25.1079 34.7697C24.9106 34.1187 24.5715 33.4733 24.1893 32.8959C22.8391 30.8522 20.8108 29.2388 18.8071 27.7556C17.4199 26.731 16.0019 25.746 14.5901 24.7496C14.7257 24.8459 14.8613 24.9421 14.9908 25.0384C12.6665 23.391 10.3608 21.6983 8.3509 19.7283C7.79603 19.1848 7.26582 18.6187 6.77261 18.0356C6.87742 18.1602 6.98222 18.2847 7.08703 18.4036C6.17458 17.3167 5.38544 16.1392 4.79358 14.8768C4.8614 15.024 4.92921 15.1655 4.99703 15.3127C4.52848 14.288 4.19556 13.2124 4.03526 12.1142C4.05992 12.2784 4.08458 12.4369 4.10924 12.601C3.97361 11.6557 3.94278 10.6933 4.07842 9.74789C4.05376 9.91206 4.02909 10.0706 4.00443 10.2347C4.12157 9.43087 4.35585 8.64964 4.69494 7.90239C4.62712 8.04957 4.5593 8.1911 4.49148 8.33829C4.83057 7.60801 5.2683 6.92869 5.79234 6.30031C5.68753 6.42486 5.58272 6.5494 5.47792 6.66828C5.98963 6.06255 6.58149 5.51909 7.24116 5.04922C7.10553 5.14546 6.96989 5.2417 6.84042 5.33794C7.52476 4.85675 8.27075 4.45482 9.0599 4.14346C8.8996 4.20573 8.74547 4.268 8.58518 4.33027C9.39898 4.01892 10.2498 3.8038 11.1252 3.69624C10.9464 3.71888 10.7738 3.74153 10.595 3.76417C11.341 3.67359 12.0993 3.65095 12.8515 3.74153C12.6727 3.71888 12.5001 3.69624 12.3213 3.67359C12.8946 3.74719 13.4557 3.88871 13.9921 4.09817C13.8318 4.0359 13.6776 3.97363 13.5173 3.91136C14.0414 4.11515 14.5284 4.38122 14.9846 4.69258C14.849 4.59634 14.7134 4.5001 14.5839 4.40387C15.0463 4.73221 15.4594 5.1115 15.817 5.53607C15.7121 5.41153 15.6073 5.28699 15.5025 5.16811C15.8478 5.58136 16.1314 6.03425 16.3533 6.51543C16.2855 6.36825 16.2177 6.22672 16.1499 6.07953C16.3718 6.57204 16.5259 7.0872 16.6123 7.61367C16.5876 7.4495 16.5629 7.291 16.5383 7.12683C16.5814 7.40988 16.5999 7.69293 16.5999 7.97598C16.5999 8.44585 16.8219 8.93836 17.1856 9.2667C17.5309 9.58372 18.0981 9.82148 18.5913 9.8045C19.664 9.75921 20.5888 9.00063 20.5826 7.97598C20.5703 5.87008 19.6517 3.80946 18.0241 2.32627C16.4026 0.831752 14.1523 -0.00608184 11.8589 0.00524023C7.60491 0.0278844 3.54204 2.21871 1.4952 5.64929C0.471777 7.36459 -0.0460999 9.31199 0.00322171 11.265C0.0402129 12.7709 0.336142 14.2994 0.909506 15.7146C2.05623 18.5621 4.05992 21.002 6.39653 23.1249C8.68382 25.1969 11.2609 26.9801 13.8009 28.7746C14.0907 28.9784 14.3805 29.1822 14.6702 29.3917C14.5346 29.2955 14.399 29.1992 14.2695 29.103C16.0204 30.3427 17.7836 31.5995 19.3126 33.0714C19.6825 33.428 20.0339 33.796 20.3669 34.1866C20.2621 34.062 20.1572 33.9375 20.0524 33.8186C20.5395 34.396 20.9711 35.0188 21.2793 35.6924C21.2115 35.5452 21.1437 35.4037 21.0759 35.2565C21.2238 35.5849 21.3225 35.9189 21.378 36.2698C21.3533 36.1057 21.3286 35.9472 21.304 35.783C21.3533 36.134 21.3533 36.485 21.304 36.8416C21.3286 36.6774 21.3533 36.5189 21.378 36.3548C21.3286 36.6548 21.2485 36.9492 21.119 37.2322C21.1868 37.085 21.2547 36.9435 21.3225 36.7963C21.2115 37.0341 21.0697 37.2549 20.8971 37.4587C21.0019 37.3341 21.1067 37.2096 21.2115 37.0907C21.0327 37.2945 20.8231 37.4757 20.6011 37.6398C20.7368 37.5436 20.8724 37.4473 21.0019 37.3511C20.7614 37.5153 20.5087 37.6511 20.2374 37.7587C20.3977 37.6964 20.5518 37.6342 20.7121 37.5719C20.4224 37.6794 20.1326 37.7587 19.8243 37.804C20.0031 37.7813 20.1757 37.7587 20.3545 37.7361C20.0278 37.7757 19.701 37.7757 19.3743 37.7361C19.5531 37.7587 19.7257 37.7813 19.9045 37.804C19.5716 37.7587 19.251 37.6738 18.9427 37.5606C19.103 37.6228 19.2571 37.6851 19.4174 37.7474C19.3373 37.7134 19.251 37.6795 19.1708 37.6455C18.6838 37.4304 18.1721 37.3228 17.6357 37.4587C17.1733 37.5775 16.6739 37.9059 16.4458 38.2965C16.1992 38.7211 16.0821 39.2362 16.2423 39.7061C16.3965 40.125 16.6986 40.5836 17.161 40.7874Z" fill="#F2C45B"/>
<path d="M16.4307 2.31446C14.9942 1.00676 13.0707 0.197227 11.0547 0.0330571C11.3198 0.016074 11.5911 0.00475195 11.8562 0.00475195C14.1496 -0.00657012 16.3999 0.831263 18.0275 2.31446C19.6675 3.79765 20.5861 5.85826 20.5922 7.96417C20.5984 8.98882 19.6736 9.7474 18.6009 9.79268C18.3296 9.80401 18.046 9.73607 17.7809 9.62852C18.4838 9.34546 18.9955 8.72841 18.9955 7.96417C18.9831 5.85826 18.0645 3.79765 16.4307 2.31446Z" fill="#DAAC43"/>
<path d="M25.3205 36.5703C25.265 37.3402 25.08 37.9912 24.7348 38.6932C24.1429 39.882 22.9345 40.6858 21.6398 41.1387C21.3932 41.2236 21.1405 41.2859 20.8815 41.3199C20.4869 41.3765 20.08 41.4331 19.6793 41.4105C19.4635 41.3991 19.2539 41.3821 19.0443 41.3482C19.1244 41.3369 19.2046 41.3255 19.2786 41.3142C19.5375 41.2746 19.7903 41.218 20.0369 41.1331C21.3316 40.6802 22.54 39.8707 23.1318 38.6875C23.4771 37.9912 23.662 37.3402 23.7175 36.5646C23.7607 35.9702 23.6682 35.3418 23.5017 34.7644C23.3044 34.1134 22.9654 33.468 22.5831 32.8906C21.2329 30.847 19.2046 29.2336 17.2009 27.7504C15.8877 26.7823 14.5437 25.8483 13.212 24.9029C10.9494 23.2951 8.70525 21.6421 6.74472 19.7174C6.25767 19.2418 5.79528 18.7493 5.35139 18.2398C5.39454 18.2908 5.43153 18.3417 5.47469 18.387C5.36988 18.2625 5.26507 18.1379 5.16643 18.019C5.22808 18.0926 5.28357 18.1606 5.34522 18.2342C4.53142 17.2491 3.82242 16.1905 3.27988 15.0583C2.89764 14.1922 2.6202 13.2807 2.45991 12.3467C2.36127 11.5598 2.34277 10.7616 2.43525 9.96904C2.54622 9.34067 2.73118 8.72361 2.98395 8.1292C3.26755 7.55178 3.61897 7.00266 4.02587 6.49316C4.45743 6.01197 4.93215 5.57607 5.45619 5.1798C6.01106 4.80617 6.60909 4.48916 7.23794 4.22309C7.89145 3.99098 8.56962 3.82115 9.26012 3.71359C9.82732 3.65698 10.3945 3.64566 10.9617 3.69095C10.8816 3.67963 10.8014 3.66264 10.7213 3.65698C10.8199 3.6683 10.9186 3.67963 11.011 3.69095C11.048 3.68529 11.085 3.67963 11.122 3.67963C11.085 3.68529 11.048 3.69095 11.011 3.69661C11.0234 3.69661 11.0357 3.69661 11.048 3.70227C11.0419 3.70227 11.0357 3.70227 11.0295 3.70227C11.0234 3.70227 11.011 3.70227 11.0049 3.70227C10.9556 3.70793 10.9001 3.71359 10.8507 3.71359C10.1602 3.81549 9.48207 3.98532 8.82856 4.21743C8.19971 4.47783 7.60168 4.80051 7.04682 5.17414C6.52277 5.56475 6.04805 6.00631 5.61649 6.4875C5.20959 6.997 4.86434 7.54046 4.58074 8.11788C4.32796 8.71795 4.14301 9.34067 4.02587 9.9747C3.93339 10.7616 3.95805 11.5598 4.05053 12.3467C4.21083 13.2807 4.48826 14.1922 4.8705 15.0696C5.4192 16.2018 6.1282 17.2548 6.93584 18.2455L6.94201 18.2511C7.37974 18.7606 7.84829 19.2531 8.33534 19.7287C10.265 21.6195 12.4722 23.2555 14.6978 24.8406C16.0665 25.8086 17.4413 26.7653 18.7915 27.756C20.8014 29.2392 22.8297 30.8526 24.1737 32.8963C24.556 33.4737 24.8951 34.119 25.0924 34.7701C25.2711 35.3418 25.3636 35.9702 25.3205 36.5703Z" fill="#DAAC43"/>
<path d="M83.8182 40.789C82.9983 41.1513 82.2091 41.3721 81.2967 41.4174C80.8959 41.4343 80.489 41.3777 80.0945 41.3268C79.8355 41.2872 79.5828 41.2305 79.3362 41.1456C78.0415 40.6927 76.8331 39.8832 76.2412 38.6944C75.896 37.9981 75.711 37.3414 75.6555 36.5715C75.6124 35.9771 75.6987 35.3487 75.8713 34.7713C76.0686 34.1203 76.4077 33.4749 76.7899 32.8975C78.1401 30.8539 80.1685 29.2405 82.1721 27.7573C83.5593 26.7326 84.9773 25.7476 86.3891 24.7513C86.2535 24.8475 86.1179 24.9437 85.9884 25.04C88.3127 23.3926 90.6185 21.7 92.6283 19.7299C93.1832 19.1865 93.7134 18.6204 94.2066 18.0373C94.1018 18.1618 93.997 18.2864 93.8922 18.4052C94.8046 17.3183 95.5938 16.1408 96.1856 14.8784C96.1178 15.0256 96.05 15.1671 95.9822 15.3143C96.4507 14.2897 96.7837 13.2141 96.944 12.1158C96.9193 12.28 96.8946 12.4385 96.87 12.6027C97.0056 11.6573 97.0364 10.6949 96.9008 9.74951C96.9255 9.91368 96.9501 10.0722 96.9748 10.2364C96.8576 9.43249 96.6234 8.65126 96.2843 7.90401C96.3521 8.05119 96.4199 8.19272 96.4877 8.33991C96.1486 7.60963 95.7109 6.93031 95.1869 6.30193C95.2917 6.42648 95.3965 6.55102 95.5013 6.6699C94.9896 6.06417 94.3977 5.52071 93.7381 5.05084C93.8737 5.14708 94.0093 5.24332 94.1388 5.33956C93.4545 4.85837 92.7085 4.45643 91.9193 4.14508C92.0796 4.20735 92.2337 4.26962 92.394 4.33189C91.5802 4.02053 90.7294 3.80541 89.854 3.69785C90.0328 3.7205 90.2054 3.74314 90.3842 3.76579C89.6382 3.67521 88.8799 3.65257 88.1277 3.74314C88.3065 3.7205 88.4791 3.69785 88.6579 3.67521C88.0846 3.7488 87.5235 3.89033 86.9872 4.09979C87.1475 4.03752 87.3016 3.97525 87.4619 3.91297C86.9378 4.11677 86.4508 4.38284 85.9946 4.6942C86.1302 4.59796 86.2658 4.50172 86.3953 4.40548C85.9329 4.73382 85.5198 5.11311 85.1623 5.53769C85.2671 5.41315 85.3719 5.28861 85.4767 5.16972C85.1314 5.58298 84.8478 6.03586 84.6259 6.51705C84.6937 6.36986 84.7615 6.22834 84.8293 6.08115C84.6074 6.57366 84.4533 7.08882 84.367 7.61529C84.3916 7.45112 84.4163 7.29261 84.4409 7.12844C84.3978 7.4115 84.3793 7.69455 84.3793 7.9776C84.3793 8.44747 84.1573 8.93998 83.7936 9.26832C83.4483 9.58533 82.8811 9.8231 82.3879 9.80612C81.3152 9.76083 80.3904 9.00225 80.3966 7.9776C80.4089 5.87169 81.3275 3.81108 82.9551 2.32788C84.5827 0.844691 86.833 0.00685761 89.1265 0.0181797C93.3805 0.0408238 97.4433 2.23165 99.4902 5.66223C100.514 7.37753 101.031 9.32493 100.982 11.278C100.945 12.7838 100.649 14.3123 100.076 15.7276C98.9291 18.5751 96.9255 21.015 94.5889 23.1379C92.3016 25.2098 89.7245 26.993 87.1844 28.7876C86.8947 28.9914 86.6049 29.1952 86.3152 29.4046C86.4508 29.3084 86.5864 29.2122 86.7159 29.1159C84.965 30.3557 83.2017 31.6124 81.6728 33.0843C81.3029 33.4409 80.9514 33.8089 80.6185 34.1995C80.7233 34.075 80.8281 33.9504 80.9329 33.8316C80.4459 34.409 80.0143 35.0317 79.7061 35.7054C79.7739 35.5582 79.8417 35.4167 79.9095 35.2695C79.7615 35.5978 79.6629 35.9318 79.6074 36.2828C79.6321 36.1186 79.6567 35.9601 79.6814 35.7959C79.6321 36.1469 79.6321 36.4979 79.6814 36.8546C79.6567 36.6904 79.6321 36.5319 79.6074 36.3677C79.6567 36.6677 79.7369 36.9621 79.8664 37.2452C79.7985 37.098 79.7307 36.9565 79.6629 36.8093C79.7739 37.047 79.9157 37.2678 80.0883 37.4716C79.9835 37.3471 79.8787 37.2225 79.7739 37.1036C79.9527 37.3074 80.1623 37.4886 80.3842 37.6528C80.2486 37.5565 80.113 37.4603 79.9835 37.3641C80.2239 37.5282 80.4767 37.6641 80.748 37.7716C80.5877 37.7094 80.4336 37.6471 80.2733 37.5848C80.563 37.6924 80.8528 37.7716 81.1611 37.8169C80.9823 37.7943 80.8096 37.7716 80.6308 37.749C80.9576 37.7886 81.2844 37.7886 81.6111 37.749C81.4323 37.7716 81.2597 37.7943 81.0809 37.8169C81.4138 37.7716 81.7344 37.6867 82.0427 37.5735C81.8824 37.6358 81.7282 37.6981 81.568 37.7603C81.6481 37.7264 81.7344 37.6924 81.8146 37.6584C82.3016 37.4433 82.8133 37.3357 83.3497 37.4716C83.8121 37.5905 84.3115 37.9188 84.5396 38.3094C84.7862 38.734 84.9033 39.2492 84.743 39.719C84.5827 40.1266 84.2806 40.5852 83.8182 40.789Z" fill="#F2C45B"/>
<path d="M80.3695 4.59595V9.41915C80.3695 38.1376 66.9849 54.5659 50.4745 54.5659C42.1762 54.5659 34.6731 50.4164 29.2539 42.6494C34.3155 48.7747 40.9123 52.0298 48.1317 52.0298C64.0688 52.0298 76.9849 36.1732 76.9849 8.45677V4.59595H80.3695Z" fill="#DAAC43"/>
<path d="M84.7399 39.6956C84.5857 40.1315 84.2898 40.5844 83.8274 40.7882C83.0074 41.1505 82.2183 41.3712 81.3058 41.4109C80.9174 41.4279 80.529 41.3769 80.1406 41.3203C80.7325 41.2184 81.2873 41.0372 81.8545 40.7825C82.3169 40.5787 82.619 40.1202 82.767 39.6899C82.9335 39.22 82.8102 38.7049 82.5697 38.2803C82.4156 38.0199 82.1443 37.7821 81.8422 37.6236C81.8361 37.6236 81.8361 37.618 81.8299 37.618C82.3169 37.4029 82.8163 37.3066 83.3465 37.4425C83.8089 37.5614 84.3083 37.884 84.5364 38.2803C84.783 38.7106 84.9063 39.2257 84.7399 39.6956Z" fill="#DAAC43"/>
<path d="M100.998 11.2598C100.961 12.7656 100.665 14.2941 100.092 15.7094C98.9449 18.5569 96.9412 20.9968 94.6046 23.1197C92.3173 25.1916 89.7402 26.9748 87.2002 28.7694C86.9351 28.9562 86.67 29.143 86.4049 29.3298L86.3987 29.3355C86.374 29.3525 86.3555 29.3695 86.3309 29.3808C84.7156 30.53 83.1003 31.7075 81.6947 33.0661C81.3802 33.3662 81.0843 33.6775 80.7945 34.0002C80.4308 34.4474 80.104 34.9229 79.8451 35.4268C79.7711 35.6193 79.7095 35.8174 79.6663 36.0155C79.654 36.2023 79.654 36.3835 79.6663 36.5703C79.6971 36.7118 79.7403 36.8477 79.7896 36.9836C79.8389 37.0685 79.8883 37.1477 79.9437 37.227C80.0239 37.3062 80.104 37.3798 80.1904 37.4534C80.2089 37.4647 80.2212 37.4704 80.2397 37.4817C80.2397 37.4817 80.2335 37.4817 80.2273 37.4817H80.2212C80.104 37.5157 79.9931 37.561 79.8759 37.6119C79.7095 37.6629 79.543 37.7082 79.3766 37.7421C79.2409 37.7478 79.1053 37.7478 78.9635 37.7421C78.8278 37.7138 78.6984 37.6799 78.5689 37.6402C78.4456 37.5836 78.3223 37.5157 78.2113 37.4478C78.125 37.3742 78.0387 37.3006 77.9586 37.2213C77.9031 37.1421 77.8537 37.0628 77.8044 36.9836C77.7551 36.8477 77.7119 36.7062 77.6811 36.5703C77.6688 36.3835 77.6688 36.2023 77.6811 36.0155C77.7243 35.8174 77.7859 35.6193 77.8599 35.4268C78.1188 34.9229 78.4456 34.4474 78.8093 34.0002C79.0929 33.6775 79.395 33.3662 79.7095 33.0661C81.146 31.6848 82.7859 30.496 84.4258 29.3298C84.6909 29.143 84.9561 28.9562 85.2212 28.7694C87.7674 26.9748 90.3383 25.1916 92.6256 23.1197C94.9683 20.9968 96.9659 18.5625 98.1126 15.7094C98.6859 14.2941 98.9757 12.7656 99.0189 11.2598C99.0682 9.30675 98.5565 7.35935 97.5269 5.64405C95.6403 2.4852 92.0399 0.37929 88.162 0.0452883C88.4825 0.0113221 88.8093 0 89.1361 0C93.39 0.0226442 97.4529 2.21347 99.5059 5.64405C100.529 7.35935 101.047 9.30675 100.998 11.2598Z" fill="#DAAC43"/>
<path d="M72.0705 82.1536V102.748H28.5195V82.1536C28.5195 81.5082 29.0929 80.9761 29.8019 80.9761H70.7881C71.4909 80.9761 72.0705 81.5082 72.0705 82.1536Z" fill="#6683C2"/>
<path d="M72.0893 82.1536V102.748H69.5245V82.1536C69.5245 81.5082 68.9512 80.9761 68.2422 80.9761H70.8069C71.5097 80.9761 72.0893 81.5082 72.0893 82.1536Z" fill="#3B5387"/>
<path d="M75.9242 102.159V104.514C75.9242 105.16 75.3508 105.692 74.6418 105.692H25.9738C25.2709 105.692 24.6914 105.16 24.6914 104.514V102.159C24.6914 101.514 25.2648 100.982 25.9738 100.982H74.648C75.3508 100.982 75.9242 101.508 75.9242 102.159Z" fill="#556C9F"/>
<path d="M75.9213 102.159V104.514C75.9213 105.16 75.3479 105.692 74.6389 105.692H72.0742C72.7771 105.692 73.3566 105.16 73.3566 104.514V102.159C73.3566 101.514 72.7832 100.982 72.0742 100.982H74.6389C75.3479 100.982 75.9213 101.508 75.9213 102.159Z" fill="#3B5387"/>
<path d="M65.6733 86.8579V95.0947C65.6733 95.7401 65.0999 96.2722 64.3909 96.2722H36.216C35.5131 96.2722 34.9336 95.7401 34.9336 95.0947V86.8579C34.9336 86.2126 35.507 85.6804 36.216 85.6804H64.3971C65.0937 85.6861 65.6733 86.2126 65.6733 86.8579Z" fill="#F2C45B"/>
<path d="M65.6842 86.8579V95.0947C65.6842 95.7401 65.1108 96.2722 64.4018 96.2722H38.9766C44.1492 96.176 61.2021 95.1683 61.2021 85.6804H64.4018C65.1047 85.6861 65.6842 86.2126 65.6842 86.8579Z" fill="#DAAC43"/>
<path d="M36.2383 92.1564V87.3445C36.2383 87.0784 36.4726 86.8633 36.7623 86.8633H48.2481C48.2419 86.8576 39.1174 87.7408 36.2383 92.1564Z" fill="#FFDD8E"/>
<path d="M29.9805 87.4461V82.6343C29.9805 82.3682 30.2147 82.1531 30.5045 82.1531H41.9903C41.9903 82.1531 32.8596 83.0362 29.9805 87.4461Z" fill="#556C9F"/>
<path d="M39.8138 47.5C35.8989 47.5 25.0358 35.6571 23.7227 7.70288H29.8262C30.9051 41.9069 39.8138 47.5 39.8138 47.5Z" fill="#FFDD8E"/>
<path d="M37.6055 78.5254C37.6055 78.5254 45.9285 73.3173 45.9285 65.7881V78.5254H37.6055Z" fill="#FFDD8E"/>
<path d="M10.3539 2.82545C10.3539 2.82545 9.50922 2.599 7.78297 2.92168C5.67447 3.31796 3.02344 5.4182 3.02344 5.4182C4.38595 2.92168 7.47471 1.37622 8.78173 1.37622C9.65102 1.38188 10.3539 2.02724 10.3539 2.82545Z" fill="#FFDD8E"/>
</svg>
