<svg width="313" height="228" viewBox="0 0 313 228" fill="none" xmlns="http://www.w3.org/2000/svg">
<g clip-path="url(#clip0_128_23880)">
<g opacity="0.71">
<path d="M286.621 56.139C287.481 72.6367 274.917 86.7027 258.555 87.5559C242.197 88.4088 228.238 75.7263 227.378 59.2282C226.518 42.73 239.081 28.664 255.44 27.811C271.802 26.9578 285.76 39.6409 286.621 56.139Z" fill="#F2C45B"/>
<path d="M214.16 47.08C214.521 54.0118 209.195 59.9243 202.262 60.2858C195.331 60.6473 189.418 55.3209 189.057 48.3889C188.695 41.457 194.021 35.5444 200.953 35.183C207.886 34.8215 213.798 40.148 214.16 47.08Z" fill="#68CCEA"/>
<path d="M238.996 127.592C240.652 159.341 216.031 186.43 184.005 188.1C151.982 189.77 124.676 165.389 123.021 133.639C121.365 101.89 145.987 74.7989 178.01 73.1291C210.037 71.4598 237.341 95.8434 238.996 127.592Z" fill="#C5D1EB"/>
</g>
<path d="M246.274 244.137L304.283 210.769C306.574 209.443 306.574 207.307 304.283 205.981L220.632 157.733C218.341 156.407 214.646 156.407 212.356 157.733L154.273 191.101C151.982 192.427 151.982 194.563 154.273 195.889L237.924 244.137C240.215 245.463 243.983 245.463 246.274 244.137Z" fill="#E0E0E0"/>
<path d="M98.8283 326.016L11.8615 275.919C9.42115 274.515 9.42115 272.224 11.8615 270.82L132.846 200.995C135.286 199.591 139.28 199.591 141.72 200.995L228.687 251.092C231.127 252.496 231.127 254.786 228.687 256.19L107.702 326.016C105.262 327.42 101.269 327.42 98.8283 326.016Z" fill="#E0E0E0"/>
<path d="M292.323 208.412L240.864 237.446L161.828 192.159L213.287 163.124L292.323 208.412Z" fill="#89ADFA"/>
<path opacity="0.6" d="M292.323 208.412L240.864 237.446L161.828 192.159L213.287 163.124L292.323 208.412Z" fill="black"/>
<path d="M240.272 235.304L289.956 207.082C288.699 203.61 288.847 202.502 290.178 197.847L240.789 225.773C240.863 225.847 239.976 225.773 240.272 235.304Z" fill="#F5F5F5"/>
<path d="M243.233 222.006C240.719 223.409 238.723 226.955 238.723 229.837V235.968C238.723 238.85 240.793 240.032 243.233 238.554L292.252 210.702V208.412L243.824 235.747C242.345 236.633 241.089 235.895 241.089 234.195L241.163 228.728C241.163 227.029 242.419 224.887 243.898 224.074L292.252 196.739V194.153L243.233 222.006Z" fill="#89ADFA"/>
<path opacity="0.5" d="M243.233 222.006C240.719 223.409 238.723 226.955 238.723 229.837V235.968C238.723 238.85 240.793 240.032 243.233 238.554L292.252 210.702V208.412L243.824 235.747C242.345 236.633 241.089 235.895 241.089 234.195L241.163 228.728C241.163 227.029 242.419 224.887 243.898 224.074L292.252 196.739V194.153L243.233 222.006Z" fill="black"/>
<path d="M292.323 194.153L213.287 148.866L164.268 176.718C161.754 178.122 159.758 181.668 159.758 184.549V190.681C159.758 192.085 160.275 193.119 161.089 193.562L240.125 238.85C239.312 238.406 238.794 237.372 238.794 235.968V229.836C238.794 226.955 240.864 223.483 243.304 222.005L292.323 194.153Z" fill="#89ADFA"/>
<path opacity="0.35" d="M292.323 194.153L213.287 148.866L164.268 176.718C161.754 178.122 159.758 181.668 159.758 184.549V190.681C159.758 192.085 160.275 193.119 161.089 193.562L240.125 238.85C239.312 238.406 238.794 237.372 238.794 235.968V229.836C238.794 226.955 240.864 223.483 243.304 222.005L292.323 194.153Z" fill="black"/>
<path d="M240.051 225.33C239.238 226.734 238.72 228.359 238.72 229.763V235.895C238.72 237.298 239.238 238.333 240.051 238.776L161.014 193.488C160.201 193.045 159.684 192.011 159.684 190.607V184.475C159.684 183.072 160.201 181.446 161.014 180.043L240.051 225.33Z" fill="#89ADFA"/>
<path opacity="0.45" d="M240.051 225.33C239.238 226.734 238.72 228.359 238.72 229.763V235.895C238.72 237.298 239.238 238.333 240.051 238.776L161.014 193.488C160.201 193.045 159.684 192.011 159.684 190.607V184.475C159.684 183.072 160.201 181.446 161.014 180.043L240.051 225.33Z" fill="black"/>
<path d="M171.73 186.101C170.251 192.454 170.251 194.966 171.73 199.694L175.501 201.837C174.022 197.182 174.022 194.67 175.501 188.243L171.73 186.101Z" fill="#89ADFA"/>
<path d="M223.562 215.874C222.083 222.227 222.083 224.665 223.562 229.393L227.333 231.536C225.854 226.881 225.854 224.444 227.333 218.016L223.562 215.874Z" fill="#89ADFA"/>
<path d="M302.671 193.414L251.212 222.449L172.176 177.087L223.634 148.053L302.671 193.414Z" fill="#89ADFA"/>
<path opacity="0.4" d="M302.671 193.414L251.212 222.449L172.176 177.087L223.634 148.053L302.671 193.414Z" fill="black"/>
<path d="M250.699 220.306L300.384 192.085C299.127 188.612 299.275 186.987 300.606 182.333L251.217 210.259C251.217 210.259 250.33 210.702 250.699 220.306Z" fill="#F5F5F5"/>
<path d="M253.655 206.491C251.141 207.895 249.145 211.441 249.145 214.322V220.897C249.145 223.778 251.215 224.96 253.655 223.483L302.673 195.631V193.341L254.246 220.676C252.767 221.562 251.51 220.823 251.51 219.124L251.584 213.214C251.584 211.515 252.841 209.372 254.32 208.559L302.673 181.225V178.639L253.655 206.491Z" fill="#89ADFA"/>
<path opacity="0.25" d="M253.655 206.491C251.141 207.895 249.145 211.441 249.145 214.322V220.897C249.145 223.778 251.215 224.96 253.655 223.483L302.673 195.631V193.341L254.246 220.676C252.767 221.562 251.51 220.823 251.51 219.124L251.584 213.214C251.584 211.515 252.841 209.372 254.32 208.559L302.673 181.225V178.639L253.655 206.491Z" fill="black"/>
<path d="M302.675 178.639L223.638 133.351L174.619 161.204C172.106 162.607 170.109 166.153 170.109 169.035V175.61C170.109 177.013 170.627 178.048 171.44 178.491L250.477 223.778C249.663 223.335 249.146 222.301 249.146 220.897V214.248C249.146 211.367 251.216 207.895 253.656 206.417L302.675 178.639Z" fill="#89ADFA"/>
<path d="M250.402 209.816C249.589 211.219 249.072 212.845 249.072 214.248V220.897C249.072 222.301 249.589 223.335 250.402 223.778L171.366 178.491C170.553 178.048 170.035 177.014 170.035 175.61V169.035C170.035 167.631 170.553 166.006 171.366 164.602L250.402 209.816Z" fill="#89ADFA"/>
<path opacity="0.15" d="M250.402 209.816C249.589 211.219 249.072 212.845 249.072 214.248V220.897C249.072 222.301 249.589 223.335 250.402 223.778L171.366 178.491C170.553 178.048 170.035 177.014 170.035 175.61V169.035C170.035 167.631 170.553 166.006 171.366 164.602L250.402 209.816Z" fill="black"/>
<path d="M182.082 170.586C180.603 176.94 180.603 179.969 182.082 184.697L185.852 186.839C184.374 182.185 184.374 179.156 185.852 172.729L182.082 170.586Z" fill="#89ADFA"/>
<path d="M233.91 200.359C232.431 206.713 232.431 209.668 233.91 214.322L237.68 216.465C236.202 211.81 236.202 208.855 237.68 202.502L233.91 200.359Z" fill="#89ADFA"/>
<g opacity="0.4">
<path d="M182.082 170.586C180.603 176.94 180.603 179.969 182.082 184.697L185.852 186.839C184.374 182.185 184.374 179.156 185.852 172.729L182.082 170.586Z" fill="white"/>
<path d="M233.91 200.359C232.431 206.713 232.431 209.668 233.91 214.322L237.68 216.465C236.202 211.81 236.202 208.855 237.68 202.502L233.91 200.359Z" fill="white"/>
</g>
<path d="M24.457 273.203L104.381 318.564L220.31 252.074L140.387 206.713L24.457 273.203Z" fill="#89ADFA"/>
<path opacity="0.4" d="M24.457 273.203L104.381 318.564L220.31 252.074L140.387 206.713L24.457 273.203Z" fill="black"/>
<path d="M24.457 257.393L140.387 190.902L217.723 235.008C220.384 236.559 222.602 240.253 222.602 243.356V250.448C222.602 252 222.085 253.034 221.198 253.551L105.268 320.042C106.155 319.524 106.673 318.49 106.673 316.939V309.846C106.673 306.743 104.529 303.05 101.793 301.498L24.457 257.393Z" fill="#89ADFA"/>
<path opacity="0.2" d="M24.457 257.393L140.387 190.902L217.723 235.008C220.384 236.559 222.602 240.253 222.602 243.356V250.448C222.602 252 222.085 253.034 221.198 253.551L105.268 320.042C106.155 319.524 106.673 318.49 106.673 316.939V309.846C106.673 306.743 104.529 303.05 101.793 301.498L24.457 257.393Z" fill="black"/>
<path d="M14.2539 257.836L94.1775 303.197L210.033 236.707L130.184 191.346L14.2539 257.836Z" fill="#89ADFA"/>
<path opacity="0.2" d="M14.2539 257.836L94.1775 303.197L210.033 236.707L130.184 191.346L14.2539 257.836Z" fill="white"/>
<path d="M14.2539 242.617L130.184 176.127L207.446 220.158C210.107 221.71 212.325 225.404 212.325 228.507V235.008C212.325 236.559 211.808 237.594 210.921 238.111L94.9908 304.601C95.878 304.084 96.3955 303.05 96.3955 301.498V294.997C96.3955 291.894 94.2514 288.2 91.5158 286.649L14.2539 242.617Z" fill="#89ADFA"/>
<path opacity="0.85" d="M14.2539 242.617L130.184 176.127L207.446 220.158C210.107 221.71 212.325 225.404 212.325 228.507V235.008C212.325 236.559 211.808 237.594 210.921 238.111L94.9908 304.601C95.878 304.084 96.3955 303.05 96.3955 301.498V294.997C96.3955 291.894 94.2514 288.2 91.5158 286.649L14.2539 242.617Z" fill="white"/>
<path d="M94.9922 290.269C95.8794 291.746 96.397 293.519 96.397 294.997V301.498C96.397 303.05 95.8794 304.084 94.9922 304.601L210.922 238.111C211.809 237.594 212.327 236.559 212.327 235.008V228.507C212.327 226.955 211.809 225.256 210.922 223.778L94.9922 290.269Z" fill="#89ADFA"/>
<path opacity="0.6" d="M94.9922 290.269C95.8794 291.746 96.397 293.519 96.397 294.997V301.498C96.397 303.05 95.8794 304.084 94.9922 304.601L210.922 238.111C211.809 237.594 212.327 236.559 212.327 235.008V228.507C212.327 226.955 211.809 225.256 210.922 223.778L94.9922 290.269Z" fill="white"/>
<path d="M194.064 138.375V168.444C194.064 172.802 197.834 177.087 205.45 180.412C220.606 187.061 245.153 187.061 260.309 180.412C267.851 177.087 271.695 172.729 271.695 168.444V138.375C271.769 134.016 267.998 129.584 260.383 126.259C245.226 119.61 220.68 119.61 205.523 126.259C197.76 129.584 193.99 133.942 194.064 138.375Z" fill="#37474F"/>
<path d="M194.064 138.375C193.99 134.016 197.76 129.584 205.45 126.259C220.606 119.61 245.153 119.61 260.309 126.259C267.998 129.584 271.769 134.016 271.621 138.375V152.116C271.621 148.718 268.59 146.28 259.644 149.531C244.931 154.924 236.724 163.863 221.789 168.222C209.442 171.842 198.426 170.438 194.064 165.932V138.375Z" fill="#263238"/>
<path d="M194.062 154.259V157.657C194.062 162.016 197.833 166.301 205.448 169.626C220.605 176.275 245.151 176.275 260.308 169.626C267.923 166.301 271.694 161.942 271.694 157.51V154.185C271.694 158.544 267.923 162.829 260.308 166.153C245.151 172.802 220.605 172.802 205.448 166.153C197.833 162.977 194.062 158.618 194.062 154.259Z" fill="#89ADFA"/>
<path d="M293.727 128.771L232.805 100.032L171.883 128.771V133.573L232.805 159.135L293.727 133.573V128.771Z" fill="#37474F"/>
<path opacity="0.2" d="M232.809 159.135V154.333L293.731 128.771V133.573L232.809 159.135Z" fill="#89ADFA"/>
<path opacity="0.2" d="M232.809 154.333L292.844 130.175L293.731 133.573V128.771L232.809 154.333Z" fill="#89ADFA"/>
<path d="M232.805 100.032L171.883 128.771L232.805 154.333L293.727 128.771L232.805 100.032Z" fill="#455A64"/>
<path d="M200.128 152.338C200.128 151.969 199.906 142.586 200.867 139.927C201.754 137.267 205.229 134.534 212.475 130.914C220.534 126.85 227.853 125.077 228.666 124.929L228.962 126.259C228.149 126.407 220.903 128.106 213.066 132.096C206.264 135.568 202.937 138.08 202.124 140.37C201.458 142.365 201.458 149.679 201.458 152.338H200.128Z" fill="#89ADFA"/>
<path opacity="0.8" d="M200.128 152.338C200.128 151.969 199.906 142.586 200.867 139.927C201.754 137.267 205.229 134.534 212.475 130.914C220.534 126.85 227.853 125.077 228.666 124.929L228.962 126.259C228.149 126.407 220.903 128.106 213.066 132.096C206.264 135.568 202.937 138.08 202.124 140.37C201.458 142.365 201.458 149.679 201.458 152.338H200.128Z" fill="white"/>
<path d="M208.038 180.929C208.038 173.91 206.855 161.425 203.232 157.731H198.353C194.656 161.351 193.547 173.91 193.547 180.929C193.547 181.963 194.286 183.071 195.691 183.884C197.096 184.697 198.944 185.14 200.792 185.14C202.641 185.14 204.489 184.697 205.894 183.884C207.373 183.071 208.038 181.963 208.038 180.929Z" fill="#89ADFA"/>
<path opacity="0.5" d="M208.038 180.929C208.038 173.91 206.855 161.425 203.232 157.731H198.353C194.656 161.351 193.547 173.91 193.547 180.929C193.547 181.963 194.286 183.071 195.691 183.884C197.096 184.697 198.944 185.14 200.792 185.14C202.641 185.14 204.489 184.697 205.894 183.884C207.373 183.071 208.038 181.963 208.038 180.929Z" fill="white"/>
<path opacity="0.6" d="M198.352 157.731C198.056 158.027 197.834 158.322 197.538 158.692C198.426 159.652 199.904 159.948 201.309 160.022C202.64 160.095 204.192 161.278 204.784 167.04C205.375 172.803 206.632 180.116 204.34 182.333C202.048 184.549 196.947 184.549 194.285 182.85C194.581 183.219 195.024 183.515 195.542 183.81C196.947 184.623 198.795 185.066 200.644 185.066C202.492 185.066 204.34 184.623 205.745 183.81C207.15 182.998 207.889 181.89 207.889 180.855C207.889 173.837 206.706 161.351 203.083 157.657H198.352V157.731Z" fill="#89ADFA"/>
<path d="M204.414 155.22C204.414 157.214 202.787 158.84 200.791 158.84C198.795 158.84 197.168 157.214 197.168 155.22C197.168 153.225 198.795 151.599 200.791 151.599C202.787 151.599 204.414 153.225 204.414 155.22Z" fill="#89ADFA"/>
<path opacity="0.5" d="M204.414 155.22C204.414 157.214 202.787 158.84 200.791 158.84C198.795 158.84 197.168 157.214 197.168 155.22C197.168 153.225 198.795 151.599 200.791 151.599C202.787 151.599 204.414 153.225 204.414 155.22Z" fill="white"/>
<path opacity="0.4" d="M202.936 152.265C203.823 153.225 203.971 155.737 202.049 156.993C200.126 158.249 198.13 157.288 197.391 156.328C197.834 157.805 199.239 158.84 200.866 158.84C202.862 158.84 204.488 157.214 204.488 155.22C204.414 153.964 203.823 152.929 202.936 152.265Z" fill="#89ADFA"/>
<path d="M227.926 123.156C227.926 122.417 228.369 121.679 229.331 121.161C231.253 120.053 234.358 120.053 236.28 121.161C237.242 121.679 237.685 122.417 237.685 123.156C237.685 123.452 237.685 124.486 237.685 124.781C237.685 125.52 237.242 126.259 236.28 126.776C234.358 127.884 231.253 127.884 229.331 126.776C228.369 126.259 227.926 125.52 227.926 124.781C227.926 124.486 227.926 123.452 227.926 123.156Z" fill="#263238"/>
<path d="M236.282 125.225C238.205 124.116 238.205 122.343 236.282 121.235C234.36 120.127 231.255 120.127 229.332 121.235C227.41 122.343 227.41 124.116 229.332 125.225C231.255 126.259 234.36 126.259 236.282 125.225Z" fill="#37474F"/>
<path d="M19.8711 232.422C19.8711 234.343 21.2759 235.525 23.0503 236.559L95.4325 278.301C97.2069 279.335 100.09 279.335 101.791 278.301L218.534 210.998C220.308 209.963 221.713 208.633 221.713 206.787C221.713 204.866 220.308 203.684 218.534 202.649L146.152 160.908C144.377 159.874 141.494 159.874 139.793 160.908L23.0503 228.285C21.2759 229.246 19.8711 230.575 19.8711 232.422Z" fill="#37474F"/>
<path d="M23.0535 231.979L95.4357 273.72C97.2102 274.755 100.094 274.755 101.794 273.72L218.537 206.343C220.312 205.309 220.312 203.684 218.537 202.649L146.155 160.908C144.381 159.874 141.497 159.874 139.797 160.908L23.0535 228.285C21.279 229.246 21.279 230.945 23.0535 231.979Z" fill="#455A64"/>
<path d="M18.468 228.728C17.0632 228.063 16.6936 226.955 16.5457 225.034L10.2612 133.351C10.1134 131.357 11.4442 128.993 13.2186 127.958L129.962 60.6553C131.736 59.621 132.993 59.1039 134.62 60.212C136.32 61.3941 136.32 61.9112 136.394 63.9059L142.679 155.589C142.826 157.584 141.496 159.948 139.721 160.982L23.052 228.285C21.2775 229.319 20.3164 229.615 18.468 228.728Z" fill="#37474F"/>
<path d="M136.468 63.8321C136.32 61.9112 134.767 61.0986 132.993 62.1329L16.3236 129.51C15.4364 130.027 14.697 130.913 14.1055 131.874L11.0742 130.322C11.5918 129.362 12.405 128.475 13.2923 127.958L130.035 60.6553C131.81 59.621 133.067 59.1039 134.693 60.212C136.32 61.3202 136.32 61.9112 136.468 63.8321Z" fill="#455A64"/>
<path d="M22.8302 228.433C21.2036 229.393 20.2424 229.467 18.468 228.802C17.1372 228.285 16.6936 227.029 16.5457 225.108L10.2612 133.425C10.1873 132.465 10.483 131.357 11.0006 130.396L14.0319 131.948C13.5144 132.908 13.2186 134.016 13.2926 134.977L19.577 226.66C19.7249 228.359 21.2775 229.319 22.8302 228.433Z" fill="#263238"/>
<path d="M18.3221 132.982L130.629 68.1909C131.664 67.5999 132.625 68.0432 132.699 69.2252L138.54 154.776C138.614 155.958 137.801 157.436 136.766 158.027L24.4587 222.744C23.4236 223.335 22.4624 222.892 22.3885 221.71L16.5476 136.159C16.4737 135.051 17.287 133.573 18.3221 132.982Z" fill="black"/>
<path d="M18.3221 132.982C17.287 133.573 16.4737 135.051 16.5476 136.233L22.3146 220.306L133.365 156.254C134.4 155.663 135.213 154.185 135.139 153.003L129.372 68.9297L18.3221 132.982Z" fill="#89ADFA"/>
<path opacity="0.8" d="M18.3221 132.982C17.287 133.573 16.4737 135.051 16.5476 136.233L22.3146 220.306L133.365 156.254C134.4 155.663 135.213 154.185 135.139 153.003L129.372 68.9297L18.3221 132.982Z" fill="white"/>
<path d="M32.9601 228.802L140.166 166.892C140.979 166.449 142.384 166.449 143.197 166.892L147.116 169.108C147.929 169.552 147.929 170.364 147.116 170.882L39.8361 232.718C39.0228 233.161 37.618 233.161 36.8047 232.718L32.8862 230.501C32.0729 230.058 32.0729 229.245 32.9601 228.802Z" fill="#263238"/>
<path d="M43.4592 235.008L150.739 173.098C151.552 172.655 152.809 172.581 153.474 172.95L181.422 189.056C182.087 189.425 182.013 190.164 181.126 190.681L73.9943 252.443C73.181 252.886 71.9241 252.96 71.2587 252.591L43.2374 236.559C42.498 236.19 42.6459 235.451 43.4592 235.008Z" fill="#263238"/>
<path d="M136.395 199.103L139.722 197.182C139.87 197.108 139.87 196.961 139.722 196.887L136.543 195.04C136.395 194.966 136.173 194.966 136.025 195.04L132.698 196.961C132.55 197.035 132.55 197.182 132.698 197.256L135.878 199.103C136.025 199.177 136.247 199.177 136.395 199.103ZM131.515 192.38L128.188 194.301C128.04 194.375 128.04 194.523 128.188 194.597L131.368 196.444C131.515 196.517 131.737 196.517 131.885 196.444L135.212 194.523C135.36 194.449 135.36 194.301 135.212 194.227L132.033 192.38C131.885 192.306 131.663 192.306 131.515 192.38ZM120.647 198.66L114.954 201.911C114.806 201.984 114.806 202.132 114.954 202.206L118.133 204.053C118.281 204.127 118.503 204.127 118.651 204.053L124.344 200.802C124.492 200.729 124.492 200.581 124.344 200.507L121.165 198.66C121.017 198.586 120.795 198.586 120.647 198.66ZM126.562 195.262L123.235 197.182C123.087 197.256 123.087 197.404 123.235 197.478L126.414 199.325C126.562 199.399 126.784 199.399 126.931 199.325L130.259 197.404C130.406 197.33 130.406 197.182 130.259 197.108L127.079 195.262C126.931 195.188 126.71 195.188 126.562 195.262ZM113.401 202.871L110.074 204.792C109.926 204.866 109.926 205.013 110.074 205.087L113.253 206.934C113.401 207.008 113.623 207.008 113.771 206.934L117.098 205.013C117.246 204.94 117.246 204.792 117.098 204.718L113.919 202.871C113.771 202.723 113.549 202.797 113.401 202.871ZM108.522 205.678L105.195 207.599C105.047 207.673 105.047 207.821 105.195 207.895L108.374 209.742C108.522 209.816 108.743 209.816 108.891 209.742L112.218 207.821C112.366 207.747 112.366 207.599 112.218 207.525L109.039 205.678C108.891 205.604 108.67 205.604 108.522 205.678ZM121.091 213.214L124.418 211.293C124.566 211.219 124.566 211.071 124.418 210.998L121.238 209.151C121.091 209.077 120.869 209.077 120.721 209.151L117.394 211.071C117.246 211.145 117.246 211.293 117.394 211.367L120.573 213.214C120.721 213.362 120.943 213.362 121.091 213.214ZM116.211 216.095L119.538 214.174C119.686 214.1 119.686 213.953 119.538 213.879L116.359 212.032C116.211 211.958 115.989 211.958 115.841 212.032L112.514 213.953C112.366 214.027 112.366 214.174 112.514 214.248L115.693 216.095C115.841 216.169 116.063 216.169 116.211 216.095ZM111.257 218.903L114.584 216.982C114.732 216.908 114.732 216.76 114.584 216.686L111.405 214.839C111.257 214.765 111.035 214.765 110.888 214.839L107.561 216.76C107.413 216.834 107.413 216.982 107.561 217.056L110.74 218.903C110.888 218.976 111.109 218.976 111.257 218.903ZM106.378 221.71L109.705 219.789C109.852 219.715 109.852 219.567 109.705 219.494L106.525 217.647C106.378 217.573 106.156 217.573 106.008 217.647L102.681 219.567C102.533 219.641 102.533 219.789 102.681 219.863L105.86 221.71C106.008 221.858 106.23 221.784 106.378 221.71ZM131.515 201.984L134.842 200.064C134.99 199.99 134.99 199.842 134.842 199.768L131.663 197.921C131.515 197.847 131.294 197.847 131.146 197.921L127.819 199.842C127.671 199.916 127.671 200.064 127.819 200.137L130.998 201.984C131.146 202.058 131.368 202.058 131.515 201.984ZM126.044 210.407L133.512 206.122C133.66 206.048 133.66 205.9 133.512 205.826L125.675 201.32C125.527 201.246 125.305 201.246 125.157 201.32L121.312 203.536C121.165 203.61 121.165 203.758 121.312 203.831L125.453 206.195C125.601 206.269 125.601 206.417 125.453 206.491L122.347 208.264C122.2 208.338 122.2 208.486 122.347 208.56L125.527 210.407C125.675 210.48 125.896 210.48 126.044 210.407ZM103.568 208.486L100.241 210.407C100.093 210.48 100.093 210.628 100.241 210.702L103.42 212.549C103.568 212.623 103.79 212.623 103.938 212.549L107.265 210.628C107.413 210.554 107.413 210.407 107.265 210.333L104.086 208.486C103.938 208.412 103.716 208.412 103.568 208.486ZM98.6883 211.367L95.3612 213.288C95.2134 213.362 95.2134 213.509 95.3612 213.583L98.5404 215.43C98.6883 215.504 98.9101 215.504 99.058 215.43L102.385 213.509C102.533 213.436 102.533 213.288 102.385 213.214L99.2059 211.367C99.058 211.219 98.8362 211.293 98.6883 211.367ZM71.5542 241.583C71.7021 241.657 71.9239 241.657 72.0718 241.583L75.3988 239.662C75.5467 239.588 75.5467 239.441 75.3988 239.367L72.2196 237.52C72.0718 237.446 71.85 237.446 71.7021 237.52L68.375 239.441C68.2272 239.515 68.2272 239.662 68.375 239.736L71.5542 241.583ZM59.4289 233.974L56.1018 235.895C55.954 235.968 55.954 236.116 56.1018 236.19L59.281 238.037C59.4289 238.111 59.6507 238.111 59.7986 238.037L63.1257 236.116C63.2735 236.042 63.2735 235.895 63.1257 235.821L59.9465 233.974C59.7986 233.9 59.5768 233.9 59.4289 233.974ZM65.6394 239.662C65.7873 239.736 66.0091 239.736 66.157 239.662L69.4841 237.741C69.6319 237.668 69.6319 237.52 69.4841 237.446L66.3048 235.599C66.157 235.525 65.9352 235.525 65.7873 235.599L62.4602 237.52C62.3124 237.594 62.3124 237.741 62.4602 237.815L65.6394 239.662ZM79.1695 242.691L82.4966 240.77C82.6445 240.697 82.6445 240.549 82.4966 240.475L79.3174 238.628C79.1695 238.554 78.9477 238.554 78.7998 238.628L75.4728 240.549C75.3249 240.623 75.3249 240.77 75.4728 240.844L78.652 242.691C78.7998 242.839 79.0216 242.765 79.1695 242.691ZM73.7723 245.573C73.9201 245.646 74.1419 245.646 74.2898 245.573L77.6169 243.652C77.7648 243.578 77.7648 243.43 77.6169 243.356L74.4377 241.509C74.2898 241.435 74.068 241.435 73.9201 241.509L70.5931 243.43C70.4452 243.504 70.4452 243.652 70.5931 243.726L73.7723 245.573ZM64.3086 231.166L60.9815 233.087C60.8337 233.161 60.8337 233.309 60.9815 233.383L64.1607 235.23C64.3086 235.303 64.5304 235.303 64.6783 235.23L68.0054 233.309C68.1532 233.235 68.1532 233.087 68.0054 233.013L64.8262 231.166C64.6783 231.092 64.4565 231.092 64.3086 231.166ZM88.855 216.982L85.5279 218.903C85.3801 218.976 85.3801 219.124 85.5279 219.198L88.7071 221.045C88.855 221.119 89.0768 221.119 89.2247 221.045L92.5517 219.124C92.6996 219.05 92.6996 218.903 92.5517 218.829L89.3725 216.982C89.2247 216.908 89.0029 216.908 88.855 216.982ZM69.2622 228.359L65.9352 230.28C65.7873 230.354 65.7873 230.501 65.9352 230.575L69.1144 232.422C69.2622 232.496 69.4841 232.496 69.6319 232.422L72.959 230.501C73.1069 230.428 73.1069 230.28 72.959 230.206L69.7798 228.359C69.6319 228.211 69.4101 228.285 69.2622 228.359ZM93.8086 214.174L90.4816 216.095C90.3337 216.169 90.3337 216.317 90.4816 216.391L93.6608 218.238C93.8086 218.312 94.0304 218.312 94.1783 218.238L97.5054 216.317C97.6532 216.243 97.6532 216.095 97.5054 216.021L94.3262 214.174C94.1783 214.1 93.9565 214.1 93.8086 214.174ZM83.9753 219.863L80.6482 221.784C80.5003 221.858 80.5003 222.005 80.6482 222.079L83.8274 223.926C83.9753 224 84.1971 224 84.345 223.926L87.672 222.005C87.8199 221.932 87.8199 221.784 87.672 221.71L84.4928 219.863C84.345 219.715 84.1232 219.789 83.9753 219.863ZM79.0956 222.67L75.7685 224.591C75.6206 224.665 75.6206 224.813 75.7685 224.887L78.9477 226.734C79.0956 226.808 79.3174 226.808 79.4653 226.734L82.7923 224.813C82.9402 224.739 82.9402 224.591 82.7923 224.517L79.6131 222.67C79.3913 222.596 79.1695 222.596 79.0956 222.67ZM74.1419 225.478L70.8149 227.399C70.667 227.472 70.667 227.62 70.8149 227.694L73.9941 229.541C74.1419 229.615 74.3638 229.615 74.5116 229.541L77.8387 227.62C77.9866 227.546 77.9866 227.399 77.8387 227.325L74.6595 225.478C74.5116 225.404 74.2898 225.404 74.1419 225.478ZM96.5442 227.399L99.8713 225.478C100.019 225.404 100.019 225.256 99.8713 225.182L96.6921 223.335C96.5442 223.261 96.3224 223.261 96.1745 223.335L92.8475 225.256C92.6996 225.33 92.6996 225.478 92.8475 225.552L96.0267 227.399C96.1745 227.472 96.3963 227.472 96.5442 227.399ZM142.384 186.174L139.057 188.095C138.909 188.169 138.909 188.317 139.057 188.391L142.236 190.238C142.384 190.312 142.606 190.312 142.753 190.238L146.081 188.317C146.228 188.243 146.228 188.095 146.081 188.021L142.901 186.174C142.68 186.101 142.458 186.101 142.384 186.174ZM136.395 189.573L133.068 191.494C132.92 191.568 132.92 191.715 133.068 191.789L136.247 193.636C136.395 193.71 136.617 193.71 136.765 193.636L140.092 191.715C140.24 191.641 140.24 191.494 140.092 191.42L136.913 189.573C136.765 189.499 136.543 189.499 136.395 189.573ZM147.264 183.293L143.936 185.214C143.789 185.288 143.789 185.436 143.936 185.51L147.116 187.357C147.264 187.43 147.485 187.43 147.633 187.357L150.96 185.436C151.108 185.362 151.108 185.214 150.96 185.14L147.781 183.293C147.633 183.219 147.411 183.219 147.264 183.293ZM120.129 208.486L123.456 206.565C123.604 206.491 123.604 206.343 123.456 206.269L120.277 204.422C120.129 204.349 119.908 204.349 119.76 204.422L116.433 206.343C116.285 206.417 116.285 206.565 116.433 206.639L119.612 208.486C119.76 208.633 119.982 208.56 120.129 208.486ZM152.661 180.486C152.513 180.412 152.291 180.412 152.143 180.486L148.816 182.407C148.668 182.481 148.668 182.628 148.816 182.702L151.995 184.549C152.143 184.623 152.365 184.623 152.513 184.549L155.84 182.628C155.988 182.554 155.988 182.407 155.84 182.333L152.661 180.486ZM101.498 224.591L104.825 222.67C104.973 222.596 104.973 222.449 104.825 222.375L101.646 220.528C101.498 220.454 101.276 220.454 101.128 220.528L97.8011 222.449C97.6532 222.523 97.6532 222.67 97.8011 222.744L100.98 224.591C101.128 224.665 101.35 224.665 101.498 224.591ZM161.681 189.868L165.008 187.948C165.156 187.874 165.156 187.726 165.008 187.652L161.829 185.805C161.681 185.731 161.459 185.731 161.311 185.805L157.984 187.726C157.836 187.8 157.836 187.948 157.984 188.021L161.163 189.868C161.311 189.942 161.533 189.942 161.681 189.868ZM152.143 190.016L155.47 188.095C155.618 188.021 155.618 187.874 155.47 187.8L152.291 185.953C152.143 185.879 151.921 185.879 151.774 185.953L148.446 187.874C148.299 187.948 148.299 188.095 148.446 188.169L151.626 190.016C151.774 190.09 151.995 190.09 152.143 190.016ZM157.245 183.145C157.097 183.072 156.875 183.072 156.727 183.145L153.4 185.066C153.252 185.14 153.252 185.288 153.4 185.362L156.579 187.209C156.727 187.283 156.949 187.283 157.097 187.209L160.424 185.288C160.572 185.214 160.572 185.066 160.424 184.992L157.245 183.145ZM158.28 182.554L166.117 187.061C166.265 187.135 166.487 187.135 166.634 187.061L169.962 185.14C170.109 185.066 170.109 184.919 169.962 184.845L162.124 180.338C161.977 180.264 161.755 180.264 161.607 180.338L158.28 182.259C158.132 182.333 158.132 182.481 158.28 182.554ZM146.968 188.834L143.641 190.755C143.493 190.829 143.493 190.977 143.641 191.05L146.82 192.897C146.968 192.971 147.19 192.971 147.337 192.897L150.665 190.977C150.812 190.903 150.812 190.755 150.665 190.681L147.485 188.834C147.264 188.686 147.116 188.686 146.968 188.834ZM110 210.111L106.673 212.032C106.525 212.106 106.525 212.253 106.673 212.327L109.852 214.174C110 214.248 110.222 214.248 110.37 214.174L113.697 212.254C113.845 212.18 113.845 212.032 113.697 211.958L110.518 210.111C110.37 210.037 110.148 210.037 110 210.111ZM156.284 192.676C156.431 192.75 156.653 192.75 156.801 192.676L160.128 190.755C160.276 190.681 160.276 190.533 160.128 190.459L156.949 188.612C156.801 188.539 156.579 188.539 156.431 188.612L153.104 190.533C152.957 190.607 152.957 190.755 153.104 190.829L156.284 192.676ZM114.88 207.304L111.553 209.224C111.405 209.298 111.405 209.446 111.553 209.52L114.732 211.367C114.88 211.441 115.102 211.441 115.25 211.367L118.577 209.446C118.725 209.372 118.725 209.224 118.577 209.151L115.398 207.304C115.25 207.23 115.028 207.23 114.88 207.304ZM76.4339 238.776C76.5818 238.85 76.8036 238.85 76.9515 238.776L80.2785 236.855C80.4264 236.781 80.4264 236.633 80.2785 236.559L77.0993 234.712C76.9515 234.639 76.7297 234.639 76.5818 234.712L73.2547 236.633C73.1069 236.707 73.1069 236.855 73.2547 236.929L76.4339 238.776ZM70.7409 232.792L67.4139 234.712C67.266 234.786 67.266 234.934 67.4139 235.008L70.5931 236.855C70.7409 236.929 70.9628 236.929 71.1106 236.855L74.4377 234.934C74.5856 234.86 74.5856 234.712 74.4377 234.639L71.2585 232.792C71.1106 232.644 70.8888 232.718 70.7409 232.792ZM81.8312 235.895L85.1582 233.974C85.3061 233.9 85.3061 233.752 85.1582 233.678L81.979 231.831C81.8312 231.757 81.6094 231.757 81.4615 231.831L78.1344 233.752C77.9866 233.826 77.9866 233.974 78.1344 234.048L81.3136 235.895C81.4615 235.968 81.6833 235.968 81.8312 235.895ZM86.7109 233.087L90.0379 231.166C90.1858 231.092 90.1858 230.945 90.0379 230.871L86.9327 229.024C86.7848 228.95 86.563 228.95 86.4151 229.024L83.0881 230.945C82.9402 231.019 82.9402 231.166 83.0881 231.24L86.2673 233.087C86.4151 233.161 86.6369 233.161 86.7109 233.087ZM91.6645 230.206L94.9916 228.285C95.1394 228.211 95.1394 228.063 94.9916 227.99L91.8124 226.143C91.6645 226.069 91.4427 226.069 91.2948 226.143L87.9678 228.063C87.8199 228.137 87.8199 228.285 87.9678 228.359L91.147 230.206C91.2948 230.354 91.5166 230.28 91.6645 230.206ZM75.6206 229.91L72.2936 231.831C72.1457 231.905 72.1457 232.053 72.2936 232.127L75.4728 233.974C75.6206 234.048 75.8424 234.048 75.9903 233.974L79.3174 232.053C79.4653 231.979 79.4653 231.831 79.3174 231.757L76.1382 229.91C75.9903 229.837 75.7685 229.837 75.6206 229.91ZM80.5743 227.103L77.2472 229.024C77.0993 229.098 77.0993 229.245 77.2472 229.319L80.4264 231.166C80.5743 231.24 80.7961 231.24 80.944 231.166L84.271 229.245C84.4189 229.172 84.4189 229.024 84.271 228.95L81.0918 227.103C80.944 227.029 80.7221 227.029 80.5743 227.103ZM100.167 215.8L96.8399 217.721C96.6921 217.794 96.6921 217.942 96.8399 218.016L100.019 219.863C100.167 219.937 100.389 219.937 100.537 219.863L103.864 217.942C104.012 217.868 104.012 217.72 103.864 217.647L100.685 215.8C100.537 215.726 100.315 215.726 100.167 215.8ZM95.2873 218.607L91.9603 220.528C91.8124 220.602 91.8124 220.749 91.9603 220.823L95.1395 222.67C95.2873 222.744 95.5091 222.744 95.657 222.67L98.9841 220.749C99.1319 220.676 99.1319 220.528 98.9841 220.454L95.8049 218.607C95.657 218.533 95.4352 218.533 95.2873 218.607ZM105.121 212.918L101.794 214.839C101.646 214.913 101.646 215.061 101.794 215.135L104.973 216.982C105.121 217.056 105.342 217.056 105.49 216.982L108.817 215.061C108.965 214.987 108.965 214.839 108.817 214.765L105.638 212.918C105.416 212.845 105.269 212.845 105.121 212.918ZM85.454 224.296L82.1269 226.216C81.979 226.29 81.979 226.438 82.1269 226.512L85.3061 228.359C85.454 228.433 85.6758 228.433 85.8237 228.359L89.1507 226.438C89.2986 226.364 89.2986 226.216 89.1507 226.143L85.9715 224.296C85.8237 224.148 85.6019 224.222 85.454 224.296ZM90.3337 221.414L87.0066 223.335C86.8587 223.409 86.8587 223.557 87.0066 223.631L90.1858 225.478C90.3337 225.552 90.5555 225.552 90.7034 225.478L94.0304 223.557C94.1783 223.483 94.1783 223.335 94.0304 223.261L90.8512 221.414C90.7034 221.341 90.4816 221.341 90.3337 221.414ZM84.1231 239.884L87.4502 237.963C87.5981 237.889 87.5981 237.741 87.4502 237.668L84.271 235.821C84.1231 235.747 83.9013 235.747 83.7535 235.821L80.4264 237.741C80.2785 237.815 80.2785 237.963 80.4264 238.037L83.6056 239.884C83.7535 239.958 83.9753 239.958 84.1231 239.884ZM58.2459 238.628L55.0668 236.781C54.9189 236.707 54.6971 236.707 54.5492 236.781L51.2221 238.702C51.0743 238.776 51.0743 238.924 51.2221 238.997L54.4013 240.844C54.5492 240.918 54.771 240.918 54.9189 240.844L58.2459 238.924C58.3199 238.85 58.3199 238.702 58.2459 238.628ZM64.6044 240.253L61.4252 238.406C61.2773 238.333 61.0555 238.333 60.9076 238.406L55.7322 241.362C55.5843 241.435 55.5843 241.583 55.7322 241.657L58.9114 243.504C59.0592 243.578 59.281 243.578 59.4289 243.504L64.6044 240.549C64.7522 240.475 64.7522 240.327 64.6044 240.253ZM53.4402 235.008L50.261 233.161C50.1131 233.087 49.8913 233.087 49.7434 233.161L45.6031 235.525C45.4552 235.599 45.4552 235.747 45.6031 235.821L48.7823 237.668C48.9302 237.741 49.152 237.741 49.2998 237.668L53.4402 235.304C53.5141 235.23 53.5881 235.082 53.4402 235.008ZM56.6194 233.161C56.7673 233.235 56.9891 233.235 57.1369 233.161L60.464 231.24C60.6119 231.166 60.6119 231.019 60.464 230.945L57.2848 229.098C57.1369 229.024 56.9151 229.024 56.7673 229.098L53.4402 231.019C53.2923 231.092 53.2923 231.24 53.4402 231.314L56.6194 233.161ZM70.5191 242.174L67.3399 240.327C67.1921 240.253 66.9703 240.253 66.8224 240.327L60.3901 244.021C60.2422 244.095 60.2422 244.243 60.3901 244.317L63.5693 246.164C63.7171 246.237 63.9389 246.237 64.0868 246.164L70.5191 242.47C70.5931 242.396 70.5931 242.248 70.5191 242.174ZM72.7372 246.164L69.558 244.317C69.4101 244.243 69.1883 244.243 69.0404 244.317L64.9001 246.681C64.7522 246.755 64.7522 246.902 64.9001 246.976L68.0793 248.823C68.2272 248.897 68.449 248.897 68.5968 248.823L72.7372 246.459C72.8851 246.385 72.8851 246.237 72.7372 246.164ZM93.0693 212.106C93.2171 212.18 93.4389 212.18 93.5868 212.106L96.9139 210.185C97.0618 210.111 97.0618 209.963 96.9139 209.889L93.7347 208.042C93.5868 207.969 93.365 207.969 93.2171 208.042L89.8901 209.963C89.7422 210.037 89.7422 210.185 89.8901 210.259L93.0693 212.106ZM83.2359 217.794C83.3838 217.868 83.6056 217.868 83.7535 217.794L87.0805 215.874C87.2284 215.8 87.2284 215.652 87.0805 215.578L83.9013 213.731C83.7535 213.657 83.5317 213.657 83.3838 213.731L80.0567 215.652C79.9089 215.726 79.9089 215.874 80.0567 215.947L83.2359 217.794ZM61.4991 230.354C61.647 230.428 61.8688 230.428 62.0166 230.354L65.3437 228.433C65.4916 228.359 65.4916 228.211 65.3437 228.137L62.1645 226.29C62.0166 226.216 61.7948 226.216 61.647 226.29L58.3199 228.211C58.172 228.285 58.172 228.433 58.3199 228.507L61.4991 230.354ZM88.1896 214.987C88.3374 215.061 88.5592 215.061 88.7071 214.987L92.0342 213.066C92.182 212.992 92.182 212.845 92.0342 212.771L88.855 210.924C88.7071 210.85 88.4853 210.85 88.3374 210.924L85.0104 212.845C84.8625 212.918 84.8625 213.066 85.0104 213.14L88.1896 214.987ZM78.3562 220.602C78.5041 220.676 78.7259 220.676 78.8738 220.602L82.2009 218.681C82.3487 218.607 82.3487 218.459 82.2009 218.385L79.0217 216.538C78.8738 216.465 78.652 216.465 78.5041 216.538L75.177 218.459C75.0292 218.533 75.0292 218.681 75.177 218.755L78.3562 220.602ZM75.177 246.385C75.0292 246.311 74.8074 246.311 74.6595 246.385L69.4841 249.34C69.3362 249.414 69.3362 249.562 69.4841 249.636L72.6632 251.483C72.8111 251.557 73.0329 251.557 73.1808 251.483L78.3562 248.528C78.5041 248.454 78.5041 248.306 78.3562 248.232L75.177 246.385ZM71.3324 224.665C71.4803 224.739 71.7021 224.739 71.85 224.665L75.177 222.744C75.3249 222.67 75.3249 222.523 75.177 222.449L71.9978 220.602C71.85 220.528 71.6282 220.528 71.4803 220.602L68.1532 222.523C68.0054 222.596 68.0054 222.744 68.1532 222.818L71.3324 224.665ZM66.3788 227.546C66.5267 227.62 66.7485 227.62 66.8963 227.546L70.2234 225.625C70.3713 225.552 70.3713 225.404 70.2234 225.33L67.0442 223.483C66.8963 223.409 66.6745 223.409 66.5267 223.483L63.1996 225.404C63.0517 225.478 63.0517 225.625 63.1996 225.699L66.3788 227.546ZM166.117 193.932C165.969 193.858 165.747 193.858 165.599 193.932L157.319 198.734C157.171 198.808 157.171 198.955 157.319 199.029L160.498 200.876C160.646 200.95 160.868 200.95 161.015 200.876L169.296 196.074C169.444 196 169.444 195.853 169.296 195.779L166.117 193.932ZM155.248 200.137C155.101 200.064 154.879 200.064 154.731 200.137L151.404 202.058C151.256 202.132 151.256 202.28 151.404 202.354L154.583 204.201C154.731 204.275 154.953 204.275 155.101 204.201L158.428 202.28C158.576 202.206 158.576 202.058 158.428 201.984L155.248 200.137ZM89.0029 237.077L92.3299 235.156C92.4778 235.082 92.4778 234.934 92.3299 234.86L89.1507 233.013C89.0029 232.939 88.7811 232.939 88.6332 233.013L85.3061 234.934C85.1582 235.008 85.1582 235.156 85.3061 235.23L88.4853 237.077C88.6332 237.15 88.855 237.15 89.0029 237.077ZM145.415 205.826C145.267 205.752 145.045 205.752 144.898 205.826L141.571 207.747C141.423 207.821 141.423 207.969 141.571 208.042L144.75 209.889C144.898 209.963 145.119 209.963 145.267 209.889L148.594 207.969C148.742 207.895 148.742 207.747 148.594 207.673L145.415 205.826ZM170.997 191.05C170.849 190.977 170.627 190.977 170.479 191.05L167.152 192.971C167.004 193.045 167.004 193.193 167.152 193.267L170.331 195.114C170.479 195.188 170.701 195.188 170.849 195.114L174.176 193.193C174.324 193.119 174.324 192.971 174.176 192.897L170.997 191.05ZM179.129 190.09L171.292 185.583C171.144 185.51 170.923 185.51 170.775 185.583L167.448 187.504C167.3 187.578 167.3 187.726 167.448 187.8L175.285 192.306C175.433 192.38 175.655 192.38 175.802 192.306L179.129 190.386C179.277 190.312 179.277 190.164 179.129 190.09ZM127.079 216.391C126.931 216.317 126.71 216.317 126.562 216.391L122.421 218.755C122.274 218.829 122.274 218.976 122.421 219.05L125.601 220.897C125.748 220.971 125.97 220.971 126.118 220.897L130.259 218.533C130.406 218.459 130.406 218.312 130.259 218.238L127.079 216.391ZM139.5 209.224C139.353 209.151 139.131 209.151 138.983 209.224L133.807 212.18C133.66 212.254 133.66 212.401 133.807 212.475L136.987 214.322C137.134 214.396 137.356 214.396 137.504 214.322L142.68 211.367C142.827 211.293 142.827 211.145 142.68 211.071L139.5 209.224ZM115.767 222.966C115.619 222.892 115.398 222.892 115.25 222.966L87.5981 238.924C87.4502 238.997 87.4502 239.145 87.5981 239.219L90.7773 241.066C90.9252 241.14 91.147 241.14 91.2948 241.066L118.946 225.108C119.094 225.034 119.094 224.887 118.946 224.813L115.767 222.966ZM86.563 239.81C86.4151 239.736 86.1933 239.736 86.0455 239.81L81.9051 242.174C81.7572 242.248 81.7572 242.396 81.9051 242.47L85.0843 244.317C85.2322 244.391 85.454 244.391 85.6018 244.317L89.7422 241.953C89.8901 241.879 89.8901 241.731 89.7422 241.657L86.563 239.81ZM121.386 219.715C121.238 219.641 121.017 219.641 120.869 219.715L116.728 222.079C116.581 222.153 116.581 222.301 116.728 222.375L119.908 224.222C120.055 224.296 120.277 224.296 120.425 224.222L124.566 221.858C124.713 221.784 124.713 221.636 124.566 221.562L121.386 219.715ZM80.87 243.061C80.7222 242.987 80.5004 242.987 80.3525 243.061L76.2121 245.425C76.0643 245.499 76.0643 245.646 76.2121 245.72L79.3913 247.567C79.5392 247.641 79.761 247.641 79.9089 247.567L84.0492 245.203C84.1971 245.129 84.1971 244.982 84.0492 244.908L80.87 243.061ZM132.772 213.14C132.624 213.066 132.403 213.066 132.255 213.14L128.114 215.504C127.967 215.578 127.967 215.726 128.114 215.8L131.294 217.647C131.441 217.72 131.663 217.72 131.811 217.647L135.951 215.283C136.099 215.209 136.099 215.061 135.951 214.987L132.772 213.14ZM150.369 203.019C150.221 202.945 149.999 202.945 149.851 203.019L146.524 204.94C146.376 205.013 146.376 205.161 146.524 205.235L149.703 207.082C149.851 207.156 150.073 207.156 150.221 207.082L153.548 205.161C153.696 205.087 153.696 204.94 153.548 204.866L150.369 203.019ZM161.311 195.335L164.638 193.415C164.786 193.341 164.786 193.193 164.638 193.119L161.459 191.272C161.311 191.198 161.089 191.198 160.941 191.272L157.614 193.193C157.467 193.267 157.467 193.415 157.614 193.488L160.794 195.335C160.941 195.409 161.163 195.409 161.311 195.335ZM141.275 196.296L144.602 194.375C144.75 194.301 144.75 194.153 144.602 194.079L141.423 192.233C141.275 192.159 141.053 192.159 140.905 192.233L137.578 194.153C137.43 194.227 137.43 194.375 137.578 194.449L140.757 196.296C140.979 196.37 141.201 196.37 141.275 196.296ZM128.262 214.396L138.096 208.707C138.243 208.633 138.243 208.486 138.096 208.412L134.916 206.565C134.769 206.491 134.547 206.491 134.399 206.565L124.566 212.254C124.418 212.327 124.418 212.475 124.566 212.549L127.745 214.396C127.893 214.47 128.114 214.47 128.262 214.396ZM155.914 198.143C156.062 198.217 156.284 198.217 156.431 198.143L159.759 196.222C159.906 196.148 159.906 196 159.759 195.926L156.579 194.079C156.431 194.006 156.21 194.006 156.062 194.079L152.735 196C152.587 196.074 152.587 196.222 152.735 196.296L155.914 198.143ZM151.847 195.483L155.175 193.562C155.322 193.488 155.322 193.341 155.175 193.267L151.995 191.42C151.847 191.346 151.626 191.346 151.478 191.42L148.151 193.341C148.003 193.415 148.003 193.562 148.151 193.636L151.33 195.483C151.478 195.631 151.7 195.557 151.847 195.483ZM123.383 217.203L126.71 215.283C126.858 215.209 126.858 215.061 126.71 214.987L123.53 213.14C123.383 213.066 123.161 213.066 123.013 213.14L119.686 215.061C119.538 215.135 119.538 215.283 119.686 215.356L122.865 217.203C123.013 217.351 123.235 217.277 123.383 217.203ZM145.119 204.422C145.267 204.496 145.489 204.496 145.637 204.422L148.964 202.502C149.112 202.428 149.112 202.28 148.964 202.206L145.785 200.359C145.637 200.285 145.415 200.285 145.267 200.359L141.94 202.28C141.792 202.354 141.792 202.502 141.94 202.575L145.119 204.422ZM98.8362 231.388L102.163 229.467C102.311 229.393 102.311 229.245 102.163 229.172L98.9841 227.325C98.8362 227.251 98.6144 227.251 98.4665 227.325L95.1395 229.245C94.9916 229.319 94.9916 229.467 95.1395 229.541L98.3186 231.388C98.4665 231.462 98.6883 231.462 98.8362 231.388ZM103.716 228.581L107.043 226.66C107.191 226.586 107.191 226.438 107.043 226.364L103.864 224.517C103.716 224.443 103.494 224.443 103.346 224.517L100.019 226.438C99.8713 226.512 99.8713 226.66 100.019 226.734L103.198 228.581C103.346 228.654 103.568 228.654 103.716 228.581ZM93.8825 234.195L97.2096 232.274C97.3575 232.201 97.3575 232.053 97.2096 231.979L94.0304 230.132C93.8826 230.058 93.6607 230.058 93.5129 230.132L90.1858 232.053C90.0379 232.127 90.0379 232.274 90.1858 232.348L93.365 234.195C93.5868 234.343 93.8086 234.269 93.8825 234.195ZM113.549 222.892L116.876 220.971C117.024 220.897 117.024 220.75 116.876 220.676L113.697 218.829C113.549 218.755 113.327 218.755 113.18 218.829L109.852 220.749C109.705 220.823 109.705 220.971 109.852 221.045L113.032 222.892C113.18 222.966 113.401 222.966 113.549 222.892ZM108.67 225.699L111.997 223.778C112.144 223.705 112.144 223.557 111.997 223.483L108.817 221.636C108.67 221.562 108.448 221.562 108.3 221.636L104.973 223.557C104.825 223.631 104.825 223.778 104.973 223.852L108.152 225.699C108.3 225.847 108.522 225.773 108.67 225.699ZM118.429 220.085L121.756 218.164C121.904 218.09 121.904 217.942 121.756 217.868L118.577 216.021C118.429 215.947 118.207 215.947 118.059 216.021L114.732 217.942C114.584 218.016 114.584 218.164 114.732 218.238L117.911 220.085C118.133 220.158 118.281 220.158 118.429 220.085ZM145.267 180.708C145.415 180.781 145.637 180.781 145.785 180.708L149.112 178.787C149.26 178.713 149.26 178.565 149.112 178.491L148.225 177.974C148.077 177.9 147.855 177.9 147.707 177.974L144.38 179.895C144.232 179.969 144.232 180.116 144.38 180.19L145.267 180.708ZM120.869 196.074C121.017 196.148 121.238 196.148 121.386 196.074L124.713 194.153C124.861 194.079 124.861 193.932 124.713 193.858L121.534 192.011C121.386 191.937 121.165 191.937 121.017 192.011L117.69 193.932C117.542 194.006 117.542 194.153 117.69 194.227L120.869 196.074ZM130.628 190.459C130.776 190.533 130.998 190.533 131.146 190.459L134.473 188.539C134.621 188.465 134.621 188.317 134.473 188.243L131.294 186.396C131.146 186.322 130.924 186.322 130.776 186.396L127.449 188.317C127.301 188.391 127.301 188.539 127.449 188.612L130.628 190.459ZM114.88 199.546C115.028 199.62 115.25 199.62 115.398 199.546L118.725 197.626C118.873 197.552 118.873 197.404 118.725 197.33L115.545 195.483C115.398 195.409 115.176 195.409 115.028 195.483L111.701 197.404C111.553 197.478 111.553 197.626 111.701 197.699L114.88 199.546ZM125.748 193.267C125.896 193.341 126.118 193.341 126.266 193.267L129.593 191.346C129.741 191.272 129.741 191.124 129.593 191.05L126.414 189.204C126.266 189.13 126.044 189.13 125.896 189.204L122.569 191.124C122.421 191.198 122.421 191.346 122.569 191.42L125.748 193.267ZM105.047 205.235C105.195 205.309 105.416 205.309 105.564 205.235L108.891 203.314C109.039 203.24 109.039 203.093 108.891 203.019L105.712 201.172C105.564 201.098 105.342 201.098 105.195 201.172L101.868 203.093C101.72 203.166 101.72 203.314 101.868 203.388L105.047 205.235ZM109.926 202.428C110.074 202.502 110.296 202.502 110.444 202.428L113.771 200.507C113.919 200.433 113.919 200.285 113.771 200.211L110.592 198.364C110.444 198.291 110.222 198.291 110.074 198.364L106.747 200.285C106.599 200.359 106.599 200.507 106.747 200.581L109.926 202.428ZM135.434 186.322C135.582 186.396 135.804 186.396 135.951 186.322L139.279 184.401C139.426 184.328 139.426 184.18 139.279 184.106L138.391 183.589C138.243 183.515 138.022 183.515 137.874 183.589L134.547 185.51C134.399 185.583 134.399 185.731 134.547 185.805L135.434 186.322ZM150.147 177.826C150.295 177.9 150.517 177.9 150.665 177.826L153.992 175.905C154.139 175.832 154.139 175.684 153.992 175.61L153.104 175.093C152.957 175.019 152.735 175.019 152.587 175.093L149.26 177.014C149.112 177.087 149.112 177.235 149.26 177.309L150.147 177.826ZM156.875 181.742C157.023 181.816 157.245 181.816 157.393 181.742L160.72 179.821C160.868 179.747 160.868 179.599 160.72 179.525L157.54 177.678C157.393 177.605 157.171 177.605 157.023 177.678L153.696 179.599C153.548 179.673 153.548 179.821 153.696 179.895L156.875 181.742ZM166.265 192.528L169.592 190.607C169.74 190.533 169.74 190.386 169.592 190.312L166.413 188.465C166.265 188.391 166.043 188.391 165.895 188.465L162.568 190.386C162.42 190.459 162.42 190.607 162.568 190.681L165.747 192.528C165.895 192.602 166.117 192.602 166.265 192.528ZM140.314 183.515C140.462 183.589 140.683 183.589 140.831 183.515L144.158 181.594C144.306 181.52 144.306 181.372 144.158 181.299L143.271 180.781C143.123 180.708 142.901 180.708 142.753 180.781L139.426 182.702C139.279 182.776 139.279 182.924 139.426 182.998L140.314 183.515ZM100.093 208.042C100.241 208.116 100.463 208.116 100.611 208.042L103.938 206.122C104.086 206.048 104.086 205.9 103.938 205.826L100.758 203.979C100.611 203.905 100.389 203.905 100.241 203.979L96.9139 205.9C96.766 205.974 96.766 206.122 96.9139 206.195L100.093 208.042Z" fill="#455A64"/>
<path d="M114.219 235.968L114.884 236.412L134.329 247.567L168.783 227.694L169.522 227.251L149.412 215.652L114.219 235.968Z" fill="#263238"/>
<path d="M168.336 227.916L149.408 216.982L115.324 236.633L134.325 247.567L168.336 227.916Z" fill="#37474F"/>
<path d="M69.7773 35.6106C63.7147 31.6212 55.8776 32.36 51.6633 35.5368C45.7485 40.0433 43.6783 44.9932 42.5693 54.7451C41.0906 68.4864 39.5379 72.4759 37.9114 75.5787C36.1369 78.9771 33.4753 80.6025 31.1094 81.4151C32.662 82.3755 35.6933 83.336 38.9465 81.7106C37.5417 88.3597 35.6194 93.9005 37.3199 100.993C38.5029 105.721 40.9427 111.114 44.5655 114.439C47.6708 117.32 52.1069 118.206 55.8776 119.832C53.3638 114.439 52.0329 109.341 53.7334 103.283C55.6558 96.5602 60.1658 90.8715 62.162 84.1486C64.8976 74.84 68.0768 65.1619 68.8901 55.41C69.4816 47.1356 69.7773 41.2254 69.7773 35.6106Z" fill="#263238"/>
<path d="M66.7505 36.7926C65.7894 35.906 61.5011 36.4971 58.9134 39.5261C56.3257 42.629 54.7731 47.0617 57.9523 49.4996C60.8357 51.7899 72.2956 39.8216 66.7505 36.7926Z" fill="#89ADFA"/>
<path d="M101.868 50.3125C104.012 49.4998 104.899 46.7663 104.234 44.6238C103.568 42.4075 101.794 40.7822 99.9456 39.5262C95.6573 36.7189 90.334 35.5368 85.2325 36.1278C80.7225 34.6503 75.547 34.3548 70.4455 35.3891C65.1222 36.4972 59.1335 41.5209 58.616 49.2043C51.0007 50.9774 47.6736 60.286 52.4054 70.2596C55.8064 77.4996 63.4957 82.4495 64.4568 86.0695L93.2175 63.6844C94.3265 65.4575 97.8014 65.5314 99.2062 64.7926C100.611 64.1277 101.498 61.5419 100.537 60.286C103.125 60.5076 105.712 58.4391 106.008 55.8533C106.452 53.3415 104.382 50.6818 101.868 50.3125Z" fill="#263238"/>
<path d="M70.5177 35.3889C67.3385 36.2016 64.5289 38.0485 62.5327 40.4865C61.4976 41.7424 60.6843 43.0722 60.0928 44.5498C59.5014 46.0274 59.2056 47.5788 59.0578 49.2041V49.4258L58.836 49.4997C57.0615 49.9429 55.435 50.8295 54.1041 52.1593C52.8472 53.4152 51.8861 55.1144 51.3685 56.8136C50.3335 60.3598 50.6292 64.2014 51.8861 67.6737C53.069 71.2198 55.2132 74.3227 57.653 77.1301C58.9099 78.5338 60.1668 79.9375 61.4237 81.3412C62.0152 82.0799 62.6806 82.7448 63.272 83.5575C63.7896 84.2963 64.3811 85.1089 64.6029 86.0694C64.3071 85.1828 63.7157 84.3702 63.1242 83.7053C62.5327 82.9665 61.8673 82.3016 61.2019 81.6367C59.871 80.3069 58.5402 78.9771 57.2833 77.5734C56.0264 76.1697 54.7695 74.6921 53.7345 73.1407C52.6254 71.5892 51.8861 69.8162 51.2207 68.0431C50.5553 66.27 50.1856 64.3492 50.0377 62.4283C49.8898 60.5075 50.0377 58.5867 50.6292 56.7397C51.2207 54.8928 52.1818 53.1197 53.5866 51.7899C54.9913 50.3862 56.7658 49.4258 58.6142 48.9825L58.3923 49.278C58.6142 45.9535 60.0189 42.7767 62.237 40.3388C63.346 39.0828 64.6029 38.0485 66.0076 37.2359C67.3385 36.3493 68.8911 35.6844 70.5177 35.3889Z" fill="black"/>
<path d="M176.026 97.6681C177.579 96.3383 177.874 95.9689 180.019 94.2697C181.571 93.0138 182.828 91.9795 183.272 91.2407C184.085 89.7632 183.346 88.3595 182.68 88.5811C181.349 89.0244 179.797 90.2064 176.691 92.275C173.29 94.5652 170.925 96.9293 170.703 96.5599C170.703 96.5599 171.442 95.3779 174.326 92.275C178.466 87.7684 179.279 86.9558 180.092 85.5521C181.719 82.5231 179.427 82.0798 178.466 82.6708C177.357 83.4096 176.1 84.7394 173.143 87.6946C169.889 90.8713 167.08 94.122 166.858 93.9742C166.636 93.7526 171.072 88.8766 173.734 85.3305C176.248 82.0059 174.621 80.6023 173.882 80.5284C173.143 80.3806 172.255 81.4149 171.072 82.6708C168.928 84.9611 162.644 92.7183 161.313 94.1958C159.982 95.7473 159.021 96.1906 158.799 93.8265C158.651 91.6101 158.725 89.1721 157.764 87.6946C156.138 85.1088 154.363 85.7737 154.289 87.4729C154.289 89.9109 153.698 92.6444 153.254 96.5599C153.032 98.5547 153.032 100.993 153.032 102.396C152.811 107.346 148.596 109.858 145.195 112.296C141.72 114.66 132.331 120.053 132.331 120.053C132.331 120.053 114.808 102.027 109.707 97.5942C103.644 92.3489 101.869 91.9795 93.293 92.0534L105.418 123.23C105.418 123.23 121.906 138.449 127.525 141.773C133.144 145.024 135.436 143.251 142.238 137.193C147.487 132.539 156.064 121.974 158.134 119.61C160.204 117.246 161.091 115.768 163.531 114.882C166.784 113.7 168.485 112.074 170.703 109.563C171.738 108.38 173.438 105.942 175.065 104.391C177.653 101.731 180.906 99.4412 181.867 98.7024C183.272 97.5204 183.493 95.0085 181.497 95.8212C177.653 97.2987 173.882 100.549 173.734 100.328C173.512 99.8106 174.917 98.5547 176.026 97.6681Z" fill="#FFBDA7"/>
<path d="M160.051 97.816C161.825 100.402 162.195 106.46 160.494 110.08C163.969 106.681 163.6 100.476 160.051 97.816Z" fill="#F0997A"/>
<path d="M132.253 119.905C129.37 121.826 125.895 127.293 126.856 132.908C125.599 128.771 124.49 123.525 130.848 118.354L132.253 119.905Z" fill="#F0997A"/>
<path d="M48.4879 100.993L55.2159 98.2592C55.2159 98.2592 65.345 95.6735 73.6997 93.8265C82.4979 92.7183 90.1871 91.9057 90.1871 91.9057L93.2185 91.8318C93.2185 91.8318 99.8726 97.6682 104.752 103.061C109.632 108.454 113.92 112.961 114.142 119.758C114.512 128.993 108.597 132.317 108.597 132.317L108.967 144.064L116.656 165.858L42.2773 208.855C44.5693 182.333 50.4102 177.974 53.7372 159.652C53.0718 150.048 48.34 136.897 47.5267 130.175C44.7172 106.977 48.4879 100.993 48.4879 100.993Z" fill="#89ADFA"/>
<path d="M64.2372 89.4677C64.5329 86.217 64.9765 79.7896 64.9765 79.7896C64.1633 80.8978 59.8011 82.3754 56.8437 78.1643C53.3688 73.3622 53.9602 69.8899 56.3262 67.5258C59.0618 64.8662 63.8675 65.5311 65.8638 69.7422C67.1207 72.6973 69.5605 69.225 67.1207 64.5707C66.3074 56.3702 76.7322 61.8372 83.2385 44.7713C89.8187 44.402 93.7372 46.2489 96.9164 51.7159C98.3951 54.1539 100.096 57.7 99.7259 68.043C99.2823 81.1194 97.2861 85.2566 92.7021 87.473C90.558 88.5072 88.4139 88.8766 84.3475 88.5811L84.2735 89.8371C84.2735 90.1326 84.2735 90.4281 84.3475 90.7236C84.4214 91.2407 84.7171 92.0534 85.7522 92.1273C87.8224 92.275 90.2623 91.9795 90.2623 91.9795C90.2623 91.9795 93.5893 100.328 82.4991 102.692C66.8989 106.016 55.2171 98.2592 55.2171 98.2592C55.2171 98.2592 57.7309 97.0032 59.949 95.3779C63.4239 92.9399 64.0154 91.4624 64.2372 89.4677Z" fill="#FFBDA7"/>
<path d="M59.9492 77.4995C59.9492 78.386 60.6886 79.0509 61.5758 79.0509C62.463 79.0509 63.1284 78.3121 63.1284 77.4256C63.1284 76.5391 62.3891 75.8741 61.5018 75.8741C60.6146 75.8741 59.9492 76.6129 59.9492 77.4995Z" fill="#FAFAFA"/>
<path d="M80.9401 75.7263L88.0379 77.9427C87.4464 80.0113 85.3762 81.1194 83.4539 80.5284C81.4577 79.9374 80.3486 77.7949 80.9401 75.7263Z" fill="#B16668"/>
<path d="M81.3847 77.4255C83.381 77.3516 85.0815 78.7553 85.5251 80.6023C84.8597 80.8239 84.1203 80.8239 83.4549 80.6023C82.0501 80.159 81.089 78.9031 80.8672 77.4994C81.0151 77.4255 81.1629 77.4255 81.3847 77.4255Z" fill="#F28F8F"/>
<path d="M96.9827 57.9218L92.4727 56.8136C92.6945 55.5577 93.9514 54.745 95.1343 55.0405C96.4651 55.4099 97.2045 56.6658 96.9827 57.9218Z" fill="#263238"/>
<path d="M75.1031 57.7001L79.4652 56.0748C79.0216 54.8189 77.7647 54.2279 76.5078 54.6711C75.3249 55.1144 74.6595 56.5181 75.1031 57.7001Z" fill="#263238"/>
<path d="M92.5515 63.7581C92.4776 64.7924 93.2909 65.7528 94.326 65.8267C95.3611 65.9006 96.3222 65.1618 96.3962 64.1275C96.4701 63.0932 95.6568 62.1328 94.6217 62.0589C93.5866 61.9111 92.6255 62.7238 92.5515 63.7581Z" fill="#263238"/>
<path d="M76.95 63.8317C76.876 64.866 77.6893 65.8264 78.7244 65.9003C79.7595 65.9742 80.7207 65.2354 80.7946 64.2011C80.8685 63.1668 80.0552 62.2064 79.0202 62.1325C77.9111 62.0586 77.0239 62.7974 76.95 63.8317Z" fill="#263238"/>
<path d="M84.3453 88.5074C80.3528 88.138 75.3992 86.8082 72.146 85.109C69.4844 83.6314 68.1535 81.3412 67.4142 79.8636C67.4142 79.8636 67.3403 83.7053 70.6673 86.5127C74.3641 89.6156 84.3453 90.6499 84.3453 90.6499C84.2713 90.3544 84.2713 90.1327 84.2713 89.7633L84.3453 88.5074Z" fill="#F0997A"/>
<path d="M79.0234 134.016C82.6462 130.987 84.4946 129.731 86.1951 129.14C87.8956 128.549 93.9583 125.594 96.3242 124.855C97.8029 124.412 98.5422 126.776 96.7678 128.476C95.363 129.805 91.6663 131.726 90.0397 132.76C88.4132 133.795 85.3818 138.006 85.3818 138.006L79.0234 134.016Z" fill="#F0997A"/>
<path d="M70.8894 160.908C59.0599 167.631 48.709 175.979 37.2491 177.678C26.0849 179.377 25.7152 170.069 25.937 163.198C26.1588 154.481 31.0385 127.219 33.6263 118.132C36.2879 108.454 38.0623 104.908 48.5611 100.993C57.2115 106.681 55.2152 125.372 53.3669 132.539C51.3706 140 48.2654 153.889 48.2654 153.889C48.2654 153.889 61.8694 149.605 65.1964 147.905C68.4496 146.206 73.9207 138.818 76.1388 136.454C79.0962 133.277 80.6488 133.573 82.2754 133.721C87.5248 134.164 88.7077 134.533 89.8907 135.198C91.0736 135.863 90.9997 137.193 90.9997 137.193C92.4045 137.267 94.4746 137.119 94.8443 139.335C95.1401 140.813 95.0661 141.182 95.0661 141.182C95.0661 141.182 95.5837 141.182 96.0273 141.626C97.2842 142.882 95.5837 147.61 94.4007 148.866C93.5874 149.678 92.3305 149.9 90.63 149.752C89.2253 149.678 89.7428 148.201 89.7428 148.201L87.8205 148.422C83.7541 151.673 83.5323 156.549 78.0611 158.248C76.7303 158.47 73.699 159.135 70.8894 160.908Z" fill="#FFBDA7"/>
<path d="M90.8509 137.119L84.5664 136.233H90.6291C90.7769 136.528 90.8509 136.824 90.8509 137.119Z" fill="#F0997A"/>
<path d="M94.9178 141.109L87.7461 140.665L94.9178 140.296C94.9178 140.518 94.9178 140.813 94.9178 141.109Z" fill="#F0997A"/>
<path d="M94.1767 144.285C93.9549 144.655 93.6592 144.95 93.2895 145.172C92.9198 145.394 92.5501 145.541 92.1065 145.689L92.1805 145.615C92.0326 145.985 91.8108 146.354 91.6629 146.723L91.5151 146.576C91.9587 146.502 92.3283 146.576 92.698 146.797C92.9938 147.019 93.2156 147.314 93.3634 147.684C93.1416 147.388 92.9198 147.093 92.6241 146.945C92.3283 146.797 91.9587 146.723 91.6629 146.797L91.3672 146.871L91.5151 146.65C91.6629 146.28 91.8847 145.911 92.0326 145.541V145.467H92.1065C92.4762 145.394 92.9198 145.246 93.2895 145.098C93.5852 144.803 93.9549 144.655 94.1767 144.285Z" fill="#F0997A"/>
<path d="M92.3295 145.32C91.6641 145.541 89.7418 145.689 89.7418 145.689C89.7418 145.689 89.7418 146.206 88.9285 147.093C88.4849 147.61 87.5977 148.349 87.5977 148.349L89.52 148.127C89.52 148.127 89.9636 147.241 91.6641 146.797L92.3295 145.32Z" fill="#F0997A"/>
<path d="M48.7118 151.304L48.1203 153.89C43.0928 155.515 37.7695 159.43 36.7344 162.312C37.3998 157.805 39.9136 154.259 48.7118 151.304Z" fill="#F0997A"/>
<path d="M101.572 58.8823C101.351 58.8823 101.055 58.8084 100.833 58.8084C98.3933 58.5129 95.0662 58.5129 93.07 59.1778C90.4823 60.0643 89.5951 60.9509 88.1164 61.0247C86.4898 61.0247 85.3808 60.1382 82.3494 59.3255C79.9096 58.6606 75.6953 58.8084 72.3682 59.1039C71.9986 59.1778 71.6289 59.1778 71.3331 59.2517C70.7417 59.3255 70.0762 60.0643 70.1502 60.9509C70.1502 61.8374 70.8895 62.5023 71.1113 62.8717C71.2592 63.0194 71.3331 63.315 71.481 63.6844C71.8507 65.0142 71.9986 67.6738 72.7379 69.1513C73.0336 69.7424 73.4033 70.4811 74.0687 71.0722C74.2905 71.2938 74.5123 71.4416 74.7341 71.6632C74.882 71.7371 75.0299 71.811 75.1038 71.8848C75.4735 72.1065 75.8432 72.2542 76.2868 72.402C76.3607 72.402 76.4346 72.4759 76.5086 72.4759C76.5825 72.4759 76.7304 72.5497 76.8043 72.5497C76.8783 72.5497 77.0261 72.6236 77.1001 72.6236C77.3958 72.6975 77.7655 72.6975 78.1351 72.6975C78.283 72.6975 78.4309 72.6975 78.5788 72.6975C78.7266 72.6975 78.9484 72.6975 79.0963 72.6975C83.2366 72.402 84.8632 70.3334 85.8244 68.2648C86.7116 66.2701 86.3419 63.5366 88.1164 63.4627C88.1903 63.4627 88.2642 63.4627 88.2642 63.4627C88.3382 63.4627 88.3382 63.4627 88.4121 63.4627C89.669 63.7582 89.669 66.1962 90.5562 67.9693C90.9259 68.6342 91.2955 69.2991 91.887 69.8901C91.961 69.964 92.1088 70.1118 92.1828 70.1856C92.2567 70.2595 92.2567 70.2595 92.3306 70.3334C92.4046 70.4073 92.4785 70.4073 92.4785 70.4811C92.5524 70.555 92.5524 70.555 92.6264 70.555C92.7003 70.6289 92.7742 70.6289 92.7742 70.6289C92.8482 70.6289 92.8482 70.7028 92.9221 70.7028C92.9221 70.7028 92.996 70.7028 92.996 70.7767C93.4397 70.9983 93.9572 71.2199 94.4747 71.2938C94.5487 71.2938 94.5487 71.2938 94.6226 71.2938C95.1402 71.3677 95.7316 71.4416 96.3971 71.3677C99.7241 71.1461 100.611 68.9297 101.055 67.5999C101.425 66.2701 101.425 63.9799 101.572 62.7239C101.572 62.4284 101.72 62.2807 101.794 62.1329C102.016 61.8374 102.386 61.1725 102.312 60.4337C102.46 59.6211 101.942 58.9561 101.572 58.8823ZM84.7893 66.2701C84.6414 67.0089 84.3457 68.1909 83.4585 69.1513C82.6452 70.1118 81.2404 70.9244 79.0224 71.0722C76.7304 71.1461 75.3256 70.2595 74.5123 69.2252C74.4384 69.1513 74.4384 69.0775 74.3645 69.0036C74.2905 68.9297 74.2905 68.8558 74.2166 68.7819C74.1427 68.7081 74.1427 68.6342 74.0687 68.5603C74.0687 68.4864 73.9948 68.4126 73.9948 68.4126C73.9948 68.3387 73.9209 68.3387 73.9209 68.2648C73.9209 68.1909 73.8469 68.1909 73.8469 68.117C73.8469 68.0432 73.773 67.9693 73.773 67.8954C73.6991 67.6738 73.6251 67.4521 73.5512 67.3044C73.4772 67.1566 73.4773 67.0827 73.4773 66.935C73.4033 66.7134 73.4033 66.4917 73.3294 66.344C73.3294 66.2701 73.3294 66.2701 73.3294 66.1962V66.1223C73.0336 64.7186 72.664 61.9113 73.4033 61.2464C74.1427 60.6553 76.065 59.9166 79.0963 60.2121C79.1702 60.2121 79.3181 60.2121 79.392 60.2121C79.8356 60.286 80.2793 60.3598 80.7968 60.4337C80.9447 60.4337 81.1665 60.5076 81.3143 60.5815C81.7579 60.7292 82.2016 60.8031 82.6452 60.9509C82.793 61.0247 82.9409 61.0247 83.0148 61.0986C83.1627 61.1725 83.3106 61.2464 83.4585 61.3203C83.4585 61.3203 83.5324 61.3202 83.5324 61.3941C83.6063 61.3941 83.6063 61.468 83.6803 61.468C84.1239 61.6896 84.4196 61.9113 84.5675 62.1329C85.159 62.9456 85.085 64.7186 84.7893 66.2701ZM100.611 65.0142C100.537 66.0485 100.316 68.2648 98.5412 69.2991C98.0236 69.5946 97.4321 69.8162 96.6189 69.8901C94.4748 70.0379 93.2179 69.1513 92.4046 68.117C92.4046 68.0432 92.3306 68.0432 92.3306 67.9693C92.3306 67.8954 92.2567 67.8954 92.2567 67.8215C92.2567 67.8215 92.2567 67.7477 92.1828 67.7477C92.1088 67.6738 92.1088 67.5999 92.0349 67.526C91.961 67.4521 91.961 67.3783 91.887 67.3044C91.887 67.2305 91.8131 67.2305 91.8131 67.1566V67.0827C91.8131 67.0827 91.8131 67.0089 91.7392 67.0089V66.935C91.5913 66.5656 91.5174 66.2701 91.4434 65.9746C91.0737 64.497 90.8519 62.7978 91.2955 61.9852C91.7392 61.1725 93.6615 60.286 95.5098 59.9904C95.9535 59.9166 96.3231 59.9166 96.6928 59.9166C96.7667 59.9166 96.7667 59.9166 96.8407 59.9166C96.9146 59.9166 96.9146 59.9166 96.9885 59.9166C97.1364 59.9166 97.2843 59.9166 97.3582 59.9166C97.4321 59.9166 97.4321 59.9166 97.5061 59.9166C97.58 59.9166 97.654 59.9166 97.7279 59.9166C97.8018 59.9166 97.9497 59.9166 98.0236 59.9166C98.2454 59.9166 98.4672 59.9904 98.6151 59.9904C98.689 59.9904 98.689 59.9904 98.763 59.9904H98.8369C98.9108 59.9904 98.9108 59.9904 98.9848 60.0643C99.0587 60.0643 99.1326 60.1382 99.1326 60.1382C99.2066 60.1382 99.3544 60.2121 99.4284 60.286C99.4284 60.286 99.4284 60.286 99.5023 60.286C99.7981 60.4337 100.02 60.5815 100.168 60.7292C100.833 61.3203 100.759 63.7582 100.611 65.0142Z" fill="#37474F"/>
<path d="M70.7449 59.8428L61.2812 66.0485C62.1685 66.1963 63.2036 66.5657 64.0168 67.3045L71.2625 62.3546L70.7449 59.8428Z" fill="#37474F"/>
<path d="M93.8823 71.5155L88.1154 74.3967L86.6367 65.2358C86.7107 64.3493 87.2282 63.6105 87.5239 63.4628L93.8823 71.5155Z" fill="#F0997A"/>
<path opacity="0.8" d="M136.693 145.689C136.693 145.615 136.693 145.541 136.693 145.467C136.693 145.467 136.693 145.467 136.693 145.394C136.693 145.32 136.693 145.246 136.619 145.172C136.619 145.098 136.545 144.95 136.471 144.876C136.471 144.803 136.397 144.803 136.397 144.729C136.397 144.729 136.397 144.655 136.323 144.655C136.249 144.581 136.249 144.581 136.175 144.507C136.101 144.433 136.028 144.433 136.028 144.433C135.658 144.285 135.14 144.285 134.623 144.581L27.3433 206.343C26.1604 207.008 25.1992 208.042 25.1992 211.071V214.322C25.1992 215.43 26.3822 216.169 27.4173 215.578L134.623 153.89C135.806 153.225 136.767 151.525 136.767 150.196V145.911C136.767 145.837 136.767 145.763 136.693 145.689Z" fill="#455A64"/>
<path opacity="0.9" d="M25.9362 215.578L25.8622 215.504L23.6442 214.174C23.0527 213.805 22.6091 213.214 22.5352 212.549C22.5352 212.475 22.5352 212.327 22.5352 212.253V208.486C22.5352 207.747 22.8309 206.86 23.2745 206.195L25.9362 207.747C25.4925 208.486 25.2707 209.298 25.2707 210.85V214.322C25.2707 214.544 25.3447 214.691 25.3447 214.839C25.4925 215.282 25.7883 215.504 25.9362 215.578Z" fill="#263238"/>
<path opacity="0.6" d="M136.028 144.507C135.658 144.285 135.141 144.359 134.623 144.655L27.3438 206.343C27.122 206.491 26.9741 206.639 26.7523 206.786C26.6044 206.86 26.5305 207.008 26.3826 207.156C26.2347 207.304 26.0129 207.525 25.939 207.747L23.2773 206.195C23.4252 205.974 23.5731 205.752 23.721 205.604C23.7949 205.531 23.8688 205.457 23.8688 205.457C23.9428 205.383 24.0167 205.309 24.0167 205.309C24.0906 205.235 24.1646 205.235 24.1646 205.161C24.3124 205.087 24.3864 204.939 24.5342 204.866L131.814 143.177C132.405 142.808 132.997 142.808 133.366 143.03C133.81 143.251 135.584 144.285 136.028 144.507Z" fill="#455A64"/>
<path d="M33.2539 208.855V206.269C33.2539 206.047 33.4018 205.9 33.4757 205.9H35.7677C35.9156 205.9 35.9156 206.195 35.7677 206.417L33.4757 209.076C33.4018 209.15 33.2539 209.076 33.2539 208.855Z" fill="white"/>
<path d="M38.6523 205.752V203.166C38.6523 202.945 38.8002 202.797 38.8742 202.797H41.1661C41.314 202.797 41.314 203.092 41.1661 203.314L38.8742 205.974C38.7263 206.048 38.6523 205.974 38.6523 205.752Z" fill="white"/>
<path d="M41.4604 204.422C41.3864 204.496 41.3125 204.422 41.3125 204.275V201.615C41.3125 201.467 41.3864 201.319 41.4604 201.246C41.5343 201.172 41.6082 201.246 41.6082 201.393V204.053C41.6822 204.201 41.5343 204.348 41.4604 204.422Z" fill="white"/>
<path d="M30.5192 210.48V207.894C30.5192 207.673 30.3713 207.673 30.2974 207.747L28.0054 210.406C27.8576 210.554 27.8576 210.923 28.0054 210.923H30.2974C30.4453 210.85 30.5192 210.628 30.5192 210.48Z" fill="white"/>
<path d="M27.712 212.327C27.786 212.253 27.8599 212.106 27.8599 211.958V209.298C27.8599 209.15 27.786 209.077 27.712 209.15C27.6381 209.224 27.5642 209.372 27.5642 209.52V212.179C27.4902 212.327 27.5642 212.401 27.712 212.327Z" fill="white"/>
<path d="M131.511 150.565C131.363 150.565 131.289 150.491 131.289 150.344V149.161C131.289 149.088 131.363 149.014 131.363 149.014L132.324 148.423C132.398 148.349 132.546 148.423 132.62 148.497C132.694 148.57 132.62 148.718 132.546 148.792L131.659 149.309V150.417C131.733 150.491 131.659 150.565 131.511 150.565Z" fill="white"/>
<path d="M134.182 149.087C134.034 149.087 133.961 149.014 133.961 148.866V148.053L133.295 148.423C133.221 148.496 133.073 148.423 132.999 148.349C132.925 148.275 132.999 148.127 133.073 148.053L134.034 147.462C134.108 147.462 134.182 147.462 134.256 147.462C134.33 147.462 134.33 147.536 134.33 147.61V148.792C134.33 149.014 134.256 149.087 134.182 149.087Z" fill="white"/>
<path d="M133.218 151.895C133.144 151.895 133.07 151.895 133.07 151.821C132.996 151.747 133.07 151.599 133.144 151.525L134.031 151.008V149.974C134.031 149.826 134.105 149.752 134.253 149.752C134.401 149.752 134.474 149.826 134.474 149.974V151.156C134.474 151.23 134.401 151.304 134.401 151.304L133.439 151.895C133.291 151.895 133.218 151.895 133.218 151.895Z" fill="white"/>
<path d="M131.519 152.855H131.445C131.371 152.855 131.371 152.782 131.371 152.708V151.452C131.371 151.304 131.445 151.23 131.593 151.23C131.741 151.23 131.815 151.304 131.815 151.452V152.264L132.48 151.895C132.554 151.821 132.702 151.895 132.776 151.969C132.85 152.043 132.776 152.191 132.702 152.264L131.741 152.855C131.593 152.855 131.593 152.855 131.519 152.855Z" fill="white"/>
<path d="M130.037 151.23L129.668 151.378H129.594C129.594 151.304 129.52 151.23 129.52 151.156C129.52 151.156 129.52 151.082 129.52 151.008L129.742 150.491C129.742 150.417 129.742 150.417 129.742 150.417L129.446 150.196C129.446 150.196 129.372 150.196 129.372 150.27L129.076 150.713C129.076 150.787 129.002 150.787 129.002 150.787C128.928 150.787 128.854 150.787 128.781 150.787C128.781 150.787 128.707 150.787 128.707 150.713L128.633 150.196C128.633 150.196 128.633 150.122 128.559 150.196L128.115 150.417L128.041 150.491L127.967 151.008C127.967 151.082 127.967 151.082 127.893 151.156C127.819 151.23 127.745 151.304 127.672 151.378L127.598 151.452L127.302 151.304C127.302 151.304 127.228 151.304 127.228 151.378L126.932 151.895C126.932 151.969 126.858 151.969 126.932 151.969L127.154 152.264C127.154 152.264 127.154 152.338 127.154 152.412C127.154 152.486 127.08 152.634 127.08 152.708C127.08 152.781 127.006 152.781 127.006 152.781L126.636 153.077L126.563 153.151V153.742C126.563 153.816 126.562 153.816 126.636 153.816L127.006 153.668H127.08C127.08 153.742 127.154 153.816 127.154 153.963C127.154 153.963 127.154 154.037 127.154 154.111L126.932 154.628C126.932 154.702 126.932 154.702 126.932 154.702L127.228 154.924C127.228 154.924 127.302 154.924 127.302 154.85L127.598 154.407C127.598 154.333 127.672 154.333 127.672 154.333C127.745 154.333 127.819 154.333 127.893 154.333C127.893 154.333 127.967 154.333 127.967 154.407L128.041 154.924C128.041 154.924 128.041 154.998 128.115 154.924L128.559 154.702L128.633 154.628L128.707 154.111C128.707 154.111 128.707 154.037 128.781 154.037C128.854 153.963 128.928 153.89 129.002 153.816C129.002 153.742 129.076 153.742 129.076 153.742L129.372 153.89C129.372 153.89 129.446 153.89 129.446 153.816L129.742 153.299C129.742 153.225 129.742 153.225 129.742 153.151L129.52 152.855V152.781C129.594 152.708 129.594 152.56 129.594 152.486C129.594 152.412 129.668 152.412 129.668 152.338L130.037 152.043L130.111 151.969L130.037 151.23C130.111 151.23 130.111 151.23 130.037 151.23ZM128.411 153.52C128.041 153.742 127.672 153.52 127.672 153.003C127.672 152.486 127.967 151.895 128.411 151.599C128.781 151.378 129.15 151.599 129.15 152.117C129.15 152.634 128.854 153.299 128.411 153.52Z" fill="white"/>
<path d="M65.7866 189.277V187.948L45.4545 199.694C45.0848 199.916 44.7891 200.359 44.7891 200.728C44.7891 201.098 45.0848 201.172 45.5284 200.95L65.7866 189.277Z" fill="#89ADFA"/>
<path opacity="0.5" d="M123.384 154.776C123.31 154.776 123.236 154.85 123.089 154.85L65.7891 187.947V189.277L123.163 156.18C123.384 156.032 123.532 155.884 123.68 155.737C123.754 155.663 123.828 155.515 123.828 155.441C123.828 155.367 123.902 155.219 123.902 155.146C123.828 154.85 123.606 154.702 123.384 154.776Z" fill="white"/>
<path d="M66.8241 188.095C66.8241 188.834 66.3805 189.721 65.789 190.016C65.1975 190.312 64.7539 190.016 64.7539 189.277C64.7539 188.539 65.1975 187.652 65.789 187.356C66.3065 186.987 66.8241 187.356 66.8241 188.095Z" fill="#89ADFA"/>
<path opacity="0.5" d="M66.8241 188.095C66.8241 188.834 66.3805 189.721 65.789 190.016C65.1975 190.312 64.7539 190.016 64.7539 189.277C64.7539 188.539 65.1975 187.652 65.789 187.356C66.3065 186.987 66.8241 187.356 66.8241 188.095Z" fill="white"/>
<path d="M66.4519 188.317C66.4519 188.834 66.1562 189.351 65.7865 189.573C65.4168 189.795 65.1211 189.573 65.1211 189.056C65.1211 188.539 65.4168 188.021 65.7865 187.8C66.1562 187.578 66.4519 187.8 66.4519 188.317Z" fill="#89ADFA"/>
<path d="M149.338 57.8779L159.337 51.8109C159.337 51.8109 165.694 53.7309 176.355 52.9629C192.049 51.8877 201.254 44.208 198.936 33.3795C196.552 22.3207 186.023 17.9432 167.283 18.788C143.842 19.8632 138.147 38.2946 152.119 49.1998L149.338 57.8779Z" fill="#89ADFA"/>
<path d="M149.338 57.8779L159.337 51.8109C159.337 51.8109 165.694 53.7309 176.355 52.9629C192.049 51.8877 201.254 44.208 198.936 33.3795C196.552 22.3207 186.023 17.9432 167.283 18.788C143.842 19.8632 138.147 38.2946 152.119 49.1998L149.338 57.8779Z" fill="#F37E60"/>
<path d="M158.866 39.1393C160.479 39.1393 161.786 37.8328 161.786 36.221C161.786 34.6093 160.479 33.3027 158.866 33.3027C157.253 33.3027 155.945 34.6093 155.945 36.221C155.945 37.8328 157.253 39.1393 158.866 39.1393Z" fill="white"/>
<path d="M172.549 39.1393C174.162 39.1393 175.47 37.8328 175.47 36.221C175.47 34.6093 174.162 33.3027 172.549 33.3027C170.936 33.3027 169.629 34.6093 169.629 36.221C169.629 37.8328 170.936 39.1393 172.549 39.1393Z" fill="white"/>
<path d="M186.151 39.1393C187.764 39.1393 189.072 37.8328 189.072 36.221C189.072 34.6093 187.764 33.3027 186.151 33.3027C184.538 33.3027 183.23 34.6093 183.23 36.221C183.23 37.8328 184.538 39.1393 186.151 39.1393Z" fill="white"/>
</g>
<defs>
<clipPath id="clip0_128_23880">
<rect width="313" height="228" fill="white"/>
</clipPath>
</defs>
</svg>
