<svg width="548" height="392" viewBox="0 0 548 392" fill="none" xmlns="http://www.w3.org/2000/svg">
<mask id="mask0_2065_202" style="mask-type:alpha" maskUnits="userSpaceOnUse" x="0" y="0" width="548" height="392">
<rect width="548" height="392" fill="#D9D9D9"/>
</mask>
<g mask="url(#mask0_2065_202)">
<path d="M301.958 8.20924C304.386 7.95457 306.839 7.6503 309.284 7.70881C314.068 7.82472 321.056 9.38507 325.488 11.2296C334.976 4.39141 345.475 -1.58027 357.618 0.448739C364.537 1.60451 371.58 5.72829 375.643 11.4915C376.762 13.0775 377.693 15.0502 379 16.4651C381.584 19.2649 385.314 21.1791 388.192 23.7118C396.909 31.3804 402.415 40.748 406.941 51.3155C409.202 58.8163 410.681 66.2575 411.023 74.0982C411.177 77.6062 411.138 81.1644 410.978 84.6713C410.744 89.7792 409.72 94.8804 411.608 99.7966C415.995 111.221 427.362 117.103 436.242 124.582C440.835 128.45 444.85 132.778 447.882 137.99C450.217 142.003 451.797 146.362 452.103 151.018C452.459 156.994 451.124 162.951 448.25 168.203C446.014 172.366 443.124 176.148 439.416 179.096C439.084 178.547 438.894 178.02 438.672 177.423C443.826 174.384 447.91 166.627 449.418 160.998C453.276 146.608 445.754 134.615 435.012 125.579C428.882 120.422 422.079 116.23 416.543 110.357C413.8 107.446 411.897 104.051 409.927 100.603C410.811 104.392 411.896 107.912 414.033 111.204C417.332 116.286 422.173 119.703 426.892 123.342C435.747 130.171 442.5 138.967 444.349 150.219C446.008 160.317 444.242 168.523 438.365 176.801C436.933 175.602 433.233 169.156 431.505 166.937C432.429 163.906 433.439 160.813 433.913 157.674C435.85 144.845 430.116 136.024 420.641 128.107C417.056 125.11 412.781 122.071 410.209 118.133C408.682 115.797 408.04 113.218 407.117 110.623L406.675 110.274L406.886 110.295L406.552 110.43C406.32 111.509 406.728 112.735 406.99 113.796C409.131 122.465 418.497 126.964 424.454 132.865C427.217 135.603 429.467 138.697 431.048 142.26C434.565 150.189 433.631 157.875 430.558 165.777C428.346 163.17 425.978 160.158 423.017 158.379C415.145 153.725 404.413 151.968 395.419 153.56C395.2 152.071 395.519 150.823 394.846 149.404C395.415 143.164 394.742 137.648 392.817 131.69C393.057 130.082 391.938 127.856 391.125 126.496C389.069 123.058 385.698 120.075 381.763 119.117C386.858 116.756 391.597 113.789 394.237 108.633C396.105 104.985 396.62 100.693 395.274 96.7773C394.559 94.6982 393.237 92.619 391.183 91.6577C387.148 89.7686 381.814 93.1562 378.041 94.4825C366.413 98.5695 354.017 93.154 345.21 85.4927C343.124 83.6782 340.301 79.9334 337.99 78.8445C337.828 77.1744 335.105 74.6143 333.97 73.2991C331.65 73.3849 329.357 73.4529 327.036 73.3587C329.246 73.016 331.532 73.1035 333.766 73.0952C324.773 59.3552 321.422 51.2603 316.649 35.7588C304.356 41.4123 288.493 51.1149 280.398 61.9771C277.99 65.2082 276.277 68.8076 274.876 72.573C269.798 86.216 268.413 102.778 269.615 117.2C268.875 119.334 266.504 121.418 264.95 123.041C259.355 128.886 252.853 133.683 246.146 138.167C241.598 141.207 223.012 150.797 220.903 153.966C215.946 155.299 210.865 157.635 206.516 160.375C205.912 150.97 208.118 145.173 214.385 137.989C229.181 121.027 250.221 118.106 262.013 95.966C263.591 93.0035 265.198 89.9335 264.968 86.4645C264.727 82.8245 262.136 78.9988 260.787 75.6552C268.952 58.0863 284.096 36.2531 302.986 29.4573C305.456 28.5684 308.013 28.0686 310.58 27.5492C302.715 26.4391 294.661 32.2157 288.677 36.7446C277.757 45.0089 268.611 57.2799 262.551 69.532C261.41 71.8391 260.638 74.2755 259.635 76.6344C261.64 80.844 265.479 85.0625 263.854 89.9118C263.142 92.0344 261.989 94.0601 260.915 96.02C257.82 101.67 253.34 106.832 248.431 110.987C234.423 122.846 209.902 132.207 205.748 151.784C205.092 154.872 205.294 157.921 205.43 161.049L201.239 163.625C199.355 156.491 199.317 147.422 200.582 140.17C203.161 125.385 213.068 114.885 226.399 108.673C232.763 105.708 239.473 103.472 245.255 99.3853C253.941 93.2454 256.331 85.7189 258.028 75.6642C256.553 72.7524 255.247 69.8814 254.45 66.7044C251.921 56.629 254.769 45.9507 260.061 37.2367C267.142 25.5753 279.083 16.0567 291.751 11.18C295.078 9.89942 298.505 9.06688 301.958 8.20924ZM351.851 1.62291C344.349 2.16178 337.149 4.79375 331.068 9.21901C340.771 6.33571 349.89 6.13119 359.758 8.52075C365.719 10.1012 370.977 12.4344 376.438 15.2559C372.009 8.60156 365.946 3.73327 357.954 2.16902C355.93 1.77281 353.908 1.6842 351.851 1.62291ZM296.589 11.3082C282.539 15.2949 268.067 26.3772 260.952 39.1827C256.262 47.6225 253.503 57.7257 256.253 67.2539C256.617 68.5178 257.046 69.7883 257.525 71.0143L258.149 72.0481L258.474 72.0274C260.286 51.6148 266.709 33.4417 282.905 19.9592C285.071 18.1425 287.373 16.4941 289.79 15.0268C291.103 14.2433 296.143 12.2712 296.813 11.3494L296.589 11.3082ZM342.181 18.0723C342.316 21.9514 343.9 26.2307 344.98 29.9471C349.106 44.1457 354.73 61.5764 365.835 71.8485C370.124 75.8157 375.374 77.6475 381.074 78.3725C383.812 78.7208 386.648 78.9754 389.272 79.8838C391.775 80.7503 394.929 83.6141 396.914 84.0928C394.827 80.7637 390.513 79.0808 386.839 78.217C383.696 77.4775 380.445 77.2763 377.306 76.543C369.452 74.7084 363.741 69.0394 359.566 62.3984C352.737 51.5345 348.1 38.0854 344.966 25.689C344.529 23.9593 343.86 18.8385 342.181 18.0723Z" fill="#564E4C"/>
<path d="M257.526 71.0186C257.047 69.7926 256.618 68.5221 256.254 67.2582C253.504 57.73 256.263 47.6268 260.953 39.187C268.068 26.3815 282.54 15.2992 296.591 11.3125L296.815 11.3537C296.144 12.2755 291.104 14.2476 289.791 15.0311C287.374 16.4984 285.072 18.1468 282.906 19.9635C266.71 33.446 260.287 51.6191 258.475 72.0317L258.15 72.0524L257.526 71.0186Z" fill="#ECECEC"/>
<path d="M396.917 84.0947C394.932 83.6161 391.778 80.7523 389.275 79.8857C386.652 78.9774 383.816 78.7227 381.078 78.3744C375.377 77.6494 370.127 75.8177 365.838 71.8505C354.733 61.5784 349.11 44.1476 344.984 29.949C343.904 26.2326 342.319 21.9534 342.184 18.0742C343.863 18.8405 344.533 23.9612 344.97 25.6909C348.104 38.0873 352.74 51.5364 359.57 62.4003C363.744 69.0413 369.455 74.7104 377.309 76.5449C380.449 77.2783 383.699 77.4794 386.842 78.2189C390.516 79.0827 394.83 80.7656 396.917 84.0947Z" fill="#453734"/>
<path d="M206.515 160.379L205.429 161.052C205.293 157.925 205.091 154.875 205.747 151.788C209.901 132.211 234.422 122.85 248.43 110.991C253.339 106.835 257.819 101.674 260.914 96.0237C261.988 94.0638 263.141 92.0381 263.853 89.9155C265.478 85.0661 261.639 80.8476 259.634 76.638C260.637 74.2791 261.409 71.8428 262.55 69.5357C268.61 57.2836 277.756 45.0126 288.676 36.7483C294.66 32.2194 302.714 26.4428 310.579 27.5529C308.012 28.0722 305.455 28.5721 302.985 29.4609C284.094 36.2568 268.951 58.09 260.786 75.6589C262.135 79.0025 264.726 82.8281 264.967 86.4682C265.197 89.9372 263.59 93.0072 262.012 95.9696C250.22 118.109 229.18 121.031 214.384 137.993C208.117 145.177 205.911 150.974 206.515 160.379Z" fill="#453734"/>
<path d="M327.038 73.3616C325.463 73.4435 323.21 73.4168 322.056 74.6456C321.641 75.088 321.45 75.5233 321.288 76.0961C321.439 76.8195 321.552 77.1739 322.182 77.6164C324.662 79.3589 334.219 77.9329 337.992 78.8474C340.303 79.9363 343.126 83.6811 345.212 85.4956C354.02 93.1569 366.415 98.5724 378.043 94.4854C381.817 93.1591 387.15 89.7715 391.185 91.6606C393.239 92.6219 394.561 94.701 395.276 96.7802C396.623 100.696 396.107 104.988 394.239 108.635C391.599 113.792 386.86 116.759 381.765 119.12L379.334 120.413C378.986 120.171 378.696 119.94 378.379 119.661C376.99 118.438 373.502 118.334 371.747 118.543C369.836 118.769 368.172 119.381 366.492 120.29C362.282 118.324 357.987 118.521 353.682 120.113C349.275 121.743 345.167 124.91 343.188 129.261C341.536 132.896 341.836 136.589 342.316 140.413C339.605 142.031 336.87 143.548 333.994 144.858C324.789 149.051 309.56 154.048 306.706 165.065C305.823 168.476 305.947 172.211 306.256 175.69C307.272 187.114 309.58 199.17 311.244 210.592L315.644 240.366C316.709 247.929 317.596 255.536 318.776 263.081C318.93 264.064 318.991 265.432 319.527 266.279C319.58 266.363 319.651 266.433 319.712 266.51L320.192 266.463C320.558 265.868 320.589 265.359 320.569 264.677C320.494 262.154 319.963 259.531 319.628 257.02C318.949 251.898 318.235 246.782 317.484 241.67C315.325 226.458 313.077 211.259 310.743 196.073C309.593 188.358 306.944 176.04 307.723 168.727C307.985 166.275 308.616 163.647 309.954 161.552C317.904 149.105 340.698 147.619 350.748 135.516C351.829 134.215 353.13 132.305 352.738 130.581L352.222 130.023L351.584 130.011C350.474 131.247 350.895 133.189 349.634 134.575C349.52 134.7 349.41 134.829 349.298 134.955C347.691 136.76 345.711 138.201 343.703 139.525C343.459 134.393 343.302 130.326 347.005 126.262C350.174 122.784 355.307 120.401 360.002 120.176C362.07 120.077 364.054 120.517 365.621 121.934C368.932 124.927 369.247 131.635 369.364 135.836C369.394 137.359 369.408 138.882 369.404 140.405C370.096 140.625 370.125 140.67 370.795 140.414C372.262 134.855 370.481 126.408 367.696 121.426C367.649 121.342 367.6 121.26 367.551 121.177C370.206 120.208 373.533 119.245 376.243 120.524C378.062 121.382 379.056 123.174 379.625 125.025C381.028 129.589 380.947 135.05 380.665 139.769C380.575 141.285 380.112 143.566 380.443 145.007L380.864 145.233C381.469 144.875 381.793 144.483 381.997 143.81C382.5 142.145 382.37 140.153 382.378 138.42C382.407 132.296 382.216 126.687 379.739 120.985C381.55 121.279 383.387 121.5 385.118 122.13C385.198 122.217 385.279 122.304 385.358 122.393C391.009 128.727 389.991 140.192 389.587 148.055C389.537 149.009 389.232 150.532 390.278 150.836C390.922 150.375 391.077 150.01 391.229 149.226C391.507 147.794 391.424 146.165 391.448 144.703C391.564 137.767 390.692 131.494 388.959 124.794C390.217 127.109 391.503 129.409 392.819 131.693C394.745 137.651 395.417 143.167 394.848 149.407C394.203 152.768 391.362 164.829 392.127 167.419C392.536 167.791 392.507 167.908 393.085 167.928C391.9 172.779 388.395 175.693 384.279 178.163C377.718 182.103 370.739 184.69 363.976 188.126L370.886 206.768C372.444 211.044 373.69 215.864 375.978 219.796C377.073 222.885 378.028 226.427 379.533 229.318L380.337 231.674C384.319 242.549 388.407 253.384 392.601 264.179C393.955 267.726 396.01 271.429 396.939 275.096C397.778 279.401 400.166 283.981 401.787 288.097L411.819 313.437C413.269 317.001 414.172 321.212 416.082 324.526L416.74 324.69L417.152 324.356C417.33 322.373 400.954 280.582 398.617 275.43C412.961 280.074 426.016 284.039 438.801 292.368C437.717 299.762 435.779 307.177 433.698 314.348C432.832 317.33 431.106 320.791 430.767 323.845C429.939 325.435 429.15 327.69 428.776 329.459C422.442 347.05 413.334 364.744 395.609 373.118C391.906 374.867 383.508 376.029 381.745 377.088C379.75 377.31 377.541 377.088 375.525 377.089C372.219 377.09 368.906 377.198 365.602 377.094C363.961 376.112 361.615 375.967 359.769 375.405C355.478 374.099 351.346 371.831 347.744 369.182C341.216 364.422 336.111 357.971 332.98 350.522C329.017 341.034 328.43 329.907 326.905 319.793L319.446 268.791C317.361 269.056 315.196 268.948 313.129 268.592C304.495 267.104 297.415 261.168 292.489 254.176C289.448 249.859 287.299 245.011 285.598 240.03C279.197 221.287 280.909 202.027 281.928 182.624C282.381 173.981 282.299 164.994 283.748 156.46C287.14 159.922 290.886 162.766 295.591 164.164C298.313 164.973 302.753 165.771 305.335 164.389C305.694 163.81 305.694 163.842 305.557 163.175C303.752 163.262 301.908 163.413 300.104 163.375C294.51 163.259 288.746 159.452 284.962 155.615C283.587 154.034 282.398 152.228 280.804 150.862C274.359 141.172 271.557 130.89 269.817 119.531L269.617 117.203C268.416 102.781 269.8 86.2189 274.878 72.5759C276.279 68.8104 277.992 65.211 280.4 61.98C288.495 51.1178 304.358 41.4152 316.651 35.7617C321.424 51.2632 324.775 59.3581 333.768 73.098C331.534 73.1064 329.248 73.0189 327.038 73.3616ZM291.347 79.9903C292.062 80.4534 292.979 81.0017 293.865 80.897C294.31 80.8446 294.194 80.8162 294.502 80.4155L294.294 79.7719C292.583 78.0338 290.276 77.6659 287.926 77.5751C285.925 77.4977 282.986 77.5066 281.509 79.0513C281.164 79.4113 281.268 79.3049 281.325 79.8348C281.426 79.8961 281.522 79.9664 281.628 80.0193C282.945 80.6758 284.606 79.7869 285.881 79.3272L286.12 79.7529C284.7 80.6083 283.672 81.6788 283.279 83.34C282.875 85.0475 283.252 87.5937 284.274 89.0453C284.829 89.8355 285.638 90.3839 286.601 90.5243C287.842 90.7043 289.048 90.2513 289.996 89.4622C291.376 88.312 292.326 86.3961 292.405 84.6011C292.464 83.2453 292.108 81.3824 291.12 80.3743C291.068 80.3213 291.007 80.2784 290.951 80.2305L291.347 79.9903ZM336.223 87.5898C336.769 88.1766 337.207 88.7901 338.023 88.9779C338.662 88.6787 338.727 88.619 339.106 88.0222L338.912 87.2899C337.466 85.7497 335.184 85.038 333.152 84.6747C331.348 84.3526 329.209 84.1693 327.629 85.2504C327.244 85.9871 327.276 85.9603 327.498 86.7667L328.74 87.2047C328.05 89.8311 326.482 92.5511 327.996 95.2806C328.6 96.3712 329.761 97.0416 330.946 97.3269C331.967 97.5721 332.997 97.5375 333.893 96.9323C335.549 95.8128 336.171 93.3848 336.446 91.5335C336.651 90.1582 336.467 88.9389 336.223 87.5898ZM283.552 65.6947C281.712 65.9282 279.209 66.1066 277.92 67.6129C277.508 68.0943 277.396 68.553 277.322 69.1637C277.585 69.8765 277.605 70.0821 278.342 70.4215C279.854 71.1186 283.594 70.3992 285.365 70.4727C289.453 70.6433 293.688 71.9239 297.266 73.8838C298.392 74.4762 299.113 74.8852 300.407 74.5085C300.978 74.3424 301.344 74.11 301.79 73.7121C302.042 73.0139 302.144 72.6801 301.833 71.9729C300.682 69.3566 295.055 67.6831 292.518 66.9101C289.603 66.0219 286.603 65.5393 283.552 65.6947ZM306.457 77.9763C306.364 80.0728 307.113 82.2868 307.435 84.3676C308.588 91.8272 305.85 97.0276 300.441 101.961C298.507 103.725 295.664 105.774 295.471 108.625C295.381 109.954 295.9 111.091 296.774 112.067C298.441 113.928 301.279 115.183 303.769 115.259C304.168 115.271 304.554 115.227 304.95 115.184C304.864 114.728 304.942 114.341 304.519 114.079C302.298 112.704 298.181 112.989 297.258 109.917C296.939 108.857 297.141 107.815 297.729 106.892C299.014 104.877 301.373 103.283 303.104 101.63C309.067 95.9365 310.054 89.2705 308.593 81.4158C308.378 80.2544 308.16 78.8373 307.128 78.1246L306.457 77.9763ZM384.975 96.2608C381.884 97.8362 379.2 100.163 378.118 103.593C377.691 104.945 377.54 106.43 378.252 107.71C378.903 108.878 380.533 109.496 381.776 109.705C382.156 109.77 382.536 109.78 382.92 109.794C385.338 109.425 386.989 108.654 388.481 106.656C389.822 104.859 390.509 102.419 390.188 100.188C389.999 98.8783 389.409 97.7281 388.29 96.983C387.195 96.2536 386.257 96.2006 384.975 96.2608ZM293.801 122.85L293.489 123.975C294.601 125.574 303.126 126.836 305.326 127.228C309.869 128.04 314.47 128.427 319.003 129.221C319.062 128.453 319.232 128.172 318.738 127.556C310.468 126.589 301.718 125.541 293.801 122.85Z" fill="#ECB7A6"/>
<path d="M406.944 51.3203C412.368 53.5561 417.261 57.0713 422.124 60.3135C437.149 70.3315 452.001 81.4501 464.875 94.1708C472.951 85.9595 480.959 81.4216 492.746 81.367C502.393 81.3219 511.218 84.8254 518.034 91.6871C525.036 98.7365 528.816 107.803 528.718 117.74C528.623 127.535 524.885 136.906 517.802 143.74C514.712 146.721 511.096 148.973 507.273 150.886C509.457 154.697 512.005 158.282 514.248 162.058C517.435 167.423 520.259 173.089 522.918 178.73C543.919 222.4 548.565 272.153 536.005 318.955C531.789 334.507 525.759 349.509 518.04 363.653C515.545 368.19 512.612 372.472 510.083 376.984C517.27 377.06 524.457 377.063 531.644 376.995C534.383 376.986 538.315 376.498 540.931 377.15C536.45 377.927 529.793 377.339 525.108 377.338L488.203 377.297L418.818 377.268L397.853 377.27C393.677 377.272 389.441 377.418 385.274 377.153C390.342 376.483 397.271 377 402.521 377.002L438.501 377.019C436.803 366.619 434.938 356.246 432.906 345.905C432.031 341.35 431.436 336.347 430.004 331.949C429.708 331.04 429.29 330.263 428.777 329.461C429.151 327.692 429.94 325.437 430.768 323.847C436.501 323.58 442.79 323.417 447.51 319.675C450.562 317.257 451.56 314.025 451.981 310.303C453.71 302.021 453.897 293.046 454.195 284.623C455.356 251.776 452.945 209.243 439.419 179.101C443.127 176.153 446.017 172.37 448.253 168.208C451.127 162.956 452.462 156.999 452.106 151.023C451.8 146.367 450.22 142.008 447.885 137.995C444.853 132.783 440.838 128.454 436.245 124.586C427.365 117.108 415.998 111.226 411.611 99.8014C409.723 94.8852 410.747 89.784 410.981 84.6761C411.142 81.1692 411.18 77.6111 411.026 74.1031C410.684 66.2623 409.205 58.8211 406.944 51.3203ZM488.736 83.3933C469.875 85.5476 456.29 102.524 458.324 121.399C460.357 140.273 477.246 153.967 496.134 152.054C515.193 150.124 529.038 133.048 526.986 114.001C524.934 94.9549 507.769 81.2194 488.736 83.3933ZM473.866 235.963C472.583 237.817 471.682 239.69 470.758 241.738C469.072 241.66 466.479 241.231 465.126 242.537C464.635 243.012 464.345 243.486 464.412 244.198C464.552 245.694 466.209 246.902 467.378 247.586C467.89 247.881 468.408 248.163 468.935 248.431C467.976 250.542 466.843 253.241 467.352 255.585C467.751 256.057 467.889 256.247 468.581 256.206C470.907 256.068 473.537 252.711 474.752 252.699C476.103 253.944 478.151 256.123 480.131 255.99C480.566 255.96 480.743 255.69 481.061 255.424C481.678 253.832 481.343 252.555 480.853 250.982L480.048 248.345C481.514 247.571 483.784 246.645 484.324 244.908C484.565 244.135 484.438 243.936 484.145 243.222C482.617 241.885 481.111 242.094 479.185 242.225C478.892 242.245 478.598 242.267 478.304 242.291C477.851 240.322 477.484 237.571 475.611 236.401C475.065 236.06 474.487 236.031 473.866 235.963Z" fill="#ECECEC"/>
<path d="M297.265 73.882C293.686 71.922 289.451 70.6414 285.363 70.4709C283.592 70.3974 279.852 71.1168 278.34 70.4196C277.604 70.0803 277.583 69.8746 277.321 69.1619C277.395 68.5511 277.506 68.0925 277.918 67.611C279.208 66.1047 281.71 65.9264 283.55 65.6929C286.601 65.5374 289.602 66.02 292.517 66.9083C295.053 67.6812 300.681 69.3547 301.831 71.9711C302.142 72.6783 302.04 73.012 301.789 73.7103C301.342 74.1082 300.976 74.3406 300.405 74.5066C299.111 74.8834 298.39 74.4743 297.265 73.882Z" fill="#5D5452"/>
<path d="M337.99 78.8462C334.217 77.9317 324.66 79.3577 322.179 77.6151C321.55 77.1727 321.437 76.8183 321.285 76.0949C321.447 75.5221 321.639 75.0868 322.054 74.6444C323.207 73.4156 325.461 73.4423 327.035 73.3604C329.356 73.4546 331.65 73.3866 333.97 73.3008C335.105 74.6159 337.827 77.176 337.99 78.8462Z" fill="#5D5452"/>
<path d="M285.878 79.3239C284.604 79.7837 282.942 80.6725 281.626 80.016C281.52 79.9631 281.424 79.8929 281.323 79.8316C281.265 79.3016 281.161 79.4081 281.506 79.0481C282.984 77.5033 285.922 77.4944 287.924 77.5719C290.274 77.6627 292.58 78.0305 294.292 79.7686L294.5 80.4123C294.192 80.8129 294.308 80.8413 293.863 80.8937C292.976 80.9985 292.06 80.4501 291.344 79.9871C290.029 79.1333 287.405 79.0208 285.878 79.3239Z" fill="#5D5452"/>
<path d="M304.947 115.185C304.551 115.227 304.165 115.271 303.766 115.259C301.276 115.183 298.437 113.929 296.771 112.067C295.897 111.092 295.377 109.954 295.467 108.625C295.661 105.774 298.504 103.725 300.437 101.961C305.847 97.0278 308.585 91.8274 307.432 84.3679C307.11 82.287 306.361 80.073 306.453 77.9766L307.124 78.1248C308.157 78.8375 308.374 80.2547 308.59 81.416C310.051 89.2707 309.064 95.9367 303.101 101.63C301.369 103.283 299.011 104.877 297.726 106.892C297.138 107.815 296.936 108.858 297.255 109.917C298.177 112.99 302.295 112.704 304.516 114.08C304.939 114.342 304.86 114.728 304.947 115.185Z" fill="#CE8973"/>
<path d="M285.879 79.3245C287.406 79.0214 290.03 79.134 291.345 79.9877L290.949 80.2279C289.261 79.6935 287.871 79.7063 286.119 79.7503L285.879 79.3245Z" fill="#683935"/>
<path d="M290.948 80.2311C291.005 80.279 291.066 80.322 291.118 80.3749C292.105 81.383 292.461 83.2459 292.402 84.6018C292.324 86.3967 291.373 88.3126 289.993 89.4628C289.045 90.2519 287.84 90.7049 286.599 90.5249C285.635 90.3845 284.827 89.8362 284.271 89.046C283.25 87.5943 282.873 85.0481 283.276 83.3407C283.669 81.6795 284.697 80.609 286.118 79.7535C287.871 79.7095 289.26 79.6967 290.948 80.2311Z" fill="#302B28"/>
<path d="M327.496 86.7668C327.274 85.9605 327.242 85.9872 327.627 85.2505C329.207 84.1694 331.345 84.3528 333.15 84.6749C335.182 85.0382 337.464 85.7498 338.91 87.2901L339.104 88.0224C338.725 88.6192 338.66 88.6788 338.02 88.9781C337.205 88.7903 336.766 88.1767 336.22 87.5899C335.826 87.0822 335.143 86.5762 334.663 86.1321C334.561 86.1159 334.459 86.0987 334.356 86.0836L333.845 86.0123C332.203 85.7665 330.941 85.7615 329.373 86.3834C328.699 86.6509 328.219 86.7262 327.496 86.7668Z" fill="#5D5452"/>
<path d="M327.499 86.7648C328.223 86.7241 328.703 86.6489 329.377 86.3814C330.944 85.7595 332.207 85.7645 333.848 86.0102L334.36 86.0816C334.462 86.0966 334.564 86.1139 334.666 86.1301C335.146 86.5742 335.83 87.0802 336.224 87.5879C336.469 88.937 336.652 90.1563 336.447 91.5316C336.172 93.3829 335.551 95.8109 333.894 96.9304C332.998 97.5356 331.968 97.5702 330.947 97.325C329.762 97.0397 328.602 96.3693 327.997 95.2787C326.483 92.5492 328.051 89.8292 328.741 87.2028L327.499 86.7648Z" fill="#302B28"/>
<path d="M382.92 109.794C382.536 109.779 382.156 109.769 381.776 109.705C380.534 109.496 378.903 108.877 378.253 107.709C377.54 106.43 377.691 104.944 378.118 103.592C379.2 100.163 381.884 97.8358 384.976 96.2604C386.258 96.2002 387.195 96.2532 388.29 96.9826C389.409 97.7277 389.999 98.8779 390.188 100.187C390.51 102.418 389.823 104.858 388.481 106.655C386.989 108.653 385.339 109.424 382.92 109.794ZM384.711 97.8977C382.319 99.6062 379.733 102.114 379.271 105.182C379.165 105.883 379.277 106.588 379.741 107.14C380.405 107.931 381.711 108.163 382.697 108.189C382.787 108.191 382.876 108.184 382.967 108.181C384.864 107.794 386.127 107.163 387.235 105.524C388.239 104.04 388.938 101.991 388.475 100.195C388.234 99.2641 387.725 98.6695 386.889 98.1925C386.155 97.7745 385.511 97.8035 384.711 97.8977Z" fill="#CE8973"/>
<path d="M382.967 108.182C382.877 108.184 382.787 108.192 382.697 108.189C381.712 108.163 380.406 107.931 379.742 107.141C379.278 106.589 379.166 105.884 379.271 105.183C379.733 102.115 382.32 99.607 384.711 97.8984C385.512 97.8042 386.156 97.7753 386.889 98.1932C387.726 98.6702 388.234 99.2648 388.475 100.195C388.939 101.992 388.239 104.041 387.235 105.525C386.127 107.164 384.864 107.794 382.967 108.182Z" fill="#ECB7A6"/>
<path d="M438.368 176.803C444.245 168.526 446.01 160.32 444.351 150.222C442.503 138.97 435.75 130.173 426.895 123.344C422.175 119.705 417.334 116.289 414.035 111.207C411.898 107.914 410.813 104.395 409.93 100.605C411.9 104.053 413.802 107.448 416.546 110.359C422.082 116.232 428.885 120.425 435.015 125.582C445.756 134.618 453.278 146.61 449.421 161.001C447.912 166.629 443.829 174.386 438.675 177.425L438.368 176.803Z" fill="#ECECEC"/>
<path d="M430.56 165.78C433.632 157.878 434.566 150.192 431.049 142.263C429.469 138.7 427.218 135.606 424.455 132.868C418.499 126.967 409.133 122.468 406.991 113.799C406.729 112.738 406.322 111.512 406.553 110.433L406.888 110.298L406.677 110.277L407.119 110.626C408.042 113.221 408.684 115.8 410.211 118.136C412.783 122.074 417.058 125.113 420.643 128.11C430.117 136.027 435.851 144.848 433.914 157.677C433.44 160.816 432.431 163.909 431.507 166.94L430.56 165.78Z" fill="#453734"/>
<path d="M269.615 117.199L269.815 119.527C263.212 126.375 256.444 132.378 248.592 137.755C246.11 139.454 223.864 152.578 223.668 152.882L223.768 153.207C222.813 153.551 221.901 153.785 220.903 153.965C223.013 150.796 241.598 141.206 246.146 138.166C252.853 133.683 259.355 128.885 264.95 123.041C266.504 121.417 268.876 119.333 269.615 117.199Z" fill="#453734"/>
<path d="M366.491 120.29C368.171 119.381 369.835 118.769 371.745 118.542C373.5 118.333 376.989 118.438 378.377 119.661C378.695 119.94 378.985 120.171 379.332 120.413L381.764 119.12C385.698 120.078 389.07 123.061 391.125 126.499C391.938 127.859 393.058 130.084 392.818 131.693C391.502 129.409 390.215 127.109 388.958 124.794C390.69 131.494 391.563 137.767 391.447 144.703C391.422 146.164 391.506 147.793 391.228 149.225C391.076 150.01 390.92 150.375 390.277 150.835C389.231 150.532 389.536 149.009 389.585 148.055C389.989 140.192 391.007 128.726 385.356 122.393C385.277 122.304 385.197 122.217 385.116 122.129C383.386 121.5 381.548 121.279 379.738 120.984C382.214 126.687 382.405 132.296 382.376 138.42C382.368 140.153 382.498 142.145 381.995 143.81C381.792 144.483 381.467 144.875 380.863 145.233L380.441 145.007C380.111 143.565 380.573 141.285 380.664 139.769C380.946 135.05 381.027 129.589 379.623 125.024C379.054 123.174 378.06 121.382 376.241 120.524C373.531 119.245 370.204 120.207 367.55 121.177C367.598 121.26 367.648 121.342 367.694 121.426C370.479 126.408 372.26 134.855 370.794 140.413C370.124 140.67 370.095 140.625 369.403 140.405C369.406 138.881 369.393 137.358 369.363 135.835C369.246 131.635 368.931 124.926 365.619 121.933C364.052 120.517 362.068 120.077 360.001 120.176C355.306 120.4 350.173 122.784 347.004 126.262C343.301 130.326 343.458 134.393 343.701 139.525C345.71 138.201 347.689 136.76 349.296 134.955C349.409 134.828 349.518 134.7 349.632 134.574C350.893 133.188 350.473 131.246 351.583 130.011L352.221 130.023L352.737 130.58C353.129 132.305 351.827 134.215 350.747 135.516C340.697 147.619 317.903 149.105 309.952 161.552C308.615 163.646 307.983 166.274 307.722 168.727C306.943 176.04 309.591 188.357 310.741 196.073C313.076 211.259 315.323 226.458 317.483 241.67C318.233 246.782 318.948 251.898 319.627 257.02C319.962 259.531 320.492 262.154 320.568 264.677C320.588 265.359 320.557 265.868 320.19 266.463L319.711 266.51C319.649 266.433 319.578 266.362 319.525 266.279C318.99 265.432 318.929 264.064 318.775 263.081C317.595 255.536 316.708 247.929 315.643 240.365L311.242 210.592C309.578 199.17 307.27 187.114 306.255 175.69C305.945 172.211 305.821 168.476 306.704 165.065C309.558 154.048 324.788 149.051 333.992 144.858C336.868 143.548 339.604 142.031 342.315 140.412C341.835 136.588 341.535 132.895 343.187 129.261C345.165 124.91 349.273 121.743 353.68 120.113C357.985 118.521 362.28 118.323 366.491 120.29Z" fill="#CE8973"/>
<path d="M223.768 153.211L223.668 152.886C223.864 152.582 246.11 139.458 248.593 137.758C256.445 132.382 263.213 126.379 269.816 119.531C271.555 130.891 274.358 141.172 280.802 150.862L280.427 151.626C269.619 151.976 258.737 151.672 247.919 151.694C240.785 151.708 233.52 151.521 226.484 152.85L223.768 153.211Z" fill="#564E4C"/>
<path d="M319.002 129.222C314.47 128.429 309.869 128.041 305.326 127.229C303.125 126.837 294.601 125.575 293.489 123.976L293.801 122.852C301.717 125.542 310.467 126.59 318.738 127.558C319.232 128.173 319.062 128.454 319.002 129.222Z" fill="#CE8973"/>
<path d="M393.084 167.927C392.506 167.908 392.535 167.79 392.126 167.419C391.361 164.828 394.202 152.767 394.847 149.406C395.52 150.825 395.201 152.073 395.42 153.562C395.145 158.315 394.235 163.307 393.084 167.927Z" fill="#CE8973"/>
<path d="M280.805 150.859C282.4 152.225 283.589 154.031 284.964 155.612L283.644 156.131C282.457 154.735 281.462 153.137 280.43 151.623L280.805 150.859Z" fill="#CE8973"/>
<path d="M226.484 152.849C233.52 151.52 240.785 151.707 247.92 151.693C258.737 151.671 269.62 151.975 280.427 151.625C281.459 153.14 282.454 154.737 283.641 156.133L283.747 156.459C282.298 164.993 282.379 173.98 281.926 182.624C280.908 202.026 279.196 221.286 285.596 240.029C287.297 245.011 289.447 249.858 292.488 254.175C297.414 261.167 304.494 267.103 313.128 268.591C315.195 268.947 317.359 269.055 319.445 268.79L326.904 319.793C328.429 329.906 329.016 341.033 332.979 350.521C336.109 357.97 341.214 364.421 347.743 369.181C351.345 371.83 355.477 374.098 359.768 375.404C361.614 375.966 363.959 376.112 365.6 377.093C346.566 377.56 327.469 377.29 308.43 377.254C293.498 377.226 278.563 377.494 263.632 377.38L263.415 376.852L264.976 376.665C268.16 376.878 271.699 376.369 274.784 375.581L276.422 375.246C279.771 374.269 282.716 373.173 285.413 370.892C290.264 367.063 290.633 360.223 292.306 354.759L292.376 354.537L292.603 354.637C296.182 359.739 307.394 373.434 312.372 376.616C313.577 375.963 315.48 375.136 315.804 373.659C316.094 372.332 315.253 371.267 314.489 370.295L312.426 367.715C312.554 367.64 312.685 367.57 312.81 367.49C314.216 366.587 315.028 364.788 315.348 363.207C315.905 360.45 315.412 357.206 314.512 354.565C312.519 348.716 303.485 334.633 299.672 329.195C295.861 322.615 291.642 321.601 285.652 317.874L285.363 317.691C283.946 315.557 282.003 313.553 280.36 311.562C278.058 308.771 275.856 305.884 273.494 303.146C272.316 301.781 271.288 300.665 269.379 300.578C267.448 300.489 265.581 301.038 264.201 302.418C262.713 303.907 262.329 305.595 262.328 307.639C257.072 310.291 252.16 313.477 246.778 315.894C227.106 324.729 211.951 320.479 191.801 318.415C196.467 312.337 202.518 307.203 206.587 300.646C207.331 282.901 206.021 265.398 201.737 248.132C200.878 244.671 199.904 241.24 198.817 237.845C197.944 235.113 196.34 232.123 196.148 229.281L196.605 228.903C197.071 229.062 197.223 229.218 197.525 229.628C199.33 232.072 200.291 236.492 201.157 239.422C206.175 256.386 210.312 281.259 208.106 298.772C219.857 282.607 233.179 254.971 238.934 236.031C245.678 213.832 251.819 185.313 240.132 163.723C236.714 157.411 233.283 154.897 226.484 152.849Z" fill="#FEFEFE"/>
<path d="M223.765 153.213L226.481 152.852C233.28 154.9 236.711 157.413 240.128 163.726C251.816 185.316 245.675 213.834 238.93 236.034C233.176 254.973 219.854 282.609 208.102 298.775C210.308 281.262 206.171 256.389 201.154 239.425C200.287 236.495 199.326 232.075 197.522 229.631C197.219 229.221 197.067 229.065 196.601 228.906L196.144 229.283C196.337 232.126 197.941 235.116 198.814 237.848C199.901 241.243 200.875 244.674 201.734 248.135C206.018 265.4 207.328 282.904 206.583 300.649C202.515 307.206 196.464 312.34 191.798 318.418C191.193 318.348 190.602 318.18 190.01 318.039C188.634 315.116 187.391 312.135 185.833 309.301C172.651 285.337 148.105 267.224 122.068 259.682C117.148 258.261 111.955 257.351 106.825 257.449C110.669 251.83 115.829 246.674 120.42 241.645C130.166 231.08 140.028 220.623 150.006 210.276C153.162 207.153 156.296 204.009 159.409 200.842C164.532 196.455 169.118 191.06 173.965 186.34C180.233 180.238 186.962 174.661 193.655 169.037C196.251 167.447 198.75 165.405 201.237 163.63L205.427 161.053L206.513 160.38C210.862 157.64 215.944 155.304 220.9 153.971C221.899 153.791 222.81 153.557 223.765 153.213Z" fill="#89A2D8"/>
<path d="M395.422 153.566C404.416 151.974 415.148 153.731 423.02 158.385C404.709 164.685 392.805 182.289 384.626 198.996C381.326 205.738 378.756 212.832 375.979 219.799C373.691 215.867 372.445 211.047 370.888 206.771L363.977 188.129C370.74 184.693 377.72 182.106 384.28 178.166C388.396 175.695 391.901 172.782 393.086 167.93C394.238 163.311 395.147 158.319 395.422 153.566Z" fill="#FEFEFE"/>
<path d="M283.645 156.136L284.965 155.617C288.749 159.453 294.512 163.261 300.106 163.377C301.911 163.414 303.755 163.263 305.559 163.177C305.697 163.844 305.697 163.812 305.338 164.391C302.756 165.773 298.315 164.975 295.594 164.166C290.889 162.768 287.143 159.924 283.751 156.462L283.645 156.136Z" fill="#CE8973"/>
<path d="M375.977 219.796C378.754 212.829 381.323 205.736 384.624 198.994C392.802 182.287 404.707 164.683 423.017 158.383C425.979 160.161 428.347 163.173 430.559 165.781L431.506 166.941C433.234 169.16 436.934 175.606 438.366 176.804L438.673 177.426C438.894 178.024 439.085 178.551 439.417 179.1C452.943 209.242 455.354 251.775 454.193 284.622C453.895 293.045 453.708 302.019 451.979 310.302C448.646 302.285 445.915 297.591 438.8 292.369C426.014 284.04 412.959 280.075 398.616 275.431L396.938 275.096C396.008 271.43 393.954 267.726 392.6 264.18C388.406 253.385 384.317 242.55 380.336 231.675C386.635 220.391 394.456 211.056 404.772 203.281C407.345 201.341 410.183 199.744 412.732 197.798C413.351 197.327 413.609 197.145 413.694 196.364C413.145 196.054 412.796 195.98 412.17 196.184C409.996 196.888 407.627 198.788 405.779 200.106C394.97 207.774 386.004 217.753 379.532 229.318C378.027 226.428 377.071 222.886 375.977 219.796Z" fill="#89A2D8"/>
<path d="M90.1089 305.433L83.5109 222.657L81.094 192.969C80.5819 186.816 79.834 180.556 79.7153 174.387C79.6825 172.655 79.8229 170.958 81.1648 169.686C82.5908 168.335 84.5675 168.404 86.3942 168.391C87.541 176.407 87.8715 184.669 88.5441 192.747C88.7743 195.508 88.7319 198.854 89.3555 201.505L90.1256 210.11C91.6559 229.813 93.2876 249.507 95.0207 269.192C95.7596 277.97 96.2199 286.787 97.087 295.549C96.4712 297.102 91.2993 307.16 90.4138 307.667C90.3257 306.92 90.2243 306.176 90.1089 305.433Z" fill="#683935"/>
<path d="M86.3949 168.391L172.143 168.619C175.307 168.626 192.161 168.167 193.383 168.664L193.661 169.033C186.969 174.657 180.239 180.234 173.971 186.336C169.124 191.056 164.538 196.451 159.416 200.838C147.948 200.222 136.364 200.475 124.881 200.458C113.234 200.441 101.523 200.177 89.8828 200.479C89.4705 200.902 89.5039 200.966 89.3562 201.505C88.7326 198.854 88.775 195.508 88.5448 192.747C87.8722 184.669 87.5418 176.407 86.3949 168.391Z" fill="#F8E5C7"/>
<path d="M379.535 229.319C386.008 217.754 394.973 207.775 405.783 200.107C407.631 198.789 410 196.889 412.174 196.184C412.8 195.981 413.149 196.055 413.698 196.365C413.612 197.145 413.355 197.327 412.736 197.799C410.187 199.744 407.349 201.342 404.776 203.282C394.46 211.056 386.638 220.392 380.34 231.676L379.535 229.319Z" fill="#FEFEFE"/>
<path d="M89.3558 201.506C89.5035 200.967 89.4701 200.903 89.8825 200.48C101.523 200.178 113.234 200.442 124.88 200.459C136.364 200.476 147.948 200.223 159.415 200.839C156.303 204.005 153.168 207.15 150.012 210.272C145.862 209.359 140.583 209.952 136.308 209.963L104.375 210.129C99.716 210.144 94.7446 210.575 90.126 210.111L89.3558 201.506Z" fill="#FEFEFE"/>
<path d="M90.1254 210.113C94.744 210.576 99.7154 210.146 104.375 210.131L136.308 209.965C140.582 209.954 145.862 209.361 150.011 210.274C140.034 220.622 130.171 231.079 120.425 241.644C115.834 246.673 110.675 251.829 106.83 257.448C106.292 258.533 105.946 259.51 106.4 260.704C107.605 263.875 112.12 266.898 114.637 269.05C111.436 273.259 108.337 277.514 105.496 281.977C103.413 285.247 99.5281 293.259 97.0867 295.552C96.2196 286.79 95.7593 277.973 95.0204 269.195C93.2873 249.51 91.6556 229.816 90.1254 210.113Z" fill="#F8E5C7"/>
<path d="M217.913 6.34521C241.697 3.89658 265.664 3.78565 289.469 6.01416C293.152 6.37693 298.743 6.42194 301.958 8.2124C298.506 9.06999 295.078 9.90261 291.752 11.1831C279.084 16.0597 267.142 25.5785 260.06 37.2397C254.768 45.9536 251.921 56.6322 254.45 66.7075C255.247 69.8845 256.553 72.7558 258.028 75.6675C256.331 85.7222 253.941 93.2492 245.255 99.3892C239.473 103.476 232.763 105.712 226.399 108.676C213.068 114.889 203.161 125.388 200.582 140.173C199.317 147.425 199.355 156.495 201.239 163.628C198.753 165.404 196.254 167.446 193.658 169.036L193.38 168.667C192.158 168.169 175.305 168.629 172.139 168.622L86.3912 168.393C84.5645 168.406 82.5878 168.338 81.1617 169.689C79.82 170.961 79.6796 172.658 79.7125 174.39C79.8313 180.559 80.5783 186.819 81.0905 192.972L83.5074 222.66L90.1061 305.436C90.4264 310.19 86.4472 315.711 84.6696 320.138C79.302 333.506 77.4394 347.662 84.4264 360.786C86.2993 364.304 88.7005 367.734 91.65 370.441C91.7809 370.561 91.9199 370.673 92.0553 370.789C92.1116 372.973 92.1921 375.16 92.2194 377.345C72.3914 376.935 52.4923 377.334 32.6559 377.348L17.0143 377.324C14.3685 377.324 11.3622 377.566 8.74768 377.202C10.7496 376.474 33.9502 377.028 38.0231 377.036C33.0054 370.475 29.1317 362.491 25.5231 355.086C11.8303 326.989 4.19439 301.4 0.997681 270.152C-5.33147 208.283 18.8821 144.008 61.8229 99.5112C67.3916 93.7407 73.2617 87.9761 79.4117 82.8208C81.5386 81.0514 83.7022 79.3272 85.902 77.6499C106.663 58.8243 145.609 29.2845 185.52 15.0425C186.39 13.4382 187.184 11.7233 187.917 9.87354C188.849 10.1681 214.52 6.68458 217.913 6.34521ZM473.863 235.965C474.483 236.034 475.062 236.062 475.607 236.403C477.48 237.573 477.848 240.325 478.301 242.293C478.595 242.27 478.889 242.248 479.182 242.227C481.107 242.096 482.613 241.888 484.141 243.224C484.434 243.938 484.562 244.137 484.321 244.911C483.781 246.647 481.511 247.573 480.045 248.347L480.849 250.984C481.339 252.557 481.675 253.834 481.058 255.426C480.74 255.693 480.563 255.962 480.128 255.992C478.148 256.125 476.099 253.946 474.749 252.702C473.533 252.714 470.903 256.07 468.577 256.208C467.885 256.249 467.748 256.058 467.349 255.586C466.84 253.243 467.973 250.543 468.931 248.433C468.405 248.165 467.886 247.882 467.375 247.587C466.206 246.904 464.548 245.696 464.408 244.2C464.341 243.488 464.631 243.014 465.123 242.54C466.476 241.233 469.069 241.662 470.755 241.74C471.679 239.692 472.58 237.819 473.863 235.965ZM62.2379 221.899C61.5926 221.893 60.9371 221.951 60.2789 222.079C55.0094 223.103 51.5687 228.209 52.5963 233.478C53.385 237.522 56.5769 240.484 60.4 241.178C56.5782 240.483 53.3887 237.521 52.6002 233.478C51.5726 228.209 55.0123 223.103 60.2819 222.079C60.939 221.951 61.5936 221.893 62.2379 221.899ZM62.8434 221.925C63.0572 221.941 63.2694 221.964 63.4801 221.994C63.2694 221.964 63.0572 221.941 62.8434 221.925ZM159.066 126.4C158.817 127.032 158.52 127.642 158.177 128.225C158.52 127.642 158.817 127.032 159.066 126.4ZM159.692 119.039C158.24 112.046 151.396 107.554 144.403 109.003C140.678 109.775 137.662 112.078 135.876 115.119C137.662 112.08 140.677 109.778 144.401 109.006C151.394 107.556 158.239 112.049 159.691 119.042C160.205 121.516 159.973 123.971 159.151 126.176C159.974 123.97 160.206 121.514 159.692 119.039Z" fill="#ECECEC"/>
<path d="M114.639 269.047C112.121 266.895 107.607 263.872 106.402 260.701C105.948 259.507 106.294 258.53 106.832 257.445C111.962 257.347 117.155 258.257 122.075 259.678C119.558 262.762 116.993 265.838 114.639 269.047Z" fill="#405C9F"/>
<path d="M122.072 259.68C148.11 267.221 172.655 285.334 185.837 309.298C187.396 312.132 188.638 315.114 190.014 318.036L189.819 318.109C179.321 316.2 168.851 314.142 158.411 311.935C142.415 308.536 118.285 300.405 103.52 310.721C101.876 311.871 98.972 314.371 98.4114 316.334C98.3317 316.613 98.3518 316.656 98.3674 316.907L98.6683 317.056C104.942 309.879 110.562 307.404 120.155 306.784C131.039 306.081 142.546 309.41 153.063 311.8C165.002 314.513 178.157 317.681 190.25 319.211C193.992 320.343 198.58 320.672 202.461 321.187C216.122 323.001 229.483 324.418 242.632 319.12C247.681 317.086 252.639 314.348 257.392 311.703C259.643 310.45 261.824 309.033 264.159 307.941L264.458 307.805L266.743 308.975C267.081 310.23 268.524 311.214 269.598 311.825C276.197 315.584 289.59 320.608 294.643 325.414C296.598 327.274 297.912 329.631 298.656 332.209C299.988 336.828 299.916 343.843 297.439 348.072C296.378 349.884 293.299 352.461 292.728 353.932L292.604 354.637L292.376 354.537C292.365 349.128 292.282 343.669 288.106 339.622C286.614 338.177 284.858 337.065 283.057 336.047C279.849 334.234 258.49 323.933 256.796 323.96L256.432 324.383C256.583 325.091 256.822 325.14 257.424 325.527C259.412 326.806 261.844 327.679 264.004 328.648C270.296 331.472 283.066 336.418 287.626 341.236C288.977 342.662 289.849 344.465 290.3 346.366C291.604 351.861 290.065 359.993 287.86 365.081C287.097 366.842 285.497 368.994 285.414 370.892C282.717 373.173 279.772 374.269 276.423 375.246C279.268 369.495 281.472 364.611 279.388 358.114C277.201 351.293 268.05 347.296 262.112 344.461C258.841 342.899 254.474 340.426 250.908 339.939C250.347 340.224 250.378 340.081 250.142 340.735C250.925 341.987 253.7 342.573 255.054 343.094C258.229 344.32 261.337 345.81 264.398 347.295C272.951 351.445 280.56 356.619 278.212 367.514C277.596 370.37 275.287 372.819 274.785 375.581C271.7 376.369 268.16 376.878 264.977 376.665C266.321 375.418 267.017 374.618 267.061 372.732C267.119 370.266 265.209 367.952 263.552 366.288C260.04 362.762 249.846 357.81 244.894 357.585C244.45 357.565 244.418 357.588 244.042 357.654C244.21 358.322 244.716 358.577 245.293 358.909C247.222 360.021 249.754 360.601 251.863 361.334C256.549 362.964 263.449 366.028 265.041 371.188C265.272 371.936 265.562 373.068 265.253 373.83C264.654 375.306 262.759 375.602 261.747 376.668C262.331 376.819 262.813 376.857 263.416 376.852L263.633 377.381C260.904 377.284 258.172 377.262 255.441 377.315L255.429 377.11C254.445 376.378 252.356 376.384 251.116 376.322C241.368 375.829 231.376 376.244 221.598 376.27C215.106 376.288 208.623 376.429 202.132 376.521C198.195 376.578 194.197 376.449 190.276 376.794C187.78 376.755 184.214 376.401 181.904 377.35C177.663 377.641 173.261 377.41 168.996 377.416L144.031 377.447L116.034 377.447C112.128 377.46 108.138 377.783 104.245 377.613C103.545 377.582 103.045 377.46 102.395 377.213C98.5496 375.436 95.3944 373.348 92.0574 370.787C91.922 370.671 91.7827 370.56 91.6518 370.44C88.7021 367.733 86.3009 364.302 84.4279 360.784C77.4409 347.66 79.3033 333.505 84.6709 320.136C86.4486 315.709 90.428 310.189 90.1076 305.435C90.2229 306.177 90.3243 306.922 90.4124 307.669C91.2979 307.162 96.4699 297.103 97.0857 295.551C99.527 293.257 103.412 285.246 105.495 281.975C108.336 277.513 111.435 273.257 114.636 269.048C116.991 265.839 119.555 262.764 122.072 259.68Z" fill="#ECB7A6"/>
<path d="M396.938 275.098L398.616 275.433C400.953 280.584 417.329 322.375 417.151 324.358L416.739 324.692L416.08 324.528C414.171 321.214 413.268 317.004 411.818 313.439L401.786 288.099C400.164 283.983 397.777 279.403 396.938 275.098Z" fill="#CE8973"/>
<path d="M438.799 292.367C445.915 297.589 448.646 302.284 451.979 310.3C451.558 314.023 450.559 317.254 447.507 319.673C442.788 323.414 436.499 323.577 430.766 323.844C431.104 320.791 432.831 317.329 433.696 314.347C435.777 307.176 437.715 299.762 438.799 292.367Z" fill="#405C9F"/>
<path d="M262.328 307.641C262.33 305.597 262.714 303.909 264.202 302.42C265.582 301.039 267.449 300.491 269.38 300.579C271.289 300.667 272.316 301.782 273.494 303.147C275.857 305.886 278.059 308.773 280.361 311.563C282.004 313.554 283.947 315.558 285.364 317.693C282.708 317.18 270.373 310.665 266.743 308.976L264.458 307.806L262.328 307.641Z" fill="#89A2D8"/>
<path d="M190.248 319.213C178.156 317.682 165.001 314.515 153.062 311.802C142.545 309.412 131.038 306.082 120.154 306.785C110.561 307.406 104.941 309.88 98.6672 317.058L98.3662 316.909C98.3506 316.658 98.3306 316.615 98.4103 316.336C98.9709 314.373 101.875 311.872 103.519 310.723C118.284 300.406 142.414 308.537 158.41 311.937C168.85 314.143 179.32 316.201 189.818 318.111C190.018 318.494 190.223 318.774 190.248 319.213Z" fill="#CE8973"/>
<path d="M191.803 318.413C211.953 320.476 227.109 324.727 246.78 315.892C252.162 313.475 257.074 310.288 262.33 307.637L264.46 307.802L264.161 307.939C261.825 309.03 259.645 310.448 257.393 311.701C252.64 314.346 247.682 317.083 242.633 319.118C229.485 324.415 216.124 322.999 202.463 321.185C198.581 320.67 193.993 320.34 190.251 319.209C190.226 318.77 190.021 318.49 189.821 318.107L190.016 318.034C190.608 318.175 191.199 318.343 191.803 318.413Z" fill="#CE8973"/>
<path d="M292.731 353.93C293.302 352.459 296.381 349.882 297.442 348.069C299.919 343.84 299.991 336.825 298.659 332.207C297.915 329.628 296.601 327.272 294.646 325.412C289.593 320.606 276.2 315.581 269.601 311.823C268.527 311.212 267.084 310.228 266.746 308.973C270.376 310.662 282.711 317.177 285.367 317.689L285.656 317.872C291.646 321.599 295.865 322.612 299.676 329.193C299.669 329.33 299.66 329.468 299.655 329.605C299.599 331.359 300.418 333.475 300.668 335.248C301.578 341.703 300.495 347.942 296.012 352.864C294.92 353.306 293.884 353.681 292.731 353.93Z" fill="#CE8973"/>
<path d="M285.412 370.897C285.495 368.998 287.096 366.847 287.859 365.085C290.063 359.997 291.602 351.865 290.298 346.371C289.848 344.47 288.975 342.667 287.625 341.24C283.065 336.423 270.294 331.476 264.003 328.653C261.842 327.683 259.411 326.811 257.422 325.531C256.82 325.144 256.582 325.095 256.43 324.387L256.794 323.965C258.489 323.938 279.847 334.238 283.056 336.051C284.857 337.069 286.612 338.181 288.104 339.627C292.28 343.673 292.363 349.133 292.375 354.542L292.306 354.763C290.632 360.227 290.263 367.067 285.412 370.897Z" fill="#CE8973"/>
<path d="M299.676 329.195C303.489 334.633 312.523 348.716 314.517 354.565C315.417 357.206 315.909 360.45 315.352 363.207C315.033 364.789 314.22 366.587 312.814 367.49C312.689 367.57 312.558 367.64 312.43 367.715C310.277 365.041 306.695 363.887 304.164 361.579C301.251 358.923 299.143 355.21 296.012 352.866C300.495 347.945 301.579 341.705 300.668 335.25C300.418 333.477 299.599 331.361 299.655 329.607C299.66 329.47 299.669 329.332 299.676 329.195Z" fill="#ECB7A6"/>
<path d="M428.774 329.457C429.287 330.259 429.705 331.036 430.001 331.945C431.433 336.343 432.027 341.346 432.903 345.901C434.935 356.241 436.8 366.614 438.497 377.015L402.518 376.998C397.267 376.996 390.338 376.479 385.271 377.148C384.114 377.229 382.903 377.119 381.742 377.086C383.506 376.027 391.904 374.865 395.607 373.116C413.332 364.742 422.44 347.048 428.774 329.457Z" fill="#FEFEFE"/>
<path d="M276.422 375.244L274.784 375.58C275.286 372.817 277.595 370.369 278.211 367.512C280.559 356.618 272.949 351.443 264.396 347.293C261.335 345.808 258.227 344.318 255.052 343.093C253.699 342.571 250.924 341.985 250.141 340.734C250.377 340.08 250.346 340.223 250.907 339.938C254.473 340.425 258.839 342.898 262.111 344.46C268.048 347.295 277.2 351.291 279.387 358.113C281.471 364.61 279.267 369.493 276.422 375.244Z" fill="#CE8973"/>
<path d="M292.73 353.929C293.882 353.681 294.919 353.306 296.011 352.863C299.142 355.207 301.25 358.92 304.163 361.576C306.694 363.885 310.276 365.039 312.429 367.713L314.492 370.293C315.256 371.265 316.097 372.329 315.806 373.657C315.483 375.133 313.58 375.96 312.375 376.614C307.397 373.432 296.185 359.737 292.606 354.634L292.73 353.929Z" fill="#89A2D8"/>
<path d="M264.979 376.665L263.418 376.852C262.814 376.857 262.333 376.819 261.748 376.668C262.761 375.602 264.656 375.306 265.255 373.83C265.563 373.068 265.274 371.936 265.043 371.188C263.45 366.028 256.551 362.964 251.865 361.334C249.756 360.601 247.223 360.021 245.294 358.909C244.718 358.577 244.212 358.322 244.043 357.654C244.419 357.587 244.451 357.565 244.895 357.585C249.847 357.81 260.041 362.762 263.553 366.287C265.211 367.951 267.12 370.266 267.062 372.732C267.018 374.618 266.322 375.418 264.979 376.665Z" fill="#CE8973"/>
<path d="M92.059 370.789C95.3959 373.35 98.5511 375.438 102.396 377.215C100.13 378.09 94.7433 377.528 92.2222 377.346C92.1949 375.161 92.1152 372.974 92.059 370.789Z" fill="#4A292A"/>
<path d="M190.277 376.795C194.198 376.45 198.195 376.578 202.133 376.522C208.623 376.429 215.107 376.288 221.598 376.27C231.377 376.244 241.369 375.829 251.117 376.322C252.357 376.385 254.445 376.378 255.429 377.111L255.441 377.316C245.626 377.615 235.748 377.398 225.926 377.4C213.126 377.45 200.327 377.43 187.528 377.34C188.498 377.112 189.408 377.333 190.277 376.795Z" fill="#FEFEFE"/>
<path d="M181.903 377.351C184.213 376.403 187.779 376.757 190.275 376.796C189.407 377.334 188.497 377.113 187.526 377.341C185.683 377.478 183.755 377.359 181.903 377.351Z" fill="white"/>
<path d="M8.74849 377.199C11.3631 377.564 14.3691 377.321 17.015 377.321L32.6559 377.346C52.4924 377.332 72.3913 376.932 92.2194 377.342C94.7404 377.525 100.128 378.087 102.393 377.212C103.043 377.458 103.544 377.581 104.244 377.611C108.137 377.782 112.127 377.458 116.033 377.446L144.03 377.445L168.995 377.415C173.259 377.409 177.661 377.639 181.903 377.348C183.755 377.356 185.682 377.475 187.526 377.338C200.325 377.428 213.125 377.448 225.924 377.398C235.746 377.396 245.624 377.613 255.439 377.314C258.171 377.26 260.902 377.282 263.632 377.379C278.562 377.493 293.498 377.224 308.43 377.253C327.469 377.289 346.566 377.559 365.6 377.092C368.904 377.196 372.217 377.088 375.523 377.087C377.539 377.086 379.748 377.308 381.743 377.086C382.904 377.119 384.115 377.229 385.271 377.148C389.438 377.414 393.674 377.268 397.85 377.265L418.816 377.264L488.2 377.293L525.105 377.333C529.79 377.335 536.447 377.923 540.928 377.146C541.838 377.352 542.763 377.546 543.603 377.969C545.456 378.902 546.91 380.613 547.47 382.618C547.966 384.462 547.709 386.429 546.752 388.082C545.777 389.766 544.171 390.831 542.295 391.273C539.453 391.943 535.719 391.479 532.767 391.475L514.364 391.457L435.978 391.492L93.2447 391.43L34.6259 391.453L17.0804 391.413C14.3496 391.409 11.5167 391.634 8.80149 391.394C7.40086 391.27 6.12265 390.936 4.92498 390.178C3.30288 389.154 2.20568 387.561 1.874 385.666C1.53735 383.742 2.06447 381.783 3.22314 380.224C4.70408 378.233 6.34829 377.507 8.74849 377.199Z" fill="#9D7D70"/>
<path d="M491 157C511.435 157 528 140.211 528 119.5C528 98.7893 511.435 82 491 82C470.565 82 454 98.7893 454 119.5C454 140.211 470.565 157 491 157Z" fill="#F37E60"/>
</g>
</svg>
