<svg width="324" height="234" viewBox="0 0 324 234" fill="none" xmlns="http://www.w3.org/2000/svg">
<path d="M180.119 4.8689C181.568 4.71699 183.031 4.53549 184.489 4.57039C187.343 4.63953 191.511 5.57029 194.155 6.67058C199.815 2.59154 206.077 -0.970602 213.321 0.239714C217.448 0.929139 221.649 3.389 224.073 6.82681C224.74 7.77286 225.296 8.9496 226.075 9.7936C227.617 11.4636 229.842 12.6055 231.559 14.1163C236.758 18.6906 240.043 24.2785 242.742 30.582C244.091 35.0563 244.973 39.495 245.177 44.1721C245.269 46.2646 245.246 48.3871 245.15 50.479C245.011 53.5259 244.4 56.5688 245.526 59.5013C248.143 66.3161 254.923 69.8247 260.22 74.2857C262.96 76.593 265.355 79.1748 267.164 82.2839C268.557 84.6776 269.499 87.2778 269.681 90.0551C269.894 93.6202 269.098 97.1733 267.383 100.306C266.05 102.789 264.326 105.045 262.114 106.804C261.916 106.477 261.802 106.162 261.67 105.806C264.744 103.993 267.18 99.366 268.08 96.0086C270.381 87.4243 265.894 80.2708 259.487 74.8807C255.83 71.8046 251.772 69.3038 248.47 65.8005C246.834 64.064 245.699 62.039 244.524 59.9823C245.051 62.2427 245.698 64.3419 246.973 66.3061C248.941 69.3374 251.828 71.3754 254.643 73.5461C259.925 77.6198 263.954 82.867 265.056 89.5787C266.046 95.6024 264.993 100.497 261.487 105.435C260.633 104.72 258.426 100.875 257.395 99.5511C257.946 97.7431 258.548 95.8979 258.831 94.0254C259.987 86.3729 256.566 81.1112 250.914 76.3886C248.776 74.6012 246.226 72.7882 244.692 70.4394C243.781 69.0459 243.398 67.5072 242.847 65.9591L242.584 65.7514L242.71 65.7636L242.51 65.8441C242.372 66.488 242.615 67.2193 242.771 67.8519C244.049 73.0232 249.636 75.7068 253.189 79.227C254.837 80.8599 256.179 82.7057 257.122 84.8312C259.22 89.5608 258.663 94.1454 256.83 98.859C255.51 97.3037 254.098 95.507 252.331 94.4462C247.636 91.6699 241.234 90.6222 235.869 91.5715C235.739 90.6833 235.929 89.9387 235.527 89.0924C235.867 85.37 235.466 82.0801 234.317 78.526C234.461 77.5666 233.793 76.239 233.308 75.4279C232.082 73.3769 230.07 71.5975 227.724 71.0261C230.763 69.618 233.589 67.8479 235.164 64.7721C236.279 62.5964 236.586 60.0358 235.783 57.7003C235.356 56.4601 234.568 55.2198 233.343 54.6464C230.935 53.5195 227.754 55.5403 225.503 56.3314C218.567 58.7693 211.173 55.539 205.919 50.9689C204.675 49.8866 202.991 47.6528 201.613 47.0033C201.516 46.007 199.892 44.4799 199.215 43.6954C197.831 43.7466 196.463 43.7871 195.078 43.731C196.397 43.5265 197.76 43.5787 199.093 43.5737C193.728 35.3778 191.73 30.5491 188.882 21.3024C181.55 24.6747 172.087 30.4624 167.259 36.9418C165.822 38.8691 164.8 41.0162 163.964 43.2623C160.936 51.4004 160.11 61.2797 160.826 69.8826C160.385 71.1554 158.971 72.3986 158.044 73.3669C154.706 76.8533 150.828 79.715 146.827 82.3893C144.114 84.2026 133.028 89.9234 131.769 91.8135C128.813 92.6087 125.782 94.0025 123.188 95.6366C122.827 90.0265 124.143 86.5687 127.881 82.2836C136.708 72.1656 149.258 70.4228 156.292 57.2163C157.233 55.4492 158.192 53.6179 158.055 51.5487C157.911 49.3773 156.365 47.0953 155.561 45.1008C160.431 34.6209 169.464 21.5972 180.732 17.5435C182.206 17.0133 183.731 16.7151 185.263 16.4053C180.571 15.7431 175.767 19.1889 172.197 21.8904C165.683 26.8201 160.227 34.1399 156.613 41.4483C155.932 42.8245 155.472 44.2778 154.874 45.6849C156.069 48.1959 158.36 50.7123 157.39 53.605C156.966 54.8711 156.277 56.0795 155.637 57.2486C153.791 60.6189 151.118 63.6977 148.19 66.1765C139.834 73.2506 125.207 78.8344 122.729 90.5121C122.338 92.354 122.459 94.173 122.54 96.0385L120.04 97.5752C118.916 93.32 118.893 87.91 119.648 83.5843C121.186 74.7647 127.096 68.5017 135.048 64.796C138.844 63.0276 142.847 61.6936 146.295 59.256C151.477 55.5935 152.902 51.1039 153.915 45.1062C153.035 43.3693 152.256 41.6567 151.781 39.7616C150.272 33.7516 151.971 27.3819 155.127 22.184C159.352 15.2279 166.475 9.54994 174.031 6.64099C176.015 5.8771 178.06 5.38049 180.119 4.8689ZM209.881 0.940112C205.406 1.26156 201.111 2.83154 197.483 5.47123C203.272 3.75133 208.711 3.62933 214.597 5.05472C218.153 5.99744 221.29 7.38926 224.547 9.07227C221.905 5.10292 218.288 2.19896 213.521 1.26588C212.314 1.02953 211.108 0.976677 209.881 0.940112ZM176.917 6.71745C168.535 9.09553 159.903 15.7062 155.659 23.3447C152.861 28.3791 151.215 34.4058 152.856 40.0894C153.073 40.8433 153.329 41.6012 153.615 42.3325L153.987 42.9491L154.181 42.9368C155.262 30.7606 159.093 19.9202 168.754 11.8778C170.046 10.7942 171.419 9.81088 172.861 8.93564C173.644 8.46827 176.651 7.29186 177.051 6.74205L176.917 6.71745ZM204.112 10.7523C204.193 13.0662 205.138 15.6188 205.782 17.8357C208.244 26.3052 211.598 36.7028 218.222 42.8301C220.781 45.1966 223.912 46.2892 227.313 46.7217C228.946 46.9295 230.638 47.0814 232.203 47.6232C233.696 48.1401 235.577 49.8484 236.761 50.1339C235.516 48.1481 232.943 47.1442 230.751 46.629C228.876 46.1878 226.937 46.0678 225.065 45.6304C220.38 44.5361 216.973 41.1544 214.483 37.1931C210.409 30.7127 207.644 22.6902 205.774 15.2957C205.513 14.2639 205.114 11.2093 204.112 10.7523Z" fill="#564E4C"/>
<path d="M153.616 42.3348C153.33 41.6035 153.074 40.8456 152.857 40.0917C151.216 34.4081 152.862 28.3814 155.66 23.347C159.904 15.7085 168.536 9.09781 176.918 6.71973L177.051 6.74433C176.652 7.29414 173.645 8.47055 172.862 8.93792C171.42 9.81316 170.047 10.7964 168.755 11.8801C159.094 19.9225 155.263 30.7628 154.182 42.9391L153.988 42.9514L153.616 42.3348Z" fill="#ECECEC"/>
<path d="M236.763 50.1346C235.579 49.849 233.698 48.1408 232.205 47.6239C230.64 47.082 228.948 46.9301 227.315 46.7223C223.915 46.2899 220.783 45.1972 218.224 42.8308C211.6 36.7034 208.246 26.3059 205.785 17.8363C205.14 15.6195 204.195 13.0669 204.115 10.7529C205.116 11.21 205.516 14.2645 205.776 15.2964C207.646 22.6909 210.411 30.7133 214.485 37.1937C216.975 41.1551 220.382 44.5367 225.067 45.631C226.94 46.0685 228.879 46.1885 230.753 46.6296C232.945 47.1448 235.518 48.1487 236.763 50.1346Z" fill="#453734"/>
<path d="M123.187 95.6383L122.539 96.0402C122.458 94.1747 122.338 92.3557 122.729 90.5138C125.207 78.8362 139.834 73.2523 148.189 66.1782C151.118 63.6994 153.79 60.6206 155.636 57.2503C156.277 56.0812 156.965 54.8728 157.389 53.6067C158.359 50.714 156.069 48.1977 154.873 45.6866C155.471 44.2795 155.932 42.8262 156.612 41.45C160.227 34.1416 165.682 26.8218 172.196 21.8922C175.766 19.1906 180.57 15.7448 185.262 16.407C183.731 16.7168 182.205 17.015 180.732 17.5452C169.463 21.599 160.43 34.6226 155.56 45.1026C156.364 47.097 157.91 49.3791 158.054 51.5504C158.191 53.6196 157.232 55.4509 156.291 57.218C149.257 70.4245 136.707 72.1673 127.881 82.2853C124.143 86.5704 122.827 90.0282 123.187 95.6383Z" fill="#453734"/>
<path d="M195.08 43.7323C194.14 43.7811 192.796 43.7652 192.108 44.4982C191.861 44.7621 191.746 45.0217 191.65 45.3634C191.74 45.7949 191.808 46.0063 192.183 46.2703C193.663 47.3097 199.364 46.4591 201.614 47.0046C202.993 47.6541 204.677 49.8879 205.921 50.9702C211.175 55.5403 218.569 58.7706 225.505 56.3327C227.756 55.5416 230.937 53.5208 233.344 54.6477C234.569 55.2211 235.358 56.4614 235.784 57.7016C236.588 60.0371 236.28 62.5977 235.166 64.7734C233.591 67.8492 230.764 69.6193 227.725 71.0274L226.275 71.7986C226.067 71.6546 225.895 71.5167 225.705 71.3502C224.877 70.6208 222.796 70.5583 221.749 70.683C220.609 70.8183 219.617 71.1833 218.615 71.7254C216.103 70.5524 213.541 70.67 210.973 71.6197C208.344 72.5921 205.894 74.4815 204.714 77.0766C203.728 79.2446 203.907 81.4475 204.194 83.7286C202.576 84.6939 200.945 85.599 199.229 86.3805C193.739 88.8816 184.654 91.862 182.952 98.4338C182.425 100.469 182.499 102.697 182.683 104.772C183.289 111.586 184.666 118.778 185.659 125.591L188.284 143.351C188.919 147.863 189.448 152.4 190.152 156.901C190.244 157.487 190.28 158.303 190.6 158.809C190.631 158.859 190.673 158.9 190.71 158.946L190.996 158.918C191.215 158.564 191.233 158.26 191.221 157.853C191.176 156.348 190.86 154.784 190.66 153.286C190.255 150.23 189.829 147.179 189.381 144.129C188.093 135.055 186.752 125.989 185.36 116.931C184.674 112.328 183.094 104.981 183.559 100.618C183.715 99.1555 184.091 97.5878 184.889 96.3383C189.632 88.9139 203.228 88.0273 209.223 80.808C209.868 80.0318 210.644 78.8923 210.41 77.8638L210.103 77.531L209.722 77.5241C209.06 78.261 209.311 79.4195 208.558 80.2462C208.49 80.321 208.425 80.3978 208.358 80.4732C207.399 81.5499 206.219 82.4092 205.021 83.199C204.875 80.1378 204.782 77.7119 206.991 75.2879C208.881 73.2133 211.943 71.7913 214.743 71.6573C215.977 71.5981 217.16 71.8607 218.095 72.7057C220.07 74.4911 220.258 78.4927 220.328 80.9984C220.346 81.9069 220.354 82.8154 220.352 83.7239C220.764 83.8552 220.782 83.8821 221.182 83.7292C222.056 80.4137 220.994 75.3747 219.333 72.4029C219.305 72.353 219.275 72.3042 219.246 72.2547C220.83 71.6763 222.814 71.1018 224.431 71.8651C225.516 72.377 226.109 73.4457 226.448 74.5496C227.285 77.2724 227.237 80.5297 227.069 83.3446C227.015 84.2491 226.739 85.6093 226.936 86.4693L227.188 86.6039C227.548 86.3905 227.742 86.1568 227.863 85.7553C228.163 84.762 228.086 83.574 228.09 82.5402C228.108 78.887 227.994 75.5412 226.516 72.1396C227.596 72.3152 228.693 72.4471 229.725 72.8227C229.773 72.8749 229.821 72.9268 229.868 72.9796C233.239 76.7579 232.632 83.5969 232.391 88.2876C232.361 88.8567 232.179 89.7652 232.803 89.946C233.187 89.6714 233.28 89.4537 233.37 88.9857C233.536 88.1314 233.486 87.1597 233.501 86.2881C233.57 82.1506 233.05 78.4086 232.016 74.412C232.766 75.7932 233.534 77.1651 234.319 78.5273C235.467 82.0814 235.868 85.3713 235.529 89.0937C235.144 91.0985 233.45 98.2929 233.906 99.8383C234.15 100.06 234.133 100.13 234.477 100.141C233.77 103.035 231.679 104.773 229.225 106.247C225.311 108.597 221.148 110.14 217.113 112.19L221.236 123.31C222.165 125.861 222.908 128.736 224.273 131.081C224.926 132.924 225.496 135.037 226.393 136.761L226.873 138.167C229.248 144.654 231.687 151.117 234.189 157.556C234.997 159.672 236.222 161.881 236.776 164.068C237.277 166.636 238.701 169.368 239.668 171.823L245.652 186.938C246.517 189.065 247.056 191.576 248.195 193.553L248.588 193.651L248.834 193.452C248.94 192.269 239.171 167.34 237.777 164.268C246.333 167.038 254.121 169.403 261.747 174.371C261.1 178.782 259.945 183.204 258.703 187.482C258.187 189.261 257.157 191.326 256.955 193.147C256.461 194.096 255.991 195.441 255.767 196.496C251.989 206.989 246.556 217.544 235.983 222.539C233.774 223.582 228.765 224.275 227.713 224.907C226.523 225.039 225.205 224.907 224.003 224.907C222.031 224.908 220.054 224.973 218.083 224.91C217.104 224.325 215.705 224.238 214.604 223.903C212.045 223.124 209.58 221.771 207.431 220.191C203.537 217.352 200.492 213.503 198.625 209.06C196.261 203.401 195.911 196.763 195.001 190.73L190.551 160.307C189.307 160.465 188.016 160.401 186.783 160.188C181.633 159.301 177.41 155.76 174.472 151.589C172.657 149.014 171.375 146.122 170.361 143.151C166.542 131.971 167.564 120.482 168.171 108.908C168.442 103.752 168.393 98.3916 169.257 93.3011C171.281 95.366 173.515 97.0626 176.322 97.8967C177.945 98.3793 180.594 98.855 182.134 98.0309C182.348 97.6852 182.348 97.7045 182.266 97.3066C181.19 97.3582 180.09 97.4482 179.014 97.4256C175.677 97.3565 172.239 95.0854 169.982 92.7971C169.161 91.854 168.452 90.7767 167.501 89.962C163.657 84.1816 161.985 78.0486 160.947 71.2727L160.828 69.8839C160.111 61.281 160.937 51.4017 163.966 43.2636C164.802 41.0175 165.824 38.8704 167.26 36.9431C172.089 30.4637 181.551 24.676 188.884 21.3037C191.731 30.5504 193.73 35.3791 199.094 43.5751C197.762 43.58 196.398 43.5278 195.08 43.7323ZM173.79 47.6863C174.217 47.9626 174.763 48.2897 175.292 48.2272C175.558 48.1959 175.488 48.179 175.672 47.94L175.548 47.556C174.527 46.5192 173.151 46.2998 171.749 46.2457C170.556 46.1994 168.803 46.2048 167.921 47.1262C167.716 47.341 167.778 47.2775 167.812 47.5936C167.872 47.6302 167.93 47.672 167.993 47.7036C168.778 48.0952 169.769 47.565 170.529 47.2908L170.672 47.5447C169.825 48.055 169.212 48.6935 168.977 49.6845C168.737 50.703 168.961 52.2218 169.571 53.0877C169.902 53.5591 170.385 53.8862 170.959 53.9699C171.7 54.0773 172.419 53.8071 172.984 53.3364C173.807 52.6503 174.374 51.5074 174.421 50.4367C174.456 49.628 174.244 48.5167 173.655 47.9154C173.624 47.8838 173.587 47.8582 173.554 47.8296L173.79 47.6863ZM200.559 52.2195C200.884 52.5695 201.146 52.9355 201.632 53.0475C202.014 52.869 202.053 52.8334 202.279 52.4774L202.163 52.0406C201.301 51.1218 199.939 50.6973 198.727 50.4806C197.651 50.2885 196.375 50.1791 195.432 50.824C195.203 51.2634 195.222 51.2475 195.354 51.7285L196.095 51.9898C195.683 53.5564 194.748 55.1789 195.651 56.8071C196.012 57.4576 196.704 57.8575 197.411 58.0277C198.02 58.174 198.634 58.1534 199.169 57.7924C200.157 57.1245 200.528 55.6762 200.692 54.5719C200.814 53.7515 200.705 53.0242 200.559 52.2195ZM169.14 39.1589C168.043 39.2982 166.55 39.4046 165.781 40.3031C165.535 40.5903 165.468 40.8639 165.424 41.2282C165.581 41.6534 165.593 41.776 166.033 41.9785C166.934 42.3943 169.165 41.9652 170.222 42.0091C172.66 42.1108 175.187 42.8747 177.321 44.0438C177.992 44.3971 178.423 44.6411 179.194 44.4164C179.535 44.3173 179.753 44.1787 180.019 43.9414C180.17 43.5249 180.23 43.3257 180.045 42.9039C179.359 41.3432 176.002 40.345 174.489 39.8839C172.75 39.3541 170.96 39.0662 169.14 39.1589ZM182.803 46.485C182.748 47.7355 183.195 49.0562 183.387 50.2974C184.075 54.7471 182.441 57.8492 179.214 60.7921C178.061 61.8441 176.365 63.0664 176.25 64.7671C176.196 65.5599 176.506 66.2383 177.027 66.8204C178.021 67.9306 179.715 68.6789 181.2 68.7241C181.438 68.7314 181.668 68.7051 181.904 68.6799C181.853 68.4076 181.9 68.1769 181.647 68.0207C180.323 67.2003 177.866 67.3705 177.316 65.5376C177.126 64.9057 177.246 64.2837 177.597 63.7332C178.364 62.5312 179.771 61.5805 180.803 60.5943C184.36 57.1983 184.949 53.222 184.078 48.5366C183.949 47.8439 183.819 46.9986 183.203 46.5734L182.803 46.485ZM229.64 57.3918C227.796 58.3315 226.195 59.7197 225.549 61.7654C225.295 62.5718 225.204 63.458 225.63 64.2212C226.018 64.918 226.99 65.2866 227.731 65.4116C227.958 65.4498 228.185 65.4558 228.414 65.4645C229.857 65.2441 230.841 64.7843 231.731 63.5923C232.531 62.5206 232.941 61.065 232.749 59.7343C232.636 58.9531 232.284 58.267 231.617 57.8226C230.964 57.3875 230.405 57.3559 229.64 57.3918ZM175.254 73.2526L175.068 73.9234C175.731 74.8771 180.816 75.63 182.129 75.864C184.839 76.348 187.583 76.5793 190.287 77.0527C190.322 76.5946 190.424 76.4271 190.129 76.0598C185.196 75.4827 179.976 74.8574 175.254 73.2526Z" fill="#ECB7A6"/>
<path d="M242.744 30.585C245.98 31.9186 248.898 34.0155 251.799 35.9494C260.762 41.9252 269.621 48.5575 277.301 56.1455C282.118 51.2474 286.895 48.5406 293.926 48.508C299.68 48.4811 304.945 50.571 309.01 54.664C313.187 58.869 315.441 64.277 315.383 70.2049C315.326 76.0478 313.097 81.6376 308.872 85.7137C307.029 87.4921 304.871 88.8354 302.591 89.9762C303.894 92.2499 305.414 94.3883 306.752 96.6408C308.653 99.8409 310.338 103.221 311.924 106.586C324.451 132.635 327.222 162.313 319.73 190.231C317.215 199.507 313.618 208.457 309.014 216.893C307.525 219.6 305.776 222.154 304.267 224.845C308.554 224.891 312.842 224.893 317.128 224.852C318.762 224.847 321.108 224.555 322.668 224.944C319.995 225.408 316.025 225.057 313.23 225.056L291.216 225.032L249.827 225.015L237.321 225.016C234.831 225.017 232.304 225.104 229.818 224.946C232.841 224.547 236.974 224.855 240.106 224.856L261.568 224.866C260.555 218.662 259.443 212.475 258.231 206.306C257.709 203.589 257.354 200.605 256.5 197.982C256.323 197.44 256.074 196.976 255.768 196.498C255.991 195.442 256.462 194.097 256.956 193.149C260.375 192.989 264.127 192.892 266.942 190.66C268.763 189.218 269.358 187.29 269.609 185.07C270.641 180.129 270.752 174.776 270.93 169.751C271.622 150.158 270.184 124.787 262.116 106.807C264.328 105.048 266.052 102.792 267.385 100.309C269.1 97.1763 269.896 93.6231 269.684 90.058C269.501 87.2807 268.559 84.6805 267.166 82.2868C265.357 79.1778 262.962 76.5959 260.222 74.2886C254.925 69.8276 248.145 66.319 245.528 59.5042C244.402 56.5717 245.013 53.5288 245.152 50.4819C245.248 48.39 245.271 46.2676 245.179 44.175C244.975 39.498 244.093 35.0592 242.744 30.585ZM291.534 49.7167C280.283 51.0018 272.18 61.1284 273.393 72.3872C274.606 83.6461 284.68 91.8144 295.946 90.6733C307.315 89.5221 315.574 79.336 314.35 67.9744C313.126 56.6132 302.887 48.4199 291.534 49.7167ZM282.664 140.725C281.898 141.831 281.361 142.949 280.81 144.17C279.804 144.124 278.257 143.868 277.45 144.647C277.157 144.93 276.984 145.213 277.024 145.637C277.108 146.53 278.096 147.251 278.794 147.659C279.099 147.834 279.408 148.003 279.722 148.163C279.15 149.422 278.475 151.032 278.778 152.43C279.016 152.712 279.098 152.825 279.511 152.8C280.899 152.718 282.467 150.716 283.192 150.709C283.998 151.451 285.219 152.751 286.401 152.672C286.661 152.654 286.766 152.493 286.956 152.334C287.324 151.384 287.124 150.623 286.831 149.685L286.351 148.112C287.226 147.65 288.58 147.097 288.902 146.061C289.046 145.6 288.97 145.482 288.795 145.056C287.883 144.258 286.985 144.383 285.837 144.461C285.662 144.473 285.486 144.486 285.311 144.5C285.041 143.326 284.822 141.684 283.704 140.987C283.379 140.784 283.034 140.766 282.664 140.725Z" fill="#ECECEC"/>
<path d="M177.32 44.0426C175.185 42.8735 172.659 42.1097 170.22 42.0079C169.164 41.9641 166.933 42.3932 166.031 41.9774C165.592 41.7749 165.58 41.6523 165.423 41.2271C165.467 40.8628 165.534 40.5892 165.779 40.302C166.549 39.4035 168.042 39.2971 169.139 39.1578C170.959 39.0651 172.749 39.353 174.488 39.8828C176.001 40.3439 179.358 41.3421 180.044 42.9028C180.229 43.3246 180.169 43.5237 180.018 43.9403C179.752 44.1776 179.534 44.3162 179.193 44.4153C178.421 44.64 177.991 44.396 177.32 44.0426Z" fill="#5D5452"/>
<path d="M201.613 47.0041C199.362 46.4586 193.661 47.3093 192.182 46.2698C191.806 46.0059 191.739 45.7945 191.648 45.363C191.745 45.0213 191.859 44.7617 192.107 44.4977C192.795 43.7648 194.139 43.7807 195.078 43.7319C196.463 43.788 197.831 43.7475 199.215 43.6963C199.892 44.4808 201.516 46.0079 201.613 47.0041Z" fill="#5D5452"/>
<path d="M170.528 47.2885C169.768 47.5628 168.776 48.093 167.991 47.7014C167.928 47.6698 167.871 47.6279 167.81 47.5913C167.776 47.2752 167.714 47.3387 167.92 47.124C168.801 46.2025 170.554 46.1972 171.748 46.2434C173.15 46.2976 174.525 46.517 175.547 47.5538L175.671 47.9377C175.487 48.1767 175.556 48.1937 175.291 48.2249C174.762 48.2874 174.215 47.9603 173.788 47.6841C173.004 47.1748 171.439 47.1077 170.528 47.2885Z" fill="#5D5452"/>
<path d="M181.902 68.6802C181.666 68.7055 181.436 68.7318 181.198 68.7245C179.713 68.6792 178.019 67.931 177.025 66.8207C176.504 66.2387 176.194 65.5602 176.248 64.7674C176.363 63.0668 178.059 61.8445 179.212 60.7924C182.439 57.8496 184.073 54.7475 183.385 50.2978C183.193 49.0566 182.746 47.7359 182.801 46.4854L183.201 46.5738C183.817 46.9989 183.947 47.8443 184.076 48.537C184.947 53.2224 184.358 57.1987 180.801 60.5946C179.769 61.5809 178.362 62.5316 177.595 63.7336C177.244 64.2841 177.124 64.906 177.314 65.5379C177.864 67.3709 180.321 67.2007 181.645 68.0211C181.898 68.1773 181.851 68.408 181.902 68.6802Z" fill="#CE8973"/>
<path d="M170.528 47.2893C171.439 47.1085 173.004 47.1756 173.789 47.6849L173.553 47.8282C172.545 47.5094 171.717 47.517 170.671 47.5433L170.528 47.2893Z" fill="#683935"/>
<path d="M173.552 47.8305C173.586 47.8591 173.622 47.8847 173.653 47.9163C174.242 48.5176 174.455 49.6288 174.419 50.4376C174.373 51.5083 173.806 52.6511 172.982 53.3372C172.417 53.8079 171.698 54.0782 170.958 53.9708C170.383 53.8871 169.901 53.56 169.569 53.0886C168.96 52.2227 168.735 50.7039 168.976 49.6854C169.21 48.6944 169.824 48.0559 170.671 47.5456C171.716 47.5194 172.545 47.5117 173.552 47.8305Z" fill="#302B28"/>
<path d="M195.353 51.7285C195.221 51.2475 195.202 51.2634 195.431 50.824C196.374 50.1791 197.649 50.2885 198.726 50.4806C199.938 50.6973 201.299 51.1218 202.161 52.0406L202.277 52.4774C202.051 52.8334 202.012 52.869 201.631 53.0475C201.144 52.9355 200.883 52.5695 200.557 52.2195C200.322 51.9166 199.914 51.6148 199.628 51.3499C199.567 51.3402 199.506 51.3299 199.445 51.3209L199.14 51.2784C198.161 51.1318 197.408 51.1288 196.473 51.4998C196.071 51.6593 195.784 51.7042 195.353 51.7285Z" fill="#5D5452"/>
<path d="M195.355 51.727C195.787 51.7027 196.073 51.6578 196.475 51.4983C197.41 51.1273 198.163 51.1303 199.142 51.2769L199.447 51.3194C199.509 51.3284 199.569 51.3387 199.63 51.3484C199.916 51.6133 200.324 51.9151 200.559 52.218C200.705 53.0227 200.815 53.75 200.693 54.5704C200.528 55.6747 200.158 57.123 199.169 57.7909C198.635 58.1519 198.021 58.1725 197.412 58.0262C196.705 57.856 196.013 57.4561 195.652 56.8056C194.749 55.1774 195.684 53.5549 196.096 51.9883L195.355 51.727Z" fill="#302B28"/>
<path d="M228.414 65.4644C228.185 65.4557 227.958 65.4498 227.732 65.4115C226.99 65.2865 226.018 64.9179 225.63 64.2212C225.205 63.4579 225.295 62.5717 225.55 61.7653C226.195 59.7196 227.796 58.3315 229.64 57.3917C230.405 57.3558 230.964 57.3874 231.617 57.8225C232.285 58.267 232.637 58.9531 232.749 59.7342C232.941 61.0649 232.531 62.5205 231.731 63.5922C230.841 64.7843 229.857 65.244 228.414 65.4644ZM229.482 58.3684C228.055 59.3875 226.513 60.8834 226.237 62.7137C226.174 63.1318 226.241 63.5523 226.518 63.8814C226.914 64.3531 227.693 64.4914 228.281 64.507C228.334 64.5084 228.388 64.504 228.442 64.5027C229.573 64.2713 230.327 63.8951 230.988 62.9178C231.587 62.0322 232.004 60.8099 231.727 59.7386C231.584 59.1834 231.28 58.8288 230.781 58.5442C230.344 58.2949 229.959 58.3122 229.482 58.3684Z" fill="#CE8973"/>
<path d="M228.442 64.5033C228.388 64.5046 228.335 64.5089 228.281 64.5076C227.693 64.492 226.914 64.3537 226.518 63.882C226.241 63.5529 226.175 63.1324 226.237 62.7142C226.513 60.884 228.056 59.3881 229.482 58.3689C229.96 58.3127 230.344 58.2955 230.781 58.5448C231.28 58.8293 231.584 59.184 231.728 59.7391C232.004 60.8105 231.587 62.0328 230.988 62.9183C230.327 63.8956 229.573 64.2719 228.442 64.5033Z" fill="#ECB7A6"/>
<path d="M261.489 105.436C264.994 100.498 266.047 95.6035 265.058 89.5798C263.955 82.868 259.927 77.6209 254.645 73.5472C251.83 71.3765 248.942 69.3385 246.974 66.3072C245.699 64.343 245.052 62.2438 244.525 59.9834C245.7 62.04 246.835 64.0651 248.472 65.8016C251.774 69.3049 255.832 71.8057 259.489 74.8818C265.896 80.2719 270.383 87.4254 268.082 96.0097C267.182 99.367 264.746 103.994 261.672 105.807L261.489 105.436Z" fill="#ECECEC"/>
<path d="M256.831 98.8606C258.664 94.147 259.221 89.5623 257.123 84.8328C256.181 82.7073 254.838 80.8614 253.19 79.2286C249.637 75.7084 244.05 73.0248 242.772 67.8534C242.616 67.2209 242.373 66.4896 242.511 65.8457L242.711 65.7652L242.585 65.7529L242.848 65.9607C243.399 67.5087 243.782 69.0475 244.693 70.4409C246.227 72.7898 248.777 74.6028 250.915 76.3901C256.567 81.1127 259.988 86.3745 258.832 94.027C258.549 95.8995 257.947 97.7447 257.396 99.5527L256.831 98.8606Z" fill="#453734"/>
<path d="M160.827 69.8818L160.946 71.2707C157.007 75.3554 152.97 78.9361 148.286 82.1432C146.806 83.1571 133.536 90.9854 133.419 91.1669L133.478 91.3607C132.909 91.5661 132.365 91.7058 131.77 91.8128C133.028 89.9227 144.114 84.2019 146.827 82.3886C150.828 79.7143 154.707 76.8525 158.044 73.3662C158.971 72.3979 160.386 71.1546 160.827 69.8818Z" fill="#453734"/>
<path d="M218.614 71.7252C219.616 71.183 220.608 70.818 221.748 70.6827C222.795 70.5581 224.876 70.6206 225.704 71.3499C225.893 71.5164 226.066 71.6544 226.274 71.7983L227.724 71.0271C230.071 71.5985 232.082 73.3779 233.308 75.4289C233.793 76.24 234.461 77.5677 234.318 78.527C233.533 77.1648 232.765 75.7929 232.015 74.4118C233.049 78.4084 233.569 82.1503 233.5 86.2879C233.485 87.1595 233.535 88.1311 233.369 88.9854C233.279 89.4534 233.186 89.6712 232.802 89.9458C232.178 89.7649 232.36 88.8564 232.389 88.2873C232.63 83.5967 233.238 76.7576 229.867 72.9794C229.82 72.9265 229.772 72.8747 229.724 72.8225C228.692 72.4469 227.595 72.3149 226.515 72.1394C227.993 75.541 228.107 78.8867 228.089 82.5399C228.085 83.5737 228.162 84.7618 227.862 85.755C227.741 86.1566 227.547 86.3903 227.187 86.6037L226.935 86.469C226.738 85.6091 227.014 84.2489 227.068 83.3444C227.236 80.5295 227.284 77.2722 226.447 74.5494C226.108 73.4454 225.515 72.3767 224.43 71.8648C222.813 71.1016 220.829 71.676 219.245 72.2544C219.274 72.3039 219.304 72.3528 219.332 72.4026C220.993 75.3744 222.055 80.4135 221.181 83.729C220.781 83.8819 220.763 83.8549 220.35 83.7236C220.353 82.8152 220.345 81.9067 220.327 80.9982C220.257 78.4925 220.069 74.4909 218.094 72.7055C217.159 71.8605 215.976 71.5979 214.742 71.657C211.942 71.791 208.88 73.2131 206.989 75.2877C204.781 77.7116 204.874 80.1376 205.02 83.1988C206.218 82.4089 207.398 81.5497 208.357 80.473C208.424 80.3975 208.489 80.3207 208.557 80.2459C209.31 79.4192 209.059 78.2608 209.721 77.5238L210.102 77.5308L210.409 77.8635C210.643 78.892 209.867 80.0315 209.222 80.8077C203.227 88.0271 189.631 88.9136 184.888 96.338C184.09 97.5876 183.714 99.1552 183.558 100.618C183.093 104.98 184.673 112.328 185.359 116.93C186.751 125.989 188.092 135.055 189.38 144.129C189.828 147.178 190.254 150.23 190.659 153.285C190.859 154.783 191.175 156.348 191.22 157.853C191.232 158.26 191.214 158.563 190.995 158.918L190.709 158.946C190.672 158.9 190.63 158.858 190.599 158.808C190.279 158.303 190.243 157.487 190.151 156.901C189.447 152.4 188.918 147.863 188.283 143.351L185.658 125.591C184.665 118.778 183.288 111.586 182.682 104.772C182.498 102.696 182.424 100.468 182.951 98.4336C184.653 91.8618 193.738 88.8814 199.228 86.3803C200.944 85.5988 202.575 84.6936 204.193 83.7283C203.906 81.4473 203.727 79.2444 204.713 77.0764C205.893 74.4812 208.343 72.5918 210.972 71.6195C213.54 70.6698 216.102 70.5521 218.614 71.7252Z" fill="#CE8973"/>
<path d="M133.479 91.3625L133.419 91.1687C133.536 90.9872 146.806 83.1589 148.287 82.145C152.97 78.9379 157.008 75.3572 160.946 71.2725C161.984 78.0484 163.656 84.1814 167.5 89.9617L167.276 90.4171C160.829 90.6259 154.338 90.4447 147.885 90.4577C143.63 90.4663 139.296 90.3543 135.099 91.1471L133.479 91.3625Z" fill="#564E4C"/>
<path d="M190.287 77.0531C187.583 76.5797 184.838 76.3484 182.128 75.8644C180.816 75.6304 175.731 74.8774 175.067 73.9237L175.254 73.2529C179.976 74.8578 185.195 75.4831 190.129 76.0602C190.423 76.4275 190.322 76.595 190.287 77.0531Z" fill="#CE8973"/>
<path d="M234.477 100.141C234.132 100.13 234.149 100.06 233.905 99.8383C233.449 98.2929 235.144 91.0985 235.528 89.0938C235.93 89.9401 235.74 90.6847 235.87 91.5729C235.706 94.408 235.163 97.3858 234.477 100.141Z" fill="#CE8973"/>
<path d="M167.502 89.96C168.453 90.7747 169.162 91.8521 169.982 92.7951L169.195 93.1046C168.487 92.2719 167.893 91.3189 167.278 90.4154L167.502 89.96Z" fill="#CE8973"/>
<path d="M135.099 91.147C139.295 90.3542 143.629 90.4662 147.885 90.4575C154.337 90.4446 160.829 90.6257 167.276 90.417C167.892 91.3205 168.485 92.2735 169.193 93.1062L169.256 93.3007C168.392 98.3913 168.44 103.752 168.17 108.908C167.563 120.482 166.541 131.97 170.359 143.151C171.374 146.122 172.656 149.014 174.47 151.589C177.408 155.76 181.632 159.301 186.782 160.188C188.015 160.4 189.306 160.465 190.55 160.307L194.999 190.73C195.909 196.763 196.259 203.4 198.623 209.06C200.491 213.503 203.536 217.351 207.43 220.19C209.579 221.771 212.044 223.124 214.603 223.903C215.704 224.238 217.103 224.325 218.082 224.91C206.728 225.189 195.337 225.028 183.98 225.006C175.073 224.989 166.164 225.149 157.258 225.081L157.128 224.766L158.059 224.655C159.958 224.782 162.07 224.478 163.91 224.008L164.887 223.808C166.884 223.226 168.641 222.572 170.25 221.211C173.144 218.927 173.364 214.847 174.362 211.588L174.403 211.455L174.539 211.515C176.674 214.558 183.362 222.728 186.331 224.626C187.05 224.236 188.185 223.743 188.378 222.862C188.552 222.07 188.05 221.435 187.594 220.855L186.363 219.316C186.44 219.271 186.518 219.229 186.592 219.182C187.431 218.643 187.916 217.57 188.106 216.627C188.439 214.982 188.145 213.047 187.608 211.472C186.419 207.983 181.03 199.582 178.755 196.339C176.482 192.413 173.965 191.809 170.393 189.585L170.22 189.476C169.375 188.203 168.216 187.008 167.236 185.82C165.863 184.156 164.549 182.434 163.14 180.8C162.437 179.986 161.824 179.321 160.686 179.268C159.534 179.215 158.42 179.543 157.597 180.366C156.709 181.254 156.48 182.261 156.479 183.48C153.344 185.062 150.414 186.963 147.204 188.405C135.47 193.675 126.429 191.139 114.41 189.909C117.193 186.283 120.803 183.22 123.229 179.309C123.674 168.724 122.892 158.283 120.337 147.984C119.825 145.92 119.244 143.873 118.595 141.848C118.074 140.218 117.117 138.434 117.003 136.739L117.275 136.514C117.553 136.609 117.644 136.702 117.824 136.946C118.901 138.404 119.474 141.041 119.991 142.789C122.984 152.908 125.452 167.745 124.136 178.191C131.146 168.548 139.092 152.063 142.525 140.766C146.548 127.524 150.211 110.512 143.239 97.6337C141.201 93.8681 139.154 92.3686 135.099 91.147Z" fill="#FEFEFE"/>
<path d="M133.476 91.3638L135.097 91.1484C139.152 92.3701 141.199 93.8696 143.237 97.6351C150.209 110.513 146.546 127.525 142.523 140.767C139.09 152.065 131.144 168.55 124.134 178.192C125.45 167.746 122.982 152.909 119.989 142.79C119.472 141.042 118.899 138.406 117.822 136.948C117.642 136.703 117.551 136.61 117.273 136.515L117.001 136.741C117.115 138.436 118.072 140.22 118.593 141.849C119.242 143.874 119.823 145.921 120.335 147.985C122.89 158.285 123.672 168.725 123.228 179.31C120.801 183.222 117.191 186.284 114.408 189.91C114.047 189.868 113.695 189.768 113.342 189.684C112.521 187.94 111.78 186.162 110.85 184.471C102.987 170.177 88.3451 159.372 72.8134 154.874C69.8789 154.026 66.7815 153.483 63.7209 153.541C66.0143 150.19 69.0921 147.114 71.8305 144.114C77.6441 137.812 83.5271 131.575 89.4786 125.402C91.3614 123.54 93.2312 121.664 95.0881 119.775C98.1436 117.158 100.879 113.94 103.77 111.125C107.509 107.485 111.524 104.158 115.516 100.803C117.065 99.855 118.555 98.6367 120.038 97.5776L122.538 96.0409L123.186 95.639C125.78 94.0049 128.811 92.6111 131.768 91.8159C132.363 91.7089 132.907 91.5693 133.476 91.3638Z" fill="#89A2D8"/>
<path d="M235.871 91.5746C241.236 90.6252 247.638 91.673 252.333 94.4493C241.411 98.2072 234.31 108.708 229.432 118.674C227.463 122.696 225.93 126.927 224.274 131.083C222.909 128.737 222.165 125.863 221.236 123.312L217.114 112.192C221.148 110.142 225.312 108.599 229.225 106.249C231.68 104.775 233.771 103.037 234.478 100.143C235.165 97.3875 235.707 94.4097 235.871 91.5746Z" fill="#FEFEFE"/>
<path d="M169.196 93.1073L169.983 92.7979C172.24 95.0862 175.678 97.3572 179.015 97.4264C180.091 97.449 181.191 97.3589 182.268 97.3074C182.35 97.7053 182.35 97.686 182.135 98.0317C180.595 98.8557 177.947 98.3801 176.323 97.8974C173.517 97.0634 171.282 95.3668 169.259 93.3018L169.196 93.1073Z" fill="#CE8973"/>
<path d="M224.272 131.082C225.929 126.926 227.461 122.695 229.43 118.673C234.309 108.707 241.41 98.2062 252.332 94.4482C254.099 95.509 255.511 97.3057 256.831 98.861L257.396 99.5531C258.426 100.877 260.634 104.722 261.488 105.437L261.671 105.808C261.803 106.164 261.916 106.479 262.115 106.806C270.183 124.786 271.621 150.157 270.928 169.75C270.751 174.775 270.639 180.128 269.608 185.069C267.62 180.287 265.991 177.487 261.746 174.372C254.12 169.403 246.332 167.038 237.776 164.268L236.776 164.068C236.221 161.882 234.996 159.672 234.188 157.557C231.686 151.118 229.247 144.654 226.872 138.168C230.63 131.437 235.295 125.868 241.449 121.23C242.984 120.073 244.676 119.12 246.197 117.96C246.566 117.679 246.72 117.57 246.771 117.105C246.443 116.919 246.235 116.875 245.862 116.997C244.565 117.417 243.152 118.55 242.049 119.337C235.601 123.911 230.253 129.863 226.393 136.762C225.495 135.038 224.925 132.925 224.272 131.082Z" fill="#89A2D8"/>
<path d="M53.7499 182.165L49.8141 132.788L48.3724 115.079C48.0669 111.409 47.6208 107.675 47.55 103.995C47.5304 102.962 47.6142 101.949 48.4146 101.191C49.2653 100.385 50.4443 100.426 51.534 100.418C52.2181 105.2 52.4152 110.128 52.8164 114.946C52.9537 116.594 52.9285 118.59 53.3004 120.171L53.7598 125.304C54.6726 137.057 55.6459 148.804 56.6797 160.547C57.1205 165.783 57.3951 171.042 57.9123 176.269C57.545 177.195 54.4599 183.195 53.9317 183.497C53.8792 183.052 53.8187 182.608 53.7499 182.165Z" fill="#683935"/>
<path d="M51.5344 100.418L102.683 100.554C104.571 100.559 114.625 100.284 115.353 100.581L115.52 100.801C111.527 104.156 107.513 107.482 103.774 111.123C100.883 113.938 98.1474 117.156 95.0918 119.773C88.2514 119.406 81.3416 119.556 74.4915 119.546C67.5441 119.536 60.5584 119.378 53.615 119.559C53.369 119.811 53.389 119.85 53.3009 120.171C52.9289 118.59 52.9542 116.594 52.8169 114.946C52.4157 110.128 52.2185 105.2 51.5344 100.418Z" fill="#F8E5C7"/>
<path d="M226.395 136.762C230.256 129.863 235.604 123.911 242.052 119.337C243.154 118.55 244.567 117.417 245.864 116.997C246.237 116.875 246.445 116.919 246.773 117.104C246.722 117.57 246.569 117.679 246.2 117.96C244.679 119.12 242.986 120.073 241.451 121.23C235.297 125.868 230.632 131.436 226.875 138.167L226.395 136.762Z" fill="#FEFEFE"/>
<path d="M53.3008 120.171C53.3889 119.85 53.3689 119.812 53.6149 119.56C60.5584 119.379 67.544 119.537 74.4915 119.547C81.3415 119.557 88.2514 119.406 95.0917 119.774C93.2349 121.663 91.3651 123.538 89.4823 125.401C87.0071 124.856 83.8578 125.21 81.3082 125.216L62.26 125.315C59.4807 125.324 56.5152 125.581 53.7602 125.304L53.3008 120.171Z" fill="#FEFEFE"/>
<path d="M53.7598 125.305C56.5148 125.581 59.4803 125.325 62.2596 125.315L81.3078 125.216C83.8574 125.21 87.0067 124.856 89.4819 125.401C83.5303 131.573 77.6473 137.811 71.8337 144.113C69.0953 147.113 66.0175 150.189 63.7242 153.54C63.4034 154.188 63.197 154.771 63.4676 155.483C64.1866 157.374 66.8794 159.177 68.3813 160.461C66.4719 162.972 64.6234 165.51 62.9284 168.172C61.6862 170.123 59.3686 174.902 57.9123 176.27C57.395 171.043 57.1205 165.784 56.6797 160.548C55.6459 148.805 54.6726 137.058 53.7598 125.305Z" fill="#F8E5C7"/>
<path d="M129.986 3.75684C144.173 2.29623 158.469 2.22929 172.669 3.55859C174.866 3.77498 178.201 3.80222 180.118 4.87012C178.059 5.38168 176.015 5.87872 174.031 6.64258C166.474 9.55153 159.351 15.2295 155.127 22.1855C151.971 27.3834 150.272 33.7527 151.781 39.7627C152.256 41.6578 153.035 43.3706 153.914 45.1074C152.902 51.1051 151.477 55.5953 146.295 59.2578C142.846 61.6953 138.844 63.0294 135.048 64.7979C127.096 68.5036 121.186 74.7664 119.648 83.5859C118.893 87.9114 118.916 93.3211 120.039 97.5762C118.556 98.6352 117.066 99.8544 115.517 100.803L115.351 100.582C114.621 100.286 104.569 100.56 102.681 100.556L51.5325 100.419C50.4428 100.427 49.263 100.386 48.4124 101.191C47.6119 101.95 47.5285 102.963 47.5481 103.996C47.6189 107.676 48.0649 111.41 48.3704 115.08L49.8118 132.789L53.7483 182.166C53.9393 185.002 51.5655 188.295 50.5051 190.936C47.3034 198.91 46.1921 207.353 50.3596 215.182C51.4768 217.28 52.9098 219.327 54.6692 220.941C54.7473 221.013 54.8306 221.079 54.9114 221.148C54.9449 222.451 54.9918 223.756 55.0081 225.06C43.1807 224.815 31.3111 225.053 19.4788 225.062L10.1487 225.047C8.57038 225.047 6.77669 225.192 5.21704 224.975C6.41116 224.54 20.2498 224.87 22.6799 224.875C19.687 220.962 17.3764 216.2 15.2239 211.783C7.05592 195.023 2.50085 179.758 0.593994 161.118C-3.1813 124.213 11.2627 85.8729 36.8772 59.3301C40.1989 55.8881 43.7 52.4501 47.3684 49.375C48.6397 48.3174 49.9333 47.2867 51.2483 46.2842C66.1352 32.7867 96.683 10.0639 125.068 5.04199C125.203 5.018 125.338 4.99612 125.472 4.97363C127.686 4.30288 129.419 3.81351 129.986 3.75684ZM282.661 140.726C283.031 140.766 283.377 140.783 283.702 140.986C284.819 141.684 285.039 143.326 285.309 144.5C285.484 144.486 285.659 144.473 285.834 144.461C286.983 144.383 287.881 144.258 288.793 145.056C288.968 145.481 289.043 145.6 288.9 146.062C288.577 147.097 287.223 147.65 286.349 148.111L286.829 149.685C287.122 150.623 287.321 151.384 286.953 152.334C286.764 152.493 286.658 152.654 286.399 152.672C285.218 152.751 283.995 151.451 283.19 150.709C282.465 150.717 280.896 152.717 279.509 152.8C279.096 152.824 279.014 152.711 278.776 152.43C278.472 151.032 279.148 149.422 279.72 148.163C279.406 148.003 279.096 147.834 278.791 147.658C278.094 147.25 277.105 146.53 277.022 145.638C276.982 145.213 277.155 144.93 277.448 144.647C278.256 143.868 279.802 144.124 280.808 144.17C281.359 142.948 281.896 141.831 282.661 140.726ZM35.9553 132.442C32.8123 133.054 30.7604 136.099 31.3733 139.242C31.9097 141.992 34.309 143.905 37.0061 143.929C34.3099 143.904 31.9116 141.992 31.3752 139.242C30.7623 136.099 32.815 133.054 35.9583 132.442C35.9999 132.434 36.0417 132.428 36.0833 132.421C36.0409 132.428 35.9977 132.434 35.9553 132.442ZM37.8127 143.879C37.5449 143.914 37.2786 143.931 37.0149 143.929C37.2786 143.931 37.5449 143.914 37.8127 143.879ZM39.3 143.481C39.0823 143.572 38.8564 143.648 38.6243 143.713C38.8557 143.648 39.081 143.573 39.2981 143.482L39.3 143.481ZM37.1243 132.335C37.016 132.334 36.9072 132.337 36.7981 132.342C36.9072 132.337 37.016 132.334 37.1243 132.335ZM95.2571 70.9785C94.3911 66.8074 90.3074 64.1273 86.136 64.9922C84.1144 65.4112 82.4453 66.5878 81.3577 68.1621C82.4453 66.5886 84.1141 65.4131 86.135 64.9941C90.3065 64.1292 94.3892 66.8093 95.2551 70.9805C95.6187 72.7313 95.3561 74.4655 94.6223 75.9541C95.3567 74.4651 95.6208 72.73 95.2571 70.9785Z" fill="#ECECEC"/>
<path d="M68.3824 160.46C66.8805 159.176 64.1876 157.373 63.4686 155.482C63.198 154.77 63.4045 154.187 63.7252 153.539C66.7858 153.481 69.8832 154.024 72.8177 154.872C71.3166 156.711 69.7868 158.546 68.3824 160.46Z" fill="#405C9F"/>
<path d="M72.8159 154.872C88.3476 159.371 102.989 170.175 110.852 184.47C111.782 186.16 112.523 187.939 113.344 189.682L113.228 189.726C106.965 188.587 100.72 187.359 94.4926 186.043C84.9507 184.015 70.5569 179.165 61.7499 185.319C60.7693 186.004 59.0368 187.496 58.7023 188.667C58.6548 188.833 58.6668 188.859 58.6761 189.009L58.8556 189.098C62.5979 184.816 65.9503 183.34 71.6724 182.97C78.1651 182.55 85.0291 184.537 91.3024 185.962C98.424 187.581 106.271 189.47 113.484 190.383C115.716 191.058 118.453 191.254 120.769 191.562C128.918 192.644 136.888 193.489 144.731 190.329C147.742 189.115 150.7 187.482 153.535 185.905C154.878 185.157 156.179 184.312 157.572 183.66L157.75 183.579L159.113 184.277C159.315 185.026 160.176 185.613 160.816 185.977C164.753 188.219 172.742 191.216 175.756 194.083C176.922 195.192 177.706 196.598 178.149 198.136C178.944 200.891 178.901 205.076 177.424 207.598C176.79 208.679 174.954 210.217 174.613 211.094L174.539 211.515L174.404 211.455C174.397 208.229 174.347 204.972 171.856 202.558C170.966 201.696 169.919 201.033 168.845 200.426C166.931 199.344 154.19 193.2 153.179 193.216L152.962 193.468C153.053 193.89 153.195 193.919 153.554 194.15C154.74 194.914 156.191 195.434 157.48 196.012C161.232 197.697 168.85 200.647 171.57 203.521C172.376 204.372 172.896 205.447 173.165 206.581C173.943 209.859 173.025 214.709 171.71 217.744C171.255 218.795 170.3 220.079 170.251 221.211C168.642 222.572 166.885 223.226 164.887 223.808C166.584 220.377 167.899 217.464 166.656 213.589C165.351 209.52 159.893 207.136 156.351 205.445C154.399 204.513 151.795 203.038 149.667 202.747C149.333 202.917 149.351 202.832 149.211 203.222C149.678 203.969 151.333 204.318 152.14 204.629C154.034 205.36 155.888 206.249 157.714 207.135C162.816 209.611 167.355 212.697 165.954 219.196C165.587 220.9 164.21 222.36 163.91 224.008C162.07 224.478 159.959 224.782 158.06 224.655C158.861 223.911 159.277 223.433 159.303 222.309C159.337 220.837 158.198 219.457 157.21 218.464C155.115 216.361 149.034 213.408 146.08 213.273C145.815 213.261 145.796 213.275 145.572 213.314C145.672 213.713 145.974 213.865 146.318 214.063C147.469 214.726 148.979 215.072 150.237 215.51C153.033 216.482 157.148 218.31 158.098 221.388C158.236 221.834 158.409 222.509 158.224 222.963C157.867 223.844 156.737 224.02 156.133 224.656C156.482 224.747 156.769 224.769 157.129 224.766L157.258 225.081C155.63 225.024 154.001 225.011 152.371 225.042L152.364 224.92C151.777 224.483 150.531 224.487 149.792 224.45C143.977 224.156 138.017 224.403 132.184 224.419C128.312 224.43 124.444 224.514 120.572 224.569C118.224 224.602 115.839 224.526 113.5 224.732C112.011 224.708 109.884 224.497 108.506 225.063C105.976 225.237 103.35 225.099 100.806 225.103L85.915 225.121L69.2146 225.121C66.8844 225.129 64.5046 225.322 62.1824 225.22C61.7649 225.202 61.466 225.129 61.0784 224.982C58.7848 223.922 56.9027 222.676 54.9122 221.148C54.8314 221.079 54.7483 221.013 54.6702 220.941C52.9107 219.326 51.4783 217.28 50.3611 215.181C46.1933 207.353 47.3042 198.909 50.506 190.935C51.5664 188.294 53.9402 185.001 53.7491 182.165C53.8179 182.608 53.8784 183.052 53.9309 183.498C54.4591 183.195 57.5442 177.196 57.9115 176.269C59.3678 174.901 61.6854 170.123 62.9276 168.172C64.6226 165.51 66.4712 162.971 68.3805 160.461C69.785 158.546 71.3148 156.712 72.8159 154.872Z" fill="#ECB7A6"/>
<path d="M236.776 164.069L237.777 164.269C239.171 167.342 248.939 192.271 248.833 193.454L248.587 193.652L248.194 193.555C247.055 191.578 246.517 189.066 245.652 186.94L239.668 171.825C238.7 169.37 237.276 166.638 236.776 164.069Z" fill="#CE8973"/>
<path d="M261.746 174.37C265.991 177.485 267.62 180.285 269.608 185.067C269.357 187.288 268.761 189.215 266.941 190.658C264.125 192.89 260.374 192.987 256.954 193.146C257.156 191.325 258.186 189.26 258.702 187.481C259.944 183.204 261.1 178.781 261.746 174.37Z" fill="#405C9F"/>
<path d="M156.48 183.481C156.481 182.262 156.71 181.255 157.598 180.367C158.421 179.543 159.535 179.216 160.687 179.269C161.825 179.321 162.438 179.987 163.141 180.801C164.55 182.434 165.864 184.157 167.237 185.821C168.217 187.009 169.376 188.204 170.221 189.477C168.637 189.172 161.279 185.286 159.114 184.278L157.751 183.58L156.48 183.481Z" fill="#89A2D8"/>
<path d="M113.484 190.384C106.27 189.471 98.4235 187.581 91.3019 185.963C85.0286 184.537 78.1646 182.551 71.6719 182.971C65.9497 183.341 62.5973 184.817 58.855 189.099L58.6755 189.009C58.6662 188.86 58.6543 188.834 58.7018 188.668C59.0362 187.497 60.7687 186.005 61.7494 185.32C70.5563 179.166 84.9501 184.016 94.492 186.044C100.719 187.36 106.965 188.588 113.227 189.726C113.347 189.955 113.469 190.122 113.484 190.384Z" fill="#CE8973"/>
<path d="M114.411 189.907C126.431 191.137 135.471 193.673 147.205 188.403C150.416 186.961 153.346 185.06 156.481 183.479L157.751 183.577L157.573 183.659C156.18 184.31 154.879 185.155 153.536 185.903C150.701 187.48 147.743 189.114 144.732 190.327C136.888 193.487 128.918 192.642 120.77 191.56C118.454 191.253 115.717 191.056 113.485 190.381C113.47 190.12 113.348 189.953 113.229 189.724L113.345 189.68C113.698 189.764 114.051 189.865 114.411 189.907Z" fill="#CE8973"/>
<path d="M174.616 211.092C174.956 210.215 176.793 208.678 177.426 207.597C178.903 205.074 178.946 200.89 178.151 198.135C177.708 196.597 176.924 195.191 175.758 194.082C172.744 191.215 164.755 188.217 160.818 185.976C160.178 185.611 159.317 185.024 159.115 184.275C161.281 185.283 168.638 189.169 170.223 189.475L170.395 189.584C173.968 191.807 176.485 192.412 178.758 196.337C178.754 196.419 178.748 196.501 178.746 196.583C178.712 197.629 179.201 198.891 179.35 199.949C179.893 203.799 179.247 207.521 176.572 210.457C175.921 210.721 175.303 210.944 174.616 211.092Z" fill="#CE8973"/>
<path d="M170.25 221.214C170.299 220.081 171.254 218.798 171.709 217.747C173.024 214.712 173.942 209.861 173.164 206.584C172.895 205.45 172.375 204.375 171.569 203.524C168.849 200.65 161.232 197.699 157.479 196.015C156.19 195.437 154.74 194.916 153.554 194.153C153.194 193.922 153.052 193.893 152.962 193.471L153.179 193.219C154.19 193.202 166.93 199.347 168.844 200.428C169.918 201.035 170.965 201.699 171.856 202.561C174.346 204.975 174.396 208.232 174.403 211.458L174.362 211.59C173.364 214.85 173.143 218.93 170.25 221.214Z" fill="#CE8973"/>
<path d="M178.758 196.339C181.033 199.583 186.422 207.983 187.611 211.472C188.148 213.047 188.442 214.982 188.109 216.627C187.919 217.57 187.434 218.643 186.595 219.182C186.521 219.229 186.443 219.271 186.366 219.316C185.082 217.721 182.945 217.033 181.436 215.656C179.698 214.071 178.441 211.857 176.573 210.458C179.247 207.523 179.893 203.801 179.35 199.951C179.201 198.893 178.712 197.631 178.746 196.585C178.749 196.503 178.754 196.421 178.758 196.339Z" fill="#ECB7A6"/>
<path d="M255.766 196.495C256.072 196.973 256.321 197.437 256.498 197.979C257.352 200.602 257.707 203.587 258.229 206.304C259.441 212.472 260.554 218.66 261.566 224.864L240.104 224.854C236.972 224.853 232.839 224.544 229.816 224.943C229.126 224.991 228.404 224.926 227.711 224.906C228.764 224.275 233.773 223.581 235.982 222.538C246.555 217.543 251.988 206.988 255.766 196.495Z" fill="#FEFEFE"/>
<path d="M164.887 223.807L163.91 224.007C164.209 222.359 165.587 220.899 165.954 219.195C167.355 212.696 162.816 209.609 157.714 207.134C155.888 206.248 154.034 205.359 152.14 204.628C151.333 204.317 149.677 203.968 149.21 203.221C149.351 202.831 149.332 202.916 149.667 202.746C151.794 203.037 154.399 204.512 156.35 205.444C159.892 207.135 165.351 209.519 166.656 213.588C167.899 217.463 166.584 220.376 164.887 223.807Z" fill="#CE8973"/>
<path d="M174.615 211.093C175.302 210.945 175.921 210.721 176.572 210.457C178.44 211.855 179.697 214.07 181.435 215.654C182.944 217.031 185.081 217.72 186.365 219.315L187.596 220.854C188.052 221.434 188.554 222.069 188.38 222.86C188.187 223.741 187.052 224.235 186.333 224.624C183.364 222.726 176.676 214.557 174.541 211.513L174.615 211.093Z" fill="#89A2D8"/>
<path d="M158.061 224.655L157.13 224.766C156.77 224.769 156.483 224.747 156.134 224.657C156.738 224.021 157.868 223.844 158.226 222.964C158.41 222.509 158.237 221.834 158.099 221.388C157.149 218.31 153.034 216.482 150.238 215.51C148.981 215.072 147.47 214.727 146.319 214.064C145.975 213.865 145.673 213.713 145.573 213.315C145.797 213.275 145.816 213.262 146.081 213.274C149.035 213.408 155.116 216.362 157.211 218.465C158.199 219.457 159.339 220.838 159.304 222.309C159.278 223.434 158.863 223.911 158.061 224.655Z" fill="#CE8973"/>
<path d="M54.9131 221.149C56.9036 222.677 58.7857 223.923 61.0793 224.983C59.7278 225.505 56.5143 225.169 55.0105 225.061C54.9942 223.757 54.9467 222.452 54.9131 221.149Z" fill="#4A292A"/>
<path d="M113.501 224.732C115.839 224.526 118.224 224.602 120.573 224.569C124.444 224.514 128.312 224.43 132.184 224.419C138.017 224.403 143.977 224.156 149.792 224.45C150.532 224.487 151.778 224.483 152.364 224.92L152.372 225.043C146.517 225.221 140.625 225.091 134.766 225.093C127.131 225.123 119.496 225.111 111.861 225.057C112.44 224.921 112.983 225.053 113.501 224.732Z" fill="#FEFEFE"/>
<path d="M108.506 225.064C109.884 224.498 112.011 224.709 113.5 224.732C112.982 225.054 112.439 224.922 111.86 225.058C110.76 225.139 109.611 225.069 108.506 225.064Z" fill="white"/>
<path d="M5.07538 225.07C6.60314 225.295 8.35955 225.145 9.90558 225.145L19.0447 225.161C30.6354 225.152 42.2625 224.905 53.8483 225.159C55.3214 225.271 58.4691 225.619 59.793 225.078C60.1727 225.23 60.4654 225.306 60.8744 225.325C63.1492 225.431 65.4803 225.23 67.7628 225.223L84.1218 225.222L98.7088 225.203C101.201 225.2 103.773 225.342 106.251 225.162C107.333 225.167 108.46 225.241 109.537 225.156C117.016 225.212 124.494 225.224 131.973 225.193C137.712 225.192 143.484 225.326 149.219 225.141C150.815 225.108 152.411 225.121 154.006 225.181C162.73 225.252 171.457 225.085 180.182 225.103C191.307 225.125 202.466 225.292 213.587 225.003C215.518 225.068 217.454 225.001 219.386 225C220.564 225 221.854 225.137 223.02 225C223.698 225.02 224.406 225.088 225.081 225.039C227.516 225.203 229.992 225.112 232.431 225.111L244.682 225.11L285.224 225.128L306.788 225.153C309.525 225.154 313.415 225.518 316.033 225.037C316.565 225.164 317.106 225.285 317.596 225.546C318.679 226.123 319.529 227.182 319.856 228.422C320.145 229.563 319.996 230.779 319.437 231.802C318.867 232.844 317.928 233.502 316.832 233.776C315.172 234.19 312.99 233.903 311.265 233.901L300.512 233.89L254.71 233.912L54.4474 233.873L20.1958 233.888L9.94381 233.862C8.34819 233.86 6.69288 233.999 5.10635 233.851C4.28794 233.774 3.54108 233.567 2.84126 233.099C1.89346 232.465 1.25235 231.48 1.05854 230.307C0.861839 229.117 1.16984 227.906 1.84686 226.941C2.71219 225.709 3.67292 225.26 5.07538 225.07Z" fill="#9D7D70"/>
<path d="M293.5 91C304.822 91 314 81.598 314 70C314 58.402 304.822 49 293.5 49C282.178 49 273 58.402 273 70C273 81.598 282.178 91 293.5 91Z" fill="#F37E60"/>
</svg>
