<svg width="353" height="1584" viewBox="0 0 353 1584" fill="none" xmlns="http://www.w3.org/2000/svg">
<mask id="mask0_2010_467" style="mask-type:alpha" maskUnits="userSpaceOnUse" x="0" y="0" width="353" height="1584">
<rect width="353" height="1584" fill="#D9D9D9"/>
</mask>
<g mask="url(#mask0_2010_467)">
<path d="M0 10C0 4.47717 4.47445 0 9.9973 0C110.795 0 239.439 0 253.485 0C268 0 299 23.2994 322.5 54.9628C346 86.6261 353 104.676 353 112.913C353 120.809 352.824 1775.43 352.809 1912.05C352.809 1917.57 348.332 1921 342.809 1921H9.99999C4.47714 1921 0 1916.52 0 1911V10Z" fill="white"/>
<path opacity="0.41" d="M272.091 17C272.219 17.6571 272.336 18.324 272.441 19H26C21.5817 19 18 22.5817 18 27V1930C18 1934.42 21.5817 1938 26 1938H327C331.418 1938 335 1934.42 335 1930V78.4512C335.682 79.2446 336.349 80.0406 337 80.8379V1930C337 1935.35 332.798 1939.72 327.515 1939.99L327 1940H26C20.6498 1940 16.2805 1935.8 16.0127 1930.51L16 1930V27C16 21.4772 20.4772 17 26 17H272.091Z" fill="#F37E60"/>
<path d="M268.112 9C268.512 9.63836 268.887 10.3056 269.236 11H18C13.5817 11 10 14.5817 10 19V1883C10 1887.42 13.5817 1891 18 1891H335C339.418 1891 343 1887.42 343 1883V87.5898C343.698 88.5633 344.367 89.5299 345 90.4893V1883C345 1888.35 340.798 1892.72 335.515 1892.99L335 1893H18L17.4854 1892.99C12.2017 1892.72 8 1888.35 8 1883V19C8 13.4772 12.4772 9 18 9H268.112Z" fill="#6683C2"/>
<path opacity="0.32" d="M251 0.0503379C271.627 -1.26592 275.544 23.4688 272.193 46.3936C309.009 42.4448 352.009 90.6528 353 111C351.442 77.8741 283.191 -2.03374 251 0.0503379Z" fill="url(#paint0_radial_2010_467)"/>
</g>
<defs>
<radialGradient id="paint0_radial_2010_467" cx="0" cy="0" r="1" gradientTransform="matrix(-9.06102 -190.791 164.2 -10.5284 209.431 181.226)" gradientUnits="userSpaceOnUse">
<stop offset="0.788" stop-color="white"/>
<stop offset="0.8127" stop-color="#FAFAFA"/>
<stop offset="0.8417" stop-color="#ECECEC"/>
<stop offset="0.8728" stop-color="#D4D4D4"/>
<stop offset="0.9056" stop-color="#B3B3B3"/>
<stop offset="0.9392" stop-color="#898989"/>
<stop offset="0.9457" stop-color="#808080"/>
<stop offset="0.9661" stop-color="#828282"/>
<stop offset="0.978" stop-color="#8B8B8B"/>
<stop offset="0.9876" stop-color="#999999"/>
<stop offset="0.996" stop-color="#ACACAC"/>
<stop offset="1" stop-color="#B9B9B9"/>
</radialGradient>
</defs>
</svg>
