<svg preserveAspectRatio="none" width="353" height="1135" viewBox="0 0 353 1135" fill="none" xmlns="http://www.w3.org/2000/svg">
<mask id="mask0_2025_1306" style="mask-type:alpha" maskUnits="userSpaceOnUse" x="0" y="0" width="353" height="1135">
<rect width="353" height="1135" fill="#D9D9D9"/>
</mask>
<g mask="url(#mask0_2025_1306)">
<g filter="url(#filter0_d_2025_1306)">
<path d="M0 10C0 4.47715 4.47445 0 9.9973 0C110.795 0 239.439 0 253.485 0C268 0 299 19.9675 322.5 47.1027C346 74.238 353 89.707 353 96.7654C353 103.445 352.828 1113.7 352.81 1222.11C352.809 1227.63 348.332 1231.5 342.81 1231.5H9.99999C4.47714 1231.5 0 1227.02 0 1221.5V10Z" fill="white"/>
</g>
<path opacity="0.41" d="M272.091 17C272.219 17.6571 272.336 18.324 272.441 19H26C21.5817 19 18 22.5817 18 27V1137C18 1141.42 21.5817 1145 26 1145H327C331.418 1145 335 1141.42 335 1137V78.4512C335.682 79.2446 336.349 80.0406 337 80.8379V1137L336.987 1137.51C336.728 1142.63 332.628 1146.73 327.515 1146.99L327 1147H26L25.4854 1146.99C20.3721 1146.73 16.2719 1142.63 16.0127 1137.51L16 1137V27C16 21.6498 20.2017 17.2805 25.4854 17.0127L26 17H272.091Z" fill="#F37E60"/>
<path d="M268.995 9C269.374 9.64069 269.725 10.3081 270.05 11H18C13.5817 11 10 14.5817 10 19V1141C10 1145.42 13.5817 1149 18 1149H335C339.418 1149 343 1145.42 343 1141V76.6504C343.698 77.5033 344.366 78.3506 345 79.1914V1141L344.987 1141.51C344.728 1146.63 340.628 1150.73 335.515 1150.99L335 1151H18L17.4854 1150.99C12.3721 1150.73 8.2719 1146.63 8.0127 1141.51L8 1141V19C8.00001 13.6498 12.2017 9.28054 17.4854 9.0127L18 9H268.995Z" fill="#6683C2"/>
<path opacity="0.32" d="M251 0.0435355C271.627 -1.09485 275.544 20.2973 272.193 40.1242C309.009 36.7091 352.009 78.4024 353 96C351.442 67.3506 283.191 -1.75891 251 0.0435355Z" fill="url(#paint0_radial_2025_1306)"/>
</g>
<defs>
<filter id="filter0_d_2025_1306" x="-16" y="-19" width="385" height="1263.5" filterUnits="userSpaceOnUse" color-interpolation-filters="sRGB">
<feFlood flood-opacity="0" result="BackgroundImageFix"/>
<feColorMatrix in="SourceAlpha" type="matrix" values="0 0 0 0 0 0 0 0 0 0 0 0 0 0 0 0 0 0 127 0" result="hardAlpha"/>
<feOffset dy="-3"/>
<feGaussianBlur stdDeviation="8"/>
<feComposite in2="hardAlpha" operator="out"/>
<feColorMatrix type="matrix" values="0 0 0 0 0 0 0 0 0 0 0 0 0 0 0 0 0 0 0.09 0"/>
<feBlend mode="normal" in2="BackgroundImageFix" result="effect1_dropShadow_2025_1306"/>
<feBlend mode="normal" in="SourceGraphic" in2="effect1_dropShadow_2025_1306" result="shape"/>
</filter>
<radialGradient id="paint0_radial_2025_1306" cx="0" cy="0" r="1" gradientUnits="userSpaceOnUse" gradientTransform="translate(209.431 156.736) rotate(-93.1431) scale(165.257 164.452)">
<stop offset="0.788" stop-color="white"/>
<stop offset="0.8127" stop-color="#FAFAFA"/>
<stop offset="0.8417" stop-color="#ECECEC"/>
<stop offset="0.8728" stop-color="#D4D4D4"/>
<stop offset="0.9056" stop-color="#B3B3B3"/>
<stop offset="0.9392" stop-color="#898989"/>
<stop offset="0.9457" stop-color="#808080"/>
<stop offset="0.9661" stop-color="#828282"/>
<stop offset="0.978" stop-color="#8B8B8B"/>
<stop offset="0.9876" stop-color="#999999"/>
<stop offset="0.996" stop-color="#ACACAC"/>
<stop offset="1" stop-color="#B9B9B9"/>
</radialGradient>
</defs>
</svg>
