<svg width="1920" height="353" fill="none" xmlns="http://www.w3.org/2000/svg"><mask id="a" style="mask-type:alpha" maskUnits="userSpaceOnUse" x="0" y="0" width="1920" height="353"><path fill="#D9D9D9" d="M0 0h1920v353H0z"/></mask><g mask="url(#a)"><path d="M933.16 352.944h-15.824v-251.51h15.824v251.51Z" fill="#6683C2"/><path d="M948.98 352.944h-15.824V74.648h15.824v278.296Z" fill="#6683C2"/><path d="M964.785 352.944h-15.824V90.243h15.824v262.701ZM996.426 352.944h-15.824V104.461h15.824v248.483ZM980.613 75.703h-15.824V55.82h15.824v19.883ZM948.98 60.888h-15.824V41.532h15.824v19.356Z" fill="#6683C2"/><path d="M1012.23 352.944h-15.824V90.243h15.824v262.701Z" fill="#6683C2"/><path d="M1028.06 352.944h-15.83V112.167h15.83v240.777Z" fill="#6683C2"/><path d="M1043.88 352.944h-15.83V128.083h15.83v224.861Z" fill="#6683C2"/><path d="M1059.68 352.944h-15.82V94.417h15.82v258.527ZM1091.33 55.178h-15.82V34.33h15.82v20.846ZM1091.33 20.778h-15.82V4.38h15.82v16.398ZM1075.5 352.944h-15.82V83.294h15.82v269.65ZM1091.33 352.944h-15.82V69.809h15.82v283.135Z" fill="#6683C2"/><path d="M1107.13 352.944h-15.83V112.167h15.83v240.777ZM1138.78 54.031h-15.83V30.203h15.83v23.828ZM1296.93 62.447h-15.83v-18.07h15.83v18.07ZM1202.03 45.293h-15.83V28.368h15.83v16.925ZM1202.03 17.315h-15.83V0h15.83v17.315ZM1170.4 62.058h-15.82V44.743h15.82v17.315ZM1043.88 82.056h-15.83V55.82h15.83v26.236ZM1043.88 42.656h-15.83v-16.65h15.83v16.65ZM1012.23 63.824h-15.824V46.508h15.824v17.315ZM980.613 37.29h-15.824V19.975h15.824V37.29ZM1122.96 352.944h-15.83V94.417h15.83v258.527Z" fill="#6683C2"/><path d="M1138.78 352.944h-15.83V83.294h15.83v269.65Z" fill="#6683C2"/><path d="M1154.58 352.944h-15.82V112.167h15.82v240.777ZM1170.4 352.944h-15.82V138.815h15.82v214.129Z" fill="#6683C2"/><path d="M1186.21 352.944h-15.83V77.698h15.83v275.246ZM980.613 352.944h-15.824V118.68h15.824v234.264Z" fill="#6683C2"/><path d="M1202.03 352.944h-15.83V57.884h15.83v295.06Z" fill="#6683C2"/><path d="M1217.85 352.944h-15.83V69.809h15.83v283.135Z" fill="#6683C2"/><path d="M1233.66 352.944h-15.82V90.243h15.82v262.701ZM1265.3 352.944h-15.82V92.926h15.82v260.018Z" fill="#6683C2"/><path d="M1281.11 352.944h-15.83V130.238h15.83v222.706ZM1265.3 76.918h-15.82v-34.95h15.82v34.95ZM1360.2 56.37h-15.82V38.528h15.82V56.37ZM1265.3 31.671h-15.82V13.646h15.82V31.67Z" fill="#6683C2"/><path d="M1296.93 352.944h-15.83V77.698h15.83v275.246ZM1312.75 352.944h-15.82V90.243h15.82v262.701ZM1249.47 352.944h-15.82V106.823h15.82v246.121Z" fill="#6683C2"/><path d="M1328.55 352.944h-15.82V56.278h15.82v296.666ZM1328.55 33.735h-15.82V16.65h15.82v17.085ZM1344.38 352.944h-15.83V69.809h15.83v283.135ZM1360.2 352.944h-15.82V87.582h15.82v265.362Z" fill="#6683C2"/><path d="M1376 352.944h-15.82V118.68H1376v234.264Z" fill="#6683C2"/><path d="M980.613 150.902h-15.824v-17.177h15.824v17.177ZM1043.88 172.413h-15.83v-17.017h15.83v17.017ZM1217.85 130.009h-15.83v-17.016h15.83v17.016ZM1281.1 172.482h-15.83v-17.131h15.83v17.131ZM1344.38 130.055h-15.83v-17.131h15.83v17.131ZM1107.13 150.832h-15.83v-24.011h15.83v24.011Z" fill="#F8F8F8"/><path d="M15.824 352.944H0v-251.51h15.824v251.51Z" fill="#6683C2"/><path d="M31.644 352.944H15.82V74.648h15.824v278.296Z" fill="#6683C2"/><path d="M47.449 352.944H31.625V90.243h15.824v262.701ZM79.097 352.944H63.273V104.461h15.824v248.483ZM63.27 75.703H47.444V55.82H63.27v19.883ZM31.644 60.888H15.82V41.532h15.824v19.356Z" fill="#6683C2"/><path d="M94.894 352.944H79.07V90.243h15.824v262.701ZM110.722 352.944H94.898V112.167h15.824v240.777Z" fill="#6683C2"/><path d="M126.543 352.944h-15.824V128.083h15.824v224.861Z" fill="#6683C2"/><path d="M142.347 352.944h-15.824V94.417h15.824v258.527ZM173.988 55.178h-15.824V34.33h15.824v20.846ZM173.988 20.778h-15.824V4.38h15.824v16.398ZM158.176 352.944h-15.824V83.294h15.824v269.65Z" fill="#6683C2"/><path d="M173.988 352.944h-15.824V69.809h15.824v283.135Z" fill="#6683C2"/><path d="M189.801 352.944h-15.824V112.167h15.824v240.777ZM221.441 54.031h-15.824V30.203h15.824v23.828ZM379.59 62.447h-15.824v-18.07h15.824v18.07ZM284.691 45.293h-15.824V28.368h15.824v16.925ZM284.691 17.315h-15.824V0h15.824v17.315ZM253.066 62.058h-15.824V44.743h15.824v17.315ZM126.543 82.056h-15.824V55.82h15.824v26.236ZM126.543 42.656h-15.824v-16.65h15.824v16.65ZM94.894 63.824H79.07V46.508h15.824v17.315ZM63.27 37.29H47.444V19.975H63.27V37.29Z" fill="#6683C2"/><path d="M205.621 352.944h-15.824V94.417h15.824v258.527Z" fill="#6683C2"/><path d="M221.441 352.944h-15.824V83.294h15.824v269.65Z" fill="#6683C2"/><path d="M237.246 352.944h-15.824V112.167h15.824v240.777Z" fill="#6683C2"/><path d="M253.066 352.944h-15.824V138.815h15.824v214.129Z" fill="#6683C2"/><path d="M268.871 352.944h-15.824V77.698h15.824v275.246ZM63.27 352.944H47.444V118.68H63.27v234.264Z" fill="#6683C2"/><path d="M284.691 352.944h-15.824V57.884h15.824v295.06ZM300.519 352.944h-15.824V69.809h15.824v283.135Z" fill="#6683C2"/><path d="M316.316 352.944h-15.824V90.243h15.824v262.701ZM347.965 352.944h-15.824V92.926h15.824v260.018Z" fill="#6683C2"/><path d="M363.769 352.944h-15.824V130.238h15.824v222.706ZM347.965 76.918h-15.824v-34.95h15.824v34.95ZM442.863 56.37h-15.824V38.528h15.824V56.37ZM347.965 31.671h-15.824V13.646h15.824V31.67Z" fill="#6683C2"/><path d="M379.59 352.944h-15.824V77.698h15.824v275.246ZM395.418 352.944h-15.824V90.243h15.824v262.701ZM332.144 352.944H316.32V106.823h15.824v246.121Z" fill="#6683C2"/><path d="M411.222 352.944h-15.824V56.278h15.824v296.666ZM411.222 33.735h-15.824V16.65h15.824v17.085Z" fill="#6683C2"/><path d="M427.043 352.944h-15.824V69.809h15.824v283.135Z" fill="#6683C2"/><path d="M442.863 352.944h-15.824V87.582h15.824v265.362Z" fill="#6683C2"/><path d="M458.66 352.944h-15.824V118.68h15.824v234.264Z" fill="#6683C2"/><path d="M63.27 150.902H47.444v-17.177H63.27v17.177ZM126.543 172.413h-15.824v-17.017h15.824v17.017ZM427.043 130.055h-15.824v-17.131h15.824v17.131ZM189.801 150.832h-15.824v-24.011h15.824v24.011Z" fill="#F8F8F8"/><path d="M1391.82 352.944H1376v-251.51h15.82v251.51ZM1407.64 352.944h-15.82V74.648h15.82v278.296Z" fill="#6683C2"/><path d="M1423.45 352.944h-15.83V90.243h15.83v262.701ZM1455.1 352.944h-15.83V104.461h15.83v248.483ZM1439.27 75.703h-15.82V55.82h15.82v19.883ZM1407.64 60.888h-15.82V41.532h15.82v19.356Z" fill="#6683C2"/><path d="M1470.89 352.944h-15.82V90.243h15.82v262.701ZM1486.72 352.944h-15.82V112.167h15.82v240.777ZM1502.54 352.944h-15.82V128.083h15.82v224.861Z" fill="#6683C2"/><path d="M1518.35 352.944h-15.83V94.417h15.83v258.527ZM1549.99 55.178h-15.83V34.33h15.83v20.846ZM1549.99 20.778h-15.83V4.38h15.83v16.398ZM1534.18 352.944h-15.83V83.294h15.83v269.65Z" fill="#6683C2"/><path d="M1549.99 352.944h-15.83V69.809h15.83v283.135Z" fill="#6683C2"/><path d="M1565.8 352.944h-15.82V112.167h15.82v240.777ZM1597.44 54.031h-15.82V30.203h15.82v23.828ZM1755.59 62.447h-15.82v-18.07h15.82v18.07ZM1660.69 45.293h-15.82V28.368h15.82v16.925ZM1660.69 17.315h-15.82V0h15.82v17.315ZM1629.07 62.058h-15.83V44.743h15.83v17.315ZM1502.54 82.056h-15.82V55.82h15.82v26.236ZM1502.54 42.656h-15.82v-16.65h15.82v16.65ZM1470.89 63.824h-15.82V46.508h15.82v17.315ZM1439.27 37.29h-15.82V19.975h15.82V37.29ZM1581.62 352.944h-15.82V94.417h15.82v258.527ZM1597.44 352.944h-15.82V83.294h15.82v269.65Z" fill="#6683C2"/><path d="M1613.25 352.944h-15.83V112.167h15.83v240.777Z" fill="#6683C2"/><path d="M1629.07 352.944h-15.83V138.815h15.83v214.129Z" fill="#6683C2"/><path d="M1644.87 352.944h-15.82V77.698h15.82v275.246ZM1439.27 352.944h-15.82V118.68h15.82v234.264ZM1660.69 352.944h-15.82V57.884h15.82v295.06ZM1676.52 352.944h-15.82V69.809h15.82v283.135Z" fill="#6683C2"/><path d="M1692.32 352.944h-15.83V90.243h15.83v262.701ZM1723.96 352.944h-15.82V92.926h15.82v260.018Z" fill="#6683C2"/><path d="M1739.77 352.944h-15.82V130.238h15.82v222.706ZM1723.96 76.918h-15.82v-34.95h15.82v34.95ZM1818.86 56.37h-15.82V38.528h15.82V56.37ZM1723.96 31.671h-15.82V13.646h15.82V31.67ZM1755.59 352.944h-15.82V77.698h15.82v275.246ZM1771.42 352.944h-15.83V90.243h15.83v262.701ZM1708.14 352.944h-15.82V106.823h15.82v246.121Z" fill="#6683C2"/><path d="M1787.22 352.944h-15.82V56.278h15.82v296.666ZM1787.22 33.735h-15.82V16.65h15.82v17.085ZM1803.04 352.944h-15.82V69.809h15.82v283.135ZM1818.86 352.944h-15.82V87.582h15.82v265.362Z" fill="#6683C2"/><path d="M1834.66 352.944h-15.82V118.68h15.82v234.264Z" fill="#6683C2"/><path d="M1439.27 150.902h-15.82v-17.177h15.82v17.177ZM1502.54 172.413h-15.82v-17.017h15.82v17.017ZM1803.04 130.055h-15.82v-17.131h15.82v17.131ZM1565.8 150.832h-15.82v-24.011h15.82v24.011Z" fill="#F8F8F8"/><path d="M474.488 352.944h-15.824v-251.51h15.824v251.51ZM490.316 352.944h-15.824V74.648h15.824v278.296Z" fill="#6683C2"/><path d="M506.113 352.944h-15.824V90.243h15.824v262.701ZM537.761 352.944h-15.823V104.461h15.823v248.483ZM521.941 75.703h-15.824V55.82h15.824v19.883ZM490.316 60.888h-15.824V41.532h15.824v19.356Z" fill="#6683C2"/><path d="M553.566 352.944h-15.824V90.243h15.824v262.701ZM569.394 352.944H553.57V112.167h15.824v240.777Z" fill="#6683C2"/><path d="M585.207 352.944h-15.824V128.083h15.824v224.861Z" fill="#6683C2"/><path d="M601.019 352.944h-15.824V94.417h15.824v258.527ZM632.66 55.178h-15.824V34.33h15.824v20.846ZM632.66 20.778h-15.824V4.38h15.824v16.398Z" fill="#6683C2"/><path d="M616.832 352.944h-15.824V83.294h15.824v269.65ZM632.66 352.944h-15.824V69.809h15.824v283.135Z" fill="#6683C2"/><path d="M648.465 352.944h-15.824V112.167h15.824v240.777ZM680.113 54.031h-15.824V30.203h15.824v23.828ZM838.261 62.447h-15.823v-18.07h15.823v18.07ZM743.363 45.293h-15.824V28.368h15.824v16.925ZM743.363 17.315h-15.824V0h15.824v17.315ZM711.738 62.058h-15.824V44.743h15.824v17.315ZM585.207 82.056h-15.824V55.82h15.824v26.236ZM585.207 42.656h-15.824v-16.65h15.824v16.65ZM553.566 63.824h-15.824V46.508h15.824v17.315ZM521.941 37.29h-15.824V19.975h15.824V37.29Z" fill="#6683C2"/><path d="M664.285 352.944h-15.824V94.417h15.824v258.527ZM680.113 352.944h-15.824V83.294h15.824v269.65Z" fill="#6683C2"/><path d="M695.91 352.944h-15.824V112.167h15.824v240.777ZM711.738 352.944h-15.824V138.815h15.824v214.129Z" fill="#6683C2"/><path d="M727.535 352.944h-15.824V77.698h15.824v275.246ZM521.941 352.944h-15.824V118.68h15.824v234.264ZM743.363 352.944h-15.824V57.884h15.824v295.06Z" fill="#6683C2"/><path d="M759.183 352.944h-15.824V69.809h15.824v283.135Z" fill="#6683C2"/><path d="M774.988 352.944h-15.824V90.243h15.824v262.701ZM806.629 352.944h-15.824V92.926h15.824v260.018Z" fill="#6683C2"/><path d="M822.441 352.944h-15.824V130.238h15.824v222.706ZM806.629 76.918h-15.824v-34.95h15.824v34.95ZM901.535 56.37h-15.824V38.528h15.824V56.37ZM806.629 31.671h-15.824V13.646h15.824V31.67Z" fill="#6683C2"/><path d="M838.261 352.944h-15.823V77.698h15.823v275.246Z" fill="#6683C2"/><path d="M854.082 352.944h-15.824V90.243h15.824v262.701ZM790.808 352.944h-15.824V106.823h15.824v246.121Z" fill="#6683C2"/><path d="M869.886 352.944h-15.824V56.278h15.824v296.666ZM869.886 33.735h-15.824V16.65h15.824v17.085Z" fill="#6683C2"/><path d="M885.707 352.944h-15.824V69.809h15.824v283.135ZM901.535 352.944h-15.824V87.582h15.824v265.362Z" fill="#6683C2"/><path d="M917.332 352.944h-15.824V118.68h15.824v234.264Z" fill="#6683C2"/><path d="M885.707 130.055h-15.824v-17.131h15.824v17.131ZM648.465 150.832h-15.824v-24.011h15.824v24.011Z" fill="#F8F8F8"/><path d="M1850.49 352.944h-15.83v-251.51h15.83v251.51ZM1866.32 352.944h-15.83V74.648h15.83v278.296Z" fill="#6683C2"/><path d="M1882.11 352.944h-15.82V90.243h15.82v262.701ZM1913.76 352.944h-15.82V104.461h15.82v248.483ZM1897.94 75.703h-15.82V55.82h15.82v19.883ZM1866.32 60.888h-15.83V41.532h15.83v19.356Z" fill="#6683C2"/><path d="M1929.57 352.944h-15.83V90.243h15.83v262.701ZM1929.57 63.824h-15.83V46.508h15.83v17.315ZM1897.94 37.29h-15.82V19.975h15.82V37.29ZM1897.94 352.944h-15.82V118.68h15.82v234.264Z" fill="#6683C2"/></g></svg>