<svg width="145" height="45" fill="none" xmlns="http://www.w3.org/2000/svg"><path d="M21.663 28v-7.981h-2.058c-.496 0-.886.124-1.169.372-.283.248-.425.584-.425 1.009 0 .434.142.774.425 1.022.284.248.673.372 1.169.372h2.191v1.514h-2.191c-.682 0-1.28-.12-1.793-.358a3.002 3.002 0 0 1-1.195-1.023c-.283-.443-.425-.952-.425-1.527 0-.576.142-1.08.425-1.514.292-.434.69-.77 1.195-1.01.514-.247 1.111-.371 1.793-.371h3.851V28h-1.793Zm-6.175 0 3.174-4.422h1.992L17.613 28h-2.125Zm14.754 0v-6.68h1.753V28h-1.753Zm-4.728 0v-6.68h1.753V28h-1.753Zm.824-2.802V23.79h4.927v1.408h-4.927Zm7.237 1.979v-.585h.186c.186 0 .332-.035.438-.106.115-.07.204-.2.266-.385.062-.186.11-.456.146-.81l.425-3.97h5.179v5.63h-1.713v-5.378l1.208 1.155h-4.369l1.341-1.155-.425 3.864c-.053.434-.15.78-.292 1.036a1.12 1.12 0 0 1-.61.544c-.266.107-.63.16-1.09.16h-.69Zm-.359 2.642v-3.227h8.088v3.227h-1.647v-2.762l.917.943h-6.308l.597-.943v2.762h-1.647ZM47.9 25.915l.93 1.076a3.5 3.5 0 0 1-1.302.903 4.578 4.578 0 0 1-1.74.319c-.77 0-1.447-.151-2.031-.452a3.396 3.396 0 0 1-1.368-1.248c-.328-.532-.491-1.147-.491-1.846 0-.7.155-1.315.464-1.846.32-.54.749-.96 1.289-1.262a3.775 3.775 0 0 1 1.846-.451c.664 0 1.252.15 1.766.451.522.292.93.7 1.222 1.222.292.522.438 1.129.438 1.82v.079H47.21v-.186c0-.407-.075-.761-.226-1.062a1.67 1.67 0 0 0-.598-.704 1.547 1.547 0 0 0-.89-.253 1.725 1.725 0 0 0-1.606 1.01c-.15.319-.226.7-.226 1.142 0 .47.093.872.279 1.208.195.328.456.58.783.757a2.55 2.55 0 0 0 1.156.253c.797 0 1.47-.31 2.018-.93Zm1.023-.717h-5.897v-1.116h5.684l.213.518v.598ZM54.917 28l-3.174-3.48h.146l2.868-3.2h2.099l-3.413 3.798-.093-1.168L57.12 28h-2.204Zm-4.529 0v-6.68h1.753V28h-1.753Zm12.362-2.204 1.089 1.062c-.345.434-.766.77-1.262 1.01-.487.23-1.044.345-1.673.345-.69 0-1.31-.151-1.86-.452a3.491 3.491 0 0 1-1.3-1.262c-.31-.54-.465-1.15-.465-1.832 0-.69.159-1.302.478-1.833.319-.54.752-.96 1.301-1.261.558-.31 1.187-.465 1.886-.465.61 0 1.16.12 1.647.358.487.23.903.558 1.248.983l-1.089 1.076a2.226 2.226 0 0 0-.717-.69 1.84 1.84 0 0 0-.996-.267c-.38 0-.717.089-1.01.266a1.868 1.868 0 0 0-.69.744 2.296 2.296 0 0 0-.252 1.089c0 .398.084.757.252 1.075.168.32.398.567.69.744a1.91 1.91 0 0 0 1.01.266c.39 0 .726-.089 1.01-.266.283-.177.517-.407.703-.69Z" fill="#000"/><g clip-path="url(#a)"><path d="M81.577 34.742c6.763 0 12.245-5.48 12.245-12.242 0-6.761-5.483-12.242-12.245-12.242S69.332 15.738 69.332 22.5c0 6.761 5.483 12.242 12.245 12.242Z" fill="#FC3F1D"/><path fill-rule="evenodd" clip-rule="evenodd" d="M83.495 30.15h2.668V14.847h-3.885c-3.908 0-5.96 1.998-5.96 4.953 0 2.55 1.33 3.985 3.682 5.55l1.431.945-1.837-1.54-3.636 5.39h2.894l3.885-5.796-1.355-.9c-1.633-1.099-2.432-1.954-2.432-3.807 0-1.63 1.147-2.728 3.332-2.728h1.193v13.232h.012l.008.004Z" fill="#fff"/></g><path d="M103.977 25.4a4.842 4.842 0 0 0 1.386 1.368c.54.336 1.158.504 1.854.504.492 0 .93-.114 1.314-.342a2.41 2.41 0 0 0 .9-.936c.228-.396.342-.84.342-1.332 0-.48-.102-.9-.306-1.26a2.14 2.14 0 0 0-.864-.864 2.498 2.498 0 0 0-1.278-.324c-.516 0-.978.114-1.386.342a2.92 2.92 0 0 0-1.044.954l-.81-.054a4.201 4.201 0 0 1 .648-1.656c.336-.48.762-.852 1.278-1.116.528-.276 1.134-.414 1.818-.414.852 0 1.602.192 2.25.576.66.372 1.17.888 1.53 1.548.372.66.558 1.416.558 2.268 0 .9-.216 1.698-.648 2.394a4.42 4.42 0 0 1-1.746 1.638c-.732.396-1.56.594-2.484.594-.996 0-1.908-.192-2.736-.576-.816-.396-1.53-.99-2.142-1.782l1.566-1.53Zm7.47-7.326h-6.84l1.08-1.188-.792 6.624h-2.07l.882-7.38h7.74v1.944Zm5.261 9.666c0 .396-.144.738-.432 1.026a1.476 1.476 0 0 1-1.062.414c-.408 0-.762-.138-1.062-.414a1.402 1.402 0 0 1-.432-1.026c0-.408.144-.75.432-1.026.3-.288.654-.432 1.062-.432.42 0 .774.144 1.062.432.288.276.432.618.432 1.026Zm6.745 1.548c-1.068 0-1.986-.264-2.754-.792s-1.356-1.29-1.764-2.286c-.408-1.008-.612-2.22-.612-3.636 0-2.136.456-3.792 1.368-4.968.912-1.176 2.166-1.764 3.762-1.764 1.608 0 2.862.588 3.762 1.764.912 1.176 1.368 2.832 1.368 4.968 0 1.416-.204 2.628-.612 3.636-.408.996-.996 1.758-1.764 2.286-.756.528-1.674.792-2.754.792Zm0-1.98c.852 0 1.512-.396 1.98-1.188.468-.804.702-1.986.702-3.546 0-1.572-.234-2.754-.702-3.546-.468-.804-1.128-1.206-1.98-1.206-.84 0-1.494.402-1.962 1.206-.468.792-.702 1.974-.702 3.546 0 1.56.234 2.742.702 3.546.468.792 1.122 1.188 1.962 1.188Z" fill="#003C56"/><defs><clipPath id="a"><path fill="#fff" transform="translate(69.332 10.258)" d="M0 0h24.485v24.485H0z"/></clipPath></defs></svg>