<svg width="200" height="65" fill="none" xmlns="http://www.w3.org/2000/svg"><path d="M31.462 44.462c6.607 0 11.963-5.355 11.963-11.962 0-6.607-5.356-11.962-11.963-11.962-6.606 0-11.962 5.355-11.962 11.962 0 6.607 5.356 11.962 11.962 11.962Z" fill="#CE2457"/><path fill-rule="evenodd" clip-rule="evenodd" d="M30.872 25.305a7.221 7.221 0 1 0 1.192 0l-.194 4.743a2.487 2.487 0 1 1-.803 0l-.195-4.742Z" fill="#fff"/><path d="M31.461 24.8a1.558 1.558 0 1 0 0-3.117 1.558 1.558 0 0 0 0 3.117Z" fill="#fff"/><path d="M59.716 32.498c0 1.647-.602 2.978-1.74 4.055-1.14 1.077-2.545 1.584-4.22 1.584-1.674 0-3.013-.507-4.218-1.584-1.072-1.077-1.674-2.408-1.674-4.055 0-1.648.602-2.979 1.74-4.056 1.14-1.077 2.545-1.584 4.153-1.584 1.607 0 3.08.507 4.218 1.584 1.139 1.077 1.741 2.408 1.741 4.056Zm-2.21 0c0-.951-.334-1.775-1.071-2.408-.67-.634-1.607-.951-2.678-.951-1.072 0-1.942.317-2.68.95-.736.634-1.07 1.458-1.07 2.409 0 .95.334 1.774 1.07 2.408.67.633 1.608.95 2.68.95 1.07 0 2.008-.317 2.678-.95.737-.634 1.072-1.458 1.072-2.408ZM66.786 37.632h-2.478V29.33h-3.817v-1.964h10.045v1.964h-3.75v8.302ZM76.085 37.887c-1.74 0-3.147-.253-4.285-.76v-2.028a9.599 9.599 0 0 0 3.95.824c1.005 0 1.742-.127 2.344-.38.536-.254.87-.634.87-1.078 0-.887-.803-1.267-2.477-1.267h-2.076V31.36h2.076c1.406 0 2.076-.38 2.076-1.14 0-.824-.938-1.204-2.746-1.204-1.205 0-2.41.253-3.683.76v-1.964c1.139-.444 2.545-.697 4.22-.697 1.338 0 2.477.253 3.414.76.87.507 1.34 1.204 1.34 1.965 0 1.14-.603 1.9-1.741 2.28 1.406.444 2.142 1.268 2.142 2.536 0 .95-.468 1.774-1.473 2.344-1.004.634-2.344.887-3.95.887ZM95.021 32.498c0 1.647-.602 2.978-1.74 4.055-1.139 1.077-2.545 1.584-4.22 1.584-1.674 0-3.013-.507-4.218-1.584-1.139-1.077-1.741-2.408-1.741-4.055 0-1.648.602-2.979 1.74-4.056 1.206-1.077 2.612-1.584 4.287-1.584 1.674 0 3.08.507 4.218 1.584 1.072 1.077 1.674 2.408 1.674 4.056Zm-2.142 0c0-.951-.335-1.775-1.072-2.408-.67-.634-1.607-.951-2.678-.951-1.072 0-1.942.317-2.679.95-.737.634-1.071 1.458-1.071 2.409 0 .95.334 1.774 1.071 2.408.67.633 1.607.95 2.679.95 1.071 0 2.009-.317 2.678-.95.67-.634 1.072-1.458 1.072-2.408ZM103.727 37.632h-6.496V27.366h6.161c1.071 0 1.941.253 2.611.697.67.444.938 1.14.938 1.901 0 .507-.134.95-.402 1.33-.268.38-.603.698-1.072.888 1.474.38 2.21 1.267 2.21 2.661 0 .888-.335 1.585-1.071 2.092-.67.443-1.607.697-2.879.697Zm-4.018-8.428v2.28h3.08c.536 0 .938-.126 1.272-.316.268-.19.469-.507.469-.824 0-.76-.536-1.14-1.674-1.14h-3.147Zm0 4.055v2.535h3.549c.603 0 1.004-.127 1.339-.317.335-.253.469-.507.469-.95 0-.38-.134-.697-.469-.951-.335-.253-.804-.317-1.339-.317h-3.549ZM112.296 37.626h-2.344V27.36h2.478v6.97l6.094-6.97h2.344v10.266h-2.478v-6.97l-6.094 6.97ZM125.923 37.626h-2.478V27.36h2.478v10.266Z" fill="#000"/><path d="m128.536 32.304 4.964 5.26h-3.204l-4.713-5.134 4.399-5.006h3.078l-4.524 4.88Z" fill="#000"/><path d="M154.22 41.5h-3.168v-3.48h-8.64v-2.544l8.64-11.136h3.168v11.136h2.4v2.544h-2.4v3.48Zm-3.168-13.104-5.568 7.08h5.568v-7.08Zm11.592 11.424c0 .528-.192.984-.576 1.368-.384.368-.856.552-1.416.552a2.022 2.022 0 0 1-1.416-.552 1.869 1.869 0 0 1-.576-1.368c0-.544.192-1 .576-1.368.4-.384.872-.576 1.416-.576.56 0 1.032.192 1.416.576.384.368.576.824.576 1.368Zm13.865 1.68h-3.168v-3.48h-8.64v-2.544l8.64-11.136h3.168v11.136h2.4v2.544h-2.4v3.48Zm-3.168-13.104-5.568 7.08h5.568v-7.08Z" fill="#003C56"/></svg>