<svg width="145" height="45" fill="none" xmlns="http://www.w3.org/2000/svg"><path d="M30.924 11.666h11.39a.48.48 0 0 1 .48.48v2.242c0 .299-.13.581-.355.777l-6.37 5.332h6.244c.266 0 .48.211.48.477v2.573a.48.48 0 0 1-.48.48H30.924a.48.48 0 0 1-.48-.48v-2.238c0-.299.13-.581.355-.777l6.369-5.332h-6.244a.485.485 0 0 1-.48-.485v-2.568a.48.48 0 0 1 .48-.481Zm19.81-.438c1.316 0 2.49.296 3.47.838a5.837 5.837 0 0 1 2.308 2.309c.541.98.837 2.156.837 3.474 0 1.317-.296 2.492-.837 3.473a5.837 5.837 0 0 1-2.308 2.31c-.98.541-2.154.837-3.47.837-1.318 0-2.492-.296-3.472-.838a5.837 5.837 0 0 1-2.308-2.309c-.54-.98-.837-2.156-.837-3.473 0-1.318.296-2.493.837-3.474a5.838 5.838 0 0 1 2.308-2.31c.98-.541 2.154-.837 3.471-.837Zm0 3.53c-.63 0-1.184.134-1.641.382a2.61 2.61 0 0 0-1.067 1.067c-.247.458-.38 1.011-.38 1.642 0 .63.133 1.183.38 1.641.247.458.61.82 1.067 1.068.457.247 1.01.38 1.64.38.63 0 1.183-.133 1.64-.38a2.61 2.61 0 0 0 1.067-1.068c.248-.458.38-1.011.38-1.641 0-.63-.133-1.184-.38-1.642a2.61 2.61 0 0 0-1.066-1.067c-.458-.248-1.011-.381-1.64-.381Zm14.113-3.53c1.317 0 2.491.296 3.472.838a5.837 5.837 0 0 1 2.307 2.309c.541.98.837 2.156.837 3.474 0 1.317-.296 2.492-.837 3.473a5.837 5.837 0 0 1-2.308 2.31c-.98.541-2.154.837-3.47.837-1.318 0-2.492-.296-3.472-.838a5.837 5.837 0 0 1-2.307-2.309c-.542-.98-.838-2.156-.838-3.473 0-1.318.296-2.493.838-3.474a5.837 5.837 0 0 1 2.307-2.31c.98-.541 2.154-.837 3.471-.837Zm0 3.53c-.63 0-1.183.134-1.64.382a2.61 2.61 0 0 0-1.067 1.067c-.247.458-.38 1.011-.38 1.642 0 .63.133 1.183.38 1.641.248.458.61.82 1.067 1.068.457.247 1.01.38 1.64.38.63 0 1.183-.133 1.64-.38a2.61 2.61 0 0 0 1.067-1.068c.248-.458.38-1.011.38-1.641 0-.63-.132-1.184-.38-1.642a2.61 2.61 0 0 0-1.066-1.067c-.458-.248-1.01-.381-1.64-.381Zm20.291-2.61v11.399a.48.48 0 0 1-.48.48h-2.239c-.298 0-.58-.13-.776-.355L76.315 17.3v6.248c0 .265-.22.48-.485.48h-2.565a.48.48 0 0 1-.48-.48V12.148a.48.48 0 0 1 .48-.48h2.239c.298 0 .58.13.776.355l5.328 6.375v-6.25c0-.265.211-.48.476-.48h2.574a.48.48 0 0 1 .48.48Z" fill="url(#a)"/><path d="M27.387 33.772h-.876V27.92h.876v5.852Zm2.137-5.76h-5.14v-.768h5.14v.767Zm2.239 5.906c-.475 0-.895-.103-1.26-.31a2.254 2.254 0 0 1-.858-.85 2.492 2.492 0 0 1-.31-1.25c0-.469.102-.883.31-1.242.206-.359.492-.642.858-.849.365-.213.785-.32 1.26-.32.474 0 .891.107 1.25.32.366.207.652.49.859.85.213.358.32.772.32 1.241 0 .469-.107.886-.32 1.25-.207.36-.493.643-.858.85-.36.207-.777.31-1.251.31Zm0-.73c.304 0 .572-.07.803-.21.231-.14.41-.338.539-.593.128-.256.192-.548.192-.877 0-.329-.064-.618-.192-.867a1.417 1.417 0 0 0-.539-.594c-.231-.146-.499-.219-.803-.219-.305 0-.576.073-.813.22-.231.14-.41.337-.539.593-.127.25-.191.538-.191.867 0 .329.064.62.191.877.128.255.308.453.54.593.236.14.507.21.812.21Zm4.87-.895c-.578 0-1.022-.152-1.332-.456-.305-.305-.457-.743-.457-1.315v-1.278h.85v1.187c0 .426.097.724.291.895.195.164.475.246.84.246.432 0 .865-.146 1.297-.438l.228.566a2.69 2.69 0 0 1-.52.329 3.007 3.007 0 0 1-.585.2 2.94 2.94 0 0 1-.611.064Zm1.443 1.48v-4.53h.85v4.53h-.85Zm5.326 0-2.474-2.347h.091l2.237-2.182h1.086l-2.428 2.364-.174-.474 2.822 2.638h-1.16Zm-3.077 0v-4.53h.85v4.53h-.85Zm8.73 0h-.794v-.895l-.027-.22V30.97c0-.359-.116-.642-.347-.849-.232-.213-.545-.32-.94-.32-.287 0-.549.062-.786.183a1.906 1.906 0 0 0-.62.484l-.53-.547c.25-.262.535-.463.858-.603.329-.146.694-.22 1.096-.22.413 0 .776.077 1.086.229.317.152.563.365.74.64.176.267.264.593.264.976v2.83Zm-2.465.145c-.34 0-.642-.06-.904-.182a1.514 1.514 0 0 1-.611-.52 1.319 1.319 0 0 1-.22-.75c0-.316.089-.584.265-.803a1.68 1.68 0 0 1 .749-.511 3.012 3.012 0 0 1 1.087-.183h1.378v.63h-1.287c-.384 0-.7.07-.95.21a.67.67 0 0 0-.365.63.71.71 0 0 0 .274.585c.189.146.432.219.73.219.293 0 .557-.058.795-.174a1.417 1.417 0 0 0 .812-1.214l.301.164c0 .366-.088.691-.264.977-.177.286-.42.512-.73.676a2.196 2.196 0 0 1-1.06.246Zm7.623 0a3.476 3.476 0 0 1-1.488-.32c-.45-.218-.83-.523-1.141-.912l.593-.584c.25.34.548.6.895.776.353.17.74.255 1.16.255.322 0 .608-.055.858-.164.255-.11.453-.259.593-.447.146-.19.22-.402.22-.64 0-.347-.14-.62-.42-.821-.275-.201-.649-.302-1.124-.302h-1.351v-.757h1.351c.408 0 .737-.098.986-.293a.926.926 0 0 0 .375-.766c0-.317-.14-.573-.42-.767-.274-.195-.633-.292-1.078-.292-.401 0-.745.079-1.031.237-.287.152-.573.41-.859.776l-.593-.557c.34-.432.709-.746 1.105-.94.401-.201.867-.302 1.397-.302.456 0 .86.076 1.214.229.359.152.642.362.849.63.207.261.31.563.31.903 0 .33-.094.621-.283.877a1.76 1.76 0 0 1-.785.584c.396.128.703.332.922.612.22.28.329.605.329.977 0 .377-.116.718-.347 1.022a2.298 2.298 0 0 1-.922.722 3.15 3.15 0 0 1-1.315.264Zm7.136-.146v-4.528h.849v4.528h-.85Zm-3.406 0v-4.528h.85v4.528h-.85Zm.411-2.026v-.703h3.47v.703h-3.47Zm9.095 2.026h-.794v-.894l-.028-.22V30.97c0-.359-.115-.642-.346-.849-.232-.213-.545-.32-.94-.32-.287 0-.549.062-.786.183a1.906 1.906 0 0 0-.62.484l-.53-.547a2.616 2.616 0 0 1 1.953-.822c.414 0 .776.076 1.087.228.316.152.563.365.74.64.176.267.264.593.264.976v2.83Zm-2.465.146c-.34 0-.642-.06-.904-.182a1.514 1.514 0 0 1-.612-.52 1.32 1.32 0 0 1-.219-.75c0-.316.089-.584.265-.803a1.68 1.68 0 0 1 .749-.511 3.012 3.012 0 0 1 1.086-.183h1.379v.63H65.44c-.384 0-.7.07-.95.21a.67.67 0 0 0-.365.63.71.71 0 0 0 .274.585c.188.146.432.219.73.219.292 0 .557-.058.794-.174a1.417 1.417 0 0 0 .813-1.214l.301.164c0 .366-.088.691-.264.977-.177.286-.42.512-.73.676a2.195 2.195 0 0 1-1.06.246Zm7.1-.146v-4.528h.849v4.528h-.85Zm-3.406 0v-4.528h.85v4.528h-.85Zm.411-2.026v-.703h3.47v.703h-3.47Zm5.233 2.026v-4.528h.83v3.414l-.063-.018 2.712-3.396h.74v4.528h-.832v-3.414l.073.027-2.72 3.387h-.74Zm5.617 0v-4.528h.83v3.414l-.063-.018 2.712-3.396h.74v4.528h-.832v-3.414l.073.027-2.72 3.387h-.74Zm2.164-5.34c-.42 0-.77-.107-1.05-.32-.28-.22-.444-.527-.493-.922h.721c.037.255.125.44.265.556a.87.87 0 0 0 .557.174c.225 0 .408-.058.548-.174.146-.115.237-.3.274-.556h.72c-.048.395-.212.703-.492.922-.28.213-.63.32-1.05.32Z" fill="#000"/><path d="M95.298 25.4a4.842 4.842 0 0 0 1.386 1.368c.54.336 1.158.504 1.854.504.492 0 .93-.114 1.314-.342a2.41 2.41 0 0 0 .9-.936c.228-.396.342-.84.342-1.332 0-.48-.102-.9-.306-1.26a2.138 2.138 0 0 0-.864-.864 2.498 2.498 0 0 0-1.278-.324c-.516 0-.978.114-1.386.342a2.92 2.92 0 0 0-1.044.954l-.81-.054a4.201 4.201 0 0 1 .648-1.656c.336-.48.762-.852 1.278-1.116.528-.276 1.134-.414 1.818-.414.852 0 1.602.192 2.25.576.66.372 1.17.888 1.53 1.548.372.66.558 1.416.558 2.268 0 .9-.216 1.698-.648 2.394a4.42 4.42 0 0 1-1.746 1.638c-.732.396-1.56.594-2.484.594-.996 0-1.908-.192-2.736-.576-.816-.396-1.53-.99-2.142-1.782l1.566-1.53Zm7.47-7.326h-6.84l1.08-1.188-.792 6.624h-2.07l.882-7.38h7.74v1.944Zm5.261 9.666c0 .396-.144.738-.432 1.026a1.476 1.476 0 0 1-1.062.414c-.408 0-.762-.138-1.062-.414a1.402 1.402 0 0 1-.432-1.026c0-.408.144-.75.432-1.026.3-.288.654-.432 1.062-.432.42 0 .774.144 1.062.432.288.276.432.618.432 1.026Zm6.745 1.548c-1.068 0-1.986-.264-2.754-.792s-1.356-1.29-1.764-2.286c-.408-1.008-.612-2.22-.612-3.636 0-2.136.456-3.792 1.368-4.968.912-1.176 2.166-1.764 3.762-1.764 1.608 0 2.862.588 3.762 1.764.912 1.176 1.368 2.832 1.368 4.968 0 1.416-.204 2.628-.612 3.636-.408.996-.996 1.758-1.764 2.286-.756.528-1.674.792-2.754.792Zm0-1.98c.852 0 1.512-.396 1.98-1.188.468-.804.702-1.986.702-3.546 0-1.572-.234-2.754-.702-3.546-.468-.804-1.128-1.206-1.98-1.206-.84 0-1.494.402-1.962 1.206-.468.792-.702 1.974-.702 3.546 0 1.56.234 2.742.702 3.546.468.792 1.122 1.188 1.962 1.188Z" fill="#003C56"/><defs><linearGradient id="a" x1="85.136" y1="24.911" x2="30.444" y2="24.911" gradientUnits="userSpaceOnUse"><stop stop-color="#6339F5"/><stop offset="1" stop-color="#3D3F55"/></linearGradient></defs></svg>