<svg width="147" height="100" viewBox="0 0 147 100" fill="none" xmlns="http://www.w3.org/2000/svg">
<g clip-path="url(#clip0_67_800)">
<rect width="147" height="100" fill="#B8CDFC"/>
<g clip-path="url(#clip1_67_800)">
<path d="M112.825 61.9379C111.67 61.3709 110.81 63.2083 112.209 63.7459C113.607 64.2835 114.4 64.6339 114.84 64.6339C115.28 64.6339 115.683 63.4892 115.307 63.1121C114.931 62.735 113.623 62.3284 112.825 61.9379Z" fill="#F1BBA2"/>
<path d="M57.9959 46.9553C59.9548 46.9553 60.4699 49.4773 62.9144 50.2904C65.9461 51.2987 69.8852 49.7047 70.902 47.105C72.2231 43.7271 69.7224 41.9672 70.2909 36.3534C70.6672 32.6331 68.1399 32.9621 65.9755 29.3408C63.8111 25.7168 64.3903 25.3236 61.4546 21.9938C58.519 18.664 53.6138 18.1933 49.9283 18.779C46.2427 19.3647 44.4066 20.0414 41.5217 22.0286C38.6367 24.0158 39.9418 26.1447 38.087 27.5488C36.2322 28.9503 35.4049 30.5791 34.8444 33.3659C33.7662 38.715 37.3904 41.3013 35.7625 43.1494C34.1345 44.9975 30.8306 53.2805 39.3786 52.7804C42.3997 52.6039 45.1058 53.5988 46.587 51.3014C48.7673 47.9208 49.8562 50.17 52.8425 48.6883C55.8315 47.204 57.9932 46.9606 57.9932 46.9606L57.9959 46.9553Z" fill="#363537"/>
<path d="M36.0889 48.7848C43.2865 42.9142 43.9697 48.7848 61.2366 47.6374C63.3663 47.4956 73.0592 49.4507 74.93 50.6034C84.4148 56.442 91.8286 94.6771 91.8286 94.6771L36.9055 94.07L36.0889 48.7848Z" fill="#F3C55C"/>
<path d="M49.8557 46.1151C49.7303 48.5383 47.5286 46.2462 47.5286 49.3166C47.5286 51.9831 50.5069 56.2436 58.9375 54.893C64.2991 54.0344 65.911 49.4476 62.7245 48.1103C60.9204 47.3535 60.0691 44.3125 60.0691 44.3125L49.8557 46.1125V46.1151Z" fill="#F1BBA2"/>
<path d="M61.2854 32.2239C62.9427 38.8782 62.8786 48.5439 55.3153 49.1243C46.0628 49.8357 35.8761 31.6382 43.3006 24.9572C50.7251 18.2762 58.9369 22.8015 61.2854 32.2239Z" fill="#F1BBA2"/>
<path d="M46.6139 29.9342C45.525 32.0391 45.4476 32.4162 44.2414 33.6251C43.0351 34.834 43.1472 37.9658 43.7236 39.7524C46.4698 48.2708 44.1186 44.1574 43.5742 44.703C43.0297 45.2486 40.7746 39.6856 40.4651 39.3753C40.1528 39.0624 37.7056 30.1428 37.7056 29.2067C37.7056 28.2706 43.6009 22.6274 44.3134 21.9106C45.0286 21.1938 51.4657 19.8566 53.2938 19.8566C55.1219 19.8566 58.7754 19.6239 59.5547 20.8702C60.3313 22.1165 65.386 32.5579 65.386 32.5579C65.386 32.5579 68.4177 37.4229 66.3681 37.2865C63.7447 37.11 63.2509 36.5804 62.5784 35.0426C61.8578 33.3897 61.1746 29.6774 57.5611 30.9051C51.4523 32.9778 46.6139 29.9396 46.6139 29.9396V29.9342Z" fill="#363537"/>
<path d="M21.5312 98.3757C19.1907 83.7701 30.8131 50.1672 38.3577 47.1075C43.6739 44.9492 47.7704 46.6475 48.7579 52.5449C49.7453 58.4422 40.7569 86.2306 40.7569 86.2306C40.7569 86.2306 67.1163 78.972 69.4514 86.2306C71.7839 93.4893 70.6177 98.6325 70.6177 98.6325L21.5338 98.3757H21.5312Z" fill="#F3C55C"/>
<path d="M45.901 86.9717C43.4857 86.9717 41.3401 86.9182 39.7175 86.8754C38.9355 86.8567 38.2576 86.838 37.7052 86.83C37.465 86.8273 37.2649 86.7176 37.1394 86.5251C36.5363 85.5917 37.8493 82.4063 40.4247 76.3806C43.0587 70.2131 46.336 62.5372 46.336 58.3729C46.336 58.191 46.4828 58.0439 46.6642 58.0439C46.8457 58.0439 46.9925 58.191 46.9925 58.3729C46.9925 62.6736 43.6859 70.4163 41.0278 76.64C39.9683 79.1193 38.9702 81.4595 38.343 83.2033C37.4463 85.6986 37.6385 86.1078 37.6919 86.1694C37.6919 86.1694 37.6999 86.1694 37.7132 86.1694C38.2683 86.1774 38.9488 86.1934 39.7335 86.2148C43.3363 86.3058 48.7779 86.4448 54.3769 86.0303C54.5584 86.0169 54.7159 86.1533 54.7292 86.3352C54.7426 86.517 54.6065 86.6749 54.425 86.6882C51.4867 86.9049 48.535 86.969 45.901 86.969V86.9717Z" fill="#C99565"/>
<path d="M49.9415 38.8463C49.8827 39.226 50.2804 40.3734 51.1291 40.1113C51.6895 39.9375 51.5961 38.5039 50.9369 38.2418C50.4005 38.0305 50.0002 38.4665 49.9415 38.8463Z" fill="#372313"/>
<path d="M56.8968 36.7171C56.7981 37.0888 57.1477 38.2656 58.0177 38.0918C58.5942 37.9794 58.5755 36.5512 57.951 36.2223C57.4413 35.9521 56.9956 36.3453 56.8968 36.7171Z" fill="#372313"/>
<path d="M53.6543 45.2249C54.116 45.7598 55.2235 46.3883 56.9262 45.8106C58.6289 45.2329 58.434 43.5132 58.434 43.5132C56.8968 44.4867 55.4317 44.9548 53.6543 45.2222V45.2249Z" fill="#E66C40"/>
<path d="M55.6501 35.4038C55.9917 35.4038 57.0726 34.6443 58.1 34.8101C59.1275 34.9759 59.0901 34.8341 58.8446 34.5854C58.5964 34.3367 57.8999 34.0799 56.5975 34.2484C55.0176 34.4544 55.3539 35.4038 55.6501 35.4038Z" fill="#363537"/>
<path d="M51.1202 36.4949C51.1389 36.1659 50.4343 36.0856 49.9246 36.2194C49.2254 36.4039 48.1578 37.4256 47.9817 38.1584C47.8883 38.5409 48.1578 38.7281 48.5502 38.1905C49.0145 37.5566 49.3801 37.1715 49.9699 37.0806C50.445 37.0057 51.1068 36.7543 51.1202 36.4975V36.4949Z" fill="#363537"/>
<path d="M45.232 39.8731C46.0646 41.0499 47.2122 43.3634 46.3582 43.9705C45.5042 44.5776 42.9715 43.2511 42.1389 42.0743C41.3062 40.8975 41.3222 39.4505 42.1762 38.8434C43.0302 38.2363 44.3993 38.6963 45.232 39.8731Z" fill="#F1BBA2"/>
<path d="M55.4602 49.9372C53.7816 49.9372 52.3885 49.3755 52.3111 49.3434C52.2017 49.298 52.1483 49.1723 52.1937 49.0626C52.2391 48.953 52.3645 48.8995 52.4739 48.9449C52.4979 48.9556 54.9212 49.9292 57.1309 49.2819C57.2456 49.2498 57.3631 49.314 57.3978 49.429C57.4298 49.544 57.3657 49.6617 57.251 49.6965C56.6478 49.873 56.0367 49.9399 55.4602 49.9399V49.9372Z" fill="#C99565"/>
<path d="M46.1298 44.3155C46.7357 44.9226 49.5405 47.6747 52.3934 49.1457C53.2207 49.5736 52.8017 52.4193 52.7297 52.8445C52.1853 56.0807 48.7266 55.3827 46.6609 54.3476C44.4432 53.235 46.5195 46.1422 43.381 45.9282C39.8236 45.6848 38.4091 47.2628 37.8914 47.1264C36.8773 46.8563 38.6947 45.2783 41.1686 44.5321C43.1515 43.9357 45.7669 44.0828 46.1298 44.3155Z" fill="#363537"/>
<path d="M47.6326 22.443C46.2875 22.221 45.631 23.8444 45.0012 24.7351C44.8757 24.9116 45.1666 25.1362 45.3001 24.9678C45.8872 24.2349 46.4236 22.6864 47.5792 22.8281C47.7953 22.8549 47.8487 22.4804 47.6299 22.443H47.6326Z" fill="#352D27"/>
<path d="M48.2409 23.8312C47.3336 23.9141 46.8025 24.6175 46.2767 25.2834C46.1246 25.476 46.3915 25.7488 46.549 25.5562C47 24.9973 47.4723 24.3153 48.2436 24.2216C48.4865 24.1922 48.4971 23.8071 48.2436 23.8312H48.2409Z" fill="#352D27"/>
<path d="M41.7367 32.0287C40.9628 32.9594 40.437 34.1469 40.2209 35.3397C40.1755 35.5831 40.5465 35.6901 40.5972 35.4441C40.8213 34.3261 41.2964 33.1974 42.0089 32.3015C42.1611 32.1116 41.8969 31.8388 41.7367 32.0287Z" fill="#352D27"/>
<path d="M50.7025 50.9376C50.7212 50.6835 50.3342 50.6889 50.3102 50.9376C50.2622 51.4778 50.3662 52.0208 50.3396 52.5637C50.3262 52.8071 50.2969 53.0906 50.1447 53.2912C49.9499 53.5479 49.6297 53.5479 49.3361 53.5265C49.0799 53.5078 49.0932 53.8876 49.3361 53.9197C51.1349 54.1444 50.6278 52.0208 50.7025 50.9376Z" fill="#352D27"/>
<path d="M68.7172 38.6212C68.4957 38.1611 68.2075 37.7386 67.9379 37.308C67.7618 37.0245 67.4442 36.626 67.4602 36.2729C67.4709 36.0269 67.0919 36.0269 67.0786 36.2729C67.0599 36.5698 67.2254 36.8667 67.3668 37.1154C67.5883 37.5086 67.8445 37.883 68.074 38.2708C68.2822 38.6185 68.5171 39.0009 68.5838 39.4102C68.6532 39.8354 68.405 40.0146 68.0233 40.1189C67.7778 40.1858 67.8819 40.5495 68.1274 40.4987C68.5171 40.4158 68.8853 40.1965 68.9761 39.7819C69.0615 39.3888 68.888 38.9715 68.7199 38.6238L68.7172 38.6212Z" fill="#352D27"/>
<path d="M68.7383 43.3366C68.5168 43.0878 68.2366 42.9675 67.943 42.8284C67.5881 42.6572 67.4066 42.4887 67.4573 42.0662C67.4813 41.8549 67.1104 41.8014 67.081 42.0153C66.993 42.6439 67.3025 42.9595 67.8416 43.2109C68.1085 43.3339 68.5462 43.5211 68.6129 43.8527C68.6636 44.1149 68.2313 44.3261 68.0791 44.4946C67.911 44.6818 68.1726 44.9493 68.3567 44.7728C68.5595 44.5775 68.8531 44.4144 68.9705 44.1469C69.1013 43.8501 68.9385 43.5612 68.741 43.3392L68.7383 43.3366Z" fill="#352D27"/>
<path d="M58.5475 25.3527C58.2085 24.989 57.7762 24.8579 57.2932 24.8124C56.7487 24.759 56.2176 24.7884 55.8413 24.323C55.6786 24.1224 55.401 24.4059 55.5585 24.6065C56.2603 25.4918 57.512 24.8793 58.2672 25.6309C58.4461 25.8101 58.7156 25.5372 58.5448 25.3527H58.5475Z" fill="#352D27"/>
<path d="M73.1489 49.9644C76.1406 50.3709 85.6334 61.5023 97.6482 64.0859C109.663 66.6695 114.053 63.9442 114.053 63.9442L119.182 72.2727C107.426 80.9034 89.0627 76.37 77.4216 70.5583L73.1489 49.9644Z" fill="#F3C55C"/>
<path d="M120.791 97.1886C120.791 97.1886 128.05 74.233 112.835 62.9839C109.633 60.617 106.846 59.5017 100.113 59.5258C92.9422 59.5525 86.4891 66.2843 83.9538 70.8444C79.2568 79.2933 75.3657 97.1886 75.3657 97.1886H120.791Z" fill="#7FCBB4"/>
<path d="M112.212 97.1699C112.033 97.1699 111.892 97.0254 111.892 96.8489V83.7704C111.889 83.7089 111.486 75.918 110.397 72.8851C110.336 72.7166 110.424 72.5321 110.592 72.4732C110.76 72.4117 110.945 72.5 111.003 72.6684C112.127 75.7923 112.519 83.4335 112.538 83.7571V96.8516C112.538 97.0308 112.394 97.1725 112.218 97.1725L112.212 97.1699Z" fill="#539A85"/>
<path d="M88.5467 95.0863C88.3866 95.0863 88.2478 94.9659 88.2291 94.8001C88.1517 94.1288 86.329 78.2822 87.3698 72.7138C87.4018 72.5399 87.5699 72.4249 87.7461 72.457C87.9196 72.4891 88.0343 72.6576 88.0023 72.8341C86.9775 78.3062 88.851 94.5647 88.8696 94.7279C88.891 94.9044 88.7629 95.0649 88.5867 95.0863C88.5734 95.0863 88.5601 95.0863 88.5494 95.0863H88.5467Z" fill="#539A85"/>
<path d="M95.8995 62.1899C94.2875 64.0246 93.2601 69.6384 96.201 69.7882C103.116 70.1439 105.526 60.7322 103.674 60.1331C99.4409 58.7611 95.8995 62.1899 95.8995 62.1899Z" fill="#F1F2F2"/>
<path d="M95.6049 57.4959C95.6049 58.2127 95.1859 62.7862 96.3601 63.4387C99.7975 65.3484 103.678 61.3526 103.678 60.1357V56.2095L95.6076 57.4986L95.6049 57.4959Z" fill="#F1BBA2"/>
<path d="M90.0859 39.531C89.7496 36.0327 87.708 33.1121 85.944 34.5778C84.1799 36.0434 82.1623 37.5866 82.592 39.531C82.8322 40.6195 88.4873 42.3981 88.4873 42.3981L90.0859 39.531Z" fill="#363537"/>
<path d="M86.6063 42.9436C86.5129 42.9436 86.4195 42.9035 86.3554 42.8233C86.2433 42.6842 86.2674 42.4809 86.4035 42.3713C87.527 41.4646 88.0741 40.4964 88.0741 39.4132C88.0741 39.234 88.2182 39.0923 88.3944 39.0923C88.5705 39.0923 88.7146 39.2367 88.7146 39.4132C88.7146 40.6863 88.0714 41.8497 86.8038 42.8741C86.7451 42.9222 86.673 42.9463 86.6036 42.9463L86.6063 42.9436Z" fill="#DE501D"/>
<path d="M87.6139 47.8434C86.4957 48.0948 85.6684 48.3837 85.2094 47.9263C84.7504 47.4663 85.2094 46.2815 85.2094 46.2815L86.6852 46.0435L87.6139 47.8434Z" fill="#82512B"/>
<path d="M108.277 49.0336C107.215 56.3752 102.51 62.1896 95.9072 62.1896C91.0287 62.1896 87.8075 59.7424 87.2791 54.7384C87.1563 53.5749 87.3912 51.9595 87.3031 51.2775C87.1563 50.1301 86.313 48.8571 86.313 47.6535C86.313 40.3119 92.6113 36.7896 99.2138 36.7896C105.816 36.7896 109.328 41.7695 108.277 49.0336Z" fill="#F1BBA2"/>
<path d="M94.0995 49.6944C94.0729 49.4563 94.636 48.9776 95.4072 49.1595C96.1758 49.3413 96.7469 49.8869 96.4961 50.0367C96.2452 50.1865 95.6821 49.7211 95.1911 49.7773C94.7 49.8308 94.1209 49.8629 94.1022 49.6944H94.0995Z" fill="#363537"/>
<path d="M90.2784 49.8335C90.3051 49.5955 89.742 49.1167 88.9707 49.2986C88.2021 49.4805 87.631 50.0261 87.8819 50.1759C88.1327 50.3256 88.6959 49.8603 89.1869 49.9164C89.678 49.9726 90.2571 50.002 90.2758 49.8335H90.2784Z" fill="#363537"/>
<path d="M93.111 45.1876C98.7314 44.6366 99.049 46.9073 100.656 49.0335C102.265 51.1598 106.204 50.7506 108.013 50.4644C108.63 50.3681 109.561 46.351 109.305 43.9519C109.116 42.1733 109.22 38.9051 105.563 37.0008C101.907 35.0965 100.637 34.6686 97.0848 35.3292C93.5353 35.9898 89.679 45.5245 93.1083 45.1876H93.111Z" fill="#363537"/>
<path d="M102.671 39.7528C103.008 36.2545 106.426 33.2777 108.193 34.7434C109.96 36.209 111.612 40.3733 110.696 41.0098C109.781 41.6463 104.27 42.6199 104.27 42.6199L102.671 39.7528Z" fill="#363537"/>
<path d="M104.82 42.7134C103.264 42.7134 102.623 41.7586 102.41 41.3093C102.036 40.5257 102.076 39.5682 102.501 39.175C102.631 39.0547 102.834 39.0627 102.954 39.1937C103.074 39.3248 103.066 39.5281 102.936 39.6484C102.786 39.7875 102.693 40.416 102.986 41.0312C103.211 41.5019 103.816 42.2561 105.356 42.0288C105.53 42.002 105.695 42.125 105.722 42.3016C105.749 42.4781 105.626 42.6412 105.45 42.668C105.223 42.7001 105.012 42.7161 104.817 42.7161L104.82 42.7134Z" fill="#D9886B"/>
<path d="M84.7838 47.5679C86.66 50.0097 87.3939 43.3662 92.6086 44.6366C94.6449 45.1314 93.0463 41.6331 94.9865 40.2771C96.924 38.9211 100.014 35.8882 96.6518 35.4496C93.2892 35.0109 88.7363 36.958 87.4713 39.0388C86.9082 39.9642 85.7446 41.1998 85.5764 42.8687C85.3523 45.1207 84.2447 46.8645 84.7865 47.5679H84.7838Z" fill="#363537"/>
<path d="M91.0627 57.6592C91.0627 57.6592 91.6472 59.0071 93.2058 59.0901C94.7643 59.173 95.0445 57.6726 95.0445 57.6726C93.6728 58.1406 92.4852 58.2369 91.0627 57.6592Z" fill="#F1F2F2"/>
<path d="M95.2385 51.5609C94.9663 51.6626 94.6914 52.1012 94.8222 52.7484C94.9529 53.393 95.436 53.6765 95.7375 53.4812C96.0391 53.286 96.2553 52.382 96.0658 52.0049C95.8763 51.6278 95.4119 51.4967 95.2358 51.5636L95.2385 51.5609Z" fill="#372313"/>
<path d="M89.1364 51.5717C88.8695 51.684 88.6107 52.1334 88.7681 52.7753C88.9256 53.4145 89.4166 53.6766 89.7129 53.4706C90.0091 53.262 90.1852 52.3527 89.9824 51.9836C89.7796 51.6145 89.3072 51.5022 89.1364 51.5744V51.5717Z" fill="#372313"/>
<path d="M99.1603 42.5717C98.4957 41.8015 97.2521 41.5955 96.3287 41.9539C96.1045 42.0422 96.1979 42.4032 96.4301 42.3203C97.2761 42.0181 98.2422 42.2187 98.8827 42.8499C99.0642 43.0291 99.3257 42.7616 99.1603 42.5717Z" fill="#251C16"/>
<path d="M100.433 39.0176C99.2989 38.7448 98.2528 38.8785 97.212 39.3947C96.9878 39.5071 97.1853 39.8414 97.4095 39.7317C98.3702 39.2637 99.2909 39.1915 100.332 39.3921C100.575 39.4402 100.681 39.0765 100.436 39.0176H100.433Z" fill="#251C16"/>
<path d="M104.975 46.3189C104.307 46.5382 103.475 45.8321 103.502 45.1474C103.512 44.9014 103.139 44.904 103.123 45.1474C103.064 46.0568 104.185 47.0463 105.079 46.696C105.306 46.605 105.218 46.2386 104.975 46.3189Z" fill="#251C16"/>
<path d="M89.3829 41.0209C88.7344 40.9593 88.0832 41.176 87.7043 41.7323C87.5628 41.9382 87.4934 42.1736 87.4187 42.4089C87.3093 42.754 87.1919 42.9118 86.8129 42.9465C86.5674 42.9706 86.5594 43.3317 86.8129 43.337C87.3733 43.345 87.6482 43.0161 87.8083 42.5159C87.9017 42.2217 87.9898 41.957 88.2273 41.7403C88.5422 41.4515 88.9719 41.3739 89.3856 41.398C89.6311 41.4113 89.6231 41.0423 89.3856 41.0209H89.3829Z" fill="#251C16"/>
<path d="M92.5052 37.6588C92.0755 37.5492 91.7873 37.2336 91.3123 37.2924C90.8693 37.3486 90.517 37.6588 90.2448 37.9931C90.09 38.183 90.3462 38.4585 90.5197 38.2686C90.7812 37.9878 91.1041 37.6508 91.5258 37.6909C91.838 37.7203 92.0942 37.9691 92.4038 38.0306C92.644 38.0787 92.7481 37.7203 92.5052 37.6588Z" fill="#251C16"/>
<path d="M95.9003 62.4035C95.7828 62.4035 95.6868 62.3072 95.6868 62.1895C95.6868 62.0718 95.7828 61.9756 95.9003 61.9756C97.7684 61.9756 99.3243 61.6145 100.52 60.9031C100.621 60.8416 100.752 60.8763 100.813 60.978C100.875 61.0796 100.84 61.2106 100.739 61.2722C99.4764 62.0237 97.8485 62.4035 95.9003 62.4035Z" fill="#C48976"/>
<path d="M97.113 97.2608C97.113 93.824 101.903 87.1377 110.697 87.1377C119.491 87.1377 123.995 87.7528 123.995 87.7528V97.1324L97.113 97.2608Z" fill="#7FCBB4"/>
<path d="M96.9632 89.5611C96.8351 89.5611 96.7123 89.4835 96.6643 89.3551C96.6002 89.1893 96.6829 89.0021 96.8484 88.9379C99.5839 87.8895 109.893 86.7929 112.215 86.8224C112.394 86.8224 112.535 86.9695 112.533 87.1487C112.533 87.3252 112.386 87.4669 112.212 87.4669C112.212 87.4669 112.21 87.4669 112.207 87.4669C109.984 87.4348 99.6933 88.5367 97.0806 89.5397C97.0432 89.5531 97.0032 89.5611 96.9658 89.5611H96.9632Z" fill="#539A85"/>
<path d="M54.2424 91.5774H94.5861C96.9586 91.5774 98.8854 93.5084 98.8854 95.8861V96.5547H54.2397V91.5747L54.2424 91.5774Z" fill="#7C8CAF"/>
<path d="M89.1278 96.5571H44.7036L41.784 63.4705C41.6158 62.5157 42.0322 61.6357 42.9876 61.6357H84.6016C85.3435 61.6357 85.9813 62.176 86.1121 62.9195L89.1278 96.5571Z" fill="#7C8CAF"/>
<path d="M67.035 74.0803C67.1524 75.9151 65.8714 77.4904 64.1741 77.6C62.4768 77.7097 61.0036 76.3136 60.8835 74.4789C60.7634 72.6441 62.0471 71.0688 63.7444 70.9592C65.4418 70.8495 66.9149 72.2456 67.035 74.0803Z" fill="#DBDBDB"/>
<path d="M164.044 96.0356H-7.3916V103.072H164.044V96.0356Z" fill="#DCBFA3"/>
<path d="M145.231 31.0313C145.231 27.9101 144.894 14.3288 149.354 7.91797C149.354 7.91797 150.363 13.3152 150.363 17.4928C150.363 21.6704 147.248 37.9476 147.248 37.9476L145.228 31.0313H145.231Z" fill="#A7CBBD"/>
<path d="M129.178 6.98975C129.178 6.98975 137.678 39.9721 137.678 46.5515C137.678 53.1308 133.763 50.6007 133.763 50.6007C133.763 50.6007 130.86 27.6987 129.848 25.083C128.839 22.4673 129.469 20.2742 129.469 18.4608C129.469 16.6475 128.543 14.3287 128.543 12.5982C128.543 10.8678 129.176 6.98975 129.176 6.98975H129.178Z" fill="#A7CBBD"/>
<path d="M141.026 79.4644C141.784 76.2202 146.454 71.9891 146.454 67.7553C146.454 63.5215 145.949 47.3004 147.337 44.0562C148.725 40.812 149.862 35.4522 149.862 32.3471C149.862 29.242 153.649 26.0004 153.649 23.7431V19.9346C153.649 19.9346 155.416 22.3336 155.416 26.1422C155.416 29.9507 154.028 34.8879 152.891 36.1583C151.754 37.4287 150.996 38.9799 150.996 41.6598C150.996 44.3397 150.364 57.6001 150.364 61.1278C150.364 64.6555 150.11 65.3589 149.227 68.7449C148.343 72.1308 141.65 80.1705 141.65 80.1705L141.018 79.4644H141.026Z" fill="#A4CABB"/>
<path d="M133.826 79.4645C132.059 75.5142 129.281 67.052 129.281 62.96C129.281 58.8679 129.914 54.9203 129.281 52.663C128.649 50.4057 125.099 35.332 126.482 29.7877C127.344 26.3322 127.64 28.766 127.64 28.766C127.64 28.766 133.196 37.5706 133.826 41.0956C134.456 44.6207 133.631 51.2535 134.459 53.2166C135.283 55.1798 136.732 59.8575 136.732 62.9626V79.0446L133.829 79.4672L133.826 79.4645Z" fill="#C2E8D8"/>
<path d="M141.023 27.2679L135.216 15.8423C135.216 15.8423 133.196 22.3307 133.196 24.4463C133.196 26.5618 132.438 28.2548 132.438 30.3704C132.438 32.4859 134.205 36.8588 134.205 40.5282C134.205 44.1977 133.572 48.0036 133.572 51.1087C133.572 54.2138 136.729 79.4641 136.729 79.4641H139.003L141.023 27.2706V27.2679Z" fill="#92BCAB"/>
<path d="M139.006 79.4645C139.006 76.6428 138.122 74.3855 138.122 70.1544C138.122 65.9233 138.122 63.2434 137.364 58.0227C136.606 52.802 139.006 45.185 139.006 41.799C139.006 38.413 137.743 28.3969 139.006 24.5884C140.268 20.7798 141.656 13.021 141.656 13.021C141.656 13.021 148.221 27.6908 148.221 30.2316V47.1588C148.221 50.403 146.833 55.6237 146.201 59.1487C145.568 62.6764 145.568 65.3563 145.568 69.0231C145.568 72.6899 142.718 79.4618 142.718 79.4618H139.003L139.006 79.4645Z" fill="#C2E8D8"/>
<path d="M148.962 96.1107H130.697L128.29 75.6612C128.167 74.6261 128.976 73.7168 130.016 73.7168H149.544C150.582 73.7168 151.388 74.6208 151.27 75.6532L148.965 96.1107H148.962Z" fill="#E3AC69"/>
<path d="M150.272 90.0365H129.253L128.543 80.1675H150.939L150.272 90.0365Z" fill="#FCC583"/>
<path d="M14.1961 88.2798C2.96866 88.2798 -6.1665 79.1248 -6.1665 67.8731C-6.1665 61.5478 -3.31093 55.6825 1.67164 51.7831C1.92518 51.5851 2.28813 51.6253 2.49095 51.8713L27.7561 82.3262C27.9616 82.5723 27.9322 82.9387 27.6921 83.15C23.9691 86.4557 19.176 88.2771 14.1935 88.2771L14.1961 88.2798ZM1.95453 53.0829C-2.4596 56.7497 -4.97891 62.1094 -4.97891 67.8757C-4.97891 78.4722 3.62251 87.0923 14.1961 87.0923C18.6957 87.0923 23.0324 85.5143 26.4724 82.6392L1.95453 53.0829Z" fill="#9CA8D3"/>
<path d="M14.1934 84.201C23.1917 84.201 30.4862 76.8907 30.4862 67.873C30.4862 58.8552 23.1917 51.5449 14.1934 51.5449C5.19516 51.5449 -2.09937 58.8552 -2.09937 67.873C-2.09937 76.8907 5.19516 84.201 14.1934 84.201Z" fill="#68CCEB"/>
<mask id="mask0_67_800" style="mask-type:luminance" maskUnits="userSpaceOnUse" x="-3" y="51" width="27" height="27">
<path d="M10.6272 77.0532C17.6559 77.0532 23.3538 71.343 23.3538 64.2991C23.3538 57.2551 17.6559 51.5449 10.6272 51.5449C3.59853 51.5449 -2.09937 57.2551 -2.09937 64.2991C-2.09937 71.343 3.59853 77.0532 10.6272 77.0532Z" fill="white"/>
</mask>
<g mask="url(#mask0_67_800)">
<path d="M6.2184 64.0644C3.69642 65.7708 0.517925 71.9516 3.69642 71.4836C6.87224 71.0155 8.36942 68.8625 9.86392 71.1091C11.3584 73.3558 11.5186 74.9498 14.1953 74.9498C16.8721 74.9498 20.3468 76.9557 20.8912 76.4127C21.433 75.8698 19.4901 72.6096 18.4627 69.5178C17.4352 66.4287 14.3501 63.3369 12.2952 62.4945C10.2402 61.652 6.22107 64.0644 6.22107 64.0644H6.2184Z" fill="#F3C55C"/>
<path d="M15.7831 65.185C14.6222 63.9093 13.3279 62.917 12.2924 62.4945C10.2374 61.652 6.2183 64.0644 6.2183 64.0644C5.05739 64.8507 3.7577 66.5838 3.00244 68.1805C4.5263 68.5068 4.63038 67.1294 7.36586 66.862C10.5417 66.5491 10.3549 66.5464 11.9748 67.5467C13.5948 68.5469 12.9889 66.9877 14.1952 66.3618C14.9665 65.9633 15.4976 65.5381 15.7831 65.185Z" fill="#7DD2B1"/>
<path d="M4.06798 64.0643C2.29325 63.4305 1.17237 63.6177 1.17237 61.462C1.17237 59.3063 1.85291 58.6938 0.718686 58.6938C-0.415538 58.6938 -2.94019 63.607 -2.94019 65.0619C-2.94019 66.5169 -0.0499179 66.5409 0.563897 65.9258C1.17771 65.3107 4.06798 64.0643 4.06798 64.0643Z" fill="#F3C55C"/>
<path d="M19.6704 50.9619C14.904 50.9619 11.9149 55.1877 15.1842 56.4046C18.4534 57.6215 19.0165 57.4209 20.9781 58.694C22.9396 59.9644 24.8077 61.5558 25.2774 60.3388C25.7445 59.1219 27.706 58.8411 27.706 57.8114C27.706 56.7817 20.4176 50.9646 19.6704 50.9646V50.9619Z" fill="#7CC8AA"/>
<path d="M3.49097 55.284C4.45973 55.284 4.89207 55.7493 7.60353 54.8133C10.3123 53.8772 11.7615 51.6172 11.7615 51.6172L6.66946 52.5185L3.49364 55.284H3.49097Z" fill="#F1F2F2"/>
</g>
<path d="M23.7316 71.711C24.1986 72.179 24.1746 73.0456 24.7137 72.508C25.2501 71.9704 24.6203 71.4542 25.509 71.711C26.3977 71.9677 26.9581 71.4301 26.9581 70.6331C26.9581 69.8361 27.0061 68.9936 26.1174 69.3226C25.2287 69.6516 24.6683 69.8843 24.1079 70.1651C23.5474 70.4459 23.7342 71.711 23.7342 71.711H23.7316Z" fill="#DCF8C1"/>
<path d="M26.9521 73.115C26.9521 72.5533 27.2244 72.2003 27.6994 72.6764C28.1744 73.1524 29.4288 74.2838 28.5881 74.0029C27.7474 73.7221 26.9548 73.1123 26.9548 73.1123L26.9521 73.115Z" fill="#DCF8C1"/>
<path d="M25.7847 68.1992C25.7847 67.7312 26.7721 67.2284 27.3005 66.7015C27.8263 66.1746 27.4233 65.2973 27.9117 65.2973C28.4001 65.2973 28.4001 65.1556 28.4001 65.859C28.4001 66.5624 28.7737 67.4985 28.1198 67.4985C27.466 67.4985 27.3726 67.7793 26.9536 68.2019C26.5319 68.6245 25.7847 68.2019 25.7847 68.2019V68.1992Z" fill="#F3C55C"/>
<path d="M14.388 87.686L17.3396 93.6797H11.0574L14.388 87.686Z" fill="#9CA8D3"/>
<path d="M9.81784 92.6475H18.5794C20.274 92.6475 21.6511 94.0275 21.6511 95.7259V96.3035H6.74609V95.7259C6.74609 94.0275 8.12317 92.6475 9.81784 92.6475Z" fill="#9CA8D3"/>
<path d="M114.22 64.0855C113.996 66.4524 110.823 67.8405 113.534 70.5579C114.295 71.3201 115.434 71.9861 116.347 71.8363C117.988 71.5662 119.312 69.5843 119.208 68.5707C118.909 65.6929 115.317 62.5904 114.924 62.9836C114.532 63.3767 114.297 63.2858 114.22 64.0855Z" fill="#F1BBA2"/>
<path d="M113.066 69.9347C113.018 69.9347 112.97 69.9106 112.94 69.8652C112.897 69.7956 112.919 69.7047 112.988 69.6646C113.986 69.0494 115.206 67.7202 115.443 66.6504C115.678 65.5859 116.105 63.9277 116.111 63.9117C116.132 63.8341 116.212 63.7859 116.289 63.8073C116.367 63.8287 116.415 63.9063 116.394 63.9865C116.388 64.0026 115.964 65.6554 115.729 66.7172C115.473 67.8807 114.213 69.258 113.14 69.9187C113.116 69.9347 113.09 69.9401 113.063 69.9401L113.066 69.9347Z" fill="#C99565"/>
<path d="M113.838 70.8225C113.768 70.8225 113.707 70.7743 113.694 70.7048C113.678 70.6246 113.731 70.5497 113.808 70.5336C114.545 70.3892 116.133 68.9423 116.424 68.2603C116.733 67.5355 117.376 65.3477 117.376 65.091C117.376 65.0107 117.443 64.9438 117.523 64.9438C117.603 64.9438 117.67 65.0107 117.67 65.091C117.67 65.436 116.979 67.712 116.696 68.3753C116.397 69.076 114.764 70.646 113.867 70.8198C113.859 70.8198 113.848 70.8225 113.84 70.8225H113.838Z" fill="#C99565"/>
<path d="M115.386 71.5502C115.325 71.5502 115.269 71.5128 115.247 71.4512C115.221 71.3737 115.261 71.2908 115.338 71.264C116.299 70.927 117.409 69.7181 117.689 69.0656C117.977 68.3969 118.474 66.8109 118.476 66.7949C118.5 66.7173 118.583 66.6745 118.661 66.6986C118.738 66.7227 118.781 66.8056 118.757 66.8831C118.735 66.95 118.25 68.4986 117.959 69.1806C117.663 69.8733 116.504 71.1677 115.434 71.5422C115.418 71.5475 115.402 71.5502 115.386 71.5502Z" fill="#C99565"/>
<path d="M38.8173 96.2769L24.4274 96.3197L24.4093 90.1817L38.7992 90.1389C39.3516 90.1372 39.8013 90.5852 39.8029 91.1388L39.8151 95.2683C39.8168 95.8219 39.3698 96.2726 38.8173 96.2742L38.8173 96.2769Z" fill="#6683C2"/>
<path d="M28.8828 94.5965L28.8748 91.8444C28.8748 91.5368 28.6586 91.2854 28.3918 91.2854L11.9709 91.3363C11.9549 91.3363 11.9389 91.3256 11.9308 91.3095C11.7841 90.9886 11.7894 90.6328 11.9308 90.2504C11.9389 90.2317 11.9522 90.221 11.9709 90.221L29.2991 90.1675C29.5633 90.1675 29.7795 90.4162 29.7822 90.7265L29.7982 95.7466C29.7982 96.0541 29.5847 96.3055 29.3178 96.3082L12.083 96.3617C12.0029 96.3617 11.9308 96.3055 11.9042 96.2173C11.8134 95.9391 11.8214 95.653 11.9068 95.3561C11.9335 95.2678 12.0056 95.209 12.0856 95.209L28.4024 95.1608C28.6666 95.1608 28.8828 94.9094 28.8828 94.5992V94.5965Z" fill="#92AEEA"/>
<path d="M15.1082 92.2192L12.4928 92.2272C12.5408 92.0908 12.6049 92.0908 12.6796 91.136L28.7696 91.0879C28.8283 91.0879 28.847 91.3393 28.8496 91.4062L28.8603 95.1799C28.8603 95.2468 12.5969 95.2388 12.5969 95.2388C12.4688 94.3294 12.4367 94.2866 12.394 93.8935L13.9606 93.8534L12.4314 93.8587C12.3887 93.8587 12.4074 92.8665 12.4714 92.3717L15.1082 92.2165V92.2192Z" fill="#E6E6E6"/>
<path d="M28.4997 92.4492L28.5051 94.2438L28.5077 94.645L27.8032 94.4471L27.1013 94.6504V94.2492L27.0959 92.4546L28.4997 92.4492Z" fill="#F3C55C"/>
<path d="M130.018 66.9506C129.557 70.5158 126.13 72.9228 122.588 72.3612C119.047 71.7995 116.629 68.4644 117.192 64.9153C117.753 61.3662 121.081 58.943 124.622 59.5074C128.164 60.0717 130.363 64.2921 130.021 66.9533L130.018 66.9506Z" fill="#FCDCB5"/>
<path d="M139.868 80.7164C140.722 88.7186 140.909 96.563 130.215 96.563C122.062 96.563 119.887 90.5373 120.335 81.3208C120.776 72.2729 123.415 62.8826 128.342 65.2388C133.802 67.8492 139.003 72.6419 139.868 80.7164Z" fill="#FCDCB5"/>
<path d="M121.721 72.1204C121.67 72.1204 121.617 72.107 121.569 72.0803C121.422 71.9947 121.371 71.8075 121.457 71.6604C123.386 68.3012 125.412 67.2875 127.491 66.4664C129.639 65.6186 130.338 66.0679 130.458 66.1669L130.066 66.6403C130.066 66.6403 130.071 66.6456 130.082 66.651C130.077 66.6483 129.527 66.322 127.717 67.0361C125.745 67.8144 123.821 68.7772 121.99 71.9653C121.934 72.0642 121.83 72.1204 121.723 72.1204H121.721Z" fill="#9E614B"/>
<path d="M146.173 112.64C146.149 112.64 146.125 112.64 146.098 112.64C145.177 112.6 144.465 111.819 144.505 110.899C144.505 110.869 144.635 107.788 144.481 104.496C144.214 98.8392 143.232 97.8496 142.476 97.4538C141.356 96.9135 136.776 96.1967 132.394 95.817C131.476 95.7367 130.798 94.9263 130.878 94.009C130.958 93.0889 131.767 92.4096 132.682 92.4898C135.012 92.6931 142.77 93.4393 144.849 94.5546C145.943 95.1403 146.677 96.4294 147.157 98.6118C147.464 99.9999 147.678 101.797 147.793 103.953C147.985 107.547 147.841 110.904 147.835 111.046C147.795 111.942 147.059 112.642 146.17 112.642L146.173 112.64Z" fill="#FCDCB5"/>
<path d="M118.293 64.7869L116.145 62.0134C115.916 61.7165 116.153 61.2886 116.524 61.326L119.964 61.6737L118.293 64.7869Z" fill="#FCDCB5"/>
<path d="M126.291 60.3926L125.06 57.7876C124.98 57.563 124.663 57.5656 124.585 57.7876L123.499 60.1278L126.291 60.3899V60.3926Z" fill="#FCDCB5"/>
<path d="M123.244 81.3477C122.185 81.2113 121.384 80.2832 121.43 79.1947C121.494 77.6541 120.738 76.8411 120.093 76.4292C119.279 75.9103 118.502 75.9264 118.299 76.02C117.392 76.7073 116.097 76.5388 115.398 75.6348C114.694 74.7255 114.862 73.4177 115.769 72.7143C117.261 71.5589 119.668 71.508 121.761 72.5912C124.28 73.8937 125.71 76.4292 125.588 79.3712C125.54 80.5212 124.571 81.4118 123.423 81.3637C123.362 81.3637 123.303 81.3557 123.244 81.3477Z" fill="#FCDCB5"/>
<path d="M126.503 93.4124C126.066 93.4124 118.94 92.9872 118.919 94.9316C118.895 96.876 119.831 96.5283 122.441 96.5283C125.051 96.5283 129.159 96.5523 129.159 96.5523L126.503 93.4124Z" fill="#FCDCB5"/>
</g>
</g>
<defs>
<clipPath id="clip0_67_800">
<rect width="147" height="100" fill="white"/>
</clipPath>
<clipPath id="clip1_67_800">
<rect x="-7" y="-19" width="171" height="122" rx="32" fill="white"/>
</clipPath>
</defs>
</svg>
