<svg width="236" height="260" viewBox="0 0 236 260" fill="none" xmlns="http://www.w3.org/2000/svg">
<g clip-path="url(#clip0_2022_123)">
<rect width="236" height="260" fill="#D6F3BA"/>
<g clip-path="url(#clip1_2022_123)">
<path d="M202.089 168.423C199.427 167.117 197.447 171.349 200.669 172.587C203.891 173.826 205.717 174.633 206.732 174.633C207.747 174.633 208.675 171.996 207.808 171.127C206.941 170.259 203.928 169.322 202.089 168.423Z" fill="#F1BBA2"/>
<path d="M75.7588 133.914C80.2722 133.914 81.459 139.723 87.0915 141.596C94.0769 143.918 103.153 140.247 105.496 134.259C108.539 126.479 102.778 122.425 104.088 109.495C104.955 100.926 99.1314 101.684 94.1445 93.3428C89.1576 84.9957 90.4919 84.0902 83.728 76.4207C76.964 68.7513 65.662 67.6671 57.1701 69.0162C48.6782 70.3653 44.4477 71.9238 37.8005 76.5008C31.1534 81.0779 34.1603 85.9814 29.8867 89.2155C25.6131 92.4434 23.7069 96.195 22.4156 102.614C19.9313 114.934 28.2818 120.891 24.5308 125.148C20.7799 129.405 13.1674 148.483 32.8628 147.331C39.8236 146.924 46.0587 149.216 49.4715 143.924C54.4953 136.138 57.0041 141.318 63.8849 137.906C70.7719 134.487 75.7526 133.926 75.7526 133.926L75.7588 133.914Z" fill="#363537"/>
<path d="M25.2812 138.127C41.8653 124.606 43.4395 138.127 83.224 135.485C88.1309 135.158 110.464 139.661 114.775 142.316C136.629 155.764 153.711 243.83 153.711 243.83L27.1629 242.432L25.2812 138.127Z" fill="#F3C55C"/>
<path d="M57.0026 131.979C56.7136 137.561 51.6406 132.281 51.6406 139.353C51.6406 145.495 58.503 155.308 77.9279 152.197C90.2814 150.22 93.9955 139.655 86.6535 136.575C82.4967 134.832 80.5351 127.827 80.5351 127.827L57.0026 131.973V131.979Z" fill="#F1BBA2"/>
<path d="M83.3384 99.9835C87.157 115.31 87.0094 137.573 69.5829 138.91C48.2641 140.548 24.7931 98.6344 41.8998 83.2463C59.0065 67.8581 77.9272 78.2811 83.3384 99.9835Z" fill="#F1BBA2"/>
<path d="M49.5334 94.7102C47.0246 99.5583 46.8463 100.427 44.0669 103.211C41.2875 105.996 41.5458 113.209 42.874 117.324C49.2014 136.945 43.784 127.47 42.5296 128.727C41.2752 129.984 36.0792 117.17 35.366 116.456C34.6465 115.735 29.0078 95.1907 29.0078 93.0347C29.0078 90.8786 42.5911 77.8806 44.2329 76.2296C45.8809 74.5787 60.7124 71.4986 64.9245 71.4986C69.1367 71.4986 77.5547 70.9627 79.3503 73.8333C81.1397 76.704 92.786 100.753 92.786 100.753C92.786 100.753 99.7714 111.959 95.0489 111.645C89.0043 111.238 87.8667 110.018 86.3172 106.476C84.6569 102.669 83.0828 94.1189 74.7569 96.9464C60.6817 101.721 49.5334 94.7226 49.5334 94.7226V94.7102Z" fill="#363537"/>
<path d="M-8.26018 252.35C-13.6529 218.709 13.1263 141.312 30.5097 134.265C42.7587 129.294 52.1975 133.205 54.4727 146.789C56.7478 160.372 36.0377 224.376 36.0377 224.376C36.0377 224.376 96.7721 207.658 102.153 224.376C107.527 241.095 104.84 252.941 104.84 252.941L-8.25403 252.35H-8.26018Z" fill="#F3C55C"/>
<path d="M47.8888 226.083C42.3239 226.083 37.38 225.96 33.6414 225.861C31.8397 225.818 30.2778 225.775 29.005 225.756C28.4516 225.75 27.9904 225.498 27.7014 225.054C26.3117 222.904 29.337 215.567 35.2709 201.688C41.34 187.483 48.8911 169.803 48.8911 160.212C48.8911 159.793 49.2293 159.454 49.6474 159.454C50.0656 159.454 50.4038 159.793 50.4038 160.212C50.4038 170.117 42.785 187.951 36.6606 202.286C34.2194 207.996 31.9196 213.387 30.4746 217.403C28.4085 223.151 28.8512 224.093 28.9742 224.235C28.9742 224.235 28.9927 224.235 29.0234 224.235C30.3024 224.253 31.8705 224.29 33.6783 224.34C41.9795 224.549 54.5175 224.869 67.4182 223.914C67.8364 223.884 68.1992 224.198 68.2299 224.617C68.2607 225.036 67.9471 225.399 67.5289 225.43C60.7588 225.929 53.9579 226.077 47.8888 226.077V226.083Z" fill="#C99565"/>
<path d="M57.2006 115.236C57.0653 116.111 57.9815 118.754 59.9369 118.15C61.2282 117.75 61.013 114.448 59.4942 113.844C58.2582 113.357 57.3358 114.362 57.2006 115.236Z" fill="#372313"/>
<path d="M73.2249 110.333C72.9973 111.189 73.8029 113.899 75.8075 113.499C77.1357 113.24 77.0926 109.951 75.6537 109.193C74.4793 108.571 73.4524 109.476 73.2249 110.333Z" fill="#372313"/>
<path d="M65.7539 129.928C66.8177 131.16 69.3696 132.608 73.2927 131.277C77.2158 129.947 76.7669 125.986 76.7669 125.986C73.225 128.228 69.8492 129.306 65.7539 129.922V129.928Z" fill="#E66C40"/>
<path d="M70.3527 107.308C71.1398 107.308 73.6302 105.559 75.9976 105.94C78.365 106.322 78.2789 105.996 77.7132 105.423C77.1413 104.85 75.5364 104.259 72.5357 104.647C68.8954 105.121 69.6702 107.308 70.3527 107.308Z" fill="#363537"/>
<path d="M59.9147 109.821C59.9578 109.063 58.3344 108.879 57.16 109.187C55.5489 109.612 53.0893 111.965 52.6834 113.653C52.4682 114.534 53.0893 114.965 53.9932 113.727C55.0631 112.267 55.9055 111.38 57.2645 111.17C58.359 110.998 59.884 110.419 59.9147 109.827V109.821Z" fill="#363537"/>
<path d="M46.35 117.602C48.2685 120.312 50.9126 125.641 48.9449 127.039C46.9772 128.438 41.1418 125.382 39.2232 122.672C37.3047 119.961 37.3416 116.629 39.3093 115.23C41.277 113.832 44.4315 114.891 46.35 117.602Z" fill="#F1BBA2"/>
<path d="M69.9153 140.782C66.0476 140.782 62.8378 139.488 62.6594 139.414C62.4073 139.31 62.2843 139.02 62.3889 138.768C62.4934 138.515 62.7824 138.392 63.0345 138.497C63.0899 138.521 68.6732 140.764 73.7647 139.273C74.0291 139.199 74.2996 139.347 74.3796 139.612C74.4534 139.876 74.3058 140.148 74.0414 140.228C72.6517 140.634 71.2435 140.788 69.9153 140.788V140.782Z" fill="#C99565"/>
<path d="M48.4194 127.834C49.8153 129.232 56.278 135.571 62.8513 138.959C64.7575 139.945 63.7921 146.499 63.6261 147.479C62.3717 154.932 54.4025 153.325 49.6431 150.941C44.5332 148.378 49.3172 132.041 42.0859 131.548C33.8892 130.988 30.6302 134.622 29.4372 134.308C27.1006 133.686 31.2881 130.051 36.9883 128.333C41.5571 126.959 47.5832 127.298 48.4194 127.834Z" fill="#363537"/>
<path d="M51.8798 77.4555C48.7807 76.9442 47.268 80.6834 45.8168 82.7348C45.5278 83.1413 46.1981 83.6588 46.5055 83.2707C47.8583 81.5828 49.0943 78.016 51.7568 78.3425C52.2549 78.4041 52.3779 77.5417 51.8737 77.4555H51.8798Z" fill="#352D27"/>
<path d="M53.2824 80.6526C51.1917 80.8436 49.9681 82.4637 48.7567 83.9976C48.4062 84.4412 49.0211 85.0695 49.3839 84.626C50.4231 83.3385 51.5115 81.7676 53.2886 81.552C53.8481 81.4843 53.8727 80.5972 53.2886 80.6526H53.2824Z" fill="#352D27"/>
<path d="M38.2945 99.5334C36.5112 101.677 35.2999 104.412 34.8018 107.16C34.6973 107.72 35.552 107.967 35.6688 107.4C36.1853 104.825 37.2799 102.225 38.9217 100.162C39.2722 99.7244 38.6634 99.096 38.2945 99.5334Z" fill="#352D27"/>
<path d="M58.9507 143.087C58.9937 142.502 58.1021 142.514 58.0468 143.087C57.9361 144.331 58.1759 145.582 58.1144 146.832C58.0837 147.393 58.016 148.046 57.6655 148.508C57.2167 149.099 56.4788 149.099 55.8024 149.05C55.2121 149.007 55.2428 149.882 55.8024 149.956C59.9468 150.473 58.7785 145.582 58.9507 143.087Z" fill="#352D27"/>
<path d="M100.459 114.719C99.9482 113.659 99.2841 112.686 98.663 111.694C98.2572 111.041 97.5254 110.123 97.5623 109.31C97.5869 108.743 96.7138 108.743 96.683 109.31C96.64 109.994 97.0212 110.678 97.3471 111.251C97.8575 112.156 98.4478 113.019 98.9766 113.912C99.4562 114.713 99.9974 115.593 100.151 116.536C100.311 117.515 99.7391 117.928 98.8598 118.168C98.2941 118.322 98.5339 119.16 99.0996 119.043C99.9974 118.852 100.846 118.347 101.055 117.392C101.252 116.487 100.852 115.526 100.465 114.725L100.459 114.719Z" fill="#352D27"/>
<path d="M100.509 125.579C99.9987 125.006 99.353 124.729 98.6766 124.408C97.8588 124.014 97.4407 123.626 97.5575 122.653C97.6129 122.166 96.7581 122.043 96.6905 122.536C96.4876 123.983 97.2009 124.71 98.443 125.289C99.0579 125.573 100.066 126.004 100.22 126.768C100.337 127.371 99.3407 127.858 98.9902 128.246C98.6029 128.677 99.2055 129.293 99.6298 128.887C100.097 128.437 100.773 128.061 101.044 127.445C101.345 126.762 100.97 126.096 100.515 125.585L100.509 125.579Z" fill="#352D27"/>
<path d="M77.0298 84.1579C76.2489 83.3201 75.2527 83.0183 74.1397 82.9135C72.8853 82.7903 71.6617 82.8581 70.7946 81.7862C70.4196 81.3242 69.7801 81.9772 70.1428 82.4392C71.7601 84.4782 74.644 83.0675 76.3841 84.7985C76.7961 85.2113 77.4172 84.5829 77.0237 84.1579H77.0298Z" fill="#352D27"/>
<path d="M110.672 140.844C117.565 141.78 139.437 167.419 167.12 173.37C194.804 179.32 204.919 173.043 204.919 173.043L216.737 192.226C189.651 212.105 147.339 201.663 120.517 188.277L110.672 140.844Z" fill="#F3C55C"/>
<path d="M220.441 249.614C220.441 249.614 237.166 196.741 202.11 170.831C194.731 165.38 188.312 162.811 172.798 162.866C156.275 162.928 141.407 178.433 135.565 188.936C124.743 208.396 115.777 249.614 115.777 249.614H220.441Z" fill="#7FCBB4"/>
<path d="M200.676 249.571C200.264 249.571 199.938 249.238 199.938 248.832V218.708C199.932 218.567 199.003 200.622 196.494 193.636C196.353 193.248 196.556 192.823 196.943 192.688C197.331 192.546 197.755 192.749 197.89 193.137C200.479 200.333 201.383 217.932 201.426 218.678V248.838C201.426 249.251 201.094 249.577 200.688 249.577L200.676 249.571Z" fill="#539A85"/>
<path d="M146.149 244.772C145.78 244.772 145.46 244.495 145.417 244.113C145.239 242.567 141.039 206.068 143.437 193.242C143.511 192.842 143.898 192.577 144.304 192.651C144.704 192.725 144.968 193.113 144.894 193.519C142.533 206.123 146.85 243.571 146.893 243.947C146.942 244.353 146.647 244.723 146.241 244.772C146.21 244.772 146.18 244.772 146.155 244.772H146.149Z" fill="#539A85"/>
<path d="M163.088 169.002C159.373 173.228 157.006 186.158 163.782 186.503C179.715 187.322 185.267 165.644 181 164.264C171.247 161.104 163.088 169.002 163.088 169.002Z" fill="#F1F2F2"/>
<path d="M162.41 158.191C162.41 159.842 161.444 170.375 164.15 171.879C172.07 176.277 181.011 167.074 181.011 164.271V155.228L162.416 158.197L162.41 158.191Z" fill="#F1BBA2"/>
<path d="M149.694 116.813C148.92 108.755 144.216 102.028 140.151 105.404C136.087 108.78 131.438 112.334 132.428 116.813C132.981 119.32 146.011 123.417 146.011 123.417L149.694 116.813Z" fill="#363537"/>
<path d="M141.675 124.673C141.46 124.673 141.245 124.581 141.097 124.396C140.839 124.076 140.894 123.608 141.208 123.355C143.797 121.267 145.057 119.037 145.057 116.542C145.057 116.129 145.389 115.803 145.795 115.803C146.201 115.803 146.533 116.135 146.533 116.542C146.533 119.474 145.051 122.154 142.13 124.513C141.995 124.624 141.829 124.68 141.669 124.68L141.675 124.673Z" fill="#DE501D"/>
<path d="M143.999 135.959C141.422 136.538 139.516 137.203 138.458 136.15C137.401 135.09 138.458 132.361 138.458 132.361L141.859 131.813L143.999 135.959Z" fill="#82512B"/>
<path d="M191.607 138.7C189.16 155.609 178.319 169.002 163.106 169.002C151.865 169.002 144.443 163.365 143.226 151.839C142.943 149.16 143.484 145.439 143.281 143.868C142.943 141.225 141 138.293 141 135.521C141 118.611 155.512 110.498 170.725 110.498C185.937 110.498 194.03 121.969 191.607 138.7Z" fill="#F1BBA2"/>
<path d="M158.94 140.222C158.878 139.674 160.176 138.571 161.953 138.99C163.724 139.409 165.039 140.665 164.461 141.01C163.883 141.355 162.586 140.283 161.455 140.413C160.323 140.536 158.989 140.61 158.946 140.222H158.94Z" fill="#363537"/>
<path d="M150.136 140.542C150.198 139.994 148.9 138.891 147.123 139.31C145.352 139.729 144.036 140.986 144.614 141.331C145.192 141.676 146.49 140.604 147.621 140.733C148.753 140.863 150.087 140.93 150.13 140.542H150.136Z" fill="#363537"/>
<path d="M156.666 129.842C169.616 128.573 170.348 133.803 174.05 138.7C177.757 143.597 186.834 142.655 191.003 141.996C192.423 141.774 194.569 132.521 193.979 126.996C193.542 122.899 193.782 115.371 185.358 110.985C176.934 106.599 174.007 105.614 165.822 107.135C157.644 108.657 148.758 130.618 156.66 129.842H156.666Z" fill="#363537"/>
<path d="M178.691 117.324C179.466 109.267 187.343 102.41 191.414 105.786C195.485 109.162 199.291 118.753 197.182 120.219C195.073 121.686 182.375 123.928 182.375 123.928L178.691 117.324Z" fill="#363537"/>
<path d="M183.642 124.144C180.057 124.144 178.581 121.944 178.09 120.909C177.229 119.104 177.321 116.899 178.299 115.994C178.6 115.716 179.067 115.735 179.344 116.037C179.621 116.339 179.602 116.807 179.301 117.084C178.957 117.404 178.741 118.852 179.418 120.269C179.934 121.353 181.33 123.09 184.878 122.566C185.278 122.505 185.659 122.788 185.721 123.195C185.782 123.601 185.499 123.977 185.093 124.039C184.571 124.113 184.085 124.15 183.636 124.15L183.642 124.144Z" fill="#D9886B"/>
<path d="M137.478 135.324C141.801 140.948 143.492 125.646 155.508 128.572C160.199 129.712 156.516 121.655 160.986 118.531C165.451 115.408 172.571 108.422 164.823 107.412C157.076 106.402 146.585 110.887 143.671 115.679C142.373 117.811 139.692 120.657 139.305 124.501C138.788 129.687 136.236 133.704 137.485 135.324H137.478Z" fill="#363537"/>
<path d="M151.945 158.567C151.945 158.567 153.292 161.671 156.883 161.862C160.474 162.053 161.12 158.597 161.12 158.597C157.959 159.675 155.223 159.897 151.945 158.567Z" fill="#F1F2F2"/>
<path d="M161.568 144.521C160.941 144.755 160.307 145.765 160.609 147.256C160.91 148.741 162.023 149.394 162.718 148.944C163.413 148.494 163.911 146.412 163.474 145.544C163.038 144.675 161.968 144.373 161.562 144.527L161.568 144.521Z" fill="#372313"/>
<path d="M147.506 144.546C146.891 144.804 146.294 145.839 146.657 147.318C147.02 148.79 148.151 149.394 148.834 148.919C149.517 148.439 149.922 146.344 149.455 145.494C148.988 144.644 147.899 144.385 147.506 144.552V144.546Z" fill="#372313"/>
<path d="M170.604 123.816C169.073 122.042 166.208 121.568 164.08 122.393C163.564 122.597 163.779 123.428 164.314 123.237C166.263 122.541 168.489 123.003 169.965 124.457C170.383 124.87 170.986 124.254 170.604 123.816Z" fill="#251C16"/>
<path d="M173.536 115.63C170.923 115.002 168.512 115.31 166.114 116.498C165.598 116.757 166.053 117.527 166.569 117.275C168.783 116.197 170.904 116.03 173.302 116.492C173.862 116.603 174.108 115.765 173.542 115.63H173.536Z" fill="#251C16"/>
<path d="M183.999 132.447C182.462 132.952 180.543 131.326 180.605 129.749C180.629 129.182 179.769 129.188 179.732 129.749C179.596 131.843 182.179 134.123 184.239 133.316C184.762 133.106 184.559 132.262 183.999 132.447Z" fill="#251C16"/>
<path d="M148.075 120.244C146.581 120.102 145.081 120.601 144.208 121.882C143.882 122.357 143.722 122.899 143.55 123.441C143.298 124.236 143.027 124.599 142.154 124.679C141.588 124.735 141.57 125.566 142.154 125.579C143.445 125.597 144.079 124.839 144.447 123.687C144.663 123.01 144.866 122.4 145.413 121.901C146.138 121.236 147.128 121.057 148.082 121.112C148.647 121.143 148.629 120.293 148.082 120.244H148.075Z" fill="#251C16"/>
<path d="M155.271 112.501C154.281 112.248 153.617 111.521 152.523 111.657C151.502 111.786 150.69 112.501 150.063 113.271C149.707 113.708 150.297 114.342 150.697 113.905C151.299 113.258 152.043 112.482 153.015 112.574C153.734 112.642 154.324 113.215 155.038 113.357C155.591 113.468 155.831 112.642 155.271 112.501Z" fill="#251C16"/>
<path d="M163.09 169.495C162.819 169.495 162.598 169.273 162.598 169.002C162.598 168.731 162.819 168.509 163.09 168.509C167.394 168.509 170.979 167.678 173.734 166.039C173.967 165.897 174.269 165.977 174.41 166.212C174.551 166.446 174.472 166.747 174.238 166.889C171.329 168.62 167.578 169.495 163.09 169.495Z" fill="#C48976"/>
<path d="M165.887 249.78C165.887 241.865 176.924 226.464 197.185 226.464C217.447 226.464 227.826 227.881 227.826 227.881V249.485L165.887 249.78Z" fill="#7FCBB4"/>
<path d="M165.539 232.046C165.244 232.046 164.961 231.867 164.851 231.571C164.703 231.189 164.894 230.758 165.275 230.61C171.578 228.196 195.332 225.67 200.681 225.738C201.093 225.738 201.419 226.076 201.413 226.489C201.413 226.896 201.075 227.222 200.675 227.222C200.675 227.222 200.669 227.222 200.663 227.222C195.541 227.148 171.83 229.686 165.81 231.996C165.724 232.027 165.632 232.046 165.546 232.046H165.539Z" fill="#539A85"/>
<path d="M67.1116 236.69H160.067C165.534 236.69 169.973 241.138 169.973 246.615V248.155H67.1055V236.684L67.1116 236.69Z" fill="#7C8CAF"/>
<path d="M147.489 248.161H45.1313L38.4042 171.953C38.0168 169.754 38.9761 167.727 41.1774 167.727H137.06C138.769 167.727 140.239 168.971 140.54 170.684L147.489 248.161Z" fill="#7C8CAF"/>
<path d="M96.5861 196.391C96.8566 200.617 93.9051 204.245 89.9943 204.497C86.0835 204.75 82.6892 201.534 82.4125 197.308C82.1358 193.083 85.0935 189.454 89.0043 189.202C92.9151 188.949 96.3094 192.165 96.5861 196.391Z" fill="#DBDBDB"/>
<path d="M320.102 246.959H-74.9023V263.167H320.102V246.959Z" fill="#DCBFA3"/>
<path d="M250.477 208.791C246.406 199.692 240.005 180.201 240.005 170.776C240.005 161.351 241.462 152.259 240.005 147.059C238.548 141.86 230.369 107.141 233.554 94.3711C235.541 86.4121 236.223 92.0179 236.223 92.0179C236.223 92.0179 249.026 112.297 250.477 120.416C251.928 128.536 250.028 143.813 251.934 148.334C253.834 152.856 257.173 163.63 257.173 170.782V207.824L250.483 208.797L250.477 208.791Z" fill="#C2E8D8"/>
<path d="M-25.1607 229.095C-51.0298 229.095 -72.0781 208.008 -72.0781 182.092C-72.0781 167.524 -65.4986 154.014 -54.0183 145.033C-53.4341 144.577 -52.5979 144.669 -52.1305 145.236L6.08273 215.382C6.5562 215.949 6.48857 216.793 5.93515 217.28C-2.6428 224.894 -13.6865 229.089 -25.1669 229.089L-25.1607 229.095ZM-53.3665 148.027C-63.5371 156.472 -69.3418 168.817 -69.3418 182.099C-69.3418 206.505 -49.5233 226.36 -25.1607 226.36C-14.7934 226.36 -4.80113 222.725 3.12502 216.103L-53.3665 148.027Z" fill="#9CA8D3"/>
<path d="M-25.1669 219.7C-4.43412 219.7 12.3731 202.863 12.3731 182.092C12.3731 161.322 -4.43412 144.484 -25.1669 144.484C-45.8998 144.484 -62.707 161.322 -62.707 182.092C-62.707 202.863 -45.8998 219.7 -25.1669 219.7Z" fill="#68CCEB"/>
<path d="M-3.19119 190.933C-2.1151 192.011 -2.17044 194.007 -0.928327 192.768C0.307637 191.53 -1.14355 190.341 0.904094 190.933C2.95174 191.524 4.24304 190.286 4.24304 188.45C4.24304 186.614 4.35372 184.674 2.30608 185.432C0.258441 186.189 -1.03286 186.725 -2.32417 187.372C-3.61547 188.019 -3.18504 190.933 -3.18504 190.933H-3.19119Z" fill="#DCF8C1"/>
<path d="M4.23047 194.166C4.23047 192.873 4.85768 192.06 5.95221 193.156C7.04675 194.253 9.93681 196.858 7.99985 196.212C6.0629 195.565 4.23661 194.16 4.23661 194.16L4.23047 194.166Z" fill="#DCF8C1"/>
<path d="M1.53906 182.844C1.53906 181.766 3.81422 180.608 5.03174 179.394C6.24311 178.181 5.31459 176.16 6.43987 176.16C7.56516 176.16 7.56516 175.834 7.56516 177.454C7.56516 179.074 8.42602 181.23 6.9195 181.23C5.41298 181.23 5.19776 181.877 4.23236 182.85C3.26081 183.823 1.53906 182.85 1.53906 182.85V182.844Z" fill="#F3C55C"/>
<path d="M205.303 173.369C204.786 178.821 197.475 182.018 203.723 188.277C205.475 190.033 208.101 191.567 210.204 191.222C213.985 190.599 217.035 186.035 216.796 183.7C216.107 177.072 207.83 169.926 206.926 170.831C206.022 171.737 205.481 171.528 205.303 173.369Z" fill="#F1BBA2"/>
<path d="M202.644 186.842C202.534 186.842 202.423 186.787 202.355 186.682C202.257 186.522 202.306 186.312 202.466 186.22C204.766 184.803 207.576 181.741 208.123 179.277C208.664 176.826 209.648 173.006 209.66 172.969C209.71 172.791 209.894 172.68 210.072 172.729C210.251 172.778 210.361 172.957 210.312 173.142C210.3 173.179 209.322 176.986 208.781 179.431C208.191 182.111 205.288 185.284 202.817 186.805C202.761 186.842 202.7 186.854 202.638 186.854L202.644 186.842Z" fill="#C99565"/>
<path d="M204.421 188.887C204.261 188.887 204.119 188.776 204.089 188.616C204.052 188.431 204.175 188.258 204.353 188.222C206.05 187.889 209.709 184.556 210.379 182.985C211.092 181.316 212.574 176.277 212.574 175.686C212.574 175.501 212.728 175.347 212.913 175.347C213.097 175.347 213.251 175.501 213.251 175.686C213.251 176.48 211.658 181.722 211.006 183.25C210.318 184.864 206.554 188.48 204.488 188.881C204.47 188.881 204.445 188.887 204.427 188.887H204.421Z" fill="#C99565"/>
<path d="M207.991 190.563C207.85 190.563 207.721 190.476 207.671 190.335C207.61 190.156 207.702 189.965 207.88 189.903C210.094 189.127 212.652 186.343 213.298 184.84C213.962 183.3 215.106 179.647 215.112 179.61C215.167 179.431 215.358 179.333 215.536 179.388C215.714 179.443 215.813 179.634 215.757 179.813C215.708 179.967 214.589 183.534 213.919 185.105C213.236 186.7 210.568 189.682 208.102 190.544C208.065 190.556 208.028 190.563 207.991 190.563Z" fill="#C99565"/>
<path d="M31.5691 247.515L-1.58655 247.613L-1.62842 233.476L31.5272 233.377C32.8001 233.373 33.8362 234.405 33.84 235.68L33.8681 245.192C33.8719 246.467 32.8419 247.505 31.5691 247.509L31.5691 247.515Z" fill="#6683C2"/>
<path d="M8.67906 243.645L8.66061 237.306C8.66061 236.598 8.16254 236.019 7.54763 236.019L-30.2876 236.136C-30.3245 236.136 -30.3614 236.111 -30.3798 236.074C-30.718 235.335 -30.7057 234.516 -30.3798 233.635C-30.3614 233.592 -30.3307 233.567 -30.2876 233.567L9.63832 233.444C10.2471 233.444 10.7452 234.017 10.7513 234.731L10.7882 246.294C10.7882 247.002 10.2963 247.582 9.68136 247.588L-30.0294 247.711C-30.2138 247.711 -30.3798 247.582 -30.4413 247.378C-30.6504 246.738 -30.632 246.078 -30.4352 245.395C-30.3737 245.191 -30.2077 245.056 -30.0232 245.056L7.57223 244.945C8.18099 244.945 8.67906 244.366 8.67906 243.651V243.645Z" fill="#92AEEA"/>
<path d="M-23.0589 238.169L-29.085 238.187C-28.9743 237.873 -28.8267 237.873 -28.6545 235.674L8.41822 235.563C8.5535 235.563 8.59654 236.142 8.60269 236.296L8.62728 244.988C8.62728 245.142 -28.8452 245.124 -28.8452 245.124C-29.1403 243.029 -29.2141 242.931 -29.3125 242.025L-25.703 241.933L-29.2264 241.945C-29.3248 241.945 -29.2818 239.66 -29.1342 238.52L-23.0589 238.163V238.169Z" fill="#E6E6E6"/>
<path d="M7.79692 238.699L7.80921 242.832L7.81537 243.756L6.19201 243.3L4.5748 243.769V242.845L4.5625 238.711L7.79692 238.699Z" fill="#F3C55C"/>
<path d="M241.701 179.968C240.637 188.179 232.742 193.723 224.582 192.43C216.422 191.136 210.851 183.454 212.149 175.28C213.44 167.105 221.108 161.524 229.268 162.824C237.427 164.123 242.494 173.844 241.707 179.974L241.701 179.968Z" fill="#FCDCB5"/>
<path d="M264.395 211.674C266.362 230.105 266.793 248.173 242.154 248.173C223.368 248.173 218.357 234.294 219.39 213.066C220.404 192.226 226.486 170.597 237.837 176.024C250.418 182.037 262.402 193.076 264.395 211.674Z" fill="#FCDCB5"/>
<path d="M222.583 191.876C222.467 191.876 222.344 191.845 222.233 191.783C221.895 191.586 221.778 191.155 221.975 190.816C226.42 183.079 231.087 180.744 235.878 178.853C240.828 176.9 242.439 177.935 242.715 178.163L241.811 179.253C241.811 179.253 241.824 179.266 241.848 179.278C241.836 179.272 240.569 178.52 236.4 180.165C231.856 181.958 227.423 184.175 223.204 191.518C223.075 191.746 222.835 191.876 222.589 191.876H222.583Z" fill="#9E614B"/>
<path d="M214.685 174.984L209.735 168.596C209.207 167.912 209.754 166.926 210.609 167.013L218.535 167.813L214.685 174.984Z" fill="#FCDCB5"/>
<path d="M233.112 164.863L230.277 158.863C230.092 158.345 229.361 158.351 229.182 158.863L226.68 164.253L233.112 164.856V164.863Z" fill="#FCDCB5"/>
<path d="M226.094 213.128C223.653 212.814 221.808 210.676 221.913 208.169C222.06 204.621 220.32 202.748 218.832 201.799C216.957 200.604 215.167 200.641 214.7 200.857C212.609 202.44 209.627 202.052 208.016 199.97C206.393 197.875 206.78 194.863 208.871 193.243C212.308 190.581 217.854 190.464 222.675 192.959C228.48 195.959 231.776 201.799 231.493 208.575C231.382 211.224 229.15 213.276 226.506 213.165C226.365 213.165 226.229 213.146 226.094 213.128Z" fill="#FCDCB5"/>
<path d="M233.602 240.916C232.593 240.916 216.175 239.937 216.126 244.415C216.071 248.894 218.229 248.093 224.243 248.093C230.257 248.093 239.72 248.148 239.72 248.148L233.602 240.916Z" fill="#FCDCB5"/>
</g>
</g>
<defs>
<clipPath id="clip0_2022_123">
<rect width="236" height="260" fill="white"/>
</clipPath>
<clipPath id="clip1_2022_123">
<rect x="-74" y="-18" width="394" height="281" rx="32" fill="white"/>
</clipPath>
</defs>
</svg>
