<svg width="1200" height="579" fill="none" xmlns="http://www.w3.org/2000/svg"><path d="M898.5 315c19.054 0 34.5-15.446 34.5-34.5 0-19.054-15.446-34.5-34.5-34.5-19.054 0-34.5 15.446-34.5 34.5 0 19.054 15.446 34.5 34.5 34.5Z" fill="#7FCBB4"/><path d="M239 313c28.167 0 51-22.834 51-51 0-28.167-22.833-51-51-51s-51 22.833-51 51c0 28.166 22.833 51 51 51Z" fill="#68CCEA"/><path d="M521 447c31.48 0 57-25.967 57-58s-25.52-58-57-58-57 25.967-57 58 25.52 58 57 58Z" fill="#F2C45B"/><path d="M131 230c41.421 0 75-33.579 75-75s-33.579-75-75-75-75 33.579-75 75 33.579 75 75 75ZM1007 168c32.03 0 58-25.967 58-58 0-32.032-25.97-58-58-58-32.033 0-58 25.968-58 58 0 32.033 25.967 58 58 58ZM475.5 579c36.175 0 65.5-29.325 65.5-65.5S511.675 448 475.5 448 410 477.325 410 513.5s29.325 65.5 65.5 65.5ZM1038 533.684c62.96 0 114-51.009 114-113.933 0-62.923-51.04-113.932-114-113.932-62.961 0-114 51.009-114 113.932 0 62.924 51.039 113.933 114 113.933Z" fill="#fff" fill-opacity=".63"/><path d="M656.5 271.839c24.024 0 43.5-19.24 43.5-42.975 0-23.734-19.476-42.974-43.5-42.974S613 205.13 613 228.864c0 23.735 19.476 42.975 43.5 42.975ZM448 335.801c87.261 0 158-70.921 158-158.406S535.261 18.989 448 18.989s-158 70.92-158 158.406c0 87.485 70.739 158.406 158 158.406Z" fill="#fff"/><path d="M339.315 172.545c-1.296 0-2.488-.224-3.576-.672a8.847 8.847 0 0 1-2.856-1.872 8.656 8.656 0 0 1-1.896-2.856c-.448-1.104-.672-2.296-.672-3.576 0-1.28.224-2.464.672-3.552a8.395 8.395 0 0 1 1.896-2.832 8.656 8.656 0 0 1 2.856-1.896c1.088-.448 2.28-.672 3.576-.672 1.296 0 2.488.224 3.576.672a8.656 8.656 0 0 1 2.856 1.896 8.395 8.395 0 0 1 1.896 2.832c.448 1.088.672 2.272.672 3.552 0 1.28-.224 2.472-.672 3.576a8.656 8.656 0 0 1-1.896 2.856 8.847 8.847 0 0 1-2.856 1.872c-1.088.448-2.28.672-3.576.672Zm0-2.064c1.296 0 2.44-.296 3.432-.888a6.067 6.067 0 0 0 2.304-2.448c.56-1.056.84-2.248.84-3.576 0-1.328-.28-2.512-.84-3.552a6.067 6.067 0 0 0-2.304-2.448c-.992-.592-2.136-.888-3.432-.888-1.28 0-2.424.296-3.432.888a6.235 6.235 0 0 0-2.328 2.448c-.544 1.04-.816 2.224-.816 3.552 0 1.328.272 2.52.816 3.576a6.235 6.235 0 0 0 2.328 2.448c1.008.592 2.152.888 3.432.888Zm21.059 1.68v-11.904h2.232v11.904h-2.232Zm-8.952 0v-11.904h2.232v11.904h-2.232Zm1.08-5.328v-1.848h9.12v1.848h-9.12Zm12.388 5.328v-1.872h.912c.448 0 .776-.112.984-.336.224-.224.36-.616.408-1.176l.744-8.52h8.76v11.904h-2.232v-11.496l1.584 1.464h-7.68l1.728-1.464-.816 8.496c-.096 1.12-.392 1.904-.888 2.352-.496.432-1.24.648-2.232.648h-1.272Zm25.606 0h-2.088v-2.352l-.072-.576v-4.44c0-.944-.304-1.688-.912-2.232-.608-.56-1.432-.84-2.472-.84-.752 0-1.44.16-2.064.48a5.015 5.015 0 0 0-1.632 1.272l-1.392-1.44a6.874 6.874 0 0 1 2.256-1.584c.864-.384 1.824-.576 2.88-.576 1.088 0 2.04.2 2.856.6.832.4 1.48.96 1.944 1.68.464.704.696 1.56.696 2.568v7.44Zm-6.48.384c-.896 0-1.688-.16-2.376-.48-.688-.336-1.224-.792-1.608-1.368-.384-.576-.576-1.232-.576-1.968 0-.832.232-1.536.696-2.112.48-.592 1.136-1.04 1.968-1.344.832-.32 1.784-.48 2.856-.48h3.624v1.656h-3.384c-1.008 0-1.84.184-2.496.552-.64.352-.96.904-.96 1.656 0 .64.24 1.152.72 1.536.496.384 1.136.576 1.92.576.768 0 1.464-.152 2.088-.456a3.727 3.727 0 0 0 1.488-1.272c.384-.56.6-1.2.648-1.92l.792.432c0 .96-.232 1.816-.696 2.568a4.9 4.9 0 0 1-1.92 1.776c-.8.432-1.728.648-2.784.648Zm9.71-.384v-11.904h2.184v8.976l-.168-.048 7.128-8.928h1.944v11.904h-2.184v-8.976l.192.072-7.152 8.904h-1.944Zm5.688-14.04c-1.104 0-2.024-.28-2.76-.84-.736-.576-1.168-1.384-1.296-2.424h1.896c.096.672.328 1.16.696 1.464.384.304.872.456 1.464.456s1.072-.152 1.44-.456c.384-.304.624-.792.72-1.464h1.896c-.128 1.04-.56 1.848-1.296 2.424-.736.56-1.656.84-2.76.84Zm18.03 14.04v-11.904h2.232v11.904h-2.232Zm-8.952 0v-11.904h2.232v11.904h-2.232Zm1.08-5.328v-1.848h9.12v1.848h-9.12Zm19.204-.528h-6.528v-1.944h6.528v1.944Zm2.591 5.856v-11.904h2.208v11.4l-.576-1.344h6.216l-.624 1.344v-11.4h2.208v11.4l-.456-1.344h6.264l-.792 1.344v-11.4h2.208v11.904h-16.656Zm28.408 0-6.504-6.168h.24l5.88-5.736h2.856l-6.384 6.216-.456-1.248 7.416 6.936h-3.048Zm-8.088 0v-11.904h2.232v11.904h-2.232Zm17.945.384c-1.248 0-2.352-.272-3.312-.816a5.927 5.927 0 0 1-2.256-2.232c-.544-.96-.816-2.056-.816-3.288 0-1.232.272-2.32.816-3.264a5.927 5.927 0 0 1 2.256-2.232c.96-.56 2.064-.84 3.312-.84 1.248 0 2.344.28 3.288.84a5.927 5.927 0 0 1 2.256 2.232c.56.944.84 2.032.84 3.264 0 1.232-.28 2.328-.84 3.288a5.927 5.927 0 0 1-2.256 2.232c-.944.544-2.04.816-3.288.816Zm0-1.92c.8 0 1.504-.184 2.112-.552a3.722 3.722 0 0 0 1.416-1.56c.336-.672.504-1.44.504-2.304 0-.864-.168-1.624-.504-2.28a3.722 3.722 0 0 0-1.416-1.56c-.608-.384-1.312-.576-2.112-.576s-1.512.192-2.136.576a3.722 3.722 0 0 0-1.416 1.56c-.336.656-.504 1.416-.504 2.28 0 .864.168 1.632.504 2.304a3.722 3.722 0 0 0 1.416 1.56c.624.368 1.336.552 2.136.552Zm7.898 1.536v-1.872h.912c.448 0 .776-.112.984-.336.224-.224.36-.616.408-1.176l.744-8.52h8.76v11.904h-2.232v-11.496l1.584 1.464h-7.68l1.728-1.464-.816 8.496c-.096 1.12-.392 1.904-.888 2.352-.496.432-1.24.648-2.232.648h-1.272Zm25.606 0h-2.088v-2.352l-.072-.576v-4.44c0-.944-.304-1.688-.912-2.232-.608-.56-1.432-.84-2.472-.84-.752 0-1.44.16-2.064.48a5.015 5.015 0 0 0-1.632 1.272l-1.392-1.44a6.874 6.874 0 0 1 2.256-1.584c.864-.384 1.824-.576 2.88-.576 1.088 0 2.04.2 2.856.6.832.4 1.48.96 1.944 1.68.464.704.696 1.56.696 2.568v7.44Zm-6.48.384c-.896 0-1.688-.16-2.376-.48-.688-.336-1.224-.792-1.608-1.368-.384-.576-.576-1.232-.576-1.968 0-.832.232-1.536.696-2.112.48-.592 1.136-1.04 1.968-1.344.832-.32 1.784-.48 2.856-.48h3.624v1.656h-3.384c-1.008 0-1.84.184-2.496.552-.64.352-.96.904-.96 1.656 0 .64.24 1.152.72 1.536.496.384 1.136.576 1.92.576.768 0 1.464-.152 2.088-.456a3.727 3.727 0 0 0 1.488-1.272c.384-.56.6-1.2.648-1.92l.792.432c0 .96-.232 1.816-.696 2.568a4.9 4.9 0 0 1-1.92 1.776c-.8.432-1.728.648-2.784.648Zm14.398-.384v-11.904h8.448v1.872h-8.016l1.8-1.416v11.448h-2.232Zm16.14.384c-1.248 0-2.352-.272-3.312-.816a5.927 5.927 0 0 1-2.256-2.232c-.544-.96-.816-2.056-.816-3.288 0-1.232.272-2.32.816-3.264a5.927 5.927 0 0 1 2.256-2.232c.96-.56 2.064-.84 3.312-.84 1.248 0 2.344.28 3.288.84a5.927 5.927 0 0 1 2.256 2.232c.56.944.84 2.032.84 3.264 0 1.232-.28 2.328-.84 3.288a5.927 5.927 0 0 1-2.256 2.232c-.944.544-2.04.816-3.288.816Zm0-1.92c.8 0 1.504-.184 2.112-.552a3.722 3.722 0 0 0 1.416-1.56c.336-.672.504-1.44.504-2.304 0-.864-.168-1.624-.504-2.28a3.722 3.722 0 0 0-1.416-1.56c-.608-.384-1.312-.576-2.112-.576s-1.512.192-2.136.576a3.722 3.722 0 0 0-1.416 1.56c-.336.656-.504 1.416-.504 2.28 0 .864.168 1.632.504 2.304a3.722 3.722 0 0 0 1.416 1.56c.624.368 1.336.552 2.136.552Zm7.889.72v-1.032h.432c.336 0 .592-.072.768-.216.192-.144.344-.384.456-.72.112-.352.2-.84.264-1.464l.864-7.656h8.568v10.8h-2.208v-10.392l1.56 1.464h-7.56l1.776-1.464-.912 7.416c-.096.816-.256 1.464-.48 1.944-.208.464-.52.8-.936 1.008-.416.208-.984.312-1.704.312h-.888Zm-.528 3.96v-4.992h13.656v4.992h-2.112v-4.56l1.392 1.416h-11.664l.84-1.416v4.56h-2.112Zm26.308-3.144h-2.088v-2.352l-.072-.576v-4.44c0-.944-.304-1.688-.912-2.232-.608-.56-1.432-.84-2.472-.84-.752 0-1.44.16-2.064.48a5.015 5.015 0 0 0-1.632 1.272l-1.392-1.44a6.874 6.874 0 0 1 2.256-1.584c.864-.384 1.824-.576 2.88-.576 1.088 0 2.04.2 2.856.6.832.4 1.48.96 1.944 1.68.464.704.696 1.56.696 2.568v7.44Zm-6.48.384c-.896 0-1.688-.16-2.376-.48-.688-.336-1.224-.792-1.608-1.368-.384-.576-.576-1.232-.576-1.968 0-.832.232-1.536.696-2.112.48-.592 1.136-1.04 1.968-1.344.832-.32 1.784-.48 2.856-.48h3.624v1.656h-3.384c-1.008 0-1.84.184-2.496.552-.64.352-.96.904-.96 1.656 0 .64.24 1.152.72 1.536.496.384 1.136.576 1.92.576.768 0 1.464-.152 2.088-.456a3.727 3.727 0 0 0 1.488-1.272c.384-.56.6-1.2.648-1.92l.792.432c0 .96-.232 1.816-.696 2.568a4.9 4.9 0 0 1-1.92 1.776c-.8.432-1.728.648-2.784.648Zm-242.43 29.616v-11.904h10.752v11.904h-2.232v-11.496l1.584 1.464h-9.648l1.776-1.464v11.496h-2.232Zm20.054.384c-1.248 0-2.352-.272-3.312-.816a5.927 5.927 0 0 1-2.256-2.232c-.544-.96-.816-2.056-.816-3.288 0-1.232.272-2.32.816-3.264a5.927 5.927 0 0 1 2.256-2.232c.96-.56 2.064-.84 3.312-.84 1.248 0 2.344.28 3.288.84a5.927 5.927 0 0 1 2.256 2.232c.56.944.84 2.032.84 3.264 0 1.232-.28 2.328-.84 3.288a5.927 5.927 0 0 1-2.256 2.232c-.944.544-2.04.816-3.288.816Zm0-1.92c.8 0 1.504-.184 2.112-.552a3.722 3.722 0 0 0 1.416-1.56c.336-.672.504-1.44.504-2.304 0-.864-.168-1.624-.504-2.28a3.722 3.722 0 0 0-1.416-1.56c-.608-.384-1.312-.576-2.112-.576s-1.512.192-2.136.576a3.722 3.722 0 0 0-1.416 1.56c-.336.656-.504 1.416-.504 2.28 0 .864.168 1.632.504 2.304a3.722 3.722 0 0 0 1.416 1.56c.624.368 1.336.552 2.136.552Zm13.954 1.536v-11.904h6.072c1.248 0 2.232.288 2.952.864.736.576 1.104 1.344 1.104 2.304 0 .608-.184 1.136-.552 1.584-.352.448-.832.792-1.44 1.032l-.024-.216c.752.208 1.368.56 1.848 1.056s.72 1.104.72 1.824c0 .672-.2 1.272-.6 1.8-.4.528-.936.936-1.608 1.224-.672.288-1.424.432-2.256.432h-6.216Zm2.136-.528-1.248-1.224h5.16c.736 0 1.312-.152 1.728-.456.416-.32.624-.768.624-1.344 0-.56-.208-.992-.624-1.296-.416-.32-.992-.48-1.728-.48h-4.896v-1.68h4.776c.704 0 1.2-.144 1.488-.432.288-.288.432-.688.432-1.2 0-.496-.152-.864-.456-1.104-.288-.256-.776-.384-1.464-.384h-5.064l1.272-1.272v10.872Zm20.994-2.976 1.392 1.44a6.528 6.528 0 0 1-2.304 1.8c-.896.432-1.912.648-3.048.648-1.296 0-2.448-.272-3.456-.816a6.141 6.141 0 0 1-2.376-2.232c-.56-.96-.84-2.056-.84-3.288 0-1.232.272-2.32.816-3.264a5.878 5.878 0 0 1 2.256-2.256c.96-.544 2.04-.816 3.24-.816 1.168 0 2.2.272 3.096.816a5.563 5.563 0 0 1 2.136 2.208c.528.928.792 2.008.792 3.24v.144h-2.256v-.216c0-.864-.16-1.616-.48-2.256-.32-.656-.768-1.16-1.344-1.512-.56-.368-1.208-.552-1.944-.552-.784 0-1.48.184-2.088.552a3.722 3.722 0 0 0-1.416 1.56c-.336.656-.504 1.432-.504 2.328 0 .896.184 1.688.552 2.376a4.014 4.014 0 0 0 1.584 1.56c.672.368 1.44.552 2.304.552 1.584 0 2.88-.672 3.888-2.016Zm1.704-1.704h-10.68v-1.656h10.296l.384.84v.816Zm5.124 9.864h-2.232v-16.56h2.208v3.648h-.504a4.61 4.61 0 0 1 .888-2.088 4.947 4.947 0 0 1 1.776-1.416 5.282 5.282 0 0 1 2.352-.528c1.152 0 2.176.28 3.072.84a5.743 5.743 0 0 1 2.112 2.256c.512.944.768 2.024.768 3.24 0 1.232-.264 2.328-.792 3.288a5.68 5.68 0 0 1-2.16 2.232c-.912.544-1.952.816-3.12.816-1.072 0-2-.216-2.784-.648-.784-.448-1.376-1.048-1.776-1.8-.4-.768-.56-1.624-.48-2.568l.456-.456c.064.688.288 1.304.672 1.848.4.544.904.968 1.512 1.272a4.752 4.752 0 0 0 2.016.432c.832 0 1.552-.184 2.16-.552a4.058 4.058 0 0 0 1.44-1.584c.352-.672.528-1.432.528-2.28 0-.848-.168-1.6-.504-2.256-.336-.672-.8-1.2-1.392-1.584-.592-.384-1.288-.576-2.088-.576s-1.512.2-2.136.6c-.608.384-1.096.928-1.464 1.632-.352.704-.528 1.52-.528 2.448v10.344Zm22.426-8.04 1.512 1.44a6.187 6.187 0 0 1-2.136 1.704c-.848.416-1.808.624-2.88.624-1.216 0-2.304-.272-3.264-.816a5.977 5.977 0 0 1-2.232-2.232c-.544-.96-.816-2.056-.816-3.288 0-1.216.272-2.296.816-3.24a5.878 5.878 0 0 1 2.256-2.256c.976-.56 2.072-.84 3.288-.84 1.056 0 2 .208 2.832.624.848.416 1.56.984 2.136 1.704l-1.512 1.44a4.293 4.293 0 0 0-1.392-1.344c-.56-.336-1.232-.504-2.016-.504-.8 0-1.512.192-2.136.576a3.883 3.883 0 0 0-1.44 1.56c-.336.656-.504 1.416-.504 2.28 0 .864.168 1.632.504 2.304a4.102 4.102 0 0 0 1.44 1.56c.624.368 1.336.552 2.136.552s1.472-.168 2.016-.504a4.293 4.293 0 0 0 1.392-1.344Zm4.17 3.384v-11.904h2.184v8.976l-.168-.048 7.128-8.928h1.944v11.904h-2.184v-8.976l.192.072-7.152 8.904h-1.944Zm14.766 0v-11.904h2.184v8.976l-.168-.048 7.128-8.928h1.944v11.904h-2.184v-8.976l.192.072-7.152 8.904h-1.944Zm21.997-.816-3.456-5.136 3.456-5.136h2.496l-3.504 5.136 3.504 5.136h-2.496Zm4.752 0-3.456-5.136 3.456-5.136h2.496l-3.504 5.136 3.504 5.136h-2.496Zm21.462.816h-2.184v-2.472l.288.096c-.576.864-1.376 1.544-2.4 2.04-1.008.48-2.136.72-3.384.72-1.264 0-2.44-.216-3.528-.648a8.916 8.916 0 0 1-2.832-1.872 8.847 8.847 0 0 1-1.872-2.856c-.432-1.104-.648-2.304-.648-3.6 0-1.28.224-2.464.672-3.552a8.574 8.574 0 0 1 1.872-2.832 8.656 8.656 0 0 1 2.856-1.896c1.088-.448 2.272-.672 3.552-.672 1.488 0 2.832.296 4.032.888 1.2.576 2.192 1.36 2.976 2.352l-1.608 1.56a6.598 6.598 0 0 0-2.256-1.992c-.896-.496-1.944-.744-3.144-.744-1.248 0-2.368.304-3.36.912a6.235 6.235 0 0 0-2.328 2.448c-.56 1.024-.84 2.2-.84 3.528 0 1.328.28 2.52.84 3.576a6.408 6.408 0 0 0 2.328 2.472c1.008.592 2.16.888 3.456.888 1.28 0 2.408-.28 3.384-.84.992-.56 1.704-1.32 2.136-2.28l-.216.912v-3.264h-5.52v-1.944h7.728v9.072Zm13.099-3.504 1.392 1.44a6.528 6.528 0 0 1-2.304 1.8c-.896.432-1.912.648-3.048.648-1.296 0-2.448-.272-3.456-.816a6.141 6.141 0 0 1-2.376-2.232c-.56-.96-.84-2.056-.84-3.288 0-1.232.272-2.32.816-3.264a5.878 5.878 0 0 1 2.256-2.256c.96-.544 2.04-.816 3.24-.816 1.168 0 2.2.272 3.096.816a5.563 5.563 0 0 1 2.136 2.208c.528.928.792 2.008.792 3.24v.144h-2.256v-.216c0-.864-.16-1.616-.48-2.256-.32-.656-.768-1.16-1.344-1.512-.56-.368-1.208-.552-1.944-.552-.784 0-1.48.184-2.088.552a3.722 3.722 0 0 0-1.416 1.56c-.336.656-.504 1.432-.504 2.328 0 .896.184 1.688.552 2.376a4.014 4.014 0 0 0 1.584 1.56c.672.368 1.44.552 2.304.552 1.584 0 2.88-.672 3.888-2.016Zm1.704-1.704h-10.68v-1.656h10.296l.384.84v.816Zm9.384 5.208h-2.856c-.928 0-1.64-.24-2.136-.72-.48-.496-.72-1.2-.72-2.112v-12.432h2.232v12.144c0 .4.104.712.312.936.208.208.512.312.912.312h2.256v1.872Zm-.168-10.032h-7.872v-1.872h7.872v1.872Zm16.328 5.616 1.608 1.56c-.752.992-1.728 1.784-2.928 2.376-1.2.576-2.52.864-3.96.864-1.264 0-2.432-.224-3.504-.672a8.433 8.433 0 0 1-2.76-1.872 9.053 9.053 0 0 1-1.848-2.856c-.432-1.088-.648-2.272-.648-3.552 0-1.28.224-2.464.672-3.552a8.706 8.706 0 0 1 1.848-2.856 8.455 8.455 0 0 1 2.808-1.896c1.072-.448 2.24-.672 3.504-.672 1.424 0 2.728.296 3.912.888 1.184.576 2.152 1.36 2.904 2.352l-1.608 1.56a6.513 6.513 0 0 0-2.184-1.992c-.88-.496-1.888-.744-3.024-.744-1.216 0-2.312.304-3.288.912-.96.592-1.72 1.408-2.28 2.448-.56 1.024-.84 2.208-.84 3.552 0 1.312.28 2.488.84 3.528a6.532 6.532 0 0 0 2.28 2.472c.976.592 2.072.888 3.288.888 1.136 0 2.144-.248 3.024-.744a6.513 6.513 0 0 0 2.184-1.992Zm9.895 4.8c-1.248 0-2.352-.272-3.312-.816a5.927 5.927 0 0 1-2.256-2.232c-.544-.96-.816-2.056-.816-3.288 0-1.232.272-2.32.816-3.264a5.927 5.927 0 0 1 2.256-2.232c.96-.56 2.064-.84 3.312-.84 1.248 0 2.344.28 3.288.84a5.927 5.927 0 0 1 2.256 2.232c.56.944.84 2.032.84 3.264 0 1.232-.28 2.328-.84 3.288a5.927 5.927 0 0 1-2.256 2.232c-.944.544-2.04.816-3.288.816Zm0-1.92c.8 0 1.504-.184 2.112-.552a3.722 3.722 0 0 0 1.416-1.56c.336-.672.504-1.44.504-2.304 0-.864-.168-1.624-.504-2.28a3.722 3.722 0 0 0-1.416-1.56c-.608-.384-1.312-.576-2.112-.576s-1.512.192-2.136.576a3.722 3.722 0 0 0-1.416 1.56c-.336.656-.504 1.416-.504 2.28 0 .864.168 1.632.504 2.304a3.722 3.722 0 0 0 1.416 1.56c.624.368 1.336.552 2.136.552Zm19.946 1.536h-2.208v-2.304l-.024-.672v-8.928h2.232v11.904Zm-2.016-5.088.456.48c.064.976-.112 1.84-.528 2.592-.4.736-.976 1.32-1.728 1.752-.736.432-1.592.648-2.568.648-1.424 0-2.56-.424-3.408-1.272-.848-.848-1.272-2.072-1.272-3.672v-7.344h2.232v7.104c0 1.072.256 1.888.768 2.448.528.544 1.256.816 2.184.816a3.93 3.93 0 0 0 1.824-.432 4.005 4.005 0 0 0 1.392-1.248 3.914 3.914 0 0 0 .648-1.872Zm11.902-7.008v2.112h-.528c-.72 0-1.384.176-1.992.528-.592.336-1.072.872-1.44 1.608-.352.72-.528 1.664-.528 2.832v5.016h-2.232v-11.904h2.208v3.816h-.336c.176-1.008.496-1.8.96-2.376.48-.576 1.032-.992 1.656-1.248a5.015 5.015 0 0 1 1.92-.384h.312Zm1.226 10.272 1.416-1.44a6.48 6.48 0 0 0 1.92 1.368c.72.32 1.504.48 2.352.48.896 0 1.624-.176 2.184-.528.56-.368.84-.832.84-1.392 0-.512-.24-.904-.72-1.176-.48-.288-1.312-.512-2.496-.672-1.776-.256-3.048-.648-3.816-1.176-.752-.544-1.128-1.28-1.128-2.208 0-.736.216-1.384.648-1.944.432-.56 1.024-.992 1.776-1.296.752-.32 1.616-.48 2.592-.48 1.088 0 2.064.192 2.928.576.864.384 1.616.92 2.256 1.608l-1.392 1.44c-.48-.56-1.04-1-1.68-1.32-.624-.336-1.328-.504-2.112-.504-.816 0-1.488.168-2.016.504-.512.336-.768.768-.768 1.296 0 .416.224.744.672.984.464.224 1.256.416 2.376.576 1.808.256 3.104.672 3.888 1.248.8.576 1.2 1.384 1.2 2.424 0 .752-.224 1.424-.672 2.016-.448.576-1.072 1.024-1.872 1.344-.784.32-1.696.48-2.736.48-1.168 0-2.224-.192-3.168-.576a8.306 8.306 0 0 1-2.472-1.632Zm23.557-1.68 1.392 1.44a6.528 6.528 0 0 1-2.304 1.8c-.896.432-1.912.648-3.048.648-1.296 0-2.448-.272-3.456-.816a6.141 6.141 0 0 1-2.376-2.232c-.56-.96-.84-2.056-.84-3.288 0-1.232.272-2.32.816-3.264a5.878 5.878 0 0 1 2.256-2.256c.96-.544 2.04-.816 3.24-.816 1.168 0 2.2.272 3.096.816a5.563 5.563 0 0 1 2.136 2.208c.528.928.792 2.008.792 3.24v.144h-2.256v-.216c0-.864-.16-1.616-.48-2.256-.32-.656-.768-1.16-1.344-1.512-.56-.368-1.208-.552-1.944-.552-.784 0-1.48.184-2.088.552a3.722 3.722 0 0 0-1.416 1.56c-.336.656-.504 1.432-.504 2.328 0 .896.184 1.688.552 2.376a4.014 4.014 0 0 0 1.584 1.56c.672.368 1.44.552 2.304.552 1.584 0 2.88-.672 3.888-2.016Zm1.704-1.704h-10.68v-1.656h10.296l.384.84v.816Zm4.692-5.88 3.48 5.136-3.48 5.136h-2.472l3.504-5.136-3.504-5.136h2.472Zm4.752 0 3.48 5.136-3.48 5.136h-2.472l3.504-5.136-3.504-5.136h2.472Z" fill="#000"/><path d="M282 573c70.692 0 128-57.308 128-128 0-70.692-57.308-128-128-128-70.692 0-128 57.308-128 128 0 70.692 57.308 128 128 128Z" fill="#fff"/><path d="M228.528 439h-2.304v-17.16h6.768c1.168 0 2.184.208 3.048.624.864.416 1.536.992 2.016 1.728.496.736.744 1.6.744 2.592s-.248 1.856-.744 2.592c-.48.736-1.152 1.312-2.016 1.728-.864.416-1.88.624-3.048.624h-4.704v-1.992h4.704c1.072 0 1.912-.256 2.52-.768.624-.528.936-1.256.936-2.184 0-.928-.312-1.648-.936-2.16-.608-.528-1.448-.792-2.52-.792h-4.464V439Zm21.707-3.504 1.392 1.44a6.528 6.528 0 0 1-2.304 1.8c-.896.432-1.912.648-3.048.648-1.296 0-2.448-.272-3.456-.816a6.141 6.141 0 0 1-2.376-2.232c-.56-.96-.84-2.056-.84-3.288 0-1.232.272-2.32.816-3.264a5.878 5.878 0 0 1 2.256-2.256c.96-.544 2.04-.816 3.24-.816 1.168 0 2.2.272 3.096.816a5.563 5.563 0 0 1 2.136 2.208c.528.928.792 2.008.792 3.24v.144h-2.256v-.216c0-.864-.16-1.616-.48-2.256-.32-.656-.768-1.16-1.344-1.512-.56-.368-1.208-.552-1.944-.552-.784 0-1.48.184-2.088.552a3.722 3.722 0 0 0-1.416 1.56c-.336.656-.504 1.432-.504 2.328 0 .896.184 1.688.552 2.376a4.014 4.014 0 0 0 1.584 1.56c.672.368 1.44.552 2.304.552 1.584 0 2.88-.672 3.888-2.016Zm1.704-1.704h-10.68v-1.656h10.296l.384.84v.816Zm6.781 5.616a8.446 8.446 0 0 1-2.928-.528c-.96-.368-1.76-.896-2.4-1.584l1.32-1.392c1.056 1.072 2.376 1.608 3.96 1.608.992 0 1.776-.184 2.352-.552.592-.384.888-.888.888-1.512 0-1.152-.976-1.728-2.928-1.728h-2.424v-1.68h2.448c.832 0 1.464-.136 1.896-.408.432-.288.648-.696.648-1.224 0-.56-.264-1-.792-1.32-.512-.336-1.208-.504-2.088-.504-1.44 0-2.664.544-3.672 1.632l-1.32-1.44c1.312-1.376 2.984-2.064 5.016-2.064.992 0 1.864.152 2.616.456.752.288 1.344.688 1.776 1.2.448.512.672 1.104.672 1.776 0 .64-.2 1.2-.6 1.68-.384.464-.936.8-1.656 1.008l-.024-.192c.848.208 1.504.568 1.968 1.08.464.512.696 1.136.696 1.872 0 .72-.24 1.368-.72 1.944-.48.576-1.128 1.032-1.944 1.368-.8.336-1.72.504-2.76.504Zm7.995-.408v-11.904h2.184v8.976l-.168-.048 7.128-8.928h1.944V439h-2.184v-8.976l.192.072-7.152 8.904h-1.944Zm13.973-.816v-1.032h.432c.336 0 .592-.072.768-.216.192-.144.344-.384.456-.72.112-.352.2-.84.264-1.464l.864-7.656h8.568v10.8h-2.208v-10.392l1.56 1.464h-7.56l1.776-1.464-.912 7.416c-.096.816-.256 1.464-.48 1.944-.208.464-.52.8-.936 1.008-.416.208-.984.312-1.704.312h-.888Zm-.528 3.96v-4.992h13.656v4.992h-2.112v-4.56l1.392 1.416h-11.664l.84-1.416v4.56h-2.112Zm25.575-6.648 1.392 1.44a6.528 6.528 0 0 1-2.304 1.8c-.896.432-1.912.648-3.048.648-1.296 0-2.448-.272-3.456-.816a6.141 6.141 0 0 1-2.376-2.232c-.56-.96-.84-2.056-.84-3.288 0-1.232.272-2.32.816-3.264a5.878 5.878 0 0 1 2.256-2.256c.96-.544 2.04-.816 3.24-.816 1.168 0 2.2.272 3.096.816a5.563 5.563 0 0 1 2.136 2.208c.528.928.792 2.008.792 3.24v.144h-2.256v-.216c0-.864-.16-1.616-.48-2.256-.32-.656-.768-1.16-1.344-1.512-.56-.368-1.208-.552-1.944-.552-.784 0-1.48.184-2.088.552a3.722 3.722 0 0 0-1.416 1.56c-.336.656-.504 1.432-.504 2.328 0 .896.184 1.688.552 2.376a4.014 4.014 0 0 0 1.584 1.56c.672.368 1.44.552 2.304.552 1.584 0 2.88-.672 3.888-2.016Zm1.704-1.704h-10.68v-1.656h10.296l.384.84v.816ZM319.284 439v-11.904h2.232V439h-2.232Zm-8.952 0v-11.904h2.232V439h-2.232Zm1.08-5.328v-1.848h9.12v1.848h-9.12ZM328.216 439v-11.208h2.232V439h-2.232Zm-4.296-10.032v-1.872h10.8v1.872h-10.8Zm-107.548 39.216-3.456-5.136 3.456-5.136h2.496l-3.504 5.136 3.504 5.136h-2.496Zm4.752 0-3.456-5.136 3.456-5.136h2.496l-3.504 5.136 3.504 5.136h-2.496Zm18.942-3.6 1.608 1.56c-.752.992-1.728 1.784-2.928 2.376-1.2.576-2.52.864-3.96.864-1.264 0-2.432-.224-3.504-.672a8.433 8.433 0 0 1-2.76-1.872 9.053 9.053 0 0 1-1.848-2.856c-.432-1.088-.648-2.272-.648-3.552 0-1.28.224-2.464.672-3.552a8.706 8.706 0 0 1 1.848-2.856 8.455 8.455 0 0 1 2.808-1.896c1.072-.448 2.24-.672 3.504-.672 1.424 0 2.728.296 3.912.888 1.184.576 2.152 1.36 2.904 2.352l-1.608 1.56a6.513 6.513 0 0 0-2.184-1.992c-.88-.496-1.888-.744-3.024-.744-1.216 0-2.312.304-3.288.912-.96.592-1.72 1.408-2.28 2.448-.56 1.024-.84 2.208-.84 3.552 0 1.312.28 2.488.84 3.528a6.532 6.532 0 0 0 2.28 2.472c.976.592 2.072.888 3.288.888 1.136 0 2.144-.248 3.024-.744a6.513 6.513 0 0 0 2.184-1.992ZM252.502 469l-6.504-6.168h.24l5.88-5.736h2.856l-6.384 6.216-.456-1.248L255.55 469h-3.048Zm-8.088 0v-11.904h2.232V469h-2.232Zm17.945.384c-1.248 0-2.352-.272-3.312-.816a5.927 5.927 0 0 1-2.256-2.232c-.544-.96-.816-2.056-.816-3.288 0-1.232.272-2.32.816-3.264a5.927 5.927 0 0 1 2.256-2.232c.96-.56 2.064-.84 3.312-.84 1.248 0 2.344.28 3.288.84a5.927 5.927 0 0 1 2.256 2.232c.56.944.84 2.032.84 3.264 0 1.232-.28 2.328-.84 3.288a5.927 5.927 0 0 1-2.256 2.232c-.944.544-2.04.816-3.288.816Zm0-1.92c.8 0 1.504-.184 2.112-.552a3.722 3.722 0 0 0 1.416-1.56c.336-.672.504-1.44.504-2.304 0-.864-.168-1.624-.504-2.28a3.722 3.722 0 0 0-1.416-1.56c-.608-.384-1.312-.576-2.112-.576s-1.512.192-2.136.576a3.722 3.722 0 0 0-1.416 1.56c-.336.656-.504 1.416-.504 2.28 0 .864.168 1.632.504 2.304a3.722 3.722 0 0 0 1.416 1.56c.624.368 1.336.552 2.136.552Zm7.898 1.536v-1.872h.912c.448 0 .776-.112.984-.336.224-.224.36-.616.408-1.176l.744-8.52h8.76V469h-2.232v-11.496l1.584 1.464h-7.68l1.728-1.464-.816 8.496c-.096 1.12-.392 1.904-.888 2.352-.496.432-1.24.648-2.232.648h-1.272Zm23.542 0-6.504-6.168h.24l5.88-5.736h2.856l-6.384 6.216-.456-1.248 7.416 6.936h-3.048Zm-8.088 0v-11.904h2.232V469h-2.232Zm17.944.384c-1.248 0-2.352-.272-3.312-.816a5.927 5.927 0 0 1-2.256-2.232c-.544-.96-.816-2.056-.816-3.288 0-1.232.272-2.32.816-3.264a5.927 5.927 0 0 1 2.256-2.232c.96-.56 2.064-.84 3.312-.84 1.248 0 2.344.28 3.288.84a5.927 5.927 0 0 1 2.256 2.232c.56.944.84 2.032.84 3.264 0 1.232-.28 2.328-.84 3.288a5.927 5.927 0 0 1-2.256 2.232c-.944.544-2.04.816-3.288.816Zm0-1.92c.8 0 1.504-.184 2.112-.552a3.722 3.722 0 0 0 1.416-1.56c.336-.672.504-1.44.504-2.304 0-.864-.168-1.624-.504-2.28a3.722 3.722 0 0 0-1.416-1.56c-.608-.384-1.312-.576-2.112-.576s-1.512.192-2.136.576a3.722 3.722 0 0 0-1.416 1.56c-.336.656-.504 1.416-.504 2.28 0 .864.168 1.632.504 2.304a3.722 3.722 0 0 0 1.416 1.56c.624.368 1.336.552 2.136.552Zm9.267 1.536v-11.904h6.072c1.248 0 2.232.288 2.952.864.736.576 1.104 1.344 1.104 2.304 0 .608-.184 1.136-.552 1.584-.352.448-.832.792-1.44 1.032l-.024-.216c.752.208 1.368.56 1.848 1.056s.72 1.104.72 1.824c0 .672-.2 1.272-.6 1.8-.4.528-.936.936-1.608 1.224-.672.288-1.424.432-2.256.432h-6.216Zm2.136-.528-1.248-1.224h5.16c.736 0 1.312-.152 1.728-.456.416-.32.624-.768.624-1.344 0-.56-.208-.992-.624-1.296-.416-.32-.992-.48-1.728-.48h-4.896v-1.68h4.776c.704 0 1.2-.144 1.488-.432.288-.288.432-.688.432-1.2 0-.496-.152-.864-.456-1.104-.288-.256-.776-.384-1.464-.384h-5.064l1.272-1.272v10.872Zm16.746.912c-1.248 0-2.352-.272-3.312-.816a5.927 5.927 0 0 1-2.256-2.232c-.544-.96-.816-2.056-.816-3.288 0-1.232.272-2.32.816-3.264a5.927 5.927 0 0 1 2.256-2.232c.96-.56 2.064-.84 3.312-.84 1.248 0 2.344.28 3.288.84a5.927 5.927 0 0 1 2.256 2.232c.56.944.84 2.032.84 3.264 0 1.232-.28 2.328-.84 3.288a5.927 5.927 0 0 1-2.256 2.232c-.944.544-2.04.816-3.288.816Zm0-1.92c.8 0 1.504-.184 2.112-.552a3.722 3.722 0 0 0 1.416-1.56c.336-.672.504-1.44.504-2.304 0-.864-.168-1.624-.504-2.28a3.722 3.722 0 0 0-1.416-1.56c-.608-.384-1.312-.576-2.112-.576s-1.512.192-2.136.576a3.722 3.722 0 0 0-1.416 1.56c-.336.656-.504 1.416-.504 2.28 0 .864.168 1.632.504 2.304a3.722 3.722 0 0 0 1.416 1.56c.624.368 1.336.552 2.136.552Zm11.066-9.552 3.48 5.136-3.48 5.136h-2.472l3.504-5.136-3.504-5.136h2.472Zm4.752 0 3.48 5.136-3.48 5.136h-2.472l3.504-5.136-3.504-5.136h2.472Z" fill="#000"/><path d="M807 251.851c69.588 0 126-56.379 126-125.926C933 56.379 876.588 0 807 0S681 56.379 681 125.925c0 69.547 56.412 125.926 126 125.926Z" fill="#fff"/><path d="M711.085 115.697h-9.6v-1.992h9.6v1.992Zm3.36 4.464h-2.448l-6.12-15.672h.864l-6.12 15.672h-2.352l6.816-17.16h2.52l6.84 17.16Zm10.709 0-6.504-6.168h.24l5.88-5.736h2.856l-6.384 6.216-.456-1.248 7.416 6.936h-3.048Zm-8.088 0v-11.904h2.232v11.904h-2.232Zm21.354 0-6.504-6.168h.24l5.88-5.736h2.856l-6.384 6.216-.456-1.248 7.416 6.936h-3.048Zm-8.088 0v-11.904h2.232v11.904h-2.232Zm15.497 4.656h-2.232v-16.56h2.208v3.648h-.504a4.61 4.61 0 0 1 .888-2.088 4.947 4.947 0 0 1 1.776-1.416 5.282 5.282 0 0 1 2.352-.528c1.152 0 2.176.28 3.072.84a5.743 5.743 0 0 1 2.112 2.256c.512.944.768 2.024.768 3.24 0 1.232-.264 2.328-.792 3.288a5.68 5.68 0 0 1-2.16 2.232c-.912.544-1.952.816-3.12.816-1.072 0-2-.216-2.784-.648-.784-.448-1.376-1.048-1.776-1.8-.4-.768-.56-1.624-.48-2.568l.456-.456c.064.688.288 1.304.672 1.848.4.544.904.968 1.512 1.272a4.752 4.752 0 0 0 2.016.432c.832 0 1.552-.184 2.16-.552a4.058 4.058 0 0 0 1.44-1.584c.352-.672.528-1.432.528-2.28 0-.848-.168-1.6-.504-2.256-.336-.672-.8-1.2-1.392-1.584-.592-.384-1.288-.576-2.088-.576s-1.512.2-2.136.6c-.608.384-1.096.928-1.464 1.632-.352.704-.528 1.52-.528 2.448v10.344Zm23.242-8.16 1.392 1.44a6.528 6.528 0 0 1-2.304 1.8c-.896.432-1.912.648-3.048.648-1.296 0-2.448-.272-3.456-.816a6.141 6.141 0 0 1-2.376-2.232c-.56-.96-.84-2.056-.84-3.288 0-1.232.272-2.32.816-3.264a5.878 5.878 0 0 1 2.256-2.256c.96-.544 2.04-.816 3.24-.816 1.168 0 2.2.272 3.096.816a5.563 5.563 0 0 1 2.136 2.208c.528.928.792 2.008.792 3.24v.144h-2.256v-.216c0-.864-.16-1.616-.48-2.256-.32-.656-.768-1.16-1.344-1.512-.56-.368-1.208-.552-1.944-.552-.784 0-1.48.184-2.088.552a3.722 3.722 0 0 0-1.416 1.56c-.336.656-.504 1.432-.504 2.328 0 .896.184 1.688.552 2.376a4.014 4.014 0 0 0 1.584 1.56c.672.368 1.44.552 2.304.552 1.584 0 2.88-.672 3.888-2.016Zm1.704-1.704h-10.68v-1.656h10.296l.384.84v.816Zm2.101 4.392v-1.032h.432c.336 0 .592-.072.768-.216.192-.144.344-.384.456-.72.112-.352.2-.84.264-1.464l.864-7.656h8.568v10.8h-2.208v-10.392l1.56 1.464h-7.56l1.776-1.464-.912 7.416c-.096.816-.256 1.464-.48 1.944-.208.464-.52.8-.936 1.008-.416.208-.984.312-1.704.312h-.888Zm-.528 3.96v-4.992h13.656v4.992h-2.112v-4.56l1.392 1.416H773.62l.84-1.416v4.56h-2.112Zm16.624-3.144v-11.904h2.184v8.976l-.168-.048 7.128-8.928h1.944v11.904h-2.184v-8.976l.192.072-7.152 8.904h-1.944Zm17.814 0v-11.208h2.232v11.208h-2.232Zm-4.296-10.032v-1.872h10.8v1.872h-10.8Zm18.372 10.416c-1.248 0-2.352-.272-3.312-.816a5.927 5.927 0 0 1-2.256-2.232c-.544-.96-.816-2.056-.816-3.288 0-1.232.272-2.32.816-3.264a5.927 5.927 0 0 1 2.256-2.232c.96-.56 2.064-.84 3.312-.84 1.248 0 2.344.28 3.288.84a5.927 5.927 0 0 1 2.256 2.232c.56.944.84 2.032.84 3.264 0 1.232-.28 2.328-.84 3.288a5.927 5.927 0 0 1-2.256 2.232c-.944.544-2.04.816-3.288.816Zm0-1.92c.8 0 1.504-.184 2.112-.552a3.722 3.722 0 0 0 1.416-1.56c.336-.672.504-1.44.504-2.304 0-.864-.168-1.624-.504-2.28a3.722 3.722 0 0 0-1.416-1.56c-.608-.384-1.312-.576-2.112-.576s-1.512.192-2.136.576a3.722 3.722 0 0 0-1.416 1.56c-.336.656-.504 1.416-.504 2.28 0 .864.168 1.632.504 2.304a3.722 3.722 0 0 0 1.416 1.56c.624.368 1.336.552 2.136.552Zm9.267 1.536v-11.904h6.072c1.248 0 2.232.288 2.952.864.736.576 1.104 1.344 1.104 2.304 0 .608-.184 1.136-.552 1.584-.352.448-.832.792-1.44 1.032l-.024-.216c.752.208 1.368.56 1.848 1.056s.72 1.104.72 1.824c0 .672-.2 1.272-.6 1.8-.4.528-.936.936-1.608 1.224-.672.288-1.424.432-2.256.432h-6.216Zm2.136-.528-1.248-1.224h5.16c.736 0 1.312-.152 1.728-.456.416-.32.624-.768.624-1.344 0-.56-.208-.992-.624-1.296-.416-.32-.992-.48-1.728-.48h-4.896v-1.68h4.776c.704 0 1.2-.144 1.488-.432.288-.288.432-.688.432-1.2 0-.496-.152-.864-.456-1.104-.288-.256-.776-.384-1.464-.384h-5.064l1.272-1.272v10.872Zm21.68.528h-2.088v-2.352l-.072-.576v-4.44c0-.944-.304-1.688-.912-2.232-.608-.56-1.432-.84-2.472-.84-.752 0-1.44.16-2.064.48a5.015 5.015 0 0 0-1.632 1.272l-1.392-1.44a6.874 6.874 0 0 1 2.256-1.584c.864-.384 1.824-.576 2.88-.576 1.088 0 2.04.2 2.856.6.832.4 1.48.96 1.944 1.68.464.704.696 1.56.696 2.568v7.44Zm-6.48.384c-.896 0-1.688-.16-2.376-.48-.688-.336-1.224-.792-1.608-1.368-.384-.576-.576-1.232-.576-1.968 0-.832.232-1.536.696-2.112.48-.592 1.136-1.04 1.968-1.344.832-.32 1.784-.48 2.856-.48h3.624v1.656h-3.384c-1.008 0-1.84.184-2.496.552-.64.352-.96.904-.96 1.656 0 .64.24 1.152.72 1.536.496.384 1.136.576 1.92.576.768 0 1.464-.152 2.088-.456a3.727 3.727 0 0 0 1.488-1.272c.384-.56.6-1.2.648-1.92l.792.432c0 .96-.232 1.816-.696 2.568a4.9 4.9 0 0 1-1.92 1.776c-.8.432-1.728.648-2.784.648Zm18.663-.384v-11.904h2.232v11.904h-2.232Zm-8.952 0v-11.904h2.232v11.904h-2.232Zm1.08-5.328v-1.848h9.12v1.848h-9.12Zm22.708 5.328v-11.904h2.232v11.904h-2.232Zm-8.952 0v-11.904h2.232v11.904h-2.232Zm1.08-5.328v-1.848h9.12v1.848h-9.12Zm23.907 5.328h-2.088v-2.352l-.072-.576v-4.44c0-.944-.304-1.688-.912-2.232-.608-.56-1.432-.84-2.472-.84-.752 0-1.44.16-2.064.48a5.015 5.015 0 0 0-1.632 1.272l-1.392-1.44a6.874 6.874 0 0 1 2.256-1.584c.864-.384 1.824-.576 2.88-.576 1.088 0 2.04.2 2.856.6.832.4 1.48.96 1.944 1.68.464.704.696 1.56.696 2.568v7.44Zm-6.48.384c-.896 0-1.688-.16-2.376-.48-.688-.336-1.224-.792-1.608-1.368-.384-.576-.576-1.232-.576-1.968 0-.832.232-1.536.696-2.112.48-.592 1.136-1.04 1.968-1.344.832-.32 1.784-.48 2.856-.48h3.624v1.656h-3.384c-1.008 0-1.84.184-2.496.552-.64.352-.96.904-.96 1.656 0 .64.24 1.152.72 1.536.496.384 1.136.576 1.92.576.768 0 1.464-.152 2.088-.456a3.727 3.727 0 0 0 1.488-1.272c.384-.56.6-1.2.648-1.92l.792.432c0 .96-.232 1.816-.696 2.568a4.9 4.9 0 0 1-1.92 1.776c-.8.432-1.728.648-2.784.648Zm17.367-.384v-11.568l1.416 1.464h-4.728c-.624 0-1.168.152-1.632.456-.464.288-.696.768-.696 1.44 0 .608.208 1.08.624 1.416.416.336.992.504 1.728.504h4.344v1.728h-4.488c-1.344 0-2.424-.328-3.24-.984-.816-.672-1.224-1.56-1.224-2.664 0-.704.192-1.328.576-1.872.4-.56.936-1 1.608-1.32.688-.336 1.456-.504 2.304-.504h5.544v11.904h-2.136Zm-8.448 0 4.248-5.424h2.376l-4.032 5.424h-2.592Zm-159.687 30h-2.304v-17.16h2.304v17.16Zm10.676 0h-2.304v-15.384h2.304v15.384Zm5.616-15.144h-13.512v-2.016h13.512v2.016Zm5.975 9.288h-6.528v-1.944h6.528v1.944Zm10.679 5.856-6.504-6.168h.24l5.88-5.736h2.856l-6.384 6.216-.456-1.248 7.416 6.936h-3.048Zm-8.088 0v-11.904h2.232v11.904h-2.232Zm17.945.384c-1.248 0-2.352-.272-3.312-.816a5.927 5.927 0 0 1-2.256-2.232c-.544-.96-.816-2.056-.816-3.288 0-1.232.272-2.32.816-3.264a5.927 5.927 0 0 1 2.256-2.232c.96-.56 2.064-.84 3.312-.84 1.248 0 2.344.28 3.288.84a5.927 5.927 0 0 1 2.256 2.232c.56.944.84 2.032.84 3.264 0 1.232-.28 2.328-.84 3.288a5.927 5.927 0 0 1-2.256 2.232c-.944.544-2.04.816-3.288.816Zm0-1.92c.8 0 1.504-.184 2.112-.552a3.722 3.722 0 0 0 1.416-1.56c.336-.672.504-1.44.504-2.304 0-.864-.168-1.624-.504-2.28a3.722 3.722 0 0 0-1.416-1.56c-.608-.384-1.312-.576-2.112-.576s-1.512.192-2.136.576a3.722 3.722 0 0 0-1.416 1.56c-.336.656-.504 1.416-.504 2.28 0 .864.168 1.632.504 2.304a3.722 3.722 0 0 0 1.416 1.56c.624.368 1.336.552 2.136.552Zm9.266 1.536v-11.904h2.472l4.68 8.784h-.408l4.656-8.784h2.544v11.904h-2.088v-11.136l1.032.288-5.16 9.72h-1.68l-5.136-9.72 1.128-.264v11.112h-2.04Zm17.625 0v-11.904h10.752v11.904h-2.232v-11.496l1.584 1.464h-9.648l1.776-1.464v11.496h-2.232Zm24.566 0h-2.088v-2.352l-.072-.576v-4.44c0-.944-.304-1.688-.912-2.232-.608-.56-1.432-.84-2.472-.84-.752 0-1.44.16-2.064.48a5.015 5.015 0 0 0-1.632 1.272l-1.392-1.44a6.874 6.874 0 0 1 2.256-1.584c.864-.384 1.824-.576 2.88-.576 1.088 0 2.04.2 2.856.6.832.4 1.48.96 1.944 1.68.464.704.696 1.56.696 2.568v7.44Zm-6.48.384c-.896 0-1.688-.16-2.376-.48-.688-.336-1.224-.792-1.608-1.368-.384-.576-.576-1.232-.576-1.968 0-.832.232-1.536.696-2.112.48-.592 1.136-1.04 1.968-1.344.832-.32 1.784-.48 2.856-.48h3.624v1.656h-3.384c-1.008 0-1.84.184-2.496.552-.64.352-.96.904-.96 1.656 0 .64.24 1.152.72 1.536.496.384 1.136.576 1.92.576.768 0 1.464-.152 2.088-.456a3.727 3.727 0 0 0 1.488-1.272c.384-.56.6-1.2.648-1.92l.792.432c0 .96-.232 1.816-.696 2.568a4.9 4.9 0 0 1-1.92 1.776c-.8.432-1.728.648-2.784.648Zm18.663-.384v-11.904h2.232v11.904h-2.232Zm-8.952 0v-11.904h2.232v11.904h-2.232Zm1.08-5.328v-1.848h9.12v1.848h-9.12Zm13.756 5.328v-11.904h2.184v8.976l-.168-.048 7.128-8.928h1.944v11.904h-2.184v-8.976l.192.072-7.152 8.904h-1.944Zm22.422 0v-11.568l1.416 1.464h-4.728c-.624 0-1.168.152-1.632.456-.464.288-.696.768-.696 1.44 0 .608.208 1.08.624 1.416.416.336.992.504 1.728.504h4.344v1.728h-4.488c-1.344 0-2.424-.328-3.24-.984-.816-.672-1.224-1.56-1.224-2.664 0-.704.192-1.328.576-1.872.4-.56.936-1 1.608-1.32.688-.336 1.456-.504 2.304-.504h5.544v11.904H874.5Zm-8.448 0 4.248-5.424h2.376l-4.032 5.424h-2.592Z" fill="#000"/><path d="M82.5 410c45.563 0 82.5-36.936 82.5-82.5 0-45.563-36.937-82.5-82.5-82.5S0 281.937 0 327.5C0 373.064 36.937 410 82.5 410ZM1119 306c44.74 0 81-36.265 81-81s-36.26-81-81-81-81 36.265-81 81 36.26 81 81 81ZM744 578.657c87.261 0 158-70.921 158-158.406s-70.739-158.406-158-158.406-158 70.921-158 158.406 70.739 158.406 158 158.406Z" fill="#fff"/><path d="M613.528 385.161v-17.16h2.304v16.68l-1.296-1.536h10.008l-.912 1.536v-16.68h2.304v16.68l-.912-1.536h10.008l-1.296 1.536v-16.68h2.304v17.16h-22.512Zm34.634 0-6.504-6.168h.24l5.88-5.736h2.856l-6.384 6.216-.456-1.248 7.416 6.936h-3.048Zm-8.088 0v-11.904h2.232v11.904h-2.232Zm17.945.384c-1.248 0-2.352-.272-3.312-.816a5.927 5.927 0 0 1-2.256-2.232c-.544-.96-.816-2.056-.816-3.288 0-1.232.272-2.32.816-3.264a5.927 5.927 0 0 1 2.256-2.232c.96-.56 2.064-.84 3.312-.84 1.248 0 2.344.28 3.288.84a5.927 5.927 0 0 1 2.256 2.232c.56.944.84 2.032.84 3.264 0 1.232-.28 2.328-.84 3.288a5.927 5.927 0 0 1-2.256 2.232c-.944.544-2.04.816-3.288.816Zm0-1.92c.8 0 1.504-.184 2.112-.552a3.722 3.722 0 0 0 1.416-1.56c.336-.672.504-1.44.504-2.304 0-.864-.168-1.624-.504-2.28a3.722 3.722 0 0 0-1.416-1.56c-.608-.384-1.312-.576-2.112-.576s-1.512.192-2.136.576a3.722 3.722 0 0 0-1.416 1.56c-.336.656-.504 1.416-.504 2.28 0 .864.168 1.632.504 2.304a3.722 3.722 0 0 0 1.416 1.56c.624.368 1.336.552 2.136.552Zm7.898 1.536v-1.872h.912c.448 0 .776-.112.984-.336.224-.224.36-.616.408-1.176l.744-8.52h8.76v11.904h-2.232v-11.496l1.584 1.464h-7.68l1.728-1.464-.816 8.496c-.096 1.12-.392 1.904-.888 2.352-.496.432-1.24.648-2.232.648h-1.272Zm25.606 0h-2.088v-2.352l-.072-.576v-4.44c0-.944-.304-1.688-.912-2.232-.608-.56-1.432-.84-2.472-.84-.752 0-1.44.16-2.064.48a5.015 5.015 0 0 0-1.632 1.272l-1.392-1.44a6.874 6.874 0 0 1 2.256-1.584c.864-.384 1.824-.576 2.88-.576 1.088 0 2.04.2 2.856.6.832.4 1.48.96 1.944 1.68.464.704.696 1.56.696 2.568v7.44Zm-6.48.384c-.896 0-1.688-.16-2.376-.48-.688-.336-1.224-.792-1.608-1.368-.384-.576-.576-1.232-.576-1.968 0-.832.232-1.536.696-2.112.48-.592 1.136-1.04 1.968-1.344.832-.32 1.784-.48 2.856-.48h3.624v1.656h-3.384c-1.008 0-1.84.184-2.496.552-.64.352-.96.904-.96 1.656 0 .64.24 1.152.72 1.536.496.384 1.136.576 1.92.576.768 0 1.464-.152 2.088-.456a3.727 3.727 0 0 0 1.488-1.272c.384-.56.6-1.2.648-1.92l.792.432c0 .96-.232 1.816-.696 2.568a4.9 4.9 0 0 1-1.92 1.776c-.8.432-1.728.648-2.784.648Zm14.47-.384v-17.16h2.472l10.032 14.784h-.648v-14.784h2.232v17.16h-2.472l-10.056-14.784h.672v14.784h-2.232Zm17.544-5.328v-1.632h8.16v1.632h-8.16Zm4.08-2.88c-.896 0-1.688-.192-2.376-.576a4.136 4.136 0 0 1-1.608-1.584c-.384-.672-.576-1.448-.576-2.328 0-.864.192-1.632.576-2.304a3.93 3.93 0 0 1 1.608-1.584c.688-.384 1.48-.576 2.376-.576.88 0 1.664.192 2.352.576a3.93 3.93 0 0 1 1.608 1.584c.4.672.6 1.44.6 2.304 0 .88-.2 1.656-.6 2.328-.384.672-.92 1.2-1.608 1.584-.688.384-1.472.576-2.352.576Zm0-1.656c.752 0 1.36-.264 1.824-.792.48-.544.72-1.224.72-2.04 0-.816-.24-1.488-.72-2.016-.464-.528-1.072-.792-1.824-.792s-1.368.264-1.848.792c-.464.528-.696 1.2-.696 2.016 0 .816.232 1.496.696 2.04.48.528 1.096.792 1.848.792Zm12.091-7.296h2.088v17.16h-2.256v-14.736l-4.368 3.312v-2.376l4.536-3.36Zm11.284 17.16v-11.904h6.072c1.248 0 2.232.288 2.952.864.736.576 1.104 1.344 1.104 2.304 0 .608-.184 1.136-.552 1.584-.352.448-.832.792-1.44 1.032l-.024-.216c.752.208 1.368.56 1.848 1.056s.72 1.104.72 1.824c0 .672-.2 1.272-.6 1.8-.4.528-.936.936-1.608 1.224-.672.288-1.424.432-2.256.432h-6.216Zm2.136-.528-1.248-1.224h5.16c.736 0 1.312-.152 1.728-.456.416-.32.624-.768.624-1.344 0-.56-.208-.992-.624-1.296-.416-.32-.992-.48-1.728-.48h-4.896v-1.68h4.776c.704 0 1.2-.144 1.488-.432.288-.288.432-.688.432-1.2 0-.496-.152-.864-.456-1.104-.288-.256-.776-.384-1.464-.384h-5.064l1.272-1.272v10.872Zm18.025 5.184h-2.232v-16.56h2.208v3.648h-.504a4.61 4.61 0 0 1 .888-2.088 4.947 4.947 0 0 1 1.776-1.416 5.282 5.282 0 0 1 2.352-.528c1.152 0 2.176.28 3.072.84a5.743 5.743 0 0 1 2.112 2.256c.512.944.768 2.024.768 3.24 0 1.232-.264 2.328-.792 3.288a5.68 5.68 0 0 1-2.16 2.232c-.912.544-1.952.816-3.12.816-1.072 0-2-.216-2.784-.648-.784-.448-1.376-1.048-1.776-1.8-.4-.768-.56-1.624-.48-2.568l.456-.456c.064.688.288 1.304.672 1.848.4.544.904.968 1.512 1.272a4.752 4.752 0 0 0 2.016.432c.832 0 1.552-.184 2.16-.552a4.058 4.058 0 0 0 1.44-1.584c.352-.672.528-1.432.528-2.28 0-.848-.168-1.6-.504-2.256-.336-.672-.8-1.2-1.392-1.584-.592-.384-1.288-.576-2.088-.576s-1.512.2-2.136.6c-.608.384-1.096.928-1.464 1.632-.352.704-.528 1.52-.528 2.448v10.344Zm23.242-8.16 1.392 1.44a6.528 6.528 0 0 1-2.304 1.8c-.896.432-1.912.648-3.048.648-1.296 0-2.448-.272-3.456-.816a6.141 6.141 0 0 1-2.376-2.232c-.56-.96-.84-2.056-.84-3.288 0-1.232.272-2.32.816-3.264a5.878 5.878 0 0 1 2.256-2.256c.96-.544 2.04-.816 3.24-.816 1.168 0 2.2.272 3.096.816a5.563 5.563 0 0 1 2.136 2.208c.528.928.792 2.008.792 3.24v.144h-2.256v-.216c0-.864-.16-1.616-.48-2.256-.32-.656-.768-1.16-1.344-1.512-.56-.368-1.208-.552-1.944-.552-.784 0-1.48.184-2.088.552a3.722 3.722 0 0 0-1.416 1.56c-.336.656-.504 1.432-.504 2.328 0 .896.184 1.688.552 2.376a4.014 4.014 0 0 0 1.584 1.56c.672.368 1.44.552 2.304.552 1.584 0 2.88-.672 3.888-2.016Zm1.704-1.704h-10.68v-1.656h10.296l.384.84v.816Zm2.893 5.208v-11.904h2.184v8.976l-.168-.048 7.128-8.928h1.944v11.904h-2.184v-8.976l.192.072-7.152 8.904h-1.944Zm5.688-14.04c-1.104 0-2.024-.28-2.76-.84-.736-.576-1.168-1.384-1.296-2.424h1.896c.096.672.328 1.16.696 1.464.384.304.872.456 1.464.456s1.072-.152 1.44-.456c.384-.304.624-.792.72-1.464h1.896c-.128 1.04-.56 1.848-1.296 2.424-.736.56-1.656.84-2.76.84Zm12.125 14.04v-11.208h2.232v11.208h-2.232Zm-4.296-10.032v-1.872h10.8v1.872h-10.8Zm13.201 10.032v-11.904h2.184v8.976l-.168-.048 7.128-8.928h1.944v11.904h-2.184v-8.976l.192.072-7.152 8.904h-1.944Zm23.718 0v-11.904h2.232v11.904h-2.232Zm-8.952 0v-11.904h2.232v11.904h-2.232Zm1.08-5.328v-1.848h9.12v1.848h-9.12Zm13.756 5.328v-11.904h8.448v1.872h-8.016l1.8-1.416v11.448h-2.232Zm20.388-3.504 1.392 1.44a6.528 6.528 0 0 1-2.304 1.8c-.896.432-1.912.648-3.048.648-1.296 0-2.448-.272-3.456-.816a6.141 6.141 0 0 1-2.376-2.232c-.56-.96-.84-2.056-.84-3.288 0-1.232.272-2.32.816-3.264a5.878 5.878 0 0 1 2.256-2.256c.96-.544 2.04-.816 3.24-.816 1.168 0 2.2.272 3.096.816a5.563 5.563 0 0 1 2.136 2.208c.528.928.792 2.008.792 3.24v.144h-2.256v-.216c0-.864-.16-1.616-.48-2.256-.32-.656-.768-1.16-1.344-1.512-.56-.368-1.208-.552-1.944-.552-.784 0-1.48.184-2.088.552a3.722 3.722 0 0 0-1.416 1.56c-.336.656-.504 1.432-.504 2.328 0 .896.184 1.688.552 2.376a4.014 4.014 0 0 0 1.584 1.56c.672.368 1.44.552 2.304.552 1.584 0 2.88-.672 3.888-2.016Zm1.704-1.704h-10.68v-1.656h10.296l.384.84v.816Zm-229.643 35.208v-11.904h2.208v11.4l-.576-1.344h6.216l-.624 1.344v-11.4h2.208v11.4l-.456-1.344h6.264l-.792 1.344v-11.4h2.208v11.904h-16.656Zm28.408 0-6.504-6.168h.24l5.88-5.736h2.856l-6.384 6.216-.456-1.248 7.416 6.936h-3.048Zm-8.088 0v-11.904h2.232v11.904h-2.232Zm17.945.384c-1.248 0-2.352-.272-3.312-.816a5.927 5.927 0 0 1-2.256-2.232c-.544-.96-.816-2.056-.816-3.288 0-1.232.272-2.32.816-3.264a5.927 5.927 0 0 1 2.256-2.232c.96-.56 2.064-.84 3.312-.84 1.248 0 2.344.28 3.288.84a5.927 5.927 0 0 1 2.256 2.232c.56.944.84 2.032.84 3.264 0 1.232-.28 2.328-.84 3.288a5.927 5.927 0 0 1-2.256 2.232c-.944.544-2.04.816-3.288.816Zm0-1.92c.8 0 1.504-.184 2.112-.552a3.722 3.722 0 0 0 1.416-1.56c.336-.672.504-1.44.504-2.304 0-.864-.168-1.624-.504-2.28a3.722 3.722 0 0 0-1.416-1.56c-.608-.384-1.312-.576-2.112-.576s-1.512.192-2.136.576a3.722 3.722 0 0 0-1.416 1.56c-.336.656-.504 1.416-.504 2.28 0 .864.168 1.632.504 2.304a3.722 3.722 0 0 0 1.416 1.56c.624.368 1.336.552 2.136.552Zm7.898 1.536v-1.872h.912c.448 0 .776-.112.984-.336.224-.224.36-.616.408-1.176l.744-8.52h8.76v11.904h-2.232v-11.496l1.584 1.464h-7.68l1.728-1.464-.816 8.496c-.096 1.12-.392 1.904-.888 2.352-.496.432-1.24.648-2.232.648h-1.272Zm29.094 0v-11.904h2.232v11.904h-2.232Zm-8.952 0v-11.904h2.232v11.904h-2.232Zm1.08-5.328v-1.848h9.12v1.848h-9.12Zm23.908 5.328h-2.088v-2.352l-.072-.576v-4.44c0-.944-.304-1.688-.912-2.232-.608-.56-1.432-.84-2.472-.84-.752 0-1.44.16-2.064.48a5.015 5.015 0 0 0-1.632 1.272l-1.392-1.44a6.874 6.874 0 0 1 2.256-1.584c.864-.384 1.824-.576 2.88-.576 1.088 0 2.04.2 2.856.6.832.4 1.48.96 1.944 1.68.464.704.696 1.56.696 2.568v7.44Zm-6.48.384c-.896 0-1.688-.16-2.376-.48-.688-.336-1.224-.792-1.608-1.368-.384-.576-.576-1.232-.576-1.968 0-.832.232-1.536.696-2.112.48-.592 1.136-1.04 1.968-1.344.832-.32 1.784-.48 2.856-.48h3.624v1.656h-3.384c-1.008 0-1.84.184-2.496.552-.64.352-.96.904-.96 1.656 0 .64.24 1.152.72 1.536.496.384 1.136.576 1.92.576.768 0 1.464-.152 2.088-.456a3.727 3.727 0 0 0 1.488-1.272c.384-.56.6-1.2.648-1.92l.792.432c0 .96-.232 1.816-.696 2.568a4.9 4.9 0 0 1-1.92 1.776c-.8.432-1.728.648-2.784.648Zm14.398-.384v-11.904h6.072c1.248 0 2.232.288 2.952.864.736.576 1.104 1.344 1.104 2.304 0 .608-.184 1.136-.552 1.584-.352.448-.832.792-1.44 1.032l-.024-.216c.752.208 1.368.56 1.848 1.056s.72 1.104.72 1.824c0 .672-.2 1.272-.6 1.8-.4.528-.936.936-1.608 1.224-.672.288-1.424.432-2.256.432h-6.216Zm2.136-.528-1.248-1.224h5.16c.736 0 1.312-.152 1.728-.456.416-.32.624-.768.624-1.344 0-.56-.208-.992-.624-1.296-.416-.32-.992-.48-1.728-.48h-4.896v-1.68h4.776c.704 0 1.2-.144 1.488-.432.288-.288.432-.688.432-1.2 0-.496-.152-.864-.456-1.104-.288-.256-.776-.384-1.464-.384h-5.064l1.272-1.272v10.872Zm20.058.528v-11.904h2.232v11.904h-2.232Zm-8.952 0v-11.904h2.232v11.904h-2.232Zm1.08-5.328v-1.848h9.12v1.848h-9.12Zm23.644 1.824 1.392 1.44a6.528 6.528 0 0 1-2.304 1.8c-.896.432-1.912.648-3.048.648-1.296 0-2.448-.272-3.456-.816a6.141 6.141 0 0 1-2.376-2.232c-.56-.96-.84-2.056-.84-3.288 0-1.232.272-2.32.816-3.264a5.878 5.878 0 0 1 2.256-2.256c.96-.544 2.04-.816 3.24-.816 1.168 0 2.2.272 3.096.816a5.563 5.563 0 0 1 2.136 2.208c.528.928.792 2.008.792 3.24v.144h-2.256v-.216c0-.864-.16-1.616-.48-2.256-.32-.656-.768-1.16-1.344-1.512-.56-.368-1.208-.552-1.944-.552-.784 0-1.48.184-2.088.552a3.722 3.722 0 0 0-1.416 1.56c-.336.656-.504 1.432-.504 2.328 0 .896.184 1.688.552 2.376a4.014 4.014 0 0 0 1.584 1.56c.672.368 1.44.552 2.304.552 1.584 0 2.88-.672 3.888-2.016Zm1.704-1.704h-10.68v-1.656h10.296l.384.84v.816Zm2.892 5.208v-11.904h2.208v11.4l-.576-1.344h6.216l-.624 1.344v-11.4h2.208v11.4l-.456-1.344h6.264l-.792 1.344v-11.4h2.208v11.904h-16.656Zm29.273 0v-11.904h2.232v11.904h-2.232Zm-8.952 0v-11.904h2.232v11.904h-2.232Zm1.08-5.328v-1.848h9.12v1.848h-9.12Zm13.756 5.328v-11.904h2.184v8.976l-.168-.048 7.128-8.928h1.944v11.904h-2.184v-8.976l.192.072-7.152 8.904h-1.944Zm15.797 0h-2.568l4.632-6.168-4.224-5.736h2.544l3.12 4.44 3.096-4.44h2.544l-4.224 5.736 4.656 6.168h-2.616l-3.456-4.8-3.504 4.8Zm-226.043 30v-11.904h10.752v11.904h-2.232v-11.496l1.584 1.464h-9.648l1.776-1.464v11.496h-2.232Zm13.046 0v-1.872h.912c.448 0 .776-.112.984-.336.224-.224.36-.616.408-1.176l.744-8.52h8.76v11.904h-2.232v-11.496l1.584 1.464h-7.68l1.728-1.464-.816 8.496c-.096 1.12-.392 1.904-.888 2.352-.496.432-1.24.648-2.232.648h-1.272Zm25.606 0h-2.088v-2.352l-.072-.576v-4.44c0-.944-.304-1.688-.912-2.232-.608-.56-1.432-.84-2.472-.84-.752 0-1.44.16-2.064.48a5.015 5.015 0 0 0-1.632 1.272l-1.392-1.44a6.874 6.874 0 0 1 2.256-1.584c.864-.384 1.824-.576 2.88-.576 1.088 0 2.04.2 2.856.6.832.4 1.48.96 1.944 1.68.464.704.696 1.56.696 2.568v7.44Zm-6.48.384c-.896 0-1.688-.16-2.376-.48-.688-.336-1.224-.792-1.608-1.368-.384-.576-.576-1.232-.576-1.968 0-.832.232-1.536.696-2.112.48-.592 1.136-1.04 1.968-1.344.832-.32 1.784-.48 2.856-.48h3.624v1.656h-3.384c-1.008 0-1.84.184-2.496.552-.64.352-.96.904-.96 1.656 0 .64.24 1.152.72 1.536.496.384 1.136.576 1.92.576.768 0 1.464-.152 2.088-.456a3.727 3.727 0 0 0 1.488-1.272c.384-.56.6-1.2.648-1.92l.792.432c0 .96-.232 1.816-.696 2.568a4.9 4.9 0 0 1-1.92 1.776c-.8.432-1.728.648-2.784.648Zm12.758-.384v-11.208h2.232v11.208h-2.232Zm-4.296-10.032v-1.872h10.8v1.872h-10.8Zm19.885 10.416c-1.616 0-3.016-.256-4.2-.768-1.184-.512-2.096-1.24-2.736-2.184-.64-.96-.96-2.088-.96-3.384 0-1.296.32-2.416.96-3.36.64-.944 1.552-1.672 2.736-2.184 1.184-.528 2.584-.792 4.2-.792h.72c1.632 0 3.032.264 4.2.792 1.184.512 2.096 1.24 2.736 2.184.64.944.96 2.064.96 3.36 0 1.296-.32 2.424-.96 3.384-.64.944-1.552 1.672-2.736 2.184-1.168.512-2.568.768-4.2.768h-.72Zm0-1.896h.72c1.872 0 3.28-.368 4.224-1.104.944-.752 1.416-1.864 1.416-3.336 0-1.456-.472-2.552-1.416-3.288-.944-.752-2.352-1.128-4.224-1.128h-.72c-1.872 0-3.28.368-4.224 1.104-.944.736-1.416 1.84-1.416 3.312 0 1.472.472 2.584 1.416 3.336.944.736 2.352 1.104 4.224 1.104Zm-.744 6.408v-5.304l.048-.36v-10.152l-.048-.384v-5.976h2.232v5.976l-.048.384v10.152l.048.36v5.304h-2.232Zm17.912-4.512c-1.248 0-2.352-.272-3.312-.816a5.927 5.927 0 0 1-2.256-2.232c-.544-.96-.816-2.056-.816-3.288 0-1.232.272-2.32.816-3.264a5.927 5.927 0 0 1 2.256-2.232c.96-.56 2.064-.84 3.312-.84 1.248 0 2.344.28 3.288.84a5.927 5.927 0 0 1 2.256 2.232c.56.944.84 2.032.84 3.264 0 1.232-.28 2.328-.84 3.288a5.927 5.927 0 0 1-2.256 2.232c-.944.544-2.04.816-3.288.816Zm0-1.92c.8 0 1.504-.184 2.112-.552a3.722 3.722 0 0 0 1.416-1.56c.336-.672.504-1.44.504-2.304 0-.864-.168-1.624-.504-2.28a3.722 3.722 0 0 0-1.416-1.56c-.608-.384-1.312-.576-2.112-.576s-1.512.192-2.136.576a3.722 3.722 0 0 0-1.416 1.56c-.336.656-.504 1.416-.504 2.28 0 .864.168 1.632.504 2.304a3.722 3.722 0 0 0 1.416 1.56c.624.368 1.336.552 2.136.552Zm11.498 6.192h-2.232v-16.56h2.208v3.648h-.504a4.61 4.61 0 0 1 .888-2.088 4.947 4.947 0 0 1 1.776-1.416 5.282 5.282 0 0 1 2.352-.528c1.152 0 2.176.28 3.072.84a5.743 5.743 0 0 1 2.112 2.256c.512.944.768 2.024.768 3.24 0 1.232-.264 2.328-.792 3.288a5.68 5.68 0 0 1-2.16 2.232c-.912.544-1.952.816-3.12.816-1.072 0-2-.216-2.784-.648-.784-.448-1.376-1.048-1.776-1.8-.4-.768-.56-1.624-.48-2.568l.456-.456c.064.688.288 1.304.672 1.848.4.544.904.968 1.512 1.272a4.752 4.752 0 0 0 2.016.432c.832 0 1.552-.184 2.16-.552a4.058 4.058 0 0 0 1.44-1.584c.352-.672.528-1.432.528-2.28 0-.848-.168-1.6-.504-2.256-.336-.672-.8-1.2-1.392-1.584-.592-.384-1.288-.576-2.088-.576s-1.512.2-2.136.6c-.608.384-1.096.928-1.464 1.632-.352.704-.528 1.52-.528 2.448v10.344Zm13.354-4.656v-11.904h2.472l4.68 8.784h-.408l4.656-8.784h2.544v11.904h-2.088v-11.136l1.032.288-5.16 9.72h-1.68l-5.136-9.72 1.128-.264v11.112h-2.04Zm27.777 0h-2.088v-2.352l-.072-.576v-4.44c0-.944-.304-1.688-.912-2.232-.608-.56-1.432-.84-2.472-.84-.752 0-1.44.16-2.064.48a5.015 5.015 0 0 0-1.632 1.272l-1.392-1.44a6.874 6.874 0 0 1 2.256-1.584c.864-.384 1.824-.576 2.88-.576 1.088 0 2.04.2 2.856.6.832.4 1.48.96 1.944 1.68.464.704.696 1.56.696 2.568v7.44Zm-6.48.384c-.896 0-1.688-.16-2.376-.48-.688-.336-1.224-.792-1.608-1.368-.384-.576-.576-1.232-.576-1.968 0-.832.232-1.536.696-2.112.48-.592 1.136-1.04 1.968-1.344.832-.32 1.784-.48 2.856-.48h3.624v1.656h-3.384c-1.008 0-1.84.184-2.496.552-.64.352-.96.904-.96 1.656 0 .64.24 1.152.72 1.536.496.384 1.136.576 1.92.576.768 0 1.464-.152 2.088-.456a3.727 3.727 0 0 0 1.488-1.272c.384-.56.6-1.2.648-1.92l.792.432c0 .96-.232 1.816-.696 2.568a4.9 4.9 0 0 1-1.92 1.776c-.8.432-1.728.648-2.784.648Zm10.743-.384h-2.568l4.632-6.168-4.224-5.736h2.544l3.12 4.44 3.096-4.44h2.544l-4.224 5.736 4.656 6.168h-2.616l-3.456-4.8-3.504 4.8Zm16.358 0v-11.904h10.752v11.904h-2.232v-11.496l1.584 1.464h-9.648l1.776-1.464v11.496h-2.232Zm20.054.384c-1.248 0-2.352-.272-3.312-.816a5.927 5.927 0 0 1-2.256-2.232c-.544-.96-.816-2.056-.816-3.288 0-1.232.272-2.32.816-3.264a5.927 5.927 0 0 1 2.256-2.232c.96-.56 2.064-.84 3.312-.84 1.248 0 2.344.28 3.288.84a5.927 5.927 0 0 1 2.256 2.232c.56.944.84 2.032.84 3.264 0 1.232-.28 2.328-.84 3.288a5.927 5.927 0 0 1-2.256 2.232c-.944.544-2.04.816-3.288.816Zm0-1.92c.8 0 1.504-.184 2.112-.552a3.722 3.722 0 0 0 1.416-1.56c.336-.672.504-1.44.504-2.304 0-.864-.168-1.624-.504-2.28a3.722 3.722 0 0 0-1.416-1.56c-.608-.384-1.312-.576-2.112-.576s-1.512.192-2.136.576a3.722 3.722 0 0 0-1.416 1.56c-.336.656-.504 1.416-.504 2.28 0 .864.168 1.632.504 2.304a3.722 3.722 0 0 0 1.416 1.56c.624.368 1.336.552 2.136.552Zm13.954 1.536v-11.904h6.072c1.248 0 2.232.288 2.952.864.736.576 1.104 1.344 1.104 2.304 0 .608-.184 1.136-.552 1.584-.352.448-.832.792-1.44 1.032l-.024-.216c.752.208 1.368.56 1.848 1.056s.72 1.104.72 1.824c0 .672-.2 1.272-.6 1.8-.4.528-.936.936-1.608 1.224-.672.288-1.424.432-2.256.432h-6.216Zm2.136-.528-1.248-1.224h5.16c.736 0 1.312-.152 1.728-.456.416-.32.624-.768.624-1.344 0-.56-.208-.992-.624-1.296-.416-.32-.992-.48-1.728-.48h-4.896v-1.68h4.776c.704 0 1.2-.144 1.488-.432.288-.288.432-.688.432-1.2 0-.496-.152-.864-.456-1.104-.288-.256-.776-.384-1.464-.384h-5.064l1.272-1.272v10.872Zm20.994-2.976 1.392 1.44a6.528 6.528 0 0 1-2.304 1.8c-.896.432-1.912.648-3.048.648-1.296 0-2.448-.272-3.456-.816a6.141 6.141 0 0 1-2.376-2.232c-.56-.96-.84-2.056-.84-3.288 0-1.232.272-2.32.816-3.264a5.878 5.878 0 0 1 2.256-2.256c.96-.544 2.04-.816 3.24-.816 1.168 0 2.2.272 3.096.816a5.563 5.563 0 0 1 2.136 2.208c.528.928.792 2.008.792 3.24v.144h-2.256v-.216c0-.864-.16-1.616-.48-2.256-.32-.656-.768-1.16-1.344-1.512-.56-.368-1.208-.552-1.944-.552-.784 0-1.48.184-2.088.552a3.722 3.722 0 0 0-1.416 1.56c-.336.656-.504 1.432-.504 2.328 0 .896.184 1.688.552 2.376a4.014 4.014 0 0 0 1.584 1.56c.672.368 1.44.552 2.304.552 1.584 0 2.88-.672 3.888-2.016Zm1.704-1.704h-10.68v-1.656h10.296l.384.84v.816Zm5.125 9.864h-2.232v-16.56h2.208v3.648h-.505c.129-.784.425-1.48.889-2.088a4.947 4.947 0 0 1 1.776-1.416 5.282 5.282 0 0 1 2.352-.528c1.152 0 2.176.28 3.072.84a5.743 5.743 0 0 1 2.112 2.256c.512.944.768 2.024.768 3.24 0 1.232-.264 2.328-.792 3.288a5.68 5.68 0 0 1-2.16 2.232c-.912.544-1.952.816-3.12.816-1.072 0-2-.216-2.784-.648-.784-.448-1.376-1.048-1.776-1.8-.4-.768-.56-1.624-.48-2.568l.456-.456c.064.688.288 1.304.672 1.848.4.544.904.968 1.512 1.272a4.752 4.752 0 0 0 2.016.432c.832 0 1.552-.184 2.16-.552a4.058 4.058 0 0 0 1.44-1.584c.352-.672.528-1.432.528-2.28 0-.848-.168-1.6-.504-2.256-.336-.672-.8-1.2-1.392-1.584-.592-.384-1.288-.576-2.088-.576s-1.512.2-2.136.6c-.608.384-1.096.928-1.464 1.632-.352.704-.528 1.52-.528 2.448v10.344Zm22.425-8.04 1.512 1.44a6.187 6.187 0 0 1-2.136 1.704c-.848.416-1.808.624-2.88.624-1.216 0-2.304-.272-3.264-.816a5.977 5.977 0 0 1-2.232-2.232c-.544-.96-.816-2.056-.816-3.288 0-1.216.272-2.296.816-3.24a5.878 5.878 0 0 1 2.256-2.256c.976-.56 2.072-.84 3.288-.84 1.056 0 2 .208 2.832.624.848.416 1.56.984 2.136 1.704l-1.512 1.44a4.293 4.293 0 0 0-1.392-1.344c-.56-.336-1.232-.504-2.016-.504-.8 0-1.512.192-2.136.576a3.883 3.883 0 0 0-1.44 1.56c-.336.656-.504 1.416-.504 2.28 0 .864.168 1.632.504 2.304a4.102 4.102 0 0 0 1.44 1.56c.624.368 1.336.552 2.136.552s1.472-.168 2.016-.504a4.293 4.293 0 0 0 1.392-1.344Zm4.171 3.384v-11.904h2.184v8.976l-.168-.048 7.128-8.928h1.944v11.904h-2.184v-8.976l.192.072-7.152 8.904h-1.944Zm14.765 0v-11.904h2.184v8.976l-.168-.048 7.128-8.928h1.944v11.904h-2.184v-8.976l.192.072-7.152 8.904h-1.944Zm-249.819 29.184-3.456-5.136 3.456-5.136h2.496l-3.504 5.136 3.504 5.136h-2.496Zm4.752 0-3.456-5.136 3.456-5.136h2.496l-3.504 5.136 3.504 5.136h-2.496Zm4.494-1.968 1.632-1.584c.464.56 1 1.04 1.608 1.44.608.4 1.264.712 1.968.936a7.318 7.318 0 0 0 2.232.336c.88 0 1.656-.128 2.328-.384.672-.272 1.2-.64 1.584-1.104a2.481 2.481 0 0 0 .576-1.632c0-.816-.36-1.456-1.08-1.92-.704-.48-1.92-.848-3.648-1.104-1.568-.24-2.824-.56-3.768-.96-.944-.4-1.632-.904-2.064-1.512-.432-.624-.648-1.36-.648-2.208 0-.992.28-1.872.84-2.64.56-.768 1.328-1.36 2.304-1.776.992-.432 2.12-.648 3.384-.648 1.456 0 2.744.288 3.864.864a9.44 9.44 0 0 1 2.976 2.304l-1.608 1.56c-.656-.816-1.4-1.464-2.232-1.944-.832-.496-1.832-.744-3-.744-1.216 0-2.216.272-3 .816-.768.528-1.152 1.24-1.152 2.136 0 .464.144.864.432 1.2.288.32.76.592 1.416.816.656.224 1.536.424 2.64.6 1.6.224 2.888.56 3.864 1.008.992.432 1.712.984 2.16 1.656.464.672.696 1.48.696 2.424 0 1.04-.296 1.952-.888 2.736-.576.784-1.384 1.4-2.424 1.848-1.024.432-2.208.648-3.552.648-1.584 0-2.992-.28-4.224-.84a10.364 10.364 0 0 1-3.216-2.328Zm36.206 2.784h-2.232v-6.888c0-1.152-.24-2.016-.72-2.592-.48-.592-1.136-.888-1.968-.888-.592 0-1.16.168-1.704.504-.528.336-.96.864-1.296 1.584-.32.704-.48 1.624-.48 2.76v5.52h-2.232v-6.888c0-1.152-.248-2.016-.744-2.592-.48-.592-1.128-.888-1.944-.888-.608 0-1.184.168-1.728.504-.528.336-.96.864-1.296 1.584-.32.704-.48 1.624-.48 2.76v5.52h-2.232v-11.904h2.208v2.904l-.192-.024c.224-.816.552-1.456.984-1.92a4.05 4.05 0 0 1 1.512-1.008 4.798 4.798 0 0 1 1.752-.336c1.072 0 1.952.296 2.64.888.704.592 1.16 1.464 1.368 2.616h-.288c.224-.848.568-1.528 1.032-2.04a4.227 4.227 0 0 1 1.632-1.104 5.244 5.244 0 0 1 1.896-.36c1.424 0 2.528.448 3.312 1.344.8.88 1.2 2.16 1.2 3.84v7.104Zm13.414 0h-2.088v-2.352l-.072-.576v-4.44c0-.944-.304-1.688-.912-2.232-.608-.56-1.432-.84-2.472-.84-.752 0-1.44.16-2.064.48a5.015 5.015 0 0 0-1.632 1.272l-1.392-1.44a6.874 6.874 0 0 1 2.256-1.584c.864-.384 1.824-.576 2.88-.576 1.088 0 2.04.2 2.856.6.832.4 1.48.96 1.944 1.68.464.704.696 1.56.696 2.568v7.44Zm-6.48.384c-.896 0-1.688-.16-2.376-.48-.688-.336-1.224-.792-1.608-1.368-.384-.576-.576-1.232-.576-1.968 0-.832.232-1.536.696-2.112.48-.592 1.136-1.04 1.968-1.344.832-.32 1.784-.48 2.856-.48h3.624v1.656h-3.384c-1.008 0-1.84.184-2.496.552-.64.352-.96.904-.96 1.656 0 .64.24 1.152.72 1.536.496.384 1.136.576 1.92.576.768 0 1.464-.152 2.088-.456a3.727 3.727 0 0 0 1.488-1.272c.384-.56.6-1.2.648-1.92l.792.432c0 .96-.232 1.816-.696 2.568a4.9 4.9 0 0 1-1.92 1.776c-.8.432-1.728.648-2.784.648Zm16.191-12.48v2.112h-.528c-.72 0-1.384.176-1.992.528-.592.336-1.072.872-1.44 1.608-.352.72-.528 1.664-.528 2.832v5.016h-2.232v-11.904h2.208v3.816h-.336c.176-1.008.496-1.8.96-2.376.48-.576 1.032-.992 1.656-1.248a5.015 5.015 0 0 1 1.92-.384h.312Zm9.48 12.096h-2.856c-.928 0-1.64-.24-2.136-.72-.48-.496-.72-1.2-.72-2.112v-12.432h2.232v12.144c0 .4.104.712.312.936.208.208.512.312.912.312h2.256v1.872Zm-.168-10.032h-7.872v-1.872h7.872v1.872Zm5.24 10.032h-2.304v-17.16h6.768c1.168 0 2.184.208 3.048.624.864.416 1.536.992 2.016 1.728.496.736.744 1.6.744 2.592s-.248 1.856-.744 2.592c-.48.736-1.152 1.312-2.016 1.728-.864.416-1.88.624-3.048.624H697.3v-1.992h4.704c1.072 0 1.912-.256 2.52-.768.624-.528.936-1.256.936-2.184 0-.928-.312-1.648-.936-2.16-.608-.528-1.448-.792-2.52-.792h-4.464v15.168Zm11.976 0h-2.904l-6.432-7.992h2.688l6.648 7.992Zm11.878 0h-2.088v-2.352l-.072-.576v-4.44c0-.944-.304-1.688-.912-2.232-.608-.56-1.432-.84-2.472-.84-.752 0-1.44.16-2.064.48a5.015 5.015 0 0 0-1.632 1.272l-1.392-1.44a6.874 6.874 0 0 1 2.256-1.584c.864-.384 1.824-.576 2.88-.576 1.088 0 2.04.2 2.856.6.832.4 1.48.96 1.944 1.68.464.704.696 1.56.696 2.568v7.44Zm-6.48.384c-.896 0-1.688-.16-2.376-.48-.688-.336-1.224-.792-1.608-1.368-.384-.576-.576-1.232-.576-1.968 0-.832.232-1.536.696-2.112.48-.592 1.136-1.04 1.968-1.344.832-.32 1.784-.48 2.856-.48h3.624v1.656h-3.384c-1.008 0-1.84.184-2.496.552-.64.352-.96.904-.96 1.656 0 .64.24 1.152.72 1.536.496.384 1.136.576 1.92.576.768 0 1.464-.152 2.088-.456a3.727 3.727 0 0 0 1.488-1.272c.384-.56.6-1.2.648-1.92l.792.432c0 .96-.232 1.816-.696 2.568a4.9 4.9 0 0 1-1.92 1.776c-.8.432-1.728.648-2.784.648Zm20.607-.384h-2.232v-6.864c0-1.168-.264-2.04-.792-2.616-.528-.592-1.24-.888-2.136-.888-.64 0-1.248.168-1.824.504-.576.336-1.04.864-1.392 1.584-.352.72-.528 1.648-.528 2.784v5.496h-2.232v-11.904h2.208v3.648h-.336c.176-1.008.496-1.8.96-2.376.464-.592 1.016-1.016 1.656-1.272a5.316 5.316 0 0 1 1.992-.384c1.44 0 2.576.448 3.408 1.344.832.88 1.248 2.16 1.248 3.84v7.104Zm5.229 0h-2.232v-17.28h2.232v17.28Zm9.456 0h-3.096l-7.008-6.168h.24l6.288-5.736h2.88l-6.672 5.952v-.432l7.368 6.384Zm4.137 0h-2.232v-11.904h2.232v11.904Zm-1.104-14.712c-.416 0-.776-.136-1.08-.408a1.436 1.436 0 0 1-.432-1.056c0-.416.144-.768.432-1.056a1.518 1.518 0 0 1 1.08-.432c.416 0 .768.144 1.056.432.288.288.432.64.432 1.056 0 .416-.144.768-.432 1.056a1.48 1.48 0 0 1-1.056.408Zm15.399 14.712h-2.232v-6.864c0-1.168-.264-2.04-.792-2.616-.528-.592-1.24-.888-2.136-.888-.64 0-1.248.168-1.824.504-.576.336-1.04.864-1.392 1.584-.352.72-.528 1.648-.528 2.784v5.496h-2.232v-11.904h2.208v3.648h-.336c.176-1.008.496-1.8.96-2.376.464-.592 1.016-1.016 1.656-1.272a5.316 5.316 0 0 1 1.992-.384c1.44 0 2.576.448 3.408 1.344.832.88 1.248 2.16 1.248 3.84v7.104Zm15.165-1.152c0 1.216-.28 2.288-.84 3.216a5.806 5.806 0 0 1-2.256 2.184c-.96.528-2.064.792-3.312.792-1.136 0-2.168-.2-3.096-.6-.928-.384-1.696-.92-2.304-1.608l1.392-1.488c.448.56.992 1 1.632 1.32.656.32 1.432.48 2.328.48.848 0 1.584-.184 2.208-.552a3.7 3.7 0 0 0 1.488-1.488c.352-.624.528-1.36.528-2.208v-4.584c0-1.024-.192-1.88-.576-2.568-.384-.688-.888-1.208-1.512-1.56a3.776 3.776 0 0 0-1.992-.552c-.784 0-1.488.192-2.112.576a3.923 3.923 0 0 0-1.416 1.56c-.336.64-.504 1.368-.504 2.184 0 .832.168 1.568.504 2.208.352.64.832 1.144 1.44 1.512.624.352 1.352.528 2.184.528.736 0 1.408-.152 2.016-.456a4.043 4.043 0 0 0 1.488-1.248c.4-.544.632-1.16.696-1.848l.456.456c.112.96-.048 1.816-.48 2.568-.416.752-1.024 1.352-1.824 1.8-.784.432-1.696.648-2.736.648-1.152 0-2.192-.256-3.12-.768a5.778 5.778 0 0 1-2.16-2.184c-.528-.944-.792-2.016-.792-3.216 0-1.216.264-2.288.792-3.216.544-.944 1.264-1.68 2.16-2.208.912-.544 1.928-.816 3.048-.816a5.52 5.52 0 0 1 2.256.456c.704.304 1.296.76 1.776 1.368.48.592.792 1.328.936 2.208h-.504v-3.648h2.208v10.752Zm5.2-9.936 3.48 5.136-3.48 5.136h-2.472l3.504-5.136-3.504-5.136h2.472Zm4.752 0 3.48 5.136-3.48 5.136h-2.472l3.504-5.136-3.504-5.136h2.472Zm10.429 3.864c0-1.92.296-3.752.888-5.496a17.21 17.21 0 0 1 2.544-4.824h2.136c-1.136 1.664-1.992 3.352-2.568 5.064a16.656 16.656 0 0 0-.84 5.256c0 3.552 1.136 6.992 3.408 10.32h-2.136a17.21 17.21 0 0 1-2.544-4.824 16.98 16.98 0 0 1-.888-5.496Zm19.133 7.224h-11.496v-1.872l6.12-5.712c.976-.928 1.72-1.768 2.232-2.52.528-.752.792-1.528.792-2.328 0-.592-.144-1.128-.432-1.608a3.063 3.063 0 0 0-1.152-1.152c-.496-.288-1.072-.432-1.728-.432-.912 0-1.744.256-2.496.768-.752.496-1.408 1.2-1.968 2.112l-1.56-1.464c.816-1.104 1.728-1.936 2.736-2.496 1.024-.56 2.152-.84 3.384-.84 1.104 0 2.064.232 2.88.696a4.84 4.84 0 0 1 1.896 1.824c.464.768.696 1.64.696 2.616 0 .736-.16 1.44-.48 2.112-.304.672-.76 1.36-1.368 2.064-.608.704-1.384 1.48-2.328 2.328l-1.464 1.368-1.488 1.344c-.48.448-.96.888-1.44 1.32h8.664v1.872Zm9.424.384c-1.328 0-2.48-.352-3.456-1.056-.96-.72-1.696-1.744-2.208-3.072-.512-1.344-.768-2.952-.768-4.824 0-2.832.568-5.032 1.704-6.6 1.152-1.584 2.728-2.376 4.728-2.376 2.016 0 3.592.792 4.728 2.376 1.152 1.568 1.728 3.768 1.728 6.6 0 1.872-.256 3.48-.768 4.824-.512 1.328-1.248 2.352-2.208 3.072-.96.704-2.12 1.056-3.48 1.056Zm0-1.92c1.312 0 2.32-.6 3.024-1.8.72-1.216 1.08-2.96 1.08-5.232 0-2.288-.36-4.032-1.08-5.232-.704-1.216-1.712-1.824-3.024-1.824-1.296 0-2.304.608-3.024 1.824-.72 1.2-1.08 2.944-1.08 5.232 0 2.272.36 4.016 1.08 5.232.72 1.2 1.728 1.8 3.024 1.8Zm20.506 1.536h-11.496v-1.872l6.12-5.712c.976-.928 1.72-1.768 2.232-2.52.528-.752.792-1.528.792-2.328 0-.592-.144-1.128-.432-1.608a3.063 3.063 0 0 0-1.152-1.152c-.496-.288-1.072-.432-1.728-.432-.912 0-1.744.256-2.496.768-.752.496-1.408 1.2-1.968 2.112l-1.56-1.464c.816-1.104 1.728-1.936 2.736-2.496 1.024-.56 2.152-.84 3.384-.84 1.104 0 2.064.232 2.88.696a4.84 4.84 0 0 1 1.896 1.824c.464.768.696 1.64.696 2.616 0 .736-.16 1.44-.48 2.112-.304.672-.76 1.36-1.368 2.064-.608.704-1.384 1.48-2.328 2.328l-1.464 1.368-1.488 1.344c-.48.448-.96.888-1.44 1.32h8.664v1.872Zm13.394 0h-2.232v-4.104h-8.952v-1.824l8.952-11.232h2.232v11.232h2.568v1.824h-2.568v4.104Zm-2.232-14.28-6.672 8.352h6.672v-8.352Zm12.175 7.056c0 1.92-.296 3.752-.888 5.496a16.419 16.419 0 0 1-2.544 4.824h-2.16c2.288-3.328 3.432-6.768 3.432-10.32 0-1.808-.288-3.56-.864-5.256-.56-1.712-1.416-3.4-2.568-5.064h2.16a16.419 16.419 0 0 1 2.544 4.824 16.98 16.98 0 0 1 .888 5.496Z" fill="#000"/></svg>