<svg width="104" height="90" fill="none" xmlns="http://www.w3.org/2000/svg"><g clip-path="url(#a)"><path d="M62.987 50.05c.013 2.566-.007 5.127-.027 7.692-.02 2.588-.042 5.176-.059 7.764l-.02 3.813c-.006 1.104.197 2.463-.098 3.538-.006-.217-.219-.416-.455-.443l.046-9.08c.056-6.552.134-13.084.108-20.012.092-.082.174-.17.242-.269l.01-.016c.311.92.145 2.192.177 3.083.043 1.313.069 2.62.076 3.93Z" fill="#511308"/><path d="M62.776 72.86a.369.369 0 0 1-.14.302c-.688.599-1.671.907-2.493 1.287-.816.38-1.635.757-2.45 1.137-1.688.78-3.371 1.562-5.058 2.345-1.737.806-3.466 1.635-5.219 2.401-.825.36-1.65.73-2.483 1.085-.727.307-1.458.504-2.204.73a.36.36 0 0 0-.01-.118.595.595 0 0 0 .065-.108l19.137-8.894c.17.35.705.331.83-.069.006-.03.016-.065.025-.098Z" fill="#556FA7"/><path d="m62.772 72.86-.03.108a.448.448 0 0 1-.828.069l.4-.187v-.066l.003-.363c.236.023.449.22.455.439ZM62.76 42.687a.363.363 0 0 1-.035.357l-.03-.082a.47.47 0 0 0 .066-.275Z" fill="#511308"/><path d="m62.292 42.69-.816-.164c.282-.111.563-.183.845-.16.187.016.37.147.442.32a.47.47 0 0 1-.065.276 1.939 1.939 0 0 0-.177-.36.055.055 0 0 0-.095 0c-.046.075-.089.15-.125.232l-.73.311a9.507 9.507 0 0 1-1.032-.164c.288-.147.596-.32.904-.445.292.056.573.105.849.154ZM62.724 43.044c-.003.007-.006.01-.01.016-.072.099-.15.187-.242.269 0-.066 0-.131-.003-.2a.356.356 0 0 0 .226-.164c.01.023.023.053.03.079Z" fill="#511308"/><path d="M62.556 42.307a.45.45 0 0 1 .213.38.555.555 0 0 0-.442-.321c-.282-.023-.563.05-.845.16l-14.505-2.905c-.026-.007-.05-.01-.075-.016-4.007-.836-7.833-1.628-10.7-2.153-.061-.213-.251-.38-.514-.291-.02.006-.035.013-.055.02a.208.208 0 0 1 .082-.037c.887-.19 1.818.033 2.705.174 1.078.17 2.15.377 3.22.573 2.412.443 4.813.944 7.214 1.435 2.49.508 4.98 1.029 7.465 1.543 1.085.223 2.175.436 3.253.701.947.233 2.126.265 2.984.737Z" fill="#86A3E2"/><path d="M62.316 42.834c.037-.082.076-.16.125-.233a.055.055 0 0 1 .095 0c.072.112.131.233.177.36a.356.356 0 0 1-.226.165c0-.108 0-.22-.003-.328l-.004.328a2.255 2.255 0 0 1-.285.033 3.48 3.48 0 0 1 .121-.325ZM62.452 43.325c.03 6.929-.053 13.46-.108 20.012l.098-20.008c.007 0 .01 0 .01-.004Z" fill="#511308"/><path d="M62.472 43.126c.003.069.003.134.003.2l-.006.006.003-.203c-.003 0 0-.003 0-.003ZM62.47 43.126l-.003.203c-.111.101-.239.19-.373.268.023-.15.049-.298.088-.439.085-.006.17-.013.256-.026.013 0 .023-.003.032-.006Z" fill="#511308"/><path d="m62.474 43.333-.099 20.008c-.026 3.01-.045 6.024-.045 9.08a.284.284 0 0 0-.118.004 3.8 3.8 0 0 0-.417.095c-.186-1.058-.006-2.32-.003-3.355.003-1.27.017-2.542.026-3.813.023-2.535.05-5.07.073-7.606.026-2.62.049-5.238.085-7.855.016-1.31.052-2.618.098-3.928.023-.685-.075-1.582.033-2.362.127-.082.255-.167.367-.268Z" fill="#511308"/><path d="m62.377 63.337-.046 9.08h-.003c.003-3.056.023-6.07.05-9.08ZM62.315 72.781v.066l-.4.187a.33.33 0 0 1-.026-.069 3.898 3.898 0 0 1-.108-.449c.138-.042.279-.075.416-.095a.47.47 0 0 1 .118-.003v.363ZM62.316 42.834c-.226.108-.452.213-.684.318-.017 0-.03-.003-.046-.003l.73-.315ZM61.47 42.526l.816.164c-.275-.05-.56-.099-.849-.151l.033-.013Z" fill="#511308"/><path d="M62.294 42.838a2.105 2.105 0 0 0-.115.324 3.33 3.33 0 0 1-.57-.01c.233-.105.459-.21.685-.314Z" fill="#511308"/><path d="M62.199 43.158c-.04.14-.069.288-.088.439-.469.282-1.045.452-1.52.658-.757.331-1.514.652-2.277.973-1.71.718-3.427 1.419-5.146 2.113-3.276 1.33-6.552 2.703-9.874 3.924a.513.513 0 0 0-.013-.298l9.317-3.983.068-.03c3.093-1.27 6.182-2.538 8.963-3.81.193.024.383.027.57.014Z" fill="#511308"/><path d="M62.093 43.598c-.108.78-.01 1.677-.033 2.362-.046 1.31-.082 2.617-.098 3.927-.033 2.621-.059 5.238-.085 7.856-.023 2.535-.05 5.07-.072 7.606-.01 1.271-.023 2.542-.026 3.813-.004 1.032-.184 2.293.003 3.354-.649.197-1.278.587-1.88.865-.869.403-1.737.81-2.601 1.212-1.684.783-3.368 1.57-5.052 2.352-1.631.76-3.276 1.5-4.897 2.287-.858.416-1.713.842-2.571 1.268-.695.344-1.317.753-1.953 1.162-.003-10.027.43-20.034.04-30.058.032-.007.065-.01.094-.017.164-.029.272-.163.312-.317 3.321-1.225 6.594-2.598 9.873-3.925 1.72-.697 3.436-1.395 5.146-2.112.76-.322 1.52-.646 2.277-.973.478-.21 1.051-.38 1.523-.662Z" fill="#556FA7"/><path d="M61.892 72.965c.007.023.017.045.026.068-6.378 2.965-12.755 5.93-19.137 8.894a.598.598 0 0 0 .05-.239v-.026c.638-.41 1.257-.82 1.952-1.163.855-.426 1.71-.852 2.571-1.268 1.622-.783 3.266-1.526 4.898-2.286 1.683-.783 3.367-1.57 5.05-2.352.869-.403 1.737-.81 2.602-1.212.602-.282 1.231-.669 1.88-.865.026.154.062.304.108.449Z" fill="#556FA7"/><path d="M61.573 43.149c.016.003.03.003.046.003-2.781 1.271-5.87 2.539-8.963 3.81l8.917-3.813ZM61.562 43.148l-8.916 3.813-.07.03c-3.223 1.323-6.446 2.647-9.322 3.97a.35.35 0 0 0-.187-.2c-.013-.006-.026-.01-.036-.016 3-1.677 6.234-2.964 9.398-4.285 1.763-.733 3.529-1.467 5.281-2.224.845-.363 1.687-.73 2.522-1.11.095-.043.194-.092.295-.145.347.072.695.135 1.035.167ZM46.96 39.62l14.506 2.907c-.013.003-.023.01-.033.013-4.045-.74-9.398-1.861-14.472-2.92Z" fill="#511308"/><path d="M61.444 42.54c-.308.124-.616.297-.904.445-.367-.072-.727-.15-1.075-.203-1.136-.16-2.26-.38-3.383-.6-2.447-.478-4.891-.982-7.335-1.503-2.444-.518-4.887-1.029-7.325-1.576-1.031-.23-2.063-.449-3.095-.681-.714-.164-1.494-.282-2.179-.58a.469.469 0 0 0 .053-.38l10.695 2.142c.026.007.05.01.076.017 5.074 1.058 10.426 2.178 14.472 2.918Z" fill="#86A3E2"/><path d="M60.528 42.985a3.053 3.053 0 0 1-.295.144c-.835.377-1.68.747-2.522 1.11-1.753.757-3.518 1.49-5.28 2.225-3.168 1.32-6.398 2.607-9.399 4.284a3.062 3.062 0 0 0-.33-.12.304.304 0 0 0-.122-.037h-.006c-.489-.134-1.006-.183-1.5-.278-.826-.154-1.642-.348-2.464-.511a388.221 388.221 0 0 1-6.103-1.268c-4.317-.927-8.625-1.887-12.936-2.84-.996-.22-1.992-.449-2.99-.655-.695-.141-1.377-.325-2.081-.299 1.782-.409 3.512-1.12 5.235-1.726 1.72-.606 3.452-1.182 5.189-1.74A270.616 270.616 0 0 1 35.9 38.006a.42.42 0 0 0 .236-.16c.684.298 1.46.416 2.178.58 1.032.232 2.064.452 3.096.681 2.437.547 4.88 1.055 7.324 1.576 2.44.52 4.884 1.025 7.335 1.503 1.127.22 2.247.44 3.384.6.347.046.707.128 1.074.2Z" fill="#86A3E2"/><path d="m52.589 46.987-9.317 3.984c0-.007-.003-.01-.006-.013 2.879-1.32 6.1-2.644 9.323-3.97Z" fill="#511308"/><path d="m46.894 39.604-10.695-2.142c0-.004-.004-.007-.004-.01 2.867.524 6.693 1.317 10.699 2.152Z" fill="#86A3E2"/><path d="M43.264 50.975a.54.54 0 0 1 .013.298c-.12.046-.242.088-.36.134a.343.343 0 0 1-.056.013l-.01-.265.413-.18Z" fill="#511308"/><path d="M42.907 51.403c.122-.042.243-.088.36-.134-.039.154-.147.288-.31.318l-.096.016-.01-.187c.02-.003.04-.006.056-.013ZM43.264 50.974l-.412.177c.134-.065.272-.128.409-.19.003.004.003.007.003.013Z" fill="#511308"/><path d="M43.266 50.961c-.137.063-.275.125-.41.19a8.805 8.805 0 0 0-.012-.295c.065-.035.13-.075.196-.11.013.006.026.009.036.015.095.04.158.115.19.2Z" fill="#511308"/><path d="M43.05 50.745c-.066.037-.131.073-.197.112v-.01a.262.262 0 0 0-.134-.223c.111.036.222.076.33.121Z" fill="#511308"/><path d="M42.863 51.603c.39 10.024-.043 20.032-.04 30.059-.082.055-.167.108-.249.163a.246.246 0 0 0-.082-.042 5.35 5.35 0 0 0-.242-.085l.003-.01v-.02l.066-6.545c.13-7.63.403-15.963.259-23.494.095-.003.19-.013.285-.026Z" fill="#556FA7"/><path d="m42.879 51.417.01.186a2.8 2.8 0 0 1-.285.027l-.01-.511c.006 0 .013.003.02.003-.017.15.098.318.265.295Z" fill="#511308"/><path d="M42.861 51.151c.007.089.01.177.01.266-.167.026-.282-.141-.268-.295.085.013.17.023.252.033l.006-.004Z" fill="#511308"/><path d="M42.844 50.856c.006.099.01.197.013.295l-.007.003-.248-.055a.231.231 0 0 1 .117-.17c.043-.027.082-.05.125-.073Z" fill="#511308"/><path d="m42.605 51.099.249.056c-.082-.01-.167-.02-.252-.033 0-.01 0-.017.003-.023ZM42.584 50.853l-.003.24-.268-.06v-.186c-.004-.18.14-.269.281-.259h.007c.04.013.082.023.121.036.072.04.128.115.134.223v.01a2.37 2.37 0 0 0-.124.072.223.223 0 0 0-.118.17l-.023-.006c-.003-.082-.007-.16-.007-.24Z" fill="#511308"/><path d="M42.846 81.662v.027c0 .091-.02.173-.05.239l-.084.039a.33.33 0 0 0-.118-.14c.088-.056.17-.109.252-.165Z" fill="#556FA7"/><path d="M42.703 81.966c.03-.013.056-.026.085-.04a.455.455 0 0 1-.065.109.18.18 0 0 0-.02-.069ZM42.725 82.036a.36.36 0 0 1 .01.118c-.092.03-.187.059-.282.088a.12.12 0 0 1-.101-.007.586.586 0 0 0 .373-.2Z" fill="#556FA7"/><path d="m42.468 82.238.282-.088c-.01.154-.118.295-.321.285a43.85 43.85 0 0 1-5.222-.665c-4.183-.77-8.366-1.536-12.526-2.44-1.976-.43-3.95-.865-5.89-1.448-1.219-.37-2.49-.718-3.604-1.353.027-.095.05-.194.073-.288 5.62 2.057 20.5 4.54 26.524 5.732.117.203.36.292.586.262a.125.125 0 0 0 .098.003Z" fill="#6683C2"/><path d="M42.678 81.967a.27.27 0 0 1 .02.069.571.571 0 0 1-.374.2c-.056-.03-.082-.096-.072-.161.046.01.092.02.134.026.102-.046.197-.088.292-.134Z" fill="#556FA7"/><path d="M42.696 81.967c-.095.046-.193.089-.288.134l-.135-.029a.14.14 0 0 1 .063-.095 6.15 6.15 0 0 0 .242-.154.33.33 0 0 1 .118.144Z" fill="#556FA7"/><path d="M42.594 50.588a.324.324 0 0 1 .121.036 1.671 1.671 0 0 1-.121-.036ZM42.594 51.093l.024.006c-.004.007-.004.018-.004.025-.006 0-.013-.004-.02-.004v-.027Z" fill="#511308"/><path d="M42.587 51.63c.144 7.53-.128 15.864-.259 23.493l.236-23.49c.01-.004.016-.004.023-.004Z" fill="#556FA7"/><path d="M42.585 51.63c-.006.003-.016.003-.023.003l.007-.514c.003 0 .007 0 .01.003.003.167.006.337.006.508Z" fill="#511308"/><path d="M42.587 50.588c-.138-.01-.282.079-.282.259v.187L14.687 45.08c-.01-.049-.02-.098-.033-.15-.023-.102-.082-.164-.154-.19.007-.003.01-.003.013-.003.704-.023 1.386.157 2.08.298 1 .206 1.995.435 2.991.655 4.311.953 8.619 1.913 12.936 2.84 2.031.436 4.065.861 6.103 1.268.822.163 1.638.357 2.463.51.495.099 1.016.145 1.5.28Z" fill="#86A3E2"/><path d="M42.57 81.826a6.15 6.15 0 0 0-.242.154.13.13 0 0 0-.062.095l-.52-.115a.585.585 0 0 1-.066-.272v-.18c.19.062.38.124.566.187.082.026.164.056.243.085.03.01.059.026.082.046Z" fill="#6683C2"/><path d="M42.589 51.093v.027c-.004-.003-.007-.003-.01-.003l.003-.028.007.004ZM42.594 50.853c.003.078.003.16.006.239l-.006-.003v-.236Z" fill="#511308"/><path d="m42.581 51.093-.003.026c-.085-.013-.177-.023-.266-.036v-.046l.27.056Z" fill="#511308"/><path d="m42.578 51.115-.007.515c-.085.003-.173.003-.258.003v-.55c.088.01.176.023.265.032Z" fill="#511308"/><path d="m42.551 51.63-.236 23.49c-.04 2.257-.065 4.452-.065 6.545v.02l-.004.01a16.255 16.255 0 0 0-.566-.187c.02-9.962.6-19.917.612-29.876.085 0 .174 0 .259-.003Z" fill="#6683C2"/><path d="M42.408 82.101a1.604 1.604 0 0 0-.135-.026l.004-.003.13.03ZM42.316 75.123l-.066 6.545c0-2.093.026-4.288.066-6.545Z" fill="#511308"/><path d="M42.352 82.235c-.226.03-.468-.059-.586-.262l.51.102c-.006.062.02.13.076.16ZM42.307 51.083v.55c-.587-.016-1.193-.154-1.756-.236-.976-.137-1.949-.271-2.915-.451-4.364-.81-8.698-1.776-13.018-2.782-2.031-.475-4.056-.98-6.074-1.503-1.186-.308-2.61-.528-3.757-1.091-.03-.154-.059-.311-.092-.465 5.897 1.523 21.45 5.12 27.612 5.978Z" fill="#6683C2"/><path d="M42.313 51.034v.046c-6.158-.855-21.711-4.456-27.614-5.979 0-.006-.004-.013-.004-.02l27.618 5.953Z" fill="#86A3E2"/><path d="m42.263 82.075-.514-.102a.026.026 0 0 1-.007-.013l.521.115Z" fill="#511308"/><path d="M41.736 81.957c.004.007.007.01.007.013-6.028-1.192-20.906-3.675-26.524-5.733.006-.026.013-.049.016-.075l26.501 5.795ZM41.751 81.957 15.25 76.162c.016-.069.03-.134.043-.203 1.546.275 3.062.701 4.599 1.022 4.13.862 8.252 1.746 12.395 2.539 3.139.6 6.349 1.019 9.399 1.985v.18c.003.108.026.2.065.272Z" fill="#6683C2"/><path d="M42.3 51.633c-.013 9.961-.593 19.913-.613 29.875-3.05-.97-6.256-1.386-9.398-1.985-4.147-.793-8.265-1.677-12.396-2.539-1.536-.32-3.056-.747-4.599-1.022.298-1.474.285-2.99.305-4.51.033-2.202.006-4.403-.013-6.605-.04-4.645.006-9.342-.321-13.98-.125-1.753-.177-3.558-.492-5.298 1.147.567 2.575.783 3.758 1.091 2.018.528 4.042 1.032 6.073 1.504 4.324 1.005 8.655 1.972 13.018 2.78.97.181 1.943.312 2.916.453.57.079 1.172.22 1.762.236Z" fill="#6683C2"/><path d="M35.778 37.59c-.023.006-.049.016-.072.023a.48.48 0 0 1-.056-.033c-.137-.088-.15-.305-.022-.4.02-.006.036-.013.055-.02.262-.088.456.08.514.292a110.02 110.02 0 0 1-.429-.078l.433.085a.467.467 0 0 1-.053.38 3.127 3.127 0 0 1-.442-.23l.072-.02Z" fill="#86A3E2"/><path d="M36.187 37.452c.003.003.003.007.003.01l-.432-.085c.14.023.285.049.429.075Z" fill="#511308"/><path d="M36.153 37.842a.409.409 0 0 1-.236.16 276.012 276.012 0 0 0-10.977 3.27c-1.736.556-3.469 1.133-5.189 1.739-1.723.606-3.452 1.317-5.234 1.726-.007-.003-.013 0-.02 0a.323.323 0 0 0-.138-.01l21.349-7.114c.144.088.291.163.445.229Z" fill="#86A3E2"/><path d="m35.77 37.59-.071.022c-.004 0-.004-.003-.004-.003.026-.003.05-.013.076-.02Z" fill="#511308"/><path d="m35.712 37.612-21.349 7.119h-.003a.464.464 0 0 0-.072.023c-.007 0-.01.003-.013.003-.013.003-.023.003-.033.007 7.83-3.057 13.418-4.678 21.47-7.152Z" fill="#86A3E2"/><path d="M35.648 37.58c.02.013.036.023.056.033-8.049 2.473-13.64 4.095-21.47 7.148a.227.227 0 0 0-.082.032l-.081.033.065-.023a.088.088 0 0 0-.026.023l-.036.01c-.01.003-.017-.01-.007-.017 1.661-1.015 3.564-1.654 5.392-2.312 1.72-.616 3.446-1.209 5.186-1.779 3.656-1.199 7.34-2.306 10.984-3.544-.131.091-.118.308.02.396Z" fill="#86A3E2"/><path d="M15.58 64.844c.02 2.201.042 4.402.013 6.604-.02 1.523-.007 3.036-.305 4.51-.085-.016-.17-.03-.255-.042.023-7.246-.19-23.53-.642-30.553.12.072.249.14.38.206.31 1.74.366 3.544.491 5.297.324 4.635.282 9.333.318 13.978Z" fill="#6683C2"/><path d="M15.287 75.96a4.445 4.445 0 0 1-.043.202l-.213-.046v-.2c.089.014.17.03.256.043ZM15.031 76.117l.213.045c-.006.026-.013.05-.016.076l-.197-.076v-.046Z" fill="#6683C2"/><path d="M15.231 76.237c-.023.096-.046.19-.072.289a2.58 2.58 0 0 1-.128-.076c.003-.095.003-.19.003-.288.066.026.128.052.197.075ZM14.4 45.36c.448 7.023.664 23.307.641 30.553l-.013-.003-.645-30.563c.003.006.01.01.016.013Z" fill="#6683C2"/><path d="M15.037 75.916v.2l-.01-.003-.004-.2c.007 0 .01.003.014.003ZM15.037 76.116v.049c-.004 0-.007-.003-.01-.003l-.004-.046h.014Z" fill="#511308"/><path d="M15.037 76.165c0 .099 0 .194-.004.289l-.003-.004-.007-.288c.01 0 .01.003.014.003Z" fill="#511308"/><path d="m15.043 76.163.007.288a4.433 4.433 0 0 1-.167-.102c-.023-.088-.043-.18-.063-.272l.223.086ZM15.043 76.113l.003.046c-.075-.03-.15-.06-.222-.086-.004-.003-.004-.006-.004-.01l.223.05Z" fill="#6683C2"/><path d="m15.017 75.913.003.2-.223-.05a1.949 1.949 0 0 1-.04-.19c.01 0 .024.004.034.004.075.01.15.023.226.036Z" fill="#6683C2"/><path d="m14.38 45.35.646 30.563c-.075-.013-.15-.026-.226-.036-.01-.004-.023-.004-.033-.004-.324-1.71-.278-3.479-.327-5.228-.128-4.622-.158-9.244-.256-13.866-.05-2.208-.118-4.413-.147-6.617-.027-1.668-.086-3.368.042-5.032.017.023.04.046.069.066.075.055.154.105.233.154ZM14.867 76.345a2.896 2.896 0 0 1-.21-.137c-.167-.115-.072-.338.108-.338.01.066.023.128.04.19l-.056-.013c.02.007.036.017.056.023.02.095.039.187.062.275Z" fill="#6683C2"/><path d="M14.81 76.064c-.003.003-.003.006.003.01-.02-.007-.036-.017-.055-.023l.052.013Z" fill="#511308"/><path d="M14.686 45.1c.033.155.062.309.092.466a7.004 7.004 0 0 1-.38-.206c-.01-.118-.016-.23-.023-.341.101.026.206.056.311.082Z" fill="#6683C2"/><path d="M14.683 45.081c.003.007.003.013.003.02-.108-.03-.21-.056-.308-.082h-.003v-.006l.308.068Z" fill="#511308"/><path d="m14.368 45.016-.108-.023.108.03.007.33a2.898 2.898 0 0 1-.236-.154.439.439 0 0 1-.069-.065l.01-.125a.296.296 0 0 1 .102-.2c.101-.02.203-.042.304-.065.072.026.131.085.154.19.013.049.023.098.033.15l-.305-.068Z" fill="#6683C2"/><path d="M14.505 44.737c-.004.004-.01.004-.014.004-.003-.004-.003-.004-.007-.004h.02Z" fill="#511308"/><path d="M14.486 44.737a.01.01 0 0 0 .006.004c-.101.023-.203.045-.305.065a.27.27 0 0 1 .076-.049l.02-.007c.068-.003.137-.01.203-.013Z" fill="#6683C2"/><path d="M14.5 44.737a4.324 4.324 0 0 0-.203.013l.065-.023h.004a.308.308 0 0 1 .134.01Z" fill="#6683C2"/><path d="m14.406 45.36-.017-.01-.006-.331h.003c.003.111.01.226.02.34ZM14.374 45.016v.006l-.108-.03.108.024ZM14.361 44.731l-.065.023h-.007c.023-.01.046-.02.072-.023ZM14.286 44.753l-.02.007c.003-.003.007-.007.013-.007h.007ZM14.272 44.754c-.006.003-.01.003-.013.006l-.134.043c.007-.007.01-.01.016-.01.03-.01.056-.023.082-.033a.115.115 0 0 1 .033-.006h.016ZM14.143 44.803l.135-.042a.27.27 0 0 0-.076.049.65.65 0 0 1-.085.016.088.088 0 0 1 .026-.023Z" fill="#511308"/><path d="m14.254 44.76-.082.033a.227.227 0 0 1 .082-.032ZM14.112 44.825c.03-.006.06-.01.085-.016a.29.29 0 0 0-.101.2l-.01.124a.23.23 0 0 1 .026-.308Z" fill="#6683C2"/><path d="m14.152 44.793-.016.01-.066.023c.027-.01.053-.023.082-.033Z" fill="#511308"/><path d="M31.895 56.088c.472 1.324.397 2.902.42 4.291.026 1.642.03 3.276 0 4.914-.03 1.67-.063 3.341-.089 5.015-.01.76-.02 1.52-.02 2.28 0 .659.132 1.455-.114 2.07a.4.4 0 0 1-.423.263c.452-.115.587-.803.04-.914l-.053-.01.056-8.78v-.002c.046-3.25.092-6.496.062-9.114h.003a.332.332 0 0 0 .118-.013Z" fill="#5771A8"/><path d="M24.032 54.591a.353.353 0 0 0-.157-.05.09.09 0 0 1 .066-.061c.54-.16 1.153-.01 1.706.059.675.085 1.347.18 2.018.271 1.376.184 2.814.285 4.16.623.318.082.338.57.056.658-.016-.039-.03-.082-.046-.12-.03-.076-.124-.063-.147.006l-.04.117c-1.29-.085-2.584-.376-3.858-.592-.669-.115-1.337-.226-2.005-.341-.501-.085-1.091-.121-1.573-.328a.307.307 0 0 0-.03-.068.33.33 0 0 0-.15-.174Z" fill="#5771A8"/><path d="M31.848 55.966c.016.04.029.082.045.121a.386.386 0 0 1-.111.014h-.003v-.112.108l-.115-.006.04-.118c.019-.069.11-.082.143-.007ZM31.77 56.101c.003 0 .003 0 0 0 .033 2.618-.013 5.864-.06 9.114l.06-9.114Z" fill="#5771A8"/><path d="m31.776 56.101-.059 9.113v.004c-.045 3.111-.088 6.224-.065 8.779a4.64 4.64 0 0 0-.603-.063c-.036-.494.036-1.045.033-1.483v-2.297c.003-1.638.016-3.272.033-4.91.016-1.674.062-3.348.127-5.022.053-1.346-.01-2.837.416-4.128.043.004.08.004.118.007Z" fill="#5771A8"/><path d="m31.727 65.217-.056 8.78h-.01c-.02-2.556.023-5.668.066-8.78Z" fill="#5771A8"/><path d="M31.66 56.095c-.425 1.29-.363 2.781-.415 4.127a171.032 171.032 0 0 0-.128 5.022c-.017 1.638-.03 3.273-.033 4.91v2.297c0 .442-.069.99-.033 1.484-.465-.017-.94.006-1.398-.069-.233-.04-.489-.138-.74-.2.134-.612.045-1.284.042-1.906-.007-.593-.007-1.186-.007-1.779 0-1.219-.003-2.44-.01-3.66a104.936 104.936 0 0 0-.091-3.655c-.043-1.061-.007-2.263-.367-3.282l-.02-.066a.242.242 0 0 0-.026-.059 2.357 2.357 0 0 0-.095-.223c-.026-.055-.111-.078-.14-.013-.004.007-.008.01-.008.017a.553.553 0 0 0-.196-.043c-1.242-.055-2.45-.386-3.689-.347.145-.544.05-1.199.043-1.74-.003-.635.121-1.467-.115-2.076.482.206 1.075.242 1.573.327.668.115 1.336.226 2.005.341 1.26.213 2.558.508 3.849.593Z" fill="#fff"/><path d="M31.704 74.01c.547.111.413.799-.04.914a.6.6 0 0 1-.484-.331 1.831 1.831 0 0 1-.052-.141c.157.01.314.013.474.013l-.497-.102a2.497 2.497 0 0 1-.066-.429c.203.01.406.023.603.063.003.147.003.294.003.439l.003-.436c.02.003.04.006.056.01Z" fill="#5771A8"/><path d="m31.663 74-.003.435c-.004-.144-.004-.291-.004-.439 0 0 .004 0 .007.003ZM31.675 74.924l-.036.01c-.678.12-1.497-.148-2.142-.36-.328-.109-.8-.2-1.09-.436a.546.546 0 0 0 .36-.16 8.383 8.383 0 0 0 2.371.474c.017.05.033.095.053.14a.6.6 0 0 0 .485.332ZM31.117 74.364l.498.102c-.157 0-.318-.004-.475-.013-.006-.03-.016-.06-.023-.089Z" fill="#5771A8"/><path d="M31.107 74.364c.006.03.016.059.023.088a8.384 8.384 0 0 1-2.372-.475.366.366 0 0 0 .062-.078l2.287.465ZM31.107 74.364l-2.287-.469a.514.514 0 0 0 .06-.137c.006-.03.016-.06.019-.089.252.06.508.16.74.2.462.076.934.053 1.399.07.013.147.033.29.069.425ZM28.472 59.386c.36 1.02.324 2.225.367 3.283.052 1.218.085 2.434.092 3.656.006 1.218.006 2.44.01 3.659 0 .593 0 1.186.006 1.778.003.623.092 1.294-.043 1.907a1.258 1.258 0 0 0-.5-.033v-.111l-.066-6.267v-.026l-.004-.436c-.003-.147-.003-.291-.003-.439-.02-2.093-.04-4.183-.065-6.495a.385.385 0 0 0 .16-.18c.046-.122.072-.194.046-.296Z" fill="#5771A8"/><path d="M28.261 59.465c0-.128-.003-.259-.003-.39.065.04.121.095.16.17.004.004.004.01.007.014.016.042.033.082.049.128.023.105-.003.176-.05.294a.385.385 0 0 1-.16.18c-.003-.13-.003-.265-.003-.396ZM28.46 59.318c.006.023.012.046.019.066a1.03 1.03 0 0 0-.05-.128c.014.02.024.043.03.062Z" fill="#5771A8"/><path d="M28.24 59.076c-.023-.017-.05-.026-.076-.036 0-.007.003-.01.007-.017.03-.065.114-.042.14.013.033.07.063.138.089.21a.385.385 0 0 0-.16-.17Z" fill="#5771A8"/><path d="M28.25 59.076c0 .13.004.262.004.39l-.223-.04c.043-.13.089-.262.144-.386a.2.2 0 0 1 .076.036Z" fill="#5771A8"/><path d="m28.249 59.465.003.397a.421.421 0 0 1-.232.072c-.043 0-.082 0-.122-.003.03-.158.07-.315.115-.466h.236Z" fill="#5771A8"/><path d="M28.267 59.465h-.236c.004-.013.01-.026.013-.039l.223.04ZM28.261 59.862l.066 6.496c0 .147 0 .291.003.439l.003.435v.026c.017 1.999.036 4.02.066 6.267v.111a.761.761 0 0 0-.19.063c-.04.02-.053.078-.04.118a.685.685 0 0 0 .23.32.44.44 0 0 1-.466-.327c-.176-.635-.108-1.33-.114-1.985-.01-.636-.023-1.268-.033-1.903a679.178 679.178 0 0 1-.059-3.653 85.943 85.943 0 0 1 .03-3.79c.026-.819-.007-1.713.154-2.545.042.003.081.003.12.003a.487.487 0 0 0 .23-.075Z" fill="#5771A8"/><path d="m28.323 66.354-.065-6.496c.026 2.316.046 4.406.065 6.496ZM28.398 73.633c.16-.03.331-.007.502.032l-.02.089a.438.438 0 0 1-.06.138l-.556-.115c.164.069.328.134.495.193a.545.545 0 0 1-.36.16.664.664 0 0 1-.23-.32c-.013-.04 0-.099.04-.118a.98.98 0 0 1 .19-.06ZM27.989 58.997a.538.538 0 0 1 .197.042 3.238 3.238 0 0 0-.145.387l-3.783-.639c.016-.046.03-.091.042-.137 1.239-.04 2.447.291 3.689.347Z" fill="#5771A8"/><path d="m28.258 73.784.557.115a.366.366 0 0 1-.063.078 9.106 9.106 0 0 1-.494-.193ZM28.029 59.426c-.003.013-.01.026-.013.04-1.363-.014-2.424-.377-3.774-.67.003-.002.003-.006.003-.009l3.784.639ZM28.344 67.255l.065 6.267c-.03-2.244-.049-4.269-.065-6.267Z" fill="#5771A8"/><path d="M28.015 59.465c-.046.151-.085.308-.114.465-1.317-.032-2.588-.412-3.745-1.015a.141.141 0 0 0 .069-.075c.007-.013.01-.03.016-.043 1.35.295 2.411.655 3.774.668Z" fill="#5771A8"/><path d="M24.227 54.833c.235.61.11 1.442.114 2.077.003.544.098 1.2-.043 1.74-.075.003-.15.006-.225.013l-.092-1.782c-.023-.708-.043-1.419-.105-2.011l.105 2.01c.02.627.04 1.249.088 1.783-.091.01-.118.137-.036.18.046.023.092.05.138.072-.079.043-.194.02-.243-.059-.334-.52-.275-1.31-.308-1.91-.039-.671-.232-1.493-.075-2.149.046-.186.193-.268.34-.255a.12.12 0 0 0 .053.137c.092.06.187.112.289.154Z" fill="#5771A8"/><path d="M24.038 54.59c.065.04.12.096.154.174l.029.07a1.725 1.725 0 0 1-.288-.155.123.123 0 0 1-.053-.137.34.34 0 0 1 .158.049ZM24.07 58.663c.076-.007.151-.01.226-.013-.01.046-.026.091-.042.137l-.18-.03-.004-.094ZM24.25 58.787c0 .004 0 .007-.003.01l-.177-.04.18.03Z" fill="#5771A8"/><path d="m24.08 58.758.176.04a.163.163 0 0 1-.016.042.141.141 0 0 1-.069.075c-.046-.023-.092-.046-.137-.072-.082-.046-.056-.17.036-.18l.01.095ZM23.875 54.87c.062.59.082 1.303.105 2.011l-.105-2.011Z" fill="#5771A8"/><path d="m24.074 58.663.006.095-.01-.095h.004ZM23.984 56.881l.092 1.782h-.003a31.16 31.16 0 0 1-.089-1.782Z" fill="#5771A8"/><path d="M101.493 60.677c.013 2.673-.007 5.346-.03 8.02l-.062 8.094c-.01 1.326-.013 2.65-.02 3.977-.006 1.153.207 2.568-.101 3.688-.007-.226-.23-.432-.475-.462l.049-9.532c.056-6.808.141-13.595.111-20.795.095-.085.18-.177.252-.279l.01-.016c.328.96.151 2.283.184 3.214.049 1.366.075 2.725.082 4.091ZM101.273 84.452c.007.105-.036.217-.147.315-.714.629-1.743.947-2.601 1.343l-2.555 1.186c-1.756.815-3.515 1.628-5.271 2.444-1.811.838-3.61 1.703-5.438 2.506-.861.376-1.723.763-2.588 1.13-.756.32-1.52.527-2.296.763a.38.38 0 0 0-.01-.121.455.455 0 0 0 .066-.108v-.004c6.65-3.089 13.3-6.181 19.946-9.27.177.367.734.34.865-.072.01-.036.023-.072.029-.112Z" fill="#F2C45B"/><path d="m101.293 84.453-.03.108a.468.468 0 0 1-.865.072l.42-.194v-.068l.003-.38c.242.03.465.236.472.462Z" fill="#F2C45B"/><path d="M101.261 53.002a.379.379 0 0 1-.036.373l-.03-.085a.577.577 0 0 0 .066-.288Z" fill="#511308"/><path d="M101.27 53.002a.51.51 0 0 1-.065.288 2.108 2.108 0 0 0-.184-.377c-.026-.036-.078-.036-.101 0a1.72 1.72 0 0 0-.128.243l-.76.327a10.276 10.276 0 0 1-1.071-.17c.298-.154.616-.334.937-.465l.917.164-.884-.177c.291-.118.589-.19.884-.17.187.019.38.16.455.337Z" fill="#FFDD8F"/><path d="m101.226 53.372-.01.016a1.829 1.829 0 0 1-.252.279c0-.07 0-.141-.003-.207a.387.387 0 0 0 .236-.17c.01.026.023.056.029.082Z" fill="#511308"/><path d="M101.049 52.605a.469.469 0 0 1 .223.397.575.575 0 0 0-.459-.335c-.291-.02-.589.053-.884.17l-15.108-3.03-.01-.003c-4.206-.874-8.225-1.706-11.23-2.26-.065-.22-.264-.396-.54-.304l-.049.016a.245.245 0 0 1 .079-.033c.927-.2 1.893.033 2.82.177 1.124.177 2.24.393 3.358.596 2.513.462 5.015.986 7.521 1.497 2.595.528 5.189 1.071 7.783 1.609 1.13.236 2.267.455 3.388.73.982.246 2.211.282 3.108.773Z" fill="#FFDD8F"/><path d="m100.962 53.117-.003.34c-.01.003-.02.007-.03.007a3.608 3.608 0 0 1-.265.03 2.33 2.33 0 0 1 .121-.338v-.003c.036-.086.082-.168.128-.243.023-.036.075-.036.102 0 .075.118.134.243.183.377a.365.365 0 0 1-.236.17 6.446 6.446 0 0 0 0-.34ZM100.963 53.667c.029 7.197-.056 13.984-.111 20.795l.104-20.789c.004-.003.007-.003.007-.006Z" fill="#F2C45B"/><path d="M100.964 53.46c.003.07.003.141.003.207l-.006.006.003-.213Z" fill="#511308"/><path d="m100.968 53.46-.003.213a2.508 2.508 0 0 1-.387.279c.023-.157.053-.311.095-.456.089-.006.177-.013.265-.029.014-.003.023-.003.03-.007Z" fill="#F2C45B"/><path d="m100.956 53.673-.105 20.788c-.026 3.158-.049 6.323-.049 9.533a.524.524 0 0 0-.124.003 2.931 2.931 0 0 0-.433.102c-.196-1.104-.006-2.421-.003-3.495.003-1.327.016-2.65.026-3.977.02-2.64.049-5.284.075-7.928.027-2.728.053-5.457.089-8.19.016-1.365.056-2.728.101-4.09.027-.715-.078-1.648.037-2.464.137-.085.268-.177.386-.282Z" fill="#F2C45B"/><path d="m100.857 74.461-.049 9.533c-.003.003-.003.003-.003 0 .006-3.21.026-6.375.052-9.533Z" fill="#511308"/><path d="M100.802 84.374v.069l-.419.193c-.01-.023-.02-.046-.029-.072a4.337 4.337 0 0 1-.112-.469c.144-.042.288-.078.433-.101a.525.525 0 0 1 .124-.004c.003.128.003.256.003.384Z" fill="#F2C45B"/><path d="m99.931 52.838.885.177c-.298-.052-.603-.108-.918-.164.01-.003.02-.01.033-.013ZM100.779 53.156c-.236.111-.472.22-.714.33l-.049-.002.763-.328Z" fill="#511308"/><path d="M100.792 53.159c-.049.105-.088.22-.121.337-.193.013-.393.01-.593-.01.243-.11.478-.219.714-.327Z" fill="#F2C45B"/><path d="M100.673 53.492a4.085 4.085 0 0 0-.095.456c-.491.291-1.087.471-1.585.688-.79.344-1.58.681-2.372 1.015-1.782.75-3.574 1.478-5.365 2.205-3.417 1.386-6.83 2.814-10.29 4.091a.528.528 0 0 0-.013-.31l9.71-4.155.072-.03c3.223-1.322 6.443-2.646 9.342-3.97.203.02.403.024.596.01Z" fill="#F2C45B"/><path d="M100.573 53.952c-.112.815-.01 1.749-.036 2.463a214.137 214.137 0 0 0-.102 4.092c-.036 2.728-.062 5.46-.088 8.189-.026 2.644-.056 5.287-.076 7.927-.009 1.327-.023 2.65-.026 3.977-.003 1.078-.193 2.395.003 3.495-.678.204-1.333.61-1.959.901-.904.423-1.808.842-2.712 1.265-1.756.819-3.511 1.634-5.267 2.453-1.7.793-3.414 1.566-5.104 2.385-.894.432-1.788.878-2.68 1.317-.724.36-1.372.783-2.034 1.212-.003-10.45.446-20.883.04-31.333a.937.937 0 0 0 .101-.016c.17-.03.282-.17.324-.331 3.463-1.278 6.876-2.706 10.29-4.092a449.688 449.688 0 0 0 5.365-2.204c.793-.334 1.583-.672 2.372-1.016.498-.216 1.097-.393 1.589-.684Z" fill="#F2C45B"/><path d="M100.354 84.564c.007.026.017.049.03.072-6.647 3.089-13.297 6.181-19.947 9.27a.592.592 0 0 0 .053-.249v-.026c.665-.43 1.31-.852 2.034-1.212.891-.442 1.782-.885 2.68-1.317 1.69-.819 3.403-1.592 5.103-2.385 1.756-.819 3.512-1.634 5.268-2.453.904-.423 1.808-.842 2.712-1.265.63-.291 1.284-.697 1.959-.9.026.157.062.314.108.465ZM100.028 53.483a.252.252 0 0 0 .049.003c-2.9 1.327-6.12 2.65-9.343 3.97l9.294-3.973Z" fill="#F2C45B"/><path d="m100.017 53.483-9.293 3.974-.072.03c-3.358 1.378-6.719 2.76-9.716 4.14a.372.372 0 0 0-.194-.207c-.013-.006-.026-.013-.039-.016 3.129-1.75 6.496-3.092 9.798-4.465 1.838-.763 3.675-1.526 5.507-2.316.877-.38 1.755-.763 2.63-1.156.102-.046.203-.098.311-.15h.004c.35.068.71.133 1.064.166ZM84.82 49.808l15.108 3.03-.032.013c-4.216-.773-9.792-1.942-15.076-3.043Z" fill="#FFDD8F"/><path d="M99.89 52.851c-.32.131-.635.308-.937.465h-.003c-.383-.078-.76-.16-1.124-.213-1.185-.17-2.355-.396-3.527-.625a470.923 470.923 0 0 1-7.643-1.566c-2.545-.544-5.094-1.074-7.636-1.641-1.074-.24-2.152-.465-3.226-.711-.747-.17-1.556-.295-2.27-.606a.495.495 0 0 0 .055-.396l11.226 2.25.01.003c5.284 1.098 10.86 2.267 15.075 3.04Z" fill="#FFDD8F"/><path d="M98.951 53.313c-.105.052-.21.105-.311.15-.871.397-1.75.78-2.63 1.157-1.828.786-3.67 1.55-5.507 2.316-3.302 1.376-6.67 2.719-9.798 4.465a3.602 3.602 0 0 0-.357-.131.362.362 0 0 0-.111-.033s0-.003-.004 0c-.507-.141-1.055-.193-1.569-.288-.861-.164-1.71-.364-2.568-.538a420.564 420.564 0 0 1-6.362-1.32c-4.497-.963-8.988-1.965-13.483-2.958-1.038-.23-2.073-.472-3.115-.684-.724-.151-1.438-.338-2.175-.312 1.86-.425 3.666-1.17 5.464-1.798a197.324 197.324 0 0 1 5.408-1.811c3.79-1.216 7.6-2.356 11.443-3.41a.446.446 0 0 0 .245-.171c.714.311 1.523.436 2.27.606 1.075.246 2.153.472 3.227.71 2.539.57 5.087 1.102 7.636 1.642 2.545.54 5.09 1.068 7.642 1.566 1.173.23 2.346.455 3.528.626.367.055.744.137 1.127.216ZM90.67 57.486l-9.71 4.154c-.004-.007-.004-.01-.007-.013 2.998-1.38 6.358-2.762 9.716-4.14Z" fill="#FFDD8F"/><path d="m84.792 49.804-11.226-2.25c-.004-.004-.004-.007-.004-.01 3.008.554 7.027 1.386 11.23 2.26Z" fill="#511308"/><path d="M80.956 61.64c.036.098.04.206.013.311-.124.05-.252.095-.377.141-.02.007-.04.013-.059.013l-.01-.281.033-.014.4-.17Z" fill="#F2C45B"/><path d="M80.582 62.089c.125-.046.253-.092.377-.141-.043.16-.154.298-.324.33a.932.932 0 0 1-.102.017l-.01-.193a.12.12 0 0 0 .06-.013Z" fill="#F2C45B"/><path d="m80.942 61.64-.403.17c.131-.062.262-.12.396-.183.004.003.004.007.007.013Z" fill="#511308"/><path d="M80.934 61.627c-.134.062-.265.12-.396.183l-.033.013c-.003-.101-.006-.203-.013-.304.069-.04.138-.08.207-.118a.383.383 0 0 1 .236.226Z" fill="#FFDD8F"/><path d="M80.705 61.404c-.072.036-.14.076-.206.118v-.01a.272.272 0 0 0-.147-.239c.12.036.239.082.353.131Z" fill="#FFDD8F"/><path d="M80.53 62.295c.406 10.45-.043 20.88-.04 31.333-.085.056-.173.111-.262.17a.266.266 0 0 0-.085-.046 5.652 5.652 0 0 0-.252-.085l.003-.01v-.02l.069-6.823c.137-7.953.422-16.637.272-24.49.101-.006.2-.012.294-.029Z" fill="#FACD65"/><path d="m80.521 62.105.01.193a2.993 2.993 0 0 1-.295.027l-.01-.531c.007 0 .014.003.02.003-.016.154.102.328.275.308Z" fill="#FACD65"/><path d="M80.501 61.824c.007.095.01.186.01.281-.174.02-.291-.15-.275-.31.088.012.177.022.262.032l.003-.003Z" fill="#FACD65"/><path d="M80.502 61.519c.007.101.01.203.013.304l-.003.004-.262-.056a.242.242 0 0 1 .124-.177c.04-.026.082-.052.128-.075Z" fill="#FFDD8F"/><path d="m80.237 61.767.262.056c-.085-.01-.174-.02-.262-.033-.003-.006-.003-.013 0-.023Z" fill="#511308"/><path d="m80.212 61.515-.004.246-.278-.06v-.192c-.004-.194.15-.282.298-.269a1.105 1.105 0 0 1 .115.033c.081.039.144.12.147.239v.01c-.043.023-.085.049-.128.072a.248.248 0 0 0-.124.177l-.023-.007c0-.082 0-.167-.004-.249Z" fill="#FFDD8F"/><path d="M80.089 94.231c.098-.033.196-.062.291-.092-.01.16-.12.308-.334.295-1.847-.114-3.623-.36-5.444-.694-4.364-.803-8.724-1.602-13.057-2.542-2.06-.45-4.118-.901-6.14-1.51-1.27-.384-2.594-.75-3.757-1.412.027-.102.053-.2.076-.298 5.857 2.145 21.364 4.733 27.647 5.975.125.212.377.304.613.272.026.013.062.02.105.006Z" fill="#FACD65"/><path d="M80.234 61.24a.26.26 0 0 1 .112.033c-.036-.01-.072-.023-.112-.033ZM80.227 61.765l.024.007c-.004.007-.004.017-.004.024-.007 0-.013-.004-.02-.004v-.027Z" fill="#511308"/><path d="M80.24 62.321c.151 7.85-.134 16.537-.271 24.49l.245-24.486c.01 0 .017 0 .027-.004Z" fill="#FACD65"/><path d="M80.223 61.24c-.147-.013-.298.079-.298.269v.193l-28.791-6.204c-.01-.052-.02-.105-.033-.157-.026-.108-.088-.17-.163-.197.006 0 .01-.003.013-.003.737-.026 1.45.16 2.175.311 1.041.216 2.077.455 3.115.685 4.494.989 8.986 1.991 13.483 2.958 2.12.455 4.239.897 6.362 1.32.858.17 1.706.373 2.568.537.517.095 1.061.148 1.569.288Z" fill="#FFDD8F"/><path d="M80.245 62.322c-.01.003-.016.003-.026.003l.006-.537c.004 0 .007 0 .01.003l.01.53Z" fill="#511308"/><path d="M80.23 61.764v.028c-.004-.004-.008-.004-.011-.004l.003-.027.007.003Z" fill="#511308"/><path d="M80.219 61.516c.003.081.003.167.006.249l-.006-.004v-.245Z" fill="#511308"/><path d="m80.208 61.76-.003.027a7.155 7.155 0 0 0-.275-.036v-.05l.278.06Z" fill="#FFDD8F"/><path d="m80.208 61.787-.006.537c-.089.004-.18.004-.272.004v-.574c.095.01.19.023.278.033Z" fill="#FACD65"/><path d="m80.212 62.325-.246 24.487c-.039 2.352-.068 4.642-.068 6.823v.02l-.004.01a20.563 20.563 0 0 0-.59-.197c.02-10.387.623-20.762.64-31.143.088.003.18.003.268 0Z" fill="#FACD65"/><path d="m79.967 86.811-.069 6.823c0-2.181.03-4.471.07-6.823Z" fill="#511308"/><path d="M79.947 61.751v.573c-.612-.016-1.245-.16-1.831-.245-1.016-.145-2.031-.282-3.04-.469-4.55-.845-9.064-1.85-13.571-2.902a262.062 262.062 0 0 1-6.333-1.57c-1.235-.32-2.725-.546-3.92-1.136-.03-.164-.06-.328-.096-.488 6.156 1.592 22.37 5.346 28.791 6.237Z" fill="#FACD65"/><path d="M79.947 61.702v.05c-6.42-.892-22.636-4.646-28.788-6.234 0-.007-.003-.013-.003-.02l28.791 6.204ZM79.368 93.936c.003.006.003.01.006.013-6.283-1.245-21.787-3.833-27.647-5.975.006-.026.013-.053.016-.079l27.625 6.04Z" fill="#FACD65"/><path d="m79.36 93.936-27.626-6.04c.017-.073.03-.142.043-.214 1.612.288 3.194.734 4.796 1.068 4.304.898 8.602 1.818 12.923 2.647 3.272.625 6.617 1.061 9.794 2.073v.184a.606.606 0 0 0 .07.282Z" fill="#FACD65"/><path d="M79.946 62.325c-.013 10.38-.62 20.758-.639 31.143-3.177-1.013-6.522-1.448-9.794-2.074-4.321-.825-8.616-1.75-12.924-2.647-1.601-.334-3.183-.78-4.795-1.068.311-1.54.295-3.115.318-4.7.032-2.297.006-4.59-.014-6.883-.039-4.841.007-9.739-.334-14.57-.128-1.828-.183-3.709-.514-5.52 1.196.59 2.683.816 3.921 1.137a259.42 259.42 0 0 0 6.332 1.569c4.508 1.051 9.022 2.054 13.572 2.902 1.009.187 2.024.324 3.04.468.586.086 1.215.227 1.83.243Z" fill="#FACD65"/><path d="M73.139 47.688a.706.706 0 0 1-.079.023c-.016-.01-.036-.02-.052-.032-.148-.095-.158-.328-.02-.42l.003-.003c.017-.007.033-.01.05-.016.271-.092.474.081.54.304-.15-.03-.298-.055-.446-.082l.45.089a.483.483 0 0 1-.056.396 3.282 3.282 0 0 1-.466-.239l.076-.02Z" fill="#511308"/><path d="M73.586 47.547c.003.003.003.007.003.01l-.448-.089c.147.023.294.05.445.08ZM73.529 47.95a.434.434 0 0 1-.246.171 277.916 277.916 0 0 0-11.442 3.41c-1.812.58-3.613 1.18-5.409 1.812-1.798.632-3.603 1.372-5.464 1.798h-.022a.29.29 0 0 0-.141-.006l22.255-7.42c.151.092.308.17.469.236ZM73.125 47.688l-.075.026c-.003 0-.003-.003-.003-.003.026-.006.052-.013.078-.023Z" fill="#511308"/><path d="m73.064 47.715-22.255 7.42-.01.002a.496.496 0 0 0-.056.017h-.003c-.007 0-.013.003-.017.003-.013.003-.026.003-.035.007 8.16-3.184 13.984-4.875 22.373-7.453l.003.004Z" fill="#511308"/><path d="m73.007 47.681.053.033c-8.39 2.578-14.214 4.269-22.374 7.453a.221.221 0 0 0-.085.032c-.03.01-.056.023-.085.033l.069-.023c-.01.007-.017.013-.026.023l-.04.01c-.01.003-.016-.01-.006-.016 1.733-1.058 3.711-1.723 5.62-2.408a206.209 206.209 0 0 1 5.406-1.857c3.813-1.255 7.656-2.405 11.455-3.699-.144.092-.134.325.013.42Z" fill="#511308"/><path d="M52.098 76.099c.02 2.293.046 4.59.013 6.882-.02 1.586-.007 3.165-.318 4.701-.088-.016-.177-.033-.265-.046.026-7.55-.2-24.529-.669-31.847.128.079.26.15.393.216.328 1.812.384 3.692.515 5.52.337 4.832.291 9.729.33 14.574ZM51.789 87.683c-.013.071-.03.14-.043.212l-.223-.049v-.206c.089.013.177.03.266.043Z" fill="#FACD65"/><path d="m51.523 87.846.223.05a.666.666 0 0 0-.016.078 6.634 6.634 0 0 1-.203-.079c-.004-.016-.004-.033-.004-.05Z" fill="#FACD65"/><path d="M51.73 87.974c-.023.101-.05.2-.075.298-.043-.026-.089-.05-.132-.075.004-.099.004-.2.004-.302.065.03.13.053.203.079ZM51.647 88.276c-.003.006-.003.013-.006.02-.033.124-.223.127-.256 0a18.734 18.734 0 0 1-.05-.204c.06.036.119.072.175.108l.003.063v-.06c.046.024.092.046.134.073ZM50.837 55.79c.468 7.32.69 24.296.668 31.846l-.013-.003-.672-31.857c.004.007.01.01.017.013ZM51.529 87.637v.206l-.01-.003-.003-.207c.003.004.01.004.013.004Z" fill="#FACD65"/><path d="M51.529 87.846v.052c-.004 0-.007-.003-.01-.003l-.003-.05h.013Z" fill="#511308"/><path d="M51.529 87.898c0 .102 0 .204-.004.302l-.003-.004-.006-.304c.006.003.01.006.013.006Z" fill="#511308"/><path d="m51.51 87.895.007.305c-.059-.036-.118-.072-.174-.108a2.965 2.965 0 0 1-.062-.285c.072.026.15.056.23.088ZM51.514 87.842l.003.05a18.14 18.14 0 0 1-.233-.089c-.003-.003-.003-.007-.003-.01l.233.05Z" fill="#FACD65"/><path d="m51.51 87.636.004.207-.233-.053a1.952 1.952 0 0 1-.039-.2c.01 0 .02.004.033.004.079.016.16.03.236.042Z" fill="#FACD65"/><path d="m50.827 55.78.672 31.856-.236-.04c-.013-.002-.023-.002-.033-.002-.337-1.78-.291-3.627-.34-5.448-.135-4.816-.164-9.638-.269-14.456-.05-2.3-.121-4.6-.154-6.896-.026-1.736-.088-3.508.046-5.244.016.026.043.049.072.069.079.055.16.108.242.16ZM51.325 88.089a5.032 5.032 0 0 1-.219-.144c-.174-.121-.075-.35.111-.35.01.065.027.133.04.2l-.056-.014c.02.006.04.016.059.023.02.095.043.193.066.285Z" fill="#FACD65"/><path d="M51.267 87.794c-.004.003-.004.006.003.01-.02-.007-.04-.017-.06-.023l.057.013Z" fill="#511308"/><path d="M51.141 55.517c.036.16.066.325.095.488a5.727 5.727 0 0 1-.393-.216c-.01-.121-.016-.239-.023-.354.102.026.21.056.321.082Z" fill="#FACD65"/><path d="M51.141 55.498c.004.006.004.013.004.02-.112-.03-.217-.056-.321-.083h-.004v-.006l.321.069Z" fill="#511308"/><path d="m50.827 55.43-.112-.027.112.03.006.344c-.081-.053-.167-.105-.245-.164a.289.289 0 0 1-.072-.069l.01-.128a.312.312 0 0 1 .108-.21c.104-.019.206-.042.31-.065.076.026.142.089.164.197.014.052.024.105.033.157l-.314-.066Z" fill="#FACD65"/><path d="M50.958 55.14c-.003.004-.007.004-.014.004-.003-.003-.003-.003-.007-.003h.021Z" fill="#511308"/><path d="M50.945 55.14a.01.01 0 0 0 .007.004c-.102.026-.206.05-.311.066a.244.244 0 0 1 .088-.053l.01-.003c.069-.007.138-.01.206-.013Z" fill="#511308"/><path d="M50.945 55.14a4.193 4.193 0 0 0-.203.014l.056-.017.01-.003a.28.28 0 0 1 .137.007ZM50.843 55.79c-.006-.004-.01-.008-.016-.01l-.007-.345h.004c.003.115.01.233.02.354ZM50.846 55.43v.006l-.112-.03.112.023ZM50.79 55.137l-.056.017c.02-.007.036-.017.056-.017Z" fill="#511308"/><path d="m50.743 55.153-.009.003c.003-.003.003-.003.006-.003h.003ZM50.759 55.154c-.004 0-.004 0-.007.004l-.15.049c.006-.007.01-.01.016-.01.03-.01.059-.023.085-.033a.117.117 0 0 1 .036-.006c.007 0 .013-.004.02-.004Z" fill="#511308"/><path d="m50.573 55.206.15-.049a.245.245 0 0 0-.088.053l-.088.02a.088.088 0 0 1 .026-.024Z" fill="#511308"/><path d="M50.686 55.164c-.03.01-.055.023-.084.032a.218.218 0 0 1 .084-.032ZM50.57 55.23l.09-.02a.299.299 0 0 0-.109.21l-.01.127a.233.233 0 0 1 .03-.318Z" fill="#FACD65"/><path d="m50.592 55.197-.016.01-.068.022c.026-.01.055-.023.084-.032Z" fill="#511308"/><path d="M73.478 85.488c.013.442.292 2.11-.55 2.11-.256 0-.406-.154-.495-.38-.504.072-.986-.072-1.49-.164a116.26 116.26 0 0 0-5.231-.826 195.134 195.134 0 0 0-3.66-.468c-.973-.115-2.073-.095-2.968-.537-.026-.01-.052-.02-.075-.036-.01-.007-.02-.01-.03-.017a.231.231 0 0 1-.114-.144c-.593-.783-.495-1.932-.465-2.87.023-.815.01-2.394.714-2.94a.259.259 0 0 1 .223-.053c.897-.623 2.017-1.026 2.958-1.58.989-.58 1.972-1.228 2.689-2.135.691-.875 1.114-2.09.78-3.197-.167-.554-.531-1.13-1.186-.957-.593.157-.885.878-1.13 1.376-.082.167-.318.157-.426.03a.741.741 0 0 1-.053.065c-.091.115-.301.164-.435.115a76.703 76.703 0 0 1-4.026-1.553.354.354 0 0 1-.157-.527c-.014-2.221 1.398-4.803 3.564-5.523 2.01-.669 4.451.111 6.26 1.038 1.883.966 3.433 2.542 3.934 4.645.897 3.777-.744 8.186-3.875 10.509.707.016 1.415.065 2.139.144.629.069 1.26.14 1.89.213.468.056.793.033 1.064.455a.294.294 0 0 1 0 .298c.22.918.125 2.002.151 2.91Zm-1.097 0c.026-.819-.05-1.775.095-2.627-.105-.013-.22-.036-.344-.052a136.16 136.16 0 0 0-2.028-.282 32.245 32.245 0 0 1-2.725-.492c-.367.204-.688.06-.849-.203-.118-.036-.144-.16-.098-.252a.714.714 0 0 1 .282-.704c1.821-1.38 3.226-3.171 3.918-5.37.68-2.164.743-4.857-.777-6.692-1.415-1.713-4.049-2.784-6.24-2.856-2.86-.095-4.007 2.463-4.73 4.812 1.307.38 2.6.8 3.881 1.248a.67.67 0 0 1 .151.082c.046-1.163 1.173-2.146 2.401-1.828 1.422.367 1.802 2.234 1.622 3.476-.243 1.644-1.32 2.928-2.605 3.904-.69.528-1.438.977-2.194 1.403-.76.425-1.645 1.015-2.503 1.182h-.01l-.02.324c-.02.534-.039 1.065-.045 1.599-.004.783.186 1.638.03 2.411.926-.15 1.958.05 2.859.128a81.95 81.95 0 0 1 3.469.373c1.163.154 2.322.321 3.482.505.53.085 1.061.173 1.589.265.435.075.917.108 1.34.269.016-.256.046-.492.049-.623Z" fill="#EDBD51"/><path d="M72.502 82.86c-.144.852-.069 1.809-.095 2.627-.003.132-.033.367-.046.63-.42-.161-.904-.194-1.34-.27-.53-.09-1.058-.18-1.588-.264-1.16-.187-2.32-.354-3.483-.505a81.78 81.78 0 0 0-3.469-.373c-.904-.079-1.932-.279-2.86-.128.158-.776-.032-1.632-.029-2.411.003-.534.023-1.065.046-1.599l.02-.324h.01c.858-.167 1.745-.757 2.502-1.183.757-.425 1.504-.874 2.195-1.402 1.287-.98 2.362-2.26 2.604-3.904.184-1.242-.2-3.11-1.621-3.476-1.229-.318-2.356.665-2.401 1.828a.52.52 0 0 0-.151-.082 76.379 76.379 0 0 0-3.882-1.248c.724-2.349 1.87-4.904 4.73-4.812 2.192.072 4.825 1.143 6.24 2.856 1.52 1.838 1.458 4.527.777 6.693-.691 2.198-2.097 3.99-3.918 5.369a.705.705 0 0 0-.281.704c-.046.088-.023.213.098.252.16.262.481.407.848.203.901.204 1.792.367 2.726.492.674.088 1.35.183 2.027.281.118.01.233.03.341.046Z" fill="#fff"/><path d="M86.779 25.078c.013 2.585-.007 5.17-.026 7.754-.02 2.608-.043 5.215-.06 7.823-.01 1.284-.012 2.565-.019 3.846-.007 1.113.2 2.48-.098 3.564-.007-.22-.223-.42-.459-.446l.046-9.215c.056-6.584.134-13.149.108-20.11.092-.078.174-.17.246-.268l.01-.017c.314.927.147 2.208.18 3.106.042 1.326.069 2.643.072 3.963ZM86.582 48.068a.365.365 0 0 1-.144.305c-.691.606-1.687.914-2.513 1.297-.825.383-1.647.763-2.47 1.146-1.7.787-3.397 1.576-5.097 2.366-1.749.812-3.492 1.647-5.257 2.42-.832.364-1.664.738-2.503 1.095-.734.31-1.47.507-2.221.737a.36.36 0 0 0-.01-.118.455.455 0 0 0 .066-.108c6.427-2.991 12.86-5.975 19.287-8.966.17.354.711.33.836-.07.006-.032.02-.068.026-.104Z" fill="#5AAC93"/><path d="M86.568 48.068c-.007.035-.02.072-.03.108a.452.452 0 0 1-.835.068l.403-.186v-.066l.003-.367c.236.023.452.226.459.443ZM86.566 17.659c.049.111.045.24-.037.357l-.029-.082a.47.47 0 0 0 .066-.275Z" fill="#5AAC93"/><path d="m86.094 17.662-.822-.164c.281-.111.57-.183.851-.16.19.016.374.15.446.324a.47.47 0 0 1-.066.275 1.844 1.844 0 0 0-.177-.36.058.058 0 0 0-.098 0 2.005 2.005 0 0 0-.124.236l-.737.314a9.5 9.5 0 0 1-1.039-.164c.292-.147.6-.32.91-.448.29.046.577.098.856.147Z" fill="#97E6CE"/><path d="m86.501 18.017-.01.016a1.73 1.73 0 0 1-.245.268c0-.065 0-.134-.004-.2a.36.36 0 0 0 .226-.166.253.253 0 0 1 .033.082Z" fill="#5AAC93"/><path d="M86.337 17.275c.137.076.21.23.216.384a.547.547 0 0 0-.446-.325c-.282-.023-.57.05-.852.16l-14.62-2.928c-.026-.006-.052-.01-.075-.016-4.039-.842-7.894-1.641-10.784-2.169-.062-.213-.255-.383-.52-.291a.316.316 0 0 1-.053.016.212.212 0 0 1 .079-.033c.897-.19 1.83.033 2.725.174 1.085.17 2.166.38 3.25.576 2.43.446 4.851.95 7.269 1.445 2.509.514 5.018 1.035 7.528 1.553 1.094.226 2.191.439 3.275.708.954.235 2.14.268 3.008.746Z" fill="#97E6CE"/><path d="m86.268 17.77-.003.33c-.01.004-.02.008-.03.008-.085.013-.17.022-.258.026.029-.115.068-.223.114-.325v-.003c.036-.082.079-.16.125-.236.023-.036.072-.036.098 0 .072.112.131.233.177.36a.352.352 0 0 1-.226.168c.003-.108.003-.217.003-.328ZM86.28 18.3c.026 6.962-.052 13.526-.108 20.11l.101-20.103.007-.006Z" fill="#5AAC93"/><path d="M86.246 18.101c.003.066.003.134.003.2-.003.003-.003.006-.007.006l.004-.203v-.003Z" fill="#511308"/><path d="m86.244 18.1-.003.204c-.112.102-.24.19-.374.269.023-.151.053-.299.092-.44.088-.006.173-.012.259-.026.01-.003.02-.003.026-.006Z" fill="#5AAC93"/><path d="m86.258 18.304-.101 20.104a1222.01 1222.01 0 0 0-.05 9.215.286.286 0 0 0-.117.003c-.141.023-.279.055-.42.098-.19-1.068-.006-2.339-.003-3.38.003-1.281.017-2.562.026-3.846.02-2.555.05-5.11.072-7.666.027-2.64.053-5.28.086-7.917.016-1.32.052-2.637.098-3.96.023-.692-.076-1.596.033-2.382.134-.079.262-.167.376-.269Z" fill="#5AAC93"/><path d="m86.159 38.408-.046 9.215h-.004c.004-3.103.023-6.159.05-9.215ZM86.1 47.993v.065l-.403.187c-.01-.023-.02-.046-.026-.069a4.126 4.126 0 0 1-.109-.452c.141-.042.279-.075.42-.098a.47.47 0 0 1 .118-.003v.37ZM86.096 17.807c-.229.108-.455.213-.69.317-.017 0-.03-.003-.047-.003l.737-.314Z" fill="#5AAC93"/><path d="m85.26 17.495.822.164-.855-.154a.055.055 0 0 0 .032-.01Z" fill="#511308"/><path d="M86.094 17.81a2.113 2.113 0 0 0-.114.324c-.187.013-.38.01-.574-.01.233-.105.462-.21.688-.315Z" fill="#5AAC93"/><path d="M85.962 18.134c-.04.14-.069.288-.091.439-.475.281-1.055.455-1.533.665-.764.33-1.527.658-2.294.982a421.015 421.015 0 0 1-5.188 2.13c-3.306 1.34-6.604 2.722-9.952 3.957a.522.522 0 0 0-.013-.302l9.395-4.012.068-.03c3.119-1.28 6.23-2.558 9.035-3.84.193.02.386.024.573.01Z" fill="#5AAC93"/><path d="M85.88 18.573c-.108.786-.01 1.693-.033 2.381-.046 1.32-.079 2.637-.098 3.96-.033 2.638-.06 5.278-.085 7.918-.027 2.555-.053 5.11-.073 7.666-.01 1.28-.022 2.561-.026 3.845-.003 1.042-.186 2.313.004 3.381-.656.197-1.291.59-1.897.871l-2.624 1.222-5.09 2.372c-1.645.766-3.302 1.513-4.937 2.303-.865.419-1.73.848-2.591 1.277-.701.348-1.327.757-1.969 1.17-.003-10.11.432-20.192.04-30.295.032-.003.065-.01.097-.016.164-.03.276-.164.315-.321 3.348-1.235 6.647-2.617 9.952-3.957a421.03 421.03 0 0 0 5.189-2.13c.766-.324 1.53-.648 2.293-.982.481-.207 1.061-.38 1.533-.665Z" fill="#5AAC93"/><path d="M85.725 48.245c-6.427 2.99-12.86 5.975-19.287 8.965.029-.068.049-.15.049-.242v-.026c.642-.413 1.267-.826 1.968-1.17.862-.429 1.724-.858 2.591-1.277 1.635-.79 3.293-1.536 4.937-2.303l5.09-2.372c.875-.406 1.75-.815 2.625-1.222.606-.281 1.238-.674 1.896-.87.027.156.063.307.108.451.004.02.014.043.023.066ZM85.348 18.12c.017.004.03.004.046.004-2.804 1.28-5.916 2.558-9.035 3.84l8.99-3.843Z" fill="#5AAC93"/><path d="m85.363 18.12-8.989 3.843-.069.03c-3.25 1.333-6.496 2.67-9.395 4.003a.34.34 0 0 0-.186-.2c-.014-.007-.027-.01-.037-.017 3.024-1.69 6.28-2.99 9.474-4.317 1.779-.74 3.554-1.48 5.323-2.24.852-.368 1.7-.738 2.542-1.118.099-.046.197-.091.298-.147.344.069.692.134 1.039.164ZM70.625 14.567l14.62 2.928c-.013.004-.023.01-.033.014-4.078-.744-9.474-1.877-14.587-2.942Z" fill="#97E6CE"/><path d="M85.225 17.509c-.31.124-.619.3-.91.448-.37-.072-.734-.154-1.085-.203-1.143-.16-2.276-.383-3.41-.606-2.47-.481-4.93-.99-7.39-1.513-2.463-.524-4.927-1.035-7.384-1.586-1.038-.232-2.083-.452-3.121-.688-.721-.163-1.507-.285-2.198-.583a.465.465 0 0 0 .052-.383l10.78 2.162c.027.007.053.01.076.016 5.113 1.059 10.509 2.192 14.59 2.936Z" fill="#97E6CE"/><path d="M84.301 17.956c-.101.056-.2.102-.298.148-.845.38-1.694.75-2.542 1.117-1.769.763-3.548 1.5-5.323 2.24-3.194 1.33-6.45 2.628-9.474 4.318a2.4 2.4 0 0 0-.334-.121.308.308 0 0 0-.121-.036h-.007c-.49-.138-1.015-.187-1.513-.279-.832-.157-1.654-.35-2.483-.517a393.57 393.57 0 0 1-6.152-1.278c-4.35-.933-8.69-1.903-13.038-2.86-1.002-.222-2.004-.452-3.013-.661-.698-.144-1.386-.325-2.097-.302 1.795-.412 3.538-1.13 5.278-1.742a208.63 208.63 0 0 1 5.231-1.753 276.566 276.566 0 0 1 11.062-3.295.409.409 0 0 0 .236-.16c.691.3 1.477.418 2.198.582 1.039.236 2.08.452 3.122.688 2.457.55 4.92 1.065 7.384 1.586 2.46.524 4.92 1.032 7.39 1.513 1.133.223 2.267.442 3.41.606.35.052.714.134 1.084.206Z" fill="#97E6CE"/><path d="m76.281 21.993-9.392 4.016c0-.006-.003-.01-.006-.013 2.902-1.333 6.148-2.667 9.398-4.003Z" fill="#5AAC93"/><path d="m70.557 14.55-10.78-2.163c0-.003-.004-.006-.004-.01 2.89.531 6.745 1.33 10.784 2.172Z" fill="#97E6CE"/><path d="M66.893 26.01c.032.094.036.2.013.3-.122.047-.243.092-.364.135a.353.353 0 0 1-.056.013l-.01-.269.417-.18ZM66.559 26.445c.121-.046.242-.089.364-.135-.04.154-.148.292-.315.321a1.018 1.018 0 0 1-.098.017 116.67 116.67 0 0 0-.01-.187c.02-.007.036-.01.059-.016Z" fill="#5AAC93"/><path d="m66.896 26.008-.42.18c.138-.062.276-.127.413-.19.007 0 .007.007.007.01Z" fill="#5AAC93"/><path d="M66.895 25.996c-.141.062-.279.127-.413.19a9.71 9.71 0 0 0-.013-.299c.065-.039.134-.075.2-.11.013.006.026.009.036.015a.37.37 0 0 1 .19.204Z" fill="#97E6CE"/><path d="M66.678 25.78c-.069.032-.134.072-.2.11v-.009a.259.259 0 0 0-.134-.226c.114.036.226.079.334.124Z" fill="#97E6CE"/><path d="M66.514 26.644c.393 10.106-.039 20.189-.039 30.295-.082.055-.167.108-.252.163a.327.327 0 0 0-.082-.042 5.35 5.35 0 0 0-.243-.085l.004-.01v-.02l.065-6.597c.135-7.688.406-16.09.262-23.68.095 0 .194-.01.285-.024Z" fill="#7FCBB4"/><path d="m66.52 26.457.01.187a2.8 2.8 0 0 1-.286.026l-.01-.514c.007 0 .014.003.02.003-.016.151.098.321.265.298Z" fill="#7FCBB4"/><path d="M66.494 26.189c.007.091.01.18.01.268-.167.023-.282-.147-.269-.301.089.013.174.023.256.033h.003Z" fill="#7FCBB4"/><path d="M66.477 25.89c.006.099.01.197.013.299l-.003.003-.253-.056a.246.246 0 0 1 .118-.173c.04-.027.082-.05.125-.072Z" fill="#97E6CE"/><path d="m66.238 26.136.252.056c-.082-.01-.167-.02-.256-.033.004-.01.004-.016.004-.023Z" fill="#7FCBB4"/><path d="m66.194 25.888-.004.239-.268-.059v-.187c-.003-.183.144-.268.282-.262h.006c.04.013.082.023.121.036.072.04.131.115.135.226v.01l-.125.069a.228.228 0 0 0-.118.174l-.023-.007c-.003-.079-.003-.157-.006-.24Z" fill="#97E6CE"/><path d="M66.487 56.942v.026c0 .092-.02.173-.05.242l-.085.04a.36.36 0 0 0-.118-.145l.253-.163Z" fill="#5AAC93"/><path d="M66.336 57.25c.03-.013.056-.026.085-.04a.455.455 0 0 1-.065.109.238.238 0 0 0-.02-.069Z" fill="#511308"/><path d="M66.366 57.315c.01.04.013.079.01.118l-.282.089a.12.12 0 0 1-.102-.007.558.558 0 0 0 .374-.2Z" fill="#7FCBB4"/><path d="m66.083 57.522.282-.089c-.01.157-.118.298-.321.285-1.786-.111-3.502-.347-5.265-.671-4.219-.777-8.435-1.55-12.625-2.46-1.991-.433-3.983-.872-5.935-1.461-1.229-.37-2.51-.724-3.633-1.363.026-.098.05-.193.072-.288 5.664 2.073 20.66 4.576 26.737 5.778.118.206.364.292.59.265a.125.125 0 0 0 .098.004Z" fill="#7FCBB4"/><path d="M66.326 57.25c.01.023.017.046.02.069a.558.558 0 0 1-.374.2c-.055-.03-.081-.099-.072-.161.046.01.092.02.138.026.095-.046.19-.088.288-.134Z" fill="#7FCBB4"/><path d="M66.324 57.25c-.098.045-.193.091-.291.137l-.135-.03a.14.14 0 0 1 .063-.094l.245-.157a.359.359 0 0 1 .118.144Z" fill="#7FCBB4"/><path d="M66.234 25.623a.321.321 0 0 1 .122.036c-.04-.014-.079-.023-.122-.036Z" fill="#97E6CE"/><path d="m66.234 26.13.025.007c-.004.007-.004.017-.004.024-.007 0-.014-.003-.02-.003v-.028Z" fill="#511308"/><path d="M66.215 26.67c.144 7.59-.13 15.99-.262 23.68l.24-23.677c.006-.003.016-.003.022-.003Z" fill="#7FCBB4"/><path d="M66.226 26.67c-.007.004-.016.004-.023.004l.007-.518c.003 0 .006 0 .01.004 0 .167.003.337.006.51Z" fill="#7FCBB4"/><path d="M66.212 25.622c-.14-.01-.285.079-.281.262v.187L38.09 20.07l-.03-.151c-.023-.105-.082-.164-.154-.19.007-.003.01-.003.017-.003.707-.023 1.398.157 2.096.301 1.006.206 2.008.439 3.014.662 4.347.96 8.687 1.926 13.038 2.86 2.047.438 4.098.867 6.151 1.277.83.164 1.651.36 2.483.518.492.091 1.016.14 1.507.278Z" fill="#97E6CE"/><path d="m66.218 57.103-.246.157a.13.13 0 0 0-.062.095l-.524-.115a.584.584 0 0 1-.066-.272v-.18c.19.062.384.125.57.19.082.026.164.056.243.085.032.01.062.023.085.04Z" fill="#7FCBB4"/><path d="M66.221 26.13v.027c-.003-.003-.007-.003-.01-.003l.003-.028.007.004Z" fill="#511308"/><path d="M66.21 25.887c.004.079.004.16.008.243l-.007-.004v-.239Z" fill="#7FCBB4"/><path d="m66.194 26.13-.004.027c-.088-.014-.176-.023-.268-.037v-.049l.272.06Z" fill="#97E6CE"/><path d="m66.19 26.152-.006.518c-.088.003-.174.003-.262.003v-.556c.092.013.183.026.269.035Z" fill="#7FCBB4"/><path d="m66.198 26.67-.239 23.677c-.04 2.277-.065 4.488-.065 6.598v.02l-.004.01c-.19-.066-.38-.128-.57-.19.02-10.04.603-20.075.616-30.115.089.007.177.007.262 0Z" fill="#7FCBB4"/><path d="M66.036 57.385a1.948 1.948 0 0 0-.138-.027l.004-.003.134.03ZM65.964 50.351 65.9 56.95c-.004-2.11.026-4.324.065-6.598Z" fill="#511308"/><path d="M65.988 57.519c-.226.03-.472-.06-.59-.266.18.036.354.07.518.105a.15.15 0 0 0 .072.16ZM65.94 26.117v.557c-.594-.017-1.203-.157-1.773-.236-.983-.14-1.962-.272-2.938-.455-4.4-.82-8.766-1.789-13.123-2.804a260.826 260.826 0 0 1-6.123-1.514c-1.195-.314-2.633-.53-3.79-1.1-.026-.158-.059-.315-.091-.472 5.948 1.533 21.63 5.162 27.837 6.024Z" fill="#7FCBB4"/><path d="M65.938 26.071v.05c-6.208-.862-21.889-4.492-27.838-6.031 0-.007-.003-.014-.006-.02l27.844 6.001Z" fill="#97E6CE"/><path d="m65.891 57.355-.517-.102a.025.025 0 0 1-.007-.013l.524.115Z" fill="#7FCBB4"/><path d="m65.379 57.24.006.012c-6.073-1.202-21.07-3.704-26.737-5.778a.784.784 0 0 0 .017-.075l26.714 5.84Z" fill="#7FCBB4"/><path d="M65.383 57.24 38.672 51.4c.016-.07.03-.138.043-.204 1.559.279 3.088.708 4.638 1.032 4.163.868 8.317 1.759 12.494 2.558 3.164.606 6.4 1.026 9.473 2.002v.18a.514.514 0 0 0 .063.272Z" fill="#7FCBB4"/><path d="M65.946 26.674c-.017 10.04-.6 20.07-.616 30.114-3.073-.976-6.306-1.399-9.474-2.002-4.18-.802-8.33-1.69-12.494-2.558-1.549-.324-3.079-.754-4.638-1.032.301-1.487.285-3.014.308-4.547.033-2.217.007-4.438-.013-6.656-.04-4.684.006-9.418-.321-14.093-.125-1.765-.18-3.586-.495-5.336 1.156.57 2.594.786 3.79 1.1 2.035.532 4.072 1.04 6.123 1.514 4.356 1.016 8.723 1.989 13.122 2.804.977.184 1.956.315 2.939.456.57.078 1.18.22 1.769.236Z" fill="#7FCBB4"/><path d="M59.359 12.519c-.023.006-.05.016-.072.023a.488.488 0 0 1-.056-.033c-.14-.088-.154-.311-.023-.403l.053-.016c.265-.092.458.079.52.291l-.432-.078.432.088a.463.463 0 0 1-.052.383 3.557 3.557 0 0 1-.446-.229l.076-.026Z" fill="#97E6CE"/><path d="M59.78 12.381c0 .003.004.007.004.01l-.432-.088.429.078Z" fill="#511308"/><path d="M59.738 12.774a.418.418 0 0 1-.236.16 282.173 282.173 0 0 0-11.063 3.296 208.214 208.214 0 0 0-5.231 1.753c-1.74.612-3.479 1.326-5.277 1.742-.007-.003-.017 0-.023 0a.305.305 0 0 0-.135-.01l21.52-7.173c.14.088.29.167.445.232Z" fill="#97E6CE"/><path d="m59.353 12.519-.069.022c-.003 0-.003-.003-.003-.003.026-.003.05-.013.072-.02Z" fill="#511308"/><path d="M59.28 12.546 37.763 19.72a.202.202 0 0 0-.075.023c-.004.003-.01.003-.014.003-.013.003-.023.003-.032.006 7.891-3.082 13.522-4.717 21.64-7.206-.004 0-.004-.004 0 0Z" fill="#97E6CE"/><path d="M59.225 12.51c.02.013.036.022.056.032-8.115 2.493-13.749 4.128-21.64 7.207a.227.227 0 0 0-.082.033c-.026.01-.056.023-.082.032l.065-.023a.088.088 0 0 0-.026.023.6.6 0 0 0-.036.01c-.01.003-.016-.013-.006-.016 1.674-1.022 3.59-1.668 5.434-2.33a196.478 196.478 0 0 1 5.225-1.791c3.685-1.212 7.4-2.326 11.072-3.574-.134.085-.121.308.02.396Z" fill="#97E6CE"/><path d="M39.004 39.99c.016 2.217.046 4.438.013 6.656-.02 1.533-.007 3.06-.308 4.547-.085-.017-.17-.03-.259-.046.023-7.302-.193-23.713-.645-30.796.12.076.249.145.38.207.317 1.752.37 3.57.494 5.336.331 4.678.282 9.415.325 14.096Z" fill="#7FCBB4"/><path d="M38.72 51.193c-.013.069-.026.138-.043.203l-.216-.049v-.2c.085.017.174.033.259.046ZM38.46 51.35l.217.049c-.006.026-.013.052-.016.075-.069-.026-.135-.049-.197-.075-.003-.017-.003-.033-.003-.05Z" fill="#7FCBB4"/><path d="M38.66 51.474c-.022.095-.045.193-.071.288a2.507 2.507 0 0 1-.128-.075c.003-.095.003-.19.003-.288l.197.075ZM37.798 20.351c.452 7.082.668 23.494.645 30.796l-.013-.003-.649-30.803.017.01Z" fill="#7FCBB4"/><path d="M38.466 51.15v.2l-.01-.003-.003-.2.013.003Z" fill="#511308"/><path d="M38.466 51.35v.05c-.003 0-.006-.004-.01-.004l-.003-.05.013.004Z" fill="#511308"/><path d="M38.466 51.4c0 .098 0 .193-.003.288l-.003-.004-.007-.291c.007.006.01.006.013.006Z" fill="#511308"/><path d="m38.437 51.397.007.291c-.056-.033-.112-.065-.17-.105a4.124 4.124 0 0 1-.063-.275l.226.089Z" fill="#7FCBB4"/><path d="m38.437 51.35.003.05-.226-.088c-.003-.004-.003-.007-.003-.01l.226.049ZM38.442 51.148l.003.2-.226-.05a1.82 1.82 0 0 1-.04-.193l.033.003.23.04Z" fill="#7FCBB4"/><path d="m37.793 20.345.648 30.802a4.761 4.761 0 0 0-.229-.036c-.01-.003-.023-.003-.033-.003-.327-1.723-.281-3.509-.33-5.271-.131-4.658-.158-9.32-.26-13.978-.048-2.224-.114-4.445-.147-6.67-.026-1.677-.085-3.39.046-5.07.017.023.04.049.069.065.075.06.154.108.236.16Z" fill="#7FCBB4"/><path d="M38.216 51.3c-.003.004-.003.008.004.01-.02-.006-.036-.016-.056-.022l.052.013Z" fill="#511308"/><path d="M38.092 20.09c.033.157.066.314.092.471a5.924 5.924 0 0 1-.38-.206c-.01-.118-.016-.233-.023-.344.102.023.203.049.311.078Z" fill="#7FCBB4"/><path d="M38.09 20.07c.002.006.006.013.006.02-.108-.027-.21-.056-.311-.08h-.004v-.006l.308.066Z" fill="#7FCBB4"/><path d="m37.775 20.004-.108-.023.108.03.006.334c-.078-.053-.16-.102-.236-.158a.328.328 0 0 1-.068-.065l.01-.128a.31.31 0 0 1 .1-.2c.102-.02.204-.042.309-.065.072.026.13.088.154.19.01.049.023.098.03.15l-.305-.065Z" fill="#7FCBB4"/><path d="M37.922 19.726c-.007.003-.01.003-.017.003-.003-.003-.003-.003-.007-.003.007 0 .017-.003.024 0Z" fill="#511308"/><path d="M37.88 19.726c.003.003.006.003.006.003a8.608 8.608 0 0 1-.308.066c.023-.023.05-.036.075-.05l.02-.006c.072-.006.141-.013.206-.013Z" fill="#7FCBB4"/><path d="M37.906 19.726a4.193 4.193 0 0 0-.203.013l.069-.023a.304.304 0 0 1 .134.01Z" fill="#97E6CE"/><path d="m37.804 20.352-.016-.01-.007-.334h.004c.003.114.01.229.02.344Z" fill="#7FCBB4"/><path d="M37.788 20.005v.006l-.108-.03.108.024ZM37.774 19.716l-.069.023h-.01a.261.261 0 0 1 .079-.023ZM37.692 19.74l-.02.006a.026.026 0 0 1 .014-.007h.006Z" fill="#511308"/><path d="M37.702 19.74c-.003.003-.01.003-.013.006l-.134.046c.006-.007.01-.01.016-.01.03-.01.056-.023.082-.033a.115.115 0 0 1 .033-.006c.006 0 .013 0 .016-.004Z" fill="#511308"/><path d="m37.546 19.792.135-.046a.273.273 0 0 0-.076.05.72.72 0 0 1-.082.016.046.046 0 0 1 .023-.02Z" fill="#97E6CE"/><path d="m37.66 19.749-.082.033a.167.167 0 0 1 .082-.033Z" fill="#97E6CE"/><path d="m37.527 19.811.082-.016a.29.29 0 0 0-.102.2l-.01.127a.239.239 0 0 1 .03-.31Z" fill="#7FCBB4"/><path d="m37.55 19.781-.016.01-.065.023.082-.033Z" fill="#511308"/><path d="M58.549 39.875c.612 1.913.593 4.324-1.042 5.733-1.53 1.323-3.833 1.506-5.769 1.323-2.07-.197-4.258-.986-5.244-2.955-.413-.822-.94-1.674-.502-2.594.44-.924 1.18-1.776 1.91-2.473a.273.273 0 0 1 .2-.086.36.36 0 0 1 .311.213c.462.321.783.842 1.21 1.212.563.492 1.247.842 2.014.747 1.765-.22 1.598-2.198.206-2.863-.8-.383-1.707-.298-2.562-.203-.262.03-.507.043-.72-.043a.77.77 0 0 1-.331-.262c-.649-.845-.573-2.604-.265-3.557a.623.623 0 0 1 .091-.174.677.677 0 0 1 .053-.124c.114-.206.308-.4.475-.564.098-.098.2-.196.304-.298-.203-.045-.403-.098-.586-.127-.845-.148-1.713-.266-2.404-.806-.112-.085-.125-.207-.082-.318a4.004 4.004 0 0 1-.197-.839 6.616 6.616 0 0 1-.095-.871c-.01-.19-.016-.383-.02-.577-.049-.776-.078-1.611.128-2.342.046-.157.24-.229.377-.183.007 0 .013-.007.02-.01a.267.267 0 0 1 .239-.079c.799-.22 1.795.063 2.568.164 1.08.141 2.149.35 3.22.567 1.16.236 2.32.485 3.47.763.834.203 1.945.226 2.348 1.062.091.029.17.091.216.196.504 1.13.334 2.837.144 4.036-.042.262-.301.465-.537.537-.033.01-.062.016-.092.023-.232.285-.606.459-.93.629-.357.187-.708.422-1.071.612.553.436 1.048 1.068 1.356 1.468.698.92 1.238 1.966 1.589 3.063ZM55.17 45.43c2.444-.737 2.706-3.03 2.093-5.202a9.463 9.463 0 0 0-1.297-2.745c-.324-.479-.688-.904-1.068-1.337-.278-.318-.619-.593-.69-1.019a.265.265 0 0 1 .006-.114.533.533 0 0 1 .183-.446c.488-.432 1.163-.668 1.76-.92.183-.076.376-.16.576-.217-.003-.029-.01-.062-.013-.091-.079-.908-.056-2.248.304-3.227-.615.026-1.294-.285-1.893-.432-1.1-.269-2.198-.534-3.305-.78-1.104-.246-2.215-.462-3.315-.724-.59-.14-1.337-.213-1.953-.465.056.357.131.724.154 1.065.033.563.085 1.113.141 1.674a3.5 3.5 0 0 1 0 .812c.557-.026 1.13.075 1.674.154.717.098 1.769-.007 2.136.734.023.045.036.091.049.137.216.259.272.672-.003.983-.348.39-.865.72-1.317.983a3.41 3.41 0 0 1-.479.236c-.091.533-.183 1.048-.15 1.595.013.232-.023.642.118.812.167.197.147.141.429.105.865-.111 1.654-.249 2.516.007 1.32.393 2.44 1.667 2.175 3.112-.256 1.405-1.73 2.053-3.04 1.791-1.081-.216-2.43-1.267-2.788-2.417-.403.34-.78.708-1.117 1.12a5.146 5.146 0 0 0-.557.793c-.236.439-.127.573.144 1.048.557.96 1.373 1.903 2.336 2.47 1.756 1.019 4.272 1.084 6.191.505Z" fill="#5AAC93"/><path d="M57.26 40.229c.612 2.172.347 4.465-2.093 5.202-1.917.576-4.436.514-6.192-.515-.963-.566-1.779-1.51-2.335-2.47-.272-.471-.377-.609-.145-1.048.151-.285.351-.544.557-.793.338-.409.715-.776 1.117-1.12.358 1.15 1.707 2.202 2.788 2.418 1.31.262 2.781-.384 3.04-1.792.262-1.445-.858-2.72-2.175-3.112-.862-.256-1.651-.118-2.516-.007-.282.036-.262.095-.429-.105-.14-.17-.105-.58-.118-.812-.033-.547.062-1.061.15-1.595.168-.063.335-.15.479-.236.452-.262.97-.593 1.317-.983.275-.311.22-.72.003-.983a.58.58 0 0 0-.049-.137c-.367-.74-1.418-.636-2.136-.734-.544-.075-1.117-.18-1.674-.154.046-.301.02-.635 0-.812-.059-.56-.111-1.11-.14-1.674-.02-.34-.099-.704-.155-1.065.616.252 1.363.324 1.953.465 1.1.262 2.208.482 3.315.724 1.107.246 2.204.511 3.305.78.6.147 1.278.459 1.894.432-.36.983-.384 2.32-.305 3.227a.748.748 0 0 0 .013.092c-.2.059-.393.14-.576.216-.597.252-1.271.488-1.76.92a.537.537 0 0 0-.183.446.263.263 0 0 0-.007.114c.076.426.413.701.692 1.02.38.432.743.858 1.067 1.336.574.858 1.02 1.769 1.298 2.755Z" fill="#fff"/></g><defs><clipPath id="a"><path d="M0 0h104v80c0 5.523-4.477 10-10 10H0V0Z" fill="#fff"/></clipPath></defs></svg>