<svg width="119" height="100" fill="none" xmlns="http://www.w3.org/2000/svg"><g clip-path="url(#a)"><path d="m75.191 77.16 2.556 2.557 2.988 2.972 1.151 1.16 5.962-5.966-6.684-6.695-5.973 5.972Z" fill="#475D8D"/><path d="M93.925 77.843 114.5 98.415a8.486 8.486 0 0 1 2.502 6.042 8.522 8.522 0 0 1-8.543 8.543 8.513 8.513 0 0 1-6.042-2.498L81.844 89.928l12.082-12.085Z" fill="#F2C45B"/><path d="m91.09 80.686 1.672-1.675 20.575 20.576a6.838 6.838 0 0 1 2.013 4.869 6.872 6.872 0 0 1-2.013 4.88 1.2 1.2 0 0 1-1.68-.003 1.185 1.185 0 0 1 0-1.669c.858-.855 1.328-2 1.328-3.211a4.479 4.479 0 0 0-1.321-3.193L91.09 80.686Z" fill="#FFEAB5"/><path d="M90.91 76.06a2.969 2.969 0 0 1 2.114.879l.902.903-12.083 12.086-.907-.91a2.968 2.968 0 0 1-.876-2.108 2.967 2.967 0 0 1 .876-2.114l7.858-7.861a2.96 2.96 0 0 1 2.116-.874ZM51.63 9c21.336 0 38.63 17.298 38.63 38.626 0 21.336-17.296 38.63-38.63 38.636C30.295 86.257 13 68.962 13 47.626 13 26.296 30.295 9 51.629 9Zm.003 4.183c-19.023 0-34.448 15.425-34.448 34.443 0 19.028 15.425 34.45 34.448 34.45 19.02-.001 34.446-15.422 34.446-34.45 0-19.017-15.426-34.443-34.446-34.443Z" fill="#6683C2"/><path d="M51.636 13.182c19.02 0 34.446 15.426 34.446 34.444 0 19.028-15.427 34.449-34.446 34.45-19.023 0-34.449-15.422-34.449-34.45 0-19.018 15.426-34.444 34.449-34.444Zm-.008 2.756c-17.498 0-31.69 14.194-31.69 31.689 0 17.506 14.188 31.691 31.69 31.691 17.499 0 31.69-14.184 31.69-31.691 0-17.495-14.192-31.689-31.69-31.689Z" fill="#A6B9E4"/><path d="M51.628 79.319c17.499 0 31.69-14.185 31.69-31.693 0-17.494-14.192-31.688-31.69-31.688s-31.69 14.194-31.69 31.688c0 17.507 14.188 31.693 31.69 31.693Z" fill="#CEE2F2" fill-opacity=".39"/><path d="M52.465 21.14a2.807 2.807 0 0 0-2.489-1.243c-4.374.265-8.508 1.497-12.286 3.69a2.808 2.808 0 0 0-1.011 3.83c.775 1.32 2.491 1.789 3.817 1.003a22.145 22.145 0 0 1 9.809-2.939 2.777 2.777 0 0 0 2.622-2.94 2.637 2.637 0 0 0-.462-1.4Zm-17.943 9.188a2.874 2.874 0 0 0-.555-.606 2.783 2.783 0 0 0-3.93.408 27.67 27.67 0 0 0-5.686 12.185A27.648 27.648 0 0 0 25.9 58.058a2.798 2.798 0 0 0 3.655 1.525 2.787 2.787 0 0 0 1.525-3.646 22.004 22.004 0 0 1-1.221-12.56 21.872 21.872 0 0 1 4.521-9.724c.792-.974.813-2.34.142-3.325Z" fill="#fff"/></g><defs><clipPath id="a"><path fill="#fff" d="M0 0h119v100H0z"/></clipPath></defs></svg>