<svg width="202" height="90" fill="none" xmlns="http://www.w3.org/2000/svg"><g clip-path="url(#a)"><path d="M102.209 83.521c-2.106-3.211-3.987-6.709-5.897-9.898-.775-1.286-1.542-2.625-1.858-4.047-.782-3.482 1.128-5.904 4.212-4.625 2.978 1.24 4.385 4.806 6.025 7.611 1.985 3.423 4.625 8.116 5.332 11.922.331 1.775-.022 3.663-1.271 4.408a2.087 2.087 0 0 1-1.918.12c-.669-.293-1.233-.91-1.737-1.527-1.031-1.233-1.978-2.572-2.888-3.964Z" fill="#E9B49C"/><path d="M108.031 74.835s-9.823 6.1-10.635 6.566c-.21.12-2.971-4.67-3.174-4.987-.58-.91-1.136-1.865-1.565-2.865-.36-.85-.27-1.926-.233-2.851.09-2.046.534-4.07 1.309-5.965.248-.609.534-1.203.94-1.715.331-.413.737-.752 1.136-1.098a.686.686 0 0 1 .218-.143c.113-.037.226-.007.338.023 2.806.714 5.506 3.151 6.98 5.483 1.663 2.618 4.686 7.552 4.686 7.552Z" fill="#F37E60"/><path d="M71.53 92.894c.09-.985.204-17.156.346-18.134.497-3.407 1.347-7.018 3.686-9.665.985-1.114 2.189-1.993 3.498-2.685a20.34 20.34 0 0 1 2.263-1.008c.873-.331 1.911-.52 2.708-.986.58-.33.497-1.15.504-1.715.015-.834.12-1.654.098-2.49-.03-1.03-.038-2.06-.09-3.083 1.15-.218 2.083-.324 3.31-.278 1.007.037 2.023-.06 3.03-.008.083.008.173.015.226.06.06.045.068.12.075.196.136 1.391 0 2.798.106 4.19.052.706.157 2.587.947 3.046 3.107.609 6.063 1.955 7.777 4.099 4.062 5.077 4.641 25.152 4.34 31.071-.263 5.13-33.674 6.664-32.823-2.61Z" fill="#F37E60"/><mask id="b" style="mask-type:luminance" maskUnits="userSpaceOnUse" x="71" y="52" width="34" height="48"><path d="M71.53 92.894c.09-.985.204-17.156.346-18.134.497-3.407 1.347-7.018 3.686-9.665.985-1.114 2.189-1.993 3.498-2.685a20.34 20.34 0 0 1 2.263-1.008c.873-.331 1.911-.52 2.708-.986.58-.33.497-1.15.504-1.715.015-.834.12-1.654.098-2.49-.03-1.03-.038-2.06-.09-3.083 1.15-.218 2.083-.324 3.31-.278 1.007.037 2.023-.06 3.03-.008.083.008.173.015.226.06.06.045.068.12.075.196.136 1.391 0 2.798.106 4.19.052.706.157 2.587.947 3.046 3.107.609 6.063 1.955 7.777 4.099 4.062 5.077 4.641 25.152 4.34 31.071-.263 5.13-33.674 6.664-32.823-2.61Z" fill="#fff"/></mask><g mask="url(#b)"><path d="M90.058 63.68a3.767 3.767 0 0 1-1.708.422c-1.414 0-2.82-.783-3.79-2.122-1.482-2.045-1.903-5.392-.752-7.844.39-.843.985-1.542 1.7-1.873 1.037-.497 2.21-.18 3.219.39a7.377 7.377 0 0 1 3.347 4.123c.609 1.887.436 4.257-.655 5.746a4.122 4.122 0 0 1-1.361 1.158Z" fill="#E9B49C"/><path d="M98.88 45.32c-.038-2.076-.362-4.046-.933-5.671-2.49-7.04-11.689-8.703-17.157-3.595-6.1 5.701-3.58 19.187 2.964 23.873 1.752 1.256 4.114 1.677 6.22 1.12 6.356-1.692 9.018-9.243 8.905-15.727Z" fill="#D4987C"/></g><path d="M73.327 81.28c2.903-2.52 5.664-5.378 8.371-7.92 1.091-1.03 2.197-2.106 2.889-3.385 1.7-3.136.519-5.987-2.798-5.596-3.204.384-5.529 3.43-7.868 5.694-2.843 2.753-6.664 6.551-8.371 10.026-.797 1.617-.97 3.528.022 4.588a2.06 2.06 0 0 0 1.813.632c.722-.098 1.43-.541 2.091-1 1.316-.918 2.595-1.948 3.851-3.04Z" fill="#E9B49C"/><path d="M67.636 74.835s7.469 5.092 8.16 5.724c.181.165 5.273-4.257 5.536-4.528 1.211-1.226 2.332-2.565 3.182-4.07.933-1.632 1.504-3.617 1.256-5.505-.27-2.054-1.361-4.047-2.34-5.844-2.03.346-4.43 1.135-6.137 2.294-.917.624-1.797 1.7-2.587 2.504-2.181 2.22-7.07 9.425-7.07 9.425Z" fill="#F37E60"/><path d="M117.015 69.923c.602.135 1.129.631 1.369 1.203.579 1.376-.12 2.587-.692 3.79-1.474 3.115-2.941 6.38-4.851 9.313-1.046 1.61-3.798 6.137-6.461 4.475-.557-.346-.872-.978-1-1.602-.271-1.332.195-2.67.767-3.874 2.128-4.453 5.641-8.213 8.687-12.08.451-.578.993-1.203 1.753-1.263.143 0 .293.007.428.038Z" fill="#E9B49C"/><path d="M117.263 72.608c-.887-.309-1.88-.843-2.369-1.678-.737-1.27-.263-2.88-.805-4.22-.18-.443-.489-.85-.549-1.338-.083-.677.594-.888 1.136-.684.316.112.662.33.887.586.301.339.399.813.482 1.264l.18.97c-.045-.233.316-1.7.369-2.053.12-.767.331-1.52.639-2.234.226-.52.579-1.083 1.143-1.136.083-.007.166-.007.234.038.075.045.12.128.15.218.128.353.105.737.075 1.113-.068.797-.195 2.4-.195 2.4s.526-.97.774-1.422c.339-.61.617-1.219 1.031-1.79.128-.18.263-.354.413-.512.226-.233.557-.436.85-.316.181.075.301.271.339.46.037.195.007.398-.03.593a7.78 7.78 0 0 1-.361 1.211c-.286.775-.767 2.28-.767 2.28s.827-.7 1.241-1.046c.278-.233.564-.474.895-.624.188-.083.398-.136.601-.098.203.037.391.18.444.383.053.219-.068.444-.188.64-.617.985-2.159 2.73-2.159 2.73s1.174-.677 1.828-.835c.233-.06.489-.09.715-.015.895.278-.083 1.158-.444 1.474-1.098.97-2.166 2.016-3.325 2.911-.872.67-1.865 1.15-2.978.828-.083-.046-.166-.068-.256-.098ZM86.489 86.139c.571-1.151-.226-2.204-1.264-2.618-1.218-.489-2.467-.76-3.715-1.106a109.563 109.563 0 0 0-4.032-1.06c-2.587-.617-5.288-1.046-7.973-1.106-1.715-.037-4.61.038-4.851 2.31-.068.639.24 1.27.662 1.76.902 1.03 2.271 1.511 3.61 1.82 4.927 1.143 10.17.805 15.201.895.752.015 1.595-.008 2.121-.55.098-.105.18-.218.24-.345Z" fill="#E9B49C"/><path d="M84.819 86.62c.73.076 1.354.647 2.09.79.527.098 1.061-.037 1.535-.27.436-.211.88-.354 1.331-.542.346-.15.813-.444 1.204-.399 1.038.106 2.12.73 3.084 1.106.218.083.451.173.677.105.225-.068.383-.36.233-.541.286.218.692.677 1.098.443.165-.097.248-.338.135-.489.166.143.331.294.542.354.21.06.474 0 .572-.196.045-.09.052-.195.045-.3-.015-.354-.158-.692-.339-.993-.88-1.505-2.632-2.513-4.122-3.31-.263-.143-.534-.286-.827-.346-.263-.052-.534-.03-.797-.007a15.84 15.84 0 0 0-5.01 1.331c-.338.158-.744.09-1.098.06-.263-.022-.541-.045-.79.06-.278.113-.473.361-.624.617-.278.474-.459 1.09-.368 1.64.075.421.15.872.654.91.203.015.414-.03.617-.03.06 0 .105 0 .158.007Z" fill="#E9B49C"/><path d="M101.826 45.372c1.466-2.038 2.512-4.543 3.023-7.235.858-4.52.068-8.8-2.181-11.75-2.986-3.918-9.876-5.136-14.441-3.813l.082.286c2.25-.654 5.04-.67 7.665-.052 2.828.67 5.122 2 6.453 3.753 2.197 2.88 2.971 7.078 2.121 11.508-.503 2.647-1.534 5.107-2.971 7.115l.249.188ZM74.666 47.185l.233-.188c-3.076-3.85-4.61-8.875-4.227-13.786.075-.986.218-1.768.444-2.452.962-2.971 4.294-5.514 7.43-5.672l-.014-.3c-3.25.157-6.71 2.79-7.71 5.874-.233.714-.376 1.511-.451 2.527-.391 4.98 1.18 10.086 4.295 13.997Z" fill="#5D4130"/><path d="M96.646 51.931c-1.121.602-2.25 1.189-3.182 2.046-1.339 1.234-2.264 3.016-3.941 3.716-1.347.556-2.911.285-4.227-.339-1.317-.624-2.452-1.564-3.64-2.4-1.483-1.037-3.077-1.917-4.446-3.098-4.791-4.122-6.333-10.906-6.092-16.976.03-.805.075-1.61.27-2.392.745-2.926 2.43-5.197 6.228-7.416-.451-.354-.955-.361-1.624-.504 1.767-.534 3.256-.805 5.061-.391a19.683 19.683 0 0 1 4.867-3.144c-.053.3-.188.586-.391.82 1.685-.46 3.843-.835 5.844-.715-.278.128-1.226 1.015-1.504 1.143 1.128-.03 2.256.143 3.37.354 1.857.346 3.738.774 5.385 1.707 4.889 2.783 6.446 9.079 5.919 14.329a21.558 21.558 0 0 1-2.407 7.92c-.767 1.429-1.715 2.79-2.978 3.806-.782.594-1.647 1.068-2.512 1.534Z" fill="#5D4130"/><path d="M101.162 42.703c-.128-2.956-.895-5.867-2.625-8.229-1.925-2.625-4.979-4.377-8.213-4.716-3.234-.338-6.59.745-9.019 2.903-5.362 4.784-5.227 12.885-2.64 19.06.316.752.677 1.474 1.098 2.174 2.016 3.347 5.574 5.964 9.478 5.972 3.317.007 6.453-1.888 8.469-4.528 2.008-2.64 2.993-5.942 3.347-9.237.105-1.12.15-2.264.105-3.4Z" fill="#E9B49C"/><path d="M89.73 48.099c.77.77.99 1.98.66 2.31-.233.233-.66.33-1.32 0" stroke="#D4987C" stroke-linecap="round"/><path d="M93.734 53.38s-1.072 2.435-3.93 2.585c-2.86.15-3.374-2.561-3.374-2.561 2.516.845 4.695 1.02 7.304-.025Z" fill="#F1F2F2"/><path d="M77.24 45.628c-3.31-1.376-4.22 2.377-3.603 4.22.256.76.64 1.497 1.233 2.106.798.827 3.062 2.166 4.325 1.203.572-.436.61-1.158.61-1.79.007-1.722-.316-4.806-2.565-5.739ZM100.411 44.072c2.535-1.617 3.482 2.053 3.114 3.933-.151.775-.414 1.535-.85 2.197-.579.88-2.287 2.392-3.34 1.526-.481-.39-.556-1.105-.594-1.745-.113-1.714-.045-4.813 1.67-5.911Z" fill="#E9B49C"/><path d="M97.864 41.612c.158.166.316.331.481.489.617.594 1.43 1.158 1.557 2.008.173 1.098.023.632.135 2.467 1.452-2.76 3.874-11.049 3.032-12.62-.828-1.55-2.332-2.618-3.881-3.446-3.566-1.888-7.68-2.745-11.696-2.361-4.017.383-7.92 2.008-10.974 4.648-1.008.872.579 14.336 1.248 15.133.06-2.347.038-2.128.406-4.137.06-.323 1.663-4.904 2.076-6.19.143.715.55 1.895.692 2.61 1.204-1.685 2.956-4.197 3.257-6.243.7 1.331 2.986 3.468 5.438 4.776-.068-1.12-.195-2.346.015-3.256 1.128 1.64 3.325 3.64 5.28 4.25-.18-.986-.128-2.002.15-2.964a12.668 12.668 0 0 0 2.784 4.836Z" fill="#D4987C"/><path d="M97.813 40.528c.158.166.316.331.481.49.617.593 1.43 1.158 1.557 2.008.173 1.098.09 1.722.196 3.557 1.451-2.76 3.196-5.415 3.617-8.5.241-1.76.188-3.64-.654-5.204-.827-1.55-2.332-2.617-3.881-3.445-3.565-1.888-7.68-2.745-11.696-2.362-4.017.384-7.92 2.009-10.974 4.649-1.008.872-1.94 1.865-2.497 3.076-.361.79-.55 1.67-.489 2.535.068.887.474 1.752.752 2.595.617 1.888 1.264 3.745 2.076 5.558.369.835.805 1.655 1.467 2.452.06-2.347-.023-3.22.346-5.227.06-.324 1.662-4.904 2.076-6.19.143.714.549 1.895.692 2.61 1.203-1.685 2.956-4.198 3.256-6.244.7 1.332 2.987 3.468 5.439 4.777-.068-1.121-.196-2.347.015-3.257 1.128 1.64 3.324 3.64 5.28 4.25-.18-.986-.128-2.001.15-2.964a12.686 12.686 0 0 0 2.79 4.836Z" fill="#5D4130"/><path d="M97.18 43.063c.106-.015.204-.045.294-.083.752-.33-.143-1.045-.527-1.218-.67-.309-1.481-.437-2.211-.482-.376-.022-2.211.053-1.67.888.384.594 1.617.7 2.242.79.586.082 1.27.21 1.872.105ZM80.924 44.033a1.254 1.254 0 0 1-.301-.053c-.79-.24.022-1.052.376-1.27.632-.384 1.414-.61 2.143-.738.369-.067 2.204-.21 1.768.685-.308.632-1.52.887-2.129 1.053-.586.143-1.256.353-1.858.323Z" fill="#5D4130"/><path d="M95.692 46.598c-.045.94-.549 1.678-1.12 1.655-.572-.03-1.001-.812-.956-1.752.045-.94.55-1.678 1.12-1.655.572.022 1.001.812.956 1.752ZM84.867 47.004c.173.925-.143 1.76-.707 1.865-.564.105-1.159-.564-1.332-1.49-.173-.924.143-1.76.707-1.865.565-.105 1.159.557 1.332 1.49Z" fill="#252B30"/><path d="M102.105 45.477c-.278.06-.534.218-.752.414a2.817 2.817 0 0 0-.541.684 4.344 4.344 0 0 0-.369.782c-.053.136-.098.271-.135.414-.038.143-.076.278-.106.429l-.128.677.399-.572c.196-.278.512-.541.79-.451.143.038.271.158.383.293.053.068.106.15.151.218a.92.92 0 0 1 .083.745 1.674 1.674 0 0 1-.249.489 3.27 3.27 0 0 1-.368.429 3.515 3.515 0 0 1-.436.376c.346-.173.669-.407.932-.707.128-.15.248-.324.324-.52a1.133 1.133 0 0 0-.045-.94 2.32 2.32 0 0 0-.166-.263 1.054 1.054 0 0 0-.519-.406.731.731 0 0 0-.361-.015.858.858 0 0 0-.316.135 1.74 1.74 0 0 0-.451.459l.271.105a3.57 3.57 0 0 1 .09-.398c.03-.136.068-.27.113-.399.082-.263.18-.519.308-.767.12-.248.263-.481.444-.692.18-.218.399-.399.654-.519ZM74.823 47.117c.151.038.301.09.437.15.135.068.27.136.398.218.128.083.249.181.354.279.113.105.218.21.316.323.195.233.368.482.519.737.075.128.143.264.21.399.068.135.128.278.181.414l.24-.158c-.09-.09-.18-.15-.278-.218a2.079 2.079 0 0 0-.316-.166 1.266 1.266 0 0 0-.73-.06 1.18 1.18 0 0 0-.6.406c-.076.09-.136.188-.196.286-.06.105-.106.218-.136.346a.905.905 0 0 0 .008.376c.03.12.082.233.143.338.127.203.308.354.489.482.368.256.782.429 1.203.541a8.448 8.448 0 0 1-.58-.3 4.399 4.399 0 0 1-.526-.369 1.832 1.832 0 0 1-.406-.466.73.73 0 0 1-.083-.542c.023-.09.06-.18.113-.263a1.44 1.44 0 0 1 .18-.24.914.914 0 0 1 .467-.31.874.874 0 0 1 .55.053c.09.038.18.083.262.136.083.052.173.12.234.18l.458.422-.218-.572c-.06-.158-.128-.301-.195-.444a4.542 4.542 0 0 0-.241-.414 4.35 4.35 0 0 0-.594-.752 3.3 3.3 0 0 0-.76-.571 1.875 1.875 0 0 0-.444-.173c-.15-.038-.3-.06-.459-.068Z" fill="#D4987C"/><path d="M103.602 77.579a47.64 47.64 0 0 0-.444-3.4l-.068-.421-.075-.421-.075-.421-.083-.422a16.877 16.877 0 0 0-.181-.842c-.06-.278-.12-.557-.195-.835-.068-.278-.136-.556-.218-.835a27.988 27.988 0 0 0-.233-.827l-.128-.414-.136-.406-.135-.406-.151-.406c-.398-1.076-.872-2.129-1.474-3.1a28.738 28.738 0 0 1 1.249 3.182l.135.407.128.406c.038.135.083.27.12.406l.113.414c.083.27.151.549.226.82.075.27.143.548.211.827.067.278.135.556.195.827l.098.414.09.421.09.414.091.421.173.835.677 3.362Z" fill="#F37E60"/><path d="M100.583 82.157h22.901v4.48h-22.901v-4.48Z" fill="#8FA9E4"/><path d="m119.552 82.592 5.785-29.428a1.642 1.642 0 0 1 1.621-1.335h38.427a1.67 1.67 0 0 1 1.335.682h.01l1.77 2.096-1.572-.346-5.696 28.974a1.644 1.644 0 0 1-1.622 1.335h-38.426c-1.049 0-1.83-.96-1.632-1.978Z" fill="#8FA9E4"/><path d="M161.357 86.636H122.93a1.648 1.648 0 0 1-1.622-1.977l5.785-29.429a1.644 1.644 0 0 1 1.622-1.334h38.427c1.048 0 1.829.949 1.621 1.977l-5.784 29.428a1.636 1.636 0 0 1-1.622 1.335Z" fill="#6683C2"/><path d="M149.269 69.54c-.356 1.987-2.254 3.59-4.232 3.59-1.978 0-3.283-1.612-2.897-3.59.385-1.988 2.284-3.59 4.232-3.59 1.958-.01 3.253 1.602 2.897 3.59Z" fill="#8FA9E4"/><path d="M46.29 86.676h5.686a2.87 2.87 0 0 0 2.868-2.867V70.32H43.423v13.488a2.863 2.863 0 0 0 2.867 2.867Z" fill="#E67F64"/><path d="M42.624 74.019c2.74 0 4.954 2.255 4.954 5.033 0 2.779-2.225 5.033-4.954 5.033-2.74 0-4.954-2.254-4.954-5.033 0-2.778 2.215-5.033 4.954-5.033Zm0 8.267c1.76 0 3.194-1.454 3.194-3.234 0-1.79-1.424-3.233-3.194-3.233-1.76 0-3.194 1.453-3.194 3.233s1.434 3.234 3.194 3.234Z" fill="#E67F64"/><path opacity=".2" d="M53.137 80.466a.616.616 0 0 0 .613-.613v-7.96a.616.616 0 0 0-.613-.613.616.616 0 0 0-.613.613v7.96a.604.604 0 0 0 .613.613Z" fill="#fff"/><path d="M46.042 70.32V83.79a2.885 2.885 0 0 0 2.888 2.887h-2.64a2.884 2.884 0 0 1-2.888-2.887V70.32h2.64Z" fill="#C25B40"/><path d="M31.83 92.988h153.435c1.565 0 2.829-1.476 2.829-3.301 0-1.825-1.264-3.3-2.829-3.3H31.829c-1.565 0-2.829 1.475-2.829 3.3 0 1.825 1.272 3.3 2.83 3.3Z" fill="#DABFA6"/><path d="m181.122 42.566 1.097.262-9.969 41.855-1.097-.261 9.969-41.856ZM178.895 42.111l1.097.262-10.226 42.937-1.097-.262 10.226-42.937ZM156.47 19.756l.757-.836 22.339 20.216-.756.836-22.34-20.216ZM155.822 22.233l.756-.836 22.34 20.215-.757.837-22.339-20.216Z" fill="#6683C2"/><path d="M151.155 84.925h22.673v1.76h-22.673v-1.76Z" fill="#4B67A6"/><path d="M153.54 81.406h17.903a2.389 2.389 0 0 1 2.385 2.384v1.136h-22.673V83.79a2.389 2.389 0 0 1 2.385-2.385Z" fill="#8FA9E2"/><path d="m149.303 18.444.564-.976 6.716 3.877-.564.977-6.716-3.878Z" fill="#6683C2"/><path d="m176.475 42.394 1.59 2.207a.795.795 0 0 0 1.014.243l3.342-1.703a.8.8 0 0 0 .284-1.185l-2.539-3.472a.8.8 0 0 0-1.265-.032l-2.393 2.969a.791.791 0 0 0-.033.973Z" fill="#4B67A6"/><path d="M181.707 42.346c0 .203.163.365.365.365a.364.364 0 1 0 0-.73.364.364 0 0 0-.365.365ZM178.301 44.098c0 .203.162.365.365.365a.363.363 0 0 0 .365-.365.363.363 0 0 0-.365-.365.363.363 0 0 0-.365.365ZM176.762 41.9c0 .203.162.365.365.365a.363.363 0 0 0 .365-.365.363.363 0 0 0-.365-.365.368.368 0 0 0-.365.365Z" fill="#fff"/><path d="m158.613 19.324-1.112 4.47a.645.645 0 0 1-1.078.308l-3.318-3.196a.646.646 0 0 1 .268-1.087l4.421-1.274a.65.65 0 0 1 .819.779Z" fill="#4B67A6"/><path d="M156.431 23.437c.114.17.341.22.511.106a.368.368 0 0 0 .106-.511.368.368 0 0 0-.511-.106.375.375 0 0 0-.106.511ZM157.47 19.527c.114.17.341.219.511.105a.367.367 0 0 0 .106-.511.369.369 0 1 0-.617.406ZM153.51 20.735c.113.17.34.22.511.106a.368.368 0 0 0 .105-.511.368.368 0 0 0-.511-.106.368.368 0 0 0-.105.511ZM179.129 38.882c0 .203.163.365.365.365a.363.363 0 0 0 .365-.365.363.363 0 0 0-.365-.365.364.364 0 0 0-.365.365Z" fill="#fff"/><path d="m142.059 19.77 7.301 1.558 2.141-10.002a.958.958 0 0 0-.746-1.144l-5.411-1.16a.959.959 0 0 0-1.144.747l-2.141 10.002Z" fill="#6683C2"/><path d="m142.967 15.478 7.33 1.568-.416 1.944-7.33-1.568.416-1.944Z" fill="#4B67A6"/><path d="m133.5 24.564 20.961 4.486-4.591-10.067-7.301-1.565-9.069 7.146Z" fill="#6683C2"/><path opacity=".1" d="m146.117 18.18-3.545-.755-9.069 7.147s7.577 1.671 10.643 2.304M142.527 17.41l3.569.762 1.842-8.574-2.645-.568a.945.945 0 0 0-1.119.73l-1.647 7.65Z" fill="#000"/></g><defs><clipPath id="a"><rect width="202" height="90" rx="10" fill="#fff"/></clipPath></defs></svg>