<svg width="129" height="90" fill="none" xmlns="http://www.w3.org/2000/svg"><g clip-path="url(#a)"><path d="M96.003 21.22 29.99 27.843a2 2 0 0 0-1.79 2.19l8.945 89.156a2 2 0 0 0 2.19 1.791l66.013-6.624a2 2 0 0 0 1.79-2.189L98.192 23.01a2 2 0 0 0-2.19-1.79Z" fill="#F2F2F2"/><path d="M37.49 37.683a1 1 0 0 1-1.095-.895l-.077-.766a1 1 0 0 1 .895-1.094l1.307-.132a1 1 0 0 1 1.095.895l.077.766a1 1 0 0 1-.895 1.095l-1.307.131Zm-.155-2.656a1 1 0 0 0-.895 1.095l.055.544a1 1 0 0 0 1.095.896l1.086-.11a1 1 0 0 0 .895-1.094l-.055-.545a1 1 0 0 0-1.095-.895l-1.086.109ZM43.834 37.214c-.79 0-1.47-.602-1.552-1.402a1.566 1.566 0 0 1 1.397-1.712 1.552 1.552 0 0 1 1.706 1.397 1.566 1.566 0 0 1-1.397 1.712c-.05.005-.105.005-.154.005Zm0-3.01c-.05 0-.1 0-.15.006a1.451 1.451 0 1 0 1.066.32 1.422 1.422 0 0 0-.916-.325ZM47.625 36.833a1.555 1.555 0 0 1-1.546-1.408 1.566 1.566 0 0 1 1.397-1.712 1.552 1.552 0 0 1 1.706 1.397 1.553 1.553 0 0 1-1.397 1.707c-.055.016-.105.016-.16.016Zm.005-3.01c-.05 0-.099 0-.149.006-.795.077-1.38.79-1.297 1.59.038.387.226.735.524.978a1.455 1.455 0 0 0 2.043-.204 1.454 1.454 0 0 0-.204-2.044 1.422 1.422 0 0 0-.917-.326ZM51.938 36.32a1.508 1.508 0 1 0-.981-2.852 1.508 1.508 0 0 0 .98 2.851ZM79.782 33.014a1.508 1.508 0 1 0-2.506-1.677 1.508 1.508 0 0 0 2.506 1.677ZM44.43 41.62a1.508 1.508 0 1 0-.289-3.001 1.508 1.508 0 0 0 .29 3.001ZM86.708 37.377a1.508 1.508 0 1 0-.293-3.001 1.508 1.508 0 0 0 .293 3ZM57.363 44.31a1.508 1.508 0 1 0-2.46-1.745 1.508 1.508 0 0 0 2.46 1.746ZM79.724 42.578a1.508 1.508 0 1 0-.598-2.955 1.508 1.508 0 0 0 .598 2.955ZM53.839 49.352a1.508 1.508 0 1 0-2.132-2.132 1.508 1.508 0 0 0 2.132 2.132ZM81.12 46.402a1.508 1.508 0 1 0-2.515-1.662 1.508 1.508 0 0 0 2.515 1.662ZM50.784 53.777a1.508 1.508 0 1 0-2.725-1.29 1.508 1.508 0 0 0 2.725 1.29ZM92.269 50.286a1.508 1.508 0 1 0-1.129-2.796 1.508 1.508 0 0 0 1.129 2.796ZM62.749 56.757a1.508 1.508 0 1 0-2.954-.605 1.508 1.508 0 0 0 2.954.605ZM88.99 55.104a1.508 1.508 0 1 0-1.272-2.734 1.508 1.508 0 0 0 1.273 2.734ZM46.632 63.946a1.508 1.508 0 1 0-.206-3.008 1.508 1.508 0 0 0 .206 3.008ZM78.383 60.495a1.508 1.508 0 1 0-1.94-2.309 1.508 1.508 0 0 0 1.94 2.309ZM50.773 68.034a1.508 1.508 0 1 0 0-3.015 1.508 1.508 0 0 0 0 3.015ZM85.445 64.555a1.508 1.508 0 1 0 0-3.015 1.508 1.508 0 0 0 0 3.015ZM60.314 70.45a1.508 1.508 0 1 0-2.982-.446 1.508 1.508 0 0 0 2.982.446ZM83.273 68.843a1.508 1.508 0 1 0-2.334-1.909 1.508 1.508 0 0 0 2.334 1.909ZM52.821 76.418a1.508 1.508 0 1 0-2.318-1.928 1.508 1.508 0 0 0 2.318 1.928ZM90.608 73.022a1.508 1.508 0 1 0-.941-2.864 1.508 1.508 0 0 0 .94 2.864ZM60.36 80.518a1.508 1.508 0 1 0-1.285-2.727 1.508 1.508 0 0 0 1.285 2.727ZM95.03 77.046a1.508 1.508 0 1 0-1.273-2.734 1.508 1.508 0 0 0 1.273 2.734ZM60.305 85.12a1.508 1.508 0 1 0-.272-3.003 1.508 1.508 0 0 0 .272 3.003ZM87.388 82.4a1.508 1.508 0 1 0-.294-3.002 1.508 1.508 0 0 0 .294 3.001Z" fill="#6683C2"/><path d="M51.414 36.452c-.359 0-.701-.122-.983-.354a1.555 1.555 0 0 1-.563-1.054 1.553 1.553 0 0 1 1.397-1.707 1.553 1.553 0 0 1 1.707 1.397 1.553 1.553 0 0 1-1.398 1.707c-.055.01-.105.01-.16.01Zm.006-3.01c-.05 0-.1 0-.15.006a1.454 1.454 0 0 0-.773 2.568 1.454 1.454 0 0 0 2.364-1.27 1.439 1.439 0 0 0-.524-.978 1.432 1.432 0 0 0-.917-.326ZM55.234 36.07a1.555 1.555 0 0 1-1.546-1.408 1.565 1.565 0 0 1 1.397-1.711 1.553 1.553 0 0 1 1.707 1.397 1.553 1.553 0 0 1-1.398 1.706c-.055.017-.105.017-.16.017Zm.006-3.009c-.05 0-.1 0-.15.006-.795.077-1.38.79-1.297 1.59a1.455 1.455 0 0 0 2.568.773 1.454 1.454 0 0 0-.204-2.043 1.444 1.444 0 0 0-.917-.326ZM59.039 35.69a1.556 1.556 0 0 1-1.546-1.408 1.566 1.566 0 0 1 1.397-1.712 1.553 1.553 0 0 1 1.706 1.397 1.553 1.553 0 0 1-1.397 1.706c-.055.017-.11.017-.16.017Zm.005-3.01c-.05 0-.099 0-.149.006-.795.077-1.38.79-1.297 1.59.038.387.226.735.524.978a1.454 1.454 0 0 0 2.044-.205 1.455 1.455 0 0 0-.205-2.043 1.444 1.444 0 0 0-.917-.326ZM67.378 34.685l-.276-2.756 3.296-.331.277 2.755-3.297.332Zm-.155-2.657.254 2.535 3.076-.31-.254-2.534-3.076.31ZM74.716 34.116c-.79 0-1.469-.602-1.551-1.408a1.566 1.566 0 0 1 1.397-1.712 1.566 1.566 0 0 1 1.712 1.397 1.565 1.565 0 0 1-1.398 1.712c-.06.011-.11.011-.16.011Zm0-3.01c-.05 0-.1 0-.143.006a1.451 1.451 0 1 0 .144-.005ZM78.505 33.735c-.79 0-1.469-.602-1.551-1.403a1.566 1.566 0 0 1 1.397-1.712 1.556 1.556 0 0 1 1.706 1.397 1.566 1.566 0 0 1-1.397 1.713c-.05.005-.1.005-.155.005Zm.006-3.01c-.05 0-.1 0-.15.006-.794.077-1.38.79-1.297 1.59.077.796.79 1.38 1.59 1.298a1.448 1.448 0 0 0 1.298-1.59 1.439 1.439 0 0 0-.524-.978 1.421 1.421 0 0 0-.917-.326ZM82.305 33.354a1.555 1.555 0 0 1-1.546-1.408 1.565 1.565 0 0 1 1.396-1.712 1.553 1.553 0 0 1 1.707 1.397 1.553 1.553 0 0 1-1.397 1.707c-.056.016-.105.016-.16.016Zm.005-3.01c-.05 0-.1 0-.149.006-.795.077-1.38.79-1.298 1.59a1.454 1.454 0 0 0 2.568.773 1.454 1.454 0 0 0-.204-2.043 1.444 1.444 0 0 0-.917-.326ZM86.107 32.973a1.566 1.566 0 0 1-1.21-2.551c.266-.32.641-.525 1.056-.564a1.553 1.553 0 0 1 1.706 1.397 1.552 1.552 0 0 1-1.397 1.707c-.05.01-.1.01-.155.01Zm.006-3.01c-.05 0-.1 0-.15.006a1.454 1.454 0 0 0-1.298 1.59 1.451 1.451 0 1 0 1.448-1.596ZM89.89 32.592c-.358 0-.7-.122-.982-.354a1.555 1.555 0 0 1-.563-1.054 1.553 1.553 0 0 1 1.397-1.707 1.553 1.553 0 0 1 1.706 1.397 1.566 1.566 0 0 1-1.397 1.712c-.055.006-.11.006-.16.006Zm.006-3.01c-.05 0-.099 0-.149.006a1.454 1.454 0 0 0-.773 2.568c.298.242.68.358 1.066.32a1.448 1.448 0 0 0 1.298-1.59 1.444 1.444 0 0 0-1.441-1.303ZM37.935 42.145a1 1 0 0 1-1.095-.896l-.076-.765a1 1 0 0 1 .895-1.095l1.307-.131a1 1 0 0 1 1.095.895l.076.766a1 1 0 0 1-.895 1.095l-1.306.13Zm-.155-2.656a1 1 0 0 0-.895 1.094l.055.545a1 1 0 0 0 1.095.895l1.086-.109a1 1 0 0 0 .895-1.095l-.055-.544a1 1 0 0 0-1.095-.896l-1.086.11ZM44.274 41.682c-.36 0-.702-.122-.983-.354a1.555 1.555 0 0 1-.564-1.055 1.552 1.552 0 0 1 1.398-1.706 1.552 1.552 0 0 1 1.706 1.397 1.553 1.553 0 0 1-1.397 1.707c-.05.005-.105.01-.16.01Zm.005-3.016c-.05 0-.1 0-.149.006a1.454 1.454 0 0 0-.773 2.568 1.454 1.454 0 0 0 2.043-.205 1.454 1.454 0 0 0-.204-2.043c-.26-.21-.58-.326-.917-.326ZM48.07 41.3a1.555 1.555 0 0 1-1.546-1.408 1.552 1.552 0 0 1 1.397-1.706 1.553 1.553 0 0 1 1.707 1.397 1.553 1.553 0 0 1-1.397 1.707c-.056.005-.105.01-.16.01Zm.006-3.015c-.05 0-.1 0-.144.006a1.454 1.454 0 0 0-.773 2.568 1.454 1.454 0 0 0 2.044-.205c.243-.298.359-.679.32-1.065a1.463 1.463 0 0 0-1.447-1.304ZM51.86 40.92c-.36 0-.702-.122-.983-.354a1.555 1.555 0 0 1-.564-1.055 1.553 1.553 0 0 1 1.398-1.706 1.566 1.566 0 0 1 1.711 1.397 1.552 1.552 0 0 1-1.397 1.707c-.06.005-.11.01-.165.01Zm.005-3.016c-.05 0-.1 0-.144.006a1.454 1.454 0 0 0 .293 2.888 1.454 1.454 0 0 0 1.298-1.59 1.463 1.463 0 0 0-1.447-1.304ZM55.672 40.538a1.556 1.556 0 0 1-1.546-1.408 1.553 1.553 0 0 1 1.397-1.706 1.566 1.566 0 0 1 1.712 1.397 1.552 1.552 0 0 1-1.397 1.706c-.061.006-.11.011-.166.011Zm.006-3.015c-.05 0-.1 0-.144.006a1.454 1.454 0 0 0-.773 2.568 1.454 1.454 0 0 0 2.043-.205c.243-.298.36-.679.32-1.066a1.462 1.462 0 0 0-1.446-1.303ZM59.474 40.158a1.566 1.566 0 0 1-1.209-2.552 1.566 1.566 0 0 1 2.767.834 1.566 1.566 0 0 1-1.397 1.712c-.056 0-.105.006-.16.006Zm.006-3.016c-.05 0-.1 0-.144.006a1.454 1.454 0 0 0-1.298 1.59 1.451 1.451 0 1 0 2.889-.292 1.462 1.462 0 0 0-1.447-1.304ZM67.823 39.147l-.276-2.756 3.297-.331.276 2.755-3.297.332Zm-.155-2.656.254 2.534 3.076-.309-.254-2.535-3.076.31ZM75.156 38.584c-.359 0-.7-.122-.983-.354a1.556 1.556 0 0 1-.563-1.054 1.552 1.552 0 0 1 1.397-1.707 1.552 1.552 0 0 1 1.707 1.397 1.552 1.552 0 0 1-1.397 1.707c-.056.005-.105.01-.16.01Zm.006-3.016c-.05 0-.1 0-.15.006a1.454 1.454 0 0 0-.773 2.568 1.454 1.454 0 0 0 2.044-.204 1.454 1.454 0 0 0-.204-2.044c-.26-.21-.58-.325-.917-.325ZM78.945 38.203c-.358 0-.7-.122-.982-.354a1.555 1.555 0 0 1-.564-1.054 1.552 1.552 0 0 1 1.397-1.707 1.553 1.553 0 0 1 1.707 1.397 1.553 1.553 0 0 1-1.397 1.707c-.055.005-.105.01-.16.01Zm.006-3.016c-.05 0-.1 0-.15.006a1.454 1.454 0 0 0-.773 2.568 1.454 1.454 0 0 0 2.044-.204 1.454 1.454 0 0 0-.204-2.044c-.26-.21-.58-.325-.917-.325ZM82.75 37.822c-.359 0-.701-.122-.983-.354a1.556 1.556 0 0 1-.563-1.055 1.553 1.553 0 0 1 1.397-1.706 1.553 1.553 0 0 1 1.707 1.397 1.552 1.552 0 0 1-1.398 1.707c-.055.005-.105.01-.16.01Zm.006-3.016c-.05 0-.1 0-.144.006a1.454 1.454 0 0 0-.773 2.568 1.454 1.454 0 0 0 2.043-.205c.243-.298.36-.679.32-1.065a1.462 1.462 0 0 0-1.446-1.304ZM86.568 37.44a1.566 1.566 0 0 1-1.21-2.55 1.566 1.566 0 0 1 2.767.834 1.566 1.566 0 0 1-1.397 1.71c-.055 0-.104.006-.16.006Zm.006-3.015c-.05 0-.1 0-.144.006a1.454 1.454 0 0 0-.773 2.568c.298.243.68.359 1.066.32a1.448 1.448 0 0 0 1.298-1.59 1.462 1.462 0 0 0-1.447-1.304ZM90.357 37.06c-.79 0-1.469-.602-1.552-1.403a1.553 1.553 0 0 1 1.398-1.706 1.566 1.566 0 0 1 1.712 1.397 1.565 1.565 0 0 1-1.398 1.712c-.055-.006-.105 0-.16 0Zm.006-3.016c-.05 0-.1 0-.144.006a1.454 1.454 0 0 0 .293 2.888 1.448 1.448 0 0 0 1.298-1.59 1.462 1.462 0 0 0-1.447-1.304ZM38.404 46.612a1 1 0 0 1-1.095-.895l-.076-.765a1 1 0 0 1 .895-1.095l1.306-.132a1 1 0 0 1 1.095.896l.077.765a1 1 0 0 1-.895 1.095l-1.307.131Zm-.16-2.656a1 1 0 0 0-.895 1.095l.054.545a1 1 0 0 0 1.095.895l1.086-.11a1 1 0 0 0 .895-1.094l-.054-.545a1 1 0 0 0-1.095-.895l-1.087.11ZM44.732 46.144c-.79 0-1.469-.602-1.552-1.403a1.566 1.566 0 0 1 1.397-1.712 1.566 1.566 0 0 1 1.712 1.397 1.566 1.566 0 0 1-1.397 1.712c-.055.006-.11.006-.16.006Zm0-3.01c-.05 0-.1 0-.144.006-.795.077-1.38.79-1.297 1.59.077.795.79 1.38 1.59 1.298a1.448 1.448 0 0 0 1.298-1.59 1.458 1.458 0 0 0-1.447-1.304ZM48.529 45.763c-.79 0-1.47-.602-1.552-1.403a1.566 1.566 0 0 1 1.397-1.712 1.565 1.565 0 0 1 1.712 1.397 1.566 1.566 0 0 1-1.397 1.712c-.055.006-.11.006-.16.006Zm0-3.01c-.05 0-.1 0-.144.006-.795.077-1.38.79-1.297 1.59.077.795.79 1.38 1.59 1.298a1.448 1.448 0 0 0 1.298-1.59 1.458 1.458 0 0 0-1.447-1.304ZM52.334 45.382c-.79 0-1.47-.602-1.552-1.403a1.566 1.566 0 0 1 1.397-1.712 1.565 1.565 0 0 1 1.712 1.397 1.566 1.566 0 0 1-1.397 1.712c-.056.006-.11.006-.16.006Zm0-3.01c-.05 0-.1 0-.144.005-.795.078-1.38.79-1.298 1.591.077.795.79 1.38 1.59 1.298a1.448 1.448 0 0 0 1.298-1.59 1.458 1.458 0 0 0-1.447-1.304ZM56.123 45c-.79 0-1.47-.601-1.552-1.402a1.566 1.566 0 0 1 1.397-1.712 1.566 1.566 0 0 1 1.712 1.397 1.566 1.566 0 0 1-1.397 1.712c-.061.006-.11.006-.16.006Zm0-3.009c-.05 0-.1 0-.15.005-.795.078-1.38.79-1.297 1.591a1.451 1.451 0 1 0 2.888-.293 1.439 1.439 0 0 0-.525-.977 1.422 1.422 0 0 0-.916-.326ZM59.912 44.62c-.79 0-1.47-.602-1.552-1.403a1.566 1.566 0 0 1 1.397-1.712 1.565 1.565 0 0 1 1.712 1.397 1.566 1.566 0 0 1-1.397 1.712c-.055.006-.105.006-.16.006Zm.005-3.01c-.05 0-.1 0-.149.005a1.45 1.45 0 1 0 1.59 1.298 1.439 1.439 0 0 0-.524-.977 1.433 1.433 0 0 0-.917-.326ZM68.276 43.615 68 40.859l3.297-.331.276 2.755-3.297.332Zm-.154-2.662.254 2.535 3.075-.31-.253-2.534-3.076.309ZM75.6 43.046a1.566 1.566 0 0 1-1.21-2.552 1.566 1.566 0 0 1 2.767.834 1.566 1.566 0 0 1-1.397 1.712c-.056.006-.11.006-.16.006Zm0-3.01c-.05 0-.1 0-.144.006a1.439 1.439 0 0 0-.978.524c-.242.298-.358.68-.32 1.066.078.795.79 1.38 1.59 1.298a1.448 1.448 0 0 0 1.298-1.59 1.458 1.458 0 0 0-1.447-1.304ZM79.396 42.665c-.79 0-1.469-.602-1.552-1.408a1.566 1.566 0 0 1 1.397-1.712 1.566 1.566 0 0 1 1.712 1.397 1.565 1.565 0 0 1-1.397 1.712.806.806 0 0 1-.16.01Zm0-3.01c-.05 0-.1 0-.144.005a1.451 1.451 0 1 0 .144-.005ZM83.2 42.284c-.789 0-1.468-.602-1.551-1.403a1.566 1.566 0 0 1 1.397-1.712 1.566 1.566 0 0 1 1.712 1.397 1.566 1.566 0 0 1-1.397 1.712c-.06.006-.11.006-.16.006Zm0-3.01c-.049 0-.099 0-.143.005-.795.078-1.38.79-1.298 1.59.078.796.79 1.382 1.59 1.299a1.448 1.448 0 0 0 1.299-1.59 1.458 1.458 0 0 0-1.447-1.304ZM87.005 41.903c-.79 0-1.469-.602-1.551-1.403a1.566 1.566 0 0 1 1.397-1.712 1.566 1.566 0 0 1 1.712 1.397 1.553 1.553 0 0 1-1.398 1.707c-.055.01-.104.01-.16.01Zm.006-3.01c-.05 0-.1 0-.144.006a1.454 1.454 0 0 0-1.298 1.59 1.45 1.45 0 1 0 2.889-.293 1.462 1.462 0 0 0-1.447-1.303ZM90.81 41.522c-.79 0-1.469-.602-1.551-1.403a1.553 1.553 0 0 1 1.397-1.707 1.566 1.566 0 0 1 1.712 1.398 1.553 1.553 0 0 1-1.397 1.706c-.056.006-.105.006-.16.006Zm.006-3.01c-.05 0-.1 0-.144.005a1.454 1.454 0 0 0-1.298 1.59 1.451 1.451 0 1 0 2.889-.292 1.462 1.462 0 0 0-1.447-1.303ZM38.842 51.075a1 1 0 0 1-1.095-.896l-.077-.765a1 1 0 0 1 .895-1.095l1.307-.131a1 1 0 0 1 1.095.895l.077.766a1 1 0 0 1-.895 1.094l-1.307.132Zm-.161-2.657a1 1 0 0 0-.895 1.095l.055.545a1 1 0 0 0 1.095.895l1.086-.109a1 1 0 0 0 .895-1.095l-.055-.544a1 1 0 0 0-1.095-.896l-1.086.11ZM45.178 50.611a1.566 1.566 0 0 1-1.21-2.551c.265-.32.64-.525 1.055-.563a1.552 1.552 0 0 1 1.706 1.397 1.553 1.553 0 0 1-1.397 1.706 1.46 1.46 0 0 1-.154.011Zm.005-3.015c-.05 0-.1 0-.149.006a1.454 1.454 0 0 0-1.298 1.59 1.45 1.45 0 1 0 2.888-.293 1.439 1.439 0 0 0-.524-.977 1.476 1.476 0 0 0-.917-.326ZM48.977 50.23a1.556 1.556 0 0 1-1.546-1.408 1.552 1.552 0 0 1 1.397-1.706 1.552 1.552 0 0 1 1.706 1.397 1.553 1.553 0 0 1-1.397 1.706c-.055.006-.11.011-.16.011Zm.005-3.015c-.05 0-.1 0-.149.005a1.439 1.439 0 0 0-.977.525 1.455 1.455 0 0 0 .204 2.043 1.454 1.454 0 0 0 2.364-1.27 1.439 1.439 0 0 0-.525-.977 1.476 1.476 0 0 0-.917-.326ZM52.782 49.85c-.36 0-.702-.122-.983-.354a1.556 1.556 0 0 1-.564-1.055 1.552 1.552 0 0 1 1.397-1.706c.415-.039.823.083 1.144.342.32.265.524.64.563 1.055a1.552 1.552 0 0 1-1.397 1.706c-.05.006-.105.011-.16.011Zm.005-3.016c-.05 0-.1 0-.15.006a1.454 1.454 0 0 0-.773 2.568 1.454 1.454 0 0 0 2.044-.205 1.454 1.454 0 0 0-.204-2.043c-.26-.21-.58-.326-.917-.326ZM56.563 49.468a1.555 1.555 0 0 1-1.546-1.408 1.553 1.553 0 0 1 1.397-1.706c.414-.039.822.083 1.143.342.32.265.524.64.563 1.055a1.552 1.552 0 0 1-1.397 1.706c-.055.006-.105.011-.16.011Zm.005-3.015c-.05 0-.1 0-.149.006a1.454 1.454 0 0 0 .293 2.888 1.455 1.455 0 0 0 .773-2.568c-.26-.21-.58-.326-.917-.326ZM60.367 49.087a1.556 1.556 0 0 1-1.546-1.408 1.553 1.553 0 0 1 1.397-1.706c.414-.039.823.083 1.143.342.32.265.525.64.564 1.055a1.552 1.552 0 0 1-1.397 1.706c-.056.006-.105.011-.16.011Zm.006-3.015c-.05 0-.1 0-.15.005a1.454 1.454 0 0 0 .293 2.888c.387-.038.735-.226.978-.524a1.454 1.454 0 0 0-.204-2.043c-.26-.21-.58-.326-.917-.326ZM68.737 48.077l-.276-2.756 3.297-.331.276 2.755-3.297.332Zm-.16-2.657.254 2.535 3.076-.31-.254-2.534-3.076.31ZM76.052 47.514c-.79 0-1.469-.602-1.552-1.403a1.566 1.566 0 0 1 1.398-1.712 1.553 1.553 0 0 1 1.706 1.397 1.566 1.566 0 0 1-1.397 1.712c-.05 0-.105.005-.155.005Zm.006-3.016c-.05 0-.1 0-.15.006a1.451 1.451 0 1 0 1.59 1.298 1.439 1.439 0 0 0-.523-.978 1.476 1.476 0 0 0-.917-.326ZM79.85 47.132c-.79 0-1.47-.602-1.553-1.402a1.566 1.566 0 0 1 1.398-1.712 1.553 1.553 0 0 1 1.706 1.397 1.553 1.553 0 0 1-1.397 1.706c-.05.006-.105.011-.155.011Zm0-3.015c-.05 0-.1 0-.15.006a1.451 1.451 0 1 0 .15-.006ZM83.67 46.752c-.79 0-1.47-.602-1.552-1.403a1.566 1.566 0 0 1 1.397-1.712 1.566 1.566 0 0 1 1.712 1.397 1.553 1.553 0 0 1-1.397 1.706c-.056.006-.11.011-.16.011Zm0-3.016c-.05 0-.1 0-.15.006a1.451 1.451 0 1 0 .15-.006ZM87.459 46.37c-.79 0-1.47-.602-1.552-1.402a1.566 1.566 0 0 1 1.397-1.712c.414-.039.823.083 1.143.342.32.265.525.64.563 1.055a1.552 1.552 0 0 1-1.397 1.706c-.055.006-.105.011-.154.011Zm0-3.015c-.05 0-.1 0-.15.006a1.451 1.451 0 1 0 .15-.005ZM91.25 45.989a1.555 1.555 0 0 1-1.546-1.408 1.566 1.566 0 0 1 1.397-1.712 1.552 1.552 0 0 1 1.706 1.397 1.553 1.553 0 0 1-1.397 1.706.791.791 0 0 1-.16.017Zm.005-3.015c-.05 0-.099 0-.149.005-.795.078-1.38.79-1.297 1.59.038.387.226.735.524.978a1.454 1.454 0 0 0 2.043-.204 1.454 1.454 0 0 0-.204-2.043c-.26-.21-.58-.326-.917-.326ZM39.295 55.542a1 1 0 0 1-1.095-.895l-.077-.765a1 1 0 0 1 .895-1.095l1.307-.132a1 1 0 0 1 1.095.896l.077.765a1 1 0 0 1-.895 1.095l-1.307.131Zm-.155-2.661a1 1 0 0 0-.895 1.094l.054.545a1 1 0 0 0 1.095.895l1.086-.109a1 1 0 0 0 .895-1.094l-.054-.545a1 1 0 0 0-1.095-.895l-1.086.109ZM45.633 55.073a1.555 1.555 0 0 1-1.546-1.408 1.566 1.566 0 0 1 1.397-1.712 1.556 1.556 0 0 1 1.706 1.397 1.552 1.552 0 0 1-1.397 1.707c-.055.016-.11.016-.16.016Zm.005-3.01c-.05 0-.1 0-.149.006-.795.078-1.38.79-1.298 1.59a1.454 1.454 0 0 0 2.568.773 1.454 1.454 0 0 0-.204-2.043 1.444 1.444 0 0 0-.917-.325ZM49.43 54.692a1.556 1.556 0 0 1-1.546-1.408 1.553 1.553 0 0 1 1.397-1.706c.414-.039.823.083 1.143.342a1.565 1.565 0 0 1-.834 2.767c-.055.005-.11.005-.16.005Zm.005-3.01c-.05 0-.099 0-.149.006a1.454 1.454 0 0 0-.773 2.568c.298.243.68.359 1.066.32a1.448 1.448 0 0 0 1.298-1.59 1.443 1.443 0 0 0-1.441-1.303ZM53.234 54.312c-.359 0-.701-.122-.983-.354a1.566 1.566 0 0 1 .834-2.767 1.556 1.556 0 0 1 1.707 1.397 1.553 1.553 0 0 1-1.398 1.707c-.055.017-.11.017-.16.017Zm.006-3.01c-.05 0-.1 0-.15.005-.795.078-1.38.79-1.297 1.59a1.454 1.454 0 0 0 2.568.773 1.454 1.454 0 0 0-.204-2.042 1.444 1.444 0 0 0-.917-.326ZM57.016 53.93a1.556 1.556 0 0 1-1.546-1.408 1.566 1.566 0 0 1 1.396-1.712 1.565 1.565 0 0 1 1.712 1.397 1.566 1.566 0 0 1-1.397 1.712c-.055.011-.11.011-.165.011Zm.005-3.01c-.05 0-.1 0-.144.006-.795.078-1.38.79-1.297 1.59.038.387.226.735.524.978.299.243.68.36 1.066.32a1.448 1.448 0 0 0 1.298-1.59 1.458 1.458 0 0 0-1.447-1.303ZM60.818 53.55c-.79 0-1.47-.602-1.552-1.403a1.566 1.566 0 0 1 1.397-1.712 1.566 1.566 0 0 1 1.712 1.397 1.566 1.566 0 0 1-1.397 1.712c-.055.005-.11.005-.16.005Zm0-3.01c-.05 0-.1 0-.144.005-.795.078-1.38.79-1.297 1.59.077.796.79 1.381 1.59 1.299a1.448 1.448 0 0 0 1.298-1.591 1.458 1.458 0 0 0-1.447-1.303ZM69.175 52.544l-.277-2.755 3.297-.332.276 2.756-3.296.331Zm-.155-2.661.254 2.534 3.076-.309-.254-2.535-3.076.31ZM76.492 51.976c-.359 0-.7-.122-.983-.354a1.556 1.556 0 0 1-.563-1.055 1.553 1.553 0 0 1 1.397-1.706c.414-.039.823.083 1.143.342.32.265.525.64.564 1.055a1.552 1.552 0 0 1-1.397 1.706c-.056.012-.11.012-.16.012Zm.006-3.01c-.05 0-.1 0-.15.005a1.454 1.454 0 0 0-.773 2.568 1.454 1.454 0 0 0 2.044-.204 1.455 1.455 0 0 0-.204-2.043 1.443 1.443 0 0 0-.917-.326ZM80.281 51.594a1.556 1.556 0 0 1-1.546-1.408 1.552 1.552 0 0 1 1.397-1.706 1.555 1.555 0 0 1 1.706 1.397 1.553 1.553 0 0 1-1.396 1.706c-.056.011-.11.011-.16.011Zm.006-3.01c-.05 0-.1 0-.15.006a1.439 1.439 0 0 0-.977.525 1.455 1.455 0 0 0 .205 2.043 1.454 1.454 0 0 0 2.043-.204 1.454 1.454 0 0 0-.204-2.044 1.444 1.444 0 0 0-.917-.325ZM84.102 51.213a1.556 1.556 0 0 1-1.546-1.408 1.552 1.552 0 0 1 1.397-1.706c.414-.039.822.083 1.143.342.32.265.524.64.563 1.055a1.552 1.552 0 0 1-1.397 1.706c-.05.011-.105.011-.16.011Zm.005-3.01c-.05 0-.1 0-.149.006a1.439 1.439 0 0 0-.977.525 1.455 1.455 0 0 0 .204 2.043c.298.243.68.359 1.066.32a1.448 1.448 0 0 0 1.298-1.59 1.439 1.439 0 0 0-.525-.977 1.421 1.421 0 0 0-.917-.326ZM87.899 50.832a1.555 1.555 0 0 1-1.546-1.408 1.552 1.552 0 0 1 1.397-1.706 1.553 1.553 0 0 1 1.706 1.397 1.553 1.553 0 0 1-1.397 1.706c-.055.006-.105.011-.16.011Zm.005-3.015c-.05 0-.1 0-.149.005a1.454 1.454 0 0 0-.773 2.568 1.455 1.455 0 0 0 2.043-.204 1.454 1.454 0 0 0-.204-2.043c-.26-.21-.58-.326-.917-.326ZM91.695 50.451a1.555 1.555 0 0 1-1.546-1.408 1.553 1.553 0 0 1 1.397-1.706 1.553 1.553 0 0 1 1.707 1.397 1.553 1.553 0 0 1-1.397 1.706c-.055.006-.105.011-.16.011Zm.006-3.015c-.05 0-.1 0-.149.005a1.454 1.454 0 0 0 .293 2.888c.386-.038.734-.226.977-.524a1.454 1.454 0 0 0-.204-2.043c-.26-.21-.58-.326-.917-.326ZM39.732 60.005a1 1 0 0 1-1.095-.896l-.076-.765a1 1 0 0 1 .895-1.095l1.306-.131a1 1 0 0 1 1.096.895l.076.766a1 1 0 0 1-.895 1.094l-1.307.132Zm-.155-2.657a1 1 0 0 0-.895 1.095l.055.545a1 1 0 0 0 1.095.895l1.086-.11a1 1 0 0 0 .895-1.094l-.055-.545a1 1 0 0 0-1.095-.895l-1.086.11ZM46.076 59.541c-.79 0-1.47-.602-1.552-1.403a1.566 1.566 0 0 1 1.397-1.712 1.566 1.566 0 0 1 1.712 1.398 1.552 1.552 0 0 1-1.397 1.706c-.055.006-.105.011-.16.011Zm.005-3.015c-.05 0-.1 0-.143.005a1.45 1.45 0 1 0 1.59 1.298 1.462 1.462 0 0 0-1.447-1.303ZM49.867 59.16a1.555 1.555 0 0 1-1.546-1.408 1.566 1.566 0 0 1 1.397-1.712 1.566 1.566 0 0 1 1.712 1.397 1.552 1.552 0 0 1-1.397 1.707.928.928 0 0 1-.166.016Zm.006-3.015c-.05 0-.1 0-.144.006-.795.077-1.38.79-1.298 1.59a1.454 1.454 0 0 0 2.568.773c.243-.298.36-.68.32-1.066a1.462 1.462 0 0 0-1.446-1.303ZM53.68 58.774c-.359 0-.701-.122-.983-.354a1.555 1.555 0 0 1-.563-1.055 1.553 1.553 0 0 1 1.397-1.706 1.566 1.566 0 0 1 1.712 1.397 1.553 1.553 0 0 1-1.397 1.707c-.061.01-.116.01-.166.01Zm0-3.01c-.05 0-.1 0-.144.005a1.454 1.454 0 0 0-.773 2.568 1.454 1.454 0 0 0 2.364-1.27 1.454 1.454 0 0 0-1.447-1.303ZM57.469 58.393c-.359 0-.701-.122-.983-.354a1.555 1.555 0 0 1-.563-1.055 1.553 1.553 0 0 1 1.397-1.706 1.566 1.566 0 0 1 1.712 1.397 1.552 1.552 0 0 1-1.397 1.707c-.061.01-.116.01-.166.01Zm0-3.01c-.05 0-.1 0-.144.005a1.454 1.454 0 0 0-.773 2.568 1.454 1.454 0 0 0 2.044-.204c.243-.298.359-.68.32-1.066a1.458 1.458 0 0 0-1.447-1.303ZM61.258 58.012c-.359 0-.701-.122-.983-.354a1.555 1.555 0 0 1-.563-1.055 1.553 1.553 0 0 1 1.397-1.706 1.553 1.553 0 0 1 1.706 1.397 1.553 1.553 0 0 1-1.397 1.707c-.05.01-.105.01-.16.01Zm.006-3.01c-.05 0-.1 0-.15.005a1.454 1.454 0 0 0-.773 2.568 1.454 1.454 0 0 0 2.044-.204 1.454 1.454 0 0 0-.205-2.043c-.26-.21-.58-.326-.916-.326ZM69.628 57.006l-.276-2.755 3.296-.332.277 2.756-3.297.331Zm-.155-2.656.254 2.535 3.076-.31-.254-2.534-3.076.309ZM76.96 56.438c-.358 0-.7-.122-.982-.354a1.566 1.566 0 0 1 .834-2.767 1.566 1.566 0 0 1 1.712 1.398 1.565 1.565 0 0 1-1.398 1.712c-.06.01-.116.01-.165.01Zm.006-3.01c-.05 0-.1 0-.143.006-.795.077-1.38.79-1.298 1.59a1.454 1.454 0 0 0 1.59 1.298 1.448 1.448 0 0 0 1.298-1.59 1.462 1.462 0 0 0-1.447-1.304ZM80.766 56.057c-.36 0-.702-.122-.984-.354a1.566 1.566 0 0 1 .834-2.767 1.566 1.566 0 0 1 1.712 1.398 1.566 1.566 0 0 1-1.397 1.712c-.06.01-.116.01-.165.01Zm0-3.01c-.05 0-.1 0-.144.006-.795.077-1.38.79-1.298 1.59a1.454 1.454 0 0 0 1.59 1.298 1.448 1.448 0 0 0 1.298-1.59 1.454 1.454 0 0 0-1.447-1.304ZM84.56 55.675c-.79 0-1.469-.601-1.552-1.402a1.565 1.565 0 0 1 1.397-1.712 1.566 1.566 0 0 1 1.712 1.397 1.566 1.566 0 0 1-1.397 1.712c-.055.005-.11.005-.16.005Zm0-3.01c-.05 0-.1 0-.144.006a1.451 1.451 0 1 0 .144-.005ZM88.35 55.294c-.79 0-1.47-.602-1.552-1.402a1.552 1.552 0 0 1 1.397-1.707 1.566 1.566 0 0 1 1.712 1.397 1.566 1.566 0 0 1-1.397 1.712h-.16Zm0-3.01c-.05 0-.1 0-.144.006a1.439 1.439 0 0 0-.978.525 1.451 1.451 0 1 0 2.568.773 1.458 1.458 0 0 0-1.447-1.303ZM92.154 54.914c-.79 0-1.469-.602-1.552-1.403A1.553 1.553 0 0 1 92 51.805a1.566 1.566 0 0 1 1.712 1.397 1.566 1.566 0 0 1-1.398 1.712h-.16Zm0-3.01c-.05 0-.1 0-.143.006a1.439 1.439 0 0 0-.978.524 1.451 1.451 0 1 0 2.568.773 1.458 1.458 0 0 0-1.447-1.303ZM40.185 64.472a1 1 0 0 1-1.095-.895l-.076-.766a1 1 0 0 1 .895-1.095l1.307-.131a1 1 0 0 1 1.095.895l.076.766a1 1 0 0 1-.895 1.095l-1.306.131Zm-.155-2.662a1 1 0 0 0-.895 1.095l.055.545a1 1 0 0 0 1.095.895l1.086-.11a1 1 0 0 0 .895-1.094l-.055-.545a1 1 0 0 0-1.095-.895l-1.086.11ZM46.521 64.003a1.566 1.566 0 0 1-1.209-2.551 1.566 1.566 0 0 1 2.767.834 1.566 1.566 0 0 1-1.398 1.712c-.055 0-.104.005-.16.005Zm.006-3.01c-.05 0-.1 0-.144.006a1.455 1.455 0 0 0-1.298 1.59 1.451 1.451 0 1 0 2.889-.292 1.462 1.462 0 0 0-1.447-1.304ZM50.318 63.622a1.566 1.566 0 0 1-1.21-2.551c.266-.32.641-.525 1.056-.564a1.553 1.553 0 0 1 1.706 1.398 1.565 1.565 0 0 1-1.397 1.712c-.05 0-.1.005-.155.005Zm.006-3.015c-.05 0-.1 0-.15.005a1.454 1.454 0 0 0 .293 2.888 1.448 1.448 0 0 0 1.298-1.59 1.439 1.439 0 0 0-.525-.977 1.476 1.476 0 0 0-.916-.326ZM54.125 63.241a1.555 1.555 0 0 1-1.546-1.408 1.566 1.566 0 0 1 1.397-1.712 1.553 1.553 0 0 1 1.706 1.397 1.566 1.566 0 0 1-1.397 1.712c-.055.006-.11.011-.16.011Zm.005-3.015c-.05 0-.099 0-.149.005-.795.078-1.38.79-1.297 1.59.038.387.226.735.524.978.298.243.68.36 1.066.32a1.448 1.448 0 0 0 1.298-1.59 1.439 1.439 0 0 0-.525-.977 1.476 1.476 0 0 0-.917-.326ZM57.914 62.86a1.556 1.556 0 0 1-1.546-1.408 1.566 1.566 0 0 1 1.397-1.712 1.553 1.553 0 0 1 1.706 1.397 1.553 1.553 0 0 1-1.397 1.706.827.827 0 0 1-.16.017Zm.005-3.015c-.05 0-.099 0-.149.005-.795.078-1.38.79-1.297 1.59.038.387.226.735.524.978a1.454 1.454 0 0 0 2.044-.204 1.454 1.454 0 0 0-.205-2.043 1.476 1.476 0 0 0-.917-.326ZM61.711 62.48c-.359 0-.701-.122-.983-.354a1.555 1.555 0 0 1-.563-1.055 1.552 1.552 0 0 1 1.397-1.706 1.552 1.552 0 0 1 1.707 1.397 1.566 1.566 0 0 1-1.398 1.712c-.055 0-.11.005-.16.005Zm.006-3.016c-.05 0-.1 0-.15.005a1.439 1.439 0 0 0-.977.525 1.455 1.455 0 0 0 .204 2.043c.299.243.68.36 1.066.32a1.448 1.448 0 0 0 1.298-1.59 1.439 1.439 0 0 0-.525-.977 1.476 1.476 0 0 0-.916-.326ZM70.065 61.468l-.276-2.755 3.297-.331.276 2.755-3.297.331Zm-.154-2.656.254 2.535 3.076-.31-.254-2.534-3.076.31ZM77.399 60.905a1.555 1.555 0 0 1-1.546-1.408 1.552 1.552 0 0 1 1.397-1.706 1.566 1.566 0 0 1 1.712 1.397 1.552 1.552 0 0 1-1.398 1.706c-.06.006-.116.011-.165.011Zm.005-3.015c-.05 0-.1 0-.143.006a1.454 1.454 0 0 0-.773 2.568 1.454 1.454 0 0 0 2.043-.205c.243-.298.359-.68.32-1.066a1.467 1.467 0 0 0-1.447-1.303ZM81.195 60.524a1.555 1.555 0 0 1-1.546-1.408 1.552 1.552 0 0 1 1.397-1.707 1.566 1.566 0 0 1 1.712 1.398 1.553 1.553 0 0 1-1.397 1.706c-.06.006-.116.011-.166.011Zm.006-3.015c-.05 0-.1 0-.143.005a1.439 1.439 0 0 0-.978.525 1.455 1.455 0 0 0 .204 2.043 1.454 1.454 0 0 0 2.044-.204c.243-.298.359-.68.32-1.066A1.467 1.467 0 0 0 81.2 57.51ZM84.998 60.143a1.566 1.566 0 0 1-1.21-2.551c.26-.32.641-.525 1.055-.564a1.552 1.552 0 0 1 1.707 1.398 1.552 1.552 0 0 1-1.397 1.706c-.05.006-.105.011-.155.011Zm.005-3.015c-.05 0-.099 0-.149.005a1.454 1.454 0 0 0 .293 2.888c.387-.038.735-.226.978-.524a1.454 1.454 0 0 0-.205-2.043 1.476 1.476 0 0 0-.916-.326ZM88.79 59.762a1.556 1.556 0 0 1-1.546-1.408 1.553 1.553 0 0 1 1.396-1.706 1.553 1.553 0 0 1 1.707 1.397 1.553 1.553 0 0 1-1.398 1.706c-.055.006-.11.011-.16.011Zm.005-3.015c-.05 0-.1 0-.15.005a1.454 1.454 0 0 0-.773 2.568 1.454 1.454 0 0 0 2.044-.204 1.455 1.455 0 0 0-.204-2.043 1.476 1.476 0 0 0-.917-.326ZM92.586 59.381a1.555 1.555 0 0 1-1.546-1.408 1.553 1.553 0 0 1 1.397-1.707 1.553 1.553 0 0 1 1.707 1.398 1.553 1.553 0 0 1-1.398 1.706 1.44 1.44 0 0 1-.16.011Zm.006-3.015c-.05 0-.1 0-.15.005a1.454 1.454 0 0 0-.773 2.568 1.455 1.455 0 0 0 2.044-.204 1.454 1.454 0 0 0-.205-2.043c-.26-.21-.58-.326-.916-.326ZM40.623 68.934a1 1 0 0 1-1.095-.895l-.077-.766a1 1 0 0 1 .895-1.094l1.307-.132a1 1 0 0 1 1.095.895l.077.766a1 1 0 0 1-.895 1.095l-1.307.131Zm-.155-2.656a1 1 0 0 0-.895 1.095l.054.544a1 1 0 0 0 1.095.896l1.086-.11a1 1 0 0 0 .895-1.094l-.054-.545a1 1 0 0 0-1.095-.895l-1.086.109ZM46.96 68.466c-.358 0-.7-.122-.982-.354a1.566 1.566 0 0 1 .834-2.767 1.566 1.566 0 0 1 1.712 1.398 1.566 1.566 0 0 1-1.398 1.711c-.06.012-.11.012-.165.012Zm.006-3.01c-.05 0-.1 0-.143.005-.795.078-1.38.79-1.298 1.59a1.454 1.454 0 0 0 1.59 1.298 1.448 1.448 0 0 0 1.298-1.59 1.462 1.462 0 0 0-1.447-1.303ZM50.771 68.085a1.566 1.566 0 0 1-1.209-2.552c.265-.32.64-.525 1.055-.563a1.553 1.553 0 0 1 1.706 1.397 1.566 1.566 0 0 1-1.397 1.712c-.05.006-.1.006-.155.006Zm.006-3.01c-.05 0-.1 0-.15.005a1.454 1.454 0 0 0-1.298 1.59c.078.796.79 1.381 1.591 1.299a1.448 1.448 0 0 0 1.298-1.591 1.439 1.439 0 0 0-.524-.977 1.476 1.476 0 0 0-.917-.326ZM54.57 67.703a1.556 1.556 0 0 1-1.546-1.408 1.566 1.566 0 0 1 1.397-1.712 1.566 1.566 0 0 1 1.712 1.397 1.552 1.552 0 0 1-1.397 1.707c-.06.016-.116.016-.166.016Zm.006-3.01c-.05 0-.1 0-.15.006-.795.078-1.38.79-1.297 1.59a1.454 1.454 0 0 0 2.568.773 1.454 1.454 0 0 0-.205-2.043 1.476 1.476 0 0 0-.916-.325ZM58.365 67.322c-.79 0-1.47-.602-1.552-1.408a1.566 1.566 0 0 1 1.397-1.712 1.566 1.566 0 0 1 1.712 1.397 1.553 1.553 0 0 1-1.397 1.707c-.055.016-.11.016-.16.016Zm0-3.01c-.05 0-.1 0-.144.006a1.451 1.451 0 1 0 .144-.005ZM62.164 66.941a1.556 1.556 0 0 1-1.546-1.408 1.566 1.566 0 0 1 1.397-1.712 1.566 1.566 0 0 1 1.712 1.397 1.553 1.553 0 0 1-1.397 1.707c-.061.016-.116.016-.166.016Zm0-3.01c-.05 0-.1 0-.144.006-.795.077-1.38.79-1.297 1.59.038.387.226.735.524.978a1.454 1.454 0 0 0 2.044-.204c.242-.299.358-.68.32-1.066a1.454 1.454 0 0 0-1.447-1.303ZM70.518 65.936l-.276-2.756 3.297-.331.276 2.756-3.297.33Zm-.154-2.656.254 2.534 3.076-.309-.254-2.535-3.076.31ZM77.857 65.367c-.79 0-1.469-.602-1.552-1.408a1.566 1.566 0 0 1 1.397-1.712 1.553 1.553 0 0 1 1.707 1.397 1.566 1.566 0 0 1-1.397 1.712c-.05.011-.1.011-.155.011Zm.005-3.01c-.05 0-.099 0-.149.006a1.45 1.45 0 1 0 1.59 1.298 1.439 1.439 0 0 0-.524-.978 1.433 1.433 0 0 0-.916-.325ZM81.656 64.986a1.556 1.556 0 0 1-1.546-1.408 1.566 1.566 0 0 1 1.397-1.712 1.553 1.553 0 0 1 1.706 1.397 1.553 1.553 0 0 1-1.397 1.707c-.055.016-.11.016-.16.016Zm.006-3.01c-.05 0-.1 0-.15.006-.795.077-1.38.79-1.297 1.59.038.387.226.735.524.978a1.454 1.454 0 0 0 2.364-1.27 1.444 1.444 0 0 0-1.441-1.303ZM85.445 64.605a1.555 1.555 0 0 1-1.546-1.408 1.552 1.552 0 0 1 1.397-1.706 1.553 1.553 0 0 1 1.707 1.397 1.553 1.553 0 0 1-1.397 1.706.812.812 0 0 1-.16.011Zm.006-3.01c-.05 0-.1 0-.15.006a1.454 1.454 0 0 0-.773 2.568 1.454 1.454 0 0 0 2.044-.204 1.454 1.454 0 0 0-.204-2.044 1.444 1.444 0 0 0-.917-.325ZM89.235 64.224a1.556 1.556 0 0 1-1.546-1.408 1.553 1.553 0 0 1 1.397-1.706 1.566 1.566 0 0 1 1.711 1.397 1.552 1.552 0 0 1-1.397 1.706.897.897 0 0 1-.165.011Zm0-3.01c-.05 0-.1 0-.144.006a1.454 1.454 0 0 0-.773 2.568 1.455 1.455 0 0 0 2.043-.204c.243-.299.36-.68.32-1.066a1.454 1.454 0 0 0-1.446-1.303ZM93.045 63.843c-.79 0-1.47-.602-1.552-1.403a1.553 1.553 0 0 1 1.397-1.706 1.566 1.566 0 0 1 1.712 1.397 1.552 1.552 0 0 1-1.557 1.712Zm0-3.01c-.05 0-.1 0-.144.006a1.454 1.454 0 0 0-1.298 1.59 1.45 1.45 0 1 0 1.442-1.595ZM41.076 73.396a1 1 0 0 1-1.095-.895l-.077-.766a1 1 0 0 1 .895-1.094l1.307-.132a1 1 0 0 1 1.095.896l.077.765a1 1 0 0 1-.895 1.095l-1.307.131Zm-.155-2.656a1 1 0 0 0-.895 1.095l.054.545a1 1 0 0 0 1.096.895l1.085-.11a1 1 0 0 0 .895-1.094l-.054-.545a1 1 0 0 0-1.095-.895l-1.086.11ZM47.42 72.933a1.566 1.566 0 0 1-1.21-2.551c.265-.32.641-.525 1.055-.564a1.553 1.553 0 0 1 1.707 1.398 1.553 1.553 0 0 1-1.398 1.706c-.055.006-.105.011-.154.011Zm0-3.015c-.05 0-.1 0-.15.005a1.439 1.439 0 0 0-.977.525c-.243.298-.359.68-.32 1.066.077.795.79 1.38 1.59 1.298a1.455 1.455 0 0 0 .773-2.568c-.259-.21-.58-.326-.916-.326ZM51.211 72.552c-.359 0-.701-.122-.983-.354a1.555 1.555 0 0 1-.563-1.054 1.552 1.552 0 0 1 1.397-1.707 1.552 1.552 0 0 1 1.707 1.397 1.566 1.566 0 0 1-1.398 1.712c-.055 0-.105.006-.16.006Zm.006-3.016c-.05 0-.1 0-.15.006a1.454 1.454 0 0 0-.773 2.568c.299.243.68.359 1.066.32a1.448 1.448 0 0 0 1.298-1.59 1.439 1.439 0 0 0-.525-.978c-.26-.21-.58-.325-.916-.325ZM55.014 72.17a1.555 1.555 0 0 1-1.546-1.408 1.576 1.576 0 0 1 .342-1.143c.265-.32.641-.524 1.055-.563a1.553 1.553 0 0 1 1.707 1.397 1.553 1.553 0 0 1-1.398 1.707c-.055.005-.105.01-.16.01Zm.006-3.015c-.05 0-.1 0-.15.006a1.454 1.454 0 0 0-.773 2.568 1.454 1.454 0 0 0 2.044-.205 1.454 1.454 0 0 0-.204-2.043 1.476 1.476 0 0 0-.917-.326ZM58.805 71.79c-.359 0-.701-.122-.983-.354a1.556 1.556 0 0 1-.563-1.054 1.553 1.553 0 0 1 1.397-1.707 1.552 1.552 0 0 1 1.706 1.397 1.566 1.566 0 0 1-1.397 1.712c-.055 0-.11.006-.16.006Zm.005-3.015c-.05 0-.099 0-.149.005a1.454 1.454 0 0 0-.773 2.568 1.454 1.454 0 0 0 2.364-1.27 1.439 1.439 0 0 0-.525-.978 1.475 1.475 0 0 0-.917-.325ZM62.61 71.409c-.36 0-.702-.122-.983-.354a1.556 1.556 0 0 1-.564-1.054 1.553 1.553 0 0 1 1.398-1.707 1.566 1.566 0 0 1 1.711 1.398 1.552 1.552 0 0 1-1.397 1.706c-.06.005-.116.01-.165.01Zm.005-3.015c-.05 0-.1 0-.144.005a1.454 1.454 0 0 0-.773 2.568 1.454 1.454 0 0 0 2.044-.204c.243-.298.359-.68.32-1.066a1.467 1.467 0 0 0-1.447-1.303ZM70.971 70.398l-.276-2.755 3.297-.332.276 2.756-3.297.331Zm-.154-2.656.254 2.535 3.076-.31-.254-2.534-3.076.309ZM78.305 69.835a1.556 1.556 0 0 1-1.546-1.408 1.553 1.553 0 0 1 1.397-1.706 1.553 1.553 0 0 1 1.706 1.397 1.553 1.553 0 0 1-1.397 1.706c-.055.006-.105.011-.16.011Zm.005-3.015c-.05 0-.099 0-.149.006a1.454 1.454 0 0 0-.773 2.568 1.454 1.454 0 0 0 2.044-.205 1.454 1.454 0 0 0-.205-2.043c-.26-.21-.58-.326-.917-.326ZM82.1 69.454a1.566 1.566 0 0 1-1.21-2.551c.265-.32.64-.525 1.055-.564a1.553 1.553 0 0 1 1.706 1.398 1.552 1.552 0 0 1-1.397 1.706c-.05.005-.1.011-.154.011Zm.005-3.015c-.05 0-.1 0-.15.005a1.455 1.455 0 0 0-1.298 1.59c.079.796.79 1.381 1.592 1.299a1.455 1.455 0 0 0 .773-2.568 1.464 1.464 0 0 0-.917-.326ZM85.883 69.073c-.359 0-.701-.122-.983-.354a1.555 1.555 0 0 1-.563-1.054 1.552 1.552 0 0 1 1.397-1.707 1.553 1.553 0 0 1 1.706 1.397 1.553 1.553 0 0 1-1.397 1.707c-.055.005-.11.01-.16.01Zm.006-3.015c-.05 0-.1 0-.15.005a1.454 1.454 0 0 0 .293 2.888c.387-.038.735-.226.978-.524a1.454 1.454 0 0 0-.205-2.044 1.476 1.476 0 0 0-.916-.325ZM89.687 68.692a1.555 1.555 0 0 1-1.546-1.408 1.566 1.566 0 0 1 1.397-1.712 1.553 1.553 0 0 1 1.707 1.397 1.553 1.553 0 0 1-1.398 1.706.826.826 0 0 1-.16.017Zm.006-3.015c-.05 0-.1 0-.15.005a1.454 1.454 0 0 0-.773 2.568 1.454 1.454 0 0 0 2.044-.204 1.454 1.454 0 0 0-.204-2.044 1.476 1.476 0 0 0-.917-.325ZM93.5 68.31c-.36 0-.701-.12-.983-.353a1.566 1.566 0 0 1 .834-2.767 1.553 1.553 0 0 1 1.706 1.398 1.553 1.553 0 0 1-1.397 1.706.826.826 0 0 1-.16.017Zm.005-3.014c-.05 0-.099 0-.149.005-.795.077-1.38.79-1.297 1.59.038.387.226.735.524.978a1.454 1.454 0 0 0 2.043-.204 1.454 1.454 0 0 0-.204-2.044 1.476 1.476 0 0 0-.917-.325ZM41.521 77.864a1 1 0 0 1-1.095-.895l-.076-.766a1 1 0 0 1 .895-1.095l1.307-.131a1 1 0 0 1 1.095.895l.076.766a1 1 0 0 1-.895 1.094l-1.307.132Zm-.155-2.656a1 1 0 0 0-.895 1.094l.055.545a1 1 0 0 0 1.095.895l1.086-.109a1 1 0 0 0 .895-1.095l-.055-.544a1 1 0 0 0-1.095-.896l-1.086.11ZM47.851 77.395a1.555 1.555 0 0 1-1.546-1.408 1.566 1.566 0 0 1 1.397-1.712 1.553 1.553 0 0 1 1.707 1.397 1.565 1.565 0 0 1-1.397 1.712c-.05.011-.105.011-.16.011Zm.006-3.01c-.05 0-.1 0-.15.006-.794.077-1.38.79-1.297 1.59A1.454 1.454 0 0 0 48 77.28a1.448 1.448 0 0 0 1.298-1.59 1.439 1.439 0 0 0-.524-.978 1.422 1.422 0 0 0-.917-.325ZM51.664 77.014a1.556 1.556 0 0 1-1.546-1.408 1.552 1.552 0 0 1 1.397-1.706 1.566 1.566 0 0 1 1.712 1.397 1.552 1.552 0 0 1-1.397 1.706c-.06.011-.11.011-.166.011Zm.006-3.01c-.05 0-.1 0-.144.006a1.454 1.454 0 0 0 .293 2.888c.386-.038.734-.226.977-.524.243-.299.36-.68.32-1.066a1.458 1.458 0 0 0-1.446-1.304ZM55.45 76.633c-.789 0-1.468-.602-1.551-1.408a1.566 1.566 0 0 1 1.397-1.712 1.552 1.552 0 0 1 1.706 1.397 1.566 1.566 0 0 1-1.397 1.712c-.05.01-.1.01-.154.01Zm.006-3.01c-.05 0-.1 0-.149.006a1.451 1.451 0 1 0 .15-.006ZM59.258 76.252a1.555 1.555 0 0 1-1.546-1.408 1.566 1.566 0 0 1 1.397-1.712 1.566 1.566 0 0 1 1.712 1.397 1.566 1.566 0 0 1-1.398 1.712c-.06.011-.11.011-.165.011Zm.005-3.01c-.05 0-.1 0-.143.006-.796.077-1.381.79-1.298 1.59.038.387.226.735.524.978a1.454 1.454 0 0 0 2.364-1.27 1.462 1.462 0 0 0-1.447-1.304ZM63.06 75.871c-.79 0-1.469-.602-1.552-1.408a1.566 1.566 0 0 1 1.397-1.712 1.553 1.553 0 0 1 1.707 1.397 1.566 1.566 0 0 1-1.397 1.712c-.05.011-.1.011-.155.011Zm.006-3.01c-.05 0-.1 0-.15.006a1.451 1.451 0 1 0 1.59 1.298 1.444 1.444 0 0 0-1.441-1.303ZM71.417 74.866l-.276-2.756 3.296-.331.277 2.755-3.297.332Zm-.155-2.657.254 2.535 3.076-.309-.254-2.535-3.076.31ZM78.742 74.297a1.555 1.555 0 0 1-1.546-1.408 1.553 1.553 0 0 1 1.397-1.706A1.553 1.553 0 0 1 80.3 72.58a1.552 1.552 0 0 1-1.397 1.706.779.779 0 0 1-.16.011Zm.006-3.01c-.05 0-.1 0-.15.006a1.454 1.454 0 0 0-.773 2.568 1.454 1.454 0 0 0 2.364-1.27 1.439 1.439 0 0 0-.524-.977 1.421 1.421 0 0 0-.917-.326ZM82.547 73.916A1.555 1.555 0 0 1 81 72.508a1.565 1.565 0 0 1 1.397-1.712 1.553 1.553 0 0 1 1.706 1.397 1.566 1.566 0 0 1-1.397 1.712c-.055.011-.105.011-.16.011Zm.005-3.01c-.05 0-.1 0-.149.006-.795.077-1.38.79-1.298 1.59a1.455 1.455 0 0 0 1.59 1.298 1.448 1.448 0 0 0 1.299-1.59 1.439 1.439 0 0 0-.525-.978 1.422 1.422 0 0 0-.917-.326ZM86.336 73.535c-.36 0-.702-.122-.983-.354a1.566 1.566 0 0 1 .834-2.767 1.566 1.566 0 0 1 1.712 1.398 1.553 1.553 0 0 1-1.398 1.706c-.06.017-.11.017-.165.017Zm.005-3.01c-.05 0-.1 0-.149.006-.795.077-1.38.79-1.297 1.59.038.387.226.735.524.978a1.454 1.454 0 0 0 2.364-1.27 1.443 1.443 0 0 0-1.441-1.303ZM90.133 73.154c-.359 0-.701-.121-.983-.353a1.544 1.544 0 0 1-.563-1.055 1.552 1.552 0 0 1 1.397-1.707 1.553 1.553 0 0 1 1.706 1.398 1.553 1.553 0 0 1-1.397 1.706.812.812 0 0 1-.16.011Zm.006-3.01c-.05 0-.1 0-.15.006a1.454 1.454 0 0 0 .293 2.888 1.454 1.454 0 0 0 .773-2.568 1.444 1.444 0 0 0-.916-.326ZM93.938 72.773c-.36 0-.702-.122-.983-.354a1.556 1.556 0 0 1-.564-1.054 1.553 1.553 0 0 1 1.398-1.707 1.566 1.566 0 0 1 1.712 1.397 1.566 1.566 0 0 1-1.398 1.712c-.06.006-.116.006-.165.006Zm.005-3.01c-.05 0-.1 0-.143.006a1.454 1.454 0 0 0-.773 2.568c.298.242.679.358 1.065.32a1.448 1.448 0 0 0 1.298-1.59 1.462 1.462 0 0 0-1.447-1.304ZM41.967 82.326a1 1 0 0 1-1.095-.895l-.077-.766a1 1 0 0 1 .895-1.095l1.307-.131a1 1 0 0 1 1.095.895l.077.766a1 1 0 0 1-.895 1.095l-1.307.131Zm-.155-2.656a1 1 0 0 0-.895 1.094l.054.545a1 1 0 0 0 1.095.895l1.086-.109a1 1 0 0 0 .895-1.094l-.054-.545a1 1 0 0 0-1.096-.895l-1.085.109ZM48.305 81.863c-.359 0-.701-.122-.983-.354a1.555 1.555 0 0 1-.563-1.054 1.553 1.553 0 0 1 1.397-1.707 1.566 1.566 0 0 1 1.712 1.397 1.553 1.553 0 0 1-1.397 1.707c-.056.005-.11.01-.166.01Zm.005-3.016c-.05 0-.099 0-.143.006a1.454 1.454 0 0 0-.773 2.568 1.454 1.454 0 0 0 2.043-.204c.243-.299.359-.68.32-1.066a1.463 1.463 0 0 0-1.447-1.303ZM52.107 81.482a1.566 1.566 0 0 1-1.21-2.552c.266-.32.642-.524 1.056-.563a1.553 1.553 0 0 1 1.706 1.397 1.552 1.552 0 0 1-1.397 1.707 1.46 1.46 0 0 1-.155.01Zm0-3.016c-.05 0-.1 0-.149.006a1.439 1.439 0 0 0-.977.525 1.451 1.451 0 1 0 1.127-.53ZM55.907 81.1c-.36 0-.702-.12-.983-.353a1.556 1.556 0 0 1-.564-1.054 1.552 1.552 0 0 1 1.397-1.707 1.566 1.566 0 0 1 1.712 1.397 1.553 1.553 0 0 1-1.397 1.707c-.06.005-.11.01-.166.01Zm.005-3.014c-.05 0-.1 0-.144.005a1.439 1.439 0 0 0-.977.525 1.455 1.455 0 0 0 .204 2.043 1.454 1.454 0 0 0 2.364-1.27 1.458 1.458 0 0 0-1.447-1.303ZM59.701 80.72a1.566 1.566 0 0 1-1.21-2.552c.266-.32.641-.525 1.055-.563a1.553 1.553 0 0 1 1.707 1.397 1.553 1.553 0 0 1-1.397 1.706c-.05.006-.1.011-.155.011Zm.006-3.016c-.05 0-.1 0-.15.006a1.454 1.454 0 0 0-1.298 1.59 1.451 1.451 0 1 0 1.448-1.596ZM63.508 80.338a1.555 1.555 0 0 1-1.546-1.408 1.553 1.553 0 0 1 1.397-1.706 1.553 1.553 0 0 1 1.706 1.397 1.566 1.566 0 0 1-1.397 1.712c-.055 0-.105.005-.16.005Zm.006-3.015c-.05 0-.1 0-.15.006a1.454 1.454 0 0 0-.773 2.568c.298.243.68.359 1.066.32a1.448 1.448 0 0 0 1.298-1.59 1.439 1.439 0 0 0-.525-.978 1.476 1.476 0 0 0-.916-.326ZM71.87 79.328l-.276-2.756 3.297-.33.276 2.755-3.297.331Zm-.155-2.656.254 2.535 3.076-.31-.254-2.534-3.076.309ZM79.193 78.765c-.79 0-1.47-.602-1.552-1.408a1.566 1.566 0 0 1 1.397-1.712 1.553 1.553 0 0 1 1.707 1.397 1.553 1.553 0 0 1-1.398 1.706.732.732 0 0 1-.154.017Zm0-3.016c-.05 0-.1 0-.15.006-.794.077-1.38.79-1.297 1.59.077.796.79 1.381 1.59 1.298.387-.038.735-.226.978-.524a1.454 1.454 0 0 0-.204-2.044c-.26-.21-.58-.326-.917-.326ZM83 78.384c-.359 0-.701-.122-.983-.354a1.556 1.556 0 0 1-.563-1.055 1.553 1.553 0 0 1 1.397-1.706 1.566 1.566 0 0 1 1.712 1.397 1.553 1.553 0 0 1-1.397 1.707c-.06.005-.11.01-.166.01Zm.006-3.016c-.05 0-.1 0-.144.006a1.454 1.454 0 0 0 .293 2.888 1.454 1.454 0 0 0 1.298-1.59 1.458 1.458 0 0 0-1.447-1.304ZM86.787 78.002a1.566 1.566 0 0 1-1.21-2.55c.266-.321.641-.525 1.055-.564a1.552 1.552 0 0 1 1.707 1.397 1.566 1.566 0 0 1-1.397 1.712c-.05 0-.1.005-.155.005Zm.005-3.015c-.05 0-.099 0-.149.006a1.455 1.455 0 0 0-1.298 1.59c.078.796.79 1.38 1.591 1.298a1.448 1.448 0 0 0 1.298-1.59 1.439 1.439 0 0 0-.525-.978c-.26-.21-.58-.326-.916-.326ZM90.578 77.622c-.359 0-.701-.122-.983-.354a1.555 1.555 0 0 1-.563-1.055 1.553 1.553 0 0 1 1.397-1.706 1.566 1.566 0 0 1 1.712 1.397 1.566 1.566 0 0 1-1.397 1.712c-.06 0-.11.006-.166.006Zm.006-3.016c-.05 0-.1 0-.144.006a1.454 1.454 0 0 0-.773 2.568c.298.243.68.359 1.066.32a1.448 1.448 0 0 0 1.298-1.59 1.462 1.462 0 0 0-1.447-1.303ZM94.389 77.24a1.566 1.566 0 0 1-1.21-2.55c.265-.321.64-.525 1.055-.564a1.553 1.553 0 0 1 1.706 1.397 1.566 1.566 0 0 1-1.397 1.712c-.05 0-.1.006-.154.006Zm.005-3.015c-.05 0-.1 0-.149.006a1.454 1.454 0 0 0-1.298 1.59 1.451 1.451 0 1 0 1.447-1.596ZM42.42 86.793a1 1 0 0 1-1.095-.895l-.077-.765a1 1 0 0 1 .895-1.095l1.307-.132a1 1 0 0 1 1.095.896l.077.765a1 1 0 0 1-.895 1.095l-1.307.131Zm-.16-2.661a1 1 0 0 0-.896 1.094l.055.545a1 1 0 0 0 1.095.895l1.086-.109a1 1 0 0 0 .895-1.094l-.055-.545a1 1 0 0 0-1.095-.895l-1.086.109ZM48.764 86.325a1.566 1.566 0 0 1-1.21-2.551c.265-.32.64-.525 1.055-.564a1.553 1.553 0 0 1 1.706 1.398 1.566 1.566 0 0 1-1.397 1.711c-.05.006-.105.006-.154.006Zm.005-3.01c-.05 0-.1 0-.149.006a1.454 1.454 0 0 0-1.298 1.59 1.451 1.451 0 1 0 1.447-1.596ZM52.547 85.944c-.36 0-.702-.122-.983-.354a1.566 1.566 0 0 1 .834-2.767 1.553 1.553 0 0 1 1.706 1.398 1.566 1.566 0 0 1-1.397 1.712c-.05.01-.105.01-.16.01Zm.005-3.01c-.05 0-.1 0-.149.006-.795.077-1.38.79-1.298 1.59a1.454 1.454 0 0 0 1.59 1.298 1.448 1.448 0 0 0 1.299-1.59 1.439 1.439 0 0 0-.525-.978 1.422 1.422 0 0 0-.917-.326ZM56.36 85.563c-.36 0-.702-.122-.983-.354a1.556 1.556 0 0 1-.564-1.055 1.553 1.553 0 0 1 1.398-1.706 1.552 1.552 0 0 1 1.706 1.397 1.552 1.552 0 0 1-1.397 1.707c-.056.01-.105.01-.16.01Zm.005-3.01c-.05 0-.1 0-.149.005a1.455 1.455 0 0 0-.773 2.568 1.455 1.455 0 0 0 2.043-.204 1.454 1.454 0 0 0-.204-2.043 1.422 1.422 0 0 0-.917-.326ZM60.148 85.182c-.359 0-.701-.122-.983-.354A1.566 1.566 0 0 1 60 82.061a1.553 1.553 0 0 1 1.707 1.398 1.566 1.566 0 0 1-1.398 1.712c-.055.01-.105.01-.16.01Zm.006-3.01c-.05 0-.1 0-.15.006-.794.077-1.38.79-1.297 1.59a1.454 1.454 0 0 0 2.888-.293 1.439 1.439 0 0 0-.524-.977 1.421 1.421 0 0 0-.917-.326ZM63.96 84.8a1.556 1.556 0 0 1-1.546-1.408 1.566 1.566 0 0 1 1.398-1.712 1.566 1.566 0 0 1 1.712 1.398 1.552 1.552 0 0 1-1.398 1.706c-.06.017-.11.017-.165.017Zm.006-3.01c-.05 0-.1 0-.143.006-.795.078-1.38.79-1.298 1.59a1.454 1.454 0 0 0 2.568.773c.243-.297.359-.678.32-1.065a1.462 1.462 0 0 0-1.447-1.303ZM72.315 83.796l-.276-2.756 3.297-.331.276 2.755-3.297.332Zm-.16-2.662.254 2.535 3.076-.31-.254-2.534-3.076.309ZM79.64 83.227c-.359 0-.7-.122-.983-.354a1.566 1.566 0 0 1 .834-2.767 1.566 1.566 0 0 1 1.712 1.398 1.565 1.565 0 0 1-1.397 1.712c-.06.01-.116.01-.165.01Zm0-3.01c-.05 0-.099 0-.143.005-.795.078-1.38.79-1.298 1.59a1.454 1.454 0 0 0 2.888-.293 1.458 1.458 0 0 0-1.447-1.302ZM83.443 82.846a1.566 1.566 0 0 1-1.21-2.552c.266-.32.641-.524 1.056-.563a1.553 1.553 0 0 1 1.706 1.397 1.566 1.566 0 0 1-1.397 1.712c-.05.006-.105.006-.155.006Zm0-3.01c-.05 0-.1 0-.149.005a1.454 1.454 0 0 0-1.298 1.59c.078.796.79 1.382 1.59 1.299a1.448 1.448 0 0 0 1.299-1.59 1.439 1.439 0 0 0-.525-.978 1.422 1.422 0 0 0-.917-.326ZM87.226 82.465c-.358 0-.7-.122-.983-.354a1.566 1.566 0 0 1 .834-2.767 1.553 1.553 0 0 1 1.707 1.398 1.556 1.556 0 0 1-1.397 1.707c-.056.016-.105.016-.16.016Zm.006-3.01c-.05 0-.1 0-.15.005-.794.078-1.38.79-1.297 1.591a1.455 1.455 0 0 0 2.568.773 1.454 1.454 0 0 0-.204-2.043 1.422 1.422 0 0 0-.917-.326ZM91.031 82.084c-.359 0-.7-.122-.983-.354a1.556 1.556 0 0 1-.563-1.055 1.552 1.552 0 0 1 1.397-1.706 1.552 1.552 0 0 1 1.707 1.397 1.553 1.553 0 0 1-1.397 1.707c-.056.01-.105.01-.16.01Zm.006-3.01c-.05 0-.1 0-.15.005a1.454 1.454 0 0 0-.773 2.568 1.454 1.454 0 0 0 2.044-.204 1.454 1.454 0 0 0-.204-2.043 1.421 1.421 0 0 0-.917-.326ZM94.842 81.702a1.555 1.555 0 0 1-1.546-1.408 1.577 1.577 0 0 1 .343-1.143c.265-.32.64-.525 1.054-.563a1.553 1.553 0 0 1 1.707 1.397 1.552 1.552 0 0 1-1.398 1.706c-.055.011-.104.011-.16.011Zm.006-3.01c-.05 0-.1 0-.15.006a1.454 1.454 0 0 0-.773 2.568 1.454 1.454 0 0 0 2.044-.204 1.454 1.454 0 0 0-.204-2.043 1.444 1.444 0 0 0-.917-.326ZM40.505 31.844a.802.802 0 0 1-.878-.718l-.075-.743a.056.056 0 0 1 .05-.06l31.79-3.19a.802.802 0 0 1 .878.718l.074.743a.056.056 0 0 1-.05.06l-31.79 3.19Zm-.149-1.486a.691.691 0 0 0 .138 1.375l31.047-3.115a.69.69 0 1 0-.138-1.375l-31.047 3.115ZM36.74 32.218a.802.802 0 0 1-.16-1.596l1.197-.12a.802.802 0 0 1 .16 1.596l-1.197.12Zm-.15-1.48a.691.691 0 0 0 .139 1.375l1.198-.12a.69.69 0 1 0-.139-1.375l-1.198.12ZM45.887 93.465l-.16-1.596.055-.005 32.588-3.27.16 1.597-.056.005-32.587 3.27Zm-.039-1.49.138 1.374 32.422-3.252-.138-1.375-32.422 3.252Z" fill="#6683C2"/><path d="M122.224 17.427 51.278 13.12a2 2 0 0 0-2.118 1.875l-5.809 95.724a2 2 0 0 0 1.875 2.118l70.947 4.305a2 2 0 0 0 2.117-1.875l5.809-95.724a2 2 0 0 0-1.875-2.117Z" fill="#F7F7F7"/><path d="M58.912 44.632a1 1 0 0 1-1.059.938l-1.526-.093a1 1 0 0 1-.937-1.058l.057-.948a1 1 0 0 1 1.059-.937l1.526.092a1 1 0 0 1 .938 1.06l-.058.946Zm-3.405-.317a1 1 0 0 0 .937 1.059l1.306.08a1 1 0 0 0 1.059-.938l.044-.727a1 1 0 0 0-.938-1.059l-1.306-.08a1 1 0 0 0-1.058.938l-.044.727ZM63.294 46.089a1.664 1.664 0 0 1-1.559-1.76 1.664 1.664 0 0 1 1.76-1.559 1.664 1.664 0 0 1 1.559 1.76 1.664 1.664 0 0 1-1.76 1.559Zm.194-3.208a1.553 1.553 0 1 0 1.455 1.643 1.553 1.553 0 0 0-1.455-1.643ZM67.364 46.336a1.664 1.664 0 0 1-1.558-1.76 1.664 1.664 0 0 1 1.76-1.559 1.664 1.664 0 0 1 1.558 1.76 1.664 1.664 0 0 1-1.76 1.559Zm.195-3.208a1.553 1.553 0 0 0-1.643 1.455c-.052.854.6 1.59 1.455 1.643.854.051 1.59-.601 1.643-1.455a1.553 1.553 0 0 0-1.455-1.643ZM73.062 45.384a1.607 1.607 0 1 0-3.08-.918 1.607 1.607 0 0 0 3.08.918ZM101.592 47.888a1.607 1.607 0 1 0-2.131-2.405 1.607 1.607 0 0 0 2.131 2.405ZM64.606 49.78a1.607 1.607 0 1 0-3.008-1.133 1.607 1.607 0 0 0 3.008 1.134ZM109.908 52.427a1.607 1.607 0 1 0-3.078-.926 1.607 1.607 0 0 0 3.078.926ZM76.084 55.937a1.607 1.607 0 1 0-2.131-2.407 1.607 1.607 0 0 0 2.13 2.407ZM101.486 56.716a1.607 1.607 0 1 0-3.076-.927 1.607 1.607 0 0 0 3.076.927ZM70.566 60.87a1.607 1.607 0 1 0 .194-3.208 1.607 1.607 0 0 0-.194 3.209ZM99.558 62.63a1.607 1.607 0 1 0 .194-3.208 1.607 1.607 0 0 0-.194 3.208ZM67.139 65.167a1.607 1.607 0 1 0-1.684-2.737 1.607 1.607 0 0 0 1.684 2.737ZM113.103 67.014a1.607 1.607 0 1 0-3.076-.927 1.607 1.607 0 0 0 3.076.927ZM79.735 69.817a1.607 1.607 0 1 0-3.053-1.004 1.607 1.607 0 0 0 3.053 1.004ZM108.271 72.281a1.607 1.607 0 1 0-2.13-2.406 1.607 1.607 0 0 0 2.13 2.406ZM63.16 73.682a1.607 1.607 0 1 0-3.007-1.133 1.607 1.607 0 0 0 3.007 1.133ZM96.285 75.468a1.607 1.607 0 1 0-3.135-.706 1.607 1.607 0 0 0 3.135.706ZM66.973 78.555a1.607 1.607 0 1 0-3.105-.829 1.607 1.607 0 0 0 3.105.83ZM104.095 80.862a1.606 1.606 0 1 0-3.076-.927 1.606 1.606 0 0 0 3.076.927ZM73.175 85.019a1.607 1.607 0 1 0 .195-3.209 1.607 1.607 0 0 0-.195 3.209ZM98.105 86.531a1.607 1.607 0 1 0 .194-3.208 1.607 1.607 0 0 0-.194 3.208ZM65.693 89.068a1.607 1.607 0 1 0-1.684-2.738 1.607 1.607 0 0 0 1.684 2.738ZM107.107 91.403a1.607 1.607 0 1 0-2.13-2.407 1.607 1.607 0 0 0 2.13 2.407Z" fill="#6683C2"/><path d="M71.427 46.583a1.664 1.664 0 0 1-1.559-1.76 1.664 1.664 0 0 1 1.76-1.559 1.664 1.664 0 0 1 1.558 1.76 1.664 1.664 0 0 1-1.76 1.559Zm.194-3.209a1.553 1.553 0 0 0-1.643 1.456c-.051.854.6 1.59 1.455 1.642.855.052 1.591-.6 1.643-1.455a1.553 1.553 0 0 0-1.455-1.643ZM75.513 46.83a1.664 1.664 0 0 1-1.559-1.76 1.664 1.664 0 0 1 1.76-1.559 1.664 1.664 0 0 1 1.558 1.76 1.664 1.664 0 0 1-1.76 1.559Zm.194-3.208a1.553 1.553 0 0 0-1.643 1.455c-.052.854.6 1.59 1.455 1.642a1.553 1.553 0 0 0 .188-3.098ZM79.583 47.076a1.664 1.664 0 0 1-1.559-1.76 1.664 1.664 0 0 1 1.76-1.558 1.664 1.664 0 0 1 1.559 1.76 1.664 1.664 0 0 1-1.76 1.558Zm.195-3.208a1.553 1.553 0 0 0-.189 3.098 1.553 1.553 0 0 0 .188-3.098ZM91.975 46.639a1 1 0 0 1-1.06.937l-1.525-.093a1 1 0 0 1-.938-1.058l.058-.947a1 1 0 0 1 1.058-.938l1.526.093a1 1 0 0 1 .938 1.058l-.057.947Zm-3.406-.318a1 1 0 0 0 .938 1.059l1.305.08a1 1 0 0 0 1.059-.938l.044-.727a1 1 0 0 0-.938-1.059l-1.305-.08a1 1 0 0 0-1.059.938l-.044.727ZM96.364 48.095a1.664 1.664 0 0 1-1.558-1.76 1.664 1.664 0 0 1 1.76-1.558 1.664 1.664 0 0 1 1.558 1.76 1.664 1.664 0 0 1-1.76 1.558Zm.195-3.208a1.553 1.553 0 0 0-1.643 1.455c-.052.855.6 1.591 1.455 1.643.854.052 1.59-.6 1.643-1.455a1.557 1.557 0 0 0-1.455-1.643ZM100.427 48.342a1.664 1.664 0 0 1-1.559-1.76 1.663 1.663 0 1 1 1.559 1.76Zm.194-3.208c-.854-.052-1.59.6-1.643 1.455a1.553 1.553 0 1 0 1.643-1.455ZM104.497 48.59a1.665 1.665 0 0 1-1.559-1.76 1.664 1.664 0 0 1 1.76-1.56 1.665 1.665 0 0 1 1.559 1.76 1.664 1.664 0 0 1-1.76 1.56Zm.195-3.209a1.552 1.552 0 1 0-.187 3.099 1.552 1.552 0 0 0 .187-3.099ZM108.567 48.836a1.663 1.663 0 0 1 .202-3.318 1.663 1.663 0 0 1-.202 3.318Zm.195-3.208a1.553 1.553 0 0 0-.188 3.098c.854.052 1.591-.6 1.643-1.455a1.553 1.553 0 0 0-1.455-1.643ZM112.638 49.083a1.663 1.663 0 0 1 .201-3.319 1.663 1.663 0 0 1-.201 3.319Zm.194-3.208a1.554 1.554 0 0 0-1.643 1.455 1.553 1.553 0 1 0 1.643-1.455ZM58.615 49.411a1 1 0 0 1-1.059.938l-1.525-.093a1 1 0 0 1-.938-1.058l.057-.947a1 1 0 0 1 1.06-.938l1.525.093a1 1 0 0 1 .938 1.058l-.058.947Zm-3.405-.317a1 1 0 0 0 .937 1.059l1.306.08a1 1 0 0 0 1.059-.938l.044-.727a1 1 0 0 0-.938-1.059l-1.305-.08a1 1 0 0 0-1.06.938l-.043.727ZM63.013 50.868a1.664 1.664 0 0 1-1.559-1.76 1.664 1.664 0 0 1 1.76-1.558 1.664 1.664 0 0 1 1.558 1.76 1.664 1.664 0 0 1-1.76 1.558Zm.194-3.208a1.553 1.553 0 0 0-1.643 1.455c-.052.854.6 1.59 1.455 1.643a1.553 1.553 0 0 0 .188-3.098ZM67.067 51.115a1.664 1.664 0 0 1-1.558-1.76 1.664 1.664 0 0 1 1.76-1.558 1.664 1.664 0 0 1 1.558 1.76 1.664 1.664 0 0 1-1.76 1.558Zm.195-3.208a1.553 1.553 0 0 0-1.643 1.455 1.553 1.553 0 1 0 1.643-1.455ZM71.145 51.362a1.664 1.664 0 0 1-1.558-1.76 1.664 1.664 0 0 1 1.76-1.559 1.664 1.664 0 0 1 1.558 1.76 1.664 1.664 0 0 1-1.76 1.559Zm.195-3.208a1.553 1.553 0 0 0-.188 3.097c.854.052 1.591-.6 1.643-1.454a1.553 1.553 0 0 0-1.455-1.643ZM75.216 51.609a1.664 1.664 0 0 1-1.559-1.76 1.664 1.664 0 0 1 1.76-1.559 1.664 1.664 0 0 1 1.558 1.76 1.664 1.664 0 0 1-1.76 1.559Zm.194-3.209a1.553 1.553 0 1 0 1.455 1.643 1.553 1.553 0 0 0-1.455-1.642ZM79.286 51.855a1.664 1.664 0 0 1-1.559-1.76 1.664 1.664 0 0 1 1.76-1.558 1.664 1.664 0 0 1 1.559 1.76 1.664 1.664 0 0 1-1.76 1.558Zm.195-3.208a1.553 1.553 0 1 0 1.455 1.643 1.553 1.553 0 0 0-1.455-1.643ZM91.678 51.418a1 1 0 0 1-1.059.937l-1.526-.092a1 1 0 0 1-.938-1.059l.058-.947a1 1 0 0 1 1.059-.938l1.526.093a1 1 0 0 1 .937 1.059l-.057.947Zm-3.406-.318a1 1 0 0 0 .938 1.06l1.305.079a1 1 0 0 0 1.06-.938l.043-.727a1 1 0 0 0-.937-1.059l-1.306-.079a1 1 0 0 0-1.059.938l-.044.726ZM96.083 52.874a1.664 1.664 0 0 1-1.559-1.76 1.664 1.664 0 0 1 1.76-1.558 1.664 1.664 0 0 1 1.559 1.76 1.664 1.664 0 0 1-1.76 1.558Zm.195-3.208a1.553 1.553 0 0 0-.189 3.098c.855.052 1.592-.6 1.643-1.455a1.557 1.557 0 0 0-1.454-1.643ZM100.145 53.121a1.664 1.664 0 0 1-1.558-1.76 1.663 1.663 0 1 1 1.558 1.76Zm.195-3.208a1.553 1.553 0 0 0-.188 3.098c.854.052 1.591-.6 1.643-1.455a1.553 1.553 0 0 0-1.455-1.643ZM104.2 53.368a1.665 1.665 0 0 1-1.559-1.76 1.664 1.664 0 0 1 1.76-1.558 1.665 1.665 0 0 1 1.559 1.76 1.664 1.664 0 0 1-1.76 1.558Zm.195-3.208a1.553 1.553 0 0 0-.188 3.098c.854.052 1.591-.6 1.643-1.455a1.554 1.554 0 0 0-1.455-1.643ZM108.27 53.615a1.663 1.663 0 0 1 .202-3.318 1.663 1.663 0 0 1-.202 3.318Zm.195-3.208a1.554 1.554 0 0 0-1.643 1.455 1.553 1.553 0 0 0 1.455 1.643c.854.052 1.591-.6 1.643-1.455a1.553 1.553 0 0 0-1.455-1.643ZM112.341 53.862a1.665 1.665 0 0 1-1.559-1.76 1.664 1.664 0 0 1 1.76-1.558 1.665 1.665 0 0 1 1.559 1.76 1.664 1.664 0 0 1-1.76 1.558Zm.194-3.208a1.554 1.554 0 0 0-1.643 1.455 1.553 1.553 0 1 0 1.643-1.455ZM58.334 54.196a1 1 0 0 1-1.059.938l-1.526-.093a1 1 0 0 1-.937-1.059l.057-.947a1 1 0 0 1 1.059-.938l1.526.093a1 1 0 0 1 .937 1.059l-.057.947Zm-3.405-.317a1 1 0 0 0 .937 1.058l1.306.08a1 1 0 0 0 1.058-.938l.045-.727a1 1 0 0 0-.938-1.058l-1.306-.08a1 1 0 0 0-1.058.938l-.044.727ZM62.723 55.653a1.664 1.664 0 0 1-1.558-1.76 1.664 1.664 0 0 1 1.76-1.559 1.664 1.664 0 0 1 1.558 1.76 1.664 1.664 0 0 1-1.76 1.559Zm.195-3.209a1.553 1.553 0 1 0 1.455 1.643 1.553 1.553 0 0 0-1.455-1.643ZM66.786 55.9a1.664 1.664 0 0 1-1.559-1.76 1.664 1.664 0 0 1 1.76-1.559 1.664 1.664 0 0 1 1.559 1.76 1.664 1.664 0 0 1-1.76 1.559Zm.195-3.209a1.553 1.553 0 1 0 1.455 1.643 1.553 1.553 0 0 0-1.455-1.642ZM70.848 56.147a1.664 1.664 0 0 1-1.558-1.76 1.664 1.664 0 0 1 1.76-1.559 1.664 1.664 0 0 1 1.558 1.76 1.664 1.664 0 0 1-1.76 1.559Zm.195-3.209a1.553 1.553 0 0 0-1.643 1.455 1.553 1.553 0 0 0 3.098.188 1.553 1.553 0 0 0-1.455-1.643ZM74.934 56.393a1.664 1.664 0 0 1-1.558-1.76 1.664 1.664 0 0 1 1.76-1.558 1.664 1.664 0 0 1 1.558 1.76 1.664 1.664 0 0 1-1.76 1.558Zm.195-3.208a1.553 1.553 0 0 0-1.643 1.455c-.052.855.6 1.591 1.455 1.643a1.553 1.553 0 0 0 .188-3.098ZM79.005 56.64a1.664 1.664 0 0 1-1.559-1.76 1.664 1.664 0 0 1 1.76-1.558 1.664 1.664 0 0 1 1.559 1.76 1.664 1.664 0 0 1-1.76 1.558Zm.194-3.208a1.553 1.553 0 0 0-1.643 1.455c-.051.854.601 1.59 1.455 1.643a1.553 1.553 0 0 0 .188-3.098ZM91.38 56.202a1 1 0 0 1-1.058.938l-1.526-.093a1 1 0 0 1-.938-1.058l.058-.948a1 1 0 0 1 1.059-.937l1.526.092a1 1 0 0 1 .937 1.06l-.057.946Zm-3.405-.317a1 1 0 0 0 .938 1.059l1.306.079a1 1 0 0 0 1.058-.938l.044-.726a1 1 0 0 0-.937-1.06l-1.306-.078a1 1 0 0 0-1.059.937l-.044.727ZM95.786 57.66a1.664 1.664 0 0 1-1.559-1.76 1.664 1.664 0 0 1 1.76-1.56 1.664 1.664 0 0 1 1.559 1.76 1.664 1.664 0 0 1-1.76 1.56Zm.195-3.209a1.553 1.553 0 0 0-.188 3.098c.854.052 1.59-.6 1.643-1.455a1.557 1.557 0 0 0-1.455-1.643ZM99.848 57.906a1.664 1.664 0 0 1-1.558-1.76 1.663 1.663 0 1 1 1.558 1.76Zm.195-3.208a1.553 1.553 0 0 0-.188 3.098 1.553 1.553 0 0 0 .188-3.098ZM103.919 58.153a1.665 1.665 0 0 1-1.559-1.76 1.664 1.664 0 0 1 1.76-1.559 1.665 1.665 0 0 1 1.559 1.76 1.664 1.664 0 0 1-1.76 1.559Zm.194-3.208a1.553 1.553 0 0 0-1.643 1.455 1.552 1.552 0 1 0 1.643-1.455ZM107.997 58.4a1.665 1.665 0 0 1-1.559-1.76 1.664 1.664 0 0 1 1.76-1.559 1.665 1.665 0 0 1 1.559 1.76 1.664 1.664 0 0 1-1.76 1.559Zm.195-3.208a1.552 1.552 0 1 0-.187 3.099 1.552 1.552 0 0 0 .187-3.1ZM112.044 58.647a1.665 1.665 0 0 1-1.559-1.76 1.664 1.664 0 0 1 1.76-1.559 1.665 1.665 0 0 1 1.559 1.76 1.664 1.664 0 0 1-1.76 1.559Zm.194-3.208a1.554 1.554 0 0 0-1.643 1.455 1.552 1.552 0 1 0 1.643-1.455ZM58.03 58.975a1 1 0 0 1-1.06.938l-1.526-.092a1 1 0 0 1-.937-1.06l.057-.946a1 1 0 0 1 1.06-.938l1.525.093a1 1 0 0 1 .938 1.058l-.058.947Zm-3.406-.317a1 1 0 0 0 .938 1.059l1.305.08a1 1 0 0 0 1.059-.938l.044-.727a1 1 0 0 0-.938-1.059l-1.305-.08a1 1 0 0 0-1.059.938l-.044.727ZM62.442 60.432a1.664 1.664 0 0 1-1.558-1.76 1.664 1.664 0 0 1 1.76-1.559 1.664 1.664 0 0 1 1.558 1.76 1.664 1.664 0 0 1-1.76 1.559Zm.195-3.208a1.553 1.553 0 0 0-1.643 1.455 1.553 1.553 0 1 0 1.643-1.455ZM66.497 60.679a1.664 1.664 0 0 1-1.559-1.76 1.664 1.664 0 0 1 1.76-1.559 1.664 1.664 0 0 1 1.559 1.76 1.664 1.664 0 0 1-1.76 1.559Zm.195-3.209a1.553 1.553 0 0 0-1.643 1.455 1.553 1.553 0 0 0 3.098.188 1.553 1.553 0 0 0-1.455-1.642ZM70.56 60.926a1.664 1.664 0 0 1-1.56-1.76 1.664 1.664 0 0 1 1.76-1.559 1.664 1.664 0 0 1 1.56 1.76 1.664 1.664 0 0 1-1.76 1.559Zm.194-3.209a1.553 1.553 0 0 0-1.643 1.456 1.553 1.553 0 1 0 1.643-1.455ZM74.638 61.173a1.664 1.664 0 0 1-1.559-1.76 1.664 1.664 0 0 1 1.76-1.559 1.664 1.664 0 0 1 1.558 1.76 1.664 1.664 0 0 1-1.76 1.559Zm.194-3.208a1.553 1.553 0 0 0-1.643 1.454c-.052.855.6 1.592 1.455 1.644a1.553 1.553 0 0 0 .188-3.098ZM78.692 61.42a1.664 1.664 0 0 1-1.558-1.76 1.664 1.664 0 0 1 1.76-1.559 1.664 1.664 0 0 1 1.558 1.76 1.664 1.664 0 0 1-1.76 1.558Zm.195-3.209a1.553 1.553 0 0 0-1.643 1.455c-.052.855.6 1.591 1.455 1.643a1.553 1.553 0 0 0 .188-3.098ZM91.039 61.98l-3.522-.214.178-2.944 3.523.214-.179 2.944Zm-3.405-.318 3.302.2.165-2.722-3.302-.2-.165 2.722ZM95.505 62.438a1.664 1.664 0 0 1-1.559-1.76 1.664 1.664 0 0 1 1.76-1.558 1.664 1.664 0 0 1 1.559 1.76 1.664 1.664 0 0 1-1.76 1.558Zm.194-3.208a1.553 1.553 0 0 0-1.643 1.455 1.553 1.553 0 0 0 3.098.188A1.557 1.557 0 0 0 95.7 59.23ZM99.552 62.685a1.664 1.664 0 0 1-1.559-1.76 1.663 1.663 0 1 1 1.558 1.76Zm.194-3.208a1.553 1.553 0 0 0-1.643 1.455 1.553 1.553 0 1 0 1.643-1.455ZM103.622 62.932a1.665 1.665 0 0 1-1.559-1.76 1.664 1.664 0 0 1 1.76-1.558 1.665 1.665 0 0 1 1.559 1.76 1.664 1.664 0 0 1-1.76 1.558Zm.195-3.208a1.552 1.552 0 1 0-.187 3.099 1.552 1.552 0 0 0 .187-3.1ZM107.7 63.18a1.665 1.665 0 0 1-1.559-1.76 1.664 1.664 0 0 1 1.76-1.56 1.665 1.665 0 0 1 1.559 1.76 1.664 1.664 0 0 1-1.76 1.56Zm.195-3.21a1.553 1.553 0 0 0-.188 3.099c.854.052 1.591-.6 1.643-1.455a1.554 1.554 0 0 0-1.455-1.643ZM111.763 63.426a1.663 1.663 0 0 1 .201-3.319 1.663 1.663 0 0 1-.201 3.319Zm.194-3.208a1.554 1.554 0 0 0-1.643 1.455 1.553 1.553 0 1 0 1.643-1.455ZM57.756 63.754a1 1 0 0 1-1.059.938l-1.526-.093a1 1 0 0 1-.938-1.059l.058-.947a1 1 0 0 1 1.059-.938l1.526.093a1 1 0 0 1 .937 1.059l-.057.947Zm-3.406-.317a1 1 0 0 0 .938 1.059l1.306.079a1 1 0 0 0 1.058-.938l.044-.727a1 1 0 0 0-.937-1.058l-1.306-.08a1 1 0 0 0-1.059.938l-.044.727ZM62.145 65.211a1.664 1.664 0 0 1-1.558-1.76 1.664 1.664 0 0 1 1.76-1.558 1.664 1.664 0 0 1 1.558 1.76 1.664 1.664 0 0 1-1.76 1.558Zm.195-3.208a1.553 1.553 0 0 0-.188 3.098 1.553 1.553 0 0 0 .188-3.098ZM66.208 65.458a1.664 1.664 0 0 1-1.559-1.76 1.664 1.664 0 0 1 1.76-1.558 1.664 1.664 0 0 1 1.559 1.76 1.664 1.664 0 0 1-1.76 1.558Zm.195-3.208a1.553 1.553 0 0 0-.189 3.098 1.553 1.553 0 0 0 .188-3.098ZM70.278 65.705a1.664 1.664 0 0 1-1.558-1.76 1.664 1.664 0 0 1 1.76-1.559 1.664 1.664 0 0 1 1.558 1.76 1.664 1.664 0 0 1-1.76 1.559Zm.195-3.208a1.553 1.553 0 0 0-1.643 1.455c-.052.854.6 1.59 1.455 1.643.854.051 1.59-.601 1.643-1.455a1.553 1.553 0 0 0-1.455-1.643ZM74.348 65.952a1.664 1.664 0 0 1-1.558-1.76 1.664 1.664 0 0 1 1.76-1.558 1.664 1.664 0 0 1 1.558 1.76 1.664 1.664 0 0 1-1.76 1.558Zm.195-3.208a1.553 1.553 0 0 0-.188 3.098c.855.052 1.591-.6 1.643-1.455a1.553 1.553 0 0 0-1.455-1.643ZM78.403 66.198a1.664 1.664 0 0 1-1.558-1.76 1.664 1.664 0 0 1 1.76-1.558 1.664 1.664 0 0 1 1.558 1.76 1.664 1.664 0 0 1-1.76 1.558Zm.195-3.208a1.553 1.553 0 0 0-1.643 1.455 1.553 1.553 0 0 0 3.098.188 1.553 1.553 0 0 0-1.455-1.643ZM90.742 66.759l-3.522-.214.178-2.944 3.523.214-.179 2.944Zm-3.405-.318 3.302.2.165-2.722-3.302-.2-.165 2.722ZM95.208 67.218a1.664 1.664 0 0 1-1.559-1.76 1.664 1.664 0 0 1 1.76-1.559 1.664 1.664 0 0 1 1.559 1.76 1.664 1.664 0 0 1-1.76 1.558Zm.195-3.209a1.553 1.553 0 0 0-.189 3.098c.855.052 1.592-.6 1.643-1.455a1.557 1.557 0 0 0-1.454-1.643ZM99.27 67.464a1.664 1.664 0 0 1-1.558-1.76 1.663 1.663 0 1 1 1.559 1.76Zm.195-3.208a1.553 1.553 0 0 0-.188 3.098c.854.052 1.591-.6 1.643-1.455a1.553 1.553 0 0 0-1.455-1.643ZM103.341 67.711a1.665 1.665 0 0 1-1.559-1.76 1.664 1.664 0 0 1 1.76-1.558 1.665 1.665 0 0 1 1.559 1.76 1.664 1.664 0 0 1-1.76 1.558Zm.194-3.208a1.554 1.554 0 0 0-1.643 1.455 1.553 1.553 0 1 0 1.643-1.455ZM107.411 67.958a1.665 1.665 0 0 1-1.559-1.76 1.664 1.664 0 0 1 1.76-1.558 1.665 1.665 0 0 1 1.559 1.76 1.664 1.664 0 0 1-1.76 1.558Zm.195-3.208a1.553 1.553 0 0 0-.188 3.098c.854.052 1.591-.6 1.643-1.455a1.554 1.554 0 0 0-1.455-1.643ZM111.466 68.205a1.665 1.665 0 0 1-1.559-1.76 1.664 1.664 0 0 1 1.76-1.558 1.665 1.665 0 0 1 1.559 1.76 1.664 1.664 0 0 1-1.76 1.558Zm.194-3.208a1.554 1.554 0 0 0-1.643 1.455 1.553 1.553 0 1 0 1.643-1.455ZM57.459 68.534a1 1 0 0 1-1.059.937l-1.526-.093a1 1 0 0 1-.937-1.058l.057-.947a1 1 0 0 1 1.059-.938l1.526.093a1 1 0 0 1 .937 1.058l-.057.948Zm-3.405-.318a1 1 0 0 0 .937 1.059l1.306.08a1 1 0 0 0 1.058-.938l.045-.727a1 1 0 0 0-.938-1.059l-1.306-.08a1 1 0 0 0-1.058.939l-.044.726ZM61.848 69.99a1.664 1.664 0 0 1-1.558-1.76 1.664 1.664 0 0 1 1.76-1.559 1.664 1.664 0 0 1 1.558 1.76 1.664 1.664 0 0 1-1.76 1.559Zm.195-3.208a1.553 1.553 0 1 0 1.455 1.643 1.553 1.553 0 0 0-1.455-1.643ZM65.91 70.237a1.664 1.664 0 0 1-1.558-1.76 1.664 1.664 0 0 1 1.76-1.559 1.664 1.664 0 0 1 1.559 1.76 1.664 1.664 0 0 1-1.76 1.559Zm.196-3.208a1.553 1.553 0 0 0-.188 3.097c.854.052 1.59-.6 1.643-1.455a1.553 1.553 0 0 0-1.455-1.642ZM69.99 70.484a1.664 1.664 0 0 1-1.56-1.76 1.664 1.664 0 0 1 1.76-1.559 1.664 1.664 0 0 1 1.559 1.76 1.664 1.664 0 0 1-1.76 1.559Zm.194-3.209a1.553 1.553 0 0 0-1.643 1.455c-.052.855.6 1.591 1.455 1.643.854.052 1.59-.6 1.643-1.455a1.553 1.553 0 0 0-1.455-1.643ZM74.06 70.73a1.664 1.664 0 0 1-1.56-1.759 1.664 1.664 0 0 1 1.76-1.559 1.664 1.664 0 0 1 1.56 1.76 1.664 1.664 0 0 1-1.76 1.559Zm.194-3.207a1.553 1.553 0 0 0-1.643 1.455c-.052.854.6 1.59 1.455 1.643.855.051 1.591-.601 1.643-1.455a1.553 1.553 0 0 0-1.455-1.643ZM78.114 70.978a1.664 1.664 0 0 1-1.558-1.76 1.664 1.664 0 0 1 1.76-1.559 1.664 1.664 0 0 1 1.558 1.76 1.664 1.664 0 0 1-1.76 1.559Zm.195-3.209a1.553 1.553 0 0 0-1.643 1.455c-.052.855.6 1.591 1.455 1.643.854.052 1.59-.6 1.643-1.455a1.553 1.553 0 0 0-1.455-1.643ZM90.506 70.54a1 1 0 0 1-1.059.938l-1.526-.093a1 1 0 0 1-.938-1.059l.058-.947a1 1 0 0 1 1.059-.938l1.526.093a1 1 0 0 1 .937 1.059l-.057.947Zm-3.406-.317a1 1 0 0 0 .938 1.058l1.306.08a1 1 0 0 0 1.058-.938l.044-.727a1 1 0 0 0-.937-1.058l-1.306-.08a1 1 0 0 0-1.059.938l-.044.727ZM94.91 71.996a1.664 1.664 0 0 1-1.558-1.76 1.664 1.664 0 0 1 1.76-1.558 1.664 1.664 0 0 1 1.559 1.76 1.664 1.664 0 0 1-1.76 1.558Zm.196-3.208a1.553 1.553 0 1 0 1.455 1.643 1.557 1.557 0 0 0-1.455-1.643ZM98.981 72.243a1.664 1.664 0 0 1-1.558-1.76 1.663 1.663 0 1 1 1.559 1.76Zm.195-3.208a1.553 1.553 0 0 0-1.643 1.455 1.553 1.553 0 0 0 3.098.188 1.553 1.553 0 0 0-1.455-1.643ZM103.052 72.49a1.665 1.665 0 0 1-1.559-1.76 1.663 1.663 0 1 1 1.559 1.76Zm.194-3.208a1.553 1.553 0 0 0-1.643 1.455 1.553 1.553 0 1 0 1.643-1.455ZM107.114 72.738a1.663 1.663 0 0 1 .201-3.319 1.665 1.665 0 0 1 1.559 1.76 1.664 1.664 0 0 1-1.76 1.559Zm.195-3.209a1.553 1.553 0 0 0-.188 3.098c.854.052 1.591-.6 1.643-1.455a1.553 1.553 0 0 0-1.455-1.643ZM111.177 72.984a1.665 1.665 0 0 1-1.559-1.76 1.663 1.663 0 1 1 1.559 1.76Zm.194-3.208a1.554 1.554 0 0 0-1.643 1.455 1.553 1.553 0 1 0 1.643-1.455ZM57.154 73.313a1 1 0 0 1-1.059.937l-1.526-.092a1 1 0 0 1-.937-1.06l.057-.946a1 1 0 0 1 1.06-.938l1.525.093a1 1 0 0 1 .938 1.058l-.058.948Zm-3.405-.318a1 1 0 0 0 .938 1.06l1.305.078a1 1 0 0 0 1.059-.937l.044-.727a1 1 0 0 0-.938-1.059l-1.305-.079a1 1 0 0 0-1.059.938l-.044.726ZM61.56 74.77A1.664 1.664 0 0 1 60 73.01a1.664 1.664 0 0 1 1.76-1.56 1.664 1.664 0 0 1 1.56 1.76 1.664 1.664 0 0 1-1.76 1.56Zm.194-3.209a1.553 1.553 0 0 0-1.643 1.455 1.553 1.553 0 0 0 3.098.188 1.553 1.553 0 0 0-1.455-1.643ZM65.63 75.016a1.664 1.664 0 0 1-1.559-1.76 1.664 1.664 0 0 1 1.76-1.558 1.664 1.664 0 0 1 1.559 1.76 1.664 1.664 0 0 1-1.76 1.558Zm.194-3.208a1.553 1.553 0 0 0-1.643 1.455c-.051.854.601 1.59 1.455 1.643a1.553 1.553 0 0 0 .188-3.098ZM69.708 75.263a1.664 1.664 0 0 1-1.559-1.76 1.664 1.664 0 0 1 1.76-1.559 1.664 1.664 0 0 1 1.559 1.76 1.664 1.664 0 0 1-1.76 1.559Zm.195-3.208a1.553 1.553 0 0 0-.189 3.098 1.553 1.553 0 0 0 .188-3.098ZM73.77 75.51a1.664 1.664 0 0 1-1.558-1.76 1.664 1.664 0 0 1 1.76-1.558 1.664 1.664 0 0 1 1.558 1.76 1.664 1.664 0 0 1-1.76 1.558Zm.195-3.208a1.553 1.553 0 0 0-.188 3.098 1.553 1.553 0 0 0 .188-3.098ZM77.825 75.757a1.664 1.664 0 0 1-1.559-1.76 1.664 1.664 0 0 1 1.76-1.558 1.664 1.664 0 0 1 1.559 1.76 1.664 1.664 0 0 1-1.76 1.558Zm.195-3.208a1.553 1.553 0 0 0-1.643 1.455 1.553 1.553 0 1 0 1.643-1.455ZM90.156 76.317l-3.522-.214.178-2.943 3.523.214-.179 2.943ZM86.751 76l3.302.2.165-2.723-3.302-.2L86.751 76ZM94.614 76.776a1.664 1.664 0 0 1-1.558-1.76 1.664 1.664 0 0 1 1.76-1.559 1.664 1.664 0 0 1 1.558 1.76 1.664 1.664 0 0 1-1.76 1.559Zm.195-3.208a1.553 1.553 0 0 0-1.643 1.455c-.052.854.6 1.59 1.455 1.643.854.052 1.59-.6 1.643-1.455a1.557 1.557 0 0 0-1.455-1.643ZM98.7 77.022a1.664 1.664 0 0 1-1.559-1.76 1.664 1.664 0 0 1 1.76-1.558 1.664 1.664 0 0 1 1.559 1.76 1.664 1.664 0 0 1-1.76 1.558Zm.195-3.208a1.553 1.553 0 0 0-1.643 1.455 1.553 1.553 0 0 0 3.098.188 1.554 1.554 0 0 0-1.455-1.643ZM102.763 77.27a1.663 1.663 0 0 1 .201-3.319 1.663 1.663 0 0 1-.201 3.318Zm.194-3.209a1.553 1.553 0 0 0-1.643 1.455 1.553 1.553 0 1 0 1.643-1.455ZM106.825 77.516a1.665 1.665 0 0 1-1.559-1.76 1.664 1.664 0 0 1 1.76-1.558 1.665 1.665 0 0 1 1.559 1.76 1.664 1.664 0 0 1-1.76 1.558Zm.195-3.208a1.553 1.553 0 0 0-.188 3.098c.854.052 1.591-.6 1.643-1.455a1.554 1.554 0 0 0-1.455-1.643ZM110.888 77.763a1.663 1.663 0 0 1 .201-3.318 1.663 1.663 0 0 1-.201 3.318Zm.194-3.208a1.554 1.554 0 0 0-1.643 1.455 1.553 1.553 0 1 0 1.643-1.455ZM56.873 78.092a1 1 0 0 1-1.059.937l-1.526-.092a1 1 0 0 1-.937-1.059l.057-.947a1 1 0 0 1 1.059-.938l1.526.093a1 1 0 0 1 .938 1.058l-.058.948Zm-3.405-.318a1 1 0 0 0 .937 1.06l1.306.078a1 1 0 0 0 1.059-.937l.044-.727a1 1 0 0 0-.938-1.059l-1.305-.079a1 1 0 0 0-1.06.938l-.043.726ZM61.263 79.548a1.664 1.664 0 0 1-1.559-1.76 1.664 1.664 0 0 1 1.76-1.558 1.664 1.664 0 0 1 1.558 1.76 1.664 1.664 0 0 1-1.76 1.558Zm.194-3.208a1.553 1.553 0 0 0-1.643 1.455 1.553 1.553 0 0 0 3.098.188 1.553 1.553 0 0 0-1.455-1.643ZM65.34 79.795a1.664 1.664 0 0 1-1.558-1.76 1.664 1.664 0 0 1 1.76-1.558 1.664 1.664 0 0 1 1.558 1.76 1.664 1.664 0 0 1-1.76 1.558Zm.195-3.208a1.553 1.553 0 0 0-1.643 1.455c-.052.854.6 1.59 1.455 1.643.855.052 1.591-.6 1.643-1.455a1.553 1.553 0 0 0-1.455-1.643ZM69.403 80.042a1.664 1.664 0 0 1-1.558-1.76 1.664 1.664 0 0 1 1.76-1.558 1.664 1.664 0 0 1 1.558 1.76 1.664 1.664 0 0 1-1.76 1.558Zm.195-3.208a1.553 1.553 0 0 0-1.643 1.455c-.052.854.6 1.591 1.455 1.643.854.052 1.59-.6 1.643-1.455a1.553 1.553 0 0 0-1.455-1.643ZM73.466 80.29a1.664 1.664 0 0 1-1.559-1.76 1.664 1.664 0 0 1 1.76-1.56 1.664 1.664 0 0 1 1.558 1.76 1.664 1.664 0 0 1-1.76 1.56Zm.194-3.209a1.553 1.553 0 0 0-1.643 1.455 1.553 1.553 0 0 0 3.098.188 1.553 1.553 0 0 0-1.455-1.643ZM77.544 80.536a1.664 1.664 0 0 1-1.559-1.76 1.664 1.664 0 0 1 1.76-1.558 1.664 1.664 0 0 1 1.559 1.76 1.664 1.664 0 0 1-1.76 1.558Zm.194-3.208a1.553 1.553 0 0 0-1.642 1.455 1.553 1.553 0 0 0 3.097.188 1.553 1.553 0 0 0-1.455-1.643ZM89.875 81.096l-3.522-.214.178-2.943 3.523.214-.179 2.943Zm-3.405-.317 3.301.2.166-2.723-3.302-.2-.165 2.723ZM94.325 81.555a1.664 1.664 0 0 1-1.559-1.76 1.664 1.664 0 0 1 1.76-1.558 1.664 1.664 0 0 1 1.559 1.76 1.664 1.664 0 0 1-1.76 1.558Zm.195-3.208a1.553 1.553 0 0 0-1.643 1.455 1.553 1.553 0 0 0 3.098.188 1.557 1.557 0 0 0-1.455-1.643ZM98.395 81.802a1.664 1.664 0 0 1-1.558-1.76 1.664 1.664 0 0 1 1.76-1.559 1.664 1.664 0 0 1 1.558 1.76 1.664 1.664 0 0 1-1.76 1.559Zm.195-3.209a1.553 1.553 0 0 0-.188 3.098 1.553 1.553 0 0 0 .188-3.098ZM102.473 82.049a1.663 1.663 0 0 1 .202-3.319 1.663 1.663 0 0 1-.202 3.319Zm.195-3.208a1.553 1.553 0 0 0-1.643 1.455 1.553 1.553 0 1 0 1.643-1.455ZM106.544 82.296a1.665 1.665 0 0 1-1.559-1.76 1.664 1.664 0 0 1 1.76-1.559 1.665 1.665 0 0 1 1.559 1.76 1.664 1.664 0 0 1-1.76 1.559Zm.194-3.209a1.554 1.554 0 0 0-1.643 1.456 1.552 1.552 0 1 0 1.643-1.455ZM110.606 82.542a1.663 1.663 0 0 1 .202-3.318 1.663 1.663 0 0 1-.202 3.318Zm.195-3.208a1.554 1.554 0 0 0-1.643 1.455 1.553 1.553 0 0 0 1.455 1.643c.854.052 1.591-.6 1.643-1.455a1.553 1.553 0 0 0-1.455-1.643ZM56.584 82.876a1 1 0 0 1-1.059.938L54 83.72a1 1 0 0 1-.937-1.059l.057-.947a1 1 0 0 1 1.059-.937l1.526.092a1 1 0 0 1 .937 1.059l-.057.947Zm-3.405-.317a1 1 0 0 0 .937 1.059l1.306.079a1 1 0 0 0 1.058-.938l.045-.727a1 1 0 0 0-.938-1.058l-1.306-.08a1 1 0 0 0-1.058.938l-.044.727ZM60.973 84.333a1.664 1.664 0 0 1-1.558-1.76 1.664 1.664 0 0 1 1.76-1.558 1.664 1.664 0 0 1 1.558 1.76 1.664 1.664 0 0 1-1.76 1.558Zm.196-3.214a1.553 1.553 0 0 0-1.643 1.455c-.052.855.6 1.591 1.454 1.643.855.052 1.592-.6 1.643-1.455a1.557 1.557 0 0 0-1.454-1.643ZM65.06 84.58a1.664 1.664 0 0 1-1.56-1.76 1.664 1.664 0 0 1 1.76-1.559 1.664 1.664 0 0 1 1.56 1.76 1.664 1.664 0 0 1-1.76 1.559Zm.194-3.214a1.553 1.553 0 0 0-.188 3.098c.855.052 1.591-.6 1.643-1.455a1.557 1.557 0 0 0-1.455-1.643ZM69.106 84.827a1.664 1.664 0 0 1-1.558-1.76 1.664 1.664 0 0 1 1.76-1.558 1.664 1.664 0 0 1 1.558 1.76 1.664 1.664 0 0 1-1.76 1.558Zm.195-3.214a1.553 1.553 0 0 0-1.643 1.455 1.553 1.553 0 0 0 3.098.188 1.557 1.557 0 0 0-1.455-1.643ZM73.184 85.074a1.664 1.664 0 0 1-1.558-1.76 1.664 1.664 0 0 1 1.76-1.559 1.664 1.664 0 0 1 1.558 1.76 1.664 1.664 0 0 1-1.76 1.559Zm.195-3.214a1.553 1.553 0 0 0-.188 3.098c.855.052 1.591-.6 1.643-1.455a1.557 1.557 0 0 0-1.455-1.643ZM77.247 85.32a1.664 1.664 0 0 1-1.559-1.76 1.664 1.664 0 0 1 1.76-1.558 1.664 1.664 0 0 1 1.559 1.76 1.664 1.664 0 0 1-1.76 1.559Zm.195-3.213a1.553 1.553 0 0 0-.188 3.098c.854.052 1.591-.6 1.643-1.455a1.557 1.557 0 0 0-1.455-1.643ZM89.647 84.882a1 1 0 0 1-1.06.938l-1.525-.092a1 1 0 0 1-.938-1.06l.058-.946a1 1 0 0 1 1.058-.938l1.526.093a1 1 0 0 1 .938 1.058l-.057.947Zm-3.406-.317a1 1 0 0 0 .938 1.059l1.305.08a1 1 0 0 0 1.059-.938l.044-.727a1 1 0 0 0-.938-1.059l-1.305-.08a1 1 0 0 0-1.059.938l-.044.727ZM94.044 86.34a1.664 1.664 0 0 1-1.559-1.76 1.664 1.664 0 0 1 1.76-1.558 1.664 1.664 0 0 1 1.559 1.76 1.664 1.664 0 0 1-1.76 1.558Zm.195-3.214a1.553 1.553 0 0 0-1.643 1.455c-.052.855.6 1.591 1.455 1.643.854.052 1.59-.6 1.643-1.455a1.56 1.56 0 0 0-1.455-1.643ZM98.114 86.586a1.664 1.664 0 0 1-1.558-1.76 1.664 1.664 0 0 1 1.76-1.558 1.664 1.664 0 0 1 1.558 1.76 1.664 1.664 0 0 1-1.76 1.558Zm.195-3.213a1.553 1.553 0 0 0-1.643 1.455 1.553 1.553 0 0 0 3.098.188 1.557 1.557 0 0 0-1.455-1.643ZM102.169 86.833a1.665 1.665 0 0 1-1.559-1.76 1.664 1.664 0 0 1 1.76-1.558 1.665 1.665 0 0 1 1.559 1.76 1.664 1.664 0 0 1-1.76 1.558Zm.195-3.213a1.553 1.553 0 0 0-.188 3.097c.854.052 1.591-.6 1.643-1.454a1.557 1.557 0 0 0-1.455-1.643ZM106.247 87.08a1.665 1.665 0 0 1-1.559-1.76 1.664 1.664 0 0 1 1.76-1.558 1.665 1.665 0 0 1 1.559 1.76 1.664 1.664 0 0 1-1.76 1.558Zm.195-3.213a1.553 1.553 0 0 0-.188 3.098c.854.051 1.591-.601 1.643-1.455a1.557 1.557 0 0 0-1.455-1.643ZM110.317 87.327a1.663 1.663 0 0 1 .202-3.319 1.663 1.663 0 0 1-.202 3.319Zm.195-3.214a1.553 1.553 0 0 0-1.643 1.455 1.553 1.553 0 0 0 3.098.188 1.556 1.556 0 0 0-1.455-1.643ZM56.303 87.656a1 1 0 0 1-1.059.937l-1.526-.092a1 1 0 0 1-.938-1.059l.058-.947a1 1 0 0 1 1.059-.938l1.526.093a1 1 0 0 1 .937 1.058l-.057.948Zm-3.406-.318a1 1 0 0 0 .938 1.06l1.305.078a1 1 0 0 0 1.06-.937l.043-.727a1 1 0 0 0-.937-1.059L54 85.674a1 1 0 0 0-1.059.938l-.044.726ZM60.692 89.112a1.664 1.664 0 0 1-1.558-1.76 1.664 1.664 0 0 1 1.76-1.558 1.664 1.664 0 0 1 1.558 1.76 1.664 1.664 0 0 1-1.76 1.558Zm.195-3.208a1.553 1.553 0 0 0-1.643 1.455 1.553 1.553 0 1 0 1.643-1.455ZM64.755 89.36a1.664 1.664 0 0 1-1.559-1.76 1.664 1.664 0 0 1 1.76-1.56 1.664 1.664 0 0 1 1.559 1.76 1.664 1.664 0 0 1-1.76 1.56Zm.194-3.209a1.553 1.553 0 0 0-1.643 1.455c-.051.854.601 1.591 1.455 1.643a1.553 1.553 0 0 0 .188-3.098ZM68.825 89.606a1.664 1.664 0 0 1-1.559-1.76 1.664 1.664 0 0 1 1.76-1.559 1.664 1.664 0 0 1 1.559 1.76 1.664 1.664 0 0 1-1.76 1.559Zm.195-3.208a1.553 1.553 0 0 0-1.643 1.455c-.052.854.6 1.59 1.455 1.643.854.051 1.59-.601 1.643-1.455a1.553 1.553 0 0 0-1.455-1.643ZM72.895 89.853a1.664 1.664 0 0 1-1.558-1.76 1.664 1.664 0 0 1 1.76-1.558 1.664 1.664 0 0 1 1.558 1.76 1.664 1.664 0 0 1-1.76 1.558Zm.195-3.208a1.553 1.553 0 0 0-.188 3.098 1.553 1.553 0 0 0 .188-3.098ZM76.973 90.1a1.664 1.664 0 0 1-1.558-1.76 1.664 1.664 0 0 1 1.76-1.559 1.664 1.664 0 0 1 1.558 1.76 1.664 1.664 0 0 1-1.76 1.559Zm.195-3.209a1.553 1.553 0 0 0-1.643 1.455 1.553 1.553 0 0 0 3.098.188 1.553 1.553 0 0 0-1.455-1.643ZM89.35 89.662a1 1 0 0 1-1.06.937l-1.525-.092a1 1 0 0 1-.938-1.059l.058-.947a1 1 0 0 1 1.058-.938l1.526.093a1 1 0 0 1 .938 1.059l-.057.947Zm-3.406-.318a1 1 0 0 0 .938 1.06l1.305.079a1 1 0 0 0 1.059-.938l.044-.727a1 1 0 0 0-.938-1.059l-1.305-.079a1 1 0 0 0-1.059.938l-.044.727ZM93.747 91.119a1.664 1.664 0 0 1-1.559-1.76 1.664 1.664 0 0 1 1.76-1.559 1.664 1.664 0 0 1 1.559 1.76 1.664 1.664 0 0 1-1.76 1.559Zm.195-3.209a1.553 1.553 0 0 0-1.643 1.456 1.553 1.553 0 0 0 3.098.188 1.557 1.557 0 0 0-1.455-1.644ZM97.817 91.365a1.664 1.664 0 0 1-1.558-1.76 1.664 1.664 0 0 1 1.76-1.558 1.664 1.664 0 0 1 1.558 1.76 1.664 1.664 0 0 1-1.76 1.558Zm.195-3.208a1.553 1.553 0 0 0-1.643 1.455 1.553 1.553 0 1 0 1.643-1.455ZM101.88 91.612a1.665 1.665 0 0 1-1.559-1.76 1.664 1.664 0 0 1 1.76-1.558 1.665 1.665 0 0 1 1.559 1.76 1.664 1.664 0 0 1-1.76 1.558Zm.194-3.208a1.554 1.554 0 0 0-1.643 1.455 1.553 1.553 0 1 0 1.643-1.455ZM105.958 91.86a1.665 1.665 0 0 1-1.559-1.76 1.664 1.664 0 0 1 1.76-1.559 1.665 1.665 0 0 1 1.559 1.76 1.664 1.664 0 0 1-1.76 1.559Zm.194-3.209a1.552 1.552 0 1 0-.186 3.099 1.552 1.552 0 0 0 .186-3.099ZM110.028 92.106a1.663 1.663 0 0 1 .202-3.318 1.663 1.663 0 0 1-.202 3.318Zm.195-3.208a1.553 1.553 0 0 0-.188 3.098c.854.052 1.591-.6 1.643-1.455a1.553 1.553 0 0 0-1.455-1.643ZM94.695 41.067a.85.85 0 0 1-.9.798L60.55 39.847a.85.85 0 0 1 .103-1.698l33.245 2.018a.85.85 0 0 1 .797.9Zm-34.832-2.114a.74.74 0 0 0 .694.784l33.245 2.017a.74.74 0 0 0 .09-1.477L60.646 38.26a.74.74 0 0 0-.784.694ZM58.717 38.884a.85.85 0 0 1-.9.798l-1.29-.079a.85.85 0 0 1 .103-1.698l1.29.079a.85.85 0 0 1 .797.9Zm-2.877-.174a.74.74 0 0 0 .694.783l1.29.078a.74.74 0 0 0 .09-1.477l-1.29-.078a.74.74 0 0 0-.784.694ZM106.248 23.61l-39.859-2.418a1.375 1.375 0 0 1-1.29-1.456l.091-1.489c.046-.76.7-1.335 1.456-1.289l39.859 2.419c.761.046 1.335.7 1.289 1.456l-.09 1.488a1.375 1.375 0 0 1-1.456 1.29ZM68.525 25.454l-11.305-.686a.588.588 0 1 0-.071 1.174l11.305.686a.588.588 0 0 0 .072-1.174ZM68.338 28.69l-11.306-.686a.588.588 0 1 0-.07 1.174l11.305.686a.588.588 0 0 0 .071-1.174ZM68.127 31.926l-11.306-.686a.588.588 0 1 0-.07 1.174l11.305.686a.588.588 0 0 0 .071-1.174ZM98.76 27.289l-11.306-.686a.588.588 0 1 0-.071 1.174l11.306.686a.588.588 0 0 0 .07-1.174ZM98.565 30.525l-11.306-.686a.588.588 0 1 0-.071 1.174l11.305.686a.588.588 0 0 0 .072-1.174ZM98.362 33.76l-11.306-.686a.588.588 0 1 0-.071 1.174l11.305.686a.588.588 0 0 0 .072-1.174ZM119.782 29.151a1.037 1.037 0 0 1-1.099.974l-17.038-1.034a1.039 1.039 0 1 1 .126-2.073l17.038 1.034c.572.035 1.008.527.973 1.1Zm-19-1.153a.928.928 0 0 0 .87.982l17.038 1.034a.928.928 0 1 0 .112-1.852l-17.038-1.034a.928.928 0 0 0-.982.87ZM73.278 27.069a.3.3 0 0 1-.318.281l-1.474-.09a.3.3 0 0 1-.281-.317l.09-1.474a.3.3 0 0 1 .317-.281l1.474.09a.3.3 0 0 1 .28.317l-.088 1.474Zm-1.956-.23a.3.3 0 0 0 .281.318l1.253.076a.3.3 0 0 0 .318-.281l.076-1.253a.3.3 0 0 0-.281-.318l-1.253-.076a.3.3 0 0 0-.318.281l-.076 1.253Z" fill="#6683C2"/><path d="M75.246 27.188a.3.3 0 0 1-.317.281l-1.474-.09a.3.3 0 0 1-.281-.317l.09-1.474a.3.3 0 0 1 .317-.281l1.473.09a.3.3 0 0 1 .282.317l-.09 1.474Zm-1.955-.23a.3.3 0 0 0 .28.318l1.254.076a.3.3 0 0 0 .318-.281l.076-1.253a.3.3 0 0 0-.281-.318l-1.254-.076a.3.3 0 0 0-.317.281l-.076 1.253Z" fill="#6683C2"/><path d="M77.184 27.306a.3.3 0 0 1-.318.281l-1.474-.09a.3.3 0 0 1-.28-.317l.089-1.473a.3.3 0 0 1 .317-.282l1.474.09a.3.3 0 0 1 .281.317l-.09 1.474Zm-1.969.07 1.548.094a.3.3 0 0 0 .317-.28l.076-1.254a.3.3 0 0 0-.281-.318l-1.253-.076a.3.3 0 0 0-.318.281l-.094 1.548c0 .003.002.005.005.006Z" fill="#6683C2"/><path d="M79.153 27.425a.3.3 0 0 1-.318.282l-1.474-.09a.3.3 0 0 1-.281-.318l.09-1.473a.3.3 0 0 1 .317-.282l1.474.09a.3.3 0 0 1 .28.318l-.088 1.473Zm-1.956-.229a.3.3 0 0 0 .281.318l1.253.076a.3.3 0 0 0 .318-.282l.076-1.253a.3.3 0 0 0-.281-.317l-1.253-.076a.3.3 0 0 0-.318.28l-.076 1.254Z" fill="#6683C2"/><path d="M81.113 27.545a.3.3 0 0 1-.317.28l-1.474-.089a.3.3 0 0 1-.281-.317l.09-1.474a.3.3 0 0 1 .317-.281l1.474.09a.3.3 0 0 1 .28.317l-.089 1.474Zm-1.955-.23a.3.3 0 0 0 .281.318l1.253.076a.3.3 0 0 0 .318-.281l.076-1.254a.3.3 0 0 0-.281-.317l-1.254-.076a.3.3 0 0 0-.317.281l-.076 1.253Z" fill="#6683C2"/><path d="M83.082 27.664a.3.3 0 0 1-.317.281l-1.474-.09a.3.3 0 0 1-.281-.317l.089-1.474a.3.3 0 0 1 .318-.28l1.473.089a.3.3 0 0 1 .282.317l-.09 1.474Zm-1.956-.23a.3.3 0 0 0 .282.318l1.253.076a.3.3 0 0 0 .318-.281l.076-1.253a.3.3 0 0 0-.282-.318L81.52 25.9a.3.3 0 0 0-.317.281l-.077 1.254ZM73.082 30.304a.3.3 0 0 1-.317.282l-1.474-.09a.3.3 0 0 1-.281-.318l.089-1.473a.3.3 0 0 1 .318-.282l1.473.09a.3.3 0 0 1 .282.317l-.09 1.474Zm-1.956-.23a.3.3 0 0 0 .282.318l1.253.077a.3.3 0 0 0 .318-.282l.076-1.253a.3.3 0 0 0-.282-.318l-1.253-.076a.3.3 0 0 0-.317.282l-.077 1.253Z" fill="#6683C2"/><path d="M75.043 30.424a.3.3 0 0 1-.318.28l-1.473-.089a.3.3 0 0 1-.281-.317l.089-1.474a.3.3 0 0 1 .318-.281l1.473.09a.3.3 0 0 1 .282.317l-.09 1.474Zm-1.956-.23a.3.3 0 0 0 .282.318l1.253.076a.3.3 0 0 0 .318-.282l.076-1.253a.3.3 0 0 0-.282-.317l-1.253-.076a.3.3 0 0 0-.317.28l-.076 1.254Z" fill="#6683C2"/><path d="M76.996 30.542a.3.3 0 0 1-.317.281l-1.474-.09a.3.3 0 0 1-.281-.317l.09-1.474a.3.3 0 0 1 .317-.281l1.473.09a.3.3 0 0 1 .282.317l-.09 1.474Zm-1.968.07 1.547.094a.3.3 0 0 0 .318-.281l.076-1.253a.3.3 0 0 0-.281-.318l-1.254-.076a.3.3 0 0 0-.317.281l-.094 1.547c0 .003.002.006.005.006Z" fill="#6683C2"/><path d="M78.95 30.661a.3.3 0 0 1-.318.281l-1.474-.089a.3.3 0 0 1-.281-.318l.09-1.473a.3.3 0 0 1 .317-.282l1.473.09a.3.3 0 0 1 .282.317l-.09 1.474Zm-1.956-.23a.3.3 0 0 0 .281.318l1.253.077a.3.3 0 0 0 .318-.282l.076-1.253a.3.3 0 0 0-.281-.318l-1.254-.076a.3.3 0 0 0-.317.282l-.076 1.253Z" fill="#6683C2"/><path d="M80.918 30.78a.3.3 0 0 1-.318.281l-1.473-.089a.3.3 0 0 1-.281-.318l.089-1.473a.3.3 0 0 1 .318-.282l1.473.09a.3.3 0 0 1 .282.317l-.09 1.474Zm-1.956-.23a.3.3 0 0 0 .282.319l1.253.076a.3.3 0 0 0 .318-.282l.076-1.253a.3.3 0 0 0-.282-.318l-1.253-.076a.3.3 0 0 0-.317.282l-.076 1.253Z" fill="#6683C2"/><path d="M82.895 30.9a.3.3 0 0 1-.318.28l-1.474-.089a.3.3 0 0 1-.28-.317l.089-1.474a.3.3 0 0 1 .317-.281l1.474.09a.3.3 0 0 1 .281.317l-.09 1.474Zm-1.956-.23a.3.3 0 0 0 .281.318l1.254.076a.3.3 0 0 0 .317-.281l.076-1.254a.3.3 0 0 0-.281-.317l-1.253-.076a.3.3 0 0 0-.318.281l-.076 1.253ZM72.88 33.54a.3.3 0 0 1-.319.281l-1.473-.09a.3.3 0 0 1-.281-.317l.089-1.474a.3.3 0 0 1 .317-.28l1.474.089a.3.3 0 0 1 .282.317l-.09 1.474Zm-1.957-.23a.3.3 0 0 0 .282.318l1.253.076a.3.3 0 0 0 .317-.281l.077-1.253a.3.3 0 0 0-.282-.318l-1.253-.076a.3.3 0 0 0-.318.281l-.076 1.254Z" fill="#6683C2"/><path d="M74.84 33.66a.3.3 0 0 1-.318.28l-1.473-.089a.3.3 0 0 1-.282-.317l.09-1.474a.3.3 0 0 1 .317-.281l1.474.09a.3.3 0 0 1 .281.317l-.089 1.473Zm-1.956-.23a.3.3 0 0 0 .282.318l1.253.076a.3.3 0 0 0 .317-.282l.076-1.253a.3.3 0 0 0-.28-.317l-1.254-.076a.3.3 0 0 0-.318.28l-.076 1.254Z" fill="#6683C2"/><path d="M76.793 33.777a.3.3 0 0 1-.318.282l-1.473-.09a.3.3 0 0 1-.281-.317l.089-1.474a.3.3 0 0 1 .318-.281l1.473.089a.3.3 0 0 1 .282.318l-.09 1.473Zm-1.968.07 1.547.095a.3.3 0 0 0 .318-.282l.076-1.253a.3.3 0 0 0-.282-.317l-1.253-.077a.3.3 0 0 0-.317.282l-.094 1.547c0 .003.002.006.005.006Z" fill="#6683C2"/><path d="M78.754 33.897a.3.3 0 0 1-.318.28l-1.473-.088a.3.3 0 0 1-.281-.318l.089-1.474a.3.3 0 0 1 .317-.281l1.474.09a.3.3 0 0 1 .282.317l-.09 1.474Zm-1.956-.23a.3.3 0 0 0 .282.318l1.253.076a.3.3 0 0 0 .317-.281l.077-1.254a.3.3 0 0 0-.282-.317l-1.253-.076a.3.3 0 0 0-.318.281l-.076 1.253Z" fill="#6683C2"/><path d="M80.723 34.016a.3.3 0 0 1-.318.281l-1.474-.09a.3.3 0 0 1-.28-.317l.089-1.474a.3.3 0 0 1 .317-.281l1.474.09a.3.3 0 0 1 .281.317l-.09 1.474Zm-1.956-.23a.3.3 0 0 0 .281.318l1.254.076a.3.3 0 0 0 .317-.281l.076-1.253a.3.3 0 0 0-.281-.318l-1.253-.076a.3.3 0 0 0-.318.281l-.076 1.253Z" fill="#6683C2"/><path d="M82.692 34.135a.3.3 0 0 1-.318.281l-1.474-.089a.3.3 0 0 1-.281-.318l.09-1.473a.3.3 0 0 1 .317-.282l1.474.09a.3.3 0 0 1 .281.317l-.09 1.474Zm-1.956-.23a.3.3 0 0 0 .281.318l1.253.077a.3.3 0 0 0 .318-.282l.076-1.253a.3.3 0 0 0-.281-.318l-1.253-.076a.3.3 0 0 0-.318.282l-.076 1.253ZM119.595 32.387a1.038 1.038 0 0 1-1.099.974l-17.039-1.034a1.038 1.038 0 0 1 .126-2.073l17.039 1.034c.572.035 1.008.527.973 1.1Zm-19.001-1.153a.928.928 0 0 0 .87.982l17.038 1.034a.928.928 0 1 0 .113-1.852l-17.039-1.034a.928.928 0 0 0-.982.87ZM119.392 35.623a1.038 1.038 0 0 1-1.099.973l-17.039-1.034a1.038 1.038 0 0 1 .126-2.073l17.038 1.034c.573.035 1.009.527.974 1.1Zm-19.001-1.154a.928.928 0 0 0 .87.983l17.038 1.034a.928.928 0 0 0 .113-1.852L101.373 33.6a.928.928 0 0 0-.982.87Z" fill="#6683C2"/><path d="M95.07 64.862c-.028-.248-.122-.458-.409-.69-.033-.028-.072-.055-.11-.083-.47-.342-1.525-1.237-2.48-2.137-1.833 1.055-4.34 3.335-5.235 4.401-.414.497-.69 2.27-.867 4.026.044.077.088.155.138.237.1.172.21.354.331.542.58.927 1.353 2.032 2.071 2.838.353-.894.85-2.225 1.01-3.054.26-1.336.244-1.734 1.381-2.645.812-.652 3.004-1.684 4.208-2.225-.066-.553-.005-.912-.038-1.21Z" fill="#F0B18B"/><path d="M96.723 70.373c-.127.702-.475 1.596-.994 2.485-.657.337-1.436.751-1.872 1.028-.182.115-.304.21-.332.26 0 .005-.005.005-.005.01-.039.127-.05.73-.055 1.325a3.015 3.015 0 0 1-.354.216c-1.06.552-2.076.293-2.993-.298a8.321 8.321 0 0 1-.281-.194c-.056-.745-.083-1.463-.017-1.877.171-1.121.326-1.558 1.618-2.712.646-.58 1.392-1.242 2.132-1.822.74-.58 1.474-1.077 2.093-1.309.027.05.06.094.094.144.138.21.287.425.425.635.26.403.486.812.569 1.248.01.077.022.149.027.226.006.177-.01.392-.055.635ZM92.064 61.94c-.061-.06-.127-.115-.188-.176-.663-.635-1.254-1.26-1.535-1.679-.089-.133-.32-.072-.834.022-.591.11-1.558.26-3.104.21-.519-.017-1.016-.028-1.491-.044-.21-.006-.414-.017-.613-.022l-.596-.033s-3.286.944-5.015 3.412c-.37.525.768 1.668 1.95 1.619.408-1.503 1.032-3.226 1.783-3.286a1.6 1.6 0 0 1 .464.016c.812.144 1.232.911 1.68 2.038a41.751 41.751 0 0 1 2.374-.723c1.91-.525 4.053-1.077 5.125-1.353Z" fill="#F0B18B"/><path d="M93.86 73.885c-.182.116-.304.21-.332.26-.292-.59-1.065-2.198-.695-1.811.458.47 1.027 1.551 1.027 1.551ZM91.872 61.764c-.662-.635-1.253-1.26-1.535-1.679-.088-.133-.32-.072-.834.022-.59.11-1.557.26-3.103.21-.52-.017-1.017-.028-1.492-.044-.21-.006-.414-.017-.612-.022l-.597-.033s-.276.077-.707.248c0 0 1.1.42 2.96.42 1.861 0 3.06-.166 3.69-.21.353-.028.966.8 1.435 1.524.381-.1.712-.182.977-.254a2.82 2.82 0 0 0-.182-.182ZM95.089 66.06c-.06-.54 0-.9-.033-1.198-.028-.248-.122-.458-.409-.69-.033-.028-.072-.055-.11-.083-.47-.342-1.525-1.237-2.48-2.137-.232.132-.48.287-.729.458 1.21.834 2.11 1.58 2.524 2.11.254.326.132 1.37 0 2.126.453-.227.889-.43 1.237-.586ZM96.741 69.501c-.083-.442-.31-.85-.569-1.248-.138-.216-.287-.425-.425-.635-.033-.05-.06-.094-.094-.144-.1.039-.199.083-.304.133.63.994 1.116 1.86.845 2.932-.21.829-.773 1.983-1.264 2.74.265-.144.54-.288.8-.42.52-.89.867-1.784.995-2.485.044-.243.06-.459.05-.647-.012-.077-.017-.154-.034-.226Z" fill="#E8AB86"/><path d="M80.48 61.836c-1.198.657-2.087 1.69-2.18 1.988-.095.298.198.364.469.177.276-.188 1.712-2.165 1.712-2.165ZM82.368 56.02c-1.624.271-3.877.498-4.285.453-.41-.044.066-.585 1.816-.613 1.751-.027 2.469.16 2.469.16Z" fill="#FFDBC4"/><path d="M89.827 75.2c.094.066.188.132.281.193.917.591 1.933.85 2.994.299a3.05 3.05 0 0 0 .353-.216c0-.11 0-.22.005-.331-.358.193-1.192.607-1.838.59-.79-.022-1.083-.496-1.817-.86.005.11.01.215.022.325Z" fill="#E8AB86"/><g clip-path="url(#b)"><path d="m77.386 56.565-2.269 3.929 40.315 23.276 2.269-3.93-40.315-23.275Z" fill="#062834"/><path d="m77.385 56.565-2.268 3.93-2.207-1.865-5.22-4.379.576-.996 6.41 2.317 2.71.993Z" fill="#062834"/><path d="m68.558 53.538.222.127c.055.032.11.064.158.11.069.04.144.102.213.142a.144.144 0 0 1 .061.053c.089.07.164.132.24.194.108.1.189.183.27.266.019.03.039.06.066.076.054.068.093.127.097.185.017.065.02.123-.003.164l-.008.014-.008.014c-.008.014-.03.02-.038.033l-.022.006-.022.006-.021.006-.022.006-.022.006-.022.005c-.022.006-.043.012-.071-.004-.036-.002-.085-.012-.12-.014-.015-.008-.037-.002-.05-.01-.036-.003-.05-.01-.085-.013-.014-.008-.036-.002-.05-.01-.014-.008-.05-.01-.063-.018-.014-.008-.05-.01-.064-.018a473.68 473.68 0 0 0-.19-.054 3.609 3.609 0 0 1-.433-.177l-.055-.032c-.07-.04-.147-.066-.216-.106l-.055-.032-.166-.095a2.948 2.948 0 0 1-.324-.206c-.682-.449-1.112-.918-1-1.112l.008-.014.008-.014.008-.014c.008-.013.008-.013.022-.005 0 0 .008-.014.022-.006l.008-.014.022-.006.022-.006.021-.006a.5.5 0 0 1 .179.011c.035.002.07.004.099.02.013.008.035.002.05.01.098.02.197.04.316.091.057-.004.079-.01.107.006a.94.94 0 0 1 .21.085.144.144 0 0 0 .076.026.144.144 0 0 0 .078.026l.069.04.069.04.055.032.014.008.028.016.083.047.083.048a.446.446 0 0 1 .146.067Z" fill="#999"/><path opacity=".2" d="M66.918 52.96a.05.05 0 0 0-.03.02l-.023.04c-.016.029-.01.05-.027.078.001.222.386.61.943.987.055.032.117.086.172.118l.221.127c.637.368 1.232.583 1.561.588.022-.006.036.002.058-.004l-.022.006-.022.006-.022.006-.022.006-.021.006-.022.005c-.022.006-.044.012-.072-.004-.035-.002-.085-.012-.12-.014-.014-.008-.036-.002-.05-.01-.035-.002-.05-.01-.085-.013-.014-.008-.036-.002-.05-.01-.013-.008-.049-.01-.063-.018-.014-.008-.05-.01-.063-.018l-.19-.054a3.626 3.626 0 0 1-.433-.177l-.056-.032c-.069-.04-.146-.066-.215-.106l-.055-.032-.166-.095a2.963 2.963 0 0 1-.325-.206c-.645-.447-1.075-.916-.964-1.11l.008-.014.008-.014.008-.013c.008-.014.008-.014.022-.006l.008-.014.008-.014.022-.006.022-.006c.043-.011.057-.003.057-.003Z" fill="#fff"/><path opacity=".2" d="M68.558 53.538c.858.495 1.46 1.082 1.324 1.317-.032.056-.084.081-.177.083.03-.02.052-.026.068-.053.128-.222-.452-.815-1.324-1.318-.678-.392-1.323-.616-1.626-.57.244-.136.96.093 1.735.54Z" fill="#000"/><path d="m74.677 55.572-1.765 3.058-5.22-4.379.576-.996 6.41 2.317Z" fill="#B3B3B3"/><path opacity=".3" d="m77.38 56.565 40.315 23.276 3.176 2.294.206.156.191.148 1.029.741a.99.99 0 0 1 .28 1.305l-.112.194a.99.99 0 0 0-.28-1.305l-1.029-.742-.191-.147-.206-.156-3.176-2.295L77.268 56.76l-2.718-.98-6.402-2.33.112-.194 6.402 2.33 2.718.98Z" fill="#000"/><path opacity=".2" d="m67.802 54.057.164.132.334.285 4.722 3.962 2.207 1.864 40.315 23.276 3.575 1.603.237.1.224.093 1.157.52a.99.99 0 0 0 1.27-.41l-.112.193a.99.99 0 0 1-1.27.41l-1.157-.52-.223-.092-.238-.1-3.575-1.603-40.315-23.276-2.207-1.864-5.22-4.379.112-.194Z" fill="#fff"/><path d="M100.049 69.205a.58.58 0 0 1 .291.39.57.57 0 0 1 .015.23c-.004.07-.03.148-.056.225l-.024.041-1.997 3.46-.024.04a.52.52 0 0 1-.167.163.643.643 0 0 1-.682.03.58.58 0 0 1-.292-.39.574.574 0 0 1-.014-.23.916.916 0 0 1 .056-.225l.024-.042 2.005-3.472.024-.042a.518.518 0 0 1 .167-.161.659.659 0 0 1 .674-.017Z" fill="#B3B3B3"/><path opacity=".2" d="m100.049 69.205-2.644 4.58a.58.58 0 0 1-.292-.39.574.574 0 0 1-.014-.23.916.916 0 0 1 .056-.226l.024-.042 2.005-3.472.024-.042a.518.518 0 0 1 .167-.161.659.659 0 0 1 .674-.017Z" fill="#fff"/><path d="M100.973 69.847c.07.04.123.107.146.195a.362.362 0 0 1-.013.214l-.016.027-2.236 3.874-.016.028a.327.327 0 0 1-.42.089.315.315 0 0 1-.146-.195.364.364 0 0 1 .012-.214l.016-.027 2.237-3.874.016-.028a.327.327 0 0 1 .42-.09Z" fill="#B3B3B3"/><path opacity=".2" d="m100.973 69.847-2.556 4.427a.315.315 0 0 1-.145-.195.364.364 0 0 1 .012-.214l.016-.027 2.237-3.874.016-.028a.327.327 0 0 1 .42-.09ZM98.074 73.488a.629.629 0 0 0 .412-.297l-.208.36-.024.04a.52.52 0 0 1-.167.163.643.643 0 0 1-.682.03.58.58 0 0 1-.292-.39.574.574 0 0 1-.014-.23.916.916 0 0 1 .056-.225l.024-.042.216-.373a.58.58 0 0 0-.058.483l.006.022a.618.618 0 0 0 .286.368c.13.093.286.11.445.09Z" fill="#fff"/><path opacity=".2" d="m99.07 73.784-.216.373-.016.028a.327.327 0 0 1-.42.089.315.315 0 0 1-.146-.195.364.364 0 0 1 .012-.214l.016-.027.216-.374a.315.315 0 0 0-.029.242l.006.022c.018.065.07.133.14.172.07.04.154.053.22.035a.34.34 0 0 0 .216-.151Z" fill="#fff"/><path opacity=".2" d="M100.042 69.205a.58.58 0 0 1 .291.39.644.644 0 0 1-.057.483l-.216.373a.582.582 0 0 0 .058-.483.642.642 0 0 0-.292-.39.641.641 0 0 0-.873.234l.216-.373a.641.641 0 0 1 .873-.234ZM100.965 69.847c.069.04.122.108.145.195a.317.317 0 0 1-.028.241l-.216.374a.317.317 0 0 0 .029-.242.318.318 0 0 0-.146-.195.321.321 0 0 0-.437.117l.216-.373a.321.321 0 0 1 .437-.117Z" fill="#000"/><path opacity=".3" d="m117.982 81.354-13.566-7.685-.028-.016-.014-.008-.027-.016-.028-.016-.028-.016c-.014-.008-.014-.008-.035-.002-.014-.008-.014-.008-.036-.002-.014-.008-.022.005-.036-.003 0 0-.014-.008-.022.006a.12.12 0 0 1-.071-.004c-.014-.008-.022.006-.036-.002l-.021.006-.022.005-.008.014c-.008.014-.022.006-.03.02-.022.006-.052.025-.073.031l-.008.014c-.008.014-.03.02-.038.034l-.008.014c-.008.013-.03.02-.03.02l-.008.013-.024.042-.008.013-.032.056-.16.276-.016.028-.008.014a.699.699 0 0 0-.05.247s-.008.014.006.022c.019.159.103.3.247.402l13.439 7.906.056.032.014.008.041.024.014.008c.014.008.014.008.036.002l.013.008c.014.008.022-.006.036.002l.014.008c.022-.005.036.003.057-.003l.022-.006.014.008.022-.006.022-.006s.014.008.021-.006l.022-.006.022-.005.022-.006.022-.006.008-.014c.022-.006.051-.025.073-.031l.008-.014c.008-.014.03-.02.03-.02l.008-.014c.008-.014.008-.014.03-.02l.008-.013.016-.028.008-.014.032-.055.287-.498a.465.465 0 0 0 .051-.376.502.502 0 0 0-.25-.366Z" fill="#000"/><path d="m117.789 82.18-.287.497a.532.532 0 0 1-.72.193l-13.439-7.906a.52.52 0 0 1-.18-.712l.16-.277a.518.518 0 0 1 .706-.201l13.567 7.685a.521.521 0 0 1 .193.72Z" fill="#B3B3B3"/><path opacity=".2" d="M103.736 73.713a.493.493 0 0 0-.235.215l-.16.277a.519.519 0 0 0 .179.712l13.439 7.907c.097.055.21.084.325.076a.537.537 0 0 1-.477-.035l-13.439-7.907a.518.518 0 0 1-.179-.712l.159-.277a.451.451 0 0 1 .388-.256Z" fill="#fff"/><path opacity=".2" d="M117.598 81.46a.532.532 0 0 1 .193.72l-.288.497a.507.507 0 0 1-.387.256.494.494 0 0 0 .235-.215l.287-.498a.532.532 0 0 0-.193-.72l-13.567-7.685a.488.488 0 0 0-.31-.069.506.506 0 0 1 .463.028l13.567 7.685Z" fill="#000"/><path opacity=".2" d="m66.755 53.05 55.478 32.03-.343.595a.99.99 0 0 1-1.27.41l-1.157-.52-.223-.092-.238-.1-3.575-1.603-16.602-9.585a.327.327 0 0 1-.42.089.315.315 0 0 1-.146-.195.365.365 0 0 1 .013-.214l-.194-.112a.643.643 0 0 1-.682.031.58.58 0 0 1-.291-.39.573.573 0 0 1-.015-.23L75.12 60.48l-2.207-1.864-5.22-4.379.056-.097c-.675-.427-1.105-.896-.993-1.09Z" fill="#fff"/></g><path d="M110.373 77.41c-.52-4.314-.034-7.18-.393-9.074-.093-.486-.237-.906-.474-1.276-1.149-1.795-3.441-3.048-5.838-4.479-2.137-1.27-3.501-2.86-4.804-3.876-.16-.122-.315-.238-.47-.343-.149-.1-.309-.22-.48-.364-1.496-1.26-3.733-4.004-5.163-4.308-1.596-.342-3.85.884-7.787 1.884-3.938 1-4.07.027-6.102.568-.58.155-1.646 1.199.447 2.679 1.546 1.099 3.11 1.342 4.987 1.43.199.011.403.017.613.022.475.017.972.028 1.49.044 1.547.05 2.513-.1 3.104-.21.514-.093.746-.154.834-.022.276.42.873 1.038 1.535 1.68 1 .96 2.165 1.949 2.668 2.313.038.028.077.055.11.083.287.237.381.442.409.69.039.343-.05.757.066 1.425.083.47.332.9.613 1.325.138.21.287.425.425.635.26.403.486.812.57 1.248.01.078.021.15.027.227.01.188-.006.403-.05.646-.248 1.375-1.342 3.485-2.9 4.832-.242.21-.48.37-.717.492-1.06.552-2.076.292-2.993-.299a7.858 7.858 0 0 1-1.215-.994c-.817-.795-1.784-2.153-2.469-3.252-.116-.188-.226-.37-.33-.542a10.601 10.601 0 0 1-.465-.861 1.877 1.877 0 0 1-.1-.243c-.027-.088-.049-.243-.082-.442-.022-.16-.044-.348-.072-.558a34.518 34.518 0 0 1-.05-.43c-.154-1.287-.37-3.06-.723-3.965-.464-1.182-.884-1.989-1.718-2.138a1.607 1.607 0 0 0-.463-.016c-.906.077-1.618 2.562-2.01 4.164-.105.441-.188.811-.244 1.054-.254 1.11-2.054 3.22-1.883 4.076.089.453.299.834.84 1.618.094.138.199.287.315.447.48.674 1.154 1.602 2.11 2.955 2.506 3.562 2.54 6.14 4.516 7.814 1.977 1.673 3.286 4.562 7.356 9.123 4.07 4.562 6.462 7.146 8.936 12.812 1.33 3.043 2.567 6.638 3.429 9.305h16.274c-.795-1.778-8.465-19.024-9.515-22.272-1.099-3.407-1.507-10.21-2.164-15.628Z" fill="#FFC39E"/><path d="M84.924 60.273c-.21-.005-.414-.016-.613-.022-.166-.723-.155-1.63-.155-1.63.221.818.536 1.348.768 1.652ZM91.877 61.764c-.663-.635-1.254-1.259-1.535-1.679-.089-.132-.32-.071-.834.023.05-1.486.85-3.176.85-3.176s-.243 1.01.155 2.297c.409 1.282 1.364 2.535 1.364 2.535ZM96.056 64.503s-.503.166-.983.354c-.028-.249-.122-.459-.409-.69.039.022.746.38 1.392.336ZM97.026 67.469c-.022.022-.459.403-.85.779-.139-.216-.288-.426-.426-.636 0 0 .817.089 1.276-.143ZM96.727 70.374c.044-.243.06-.459.05-.647a2.83 2.83 0 0 0-.028-.226s.508.193 1.104.31c.315.054-.38.32-1.126.563ZM95.132 75.167c-.034.033-1.193 1.165-2.839 1.138-1.64-.028-2.16-.89-2.176-.912.917.591 1.933.85 2.993.299.006.005.983-.039 2.022-.525ZM85.638 69.744a19.806 19.806 0 0 0-2.099-.96c.514.143 1.916.27 1.916.27.028.199.056.353.083.442.017.06.05.143.1.248ZM85.382 68.502l-.718-.343.668-.088c.017.149.033.293.05.43ZM86.43 71.147c-.557-.282-1.11-.541-1.11-.541h.785c.093.17.204.353.325.54ZM81.242 70.738c-.027.055-.85 1.53-1.794 2.574-.116-.166-.221-.31-.315-.448.414-.292 1.452-1.077 2.11-2.126ZM103.742 63.797c-3.197-2.11-5.77-5.733-5.82-5.799.171.144.331.265.48.364.155.105.315.221.47.343.569.729 1.469 1.839 2.104 2.44.988.934 2.711 2.596 2.766 2.652ZM106.575 65.89c.193.303.348.64.436.993.094.354.127.724.083 1.094a2.257 2.257 0 0 1-.138.535 1.609 1.609 0 0 1-1.237.989c.348-.105.657-.304.878-.574.221-.277.342-.619.386-.967a3.205 3.205 0 0 0-.055-1.055 4.73 4.73 0 0 0-.353-1.016ZM109.984 68.33c.033.171.022.353-.034.525a.957.957 0 0 1-.303.447 1.033 1.033 0 0 1-.497.21 1.52 1.52 0 0 1-.525-.011c.171-.011.342-.033.508-.072.16-.044.315-.11.442-.21.127-.1.226-.237.293-.386.066-.16.104-.326.116-.503Z" fill="#F5AE82"/><path d="M80.408 66.116c.784-.216 1.552-.972 2.021-1.983.47-1.01.635-2.198.304-2.435-.332-.238-.989-.42-1.552.806-.563 1.226-.762 2.574-.779 3.126-.01.552.006.486.006.486Z" fill="#FFDBC4"/><g clip-path="url(#c)"><path d="m77.378 56.565-2.269 3.93 40.315 23.275 2.269-3.929-40.315-23.276Z" fill="#062834"/><path d="m117.69 79.841 3.176 2.295.206.156.191.147 1.029.742a.99.99 0 0 1 .28 1.305l-.687 1.19a.99.99 0 0 1-1.27.41l-1.157-.52-.223-.093-.238-.1-3.575-1.603 2.268-3.929Z" fill="#062834"/><path d="m120.869 82.136.205.156.192.147 1.029.742a.99.99 0 0 1 .28 1.305l-.687 1.19a.99.99 0 0 1-1.27.41l-1.157-.52-.224-.093-.237-.1 1.869-3.237Z" fill="#B3B3B3"/><path opacity=".3" d="m77.372 56.565 40.315 23.276 3.176 2.295.206.156.191.147 1.029.742a.99.99 0 0 1 .28 1.305l-.112.193a.99.99 0 0 0-.28-1.305l-1.029-.741-.191-.148-.206-.155-3.176-2.295-40.314-23.276-2.719-.979-6.401-2.331.111-.194 6.402 2.331 2.718.98Z" fill="#000"/><path opacity=".2" d="m67.794 54.058.164.131.334.285 4.722 3.962 2.207 1.865 40.315 23.276 3.575 1.603.238.1.223.092 1.157.52a.99.99 0 0 0 1.27-.41l-.112.194a.99.99 0 0 1-1.27.41l-1.157-.52-.223-.093-.237-.1-3.576-1.603-40.315-23.275-2.207-1.865-5.22-4.379.112-.193Z" fill="#fff"/><path d="M100.041 69.205a.582.582 0 0 1 .292.39.572.572 0 0 1 .014.23c-.004.071-.03.148-.056.225l-.024.042-1.997 3.459a.52.52 0 0 1-.191.203.643.643 0 0 1-.682.03.58.58 0 0 1-.291-.39.575.575 0 0 1-.015-.229.916.916 0 0 1 .056-.226l.024-.041 2.005-3.473.024-.041a.518.518 0 0 1 .167-.162.659.659 0 0 1 .674-.017Z" fill="#B3B3B3"/><path opacity=".2" d="m100.041 69.205-2.644 4.58a.58.58 0 0 1-.291-.39.575.575 0 0 1-.015-.23.916.916 0 0 1 .056-.226l.024-.041 2.005-3.473.024-.041a.518.518 0 0 1 .167-.162.659.659 0 0 1 .674-.017Z" fill="#fff"/><path d="M100.966 69.847c.069.04.122.108.145.195a.354.354 0 0 1-.013.214l-.016.028-2.236 3.874-.016.027a.327.327 0 0 1-.42.09.315.315 0 0 1-.146-.195.365.365 0 0 1 .013-.214l.016-.028 2.236-3.874.016-.027a.328.328 0 0 1 .421-.09Z" fill="#B3B3B3"/><path opacity=".2" d="m100.966 69.847-2.556 4.428a.315.315 0 0 1-.146-.195.365.365 0 0 1 .013-.214l.016-.028 2.236-3.874.016-.027a.328.328 0 0 1 .421-.09ZM98.066 73.488a.629.629 0 0 0 .412-.297l-.208.36a.52.52 0 0 1-.191.203.643.643 0 0 1-.682.03.58.58 0 0 1-.291-.39.575.575 0 0 1-.015-.229.916.916 0 0 1 .056-.226l.024-.041.216-.374a.58.58 0 0 0-.058.483l.006.022a.617.617 0 0 0 .286.368c.13.094.287.11.445.091Z" fill="#fff"/><path opacity=".2" d="m99.062 73.784-.216.374-.016.027a.327.327 0 0 1-.42.09.315.315 0 0 1-.146-.195.365.365 0 0 1 .013-.214l.016-.028.215-.373a.315.315 0 0 0-.029.241l.006.022c.018.065.071.133.14.173.07.04.154.052.22.035a.34.34 0 0 0 .217-.152Z" fill="#fff"/><path opacity=".2" d="M100.034 69.205a.58.58 0 0 1 .291.39.64.64 0 0 1-.057.483l-.216.374a.579.579 0 0 0 .058-.484.641.641 0 0 0-.292-.39.641.641 0 0 0-.873.235l.216-.374a.641.641 0 0 1 .873-.234ZM100.957 69.847c.069.04.122.108.146.195a.317.317 0 0 1-.029.242l-.216.373a.317.317 0 0 0 .029-.241.315.315 0 0 0-.582-.078l.215-.374a.321.321 0 0 1 .437-.117Z" fill="#000"/><path opacity=".3" d="m121.087 82.278.178.14-1.813 3.14-.21-.085 1.845-3.195ZM117.975 81.354l-13.567-7.685-.028-.016-.014-.008-.027-.016-.028-.016-.028-.016c-.013-.008-.013-.008-.035-.002-.014-.008-.014-.008-.036-.002-.014-.008-.022.006-.036-.002 0 0-.013-.008-.021.006a.123.123 0 0 1-.072-.005c-.014-.008-.022.006-.035-.002l-.022.006-.022.006-.008.014c-.008.014-.022.006-.03.02-.022.005-.051.025-.073.03l-.008.015c-.008.014-.03.02-.038.033l-.008.014c-.008.014-.03.02-.03.02l-.008.014-.024.041-.008.014-.032.055-.16.277-.015.028-.008.013a.678.678 0 0 0-.051.248s-.008.014.006.022c.019.158.103.3.248.401l13.439 7.907.055.032.014.008.041.024.014.008c.014.007.014.007.036.002l.014.008c.013.008.021-.006.035.002l.014.008c.022-.006.036.002.058-.004l.021-.006.014.008.022-.006.022-.005s.014.008.022-.006l.022-.006.021-.006.022-.006.022-.006.008-.013c.022-.006.052-.026.073-.032l.008-.014c.008-.014.03-.02.03-.02l.008-.013c.008-.014.008-.014.03-.02l.008-.014.016-.027.008-.014.032-.056.287-.498a.47.47 0 0 0 .052-.376.507.507 0 0 0-.25-.366Z" fill="#000"/><path d="m117.781 82.18-.287.498a.532.532 0 0 1-.72.193l-13.439-7.907a.518.518 0 0 1-.179-.712l.159-.277a.52.52 0 0 1 .707-.2l13.566 7.684a.521.521 0 0 1 .193.72Z" fill="#B3B3B3"/><path opacity=".2" d="M103.728 73.714a.494.494 0 0 0-.235.215l-.159.276a.518.518 0 0 0 .179.712l13.439 7.907a.572.572 0 0 0 .324.077.537.537 0 0 1-.477-.036l-13.439-7.907a.518.518 0 0 1-.179-.712l.16-.276a.45.45 0 0 1 .387-.256Z" fill="#fff"/><path opacity=".2" d="M117.59 81.46a.532.532 0 0 1 .193.72l-.287.498a.507.507 0 0 1-.388.256.494.494 0 0 0 .235-.215l.287-.498a.532.532 0 0 0-.193-.72l-13.566-7.686a.493.493 0 0 0-.311-.069.506.506 0 0 1 .463.028l13.567 7.686Z" fill="#000"/><path opacity=".2" d="m66.748 53.05 55.478 32.03-.344.596a.99.99 0 0 1-1.27.41l-1.157-.52-.223-.092-.238-.1-3.575-1.604-16.602-9.585a.327.327 0 0 1-.42.09.315.315 0 0 1-.146-.195.365.365 0 0 1 .013-.214l-.194-.112a.644.644 0 0 1-.682.03.58.58 0 0 1-.291-.39.575.575 0 0 1-.015-.229l-21.97-12.684-2.207-1.865-5.22-4.378.056-.097c-.675-.427-1.105-.897-.993-1.09Z" fill="#fff"/></g></g><defs><clipPath id="a"><path fill="#fff" d="M0 0h129v90H0z"/></clipPath><clipPath id="b"><path fill="#fff" transform="rotate(-60 80.638 -29.004)" d="M0 0h5.288v47.613H0z"/></clipPath><clipPath id="c"><path fill="#fff" transform="rotate(-60 107.88 -44.733)" d="M0 0h5.288v34.249H0z"/></clipPath></defs></svg>