<svg width="238" height="170" fill="none" xmlns="http://www.w3.org/2000/svg"><g clip-path="url(#a)"><path d="M229.395 79.275h12.317v21.253h-12.317V79.275Z" fill="#5470AD"/><path d="M224.699 68.426h21.724v11.512h-21.724V68.426Z" fill="#6683C2"/><path d="M158.402 121.338v48.926h87.792v-48.926l-43.896-43.391c-17.021 17.046-26.651 26.566-43.896 43.391Z" fill="#FFD981"/><path d="m246.418 121.338-43.896-43.391C193.788 86.359 187.069 93 180.35 99.642l-21.948 21.696v9.962l43.896-43.391 43.896 43.391v1.329-11.291h.224Z" fill="#F7B64C" fill-opacity=".35"/><path d="M194.454 170.264h-26.427v-25.68c0-7.306 6.047-13.062 13.214-13.062 7.39 0 13.213 5.977 13.213 13.062v25.68ZM202.305 131.521h34.489v29.887h-34.489v-29.887Z" fill="#536EAA"/><path d="M205.879 135.064h11.87v22.803h-11.87v-22.803Zm15.453 0h11.87v22.803h-11.87v-22.803Z" fill="#68CCEA"/><path d="m254.484 112.262-46.807-46.27c-2.687-2.656-7.39-2.656-10.078 0l-46.583 46.27c-2.688 2.656-2.688 7.305 0 9.962 2.687 2.657 7.39 2.657 10.078 0l41.656-41.178 41.656 41.178c2.688 2.657 7.391 2.657 10.078 0 2.688-2.878 2.688-7.306 0-9.962Z" fill="#6683C2"/><circle cx="174.5" cy="154.5" r="1.5" fill="#54607B"/></g><defs><clipPath id="a"><path fill="#fff" d="M0 0h238v170H0z"/></clipPath></defs></svg>