<svg width="108" height="75" fill="none" xmlns="http://www.w3.org/2000/svg"><g clip-path="url(#a)"><path stroke="#C9E3F9" stroke-width="1.3" d="M-2 69.35h112M-2 27.35h112M-2 55.35h112M-2 13.35h112M-2 41.35h112M40.65 0v112M82.65 0v112M12.65 0v112M54.65 0v112M96.65 0v112M26.65 0v112M68.65 0v112"/><path d="m91.275 54.101-71.324-.014c-.174-.051-.348-.103-.296-.277-.123-.225-.123-.225-.07-.4l14.718-39.328c.052-.174.104-.348.278-.296.173.052.399-.07.347.103l56.605 39.343c.174.051.296.277.193.625-.052.174-.104.347-.451.244Zm-70.667-.953 69.032.089-54.674-38.201-14.358 38.112Z" fill="#6683C2"/><path d="M40.399 53.359c-.578-1.875-2.495-4.337-4.788-4.262-.173-.051-.399.071-.573.02l.024-25.536c.798-.14 1.475-.507 2.151-.873 1.804-.978 2.547-2.838 2.941-4.802-.018-.573-1.113-.71-1.146.038-.291 1.616-.878 2.955-2.283 3.861-.451.245-.954.663-1.579.855l-.09-7.972c.034-.747-1.113-.71-1.094-.137L34 22.698c-.799.141-1.32-.014-2.016-.22-.47-.33-1.076.436-.432.817.644.38 1.565.465 2.363.324l-.023 25.535c-1.7.63-3.26 2.058-3.83 3.97-.206.695.715.78 1.044.31.413-1.39 1.522-2.575 2.946-2.908l-.029 2.64c.02.573.94.658.973-.09l-.094-2.865c.4-.07.747.033 1.146-.038 1.443.24 2.646 1.922 3.205 3.223-.052.174.122.226.07.4l.174.051c.47.33.92.085.902-.488Z" fill="#6683C2"/><path d="M16.721 54.223c-.38-1.225-.514-2.526-.809-3.911-.152-.49-.22-1.14-.7-1.394-.16-.085-.49.152-.575.312-.507.963-.854 2.01-1.285 3.218-.525 1.773-1.285 3.217-1.65 5.075-.092.566.794.828.972.102.262-.887.44-1.613.863-2.415l1.216.026c.405.008.971.101 1.377.11.076.245.227.735.219 1.14-.085.16.058 1.056.143.896-.414.397.22 1.14.718.583.659-.473-.261-3.007-.489-3.742Zm-1.866.041c-.406-.008-.65.068-.972-.101l.254-.482 1.04-3.141c-.085.16.076.245.076.245.304.98.362 2.035.666 3.015-.085.16.076.245-.009.406-.49.151-.81-.018-1.055.058ZM36.07 9.517c-.69 1.687-2.81 1.814-3.941.531-.54-.728-.578-1.874-.494-2.795-.037-1.147.324-2.364 1.278-3.026 1.63-1.029 2.852 1.226 3.289 2.302.193.625 1.217.362 1.024-.263-.681-1.527-1.954-3.608-4.003-3.082-1.823.404-2.565 2.265-2.56 4.158-.066 1.494.53 3.942 2.043 4.58 1.687.691 3.839-.183 4.356-1.92.207-.696-.837-1.006-.992-.485ZM96.071 53.209c.245-.078.328-.239.656-.477.412-.4 1.39-.709 1.32-1.358-.137-1.706-2.898-1.505-3.953-1.44-.245.077-.328.238-.328.238-.245.077-.329.238-.251.483-.038 2.433.086 4.95-.112 7.298-.007.406.315.573.56.496l.16.083c1.21.424 4.48-1.148 4.987-2.519.353-1.86-1.34-2.535-3.039-2.804Zm.592-1.532c-.657.476-1.313.953-2.13 1.346.012-.811-.059-1.461-.046-2.272.81.012 3.16.21 2.176.926Zm.82 4.717c-.413.4-2.375 1.423-2.858 1.173l-.16-.084c.018-1.216.114-2.188.133-3.405.489-.154 1.055-.065 1.622.025.81.013 2.658 1.177 1.262 2.29Z" fill="#F37E60"/></g><defs><clipPath id="a"><path fill="#fff" d="M0 0h108v75H0z"/></clipPath></defs></svg>