<svg width="110" height="88" fill="none" xmlns="http://www.w3.org/2000/svg"><g clip-path="url(#a)"><path stroke="#C9E3F9" stroke-width="1.3" d="M-2 81.6h114M-2 38.85h114M-2 67.35h114M-2 24.6h114M-2 53.1h114M-2 10.35h114M41.4 11v114M84.15 11v114M12.9 11v114M55.65 11v114M98.4 11v114M27.15 11v114M69.9 11v114"/><path d="m92.94 66.067-72.597-.014c-.177-.052-.354-.105-.301-.282-.124-.23-.124-.23-.072-.406l14.982-40.032c.053-.177.106-.353.283-.3.176.052.406-.073.354.104l57.615 40.045c.177.053.301.283.196.636-.053.177-.105.354-.46.25Zm-71.927-.97 70.264.09-55.65-38.883-14.614 38.793Z" fill="#6683C2"/><path d="M41.163 65.311c-.588-1.908-2.54-4.414-4.873-4.337-.177-.053-.406.072-.583.02l.024-25.992c.813-.143 1.501-.516 2.19-.89 1.836-.994 2.592-2.888 2.993-4.887-.019-.583-1.133-.722-1.166.039-.297 1.645-.895 3.008-2.325 3.93-.459.25-.97.675-1.606.87l-.091-8.114c.033-.76-1.134-.722-1.114-.139l.038 8.292c-.813.144-1.344-.014-2.052-.224-.478-.335-1.095.444-.44.832.655.387 1.593.473 2.406.33l-.024 25.99c-1.731.641-3.319 2.095-3.897 4.041-.21.708.726.794 1.061.316.421-1.416 1.55-2.62 2.999-2.96l-.03 2.687c.02.584.957.67.99-.09l-.095-2.918c.407-.071.76.034 1.167-.038 1.468.244 2.692 1.956 3.261 3.28-.052.178.125.23.072.407l.177.053c.478.334.937.086.918-.498Z" fill="#6683C2"/><path d="M17.059 66.19c-.387-1.246-.524-2.57-.824-3.98-.155-.499-.223-1.16-.713-1.419-.163-.086-.499.155-.585.318-.516.98-.869 2.046-1.308 3.275-.534 1.805-1.308 3.275-1.678 5.166-.095.576.807.843.988.104.267-.903.448-1.642.878-2.459l1.238.027c.413.008.989.103 1.401.112.078.25.232.748.223 1.16-.086.164.06 1.075.146.912-.421.404.223 1.16.73.594.672-.482-.264-3.061-.496-3.81Zm-1.9.043c-.413-.009-.662.069-.989-.104l.258-.49 1.059-3.197c-.086.163.077.249.077.249.31.997.369 2.072.678 3.07-.086.163.077.249-.009.412-.498.155-.825-.017-1.074.06ZM36.755 20.687c-.703 1.717-2.86 1.846-4.012.54-.55-.74-.588-1.908-.502-2.845-.038-1.167.33-2.405 1.3-3.08 1.66-1.047 2.903 1.248 3.348 2.343.196.637 1.239.369 1.043-.267-.694-1.555-1.99-3.673-4.075-3.137-1.855.411-2.61 2.305-2.606 4.232-.067 1.52.54 4.012 2.08 4.663 1.717.702 3.907-.187 4.433-1.956.21-.708-.85-1.024-1.009-.493ZM97.829 65.158c.248-.078.333-.242.667-.485.42-.406 1.415-.72 1.343-1.383-.139-1.736-2.949-1.531-4.023-1.465-.25.079-.334.242-.334.242-.25.08-.334.243-.255.492-.039 2.476.087 5.038-.115 7.429-.006.412.321.583.57.504l.164.085c1.232.432 4.559-1.168 5.076-2.564.359-1.893-1.364-2.58-3.093-2.855Zm.601-1.559c-.668.485-1.336.97-2.167 1.37.012-.825-.06-1.487-.047-2.312.825.013 3.216.214 2.214.942Zm.835 4.801c-.42.407-2.417 1.45-2.908 1.194l-.164-.085c.019-1.238.117-2.227.136-3.466.498-.157 1.074-.066 1.65.026.826.013 2.707 1.197 1.286 2.331Z" fill="#F37E60"/></g><defs><clipPath id="a"><path d="M0 0h110v78c0 5.523-4.477 10-10 10H0V0Z" fill="#fff"/></clipPath></defs></svg>