<svg width="129" height="90" fill="none" xmlns="http://www.w3.org/2000/svg"><g clip-path="url(#a)"><path d="M77.283 47.84c.014 2.685-.007 5.367-.027 8.053-.02 2.71-.045 5.419-.062 8.129l-.02 3.992c-.008 1.156.205 2.58-.104 3.704-.006-.226-.23-.436-.476-.463l.048-9.507c.058-6.86.14-13.7.113-20.953.096-.086.182-.179.254-.282l.01-.017c.326.964.151 2.295.185 3.228.045 1.375.072 2.744.08 4.115Z" fill="#511308"/><path d="M77.071 71.721a.386.386 0 0 1-.147.316c-.72.628-1.75.95-2.61 1.348-.854.398-1.712.792-2.566 1.19-1.766.816-3.53 1.636-5.296 2.456-1.817.844-3.628 1.711-5.463 2.514-.865.377-1.729.765-2.6 1.135-.762.323-1.526.528-2.308.765a.378.378 0 0 0-.01-.123.618.618 0 0 0 .068-.114l20.037-9.312a.469.469 0 0 0 .868-.072l.027-.103Z" fill="#556FA7"/><path d="m77.063 71.722-.031.113a.469.469 0 0 1-.868.072c.14-.065.281-.13.418-.196v-.068l.004-.381c.247.024.47.23.477.46ZM77.045 40.13a.38.38 0 0 1-.038.373l-.03-.086a.494.494 0 0 0 .068-.288Z" fill="#511308"/><path d="m76.561 40.132-.854-.171c.296-.117.59-.192.885-.168a.574.574 0 0 1 .463.336.492.492 0 0 1-.068.288 2.027 2.027 0 0 0-.185-.377.058.058 0 0 0-.1 0 2.065 2.065 0 0 0-.13.243l-.765.326c-.357-.03-.72-.1-1.08-.171.301-.155.624-.337.946-.467.305.058.6.11.888.161ZM77.017 40.503l-.01.017a1.789 1.789 0 0 1-.254.281c0-.068 0-.137-.003-.209a.373.373 0 0 0 .237-.171c.01.024.024.054.03.082Z" fill="#511308"/><path d="M76.846 39.731c.14.08.216.237.223.398a.58.58 0 0 0-.463-.336c-.295-.024-.59.051-.885.168L60.534 36.92c-.028-.007-.052-.01-.079-.017-4.195-.875-8.2-1.705-11.202-2.254-.065-.223-.264-.398-.538-.305-.021.007-.038.014-.059.02a.217.217 0 0 1 .086-.037c.93-.2 1.904.034 2.833.182 1.128.178 2.25.394 3.372.6 2.524.463 5.038.988 7.552 1.502 2.607.532 5.214 1.077 7.817 1.616 1.135.233 2.277.456 3.406.734.99.243 2.226.277 3.124.771Z" fill="#86A3E2"/><path d="M76.58 40.283a1.5 1.5 0 0 1 .13-.243.058.058 0 0 1 .1 0c.075.116.137.243.185.377a.373.373 0 0 1-.237.172c0-.114 0-.23-.003-.343l-.004.343a2.356 2.356 0 0 1-.298.034 3.66 3.66 0 0 1 .127-.34ZM76.746 40.798c.03 7.254-.055 14.093-.113 20.953l.103-20.95c.007 0 .01 0 .01-.003Z" fill="#511308"/><path d="M76.753 40.589c.004.072.004.14.004.209l-.007.007.003-.213c-.003 0 0-.003 0-.003ZM76.738 40.589l-.003.212c-.117.107-.25.2-.391.282a3.88 3.88 0 0 1 .092-.46 3.518 3.518 0 0 0 .302-.034ZM76.76 40.805l-.103 20.95a1090.08 1090.08 0 0 0-.048 9.507.3.3 0 0 0-.124.004 3.972 3.972 0 0 0-.436.099c-.195-1.108-.006-2.428-.003-3.512.003-1.331.017-2.662.027-3.992.025-2.655.052-5.31.076-7.965.027-2.744.051-5.484.09-8.224.016-1.372.054-2.74.102-4.113.024-.717-.079-1.656.034-2.473.134-.086.268-.175.385-.281Z" fill="#511308"/><path d="m76.645 61.75-.048 9.508h-.003c.003-3.2.024-6.355.051-9.507Z" fill="#511308"/><path d="M76.598 71.64v.068l-.418.195a.352.352 0 0 1-.028-.072 4.071 4.071 0 0 1-.113-.47c.144-.044.292-.079.436-.1a.49.49 0 0 1 .123-.003v.381ZM76.577 40.283c-.236.114-.473.223-.716.333-.018 0-.031-.003-.049-.003l.765-.33ZM75.698 39.96l.854.172c-.288-.051-.586-.102-.888-.157l.034-.014Z" fill="#511308"/><path d="M76.576 40.287a2.2 2.2 0 0 0-.12.34 3.48 3.48 0 0 1-.597-.01c.244-.11.48-.22.717-.33Z" fill="#511308"/><path d="M76.464 40.622a3.297 3.297 0 0 0-.093.46c-.49.295-1.094.473-1.591.69-.793.346-1.585.682-2.384 1.018-1.79.751-3.588 1.485-5.388 2.212-3.43 1.393-6.86 2.83-10.338 4.11a.537.537 0 0 0-.014-.313l9.755-4.17.072-.031c3.238-1.331 6.472-2.659 9.384-3.99.202.025.401.028.597.014Z" fill="#511308"/><path d="M76.35 41.083c-.112.816-.01 1.756-.034 2.473-.048 1.372-.085 2.74-.103 4.112-.034 2.744-.061 5.485-.089 8.225-.024 2.655-.051 5.31-.075 7.964-.01 1.33-.024 2.662-.028 3.992-.003 1.08-.192 2.401.004 3.513-.68.205-1.338.614-1.969.905-.909.422-1.818.847-2.723 1.27-1.763.819-3.526 1.642-5.289 2.462-1.708.796-3.43 1.57-5.128 2.394-.898.435-1.793.881-2.692 1.327-.727.36-1.379.789-2.044 1.218-.004-10.499.449-20.977.04-31.473.035-.007.07-.01.1-.017.172-.03.285-.171.326-.333 3.478-1.282 6.904-2.72 10.338-4.108 1.8-.731 3.598-1.462 5.388-2.213.796-.336 1.591-.675 2.384-1.018.5-.22 1.1-.398 1.595-.693Z" fill="#556FA7"/><path d="M76.15 71.831a.624.624 0 0 0 .028.072L56.14 81.215a.625.625 0 0 0 .051-.25v-.028c.669-.428 1.317-.857 2.044-1.217.896-.446 1.79-.892 2.693-1.328 1.697-.82 3.42-1.598 5.127-2.393 1.763-.82 3.526-1.643 5.29-2.463.908-.422 1.817-.847 2.722-1.27.632-.294 1.29-.699 1.97-.905.027.161.064.32.112.47Z" fill="#556FA7"/><path d="M75.813 40.613c.017.003.03.003.048.003-2.912 1.331-6.147 2.658-9.384 3.99l9.336-3.993ZM75.809 40.612l-9.336 3.993-.072.03c-3.375 1.386-6.75 2.772-9.761 4.158a.366.366 0 0 0-.196-.21c-.014-.006-.028-.01-.038-.017 3.142-1.756 6.527-3.104 9.84-4.486 1.846-.768 3.695-1.537 5.53-2.329.884-.38 1.766-.765 2.64-1.163.1-.044.203-.096.31-.15.363.075.726.14 1.083.174ZM60.523 36.919l15.188 3.042c-.014.004-.024.01-.034.014-4.236-.775-9.84-1.948-15.154-3.056Z" fill="#511308"/><path d="M75.673 39.975c-.323.13-.645.312-.947.466-.384-.075-.761-.158-1.125-.213-1.19-.168-2.366-.397-3.543-.627-2.562-.5-5.12-1.03-7.68-1.574-2.558-.542-5.117-1.077-7.668-1.65-1.08-.24-2.161-.47-3.242-.714-.747-.171-1.564-.295-2.28-.607a.491.491 0 0 0 .054-.398l11.199 2.244.079.017c5.313 1.108 10.917 2.28 15.153 3.056Z" fill="#86A3E2"/><path d="M74.716 40.441a3.186 3.186 0 0 1-.308.15c-.875.395-1.76.783-2.641 1.164-1.835.792-3.684 1.56-5.53 2.328-3.316 1.383-6.698 2.73-9.84 4.487a3.227 3.227 0 0 0-.346-.127.32.32 0 0 0-.127-.038h-.007c-.51-.14-1.053-.192-1.57-.291-.865-.162-1.719-.364-2.58-.535a406.033 406.033 0 0 1-6.39-1.328c-4.52-.97-9.03-1.975-13.544-2.973-1.043-.23-2.085-.47-3.132-.686-.727-.148-1.44-.34-2.178-.313 1.866-.428 3.677-1.173 5.481-1.807 1.801-.635 3.615-1.238 5.433-1.821a283.527 283.527 0 0 1 11.494-3.423.439.439 0 0 0 .247-.168c.717.312 1.53.435 2.28.607 1.08.243 2.161.473 3.242.713 2.552.573 5.11 1.104 7.669 1.65 2.555.545 5.114 1.073 7.68 1.574 1.18.23 2.352.46 3.542.628.364.048.741.134 1.125.209Z" fill="#86A3E2"/><path d="m66.386 44.632-9.754 4.17c0-.006-.004-.01-.007-.013 3.015-1.382 6.386-2.768 9.761-4.157Z" fill="#511308"/><path d="m60.444 36.902-11.198-2.244c0-.003-.004-.006-.004-.01 3.001.549 7.007 1.379 11.202 2.254Z" fill="#86A3E2"/><path d="M56.65 48.807a.565.565 0 0 1 .015.312c-.127.048-.254.092-.378.14a.36.36 0 0 1-.058.014l-.01-.278.432-.188Z" fill="#511308"/><path d="M56.277 49.256c.127-.045.254-.093.377-.141-.04.161-.154.302-.326.333-.034.007-.068.01-.099.017l-.01-.196c.02-.003.04-.006.058-.013ZM56.65 48.807l-.431.185c.14-.069.284-.134.428-.199.004.003.004.007.004.014ZM56.638 48.793c-.144.065-.288.13-.429.199-.003-.103-.007-.206-.014-.309.069-.038.138-.079.206-.116.014.007.027.01.038.017.1.041.164.12.199.209Z" fill="#511308"/><path d="M56.409 48.567a6.305 6.305 0 0 0-.206.116v-.01a.274.274 0 0 0-.14-.233c.116.037.233.079.346.127Z" fill="#511308"/><path d="M56.227 49.465c.409 10.495-.044 20.974-.04 31.472-.087.059-.176.114-.261.172a.255.255 0 0 0-.086-.045 5.406 5.406 0 0 0-.254-.089l.003-.01v-.02l.069-6.854c.137-7.988.422-16.713.27-24.599.1-.003.2-.013.3-.027Z" fill="#556FA7"/><path d="m56.236 49.27.01.195c-.1.014-.199.024-.298.028l-.01-.535c.006 0 .013.003.02.003-.017.158.103.333.278.309Z" fill="#511308"/><path d="M56.217 48.992c.007.093.01.185.01.278-.174.027-.294-.148-.28-.309.089.014.178.024.264.035l.006-.004Z" fill="#511308"/><path d="M56.2 48.683c.006.103.01.206.013.309l-.007.003-.26-.058a.242.242 0 0 1 .123-.178c.044-.028.085-.052.13-.076Z" fill="#511308"/><path d="m55.949 48.937.26.059c-.085-.01-.175-.021-.264-.035 0-.01 0-.017.004-.024ZM55.925 48.68l-.003.25-.281-.062v-.195c-.004-.189.147-.281.295-.271h.007c.04.014.085.024.126.038.076.04.134.12.141.233v.01a2.695 2.695 0 0 0-.13.076.233.233 0 0 0-.124.178l-.024-.007c-.003-.086-.007-.168-.007-.25Z" fill="#511308"/><path d="M56.202 80.938v.027c0 .096-.021.182-.052.25l-.089.042a.346.346 0 0 0-.123-.148c.092-.058.178-.113.264-.171Z" fill="#556FA7"/><path d="m56.04 81.257.088-.042a.47.47 0 0 1-.068.114.19.19 0 0 0-.02-.072ZM56.07 81.329c.011.04.014.082.011.123l-.295.093a.126.126 0 0 1-.106-.007.613.613 0 0 0 .39-.21Z" fill="#556FA7"/><path d="m55.806 81.541.295-.093c-.01.162-.123.31-.336.299-1.856-.117-3.636-.36-5.467-.696-4.38-.806-8.76-1.609-13.116-2.556-2.068-.449-4.137-.905-6.167-1.516-1.276-.387-2.607-.75-3.773-1.416.028-.1.052-.203.076-.302 5.885 2.154 21.464 4.754 27.771 6.002.124.213.378.305.614.275a.13.13 0 0 0 .103.003Z" fill="#6683C2"/><path d="M56.034 81.257c.01.024.017.048.02.072a.598.598 0 0 1-.39.209c-.059-.031-.086-.1-.076-.168.048.01.096.02.14.027.107-.048.206-.092.306-.14Z" fill="#556FA7"/><path d="M56.044 81.257c-.1.048-.202.092-.302.14l-.14-.03a.147.147 0 0 1 .065-.1c.085-.051.171-.106.253-.161.059.04.1.092.124.15Z" fill="#556FA7"/><path d="M55.938 48.401a.338.338 0 0 1 .126.038 1.793 1.793 0 0 1-.127-.038ZM55.938 48.93l.025.008c-.003.007-.003.018-.003.026-.008 0-.015-.004-.023-.004v-.03Z" fill="#511308"/><path d="M55.927 49.492c.151 7.886-.134 16.611-.27 24.6l.246-24.596c.01-.004.017-.004.024-.004Z" fill="#556FA7"/><path d="M55.93 49.493c-.007.003-.017.003-.024.003l.007-.538c.004 0 .007 0 .01.003.004.175.007.353.007.532Z" fill="#511308"/><path d="M55.931 48.402c-.144-.01-.295.082-.295.27v.196L26.72 42.636a3.105 3.105 0 0 0-.034-.158c-.024-.106-.086-.171-.162-.199.007-.003.01-.003.014-.003.738-.024 1.451.165 2.178.312 1.046.216 2.089.456 3.132.686 4.513.998 9.024 2.003 13.544 2.974 2.127.456 4.257.902 6.39 1.327.86.172 1.715.374 2.58.535.517.103 1.063.151 1.57.292Z" fill="#86A3E2"/><path d="M55.917 81.11a6.422 6.422 0 0 0-.254.16.137.137 0 0 0-.065.1l-.545-.12a.612.612 0 0 1-.069-.285v-.188l.594.195c.085.028.171.058.254.09.03.01.061.027.085.047Z" fill="#6683C2"/><path d="M55.925 48.93v.03c-.003-.003-.007-.003-.01-.003l.003-.03.007.004ZM55.922 48.68c.003.081.003.167.007.25l-.007-.004v-.247Z" fill="#511308"/><path d="m55.922 48.93-.004.028c-.089-.014-.185-.024-.277-.038v-.048l.28.058Z" fill="#511308"/><path d="m55.918 48.954-.006.538c-.09.004-.182.004-.271.004v-.576c.092.01.185.024.277.034Z" fill="#511308"/><path d="m55.897 49.492-.247 24.596a396.39 396.39 0 0 0-.069 6.853v.02l-.003.01a17.077 17.077 0 0 0-.594-.195c.021-10.43.628-20.853.642-31.28.089 0 .181 0 .27-.004Z" fill="#6683C2"/><path d="M55.742 81.397a1.674 1.674 0 0 0-.14-.027l.003-.004.137.031ZM55.654 74.091l-.068 6.853c0-2.192.027-4.49.069-6.853Z" fill="#511308"/><path d="M55.676 81.538c-.236.03-.49-.062-.614-.275.19.038.367.072.536.107-.007.065.02.137.078.168ZM55.637 48.92v.576c-.614-.017-1.249-.16-1.839-.247-1.022-.144-2.04-.284-3.052-.473-4.569-.847-9.106-1.859-13.63-2.912a268.354 268.354 0 0 1-6.36-1.574c-1.241-.323-2.733-.552-3.933-1.142-.031-.162-.062-.326-.096-.487 6.173 1.594 22.458 5.36 28.91 6.26Z" fill="#6683C2"/><path d="M55.644 48.868v.048c-6.448-.895-22.733-4.664-28.914-6.26 0-.006-.003-.013-.003-.02l28.917 6.232Z" fill="#86A3E2"/><path d="m55.608 81.37-.539-.107a.026.026 0 0 1-.007-.014l.546.12Z" fill="#511308"/><path d="M55.046 81.247c.003.007.007.01.007.013-6.311-1.248-21.89-3.848-27.772-6.002.007-.027.014-.051.017-.079l27.748 6.068ZM55.06 81.246l-27.748-6.067c.018-.073.031-.141.045-.213 1.619.288 3.207.734 4.816 1.07 4.325.902 8.64 1.828 12.978 2.658 3.286.628 6.647 1.067 9.84 2.079v.188c.004.113.028.21.07.285Z" fill="#6683C2"/><path d="M55.641 49.496c-.013 10.43-.62 20.85-.64 31.28-3.194-1.015-6.552-1.45-9.841-2.078-4.342-.83-8.654-1.756-12.979-2.658-1.608-.337-3.2-.782-4.815-1.07.312-1.544.298-3.132.319-4.723.034-2.305.007-4.61-.014-6.915-.041-4.864.007-9.782-.336-14.639-.13-1.835-.185-3.724-.515-5.546 1.2.594 2.696.82 3.934 1.142 2.113.553 4.233 1.08 6.36 1.575 4.527 1.053 9.061 2.064 13.63 2.912 1.015.188 2.034.325 3.052.473.597.082 1.228.23 1.845.247Z" fill="#6683C2"/><path d="m48.782 34.792-.076.024a.52.52 0 0 1-.058-.034c-.144-.093-.158-.32-.024-.419l.058-.02c.275-.093.477.082.539.305l-.45-.082.453.089a.49.49 0 0 1-.055.398 3.29 3.29 0 0 1-.463-.24l.076-.021Z" fill="#86A3E2"/><path d="M49.23 34.648c.004.004.004.007.004.01l-.453-.089c.148.024.299.052.45.08Z" fill="#511308"/><path d="M49.186 35.056a.428.428 0 0 1-.247.168 288.984 288.984 0 0 0-11.493 3.423 202.051 202.051 0 0 0-5.433 1.822c-1.804.634-3.615 1.378-5.481 1.807-.007-.003-.014 0-.02 0a.34.34 0 0 0-.145-.01l22.353-7.45c.15.093.305.172.466.24Z" fill="#86A3E2"/><path d="m48.806 34.792-.076.024c-.003 0-.003-.003-.003-.003.027-.004.052-.014.08-.021Z" fill="#511308"/><path d="M48.73 34.816 26.376 42.27h-.003a.477.477 0 0 0-.076.024c-.007 0-.01.004-.014.004-.013.003-.024.003-.034.007 8.197-3.2 14.049-4.898 22.48-7.488Z" fill="#86A3E2"/><path d="M48.663 34.782a.53.53 0 0 0 .059.034c-8.427 2.59-14.282 4.288-22.48 7.484a.238.238 0 0 0-.085.035l-.086.034.069-.024c-.01.007-.021.014-.028.024a.55.55 0 0 0-.037.01c-.01.004-.018-.01-.007-.017 1.738-1.063 3.731-1.732 5.645-2.422 1.8-.644 3.608-1.265 5.43-1.862 3.827-1.255 7.686-2.415 11.5-3.711-.137.096-.123.322.02.415Z" fill="#86A3E2"/><path d="M27.66 63.328c.02 2.305.044 4.61.013 6.915-.02 1.595-.007 3.18-.32 4.723-.088-.018-.178-.031-.267-.045.024-7.587-.199-24.637-.672-31.99.127.075.26.147.398.216.326 1.821.384 3.71.514 5.546.34 4.853.295 9.772.333 14.635ZM27.346 74.966a4.87 4.87 0 0 1-.045.213l-.223-.048v-.21c.093.014.178.031.268.045ZM27.078 75.131l.223.048c-.007.028-.014.052-.017.079-.072-.027-.137-.051-.206-.079v-.048Z" fill="#6683C2"/><path d="M27.287 75.258c-.024.1-.048.199-.075.302a2.668 2.668 0 0 1-.134-.079c.004-.1.004-.199.004-.302.068.028.133.055.205.08ZM26.416 42.928c.47 7.353.696 24.403.672 31.99l-.014-.003-.676-32c.004.006.01.01.018.013Z" fill="#6683C2"/><path d="M27.092 74.921v.21l-.01-.004-.004-.209c.007 0 .01.003.014.003Z" fill="#511308"/><path d="M27.092 75.13v.053c-.003 0-.007-.004-.01-.004l-.004-.048h.014Z" fill="#511308"/><path d="M27.092 75.183c0 .102 0 .202-.004.301l-.003-.003-.007-.302c.01 0 .01.004.014.004Z" fill="#511308"/><path d="m27.093 75.179.006.302a4.542 4.542 0 0 1-.175-.106c-.023-.093-.044-.19-.065-.285.076.027.151.058.234.089ZM27.085 75.127l.003.048c-.079-.03-.158-.062-.233-.089-.003-.004-.003-.007-.003-.01l.233.051Z" fill="#6683C2"/><path d="m27.06 74.918.004.21-.234-.052a2.06 2.06 0 0 1-.04-.2c.01 0 .023.004.033.004.08.01.158.024.237.038Z" fill="#6683C2"/><path d="m26.398 42.917.676 32a5.673 5.673 0 0 0-.237-.037c-.01-.003-.023-.003-.034-.003-.34-1.79-.291-3.643-.343-5.474-.134-4.84-.164-9.68-.267-14.519-.052-2.312-.124-4.62-.155-6.928-.027-1.746-.089-3.526.045-5.269a.28.28 0 0 0 .072.07c.079.057.161.109.243.16Z" fill="#6683C2"/><path d="M26.912 75.37a3.014 3.014 0 0 1-.22-.143c-.175-.12-.075-.353.114-.353.01.068.024.133.04.199l-.058-.014c.021.007.038.017.059.024.02.1.04.195.065.288Z" fill="#6683C2"/><path d="M26.837 75.076c-.004.003-.004.007.003.01-.02-.007-.038-.017-.059-.024l.056.014Z" fill="#511308"/><path d="M26.724 42.657c.035.161.065.322.096.487a7.343 7.343 0 0 1-.398-.216c-.01-.123-.017-.24-.024-.357.107.028.216.059.326.086Z" fill="#6683C2"/><path d="M26.72 42.636c.004.007.004.014.004.02-.113-.03-.22-.057-.322-.085h-.004v-.007l.323.072Z" fill="#511308"/><path d="m26.39 42.568-.113-.024.113.03.007.347a3.037 3.037 0 0 1-.247-.161.458.458 0 0 1-.072-.069l.01-.13a.31.31 0 0 1 .107-.21c.106-.02.212-.044.319-.068.075.027.137.09.16.199.015.051.025.103.035.158l-.319-.072Z" fill="#6683C2"/><path d="M26.53 42.276c-.004.003-.011.003-.015.003-.004-.003-.004-.003-.007-.003h.021Z" fill="#511308"/><path d="M26.507 42.276a.01.01 0 0 0 .007.003c-.106.024-.212.048-.319.069.024-.024.052-.038.08-.051l.02-.007.212-.014Z" fill="#6683C2"/><path d="M26.517 42.276c-.072.003-.14.007-.212.014l.068-.024h.004a.324.324 0 0 1 .14.01Z" fill="#6683C2"/><path d="m26.422 42.928-.017-.01-.007-.347h.004c.003.117.01.237.02.357ZM26.387 42.568v.007l-.114-.031.114.024ZM26.373 42.27l-.07.024h-.006a.28.28 0 0 1 .076-.025ZM26.295 42.293l-.022.007c.004-.003.008-.007.015-.007h.007Z" fill="#511308"/><path d="M26.295 42.293c-.007.003-.01.003-.014.007l-.14.044c.007-.006.01-.01.017-.01.03-.01.058-.024.085-.034a.123.123 0 0 1 .035-.007h.017Z" fill="#511308"/><path d="m26.137 42.345.14-.045c-.027.014-.054.028-.078.052a.678.678 0 0 1-.09.017.09.09 0 0 1 .028-.024Z" fill="#511308"/><path d="M26.25 42.3c-.027.01-.058.025-.086.035a.237.237 0 0 1 .087-.035ZM26.108 42.368c.03-.006.062-.01.09-.017a.303.303 0 0 0-.107.21l-.01.13a.241.241 0 0 1 .027-.323Z" fill="#6683C2"/><path d="m26.157 42.334-.017.01-.07.025c.028-.01.056-.024.087-.035Z" fill="#511308"/><path d="M44.743 54.161c.493 1.386.415 3.04.439 4.493.027 1.719.03 3.43 0 5.145-.031 1.75-.066 3.499-.093 5.251-.01.796-.02 1.592-.02 2.388 0 .689.137 1.522-.12 2.167a.418.418 0 0 1-.443.275c.473-.12.614-.84.041-.957l-.055-.01.059-9.193v-.003c.047-3.402.096-6.801.065-9.542h.003a.351.351 0 0 0 .124-.014Z" fill="#5771A8"/><path d="M36.508 52.594a.37.37 0 0 0-.164-.052.094.094 0 0 1 .068-.065c.566-.168 1.208-.01 1.787.062.707.09 1.41.189 2.113.285 1.44.192 2.946.298 4.356.651.333.086.353.597.058.69-.017-.041-.03-.086-.048-.127-.03-.079-.13-.065-.154.007l-.041.123c-1.352-.089-2.706-.394-4.04-.62l-2.1-.357c-.524-.09-1.142-.127-1.646-.343a.322.322 0 0 0-.03-.072.346.346 0 0 0-.159-.182Z" fill="#5771A8"/><path d="M44.692 54.034c.017.041.03.086.048.127a.403.403 0 0 1-.117.014h-.003v-.117.113c-.041-.003-.079-.003-.12-.007l.041-.123c.02-.072.117-.086.151-.007ZM44.609 54.175c.003 0 .003 0 0 0 .034 2.74-.014 6.14-.062 9.542l.062-9.542Z" fill="#5771A8"/><path d="m44.624 54.175-.062 9.542v.003c-.048 3.259-.093 6.517-.069 9.192a4.864 4.864 0 0 0-.63-.065c-.039-.518.037-1.094.034-1.553v-2.405c.003-1.715.017-3.426.034-5.141.017-1.753.065-3.505.134-5.258.054-1.41-.01-2.97.435-4.322.045.004.082.004.124.007Z" fill="#5771A8"/><path d="m44.55 63.72-.058 9.192h-.01c-.02-2.675.024-5.933.068-9.192Z" fill="#5771A8"/><path d="M44.494 54.168c-.446 1.352-.38 2.912-.435 4.322a179.117 179.117 0 0 0-.134 5.258c-.017 1.715-.031 3.426-.034 5.141v2.404c0 .463-.072 1.036-.035 1.554-.487-.017-.984.007-1.464-.072-.244-.041-.511-.144-.775-.21.14-.64.048-1.344.044-1.995-.007-.621-.007-1.242-.007-1.863 0-1.276-.003-2.555-.01-3.83-.007-1.28-.045-2.55-.096-3.828-.045-1.112-.007-2.37-.384-3.437a1.55 1.55 0 0 1-.02-.069.258.258 0 0 0-.028-.062 2.482 2.482 0 0 0-.1-.233c-.027-.058-.116-.082-.147-.014-.004.007-.007.01-.007.018a.58.58 0 0 0-.206-.045c-1.3-.058-2.565-.405-3.862-.364.151-.569.052-1.255.045-1.82-.004-.666.127-1.537-.12-2.175.504.216 1.125.254 1.646.343.7.12 1.4.236 2.1.356 1.32.223 2.678.532 4.03.621Z" fill="#fff"/><path d="M44.548 72.926c.573.117.432.837-.041.957a.628.628 0 0 1-.508-.346 1.874 1.874 0 0 1-.055-.148c.165.01.33.014.497.014l-.52-.106a2.62 2.62 0 0 1-.07-.45c.213.01.426.024.632.066.003.154.003.308.003.46l.004-.457.058.01Z" fill="#5771A8"/><path d="m44.499 72.915-.003.456c-.004-.15-.004-.305-.004-.46 0 0 .004 0 .007.004ZM44.517 73.883l-.038.01c-.71.127-1.567-.154-2.243-.377-.343-.113-.837-.21-1.142-.456a.57.57 0 0 0 .377-.168c.8.285 1.636.453 2.483.497.017.052.035.1.055.148.086.192.298.329.508.346Z" fill="#5771A8"/><path d="m43.93 73.296.521.107c-.165 0-.333-.004-.497-.014l-.024-.093ZM43.912 73.296l.024.093a8.778 8.778 0 0 1-2.483-.497.384.384 0 0 0 .065-.083l2.394.487ZM43.917 73.296l-2.394-.49a.535.535 0 0 0 .062-.144c.007-.03.017-.062.02-.093.265.062.532.168.776.21.483.078.977.054 1.465.072.013.154.034.305.072.445ZM41.161 57.615c.378 1.067.34 2.329.384 3.437.055 1.276.09 2.548.097 3.827.006 1.276.006 2.556.01 3.832 0 .62 0 1.241.007 1.862.003.652.096 1.355-.045 1.996a1.313 1.313 0 0 0-.525-.034v-.117l-.068-6.561v-.028l-.004-.456c-.003-.154-.003-.305-.003-.46-.02-2.19-.041-4.38-.069-6.8a.403.403 0 0 0 .168-.19c.048-.126.076-.202.048-.308Z" fill="#5771A8"/><path d="M40.933 57.697c0-.134-.003-.27-.003-.408.068.041.127.1.168.178.003.004.003.01.007.014.017.045.034.086.051.134.024.11-.003.185-.051.309a.403.403 0 0 1-.168.188c-.004-.137-.004-.278-.004-.415Z" fill="#5771A8"/><path d="m41.132 57.543.021.069a1.079 1.079 0 0 0-.051-.134.28.28 0 0 1 .03.065ZM40.923 57.29a.336.336 0 0 0-.08-.038c0-.007.004-.01.008-.017.03-.069.12-.045.147.013.034.072.065.144.093.22a.403.403 0 0 0-.168-.179Z" fill="#5771A8"/><path d="M40.925 57.29c0 .137.004.274.004.408l-.234-.041c.045-.137.093-.275.151-.405.031.007.055.02.08.038Z" fill="#5771A8"/><path d="m40.93 57.697.003.415a.441.441 0 0 1-.244.076c-.044 0-.085 0-.127-.004.031-.164.073-.329.12-.486h.247Z" fill="#5771A8"/><path d="M40.942 57.698h-.247l.014-.041.233.04ZM40.95 58.112l.07 6.802c0 .154 0 .305.003.46l.003.456v.027c.017 2.092.038 4.209.069 6.561v.117a.793.793 0 0 0-.2.065c-.04.02-.054.083-.04.124.044.137.13.247.24.336a.46.46 0 0 1-.487-.343c-.186-.665-.113-1.393-.12-2.079-.01-.665-.024-1.327-.035-1.992a701.237 701.237 0 0 1-.061-3.825 90.018 90.018 0 0 1 .03-3.968c.028-.858-.006-1.794.162-2.665.044.003.085.003.127.003a.508.508 0 0 0 .24-.079Z" fill="#5771A8"/><path d="m40.998 64.91-.068-6.801c.027 2.425.048 4.613.068 6.801ZM41.089 72.531c.168-.03.346-.007.525.034l-.02.093a.456.456 0 0 1-.063.144l-.583-.12c.172.072.343.14.518.202a.57.57 0 0 1-.377.168.695.695 0 0 1-.24-.336c-.014-.04 0-.103.041-.123.065-.028.13-.048.199-.062ZM40.649 57.207a.567.567 0 0 1 .206.045c-.059.13-.11.267-.151.404l-3.962-.669c.017-.047.031-.096.045-.144 1.296-.04 2.562.306 3.862.364Z" fill="#5771A8"/><path d="m40.93 72.69.583.12a.384.384 0 0 1-.065.082 9.516 9.516 0 0 1-.518-.203ZM40.691 57.657c-.003.013-.01.027-.013.04-1.427-.013-2.538-.394-3.951-.699.003-.003.003-.007.003-.01l3.962.669ZM41.016 65.854l.068 6.561c-.03-2.35-.051-4.469-.068-6.561Z" fill="#5771A8"/><path d="M40.681 57.698c-.048.157-.09.322-.12.487-1.379-.035-2.71-.432-3.92-1.064a.148.148 0 0 0 .072-.078c.006-.014.01-.031.017-.045 1.413.309 2.524.686 3.951.7Z" fill="#5771A8"/><path d="M36.715 52.848c.246.638.116 1.51.12 2.175.003.57.102 1.255-.045 1.821-.079.003-.158.007-.237.014l-.096-1.866c-.024-.741-.044-1.485-.11-2.106l.11 2.106c.02.655.041 1.307.093 1.866-.096.01-.124.144-.038.188.048.024.096.052.144.076-.082.044-.202.02-.254-.062-.35-.545-.288-1.372-.322-2-.041-.703-.244-1.564-.079-2.25.048-.195.202-.28.357-.267a.126.126 0 0 0 .055.144c.096.062.195.117.302.161Z" fill="#5771A8"/><path d="M36.514 52.594c.069.041.127.1.161.182l.031.072c-.106-.045-.21-.1-.302-.161a.129.129 0 0 1-.055-.145c.059.004.114.021.165.052ZM36.547 56.858c.079-.007.158-.01.236-.014a1.15 1.15 0 0 1-.044.144l-.189-.031-.003-.1Z" fill="#5771A8"/><path d="M36.736 56.987c0 .004 0 .007-.004.01l-.185-.04.189.03Z" fill="#5771A8"/><path d="m36.553 56.957.185.04c-.004.018-.01.032-.017.045a.148.148 0 0 1-.072.08c-.048-.025-.096-.049-.144-.076-.086-.048-.059-.178.037-.189l.01.1ZM36.344 52.886c.065.617.085 1.365.11 2.105l-.11-2.105Z" fill="#5771A8"/><path d="m36.55 56.857.007.1-.01-.1h.003ZM36.453 54.992l.096 1.865h-.003c-.052-.559-.072-1.21-.093-1.865Z" fill="#5771A8"/><path d="M117.627 58.968c.013 2.798-.007 5.597-.031 8.396-.021 2.826-.045 5.649-.066 8.475-.01 1.39-.013 2.775-.02 4.164-.007 1.207.216 2.689-.106 3.862-.007-.237-.241-.453-.498-.484l.052-9.98c.058-7.128.147-14.234.116-21.773.1-.09.189-.185.264-.292l.011-.017c.343 1.005.157 2.39.192 3.365.051 1.43.079 2.853.086 4.284Z" fill="#F2C45B"/><path d="M117.405 83.861c.007.11-.038.227-.154.33-.748.658-1.825.99-2.724 1.406-.891.415-1.783.826-2.675 1.242-1.838.853-3.68 1.704-5.519 2.558-1.896.878-3.779 1.784-5.693 2.624-.902.394-1.804.8-2.71 1.183-.792.336-1.591.553-2.404.8a.398.398 0 0 0-.01-.128.47.47 0 0 0 .068-.113v-.003c6.963-3.235 13.925-6.472 20.885-9.707a.49.49 0 0 0 .905-.075c.01-.038.024-.075.031-.117Z" fill="#F2C45B"/><path d="M117.405 83.862c-.01.038-.02.079-.031.113a.49.49 0 0 1-.905.076l.439-.203v-.072l.003-.398c.254.031.487.247.494.484Z" fill="#F2C45B"/><path d="M117.389 50.932a.398.398 0 0 1-.038.39l-.031-.088a.607.607 0 0 0 .069-.302Z" fill="#511308"/><path d="M117.395 50.931a.55.55 0 0 1-.069.302 2.213 2.213 0 0 0-.192-.394c-.027-.038-.082-.038-.106 0a1.77 1.77 0 0 0-.134.254l-.796.342c-.37-.034-.748-.102-1.121-.178.312-.161.644-.35.981-.487l.96.172-.926-.186c.305-.123.617-.199.926-.178.195.02.398.168.477.353Z" fill="#FFDD8F"/><path d="m117.34 51.32-.01.016a1.96 1.96 0 0 1-.264.292c0-.072 0-.148-.004-.216a.401.401 0 0 0 .247-.179c.011.028.024.059.031.086Z" fill="#511308"/><path d="M117.158 50.517a.489.489 0 0 1 .233.415.604.604 0 0 0-.48-.35c-.305-.02-.617.055-.926.178l-15.819-3.172-.01-.004c-4.404-.916-8.612-1.787-11.757-2.366-.069-.23-.278-.415-.566-.32-.017.008-.035.011-.052.018a.26.26 0 0 1 .083-.034c.97-.21 1.982.034 2.953.185 1.176.185 2.346.411 3.515.624 2.631.484 5.251 1.032 7.875 1.567 2.717.553 5.433 1.122 8.15 1.684 1.183.247 2.373.477 3.546.765 1.029.258 2.315.295 3.255.81Z" fill="#FFDD8F"/><path d="m117.07 51.051-.003.357a3.866 3.866 0 0 1-.309.038c.034-.123.075-.24.127-.353v-.004c.037-.089.085-.175.133-.254.024-.037.079-.037.107 0 .079.124.14.254.192.395a.384.384 0 0 1-.247.178 7.07 7.07 0 0 0 0-.357ZM117.07 51.628c.031 7.536-.059 14.642-.117 21.773l.11-21.766c.003-.003.007-.003.007-.007Z" fill="#F2C45B"/><path d="M117.066 51.412c.003.072.003.147.003.216l-.007.007.004-.223Z" fill="#511308"/><path d="m117.072 51.412-.003.223c-.124.11-.261.206-.405.291.024-.164.055-.326.1-.476.092-.007.185-.014.277-.031.014-.004.024-.004.031-.007Z" fill="#F2C45B"/><path d="m117.064 51.635-.11 21.765c-.027 3.307-.051 6.62-.051 9.981a.563.563 0 0 0-.131.004 3.11 3.11 0 0 0-.452.106c-.206-1.156-.007-2.535-.004-3.66.004-1.389.017-2.774.028-4.163.02-2.765.051-5.533.079-8.3.027-2.858.054-5.715.092-8.575.017-1.43.059-2.857.107-4.284.027-.748-.083-1.726.037-2.58a2.89 2.89 0 0 0 .405-.294Z" fill="#F2C45B"/><path d="m116.961 73.4-.051 9.981c-.004.004-.004.004-.004 0 .007-3.36.028-6.674.055-9.98Z" fill="#511308"/><path d="M116.899 83.78v.071l-.439.203c-.01-.024-.021-.048-.031-.076a4.482 4.482 0 0 1-.117-.49c.151-.045.302-.083.453-.107a.557.557 0 0 1 .131-.003c.003.134.003.267.003.401Z" fill="#F2C45B"/><path d="m115.98 50.76.926.186c-.312-.055-.631-.114-.961-.172.011-.004.021-.01.035-.014ZM116.877 51.093c-.247.116-.494.23-.747.346-.018 0-.035-.003-.052-.003l.799-.343Z" fill="#511308"/><path d="M116.888 51.096c-.051.11-.092.23-.127.354-.202.013-.411.01-.62-.01l.747-.344Z" fill="#F2C45B"/><path d="M116.765 51.446a4.227 4.227 0 0 0-.1.477c-.514.305-1.138.493-1.66.72-.826.36-1.653.713-2.483 1.063-1.866.786-3.742 1.547-5.618 2.308-3.577 1.451-7.151 2.947-10.773 4.284a.553.553 0 0 0-.014-.326l10.166-4.349.076-.03c3.375-1.386 6.746-2.772 9.782-4.158.212.021.422.025.624.01Z" fill="#F2C45B"/><path d="M116.666 51.926c-.117.854-.011 1.832-.038 2.58a218.005 218.005 0 0 0-.106 4.283c-.038 2.857-.066 5.718-.093 8.575-.027 2.768-.058 5.536-.079 8.3-.01 1.39-.024 2.775-.027 4.164-.004 1.128-.203 2.507.003 3.66-.71.212-1.396.638-2.051.943-.947.442-1.893.881-2.84 1.324-1.838.857-3.677 1.711-5.515 2.569-1.78.83-3.574 1.64-5.344 2.497-.936.452-1.872.919-2.805 1.379-.758.377-1.438.82-2.13 1.269-.004-10.942.466-21.866.04-32.807a.967.967 0 0 0 .107-.017c.178-.031.295-.179.34-.347 3.625-1.337 7.199-2.833 10.773-4.284 1.876-.761 3.752-1.522 5.618-2.308.83-.35 1.657-.703 2.483-1.063.522-.227 1.149-.412 1.664-.717Z" fill="#F2C45B"/><path d="M116.432 83.978a.287.287 0 0 0 .031.076c-6.96 3.234-13.922 6.472-20.885 9.706a.62.62 0 0 0 .055-.26v-.028c.696-.45 1.372-.892 2.13-1.27.933-.462 1.866-.925 2.806-1.378 1.769-.858 3.563-1.667 5.343-2.497 1.839-.857 3.677-1.711 5.516-2.569.946-.442 1.893-.881 2.839-1.324.659-.305 1.345-.73 2.052-.943.027.165.065.33.113.487ZM116.09 51.435c.017.004.034.004.051.004-3.035 1.39-6.407 2.775-9.782 4.157l9.731-4.16Z" fill="#F2C45B"/><path d="m116.082 51.436-9.731 4.16-.075.031c-3.516 1.444-7.035 2.892-10.173 4.335a.39.39 0 0 0-.203-.216c-.013-.006-.027-.013-.04-.017 3.275-1.831 6.801-3.237 10.258-4.675 1.924-.799 3.848-1.598 5.766-2.425.919-.397 1.838-.799 2.754-1.21.106-.048.213-.103.326-.158h.003c.367.072.744.14 1.115.175ZM100.164 47.588l15.819 3.172-.035.014c-4.414-.81-10.252-2.034-15.784-3.186Z" fill="#FFDD8F"/><path d="M115.951 50.774c-.336.137-.666.322-.981.487h-.004c-.401-.082-.795-.168-1.176-.223-1.242-.178-2.466-.415-3.694-.655a494.237 494.237 0 0 1-8.002-1.64c-2.665-.569-5.333-1.125-7.995-1.718-1.125-.25-2.253-.487-3.378-.744-.782-.179-1.63-.309-2.377-.635a.519.519 0 0 0 .058-.415l11.754 2.356.01.004c5.533 1.149 11.37 2.373 15.785 3.183Z" fill="#FFDD8F"/><path d="M114.958 51.257c-.109.055-.219.11-.325.158-.913.415-1.832.816-2.755 1.21-1.913.824-3.841 1.623-5.765 2.426-3.457 1.44-6.983 2.846-10.259 4.675a3.77 3.77 0 0 0-.374-.138.377.377 0 0 0-.116-.034s0-.003-.004 0c-.531-.147-1.104-.202-1.643-.302-.902-.171-1.79-.38-2.689-.562a442.145 442.145 0 0 1-6.66-1.382c-4.71-1.009-9.412-2.058-14.118-3.098-1.087-.24-2.17-.493-3.262-.717-.758-.157-1.505-.353-2.277-.325 1.948-.446 3.838-1.225 5.721-1.883a206.91 206.91 0 0 1 5.663-1.897 294.67 294.67 0 0 1 11.98-3.57.467.467 0 0 0 .257-.179c.748.326 1.595.456 2.377.635 1.125.257 2.254.494 3.379.744 2.658.597 5.326 1.152 7.995 1.718 2.665.566 5.33 1.119 8.002 1.64 1.227.24 2.455.477 3.694.655.384.058.778.144 1.179.226ZM106.29 55.627l-10.166 4.349c-.003-.007-.003-.01-.007-.014 3.138-1.444 6.658-2.891 10.173-4.335Z" fill="#FFDD8F"/><path d="m100.148 47.584-11.754-2.357c-.003-.003-.003-.006-.003-.01 3.148.58 7.357 1.45 11.757 2.367Z" fill="#511308"/><path d="M96.117 59.976a.554.554 0 0 1 .013.326c-.13.052-.264.1-.394.148a.2.2 0 0 1-.062.013l-.01-.295.034-.013.419-.179Z" fill="#F2C45B"/><path d="M95.726 60.446c.13-.048.264-.096.394-.148-.044.168-.161.313-.34.347-.034.007-.068.013-.106.017l-.01-.203a.125.125 0 0 0 .062-.013Z" fill="#F2C45B"/><path d="m96.11 59.976-.422.179c.137-.065.274-.127.415-.192.003.003.003.006.006.013Z" fill="#511308"/><path d="M96.104 59.962c-.141.065-.278.127-.415.192l-.035.014c-.003-.106-.007-.213-.013-.319l.216-.123c.013.006.027.013.04.017a.402.402 0 0 1 .207.22Z" fill="#FFDD8F"/><path d="M95.863 59.729a2.207 2.207 0 0 0-.216.123v-.01a.285.285 0 0 0-.155-.25c.127.038.25.086.37.137Z" fill="#FFDD8F"/><path d="M95.677 60.662c.425 10.941-.045 21.862-.042 32.807-.089.058-.181.116-.274.178a.28.28 0 0 0-.09-.048 5.84 5.84 0 0 0-.263-.09l.003-.01v-.02l.072-7.144c.144-8.328.443-17.42.285-25.642.106-.007.21-.014.309-.03Z" fill="#FACD65"/><path d="m95.668 60.463.01.202a3.122 3.122 0 0 1-.308.028l-.01-.556c.006 0 .013.004.02.004-.017.16.106.343.288.322Z" fill="#FACD65"/><path d="M95.647 60.168c.006.1.01.196.01.295-.182.02-.305-.158-.288-.326.092.014.185.024.274.035l.004-.004Z" fill="#FACD65"/><path d="M95.647 59.85c.007.106.01.212.014.318l-.004.004-.274-.058a.253.253 0 0 1 .13-.186c.041-.027.086-.055.134-.079Z" fill="#FFDD8F"/><path d="m95.37 60.11.274.058c-.089-.01-.182-.02-.274-.034-.004-.007-.004-.014 0-.024Z" fill="#511308"/><path d="m95.342 59.846-.004.257-.291-.062v-.202c-.004-.202.158-.295.312-.281a1.167 1.167 0 0 1 .12.034c.086.041.151.127.154.25v.01l-.133.076a.26.26 0 0 0-.13.185l-.025-.007c0-.085 0-.175-.003-.26Z" fill="#FFDD8F"/><path d="M95.223 94.1c.103-.034.206-.065.306-.096-.01.168-.127.322-.35.308-1.935-.12-3.794-.377-5.7-.727-4.57-.84-9.134-1.677-13.672-2.661-2.157-.47-4.311-.943-6.428-1.581-1.33-.402-2.716-.786-3.934-1.479.028-.106.055-.209.08-.312 6.132 2.247 22.369 4.956 28.947 6.256.13.223.395.32.642.285.027.014.065.02.11.007Z" fill="#FACD65"/><path d="M95.367 59.558a.27.27 0 0 1 .117.034c-.038-.01-.076-.024-.117-.034ZM95.36 60.106l.025.008c-.003.007-.003.018-.003.026-.008 0-.015-.004-.023-.004v-.03Z" fill="#511308"/><path d="M95.37 60.69c.158 8.218-.14 17.314-.284 25.641l.257-25.638c.01 0 .017 0 .028-.003Z" fill="#FACD65"/><path d="M95.358 59.558c-.154-.014-.312.082-.312.281v.203l-30.145-6.497c-.01-.055-.02-.11-.034-.164-.028-.113-.093-.179-.172-.206.007 0 .01-.003.014-.003.772-.028 1.52.168 2.278.325 1.09.227 2.174.477 3.261.717 4.706 1.036 9.408 2.086 14.118 3.097 2.219.477 4.438.94 6.66 1.383.899.178 1.787.39 2.69.562.541.1 1.11.154 1.642.302Z" fill="#FFDD8F"/><path d="M95.379 60.69c-.01.003-.017.003-.027.003l.006-.562c.004 0 .007 0 .01.003l.011.556Z" fill="#511308"/><path d="M95.363 60.106v.03c-.004-.004-.008-.004-.011-.004l.003-.03.008.005Z" fill="#511308"/><path d="M95.352 59.846c.003.086.003.175.006.26l-.006-.003v-.257Z" fill="#511308"/><path d="m95.338 60.103-.003.027a7.382 7.382 0 0 0-.288-.037v-.052l.291.062Z" fill="#FFDD8F"/><path d="m95.338 60.13-.006.563c-.093.003-.19.003-.285.003v-.6c.1.01.199.024.291.034Z" fill="#FACD65"/><path d="m95.349 60.693-.258 25.639c-.04 2.462-.072 4.86-.072 7.144v.02l-.003.01a21.26 21.26 0 0 0-.618-.205c.021-10.876.652-21.738.67-32.608.092.004.188.004.28 0Z" fill="#FACD65"/><path d="m95.088 86.331-.072 7.144c0-2.284.03-4.681.072-7.144Z" fill="#511308"/><path d="M95.067 60.092v.6c-.641-.017-1.303-.168-1.917-.257-1.064-.15-2.127-.295-3.183-.49-4.764-.885-9.49-1.938-14.21-3.04-2.22-.517-4.425-1.07-6.63-1.642-1.293-.336-2.854-.573-4.106-1.19a12.14 12.14 0 0 0-.1-.511c6.446 1.667 23.423 5.597 30.146 6.53Z" fill="#FACD65"/><path d="M95.067 60.042v.051c-6.723-.933-23.7-4.864-30.142-6.527 0-.007-.003-.014-.003-.02l30.145 6.496ZM94.457 93.791c.003.007.003.01.007.014-6.579-1.303-22.812-4.013-28.948-6.256a.713.713 0 0 0 .017-.082l28.924 6.324Z" fill="#FACD65"/><path d="m94.455 93.791-28.924-6.325a4.99 4.99 0 0 0 .045-.223c1.687.302 3.344.769 5.021 1.119 4.507.94 9.007 1.903 13.531 2.77 3.426.656 6.928 1.112 10.255 2.172v.192a.634.634 0 0 0 .072.295Z" fill="#FACD65"/><path d="M95.061 60.693c-.014 10.87-.648 21.735-.669 32.608-3.327-1.06-6.828-1.516-10.255-2.171-4.524-.864-9.02-1.832-13.53-2.771-1.678-.35-3.335-.817-5.022-1.118.326-1.612.309-3.262.333-4.922.034-2.405.006-4.806-.014-7.207-.041-5.069.007-10.197-.35-15.255-.134-1.914-.192-3.883-.538-5.78 1.251.617 2.809.854 4.105 1.19 2.202.573 4.411 1.125 6.63 1.643 4.72 1.101 9.446 2.15 14.21 3.04 1.056.195 2.12.339 3.183.49.614.089 1.272.236 1.917.253Z" fill="#FACD65"/><path d="M87.94 45.368c-.028.01-.055.017-.083.024-.017-.01-.038-.02-.055-.034-.154-.1-.165-.343-.02-.44l.003-.003c.017-.006.034-.01.052-.017.284-.096.497.086.565.32-.157-.032-.312-.06-.466-.087l.47.093a.505.505 0 0 1-.059.415 3.438 3.438 0 0 1-.486-.25l.078-.02Z" fill="#511308"/><path d="M88.404 45.22c.003.004.003.007.003.01l-.47-.092c.155.024.31.052.467.083ZM88.348 45.643a.454.454 0 0 1-.258.178 290.953 290.953 0 0 0-11.98 3.57 206.798 206.798 0 0 0-5.663 1.898c-1.883.661-3.773 1.437-5.72 1.883h-.025a.304.304 0 0 0-.147-.007l23.302-7.769c.158.096.323.178.49.247ZM87.935 45.368l-.08.028c-.003 0-.003-.004-.003-.004.027-.007.055-.013.083-.024Z" fill="#511308"/><path d="m87.867 45.396-23.303 7.768-.01.004a.541.541 0 0 0-.058.017h-.004c-.007 0-.013.003-.017.003-.013.004-.027.004-.037.007 8.543-3.334 14.642-5.103 23.425-7.803l.004.004Z" fill="#511308"/><path d="m87.808 45.361.055.034c-8.784 2.7-14.882 4.47-23.426 7.803a.23.23 0 0 0-.09.035c-.03.01-.058.024-.088.034l.072-.024c-.01.007-.018.014-.028.024a6.17 6.17 0 0 0-.041.01c-.01.004-.017-.01-.007-.017 1.815-1.108 3.886-1.804 5.886-2.52 1.876-.677 3.762-1.321 5.659-1.946 3.992-1.313 8.016-2.517 11.994-3.872-.15.096-.14.34.014.44Z" fill="#511308"/><path d="M65.898 75.115c.02 2.401.048 4.806.014 7.206-.02 1.66-.007 3.314-.333 4.922-.092-.017-.185-.034-.278-.048.028-7.906-.209-25.683-.7-33.345a4.8 4.8 0 0 0 .412.227c.343 1.896.401 3.865.539 5.779.353 5.059.305 10.187.346 15.26Z" fill="#FACD65"/><path d="M65.582 87.243c-.013.076-.03.148-.044.223l-.233-.051v-.216c.092.013.185.03.277.044ZM65.305 87.415l.233.051c-.007.028-.014.055-.017.083a6.956 6.956 0 0 1-.213-.083c-.003-.017-.003-.034-.003-.051Z" fill="#FACD65"/><path d="M65.52 87.549c-.023.106-.05.209-.078.312-.045-.028-.093-.052-.137-.08.003-.102.003-.208.003-.315.069.031.137.055.213.083ZM65.435 87.865c-.003.007-.003.013-.007.02-.034.13-.233.134-.267 0l-.052-.212c.062.037.124.075.182.113l.004.065v-.062c.048.024.096.048.14.076ZM64.603 53.85c.49 7.666.724 25.44.7 33.345l-.014-.003-.703-33.355c.003.006.01.01.017.013Z" fill="#FACD65"/><path d="M65.31 87.196v.216l-.01-.004-.003-.216c.003.004.01.004.014.004Z" fill="#FACD65"/><path d="M65.31 87.415v.055c-.003 0-.006-.003-.01-.003l-.003-.052h.014Z" fill="#511308"/><path d="M65.31 87.47c0 .106 0 .212-.003.315l-.003-.003-.007-.32c.007.004.01.008.014.008Z" fill="#511308"/><path d="m65.303 87.466.006.32a8.114 8.114 0 0 1-.181-.114 3.056 3.056 0 0 1-.066-.298c.076.027.158.058.24.092ZM65.298 87.411l.004.052-.244-.093c-.003-.004-.003-.007-.003-.01l.243.051Z" fill="#FACD65"/><path d="m65.29 87.195.002.216-.243-.055a2.042 2.042 0 0 1-.041-.209c.01 0 .02.004.034.004.082.017.168.03.247.044Z" fill="#FACD65"/><path d="m64.58 53.84.704 33.355-.247-.04c-.014-.004-.024-.004-.035-.004-.353-1.863-.305-3.797-.356-5.704-.14-5.042-.172-10.09-.282-15.136-.051-2.408-.127-4.816-.16-7.22-.028-1.818-.093-3.673.047-5.491a.253.253 0 0 0 .076.072c.082.058.168.113.254.168ZM65.106 87.669a5.199 5.199 0 0 1-.23-.15c-.182-.128-.079-.368.117-.368.01.069.027.14.04.21l-.058-.014c.02.007.041.017.062.024.02.1.045.202.069.298Z" fill="#FACD65"/><path d="M65.035 87.36c-.003.004-.003.007.004.01l-.062-.024.058.014Z" fill="#511308"/><path d="M64.922 53.566c.038.167.069.339.1.51a6.023 6.023 0 0 1-.412-.226c-.01-.127-.017-.25-.024-.37.106.027.22.058.336.086Z" fill="#FACD65"/><path d="M64.922 53.545c.004.007.004.014.004.02l-.337-.085h-.003v-.007l.336.072Z" fill="#511308"/><path d="m64.584 53.474-.117-.028.117.03.007.361c-.086-.055-.175-.11-.258-.172a.302.302 0 0 1-.075-.072l.01-.133a.327.327 0 0 1 .113-.22c.11-.02.216-.044.326-.068a.263.263 0 0 1 .172.205c.013.055.024.11.034.165l-.33-.069Z" fill="#FACD65"/><path d="M64.717 53.172c-.004.003-.007.003-.014.003-.004-.003-.004-.003-.008-.003h.022Z" fill="#511308"/><path d="M64.702 53.172a.01.01 0 0 0 .007.003 3.455 3.455 0 0 1-.326.069.255.255 0 0 1 .092-.055l.01-.004c.073-.007.145-.01.217-.013Z" fill="#511308"/><path d="M64.705 53.171a4.46 4.46 0 0 0-.213.014l.058-.017.01-.004a.293.293 0 0 1 .145.007ZM64.61 53.85l-.017-.01-.007-.36h.003c.004.12.01.243.02.37ZM64.585 53.474v.006l-.116-.03.116.023ZM64.535 53.167l-.058.018c.02-.007.038-.018.058-.018ZM64.479 53.185l-.01.003c.003-.003.003-.003.006-.003h.004Z" fill="#511308"/><path d="M64.493 53.185c-.004 0-.004 0-.007.003l-.158.052c.007-.007.01-.01.017-.01.031-.01.062-.024.09-.035a.125.125 0 0 1 .037-.007c.007 0 .014-.003.02-.003Z" fill="#511308"/><path d="m64.317 53.24.157-.052a.254.254 0 0 0-.092.055l-.093.02c.007-.01.017-.016.028-.023Z" fill="#511308"/><path d="M64.425 53.195c-.03.01-.058.024-.09.035a.232.232 0 0 1 .09-.035ZM64.301 53.264l.093-.02a.313.313 0 0 0-.113.219l-.01.133a.244.244 0 0 1 .03-.332Z" fill="#FACD65"/><path d="M64.34 53.23c-.008.003-.011.007-.018.01l-.072.024c.027-.01.058-.024.09-.034Z" fill="#511308"/><path d="M88.27 84.945c.014.463.306 2.209-.575 2.209-.268 0-.426-.161-.518-.398-.529.075-1.033-.076-1.561-.171a121.463 121.463 0 0 0-5.478-.864 205.071 205.071 0 0 0-3.83-.491c-1.02-.12-2.172-.1-3.108-.563a.335.335 0 0 1-.079-.038c-.01-.006-.02-.01-.03-.017a.242.242 0 0 1-.12-.15c-.622-.82-.519-2.024-.488-3.005.024-.854.01-2.507.748-3.08a.271.271 0 0 1 .233-.055c.94-.652 2.113-1.074 3.097-1.653 1.036-.607 2.065-1.286 2.816-2.236.724-.916 1.166-2.189.816-3.348-.175-.58-.555-1.183-1.241-1.002-.621.165-.926.92-1.184 1.441-.085.175-.332.165-.445.03a.806.806 0 0 1-.055.07c-.096.12-.316.17-.457.12a80.314 80.314 0 0 1-4.215-1.626.37.37 0 0 1-.164-.552c-.014-2.326 1.464-5.029 3.731-5.783 2.106-.7 4.661.116 6.555 1.087 1.972 1.012 3.594 2.662 4.119 4.864.94 3.954-.779 8.57-4.058 11.003.741.017 1.482.068 2.24.15.659.073 1.32.148 1.98.223.49.059.83.035 1.114.477.058.09.055.22 0 .312.23.96.13 2.096.158 3.046Zm-1.148 0c.027-.857-.052-1.859.1-2.75-.11-.014-.23-.038-.361-.056-.707-.102-1.413-.202-2.123-.295-.974-.13-1.91-.305-2.854-.514-.384.213-.72.062-.888-.213-.123-.037-.151-.168-.103-.264a.747.747 0 0 1 .295-.737c1.907-1.444 3.378-3.32 4.102-5.622.713-2.267.779-5.086-.813-7.007-1.481-1.794-4.24-2.915-6.534-2.99-2.994-.1-4.194 2.578-4.952 5.038 1.368.398 2.723.837 4.064 1.306.055.021.11.052.158.086.048-1.217 1.228-2.246 2.514-1.914 1.489.384 1.886 2.34 1.698 3.64-.254 1.721-1.383 3.066-2.727 4.088-.724.552-1.506 1.022-2.298 1.468-.796.446-1.722 1.063-2.62 1.238h-.01c-.008.113-.014.226-.021.34-.02.559-.041 1.114-.048 1.673-.004.82.195 1.715.03 2.525.971-.158 2.052.051 2.995.133 1.214.107 2.425.234 3.632.391 1.218.162 2.432.337 3.646.529.556.089 1.111.181 1.663.277.457.08.96.114 1.403.282.017-.268.048-.515.052-.652Z" fill="#EDBD51"/><path d="M87.243 82.194c-.151.891-.072 1.893-.1 2.75-.003.138-.034.385-.048.659-.439-.168-.946-.202-1.403-.281a119.38 119.38 0 0 0-5.31-.806 85.659 85.659 0 0 0-3.631-.391c-.947-.083-2.024-.292-2.995-.134.165-.813-.034-1.708-.03-2.524.003-.56.024-1.115.048-1.674l.02-.34h.01c.9-.175 1.829-.792 2.62-1.238.793-.446 1.575-.916 2.299-1.468 1.348-1.025 2.473-2.367 2.727-4.088.192-1.3-.21-3.255-1.698-3.64-1.286-.332-2.466.697-2.514 1.914a.54.54 0 0 0-.158-.085c-1.341-.47-2.7-.91-4.064-1.307.758-2.46 1.958-5.135 4.952-5.038 2.295.075 5.052 1.197 6.534 2.99 1.592 1.925 1.526 4.74.813 7.008-.724 2.301-2.195 4.177-4.102 5.621a.738.738 0 0 0-.295.737c-.048.093-.024.224.103.265.168.274.504.425.888.212.944.213 1.876.384 2.854.515.706.092 1.413.192 2.123.295.124.01.243.03.357.048Z" fill="#fff"/><path d="M102.208 21.694c.014 2.706-.006 5.412-.027 8.118-.021 2.73-.045 5.46-.062 8.19-.01 1.345-.013 2.686-.02 4.027-.007 1.166.209 2.597-.103 3.732-.007-.23-.233-.439-.48-.467l.048-9.648c.058-6.894.14-13.767.113-21.056.096-.082.182-.178.257-.28.003-.008.007-.011.01-.018.33.97.155 2.312.189 3.252.045 1.389.072 2.767.075 4.15ZM101.986 45.765a.382.382 0 0 1-.151.319c-.724.634-1.766.957-2.63 1.358-.865.401-1.726.799-2.587 1.2-1.78.823-3.556 1.65-5.337 2.477-1.831.85-3.656 1.725-5.505 2.534-.87.381-1.742.772-2.62 1.146-.768.326-1.54.532-2.325.772a.377.377 0 0 0-.01-.124.473.473 0 0 0 .068-.113c6.73-3.132 13.466-6.256 20.195-9.388.178.37.744.347.875-.072.006-.034.02-.072.027-.11Z" fill="#5AAC93"/><path d="M101.984 45.764c-.007.038-.021.076-.031.113a.473.473 0 0 1-.875.072l.422-.195v-.069l.003-.384c.247.024.474.237.481.463ZM101.967 13.925a.372.372 0 0 1-.038.373c-.01-.03-.02-.058-.031-.085a.488.488 0 0 0 .069-.288Z" fill="#5AAC93"/><path d="m101.489 13.928-.861-.171c.295-.117.597-.192.892-.168a.58.58 0 0 1 .467.34.496.496 0 0 1-.069.287 1.93 1.93 0 0 0-.185-.377.061.061 0 0 0-.103 0 2.014 2.014 0 0 0-.13.247l-.772.33c-.36-.032-.727-.1-1.087-.172.305-.155.627-.336.953-.47.302.048.604.103.895.154Z" fill="#97E6CE"/><path d="m101.919 14.3-.01.016a1.795 1.795 0 0 1-.257.282c0-.069 0-.14-.004-.21a.376.376 0 0 0 .237-.174.25.25 0 0 1 .034.085Z" fill="#5AAC93"/><path d="M101.73 13.524c.144.078.219.24.226.4a.572.572 0 0 0-.466-.339c-.295-.024-.597.052-.892.168L85.29 10.687c-.027-.007-.054-.01-.078-.017-4.23-.882-8.266-1.719-11.291-2.27-.066-.224-.268-.402-.546-.306a.337.337 0 0 1-.055.017.22.22 0 0 1 .083-.034c.94-.2 1.917.034 2.853.182 1.136.178 2.267.397 3.403.603 2.545.467 5.08.995 7.61 1.513 2.628.538 5.255 1.084 7.882 1.626 1.146.236 2.295.46 3.43.74.998.247 2.24.282 3.149.783Z" fill="#97E6CE"/><path d="m101.657 14.041-.004.347a2.369 2.369 0 0 1-.301.034c.03-.12.072-.233.12-.34v-.003c.037-.086.082-.168.13-.247.024-.038.075-.038.103 0 .075.117.137.243.185.377a.368.368 0 0 1-.237.175c.004-.113.004-.226.004-.343ZM101.676 14.597c.027 7.288-.055 14.162-.114 21.056l.107-21.05.007-.006Z" fill="#5AAC93"/><path d="M101.652 14.388c.003.069.003.14.003.21-.003.003-.003.006-.007.006l.004-.213v-.003Z" fill="#511308"/><path d="m101.652 14.388-.003.213a2.355 2.355 0 0 1-.391.28c.024-.157.055-.311.096-.459.092-.007.182-.014.271-.027.01-.004.02-.004.027-.007Z" fill="#5AAC93"/><path d="m101.654 14.6-.106 21.05c-.028 3.196-.048 6.4-.052 9.648a.297.297 0 0 0-.123.003 3.345 3.345 0 0 0-.439.103c-.199-1.118-.007-2.449-.004-3.54.004-1.34.018-2.682.028-4.026.02-2.675.051-5.35.075-8.026.028-2.764.055-5.529.089-8.29.018-1.382.055-2.761.103-4.147.024-.723-.079-1.67.035-2.493.14-.082.274-.175.394-.281Z" fill="#5AAC93"/><path d="m101.551 35.65-.048 9.648h-.003c.003-3.248.024-6.448.051-9.648ZM101.492 45.685v.069l-.422.195c-.01-.024-.02-.048-.027-.072a4.355 4.355 0 0 1-.113-.473c.147-.045.291-.079.439-.103a.487.487 0 0 1 .123-.003v.387ZM101.483 14.08c-.24.113-.477.223-.724.332-.017 0-.031-.003-.048-.003l.772-.33Z" fill="#5AAC93"/><path d="m100.612 13.753.861.172-.895-.161a.056.056 0 0 0 .034-.01Z" fill="#511308"/><path d="M101.478 14.083a2.224 2.224 0 0 0-.12.34c-.195.013-.398.01-.6-.011.243-.11.483-.22.72-.33Z" fill="#5AAC93"/><path d="M101.351 14.422a3.919 3.919 0 0 0-.096.46c-.497.295-1.104.476-1.605.696-.799.346-1.598.69-2.4 1.029a440.86 440.86 0 0 1-5.433 2.23c-3.461 1.402-6.915 2.85-10.42 4.143a.549.549 0 0 0-.014-.316l9.837-4.202.072-.03c3.265-1.341 6.523-2.68 9.459-4.02.203.02.405.024.6.01Z" fill="#5AAC93"/><path d="M101.27 14.882c-.113.823-.011 1.773-.035 2.493a204.303 204.303 0 0 0-.102 4.147c-.035 2.761-.062 5.526-.09 8.29-.027 2.675-.055 5.35-.075 8.026-.01 1.341-.024 2.682-.028 4.027-.003 1.09-.195 2.421.004 3.54-.686.205-1.352.617-1.986.911-.916.426-1.832.855-2.747 1.28-1.777.827-3.554 1.657-5.33 2.483-1.722.803-3.458 1.585-5.17 2.411-.905.44-1.81.889-2.712 1.338-.734.363-1.39.792-2.061 1.224-.004-10.584.452-21.141.04-31.719.035-.003.07-.01.104-.017.171-.031.288-.172.329-.336 3.505-1.293 6.959-2.74 10.42-4.143a440.22 440.22 0 0 0 5.433-2.23c.802-.34 1.601-.68 2.4-1.029.505-.216 1.112-.398 1.606-.696Z" fill="#5AAC93"/><path d="M101.093 45.95c-6.729 3.13-13.465 6.255-20.195 9.387a.642.642 0 0 0 .052-.254v-.027c.672-.432 1.327-.865 2.061-1.225.902-.45 1.804-.898 2.713-1.337 1.712-.827 3.447-1.609 5.17-2.412 1.776-.826 3.552-1.656 5.33-2.483.915-.425 1.83-.854 2.746-1.28.635-.294 1.297-.706 1.986-.912a3.49 3.49 0 0 0 .137.542ZM100.708 14.409c.018.003.031.003.048.003-2.936 1.341-6.194 2.679-9.46 4.02l9.412-4.023Z" fill="#5AAC93"/><path d="m100.71 14.409-9.412 4.023-.072.03c-3.402 1.397-6.801 2.796-9.837 4.192a.356.356 0 0 0-.195-.21c-.014-.006-.028-.01-.038-.016 3.166-1.77 6.575-3.132 9.92-4.521 1.862-.775 3.72-1.55 5.573-2.346.892-.384 1.78-.772 2.662-1.17.102-.048.205-.096.312-.154.36.072.723.14 1.087.172ZM85.29 10.687l15.307 3.067c-.014.003-.024.01-.035.013-4.27-.778-9.919-1.965-15.273-3.08Z" fill="#97E6CE"/><path d="M100.573 13.767c-.326.13-.648.316-.953.47-.388-.075-.769-.161-1.136-.212-1.197-.168-2.383-.402-3.57-.635a455.42 455.42 0 0 1-7.738-1.585c-2.58-.548-5.159-1.083-7.73-1.66-1.088-.243-2.182-.473-3.27-.72-.754-.171-1.577-.298-2.301-.61a.486.486 0 0 0 .055-.402l11.288 2.264c.027.007.054.01.078.017 5.354 1.108 11.003 2.295 15.277 3.073Z" fill="#97E6CE"/><path d="M99.608 14.237c-.106.058-.209.106-.312.154-.885.398-1.773.786-2.661 1.17-1.852.799-3.715 1.57-5.574 2.346-3.344 1.392-6.753 2.75-9.919 4.52a2.513 2.513 0 0 0-.35-.127.322.322 0 0 0-.127-.037h-.007c-.514-.144-1.063-.196-1.584-.292-.871-.165-1.732-.367-2.6-.542-2.15-.428-4.298-.874-6.441-1.337-4.555-.978-9.1-1.993-13.651-2.995-1.05-.233-2.1-.473-3.156-.693-.73-.15-1.45-.339-2.195-.315 1.88-.432 3.705-1.183 5.526-1.825a217.935 217.935 0 0 1 5.477-1.835 289.473 289.473 0 0 1 11.583-3.45.427.427 0 0 0 .247-.168c.724.315 1.547.439 2.301.61 1.088.247 2.178.474 3.269.72 2.572.577 5.152 1.115 7.73 1.66 2.577.55 5.153 1.081 7.739 1.585 1.186.234 2.373.463 3.57.635.367.055.748.14 1.135.216Z" fill="#97E6CE"/><path d="m91.215 18.463-9.833 4.205c0-.007-.004-.01-.007-.014 3.039-1.396 6.438-2.792 9.84-4.191Z" fill="#5AAC93"/><path d="M85.22 10.67 73.934 8.406l-.003-.01c3.025.555 7.062 1.392 11.29 2.274Z" fill="#97E6CE"/><path d="M81.389 22.668c.034.1.037.21.013.316-.127.048-.253.096-.38.14a.362.362 0 0 1-.059.014l-.01-.281.436-.189Z" fill="#5AAC93"/><path d="M81.023 23.124c.127-.048.254-.093.38-.14-.04.16-.154.305-.329.335a1.082 1.082 0 0 1-.103.018l-.01-.196c.02-.007.038-.01.062-.017ZM81.392 22.667l-.439.189.432-.2c.007 0 .007.008.007.011Z" fill="#5AAC93"/><path d="M81.391 22.654c-.147.065-.291.134-.432.199-.003-.103-.007-.206-.014-.312.069-.041.14-.08.21-.117.013.007.027.01.037.017.1.048.165.124.2.213Z" fill="#97E6CE"/><path d="M81.147 22.427a2.49 2.49 0 0 0-.21.117v-.01a.27.27 0 0 0-.14-.237c.12.038.237.082.35.13Z" fill="#97E6CE"/><path d="M80.989 23.333c.411 10.581-.042 21.138-.042 31.72-.085.058-.175.113-.264.17a.338.338 0 0 0-.085-.044 5.488 5.488 0 0 0-.254-.089l.003-.01v-.02l.069-6.909c.14-8.05.425-16.847.274-24.794.1 0 .203-.01.299-.024Z" fill="#7FCBB4"/><path d="m80.978 23.137.01.196c-.1.014-.199.024-.298.027l-.01-.538c.006 0 .013.003.02.003-.017.158.103.336.278.312Z" fill="#7FCBB4"/><path d="M80.952 22.856c.007.096.01.189.01.281-.175.024-.295-.154-.281-.315.092.014.181.024.267.034h.004Z" fill="#7FCBB4"/><path d="M80.941 22.544c.007.103.01.206.014.312l-.003.004-.264-.059a.258.258 0 0 1 .123-.181c.041-.028.086-.052.13-.076Z" fill="#97E6CE"/><path d="m80.683 22.801.264.058c-.085-.01-.175-.02-.267-.034.003-.01.003-.017.003-.024Z" fill="#7FCBB4"/><path d="m80.652 22.54-.004.25-.28-.061v-.195c-.004-.192.15-.282.294-.275h.007c.041.014.086.024.127.038.075.041.137.12.14.236v.01a4.626 4.626 0 0 1-.13.073.239.239 0 0 0-.123.182l-.024-.007c-.004-.082-.004-.165-.007-.25Z" fill="#97E6CE"/><path d="M80.944 55.056v.027c0 .096-.02.182-.052.254l-.089.041a.376.376 0 0 0-.123-.15c.089-.06.178-.117.264-.172Z" fill="#5AAC93"/><path d="m80.79 55.378.088-.041a.47.47 0 0 1-.068.113.248.248 0 0 0-.02-.072Z" fill="#511308"/><path d="M80.82 55.447c.011.04.014.082.011.123l-.295.093a.126.126 0 0 1-.106-.007.584.584 0 0 0 .39-.21Z" fill="#7FCBB4"/><path d="M80.525 55.662c.1-.03.199-.061.295-.092-.01.164-.124.312-.336.298-1.87-.117-3.667-.363-5.512-.703-4.418-.813-8.832-1.622-13.219-2.576-2.085-.453-4.17-.912-6.215-1.53-1.286-.387-2.627-.758-3.804-1.426.028-.103.052-.203.076-.302 5.93 2.17 21.632 4.791 27.994 6.05.124.216.381.305.618.278a.13.13 0 0 0 .103.003Z" fill="#7FCBB4"/><path d="M80.8 55.378c.01.024.017.048.02.072a.584.584 0 0 1-.39.21c-.06-.031-.087-.103-.076-.168.048.01.096.02.144.027.1-.048.199-.093.302-.14Z" fill="#7FCBB4"/><path d="m80.797 55.378-.305.144-.14-.03a.147.147 0 0 1 .065-.1l.257-.165a.376.376 0 0 1 .123.151Z" fill="#7FCBB4"/><path d="M80.68 22.263a.338.338 0 0 1 .127.038c-.042-.014-.083-.024-.127-.038Z" fill="#97E6CE"/><path d="m80.68 22.795.026.007c-.004.008-.004.019-.004.026-.007 0-.015-.004-.022-.004v-.03Z" fill="#511308"/><path d="M80.673 23.36c.15 7.947-.137 16.741-.275 24.795l.25-24.792c.008-.003.018-.003.025-.003Z" fill="#7FCBB4"/><path d="M80.68 23.36c-.007.004-.017.004-.024.004l.007-.542c.004 0 .007 0 .01.003 0 .175.004.354.007.535Z" fill="#7FCBB4"/><path d="M80.669 22.263c-.148-.01-.299.082-.295.274v.196l-29.15-6.284-.031-.158c-.025-.11-.086-.171-.162-.199.007-.003.01-.003.017-.003.741-.024 1.465.165 2.195.316 1.053.216 2.103.46 3.156.692 4.551 1.005 9.096 2.017 13.65 2.995 2.144.46 4.292.909 6.442 1.337.868.172 1.729.378 2.6.542.514.096 1.063.148 1.578.292Z" fill="#97E6CE"/><path d="m80.666 55.224-.257.165a.137.137 0 0 0-.065.1l-.549-.12a.612.612 0 0 1-.068-.286v-.188c.198.065.4.13.596.199.086.027.172.058.254.089.035.01.065.024.09.041Z" fill="#7FCBB4"/><path d="M80.667 22.794v.03c-.003-.004-.007-.004-.01-.004l.003-.03.007.005Z" fill="#511308"/><path d="M80.656 22.54c.004.083.004.169.007.254l-.007-.003v-.25Z" fill="#7FCBB4"/><path d="m80.652 22.795-.004.027c-.092-.014-.185-.024-.28-.038v-.051l.284.062Z" fill="#97E6CE"/><path d="m80.648 22.818-.006.542a7.384 7.384 0 0 1-.275.003v-.583c.096.014.192.028.281.038Z" fill="#7FCBB4"/><path d="m80.646 23.36-.25 24.791a402.967 402.967 0 0 0-.07 6.908v.02l-.003.01c-.199-.068-.397-.133-.596-.198.02-10.513.63-21.018.644-31.53.093.006.186.006.275 0Z" fill="#7FCBB4"/><path d="M80.496 55.519c-.048-.01-.096-.02-.144-.027l.003-.004.14.03ZM80.413 48.155l-.069 6.908c-.003-2.209.027-4.527.069-6.908Z" fill="#511308"/><path d="M80.43 55.66c-.237.03-.494-.062-.618-.278.19.037.37.072.542.11a.157.157 0 0 0 .076.167ZM80.39 22.78v.584c-.622-.017-1.26-.165-1.856-.247-1.03-.148-2.055-.285-3.077-.477-4.606-.857-9.178-1.872-13.74-2.936-2.144-.5-4.28-1.032-6.41-1.584-1.252-.33-2.758-.556-3.969-1.153a12.46 12.46 0 0 0-.096-.494c6.229 1.606 22.648 5.406 29.147 6.308Z" fill="#7FCBB4"/><path d="M80.38 22.733v.051c-6.5-.902-22.918-4.702-29.147-6.314a.049.049 0 0 0-.006-.02l29.153 6.283Z" fill="#97E6CE"/><path d="m80.33 55.488-.542-.106a.026.026 0 0 1-.007-.014l.549.12Z" fill="#7FCBB4"/><path d="M79.792 55.368c.004.006.007.01.007.013-6.359-1.258-22.06-3.879-27.994-6.05.007-.027.013-.055.017-.079l27.97 6.116ZM79.795 55.367l-27.967-6.115c.017-.072.031-.144.045-.213 1.632.292 3.234.741 4.856 1.08 4.36.91 8.709 1.843 13.082 2.68 3.313.634 6.702 1.073 9.92 2.095v.189c-.004.11.02.206.064.284Z" fill="#7FCBB4"/><path d="M80.376 23.364c-.017 10.512-.628 21.015-.645 31.53-3.217-1.022-6.603-1.464-9.92-2.095-4.376-.84-8.722-1.77-13.08-2.679-1.623-.34-3.225-.789-4.858-1.08.316-1.557.299-3.156.323-4.761.034-2.322.007-4.647-.014-6.97-.041-4.904.007-9.86-.336-14.755-.13-1.848-.189-3.755-.518-5.587 1.21.597 2.717.823 3.968 1.152 2.13.556 4.264 1.088 6.41 1.585 4.563 1.063 9.135 2.082 13.74 2.936 1.023.192 2.049.33 3.078.477.596.082 1.234.23 1.852.247Z" fill="#7FCBB4"/><path d="M73.495 8.544c-.024.006-.051.017-.075.024a.516.516 0 0 1-.059-.035c-.147-.092-.16-.326-.024-.422.018-.006.038-.01.055-.017.278-.096.48.083.546.305-.155-.027-.302-.054-.453-.082l.453.093a.484.484 0 0 1-.055.401 3.734 3.734 0 0 1-.467-.24l.08-.027Z" fill="#97E6CE"/><path d="M73.942 8.4c0 .003.003.006.003.01l-.453-.093.45.082Z" fill="#511308"/><path d="M73.888 8.81a.439.439 0 0 1-.247.169 295.186 295.186 0 0 0-11.583 3.45 218.21 218.21 0 0 0-5.477 1.835c-1.822.642-3.643 1.39-5.526 1.825-.007-.004-.017 0-.024 0a.32.32 0 0 0-.14-.01l22.53-7.512c.148.093.306.175.467.244Z" fill="#97E6CE"/><path d="m73.483 8.543-.073.024c-.004 0-.004-.003-.004-.003.028-.003.052-.014.076-.02Z" fill="#511308"/><path d="m73.408 8.571-22.531 7.511a.211.211 0 0 0-.079.024c-.003.004-.01.004-.014.004-.013.003-.024.003-.034.007 8.263-3.228 14.159-4.94 22.658-7.546-.004 0-.004-.003 0 0Z" fill="#97E6CE"/><path d="M73.342 8.533c.02.014.038.024.058.035-8.496 2.61-14.395 4.321-22.658 7.545a.238.238 0 0 0-.085.035l-.086.034.069-.024c-.01.007-.021.014-.028.024a.57.57 0 0 0-.038.01c-.01.004-.017-.013-.006-.017 1.752-1.07 3.759-1.746 5.69-2.439 1.814-.651 3.639-1.275 5.47-1.876 3.859-1.269 7.748-2.435 11.593-3.742-.14.09-.127.323.02.415Z" fill="#97E6CE"/><path d="M52.177 37.306c.017 2.322.048 4.648.014 6.97-.02 1.605-.007 3.203-.323 4.76-.089-.017-.178-.03-.27-.048.024-7.645-.203-24.828-.676-32.244.127.079.26.151.398.216.332 1.835.387 3.739.518 5.587.346 4.898.295 9.858.34 14.76Z" fill="#7FCBB4"/><path d="M51.88 49.036a3.8 3.8 0 0 1-.044.213l-.227-.051v-.21c.09.018.182.035.271.048ZM51.61 49.2l.226.052c-.007.028-.014.055-.017.08-.072-.028-.141-.052-.206-.08-.004-.017-.004-.034-.004-.051Z" fill="#7FCBB4"/><path d="M51.819 49.331c-.024.1-.048.202-.076.302a2.711 2.711 0 0 1-.134-.079c.004-.1.004-.199.004-.302.068.028.137.052.206.08ZM50.916 16.744c.473 7.416.7 24.6.675 32.244l-.013-.003-.68-32.251c.007.003.01.007.018.01Z" fill="#7FCBB4"/><path d="M51.608 48.992v.209l-.01-.004-.004-.209c.003 0 .01.004.014.004Z" fill="#511308"/><path d="M51.608 49.2v.053c-.004 0-.007-.004-.01-.004l-.004-.052.014.004Z" fill="#511308"/><path d="M51.608 49.253c0 .103 0 .202-.004.302l-.003-.004-.007-.305c.007.007.01.007.014.007Z" fill="#511308"/><path d="m51.596 49.25.007.305c-.058-.035-.117-.069-.178-.11a4.322 4.322 0 0 1-.066-.288c.08.03.158.062.237.093Z" fill="#7FCBB4"/><path d="m51.596 49.201.004.052-.237-.093c-.004-.003-.004-.007-.004-.01l.237.051ZM51.587 48.989l.003.209-.236-.051a1.913 1.913 0 0 1-.041-.203l.034.003.24.042Z" fill="#7FCBB4"/><path d="m50.913 16.737.679 32.25a5.067 5.067 0 0 0-.24-.037c-.01-.003-.024-.003-.035-.003-.343-1.804-.295-3.674-.346-5.519-.137-4.877-.165-9.758-.271-14.635-.052-2.329-.12-4.654-.154-6.983-.028-1.756-.09-3.55.048-5.31a.228.228 0 0 0 .072.069c.079.062.16.113.247.168Z" fill="#7FCBB4"/><path d="M51.344 49.15c-.003.003-.003.007.004.01-.02-.007-.038-.017-.059-.024l.055.014Z" fill="#511308"/><path d="M51.224 16.47c.035.164.069.329.096.494a6.276 6.276 0 0 1-.398-.216c-.01-.124-.017-.244-.024-.36.107.023.213.05.326.082Z" fill="#7FCBB4"/><path d="M51.22 16.45a.048.048 0 0 1 .008.02c-.114-.027-.22-.058-.326-.082h-.004v-.007l.323.069Z" fill="#7FCBB4"/><path d="m50.906 16.38-.113-.023.113.03.007.35c-.083-.054-.168-.106-.247-.164a.343.343 0 0 1-.072-.069l.01-.134a.326.326 0 0 1 .106-.209c.107-.02.213-.045.323-.069.075.028.137.093.161.2.01.05.024.102.03.157l-.318-.068Z" fill="#7FCBB4"/><path d="M51.04 16.089c-.007.004-.01.004-.017.004-.004-.004-.004-.004-.007-.004.007 0 .017-.003.024 0Z" fill="#511308"/><path d="M51.01 16.09c.004.003.008.003.008.003a8.523 8.523 0 0 1-.323.068c.024-.024.052-.038.08-.051l.02-.007c.075-.007.147-.014.216-.014Z" fill="#7FCBB4"/><path d="M51.025 16.09c-.072.003-.14.006-.212.013l.072-.024a.318.318 0 0 1 .14.01Z" fill="#97E6CE"/><path d="m50.922 16.744-.017-.01-.007-.35h.004c.003.12.01.24.02.36Z" fill="#7FCBB4"/><path d="M50.902 16.38v.008l-.113-.031.113.024ZM50.888 16.079l-.073.024h-.01a.279.279 0 0 1 .083-.024ZM50.803 16.103l-.022.007a.027.027 0 0 1 .015-.007h.007Z" fill="#511308"/><path d="M50.818 16.103c-.003.003-.01.003-.013.007l-.14.048c.006-.007.01-.01.016-.01.031-.01.059-.024.086-.035a.122.122 0 0 1 .034-.006c.007 0 .014 0 .017-.004Z" fill="#511308"/><path d="m50.649 16.158.14-.048a.283.283 0 0 0-.078.052.764.764 0 0 1-.086.017.048.048 0 0 1 .024-.02Z" fill="#97E6CE"/><path d="m50.766 16.113-.086.035a.175.175 0 0 1 .086-.035Z" fill="#97E6CE"/><path d="M50.632 16.178c.028-.007.058-.01.086-.017a.304.304 0 0 0-.107.21l-.01.133a.25.25 0 0 1 .031-.326Z" fill="#7FCBB4"/><path d="M50.65 16.147c-.008.003-.011.007-.018.01l-.07.025a1.53 1.53 0 0 1 .087-.035Z" fill="#511308"/><path d="M72.633 37.186c.641 2.003.62 4.528-1.091 6.002-1.602 1.386-4.013 1.578-6.04 1.386-2.168-.206-4.459-1.032-5.491-3.094-.433-.86-.985-1.752-.525-2.716.46-.968 1.235-1.86 2-2.59a.286.286 0 0 1 .209-.089c.137 0 .27.1.326.223.483.336.82.882 1.265 1.269.59.515 1.307.882 2.11.782 1.848-.23 1.673-2.301.216-2.998-.837-.4-1.787-.312-2.682-.212-.275.03-.532.044-.755-.045a.805.805 0 0 1-.346-.274c-.68-.885-.6-2.727-.278-3.725a.653.653 0 0 1 .096-.182.71.71 0 0 1 .055-.13c.12-.216.322-.419.497-.59.103-.103.21-.206.319-.312-.213-.048-.422-.103-.614-.134-.885-.154-1.794-.278-2.518-.844-.116-.089-.13-.216-.085-.332a4.197 4.197 0 0 1-.206-.878 6.93 6.93 0 0 1-.1-.913 17.34 17.34 0 0 1-.02-.604c-.052-.812-.082-1.687.134-2.452.048-.165.25-.24.394-.192.007 0 .014-.007.02-.01a.28.28 0 0 1 .251-.083c.837-.23 1.88.066 2.69.172 1.13.147 2.249.367 3.37.593 1.215.247 2.429.508 3.633.8.874.212 2.037.236 2.459 1.11a.36.36 0 0 1 .226.207c.529 1.183.35 2.97.151 4.225-.044.274-.315.487-.562.563-.034.01-.065.017-.096.024-.244.298-.635.48-.974.658-.374.196-.741.443-1.122.642.58.456 1.098 1.118 1.42 1.536.73.964 1.297 2.058 1.664 3.207Zm-3.537 5.817c2.56-.772 2.834-3.172 2.192-5.447a9.91 9.91 0 0 0-1.358-2.874c-.34-.5-.72-.946-1.118-1.4-.292-.332-.648-.62-.724-1.066a.28.28 0 0 1 .007-.12.559.559 0 0 1 .192-.466c.511-.453 1.218-.7 1.842-.964.192-.079.394-.168.603-.227-.003-.03-.01-.065-.013-.096-.083-.95-.059-2.352.319-3.378-.645.027-1.355-.298-1.983-.453a168.96 168.96 0 0 0-3.46-.816c-1.156-.257-2.32-.484-3.471-.758-.618-.147-1.4-.223-2.045-.487.059.374.138.758.161 1.115.035.59.09 1.166.148 1.752.017.182.048.535 0 .85.583-.026 1.183.08 1.753.162.75.103 1.852-.007 2.236.768.024.048.038.097.051.145.227.27.285.703-.003 1.028-.364.409-.906.755-1.379 1.03-.15.089-.326.178-.5.246-.097.56-.193 1.098-.158 1.67.013.244-.024.673.123.851.175.206.154.148.45.11.905-.117 1.731-.26 2.633.007 1.383.411 2.556 1.746 2.278 3.258-.268 1.472-1.811 2.15-3.183 1.876-1.132-.226-2.545-1.327-2.919-2.53-.422.356-.816.74-1.17 1.172-.212.26-.421.532-.582.83-.247.46-.134.6.15 1.098.584 1.005 1.438 1.992 2.446 2.586 1.838 1.067 4.473 1.135 6.482.528Z" fill="#5AAC93"/><path d="M71.288 37.557c.641 2.274.363 4.675-2.192 5.446-2.006.604-4.644.539-6.482-.538-1.009-.594-1.863-1.581-2.446-2.586-.285-.494-.394-.638-.15-1.098.157-.298.366-.57.582-.83a9.452 9.452 0 0 1 1.17-1.173c.374 1.204 1.787 2.305 2.919 2.531 1.372.275 2.912-.4 3.183-1.876.274-1.512-.9-2.846-2.278-3.258-.902-.268-1.728-.124-2.634-.007-.295.038-.274.1-.45-.11-.147-.178-.11-.607-.123-.85-.034-.573.065-1.112.158-1.67.175-.066.35-.159.5-.248.474-.274 1.016-.62 1.38-1.029.288-.325.23-.754.003-1.029a.606.606 0 0 0-.052-.144c-.384-.775-1.485-.665-2.236-.768-.57-.079-1.17-.189-1.752-.161.048-.316.02-.665 0-.85a33.288 33.288 0 0 1-.148-1.753c-.02-.357-.103-.738-.161-1.115.645.264 1.427.34 2.044.487 1.153.274 2.312.504 3.471.758 1.16.257 2.308.535 3.46.816.629.155 1.338.48 1.983.453-.377 1.029-.401 2.428-.319 3.378a.817.817 0 0 0 .014.097c-.21.061-.412.147-.604.226-.624.264-1.33.51-1.841.964a.563.563 0 0 0-.193.466.275.275 0 0 0-.006.12c.079.446.432.734.723 1.067.398.453.779.898 1.118 1.4.6.898 1.067 1.851 1.359 2.884Z" fill="#fff"/></g><defs><clipPath id="a"><path fill="#fff" d="M0 0h129v90H0z"/></clipPath></defs></svg>