<svg width="182" height="94" fill="none" xmlns="http://www.w3.org/2000/svg"><g clip-path="url(#a)"><path d="M103.148 91.248s9.603-30.334-10.524-45.199c-4.237-3.128-7.923-4.602-16.83-4.57-9.487.036-18.024 8.931-21.378 14.957-6.214 11.165-11.361 34.812-11.361 34.812h60.093Z" fill="#7FCBB4"/><path d="M91.802 91.224a.423.423 0 0 1-.424-.425V73.517c-.004-.081-.537-10.376-1.977-14.384a.422.422 0 0 1 .258-.545.422.422 0 0 1 .543.258c1.487 4.128 2.006 14.226 2.03 14.653v17.304c0 .237-.19.424-.423.424l-.007-.003ZM60.488 88.47a.424.424 0 0 1-.42-.378c-.102-.887-2.514-21.827-1.137-29.185a.427.427 0 0 1 .837.159c-1.355 7.23 1.123 28.715 1.148 28.931a.428.428 0 0 1-.375.474H60.488Z" fill="#5AAC93"/><path d="M70.23 45c-2.133 2.424-3.492 9.842.398 10.04 9.148.47 12.336-11.967 9.886-12.758-5.6-1.814-10.284 2.717-10.284 2.717Z" fill="#F1F2F2"/><path d="M69.838 38.797c0 .947-.554 6.99 1 7.853 4.547 2.523 9.68-2.757 9.68-4.365v-5.188L69.842 38.8l-.004-.003Z" fill="#FBAE96"/><path d="M62.538 15.057c-.445-4.623-3.146-8.482-5.48-6.545-2.333 1.936-5.002 3.976-4.434 6.545.318 1.439 7.8 3.789 7.8 3.789l2.114-3.789Z" fill="#574D4A"/><path d="M57.934 19.567a.426.426 0 0 1-.268-.756c1.486-1.199 2.21-2.478 2.21-3.91a.423.423 0 1 1 .847 0c0 1.683-.851 3.22-2.528 4.574a.42.42 0 0 1-.265.095l.004-.003Z" fill="#DE501D"/><path d="M59.263 26.042c-1.479.332-2.573.713-3.18.11-.608-.609 0-2.174 0-2.174l1.952-.315 1.228 2.379Z" fill="#82512B"/><path d="M86.595 27.614C85.19 37.316 78.965 45 70.231 45c-6.453 0-10.715-3.234-11.414-9.846-.162-1.538.148-3.672.032-4.573-.194-1.517-1.31-3.199-1.31-4.79 0-9.7 8.332-14.355 17.067-14.355 8.734 0 13.38 6.58 11.99 16.18Z" fill="#FBAE96"/><path d="M67.837 28.487c-.035-.314.71-.947 1.73-.706 1.017.24 1.772.96 1.44 1.159-.331.198-1.076-.417-1.726-.343-.65.07-1.416.113-1.44-.11h-.004ZM62.789 28.671c.035-.314-.71-.947-1.73-.707-1.017.24-1.773.962-1.44 1.16.331.198 1.076-.417 1.726-.343.65.074 1.415.113 1.44-.11h.004Z" fill="#37231B"/><path d="M66.534 22.532c7.435-.728 7.856 2.273 9.981 5.082 2.129 2.81 7.34 2.27 9.734 1.891.815-.127 2.047-5.435 1.709-8.606-.251-2.35-.114-6.669-4.95-9.185C78.17 9.198 76.49 8.632 71.79 9.505c-4.695.873-9.797 13.472-5.26 13.027h.003Z" fill="#574D4A"/><path d="M79.188 15.35c.444-4.622 4.967-8.556 7.304-6.619 2.337 1.937 4.523 7.44 3.312 8.28-1.211.842-8.502 2.128-8.502 2.128l-2.115-3.788Z" fill="#574D4A"/><path d="M82.027 19.263c-2.059 0-2.906-1.262-3.189-1.856-.494-1.035-.44-2.3.12-2.82a.424.424 0 1 1 .576.626c-.198.184-.321 1.014.067 1.827.297.622 1.098 1.619 3.135 1.318a.427.427 0 0 1 .124.845c-.3.042-.58.064-.837.064l.004-.004Z" fill="#503E38"/><path d="M55.528 25.678c2.482 3.226 3.453-5.553 10.351-3.874 2.694.654.58-3.969 3.146-5.76 2.563-1.793 6.651-5.8 2.203-6.38-4.448-.58-10.472 1.993-12.145 4.743-.745 1.223-2.284 2.856-2.507 5.061-.296 2.976-1.761 5.28-1.045 6.21h-.003Z" fill="#574D4A"/><path d="M63.82 39.012s.774 1.782 2.835 1.891c2.062.11 2.433-1.873 2.433-1.873-1.815.618-3.386.746-5.268-.018Z" fill="#F1F2F2"/><path d="M69.345 30.954c-.36.134-.724.714-.55 1.57.172.851.811 1.226 1.21.968.4-.258.685-1.453.435-1.951-.251-.498-.865-.672-1.098-.583l.003-.004ZM61.277 30.968c-.353.149-.695.742-.487 1.59.208.845.858 1.192 1.25.92.392-.276.625-1.478.356-1.966-.268-.487-.893-.636-1.119-.54v-.004Z" fill="#372313"/><path d="M74.532 19.076c-.879-1.018-2.524-1.29-3.745-.817-.297.117-.174.594.134.485 1.119-.4 2.397-.135 3.244.7.24.236.586-.117.367-.368ZM76.212 14.379c-1.5-.36-2.884-.184-4.261.498-.297.149-.035.59.261.446 1.271-.619 2.49-.714 3.866-.45.321.064.463-.416.138-.494h-.004ZM82.227 24.027c-.883.29-1.985-.643-1.95-1.548.015-.325-.48-.321-.5 0-.078 1.202 1.404 2.51 2.587 2.047.3-.12.184-.605-.137-.499ZM61.593 17.026c-.858-.081-1.72.205-2.22.94-.188.272-.28.583-.379.894-.144.456-.3.665-.801.71-.325.032-.335.51 0 .517.741.01 1.105-.425 1.317-1.085.123-.39.24-.74.554-1.025.417-.382.985-.485 1.532-.453.325.018.315-.47 0-.498h-.003ZM65.718 12.584c-.569-.145-.95-.563-1.579-.485-.586.075-1.052.485-1.412.926-.204.251.134.615.364.364.346-.37.773-.816 1.33-.763.414.039.753.367 1.162.449.318.063.456-.41.135-.491Z" fill="#52413C"/><path d="M70.228 45.282a.283.283 0 0 1 0-.565c2.471 0 4.53-.478 6.111-1.418a.283.283 0 1 1 .29.488c-1.67.993-3.824 1.495-6.401 1.495Z" fill="#C48976"/><path d="M71.828 91.344c0-4.542 6.337-13.377 17.97-13.377 11.634 0 17.593.813 17.593.813v12.394l-35.563.17Z" fill="#7FCBB4"/><path d="M71.627 81.169a.427.427 0 0 1-.152-.823c3.62-1.386 17.258-2.835 20.33-2.796.236 0 .423.194.42.43 0 .234-.195.421-.424.421h-.007c-2.941-.042-16.555 1.414-20.011 2.74a.46.46 0 0 1-.152.028h-.004Z" fill="#5AAC93"/><path d="M21.8 85.086h43.667a4.659 4.659 0 0 1 4.654 4.659v.723H21.797v-5.385l.003.003Z" fill="#566FA6"/><path d="M59.557 90.47H11.473l-3.16-35.772c-.182-1.032.268-1.983 1.303-1.983h45.042c.803 0 1.493.584 1.635 1.387l3.264 36.369Z" fill="#6683C2"/><path d="M35.635 66.17c.128 1.983-1.259 3.686-3.096 3.805-1.837.118-3.432-1.391-3.562-3.375-.13-1.983 1.26-3.687 3.097-3.805 1.837-.119 3.431 1.39 3.561 3.374Z" fill="#DBDBDB"/><path d="M203 89H5a5 5 0 0 0 0 10h198a5 5 0 0 0 0-10Z" fill="#DCBFA3"/><path d="M110.191 53.712c-.573 4.426-4.832 7.415-9.234 6.717-4.402-.697-7.407-4.838-6.707-9.244.696-4.406 4.833-7.415 9.234-6.714 4.402.7 7.135 5.94 6.711 9.244l-.004-.003Z" fill="#FCDCB5"/><path d="M122.433 70.803c1.061 9.935 1.293 19.674-11.998 19.674-10.134 0-12.837-7.481-12.28-18.924.547-11.233 3.828-22.892 9.951-19.966 6.787 3.24 13.252 9.191 14.327 19.216Z" fill="#FCDCB5"/><path d="M99.872 60.13a.381.381 0 0 1-.328-.571c2.398-4.17 4.916-5.428 7.5-6.448 2.67-1.052 3.539-.495 3.688-.372l-.487.588s.006.007.02.013c-.007-.003-.69-.408-2.939.478-2.452.967-4.843 2.162-7.119 6.12a.38.38 0 0 1-.331.193h-.004Z" fill="#5AAC93"/><path d="M130.268 110.437h-.093a2.073 2.073 0 0 1-1.98-2.162c0-.036.163-3.861-.03-7.949-.332-7.023-1.552-8.251-2.491-8.743-1.393-.67-7.085-1.56-12.532-2.032a2.072 2.072 0 0 1-1.884-2.245 2.071 2.071 0 0 1 2.242-1.886c2.896.252 12.539 1.179 15.123 2.564 1.36.727 2.272 2.327 2.869 5.037.382 1.723.647 3.955.79 6.631.238 4.463.059 8.63.053 8.806a2.074 2.074 0 0 1-2.07 1.982l.003-.003ZM95.618 51.026l-2.67-3.444a.531.531 0 0 1 .471-.853l4.276.431-2.076 3.866ZM105.563 45.57l-1.529-3.234a.313.313 0 0 0-.59 0l-1.35 2.905 3.469.326v.003ZM101.77 71.587a2.59 2.59 0 0 1-2.255-2.673c.08-1.913-.86-2.922-1.662-3.434-1.012-.644-1.977-.624-2.23-.508a2.587 2.587 0 0 1-3.605-.478 2.584 2.584 0 0 1 .461-3.626c1.855-1.435 4.847-1.498 7.447-.153 3.131 1.617 4.909 4.765 4.757 8.418a2.583 2.583 0 0 1-2.913 2.454ZM105.818 86.566c-.544 0-9.4-.528-9.427 1.886-.03 2.414 1.135 1.982 4.379 1.982 3.244 0 8.349.03 8.349.03l-3.301-3.898Z" fill="#FCDCB5"/></g><defs><clipPath id="a"><path d="M0 0h182v84c0 5.523-4.477 10-10 10H0V0Z" fill="#fff"/></clipPath></defs></svg>