<svg width="115" height="95" fill="none" xmlns="http://www.w3.org/2000/svg"><g clip-path="url(#a)"><path d="M70.303 49.846c.016 3.158-.008 6.312-.032 9.47-.025 3.186-.053 6.373-.073 9.559l-.024 4.694c-.008 1.36.242 3.033-.121 4.356-.008-.266-.27-.512-.56-.544l.056-11.18c.068-8.066.165-16.109.133-24.639.113-.1.213-.21.298-.33l.012-.02c.383 1.133.178 2.698.218 3.795.053 1.617.085 3.226.093 4.84Z" fill="#511308"/><path d="M70.054 77.93a.454.454 0 0 1-.173.37c-.847.739-2.057 1.118-3.07 1.586-1.004.468-2.012.931-3.016 1.4-2.077.96-4.15 1.923-6.227 2.887-2.138.992-4.267 2.013-6.425 2.956-1.016.444-2.033.9-3.057 1.335-.896.38-1.795.621-2.715.9a.444.444 0 0 0-.012-.145.733.733 0 0 0 .081-.134l23.562-10.95a.551.551 0 0 0 1.02-.084c.008-.037.02-.081.032-.121Z" fill="#556FA7"/><path d="m70.057 77.93-.037.133a.551.551 0 0 1-1.02.084c.165-.076.33-.153.492-.23v-.08l.004-.448c.29.028.553.27.56.54ZM70.03 40.78a.448.448 0 0 1-.044.44c-.013-.032-.025-.069-.037-.1a.58.58 0 0 0 .08-.34Z" fill="#511308"/><path d="m69.455 40.784-1.005-.202c.347-.137.694-.226 1.04-.197.23.02.457.181.545.395a.58.58 0 0 1-.08.339 2.38 2.38 0 0 0-.218-.444.068.068 0 0 0-.117 0 2.43 2.43 0 0 0-.153.286l-.9.383c-.42-.036-.847-.116-1.27-.201.355-.182.734-.395 1.113-.549.359.069.706.13 1.045.19ZM69.99 41.22l-.012.02c-.088.121-.185.23-.298.33 0-.08 0-.16-.004-.245a.439.439 0 0 0 .278-.202c.012.028.028.065.036.097Z" fill="#511308"/><path d="M69.777 40.312a.554.554 0 0 1 .263.468.683.683 0 0 0-.545-.395c-.347-.028-.694.06-1.04.198l-17.86-3.578c-.032-.008-.06-.012-.092-.02-4.933-1.029-9.643-2.005-13.172-2.65-.077-.262-.31-.468-.634-.359L36.63 34a.256.256 0 0 1 .1-.044c1.094-.234 2.24.04 3.332.214 1.327.21 2.646.464 3.965.706 2.968.544 5.924 1.161 8.88 1.766 3.066.625 6.131 1.267 9.192 1.9 1.335.274 2.678.536 4.005.863 1.166.286 2.618.327 3.674.907Z" fill="#86A3E2"/><path d="M69.473 40.962c.045-.101.093-.198.154-.287a.068.068 0 0 1 .117 0c.088.138.161.287.218.444a.44.44 0 0 1-.279.202c0-.133 0-.27-.004-.404l-.004.404a2.75 2.75 0 0 1-.35.04c.044-.137.092-.27.148-.4ZM69.676 41.566c.036 8.53-.064 16.573-.133 24.639l.121-24.635c.008 0 .012 0 .012-.004Z" fill="#511308"/><path d="M69.68 41.32c.004.085.004.166.004.246l-.008.008.004-.25c-.004 0 0-.004 0-.004Z" fill="#511308"/><path d="M69.676 40.917c.004.138.004.27.004.404 0 0-.004.004-.004 0v-.404Z" fill="#511308"/><path d="m69.679 41.32-.004.25a2.72 2.72 0 0 1-.46.331c.028-.185.06-.367.109-.54.105-.008.21-.017.314-.033.016 0 .029-.004.04-.008Z" fill="#511308"/><path d="m69.677 41.575-.12 24.634c-.033 3.707-.057 7.417-.057 11.18a.352.352 0 0 0-.145.004 4.7 4.7 0 0 0-.513.117c-.23-1.303-.008-2.855-.004-4.13.004-1.565.02-3.13.033-4.694.028-3.122.06-6.244.088-9.365.033-3.227.06-6.45.105-9.672.02-1.613.065-3.222.121-4.836.028-.843-.093-1.948.04-2.908.158-.1.315-.205.452-.33Z" fill="#511308"/><path d="m69.553 66.205-.057 11.18h-.004c.004-3.763.028-7.474.06-11.18ZM69.496 77.385l-.004.447c0-.149 0-.298.004-.447-.004 0-.004 0 0 0ZM69.49 77.833v.08l-.493.23a.414.414 0 0 1-.032-.085 4.82 4.82 0 0 1-.133-.552c.17-.052.343-.093.512-.117a.579.579 0 0 1 .145-.004v.448ZM69.466 40.961c-.278.133-.557.263-.843.392-.02 0-.036-.004-.057-.004l.9-.388ZM68.45 40.583l1.005.201c-.339-.06-.69-.12-1.045-.185l.04-.016Z" fill="#511308"/><path d="M69.468 40.966a2.605 2.605 0 0 0-.141.4c-.23.015-.464.011-.702-.013.286-.13.565-.258.843-.387Z" fill="#511308"/><path d="M69.323 41.36a3.884 3.884 0 0 0-.11.541c-.576.347-1.286.557-1.87.811-.932.407-1.864.803-2.804 1.198a508.14 508.14 0 0 1-6.336 2.601c-4.033 1.638-8.066 3.328-12.156 4.832a.632.632 0 0 0-.016-.367l11.47-4.904.085-.037c3.808-1.565 7.61-3.125 11.035-4.69.238.028.472.032.702.016Z" fill="#511308"/><path d="M69.211 41.901c-.133.96-.012 2.065-.04 2.908-.057 1.614-.101 3.223-.121 4.836-.04 3.226-.073 6.449-.105 9.671-.028 3.122-.06 6.244-.089 9.365-.012 1.565-.028 3.13-.032 4.695-.004 1.27-.226 2.823.004 4.13-.799.242-1.573.722-2.315 1.065-1.069.496-2.138.996-3.202 1.492-2.073.964-4.146 1.932-6.22 2.896-2.008.935-4.033 1.847-6.029 2.815-1.057.512-2.11 1.037-3.166 1.56-.855.424-1.621.928-2.404 1.433-.004-12.346.529-24.667.049-37.009.04-.008.08-.012.117-.02.201-.036.334-.201.383-.391 4.09-1.508 8.119-3.198 12.156-4.832 2.117-.859 4.23-1.718 6.336-2.601.935-.395 1.871-.795 2.803-1.198.589-.258 1.294-.468 1.875-.815Z" fill="#556FA7"/><path d="M68.967 78.058c.008.029.02.057.032.085l-23.561 10.95a.736.736 0 0 0 .06-.294v-.033c.787-.504 1.549-1.008 2.404-1.431a285.961 285.961 0 0 1 3.166-1.561c1.996-.964 4.02-1.88 6.03-2.815 2.072-.964 4.145-1.932 6.218-2.896 1.07-.496 2.138-.996 3.203-1.492.742-.347 1.516-.823 2.315-1.065.032.19.076.375.133.552Z" fill="#556FA7"/><path d="M68.568 41.349c.02.004.036.004.056.004-3.424 1.564-7.227 3.125-11.034 4.69l10.978-4.694ZM68.562 41.349l-10.979 4.694-.084.037c-3.969 1.629-7.938 3.258-11.479 4.888a.43.43 0 0 0-.23-.246c-.016-.008-.032-.012-.044-.02 3.694-2.065 7.675-3.65 11.571-5.276 2.17-.903 4.344-1.807 6.502-2.738 1.04-.448 2.077-.9 3.105-1.367.117-.053.238-.113.363-.178.428.089.855.165 1.275.206ZM50.59 37.005l17.859 3.577c-.016.004-.029.012-.04.016-4.982-.911-11.572-2.29-17.82-3.593Z" fill="#511308"/><path d="M68.413 40.599c-.379.153-.758.367-1.113.548-.451-.089-.895-.185-1.322-.25-1.4-.198-2.783-.468-4.167-.738a542.273 542.273 0 0 1-9.03-1.851c-3.009-.638-6.017-1.267-9.018-1.94-1.27-.282-2.541-.553-3.811-.84-.88-.2-1.84-.346-2.682-.713a.577.577 0 0 0 .064-.468l13.168 2.638.093.02c6.247 1.303 12.838 2.682 17.819 3.594Z" fill="#86A3E2"/><path d="M67.29 41.147a3.764 3.764 0 0 1-.362.177c-1.028.464-2.07.92-3.106 1.368-2.157.931-4.331 1.835-6.501 2.738-3.9 1.625-7.877 3.21-11.571 5.275a3.798 3.798 0 0 0-.407-.149.379.379 0 0 0-.15-.044h-.008c-.6-.166-1.238-.226-1.847-.343-1.016-.19-2.02-.427-3.033-.63a477.83 477.83 0 0 1-7.514-1.56c-5.315-1.141-10.619-2.323-15.927-3.497-1.226-.27-2.452-.552-3.682-.806-.855-.174-1.694-.4-2.56-.367 2.193-.505 4.323-1.38 6.444-2.126 2.117-.746 4.251-1.456 6.389-2.141a333.167 333.167 0 0 1 13.515-4.026.516.516 0 0 0 .29-.197c.843.367 1.799.512 2.682.714 1.27.286 2.541.556 3.811.839 3.001.673 6.01 1.298 9.019 1.94 3.004.64 6.013 1.262 9.03 1.85 1.387.271 2.767.541 4.166.739.428.056.871.157 1.323.246Z" fill="#86A3E2"/><path d="m57.502 46.076-11.47 4.904c0-.008-.004-.012-.009-.016 3.546-1.625 7.51-3.255 11.479-4.888Z" fill="#511308"/><path d="m50.5 36.985-13.168-2.638c0-.004-.004-.008-.004-.012 3.53.645 8.24 1.621 13.172 2.65Z" fill="#86A3E2"/><path d="M46.032 50.984c.04.113.044.242.016.367-.15.057-.299.11-.444.166a.426.426 0 0 1-.069.016l-.012-.327.509-.222Z" fill="#511308"/><path d="M45.608 51.512c.149-.052.298-.109.443-.165-.048.19-.181.355-.383.39-.04.009-.08.013-.117.021l-.012-.23c.024-.004.048-.008.069-.016ZM46.032 50.984l-.509.218c.166-.081.335-.158.505-.234.004.004.004.008.004.016Z" fill="#511308"/><path d="M46.028 50.968c-.17.076-.339.153-.504.234-.004-.121-.008-.242-.016-.363.08-.045.161-.093.242-.137.016.008.032.012.044.02a.424.424 0 0 1 .234.246Z" fill="#511308"/><path d="M45.755 50.702a7.23 7.23 0 0 0-.242.137v-.012a.323.323 0 0 0-.165-.275c.137.045.274.093.407.15Z" fill="#511308"/><path d="M45.551 51.758c.48 12.342-.052 24.663-.048 37.008-.101.07-.206.134-.307.202a.302.302 0 0 0-.1-.052 6.42 6.42 0 0 0-.3-.105l.005-.012v-.024l.08-8.059c.162-9.393.497-19.653.32-28.925.116-.005.233-.017.35-.033Z" fill="#556FA7"/><path d="m45.542 51.529.012.23a3.41 3.41 0 0 1-.35.032l-.013-.63c.008 0 .017.005.025.005-.02.185.12.39.326.363Z" fill="#511308"/><path d="M45.527 51.202c.008.109.012.218.012.327-.206.032-.347-.174-.33-.364.104.017.209.029.31.04l.008-.003Z" fill="#511308"/><path d="M45.513 50.839c.008.12.012.242.016.363l-.008.004-.306-.069a.285.285 0 0 1 .145-.21c.053-.032.1-.06.153-.088ZM45.211 51.137l.307.069c-.101-.012-.206-.024-.311-.04 0-.013 0-.02.004-.029Z" fill="#511308"/><path d="m45.175 50.835-.004.294-.331-.072v-.23c-.004-.222.173-.33.347-.319h.008c.048.016.1.028.15.045a.323.323 0 0 1 .164.274v.012a3.02 3.02 0 0 0-.153.089.274.274 0 0 0-.145.21l-.028-.009c-.004-.1-.008-.197-.008-.294Z" fill="#511308"/><path d="M45.502 88.767v.032a.722.722 0 0 1-.06.294c-.037.016-.07.032-.105.049a.406.406 0 0 0-.146-.174c.11-.068.21-.133.311-.201Z" fill="#556FA7"/><path d="m45.336 89.142.105-.049a.56.56 0 0 1-.08.133c0-.028-.013-.056-.025-.084ZM45.358 89.226c.012.049.016.097.012.145-.113.037-.23.073-.346.11a.148.148 0 0 1-.126-.009.722.722 0 0 0 .46-.246Z" fill="#556FA7"/><path d="M45.026 89.477c.112-.037.23-.073.346-.11-.012.19-.145.364-.395.352-2.182-.138-4.275-.424-6.429-.82-5.15-.947-10.3-1.89-15.422-3.004-2.432-.528-4.864-1.065-7.252-1.783-1.5-.455-3.065-.883-4.437-1.665.033-.117.061-.238.09-.355 6.92 2.533 25.239 5.59 32.656 7.058.145.25.443.359.722.322.032.017.072.02.12.005Z" fill="#6683C2"/><path d="M45.335 89.142c.012.028.02.056.025.084a.703.703 0 0 1-.46.246c-.069-.036-.101-.117-.089-.197.057.012.113.024.165.032.126-.056.242-.109.36-.165Z" fill="#556FA7"/><path d="M45.337 89.142c-.117.056-.238.109-.355.165l-.166-.036a.174.174 0 0 1 .077-.117c.1-.06.202-.125.298-.19a.405.405 0 0 1 .146.178Z" fill="#556FA7"/><path d="M45.2 50.508c.052.004.1.02.148.044a2.123 2.123 0 0 1-.149-.044ZM45.191 51.129l.03.008c-.005.008-.005.02-.005.029-.008 0-.016-.004-.025-.004v-.033Z" fill="#511308"/><path d="M45.194 51.791c.177 9.272-.158 19.533-.319 28.926l.29-28.922c.013-.004.02-.004.029-.004Z" fill="#556FA7"/><path d="M45.196 51.79c-.008.005-.02.005-.028.005l.008-.633c.004 0 .008 0 .012.004.004.205.008.415.008.625Z" fill="#511308"/><path d="M45.194 50.508c-.17-.012-.347.097-.347.319v.23l-34.004-7.329a3.836 3.836 0 0 0-.04-.185c-.028-.125-.101-.202-.19-.234.008-.004.012-.004.016-.004.867-.029 1.706.193 2.562.367 1.23.254 2.456.536 3.682.806 5.307 1.174 10.611 2.356 15.927 3.497 2.5.536 5.005 1.06 7.513 1.56 1.013.203 2.017.44 3.033.63.61.121 1.25.178 1.848.343Z" fill="#86A3E2"/><path d="M45.19 88.968c-.1.06-.2.125-.298.19a.16.16 0 0 0-.076.117l-.642-.141a.72.72 0 0 1-.08-.335v-.222c.234.077.468.153.697.23.101.032.202.069.299.105a.31.31 0 0 1 .1.056Z" fill="#6683C2"/><path d="M45.188 51.13v.032c-.004-.004-.008-.004-.012-.004l.004-.033.008.004ZM45.184 50.835c.004.097.004.198.008.294l-.008-.004v-.29ZM45.17 51.13l-.004.031c-.104-.016-.217-.028-.326-.044v-.056l.33.068Z" fill="#511308"/><path d="m45.174 51.157-.008.634c-.105.004-.213.004-.318.004v-.678c.109.012.217.028.326.04Z" fill="#511308"/><path d="m45.167 51.79-.29 28.922c-.05 2.78-.082 5.481-.082 8.058v.025l-.004.012c-.23-.08-.463-.157-.697-.23.024-12.265.738-24.522.754-36.782.105 0 .214 0 .319-.005Z" fill="#6683C2"/><path d="M44.982 89.307a2.018 2.018 0 0 0-.166-.032l.004-.004.162.036ZM44.877 80.716l-.08 8.059c0-2.578.032-5.28.08-8.059Z" fill="#511308"/><path d="M44.898 89.473c-.279.036-.577-.073-.722-.323l.629.125c-.008.077.024.161.093.198ZM44.85 51.117v.678c-.721-.02-1.467-.19-2.16-.29-1.203-.17-2.4-.335-3.59-.557-5.373-.996-10.708-2.186-16.028-3.424-2.5-.585-4.993-1.206-7.478-1.851-1.46-.38-3.214-.65-4.626-1.343-.036-.19-.072-.384-.113-.573 7.26 1.875 26.41 6.304 33.996 7.36Z" fill="#6683C2"/><path d="M44.851 51.057v.056c-7.582-1.052-26.732-5.485-34-7.36 0-.008-.003-.016-.003-.025l34.003 7.329Z" fill="#86A3E2"/><path d="M44.813 89.275c-.202-.04-.411-.08-.633-.125a.03.03 0 0 1-.008-.016l.641.14Z" fill="#511308"/><path d="M44.168 89.13c.004.008.008.012.008.016-7.421-1.468-25.74-4.525-32.657-7.058.009-.032.017-.06.02-.093l32.629 7.135ZM44.171 89.13l-32.628-7.135a5.56 5.56 0 0 0 .052-.25c1.904.338 3.771.863 5.663 1.258 5.086 1.06 10.16 2.15 15.261 3.126 3.864.738 7.817 1.254 11.572 2.444v.222a.744.744 0 0 0 .08.334Z" fill="#6683C2"/><path d="M44.844 51.794c-.016 12.265-.73 24.518-.755 36.783-3.754-1.194-7.703-1.706-11.57-2.444-5.107-.976-10.176-2.065-15.262-3.126-1.892-.395-3.763-.92-5.663-1.258.367-1.815.351-3.683.376-5.554.04-2.71.007-5.42-.017-8.13-.048-5.72.008-11.503-.395-17.214-.153-2.158-.218-4.38-.605-6.522 1.412.698 3.17.964 4.626 1.343 2.485.65 4.977 1.27 7.478 1.851 5.323 1.238 10.655 2.428 16.027 3.424 1.194.222 2.392.384 3.59.557.702.097 1.444.27 2.17.29Z" fill="#6683C2"/><path d="m36.806 34.504-.088.029a.612.612 0 0 1-.07-.04c-.169-.11-.185-.376-.027-.493l.068-.024c.323-.109.56.097.633.359l-.528-.097.533.105a.575.575 0 0 1-.065.468 3.86 3.86 0 0 1-.544-.282l.088-.025Z" fill="#86A3E2"/><path d="M37.325 34.335c.004.004.004.008.004.012l-.532-.105c.173.028.35.06.528.093Z" fill="#511308"/><path d="M37.266 34.815a.502.502 0 0 1-.29.198 339.876 339.876 0 0 0-13.515 4.025 237.624 237.624 0 0 0-6.389 2.141c-2.121.746-4.25 1.622-6.445 2.126-.008-.004-.016 0-.024 0a.4.4 0 0 0-.17-.012l26.285-8.76c.177.109.359.201.548.282Z" fill="#86A3E2"/><path d="m36.812 34.504-.09.029c-.003 0-.003-.004-.003-.004.032-.004.06-.017.093-.025Z" fill="#511308"/><path d="m36.722 34.533-26.284 8.764h-.004a.566.566 0 0 0-.088.028c-.008 0-.013.004-.017.004-.016.004-.028.004-.04.008 9.64-3.763 16.52-5.76 26.433-8.804Z" fill="#86A3E2"/><path d="M36.65 34.492a.612.612 0 0 0 .07.04c-9.91 3.046-16.795 5.042-26.434 8.801a.277.277 0 0 0-.1.04c-.033.013-.07.029-.102.04l.08-.027c-.011.008-.023.016-.031.028l-.045.012c-.012.004-.02-.012-.008-.02 2.045-1.25 4.388-2.037 6.639-2.848a247.25 247.25 0 0 1 6.384-2.19c4.501-1.476 9.038-2.84 13.523-4.364-.16.113-.145.38.025.488Z" fill="#86A3E2"/><path d="M11.952 68.06c.024 2.71.053 5.42.016 8.131-.024 1.876-.008 3.739-.375 5.554a8.63 8.63 0 0 0-.314-.053c.028-8.92-.234-28.97-.79-37.617.148.089.306.174.467.254.383 2.142.452 4.364.605 6.522.4 5.707.347 11.49.391 17.21Z" fill="#6683C2"/><path d="M11.592 81.745a5.425 5.425 0 0 1-.053.25l-.262-.057v-.246c.11.017.21.037.315.053Z" fill="#6683C2"/><path d="m11.277 81.939.263.056c-.009.032-.017.06-.02.093-.085-.033-.162-.06-.243-.093v-.056Z" fill="#6683C2"/><path d="M11.52 82.088c-.029.117-.057.234-.09.355-.052-.028-.104-.06-.157-.093.005-.117.005-.234.005-.355.08.032.157.065.242.093ZM10.489 44.071c.552 8.647.819 28.696.79 37.618l-.016-.004-.794-37.63c.004.008.012.012.02.016Z" fill="#6683C2"/><path d="M11.282 81.692v.247l-.012-.004-.004-.246c.008 0 .012.004.016.004ZM11.282 81.939v.06c-.004 0-.008-.004-.012-.004l-.004-.056h.016Z" fill="#511308"/><path d="M11.282 82c0 .12 0 .237-.004.354l-.004-.004-.008-.355c.012 0 .012.004.016.004ZM11.273 82.35a.48.48 0 0 1 .005.076l-.005-.076Z" fill="#511308"/><path d="m11.27 81.995.008.355c-.068-.04-.137-.08-.205-.125a8.169 8.169 0 0 1-.077-.335c.089.032.178.069.274.105ZM11.266 81.934l.005.056c-.093-.036-.186-.072-.275-.104-.004-.004-.004-.008-.004-.012l.274.06ZM11.264 81.688l.004.246-.274-.06a2.4 2.4 0 0 1-.049-.234c.012 0 .028.004.04.004.093.012.186.028.279.044Z" fill="#6683C2"/><path d="m10.469 44.059.794 37.63c-.093-.017-.185-.033-.278-.045-.012-.004-.028-.004-.04-.004-.4-2.106-.343-4.284-.404-6.437-.157-5.691-.193-11.382-.314-17.073-.06-2.718-.146-5.432-.182-8.147-.032-2.052-.105-4.146.053-6.194.02.028.048.056.084.08.093.069.19.13.287.19Z" fill="#6683C2"/><path d="M11.076 82.22a3.544 3.544 0 0 1-.258-.169c-.206-.141-.089-.415.133-.415.012.08.028.157.048.234l-.068-.017c.024.009.044.02.068.029.024.117.049.23.077.338Z" fill="#6683C2"/><path d="M10.994 81.874c-.004.004-.004.008.004.012-.024-.008-.044-.02-.068-.028l.064.016Z" fill="#511308"/><path d="M10.844 43.753c.04.19.077.379.113.572a8.672 8.672 0 0 1-.468-.254 17.09 17.09 0 0 1-.028-.42c.125.033.254.07.383.102Z" fill="#6683C2"/><path d="M10.84 43.728a.051.051 0 0 1 .004.024l-.379-.1h-.004v-.008l.38.084Z" fill="#511308"/><path d="m10.46 43.647-.132-.028.133.036.008.408c-.101-.06-.198-.121-.29-.19a.534.534 0 0 1-.085-.08l.012-.154a.365.365 0 0 1 .125-.246c.125-.024.25-.052.375-.08.089.032.161.104.19.233.016.06.028.121.04.186l-.375-.085Z" fill="#6683C2"/><path d="M10.632 43.305c-.005.004-.014.004-.018.004-.004-.004-.004-.004-.009-.004h.027Z" fill="#511308"/><path d="M10.601 43.305a.013.013 0 0 0 .008.004c-.125.028-.25.056-.375.08a.334.334 0 0 1 .093-.06l.024-.008c.085-.004.17-.012.25-.016Z" fill="#6683C2"/><path d="M10.602 43.305a5.242 5.242 0 0 0-.25.016l.08-.028h.004a.38.38 0 0 1 .166.012Z" fill="#6683C2"/><path d="M10.493 44.07a.087.087 0 0 1-.02-.011l-.008-.408h.004c.004.137.012.279.024.42ZM10.461 43.648v.008l-.133-.036.133.028ZM10.432 43.297l-.08.028h-.008c.028-.012.056-.024.088-.028ZM10.358 43.325l-.026.009c.004-.004.009-.009.018-.009h.008ZM10.342 43.325c-.008.004-.013.004-.017.008l-.165.053c.008-.008.012-.012.02-.012.037-.013.069-.029.101-.04a.14.14 0 0 1 .04-.009h.02ZM10.165 43.385l.165-.052a.334.334 0 0 0-.092.06.813.813 0 0 1-.105.02c.008-.011.02-.02.032-.028Z" fill="#511308"/><path d="m10.288 43.333-.1.04a.28.28 0 0 1 .1-.04ZM10.133 43.414c.037-.008.073-.012.105-.02a.356.356 0 0 0-.125.246l-.012.153a.284.284 0 0 1 .032-.38Z" fill="#6683C2"/><path d="M10.183 43.373c-.008.005-.012.009-.02.013l-.081.028c.032-.012.065-.028.1-.04Z" fill="#511308"/><path d="M32.025 57.28c.58 1.629.488 3.573.516 5.283.032 2.02.036 4.033 0 6.05-.036 2.056-.076 4.113-.109 6.174-.012.936-.024 1.872-.024 2.807 0 .81.161 1.791-.141 2.55a.492.492 0 0 1-.52.322c.556-.141.721-.988.048-1.125l-.065-.012.069-10.81v-.003c.056-4.001.113-7.998.077-11.22h.004a.41.41 0 0 0 .145-.017Z" fill="#5771A8"/><path d="M22.354 55.436a.435.435 0 0 0-.194-.06.11.11 0 0 1 .08-.077c.666-.198 1.42-.012 2.102.072.83.105 1.658.222 2.485.335 1.693.226 3.464.351 5.122.766.39.101.415.702.068.811-.02-.048-.036-.1-.056-.15-.037-.092-.153-.076-.182.009a82.31 82.31 0 0 1-.048.145c-1.59-.105-3.182-.464-4.751-.73-.823-.141-1.646-.278-2.468-.42-.618-.104-1.344-.148-1.936-.403a.386.386 0 0 0-.037-.084.406.406 0 0 0-.185-.214Z" fill="#5771A8"/><path d="M31.964 57.13c.02.049.036.101.057.15a.474.474 0 0 1-.137.016h-.005v-.138.133c-.048-.003-.092-.003-.14-.008l.048-.145c.024-.084.137-.1.177-.008Z" fill="#5771A8"/><path d="M31.875 57.162v.137h-.004l.004-.137Z" fill="#5771A8"/><path d="M31.873 57.295c.004 0 .004 0 0 0 .04 3.223-.016 7.22-.072 11.22l.072-11.22Z" fill="#5771A8"/><path d="m31.877 57.295-.073 11.22v.004c-.056 3.832-.109 7.663-.08 10.81a5.706 5.706 0 0 0-.743-.077c-.044-.61.045-1.287.04-1.827v-2.828c.005-2.016.02-4.029.04-6.045.021-2.061.078-4.122.158-6.183.065-1.658-.012-3.493.512-5.082.053.004.097.004.146.008Z" fill="#5771A8"/><path d="m31.802 68.52-.069 10.808h-.012c-.024-3.145.028-6.977.08-10.809Z" fill="#5771A8"/><path d="M31.737 57.287c-.524 1.59-.448 3.424-.512 5.082-.081 2.06-.137 4.122-.158 6.183-.02 2.016-.036 4.029-.04 6.045v2.828c0 .544-.085 1.218-.04 1.827-.573-.02-1.158.008-1.722-.085-.287-.048-.601-.17-.912-.246.165-.754.057-1.581.052-2.347-.008-.73-.008-1.46-.008-2.19 0-1.5-.004-3.005-.012-4.505a129.012 129.012 0 0 0-.113-4.501c-.052-1.307-.008-2.787-.451-4.042l-.024-.08a.302.302 0 0 0-.033-.073.031.031 0 0 0-.008-.016 2.932 2.932 0 0 0-.109-.258c-.032-.069-.137-.097-.173-.016-.004.008-.008.012-.008.02a.684.684 0 0 0-.242-.052c-1.529-.07-3.017-.476-4.541-.428.177-.67.06-1.476.052-2.142-.004-.782.15-1.806-.141-2.557.593.255 1.323.299 1.936.404.822.14 1.645.278 2.468.42 1.553.261 3.15.624 4.739.73Z" fill="#fff"/><path d="M31.8 79.345c.673.137.507.984-.05 1.125a.739.739 0 0 1-.596-.407 2.165 2.165 0 0 1-.065-.174c.194.012.388.016.585.016l-.613-.125a3.084 3.084 0 0 1-.08-.528c.25.012.5.028.742.077.004.181.004.363.004.54l.004-.536.068.012Z" fill="#5771A8"/><path d="m31.735 79.333-.004.536c-.004-.177-.004-.359-.004-.54 0 0 .004 0 .008.004ZM31.752 80.47l-.045.012c-.835.15-1.843-.181-2.637-.443-.404-.133-.985-.246-1.343-.537a.671.671 0 0 0 .443-.197c.94.334 1.924.532 2.92.584.02.061.04.118.065.174.1.226.35.387.597.407Z" fill="#5771A8"/><path d="m31.059 79.78.613.125c-.194 0-.392-.004-.585-.016-.008-.036-.02-.072-.028-.109Z" fill="#5771A8"/><path d="M31.06 79.78c.008.037.02.073.028.11-.996-.053-1.98-.25-2.92-.586a.452.452 0 0 0 .077-.097l2.815.573ZM31.065 79.78l-2.815-.576a.63.63 0 0 0 .073-.17c.008-.036.02-.072.024-.109.31.073.625.198.911.246.569.093 1.15.065 1.722.085.017.181.04.359.085.524ZM27.813 61.34c.443 1.255.399 2.739.451 4.042.065 1.5.105 2.996.113 4.5.008 1.5.008 3.005.012 4.506 0 .73 0 1.46.009 2.19.003.766.112 1.593-.053 2.347-.214-.049-.423-.077-.617-.04v-.138l-.08-7.715V71l-.005-.537c-.004-.181-.004-.359-.004-.54-.024-2.577-.048-5.15-.08-7.998a.473.473 0 0 0 .197-.222c.057-.149.089-.238.057-.363Z" fill="#5771A8"/><path d="M27.547 61.438c0-.158-.004-.32-.004-.48.08.048.15.117.198.21.004.003.004.011.008.015.02.053.04.101.06.158.028.129-.004.218-.06.363a.474.474 0 0 1-.198.221c-.004-.16-.004-.326-.004-.487ZM27.786 61.256l.024.08a1.254 1.254 0 0 0-.06-.157.332.332 0 0 1 .036.077Z" fill="#5771A8"/><path d="M27.542 60.957a.392.392 0 0 0-.093-.044c0-.008.004-.012.008-.02.037-.08.141-.053.174.016.04.085.076.17.109.258a.474.474 0 0 0-.198-.21Z" fill="#5771A8"/><path d="M27.544 60.957c0 .162.004.323.004.48l-.275-.048c.053-.161.11-.323.178-.476a.25.25 0 0 1 .093.044ZM27.556 61.438l.005.487a.517.517 0 0 1-.287.09c-.052 0-.1 0-.149-.005.036-.193.085-.387.141-.572h.29Z" fill="#5771A8"/><path d="m27.555 61.925-.004-.487c0 .16 0 .326.004.487Z" fill="#5771A8"/><path d="M27.552 61.438h-.29c.004-.017.012-.033.016-.049l.274.049ZM27.554 61.925l.081 7.998c0 .181 0 .359.004.54l.004.537v.032c.02 2.46.044 4.949.08 7.716v.137a.935.935 0 0 0-.233.076c-.048.025-.065.097-.048.145.052.162.153.29.282.396-.246.012-.492-.113-.573-.403-.218-.783-.133-1.638-.141-2.445-.012-.782-.028-1.56-.04-2.343a836.039 836.039 0 0 1-.073-4.497c-.02-1.557-.012-3.113.036-4.666.033-1.008-.008-2.11.19-3.134.052.004.1.004.15.004a.6.6 0 0 0 .281-.093ZM27.64 69.92l-.081-7.999c.032 2.852.056 5.425.08 7.998Z" fill="#5771A8"/><path d="M27.722 78.88c.198-.036.407-.007.617.041l-.024.109a.537.537 0 0 1-.073.17l-.685-.142c.201.085.403.166.609.238a.672.672 0 0 1-.444.198.818.818 0 0 1-.282-.395c-.017-.049 0-.121.048-.146.077-.032.153-.056.234-.072ZM27.21 60.86c.09.005.17.02.243.053a3.98 3.98 0 0 0-.177.476l-4.659-.786c.02-.057.037-.113.053-.17 1.524-.048 3.012.36 4.54.428Z" fill="#5771A8"/><path d="m27.559 79.066.685.142a.45.45 0 0 1-.076.096 11.2 11.2 0 0 1-.61-.238ZM27.272 61.389c-.004.016-.012.032-.016.048-1.678-.016-2.985-.463-4.647-.822.004-.004.004-.008.004-.013l4.659.787ZM27.648 71.028l.081 7.716c-.036-2.763-.06-5.255-.08-7.716Z" fill="#5771A8"/><path d="M27.259 61.438c-.057.185-.105.379-.141.572-1.622-.04-3.186-.508-4.61-1.25a.174.174 0 0 0 .085-.093c.008-.016.012-.036.02-.052 1.661.363 2.968.806 4.646.822Z" fill="#5771A8"/><path d="M22.582 55.735c.29.75.137 1.774.14 2.557.005.67.122 1.476-.052 2.141-.092.004-.185.008-.278.016l-.113-2.194c-.028-.87-.052-1.746-.129-2.476l.13 2.476c.023.77.047 1.537.108 2.194-.113.013-.145.17-.044.222l.17.089c-.098.052-.239.024-.3-.073-.41-.64-.338-1.613-.378-2.351-.049-.827-.287-1.84-.093-2.646.056-.23.238-.33.42-.314a.148.148 0 0 0 .064.17c.113.072.23.136.355.189Z" fill="#5771A8"/><path d="M22.349 55.436c.08.048.149.117.19.214l.035.084a2.129 2.129 0 0 1-.355-.19.152.152 0 0 1-.064-.168.419.419 0 0 1 .194.06ZM22.39 60.45c.093-.009.186-.013.279-.017-.012.057-.032.113-.053.17l-.221-.037-.004-.117Z" fill="#5771A8"/><path d="M22.616 60.603c0 .004 0 .008-.004.012l-.217-.049.221.037Z" fill="#5771A8"/><path d="m22.398 60.566.218.049c-.004.02-.012.036-.02.052a.175.175 0 0 1-.085.093c-.056-.029-.113-.057-.17-.089-.1-.056-.068-.21.045-.222l.012.117ZM22.145 55.779c.076.726.1 1.605.129 2.476l-.13-2.476Z" fill="#5771A8"/><path d="m22.387 60.45.008.116-.012-.117h.004ZM22.277 58.255l.113 2.194h-.004a38.385 38.385 0 0 1-.109-2.194Z" fill="#5771A8"/><path d="M117.505 92.203c.008.129-.044.266-.181.387-.88.774-2.146 1.165-3.203 1.653-1.048.488-2.097.972-3.145 1.46-2.162 1.005-4.328 2.005-6.49 3.01-2.23 1.032-4.444 2.096-6.695 3.085-1.06.463-2.121.939-3.186 1.391-.932.395-1.871.649-2.827.94a.47.47 0 0 0-.012-.15.54.54 0 0 0 .08-.133v-.004c8.188-3.803 16.375-7.61 24.558-11.413.218.451.904.419 1.065-.09.012-.044.028-.088.036-.136Z" fill="#511308"/><path d="M117.488 53.48a.629.629 0 0 1-.081.355 2.55 2.55 0 0 0-.226-.464c-.032-.044-.096-.044-.125 0-.06.097-.113.194-.157.299l-.936.403c-.435-.04-.879-.12-1.318-.21.367-.189.758-.41 1.153-.572.387.068.762.137 1.129.202l-1.089-.218c.359-.145.726-.234 1.089-.21a.73.73 0 0 1 .561.415Z" fill="#FFDD8F"/><path d="M117.216 52.992c.173.097.266.29.274.489a.71.71 0 0 0-.565-.412c-.359-.024-.726.065-1.089.21l-18.6-3.73-.013-.005c-5.178-1.077-10.127-2.101-13.825-2.783-.08-.27-.327-.488-.666-.375-.02.008-.04.012-.06.02a.303.303 0 0 1 .097-.04c1.141-.246 2.33.04 3.472.218 1.384.218 2.759.484 4.134.734 3.094.569 6.175 1.214 9.26 1.843 3.195.65 6.389 1.319 9.583 1.98 1.392.29 2.791.56 4.17.9 1.21.302 2.723.347 3.828.952Z" fill="#FFDD8F"/><path d="M116.744 54.085a5.197 5.197 0 0 0-.117.56c-.605.36-1.339.582-1.952.848-.972.423-1.944.839-2.92 1.25-2.194.924-4.4 1.82-6.606 2.715-4.206 1.706-8.409 3.464-12.668 5.037a.65.65 0 0 0-.016-.383l11.954-5.114c.028-.012.061-.024.089-.037 3.968-1.629 7.933-3.258 11.502-4.888.25.024.496.029.734.012Z" fill="#F2C45B"/><path d="M116.633 54.65c-.137 1.004-.012 2.154-.044 3.033a263.76 263.76 0 0 0-.125 5.037c-.044 3.36-.077 6.724-.109 10.083-.032 3.255-.068 6.51-.093 9.76-.012 1.634-.028 3.263-.032 4.897-.004 1.327-.238 2.948.004 4.303-.835.25-1.641.75-2.412 1.11-1.113.52-2.226 1.036-3.339 1.556-2.162 1.008-4.324 2.012-6.485 3.02-2.094.977-4.203 1.929-6.284 2.937-1.101.532-2.202 1.081-3.3 1.621-.89.444-1.69.964-2.504 1.492-.004-12.865.549-25.71.049-38.577.044-.004.084-.012.125-.02.21-.036.346-.21.399-.407 4.263-1.573 8.465-3.332 12.668-5.038 2.206-.895 4.412-1.79 6.606-2.714a264.87 264.87 0 0 0 2.92-1.25c.613-.266 1.351-.484 1.956-.843Z" fill="#F2C45B"/><path d="M116.369 92.34c.008.032.02.06.037.088-8.184 3.804-16.371 7.611-24.558 11.414a.725.725 0 0 0 .064-.306v-.032c.819-.529 1.613-1.049 2.505-1.493 1.097-.544 2.194-1.089 3.299-1.621 2.081-1.008 4.19-1.96 6.284-2.936 2.161-1.008 4.323-2.013 6.485-3.021l3.339-1.557c.775-.359 1.581-.859 2.412-1.109.032.194.077.387.133.573Z" fill="#511308"/><path d="M115.958 54.073c.02.004.04.004.06.004-3.569 1.634-7.534 3.263-11.502 4.889l11.442-4.893Z" fill="#F2C45B"/><path d="m115.951 54.073-11.442 4.893-.088.036c-4.134 1.698-8.272 3.4-11.963 5.098a.458.458 0 0 0-.286-.274c3.852-2.154 7.998-3.808 12.063-5.498a548.53 548.53 0 0 0 6.78-2.851c1.081-.468 2.162-.94 3.238-1.424.125-.056.25-.12.384-.185h.004c.431.084.875.165 1.31.205ZM97.227 49.548l18.6 3.731-.04.016c-5.191-.952-12.055-2.392-18.56-3.747Z" fill="#FFDD8F"/><path d="M115.791 53.295c-.395.161-.782.379-1.154.573h-.004c-.471-.097-.935-.198-1.383-.263-1.46-.21-2.9-.487-4.344-.77a581.966 581.966 0 0 1-9.409-1.928c-3.134-.67-6.272-1.323-9.401-2.02-1.323-.295-2.65-.573-3.973-.876-.92-.21-1.916-.363-2.795-.746a.61.61 0 0 0 .069-.488l13.821 2.771.012.004c6.506 1.351 13.37 2.791 18.561 3.743Z" fill="#FFDD8F"/><path d="M114.636 53.864c-.129.064-.258.129-.383.185-1.073.488-2.153.96-3.238 1.424-2.251.968-4.517 1.907-6.78 2.851-4.065 1.694-8.212 3.348-12.063 5.498a4.41 4.41 0 0 0-.44-.162.444.444 0 0 0-.137-.04s0-.004-.004 0c-.625-.174-1.299-.238-1.932-.355-1.06-.202-2.105-.448-3.162-.662a518.908 518.908 0 0 1-7.832-1.625c-5.538-1.186-11.067-2.42-16.6-3.642-1.28-.282-2.554-.58-3.836-.843-.892-.185-1.77-.415-2.678-.383 2.29-.524 4.513-1.44 6.727-2.214 2.21-.779 4.429-1.517 6.659-2.23 4.666-1.497 9.357-2.9 14.088-4.199a.548.548 0 0 0 .302-.21c.88.384 1.876.537 2.795.747 1.323.302 2.65.58 3.973.875 3.125.701 6.263 1.355 9.401 2.02 3.134.666 6.268 1.315 9.409 1.928 1.444.282 2.888.56 4.344.77.452.069.916.17 1.387.267ZM104.423 59.002l-11.954 5.114c-.004-.008-.004-.012-.008-.016 3.69-1.698 7.828-3.4 11.962-5.098Z" fill="#FFDD8F"/><path d="M97.22 49.544 83.4 46.774c-.005-.005-.005-.009-.005-.013 3.703.682 8.652 1.706 13.826 2.783Z" fill="#511308"/><path d="M92.47 64.116a.652.652 0 0 1 .016.383c-.153.06-.31.117-.464.173a.235.235 0 0 1-.072.016l-.013-.346.04-.017.493-.21Z" fill="#F2C45B"/><path d="M92.022 64.668c.153-.056.31-.112.464-.173-.053.198-.19.367-.4.407-.04.008-.08.017-.125.02l-.012-.237a.148.148 0 0 0 .073-.017Z" fill="#F2C45B"/><path d="m92.473 64.116-.496.21c.16-.077.322-.15.488-.226.004.004.004.008.008.016Z" fill="#511308"/><path d="M92.462 64.1c-.165.076-.326.149-.488.225l-.04.017c-.004-.126-.008-.25-.016-.375l.254-.146a.471.471 0 0 1 .29.278Z" fill="#FFDD8F"/><path d="M92.17 63.825a2.594 2.594 0 0 0-.254.146v-.012a.335.335 0 0 0-.182-.295c.15.044.295.1.436.161Z" fill="#FFDD8F"/><path d="M91.958 64.922c.5 12.866-.052 25.708-.048 38.577l-.323.21a.33.33 0 0 0-.105-.056 5.952 5.952 0 0 0-.31-.105l.004-.012v-.024l.085-8.401c.169-9.793.52-20.485.334-30.152a3.48 3.48 0 0 0 .363-.037Z" fill="#FACD65"/><path d="m91.949 64.689.012.238a3.675 3.675 0 0 1-.363.032l-.012-.653c.008 0 .016.004.024.004-.02.19.125.403.339.379Z" fill="#FACD65"/><path d="M91.934 64.342c.008.117.012.23.012.347-.214.024-.359-.186-.339-.383.11.016.218.028.323.04l.004-.004Z" fill="#FACD65"/><path d="M91.924 63.967c.008.125.012.25.016.375l-.004.004-.323-.069a.298.298 0 0 1 .153-.217c.049-.033.101-.065.158-.093Z" fill="#FFDD8F"/><path d="m91.609 64.273.322.069c-.105-.012-.214-.024-.322-.04-.004-.008-.004-.017 0-.029Z" fill="#511308"/><path d="m91.573 63.963-.004.302-.342-.073v-.237c-.004-.238.185-.347.367-.331a1.371 1.371 0 0 1 .141.04c.1.049.177.15.181.295v.012c-.052.028-.105.06-.157.088a.306.306 0 0 0-.153.218l-.028-.008c0-.1 0-.206-.005-.306Z" fill="#FFDD8F"/><path d="M91.598 63.624a.32.32 0 0 1 .137.04c-.045-.012-.089-.028-.137-.04ZM91.582 64.269l.029.008c-.004.008-.004.02-.004.03-.008 0-.017-.005-.025-.005v-.033Z" fill="#511308"/><path d="M91.597 64.955c.185 9.663-.166 20.36-.335 30.152l.302-30.148c.012 0 .02 0 .033-.004Z" fill="#FACD65"/><path d="M91.595 63.624c-.181-.016-.367.097-.367.33v.239l-35.447-7.639c-.012-.065-.024-.13-.04-.194-.032-.133-.11-.21-.202-.242.008 0 .012-.004.016-.004.908-.032 1.787.198 2.678.384 1.283.266 2.557.56 3.836.843 5.533 1.218 11.063 2.452 16.6 3.641 2.61.561 5.22 1.105 7.833 1.626 1.056.21 2.1.46 3.162.661.637.117 1.306.182 1.931.355Z" fill="#FFDD8F"/><path d="M91.595 64.955c-.012.004-.02.004-.032.004l.008-.662c.004 0 .008 0 .012.004l.012.654Z" fill="#511308"/><path d="M91.587 64.27v.032c-.005-.004-.009-.004-.013-.004l.004-.033.008.004Z" fill="#511308"/><path d="M91.574 63.963c.004.1.004.206.008.306l-.008-.004v-.302Z" fill="#511308"/><path d="m91.573 64.265-.004.032a8.678 8.678 0 0 0-.338-.044v-.06l.342.072Z" fill="#FFDD8F"/><path d="m91.57 64.298-.009.661c-.109.004-.222.004-.334.004v-.706c.117.012.233.029.342.04Z" fill="#FACD65"/><path d="m91.566 64.959-.302 30.148a508.21 508.21 0 0 0-.085 8.401v.024l-.004.012a25.723 25.723 0 0 0-.726-.242c.024-12.789.767-25.562.787-38.343.109.004.221.004.33 0ZM91.233 64.253v.706c-.755-.02-1.533-.198-2.255-.302-1.25-.178-2.5-.347-3.743-.577-5.602-1.04-11.16-2.279-16.71-3.573a323.362 323.362 0 0 1-7.795-1.932c-1.52-.396-3.356-.674-4.828-1.4-.036-.201-.072-.403-.117-.6 7.578 1.96 27.543 6.581 35.448 7.678Z" fill="#FACD65"/><path d="M91.233 64.192v.061c-7.906-1.097-27.87-5.719-35.444-7.675 0-.008-.004-.016-.004-.024l35.448 7.638ZM91.233 64.96c-.016 12.78-.763 25.557-.787 38.342-3.912-1.246-8.03-1.782-12.059-2.553-5.32-1.016-10.607-2.153-15.91-3.258-1.973-.412-3.92-.96-5.905-1.315.383-1.896.363-3.836.391-5.788.04-2.827.008-5.65-.016-8.474-.049-5.96.008-11.99-.411-17.939-.158-2.25-.226-4.566-.634-6.796 1.472.726 3.303 1.005 4.828 1.4 2.59.673 5.187 1.323 7.796 1.932 5.55 1.294 11.107 2.528 16.71 3.573 1.242.23 2.492.4 3.742.577.722.105 1.497.278 2.255.298Z" fill="#FACD65"/><path d="M82.852 46.939a.877.877 0 0 1-.097.028c-.02-.012-.044-.024-.064-.04-.182-.117-.194-.404-.024-.517l.004-.003c.02-.009.04-.013.06-.02.335-.114.585.1.666.374a32.295 32.295 0 0 0-.549-.1l.553.108a.594.594 0 0 1-.069.489 4.042 4.042 0 0 1-.572-.295l.092-.024Z" fill="#511308"/><path d="M83.396 46.765c.004.004.004.008.004.012l-.552-.108c.181.028.363.06.548.096ZM83.333 47.262a.535.535 0 0 1-.302.21 342.213 342.213 0 0 0-14.088 4.198c-2.23.714-4.448 1.452-6.659 2.23-2.214.779-4.436 1.69-6.727 2.214h-.028a.357.357 0 0 0-.174-.008l27.402-9.135c.185.113.379.21.576.29ZM82.847 46.938l-.093.033c-.004 0-.004-.004-.004-.004.032-.008.064-.016.097-.029Z" fill="#511308"/><path d="m82.761 46.97-27.4 9.136-.013.004c-.02.004-.044.012-.069.02h-.004c-.008 0-.016.004-.02.004-.016.004-.032.004-.044.008 10.046-3.92 17.218-6.001 27.546-9.175l.004.004Z" fill="#511308"/><path d="m82.69 46.93.064.041c-10.328 3.174-17.5 5.255-27.546 9.176a.271.271 0 0 0-.105.04c-.036.012-.068.028-.105.04l.085-.028c-.012.008-.02.016-.032.028l-.049.012c-.012.004-.02-.012-.008-.02 2.134-1.303 4.57-2.121 6.921-2.964a253.124 253.124 0 0 1 6.655-2.287c4.694-1.545 9.425-2.96 14.104-4.553-.178.113-.166.399.016.516Z" fill="#511308"/><path d="M56.946 81.918c.025 2.823.057 5.65.017 8.474-.025 1.952-.008 3.896-.392 5.787a9.07 9.07 0 0 0-.326-.056c.032-9.297-.246-30.2-.823-39.21.157.096.319.185.484.266.403 2.23.472 4.545.633 6.796.416 5.949.359 11.978.407 17.943Z" fill="#FACD65"/><path d="M55.419 56.913c.576 9.014.85 29.913.822 39.21l-.016-.004-.827-39.222c.005.008.012.012.02.016ZM55.396 56.9l.827 39.223-.29-.049c-.017-.004-.029-.004-.041-.004-.415-2.19-.359-4.464-.42-6.707-.165-5.928-.201-11.865-.33-17.798-.06-2.831-.15-5.662-.19-8.49-.032-2.137-.109-4.32.057-6.457.02.032.052.06.088.085.097.068.198.133.299.197Z" fill="#FACD65"/><path d="M55.786 56.578c.044.197.08.4.117.6a6.993 6.993 0 0 1-.484-.265c-.012-.15-.02-.295-.028-.436.125.032.258.069.395.1Z" fill="#FACD65"/><path d="M55.786 56.553a.052.052 0 0 1 .004.025c-.137-.037-.266-.069-.395-.101h-.004v-.008l.395.084Z" fill="#511308"/><path d="m55.391 56.47-.137-.033.137.036.008.424c-.1-.065-.206-.13-.303-.202a.355.355 0 0 1-.088-.085l.012-.157a.384.384 0 0 1 .133-.258c.13-.024.254-.053.383-.08a.31.31 0 0 1 .202.241c.016.065.028.13.04.194l-.387-.08Z" fill="#FACD65"/><path d="M55.561 56.114c-.004.005-.008.005-.017.005-.005-.005-.005-.005-.009-.005h.026ZM55.531 56.114c.004.004.008.004.008.004-.125.033-.254.06-.383.081a.3.3 0 0 1 .11-.065l.011-.004c.085-.008.17-.012.254-.016Z" fill="#511308"/><path d="M55.535 56.114a5.242 5.242 0 0 0-.25.016l.069-.02.012-.004a.346.346 0 0 1 .17.008ZM55.419 56.913l-.02-.012-.008-.424h.004c.004.141.012.286.024.436ZM55.387 56.47v.007l-.137-.036.137.028ZM55.346 56.11l-.069.02c.024-.008.045-.02.069-.02ZM55.27 56.13l-.012.004c.004-.004.004-.004.008-.004h.004Z" fill="#511308"/><path d="M55.276 56.13c-.004 0-.004 0-.008.004l-.186.06c.008-.007.012-.011.02-.011.037-.012.073-.028.105-.04a.143.143 0 0 1 .044-.009c.009 0 .017-.004.025-.004ZM55.083 56.195l.186-.06a.3.3 0 0 0-.11.064l-.108.024a.107.107 0 0 1 .032-.028Z" fill="#511308"/><path d="M55.21 56.143c-.036.012-.068.028-.105.04a.27.27 0 0 1 .105-.04ZM55.058 56.223l.109-.024a.368.368 0 0 0-.133.258l-.012.157a.287.287 0 0 1 .036-.391Z" fill="#FACD65"/><path d="m55.105 56.183-.02.012-.085.028c.032-.012.069-.028.105-.04Z" fill="#511308"/><path d="M83.244 93.477c.016.545.359 2.597-.678 2.597-.314 0-.5-.19-.609-.467-.62.088-1.214-.09-1.835-.202a143.241 143.241 0 0 0-6.44-1.016c-1.501-.202-3.002-.404-4.506-.577-1.198-.141-2.553-.117-3.654-.662a.396.396 0 0 1-.093-.044c-.012-.008-.024-.012-.036-.02a.286.286 0 0 1-.141-.178c-.73-.963-.61-2.38-.573-3.533.028-1.004.012-2.948.88-3.621a.32.32 0 0 1 .274-.065c1.105-.766 2.484-1.262 3.642-1.944 1.218-.714 2.428-1.512 3.31-2.63.852-1.076 1.372-2.573.96-3.936-.205-.681-.653-1.391-1.46-1.178-.73.194-1.088 1.081-1.39 1.694-.102.206-.392.194-.525.037-.016.024-.04.052-.065.08-.113.142-.37.202-.536.142a94.52 94.52 0 0 1-4.957-1.912.435.435 0 0 1-.193-.65c-.016-2.734 1.722-5.912 4.388-6.8 2.476-.822 5.48.138 7.707 1.28 2.32 1.189 4.227 3.129 4.844 5.718 1.105 4.65-.916 10.079-4.771 12.938.87.02 1.742.081 2.633.178.775.085 1.553.173 2.328.262.576.069.975.04 1.31.56a.362.362 0 0 1 0 .368c.27 1.129.153 2.464.186 3.581Zm-1.351 0c.032-1.008-.06-2.186.117-3.234-.13-.017-.27-.045-.424-.065-.83-.121-1.662-.238-2.496-.347a39.653 39.653 0 0 1-3.356-.605c-.452.25-.847.073-1.044-.25-.146-.044-.178-.198-.121-.31a.878.878 0 0 1 .346-.868c2.243-1.698 3.973-3.904 4.824-6.61.839-2.666.915-5.981-.956-8.24-1.742-2.109-4.985-3.428-7.683-3.516-3.521-.118-4.933 3.032-5.824 5.924 1.61.468 3.202.984 4.78 1.537a.83.83 0 0 1 .185.1c.056-1.431 1.444-2.641 2.956-2.25 1.75.452 2.218 2.75 1.997 4.28-.299 2.024-1.626 3.605-3.207 4.807-.85.65-1.77 1.202-2.702 1.726-.936.524-2.025 1.25-3.081 1.456h-.012l-.025.4c-.024.657-.048 1.31-.056 1.967-.004.964.23 2.017.036 2.969 1.142-.186 2.412.06 3.521.157 1.428.125 2.852.274 4.271.46 1.432.19 2.86.395 4.288.621.653.105 1.306.214 1.956.327.536.093 1.129.133 1.65.33.02-.314.056-.605.06-.766Z" fill="#EDBD51"/><path d="M82.015 90.243c-.178 1.048-.085 2.226-.117 3.234-.004.161-.04.452-.057.774-.516-.197-1.113-.238-1.65-.33a140.53 140.53 0 0 0-6.243-.948c-1.42-.186-2.843-.335-4.27-.46-1.114-.097-2.38-.343-3.522-.157.194-.956-.04-2.009-.036-2.969.004-.657.028-1.31.056-1.968l.025-.399h.012c1.056-.206 2.15-.932 3.081-1.456.932-.524 1.851-1.077 2.702-1.726 1.585-1.206 2.908-2.783 3.207-4.808.225-1.528-.246-3.827-1.997-4.279-1.512-.391-2.9.819-2.956 2.25a.639.639 0 0 0-.186-.1 94.092 94.092 0 0 0-4.779-1.537c.892-2.892 2.303-6.038 5.824-5.925 2.698.09 5.94 1.408 7.683 3.517 1.872 2.263 1.795 5.574.956 8.24-.851 2.706-2.581 4.913-4.824 6.61a.868.868 0 0 0-.347.868c-.056.108-.028.262.121.31.198.323.593.5 1.045.25 1.11.25 2.206.452 3.356.605.83.11 1.661.226 2.496.347.145.012.287.036.42.056Z" fill="#fff"/><path d="M99.6 19.102c.016 3.182-.008 6.364-.032 9.546-.025 3.21-.053 6.421-.073 9.632-.012 1.58-.016 3.158-.024 4.734-.008 1.372.246 3.054-.121 4.389-.008-.27-.274-.517-.565-.549l.057-11.345c.068-8.107.165-16.19.133-24.76.113-.097.214-.21.302-.33l.012-.02c.388 1.14.182 2.718.222 3.823.053 1.633.085 3.255.089 4.88ZM99.342 47.407a.45.45 0 0 1-.178.375c-.85.746-2.077 1.125-3.093 1.597s-2.029.94-3.041 1.412c-2.093.968-4.183 1.94-6.276 2.912-2.154 1-4.3 2.028-6.473 2.98-1.024.448-2.049.907-3.081 1.347-.904.383-1.811.625-2.735.907a.441.441 0 0 0-.012-.145.558.558 0 0 0 .08-.133c7.914-3.682 15.835-7.356 23.748-11.038a.556.556 0 0 0 1.028-.085c.008-.04.025-.085.033-.13Z" fill="#5AAC93"/><path d="M99.342 47.407c-.008.044-.024.089-.036.133a.556.556 0 0 1-1.029.085l.496-.23v-.081l.005-.452c.29.029.556.279.564.545ZM99.327 9.967a.437.437 0 0 1-.045.44 2.753 2.753 0 0 0-.036-.101.58.58 0 0 0 .08-.34Z" fill="#5AAC93"/><path d="m98.748 9.97-1.012-.2c.347-.138.701-.227 1.048-.198a.68.68 0 0 1 .549.399.58.58 0 0 1-.08.339 2.265 2.265 0 0 0-.219-.444.072.072 0 0 0-.12 0c-.057.093-.11.19-.154.29l-.907.388a11.689 11.689 0 0 1-1.279-.202c.36-.181.738-.395 1.121-.553.355.057.71.121 1.053.182Z" fill="#97E6CE"/><path d="m99.28 10.406-.013.02c-.088.122-.19.23-.302.331 0-.08 0-.165-.004-.246a.444.444 0 0 0 .278-.205.31.31 0 0 1 .04.1Z" fill="#5AAC93"/><path d="M99.063 9.495c.17.093.258.282.266.472a.674.674 0 0 0-.548-.4c-.347-.028-.702.061-1.05.198L79.733 6.16c-.032-.008-.065-.013-.093-.02-4.973-1.037-9.72-2.021-13.277-2.67-.077-.263-.314-.472-.641-.36a.397.397 0 0 1-.065.02.26.26 0 0 1 .097-.04c1.105-.234 2.255.04 3.356.214 1.335.21 2.666.468 4 .71 2.993.548 5.974 1.17 8.95 1.779 3.09.633 6.179 1.274 9.268 1.911 1.347.279 2.698.54 4.033.871 1.174.29 2.634.331 3.703.92Z" fill="#97E6CE"/><path d="m98.968 10.104-.004.407a2.772 2.772 0 0 1-.355.04 2.46 2.46 0 0 1 .142-.399v-.004c.044-.1.096-.197.153-.29.028-.044.089-.044.12 0 .09.137.162.286.219.444a.434.434 0 0 1-.279.205c.004-.133.004-.266.004-.403ZM98.969 10.757c.032 8.57-.064 16.653-.133 24.76l.125-24.752.008-.008Z" fill="#5AAC93"/><path d="M98.965 10.511c.004.08.004.166.004.246-.004.004-.004.008-.008.008l.004-.25v-.004ZM98.969 10.104c.004.137.004.274.004.407 0 0-.004.004-.004 0v-.407Z" fill="#511308"/><path d="m98.96 10.511-.004.25a2.724 2.724 0 0 1-.46.331 4.57 4.57 0 0 1 .113-.54c.109-.008.214-.017.319-.033.012-.004.024-.004.032-.008Z" fill="#5AAC93"/><path d="m98.96 10.761-.124 24.752c-.033 3.759-.057 7.526-.06 11.345a.354.354 0 0 0-.146.004 3.965 3.965 0 0 0-.516.121c-.234-1.315-.008-2.88-.004-4.162.004-1.577.02-3.154.032-4.735.024-3.146.06-6.292.089-9.438.032-3.25.064-6.501.105-9.748.02-1.625.064-3.247.12-4.876.029-.85-.092-1.964.04-2.932.166-.097.324-.206.465-.33Z" fill="#5AAC93"/><path d="m98.83 35.513-.056 11.345h-.005c.005-3.82.029-7.582.061-11.345Z" fill="#5AAC93"/><path d="m98.774 46.858-.005.452c.005-.15.005-.298.005-.452Z" fill="#511308"/><path d="M98.779 47.314v.08l-.496.23c-.013-.028-.025-.056-.033-.084a5.075 5.075 0 0 1-.133-.557 3.98 3.98 0 0 1 .516-.12.584.584 0 0 1 .146-.005v.456ZM98.751 10.148c-.282.133-.56.263-.85.392-.02 0-.037-.004-.057-.004l.907-.388Z" fill="#5AAC93"/><path d="m97.728 9.765 1.012.202c-.343-.06-.694-.125-1.052-.19a.068.068 0 0 0 .04-.012Z" fill="#511308"/><path d="M98.753 10.152a2.598 2.598 0 0 0-.14.4c-.23.016-.469.012-.707-.012.287-.13.569-.259.847-.388Z" fill="#5AAC93"/><path d="M98.614 10.552a4.57 4.57 0 0 0-.113.54c-.585.347-1.299.56-1.888.819-.94.407-1.88.81-2.823 1.21a518.699 518.699 0 0 1-6.388 2.621c-4.07 1.65-8.131 3.352-12.253 4.872a.645.645 0 0 0-.016-.37L86.7 15.302l.085-.037c3.84-1.577 7.67-3.15 11.123-4.726.238.024.476.028.706.012Z" fill="#5AAC93"/><path d="M98.495 11.092c-.134.968-.013 2.085-.04 2.932a244.831 244.831 0 0 0-.122 4.877c-.04 3.246-.072 6.497-.105 9.748a3665.85 3665.85 0 0 0-.088 9.437c-.013 1.577-.029 3.154-.033 4.735-.004 1.283-.23 2.848.004 4.162-.806.242-1.589.726-2.335 1.073-1.077.5-2.154 1.004-3.23 1.505-2.09.971-4.179 1.947-6.268 2.92-2.025.943-4.065 1.863-6.078 2.835-1.065.516-2.13 1.044-3.19 1.573-.863.427-1.634.931-2.424 1.44-.004-12.447.532-24.86.048-37.299.04-.004.081-.012.121-.02.202-.037.34-.202.388-.395 4.121-1.52 8.183-3.223 12.252-4.872a518.07 518.07 0 0 0 6.389-2.622c.944-.4 1.883-.799 2.823-1.21.593-.254 1.307-.468 1.888-.819Z" fill="#5AAC93"/><path d="M98.286 47.624c-7.913 3.683-15.834 7.357-23.747 11.04a.756.756 0 0 0 .06-.3v-.031c.791-.509 1.561-1.017 2.424-1.44 1.061-.529 2.122-1.057 3.19-1.573 2.013-.972 4.054-1.892 6.079-2.836 2.089-.971 4.178-1.948 6.267-2.92 1.077-.5 2.154-1.004 3.23-1.504.747-.347 1.525-.83 2.336-1.073a4.02 4.02 0 0 0 .161.637ZM97.852 10.536c.02.004.036.004.057.004-3.453 1.577-7.284 3.15-11.124 4.727l11.067-4.731Z" fill="#5AAC93"/><path d="m97.852 10.536-11.067 4.73-.084.037c-4.001 1.641-7.998 3.287-11.567 4.928a.418.418 0 0 0-.23-.246c-.016-.008-.032-.012-.045-.02 3.723-2.081 7.732-3.682 11.664-5.316 2.19-.911 4.376-1.822 6.554-2.758 1.049-.452 2.093-.908 3.13-1.376.12-.056.242-.113.367-.181.423.085.85.165 1.278.202ZM79.727 6.16l18 3.605c-.017.004-.029.012-.04.016-5.022-.915-11.665-2.31-17.96-3.621Z" fill="#97E6CE"/><path d="M97.687 9.782c-.383.153-.762.37-1.121.552-.456-.089-.904-.19-1.335-.25-1.408-.198-2.803-.472-4.199-.746a534.543 534.543 0 0 1-9.099-1.863c-3.032-.646-6.065-1.275-9.09-1.952-1.279-.287-2.565-.557-3.844-.847-.887-.202-1.855-.351-2.706-.718a.572.572 0 0 0 .064-.472l13.274 2.662c.032.008.064.012.092.02C86.02 7.47 92.662 8.866 97.687 9.782Z" fill="#97E6CE"/><path d="M96.567 10.334a6.22 6.22 0 0 1-.367.182c-1.04.467-2.085.923-3.13 1.375-2.178.94-4.368 1.847-6.554 2.758-3.932 1.638-7.941 3.235-11.664 5.316a2.944 2.944 0 0 0-.411-.149.379.379 0 0 0-.15-.044h-.007c-.605-.17-1.25-.23-1.864-.343-1.024-.194-2.036-.432-3.057-.637a486.447 486.447 0 0 1-7.574-1.573c-5.356-1.15-10.7-2.344-16.052-3.521-1.234-.274-2.468-.557-3.71-.815-.86-.177-1.706-.4-2.582-.371 2.21-.508 4.356-1.392 6.498-2.146 2.137-.75 4.283-1.464 6.44-2.157a340.435 340.435 0 0 1 13.62-4.058.502.502 0 0 0 .291-.197c.851.37 1.819.516 2.706.718 1.279.29 2.561.556 3.844.846 3.025.678 6.058 1.311 9.09 1.953 3.03.645 6.058 1.27 9.1 1.863 1.395.274 2.79.544 4.198.746.431.065.88.165 1.335.254Z" fill="#97E6CE"/><path d="m86.696 15.303-11.563 4.944c0-.008-.004-.012-.008-.016 3.573-1.641 7.57-3.283 11.571-4.928Z" fill="#5AAC93"/><path d="M79.636 6.14 66.364 3.476c0-.004-.004-.008-.004-.012 3.558.654 8.305 1.638 13.278 2.674Z" fill="#97E6CE"/><path d="M75.133 20.248a.68.68 0 0 1 .016.37c-.149.057-.298.114-.447.166a.426.426 0 0 1-.069.016l-.012-.33.512-.222Z" fill="#5AAC93"/><path d="m74.698 20.784.447-.165c-.048.19-.181.359-.387.395-.04.008-.08.016-.12.02l-.013-.23c.024-.008.044-.012.073-.02ZM75.133 20.247l-.516.222c.17-.076.339-.157.508-.234.008 0 .008.008.008.012Z" fill="#5AAC93"/><path d="M75.134 20.231c-.174.077-.343.157-.508.234a11.773 11.773 0 0 0-.017-.367c.081-.048.166-.093.246-.137.016.008.033.012.045.02a.455.455 0 0 1 .234.25Z" fill="#97E6CE"/><path d="M74.849 19.965c-.085.04-.166.088-.246.137v-.012a.319.319 0 0 0-.165-.279c.14.045.278.097.41.154Z" fill="#97E6CE"/><path d="M74.645 21.03c.484 12.442-.048 24.856-.048 37.298-.101.069-.206.133-.311.202a.399.399 0 0 0-.1-.052 6.544 6.544 0 0 0-.3-.105l.005-.012v-.025l.08-8.122c.166-9.466.5-19.811.323-29.156.117 0 .238-.012.351-.028Z" fill="#7FCBB4"/><path d="m74.636 20.8.012.23a3.435 3.435 0 0 1-.35.032l-.013-.633c.008 0 .016.004.024.004-.02.185.121.395.327.367Z" fill="#7FCBB4"/><path d="M74.617 20.469c.008.113.012.222.012.33-.206.029-.347-.18-.33-.37.108.016.213.028.314.04h.004Z" fill="#7FCBB4"/><path d="M74.603 20.102c.008.121.012.242.016.367l-.004.004-.31-.069a.303.303 0 0 1 .145-.213c.048-.032.1-.06.153-.089Z" fill="#97E6CE"/><path d="m74.3 20.405.312.068c-.101-.012-.206-.024-.315-.04.004-.012.004-.02.004-.028Z" fill="#7FCBB4"/><path d="m74.272 20.098-.004.295-.33-.073v-.23c-.005-.226.177-.33.346-.323h.008c.049.017.101.029.15.045a.316.316 0 0 1 .165.278v.012c-.048.029-.1.057-.153.085a.281.281 0 0 0-.145.214l-.029-.008c-.004-.097-.004-.194-.008-.295Z" fill="#97E6CE"/><path d="M74.596 58.333v.032a.756.756 0 0 1-.06.298c-.037.016-.07.033-.106.049a.443.443 0 0 0-.145-.178l.31-.201Z" fill="#5AAC93"/><path d="M74.426 58.712c.036-.017.068-.033.105-.049a.558.558 0 0 1-.081.133.295.295 0 0 0-.024-.084Z" fill="#511308"/><path d="M74.452 58.792c.012.048.016.097.012.145-.117.037-.234.073-.347.11a.148.148 0 0 1-.125-.009.687.687 0 0 0 .46-.246Z" fill="#7FCBB4"/><path d="M74.116 59.046c.117-.036.234-.072.347-.109-.012.194-.145.367-.395.351-2.198-.137-4.312-.427-6.482-.826-5.194-.956-10.385-1.908-15.543-3.03-2.453-.532-4.905-1.072-7.309-1.798-1.512-.456-3.089-.892-4.472-1.678.032-.121.06-.238.088-.355 6.974 2.553 25.437 5.634 32.919 7.115.145.254.448.358.726.326.032.016.073.02.121.004Z" fill="#7FCBB4"/><path d="M74.421 58.712c.012.028.02.056.024.085a.686.686 0 0 1-.46.246c-.068-.037-.1-.121-.088-.198.056.012.113.024.17.032.116-.056.233-.109.354-.165Z" fill="#7FCBB4"/><path d="M74.419 58.712c-.121.056-.238.113-.36.169l-.165-.036a.173.173 0 0 1 .077-.117l.303-.194a.441.441 0 0 1 .145.178Z" fill="#7FCBB4"/><path d="M74.293 19.771a.4.4 0 0 1 .15.045c-.05-.016-.098-.028-.15-.044Z" fill="#97E6CE"/><path d="m74.281 20.396.029.009c-.004.008-.004.02-.004.028-.008 0-.016-.004-.025-.004v-.032Z" fill="#511308"/><path d="M74.287 21.062c.178 9.345-.16 19.686-.322 29.156l.294-29.152c.008-.004.02-.004.028-.004Z" fill="#7FCBB4"/><path d="M74.286 21.062c-.008.004-.02.004-.028.004l.008-.637c.004 0 .008 0 .012.004 0 .205.004.415.008.629Z" fill="#7FCBB4"/><path d="M74.284 19.771c-.173-.012-.35.097-.347.323v.23L39.66 12.935a15.5 15.5 0 0 0-.037-.185c-.028-.13-.1-.202-.19-.234.009-.004.013-.004.02-.004.872-.029 1.723.193 2.582.37 1.238.255 2.472.541 3.71.816 5.352 1.181 10.696 2.371 16.052 3.52 2.521.54 5.046 1.07 7.575 1.573 1.02.202 2.032.444 3.057.638.605.113 1.25.173 1.855.342Z" fill="#97E6CE"/><path d="m74.277 58.53-.302.194a.161.161 0 0 0-.077.117l-.645-.141a.72.72 0 0 1-.081-.335v-.222c.234.077.472.153.702.234.1.032.201.069.298.105.04.012.077.028.105.048Z" fill="#7FCBB4"/><path d="M74.278 20.397v.033c-.004-.005-.008-.005-.012-.005l.004-.032.008.004Z" fill="#511308"/><path d="M74.273 20.098c.005.097.005.198.008.299l-.008-.004v-.295Z" fill="#7FCBB4"/><path d="m74.272 20.397-.004.032c-.109-.016-.218-.028-.33-.044v-.06l.334.072Z" fill="#97E6CE"/><path d="m74.268 20.425-.008.637c-.109.004-.214.004-.323.004v-.686c.113.017.226.033.331.045Z" fill="#7FCBB4"/><path d="m74.253 21.062-.295 29.152a474.33 474.33 0 0 0-.08 8.122v.025l-.004.012c-.234-.081-.468-.158-.702-.234.024-12.362.742-24.715.758-37.077.109.008.218.008.323 0Z" fill="#7FCBB4"/><path d="M74.064 58.877a2.45 2.45 0 0 0-.17-.032l.005-.004.165.036ZM73.972 50.218l-.081 8.122a436.32 436.32 0 0 1 .08-8.122Z" fill="#511308"/><path d="M73.996 59.042c-.279.037-.581-.072-.727-.326.222.044.436.084.638.129a.184.184 0 0 0 .089.197ZM73.938 20.38v.686c-.73-.02-1.48-.194-2.182-.29-1.21-.174-2.416-.335-3.618-.561-5.416-1.008-10.793-2.202-16.157-3.452a321.084 321.084 0 0 1-7.538-1.864c-1.472-.387-3.242-.653-4.666-1.355-.032-.193-.073-.387-.113-.58 7.324 1.887 26.631 6.356 34.274 7.416Z" fill="#7FCBB4"/><path d="M73.938 20.324v.06c-7.643-1.06-26.95-5.53-34.274-7.425a.056.056 0 0 0-.008-.024l34.282 7.389Z" fill="#97E6CE"/><path d="M73.9 58.84c-.202-.04-.416-.08-.638-.125a.03.03 0 0 1-.008-.016l.645.141Z" fill="#7FCBB4"/><path d="M73.254 58.7c.004.008.008.011.008.015-7.477-1.48-25.94-4.561-32.918-7.114.008-.032.016-.065.02-.093l32.89 7.191Z" fill="#7FCBB4"/><path d="m73.257 58.7-32.886-7.192c.02-.084.036-.169.052-.25 1.92.343 3.804.871 5.712 1.27 5.126 1.07 10.24 2.166 15.382 3.15 3.896.747 7.88 1.263 11.664 2.465v.222a.634.634 0 0 0 .076.334Z" fill="#7FCBB4"/><path d="M73.938 21.066c-.02 12.361-.738 24.71-.758 37.077-3.783-1.202-7.764-1.723-11.664-2.465-5.146-.988-10.256-2.08-15.383-3.15-1.907-.399-3.79-.927-5.71-1.27.37-1.831.35-3.71.379-5.598.04-2.73.008-5.465-.017-8.195-.048-5.768.009-11.596-.395-17.351-.153-2.174-.222-4.416-.609-6.57 1.424.702 3.194.968 4.667 1.355 2.504.654 5.013 1.279 7.538 1.863 5.364 1.25 10.74 2.448 16.156 3.453 1.202.226 2.408.387 3.618.56.702.097 1.452.27 2.178.29Z" fill="#7FCBB4"/><path d="M65.833 3.639c-.029.008-.06.02-.09.028a.606.606 0 0 1-.068-.04c-.173-.11-.19-.384-.028-.496.02-.009.044-.013.065-.02.326-.114.564.096.64.358l-.532-.096.533.108a.57.57 0 0 1-.065.472 4.39 4.39 0 0 1-.548-.282l.093-.032Z" fill="#97E6CE"/><path d="M66.356 3.47c0 .003.005.007.005.011l-.533-.108.528.096Z" fill="#511308"/><path d="M66.3 3.953a.516.516 0 0 1-.29.198 347.214 347.214 0 0 0-13.62 4.057 256.36 256.36 0 0 0-6.441 2.158c-2.142.754-4.283 1.633-6.498 2.146-.008-.004-.02 0-.028 0a.375.375 0 0 0-.165-.012l26.494-8.833c.173.109.359.206.548.286Z" fill="#97E6CE"/><path d="m65.835 3.639-.085.028c-.004 0-.004-.004-.004-.004.032-.004.06-.016.089-.024Z" fill="#511308"/><path d="M65.745 3.671 39.25 12.504a.249.249 0 0 0-.093.028c-.004.004-.012.004-.016.004-.016.004-.028.004-.04.008C48.817 8.75 55.75 6.736 65.745 3.671c-.005 0-.005-.004 0 0Z" fill="#97E6CE"/><path d="M65.673 3.627a.605.605 0 0 0 .068.04c-9.99 3.07-16.927 5.082-26.643 8.873a.279.279 0 0 0-.1.04l-.101.04.08-.028a.108.108 0 0 0-.032.029.665.665 0 0 0-.044.012c-.012.004-.02-.016-.008-.02 2.06-1.259 4.42-2.053 6.69-2.868 2.134-.766 4.28-1.5 6.434-2.206 4.537-1.492 9.11-2.864 13.632-4.4-.166.105-.15.379.024.488Z" fill="#97E6CE"/><path d="M40.789 37.461c.02 2.73.056 5.465.016 8.195-.024 1.888-.008 3.767-.38 5.598-.104-.02-.21-.036-.318-.056.028-8.99-.238-29.196-.794-37.916.149.093.306.178.467.254.392 2.158.456 4.397.61 6.57.407 5.76.346 11.592.399 17.355Z" fill="#7FCBB4"/><path d="M40.428 51.254c-.016.085-.032.17-.052.25l-.267-.06v-.246c.105.02.214.04.319.056ZM40.11 51.448l.266.06a.95.95 0 0 0-.02.093c-.085-.032-.166-.06-.243-.093-.004-.02-.004-.04-.004-.06Z" fill="#7FCBB4"/><path d="M40.352 51.601c-.029.117-.057.238-.09.355a3.18 3.18 0 0 1-.157-.093c.005-.117.005-.234.005-.355.08.033.16.06.242.093ZM39.31 13.282c.556 8.72.822 28.926.794 37.916l-.016-.004-.799-37.924.02.012Z" fill="#7FCBB4"/><path d="M40.102 51.202v.246l-.012-.004-.004-.246.016.004ZM40.102 51.448v.06c-.004 0-.008-.004-.012-.004l-.004-.06.016.004Z" fill="#511308"/><path d="M40.102 51.509c0 .12 0 .237-.004.355l-.004-.005-.008-.358c.008.008.012.008.016.008ZM40.105 51.863c.005.029.005.049.005.077l-.005-.077Z" fill="#511308"/><path d="m40.095 51.504.008.36c-.069-.041-.137-.081-.21-.13a5.155 5.155 0 0 1-.077-.339l.279.11Z" fill="#7FCBB4"/><path d="m40.095 51.448.004.06-.279-.108c-.004-.004-.004-.008-.004-.012l.279.06ZM40.088 51.198l.004.246-.278-.06a2.278 2.278 0 0 1-.048-.239c.012 0 .028.005.04.005l.282.048Z" fill="#7FCBB4"/><path d="m39.288 13.274.8 37.924c-.094-.017-.186-.033-.283-.045-.012-.004-.029-.004-.04-.004-.404-2.121-.347-4.32-.408-6.49-.161-5.734-.194-11.473-.319-17.209-.06-2.738-.14-5.473-.181-8.211-.032-2.065-.105-4.174.056-6.243.02.028.049.06.085.08.093.073.19.133.29.198Z" fill="#7FCBB4"/><path d="M39.815 51.387c-.005.004-.005.008.004.012-.025-.008-.045-.02-.069-.028l.065.016Z" fill="#511308"/><path d="M39.664 12.96c.04.193.081.386.113.58a7.379 7.379 0 0 1-.468-.254c-.012-.145-.02-.287-.028-.424.125.028.25.06.383.097Z" fill="#7FCBB4"/><path d="M39.657 12.935a.057.057 0 0 1 .008.024c-.134-.032-.259-.068-.384-.096h-.004v-.008l.38.08Z" fill="#7FCBB4"/><path d="m39.285 12.854-.133-.028.133.037.008.41c-.097-.064-.198-.124-.29-.193a.405.405 0 0 1-.085-.08l.012-.158c.008-.1.06-.185.125-.246.125-.024.25-.052.38-.08.088.032.16.108.189.233.012.061.028.121.036.186l-.375-.08Z" fill="#7FCBB4"/><path d="M39.446 12.512c-.008.004-.012.004-.02.004-.004-.004-.004-.004-.008-.004.008 0 .02-.005.028 0Z" fill="#511308"/><path d="M39.418 12.512a.013.013 0 0 0 .008.004c-.125.028-.25.056-.38.08.03-.028.061-.044.094-.06l.024-.008c.089-.008.173-.016.254-.016Z" fill="#7FCBB4"/><path d="M39.418 12.512a5.242 5.242 0 0 0-.25.016l.085-.028a.376.376 0 0 1 .165.012Z" fill="#97E6CE"/><path d="M39.31 13.282c-.009-.004-.013-.008-.02-.012l-.009-.412h.004c.004.142.012.283.025.424Z" fill="#7FCBB4"/><path d="M39.282 12.854v.009l-.134-.037.133.028ZM39.257 12.5l-.085.028h-.012a.324.324 0 0 1 .097-.028ZM39.17 12.528l-.026.008a.034.034 0 0 1 .018-.008h.009Z" fill="#511308"/><path d="M39.166 12.528c-.004.004-.012.004-.016.008l-.166.056c.008-.008.012-.012.02-.012.037-.012.07-.028.101-.04a.144.144 0 0 1 .04-.008c.009 0 .017 0 .02-.004Z" fill="#511308"/><path d="m38.981 12.593.166-.057c-.033.016-.065.032-.093.06a.879.879 0 0 1-.1.02.057.057 0 0 1 .027-.023ZM39.105 12.54l-.101.04a.206.206 0 0 1 .1-.04Z" fill="#97E6CE"/><path d="M38.95 12.616c.033-.008.069-.012.101-.02a.357.357 0 0 0-.125.246l-.012.157a.294.294 0 0 1 .036-.383Z" fill="#7FCBB4"/><path d="m38.995 12.58-.02.012-.08.028c.036-.016.068-.028.1-.04Z" fill="#511308"/><path d="M64.838 37.32c.755 2.355.73 5.323-1.282 7.058-1.884 1.629-4.719 1.855-7.103 1.629-2.549-.242-5.243-1.214-6.457-3.638-.508-1.012-1.157-2.06-.617-3.194.54-1.137 1.452-2.186 2.352-3.045a.336.336 0 0 1 .246-.105c.16 0 .318.117.383.262.568.395.964 1.037 1.488 1.492.694.605 1.537 1.037 2.48.92 2.174-.27 1.969-2.706.255-3.525-.985-.472-2.102-.367-3.154-.25-.323.036-.626.052-.888-.053a.946.946 0 0 1-.407-.322c-.799-1.04-.706-3.206-.327-4.38a.767.767 0 0 1 .113-.214.831.831 0 0 1 .065-.153c.14-.254.379-.492.584-.694.121-.12.246-.242.376-.367-.25-.056-.496-.12-.722-.157-1.04-.182-2.11-.327-2.96-.992-.138-.105-.154-.254-.102-.392a4.932 4.932 0 0 1-.242-1.032 8.143 8.143 0 0 1-.116-1.073c-.013-.234-.02-.472-.025-.71-.06-.956-.096-1.984.158-2.883.056-.194.294-.283.463-.226.008 0 .017-.008.025-.012a.33.33 0 0 1 .294-.097c.984-.27 2.21.076 3.162.201 1.331.174 2.646.432 3.965.698 1.427.29 2.855.597 4.27.94 1.03.25 2.396.278 2.892 1.307.113.036.21.113.267.242.62 1.391.411 3.492.177 4.968-.052.323-.37.573-.661.662-.04.012-.077.02-.113.028-.287.351-.746.565-1.146.775-.44.23-.87.52-1.319.754.682.536 1.291 1.315 1.67 1.807a12.628 12.628 0 0 1 1.956 3.77Zm-4.158 6.84c3.009-.908 3.331-3.73 2.577-6.405-.343-1.218-.891-2.335-1.597-3.38-.4-.588-.847-1.113-1.315-1.645-.342-.391-.762-.73-.85-1.254a.328.328 0 0 1 .008-.142.657.657 0 0 1 .225-.548c.601-.533 1.432-.823 2.166-1.133.226-.093.464-.198.71-.267-.004-.036-.012-.076-.016-.113-.097-1.117-.069-2.766.375-3.972-.758.032-1.593-.351-2.331-.532-1.355-.331-2.706-.658-4.07-.96-1.359-.303-2.726-.57-4.081-.892-.726-.173-1.646-.262-2.404-.573.069.44.161.892.19 1.311.04.694.104 1.372.173 2.061.02.214.056.63 0 1 .686-.032 1.391.093 2.06.19.884.121 2.179-.008 2.63.904.029.056.045.112.061.169.266.319.335.827-.004 1.21-.427.48-1.065.887-1.621 1.21a4.2 4.2 0 0 1-.59.29c-.112.657-.225 1.29-.185 1.964.017.287-.028.79.146 1 .205.242.181.174.528.13 1.065-.138 2.037-.307 3.097.008 1.626.484 3.005 2.053 2.678 3.831-.314 1.73-2.13 2.529-3.742 2.206-1.331-.266-2.993-1.56-3.433-2.976-.496.42-.96.87-1.375 1.38-.25.306-.496.624-.686.975-.29.54-.157.706.178 1.29.685 1.182 1.69 2.344 2.875 3.042 2.162 1.254 5.26 1.335 7.623.62Z" fill="#5AAC93"/><path d="M63.255 37.755c.754 2.674.427 5.497-2.578 6.405-2.359.71-5.46.633-7.622-.633-1.186-.698-2.19-1.86-2.876-3.041-.335-.581-.464-.75-.177-1.29.185-.352.431-.67.685-.977.416-.504.88-.956 1.376-1.38.44 1.416 2.101 2.711 3.432 2.977 1.613.323 3.424-.472 3.743-2.206.322-1.779-1.057-3.347-2.678-3.831-1.061-.315-2.033-.146-3.098-.009-.347.045-.323.117-.528-.129-.174-.21-.13-.713-.145-1-.04-.673.076-1.306.185-1.964.206-.076.412-.185.589-.29.557-.323 1.194-.73 1.621-1.21.34-.383.27-.887.004-1.21a.715.715 0 0 0-.06-.17c-.452-.911-1.746-.782-2.63-.903-.67-.093-1.375-.222-2.06-.19a4.094 4.094 0 0 0 0-1 39.053 39.053 0 0 1-.174-2.06c-.024-.42-.121-.868-.19-1.311.759.31 1.678.399 2.404.572 1.355.323 2.718.593 4.082.892 1.363.302 2.714.629 4.07.96.737.18 1.572.564 2.33.532-.443 1.21-.472 2.855-.375 3.973.004.04.008.076.016.112-.246.073-.484.174-.71.267-.734.31-1.564.6-2.165 1.133a.662.662 0 0 0-.226.548.322.322 0 0 0-.008.142c.093.524.508.863.85 1.254.469.532.916 1.057 1.316 1.645.705 1.057 1.254 2.178 1.597 3.392Z" fill="#fff"/></g><defs><clipPath id="a"><path fill="#fff" d="M0 0h115v95H0z"/></clipPath></defs></svg>