<svg width="115" height="95" fill="none" xmlns="http://www.w3.org/2000/svg"><g clip-path="url(#a)" fill-rule="evenodd" clip-rule="evenodd"><path d="M46.973 54.569c4.928-6.02 4.858-11.556-.208-16.6-4.144-.73-6.217-1.092-6.217-1.092-1.055-.197-2.107-.037-3.155.475-8.136 2.475-15.487 4.968-22.06 7.47-1.787.592-2.462 1.083-2.02 1.473 17.195 5.642 28.413 8.4 33.66 8.274Z" fill="#86A3E2"/><path d="M45.483 53.925c-1.505 15.588-1.37 27.71.408 36.374 3.171-.705 6.808-2.116 10.906-4.238 3.382-19.943 3.894-29.652 1.536-29.125-5.09-1.932-9.375-2.938-12.85-3.011Z" fill="#556FA7"/><path d="m46.173 90.192.72-33.7c.087-2.132.133-3.199.133-3.199-8.925-1.279-20.106-3.628-33.547-7.047-.405-.013-.552.81-.445 2.471.319 5.784.438 12.54.365 20.272-.025 4.072.184 8.783.626 14.131 1.312.748 4.44 1.785 9.384 3.104 7.219 1.824 14.806 3.15 22.764 3.968Z" fill="#6683C2"/><path d="M34.172 58.81c-.503 1.527-.429 3.29-.493 4.882a202.165 202.165 0 0 0-.15 5.943 915.339 915.339 0 0 0-.04 5.812v2.717c0 .524-.083 1.171-.04 1.757-.55-.018-1.813.01-2.356-.083-.276-.045-.576-.162-.877-.236.16-.723.055-1.518.05-2.254-.01-.702-.01-1.404-.01-2.103 0-1.442-.003-2.89-.012-4.33-.01-1.445-.05-2.88-.107-4.328-.05-1.254-.01-2.677-.436-3.882-.01-.022-.015-.05-.024-.077a.303.303 0 0 0-.031-.07c0-.004-.003-.013-.01-.016-.122-.34-.692-.392-1.008-.408-1.47-.064-1.7-.343-3.165-.297.172-.644.058-1.42.049-2.058-.003-.751.144-1.736-.135-2.457.57.246 1.273.289 1.861.387.792.135 1.583.267 2.371.402 1.503.251 3.036.598 4.563.699Z" fill="#fff"/><path d="M34.465 58.908c-.393 1.193-.424 2.551-.451 3.855-.006.322-.016.64-.025.944-.04.997-.07 1.985-.098 2.966-.024.994-.043 1.981-.055 2.965-.01.973-.018 1.939-.025 2.905-.006.969-.012 1.935-.012 2.904v2.717c0 .193-.012.423-.024.66-.019.355-.04.73-.016 1.076l.025.34-.34-.012c-.166-.006-.39-.006-.639-.01-.607-.002-1.358-.008-1.757-.076a4.643 4.643 0 0 1-.555-.144 6.928 6.928 0 0 0-.346-.098l-.292-.07.065-.292c.107-.49.086-1.034.061-1.564-.01-.206-.018-.411-.018-.626-.01-.81-.01-1.46-.01-2.107 0-1.02 0-1.754-.003-2.18l-.009-2.147a133.339 133.339 0 0 0-.11-4.315c-.01-.205-.015-.429-.022-.659-.027-1.055-.058-2.177-.395-3.134V62.8c-.006-.022-.016-.046-.022-.074l-.003-.01-.012-.014-.01-.025-.024-.04v-.015c-.034-.05-.12-.086-.218-.114a2.223 2.223 0 0 0-.506-.07 10.346 10.346 0 0 1-1.472-.169c-.463-.08-.886-.153-1.668-.129l-.41.013.103-.396c.114-.43.086-.954.062-1.441-.01-.178-.019-.353-.022-.537v-.003c0-.203.01-.408.016-.623.024-.595.052-1.248-.132-1.726l-.264-.678.669.285c.39.169.87.233 1.321.298.166.024.329.046.47.07l1.159.197c.441.073.883.15 1.211.205.377.064.788.141 1.202.215 1.101.202 2.214.407 3.322.481l.395.028-.116.38Zm-1.061 3.843c.027-1.22.055-2.49.37-3.662-1.008-.092-2.014-.28-3.008-.46-.39-.07-.776-.144-1.193-.215-.481-.083-.843-.144-1.208-.205-.43-.074-.859-.144-1.162-.197-.154-.024-.3-.045-.451-.067-.304-.043-.62-.086-.926-.163.067.458.046.942.027 1.399-.009.212-.018.414-.018.595.003.15.012.328.021.512.022.405.043.831-.006 1.239.617.003.997.07 1.41.141.372.065.774.135 1.4.163.174.009.42.027.646.095.27.08.512.22.623.481l.006.01.01.018c.005.009.008.018.015.027a.906.906 0 0 1 .03.083l.003.012c.003.016.01.031.013.046.368 1.043.401 2.218.429 3.325.006.214.012.426.021.65a125.86 125.86 0 0 1 .11 4.336l.01 2.15c.003 1.027.003 1.748.003 2.18 0 .755 0 1.51.006 2.101 0 .19.01.396.019.604.018.476.04.96-.025 1.433l.098.03c.166.05.328.098.479.126.358.058 1.08.064 1.662.067.116 0 .227.004.325.004a11.88 11.88 0 0 1 .027-.816c.013-.215.022-.424.022-.629v-2.717c.003-.97.006-1.938.012-2.907.006-.973.015-1.939.025-2.908.009-.996.027-1.987.055-2.974.025-1 .058-1.99.098-2.975.006-.313.012-.623.022-.932Z" fill="#556FA7"/><path d="M91.382 66.376c-.095 18.734-.2 31.507-.31 38.315 1.227-.257 3.34-1.116 6.34-2.579l14.508-6.716c2.052-.803 3.389-1.478 4.014-2.024.178-.215.295-.715.353-1.506-.077-2.466-.077-6.704.003-12.72.098-8.563.104-14.448.021-17.659.034-2.662-.009-4.244-.128-4.744 0-.813-.286-1.04-.856-.68a354.127 354.127 0 0 1-12.994 5.544c-7.299 3.18-10.951 4.769-10.951 4.769Z" fill="#F2C45B"/><path d="M58.658 59.18c19.204 4.123 30.17 6.469 32.9 7.036.267 10.586.255 23.145-.04 37.672.059.343-.067.644-.38.904-2.757-.11-6.857-.733-12.3-1.867-9.026-1.457-16.285-3.29-21.78-5.502-.344-1.622-.516-3.18-.51-4.668-.39-19.225-.585-29.311-.588-30.262-.037-2.107-.019-3.42.06-3.94.04-.151.92.06 2.638.628Z" fill="#FACD65"/><path d="M56.173 58.537c22.246 4.882 34.096 7.685 35.455 7.918 15.879-6.658 24-10.371 24.466-10.654-.031-.472-1.04-.877-3.027-1.214l-18.575-3.858-31.879 6.09c-4.588.761-6.734 1.335-6.44 1.718Z" fill="#FFDD8F"/><path d="M83.356 90.97c-.172 1.01-.083 2.142-.113 3.11-.004.154-.04.436-.056.746-.496-.19-1.07-.23-1.585-.32-.629-.106-1.251-.214-1.88-.312-1.371-.22-2.745-.42-4.119-.598a97.03 97.03 0 0 0-4.103-.442c-1.07-.092-2.288-.328-3.383-.15.187-.92-.04-1.929-.033-2.852.003-.632.027-1.26.055-1.892.006-.129.015-.255.021-.383h.013c1.015-.197 2.067-.896 2.962-1.399s1.779-1.033 2.597-1.659c1.525-1.16 2.794-2.674 3.083-4.618.217-1.47-.236-3.677-1.92-4.113-1.454-.377-2.788.788-2.84 2.162a.673.673 0 0 0-.178-.098 91.978 91.978 0 0 0-4.594-1.478c.856-2.779 2.214-5.803 5.597-5.692 2.594.086 5.71 1.352 7.385 3.38 1.797 2.174 1.723 5.357.92 7.918-.82 2.6-2.481 4.72-4.634 6.351a.84.84 0 0 0-.334.834c-.056.104-.028.252.116.298.19.31.57.481 1.003.239 1.067.239 2.12.432 3.223.583.797.104 1.598.217 2.398.334.138.009.273.034.399.052Z" fill="#fff"/><path d="M83.657 91.02c-.113.668-.107 1.401-.104 2.104.003.33.003.659-.006.966-.003.098-.013.196-.022.31-.012.14-.027.303-.034.438l-.021.423-.393-.15c-.334-.129-.72-.184-1.097-.236a49.607 49.607 0 0 1-.43-.065c-.337-.058-.653-.113-.938-.16a118.493 118.493 0 0 0-2.993-.466c-.715-.104-1.399-.196-2.058-.281a79.544 79.544 0 0 0-2.043-.243c-.659-.07-1.343-.135-2.048-.2a23.102 23.102 0 0 1-.797-.085c-.838-.095-1.721-.2-2.51-.07l-.435.07.09-.432c.11-.55.06-1.16.012-1.764-.028-.343-.056-.68-.052-1.033a48.026 48.026 0 0 1 .055-1.905v-.003c.006-.12.012-.205.018-.288l.025-.386h.273c.775-.16 1.6-.641 2.346-1.077.16-.092.312-.184.49-.282.448-.251.89-.51 1.316-.776.426-.27.843-.552 1.245-.859.74-.56 1.414-1.208 1.941-1.947.519-.73.887-1.549 1.025-2.472.113-.77.033-1.754-.335-2.539-.276-.592-.714-1.067-1.358-1.233a1.903 1.903 0 0 0-.405-.061c-.47-.019-.91.144-1.26.42-.356.28-.62.672-.733 1.11-.034.132-.056.27-.062.408l-.024.598-.47-.368a.258.258 0 0 0-.042-.028c-.016-.009-.034-.015-.05-.021-.766-.27-1.54-.528-2.312-.779a83.289 83.289 0 0 0-2.263-.693l-.298-.086.092-.297c.439-1.42 1.006-2.905 1.905-4.03.926-1.16 2.19-1.938 3.996-1.88 1.38.046 2.9.414 4.284 1.049 1.3.595 2.487 1.426 3.324 2.44.868 1.05 1.32 2.313 1.472 3.635.178 1.536-.049 3.146-.496 4.57a12.223 12.223 0 0 1-1.794 3.538 14.378 14.378 0 0 1-2.948 2.97.53.53 0 0 0-.218.534l.02.097.057.095a.44.44 0 0 0 .255.2.474.474 0 0 0 .34-.068l.102-.055.113.024a38.278 38.278 0 0 0 3.199.577 219.396 219.396 0 0 1 2.389.331c.113.009.233.027.352.046.12.018-.285-.043.068.009l.306.046-.061.31Zm-.715 2.107c-.003-.626-.009-1.276.068-1.896l-.08-.009-.018-.003c-.42-.061-.822-.12-1.2-.172-.422-.058-.821-.113-1.195-.162a34.45 34.45 0 0 1-1.641-.258 39.617 39.617 0 0 1-1.506-.303c-.236.104-.463.12-.668.07a1.025 1.025 0 0 1-.58-.392.492.492 0 0 1-.215-.267.54.54 0 0 1-.009-.304c-.018-.18.003-.365.074-.543.073-.187.202-.358.39-.503a13.829 13.829 0 0 0 2.824-2.836 11.613 11.613 0 0 0 1.705-3.361c.423-1.35.64-2.874.472-4.318-.141-1.212-.552-2.365-1.334-3.316-.779-.944-1.886-1.717-3.106-2.275-1.313-.601-2.751-.95-4.052-.994-1.576-.052-2.683.629-3.496 1.65-.779.975-1.3 2.267-1.705 3.533.666.196 1.325.402 1.981.61.72.233 1.442.473 2.156.721.006-.034.016-.07.025-.104.147-.57.487-1.08.944-1.438a2.522 2.522 0 0 1 1.662-.55c.175.007.356.034.534.08.843.218 1.41.82 1.757 1.564.42.902.516 2.018.387 2.89-.15 1.023-.561 1.931-1.132 2.738-.561.791-1.282 1.484-2.067 2.08-.414.315-.85.61-1.291.888-.448.282-.892.543-1.34.792-.138.076-.307.177-.482.279-.733.426-1.533.895-2.349 1.104l-.009.15a49.127 49.127 0 0 0-.055 1.877c0 .303.024.64.052.981.04.503.083 1.015.034 1.518.754-.061 1.53.028 2.27.114.26.03.517.058.781.082.669.059 1.352.126 2.06.2a109.616 109.616 0 0 1 4.123.524c.668.098 1.355.203 2.064.316.352.055.662.107.941.153.34.059.65.11.942.16.138.025.275.043.413.064.28.04.565.08.844.15l.006-.07c.012-.123.021-.227.021-.276v-.003c.004-.294.004-.613 0-.935Z" fill="#F2C45B"/><path d="M97.593 15.56c.095-.28.337-.154.337-.154 1.15-.233 1.217-.815.589-1.217-1.395-.472-4.769-1.217-10.127-2.245-5.538-1.19-11.727-2.407-18.56-3.652-1.248-.249-2.18-.338-2.8-.27-.548.107-1.61.438-3.189.996-4.18 1.334-6.97 2.227-8.375 2.675-4.947 1.628-8.335 2.79-10.163 3.48-1.018.338-2.343.923-3.978 1.755-.64.242-.475.472.497.683 9.246 2.702 19.698 5.076 31.358 7.118a3.807 3.807 0 0 0 2.919.025c14.273-5.505 21.436-8.569 21.492-9.194Z" fill="#97E6CE"/><path d="M74.847 27.262c-.727 21.014-.72 32.594.019 34.747 4.664-1.641 10.243-4.147 16.735-7.517 4.523-2.211 6.786-3.315 6.786-3.315.375-.117.577-.448.614-.99.086-1.411.092-3.242.018-5.49.05-7.01.09-12.828.12-17.45l-.07-10.338c.232-1.8-.105-2.438-1.013-1.913-3.898 1.754-8.458 3.701-13.683 5.839-2.129.907-5.079 2.168-8.851 3.784-.264.116-.396.172-.396.172-.368.417-.46 1.242-.279 2.471Z" fill="#5AAC93"/><path d="M44.965 18.43c14.72 3.524 24.773 5.643 30.155 6.36.217 20.425.131 32.833-.255 37.219-6.096-.402-15.864-2.273-29.309-5.606-2.177-.745-3.444-1.27-3.8-1.567-.465-1.825-.68-6.07-.643-12.733-.264-10.774-.377-18.757-.335-23.952.01-.41.096-.647.264-.705.154-.107 1.46.22 3.922.984Z" fill="#7FCBB4"/><path d="M65.642 44.142c.724 2.57.41 5.284-2.478 6.155-2.267.68-5.247.607-7.327-.607-1.14-.672-2.103-1.788-2.763-2.923-.322-.558-.444-.72-.171-1.239.177-.337.413-.644.659-.938.399-.485.846-.92 1.322-1.325.423 1.361 2.017 2.603 3.296 2.861 1.552.31 3.291-.454 3.598-2.119.31-1.708-1.015-3.217-2.573-3.683-1.018-.304-1.954-.141-2.978-.01-.334.044-.31.114-.51-.122-.165-.202-.122-.687-.14-.96-.04-.647.073-1.254.178-1.886a3.75 3.75 0 0 0 .567-.279c.533-.31 1.147-.702 1.558-1.162.325-.368.26-.853.003-1.163a.693.693 0 0 0-.058-.162c-.436-.877-1.678-.752-2.527-.868-.644-.089-1.322-.215-1.982-.181a3.818 3.818 0 0 0 0-.96 35.432 35.432 0 0 1-.165-1.981c-.025-.402-.117-.834-.181-1.26.73.297 1.613.383 2.31.552 1.303.31 2.612.57 3.922.855 1.31.292 2.61.604 3.91.923.708.175 1.512.543 2.241.512-.426 1.163-.453 2.745-.361 3.819.003.04.009.073.015.107-.236.07-.466.166-.68.254-.706.298-1.504.577-2.083 1.09a.637.637 0 0 0-.218.527.326.326 0 0 0-.01.134c.09.503.488.828.82 1.206.45.512.88 1.015 1.263 1.582a11.066 11.066 0 0 1 1.543 3.25Z" fill="#fff"/><path d="M65.94 44.06c.41 1.456.496 2.965.002 4.197-.426 1.059-1.27 1.905-2.686 2.331-1.22.368-2.64.521-4.02.408-1.27-.104-2.512-.439-3.546-1.046a7.14 7.14 0 0 1-1.56-1.266 9.46 9.46 0 0 1-1.313-1.767l-.046-.08c.018.031.037.068 0 0-.35-.604-.473-.812-.132-1.456.095-.181.205-.353.328-.522.123-.168.245-.322.365-.469.209-.251.426-.487.65-.714.227-.227.463-.442.706-.65l.352-.3.138.444c.184.598.626 1.174 1.166 1.643.588.51 1.285.884 1.898 1.006.055.013.028.007.049.01a3.094 3.094 0 0 0 2.018-.3c.576-.314 1.021-.835 1.162-1.55.01-.049.003-.012.01-.036.131-.727-.068-1.414-.467-1.981a3.587 3.587 0 0 0-1.895-1.353c-.874-.258-1.705-.15-2.598-.03-.06.009-.122.015-.251.033-.055.006-.107.018-.153.025-.322.061-.36.067-.63-.255-.198-.24-.202-.629-.205-.947 0-.068 0-.13-.003-.194-.036-.638.059-1.223.16-1.828.021-.12.006-.042.021-.128l.028-.175.166-.061a2.87 2.87 0 0 0 .263-.117c.08-.04.169-.089.255-.141h.003c.258-.15.534-.319.8-.51.255-.183.494-.38.681-.591a.558.558 0 0 0 .144-.365.641.641 0 0 0-.147-.402l-.049-.058-.015-.07c-.003-.019-.01-.034-.013-.043a.598.598 0 0 0-.021-.05c-.267-.54-1.037-.597-1.72-.647-.197-.015-.387-.027-.574-.055l-.322-.046c-.534-.076-1.086-.16-1.604-.135l-.374.019.055-.368c.025-.163.03-.331.028-.485a4.161 4.161 0 0 0-.028-.398v-.004a89.02 89.02 0 0 1-.098-.993c-.028-.32-.052-.65-.07-1-.016-.267-.068-.558-.117-.856a9.644 9.644 0 0 1-.061-.374l-.083-.533.5.205c.463.19 1.009.291 1.524.387.254.046.5.091.739.15.868.205 1.717.386 2.567.567.466.098.935.2 1.35.288.708.157 1.352.307 1.962.451.537.129 1.23.295 1.953.473.233.058.46.128.687.202.497.156 1.015.322 1.47.303l.456-.018-.156.43c-.181.49-.285 1.057-.34 1.631-.068.73-.056 1.466-.004 2.055 0 .012.003.024.007.04l.003.027.064.28-.276.079a6.647 6.647 0 0 0-.598.224l-.055.021-.325.135c-.595.242-1.218.5-1.669.902a.316.316 0 0 0-.089.126.374.374 0 0 0-.024.153l.003.052-.015.05c.055.315.294.57.54.83a22.331 22.331 0 0 1 .87 1.006c.215.264.423.54.623.831.35.521.656 1.058.92 1.613.273.562.494 1.138.665 1.74Zm-.568 3.97c.442-1.094.356-2.465-.025-3.805-.159-.568-.367-1.11-.619-1.638-.251-.53-.546-1.04-.874-1.533a10.574 10.574 0 0 0-.592-.788c-.208-.258-.426-.51-.65-.761a5.41 5.41 0 0 0-.193-.209c-.307-.328-.61-.65-.696-1.143v-.006c-.006-.05-.01-.093-.006-.136 0-.024.006-.052.009-.076a.955.955 0 0 1 .07-.377.965.965 0 0 1 .252-.35c.527-.47 1.202-.745 1.843-1.009.116-.049.233-.095.322-.135h.003l.055-.021a9 9 0 0 1 .414-.163c-.043-.589-.052-1.31.015-2.033.046-.475.123-.954.246-1.392-.42-.05-.844-.181-1.252-.31-.226-.07-.45-.144-.65-.19-.576-.141-1.186-.288-1.95-.47-.693-.165-1.352-.318-1.954-.45-.484-.108-.916-.197-1.346-.289a97.54 97.54 0 0 1-2.582-.57c-.212-.052-.457-.095-.709-.144-.374-.07-.766-.141-1.143-.248.046.263.086.524.1.788a39.862 39.862 0 0 0 .166 1.963 5.867 5.867 0 0 1 .031.686c.466.01.923.077 1.374.144l.316.046c.156.022.343.034.533.05.847.06 1.8.131 2.224.987.018.037.034.077.049.114.006.015.012.03.015.046.154.208.242.466.242.732 0 .267-.091.537-.297.77a4.955 4.955 0 0 1-.782.684c-.276.2-.57.377-.85.54-.085.049-.18.104-.29.16l-.157.073c-.092.555-.181 1.095-.147 1.653.003.058.003.138.006.22.003.218.003.488.064.562.04.046.04.046.046.046.046-.01.101-.019.187-.03.04-.007.144-.02.249-.035.96-.125 1.855-.245 2.852.05.88.263 1.693.837 2.22 1.588.485.693.73 1.54.567 2.438-.009.055-.003.025-.009.046-.18.905-.742 1.567-1.472 1.966-.714.39-1.588.518-2.42.365l-.058-.01c-.714-.144-1.515-.567-2.18-1.143-.494-.43-.92-.948-1.184-1.5-.12.11-.236.22-.35.334-.214.215-.42.436-.61.669a9.61 9.61 0 0 0-.343.435c-.105.145-.2.292-.282.448-.184.344-.105.479.12.865-.105-.178.048.083 0 0l.045.08a8.993 8.993 0 0 0 1.23 1.653c.43.454.91.855 1.426 1.159.947.555 2.1.862 3.287.963a10.453 10.453 0 0 0 3.794-.384c1.22-.367 1.941-1.082 2.3-1.974Zm-12.604-1.19c-.03-.052-.016-.027 0 0Z" fill="#5AAC93"/></g><defs><clipPath id="a"><path fill="#fff" d="M0 0h115v95H0z"/></clipPath></defs></svg>