<svg width="98" height="88" fill="none" xmlns="http://www.w3.org/2000/svg"><g clip-path="url(#a)"><path d="M215.524 21H3v1.099h212.524V21ZM215.524 50.963H3v1.099h212.524v-1.1ZM215.524 80.706H3v1.099h212.524v-1.1Z" fill="#90C5F1"/><path d="M56.998 72.428c-1.1 2.49-3.224 4.981-6.74 4.322-3.736-.66-4.542-5.201-4.908-10.33-.88-10.915-1.32-26.226-2.271-42.783-.147-2.49-5.129-2.417-5.568-.293-2.271 11.282-10.037 40.952-11.355 44.981-1.1 3.37-3.077 6.227-4.909 7.766-2.564 2.124-5.494.586-6.373-3.444-.44-2.05-4.762-1.172-4.103 1.392.953 3.59 2.638 6.814 7.4 7.033 6.52.293 11.135-6.3 13.552-16.776 2.418 0 6.52.073 8.938 0 .293 3.37.733 7.692 1.685 10.33 1.758 5.054 4.835 6.446 8.571 6.373 5.275-.073 8.572-3.956 9.817-7.18.733-2.197-3.077-3.003-3.736-1.391ZM32.603 59.9c2.417-9.084 5.128-21.977 6.886-29.23.146 5.275.879 25.055.879 29.377-2.198.22-6.007 0-7.765-.147ZM87.763 54.919c-3.81-4.396-10.33-4.176-14.433.366-5.787 6.447-5.64 17.509.147 23.15 4.322 4.249 13.7 3.37 16.85-5.202 2.637-6.96 1.025-14.139-2.564-18.314Zm-.513 15.457c-1.172 4.909-6.887 8.645-11.502 4.542-2.71-2.417-3.59-9.304-1.245-14.358 2.344-5.202 7.179-6.008 10.33-2.858 3.15 3.15 3.442 8.425 2.417 12.674Z" fill="#6683C2"/><path d="M103.213 71.109c-1.539 2.784-3.223 4.762-5.86 5.86-3.664 1.54-5.275-1.098-5.422-4.175-.366-6.447 0-13.48 0-19.78 0-1.758-3.883-1.905-3.883 0-.073 3.81-.073 9.304-.146 16.41-.073 3.297-.147 6.667 1.978 9.45 4.542 5.934 15.164.074 16.63-6.373.293-1.612-2.418-2.93-3.297-1.392Z" fill="#6683C2"/><path d="M15.232 71.622a3.095 3.095 0 0 1-3.077 3.077 3.095 3.095 0 0 1-3.077-3.077 3.095 3.095 0 0 1 3.077-3.077 3.095 3.095 0 0 1 3.077 3.077Z" fill="#F37E60"/><path d="M12.156 72.794a1.172 1.172 0 1 0 0-2.344 1.172 1.172 0 0 0 0 2.344Z" fill="#fff"/><path d="M92.232 59.314a3.095 3.095 0 0 1-3.077 3.077 3.095 3.095 0 0 1-3.077-3.077 3.095 3.095 0 0 1 3.077-3.077 3.095 3.095 0 0 1 3.077 3.077Z" fill="#F37E60"/><path d="M89.156 60.486a1.172 1.172 0 1 0 0-2.344 1.172 1.172 0 0 0 0 2.344Z" fill="#fff"/><path d="M19.409 72.574c-.366 0-.66-.073-1.026-.293-1.831-1.099-2.27-4.908-2.344-5.348l.88-.073c.072 1.099.659 3.956 1.904 4.689.366.22.732.22 1.245 0 2.271-1.026 4.616-8.572 5.348-11.355l.88.22c-.294 1.098-2.784 10.622-5.861 11.94-.367.147-.733.22-1.026.22ZM51.28 74.406c-2.93 0-3.662-4.835-4.029-9.084-.366-4.469-1.392-24.688-1.392-24.908l.88-.073c0 .22 1.098 20.366 1.391 24.834.44 5.568 1.466 8.279 3.15 8.279 1.612 0 2.491-1.026 3.077-2.93l.806.292c-.44 1.319-1.318 3.59-3.882 3.59ZM39.05 67.006h-6.081v-.879h6.08v.88ZM76.551 64.443h-.88c0-.073.22-5.86 4.69-6.3 3.223-.367 4.834 2.857 5.2 4.615l-.878.22c-.074-.147-1.026-4.323-4.25-3.956-3.662.366-3.882 5.42-3.882 5.42ZM80.151 74.699c-3.076 0-4.322-2.71-4.542-4.249l.88-.147c0 .147.512 3.517 3.736 3.444 3.296-.074 4.322-4.323 4.322-4.396l.88.22c-.074.22-1.173 4.981-5.13 5.055-.072.073-.146.073-.146.073ZM94.574 66.347h-.879V54.04h.88v12.307ZM96.247 75.505c-.659 0-1.245-.22-1.684-.66-1.173-1.099-.953-3.296-.953-3.37l.88.074s-.147 1.831.659 2.71c.293.293.732.44 1.318.367 2.125-.22 3.81-3.297 3.883-3.37l.806.44c-.073.146-1.905 3.589-4.542 3.809h-.367Z" fill="#6683C2"/><path d="m26.363 57.703-1.832 2.564 2.345.586-.513-3.15ZM75.82 66.933l1.465-2.783-2.418-.22.953 3.003ZM85.412 67.593l-1.904 2.417 2.344.66-.44-3.078ZM94.21 68.765l1.171-2.857h-2.49l1.318 2.857ZM40.289 66.567l-2.71-1.172v2.344l2.71-1.172ZM55.593 69.13l-2.124 2.052 2.124.953V69.13Z" fill="#6683C2"/></g><defs><clipPath id="a"><path fill="#fff" d="M0 0h98v88H0z"/></clipPath></defs></svg>