<svg width="202" height="90" fill="none" xmlns="http://www.w3.org/2000/svg"><g clip-path="url(#a)"><path d="M135.293 23.265h9.084v15.673h-9.084V23.265Z" fill="#5470AD"/><path d="M131.828 15.264h16.021v8.49h-16.021v-8.49Z" fill="#6683C2"/><path d="M82.93 54.286v36.082h64.744V54.286l-32.372-32c-12.553 12.571-19.655 19.592-32.372 32Z" fill="#FFD981"/><path d="m147.84 54.286-32.373-32c-6.441 6.204-11.396 11.102-16.351 16l-16.186 16v7.347l32.372-32 32.372 32v.98-8.327h.166Z" fill="#F7B64C" fill-opacity=".35"/><path d="M109.521 90.367h-19.49V71.43c0-5.388 4.46-9.633 9.745-9.633 5.45 0 9.745 4.408 9.745 9.633v18.938ZM115.312 61.796h25.436v22.04h-25.436v-22.04Z" fill="#536EAA"/><path d="M117.945 64.408h8.754v16.817h-8.754V64.408Zm11.397 0h8.753v16.817h-8.753V64.408Z" fill="#68CCEA"/><path d="m153.793 47.592-34.52-34.123c-1.982-1.959-5.45-1.959-7.432 0L77.487 47.592c-1.983 1.96-1.983 5.388 0 7.347 1.982 1.96 5.45 1.96 7.432 0l30.721-30.367 30.72 30.367c1.982 1.96 5.451 1.96 7.433 0 1.982-2.122 1.982-5.388 0-7.347Z" fill="#6683C2"/><circle cx="94.802" cy="78.742" r="1.106" fill="#54607B"/></g><defs><clipPath id="a"><path fill="#fff" d="M0 0h202v90H0z"/></clipPath></defs></svg>