<svg width="117" height="105" fill="none" xmlns="http://www.w3.org/2000/svg"><g clip-path="url(#a)"><path stroke="#C9E3F9" stroke-width="1.3" d="M-14 88.35h160M-14 28.35h160M-14 68.35h160M-14 8.35h160M-14 48.35h160M46.65-11v160M106.65-11v160M6.65-11v160M66.65-11v160M26.65-11v160M86.65-11v160"/><path d="m101.605 71.867-83.102-.016c-.202-.06-.405-.12-.345-.323-.142-.263-.142-.263-.082-.465l17.15-45.824c.06-.202.12-.405.323-.345.203.06.465-.082.405.12l65.952 45.84c.203.06.345.323.225.728-.061.203-.121.405-.526.285Zm-82.335-1.11 80.43.103-63.702-44.51L19.27 70.756Z" fill="#6683C2"/><path d="M42.341 71.002c-.673-2.184-2.907-5.053-5.578-4.965-.203-.06-.465.082-.668.022l.027-29.752c.93-.164 1.72-.591 2.507-1.018 2.102-1.139 2.967-3.306 3.427-5.595-.022-.667-1.297-.826-1.336.044-.339 1.883-1.023 3.444-2.66 4.5-.526.285-1.111.772-1.84.996l-.103-9.29c.038-.87-1.298-.826-1.276-.158l.044 9.492c-.93.164-1.538-.016-2.348-.257-.548-.383-1.254.509-.504.952.75.444 1.823.542 2.753.378l-.027 29.752c-1.981.733-3.799 2.397-4.46 4.625-.242.81.831.909 1.214.362.482-1.62 1.774-3 3.433-3.389l-.033 3.076c.022.668 1.095.767 1.133-.104l-.11-3.339c.466-.082.87.039 1.336-.044 1.68.28 3.082 2.24 3.733 3.756-.06.202.143.262.082.465l.203.06c.547.383 1.073.099 1.051-.57Z" fill="#6683C2"/><path d="M14.742 72.008c-.442-1.427-.599-2.942-.943-4.556-.176-.571-.255-1.33-.816-1.625-.187-.098-.57.177-.67.364-.59 1.122-.994 2.342-1.497 3.75-.61 2.066-1.497 3.748-1.921 5.913-.109.66.925.965 1.132.118.305-1.033.512-1.879 1.005-2.814l1.417.03c.472.01 1.132.119 1.604.129.088.286.265.856.255 1.329-.098.187.069 1.23.167 1.043-.482.462.255 1.329.836.68.768-.551-.303-3.504-.569-4.36Zm-2.175.049c-.472-.01-.757.078-1.131-.119l.295-.56 1.212-3.661c-.098.187.089.285.089.285.353 1.142.422 2.372.776 3.514-.099.187.088.285-.01.472-.571.177-.945-.02-1.23.069ZM37.292 19.92c-.805 1.966-3.274 2.114-4.593.62-.63-.85-.673-2.185-.575-3.258-.044-1.335.378-2.753 1.49-3.525 1.899-1.199 3.322 1.429 3.831 2.682.224.728 1.418.422 1.193-.306-.793-1.78-2.277-4.204-4.663-3.591-2.124.47-2.99 2.638-2.984 4.844-.076 1.741.619 4.593 2.381 5.337 1.966.805 4.473-.213 5.075-2.238.24-.81-.975-1.172-1.155-.564ZM107.199 70.827c.285-.09.382-.278.765-.555.479-.466 1.619-.826 1.536-1.584-.158-1.987-3.375-1.753-4.605-1.677-.285.09-.382.278-.382.278-.285.09-.383.277-.293.562-.043 2.835.101 5.767-.13 8.504-.008.472.367.667.652.577l.188.097c1.41.495 5.218-1.337 5.81-2.934.411-2.168-1.561-2.954-3.541-3.268Zm.689-1.785c-.765.555-1.529 1.11-2.481 1.568.014-.945-.069-1.702-.054-2.647.945.015 3.682.246 2.535 1.079Zm.955 5.496c-.48.465-2.766 1.659-3.329 1.366l-.187-.097c.021-1.417.133-2.55.155-3.967.57-.18 1.23-.076 1.89.029.945.015 3.098 1.37 1.471 2.669Z" fill="#F37E60"/></g><defs><clipPath id="a"><path d="M0 0h117v85c0 11.046-8.954 20-20 20H0V0Z" fill="#fff"/></clipPath></defs></svg>