<svg width="146" height="90" fill="none" xmlns="http://www.w3.org/2000/svg"><g clip-path="url(#a)"><path d="M91.55 85.386s8.533-26.957-9.353-40.166c-3.765-2.78-7.04-4.09-14.956-4.061-8.43.031-16.016 7.936-18.996 13.291-5.522 9.921-10.097 30.936-10.097 30.936H91.55Z" fill="#7FCBB4"/><path d="M81.469 85.364a.376.376 0 0 1-.377-.377V69.629c-.003-.072-.477-9.221-1.757-12.783a.375.375 0 0 1 .23-.483.375.375 0 0 1 .483.229c1.32 3.668 1.782 12.641 1.804 13.021V84.99c0 .21-.17.377-.377.377l-.006-.003ZM53.643 82.917a.377.377 0 0 1-.373-.336c-.092-.788-2.234-19.397-1.01-25.935a.379.379 0 0 1 .743.14c-1.205 6.427.998 25.519 1.02 25.71a.38.38 0 0 1-.333.421h-.047Z" fill="#5AAC93"/><path d="M62.295 44.287c-1.895 2.154-3.102 8.747.355 8.923 8.129.417 10.962-10.635 8.785-11.338-4.976-1.611-9.14 2.415-9.14 2.415Z" fill="#F1F2F2"/><path d="M61.945 38.775c0 .842-.493 6.212.888 6.979 4.04 2.242 8.602-2.45 8.602-3.879v-4.61l-9.487 1.513-.003-.003Z" fill="#FBAE96"/><path d="M55.465 17.68c-.396-4.109-2.796-7.538-4.87-5.817-2.073 1.72-4.445 3.533-3.94 5.816.282 1.279 6.93 3.367 6.93 3.367l1.88-3.367Z" fill="#574D4A"/><path d="M51.37 21.687a.378.378 0 0 1-.239-.672c1.322-1.065 1.965-2.202 1.965-3.474a.376.376 0 1 1 .753 0c0 1.495-.756 2.861-2.246 4.064a.374.374 0 0 1-.236.085l.004-.003Z" fill="#DE501D"/><path d="M52.551 27.44c-1.315.296-2.287.635-2.827.098-.54-.54 0-1.932 0-1.932l1.735-.28 1.092 2.114Z" fill="#82512B"/><path d="M76.844 28.838c-1.249 8.621-6.78 15.449-14.542 15.449-5.735 0-9.522-2.874-10.143-8.75-.144-1.366.132-3.263.028-4.064-.172-1.347-1.164-2.842-1.164-4.255 0-8.622 7.405-12.758 15.166-12.758 7.762 0 11.891 5.848 10.655 14.378Z" fill="#FBAE96"/><path d="M60.18 29.614c-.03-.28.631-.842 1.538-.628.904.213 1.575.854 1.28 1.03-.295.176-.957-.37-1.534-.305-.577.063-1.258.1-1.28-.097h-.003ZM55.692 29.777c.032-.28-.63-.841-1.537-.628-.904.214-1.575.854-1.28 1.03.295.176.957-.37 1.534-.304.578.066 1.258.1 1.28-.098h.003Z" fill="#37231B"/><path d="M59.017 24.322c6.607-.647 6.98 2.02 8.87 4.516 1.891 2.497 6.522 2.017 8.649 1.68.725-.113 1.82-4.83 1.519-7.647-.223-2.089-.1-5.926-4.4-8.163-4.297-2.236-5.79-2.738-9.967-1.963-4.172.776-8.706 11.973-4.674 11.577h.003Z" fill="#574D4A"/><path d="M70.258 17.94c.395-4.108 4.414-7.604 6.491-5.882 2.077 1.72 4.019 6.61 2.943 7.358-1.076.748-7.555 1.89-7.555 1.89l-1.88-3.366Z" fill="#574D4A"/><path d="M72.782 21.417c-1.829 0-2.582-1.122-2.833-1.65-.439-.92-.392-2.044.107-2.505a.377.377 0 1 1 .511.555c-.175.164-.285.902.06 1.624.264.553.976 1.439 2.786 1.172a.379.379 0 0 1 .11.75 5.334 5.334 0 0 1-.744.057l.003-.003Z" fill="#503E38"/><path d="M49.233 27.117c2.205 2.868 3.068-4.934 9.199-3.442 2.393.581.514-3.527 2.795-5.12 2.278-1.592 5.91-5.153 1.958-5.668-3.953-.515-9.306 1.771-10.793 4.215-.662 1.086-2.03 2.537-2.227 4.497-.264 2.645-1.566 4.692-.929 5.518h-.003Z" fill="#574D4A"/><path d="M56.602 38.967s.687 1.583 2.519 1.68c1.832.097 2.161-1.664 2.161-1.664-1.612.55-3.008.662-4.68-.016Z" fill="#F1F2F2"/><path d="M61.513 31.806c-.32.12-.643.634-.49 1.394.155.757.722 1.09 1.077.861.355-.23.609-1.29.386-1.734-.223-.442-.769-.596-.976-.518l.003-.003ZM54.34 31.819c-.313.131-.617.659-.432 1.413.185.75.762 1.058 1.11.816.349-.245.556-1.312.317-1.746-.238-.433-.793-.565-.994-.48v-.003Z" fill="#372313"/><path d="M66.12 21.25c-.781-.904-2.243-1.146-3.329-.725-.263.103-.154.527.12.43a2.794 2.794 0 0 1 2.883.622c.213.21.52-.104.326-.327ZM67.614 17.077c-1.334-.32-2.564-.164-3.787.442-.264.132-.031.525.232.396 1.13-.55 2.212-.634 3.436-.399.285.057.41-.37.122-.44h-.003ZM72.961 25.65c-.784.258-1.763-.571-1.732-1.375.013-.289-.426-.286-.445 0-.07 1.068 1.248 2.23 2.3 1.818.266-.106.163-.537-.123-.442ZM54.624 19.429c-.762-.072-1.528.182-1.973.835-.167.242-.248.518-.336.795-.129.405-.267.59-.712.631-.289.028-.298.452 0 .459.659.009.982-.377 1.17-.965.11-.345.213-.656.493-.91.37-.34.875-.43 1.361-.402.289.015.28-.418 0-.443h-.003ZM58.292 15.481c-.506-.129-.844-.5-1.403-.43-.52.066-.935.43-1.255.823-.182.223.12.546.323.323.308-.33.688-.725 1.183-.678.367.034.669.326 1.032.399.283.056.405-.365.12-.437Z" fill="#52413C"/><path d="M62.298 44.538a.252.252 0 0 1 0-.502c2.196 0 4.025-.424 5.43-1.26a.251.251 0 1 1 .258.434c-1.484.882-3.398 1.328-5.688 1.328Z" fill="#C48976"/><path d="M63.719 85.47c0-4.035 5.631-11.887 15.969-11.887s15.633.722 15.633.722V85.32l-31.602.15Z" fill="#7FCBB4"/><path d="M63.54 76.428a.38.38 0 0 1-.135-.732c3.217-1.23 15.337-2.518 18.066-2.483.21 0 .376.172.373.383a.377.377 0 0 1-.376.373h-.006c-2.614-.037-14.712 1.257-17.783 2.434a.41.41 0 0 1-.135.025h-.003Z" fill="#5AAC93"/><path d="M19.253 79.91h38.804a4.14 4.14 0 0 1 4.135 4.14v.642H19.25v-4.785l.003.003Z" fill="#566FA6"/><path d="M52.807 84.695h-42.73L7.27 52.905c-.161-.917.24-1.762 1.158-1.762h40.026c.714 0 1.327.519 1.453 1.233l2.9 32.319Z" fill="#6683C2"/><path d="M31.55 63.1c.112 1.762-1.12 3.276-2.753 3.381-1.632.106-3.049-1.236-3.165-2.999-.115-1.762 1.12-3.276 2.752-3.381 1.633-.106 3.05 1.236 3.165 2.998Z" fill="#DBDBDB"/><path d="M181 84H5a4 4 0 0 0 0 8h176a4 4 0 0 0 0-8Z" fill="#DCBFA3"/><path d="M97.811 52.03c-.51 3.933-4.295 6.589-8.206 5.969a7.177 7.177 0 0 1-5.96-8.215c.619-3.916 4.294-6.59 8.206-5.966 3.912.622 6.34 5.279 5.963 8.215l-.003-.004Z" fill="#FCDCB5"/><path d="M108.69 67.217c.943 8.829 1.15 17.483-10.662 17.483-9.005 0-11.407-6.648-10.912-16.816.486-9.983 3.402-20.343 8.843-17.743 6.031 2.88 11.776 8.168 12.731 17.076Z" fill="#FCDCB5"/><path d="M88.642 57.733a.339.339 0 0 1-.292-.508c2.132-3.705 4.369-4.824 6.665-5.73 2.373-.935 3.145-.44 3.278-.33l-.433.522s.006.006.017.012c-.005-.003-.613-.363-2.611.425-2.178.859-4.304 1.921-6.326 5.438a.34.34 0 0 1-.295.172h-.003Z" fill="#5AAC93"/><path d="M115.65 102.438h-.082a1.843 1.843 0 0 1-1.76-1.921c0-.033.144-3.432-.027-7.064-.294-6.241-1.379-7.333-2.213-7.77-1.238-.596-6.297-1.387-11.137-1.806a1.842 1.842 0 0 1 .319-3.67c2.573.224 11.142 1.047 13.438 2.278 1.209.646 2.019 2.068 2.55 4.476.339 1.531.575 3.514.702 5.893.212 3.965.053 7.669.047 7.825a1.843 1.843 0 0 1-1.84 1.762l.003-.003ZM84.863 49.642l-2.373-3.06a.472.472 0 0 1 .419-.758l3.8.384-1.846 3.434ZM93.7 44.794l-1.358-2.874a.279.279 0 0 0-.525 0l-1.2 2.582 3.084.29v.002ZM90.327 67.914a2.302 2.302 0 0 1-2.004-2.376c.07-1.7-.764-2.596-1.477-3.05-.899-.573-1.757-.556-1.98-.452a2.299 2.299 0 0 1-2.795-3.648c1.648-1.274 4.306-1.33 6.617-.135 2.783 1.437 4.363 4.234 4.227 7.48a2.295 2.295 0 0 1-2.39 2.198c-.068 0-.133-.009-.198-.017ZM93.925 81.225c-.484 0-8.354-.47-8.378 1.675-.026 2.146 1.008 1.762 3.891 1.762s7.42.027 7.42.027l-2.933-3.464Z" fill="#FCDCB5"/></g><defs><clipPath id="a"><path d="M0 0h146v80c0 5.523-4.477 10-10 10H0V0Z" fill="#fff"/></clipPath></defs></svg>