<svg width="236" height="172" fill="none" xmlns="http://www.w3.org/2000/svg"><g clip-path="url(#a)"><path d="M113.891 157.66c-3.191-4.865-6.039-10.163-8.933-14.994-1.174-1.949-2.336-3.977-2.815-6.13-1.184-5.275 1.71-8.944 6.381-7.007 4.512 1.88 6.643 7.28 9.126 11.53 3.008 5.184 7.008 12.294 8.079 18.059.501 2.689-.034 5.549-1.926 6.677-.82.49-1.88.627-2.905.183-1.014-.445-1.869-1.379-2.632-2.313-1.561-1.869-2.997-3.897-4.375-6.005Z" fill="#E9B49C"/><path d="M122.719 144.5s-14.881 9.241-16.111 9.947c-.319.183-4.501-7.075-4.808-7.554-.878-1.379-1.721-2.826-2.37-4.341-.547-1.287-.41-2.917-.354-4.318a27.076 27.076 0 0 1 1.983-9.036c.376-.922.809-1.823 1.424-2.597.502-.627 1.117-1.14 1.721-1.664.102-.091.205-.171.33-.216.171-.057.342-.012.513.034 4.25 1.082 8.34 4.774 10.573 8.306 2.518 3.965 7.099 11.439 7.099 11.439Z" fill="#F37E60"/><path d="M67.433 171.857c.137-1.493.307-25.99.524-27.471.752-5.161 2.04-10.63 5.583-14.641 1.492-1.686 3.316-3.019 5.298-4.067a30.563 30.563 0 0 1 3.43-1.527c1.321-.502 2.894-.786 4.101-1.493.878-.501.752-1.743.764-2.598.023-1.264.182-2.506.148-3.771-.046-1.561-.057-3.122-.137-4.671 1.743-.331 3.156-.49 5.013-.422 1.527.057 3.065-.091 4.592-.011.126.011.262.022.342.091.091.068.103.182.114.296.205 2.108 0 4.238.16 6.346.08 1.071.239 3.92 1.435 4.615 4.706.923 9.184 2.962 11.781 6.209 6.153 7.691 7.03 38.101 6.575 47.068-.399 7.771-51.01 10.095-49.723-3.953Z" fill="#F37E60"/><mask id="b" style="mask-type:luminance" maskUnits="userSpaceOnUse" x="67" y="111" width="51" height="72"><path d="M67.433 171.857c.137-1.493.307-25.99.524-27.471.752-5.161 2.04-10.63 5.583-14.641 1.492-1.686 3.316-3.019 5.298-4.067a30.563 30.563 0 0 1 3.43-1.527c1.321-.502 2.894-.786 4.101-1.493.878-.501.752-1.743.764-2.598.023-1.264.182-2.506.148-3.771-.046-1.561-.057-3.122-.137-4.671 1.743-.331 3.156-.49 5.013-.422 1.527.057 3.065-.091 4.592-.011.126.011.262.022.342.091.091.068.103.182.114.296.205 2.108 0 4.238.16 6.346.08 1.071.239 3.92 1.435 4.615 4.706.923 9.184 2.962 11.781 6.209 6.153 7.691 7.03 38.101 6.575 47.068-.399 7.771-51.01 10.095-49.723-3.953Z" fill="#fff"/></mask><g mask="url(#b)"><path d="M95.497 127.603c-.82.422-1.72.638-2.586.638-2.142 0-4.273-1.185-5.743-3.213-2.245-3.099-2.883-8.169-1.14-11.884.593-1.276 1.493-2.335 2.576-2.837 1.572-.752 3.35-.273 4.876.593a11.176 11.176 0 0 1 5.07 6.244c.924 2.86.661 6.449-.99 8.705a6.25 6.25 0 0 1-2.063 1.754Z" fill="#E9B49C"/><path d="M108.854 99.79c-.057-3.144-.547-6.13-1.413-8.59-3.771-10.665-17.706-13.183-25.989-5.447-9.24 8.637-5.424 29.066 4.49 36.164 2.654 1.903 6.232 2.541 9.422 1.698 9.628-2.563 13.661-14.003 13.49-23.824Z" fill="#D4987C"/></g><path d="M70.148 154.265c4.398-3.817 8.58-8.147 12.681-11.998 1.653-1.561 3.327-3.19 4.376-5.127 2.575-4.751.786-9.07-4.239-8.477-4.854.581-8.374 5.195-11.918 8.625-4.307 4.17-10.095 9.924-12.681 15.188-1.208 2.45-1.47 5.344.034 6.95a3.12 3.12 0 0 0 2.746.957c1.094-.148 2.165-.82 3.167-1.515 1.994-1.39 3.931-2.951 5.834-4.603Z" fill="#E9B49C"/><path d="M61.535 144.5s11.314 7.714 12.362 8.671c.274.251 7.988-6.449 8.386-6.859 1.835-1.857 3.532-3.885 4.82-6.164 1.413-2.473 2.279-5.481 1.903-8.34-.41-3.111-2.063-6.13-3.544-8.853-3.076.524-6.71 1.72-9.297 3.475-1.39.945-2.723 2.575-3.92 3.794-3.304 3.361-10.71 14.276-10.71 14.276Z" fill="#F37E60"/><path d="M136.316 137.06c.912.205 1.709.957 2.074 1.823.877 2.085-.183 3.92-1.049 5.743-2.233 4.717-4.455 9.662-7.349 14.105-1.583 2.439-5.753 9.298-9.787 6.78-.843-.525-1.322-1.482-1.515-2.427-.41-2.017.296-4.045 1.162-5.868 3.224-6.745 8.545-12.442 13.16-18.299.683-.877 1.504-1.823 2.655-1.914.216 0 .444.012.649.057Z" fill="#E9B49C"/><path d="M136.688 141.128c-1.345-.467-2.849-1.276-3.589-2.541-1.117-1.926-.399-4.364-1.219-6.392-.274-.672-.741-1.288-.832-2.028-.126-1.026.9-1.345 1.72-1.037.479.171 1.003.501 1.345.889.456.512.604 1.23.729 1.914l.273 1.47c-.068-.354.479-2.575.559-3.111.182-1.162.501-2.301.968-3.384.342-.786.878-1.641 1.732-1.72.125-.012.251-.012.353.057.114.068.183.193.228.33.194.536.16 1.117.114 1.686-.102 1.208-.296 3.635-.296 3.635s.797-1.47 1.173-2.153c.513-.923.935-1.846 1.561-2.712.194-.274.399-.536.627-.775.342-.353.843-.661 1.288-.478.273.114.455.41.512.695.057.296.012.603-.045.9-.126.626-.319 1.23-.547 1.834-.433 1.174-1.162 3.452-1.162 3.452s1.253-1.059 1.88-1.583c.421-.354.854-.718 1.355-.946.285-.125.604-.205.912-.148.308.057.592.273.672.581.08.33-.102.672-.285.968-.934 1.493-3.27 4.136-3.27 4.136s1.778-1.025 2.769-1.264c.353-.091.741-.137 1.082-.023 1.356.421-.125 1.755-.672 2.233-1.663 1.47-3.281 3.054-5.036 4.41-1.322 1.014-2.826 1.743-4.512 1.253-.125-.069-.251-.103-.387-.148ZM90.094 161.625c.866-1.743-.342-3.338-1.915-3.965-1.845-.741-3.737-1.151-5.628-1.675a165.608 165.608 0 0 0-6.107-1.606c-3.92-.935-8.01-1.584-12.078-1.675-2.597-.057-6.984.057-7.349 3.498-.102.968.365 1.925 1.003 2.666 1.367 1.561 3.44 2.29 5.469 2.757 7.463 1.732 15.405 1.219 23.027 1.356 1.14.023 2.415-.011 3.213-.832.148-.159.273-.33.365-.524Z" fill="#E9B49C"/><path d="M87.546 162.354c1.105.114 2.05.98 3.167 1.197.798.148 1.607-.057 2.325-.411.66-.319 1.333-.535 2.016-.82.525-.228 1.231-.672 1.823-.604 1.573.16 3.214 1.105 4.672 1.675.33.125.684.262 1.025.16.342-.103.581-.547.354-.821.433.331 1.048 1.026 1.663.673.251-.149.376-.513.205-.741.251.216.502.444.821.535.319.092.717 0 .865-.296.069-.137.08-.296.069-.456-.023-.535-.239-1.048-.513-1.504-1.333-2.278-3.988-3.805-6.244-5.013-.398-.216-.809-.433-1.253-.524-.399-.08-.809-.046-1.208-.011-2.62.25-5.195.934-7.588 2.016-.513.24-1.128.137-1.664.092-.398-.035-.82-.069-1.196.091-.422.171-.718.547-.946.934-.421.718-.695 1.652-.558 2.484.114.638.228 1.322.991 1.378.308.023.627-.045.935-.045.09 0 .16 0 .239.011Z" fill="#E9B49C"/><path d="M113.321 99.87c2.222-3.087 3.806-6.881 4.581-10.96 1.299-6.848.102-13.331-3.304-17.797-4.524-5.937-14.96-7.782-21.877-5.777l.126.433c3.407-.991 7.634-1.014 11.61-.08 4.284 1.014 7.759 3.03 9.776 5.686 3.327 4.363 4.501 10.721 3.213 17.432-.763 4.01-2.324 7.737-4.501 10.779l.376.285ZM72.168 102.616l.353-.284c-4.66-5.834-6.985-13.445-6.403-20.885.114-1.493.33-2.678.672-3.715 1.458-4.5 6.506-8.351 11.257-8.59l-.023-.456c-4.922.239-10.163 4.227-11.679 8.898-.353 1.083-.57 2.29-.683 3.828-.593 7.543 1.789 15.28 6.506 21.204Z" fill="#5D4130"/><path d="M105.467 109.806c-1.698.911-3.407 1.8-4.82 3.099-2.028 1.869-3.43 4.569-5.97 5.629-2.04.843-4.41.433-6.403-.513-1.994-.946-3.715-2.37-5.515-3.635-2.245-1.572-4.66-2.905-6.734-4.694-7.258-6.244-9.593-16.521-9.229-25.716.046-1.22.114-2.438.41-3.623 1.129-4.432 3.68-7.873 9.435-11.234-.684-.536-1.447-.547-2.462-.764 2.678-.809 4.934-1.219 7.669-.592A29.81 29.81 0 0 1 89.219 63c-.08.456-.284.889-.592 1.242 2.552-.695 5.822-1.265 8.853-1.083-.422.194-1.857 1.539-2.279 1.732 1.71-.045 3.418.217 5.105.536 2.814.524 5.662 1.173 8.158 2.586 7.406 4.216 9.764 13.753 8.967 21.706a32.696 32.696 0 0 1-3.646 11.997c-1.163 2.165-2.598 4.227-4.512 5.766-1.185.9-2.496 1.617-3.806 2.324Z" fill="#5D4130"/><path d="M112.317 95.826c-.193-4.478-1.356-8.887-3.976-12.465-2.917-3.977-7.543-6.631-12.442-7.144-4.9-.513-9.981 1.128-13.661 4.398-8.124 7.247-7.92 19.518-4 28.872a25.511 25.511 0 0 0 1.664 3.293c3.053 5.07 8.443 9.035 14.356 9.047 5.025.011 9.776-2.86 12.83-6.86 3.042-3.999 4.534-9.001 5.07-13.991.159-1.698.228-3.43.159-5.15Z" fill="#E9B49C"/><path d="M95 104c1.167 1.167 1.5 3 1 3.5-.354.354-1 .5-2 0" stroke="#D4987C" stroke-linecap="round"/><path d="M101.062 112s-1.624 3.69-5.955 3.917c-4.33.227-5.11-3.88-5.11-3.88 3.813 1.281 7.113 1.545 11.065-.037Z" fill="#F1F2F2"/><path d="M76.083 100.258c-5.013-2.085-6.392 3.6-5.457 6.392.387 1.151.968 2.267 1.868 3.19 1.208 1.253 4.638 3.282 6.552 1.823.866-.661.923-1.755.923-2.712.011-2.609-.479-7.28-3.886-8.693ZM111.182 97.9c3.84-2.45 5.276 3.11 4.717 5.958-.227 1.174-.626 2.325-1.287 3.327-.877 1.334-3.464 3.624-5.059 2.313-.729-.592-.843-1.674-.9-2.643-.171-2.598-.068-7.292 2.529-8.956Z" fill="#E9B49C"/><path d="M107.321 94.174c.24.25.479.5.73.74.934.9 2.164 1.755 2.358 3.042.262 1.664.034.957.205 3.737 2.199-4.181 5.868-16.737 4.592-19.118-1.253-2.348-3.532-3.966-5.879-5.219-5.401-2.86-11.633-4.159-17.718-3.578-6.084.582-11.997 3.043-16.623 7.042-1.527 1.322.877 21.717 1.891 22.924.091-3.555.057-3.224.615-6.266.091-.49 2.518-7.43 3.145-9.377.216 1.082.832 2.87 1.048 3.953 1.823-2.552 4.478-6.358 4.934-9.457 1.06 2.017 4.523 5.253 8.237 7.235-.102-1.697-.296-3.554.023-4.933 1.71 2.484 5.036 5.514 7.999 6.437a9.796 9.796 0 0 1 .228-4.489 19.194 19.194 0 0 0 4.215 7.327Z" fill="#D4987C"/><path d="M107.236 92.533c.239.25.478.501.729.74.934.9 2.165 1.755 2.359 3.043.262 1.663.136 2.609.296 5.389 2.199-4.182 4.842-8.204 5.48-12.875.365-2.666.285-5.515-.991-7.885-1.253-2.347-3.532-3.965-5.879-5.218-5.401-2.86-11.633-4.159-17.718-3.578-6.084.581-11.998 3.043-16.623 7.042-1.527 1.321-2.94 2.825-3.783 4.66-.547 1.196-.832 2.53-.74 3.84.102 1.344.717 2.654 1.139 3.93.934 2.86 1.914 5.675 3.144 8.42.559 1.265 1.22 2.507 2.222 3.715.091-3.555-.034-4.877.524-7.919.091-.49 2.518-7.429 3.145-9.377.216 1.082.832 2.871 1.048 3.954 1.823-2.553 4.478-6.358 4.934-9.457 1.06 2.017 4.523 5.252 8.237 7.235-.102-1.698-.296-3.555.023-4.934 1.71 2.484 5.036 5.515 7.999 6.438a9.796 9.796 0 0 1 .228-4.49 19.208 19.208 0 0 0 4.227 7.327Z" fill="#5D4130"/><path d="M106.278 96.373a1.83 1.83 0 0 0 .444-.126c1.139-.5-.216-1.583-.797-1.845-1.015-.468-2.245-.661-3.35-.73-.57-.034-3.35.08-2.53 1.345.581.9 2.45 1.06 3.396 1.196.888.126 1.925.32 2.837.16ZM81.665 97.842a1.897 1.897 0 0 1-.456-.08c-1.196-.364.034-1.594.57-1.925.957-.581 2.142-.923 3.247-1.117.559-.102 3.339-.319 2.678 1.037-.467.957-2.302 1.345-3.225 1.596-.888.216-1.903.535-2.814.49Z" fill="#5D4130"/><path d="M104.026 101.728c-.068 1.424-.831 2.541-1.697 2.506-.866-.045-1.516-1.23-1.447-2.654.068-1.425.831-2.541 1.697-2.507.866.034 1.516 1.231 1.447 2.655ZM87.616 102.343c.262 1.401-.217 2.666-1.071 2.826-.855.159-1.755-.855-2.017-2.256-.262-1.402.216-2.667 1.071-2.826.855-.16 1.755.843 2.017 2.256Z" fill="#252B30"/><path d="M113.731 100.03c-.421.091-.809.33-1.139.627a4.256 4.256 0 0 0-.821 1.037 6.66 6.66 0 0 0-.558 1.184c-.08.206-.148.411-.205.627-.057.217-.114.422-.159.65l-.194 1.025.604-.866c.296-.421.775-.82 1.196-.684.217.057.41.24.581.445.08.102.16.228.228.33a1.376 1.376 0 0 1 .125 1.128 2.506 2.506 0 0 1-.376.741 4.905 4.905 0 0 1-.558.649 5.234 5.234 0 0 1-.661.57 4.597 4.597 0 0 0 1.413-1.071c.194-.228.376-.49.49-.786.114-.296.16-.638.091-.957a2.257 2.257 0 0 0-.159-.467 3.355 3.355 0 0 0-.251-.399c-.182-.251-.433-.502-.786-.615a1.11 1.11 0 0 0-.547-.023 1.303 1.303 0 0 0-.479.205 2.557 2.557 0 0 0-.376.319 2.554 2.554 0 0 0-.307.376l.41.159c.034-.193.08-.41.137-.604.045-.205.102-.41.171-.603.125-.399.273-.787.467-1.163.182-.376.398-.729.672-1.048a2.89 2.89 0 0 1 .991-.786ZM72.41 102.514c.229.057.457.137.662.228.205.102.41.205.604.33.193.126.376.274.535.422.171.159.33.319.479.49.296.353.558.729.786 1.116.114.194.216.399.319.604.102.205.194.422.273.627l.365-.239c-.137-.137-.274-.228-.422-.331a3.247 3.247 0 0 0-.478-.251c-.342-.125-.73-.182-1.105-.091a1.789 1.789 0 0 0-.912.616 3.512 3.512 0 0 0-.296.433c-.091.159-.16.33-.205.524-.034.182-.034.387.011.569.046.183.126.354.217.513.193.308.467.536.74.729.558.388 1.185.65 1.823.821a13.158 13.158 0 0 1-.877-.456 6.662 6.662 0 0 1-.798-.558c-.239-.205-.467-.445-.615-.707a1.104 1.104 0 0 1-.125-.82c.034-.137.09-.274.17-.399.08-.125.172-.262.274-.365.194-.227.433-.398.707-.467.262-.068.558-.034.831.08.137.057.274.125.4.205.124.08.261.182.352.274l.695.638-.33-.866c-.091-.24-.194-.456-.296-.673a6.937 6.937 0 0 0-.365-.626 6.632 6.632 0 0 0-.9-1.14 4.994 4.994 0 0 0-1.15-.865 2.839 2.839 0 0 0-.673-.263 3.496 3.496 0 0 0-.695-.102Z" fill="#D4987C"/><path d="M116.016 148.659a71.745 71.745 0 0 0-.673-5.15l-.102-.638-.114-.638-.114-.638-.125-.638c-.08-.422-.171-.855-.274-1.276a25.126 25.126 0 0 0-.296-1.265c-.103-.422-.205-.843-.33-1.265-.114-.421-.228-.843-.354-1.253l-.193-.627-.205-.615-.206-.615-.227-.616c-.604-1.629-1.322-3.224-2.234-4.694a43.544 43.544 0 0 1 1.892 4.82l.205.615.194.615c.056.205.125.411.182.616l.171.626c.125.41.228.832.342 1.242.113.41.216.832.319 1.254.102.421.205.843.296 1.253l.148.627.137.638.136.626.137.638.262 1.265 1.026 5.093Z" fill="#F37E60"/><path d="M112.972 155.593h34.692v6.786h-34.692v-6.786Z" fill="#8FA9E4"/><path d="m141.696 156.252 8.763-44.578a2.489 2.489 0 0 1 2.456-2.023h58.21c.839 0 1.558.42 2.022 1.034h.015l2.682 3.176-2.382-.525-8.628 43.89a2.49 2.49 0 0 1-2.457 2.022h-58.21a2.52 2.52 0 0 1-2.471-2.996Z" fill="#8FA9E4"/><path d="M205.034 162.379h-58.21a2.495 2.495 0 0 1-2.456-2.996l8.763-44.579a2.489 2.489 0 0 1 2.456-2.022h58.21a2.496 2.496 0 0 1 2.457 2.996l-8.763 44.579a2.478 2.478 0 0 1-2.457 2.022Z" fill="#6683C2"/><path d="M186.731 136.48c-.539 3.01-3.415 5.437-6.411 5.437-2.996 0-4.973-2.442-4.389-5.437.584-3.011 3.46-5.438 6.411-5.438 2.966-.015 4.928 2.427 4.389 5.438Z" fill="#8FA9E4"/><path d="M156.519 162.439h8.614a4.347 4.347 0 0 0 4.344-4.344v-20.432h-17.302v20.432a4.338 4.338 0 0 0 4.344 4.344Z" fill="#D76C50"/><path d="M150.956 143.265c4.15 0 7.505 3.415 7.505 7.625 0 4.209-3.37 7.624-7.505 7.624-4.149 0-7.504-3.415-7.504-7.624 0-4.21 3.355-7.625 7.504-7.625Zm0 12.523c2.667 0 4.839-2.202 4.839-4.898 0-2.712-2.157-4.899-4.839-4.899-2.666 0-4.838 2.202-4.838 4.899 0 2.696 2.172 4.898 4.838 4.898Z" fill="#D76C50"/><path opacity=".2" d="M166.884 153.032c.509 0 .928-.42.928-.929v-12.058a.933.933 0 0 0-.928-.929.933.933 0 0 0-.929.929v12.058a.915.915 0 0 0 .929.929Z" fill="#fff"/><path d="M156.149 137.663v20.402a4.37 4.37 0 0 0 4.374 4.374h-3.999a4.37 4.37 0 0 1-4.374-4.374v-20.402h3.999Z" fill="#C25B40"/><path d="M7.285 172h232.43c2.371 0 4.285-2.235 4.285-5s-1.914-5-4.285-5H7.285C4.914 162 3 164.235 3 167s1.926 5 4.285 5Z" fill="#DABFA6"/><path d="M28.33 154.964h-3.955v-3.954h3.954v3.954ZM35.766 162.676h-18.84a7.71 7.71 0 0 1 7.707-7.707h3.427a7.7 7.7 0 0 1 7.706 7.707Z" fill="#6683C2"/><path opacity=".1" d="M26.338 162.676h9.42a7.705 7.705 0 0 0-7.706-7.707h.263v-3.954h-1.977v11.661Z" fill="#231F20"/><path d="M36.45 110.121c-.623 1.362-1.247 2.724-1.87 4.095-1.503 3.295-3.015 6.59-4.517 9.885-1.81 3.972-3.63 7.935-5.44 11.906-1.563 3.436-3.136 6.863-4.7 10.299a620.832 620.832 0 0 1-1.564 3.418c-.246.536-.457 1.107-.738 1.617a.277.277 0 0 1-.036.07c-.421.914-1.775.123-1.353-.791.624-1.362 1.248-2.724 1.872-4.095 1.502-3.295 3.014-6.59 4.516-9.885 1.81-3.972 3.63-7.934 5.44-11.906 1.563-3.436 3.136-6.863 4.7-10.298a559.477 559.477 0 0 1 1.564-3.418c.246-.536.457-1.107.739-1.617a.258.258 0 0 1 .035-.07c.421-.914 1.775-.123 1.353.79Z" fill="#94AEE8"/><path d="M34.153 110.201c8.33 3.848 14.358 12.424 13.9 21.773-.219 4.552-1.994 8.901-4.973 12.346-2.943 3.4-7.011 5.782-11.36 6.862-5.255 1.301-10.782.703-15.694-1.52-.923-.413-.123-1.766.79-1.353 7.988 3.612 17.882 2.25 24.156-4.024 2.96-2.953 4.929-6.88 5.412-11.054.466-4.077-.404-8.225-2.355-11.827-2.363-4.376-6.168-7.777-10.667-9.85-.914-.422-.123-1.775.791-1.353Z" fill="#6683C2"/><path d="M13.177 143.535c-7.279-7.278-7.279-19.079 0-26.357 7.278-7.278 19.078-7.278 26.356 0 7.278 7.278 7.278 19.079 0 26.357-7.278 7.278-19.078 7.278-26.357 0Z" fill="#A8C0F3"/><mask id="c" style="mask-type:luminance" maskUnits="userSpaceOnUse" x="7" y="111" width="38" height="38"><path d="M13.177 143.535c-7.279-7.278-7.279-19.079 0-26.357 7.278-7.278 19.078-7.278 26.356 0 7.278 7.278 7.278 19.079 0 26.357-7.278 7.278-19.078 7.278-26.357 0Z" fill="#fff"/></mask><g mask="url(#c)" fill="#7089C2"><path d="M21.284 113.109c-.01.062-.018.114-.01.167.036.237.308.351.467.527.158.176.202.431.167.659-.027.237-.132.448-.246.659-.053.097-.106.194-.088.299.026.167.21.255.377.299.528.132 1.951.553 1.442 1.406-.238.395-.8.369-1.257.421-1.09.132-2.03 1.09-2.126 2.18-.01.14-.01.29.07.404.114.175.36.211.571.202.993-.053 1.828-.747 2.575-1.406.413.246.421.852.254 1.3-.166.449-.465.861-.51 1.336a1.868 1.868 0 0 0 1.591 0c.273-.132.571-.334.835-.193.228.114.272.413.404.632.404.668 1.397.457 2.153.615.571.115 1.063.484 1.529.835 1.028.773 2.056 1.547 3.075 2.32.106.079.202.158.273.263.167.282.008.66-.246.87-.255.211-.58.308-.87.466-1.16.606-1.424 1.793-2.039 2.829-.615 1.055-1.388 1.986-2.232 2.865-.966 1.01-1.801 2.082-2.6 3.234-.264.377-.528.764-.677 1.195-.334.957-.08 2.012-.018 3.022.009.167.009.343-.079.483-.088.141-.29.22-.422.123a.407.407 0 0 1-.131-.21c-.229-.528-.563-.932-.94-1.362-.326-.378-.352-.58-.414-1.072-.026-.202-.131-.29-.123-.519.01-.202.176-.369.115-.588-.053-.185-.255-.29-.352-.457-.184-.317.07-.721-.009-1.081-.087-.396-.263-.606-.263-1.019 0-.387.008-.809.132-1.178.087-.255.298-.448.342-.729.035-.202-.009-.422.062-.615.053-.167.184-.299.28-.44.37-.553.29-1.283.203-1.942-.035-.272-.097-.588-.343-.72-.07-.035-.149-.062-.202-.114-.07-.071-.079-.167-.105-.264a1.565 1.565 0 0 0-1.002-1.116c-1.054-.351-.184-1.661.36-2.188.343-.334.738-.606 1.02-1.001.272-.387.413-.932.158-1.336-.352-.58-1.248-.527-1.801-.141-.554.387-.905 1.002-1.389 1.477-.483.474-1.248.799-1.828.456-.166-.096-.316-.254-.51-.263-.263-.009-.447.237-.667.378-.668.439-1.59-.097-2.355.158-.342.114-.615.369-.931.527-.325.158-.773.193-.984-.097-.088-.114-.132-.263-.255-.333-.123-.071-.272-.027-.413-.036-.36-.026-.606-.413-.624-.773-.018-.36.123-.712.228-1.054a5.077 5.077 0 0 0-.22-3.453c-.113-.273-.263-.536-.28-.826-.036-.475.263-.897.553-1.266a16.872 16.872 0 0 1 5.07-4.253 17.334 17.334 0 0 1 3.084-1.318c.686-.211 2.285-.65 2.162.651.018.052.009.079.009.105ZM36.965 116.009c.247.386.501.764.747 1.151.115.167.22.351.229.553.017.44-.457.738-.598 1.151-.237.695.519 1.354 1.24 1.468.5.079 1.15.114 1.309.597.052.167.026.352.07.528.061.237.263.404.413.588.51.615.545 1.564.096 2.223-.21.299-.5.536-.702.844-.203.307-.3.738-.08 1.028.396.536 1.53.29 1.661.94.053.273-.105.642.123.8.088.061.202.061.299.105.228.106.272.422.22.668-.053.246-.159.501-.097.756.316.14.738-.159 1.002.061.079.062.123.167.167.264a14.921 14.921 0 0 0 1.985 3.242c.044.053.106.114.176.123.097 0 .158-.097.194-.176.465-.993.492-2.135.51-3.233.017-1.081.034-2.179-.194-3.234-.211-.94-.615-1.819-1.01-2.697-1.17-2.557-2.338-5.123-3.832-7.504-.474-.756-.993-1.512-1.704-2.056-.528-.396-2.197-1.187-2.76-.449-.377.484.238 1.811.536 2.259Z"/></g><path d="m233.589 87.798 1.856.442-16.869 70.824-1.856-.442 16.869-70.824ZM229.839 87.03l1.856.442-17.304 72.654-1.856-.442 17.304-72.654ZM191.876 49.202l1.28-1.415 37.802 34.207-1.281 1.415-37.801-34.207ZM190.782 53.392l1.28-1.415 37.802 34.208-1.28 1.415-37.802-34.208Z" fill="#6683C2"/><path d="M182.885 159.475h38.365v2.979h-38.365v-2.979Z" fill="#4B67A6"/><path d="M186.92 153.518h30.294a4.042 4.042 0 0 1 4.036 4.035v1.922h-38.365v-1.922a4.042 4.042 0 0 1 4.035-4.035Z" fill="#8FA9E2"/><path d="m179.749 46.981.954-1.652 11.364 6.561-.954 1.653-11.364-6.562Z" fill="#6683C2"/><path d="m225.728 87.508 2.691 3.734c.384.548 1.112.713 1.715.411l5.656-2.882a1.354 1.354 0 0 0 .48-2.004l-4.296-5.875c-.522-.714-1.592-.741-2.141-.055l-4.05 5.024a1.34 1.34 0 0 0-.055 1.647Z" fill="#4B67A6"/><path d="M234.585 87.425c0 .344.274.618.618.618a.615.615 0 0 0 .617-.618.615.615 0 0 0-.617-.617.615.615 0 0 0-.618.617ZM228.812 90.39c0 .343.274.618.617.618a.615.615 0 0 0 .618-.618.615.615 0 0 0-.618-.618.615.615 0 0 0-.617.618ZM226.21 86.67c0 .344.274.618.618.618a.615.615 0 0 0 .617-.617.615.615 0 0 0-.617-.618.624.624 0 0 0-.618.618Z" fill="#fff"/><path d="m195.505 48.47-1.88 7.563a1.094 1.094 0 0 1-1.826.522l-5.614-5.408c-.604-.59-.357-1.606.453-1.84l7.481-2.155a1.1 1.1 0 0 1 1.386 1.318Z" fill="#4B67A6"/><path d="M191.814 55.43c.192.288.576.37.864.178a.622.622 0 0 0 .179-.865.623.623 0 0 0-.865-.178.634.634 0 0 0-.178.864ZM193.564 48.813c.192.288.576.37.864.178a.622.622 0 0 0 .179-.864.623.623 0 0 0-.865-.179.623.623 0 0 0-.178.865ZM186.861 50.858c.192.289.576.37.864.179a.622.622 0 0 0 .179-.865.623.623 0 0 0-.865-.179.622.622 0 0 0-.178.865ZM230.218 81.564c0 .344.274.618.617.618a.615.615 0 0 0 .618-.618.615.615 0 0 0-.618-.617.615.615 0 0 0-.617.617Z" fill="#fff"/><path d="m167.493 49.225 12.353 2.636 3.624-16.925A1.62 1.62 0 0 0 182.207 33l-9.155-1.963a1.622 1.622 0 0 0-1.936 1.262l-3.623 16.925Z" fill="#6683C2"/><path d="m169.011 41.961 12.403 2.654-.703 3.288-12.403-2.653.703-3.289Z" fill="#4B67A6"/><path d="m153 57.338 35.469 7.59-7.769-17.034-12.354-2.65L153 57.339Z" fill="#6683C2"/><path opacity=".1" d="m174.344 46.535-5.999-1.277-15.346 12.093s12.821 2.828 18.009 3.898M168.282 45.23l6.04 1.291 3.116-14.509-4.475-.96a1.6 1.6 0 0 0-1.895 1.235l-2.786 12.944Z" fill="#000"/></g><defs><clipPath id="a"><path fill="#fff" d="M0 0h236v172H0z"/></clipPath></defs></svg>