<svg width="366" height="395" fill="none" xmlns="http://www.w3.org/2000/svg"><g clip-path="url(#a)"><path d="M449.142 135.631c8.329 31.829-10.183 64.244-41.355 72.401-31.164 8.155-63.181-11.037-71.51-42.867-8.329-31.83 10.182-64.245 41.347-72.4 31.172-8.157 63.189 11.036 71.518 42.866Z" fill="#F37E60"/><path d="M309.076 146.203c3.528 13.483-4.9 27.367-18.828 31.012-13.924 3.644-28.073-4.333-31.602-17.816-3.528-13.484 4.9-27.369 18.825-31.012 13.928-3.645 28.076 4.332 31.605 17.816Z" fill="#68CCEA"/><path d="M386.739 292.657c16.023 61.23-20.626 123.851-81.856 139.873-61.224 16.021-123.849-20.621-139.872-81.852-16.022-61.23 20.627-123.855 81.851-139.876 61.231-16.021 123.855 20.626 139.877 81.855Z" fill="#6683C2"/></g><defs><clipPath id="a"><path fill="#fff" d="M0 0h366v395H0z"/></clipPath></defs></svg>