<svg width="333" height="174" viewBox="0 0 333 174" fill="none" xmlns="http://www.w3.org/2000/svg">
<rect y="36" width="333" height="138" rx="7.08257" fill="#77AA51" fill-opacity="0.58"/>
<rect x="9.91797" y="70" width="98" height="95" rx="3.49898" fill="#A6D06A"/>
<path d="M49.3506 145.976C49.3506 146.268 49.3392 146.71 49.3164 147.302C49.2936 147.895 49.2822 148.337 49.2822 148.628C49.2822 148.966 49.2777 149.469 49.2686 150.139C49.2594 150.809 49.2549 151.313 49.2549 151.65C49.2549 152.083 49.2367 152.737 49.2002 153.612C49.1683 154.482 49.1523 155.136 49.1523 155.574C49.1523 155.77 49.0885 155.931 48.9609 156.059C48.8333 156.187 48.6715 156.25 48.4756 156.25C48.2796 156.25 48.1156 156.187 47.9834 156.059C47.8558 155.931 47.792 155.77 47.792 155.574C47.792 155.132 47.8079 154.469 47.8398 153.584C47.8763 152.7 47.8945 152.037 47.8945 151.595C47.8945 151.263 47.9014 150.748 47.915 150.05C47.9242 149.408 47.9287 148.89 47.9287 148.499V148.3C47.6689 148.66 47.2497 149.132 46.6709 149.715C46.0465 150.34 45.6136 150.807 45.3721 151.117C44.6839 152.001 43.9297 153.028 43.1094 154.2C42.8815 154.537 42.5374 155.036 42.0771 155.697C41.904 155.934 41.7103 156.052 41.4961 156.052C41.3001 156.052 41.1247 155.988 40.9697 155.861C40.8193 155.733 40.7487 155.576 40.7578 155.389L40.7646 155.287C40.9242 152.534 41.0039 150.998 41.0039 150.679C41.0039 149.426 40.9788 148.266 40.9287 147.2C40.9242 147.118 40.9105 146.926 40.8877 146.625C40.8695 146.389 40.8604 146.197 40.8604 146.051C40.8604 145.855 40.9242 145.694 41.0518 145.566C41.1794 145.438 41.3411 145.375 41.5371 145.375C41.7331 145.375 41.8949 145.438 42.0225 145.566C42.1501 145.694 42.2139 145.855 42.2139 146.051C42.2139 146.193 42.2253 146.375 42.248 146.598C42.2708 146.885 42.2845 147.068 42.2891 147.145C42.3164 147.783 42.3301 148.576 42.3301 149.524C42.3301 150.613 42.2982 151.68 42.2344 152.723C43.3555 151.06 44.7227 149.456 46.3359 147.911C46.5729 147.678 46.8577 147.336 47.1904 146.885C47.5824 146.357 47.8535 146.006 48.0039 145.833C48.0768 145.486 48.2956 145.313 48.6602 145.313C49.1204 145.313 49.3506 145.534 49.3506 145.976ZM62.373 151.664C62.373 152.789 62.0586 153.81 61.4297 154.726C60.7051 155.788 59.7572 156.319 58.5859 156.319C57.6289 156.319 56.8154 156.034 56.1455 155.464C55.4346 154.863 55.0837 154.086 55.0928 153.133V153.003C54.9652 152.999 54.8649 152.997 54.792 152.997C54.3773 152.997 53.9489 153.033 53.5068 153.106C53.2562 153.152 52.8255 153.224 52.2148 153.325C52.1602 154.131 52.1328 154.899 52.1328 155.628C52.1328 155.829 52.069 155.984 51.9414 156.093C51.8184 156.203 51.6748 156.255 51.5107 156.25C51.1097 156.241 50.9092 156.034 50.9092 155.628C50.9092 154.799 50.9456 153.908 51.0186 152.956C51.1507 151.21 51.2168 150.319 51.2168 150.283C51.2259 150.178 51.2487 149.945 51.2852 149.585C51.3171 149.307 51.333 149.064 51.333 148.854C51.333 148.439 51.5358 148.232 51.9414 148.232C52.347 148.232 52.5498 148.439 52.5498 148.854C52.5498 149.077 52.5361 149.335 52.5088 149.626C52.4678 150.009 52.445 150.253 52.4404 150.358C52.4131 150.805 52.3721 151.37 52.3174 152.053C53.5706 151.853 54.3955 151.752 54.792 151.752C54.874 151.752 55.0381 151.759 55.2842 151.773C55.5576 150.839 55.9997 150.075 56.6104 149.483C57.2985 148.813 58.1006 148.478 59.0166 148.478C61.2542 148.478 62.373 149.54 62.373 151.664ZM61.0127 151.664C61.0127 150.953 60.8623 150.463 60.5615 150.194C60.2653 149.925 59.7503 149.791 59.0166 149.791C58.3011 149.791 57.6859 150.153 57.1709 150.877C56.6878 151.556 56.4463 152.308 56.4463 153.133C56.4463 153.698 56.6559 154.154 57.0752 154.5C57.4762 154.838 57.9798 155.006 58.5859 155.006C59.2923 155.006 59.8848 154.644 60.3633 153.919C60.7962 153.259 61.0127 152.507 61.0127 151.664ZM69.9746 155.464C69.9746 155.665 69.9108 155.827 69.7832 155.95C69.6556 156.077 69.4938 156.141 69.2979 156.141C69.0973 156.141 68.9333 156.077 68.8057 155.95C68.6781 155.827 68.6143 155.665 68.6143 155.464C68.6143 155.113 68.6029 154.268 68.5801 152.928C68.2428 152.915 68.0788 152.908 68.0879 152.908C67.0124 152.908 65.9733 153.031 64.9707 153.277C64.9707 153.537 64.9479 153.919 64.9023 154.425C64.8568 154.913 64.834 155.296 64.834 155.574C64.834 155.774 64.7702 155.938 64.6426 156.066C64.5195 156.194 64.3577 156.257 64.1572 156.257C63.9613 156.257 63.7995 156.194 63.6719 156.066C63.5443 155.938 63.4805 155.774 63.4805 155.574C63.4805 155.41 63.501 155.186 63.542 154.904C63.5876 154.617 63.6104 154.391 63.6104 154.227C63.6104 153.954 63.6035 153.543 63.5898 152.997C63.5762 152.445 63.5693 152.033 63.5693 151.759C63.5693 151.468 63.5693 151.044 63.5693 150.488C63.5739 149.932 63.5762 149.508 63.5762 149.216C63.5762 149.016 63.64 148.854 63.7676 148.731C63.8952 148.603 64.057 148.54 64.2529 148.54C64.4535 148.54 64.6175 148.603 64.7451 148.731C64.8727 148.854 64.9365 149.016 64.9365 149.216C64.9365 149.544 64.9411 149.989 64.9502 150.549C64.9639 151.169 64.973 151.613 64.9775 151.882C66.0986 151.623 67.2926 151.518 68.5596 151.568V151.124C68.5596 150.85 68.5687 150.497 68.5869 150.064C68.6051 149.595 68.6143 149.241 68.6143 149.004C68.6143 148.808 68.6781 148.647 68.8057 148.519C68.9333 148.391 69.0973 148.328 69.2979 148.328C69.4938 148.328 69.6556 148.391 69.7832 148.519C69.9108 148.647 69.9746 148.808 69.9746 149.004C69.9746 149.246 69.9655 149.599 69.9473 150.064C69.929 150.524 69.9199 150.877 69.9199 151.124C69.9199 151.62 69.929 152.345 69.9473 153.297C69.9655 154.245 69.9746 154.968 69.9746 155.464ZM77.084 153.694C77.084 154.496 76.7695 155.093 76.1406 155.485C75.6074 155.822 74.8828 155.991 73.9668 155.991C73.7982 155.991 73.5703 155.986 73.2832 155.977C72.9505 155.959 72.7204 155.95 72.5928 155.95C72.5199 155.968 72.4469 155.977 72.374 155.977C71.9092 155.977 71.6768 155.663 71.6768 155.034C71.6768 154.947 71.7018 154.674 71.752 154.213C71.8158 153.603 71.8477 153.031 71.8477 152.498C71.8477 152.133 71.8249 151.618 71.7793 150.953C71.7383 150.283 71.7178 149.765 71.7178 149.401C71.7178 148.918 71.9388 148.676 72.3809 148.676C72.8503 148.676 73.085 148.886 73.085 149.305C73.085 149.784 73.1146 150.444 73.1738 151.288C73.3971 151.278 73.5726 151.274 73.7002 151.274C74.7985 151.274 75.6051 151.422 76.1201 151.718C76.7627 152.092 77.084 152.75 77.084 153.694ZM75.7646 153.694C75.7646 153.183 75.6074 152.839 75.293 152.662C75.0378 152.511 74.582 152.436 73.9258 152.436C73.748 152.436 73.502 152.445 73.1875 152.463C73.1921 152.559 73.1943 152.65 73.1943 152.737C73.1943 153.083 73.1533 153.771 73.0713 154.801C73.4495 154.81 73.748 154.815 73.9668 154.815C75.1654 154.815 75.7646 154.441 75.7646 153.694Z" fill="#E2FFC5"/>
<rect x="93.4922" y="74.9878" width="9.78997" height="9.78997" rx="0.99559" fill="#E2FFC5"/>
<rect x="14.8438" y="88.0813" width="9.78997" height="9.78997" rx="0.99559" fill="#E2FFC5"/>
<rect x="27.9531" y="88.0813" width="9.78997" height="9.78997" rx="0.99559" fill="#E2FFC5"/>
<rect x="41.0625" y="88.0813" width="9.78997" height="9.78997" rx="0.99559" fill="#E2FFC5"/>
<rect x="54.168" y="88.0813" width="9.78997" height="9.78997" rx="0.99559" fill="#E2FFC5"/>
<rect x="67.2773" y="88.0813" width="9.78997" height="9.78997" rx="0.99559" fill="#E2FFC5"/>
<rect x="80.3867" y="88.0813" width="9.78997" height="9.78997" rx="0.99559" fill="#E2FFC5"/>
<rect x="93.4961" y="88.0813" width="9.78997" height="9.78997" rx="0.99559" fill="#E2FFC5"/>
<rect x="14.8438" y="101.176" width="9.78997" height="9.78997" rx="0.99559" fill="#E2FFC5"/>
<rect x="27.9531" y="101.176" width="9.78997" height="9.78997" rx="0.99559" fill="#E2FFC5"/>
<rect x="41.0625" y="101.176" width="9.78997" height="9.78997" rx="0.99559" fill="#E2FFC5"/>
<rect x="54.168" y="101.176" width="9.78997" height="9.78997" rx="0.99559" fill="#E2FFC5"/>
<rect x="67.2773" y="101.176" width="9.78997" height="9.78997" rx="0.99559" fill="#E2FFC5"/>
<rect x="80.3867" y="101.176" width="9.78997" height="9.78997" rx="0.99559" fill="#E2FFC5"/>
<rect x="93.4961" y="101.176" width="9.78997" height="9.78997" rx="0.99559" fill="#E2FFC5"/>
<rect x="14.8438" y="114.271" width="9.78997" height="9.78997" rx="0.99559" fill="#E2FFC5"/>
<rect x="27.9531" y="114.271" width="9.78997" height="9.78997" rx="0.99559" fill="#E2FFC5"/>
<rect x="41.0625" y="114.271" width="9.78997" height="9.78997" rx="0.99559" fill="#E2FFC5"/>
<rect x="54.168" y="114.271" width="9.78997" height="9.78997" rx="0.99559" fill="#E2FFC5"/>
<rect x="67.2773" y="114.271" width="9.78997" height="9.78997" rx="0.99559" fill="#E2FFC5"/>
<rect x="80.3867" y="114.271" width="9.78997" height="9.78997" rx="0.99559" fill="#E2FFC5"/>
<rect x="93.4961" y="114.271" width="9.78997" height="9.78997" rx="0.99559" fill="#E2FFC5"/>
<rect x="14.8438" y="127.365" width="9.78997" height="9.78997" rx="0.99559" fill="#E2FFC5"/>
<rect x="118" y="71" width="98" height="95" rx="3.49898" fill="#A6D06A"/>
<path d="M156.63 145.976C156.63 146.267 156.618 146.71 156.596 147.302C156.573 147.894 156.562 148.337 156.562 148.628C156.562 148.965 156.557 149.469 156.548 150.139C156.539 150.809 156.534 151.312 156.534 151.65C156.534 152.083 156.516 152.737 156.479 153.612C156.448 154.482 156.432 155.136 156.432 155.573C156.432 155.769 156.368 155.931 156.24 156.059C156.113 156.186 155.951 156.25 155.755 156.25C155.559 156.25 155.395 156.186 155.263 156.059C155.135 155.931 155.071 155.769 155.071 155.573C155.071 155.131 155.087 154.468 155.119 153.584C155.156 152.7 155.174 152.037 155.174 151.595C155.174 151.262 155.181 150.747 155.194 150.05C155.203 149.407 155.208 148.89 155.208 148.498V148.3C154.948 148.66 154.529 149.132 153.95 149.715C153.326 150.339 152.893 150.807 152.651 151.116C151.963 152.001 151.209 153.028 150.389 154.199C150.161 154.537 149.817 155.036 149.356 155.697C149.183 155.934 148.99 156.052 148.775 156.052C148.579 156.052 148.404 155.988 148.249 155.861C148.099 155.733 148.028 155.576 148.037 155.389L148.044 155.286C148.203 152.534 148.283 150.998 148.283 150.679C148.283 149.426 148.258 148.266 148.208 147.199C148.203 147.117 148.19 146.926 148.167 146.625C148.149 146.388 148.14 146.197 148.14 146.051C148.14 145.855 148.203 145.693 148.331 145.566C148.459 145.438 148.62 145.374 148.816 145.374C149.012 145.374 149.174 145.438 149.302 145.566C149.429 145.693 149.493 145.855 149.493 146.051C149.493 146.192 149.505 146.375 149.527 146.598C149.55 146.885 149.564 147.067 149.568 147.145C149.596 147.783 149.609 148.576 149.609 149.524C149.609 150.613 149.577 151.679 149.514 152.723C150.635 151.059 152.002 149.455 153.615 147.91C153.852 147.678 154.137 147.336 154.47 146.885C154.862 146.356 155.133 146.005 155.283 145.832C155.356 145.486 155.575 145.313 155.939 145.313C156.4 145.313 156.63 145.534 156.63 145.976ZM169.652 151.663C169.652 152.789 169.338 153.81 168.709 154.726C167.984 155.788 167.036 156.319 165.865 156.319C164.908 156.319 164.095 156.034 163.425 155.464C162.714 154.863 162.363 154.086 162.372 153.133V153.003C162.244 152.999 162.144 152.996 162.071 152.996C161.657 152.996 161.228 153.033 160.786 153.106C160.535 153.151 160.105 153.224 159.494 153.324C159.439 154.131 159.412 154.899 159.412 155.628C159.412 155.829 159.348 155.984 159.221 156.093C159.098 156.202 158.954 156.255 158.79 156.25C158.389 156.241 158.188 156.034 158.188 155.628C158.188 154.799 158.225 153.908 158.298 152.955C158.43 151.21 158.496 150.319 158.496 150.282C158.505 150.178 158.528 149.945 158.564 149.585C158.596 149.307 158.612 149.063 158.612 148.854C158.612 148.439 158.815 148.232 159.221 148.232C159.626 148.232 159.829 148.439 159.829 148.854C159.829 149.077 159.815 149.335 159.788 149.626C159.747 150.009 159.724 150.253 159.72 150.358C159.692 150.804 159.651 151.369 159.597 152.053C160.85 151.852 161.675 151.752 162.071 151.752C162.153 151.752 162.317 151.759 162.563 151.773C162.837 150.838 163.279 150.075 163.89 149.483C164.578 148.813 165.38 148.478 166.296 148.478C168.534 148.478 169.652 149.54 169.652 151.663ZM168.292 151.663C168.292 150.952 168.142 150.462 167.841 150.194C167.545 149.925 167.03 149.79 166.296 149.79C165.58 149.79 164.965 150.153 164.45 150.877C163.967 151.556 163.726 152.308 163.726 153.133C163.726 153.698 163.935 154.154 164.354 154.5C164.756 154.837 165.259 155.006 165.865 155.006C166.572 155.006 167.164 154.644 167.643 153.919C168.076 153.258 168.292 152.506 168.292 151.663ZM178.334 155.485C178.334 155.681 178.27 155.842 178.143 155.97C178.015 156.098 177.851 156.161 177.65 156.161C177.454 156.161 177.293 156.098 177.165 155.97C177.037 155.842 176.974 155.681 176.974 155.485C176.974 155.334 176.962 155.131 176.939 154.876C176.912 154.585 176.896 154.384 176.892 154.275C176.878 153.906 176.871 153.432 176.871 152.853C176.871 152.994 176.88 152.078 176.898 150.105C176.598 150.146 176.295 150.166 175.989 150.166C175.228 150.166 174.49 150.153 173.774 150.125C173.774 150.312 173.777 150.597 173.781 150.98C173.786 151.358 173.788 151.643 173.788 151.834C173.788 153.274 173.706 154.261 173.542 154.794C173.264 155.674 172.685 156.114 171.806 156.114C171.464 156.114 171.165 156.043 170.91 155.902C170.605 155.728 170.452 155.482 170.452 155.163C170.452 154.995 170.505 154.851 170.609 154.733C170.719 154.614 170.86 154.555 171.033 154.555C171.124 154.555 171.254 154.589 171.423 154.657C171.591 154.726 171.719 154.76 171.806 154.76C172.138 154.76 172.357 154.521 172.462 154.042C172.517 153.769 172.544 153.288 172.544 152.6C172.544 152.244 172.519 151.711 172.469 151C172.423 150.289 172.4 149.758 172.4 149.407C172.4 149.202 172.469 149.038 172.605 148.915C172.747 148.792 172.92 148.731 173.125 148.731C173.243 148.731 173.401 148.738 173.597 148.751C173.843 148.769 174.002 148.779 174.075 148.779C174.576 148.801 175.215 148.813 175.989 148.813C176.158 148.813 176.409 148.781 176.741 148.717C177.074 148.653 177.327 148.621 177.5 148.621C178.006 148.621 178.259 148.84 178.259 149.278C178.259 149.674 178.252 150.267 178.238 151.055C178.229 151.843 178.225 152.436 178.225 152.832C178.225 153.388 178.231 153.853 178.245 154.227C178.25 154.341 178.266 154.55 178.293 154.856C178.32 155.12 178.334 155.33 178.334 155.485ZM185.594 153.694C185.594 154.496 185.279 155.093 184.65 155.485C184.117 155.822 183.393 155.99 182.477 155.99C182.308 155.99 182.08 155.986 181.793 155.977C181.46 155.959 181.23 155.949 181.103 155.949C181.03 155.968 180.957 155.977 180.884 155.977C180.419 155.977 180.187 155.662 180.187 155.033C180.187 154.947 180.212 154.673 180.262 154.213C180.326 153.602 180.357 153.031 180.357 152.497C180.357 152.133 180.335 151.618 180.289 150.952C180.248 150.282 180.228 149.765 180.228 149.401C180.228 148.918 180.449 148.676 180.891 148.676C181.36 148.676 181.595 148.886 181.595 149.305C181.595 149.783 181.624 150.444 181.684 151.287C181.907 151.278 182.082 151.274 182.21 151.274C183.308 151.274 184.115 151.422 184.63 151.718C185.272 152.092 185.594 152.75 185.594 153.694ZM184.274 153.694C184.274 153.183 184.117 152.839 183.803 152.661C183.548 152.511 183.092 152.436 182.436 152.436C182.258 152.436 182.012 152.445 181.697 152.463C181.702 152.559 181.704 152.65 181.704 152.737C181.704 153.083 181.663 153.771 181.581 154.801C181.959 154.81 182.258 154.815 182.477 154.815C183.675 154.815 184.274 154.441 184.274 153.694Z" fill="#E2FFC5"/>
<rect x="135.785" y="74.9878" width="9.78997" height="9.78997" rx="0.99559" fill="#E2FFC5"/>
<rect x="148.895" y="74.9878" width="9.78997" height="9.78997" rx="0.99559" fill="#E2FFC5"/>
<rect x="162.004" y="74.9875" width="9.78997" height="9.78997" rx="0.99559" fill="#E2FFC5"/>
<rect x="175.113" y="74.9878" width="9.78997" height="9.78997" rx="0.99559" fill="#E2FFC5"/>
<rect x="188.223" y="74.9878" width="9.78997" height="9.78997" rx="0.99559" fill="#E2FFC5"/>
<rect x="201.328" y="74.9878" width="9.78997" height="9.78997" rx="0.99559" fill="#E2FFC5"/>
<rect x="122.68" y="88.0813" width="9.78997" height="9.78997" rx="0.99559" fill="#E2FFC5"/>
<rect x="135.789" y="88.0813" width="9.78997" height="9.78997" rx="0.99559" fill="#E2FFC5"/>
<rect x="148.898" y="88.0813" width="9.78997" height="9.78997" rx="0.99559" fill="#E2FFC5"/>
<rect x="162.004" y="88.0813" width="9.78997" height="9.78997" rx="0.99559" fill="#E2FFC5"/>
<rect x="175.113" y="88.0813" width="9.78997" height="9.78997" rx="0.99559" fill="#E2FFC5"/>
<rect x="188.223" y="88.0813" width="9.78997" height="9.78997" rx="0.99559" fill="#E2FFC5"/>
<rect x="201.332" y="88.0813" width="9.78997" height="9.78997" rx="0.99559" fill="#E2FFC5"/>
<rect x="122.68" y="101.176" width="9.78997" height="9.78997" rx="0.99559" fill="#E2FFC5"/>
<rect x="135.789" y="101.176" width="9.78997" height="9.78997" rx="0.99559" fill="#E2FFC5"/>
<rect x="148.898" y="101.176" width="9.78997" height="9.78997" rx="0.99559" fill="#E2FFC5"/>
<rect x="162.004" y="101.176" width="9.78997" height="9.78997" rx="0.99559" fill="#E2FFC5"/>
<rect x="175.113" y="101.176" width="9.78997" height="9.78997" rx="0.99559" fill="#E2FFC5"/>
<rect x="188.223" y="101.176" width="9.78997" height="9.78997" rx="0.99559" fill="#E2FFC5"/>
<rect x="201.332" y="101.176" width="9.78997" height="9.78997" rx="0.99559" fill="#E2FFC5"/>
<rect x="122.68" y="114.271" width="9.78997" height="9.78997" rx="0.99559" fill="#E2FFC5"/>
<rect x="135.789" y="114.271" width="9.78997" height="9.78997" rx="0.99559" fill="#E2FFC5"/>
<rect x="148.898" y="114.271" width="9.78997" height="9.78997" rx="0.99559" fill="#E2FFC5"/>
<rect x="162.004" y="114.271" width="9.78997" height="9.78997" rx="0.99559" fill="#E2FFC5"/>
<rect x="175.113" y="114.271" width="9.78997" height="9.78997" rx="0.99559" fill="#E2FFC5"/>
<rect x="188.223" y="114.271" width="9.78997" height="9.78997" rx="0.99559" fill="#E2FFC5"/>
<rect x="201.332" y="114.271" width="9.78997" height="9.78997" rx="0.99559" fill="#E2FFC5"/>
<rect x="122.68" y="127.365" width="9.78997" height="9.78997" rx="0.99559" fill="#E2FFC5"/>
<rect x="135.789" y="127.365" width="9.78997" height="9.78997" rx="0.99559" fill="#E2FFC5"/>
<rect x="148.898" y="127.365" width="9.78997" height="9.78997" rx="0.99559" fill="#E2FFC5"/>
<rect x="162.004" y="127.365" width="9.78997" height="9.78997" rx="0.99559" fill="#E2FFC5"/>
<rect x="225.918" y="70" width="98" height="95" rx="3.49898" fill="#A6D06A"/>
<path d="M260.269 156.1C259.849 156.1 259.485 155.562 259.175 154.487C259.056 154.077 258.908 153.359 258.73 152.333C258.266 152.397 257.657 152.511 256.905 152.675L255.087 153.051C254.859 153.648 254.469 154.521 253.918 155.669C253.772 155.925 253.574 156.052 253.323 156.052C253.141 156.052 252.977 155.986 252.831 155.854C252.69 155.722 252.619 155.558 252.619 155.362C252.619 155.143 252.963 154.311 253.651 152.867C253.574 152.748 253.535 152.611 253.535 152.457C253.535 152.087 253.758 151.85 254.205 151.746C254.725 150.77 255.381 149.649 256.174 148.382C257.254 146.655 257.926 145.792 258.19 145.792C258.55 145.792 258.797 146.042 258.929 146.543L259.359 148.84L260.378 153.591L260.768 154.671C260.9 155.041 260.966 155.287 260.966 155.41C260.966 155.606 260.895 155.77 260.754 155.902C260.613 156.034 260.451 156.1 260.269 156.1ZM257.855 148.287L255.9 151.438C256.452 151.297 257.288 151.126 258.409 150.925L257.855 148.287ZM268.513 154.111C268.513 154.945 267.866 155.535 266.571 155.881C265.76 156.1 264.773 156.209 263.611 156.209C263.434 156.209 263.263 156.139 263.099 155.998C262.939 155.856 262.859 155.699 262.859 155.526V154.227C262.859 154.213 262.882 152.992 262.928 150.563C262.928 150.335 262.928 150.107 262.928 149.879C262.932 149.601 262.962 149.378 263.017 149.209C263.053 149.082 263.121 148.993 263.222 148.943C263.267 148.916 263.393 148.879 263.598 148.833C263.871 148.765 264.327 148.731 264.965 148.731C265.699 148.731 266.364 148.909 266.961 149.264C267.658 149.679 268.007 150.23 268.007 150.918C268.007 151.556 267.665 152.024 266.981 152.32C267.328 152.47 267.658 152.714 267.973 153.051C268.333 153.434 268.513 153.787 268.513 154.111ZM266.729 150.918C266.729 150.64 266.537 150.397 266.154 150.187C265.817 150 265.498 149.907 265.197 149.907H264.917C264.571 149.907 264.336 149.914 264.213 149.927C264.208 150.082 264.206 150.333 264.206 150.679C264.206 150.766 264.217 150.937 264.24 151.192C264.258 151.406 264.263 151.579 264.254 151.711C264.514 151.739 264.748 151.752 264.958 151.752C265.468 151.752 265.84 151.721 266.072 151.657C266.51 151.534 266.729 151.288 266.729 150.918ZM267.159 154.049C267.159 153.803 266.979 153.571 266.619 153.352C266.341 153.179 266.049 153.06 265.744 152.997C265.566 152.96 265.304 152.94 264.958 152.935C264.525 152.926 264.261 152.917 264.165 152.908C264.147 153.218 264.138 153.48 264.138 153.694V155.027C266.152 154.94 267.159 154.614 267.159 154.049ZM275.424 149.367C275.424 149.708 275.237 149.927 274.863 150.023C274.695 150.064 274.367 150.084 273.879 150.084C273.642 150.084 273.243 150.069 272.683 150.037C272.172 150.009 271.776 149.998 271.493 150.002L271.309 150.009C271.35 150.315 271.395 150.777 271.445 151.397C271.514 153.37 271.548 154.749 271.548 155.533C271.548 155.729 271.484 155.89 271.356 156.018C271.229 156.146 271.065 156.209 270.864 156.209C270.668 156.209 270.507 156.146 270.379 156.018C270.251 155.89 270.188 155.729 270.188 155.533C270.188 154.772 270.156 153.404 270.092 151.431C270.087 151.253 270.058 150.959 270.003 150.549C269.957 150.171 269.935 149.877 269.935 149.667C269.935 148.993 270.461 148.656 271.514 148.656C271.769 148.656 272.154 148.669 272.669 148.697C273.188 148.72 273.576 148.731 273.831 148.731C273.936 148.731 274.091 148.722 274.296 148.704C274.506 148.685 274.663 148.676 274.768 148.676C274.959 148.676 275.116 148.742 275.239 148.875C275.362 149.007 275.424 149.171 275.424 149.367ZM282.52 149.797L280.154 154.911C279.571 156.155 279.124 157.196 278.814 158.035L278.363 159.361C278.245 159.689 278.04 159.853 277.748 159.853C277.557 159.853 277.39 159.789 277.249 159.662C277.112 159.539 277.044 159.384 277.044 159.197C277.044 158.741 277.536 157.422 278.521 155.239L276.073 150.529L275.766 150.03C275.643 149.82 275.581 149.645 275.581 149.503C275.581 149.317 275.652 149.153 275.793 149.011C275.939 148.87 276.101 148.799 276.278 148.799C276.488 148.799 276.65 148.879 276.764 149.039C277.538 150.114 278.37 151.645 279.259 153.632L280.271 151.274C280.635 150.458 280.986 149.756 281.323 149.168C281.469 148.913 281.66 148.786 281.897 148.786C282.084 148.786 282.248 148.852 282.39 148.984C282.535 149.116 282.608 149.273 282.608 149.456C282.608 149.556 282.579 149.67 282.52 149.797ZM286.936 156.326C286.001 156.326 285.222 156.043 284.598 155.478C283.941 154.886 283.613 154.104 283.613 153.133C283.613 152.208 283.921 151.253 284.536 150.269C285.22 149.175 285.99 148.628 286.847 148.628C287.293 148.628 287.792 148.733 288.344 148.943C289.041 149.212 289.39 149.54 289.39 149.927C289.39 150.1 289.333 150.255 289.219 150.392C289.105 150.524 288.964 150.59 288.795 150.59C288.663 150.59 288.547 150.552 288.446 150.474C288.351 150.392 288.257 150.312 288.166 150.235C287.897 150.021 287.457 149.914 286.847 149.914C286.382 149.914 285.922 150.328 285.466 151.158C285.051 151.919 284.844 152.577 284.844 153.133C284.844 153.735 285.049 154.209 285.459 154.555C285.842 154.879 286.334 155.041 286.936 155.041C287.209 155.041 287.501 154.968 287.811 154.822L288.604 154.398C288.74 154.325 288.838 154.289 288.897 154.289C289.066 154.289 289.212 154.357 289.335 154.494C289.458 154.626 289.52 154.778 289.52 154.952C289.52 155.284 289.169 155.606 288.467 155.916C287.852 156.189 287.341 156.326 286.936 156.326ZM296.28 149.38C296.28 149.581 296.216 149.747 296.089 149.879C295.966 150.007 295.806 150.071 295.61 150.071C295.487 150.071 295.303 150.066 295.057 150.057C294.815 150.043 294.633 150.037 294.51 150.037C294.373 150.037 294.204 150.05 294.004 150.078C294.104 152.479 294.154 154.109 294.154 154.965C294.154 155.877 293.913 156.333 293.43 156.333C293.247 156.333 293.088 156.273 292.951 156.155C292.819 156.036 292.753 155.888 292.753 155.71C292.753 155.537 292.76 155.278 292.773 154.931C292.787 154.585 292.794 154.325 292.794 154.152C292.794 153.55 292.748 152.197 292.657 150.091C292.507 150.082 292.217 150.078 291.789 150.078C291.393 150.078 291.117 150.05 290.962 149.996C290.675 149.895 290.531 149.686 290.531 149.367C290.531 149.175 290.59 149.011 290.709 148.875C290.832 148.738 290.992 148.669 291.188 148.669H295.221C295.558 148.669 295.802 148.704 295.952 148.772C296.171 148.877 296.28 149.08 296.28 149.38Z" fill="#E2FFC5"/>
<rect x="282.957" y="74.9878" width="9.78997" height="9.78997" rx="0.99559" fill="#E2FFC5"/>
<rect x="296.066" y="74.9878" width="9.78997" height="9.78997" rx="0.99559" fill="#E2FFC5"/>
<rect x="309.172" y="74.9878" width="9.78997" height="9.78997" rx="0.99559" fill="#E2FFC5"/>
<rect x="230.52" y="88.0818" width="9.78997" height="9.78997" rx="0.99559" fill="#E2FFC5"/>
<rect x="243.629" y="88.0818" width="9.78997" height="9.78997" rx="0.99559" fill="#E2FFC5"/>
<rect x="256.738" y="88.0818" width="9.78997" height="9.78997" rx="0.99559" fill="#E2FFC5"/>
<rect x="269.844" y="88.0818" width="9.78997" height="9.78997" rx="0.99559" fill="#E2FFC5"/>
<rect x="282.953" y="88.0818" width="9.78997" height="9.78997" rx="0.99559" fill="#E2FFC5"/>
<rect x="296.062" y="88.0818" width="9.78997" height="9.78997" rx="0.99559" fill="#E2FFC5"/>
<rect x="309.172" y="88.0818" width="9.78997" height="9.78997" rx="0.99559" fill="#E2FFC5"/>
<rect x="230.52" y="101.176" width="9.78997" height="9.78997" rx="0.99559" fill="#E2FFC5"/>
<rect x="243.629" y="101.176" width="9.78997" height="9.78997" rx="0.99559" fill="#E2FFC5"/>
<rect x="256.738" y="101.176" width="9.78997" height="9.78997" rx="0.99559" fill="#E2FFC5"/>
<rect x="269.844" y="101.176" width="9.78997" height="9.78997" rx="0.99559" fill="#E2FFC5"/>
<rect x="282.953" y="101.176" width="9.78997" height="9.78997" rx="0.99559" fill="#E2FFC5"/>
<rect x="296.062" y="101.176" width="9.78997" height="9.78997" rx="0.99559" fill="#E2FFC5"/>
<rect x="309.172" y="101.176" width="9.78997" height="9.78997" rx="0.99559" fill="#E2FFC5"/>
<rect x="230.52" y="114.271" width="9.78997" height="9.78997" rx="0.99559" fill="#E2FFC5"/>
<rect x="243.629" y="114.271" width="9.78997" height="9.78997" rx="0.99559" fill="#E2FFC5"/>
<rect x="256.738" y="114.271" width="9.78997" height="9.78997" rx="0.99559" fill="#E2FFC5"/>
<rect x="269.844" y="114.271" width="9.78997" height="9.78997" rx="0.99559" fill="#E2FFC5"/>
<rect x="282.953" y="114.271" width="9.78997" height="9.78997" rx="0.99559" fill="#E2FFC5"/>
<rect x="296.062" y="114.271" width="9.78997" height="9.78997" rx="0.99559" fill="#E2FFC5"/>
<rect x="309.172" y="114.271" width="9.78997" height="9.78997" rx="0.99559" fill="#E2FFC5"/>
<rect x="230.52" y="127.365" width="9.78997" height="9.78997" rx="0.99559" fill="#E2FFC5"/>
<rect x="243.629" y="127.365" width="9.78997" height="9.78997" rx="0.99559" fill="#E2FFC5"/>
<rect x="256.738" y="127.365" width="9.78997" height="9.78997" rx="0.99559" fill="#E2FFC5"/>
<rect x="269.844" y="127.365" width="9.78997" height="9.78997" rx="0.99559" fill="#E2FFC5"/>
<rect x="282.953" y="127.365" width="9.78997" height="9.78997" rx="0.99559" fill="#E2FFC5"/>
<rect x="296.062" y="127.365" width="9.78997" height="9.78997" rx="0.99559" fill="#E2FFC5"/>
<rect x="309.172" y="127.365" width="9.78997" height="9.78997" rx="0.99559" fill="#E2FFC5"/>
<g filter="url(#filter0_d_142_19276)">
<rect x="69" y="11" width="179" height="40" rx="20" fill="white" shape-rendering="crispEdges"/>
<path d="M116.664 36.4795C116.664 37.6221 116.327 38.1934 115.653 38.1934C115.272 38.1934 115.021 38.0117 114.897 37.6484C114.827 37.4434 114.792 37.1035 114.792 36.6289C114.792 36.084 114.801 35.2666 114.818 34.1768C114.836 33.0869 114.845 32.2695 114.845 31.7246C114.845 31.1328 114.83 30.251 114.801 29.0791C114.771 27.9014 114.757 27.0225 114.757 26.4424L113.702 26.4512C113.298 26.4512 112.691 26.4365 111.883 26.4072C111.074 26.3779 110.468 26.3633 110.063 26.3633C109.847 26.3633 109.554 26.3662 109.185 26.3721C109.278 27.2568 109.325 28.2588 109.325 29.3779C109.325 29.9346 109.308 30.7695 109.272 31.8828C109.243 32.9902 109.229 33.8223 109.229 34.3789C109.229 35.6504 109.021 36.5732 108.604 37.1475C108.112 37.8271 107.251 38.167 106.021 38.167C105.774 38.167 105.566 38.085 105.396 37.9209C105.232 37.751 105.15 37.54 105.15 37.2881C105.15 36.8311 105.353 36.5615 105.757 36.4795C106.419 36.3506 106.794 36.2568 106.882 36.1982C107.286 35.9229 107.488 35.3164 107.488 34.3789C107.488 33.8223 107.503 32.9902 107.532 31.8828C107.567 30.7695 107.585 29.9346 107.585 29.3779C107.585 28.0713 107.515 26.9316 107.374 25.959C107.286 25.8125 107.242 25.6514 107.242 25.4756C107.242 25.2295 107.321 25.0215 107.479 24.8516C107.644 24.6816 107.849 24.5967 108.095 24.5967C108.312 24.5967 108.637 24.6113 109.07 24.6406C109.51 24.6699 109.841 24.6846 110.063 24.6846H115.618C115.864 24.6846 116.075 24.7695 116.251 24.9395C116.433 25.1094 116.523 25.3174 116.523 25.5635C116.523 26.7764 116.547 28.5957 116.594 31.0215C116.641 33.4473 116.664 35.2666 116.664 36.4795ZM123.563 38.4043C122.239 38.4043 121.167 38.0732 120.347 37.4111C119.45 36.6787 119.002 35.6533 119.002 34.335C119.002 32.8115 119.371 31.5342 120.109 30.5029C120.912 29.3779 121.984 28.8154 123.326 28.8154C124.299 28.8154 125.093 28.9795 125.708 29.3076C126.464 29.7119 126.842 30.333 126.842 31.1709C126.842 31.7568 126.511 32.29 125.849 32.7705C125.556 32.9814 124.935 33.3096 123.985 33.7549L120.628 35.3457C120.956 35.832 121.363 36.1982 121.85 36.4443C122.342 36.6904 122.913 36.8135 123.563 36.8135C123.968 36.8135 124.442 36.7373 124.987 36.585C125.679 36.3916 126.124 36.1396 126.323 35.8291C126.522 35.5127 126.736 35.3545 126.965 35.3545C127.17 35.3545 127.352 35.4336 127.51 35.5918C127.674 35.7441 127.756 35.9229 127.756 36.1279C127.756 36.7783 127.231 37.3379 126.183 37.8066C125.286 38.2051 124.413 38.4043 123.563 38.4043ZM123.326 30.3975C122.611 30.3975 122.017 30.6758 121.542 31.2324C121.067 31.7832 120.713 32.6152 120.479 33.7285L123.177 32.4453C124.237 31.9297 124.993 31.4814 125.444 31.1006C124.94 30.6318 124.234 30.3975 123.326 30.3975ZM136.062 29.624C136.062 29.8818 135.979 30.0957 135.815 30.2656C135.657 30.4297 135.452 30.5117 135.2 30.5117C135.042 30.5117 134.805 30.5059 134.488 30.4941C134.178 30.4766 133.943 30.4678 133.785 30.4678C133.609 30.4678 133.393 30.4854 133.135 30.5205C133.264 33.6084 133.328 35.7031 133.328 36.8047C133.328 37.9766 133.018 38.5625 132.396 38.5625C132.162 38.5625 131.957 38.4863 131.781 38.334C131.611 38.1816 131.526 37.9912 131.526 37.7627C131.526 37.54 131.535 37.2061 131.553 36.7607C131.57 36.3154 131.579 35.9814 131.579 35.7588C131.579 34.9854 131.521 33.2451 131.403 30.5381C131.21 30.5264 130.838 30.5205 130.287 30.5205C129.777 30.5205 129.423 30.4854 129.224 30.415C128.854 30.2861 128.67 30.0166 128.67 29.6064C128.67 29.3604 128.746 29.1494 128.898 28.9736C129.057 28.7979 129.262 28.71 129.514 28.71H134.699C135.133 28.71 135.446 28.7539 135.64 28.8418C135.921 28.9766 136.062 29.2373 136.062 29.624ZM145.598 37.4463C145.598 37.7041 145.516 37.9121 145.352 38.0703C145.188 38.2344 144.979 38.3164 144.728 38.3164C144.47 38.3164 144.259 38.2344 144.095 38.0703C143.931 37.9121 143.849 37.7041 143.849 37.4463C143.849 36.9951 143.834 35.9082 143.805 34.1855C143.371 34.168 143.16 34.1592 143.172 34.1592C141.789 34.1592 140.453 34.3174 139.164 34.6338C139.164 34.9678 139.135 35.46 139.076 36.1104C139.018 36.7373 138.988 37.2295 138.988 37.5869C138.988 37.8447 138.906 38.0557 138.742 38.2197C138.584 38.3838 138.376 38.4658 138.118 38.4658C137.866 38.4658 137.658 38.3838 137.494 38.2197C137.33 38.0557 137.248 37.8447 137.248 37.5869C137.248 37.376 137.274 37.0889 137.327 36.7256C137.386 36.3564 137.415 36.0664 137.415 35.8555C137.415 35.5039 137.406 34.9766 137.389 34.2734C137.371 33.5645 137.362 33.0342 137.362 32.6826C137.362 32.3076 137.362 31.7627 137.362 31.0479C137.368 30.333 137.371 29.7881 137.371 29.4131C137.371 29.1553 137.453 28.9473 137.617 28.7891C137.781 28.625 137.989 28.543 138.241 28.543C138.499 28.543 138.71 28.625 138.874 28.7891C139.038 28.9473 139.12 29.1553 139.12 29.4131C139.12 29.835 139.126 30.4062 139.138 31.127C139.155 31.9238 139.167 32.4951 139.173 32.8408C140.614 32.5068 142.149 32.3721 143.778 32.4365V31.8652C143.778 31.5137 143.79 31.0596 143.813 30.5029C143.837 29.8994 143.849 29.4453 143.849 29.1406C143.849 28.8887 143.931 28.6807 144.095 28.5166C144.259 28.3525 144.47 28.2705 144.728 28.2705C144.979 28.2705 145.188 28.3525 145.352 28.5166C145.516 28.6807 145.598 28.8887 145.598 29.1406C145.598 29.4512 145.586 29.9053 145.562 30.5029C145.539 31.0947 145.527 31.5488 145.527 31.8652C145.527 32.5039 145.539 33.4355 145.562 34.6602C145.586 35.8789 145.598 36.8076 145.598 37.4463ZM156.716 35.6006C156.716 35.8291 156.704 36.1689 156.681 36.6201C156.657 37.0713 156.646 37.4111 156.646 37.6396C156.646 37.8857 156.561 38.0908 156.391 38.2549C156.227 38.4248 156.021 38.5098 155.775 38.5098C155.523 38.5098 155.312 38.4248 155.143 38.2549C154.979 38.0908 154.896 37.8857 154.896 37.6396C154.896 37.2588 154.914 36.6904 154.949 35.9346C154.984 35.1787 155.002 34.6104 155.002 34.2295C155.002 33.5088 154.946 32.8232 154.835 32.1729C154.12 33.2275 153.602 33.9629 153.279 34.3789C152.658 35.1758 152.046 35.832 151.442 36.3477C150.646 37.0215 150.054 37.5605 149.667 37.9648C149.356 38.2871 149.031 38.4482 148.691 38.4482C148.434 38.4482 148.211 38.3809 148.023 38.2461C147.818 38.0938 147.716 37.8916 147.716 37.6396C147.716 35.9697 147.687 34.2295 147.628 32.4189C147.563 30.5381 147.531 29.6211 147.531 29.668C147.531 29.0703 147.824 28.7715 148.41 28.7715C148.908 28.7715 149.198 29.0527 149.28 29.6152C149.292 29.7031 149.312 30.2803 149.342 31.3467L149.447 35.7148C150.332 34.9355 151.255 33.9512 152.216 32.7617C152.515 32.3926 153.332 31.3203 154.668 29.5449C155.014 29.082 155.383 28.8506 155.775 28.8506C156.021 28.8506 156.227 28.9326 156.391 29.0967C156.561 29.2607 156.646 29.4688 156.646 29.7207C156.646 30.3711 156.657 31.3525 156.681 32.665C156.704 33.9717 156.716 34.9502 156.716 35.6006ZM168.177 35.6006C168.177 35.8291 168.165 36.1689 168.142 36.6201C168.118 37.0713 168.106 37.4111 168.106 37.6396C168.106 37.8857 168.021 38.0908 167.852 38.2549C167.688 38.4248 167.482 38.5098 167.236 38.5098C166.984 38.5098 166.773 38.4248 166.604 38.2549C166.439 38.0908 166.357 37.8857 166.357 37.6396C166.357 37.2588 166.375 36.6904 166.41 35.9346C166.445 35.1787 166.463 34.6104 166.463 34.2295C166.463 33.5088 166.407 32.8232 166.296 32.1729C165.581 33.2275 165.062 33.9629 164.74 34.3789C164.119 35.1758 163.507 35.832 162.903 36.3477C162.106 37.0215 161.515 37.5605 161.128 37.9648C160.817 38.2871 160.492 38.4482 160.152 38.4482C159.895 38.4482 159.672 38.3809 159.484 38.2461C159.279 38.0938 159.177 37.8916 159.177 37.6396C159.177 35.9697 159.147 34.2295 159.089 32.4189C159.024 30.5381 158.992 29.6211 158.992 29.668C158.992 29.0703 159.285 28.7715 159.871 28.7715C160.369 28.7715 160.659 29.0527 160.741 29.6152C160.753 29.7031 160.773 30.2803 160.803 31.3467L160.908 35.7148C161.793 34.9355 162.716 33.9512 163.677 32.7617C163.976 32.3926 164.793 31.3203 166.129 29.5449C166.475 29.082 166.844 28.8506 167.236 28.8506C167.482 28.8506 167.688 28.9326 167.852 29.0967C168.021 29.2607 168.106 29.4688 168.106 29.7207C168.106 30.3711 168.118 31.3525 168.142 32.665C168.165 33.9717 168.177 34.9502 168.177 35.6006ZM163.325 26.3193C165.042 26.3193 166.026 25.8506 166.278 24.9131C166.378 24.5439 166.589 24.3594 166.911 24.3594C167.099 24.3594 167.26 24.4209 167.395 24.5439C167.535 24.667 167.6 24.8193 167.588 25.001L167.57 25.124C167.5 26.0146 166.984 26.6826 166.023 27.1279C165.273 27.4678 164.374 27.6377 163.325 27.6377C162.493 27.6377 161.764 27.3564 161.137 26.7939C160.492 26.2197 160.17 25.5195 160.17 24.6934C160.17 24.2539 160.387 24.0342 160.82 24.0342C161.26 24.0342 161.479 24.2539 161.479 24.6934C161.479 25.1504 161.676 25.54 162.068 25.8623C162.438 26.167 162.856 26.3193 163.325 26.3193ZM183.479 37.332C183.479 37.5664 183.385 37.7568 183.197 37.9033C183.016 38.0498 182.811 38.123 182.582 38.123C182.172 38.123 181.888 37.915 181.729 37.499C181.577 37.083 181.152 36.3799 180.455 35.3896C179.711 34.3408 179.23 33.8135 179.014 33.8076C178.955 33.8076 178.604 33.8076 177.959 33.8076C177.959 34.001 177.956 34.3438 177.95 34.8359C177.944 35.293 177.941 35.6387 177.941 35.873C177.941 36.834 177.927 37.3818 177.897 37.5166C177.804 37.9912 177.517 38.2285 177.036 38.2285C176.79 38.2285 176.579 38.1553 176.403 38.0088C176.233 37.8623 176.148 37.6689 176.148 37.4287C176.148 37.1533 176.16 36.7227 176.184 36.1367C176.207 35.5449 176.219 35.1084 176.219 34.8271C176.219 34.2705 176.198 33.4355 176.157 32.3223C176.116 31.209 176.096 30.3711 176.096 29.8086C176.096 29.0527 176.397 28.6748 177.001 28.6748C177.247 28.6748 177.455 28.751 177.625 28.9033C177.795 29.0557 177.88 29.249 177.88 29.4834C177.88 29.9111 177.9 30.7754 177.941 32.0762C178.1 32.0762 178.313 32.0762 178.583 32.0762C179.298 32.0293 179.813 31.71 180.13 31.1182C180.224 30.9014 180.347 30.6201 180.499 30.2744C180.95 29.3369 181.51 28.8682 182.178 28.8682C182.389 28.8682 182.608 28.918 182.837 29.0176C183.13 29.1465 183.276 29.3164 183.276 29.5273C183.276 29.9902 183.077 30.2217 182.679 30.2217C182.351 30.2217 182.011 30.6143 181.659 31.3994C181.413 31.9326 181.275 32.2285 181.246 32.2871C181.064 32.6211 180.862 32.8789 180.64 33.0605C181.226 33.4766 181.841 34.1621 182.485 35.1172C183.147 36.0957 183.479 36.834 183.479 37.332ZM192.707 30.1602L189.666 36.7344C188.916 38.334 188.342 39.6729 187.943 40.751L187.363 42.4561C187.211 42.8779 186.947 43.0889 186.572 43.0889C186.326 43.0889 186.112 43.0068 185.931 42.8428C185.755 42.6846 185.667 42.4854 185.667 42.2451C185.667 41.6592 186.3 39.9629 187.565 37.1562L184.419 31.1006L184.023 30.459C183.865 30.1895 183.786 29.9639 183.786 29.7822C183.786 29.542 183.877 29.3311 184.059 29.1494C184.246 28.9678 184.454 28.877 184.683 28.877C184.952 28.877 185.16 28.9795 185.307 29.1846C186.303 30.5674 187.372 32.5361 188.515 35.0908L189.815 32.0586C190.284 31.0098 190.735 30.1074 191.169 29.3516C191.356 29.0234 191.603 28.8594 191.907 28.8594C192.147 28.8594 192.358 28.9443 192.54 29.1143C192.728 29.2842 192.821 29.4863 192.821 29.7207C192.821 29.8496 192.783 29.9961 192.707 30.1602ZM198.147 38.3076C197.562 38.3076 196.917 38.2139 196.214 38.0264L196.196 42.2275C196.196 42.4854 196.114 42.6963 195.95 42.8604C195.792 43.0244 195.587 43.1064 195.335 43.1064C195.083 43.1064 194.875 43.0244 194.711 42.8604C194.553 42.6963 194.474 42.4854 194.474 42.2275L194.5 38.7119V35.2051C194.482 33.9219 194.438 32.7529 194.368 31.6982L194.236 29.9141C194.236 29.498 194.312 29.1465 194.465 28.8594C194.641 28.5137 194.896 28.3408 195.229 28.3408C195.458 28.3408 195.648 28.4229 195.801 28.5869C195.959 28.7451 196.038 28.9414 196.038 29.1758C196.038 29.2285 196.029 29.3252 196.012 29.4658C195.982 29.6475 195.962 29.8145 195.95 29.9668C196.454 29.6211 196.94 29.3633 197.409 29.1934C197.878 29.0176 198.326 28.9297 198.754 28.9297C199.955 28.9297 200.834 29.4629 201.391 30.5293C201.83 31.373 202.05 32.4893 202.05 33.8779C202.05 35.1436 201.71 36.1865 201.03 37.0068C200.31 37.874 199.349 38.3076 198.147 38.3076ZM198.754 30.6875C198.215 30.6875 197.729 30.8076 197.295 31.0479C196.984 31.2178 196.592 31.5283 196.117 31.9795C196.193 33.3096 196.231 34.707 196.231 36.1719C196.87 36.418 197.509 36.541 198.147 36.541C198.88 36.541 199.439 36.2686 199.826 35.7236C200.16 35.249 200.327 34.6338 200.327 33.8779C200.327 32.8115 200.195 32.0146 199.932 31.4873C199.674 30.9541 199.281 30.6875 198.754 30.6875ZM208.018 38.5537C206.816 38.5537 205.814 38.1904 205.012 37.4639C204.168 36.7021 203.746 35.6973 203.746 34.4492C203.746 33.2598 204.142 32.0322 204.933 30.7666C205.812 29.3604 206.802 28.6572 207.903 28.6572C208.478 28.6572 209.119 28.792 209.828 29.0615C210.725 29.4072 211.173 29.8291 211.173 30.3271C211.173 30.5498 211.1 30.749 210.953 30.9248C210.807 31.0947 210.625 31.1797 210.408 31.1797C210.238 31.1797 210.089 31.1299 209.96 31.0303C209.837 30.9248 209.717 30.8223 209.6 30.7227C209.254 30.4473 208.688 30.3096 207.903 30.3096C207.306 30.3096 206.714 30.8428 206.128 31.9092C205.595 32.8877 205.328 33.7344 205.328 34.4492C205.328 35.2227 205.592 35.832 206.119 36.2773C206.611 36.6934 207.244 36.9014 208.018 36.9014C208.369 36.9014 208.744 36.8076 209.143 36.6201L210.162 36.0752C210.338 35.9814 210.464 35.9346 210.54 35.9346C210.757 35.9346 210.944 36.0225 211.103 36.1982C211.261 36.3682 211.34 36.5645 211.34 36.7871C211.34 37.2148 210.889 37.6279 209.986 38.0264C209.195 38.3779 208.539 38.5537 208.018 38.5537Z" fill="#003C56"/>
</g>
<defs>
<filter id="filter0_d_142_19276" x="56.4728" y="0.0996937" width="204.054" height="65.0544" filterUnits="userSpaceOnUse" color-interpolation-filters="sRGB">
<feFlood flood-opacity="0" result="BackgroundImageFix"/>
<feColorMatrix in="SourceAlpha" type="matrix" values="0 0 0 0 0 0 0 0 0 0 0 0 0 0 0 0 0 0 127 0" result="hardAlpha"/>
<feOffset dy="1.62691"/>
<feGaussianBlur stdDeviation="6.26361"/>
<feComposite in2="hardAlpha" operator="out"/>
<feColorMatrix type="matrix" values="0 0 0 0 0 0 0 0 0 0 0 0 0 0 0 0 0 0 0.06 0"/>
<feBlend mode="normal" in2="BackgroundImageFix" result="effect1_dropShadow_142_19276"/>
<feBlend mode="normal" in="SourceGraphic" in2="effect1_dropShadow_142_19276" result="shape"/>
</filter>
</defs>
</svg>
