<svg width="65" height="17" viewBox="0 0 65 17" fill="none" xmlns="http://www.w3.org/2000/svg">
<path d="M1.28244 7.44344C6.14239 3.54577 12.2439 2.02214 18.0262 0.640234C22.0703 0.108733 27.5687 -1.27318 30.3002 3.01426C29.4489 4.6442 28.633 6.30957 27.8525 8.01037C32.6415 6.4513 36.8984 3.01427 41.9357 2.55363C45.5896 3.40404 45.2703 9.17968 42.2195 10.6679C48.3211 8.32927 54.7064 5.49461 61.34 6.27414C62.0495 6.77021 63.3975 7.72691 64.107 8.22298C54.8838 11.0222 45.696 13.8923 36.4727 16.6916C37.3951 13.1128 39.2042 9.92377 40.5168 6.52217C34.8409 7.65604 29.9455 12.5104 24.0923 12.1206C23.3828 9.14424 24.6244 6.27414 25.2629 3.43947C17.2103 4.0064 9.93812 7.97494 2.80784 11.66C-0.420305 13.6443 -0.775052 8.75447 1.28244 7.44344Z" fill="#215730"/>
</svg>
