<svg width="289" height="227" viewBox="0 0 289 227" fill="none" xmlns="http://www.w3.org/2000/svg">
<path d="M39.6406 0H234.783C238.53 0 241.567 3.03729 241.567 6.78398V203.165H39.6406V0Z" fill="white"/>
<line x1="37.7757" y1="160.426" x2="240.941" y2="160.426" stroke="#6583C4" stroke-opacity="0.1" stroke-width="1.23881" stroke-linecap="round"/>
<line x1="37.7757" y1="119.545" x2="240.941" y2="119.545" stroke="#6583C4" stroke-opacity="0.1" stroke-width="1.23881" stroke-linecap="round"/>
<line x1="37.7757" y1="78.6648" x2="240.941" y2="78.6647" stroke="#6583C4" stroke-opacity="0.1" stroke-width="1.23881" stroke-linecap="round"/>
<line x1="37.7757" y1="37.7839" x2="240.941" y2="37.7839" stroke="#6583C4" stroke-opacity="0.1" stroke-width="1.23881" stroke-linecap="round"/>
<line x1="81.1428" y1="0.619406" x2="81.1428" y2="205.023" stroke="#6583C4" stroke-opacity="0.1" stroke-width="1.23881" stroke-linecap="round"/>
<line x1="128.221" y1="0.619406" x2="128.221" y2="205.023" stroke="#6583C4" stroke-opacity="0.1" stroke-width="1.23881" stroke-linecap="round"/>
<line x1="175.291" y1="0.619406" x2="175.291" y2="205.023" stroke="#6583C4" stroke-opacity="0.1" stroke-width="1.23881" stroke-linecap="round"/>
<line x1="223.596" y1="0.619406" x2="223.596" y2="205.023" stroke="#6583C4" stroke-opacity="0.1" stroke-width="1.23881" stroke-linecap="round"/>
<path d="M40.8672 170.337C56.9717 169.717 64.4046 161.665 80.5092 161.045C96.6137 160.426 112.718 135.65 127.584 120.784C142.45 105.918 164.129 102.821 169.704 79.2839C175.278 55.7465 185.808 52.6494 193.241 37.7837" stroke="#6683C2" stroke-width="1.23881"/>
<line x1="39.9632" y1="0.619406" x2="39.9631" y2="208.327" stroke="#B4C2E2" stroke-width="1.23881" stroke-linecap="round"/>
<path d="M70.0356 226.553H63.0784V225.602L66.7651 222.094C67.439 221.449 67.9543 220.87 68.3111 220.354C68.6679 219.839 68.8463 219.309 68.8463 218.764C68.8463 218.377 68.7571 218.025 68.5787 217.708C68.4003 217.381 68.1476 217.124 67.8206 216.935C67.4935 216.747 67.107 216.653 66.661 216.653C66.0565 216.653 65.5114 216.821 65.0258 217.158C64.5501 217.485 64.1388 217.931 63.7919 218.496L63.0041 217.768C63.4996 217.074 64.0546 216.554 64.669 216.207C65.2934 215.86 65.9722 215.686 66.7056 215.686C67.3696 215.686 67.9444 215.825 68.4301 216.103C68.9157 216.38 69.2923 216.757 69.5598 217.233C69.8373 217.698 69.9761 218.224 69.9761 218.808C69.9761 219.264 69.877 219.7 69.6788 220.116C69.4905 220.523 69.2031 220.944 68.8166 221.38C68.44 221.816 67.9593 222.307 67.3746 222.852C67.0475 223.159 66.7205 223.466 66.3934 223.773C66.0664 224.081 65.7394 224.388 65.4123 224.695C65.0952 224.992 64.7731 225.295 64.446 225.602H70.0356V226.553ZM75.9916 226.791C75.1889 226.791 74.4951 226.573 73.9104 226.137C73.3356 225.691 72.8946 225.057 72.5873 224.234C72.2801 223.402 72.1265 222.406 72.1265 221.246C72.1265 219.502 72.4684 218.139 73.1522 217.158C73.8361 216.177 74.7825 215.686 75.9916 215.686C77.2007 215.686 78.1471 216.177 78.831 217.158C79.5148 218.139 79.8567 219.502 79.8567 221.246C79.8567 222.406 79.7031 223.402 79.3959 224.234C79.0886 225.057 78.6476 225.691 78.0728 226.137C77.498 226.573 76.8043 226.791 75.9916 226.791ZM75.9916 225.825C76.8538 225.825 77.5178 225.429 77.9836 224.636C78.4593 223.843 78.6972 222.713 78.6972 221.246C78.6972 219.77 78.4593 218.635 77.9836 217.842C77.5178 217.049 76.8538 216.653 75.9916 216.653C75.1294 216.653 74.4604 217.049 73.9847 217.842C73.5189 218.635 73.286 219.77 73.286 221.246C73.286 222.713 73.5189 223.843 73.9847 224.636C74.4604 225.429 75.1294 225.825 75.9916 225.825ZM88.5306 226.553H81.5735V225.602L85.2602 222.094C85.9341 221.449 86.4494 220.87 86.8062 220.354C87.163 219.839 87.3414 219.309 87.3414 218.764C87.3414 218.377 87.2522 218.025 87.0738 217.708C86.8954 217.381 86.6427 217.124 86.3156 216.935C85.9886 216.747 85.6021 216.653 85.1561 216.653C84.5516 216.653 84.0065 216.821 83.5209 217.158C83.0452 217.485 82.6339 217.931 82.287 218.496L81.4991 217.768C81.9946 217.074 82.5496 216.554 83.1641 216.207C83.7884 215.86 84.4673 215.686 85.2007 215.686C85.8647 215.686 86.4395 215.825 86.9251 216.103C87.4107 216.38 87.7873 216.757 88.0549 217.233C88.3324 217.698 88.4712 218.224 88.4712 218.808C88.4712 219.264 88.372 219.7 88.1738 220.116C87.9855 220.523 87.6981 220.944 87.3116 221.38C86.935 221.816 86.4544 222.307 85.8697 222.852C85.5426 223.159 85.2156 223.466 84.8885 223.773C84.5615 224.081 84.2344 224.388 83.9074 224.695C83.5902 224.992 83.2681 225.295 82.9411 225.602H88.5306V226.553ZM97.4152 226.553H90.4581V225.602L94.1448 222.094C94.8187 221.449 95.334 220.87 95.6908 220.354C96.0476 219.839 96.226 219.309 96.226 218.764C96.226 218.377 96.1368 218.025 95.9584 217.708C95.78 217.381 95.5273 217.124 95.2002 216.935C94.8732 216.747 94.4867 216.653 94.0407 216.653C93.4362 216.653 92.8911 216.821 92.4055 217.158C91.9298 217.485 91.5185 217.931 91.1716 218.496L90.3837 217.768C90.8792 217.074 91.4342 216.554 92.0487 216.207C92.673 215.86 93.3519 215.686 94.0853 215.686C94.7493 215.686 95.3241 215.825 95.8097 216.103C96.2953 216.38 96.6719 216.757 96.9395 217.233C97.217 217.698 97.3558 218.224 97.3558 218.808C97.3558 219.264 97.2567 219.7 97.0584 220.116C96.8701 220.523 96.5827 220.944 96.1962 221.38C95.8196 221.816 95.339 222.307 94.7543 222.852C94.4272 223.159 94.1002 223.466 93.7731 223.773C93.4461 224.081 93.119 224.388 92.792 224.695C92.4748 224.992 92.1527 225.295 91.8257 225.602H97.4152V226.553Z" fill="#676767"/>
<path d="M3.97667 155.223H5.07673V165.852H3.97667V156.442L1.25624 158.597V157.378L3.97667 155.223ZM14.2051 165.852H13.105V163.131H7.48579V162.21L13.105 155.223H14.2051V162.21H15.8701V163.131H14.2051V165.852ZM13.105 156.65L8.66019 162.21H13.105V156.65ZM18.0328 167.65H17.2895C17.5075 167.333 17.681 166.991 17.8098 166.625C17.9387 166.268 17.9932 165.961 17.9733 165.703L18.0923 165.956C17.8643 165.956 17.6711 165.881 17.5125 165.733C17.3539 165.574 17.2747 165.381 17.2747 165.153C17.2747 164.925 17.349 164.732 17.4976 164.573C17.6562 164.415 17.8445 164.335 18.0625 164.335C18.3202 164.335 18.5283 164.425 18.6869 164.603C18.8554 164.781 18.9396 165.014 18.9396 165.302C18.9396 165.54 18.895 165.797 18.8058 166.075C18.7265 166.362 18.6175 166.64 18.4788 166.907C18.34 167.185 18.1914 167.432 18.0328 167.65ZM24.3608 154.985C25.1339 154.985 25.8078 155.153 26.3826 155.49C26.9574 155.827 27.4034 156.293 27.7205 156.888C28.0475 157.472 28.2111 158.151 28.2111 158.924C28.2111 159.658 28.0525 160.406 27.7354 161.169C27.4281 161.932 26.9425 162.705 26.2785 163.488C25.6145 164.261 24.7622 165.049 23.7216 165.852H22.131C23.1518 165.089 23.9842 164.39 24.6284 163.756C25.2825 163.111 25.788 162.502 26.1447 161.927C26.5114 161.342 26.7691 160.768 26.9178 160.203L27.2002 160.351C26.9227 160.906 26.5114 161.357 25.9663 161.704C25.4312 162.041 24.8266 162.21 24.1527 162.21C23.5085 162.21 22.909 162.061 22.354 161.764C21.799 161.456 21.353 161.04 21.0161 160.515C20.6791 159.98 20.5106 159.365 20.5106 158.672C20.5106 157.978 20.6741 157.353 21.0012 156.798C21.3381 156.243 21.794 155.802 22.3688 155.475C22.9536 155.148 23.6176 154.985 24.3608 154.985ZM24.3608 155.966C23.8455 155.966 23.3847 156.085 22.9783 156.323C22.572 156.551 22.2499 156.868 22.0121 157.274C21.7742 157.68 21.6553 158.136 21.6553 158.642C21.6553 159.137 21.7742 159.583 22.0121 159.98C22.2499 160.376 22.572 160.688 22.9783 160.916C23.3847 161.144 23.8455 161.258 24.3608 161.258C24.8861 161.258 25.3469 161.144 25.7434 160.916C26.1497 160.688 26.4668 160.376 26.6948 159.98C26.9326 159.583 27.0515 159.137 27.0515 158.642C27.0515 158.136 26.9326 157.68 26.6948 157.274C26.4668 156.868 26.1497 156.551 25.7434 156.323C25.3469 156.085 24.8861 155.966 24.3608 155.966Z" fill="#676767"/>
<path d="M6.02401 114.342H7.12408V124.971H6.02401V115.561L3.30358 117.716V116.497L6.02401 114.342ZM10.2913 122.399C10.6382 122.944 11.0544 123.39 11.54 123.737C12.0256 124.074 12.5955 124.242 13.2496 124.242C13.7649 124.242 14.2158 124.123 14.6024 123.886C14.9889 123.638 15.2911 123.306 15.5092 122.89C15.7371 122.463 15.8511 121.993 15.8511 121.477C15.8511 120.982 15.7421 120.546 15.524 120.169C15.306 119.783 15.0037 119.48 14.6172 119.262C14.2406 119.044 13.8046 118.935 13.309 118.935C12.7739 118.935 12.2982 119.064 11.8819 119.322C11.4756 119.57 11.1238 119.912 10.8265 120.348L10.3656 120.303C10.4945 119.817 10.7026 119.401 10.99 119.054C11.2873 118.707 11.6441 118.44 12.0603 118.252C12.4865 118.063 12.9572 117.969 13.4726 117.969C14.1564 117.969 14.7609 118.123 15.2862 118.43C15.8213 118.727 16.2425 119.143 16.5498 119.679C16.857 120.204 17.0106 120.803 17.0106 121.477C17.0106 122.191 16.8471 122.83 16.52 123.395C16.193 123.96 15.747 124.406 15.1821 124.733C14.6172 125.05 13.973 125.209 13.2496 125.209C12.4468 125.209 11.7283 125.03 11.094 124.674C10.4697 124.307 9.93947 123.782 9.50341 123.098L10.2913 122.399ZM16.297 115.293H11.0494L11.4211 115.026L10.8265 120.348H9.80072L10.4845 114.342H16.297V115.293ZM19.2672 126.77H18.5239C18.7419 126.452 18.9154 126.111 19.0442 125.744C19.173 125.387 19.2275 125.08 19.2077 124.822L19.3266 125.075C19.0987 125.075 18.9054 125.001 18.7469 124.852C18.5883 124.693 18.509 124.5 18.509 124.272C18.509 124.044 18.5834 123.851 18.732 123.692C18.8906 123.534 19.0789 123.455 19.2969 123.455C19.5546 123.455 19.7627 123.544 19.9213 123.722C20.0897 123.9 20.174 124.133 20.174 124.421C20.174 124.659 20.1294 124.916 20.0402 125.194C19.9609 125.481 19.8519 125.759 19.7131 126.026C19.5744 126.304 19.4257 126.552 19.2672 126.77ZM25.5952 114.104C26.3682 114.104 27.0422 114.272 27.617 114.609C28.1918 114.946 28.6377 115.412 28.9549 116.007C29.2819 116.592 29.4454 117.27 29.4454 118.043C29.4454 118.777 29.2869 119.525 28.9697 120.288C28.6625 121.051 28.1769 121.824 27.5129 122.607C26.8489 123.38 25.9966 124.168 24.956 124.971H23.3654C24.3861 124.208 25.2186 123.509 25.8628 122.875C26.5169 122.231 27.0223 121.621 27.3791 121.046C27.7458 120.462 28.0035 119.887 28.1521 119.322L28.4346 119.471C28.1571 120.025 27.7458 120.476 27.2007 120.823C26.6656 121.16 26.061 121.329 25.3871 121.329C24.7429 121.329 24.1433 121.18 23.5883 120.883C23.0334 120.576 22.5874 120.159 22.2504 119.634C21.9135 119.099 21.745 118.484 21.745 117.791C21.745 117.097 21.9085 116.473 22.2356 115.918C22.5725 115.363 23.0284 114.922 23.6032 114.595C24.1879 114.267 24.8519 114.104 25.5952 114.104ZM25.5952 115.085C25.0799 115.085 24.619 115.204 24.2127 115.442C23.8064 115.67 23.4843 115.987 23.2464 116.393C23.0086 116.8 22.8897 117.256 22.8897 117.761C22.8897 118.256 23.0086 118.702 23.2464 119.099C23.4843 119.495 23.8064 119.807 24.2127 120.035C24.619 120.263 25.0799 120.377 25.5952 120.377C26.1205 120.377 26.5813 120.263 26.9777 120.035C27.3841 119.807 27.7012 119.495 27.9291 119.099C28.167 118.702 28.2859 118.256 28.2859 117.761C28.2859 117.256 28.167 116.8 27.9291 116.393C27.7012 115.987 27.3841 115.67 26.9777 115.442C26.5813 115.204 26.1205 115.085 25.5952 115.085Z" fill="#676767"/>
<path d="M4.3396 73.4612H5.43966V84.0902H4.3396V74.6802L1.61917 76.8357V75.6167L4.3396 73.4612ZM11.8476 84.3281C11.0746 84.3281 10.4007 84.1596 9.82587 83.8226C9.25106 83.4857 8.80013 83.0199 8.47309 82.4252C8.15595 81.8306 7.99738 81.1517 7.99738 80.3886C7.99738 79.6553 8.15595 78.907 8.47309 78.1439C8.79022 77.3808 9.27584 76.6078 9.92993 75.8249C10.5939 75.0419 11.4462 74.254 12.4868 73.4612H14.0775C13.0666 74.2243 12.2341 74.928 11.58 75.5721C10.9259 76.2064 10.4155 76.811 10.0489 77.3858C9.69208 77.9606 9.43936 78.5354 9.2907 79.1102L9.00825 78.9615C9.28575 78.4065 9.69208 77.9606 10.2272 77.6236C10.7723 77.2767 11.3818 77.1033 12.0557 77.1033C12.6999 77.1033 13.2995 77.2569 13.8545 77.5642C14.4095 77.8615 14.8554 78.2777 15.1924 78.8129C15.5294 79.3381 15.6978 79.9476 15.6978 80.6414C15.6978 81.3351 15.5294 81.9595 15.1924 82.5144C14.8654 83.0694 14.4095 83.5104 13.8248 83.8375C13.2499 84.1645 12.5909 84.3281 11.8476 84.3281ZM11.8476 83.3469C12.363 83.3469 12.8238 83.228 13.2301 82.9901C13.6365 82.7523 13.9585 82.4352 14.1964 82.0387C14.4342 81.6324 14.5532 81.1765 14.5532 80.6711C14.5532 80.1657 14.4342 79.7197 14.1964 79.3332C13.9585 78.9368 13.6365 78.6246 13.2301 78.3966C12.8238 78.1687 12.363 78.0547 11.8476 78.0547C11.3323 78.0547 10.8714 78.1687 10.4651 78.3966C10.0588 78.6246 9.73668 78.9368 9.49882 79.3332C9.27088 79.7197 9.15691 80.1657 9.15691 80.6711C9.15691 81.1765 9.27088 81.6324 9.49882 82.0387C9.73668 82.4352 10.0588 82.7523 10.4651 82.9901C10.8714 83.228 11.3323 83.3469 11.8476 83.3469ZM18.0328 85.889H17.2895C17.5075 85.5718 17.681 85.2299 17.8098 84.8632C17.9387 84.5065 17.9932 84.1992 17.9733 83.9416L18.0923 84.1943C17.8643 84.1943 17.6711 84.1199 17.5125 83.9713C17.3539 83.8127 17.2746 83.6195 17.2746 83.3915C17.2746 83.1636 17.349 82.9703 17.4976 82.8118C17.6562 82.6532 17.8445 82.5739 18.0625 82.5739C18.3202 82.5739 18.5283 82.6631 18.6869 82.8415C18.8554 83.0199 18.9396 83.2528 18.9396 83.5402C18.9396 83.778 18.895 84.0357 18.8058 84.3132C18.7265 84.6006 18.6175 84.8781 18.4788 85.1457C18.34 85.4232 18.1914 85.6709 18.0328 85.889ZM24.3608 73.2234C25.1339 73.2234 25.8078 73.3918 26.3826 73.7288C26.9574 74.0657 27.4034 74.5315 27.7205 75.1262C28.0475 75.7109 28.2111 76.3898 28.2111 77.1628C28.2111 77.8962 28.0525 78.6444 27.7354 79.4075C27.4281 80.1706 26.9425 80.9436 26.2785 81.7266C25.6145 82.4996 24.7622 83.2875 23.7216 84.0902H22.131C23.1518 83.3271 23.9842 82.6284 24.6284 81.9941C25.2825 81.35 25.788 80.7405 26.1447 80.1657C26.5114 79.5809 26.7691 79.0061 26.9178 78.4412L27.2002 78.5899C26.9227 79.1449 26.5114 79.5958 25.9663 79.9427C25.4312 80.2796 24.8266 80.4481 24.1527 80.4481C23.5085 80.4481 22.909 80.2994 22.354 80.0021C21.799 79.6949 21.353 79.2787 21.0161 78.7534C20.6791 78.2182 20.5106 77.6038 20.5106 76.9101C20.5106 76.2163 20.6741 75.592 21.0012 75.037C21.3381 74.482 21.794 74.041 22.3688 73.7139C22.9536 73.3869 23.6176 73.2234 24.3608 73.2234ZM24.3608 74.2045C23.8455 74.2045 23.3847 74.3234 22.9783 74.5613C22.572 74.7892 22.2499 75.1063 22.0121 75.5127C21.7742 75.919 21.6553 76.3749 21.6553 76.8803C21.6553 77.3759 21.7742 77.8218 22.0121 78.2182C22.2499 78.6147 22.572 78.9268 22.9783 79.1548C23.3847 79.3827 23.8455 79.4967 24.3608 79.4967C24.8861 79.4967 25.3469 79.3827 25.7434 79.1548C26.1497 78.9268 26.4668 78.6147 26.6948 78.2182C26.9326 77.8218 27.0515 77.3759 27.0515 76.8803C27.0515 76.3749 26.9326 75.919 26.6948 75.5127C26.4668 75.1063 26.1497 74.7892 25.7434 74.5613C25.3469 74.3234 24.8861 74.2045 24.3608 74.2045Z" fill="#676767"/>
<path d="M3.94763 32.5801H5.0477V43.2091H3.94763V33.7991L1.2272 35.9546V34.7356L3.94763 32.5801ZM11.4556 43.447C10.7124 43.447 10.0484 43.3132 9.46363 43.0456C8.87891 42.778 8.41808 42.4113 8.08112 41.9455C7.74416 41.4698 7.57568 40.9297 7.57568 40.3252C7.57568 39.7404 7.74416 39.2201 8.08112 38.7643C8.41808 38.3084 8.87891 37.9516 9.46363 37.6939C10.0484 37.4263 10.7124 37.2925 11.4556 37.2925C12.2088 37.2925 12.8728 37.4263 13.4477 37.6939C14.0324 37.9516 14.4932 38.3084 14.8302 38.7643C15.1671 39.2201 15.3356 39.7404 15.3356 40.3252C15.3356 40.9297 15.1671 41.4698 14.8302 41.9455C14.4932 42.4113 14.0324 42.778 13.4477 43.0456C12.8728 43.3132 12.2088 43.447 11.4556 43.447ZM11.4556 37.9169C10.7817 37.9169 10.1821 37.8029 9.65689 37.575C9.13163 37.3471 8.71539 37.0349 8.40817 36.6385C8.11085 36.2321 7.96219 35.7812 7.96219 35.2857C7.96219 34.7109 8.11085 34.2054 8.40817 33.7694C8.71539 33.3234 9.13163 32.9765 9.65689 32.7288C10.1821 32.4711 10.7817 32.3423 11.4556 32.3423C12.1296 32.3423 12.7291 32.4711 13.2544 32.7288C13.7797 32.9765 14.1909 33.3234 14.4883 33.7694C14.7955 34.2054 14.9491 34.7109 14.9491 35.2857C14.9491 35.7812 14.7955 36.2321 14.4883 36.6385C14.1909 37.0349 13.7797 37.3471 13.2544 37.575C12.7291 37.8029 12.1296 37.9169 11.4556 37.9169ZM11.4556 42.4807C11.9611 42.4807 12.417 42.3865 12.8233 42.1982C13.2395 42.0099 13.5666 41.7523 13.8044 41.4252C14.0522 41.0982 14.1761 40.7315 14.1761 40.3252C14.1761 39.9089 14.0522 39.5422 13.8044 39.2251C13.5666 38.898 13.2395 38.6404 12.8233 38.4521C12.417 38.2638 11.9611 38.1696 11.4556 38.1696C10.9502 38.1696 10.4894 38.2638 10.0731 38.4521C9.6668 38.6404 9.33975 38.898 9.09199 39.2251C8.85414 39.5422 8.73521 39.9089 8.73521 40.3252C8.73521 40.7315 8.85414 41.0982 9.09199 41.4252C9.33975 41.7523 9.6668 42.0099 10.0731 42.1982C10.4894 42.3865 10.9502 42.4807 11.4556 42.4807ZM11.4556 37.2033C11.8917 37.2033 12.2832 37.1191 12.63 36.9506C12.9868 36.7822 13.2693 36.5542 13.4774 36.2668C13.6855 35.9695 13.7896 35.6424 13.7896 35.2857C13.7896 34.9091 13.6855 34.5721 13.4774 34.2748C13.2693 33.9775 12.9868 33.7446 12.63 33.5761C12.2832 33.3977 11.8917 33.3085 11.4556 33.3085C11.0295 33.3085 10.638 33.3977 10.2812 33.5761C9.92447 33.7446 9.64202 33.9775 9.4339 34.2748C9.22578 34.5721 9.12172 34.9091 9.12172 35.2857C9.12172 35.6424 9.22578 35.9695 9.4339 36.2668C9.64202 36.5542 9.92447 36.7822 10.2812 36.9506C10.638 37.1191 11.0295 37.2033 11.4556 37.2033ZM17.6699 45.0079H16.9266C17.1446 44.6907 17.318 44.3488 17.4469 43.9821C17.5757 43.6253 17.6302 43.3181 17.6104 43.0604L17.7293 43.3132C17.5014 43.3132 17.3081 43.2388 17.1496 43.0902C16.991 42.9316 16.9117 42.7384 16.9117 42.5104C16.9117 42.2825 16.986 42.0892 17.1347 41.9307C17.2933 41.7721 17.4816 41.6928 17.6996 41.6928C17.9573 41.6928 18.1654 41.782 18.324 41.9604C18.4924 42.1388 18.5767 42.3717 18.5767 42.6591C18.5767 42.8969 18.5321 43.1546 18.4429 43.4321C18.3636 43.7195 18.2546 43.997 18.1158 44.2646C17.9771 44.5421 17.8284 44.7898 17.6699 45.0079ZM24.1912 43.447C23.3884 43.447 22.6947 43.2289 22.11 42.7929C21.5352 42.3469 21.0941 41.7126 20.7869 40.8901C20.4797 40.0576 20.3261 39.0616 20.3261 37.902C20.3261 36.1578 20.668 34.7951 21.3518 33.814C22.0356 32.8328 22.9821 32.3423 24.1912 32.3423C25.4002 32.3423 26.3467 32.8328 27.0305 33.814C27.7143 34.7951 28.0563 36.1578 28.0563 37.902C28.0563 39.0616 27.9026 40.0576 27.5954 40.8901C27.2882 41.7126 26.8472 42.3469 26.2724 42.7929C25.6976 43.2289 25.0038 43.447 24.1912 43.447ZM24.1912 42.4807C25.0534 42.4807 25.7174 42.0843 26.1832 41.2914C26.6589 40.4986 26.8967 39.3688 26.8967 37.902C26.8967 36.4254 26.6589 35.2906 26.1832 34.4978C25.7174 33.7049 25.0534 33.3085 24.1912 33.3085C23.329 33.3085 22.66 33.7049 22.1843 34.4978C21.7185 35.2906 21.4856 36.4254 21.4856 37.902C21.4856 39.3688 21.7185 40.4986 22.1843 41.2914C22.66 42.0843 23.329 42.4807 24.1912 42.4807Z" fill="#676767"/>
<line x1="81.1428" y1="200.068" x2="81.1428" y2="205.023" stroke="#6583C4" stroke-width="1.23881" stroke-linecap="round"/>
<line x1="37.7757" y1="160.426" x2="42.7309" y2="160.426" stroke="#6583C4" stroke-width="1.23881" stroke-linecap="round"/>
<path d="M117.106 226.553H110.149V225.602L113.836 222.094C114.51 221.449 115.025 220.87 115.382 220.354C115.739 219.839 115.917 219.309 115.917 218.764C115.917 218.377 115.828 218.025 115.65 217.708C115.471 217.381 115.218 217.123 114.891 216.935C114.564 216.747 114.178 216.653 113.732 216.653C113.127 216.653 112.582 216.821 112.097 217.158C111.621 217.485 111.21 217.931 110.863 218.496L110.075 217.768C110.57 217.074 111.125 216.554 111.74 216.207C112.364 215.86 113.043 215.686 113.776 215.686C114.44 215.686 115.015 215.825 115.501 216.103C115.987 216.38 116.363 216.757 116.631 217.232C116.908 217.698 117.047 218.223 117.047 218.808C117.047 219.264 116.948 219.7 116.75 220.116C116.561 220.523 116.274 220.944 115.887 221.38C115.511 221.816 115.03 222.307 114.445 222.852C114.118 223.159 113.791 223.466 113.464 223.773C113.137 224.081 112.81 224.388 112.483 224.695C112.166 224.992 111.844 225.295 111.517 225.602H117.106V226.553ZM123.062 226.791C122.26 226.791 121.566 226.573 120.981 226.137C120.406 225.691 119.965 225.057 119.658 224.234C119.351 223.402 119.197 222.406 119.197 221.246C119.197 219.502 119.539 218.139 120.223 217.158C120.907 216.177 121.853 215.686 123.062 215.686C124.272 215.686 125.218 216.177 125.902 217.158C126.586 218.139 126.928 219.502 126.928 221.246C126.928 222.406 126.774 223.402 126.467 224.234C126.159 225.057 125.718 225.691 125.144 226.137C124.569 226.573 123.875 226.791 123.062 226.791ZM123.062 225.825C123.925 225.825 124.589 225.428 125.054 224.636C125.53 223.843 125.768 222.713 125.768 221.246C125.768 219.769 125.53 218.635 125.054 217.842C124.589 217.049 123.925 216.653 123.062 216.653C122.2 216.653 121.531 217.049 121.056 217.842C120.59 218.635 120.357 219.769 120.357 221.246C120.357 222.713 120.59 223.843 121.056 224.636C121.531 225.428 122.2 225.825 123.062 225.825ZM135.601 226.553H128.644V225.602L132.331 222.094C133.005 221.449 133.52 220.87 133.877 220.354C134.234 219.839 134.412 219.309 134.412 218.764C134.412 218.377 134.323 218.025 134.145 217.708C133.966 217.381 133.714 217.123 133.386 216.935C133.059 216.747 132.673 216.653 132.227 216.653C131.622 216.653 131.077 216.821 130.592 217.158C130.116 217.485 129.705 217.931 129.358 218.496L128.57 217.768C129.066 217.074 129.621 216.554 130.235 216.207C130.859 215.86 131.538 215.686 132.272 215.686C132.936 215.686 133.51 215.825 133.996 216.103C134.482 216.38 134.858 216.757 135.126 217.232C135.403 217.698 135.542 218.223 135.542 218.808C135.542 219.264 135.443 219.7 135.245 220.116C135.056 220.523 134.769 220.944 134.382 221.38C134.006 221.816 133.525 222.307 132.941 222.852C132.613 223.159 132.286 223.466 131.959 223.773C131.632 224.081 131.305 224.388 130.978 224.695C130.661 224.992 130.339 225.295 130.012 225.602H135.601V226.553ZM137.336 224.859L138.124 224.13C138.5 224.645 138.946 225.057 139.461 225.364C139.977 225.671 140.562 225.825 141.216 225.825C141.979 225.825 142.588 225.617 143.044 225.2C143.51 224.784 143.743 224.259 143.743 223.625C143.743 223.179 143.624 222.797 143.386 222.48C143.158 222.163 142.841 221.92 142.435 221.752C142.038 221.573 141.587 221.484 141.082 221.484H140.041V220.518H141.082C141.528 220.518 141.929 220.438 142.286 220.28C142.643 220.121 142.925 219.898 143.133 219.611C143.341 219.324 143.445 218.987 143.445 218.6C143.445 218.025 143.242 217.559 142.836 217.203C142.43 216.836 141.894 216.653 141.23 216.653C140.636 216.653 140.106 216.806 139.64 217.113C139.174 217.411 138.768 217.822 138.421 218.347L137.633 217.619C138.089 217.014 138.619 216.544 139.224 216.207C139.828 215.86 140.497 215.686 141.23 215.686C141.894 215.686 142.479 215.815 142.985 216.073C143.49 216.321 143.887 216.668 144.174 217.113C144.461 217.55 144.605 218.045 144.605 218.6C144.605 219.096 144.451 219.542 144.144 219.938C143.847 220.334 143.426 220.647 142.881 220.875C142.345 221.102 141.721 221.216 141.008 221.216L141.156 220.666C141.899 220.666 142.554 220.795 143.118 221.053C143.683 221.311 144.119 221.662 144.427 222.108C144.744 222.544 144.902 223.05 144.902 223.625C144.902 224.219 144.744 224.759 144.427 225.245C144.119 225.721 143.688 226.097 143.133 226.375C142.588 226.652 141.949 226.791 141.216 226.791C140.423 226.791 139.699 226.623 139.045 226.286C138.391 225.939 137.821 225.463 137.336 224.859Z" fill="#676767"/>
<line x1="128.221" y1="200.068" x2="128.221" y2="205.023" stroke="#6583C4" stroke-width="1.23881" stroke-linecap="round"/>
<line x1="37.7757" y1="119.545" x2="42.7309" y2="119.545" stroke="#6583C4" stroke-width="1.23881" stroke-linecap="round"/>
<path d="M163.974 226.553H157.017V225.602L160.704 222.094C161.377 221.449 161.893 220.87 162.25 220.354C162.606 219.839 162.785 219.309 162.785 218.764C162.785 218.377 162.696 218.025 162.517 217.708C162.339 217.381 162.086 217.123 161.759 216.935C161.432 216.747 161.045 216.653 160.6 216.653C159.995 216.653 159.45 216.821 158.964 217.158C158.489 217.485 158.077 217.931 157.73 218.496L156.943 217.768C157.438 217.074 157.993 216.554 158.608 216.207C159.232 215.86 159.911 215.686 160.644 215.686C161.308 215.686 161.883 215.825 162.369 216.103C162.854 216.38 163.231 216.757 163.498 217.232C163.776 217.698 163.915 218.223 163.915 218.808C163.915 219.264 163.815 219.7 163.617 220.116C163.429 220.523 163.142 220.944 162.755 221.38C162.378 221.816 161.898 222.307 161.313 222.852C160.986 223.159 160.659 223.466 160.332 223.773C160.005 224.081 159.678 224.388 159.351 224.695C159.034 224.992 158.712 225.295 158.385 225.602H163.974V226.553ZM169.93 226.791C169.127 226.791 168.434 226.573 167.849 226.137C167.274 225.691 166.833 225.057 166.526 224.234C166.219 223.402 166.065 222.406 166.065 221.246C166.065 219.502 166.407 218.139 167.091 217.158C167.775 216.177 168.721 215.686 169.93 215.686C171.139 215.686 172.086 216.177 172.769 217.158C173.453 218.139 173.795 219.502 173.795 221.246C173.795 222.406 173.642 223.402 173.334 224.234C173.027 225.057 172.586 225.691 172.011 226.137C171.436 226.573 170.743 226.791 169.93 226.791ZM169.93 225.825C170.792 225.825 171.456 225.428 171.922 224.636C172.398 223.843 172.636 222.713 172.636 221.246C172.636 219.769 172.398 218.635 171.922 217.842C171.456 217.049 170.792 216.653 169.93 216.653C169.068 216.653 168.399 217.049 167.923 217.842C167.457 218.635 167.225 219.769 167.225 221.246C167.225 222.713 167.457 223.843 167.923 224.636C168.399 225.428 169.068 225.825 169.93 225.825ZM182.469 226.553H175.512V225.602L179.199 222.094C179.873 221.449 180.388 220.87 180.745 220.354C181.101 219.839 181.28 219.309 181.28 218.764C181.28 218.377 181.191 218.025 181.012 217.708C180.834 217.381 180.581 217.123 180.254 216.935C179.927 216.747 179.541 216.653 179.095 216.653C178.49 216.653 177.945 216.821 177.459 217.158C176.984 217.485 176.572 217.931 176.225 218.496L175.438 217.768C175.933 217.074 176.488 216.554 177.103 216.207C177.727 215.86 178.406 215.686 179.139 215.686C179.803 215.686 180.378 215.825 180.864 216.103C181.349 216.38 181.726 216.757 181.993 217.232C182.271 217.698 182.41 218.223 182.41 218.808C182.41 219.264 182.311 219.7 182.112 220.116C181.924 220.523 181.637 220.944 181.25 221.38C180.874 221.816 180.393 222.307 179.808 222.852C179.481 223.159 179.154 223.466 178.827 223.773C178.5 224.081 178.173 224.388 177.846 224.695C177.529 224.992 177.207 225.295 176.88 225.602H182.469V226.553ZM190.692 226.553H189.592V223.833H183.972V222.911L189.592 215.924H190.692V222.911H192.357V223.833H190.692V226.553ZM189.592 217.351L185.147 222.911H189.592V217.351Z" fill="#676767"/>
<line x1="175.291" y1="200.068" x2="175.291" y2="205.023" stroke="#6583C4" stroke-width="1.23881" stroke-linecap="round"/>
<line x1="37.7757" y1="78.6648" x2="42.7309" y2="78.6648" stroke="#6583C4" stroke-width="1.23881" stroke-linecap="round"/>
<path d="M212.548 226.553H205.591V225.602L209.277 222.094C209.951 221.449 210.467 220.87 210.823 220.354C211.18 219.839 211.359 219.309 211.359 218.764C211.359 218.377 211.269 218.025 211.091 217.708C210.913 217.381 210.66 217.123 210.333 216.935C210.006 216.747 209.619 216.653 209.173 216.653C208.569 216.653 208.024 216.821 207.538 217.158C207.062 217.485 206.651 217.931 206.304 218.496L205.516 217.768C206.012 217.074 206.567 216.554 207.181 216.207C207.806 215.86 208.485 215.686 209.218 215.686C209.882 215.686 210.457 215.825 210.942 216.103C211.428 216.38 211.805 216.757 212.072 217.232C212.35 217.698 212.488 218.223 212.488 218.808C212.488 219.264 212.389 219.7 212.191 220.116C212.003 220.523 211.715 220.944 211.329 221.38C210.952 221.816 210.472 222.307 209.887 222.852C209.56 223.159 209.233 223.466 208.906 223.773C208.579 224.081 208.252 224.388 207.925 224.695C207.607 224.992 207.285 225.295 206.958 225.602H212.548V226.553ZM218.504 226.791C217.701 226.791 217.007 226.573 216.423 226.137C215.848 225.691 215.407 225.057 215.1 224.234C214.792 223.402 214.639 222.406 214.639 221.246C214.639 219.502 214.981 218.139 215.665 217.158C216.348 216.177 217.295 215.686 218.504 215.686C219.713 215.686 220.659 216.177 221.343 217.158C222.027 218.139 222.369 219.502 222.369 221.246C222.369 222.406 222.215 223.402 221.908 224.234C221.601 225.057 221.16 225.691 220.585 226.137C220.01 226.573 219.317 226.791 218.504 226.791ZM218.504 225.825C219.366 225.825 220.03 225.428 220.496 224.636C220.972 223.843 221.209 222.713 221.209 221.246C221.209 219.769 220.972 218.635 220.496 217.842C220.03 217.049 219.366 216.653 218.504 216.653C217.642 216.653 216.973 217.049 216.497 217.842C216.031 218.635 215.798 219.769 215.798 221.246C215.798 222.713 216.031 223.843 216.497 224.636C216.973 225.428 217.642 225.825 218.504 225.825ZM231.043 226.553H224.086V225.602L227.772 222.094C228.446 221.449 228.962 220.87 229.318 220.354C229.675 219.839 229.854 219.309 229.854 218.764C229.854 218.377 229.764 218.025 229.586 217.708C229.408 217.381 229.155 217.123 228.828 216.935C228.501 216.747 228.114 216.653 227.668 216.653C227.064 216.653 226.519 216.821 226.033 217.158C225.557 217.485 225.146 217.931 224.799 218.496L224.011 217.768C224.507 217.074 225.062 216.554 225.676 216.207C226.301 215.86 226.98 215.686 227.713 215.686C228.377 215.686 228.952 215.825 229.437 216.103C229.923 216.38 230.3 216.757 230.567 217.232C230.845 217.698 230.983 218.223 230.983 218.808C230.983 219.264 230.884 219.7 230.686 220.116C230.498 220.523 230.21 220.944 229.824 221.38C229.447 221.816 228.967 222.307 228.382 222.852C228.055 223.159 227.728 223.466 227.401 223.773C227.074 224.081 226.747 224.388 226.42 224.695C226.103 224.992 225.78 225.295 225.453 225.602H231.043V226.553ZM233.595 223.981C233.942 224.527 234.358 224.972 234.843 225.319C235.329 225.656 235.899 225.825 236.553 225.825C237.068 225.825 237.519 225.706 237.906 225.468C238.292 225.22 238.595 224.888 238.813 224.472C239.041 224.046 239.155 223.575 239.155 223.06C239.155 222.564 239.045 222.128 238.827 221.752C238.609 221.365 238.307 221.063 237.921 220.845C237.544 220.627 237.108 220.518 236.612 220.518C236.077 220.518 235.602 220.647 235.185 220.904C234.779 221.152 234.427 221.494 234.13 221.93L233.669 221.885C233.798 221.4 234.006 220.984 234.293 220.637C234.591 220.29 234.947 220.022 235.364 219.834C235.79 219.646 236.261 219.551 236.776 219.551C237.46 219.551 238.064 219.705 238.59 220.012C239.125 220.31 239.546 220.726 239.853 221.261C240.16 221.786 240.314 222.386 240.314 223.06C240.314 223.773 240.151 224.413 239.823 224.977C239.496 225.542 239.05 225.988 238.486 226.315C237.921 226.633 237.276 226.791 236.553 226.791C235.75 226.791 235.032 226.613 234.397 226.256C233.773 225.889 233.243 225.364 232.807 224.68L233.595 223.981ZM239.6 216.876H234.353L234.725 216.608L234.13 221.93H233.104L233.788 215.924H239.6V216.876Z" fill="#676767"/>
<line x1="223.596" y1="200.068" x2="223.596" y2="205.023" stroke="#6583C4" stroke-width="1.23881" stroke-linecap="round"/>
<line x1="37.7757" y1="37.7839" x2="42.7309" y2="37.7839" stroke="#6583C4" stroke-width="1.23881" stroke-linecap="round"/>
<line x1="240.888" y1="202.782" x2="34.5373" y2="202.782" stroke="#B4C2E2" stroke-width="1.23881" stroke-linecap="round"/>
<circle cx="192.014" cy="38.403" r="6.19406" fill="#F37E60"/>
<circle cx="169.724" cy="79.2843" r="3.71643" fill="#F37E60"/>
<circle cx="127.599" cy="120.165" r="3.71643" fill="#F37E60"/>
<circle cx="80.5211" cy="161.046" r="3.71643" fill="#F37E60"/>
<path d="M191.984 52.097C191.984 50.1928 194.497 49.4845 195.517 51.0931C196.922 53.3041 198.293 55.2126 199.595 56.8519C200.37 57.8266 201.375 58.5681 202.502 59.0287C202.614 59.0253 202.726 59.0199 202.839 59.0199H205.287C205.298 53.067 205.309 54.3903 205.327 59.0199H278.141C284.135 59.0199 288.995 63.8797 288.995 69.8744V88.1908C288.995 94.1855 284.135 99.0453 278.141 99.0453H202.839C196.844 99.0453 191.984 94.1855 191.984 88.1908V52.097Z" fill="#B6CAF6"/>
<path d="M205.376 67.4306H206.279V76.1616H205.376V68.4319L203.141 70.2026V69.2013L205.376 67.4306ZM211.543 76.357C210.932 76.357 210.387 76.2471 209.907 76.0273C209.426 75.8075 209.048 75.5063 208.771 75.1237C208.494 74.7329 208.356 74.2892 208.356 73.7927C208.356 73.3123 208.494 72.885 208.771 72.5105C209.048 72.136 209.426 71.8429 209.907 71.6313C210.387 71.4115 210.932 71.3016 211.543 71.3016C212.162 71.3016 212.707 71.4115 213.179 71.6313C213.66 71.8429 214.038 72.136 214.315 72.5105C214.592 72.885 214.73 73.3123 214.73 73.7927C214.73 74.2892 214.592 74.7329 214.315 75.1237C214.038 75.5063 213.66 75.8075 213.179 76.0273C212.707 76.2471 212.162 76.357 211.543 76.357ZM211.543 71.8144C210.989 71.8144 210.497 71.7208 210.065 71.5336C209.634 71.3463 209.292 71.0899 209.04 70.7643C208.795 70.4305 208.673 70.0601 208.673 69.6531C208.673 69.1809 208.795 68.7657 209.04 68.4075C209.292 68.0412 209.634 67.7563 210.065 67.5527C210.497 67.3411 210.989 67.2353 211.543 67.2353C212.096 67.2353 212.589 67.3411 213.02 67.5527C213.452 67.7563 213.79 68.0412 214.034 68.4075C214.286 68.7657 214.413 69.1809 214.413 69.6531C214.413 70.0601 214.286 70.4305 214.034 70.7643C213.79 71.0899 213.452 71.3463 213.02 71.5336C212.589 71.7208 212.096 71.8144 211.543 71.8144ZM211.543 75.5633C211.958 75.5633 212.333 75.4859 212.666 75.3313C213.008 75.1766 213.277 74.9649 213.472 74.6963C213.676 74.4276 213.778 74.1264 213.778 73.7927C213.778 73.4507 213.676 73.1495 213.472 72.889C213.277 72.6204 213.008 72.4087 212.666 72.254C212.333 72.0994 211.958 72.022 211.543 72.022C211.128 72.022 210.749 72.0994 210.407 72.254C210.073 72.4087 209.805 72.6204 209.601 72.889C209.406 73.1495 209.308 73.4507 209.308 73.7927C209.308 74.1264 209.406 74.4276 209.601 74.6963C209.805 74.9649 210.073 75.1766 210.407 75.3313C210.749 75.4859 211.128 75.5633 211.543 75.5633ZM211.543 71.2283C211.901 71.2283 212.223 71.1591 212.508 71.0207C212.801 70.8823 213.033 70.6951 213.204 70.459C213.375 70.2148 213.46 69.9461 213.46 69.6531C213.46 69.3437 213.375 69.0669 213.204 68.8227C213.033 68.5785 212.801 68.3872 212.508 68.2488C212.223 68.1022 211.901 68.029 211.543 68.029C211.193 68.029 210.871 68.1022 210.578 68.2488C210.285 68.3872 210.053 68.5785 209.882 68.8227C209.711 69.0669 209.626 69.3437 209.626 69.6531C209.626 69.9461 209.711 70.2148 209.882 70.459C210.053 70.6951 210.285 70.8823 210.578 71.0207C210.871 71.1591 211.193 71.2283 211.543 71.2283ZM221.414 73.121H218.141V72.3029H221.414V73.121ZM229.757 74.5986L230.405 75.1969C230.128 75.5551 229.778 75.8401 229.355 76.0517C228.939 76.2552 228.467 76.357 227.938 76.357C227.327 76.357 226.782 76.2186 226.302 75.9418C225.83 75.665 225.455 75.2865 225.178 74.8062C224.91 74.3259 224.775 73.7764 224.775 73.1577C224.775 72.539 224.91 71.9895 225.178 71.5092C225.455 71.0289 225.834 70.6503 226.314 70.3735C226.794 70.0967 227.34 69.9583 227.95 69.9583C228.479 69.9583 228.952 70.0642 229.367 70.2758C229.782 70.4794 230.128 70.7602 230.405 71.1184L229.757 71.7168C229.562 71.4237 229.318 71.1917 229.025 71.0207C228.732 70.8416 228.374 70.7521 227.95 70.7521C227.511 70.7521 227.124 70.8538 226.79 71.0574C226.456 71.2609 226.196 71.5458 226.009 71.9121C225.821 72.2703 225.728 72.6855 225.728 73.1577C225.728 73.6298 225.821 74.0491 226.009 74.4154C226.196 74.7736 226.456 75.0545 226.79 75.258C227.124 75.4615 227.511 75.5633 227.95 75.5633C228.374 75.5633 228.732 75.4778 229.025 75.3068C229.318 75.1277 229.562 74.8917 229.757 74.5986ZM232.736 78.5306H231.832V70.1537H232.724V71.9732H232.504C232.577 71.5743 232.736 71.2242 232.98 70.923C233.233 70.6218 233.542 70.3857 233.908 70.2148C234.283 70.0438 234.686 69.9583 235.117 69.9583C235.703 69.9583 236.224 70.1008 236.68 70.3857C237.136 70.6625 237.49 71.0411 237.743 71.5214C238.003 72.0017 238.133 72.5471 238.133 73.1577C238.133 73.7764 237.999 74.3259 237.73 74.8062C237.47 75.2865 237.104 75.665 236.631 75.9418C236.167 76.2186 235.634 76.357 235.032 76.357C234.486 76.357 234.006 76.2471 233.591 76.0273C233.184 75.7994 232.874 75.4941 232.663 75.1115C232.459 74.7207 232.386 74.2852 232.443 73.8049L232.614 73.5606C232.647 73.9433 232.769 74.2892 232.98 74.5986C233.192 74.8998 233.469 75.1359 233.811 75.3068C234.153 75.4778 234.527 75.5633 234.934 75.5633C235.382 75.5633 235.773 75.4615 236.106 75.258C236.44 75.0463 236.701 74.7614 236.888 74.4032C237.083 74.0369 237.181 73.6217 237.181 73.1577C237.181 72.6936 237.087 72.2825 236.9 71.9243C236.721 71.558 236.469 71.2731 236.143 71.0696C235.817 70.8579 235.439 70.7521 235.007 70.7521C234.568 70.7521 234.177 70.862 233.835 71.0818C233.493 71.3016 233.225 71.6069 233.029 71.9976C232.834 72.3802 232.736 72.828 232.736 73.3408V78.5306ZM244.637 74.4521L245.272 75.0504C244.954 75.4574 244.572 75.779 244.124 76.0151C243.676 76.243 243.163 76.357 242.585 76.357C241.95 76.357 241.38 76.2186 240.876 75.9418C240.379 75.665 239.988 75.2865 239.703 74.8062C239.419 74.3259 239.276 73.7764 239.276 73.1577C239.276 72.539 239.41 71.9895 239.679 71.5092C239.956 71.0289 240.334 70.6503 240.815 70.3735C241.295 70.0967 241.84 69.9583 242.451 69.9583C243.037 69.9583 243.554 70.0967 244.002 70.3735C244.458 70.6422 244.816 71.0126 245.076 71.4847C245.337 71.9569 245.467 72.5023 245.467 73.121V73.1943H244.539V73.121C244.539 72.6489 244.446 72.2378 244.258 71.8877C244.079 71.5295 243.831 71.2527 243.513 71.0574C243.204 70.8538 242.85 70.7521 242.451 70.7521C242.011 70.7521 241.625 70.8538 241.291 71.0574C240.957 71.2609 240.697 71.5417 240.509 71.8999C240.322 72.2581 240.229 72.6733 240.229 73.1455C240.229 73.6176 240.33 74.0369 240.534 74.4032C240.737 74.7695 241.014 75.0545 241.364 75.258C241.722 75.4615 242.134 75.5633 242.598 75.5633C243.444 75.5633 244.124 75.1929 244.637 74.4521ZM245.467 73.4752H240.033V72.7303H245.272L245.467 73.121V73.4752ZM246.524 75.9174V75.3923H246.769C246.932 75.3923 247.058 75.3557 247.147 75.2824C247.245 75.201 247.318 75.0708 247.367 74.8917C247.424 74.7126 247.469 74.4683 247.501 74.159L247.978 70.1537H252.129V75.7953H251.226V70.3369L251.861 70.923H248.112L248.845 70.3369L248.356 74.2323C248.307 74.6474 248.23 74.9771 248.124 75.2214C248.018 75.4656 247.868 75.6447 247.672 75.7587C247.485 75.8645 247.225 75.9174 246.891 75.9174H246.524ZM246.28 77.7247V75.3923H252.984V77.7247H252.129V75.5144L252.764 76.1616H246.781L247.135 75.5144V77.7247H246.28ZM259.202 76.1616V70.1537H260.105V76.1616H259.202ZM254.561 76.1616V70.1537H255.465V76.1616H254.561ZM255.001 73.3897V72.6204H259.702V73.3897H255.001ZM262.062 76.1616V70.1537H262.966V74.9527L262.868 74.9161L266.776 70.1537H267.557V76.1616H266.654V71.3626L266.751 71.3993L262.844 76.1616H262.062ZM269.515 76.1616V70.1537H270.419V74.9527L270.321 74.9161L274.229 70.1537H275.01V76.1616H274.107V71.3626L274.204 71.3993L270.297 76.1616H269.515ZM272.324 69.0303C271.778 69.0303 271.319 68.8919 270.944 68.6151C270.578 68.3302 270.37 67.9394 270.321 67.4428H271.139C271.188 67.7929 271.314 68.0493 271.518 68.2121C271.73 68.375 271.998 68.4564 272.324 68.4564C272.641 68.4564 272.902 68.375 273.105 68.2121C273.317 68.0493 273.447 67.7929 273.496 67.4428H274.314C274.265 67.9394 274.058 68.3302 273.692 68.6151C273.325 68.8919 272.869 69.0303 272.324 69.0303ZM205.827 91.357C204.818 91.357 204.049 90.9947 203.52 90.2702C202.998 89.5375 202.738 88.4752 202.738 87.0831C202.738 85.7561 202.95 84.7548 203.373 84.0791C203.804 83.4035 204.484 82.9883 205.412 82.8336L208.099 82.3818L208.257 83.1755L205.571 83.6518C205.099 83.7332 204.72 83.896 204.435 84.1402C204.15 84.3844 203.943 84.7426 203.813 85.2148C203.682 85.6788 203.605 86.2975 203.581 87.0709L203.422 87.4372C203.471 86.9895 203.625 86.6069 203.886 86.2894C204.146 85.9637 204.472 85.7154 204.863 85.5445C205.253 85.3654 205.661 85.2758 206.084 85.2758C206.678 85.2758 207.179 85.4102 207.586 85.6788C207.993 85.9393 208.302 86.2934 208.514 86.7412C208.726 87.1889 208.831 87.6936 208.831 88.2554C208.831 88.8822 208.709 89.4317 208.465 89.9039C208.221 90.3679 207.871 90.7261 207.415 90.9785C206.967 91.2308 206.438 91.357 205.827 91.357ZM205.815 90.5511C206.458 90.5511 206.963 90.3475 207.329 89.9405C207.704 89.5253 207.891 88.9636 207.891 88.2554C207.891 87.5634 207.716 87.0261 207.366 86.6435C207.024 86.2527 206.548 86.0574 205.937 86.0574C205.571 86.0574 205.229 86.151 204.912 86.3382C204.602 86.5173 204.338 86.7697 204.118 87.0953C203.898 87.4128 203.752 87.7832 203.678 88.2065L203.715 87.4738C203.69 88.5077 203.849 89.2811 204.191 89.794C204.541 90.2987 205.083 90.5511 205.815 90.5511ZM215.349 91.1616H214.482V89.9893L214.47 89.6474V87.4006C214.47 86.8959 214.307 86.4929 213.982 86.1917C213.656 85.8905 213.216 85.7399 212.663 85.7399C212.264 85.7399 211.902 85.8253 211.576 85.9963C211.259 86.1673 210.978 86.3993 210.734 86.6923L210.099 86.0818C210.432 85.7236 210.807 85.4468 211.222 85.2514C211.645 85.056 212.126 84.9583 212.663 84.9583C213.2 84.9583 213.668 85.0601 214.067 85.2636C214.474 85.459 214.788 85.7358 215.007 86.094C215.235 86.4522 215.349 86.8755 215.349 87.3639V91.1616ZM212.187 91.357C211.731 91.357 211.328 91.2756 210.978 91.1128C210.636 90.9418 210.367 90.7139 210.172 90.429C209.985 90.144 209.891 89.8184 209.891 89.4521C209.891 89.0287 210.009 88.6705 210.245 88.3775C210.481 88.0763 210.803 87.8483 211.21 87.6936C211.625 87.539 212.093 87.4616 212.614 87.4616H214.592V88.1943H212.736C212.191 88.1943 211.735 88.2961 211.369 88.4996C211.01 88.695 210.831 89.0043 210.831 89.4276C210.831 89.7858 210.966 90.0708 211.234 90.2824C211.503 90.4941 211.857 90.5999 212.297 90.5999C212.72 90.5999 213.103 90.5185 213.444 90.3557C213.786 90.1847 214.059 89.9486 214.263 89.6474C214.474 89.3462 214.592 89.0002 214.617 88.6095L214.983 88.8171C214.983 89.3055 214.861 89.7411 214.617 90.1237C214.381 90.5063 214.051 90.8075 213.628 91.0273C213.204 91.2471 212.724 91.357 212.187 91.357ZM216.361 91.1616V90.3801H216.849C217.069 90.3801 217.236 90.3231 217.35 90.2091C217.464 90.087 217.533 89.8672 217.557 89.5497L217.936 85.1537H222.21V91.1616H221.306V85.3369L221.941 85.923H218.131L218.827 85.3369L218.424 89.6963C218.375 90.2336 218.233 90.6121 217.997 90.8319C217.769 91.0517 217.427 91.1616 216.971 91.1616H216.361ZM223.432 91.1616V90.3801H223.92C224.14 90.3801 224.307 90.3231 224.421 90.2091C224.535 90.087 224.604 89.8672 224.629 89.5497L225.007 85.1537H229.281V91.1616H228.378V85.3369L229.013 85.923H225.203L225.899 85.3369L225.496 89.6963C225.447 90.2336 225.304 90.6121 225.068 90.8319C224.84 91.0517 224.498 91.1616 224.043 91.1616H223.432ZM233.621 91.1616V85.1537H236.674C237.276 85.1537 237.757 85.3003 238.115 85.5933C238.473 85.8783 238.652 86.2609 238.652 86.7412C238.652 87.0424 238.563 87.307 238.384 87.5349C238.204 87.7628 237.96 87.9379 237.651 88.06L237.639 87.9501C238.021 88.0559 238.331 88.235 238.567 88.4874C238.811 88.7316 238.933 89.0369 238.933 89.4032C238.933 89.737 238.831 90.0382 238.628 90.3068C238.432 90.5755 238.164 90.7871 237.822 90.9418C237.488 91.0884 237.118 91.1616 236.711 91.1616H233.621ZM234.525 90.9662L233.963 90.3923H236.711C237.101 90.3923 237.411 90.3068 237.639 90.1359C237.867 89.9568 237.981 89.7126 237.981 89.4032C237.981 89.0939 237.867 88.8537 237.639 88.6828C237.411 88.5037 237.101 88.4141 236.711 88.4141H234.097V87.6448H236.674C237.048 87.6448 237.313 87.5634 237.468 87.4006C237.622 87.2378 237.7 87.018 237.7 86.7412C237.7 86.4725 237.622 86.269 237.468 86.1306C237.313 85.9922 237.048 85.923 236.674 85.923H233.975L234.525 85.3491V90.9662ZM248.057 91.1616H242.342V90.3801L245.371 87.4983C245.924 86.9691 246.348 86.4929 246.641 86.0696C246.934 85.6462 247.08 85.2107 247.08 84.763C247.08 84.4455 247.007 84.1565 246.86 83.896C246.714 83.6273 246.506 83.4157 246.238 83.261C245.969 83.1063 245.651 83.029 245.285 83.029C244.789 83.029 244.341 83.1674 243.942 83.4442C243.551 83.7128 243.213 84.0791 242.928 84.5432L242.281 83.9448C242.688 83.375 243.144 82.9476 243.649 82.6626C244.162 82.3777 244.719 82.2353 245.322 82.2353C245.867 82.2353 246.339 82.3492 246.738 82.5772C247.137 82.8051 247.447 83.1145 247.666 83.5052C247.894 83.8878 248.008 84.3193 248.008 84.7996C248.008 85.1741 247.927 85.5323 247.764 85.8742C247.609 86.208 247.373 86.5539 247.056 86.9121C246.746 87.2703 246.352 87.6733 245.871 88.121C245.603 88.3734 245.334 88.6258 245.065 88.8781C244.797 89.1305 244.528 89.3829 244.259 89.6352C243.999 89.8794 243.734 90.1277 243.466 90.3801H248.057V91.1616ZM252.95 91.357C252.29 91.357 251.72 91.1779 251.24 90.8197C250.768 90.4534 250.406 89.9324 250.153 89.2567C249.901 88.5729 249.775 87.7547 249.775 86.8022C249.775 85.3695 250.056 84.2501 250.617 83.4442C251.179 82.6382 251.956 82.2353 252.95 82.2353C253.943 82.2353 254.72 82.6382 255.282 83.4442C255.844 84.2501 256.124 85.3695 256.124 86.8022C256.124 87.7547 255.998 88.5729 255.746 89.2567C255.494 89.9324 255.131 90.4534 254.659 90.8197C254.187 91.1779 253.617 91.357 252.95 91.357ZM252.95 90.5633C253.658 90.5633 254.203 90.2376 254.586 89.5864C254.977 88.9351 255.172 88.0071 255.172 86.8022C255.172 85.5893 254.977 84.6571 254.586 84.0059C254.203 83.3546 253.658 83.029 252.95 83.029C252.241 83.029 251.692 83.3546 251.301 84.0059C250.918 84.6571 250.727 85.5893 250.727 86.8022C250.727 88.0071 250.918 88.9351 251.301 89.5864C251.692 90.2376 252.241 90.5633 252.95 90.5633ZM263.249 91.1616H257.535V90.3801L260.563 87.4983C261.117 86.9691 261.54 86.4929 261.833 86.0696C262.126 85.6462 262.273 85.2107 262.273 84.763C262.273 84.4455 262.199 84.1565 262.053 83.896C261.906 83.6273 261.699 83.4157 261.43 83.261C261.161 83.1063 260.844 83.029 260.478 83.029C259.981 83.029 259.533 83.1674 259.134 83.4442C258.744 83.7128 258.406 84.0791 258.121 84.5432L257.474 83.9448C257.881 83.375 258.337 82.9476 258.841 82.6626C259.354 82.3777 259.912 82.2353 260.514 82.2353C261.06 82.2353 261.532 82.3492 261.931 82.5772C262.33 82.8051 262.639 83.1145 262.859 83.5052C263.087 83.8878 263.201 84.3193 263.201 84.7996C263.201 85.1741 263.119 85.5323 262.956 85.8742C262.802 86.208 262.566 86.5539 262.248 86.9121C261.939 87.2703 261.544 87.6733 261.064 88.121C260.795 88.3734 260.526 88.6258 260.258 88.8781C259.989 89.1305 259.72 89.3829 259.452 89.6352C259.191 89.8794 258.927 90.1277 258.658 90.3801H263.249V91.1616ZM265.346 89.0491C265.631 89.4968 265.972 89.8632 266.371 90.1481C266.77 90.4249 267.238 90.5633 267.776 90.5633C268.199 90.5633 268.569 90.4656 268.887 90.2702C269.204 90.0667 269.453 89.794 269.632 89.4521C269.819 89.102 269.913 88.7153 269.913 88.292C269.913 87.885 269.823 87.5268 269.644 87.2174C269.465 86.8999 269.217 86.6516 268.899 86.4725C268.59 86.2934 268.232 86.2039 267.824 86.2039C267.385 86.2039 266.994 86.3097 266.652 86.5214C266.318 86.7249 266.029 87.0058 265.785 87.3639L265.407 87.3273C265.513 86.9284 265.683 86.5865 265.92 86.3016C266.164 86.0166 266.457 85.7968 266.799 85.6422C267.149 85.4875 267.535 85.4102 267.959 85.4102C268.521 85.4102 269.017 85.5363 269.449 85.7887C269.888 86.0329 270.234 86.3748 270.487 86.8144C270.739 87.2459 270.865 87.7384 270.865 88.292C270.865 88.8781 270.731 89.4032 270.462 89.8672C270.193 90.3313 269.827 90.6976 269.363 90.9662C268.899 91.2267 268.37 91.357 267.776 91.357C267.116 91.357 266.526 91.2105 266.005 90.9174C265.492 90.6162 265.057 90.1847 264.698 89.623L265.346 89.0491ZM270.279 83.2121H265.968L266.274 82.9923L265.785 87.3639H264.943L265.504 82.4306H270.279V83.2121ZM273.464 90.5999C273.464 90.7871 273.394 90.95 273.256 91.0884C273.126 91.2186 272.967 91.2837 272.78 91.2837C272.593 91.2837 272.43 91.2186 272.291 91.0884C272.161 90.95 272.096 90.7871 272.096 90.5999C272.096 90.4127 272.161 90.2539 272.291 90.1237C272.43 89.9853 272.593 89.9161 272.78 89.9161C272.967 89.9161 273.126 89.9853 273.256 90.1237C273.394 90.2539 273.464 90.4127 273.464 90.5999ZM273.061 88.6705H272.499C272.491 88.524 272.479 88.2879 272.462 87.9623C272.446 87.6285 272.426 87.2459 272.401 86.8144C272.385 86.383 272.365 85.9434 272.34 85.4956C272.324 85.0398 272.308 84.6124 272.291 84.2135C272.275 83.8146 272.259 83.4849 272.242 83.2244C272.234 82.9639 272.23 82.8132 272.23 82.7725C272.23 82.6179 272.283 82.4917 272.389 82.394C272.495 82.2882 272.625 82.2353 272.78 82.2353C272.934 82.2353 273.065 82.2882 273.17 82.394C273.276 82.4917 273.329 82.6179 273.329 82.7725C273.329 82.8132 273.321 82.9639 273.305 83.2244C273.297 83.4849 273.284 83.8146 273.268 84.2135C273.252 84.6124 273.232 85.0398 273.207 85.4956C273.191 85.9434 273.17 86.383 273.146 86.8144C273.13 87.2459 273.114 87.6285 273.097 87.9623C273.081 88.2879 273.069 88.524 273.061 88.6705Z" fill="#2D457C"/>
</svg>
