<svg width="421" height="362" viewBox="0 0 421 362" fill="none" xmlns="http://www.w3.org/2000/svg">
<path d="M357.347 266.706C302.858 354.468 196.69 387.114 120.19 339.62C43.6952 292.121 25.8629 182.488 80.3502 94.7245C134.841 6.95959 241.014 -25.6817 317.512 21.8114C394.009 69.3098 411.843 178.944 357.347 266.706Z" fill="#9FB4DE"/>
<mask id="mask0_1597_8308" style="mask-type:alpha" maskUnits="userSpaceOnUse" x="48" y="0" width="341" height="362">
<path d="M357.347 266.706C302.858 354.468 196.69 387.114 120.19 339.62C43.6952 292.121 25.8629 182.488 80.3502 94.7245C134.841 6.95959 241.014 -25.6817 317.512 21.8114C394.009 69.3098 411.843 178.944 357.347 266.706Z" fill="#D7E4FE"/>
</mask>
<g mask="url(#mask0_1597_8308)">
<g clip-path="url(#clip0_1597_8308)">
<path d="M207.586 119.305C211.54 118.178 216.97 117.113 223.435 117.207C233.259 117.332 241.011 120.026 245.624 122.062C245.216 130.487 244.808 138.943 244.432 147.368C232.16 138.004 219.857 128.639 207.586 119.305Z" fill="#FDA67D"/>
<path d="M238.154 103.708C238.154 103.708 235.737 118.836 237.118 122.657C237.149 122.751 237.243 123.033 237.118 123.283C236.27 124.912 226.729 121.717 216.969 117.927C219.417 107.936 221.865 97.9763 224.281 87.9851C224.281 88.0164 240.225 98.3834 238.154 103.708Z" fill="#FDA67D"/>
<path d="M213.336 97.9453C215.847 102.612 221.025 103.834 220.774 104.272C220.429 104.804 212.237 101.328 204.799 94.8759C200.154 90.8356 197.581 87.2024 195.917 83.6006C194.819 81.2203 193.093 77.2739 194.725 74.1106C195.321 72.9517 196.043 72.5759 197.141 71.5736C198.962 69.9136 201.159 67.1574 202.665 62.3654C211.924 59.484 221.213 57.0097 221.841 58.4817C221.967 58.7636 221.716 59.1395 221.621 59.2647C219.362 62.7726 207.435 86.9832 213.336 97.9453Z" fill="#363537"/>
<path d="M239.632 112.446C241.013 112.259 242.08 111.695 242.08 111.695C242.394 111.538 242.708 111.319 242.99 111.1C242.99 111.1 243.461 110.724 243.901 110.285C249.173 104.616 246.976 92.3075 246.976 92.3075C246.317 88.5804 245.533 87.2649 243.712 82.0657C242.237 77.8688 240.26 71.6361 238.534 63.6494C238.094 63.5555 233.763 62.7411 229.369 61.9894C227.518 61.8955 215.968 61.3944 209.817 69.1931C202.002 79.059 208.938 94.3746 215.309 101.766C215.999 102.581 216.721 103.332 217.475 104.021C219.075 105.9 222.245 109.064 227.172 111.037C227.172 111.037 232.885 113.323 239.632 112.446Z" fill="#FDA67D"/>
<path d="M222.531 107.279C224.665 108.563 227.396 109.91 230.723 111.037C232.982 111.789 235.054 112.29 236.906 112.604C236.246 114.733 235.242 115.422 234.646 115.704C231.853 116.988 226.8 113.825 222.531 107.279Z" fill="#6683C2"/>
<path d="M238.291 83.7258C238.573 85.1039 238.103 86.3567 237.255 86.5447C236.376 86.7326 235.435 85.7616 235.152 84.4149C234.87 83.0368 235.341 81.784 236.188 81.596C237.067 81.4081 238.008 82.3791 238.291 83.7258Z" fill="#353333"/>
<path d="M221.339 89.0503C221.904 90.3971 223.096 91.2114 224.038 90.8043C224.98 90.4284 225.262 89.019 224.697 87.6409C224.132 86.2941 222.94 85.4798 221.998 85.887C221.088 86.2941 220.805 87.7035 221.339 89.0503Z" fill="#353333"/>
<path d="M233.264 83.5841C233.22 83.2778 233.597 83.1766 233.743 83.4492C234.168 84.2392 234.612 84.9996 235.086 85.7305C235.808 86.7641 236.593 87.735 237.472 88.612C237.691 88.8312 237.911 89.0504 238.162 89.2384C238.382 89.4576 238.633 89.6455 238.915 89.8961C239.166 90.1467 239.48 90.4285 239.669 90.8357C239.763 91.0236 239.857 91.2429 239.888 91.4934C239.92 91.7127 239.92 91.9632 239.888 92.1825C239.763 93.0594 239.198 93.7172 238.57 94.0617C237.942 94.4375 237.283 94.5941 236.593 94.6881C237.126 94.2809 237.691 93.9364 238.099 93.4979C238.288 93.2787 238.445 93.0594 238.57 92.8089C238.664 92.5583 238.727 92.3078 238.727 92.0885C238.727 91.8693 238.664 91.6813 238.539 91.5247C238.413 91.3681 238.225 91.1802 238.005 90.9923C237.785 90.8044 237.503 90.6165 237.221 90.3972C237.095 90.3033 236.969 90.178 236.813 90.0527C236.687 89.9274 236.561 89.8335 236.436 89.7082C235.463 88.7372 234.647 87.5784 234.051 86.3569C233.68 85.4442 233.401 84.5164 233.264 83.5841Z" fill="#6683C2"/>
<path d="M238.633 99.7623C238.758 99.5117 238.695 99.4178 238.664 99.3864C238.507 99.1359 238.005 99.2925 237.001 99.2298C236.436 99.1985 235.996 99.1046 235.526 99.0106C235.431 99.0106 234.866 98.8853 234.333 98.7287C232.67 98.2589 231.948 97.5699 231.822 97.6951C231.602 97.9457 233.486 101.234 235.965 101.203C237.22 101.234 238.319 100.42 238.633 99.7623Z" fill="white"/>
<path d="M219.246 79.3992C219.058 79.6174 219.269 79.9387 219.545 79.8571L226.487 77.8066C226.456 77.8066 225.191 72.4946 219.246 79.3992Z" fill="#6683C2"/>
<path d="M240.045 75.3618C240.315 75.4633 240.283 75.8466 240.001 75.9074L232.951 77.4308C232.951 77.4308 231.51 72.1476 240.045 75.3618Z" fill="#6683C2"/>
<path d="M210.165 82.0348C209.066 79.6858 209.318 76.9296 210.918 74.8625C210.95 74.8311 210.95 74.8311 210.981 74.7998C211.326 74.3613 214.967 69.5693 218.859 67.3456C224.696 63.9943 231.381 68.6297 239.07 65.8109C242.177 64.6834 246.32 61.9272 249.898 54.4103C244.594 58.1061 241.989 57.9808 240.608 57.2291C237.94 55.7258 238.537 51.059 236.089 50.276C234.331 49.7123 232.166 51.5602 230.722 53.0635C230.628 50.0881 228.933 47.4885 226.485 46.5489C223.221 45.2961 218.953 47.1127 217.352 51.1217C216.41 49.3364 215.406 48.7726 214.684 48.616C211.389 47.8644 206.681 53.4081 202.695 62.4283C202.915 63.5872 203.166 65.0279 203.386 66.7505C203.386 66.7505 203.762 69.632 203.888 72.5761C204.296 82.0661 201.66 89.3951 204.861 92.3079C205.928 93.2788 207.937 94.0618 212.268 92.9969C213.303 93.0282 214.37 93.0282 215.406 93.0596L210.165 82.0348Z" fill="#363537"/>
<path d="M196.228 66.2495C196.667 66.3435 197.044 66.4374 197.42 66.5627C197.797 66.6567 198.205 66.782 198.582 66.9072C199.335 67.1578 200.119 67.4084 200.841 67.7216C201.595 68.0348 202.316 68.348 203.007 68.7238C203.697 69.0997 204.388 69.5381 204.953 70.0706C204.262 69.6947 203.509 69.5068 202.756 69.3189C202.003 69.131 201.249 69.037 200.496 68.9744C199.743 68.8804 198.958 68.8491 198.205 68.8491C197.828 68.8491 197.452 68.8491 197.075 68.8491C196.699 68.8491 196.322 68.8491 195.945 68.8804L196.228 66.2495Z" fill="#363537"/>
<path d="M198.58 59.8286C198.863 60.6429 199.208 61.4886 199.522 62.2716C199.867 63.0859 200.212 63.9003 200.589 64.6833C200.966 65.4663 201.374 66.2806 201.844 67.001C202.064 67.3768 202.315 67.7213 202.598 68.0659C202.754 68.2225 202.88 68.3791 203.068 68.5043C203.225 68.6296 203.445 68.7549 203.665 68.7549C203.445 68.7862 203.194 68.7236 203.006 68.6296C202.786 68.5357 202.598 68.4104 202.409 68.2851C202.033 68.0032 201.687 67.7213 201.342 67.3768C200.683 66.7504 200.087 66.03 199.49 65.341C198.926 64.6206 198.361 63.9003 197.827 63.1799C197.294 62.4282 196.76 61.7078 196.258 60.9248L198.58 59.8286Z" fill="#363537"/>
<path d="M208.5 78.5583C209.504 76.6791 210.76 74.9252 212.235 73.3592C212.988 72.5762 213.773 71.8558 214.62 71.1667C215.467 70.4777 216.378 69.8826 217.351 69.3502C217.602 69.2249 217.821 69.0683 218.072 68.9743L218.826 68.6298C219.328 68.3792 219.861 68.1913 220.395 68.0347C221.462 67.7215 222.498 67.4709 223.565 67.2517C224.6 67.0325 225.668 66.8445 226.703 66.6566C227.739 66.4687 228.806 66.2808 229.873 66.0929C231.976 65.7483 234.11 65.4664 236.213 65.2472C237.28 65.1219 238.316 65.028 239.351 64.8714C240.387 64.7148 241.36 64.4955 242.333 64.151C242.584 64.057 242.804 63.9631 243.055 63.8691C243.306 63.7751 243.525 63.6812 243.777 63.5559C244.247 63.3367 244.718 63.0861 245.158 62.8355C246.068 62.3344 246.915 61.708 247.731 61.0816C249.363 59.7662 250.807 58.2001 252.125 56.5402C251.058 58.3881 249.771 60.1107 248.202 61.614C247.417 62.3657 246.57 63.0548 245.66 63.6499C244.749 64.245 243.777 64.7774 242.772 65.1846C242.647 65.2472 242.521 65.2785 242.396 65.3412L242.019 65.4664C241.768 65.5604 241.485 65.623 241.234 65.717C240.983 65.811 240.701 65.8423 240.418 65.9049L239.602 66.0615C238.535 66.2495 237.468 66.4061 236.433 66.5313C234.33 66.8132 232.227 67.1264 230.124 67.4396C228.021 67.7841 225.919 68.1287 223.847 68.5045C222.811 68.6924 221.776 68.8804 220.771 69.1622C220.269 69.2875 219.799 69.4441 219.328 69.632L218.606 69.9452C218.355 70.0392 218.135 70.1645 217.915 70.2898C216.032 71.1667 214.338 72.3882 212.768 73.7976C211.168 75.2384 209.787 76.8357 208.5 78.5583Z" fill="#363537"/>
<path d="M226.766 94.4375C222.78 94.4375 219.516 91.1802 219.516 87.2025C219.516 83.2248 222.78 79.9675 226.766 79.9675C230.751 79.9675 234.015 83.2248 234.015 87.2025C234.015 91.2115 230.751 94.4375 226.766 94.4375ZM226.766 80.5939C223.094 80.5939 220.112 83.5694 220.112 87.2338C220.112 90.8983 223.094 93.8424 226.766 93.8424C230.438 93.8424 233.388 90.867 233.388 87.2338C233.419 83.5694 230.438 80.5939 226.766 80.5939Z" fill="white"/>
<path d="M240.918 90.2722C237.372 90.2722 234.484 87.3908 234.484 83.8516C234.484 80.3124 237.372 77.4309 240.918 77.4309C244.465 77.4309 247.352 80.3124 247.352 83.8516C247.384 87.3594 244.496 90.2722 240.918 90.2722ZM240.918 77.9947C237.686 77.9947 235.081 80.6256 235.081 83.8202C235.081 87.0462 237.717 89.6458 240.918 89.6458C244.12 89.6458 246.756 87.0149 246.756 83.8202C246.787 80.6256 244.151 77.9947 240.918 77.9947Z" fill="white"/>
<path d="M212.08 102.373C214.995 101.749 216.852 98.8852 216.227 95.976C215.602 93.0669 212.733 91.2141 209.817 91.8377C206.902 92.4613 205.046 95.3251 205.671 98.2343C206.295 101.143 209.165 102.996 212.08 102.373Z" fill="#FDA67D"/>
<path d="M213.523 99.2607C213.617 99.2607 213.711 99.1981 213.742 99.1041C214.558 97.2875 214.088 95.1891 212.55 94.0616C211.389 93.2159 209.725 93.1219 208.344 93.811C208.219 93.8736 208.187 94.0302 208.25 94.1555C208.313 94.2808 208.47 94.3121 208.595 94.2495C209.819 93.6231 211.263 93.717 212.267 94.4687C213.586 95.4396 214.025 97.2875 213.303 98.8849C213.24 99.0102 213.303 99.1668 213.429 99.1981C213.46 99.2607 213.491 99.2607 213.523 99.2607Z" fill="#6683C2"/>
<path d="M208.376 95.7843C208.439 95.7843 208.502 95.753 208.533 95.7217C209.38 94.8761 210.604 94.3749 211.828 94.3749C211.985 94.3749 212.08 94.281 212.08 94.1244C212.08 93.9991 211.985 93.8738 211.828 93.8738C210.479 93.8425 209.129 94.4062 208.188 95.3459C208.094 95.4398 208.094 95.5964 208.188 95.6904C208.251 95.753 208.313 95.7843 208.376 95.7843Z" fill="#6683C2"/>
<path d="M324.436 81.0951C325.598 81.5023 328.705 82.5985 331.278 85.5739C332.032 86.4195 332.722 87.2652 333.224 88.5806C333.852 90.3033 333.475 91.1489 333.224 94.5941C333.099 96.1288 332.879 100.451 331.937 104.178C331.875 104.491 331.686 105.149 331.278 105.243C330.462 105.462 329.74 103.395 327.857 102.174C326.571 101.328 325.158 101.203 324.154 101.203C321.518 100.545 319.383 99.8873 317.751 99.3548C316.684 99.0103 315.774 98.6658 315.146 97.7575C314.362 96.5986 314.55 95.2205 314.676 94.5941C314.048 93.8738 313.358 92.8402 313.609 91.9006C313.891 90.8044 315.178 90.4912 315.084 89.6769C314.99 88.9565 313.922 88.9565 313.42 87.8603C313.169 87.2965 313.075 86.4822 313.42 85.8245C313.922 84.9162 314.864 85.1667 315.178 84.3524C315.492 83.632 314.801 83.1622 315.084 82.2853C315.303 81.6589 315.837 81.3143 316.245 81.0324C317.249 80.3747 318.316 80.2808 319.289 80.2808C322.114 80.2808 324.311 81.0324 324.436 81.0951Z" fill="#FDA67D"/>
<path d="M322.14 90.0835C321.136 89.8329 320.131 89.645 319.127 89.5197C318.123 89.3944 317.087 89.3318 316.083 89.3318C315.706 89.3318 315.33 89.3631 314.984 89.3631C315.047 89.4571 315.079 89.551 315.11 89.6763C315.11 89.739 315.11 89.8016 315.11 89.8956C315.455 89.9269 324.086 90.9918 325.122 91.0857C324.117 90.6472 323.144 90.334 322.14 90.0835Z" fill="#6683C2"/>
<path d="M320.542 95.2202C319.663 94.9697 318.784 94.7504 317.905 94.5938C317.027 94.4372 316.116 94.3746 315.238 94.3433C314.987 94.3433 314.735 94.3433 314.484 94.3433C314.547 94.4372 314.61 94.4999 314.673 94.5938C314.673 94.6565 314.641 94.7191 314.641 94.7817C314.83 94.8131 315.049 94.8444 315.238 94.8757C316.116 95.001 316.995 95.1263 317.843 95.2829C318.721 95.4395 322.174 96.0972 323.084 96.2538C322.268 95.8153 321.389 95.5021 320.542 95.2202Z" fill="#6683C2"/>
<path d="M321.606 84.9156C322.485 85.0095 323.363 85.0722 324.242 85.1348C323.426 84.7903 322.579 84.5397 321.7 84.3518C320.821 84.1639 319.942 84.0073 319.064 83.9447C318.185 83.8507 317.275 83.8507 316.396 83.882C316.019 83.9133 315.611 83.9133 315.235 83.976C315.235 84.1013 315.235 84.2265 315.172 84.3831C315.611 84.3518 321.606 84.9156 321.606 84.9156Z" fill="#6683C2"/>
<path d="M327.917 98.5405C322.738 97.9767 314.39 122.72 314.39 122.72C308.05 139.413 304.629 148.747 306.606 160.711C307.108 163.655 309.494 177.123 316.304 178.658C320.51 179.597 326.002 175.651 327.948 170.483C328.607 168.667 328.733 167.195 328.733 166.787C329.046 159.208 334.099 105.713 331.903 101.203C331.432 100.263 330.741 99.668 330.741 99.668C330.741 99.668 329.611 98.7284 327.917 98.5405Z" fill="#FDA67D"/>
<path d="M325.062 101.766C325.471 101.735 325.879 101.735 326.287 101.735H328.703C329.111 101.735 329.519 101.735 329.927 101.766C329.551 101.923 329.143 102.048 328.735 102.111C328.327 102.174 327.919 102.205 327.511 102.205C327.103 102.205 326.695 102.174 326.287 102.111C325.847 102.048 325.439 101.923 325.062 101.766Z" fill="#6683C2"/>
<path d="M334.418 76.1152C334.418 76.1152 328.58 82.1913 329.428 88.2361C329.899 91.6187 330.746 92.4957 331.468 92.4957C331.844 92.4957 332.19 92.0885 332.598 91.65C333.414 90.7418 333.696 89.7395 333.79 89.4263C334.544 86.8267 333.853 85.6679 334.449 83.2249C334.857 81.5023 335.36 81.4396 336.395 78.0884C336.897 76.4597 337.023 75.7393 336.709 75.4261C336.144 74.8937 334.575 76.0212 334.418 76.1152Z" fill="#FDA67D"/>
<path d="M366.012 273.276L362.905 268.108L357.758 267.639L362.309 264.882L363.376 259.401L366.043 264.162L371.661 265.039L366.702 267.482L366.012 273.276Z" fill="white"/>
<path d="M381.356 292.538L377.558 286.18L371.25 285.647L376.836 282.265L378.155 275.531L381.419 281.357L388.261 282.421L382.203 285.428L381.356 292.538Z" fill="white"/>
<path d="M383.369 271.46L381.203 267.826L377.562 267.513L380.764 265.571L381.517 261.719L383.4 265.07L387.323 265.665L383.839 267.388L383.369 271.46Z" fill="white"/>
<path d="M289.137 129.489C289.805 129.134 290.629 129.493 290.807 130.228C292.32 136.456 293.744 145.672 292.61 156.608C292.297 159.583 290.602 175.682 286.647 176.057C284.074 176.308 279.774 169.887 272.367 138.379L289.137 129.489Z" fill="#6683C2"/>
<path d="M161.516 142.138C161.516 142.138 163.65 186.581 172.03 188.366C180.409 190.152 180.786 149.028 180.786 149.028L161.516 142.138Z" fill="#6683C2"/>
<path d="M312.039 180.944C309.968 180.944 307.865 180.568 305.857 179.722L241.267 153.632C232.793 150.219 228.713 140.603 232.165 132.147C235.586 123.69 245.221 119.619 253.695 123.064L318.285 149.154C326.759 152.568 330.839 162.183 327.387 170.639C324.75 177.06 318.567 180.944 312.039 180.944Z" fill="#FDA67D"/>
<path d="M139.673 196.134C133.741 196.134 128.029 192.94 125.048 187.365C120.779 179.315 123.855 169.324 131.921 165.065L182.262 138.505C190.328 134.245 200.34 137.315 204.608 145.364C208.877 153.413 205.801 163.405 197.735 167.664L147.394 194.224C144.914 195.508 142.278 196.134 139.673 196.134Z" fill="#FDA67D"/>
<path d="M290.134 137.816L269.138 129.328L253.445 157.641C253.445 157.641 254.826 158.581 257.086 160.053L290.793 173.677C285.238 161.901 289.004 142.827 290.134 137.816Z" fill="#7393D7"/>
<path d="M158.875 150.814C162.61 157.109 170.174 170.765 172.151 181.132L182.79 175.526C188.22 166.255 193.681 156.232 193.681 156.232L178.742 140.353L158.875 150.814Z" fill="#7393D7"/>
<path d="M304.506 143.61C302.089 153.194 308.492 165.941 306.609 160.742C306.452 160.335 306.358 159.928 306.232 159.458C305.291 155.073 306.389 148.339 307.142 144.675L304.506 143.61Z" fill="#6683C2"/>
<path d="M200.414 444.788C201.633 444.33 202.531 443.29 202.854 442.029L250.046 257.679C250.485 255.925 250.83 253.92 250.987 252.041C252.368 233.907 238.779 218.09 220.638 216.712C202.466 215.334 186.617 228.895 185.236 246.999L170.077 444.661C169.92 446.665 170.171 448.639 170.736 450.487C182.786 449.966 192.563 447.739 200.414 444.788Z" fill="#7393D7"/>
<path d="M220.603 216.743C202.431 215.365 186.582 228.927 185.201 247.03L183.945 263.317C191.635 267.169 201.489 270.207 210.936 267.545C224.338 263.755 237.111 250.413 249.979 241.173C246.527 228.019 235.008 217.84 220.603 216.743Z" fill="#6683C2"/>
<path d="M209.252 117.207C209.252 117.207 228.271 136.939 242.959 120.339L290.413 128.764C290.413 128.764 278.142 166.317 286.616 175.995C281.908 175.056 277.2 174.116 272.461 173.176C277.891 193.942 283.289 214.707 288.718 235.472C268.004 235.159 252.218 238.479 241.359 241.737C229.37 245.338 220.456 249.723 204.199 252.323C193.34 254.045 184.175 254.202 177.993 254.014C179.468 230.43 180.943 206.877 182.418 183.293C179.028 185.141 175.67 186.989 172.281 188.837C172.751 182.729 172.751 173.803 170.178 163.467C167.918 154.322 164.403 147.181 161.516 142.232L209.252 117.207Z" fill="white"/>
<path d="M271.842 163.342C271.685 163.342 271.559 163.248 271.528 163.092C268.546 144.08 256.055 126.478 255.93 126.29C255.836 126.165 255.867 125.977 255.993 125.883C256.118 125.789 256.306 125.82 256.401 125.946C256.526 126.134 269.111 143.861 272.093 162.998C272.124 163.154 271.999 163.311 271.842 163.342C271.873 163.342 271.873 163.342 271.842 163.342Z" fill="#E3E3E3"/>
<path d="M186.47 174.304C186.313 174.304 186.187 174.179 186.156 174.022C185.591 159.583 195.603 129.015 195.728 128.702C195.791 128.545 195.948 128.451 196.105 128.514C196.262 128.576 196.356 128.733 196.293 128.89C196.199 129.203 186.219 159.646 186.752 173.991C186.752 174.147 186.627 174.273 186.47 174.304Z" fill="#E3E3E3"/>
<path d="M325.032 274.341C324.875 269.768 324.53 265.039 323.745 260.529C322.867 255.518 321.14 248.095 316.401 241.893C305.73 227.862 284.514 228.801 278.865 229.052C268.383 229.49 261.541 232.81 260.034 233.593C256.739 235.253 253.945 237.226 248.014 242.676C234.204 255.361 227.3 261.719 225.511 269.205C225.166 270.614 222.31 283.361 229.277 290.346C230.658 291.724 234.299 294.699 258.59 294.856C266.374 294.918 272.745 294.574 277.045 294.292C281.407 323.952 285.048 362.069 288.594 392.168C297.732 389.674 312.312 383.171 317.018 381.027C317.966 380.595 318.593 379.711 318.688 378.674C319.683 367.786 325.203 305.891 325.032 274.341Z" fill="#7393D7"/>
<path d="M286.996 276.44C286.619 276.408 285.835 276.659 283.512 278.977C283.073 279.415 282.665 279.885 282.257 280.355C282.665 278.319 282.947 276.44 283.104 274.905C283.418 271.71 283.073 271.084 282.696 270.896C282.602 270.833 282.414 270.802 282.162 270.865C281.064 271.272 279.181 274.811 278.271 277.191C277.204 279.979 276.921 282.359 276.827 283.268V283.299C276.482 286.149 275.98 289.782 275.258 294.386C275.478 294.386 275.666 294.355 275.886 294.355C275.917 294.104 275.948 293.885 275.98 293.666C276.011 293.916 276.074 294.136 276.199 294.261C276.231 294.292 276.262 294.324 276.262 294.355C276.513 294.324 276.764 294.324 276.984 294.292C276.984 294.355 277.015 294.418 277.015 294.48C279.055 293.822 281.158 285.147 281.754 282.422C281.817 282.171 281.849 281.921 281.911 281.702C282.539 280.887 283.167 280.136 283.889 279.446C286.148 277.16 286.776 277.066 286.87 277.066C286.902 277.16 287.059 277.912 285.175 281.764C284.046 284.019 282.414 286.932 280.907 289.344C279.683 291.286 278.396 293.165 277.078 294.95C277.11 295.232 277.172 295.514 277.204 295.796C278.679 293.854 280.091 291.818 281.441 289.688C282.978 287.245 284.61 284.301 285.74 282.015C287.969 277.505 287.561 276.941 287.372 276.69C287.31 276.534 287.184 276.44 286.996 276.44ZM279.746 287.966C278.02 293.541 277.015 293.885 276.827 293.885C276.764 293.885 276.733 293.885 276.702 293.854C276.074 293.071 277.831 287.652 281.064 282.923C280.687 284.708 280.217 286.462 279.746 287.966ZM281.409 281.42C279.055 284.52 277.235 288.216 276.45 290.878C276.89 287.934 277.235 285.46 277.455 283.362V283.33C277.549 282.453 277.831 280.104 278.867 277.411C280.122 274.153 281.943 271.428 282.414 271.428C282.633 271.585 282.853 273.057 282.162 277.411C281.974 278.695 281.723 280.042 281.409 281.42Z" fill="#6683C2"/>
<path d="M250.967 252.073L240.578 294.292C245.129 294.731 250.998 294.762 258.562 294.825C265.341 294.856 271.053 294.637 275.258 294.386C269.013 294.449 248.33 291.724 250.967 252.073Z" fill="#6683C2"/>
<path d="M284.988 347.76C284.733 347.097 283.582 347.35 283.656 348.056C285.486 365.362 287.615 388.758 288.563 392.168C289.568 395.783 307.536 385.893 316.226 381.471C316.71 381.225 316.628 380.499 316.108 380.344C299.517 375.379 290.345 361.704 284.988 347.76Z" fill="#6683C2"/>
<path d="M139.201 342.087L138.542 342.024C138.542 341.868 139.86 325.143 137.726 303.156C135.78 282.892 130.445 253.858 116.07 230.743L116.635 230.399C124.607 243.209 134.838 266.26 138.385 303.124C140.519 325.174 139.201 341.93 139.201 342.087Z" fill="#7393D7"/>
<path d="M338.768 202.367C333.119 202.367 326.403 201.396 318.651 199.423C305.72 196.134 294.61 191.185 294.516 191.123L294.798 190.528C295.237 190.716 338.988 210.134 354.586 197.262C360.079 192.751 361.459 184.702 358.792 173.333L359.419 173.176C362.181 184.796 360.706 193.065 354.994 197.731C351.259 200.832 345.861 202.367 338.768 202.367Z" fill="#7393D7"/>
<path d="M105.018 483.028L104.516 482.59C121.401 462.795 134.614 440.871 143.809 417.412C159.062 378.481 163.111 336.073 155.861 291.348C151.718 265.916 143.841 239.92 133.013 216.211L133.609 215.929C144.437 239.701 152.346 265.759 156.489 291.254C163.77 336.105 159.69 378.606 144.406 417.663C135.179 441.184 121.934 463.171 105.018 483.028Z" fill="#7393D7"/>
<path d="M75.7354 182.98C80.0979 184.107 84.3663 180.13 87.6303 177.186C88.1325 176.716 93.8131 171.485 92.903 170.17C92.5263 169.637 91.5534 170.452 89.6703 170.295C85.0567 169.951 82.6087 164.469 77.9324 164C77.7755 164 77.6813 163.968 77.5871 163.968C74.6997 163.718 73.1305 163.561 71.9693 164.626C67.8892 168.322 73.6013 182.009 73.6013 182.009C74.0407 182.322 74.7939 182.729 75.7354 182.98Z" fill="#EA927A"/>
<path d="M67.5179 121.384L91.9287 240.168C91.994 240.486 92.3043 240.69 92.6218 240.625L178.694 223.009C179.012 222.944 179.216 222.634 179.151 222.317L154.74 103.533C154.675 103.216 154.365 103.011 154.047 103.076L67.9747 120.692C67.6572 120.757 67.4527 121.067 67.5179 121.384Z" fill="#FAF0EB"/>
<path d="M127.491 134.746C127.365 134.746 127.24 134.652 127.208 134.496L125.419 125.82C125.388 125.726 125.419 125.663 125.451 125.601C125.482 125.538 125.576 125.475 125.639 125.475L134.333 123.69C134.395 123.659 134.489 123.69 134.552 123.722C134.615 123.753 134.678 123.847 134.678 123.909L136.467 132.585C136.498 132.742 136.404 132.898 136.216 132.93L127.522 134.715C127.522 134.746 127.522 134.746 127.491 134.746ZM126.078 126.008L127.742 134.089L135.839 132.429L134.176 124.348L126.078 126.008Z" fill="#6683C2"/>
<path d="M141.773 131.802C141.647 131.802 141.522 131.708 141.49 131.552L139.701 122.876C139.67 122.719 139.764 122.563 139.952 122.531L148.646 120.746C148.803 120.715 148.96 120.809 148.991 120.997L150.78 129.672C150.811 129.829 150.717 129.986 150.529 130.017L141.835 131.802C141.804 131.802 141.804 131.802 141.773 131.802ZM140.36 123.064L142.024 131.145L150.121 129.485L148.458 121.404L140.36 123.064Z" fill="#6683C2"/>
<path d="M130.538 149.592C130.412 149.592 130.286 149.498 130.255 149.342L128.466 140.666C128.435 140.572 128.466 140.509 128.498 140.447C128.529 140.384 128.623 140.321 128.686 140.321L137.379 138.536C137.442 138.505 137.536 138.536 137.599 138.567C137.662 138.599 137.725 138.693 137.725 138.755L139.514 147.431C139.545 147.588 139.451 147.744 139.263 147.776L130.569 149.561C130.6 149.592 130.569 149.592 130.538 149.592ZM129.125 140.854L130.789 148.935L138.886 147.275L137.222 139.194L129.125 140.854Z" fill="#6683C2"/>
<path d="M144.82 146.648C144.694 146.648 144.568 146.554 144.537 146.398L142.748 137.722C142.717 137.565 142.811 137.409 142.999 137.377L151.693 135.592C151.756 135.561 151.85 135.592 151.913 135.623C151.975 135.655 152.038 135.749 152.038 135.811L153.827 144.487C153.858 144.581 153.827 144.644 153.796 144.706C153.764 144.769 153.67 144.832 153.607 144.832L144.914 146.617C144.851 146.648 144.851 146.648 144.82 146.648ZM143.407 137.941L145.071 146.022L153.168 144.362L151.505 136.281L143.407 137.941Z" fill="#6683C2"/>
<path d="M133.577 164.438C133.514 164.438 133.451 164.407 133.42 164.375C133.357 164.344 133.294 164.25 133.294 164.187L131.505 155.512C131.474 155.418 131.505 155.355 131.537 155.292C131.568 155.23 131.662 155.167 131.725 155.167L140.418 153.382C140.575 153.351 140.732 153.445 140.764 153.632L142.553 162.308C142.584 162.465 142.49 162.621 142.302 162.653L133.608 164.438C133.639 164.438 133.608 164.438 133.577 164.438ZM132.164 155.7L133.828 163.78L141.925 162.12L140.262 154.04L132.164 155.7Z" fill="#6683C2"/>
<path d="M147.859 161.525C147.796 161.525 147.733 161.494 147.702 161.462C147.639 161.431 147.576 161.337 147.576 161.275L145.787 152.599C145.756 152.442 145.85 152.286 146.038 152.254L154.732 150.469C154.889 150.438 155.046 150.532 155.077 150.72L156.866 159.395C156.897 159.489 156.866 159.552 156.835 159.615C156.803 159.677 156.709 159.74 156.646 159.74L147.953 161.525C147.921 161.494 147.89 161.525 147.859 161.525ZM146.446 152.787L148.11 160.867L156.207 159.207L154.544 151.127L146.446 152.787Z" fill="#6683C2"/>
<path d="M136.655 179.284C136.53 179.284 136.404 179.19 136.373 179.033L134.584 170.358C134.553 170.201 134.647 170.044 134.835 170.013L143.529 168.228C143.686 168.197 143.843 168.291 143.874 168.478L145.663 177.154C145.694 177.311 145.6 177.467 145.412 177.499L136.718 179.284C136.687 179.284 136.655 179.284 136.655 179.284ZM135.212 170.546L136.875 178.626L144.972 176.966L143.309 168.886L135.212 170.546Z" fill="#6683C2"/>
<path d="M150.937 176.371C150.874 176.371 150.811 176.34 150.78 176.308C150.717 176.277 150.654 176.183 150.654 176.12L148.865 167.445C148.834 167.288 148.928 167.132 149.116 167.1L157.81 165.315C157.873 165.284 157.967 165.315 158.03 165.346C158.092 165.378 158.155 165.472 158.155 165.534L159.944 174.21C159.976 174.367 159.881 174.523 159.693 174.554L150.999 176.34C150.968 176.371 150.937 176.371 150.937 176.371ZM149.493 167.633L151.156 175.713L159.254 174.053L157.59 165.973L149.493 167.633Z" fill="#6683C2"/>
<path d="M139.764 194.412C139.639 194.412 139.513 194.318 139.482 194.161L137.693 185.485C137.661 185.391 137.693 185.329 137.724 185.266C137.755 185.203 137.85 185.141 137.912 185.141L146.606 183.356C146.669 183.324 146.763 183.356 146.826 183.387C146.888 183.418 146.951 183.512 146.951 183.575L148.74 192.25C148.772 192.407 148.677 192.564 148.489 192.595L139.795 194.38C139.795 194.412 139.764 194.412 139.764 194.412ZM138.32 185.673L139.984 193.754L148.081 192.094L146.418 184.013L138.32 185.673Z" fill="#6683C2"/>
<path d="M154.045 191.499C153.983 191.499 153.92 191.467 153.888 191.436C153.826 191.405 153.763 191.311 153.763 191.248L151.974 182.572C151.943 182.479 151.974 182.416 152.005 182.353C152.037 182.291 152.131 182.228 152.194 182.228L160.887 180.443C161.044 180.411 161.201 180.505 161.232 180.693L163.021 189.369C163.053 189.526 162.959 189.682 162.77 189.714L154.077 191.499H154.045ZM152.602 182.76L154.265 190.841L162.362 189.181L160.699 181.1L152.602 182.76Z" fill="#6683C2"/>
<path d="M142.803 209.257C142.678 209.257 142.552 209.163 142.521 209.007L140.732 200.331C140.7 200.237 140.732 200.174 140.763 200.112C140.795 200.049 140.889 199.986 140.951 199.986L149.645 198.201C149.708 198.17 149.802 198.201 149.865 198.233C149.928 198.264 149.99 198.358 149.99 198.42L151.779 207.096C151.811 207.19 151.779 207.253 151.748 207.315C151.716 207.378 151.622 207.441 151.56 207.441L142.866 209.226C142.835 209.257 142.835 209.257 142.803 209.257ZM141.391 200.519L143.054 208.6L151.152 206.94L149.488 198.859L141.391 200.519Z" fill="#6683C2"/>
<path d="M157.085 206.345C157.022 206.345 156.96 206.314 156.928 206.282C156.865 206.251 156.803 206.157 156.803 206.094L155.014 197.419C154.982 197.262 155.077 197.105 155.265 197.074L163.958 195.289C164.021 195.258 164.115 195.289 164.178 195.32C164.241 195.351 164.304 195.445 164.304 195.508L166.093 204.184C166.124 204.34 166.03 204.497 165.842 204.528L157.148 206.314C157.117 206.345 157.117 206.345 157.085 206.345ZM155.673 197.607L157.336 205.687L165.434 204.027L163.77 195.947L155.673 197.607Z" fill="#6683C2"/>
<path d="M79.3743 140.071C79.2488 140.071 79.1233 139.977 79.0919 139.82C79.0605 139.664 79.1547 139.507 79.343 139.476L119.076 131.332C119.233 131.301 119.39 131.395 119.421 131.583C119.453 131.74 119.359 131.896 119.17 131.927L79.4371 140.071C79.4371 140.071 79.4057 140.071 79.3743 140.071Z" fill="#F1C48B"/>
<path d="M80.2806 144.393C80.1551 144.393 80.0295 144.299 79.9981 144.142C79.9668 143.986 80.0609 143.829 80.2492 143.798L119.982 135.655C120.139 135.623 120.296 135.717 120.328 135.905C120.359 136.062 120.265 136.218 120.077 136.25L80.3434 144.393C80.312 144.393 80.2806 144.393 80.2806 144.393Z" fill="#F1C48B"/>
<path d="M82.015 152.881C81.8894 152.881 81.7639 152.787 81.7325 152.63C81.7011 152.474 81.7953 152.317 81.9836 152.286L121.717 144.142C121.874 144.111 122.031 144.205 122.062 144.393C122.093 144.55 121.999 144.706 121.811 144.737L82.0777 152.881C82.0464 152.849 82.0464 152.881 82.015 152.881Z" fill="#F1C48B"/>
<path d="M82.9212 157.203C82.7957 157.203 82.6701 157.109 82.6388 156.952C82.6074 156.796 82.7015 156.639 82.8898 156.608L122.623 148.465C122.78 148.433 122.937 148.527 122.968 148.715C123 148.872 122.906 149.028 122.717 149.06L82.984 157.203C82.9526 157.203 82.9212 157.203 82.9212 157.203Z" fill="#F1C48B"/>
<path d="M85.304 168.823C85.1785 168.823 85.053 168.729 85.0216 168.572C84.9902 168.416 85.0843 168.259 85.2726 168.228L125.006 160.085C125.163 160.053 125.32 160.147 125.351 160.335C125.382 160.492 125.288 160.648 125.1 160.68L85.3668 168.823C85.3354 168.792 85.304 168.823 85.304 168.823Z" fill="#F1C48B"/>
<path d="M86.1868 173.145C86.0613 173.145 85.9358 173.051 85.9044 172.895C85.873 172.738 85.9672 172.581 86.1555 172.55L125.889 164.407C126.046 164.375 126.203 164.469 126.234 164.657C126.265 164.814 126.171 164.971 125.983 165.002L86.2496 173.145C86.2182 173.145 86.2182 173.145 86.1868 173.145Z" fill="#F1C48B"/>
<path d="M87.9134 181.602C87.7879 181.602 87.6623 181.508 87.6309 181.351C87.5996 181.195 87.6937 181.038 87.882 181.007L127.615 172.863C127.772 172.832 127.929 172.926 127.96 173.114C127.992 173.271 127.898 173.427 127.709 173.458L87.9762 181.602C87.9762 181.602 87.9448 181.602 87.9134 181.602Z" fill="#F1C48B"/>
<path d="M88.8197 185.955C88.6941 185.955 88.5686 185.861 88.5372 185.704C88.5058 185.548 88.6 185.391 88.7883 185.36L128.521 177.217C128.678 177.185 128.835 177.279 128.867 177.467C128.898 177.624 128.804 177.78 128.616 177.812L88.8824 185.955C88.851 185.955 88.8197 185.955 88.8197 185.955Z" fill="#F1C48B"/>
<path d="M91.429 198.609C91.3035 198.609 91.178 198.515 91.1466 198.358C91.1152 198.201 91.2093 198.045 91.3976 198.013L131.131 189.87C131.288 189.839 131.445 189.933 131.476 190.121C131.507 190.277 131.413 190.434 131.225 190.465L91.4918 198.609C91.4604 198.609 91.429 198.609 91.429 198.609Z" fill="#F1C48B"/>
<path d="M92.304 202.931C92.1785 202.931 92.053 202.837 92.0216 202.68C91.9902 202.524 92.0843 202.367 92.2727 202.336L132.006 194.192C132.163 194.161 132.32 194.255 132.351 194.443C132.382 194.6 132.288 194.756 132.1 194.788L92.3668 202.931C92.3354 202.931 92.3354 202.931 92.304 202.931Z" fill="#F1C48B"/>
<path d="M94.0306 211.419C93.9051 211.419 93.7795 211.325 93.7481 211.168C93.7168 211.012 93.8109 210.855 93.9992 210.824L133.732 202.68C133.889 202.649 134.046 202.743 134.078 202.931C134.109 203.088 134.015 203.244 133.827 203.276L94.0934 211.419C94.0934 211.388 94.062 211.419 94.0306 211.419Z" fill="#F1C48B"/>
<path d="M94.9447 215.741C94.8191 215.741 94.6936 215.647 94.6622 215.49C94.6308 215.333 94.725 215.177 94.9133 215.146L134.646 207.002C134.803 206.971 134.96 207.065 134.992 207.253C135.023 207.409 134.929 207.566 134.741 207.597L95.0074 215.741C94.976 215.741 94.9447 215.741 94.9447 215.741Z" fill="#F1C48B"/>
<path d="M131.914 131.552C131.757 131.552 131.6 131.52 131.474 131.426L128.461 129.453C128.085 129.203 127.991 128.702 128.242 128.326C128.493 127.95 128.995 127.856 129.372 128.107L131.349 129.422L132.981 120.746C133.075 120.308 133.483 120.026 133.922 120.089C134.362 120.182 134.644 120.59 134.581 121.028L132.73 130.894C132.667 131.145 132.51 131.395 132.259 131.489C132.102 131.52 132.008 131.552 131.914 131.552Z" fill="#367091"/>
<path d="M148.172 144.581C148.015 144.581 147.858 144.55 147.732 144.456L144.719 142.483C144.343 142.232 144.248 141.731 144.5 141.355C144.751 140.979 145.253 140.885 145.629 141.136L147.607 142.451L149.239 133.776C149.333 133.337 149.741 133.055 150.18 133.118C150.62 133.212 150.902 133.619 150.839 134.057L148.988 143.923C148.925 144.174 148.768 144.424 148.517 144.518C148.391 144.55 148.297 144.581 148.172 144.581Z" fill="#367091"/>
<path d="M151.148 158.957C150.991 158.957 150.834 158.926 150.709 158.832L147.696 156.859C147.319 156.608 147.225 156.107 147.476 155.731C147.727 155.355 148.229 155.261 148.606 155.512L150.583 156.827L152.215 148.152C152.309 147.713 152.717 147.431 153.157 147.494C153.596 147.588 153.879 147.995 153.816 148.433L151.964 158.299C151.901 158.55 151.744 158.8 151.493 158.894C151.336 158.926 151.242 158.957 151.148 158.957Z" fill="#367091"/>
<path d="M140.101 177.655C139.944 177.655 139.787 177.624 139.662 177.53L136.649 175.557C136.272 175.306 136.178 174.805 136.429 174.429C136.68 174.053 137.182 173.959 137.559 174.21L139.536 175.525L141.168 166.85C141.262 166.411 141.67 166.129 142.11 166.192C142.549 166.286 142.832 166.693 142.769 167.132L140.917 176.998C140.854 177.248 140.698 177.499 140.446 177.593C140.29 177.624 140.195 177.655 140.101 177.655Z" fill="#367091"/>
<path d="M157.367 189.306C157.21 189.306 157.053 189.275 156.927 189.181L153.915 187.208C153.538 186.957 153.444 186.456 153.695 186.08C153.946 185.705 154.448 185.611 154.825 185.861L156.802 187.177L158.434 178.501C158.528 178.062 158.936 177.781 159.375 177.843C159.815 177.937 160.097 178.344 160.035 178.783L158.183 188.649C158.12 188.899 157.963 189.15 157.712 189.244C157.587 189.275 157.492 189.306 157.367 189.306Z" fill="#367091"/>
<path d="M147.547 207.629C147.39 207.629 147.233 207.598 147.107 207.504L144.094 205.53C143.718 205.28 143.623 204.779 143.875 204.403C144.126 204.027 144.628 203.933 145.004 204.184L146.982 205.499L148.614 196.823C148.708 196.385 149.116 196.103 149.555 196.166C149.995 196.26 150.277 196.667 150.214 197.105L148.363 206.971C148.3 207.222 148.143 207.472 147.892 207.566C147.766 207.598 147.641 207.629 147.547 207.629Z" fill="#367091"/>
<path d="M86.2779 124.536C85.9013 124.536 85.5561 124.254 85.4933 123.878C85.3992 123.44 85.713 123.032 86.1524 122.939L136.902 113.511C137.341 113.417 137.749 113.73 137.843 114.169C137.937 114.607 137.624 115.014 137.184 115.108L86.4349 124.536C86.3721 124.536 86.3407 124.536 86.2779 124.536Z" fill="#7393D7"/>
<path d="M80.6897 159.521H80.2503C80.1248 159.521 79.9993 159.521 79.8423 159.552C79.5913 159.552 79.3402 159.584 79.0891 159.615C78.587 159.678 78.0848 159.74 77.5826 159.866C76.5783 160.085 75.6054 160.429 74.6638 160.868C74.1931 161.087 73.7223 161.369 73.2829 161.682C72.8435 161.995 72.4041 162.309 71.9961 162.684C71.1801 163.436 70.4897 164.313 69.9247 165.284V165.315C69.2029 166.537 69.6423 168.197 70.9291 169.011C72.2158 169.825 73.8478 169.481 74.5697 168.228C74.6638 168.103 74.7266 167.946 74.758 167.79C74.9777 167.194 75.2602 166.599 75.6682 166.067C75.8565 165.785 76.0762 165.534 76.3272 165.315C76.5783 165.065 76.8294 164.845 77.1119 164.626C77.6768 164.188 78.3045 163.843 78.995 163.53C79.3402 163.373 79.6854 163.248 80.062 163.154C80.2503 163.092 80.4387 163.06 80.5956 162.998C80.6897 162.966 80.7839 162.966 80.8467 162.935L81.0664 162.904C81.9765 162.872 82.667 162.089 82.5728 161.15C82.4787 160.21 81.5999 159.49 80.6897 159.521Z" fill="#FDA67D"/>
<path d="M83.5438 163.092L82.6336 163.28C82.3512 163.342 82.0373 163.405 81.7549 163.468C81.1899 163.593 80.5936 163.749 80.0287 163.906C78.8988 164.219 77.7376 164.595 76.6391 165.065C76.0742 165.284 75.5093 165.535 74.9443 165.817C74.3794 166.099 73.8145 166.412 73.2809 166.756C72.716 167.101 72.1825 167.508 71.6489 168.009C71.1154 168.51 70.6132 169.074 70.1738 169.794L70.1111 169.888C69.3578 171.11 69.7658 172.77 71.0526 173.584C72.308 174.398 73.94 174.085 74.6933 172.864C74.7246 172.801 74.756 172.738 74.8188 172.676C74.9443 172.425 75.1326 172.143 75.4151 171.861C75.6662 171.58 75.98 171.298 76.3567 171.016C76.7019 170.734 77.1099 170.483 77.5179 170.233C77.9259 169.982 78.3653 169.763 78.8361 169.544C79.7462 169.105 80.6878 168.729 81.6921 168.354C82.1942 168.166 82.6964 168.009 83.1986 167.852C83.4496 167.79 83.7007 167.696 83.9518 167.633L84.7678 167.414C85.929 167.101 86.5881 165.911 86.2115 164.72C85.8349 163.593 84.6736 162.873 83.5438 163.092Z" fill="#FDA67D"/>
<path d="M82.3571 168.51L80.9447 168.855C80.474 168.98 80.0346 169.105 79.5952 169.231C78.685 169.512 77.7749 169.794 76.8961 170.17C75.9859 170.515 75.0758 170.922 74.1656 171.454C73.6948 171.705 73.2241 172.018 72.7533 172.425C72.5022 172.613 72.2511 172.832 72.0001 173.114L71.9059 173.208L71.8117 173.333C71.749 173.427 71.6862 173.49 71.6234 173.584C71.5607 173.647 71.4979 173.772 71.4351 173.866C71.3724 173.96 71.3096 174.054 71.2468 174.148C70.6191 175.432 71.1527 177.061 72.4708 177.75C73.789 178.47 75.3896 178 76.0173 176.716V176.685V176.653L76.0487 176.622C76.0801 176.559 76.1742 176.466 76.2684 176.372C76.4567 176.184 76.7078 175.964 77.0216 175.745C77.6179 175.338 78.3084 174.931 79.0303 174.555C79.7521 174.179 80.5367 173.835 81.3214 173.49C81.7294 173.333 82.106 173.177 82.514 173.02L83.7694 172.55C84.8678 172.175 85.37 170.953 84.9306 169.857C84.5226 168.855 83.3928 168.291 82.3571 168.51Z" fill="#FDA67D"/>
<path d="M80.9143 174.649L79.9413 174.774C79.6275 174.805 79.3136 174.868 78.9998 174.931C78.3721 175.056 77.7444 175.181 77.0853 175.338C76.4262 175.526 75.7671 175.714 75.0453 176.058C74.6687 176.246 74.2921 176.434 73.8841 176.779L73.7271 176.904C73.6644 176.967 73.6016 176.998 73.5702 177.06C73.5074 177.123 73.4761 177.154 73.4133 177.217C73.3505 177.28 73.2877 177.342 73.2564 177.436C73.1936 177.499 73.1622 177.562 73.0994 177.656C73.0367 177.75 73.0053 177.843 72.9425 177.937C72.9111 178 72.8797 178.031 72.8797 178.094C72.8484 178.157 72.8484 178.219 72.817 178.251C72.7856 178.376 72.7228 178.47 72.6914 178.595C72.3148 179.911 73.1622 181.32 74.4804 181.727C75.8299 182.134 77.1795 181.414 77.5247 180.099C77.5247 180.13 77.4933 180.193 77.4933 180.224C77.4933 180.255 77.4619 180.255 77.4619 180.286C77.4619 180.318 77.4619 180.318 77.4305 180.318C77.3992 180.38 77.3678 180.443 77.3364 180.443L77.305 180.474C77.3364 180.443 77.4305 180.318 77.5875 180.224C77.9013 180.005 78.3407 179.785 78.8115 179.597C79.2823 179.41 79.7844 179.222 80.318 179.065C80.569 178.971 80.8515 178.908 81.1026 178.846L81.9813 178.627C83.0798 178.345 83.6761 177.248 83.3623 176.152C82.9543 175.213 81.95 174.555 80.9143 174.649Z" fill="#FDA67D"/>
<path d="M82.0034 159.897C81.7837 159.835 79.5553 159.052 78.6452 159.991C78.5824 160.054 78.0803 160.586 78.2686 161.025C78.3627 161.244 78.551 161.369 78.7393 161.463C79.116 161.651 79.524 161.683 80.3086 161.683C80.9677 161.683 81.3129 161.651 81.6581 161.463C81.7209 161.432 81.7837 161.401 81.8151 161.338C82.2858 160.962 82.0661 160.116 82.0034 159.897Z" fill="#EFC4BD"/>
<path d="M85.1404 163.124C84.4186 163.124 83.8537 163.217 83.4771 163.311C82.7552 163.468 82.1903 163.625 81.7823 164.126C81.6881 164.22 81.2487 164.784 81.437 165.316C81.5312 165.629 81.7823 165.786 81.8764 165.848C82.0333 165.974 82.3786 166.162 83.4771 166.036C84.4186 165.911 84.858 165.88 85.1404 165.567C85.6112 165.065 85.5798 164.063 85.1404 163.124Z" fill="#EFC4BD"/>
<path d="M83.7967 168.51C83.0748 168.51 82.5099 168.604 82.1333 168.698C81.4114 168.855 80.8465 169.011 80.4385 169.512C80.3444 169.606 79.905 170.17 80.0933 170.703C80.1874 171.016 80.4385 171.172 80.5327 171.235C80.6896 171.36 81.0348 171.548 82.1333 171.423C83.0748 171.298 83.5142 171.235 83.7967 170.953C84.2675 170.452 84.2675 169.45 83.7967 168.51Z" fill="#EFC4BD"/>
<path d="M81.8791 174.806C81.2828 174.806 80.8121 174.868 80.4982 174.962C79.9019 175.088 79.4311 175.213 79.1173 175.62C79.0545 175.714 78.6779 176.152 78.8348 176.591C78.929 176.841 79.1173 176.998 79.18 177.029C79.3056 177.123 79.588 177.28 80.4982 177.186C81.2514 177.092 81.6281 177.029 81.8791 176.81C82.2871 176.372 82.2558 175.557 81.8791 174.806Z" fill="#EFC4BD"/>
<path d="M71.6512 168.291C71.557 168.291 71.4943 168.26 71.4315 168.197C71.3059 168.072 71.3373 167.884 71.4629 167.759C71.557 167.696 73.4715 166.005 74.8524 165.504C75.0094 165.441 75.1977 165.535 75.229 165.691C75.2918 165.848 75.1977 166.036 75.0407 166.067C73.7853 166.506 71.8709 168.197 71.8395 168.197C71.8081 168.26 71.7139 168.291 71.6512 168.291Z" fill="#6683C2"/>
<path d="M72.7181 172.739C72.6239 172.739 72.5298 172.676 72.467 172.613C72.3729 172.488 72.4043 172.3 72.5612 172.206C72.7495 172.081 77.112 169.262 78.8068 169.231C78.9637 169.231 79.1206 169.356 79.1206 169.544C79.1206 169.701 78.9951 169.857 78.8068 169.857C77.5514 169.888 74.099 171.924 72.9064 172.707C72.8436 172.707 72.7809 172.739 72.7181 172.739Z" fill="#6683C2"/>
<path d="M73.8774 177.123C73.7519 177.123 73.6577 177.061 73.5949 176.967C73.5322 176.81 73.5949 176.622 73.7205 176.56L77.8633 174.524C78.0202 174.461 78.2085 174.524 78.2713 174.649C78.334 174.806 78.2713 174.994 78.1457 175.056L74.0029 177.092C73.9716 177.123 73.9088 177.123 73.8774 177.123Z" fill="#6683C2"/>
<path d="M92.7989 226.978L92.3692 227.258L91.9402 227.535C91.8394 227.601 91.7646 227.641 91.7159 227.654C91.6255 227.676 91.553 227.645 91.4984 227.562C91.4033 227.417 91.4688 227.27 91.6948 227.123L91.7999 227.057L91.8913 227.004C91.8461 226.935 91.7728 226.837 91.6713 226.71C91.5713 226.582 91.4992 226.484 91.455 226.417C91.3354 226.234 91.1703 225.946 90.9596 225.551C90.7512 225.164 90.5842 224.876 90.4585 224.687C90.3635 224.962 90.2893 225.117 90.2361 225.152C90.1785 225.19 90.114 225.201 90.0425 225.186C89.9725 225.17 89.9192 225.134 89.8825 225.078C89.8382 225.01 89.8465 224.888 89.9072 224.711C89.9492 224.605 90.0019 224.446 90.0654 224.232C90.1083 224.021 90.1873 223.878 90.3025 223.803C90.399 223.74 90.4834 223.764 90.5559 223.875C90.5776 223.908 90.6057 223.96 90.6404 224.032C90.6741 224.102 90.7018 224.154 90.7234 224.187C90.7545 224.235 90.8037 224.305 90.8711 224.399C90.94 224.491 90.9899 224.561 91.021 224.609C91.1283 224.773 91.271 225.029 91.4492 225.376C91.6274 225.724 91.7697 225.979 91.8761 226.142C91.9307 226.225 92.0028 226.323 92.0924 226.435C92.1821 226.547 92.2526 226.64 92.3039 226.716L92.5278 226.563C92.5883 226.524 92.6512 226.512 92.7164 226.526C92.7821 226.539 92.8343 226.575 92.8729 226.634C92.9124 226.694 92.9247 226.757 92.9098 226.822C92.8964 226.886 92.8594 226.938 92.7989 226.978ZM94.4659 226.006C94.0283 226.292 93.5778 226.301 93.1146 226.032C92.7605 225.824 92.422 225.473 92.0992 224.98C91.8262 224.563 91.6874 224.134 91.6827 223.693C91.6792 223.176 91.879 222.786 92.2821 222.523C92.6608 222.276 93.0613 222.244 93.4838 222.428C93.8493 222.588 94.1633 222.868 94.426 223.27C94.8477 223.914 95.0622 224.465 95.0696 224.922C95.076 225.378 94.8748 225.74 94.4659 226.006ZM92.5525 222.941C92.2847 223.115 92.1613 223.39 92.1823 223.764C92.2 224.077 92.3044 224.38 92.4955 224.672C92.8052 225.145 93.1018 225.459 93.3853 225.612C93.6687 225.766 93.9386 225.759 94.1948 225.592C94.5 225.393 94.605 225.076 94.5096 224.641C94.4436 224.339 94.2892 224.003 94.0463 223.632C93.7912 223.242 93.5389 222.99 93.2895 222.875C93.0415 222.76 92.7958 222.782 92.5525 222.941ZM96.9884 224.36C96.5508 224.645 96.1003 224.654 95.6371 224.386C95.283 224.177 94.9445 223.827 94.6217 223.333C94.3487 222.916 94.2098 222.487 94.2052 222.046C94.2017 221.529 94.4015 221.139 94.8046 220.876C95.1833 220.629 95.5838 220.597 96.0063 220.781C96.3718 220.941 96.6858 221.222 96.9485 221.623C97.3702 222.268 97.5847 222.818 97.5921 223.276C97.5985 223.731 97.3973 224.093 96.9884 224.36ZM95.075 221.294C94.8072 221.469 94.6838 221.743 94.7048 222.118C94.7225 222.43 94.8269 222.733 95.018 223.025C95.3277 223.498 95.6243 223.812 95.9077 223.966C96.1912 224.119 96.4611 224.113 96.7173 223.945C97.0225 223.746 97.1275 223.429 97.0321 222.994C96.9661 222.693 96.8117 222.356 96.5688 221.985C96.3137 221.595 96.0614 221.343 95.812 221.228C95.5639 221.113 95.3183 221.135 95.075 221.294ZM99.4665 218.165C99.5607 218.309 99.5217 218.483 99.3495 218.688C99.3235 218.717 99.2198 218.791 99.0384 218.91C98.7562 219.094 98.5962 219.303 98.5583 219.537C98.5376 219.666 98.5643 219.885 98.6383 220.196C98.7184 219.992 98.8671 219.819 99.0845 219.677C99.3652 219.494 99.6616 219.479 99.9737 219.633C100.23 219.761 100.457 219.975 100.654 220.276C100.865 220.6 100.966 220.93 100.955 221.268C100.944 221.651 100.784 221.943 100.474 222.145C100.14 222.363 99.8005 222.384 99.4548 222.207C99.1651 222.06 98.8884 221.785 98.6248 221.382C98.3707 220.993 98.1999 220.569 98.1124 220.109C98.0048 219.542 98.0848 219.113 98.3521 218.822C98.4023 218.766 98.5123 218.683 98.6821 218.572C98.8367 218.469 98.9342 218.389 98.9748 218.332C98.9226 218.196 98.9397 218.099 99.0261 218.043C99.0923 218 99.1708 217.993 99.2617 218.022C99.354 218.05 99.4223 218.097 99.4665 218.165ZM100.278 220.573C99.957 220.083 99.6454 219.936 99.343 220.134C99.1372 220.268 99.0385 220.469 99.0471 220.736C99.0527 220.965 99.127 221.188 99.2701 221.407C99.3803 221.575 99.5157 221.691 99.6764 221.755C99.8584 221.829 100.029 221.814 100.189 221.709C100.385 221.582 100.483 221.403 100.482 221.173C100.481 220.979 100.413 220.779 100.278 220.573ZM103.512 220.184C103.485 220.202 103.414 220.202 103.301 220.186C103.198 220.169 103.115 220.148 103.053 220.123C102.964 220.288 102.879 220.424 102.798 220.53C102.719 220.637 102.644 220.714 102.573 220.76C102.236 220.98 101.929 221.045 101.65 220.956C101.388 220.872 101.137 220.646 100.896 220.278C100.668 219.93 100.592 219.554 100.669 219.151C100.748 218.746 100.954 218.435 101.286 218.218C101.411 218.137 101.573 218.077 101.771 218.04C102.019 217.993 102.181 218.026 102.255 218.14C102.28 218.179 102.289 218.223 102.28 218.272C102.301 218.336 102.348 218.433 102.422 218.564C102.496 218.694 102.597 218.857 102.724 219.054C102.839 219.233 102.943 219.366 103.037 219.453C103.093 219.507 103.221 219.604 103.422 219.744C103.449 219.763 103.49 219.791 103.546 219.826L103.583 219.854C103.621 219.912 103.632 219.972 103.616 220.036C103.6 220.1 103.565 220.149 103.512 220.184ZM102.082 218.977C102.041 218.915 102.001 218.846 101.961 218.769C101.922 218.69 101.883 218.605 101.845 218.512C101.774 218.52 101.715 218.53 101.668 218.542C101.622 218.554 101.587 218.567 101.564 218.582C101.341 218.728 101.208 218.945 101.165 219.234C101.122 219.52 101.178 219.782 101.334 220.02C101.488 220.256 101.646 220.405 101.806 220.469C101.967 220.532 102.131 220.51 102.298 220.401C102.436 220.31 102.537 220.209 102.6 220.095C102.634 220.034 102.671 219.932 102.711 219.789C102.416 219.438 102.206 219.167 102.082 218.977ZM105.988 218.179C106.029 218.241 106.042 218.305 106.028 218.372C106.014 218.438 105.976 218.492 105.912 218.534C105.85 218.574 105.786 218.587 105.719 218.573C105.653 218.559 105.599 218.521 105.559 218.46C105.528 218.412 105.482 218.35 105.422 218.275C105.353 218.188 105.307 218.128 105.283 218.095C105.202 217.981 105.102 217.833 104.983 217.65C105.012 217.694 104.826 217.403 104.424 216.777C104.337 216.852 104.246 216.921 104.149 216.984C103.909 217.141 103.673 217.289 103.441 217.427C103.48 217.486 103.539 217.576 103.62 217.696C103.699 217.814 103.759 217.904 103.798 217.964C104.096 218.419 104.274 218.747 104.332 218.949C104.426 219.284 104.334 219.543 104.056 219.724C103.948 219.794 103.839 219.834 103.729 219.842C103.597 219.85 103.498 219.804 103.432 219.703C103.397 219.65 103.384 219.594 103.393 219.535C103.403 219.475 103.435 219.427 103.49 219.391C103.519 219.372 103.567 219.356 103.634 219.343C103.702 219.33 103.749 219.315 103.776 219.297C103.881 219.228 103.901 219.107 103.835 218.935C103.796 218.837 103.706 218.68 103.563 218.462C103.49 218.35 103.372 218.187 103.209 217.973C103.048 217.758 102.931 217.595 102.859 217.484C102.816 217.419 102.804 217.354 102.822 217.287C102.841 217.219 102.883 217.163 102.948 217.121C102.985 217.097 103.036 217.066 103.101 217.03C103.183 216.985 103.235 216.955 103.258 216.94C103.421 216.844 103.625 216.716 103.87 216.556C103.923 216.522 103.995 216.46 104.087 216.371C104.179 216.282 104.253 216.22 104.307 216.184C104.467 216.08 104.592 216.097 104.683 216.235C104.764 216.36 104.885 216.549 105.043 216.8C105.203 217.051 105.324 217.239 105.406 217.364C105.521 217.54 105.619 217.685 105.701 217.8C105.726 217.835 105.774 217.898 105.846 217.989C105.909 218.067 105.956 218.13 105.988 218.179ZM108.675 216.425C108.716 216.487 108.729 216.551 108.715 216.618C108.701 216.684 108.662 216.738 108.599 216.78C108.537 216.82 108.473 216.833 108.406 216.819C108.339 216.805 108.286 216.768 108.245 216.706C108.214 216.658 108.169 216.596 108.109 216.521C108.04 216.434 107.993 216.374 107.969 216.341C107.889 216.227 107.789 216.079 107.669 215.896C107.698 215.941 107.512 215.649 107.11 215.023C107.024 215.098 106.932 215.167 106.836 215.23C106.595 215.387 106.359 215.535 106.128 215.673C106.166 215.732 106.226 215.822 106.306 215.942C106.386 216.06 106.445 216.15 106.485 216.21C106.782 216.665 106.96 216.993 107.019 217.195C107.112 217.53 107.02 217.789 106.743 217.97C106.635 218.041 106.526 218.08 106.416 218.088C106.284 218.096 106.185 218.05 106.119 217.949C106.084 217.896 106.071 217.84 106.079 217.781C106.09 217.721 106.122 217.673 106.177 217.637C106.205 217.619 106.254 217.603 106.321 217.589C106.388 217.576 106.436 217.561 106.463 217.543C106.568 217.474 106.588 217.353 106.522 217.181C106.483 217.083 106.392 216.926 106.25 216.709C106.177 216.596 106.059 216.433 105.896 216.219C105.735 216.004 105.618 215.841 105.545 215.73C105.503 215.666 105.491 215.6 105.508 215.533C105.528 215.465 105.57 215.409 105.634 215.367C105.672 215.343 105.723 215.312 105.788 215.276C105.869 215.231 105.921 215.201 105.944 215.186C106.108 215.09 106.311 214.962 106.556 214.802C106.609 214.768 106.682 214.706 106.774 214.617C106.866 214.528 106.939 214.466 106.994 214.43C107.154 214.326 107.279 214.343 107.369 214.481C107.451 214.606 107.571 214.795 107.73 215.046C107.89 215.297 108.011 215.485 108.093 215.61C108.207 215.786 108.306 215.931 108.387 216.046C108.412 216.081 108.46 216.144 108.532 216.235C108.595 216.313 108.643 216.376 108.675 216.425ZM110.488 213.52C110.721 213.875 110.832 214.262 110.823 214.681C110.81 215.168 110.618 215.533 110.245 215.776C109.939 215.975 109.621 216.055 109.291 216.014C108.94 215.972 108.666 215.799 108.469 215.497C108.236 215.142 108.133 214.746 108.158 214.311C108.185 213.821 108.385 213.455 108.758 213.211C109.472 212.745 110.049 212.848 110.488 213.52ZM110.039 213.813C109.896 213.594 109.751 213.474 109.603 213.454C109.458 213.432 109.27 213.496 109.041 213.645C108.82 213.79 108.701 214.026 108.686 214.354C108.673 214.665 108.75 214.948 108.918 215.204C109.031 215.377 109.188 215.474 109.39 215.496C109.582 215.517 109.772 215.465 109.961 215.342C110.18 215.199 110.29 214.968 110.293 214.648C110.295 214.353 110.21 214.075 110.039 213.813ZM113.032 212.961C113.205 213.225 113.122 213.544 112.785 213.921C112.574 214.157 112.285 214.395 111.917 214.635C111.861 214.671 111.793 214.684 111.712 214.674C111.632 214.662 111.575 214.629 111.539 214.574L111.27 214.164C111.268 214.16 111.023 213.769 110.535 212.993C110.488 212.921 110.441 212.849 110.394 212.777C110.338 212.689 110.301 212.612 110.284 212.547C110.269 212.5 110.272 212.458 110.293 212.421C110.302 212.403 110.334 212.366 110.39 212.309C110.462 212.231 110.599 212.126 110.8 211.995C111.032 211.843 111.279 211.762 111.541 211.751C111.847 211.738 112.071 211.841 112.213 212.058C112.345 212.259 112.333 212.477 112.179 212.712C112.319 212.688 112.474 212.697 112.643 212.738C112.836 212.785 112.966 212.859 113.032 212.961ZM111.809 212.321C111.752 212.234 111.641 212.196 111.477 212.209C111.332 212.22 111.212 212.256 111.117 212.318L111.028 212.376C110.919 212.447 110.846 212.498 110.81 212.527C110.84 212.577 110.892 212.657 110.963 212.766C110.981 212.793 111.02 212.845 111.08 212.921C111.13 212.985 111.167 213.039 111.191 213.082C111.279 213.037 111.356 212.993 111.422 212.95C111.584 212.845 111.694 212.758 111.755 212.69C111.867 212.561 111.886 212.438 111.809 212.321ZM112.592 213.221C112.541 213.143 112.436 213.107 112.277 213.112C112.154 213.115 112.037 213.138 111.928 213.181C111.864 213.206 111.777 213.253 111.667 213.323C111.528 213.41 111.443 213.461 111.41 213.478C111.469 213.58 111.52 213.664 111.564 213.732L111.839 214.153C112.458 213.71 112.709 213.399 112.592 213.221Z" fill="#7393D7"/>
</g>
<path fill-rule="evenodd" clip-rule="evenodd" d="M193.256 85.5395L189.334 58.3225L186.023 85.5395H193.256Z" fill="#FEA970"/>
<path fill-rule="evenodd" clip-rule="evenodd" d="M189.813 53.9546C190.278 54.1075 190.617 54.5802 190.617 55.1419C190.617 55.8268 190.113 56.3807 189.492 56.3807C188.871 56.3807 188.367 55.8268 188.367 55.1419C188.367 54.6005 188.682 54.1387 189.122 53.9718V51.8983H189.812V53.9546H189.813Z" fill="#6683C2"/>
<path fill-rule="evenodd" clip-rule="evenodd" d="M188.641 55.9374C188.847 56.2088 189.157 56.3805 189.503 56.3805C189.85 56.3805 190.156 56.2088 190.363 55.9405V58.6677H189.38L189.33 58.3244L189.288 58.6677H188.642V55.9374H188.641Z" fill="#FEAA71"/>
<path d="M222.107 44.735C221.904 44.7381 221.7 44.7428 221.497 44.749C221.491 44.749 221.484 44.749 221.477 44.749C221.279 44.7552 221.08 44.763 220.882 44.7724C220.87 44.7724 220.857 44.7724 220.845 44.774C220.651 44.7833 220.458 44.7942 220.266 44.8083C220.249 44.8083 220.23 44.8098 220.213 44.8114C220.024 44.8239 219.835 44.8395 219.647 44.8551C219.625 44.8567 219.601 44.8582 219.58 44.8613C219.395 44.8769 219.21 44.8957 219.026 44.9144C218.999 44.9175 218.971 44.9191 218.945 44.9222C218.764 44.9409 218.584 44.9612 218.403 44.983C218.372 44.9861 218.341 44.9908 218.308 44.9939C218.132 45.0158 217.955 45.0392 217.778 45.0642C217.742 45.0688 217.707 45.0735 217.671 45.0798C217.498 45.1047 217.325 45.1297 217.152 45.1578C217.113 45.164 217.074 45.1702 217.035 45.1765C216.865 45.203 216.695 45.2326 216.525 45.2623C216.481 45.2701 216.439 45.2779 216.395 45.2857C216.228 45.3153 216.061 45.3465 215.896 45.3777C215.849 45.3871 215.804 45.3965 215.757 45.4043C215.593 45.437 215.431 45.4698 215.267 45.5041C215.217 45.515 215.166 45.526 215.116 45.5369C214.955 45.5712 214.796 45.6071 214.635 45.643C214.581 45.6555 214.528 45.6679 214.473 45.6804C214.316 45.7163 214.16 45.7537 214.002 45.7927C213.944 45.8068 213.886 45.8208 213.83 45.8364C213.676 45.8754 213.521 45.9144 213.369 45.955C213.308 45.9706 213.247 45.9878 213.188 46.0034C213.036 46.0439 212.885 46.0861 212.734 46.1282C212.67 46.1469 212.606 46.1641 212.542 46.1828C212.393 46.2249 212.245 46.2686 212.097 46.3123C212.03 46.3326 211.963 46.3528 211.896 46.3731C211.751 46.4168 211.606 46.4621 211.459 46.5089C211.389 46.5307 211.318 46.5541 211.247 46.5775C211.105 46.6243 210.961 46.6696 210.819 46.7179C210.746 46.7429 210.671 46.7678 210.598 46.7928C210.459 46.8396 210.318 46.888 210.18 46.9379C210.103 46.9644 210.025 46.9925 209.949 47.0206C209.811 47.0705 209.674 47.1189 209.538 47.1704C209.459 47.2 209.378 47.2312 209.298 47.2609C209.164 47.3108 209.03 47.3623 208.896 47.4138C208.811 47.4465 208.729 47.4793 208.644 47.512C208.513 47.5635 208.382 47.615 208.251 47.6681C208.164 47.7039 208.076 47.7398 207.991 47.7757C207.863 47.8288 207.735 47.8818 207.607 47.9348C207.516 47.9739 207.426 48.0129 207.335 48.0519C207.211 48.1049 207.086 48.1595 206.961 48.2141C206.867 48.2562 206.772 48.2984 206.679 48.3405C206.557 48.3951 206.435 48.4497 206.313 48.5059C206.217 48.5511 206.118 48.5964 206.022 48.6416C205.903 48.6978 205.785 48.7524 205.664 48.8085C205.563 48.8569 205.46 48.9068 205.357 48.9568C205.243 49.0114 205.129 49.066 205.015 49.1237C204.908 49.1767 204.799 49.2329 204.691 49.2859C204.582 49.3406 204.474 49.3952 204.365 49.4498C204.251 49.5075 204.137 49.5683 204.023 49.6276C203.92 49.6807 203.816 49.7337 203.713 49.7899C203.591 49.8538 203.469 49.9209 203.348 49.9865C203.251 50.0379 203.156 50.0894 203.059 50.1409C202.922 50.2158 202.783 50.2938 202.646 50.3703C202.566 50.4155 202.485 50.4592 202.405 50.5029C202.187 50.6261 201.968 50.7509 201.75 50.8773V63.8282C208.665 59.8108 215.451 57.7685 222.109 57.6843V44.7334L222.107 44.735Z" fill="#5B79BA"/>
<path d="M241.958 50.497C241.891 50.4565 241.825 50.4175 241.758 50.3785C241.618 50.2942 241.477 50.21 241.337 50.1273C241.259 50.082 241.181 50.0368 241.103 49.9931C240.973 49.9182 240.844 49.8433 240.714 49.77C240.633 49.7247 240.552 49.6811 240.472 49.6358C240.346 49.5656 240.218 49.4938 240.092 49.4252C240.011 49.3815 239.93 49.3378 239.847 49.2941C239.72 49.2255 239.593 49.1584 239.466 49.0913C239.387 49.0492 239.307 49.0086 239.227 48.9681C239.098 48.901 238.97 48.8339 238.841 48.7699C238.763 48.7309 238.685 48.6919 238.605 48.6545C238.474 48.5889 238.343 48.525 238.213 48.461C238.137 48.4236 238.06 48.3877 237.984 48.3518C237.851 48.2878 237.717 48.2254 237.585 48.163C237.511 48.1287 237.436 48.0959 237.363 48.0616C237.227 47.9992 237.092 47.9384 236.956 47.8775C236.884 47.8448 236.811 47.8151 236.739 47.7823C236.602 47.7231 236.463 47.6622 236.326 47.6045C236.255 47.5748 236.185 47.5468 236.115 47.5171C235.975 47.4594 235.834 47.4001 235.694 47.3439C235.627 47.3174 235.558 47.2909 235.491 47.2644C235.347 47.2082 235.204 47.1505 235.06 47.0959C234.995 47.0709 234.929 47.0475 234.864 47.0225C234.717 46.9679 234.572 46.9133 234.425 46.8603C234.363 46.8369 234.3 46.815 234.238 46.7932C234.088 46.7402 233.939 46.6871 233.789 46.6356C233.729 46.6153 233.67 46.5951 233.611 46.5748C233.458 46.5233 233.305 46.4734 233.154 46.4234C233.096 46.4047 233.04 46.3876 232.982 46.3688C232.826 46.3189 232.672 46.2705 232.516 46.2237C232.461 46.2066 232.406 46.191 232.353 46.1754C232.194 46.1286 232.035 46.0818 231.876 46.0365C231.825 46.0225 231.773 46.0084 231.723 45.9944C231.561 45.9492 231.399 45.9055 231.236 45.8633C231.188 45.8509 231.138 45.8384 231.09 45.8259C230.924 45.7838 230.759 45.7417 230.594 45.7011C230.548 45.6902 230.502 45.6792 230.456 45.6683C230.288 45.6278 230.119 45.5888 229.951 45.5513C229.909 45.542 229.865 45.5326 229.823 45.5232C229.651 45.4858 229.478 45.4483 229.306 45.414C229.267 45.4062 229.228 45.3984 229.189 45.3906C229.013 45.3563 228.838 45.322 228.662 45.2892C228.626 45.283 228.589 45.2752 228.553 45.2689C228.373 45.2362 228.194 45.2065 228.015 45.1769C227.982 45.1722 227.948 45.166 227.915 45.1613C227.732 45.1316 227.55 45.1035 227.366 45.077C227.336 45.0723 227.306 45.0677 227.275 45.0645C227.089 45.038 226.902 45.0131 226.715 44.9897C226.688 44.9865 226.66 44.9834 226.634 44.9803C226.444 44.9569 226.253 44.9351 226.063 44.9163C226.039 44.9132 226.016 44.9116 225.993 44.9085C225.799 44.8882 225.604 44.8711 225.411 44.8539C225.39 44.8524 225.37 44.8508 225.351 44.8492C225.153 44.8321 224.955 44.818 224.757 44.8056C224.741 44.8056 224.724 44.804 224.709 44.8024C224.507 44.79 224.305 44.779 224.103 44.7697C224.091 44.7697 224.077 44.7697 224.064 44.7681C223.858 44.7588 223.652 44.751 223.446 44.7463C223.437 44.7463 223.429 44.7463 223.42 44.7463C223.209 44.7416 222.999 44.7369 222.787 44.7354C222.782 44.7354 222.777 44.7354 222.772 44.7354C222.557 44.7354 222.34 44.7354 222.125 44.7369V57.6878C229.085 57.6004 235.904 59.652 242.583 63.8317V50.8808C242.377 50.7513 242.17 50.625 241.964 50.4986L241.958 50.497Z" fill="#89A6E4"/>
<path d="M222.803 33.2335C222.361 33.0454 221.862 33.046 221.42 33.235L184.045 49.2388C183.574 49.4408 183.57 50.108 184.039 50.3152L201.753 58.1357V50.8794C201.971 50.753 202.19 50.6282 202.408 50.5049C202.488 50.4597 202.569 50.416 202.648 50.3723C202.786 50.2959 202.925 50.2179 203.062 50.143C203.159 50.0899 203.254 50.04 203.35 49.9885C203.472 49.923 203.594 49.8575 203.716 49.7919C203.818 49.7373 203.923 49.6843 204.026 49.6297C204.14 49.5704 204.254 49.5111 204.368 49.4518C204.477 49.3957 204.585 49.3426 204.694 49.288C204.801 49.2334 204.911 49.1788 205.018 49.1258C205.132 49.0696 205.246 49.015 205.36 48.9588C205.463 48.9089 205.564 48.859 205.667 48.8106C205.786 48.7544 205.904 48.6983 206.025 48.6437C206.121 48.5984 206.22 48.5516 206.316 48.5079C206.438 48.4518 206.56 48.3972 206.681 48.3426C206.775 48.3004 206.87 48.2567 206.964 48.2162C207.089 48.1616 207.213 48.107 207.338 48.0539C207.429 48.0149 207.519 47.9759 207.61 47.9369C207.738 47.8823 207.866 47.8293 207.993 47.7778C208.081 47.7419 208.168 47.706 208.254 47.6701C208.385 47.6171 208.516 47.5656 208.647 47.5141C208.731 47.4813 208.814 47.447 208.898 47.4158C209.033 47.3643 209.167 47.3128 209.301 47.2629C209.38 47.2333 209.462 47.2021 209.541 47.1724C209.678 47.1209 209.816 47.0726 209.951 47.0227C210.028 46.9946 210.106 46.9665 210.182 46.94C210.321 46.89 210.462 46.8432 210.601 46.7949C210.674 46.7699 210.749 46.7434 210.822 46.72C210.964 46.6716 211.108 46.6264 211.25 46.5796C211.32 46.5562 211.39 46.5343 211.462 46.5109C211.607 46.4641 211.753 46.4204 211.899 46.3752C211.966 46.3549 212.033 46.3346 212.1 46.3143C212.248 46.2707 212.396 46.227 212.544 46.1849C212.608 46.1661 212.672 46.1474 212.736 46.1302C212.888 46.0881 213.039 46.046 213.19 46.0054C213.251 45.9898 213.312 45.9727 213.371 45.9571C213.526 45.9165 213.68 45.8775 213.833 45.8385C213.891 45.8245 213.949 45.8104 214.005 45.7948C214.162 45.7558 214.318 45.7184 214.476 45.6825C214.531 45.67 214.584 45.6575 214.638 45.645C214.799 45.6092 214.958 45.5733 215.119 45.5389C215.169 45.528 215.22 45.5171 215.27 45.5062C215.434 45.4719 215.598 45.4391 215.76 45.4063C215.807 45.397 215.852 45.3876 215.899 45.3798C216.066 45.347 216.233 45.3174 216.398 45.2878C216.442 45.28 216.484 45.2722 216.528 45.2644C216.698 45.2347 216.868 45.2066 217.038 45.1785C217.077 45.1723 217.116 45.1661 217.155 45.1598C217.328 45.1333 217.501 45.1068 217.674 45.0818C217.71 45.0771 217.744 45.0725 217.78 45.0662C217.957 45.0413 218.135 45.0179 218.311 44.996C218.342 44.9929 218.373 44.9882 218.406 44.9851C218.587 44.9632 218.766 44.943 218.947 44.9242C218.974 44.9211 219.002 44.918 219.028 44.9164C219.213 44.8977 219.398 44.8806 219.582 44.8634C219.604 44.8618 219.628 44.8603 219.649 44.8572C219.838 44.8416 220.027 44.826 220.216 44.8135C220.233 44.8135 220.252 44.8119 220.269 44.8104C220.462 44.7979 220.656 44.7854 220.848 44.776C220.86 44.776 220.873 44.776 220.885 44.7745C221.083 44.7651 221.281 44.7573 221.48 44.7511C221.486 44.7511 221.492 44.7511 221.5 44.7511C221.704 44.7448 221.907 44.7401 222.11 44.737C222.325 44.7339 222.542 44.7339 222.757 44.7355C222.762 44.7355 222.767 44.7355 222.771 44.7355C222.982 44.7355 223.194 44.7401 223.405 44.7464C223.414 44.7464 223.422 44.7464 223.431 44.7464C223.637 44.7511 223.843 44.7589 224.049 44.7682C224.062 44.7682 224.076 44.7682 224.088 44.7698C224.291 44.7791 224.492 44.7901 224.693 44.8026C224.709 44.8026 224.726 44.8041 224.742 44.8057C224.94 44.8182 225.138 44.8338 225.336 44.8494C225.357 44.8509 225.377 44.8525 225.396 44.854C225.591 44.8712 225.784 44.8884 225.977 44.9086C226.001 44.9118 226.024 44.9133 226.048 44.9164C226.238 44.9367 226.428 44.9586 226.619 44.9804C226.645 44.9835 226.673 44.9866 226.7 44.9898C226.887 45.0132 227.073 45.0381 227.26 45.0647C227.29 45.0693 227.319 45.0725 227.35 45.0771C227.533 45.1037 227.717 45.1317 227.9 45.1614C227.932 45.1661 227.967 45.1723 227.999 45.177C228.179 45.2066 228.358 45.2378 228.538 45.269C228.574 45.2753 228.611 45.2815 228.647 45.2893C228.823 45.3221 228.999 45.3548 229.174 45.3907C229.213 45.3985 229.252 45.4063 229.291 45.4141C229.464 45.4485 229.636 45.4859 229.808 45.5233C229.85 45.5327 229.893 45.5421 229.936 45.5514C230.104 45.5889 230.273 45.6279 230.441 45.6684C230.486 45.6794 230.533 45.6903 230.578 45.7012C230.744 45.7418 230.909 45.7823 231.075 45.826C231.123 45.8385 231.173 45.851 231.221 45.8635C231.383 45.9056 231.546 45.9508 231.708 45.9945C231.759 46.0086 231.811 46.0226 231.861 46.0366C232.02 46.0819 232.179 46.1287 232.338 46.1755C232.393 46.1911 232.447 46.2083 232.5 46.2239C232.657 46.2707 232.811 46.319 232.967 46.369C233.025 46.3877 233.081 46.4048 233.139 46.4236C233.291 46.4735 233.444 46.5234 233.596 46.5749C233.655 46.5952 233.714 46.6139 233.774 46.6357C233.923 46.6872 234.073 46.7403 234.223 46.7933C234.285 46.8152 234.348 46.837 234.41 46.8604C234.557 46.9134 234.702 46.9681 234.849 47.0227C234.914 47.0476 234.98 47.071 235.045 47.096C235.189 47.1506 235.332 47.2068 235.476 47.2645C235.543 47.291 235.611 47.3175 235.679 47.3441C235.819 47.4002 235.959 47.4595 236.1 47.5172C236.17 47.5469 236.24 47.575 236.31 47.6046C236.448 47.6623 236.587 47.7232 236.724 47.7825C236.796 47.8137 236.869 47.8449 236.941 47.8776C237.076 47.9385 237.212 47.9993 237.348 48.0617C237.421 48.096 237.496 48.1288 237.569 48.1631C237.702 48.2255 237.836 48.2879 237.969 48.3519C238.045 48.3878 238.122 48.4237 238.198 48.4611C238.329 48.5251 238.46 48.5891 238.59 48.6546C238.668 48.6936 238.746 48.731 238.825 48.77C238.955 48.8356 239.083 48.9027 239.212 48.9682C239.292 49.0087 239.371 49.0493 239.451 49.0914C239.577 49.1585 239.705 49.2272 239.832 49.2943C239.913 49.3379 239.994 49.3801 240.077 49.4253C240.203 49.494 240.331 49.5657 240.457 49.6359C240.538 49.6812 240.62 49.7249 240.699 49.7701C240.829 49.8434 240.958 49.9183 241.088 49.9932C241.166 50.0384 241.244 50.0821 241.322 50.1274C241.462 50.2101 241.602 50.2943 241.743 50.3786C241.81 50.4191 241.875 50.4566 241.943 50.4971C242.15 50.622 242.356 50.7499 242.562 50.8794V57.354L260.105 50.2005C260.588 50.0035 260.593 49.3214 260.113 49.1171L222.803 33.2335Z" fill="#6683C2"/>
</g>
<path d="M124.436 323.438C124.436 344.233 107.578 361.089 86.7838 361.089C65.9909 361.089 49.1328 344.233 49.1328 323.438C49.1328 302.644 65.9909 285.787 86.7838 285.787C107.579 285.787 124.436 302.644 124.436 323.438Z" fill="#6683C2"/>
<path d="M49.2699 265.517C49.2699 279.123 38.2411 290.152 24.6334 290.152C11.0292 290.152 0 279.123 0 265.517C0 251.912 11.0287 240.882 24.6334 240.882C38.2411 240.882 49.2699 251.912 49.2699 265.517Z" fill="#F2C45B"/>
<path d="M421 42.9407C421 66.6573 401.774 85.8826 378.059 85.8826C354.341 85.8826 335.117 66.6573 335.117 42.9407C335.117 19.2253 354.34 0 378.059 0C401.774 0.000432059 421 19.2253 421 42.9407Z" fill="#68CCEA"/>
<defs>
<clipPath id="clip0_1597_8308">
<rect width="374.453" height="481.268" fill="white" transform="translate(55.5859 46.1411)"/>
</clipPath>
</defs>
</svg>
