<svg width="1920" height="80" viewBox="0 0 1920 80" fill="none" xmlns="http://www.w3.org/2000/svg">
<g clip-path="url(#clip0_3001_2065)">
<rect width="1920" height="80" fill="#68CCEA"/>
<path opacity="0.26" d="M2009.64 -524.008C2292.21 -524.008 2521.29 -271.717 2521.29 39.4989C2521.29 350.715 2292.21 603.006 2009.64 603.006C1727.07 603.006 1498 350.715 1498 39.499C1498 -271.717 1727.07 -524.008 2009.64 -524.008Z" fill="url(#paint0_radial_3001_2065)"/>
<path opacity="0.58" d="M2002.01 -457.824C2252.95 -457.824 2456.38 -235.165 2456.38 39.5C2456.38 314.164 2252.95 536.824 2002.01 536.824C1751.07 536.824 1547.64 314.165 1547.64 39.5C1547.64 -235.165 1751.07 -457.824 2002.01 -457.824Z" fill="url(#paint1_radial_3001_2065)"/>
<path opacity="0.68" d="M1989.92 -372.562C2200.79 -372.562 2371.74 -188.081 2371.74 39.4885C2371.74 267.058 2200.79 451.539 1989.92 451.539C1779.04 451.539 1608.09 267.058 1608.09 39.4886C1608.09 -188.081 1779.04 -372.562 1989.92 -372.562Z" fill="url(#paint2_radial_3001_2065)"/>
<path d="M1966 -242C2118.98 -242 2243 -115.744 2243 39.9999C2243 195.744 2118.98 322 1966 322C1813.02 322 1689 195.744 1689 39.9999C1689 -115.744 1813.02 -242 1966 -242Z" fill="url(#paint3_radial_3001_2065)"/>
<path d="M1966.04 -168.436C2079.53 -168.436 2171.52 -75.1348 2171.52 39.9586C2171.52 155.052 2079.53 248.353 1966.04 248.353C1852.56 248.354 1760.56 155.052 1760.56 39.9586C1760.56 -75.1347 1852.56 -168.436 1966.04 -168.436Z" fill="url(#paint4_radial_3001_2065)"/>
<path d="M1957.78 -92.5582C2034.58 -92.5582 2096.83 -33.1539 2096.83 40.1251C2096.83 113.404 2034.58 172.809 1957.78 172.809C1880.99 172.809 1818.73 113.404 1818.73 40.1252C1818.73 -33.1539 1880.99 -92.5582 1957.78 -92.5582Z" fill="url(#paint5_radial_3001_2065)"/>
<path d="M1966 -60C2020.68 -60 2065 -15.2285 2065 40C2065 95.2284 2020.68 140 1966 140C1911.32 140 1867 95.2285 1867 40C1867 -15.2285 1911.32 -60 1966 -60Z" fill="url(#paint6_radial_3001_2065)"/>
<path d="M1966.17 -8.70549C1992.62 -8.70549 2014.06 13.0166 2014.06 39.8123C2014.06 66.6079 1992.62 88.3301 1966.17 88.3301C1939.72 88.3301 1918.28 66.6079 1918.28 39.8123C1918.28 13.0167 1939.72 -8.70548 1966.17 -8.70549Z" fill="url(#paint7_radial_3001_2065)"/>
<path opacity="0.26" d="M-50.3577 -524.008C232.215 -524.008 461.285 -271.717 461.285 39.4989C461.285 350.715 232.215 603.006 -50.3576 603.006C-332.93 603.006 -562 350.715 -562 39.499C-562 -271.717 -332.93 -524.008 -50.3577 -524.008Z" fill="url(#paint8_radial_3001_2065)"/>
<path opacity="0.58" d="M-57.9905 -457.824C192.951 -457.824 396.379 -235.165 396.379 39.5C396.379 314.164 192.951 536.824 -57.9904 536.824C-308.932 536.824 -512.359 314.165 -512.359 39.5C-512.359 -235.165 -308.932 -457.824 -57.9905 -457.824Z" fill="url(#paint9_radial_3001_2065)"/>
<path opacity="0.68" d="M-70.0837 -372.562C140.791 -372.562 311.739 -188.081 311.739 39.4885C311.739 267.058 140.791 451.539 -70.0836 451.539C-280.959 451.539 -451.906 267.058 -451.906 39.4886C-451.906 -188.081 -280.959 -372.562 -70.0837 -372.562Z" fill="url(#paint10_radial_3001_2065)"/>
<path d="M-94.0001 -242C58.9828 -242 183 -115.744 183 39.9999C183 195.744 58.9828 322 -94.0001 322C-246.983 322 -371 195.744 -371 39.9999C-371 -115.744 -246.983 -242 -94.0001 -242Z" fill="url(#paint11_radial_3001_2065)"/>
<path d="M-93.9573 -168.436C19.5263 -168.436 111.523 -75.1348 111.523 39.9586C111.523 155.052 19.5264 248.353 -93.9573 248.353C-207.441 248.354 -299.438 155.052 -299.438 39.9586C-299.438 -75.1347 -207.441 -168.436 -93.9573 -168.436Z" fill="url(#paint12_radial_3001_2065)"/>
<path d="M-102.219 -92.5582C-25.4249 -92.5582 36.8286 -33.1539 36.8286 40.1251C36.8286 113.404 -25.4249 172.809 -102.219 172.809C-179.012 172.809 -241.266 113.404 -241.266 40.1252C-241.266 -33.1539 -179.012 -92.5582 -102.219 -92.5582Z" fill="url(#paint13_radial_3001_2065)"/>
<path d="M-94 -60C-39.3239 -60 5 -15.2285 5.00001 40C5.00001 95.2284 -39.3238 140 -94 140C-148.676 140 -193 95.2285 -193 40C-193 -15.2285 -148.676 -60 -94 -60Z" fill="url(#paint14_radial_3001_2065)"/>
</g>
<defs>
<radialGradient id="paint0_radial_3001_2065" cx="0" cy="0" r="1" gradientUnits="userSpaceOnUse" gradientTransform="translate(2009.64 -145.686) rotate(-90) scale(629.401 571.472)">
<stop stop-color="white" stop-opacity="0.18"/>
<stop offset="1" stop-color="white" stop-opacity="0.39"/>
</radialGradient>
<radialGradient id="paint1_radial_3001_2065" cx="0" cy="0" r="1" gradientUnits="userSpaceOnUse" gradientTransform="translate(2002.01 -123.935) rotate(-90) scale(555.479 507.501)">
<stop stop-color="white" stop-opacity="0.18"/>
<stop offset="1" stop-color="white" stop-opacity="0.39"/>
</radialGradient>
<radialGradient id="paint2_radial_3001_2065" cx="0" cy="0" r="1" gradientUnits="userSpaceOnUse" gradientTransform="translate(1989.92 -95.923) rotate(-90) scale(460.234 426.471)">
<stop stop-color="white" stop-opacity="0.18"/>
<stop offset="1" stop-color="white" stop-opacity="0.39"/>
</radialGradient>
<radialGradient id="paint3_radial_3001_2065" cx="0" cy="0" r="1" gradientUnits="userSpaceOnUse" gradientTransform="translate(1966 -52.6734) rotate(-90) scale(314.976 309.391)">
<stop stop-color="white" stop-opacity="0.18"/>
<stop offset="1" stop-color="white" stop-opacity="0.39"/>
</radialGradient>
<radialGradient id="paint4_radial_3001_2065" cx="0" cy="0" r="1" gradientUnits="userSpaceOnUse" gradientTransform="translate(1966.04 -28.526) rotate(-90) scale(232.764 229.508)">
<stop stop-color="white" stop-opacity="0.18"/>
<stop offset="1" stop-color="white" stop-opacity="0.39"/>
</radialGradient>
<radialGradient id="paint5_radial_3001_2065" cx="0" cy="0" r="1" gradientUnits="userSpaceOnUse" gradientTransform="translate(1957.78 -3.47843) rotate(-90) scale(148.199 155.307)">
<stop stop-color="white" stop-opacity="0.18"/>
<stop offset="1" stop-color="white" stop-opacity="0.39"/>
</radialGradient>
<radialGradient id="paint6_radial_3001_2065" cx="0" cy="0" r="1" gradientUnits="userSpaceOnUse" gradientTransform="translate(1966 7.1371) rotate(-90) scale(111.694 110.577)">
<stop stop-color="white" stop-opacity="0.18"/>
<stop offset="1" stop-color="white" stop-opacity="0.39"/>
</radialGradient>
<radialGradient id="paint7_radial_3001_2065" cx="0" cy="0" r="1" gradientUnits="userSpaceOnUse" gradientTransform="translate(1966.17 23.8679) rotate(-90) scale(54.1912 53.4875)">
<stop stop-color="white" stop-opacity="0.18"/>
<stop offset="1" stop-color="white" stop-opacity="0.39"/>
</radialGradient>
<radialGradient id="paint8_radial_3001_2065" cx="0" cy="0" r="1" gradientUnits="userSpaceOnUse" gradientTransform="translate(-50.3575 -145.686) rotate(-90) scale(629.401 571.472)">
<stop stop-color="white" stop-opacity="0.18"/>
<stop offset="1" stop-color="white" stop-opacity="0.39"/>
</radialGradient>
<radialGradient id="paint9_radial_3001_2065" cx="0" cy="0" r="1" gradientUnits="userSpaceOnUse" gradientTransform="translate(-57.9903 -123.935) rotate(-90) scale(555.479 507.501)">
<stop stop-color="white" stop-opacity="0.18"/>
<stop offset="1" stop-color="white" stop-opacity="0.39"/>
</radialGradient>
<radialGradient id="paint10_radial_3001_2065" cx="0" cy="0" r="1" gradientUnits="userSpaceOnUse" gradientTransform="translate(-70.0835 -95.923) rotate(-90) scale(460.234 426.471)">
<stop stop-color="white" stop-opacity="0.18"/>
<stop offset="1" stop-color="white" stop-opacity="0.39"/>
</radialGradient>
<radialGradient id="paint11_radial_3001_2065" cx="0" cy="0" r="1" gradientUnits="userSpaceOnUse" gradientTransform="translate(-94 -52.6734) rotate(-90) scale(314.976 309.391)">
<stop stop-color="white" stop-opacity="0.18"/>
<stop offset="1" stop-color="white" stop-opacity="0.39"/>
</radialGradient>
<radialGradient id="paint12_radial_3001_2065" cx="0" cy="0" r="1" gradientUnits="userSpaceOnUse" gradientTransform="translate(-93.9572 -28.526) rotate(-90) scale(232.764 229.508)">
<stop stop-color="white" stop-opacity="0.18"/>
<stop offset="1" stop-color="white" stop-opacity="0.39"/>
</radialGradient>
<radialGradient id="paint13_radial_3001_2065" cx="0" cy="0" r="1" gradientUnits="userSpaceOnUse" gradientTransform="translate(-102.219 -3.47843) rotate(-90) scale(148.199 155.307)">
<stop stop-color="white" stop-opacity="0.18"/>
<stop offset="1" stop-color="white" stop-opacity="0.39"/>
</radialGradient>
<radialGradient id="paint14_radial_3001_2065" cx="0" cy="0" r="1" gradientUnits="userSpaceOnUse" gradientTransform="translate(-94 7.1371) rotate(-90) scale(111.694 110.577)">
<stop stop-color="white" stop-opacity="0.18"/>
<stop offset="1" stop-color="white" stop-opacity="0.39"/>
</radialGradient>
<clipPath id="clip0_3001_2065">
<rect width="1920" height="80" fill="white"/>
</clipPath>
</defs>
</svg>
