<svg width="320" height="80" viewBox="0 0 320 80" fill="none" xmlns="http://www.w3.org/2000/svg">
<mask id="mask0_3007_9181" style="mask-type:alpha" maskUnits="userSpaceOnUse" x="0" y="0" width="320" height="80">
<rect width="320" height="80" fill="#D9D9D9"/>
</mask>
<g mask="url(#mask0_3007_9181)">
<g clip-path="url(#clip0_3007_9181)">
<rect width="320" height="80" fill="#68CCEA"/>
<path opacity="0.26" d="M-22.6231 -46C-68.6688 -46 -105.996 -7.72038 -105.996 39.5C-105.996 86.7203 -68.6688 125 -22.6231 125C23.4226 125 60.75 86.7203 60.75 39.5C60.75 -7.72037 23.4226 -46 -22.6231 -46Z" fill="url(#paint0_radial_3007_9181)"/>
<path opacity="0.58" d="M-23.0521 -34.0901C-62.7548 -34.0901 -94.9402 -1.33339 -94.9402 39.0741C-94.9402 79.4815 -62.7548 112.238 -23.0521 112.238C16.6506 112.238 48.8359 79.4816 48.8359 39.0741C48.8359 -1.33337 16.6506 -34.0901 -23.0521 -34.0901Z" fill="url(#paint1_radial_3007_9181)"/>
<path opacity="0.68" d="M-22.6242 -18.7768C-54.5743 -18.7768 -80.4749 7.31425 -80.4749 39.4993C-80.475 71.6843 -54.5743 97.7754 -22.6242 97.7754C9.32592 97.7754 35.2266 71.6843 35.2266 39.4993C35.2266 7.31425 9.32593 -18.7768 -22.6242 -18.7768Z" fill="url(#paint2_radial_3007_9181)"/>
<path d="M-22.6286 -2.61174C-47.5309 -2.61174 -67.7182 16.4328 -67.7182 39.9256C-67.7182 63.4183 -47.5309 82.4629 -22.6286 82.4629C2.27367 82.4629 22.4609 63.4183 22.4609 39.9256C22.4609 16.4329 2.27368 -2.61173 -22.6286 -2.61174Z" fill="url(#paint3_radial_3007_9181)"/>
<path d="M-23.0498 8.44712C-41.609 8.44712 -56.6543 22.5401 -56.6543 39.9247C-56.6543 57.3093 -41.609 71.4023 -23.0498 71.4023C-4.49054 71.4023 10.5547 57.3093 10.5547 39.9247C10.5547 22.5401 -4.49053 8.44712 -23.0498 8.44712Z" fill="url(#paint4_radial_3007_9181)"/>
</g>
<path opacity="0.26" d="M345.377 -46C299.331 -46 262.004 -7.72038 262.004 39.5C262.004 86.7203 299.331 125 345.377 125C391.423 125 428.75 86.7203 428.75 39.5C428.75 -7.72037 391.423 -46 345.377 -46Z" fill="url(#paint5_radial_3007_9181)"/>
<path opacity="0.58" d="M344.948 -34.0901C305.245 -34.0901 273.06 -1.33339 273.06 39.0741C273.06 79.4815 305.245 112.238 344.948 112.238C384.651 112.238 416.836 79.4816 416.836 39.0741C416.836 -1.33337 384.651 -34.0901 344.948 -34.0901Z" fill="url(#paint6_radial_3007_9181)"/>
<path opacity="0.68" d="M345.376 -18.7768C313.426 -18.7768 287.525 7.31425 287.525 39.4993C287.525 71.6843 313.426 97.7754 345.376 97.7754C377.326 97.7754 403.227 71.6843 403.227 39.4993C403.227 7.31425 377.326 -18.7768 345.376 -18.7768Z" fill="url(#paint7_radial_3007_9181)"/>
<path d="M345.371 -2.61174C320.469 -2.61174 300.282 16.4328 300.282 39.9256C300.282 63.4183 320.469 82.4629 345.371 82.4629C370.274 82.4629 390.461 63.4183 390.461 39.9256C390.461 16.4329 370.274 -2.61173 345.371 -2.61174Z" fill="url(#paint8_radial_3007_9181)"/>
<path d="M344.95 8.44712C326.391 8.44712 311.346 22.5401 311.346 39.9247C311.346 57.3093 326.391 71.4023 344.95 71.4023C363.509 71.4023 378.555 57.3093 378.555 39.9247C378.555 22.5401 363.509 8.44712 344.95 8.44712Z" fill="url(#paint9_radial_3007_9181)"/>
</g>
<defs>
<radialGradient id="paint0_radial_3007_9181" cx="0" cy="0" r="1" gradientUnits="userSpaceOnUse" gradientTransform="translate(-22.6231 11.4022) rotate(-90) scale(95.498 93.1224)">
<stop stop-color="white" stop-opacity="0.18"/>
<stop offset="1" stop-color="white" stop-opacity="0.39"/>
</radialGradient>
<radialGradient id="paint1_radial_3007_9181" cx="0" cy="0" r="1" gradientUnits="userSpaceOnUse" gradientTransform="translate(-23.0521 15.0302) rotate(-90) scale(81.7197 80.2943)">
<stop stop-color="white" stop-opacity="0.18"/>
<stop offset="1" stop-color="white" stop-opacity="0.39"/>
</radialGradient>
<radialGradient id="paint2_radial_3007_9181" cx="0" cy="0" r="1" gradientUnits="userSpaceOnUse" gradientTransform="translate(-22.6242 20.3481) rotate(-90) scale(65.0907 64.6156)">
<stop stop-color="white" stop-opacity="0.18"/>
<stop offset="1" stop-color="white" stop-opacity="0.39"/>
</radialGradient>
<radialGradient id="paint3_radial_3007_9181" cx="0" cy="0" r="1" gradientUnits="userSpaceOnUse" gradientTransform="translate(-22.6286 25.9466) rotate(-90) scale(47.5114 50.3621)">
<stop stop-color="white" stop-opacity="0.18"/>
<stop offset="1" stop-color="white" stop-opacity="0.39"/>
</radialGradient>
<radialGradient id="paint4_radial_3007_9181" cx="0" cy="0" r="1" gradientUnits="userSpaceOnUse" gradientTransform="translate(-23.0498 29.5803) rotate(-90) scale(35.1585 37.534)">
<stop stop-color="white" stop-opacity="0.18"/>
<stop offset="1" stop-color="white" stop-opacity="0.39"/>
</radialGradient>
<radialGradient id="paint5_radial_3007_9181" cx="0" cy="0" r="1" gradientUnits="userSpaceOnUse" gradientTransform="translate(345.377 11.4022) rotate(-90) scale(95.498 93.1224)">
<stop stop-color="white" stop-opacity="0.18"/>
<stop offset="1" stop-color="white" stop-opacity="0.39"/>
</radialGradient>
<radialGradient id="paint6_radial_3007_9181" cx="0" cy="0" r="1" gradientUnits="userSpaceOnUse" gradientTransform="translate(344.948 15.0302) rotate(-90) scale(81.7197 80.2943)">
<stop stop-color="white" stop-opacity="0.18"/>
<stop offset="1" stop-color="white" stop-opacity="0.39"/>
</radialGradient>
<radialGradient id="paint7_radial_3007_9181" cx="0" cy="0" r="1" gradientUnits="userSpaceOnUse" gradientTransform="translate(345.376 20.3481) rotate(-90) scale(65.0907 64.6156)">
<stop stop-color="white" stop-opacity="0.18"/>
<stop offset="1" stop-color="white" stop-opacity="0.39"/>
</radialGradient>
<radialGradient id="paint8_radial_3007_9181" cx="0" cy="0" r="1" gradientUnits="userSpaceOnUse" gradientTransform="translate(345.371 25.9466) rotate(-90) scale(47.5114 50.3621)">
<stop stop-color="white" stop-opacity="0.18"/>
<stop offset="1" stop-color="white" stop-opacity="0.39"/>
</radialGradient>
<radialGradient id="paint9_radial_3007_9181" cx="0" cy="0" r="1" gradientUnits="userSpaceOnUse" gradientTransform="translate(344.95 29.5803) rotate(-90) scale(35.1585 37.534)">
<stop stop-color="white" stop-opacity="0.18"/>
<stop offset="1" stop-color="white" stop-opacity="0.39"/>
</radialGradient>
<clipPath id="clip0_3007_9181">
<rect width="320" height="80" fill="white"/>
</clipPath>
</defs>
</svg>
