<svg width="763" height="553" fill="none" xmlns="http://www.w3.org/2000/svg"><path d="M763 190.788c0 47.377-37.816 85.786-84.475 85.786-46.647 0-84.464-38.407-84.464-85.786 0-47.379 37.816-85.788 84.464-85.788C725.184 105 763 143.409 763 190.788Z" fill="#F37E60"/><path d="M562.184 154.248c0 20.18-17.124 36.539-38.253 36.539-21.123 0-38.248-16.359-38.248-36.539s17.125-36.539 38.248-36.539c21.129 0 38.253 16.359 38.253 36.539Z" fill="#68CCEA"/><path d="M226.028 151.606c-14.876 52.611-71.5 82.649-126.487 67.088-54.973-15.557-87.482-70.819-72.607-123.431C41.81 42.65 98.434 12.613 153.41 28.17c54.987 15.561 87.494 70.824 72.619 123.436Z" fill="#F2C45B"/><path d="M256.697 340.096c-9.992 35.34-48.233 55.459-85.422 44.935-37.18-10.522-59.223-47.701-49.23-83.041 9.992-35.341 48.233-55.46 85.414-44.938 37.189 10.525 59.23 47.704 49.238 83.044Z" fill="#6683C2"/><path d="M616.373 387.782c0 91.252-74.212 165.218-165.755 165.218-91.535 0-165.748-73.966-165.748-165.218 0-91.249 74.213-165.221 165.748-165.221 91.545.002 165.755 73.974 165.755 165.221Z" fill="#7FCBB4"/></svg>