<svg width="215" height="495" viewBox="0 0 215 495" fill="none" xmlns="http://www.w3.org/2000/svg">
<path d="M124.691 126.45C99.6319 123.871 77.1976 142.376 74.5825 167.783C71.9674 193.19 90.1617 215.877 115.221 218.457C140.28 221.036 162.714 202.531 165.329 177.124C167.944 151.717 149.75 129.029 124.691 126.45Z" fill="#F2C45B"/>
<path d="M-18.1594 10.5124C-69.6694 5.21059 -115.783 43.2339 -121.156 95.4399C-126.529 147.646 -89.1285 194.265 -37.6185 199.567C13.8914 204.869 60.0045 166.846 65.378 114.64C70.7515 62.4336 33.3505 15.8143 -18.1594 10.5124Z" fill="#68CCEA"/>
<path d="M-66.4429 346.116C-59.4571 278.246 1.22464 228.895 69.0931 235.88C136.956 242.865 186.314 303.543 179.328 371.413C172.343 439.282 111.659 488.637 43.7962 481.652C-24.0735 474.664 -73.4284 413.983 -66.4429 346.116Z" fill="#7FCBB4"/>
</svg>
