<svg width="971" height="686" viewBox="0 0 971 686" fill="none" xmlns="http://www.w3.org/2000/svg">
<path d="M777.108 144.031C753.84 145.705 736.358 166.239 738.06 189.895C739.762 213.551 760.004 231.37 783.272 229.696C806.54 228.022 824.023 207.488 822.321 183.832C820.619 160.177 800.376 142.357 777.108 144.031Z" fill="#68CCEA"/>
<path d="M732.214 363.024C727.665 299.81 775.538 244.862 839.137 240.286C902.732 235.71 957.979 283.24 962.527 346.453C967.075 409.666 919.202 464.619 855.607 469.194C792.006 473.769 736.762 426.235 732.214 363.024Z" fill="#F37E60"/>
<path d="M16.9883 297.497C16.9883 165.773 123.771 59 255.492 59C387.203 59 493.988 165.773 493.988 297.497C493.988 429.219 387.202 536 255.492 536C123.769 535.997 16.9882 429.216 16.9883 297.497Z" fill="#D6EDFA"/>
<path fill-rule="evenodd" clip-rule="evenodd" d="M487.492 328.668C496.148 328.668 499.972 324.709 504.803 320.012L550.967 275.124L493.384 240.4" fill="white"/>
<path fill-rule="evenodd" clip-rule="evenodd" d="M493.476 240.399L633.006 343.485C648.928 352.27 660.419 347.721 664.385 328.702L721.181 61.0606C726.996 37.7475 712.294 27.1737 697.062 34.089L363.56 162.686C340.795 171.817 340.928 184.517 359.41 190.176L444.994 216.889L643.131 91.8866C652.484 86.2145 500.522 234.145 493.476 240.399Z" fill="#D6EDFA"/>
<path d="M94.1123 471.031C70.8443 472.705 53.3616 493.239 55.0636 516.895C56.7656 540.551 77.0078 558.37 100.276 556.696C123.544 555.022 141.027 534.488 139.324 510.832C137.622 487.177 117.38 469.357 94.1123 471.031Z" fill="#F2C45B"/>
<path d="M317.68 59.8682C317.68 59.8682 311.215 67.2961 313.829 74.9537C316.443 82.6112 325.031 88.4521 325.031 88.4521L339.464 126.321L451.709 126.051L450.646 114.7C450.646 114.7 456.221 111.546 459.363 103.723C461.594 98.164 461.836 84.4239 461.836 84.4239L317.68 59.8682Z" fill="#964633"/>
<path d="M418.58 684.79L391.209 617.322L386.303 684.79H291.33V545.218H504.755L526.145 684.79H418.58Z" fill="#7FCBB4"/>
<path d="M493.952 597.165C494.427 597.165 494.879 596.879 495.068 596.412C495.318 595.795 495.02 595.094 494.403 594.845C494.266 594.788 480.732 589.262 473.006 580.42C463.668 569.729 463.471 557.83 463.467 557.713C463.463 557.052 462.923 556.517 462.262 556.517C462.258 556.517 462.258 556.517 462.254 556.517C461.59 556.521 461.054 557.06 461.058 557.725C461.062 558.245 461.235 570.611 471.189 582.003C479.298 591.288 492.925 596.847 493.501 597.08C493.65 597.141 493.803 597.165 493.952 597.165Z" fill="#5FA590"/>
<path d="M450.621 552.645C450.621 552.645 407.113 552.416 388.869 553.818C370.626 555.219 331.242 570.071 315.649 559.352C300.052 548.633 293.901 513.915 293.901 513.915L336.938 224.805C336.938 224.805 348.193 206.916 352.523 204.608C356.849 202.299 362.062 201.248 362.062 201.248L360.6 214.126C360.6 214.126 366.368 222.493 379.065 223.359C391.757 224.225 411.089 218.742 415.129 216.434C419.169 214.126 429.256 205.594 429.256 205.594L439.076 207.778C439.076 207.778 416.112 240.853 406.243 264.853C396.374 288.857 450.621 552.645 450.621 552.645Z" fill="#E3E9F5"/>
<path d="M545.397 537.988C543.955 541.762 521.99 554.044 503.513 557.717C485.035 561.391 446.429 559.86 438.22 557.717C430.011 555.575 398.8 334.722 402.494 308.237C406.188 281.752 424.669 226.932 443.146 218.924C461.624 210.916 506.497 210.666 517.059 220.761C527.621 230.856 529.253 432.043 535.472 451.752C541.696 471.462 546.006 498.564 547.855 509.037C549.712 519.51 546.844 534.213 545.397 537.988Z" fill="#6683C2"/>
<path d="M315.65 559.353C312.399 562.527 309.656 559.719 305.185 559.353C300.709 558.986 292.045 554.793 279.179 555.075C266.317 555.353 249.181 560.477 244.508 555.063C239.836 549.649 231.763 522.269 236.351 498.31C240.939 474.35 271.324 378.004 275.501 359.141C279.678 340.281 293.954 264.833 301.6 250.557C309.245 236.285 328.616 218.952 328.616 218.952C328.616 218.952 338.304 271.459 336.773 289.808C335.243 308.16 328.616 351.491 326.067 374.939C323.521 398.391 318.896 556.179 315.65 559.353Z" fill="#6683C2"/>
<path d="M422.57 331.186C422.57 331.186 390.812 284.318 386.14 285.583C378.659 287.609 392.033 305.82 392.033 305.82C392.033 305.82 356.021 281.978 349.338 285.563C341.201 289.929 375.831 308.181 375.831 308.181C375.831 308.181 342.555 287.911 339.876 291.855C337.197 295.798 367.425 318.517 367.425 318.517C367.425 318.517 345.423 303.262 342.748 306.706C340.069 310.151 365.322 329.091 365.322 329.091C365.322 329.091 348.496 315.097 345.616 320.1C343.824 323.214 361.113 340.954 368.001 344.777C374.889 348.603 417.165 357.977 417.165 357.977L422.57 331.186Z" fill="#F9A990"/>
<path d="M517.063 220.765C517.063 220.765 558.863 256.664 585.868 313.131C612.873 369.593 614.347 407.893 593.723 425.569C573.103 443.245 547.677 449.452 517.063 438.701C486.046 427.805 452.809 407.406 443.972 400.53C435.134 393.658 433.66 384.82 433.66 384.82C433.66 384.82 415.001 376.474 414.018 372.546C413.035 368.619 416.963 326.883 422.856 324.921C428.749 322.955 454.28 338.669 454.28 338.669C454.28 338.669 483.746 326.383 501.909 330.311C501.909 330.311 496.507 294.96 498.964 279.737C501.417 264.515 506.328 251.258 506.328 251.258" fill="#6683C2"/>
<path d="M564.199 352.463C564.606 352.463 565.005 352.253 565.23 351.878C565.573 351.311 565.388 350.569 564.82 350.227C556.872 345.446 548.421 341.446 539.7 338.328C529.968 334.851 519.825 332.447 509.553 331.186C508.892 331.105 508.292 331.573 508.212 332.233C508.131 332.894 508.598 333.494 509.259 333.574C519.354 334.815 529.323 337.176 538.886 340.592C547.458 343.653 555.764 347.589 563.575 352.285C563.772 352.406 563.986 352.463 564.199 352.463Z" fill="#526DA9"/>
<path d="M537.146 356.281C537.384 356.281 537.625 356.209 537.835 356.064C538.379 355.681 538.512 354.932 538.129 354.384C534.395 349.067 530.286 344.483 525.912 340.765C521.009 336.596 515.736 333.478 510.246 331.5C509.622 331.275 508.929 331.601 508.703 332.225C508.478 332.85 508.804 333.542 509.428 333.768C514.649 335.649 519.668 338.622 524.353 342.602C528.57 346.187 532.546 350.618 536.159 355.77C536.393 356.104 536.767 356.281 537.146 356.281Z" fill="#526DA9"/>
<path d="M315.289 232.298C315.289 232.298 263.72 270.219 244.305 294.017C224.889 317.816 223.282 413.239 232.679 420.756C242.073 428.272 278.399 405.098 278.399 405.098L315.289 232.298Z" fill="#6683C2"/>
<path d="M336.745 291.854C336.745 291.854 346.493 257.027 345.849 245.422C345.12 232.294 342.586 223.947 343.855 218.948C345.124 213.949 362.058 201.249 362.058 201.249L368.398 172.463C368.398 172.463 352.926 171.074 347.122 174.405C338.562 179.319 338.771 192.781 338.771 192.781C338.771 192.781 328.709 188.87 322.356 193.523C316.008 198.179 318.167 210.094 318.167 210.094C318.167 210.094 302.691 216.104 299.827 227.021C298.095 233.631 302.139 241.385 307.642 241.385C313.144 241.385 331.569 252.89 332.842 261.357C334.123 269.828 336.745 291.854 336.745 291.854Z" fill="#F37E60"/>
<path d="M420.675 180.362C420.675 180.362 435.41 166.904 443.728 169.434C452.046 171.964 456.747 178.115 456.747 178.115C456.747 178.115 466.149 172.689 477.363 178.115C488.574 183.541 486.406 190.413 486.406 190.413C486.406 190.413 497.617 188.604 505.214 194.751C512.811 200.898 512.199 213.434 508.36 216.298C504.521 219.162 464.509 217.031 444.32 229.393C412.014 249.18 403.422 302.726 403.422 302.726C403.422 302.726 399.756 268.918 413.863 245.772C427.97 222.626 431.72 212.362 431.72 212.362L424.602 198.118L420.675 180.362Z" fill="#F37E60"/>
<path d="M517.503 499.978C518.059 499.978 518.554 499.595 518.679 499.031C518.82 498.383 518.409 497.738 517.761 497.597C509.459 495.781 497.129 491.555 485.552 481.718C470.112 468.598 464.041 452.268 461.798 443.696C461.628 443.052 460.968 442.665 460.327 442.838C459.683 443.007 459.3 443.664 459.469 444.309C461.785 453.15 468.053 470.008 483.993 483.555C495.948 493.714 508.677 498.081 517.245 499.954C517.33 499.966 517.419 499.978 517.503 499.978Z" fill="#526DA9"/>
<path d="M247.747 488.449C248.078 488.449 248.404 488.316 248.642 488.054C257.657 478.08 265.6 467.152 272.247 455.567C275.82 449.339 279.066 442.834 281.902 436.228C282.164 435.615 281.882 434.906 281.27 434.645C280.658 434.383 279.953 434.665 279.687 435.277C276.887 441.799 273.681 448.22 270.156 454.367C263.594 465.803 255.755 476.59 246.853 486.439C246.406 486.93 246.446 487.696 246.938 488.139C247.171 488.344 247.457 488.449 247.747 488.449Z" fill="#526DA9"/>
<path d="M268.742 331.439C268.742 331.439 266.853 322.311 264.271 317.332C261.689 312.353 252.561 308.237 252.561 308.237C252.561 308.237 254.221 302.811 252.561 296.587C250.901 290.364 238.869 275.842 231.816 274.597C224.763 273.353 194.894 276.672 186.181 287.044C177.468 297.417 178.713 308.232 178.713 308.232C178.713 308.232 170.415 313.151 169.17 327.27C167.925 341.388 172.489 381.634 192.4 396.566C212.316 411.503 232.674 420.747 232.674 420.747L268.742 331.439Z" fill="#6683C2"/>
<path d="M212.085 345.066C222.45 345.066 231.537 342.275 239.166 336.74C245.277 332.305 250.111 326.347 253.535 319.024C253.817 318.42 253.555 317.707 252.955 317.421C252.351 317.139 251.638 317.397 251.352 318.001C248.101 324.949 243.525 330.597 237.749 334.786C229.088 341.07 218.397 343.608 205.962 342.331C196.262 341.336 188.919 338.267 188.113 337.92C187.505 337.658 186.796 337.94 186.53 338.549C186.268 339.161 186.55 339.866 187.159 340.132C188.001 340.494 195.658 343.697 205.712 344.728C207.892 344.957 210.015 345.066 212.085 345.066Z" fill="#526DA9"/>
<path d="M356.646 210.904C356.646 210.904 361.766 203.653 363.059 196.576C364.356 189.498 365.52 178.264 365.52 178.264L422.487 167.972C422.487 167.972 422.261 187.621 424.154 194.09C426.047 200.56 431.707 212.366 431.707 212.366C431.707 212.366 416.642 239.685 384.086 235.311C360.694 232.161 356.646 210.904 356.646 210.904Z" fill="#F9A990"/>
<path d="M361.022 202.977C361.022 202.977 366.899 205.66 374.138 205.684C394.178 205.745 416.305 180.363 416.305 180.363L365.284 185.435C365.284 185.435 363.959 193.145 363.064 196.577C362.17 200.009 361.022 202.977 361.022 202.977Z" fill="#F4947A"/>
<path d="M343.06 60.2778C343.06 60.2778 337.425 73.1035 335.773 86.2273C334.601 95.5485 336.825 112.745 336.523 117.538C336.224 122.332 331.371 139.496 333.441 149.784C335.512 160.076 352.498 190.678 378.839 192.49C405.179 194.307 424.333 176.37 432.78 160.72C436.796 153.284 437.883 145.872 437.883 145.872C437.883 145.872 452.473 144.728 457.545 135.742C462.334 127.246 461.444 115.705 455.031 113.027C449.481 110.706 440.558 118.292 440.558 118.292L438.178 64.0885L392.043 50.292L343.06 60.2778Z" fill="#F9A990"/>
<path d="M342.441 110.248C342.441 110.248 337.757 105.419 333.724 105.358C329.692 105.298 325.805 108.979 323.682 115.159C321.559 121.338 322.438 131.634 328.359 135.662C334.28 139.69 340.79 140.564 340.79 140.564L342.441 110.248Z" fill="#F9A990"/>
<path d="M439.246 88.3394C439.246 88.3394 435.782 91.8077 435.987 100.654C436.188 109.499 440.478 116.4 440.478 116.4L448.031 104.283L444.716 86.3535L439.246 88.3394Z" fill="#964633"/>
<path d="M266.266 184.158C272.961 189.036 274.125 282.932 270.327 287.959C266.532 292.983 218.988 292.205 215.125 287.959C211.262 283.714 209.155 189.06 212.055 184.44C214.951 179.815 259.568 179.279 266.266 184.158Z" fill="#849ED9"/>
<path d="M262.048 184.158C268.742 189.036 269.907 282.932 266.108 287.959C262.313 292.983 214.769 292.205 210.906 287.959C207.043 283.714 204.936 189.06 207.837 184.44C210.733 179.815 255.353 179.279 262.048 184.158Z" fill="#526DA9"/>
<path d="M187.639 300.825C185.713 296.821 185.294 278.69 187.639 264.036C189.983 249.381 195.594 222.259 203.389 215.714C211.183 209.168 237.06 193.579 241.112 197.007C245.165 200.435 213.854 222.57 213.854 222.57C213.854 222.57 225.523 219.452 238.305 221.011C251.086 222.57 258.99 227.983 257.95 232.294C256.915 236.604 245.713 235.778 245.713 235.778C245.713 235.778 262.305 241.993 262.305 246.348C262.305 250.702 258.156 251.947 254.836 251.947C251.517 251.947 246.124 248.668 246.124 248.668C246.124 248.668 257.322 256.716 253.382 261.28C249.443 265.844 241.145 259 241.145 259C241.145 259 229.532 262.94 228.287 266.469C227.042 269.993 223.3 278.17 224.444 283.061C225.588 287.955 232.927 291.85 232.927 291.85C232.927 291.85 232.009 301.103 224.444 307.326C216.887 313.554 189.568 304.829 187.639 300.825Z" fill="#F9A990"/>
<path d="M253.705 211.654C256.524 212.02 258.571 210.002 258.253 207.062C257.789 202.8 257.536 200.596 257.04 196.387C256.698 193.483 254.132 190.937 251.312 190.574C248.492 190.208 246.414 192.27 246.728 195.235C247.187 199.529 247.465 201.724 247.977 205.898C248.331 208.778 250.881 211.291 253.705 211.654Z" fill="#374A76"/>
<path d="M247.931 195.944C248.185 198.248 250.203 200.31 252.422 200.548C254.642 200.786 256.225 199.102 255.959 196.83C255.693 194.558 253.695 192.552 251.488 192.282C249.284 192.012 247.677 193.64 247.931 195.944Z" fill="#F9E8DE"/>
<path d="M248.505 196.008C248.723 197.982 250.455 199.75 252.356 199.955C254.258 200.157 255.615 198.719 255.39 196.769C255.164 194.819 253.448 193.091 251.555 192.862C249.661 192.636 248.288 194.034 248.505 196.008Z" fill="#6683C2"/>
<path d="M249.008 205.14C249.282 207.4 251.28 209.389 253.48 209.655C255.679 209.925 257.266 208.322 257.012 206.03C256.759 203.738 254.745 201.671 252.529 201.434C250.31 201.2 248.734 202.88 249.008 205.14Z" fill="#F9E8DE"/>
<path d="M249.578 205.2C249.812 207.137 251.524 208.853 253.413 209.079C255.302 209.305 256.659 207.927 256.442 205.961C256.22 203.999 254.496 202.227 252.599 202.026C250.694 201.824 249.344 203.262 249.578 205.2Z" fill="#6683C2"/>
<path d="M392.026 91.1912C391.949 87.8881 394.676 84.6011 406.499 88.4561C418.322 92.3111 419.458 96.3715 417.895 98.3453C415.731 101.08 410.89 96.0975 406.684 95.5296C402.475 94.9697 392.098 94.4943 392.026 91.1912Z" fill="#BF6147"/>
<path d="M359.663 88.4886C359.739 85.1855 356.887 81.5279 345.189 85.7535C337.27 88.6175 335.776 93.6487 337.185 94.982C338.712 96.4281 340.799 93.3949 345.004 92.831C349.209 92.267 359.586 91.7917 359.663 88.4886Z" fill="#BF6147"/>
<path d="M401.689 103.53C398.756 103.441 396.174 107.812 395.989 111.489C395.772 115.723 398.644 120.657 401.624 120.674C404.577 120.69 407.268 115.876 407.115 111.747C406.986 108.13 404.621 103.618 401.689 103.53Z" fill="#544A47"/>
<path d="M351.595 101.967C348.663 101.879 346.081 106.249 345.895 109.927C345.678 114.16 348.55 119.095 351.531 119.111C354.483 119.127 357.174 114.313 357.021 110.185C356.888 106.567 354.524 102.056 351.595 101.967Z" fill="#544A47"/>
<path d="M365.324 140.013C370.315 140.013 373.542 137.246 373.679 137.125C374.178 136.686 374.231 135.924 373.792 135.425C373.352 134.925 372.595 134.873 372.092 135.312C372.068 135.332 369.203 137.737 364.966 137.6C363.052 137.54 361.514 136.923 360.515 135.82C359.709 134.929 359.294 133.737 359.371 132.549C359.459 131.244 360.362 130.128 361.506 128.71C362.424 127.574 363.463 126.285 364.233 124.654C365.981 120.932 366.202 110.72 366.215 110.289C366.227 109.624 365.699 109.073 365.034 109.061C365.026 109.061 365.018 109.061 365.01 109.061C364.358 109.061 363.818 109.584 363.806 110.241C363.749 113.048 363.326 120.928 362.053 123.63C361.409 125 360.507 126.12 359.633 127.199C358.335 128.807 357.107 130.325 356.97 132.392C356.845 134.229 357.49 136.069 358.73 137.443C359.741 138.559 361.631 139.908 364.889 140.013C365.038 140.009 365.183 140.013 365.324 140.013Z" fill="#F4947A"/>
<path d="M393.831 148.278C392.264 147.074 382.641 150.514 371.555 151.046C360.47 151.578 353.731 147.489 351.95 149.664C350.17 151.839 354.806 169.604 372.856 167.287C391.841 164.846 395.398 149.483 393.831 148.278Z" fill="#F9E8DE"/>
<path d="M394.072 132.907C395.063 127.175 405.319 123.22 412.992 125.967C419.038 128.13 424.521 134.829 422.934 139.856C421.19 145.383 411.413 147.26 404.561 144.891C399.208 143.038 393.23 137.765 394.072 132.907Z" fill="#F4947A"/>
<path d="M334.96 128.863C335.411 127.103 336.056 123.413 336.056 123.413C342.477 123.469 349.852 127.989 350.005 133.254C350.175 139.046 341.562 144.033 334.312 144.053C334.066 144.053 333.812 144.049 333.558 144.037C333.562 144.037 333.494 134.579 334.96 128.863Z" fill="#F4947A"/>
<path d="M373.828 58.5671C373.828 58.5671 385.49 74.4542 399.283 74.4865C413.075 74.5187 412.712 65.6164 412.712 65.6164C412.712 65.6164 418.336 83.8157 431.85 89.7975C445.365 95.7794 460.736 87.9526 460.736 87.9526L460.712 98.2164C460.712 98.2164 470.198 89.2054 471.689 83.9486C473.175 78.6919 471.173 70.3495 471.173 70.3495C471.173 70.3495 477.256 66.0515 477.135 58.9135C476.857 42.4987 454.468 31.9167 454.468 31.9167C454.468 31.9167 462.976 32.5411 461.038 27.5945C459.101 22.6479 448.91 17.1132 442.4 15.1958C435.891 13.2784 425.78 12.9602 425.78 12.9602C425.78 12.9602 417.437 1.4235 404.6 2.03981C391.762 2.65612 377.156 10.5876 377.156 10.5876C377.156 10.5876 361.22 -4.05079 347.222 1.09721C333.225 6.24522 330.727 26.7365 330.727 26.7365C330.727 26.7365 313.406 23.8886 308.584 36.5169C303.762 49.1452 312.471 64.3556 325.172 69.987C337.873 75.6224 348.83 76.0333 354.239 72.5932C359.645 69.1572 373.828 58.5671 373.828 58.5671Z" fill="#BF6147"/>
<path d="M454.281 339.867C454.583 339.867 454.878 339.754 455.103 339.54C455.159 339.488 461.125 334.038 471.26 332.986C481.786 331.895 501.729 331.524 501.931 331.52C502.309 331.512 502.66 331.331 502.881 331.025C503.103 330.719 503.171 330.328 503.063 329.969L490.221 287.142C490.031 286.505 489.359 286.143 488.722 286.336C488.086 286.526 487.723 287.198 487.917 287.835L500.299 329.144C495.332 329.256 479.888 329.667 471.01 330.59C461.838 331.54 455.921 335.754 454.072 337.256L423.341 323.81C422.733 323.54 422.02 323.822 421.754 324.431C421.488 325.039 421.766 325.752 422.374 326.018L453.798 339.766C453.955 339.83 454.12 339.867 454.281 339.867Z" fill="#526DA9"/>
<path d="M515.759 445.202C516.327 445.202 516.83 444.799 516.939 444.223C517.064 443.57 516.637 442.938 515.981 442.813C505.91 440.891 449.838 403.127 440.468 395.55C435.063 391.18 434.144 388.416 434.076 387.16C434.023 386.165 434.462 385.71 434.483 385.689C434.797 385.448 434.926 385.109 434.91 384.715C434.889 384.32 434.636 383.998 434.301 383.788L414.66 371.514C414.096 371.16 413.355 371.333 413 371.897C412.646 372.461 412.819 373.206 413.383 373.557L432.005 385.194C431.804 385.685 431.651 386.318 431.667 387.099C431.723 390.084 434.176 393.556 438.958 397.423C449.427 405.895 505.121 443.192 515.533 445.177C515.61 445.198 515.686 445.202 515.759 445.202Z" fill="#526DA9"/>
<path d="M257.424 423.459C257.967 423.459 258.463 423.088 258.592 422.536C258.705 422.069 269.77 375.765 272.384 360.515C275.003 345.232 276.416 313.446 276.429 313.127C276.457 312.463 275.941 311.899 275.277 311.871C274.608 311.838 274.048 312.358 274.02 313.023C274.004 313.341 272.598 344.974 270.008 360.112C267.405 375.282 256.36 421.513 256.247 421.981C256.094 422.629 256.493 423.278 257.138 423.431C257.234 423.451 257.331 423.459 257.424 423.459Z" fill="#526DA9"/>
<path d="M439.917 134.575C440.4 134.575 440.855 134.281 441.041 133.805C442.394 130.317 444.328 127.312 446.789 124.867C448.549 123.119 450.547 121.705 452.722 120.661C453.322 120.375 453.576 119.654 453.286 119.054C453 118.454 452.279 118.2 451.679 118.49C449.258 119.65 447.043 121.221 445.089 123.159C442.386 125.842 440.267 129.133 438.793 132.935C438.551 133.556 438.861 134.252 439.482 134.494C439.623 134.55 439.772 134.575 439.917 134.575Z" fill="#F4947A"/>
<path d="M451.598 130.123C451.992 130.123 452.375 129.93 452.605 129.579C452.967 129.023 452.814 128.278 452.254 127.912C451.034 127.114 449.733 126.518 448.383 126.139C446.808 125.696 445.197 125.559 443.602 125.728C442.941 125.797 442.462 126.393 442.53 127.054C442.599 127.714 443.199 128.194 443.855 128.125C445.148 127.988 446.454 128.101 447.735 128.459C448.846 128.77 449.926 129.265 450.937 129.926C451.142 130.059 451.372 130.123 451.598 130.123Z" fill="#F4947A"/>
<path d="M333.565 122.66C333.706 122.66 333.847 122.636 333.984 122.583C334.608 122.354 334.926 121.661 334.693 121.036C334.383 120.195 334.016 119.365 333.613 118.567C332.598 116.565 331.293 114.712 329.734 113.053C329.279 112.569 328.518 112.545 328.03 113C327.547 113.455 327.523 114.217 327.978 114.704C329.38 116.199 330.556 117.866 331.466 119.663C331.829 120.38 332.155 121.125 332.437 121.878C332.614 122.362 333.074 122.66 333.565 122.66Z" fill="#F4947A"/>
<path d="M375.839 309.385C376.343 309.385 376.81 309.067 376.979 308.563C377.193 307.935 376.851 307.25 376.222 307.036C376.15 307.012 368.794 304.499 363.55 299.548C363.066 299.093 362.305 299.113 361.846 299.596C361.39 300.08 361.411 300.841 361.894 301.3C367.537 306.625 375.135 309.212 375.453 309.32C375.582 309.365 375.711 309.385 375.839 309.385Z" fill="#F4947A"/>
<path d="M373.494 334.445C374.006 334.445 374.477 334.118 374.642 333.607C374.844 332.974 374.493 332.294 373.861 332.092C373.804 332.076 368.201 330.284 366.381 329.555C365.357 329.148 361.519 325.454 358.393 322.123C357.938 321.635 357.176 321.611 356.689 322.066C356.205 322.521 356.177 323.283 356.632 323.77C357.756 324.966 363.456 330.98 365.482 331.79C367.384 332.551 372.89 334.312 373.124 334.388C373.249 334.425 373.373 334.445 373.494 334.445Z" fill="#F4947A"/>
<path d="M370.749 321.526C371.123 321.526 371.49 321.352 371.724 321.03C372.114 320.49 371.993 319.737 371.458 319.346L358.225 309.743C357.685 309.352 356.932 309.473 356.541 310.009C356.151 310.549 356.272 311.302 356.807 311.693L370.04 321.296C370.257 321.449 370.503 321.526 370.749 321.526Z" fill="#F4947A"/>
<path d="M246.132 249.881C246.555 249.881 246.966 249.659 247.184 249.264C247.506 248.684 247.3 247.951 246.72 247.625C245.597 246.997 235.643 241.486 232.59 241.22C231.663 241.14 229.774 241.381 224.062 244.39C221.037 245.985 218.326 247.633 218.302 247.649C217.734 247.996 217.552 248.737 217.899 249.305C218.245 249.873 218.986 250.054 219.554 249.708C226.68 245.361 231.333 243.528 232.38 243.621C234.294 243.786 241.472 247.456 245.548 249.732C245.734 249.828 245.935 249.881 246.132 249.881Z" fill="#F4947A"/>
<path d="M210.135 240.105C210.312 240.105 210.494 240.064 210.667 239.98C216.5 237.112 226.473 232.528 228.391 232.443C230.288 232.366 238.493 235.315 243.206 237.2C243.827 237.446 244.524 237.148 244.773 236.528C245.019 235.911 244.721 235.21 244.101 234.961C242.824 234.449 231.674 230.034 228.423 230.034C228.375 230.034 228.33 230.034 228.286 230.038C225.297 230.167 212.198 236.544 209.603 237.821C209.007 238.115 208.761 238.836 209.056 239.432C209.265 239.859 209.692 240.105 210.135 240.105Z" fill="#F4947A"/>
<path d="M418.583 685.994C418.736 685.994 418.893 685.966 419.046 685.902C419.663 685.648 419.953 684.943 419.695 684.327L376.952 581.403C376.698 580.786 375.989 580.496 375.377 580.754C374.761 581.008 374.471 581.713 374.728 582.329L417.471 685.253C417.665 685.716 418.112 685.994 418.583 685.994Z" fill="#5FA590"/>
<path d="M443.62 217.494C444.007 217.494 444.39 217.309 444.619 216.962C447.358 212.89 455.229 203.097 469.143 200.165C472.567 199.444 476.127 199.186 479.733 199.395C480.385 199.436 480.965 198.928 481.006 198.263C481.046 197.599 480.538 197.031 479.874 196.991C476.055 196.765 472.277 197.039 468.643 197.804C453.868 200.922 445.521 211.299 442.617 215.613C442.247 216.165 442.392 216.914 442.943 217.284C443.157 217.429 443.391 217.494 443.62 217.494Z" fill="#DA7156"/>
<path d="M439.994 200.563C440.57 200.563 441.077 200.148 441.178 199.564C442.076 194.336 444.272 189.558 447.535 185.744C448.936 184.1 450.552 182.622 452.328 181.341C452.868 180.95 452.989 180.201 452.602 179.661C452.215 179.121 451.462 179.001 450.922 179.387C448.989 180.781 447.236 182.392 445.706 184.181C442.161 188.326 439.776 193.502 438.806 199.158C438.693 199.814 439.132 200.434 439.788 200.547C439.857 200.559 439.925 200.563 439.994 200.563Z" fill="#DA7156"/>
<path d="M343.541 244.902C343.714 244.902 343.892 244.866 344.057 244.785C344.657 244.499 344.911 243.782 344.625 243.182C342.977 239.726 341.064 236.37 338.933 233.2C335.179 227.621 330.691 222.521 325.592 218.05C325.092 217.611 324.331 217.659 323.892 218.159C323.453 218.658 323.501 219.42 324.004 219.859C328.947 224.197 333.297 229.136 336.935 234.545C339.001 237.615 340.858 240.87 342.453 244.217C342.663 244.648 343.094 244.902 343.541 244.902Z" fill="#DA7156"/>
<g clip-path="url(#clip0_3004_8)">
<path d="M81.2336 171.894C85.3164 163.748 82.0229 153.835 73.8774 149.753C65.7319 145.67 55.819 148.963 51.7362 157.109C47.6535 165.254 50.947 175.167 59.0924 179.25C67.2379 183.333 77.1509 180.039 81.2336 171.894Z" fill="#F37E60"/>
<path d="M66.4853 173.554C64.6626 173.554 63.1351 172.192 62.9228 170.385L62.8555 169.805H70.1152L70.0478 170.385C69.8407 172.192 68.308 173.554 66.4853 173.554ZM64.0879 170.84C64.4451 171.829 65.3927 172.518 66.4853 172.518C67.5779 172.518 68.5255 171.829 68.8828 170.84H64.0879Z" fill="white"/>
<path d="M72.8605 167.412H60.1172V161.561C60.1172 158.185 62.8616 155.44 66.2325 155.44H66.74C70.1109 155.44 72.8605 158.185 72.8605 161.561V167.412ZM61.1528 166.377H71.8249V161.561C71.8249 158.76 69.5465 156.476 66.74 156.476H66.2325C63.4312 156.476 61.1528 158.754 61.1528 161.561V166.377Z" fill="white"/>
<path d="M72.346 170.84H60.628C59.4371 170.84 58.4688 169.871 58.4688 168.681V168.53C58.4688 167.339 59.4371 166.371 60.628 166.371H72.3409C73.5318 166.371 74.5001 167.339 74.5001 168.53V168.681C74.5001 169.871 73.5318 170.84 72.346 170.84ZM60.6332 167.412C60.0118 167.412 59.5095 167.914 59.5095 168.536V168.686C59.5095 169.302 60.0118 169.809 60.6332 169.809H72.346C72.9622 169.809 73.4697 169.307 73.4697 168.686V168.536C73.4697 167.919 72.9674 167.412 72.346 167.412H60.6332Z" fill="white"/>
</g>
<path d="M8.71704 204H156.617C162.187 204 166.707 208.52 166.707 214.09V226.63V242.4C166.707 244.08 164.657 244.91 163.497 243.7L153.487 233.31C152.597 232.38 151.367 231.86 150.077 231.86C150.077 231.86 13.537 231.86 8.71704 231.86C3.89704 231.86 -0.00296021 227.85 -0.00296021 223.03V211.726C-0.00296021 206.916 3.89704 204 8.71704 204Z" fill="#6683C2"/>
<path d="M13.2841 222V211.99H17.1761C17.8294 211.99 18.3941 212.102 18.8701 212.326C19.3554 212.541 19.7288 212.844 19.9901 213.236C20.2608 213.628 20.3961 214.09 20.3961 214.622C20.3961 215.107 20.2608 215.541 19.9901 215.924C19.7288 216.297 19.3554 216.591 18.8701 216.806C18.3941 217.011 17.8294 217.114 17.1761 217.114H14.7681V216.428H17.4281C18.1094 216.428 18.7021 216.54 19.2061 216.764C19.7194 216.988 20.1161 217.305 20.3961 217.716C20.6854 218.117 20.8301 218.598 20.8301 219.158C20.8301 219.727 20.6854 220.227 20.3961 220.656C20.1161 221.085 19.7194 221.417 19.2061 221.65C18.7021 221.883 18.1094 222 17.4281 222H13.2841ZM14.6281 220.838H17.4421C18.0674 220.838 18.5574 220.689 18.9121 220.39C19.2761 220.091 19.4581 219.671 19.4581 219.13C19.4581 218.589 19.2761 218.169 18.9121 217.87C18.5574 217.571 18.0674 217.422 17.4421 217.422H14.4881V216.288H17.1481C17.7268 216.288 18.1841 216.148 18.5201 215.868C18.8561 215.579 19.0241 215.187 19.0241 214.692C19.0241 214.216 18.8561 213.843 18.5201 213.572C18.1841 213.292 17.7268 213.152 17.1481 213.152H14.6281V220.838ZM22.5757 222V215.056H23.8637V221.804L22.9957 220.922H25.8657C26.3044 220.922 26.6404 220.819 26.8737 220.614C27.1071 220.399 27.2237 220.105 27.2237 219.732C27.2237 219.368 27.1071 219.088 26.8737 218.892C26.6404 218.687 26.3044 218.584 25.8657 218.584H23.2057V217.492H25.9357C26.7197 217.492 27.3544 217.702 27.8397 218.122C28.3251 218.533 28.5677 219.065 28.5677 219.718C28.5677 220.166 28.4511 220.563 28.2177 220.908C27.9937 221.244 27.6811 221.51 27.2797 221.706C26.8877 221.902 26.4397 222 25.9357 222H22.5757ZM29.4497 222V215.056H30.7517V222H29.4497ZM32.8843 222V215.056H34.1723V221.706L33.8363 220.922H37.4623L37.0983 221.706V215.056H38.3863V221.706L38.1203 220.922H41.7743L41.3123 221.706V215.056H42.6003V222H32.8843ZM50.5058 219.956L51.3178 220.796C50.9538 221.244 50.5058 221.594 49.9738 221.846C49.4512 222.098 48.8585 222.224 48.1958 222.224C47.4398 222.224 46.7678 222.065 46.1798 221.748C45.5918 221.431 45.1298 220.997 44.7938 220.446C44.4672 219.886 44.3038 219.247 44.3038 218.528C44.3038 217.809 44.4625 217.175 44.7798 216.624C45.0972 216.064 45.5358 215.625 46.0958 215.308C46.6558 214.991 47.2858 214.832 47.9858 214.832C48.6672 214.832 49.2692 214.991 49.7918 215.308C50.3238 215.616 50.7392 216.045 51.0378 216.596C51.3458 217.137 51.4998 217.767 51.4998 218.486V218.57H50.1838V218.444C50.1838 217.94 50.0905 217.501 49.9038 217.128C49.7172 216.745 49.4558 216.451 49.1198 216.246C48.7932 216.031 48.4152 215.924 47.9858 215.924C47.5285 215.924 47.1225 216.031 46.7678 216.246C46.4132 216.461 46.1378 216.764 45.9418 217.156C45.7458 217.539 45.6478 217.991 45.6478 218.514C45.6478 219.037 45.7552 219.499 45.9698 219.9C46.1938 220.292 46.5018 220.595 46.8938 220.81C47.2858 221.025 47.7338 221.132 48.2378 221.132C49.1618 221.132 49.9178 220.74 50.5058 219.956ZM51.4998 218.962H45.2698V217.996H51.2758L51.4998 218.486V218.962ZM52.389 222V220.908H52.921C53.1824 220.908 53.3737 220.843 53.495 220.712C53.6257 220.581 53.705 220.353 53.733 220.026L54.167 215.056H59.277V222H57.975V215.294L58.899 216.148H54.419L55.427 215.294L54.951 220.25C54.895 220.903 54.7224 221.361 54.433 221.622C54.1437 221.874 53.7097 222 53.131 222H52.389ZM69.3602 222V215.056H70.6622V222H69.3602ZM64.1382 222V215.056H65.4402V222H64.1382ZM64.7682 218.892V217.814H70.0882V218.892H64.7682ZM76.0825 222.224C75.3545 222.224 74.7105 222.065 74.1505 221.748C73.5905 221.431 73.1518 220.997 72.8345 220.446C72.5172 219.886 72.3585 219.247 72.3585 218.528C72.3585 217.809 72.5172 217.175 72.8345 216.624C73.1518 216.073 73.5905 215.639 74.1505 215.322C74.7105 214.995 75.3545 214.832 76.0825 214.832C76.8105 214.832 77.4498 214.995 78.0005 215.322C78.5605 215.639 78.9992 216.073 79.3165 216.624C79.6432 217.175 79.8065 217.809 79.8065 218.528C79.8065 219.247 79.6432 219.886 79.3165 220.446C78.9992 220.997 78.5605 221.431 78.0005 221.748C77.4498 222.065 76.8105 222.224 76.0825 222.224ZM76.0825 221.104C76.5492 221.104 76.9598 220.997 77.3145 220.782C77.6692 220.567 77.9445 220.264 78.1405 219.872C78.3365 219.48 78.4345 219.032 78.4345 218.528C78.4345 218.024 78.3365 217.581 78.1405 217.198C77.9445 216.806 77.6692 216.503 77.3145 216.288C76.9598 216.064 76.5492 215.952 76.0825 215.952C75.6158 215.952 75.2005 216.064 74.8365 216.288C74.4818 216.503 74.2065 216.806 74.0105 217.198C73.8145 217.581 73.7165 218.024 73.7165 218.528C73.7165 219.032 73.8145 219.48 74.0105 219.872C74.2065 220.264 74.4818 220.567 74.8365 220.782C75.2005 220.997 75.6158 221.104 76.0825 221.104ZM81.4878 222V215.056H85.0298C85.7578 215.056 86.3318 215.224 86.7518 215.56C87.1812 215.896 87.3958 216.344 87.3958 216.904C87.3958 217.259 87.2885 217.567 87.0738 217.828C86.8685 218.089 86.5885 218.29 86.2338 218.43L86.2198 218.304C86.6585 218.425 87.0178 218.631 87.2978 218.92C87.5778 219.209 87.7178 219.564 87.7178 219.984C87.7178 220.376 87.6012 220.726 87.3678 221.034C87.1345 221.342 86.8218 221.58 86.4298 221.748C86.0378 221.916 85.5992 222 85.1138 222H81.4878ZM82.7338 221.692L82.0058 220.978H85.0158C85.4452 220.978 85.7812 220.889 86.0238 220.712C86.2665 220.525 86.3878 220.264 86.3878 219.928C86.3878 219.601 86.2665 219.349 86.0238 219.172C85.7812 218.985 85.4452 218.892 85.0158 218.892H82.1598V217.912H84.9458C85.3565 217.912 85.6458 217.828 85.8138 217.66C85.9818 217.492 86.0658 217.259 86.0658 216.96C86.0658 216.671 85.9772 216.456 85.7998 216.316C85.6318 216.167 85.3472 216.092 84.9458 216.092H81.9918L82.7338 215.35V221.692ZM89.2124 222V215.056H90.5004V221.804L89.6324 220.922H92.5024C92.9411 220.922 93.2771 220.819 93.5104 220.614C93.7438 220.399 93.8604 220.105 93.8604 219.732C93.8604 219.368 93.7438 219.088 93.5104 218.892C93.2771 218.687 92.9411 218.584 92.5024 218.584H89.8424V217.492H92.5724C93.3564 217.492 93.9911 217.702 94.4764 218.122C94.9618 218.533 95.2044 219.065 95.2044 219.718C95.2044 220.166 95.0878 220.563 94.8544 220.908C94.6304 221.244 94.3178 221.51 93.9164 221.706C93.5244 221.902 93.0764 222 92.5724 222H89.2124ZM96.0864 222V215.056H97.3884V222H96.0864ZM99.521 222V215.056H100.795V220.292L100.697 220.264L104.855 215.056H105.989V222H104.715V216.764L104.827 216.806L100.655 222H99.521ZM102.839 213.81C102.195 213.81 101.658 213.647 101.229 213.32C100.8 212.984 100.548 212.513 100.473 211.906H101.579C101.635 212.298 101.77 212.583 101.985 212.76C102.209 212.937 102.494 213.026 102.839 213.026C103.184 213.026 103.464 212.937 103.679 212.76C103.903 212.583 104.043 212.298 104.099 211.906H105.205C105.13 212.513 104.878 212.984 104.449 213.32C104.02 213.647 103.483 213.81 102.839 213.81ZM115.587 222L111.793 218.402H111.933L115.363 215.056H117.029L113.305 218.682L113.039 217.954L117.365 222H115.587ZM110.869 222V215.056H112.171V222H110.869ZM123.717 215.056H125.047L121.589 223.106C121.374 223.619 121.099 224.016 120.763 224.296C120.436 224.576 119.965 224.716 119.349 224.716H118.593V223.624H119.321C119.61 223.624 119.848 223.549 120.035 223.4C120.231 223.26 120.39 223.05 120.511 222.77L120.805 222.028L117.809 215.056H119.195L121.701 221.286H121.197L123.717 215.056ZM127.675 224.716H126.373V215.056H127.661V217.184H127.367C127.441 216.727 127.614 216.321 127.885 215.966C128.165 215.611 128.51 215.336 128.921 215.14C129.341 214.935 129.798 214.832 130.293 214.832C130.965 214.832 131.562 214.995 132.085 215.322C132.607 215.639 133.018 216.078 133.317 216.638C133.615 217.189 133.765 217.819 133.765 218.528C133.765 219.247 133.611 219.886 133.303 220.446C133.004 220.997 132.584 221.431 132.043 221.748C131.511 222.065 130.904 222.224 130.223 222.224C129.597 222.224 129.056 222.098 128.599 221.846C128.141 221.585 127.796 221.235 127.563 220.796C127.329 220.348 127.236 219.849 127.283 219.298L127.549 219.032C127.586 219.433 127.717 219.793 127.941 220.11C128.174 220.427 128.468 220.675 128.823 220.852C129.187 221.02 129.579 221.104 129.999 221.104C130.484 221.104 130.904 220.997 131.259 220.782C131.613 220.558 131.893 220.25 132.099 219.858C132.304 219.466 132.407 219.023 132.407 218.528C132.407 218.033 132.309 217.595 132.113 217.212C131.917 216.82 131.646 216.512 131.301 216.288C130.955 216.064 130.549 215.952 130.083 215.952C129.616 215.952 129.201 216.069 128.837 216.302C128.482 216.526 128.197 216.843 127.983 217.254C127.777 217.665 127.675 218.141 127.675 218.682V224.716ZM140.756 220.026L141.638 220.866C141.302 221.286 140.887 221.617 140.392 221.86C139.898 222.103 139.338 222.224 138.712 222.224C138.003 222.224 137.368 222.065 136.808 221.748C136.258 221.431 135.824 220.997 135.506 220.446C135.189 219.886 135.03 219.247 135.03 218.528C135.03 217.819 135.189 217.189 135.506 216.638C135.824 216.078 136.262 215.639 136.822 215.322C137.392 214.995 138.031 214.832 138.74 214.832C139.356 214.832 139.907 214.953 140.392 215.196C140.887 215.439 141.302 215.77 141.638 216.19L140.756 217.03C140.542 216.703 140.271 216.442 139.944 216.246C139.618 216.05 139.226 215.952 138.768 215.952C138.302 215.952 137.886 216.064 137.522 216.288C137.168 216.503 136.888 216.806 136.682 217.198C136.486 217.581 136.388 218.024 136.388 218.528C136.388 219.032 136.486 219.48 136.682 219.872C136.888 220.255 137.168 220.558 137.522 220.782C137.886 220.997 138.302 221.104 138.768 221.104C139.235 221.104 139.627 221.006 139.944 220.81C140.271 220.614 140.542 220.353 140.756 220.026ZM144.673 221.244C144.673 221.487 144.584 221.697 144.407 221.874C144.23 222.051 144.015 222.14 143.763 222.14C143.52 222.14 143.31 222.051 143.133 221.874C142.956 221.697 142.867 221.487 142.867 221.244C142.867 220.992 142.956 220.782 143.133 220.614C143.31 220.437 143.52 220.348 143.763 220.348C144.015 220.348 144.23 220.437 144.407 220.614C144.584 220.782 144.673 220.992 144.673 221.244ZM144.127 219.06H143.399C143.39 218.892 143.371 218.626 143.343 218.262C143.324 217.898 143.296 217.478 143.259 217.002C143.231 216.526 143.203 216.041 143.175 215.546C143.147 215.042 143.119 214.571 143.091 214.132C143.063 213.684 143.04 213.315 143.021 213.026C143.012 212.727 143.007 212.555 143.007 212.508C143.007 212.293 143.077 212.116 143.217 211.976C143.366 211.836 143.548 211.766 143.763 211.766C143.978 211.766 144.16 211.836 144.309 211.976C144.458 212.116 144.533 212.293 144.533 212.508C144.533 212.555 144.524 212.727 144.505 213.026C144.486 213.315 144.463 213.684 144.435 214.132C144.416 214.571 144.388 215.042 144.351 215.546C144.323 216.041 144.295 216.526 144.267 217.002C144.239 217.478 144.211 217.898 144.183 218.262C144.164 218.626 144.146 218.892 144.127 219.06Z" fill="white"/>
<path d="M164.02 218.064C170.113 218.064 175.052 213.124 175.052 207.032C175.052 200.939 170.113 196 164.02 196C157.927 196 152.988 200.939 152.988 207.032C152.988 213.124 157.927 218.064 164.02 218.064Z" fill="#F37E60"/>
<path d="M165.288 212.189H163.768V203.018L162.227 203.963V202.393L163.768 201.363H165.288V212.189Z" fill="white"/>
<g clip-path="url(#clip1_3004_8)">
<path d="M114.158 300.156C121.972 292.342 121.972 279.672 114.158 271.858C106.344 264.043 93.6743 264.043 85.86 271.858C78.0457 279.672 78.0457 292.342 85.86 300.156C93.6743 307.97 106.344 307.97 114.158 300.156Z" fill="#F37E60"/>
<path d="M98.8984 278.09H101.118V289.86H98.8984V278.09ZM98.8984 291.7H101.118V293.92H98.8984V291.7Z" fill="white"/>
</g>
<defs>
<clipPath id="clip0_3004_8">
<rect width="33" height="33" fill="white" transform="translate(49.9883 148)"/>
</clipPath>
<clipPath id="clip1_3004_8">
<rect width="40.01" height="40.01" fill="white" transform="translate(80 266)"/>
</clipPath>
</defs>
</svg>
