<svg width="336" height="285" viewBox="0 0 336 285" fill="none" xmlns="http://www.w3.org/2000/svg">
<path fill-rule="evenodd" clip-rule="evenodd" d="M267.268 62.6939L309.146 93.706C313.924 96.3489 317.373 94.9805 318.564 89.2589L335.61 8.7425C337.355 1.72906 332.943 -1.45192 328.371 0.628458L228.276 39.3152C221.444 42.0621 221.483 45.8828 227.031 47.5853L252.717 55.6213L312.185 18.0161C314.992 16.3097 269.383 60.8127 267.268 62.6939Z" fill="#D6EDFA"/>
<path d="M37 158.498C37 88.632 93.6375 32 163.502 32C233.361 32 290 88.632 290 158.499C290 228.364 233.361 285 163.502 285C93.6361 284.999 37 228.362 37 158.498Z" fill="#D6EDFA"/>
<g clip-path="url(#clip0_1274_5214)">
<path d="M162.28 71.7197C162.28 71.7197 158.963 75.5312 160.304 79.4605C161.645 83.3897 166.052 86.3868 166.052 86.3868L173.458 105.818L231.054 105.68L230.508 99.855C230.508 99.855 233.369 98.2366 234.981 94.2226C236.126 91.3702 236.25 84.3199 236.25 84.3199L162.28 71.7197Z" fill="#964633"/>
<path d="M230.496 324.576C230.496 324.576 208.171 324.458 198.81 325.178C189.449 325.897 169.24 333.518 161.239 328.018C153.236 322.517 150.079 304.702 150.079 304.702L172.163 156.353C172.163 156.353 177.938 147.174 180.16 145.989C182.38 144.805 185.054 144.266 185.054 144.266L184.304 150.874C184.304 150.874 187.264 155.167 193.779 155.611C200.292 156.056 210.211 153.242 212.284 152.058C214.357 150.874 219.533 146.496 219.533 146.496L224.572 147.616C224.572 147.616 212.789 164.588 207.725 176.903C202.66 189.22 230.496 324.576 230.496 324.576Z" fill="#E3E9F5"/>
<path d="M279.127 317.054C278.387 318.991 267.116 325.293 257.635 327.178C248.154 329.063 228.344 328.278 224.132 327.178C219.919 326.079 203.905 212.754 205.8 199.164C207.696 185.573 217.179 157.444 226.66 153.335C236.141 149.226 259.167 149.098 264.586 154.278C270.006 159.457 270.843 262.691 274.034 272.805C277.228 282.919 279.439 296.825 280.388 302.199C281.341 307.573 279.869 315.117 279.127 317.054Z" fill="#6683C2"/>
<path d="M161.237 328.017C159.569 329.646 158.161 328.205 155.867 328.017C153.571 327.829 149.125 325.677 142.523 325.822C135.923 325.965 127.13 328.594 124.733 325.816C122.335 323.038 118.193 308.989 120.547 296.695C122.901 284.4 138.492 234.963 140.636 225.284C142.779 215.606 150.104 176.892 154.027 169.567C157.95 162.244 167.89 153.35 167.89 153.35C167.89 153.35 172.861 180.292 172.076 189.707C171.291 199.124 167.89 221.358 166.582 233.39C165.276 245.424 162.903 326.388 161.237 328.017Z" fill="#6683C2"/>
<path d="M216.102 210.94C216.102 210.94 199.806 186.891 197.408 187.54C193.57 188.579 200.432 197.924 200.432 197.924C200.432 197.924 181.953 185.69 178.524 187.529C174.349 189.77 192.119 199.135 192.119 199.135C192.119 199.135 175.044 188.734 173.669 190.758C172.295 192.781 187.805 204.439 187.805 204.439C187.805 204.439 176.515 196.611 175.143 198.379C173.768 200.146 186.726 209.865 186.726 209.865C186.726 209.865 178.092 202.684 176.615 205.251C175.695 206.849 184.566 215.952 188.101 217.913C191.635 219.877 213.328 224.687 213.328 224.687L216.102 210.94Z" fill="#F9A990"/>
<path d="M264.59 154.279C264.59 154.279 286.039 172.7 299.896 201.674C313.753 230.647 314.509 250.299 303.926 259.369C293.346 268.439 280.299 271.624 264.59 266.107C248.675 260.516 231.62 250.049 227.085 246.521C222.551 242.995 221.794 238.46 221.794 238.46C221.794 238.46 212.22 234.177 211.716 232.162C211.211 230.147 213.227 208.731 216.25 207.724C219.274 206.716 232.375 214.779 232.375 214.779C232.375 214.779 247.494 208.475 256.814 210.49C256.814 210.49 254.043 192.35 255.303 184.539C256.562 176.728 259.082 169.926 259.082 169.926" fill="#6683C2"/>
<path d="M288.777 221.857C288.986 221.857 289.191 221.749 289.306 221.557C289.482 221.266 289.387 220.885 289.095 220.71C285.017 218.256 280.681 216.204 276.206 214.604C271.212 212.82 266.008 211.586 260.737 210.939C260.398 210.898 260.09 211.138 260.049 211.477C260.007 211.816 260.247 212.124 260.586 212.165C265.766 212.802 270.882 214.013 275.788 215.766C280.187 217.336 284.449 219.356 288.457 221.766C288.558 221.828 288.668 221.857 288.777 221.857Z" fill="#526DA9"/>
<path d="M274.895 223.817C275.017 223.817 275.141 223.78 275.249 223.705C275.528 223.509 275.596 223.125 275.4 222.843C273.483 220.115 271.375 217.763 269.13 215.855C266.615 213.716 263.909 212.116 261.092 211.101C260.772 210.985 260.416 211.153 260.3 211.473C260.185 211.794 260.352 212.149 260.672 212.265C263.351 213.23 265.927 214.756 268.331 216.798C270.495 218.637 272.535 220.911 274.389 223.555C274.509 223.726 274.701 223.817 274.895 223.817Z" fill="#526DA9"/>
<path d="M161.055 160.197C161.055 160.197 134.594 179.656 124.631 191.867C114.668 204.079 113.843 253.043 118.666 256.9C123.486 260.756 142.126 248.865 142.126 248.865L161.055 160.197Z" fill="#6683C2"/>
<path d="M172.063 190.758C172.063 190.758 177.065 172.887 176.734 166.932C176.36 160.196 175.06 155.913 175.711 153.348C176.362 150.783 185.051 144.266 185.051 144.266L188.305 129.495C188.305 129.495 180.366 128.782 177.387 130.491C172.995 133.013 173.102 139.921 173.102 139.921C173.102 139.921 167.939 137.914 164.679 140.301C161.422 142.691 162.53 148.805 162.53 148.805C162.53 148.805 154.589 151.889 153.119 157.49C152.23 160.882 154.305 164.861 157.129 164.861C159.952 164.861 169.407 170.764 170.06 175.109C170.717 179.455 172.063 190.758 172.063 190.758Z" fill="#F37E60"/>
<path d="M215.129 133.548C215.129 133.548 222.69 126.643 226.958 127.941C231.226 129.239 233.638 132.395 233.638 132.395C233.638 132.395 238.463 129.611 244.217 132.395C249.969 135.179 248.857 138.705 248.857 138.705C248.857 138.705 254.61 137.777 258.508 140.932C262.406 144.086 262.092 150.518 260.122 151.988C258.152 153.457 237.621 152.364 227.262 158.707C210.685 168.86 206.276 196.336 206.276 196.336C206.276 196.336 204.395 178.988 211.634 167.112C218.872 155.235 220.796 149.968 220.796 149.968L217.144 142.66L215.129 133.548Z" fill="#F37E60"/>
<path d="M264.816 297.551C265.101 297.551 265.355 297.355 265.419 297.065C265.492 296.732 265.281 296.402 264.948 296.329C260.688 295.397 254.361 293.229 248.421 288.181C240.498 281.449 237.383 273.07 236.232 268.671C236.145 268.341 235.806 268.142 235.478 268.231C235.147 268.318 234.95 268.655 235.037 268.986C236.226 273.523 239.442 282.173 247.621 289.124C253.756 294.337 260.287 296.577 264.684 297.538C264.727 297.545 264.772 297.551 264.816 297.551Z" fill="#526DA9"/>
<path d="M126.397 291.635C126.566 291.635 126.734 291.567 126.856 291.432C131.482 286.315 135.558 280.707 138.968 274.762C140.801 271.567 142.467 268.229 143.922 264.839C144.057 264.525 143.912 264.161 143.598 264.027C143.284 263.892 142.922 264.037 142.786 264.351C141.349 267.698 139.704 270.992 137.895 274.147C134.528 280.015 130.506 285.55 125.938 290.604C125.709 290.856 125.729 291.248 125.981 291.476C126.101 291.581 126.248 291.635 126.397 291.635Z" fill="#526DA9"/>
<path d="M137.168 211.069C137.168 211.069 136.199 206.385 134.874 203.83C133.549 201.276 128.865 199.163 128.865 199.163C128.865 199.163 129.717 196.379 128.865 193.185C128.013 189.992 121.839 182.541 118.22 181.902C114.601 181.263 99.2746 182.966 94.8037 188.289C90.3329 193.611 90.9716 199.161 90.9716 199.161C90.9716 199.161 86.7137 201.685 86.075 208.929C85.4363 216.174 87.7782 236.825 97.9951 244.487C108.214 252.151 118.66 256.895 118.66 256.895L137.168 211.069Z" fill="#6683C2"/>
<path d="M108.099 218.061C113.417 218.061 118.08 216.629 121.995 213.789C125.13 211.513 127.611 208.456 129.368 204.699C129.512 204.389 129.378 204.023 129.07 203.876C128.76 203.731 128.394 203.864 128.247 204.174C126.579 207.739 124.231 210.637 121.267 212.787C116.823 216.011 111.338 217.313 104.957 216.658C99.9796 216.147 96.2116 214.572 95.7982 214.395C95.4861 214.26 95.1223 214.405 94.9859 214.717C94.8515 215.031 94.9962 215.393 95.3083 215.529C95.7403 215.715 99.6696 217.359 104.829 217.888C105.947 218.006 107.036 218.061 108.099 218.061Z" fill="#526DA9"/>
<path d="M182.274 149.22C182.274 149.22 184.901 145.499 185.564 141.868C186.23 138.236 186.827 132.471 186.827 132.471L216.058 127.19C216.058 127.19 215.942 137.273 216.914 140.593C217.885 143.912 220.789 149.97 220.789 149.97C220.789 149.97 213.059 163.988 196.354 161.744C184.351 160.127 182.274 149.22 182.274 149.22Z" fill="#F9A990"/>
<path d="M184.52 145.153C184.52 145.153 187.536 146.529 191.25 146.542C201.533 146.573 212.887 133.549 212.887 133.549L186.707 136.151C186.707 136.151 186.027 140.107 185.568 141.868C185.109 143.629 184.52 145.153 184.52 145.153Z" fill="#F4947A"/>
<path d="M175.304 71.9296C175.304 71.9296 172.413 78.5108 171.565 85.2449C170.964 90.0278 172.105 98.8517 171.95 101.311C171.797 103.771 169.306 112.578 170.368 117.857C171.431 123.138 180.147 138.841 193.663 139.771C207.179 140.703 217.007 131.499 221.341 123.469C223.402 119.653 223.96 115.85 223.96 115.85C223.96 115.85 231.447 115.263 234.049 110.652C236.507 106.293 236.05 100.371 232.759 98.9963C229.911 97.8058 225.333 101.698 225.333 101.698L224.111 73.885L200.438 66.8057L175.304 71.9296Z" fill="#F9A990"/>
<path d="M174.984 97.5712C174.984 97.5712 172.581 95.0929 170.512 95.0619C168.442 95.0309 166.448 96.9201 165.359 100.091C164.269 103.261 164.72 108.545 167.758 110.612C170.797 112.679 174.137 113.127 174.137 113.127L174.984 97.5712Z" fill="#F9A990"/>
<path d="M224.66 86.3286C224.66 86.3286 222.882 88.1082 222.988 92.6472C223.091 97.1863 225.292 100.727 225.292 100.727L229.168 94.5096L227.467 85.3096L224.66 86.3286Z" fill="#964633"/>
<path d="M135.899 135.496C139.335 137.999 139.932 186.18 137.983 188.759C136.036 191.337 111.64 190.938 109.657 188.759C107.675 186.581 106.594 138.011 108.082 135.641C109.568 133.268 132.462 132.993 135.899 135.496Z" fill="#849ED9"/>
<path d="M133.735 135.496C137.171 137.999 137.768 186.18 135.819 188.759C133.872 191.337 109.475 190.938 107.493 188.759C105.511 186.581 104.43 138.011 105.918 135.641C107.404 133.268 130.3 132.993 133.735 135.496Z" fill="#526DA9"/>
<path d="M95.5542 195.361C94.5662 193.306 94.3512 184.003 95.5542 176.483C96.7572 168.964 99.6364 155.047 103.636 151.688C107.636 148.33 120.914 140.33 122.993 142.089C125.072 143.848 109.006 155.206 109.006 155.206C109.006 155.206 114.994 153.606 121.552 154.406C128.111 155.206 132.166 157.984 131.633 160.196C131.102 162.408 125.353 161.984 125.353 161.984C125.353 161.984 133.867 165.173 133.867 167.407C133.867 169.642 131.738 170.281 130.035 170.281C128.332 170.281 125.564 168.598 125.564 168.598C125.564 168.598 131.31 172.728 129.289 175.07C127.267 177.412 123.01 173.9 123.01 173.9C123.01 173.9 117.05 175.921 116.412 177.732C115.773 179.54 113.853 183.736 114.44 186.246C115.027 188.757 118.793 190.756 118.793 190.756C118.793 190.756 118.322 195.504 114.44 198.697C110.562 201.892 96.5443 197.415 95.5542 195.361Z" fill="#F9A990"/>
<path d="M129.454 149.605C130.901 149.793 131.951 148.757 131.788 147.248C131.55 145.061 131.42 143.931 131.166 141.771C130.99 140.281 129.673 138.974 128.227 138.788C126.78 138.6 125.713 139.658 125.874 141.18C126.11 143.383 126.253 144.51 126.515 146.651C126.697 148.129 128.005 149.419 129.454 149.605Z" fill="#374A76"/>
<path d="M126.491 141.543C126.621 142.726 127.656 143.784 128.795 143.906C129.934 144.028 130.746 143.164 130.61 141.998C130.474 140.832 129.448 139.803 128.316 139.664C127.185 139.526 126.36 140.361 126.491 141.543Z" fill="#F9E8DE"/>
<path d="M126.787 141.577C126.899 142.59 127.787 143.497 128.763 143.602C129.739 143.706 130.435 142.968 130.319 141.967C130.204 140.967 129.323 140.08 128.352 139.962C127.38 139.847 126.675 140.564 126.787 141.577Z" fill="#6683C2"/>
<path d="M127.043 146.262C127.184 147.422 128.209 148.443 129.338 148.579C130.466 148.718 131.281 147.895 131.15 146.719C131.02 145.543 129.987 144.483 128.85 144.361C127.711 144.241 126.903 145.103 127.043 146.262Z" fill="#F9E8DE"/>
<path d="M127.337 146.293C127.457 147.287 128.336 148.167 129.305 148.283C130.274 148.399 130.971 147.692 130.859 146.683C130.746 145.677 129.861 144.767 128.887 144.664C127.91 144.561 127.217 145.299 127.337 146.293Z" fill="#6683C2"/>
<path d="M200.43 87.7925C200.39 86.0976 201.79 84.411 207.856 86.3891C213.923 88.3671 214.506 90.4506 213.704 91.4634C212.594 92.8669 210.109 90.3101 207.951 90.0186C205.791 89.7313 200.467 89.4874 200.43 87.7925Z" fill="#BF6147"/>
<path d="M183.823 86.4053C183.863 84.7104 182.399 82.8336 176.397 85.0018C172.333 86.4714 171.566 89.0531 172.29 89.7372C173.073 90.4793 174.144 88.9228 176.302 88.6335C178.46 88.3441 183.784 88.1002 183.823 86.4053Z" fill="#BF6147"/>
<path d="M205.388 94.1237C203.884 94.0783 202.559 96.3209 202.464 98.208C202.352 100.38 203.826 102.912 205.355 102.921C206.87 102.929 208.251 100.459 208.173 98.3403C208.106 96.4842 206.893 94.1692 205.388 94.1237Z" fill="#544A47"/>
<path d="M179.681 93.322C178.177 93.2765 176.852 95.5191 176.757 97.4063C176.645 99.5786 178.119 102.111 179.648 102.119C181.163 102.127 182.544 99.6572 182.466 97.5385C182.397 95.6824 181.184 93.3674 179.681 93.322Z" fill="#544A47"/>
<path d="M186.729 112.844C189.29 112.844 190.945 111.424 191.016 111.362C191.272 111.137 191.299 110.746 191.074 110.49C190.848 110.234 190.46 110.207 190.201 110.432C190.189 110.443 188.719 111.677 186.545 111.606C185.563 111.575 184.773 111.259 184.261 110.693C183.847 110.236 183.635 109.624 183.674 109.014C183.719 108.345 184.182 107.772 184.769 107.044C185.241 106.462 185.774 105.8 186.169 104.963C187.066 103.053 187.179 97.8135 187.186 97.5923C187.192 97.2513 186.921 96.9681 186.58 96.9619C186.576 96.9619 186.572 96.9619 186.568 96.9619C186.233 96.9619 185.956 97.2306 185.95 97.5675C185.921 99.0082 185.704 103.051 185.05 104.438C184.72 105.141 184.257 105.715 183.808 106.269C183.143 107.094 182.512 107.873 182.442 108.934C182.378 109.876 182.709 110.821 183.345 111.526C183.864 112.098 184.833 112.791 186.506 112.844C186.582 112.842 186.656 112.844 186.729 112.844Z" fill="#F4947A"/>
<path d="M201.355 117.085C200.551 116.467 195.613 118.233 189.924 118.505C184.236 118.778 180.778 116.68 179.864 117.796C178.951 118.913 181.33 128.028 190.592 126.839C200.333 125.587 202.159 117.703 201.355 117.085Z" fill="#F9E8DE"/>
<path d="M201.478 109.198C201.986 106.257 207.249 104.227 211.186 105.637C214.289 106.747 217.102 110.184 216.287 112.764C215.392 115.599 210.376 116.563 206.86 115.347C204.113 114.396 201.046 111.691 201.478 109.198Z" fill="#F4947A"/>
<path d="M171.146 107.123C171.377 106.219 171.708 104.326 171.708 104.326C175.003 104.355 178.787 106.674 178.866 109.376C178.953 112.348 174.534 114.907 170.813 114.917C170.687 114.917 170.557 114.915 170.427 114.909C170.429 114.909 170.393 110.056 171.146 107.123Z" fill="#F4947A"/>
<path d="M191.092 71.0522C191.092 71.0522 197.075 79.2042 204.153 79.2208C211.23 79.2373 211.044 74.6693 211.044 74.6693C211.044 74.6693 213.929 84.0078 220.864 87.0773C227.799 90.1467 235.686 86.1306 235.686 86.1306L235.674 91.3972C235.674 91.3972 240.541 86.7734 241.306 84.076C242.069 81.3787 241.042 77.098 241.042 77.098C241.042 77.098 244.163 74.8926 244.101 71.2299C243.958 62.8071 232.47 57.3772 232.47 57.3772C232.47 57.3772 236.835 57.6976 235.841 55.1594C234.847 52.6212 229.618 49.7812 226.277 48.7973C222.937 47.8135 217.749 47.6502 217.749 47.6502C217.749 47.6502 213.468 41.7304 206.881 42.0467C200.294 42.3629 192.799 46.4327 192.799 46.4327C192.799 46.4327 184.622 38.9214 177.439 41.563C170.257 44.2046 168.975 54.7191 168.975 54.7191C168.975 54.7191 160.087 53.2578 157.613 59.7377C155.139 66.2176 159.608 74.0224 166.125 76.912C172.642 79.8037 178.264 80.0145 181.04 78.2493C183.814 76.4862 191.092 71.0522 191.092 71.0522Z" fill="#BF6147"/>
<path d="M232.373 215.394C232.528 215.394 232.679 215.336 232.795 215.226C232.823 215.2 235.885 212.403 241.085 211.863C246.486 211.303 256.719 211.113 256.823 211.111C257.017 211.107 257.197 211.014 257.311 210.857C257.424 210.7 257.459 210.499 257.404 210.315L250.814 188.34C250.717 188.013 250.372 187.827 250.045 187.926C249.719 188.023 249.533 188.368 249.632 188.695L255.986 209.892C253.437 209.949 245.512 210.16 240.957 210.634C236.25 211.121 233.214 213.283 232.265 214.054L216.497 207.155C216.185 207.016 215.819 207.161 215.682 207.473C215.546 207.785 215.688 208.151 216.001 208.288L232.125 215.342C232.205 215.375 232.29 215.394 232.373 215.394Z" fill="#526DA9"/>
<path d="M263.918 269.443C264.21 269.443 264.468 269.237 264.524 268.941C264.588 268.606 264.369 268.282 264.032 268.218C258.865 267.232 230.093 247.854 225.285 243.966C222.511 241.723 222.04 240.306 222.005 239.661C221.978 239.15 222.203 238.917 222.214 238.906C222.375 238.782 222.441 238.609 222.433 238.406C222.422 238.203 222.292 238.038 222.121 237.931L212.042 231.633C211.753 231.451 211.372 231.54 211.191 231.829C211.009 232.118 211.098 232.501 211.387 232.681L220.942 238.652C220.839 238.904 220.76 239.229 220.769 239.63C220.798 241.161 222.056 242.943 224.51 244.927C229.882 249.274 258.46 268.412 263.803 269.431C263.842 269.441 263.881 269.443 263.918 269.443Z" fill="#526DA9"/>
<path d="M131.361 258.287C131.64 258.287 131.894 258.097 131.96 257.813C132.018 257.574 137.696 233.814 139.038 225.989C140.381 218.147 141.107 201.836 141.113 201.673C141.127 201.332 140.863 201.043 140.522 201.028C140.178 201.012 139.891 201.278 139.877 201.619C139.868 201.783 139.147 218.014 137.818 225.782C136.483 233.566 130.815 257.288 130.757 257.528C130.679 257.861 130.883 258.194 131.214 258.272C131.264 258.283 131.313 258.287 131.361 258.287Z" fill="#526DA9"/>
<path d="M225.004 110.053C225.252 110.053 225.486 109.902 225.581 109.658C226.275 107.868 227.267 106.327 228.53 105.072C229.433 104.175 230.459 103.449 231.575 102.914C231.883 102.767 232.013 102.397 231.864 102.089C231.717 101.781 231.347 101.651 231.039 101.8C229.797 102.395 228.66 103.201 227.658 104.195C226.271 105.572 225.184 107.261 224.427 109.212C224.303 109.53 224.462 109.888 224.781 110.012C224.853 110.041 224.93 110.053 225.004 110.053Z" fill="#F4947A"/>
<path d="M230.996 107.77C231.198 107.77 231.395 107.67 231.513 107.49C231.699 107.205 231.62 106.823 231.333 106.635C230.707 106.226 230.039 105.92 229.346 105.725C228.538 105.498 227.711 105.428 226.893 105.514C226.554 105.55 226.308 105.856 226.343 106.195C226.378 106.534 226.686 106.779 227.023 106.744C227.687 106.674 228.356 106.732 229.014 106.916C229.584 107.075 230.138 107.329 230.657 107.668C230.762 107.736 230.88 107.77 230.996 107.77Z" fill="#F4947A"/>
<path d="M170.433 103.939C170.505 103.939 170.577 103.927 170.648 103.9C170.968 103.782 171.131 103.427 171.011 103.106C170.852 102.674 170.664 102.249 170.457 101.839C169.937 100.812 169.267 99.8613 168.467 99.0098C168.233 98.7617 167.843 98.7493 167.593 98.9829C167.345 99.2165 167.332 99.6071 167.566 99.8572C168.285 100.624 168.889 101.48 169.356 102.402C169.542 102.77 169.709 103.152 169.854 103.538C169.945 103.786 170.181 103.939 170.433 103.939Z" fill="#F4947A"/>
<path d="M192.125 199.753C192.383 199.753 192.623 199.59 192.71 199.331C192.819 199.009 192.643 198.658 192.321 198.548C192.284 198.536 188.51 197.246 185.818 194.706C185.57 194.472 185.18 194.482 184.944 194.73C184.71 194.978 184.721 195.369 184.969 195.605C187.865 198.337 191.763 199.664 191.926 199.72C191.992 199.743 192.058 199.753 192.125 199.753Z" fill="#F4947A"/>
<path d="M190.921 212.612C191.183 212.612 191.425 212.444 191.51 212.182C191.613 211.857 191.433 211.508 191.109 211.405C191.08 211.396 188.205 210.477 187.271 210.102C186.746 209.894 184.776 207.998 183.172 206.289C182.938 206.039 182.548 206.026 182.297 206.26C182.049 206.494 182.035 206.884 182.269 207.134C182.845 207.748 185.77 210.834 186.81 211.25C187.785 211.64 190.611 212.544 190.731 212.583C190.795 212.601 190.859 212.612 190.921 212.612Z" fill="#F4947A"/>
<path d="M189.511 205.982C189.703 205.982 189.891 205.893 190.011 205.728C190.212 205.451 190.15 205.064 189.875 204.864L183.085 199.936C182.808 199.736 182.421 199.798 182.221 200.073C182.02 200.35 182.082 200.736 182.357 200.937L189.147 205.864C189.259 205.943 189.385 205.982 189.511 205.982Z" fill="#F4947A"/>
<path d="M125.566 169.22C125.783 169.22 125.994 169.106 126.105 168.903C126.271 168.606 126.165 168.23 125.868 168.062C125.291 167.74 120.184 164.912 118.617 164.776C118.142 164.734 117.172 164.858 114.241 166.402C112.689 167.221 111.298 168.066 111.285 168.075C110.994 168.252 110.901 168.633 111.079 168.924C111.256 169.216 111.637 169.309 111.928 169.131C115.585 166.901 117.972 165.96 118.509 166.008C119.491 166.092 123.175 167.975 125.266 169.143C125.361 169.193 125.465 169.22 125.566 169.22Z" fill="#F4947A"/>
<path d="M107.096 164.204C107.187 164.204 107.28 164.183 107.369 164.139C110.362 162.668 115.48 160.316 116.464 160.272C117.437 160.233 121.648 161.746 124.066 162.713C124.384 162.839 124.742 162.686 124.87 162.368C124.996 162.052 124.843 161.692 124.525 161.564C123.87 161.302 118.148 159.036 116.48 159.036C116.455 159.036 116.433 159.036 116.41 159.038C114.876 159.104 108.154 162.376 106.823 163.032C106.517 163.182 106.391 163.552 106.542 163.858C106.65 164.077 106.869 164.204 107.096 164.204Z" fill="#F4947A"/>
<path d="M226.905 152.601C227.104 152.601 227.3 152.506 227.418 152.328C228.823 150.239 232.862 145.214 240.002 143.709C241.758 143.339 243.586 143.207 245.436 143.314C245.77 143.335 246.068 143.074 246.089 142.733C246.109 142.392 245.849 142.101 245.508 142.08C243.548 141.965 241.61 142.105 239.745 142.498C232.164 144.098 227.881 149.422 226.391 151.636C226.201 151.919 226.275 152.303 226.558 152.494C226.668 152.568 226.788 152.601 226.905 152.601Z" fill="#DA7156"/>
<path d="M225.043 143.914C225.339 143.914 225.599 143.701 225.651 143.401C226.112 140.718 227.238 138.267 228.913 136.309C229.632 135.466 230.461 134.707 231.372 134.05C231.649 133.85 231.711 133.465 231.513 133.188C231.314 132.911 230.928 132.849 230.651 133.048C229.659 133.763 228.76 134.59 227.974 135.507C226.155 137.634 224.932 140.29 224.434 143.192C224.376 143.529 224.601 143.847 224.938 143.905C224.973 143.912 225.008 143.914 225.043 143.914Z" fill="#DA7156"/>
<path d="M175.552 166.665C175.641 166.665 175.731 166.646 175.816 166.605C176.124 166.458 176.254 166.09 176.108 165.782C175.262 164.009 174.28 162.287 173.187 160.66C171.261 157.797 168.958 155.181 166.341 152.886C166.085 152.661 165.694 152.686 165.469 152.942C165.244 153.198 165.269 153.589 165.527 153.814C168.063 156.041 170.295 158.575 172.162 161.351C173.222 162.926 174.175 164.596 174.994 166.313C175.101 166.534 175.322 166.665 175.552 166.665Z" fill="#DA7156"/>
</g>
<g clip-path="url(#clip1_1274_5214)">
<path d="M50.8823 148.606C53.9707 142.444 51.4793 134.945 45.3176 131.857C39.1559 128.768 31.6571 131.26 28.5687 137.421C25.4802 143.583 27.9716 151.082 34.1333 154.17C40.2951 157.259 47.7938 154.767 50.8823 148.606Z" fill="#F37E60"/>
<path d="M39.7263 149.859C38.3475 149.859 37.192 148.829 37.0314 147.462L36.9805 147.023H42.4721L42.4212 147.462C42.2645 148.829 41.1051 149.859 39.7263 149.859ZM37.9127 147.807C38.183 148.555 38.8998 149.076 39.7263 149.076C40.5528 149.076 41.2696 148.555 41.5399 147.807H37.9127Z" fill="white"/>
<path d="M44.5499 145.212H34.9102V140.786C34.9102 138.232 36.9862 136.156 39.5362 136.156H39.92C42.47 136.156 44.5499 138.232 44.5499 140.786V145.212ZM35.6936 144.429H43.7665V140.786C43.7665 138.667 42.043 136.94 39.92 136.94H39.5362C37.417 136.94 35.6936 138.663 35.6936 140.786V144.429Z" fill="white"/>
<path d="M44.1578 147.807H35.2936C34.3926 147.807 33.6602 147.075 33.6602 146.174V146.06C33.6602 145.159 34.3926 144.427 35.2936 144.427H44.1539C45.0548 144.427 45.7873 145.159 45.7873 146.06V146.174C45.7873 147.075 45.0548 147.807 44.1578 147.807ZM35.2975 145.214C34.8274 145.214 34.4475 145.594 34.4475 146.064V146.178C34.4475 146.644 34.8274 147.028 35.2975 147.028H44.1578C44.6239 147.028 45.0078 146.648 45.0078 146.178V146.064C45.0078 145.598 44.6278 145.214 44.1578 145.214H35.2975Z" fill="white"/>
</g>
<path d="M6.59631 97.4189H118.477C122.69 97.4189 126.109 100.838 126.109 105.052V114.538V126.467C126.109 127.738 124.559 128.366 123.681 127.45L116.109 119.591C115.436 118.887 114.505 118.494 113.529 118.494C113.529 118.494 10.2424 118.494 6.59631 118.494C2.95016 118.494 -3.05176e-05 115.461 -3.05176e-05 111.814V103.263C-3.05176e-05 99.6245 2.95016 97.4189 6.59631 97.4189Z" fill="#6683C2"/>
<path d="M10.0485 111.472V103.9H12.9927C13.4869 103.9 13.914 103.984 14.2741 104.154C14.6413 104.316 14.9237 104.546 15.1214 104.842C15.3261 105.139 15.4285 105.488 15.4285 105.891C15.4285 106.258 15.3261 106.586 15.1214 106.875C14.9237 107.158 14.6413 107.38 14.2741 107.543C13.914 107.698 13.4869 107.776 12.9927 107.776H11.1711V107.257H13.1833C13.6987 107.257 14.147 107.341 14.5283 107.511C14.9166 107.68 15.2167 107.92 15.4285 108.231C15.6473 108.535 15.7568 108.898 15.7568 109.322C15.7568 109.752 15.6473 110.13 15.4285 110.455C15.2167 110.78 14.9166 111.03 14.5283 111.207C14.147 111.383 13.6987 111.472 13.1833 111.472H10.0485ZM11.0652 110.593H13.1939C13.6669 110.593 14.0376 110.48 14.3059 110.254C14.5812 110.028 14.7189 109.71 14.7189 109.301C14.7189 108.891 14.5812 108.573 14.3059 108.348C14.0376 108.122 13.6669 108.009 13.1939 108.009H10.9593V107.151H12.9715C13.4092 107.151 13.7552 107.045 14.0094 106.833C14.2635 106.614 14.3906 106.318 14.3906 105.943C14.3906 105.583 14.2635 105.301 14.0094 105.096C13.7552 104.884 13.4092 104.779 12.9715 104.779H11.0652V110.593ZM17.0773 111.472V106.219H18.0516V111.323L17.395 110.656H19.566C19.8979 110.656 20.152 110.579 20.3285 110.423C20.5051 110.261 20.5933 110.038 20.5933 109.756C20.5933 109.481 20.5051 109.269 20.3285 109.121C20.152 108.965 19.8979 108.888 19.566 108.888H17.5538V108.062H19.619C20.212 108.062 20.6921 108.22 21.0593 108.538C21.4264 108.849 21.61 109.251 21.61 109.745C21.61 110.084 21.5217 110.384 21.3452 110.646C21.1758 110.9 20.9393 111.101 20.6357 111.249C20.3391 111.398 20.0002 111.472 19.619 111.472H17.0773ZM22.2772 111.472V106.219H23.2621V111.472H22.2772ZM24.8753 111.472V106.219H25.8496V111.249L25.5955 110.656H28.3384L28.063 111.249V106.219H29.0374V111.249L28.8361 110.656H31.6002L31.2508 111.249V106.219H32.2251V111.472H24.8753ZM38.2053 109.925L38.8195 110.561C38.5442 110.9 38.2053 111.165 37.8028 111.355C37.4075 111.546 36.9591 111.641 36.4579 111.641C35.886 111.641 35.3776 111.521 34.9328 111.281C34.488 111.041 34.1386 110.713 33.8844 110.296C33.6373 109.873 33.5137 109.389 33.5137 108.845C33.5137 108.302 33.6337 107.822 33.8738 107.405C34.1138 106.981 34.4457 106.65 34.8693 106.409C35.2929 106.169 35.7695 106.049 36.299 106.049C36.8144 106.049 37.2698 106.169 37.6652 106.409C38.0676 106.642 38.3818 106.967 38.6077 107.384C38.8407 107.793 38.9572 108.27 38.9572 108.813V108.877H37.9617V108.782C37.9617 108.4 37.8911 108.069 37.7499 107.786C37.6087 107.497 37.411 107.274 37.1568 107.119C36.9097 106.957 36.6238 106.875 36.299 106.875C35.953 106.875 35.6459 106.957 35.3776 107.119C35.1093 107.281 34.9011 107.511 34.7528 107.807C34.6045 108.097 34.5304 108.439 34.5304 108.835C34.5304 109.23 34.6116 109.58 34.774 109.883C34.9434 110.18 35.1764 110.409 35.4729 110.571C35.7695 110.734 36.1084 110.815 36.4896 110.815C37.1886 110.815 37.7605 110.519 38.2053 109.925ZM38.9572 109.174H34.2445V108.443H38.7878L38.9572 108.813V109.174ZM39.6299 111.472V110.646H40.0323C40.23 110.646 40.3747 110.596 40.4665 110.497C40.5653 110.399 40.6254 110.226 40.6465 109.978L40.9748 106.219H44.8404V111.472H43.8554V106.399L44.5544 107.045H41.1655L41.928 106.399L41.5679 110.148C41.5255 110.642 41.3949 110.988 41.1761 111.186C40.9572 111.376 40.6289 111.472 40.1912 111.472H39.6299ZM52.4679 111.472V106.219H53.4528V111.472H52.4679ZM48.5176 111.472V106.219H49.5025V111.472H48.5176ZM48.9942 109.121V108.305H53.0186V109.121H48.9942ZM57.553 111.641C57.0023 111.641 56.5152 111.521 56.0915 111.281C55.6679 111.041 55.3361 110.713 55.096 110.296C54.856 109.873 54.736 109.389 54.736 108.845C54.736 108.302 54.856 107.822 55.096 107.405C55.3361 106.988 55.6679 106.66 56.0915 106.42C56.5152 106.173 57.0023 106.049 57.553 106.049C58.1037 106.049 58.5874 106.173 59.0039 106.42C59.4275 106.66 59.7594 106.988 59.9994 107.405C60.2465 107.822 60.3701 108.302 60.3701 108.845C60.3701 109.389 60.2465 109.873 59.9994 110.296C59.7594 110.713 59.4275 111.041 59.0039 111.281C58.5874 111.521 58.1037 111.641 57.553 111.641ZM57.553 110.794C57.906 110.794 58.2167 110.713 58.485 110.55C58.7533 110.388 58.9615 110.158 59.1098 109.862C59.2581 109.565 59.3322 109.227 59.3322 108.845C59.3322 108.464 59.2581 108.129 59.1098 107.839C58.9615 107.543 58.7533 107.313 58.485 107.151C58.2167 106.981 57.906 106.897 57.553 106.897C57.2 106.897 56.8858 106.981 56.6105 107.151C56.3422 107.313 56.1339 107.543 55.9856 107.839C55.8374 108.129 55.7632 108.464 55.7632 108.845C55.7632 109.227 55.8374 109.565 55.9856 109.862C56.1339 110.158 56.3422 110.388 56.6105 110.55C56.8858 110.713 57.2 110.794 57.553 110.794ZM61.6419 111.472V106.219H64.3213C64.872 106.219 65.3062 106.346 65.6239 106.6C65.9487 106.854 66.1111 107.193 66.1111 107.617C66.1111 107.885 66.0299 108.118 65.8675 108.316C65.7122 108.513 65.5004 108.665 65.2321 108.771L65.2215 108.676C65.5533 108.768 65.8251 108.923 66.0369 109.142C66.2488 109.361 66.3547 109.629 66.3547 109.947C66.3547 110.243 66.2664 110.508 66.0899 110.741C65.9134 110.974 65.6769 111.154 65.3803 111.281C65.0838 111.408 64.752 111.472 64.3848 111.472H61.6419ZM62.5845 111.239L62.0338 110.699H64.3107C64.6355 110.699 64.8897 110.632 65.0732 110.497C65.2568 110.356 65.3486 110.158 65.3486 109.904C65.3486 109.657 65.2568 109.467 65.0732 109.332C64.8897 109.191 64.6355 109.121 64.3107 109.121H62.1503V108.379H64.2578C64.5684 108.379 64.7873 108.316 64.9144 108.189C65.0414 108.062 65.105 107.885 65.105 107.659C65.105 107.44 65.0379 107.278 64.9038 107.172C64.7767 107.059 64.5613 107.003 64.2578 107.003H62.0232L62.5845 106.441V111.239ZM67.4853 111.472V106.219H68.4596V111.323L67.803 110.656H69.974C70.3059 110.656 70.56 110.579 70.7365 110.423C70.913 110.261 71.0013 110.038 71.0013 109.756C71.0013 109.481 70.913 109.269 70.7365 109.121C70.56 108.965 70.3059 108.888 69.974 108.888H67.9618V108.062H70.027C70.62 108.062 71.1001 108.22 71.4673 108.538C71.8344 108.849 72.018 109.251 72.018 109.745C72.018 110.084 71.9297 110.384 71.7532 110.646C71.5838 110.9 71.3473 111.101 71.0437 111.249C70.7471 111.398 70.4082 111.472 70.027 111.472H67.4853ZM72.6852 111.472V106.219H73.6701V111.472H72.6852ZM75.2833 111.472V106.219H76.247V110.18L76.1729 110.158L79.3183 106.219H80.1761V111.472H79.2124V107.511L79.2971 107.543L76.1411 111.472H75.2833ZM77.7932 105.276C77.3061 105.276 76.9001 105.153 76.5753 104.906C76.2506 104.651 76.0599 104.295 76.0035 103.836H76.8401C76.8825 104.133 76.9848 104.348 77.1472 104.482C77.3167 104.616 77.532 104.683 77.7932 104.683C78.0545 104.683 78.2663 104.616 78.4287 104.482C78.5981 104.348 78.704 104.133 78.7464 103.836H79.583C79.5265 104.295 79.3359 104.651 79.0111 104.906C78.6864 105.153 78.2804 105.276 77.7932 105.276ZM87.4363 111.472L84.5663 108.75H84.6722L87.2669 106.219H88.5271L85.7101 108.962L85.5089 108.411L88.7813 111.472H87.4363ZM83.8674 111.472V106.219H84.8523V111.472H83.8674ZM93.5866 106.219H94.5926L91.9768 112.308C91.8144 112.697 91.6061 112.997 91.352 113.209C91.1049 113.42 90.7483 113.526 90.2823 113.526H89.7105V112.7H90.2612C90.48 112.7 90.6601 112.644 90.8013 112.531C90.9495 112.425 91.0696 112.266 91.1613 112.054L91.3837 111.493L89.1174 106.219H90.1658L92.0615 110.932H91.6803L93.5866 106.219ZM96.5803 113.526H95.5954V106.219H96.5698V107.829H96.3474C96.4038 107.483 96.5344 107.175 96.7392 106.907C96.951 106.639 97.2122 106.431 97.5229 106.282C97.8406 106.127 98.1866 106.049 98.5608 106.049C99.0691 106.049 99.521 106.173 99.9163 106.42C100.312 106.66 100.622 106.992 100.848 107.416C101.074 107.832 101.187 108.309 101.187 108.845C101.187 109.389 101.071 109.873 100.838 110.296C100.612 110.713 100.294 111.041 99.8846 111.281C99.4821 111.521 99.0232 111.641 98.5078 111.641C98.0348 111.641 97.6253 111.546 97.2793 111.355C96.9334 111.157 96.6721 110.893 96.4956 110.561C96.3191 110.222 96.2485 109.844 96.2838 109.428L96.485 109.227C96.5133 109.53 96.6121 109.802 96.7816 110.042C96.9581 110.282 97.1805 110.469 97.4488 110.603C97.7241 110.73 98.0206 110.794 98.3384 110.794C98.7055 110.794 99.0232 110.713 99.2915 110.55C99.5598 110.381 99.7716 110.148 99.9269 109.851C100.082 109.555 100.16 109.219 100.16 108.845C100.16 108.471 100.086 108.139 99.9375 107.85C99.7892 107.553 99.5845 107.32 99.3233 107.151C99.062 106.981 98.7549 106.897 98.4019 106.897C98.0489 106.897 97.7347 106.985 97.4593 107.161C97.1911 107.331 96.9757 107.571 96.8133 107.882C96.658 108.192 96.5803 108.552 96.5803 108.962V113.526ZM106.476 109.978L107.143 110.614C106.889 110.932 106.575 111.182 106.201 111.366C105.827 111.549 105.403 111.641 104.93 111.641C104.393 111.641 103.913 111.521 103.49 111.281C103.073 111.041 102.745 110.713 102.505 110.296C102.265 109.873 102.145 109.389 102.145 108.845C102.145 108.309 102.265 107.832 102.505 107.416C102.745 106.992 103.077 106.66 103.5 106.42C103.931 106.173 104.415 106.049 104.951 106.049C105.417 106.049 105.834 106.141 106.201 106.325C106.575 106.508 106.889 106.759 107.143 107.077L106.476 107.712C106.314 107.465 106.109 107.267 105.862 107.119C105.615 106.971 105.318 106.897 104.972 106.897C104.619 106.897 104.305 106.981 104.03 107.151C103.762 107.313 103.55 107.543 103.394 107.839C103.246 108.129 103.172 108.464 103.172 108.845C103.172 109.227 103.246 109.565 103.394 109.862C103.55 110.151 103.762 110.381 104.03 110.55C104.305 110.713 104.619 110.794 104.972 110.794C105.325 110.794 105.622 110.72 105.862 110.571C106.109 110.423 106.314 110.226 106.476 109.978ZM109.439 110.9C109.439 111.083 109.372 111.242 109.238 111.376C109.104 111.511 108.941 111.578 108.751 111.578C108.567 111.578 108.408 111.511 108.274 111.376C108.14 111.242 108.073 111.083 108.073 110.9C108.073 110.709 108.14 110.55 108.274 110.423C108.408 110.289 108.567 110.222 108.751 110.222C108.941 110.222 109.104 110.289 109.238 110.423C109.372 110.55 109.439 110.709 109.439 110.9ZM109.026 109.248H108.475C108.468 109.121 108.454 108.919 108.433 108.644C108.419 108.369 108.398 108.051 108.369 107.691C108.348 107.331 108.327 106.964 108.306 106.589C108.285 106.208 108.263 105.852 108.242 105.52C108.221 105.181 108.203 104.902 108.189 104.683C108.182 104.457 108.179 104.327 108.179 104.291C108.179 104.129 108.232 103.995 108.338 103.889C108.451 103.783 108.588 103.73 108.751 103.73C108.913 103.73 109.051 103.783 109.164 103.889C109.277 103.995 109.333 104.129 109.333 104.291C109.333 104.327 109.326 104.457 109.312 104.683C109.298 104.902 109.28 105.181 109.259 105.52C109.245 105.852 109.224 106.208 109.195 106.589C109.174 106.964 109.153 107.331 109.132 107.691C109.111 108.051 109.089 108.369 109.068 108.644C109.054 108.919 109.04 109.121 109.026 109.248Z" fill="white"/>
<path d="M124.079 108.056C128.688 108.056 132.425 104.32 132.425 99.7113C132.425 95.1024 128.688 91.3662 124.079 91.3662C119.471 91.3662 115.734 95.1024 115.734 99.7113C115.734 104.32 119.471 108.056 124.079 108.056Z" fill="#F37E60"/>
<path d="M125.043 103.614H123.893V96.6769L122.727 97.3915V96.204L123.893 95.4248H125.043V103.614Z" fill="white"/>
<path d="M39.4216 179.214C41.9283 179.214 43.9603 177.182 43.9603 174.675C43.9603 172.169 41.9283 170.137 39.4216 170.137C36.9149 170.137 34.8828 172.169 34.8828 174.675C34.8828 177.182 36.9149 179.214 39.4216 179.214Z" fill="#6683C2"/>
<path d="M137.114 39.3213H42.6327C38.4192 39.3213 35 42.7405 35 46.954V76.8644V88.7938C35 90.0646 36.5507 90.6925 37.4282 89.7772L45.0004 81.9175C45.6736 81.214 46.6041 80.8207 47.5799 80.8207C47.5799 80.8207 133.468 80.8207 137.114 80.8207C140.761 80.8207 143.711 77.7873 143.711 74.1411V45.9176C143.711 42.279 140.761 39.3213 137.114 39.3213Z" fill="#6683C2"/>
<path d="M50.0935 50.6474H45.8573V49.7684H50.0935V50.6474ZM51.5762 52.6172H50.4959L47.7954 45.7016H48.1766L45.4761 52.6172H44.4382L47.4459 45.045H48.5579L51.5762 52.6172ZM56.3017 52.6172L53.4317 49.8954H53.5376L56.1323 47.3643H57.3925L54.5755 50.1073L54.3743 49.5566L57.6467 52.6172H56.3017ZM52.7327 52.6172V47.3643H53.7177V52.6172H52.7327ZM58.5864 52.6172V47.3643H59.5714V52.4477L58.7877 51.8017H62.8226L62.2507 52.4477V47.3643H63.2356V52.6172H58.5864ZM63.045 54.0045V51.8017H63.977V54.0045H63.045ZM65.2882 52.6172V47.3643H66.2519V51.3252L66.1778 51.304L69.3232 47.3643H70.181V52.6172H69.2173V48.6564L69.302 48.6881L66.146 52.6172H65.2882ZM75.1822 52.6172V47.5126L75.807 48.1586H73.7207C73.4453 48.1586 73.2053 48.2257 73.0005 48.3598C72.7958 48.4869 72.6934 48.6987 72.6934 48.9953C72.6934 49.2635 72.7852 49.4718 72.9688 49.6201C73.1523 49.7684 73.4065 49.8425 73.7313 49.8425H75.6481V50.605H73.6677C73.0747 50.605 72.5981 50.4603 72.238 50.1708C71.8779 49.8743 71.6979 49.4824 71.6979 48.9953C71.6979 48.6846 71.7826 48.4093 71.9521 48.1692C72.1286 47.9221 72.3651 47.7279 72.6616 47.5867C72.9652 47.4385 73.3041 47.3643 73.6783 47.3643H76.1247V52.6172H75.1822ZM71.4543 52.6172L73.3288 50.2237H74.3773L72.5981 52.6172H71.4543ZM81.1537 52.6172V47.6715H82.1386V52.6172H81.1537ZM79.258 48.1904V47.3643H84.0237V48.1904H79.258ZM87.3651 52.7866C86.8144 52.7866 86.3273 52.6666 85.9036 52.4266C85.48 52.1865 85.1482 51.8582 84.9081 51.4416C84.6681 51.018 84.5481 50.5344 84.5481 49.9908C84.5481 49.4471 84.6681 48.967 84.9081 48.5505C85.1482 48.1339 85.48 47.8056 85.9036 47.5655C86.3273 47.3184 86.8144 47.1949 87.3651 47.1949C87.9158 47.1949 88.3995 47.3184 88.816 47.5655C89.2396 47.8056 89.5715 48.1339 89.8115 48.5505C90.0586 48.967 90.1822 49.4471 90.1822 49.9908C90.1822 50.5344 90.0586 51.018 89.8115 51.4416C89.5715 51.8582 89.2396 52.1865 88.816 52.4266C88.3995 52.6666 87.9158 52.7866 87.3651 52.7866ZM87.3651 51.9394C87.7181 51.9394 88.0288 51.8582 88.2971 51.6958C88.5654 51.5334 88.7737 51.304 88.9219 51.0074C89.0702 50.7109 89.1443 50.372 89.1443 49.9908C89.1443 49.6095 89.0702 49.2741 88.9219 48.9847C88.7737 48.6881 88.5654 48.4587 88.2971 48.2963C88.0288 48.1268 87.7181 48.0421 87.3651 48.0421C87.0121 48.0421 86.6979 48.1268 86.4226 48.2963C86.1543 48.4587 85.946 48.6881 85.7977 48.9847C85.6495 49.2741 85.5753 49.6095 85.5753 49.9908C85.5753 50.372 85.6495 50.7109 85.7977 51.0074C85.946 51.304 86.1543 51.5334 86.4226 51.6958C86.6979 51.8582 87.0121 51.9394 87.3651 51.9394ZM90.8504 52.6172V51.7911H91.2528C91.4505 51.7911 91.5952 51.7417 91.687 51.6429C91.7859 51.544 91.8459 51.371 91.8671 51.1239L92.1954 47.3643H96.0609V52.6172H95.076V47.5444L95.7749 48.1904H92.386L93.1485 47.5444L92.7884 51.2934C92.7461 51.7876 92.6154 52.1336 92.3966 52.3312C92.1777 52.5219 91.8494 52.6172 91.4117 52.6172H90.8504ZM97.6697 52.6172V47.3643H98.644V52.4689L97.998 51.8017H100.18C100.504 51.8017 100.755 51.7241 100.932 51.5687C101.115 51.4063 101.207 51.1839 101.207 50.9015C101.207 50.6262 101.115 50.4144 100.932 50.2661C100.755 50.1108 100.504 50.0331 100.18 50.0331H98.1569V49.2071H100.222C100.822 49.2071 101.302 49.3659 101.662 49.6836C102.029 49.9943 102.213 50.3967 102.213 50.8909C102.213 51.2298 102.128 51.5299 101.959 51.7911C101.789 52.0453 101.553 52.2465 101.249 52.3948C100.953 52.5431 100.61 52.6172 100.222 52.6172H97.6697ZM106.844 52.6172L103.974 49.8954H104.08L106.675 47.3643H107.935L105.118 50.1073L104.917 49.5566L108.189 52.6172H106.844ZM103.275 52.6172V47.3643H104.26V52.6172H103.275ZM111.194 52.7866C110.643 52.7866 110.156 52.6666 109.732 52.4266C109.309 52.1865 108.977 51.8582 108.737 51.4416C108.497 51.018 108.377 50.5344 108.377 49.9908C108.377 49.4471 108.497 48.967 108.737 48.5505C108.977 48.1339 109.309 47.8056 109.732 47.5655C110.156 47.3184 110.643 47.1949 111.194 47.1949C111.744 47.1949 112.228 47.3184 112.644 47.5655C113.068 47.8056 113.4 48.1339 113.64 48.5505C113.887 48.967 114.011 49.4471 114.011 49.9908C114.011 50.5344 113.887 51.018 113.64 51.4416C113.4 51.8582 113.068 52.1865 112.644 52.4266C112.228 52.6666 111.744 52.7866 111.194 52.7866ZM111.194 51.9394C111.547 51.9394 111.857 51.8582 112.126 51.6958C112.394 51.5334 112.602 51.304 112.75 51.0074C112.899 50.7109 112.973 50.372 112.973 49.9908C112.973 49.6095 112.899 49.2741 112.75 48.9847C112.602 48.6881 112.394 48.4587 112.126 48.2963C111.857 48.1268 111.547 48.0421 111.194 48.0421C110.841 48.0421 110.526 48.1268 110.251 48.2963C109.983 48.4587 109.774 48.6881 109.626 48.9847C109.478 49.2741 109.404 49.6095 109.404 49.9908C109.404 50.372 109.478 50.7109 109.626 51.0074C109.774 51.304 109.983 51.5334 110.251 51.6958C110.526 51.8582 110.841 51.9394 111.194 51.9394ZM44.5335 63.2571V62.8017H44.7241C44.8724 62.8017 44.9854 62.77 45.063 62.7064C45.1478 62.6429 45.2148 62.537 45.2643 62.3887C45.3137 62.2334 45.3525 62.018 45.3807 61.7427L45.762 58.3643H49.5428V63.13H48.5685V58.5444L49.2568 59.1904H45.9209L46.7046 58.5444L46.3021 61.8168C46.2598 62.1769 46.1892 62.4628 46.0903 62.6746C45.9985 62.8794 45.8608 63.0277 45.6773 63.1194C45.4937 63.2112 45.2431 63.2571 44.9254 63.2571H44.5335ZM44.3005 65.0045V62.8017H50.3265V65.0045H49.3945V62.9924L50.0088 63.6172H44.8618L45.2325 62.9924V65.0045H44.3005ZM50.826 63.6172V62.7911H51.2284C51.4261 62.7911 51.5708 62.7417 51.6626 62.6429C51.7615 62.544 51.8215 62.371 51.8427 62.1239L52.171 58.3643H56.0365V63.6172H55.0516V58.5444L55.7505 59.1904H52.3616L53.1241 58.5444L52.764 62.2934C52.7217 62.7876 52.591 63.1336 52.3722 63.3312C52.1533 63.5219 51.825 63.6172 51.3873 63.6172H50.826ZM61.0236 63.6172V58.5126L61.6485 59.1586H59.5622C59.2868 59.1586 59.0468 59.2257 58.842 59.3598C58.6373 59.4869 58.5349 59.6987 58.5349 59.9953C58.5349 60.2635 58.6267 60.4718 58.8102 60.6201C58.9938 60.7684 59.248 60.8425 59.5728 60.8425H61.4896V61.605H59.5092C58.9162 61.605 58.4396 61.4603 58.0795 61.1708C57.7194 60.8743 57.5394 60.4824 57.5394 59.9953C57.5394 59.6846 57.6241 59.4093 57.7936 59.1692C57.9701 58.9221 58.2066 58.7279 58.5031 58.5867C58.8067 58.4385 59.1456 58.3643 59.5198 58.3643H61.9662V63.6172H61.0236ZM57.2958 63.6172L59.1703 61.2237H60.2188L58.4396 63.6172H57.2958ZM65.6502 63.6172V58.3643H70.3947V63.6172H69.4098V58.5444L70.1088 59.1904H65.8514L66.6351 58.5444V63.6172H65.6502ZM74.4994 63.7866C73.9487 63.7866 73.4615 63.6666 73.0379 63.4266C72.6143 63.1865 72.2825 62.8582 72.0424 62.4416C71.8024 62.018 71.6823 61.5344 71.6823 60.9908C71.6823 60.4471 71.8024 59.967 72.0424 59.5505C72.2825 59.1339 72.6143 58.8056 73.0379 58.5655C73.4615 58.3184 73.9487 58.1949 74.4994 58.1949C75.0501 58.1949 75.5337 58.3184 75.9503 58.5655C76.3739 58.8056 76.7057 59.1339 76.9458 59.5505C77.1929 59.967 77.3165 60.4471 77.3165 60.9908C77.3165 61.5344 77.1929 62.018 76.9458 62.4416C76.7057 62.8582 76.3739 63.1865 75.9503 63.4266C75.5337 63.6666 75.0501 63.7866 74.4994 63.7866ZM74.4994 62.9394C74.8524 62.9394 75.1631 62.8582 75.4314 62.6958C75.6996 62.5334 75.9079 62.304 76.0562 62.0074C76.2045 61.7109 76.2786 61.372 76.2786 60.9908C76.2786 60.6095 76.2045 60.2741 76.0562 59.9847C75.9079 59.6881 75.6996 59.4587 75.4314 59.2963C75.1631 59.1268 74.8524 59.0421 74.4994 59.0421C74.1464 59.0421 73.8322 59.1268 73.5569 59.2963C73.2886 59.4587 73.0803 59.6881 72.932 59.9847C72.7837 60.2741 72.7096 60.6095 72.7096 60.9908C72.7096 61.372 72.7837 61.7109 72.932 62.0074C73.0803 62.304 73.2886 62.5334 73.5569 62.6958C73.8322 62.8582 74.1464 62.9394 74.4994 62.9394ZM77.9906 63.2571V62.8017H78.1812C78.3295 62.8017 78.4425 62.77 78.5201 62.7064C78.6048 62.6429 78.6719 62.537 78.7213 62.3887C78.7708 62.2334 78.8096 62.018 78.8378 61.7427L79.2191 58.3643H82.9999V63.13H82.0256V58.5444L82.7139 59.1904H79.3779L80.1616 58.5444L79.7592 61.8168C79.7168 62.1769 79.6462 62.4628 79.5474 62.6746C79.4556 62.8794 79.3179 63.0277 79.1344 63.1194C78.9508 63.2112 78.7002 63.2571 78.3824 63.2571H77.9906ZM77.7576 65.0045V62.8017H83.7836V65.0045H82.8516V62.9924L83.4659 63.6172H78.3189L78.6896 62.9924V65.0045H77.7576ZM85.0936 63.6172V58.3643H89.8381V63.6172H88.8532V58.5444L89.5521 59.1904H85.2948L86.0785 58.5444V63.6172H85.0936ZM91.454 63.6172V58.3643H92.4178V62.3252L92.3436 62.304L95.489 58.3643H96.3468V63.6172H95.3831V59.6564L95.4678 59.6881L92.3119 63.6172H91.454ZM101.973 62.1239L102.64 62.7594C102.386 63.0771 102.072 63.3277 101.697 63.5113C101.323 63.6949 100.9 63.7866 100.427 63.7866C99.89 63.7866 99.4099 63.6666 98.9863 63.4266C98.5698 63.1865 98.2414 62.8582 98.0014 62.4416C97.7613 62.018 97.6413 61.5344 97.6413 60.9908C97.6413 60.4542 97.7613 59.9776 98.0014 59.5611C98.2414 59.1374 98.5733 58.8056 98.9969 58.5655C99.4276 58.3184 99.9112 58.1949 100.448 58.1949C100.914 58.1949 101.33 58.2867 101.697 58.4702C102.072 58.6538 102.386 58.9044 102.64 59.2222L101.973 59.8576C101.81 59.6105 101.606 59.4128 101.359 59.2645C101.111 59.1163 100.815 59.0421 100.469 59.0421C100.116 59.0421 99.8018 59.1268 99.5264 59.2963C99.2581 59.4587 99.0463 59.6881 98.891 59.9847C98.7427 60.2741 98.6686 60.6095 98.6686 60.9908C98.6686 61.372 98.7427 61.7109 98.891 62.0074C99.0463 62.2969 99.2581 62.5264 99.5264 62.6958C99.8018 62.8582 100.116 62.9394 100.469 62.9394C100.822 62.9394 101.119 62.8653 101.359 62.717C101.606 62.5687 101.81 62.371 101.973 62.1239ZM105.56 61.9015C104.89 61.9015 104.374 61.725 104.014 61.372C103.661 61.019 103.485 60.5107 103.485 59.847V58.3643H104.47V59.7411C104.47 60.2353 104.583 60.5813 104.808 60.779C105.034 60.9696 105.359 61.0649 105.783 61.0649C106.284 61.0649 106.785 60.8954 107.287 60.5566L107.551 61.2132C107.368 61.3614 107.167 61.4885 106.948 61.5944C106.736 61.6933 106.51 61.7709 106.27 61.8274C106.037 61.8768 105.8 61.9015 105.56 61.9015ZM107.234 63.6172V58.3643H108.219V63.6172H107.234ZM109.843 63.6172V58.3643H110.806V62.3252L110.732 62.304L113.877 58.3643H114.735V63.6172H113.772V59.6564L113.856 59.6881L110.7 63.6172H109.843ZM119.927 63.6172L117.057 60.8954H117.163L119.758 58.3643H121.018L118.201 61.1073L118 60.5566L121.272 63.6172H119.927ZM116.358 63.6172V58.3643H117.343V63.6172H116.358ZM124.277 63.7866C123.726 63.7866 123.239 63.6666 122.815 63.4266C122.391 63.1865 122.06 62.8582 121.82 62.4416C121.579 62.018 121.459 61.5344 121.459 60.9908C121.459 60.4471 121.579 59.967 121.82 59.5505C122.06 59.1339 122.391 58.8056 122.815 58.5655C123.239 58.3184 123.726 58.1949 124.277 58.1949C124.827 58.1949 125.311 58.3184 125.727 58.5655C126.151 58.8056 126.483 59.1339 126.723 59.5505C126.97 59.967 127.094 60.4471 127.094 60.9908C127.094 61.5344 126.97 62.018 126.723 62.4416C126.483 62.8582 126.151 63.1865 125.727 63.4266C125.311 63.6666 124.827 63.7866 124.277 63.7866ZM124.277 62.9394C124.63 62.9394 124.94 62.8582 125.208 62.6958C125.477 62.5334 125.685 62.304 125.833 62.0074C125.982 61.7109 126.056 61.372 126.056 60.9908C126.056 60.6095 125.982 60.2741 125.833 59.9847C125.685 59.6881 125.477 59.4587 125.208 59.2963C124.94 59.1268 124.63 59.0421 124.277 59.0421C123.924 59.0421 123.609 59.1268 123.334 59.2963C123.066 59.4587 122.857 59.6881 122.709 59.9847C122.561 60.2741 122.487 60.6095 122.487 60.9908C122.487 61.372 122.561 61.7109 122.709 62.0074C122.857 62.304 123.066 62.5334 123.334 62.6958C123.609 62.8582 123.924 62.9394 124.277 62.9394ZM128.365 63.6172V58.3643H131.045C131.596 58.3643 132.03 58.4914 132.347 58.7456C132.672 58.9998 132.835 59.3387 132.835 59.7623C132.835 60.0306 132.753 60.2635 132.591 60.4612C132.436 60.6589 132.224 60.8107 131.956 60.9166L131.945 60.8213C132.277 60.9131 132.549 61.0684 132.76 61.2873C132.972 61.5062 133.078 61.7745 133.078 62.0922C133.078 62.3887 132.99 62.6535 132.813 62.8864C132.637 63.1194 132.4 63.2995 132.104 63.4266C131.807 63.5536 131.475 63.6172 131.108 63.6172H128.365ZM129.308 63.3842L128.757 62.8441H131.034C131.359 62.8441 131.613 62.777 131.797 62.6429C131.98 62.5017 132.072 62.304 132.072 62.0498C132.072 61.8027 131.98 61.6121 131.797 61.4779C131.613 61.3367 131.359 61.2661 131.034 61.2661H128.874V60.5248H130.981C131.292 60.5248 131.511 60.4612 131.638 60.3342C131.765 60.2071 131.828 60.0306 131.828 59.8046C131.828 59.5858 131.761 59.4234 131.627 59.3175C131.5 59.2045 131.285 59.148 130.981 59.148H128.747L129.308 58.5867V63.3842ZM44.5335 74.2571V73.8017H44.7241C44.8724 73.8017 44.9854 73.77 45.063 73.7064C45.1478 73.6429 45.2148 73.537 45.2643 73.3887C45.3137 73.2334 45.3525 73.018 45.3807 72.7427L45.762 69.3643H49.5428V74.13H48.5685V69.5444L49.2568 70.1904H45.9209L46.7046 69.5444L46.3021 72.8168C46.2598 73.1769 46.1892 73.4628 46.0903 73.6746C45.9985 73.8794 45.8608 74.0277 45.6773 74.1194C45.4937 74.2112 45.2431 74.2571 44.9254 74.2571H44.5335ZM44.3005 76.0045V73.8017H50.3265V76.0045H49.3945V73.9924L50.0088 74.6172H44.8618L45.2325 73.9924V76.0045H44.3005ZM53.7115 74.7866C53.1608 74.7866 52.6737 74.6666 52.2501 74.4266C51.8264 74.1865 51.4946 73.8582 51.2546 73.4416C51.0145 73.018 50.8945 72.5344 50.8945 71.9908C50.8945 71.4471 51.0145 70.967 51.2546 70.5505C51.4946 70.1339 51.8264 69.8056 52.2501 69.5655C52.6737 69.3184 53.1608 69.1949 53.7115 69.1949C54.2622 69.1949 54.7459 69.3184 55.1624 69.5655C55.586 69.8056 55.9179 70.1339 56.1579 70.5505C56.405 70.967 56.5286 71.4471 56.5286 71.9908C56.5286 72.5344 56.405 73.018 56.1579 73.4416C55.9179 73.8582 55.586 74.1865 55.1624 74.4266C54.7459 74.6666 54.2622 74.7866 53.7115 74.7866ZM53.7115 73.9394C54.0645 73.9394 54.3752 73.8582 54.6435 73.6958C54.9118 73.5334 55.1201 73.304 55.2683 73.0074C55.4166 72.7109 55.4907 72.372 55.4907 71.9908C55.4907 71.6095 55.4166 71.2741 55.2683 70.9847C55.1201 70.6881 54.9118 70.4587 54.6435 70.2963C54.3752 70.1268 54.0645 70.0421 53.7115 70.0421C53.3585 70.0421 53.0443 70.1268 52.769 70.2963C52.5007 70.4587 52.2924 70.6881 52.1441 70.9847C51.9959 71.2741 51.9217 71.6095 51.9217 71.9908C51.9217 72.372 51.9959 72.7109 52.1441 73.0074C52.2924 73.304 52.5007 73.5334 52.769 73.6958C53.0443 73.8582 53.3585 73.9394 53.7115 73.9394ZM59.4347 73.4416L60.123 72.7956C60.3772 73.1486 60.6808 73.4275 61.0338 73.6323C61.3868 73.837 61.7857 73.9394 62.2305 73.9394C62.7459 73.9394 63.159 73.8053 63.4696 73.537C63.7873 73.2616 63.9462 72.9121 63.9462 72.4885C63.9462 72.199 63.8685 71.9519 63.7132 71.7472C63.5579 71.5354 63.3461 71.3765 63.0778 71.2706C62.8095 71.1576 62.5059 71.1012 62.167 71.1012H61.4363V70.2539H62.167C62.4635 70.2539 62.7283 70.201 62.9613 70.0951C63.2013 69.9892 63.3884 69.8444 63.5226 69.6609C63.6638 69.4702 63.7344 69.2514 63.7344 69.0043C63.7344 68.623 63.5967 68.3159 63.3214 68.0829C63.0531 67.8428 62.7001 67.7228 62.2623 67.7228C61.8528 67.7228 61.4892 67.8252 61.1715 68.0299C60.8538 68.2276 60.5749 68.5065 60.3349 68.8666L59.6465 68.2206C59.9854 67.7969 60.3737 67.4686 60.8114 67.2357C61.2562 66.9956 61.7434 66.8756 62.2729 66.8756C62.7671 66.8756 63.1978 66.9674 63.5649 67.1509C63.9391 67.3345 64.2321 67.5851 64.4439 67.9029C64.6558 68.2135 64.7617 68.5665 64.7617 68.9619C64.7617 69.3149 64.6522 69.6326 64.4334 69.915C64.2215 70.1974 63.9215 70.4198 63.5332 70.5822C63.1519 70.7376 62.7106 70.8152 62.2094 70.8152L62.3576 70.4234C62.873 70.4234 63.3284 70.5152 63.7238 70.6987C64.1192 70.8752 64.4263 71.1188 64.6452 71.4295C64.864 71.7401 64.9735 72.1002 64.9735 72.5097C64.9735 72.9404 64.857 73.3287 64.624 73.6746C64.3981 74.0135 64.0803 74.2854 63.6708 74.4901C63.2613 74.6878 62.7883 74.7866 62.2517 74.7866C61.6798 74.7866 61.1539 74.6701 60.6738 74.4372C60.2007 74.1971 59.7877 73.8653 59.4347 73.4416ZM68.9282 74.7866C68.3422 74.7866 67.8338 74.6313 67.4031 74.3207C66.9795 74.0029 66.6548 73.5511 66.4288 72.9651C66.2029 72.372 66.0899 71.6625 66.0899 70.8364C66.0899 69.5867 66.3406 68.6159 66.8419 67.924C67.3502 67.2251 68.0456 66.8756 68.9282 66.8756C69.8178 66.8756 70.5132 67.2251 71.0145 67.924C71.5228 68.6159 71.777 69.5867 71.777 70.8364C71.777 71.6625 71.664 72.372 71.4381 72.9651C71.2122 73.5511 70.8874 74.0029 70.4638 74.3207C70.0402 74.6313 69.5283 74.7866 68.9282 74.7866ZM68.9282 73.9394C69.5071 73.9394 69.9519 73.6746 70.2626 73.1451C70.5803 72.6085 70.7391 71.839 70.7391 70.8364C70.7391 69.8268 70.5803 69.0572 70.2626 68.5277C69.9519 67.9911 69.5071 67.7228 68.9282 67.7228C68.3563 67.7228 67.9115 67.9911 67.5938 68.5277C67.2761 69.0572 67.1172 69.8268 67.1172 70.8364C67.1172 71.839 67.2761 72.6085 67.5938 73.1451C67.9115 73.6746 68.3563 73.9394 68.9282 73.9394ZM76.9952 72.9015C76.3245 72.9015 75.8091 72.725 75.449 72.372C75.096 72.019 74.9195 71.5107 74.9195 70.847V69.3643H75.9044V70.7411C75.9044 71.2353 76.0173 71.5813 76.2433 71.779C76.4692 71.9696 76.794 72.0649 77.2176 72.0649C77.7189 72.0649 78.2201 71.8954 78.7214 71.5566L78.9862 72.2132C78.8026 72.3614 78.6014 72.4885 78.3825 72.5944C78.1707 72.6933 77.9448 72.7709 77.7047 72.8274C77.4718 72.8768 77.2352 72.9015 76.9952 72.9015ZM78.6685 74.6172V69.3643H79.6534V74.6172H78.6685ZM81.2773 74.6172V69.3643H82.241V73.3252L82.1669 73.304L85.3122 69.3643H86.1701V74.6172H85.2063V70.6564L85.2911 70.6881L82.1351 74.6172H81.2773ZM91.7961 73.1239L92.4633 73.7594C92.2091 74.0771 91.8949 74.3277 91.5207 74.5113C91.1465 74.6949 90.7229 74.7866 90.2499 74.7866C89.7133 74.7866 89.2332 74.6666 88.8096 74.4266C88.393 74.1865 88.0647 73.8582 87.8247 73.4416C87.5846 73.018 87.4646 72.5344 87.4646 71.9908C87.4646 71.4542 87.5846 70.9776 87.8247 70.5611C88.0647 70.1374 88.3965 69.8056 88.8202 69.5655C89.2508 69.3184 89.7345 69.1949 90.271 69.1949C90.737 69.1949 91.1536 69.2867 91.5207 69.4702C91.8949 69.6538 92.2091 69.9044 92.4633 70.2222L91.7961 70.8576C91.6337 70.6105 91.4289 70.4128 91.1818 70.2645C90.9347 70.1163 90.6382 70.0421 90.2922 70.0421C89.9392 70.0421 89.625 70.1268 89.3497 70.2963C89.0814 70.4587 88.8696 70.6881 88.7142 70.9847C88.566 71.2741 88.4918 71.6095 88.4918 71.9908C88.4918 72.372 88.566 72.7109 88.7142 73.0074C88.8696 73.2969 89.0814 73.5264 89.3497 73.6958C89.625 73.8582 89.9392 73.9394 90.2922 73.9394C90.6452 73.9394 90.9418 73.8653 91.1818 73.717C91.4289 73.5687 91.6337 73.371 91.7961 73.1239ZM93.0326 74.6172V73.7911H93.435C93.6327 73.7911 93.7774 73.7417 93.8692 73.6429C93.9681 73.544 94.0281 73.371 94.0493 73.1239L94.3776 69.3643H98.2431V74.6172H97.2582V69.5444L97.9571 70.1904H94.5682L95.3307 69.5444L94.9706 73.2934C94.9283 73.7876 94.7977 74.1336 94.5788 74.3312C94.3599 74.5219 94.0316 74.6172 93.5939 74.6172H93.0326ZM104.332 74.6172H103.41V73.5793L103.379 73.3252V71.3659C103.379 70.9494 103.244 70.6211 102.976 70.381C102.708 70.1339 102.344 70.0103 101.885 70.0103C101.553 70.0103 101.25 70.081 100.974 70.2222C100.699 70.3563 100.459 70.5434 100.254 70.7834L99.6401 70.148C99.9296 69.8444 100.261 69.6114 100.636 69.4491C101.017 69.2796 101.44 69.1949 101.906 69.1949C102.387 69.1949 102.807 69.2831 103.167 69.4596C103.534 69.6362 103.82 69.8833 104.025 70.201C104.229 70.5116 104.332 70.8894 104.332 71.3342V74.6172ZM101.472 74.7866C101.077 74.7866 100.727 74.716 100.424 74.5748C100.12 74.4266 99.8837 74.2253 99.7142 73.9712C99.5448 73.717 99.4601 73.4275 99.4601 73.1028C99.4601 72.7356 99.5624 72.425 99.7672 72.1708C99.979 71.9096 100.268 71.7119 100.636 71.5777C101.003 71.4365 101.423 71.3659 101.896 71.3659H103.495V72.0967H102.002C101.557 72.0967 101.19 72.1779 100.9 72.3402C100.618 72.4956 100.477 72.7392 100.477 73.071C100.477 73.3534 100.583 73.5793 100.794 73.7488C101.013 73.9182 101.296 74.0029 101.642 74.0029C101.981 74.0029 102.288 73.9359 102.563 73.8017C102.838 73.6676 103.057 73.4805 103.22 73.2404C103.389 72.9933 103.484 72.7109 103.506 72.3932L103.855 72.5838C103.855 73.0074 103.753 73.3852 103.548 73.717C103.343 74.0488 103.061 74.3101 102.701 74.5007C102.348 74.6913 101.938 74.7866 101.472 74.7866ZM106.88 74.0453C106.88 74.2289 106.813 74.3877 106.679 74.5219C106.545 74.656 106.382 74.7231 106.192 74.7231C106.008 74.7231 105.849 74.656 105.715 74.5219C105.581 74.3877 105.514 74.2289 105.514 74.0453C105.514 73.8547 105.581 73.6958 105.715 73.5687C105.849 73.4346 106.008 73.3675 106.192 73.3675C106.382 73.3675 106.545 73.4346 106.679 73.5687C106.813 73.6958 106.88 73.8547 106.88 74.0453ZM106.467 72.3932H105.916C105.909 72.2661 105.895 72.0649 105.874 71.7895C105.86 71.5142 105.839 71.1965 105.81 70.8364C105.789 70.4763 105.768 70.1092 105.747 69.735C105.726 69.3537 105.704 68.9972 105.683 68.6654C105.662 68.3265 105.644 68.0476 105.63 67.8287C105.623 67.6028 105.62 67.4722 105.62 67.4369C105.62 67.2745 105.673 67.1403 105.779 67.0344C105.891 66.9285 106.029 66.8756 106.192 66.8756C106.354 66.8756 106.492 66.9285 106.605 67.0344C106.718 67.1403 106.774 67.2745 106.774 67.4369C106.774 67.4722 106.767 67.6028 106.753 67.8287C106.739 68.0476 106.721 68.3265 106.7 68.6654C106.686 68.9972 106.665 69.3537 106.636 69.735C106.615 70.1092 106.594 70.4763 106.573 70.8364C106.552 71.1965 106.53 71.5142 106.509 71.7895C106.495 72.0649 106.481 72.2661 106.467 72.3932Z" fill="white"/>
<path d="M142.435 47.6902C147.044 47.6902 150.78 43.954 150.78 39.3451C150.78 34.7362 147.044 31 142.435 31C137.826 31 134.09 34.7362 134.09 39.3451C134.09 43.954 137.826 47.6902 142.435 47.6902Z" fill="#F37E60"/>
<path d="M143.39 43.247H142.24V36.3097L141.074 37.0244V35.8368L142.24 35.0576H143.39V43.247Z" fill="white"/>
<defs>
<clipPath id="clip0_1274_5214">
<rect x="37" y="24" width="253" height="261" rx="126.5" fill="white"/>
</clipPath>
<clipPath id="clip1_1274_5214">
<rect width="24.9632" height="24.9632" fill="white" transform="translate(27.2422 130.528)"/>
</clipPath>
</defs>
</svg>
