<svg width="320" height="247" fill="none" xmlns="http://www.w3.org/2000/svg"><g clip-path="url(#a)"><rect x="42" y="75.965" width="236.803" height="236.803" rx="118.401" fill="#C8D5F3"/><path d="M141.842 91.662h2.939c.84 0 5.038.397 10.077 5.714-2.269 3.523-7.606 5.198-8.397 9.401-1.08-.635-3.003-2.706-4.281-2.744-.059-.54-.035-1.587-.344-2.019-.294-.097-.667-.142-.964-.009-.162.072-.197.111-.323.212-.111.632-.024 1.171.307 1.72.055.09.098.187.146.282-1.338 1.257-2.728.999-2.788 3.575-.025 1.053.48 2.036 1.233 2.75.958.909 2.158 1.335 3.424 1.61.51 1.545.888 3.112 1.218 4.705-.777-.189-1.44-.374-2.15-.756-.639-.345-1.22-.733-1.973-.546-.238.238-.298.289-.269.654.052.647.843 1.337 1.351 1.648 1.065.652 2.253.739 3.469.772.071.445.053 1.016.422 1.317.25.203.523.201.817.155.243-.258.418-.404.431-.788.012-.335-.252-.746-.412-1.035 1.244-.783 2.247-1.501 2.609-3.016.05-.216.095-.432.134-.65-.181-.407-.38-.814-.522-1.236.488.166 1.015.318 1.522.411 3.896.717 6.983-2.621 9.921-4.591.634 2.76-1.41 7.899-2.88 10.252-.771 1.233-1.686 2.361-2.614 3.478-.05.015-.102.026-.151.046-.907.357-1.676 1.306-2.548 1.787-3.858 2.128-9.1 3.184-13.422 2.043-2.025-.402-3.993-1.3-5.719-2.419a17.062 17.062 0 0 1-7.432-10.97c-.881-4.229-.335-8.847 1.937-12.565.746-1.221 1.7-2.279 2.47-3.474l.06-.094c.351-.6 1.053-1.111 1.665-1.411 1.911-1.123 3.448-2.209 5.568-2.96.956-.339 1.96-.688 2.961-.852.698-.115 1.668-.397 2.508-.397Zm-.968 5.118a13.652 13.652 0 0 0-9.064 5.262 12.937 12.937 0 0 0-2.443 9.81c.491 3.308 2.262 6.463 4.973 8.45a11.522 11.522 0 0 0 4.378 2.013c-.459-.548-2.26-1.103-3.014-1.526-4.325-2.428-6.524-7.309-6.081-12.179.3-3.373 1.95-6.482 4.576-8.622 1.698-1.388 3.523-2.129 5.623-2.678.339-.088 1.059-.135 1.153-.468l-.101-.062Z" fill="#F2C45B"/><path d="M138.714 122.316a11.522 11.522 0 0 1-4.378-2.013c-2.711-1.987-4.482-5.142-4.973-8.45a12.937 12.937 0 0 1 2.443-9.81 13.652 13.652 0 0 1 9.064-5.262l.101.063c-.094.332-.814.379-1.153.467-2.1.55-3.925 1.29-5.623 2.678a12.557 12.557 0 0 0-4.576 8.622c-.443 4.87 1.756 9.751 6.081 12.179.754.423 2.555.978 3.014 1.526Z" fill="#331310"/><path d="M131.42 124.621c-1.058-.735-2.064-1.542-2.955-2.474-3.224-3.377-4.862-8.265-4.716-12.891a17.029 17.029 0 0 1 5.389-11.97l-.06.094c-.77 1.195-1.723 2.252-2.47 3.473-2.272 3.718-2.818 8.337-1.937 12.565a17.058 17.058 0 0 0 7.433 10.97c1.725 1.119 3.693 2.017 5.718 2.419l-.354.243c-1.986-.414-3.626-1.086-5.351-2.156-4.109.827-8.108 1.849-12.071 3.228l-.605-.155c3.928-1.389 7.922-2.419 11.979-3.346Z" fill="#5D2E26"/><path d="M142.178 104.033c1.278.037 2.103.479 3.183 1.114-.126.437-.233.893-.393 1.319-.572-.299-1.25-.733-1.915-.593-.225.267-.272.42-.253.775.065 1.169.74 2.778 1.155 3.882l1.635.645a15.216 15.216 0 0 0 2.404 2.202c.142.422.341.83.522 1.237-.04.218-.084.434-.134.649-.362 1.516-1.365 2.233-2.609 3.016.159.289.424.701.412 1.036-.013.384-.188.529-.431.787-.294.046-.567.049-.817-.155-.369-.3-.352-.871-.422-1.316-1.216-.033-2.405-.12-3.469-.772-.508-.311-1.299-1.001-1.351-1.648-.029-.366.03-.416.269-.654.753-.188 1.334.201 1.973.545.71.383 1.373.567 2.15.756-.33-1.592-.708-3.159-1.218-4.705-1.266-.274-2.466-.7-3.424-1.609-.753-.714-1.258-1.697-1.233-2.75.06-2.576 1.45-2.319 2.788-3.576-.048-.094-.091-.191-.146-.281-.331-.549-.418-1.089-.308-1.72.127-.102.162-.141.324-.213.297-.132.67-.087.964.009.309.432.285 1.479.344 2.02Zm-.931 2.096c-.485.531-.756.959-.724 1.701.027.638.374 1.246.854 1.654.206.175.422.312.658.442l.25-.101c-.079-1.156-.539-2.382-.794-3.524l-.244-.172Zm2.968 6.143c.261 1.024.503 3.285 1.209 4.023.337-.002.374-.12.628-.326.325-.602.48-1.286.269-1.958-.217-.691-.78-1.21-1.429-1.495a6.74 6.74 0 0 0-.677-.244Z" fill="#F2C45B"/><path d="M143.96 110.53c-.416-1.104-1.09-2.713-1.155-3.882-.02-.355.028-.508.252-.775.665-.14 1.343.294 1.915.593-.433 1.573-.089 3.266.622 4.709l-1.634-.645ZM142.034 109.928a3.875 3.875 0 0 1-.657-.442c-.48-.408-.828-1.017-.855-1.655-.031-.741.24-1.169.725-1.7l.243.171c.255 1.143.715 2.368.794 3.525l-.25.101ZM146.056 115.971c-.254.206-.291.323-.628.325-.706-.737-.949-2.998-1.209-4.023.228.073.458.147.677.244.649.286 1.212.804 1.429 1.495.211.673.056 1.357-.269 1.959Z" fill="#F2C45B"/><path d="M82.785 125.716c.186-1.879.772-4.056 2.28-5.313 2.546-2.124 7.112-1.634 10.161-1.28 8.719 1.013 15.777 4.47 23.031 9.222l1.183-.381.604.154c-7.512 2.647-14.416 6.123-21.108 10.444l-.1-.328c-1.257-2.256-2.522-4.511-3.923-6.681-1.723-2.669-5.701-8.148-9.03-8.765-.576-.107-1.168-.025-1.64.344-.812.635-1.038 1.693-1.19 2.652l-.268-.068Z" fill="#D8997B"/><path d="M83.056 125.788c.152-.96.379-2.018 1.19-2.653.472-.369 1.064-.45 1.64-.344 3.329.618 7.308 6.097 9.03 8.765 1.401 2.171 2.666 4.426 3.924 6.681-4.856 3.116-9.004 6.859-12.9 11.093-.923-3.325-3.226-16.114-3.073-19.407.27-1.26.126-2.83.189-4.135Z" fill="#BA866D"/><path d="M137.826 126.804c4.322 1.141 9.564.086 13.422-2.042.872-.481 1.64-1.43 2.547-1.788.049-.019.102-.03.152-.045 2.149.128 4.302.241 6.444.466 1.287.135 2.746.484 4.028.439.819-.029 1.735-.57 2.565-.755 3.863-.861 7.714-.296 10.445 2.792.909 1.028 2.419 3.826 3.377 4.413l.07.045-.138.354c.646 1.716 1.525 3.334 2.111 5.075 1.208 3.59 4.425 16.588 3.22 19.814-.007.017-.021.03-.032.045-.572-.683-.489-3.3-.553-4.281-.785-7.68-3.489-21.156-9.786-26.104-.065-.051-.132-.101-.198-.151.522 1.637.998 3.243 1.278 4.944 1.427 8.662.267 20.731-1.184 29.436-.241.211-.098.14-.439.192l-.245-.286c1.382-6.196 2.011-16.725 1.752-23.161-.123-3.027-.342-9.625-2.658-11.652-1.239-1.085-2.952-1.194-4.521-1.086-7.378.504-15.535 7.663-20.152 13.123-1.271 1.504-2.254 3.287-3.54 4.733l-.073.08c-.169-.152-.184-.192-.259-.396.342-1.087 1.237-2.111 1.92-3.002a51.213 51.213 0 0 1 7.221-7.665c1.221-1.055 2.537-2 3.741-3.072-8.209.762-16.392 4.209-23.127 8.864-1.846 1.276-3.472 2.913-5.331 4.125-1.543 1.006-3.314 1.236-5.1.832-.933-.211-2.117-.71-2.624-1.576a1.524 1.524 0 0 1-.153-1.184c.697-2.567 7.866-7.209 10.352-8.616 1.634-.927 3.39-1.644 5.003-2.6l.111-.067.354-.243Z" fill="#8C5E49"/><path d="m145.711 141.41.073-.079c1.287-1.447 2.269-3.23 3.54-4.733 4.618-5.461 12.774-12.619 20.152-13.124 1.569-.107 3.282.002 4.521 1.086 2.316 2.028 2.536 8.626 2.658 11.653.259 6.436-.369 16.964-1.752 23.16-5.599-6.807-16.511-13.637-24.791-16.653-1.417-.516-2.906-1.093-4.401-1.31Z" fill="#BA866D"/><path d="M132.119 124.891c1.725 1.069 3.366 1.741 5.352 2.155l-.111.067c-1.613.956-3.369 1.674-5.004 2.6-2.485 1.408-9.654 6.05-10.351 8.617-.112.399-.057.826.153 1.183.507.867 1.691 1.365 2.624 1.576 1.786.404 3.557.175 5.1-.832 1.859-1.211 3.485-2.849 5.331-4.125 6.735-4.655 14.918-8.102 23.127-8.864-1.204 1.073-2.52 2.017-3.741 3.073a51.206 51.206 0 0 0-7.221 7.664c-.683.892-1.578 1.915-1.92 3.002.075.204.09.245.259.397 1.495.216 2.984.793 4.401 1.309 8.28 3.016 19.192 9.846 24.791 16.653l.245.287c.341-.052.198.018.439-.193.92-.585 1.765-1.736 2.58-2.509 1.921-1.822 4.002-3.686 6.193-5.175.382-.26.653-.534 1.117-.441.064.981-.019 3.598.553 4.282.011-.015.025-.028.032-.045 1.205-3.226-2.012-16.224-3.22-19.814-.586-1.741-1.465-3.359-2.111-5.075 14.815 5.497 28.239 16.054 34.937 30.633a54.35 54.35 0 0 1 1.475 41.316 57.146 57.146 0 0 1-15.74 22.988l-.008 13.574c.008 1.941-.202 4.212.159 6.1-2.566.266-6.109.039-8.778.039h-18.548l.012-7.197c-5.346 1.417-9.923 2.291-15.433 2.887-.019 1.433.009 2.872.014 4.306l-26.864.02.015-4.476c-1.793-.355-3.63-.522-5.433-.838-2.296-.403-4.56-.953-6.836-1.453a70.467 70.467 0 0 1-28.445-14.537c-11.088-9.288-17.51-20.87-18.795-35.311 3.653.236 7.372-.01 10.656-1.796.941-.511 1.772-1.176 2.675-1.746a18.495 18.495 0 0 0-.223 4.973c.461 5.482 3.156 10.233 7.362 13.734 3.993 3.325 9.535 5.14 14.726 4.643 1.569-.151 3.026-.6 4.549-.959 5.275-1.243 8.446-2.242 12.018-6.646a19.544 19.544 0 0 0 4.231-14.469 18.937 18.937 0 0 0-7.132-12.977c-3.626-2.882-6.834-3.447-11.272-4.062-2.239-.31-4.375-.551-6.636-.284-5.65.669-10.474 3.659-13.964 8.073-.772-1.548-1.202-3.065-2.271-4.478-2.801-3.704-7.28-4.752-11.644-5.37 1.11-2.568 2.127-5.116 3.467-7.579 4.602-8.455 11.817-16.064 19.93-21.229 6.691-4.321 13.595-7.796 21.108-10.443 3.962-1.379 7.961-2.402 12.07-3.228Zm7.85 69.972c-1.358 1.355-2.394 3.398-3.519 4.968-6.133 8.562-10.975 15.01-22.554 14.948-5.006-.027-9.824-1.623-14.435-3.439-.758-.298-2.304-1.325-3.055-1.068l-.125.292c.407.911 2.99 1.65 3.937 2.012 7.293 2.781 15.98 4.473 23.384 1.178 7.553-3.361 12.312-11.77 16.798-18.339.357.286.727.565 1.11.816.75.493 2.417 1.445 3.306 1.191.208-.06.153-.064.264-.273-1.239-1.045-3.03-1.335-4.285-2.51-1.455-1.362-.792-3.531-1.814-4.917l-.209.063c-.023.048-.05.094-.069.143-.631 1.635.548 3.503 1.266 4.935Zm-37.993-35.22a3.381 3.381 0 1 0 1.83 6.51 3.381 3.381 0 0 0-1.83-6.51Zm24.878.066a3.299 3.299 0 1 0 .806 6.548 3.299 3.299 0 0 0-.806-6.548Zm23.151 9.368c-3.133.528-5.954 1.883-7.837 4.52a9.388 9.388 0 0 0-1.565 7.142c.482 2.655 2.155 4.883 4.363 6.377 2.752 1.863 5.932 2.536 9.215 2.06 3.259-.768 6.026-2.126 7.827-5.072a9.555 9.555 0 0 0 1.123-7.179 9.981 9.981 0 0 0-4.635-6.151c-2.497-1.483-5.612-2.081-8.491-1.697Z" fill="#E9B49C"/><path d="M185.48 151.335c-.464-.093-.735.181-1.117.44-2.191 1.49-4.272 3.354-6.193 5.175-.815.773-1.66 1.925-2.58 2.51 1.451-8.705 2.611-20.774 1.184-29.436-.28-1.701-.756-3.307-1.278-4.944.066.05.133.1.198.151 6.297 4.948 9 18.424 9.786 26.104Z" fill="#D8997B"/><path d="M82.862 129.922c-.236-1.289-.269-2.907-.078-4.203l.268.068c-.063 1.306.081 2.876-.19 4.135Z" fill="#974D3C"/><path d="m180.734 130.686.139-.354c15.016 5.561 28.636 16.458 35.388 31.217 1.249 2.73 1.98 5.454 2.894 8.292 2.408-.527 4.524-1.427 6.517-2.883-2.146-.114-4.274-1.616-5.679-3.189-1.214-1.358-2.027-3.284-1.925-5.119.089-1.589.823-2.97 2.042-3.984a6.959 6.959 0 0 1 5.22-1.546 7.87 7.87 0 0 1 5.374 3.089c1.13 1.517 1.558 3.231 1.271 5.1-.258 1.676-1.088 3.275-2.013 4.674 2.614.044 4.796-.115 6.791-2.076 2.046-2.01 2.838-5.018 2.828-7.813-.007-2.112-.437-4.162-1.197-6.129-.238-.617-.706-1.312-.835-1.95-.042-.21-.034-.457.097-.623.3.071.407.173.57.429 2.281 3.566 3.068 8.723 1.969 12.8-.673 2.498-2.053 4.922-4.349 6.241-2.37 1.362-5.288 1.476-7.938 1.161-2.281 1.93-5.195 3.528-8.232 3.747.525 2.192.778 4.482.985 6.724a54.975 54.975 0 0 1-7.834 34.145c-2.914 4.754-6.753 9.54-11.01 13.159l-.001 9.469c-.001 1.553.087 3.159-.017 4.706-.131 1.732-.077 3.5-.081 5.237l-.151.087c-.36-1.887-.151-4.159-.159-6.1l.009-13.573a57.164 57.164 0 0 0 15.739-22.989 54.342 54.342 0 0 0-1.474-41.315c-6.698-14.58-20.122-25.137-34.938-30.634Zm57.286 33.562c1.342-1.835 2.031-4.043 2.247-6.292.107-1.115.144-4.495-.532-5.313-.237.227.035 2.038.066 2.465.236 3.288-.354 5.693-2.165 8.444-1.623 1.816-3.454 2.847-5.905 2.988-.742.043-1.501.043-2.242-.016l-1.077 1.025c2.928.164 6.056.008 8.379-2.027.436-.383.856-.831 1.229-1.274Zm-14.133-10.614c-1.766.328-3.37 1.032-4.399 2.578-.804 1.208-1.017 2.637-.719 4.045.472 2.231 2.074 4.077 3.97 5.262.723.451 2.138 1.213 2.979 1.042.318-.065.39-.092.571-.352-.573-.53-1.297-.864-1.969-1.252-2.261-1.304-4.32-2.904-4.377-5.773-.022-1.138.36-2.254 1.197-3.046.947-.898 2.295-1.273 3.578-1.215 1.567.07 3.133.751 4.182 1.93.913 1.025 1.308 2.207 1.341 3.565-.423 3.086-2.041 5.171-4.489 7.014-1.308.984-2.794 1.827-4.356 2.334-.653.212-1.554.218-2.11.616.043.384.051.478.272.79.766.336 2.42-.347 3.181-.644 3.385-1.324 6.565-3.829 8.048-7.214.75-1.712 1.004-3.479.304-5.265a6.841 6.841 0 0 0-3.734-3.821 7.576 7.576 0 0 0-3.47-.594Zm.265 1.707c-1.261.329-2.538.808-3.264 1.971-.504.808-.576 1.817-.337 2.724.609 2.324 3.028 4.048 5.026 5.137.293.159.593.303.9.432.494.027.696-.079 1.059-.415 1.235-1.145 2.164-3.258 2.145-4.951-.014-1.32-.62-2.556-1.588-3.442-.979-.896-2.465-1.494-3.798-1.466-.048.001-.096.007-.143.01Z" fill="#5D2E26"/><path d="m98.843 138.234.1.328c-8.114 5.165-15.328 12.774-19.93 21.229-1.34 2.463-2.358 5.012-3.468 7.579a52.17 52.17 0 0 0-3.075 21.364c1.286 14.441 7.708 26.023 18.796 35.311a70.46 70.46 0 0 0 28.445 14.537l-.035.247c-9.212-2.114-18.063-6.48-25.644-12.087a525.43 525.43 0 0 0-.057 11.804c.008 2.135.254 4.657-.107 6.749l-.178-.113c-.124-1.222-.053-2.503-.058-3.733l.01-.377-.013-3.91.006-.391-.003-3.935.004-.427-.007-3.858.011-.399.004-1.614c-.88-.745-1.765-1.484-2.654-2.217l-.376-.331c-1.298-1.103-2.52-2.319-3.762-3.485-2.363-2.684-4.637-5.342-6.808-8.188-4.198-6.849-6.909-13.449-7.731-21.516a53.177 53.177 0 0 1 6.746-31.797c2.012-3.48 4.343-6.573 6.885-9.677 3.894-4.233 8.043-7.977 12.898-11.093Z" fill="#331310"/><path d="M237.641 163.55c1.81-2.751 2.401-5.156 2.165-8.444-.031-.427-.304-2.238-.066-2.465.675.818.638 4.197.531 5.313-.216 2.249-.904 4.456-2.246 6.291l-.384-.695Z" fill="#F37E60"/><path d="M230.238 160.417c-.033-1.358-.429-2.54-1.342-3.565-1.049-1.178-2.614-1.86-4.182-1.93-1.283-.057-2.631.318-3.578 1.215-.837.792-1.219 1.908-1.196 3.047.056 2.869 2.116 4.468 4.376 5.773.672.388 1.396.721 1.969 1.251-.181.26-.253.287-.571.352-.841.172-2.256-.591-2.978-1.042-1.897-1.185-3.499-3.031-3.971-5.261-.298-1.409-.084-2.838.719-4.045 1.029-1.547 2.633-2.25 4.399-2.579a7.59 7.59 0 0 1 3.47.594 6.841 6.841 0 0 1 3.734 3.821c.7 1.786.446 3.553-.304 5.265-1.483 3.385-4.663 5.89-8.048 7.214-.761.298-2.415.98-3.181.645-.221-.313-.229-.407-.272-.791.556-.398 1.458-.404 2.111-.616 1.561-.507 3.047-1.35 4.355-2.334 2.449-1.842 4.066-3.928 4.49-7.014Z" fill="#E99E87"/><path d="M103.702 166.182a3.381 3.381 0 1 1-1.633-6.562 3.381 3.381 0 0 1 1.633 6.562ZM127.663 166.26a3.3 3.3 0 1 1-.814-6.548 3.3 3.3 0 0 1 .814 6.548Z" fill="#5D4130"/><path d="m237.634 163.551.384.695a11.85 11.85 0 0 1-1.23 1.275c-2.322 2.035-5.45 2.19-8.378 2.027l1.077-1.025c.74.059 1.5.059 2.242.016 2.451-.141 4.282-1.172 5.905-2.988Z" fill="#E99E87"/><path d="M72.467 188.739a52.17 52.17 0 0 1 3.075-21.364c4.364.618 8.843 1.666 11.644 5.37 1.07 1.413 1.499 2.93 2.271 4.478-1.718 2.432-3.05 5.041-3.659 7.974-.903.57-1.733 1.235-2.674 1.746-3.285 1.786-7.003 2.032-10.657 1.796Z" fill="#F37E60"/><path d="M89.464 177.219c3.491-4.414 8.316-7.404 13.965-8.073 2.261-.267 4.396-.026 6.636.284 4.438.615 7.646 1.18 11.272 4.062a18.94 18.94 0 0 1 7.131 12.977 19.539 19.539 0 0 1-4.23 14.469c-3.572 4.404-6.744 5.403-12.018 6.646-1.524.36-2.98.808-4.549.959-5.192.497-10.733-1.318-14.726-4.643-4.206-3.501-6.901-8.251-7.362-13.734-.15-1.66-.075-3.333.223-4.973.61-2.933 1.94-5.542 3.658-7.974Zm14.945-7.83c-10.7.571-18.922 9.691-18.382 20.392.539 10.702 9.635 18.95 20.338 18.442 10.747-.51 19.037-9.652 18.495-20.398-.541-10.746-9.707-19.008-20.451-18.436Zm7.577.717c5.505 2.45 9.482 5.411 11.706 11.231 1.981 5.186 1.922 10.955-.401 16.015-2.077 4.526-5.266 7.32-9.597 9.593 1.069-.243 2.088-.507 3.116-.887 4.661-1.97 8.117-5.527 10.033-10.208 1.973-4.821 1.815-10.181-.205-14.96-1.85-4.378-5.595-8.068-10.021-9.82-1.466-.58-3.05-.958-4.631-.964Z" fill="#331310"/><path d="M154.178 189.175c-3.282.477-6.462-.197-9.214-2.06-2.208-1.494-3.882-3.722-4.364-6.377a9.395 9.395 0 0 1 1.566-7.142c1.882-2.637 4.704-3.992 7.836-4.52 2.879-.384 5.994.214 8.492 1.697a9.99 9.99 0 0 1 4.635 6.151 9.557 9.557 0 0 1-1.124 7.18c-1.8 2.945-4.567 4.303-7.827 5.071ZM106.356 208.225c-10.703.508-19.8-7.74-20.339-18.442-.539-10.701 7.682-19.821 18.382-20.392 10.744-.572 19.91 7.69 20.452 18.436.541 10.746-7.748 19.888-18.495 20.398Zm-9.254-22.596a2.39 2.39 0 1 0 1.39 4.574 2.39 2.39 0 0 0-1.39-4.574Zm13.511.06a2.556 2.556 0 0 0-2.031 3.954 2.554 2.554 0 1 0 2.031-3.954Z" fill="#F37E60"/><path d="M113.684 206.944c4.331-2.272 7.52-5.066 9.598-9.592 2.323-5.06 2.381-10.829.4-16.015-2.223-5.821-6.201-8.782-11.705-11.232 1.58.007 3.164.384 4.63.965 4.426 1.752 8.172 5.442 10.022 9.82 2.019 4.778 2.178 10.139.204 14.96-1.915 4.68-5.372 8.238-10.032 10.208-1.029.38-2.048.644-3.117.886Z" fill="#F37E60"/><path d="M98.374 190.235a2.39 2.39 0 1 1-1.155-4.637 2.39 2.39 0 0 1 1.155 4.637ZM110.885 190.789a2.555 2.555 0 1 1-.332-5.1 2.555 2.555 0 0 1 .332 5.1Z" fill="#5D4130"/><path d="M139.961 194.868c-.718-1.433-1.897-3.3-1.266-4.935.02-.05.046-.096.069-.144l.209-.062c1.022 1.385.36 3.555 1.814 4.917 1.256 1.175 3.046 1.464 4.286 2.509-.112.21-.057.214-.265.273-.889.255-2.556-.697-3.306-1.19-.382-.251-.752-.53-1.109-.816l-.294-.131-.138-.421Z" fill="#5D2E26"/><path d="M140.404 195.416c-4.486 6.569-9.245 14.978-16.798 18.339-7.404 3.295-16.091 1.602-23.384-1.179-.947-.362-3.53-1.101-3.937-2.011l.126-.293c.75-.257 2.296.77 3.054 1.069 4.611 1.815 9.429 3.411 14.435 3.438 11.579.063 16.421-6.386 22.554-14.948 1.125-1.57 2.162-3.613 3.519-4.968l.138.422.293.131Z" fill="#5D2E26"/><path d="M94.028 226.746c7.581 5.607 16.432 9.972 25.644 12.087.08.093.188.168.24.279.224.473.067 5.265.073 6.244l-17.84-.016c-2.585 0-5.763.269-8.282-.042.36-2.092.115-4.614.107-6.748-.025-3.935-.005-7.87.058-11.804Z" fill="#E9B49C"/><path d="M126.54 240.041c-2.297-.402-4.56-.953-6.837-1.453l-.034.247c.08.093.188.168.241.279.224.474.066 5.265.072 6.244l-17.84-.016c-2.585.001-5.762.269-8.282-.041l-.177-.113c-.272.166-.479.151-.784.158-6.957.151-27.31-.018-34.27-.002l-4.957 1.637 154.843-.004 37.552-.008c6.188.002 12.429.182 18.612.02.383-.009.813.001 1.152-.2.154-.091.238-.274.266-.446.052-.32-.064-.533-.25-.773-.354-.196-.674-.215-1.066-.238l-.029-.001c-1.948-.114-3.972.017-5.926.037-4.814.052-9.678.194-14.487-.018-3.174-.096-6.381.004-9.556.038-6.873.073-13.802.207-20.672-.013l-12.237-.013c-.006-1.792.031-3.598-.088-5.386-.131 1.732-.078 3.5-.081 5.237l-.151.087c-2.566.267-6.109.039-8.778.039h-18.548l.013-7.196c-5.347 1.416-9.924 2.29-15.434 2.886-.019 1.434.009 2.872.014 4.306l-26.863.02.014-4.476c-1.792-.355-3.63-.522-5.432-.838Z" fill="#6683C2"/><path d="M141.381 105.395c.993 0 2.002.307 3.01.943.121.075.235.153.342.232a8.701 8.701 0 0 0-.053.966c0 1.633.446 3.083 1.137 3.996a2.715 2.715 0 0 1-.319.347 3.315 3.315 0 0 1-1.322.715c-.493.15-1.044.221-1.666.221-.072 0-.186-.014-.343-.028a7.228 7.228 0 0 1-.622-.079c.014.143.043.3.079.472.029.178.064.371.114.586.293.014.557.022.793.029.236.007.465.007.658.007.043 0 .101-.008.179-.015.079 0 .164-.014.25-.021.093-.015.172-.036.25-.029.079-.021.144-.021.187-.028.092 0 .178.029.263.071a.702.702 0 0 1 .23.151.75.75 0 0 1 .171.221.617.617 0 0 1 .107.257.74.74 0 0 1 .008.329.36.36 0 0 1-.179.207c-.093.05-.229.087-.4.101a5.83 5.83 0 0 1-.658.028c-.143 0-.35-.007-.615-.014-.264 0-.587-.007-.987-.021.057.279.108.558.165.851.064.293.128.6.193.928.042.201.014.38-.093.523a.591.591 0 0 1-.457.207.82.82 0 0 1-.544-.207.956.956 0 0 1-.308-.529l-.386-1.824a8.466 8.466 0 0 1-.843-.05 2.85 2.85 0 0 1-.572-.142 1.023 1.023 0 0 1-.336-.222.689.689 0 0 1-.15-.314c-.043-.2-.022-.359.078-.473.107-.107.294-.171.558-.164.036 0 .086-.007.165 0 .071.007.15 0 .235.015.093 0 .193.014.293.021.107.007.201.007.301.014a11.543 11.543 0 0 1-.093-.522c-.036-.193-.072-.379-.107-.593a17.62 17.62 0 0 0-.522-.022c-.221-.007-.408-.029-.565-.043-.157-.036-.286-.064-.379-.114a.445.445 0 0 1-.235-.186.723.723 0 0 1-.122-.286c-.05-.207-.022-.364.064-.493.107-.136.286-.2.558-.207.035 0 .078.007.128.007.051.007.108.007.158.015.064.007.114.006.15.006.05.007.078.007.1.007.152.019.307.043.465.071-.122-.693-.229-1.286-.33-1.808a18.867 18.867 0 0 0-.256-1.243 99.747 99.747 0 0 0-.265-1.044c-.129-.5-.179-.872-.179-1.094 0-.221.057-.379.164-.45.115-.079.272-.122.48-.129.171-.014.415-.043.715-.086a8.46 8.46 0 0 1 1.158-.064Zm.157 1.444c-.236-.007-.443.007-.629.007-.179.014-.329.035-.451.05.043.264.1.529.157.779.029.114.051.214.079.314.029.107.057.208.078.308.129.529.237 1.066.316 1.573.086.522.171 1.044.257 1.559.395.033.789.068 1.179.106.408-.014.758-.078 1.066-.207.321-.136.572-.314.764-.536.194-.229.337-.501.401-.822.071-.322.057-.694-.028-1.094a2.246 2.246 0 0 0-.33-.793c-.164-.25-.422-.479-.793-.687-.694-.378-1.38-.557-2.066-.557Z" fill="#BF9432"/><path d="M80.104 218.216c2.742-.425 5.062-.158 7.647.847 3.62 1.756 6.373 4.671 7.678 8.514 1.1 3.238.925 7.207-.626 10.273a13.894 13.894 0 0 1-8.187 6.896 11.68 11.68 0 0 1-.862.233c-3.335.514-5.993.505-9.207-.543-.684-.524-1.652-.854-2.39-1.345-2.005-1.335-3.264-3.591-4.376-5.659-.829-2.972-1.022-5.318-.775-8.376.443-1.538.861-3.011 1.687-4.399 2.175-3.652 5.388-5.439 9.411-6.441Zm2.133 3.88c-2.93.179-5.438 1.051-7.417 3.305-1.766 2.011-2.6 4.568-2.424 7.235a10.13 10.13 0 0 0 3.56 6.999c1.534 1.308 3.455 2.095 5.47 2.152l.135-.079a3.24 3.24 0 0 0-.52-.139c-2.848-.555-4.998-1.707-6.638-4.167a9.818 9.818 0 0 1-1.475-7.564 9.493 9.493 0 0 1 4.136-6 9.32 9.32 0 0 1 4.214-1.384c.58-.049 1.255-.014 1.797-.238-.304-.147-.51-.128-.838-.12Zm-.306 4.025-.136 1.315c-1.038.393-2.296.872-2.81 1.942-.269.564-.234 1.215-.012 1.788.426 1.099 2.812 2.713 2.415 3.806-.09.247-.181.401-.42.526-.379.197-1.013.196-1.396.029-.65-.285-1.17-.799-1.9-.87-.319.141-.414.163-.52.53-.113.393-.076.81.195 1.121.275.316.769.509 1.14.678.19.554.075 1.236.042 1.815.52-.067 1.11-.078 1.569-.35l.094-.212c-.003-.183-.077-.604.062-.725.935-.816 3.018-.105 3.505-2.684.102-.543-.05-1.05-.365-1.496-.85-1.199-2.637-1.627-2.416-3.372.025-.191.107-.322.214-.477 1.184-.419 2.957 1.633 3.714.279.172-.309.147-.635.054-.961-.488-.587-1.526-.668-1.612-1.482l.333-.736c-.139-.226-.183-.286-.455-.364-.397-.113-.884-.087-1.295-.1Z" fill="#F2C45B"/><path d="M87.819 218.875c1.024.492 1.968 1.059 2.937 1.65 1.265 1.112 2.416 2.207 3.353 3.617l.306.433c.63 1.159 1.177 2.354 1.57 3.616l.182.607c.179 1.211.343 2.418.33 3.645l-.101.898c-.098 1.133-.312 2.337-.743 3.395l-.17.42c-.608 1.393-1.382 2.757-2.431 3.871l-.336.331c-2.282 2.343-3.987 2.775-6.875 3.964l-.091-.341c.29-.067.578-.144.862-.233a13.893 13.893 0 0 0 8.187-6.896c1.551-3.067 1.726-7.035.626-10.273-1.305-3.844-4.058-6.758-7.677-8.514l.07-.19ZM81.043 241.573c.185.029.342.08.52.138l-.135.079c-2.015-.056-3.935-.843-5.47-2.152a10.13 10.13 0 0 1-3.56-6.998c-.176-2.667.659-5.224 2.425-7.235 1.979-2.255 4.486-3.127 7.416-3.306.328-.008.534-.026.838.12-.542.224-1.216.189-1.796.239a9.308 9.308 0 0 0-4.214 1.383 9.495 9.495 0 0 0-4.136 6 9.821 9.821 0 0 0 1.474 7.565c1.64 2.459 3.79 3.612 6.638 4.167Z" fill="#331310"/><path d="m81.788 227.438.137-1.315c.411.012.898-.013 1.294.1.273.078.317.138.456.363l-.333.736c.086.815 1.124.896 1.612 1.483.093.326.118.651-.055.961-.756 1.354-2.53-.698-3.713-.279-.107.155-.19.285-.214.477-.221 1.745 1.566 2.173 2.415 3.372.316.445.468.953.365 1.496-.486 2.579-2.57 1.868-3.505 2.684-.138.121-.065.542-.061.725l-.095.211c-.458.272-1.047.284-1.568.351.033-.579.147-1.261-.042-1.815-.371-.17-.865-.363-1.14-.678-.27-.312-.308-.728-.195-1.121.105-.367.201-.39.52-.53.73.071 1.25.585 1.9.87.383.167 1.017.167 1.395-.029.24-.125.331-.28.42-.526.397-1.093-1.988-2.708-2.414-3.806-.222-.573-.257-1.224.013-1.788.513-1.07 1.77-1.549 2.808-1.942Z" fill="#F2C45B"/><path d="M81.873 233.277c-.072 0-.185-.008-.339-.023-.154-.015-.354-.04-.6-.076-.01.137-.018.295-.023.472-.006.173-.01.366-.016.579a23.975 23.975 0 0 0 1.433.039c.04 0 .1-.003.177-.008l.254-.031c.092-.015.177-.025.254-.03.082-.01.144-.015.185-.015.092 0 .174.02.246.061a.507.507 0 0 1 .193.152.747.747 0 0 1 .177.48c0 .137-.02.249-.062.335a.455.455 0 0 1-.215.199c-.103.05-.242.086-.416.106a7.847 7.847 0 0 1-.655.023c-.144 0-.346-.002-.608-.008-.257-.005-.583-.012-.978-.022-.005.269-.008.551-.008.845v.93a.729.729 0 0 1-.2.518.67.67 0 0 1-.5.206.68.68 0 0 1-.509-.206.73.73 0 0 1-.2-.518v-1.829a7.368 7.368 0 0 1-.84-.053 2.275 2.275 0 0 1-.546-.145.707.707 0 0 1-.293-.221.58.58 0 0 1-.085-.312c0-.198.064-.353.193-.465.133-.117.334-.175.6-.175.036 0 .09.002.162.007a6.87 6.87 0 0 1 .531.031l.293.015c.005-.168.013-.343.023-.526l.031-.586-.516-.023a6.43 6.43 0 0 1-.554-.046 1.308 1.308 0 0 1-.362-.107.438.438 0 0 1-.193-.183.732.732 0 0 1-.054-.297c0-.198.064-.363.193-.495.133-.132.333-.198.6-.198.036 0 .08.002.131.008.052 0 .103.002.154.007l.147.015h.1l.439.069c.046-.686.082-1.288.108-1.806.03-.518.046-.93.046-1.234v-1.052c0-.503.03-.868.092-1.097.057-.224.147-.373.27-.45.128-.076.29-.119.485-.129.174-.01.408-.038.7-.084a7.51 7.51 0 0 1 1.117-.069c.935 0 1.815.318 2.642.953.451.35.765.736.94 1.158.174.422.261.879.261 1.372 0 .635-.095 1.201-.285 1.699-.19.498-.526.935-1.009 1.31a4.124 4.124 0 0 1-1.432.717 6.281 6.281 0 0 1-1.679.213Zm-.67-5.913a13.66 13.66 0 0 0-.023.785v.312c.005.102.008.204.008.305 0 .534-.02 1.059-.062 1.577a142.8 142.8 0 0 0-.1 1.555l1.14.099c.395-.01.757-.079 1.086-.206.333-.127.618-.305.854-.533.242-.229.43-.503.563-.823.133-.325.2-.691.2-1.097 0-.29-.052-.554-.154-.793-.103-.244-.308-.47-.616-.678a3.304 3.304 0 0 0-1.84-.564c-.232 0-.435.005-.61.015a4.698 4.698 0 0 0-.446.046Z" fill="#BF9432"/><path d="M225.345 59.654c.078-.025.155-.048.232-.074 1.956-.651 3.846-1.936 5.707-2.83l27.15-13.212c2.985-1.448 5.915-3.109 8.941-4.458.634-.282 13.171-4.973 17.009-6.384 7.388-2.716 30.742-9.298 31.224-9.145 4.953 1.568 31.268-9.488 36.173-7.765 2.802.985 16.406 3.29 19.026 4.53 1.791.848 28.806-3.238 29.444-1.359 60.352-22.717 34.264-2.858-12.684 15.401-.414 2.498-38.97 7.212-39.862 9.809-1.99 5.79-5.898 13.633-8.154 19.323-1.563.638-53.105 18.369-54.739 18.782a758.161 758.161 0 0 0-7.772 1.98l-23.989 6.38-8.581 2.254c-1.882.476-3.825.845-5.674 1.431.028-.436.025-.862.008-1.3-.381-9.992-6.131-26.548-13.459-33.363Z" fill="#89A2D8"/><path d="M223.828 61.49c1.045.007 1.434.253 2.167.997 5.125 5.209 11.696 23.51 11.4 30.823a1.238 1.238 0 0 1-.115.475c-8.029 2.012-15.976 3.968-24.201 5.037-7.295.948-14.723 1.037-21.896 2.756-8.621 2.065-16.941 5.608-25.232 8.694-2.675.996-5.363 2.229-8.114 2.984-3.425.888-7.44 3.019-10.881 1.057a11.007 11.007 0 0 1-1.301-.892 15.22 15.22 0 0 1-1.542-2.873c-.194-1.596.04-3.308.969-4.65.292-.348.543-.744.806-1.115 2.135-3.705 5.606-6.025 8.911-8.6 5.972-4.441 12.279-8.41 18.27-12.82 1.241-.79 2.42-1.693 3.653-2.502.513-3.216.273-6.643-1.187-9.596-2.264-4.579-6.673-7.366-11.397-8.938-2.952-.701-11.676 1.605-14.408 3.083-.775 4.92-1.189 9.902-1.642 14.86-.322 3.515-.73 7.052-.927 10.574-.093 1.659-.001 1.781-.697 1.659-3.779-.84-6.718-.84-9.657.42-1.158.496-1.149-.268-1.595-1.704-.639-2.056-1.007-5.069-1.444-7.255a500.186 500.186 0 0 1-2.192-11.71c-.387-2.163-.915-4.394-1.05-6.584.379-.855.3-2.035.343-2.965.038-.349.083-.696.136-1.043.404-2.57 1.38-5.258 3.215-7.157.73-.756 1.568-1.365 2.477-1.888 1.76-1.012 3.742-1.737 5.591-2.585 3.349-1.535 6.673-3.107 10.04-4.603 1.891-.84 3.956-1.558 5.634-2.776-1.057.164-3.379 1.447-4.483 1.94l-10.531 4.81c-1.854.854-3.746 1.644-5.572 2.555a15.14 15.14 0 0 0-2.24 1.348c-2.881 2.104-3.997 5.57-4.517 8.951-.048.916-.058 1.856-.171 2.765l-.069-.222c-1.011-3.146-1.962-8.905-1.791-12.135.142-2.684.791-5.173 2.852-7.037 1.125-.868 2.267-1.65 3.554-2.263 2.284-1.086 4.827-1.758 7.233-2.527l10.481-3.355c1.824-.576 3.679-1.004 5.403-1.855-.036-.005-.071-.018-.108-.017-1.342.06-20.548 6.36-22.592 7.249-1.435.624-2.705 1.432-3.906 2.43.295-3.402 1.841-6.57 4.413-8.794 2.323-1.775 5.053-2.846 7.881-3.495 2.065-.474 4.164-.7 6.254-1.026 4.34-.679 8.542-1.575 12.962-.92 8.453 1.253 17.595 9.422 24.329 14.508 4.205 3.176 8.436 6.328 12.904 9.128 5.736 3.596 11.675 6.076 18.463 6.806 1.654.177 3.475.369 5.117-.007Zm-66.277 42.722c-2.861-.156-5.864 1.549-7.947 3.412-.939.841-1.739 1.894-1.824 3.197-.049.745.156 1.419.667 1.972.771.835 1.911 1.174 3 1.324 2.191-.09 6.824-1.162 8.357-2.723.723-.736 1.074-1.74 1.049-2.764-.031-1.277-.613-2.541-1.539-3.417-.524-.495-1.084-.776-1.763-1.001Z" fill="#F1BBA2"/><path d="M131.511 45.283c1.201-.997 2.471-1.806 3.906-2.43 2.044-.888 21.25-7.189 22.593-7.248.036-.002.072.011.107.017-1.724.85-3.579 1.279-5.403 1.854l-10.48 3.355c-2.407.77-4.95 1.442-7.233 2.528-1.288.613-2.429 1.395-3.555 2.263l.065-.339Z" fill="#331310"/><path d="M223.824 61.487c.074-.363.138-.747.327-1.071.289-.494.659-.634 1.195-.759 7.327 6.816 13.077 23.371 13.458 33.364.017.437.02.863-.008 1.3-.327.207-.544.352-.946.374-.328-.18-.397-.242-.525-.617-.034-.1-.039-.193-.048-.296.069-.16.108-.3.115-.474.295-7.314-6.276-25.615-11.401-30.823-.732-.744-1.122-.99-2.167-.998Z" fill="#5D4130"/><path d="M130.626 62.257c.52-3.381 1.636-6.847 4.517-8.951a15.13 15.13 0 0 1 2.24-1.348c1.826-.911 3.718-1.702 5.572-2.554l10.531-4.812c1.104-.492 3.426-1.775 4.483-1.939-1.678 1.218-3.743 1.936-5.634 2.776-3.367 1.496-6.691 3.068-10.04 4.603-1.849.847-3.831 1.573-5.591 2.585-.908.523-1.747 1.131-2.477 1.887-1.835 1.9-2.811 4.588-3.215 7.158-.053.346-.098.694-.136 1.042l-.25-.447Z" fill="#331310"/><path d="M151.452 114.115c-1.09-.151-2.229-.49-3.001-1.325-.51-.552-.716-1.227-.667-1.972.085-1.302.885-2.356 1.825-3.196 2.083-1.863 5.086-3.568 7.947-3.413.678.226 1.238.506 1.762 1.002.927.875 1.508 2.139 1.54 3.417.025 1.023-.327 2.027-1.05 2.764-1.532 1.561-6.165 2.633-8.356 2.723Z" fill="#ECECEC"/></g><defs><clipPath id="a"><path fill="#fff" d="M0 0h320v247H0z"/></clipPath></defs></svg>