<svg width="180" height="79" viewBox="0 0 180 79" fill="none" xmlns="http://www.w3.org/2000/svg">
<g clip-path="url(#clip0_258_8559)">
<path d="M49.0488 11.1942C57.2023 11.1229 63.8917 17.5226 63.9639 25.4574C64.0365 33.3939 57.4633 39.9084 49.3123 39.9782C41.1579 40.0488 34.4674 33.65 34.3941 25.7135C34.3231 17.7784 40.8972 11.2634 49.0488 11.1942ZM49.1074 17.6623C44.62 17.7001 40.9997 21.2868 41.0415 25.6549C41.081 30.0244 44.7643 33.5487 49.2538 33.5102C53.7407 33.4705 57.3599 29.886 57.3197 25.516C57.2794 21.1479 53.596 17.6239 49.1074 17.6623ZM49.1459 21.4287C51.2756 21.4104 53.0178 23.1131 53.0377 25.2337C53.0541 27.3501 51.344 29.0844 49.2137 29.105C47.0843 29.1214 45.3411 27.4164 45.3234 25.3C45.3043 23.1803 47.014 21.4464 49.1459 21.4287Z" fill="#F37E60"/>
<path d="M56.6542 50.1699H46.2982V41.8994H39.5371V64.9276H46.2982V56.6407H56.6542V64.9276H63.3228V41.8994H56.6542V50.1699Z" fill="white"/>
<path d="M18.506 37.421H25.1916V20.9085H33.7487V14.3928H9.96289V20.9085H18.506V37.421Z" fill="white"/>
<path d="M164.649 36.0333L159.107 31.6632L153.06 39.1374L158.602 43.5074L164.649 36.0333Z" fill="white"/>
<path d="M27.7384 51.7476L34.4136 41.8994H13.8344V48.3303H22.2522L16.316 57.1022L21.6389 60.7403L23.9884 57.2725C27.3664 58.0922 29.8828 61.1552 29.8828 64.7941C29.8828 69.061 26.426 72.5367 22.1769 72.5367C17.9279 72.5367 14.4725 69.0495 14.4725 64.8026H8.03516C8.03516 72.6435 14.3795 79.0003 22.1769 79.0003C29.975 79.0003 36.3209 72.6315 36.3209 64.8026C36.3202 58.949 32.7795 53.9202 27.7384 51.7476Z" fill="white"/>
<path d="M162.082 41.9037V41.8994L151.693 54.464V41.9037H144.964V64.9276H151.68L151.693 64.9191L162.082 52.3043V64.9276H168.75V41.9037H162.082Z" fill="white"/>
<path d="M124.686 38.7004C127.712 38.7004 130.578 37.309 132.728 34.9752V38.1286H139.178V14.9596H132.728V16.8079C131.809 15.9774 130.727 15.3274 129.514 14.9093C128.529 14.5652 127.493 14.3928 126.445 14.3928C121.659 14.3928 117.261 17.8796 115.497 23.0674C113.32 29.485 116.064 36.2667 121.616 38.1875C122.601 38.5274 123.635 38.7004 124.686 38.7004ZM121.55 24.943C122.365 22.5517 124.393 20.9469 126.598 20.9469C127.081 20.9469 127.559 21.0244 128.013 21.1824C130.571 22.066 131.835 25.1936 130.831 28.151C130.02 30.5444 127.992 32.15 125.786 32.15C125.303 32.15 124.825 32.0702 124.372 31.9122C121.812 31.0287 120.546 27.9031 121.55 24.943Z" fill="white"/>
<path d="M73.8984 65.5665C76.924 65.5665 79.7917 64.1744 81.9419 61.8411V64.9955H88.3925V41.8236H81.9419V43.672C81.0215 42.8444 79.9404 42.1936 78.729 41.7733C77.7397 41.4328 76.7069 41.259 75.6586 41.259C70.8727 41.259 66.4748 44.7459 64.7118 49.9348C62.5332 56.352 65.2769 63.1327 70.8286 65.0537C71.8158 65.3942 72.8506 65.5665 73.8984 65.5665ZM70.7645 51.809C71.5774 49.4169 73.603 47.8099 75.8108 47.8099C76.2942 47.8099 76.7704 47.8897 77.2251 48.0483C79.7824 48.9326 81.0473 52.059 80.0465 55.018C79.2329 57.4095 77.2066 59.0165 74.9988 59.0165C74.5155 59.0165 74.0393 58.9353 73.5851 58.7787C71.0258 57.8944 69.7609 54.768 70.7645 51.809Z" fill="white"/>
<path d="M135.728 41.8994L125.355 54.464V41.9037H118.609V64.9276H125.317L125.332 64.9191L135.728 52.3043V64.9276H142.395V41.9037H135.728V41.8994Z" fill="white"/>
<path d="M83.0087 14.4078V20.6465C83.0087 23.548 80.7406 25.8205 77.8227 25.8205C74.9076 25.8205 72.6379 23.548 72.6379 20.6465V14.3928H65.8936V20.6465C65.8936 27.0708 71.2397 32.2976 77.7976 32.2976C79.6624 32.2976 81.4602 31.8749 83.0095 31.1217V37.421H89.6793V20.6465V14.4078V14.3928H83.0095L83.0087 14.4078Z" fill="white"/>
<path d="M114.93 14.3928H107.039L101.609 22.3221H98.7742V14.3928H92.251V37.421H98.7742V28.7928H102.234L108.146 37.421H116.037L107.591 25.103L114.93 14.3928Z" fill="white"/>
<path d="M109.383 50.1699H98.9808V41.8994H92.251V64.9276H98.9808V56.6407H109.383V64.9276H116.037V41.8994H109.383V50.1699Z" fill="white"/>
<path d="M121.025 14.0856C121.801 13.9685 122.639 13.9187 123.422 13.9868C123.36 14.2397 123.216 14.4844 123.121 14.7277C122.746 15.6861 122.299 16.8015 122.138 17.8119C122.124 17.9028 122.096 18.0172 122.106 18.109C120.833 18.0366 119.297 17.9263 118.277 18.8263C118.149 18.9391 117.821 19.2328 117.763 19.379L117.607 19.475C117.611 19.4046 117.617 19.3341 117.626 19.2639C117.713 18.4969 118.096 17.6825 118.712 17.1968C118.111 17.4451 117.659 17.8833 117.321 18.4258C117.351 18.1889 117.431 17.9834 117.533 17.768C117.942 16.9041 118.478 16.3052 119.4 15.9728C118.802 16.0341 118.292 16.2732 117.777 16.5621C117.793 16.5233 117.812 16.4852 117.831 16.4479C118.271 15.6278 119.193 15.2006 120.047 14.9376C119.503 14.8527 119.165 14.8157 118.614 14.9205C119.333 14.561 119.732 14.4928 120.532 14.4546C120.243 14.2871 119.904 14.1493 119.577 14.0777C120.094 13.9478 120.51 14.0308 121.025 14.0856Z" fill="#E5E5E5"/>
<path d="M139.634 21.7716L139.67 21.807C140.362 22.5087 140.981 23.2867 141.558 24.0817C141.829 24.3878 142.111 24.8818 142.285 25.2541C142.033 25.0141 141.712 24.7712 141.418 24.5837C141.861 25.1198 142.06 25.672 142.141 26.3587C141.986 26.1 141.81 25.8556 141.643 25.6047C141.46 25.3307 141.284 25.0346 141.055 24.7957C141.722 25.8794 141.801 26.644 141.74 27.8872C141.463 27.3868 141.251 26.9621 141.117 26.4024C141.109 26.6762 141.105 26.9477 141.071 27.2201C140.996 27.8067 140.791 28.4294 140.54 28.9653C140.481 28.7897 140.457 28.5985 140.424 28.4166C140.377 28.1561 140.326 27.8965 140.271 27.6378C140.203 28.096 140.087 28.534 139.991 28.9857C139.927 29.2851 139.885 29.5934 139.801 29.8879C139.751 29.6135 139.669 29.0363 139.45 28.8527L139.41 28.8419C139.252 28.9687 139.291 29.2309 139.1 29.3417C139.215 29.1297 139.242 28.8401 139.234 28.6029C139.194 27.37 137.552 25.7303 136.68 24.9098C136.838 24.8411 136.982 24.7159 137.115 24.608C137.828 24.0324 138.439 23.3349 139.006 22.6215C139.226 22.3442 139.445 22.0715 139.634 21.7716Z" fill="#E5E5E5"/>
<path d="M123.422 13.9868C127.789 14.2575 132.317 16.2435 135.888 18.6811C136.613 19.1762 137.319 19.6911 137.988 20.2588C138.356 20.5719 138.717 20.8931 139.07 21.2221C139.248 21.387 139.441 21.5504 139.601 21.7321C139.613 21.7451 139.623 21.7583 139.634 21.7716C139.445 22.0715 139.226 22.3442 139.006 22.6215C138.439 23.3349 137.828 24.0324 137.115 24.608C136.982 24.7159 136.838 24.8411 136.68 24.9098C133.396 21.9148 128.885 19.4207 124.514 18.4694C123.733 18.2994 122.907 18.1476 122.107 18.109C122.097 18.0172 122.125 17.9028 122.139 17.812C122.3 16.8016 122.747 15.6862 123.121 14.7277C123.216 14.4845 123.361 14.2397 123.422 13.9868Z" fill="#E5E5E5"/>
<path d="M121.025 14.0857C121.162 13.7642 121.3 13.4342 121.461 13.1241C123.146 9.88738 126.188 7.15839 129.59 5.7848C132.718 4.52196 136.508 4.42968 139.635 5.74251C142.643 7.00499 144.975 9.28965 146.548 12.0954C146.864 12.6579 147.163 13.2408 147.406 13.8378C147.628 14.3748 147.829 14.9196 148.009 15.4721C148.188 16.0245 148.346 16.5832 148.482 17.1479C148.897 18.9362 149.045 20.9105 149.058 22.7422L149.056 23.0111C148.278 22.6969 147.59 22.6296 146.789 22.9069C146.488 23.0219 146.203 23.1567 145.931 23.3297C145.837 23.3896 145.682 23.5645 145.587 23.5897L145.576 23.5803C145.137 22.1385 144.643 20.7198 143.825 19.4397C143.716 19.2694 143.602 19.1062 143.472 18.9505C143.368 18.8253 143.242 18.7014 143.154 18.5653C143.074 18.9469 143.049 19.3388 142.99 19.724C142.873 20.4925 142.709 21.2632 142.466 22.0028C142.317 22.4559 142.133 22.9223 141.926 23.3526C141.808 23.5957 141.661 23.8329 141.558 24.0818C140.981 23.2867 140.361 22.5087 139.67 21.807L139.634 21.7716C139.623 21.7584 139.613 21.7451 139.601 21.7321C139.441 21.5504 139.248 21.3871 139.07 21.2221C138.716 20.8932 138.356 20.5719 137.988 20.2588C137.318 19.6911 136.613 19.1762 135.888 18.6812C132.317 16.2435 127.789 14.2576 123.422 13.9868C122.64 13.9188 121.801 13.9686 121.025 14.0857Z" fill="#F37E60"/>
<path d="M152.679 26.3861C152.679 28.5941 150.88 30.3841 148.661 30.3841C146.442 30.3841 144.644 28.5941 144.644 26.3861C144.644 24.1782 146.442 22.3882 148.661 22.3882C150.88 22.3882 152.679 24.1782 152.679 26.3861Z" fill="#E5E5E5"/>
<path d="M38.3809 3.54946C38.6614 3.36934 38.9413 3.19102 39.2273 3.0201C39.4238 2.90271 39.5775 2.76988 39.8183 2.82396C40.2394 2.91849 40.3185 3.46414 39.9092 3.7163C39.5757 3.92177 38.9743 4.26402 38.6915 4.52753C39.0335 4.62639 39.7567 4.74077 39.9165 5.02833C40.0968 5.3528 39.8756 5.79335 39.5082 5.78096C39.2464 5.77213 38.4923 5.51313 38.2041 5.43771C38.2384 5.45096 38.2843 5.44188 38.3213 5.45042C38.4116 5.47123 38.5005 5.51095 38.5925 5.52306C38.629 5.52784 38.8567 5.55286 38.8692 5.552C38.9356 5.54753 39.3689 5.15838 39.454 5.05639L39.4617 5.0471C39.4949 5.00704 39.4917 4.92808 39.4821 4.87959L39.4589 4.86695C39.4418 4.83719 39.4497 4.79319 39.4264 4.76873C39.3376 4.67526 38.7302 4.59394 38.6855 4.52341C38.739 4.34886 39.9995 3.74614 40.1216 3.4858C40.2308 3.25305 40.1274 2.96992 39.8966 2.86638C39.6304 2.74701 39.4559 2.90013 39.2369 3.03358C39.0198 3.16589 38.8041 3.30507 38.5845 3.43265C38.5172 3.47176 38.4572 3.53297 38.3844 3.56231L38.3809 3.54946Z" fill="white"/>
<path d="M33.7929 7.78181L33.8083 7.77515C34.0963 7.95509 34.0774 7.90414 34.0828 8.18501C34.0875 8.44135 34.0796 8.69788 34.084 8.9501C34.084 8.95812 34.1274 9.29678 34.1274 9.29678C34.1568 9.22702 34.1617 9.05958 34.2476 9.19832C34.3425 9.11527 34.2111 9.04376 34.429 8.86449L34.4374 8.86832L34.441 8.88056C34.4502 8.86759 34.4494 8.8583 34.4495 8.84269C34.5028 8.79303 34.6136 8.74721 34.6205 8.71564C34.6697 8.49463 34.858 8.46396 34.9073 8.35899C34.9422 8.28462 34.9602 8.24757 34.9888 8.34556L34.9954 8.35031L34.9933 8.35671L34.9872 8.34049C34.9987 8.32586 34.9979 8.30977 35.0088 8.29424L35.0265 8.28811L35.0325 8.29261C35.0327 8.41603 34.9957 8.95891 35.0208 9.05021L35.0263 9.04869C35.0284 9.03025 35.0301 9.01181 35.0325 8.99339C35.0385 9.16518 35.0325 9.33938 35.0325 9.51142C35.1713 9.64874 35.3025 9.79522 35.437 9.93682L36.029 10.5545C36.1409 10.6725 36.3097 10.814 36.3999 10.9429C36.604 11.2347 36.3857 11.6513 36.0471 11.6799C35.7253 11.707 35.2937 11.1259 35.0325 10.8945L35.0327 11.8623C35.0328 12.0307 35.0516 12.2571 35.0202 12.4179C34.9242 12.9085 34.213 12.9217 34.0967 12.4382C34.03 12.1607 34.0862 11.228 34.0785 10.8945C33.6825 11.1263 33.3348 11.9616 32.7834 11.6021C32.6017 11.4836 32.5127 11.1585 32.6429 10.9718C32.7545 10.812 32.9562 10.646 33.098 10.5016C33.415 10.1784 33.7513 9.81777 34.0785 9.51142V7.98808C33.983 7.91973 33.8874 7.85157 33.7929 7.78181Z" fill="white"/>
<path d="M36.1108 6.76237C36.0999 6.66384 36.0819 6.09065 36.106 6.03253C36.1412 5.94805 36.9091 5.50995 37.037 5.43095C37.1178 5.381 37.3343 5.20833 37.4162 5.20095C37.4825 5.19496 38.0597 5.3801 38.2043 5.43779C38.0195 5.39011 37.5991 5.28867 37.4385 5.21089C37.2899 5.27631 37.1559 5.37822 37.0174 5.4631L36.5055 5.77916C36.3714 5.86238 36.2292 5.94358 36.1108 6.04909V6.76237C36.4981 7.01239 36.8975 7.24378 37.282 7.49819C37.3337 7.5323 37.3843 7.57169 37.4385 7.60136C37.6802 7.5265 37.924 7.45959 38.167 7.38934L38.8987 7.17688C39.0754 7.12746 39.3028 7.0404 39.4791 7.02346C39.9905 6.97431 40.2252 7.80864 39.5333 8.01491C39.2437 8.10123 38.9533 8.2008 38.6608 8.27422C38.9865 8.49209 39.3432 8.69133 39.6754 8.90652C39.7957 8.98437 39.9361 9.05784 40.036 9.16234C40.3708 9.51286 40.0003 10.1591 39.5739 9.98584C39.4834 9.94905 39.406 9.8801 39.3223 9.82968L38.6402 9.41315C38.497 9.32481 38.3585 9.22598 38.2043 9.15823C38.239 9.38648 38.3461 10.0989 38.3233 10.3081C38.2704 10.7968 37.5921 10.7596 37.4222 10.3494C37.3646 10.2102 37.3493 10.0418 37.3193 9.8939L37.1259 8.94785C37.0948 8.792 37.0774 8.62663 37.0333 8.47447C36.9599 8.40358 36.8508 8.35175 36.7635 8.29857L35.9061 7.77791C35.8063 7.71689 35.7067 7.64306 35.5974 7.60136C35.4678 7.66219 35.1553 7.89093 35.0331 7.98812C35.0334 8.32309 35.0369 8.65848 35.0331 8.99342C35.0308 9.01184 35.029 9.03028 35.027 9.04872L35.0214 9.05024C34.9963 8.95895 35.0333 8.41606 35.0331 8.29264C35.0186 8.19743 35.0072 8.06781 35.0268 7.97342L35.0442 7.96306L35.0341 7.96472C35.1451 7.87647 35.4519 7.64908 35.5715 7.59038C35.6333 7.56012 35.8288 7.70978 35.9254 7.74252C36.0732 7.79269 36.4079 7.34022 36.5015 7.40587C36.557 7.39315 36.5396 7.35503 36.58 7.32809C36.6054 7.31115 36.6421 7.31911 36.6681 7.30053C36.6692 7.29042 36.6212 7.12447 36.6154 7.11547C36.5252 6.97394 36.2181 6.90806 36.1108 6.76237Z" fill="white"/>
<path d="M34.0456 1.91795C34.117 1.72184 34.0756 0.799815 34.0807 0.54009C34.0947 -0.16265 34.9115 -0.14429 35.0154 0.391097C35.0678 0.661954 35.044 1.60233 35.0333 1.91795C35.3055 1.7152 35.64 1.17055 35.9636 1.11123C36.222 1.06387 36.4837 1.27463 36.5249 1.53264C36.5661 1.79053 36.3788 1.92409 36.2214 2.09056C35.9535 2.37382 35.6781 2.64994 35.4064 2.92938C35.2906 3.0485 35.1337 3.1837 35.041 3.31805L35.0333 3.32922V4.8712C35.2129 4.98997 35.3874 5.11648 35.5625 5.24187C35.65 5.19796 35.7321 5.14122 35.8156 5.09011L36.8326 4.46001C36.9072 4.41311 37.0039 4.36567 37.0671 4.30401C37.1028 4.16259 37.1179 4.01307 37.1438 3.86923L37.3126 2.92406C37.3392 2.76939 37.3526 2.57943 37.4053 2.43456C37.582 1.948 38.2799 2.05869 38.3367 2.53069C38.352 2.65715 38.3151 2.8003 38.2939 2.92496L38.2147 3.38787C38.196 3.49205 38.1732 3.59625 38.1612 3.70148C38.2363 3.65125 38.3015 3.59461 38.3813 3.54952L38.3847 3.56236C38.4575 3.53302 38.5175 3.47181 38.5848 3.43271C38.8044 3.30512 39.0201 3.16594 39.2372 3.03363C39.4562 2.90018 39.6307 2.74707 39.8969 2.86644C40.1277 2.96997 40.2311 3.25311 40.1219 3.48586C39.9998 3.7462 38.7394 4.34892 38.6858 4.52346C38.7305 4.59399 39.3379 4.67531 39.4267 4.76879C39.45 4.79325 39.4422 4.83725 39.4592 4.867L39.4824 4.87964C39.492 4.92813 39.4952 5.0071 39.462 5.04715L39.4543 5.05644C39.3692 5.15843 38.9359 5.54759 38.8695 5.55206C38.857 5.55291 38.6293 5.5279 38.5928 5.52311C38.5008 5.51101 38.4119 5.47129 38.3216 5.45048C38.2846 5.44193 38.2387 5.45102 38.2044 5.43776C38.0598 5.38007 37.4827 5.19493 37.4164 5.20092C37.3344 5.2083 37.1179 5.38097 37.0371 5.43092C36.9092 5.50992 36.1414 5.94802 36.1062 6.0325C36.082 6.09062 36.1 6.66381 36.1109 6.76234C36.2183 6.90803 36.5254 6.97391 36.6155 7.11543C36.6214 7.12444 36.6694 7.29039 36.6683 7.3005C36.6422 7.31908 36.6056 7.31112 36.5802 7.32806C36.5397 7.35499 36.5571 7.39312 36.5017 7.40584C36.408 7.34019 36.0733 7.79265 35.9255 7.74249C35.8289 7.70975 35.6334 7.56009 35.5717 7.59035C35.452 7.64905 35.1452 7.87644 35.0342 7.96468L35.0443 7.96303L35.0269 7.97339C35.0074 8.06778 35.0187 8.1974 35.0333 8.29261L35.0273 8.28811L35.0096 8.29424C34.9987 8.30977 34.9995 8.32586 34.9879 8.34049L34.9941 8.35671L34.9962 8.35032L34.9895 8.34556C34.9609 8.24757 34.9429 8.28462 34.908 8.35899C34.8588 8.46397 34.6704 8.49463 34.6213 8.71564C34.6144 8.74721 34.5035 8.79303 34.4503 8.84269C34.4502 8.8583 34.4509 8.86759 34.4418 8.88056L34.4382 8.86832L34.4298 8.86449C34.2119 9.04376 34.3433 9.11527 34.2484 9.19832C34.1625 9.05958 34.1576 9.22703 34.1282 9.29678C34.1282 9.29678 34.0848 8.95813 34.0848 8.9501C34.0804 8.69788 34.0883 8.44135 34.0835 8.18502C34.0782 7.90414 34.0971 7.95509 33.8091 7.77515L33.7936 7.78182C33.7349 7.75428 33.5522 7.61214 33.4829 7.56665C33.3954 7.6076 33.3124 7.66738 33.2306 7.71928L32.2842 8.32529C32.2084 8.37326 32.1277 8.41848 32.0576 8.47444C32.0358 8.54439 32.0249 8.61857 32.0107 8.69051L31.7727 9.86424C31.7408 10.0261 31.7203 10.2109 31.6575 10.3634C31.467 10.8243 30.7821 10.7035 30.7382 10.2114C30.7227 10.0378 30.8778 9.37468 30.9147 9.15819C30.7819 9.22913 30.6537 9.31737 30.5262 9.3976L30.0209 9.70882C29.8876 9.79221 29.7414 9.90543 29.5917 9.95307C29.1488 10.094 28.7866 9.50122 29.1308 9.14305C29.3037 8.96304 30.1932 8.4235 30.4352 8.27419C30.064 8.1175 29.3266 8.06707 29.176 7.70468C29.0257 7.34292 29.328 6.94462 29.704 6.9991C29.9157 7.02981 30.1287 7.11531 30.3354 7.17209L31.1451 7.40328C31.326 7.45403 31.5157 7.49046 31.6881 7.56665C32.0173 7.35773 32.3415 7.14267 32.677 6.94299C32.7787 6.8825 32.8677 6.8095 32.9773 6.76234C32.9827 6.52505 32.9773 6.28646 32.9773 6.04905C32.883 5.9647 32.7618 5.90041 32.6549 5.83338C32.3432 5.63783 31.9868 5.4491 31.6881 5.24187C31.5678 5.27157 31.4498 5.31035 31.33 5.34198L30.2243 5.63319C30.0567 5.67776 29.8344 5.75923 29.6696 5.77814C29.278 5.82314 29.0115 5.39767 29.1833 5.03905C29.3003 4.79509 29.5365 4.76542 29.7706 4.69792C29.9727 4.63962 30.2287 4.57042 30.4254 4.50153L30.4352 4.4981C30.3362 4.39385 30.0214 4.21871 29.8807 4.13398L29.2399 3.74498C28.798 3.47376 28.8398 2.92445 29.2823 2.82626C29.4833 2.78161 29.6479 2.89641 29.8126 2.99497C30.1843 3.21751 30.5993 3.46428 30.9572 3.70148C30.9368 3.32694 30.6676 2.67246 30.8257 2.3883C31.015 2.04807 31.5376 2.07685 31.6829 2.43456C31.7367 2.56676 31.7449 2.7646 31.7678 2.9085L31.9134 3.7743C31.942 3.94727 31.9602 4.12565 32.0036 4.29544L32.0059 4.30401C32.5025 4.59243 33.0372 4.92556 33.5124 5.24187C33.6792 5.11429 33.9359 4.98065 34.0793 4.84313C34.0979 4.63204 34.0909 4.41803 34.0909 4.20621L34.0908 3.32922C34.0185 3.22186 33.8721 3.08923 33.7789 2.99276L33.0027 2.20337C32.8946 2.09374 32.7583 1.97884 32.6794 1.84498C32.4398 1.43912 32.8682 0.939621 33.2825 1.16072C33.4235 1.23592 33.5407 1.38688 33.6506 1.50144L34.0456 1.91795Z" fill="white"/>
<path d="M168.559 9.94668C168.84 9.76656 169.119 9.58824 169.405 9.4173C169.602 9.29991 169.756 9.16709 169.997 9.22118C170.417 9.31571 170.496 9.86134 170.087 10.1135C169.754 10.319 169.152 10.6612 168.87 10.9247C169.211 11.0236 169.936 11.138 170.095 11.4255C170.275 11.75 170.054 12.1906 169.686 12.1782C169.424 12.1693 168.671 11.9103 168.382 11.8349C168.417 11.8482 168.462 11.8391 168.499 11.8476C168.59 11.8685 168.679 11.9082 168.77 11.9203C168.807 11.9251 169.034 11.9501 169.047 11.9492C169.114 11.9447 169.547 11.5556 169.632 11.4536L169.64 11.4443C169.673 11.4042 169.67 11.3253 169.661 11.2768L169.637 11.2642C169.62 11.2344 169.628 11.1904 169.604 11.166C169.516 11.0725 168.908 10.9912 168.863 10.9206C168.917 10.7461 170.177 10.1433 170.3 9.88302C170.409 9.65027 170.305 9.36714 170.074 9.2636C169.809 9.14423 169.634 9.29735 169.414 9.4308C169.198 9.5631 168.982 9.70229 168.762 9.82987C168.694 9.86898 168.636 9.93019 168.562 9.95951L168.559 9.94668Z" fill="white"/>
<path d="M163.972 14.1789L163.987 14.1722C164.275 14.3522 164.256 14.3012 164.261 14.5821C164.266 14.8384 164.258 15.095 164.263 15.3472C164.263 15.3552 164.307 15.6939 164.307 15.6939C164.335 15.6241 164.34 15.4567 164.427 15.5954C164.522 15.5124 164.391 15.4409 164.609 15.2616L164.617 15.2654L164.62 15.2777C164.629 15.2647 164.628 15.2554 164.629 15.2398C164.681 15.1901 164.792 15.1443 164.8 15.1127C164.849 14.8917 165.037 14.8611 165.085 14.7561C165.122 14.6817 165.139 14.6446 165.168 14.7427L165.174 14.7474L165.172 14.7538L165.166 14.7376C165.177 14.723 165.177 14.7069 165.188 14.6913L165.205 14.6852L165.212 14.6897C165.212 14.8131 165.174 15.356 165.199 15.4473L165.205 15.4458C165.207 15.4273 165.209 15.4089 165.212 15.3905C165.218 15.5623 165.212 15.7365 165.212 15.9085C165.351 16.0458 165.482 16.1923 165.616 16.334L166.208 16.9516C166.32 17.0696 166.489 17.211 166.579 17.34C166.783 17.6318 166.565 18.0484 166.225 18.0769C165.905 18.1041 165.472 17.5229 165.212 17.2916V18.2594C165.212 18.4278 165.231 18.6542 165.199 18.8151C165.103 19.3056 164.392 19.3188 164.275 18.8353C164.209 18.5578 164.266 17.6252 164.258 17.2916C163.862 17.5234 163.514 18.3588 162.962 17.9993C162.78 17.8806 162.692 17.5555 162.821 17.3689C162.933 17.209 163.135 17.0431 163.278 16.8987C163.593 16.5756 163.93 16.2148 164.258 15.9085V14.3852C164.162 14.3168 164.067 14.2487 163.972 14.1789Z" fill="white"/>
<path d="M166.289 13.1595C166.278 13.0609 166.26 12.4877 166.284 12.4296C166.32 12.3451 167.088 11.907 167.215 11.828C167.296 11.7781 167.512 11.6054 167.594 11.598C167.661 11.592 168.239 11.7772 168.382 11.8349C168.198 11.7872 167.778 11.6858 167.616 11.608C167.468 11.6734 167.334 11.7753 167.196 11.8602L166.683 12.1763C166.549 12.2595 166.407 12.3407 166.289 12.4462V13.1595C166.677 13.4095 167.076 13.6409 167.46 13.8953C167.512 13.9294 167.563 13.9688 167.616 13.9985C167.858 13.9236 168.103 13.8567 168.346 13.7864L169.077 13.574C169.254 13.5245 169.481 13.4375 169.658 13.4205C170.168 13.3714 170.403 14.2057 169.712 14.412C169.423 14.4983 169.132 14.5979 168.839 14.6713C169.165 14.8892 169.521 15.0884 169.854 15.3036C169.974 15.3814 170.114 15.4549 170.214 15.5594C170.549 15.9099 170.179 16.5562 169.753 16.383C169.661 16.3462 169.584 16.2771 169.5 16.2267L168.818 15.8102C168.676 15.7219 168.537 15.6231 168.382 15.5553C168.417 15.7836 168.524 16.496 168.502 16.7052C168.449 17.1938 167.77 17.1567 167.601 16.7464C167.542 16.6072 167.528 16.4389 167.498 16.291L167.304 15.3449C167.274 15.1891 167.255 15.0237 167.212 14.8716C167.138 14.8007 167.029 14.7488 166.942 14.6957L166.085 14.175C165.984 14.114 165.884 14.0402 165.775 13.9985C165.646 14.0593 165.333 14.288 165.212 14.3852C165.212 14.7202 165.215 15.0556 165.212 15.3905C165.209 15.4089 165.207 15.4274 165.205 15.4458L165.199 15.4473C165.174 15.356 165.212 14.8132 165.212 14.6897C165.198 14.5945 165.185 14.4649 165.205 14.3705L165.223 14.3602L165.212 14.3618C165.324 14.2736 165.63 14.0462 165.75 13.9875C165.812 13.9572 166.008 14.1069 166.104 14.1396C166.252 14.1898 166.585 13.7373 166.68 13.803C166.735 13.7902 166.718 13.7521 166.759 13.7252C166.784 13.7082 166.821 13.7162 166.846 13.6976C166.848 13.6875 166.8 13.5216 166.794 13.5125C166.704 13.371 166.396 13.3052 166.289 13.1595Z" fill="white"/>
<path d="M164.223 8.31504C164.294 8.11893 164.253 7.19691 164.259 6.93719C164.272 6.23444 165.09 6.25281 165.192 6.78819C165.246 7.05905 165.222 7.99942 165.211 8.31504C165.483 8.1123 165.818 7.56764 166.141 7.50833C166.4 7.46096 166.661 7.67173 166.703 7.92973C166.745 8.18763 166.557 8.32119 166.399 8.48766C166.132 8.77092 165.856 9.04704 165.584 9.32648C165.469 9.44558 165.311 9.5808 165.219 9.71514L165.211 9.72632V11.2683C165.391 11.3871 165.565 11.5136 165.74 11.639C165.827 11.595 165.909 11.5383 165.993 11.4872L167.01 10.8571C167.086 10.8102 167.182 10.7628 167.245 10.7011C167.281 10.5597 167.296 10.4102 167.322 10.2663L167.49 9.32116C167.517 9.16649 167.531 8.97651 167.583 8.83164C167.76 8.34509 168.458 8.45579 168.515 8.92778C168.53 9.05425 168.492 9.19739 168.472 9.32206L168.393 9.78496C168.374 9.88915 168.35 9.99334 168.339 10.0986C168.413 10.0484 168.48 9.99171 168.559 9.94661L168.562 9.95944C168.636 9.93012 168.695 9.86891 168.762 9.8298C168.982 9.70222 169.198 9.56304 169.415 9.43073C169.634 9.29728 169.809 9.14416 170.075 9.26353C170.305 9.36707 170.409 9.65021 170.3 9.88296C170.177 10.1433 168.917 10.746 168.863 10.9206C168.908 10.9911 169.516 11.0724 169.604 11.1659C169.628 11.1903 169.62 11.2343 169.637 11.2641L169.661 11.2767C169.67 11.3252 169.673 11.4042 169.64 11.4442L169.632 11.4535C169.547 11.5555 169.115 11.9447 169.047 11.9492C169.034 11.95 168.807 11.925 168.77 11.9202C168.679 11.9081 168.59 11.8684 168.499 11.8476C168.462 11.839 168.417 11.8481 168.382 11.8349C168.238 11.7772 167.66 11.592 167.594 11.598C167.512 11.6054 167.296 11.7781 167.215 11.828C167.087 11.907 166.32 12.3451 166.283 12.4296C166.26 12.4877 166.277 13.0609 166.288 13.1594C166.396 13.3051 166.703 13.371 166.793 13.5125C166.8 13.5215 166.847 13.6875 166.846 13.6976C166.82 13.7162 166.784 13.7082 166.759 13.7252C166.718 13.7521 166.735 13.7902 166.68 13.8029C166.585 13.7373 166.252 14.1898 166.103 14.1396C166.007 14.1068 165.811 13.9572 165.75 13.9874C165.63 14.0461 165.323 14.2735 165.211 14.3618L165.222 14.3601L165.205 14.3705C165.185 14.4649 165.197 14.5945 165.211 14.6897L165.205 14.6852L165.188 14.6913C165.177 14.7069 165.177 14.723 165.166 14.7376L165.172 14.7538L165.173 14.7474L165.167 14.7427C165.139 14.6446 165.121 14.6817 165.085 14.7561C165.036 14.8611 164.848 14.8917 164.799 15.1127C164.791 15.1443 164.681 15.1901 164.629 15.2398C164.627 15.2554 164.629 15.2647 164.619 15.2777L164.616 15.2654L164.608 15.2616C164.39 15.4409 164.521 15.5124 164.427 15.5954C164.34 15.4567 164.335 15.6241 164.307 15.6939C164.307 15.6939 164.262 15.3552 164.262 15.3472C164.258 15.095 164.266 14.8385 164.261 14.5821C164.256 14.3012 164.275 14.3522 163.986 14.1722L163.972 14.1789C163.912 14.1514 163.73 14.0092 163.661 13.9637C163.574 14.0047 163.49 14.0645 163.408 14.1164L162.462 14.7224C162.387 14.7704 162.306 14.8156 162.235 14.8715C162.213 14.9415 162.202 15.0157 162.189 15.0876L161.951 16.2613C161.919 16.4233 161.899 16.608 161.836 16.7604C161.645 17.2215 160.959 17.1006 160.917 16.6086C160.901 16.4349 161.056 15.7718 161.092 15.5553C160.959 15.6262 160.831 15.7145 160.703 15.7947L160.198 16.106C160.066 16.1893 159.919 16.3025 159.769 16.3501C159.327 16.491 158.965 15.8984 159.309 15.5401C159.481 15.3601 160.37 14.8206 160.613 14.6713C160.242 14.5146 159.505 14.4642 159.353 14.1018C159.203 13.74 159.507 13.3417 159.882 13.3962C160.094 13.4269 160.307 13.5124 160.514 13.5692L161.322 13.8004C161.504 13.8511 161.693 13.8876 161.866 13.9637C162.196 13.7548 162.519 13.5398 162.854 13.3401C162.957 13.2796 163.045 13.2066 163.156 13.1594C163.16 12.9221 163.156 12.6836 163.156 12.4461C163.061 12.3618 162.939 12.2975 162.832 12.2305C162.521 12.0349 162.164 11.8462 161.866 11.639C161.746 11.6687 161.627 11.7074 161.507 11.7391L160.402 12.0303C160.235 12.0748 160.012 12.1563 159.848 12.1752C159.456 12.2202 159.189 11.7948 159.361 11.4361C159.478 11.1922 159.715 11.1625 159.949 11.095C160.151 11.0367 160.407 10.9675 160.604 10.8986L160.613 10.8952C160.514 10.791 160.2 10.6158 160.058 10.5311L159.418 10.1421C158.976 9.87085 159.017 9.32155 159.459 9.22335C159.661 9.1787 159.826 9.29351 159.99 9.39207C160.362 9.61461 160.778 9.86136 161.135 10.0986C161.114 9.72404 160.846 9.06956 161.003 8.78539C161.193 8.44517 161.716 8.47394 161.861 8.83164C161.915 8.96385 161.922 9.1617 161.946 9.30559L162.091 10.1714C162.12 10.3444 162.137 10.5227 162.181 10.6925L162.183 10.7011C162.68 10.9895 163.216 11.3227 163.691 11.639C163.857 11.5114 164.114 11.3777 164.258 11.2402C164.275 11.0291 164.269 10.8151 164.269 10.6033V9.72632C164.196 9.61895 164.049 9.48633 163.956 9.38984L163.181 8.60045C163.072 8.49083 162.936 8.37594 162.857 8.24208C162.617 7.83622 163.047 7.33671 163.46 7.55781C163.601 7.63302 163.719 7.78397 163.828 7.89854L164.223 8.31504Z" fill="white"/>
<path d="M178.974 50.1939C179.134 50.0814 179.293 49.97 179.457 49.863C179.569 49.7897 179.658 49.7068 179.795 49.7406C180.035 49.7995 180.081 50.1406 179.847 50.2982C179.656 50.4266 179.312 50.6405 179.151 50.8052C179.347 50.867 179.76 50.9385 179.85 51.1182C179.955 51.321 179.828 51.5964 179.618 51.5887C179.468 51.5832 179.037 51.4212 178.873 51.3741C178.892 51.3823 178.919 51.3767 178.939 51.382C178.991 51.395 179.042 51.4198 179.094 51.4274C179.115 51.4304 179.246 51.446 179.252 51.4455C179.29 51.4427 179.538 51.1995 179.587 51.1357L179.591 51.13C179.61 51.1049 179.609 51.0556 179.603 51.0253L179.59 51.0174C179.58 50.9987 179.584 50.9712 179.571 50.9559C179.52 50.8976 179.173 50.8467 179.148 50.8026C179.178 50.6936 179.898 50.3168 179.969 50.1542C180.03 50.0087 179.972 49.8317 179.839 49.767C179.688 49.6924 179.588 49.7881 179.462 49.8716C179.339 49.9542 179.216 50.0412 179.089 50.1209C179.051 50.1454 179.017 50.1836 178.976 50.2019L178.974 50.1939Z" fill="white"/>
<path d="M176.351 52.8392L176.361 52.8351C176.525 52.9476 176.514 52.9157 176.517 53.0912C176.52 53.2514 176.515 53.4118 176.519 53.5693C176.519 53.5744 176.542 53.7861 176.542 53.7861C176.56 53.7425 176.563 53.6379 176.612 53.7245C176.665 53.6726 176.591 53.6279 176.716 53.5159L176.721 53.5183L176.722 53.5259C176.727 53.5178 176.727 53.512 176.727 53.5023C176.757 53.4712 176.82 53.4426 176.825 53.4228C176.853 53.2848 176.961 53.2655 176.989 53.1999C177.008 53.1535 177.019 53.1302 177.035 53.1915L177.04 53.1945L177.038 53.1985L177.035 53.1884C177.041 53.1792 177.04 53.1693 177.046 53.1595L177.057 53.1557L177.06 53.1585C177.06 53.2356 177.04 53.5748 177.054 53.6319L177.057 53.6309C177.057 53.6194 177.059 53.608 177.06 53.5965C177.063 53.7038 177.06 53.8126 177.06 53.9202C177.139 54.006 177.215 54.0977 177.291 54.1861L177.63 54.5721C177.693 54.6459 177.79 54.7344 177.842 54.8148C177.959 54.9973 177.834 55.2577 177.64 55.2756C177.457 55.2925 177.209 54.9292 177.06 54.7846V55.3895C177.06 55.4947 177.071 55.6363 177.054 55.7368C176.999 56.0434 176.591 56.0516 176.525 55.7494C176.487 55.5761 176.52 54.9931 176.516 54.7846C176.288 54.9295 176.091 55.4516 175.775 55.2269C175.671 55.1528 175.62 54.9496 175.694 54.833C175.759 54.733 175.874 54.6293 175.955 54.5391C176.137 54.337 176.328 54.1117 176.516 53.9202V52.9681C176.46 52.9255 176.407 52.8828 176.351 52.8392Z" fill="white"/>
<path d="M177.676 52.202C177.67 52.1405 177.659 51.7822 177.673 51.7458C177.693 51.6931 178.132 51.4192 178.205 51.3699C178.251 51.3387 178.375 51.2307 178.421 51.2262C178.459 51.2224 178.789 51.3382 178.873 51.3742C178.767 51.3443 178.527 51.281 178.434 51.2323C178.35 51.2732 178.273 51.3369 178.194 51.39L177.902 51.5875C177.824 51.6395 177.744 51.6902 177.676 51.7563V52.202C177.897 52.3582 178.126 52.503 178.345 52.6619C178.375 52.6832 178.404 52.7079 178.434 52.7264C178.573 52.6796 178.712 52.6377 178.851 52.5938L179.269 52.4611C179.37 52.4301 179.5 52.3758 179.601 52.3652C179.893 52.3345 180.027 52.8559 179.632 52.9849C179.466 53.0387 179.301 53.101 179.133 53.147C179.32 53.2832 179.523 53.4077 179.713 53.5421C179.782 53.5908 179.861 53.6368 179.92 53.702C180.111 53.921 179.899 54.325 179.654 54.2166C179.604 54.1937 179.56 54.1506 179.511 54.1191L179.121 53.8588C179.04 53.8036 178.96 53.7418 178.873 53.6995C178.892 53.8422 178.953 54.2874 178.941 54.4181C178.911 54.7235 178.522 54.7003 178.426 54.4438C178.393 54.3569 178.383 54.2517 178.366 54.1593L178.255 53.5679C178.238 53.4706 178.229 53.3672 178.203 53.2721C178.161 53.2277 178.099 53.1953 178.049 53.1621L177.559 52.8367C177.502 52.7986 177.445 52.7524 177.382 52.7264C177.308 52.7645 177.13 52.9074 177.06 52.9681C177.06 53.1775 177.062 53.3871 177.06 53.5965C177.059 53.608 177.057 53.6194 177.057 53.6309L177.054 53.6319C177.04 53.5748 177.06 53.2356 177.06 53.1585C177.052 53.0989 177.046 53.0179 177.057 52.9589L177.066 52.9525L177.06 52.9534C177.123 52.8983 177.3 52.7562 177.368 52.7196C177.403 52.7006 177.515 52.7942 177.57 52.8147C177.654 52.846 177.846 52.5632 177.899 52.6042C177.93 52.5963 177.921 52.5725 177.944 52.5556C177.959 52.545 177.979 52.55 177.995 52.5384C177.995 52.532 177.968 52.4284 177.965 52.4227C177.913 52.3342 177.738 52.2931 177.676 52.202Z" fill="white"/>
<path d="M176.496 49.1742C176.535 49.0518 176.512 48.4754 176.515 48.3131C176.523 47.8739 176.99 47.8854 177.049 48.2201C177.08 48.3893 177.066 48.977 177.06 49.1742C177.214 49.0475 177.407 48.7072 177.592 48.6701C177.739 48.6405 177.889 48.7723 177.912 48.9334C177.936 49.0946 177.829 49.1782 177.739 49.2821C177.585 49.4593 177.428 49.6318 177.273 49.8064C177.207 49.8808 177.116 49.9653 177.064 50.0494L177.06 50.0563V51.0201C177.162 51.0942 177.262 51.1734 177.363 51.2518C177.412 51.2243 177.459 51.1889 177.506 51.1568L178.088 50.7631C178.13 50.7337 178.185 50.7041 178.222 50.6656C178.242 50.5771 178.25 50.4837 178.266 50.3938L178.362 49.8031C178.376 49.7064 178.384 49.5877 178.414 49.4972C178.515 49.193 178.915 49.2622 178.948 49.5572C178.956 49.6362 178.935 49.7258 178.923 49.8037L178.877 50.093C178.868 50.1581 178.853 50.2232 178.847 50.2891C178.89 50.2576 178.928 50.2222 178.973 50.194L178.975 50.202C179.016 50.1837 179.051 50.1455 179.089 50.121C179.215 50.0413 179.338 49.9543 179.461 49.8716C179.588 49.7882 179.687 49.6925 179.839 49.767C179.971 49.8318 180.03 50.0088 179.968 50.1543C179.897 50.3169 179.177 50.6937 179.147 50.8027C179.172 50.8468 179.52 50.8977 179.57 50.956C179.583 50.9713 179.58 50.9988 179.589 51.0175L179.602 51.0254C179.608 51.0557 179.61 51.105 179.591 51.1301L179.586 51.1358C179.537 51.1996 179.289 51.4428 179.251 51.4456C179.245 51.4461 179.114 51.4305 179.093 51.4275C179.041 51.4199 178.991 51.3951 178.939 51.3821C178.918 51.3768 178.891 51.3824 178.872 51.3742C178.789 51.3382 178.459 51.2224 178.421 51.2262C178.375 51.2308 178.25 51.3387 178.204 51.37C178.132 51.4193 177.693 51.6931 177.672 51.7458C177.658 51.7822 177.669 52.1405 177.675 52.202C177.737 52.2932 177.912 52.3342 177.964 52.4227C177.968 52.4284 177.994 52.5321 177.994 52.5384C177.979 52.5501 177.958 52.545 177.944 52.5556C177.92 52.5725 177.93 52.5964 177.898 52.6043C177.846 52.5632 177.653 52.846 177.57 52.8147C177.514 52.7942 177.402 52.7006 177.368 52.7196C177.3 52.7562 177.123 52.8983 177.06 52.9534L177.066 52.9525L177.057 52.959C177.045 53.0179 177.052 53.099 177.06 53.1585L177.057 53.1557L177.045 53.1595C177.039 53.1693 177.041 53.1792 177.034 53.1884L177.038 53.1985L177.039 53.1945L177.034 53.1915C177.019 53.1302 177.008 53.1535 176.989 53.1999C176.96 53.2655 176.853 53.2848 176.824 53.4229C176.82 53.4426 176.757 53.4712 176.727 53.5023C176.727 53.512 176.727 53.5178 176.722 53.5259L176.72 53.5183L176.715 53.5159C176.591 53.6279 176.665 53.6726 176.611 53.7245C176.562 53.6379 176.559 53.7425 176.542 53.7861C176.542 53.7861 176.518 53.5744 176.518 53.5693C176.515 53.4118 176.52 53.2514 176.516 53.0912C176.513 52.9157 176.524 52.9476 176.36 52.8351L176.351 52.8392C176.318 52.822 176.213 52.7332 176.174 52.7047C176.123 52.7303 176.076 52.7676 176.03 52.8002L175.489 53.1789C175.446 53.2089 175.399 53.237 175.359 53.2721C175.346 53.3159 175.34 53.3622 175.332 53.4072L175.196 54.1408C175.178 54.2419 175.166 54.3574 175.13 54.4527C175.021 54.7407 174.63 54.6652 174.606 54.3577C174.596 54.2492 174.685 53.8348 174.705 53.6995C174.63 53.7437 174.557 53.7989 174.484 53.8491L174.195 54.0436C174.12 54.0958 174.036 54.1664 173.951 54.1963C173.696 54.2843 173.49 53.9139 173.687 53.69C173.785 53.5775 174.293 53.2402 174.432 53.147C174.221 53.049 173.799 53.0174 173.712 52.791C173.627 52.5649 173.799 52.3159 174.014 52.35C174.135 52.3692 174.257 52.4227 174.375 52.4581L174.838 52.6027C174.941 52.6343 175.05 52.6572 175.148 52.7047C175.335 52.5742 175.522 52.4398 175.713 52.315C175.771 52.2772 175.822 52.2315 175.885 52.202C175.888 52.0538 175.885 51.9046 175.885 51.7563C175.831 51.7035 175.762 51.6634 175.7 51.6215C175.522 51.4992 175.318 51.3813 175.148 51.2518C175.08 51.2703 175.012 51.2946 174.944 51.3143L174.312 51.4964C174.216 51.5242 174.09 51.575 173.995 51.5869C173.771 51.615 173.619 51.3491 173.717 51.1249C173.783 50.9726 173.919 50.9539 174.052 50.9118C174.169 50.8753 174.314 50.8321 174.426 50.789L174.432 50.7869C174.375 50.7217 174.195 50.6123 174.115 50.5593L173.749 50.3163C173.496 50.1467 173.521 49.8034 173.774 49.7419C173.888 49.7141 173.982 49.7858 174.077 49.8475C174.289 49.9865 174.525 50.1407 174.731 50.2891C174.718 50.0549 174.565 49.6459 174.655 49.4683C174.764 49.2556 175.062 49.2736 175.144 49.4972C175.176 49.5798 175.181 49.7035 175.193 49.7934L175.277 50.3346C175.293 50.4427 175.304 50.554 175.329 50.6602V50.6656C175.613 50.8459 175.92 51.0541 176.191 51.2518C176.286 51.172 176.433 51.0886 176.515 51.0026C176.524 50.8707 176.521 50.7369 176.521 50.6044V50.0563C176.48 49.9892 176.396 49.9064 176.343 49.846L175.899 49.3526C175.838 49.2842 175.76 49.2123 175.714 49.1287C175.577 48.875 175.822 48.5628 176.059 48.701C176.139 48.7481 176.207 48.8424 176.27 48.914L176.496 49.1742Z" fill="white"/>
<path d="M93.5365 69.8277C93.7367 69.6926 93.9367 69.5587 94.141 69.4306C94.2814 69.3426 94.3912 69.2429 94.5631 69.2835C94.8639 69.3545 94.9204 69.7637 94.6282 69.9528C94.3899 70.1068 93.9604 70.3636 93.7583 70.5611C94.0026 70.6354 94.5192 70.7212 94.6334 70.9368C94.7621 71.1801 94.6042 71.5105 94.3416 71.5012C94.1546 71.4946 93.6161 71.3004 93.4102 71.2438C93.4346 71.2538 93.4675 71.247 93.4938 71.2533C93.5584 71.2689 93.6219 71.2988 93.6876 71.3078C93.7136 71.3114 93.8763 71.3301 93.8853 71.3294C93.9328 71.3261 94.2421 71.0343 94.303 70.9578L94.3084 70.9509C94.3321 70.9207 94.3299 70.8616 94.3231 70.8253L94.3065 70.8158C94.2942 70.7934 94.2999 70.7603 94.2833 70.742C94.2198 70.672 93.7859 70.611 93.7541 70.5581C93.7923 70.4271 94.6926 69.9751 94.7799 69.7798C94.8577 69.6054 94.784 69.393 94.619 69.3153C94.429 69.2258 94.3043 69.3405 94.1478 69.4407C93.9928 69.5399 93.8388 69.6444 93.6819 69.74C93.6337 69.7694 93.5909 69.8152 93.539 69.8373L93.5365 69.8277Z" fill="white"/>
<path d="M90.2602 73.0019L90.2713 72.9968C90.4768 73.1318 90.4634 73.0935 90.4672 73.3043C90.4707 73.4964 90.465 73.6889 90.468 73.878C90.4682 73.884 90.4991 74.1381 90.4991 74.1381C90.5201 74.0858 90.5236 73.9601 90.585 74.0643C90.6527 74.0019 90.5588 73.9483 90.7146 73.8138L90.7205 73.8167L90.723 73.8259C90.7296 73.8162 90.729 73.8093 90.7292 73.7974C90.7672 73.7603 90.8463 73.7258 90.8514 73.7021C90.8864 73.5364 91.0209 73.5135 91.0562 73.4346C91.0811 73.3789 91.0939 73.3511 91.1144 73.4247L91.1192 73.4282L91.1176 73.4331L91.1132 73.4209C91.1215 73.4098 91.1209 73.3978 91.1288 73.3861L91.1413 73.3816L91.1457 73.3849C91.1457 73.4775 91.1193 73.8846 91.1372 73.9532L91.1413 73.9519C91.1427 73.9382 91.1439 73.9243 91.1457 73.9105C91.1498 74.0393 91.1455 74.17 91.1457 74.2991C91.2447 74.4021 91.3385 74.5119 91.4345 74.6181L91.8573 75.0813C91.9374 75.1698 92.058 75.276 92.1223 75.3727C92.2682 75.5915 92.1122 75.904 91.8703 75.9254C91.6405 75.9457 91.3322 75.5098 91.1457 75.3363V76.0622C91.1458 76.1884 91.1593 76.3583 91.1368 76.479C91.0682 76.8468 90.5602 76.8568 90.4772 76.4942C90.4295 76.2861 90.4697 75.5864 90.4642 75.3363C90.1814 75.5101 89.9329 76.1368 89.5391 75.8671C89.4093 75.7781 89.3457 75.5343 89.4387 75.3943C89.5184 75.2744 89.6626 75.1499 89.7638 75.0417C89.9902 74.7993 90.2305 74.5288 90.4642 74.2991V73.1566C90.396 73.1052 90.3276 73.0542 90.2602 73.0019Z" fill="white"/>
<path d="M91.9152 72.2371C91.9074 72.1633 91.8945 71.7334 91.9118 71.6898C91.9369 71.6264 92.4855 71.2978 92.5767 71.2385C92.6345 71.2011 92.7893 71.0717 92.8477 71.0662C92.8952 71.0616 93.3073 71.2005 93.4106 71.2437C93.2787 71.2079 92.9784 71.1319 92.8636 71.0736C92.7575 71.1226 92.6617 71.199 92.5628 71.2627L92.1972 71.4997C92.1015 71.5621 91.9998 71.6231 91.9152 71.7023V72.2371C92.1919 72.4246 92.4773 72.5983 92.7518 72.789C92.7888 72.8146 92.8249 72.8441 92.8636 72.8664C93.0362 72.8103 93.2104 72.7601 93.3841 72.7075L93.9065 72.548C94.0328 72.5109 94.1952 72.4457 94.3212 72.433C94.6865 72.396 94.8542 73.0219 94.3598 73.1766C94.153 73.2413 93.9457 73.3159 93.7368 73.3711C93.9694 73.5344 94.2241 73.6839 94.4615 73.8452C94.5473 73.9037 94.6477 73.9588 94.7189 74.0372C94.9581 74.2999 94.6935 74.7847 94.3889 74.6548C94.3243 74.6272 94.2689 74.5755 94.2092 74.5376L93.722 74.2252C93.6196 74.159 93.5208 74.0849 93.4106 74.034C93.4354 74.2053 93.512 74.7395 93.4957 74.8964C93.4578 75.2629 92.9734 75.2351 92.8519 74.9274C92.8109 74.8229 92.7998 74.6967 92.7785 74.5858L92.6402 73.8762C92.6181 73.7594 92.6056 73.6354 92.5742 73.5212C92.5218 73.4681 92.444 73.4292 92.3814 73.3892L91.7691 72.9988C91.6977 72.953 91.6267 72.8977 91.5485 72.8664C91.456 72.9121 91.2327 73.0835 91.1456 73.1565C91.1457 73.4077 91.1481 73.6592 91.1456 73.9105C91.1438 73.9242 91.1426 73.9381 91.1412 73.9519L91.1371 73.9531C91.1192 73.8846 91.1456 73.4774 91.1456 73.3848C91.135 73.3134 91.1269 73.2162 91.141 73.1454L91.1535 73.1377L91.1461 73.139C91.2255 73.0728 91.4446 72.9021 91.5301 72.8582C91.5743 72.8354 91.7138 72.9478 91.7828 72.9723C91.8885 73.0099 92.1275 72.6705 92.1945 72.7198C92.234 72.7103 92.2216 72.6817 92.2504 72.6615C92.2685 72.6487 92.2947 72.6547 92.3134 72.6408C92.3142 72.6332 92.2797 72.5087 92.2756 72.5019C92.2112 72.3959 91.9919 72.3464 91.9152 72.2371Z" fill="white"/>
<path d="M90.4402 68.6039C90.4912 68.4568 90.4615 67.7652 90.4651 67.5704C90.475 67.0435 91.0586 67.0572 91.1327 67.4587C91.1703 67.6619 91.1532 68.3672 91.1456 68.6039C91.34 68.4517 91.5789 68.0433 91.81 67.9987C91.9946 67.9633 92.1816 68.1213 92.2111 68.3149C92.2405 68.5083 92.1066 68.6084 91.9942 68.7333C91.8029 68.9458 91.606 69.1529 91.412 69.3624C91.3293 69.4517 91.2173 69.5531 91.151 69.6539L91.1456 69.6623V70.8187C91.2738 70.9078 91.3986 71.0028 91.5236 71.0968C91.586 71.0639 91.6447 71.0213 91.7044 70.983L92.4309 70.5104C92.4841 70.4752 92.5531 70.4397 92.5983 70.3934C92.6238 70.2873 92.6346 70.1752 92.6532 70.0673L92.7737 69.3585C92.7926 69.2425 92.8023 69.1 92.8398 68.9913C92.9661 68.6263 93.4646 68.7094 93.5052 69.0633C93.5161 69.1583 93.4897 69.2656 93.4746 69.3591L93.4179 69.7062C93.4046 69.7844 93.3884 69.8625 93.3798 69.9415C93.4334 69.9039 93.4801 69.8614 93.5369 69.8276L93.5395 69.8372C93.5914 69.8151 93.6342 69.7693 93.6824 69.7399C93.8393 69.6443 93.9933 69.5398 94.1483 69.4406C94.3048 69.3405 94.4295 69.2257 94.6195 69.3152C94.7845 69.3929 94.8582 69.6053 94.7804 69.7797C94.693 69.975 93.7927 70.427 93.7545 70.558C93.7864 70.6109 94.2203 70.6719 94.2838 70.7419C94.3004 70.7602 94.2947 70.7933 94.307 70.8157L94.3236 70.8252C94.3304 70.8615 94.3326 70.9206 94.3089 70.9508L94.3035 70.9577C94.2426 71.0342 93.9333 71.326 93.8857 71.3294C93.8767 71.33 93.7141 71.3113 93.688 71.3077C93.6224 71.2987 93.5589 71.2688 93.4943 71.2532C93.4679 71.2469 93.4351 71.2537 93.4106 71.2437C93.3074 71.2004 92.8953 71.0615 92.8477 71.0661C92.7893 71.0717 92.6346 71.2011 92.5768 71.2385C92.4855 71.2978 91.937 71.6264 91.9119 71.6898C91.8945 71.7334 91.9075 72.1633 91.9152 72.2371C91.9919 72.3464 92.2113 72.3959 92.2757 72.5019C92.2798 72.5087 92.3142 72.6332 92.3134 72.6408C92.2948 72.6547 92.2686 72.6487 92.2504 72.6615C92.2217 72.6817 92.234 72.7103 92.1945 72.7198C92.1276 72.6705 91.8885 73.0099 91.7829 72.9722C91.7139 72.9478 91.5743 72.8354 91.5301 72.8582C91.4447 72.9021 91.2255 73.0727 91.1461 73.1389L91.1535 73.1377L91.141 73.1454C91.127 73.2162 91.135 73.3134 91.1456 73.3848L91.1412 73.3815L91.1287 73.386C91.1208 73.3977 91.1215 73.4097 91.1131 73.4208L91.1175 73.433L91.1191 73.4281L91.1144 73.4246C91.0938 73.351 91.081 73.3788 91.0561 73.4346C91.0209 73.5134 90.8864 73.5363 90.8513 73.702C90.8463 73.7257 90.7671 73.7602 90.7291 73.7973C90.7289 73.8092 90.7296 73.8161 90.7229 73.8258L90.7204 73.8166L90.7146 73.8138C90.5587 73.9482 90.6527 74.0018 90.5849 74.0642C90.5235 73.9601 90.52 74.0857 90.499 74.138C90.499 74.138 90.4681 73.8839 90.4679 73.8779C90.4649 73.6888 90.4706 73.4963 90.4671 73.3042C90.4634 73.0934 90.4768 73.1317 90.2712 72.9967L90.2601 73.0018C90.2181 72.9811 90.0876 72.8744 90.0382 72.8403C89.9756 72.8711 89.9163 72.9158 89.8578 72.9549L89.1819 73.4093C89.1277 73.4453 89.0701 73.4793 89.02 73.5211C89.0044 73.5736 88.9967 73.6294 88.9866 73.6832L88.8167 74.5636C88.7938 74.685 88.7791 74.8235 88.7343 74.9379C88.5981 75.2836 88.109 75.1929 88.0776 74.824C88.0665 74.6937 88.1774 74.1964 88.2037 74.034C88.1088 74.0872 88.0174 74.1535 87.9262 74.2136L87.5654 74.447C87.47 74.5096 87.3656 74.5944 87.2587 74.6301C86.9425 74.7358 86.6837 74.2912 86.9295 74.0226C87.053 73.8877 87.6884 73.4831 87.8613 73.371C87.596 73.2535 87.0694 73.2157 86.9617 72.9438C86.8544 72.6725 87.0704 72.3739 87.3389 72.4147C87.4902 72.4377 87.6423 72.5019 87.79 72.5444L88.3683 72.7179C88.4974 72.7559 88.633 72.7833 88.756 72.8403C88.9913 72.6837 89.2228 72.5224 89.4625 72.3726C89.5351 72.3273 89.5987 72.2725 89.677 72.2371C89.6808 72.0592 89.677 71.8801 89.677 71.7022C89.6096 71.6389 89.5231 71.5907 89.4467 71.5404C89.224 71.3938 88.9695 71.2523 88.756 71.0968C88.6702 71.1191 88.586 71.1481 88.5004 71.1718L87.7105 71.3902C87.5909 71.4237 87.4321 71.4848 87.3143 71.4991C87.0347 71.5327 86.8443 71.2137 86.9669 70.9446C87.0505 70.7617 87.2193 70.7394 87.3865 70.6888C87.5309 70.6451 87.7138 70.5932 87.8543 70.5416L87.8613 70.5389C87.7905 70.4608 87.5657 70.3294 87.4651 70.2659L87.0075 69.974C86.6917 69.7707 86.7217 69.3588 87.0377 69.285C87.1812 69.2517 87.2988 69.3376 87.4165 69.4116C87.682 69.5786 87.9784 69.7636 88.234 69.9415C88.2195 69.6606 88.0272 69.1697 88.1401 68.9567C88.2754 68.7015 88.6487 68.723 88.7524 68.9913C88.7908 69.0905 88.7968 69.2389 88.813 69.3468L88.9171 69.9962C88.9375 70.1259 88.9504 70.2595 88.9815 70.3869L88.9831 70.3934C89.3379 70.6097 89.7197 70.8595 90.0591 71.0968C90.1784 71.001 90.3617 70.9009 90.4641 70.7977C90.4774 70.6394 90.4725 70.4788 90.4725 70.3201L90.4724 69.6623C90.4207 69.5817 90.316 69.4823 90.2497 69.41L89.6952 68.8179C89.6178 68.7356 89.5206 68.6495 89.4642 68.549C89.293 68.2447 89.599 67.8701 89.8951 68.0358C89.9957 68.0923 90.0795 68.2055 90.1578 68.2915L90.4402 68.6039Z" fill="white"/>
<path d="M8.10166 25.4942C8.34204 25.3367 8.58201 25.1806 8.82721 25.0311C8.99558 24.9284 9.12727 24.8121 9.33373 24.8595C9.69465 24.9422 9.76251 25.4197 9.41172 25.6402C9.12583 25.82 8.61037 26.1196 8.36797 26.3501C8.66109 26.4365 9.28096 26.5367 9.41789 26.7882C9.57241 27.0722 9.3829 27.4577 9.06788 27.4468C8.84355 27.439 8.19713 27.2125 7.9502 27.1464C7.97958 27.1581 8.01883 27.1501 8.05055 27.1577C8.12798 27.1758 8.20414 27.2106 8.28304 27.2212C8.31435 27.2254 8.50951 27.2472 8.52023 27.2464C8.57723 27.2427 8.9485 26.9022 9.02154 26.8129L9.02806 26.8047C9.05648 26.7696 9.05382 26.7006 9.04562 26.6582L9.02573 26.6472C9.01106 26.6211 9.01782 26.5825 8.99786 26.5612C8.92169 26.4794 8.40111 26.4083 8.36277 26.3465C8.40861 26.1937 9.48904 25.6664 9.59371 25.4386C9.68729 25.235 9.5987 24.9872 9.40082 24.8965C9.1727 24.7921 9.02314 24.9261 8.83537 25.0428C8.64924 25.1586 8.46446 25.2805 8.27622 25.3922C8.21851 25.4263 8.16714 25.4798 8.10466 25.5054L8.10166 25.4942Z" fill="white"/>
<path d="M4.16956 29.1976L4.18283 29.1918C4.4296 29.3491 4.41345 29.3046 4.41799 29.5504C4.42213 29.7746 4.41528 29.9992 4.41905 30.2199C4.41918 30.2268 4.45633 30.5232 4.45633 30.5232C4.48148 30.4621 4.48571 30.3156 4.55931 30.437C4.64063 30.3643 4.52802 30.3017 4.7149 30.145L4.72194 30.1483L4.72505 30.159C4.7329 30.1477 4.73224 30.1395 4.73243 30.1259C4.77806 30.0824 4.87303 30.0423 4.87905 30.0146C4.92106 29.8212 5.08256 29.7944 5.12476 29.7026C5.15464 29.6375 5.17011 29.6051 5.19465 29.6909L5.20027 29.695L5.19848 29.7005L5.19319 29.6865C5.20313 29.6737 5.20243 29.6596 5.21184 29.646L5.22694 29.6406L5.23215 29.6444C5.23226 29.7525 5.2005 30.2275 5.22206 30.3074L5.22687 30.3061C5.22851 30.29 5.23013 30.2738 5.23215 30.2576C5.23718 30.4081 5.23207 30.5604 5.23215 30.7109C5.35104 30.8312 5.46346 30.9593 5.57884 31.0832L6.08623 31.6237C6.18218 31.7269 6.32691 31.8508 6.40417 31.9636C6.57912 32.2189 6.39196 32.5834 6.10174 32.6084C5.82597 32.6321 5.45588 32.1236 5.23215 31.9212L5.23221 32.7679C5.23235 32.9154 5.24849 33.1135 5.2215 33.2543C5.13926 33.6834 4.52966 33.6949 4.42996 33.272C4.37277 33.0291 4.42106 32.213 4.41433 31.9212C4.07501 32.1239 3.77689 32.8548 3.30436 32.5404C3.14855 32.4366 3.07224 32.1521 3.18387 31.9888C3.27949 31.849 3.45239 31.7038 3.57386 31.5774C3.8457 31.2946 4.13396 30.9791 4.41433 30.7109V29.3781C4.33251 29.3183 4.25056 29.2586 4.16956 29.1976Z" fill="white"/>
<path d="M6.15604 28.3056C6.14679 28.2193 6.13125 27.7178 6.152 27.6669C6.18219 27.593 6.84029 27.2097 6.94992 27.1406C7.01925 27.0969 7.20482 26.9458 7.27506 26.9393C7.33195 26.9341 7.82653 27.0961 7.95056 27.1465C7.79221 27.1048 7.43183 27.0161 7.29408 26.948C7.16682 27.0052 7.05189 27.0945 6.9332 27.1687L6.49442 27.4452C6.37956 27.5181 6.25753 27.589 6.15604 27.6815V28.3056C6.48809 28.5244 6.83049 28.7268 7.16005 28.9494C7.20426 28.9793 7.24769 29.0137 7.29408 29.0396C7.50132 28.9742 7.71023 28.9156 7.9186 28.8541L8.5457 28.6682C8.69712 28.625 8.89201 28.5489 9.04319 28.534C9.48157 28.4911 9.68274 29.221 9.08968 29.4014C8.84147 29.477 8.59259 29.5642 8.34184 29.6283C8.621 29.819 8.92665 29.9933 9.21152 30.1817C9.31457 30.2497 9.43496 30.3141 9.52052 30.4055C9.80754 30.7122 9.49005 31.2777 9.12449 31.126C9.0469 31.0939 8.98054 31.0336 8.9089 30.9895L8.32419 30.625C8.20139 30.5477 8.0827 30.4612 7.95058 30.4019C7.98026 30.6016 8.07205 31.2251 8.05261 31.408C8.0072 31.8356 7.42581 31.8032 7.28022 31.4442C7.23081 31.3224 7.2176 31.175 7.19197 31.0456L7.02609 30.2178C6.99956 30.0815 6.98459 29.9368 6.94682 29.8036C6.88395 29.7416 6.79045 29.6963 6.71556 29.6497L5.9807 29.1942C5.89507 29.1407 5.80973 29.0761 5.71608 29.0396C5.60499 29.0929 5.33709 29.2931 5.23244 29.3781C5.23266 29.6712 5.23559 29.9646 5.23244 30.2576C5.23041 30.2738 5.2288 30.29 5.22716 30.3062L5.22235 30.3074C5.20079 30.2275 5.23255 29.7525 5.23244 29.6445C5.21987 29.5612 5.2102 29.4477 5.22702 29.3653L5.24186 29.3561L5.23313 29.3575C5.32836 29.2804 5.59128 29.0813 5.69395 29.03C5.74686 29.0036 5.91438 29.1346 5.99712 29.1632C6.12391 29.2071 6.41076 28.8112 6.49109 28.8687C6.53856 28.8575 6.52368 28.8241 6.55831 28.8006C6.5801 28.7857 6.61149 28.7927 6.63386 28.7764C6.63481 28.7676 6.59355 28.6223 6.58862 28.6144C6.51134 28.4907 6.24808 28.4331 6.15604 28.3056Z" fill="white"/>
<path d="M4.38597 24.0667C4.44711 23.8951 4.41159 23.0884 4.41602 22.861C4.42797 22.2461 5.12809 22.2622 5.21711 22.7307C5.26214 22.9677 5.24165 23.7905 5.23252 24.0667C5.46576 23.8893 5.75253 23.4127 6.02994 23.3608C6.2514 23.3194 6.47574 23.5038 6.51106 23.7295C6.54635 23.9552 6.38577 24.0721 6.25085 24.2178C6.02128 24.4655 5.78517 24.7072 5.55227 24.9517C5.45302 25.0559 5.31861 25.1743 5.23907 25.2917L5.23252 25.3015V26.6508C5.38645 26.7548 5.53606 26.8654 5.68617 26.9752C5.76107 26.9366 5.83148 26.887 5.90312 26.8423L6.77481 26.291C6.83867 26.25 6.92158 26.2084 6.97573 26.1545C7.00641 26.0306 7.01934 25.8998 7.04158 25.7741L7.18618 24.9471C7.20892 24.8117 7.2205 24.6455 7.26562 24.5187C7.41715 24.0929 8.01535 24.1898 8.06406 24.6028C8.07711 24.7134 8.0455 24.8387 8.02727 24.9479L7.95935 25.3528C7.94337 25.444 7.92377 25.5352 7.91357 25.6273C7.97792 25.5834 8.03386 25.5337 8.10212 25.4942L8.10512 25.5055C8.16759 25.4799 8.21896 25.4263 8.27667 25.3922C8.46491 25.2805 8.6497 25.1586 8.83582 25.0428C9.02359 24.9261 9.17315 24.7921 9.40127 24.8965C9.59915 24.9872 9.68774 25.235 9.59416 25.4386C9.48949 25.6665 8.40906 26.1937 8.36323 26.3465C8.40156 26.4083 8.92214 26.4794 8.99831 26.5612C9.01827 26.5825 9.01151 26.6211 9.02618 26.6472L9.04607 26.6582C9.05427 26.7006 9.05694 26.7696 9.02852 26.8047L9.022 26.8129C8.94895 26.9022 8.57768 27.2427 8.52068 27.2465C8.50996 27.2473 8.3148 27.2254 8.28349 27.2212C8.20459 27.2106 8.12844 27.1758 8.05101 27.1577C8.01928 27.1501 7.98003 27.1581 7.95065 27.1464C7.82662 27.096 7.33203 26.9341 7.27514 26.9393C7.20491 26.9458 7.01934 27.0968 6.95001 27.1406C6.84038 27.2096 6.18227 27.593 6.15208 27.6669C6.13134 27.7178 6.14687 28.2193 6.15613 28.3055C6.24816 28.433 6.51142 28.4907 6.58871 28.6144C6.59364 28.6223 6.63489 28.7675 6.63395 28.7764C6.61157 28.7926 6.58018 28.7857 6.55839 28.8006C6.52377 28.8241 6.53864 28.8574 6.49118 28.8686C6.41084 28.8111 6.12399 29.2071 5.99721 29.1632C5.91447 29.1346 5.74694 29.0036 5.69403 29.03C5.59137 29.0813 5.32844 29.2804 5.23322 29.3575L5.24195 29.3561L5.22711 29.3652C5.21029 29.4477 5.21995 29.5612 5.23252 29.6444L5.22731 29.6406L5.21222 29.646C5.20281 29.6596 5.2035 29.6737 5.19357 29.6865L5.19886 29.7005L5.20064 29.695L5.19502 29.6909C5.17048 29.6051 5.15501 29.6375 5.12514 29.7026C5.08293 29.7944 4.92144 29.8212 4.87942 30.0146C4.87341 30.0423 4.77843 30.0824 4.7328 30.1259C4.73261 30.1394 4.73327 30.1477 4.72543 30.159L4.72232 30.1483L4.71527 30.145C4.52839 30.3017 4.641 30.3643 4.55968 30.437C4.48609 30.3156 4.48186 30.4621 4.45671 30.5232C4.45671 30.5232 4.41955 30.2268 4.41943 30.2199C4.41565 29.9991 4.42251 29.7746 4.41837 29.5504C4.41382 29.3046 4.42997 29.3491 4.1832 29.1918L4.16994 29.1976C4.11957 29.1734 3.96298 29.0491 3.90363 29.0093C3.82862 29.0451 3.75739 29.0974 3.68725 29.1428L2.87604 29.673C2.81108 29.7151 2.742 29.7546 2.68187 29.8035C2.66318 29.8648 2.65383 29.9298 2.64175 29.9927L2.43778 31.0197C2.41041 31.1614 2.39283 31.323 2.33888 31.4564C2.17568 31.8597 1.58855 31.754 1.55095 31.3235C1.5377 31.1715 1.67064 30.5913 1.70234 30.4019C1.58848 30.464 1.47865 30.5412 1.36918 30.6114L0.936166 30.8836C0.821863 30.9566 0.696565 31.0557 0.568246 31.0974C0.188743 31.2206 -0.121757 30.7021 0.173193 30.3886C0.321428 30.2311 1.08377 29.759 1.29127 29.6283C0.973042 29.4913 0.341114 29.4471 0.211979 29.1301C0.0830698 28.8135 0.342321 28.465 0.664465 28.5127C0.846071 28.5395 1.02861 28.6144 1.20581 28.664L1.89981 28.8663C2.05481 28.9107 2.21746 28.9426 2.36515 29.0093C2.64731 28.8265 2.92516 28.6383 3.21275 28.4635C3.29992 28.4106 3.37631 28.3468 3.47018 28.3055C3.47479 28.0979 3.47027 27.889 3.47018 27.6814C3.3894 27.6076 3.28546 27.5514 3.19386 27.4926C2.92672 27.3215 2.62121 27.1564 2.36515 26.9752C2.26206 27.0011 2.16093 27.0351 2.05825 27.0627L1.11045 27.3176C0.966865 27.3564 0.776369 27.4278 0.635005 27.4443C0.299427 27.4838 0.070949 27.1114 0.21822 26.7976C0.3184 26.5841 0.520963 26.5582 0.721608 26.4991C0.894911 26.4481 1.11427 26.3876 1.28293 26.3274L1.29127 26.3244C1.20636 26.233 0.936557 26.0798 0.815913 26.0057L0.266819 25.6654C-0.1121 25.428 -0.0761176 24.9474 0.302975 24.8614C0.475328 24.8224 0.616506 24.9228 0.757601 25.009C1.07619 25.2038 1.43186 25.4197 1.73869 25.6273C1.72131 25.2996 1.49048 24.7268 1.62602 24.4783C1.78825 24.1805 2.23615 24.2058 2.36076 24.5187C2.40682 24.6344 2.4139 24.8076 2.43349 24.9333L2.55829 25.6909C2.58287 25.8423 2.59833 25.9984 2.63563 26.1469L2.63757 26.1545C3.06328 26.4068 3.52146 26.6984 3.92888 26.9752C4.07182 26.8635 4.29183 26.7465 4.41471 26.6262C4.43076 26.4414 4.42478 26.2542 4.42478 26.0689L4.42468 25.3015C4.36266 25.2076 4.23717 25.0915 4.1574 25.0071L3.49208 24.3163C3.39925 24.2204 3.28254 24.12 3.21482 24.0029C3.00952 23.6477 3.37666 23.2107 3.73186 23.4041C3.85266 23.4699 3.95318 23.602 4.04727 23.7022L4.38597 24.0667Z" fill="white"/>
</g>
<defs>
<clipPath id="clip0_258_8559">
<rect width="180" height="79" fill="white"/>
</clipPath>
</defs>
</svg>
