<svg width="29" height="30" viewBox="0 0 29 30" fill="none" xmlns="http://www.w3.org/2000/svg">
<circle cx="14.5" cy="14.7729" r="14.5" fill="#C7E0FF"/>
<path d="M20.8079 10.4528C20.5512 10.2134 20.1347 10.213 19.878 10.4518L11.9881 17.7774L9.1415 14.8992C8.89553 14.6506 8.47965 14.6345 8.21221 14.8635C7.94497 15.0925 7.92786 15.4798 8.17383 15.7286L11.4841 19.0754C11.5441 19.1361 11.6166 19.1849 11.6974 19.2188C11.7781 19.2527 11.8654 19.271 11.9539 19.2728C11.9587 19.2729 11.9634 19.2729 11.968 19.2729C12.142 19.2729 12.3089 19.2087 12.4323 19.0944L20.8067 11.3187C21.064 11.0799 21.0645 10.6922 20.8079 10.4528Z" fill="#4B678A"/>
</svg>
