<svg width="15" height="9" viewBox="0 0 15 9" fill="none" xmlns="http://www.w3.org/2000/svg">
<path d="M1 4C0.723858 4 0.5 4.22386 0.5 4.5C0.5 4.77614 0.723858 5 1 5L1 4ZM14.3536 4.85355C14.5488 4.65829 14.5488 4.34171 14.3536 4.14645L11.1716 0.964467C10.9763 0.769205 10.6597 0.769205 10.4645 0.964467C10.2692 1.15973 10.2692 1.47631 10.4645 1.67157L13.2929 4.5L10.4645 7.32843C10.2692 7.52369 10.2692 7.84027 10.4645 8.03553C10.6597 8.2308 10.9763 8.2308 11.1716 8.03553L14.3536 4.85355ZM1 5L14 5L14 4L1 4L1 5Z" fill="#404040"/>
</svg>
