<svg width="15" height="11" viewBox="0 0 15 11" fill="none" xmlns="http://www.w3.org/2000/svg">
<path d="M1 4.875C0.654822 4.875 0.375 5.15482 0.375 5.5C0.375 5.84518 0.654822 6.125 1 6.125L1 4.875ZM14.4419 5.94194C14.686 5.69787 14.686 5.30214 14.4419 5.05806L10.4645 1.08058C10.2204 0.836506 9.82466 0.836506 9.58058 1.08058C9.33651 1.32466 9.33651 1.72039 9.58058 1.96447L13.1161 5.5L9.58058 9.03553C9.3365 9.27961 9.3365 9.67534 9.58058 9.91942C9.82466 10.1635 10.2204 10.1635 10.4645 9.91942L14.4419 5.94194ZM1 5.5L1 6.125L14 6.125L14 5.5L14 4.875L1 4.875L1 5.5Z" fill="white"/>
</svg>
