<svg width="8" height="11" viewBox="0 0 8 11" fill="none" xmlns="http://www.w3.org/2000/svg">
<path d="M4.5 0.75C4.5 0.473858 4.27614 0.25 4 0.25C3.72386 0.25 3.5 0.473858 3.5 0.75L4.5 0.75ZM3.64645 10.6036C3.84171 10.7988 4.15829 10.7988 4.35355 10.6036L7.53553 7.42157C7.7308 7.22631 7.7308 6.90973 7.53553 6.71447C7.34027 6.5192 7.02369 6.5192 6.82843 6.71447L4 9.54289L1.17157 6.71447C0.976311 6.5192 0.659728 6.5192 0.464466 6.71447C0.269204 6.90973 0.269204 7.22631 0.464466 7.42157L3.64645 10.6036ZM3.5 0.75L3.5 10.25H4.5L4.5 0.75L3.5 0.75Z" fill="white"/>
</svg>
