<svg width="20" height="19" viewBox="0 0 20 19" fill="none" xmlns="http://www.w3.org/2000/svg">
<path d="M2.69108 14.8195C2.05618 14.8195 1.4359 14.6575 0.873759 14.3418C0.584527 14.1929 0.472503 13.8202 0.64529 13.5399C1.21938 12.6225 1.42669 11.5012 1.16384 10.4466C0.891395 9.35327 0.497193 8.43248 0.500015 7.27508C0.509797 3.21449 3.88958 -0.0773897 7.94602 0.00138494C11.8641 0.0803006 15.0931 3.37388 15.0931 7.29295C15.0932 12.4113 9.72906 16.0049 4.99351 14.0283C4.34078 14.5407 3.52035 14.8195 2.69108 14.8195ZM1.9196 13.5699C2.81166 13.8469 3.81494 13.6256 4.50285 12.9605C4.5856 12.8805 4.69086 12.8277 4.80449 12.8092C4.91812 12.7907 5.03469 12.8074 5.13855 12.8571C9.19283 14.7955 13.9644 11.7572 13.9644 7.29295C13.9644 3.96165 11.2543 1.19692 7.92331 1.12986C4.49052 1.06167 1.637 3.84187 1.62873 7.27781C1.62604 8.37712 2.05495 9.25568 2.28935 10.2971C2.5363 11.3945 2.40622 12.555 1.9196 13.5699Z" fill="white"/>
<path d="M17.3089 19.0002C16.4797 19.0002 15.6592 18.7213 15.0066 18.2091C12.4882 19.2601 9.49248 18.7815 7.42755 16.9982C7.19165 16.7945 7.16559 16.4381 7.36928 16.2022C7.57301 15.9663 7.92936 15.9402 8.16526 16.1439C9.99668 17.7256 12.6788 18.0813 14.8615 17.0378C14.9654 16.9882 15.0819 16.9714 15.1956 16.9899C15.3092 17.0084 15.4145 17.0612 15.4972 17.1413C16.1851 17.8063 17.1884 18.0277 18.0805 17.7505C17.5064 16.5532 17.4269 15.1815 17.8717 13.9116C17.8757 13.9002 17.8801 13.8889 17.8848 13.8777C18.2097 13.1119 18.3734 12.2979 18.3714 11.4585C18.3678 9.97856 17.8755 8.60957 16.9476 7.49944C16.7477 7.26024 16.7796 6.90437 17.0187 6.7045C17.2578 6.50457 17.6138 6.53646 17.8137 6.7756C18.897 8.07179 19.496 9.73386 19.5001 11.4558C19.5025 12.442 19.3111 13.3992 18.9314 14.301C18.5325 15.4557 18.7159 16.6921 19.3547 17.7205C19.5277 18.0009 19.4155 18.3736 19.1262 18.5226C18.5642 18.8381 17.9437 19.0002 17.3089 19.0002Z" fill="white"/>
<path d="M7.79644 8.2134C8.28963 8.2134 8.68944 7.8138 8.68944 7.32087C8.68944 6.82794 8.28963 6.42834 7.79644 6.42834C7.30325 6.42834 6.90344 6.82794 6.90344 7.32087C6.90344 7.8138 7.30325 8.2134 7.79644 8.2134Z" fill="white"/>
<path d="M4.50652 8.2134C4.99971 8.2134 5.39952 7.8138 5.39952 7.32087C5.39952 6.82794 4.99971 6.42834 4.50652 6.42834C4.01333 6.42834 3.61353 6.82794 3.61353 7.32087C3.61353 7.8138 4.01333 8.2134 4.50652 8.2134Z" fill="white"/>
<path d="M11.0865 8.2134C11.5797 8.2134 11.9795 7.8138 11.9795 7.32087C11.9795 6.82794 11.5797 6.42834 11.0865 6.42834C10.5933 6.42834 10.1935 6.82794 10.1935 7.32087C10.1935 7.8138 10.5933 8.2134 11.0865 8.2134Z" fill="white"/>
</svg>
