<svg width="20" height="17" viewBox="0 0 20 17" fill="none" xmlns="http://www.w3.org/2000/svg">
<path d="M19.1215 13.5235C18.7478 13.7148 18.2878 13.5685 18.095 13.1929H18.0949C16.9248 10.9125 13.8179 7.64327 9.7685 7.64327C6.13689 7.64327 2.90958 10.3331 1.44208 13.1929C1.24904 13.5671 0.789308 13.7148 0.414784 13.5224C0.0402976 13.33 -0.107909 12.8712 0.0839126 12.4964C1.76998 9.2041 5.47778 6.11693 9.7685 6.11693C14.6619 6.11693 18.1666 9.98436 19.4531 12.4964C19.6451 12.8716 19.4967 13.3315 19.1215 13.5235ZM0.296531 5.32706L1.99626 6.86041C2.31106 7.14442 2.79346 7.116 3.07411 6.80493C3.35641 6.49195 3.33161 6.0094 3.01863 5.72707L1.31891 4.19372C1.00605 3.91146 0.523497 3.93618 0.241049 4.2492C-0.0412467 4.56217 -0.0164438 5.04472 0.296531 5.32706ZM17.5407 6.86041L19.2404 5.32706C19.5534 5.04472 19.5782 4.56217 19.2959 4.2492C19.0135 3.93626 18.531 3.91138 18.218 4.19372L16.5183 5.72707C16.2054 6.00937 16.1805 6.49195 16.4628 6.80493C16.7438 7.11634 17.2263 7.14408 17.5407 6.86041ZM9.76846 3.81789C10.19 3.81789 10.5316 3.47619 10.5316 3.05473V0.763167C10.5316 0.341708 10.19 0 9.76846 0C9.34696 0 9.00529 0.341708 9.00529 0.763167V3.05473C9.00533 3.47622 9.347 3.81789 9.76846 3.81789ZM13.5175 12.8441C13.5175 14.9145 11.8357 16.5989 9.7685 16.5989C7.70131 16.5989 6.01948 14.9145 6.01948 12.8441C6.01948 10.7738 7.70131 9.08939 9.7685 9.08939C11.8357 9.08939 13.5175 10.7738 13.5175 12.8441ZM11.9912 12.8441C11.9912 11.6154 10.9941 10.6157 9.76854 10.6157C8.54293 10.6157 7.54581 11.6154 7.54581 12.8441C7.54581 14.0729 8.54289 15.0725 9.7685 15.0725C10.9941 15.0725 11.9912 14.0729 11.9912 12.8441Z" fill="black"/>
</svg>
