<svg width="23" height="21" viewBox="0 0 23 21" fill="none" xmlns="http://www.w3.org/2000/svg">
<path fill-rule="evenodd" clip-rule="evenodd" d="M10.7115 1.56194C10.9449 1.65873 11.1444 1.82255 11.2847 2.0327C11.4251 2.24286 11.4999 2.4899 11.4999 2.7426V18.0758C11.4998 18.3284 11.4249 18.5754 11.2844 18.7855C11.144 18.9956 10.9445 19.1593 10.7111 19.256C10.4776 19.3527 10.2207 19.378 9.97291 19.3287C9.72508 19.2794 9.49743 19.1578 9.31873 18.9791L4.58206 14.2425H1.27776C0.93888 14.2425 0.613876 14.1079 0.374248 13.8682C0.134621 13.6286 0 13.3036 0 12.9647V7.85365C0 7.51477 0.134621 7.18977 0.374248 6.95014C0.613876 6.71051 0.93888 6.57589 1.27776 6.57589H4.58206L9.31873 1.83922C9.49742 1.66042 9.72513 1.53863 9.97305 1.48928C10.221 1.43992 10.478 1.46521 10.7115 1.56194ZM17.4504 1.37411C17.69 1.13457 18.015 1 18.3538 1C18.6926 1 19.0176 1.13457 19.2572 1.37411C21.5687 3.68431 22.9998 6.88128 22.9998 10.4079C22.9998 13.9345 21.5687 17.1328 19.2572 19.4443C19.0162 19.677 18.6934 19.8058 18.3584 19.8029C18.0234 19.8 17.7029 19.6656 17.466 19.4287C17.2291 19.1918 17.0947 18.8713 17.0918 18.5363C17.0889 18.2013 17.2177 17.8785 17.4504 17.6375C18.4013 16.6895 19.1553 15.5628 19.6691 14.3223C20.1829 13.0818 20.4463 11.7519 20.4442 10.4092C20.4442 7.58532 19.3019 5.03235 17.4504 3.18087C17.2109 2.94125 17.0763 2.61631 17.0763 2.27749C17.0763 1.93867 17.2109 1.61373 17.4504 1.37411ZM13.8356 4.98763C13.9543 4.86883 14.0952 4.77458 14.2503 4.71028C14.4055 4.64598 14.5717 4.61288 14.7396 4.61288C14.9076 4.61288 15.0738 4.64598 15.229 4.71028C15.3841 4.77458 15.525 4.86883 15.6437 4.98763C16.3565 5.69892 16.9218 6.54403 17.3071 7.47443C17.6923 8.40482 17.89 9.40217 17.8887 10.4092C17.8899 11.4162 17.6922 12.4135 17.307 13.3439C16.9217 14.2743 16.3565 15.1194 15.6437 15.8307C15.4039 16.0705 15.0787 16.2052 14.7396 16.2052C14.4006 16.2052 14.0754 16.0705 13.8356 15.8307C13.5959 15.591 13.4612 15.2658 13.4612 14.9267C13.4612 14.5876 13.5959 14.2625 13.8356 14.0227C14.3112 13.5489 14.6883 12.9857 14.9453 12.3655C15.2023 11.7454 15.3341 11.0805 15.3332 10.4092C15.3342 9.73787 15.2024 9.07298 14.9454 8.45281C14.6884 7.83264 14.3112 7.26945 13.8356 6.79567C13.7168 6.677 13.6226 6.53607 13.5583 6.38095C13.494 6.22584 13.4609 6.05957 13.4609 5.89165C13.4609 5.72373 13.494 5.55746 13.5583 5.40234C13.6226 5.24722 13.7168 5.1063 13.8356 4.98763Z" fill="#A0D76A"/>
<path d="M2 1L21 20" stroke="#A0D76A" stroke-width="2" stroke-linecap="round"/>
</svg>
