<svg width="69" height="69" viewBox="0 0 69 69" fill="none" xmlns="http://www.w3.org/2000/svg">
<path d="M41.2578 45.2212L42.9534 46.9175L44.9359 48.8895L45.6997 49.6589L49.6551 45.7007L45.2201 41.2588L41.2578 45.2212Z" fill="#475D8D"/>
<path d="M53.6877 45.6748L67.3374 59.3238C68.3642 60.3478 69.0013 61.7692 68.9972 63.3325C68.9972 64.8985 68.364 66.3185 67.3374 67.3466C66.3134 68.3692 64.8954 69.0002 63.3294 69.0002C62.585 69.0017 61.8477 68.8561 61.1597 68.5717C60.4718 68.2874 59.8468 67.8698 59.3208 67.3431L45.6719 53.6927L53.6877 45.6748Z" fill="#F2C45B"/>
<path d="M51.8047 47.5615L52.9138 46.4502L66.5649 60.1013C67.4267 60.9638 67.9007 62.1109 67.9 63.3319C67.9 64.5562 67.4246 65.7055 66.5649 66.5694C66.4157 66.714 66.2164 66.7952 66.0087 66.7961C65.7997 66.7964 65.5991 66.7142 65.4505 66.5674C65.1466 66.2593 65.1466 65.7659 65.4505 65.4603C66.0197 64.893 66.3309 64.1333 66.3309 63.3299C66.3327 62.9362 66.2561 62.5462 66.1057 62.1825C65.9553 61.8187 65.734 61.4886 65.4547 61.2112L51.8047 47.5615Z" fill="#FFEAB5"/>
<path d="M51.6904 44.4922C51.9512 44.4915 52.2094 44.5426 52.4502 44.6426C52.6909 44.7425 52.9093 44.8892 53.0928 45.0742L53.6914 45.6738L45.6748 53.6924L45.0732 53.0889C44.8888 52.9059 44.7424 52.6881 44.6426 52.4482C44.5428 52.2082 44.4909 51.9504 44.4912 51.6904C44.4904 51.4298 44.5418 51.1715 44.6416 50.9307C44.7415 50.6898 44.8882 50.4707 45.0732 50.2871L50.2861 45.0723C50.6435 44.7118 51.1384 44.4922 51.6904 44.4922ZM25.6289 0C39.7842 0.000173349 51.2577 11.4765 51.2578 25.627C51.2578 39.7823 39.7829 51.2562 25.6289 51.2598C11.4748 51.2564 0 39.782 0 25.627C8.24808e-05 11.4757 11.4748 0 25.6289 0ZM25.6357 2.77441C13.015 2.77486 2.78125 13.009 2.78125 25.627C2.7814 38.2511 13.0151 48.4822 25.6357 48.4824C38.2546 48.4824 48.4902 38.2507 48.4902 25.626C48.49 13.0088 38.2548 2.77441 25.6357 2.77441Z" fill="#6683C2"/>
<path d="M25.6279 2.77344C38.2469 2.77344 48.4822 13.0078 48.4824 25.625C48.4824 38.2497 38.2468 48.4814 25.6279 48.4814C13.0073 48.4813 2.77359 38.2501 2.77344 25.626C2.77344 13.008 13.0072 2.77388 25.6279 2.77344ZM25.6113 4.60352C14.0021 4.60357 4.5861 14.0202 4.58594 25.627C4.58594 37.2418 13.9996 46.6542 25.6113 46.6543C37.2211 46.6543 46.6357 37.2425 46.6357 25.627C46.6356 14.0202 37.2206 4.60352 25.6113 4.60352Z" fill="#A6B9E4"/>
<path d="M25.6271 46.6538C37.2368 46.6538 46.6515 37.2428 46.6515 25.6273C46.6515 14.0203 37.2364 4.60352 25.6271 4.60352C14.0177 4.60352 4.60156 14.0203 4.60156 25.6273C4.60156 37.2421 14.0153 46.6538 25.6271 46.6538Z" fill="#CEE2F2" fill-opacity="0.39"/>
<path d="M26.1764 8.05392C25.8183 7.52267 25.2029 7.19007 24.5255 7.22861C21.6233 7.40489 18.8805 8.22225 16.3741 9.67746C15.4917 10.1936 15.189 11.331 15.7031 12.2177C16.2171 13.0933 17.3561 13.4048 18.2358 12.8838C20.2351 11.7305 22.4234 11.0753 24.7433 10.9339C25.7624 10.8808 26.5463 10.0017 26.4831 8.98327C26.4714 8.63032 26.3531 8.31295 26.1764 8.05392ZM14.2721 14.1494C14.1734 14.0014 14.0447 13.8641 13.9036 13.7471C13.1077 13.0961 11.9406 13.2228 11.2971 14.018C9.40307 16.3433 8.09961 19.1331 7.52415 22.1021C6.84345 25.6284 7.1995 29.2388 8.55161 32.5471C8.94567 33.5007 10.0303 33.9485 10.9763 33.5587C11.9251 33.1743 12.3771 32.0937 11.9886 31.1401C10.9104 28.5019 10.6307 25.6208 11.1782 22.8063C11.626 20.4362 12.6673 18.2109 14.178 16.3551C14.7033 15.7091 14.7172 14.8025 14.2721 14.1494Z" fill="white"/>
</svg>
