<svg width="393" height="80" fill="none" xmlns="http://www.w3.org/2000/svg"><g clip-path="url(#a)"><path fill="#68CCEA" d="M0 0h393v80H0z"/><path opacity=".26" d="M437.35-113.359c-79.102 0-143.227 68.438-143.227 152.86 0 84.423 64.125 152.86 143.227 152.86 79.103 0 143.228-68.437 143.228-152.86 0-84.422-64.125-152.86-143.228-152.86Z" fill="url(#b)"/><path opacity=".58" d="M436.932-91.582c-68.231 0-123.544 58.5-123.544 130.664 0 72.164 55.313 130.664 123.544 130.664 68.232 0 123.545-58.5 123.545-130.664 0-72.163-55.313-130.664-123.545-130.664Z" fill="url(#c)"/><path opacity=".68" d="M437.35-64.782c-55.048 0-99.673 46.687-99.673 104.28 0 57.592 44.625 104.279 99.673 104.279s99.673-46.687 99.673-104.28c0-57.592-44.625-104.28-99.673-104.28Z" fill="url(#d)"/><path d="M436.929-36.3c-42.789 0-77.477 34.124-77.477 76.22s34.688 76.221 77.477 76.221c42.79 0 77.477-34.126 77.477-76.221 0-42.095-34.687-76.22-77.477-76.22Z" fill="url(#e)"/><path d="M436.511-16.201c-31.918 0-57.794 25.312-57.794 56.537 0 31.224 25.875 56.537 57.794 56.537 31.919 0 57.794-25.313 57.794-56.537 0-31.225-25.875-56.538-57.794-56.538Z" fill="url(#f)"/><path opacity=".26" d="M-45.196-113.365c-79.103 0-143.228 68.438-143.228 152.86 0 84.423 64.125 152.86 143.227 152.86 79.103 0 143.228-68.437 143.228-152.86 0-84.422-64.125-152.86-143.227-152.86Z" fill="url(#g)"/><path opacity=".58" d="M-45.623-91.588c-68.231 0-123.544 58.5-123.544 130.664 0 72.164 55.313 130.664 123.544 130.664 68.232 0 123.545-58.5 123.545-130.664 0-72.163-55.313-130.664-123.544-130.664Z" fill="url(#h)"/><path opacity=".68" d="M-45.197-64.79c-55.047 0-99.673 46.688-99.673 104.28s44.626 104.28 99.674 104.28c55.047 0 99.673-46.688 99.673-104.28 0-57.593-44.626-104.28-99.673-104.28Z" fill="url(#i)"/><path d="M-45.618-36.308c-42.789 0-77.477 34.125-77.477 76.22 0 42.096 34.688 76.221 77.477 76.221 42.79 0 77.477-34.125 77.477-76.22 0-42.096-34.687-76.221-77.477-76.221Z" fill="url(#j)"/><path d="M-46.036-16.207c-31.918 0-57.793 25.312-57.794 56.537 0 31.225 25.876 56.537 57.794 56.537 31.919 0 57.794-25.312 57.794-56.537 0-31.225-25.875-56.537-57.794-56.537Z" fill="url(#k)"/></g><defs><radialGradient id="b" cx="0" cy="0" r="1" gradientUnits="userSpaceOnUse" gradientTransform="matrix(0 -170.735 159.976 0 437.35 -10.733)"><stop stop-color="#fff" stop-opacity=".18"/><stop offset="1" stop-color="#fff" stop-opacity=".39"/></radialGradient><radialGradient id="c" cx="0" cy="0" r="1" gradientUnits="userSpaceOnUse" gradientTransform="matrix(0 -145.943 137.991 0 436.932 -3.858)"><stop stop-color="#fff" stop-opacity=".18"/><stop offset="1" stop-color="#fff" stop-opacity=".39"/></radialGradient><radialGradient id="d" cx="0" cy="0" r="1" gradientUnits="userSpaceOnUse" gradientTransform="matrix(0 -116.474 111.328 0 437.35 5.228)"><stop stop-color="#fff" stop-opacity=".18"/><stop offset="1" stop-color="#fff" stop-opacity=".39"/></radialGradient><radialGradient id="e" cx="0" cy="0" r="1" gradientUnits="userSpaceOnUse" gradientTransform="matrix(0 -85.1335 86.5368 0 436.929 14.872)"><stop stop-color="#fff" stop-opacity=".18"/><stop offset="1" stop-color="#fff" stop-opacity=".39"/></radialGradient><radialGradient id="f" cx="0" cy="0" r="1" gradientUnits="userSpaceOnUse" gradientTransform="matrix(0 -63.1485 64.5518 0 436.511 21.756)"><stop stop-color="#fff" stop-opacity=".18"/><stop offset="1" stop-color="#fff" stop-opacity=".39"/></radialGradient><radialGradient id="g" cx="0" cy="0" r="1" gradientUnits="userSpaceOnUse" gradientTransform="matrix(0 -170.735 159.976 0 -45.197 -10.739)"><stop stop-color="#fff" stop-opacity=".18"/><stop offset="1" stop-color="#fff" stop-opacity=".39"/></radialGradient><radialGradient id="h" cx="0" cy="0" r="1" gradientUnits="userSpaceOnUse" gradientTransform="matrix(0 -145.943 137.991 0 -45.623 -3.864)"><stop stop-color="#fff" stop-opacity=".18"/><stop offset="1" stop-color="#fff" stop-opacity=".39"/></radialGradient><radialGradient id="i" cx="0" cy="0" r="1" gradientUnits="userSpaceOnUse" gradientTransform="matrix(0 -116.474 111.328 0 -45.197 5.22)"><stop stop-color="#fff" stop-opacity=".18"/><stop offset="1" stop-color="#fff" stop-opacity=".39"/></radialGradient><radialGradient id="j" cx="0" cy="0" r="1" gradientUnits="userSpaceOnUse" gradientTransform="matrix(0 -85.1335 86.5368 0 -45.618 14.864)"><stop stop-color="#fff" stop-opacity=".18"/><stop offset="1" stop-color="#fff" stop-opacity=".39"/></radialGradient><radialGradient id="k" cx="0" cy="0" r="1" gradientUnits="userSpaceOnUse" gradientTransform="matrix(0 -63.1485 64.5518 0 -46.036 21.75)"><stop stop-color="#fff" stop-opacity=".18"/><stop offset="1" stop-color="#fff" stop-opacity=".39"/></radialGradient><clipPath id="a"><path fill="#fff" d="M0 0h393v80H0z"/></clipPath></defs></svg>