<svg width="744" height="80" fill="none" xmlns="http://www.w3.org/2000/svg"><g clip-path="url(#a)"><path fill="#68CCEA" d="M0 0h744v80H0z"/><path opacity=".26" d="M796.111-131.412c-88.857 0-160.89 76.519-160.89 170.91 0 94.391 72.033 170.91 160.89 170.91 88.856 0 160.889-76.519 160.889-170.91 0-94.391-72.033-170.91-160.889-170.91Z" fill="url(#b)"/><path opacity=".58" d="M795.557-108.031c-76.866 0-139.178 65.801-139.178 146.971 0 81.171 62.312 146.972 139.178 146.972 76.865 0 139.177-65.801 139.177-146.972 0-81.17-62.312-146.971-139.177-146.971Z" fill="url(#c)"/><path opacity=".68" d="M796.109-77.967c-61.8 0-111.899 52.591-111.899 117.466s50.099 117.466 111.899 117.466c61.8 0 111.899-52.591 111.899-117.466S857.909-77.967 796.109-77.967Z" fill="url(#d)"/><path d="M796.665-45.68c-48.579 0-87.961 38.135-87.961 85.177 0 47.042 39.382 85.177 87.961 85.177s87.96-38.135 87.96-85.177c0-47.042-39.381-85.177-87.96-85.177Z" fill="url(#e)"/><path d="M795.554-23.41c-35.665 0-64.578 28.414-64.578 63.465 0 35.05 28.913 63.465 64.578 63.465 35.666 0 64.579-28.415 64.579-63.465 0-35.051-28.913-63.465-64.579-63.465Z" fill="url(#f)"/><path opacity=".26" d="M-60.108-131.41c-88.857 0-160.89 76.519-160.89 170.91 0 94.391 72.033 170.91 160.89 170.91 88.857 0 160.889-76.519 160.889-170.91 0-94.391-72.032-170.91-160.89-170.91Z" fill="url(#g)"/><path opacity=".58" d="M-60.662-108.029c-76.866 0-139.178 65.801-139.178 146.971 0 81.171 62.312 146.972 139.178 146.972S78.516 120.113 78.516 38.942c0-81.17-62.312-146.971-139.178-146.971Z" fill="url(#h)"/><path opacity=".68" d="M-60.11-77.965c-61.8 0-111.899 52.591-111.899 117.466 0 64.874 50.099 117.466 111.9 117.466 61.8 0 111.898-52.592 111.898-117.466C51.79-25.374 1.69-77.965-60.11-77.965Z" fill="url(#i)"/><path d="M-59.546-45.676c-48.579 0-87.961 38.135-87.961 85.177 0 47.042 39.382 85.177 87.96 85.177 48.58 0 87.961-38.135 87.961-85.177 0-47.042-39.381-85.177-87.96-85.177Z" fill="url(#j)"/><path d="M-60.664-23.409c-35.666 0-64.579 28.415-64.579 63.465 0 35.051 28.913 63.465 64.579 63.465 35.665 0 64.578-28.414 64.578-63.465 0-35.05-28.913-63.465-64.578-63.465Z" fill="url(#k)"/></g><defs><radialGradient id="b" cx="0" cy="0" r="1" gradientUnits="userSpaceOnUse" gradientTransform="matrix(0 -190.896 179.703 0 796.111 -16.668)"><stop stop-color="#fff" stop-opacity=".18"/><stop offset="1" stop-color="#fff" stop-opacity=".39"/></radialGradient><radialGradient id="c" cx="0" cy="0" r="1" gradientUnits="userSpaceOnUse" gradientTransform="matrix(0 -164.158 155.453 0 795.557 -9.359)"><stop stop-color="#fff" stop-opacity=".18"/><stop offset="1" stop-color="#fff" stop-opacity=".39"/></radialGradient><radialGradient id="d" cx="0" cy="0" r="1" gradientUnits="userSpaceOnUse" gradientTransform="matrix(0 -131.202 124.984 0 796.109 .896)"><stop stop-color="#fff" stop-opacity=".18"/><stop offset="1" stop-color="#fff" stop-opacity=".39"/></radialGradient><radialGradient id="e" cx="0" cy="0" r="1" gradientUnits="userSpaceOnUse" gradientTransform="matrix(0 -95.1369 98.246 0 796.665 11.505)"><stop stop-color="#fff" stop-opacity=".18"/><stop offset="1" stop-color="#fff" stop-opacity=".39"/></radialGradient><radialGradient id="f" cx="0" cy="0" r="1" gradientUnits="userSpaceOnUse" gradientTransform="matrix(0 -70.8863 72.13 0 795.554 19.198)"><stop stop-color="#fff" stop-opacity=".18"/><stop offset="1" stop-color="#fff" stop-opacity=".39"/></radialGradient><radialGradient id="g" cx="0" cy="0" r="1" gradientUnits="userSpaceOnUse" gradientTransform="matrix(0 -190.896 179.703 0 -60.108 -16.666)"><stop stop-color="#fff" stop-opacity=".18"/><stop offset="1" stop-color="#fff" stop-opacity=".39"/></radialGradient><radialGradient id="h" cx="0" cy="0" r="1" gradientUnits="userSpaceOnUse" gradientTransform="matrix(0 -164.158 155.453 0 -60.662 -9.357)"><stop stop-color="#fff" stop-opacity=".18"/><stop offset="1" stop-color="#fff" stop-opacity=".39"/></radialGradient><radialGradient id="i" cx="0" cy="0" r="1" gradientUnits="userSpaceOnUse" gradientTransform="matrix(0 -131.202 124.984 0 -60.11 .898)"><stop stop-color="#fff" stop-opacity=".18"/><stop offset="1" stop-color="#fff" stop-opacity=".39"/></radialGradient><radialGradient id="j" cx="0" cy="0" r="1" gradientUnits="userSpaceOnUse" gradientTransform="matrix(0 -95.1369 98.246 0 -59.546 11.51)"><stop stop-color="#fff" stop-opacity=".18"/><stop offset="1" stop-color="#fff" stop-opacity=".39"/></radialGradient><radialGradient id="k" cx="0" cy="0" r="1" gradientUnits="userSpaceOnUse" gradientTransform="matrix(0 -70.8863 72.13 0 -60.664 19.2)"><stop stop-color="#fff" stop-opacity=".18"/><stop offset="1" stop-color="#fff" stop-opacity=".39"/></radialGradient><clipPath id="a"><path fill="#fff" d="M0 0h744v80H0z"/></clipPath></defs></svg>