<svg width="320" height="80" fill="none" xmlns="http://www.w3.org/2000/svg"><mask id="a" style="mask-type:alpha" maskUnits="userSpaceOnUse" x="0" y="0" width="320" height="80"><path fill="#D9D9D9" d="M0 0h320v80H0z"/></mask><g mask="url(#a)"><g clip-path="url(#b)"><path fill="#68CCEA" d="M0 0h320v80H0z"/><path opacity=".26" d="M-22.623-46c-46.046 0-83.373 38.28-83.373 85.5S-68.669 125-22.623 125c46.046 0 83.373-38.28 83.373-85.5S23.423-46-22.623-46Z" fill="url(#c)"/><path opacity=".58" d="M-23.052-34.09c-39.703 0-71.888 32.757-71.888 73.164 0 40.407 32.185 73.164 71.888 73.164s71.888-32.756 71.888-73.164c0-40.407-32.185-73.164-71.888-73.164Z" fill="url(#d)"/><path opacity=".68" d="M-22.624-18.777c-31.95 0-57.85 26.091-57.85 58.276-.001 32.185 25.9 58.276 57.85 58.276 31.95 0 57.85-26.09 57.85-58.276 0-32.185-25.9-58.276-57.85-58.276Z" fill="url(#e)"/><path d="M-22.629-2.612c-24.902 0-45.09 19.045-45.09 42.538 0 23.492 20.188 42.537 45.09 42.537 24.903 0 45.09-19.045 45.09-42.537 0-23.493-20.187-42.538-45.09-42.538Z" fill="url(#f)"/><path d="M-23.05 8.447c-18.559 0-33.604 14.093-33.604 31.478 0 17.384 15.045 31.477 33.604 31.477 18.56 0 33.605-14.093 33.605-31.477 0-17.385-15.046-31.478-33.605-31.478Z" fill="url(#g)"/></g><path opacity=".26" d="M345.377-46c-46.046 0-83.373 38.28-83.373 85.5s37.327 85.5 83.373 85.5c46.046 0 83.373-38.28 83.373-85.5S391.423-46 345.377-46Z" fill="url(#h)"/><path opacity=".58" d="M344.948-34.09c-39.703 0-71.888 32.757-71.888 73.164 0 40.407 32.185 73.164 71.888 73.164s71.888-32.756 71.888-73.164c0-40.407-32.185-73.164-71.888-73.164Z" fill="url(#i)"/><path opacity=".68" d="M345.376-18.777c-31.95 0-57.851 26.091-57.851 58.276s25.901 58.276 57.851 58.276 57.851-26.09 57.851-58.276c0-32.185-25.901-58.276-57.851-58.276Z" fill="url(#j)"/><path d="M345.371-2.612c-24.902 0-45.089 19.045-45.089 42.538 0 23.492 20.187 42.537 45.089 42.537 24.903 0 45.09-19.045 45.09-42.537 0-23.493-20.187-42.538-45.09-42.538Z" fill="url(#k)"/><path d="M344.95 8.447c-18.559 0-33.604 14.093-33.604 31.478 0 17.384 15.045 31.477 33.604 31.477 18.559 0 33.605-14.093 33.605-31.477 0-17.385-15.046-31.478-33.605-31.478Z" fill="url(#l)"/></g><defs><radialGradient id="c" cx="0" cy="0" r="1" gradientUnits="userSpaceOnUse" gradientTransform="matrix(0 -95.498 93.1224 0 -22.623 11.402)"><stop stop-color="#fff" stop-opacity=".18"/><stop offset="1" stop-color="#fff" stop-opacity=".39"/></radialGradient><radialGradient id="d" cx="0" cy="0" r="1" gradientUnits="userSpaceOnUse" gradientTransform="matrix(0 -81.7197 80.2943 0 -23.052 15.03)"><stop stop-color="#fff" stop-opacity=".18"/><stop offset="1" stop-color="#fff" stop-opacity=".39"/></radialGradient><radialGradient id="e" cx="0" cy="0" r="1" gradientUnits="userSpaceOnUse" gradientTransform="matrix(0 -65.0907 64.6156 0 -22.624 20.348)"><stop stop-color="#fff" stop-opacity=".18"/><stop offset="1" stop-color="#fff" stop-opacity=".39"/></radialGradient><radialGradient id="f" cx="0" cy="0" r="1" gradientUnits="userSpaceOnUse" gradientTransform="matrix(0 -47.5114 50.3621 0 -22.629 25.947)"><stop stop-color="#fff" stop-opacity=".18"/><stop offset="1" stop-color="#fff" stop-opacity=".39"/></radialGradient><radialGradient id="g" cx="0" cy="0" r="1" gradientUnits="userSpaceOnUse" gradientTransform="matrix(0 -35.1585 37.534 0 -23.05 29.58)"><stop stop-color="#fff" stop-opacity=".18"/><stop offset="1" stop-color="#fff" stop-opacity=".39"/></radialGradient><radialGradient id="h" cx="0" cy="0" r="1" gradientUnits="userSpaceOnUse" gradientTransform="matrix(0 -95.498 93.1224 0 345.377 11.402)"><stop stop-color="#fff" stop-opacity=".18"/><stop offset="1" stop-color="#fff" stop-opacity=".39"/></radialGradient><radialGradient id="i" cx="0" cy="0" r="1" gradientUnits="userSpaceOnUse" gradientTransform="matrix(0 -81.7197 80.2943 0 344.948 15.03)"><stop stop-color="#fff" stop-opacity=".18"/><stop offset="1" stop-color="#fff" stop-opacity=".39"/></radialGradient><radialGradient id="j" cx="0" cy="0" r="1" gradientUnits="userSpaceOnUse" gradientTransform="matrix(0 -65.0907 64.6156 0 345.376 20.348)"><stop stop-color="#fff" stop-opacity=".18"/><stop offset="1" stop-color="#fff" stop-opacity=".39"/></radialGradient><radialGradient id="k" cx="0" cy="0" r="1" gradientUnits="userSpaceOnUse" gradientTransform="matrix(0 -47.5114 50.3621 0 345.371 25.947)"><stop stop-color="#fff" stop-opacity=".18"/><stop offset="1" stop-color="#fff" stop-opacity=".39"/></radialGradient><radialGradient id="l" cx="0" cy="0" r="1" gradientUnits="userSpaceOnUse" gradientTransform="matrix(0 -35.1585 37.534 0 344.95 29.58)"><stop stop-color="#fff" stop-opacity=".18"/><stop offset="1" stop-color="#fff" stop-opacity=".39"/></radialGradient><clipPath id="b"><path fill="#fff" d="M0 0h320v80H0z"/></clipPath></defs></svg>