<svg width="300" height="418" fill="none" xmlns="http://www.w3.org/2000/svg"><path fill="#D6F3BA" d="M0 0h300v418H0z"/><path d="m42.545 56.279 210.8-5.798c5.164-.143 9.364 3.892 9.364 9.012v199.95c0 5.119-4.2 9.017-9.364 8.705L42.548 255.484c-4.309-.257-7.786-4.238-7.786-8.89V64.918c0-4.652 3.48-8.518 7.786-8.636l-.003-.003Z" fill="#B0D37E"/><path d="M38.013 56.279 248.81 50.48c5.164-.143 9.364 3.892 9.364 9.012v199.95c0 5.119-4.2 9.017-9.364 8.705L38.013 255.484c-4.309-.257-7.786-4.238-7.786-8.89V64.918c0-4.652 3.48-8.518 7.786-8.636v-.003Z" fill="#fff"/><path d="M44.325 91.216a.476.476 0 0 1-.477-.474c0-.264.21-.477.474-.48l209.05-1.273c.261 0 .477.21.477.474s-.21.477-.474.48l-209.05 1.273Z" fill="#80C082"/><path d="M126.43 250.55a.477.477 0 0 1-.477-.478V68.663a.476.476 0 1 1 .955 0v181.409a.477.477 0 0 1-.478.478ZM212.341 253.095a.477.477 0 0 1-.478-.477l.309-187.016a.476.476 0 1 1 .955 0l-.309 187.016a.476.476 0 0 1-.477.477ZM82.802 246.894a.477.477 0 0 1-.478-.478V68.873a.477.477 0 1 1 .955 0v177.543a.477.477 0 0 1-.477.478ZM43.352 245.618a.477.477 0 0 1-.477-.478l.337-175.083a.477.477 0 1 1 .955 0L43.83 245.14a.477.477 0 0 1-.478.478ZM169.766 251.781a.476.476 0 0 1-.477-.477V65.857a.476.476 0 1 1 .955 0v185.447a.477.477 0 0 1-.478.477Z" fill="#80C082"/><path d="m46.148 86.933 33.814-.512V73.433l-33.814.712v12.788ZM87.406 86.615l33.814-.512V73.114l-33.814.713v12.788ZM131.316 86.297l33.814-.512V72.796l-33.814.713v12.788ZM174.273 85.979l33.818-.535V71.842l-33.818.747v13.39ZM216.164 85.447l33.814-.556V70.674l-33.814.783v13.99Z" fill="#D5EECF"/><path d="m215.27 111.93 37.396 1.187.178-19.301-37.574.474v17.64Z" fill="#80C082"/><path d="m44.52 163.878 35.799 1.168V144.57l-35.8-.833v20.141ZM44.836 216.07l35.8 1.168v-20.475l-35.8-.837v20.144Z" fill="#D5EECF"/><path d="m129.414 112.739 37.394 1.209V93.472l-37.209.13-.185 19.137Z" fill="#80C082"/><path d="m85.703 195.802 38.024 1.292v-27.476l-38.02-.849-.004 27.033Z" fill="#D5EECF"/><path d="m171.875 172.377 38.02 1.291v-27.472l-38.02-.85v27.031Z" fill="#80C082"/><path d="m129.238 168.558 38.024 1.292v-27.476l-38.024-.846v27.03ZM85.055 139.463l38.02 1.292v-27.473l-38.02-.849v27.03ZM173.004 141.935l37.397 1.28v-27.476l-37.397-.834v27.03ZM86.14 248.529l37.397 1.279v-27.476l-37.396-.833v27.03ZM172.5 221.384l37.397 1.279v-27.476l-37.397-.833v27.03ZM128.742 220.99l38.651 1.307v-27.472l-38.651-.869v27.034ZM214.633 200.607l38.65 1.311v-27.476l-38.65-.866v27.031ZM215.586 143.014l38.65 1.311v-27.476l-38.65-.865v27.03ZM214.945 252.471l38.651 1.311v-27.475l-38.651-.866v27.03Z" fill="#D5EECF"/><path d="m41.14 113.012-8.613-.296V92.352l8.614.296v20.364ZM40.845 216.401l-8.61-.296v-20.364l8.61.296v20.364Z" fill="#80C082"/><path d="m40.845 194.032-8.61-.2v-26.629l8.61.2v26.629ZM40.845 165.173l-8.61-.296v-20.364l8.61.296v20.364ZM40.845 142.18l-8.61-.213v-25.691l8.61.214v25.69ZM40.845 245.274l-8.61-.214v-25.69l8.61.213v25.691Z" fill="#D5EECF"/><path d="M160.125 263.299h-.029l-122.111-7.337c-4.54-.274-8.235-4.474-8.235-9.368V64.918c0-4.9 3.7-8.99 8.25-9.113l210.798-5.8c2.644-.077 5.135.887 7 2.704a9.387 9.387 0 0 1 2.854 6.784l.398 112.381a.477.477 0 0 1-.955 0l-.397-112.385a8.44 8.44 0 0 0-2.565-6.102c-1.68-1.636-3.923-2.501-6.31-2.435L38.026 56.756c-4.038.112-7.321 3.77-7.321 8.159v181.679c0 4.398 3.293 8.171 7.337 8.413l122.112 7.338a.477.477 0 0 1-.029.954Z" fill="#F5D17D"/><path d="M43.491 127.722c-10.822 3.045-24.749 14.758-24.749 36.01 0 15.308 22.55 28.277 22.55 28.277l3.72-9.129s-12.429-9.205-11.834-19.95c.478-8.617 14.37-11.293 14.37-11.293l-4.057-23.912v-.003Z" fill="#B0D37E"/><path d="M48.056 302.367h7.776v-9.129h-7.776v9.129ZM68.744 300.673l7.569 1.786 2.096-8.885-7.568-1.786-2.097 8.885Z" fill="#F1BBA2"/><path d="M41.627 179.963s-2.322 18.359-.54 25.49c1.781 7.127 5.95 73.005 5.95 90.827h10.48l4.735-84.193 14.628 30.549a13.068 13.068 0 0 1 .773 7.863l-8.636 45.784 9.807.678 16.393-50.271c.732-2.491.786-5.135.156-7.656l-13.294-53.178-40.448-5.887-.004-.006Z" fill="#52A5D8"/><path d="M61.746 210.703a.473.473 0 0 1-.373-.178l-5.409-6.762a.478.478 0 0 1 .745-.598l5.409 6.762a.479.479 0 0 1-.372.776Z" fill="#fff"/><path d="M47.546 300.337h9.129l1.352 6.892c.261 1.33-.7 2.577-1.985 2.577h-7.869c-1.285 0-2.246-1.247-1.986-2.577l1.353-6.892h.006Z" fill="#AFAFAF"/><path d="M56.044 310.284h-7.87a2.451 2.451 0 0 1-1.895-.91 2.687 2.687 0 0 1-.554-2.237l1.352-6.892a.477.477 0 0 1 .468-.385h9.129c.229 0 .423.162.468.385l1.352 6.892a2.698 2.698 0 0 1-.554 2.237 2.456 2.456 0 0 1-1.896.91Zm-8.108-9.466-1.279 6.507a1.738 1.738 0 0 0 .357 1.444c.299.363.71.563 1.16.563h7.87c.452 0 .862-.2 1.161-.563.328-.398.458-.926.357-1.444l-1.28-6.507h-8.346Z" fill="#9F9F9F"/><path d="m68.504 298.307-2.5 8.298c-.437 1.445.445 2.969 1.737 3.014l17.175.582c1.063.035 1.486-1.61.59-2.285-2.795-2.1-6.514-5.018-7.536-6.402-2.367-3.207-4.734-.401-4.734-.401s-1.69-2.806-4.735-2.806h.003Z" fill="#AFAFAF"/><path d="M84.953 310.678h-.05l-17.177-.582c-.687-.022-1.33-.385-1.766-.99-.531-.741-.687-1.728-.413-2.638l2.5-8.298c.061-.2.246-.34.459-.34 2.498 0 4.136 1.696 4.804 2.555.471-.395 1.286-.914 2.285-.885 1.012.032 1.941.614 2.765 1.731.764 1.034 3.405 3.271 7.436 6.303.71.532.796 1.423.566 2.072-.235.665-.773 1.072-1.409 1.072Zm-16.097-11.881-2.393 7.945c-.188.617-.08 1.311.274 1.807.264.369.627.579 1.021.592l17.176.583c.318.015.477-.303.525-.436.108-.309.08-.751-.239-.99-2.905-2.183-6.586-5.081-7.63-6.501-.64-.865-1.317-1.317-2.02-1.342-1.089-.035-1.957.957-1.964.967a.475.475 0 0 1-.404.165.477.477 0 0 1-.369-.229c-.016-.025-1.463-2.357-3.974-2.561h-.003Z" fill="#9F9F9F"/><path d="m59.38 122.987-8.454 5.75 23.275-1.114-6.707-4.295-.904-4.159c1.19-.178 2.829-.296 3.35-.945.92-1.145.507-5.113.507-5.113l1.008-.793a.419.419 0 0 0 .22-.267.428.428 0 0 0-.051-.34c-.856-1.365-1.664-1.804-2.043-3.198-.372-1.371-.207-1.161-1.683-4.117l-8.852-.013-.05 6.634s-1.36-.878-2.219.309c-.627.862.76 3.745 1.884 3.745l.725 7.92-.006-.004Z" fill="#F1BBA2"/><path d="M50.93 129.215a.477.477 0 0 1-.268-.872l8.222-5.591-.665-7.29c-.795-.299-1.371-1.314-1.55-1.664-.454-.891-.766-2.081-.276-2.755.617-.853 1.47-.917 2.135-.745l.044-5.921c0-.261.217-.474.478-.474l8.852.012c.181 0 .346.102.426.264 1.26 2.52 1.346 2.778 1.59 3.73.036.136.077.292.128.477.213.779.58 1.225 1.04 1.791.287.35.615.748.946 1.279a.917.917 0 0 1 .105.723.909.909 0 0 1-.414.537l-.773.608c.083.983.267 4.079-.633 5.199-.564.704-1.859.875-3.11 1.044-.012 0-.021 0-.034.006l.75 3.462 6.543 4.188a.476.476 0 0 1-.236.878l-23.275 1.114h-.026Zm7.031-18.035c-.27 0-.563.098-.798.423-.134.184-.083.897.356 1.759.391.767.888 1.225 1.142 1.225a.47.47 0 0 1 .474.433l.726 7.92a.481.481 0 0 1-.207.439l-7.051 4.795 20.09-.961-5.447-3.487a.487.487 0 0 1-.21-.302l-.904-4.159a.478.478 0 0 1 .395-.573c.178-.025.363-.051.554-.076.916-.121 2.166-.29 2.491-.694.582-.722.554-3.306.401-4.766a.488.488 0 0 1 .178-.427l1.009-.792.032-.022a10.36 10.36 0 0 0-.85-1.136c-.493-.602-.958-1.168-1.225-2.145l-.13-.487c-.214-.824-.264-1.018-1.39-3.28l-8.086-.013-.048 6.16a.477.477 0 0 1-.738.398c-.057-.035-.395-.236-.776-.236l.012.004Z" fill="#F5D17D"/><path d="M58.225 118.033c1.782.595 3.545-.802 3.86-1.053 1.237-.983 2.253-2.736 1.753-3.51-.274-.423-.76-.194-1.403-.703-.945-.748-1.213-2.37-.703-2.806.416-.357 1.069.328 1.753 0 .834-.401.407-1.68 1.053-2.807 1.053-1.842 3.513-.731 5.4-2.692 1.234-1.279 1.769-3.414 1.066-4.616-.207-.354-.522-.666-.97-.91-2.973-1.636-3.418.604-6.31.626-5.957.051-8.878 1.244-9.953 3.71-.732 1.674.162 4.344.594 5.636.144.432.45 1.244.704 2.456.276 1.324.19 1.664.35 2.456.111.554.703 3.51 2.806 4.21v.003Z" fill="#5A595A"/><path d="M83.053 126.37s-20.287-5.75-39.56 1.352a435.424 435.424 0 0 0-3.214 21.767c-1.25 10.287-.47 7.004-2.03 22.022-.967 9.333-1.225 10.189-.337 11.834 4.47 8.292 22.493 7.84 29.417 6.087.493-.124 2.526-.662 5.851-1.499a824.162 824.162 0 0 1 9.027-2.221c1.13-.512 2.657-1.419 3.72-3.042 2.383-3.64.789-8.349 0-11.496-2.03-8.079.636-8.254 0-22.992-.223-5.155-.872-12.639-2.874-21.809v-.003Z" fill="#B0D37E"/><path d="m128.281 119.296 2.342-10.124 6.529-5.795s3.714.061-2.367 6.425c0 0 2.905 5.686 1.028 7.945-.548.655-3.675 4.722-3.675 4.722l-3.854-3.173h-.003Z" fill="#F1BBA2"/><path d="M132.135 122.946a.475.475 0 0 1-.302-.108l-3.854-3.172a.479.479 0 0 1-.162-.478l2.342-10.125a.456.456 0 0 1 .15-.248l6.529-5.794a.53.53 0 0 1 .324-.121c.404.007 1.171.21 1.47.929.503 1.203-.569 3.185-3.271 6.059.595 1.26 2.632 5.985.821 8.161-.534.643-3.633 4.668-3.665 4.709a.492.492 0 0 1-.325.185h-.054l-.003.003Zm-3.322-3.831 3.246 2.673c.801-1.041 2.936-3.806 3.385-4.347 1.375-1.654-.318-5.918-1.085-7.423a.478.478 0 0 1 .08-.547c3.551-3.717 3.433-4.974 3.312-5.269-.083-.204-.296-.287-.445-.325l-6.25 5.546-2.24 9.689-.003.003Z" fill="#F5D17D"/><path d="m134.448 121.975-7.102-4.734s-7.44 16.568-18.936 18.257c-11.496 1.69-16.905-9.466-31.784-10.481l-.337 20.625s14.538 12.849 27.39 12.174c12.848-.678 26.375-22.992 30.769-35.841Z" fill="#B0D37E"/><path d="M45.941 189.461c-.022 0-.044 0-.07-.007-.102-.016-10.134-1.581-8.833-10.91a.477.477 0 1 1 .945.13c-1.17 8.397 7.65 9.778 8.025 9.832a.477.477 0 0 1-.067.948v.007ZM69.438 181.569a.479.479 0 0 1-.334-.818c7.799-7.687 9.47-19.746 9.485-19.867a.477.477 0 1 1 .945.124c-.016.124-1.725 12.501-9.762 20.421a.47.47 0 0 1-.334.137v.003Z" fill="#fff"/><path d="M248.599 161.058c-2.53-1.508-9.24 1.015-10.628 5.152-1.136 3.379.557 7.067 1.4 9.485 2.727 7.818-3.468 10.628-1.852 17.959 1.541 6.984-.97 5.864 4.617 14.261 4.458 6.701 16.203 11.258 25.933 6.51 9.253-4.515 15.216-14.64 11.016-22.515-3.777-7.08-10.122-3.36-14.402-10.312-4.219-6.854-.795-10.326-3.805-13.718-4.118-4.636-5.107-2.551-12.276-6.822h-.003Z" fill="#5A595A"/><path d="m272.902 263.43 3.367 4.416c.563.932.327 2.1-.516 2.549l-.973.519c-.79.42-1.817.05-2.323-.837l-3.57-4.617 4.012-2.03h.003Z" fill="#fff"/><path d="M281.426 270.271a1.55 1.55 0 0 1 .401 1.896c-1.146 2.269-3.736 7.37-4.576 8.741-1.088 1.782-3.198 3.322-4.824 3.382-1.626.064-1.571-4.496-1.301-6.456.401-2.908-.426-6.72.111-7.579.312-.499 1.614-.563 2.641-.528a1.774 1.774 0 0 0 1.747-1.257l.376-1.219a.5.5 0 0 1 .732-.283 40.74 40.74 0 0 1 4.696 3.3l-.003.003Z" fill="#DCB864"/><path d="M272.688 274.913a.478.478 0 0 1-.051-.951l2.345-.251a.478.478 0 0 1 .102.948l-2.345.251h-.051v.003Z" fill="#F5D17D"/><path d="m248.917 273.621.312 3.611c.028 1.015-.742 1.852-1.68 1.823l-1.085-.031c-.879-.026-1.579-.802-1.579-1.754l-.28-4.578 4.312.929Z" fill="#fff"/><path d="M249.395 276.819a.62.62 0 0 1 .939-.006c.493.563 1.205 1.524 1.444 2.577.372 1.661 1.002 5.148-.143 5.53-.85.283-9.842-.013-14.293-.175-1.403-.051-2.138-1.715-1.209-2.765.706-.795 2.068-1.623 3.665-2.32 2.396-1.043 3.532-1.966 4.073-2.59a1.146 1.146 0 0 1 1.467-.245l1.441.885c.7.43 1.61.286 2.145-.34l.471-.554v.003Z" fill="#DCB864"/><path d="M244.638 281.782a.48.48 0 0 1-.271-.085l-2.189-1.515a.48.48 0 0 1-.121-.665.48.48 0 0 1 .665-.121l2.189 1.515a.478.478 0 0 1-.27.871h-.003Z" fill="#F5D17D"/><path d="M238.577 231.91s.936 8.931 2.317 15.897c1.101 5.562.404 12.826 2.081 20.946.506 2.45 1.311 6.182 1.311 6.186l5.094.146c.359-.643 2.44-12.203.347-21.946-1.238-5.756 2.205-13.79 1.349-19.021-.675-4.14-2.52-16.17-2.52-16.17l-9.072.054s-1.024 6.752-.913 13.905l.006.003Z" fill="#B0D37E"/><path d="M247.184 218.679c1.63-7.388 11.427-5.18 14.023 7.898 1.018 5.123 3.016 13.695 2.88 17.462-.051 1.422.471 2.807 1.412 3.876 6.654 7.553 6.336 8.413 8.856 16.227.038.124-1.992 3.389-3.424 3.847-5.763-4.394-11.318-14.302-14.382-17.799-3.068-3.5-9.129-24.911-9.129-24.911s-1.235-2.069-.239-6.596l.003-.004Z" fill="#B0D37E"/><path d="m270.902 268.164-.067-.051c-3.898-2.975-7.668-8.406-10.694-12.772-1.457-2.1-2.714-3.914-3.71-5.05-3.036-3.465-8.839-23.838-9.158-24.955-.13-.236-1.206-2.333-.245-6.695.599-2.711 2.326-4.321 4.633-4.321h.051c3.487.035 7.993 3.876 9.651 12.222.191.964.417 2.049.658 3.201 1.041 4.998 2.336 11.219 2.225 14.299-.051 1.365.436 2.702 1.371 3.764 5.874 6.67 6.341 8.165 8.085 13.74.239.763.5 1.603.805 2.545.022.07 0 .137-.063.261-.335.652-2.116 3.354-3.462 3.787l-.08.025Zm-19.241-53.523c-2.144 0-3.761 1.518-4.321 4.073-.97 4.401.207 6.463.22 6.482l.016.038c.06.213 6.087 21.417 9.094 24.851 1.008 1.148 2.268 2.968 3.732 5.078 2.997 4.321 6.723 9.692 10.557 12.648 1.264-.493 3.058-3.242 3.23-3.662-.299-.923-.557-1.751-.792-2.505-1.725-5.523-2.189-7.006-8.019-13.624-.989-1.124-1.505-2.54-1.451-3.987.112-3.042-1.18-9.241-2.217-14.223-.239-1.155-.468-2.241-.659-3.205-1.623-8.171-5.979-11.929-9.342-11.964h-.048Z" fill="#B0D37E"/><path d="M235.888 185.575c-4.697.846-6.851.83-10.733-.977 0 0-4.327-2.393-3.917-3.618l1.257-10.907c.204-1.655.07-3.332-.397-4.932l-1.512-4.258c-.258-.722-1.33-.521-1.308.245l.061 2.209s-.726.009-1.031-.109c-.668-.251-1.174-.814-1.41-1.489-.276-.779-.728-2.023-.916-2.367-.28-.506-.605-1.244-1.19-1.565l-.019-.01a.842.842 0 0 0-1.232.869l.363 2.38a8.172 8.172 0 0 0 2.304 4.559l2.447 2.45c.452.455.588 1.136.347 1.728l-4.156 10.115c-.939 2.336-1.174 4.535-.566 5.979 3.172 7.519 22.744 12.247 22.744 12.247l-1.136-12.546v-.003Z" fill="#F1BBA2"/><path d="M231.67 185.276a.669.669 0 0 0-.337.757l2.263 9.078a37.127 37.127 0 0 1 1.275 8.117l.764 17.103s8.9 6.405 26.34 1.836l1.416-16.161a37.069 37.069 0 0 1 2.24-9.839l2.205-5.854a.779.779 0 0 0-.274-.907c-1.247-.901-4.744-3.271-8.368-4.388-6.151-1.893-21.726-2.765-27.524.255v.003Z" fill="#F5D17D"/><path d="M268.577 192.89a9.154 9.154 0 0 0-1.108-1.61l-1.842 4.884a36.814 36.814 0 0 0-1.706 6.046c-.311 2.09-1.304 3.567-3.633 3.36-2.94-.258-7.271-.869-9.384-4.483-.929-1.591-2.599-3.236-3.544-2.4-.592.525.445 1.42.833 2.104.236.42-.054.557-.531.49-3.287-.462-5.393-3.516-6.284-2.104-.28.443-.159 1.76.35 2.664 1.594 2.819 5.428 3.948 7.764 4.623 4.362 1.257 10.207 7.815 16.759 7.092 4.966-.547 5.243-15.257 2.329-20.666h-.003ZM245.274 175.768l.611 8.213-2.705.7c-.929.242-1.04 1.521-.159 1.909 2.463 1.082 6.717 2.186 11.786.318.875-.321.983-1.514.175-1.982l-1.976-1.142-2.033-9.591-5.696 1.572-.003.003Z" fill="#F1BBA2"/><path d="M252.733 175.384s2.52-.121 2.8-2.151c.43-3.09-2.106-2.514-2.106-2.514s.311-2.685-3.217-2.469a114.69 114.69 0 0 0-5.276.449 1.948 1.948 0 0 0-1.705 1.581c-.309 1.664-.719 4.486-.459 6.774.239 2.094 1.041 3.739 2.995 3.628 5.348-.309 6.965-5.298 6.965-5.298h.003Z" fill="#F1BBA2"/><path d="M175.961 256.554s20.415 7.579 45.221-2.861c0 0 4.028 19.429-17.952 22.76-21.981 3.332-27.247-15.849-27.266-19.896l-.003-.003Z" fill="#DCB55A"/><path d="M211.695 257.69s-.707-12.079-.707-20.692c0-7.615-1.307-11.376-2.262-12.244-.954-.866-5.384-4.379-9.647-4.907-4.267-.528-13.905 1.069-17.514 5.817-3.608 4.747-3.363 29.171-1.326 33.152 2.036 3.98 22.967 4.114 31.456-1.126Z" fill="#B0D37E"/><path d="M224.734 248.071s-4.022 1.549-6.959-3.418c-2.183-3.694-7.108-17.914-9.046-19.896-1.935-1.982-1.696 17.914-1.696 17.914s4.197 9.663 9.778 11.589c5.581 1.925 7.923-6.189 7.923-6.189ZM182.894 224.362s-8.219 6.717-7.074 18.309c.996 10.099 2.937 15.954 13.119 16.918l6.558-4.891s-11.245-5.453-9.95-18.248l-2.653-12.088Z" fill="#B0D37E"/><path d="m189.852 257.094 8.406-3.115c1.222-.331 2.504.124 3.357 1.187l2.097 2.619-13.86-.691Z" fill="#fff"/><path d="M203.712 258.262h-.022l-13.861-.69a.482.482 0 0 1-.448-.404.473.473 0 0 1 .305-.519l8.407-3.115s.028-.01.041-.013c1.407-.379 2.883.137 3.853 1.349l2.097 2.619a.477.477 0 0 1-.372.776v-.003Zm-11.512-1.527 10.475.522-1.435-1.789c-.726-.903-1.811-1.298-2.839-1.03l-6.204 2.297h.003Z" fill="#F2DDAB"/><path d="M192.431 254.352a.477.477 0 0 1-.305-.112c-8.687-7.277-7.605-20.16-7.592-20.291a.476.476 0 0 1 .518-.432.481.481 0 0 1 .433.518c-.013.124-1.044 12.518 7.255 19.47a.476.476 0 0 1-.306.844l-.003.003Z" fill="#9BC263"/><path d="m224.555 246.149 2.565 1.015-16.155 11.703c-.216-1.502 7.589-11.305 13.59-12.715v-.003ZM187.113 261.33l23.852-2.463s-14.717-2.813-23.46-1.129c0 0 .856 1.89-.392 3.595v-.003Z" fill="#FDFFF5"/><path d="M186.612 262.958c-.656 0-1.21-.502-1.26-1.167a1.269 1.269 0 0 1 1.164-1.362l21.071-1.648 2.806-.72 17.065-11.687a1.267 1.267 0 0 1 1.431 2.088l-17.249 11.814a1.222 1.222 0 0 1-.401.181l-3.127.802c-.07.019-.144.029-.217.035l-21.182 1.658c-.035 0-.066.003-.101.003v.003Z" fill="#F2DDAB"/><path d="M192.667 214.486c-1.791.735-3.322 1.34-5.349 1.105-.346-.042-4.664-.599-5.259-3.262-.261-1.168.302-2.246.646-2.787-1.42-.213-2.377-1.432-2.275-2.638.079-.923.773-1.747 1.746-2.075-.639-.639-1.673-1.877-1.944-3.624-.655-4.264 3.895-7.414 4.878-8.047 1.158-.744 3.885-2.501 6.38-1.378 1.158.522 1.839 1.47 2.195 2.094a5.4 5.4 0 0 1 1.89-1.171c2.807-.999 6.145.617 7.818 2.899.401.544 1.423 1.938 1.279 3.688-.121 1.447-.957 2.144-2.001 3.726-1.896 2.876-1.076 3.538-2.533 5.877-2.113 3.392-5.597 4.82-7.477 5.593h.006Z" fill="#5A595A"/><path d="M191.201 213.945c.08.395.662 4.216-.846 5.912-1.509 1.696-2.972 2.167-2.972 2.167s6.927 1.617 10.659.754c3.733-.862 3.246-1.836 3.246-1.836l-2.113-1.107a1.91 1.91 0 0 1-1.015-1.864l.041-.443c.487.096 2.094.341 3.602-.604 2.046-1.283 2.253-3.714 2.275-4.391.045-1.375-.525-1.139-1.008-3.615-.414-2.122-.185-3.207-1.038-4.817a7.368 7.368 0 0 0-.881-1.299c-1.257.061-2.549.376-3.627 1.21-1.149.887-1.035 1.571-2.171 2.259-1.654 1.002-3.162.308-3.659 1.174-.181.318-.245.884.353 1.95 0 0-1.571-1.031-2.647-.397-.42.245-.646.658-.738.964-.35 1.155.681 2.746 2.539 3.983Z" fill="#F1BBA2"/><path d="M197.899 218.012c-2.447 0-4.509-1.966-4.598-2.055a.478.478 0 0 1 .665-.688c.019.019 2.036 1.944 4.193 1.776a.482.482 0 0 1 .513.439.477.477 0 0 1-.439.512 3.72 3.72 0 0 1-.331.013l-.003.003Z" fill="#D9A993"/><path d="M202.656 271.397s14.02-14.455 18.08-18.063c4.06-3.608 6.873-5.944 10.777-3.93 3.904 2.014-1.499 18.859-10.532 24.876-9.034 6.017-14.685 3.354-14.685 3.354l-3.64-6.237Z" fill="#96D6D2"/><path d="m200.42 272.584-3.631 6.857s3.58 4.601 10.739 3.22c7.159-1.381 5.836-3.866 4.397-5.158-1.438-1.292-8.804-5.202-11.502-4.922l-.003.003Z" fill="#DCB864"/><path d="M204.876 283.399c-5.543 0-8.333-3.497-8.467-3.665a.475.475 0 0 1-.044-.516l3.63-6.857a.473.473 0 0 1 .372-.251c2.956-.306 10.427 3.742 11.872 5.04 1.056.948 1.48 1.938 1.222 2.864-.392 1.412-2.304 2.434-5.848 3.115-.977.188-1.891.27-2.74.27h.003Zm-7.516-4.025c.821.891 4.14 3.962 10.074 2.816 4.076-.786 4.951-1.861 5.107-2.434.204-.735-.502-1.505-.942-1.9-1.4-1.26-8.241-4.814-10.885-4.814h-.006l-3.354 6.329.006.003Z" fill="#F5D17D"/><path d="M202.943 278.719c-.026 0-.054 0-.08-.007a.475.475 0 0 1-.391-.55c.464-2.803 1.953-4.706 2.017-4.786a.476.476 0 0 1 .671-.076.476.476 0 0 1 .077.671c-.026.032-1.4 1.808-1.823 4.35a.479.479 0 0 1-.471.398ZM205.625 279.24c-.022 0-.047 0-.07-.006a.473.473 0 0 1-.401-.541c.427-2.883 1.598-4.251 1.645-4.308a.479.479 0 0 1 .723.627c-.023.025-1.044 1.253-1.423 3.821a.474.474 0 0 1-.471.407h-.003Z" fill="#F5D17D"/><path d="m202.655 271.397-5.454 9.209s-18.5-4.652-25.726-11.331c-7.223-6.682-10.726-12.572-6.637-16.959 4.088-4.385 11.875-2.329 16.854 2.618 4.98 4.948 13.466 13.307 20.963 16.463Z" fill="#96D6D2"/><path d="M244.161 146.342a.478.478 0 0 1-.335-.818l1.254-1.234a.477.477 0 1 1 .668.68l-1.253 1.235a.473.473 0 0 1-.334.137ZM239.774 150.666a.478.478 0 0 1-.334-.818l1.253-1.234a.477.477 0 1 1 .669.681l-1.254 1.234a.466.466 0 0 1-.334.137ZM241.045 146.329a.484.484 0 0 1-.338-.14l-1.24-1.247a.48.48 0 0 1 0-.675.48.48 0 0 1 .674 0l1.241 1.247a.48.48 0 0 1-.337.815ZM245.388 150.691a.477.477 0 0 1-.337-.14l-1.241-1.247a.477.477 0 0 1 .675-.674l1.241 1.247a.477.477 0 0 1-.338.814ZM50.063 94.795a.477.477 0 0 1-.334-.817l1.253-1.235a.477.477 0 0 1 .668.68l-1.253 1.236a.469.469 0 0 1-.334.136ZM45.676 99.12a.477.477 0 0 1-.334-.818l1.254-1.235a.477.477 0 0 1 .668.681l-1.254 1.235a.47.47 0 0 1-.334.136ZM46.943 94.782a.48.48 0 0 1-.337-.14l-1.241-1.247a.477.477 0 0 1 .674-.675l1.242 1.248a.48.48 0 0 1 0 .674.48.48 0 0 1-.338.14ZM51.295 99.145a.48.48 0 0 1-.337-.14l-1.241-1.247a.477.477 0 0 1 .675-.675l1.24 1.248a.48.48 0 0 1 0 .674.48.48 0 0 1-.337.14Z" fill="#F5D17D"/><path fill="url(#a)" d="M0 157h300v261H0z"/><defs><linearGradient id="a" x1="150" y1="152.5" x2="150" y2="418" gradientUnits="userSpaceOnUse"><stop stop-color="#fff" stop-opacity="0"/><stop offset="1" stop-color="#F8F7DC"/></linearGradient></defs></svg>