<svg width="352" height="287" fill="none" xmlns="http://www.w3.org/2000/svg"><g clip-path="url(#a)"><path fill="#D6F3BA" d="M0 0h352v287H0z"/><path d="M301.418 147.693c-39.457 61.433-116.336 84.285-171.731 51.039-55.391-33.248-68.304-109.99-28.849-171.425 39.458-61.435 116.341-84.284 171.734-51.04 55.394 33.25 68.307 109.993 28.846 171.426Z" fill="#D6F3BA"/><path fill-rule="evenodd" clip-rule="evenodd" d="M254.483 198.926c-30.878-1.936-60.088-4.505-92.307-6.316-32.909-1.83-66.48-3.555-100.654-5.29-4.159-.201-15.142.192-9.535-9.027-.192-.106 6.382.661 6.267.546-.258-.278-.335-.604-.21-.949.114-.335.421-.699.967-1.073 10.724-7.312 21.697-14.73 33.044-22.023 11.605-7.436 23.565-14.787 35.774-22.204.345-.221.853-.412 1.447-.594a16.005 16.005 0 0 1 1.984-.432 29.573 29.573 0 0 1 2.29-.268h.058a4.7 4.7 0 0 1-.163-2.204l15.468-102.216c.46-3.028 3.507-5.405 6.804-5.328l159.907 4.245c6.028 1.639 8.846 2.559 7.859 9.056l-13.58 89.767-.565 3.719c-.432 3.038-1.783 5.587-2.607 6.641-1.639 2.128-3.901 2.75-4.648 3.306-1.639 1.198-4.782.604-1.543 1.256.144.048.518.182.843.709.46.776.949 8.184.777 8.462-.824 1.342-.422.69-1.198 1.926-.24.393-.489.786-.729 1.169-2.482 3.997-4.82 7.772-7.753 12.612-4.877 8.012-9.89 16.014-14.997 24.035-.192.278-2.205 4.198-3.68 6.852-2.655 4.763-14.452 3.92-19.32 3.623Zm-39.148-36.915 16.751 1.13-.038-.038a2.864 2.864 0 0 0-.585-.23 4.99 4.99 0 0 0-.805-.105h-.028l-15.286-.757h-.009Z" fill="#9EC166"/><path fill-rule="evenodd" clip-rule="evenodd" d="m297.933 139.518-165.418-4.389c-3.306-.086-5.615-2.616-5.146-5.644l15.458-102.207c.46-3.028 3.508-5.414 6.814-5.328l165.408 4.39c3.316.085 5.626 2.615 5.156 5.644L304.747 134.19c-.46 3.028-3.507 5.415-6.814 5.328Z" fill="#C8ED71"/><path fill-rule="evenodd" clip-rule="evenodd" d="m293.238 133.375-154.215-4.092c-3.019-.076-5.118-2.376-4.706-5.136l13.791-91.186c.421-2.76 3.21-4.935 6.219-4.858l154.225 4.082c3.019.086 5.117 2.386 4.705 5.146l-13.79 91.186c-.422 2.76-3.201 4.935-6.22 4.858h-.009Z" fill="#F2FCEF"/><path fill-rule="evenodd" clip-rule="evenodd" d="m313.191 37.705-.383 2.597-165.351-4.39.393-2.577c.46-3.028 3.115-5.424 7.015-5.328l152.969 4.053c4.121.115 5.894 2.06 5.357 5.655v-.01Z" fill="#DBFAC3"/><path fill-rule="evenodd" clip-rule="evenodd" d="M293.938 35.74c-.124.853-.977 1.515-1.897 1.476-.92-.019-1.572-.718-1.438-1.562.125-.843.978-1.514 1.908-1.476.92.02 1.562.72 1.427 1.562Zm11.98.317c-.125.853-.978 1.514-1.898 1.475-.929-.019-1.572-.718-1.437-1.571.124-.834.977-1.505 1.897-1.476.93.02 1.572.728 1.438 1.572Zm-5.99-.154c-.125.844-.977 1.505-1.897 1.476-.93-.019-1.563-.719-1.438-1.572.125-.843.978-1.514 1.907-1.475.911.019 1.553.728 1.428 1.571Z" fill="#fff"/><path fill-rule="evenodd" clip-rule="evenodd" d="M141.829 158.053c16.358 1.025 32.554 2.051 48.577 3.105 15.918 1.035 31.683 2.108 47.333 3.181a1761.319 1761.319 0 0 0-13.628 11.999c-4.456 3.986-8.884 7.992-13.311 11.979-15.966-.978-32.152-1.965-48.425-2.913-16.454-.959-33.091-1.898-49.891-2.837 4.715-4.073 9.497-8.165 14.366-12.238 4.878-4.102 9.899-8.184 14.988-12.276h-.009Z" fill="#FEFEFE"/><path fill-rule="evenodd" clip-rule="evenodd" d="M250.775 198.686c-30.887-1.936-62.541-3.91-94.885-5.654-33.043-1.783-66.901-3.268-101.382-4.801-5.022-.221-5.846-4.936-1.82-10.513 38.534 1.543 76.302 2.99 113.217 4.849 36.023 1.821 71.213 3.929 105.541 5.98-7.082 5.875-16.263 10.407-20.662 10.139h-.009Z" fill="#9EC166"/><path fill-rule="evenodd" clip-rule="evenodd" d="M297.285 138.876a25631.342 25631.342 0 0 0-82.148-3.699c-28.099-1.207-56.552-2.357-85.359-3.517a23.157 23.157 0 0 0-2.31.029c-.814.067-1.571.144-2.281.268-.766.115-1.408.269-1.993.441-.604.182-1.092.374-1.437.585-12.21 7.427-24.17 14.768-35.766 22.204-11.356 7.293-22.319 14.711-33.043 22.032-.556.374-.862.729-.968 1.074-.124.335-.048.661.211.939.268.278.71.508 1.342.69.623.182 1.408.307 2.357.345h.02c36.301 1.754 71.97 3.507 106.921 5.395 34.26 1.84 67.792 3.814 100.577 5.808a12.89 12.89 0 0 0 2.52-.106 12.155 12.155 0 0 0 2.358-.536c.709-.23 1.389-.518 1.888-.863.584-.345.977-.709 1.265-1.121a1419.403 1419.403 0 0 0 14.978-24.035c4.878-8.012 9.89-16.023 14.864-24.035.173-.24.163-.46.019-.671-.163-.211-.383-.402-.757-.575-.364-.172-.843-.316-1.38-.431a13.922 13.922 0 0 0-1.869-.221h-.009Zm-174.551 43.106a4.153 4.153 0 0 1-.92-.143c-.24-.068-.422-.163-.517-.278a.443.443 0 0 1-.192-.374c.029-.144.105-.278.287-.431a1444.016 1444.016 0 0 1 24.294-20.499c.125-.115.336-.23.575-.326.268-.096.518-.182.834-.24.316-.067.632-.115.997-.153.316-.029.661-.038.996-.029 12.765.595 25.473 1.198 38.075 1.812 12.525.603 24.993 1.226 37.394 1.83h.029c.287.019.575.058.814.115.24.058.422.125.575.23.144.086.221.182.24.297 0 .115 0 .23-.125.355-3.009 3.536-6.028 7.082-8.951 10.628a1678.752 1678.752 0 0 0-8.778 10.599c-.105.144-.316.306-.556.431-.239.125-.508.24-.814.326a7.708 7.708 0 0 1-.997.201c-.335.038-.7.058-1.016.029-13.445-.738-26.986-1.505-40.643-2.214-13.761-.728-27.619-1.466-41.591-2.175l-.01.009Z" fill="#C8ED71"/><path fill-rule="evenodd" clip-rule="evenodd" d="M219.008 164.243h-.028c-11.012-.546-22.071-1.092-33.149-1.629a60068.8 60068.8 0 0 0-33.676-1.61c-.268-.019-.584 0-.872.01a6.003 6.003 0 0 0-.843.144 3.496 3.496 0 0 0-.757.22 1.973 1.973 0 0 0-.518.288 1468.015 1468.015 0 0 0-21.697 18.198c-.124.125-.23.259-.23.374-.057.125.02.24.125.335.105.096.259.183.47.24.239.058.498.115.814.115 12.401.642 24.706 1.284 36.954 1.926 12.132.642 24.207 1.304 36.186 1.965.297.009.633 0 .92-.029.316-.038.585-.105.872-.182.269-.077.518-.182.729-.297.239-.105.373-.24.498-.374a2043.015 2043.015 0 0 1 15.515-18.812c.077-.105.125-.22.096-.316-.019-.106-.076-.192-.201-.278a1.971 1.971 0 0 0-.508-.192 2.832 2.832 0 0 0-.7-.105v.009Z" fill="#FEFEFE"/><path fill-rule="evenodd" clip-rule="evenodd" d="M273.092 140.601c-3.019-.143-6.028-.287-9.066-.421-.105 0-.201 0-.345.009-.076 0-.153.019-.287.039-.077.019-.154.047-.24.076-.048.019-.105.058-.124.096-.393.46-.758.93-1.122 1.39-.028.028-.028.067-.028.095.028.039.047.058.115.087.047.028.095.057.201.067.076.019.182.029.316.029 3.038.153 6.076.306 9.114.44.124 0 .239 0 .345-.009.124-.019.182-.029.287-.048a.78.78 0 0 0 .259-.067c.058-.029.105-.067.144-.096a33.7 33.7 0 0 1 1.073-1.409v-.105s-.077-.058-.105-.077a.552.552 0 0 0-.211-.067 2.15 2.15 0 0 0-.316-.038l-.01.009Zm-120.338-5.184c-3.383-.154-6.737-.317-10.091-.479-.336.047-.681.086-.997.115-.757.479-1.485.948-2.252 1.427.153.096.316.192.498.278 3.23.144 6.45.278 9.699.403.393-.067.786-.144 1.207-.221 1.831-1.274 2.147-1.389 1.946-1.523h-.01Zm125.158 26.296c-3.066-.172-6.162-.325-9.228-.479a1.343 1.343 0 0 0-.269 0c-.115 0-.163.019-.268.048a.946.946 0 0 0-.201.067c-.019.029-.106.067-.125.096-.393.546-.728 1.073-1.102 1.6-.019.039-.019.077-.019.106 0 .038.048.067.096.105.029.029.105.048.153.067.077.02.192.029.268.039 3.086.163 6.23.326 9.335.479a.8.8 0 0 0 .258-.01 1.075 1.075 0 0 0 .47-.115c.048-.028.077-.067.125-.105.345-.518.68-1.064 1.025-1.601.019-.038.019-.067.019-.115-.019-.028-.019-.067-.067-.095a1.28 1.28 0 0 0-.22-.058.88.88 0 0 0-.259-.029h.009Zm-10.378-2.712c.076.01.182.019.239.039.077.019.125.038.182.057a.412.412 0 0 1 .077.106c0 .028 0 .067-.019.095a37.909 37.909 0 0 0-1.073 1.562c0 .039-.077.077-.144.096a.53.53 0 0 1-.211.077c-.077.019-.153.038-.24.038-.076.019-.182.019-.287.019.105 0 .192.01.268.02.048.019.096.048.144.076.057.029.077.048.057.087.048.028.048.067 0 .095-.364.547-.757 1.074-1.102 1.61-.019.039-.048.067-.124.106a.748.748 0 0 1-.211.076c-.077.02-.192.039-.268.048-.106.01-.211.01-.288.01-3.114-.163-6.239-.335-9.353-.489-.106 0-.182-.019-.297-.029-.048-.019-.096-.047-.154-.076-.019-.019-.076-.058-.076-.086v-.106c.393-.527.786-1.054 1.217-1.591.019-.038.076-.067.124-.096a.557.557 0 0 1 .202-.076c.076-.019.163-.039.268-.048.096 0 .182-.01.259 0-.077-.01-.163-.029-.211-.038-.106-.01-.153-.039-.201-.068l-.077-.076c0-.039-.029-.067.019-.106.393-.517.786-1.035 1.15-1.562a.35.35 0 0 1 .144-.096c.077-.019.124-.047.201-.067.106-.019.182-.038.259-.038.077-.01.192-.01.297-.01 3.057.154 6.124.317 9.229.46v-.019Zm-10.772 1.601c3.086.163 6.2.326 9.305.498l-9.305-.498Zm9.305.498-9.305-.498c3.086.163 6.2.326 9.305.498Zm-12.103-.632c-3.124-.163-6.239-.317-9.363-.48h-.288c-.105.02-.191.029-.287.048a2.663 2.663 0 0 0-.211.077c-.058.019-.077.057-.144.105-.412.518-.843 1.055-1.255 1.572-.029.038-.058.077-.029.105 0 .039.029.068.077.087.028.028.076.057.182.076.048.02.163.02.239.029 3.144.153 6.287.326 9.459.479.096.01.182 0 .288-.009.095 0 .153-.019.239-.039.096-.028.182-.048.24-.076.048-.029.096-.067.076-.096a38.71 38.71 0 0 0 1.218-1.591c.028-.038.057-.077.057-.105-.029-.039-.057-.067-.077-.096a1.618 1.618 0 0 1-.191-.058 1.956 1.956 0 0 0-.259-.038l.029.01Zm37.394-19.014a305.466 305.466 0 0 1-4.274-.201c-.106 0-.192 0-.269.01a.917.917 0 0 0-.239.028l-.192.048c-.019.029-.067.058-.067.086-.374.499-.776 1.016-1.073 1.505-.029.029-.029.058-.029.086.048.019.048.048.125.067.028.02.105.039.153.058.077 0 .124.019.239.029 1.409.067 2.856.143 4.303.201.106.009.182 0 .259 0 .077-.01.153-.019.221-.029.067-.019.182-.038.21-.067.048-.029.077-.048.077-.067.364-.518.709-1.016 1.045-1.533.028-.029 0-.058 0-.077a.333.333 0 0 0-.106-.077.482.482 0 0 0-.163-.048c-.067-.009-.124-.019-.23-.028l.01.009Zm-126.711-5.616c.125 0 .24 0 .288.02.076.019.162.047.22.067.019.028.048.048.077.076-.029.039-.058.067-.077.106-.613.441-1.236.901-1.84 1.341a3.555 3.555 0 0 1-.182.087 2.297 2.297 0 0 1-.316.076c-.106.019-.211.039-.336.039-.076.009-.22.009-.345.009-3.239-.124-6.421-.268-9.65-.402-.125 0-.24 0-.288-.029a.961.961 0 0 1-.211-.058c-.028-.028-.047-.057-.047-.086-.029-.029.019-.067.076-.096.623-.44 1.256-.891 1.917-1.332a.552.552 0 0 1 .182-.086c.077-.029.192-.048.287-.077a5.93 5.93 0 0 1 .374-.038c.096-.01.23-.01.307 0 3.201.125 6.402.259 9.564.393v-.01Zm120.185 5.31c.105 0 .201.019.287.038.077.019.144.029.211.057.048.029.067.058.105.087.029.028-.028.067 0 .105-.335.47-.651.949-1.015 1.418 0 .029-.029.067-.115.087-.048.038-.125.057-.24.076a2.47 2.47 0 0 1-.288.048c-.105.01-.201.01-.316 0l-9.123-.431c-.096 0-.182-.019-.288-.029a.606.606 0 0 1-.201-.067c-.048-.029-.077-.057-.115-.086-.019-.029-.019-.067.029-.106.345-.46.68-.939 1.025-1.399.048-.038.096-.067.154-.105.067-.029.153-.048.23-.067.076-.019.163-.039.268-.039.105-.009.201-.019.345-.009 3.038.144 6.028.287 9.037.422h.01Zm-148.743-4.236c-2.962-.106-5.923-.23-8.846-.355-.134 0-.239 0-.373.01-.125.009-.24.028-.365.048a1.766 1.766 0 0 0-.316.067.545.545 0 0 0-.201.096c-1.39.872-2.751 1.725-4.083 2.587-.057.038-.105.077-.105.105 0 .029 0 .058.048.087.029.028.105.048.192.067.095 0 .201.019.316.029 2.99.115 5.999.249 9.008.364h.364c.125-.01.259-.029.364-.048.106-.019.211-.048.317-.077a.788.788 0 0 0 .201-.086c1.284-.872 2.626-1.735 3.958-2.616.057-.029.057-.058.057-.096 0-.029 0-.058-.057-.086a.84.84 0 0 0-.201-.058 1.337 1.337 0 0 0-.269-.038h-.009Zm80.404 19.713c-19.521-.94-39.263-1.86-59.148-2.76-.115 0-.24 0-.365.009-.143 0-.239.029-.345.048a1.161 1.161 0 0 0-.316.086 1.398 1.398 0 0 0-.239.115c-1.333 1.083-2.645 2.157-3.958 3.23-.048.048-.077.086-.077.125 0 .038.029.076.077.105.028.038.076.067.191.086.096.019.211.029.336.039 10.139.469 20.259.948 30.321 1.427 9.986.47 19.943.949 29.852 1.438h.365c.124-.01.201-.029.364-.058.076-.019.191-.057.268-.086.077-.038.153-.076.182-.124 1.026-1.102 2.051-2.214 3.096-3.326.048-.048.076-.076.048-.124 0-.039-.048-.067-.096-.106-.058-.029-.106-.057-.221-.076a1.481 1.481 0 0 0-.335-.039v-.009Zm27.034 1.332c.106 0 .24 0 .317.038a.766.766 0 0 1 .239.077c.048.028.077.067.106.105 0 .048 0 .086-.058.125-.92 1.131-1.801 2.252-2.721 3.363-.029.048-.048.087-.163.125a.927.927 0 0 1-.259.086 3.107 3.107 0 0 1-.345.067c-.106.01-.24.01-.336 0-3.066-.143-6.133-.297-9.171-.45-.124-.01-.239-.019-.316-.048-.077-.019-.125-.048-.211-.077-.057-.038-.077-.076-.077-.115-.028-.048-.028-.086 0-.124.94-1.112 1.879-2.224 2.847-3.354.057-.039.124-.077.201-.115.057-.029.192-.067.24-.087.076-.028.22-.048.373-.057.106-.01.173-.01.307-.01l9.018.46.009-.009Zm-12.209-.604c.106 0 .24 0 .317.038.115.01.143.048.21.067.077.039.106.067.106.115 0 .039-.029.087-.048.125-.949 1.112-1.917 2.223-2.856 3.335-.048.048-.125.096-.153.125-.125.047-.211.067-.317.095-.095.029-.21.048-.335.058-.125.009-.24.009-.345.009-3.977-.21-7.992-.402-11.979-.603a.906.906 0 0 1-.288-.039c-.105-.028-.182-.048-.258-.076-.029-.039-.058-.077-.077-.115 0-.048.019-.087.019-.125 1.026-1.102 2.07-2.223 3.096-3.335.019-.038.095-.077.182-.115.076-.029.191-.057.268-.086.096-.019.24-.038.335-.048.144-.01.269-.019.374-.01 3.891.202 7.83.393 11.759.585h-.01Zm-77.011-3.642c.124 0 .239.029.316.048.105.019.172.039.211.077.048.029.048.067.076.105 0 .039-.048.087-.076.125-1.342 1.073-2.674 2.156-4.016 3.229a.567.567 0 0 1-.201.115c-.115.039-.211.077-.316.106-.125.019-.259.048-.364.057-.125.01-.288.01-.393.01l-12.449-.575c-.125-.01-.24-.01-.335-.038a1.098 1.098 0 0 1-.211-.077c-.029-.029-.058-.067-.058-.105a.657.657 0 0 1 .115-.125 471.705 471.705 0 0 1 4.188-3.23.64.64 0 0 1 .24-.105c.076-.038.182-.067.316-.086.096-.019.24-.048.364-.058.106 0 .259-.009.393-.009 4.063.191 8.146.364 12.219.546l-.019-.01Zm-15.362-.671c-3.144-.143-6.297-.277-9.43-.421-.144 0-.24 0-.393.019-.125 0-.269.019-.393.038a4.326 4.326 0 0 0-.288.087 1.772 1.772 0 0 0-.268.115 653.085 653.085 0 0 0-4.37 3.2c-.058.039-.077.087-.106.125 0 .038.029.077.077.105.029.039.106.058.211.077.048.029.192.038.316.048 3.191.134 6.392.287 9.584.422.143 0 .268 0 .392-.01.125-.019.269-.029.393-.057.125-.02.24-.048.317-.087.076-.028.182-.076.239-.115 1.39-1.063 2.799-2.137 4.217-3.22.077-.048.105-.086.077-.124 0-.039 0-.077-.048-.106a.466.466 0 0 0-.202-.067.97.97 0 0 0-.316-.038l-.009.009Zm-12.574-.565c.106.01.201.029.288.048.124.01.191.038.239.067.029.038.048.067.048.115 0 .038-.048.077-.076.115-1.486 1.073-2.99 2.137-4.428 3.201-.077.038-.153.086-.259.115a1.25 1.25 0 0 1-.316.086 2.424 2.424 0 0 1-.393.058 2.616 2.616 0 0 1-.393.009c-3.22-.144-6.44-.278-9.669-.421-.125-.01-.24-.02-.317-.048-.105-.01-.172-.039-.21-.077-.048-.029-.077-.067-.029-.105 0-.039.029-.077.076-.125 1.515-1.054 3.067-2.118 4.591-3.172.048-.048.124-.086.268-.115a.991.991 0 0 1 .316-.086c.096-.02.259-.039.384-.058.134-.009.239-.009.374 0 3.162.144 6.334.278 9.506.403v-.01Zm-12.717-.546a3907.14 3907.14 0 0 1-9.554-.393c-.125-.01-.24-.01-.365 0-.153.019-.297.029-.421.057-.125.02-.24.048-.336.077-.076.038-.191.077-.268.115-1.6 1.054-3.2 2.108-4.773 3.182-.047.038-.105.086-.105.124 0 .029.029.067.048.115.048.019.115.048.21.067.078.02.192.039.317.048 3.258.134 6.469.278 9.727.422.125 0 .259 0 .393-.01.125-.019.288-.038.393-.057.163-.029.24-.058.335-.086a.96.96 0 0 0 .24-.115c1.552-1.064 3.095-2.128 4.638-3.182.058-.048.077-.086.106-.125 0-.038-.029-.067-.077-.105-.029-.019-.115-.048-.192-.077-.105-.009-.182-.028-.316-.038v-.019Zm21.103-3.393c-8.175-.345-16.321-.68-24.534-1.025a2.449 2.449 0 0 0-.383 0c-.144 0-.24.029-.374.048a2.622 2.622 0 0 0-.335.076c-.077.039-.192.077-.24.115-1.552 1.007-3.095 2.003-4.619 3.01-.048.038-.077.076-.077.115-.019.038-.019.067.029.095a.746.746 0 0 0 .211.077c.077.019.182.029.316.038 8.338.355 16.675.719 24.946 1.074h.393c.124-.01.268-.039.392-.058.106-.019.24-.048.317-.076.076-.039.182-.077.239-.125 1.39-1.006 2.77-2.012 4.159-3.028.077-.048.106-.087.106-.115 0-.029 0-.067-.058-.106a.4.4 0 0 0-.182-.076 3.032 3.032 0 0 0-.316-.039h.01Zm-.652-4.111c.105 0 .211.019.287.038.077.02.163.039.183.067.057.029.076.058.076.087 0 .028-.048.076-.076.115-1.38.958-2.77 1.926-4.131 2.884a.926.926 0 0 1-.239.106c-.077.028-.192.048-.317.076-.124.02-.239.039-.345.048-.124.01-.258.01-.393 0-6.075-.249-12.18-.508-18.285-.757-.124-.009-.21-.029-.316-.038a.8.8 0 0 1-.201-.067c0-.029-.029-.067-.029-.096 0-.038.029-.077.077-.105a473.393 473.393 0 0 1 4.427-2.856c.077-.048.154-.077.24-.106.105-.028.201-.057.316-.076.125-.02.268-.039.393-.048.125-.01.268-.01.364-.01 5.999.259 11.999.508 17.979.748l-.01-.01Zm13.493 4.677c.125.009.259.019.336.038.115.01.163.038.211.067.057.029.057.067.057.106.019.038-.029.076-.077.115-1.341 1.025-2.673 2.041-3.986 3.057-.077.038-.154.086-.24.115-.105.028-.201.057-.335.086a2.02 2.02 0 0 1-.345.048 1.783 1.783 0 0 1-.393.009c-3.115-.143-6.287-.278-9.43-.412h-.029c-.105-.009-.211-.028-.316-.038a1.005 1.005 0 0 1-.173-.077c-.057-.038-.057-.067-.057-.105 0-.038.029-.086.076-.125 1.39-1.006 2.78-2.022 4.169-3.047.077-.029.154-.067.24-.106.096-.038.201-.057.287-.086a6.5 6.5 0 0 1 .412-.048c.077-.009.24-.009.317-.009 3.114.134 6.21.278 9.276.402v.01Zm12.344.546c-3.067-.125-6.134-.268-9.22-.403-.105-.009-.239 0-.364.01-.143 0-.239.019-.373.038-.096.029-.202.058-.307.087a.949.949 0 0 0-.221.115c-1.332 1.025-2.673 2.041-3.986 3.057-.048.038-.077.086-.077.115 0 .038.029.076.058.115a1.253 1.253 0 0 0 .527.115c3.153.143 6.267.287 9.382.421h.393c.124-.009.239-.028.364-.057a1.71 1.71 0 0 0 .316-.086.59.59 0 0 0 .192-.106c1.284-1.025 2.568-2.041 3.843-3.076.048-.038.076-.077.076-.115-.028-.029-.028-.067-.076-.096-.029-.029-.106-.048-.202-.067a2.116 2.116 0 0 0-.316-.038l-.009-.029Zm12.238.546c.095.01.23.019.306.039.106.019.154.047.221.076.048.029.076.058.076.096s-.028.077-.076.115c-1.208 1.035-2.415 2.06-3.623 3.086-.077.038-.124.077-.239.115-.077.029-.183.057-.288.086a2.577 2.577 0 0 1-.738.048c-3.086-.144-6.2-.268-9.324-.412-.106-.01-.24-.019-.317-.038a.93.93 0 0 1-.211-.077c-.057-.029-.076-.067-.076-.105 0-.029.048-.077.076-.115a357.645 357.645 0 0 1 3.824-3.077c.019-.038.096-.067.182-.105.106-.029.192-.058.317-.077.105-.029.239-.038.364-.057.105-.01.239-.01.345 0 3.057.134 6.123.278 9.171.402h.01Zm12.199.546c.115.01.221.029.297.048.106.02.182.039.211.067.029.039.077.068.077.106 0 .029 0 .077-.048.115a282.666 282.666 0 0 0-3.498 3.105c-.019.038-.096.067-.182.105a2.457 2.457 0 0 1-.316.096 2.856 2.856 0 0 1-.345.038c-.125.02-.24.02-.365.01-3.085-.144-6.181-.278-9.267-.422a1.24 1.24 0 0 1-.316-.038.481.481 0 0 1-.211-.077c-.057-.028-.076-.057-.076-.115 0-.038 0-.076.076-.115 1.179-1.025 2.406-2.06 3.613-3.085a.59.59 0 0 1 .192-.106c.096-.038.201-.067.316-.086.125-.029.211-.038.335-.048.125-.019.269-.019.393 0 3.038.134 6.076.278 9.114.402Zm12.085.556c.124.01.268.01.316.039.105.019.153.038.201.076a.227.227 0 0 1 .106.106c-.029.038-.029.076-.048.115a176.009 176.009 0 0 0-3.307 3.114c-.076.048-.124.087-.21.115a1.93 1.93 0 0 1-.297.087c-.096.019-.24.047-.336.057-.124 0-.239.01-.364 0-3.067-.144-6.133-.278-9.229-.422-.105-.009-.239-.019-.316-.038-.115-.019-.192-.048-.22-.077a.244.244 0 0 1-.096-.105c.019-.038.019-.077.096-.125 1.13-1.025 2.29-2.06 3.43-3.095a.438.438 0 0 1 .192-.105c.077-.039.201-.068.288-.087.105-.019.239-.048.364-.057h.345c3.038.144 6.056.278 9.066.412l.019-.01Zm12.036.566c.125 0 .23.019.307.038.105.019.153.048.24.067.057.038.076.067.076.106-.019.038-.019.076-.048.115-1.044 1.044-2.098 2.089-3.114 3.143-.058.038-.106.077-.192.105-.096.039-.153.067-.316.096-.096.019-.182.038-.316.048-.125.01-.259.019-.365.01-3.066-.135-6.104-.288-9.18-.432-.096 0-.23-.019-.307-.038a1.129 1.129 0 0 1-.22-.077c-.048-.028-.077-.067-.077-.095-.019-.048 0-.087.057-.125a260.393 260.393 0 0 1 3.278-3.115.43.43 0 0 1 .182-.115c.077-.028.192-.057.297-.086.125-.029.201-.038.335-.048.125-.009.269-.009.365-.009 3.018.153 6.008.287 8.998.421v-.009Zm11.98.556c.105.009.23.019.287.038a.691.691 0 0 1 .24.077.198.198 0 0 1 .095.105c0 .038-.019.086-.076.125a408.996 408.996 0 0 0-2.933 3.143c-.028.038-.076.077-.182.115-.076.038-.163.057-.287.086a1.428 1.428 0 0 1-.345.048c-.077 0-.202.019-.336 0-3.018-.144-6.056-.297-9.123-.431-.105-.01-.211-.019-.307-.039-.076-.019-.143-.047-.22-.076a.412.412 0 0 0-.077-.106c-.019-.038 0-.086.058-.124.996-1.035 2.041-2.08 3.086-3.144a.592.592 0 0 1 .191-.105c.096-.038.182-.067.259-.086.134-.019.24-.039.364-.048h.345c2.99.144 5.98.287 8.961.422Zm11.902.575c-2.99-.144-5.951-.288-8.922-.422-.096-.01-.24-.01-.335 0-.125.009-.24.029-.345.057-.096.02-.183.048-.288.087-.029.019-.115.057-.163.105-.997 1.054-1.993 2.099-2.913 3.143-.077.048-.077.087-.048.125-.029.038.029.077.077.105.047.029.124.048.201.077.076.019.211.029.316.038 3.038.154 6.028.297 9.066.441.105 0 .239 0 .364-.009.077-.01.211-.029.316-.048a.883.883 0 0 0 .269-.106.587.587 0 0 0 .182-.115c.92-1.044 1.83-2.098 2.779-3.153.048-.048.077-.086.048-.124-.019-.039-.048-.067-.106-.106-.057-.028-.134-.048-.201-.076-.077 0-.192-.029-.316-.029l.019.01Zm11.816.575c-2.942-.135-5.893-.288-8.836-.432-.124-.009-.258 0-.364 0-.096.01-.201.029-.316.048a.846.846 0 0 0-.249.086c-.077.029-.125.068-.192.115-.92 1.055-1.83 2.109-2.769 3.163-.058.038-.058.086 0 .115 0 .038.019.077.076.105.048.039.125.058.24.087.067.009.153.028.259.038 3.018.153 6.028.297 9.018.441.105 0 .239 0 .335-.01.144-.009.268-.029.345-.048.125-.028.211-.057.268-.086.077-.038.144-.077.144-.125a199.594 199.594 0 0 0 2.655-3.181c.028-.039.048-.077.028-.115 0-.029-.057-.067-.076-.106a1.047 1.047 0 0 0-.24-.076 1.363 1.363 0 0 0-.316-.039l-.01.02Zm11.74.575c-2.913-.144-5.846-.278-8.778-.422a1.975 1.975 0 0 0-.345 0c-.125.009-.24.029-.336.057a2.37 2.37 0 0 0-.239.077c-.077.038-.163.077-.163.125-.892 1.063-1.754 2.127-2.626 3.181-.019.039-.048.077-.048.125a.362.362 0 0 1 .105.105.689.689 0 0 0 .24.077c.077.019.182.038.307.038 2.99.163 5.98.307 8.941.46.144 0 .239 0 .345-.009.124-.019.201-.039.335-.058a.736.736 0 0 0 .24-.086.469.469 0 0 0 .191-.115c.786-1.064 1.649-2.137 2.483-3.201 0-.038 0-.077-.02-.115 0-.038-.028-.077-.115-.105-.048-.029-.105-.048-.182-.077a2.445 2.445 0 0 0-.335-.038v-.019Zm25.971 1.303c-7.638-.383-15.314-.767-22.981-1.16a2.16 2.16 0 0 0-.364.01c-.106 0-.221.029-.345.048a1.127 1.127 0 0 0-.24.086c-.077.038-.105.067-.153.105-.844 1.074-1.629 2.138-2.492 3.201v.125s.077.077.125.105c.048.029.105.067.211.077a.79.79 0 0 0 .297.048c7.829.402 15.64.805 23.393 1.198.105.009.239 0 .335 0 .105-.019.22-.029.316-.058.115-.028.163-.057.211-.086a.481.481 0 0 0 .192-.115 385.678 385.678 0 0 0 2.118-3.249c.057-.048.028-.076 0-.115 0-.048-.048-.076-.125-.105-.029-.029-.077-.058-.201-.077a1.53 1.53 0 0 0-.288-.048l-.009.01Zm-135.854-10.503c.125.009.259.019.336.038.076.019.144.038.163.067.057.029.076.067.105.105 0 .029-.048.077-.105.106a620.305 620.305 0 0 1-3.929 2.894 1.97 1.97 0 0 1-.211.096c-.144.038-.24.067-.317.086-.153.019-.239.038-.364.048-.134.01-.268.01-.393.01-3.095-.125-6.181-.269-9.276-.403-.125 0-.24-.01-.317-.029-.095-.019-.124-.048-.182-.076-.048-.029-.076-.058-.105-.087 0-.038.057-.076.105-.115a338.527 338.527 0 0 1 4.112-2.884.571.571 0 0 1 .201-.106c.115-.028.211-.057.316-.076.125-.029.268-.039.364-.048.144-.01.269-.019.364-.01 3.048.144 6.086.259 9.124.384h.009Zm12.133.517c-3.019-.125-6.057-.259-9.066-.393-.115 0-.24 0-.364.01-.144 0-.24.028-.374.048a2.125 2.125 0 0 0-.287.076c-.106.029-.163.067-.24.106-1.313.968-2.616 1.936-3.91 2.894a.316.316 0 0 0-.096.105c0 .039.048.067.096.106a.268.268 0 0 0 .163.067c.077.029.22.038.345.038 3.067.134 6.124.278 9.219.412.125-.009.24 0 .364-.009.106-.02.24-.029.364-.058a1.86 1.86 0 0 0 .298-.077c.095-.038.153-.067.21-.105 1.256-.968 2.511-1.936 3.767-2.913.076-.039.076-.077.076-.115.029-.029-.019-.058-.076-.087-.02-.028-.096-.047-.182-.067-.106-.019-.192-.038-.317-.038h.01Zm12.056.518c.124.009.239.019.335.038.058.019.144.038.153.067.058.029.106.057.077.096.029.029 0 .067-.048.105-1.207.978-2.405 1.955-3.622 2.933-.019.038-.096.067-.182.105a1.497 1.497 0 0 1-.317.077c-.105.019-.21.048-.345.048-.124.009-.239.009-.364.009-3.066-.124-6.124-.268-9.19-.402-.106 0-.211-.019-.316-.029-.077-.029-.154-.048-.202-.077-.028-.028-.057-.067-.057-.115 0-.028.029-.067.076-.115 1.237-.958 2.492-1.935 3.748-2.894.028-.038.124-.076.21-.105.077-.029.192-.058.297-.077.125-.029.24-.038.365-.048.124-.009.258-.019.335-.009 3.048.143 6.028.268 9.047.393Zm11.979.536c-2.99-.144-5.98-.268-8.97-.393-.096-.009-.24 0-.336 0-.124.01-.268.029-.364.048-.105.019-.22.048-.297.077a.872.872 0 0 0-.211.105c-1.207.978-2.386 1.955-3.555 2.923-.048.048-.077.086-.077.115.029.039.029.067.077.106.029.028.105.048.211.067.076.019.182.028.287.038l9.152.403c.106.009.23.009.365 0 .124-.02.239-.029.335-.048a1.96 1.96 0 0 0 .297-.087.388.388 0 0 0 .182-.105c1.15-.978 2.31-1.955 3.431-2.942.077-.038.077-.077.048-.106.029-.038-.019-.067-.048-.095a.436.436 0 0 0-.201-.067 1.313 1.313 0 0 0-.317-.039h-.009Zm11.922.537c-2.962-.144-5.952-.268-8.932-.403-.106 0-.24 0-.345.01-.106.01-.259.029-.364.048a2.54 2.54 0 0 0-.259.077.572.572 0 0 0-.192.105c-1.159.987-2.281 1.965-3.402 2.942-.057.038-.105.077-.057.115-.019.038.028.067.076.096.029.029.077.057.192.067.096.029.182.038.316.038 3.009.144 6.047.278 9.095.412h.335c.125-.019.24-.028.345-.057.106-.019.211-.048.288-.077.096-.029.153-.076.172-.115a376.465 376.465 0 0 1 3.287-2.951c.02-.039.048-.077.048-.106 0-.038-.048-.067-.076-.096a.466.466 0 0 0-.202-.067 1.355 1.355 0 0 0-.316-.038h-.009Zm11.835.537c-2.923-.125-5.913-.259-8.845-.403-.106 0-.24 0-.374.01-.096.009-.24.028-.316.048a2.421 2.421 0 0 0-.288.076.45.45 0 0 0-.182.106c-1.102.987-2.175 1.974-3.258 2.961-.02.029-.048.077-.048.115 0 .029.028.067.105.096.019.028.096.048.182.067.077.029.192.029.316.038 2.99.153 6 .278 9.018.412.125.01.259.01.365 0 .105-.019.239-.029.345-.048.105-.028.21-.057.287-.086.048-.038.125-.067.182-.115 1.026-.997 2.051-1.984 3.067-2.98.076-.029.076-.067.076-.106-.019-.029-.076-.067-.095-.096-.058-.028-.144-.048-.221-.067a2.49 2.49 0 0 0-.316-.038v.01Zm11.797.546c-2.913-.144-5.894-.269-8.807-.403-.125 0-.24 0-.364.01a3.037 3.037 0 0 0-.316.038c-.125.029-.211.048-.317.086-.076.029-.124.058-.153.106-1.016.987-2.041 1.974-3.057 2.971-.029.038-.058.076-.058.115 0 .038.058.076.106.105a.441.441 0 0 0 .211.067c.076.029.191.039.287.048 2.99.144 5.98.288 8.97.422.125-.01.259-.01.364-.01.115-.019.24-.029.345-.057.096-.029.182-.048.288-.077a.429.429 0 0 0 .153-.115c.968-.987 1.965-1.984 2.933-2.98.028-.039.057-.077.028-.115 0-.039-.048-.067-.076-.096-.077-.019-.125-.048-.24-.067a2.196 2.196 0 0 0-.287-.039l-.01-.009Zm11.711.536c-2.894-.124-5.865-.258-8.75-.402a1.186 1.186 0 0 0-.335.01 2.81 2.81 0 0 0-.345.038c-.115.029-.192.048-.288.086-.057.029-.105.058-.124.096a423.032 423.032 0 0 0-2.933 2.99c-.048.048-.048.086-.028.115 0 .038.028.077.076.105a.397.397 0 0 0 .221.077.91.91 0 0 0 .306.038c2.971.144 5.932.288 8.922.422.096.01.24.01.365 0 .076 0 .201-.029.316-.048.076-.029.211-.057.259-.096.076-.028.143-.067.153-.105.92-.997 1.869-1.993 2.779-3 .019-.038.048-.076.019-.105 0-.038-.019-.077-.067-.106-.057-.019-.115-.047-.22-.067a2.11 2.11 0 0 0-.317-.038l-.009-.01Zm11.672.556c.125.01.23.019.307.039.105.019.153.048.22.067.048.028.077.067.077.105.019.038.019.077-.029.115-.862 1.016-1.753 2.013-2.597 3.019-.028.038-.124.077-.163.105-.105.039-.182.058-.287.087a1.657 1.657 0 0 1-.288.047c-.143.01-.268.01-.373.01-2.981-.144-5.952-.278-8.875-.422a3.728 3.728 0 0 1-.287-.048.804.804 0 0 1-.22-.067.298.298 0 0 1-.096-.095c0-.039 0-.087.019-.125.92-.997 1.83-1.993 2.75-2.99a.63.63 0 0 1 .154-.105c.105-.039.191-.068.297-.087.096-.019.211-.038.306-.048.106-.009.24-.009.345 0 2.914.144 5.837.269 8.731.403l.009-.01Zm11.577.556c.096.01.201.019.288.038.076.02.191.048.239.077.048.029.077.058.077.096.029.029.029.067-.029.105-.805 1.016-1.62 2.022-2.405 3.029a.606.606 0 0 1-.182.115 1.012 1.012 0 0 1-.24.086 2.049 2.049 0 0 1-.335.048c-.106.009-.24.009-.345.009-2.933-.143-5.904-.287-8.827-.431-.105 0-.191-.019-.287-.038a.97.97 0 0 1-.221-.077c-.048-.019-.067-.057-.067-.105-.028-.039-.028-.077 0-.115.892-1.006 1.725-2.003 2.597-3.019.02-.038.096-.077.154-.105.076-.029.153-.058.268-.077.105-.029.192-.038.316-.048.106-.01.24-.01.336 0 2.894.134 5.798.278 8.682.403l-.019.009Zm31.893 1.572c.096 0 .211.019.288.038.105.019.163.048.239.067.048.039.077.077.077.106.048.038.029.076-.029.115-.623 1.025-1.332 2.05-1.993 3.076 0 .029-.077.077-.153.115a.529.529 0 0 1-.23.086 1.911 1.911 0 0 1-.297.058h-.336l-17.556-.892c-.077-.009-.24-.009-.288-.038-.105-.019-.192-.038-.24-.077-.057-.028-.076-.067-.076-.105-.029-.029-.029-.067 0-.115a113.774 113.774 0 0 1 2.281-3.048c.028-.038.076-.067.124-.105.077-.029.192-.057.269-.077.076-.019.182-.038.287-.048.125-.009.24-.009.335-.009 5.798.287 11.558.575 17.298.862v-.009Zm-20.364-1.006c.105 0 .182.019.287.038.077.019.173.038.202.067.047.038.105.067.124.096 0 .038 0 .076-.019.115-.786 1.016-1.553 2.041-2.31 3.047-.028.039-.076.077-.191.115-.019.029-.125.058-.202.077-.105.019-.21.048-.335.057-.105.01-.22.01-.316 0-2.942-.143-5.875-.277-8.779-.421-.076-.01-.22-.019-.287-.048a.458.458 0 0 1-.22-.067c-.077-.039-.096-.067-.125-.106 0-.038 0-.076.029-.115.805-1.006 1.6-2.012 2.434-3.028.048-.038.077-.077.153-.105.077-.039.163-.067.259-.087.077-.019.192-.028.316-.048.106 0 .24-.019.345 0 2.846.144 5.712.298 8.616.422l.019-.009Zm-127.756-9.689c.125.009.24.019.317.029.095.019.124.047.182.076.057.019.057.048.057.086 0 .029-.029.068-.076.096a954.1 954.1 0 0 1-4.016 2.741.801.801 0 0 1-.201.096c-.106.038-.211.057-.316.077-.125.028-.24.038-.365.048-.124.009-.268.009-.364.009-5.012-.211-10.014-.412-15.017-.623-.144 0-.239-.019-.345-.038a.497.497 0 0 1-.163-.067c-.048-.029-.076-.058-.048-.086 0-.039.02-.077.077-.106 1.39-.901 2.798-1.821 4.245-2.722.077-.038.125-.067.24-.095.105-.029.192-.058.316-.067.125-.029.269-.039.364-.048.115-.01.24-.02.365-.01 4.935.211 9.832.403 14.758.604h-.01Zm12.181.508-8.961-.374a1.975 1.975 0 0 0-.345 0c-.124.019-.239.029-.364.048a1.71 1.71 0 0 0-.287.077.684.684 0 0 0-.24.105 475.02 475.02 0 0 0-3.987 2.731c-.076.039-.076.077-.105.106.029.038.058.067.077.105.028.029.105.048.22.067.048.019.163.029.288.038 3.038.125 6.075.259 9.113.374.106.01.24.01.374 0 .125 0 .23-.019.336-.038.105-.029.239-.058.316-.086.115-.029.163-.058.211-.106 1.265-.92 2.578-1.83 3.852-2.75.048-.039.048-.067.077-.106 0-.028-.029-.057-.077-.086-.029-.029-.105-.048-.192-.067a1.554 1.554 0 0 0-.316-.029l.01-.009Zm11.921.498c-2.99-.115-5.98-.249-8.912-.374-.144 0-.268 0-.393.01-.105.009-.24.019-.316.038-.125.029-.24.048-.316.077-.077.029-.154.057-.202.105-1.284.93-2.549 1.84-3.823 2.76-.048.029-.077.067-.077.106.029.038.048.067.077.096a.66.66 0 0 0 .191.067c.077.019.201.028.307.038 3.019.144 6.037.259 9.075.383.125 0 .249 0 .336-.009.124 0 .268-.019.364-.039.105-.028.22-.057.297-.076a.728.728 0 0 0 .23-.106c1.217-.92 2.415-1.84 3.651-2.769.077-.029.096-.067.077-.096 0-.029-.029-.067-.058-.106a2.065 2.065 0 0 0-.498-.095l-.01-.01Zm11.845.508c.106 0 .183.019.288.038.048.019.125.039.192.067.067.029.067.058.067.096.028.019-.019.067-.048.096-1.208.93-2.358 1.859-3.508 2.789-.019.038-.105.067-.172.096-.106.038-.221.057-.297.076-.125.019-.259.039-.364.058h-.365c-3.009-.125-5.999-.259-8.989-.393-.124 0-.239-.019-.345-.029a3.625 3.625 0 0 0-.182-.067.72.72 0 0 1-.077-.096c.02-.038.02-.076.077-.105 1.208-.92 2.406-1.84 3.671-2.77a.528.528 0 0 1 .182-.096c.076-.028.201-.048.287-.067.106-.028.24-.038.345-.048.125-.009.268-.019.364-.009 2.962.124 5.932.259 8.884.374l-.01-.01Zm11.74.517c-2.932-.124-5.865-.258-8.778-.383a2.448 2.448 0 0 0-.364 0c-.144.01-.24.029-.345.038a4.183 4.183 0 0 1-.288.077.482.482 0 0 0-.201.106c-1.16.939-2.31 1.859-3.46 2.779-.048.048-.076.076-.076.115 0 .038.028.057.076.086.048.029.125.048.201.067a.738.738 0 0 0 .288.038c2.99.135 5.97.269 8.999.393.096.01.239 0 .335 0 .144-.009.24-.028.345-.048.096-.019.173-.048.288-.076.076-.039.153-.067.182-.106 1.092-.929 2.223-1.859 3.325-2.788.048-.039.077-.077.048-.106.029-.029-.019-.057-.048-.086a.76.76 0 0 0-.211-.067 1 1 0 0 0-.316-.029v-.01Zm11.74.499c.105.009.191.029.287.038.077.019.153.038.201.058.029.028.077.067.077.095 0 .039 0 .077-.048.106-1.073.939-2.127 1.888-3.162 2.808a.796.796 0 0 1-.192.105 1.514 1.514 0 0 1-.288.077 1.76 1.76 0 0 1-.345.048c-.105.009-.239.009-.335.009-2.99-.124-5.951-.268-8.903-.402-.144 0-.239-.01-.316-.029a.857.857 0 0 1-.221-.067c-.047-.038-.076-.057-.047-.105-.029-.029 0-.067.047-.115a429.62 429.62 0 0 1 3.307-2.78.604.604 0 0 1 .191-.105l.259-.067c.106-.029.24-.038.345-.048.125-.01.259-.01.364-.01 2.942.125 5.837.259 8.779.384Zm11.653.527c.077 0 .192.019.287.029.077.019.163.038.221.067.019.028.048.067.048.096.029.028 0 .067-.048.115-.997.939-1.993 1.878-2.971 2.817-.048.038-.153.077-.182.105-.115.039-.192.058-.268.077a1.733 1.733 0 0 1-.336.048c-.144.01-.268.019-.364.01-2.971-.125-5.932-.25-8.865-.403-.134 0-.239-.019-.316-.038-.076-.01-.182-.039-.201-.067-.058-.019-.077-.058-.077-.087-.028-.038 0-.076.048-.115l3.153-2.807c.019-.029.096-.058.182-.087.077-.038.154-.057.24-.076.124-.02.239-.039.364-.048.105-.01.24-.01.374-.01 2.884.144 5.788.268 8.692.393h.029l-.01-.019Zm11.557.508c.106.009.211.029.288.048a.534.534 0 0 1 .201.067c.077.019.077.048.077.086 0 .038 0 .067-.029.105-.968.949-1.907 1.898-2.817 2.828-.058.038-.115.076-.192.105a1.391 1.391 0 0 1-.288.077c-.115.028-.21.038-.316.048-.105.009-.239.009-.364.009-2.913-.144-5.903-.268-8.807-.402-.077-.01-.211-.02-.259-.039-.105-.019-.191-.038-.239-.076-.058-.02-.106-.048-.077-.087 0-.038 0-.076.048-.105.968-.939 1.964-1.869 2.961-2.818.077-.038.125-.076.192-.105a.697.697 0 0 1 .287-.077c.077-.028.192-.048.317-.067h.335c2.913.125 5.769.259 8.682.384v.019Zm11.5.536c.125.01.24.02.317.029.076.029.163.048.211.067.047.039.076.067.076.115 0 .029.029.058 0 .096-.949.958-1.801 1.907-2.674 2.846a.754.754 0 0 1-.201.106 1.372 1.372 0 0 1-.239.076c-.125.02-.24.039-.365.048-.105.01-.22.01-.345.01-2.913-.125-5.836-.268-8.72-.403a1.365 1.365 0 0 1-.317-.047c-.105-.01-.153-.039-.22-.068a.265.265 0 0 1-.105-.105c-.029-.029 0-.067.076-.115.92-.939 1.859-1.878 2.799-2.827.028-.029.105-.067.153-.096a1.929 1.929 0 0 1 .575-.115c.105-.009.239-.019.374-.009 2.846.134 5.73.268 8.596.392h.009Zm11.472.537c.105 0 .22.019.297.029.048.019.124.048.211.067.048.029.076.067.076.096.029.038.029.067-.028.115-.863.958-1.678 1.907-2.483 2.846a.863.863 0 0 1-.191.105 4.104 4.104 0 0 1-.259.087 1.37 1.37 0 0 1-.316.038c-.106.019-.24.019-.345.01-2.894-.125-5.808-.269-8.702-.412a.975.975 0 0 1-.316-.039c-.096-.009-.144-.038-.201-.067-.048-.019-.077-.057-.077-.105-.019-.039-.019-.067.029-.106.862-.948 1.753-1.897 2.673-2.846a.268.268 0 0 1 .154-.096c.076-.029.163-.057.239-.076.106-.02.211-.039.336-.048.076-.01.211-.01.316 0 2.885.134 5.74.268 8.596.393l-.009.009Zm11.375.537c-2.827-.134-5.683-.269-8.481-.403-.144 0-.268 0-.364.01-.106.009-.221.029-.297.038-.125.029-.211.048-.288.086-.029.02-.105.058-.163.096-.805.959-1.648 1.917-2.482 2.875-.029.039-.057.077-.029.106 0 .028.048.067.106.086a.326.326 0 0 0 .182.077c.105.019.192.038.316.038 2.885.134 5.788.278 8.683.412h.335c.105-.019.211-.029.316-.048.077-.029.154-.048.269-.086a.448.448 0 0 0 .124-.106c.776-.948 1.572-1.916 2.386-2.875.02-.038.048-.076.02-.115-.02-.028-.077-.057-.096-.086a1.86 1.86 0 0 0-.221-.067 1.292 1.292 0 0 0-.316-.038Zm11.356.546h-.028c-2.837-.144-5.664-.268-8.462-.402a1.67 1.67 0 0 0-.317 0 2.005 2.005 0 0 0-.316.047c-.096.02-.201.048-.259.077-.057.029-.115.058-.143.096-.777.968-1.572 1.926-2.358 2.885-.048.038-.048.076-.019.115.019.038.048.057.096.095.057.029.143.048.211.067.047.029.182.029.306.039 2.856.153 5.721.287 8.606.412.125.009.211.009.335 0 .106 0 .221-.029.317-.048a.617.617 0 0 0 .211-.086.887.887 0 0 0 .191-.106c.729-.968 1.466-1.926 2.224-2.894.028-.029.047-.067 0-.105 0-.039-.048-.058-.106-.087-.019-.038-.096-.057-.182-.076a1.434 1.434 0 0 0-.316-.029h.009Zm22.358 1.073c-2.798-.124-5.635-.268-8.385-.402-.106-.01-.24 0-.316 0-.106.009-.202.029-.345.057-.077.02-.125.039-.202.067-.048.039-.105.068-.163.106-.68.968-1.36 1.936-2.07 2.913v.106s.077.067.106.115c.048.028.163.048.239.067.106.019.183.038.288.038 2.827.144 5.683.288 8.51.422.105 0 .24 0 .345-.01.105-.009.182-.029.316-.048.077-.019.182-.048.201-.076.077-.039.106-.068.125-.106.661-.977 1.284-1.945 1.974-2.932v-.106s-.057-.067-.105-.105c-.077-.019-.154-.048-.269-.058-.047-.028-.153-.038-.258-.048h.009Zm-11.088-.546c-2.827-.124-5.635-.268-8.433-.402-.105 0-.24 0-.345.009-.105.01-.211.029-.259.048-.143.019-.22.048-.297.077-.048.029-.076.057-.124.096-.729.968-1.467 1.935-2.205 2.894-.028.038-.047.076-.028.115a.29.29 0 0 0 .115.096c.048.038.124.048.239.076.077.019.154.029.288.029 2.827.153 5.692.288 8.51.422.153.009.297.009.393-.01.076 0 .182-.019.316-.048.077-.019.125-.048.211-.076.057-.029.134-.068.153-.106.681-.968 1.361-1.945 2.07-2.913 0-.029.029-.067 0-.106 0-.028-.048-.067-.096-.105a4.58 4.58 0 0 1-.191-.067 3.09 3.09 0 0 0-.317-.038v.009Zm-128.273-9.478c.106 0 .202.019.317.039.048.019.124.028.191.057.02.029.02.058.048.086 0 .029-.048.058-.076.096-1.265.882-2.521 1.744-3.805 2.626a1.082 1.082 0 0 1-.182.086 3.631 3.631 0 0 1-.316.077c-.096.019-.24.038-.364.048h-.336c-3.019-.115-5.98-.24-8.97-.364a1.41 1.41 0 0 1-.287-.039.441.441 0 0 1-.211-.067c-.029-.029-.058-.057-.058-.086 0-.038.029-.067.058-.096 1.303-.872 2.616-1.725 3.958-2.607a.53.53 0 0 1 .182-.095c.144-.029.239-.048.345-.067.105-.02.211-.029.335-.039.134-.009.24-.019.374-.009 2.932.124 5.875.239 8.797.354Zm11.721.479c-2.933-.115-5.846-.239-8.778-.364-.135 0-.24 0-.365.01a1.925 1.925 0 0 0-.345.048 1.22 1.22 0 0 0-.287.067c-.077.029-.153.057-.201.086-1.265.882-2.53 1.754-3.747 2.626-.058.029-.077.067-.077.096 0 .028.019.057.048.086a.452.452 0 0 0 .211.067c.057.019.153.029.287.038 2.971.125 5.951.24 8.932.365.105.009.239 0 .374 0 .067 0 .201-.029.306-.048.115-.02.24-.039.297-.067.096-.029.173-.068.24-.106 1.169-.862 2.377-1.744 3.584-2.626.048-.038.067-.067.048-.096.019-.038 0-.067-.048-.086a.736.736 0 0 0-.182-.067c-.115-.009-.192-.019-.288-.029h-.009Zm11.634.499c.115.009.211.009.316.028.048.02.125.039.192.058.048.029.048.057.077.086 0 .039-.029.067-.077.106-1.16.881-2.31 1.753-3.431 2.635-.057.038-.134.067-.22.105-.077.02-.173.048-.288.068a1.718 1.718 0 0 1-.335.038c-.144.009-.24.009-.374.009-2.961-.115-5.884-.249-8.826-.373-.125-.01-.24-.019-.336-.029a.646.646 0 0 1-.182-.077c-.048-.019-.048-.048-.048-.076-.028-.039 0-.067.048-.106 1.179-.862 2.387-1.744 3.584-2.635a.751.751 0 0 1 .24-.096c.077-.019.125-.038.268-.067.096-.01.23-.029.336-.038.124 0 .239-.01.345 0 2.894.124 5.807.249 8.721.364h-.01Zm11.615.479c-2.913-.115-5.788-.24-8.702-.364-.124 0-.239 0-.364.009a1.45 1.45 0 0 0-.316.039c-.105.019-.211.048-.288.067a1.125 1.125 0 0 0-.191.096c-1.16.891-2.31 1.763-3.431 2.645-.019.028-.048.067-.048.105 0 .029.029.057.077.086a.402.402 0 0 0 .182.058c.076.019.191.038.316.038 2.933.125 5.846.259 8.807.374h.364c.106-.01.202-.029.317-.048.105-.019.201-.038.287-.067a.334.334 0 0 0 .192-.115c1.092-.882 2.166-1.754 3.306-2.645.019-.039.048-.077.019-.106.029-.028 0-.057-.048-.076a.864.864 0 0 0-.191-.077l-.288-.029v.01Zm11.5.498c.105 0 .22.01.316.029.058.019.125.038.182.057.048.029.077.068.077.096 0 .029-.029.067-.057.096-1.045.901-2.09 1.783-3.115 2.664-.048.039-.125.077-.153.096a2.842 2.842 0 0 1-.623.115 1.49 1.49 0 0 1-.345.01l-8.807-.374c-.096-.01-.211-.029-.288-.038-.077-.02-.163-.039-.211-.067-.028-.02-.048-.058-.076-.087.028-.038.028-.067.048-.115a227.784 227.784 0 0 0 3.277-2.654.825.825 0 0 1 .22-.096c.048-.019.163-.048.259-.067.106-.019.201-.039.316-.039.125 0 .269-.019.365 0 2.884.125 5.769.24 8.625.374h-.01Zm11.481.499c-2.856-.125-5.712-.25-8.596-.374-.125 0-.23 0-.336.009-.105 0-.201.02-.316.039a1.398 1.398 0 0 0-.288.076c-.076.029-.124.048-.153.087-1.044.9-2.099 1.782-3.114 2.664a.195.195 0 0 0-.048.115c.019.019.019.057.067.086.028.029.105.048.211.067a.86.86 0 0 0 .287.038c2.913.125 5.827.259 8.73.384.096.009.23.009.365 0 .095-.019.21-.029.287-.048.106-.019.211-.048.288-.067.076-.039.163-.077.191-.106.968-.891 1.965-1.782 2.99-2.683.019-.029.019-.057.019-.096 0-.029-.047-.057-.076-.086-.077-.019-.125-.048-.201-.067a1.344 1.344 0 0 0-.288-.029l-.019-.009Zm11.394.507c-2.846-.115-5.682-.249-8.538-.373-.106-.01-.23 0-.307 0-.144.009-.24.028-.345.048-.077.009-.211.038-.24.067a.461.461 0 0 0-.21.096c-1.026.9-1.994 1.792-2.962 2.683-.028.029-.028.067-.028.105 0 .029.028.058.076.087.077.028.125.047.202.057.076.019.191.038.316.038 2.856.144 5.74.269 8.673.393.105 0 .239 0 .345-.009.076 0 .239-.029.316-.048.096-.01.182-.039.259-.067.076-.039.163-.067.191-.106.92-.901 1.831-1.792 2.799-2.702.028-.029.028-.067.057-.106-.029-.028-.057-.067-.105-.086a1.677 1.677 0 0 0-.201-.067c-.077-.01-.192-.019-.298-.029v.019Zm11.328.499c-2.837-.115-5.664-.249-8.462-.384h-.364c-.115.01-.211.029-.288.048-.076.02-.182.048-.268.067-.048.029-.106.058-.153.106-.949.901-1.86 1.802-2.799 2.693-.029.038-.048.067-.029.105-.019.029.029.067.058.096.067.019.153.048.23.067.077.01.192.019.297.029 2.885.144 5.731.268 8.625.393.125 0 .249 0 .364-.01.106-.009.201-.029.288-.048.124-.019.191-.038.268-.067.048-.029.163-.067.182-.096.872-.9 1.754-1.801 2.655-2.712.019-.028.048-.067.019-.096 0-.038-.019-.067-.077-.105-.048-.019-.096-.048-.211-.067-.076-.01-.191-.019-.316-.029l-.019.01Zm11.289.517c-2.798-.124-5.606-.249-8.433-.383-.144 0-.24 0-.316.01a2.15 2.15 0 0 0-.317.038c-.105.029-.201.048-.268.067-.077.038-.163.077-.182.105-.901.911-1.754 1.802-2.626 2.703a.153.153 0 0 0-.048.105.3.3 0 0 0 .096.096c.057.019.144.048.22.067.096.01.173.019.288.029 2.856.134 5.74.268 8.625.393h.287c.125-.01.269-.038.345-.048a2.54 2.54 0 0 0 .259-.077c.077-.028.144-.067.144-.096.824-.9 1.677-1.82 2.52-2.721.019-.039.048-.067.048-.115a.386.386 0 0 0-.124-.077c-.029-.029-.106-.057-.192-.067a3.403 3.403 0 0 0-.316-.038l-.01.009Zm11.213.508c-2.77-.124-5.578-.259-8.386-.383h-.316c-.125.009-.24.038-.316.048a1.047 1.047 0 0 0-.24.076.444.444 0 0 0-.182.106c-.843.901-1.658 1.811-2.492 2.722 0 .028-.019.067-.019.105.019.019.077.057.077.086.105.019.163.048.259.067.076.01.153.029.287.029 2.837.144 5.664.278 8.52.403.124 0 .239 0 .316-.01a1.7 1.7 0 0 0 .335-.038c.115-.02.163-.048.24-.077a.97.97 0 0 0 .163-.096c.786-.91 1.562-1.821 2.338-2.731.019-.038.048-.077.048-.106-.029-.028-.048-.067-.105-.105-.048-.019-.106-.048-.211-.067-.077 0-.192-.019-.316-.029Zm11.183.518c.106 0 .221.019.297.028.077.02.125.048.202.068.028.028.076.057.076.105.048.019.048.057 0 .096-.728.92-1.504 1.83-2.233 2.741.029.038-.047.076-.105.105a.762.762 0 0 1-.249.086c-.077.019-.192.029-.288.039-.134.009-.22.019-.345.009-2.884-.124-5.663-.268-8.51-.402-.105 0-.191-.019-.268-.029-.096-.019-.153-.048-.201-.067a.369.369 0 0 1-.106-.106c0-.038-.019-.067.029-.105.728-.91 1.553-1.821 2.329-2.731 0-.039.077-.067.144-.096.076-.029.153-.048.239-.067.096-.029.201-.038.307-.048.105-.01.22-.01.316 0 2.808.125 5.587.259 8.386.383l-.02-.009Zm27.476 1.303c.124 0 .211.019.306.029.077.019.163.048.221.067.048.029.077.067.077.096.047.028.019.067-.029.105-.575.92-1.208 1.84-1.802 2.77-.029.038-.057.076-.105.105a1.48 1.48 0 0 1-.269.077 1.13 1.13 0 0 1-.258.038c-.115.019-.24.019-.365.01-4.667-.221-9.382-.441-14.049-.681-.153 0-.201-.019-.316-.038a.77.77 0 0 1-.182-.067c-.077-.029-.105-.058-.105-.086-.029-.039-.029-.077 0-.115.651-.901 1.36-1.831 2.07-2.76 0-.029 0-.067.105-.106a1.95 1.95 0 0 1 .24-.067.86.86 0 0 1 .287-.038c.105-.01.22-.019.345-.01 4.61.23 9.229.441 13.838.661l-.009.01Zm-16.388-.776c-2.769-.125-5.52-.259-8.308-.393h-.317c-.096.009-.201.029-.316.048a1.847 1.847 0 0 0-.211.067c-.048.029-.124.067-.153.105-.728.92-1.466 1.831-2.176 2.741-.028.038-.057.077-.057.115.057.019.077.058.144.086a.532.532 0 0 0 .201.067c.077.02.182.029.287.039 2.799.144 5.616.268 8.434.393.105.009.239.009.345 0 .115-.01.211-.019.287-.048.106-.019.202-.048.269-.077.048-.029.076-.057.124-.096.681-.92 1.361-1.83 2.041-2.76.058-.038.029-.067 0-.105.029-.029-.019-.058-.076-.086-.048-.029-.125-.048-.201-.067a1.625 1.625 0 0 0-.317-.029Zm-133.486-8.108c.096.01.201.01.316.029.048.019.106.038.154.067.057.019.076.038.076.077-.019.029-.019.057-.076.086-.7.45-1.361.901-2.042 1.332-.019.029-.095.067-.182.096a1.482 1.482 0 0 1-.316.057c-.125.029-.24.039-.364.048-.106.01-.24.01-.345.01-3.239-.125-6.517-.259-9.775-.393-.096 0-.182-.019-.288-.038a.642.642 0 0 1-.191-.058c-.048-.029-.048-.057-.048-.086 0-.029.029-.058.076-.105.71-.432 1.428-.882 2.128-1.313a.645.645 0 0 1 .201-.087c.115-.028.221-.057.297-.067.106-.019.259-.038.364-.048.125-.009.24 0 .336 0 3.229.125 6.478.25 9.679.384v.009Zm37.155 1.524c-3.153-.125-6.325-.268-9.488-.393-.124 0-.239 0-.364.01-.105 0-.211.019-.316.038a2.04 2.04 0 0 0-.288.067.611.611 0 0 0-.191.086c-.604.451-1.237.901-1.831 1.342-.048.029-.048.058-.077.105 0 .029.048.058.077.087a.464.464 0 0 0 .201.057c.058.019.163.029.297.039 3.201.134 6.364.277 9.565.402.143 0 .268 0 .364-.01.144-.009.239-.019.345-.038.105-.029.191-.048.268-.067.077-.029.125-.067.201-.096.575-.46 1.122-.901 1.725-1.351.048-.029.077-.058.077-.096-.029-.019-.029-.048-.077-.077-.048-.028-.124-.047-.182-.067-.105 0-.22-.019-.316-.028l.01-.01Zm12.228.518c.134 0 .24.009.297.028.125 0 .182.039.23.058a.317.317 0 0 1 .077.086c-.019.029-.019.058-.048.096-.546.441-1.102.901-1.677 1.351-.029.038-.106.058-.154.096-.105.029-.201.048-.287.067-.106.01-.211.029-.345.048-.106 0-.24 0-.316-.01a2595.24 2595.24 0 0 1-9.565-.393 7.989 7.989 0 0 1-.316-.028 3.625 3.625 0 0 0-.182-.067c-.048-.029-.048-.058-.077-.087 0-.028.029-.067.077-.095.585-.441 1.131-.892 1.735-1.352a1.09 1.09 0 0 1 .182-.086c.076-.029.182-.048.297-.077.067-.009.201-.019.307-.028.143-.01.239-.02.373-.01 3.115.144 6.258.268 9.402.403h-.01Zm12.209.507c-3.114-.124-6.267-.268-9.411-.392-.105-.01-.23-.01-.335 0-.125.009-.24.019-.316.038-.077.019-.182.038-.259.067-.077.029-.163.067-.192.105-.556.451-1.102.901-1.648 1.352-.029.038-.058.067-.058.095 0 .029.029.068.077.087.058.019.105.048.22.067a.928.928 0 0 0 .288.029c3.143.143 6.344.277 9.478.402.105.01.239.01.345 0 .105 0 .239-.029.316-.038a1.16 1.16 0 0 0 .259-.077c.105-.029.153-.057.182-.096a57.021 57.021 0 0 1 1.572-1.351c.028-.038.057-.067.057-.115-.029-.029-.029-.058-.077-.077-.076-.019-.134-.048-.21-.067-.048-.019-.182-.019-.288-.029Zm12.113.528c.096.009.202.019.307.038.058.019.134.029.192.057.048.029.076.058.076.087.029.038 0 .067-.028.095-.499.451-.997.92-1.486 1.371-.048.029-.105.067-.163.086a1.175 1.175 0 0 1-.287.077c-.077.019-.192.029-.288.038-.105.01-.239.01-.345 0-3.153-.124-6.296-.268-9.43-.402-.143-.01-.239-.01-.297-.029-.105-.019-.163-.048-.211-.067-.047-.019-.076-.058-.076-.086 0-.029 0-.068.029-.096.517-.451 1.044-.911 1.571-1.361.058-.029.106-.067.192-.096.048-.019.182-.048.259-.067.076-.019.191-.029.297-.038.124-.01.239-.01.364-.01a1382 1382 0 0 0 9.334.403h-.01Zm12.056.536c.125 0 .24.019.288.039a.447.447 0 0 1 .201.057c.048.029.077.058.077.086.028.029 0 .067-.029.096-.47.46-.939.92-1.38 1.371a1.374 1.374 0 0 1-.163.095 1.336 1.336 0 0 1-.268.067c-.106.02-.211.039-.317.048-.095 0-.239.01-.316 0a1339.28 1339.28 0 0 1-9.401-.412c-.144 0-.22-.009-.316-.028-.077-.02-.134-.039-.154-.068-.076-.028-.105-.057-.105-.086-.019-.029 0-.067.029-.096.469-.45.968-.91 1.476-1.36.047-.048.095-.068.201-.096.048-.029.096-.058.239-.067.106-.02.211-.039.317-.048.095-.01.239-.01.306 0l9.315.402Zm11.999.537c.105.009.191.019.297.029.067.019.124.048.182.067.029.028.076.048.105.086 0 .029-.029.067-.057.096-.451.46-.844.92-1.284 1.38a.356.356 0 0 1-.154.096c-.096.028-.182.048-.259.067a2.059 2.059 0 0 1-.287.048c-.105 0-.24.009-.345 0-3.086-.135-6.22-.278-9.334-.422a.852.852 0 0 1-.316-.029 1.583 1.583 0 0 0-.211-.057c-.029-.029-.077-.058-.048-.096 0-.029 0-.058.019-.106.47-.45.92-.91 1.39-1.37.028-.038.076-.057.162-.086a.576.576 0 0 1 .24-.077c.105-.019.201-.029.316-.038.115-.01.24-.01.336 0 3.066.134 6.162.278 9.257.402l-.009.01Zm11.893.546c.143.01.22.019.316.029.057.019.144.038.191.067.048.019.077.048.077.086.019.029 0 .058 0 .096-.393.46-.824.93-1.236 1.39a.618.618 0 0 1-.153.086.708.708 0 0 1-.269.077 1.21 1.21 0 0 1-.259.038c-.124.009-.239.009-.364.009-3.095-.143-6.162-.287-9.257-.421-.125 0-.211-.019-.316-.039a.611.611 0 0 1-.192-.057.296.296 0 0 1-.096-.086c0-.029.019-.067.048-.106.422-.45.843-.92 1.284-1.38.058-.028.106-.067.153-.096.058-.019.154-.038.269-.067.076-.019.163-.028.259-.038.143-.01.239 0 .373-.01 3.038.144 6.105.288 9.162.422h.01Zm11.873.537c.077.009.182.019.288.038.048.019.163.038.211.067.028.029.076.048.076.077 0 .038.029.067-.019.105-.393.46-.757.93-1.131 1.39-.048.038-.076.077-.124.096-.077.028-.192.057-.259.076-.077.02-.22.039-.297.039a4.065 4.065 0 0 1-.336.009c-3.095-.143-6.162-.287-9.219-.421-.143 0-.22-.02-.297-.039-.076-.019-.163-.038-.211-.057-.048-.029-.095-.058-.095-.086 0-.039 0-.068.047-.115.365-.451.786-.911 1.208-1.371.029-.048.077-.077.153-.105.048-.019.154-.048.24-.067.086-.02.182-.029.287-.048h.345c3.038.143 6.076.287 9.143.412h-.01Z" fill="#fff"/><path fill-rule="evenodd" clip-rule="evenodd" d="M232.33 121.224c-2.08-13.944-2.051-29.114-1.476-44.591a84.388 84.388 0 0 1-2.185-.24c-.68 16.416-.843 32.555 1.361 47.313h2.693a92.627 92.627 0 0 1-.393-2.482Z" fill="#E9F7D2" opacity=".17"/><path fill-rule="evenodd" clip-rule="evenodd" d="M275.212 121.224h-42.876c.125.824.259 1.658.393 2.482h42.483v-2.482ZM276.719 65.305v55.919h2.3V67.193a46.664 46.664 0 0 1-2.3-1.898v.01Z" fill="#E9F7D2" opacity=".17"/><path d="M279.019 121.224h-2.3v2.482h2.3v-2.482Z" fill="#E9F7D2" opacity=".17"/><path fill-rule="evenodd" clip-rule="evenodd" d="M174.94 133.031c-.25 0-.508-.076-.71-.259a1.1 1.1 0 0 1-.134-1.562 36.17 36.17 0 0 0 8.328-23.067c0-4.025-.661-7.992-1.964-11.758a1.097 1.097 0 0 1 .69-1.41 1.101 1.101 0 0 1 1.408.69 38.216 38.216 0 0 1 2.08 12.478c0 8.932-3.134 17.634-8.836 24.486-.22.258-.537.393-.853.393l-.009.009Z" fill="#fff"/><path fill-rule="evenodd" clip-rule="evenodd" d="M197.995 118.685c-8.903 1.696-20.077 5.165-33.522 10.417.92.239 1.773.536 2.578.881 18.553-6.737 30.848-10.12 36.895-10.148a15.015 15.015 0 0 0-3.22-.757c.087-9.89.604-18.621 1.543-26.24-2.29 11.807-3.708 20.422-4.274 25.856v-.009Z" fill="#65B09A"/><path fill-rule="evenodd" clip-rule="evenodd" d="M164.467 129.092c-4.121-1.236-7.782-.958-10.983.824l2.684 9.315c.297 1.054-.307 1.879-1.342 1.831l2.482.105a9.821 9.821 0 0 1 3.46-1.198c2.261 1.438 5.242 1.131 8.912-.939.278-3.699-.661-6.708-2.798-9.018a.9.9 0 0 0 .153-.048 19.345 19.345 0 0 0-2.578-.891l.01.019Z" fill="#F1BBA2"/><path fill-rule="evenodd" clip-rule="evenodd" d="M195.221 145.738a534.402 534.402 0 0 0 1.677-10.781c-6.996 1.83-16.1 3.565-27.303 5.213.048-.373.086-.747.105-1.111-3.68 2.07-6.66 2.376-8.912.939-1.198.163-2.348.565-3.46 1.198l25.108 1.044c-.306 1.697-1.044 2.99-2.185 3.776 5.281.23 10.274.144 14.989-.268l-.019-.01ZM153.488 129.917c2.386-1.332 5.05-1.831 7.973-1.476 4.792-10.369 1.821-25.118 8.596-47.62-4.878 2.444-10.561 14.289-17.039 35.516-.699.594-1.658 1.275-2.846 2.032l3.325 11.538-.009.01Z" fill="#7FCBB4"/><path fill-rule="evenodd" clip-rule="evenodd" d="M170.057 80.83c-6.766 22.503-3.804 37.251-8.596 47.62.977.115 1.974.336 3.009.652 13.446-5.252 24.61-8.721 33.523-10.417.565-5.434 1.983-14.049 4.274-25.856-.939 7.619-1.447 16.359-1.543 26.239 1.064.125 2.147.384 3.22.757-6.047.029-18.343 3.412-36.896 10.149l-.153.048c2.146 2.31 3.076 5.319 2.798 9.018-.019.364-.057.738-.105 1.112 11.203-1.649 20.316-3.383 27.303-5.214 5.759-1.504 10.091-3.085 12.995-4.724 7.58-12.612 8.749-28.884 3.536-48.827-2.818-3.604-9.114-4.945-18.879-4.025-10.178 8.596-14.845 9.008-13.982 1.246-4.438.115-7.945.852-10.513 2.213l.009.01Z" fill="#7FCBB4"/><path fill-rule="evenodd" clip-rule="evenodd" d="M169.744 81.003c-6.038 12.516-7.082 37.94-9.852 40.691-1.054 1.255-3.536 2.808-7.427 4.638l.067.259.968 3.335c2.386-1.332 5.05-1.83 7.973-1.476 4.792-10.369 1.821-25.118 8.596-47.62-.115.049-.21.116-.316.173h-.009Z" fill="#65B09A"/><path fill-rule="evenodd" clip-rule="evenodd" d="m116.198 144.34 60.605 2.53c3.114.124 5.069-1.61 5.616-4.648l-68.243-2.837h-.192c-.661-.038-1.629.259-1.313 2.089.278 1.514 1.869 2.798 3.517 2.875l.01-.009Z" fill="#B9DD7F"/><path fill-rule="evenodd" clip-rule="evenodd" d="m106.27 106.811 39.158 1.639c1.044.038 2.137.939 2.443 1.993l8.3 28.798c.297 1.054-.307 1.878-1.342 1.83l-39.167-1.629c-1.045-.048-2.137-.949-2.444-1.993l-8.299-28.798c-.307-1.054.307-1.878 1.342-1.84h.009Z" fill="#9EC166"/><path fill-rule="evenodd" clip-rule="evenodd" d="m109.758 118.503 5.108 17.72c.239.881 1.178 1.686 2.098 1.725l35.737 1.485c.901.038 1.322-.68 1.083-1.514l-3.402-11.826a72.751 72.751 0 0 1-9.162.575c-2.367 0-4.696-.115-6.948-.326-.45 1.198-1.591 2.022-3.048 2.022-1.868 0-3.641-1.332-4.255-3.095-6.852-1.39-12.774-3.747-17.211-6.766Z" fill="#B9DD7F"/><path fill-rule="evenodd" clip-rule="evenodd" d="M98.037 149.371c2.99-1.946 5.31-3.747 6.939-5.415 2.53 1.14 4.954 2.185 7.254 3.105 5.568-.719 12.075-1.409 19.531-2.07l-15.554-.652c-1.658-.067-3.239-1.36-3.517-2.875-.316-1.83.652-2.127 1.313-2.098h.192l1.485.067c-1.044-.048-2.137-.949-2.443-1.994l-4.102-14.231c-2.492-.144-4.715-.192-6.641-.144-10.992 3.987-20.46 20.317-40.892 33.916.335 3.555 2.089 5.836 4.82 8.098 10.724-4.591 21.505-9.699 27.84-13.388 1.36-.805 2.625-1.572 3.785-2.329l-.01.01Z" fill="#81B4D3"/><path fill-rule="evenodd" clip-rule="evenodd" d="M39.733 158.494c8.127 7.168 14.155 11.5 17.72 13.148 3.852 1.773 4.935.422 5.874-4.053-10.714-3.402-4.877-5.75-8.902-8.443-4.303-.259-9.2-2.272-14.692-6.028-3.44-.355-3.843 1.754 0 5.376Z" fill="#9FC266"/><path fill-rule="evenodd" clip-rule="evenodd" d="M41.861 149.15c.345 2.501.585 3.709.9 5.903l.164.106.076.038.087.048.153.105.163.096.067.039.096.048.153.076h.02l.153.106.067.028.421.23.058.029.105.058.125.067.029.019.163.077.038.028.115.058.124.057.039.019.153.077.038.019.115.058.116.057.038.019.163.077h.029l.124.067.096.048.057.029.154.067h.019l.144.077.096.038.22.096h.01l.239.105.067.029.154.057.153.068.086.028.067.039.163.057.153.058.067.028.077.029.154.058h.009l.144.057.067.029.086.029.134.048h.01l.163.057.048.019.096.029.124.048h.029l.153.057.048.02.096.028.163.048.144.048h.038l.105.038.106.039h.038l.154.048h.028l.115.048.106.028h.047l.144.048h.029l.115.039.096.019.048.019.144.038.287.067.153.029h.01l.134.029.077.019h.057l.144.038.144.029.153.029.134.029.154.019h.057l.077.029a4.189 4.189 0 0 0-.173-.882c-3.085-3-5.826-6.248-7.532-12.669-2.377-2.521-3.632-1.505-3.077 3.747l.106.086Zm1.984 12.88c.632 3.45 1.399 6.651 2.146 8.299 1.6 3.508 4.581 1.706 7.84-.738-2.665-1.715-6.019-4.226-9.996-7.561h.01Z" fill="#9FC266"/><path fill-rule="evenodd" clip-rule="evenodd" d="m48.548 157.852.106.038h.01l.163.058.057.019.086.029.125.048h.029l.153.057.048.019.096.029.163.048.143.048h.039l.105.038.105.039h.039l.153.047h.029l.115.048.105.029h.048l.144.048h.029l.115.038.096.029h.048l.143.048.288.067.153.029h.01l.134.029.077.019h.057l.144.048.144.019.153.029.134.028.153.02h.058l.076.028a4.18 4.18 0 0 0-.172-.881c-3.086-3-5.827-6.249-7.532-12.67-.623-.661-1.17-1.073-1.62-1.236.355 5.29 2.099 9.842 5.223 13.676l.028.038Z" fill="#9BB45F"/><path fill-rule="evenodd" clip-rule="evenodd" d="M62.283 167.244c.968-1.313 2.032-2.3 3.192-2.962-1.86-1.706-3.153-3.517-3.69-5.951-2.118 1.121-4.178 1.773-6.172 1.955 1.428 2.147-1.246 4.207 6.67 6.958Z" fill="#F1BBA2"/><path fill-rule="evenodd" clip-rule="evenodd" d="M175.746 168.681c13.081-.824 18.41-10.599 18.151-22.837-4.313.307-8.865.364-13.666.153-.901.623-2.051.93-3.421.873l-45.051-1.879c-7.456.661-13.963 1.351-19.531 2.07-3.421.441-6.488.891-9.181 1.351-1.936.518-4.82 1.591-8.673 3.201l-.124.077c-6.335 3.69-17.116 8.797-27.84 13.388-.326-.268-.633-.537-.93-.796-1.16.662-2.223 1.649-3.19 2.962.325.115.67.239 1.034.345-.01.076-.029.163-.048.239 30.542 2.76 40.605-1.868 48.693-4.322 26.508 4.734 39.273 6.469 63.787 5.166l-.01.009Z" fill="#81B4D3"/><path fill-rule="evenodd" clip-rule="evenodd" d="M190.799 62.047c-.997-4.12-1.179-8.826-2.549-10.637-11.021-3.881-12.238 2.214-17.106 3.383-.144 4.034 1.916 15.563 6.085 17.441.891.94 2.348 1.476 4.37 1.639-.192.862-.776 3.948-1.035 4.744-.862 7.762 3.805 7.35 13.982-1.246h.048c-.067-2.74-.297-4.83-.259-6.89.029-1.4.087-2.645.173-3.738 3.651-3.804 4.37-6.88 2.166-9.229-2.885-1.37-4.562.575-5.022 5.817-.862-.335-.268-.048-.853-1.274v-.01Z" fill="#F1BBA2"/><path fill-rule="evenodd" clip-rule="evenodd" d="M171.153 54.793c4.868-1.17 6.085-7.255 17.106-3.383 1.361 1.81 1.553 6.507 2.549 10.637.595 1.227-.009.94.853 1.275.46-5.252 2.137-7.197 5.022-5.817 2.195 2.357 1.476 5.433-2.166 9.228a74.94 74.94 0 0 0-.172 3.738c10.273-9.459 8.184-22.29 1.945-26.517 1.514.153 3.067.747 4.648 1.763-2.271-3.047-5.338-4.111-9.181-3.181.412-2.166.336-3.748-.249-4.783-.163 1.467-.46 2.588-.862 3.383-2.483-2.27-7.226-2.798-12.085-.958-6.296 2.367-7.14 2.223-9.622.508-6.689 4.514-1.907 15.458 2.224 14.087l-.01.02Z" fill="#363537"/><path fill-rule="evenodd" clip-rule="evenodd" d="M188.088 72.004c-1.82 1.189-3.996 1.802-6.487 1.879-.106.46-.336 1.629-.566 2.712 3.153-.853 5.501-2.377 7.053-4.59Z" fill="#D7A188"/><path fill-rule="evenodd" clip-rule="evenodd" d="M112.773 140.017c-3.431-1.207-6.402-2.673-8.884-4.379-1.16 1.121-2.3 2.223-3.45 3.287-11.222 10.465-22.07 18.476-32.478 23.393-1.035.498-2.06.948-3.086 1.38.192.201.403.383.613.584l.93.796a342.817 342.817 0 0 0 6.325-2.76c8.481-3.786 16.435-7.667 21.514-10.619a.925.925 0 0 0 .125-.076 91.515 91.515 0 0 0 3.66-2.252 49.694 49.694 0 0 0 2.397-1.639c1.859-1.332 3.373-2.597 4.533-3.776a191.663 191.663 0 0 0 7.254 3.105c3.134-.402 6.574-.795 10.322-1.198 2.884-.297 5.96-.594 9.209-.882l-9.209-.383-6.345-.268c-1.658-.067-3.239-1.361-3.517-2.875-.115-.671-.057-1.131.087-1.447v.009ZM173.87 162.327c-7.619 2.147-18.209 2.405-31.788.805a838.064 838.064 0 0 1-6.718-.805 466.327 466.327 0 0 1-12.823-1.744c-3.9-.594-7.436-1.198-10.599-1.802-2.319 1.361-4.983 2.54-8.002 3.546a54.41 54.41 0 0 1-3.507 1.045c-9.536 2.53-22.033 3.555-37.51 3.076-.21.259-.43.527-.642.805.326.115.671.239 1.035.345l-.048.239c18.573 1.678 29.575.623 37.165-1.015 4.897-1.054 8.366-2.348 11.528-3.307 3.786.671 7.284 1.294 10.59 1.84 19.809 3.326 32.19 4.438 53.197 3.326 5.865-.364 10.158-2.54 13.1-5.913 3.632-4.159 5.195-10.168 5.051-16.924-.585.038-1.169.076-1.773.105a112.19 112.19 0 0 1-3.642.144c-.431 8.213-5.299 13.618-14.605 16.234h-.009Z" fill="#5D9EC5"/><path fill-rule="evenodd" clip-rule="evenodd" d="M130.187 121.896c1.456 0 2.836 1.178 3.076 2.645.24 1.466-.747 2.654-2.214 2.654-1.466 0-2.846-1.179-3.076-2.654-.24-1.467.757-2.645 2.223-2.645h-.009Z" fill="#B9DD7F"/><path fill-rule="evenodd" clip-rule="evenodd" d="M170.435 47.126c-2.836 2.137-3.613 4.245-2.3 6.344 4.869 1.639 9.306 1.303 13.302-1.025-2.559.115-6.229-1.658-11.002-5.319Z" fill="#363537"/><path fill-rule="evenodd" clip-rule="evenodd" d="M178.672 48.065c-1.6.978-2.108 2.051-1.523 3.22 2.472 1.103 4.82 1.14 7.043.115-1.351-.057-3.2-1.169-5.52-3.335Z" fill="#363537"/><path fill-rule="evenodd" clip-rule="evenodd" d="M146.64 66.704h-13.426l.623 7.734c.086 1.073-1.237 1.648-1.965.843l-7.791-8.577H56.595c-3.479 0-6.306-2.827-6.306-6.315v-24.6a6.305 6.305 0 0 1 6.306-6.307h90.045a6.305 6.305 0 0 1 6.306 6.306v24.6c0 3.48-2.818 6.316-6.306 6.316Z" fill="#B9DD7F"/><path fill="url(#b)" d="M0 82h352v205H0z"/></g><defs><linearGradient id="b" x1="176" y1="78.466" x2="176" y2="287" gradientUnits="userSpaceOnUse"><stop stop-color="#fff" stop-opacity="0"/><stop offset="1" stop-color="#F8F7DC"/></linearGradient><clipPath id="a"><path fill="#fff" d="M0 0h352v287H0z"/></clipPath></defs></svg>