<svg width="352" height="288" fill="none" xmlns="http://www.w3.org/2000/svg"><g clip-path="url(#a)"><path fill="#D6F3BA" d="M0 0h352v288H0z"/><path d="M89.806 268.535c-69.06-37.845-75.29-114.437-75.517-117.957-2.55-39.782 11.43-96.742 55.435-119.7 5.101-2.648 34.126-17.825 59.922-7.072 20.502 8.557 40.325 34.099 47.008 56.25.936 3.132 1.679 6.393 4.649 9.751 11.429 12.949 33.9 2.325 51.722 6.459 30.316 7.039 56.274 58.994 47.105 104.911-11.074 55.281-68.058 76.593-77.002 79.757-55.111 19.504-103.41-6.974-113.322-12.399Z" fill="#D6F3BA"/><path d="M105.191 95.619c5.073-4.092 5.869-11.522 1.777-16.595-4.091-5.074-11.521-5.87-16.594-1.778-5.074 4.092-5.87 11.522-1.778 16.595 4.092 5.074 11.522 5.87 16.595 1.778Z" fill="#F37E60"/><path d="M98.335 92.104a.53.53 0 0 1-.362-.165l-5.637-6.197a.478.478 0 0 1 .033-.693.478.478 0 0 1 .692.033l4.747 5.209c-.033-4.417.527-7.846 1.714-10.483.1-.264.396-.362.659-.264.264.1.363.396.264.66-1.22 2.736-1.747 6.56-1.582 11.372a.517.517 0 0 1-.297.462c-.132.066-.198.066-.23.066Z" fill="#fff"/><path d="M232.698 277.857H108.225c-5.373 0-9.164-4.319-8.472-9.692L130.41 26.043c.692-5.34 5.571-9.691 10.944-9.691L259.564 15c13.581 0 15.427 5.703 14.735 11.076l-30.657 242.122c-.659 5.307-5.571 9.659-10.944 9.659Z" fill="#A9C797"/><path d="M225.218 277.857H100.745c-5.373 0-9.164-4.351-8.472-9.724l30.657-242.88c.692-5.374 5.571-9.725 10.944-9.725h124.473c5.373 0 9.164 4.351 8.471 9.724l-30.656 242.881c-.693 5.373-5.571 9.724-10.944 9.724Z" fill="#fff"/><path d="m99.356 268.462 29.272-231.903c.165-1.253 1.285-2.242 2.538-2.242h125.099c1.253 0 2.11.989 1.945 2.242l-29.272 231.903c-.165 1.252-1.286 2.241-2.538 2.241H101.3c-1.219 0-2.11-.989-1.944-2.241ZM194.524 27.889c-2.011 0-3.428-1.615-3.164-3.626.263-2.011 2.076-3.626 4.087-3.626 2.011 0 3.429 1.615 3.165 3.626-.231 2.01-2.077 3.626-4.088 3.626Z" fill="#F4FCD0"/><mask id="b" style="mask-type:luminance" maskUnits="userSpaceOnUse" x="99" y="34" width="160" height="237"><path d="m99.352 268.462 29.272-231.903c.165-1.253 1.286-2.242 2.538-2.242h125.099c1.253 0 2.11.99 1.945 2.242l-29.272 231.903c-.165 1.253-1.286 2.242-2.538 2.242H101.297c-1.22 0-2.11-.989-1.945-2.242Z" fill="#fff"/></mask><g mask="url(#b)"><path d="M246.729 143h-133.01l.428-4.812h133.011l-.429 4.812ZM231.471 258.804H99.68l.461-4.813h131.758l-.428 4.813Z" fill="#B9DD86"/><path d="M211.764 173.855c1.879-3.89 1.846-8.966.857-14.603l-4.021 3.461-4.747-4.12c1.615 6.659 2.373 12.592-.626 15.394l8.537-.132Z" fill="#F3C55C"/><path d="M187.637 253.892h17.141c2.967 0 5.571-2.373 5.868-5.34l7.285-73.048c.296-3-1.912-5.44-4.912-5.44h-19.284c-3.033 0-5.67 2.473-5.901 5.505l-5.142 73.049c-.198 2.901 2.011 5.274 4.945 5.274Z" fill="#A9C797"/><path d="M193.832 182.36h16.614c1.22 0 2.341-.989 2.44-2.241.099-1.22-.792-2.242-2.044-2.242h-16.614c-1.22 0-2.341.989-2.439 2.242-.099 1.252.824 2.241 2.043 2.241ZM193.931 193.469h13.977c1.945 0 3.692-1.582 3.857-3.527l.164-1.648c.165-1.945-1.252-3.527-3.23-3.527h-13.977c-1.945 0-3.692 1.582-3.857 3.527l-.164 1.648c-.165 1.945 1.252 3.527 3.23 3.527Z" fill="#B9DD86"/><path d="M104.401 253.892h15.888c2.736 0 5.176-2.373 5.472-5.34l7.22-73.082c.296-2.999-1.715-5.439-4.516-5.439h-17.867c-2.802 0-5.274 2.473-5.505 5.505l-5.274 73.049c-.132 2.934 1.879 5.307 4.582 5.307Z" fill="#A9C797"/><path d="M111.686 180.217h14.372c1.22 0 2.341-.989 2.439-2.242l.099-1.022c.099-1.219-.791-2.241-2.043-2.241h-14.406c-1.22 0-2.34.989-2.439 2.241l-.099 1.022c-.066 1.253.824 2.242 2.077 2.242ZM111.555 193.832h11.802c1.945 0 3.692-1.583 3.856-3.528l.33-3.659c.165-1.945-1.253-3.527-3.23-3.527h-11.769c-1.945 0-3.692 1.582-3.856 3.527l-.33 3.659c-.198 1.945 1.253 3.528 3.197 3.528Z" fill="#B9DD86"/><path d="m157.203 170.328-17.141-.131c-2.967-.033-5.604 2.34-5.933 5.307l-7.846 73.049c-.33 2.999 1.846 5.472 4.846 5.472l19.251.164c3.033.033 5.703-2.439 5.933-5.472l5.736-73.081c.231-2.934-1.912-5.308-4.846-5.308Z" fill="#A9C797"/><path d="m148.3 236.488-12.131-.099c-2.472-.033-4.648 1.978-4.911 4.45l-.363 3.626c-.231 2.473 1.549 4.483 4.022 4.516l12.131.099c2.472.033 4.648-1.978 4.911-4.45l.363-3.626c.231-2.505-1.582-4.516-4.022-4.516ZM152.327 228.18l-17.701-.132c-.923 0-1.747.726-1.846 1.682l-.165 1.549a1.498 1.498 0 0 0 1.516 1.681l17.702.132c.923 0 1.747-.725 1.846-1.681l.165-1.55c.099-.89-.594-1.648-1.517-1.681ZM152.682 223.071l-17.866-.132c-.891 0-1.682.693-1.748 1.583-.098.89.561 1.615 1.451 1.615l17.866.132c.89 0 1.682-.692 1.748-1.582a1.483 1.483 0 0 0-1.451-1.616Z" fill="#B9DD86"/><path d="m242.489 169.932-17.142-.132c-2.967-.033-5.604 2.341-5.933 5.307l-7.846 73.049c-.329 3 1.846 5.472 4.846 5.472l19.251.165c3.033.033 5.703-2.439 5.934-5.472l5.768-73.049c.231-2.934-1.945-5.307-4.878-5.34Z" fill="#7FCBB4"/><path d="m233.589 236.091-12.131-.098c-2.472-.033-4.647 1.977-4.911 4.45l-.363 3.626c-.231 2.472 1.549 4.483 4.022 4.516l12.131.099c2.472.033 4.648-1.978 4.911-4.45l.363-3.626c.231-2.473-1.549-4.484-4.022-4.517ZM237.613 227.817l-17.702-.132c-.923 0-1.747.725-1.846 1.681l-.165 1.55a1.498 1.498 0 0 0 1.516 1.681l17.702.132c.923 0 1.747-.726 1.846-1.682l.165-1.549a1.498 1.498 0 0 0-1.516-1.681ZM237.967 222.708l-17.866-.132c-.89 0-1.681.692-1.747 1.582-.099.89.56 1.616 1.45 1.616l17.867.132c.89 0 1.681-.693 1.747-1.583.099-.89-.561-1.615-1.451-1.615Z" fill="#54A88E"/><path d="M161.356 254.518h13.878c2.407 0 4.549-2.373 4.846-5.34l7.153-73.048c.297-3-1.45-5.44-3.857-5.44h-15.592c-2.439 0-4.648 2.473-4.845 5.505l-5.44 73.049c-.263 2.934 1.451 5.274 3.857 5.274Z" fill="#A9C797"/><path d="M167.457 184.37h14.241c1.121 0 2.143-.922 2.241-2.043l.396-4.483c.099-1.121-.725-2.044-1.879-2.044h-14.241c-1.12 0-2.142.923-2.241 2.044l-.396 4.483c-.099 1.121.726 2.043 1.879 2.043ZM166.703 193.634h13.713c1.286 0 2.406-1.055 2.538-2.308l.132-1.549c.132-1.286-.824-2.308-2.11-2.308h-13.713c-1.285 0-2.406 1.055-2.538 2.308l-.132 1.549c-.099 1.286.824 2.308 2.11 2.308Z" fill="#B9DD86"/><path d="M161.933 57.326c-1.187-3.89-.231-8.966 1.78-14.603l3.395 3.428 5.472-4.12c-2.835 6.659-4.648 12.592-2.175 15.394l-8.472-.099Z" fill="#F37E60"/><path d="M165.855 137.891h-17.141c-2.967 0-5.143-2.373-4.912-5.34l5.966-73.049c.231-3 2.901-5.439 5.901-5.439h19.284c3.033 0 5.241 2.472 4.879 5.505l-8.109 73.049c-.33 2.934-2.934 5.274-5.868 5.274Z" fill="#A9C797"/><path d="M166.837 122.068h-16.614c-1.22 0-2.143-.989-2.044-2.241.099-1.22 1.22-2.242 2.439-2.242h16.614c1.22 0 2.143.989 2.044 2.242-.132 1.219-1.219 2.241-2.439 2.241ZM164.736 133.144h-13.977c-1.945 0-3.395-1.582-3.231-3.527l.165-1.648c.165-1.945 1.912-3.528 3.857-3.528h13.977c1.945 0 3.395 1.583 3.23 3.528l-.164 1.648c-.165 1.945-1.912 3.527-3.857 3.527Z" fill="#B9DD86"/><path d="M251.423 137.891h-15.889c-2.736 0-4.747-2.373-4.516-5.34l6.032-73.049c.264-3 2.704-5.439 5.506-5.439h17.866c2.802 0 4.813 2.472 4.483 5.505l-8.01 73.049c-.33 2.934-2.736 5.274-5.472 5.274Z" fill="#A9C797"/><path d="M252.515 119.53H238.11c-1.22 0-2.143-.989-2.044-2.242l.099-1.022c.099-1.219 1.219-2.241 2.439-2.241h14.405c1.22 0 2.143.989 2.044 2.241l-.099 1.022c-.099 1.253-1.186 2.242-2.439 2.242ZM250.173 133.145h-11.801c-1.945 0-3.395-1.583-3.23-3.528l.329-3.659c.165-1.945 1.912-3.527 3.857-3.527h11.801c1.945 0 3.396 1.582 3.231 3.527l-.33 3.659c-.165 1.945-1.912 3.528-3.857 3.528Z" fill="#B9DD86"/><path d="M221.585 138.089h-17.141c-2.967 0-5.142-2.374-4.912-5.34l5.967-73.05c.231-2.999 2.901-5.438 5.901-5.438h19.284c3.032 0 5.241 2.472 4.878 5.505l-8.109 73.048c-.297 2.934-2.934 5.275-5.868 5.275Z" fill="#F3C55C"/><path d="M225.213 71.93h-12.131c-2.472 0-4.285-2.011-4.054-4.483l.329-3.627c.231-2.472 2.407-4.483 4.879-4.483h12.131c2.472 0 4.285 2.011 4.054 4.483l-.329 3.627c-.198 2.472-2.407 4.483-4.879 4.483ZM227.681 80.237h-17.702a1.499 1.499 0 0 1-1.516-1.681l.131-1.55c.099-.923.89-1.68 1.846-1.68h17.702a1.5 1.5 0 0 1 1.517 1.68l-.132 1.55c-.099.923-.923 1.68-1.846 1.68ZM227.089 85.346h-17.867c-.89 0-1.549-.725-1.45-1.615.065-.89.857-1.616 1.747-1.616h17.866c.89 0 1.55.725 1.451 1.616-.066.89-.857 1.615-1.747 1.615Z" fill="#BF983D"/><path d="M192.552 138.517h-13.251c-2.275 0-3.956-2.373-3.725-5.34l5.835-73.048c.23-3 2.34-5.44 4.647-5.44h14.933c2.341 0 4.022 2.473 3.692 5.505l-7.483 73.049c-.296 2.934-2.373 5.274-4.648 5.274Z" fill="#A9C797"/><path d="M199.107 66.226H185.46c-1.088 0-1.879-.923-1.78-2.043l.198-2.34c.099-1.122 1.055-2.045 2.143-2.045h13.647c1.088 0 1.879.923 1.78 2.044l-.198 2.34c-.099 1.121-1.055 2.044-2.143 2.044ZM198.385 73.215h-13.119c-1.22 0-2.143-1.055-2.011-2.307.099-1.286 1.186-2.308 2.439-2.308h13.12c1.22 0 2.143 1.055 2.011 2.308-.132 1.252-1.22 2.307-2.44 2.307Z" fill="#B9DD86"/><path d="M136.543 138.155h-13.416c-2.308 0-3.989-2.373-3.758-5.34l5.9-73.049c.231-3 2.341-5.439 4.714-5.439h15.098c2.373 0 4.055 2.473 3.725 5.505l-7.582 73.049c-.297 2.934-2.406 5.274-4.681 5.274Z" fill="#A9C797"/><path d="M143.139 65.864H129.36c-1.088 0-1.912-.923-1.813-2.044l.198-2.34c.099-1.121 1.088-2.044 2.176-2.044H143.7c1.087 0 1.912.923 1.813 2.044l-.198 2.34c-.099 1.121-1.088 2.044-2.176 2.044ZM142.414 72.82h-13.285c-1.252 0-2.142-1.055-2.043-2.307.099-1.286 1.219-2.308 2.439-2.308h13.285c1.252 0 2.142 1.055 2.043 2.308-.099 1.285-1.186 2.307-2.439 2.307Z" fill="#B9DD86"/></g><path d="M303.936 128.464a.467.467 0 0 1-.395-.198c-.165-.231-.132-.528.098-.692l.759-.594c.692-.527 1.549-1.615 1.549-1.615.165-.231.461-.264.692-.099.231.165.264.462.099.692-.033.033-.923 1.187-1.714 1.813l-.758.594a.738.738 0 0 1-.33.099ZM302.659 127.014c-.164 0-.362-.099-.428-.264-.132-.231-.033-.527.198-.659l.857-.429c.791-.395 1.78-1.318 1.813-1.351a.477.477 0 0 1 .692.033.477.477 0 0 1-.033.692c-.033.033-1.121 1.022-2.011 1.483l-.857.429c-.099.033-.165.066-.231.066Z" fill="#000"/><path d="M273.45 111.223c-2.34.297-14.999 2.868-16.086 17.141a.802.802 0 0 0 .428.792l7.318 4.219a.914.914 0 0 1 .429.758c-.066 2.604-.495 14.472-1.616 19.449-.857 3.89-1.45 7.054-1.747 8.637a.88.88 0 0 0 .923 1.022c1.78-.165 5.341-.561 7.681-1.286 2.934-.89 4.252-2.637 11.373.33 1.483.626 3.197.527 4.615-.231 3.889-2.077 12.032-5.736 17.603-3.89.626.198 1.252-.362 1.12-.989-.824-3.659-2.538-10.746-2.703-14.471-.231-4.681 2.44-20.207 1.22-21.822-1.187-1.55-6.428-5.11-9.955-6.066-1.286-.362-2.67-.395-3.758-.659-2.736-.659-10.318-3.791-16.845-2.934Z" fill="#F37E60"/><path d="M260.923 146.001c2.176 3.263 4.714 4.285 10.186 2.867 5.505-1.417 17.142-9.757 22.91-17.701 0 0 .396-.726 1.517-.594s5.768 1.912 9.197-1.12c3.428-3.033 2.604-5.242 2.439-5.637-.297-.693-5.439.197-6.823-.429-1.385-.626-1.385-1.582-.33-3 1.253-1.681-1.516-2.076-3.626.923-1.286 1.846-3.428 4.253-5.406 5.242-2.011 1.022-22.548 8.406-23.603 8.076-1.055-.33-7.713-4.351-7.713-4.351s-1.121 12.196 1.252 15.724Z" fill="#F1BBA2"/><path d="m303.645 130.243-.066.726-.462 4.219c-.461 3.725-.099 6.725-.099 6.725 0 1.153.692 2.538 1.583 3.296 1.021.89 1.549 1.088 2.34 1.385 3.099 1.12 4.45.791 5.571-2.407 1.121-3.197.725-5.175-1.912-15.064 0 0-.725-2.011 1.319-3.33 1.813-1.186 1.219-4.054-.462-6.23-2.67-3.494-8.274 10.219-7.812 10.68Z" fill="#F1BBA2"/><path d="M305.488 123.75s-4.549.494-5.934-.627c-1.055-.824.89-3.296 1.055-3.461 1.22-1.615 4.121-5.406 4.549-5.933.396-.495 1.121-1.649 2.11-1.55.989.099 6.329.956 6.692 1.154.824.363.461 1.483-.132 2.11-.627.593-8.34 8.307-8.34 8.307Z" fill="#DBD396"/><path d="M267.679 161.494s-4.385 36.458-4.912 43.479c-.527 7.022-1.351 31.646 0 43.81.89 7.878 1.483 13.153 1.813 15.889.132 1.252 1.22 2.208 2.505 2.208h8.934a.816.816 0 0 0 .824-.824c.033-3.296.329-15.79 2.439-26.503 2.439-12.428 5.143-31.909 6.494-39.755.462-2.604.824-5.538 1.154-8.373l1.022 2.967c1.022 2.967 4.878 22.976 5.933 30.822.989 7.12 2.637 35.733 2.934 40.842.033.429.396.791.824.791h11.439a.826.826 0 0 0 .824-.758c.527-5.307 3.659-37.348 3.164-51.721-.527-15.691-7.581-34.348-8.933-39.491-1.351-5.142-3.164-18.163-3.164-18.163s-27.46.494-33.294 4.78Z" fill="#F3C55C"/><path d="M286.904 191.853h-.066a.493.493 0 0 1-.428-.56c.198-1.615.362-3.363.527-5.143.33-3.593 2.736-6.724 6.132-7.977l1.977-.725c.264-.099.528.033.627.297.099.263-.033.527-.297.626l-1.978.725a8.472 8.472 0 0 0-5.472 7.12c-.165 1.78-.362 3.528-.527 5.176a.498.498 0 0 1-.495.461Z" fill="#BF983D"/><path d="M306.506 266.881h-7.285c-.527 0-.989.297-1.187.791-.659 1.582-1.977 5.241-1.78 8.736.033.955.824 1.681 1.78 1.681h21.394c.989 0 1.714-.89 1.55-1.846-.231-1.154-1.055-2.67-3.396-4.022-3.791-2.209-8.57-4.417-10.087-5.109a2.417 2.417 0 0 0-.989-.231Z" fill="#D1D1D1"/><path d="M307.503 272.188a.477.477 0 0 1-.362-.824l3.065-3.033a.477.477 0 0 1 .692 0 .477.477 0 0 1 0 .692l-3.065 3.033a.504.504 0 0 1-.33.132ZM309.48 273.407a.477.477 0 0 1-.363-.824l3.066-3.033a.477.477 0 0 1 .692 0 .477.477 0 0 1 0 .692l-3.066 3.033c-.066.099-.197.132-.329.132Z" fill="#595959"/><path d="M274.373 266.881h-7.285c-.527 0-.989.297-1.186.791-.66 1.582-1.978 5.241-1.78 8.736.033.955.824 1.681 1.78 1.681h21.393c.989 0 1.715-.89 1.55-1.846-.231-1.154-1.055-2.67-3.396-4.022-3.79-2.209-8.57-4.417-10.087-5.109a2.549 2.549 0 0 0-.989-.231Z" fill="#D1D1D1"/><path d="M274.534 271.924a.477.477 0 0 1-.362-.824l3.065-3.033a.479.479 0 0 1 .693 0 .48.48 0 0 1 0 .693l-3.066 3.032a.504.504 0 0 1-.33.132ZM276.515 273.144a.477.477 0 0 1-.363-.824l3.066-3.033a.477.477 0 0 1 .692 0 .477.477 0 0 1 0 .692l-3.065 3.033c-.066.099-.198.132-.33.132Z" fill="#595959"/><path d="m282.786 93.192.494.197s.396.231.759.923c.362.693.989 2.77 1.78 2.638.791-.132 1.78-3.396 1.78-3.396s.296-1.615 2.769-.989c2.472.627 4.384 1.648 5.109 2.077.725.428 1.418.56 2.143.494.725-.066 3.131-1.483 2.703-3.757-.429-2.275-2.538-3.824-4.384-3.824-1.912 0-4.681-1.22-5.176-1.484-.494-.23-3.395-1.417-4.977-.56-1.418.791-2.604 2.044-3.231 4.186-.395 1.385-.099 2.638-.066 3.066.099.23.132.396.297.428Z" fill="#363537"/><path d="M295.814 94.939c.033.033.066.066.066.131-.033.363-.099 1.945.132 3.33.132.758.626 2.67.429 3.033-.198.395-.989.428-1.352.395-.363-.033-.956.132-1.088.429-.165.296-.593 3.065-.791 3.725-.165.659-.791 1.417-1.879 1.318-.132 0-.56-.099-.89-.198a.397.397 0 0 0-.494.33c-.528 3.362 2.867 7.153 3.692 8.043.098.099.066.231-.066.297-7.549 3.296-15.329-2.406-17.438-4.154-.099-.065 3.955-1.186 5.9-5.834.857-2.044.561-5.241.594-6.527 0-.264-.132-.495-.363-.594-.495-.23-1.253-1.021-1.483-1.78-.297-1.12-.198-4.647 2.736-3.23 0 0 .395.23.758.923.362.692.989 2.769 1.78 2.637.791-.132 1.78-3.395 1.78-3.395s.297-1.615 2.769-.99c2.307.561 4.747 1.847 5.208 2.11ZM112.274 269.418s-.89 6.297 1.154 8.934l.626 1.121-10.284-1.22.56-1.088a12.916 12.916 0 0 0 1.483-6.197l6.461-1.55Z" fill="#F1BBA2"/><path d="m113.625 274.858 1.022 1.186a19.367 19.367 0 0 0 7.516 5.374l2.241.89a.801.801 0 0 1 .429.494l.033.099c.263 1.253-1.22 4.088-5.835 4.978-2.835.56-9.494.791-17.405-2.44-.495-.198-.824-.725-.758-1.252.165-1.978.758-6.659 2.604-8.934a.554.554 0 0 1 .824-.066l2.242 2.209c.989.989 2.604.956 3.593-.033l2.505-2.571c.231-.264.725-.264.989.066Z" fill="#7FCBB4"/><path d="M112.768 284.615a24.551 24.551 0 0 1-9.923-2.176l-1.747-.791c-.264-.099-.362-.395-.264-.659.099-.264.396-.363.66-.264l1.747.791a23.54 23.54 0 0 0 9.494 2.077c.098 0 .131-.033.164-.066s.066-.099.033-.165l-.296-.89c-.132-.428-.033-.857.296-1.154.33-.296.791-.362 1.187-.164l.857.395a9.905 9.905 0 0 0 7.813.231l.494-.198a.486.486 0 0 1 .626.264.487.487 0 0 1-.263.626l-.495.198a10.983 10.983 0 0 1-8.603-.264l-.857-.395s-.066-.033-.099 0-.033.099-.033.099l.296.89c.132.362.066.758-.164 1.055-.165.395-.528.56-.923.56Z" fill="#54A88E"/><path d="M66.968 257.156s-4.319 4.813-4.352 8.208l-.197 1.286-7.45-8.076 1.154-.363c1.911-1.055 3.856-1.615 5.043-3.428l5.802 2.373Z" fill="#F1BBA2"/><path d="m64.177 263.782-.263 1.582a19.597 19.597 0 0 0 .725 9.362l.758 2.307a.778.778 0 0 1-.099.66l-.066.099c-.79 1.054-3.989 1.714-7.68-1.286-2.275-1.846-6.824-6.857-9.494-15.164a1.301 1.301 0 0 1 .461-1.417c1.649-1.154 5.67-3.758 8.67-3.824.33 0 .593.264.56.593l-.263 3.165c-.1 1.417.956 2.67 2.373 2.769l3.626.264c.462.066.758.461.692.89Z" fill="#7FCBB4"/><path d="M65.067 276.703a.61.61 0 0 1-.23-.066l-.495-.263a11.204 11.204 0 0 1-5.44-6.857l-.263-.956c0-.033-.033-.066-.099-.066-.033 0-.066 0-.099.033l-.494.824a1.21 1.21 0 0 1-.923.561 1.12 1.12 0 0 1-.989-.429 25.28 25.28 0 0 1-4.78-9.131l-.527-1.879a.522.522 0 0 1 .33-.626.522.522 0 0 1 .626.329l.527 1.879c.923 3.231 2.472 6.165 4.582 8.769.066.066.132.066.165.066s.099-.033.165-.099l.494-.824c.231-.363.66-.561 1.088-.495.429.066.791.363.89.792l.264.956a10.246 10.246 0 0 0 4.944 6.263l.495.263c.23.132.33.429.198.66-.1.197-.264.296-.429.296Z" fill="#54A88E"/><path d="M95.654 179.031s-5.44 8.274-5.505 22.514c-.066 16.087-21.723 31.152-29.833 52.446a9.275 9.275 0 0 0 5.242 6.824l.066.033s21.756-8.769 30.26-22.35c4.912-7.812 11.34-23.965 11.34-23.965l-2.999-30.492-.725-.197c-1.846-.495-3.56-1.253-5.242-2.176a6.092 6.092 0 0 1-2.604-2.637Z" fill="#EBCC93"/><path d="M97.897 181.667s-2.505 12.758 3.626 23.471c6.165 10.713 5.176 21.46 3.791 26.8-1.384 5.34-4.911 21.394-1.384 38.931 0 0 4.087 1.945 9.032.329 0 0 13.614-28.283 14.834-45.919 1.219-17.636-5.34-41.864-5.34-41.864s-14.966 3.889-24.559-1.748Z" fill="#EBCC93"/><path d="M163.515 122.498c-8.043 0-15.889-4.121-20.306-11.505-4.615-7.714-4.384-17.57.561-25.053.164-.23.461-.296.692-.132.231.165.297.462.132.693-4.747 7.186-4.945 16.614-.528 24.031 3.099 5.175 8.011 8.867 13.878 10.317 5.868 1.484 11.933.594 17.109-2.505a22.838 22.838 0 0 0 7.45-7.186c.131-.231.461-.297.692-.165.231.132.296.462.165.692-1.978 3.099-4.582 5.604-7.78 7.516-3.824 2.209-7.977 3.297-12.065 3.297ZM185.338 106.774c-.066 0-.099 0-.165-.033-.263-.099-.395-.363-.296-.627a22.139 22.139 0 0 0 1.087-9.263.467.467 0 0 1 .462-.527.467.467 0 0 1 .527.461 23.495 23.495 0 0 1-1.153 9.659.466.466 0 0 1-.462.33Z" fill="#fff"/><path d="M148.99 138.88c.791.363 1.747-.033 2.077-.824l4.911-11.57-2.934-1.286-4.911 11.571c-.33.824.033 1.747.857 2.109Z" fill="#F3C55C"/><path d="M135.412 105.29c3.56 15.559 18.955 25.316 34.382 21.789 15.427-3.527 25.02-19.02 21.46-34.58-3.561-15.559-18.955-25.316-34.382-21.789-15.394 3.527-25.02 18.988-21.46 34.58Zm3.692-.857c-3.098-13.516 5.241-26.965 18.625-30.03 13.383-3.067 26.734 5.405 29.833 18.92 3.098 13.516-5.242 26.965-18.625 30.031-13.384 3.066-26.734-5.406-29.833-18.921Z" fill="#F3C55C"/><path d="M149.364 144.022c.363.132 1.517-1.384 1.78-1.648 1.055-1.055 3.528-2.274 4.055-4.483.659-2.835-.593-5.901-1.319-5.802-.725.099-1.648 5.472-4.483 5.67 0 0-.626-.066-.56-2.736 0-.363-.396-.626-.725-.461-.462.23-1.022.758-1.517 1.813-.593 1.384-.494 2.966-.395 3.922.066.627-.165 2.539.329 2.703l2.835 1.022Z" fill="#F1BBA2"/><path d="m151.219 143.462-5.703-2.11c-2.241 3.989-4.648 7.45-7.318 9.593a23.826 23.826 0 0 1-5.076 3.098c-.792.363-1.748 0-2.077-.824-.89-2.274-2.374-5.834-4.978-10.021-1.978-3.164-5.241-5.736-7.944-7.087-4.22-2.077-9.098-3.099-13.779-2.176-9 1.813-15.164 7.055-15.164 7.055-4.911 3.922-13.944 17.537-10.713 24.129 3.956 8.044 14.636 3.33 14.636 3.33s.23 3.725-2.01 8.867c-2.704 6.23-.034 7.879-.034 7.879 10.977 11.603 35.305.659 33.261-4.319-2.208-5.307-2.241-12.065-2.241-12.065 3.032 3 7.186 2.539 7.186 2.539s2.406-.165 4.054-.857c14.373-4.846 17.9-27.031 17.9-27.031Z" fill="#7FCBB4"/><path d="M93.191 164.79a.496.496 0 0 1-.461-.329c-3.033-8.802-1.682-15.691-1.616-15.988a.542.542 0 0 1 .594-.396c.263.066.428.33.395.594 0 .066-1.384 6.922 1.583 15.46.098.264-.033.527-.297.626-.066 0-.132.033-.198.033ZM121.836 169.307c-.132 0-.264-.033-.33-.132-4.747-4.648-8.076-15.395-8.208-15.856a.521.521 0 0 1 .33-.626.522.522 0 0 1 .626.329c.033.099 3.362 10.977 7.944 15.427a.478.478 0 0 1 0 .693c-.099.132-.23.165-.362.165Z" fill="#54A88E"/><path d="M109.493 113.828c1.813 0 3.494.989 4.417 2.571.429.725.825 1.418.89 1.615.165.429.561 1.912 2.011 3.33a.4.4 0 0 1 .033.527l-.923 1.187a.317.317 0 0 0-.066.297c.099.626.66 2.9.495 3.296-.33.857-2.407 1.088-3.033 1.154-.099 0-.231.066-.264.165-.197.362-.725 1.384-1.153 3.955-.66 3.923 3.065 4.516 2.307 4.912-5.307 2.67-15.065 2.077-14.504.956.461-.923 5.834-3.297 6.329-9.725.297-4.021-5.307-4.351-1.253-11.999.89-1.846 2.934-2.274 4.714-2.241Z" fill="#F1BBA2"/><path d="m112.592 119.992 2.11-2.67c1.087-1.352.692-3.363-.791-4.253-.429-.23-.923-.494-1.451-.725-5.439-2.34-11.702 1.516-11.702 7.45 0 2.439 1.615 5.241 5.076 7.747 0 0 2.44-1.912 2.407-3.989 0 0-1.747-2.077.725-3.132a1.798 1.798 0 0 1 1.483.033c.726.396 1.616.198 2.143-.461Z" fill="#5A595A"/><path d="M103.594 114.191s-1.846-6.362-8.571-5.176c-4.187.758-7.846 3.56-9.856 8.175-3.89 8.901-.363 17.372-6.725 25.086-1.418 1.747-.264 4.384 1.978 4.483 4.252.132 10.02-.89 14.01-6.362 3.263-4.483 1.22-25.152 8.405-24.855l.759-1.351Z" fill="#5A595A"/><path d="M266.98 82.214h29.833c.956 0 1.846-.79 1.978-1.747l4.945-41.04c.131-.956-.561-1.747-1.55-1.747h-29.832l-5.374 44.534ZM266.837 82.215l5.472-44.568h-28.645c-.989 0-1.879.791-2.011 1.747l-5.044 41.04c-.132.957.594 1.748 1.583 1.748" fill="#DBD396"/><path d="M296.973 81.457h-29.832c-.198 0-.363-.1-.429-.264-.099-.165-.066-.363.033-.527l4.252-5.637a.456.456 0 0 1 .363-.198l22.416-.824c.066 0 .164 0 .23.033l3.264 1.45c.198.066.297.264.297.462l-.099 5.01c-.033.264-.231.495-.495.495Zm-28.876-.99h28.349l.066-4.186-2.868-1.285-22.053.79-3.494 4.682Z" fill="#fff"/><path d="m301.748 32.934.561 3.593-5.341 44.436-.593-3.462 5.373-44.567Z" fill="#DBD396"/><path d="M296.978 81.457c-.23 0-.461-.165-.494-.396l-.593-3.461v-.132l5.373-44.568a.5.5 0 0 1 .494-.428c.231 0 .462.164.495.428l.593 3.593v.132l-5.373 44.436c-.033.198-.264.395-.495.395Zm-.098-3.956v.066l4.944-41.008v-.066l-4.944 41.008Z" fill="#fff"/><path d="M267.133 80.962c2.142-2.209 5.043-3.461 7.944-3.461h21.295l5.373-44.568H280.45c-2.9 0-5.801 1.253-7.944 3.461l-5.373 44.568Z" fill="#fff"/><path d="M270.297 75.984c1.615-.66 3.362-1.022 5.076-1.022h18.724l4.747-39.458H280.12c-1.846 0-3.692.692-5.208 1.912l-4.615 38.568Z" fill="#F1FFCA"/><path d="M267.111 81.457h-27.789c-.231 0-.461-.165-.494-.396l-.594-3.461c0-.099 0-.165.033-.264l13.615-34.48c.065-.198.263-.297.461-.297s.396.132.462.33l14.801 37.909a.467.467 0 0 1-.066.461.533.533 0 0 1-.429.198Zm-27.393-.99h26.668l-14.043-36.062-13.087 33.162.462 2.9Z" fill="#fff"/><path d="M267.114 80.963c-1.615-2.21-4.219-3.462-7.12-3.462h-21.295l5.373-44.567h21.295c2.901 0 5.472 1.252 7.121 3.46l-5.374 44.569Z" fill="#fff"/><path d="M269.811 37.417c-1.187-1.22-2.868-1.912-4.747-1.912h-18.723l-4.747 39.458h18.723c1.715 0 3.363.363 4.846 1.022l4.648-38.568Z" fill="#F1FFCA"/><path d="M278.342 50.14h15.691c.329 0 .56-.263.56-.56v-.132c0-.33-.264-.56-.56-.56h-15.691a.556.556 0 0 0-.561.56v.132c0 .297.264.56.561.56ZM275.146 47.207h15.691c.33 0 .561-.264.561-.56v-.133c0-.33-.264-.56-.561-.56h-15.691a.556.556 0 0 0-.56.56v.132c0 .297.264.56.56.56ZM274.618 52.975h15.691c.329 0 .56-.263.56-.56v-.132c0-.33-.263-.56-.56-.56h-15.691a.556.556 0 0 0-.561.56v.132c-.032.297.231.56.561.56ZM277.717 55.712h15.691c.329 0 .56-.264.56-.56v-.133c0-.33-.264-.56-.56-.56h-15.691a.556.556 0 0 0-.561.56v.132c0 .297.231.56.561.56ZM250.391 42.724h14.373c.329 0 .56-.264.56-.56v-.132c0-.33-.264-.56-.56-.56h-14.373a.556.556 0 0 0-.56.56v.131c-.033.297.231.56.56.56ZM248.228 45.558h14.109c.33 0 .56-.263.56-.56v-.132c0-.33-.263-.56-.56-.56h-14.109a.556.556 0 0 0-.56.56v.132c0 .297.231.56.56.56ZM246.77 48.295h17.306c.33 0 .561-.264.561-.56v-.133c0-.33-.264-.56-.561-.56H246.77a.556.556 0 0 0-.56.56v.132c-.033.33.231.56.56.56Z" fill="#DBD396"/><path fill="url(#c)" d="M0 139h352v149H0z"/></g><defs><linearGradient id="c" x1="176" y1="136.431" x2="176" y2="288" gradientUnits="userSpaceOnUse"><stop stop-color="#fff" stop-opacity="0"/><stop offset="1" stop-color="#F8F7DC"/></linearGradient><clipPath id="a"><path fill="#fff" d="M0 0h352v288H0z"/></clipPath></defs></svg>