<svg width="300" height="418" fill="none" xmlns="http://www.w3.org/2000/svg"><g clip-path="url(#a)"><path fill="#D6F3BA" d="M0 0h300v418H0z"/><path d="M52.806 293.535c-69.06-37.845-75.29-114.438-75.517-117.957-2.55-39.782 11.43-96.742 55.435-119.7 5.101-2.649 34.126-17.825 59.922-7.072 20.502 8.557 40.325 34.098 47.008 56.25.936 3.132 1.679 6.393 4.649 9.751 11.429 12.949 33.9 2.325 51.722 6.458 30.316 7.04 56.274 58.995 47.105 104.912-11.074 55.281-68.058 76.593-77.002 79.757-55.111 19.503-103.41-6.975-113.322-12.399Z" fill="#D6F3BA"/><path d="M68.191 120.619c5.073-4.092 5.87-11.522 1.777-16.595-4.091-5.073-11.521-5.869-16.595-1.777-5.073 4.091-5.868 11.521-1.777 16.595 4.092 5.073 11.522 5.869 16.595 1.777Z" fill="#F37E60"/><path d="M61.336 117.104a.529.529 0 0 1-.363-.165l-5.637-6.197a.478.478 0 0 1 .033-.692.477.477 0 0 1 .692.033l4.747 5.208c-.033-4.417.528-7.845 1.714-10.483.1-.263.396-.362.66-.263.263.099.362.395.263.659-1.22 2.736-1.747 6.56-1.582 11.373a.517.517 0 0 1-.297.461c-.132.066-.198.066-.23.066Z" fill="#fff"/><path d="M195.698 302.857H71.225c-5.373 0-9.164-4.319-8.472-9.692L93.41 51.043c.692-5.34 5.571-9.691 10.944-9.691L222.564 40c13.581 0 15.427 5.703 14.735 11.076l-30.657 242.122c-.659 5.307-5.571 9.659-10.944 9.659Z" fill="#A9C797"/><path d="M188.218 302.857H63.745c-5.373 0-9.164-4.351-8.472-9.724L85.93 50.253c.692-5.374 5.57-9.725 10.944-9.725h124.473c5.373 0 9.164 4.351 8.471 9.724l-30.656 242.881c-.693 5.373-5.571 9.724-10.944 9.724Z" fill="#fff"/><path d="M62.356 293.462 91.628 61.559c.165-1.253 1.285-2.242 2.538-2.242h125.099c1.253 0 2.11.989 1.945 2.242l-29.272 231.903c-.165 1.252-1.286 2.241-2.538 2.241H64.3c-1.22 0-2.11-.989-1.944-2.241ZM157.524 52.89c-2.011 0-3.428-1.616-3.164-3.627.263-2.01 2.076-3.626 4.087-3.626 2.011 0 3.429 1.615 3.165 3.626-.231 2.01-2.077 3.626-4.088 3.626Z" fill="#F4FCD0"/><mask id="b" style="mask-type:luminance" maskUnits="userSpaceOnUse" x="62" y="59" width="160" height="237"><path d="M62.352 293.462 91.624 61.559c.165-1.253 1.285-2.242 2.538-2.242h125.099c1.253 0 2.11.99 1.945 2.242l-29.272 231.903c-.165 1.253-1.286 2.242-2.538 2.242h-125.1c-1.22 0-2.11-.989-1.944-2.242Z" fill="#fff"/></mask><g mask="url(#b)"><path d="M209.729 168H76.719l.428-4.813h133.011l-.429 4.813ZM194.471 283.803H62.68l.461-4.812H194.9l-.428 4.812Z" fill="#B9DD86"/><path d="M174.764 198.855c1.879-3.89 1.846-8.967.857-14.603l-4.021 3.461-4.747-4.121c1.615 6.659 2.373 12.593-.626 15.395l8.537-.132Z" fill="#F3C55C"/><path d="M150.637 278.892h17.141c2.967 0 5.571-2.374 5.868-5.34l7.285-73.049c.296-3-1.912-5.439-4.912-5.439h-19.284c-3.033 0-5.67 2.472-5.901 5.505l-5.142 73.048c-.198 2.901 2.011 5.275 4.945 5.275Z" fill="#A9C797"/><path d="M156.832 207.359h16.614c1.22 0 2.341-.989 2.44-2.241.099-1.22-.792-2.242-2.044-2.242h-16.614c-1.22 0-2.341.989-2.439 2.242-.099 1.252.824 2.241 2.043 2.241ZM156.931 218.468h13.977c1.945 0 3.692-1.582 3.857-3.527l.164-1.648c.165-1.945-1.252-3.527-3.23-3.527h-13.977c-1.945 0-3.692 1.582-3.857 3.527l-.164 1.648c-.165 1.945 1.252 3.527 3.23 3.527Z" fill="#B9DD86"/><path d="M67.4 278.892h15.89c2.735 0 5.175-2.374 5.471-5.34l7.22-73.082c.296-3-1.715-5.439-4.516-5.439H73.597c-2.802 0-5.274 2.472-5.505 5.505l-5.274 73.048c-.132 2.934 1.879 5.308 4.582 5.308Z" fill="#A9C797"/><path d="M74.686 205.217h14.372c1.22 0 2.34-.989 2.44-2.242l.098-1.022c.1-1.219-.79-2.241-2.044-2.241H75.147c-1.22 0-2.34.989-2.44 2.241l-.098 1.022c-.066 1.253.824 2.242 2.077 2.242ZM74.555 218.831h11.802c1.945 0 3.692-1.582 3.856-3.527l.33-3.659c.165-1.945-1.253-3.527-3.23-3.527H75.544c-1.944 0-3.692 1.582-3.856 3.527l-.33 3.659c-.198 1.945 1.252 3.527 3.197 3.527Z" fill="#B9DD86"/><path d="m120.203 195.328-17.141-.132c-2.967-.033-5.604 2.34-5.933 5.307l-7.846 73.049c-.33 3 1.846 5.472 4.846 5.472l19.251.165c3.033.033 5.703-2.44 5.933-5.472l5.736-73.082c.231-2.934-1.912-5.307-4.846-5.307Z" fill="#A9C797"/><path d="m111.3 261.487-12.13-.099c-2.473-.033-4.649 1.978-4.912 4.45l-.363 3.626c-.23 2.473 1.55 4.483 4.022 4.516l12.131.099c2.472.033 4.648-1.978 4.911-4.45l.363-3.626c.231-2.505-1.582-4.516-4.022-4.516ZM115.327 253.179l-17.701-.131c-.923 0-1.747.725-1.846 1.681l-.165 1.549a1.499 1.499 0 0 0 1.516 1.681l17.702.132c.923 0 1.747-.725 1.846-1.681l.165-1.549c.099-.89-.594-1.649-1.517-1.682ZM115.682 248.07l-17.867-.132c-.89 0-1.68.693-1.747 1.583-.099.89.56 1.615 1.45 1.615l17.867.132c.89 0 1.682-.692 1.748-1.582a1.483 1.483 0 0 0-1.451-1.616Z" fill="#B9DD86"/><path d="m205.489 194.932-17.142-.132c-2.967-.033-5.604 2.34-5.933 5.307l-7.846 73.049c-.329 2.999 1.846 5.472 4.846 5.472l19.251.164c3.033.033 5.703-2.439 5.934-5.472l5.768-73.048c.231-2.934-1.945-5.308-4.878-5.34Z" fill="#7FCBB4"/><path d="m196.589 261.091-12.131-.099c-2.472-.033-4.647 1.978-4.911 4.45l-.363 3.626c-.231 2.473 1.549 4.483 4.022 4.516l12.131.099c2.472.033 4.648-1.978 4.911-4.45l.363-3.626c.231-2.472-1.549-4.483-4.022-4.516ZM200.613 252.817l-17.702-.132c-.923 0-1.747.725-1.846 1.681l-.165 1.549a1.498 1.498 0 0 0 1.516 1.681l17.702.132c.923 0 1.747-.725 1.846-1.681l.165-1.549a1.498 1.498 0 0 0-1.516-1.681ZM200.967 247.707l-17.866-.132c-.89 0-1.681.693-1.747 1.583-.099.89.56 1.615 1.45 1.615l17.867.132c.89 0 1.681-.692 1.747-1.582.099-.89-.561-1.616-1.451-1.616Z" fill="#54A88E"/><path d="M124.356 279.518h13.878c2.407 0 4.549-2.373 4.846-5.34l7.153-73.049c.297-2.999-1.45-5.439-3.857-5.439h-15.592c-2.439 0-4.648 2.473-4.845 5.505l-5.44 73.049c-.263 2.934 1.451 5.274 3.857 5.274Z" fill="#A9C797"/><path d="M130.457 209.37h14.241c1.121 0 2.143-.923 2.241-2.044l.396-4.483c.099-1.12-.725-2.043-1.879-2.043h-14.241c-1.12 0-2.142.923-2.241 2.043l-.396 4.483c-.099 1.121.726 2.044 1.879 2.044ZM129.703 218.633h13.713c1.286 0 2.406-1.055 2.538-2.307l.132-1.55c.132-1.285-.824-2.307-2.11-2.307h-13.713c-1.285 0-2.406 1.055-2.538 2.307l-.132 1.55c-.099 1.285.824 2.307 2.11 2.307Z" fill="#B9DD86"/><path d="M124.933 82.326c-1.187-3.89-.231-8.966 1.78-14.603l3.395 3.428 5.472-4.12c-2.835 6.658-4.648 12.592-2.175 15.394l-8.472-.1Z" fill="#F37E60"/><path d="M128.855 162.891h-17.141c-2.967 0-5.143-2.374-4.912-5.34l5.966-73.05c.231-2.999 2.901-5.438 5.901-5.438h19.284c3.033 0 5.241 2.472 4.879 5.505l-8.109 73.048c-.33 2.934-2.934 5.275-5.868 5.275Z" fill="#A9C797"/><path d="M129.837 147.068h-16.614c-1.22 0-2.143-.989-2.044-2.242.099-1.22 1.22-2.242 2.439-2.242h16.614c1.22 0 2.143.989 2.044 2.242-.132 1.22-1.219 2.242-2.439 2.242ZM127.736 158.144h-13.977c-1.945 0-3.395-1.583-3.231-3.527l.165-1.649c.165-1.945 1.912-3.527 3.857-3.527h13.977c1.945 0 3.395 1.582 3.23 3.527l-.164 1.649c-.165 1.944-1.912 3.527-3.857 3.527Z" fill="#B9DD86"/><path d="M214.423 162.891h-15.889c-2.736 0-4.747-2.374-4.516-5.34l6.032-73.05c.264-2.999 2.704-5.438 5.506-5.438h17.866c2.802 0 4.813 2.472 4.483 5.505l-8.01 73.048c-.33 2.934-2.736 5.275-5.472 5.275Z" fill="#A9C797"/><path d="M215.515 144.53H201.11c-1.22 0-2.143-.989-2.044-2.242l.099-1.022c.099-1.219 1.219-2.241 2.439-2.241h14.405c1.22 0 2.143.989 2.044 2.241l-.099 1.022c-.099 1.253-1.186 2.242-2.439 2.242ZM213.173 158.144h-11.801c-1.945 0-3.395-1.582-3.23-3.527l.329-3.659c.165-1.945 1.912-3.527 3.857-3.527h11.801c1.945 0 3.396 1.582 3.231 3.527l-.33 3.659c-.165 1.945-1.912 3.527-3.857 3.527Z" fill="#B9DD86"/><path d="M184.585 163.088h-17.141c-2.967 0-5.142-2.373-4.912-5.34l5.967-73.049c.231-3 2.901-5.439 5.901-5.439h19.284c3.032 0 5.241 2.473 4.878 5.505l-8.109 73.049c-.297 2.934-2.934 5.274-5.868 5.274Z" fill="#F3C55C"/><path d="M188.213 96.93h-12.131c-2.472 0-4.285-2.012-4.054-4.484l.329-3.626c.231-2.472 2.407-4.483 4.879-4.483h12.131c2.472 0 4.285 2.01 4.054 4.483l-.329 3.626c-.198 2.472-2.407 4.483-4.879 4.483ZM190.681 105.236h-17.702a1.498 1.498 0 0 1-1.516-1.681l.131-1.549c.099-.923.89-1.681 1.846-1.681h17.702a1.5 1.5 0 0 1 1.517 1.681l-.132 1.549c-.099.923-.923 1.681-1.846 1.681ZM190.089 110.345h-17.867c-.89 0-1.549-.725-1.45-1.615.065-.89.857-1.615 1.747-1.615h17.866c.89 0 1.55.725 1.451 1.615-.066.89-.857 1.615-1.747 1.615Z" fill="#BF983D"/><path d="M155.552 163.517h-13.251c-2.275 0-3.956-2.373-3.725-5.34l5.835-73.048c.23-3 2.34-5.44 4.647-5.44h14.933c2.341 0 4.022 2.473 3.692 5.506l-7.483 73.048c-.296 2.934-2.373 5.274-4.648 5.274Z" fill="#A9C797"/><path d="M162.107 91.226H148.46c-1.088 0-1.879-.923-1.78-2.043l.198-2.34c.099-1.122 1.055-2.045 2.143-2.045h13.647c1.088 0 1.879.923 1.78 2.044l-.198 2.34c-.099 1.121-1.055 2.044-2.143 2.044ZM161.385 98.215h-13.119c-1.22 0-2.143-1.055-2.011-2.307.099-1.286 1.186-2.308 2.439-2.308h13.12c1.22 0 2.143 1.055 2.011 2.308-.132 1.252-1.22 2.307-2.44 2.307Z" fill="#B9DD86"/><path d="M99.543 163.155H86.127c-2.308 0-3.989-2.374-3.758-5.341l5.9-73.048c.231-3 2.34-5.44 4.714-5.44h15.098c2.373 0 4.055 2.473 3.725 5.506l-7.582 73.048c-.297 2.934-2.406 5.275-4.68 5.275Z" fill="#A9C797"/><path d="M106.139 90.864H92.36c-1.088 0-1.912-.923-1.813-2.044l.198-2.34c.099-1.121 1.088-2.044 2.175-2.044h13.78c1.087 0 1.912.922 1.813 2.043l-.198 2.34c-.099 1.122-1.088 2.045-2.176 2.045ZM105.414 97.82H92.129c-1.252 0-2.142-1.055-2.043-2.308.099-1.285 1.22-2.307 2.439-2.307h13.285c1.252 0 2.142 1.054 2.043 2.307-.099 1.286-1.186 2.308-2.439 2.308Z" fill="#B9DD86"/></g><path d="M266.936 153.463a.469.469 0 0 1-.395-.197c-.165-.231-.132-.528.098-.693l.759-.593c.692-.527 1.549-1.615 1.549-1.615.165-.231.461-.264.692-.099.231.165.264.461.099.692-.033.033-.923 1.187-1.714 1.813l-.758.593a.738.738 0 0 1-.33.099ZM265.659 152.013c-.164 0-.362-.098-.428-.263-.132-.231-.033-.528.198-.66l.857-.428c.791-.396 1.78-1.319 1.813-1.352a.479.479 0 0 1 .692.033.478.478 0 0 1-.033.693c-.033.033-1.121 1.021-2.011 1.483l-.857.429c-.099.032-.165.065-.231.065Z" fill="#000"/><path d="M236.45 136.223c-2.34.297-14.999 2.868-16.086 17.141a.802.802 0 0 0 .428.792l7.318 4.219a.914.914 0 0 1 .429.758c-.066 2.604-.495 14.472-1.616 19.449-.857 3.89-1.45 7.054-1.747 8.637a.88.88 0 0 0 .923 1.022c1.78-.165 5.341-.561 7.681-1.286 2.934-.89 4.252-2.637 11.373.33 1.483.626 3.197.527 4.615-.231 3.889-2.077 12.032-5.736 17.603-3.89.626.198 1.252-.362 1.12-.989-.824-3.659-2.538-10.746-2.703-14.471-.231-4.681 2.44-20.207 1.22-21.822-1.187-1.55-6.428-5.11-9.955-6.066-1.286-.362-2.67-.395-3.758-.659-2.736-.659-10.318-3.791-16.845-2.934Z" fill="#F37E60"/><path d="M223.923 171.001c2.176 3.263 4.714 4.285 10.186 2.868 5.505-1.418 17.142-9.758 22.91-17.702 0 0 .396-.725 1.517-.593 1.121.131 5.768 1.911 9.197-1.121 3.428-3.033 2.604-5.242 2.439-5.637-.297-.692-5.439.198-6.823-.429-1.385-.626-1.385-1.582-.33-2.999 1.253-1.682-1.516-2.077-3.626.923-1.286 1.846-3.428 4.252-5.406 5.241-2.011 1.022-22.548 8.406-23.603 8.076-1.055-.33-7.713-4.351-7.713-4.351s-1.121 12.197 1.252 15.724Z" fill="#F1BBA2"/><path d="m266.645 155.243-.066.726-.462 4.219c-.461 3.725-.099 6.725-.099 6.725 0 1.153.692 2.538 1.583 3.296 1.021.89 1.549 1.088 2.34 1.385 3.099 1.12 4.45.791 5.571-2.407 1.121-3.197.725-5.175-1.912-15.064 0 0-.725-2.011 1.319-3.33 1.813-1.186 1.219-4.054-.462-6.23-2.67-3.494-8.274 10.219-7.812 10.68Z" fill="#F1BBA2"/><path d="M268.488 148.75s-4.549.494-5.934-.627c-1.055-.824.89-3.296 1.055-3.461 1.22-1.615 4.121-5.406 4.549-5.933.396-.495 1.121-1.649 2.11-1.55.989.099 6.329.956 6.692 1.154.824.363.461 1.483-.132 2.11-.627.593-8.34 8.307-8.34 8.307Z" fill="#DBD396"/><path d="M230.679 186.494s-4.385 36.458-4.912 43.479c-.527 7.022-1.351 31.646 0 43.81.89 7.878 1.483 13.153 1.813 15.889.132 1.252 1.22 2.208 2.505 2.208h8.934a.816.816 0 0 0 .824-.824c.033-3.296.329-15.79 2.439-26.503 2.439-12.428 5.143-31.909 6.494-39.755.462-2.604.824-5.538 1.154-8.373l1.022 2.967c1.022 2.967 4.878 22.976 5.933 30.822.989 7.12 2.637 35.733 2.934 40.842.033.429.396.791.824.791h11.439a.826.826 0 0 0 .824-.758c.527-5.307 3.659-37.348 3.164-51.721-.527-15.691-7.581-34.348-8.933-39.491-1.351-5.142-3.164-18.163-3.164-18.163s-27.46.494-33.294 4.78Z" fill="#F3C55C"/><path d="M249.904 216.853h-.066a.492.492 0 0 1-.428-.56c.198-1.615.362-3.362.527-5.142.33-3.593 2.736-6.725 6.132-7.978l1.977-.725c.264-.099.528.033.627.297.099.264-.033.527-.297.626l-1.978.725a8.472 8.472 0 0 0-5.472 7.121c-.165 1.78-.362 3.527-.527 5.175a.498.498 0 0 1-.495.461Z" fill="#BF983D"/><path d="M269.506 291.881h-7.285c-.527 0-.989.297-1.187.791-.659 1.582-1.977 5.241-1.78 8.736.033.955.824 1.681 1.78 1.681h21.394c.989 0 1.714-.89 1.55-1.846-.231-1.154-1.055-2.67-3.396-4.022-3.791-2.209-8.57-4.417-10.087-5.109a2.417 2.417 0 0 0-.989-.231Z" fill="#D1D1D1"/><path d="M270.503 297.188a.478.478 0 0 1-.362-.825l3.065-3.032a.477.477 0 0 1 .692 0 .477.477 0 0 1 0 .692l-3.065 3.033a.504.504 0 0 1-.33.132ZM272.48 298.407a.477.477 0 0 1-.363-.824l3.066-3.033a.477.477 0 0 1 .692 0 .477.477 0 0 1 0 .692l-3.066 3.033c-.066.099-.197.132-.329.132Z" fill="#595959"/><path d="M237.373 291.881h-7.285c-.527 0-.989.297-1.186.791-.66 1.582-1.978 5.241-1.78 8.736.033.955.824 1.681 1.78 1.681h21.393c.989 0 1.715-.89 1.55-1.846-.231-1.154-1.055-2.67-3.396-4.022-3.79-2.209-8.57-4.417-10.087-5.109a2.549 2.549 0 0 0-.989-.231Z" fill="#D1D1D1"/><path d="M237.534 296.924a.477.477 0 0 1-.362-.824l3.065-3.033a.479.479 0 0 1 .693 0 .479.479 0 0 1 0 .692l-3.066 3.033a.504.504 0 0 1-.33.132ZM239.515 298.144a.479.479 0 0 1-.363-.825l3.066-3.032a.477.477 0 0 1 .692 0 .477.477 0 0 1 0 .692l-3.065 3.033c-.066.099-.198.132-.33.132Z" fill="#595959"/><path d="m245.786 118.192.494.197s.396.231.759.923c.362.693.989 2.769 1.78 2.637.791-.131 1.78-3.395 1.78-3.395s.296-1.615 2.769-.989c2.472.627 4.384 1.648 5.109 2.077.725.428 1.418.56 2.143.494.725-.066 3.131-1.483 2.703-3.758-.429-2.274-2.538-3.823-4.384-3.823-1.912 0-4.681-1.22-5.176-1.484-.494-.23-3.395-1.417-4.977-.56-1.418.791-2.604 2.044-3.231 4.186-.395 1.385-.099 2.637-.066 3.066.099.231.132.396.297.429Z" fill="#363537"/><path d="M258.814 119.939c.033.033.066.066.066.131-.033.363-.099 1.945.132 3.33.132.758.626 2.67.429 3.033-.198.395-.989.428-1.352.395-.363-.033-.956.132-1.088.429-.165.296-.593 3.065-.791 3.725-.165.659-.791 1.417-1.879 1.318-.132 0-.56-.099-.89-.198a.397.397 0 0 0-.494.33c-.528 3.362 2.867 7.153 3.692 8.043.098.099.066.231-.066.297-7.549 3.296-15.329-2.406-17.438-4.154-.099-.065 3.955-1.186 5.9-5.834.857-2.044.561-5.241.594-6.527 0-.264-.132-.495-.363-.593-.495-.231-1.253-1.022-1.483-1.781-.297-1.12-.198-4.647 2.736-3.23 0 0 .395.231.758.923.362.692.989 2.769 1.78 2.637.791-.132 1.78-3.395 1.78-3.395s.297-1.615 2.769-.989c2.307.56 4.747 1.846 5.208 2.11ZM75.274 294.418s-.89 6.296 1.154 8.934l.626 1.12-10.285-1.219.56-1.088a12.917 12.917 0 0 0 1.484-6.197l6.461-1.55Z" fill="#F1BBA2"/><path d="m76.625 299.857 1.022 1.187a19.353 19.353 0 0 0 7.516 5.373l2.241.89a.802.802 0 0 1 .429.495l.033.099c.263 1.252-1.22 4.087-5.835 4.977-2.835.561-9.494.791-17.405-2.439-.495-.198-.824-.725-.758-1.253.165-1.978.758-6.658 2.604-8.933a.552.552 0 0 1 .824-.066l2.242 2.209c.989.989 2.604.956 3.593-.033l2.505-2.571c.23-.264.725-.264.989.065Z" fill="#7FCBB4"/><path d="M75.767 309.615a24.566 24.566 0 0 1-9.922-2.176l-1.747-.791c-.264-.099-.362-.396-.264-.659.1-.264.396-.363.66-.264l1.747.791a23.54 23.54 0 0 0 9.494 2.077c.099 0 .131-.033.164-.066s.066-.099.033-.165l-.296-.89c-.132-.429-.033-.857.296-1.154.33-.296.791-.362 1.187-.165l.857.396a9.904 9.904 0 0 0 7.813.231l.494-.198a.487.487 0 0 1 .626.264.487.487 0 0 1-.263.626l-.495.198a10.985 10.985 0 0 1-8.603-.264l-.858-.396s-.065-.032-.098 0c-.033.033-.033.099-.033.099l.296.89a1.1 1.1 0 0 1-.165 1.055c-.164.396-.527.561-.922.561Z" fill="#54A88E"/><path d="M29.968 282.156s-4.319 4.813-4.352 8.208l-.197 1.286-7.45-8.077 1.153-.362c1.912-1.055 3.857-1.615 5.044-3.429l5.802 2.374Z" fill="#F1BBA2"/><path d="m27.177 288.781-.263 1.583a19.592 19.592 0 0 0 .725 9.361l.758 2.308a.776.776 0 0 1-.099.659l-.066.099c-.79 1.055-3.988 1.714-7.68-1.286-2.275-1.846-6.824-6.856-9.494-15.163a1.302 1.302 0 0 1 .461-1.418c1.649-1.153 5.67-3.757 8.67-3.823.33 0 .593.263.56.593l-.263 3.164c-.1 1.418.956 2.671 2.373 2.769l3.626.264c.462.066.758.462.692.89Z" fill="#7FCBB4"/><path d="M28.067 301.703a.61.61 0 0 1-.23-.066l-.495-.263a11.204 11.204 0 0 1-5.44-6.857l-.263-.956c0-.033-.033-.066-.099-.066-.033 0-.066 0-.099.033l-.494.824a1.21 1.21 0 0 1-.923.561 1.12 1.12 0 0 1-.989-.429 25.28 25.28 0 0 1-4.78-9.131l-.527-1.879a.522.522 0 0 1 .33-.626.522.522 0 0 1 .626.329l.527 1.879c.923 3.231 2.472 6.165 4.582 8.769.066.066.132.066.165.066s.099-.033.165-.099l.494-.824c.231-.363.66-.561 1.088-.495.429.066.791.363.89.792l.264.956a10.246 10.246 0 0 0 4.944 6.263l.495.263c.23.132.33.429.198.66-.1.197-.264.296-.429.296Z" fill="#54A88E"/><path d="M58.654 204.031s-5.44 8.274-5.505 22.514c-.066 16.087-21.723 31.151-29.833 52.446a9.275 9.275 0 0 0 5.242 6.824l.066.033s21.756-8.769 30.26-22.35c4.913-7.813 11.34-23.965 11.34-23.965l-3-30.492-.725-.198c-1.846-.494-3.56-1.252-5.24-2.175a6.103 6.103 0 0 1-2.605-2.637Z" fill="#EBCC93"/><path d="M60.897 206.667s-2.505 12.757 3.626 23.471c6.165 10.713 5.176 21.459 3.791 26.8-1.384 5.34-4.911 21.393-1.384 38.93 0 0 4.087 1.945 9.032.33 0 0 13.614-28.283 14.834-45.919 1.22-17.636-5.34-41.865-5.34-41.865s-14.966 3.89-24.559-1.747Z" fill="#EBCC93"/><path d="M126.515 147.497c-8.043 0-15.889-4.12-20.306-11.504-4.615-7.714-4.384-17.57.561-25.053.164-.231.461-.297.692-.132.231.165.297.461.132.692-4.747 7.186-4.945 16.614-.528 24.031 3.099 5.175 8.011 8.867 13.878 10.318 5.868 1.483 11.933.593 17.109-2.505a22.841 22.841 0 0 0 7.45-7.187c.131-.23.461-.296.692-.164.231.131.296.461.165.692-1.978 3.098-4.582 5.604-7.78 7.516-3.824 2.208-7.977 3.296-12.065 3.296ZM148.338 131.773c-.066 0-.099 0-.165-.033-.263-.099-.395-.362-.296-.626 1.021-3 1.384-6.131 1.087-9.263a.467.467 0 0 1 .462-.527.466.466 0 0 1 .527.461 23.496 23.496 0 0 1-1.153 9.659.466.466 0 0 1-.462.329Z" fill="#fff"/><path d="M111.99 163.88c.791.363 1.747-.033 2.077-.824l4.911-11.57-2.934-1.286-4.911 11.57c-.33.824.033 1.747.857 2.11Z" fill="#F3C55C"/><path d="M98.412 130.289c3.56 15.56 18.955 25.317 34.382 21.79 15.427-3.527 25.02-19.021 21.46-34.58-3.561-15.559-18.955-25.316-34.382-21.789-15.394 3.527-25.02 18.987-21.46 34.579Zm3.692-.857c-3.099-13.515 5.241-26.964 18.625-30.03 13.383-3.066 26.734 5.406 29.833 18.921 3.098 13.516-5.242 26.965-18.625 30.031-13.384 3.065-26.734-5.406-29.833-18.922Z" fill="#F3C55C"/><path d="M112.364 169.022c.363.132 1.517-1.384 1.78-1.648 1.055-1.055 3.528-2.274 4.055-4.483.659-2.835-.593-5.901-1.319-5.802-.725.099-1.648 5.472-4.483 5.67 0 0-.626-.066-.56-2.736 0-.363-.396-.626-.725-.461-.462.23-1.022.758-1.517 1.813-.593 1.384-.494 2.966-.395 3.922.066.627-.165 2.539.329 2.703l2.835 1.022Z" fill="#F1BBA2"/><path d="m114.219 168.462-5.703-2.11c-2.241 3.989-4.648 7.45-7.318 9.593a23.83 23.83 0 0 1-5.076 3.098c-.792.363-1.748 0-2.077-.824-.89-2.274-2.374-5.835-4.978-10.021-1.978-3.165-5.241-5.736-7.944-7.087-4.22-2.077-9.098-3.099-13.78-2.176-8.998 1.813-15.163 7.054-15.163 7.054-4.911 3.923-13.944 17.537-10.713 24.13 3.956 8.043 14.636 3.33 14.636 3.33s.23 3.724-2.01 8.867c-2.704 6.23-.034 7.878-.034 7.878 10.977 11.604 35.305.66 33.261-4.318-2.208-5.307-2.241-12.065-2.241-12.065 3.032 3 7.186 2.538 7.186 2.538s2.406-.164 4.054-.857c14.373-4.845 17.9-27.03 17.9-27.03Z" fill="#7FCBB4"/><path d="M56.191 189.79a.496.496 0 0 1-.461-.33c-3.033-8.801-1.682-15.691-1.616-15.987a.542.542 0 0 1 .594-.396c.263.066.428.33.395.594 0 .065-1.384 6.922 1.583 15.46.098.263-.033.527-.297.626-.066 0-.132.033-.198.033ZM84.836 194.306c-.132 0-.264-.033-.33-.132-4.747-4.648-8.076-15.394-8.208-15.855a.523.523 0 0 1 .33-.627.522.522 0 0 1 .626.33c.033.099 3.362 10.977 7.944 15.427a.478.478 0 0 1 0 .692c-.098.132-.23.165-.362.165Z" fill="#54A88E"/><path d="M72.493 138.828c1.813 0 3.494.989 4.417 2.571.429.725.825 1.418.89 1.615.165.429.56 1.912 2.011 3.33a.4.4 0 0 1 .033.527l-.923 1.187a.317.317 0 0 0-.066.297c.1.626.66 2.9.495 3.296-.33.857-2.407 1.088-3.033 1.154-.099 0-.23.066-.264.165-.197.362-.725 1.384-1.153 3.955-.66 3.923 3.065 4.516 2.307 4.912-5.307 2.67-15.065 2.077-14.504.956.461-.923 5.834-3.297 6.329-9.725.297-4.021-5.307-4.351-1.253-11.999.89-1.846 2.934-2.274 4.714-2.241Z" fill="#F1BBA2"/><path d="m75.592 144.992 2.11-2.671c1.088-1.351.692-3.362-.791-4.252a19.795 19.795 0 0 0-1.45-.725c-5.44-2.341-11.703 1.516-11.703 7.45 0 2.439 1.615 5.241 5.076 7.746 0 0 2.44-1.912 2.407-3.988 0 0-1.747-2.077.725-3.132a1.791 1.791 0 0 1 1.483.033c.725.396 1.615.198 2.143-.461Z" fill="#5A595A"/><path d="M66.594 139.19s-1.846-6.362-8.571-5.175c-4.187.758-7.846 3.56-9.856 8.175-3.89 8.9-.363 17.372-6.725 25.086-1.418 1.747-.264 4.384 1.978 4.483 4.252.132 10.02-.89 14.01-6.362 3.263-4.483 1.22-25.152 8.405-24.855l.759-1.352Z" fill="#5A595A"/><path d="M229.98 107.215h29.833c.956 0 1.846-.791 1.978-1.747l4.945-41.04c.131-.957-.561-1.748-1.55-1.748h-29.832l-5.374 44.535ZM229.837 107.215l5.472-44.568h-28.645c-.989 0-1.879.791-2.011 1.747l-5.044 41.041c-.132.956.594 1.747 1.583 1.747" fill="#DBD396"/><path d="M259.973 106.457h-29.832c-.198 0-.363-.099-.429-.264-.099-.165-.066-.363.033-.528l4.252-5.637a.457.457 0 0 1 .363-.197l22.416-.824c.066 0 .164 0 .23.033l3.264 1.45c.198.066.297.264.297.461l-.099 5.011c-.033.264-.231.495-.495.495Zm-28.876-.989h28.349l.066-4.187-2.868-1.285-22.053.791-3.494 4.681Z" fill="#fff"/><path d="m264.748 57.933.561 3.593-5.341 44.436-.593-3.461 5.373-44.568Z" fill="#DBD396"/><path d="M259.978 106.457c-.23 0-.461-.165-.494-.396l-.593-3.461v-.132l5.373-44.568a.5.5 0 0 1 .494-.428c.231 0 .462.164.495.428l.593 3.593v.132l-5.373 44.436c-.033.198-.264.396-.495.396Zm-.098-3.956v.066l4.944-41.008v-.066l-4.944 41.008Z" fill="#fff"/><path d="M230.133 105.962c2.142-2.209 5.043-3.461 7.944-3.461h21.295l5.373-44.568H243.45c-2.9 0-5.801 1.253-7.944 3.461l-5.373 44.568Z" fill="#fff"/><path d="M233.297 100.984c1.615-.659 3.362-1.022 5.076-1.022h18.724l4.747-39.458H243.12c-1.846 0-3.692.692-5.208 1.912l-4.615 38.568Z" fill="#F1FFCA"/><path d="M230.111 106.456h-27.789c-.231 0-.461-.164-.494-.395l-.594-3.461c0-.099 0-.165.033-.264l13.615-34.48c.065-.198.263-.297.461-.297s.396.132.462.33l14.801 37.908a.468.468 0 0 1-.066.462.534.534 0 0 1-.429.197Zm-27.393-.989h26.668l-14.043-36.062-13.087 33.162.462 2.9Z" fill="#fff"/><path d="M230.114 105.962c-1.615-2.208-4.219-3.461-7.12-3.461h-21.295l5.373-44.568h21.295c2.901 0 5.472 1.253 7.121 3.462l-5.374 44.567Z" fill="#fff"/><path d="M232.811 62.416c-1.187-1.22-2.868-1.912-4.747-1.912h-18.723l-4.747 39.459h18.723c1.715 0 3.363.362 4.846 1.021l4.648-38.568Z" fill="#F1FFCA"/><path d="M241.342 75.14h15.691c.329 0 .56-.263.56-.56v-.132c0-.33-.264-.56-.56-.56h-15.691a.556.556 0 0 0-.561.56v.132c0 .297.264.56.561.56ZM238.146 72.207h15.691c.33 0 .561-.264.561-.56v-.133c0-.33-.264-.56-.561-.56h-15.691a.556.556 0 0 0-.56.56v.132c0 .297.264.56.56.56ZM237.618 77.975h15.691c.329 0 .56-.263.56-.56v-.132c0-.33-.263-.56-.56-.56h-15.691a.556.556 0 0 0-.561.56v.132c-.032.297.231.56.561.56ZM240.717 80.711h15.691c.329 0 .56-.263.56-.56v-.132c0-.33-.264-.56-.56-.56h-15.691a.556.556 0 0 0-.561.56v.132c0 .297.231.56.561.56ZM213.391 67.724h14.373c.329 0 .56-.264.56-.56v-.132c0-.33-.264-.56-.56-.56h-14.373a.556.556 0 0 0-.56.56v.131c-.033.297.231.56.56.56ZM211.228 70.558h14.109c.33 0 .56-.264.56-.56v-.132c0-.33-.263-.56-.56-.56h-14.109a.556.556 0 0 0-.56.56v.132c0 .296.231.56.56.56ZM209.77 73.295h17.306c.33 0 .561-.264.561-.56v-.133c0-.33-.264-.56-.561-.56H209.77a.556.556 0 0 0-.56.56v.132c-.033.33.231.56.56.56Z" fill="#DBD396"/><path fill="url(#c)" d="M0 157h300v261H0z"/></g><defs><linearGradient id="c" x1="150" y1="152.5" x2="150" y2="418" gradientUnits="userSpaceOnUse"><stop stop-color="#fff" stop-opacity="0"/><stop offset="1" stop-color="#F8F7DC"/></linearGradient><clipPath id="a"><path fill="#fff" d="M0 0h300v418H0z"/></clipPath></defs></svg>