<svg width="1920" height="2089" fill="none" xmlns="http://www.w3.org/2000/svg"><g clip-path="url(#a)"><path fill="#F0F5FF" d="M0 0h1920v2089H0z"/><path d="M201 0v2089M1920 181.441H0M1920 824H0M1920 1467H0M1920 398.503H0M1920 1041.06H0M1920 1677H0M1920 616.55H0M1920 1259.11H0M1920 1902.11H0M416 0v2089M631 0v2089M846 0v2089M1061 0v2089M1276 0v2089M1491 0v2089M1706 0v2089" stroke="#86A5DA" stroke-opacity=".51"/><g filter="url(#b)"><rect x="248" y="69" width="877" height="407" rx="52" fill="#F0F5FF"/></g></g><defs><clipPath id="a"><path fill="#fff" d="M0 0h1920v2089H0z"/></clipPath><filter id="b" x="75.4" y="-103.6" width="1222.2" height="752.2" filterUnits="userSpaceOnUse" color-interpolation-filters="sRGB"><feFlood flood-opacity="0" result="BackgroundImageFix"/><feBlend in="SourceGraphic" in2="BackgroundImageFix" result="shape"/><feGaussianBlur stdDeviation="86.3" result="effect1_foregroundBlur_2003_2183"/></filter></defs></svg>