<svg width="256" height="169" fill="none" xmlns="http://www.w3.org/2000/svg"><g clip-path="url(#a)"><path d="M217.755 124.046c0 35.322-28.634 63.954-63.955 63.954-35.319 0-63.954-28.632-63.954-63.954S118.48 60.09 153.8 60.09c35.322.001 63.955 28.635 63.955 63.956Z" fill="#7FCBB4"/><path d="M305 90.774c0 23.071-18.867 41.774-42.146 41.774-23.273 0-42.141-18.703-42.141-41.774 0-23.07 18.867-41.774 42.141-41.774C286.133 49 305 67.703 305 90.774Z" fill="#68CCEA"/><path d="M239.197 182.824c11.842 0 21.441-9.765 21.441-21.811s-9.599-21.811-21.441-21.811c-11.842 0-21.442 9.765-21.442 21.811s9.6 21.811 21.442 21.811Z" fill="#F2C45B"/></g><defs><clipPath id="a"><path fill="#fff" d="M0 0h256v169H0z"/></clipPath></defs></svg>