<svg width="302" height="83" viewBox="0 0 302 83" fill="none" xmlns="http://www.w3.org/2000/svg">
<path d="M151.489 41.5357C122.063 41.5357 122.484 57.5094 83.8108 57.5094C48.4088 57.5094 66.576 39.0135 0.99998 41.5358" stroke="#F37E60" stroke-opacity="0.19" stroke-width="4.33135"/>
<path d="M151.511 41.2664C180.936 41.2664 180.516 57.2401 219.189 57.2401C254.591 57.2401 235.424 38.5317 301 41.054" stroke="#F37E60" stroke-opacity="0.19" stroke-width="4.33135"/>
<path d="M84.9261 55.054C83.3005 55.081 82 56.4086 82 58.0342C82.0271 59.6598 83.3547 60.9603 84.9803 60.9603C86.6059 60.9332 87.9064 59.6057 87.9064 57.9801C87.9064 56.3544 86.5517 55.054 84.9261 55.054Z" fill="#F37E60"/>
<path d="M150.926 38.054C149.3 38.081 148 39.4086 148 41.0342C148.027 42.6598 149.355 43.9603 150.98 43.9603C152.606 43.9332 153.906 42.6056 153.906 40.98C153.906 39.3544 152.552 38.054 150.926 38.054Z" fill="#F37E60"/>
<path d="M221.926 55.054C220.3 55.081 219 56.4086 219 58.0342C219.027 59.6598 220.355 60.9603 221.98 60.9603C223.606 60.9332 224.906 59.6057 224.906 57.9801C224.906 56.3544 223.552 55.054 221.926 55.054Z" fill="#F37E60"/>
<path d="M19.926 38.054C18.3004 38.081 16.9999 39.4086 16.9999 41.0342C17.027 42.6598 18.3546 43.9603 19.9802 43.9603C21.6058 43.9332 22.9063 42.6057 22.9063 40.9801C22.9063 39.3544 21.5516 38.054 19.926 38.054Z" fill="#F37E60"/>
<path d="M284.44 34.0542C280.854 34.0841 277.97 37.0276 278 40.6137C278.03 44.1998 280.974 47.0836 284.56 47.0537C288.146 47.0238 291.03 44.0803 291 40.4942C290.97 36.9081 288.026 34.0243 284.44 34.0542ZM284.53 44.1251C282.558 44.14 280.944 42.5562 280.914 40.5838C280.899 38.6115 282.483 36.9978 284.455 36.9828C286.428 36.9679 288.041 38.5517 288.056 40.5241C288.101 42.4964 286.502 44.1102 284.53 44.1251Z" fill="#F37E60"/>
<path d="M284.486 38.9045C283.578 38.9197 282.852 39.6611 282.852 40.5689C282.867 41.4768 283.608 42.203 284.516 42.203C285.424 42.1879 286.15 41.4465 286.15 40.5387C286.15 39.6308 285.394 38.9045 284.486 38.9045Z" fill="#F37E60"/>
</svg>
