<svg width="235" height="172" viewBox="0 0 235 172" fill="none" xmlns="http://www.w3.org/2000/svg">
<g clip-path="url(#clip0_729_1299)">
<path d="M236.028 171.614C236.028 171.614 249.16 130.132 221.636 109.804C215.842 105.527 210.802 103.512 198.621 103.555C185.648 103.604 173.974 115.768 169.388 124.009C160.891 139.276 153.852 171.614 153.852 171.614H236.028Z" fill="#7FCBB4"/>
<path d="M220.514 171.58C220.19 171.58 219.934 171.319 219.934 171V147.366C219.93 147.255 219.2 133.177 217.231 127.696C217.12 127.392 217.279 127.058 217.583 126.952C217.887 126.841 218.22 127 218.327 127.305C220.359 132.95 221.069 146.757 221.103 147.342V171.005C221.103 171.328 220.842 171.584 220.523 171.584L220.514 171.58Z" fill="#5AAC93"/>
<path d="M177.693 167.815C177.403 167.815 177.152 167.598 177.118 167.298C176.978 166.085 173.681 137.449 175.564 127.387C175.622 127.073 175.926 126.865 176.244 126.923C176.558 126.981 176.766 127.286 176.708 127.605C174.854 137.493 178.243 166.873 178.277 167.167C178.316 167.486 178.084 167.776 177.765 167.815C177.741 167.815 177.717 167.815 177.698 167.815H177.693Z" fill="#5AAC93"/>
<path d="M190.999 108.369C188.083 111.684 186.224 121.829 191.545 122.099C204.054 122.742 208.414 105.735 205.063 104.652C197.406 102.173 190.999 108.369 190.999 108.369Z" fill="#F1F2F2"/>
<path d="M190.46 99.8872C190.46 101.182 189.702 109.447 191.826 110.626C198.044 114.077 205.064 106.856 205.064 104.657V97.5625L190.464 99.892L190.46 99.8872Z" fill="#FBAE96"/>
<path d="M180.483 67.4236C179.875 61.102 176.181 55.8244 172.99 58.4729C169.799 61.1214 166.149 63.91 166.926 67.4236C167.361 69.3906 177.591 72.6045 177.591 72.6045L180.483 67.4236Z" fill="#574D4A"/>
<path d="M174.184 73.5907C174.015 73.5907 173.846 73.5182 173.73 73.3732C173.527 73.1219 173.571 72.7546 173.817 72.5565C175.849 70.9181 176.839 69.1685 176.839 67.2112C176.839 66.8874 177.1 66.6312 177.419 66.6312C177.737 66.6312 177.998 66.8922 177.998 67.2112C177.998 69.5117 176.834 71.614 174.541 73.4651C174.435 73.5521 174.305 73.5956 174.179 73.5956L174.184 73.5907Z" fill="#DE501D"/>
<path d="M176.008 82.4447C173.985 82.899 172.489 83.421 171.658 82.5946C170.828 81.7633 171.658 79.6223 171.658 79.6223L174.328 79.1921L176.008 82.4447Z" fill="#82512B"/>
<path d="M213.382 84.5952C211.461 97.8617 202.949 108.369 191.005 108.369C182.179 108.369 176.352 103.946 175.396 94.9039C175.174 92.8016 175.599 89.8825 175.44 88.6501C175.174 86.5767 173.648 84.2762 173.648 82.1013C173.648 68.8348 185.042 62.4697 196.987 62.4697C208.931 62.4697 215.285 71.4688 213.382 84.5952Z" fill="#FBAE96"/>
<path d="M187.736 85.7892C187.688 85.3591 188.706 84.494 190.102 84.8226C191.492 85.1512 192.525 86.1372 192.072 86.4078C191.618 86.6785 190.599 85.8375 189.711 85.939C188.822 86.0357 187.775 86.0937 187.741 85.7892H187.736Z" fill="#37231B"/>
<path d="M180.827 86.0408C180.875 85.6107 179.856 84.7455 178.461 85.0742C177.07 85.4028 176.037 86.3888 176.491 86.6594C176.945 86.9301 177.964 86.0891 178.852 86.1906C179.74 86.2921 180.788 86.3453 180.822 86.0408H180.827Z" fill="#37231B"/>
<path d="M185.95 77.6459C196.117 76.6503 196.692 80.7535 199.598 84.5957C202.51 88.4379 209.636 87.6985 212.909 87.1814C214.024 87.0074 215.709 79.7482 215.246 75.413C214.903 72.1991 215.091 66.2932 208.477 62.8521C201.863 59.411 199.564 58.6377 193.138 59.8315C186.717 61.0252 179.741 78.2548 185.945 77.6459H185.95Z" fill="#574D4A"/>
<path d="M203.242 67.8247C203.851 61.5032 210.035 56.1241 213.231 58.7725C216.427 61.421 219.416 68.946 217.76 70.0962C216.104 71.2465 206.134 73.0057 206.134 73.0057L203.242 67.8247Z" fill="#574D4A"/>
<path d="M207.135 73.1748C204.32 73.1748 203.162 71.4494 202.775 70.6375C202.099 69.2214 202.172 67.4912 202.94 66.7808C203.176 66.5633 203.543 66.5778 203.76 66.8146C203.978 67.0514 203.963 67.4187 203.726 67.6362C203.456 67.8875 203.287 69.0233 203.818 70.1349C204.224 70.9855 205.32 72.3484 208.105 71.9376C208.419 71.8892 208.719 72.1116 208.767 72.4305C208.815 72.7495 208.593 73.0443 208.274 73.0927C207.864 73.1506 207.483 73.1796 207.13 73.1796L207.135 73.1748Z" fill="#503E38"/>
<path d="M170.895 81.9473C174.289 86.3598 175.617 74.3546 185.05 76.6503C188.734 77.5444 185.842 71.2228 189.352 68.7725C192.857 66.3222 198.448 60.8416 192.365 60.049C186.282 59.2564 178.045 62.7748 175.757 66.5348C174.738 68.2071 172.633 70.4399 172.329 73.4557C171.923 77.5251 169.92 80.6762 170.9 81.9473H170.895Z" fill="#574D4A"/>
<path d="M182.25 100.182C182.25 100.182 183.307 102.618 186.127 102.768C188.946 102.917 189.453 100.206 189.453 100.206C186.972 101.052 184.823 101.226 182.25 100.182Z" fill="#F1F2F2"/>
<path d="M189.798 89.1626C189.306 89.3462 188.809 90.1389 189.045 91.3084C189.282 92.4732 190.156 92.9855 190.701 92.6327C191.247 92.2799 191.638 90.6463 191.295 89.9649C190.952 89.2834 190.112 89.0466 189.793 89.1674L189.798 89.1626Z" fill="#372313"/>
<path d="M178.761 89.1816C178.278 89.3846 177.81 90.1965 178.094 91.3564C178.379 92.5115 179.268 92.9851 179.804 92.613C180.339 92.236 180.658 90.5928 180.291 89.9259C179.924 89.2589 179.07 89.0559 178.761 89.1864V89.1816Z" fill="#372313"/>
<path d="M196.901 72.9187C195.699 71.5268 193.449 71.1546 191.778 71.8022C191.373 71.9617 191.542 72.6142 191.962 72.4644C193.492 71.9182 195.24 72.2807 196.399 73.4213C196.727 73.7451 197.2 73.2618 196.901 72.9187Z" fill="#52413C"/>
<path d="M199.201 66.496C197.149 66.003 195.257 66.2447 193.374 67.1774C192.968 67.3804 193.326 67.9845 193.731 67.7864C195.469 66.9406 197.135 66.8101 199.018 67.1726C199.457 67.2596 199.65 66.6023 199.206 66.496H199.201Z" fill="#52413C"/>
<path d="M207.417 79.6899C206.21 80.0862 204.704 78.8102 204.752 77.573C204.771 77.1284 204.095 77.1332 204.067 77.573C203.96 79.2162 205.988 81.0044 207.605 80.3713C208.016 80.207 207.856 79.5449 207.417 79.6899Z" fill="#52413C"/>
<path d="M179.207 70.1153C178.033 70.0042 176.855 70.3957 176.17 71.4009C175.914 71.7731 175.788 72.1984 175.653 72.6237C175.455 73.2471 175.243 73.5323 174.557 73.5951C174.113 73.6386 174.099 74.291 174.557 74.3007C175.571 74.3152 176.068 73.7207 176.358 72.817C176.527 72.2853 176.686 71.8069 177.116 71.4154C177.686 70.8934 178.463 70.7533 179.211 70.7968C179.656 70.821 179.641 70.154 179.211 70.1153H179.207Z" fill="#52413C"/>
<path d="M184.848 64.0404C184.07 63.8423 183.549 63.272 182.689 63.3783C181.888 63.4798 181.251 64.0404 180.758 64.6446C180.478 64.9877 180.942 65.4855 181.256 65.1424C181.729 64.6349 182.313 64.026 183.076 64.0984C183.641 64.1516 184.104 64.6011 184.664 64.7122C185.099 64.7992 185.287 64.1516 184.848 64.0404Z" fill="#52413C"/>
<path d="M191.003 108.755C190.791 108.755 190.617 108.581 190.617 108.369C190.617 108.156 190.791 107.982 191.003 107.982C194.383 107.982 197.198 107.33 199.361 106.044C199.544 105.933 199.781 105.996 199.892 106.179C200.003 106.363 199.94 106.6 199.756 106.711C197.473 108.069 194.528 108.755 191.003 108.755Z" fill="#C48976"/>
<path d="M193.195 171.744C193.195 165.534 201.861 153.451 217.77 153.451C233.678 153.451 241.827 154.563 241.827 154.563V171.512L193.195 171.744Z" fill="#7FCBB4"/>
<path d="M192.932 157.83C192.7 157.83 192.478 157.69 192.391 157.458C192.275 157.158 192.425 156.82 192.724 156.704C197.673 154.809 216.323 152.828 220.523 152.881C220.847 152.881 221.103 153.147 221.098 153.47C221.098 153.789 220.832 154.046 220.518 154.046C220.518 154.046 220.514 154.046 220.509 154.046C216.487 153.988 197.87 155.979 193.144 157.791C193.076 157.815 193.004 157.83 192.936 157.83H192.932Z" fill="#5AAC93"/>
<path d="M127.941 163.187H187.655C191.167 163.187 194.019 166.042 194.019 169.558V170.546H127.938V163.183L127.941 163.187Z" fill="#566FA6"/>
<path d="M179.574 170.55H113.821L109.499 121.632C109.25 120.22 109.867 118.919 111.281 118.919H172.875C173.973 118.919 174.917 119.718 175.111 120.817L179.574 170.55Z" fill="#6683C2"/>
<path d="M146.867 137.319C147.04 140.031 145.144 142.36 142.632 142.523C140.12 142.685 137.939 140.621 137.762 137.908C137.584 135.195 139.484 132.866 141.996 132.704C144.508 132.542 146.689 134.606 146.867 137.319Z" fill="#DBDBDB"/>
<path d="M374.847 169.166H74C71.2386 169.166 69 171.404 69 174.166V176.81C69 179.572 71.2386 181.81 74 181.81H374.847C377.608 181.81 379.847 179.572 379.847 176.81V174.166C379.847 171.404 377.608 169.166 374.847 169.166Z" fill="#DCBFA3"/>
<path d="M234.798 120.283C234.013 126.336 228.189 130.423 222.17 129.469C216.15 128.516 212.041 122.854 212.998 116.828C213.95 110.802 219.607 106.688 225.626 107.646C231.645 108.605 235.383 115.77 234.802 120.288L234.798 120.283Z" fill="#FCDCB5"/>
<path d="M251.544 143.655C252.995 157.241 253.313 170.559 235.137 170.559C221.279 170.559 217.582 160.329 218.344 144.681C219.093 129.32 223.579 113.377 231.952 117.378C241.233 121.809 250.074 129.946 251.544 143.655Z" fill="#FCDCB5"/>
<path d="M220.692 129.061C220.605 129.061 220.515 129.039 220.433 128.993C220.183 128.848 220.097 128.53 220.242 128.28C223.522 122.577 226.965 120.856 230.498 119.462C234.15 118.023 235.338 118.785 235.542 118.953L234.876 119.757C234.876 119.757 234.885 119.766 234.903 119.775C234.894 119.771 233.959 119.217 230.884 120.429C227.532 121.751 224.261 123.385 221.15 128.798C221.054 128.966 220.877 129.061 220.696 129.061H220.692Z" fill="#5AAC93"/>
<path d="M214.875 116.61L211.224 111.901C210.834 111.397 211.237 110.67 211.868 110.734L217.715 111.324L214.875 116.61Z" fill="#FCDCB5"/>
<path d="M228.471 109.15L226.38 104.727C226.244 104.345 225.704 104.35 225.573 104.727L223.727 108.7L228.471 109.145V109.15Z" fill="#FCDCB5"/>
<path d="M223.288 144.727C221.487 144.495 220.126 142.92 220.203 141.072C220.312 138.456 219.028 137.076 217.931 136.376C216.547 135.496 215.227 135.523 214.882 135.682C213.34 136.849 211.14 136.563 209.952 135.028C208.754 133.484 209.04 131.264 210.582 130.069C213.118 128.108 217.209 128.021 220.766 129.86C225.048 132.072 227.479 136.376 227.27 141.371C227.189 143.324 225.542 144.836 223.592 144.754C223.487 144.754 223.387 144.741 223.288 144.727Z" fill="#FCDCB5"/>
<path d="M228.83 165.21C228.086 165.21 215.975 164.488 215.938 167.79C215.897 171.091 217.49 170.5 221.926 170.5C226.362 170.5 233.343 170.541 233.343 170.541L228.83 165.21Z" fill="#FCDCB5"/>
<path d="M113.053 171.512L92.9264 171.572L92.901 162.996L113.028 162.936C113.801 162.934 114.43 163.56 114.432 164.334L114.449 170.103C114.451 170.876 113.826 171.506 113.053 171.508L113.053 171.512Z" fill="#7096C4"/>
<path d="M99.1508 169.165L99.1396 165.32C99.1396 164.89 98.8372 164.539 98.4639 164.539L75.4962 164.61C75.4738 164.61 75.4515 164.595 75.4403 164.573C75.235 164.124 75.2424 163.627 75.4403 163.093C75.4515 163.067 75.4701 163.052 75.4962 163.052L99.7331 162.977C100.103 162.977 100.405 163.325 100.409 163.758L100.431 170.772C100.431 171.201 100.132 171.553 99.7592 171.556L75.653 171.631C75.541 171.631 75.4403 171.553 75.4029 171.429C75.276 171.041 75.2872 170.641 75.4067 170.226C75.444 170.103 75.5448 170.021 75.6568 170.021L98.4789 169.953C98.8484 169.953 99.1508 169.602 99.1508 169.169V169.165Z" fill="#79ADDD"/>
<path d="M79.8822 165.843L76.224 165.854C76.2912 165.664 76.3808 165.664 76.4853 164.33L98.9902 164.262C99.0723 164.262 99.0984 164.614 99.1022 164.707L99.1171 169.98C99.1171 170.073 76.3696 170.062 76.3696 170.062C76.1905 168.791 76.1457 168.732 76.0859 168.182L78.2771 168.126L76.1382 168.134C76.0785 168.134 76.1046 166.747 76.1942 166.056L79.8822 165.839V165.843Z" fill="#E6E6E6"/>
<path d="M98.6119 166.165L98.6193 168.672L98.6231 169.232L97.6376 168.956L96.6559 169.24V168.679L96.6484 166.172L98.6119 166.165Z" fill="#F6A447"/>
</g>
<defs>
<clipPath id="clip0_729_1299">
<rect width="235" height="172" fill="white"/>
</clipPath>
</defs>
</svg>
