<svg width="173" height="90" viewBox="0 0 173 90" fill="none" xmlns="http://www.w3.org/2000/svg">
<g clip-path="url(#clip0_2006_7693)">
<path d="M113.009 84.988C113.009 84.988 121.774 57.2992 103.402 43.7306C99.5348 40.8756 96.1704 39.5304 88.0397 39.5594C79.3805 39.5917 71.5882 47.7115 68.5267 53.2119C62.8548 63.4028 58.1562 84.988 58.1562 84.988H113.009Z" fill="#7FCBB4"/>
<path d="M102.652 84.9654C102.437 84.9654 102.266 84.7912 102.266 84.5783V68.8031C102.263 68.7289 101.776 59.3316 100.461 55.6733C100.387 55.47 100.493 55.2474 100.696 55.1765C100.899 55.1023 101.122 55.2087 101.193 55.412C102.549 59.1799 103.023 68.3966 103.046 68.787V84.5815C103.046 84.7977 102.872 84.9686 102.659 84.9686L102.652 84.9654Z" fill="#5AAC93"/>
<path d="M74.0735 82.4525C73.8801 82.4525 73.7126 82.3073 73.69 82.1073C73.5965 81.2976 71.3955 62.1835 72.6523 55.4669C72.691 55.2572 72.894 55.1185 73.1067 55.1572C73.3162 55.1959 73.4547 55.3992 73.4161 55.6121C72.1786 62.2125 74.4409 81.8234 74.4634 82.0202C74.4892 82.2331 74.3345 82.4267 74.1218 82.4525C74.1057 82.4525 74.0896 82.4525 74.0767 82.4525H74.0735Z" fill="#5AAC93"/>
<path d="M82.955 42.7725C81.0085 44.9856 79.7678 51.757 83.3191 51.9376C91.6689 52.3667 94.579 41.0144 92.3425 40.2917C87.2314 38.6368 82.955 42.7725 82.955 42.7725Z" fill="#F1F2F2"/>
<path d="M82.5956 37.111C82.5956 37.9756 82.0896 43.4921 83.5076 44.2792C87.6583 46.5826 92.344 41.7629 92.344 40.2951V35.5593L82.5988 37.1143L82.5956 37.111Z" fill="#FBAE96"/>
<path d="M75.9324 15.4419C75.5263 11.2223 73.061 7.69948 70.9308 9.46733C68.8007 11.2352 66.3644 13.0966 66.8832 15.4419C67.1732 16.7549 74.002 18.9002 74.002 18.9002L75.9324 15.4419Z" fill="#574D4A"/>
<path d="M71.7246 19.5583C71.6118 19.5583 71.499 19.5099 71.4217 19.4131C71.2863 19.2454 71.3153 19.0002 71.4797 18.8679C72.8364 17.7743 73.4971 16.6065 73.4971 15.3C73.4971 15.0838 73.6711 14.9128 73.8838 14.9128C74.0965 14.9128 74.2705 15.087 74.2705 15.3C74.2705 16.8355 73.4938 18.2389 71.9631 19.4744C71.8922 19.5325 71.8052 19.5615 71.7214 19.5615L71.7246 19.5583Z" fill="#DE501D"/>
<path d="M72.9468 25.4682C71.5965 25.7715 70.5975 26.1199 70.0432 25.5682C69.4889 25.0134 70.0432 23.5842 70.0432 23.5842L71.8253 23.2971L72.9468 25.4682Z" fill="#82512B"/>
<path d="M97.8973 26.9038C96.6147 35.7592 90.9332 42.7725 82.9604 42.7725C77.0694 42.7725 73.1797 39.8207 72.5416 33.7849C72.3933 32.3816 72.677 30.433 72.5706 29.6104C72.3934 28.2265 71.375 26.6909 71.375 25.2392C71.375 16.3838 78.9804 12.1351 86.9532 12.1351C94.926 12.1351 99.167 18.142 97.8973 26.9038Z" fill="#FBAE96"/>
<path d="M80.7823 27.7008C80.7501 27.4137 81.4301 26.8362 82.3614 27.0556C83.2896 27.275 83.9792 27.9331 83.6763 28.1137C83.3733 28.2944 82.6934 27.733 82.1004 27.8008C81.5074 27.8653 80.8081 27.904 80.7856 27.7008H80.7823Z" fill="#37231B"/>
<path d="M76.1693 27.8685C76.2016 27.5814 75.5216 27.0039 74.5902 27.2233C73.6621 27.4427 72.9725 28.1008 73.2754 28.2814C73.5783 28.4621 74.2583 27.9008 74.8513 27.9685C75.4442 28.0363 76.1436 28.0717 76.1661 27.8685H76.1693Z" fill="#37231B"/>
<path d="M79.583 22.2649C86.3699 21.6004 86.7534 24.3393 88.6934 26.9039C90.6367 29.4686 95.3933 28.975 97.5782 28.6298C98.3226 28.5137 99.4473 23.6682 99.138 20.7745C98.9092 18.6292 99.0349 14.6871 94.6198 12.3901C90.2048 10.0932 88.6709 9.57706 84.3815 10.3739C80.0954 11.1707 75.4387 22.6714 79.5798 22.2649H79.583Z" fill="#574D4A"/>
<path d="M91.125 15.7096C91.5311 11.49 95.6592 7.89948 97.7926 9.66733C99.926 11.4352 101.921 16.4581 100.815 17.2259C99.7101 17.9936 93.0554 19.1679 93.0554 19.1679L91.125 15.7096Z" fill="#574D4A"/>
<path d="M93.719 19.2807C91.8402 19.2807 91.0668 18.129 90.809 17.587C90.3578 16.6418 90.4061 15.4869 90.9185 15.0127C91.0765 14.8675 91.3214 14.8772 91.4664 15.0352C91.6114 15.1933 91.6017 15.4385 91.4438 15.5837C91.2634 15.7514 91.1506 16.5095 91.5051 17.2515C91.7758 17.8193 92.5073 18.729 94.3668 18.4548C94.5762 18.4225 94.776 18.5709 94.8083 18.7839C94.8405 18.9968 94.6922 19.1936 94.4795 19.2258C94.2056 19.2645 93.951 19.2839 93.7158 19.2839L93.719 19.2807Z" fill="#503E38"/>
<path d="M69.5344 25.1362C71.7999 28.0816 72.6861 20.0682 78.9831 21.6005C81.442 22.1973 79.5116 17.9777 81.8545 16.3421C84.1941 14.7065 87.9259 11.0482 83.8654 10.5192C79.8049 9.99012 74.3071 12.3387 72.7796 14.8485C72.0996 15.9647 70.6945 17.4551 70.4915 19.4681C70.2208 22.1844 68.8834 24.2878 69.5376 25.1362H69.5344Z" fill="#574D4A"/>
<path d="M77.1016 37.3079C77.1016 37.3079 77.8073 38.9338 79.6893 39.0338C81.5714 39.1338 81.9097 37.324 81.9097 37.324C80.2533 37.8885 78.8192 38.0047 77.1016 37.3079Z" fill="#F1F2F2"/>
<path d="M82.1526 29.9525C81.8239 30.0751 81.492 30.6041 81.6499 31.3848C81.8078 32.1623 82.3911 32.5043 82.7553 32.2688C83.1194 32.0333 83.3805 30.9429 83.1517 30.488C82.9229 30.0331 82.3621 29.8751 82.1494 29.9557L82.1526 29.9525Z" fill="#372313"/>
<path d="M74.7838 29.9653C74.4615 30.1008 74.149 30.6428 74.3391 31.417C74.5292 32.188 75.1222 32.5042 75.4799 32.2558C75.8376 32.0042 76.0503 30.9073 75.8054 30.4621C75.5605 30.0169 74.9901 29.8814 74.7838 29.9685V29.9653Z" fill="#372313"/>
<path d="M86.8785 19.1099C86.0761 18.1808 84.5743 17.9324 83.4593 18.3647C83.1886 18.4712 83.3014 18.9067 83.5817 18.8067C84.6033 18.4421 85.7699 18.6841 86.5433 19.4454C86.7625 19.6616 87.0783 19.339 86.8785 19.1099Z" fill="#52413C"/>
<path d="M88.4151 14.8228C87.0455 14.4938 85.7822 14.6551 84.5254 15.2777C84.2547 15.4132 84.4932 15.8165 84.7639 15.6842C85.924 15.1196 87.0358 15.0325 88.2927 15.2745C88.5859 15.3326 88.7148 14.8938 88.4184 14.8228H88.4151Z" fill="#52413C"/>
<path d="M93.9032 23.6297C93.0976 23.8943 92.0921 23.0426 92.1243 22.2167C92.1372 21.92 91.6861 21.9232 91.6667 22.2167C91.5958 23.3136 92.9493 24.5072 94.0289 24.0846C94.3028 23.9749 94.1965 23.533 93.9032 23.6297Z" fill="#52413C"/>
<path d="M75.0716 17.2389C74.2885 17.1647 73.5022 17.426 73.0445 18.097C72.8737 18.3454 72.79 18.6293 72.6997 18.9132C72.5676 19.3293 72.4258 19.5197 71.9682 19.5616C71.6717 19.5906 71.662 20.0262 71.9682 20.0326C72.6449 20.0423 72.9769 19.6455 73.1702 19.0422C73.283 18.6874 73.3894 18.368 73.6762 18.1067C74.0564 17.7583 74.5753 17.6647 75.0748 17.6938C75.3713 17.7099 75.3616 17.2647 75.0748 17.2389H75.0716Z" fill="#52413C"/>
<path d="M78.8419 13.184C78.3231 13.0517 77.975 12.671 77.4014 12.742C76.8664 12.8098 76.4411 13.184 76.1124 13.5872C75.9254 13.8163 76.2348 14.1486 76.4443 13.9195C76.7601 13.5808 77.15 13.1743 77.6592 13.2227C78.0363 13.2582 78.3456 13.5582 78.7195 13.6324C79.0095 13.6905 79.1352 13.2582 78.8419 13.184Z" fill="#52413C"/>
<path d="M82.9531 43.0307C82.8113 43.0307 82.6953 42.9145 82.6953 42.7726C82.6953 42.6306 82.8113 42.5145 82.9531 42.5145C85.209 42.5145 87.0878 42.079 88.5315 41.2209C88.654 41.1467 88.8119 41.1886 88.886 41.3112C88.9601 41.4338 88.9182 41.5919 88.7958 41.6661C87.2714 42.5726 85.3056 43.0307 82.9531 43.0307Z" fill="#C48976"/>
<path d="M84.4219 85.0752C84.4219 80.9298 90.2065 72.8647 100.825 72.8647C111.444 72.8647 116.883 73.6067 116.883 73.6067V84.9203L84.4219 85.0752Z" fill="#7FCBB4"/>
<path d="M84.2387 75.7874C84.084 75.7874 83.9357 75.6939 83.8777 75.539C83.8004 75.339 83.9003 75.1132 84.1001 75.0357C87.4033 73.7712 99.8523 72.4485 102.656 72.484C102.872 72.484 103.043 72.6614 103.04 72.8775C103.04 73.0905 102.862 73.2614 102.653 73.2614C102.653 73.2614 102.65 73.2614 102.646 73.2614C99.9619 73.2227 87.5354 74.5518 84.3805 75.7616C84.3354 75.7777 84.287 75.7874 84.2419 75.7874H84.2387Z" fill="#5AAC93"/>
<path d="M38.7448 79.3634H78.6036C80.9477 79.3634 82.8513 81.269 82.8513 83.6155V84.2754H38.7422V79.3607L38.7448 79.3634Z" fill="#566FA6"/>
<path d="M73.2093 84.278H29.3189L26.4344 51.6254C26.2683 50.6831 26.6796 49.8147 27.6236 49.8147H68.7374C69.4704 49.8147 70.1006 50.3479 70.2298 51.0816L73.2093 84.278Z" fill="#6683C2"/>
<path d="M51.3743 62.0962C51.4903 63.9069 50.2247 65.4615 48.5478 65.5697C46.8709 65.6779 45.4154 64.3002 45.2968 62.4895C45.1781 60.6788 46.4464 59.1242 48.1233 59.016C49.8002 58.9078 51.2557 60.2855 51.3743 62.0962Z" fill="#DBDBDB"/>
<path d="M204.891 83.5647H24.1087C21.8395 83.5647 20 85.4042 20 87.6734C20 89.9426 21.8395 91.7821 24.1087 91.7821H204.891C207.16 91.7821 209 89.9426 209 87.6734C209 85.4042 207.16 83.5647 204.891 83.5647Z" fill="#DCBFA3"/>
<path d="M119.441 50.7254C118.917 54.7656 115.029 57.4935 111.011 56.857C106.994 56.2205 104.25 52.4409 104.889 48.4188C105.525 44.3967 109.301 41.6507 113.319 42.2902C117.336 42.9298 119.831 47.7126 119.444 50.7284L119.441 50.7254Z" fill="#FCDCB5"/>
<path d="M130.614 66.3256C131.583 75.3943 131.795 84.284 119.662 84.284C110.413 84.284 107.945 77.4553 108.454 67.0106C108.953 56.7569 111.948 46.1152 117.537 48.7855C123.732 51.7437 129.633 57.1752 130.614 66.3256Z" fill="#FCDCB5"/>
<path d="M110.027 56.5844C109.969 56.5844 109.908 56.5692 109.854 56.5389C109.687 56.4419 109.63 56.2297 109.727 56.063C111.916 52.2562 114.214 51.1074 116.573 50.1769C119.01 49.2161 119.803 49.7253 119.94 49.8375L119.494 50.3739C119.494 50.3739 119.5 50.38 119.513 50.3861C119.507 50.383 118.883 50.0133 116.83 50.8225C114.592 51.7045 112.409 52.7957 110.332 56.4086C110.269 56.5207 110.151 56.5844 110.03 56.5844H110.027Z" fill="#5AAC93"/>
<path d="M137.766 102.503C137.739 102.503 137.711 102.503 137.681 102.503C136.636 102.458 135.828 101.573 135.873 100.53C135.873 100.497 136.022 97.0051 135.846 93.274C135.543 86.8635 134.429 85.7421 133.572 85.2935C132.301 84.6813 127.105 83.869 122.133 83.4386C121.092 83.3476 120.323 82.4293 120.414 81.3896C120.504 80.347 121.422 79.5771 122.46 79.6681C125.104 79.8984 133.905 80.744 136.264 82.008C137.505 82.6717 138.338 84.1326 138.883 86.6059C139.231 88.179 139.473 90.2158 139.604 92.6587C139.822 96.7323 139.658 100.536 139.652 100.697C139.607 101.712 138.771 102.506 137.763 102.506L137.766 102.503Z" fill="#FCDCB5"/>
<path d="M106.141 48.2733L103.704 45.1302C103.444 44.7938 103.713 44.3088 104.134 44.3512L108.037 44.7453L106.141 48.2733Z" fill="#FCDCB5"/>
<path d="M115.222 43.2936L113.826 40.3414C113.735 40.0868 113.375 40.0899 113.287 40.3414L112.055 42.9935L115.222 43.2905V43.2936Z" fill="#FCDCB5"/>
<path d="M111.756 67.0411C110.553 66.8866 109.645 65.8348 109.697 64.6012C109.769 62.8554 108.912 61.934 108.18 61.4672C107.256 60.8792 106.375 60.8974 106.145 61.0035C105.116 61.7824 103.647 61.5915 102.854 60.567C102.054 59.5365 102.245 58.0544 103.275 57.2572C104.967 55.9479 107.698 55.8903 110.072 57.1178C112.93 58.5939 114.553 61.4672 114.414 64.8013C114.359 66.1046 113.26 67.1139 111.958 67.0593C111.889 67.0593 111.822 67.0502 111.756 67.0411Z" fill="#FCDCB5"/>
<path d="M115.449 80.7137C114.953 80.7137 106.868 80.2318 106.844 82.4353C106.817 84.6388 107.88 84.2448 110.841 84.2448C113.802 84.2448 118.462 84.272 118.462 84.272L115.449 80.7137Z" fill="#FCDCB5"/>
</g>
<defs>
<clipPath id="clip0_2006_7693">
<path d="M0 0H163C168.523 0 173 4.47715 173 10V80C173 85.5228 168.523 90 163 90H0V0Z" fill="white"/>
</clipPath>
</defs>
</svg>
