<svg width="138" height="94" viewBox="0 0 138 94" fill="none" xmlns="http://www.w3.org/2000/svg">
<g clip-path="url(#clip0_2006_7590)">
<path d="M110.31 61.5503C110.31 79.6923 95.5944 94.3067 77.5532 94.3067C59.4112 94.3067 44.7969 79.5915 44.7969 61.5503C44.7969 43.4083 59.512 28.794 77.5532 28.794C95.5944 28.6932 110.31 43.4083 110.31 61.5503Z" fill="#F2C45B"/>
<path d="M82.3867 8.83786C82.3867 11.5592 80.1693 21.638 77.5488 21.638C74.8275 21.638 72.7109 11.4584 72.7109 8.83786C72.7109 6.11656 74.9283 4 77.5488 4C80.1693 4 82.3867 6.21735 82.3867 8.83786Z" fill="#F2C45B"/>
<path d="M55.3759 13.4742C56.6861 15.7924 59.9113 25.6697 57.5932 26.9799C55.2751 28.2902 48.3206 20.6302 47.0104 18.3121C45.7001 15.994 46.5064 13.0711 48.8246 11.66C51.0419 10.3498 54.0656 11.1561 55.3759 13.4742Z" fill="#F2C45B"/>
<path d="M34.3109 31.0115C36.629 32.3217 44.289 39.2761 42.9787 41.5943C41.6685 43.9124 31.7912 40.6872 29.473 39.3769C27.1549 38.0667 26.3486 35.043 27.6588 32.7249C29.0699 30.4067 31.9927 29.6004 34.3109 31.0115Z" fill="#F2C45B"/>
<path d="M24.8379 56.7125C27.5592 56.7125 37.638 58.9299 37.638 61.5504C37.638 64.2717 27.4584 66.3882 24.8379 66.3882C22.1166 66.3882 20 64.1709 20 61.5504C20 58.8291 22.2174 56.7125 24.8379 56.7125Z" fill="#F2C45B"/>
<path d="M29.473 83.6231C31.7912 82.3129 41.6685 79.0876 42.9787 81.4058C44.289 83.7239 36.629 90.6783 34.3109 91.9886C31.9927 93.2988 29.0699 92.4925 27.6588 90.1744C26.3486 87.957 27.1549 85.0342 29.473 83.6231Z" fill="#F2C45B"/>
<path d="M120.685 92.0893C118.367 90.779 110.707 83.8246 112.017 81.5065C113.327 79.1883 123.204 82.4136 125.523 83.7238C127.841 85.0341 128.647 88.0577 127.337 90.3759C125.926 92.5932 123.003 93.3995 120.685 92.0893Z" fill="#F2C45B"/>
<path d="M130.16 66.3882C127.438 66.3882 117.359 64.1709 117.359 61.5504C117.359 58.8291 127.539 56.7125 130.16 56.7125C132.881 56.7125 134.997 58.9299 134.997 61.5504C134.997 64.1709 132.881 66.3882 130.16 66.3882Z" fill="#F2C45B"/>
<path d="M125.523 39.3768C123.204 40.6871 113.327 43.9123 112.017 41.5942C110.707 39.276 118.367 32.3216 120.685 31.0114C123.003 29.7011 125.926 30.5074 127.337 32.8256C128.647 35.0429 127.841 38.0666 125.523 39.3768Z" fill="#F2C45B"/>
<path d="M108.086 18.3121C106.776 20.6302 99.8214 28.2902 97.5033 26.9799C95.1852 25.6697 98.4104 15.7924 99.7206 13.4742C101.031 11.1561 104.055 10.3498 106.373 11.66C108.59 13.0711 109.396 15.994 108.086 18.3121Z" fill="#F2C45B"/>
</g>
<defs>
<clipPath id="clip0_2006_7590">
<path d="M0 0H138V84C138 89.5228 133.523 94 128 94H0V0Z" fill="white"/>
</clipPath>
</defs>
</svg>
