<svg width="126" height="139" viewBox="0 0 126 139" fill="none" xmlns="http://www.w3.org/2000/svg">
<g clip-path="url(#clip0_2011_728)">
<path d="M276.119 44H0V45.4277H276.119V44Z" fill="#90C5F1"/>
<path d="M276.119 82.9292H0V84.3569H276.119V82.9292Z" fill="#90C5F1"/>
<path d="M276.119 121.572H0V123H276.119V121.572Z" fill="#90C5F1"/>
<path d="M70.1516 110.817C68.7239 114.053 65.9637 117.289 61.395 116.433C56.5408 115.576 55.4938 109.675 55.0179 103.012C53.8757 88.8302 53.3047 68.9375 52.0673 47.4266C51.8769 44.1905 45.4047 44.2856 44.8336 47.0459C41.883 61.7037 31.7938 100.252 30.0806 105.487C28.6529 109.865 26.083 113.577 23.7035 115.576C20.3721 118.336 16.5649 116.337 15.4227 111.103C14.8516 108.437 9.23599 109.58 10.0926 112.911C11.33 117.575 13.5191 121.763 19.7059 122.048C28.1769 122.429 34.1733 113.863 37.3143 100.252C40.4553 100.252 45.7854 100.347 48.9263 100.252C49.3071 104.63 49.8782 110.246 51.1155 113.672C53.3998 120.24 57.3974 122.048 62.2516 121.953C69.1047 121.858 73.3878 116.813 75.0059 112.625C75.9577 109.77 71.0083 108.723 70.1516 110.817ZM38.4565 94.5411C41.5974 82.7387 45.1191 65.9868 47.4035 56.564C47.5938 63.417 48.5456 89.1158 48.5456 94.7314C45.6902 95.017 40.7408 94.7314 38.4565 94.5411Z" fill="#6683C2"/>
<path d="M110.128 88.0685C105.178 82.3577 96.7073 82.6432 91.3772 88.5444C83.8579 96.9203 84.0483 111.293 91.5676 118.622C97.1832 124.142 109.366 123 113.459 111.864C116.886 102.822 114.792 93.4938 110.128 88.0685ZM109.462 108.152C107.939 114.529 100.515 119.383 94.5182 114.053C90.9965 110.912 89.8543 101.965 92.9001 95.3974C95.9459 88.6396 102.228 87.5926 106.321 91.6854C110.413 95.7781 110.794 102.631 109.462 108.152Z" fill="#6683C2"/>
<path d="M130.205 109.104C128.206 112.72 126.017 115.29 122.59 116.718C117.831 118.717 115.737 115.29 115.547 111.293C115.071 102.917 115.547 93.7795 115.547 85.5939C115.547 83.3096 110.502 83.1192 110.502 85.5939C110.407 90.5433 110.407 97.6819 110.312 106.914C110.217 111.198 110.122 115.576 112.882 119.193C118.783 126.902 132.584 119.288 134.488 110.912C134.869 108.818 131.347 107.105 130.205 109.104Z" fill="#6683C2"/>
<path d="M15.8975 109.77C15.8975 111.959 14.0891 113.768 11.8999 113.768C9.71078 113.768 7.90234 111.959 7.90234 109.77C7.90234 107.581 9.71078 105.772 11.8999 105.772C14.0891 105.772 15.8975 107.581 15.8975 109.77Z" fill="#F37E60"/>
<path d="M11.9018 111.293C12.7429 111.293 13.4247 110.611 13.4247 109.77C13.4247 108.929 12.7429 108.247 11.9018 108.247C11.0607 108.247 10.3789 108.929 10.3789 109.77C10.3789 110.611 11.0607 111.293 11.9018 111.293Z" fill="white"/>
<path d="M115.925 93.7793C115.925 95.9685 114.116 97.7769 111.927 97.7769C109.738 97.7769 107.93 95.9685 107.93 93.7793C107.93 91.5902 109.738 89.7817 111.927 89.7817C114.116 89.7817 115.925 91.5902 115.925 93.7793Z" fill="#F37E60"/>
<path d="M111.929 95.3026C112.77 95.3026 113.452 94.6208 113.452 93.7797C113.452 92.9387 112.77 92.2568 111.929 92.2568C111.088 92.2568 110.406 92.9387 110.406 93.7797C110.406 94.6208 111.088 95.3026 111.929 95.3026Z" fill="white"/>
<path d="M21.3197 111.007C20.8438 111.007 20.4631 110.912 19.9872 110.627C17.6077 109.199 17.0366 104.25 16.9414 103.679L18.0836 103.583C18.1788 105.011 18.9402 108.723 20.5583 109.675C21.0342 109.96 21.5101 109.96 22.1763 109.675C25.1269 108.342 28.1727 98.5387 29.1245 94.9219L30.2667 95.2074C29.886 96.6351 26.6498 109.009 22.6522 110.722C22.1763 110.912 21.7004 111.007 21.3197 111.007Z" fill="#6683C2"/>
<path d="M62.727 113.387C58.9197 113.387 57.9679 107.105 57.492 101.585C57.0161 95.7785 55.6836 69.5087 55.6836 69.2231L56.8258 69.1279C56.8258 69.4135 58.2535 95.5882 58.6342 101.394C59.2053 108.628 60.5378 112.15 62.727 112.15C64.8209 112.15 65.9631 110.817 66.7246 108.342L67.7715 108.723C67.2005 110.436 66.0583 113.387 62.727 113.387Z" fill="#6683C2"/>
<path d="M46.8297 103.774H38.9297V102.631H46.8297V103.774Z" fill="#6683C2"/>
<path d="M95.5601 100.442H94.418C94.418 100.347 94.7035 92.8277 100.51 92.2566C104.697 91.7807 106.791 95.9686 107.267 98.253L106.125 98.5385C106.03 98.3481 104.793 92.9228 100.605 93.3988C95.8457 93.8747 95.5601 100.442 95.5601 100.442Z" fill="#6683C2"/>
<path d="M100.229 113.768C96.2317 113.768 94.6137 110.246 94.3281 108.247L95.4703 108.057C95.4703 108.247 96.1366 112.625 100.325 112.53C104.608 112.435 105.94 106.915 105.94 106.819L107.082 107.105C106.987 107.39 105.559 113.577 100.42 113.672C100.325 113.768 100.229 113.768 100.229 113.768Z" fill="#6683C2"/>
<path d="M118.978 102.917H117.836V86.9263H118.978V102.917Z" fill="#6683C2"/>
<path d="M121.163 114.814C120.306 114.814 119.545 114.529 118.973 113.958C117.451 112.53 117.736 109.675 117.736 109.579L118.878 109.675C118.878 109.675 118.688 112.054 119.735 113.196C120.116 113.577 120.687 113.767 121.448 113.672C124.208 113.387 126.398 109.389 126.493 109.294L127.54 109.865C127.445 110.055 125.065 114.529 121.638 114.814C121.448 114.814 121.353 114.814 121.163 114.814Z" fill="#6683C2"/>
<path d="M30.36 91.6855L27.9805 95.0169L31.0263 95.7783L30.36 91.6855Z" fill="#6683C2"/>
<path d="M94.6124 103.678L96.516 100.061L93.375 99.7759L94.6124 103.678Z" fill="#6683C2"/>
<path d="M107.076 104.535L104.602 107.676L107.647 108.533L107.076 104.535Z" fill="#6683C2"/>
<path d="M118.502 106.058L120.025 102.346H116.789L118.502 106.058Z" fill="#6683C2"/>
<path d="M128.586 106.534L125.445 109.104L128.206 110.626L128.586 106.534Z" fill="#6683C2"/>
<path d="M48.4475 103.203L44.9258 101.68V104.725L48.4475 103.203Z" fill="#6683C2"/>
<path d="M68.3384 106.534L65.5781 109.199L68.3384 110.436V106.534Z" fill="#6683C2"/>
</g>
<defs>
<clipPath id="clip0_2011_728">
<path d="M0 0H126V119C126 130.046 117.046 139 106 139H0V0Z" fill="white"/>
</clipPath>
</defs>
</svg>
