<svg width="236" height="172" viewBox="0 0 236 172" fill="none" xmlns="http://www.w3.org/2000/svg">
<g clip-path="url(#clip0_2021_176)">
<path d="M113.891 157.66C110.7 152.795 107.852 147.497 104.958 142.666C103.784 140.717 102.622 138.689 102.143 136.536C100.959 131.261 103.853 127.592 108.524 129.529C113.036 131.409 115.167 136.809 117.65 141.059C120.658 146.243 124.658 153.353 125.729 159.118C126.23 161.807 125.695 164.667 123.803 165.795C122.983 166.285 121.923 166.422 120.898 165.978C119.884 165.533 119.029 164.599 118.266 163.665C116.705 161.796 115.269 159.768 113.891 157.66Z" fill="#E9B49C"/>
<path d="M122.719 144.5C122.719 144.5 107.838 153.741 106.608 154.447C106.289 154.63 102.107 147.372 101.8 146.893C100.922 145.514 100.079 144.067 99.4297 142.552C98.8828 141.265 99.0195 139.635 99.0765 138.234C99.2132 135.135 99.8855 132.07 101.059 129.198C101.435 128.276 101.868 127.375 102.483 126.601C102.985 125.974 103.6 125.461 104.204 124.937C104.306 124.846 104.409 124.766 104.534 124.721C104.705 124.664 104.876 124.709 105.047 124.755C109.297 125.837 113.387 129.529 115.62 133.061C118.138 137.026 122.719 144.5 122.719 144.5Z" fill="#F37E60"/>
<path d="M67.4328 171.857C67.5696 170.364 67.7405 145.867 67.957 144.386C68.7089 139.225 69.9965 133.756 73.5399 129.745C75.0325 128.059 76.8555 126.726 78.8381 125.678C79.9433 125.096 81.0941 124.595 82.2676 124.151C83.5893 123.649 85.1617 123.365 86.3694 122.658C87.2467 122.157 87.1214 120.915 87.1328 120.06C87.1556 118.796 87.3151 117.554 87.2809 116.289C87.2353 114.728 87.224 113.167 87.1442 111.618C88.8875 111.287 90.3003 111.128 92.1575 111.196C93.6843 111.253 95.2224 111.105 96.7492 111.185C96.8745 111.196 97.0113 111.207 97.091 111.276C97.1822 111.344 97.1936 111.458 97.205 111.572C97.4101 113.68 97.205 115.81 97.3645 117.918C97.4442 118.989 97.6038 121.838 98.8001 122.533C103.506 123.456 107.984 125.495 110.581 128.742C116.734 136.433 117.611 166.843 117.156 175.81C116.757 183.581 66.1453 185.905 67.4328 171.857Z" fill="#F37E60"/>
<mask id="mask0_2021_176" style="mask-type:luminance" maskUnits="userSpaceOnUse" x="67" y="111" width="51" height="72">
<path d="M67.4328 171.857C67.5696 170.364 67.7405 145.867 67.957 144.386C68.7089 139.225 69.9965 133.756 73.5399 129.745C75.0325 128.059 76.8555 126.726 78.8381 125.678C79.9433 125.096 81.0941 124.595 82.2676 124.151C83.5893 123.649 85.1617 123.365 86.3694 122.658C87.2467 122.157 87.1214 120.915 87.1328 120.06C87.1556 118.796 87.3151 117.554 87.2809 116.289C87.2353 114.728 87.224 113.167 87.1442 111.618C88.8875 111.287 90.3003 111.128 92.1575 111.196C93.6843 111.253 95.2224 111.105 96.7492 111.185C96.8745 111.196 97.0113 111.207 97.091 111.276C97.1822 111.344 97.1936 111.458 97.205 111.572C97.4101 113.68 97.205 115.81 97.3645 117.918C97.4442 118.989 97.6038 121.838 98.8001 122.533C103.506 123.456 107.984 125.495 110.581 128.742C116.734 136.433 117.611 166.843 117.156 175.81C116.757 183.581 66.1453 185.905 67.4328 171.857Z" fill="white"/>
</mask>
<g mask="url(#mask0_2021_176)">
<path d="M95.497 127.603C94.6767 128.025 93.7765 128.241 92.9106 128.241C90.7686 128.241 88.6379 127.056 87.1681 125.028C84.9235 121.929 84.2855 116.859 86.0287 113.144C86.6212 111.868 87.5213 110.809 88.6037 110.307C90.1761 109.555 91.9535 110.034 93.4803 110.9C95.6679 112.142 97.6163 114.284 98.5506 117.144C99.4735 120.004 99.2114 123.593 97.5593 125.849C96.9782 126.612 96.2604 127.204 95.497 127.603Z" fill="#E9B49C"/>
<path d="M108.854 99.7906C108.797 96.6459 108.307 93.6608 107.441 91.1997C103.67 80.535 89.7353 78.017 81.452 85.7534C72.2116 94.39 76.0285 114.819 85.9412 121.917C88.5959 123.82 92.1736 124.458 95.3639 123.615C104.992 121.052 109.025 109.612 108.854 99.7906Z" fill="#D4987C"/>
</g>
<path d="M70.1481 154.265C74.5461 150.448 78.7276 146.118 82.8294 142.267C84.4815 140.706 86.1564 139.077 87.2046 137.14C89.7796 132.389 87.9908 128.07 82.9661 128.663C78.1124 129.244 74.5916 133.858 71.0482 137.288C66.7413 141.458 60.9532 147.212 58.3668 152.476C57.1591 154.926 56.897 157.82 58.401 159.426C59.0504 160.121 60.0417 160.543 61.1469 160.383C62.2407 160.235 63.3117 159.563 64.3144 158.868C66.3083 157.478 68.2453 155.917 70.1481 154.265Z" fill="#E9B49C"/>
<path d="M61.5352 144.5C61.5352 144.5 72.8493 152.214 73.8975 153.171C74.171 153.422 81.8846 146.722 82.2834 146.312C84.1178 144.455 85.8155 142.427 87.103 140.148C88.5159 137.675 89.3818 134.667 89.0058 131.808C88.5956 128.697 86.9435 125.678 85.4623 122.955C82.386 123.479 78.7513 124.675 76.1649 126.43C74.7749 127.375 73.4418 129.005 72.2454 130.224C68.9412 133.585 61.5352 144.5 61.5352 144.5Z" fill="#F37E60"/>
<path d="M136.316 137.06C137.228 137.265 138.025 138.017 138.39 138.883C139.267 140.968 138.207 142.803 137.341 144.626C135.108 149.343 132.886 154.288 129.992 158.731C128.409 161.17 124.239 168.029 120.205 165.511C119.362 164.986 118.883 164.029 118.69 163.084C118.28 161.067 118.986 159.039 119.852 157.216C123.076 150.471 128.397 144.774 133.012 138.917C133.695 138.04 134.516 137.094 135.667 137.003C135.883 137.003 136.111 137.015 136.316 137.06Z" fill="#E9B49C"/>
<path d="M136.688 141.128C135.343 140.661 133.839 139.852 133.099 138.587C131.982 136.661 132.7 134.223 131.88 132.195C131.606 131.523 131.139 130.907 131.048 130.167C130.922 129.141 131.948 128.822 132.768 129.13C133.247 129.301 133.771 129.631 134.113 130.019C134.569 130.531 134.717 131.249 134.842 131.933C134.933 132.423 135.024 132.913 135.115 133.403C135.047 133.049 135.594 130.828 135.674 130.292C135.856 129.13 136.175 127.991 136.642 126.908C136.984 126.122 137.52 125.267 138.374 125.188C138.499 125.176 138.625 125.176 138.727 125.245C138.841 125.313 138.91 125.438 138.955 125.575C139.149 126.111 139.115 126.692 139.069 127.261C138.967 128.469 138.773 130.896 138.773 130.896C138.773 130.896 139.57 129.426 139.946 128.743C140.459 127.82 140.881 126.897 141.507 126.031C141.701 125.757 141.906 125.495 142.134 125.256C142.476 124.903 142.977 124.595 143.422 124.778C143.695 124.892 143.877 125.188 143.934 125.473C143.991 125.769 143.946 126.076 143.889 126.373C143.763 126.999 143.57 127.603 143.342 128.207C142.909 129.381 142.18 131.659 142.18 131.659C142.18 131.659 143.433 130.6 144.06 130.076C144.481 129.722 144.914 129.358 145.415 129.13C145.7 129.005 146.019 128.925 146.327 128.982C146.635 129.039 146.919 129.255 146.999 129.563C147.079 129.893 146.897 130.235 146.714 130.531C145.78 132.024 143.444 134.667 143.444 134.667C143.444 134.667 145.222 133.642 146.213 133.403C146.566 133.312 146.954 133.266 147.295 133.38C148.651 133.801 147.17 135.135 146.623 135.613C144.96 137.083 143.342 138.667 141.587 140.023C140.265 141.037 138.761 141.766 137.075 141.276C136.95 141.207 136.824 141.173 136.688 141.128Z" fill="#E9B49C"/>
<path d="M90.0936 161.625C90.9595 159.882 89.7518 158.287 88.1794 157.66C86.3336 156.919 84.4423 156.509 82.5509 155.985C80.5228 155.415 78.4833 154.869 76.4438 154.379C72.5243 153.444 68.4339 152.795 64.3663 152.704C61.7685 152.647 57.3819 152.761 57.0173 156.202C56.9147 157.17 57.3819 158.127 58.0199 158.868C59.3872 160.429 61.4609 161.158 63.489 161.625C70.952 163.357 78.8935 162.844 86.5159 162.981C87.6553 163.004 88.9314 162.97 89.729 162.149C89.8771 161.99 90.0025 161.819 90.0936 161.625Z" fill="#E9B49C"/>
<path d="M87.5459 162.354C88.6511 162.468 89.5968 163.334 90.7134 163.551C91.511 163.699 92.3199 163.494 93.0377 163.14C93.6986 162.821 94.3708 162.605 95.0544 162.32C95.5786 162.092 96.285 161.648 96.8775 161.716C98.4498 161.876 100.091 162.821 101.549 163.391C101.879 163.516 102.233 163.653 102.574 163.551C102.916 163.448 103.155 163.004 102.928 162.73C103.361 163.061 103.976 163.756 104.591 163.403C104.842 163.254 104.967 162.89 104.796 162.662C105.047 162.878 105.298 163.106 105.617 163.197C105.936 163.289 106.334 163.197 106.482 162.901C106.551 162.764 106.562 162.605 106.551 162.445C106.528 161.91 106.312 161.397 106.038 160.941C104.705 158.663 102.05 157.136 99.7943 155.928C99.3955 155.712 98.9853 155.495 98.541 155.404C98.1422 155.324 97.732 155.358 97.3332 155.393C94.7126 155.643 92.1376 156.327 89.7449 157.409C89.2322 157.649 88.6169 157.546 88.0814 157.501C87.6826 157.466 87.261 157.432 86.8851 157.592C86.4635 157.763 86.1672 158.139 85.9394 158.526C85.5178 159.244 85.2443 160.178 85.3811 161.01C85.495 161.648 85.6089 162.332 86.3723 162.388C86.68 162.411 86.999 162.343 87.3066 162.343C87.3978 162.343 87.4661 162.343 87.5459 162.354Z" fill="#E9B49C"/>
<path d="M113.321 99.8706C115.543 96.7829 117.127 92.9887 117.902 88.9097C119.201 82.062 118.004 75.5789 114.598 71.1125C110.074 65.1763 99.6375 63.3305 92.7214 65.3359L92.8468 65.7688C96.2535 64.7776 100.481 64.7548 104.457 65.6891C108.741 66.7031 112.216 68.7198 114.233 71.3746C117.56 75.7384 118.734 82.0962 117.446 88.8072C116.683 92.8178 115.122 96.5436 112.945 99.5858L113.321 99.8706Z" fill="#5D4130"/>
<path d="M72.1677 102.616L72.5209 102.332C67.8608 96.4979 65.5364 88.8868 66.1175 81.4467C66.2315 79.9541 66.4479 78.7691 66.7898 77.7323C68.2482 73.2317 73.2956 69.3806 78.0469 69.1413L78.0241 68.6855C73.102 68.9248 67.8608 72.9127 66.3454 77.5841C65.9922 78.6666 65.7757 79.8743 65.6618 81.4125C65.0693 88.9552 67.4506 96.6916 72.1677 102.616Z" fill="#5D4130"/>
<path d="M105.467 109.806C103.769 110.717 102.06 111.606 100.647 112.905C98.6193 114.774 97.2179 117.474 94.6771 118.534C92.6376 119.377 90.2676 118.967 88.2737 118.021C86.2798 117.075 84.5593 115.651 82.7591 114.386C80.5145 112.814 78.099 111.481 76.0253 109.692C68.7675 103.448 66.4317 93.1709 66.7963 83.9761C66.8419 82.7569 66.9103 81.5378 67.2065 80.3528C68.3345 75.9206 70.8867 72.4797 76.6406 69.1185C75.957 68.583 75.1936 68.5716 74.1795 68.3551C76.8571 67.5461 79.1131 67.136 81.8476 67.7626C84.058 65.8257 86.5418 64.2077 89.2194 63C89.1396 63.4558 88.9346 63.8887 88.6269 64.2419C91.1792 63.5469 94.4492 62.9772 97.4799 63.1595C97.0584 63.3532 95.6227 64.6977 95.2012 64.8914C96.9102 64.8458 98.6193 65.1079 100.306 65.4269C103.12 65.951 105.968 66.6005 108.464 68.0133C115.87 72.229 118.228 81.7657 117.431 89.7186C117.009 93.8773 115.756 98.0247 113.785 101.716C112.622 103.881 111.187 105.943 109.273 107.482C108.088 108.382 106.777 109.099 105.467 109.806Z" fill="#5D4130"/>
<path d="M112.317 95.8258C112.124 91.348 110.961 86.9386 108.341 83.3609C105.424 79.3845 100.798 76.7297 95.8988 76.217C90.9995 75.7043 85.9178 77.345 82.2376 80.615C74.1138 87.8615 74.3189 100.133 78.2384 109.487C78.7169 110.626 79.2638 111.72 79.9019 112.78C82.9554 117.85 88.3447 121.815 94.2581 121.827C99.2828 121.838 104.034 118.967 107.088 114.967C110.13 110.968 111.622 105.966 112.158 100.976C112.317 99.2781 112.386 97.5463 112.317 95.8258Z" fill="#E9B49C"/>
<path d="M95 104C96.1667 105.167 96.5 107 96 107.5C95.6464 107.854 95 108 94 107.5" stroke="#D4987C" stroke-linecap="round"/>
<path d="M101.062 112C101.062 112 99.4384 115.69 95.1074 115.917C90.7764 116.144 89.9977 112.037 89.9977 112.037C93.8095 113.318 97.1097 113.582 101.062 112Z" fill="#F1F2F2"/>
<path d="M76.0833 100.258C71.07 98.1728 69.6913 103.858 70.6256 106.65C71.013 107.801 71.5941 108.917 72.4942 109.84C73.7019 111.093 77.1315 113.122 79.0457 111.663C79.9116 111.002 79.9686 109.908 79.9686 108.951C79.98 106.342 79.49 101.671 76.0833 100.258Z" fill="#E9B49C"/>
<path d="M111.182 97.8995C115.022 95.4498 116.458 101.01 115.899 103.858C115.672 105.032 115.273 106.183 114.612 107.185C113.735 108.519 111.148 110.809 109.553 109.498C108.824 108.906 108.71 107.824 108.653 106.855C108.482 104.257 108.585 99.563 111.182 97.8995Z" fill="#E9B49C"/>
<path d="M107.321 94.1735C107.561 94.4241 107.8 94.6748 108.051 94.9141C108.985 95.8142 110.215 96.6687 110.409 97.9562C110.671 99.6197 110.443 98.9133 110.614 101.693C112.813 97.5119 116.482 84.9559 115.206 82.5745C113.953 80.2274 111.674 78.6095 109.327 77.3562C103.926 74.4963 97.6935 73.1974 91.6092 73.7785C85.5249 74.3596 79.6115 76.8206 74.9856 80.8199C73.4588 82.1416 75.8629 102.537 76.877 103.744C76.9681 100.189 76.934 100.52 77.4923 97.4777C77.5834 96.9877 80.0103 90.0489 80.637 88.1006C80.8534 89.183 81.4687 90.9718 81.6852 92.0542C83.5082 89.502 86.163 85.6965 86.6187 82.5973C87.6784 84.614 91.1421 87.8499 94.8565 89.8324C94.7539 88.1347 94.5602 86.2775 94.8793 84.8989C96.5883 87.3827 99.9153 90.4135 102.878 91.3364C102.604 89.8438 102.684 88.3056 103.106 86.8472C103.949 89.5704 105.396 92.0884 107.321 94.1735Z" fill="#D4987C"/>
<path d="M107.236 92.5329C107.475 92.7836 107.714 93.0343 107.965 93.2735C108.899 94.1736 110.13 95.0282 110.324 96.3157C110.586 97.9792 110.46 98.9249 110.62 101.705C112.819 97.5234 115.462 93.5014 116.1 88.8299C116.465 86.1638 116.385 83.3153 115.109 80.9454C113.856 78.5983 111.577 76.9803 109.23 75.727C103.829 72.8672 97.5966 71.5682 91.5123 72.1493C85.428 72.7304 79.5145 75.1915 74.8886 79.1907C73.3619 80.5124 71.949 82.0164 71.1059 83.8508C70.559 85.0472 70.2741 86.3803 70.3653 87.6905C70.4678 89.035 71.0831 90.3453 71.5047 91.6214C72.439 94.4813 73.4188 97.2956 74.6494 100.041C75.2077 101.306 75.8685 102.548 76.8712 103.756C76.9623 100.201 76.837 98.8793 77.3953 95.8371C77.4864 95.3472 79.9133 88.4084 80.54 86.46C80.7565 87.5424 81.3717 89.3313 81.5882 90.4137C83.4112 87.8614 86.066 84.0559 86.5218 80.9568C87.5814 82.9735 91.0451 86.2093 94.7595 88.1919C94.657 86.4942 94.4633 84.637 94.7823 83.2583C96.4914 85.7422 99.8184 88.773 102.781 89.6959C102.507 88.2033 102.587 86.6651 103.009 85.2067C103.852 87.9298 105.31 90.4479 107.236 92.5329Z" fill="#5D4130"/>
<path d="M106.278 96.3727C106.437 96.3499 106.585 96.3044 106.722 96.2474C107.861 95.7461 106.506 94.6636 105.925 94.4016C104.91 93.9344 103.68 93.7407 102.575 93.6724C102.005 93.6382 99.2249 93.7521 100.045 95.0169C100.626 95.917 102.495 96.0765 103.441 96.2132C104.329 96.3385 105.366 96.5322 106.278 96.3727Z" fill="#5D4130"/>
<path d="M81.665 97.8424C81.5055 97.8311 81.346 97.8083 81.2093 97.7627C80.0129 97.3981 81.2435 96.1676 81.779 95.8371C82.7361 95.256 83.921 94.9142 85.0262 94.7205C85.5845 94.618 88.3646 94.4015 87.7038 95.7574C87.2366 96.7145 85.4022 97.1018 84.4793 97.3525C83.5906 97.569 82.5765 97.888 81.665 97.8424Z" fill="#5D4130"/>
<path d="M104.026 101.728C103.958 103.152 103.195 104.269 102.329 104.234C101.463 104.189 100.813 103.004 100.882 101.58C100.95 100.155 101.713 99.0388 102.579 99.073C103.445 99.1072 104.095 100.304 104.026 101.728Z" fill="#252B30"/>
<path d="M87.6158 102.343C87.8778 103.744 87.3993 105.009 86.5448 105.169C85.6902 105.328 84.7901 104.314 84.5281 102.913C84.266 101.511 84.7445 100.246 85.5991 100.087C86.4536 99.9275 87.3537 100.93 87.6158 102.343Z" fill="#252B30"/>
<path d="M113.731 100.03C113.31 100.121 112.922 100.36 112.592 100.657C112.261 100.953 111.999 101.306 111.771 101.694C111.544 102.07 111.361 102.468 111.213 102.878C111.133 103.084 111.065 103.289 111.008 103.505C110.951 103.722 110.894 103.927 110.849 104.155L110.655 105.18L111.259 104.314C111.555 103.893 112.034 103.494 112.455 103.63C112.672 103.687 112.865 103.87 113.036 104.075C113.116 104.177 113.196 104.303 113.264 104.405C113.332 104.519 113.378 104.633 113.412 104.758C113.481 105.009 113.469 105.271 113.389 105.533C113.31 105.795 113.184 106.035 113.013 106.274C112.854 106.502 112.66 106.718 112.455 106.923C112.25 107.128 112.034 107.322 111.794 107.493C112.318 107.231 112.808 106.878 113.207 106.422C113.401 106.194 113.583 105.932 113.697 105.636C113.811 105.34 113.857 104.998 113.788 104.679C113.754 104.519 113.697 104.36 113.629 104.212C113.549 104.063 113.469 103.938 113.378 103.813C113.196 103.562 112.945 103.311 112.592 103.198C112.421 103.141 112.227 103.141 112.045 103.175C111.863 103.209 111.703 103.289 111.566 103.38C111.43 103.471 111.304 103.585 111.19 103.699C111.076 103.813 110.985 103.927 110.883 104.075L111.293 104.234C111.327 104.041 111.373 103.824 111.43 103.63C111.475 103.425 111.532 103.22 111.601 103.027C111.726 102.628 111.874 102.24 112.068 101.864C112.25 101.488 112.466 101.135 112.74 100.816C113.013 100.486 113.344 100.212 113.731 100.03Z" fill="#D4987C"/>
<path d="M72.4109 102.514C72.6388 102.571 72.8666 102.651 73.0717 102.742C73.2768 102.844 73.4819 102.947 73.6756 103.072C73.8693 103.198 74.0516 103.346 74.2111 103.494C74.382 103.653 74.5415 103.813 74.6897 103.984C74.9859 104.337 75.248 104.713 75.4758 105.1C75.5898 105.294 75.6923 105.499 75.7949 105.704C75.8974 105.909 75.9886 106.126 76.0683 106.331L76.4329 106.092C76.2962 105.955 76.1595 105.864 76.0114 105.761C75.8632 105.67 75.7037 105.579 75.5328 105.51C75.191 105.385 74.8036 105.328 74.4276 105.419C74.0516 105.522 73.7326 105.761 73.5161 106.035C73.4022 106.171 73.311 106.319 73.2199 106.468C73.1287 106.627 73.0603 106.798 73.0148 106.992C72.9806 107.174 72.9806 107.379 73.0262 107.561C73.0717 107.744 73.1515 107.915 73.2426 108.074C73.4363 108.382 73.7098 108.61 73.9832 108.803C74.5415 109.191 75.1682 109.453 75.8063 109.624C75.51 109.487 75.2138 109.327 74.9289 109.168C74.6441 108.997 74.382 108.815 74.1314 108.61C73.8921 108.405 73.6642 108.165 73.5161 107.903C73.368 107.641 73.3224 107.356 73.3908 107.083C73.4249 106.946 73.4819 106.809 73.5617 106.684C73.6414 106.559 73.7326 106.422 73.8351 106.319C74.0288 106.092 74.2681 105.921 74.5415 105.852C74.8036 105.784 75.0998 105.818 75.3733 105.932C75.51 105.989 75.6467 106.057 75.7721 106.137C75.8974 106.217 76.0341 106.319 76.1253 106.411L76.8203 107.049L76.4899 106.183C76.3987 105.943 76.2962 105.727 76.1937 105.51C76.0797 105.294 75.9658 105.089 75.829 104.884C75.5784 104.474 75.2708 104.098 74.9289 103.744C74.5871 103.403 74.1997 103.106 73.7781 102.879C73.5617 102.765 73.3452 102.673 73.1059 102.616C72.878 102.559 72.6502 102.525 72.4109 102.514Z" fill="#D4987C"/>
<path d="M116.016 148.659C115.856 146.939 115.628 145.218 115.343 143.509L115.241 142.871L115.127 142.233L115.013 141.595L114.888 140.957C114.808 140.535 114.717 140.102 114.614 139.681C114.523 139.259 114.432 138.838 114.318 138.416C114.215 137.994 114.113 137.573 113.988 137.151C113.874 136.73 113.76 136.308 113.634 135.898L113.441 135.271C113.372 135.066 113.304 134.861 113.236 134.656L113.03 134.041L112.803 133.425C112.199 131.796 111.481 130.201 110.569 128.731C111.299 130.304 111.925 131.91 112.461 133.551L112.666 134.166L112.86 134.781C112.916 134.986 112.985 135.192 113.042 135.397L113.213 136.023C113.338 136.433 113.441 136.855 113.555 137.265C113.668 137.675 113.771 138.097 113.874 138.519C113.976 138.94 114.079 139.362 114.17 139.772L114.318 140.399L114.455 141.037L114.591 141.663L114.728 142.301L114.99 143.566L116.016 148.659Z" fill="#F37E60"/>
<path d="M112.972 155.593H147.664V162.379H112.972V155.593Z" fill="#8FA9E4"/>
<path d="M141.696 156.252L150.459 111.674C150.683 110.49 151.717 109.651 152.915 109.651H211.125C211.964 109.651 212.683 110.071 213.147 110.685H213.162L215.844 113.861L213.462 113.336L204.834 157.226C204.609 158.409 203.576 159.248 202.377 159.248H144.167C142.58 159.248 141.396 157.795 141.696 156.252Z" fill="#8FA9E4"/>
<path d="M205.034 162.379H146.824C145.236 162.379 144.053 160.941 144.368 159.383L153.131 114.804C153.355 113.621 154.389 112.782 155.587 112.782H213.797C215.385 112.782 216.568 114.22 216.254 115.778L207.491 160.357C207.266 161.54 206.248 162.379 205.034 162.379Z" fill="#6683C2"/>
<path d="M186.731 136.48C186.192 139.49 183.316 141.917 180.32 141.917C177.324 141.917 175.347 139.475 175.931 136.48C176.515 133.469 179.391 131.042 182.342 131.042C185.308 131.027 187.27 133.469 186.731 136.48Z" fill="#8FA9E4"/>
<path d="M156.519 162.439H165.133C167.529 162.439 169.477 160.492 169.477 158.095V137.663H152.175V158.095C152.175 160.492 154.108 162.439 156.519 162.439Z" fill="#D76C50"/>
<path d="M150.956 143.265C155.106 143.265 158.461 146.68 158.461 150.89C158.461 155.099 155.091 158.514 150.956 158.514C146.807 158.514 143.452 155.099 143.452 150.89C143.452 146.68 146.807 143.265 150.956 143.265ZM150.956 155.788C153.623 155.788 155.795 153.586 155.795 150.89C155.795 148.178 153.638 145.991 150.956 145.991C148.29 145.991 146.118 148.193 146.118 150.89C146.118 153.586 148.29 155.788 150.956 155.788Z" fill="#D76C50"/>
<path opacity="0.2" d="M166.884 153.032C167.393 153.032 167.812 152.612 167.812 152.103V140.045C167.812 139.535 167.393 139.116 166.884 139.116C166.374 139.116 165.955 139.535 165.955 140.045V152.103C165.94 152.612 166.359 153.032 166.884 153.032Z" fill="white"/>
<path d="M156.149 137.663V158.065C156.149 160.492 158.112 162.439 160.523 162.439H156.524C154.097 162.439 152.15 160.477 152.15 158.065V137.663H156.149Z" fill="#C25B40"/>
<path d="M7.2853 172H239.715C242.086 172 244 169.765 244 167C244 164.235 242.086 162 239.715 162H7.2853C4.91394 162 3.00001 164.235 3.00001 167C3.00001 169.765 4.92598 172 7.2853 172Z" fill="#DABFA6"/>
<path d="M28.3291 154.964H24.375V151.01H28.3291V154.964Z" fill="#6683C2"/>
<path d="M35.7656 162.676H16.9266C16.9266 158.423 20.3799 154.969 24.6327 154.969H28.0596C32.3212 154.969 35.7656 158.414 35.7656 162.676Z" fill="#6683C2"/>
<path opacity="0.1" d="M26.3383 162.676H35.7578C35.7578 158.414 32.3046 154.969 28.0518 154.969H28.3154V151.015H26.3383V162.676Z" fill="#231F20"/>
<path d="M36.4508 110.121C35.8269 111.483 35.203 112.845 34.5792 114.216C33.0766 117.511 31.5653 120.806 30.0627 124.101C28.2527 128.073 26.4338 132.036 24.6237 136.007C23.0596 139.443 21.4868 142.87 19.9227 146.306C19.4043 147.448 18.8859 148.581 18.3587 149.724C18.1126 150.26 17.9018 150.831 17.6206 151.341C17.6118 151.367 17.603 151.384 17.5854 151.411C17.1637 152.325 15.8105 151.534 16.2323 150.62C16.8561 149.258 17.48 147.896 18.1039 146.525C19.6064 143.23 21.1177 139.935 22.6203 136.64C24.4304 132.668 26.2493 128.706 28.0594 124.734C29.6234 121.298 31.1963 117.871 32.7603 114.436C33.2787 113.293 33.7972 112.16 34.3244 111.018C34.5704 110.482 34.7813 109.911 35.0625 109.401C35.0712 109.375 35.08 109.357 35.0976 109.331C35.5194 108.417 36.8726 109.208 36.4508 110.121Z" fill="#94AEE8"/>
<path d="M34.153 110.201C42.4829 114.049 48.5107 122.625 48.0538 131.974C47.8341 136.526 46.0592 140.875 43.0804 144.32C40.1369 147.72 36.0685 150.102 31.7191 151.182C26.4645 152.483 20.9376 151.885 16.0258 149.662C15.1031 149.249 15.9027 147.896 16.8166 148.309C24.8038 151.921 34.6978 150.559 40.9716 144.285C43.9328 141.332 45.901 137.405 46.3843 133.231C46.85 129.154 45.9801 125.006 44.0294 121.404C41.6658 117.028 37.8611 113.627 33.3622 111.554C32.4484 111.132 33.2392 109.779 34.153 110.201Z" fill="#6683C2"/>
<path d="M13.1765 143.535C5.89841 136.257 5.8984 124.456 13.1765 117.178C20.4546 109.9 32.2547 109.9 39.5328 117.178C46.8109 124.456 46.8109 136.257 39.5328 143.535C32.2547 150.813 20.4546 150.813 13.1765 143.535Z" fill="#A8C0F3"/>
<mask id="mask1_2021_176" style="mask-type:luminance" maskUnits="userSpaceOnUse" x="7" y="111" width="38" height="38">
<path d="M13.1765 143.535C5.89841 136.257 5.8984 124.456 13.1765 117.178C20.4546 109.9 32.2547 109.9 39.5328 117.178C46.8109 124.456 46.8109 136.257 39.5328 143.535C32.2547 150.813 20.4546 150.813 13.1765 143.535Z" fill="white"/>
</mask>
<g mask="url(#mask1_2021_176)">
<path d="M21.2837 113.109C21.2749 113.171 21.2661 113.223 21.2749 113.276C21.3101 113.513 21.5825 113.627 21.7406 113.803C21.8988 113.979 21.9427 114.234 21.9076 114.462C21.8812 114.699 21.7758 114.91 21.6616 115.121C21.6088 115.218 21.5561 115.315 21.5737 115.42C21.6001 115.587 21.7846 115.675 21.9515 115.719C22.4787 115.851 23.9022 116.272 23.3926 117.125C23.1553 117.52 22.593 117.494 22.136 117.546C21.0465 117.678 20.1063 118.636 20.0096 119.726C20.0008 119.866 20.0008 120.016 20.0799 120.13C20.1942 120.305 20.4402 120.341 20.6511 120.332C21.644 120.279 22.4787 119.585 23.2256 118.926C23.6386 119.172 23.6474 119.778 23.4804 120.226C23.3135 120.675 23.0147 121.087 22.9708 121.562C23.4629 121.799 24.0692 121.799 24.5612 121.562C24.8336 121.43 25.1324 121.228 25.396 121.369C25.6244 121.483 25.6684 121.782 25.8002 122.001C26.2043 122.669 27.1973 122.458 27.9529 122.616C28.5241 122.731 29.0161 123.1 29.4818 123.451C30.5099 124.224 31.538 124.998 32.5572 125.771C32.6627 125.85 32.7593 125.929 32.8296 126.034C32.9966 126.316 32.8384 126.694 32.5836 126.904C32.3288 127.115 32.0037 127.212 31.7137 127.37C30.5538 127.976 30.2902 129.163 29.6752 130.199C29.0601 131.254 28.2868 132.185 27.4433 133.064C26.4767 134.074 25.642 135.146 24.8424 136.298C24.5788 136.675 24.3152 137.062 24.1658 137.493C23.8319 138.45 24.0867 139.505 24.1482 140.515C24.157 140.682 24.157 140.858 24.0691 140.998C23.9813 141.139 23.7792 141.218 23.6474 141.121C23.5771 141.069 23.5419 140.99 23.5156 140.911C23.2871 140.383 22.9532 139.979 22.5754 139.549C22.2503 139.171 22.2239 138.969 22.1624 138.477C22.136 138.275 22.0306 138.187 22.0394 137.958C22.0482 137.756 22.2151 137.589 22.1536 137.37C22.1009 137.185 21.8988 137.08 21.8021 136.913C21.6176 136.596 21.8724 136.192 21.7934 135.832C21.7055 135.436 21.5298 135.226 21.5298 134.813C21.5298 134.426 21.5385 134.004 21.6616 133.635C21.7494 133.38 21.9603 133.187 22.0042 132.906C22.0394 132.704 21.9955 132.484 22.0657 132.291C22.1185 132.124 22.2503 131.992 22.3469 131.851C22.716 131.298 22.6369 130.568 22.549 129.909C22.5139 129.637 22.4524 129.321 22.2063 129.189C22.136 129.154 22.057 129.127 22.0042 129.075C21.9339 129.004 21.9252 128.908 21.8988 128.811C21.7846 128.301 21.3892 127.862 20.8971 127.695C19.8427 127.344 20.7126 126.034 21.2574 125.507C21.6 125.173 21.9955 124.901 22.2766 124.506C22.549 124.119 22.6896 123.574 22.4348 123.17C22.0833 122.59 21.1871 122.643 20.6335 123.029C20.0799 123.416 19.7285 124.031 19.2452 124.506C18.7619 124.98 17.9974 125.305 17.4175 124.962C17.2506 124.866 17.1012 124.708 16.9079 124.699C16.6443 124.69 16.4597 124.936 16.2401 125.077C15.5723 125.516 14.6497 124.98 13.8852 125.235C13.5425 125.349 13.2701 125.604 12.9538 125.762C12.6287 125.92 12.1806 125.955 11.9697 125.665C11.8818 125.551 11.8379 125.402 11.7148 125.332C11.5918 125.261 11.4425 125.305 11.3019 125.296C10.9416 125.27 10.6956 124.883 10.678 124.523C10.6604 124.163 10.801 123.811 10.9065 123.469C11.2404 122.335 11.1613 121.096 10.6868 120.016C10.5726 119.743 10.4232 119.48 10.4056 119.19C10.3705 118.715 10.6692 118.293 10.9592 117.924C12.3475 116.184 14.0873 114.735 16.0292 113.671C17.0133 113.135 18.0502 112.687 19.1134 112.353C19.7988 112.142 21.3979 111.703 21.2749 113.004C21.2925 113.056 21.2837 113.083 21.2837 113.109Z" fill="#7089C2"/>
<path d="M36.9655 116.009C37.2116 116.395 37.4664 116.773 37.7124 117.16C37.8266 117.327 37.9321 117.511 37.9409 117.713C37.9584 118.153 37.4839 118.451 37.3434 118.864C37.1061 119.559 37.8618 120.218 38.5823 120.332C39.0831 120.411 39.7334 120.446 39.8915 120.929C39.9443 121.096 39.9179 121.281 39.9618 121.457C40.0233 121.694 40.2254 121.861 40.3748 122.045C40.8845 122.66 40.9196 123.609 40.4715 124.268C40.2606 124.567 39.9706 124.804 39.7685 125.112C39.5664 125.419 39.4698 125.85 39.6894 126.14C40.0849 126.676 41.2184 126.43 41.3502 127.08C41.4029 127.353 41.2447 127.722 41.4732 127.88C41.561 127.941 41.6753 127.941 41.7719 127.985C42.0004 128.091 42.0443 128.407 41.9916 128.653C41.9389 128.899 41.8334 129.154 41.8949 129.409C42.2113 129.549 42.633 129.25 42.8966 129.47C42.9757 129.532 43.0197 129.637 43.0636 129.734C43.582 130.894 44.2586 131.992 45.0494 132.976C45.0934 133.029 45.1549 133.09 45.2252 133.099C45.3218 133.099 45.3833 133.002 45.4185 132.923C45.8842 131.93 45.9105 130.788 45.9281 129.69C45.9457 128.609 45.9632 127.511 45.7348 126.456C45.5239 125.516 45.1197 124.637 44.7243 123.759C43.5557 121.202 42.387 118.636 40.8932 116.255C40.4188 115.499 39.9003 114.743 39.1886 114.199C38.6614 113.803 36.9919 113.012 36.4295 113.75C36.0517 114.234 36.6668 115.561 36.9655 116.009Z" fill="#7089C2"/>
</g>
<path d="M233.589 87.7979L235.445 88.24L218.576 159.064L216.72 158.622L233.589 87.7979Z" fill="#6683C2"/>
<path d="M229.839 87.0298L231.695 87.4719L214.391 160.126L212.535 159.684L229.839 87.0298Z" fill="#6683C2"/>
<path d="M191.876 49.2016L193.156 47.7869L230.958 81.9943L229.677 83.409L191.876 49.2016Z" fill="#6683C2"/>
<path d="M190.782 53.3923L192.062 51.9775L229.864 86.1849L228.584 87.5997L190.782 53.3923Z" fill="#6683C2"/>
<path d="M182.885 159.475H221.25V162.454H182.885V159.475Z" fill="#4B67A6"/>
<path d="M186.92 153.518H217.214C219.438 153.518 221.25 155.33 221.25 157.553V159.475H182.885V157.553C182.885 155.33 184.697 153.518 186.92 153.518Z" fill="#8FA9E2"/>
<path d="M179.749 46.9814L180.703 45.3291L192.067 51.8903L191.113 53.5426L179.749 46.9814Z" fill="#6683C2"/>
<path d="M225.728 87.5079L228.419 91.2415C228.803 91.7905 229.531 91.9553 230.134 91.6533L235.79 88.7707C236.531 88.3864 236.764 87.4393 236.27 86.7667L231.974 80.8918C231.452 80.178 230.382 80.1506 229.833 80.8369L225.783 85.8608C225.385 86.3412 225.371 87.0138 225.728 87.5079Z" fill="#4B67A6"/>
<path d="M234.585 87.4255C234.585 87.7687 234.859 88.0432 235.203 88.0432C235.546 88.0432 235.82 87.7687 235.82 87.4255C235.82 87.0824 235.546 86.8079 235.203 86.8079C234.859 86.8079 234.585 87.0824 234.585 87.4255Z" fill="white"/>
<path d="M228.812 90.3901C228.812 90.7333 229.086 91.0078 229.429 91.0078C229.772 91.0078 230.047 90.7333 230.047 90.3901C230.047 90.047 229.772 89.7725 229.429 89.7725C229.086 89.7725 228.812 90.047 228.812 90.3901Z" fill="white"/>
<path d="M226.21 86.6707C226.21 87.0138 226.484 87.2884 226.828 87.2884C227.171 87.2884 227.445 87.0138 227.445 86.6707C227.445 86.3275 227.171 86.053 226.828 86.053C226.498 86.053 226.21 86.3275 226.21 86.6707Z" fill="white"/>
<path d="M195.505 48.47L193.625 56.0332C193.419 56.8568 192.403 57.1451 191.799 56.5548L186.185 51.1466C185.581 50.5564 185.828 49.5407 186.638 49.3073L194.119 47.1523C194.942 46.9052 195.711 47.6464 195.505 48.47Z" fill="#4B67A6"/>
<path d="M191.814 55.4293C192.006 55.7175 192.39 55.7999 192.678 55.6077C192.967 55.4155 193.049 55.0312 192.857 54.7429C192.665 54.4547 192.28 54.3723 191.992 54.5645C191.704 54.7567 191.635 55.141 191.814 55.4293Z" fill="white"/>
<path d="M193.564 48.813C193.756 49.1013 194.14 49.1837 194.428 48.9915C194.717 48.7993 194.799 48.415 194.607 48.1267C194.415 47.8385 194.03 47.7561 193.742 47.9483C193.454 48.1405 193.372 48.5248 193.564 48.813Z" fill="white"/>
<path d="M186.861 50.8582C187.053 51.1465 187.437 51.2288 187.725 51.0367C188.014 50.8445 188.096 50.4601 187.904 50.1719C187.712 49.8836 187.327 49.8013 187.039 49.9934C186.751 50.1856 186.668 50.57 186.861 50.8582Z" fill="white"/>
<path d="M230.218 81.5645C230.218 81.9076 230.492 82.1822 230.835 82.1822C231.179 82.1822 231.453 81.9076 231.453 81.5645C231.453 81.2213 231.179 80.9468 230.835 80.9468C230.492 80.9468 230.218 81.2213 230.218 81.5645Z" fill="white"/>
<path d="M167.493 49.225L179.846 51.8605L183.47 34.9359C183.662 34.0574 183.1 33.1789 182.207 33.0005L173.052 31.0376C172.173 30.8454 171.295 31.4082 171.116 32.3004L167.493 49.225Z" fill="#6683C2"/>
<path d="M169.011 41.9612L181.414 44.6145L180.711 47.9031L168.308 45.2498L169.011 41.9612Z" fill="#4B67A6"/>
<path d="M153 57.3376L188.469 64.9282L180.7 47.8938L168.346 45.2446L153 57.3376Z" fill="#6683C2"/>
<path opacity="0.1" d="M174.344 46.5346L168.345 45.2581L152.999 57.351C152.999 57.351 165.82 60.1786 171.008 61.2493" fill="black"/>
<path opacity="0.1" d="M168.282 45.2308L174.322 46.5211L177.438 32.0123L172.963 31.0515C172.098 30.873 171.247 31.4221 171.068 32.2868L168.282 45.2308Z" fill="black"/>
</g>
<defs>
<clipPath id="clip0_2021_176">
<rect width="236" height="172" fill="white"/>
</clipPath>
</defs>
</svg>
