<svg width="127" height="137" viewBox="0 0 127 137" fill="none" xmlns="http://www.w3.org/2000/svg">
<g clip-path="url(#clip0_1324_6246)">
<path d="M85.6133 108.952L87.8987 111.238L90.5707 113.896L91.6003 114.933L96.9316 109.598L90.9538 103.611L85.6133 108.952Z" fill="#475D8D"/>
<path d="M102.367 109.562L120.764 127.959C122.148 129.34 123.007 131.255 123.002 133.362C123.002 135.473 122.148 137.387 120.764 138.773C119.384 140.151 117.473 141.002 115.362 141.002C114.359 141.004 113.365 140.807 112.438 140.424C111.511 140.041 110.668 139.478 109.959 138.768L91.5625 120.37L102.367 109.562Z" fill="#F2C45B"/>
<path d="M99.832 112.105L101.327 110.607L119.727 129.007C120.888 130.17 121.527 131.716 121.526 133.361C121.526 135.012 120.885 136.561 119.727 137.725C119.526 137.92 119.257 138.03 118.977 138.031C118.695 138.031 118.425 137.92 118.225 137.722C117.815 137.307 117.815 136.642 118.225 136.23C118.992 135.466 119.411 134.442 119.411 133.359C119.414 132.828 119.31 132.302 119.108 131.812C118.905 131.322 118.607 130.877 118.23 130.503L99.832 112.105Z" fill="#FFEAB5"/>
<path d="M99.6709 107.969C100.022 107.968 100.371 108.037 100.695 108.172C101.02 108.307 101.314 108.504 101.562 108.754L102.367 109.562L91.5625 120.369L90.752 119.556C90.5033 119.309 90.3054 119.016 90.1709 118.692C90.0363 118.369 89.9673 118.021 89.9678 117.671C89.9666 117.32 90.0353 116.971 90.1699 116.646C90.3045 116.322 90.5026 116.028 90.752 115.78L97.7783 108.75C98.26 108.264 98.9269 107.969 99.6709 107.969ZM64.5439 48C83.6233 48.0002 99.0879 63.4692 99.0879 82.542C99.0876 101.621 83.6213 117.086 64.5439 117.091C45.4664 117.086 30.0002 101.621 30 82.542C30 63.4681 45.4663 48 64.5439 48ZM64.5469 51.7402C47.5359 51.7407 33.7423 65.5339 33.7422 82.541C33.7422 99.5568 47.5359 113.348 64.5469 113.348C81.5552 113.348 95.3505 99.5571 95.3506 82.541C95.3506 65.5346 81.5556 51.7402 64.5469 51.7402Z" fill="#6683C2"/>
<path d="M64.5469 51.7393C81.5556 51.7393 95.3506 65.5346 95.3506 82.541C95.3505 99.5571 81.5552 113.348 64.5469 113.348C47.5359 113.348 33.7422 99.5568 33.7422 82.541C33.7423 65.5339 47.5359 51.7397 64.5469 51.7393ZM64.542 54.2051C48.8946 54.2053 36.2034 66.897 36.2031 82.541C36.2031 98.196 48.8912 110.882 64.542 110.882C80.1902 110.882 92.8799 98.197 92.8799 82.541C92.8796 66.8968 80.1895 54.2051 64.542 54.2051Z" fill="#A6B9E4"/>
<path d="M64.5424 110.882C80.1906 110.882 92.8802 98.1975 92.8802 82.5415C92.8802 66.8971 80.1901 54.2046 64.5424 54.2046C48.8947 54.2046 36.2031 66.8971 36.2031 82.5415C36.2031 98.1966 48.8914 110.882 64.5424 110.882Z" fill="#CEE2F2" fill-opacity="0.39"/>
<path d="M65.2895 58.8567C64.8069 58.1407 63.9773 57.6924 63.0644 57.7443C59.1526 57.9819 55.4558 59.0836 52.0776 61.045C50.8881 61.7407 50.4802 63.2738 51.1731 64.4688C51.8659 65.649 53.401 66.0689 54.5868 65.3667C57.2815 63.8122 60.2311 62.929 63.3579 62.7385C64.7315 62.6669 65.7882 61.482 65.703 60.1093C65.6872 59.6336 65.5277 59.2058 65.2895 58.8567ZM49.2442 67.0725C49.1113 66.8731 48.9378 66.688 48.7476 66.5303C47.6748 65.6528 46.1018 65.8235 45.2344 66.8954C42.6816 70.0295 40.9247 73.7898 40.1491 77.7916C39.2316 82.5446 39.7115 87.4108 41.5339 91.8699C42.0651 93.1552 43.527 93.7588 44.8021 93.2333C46.0809 92.7153 46.6901 91.2588 46.1664 89.9735C44.7133 86.4176 44.3362 82.5342 45.0742 78.7407C45.6778 75.5461 47.0812 72.5468 49.1175 70.0455C49.8255 69.1747 49.8442 67.9528 49.2442 67.0725Z" fill="white"/>
</g>
<defs>
<clipPath id="clip0_1324_6246">
<rect width="127" height="137" fill="white"/>
</clipPath>
</defs>
</svg>
