<svg width="125" height="120" viewBox="0 0 125 120" fill="none" xmlns="http://www.w3.org/2000/svg">
<g clip-path="url(#clip0_422_2205)">
<path d="M126.325 5.64416L0.978511 110.916C-0.970561 112.553 0.187283 115.731 2.7329 115.731H11.6168L13.5906 114.158L15.5645 115.731H18.5209L21.0448 114.158L22.4686 115.731H25.4251L27.6276 114.158L29.373 115.731H32.3292L34.6411 114.158L36.2769 115.731H39.2334L41.2072 114.403L43.1811 115.731H46.1375L48.1113 114.158L50.0852 115.731H53.0416L55.0155 114.158L56.9893 115.731H59.9458L61.587 114.527L63.8935 115.731H66.8499L68.8238 114.158L70.7976 115.731H73.7541L75.7279 114.403L77.7018 115.731H80.6582L82.6321 114.158L84.6059 115.731H87.5624L89.8862 114.403L91.5101 115.731H94.4665L96.715 114.527L98.4142 115.731H101.371L103.344 114.527L105.318 115.731H108.275L110.249 114.403L112.222 115.731H115.179L116.832 114.527L119.127 115.731H122.083L124.338 114.158L126.031 115.731H128.079C129.585 115.731 130.807 114.51 130.807 113.004V7.73208C130.807 5.41506 128.099 4.15388 126.325 5.64416ZM106.259 88.5587C106.259 90.0117 105.08 91.1899 103.627 91.1899H69.8541C67.3977 91.1899 66.2805 88.1238 68.1613 86.5444L101.934 58.1806C103.646 56.7424 106.259 57.9594 106.259 60.1952V88.5587Z" fill="#F8DB87"/>
<path d="M126.324 5.64368L119.097 11.7136V113.004C119.097 113.881 118.68 114.659 118.035 115.158L119.124 115.73H122.085L124.337 114.158L126.029 115.73H128.08C129.585 115.73 130.806 114.509 130.806 113.004V7.73262C130.806 5.41459 128.098 4.15443 126.324 5.64368Z" fill="#F8C52D"/>
<path d="M84.6066 51.6654L61.6924 70.9105C61.3183 71.2247 61.0844 71.6746 61.0421 72.1612C60.9998 72.6479 61.1525 73.1314 61.4668 73.5054L63.7866 76.2658C64.1009 76.6398 64.5509 76.8736 65.0377 76.9159C65.5245 76.9582 66.0081 76.8055 66.3823 76.4913L89.2964 57.2462C89.6705 56.932 89.9044 56.4821 89.9468 55.9954C89.9891 55.5088 89.8363 55.0253 89.522 54.6513L87.202 51.8906C86.8876 51.5168 86.4376 51.283 85.9509 51.2408C85.4642 51.1986 84.9807 51.3513 84.6066 51.6654Z" fill="#BDADA7"/>
<path d="M124.056 109.437C123.797 109.437 123.54 109.488 123.301 109.587C123.061 109.686 122.844 109.832 122.66 110.015C122.477 110.198 122.332 110.416 122.232 110.655C122.133 110.894 122.082 111.151 122.082 111.41V115.731H126.03V111.41C126.03 111.151 125.979 110.895 125.88 110.655C125.781 110.416 125.635 110.198 125.452 110.015C125.269 109.832 125.051 109.686 124.812 109.587C124.572 109.488 124.315 109.437 124.056 109.437Z" fill="#AD9389"/>
<path d="M117.153 109.437C116.894 109.437 116.638 109.488 116.398 109.588C116.159 109.687 115.941 109.832 115.758 110.015C115.574 110.199 115.429 110.416 115.33 110.655C115.231 110.895 115.18 111.151 115.18 111.411V115.731H119.128V111.411C119.128 111.151 119.076 110.895 118.977 110.655C118.878 110.416 118.733 110.198 118.549 110.015C118.366 109.832 118.148 109.687 117.909 109.588C117.669 109.488 117.413 109.437 117.153 109.437ZM110.249 106.805C109.99 106.805 109.733 106.856 109.494 106.955C109.254 107.054 109.037 107.199 108.854 107.383C108.67 107.566 108.525 107.783 108.426 108.023C108.326 108.262 108.275 108.519 108.275 108.778V115.731H112.223V108.778C112.223 108.519 112.172 108.262 112.073 108.023C111.974 107.783 111.829 107.566 111.645 107.383C111.462 107.199 111.244 107.054 111.005 106.955C110.765 106.856 110.509 106.805 110.249 106.805ZM103.345 109.437C103.086 109.437 102.829 109.488 102.59 109.588C102.35 109.687 102.133 109.832 101.949 110.015C101.766 110.199 101.621 110.416 101.521 110.655C101.422 110.895 101.371 111.151 101.371 111.411V115.731H105.319V111.411C105.319 111.151 105.268 110.895 105.169 110.655C105.07 110.416 104.924 110.198 104.741 110.015C104.558 109.832 104.34 109.687 104.101 109.588C103.861 109.488 103.604 109.437 103.345 109.437ZM96.441 109.437C96.1818 109.437 95.9251 109.488 95.6856 109.588C95.4461 109.687 95.2285 109.832 95.0452 110.015C94.8619 110.199 94.7165 110.416 94.6173 110.655C94.5182 110.895 94.4671 111.151 94.4672 111.411V115.731H98.4151V111.411C98.4151 110.887 98.207 110.385 97.8368 110.015C97.4666 109.645 96.9645 109.437 96.441 109.437ZM89.5369 106.805C89.2777 106.805 89.021 106.856 88.7815 106.955C88.542 107.054 88.3244 107.199 88.1411 107.383C87.9578 107.566 87.8124 107.783 87.7132 108.023C87.614 108.262 87.563 108.519 87.563 108.778V115.731H91.511V108.778C91.5109 108.255 91.3029 107.753 90.9327 107.383C90.5625 107.013 90.0604 106.805 89.5369 106.805ZM82.6327 109.437C82.3735 109.437 82.1168 109.488 81.8773 109.588C81.6378 109.687 81.4202 109.832 81.2369 110.015C81.0536 110.199 80.9082 110.416 80.8091 110.655C80.7099 110.895 80.6588 111.151 80.6589 111.411V115.731H84.6068V111.411C84.6068 110.887 84.3988 110.385 84.0285 110.015C83.6583 109.645 83.1563 109.437 82.6327 109.437ZM75.7283 109.437C75.4691 109.437 75.2124 109.488 74.9729 109.588C74.7334 109.687 74.5158 109.832 74.3325 110.015C74.1492 110.199 74.0038 110.416 73.9047 110.655C73.8055 110.895 73.7544 111.151 73.7545 111.411V115.731H77.7024V111.411C77.7024 111.151 77.6514 110.895 77.5522 110.655C77.453 110.416 77.3075 110.198 77.1242 110.015C76.9409 109.832 76.7233 109.687 76.4838 109.588C76.2443 109.488 75.9876 109.437 75.7283 109.437ZM68.8242 106.805C68.565 106.805 68.3083 106.856 68.0688 106.955C67.8293 107.054 67.6117 107.199 67.4284 107.383C67.2451 107.566 67.0997 107.783 67.0005 108.023C66.9013 108.262 66.8503 108.519 66.8503 108.778V115.731H70.7983V108.778C70.7983 108.519 70.7472 108.262 70.648 108.023C70.5488 107.783 70.4034 107.566 70.2201 107.383C70.0368 107.199 69.8191 107.054 69.5796 106.955C69.3401 106.856 69.0834 106.805 68.8242 106.805ZM61.92 109.437C61.6608 109.437 61.4041 109.488 61.1646 109.588C60.9251 109.687 60.7075 109.832 60.5242 110.015C60.341 110.199 60.1956 110.416 60.0964 110.655C59.9972 110.895 59.9462 111.151 59.9462 111.411V115.731H63.8942V111.411C63.8942 111.151 63.8431 110.895 63.7439 110.655C63.6447 110.416 63.4993 110.198 63.3159 110.015C63.1326 109.832 62.915 109.687 62.6755 109.588C62.436 109.488 62.1793 109.437 61.92 109.437ZM55.0159 109.437C54.7567 109.437 54.5 109.488 54.2605 109.588C54.021 109.687 53.8034 109.832 53.6201 110.015C53.4368 110.199 53.2914 110.416 53.1922 110.655C53.093 110.895 53.042 111.151 53.042 111.411V115.731H56.99V111.411C56.9899 110.887 56.7819 110.385 56.4117 110.015C56.0415 109.645 55.5394 109.437 55.0159 109.437ZM48.1118 106.805C47.8525 106.805 47.5959 106.856 47.3564 106.955C47.1169 107.054 46.8993 107.199 46.716 107.383C46.5327 107.566 46.3873 107.783 46.2881 108.023C46.1889 108.262 46.1379 108.519 46.1379 108.778V115.731H50.0859V108.778C50.0858 108.255 49.8778 107.753 49.5076 107.383C49.1374 107.013 48.6353 106.805 48.1118 106.805ZM41.2076 109.437C40.9484 109.437 40.6917 109.488 40.4522 109.588C40.2127 109.687 39.9951 109.832 39.8118 110.015C39.6285 110.199 39.4831 110.416 39.3839 110.655C39.2848 110.895 39.2337 111.151 39.2338 111.411V115.731H43.1817V111.411C43.1817 110.887 42.9736 110.385 42.6034 110.015C42.2332 109.645 41.7311 109.437 41.2076 109.437ZM34.3032 109.437C34.044 109.437 33.7873 109.488 33.5478 109.588C33.3083 109.687 33.0907 109.832 32.9074 110.015C32.7241 110.199 32.5787 110.416 32.4795 110.655C32.3804 110.895 32.3293 111.151 32.3294 111.411V115.731H36.2773V111.411C36.2773 111.151 36.2263 110.895 36.127 110.655C36.0278 110.416 35.8824 110.198 35.6991 110.015C35.5158 109.832 35.2982 109.687 35.0587 109.588C34.8191 109.488 34.5624 109.437 34.3032 109.437ZM27.3993 106.805C27.1401 106.805 26.8834 106.856 26.6439 106.955C26.4044 107.054 26.1868 107.199 26.0035 107.383C25.8202 107.566 25.6748 107.783 25.5757 108.023C25.4765 108.262 25.4254 108.519 25.4255 108.778V115.731H29.3734V108.778C29.3734 108.519 29.3224 108.262 29.2232 108.023C29.124 107.783 28.9785 107.566 28.7952 107.383C28.6119 107.199 28.3943 107.054 28.1548 106.955C27.9153 106.856 27.6586 106.805 27.3993 106.805ZM20.4952 109.437C20.236 109.437 19.9793 109.488 19.7398 109.588C19.5003 109.687 19.2827 109.832 19.0994 110.015C18.9161 110.199 18.7707 110.416 18.6715 110.655C18.5723 110.895 18.5213 111.151 18.5213 111.411V115.731H22.4693V111.411C22.4693 111.151 22.4182 110.895 22.319 110.655C22.2198 110.416 22.0744 110.198 21.8911 110.015C21.7078 109.832 21.4901 109.687 21.2506 109.588C21.0111 109.488 20.7544 109.437 20.4952 109.437ZM13.591 109.437C13.3318 109.437 13.0751 109.488 12.8356 109.588C12.5961 109.687 12.3785 109.832 12.1952 110.015C12.0119 110.199 11.8666 110.416 11.7674 110.655C11.6682 110.895 11.6172 111.151 11.6172 111.411V115.731H15.5651V111.411C15.5651 111.151 15.5141 110.895 15.4149 110.655C15.3157 110.416 15.1702 110.198 14.9869 110.015C14.8036 109.832 14.586 109.687 14.3465 109.588C14.107 109.488 13.8503 109.437 13.591 109.437Z" fill="#BDADA7"/>
<path d="M27.3957 104.202C27.1365 104.202 26.8798 104.151 26.6403 104.052C26.4008 103.953 26.1832 103.807 25.9999 103.624C25.8166 103.441 25.6712 103.223 25.5721 102.984C25.4729 102.744 25.4218 102.488 25.4219 102.229V101.088C25.4219 100.565 25.6298 100.063 26 99.6927C26.3702 99.3226 26.8722 99.1147 27.3957 99.1147C27.9192 99.1147 28.4213 99.3226 28.7915 99.6927C29.1616 100.063 29.3696 100.565 29.3696 101.088V102.229C29.3696 102.488 29.3186 102.744 29.2194 102.984C29.1202 103.223 28.9748 103.441 28.7915 103.624C28.6082 103.807 28.3906 103.953 28.1511 104.052C27.9116 104.151 27.6549 104.202 27.3957 104.202ZM48.1082 104.202C47.8489 104.202 47.5923 104.151 47.3528 104.052C47.1133 103.953 46.8957 103.807 46.7124 103.624C46.5291 103.441 46.3837 103.223 46.2845 102.984C46.1853 102.744 46.1343 102.488 46.1343 102.229V101.088C46.1343 100.565 46.3423 100.063 46.7124 99.6927C47.0826 99.3226 47.5847 99.1147 48.1082 99.1147C48.6317 99.1147 49.1337 99.3226 49.5039 99.6927C49.8741 100.063 50.082 100.565 50.082 101.088V102.229C50.082 102.752 49.8741 103.254 49.5039 103.624C49.1337 103.994 48.6317 104.202 48.1082 104.202ZM68.8206 104.202C68.5614 104.202 68.3047 104.151 68.0652 104.052C67.8257 103.953 67.6081 103.807 67.4248 103.624C67.2415 103.441 67.0961 103.223 66.9969 102.984C66.8977 102.744 66.8467 102.488 66.8467 102.229V101.088C66.8467 100.565 67.0547 100.063 67.4249 99.6927C67.795 99.3226 68.2971 99.1147 68.8206 99.1147C69.3441 99.1147 69.8462 99.3226 70.2163 99.6927C70.5865 100.063 70.7945 100.565 70.7945 101.088V102.229C70.7945 102.488 70.7435 102.744 70.6443 102.984C70.5451 103.223 70.3997 103.441 70.2164 103.624C70.0331 103.807 69.8155 103.953 69.576 104.052C69.3365 104.151 69.0798 104.202 68.8206 104.202ZM89.5333 104.202C89.2741 104.202 89.0174 104.151 88.7779 104.052C88.5384 103.953 88.3208 103.807 88.1375 103.624C87.9542 103.441 87.8088 103.223 87.7096 102.984C87.6104 102.744 87.5594 102.488 87.5594 102.229V101.088C87.5594 100.565 87.7674 100.063 88.1376 99.6927C88.5077 99.3226 89.0098 99.1147 89.5333 99.1147C90.0568 99.1147 90.5588 99.3226 90.929 99.6927C91.2992 100.063 91.5071 100.565 91.5071 101.088V102.229C91.5071 102.752 91.2992 103.254 90.929 103.624C90.5588 103.994 90.0568 104.202 89.5333 104.202ZM110.246 104.202C109.986 104.202 109.73 104.151 109.49 104.052C109.251 103.953 109.033 103.807 108.85 103.624C108.667 103.441 108.521 103.223 108.422 102.984C108.323 102.744 108.272 102.488 108.272 102.229V101.088C108.272 100.565 108.48 100.063 108.85 99.6927C109.22 99.3226 109.722 99.1147 110.246 99.1147C110.769 99.1147 111.271 99.3226 111.641 99.6927C112.012 100.063 112.22 100.565 112.22 101.088V102.229C112.22 102.488 112.169 102.744 112.069 102.984C111.97 103.223 111.825 103.441 111.642 103.624C111.458 103.807 111.241 103.953 111.001 104.052C110.762 104.151 110.505 104.202 110.246 104.202Z" fill="#AD9389"/>
</g>
<defs>
<clipPath id="clip0_422_2205">
<path d="M0 0H115C120.523 0 125 4.47715 125 10V110C125 115.523 120.523 120 115 120H0V0Z" fill="white"/>
</clipPath>
</defs>
</svg>
