<svg width="102" height="90" viewBox="0 0 102 90" fill="none" xmlns="http://www.w3.org/2000/svg">
<g clip-path="url(#clip0_2006_7624)">
<path d="M80.9545 63.0441C80.9545 78.5046 68.4143 90.9588 53.0397 90.9588C37.5793 90.9588 25.125 78.4187 25.125 63.0441C25.125 47.5836 37.6652 35.1293 53.0397 35.1293C68.4143 35.0435 80.9545 47.5836 80.9545 63.0441Z" fill="#F2C45B"/>
<path d="M57.1675 18.1228C57.1675 20.4419 55.2778 29.031 53.0447 29.031C50.7256 29.031 48.9219 20.356 48.9219 18.1228C48.9219 15.8037 50.8115 14 53.0447 14C55.2778 14 57.1675 15.8896 57.1675 18.1228Z" fill="#F2C45B"/>
<path d="M34.1482 22.0739C35.2648 24.0494 38.0133 32.4668 36.0378 33.5834C34.0623 34.7 28.1358 28.1722 27.0192 26.1967C25.9026 24.2212 26.5897 21.7303 28.5652 20.5279C30.4548 19.4113 33.0316 20.0984 34.1482 22.0739Z" fill="#F2C45B"/>
<path d="M16.1958 37.019C18.1713 38.1356 24.6991 44.0621 23.5825 46.0376C22.4659 48.0131 14.0486 45.2646 12.073 44.148C10.0975 43.0314 9.41041 40.4547 10.527 38.4791C11.7295 36.5036 14.2203 35.8165 16.1958 37.019Z" fill="#F2C45B"/>
<path d="M8.12279 58.9213C10.4419 58.9213 19.031 60.8109 19.031 63.0441C19.031 65.3631 10.356 67.1669 8.12279 67.1669C5.80372 67.1669 4 65.2772 4 63.0441C4 60.725 5.88961 58.9213 8.12279 58.9213Z" fill="#F2C45B"/>
<path d="M12.073 81.8544C14.0486 80.7378 22.4659 77.9892 23.5825 79.9647C24.6991 81.9402 18.1713 87.8668 16.1958 88.9834C14.2203 90.0999 11.7295 89.4128 10.527 87.4373C9.41041 85.5477 10.0975 83.0568 12.073 81.8544Z" fill="#F2C45B"/>
<path d="M89.8033 89.069C87.8278 87.9525 81.3 82.0259 82.4166 80.0504C83.5332 78.0749 91.9506 80.8235 93.9261 81.94C95.9016 83.0566 96.5887 85.6334 95.4721 87.6089C94.2696 89.4985 91.7788 90.1856 89.8033 89.069Z" fill="#F2C45B"/>
<path d="M97.877 67.1669C95.5579 67.1669 86.9688 65.2772 86.9688 63.0441C86.9688 60.725 95.6438 58.9213 97.877 58.9213C100.196 58.9213 102 60.8109 102 63.0441C102 65.2772 100.196 67.1669 97.877 67.1669Z" fill="#F2C45B"/>
<path d="M93.9261 44.1479C91.9506 45.2645 83.5332 48.0131 82.4166 46.0376C81.3 44.062 87.8278 38.1355 89.8033 37.0189C91.7788 35.9024 94.2696 36.5895 95.4721 38.565C96.5887 40.4546 95.9016 43.0313 93.9261 44.1479Z" fill="#F2C45B"/>
<path d="M79.0732 26.1967C77.9566 28.1722 72.0301 34.7 70.0546 33.5834C68.0791 32.4668 70.8276 24.0494 71.9442 22.0739C73.0608 20.0984 75.6375 19.4113 77.613 20.5279C79.5026 21.7303 80.1898 24.2212 79.0732 26.1967Z" fill="#F2C45B"/>
</g>
<defs>
<clipPath id="clip0_2006_7624">
<rect width="102" height="90" fill="white"/>
</clipPath>
</defs>
</svg>
