<svg width="119" height="100" viewBox="0 0 119 100" fill="none" xmlns="http://www.w3.org/2000/svg">
<g clip-path="url(#clip0_1344_8845)">
<path d="M75.1914 77.1598L77.7472 79.7166L80.7351 82.689L81.8865 83.8486L87.8483 77.8826L81.1635 71.1875L75.1914 77.1598Z" fill="#475D8D"/>
<path d="M93.9255 77.8428L114.499 98.4153C116.047 99.9586 117.007 102.101 117.001 104.457C117.001 106.818 116.047 108.958 114.499 110.508C112.956 112.049 110.818 113 108.458 113C107.336 113.002 106.225 112.783 105.188 112.354C104.151 111.926 103.209 111.296 102.416 110.502L81.8438 89.9278L93.9255 77.8428Z" fill="#F2C45B"/>
<path d="M91.0898 80.6862L92.7616 79.0112L113.337 99.5868C114.636 100.887 115.351 102.616 115.35 104.456C115.35 106.302 114.633 108.034 113.337 109.336C113.112 109.554 112.812 109.676 112.499 109.678C112.184 109.678 111.881 109.554 111.657 109.333C111.199 108.868 111.199 108.125 111.657 107.664C112.515 106.809 112.985 105.664 112.985 104.453C112.987 103.86 112.872 103.272 112.645 102.724C112.418 102.175 112.085 101.678 111.664 101.26L91.0898 80.6862Z" fill="#FFEAB5"/>
<path d="M90.9102 76.0605C91.3031 76.0594 91.6927 76.1365 92.0557 76.2871C92.4186 76.4378 92.7478 76.6595 93.0244 76.9385L93.9258 77.8418L81.8428 89.9277L80.9365 89.0186C80.6583 88.7426 80.4376 88.4136 80.2871 88.0518C80.1367 87.69 80.0591 87.3019 80.0596 86.9102C80.0583 86.5172 80.1356 86.1276 80.2861 85.7646C80.4366 85.4019 80.6577 85.0725 80.9365 84.7959L88.7939 76.9346C89.3326 76.3913 90.0783 76.0606 90.9102 76.0605ZM51.6289 9C72.9645 9.00012 90.2585 26.2977 90.2588 47.626C90.2588 68.9618 72.9626 86.2565 51.6289 86.2617C30.2951 86.2566 13 68.9612 13 47.626C13.0003 26.2966 30.2952 9 51.6289 9ZM51.6318 13.1826C32.6091 13.183 17.1837 28.6075 17.1836 47.626C17.1836 66.6541 32.609 82.0752 51.6318 82.0752C70.6514 82.075 86.078 66.6543 86.0781 47.626C86.0781 28.6085 70.6519 13.1828 51.6318 13.1826Z" fill="#6683C2"/>
<path d="M51.6357 13.1816C70.6558 13.1818 86.082 28.6085 86.082 47.626C86.0819 66.6543 70.6553 82.075 51.6357 82.0752C32.6129 82.0752 17.1875 66.6541 17.1875 47.626C17.1876 28.6075 32.613 13.182 51.6357 13.1816ZM51.6279 15.9385C34.1299 15.9386 19.9375 30.1325 19.9375 47.627C19.9377 65.1332 34.1264 79.3182 51.6279 79.3184C69.1266 79.3184 83.3171 65.1343 83.3174 47.627C83.3174 30.1324 69.1261 15.9385 51.6279 15.9385Z" fill="#A6B9E4"/>
<path d="M51.6282 79.3188C69.127 79.3188 83.3172 65.134 83.3172 47.6265C83.3172 30.132 69.1264 15.9385 51.6282 15.9385C34.13 15.9385 19.9375 30.132 19.9375 47.6265C19.9375 65.133 34.1263 79.3188 51.6282 79.3188Z" fill="#CEE2F2" fill-opacity="0.39"/>
<path d="M52.4648 21.1406C51.9251 20.3399 50.9974 19.8386 49.9765 19.8967C45.6021 20.1623 41.4681 21.3943 37.6903 23.5877C36.3602 24.3657 35.904 26.08 36.679 27.4164C37.4537 28.7361 39.1703 29.2058 40.4963 28.4205C43.5097 26.6821 46.8081 25.6945 50.3047 25.4814C51.8408 25.4014 53.0224 24.0764 52.9271 22.5414C52.9094 22.0094 52.7311 21.531 52.4648 21.1406ZM34.5219 30.328C34.3733 30.105 34.1793 29.898 33.9666 29.7217C32.7669 28.7404 31.0078 28.9313 30.0379 30.13C27.1832 33.6347 25.2185 37.8397 24.3512 42.3148C23.3252 47.6298 23.8618 53.0716 25.8998 58.0579C26.4938 59.4953 28.1285 60.1703 29.5545 59.5826C30.9845 59.0033 31.6658 57.3746 31.0802 55.9373C29.4551 51.9609 29.0335 47.6182 29.8588 43.3761C30.5338 39.8037 32.1031 36.4497 34.3802 33.6526C35.172 32.6788 35.1929 31.3124 34.5219 30.328Z" fill="white"/>
</g>
<defs>
<clipPath id="clip0_1344_8845">
<rect width="119" height="100" fill="white"/>
</clipPath>
</defs>
</svg>
