<svg width="210" height="100" viewBox="0 0 210 100" fill="none" xmlns="http://www.w3.org/2000/svg">
<g clip-path="url(#clip0_2022_424)">
<path d="M99.6725 91.3817C97.4968 88.0637 95.5541 84.4504 93.5804 81.1557C92.7801 79.8269 91.9875 78.4438 91.6611 76.9751C90.853 73.3774 92.8267 70.8753 96.0126 72.1963C99.0897 73.4784 100.543 77.1616 102.237 80.06C104.288 83.5956 107.016 88.4445 107.746 92.3764C108.088 94.2102 107.723 96.1606 106.433 96.9299C105.873 97.264 105.151 97.3573 104.451 97.0542C103.76 96.7512 103.177 96.114 102.656 95.4768C101.592 94.2024 100.613 92.8193 99.6725 91.3817Z" fill="#E9B49C"/>
<path d="M105.695 82.406C105.695 82.406 95.547 88.7079 94.7078 89.1897C94.4902 89.314 91.6384 84.3642 91.4286 84.0378C90.8303 83.0976 90.2553 82.1107 89.8123 81.0772C89.4393 80.1991 89.5326 79.088 89.5714 78.1322C89.6647 76.0186 90.1231 73.9283 90.9235 71.9701C91.1799 71.3407 91.4752 70.7269 91.8948 70.1985C92.2367 69.7711 92.6563 69.4214 93.0682 69.064C93.1381 69.0018 93.2081 68.9474 93.2935 68.9163C93.4101 68.8775 93.5266 68.9086 93.6432 68.9396C96.5416 69.6778 99.3312 72.1955 100.854 74.6044C102.572 77.3085 105.695 82.406 105.695 82.406Z" fill="#F37E60"/>
<path d="M67.9884 101.064C68.0816 100.046 68.1982 83.3394 68.3458 82.3293C68.8587 78.8092 69.7368 75.0794 72.1534 72.3441C73.1713 71.1941 74.4146 70.2849 75.7667 69.57C76.5204 69.1737 77.3053 68.8318 78.1056 68.5288C79.007 68.1869 80.0793 67.9926 80.903 67.5108C81.5014 67.1689 81.4159 66.322 81.4237 65.7392C81.4392 64.8766 81.548 64.0296 81.5247 63.1671C81.4936 62.1026 81.4858 61.038 81.4314 59.9812C82.6203 59.7558 83.5839 59.6471 84.8505 59.6937C85.8917 59.7325 86.9407 59.6315 87.982 59.6859C88.0675 59.6937 88.1607 59.7015 88.2151 59.7481C88.2773 59.7947 88.285 59.8724 88.2928 59.9501C88.4327 61.3877 88.2928 62.8408 88.4016 64.2783C88.456 65.0087 88.5648 66.9514 89.3807 67.4254C92.5899 68.0548 95.6437 69.4457 97.4154 71.6603C101.612 76.9054 102.21 97.645 101.899 103.76C101.627 109.06 67.1103 110.645 67.9884 101.064Z" fill="#F37E60"/>
<mask id="mask0_2022_424" style="mask-type:luminance" maskUnits="userSpaceOnUse" x="67" y="59" width="35" height="50">
<path d="M67.9884 101.064C68.0816 100.046 68.1982 83.3394 68.3458 82.3293C68.8587 78.8092 69.7368 75.0794 72.1534 72.3441C73.1713 71.1941 74.4146 70.2849 75.7667 69.57C76.5204 69.1737 77.3053 68.8318 78.1056 68.5288C79.007 68.1869 80.0793 67.9926 80.903 67.5108C81.5014 67.1689 81.4159 66.322 81.4237 65.7392C81.4392 64.8766 81.548 64.0296 81.5247 63.1671C81.4936 62.1026 81.4858 61.038 81.4314 59.9812C82.6203 59.7558 83.5839 59.6471 84.8505 59.6937C85.8917 59.7325 86.9407 59.6315 87.982 59.6859C88.0675 59.6937 88.1607 59.7015 88.2151 59.7481C88.2773 59.7947 88.285 59.8724 88.2928 59.9501C88.4327 61.3877 88.2928 62.8408 88.4016 64.2783C88.456 65.0087 88.5648 66.9514 89.3807 67.4254C92.5899 68.0548 95.6437 69.4457 97.4154 71.6603C101.612 76.9054 102.21 97.645 101.899 103.76C101.627 109.06 67.1103 110.645 67.9884 101.064Z" fill="white"/>
</mask>
<g mask="url(#mask0_2022_424)">
<path d="M87.128 70.8827C86.5685 71.1702 85.9547 71.3179 85.3641 71.3179C83.9032 71.3179 82.4501 70.5097 81.4477 69.1266C79.9169 67.013 79.4818 63.5551 80.6707 61.0219C81.0748 60.1516 81.6886 59.4289 82.4268 59.087C83.4992 58.5742 84.7114 58.9005 85.7526 59.4911C87.2446 60.3381 88.5733 61.799 89.2105 63.7494C89.8399 65.6998 89.6612 68.1475 88.5345 69.6861C88.1382 70.2067 87.6486 70.6107 87.128 70.8827Z" fill="#E9B49C"/>
<path d="M96.2386 51.9147C96.1998 49.77 95.8657 47.7342 95.2751 46.0557C92.703 38.7825 83.1997 37.0652 77.5505 42.3414C71.2486 48.2315 73.8517 62.1641 80.6121 67.0051C82.4226 68.3028 84.8626 68.7379 87.0383 68.1629C93.6044 66.4145 96.3552 58.6129 96.2386 51.9147Z" fill="#D4987C"/>
</g>
<path d="M69.8428 89.066C72.8422 86.4629 75.694 83.5101 78.4914 80.8836C79.6181 79.8191 80.7604 78.7079 81.4753 77.3869C83.2314 74.1466 82.0114 71.2016 78.5846 71.6056C75.2744 72.0019 72.8733 75.149 70.4566 77.4879C67.5194 80.3319 63.5719 84.2561 61.808 87.8461C60.9843 89.5167 60.8056 91.4904 61.8313 92.5861C62.2742 93.0601 62.9503 93.3476 63.704 93.2388C64.45 93.1378 65.1804 92.6793 65.8642 92.2053C67.2241 91.2573 68.5451 90.1928 69.8428 89.066Z" fill="#E9B49C"/>
<path d="M63.963 82.4065C63.963 82.4065 71.6792 87.6672 72.3941 88.3199C72.5806 88.4908 77.8412 83.9217 78.1132 83.642C79.3643 82.3754 80.5221 80.9923 81.4001 79.4381C82.3637 77.7519 82.9543 75.7005 82.6978 73.7501C82.4181 71.6288 81.2914 69.5696 80.2812 67.7124C78.1831 68.0698 75.7043 68.8858 73.9404 70.0824C72.9924 70.7274 72.0833 71.8386 71.2674 72.67C69.0139 74.9623 63.963 82.4065 63.963 82.4065Z" fill="#F37E60"/>
<path d="M114.971 77.3323C115.592 77.4722 116.136 77.985 116.385 78.5756C116.983 79.9976 116.261 81.2487 115.67 82.492C114.147 85.709 112.632 89.0814 110.658 92.1119C109.578 93.7748 106.734 98.4526 103.983 96.7354C103.408 96.3779 103.082 95.7252 102.95 95.0802C102.67 93.7048 103.152 92.3217 103.742 91.0784C105.941 86.4782 109.57 82.593 112.717 78.5989C113.183 78.0006 113.743 77.3556 114.528 77.2935C114.675 77.2935 114.831 77.3012 114.971 77.3323Z" fill="#E9B49C"/>
<path d="M115.222 80.1066C114.305 79.788 113.28 79.2363 112.775 78.3738C112.013 77.0606 112.503 75.3977 111.943 74.0145C111.757 73.5561 111.438 73.1364 111.376 72.6314C111.29 71.932 111.99 71.7144 112.549 71.9242C112.876 72.0408 113.233 72.2661 113.466 72.5303C113.777 72.88 113.878 73.3696 113.963 73.8358C114.026 74.1699 114.088 74.5041 114.15 74.8382C114.103 74.5973 114.476 73.082 114.531 72.7168C114.655 71.9242 114.873 71.1472 115.191 70.409C115.424 69.8728 115.79 69.29 116.372 69.2356C116.458 69.2279 116.543 69.2279 116.613 69.2745C116.691 69.3211 116.738 69.4066 116.769 69.4998C116.901 69.865 116.877 70.2613 116.846 70.6499C116.776 71.4735 116.644 73.1287 116.644 73.1287C116.644 73.1287 117.188 72.1263 117.445 71.66C117.794 71.0306 118.082 70.4012 118.509 69.8107C118.641 69.6242 118.781 69.4454 118.937 69.2823C119.17 69.0414 119.512 68.8316 119.815 68.9559C120.001 69.0336 120.126 69.2356 120.164 69.4299C120.203 69.6319 120.172 69.8417 120.133 70.0438C120.048 70.4711 119.916 70.883 119.76 71.2948C119.465 72.0952 118.968 73.6493 118.968 73.6493C118.968 73.6493 119.822 72.9266 120.25 72.5692C120.537 72.3283 120.833 72.0797 121.175 71.9242C121.369 71.8388 121.586 71.7844 121.796 71.8232C122.006 71.8621 122.2 72.0097 122.255 72.2195C122.309 72.4449 122.185 72.678 122.06 72.88C121.423 73.898 119.83 75.7007 119.83 75.7007C119.83 75.7007 121.042 75.0014 121.718 74.8382C121.959 74.776 122.224 74.7449 122.457 74.8226C123.381 75.1102 122.371 76.0193 121.998 76.3457C120.864 77.3481 119.76 78.4282 118.564 79.3529C117.662 80.0445 116.637 80.5418 115.486 80.2076C115.401 80.161 115.316 80.1377 115.222 80.1066Z" fill="#E9B49C"/>
<path d="M83.4434 94.0858C84.034 92.8969 83.2103 91.809 82.1379 91.3816C80.8791 90.8766 79.5892 90.5968 78.2993 90.2394C76.9161 89.8508 75.5252 89.4779 74.1343 89.1437C71.4612 88.5065 68.6716 88.0636 65.8975 88.0015C64.1258 87.9626 61.1342 88.0403 60.8855 90.387C60.8156 91.0475 61.1342 91.7002 61.5693 92.2053C62.5018 93.2699 63.916 93.7672 65.2992 94.0858C70.3889 95.2669 75.8049 94.9172 81.0034 95.0105C81.7805 95.026 82.6508 95.0027 83.1947 94.4432C83.2957 94.3344 83.3812 94.2179 83.4434 94.0858Z" fill="#E9B49C"/>
<path d="M81.708 94.5832C82.4617 94.6609 83.1067 95.2514 83.8682 95.3991C84.4121 95.5001 84.9638 95.3602 85.4534 95.1193C85.9041 94.9017 86.3625 94.7541 86.8288 94.5598C87.1862 94.4044 87.668 94.1014 88.0721 94.148C89.1444 94.2568 90.2634 94.9017 91.258 95.2903C91.4833 95.3757 91.7242 95.469 91.9573 95.3991C92.1904 95.3291 92.3536 95.0261 92.1982 94.8396C92.4935 95.0649 92.9131 95.5389 93.3327 95.298C93.5037 95.197 93.5891 94.9484 93.4726 94.793C93.6435 94.9406 93.8145 95.096 94.0321 95.1582C94.2496 95.2203 94.5216 95.1582 94.6226 94.9561C94.6692 94.8629 94.677 94.7541 94.6693 94.6453C94.6537 94.2801 94.5061 93.9304 94.3196 93.6196C93.4104 92.0655 91.5999 91.0242 90.0613 90.2006C89.7893 90.0529 89.5096 89.9053 89.2066 89.8431C88.9346 89.7887 88.6548 89.812 88.3829 89.8354C86.5957 90.0063 84.8395 90.4725 83.2077 91.2107C82.858 91.3739 82.4384 91.304 82.0732 91.2729C81.8012 91.2496 81.5137 91.2263 81.2573 91.3351C80.9698 91.4516 80.7677 91.7081 80.6123 91.9723C80.3248 92.4618 80.1383 93.099 80.2316 93.6662C80.3093 94.1014 80.387 94.5676 80.9076 94.6065C81.1174 94.622 81.335 94.5754 81.5448 94.5754C81.607 94.5754 81.6536 94.5754 81.708 94.5832Z" fill="#E9B49C"/>
<path d="M99.2847 51.97C100.8 49.8642 101.88 47.2766 102.408 44.4947C103.294 39.8246 102.478 35.4032 100.155 32.3571C97.0701 28.3087 89.9523 27.0499 85.2356 28.4175L85.321 28.7128C87.6444 28.0367 90.5273 28.0212 93.2392 28.6584C96.1609 29.3499 98.531 30.7253 99.9063 32.5359C102.175 35.512 102.976 39.848 102.098 44.4248C101.577 47.16 100.512 49.701 99.0283 51.7757L99.2847 51.97Z" fill="#5D4130"/>
<path d="M71.217 53.8418L71.4578 53.6476C68.2797 49.6691 66.6945 44.4783 67.0908 39.4042C67.1685 38.3862 67.3162 37.5781 67.5493 36.871C68.5439 33.8016 71.9862 31.1752 75.2266 31.012L75.211 30.7012C71.8542 30.8644 68.2797 33.584 67.2462 36.77C67.0053 37.5082 66.8577 38.3318 66.78 39.3809C66.3759 44.525 68 49.8012 71.217 53.8418Z" fill="#5D4130"/>
<path d="M93.9278 58.7451C92.77 59.3668 91.6044 59.9729 90.6409 60.8587C89.2577 62.1331 88.3019 63.9747 86.5691 64.6974C85.1782 65.2724 83.5619 64.9926 82.2021 64.3477C80.8422 63.7027 79.6689 62.7314 78.4411 61.8689C76.9103 60.7965 75.263 59.8874 73.8487 58.6674C68.8989 54.4092 67.3059 47.4001 67.5546 41.1293C67.5857 40.2978 67.6323 39.4664 67.8343 38.6583C68.6036 35.6355 70.3442 33.2888 74.2683 30.9965C73.8021 30.6313 73.2815 30.6235 72.5899 30.4759C74.416 29.9242 75.9545 29.6444 77.8195 30.0718C79.3269 28.7508 81.0209 27.6474 82.847 26.8237C82.7926 27.1346 82.6527 27.4298 82.4429 27.6707C84.1835 27.1967 86.4137 26.8082 88.4806 26.9325C88.1931 27.0646 87.214 27.9815 86.9265 28.1136C88.0921 28.0826 89.2577 28.2613 90.4077 28.4789C92.3271 28.8363 94.2697 29.2792 95.9714 30.2428C101.022 33.1179 102.631 39.6218 102.087 45.0457C101.799 47.8819 100.945 50.7104 99.6003 53.228C98.8077 54.7044 97.8286 56.1109 96.5232 57.1599C95.715 57.7738 94.8214 58.2633 93.9278 58.7451Z" fill="#5D4130"/>
<path d="M98.5992 49.2111C98.4671 46.1572 97.6745 43.15 95.8873 40.7101C93.898 37.9982 90.7432 36.1876 87.4018 35.838C84.0605 35.4883 80.5948 36.6072 78.085 38.8374C72.5446 43.7795 72.6844 52.1483 75.3575 58.5279C75.6839 59.305 76.0568 60.051 76.492 60.7736C78.5745 64.2315 82.25 66.9357 86.2829 66.9434C89.7097 66.9512 92.95 64.993 95.0325 62.2656C97.1072 59.5381 98.1252 56.1268 98.4904 52.7233C98.5992 51.5655 98.6458 50.3844 98.5992 49.2111Z" fill="#E9B49C"/>
<path d="M86.7914 54.7856C87.587 55.5813 87.8144 56.8316 87.4734 57.1726C87.2322 57.4137 86.7914 57.5136 86.1094 57.1726" stroke="#D4987C" stroke-linecap="round"/>
<path d="M90.9219 60.2415C90.9219 60.2415 89.8142 62.7581 86.8605 62.9129C83.9068 63.0677 83.3757 60.2664 83.3757 60.2664C85.9754 61.1403 88.2261 61.32 90.9219 60.2415Z" fill="#F1F2F2"/>
<path d="M73.8892 52.2335C70.4701 50.8115 69.5299 54.689 70.1671 56.5928C70.4313 57.3776 70.8276 58.1391 71.4415 58.7685C72.2651 59.6233 74.6041 61.0064 75.9095 60.0118C76.5001 59.5611 76.5389 58.8151 76.5389 58.1624C76.5467 56.383 76.2126 53.197 73.8892 52.2335Z" fill="#E9B49C"/>
<path d="M97.821 50.6252C100.44 48.9545 101.419 52.7465 101.038 54.6891C100.883 55.4895 100.611 56.2743 100.16 56.9581C99.5616 57.8673 97.7977 59.4292 96.7098 58.5356C96.2125 58.1315 96.1348 57.3933 96.0959 56.7328C95.9794 54.9611 96.0493 51.7597 97.821 50.6252Z" fill="#E9B49C"/>
<path d="M95.1935 48.084C95.3567 48.2549 95.5199 48.4259 95.6908 48.5891C96.328 49.2029 97.1672 49.7857 97.2993 50.6638C97.478 51.7983 97.3226 51.3165 97.4392 53.2125C98.9389 50.3608 101.441 41.7976 100.571 40.1736C99.716 38.5728 98.1619 37.4694 96.5611 36.6147C92.8779 34.6643 88.6274 33.7784 84.4779 34.1747C80.3285 34.571 76.2956 36.2495 73.1407 38.9769C72.0995 39.8783 73.739 53.7876 74.4306 54.6112C74.4928 52.1868 74.4695 52.4122 74.8502 50.3374C74.9124 50.0033 76.5675 45.2711 76.9949 43.9423C77.1425 44.6805 77.5621 45.9005 77.7098 46.6387C78.9531 44.8981 80.7636 42.3027 81.0744 40.1891C81.7971 41.5645 84.1593 43.7713 86.6925 45.1234C86.6226 43.9656 86.4905 42.699 86.7081 41.7588C87.8737 43.4528 90.1427 45.5197 92.163 46.1491C91.9765 45.1312 92.0309 44.0822 92.3184 43.0875C92.8934 44.9447 93.8803 46.662 95.1935 48.084Z" fill="#D4987C"/>
<path d="M95.1382 46.9651C95.3014 47.1361 95.4646 47.307 95.6355 47.4702C96.2727 48.0841 97.1119 48.6669 97.244 49.545C97.4227 50.6795 97.3373 51.3244 97.4461 53.2204C98.9458 50.3686 100.749 47.6256 101.184 44.4397C101.432 42.6214 101.378 40.6788 100.508 39.0625C99.6529 37.4618 98.0988 36.3583 96.4981 35.5036C92.8148 33.5532 88.5643 32.6673 84.4149 33.0636C80.2654 33.4599 76.2325 35.1384 73.0776 37.8658C72.0364 38.7672 71.0728 39.7929 70.4978 41.044C70.1248 41.8599 69.9306 42.769 69.9927 43.6627C70.0627 44.5796 70.4823 45.4732 70.7698 46.3435C71.407 48.2939 72.0752 50.2132 72.9145 52.0859C73.2952 52.9485 73.7459 53.7954 74.4297 54.6191C74.4919 52.1947 74.4064 51.2933 74.7872 49.2186C74.8493 48.8845 76.5044 44.1522 76.9318 42.8234C77.0795 43.5616 77.4991 44.7816 77.6467 45.5198C78.89 43.7792 80.7005 41.1839 81.0114 39.0703C81.734 40.4457 84.0963 42.6525 86.6295 44.0046C86.5595 42.8467 86.4274 41.5802 86.645 40.6399C87.8106 42.3339 90.0796 44.4009 92.0999 45.0303C91.9134 44.0123 91.9678 42.9633 92.2553 41.9687C92.8303 43.8258 93.825 45.5431 95.1382 46.9651Z" fill="#5D4130"/>
<path d="M94.4815 49.5837C94.5902 49.5682 94.6913 49.5371 94.7845 49.4983C95.5616 49.1563 94.6369 48.4181 94.2406 48.2394C93.549 47.9208 92.7098 47.7887 91.956 47.7421C91.5675 47.7188 89.6715 47.7965 90.231 48.659C90.6273 49.2729 91.9016 49.3817 92.5466 49.4749C93.1527 49.5604 93.8598 49.6925 94.4815 49.5837Z" fill="#5D4130"/>
<path d="M77.6878 50.5863C77.579 50.5785 77.4702 50.563 77.377 50.5319C76.5611 50.2832 77.4003 49.444 77.7655 49.2187C78.4182 48.8224 79.2264 48.5892 79.9801 48.4571C80.3609 48.3872 82.2569 48.2396 81.8062 49.1643C81.4876 49.817 80.2365 50.0812 79.6071 50.2521C79.001 50.3998 78.3094 50.6174 77.6878 50.5863Z" fill="#5D4130"/>
<path d="M92.9419 53.2359C92.8953 54.2072 92.3747 54.9687 91.7841 54.9454C91.1936 54.9143 90.7507 54.1062 90.7973 53.1348C90.8439 52.1635 91.3645 51.402 91.9551 51.4253C92.5457 51.4486 92.9886 52.2645 92.9419 53.2359Z" fill="#252B30"/>
<path d="M81.7558 53.6554C81.9345 54.6112 81.6081 55.4737 81.0253 55.5825C80.4426 55.6913 79.8287 54.9997 79.65 54.0439C79.4712 53.0882 79.7976 52.2256 80.3804 52.1168C80.9632 52.0081 81.5771 52.6919 81.7558 53.6554Z" fill="#252B30"/>
<path d="M99.5642 52.0776C99.2767 52.1398 99.0125 52.303 98.7872 52.505C98.5618 52.7071 98.3831 52.9479 98.2277 53.2121C98.0723 53.4686 97.948 53.7405 97.8469 54.0203C97.7926 54.1601 97.7459 54.3 97.7071 54.4477C97.6682 54.5953 97.6294 54.7352 97.5983 54.8906L97.4662 55.5899L97.878 54.9994C98.0801 54.7118 98.4064 54.4399 98.6939 54.5331C98.8416 54.572 98.9737 54.6963 99.0902 54.8362C99.1446 54.9061 99.199 54.9916 99.2456 55.0615C99.2923 55.1392 99.3234 55.2169 99.3467 55.3024C99.3933 55.4734 99.3855 55.6521 99.3311 55.8308C99.2767 56.0095 99.1913 56.1727 99.0747 56.3359C98.9659 56.4913 98.8338 56.6389 98.6939 56.7788C98.5541 56.9187 98.4064 57.0508 98.2432 57.1673C98.6007 56.9886 98.9348 56.7477 99.2068 56.4369C99.3389 56.2815 99.4632 56.1028 99.5409 55.9007C99.6186 55.6987 99.6497 55.4656 99.6031 55.248C99.5798 55.1392 99.5409 55.0304 99.4943 54.9294C99.4399 54.8284 99.3855 54.7429 99.3233 54.6575C99.199 54.4865 99.0281 54.3156 98.7872 54.2378C98.6706 54.199 98.5385 54.199 98.4142 54.2223C98.2899 54.2456 98.1811 54.3 98.0878 54.3622C97.9946 54.4243 97.9091 54.502 97.8314 54.5798C97.7537 54.6575 97.6915 54.7352 97.6216 54.8362L97.9013 54.945C97.9247 54.8129 97.9557 54.6652 97.9946 54.5331C98.0257 54.3933 98.0645 54.2534 98.1111 54.1213C98.1966 53.8493 98.2976 53.5851 98.4297 53.3287C98.5541 53.0723 98.7017 52.8314 98.8882 52.6138C99.0747 52.3885 99.3 52.202 99.5642 52.0776Z" fill="#D4987C"/>
<path d="M71.3834 53.7717C71.5388 53.8106 71.6942 53.865 71.8341 53.9271C71.974 53.9971 72.1139 54.067 72.246 54.1525C72.3781 54.238 72.5024 54.339 72.6112 54.44C72.7277 54.5488 72.8365 54.6576 72.9375 54.7741C73.1396 55.015 73.3183 55.2714 73.4737 55.5356C73.5514 55.6677 73.6213 55.8076 73.6913 55.9475C73.7612 56.0874 73.8234 56.235 73.8778 56.3749L74.1264 56.2117C74.0332 56.1184 73.9399 56.0563 73.8389 55.9863C73.7379 55.9242 73.6291 55.862 73.5125 55.8154C73.2794 55.7299 73.0152 55.6911 72.7588 55.7532C72.5024 55.8232 72.2848 55.9863 72.1372 56.1728C72.0595 56.2661 71.9973 56.3671 71.9351 56.4681C71.873 56.5769 71.8263 56.6935 71.7953 56.8256C71.772 56.9499 71.7719 57.0897 71.803 57.2141C71.8341 57.3384 71.8885 57.455 71.9507 57.5638C72.0828 57.7736 72.2693 57.929 72.4558 58.0611C72.8365 58.3253 73.2639 58.504 73.699 58.6205C73.497 58.5273 73.295 58.4185 73.1007 58.3097C72.9065 58.1932 72.7277 58.0688 72.5568 57.929C72.3936 57.7891 72.2382 57.6259 72.1372 57.4472C72.0362 57.2685 72.0051 57.0742 72.0517 56.8877C72.075 56.7945 72.1139 56.7012 72.1683 56.6158C72.2226 56.5303 72.2848 56.437 72.3547 56.3671C72.4868 56.2117 72.65 56.0951 72.8365 56.0485C73.0152 56.0019 73.2173 56.0252 73.4038 56.1029C73.497 56.1417 73.5903 56.1884 73.6757 56.2428C73.7612 56.2972 73.8545 56.3671 73.9166 56.4293L74.3906 56.8644L74.1653 56.2738C74.1031 56.1107 74.0332 55.963 73.9632 55.8154C73.8855 55.6677 73.8078 55.5279 73.7146 55.388C73.5436 55.1083 73.3338 54.8518 73.1007 54.6109C72.8676 54.3778 72.6034 54.1758 72.3159 54.0204C72.1682 53.9427 72.0206 53.8805 71.8574 53.8417C71.702 53.8028 71.5466 53.7795 71.3834 53.7717Z" fill="#D4987C"/>
<path d="M101.117 85.2425C101.008 84.0692 100.853 82.8958 100.659 81.7302L100.589 81.2951L100.511 80.8599L100.433 80.4248L100.348 79.9896C100.294 79.7021 100.231 79.4069 100.161 79.1193C100.099 78.8318 100.037 78.5443 99.9594 78.2568C99.8894 77.9693 99.8195 77.6818 99.734 77.3943C99.6563 77.1068 99.5786 76.8193 99.4931 76.5395L99.361 76.1121C99.3144 75.9723 99.2678 75.8324 99.2212 75.6925L99.0813 75.2729L98.9259 74.8533C98.514 73.7421 98.0245 72.6543 97.4029 71.6519C97.9002 72.7242 98.3276 73.8198 98.6928 74.9388L98.8326 75.3584L98.9647 75.778C99.0036 75.9179 99.0502 76.0578 99.0891 76.1976L99.2056 76.625C99.2911 76.9047 99.361 77.1923 99.4388 77.472C99.5165 77.7517 99.5864 78.0392 99.6563 78.3268C99.7263 78.6143 99.7962 78.9018 99.8584 79.1815L99.9594 79.6089L100.053 80.044L100.146 80.4714L100.239 80.9066L100.418 81.7691L101.117 85.2425Z" fill="#F37E60"/>
<path d="M97.9963 89.9717H121.656V94.5995H97.9963V89.9717Z" fill="#8FA9E4"/>
<path d="M117.588 90.4212L123.564 60.0188C123.717 59.2117 124.422 58.6396 125.239 58.6396H164.938C165.51 58.6396 166.001 58.9257 166.317 59.3445H166.328L168.156 61.5103L166.532 61.1528L160.648 91.0853C160.494 91.8923 159.789 92.4644 158.972 92.4644H119.273C118.19 92.4644 117.383 91.4735 117.588 90.4212Z" fill="#8FA9E4"/>
<path d="M160.782 94.5997H121.083C120.001 94.5997 119.194 93.6189 119.408 92.5565L125.384 62.154C125.538 61.347 126.242 60.7749 127.06 60.7749H166.759C167.842 60.7749 168.649 61.7556 168.434 62.8181L162.458 93.2205C162.305 94.0276 161.61 94.5997 160.782 94.5997Z" fill="#6683C2"/>
<path d="M148.299 76.9364C147.931 78.9898 145.969 80.6448 143.926 80.6448C141.883 80.6448 140.535 78.9796 140.933 76.9364C141.331 74.883 143.293 73.2281 145.305 73.2281C147.328 73.2179 148.666 74.883 148.299 76.9364Z" fill="#8FA9E4"/>
<path d="M41.9055 94.64H47.7796C49.4141 94.64 50.7422 93.3119 50.7422 91.6774V77.7429H38.9429V91.6774C38.9429 93.3119 40.2607 94.64 41.9055 94.64Z" fill="#E67F64"/>
<path d="M38.1162 81.564C40.946 81.564 43.2344 83.8932 43.2344 86.7638C43.2344 89.6345 40.9358 91.9637 38.1162 91.9637C35.2864 91.9637 32.9981 89.6345 32.9981 86.7638C32.9981 83.8932 35.2864 81.564 38.1162 81.564ZM38.1162 90.1044C39.9347 90.1044 41.416 88.6027 41.416 86.7638C41.416 84.9148 39.9449 83.4233 38.1162 83.4233C36.2978 83.4233 34.8165 84.925 34.8165 86.7638C34.8165 88.6027 36.2978 90.1044 38.1162 90.1044Z" fill="#E67F64"/>
<path opacity="0.2" d="M48.976 88.2249C49.3233 88.2249 49.6094 87.9389 49.6094 87.5915V79.3678C49.6094 79.0204 49.3233 78.7344 48.976 78.7344C48.6286 78.7344 48.3426 79.0204 48.3426 79.3678V87.5915C48.3324 87.9389 48.6184 88.2249 48.976 88.2249Z" fill="white"/>
<path d="M41.6576 77.7429V91.6569C41.6576 93.3119 42.9959 94.64 44.6406 94.64H41.913C40.258 94.64 38.93 93.3017 38.93 91.6569V77.7429H41.6576Z" fill="#C25B40"/>
<path d="M26.9681 101.161H185.484C187.101 101.161 188.406 99.6368 188.406 97.7513C188.406 95.8658 187.101 94.3413 185.484 94.3413H26.9681C25.3508 94.3413 24.0455 95.8658 24.0455 97.7513C24.0455 99.6368 25.359 101.161 26.9681 101.161Z" fill="#DABFA6"/>
<path d="M181.203 49.0704L182.336 49.3403L172.037 92.5816L170.904 92.3117L181.203 49.0704Z" fill="#6683C2"/>
<path d="M178.914 48.6009L180.047 48.8708L169.482 93.2291L168.348 92.9592L178.914 48.6009Z" fill="#6683C2"/>
<path d="M155.734 25.5056L156.516 24.6418L179.595 45.5269L178.813 46.3907L155.734 25.5056Z" fill="#6683C2"/>
<path d="M155.07 28.064L155.852 27.2002L178.931 48.0853L178.149 48.9491L155.07 28.064Z" fill="#6683C2"/>
<path d="M150.248 92.832H173.672V94.6506H150.248V92.832Z" fill="#4B67A6"/>
<path d="M152.712 89.1951H171.208C172.566 89.1951 173.672 90.3013 173.672 91.6589V92.8322H150.248V91.6589C150.248 90.3013 151.355 89.1951 152.712 89.1951Z" fill="#8FA9E2"/>
<path d="M148.332 24.1499L148.914 23.1411L155.852 27.147L155.27 28.1558L148.332 24.1499Z" fill="#6683C2"/>
<path d="M176.404 48.8926L178.047 51.1721C178.282 51.5074 178.726 51.6079 179.094 51.4236L182.547 49.6636C183 49.429 183.142 48.8507 182.841 48.4401L180.217 44.8532C179.899 44.4174 179.245 44.4007 178.91 44.8197L176.438 47.887C176.195 48.1803 176.186 48.5909 176.404 48.8926Z" fill="#4B67A6"/>
<path d="M181.808 48.8427C181.808 49.0522 181.976 49.2198 182.185 49.2198C182.395 49.2198 182.562 49.0522 182.562 48.8427C182.562 48.6332 182.395 48.4656 182.185 48.4656C181.976 48.4656 181.808 48.6332 181.808 48.8427Z" fill="white"/>
<path d="M178.285 50.6528C178.285 50.8623 178.452 51.0299 178.662 51.0299C178.871 51.0299 179.039 50.8623 179.039 50.6528C179.039 50.4432 178.871 50.2756 178.662 50.2756C178.452 50.2756 178.285 50.4432 178.285 50.6528Z" fill="white"/>
<path d="M176.699 48.382C176.699 48.5915 176.866 48.7591 177.076 48.7591C177.286 48.7591 177.453 48.5915 177.453 48.382C177.453 48.1725 177.286 48.0049 177.076 48.0049C176.875 48.0049 176.699 48.1725 176.699 48.382Z" fill="white"/>
<path d="M157.956 25.0589L156.808 29.6765C156.682 30.1794 156.062 30.3554 155.693 29.995L152.266 26.6931C151.897 26.3327 152.048 25.7125 152.542 25.5701L157.109 24.2543C157.612 24.1035 158.082 24.556 157.956 25.0589Z" fill="#4B67A6"/>
<path d="M155.698 29.3078C155.815 29.4838 156.05 29.5341 156.226 29.4168C156.402 29.2994 156.452 29.0648 156.335 28.8888C156.218 28.7128 155.983 28.6625 155.807 28.7798C155.631 28.8972 155.589 29.1318 155.698 29.3078Z" fill="white"/>
<path d="M156.768 25.2678C156.886 25.4438 157.12 25.494 157.296 25.3767C157.472 25.2594 157.523 25.0247 157.405 24.8487C157.288 24.6727 157.053 24.6225 156.877 24.7398C156.701 24.8571 156.651 25.0918 156.768 25.2678Z" fill="white"/>
<path d="M152.675 26.5168C152.792 26.6928 153.027 26.7431 153.203 26.6257C153.379 26.5084 153.429 26.2738 153.311 26.0978C153.194 25.9218 152.959 25.8715 152.784 25.9888C152.608 26.1061 152.557 26.3408 152.675 26.5168Z" fill="white"/>
<path d="M179.144 45.2643C179.144 45.4738 179.312 45.6415 179.521 45.6415C179.731 45.6415 179.898 45.4738 179.898 45.2643C179.898 45.0548 179.731 44.8872 179.521 44.8872C179.312 44.8872 179.144 45.0548 179.144 45.2643Z" fill="white"/>
<path d="M140.847 25.5198L148.39 27.1288L150.602 16.7956C150.719 16.2593 150.376 15.7229 149.831 15.614L144.241 14.4155C143.705 14.2982 143.168 14.6418 143.06 15.1866L140.847 25.5198Z" fill="#6683C2"/>
<path d="M141.779 21.0849L149.352 22.7048L148.922 24.7127L141.35 23.0927L141.779 21.0849Z" fill="#4B67A6"/>
<path d="M132.001 30.4729L153.656 35.1073L148.913 24.707L141.37 23.0896L132.001 30.4729Z" fill="#6683C2"/>
<path opacity="0.1" d="M145.039 23.8768L141.377 23.0974L132.007 30.4807C132.007 30.4807 139.835 32.2071 143.003 32.8607" fill="black"/>
<path opacity="0.1" d="M141.332 23.0812L145.019 23.869L146.922 15.0107L144.19 14.4241C143.662 14.3151 143.142 14.6504 143.033 15.1783L141.332 23.0812Z" fill="black"/>
</g>
<defs>
<clipPath id="clip0_2022_424">
<rect width="210" height="100" rx="10" fill="white"/>
</clipPath>
</defs>
</svg>
