<svg width="110" height="88" viewBox="0 0 110 88" fill="none" xmlns="http://www.w3.org/2000/svg">
<g clip-path="url(#clip0_2011_2477)">
<line x1="-2" y1="81.6" x2="112" y2="81.6" stroke="#C9E3F9" stroke-width="1.3"/>
<line x1="-2" y1="38.85" x2="112" y2="38.85" stroke="#C9E3F9" stroke-width="1.3"/>
<line x1="-2" y1="67.35" x2="112" y2="67.35" stroke="#C9E3F9" stroke-width="1.3"/>
<line x1="-2" y1="24.6" x2="112" y2="24.6" stroke="#C9E3F9" stroke-width="1.3"/>
<line x1="-2" y1="53.1" x2="112" y2="53.1" stroke="#C9E3F9" stroke-width="1.3"/>
<line x1="-2" y1="10.35" x2="112" y2="10.35" stroke="#C9E3F9" stroke-width="1.3"/>
<line x1="41.4" y1="11" x2="41.4" y2="125" stroke="#C9E3F9" stroke-width="1.3"/>
<line x1="84.15" y1="11" x2="84.15" y2="125" stroke="#C9E3F9" stroke-width="1.3"/>
<line x1="12.9" y1="11" x2="12.9" y2="125" stroke="#C9E3F9" stroke-width="1.3"/>
<line x1="55.65" y1="11" x2="55.65" y2="125" stroke="#C9E3F9" stroke-width="1.3"/>
<line x1="98.4" y1="11" x2="98.4" y2="125" stroke="#C9E3F9" stroke-width="1.3"/>
<line x1="27.15" y1="11" x2="27.15" y2="125" stroke="#C9E3F9" stroke-width="1.3"/>
<line x1="69.9" y1="11" x2="69.9" y2="125" stroke="#C9E3F9" stroke-width="1.3"/>
<path d="M92.9369 66.067L20.3394 66.0532C20.1625 66.0006 19.9855 65.948 20.0381 65.771C19.9138 65.5415 19.9138 65.5415 19.9664 65.3646L34.9485 25.3332C35.0011 25.1563 35.0537 24.9794 35.2307 25.032C35.4076 25.0846 35.6372 24.9602 35.5846 25.1372L93.2 65.1823C93.3769 65.2349 93.5012 65.4645 93.396 65.8183C93.3434 65.9953 93.2908 66.1722 92.9369 66.067ZM21.0089 65.0968L91.2728 65.1871L35.6228 26.304L21.0089 65.0968Z" fill="#6683C2"/>
<path d="M41.1633 65.3112C40.5751 63.4032 38.6239 60.8973 36.2902 60.9739C36.1133 60.9213 35.8838 61.0456 35.7068 60.993L35.7306 35.0021C36.5435 34.8587 37.2321 34.4856 37.9208 34.1126C39.7571 33.1179 40.5127 31.2242 40.9143 29.2253C40.8952 28.6419 39.781 28.5032 39.7475 29.2635C39.451 30.9086 38.8533 32.2715 37.4234 33.1945C36.9643 33.4431 36.4527 33.8688 35.8166 34.0648L35.7257 25.9495C35.7592 25.1892 34.5923 25.2275 34.6115 25.8109L34.6498 34.1031C33.8368 34.2466 33.306 34.0888 32.5983 33.8783C32.12 33.5436 31.5031 34.3231 32.1583 34.7104C32.8135 35.0978 33.7508 35.1839 34.5637 35.0404L34.54 61.0313C32.8089 61.6721 31.2212 63.1259 30.6426 65.0722C30.4322 65.7799 31.3695 65.866 31.7042 65.3878C32.125 63.9723 33.2536 62.7672 34.7026 62.4276L34.6739 65.1152C34.693 65.6986 35.6303 65.7847 35.6638 65.0243L35.5682 62.1072C35.9746 62.0355 36.3285 62.1407 36.735 62.069C38.2031 62.3129 39.4273 64.0248 39.9964 65.3495C39.9438 65.5264 40.1208 65.579 40.0682 65.756C40.0682 65.756 40.0682 65.756 40.2451 65.8086C40.7233 66.1433 41.1824 65.8946 41.1633 65.3112Z" fill="#6683C2"/>
<path d="M17.0547 66.191C16.6684 64.9442 16.5314 63.6202 16.231 62.2101C16.0765 61.7114 16.008 61.0493 15.518 60.7912C15.3547 60.7052 15.0193 60.9458 14.9333 61.1091C14.417 62.089 14.0641 63.1549 13.6251 64.3841C13.0914 66.1894 12.317 67.6592 11.9465 69.5505C11.8517 70.1264 12.7544 70.3933 12.9352 69.654C13.2021 68.7514 13.3829 68.0121 13.8131 67.1955C14.2258 67.2043 14.6385 67.2131 15.0511 67.2218C15.4638 67.2306 16.0398 67.3254 16.4525 67.3342C16.5297 67.5835 16.6843 68.0822 16.6755 68.4949C16.5895 68.6582 16.7353 69.5696 16.8213 69.4063C16.3999 69.8102 17.0444 70.567 17.5518 69.9998C18.2226 69.5186 17.2866 66.939 17.0547 66.191ZM15.1547 66.2332C14.742 66.2244 14.4927 66.3017 14.1661 66.1296C14.2521 65.9663 14.3381 65.803 14.4242 65.6397C14.7771 64.5737 15.13 63.5078 15.483 62.4419C15.3969 62.6052 15.5602 62.6913 15.5602 62.6913C15.8693 63.6887 15.9291 64.7634 16.2382 65.7608C16.1521 65.9241 16.3154 66.0101 16.2294 66.1735C15.7307 66.328 15.4041 66.1559 15.1547 66.2332Z" fill="#F37E60"/>
<path d="M36.7514 20.6872C36.0484 22.404 33.8917 22.5331 32.7392 21.2276C32.1892 20.4864 32.1509 19.3196 32.237 18.3823C32.1988 17.2154 32.567 15.9769 33.5377 15.3026C35.1971 14.2553 36.4405 16.5507 36.8852 17.6458C37.0813 18.2818 38.1238 18.014 37.9278 17.378C37.2343 15.8238 35.9384 13.7053 33.8534 14.2409C31.9979 14.6522 31.2423 16.5459 31.2471 18.4731C31.1802 19.9939 31.7875 22.4853 33.3274 23.1357C35.0442 23.8387 37.2344 22.9492 37.7604 21.1798C37.9708 20.472 36.9092 20.1564 36.7514 20.6872Z" fill="#F37E60"/>
<path d="M97.8246 65.1587C98.0735 65.08 98.1585 64.9161 98.4925 64.6736C98.9116 64.2672 99.9072 63.9523 99.8348 63.2907C99.6964 61.5548 96.8861 61.7592 95.8118 61.8252C95.5629 61.904 95.4778 62.0678 95.4778 62.0678C95.2289 62.1465 95.1438 62.3103 95.2226 62.5592C95.1845 65.0355 95.3102 67.5969 95.1082 69.9881C95.1019 70.4008 95.4295 70.5709 95.6784 70.4922C95.6784 70.4922 95.6784 70.4922 95.8422 70.5773C97.074 71.0091 100.401 69.409 100.918 68.0134C101.277 66.12 99.5541 65.433 97.8246 65.1587ZM98.4265 63.5993C97.7585 64.0844 97.0906 64.5695 96.2588 64.9695C96.2715 64.144 96.1991 63.4824 96.2118 62.657C97.0372 62.6697 99.4284 62.8716 98.4265 63.5993ZM99.2608 68.4007C98.8417 68.8071 96.8442 69.8496 96.3527 69.5944C96.3527 69.5944 96.3527 69.5944 96.1889 69.5093C96.208 68.2712 96.3058 67.2819 96.3248 66.0438C96.8226 65.8863 97.3991 65.9778 97.9757 66.0692C98.8011 66.0819 100.682 67.2667 99.2608 68.4007Z" fill="#F37E60"/>
</g>
<defs>
<clipPath id="clip0_2011_2477">
<path d="M0 0H110V78C110 83.5228 105.523 88 100 88H0V0Z" fill="white"/>
</clipPath>
</defs>
</svg>
