<svg width="77" height="79" fill="none" xmlns="http://www.w3.org/2000/svg"><g clip-path="url(#a)"><path d="M30.502 21.438C17.772 13.003.637 16.454-7.772 29.145c-8.409 12.69-4.908 29.815 7.821 38.25 12.73 8.435 29.866 4.984 38.275-7.705 8.409-12.691 4.907-29.817-7.822-38.252Z" fill="#7FCBB4"/><path d="M63.262-1.96c-8.314-5.51-19.546-3.197-25.088 5.167-5.54 8.361-3.293 19.607 5.021 25.116 8.315 5.51 19.547 3.197 25.088-5.165 5.542-8.364 3.294-19.609-5.02-25.118Z" fill="#68CCEA"/><path d="M14.418-.58c2.836-4.278 8.663-5.409 13.015-2.525 4.353 2.885 5.583 8.692 2.748 12.97-2.836 4.28-8.663 5.41-13.015 2.526C12.813 9.507 11.583 3.7 14.418-.58Z" fill="#F2C45B"/></g><defs><clipPath id="a"><path fill="#fff" d="M0 0h77v79H0z"/></clipPath></defs></svg>