<svg width="77" height="79" fill="none" xmlns="http://www.w3.org/2000/svg"><g clip-path="url(#a)"><path d="M53 17.56c9.084-8.002 22.914-7.147 30.891 1.91 7.977 9.054 7.08 22.882-2.003 30.883-9.083 8.002-22.914 7.147-30.89-1.908C43.02 39.389 43.918 25.56 53 17.56Z" fill="#7FCBB4"/><path d="M24.742 2.73c5.933-5.226 15.004-4.626 20.261 1.343 5.256 5.967 4.708 15.04-1.225 20.267-5.933 5.226-15.004 4.626-20.26-1.341-5.258-5.968-4.709-15.042 1.224-20.269Z" fill="#68CCEA"/><path d="M63.249-1.472c-2.69-3.053-7.388-3.31-10.494-.574S49.31 5.384 52 8.437c2.69 3.053 7.388 3.31 10.494.574s3.444-7.43.754-10.483Z" fill="#F2C45B"/></g><defs><clipPath id="a"><path fill="#fff" transform="matrix(-1 0 0 1 77 0)" d="M0 0h77v79H0z"/></clipPath></defs></svg>