<svg width="1920" height="353" viewBox="0 0 1920 353" fill="none" xmlns="http://www.w3.org/2000/svg">
<mask id="mask0_2014_287" style="mask-type:alpha" maskUnits="userSpaceOnUse" x="0" y="0" width="1920" height="353">
<rect width="1920" height="353" fill="#D9D9D9"/>
</mask>
<g mask="url(#mask0_2014_287)">
<path d="M933.16 352.944H917.336V101.434H933.16V352.944Z" fill="#6683C2"/>
<path d="M948.98 352.944H933.156V74.6481H948.98V352.944Z" fill="#6683C2"/>
<path d="M964.785 352.944H948.961V90.2427H964.785V352.944Z" fill="#6683C2"/>
<path d="M996.426 352.944H980.602V104.461H996.426V352.944Z" fill="#6683C2"/>
<path d="M980.613 75.7029H964.789V55.8197H980.613V75.7029Z" fill="#6683C2"/>
<path d="M948.98 60.8879H933.156V41.5322H948.98V60.8879Z" fill="#6683C2"/>
<path d="M1012.23 352.944H996.406V90.2427H1012.23V352.944Z" fill="#6683C2"/>
<path d="M1028.06 352.944H1012.23V112.167H1028.06V352.944Z" fill="#6683C2"/>
<path d="M1043.88 352.944H1028.05V128.083H1043.88V352.944Z" fill="#6683C2"/>
<path d="M1059.68 352.944H1043.86V94.4166H1059.68V352.944Z" fill="#6683C2"/>
<path d="M1091.33 55.1775H1075.51V34.3311H1091.33V55.1775Z" fill="#6683C2"/>
<path d="M1091.33 20.7776H1075.51V4.38028H1091.33V20.7776Z" fill="#6683C2"/>
<path d="M1075.5 352.944H1059.68V83.2939H1075.5V352.944Z" fill="#6683C2"/>
<path d="M1091.33 352.944H1075.51V69.8091H1091.33V352.944Z" fill="#6683C2"/>
<path d="M1107.13 352.944H1091.3V112.167H1107.13V352.944Z" fill="#6683C2"/>
<path d="M1138.78 54.031H1122.95V30.2033H1138.78V54.031Z" fill="#6683C2"/>
<path d="M1296.93 62.4475H1281.1V44.3761H1296.93V62.4475Z" fill="#6683C2"/>
<path d="M1202.03 45.2932H1186.2V28.3684H1202.03V45.2932Z" fill="#6683C2"/>
<path d="M1202.03 17.3147H1186.2V6.10352e-05H1202.03V17.3147Z" fill="#6683C2"/>
<path d="M1170.4 62.0579H1154.58V44.7432H1170.4V62.0579Z" fill="#6683C2"/>
<path d="M1043.88 82.0559H1028.05V55.8202H1043.88V82.0559Z" fill="#6683C2"/>
<path d="M1043.88 42.656H1028.05V26.0064H1043.88V42.656Z" fill="#6683C2"/>
<path d="M1012.23 63.8235H996.406V46.5089H1012.23V63.8235Z" fill="#6683C2"/>
<path d="M980.613 37.2898H964.789V19.9752H980.613V37.2898Z" fill="#6683C2"/>
<path d="M1122.96 352.944H1107.13V94.4166H1122.96V352.944Z" fill="#6683C2"/>
<path d="M1138.78 352.944H1122.95V83.2939H1138.78V352.944Z" fill="#6683C2"/>
<path d="M1154.58 352.944H1138.76V112.167H1154.58V352.944Z" fill="#6683C2"/>
<path d="M1170.4 352.944H1154.58V138.815H1170.4V352.944Z" fill="#6683C2"/>
<path d="M1186.21 352.944H1170.38V77.6982H1186.21V352.944Z" fill="#6683C2"/>
<path d="M980.613 352.944H964.789V118.68H980.613V352.944Z" fill="#6683C2"/>
<path d="M1202.03 352.944H1186.2V57.8838H1202.03V352.944Z" fill="#6683C2"/>
<path d="M1217.85 352.944H1202.02V69.8091H1217.85V352.944Z" fill="#6683C2"/>
<path d="M1233.66 352.944H1217.84V90.2427H1233.66V352.944Z" fill="#6683C2"/>
<path d="M1265.3 352.944H1249.48V92.9259H1265.3V352.944Z" fill="#6683C2"/>
<path d="M1281.11 352.944H1265.28V130.238H1281.11V352.944Z" fill="#6683C2"/>
<path d="M1265.3 76.9182H1249.48V41.9679H1265.3V76.9182Z" fill="#6683C2"/>
<path d="M1360.2 56.3704H1344.38V38.5282H1360.2V56.3704Z" fill="#6683C2"/>
<path d="M1265.3 31.6711H1249.48V13.6456H1265.3V31.6711Z" fill="#6683C2"/>
<path d="M1296.93 352.944H1281.1V77.6982H1296.93V352.944Z" fill="#6683C2"/>
<path d="M1312.75 352.944H1296.93V90.2427H1312.75V352.944Z" fill="#6683C2"/>
<path d="M1249.47 352.944H1233.65V106.823H1249.47V352.944Z" fill="#6683C2"/>
<path d="M1328.55 352.944H1312.73V56.2785H1328.55V352.944Z" fill="#6683C2"/>
<path d="M1328.55 33.7351H1312.73V16.6498H1328.55V33.7351Z" fill="#6683C2"/>
<path d="M1344.38 352.944H1328.55V69.8091H1344.38V352.944Z" fill="#6683C2"/>
<path d="M1360.2 352.944H1344.38V87.5825H1360.2V352.944Z" fill="#6683C2"/>
<path d="M1376 352.944H1360.18V118.68H1376V352.944Z" fill="#6683C2"/>
<path d="M980.613 150.902H964.789V133.725H980.613V150.902Z" fill="#F8F8F8"/>
<path d="M1043.88 172.413H1028.05V155.396H1043.88V172.413Z" fill="#F8F8F8"/>
<path d="M1217.85 130.009H1202.02V112.993H1217.85V130.009Z" fill="#F8F8F8"/>
<path d="M1281.1 172.482H1265.27V155.351H1281.1V172.482Z" fill="#F8F8F8"/>
<path d="M1344.38 130.055H1328.55V112.924H1344.38V130.055Z" fill="#F8F8F8"/>
<path d="M1107.13 150.832H1091.3V126.821H1107.13V150.832Z" fill="#F8F8F8"/>
<path d="M15.824 352.944H0V101.434H15.824V352.944Z" fill="#6683C2"/>
<path d="M31.6443 352.944H15.8203V74.6481H31.6443V352.944Z" fill="#6683C2"/>
<path d="M47.449 352.944H31.625V90.2427H47.449V352.944Z" fill="#6683C2"/>
<path d="M79.0974 352.944H63.2734V104.461H79.0974V352.944Z" fill="#6683C2"/>
<path d="M63.2693 75.7029H47.4453V55.8197H63.2693V75.7029Z" fill="#6683C2"/>
<path d="M31.6443 60.8879H15.8203V41.5322H31.6443V60.8879Z" fill="#6683C2"/>
<path d="M94.8943 352.944H79.0703V90.2427H94.8943V352.944Z" fill="#6683C2"/>
<path d="M110.722 352.944H94.8984V112.167H110.722V352.944Z" fill="#6683C2"/>
<path d="M126.543 352.944H110.719V128.083H126.543V352.944Z" fill="#6683C2"/>
<path d="M142.347 352.944H126.523V94.4166H142.347V352.944Z" fill="#6683C2"/>
<path d="M173.988 55.1775H158.164V34.3311H173.988V55.1775Z" fill="#6683C2"/>
<path d="M173.988 20.7776H158.164V4.38028H173.988V20.7776Z" fill="#6683C2"/>
<path d="M158.176 352.944H142.352V83.2939H158.176V352.944Z" fill="#6683C2"/>
<path d="M173.988 352.944H158.164V69.8091H173.988V352.944Z" fill="#6683C2"/>
<path d="M189.801 352.944H173.977V112.167H189.801V352.944Z" fill="#6683C2"/>
<path d="M221.441 54.031H205.617V30.2033H221.441V54.031Z" fill="#6683C2"/>
<path d="M379.59 62.4475H363.766V44.3761H379.59V62.4475Z" fill="#6683C2"/>
<path d="M284.691 45.2932H268.867V28.3684H284.691V45.2932Z" fill="#6683C2"/>
<path d="M284.691 17.3147H268.867V6.10352e-05H284.691V17.3147Z" fill="#6683C2"/>
<path d="M253.066 62.0579H237.242V44.7432H253.066V62.0579Z" fill="#6683C2"/>
<path d="M126.543 82.0557H110.719V55.82H126.543V82.0557Z" fill="#6683C2"/>
<path d="M126.543 42.656H110.719V26.0064H126.543V42.656Z" fill="#6683C2"/>
<path d="M94.8943 63.8235H79.0703V46.5089H94.8943V63.8235Z" fill="#6683C2"/>
<path d="M63.2693 37.2898H47.4453V19.9752H63.2693V37.2898Z" fill="#6683C2"/>
<path d="M205.621 352.944H189.797V94.4166H205.621V352.944Z" fill="#6683C2"/>
<path d="M221.441 352.944H205.617V83.2939H221.441V352.944Z" fill="#6683C2"/>
<path d="M237.246 352.944H221.422V112.167H237.246V352.944Z" fill="#6683C2"/>
<path d="M253.066 352.944H237.242V138.815H253.066V352.944Z" fill="#6683C2"/>
<path d="M268.871 352.944H253.047V77.6982H268.871V352.944Z" fill="#6683C2"/>
<path d="M63.2693 352.944H47.4453V118.68H63.2693V352.944Z" fill="#6683C2"/>
<path d="M284.691 352.944H268.867V57.8838H284.691V352.944Z" fill="#6683C2"/>
<path d="M300.519 352.944H284.695V69.8091H300.519V352.944Z" fill="#6683C2"/>
<path d="M316.316 352.944H300.492V90.2427H316.316V352.944Z" fill="#6683C2"/>
<path d="M347.965 352.944H332.141V92.9259H347.965V352.944Z" fill="#6683C2"/>
<path d="M363.769 352.944H347.945V130.238H363.769V352.944Z" fill="#6683C2"/>
<path d="M347.965 76.9182H332.141V41.9679H347.965V76.9182Z" fill="#6683C2"/>
<path d="M442.863 56.3704H427.039V38.5282H442.863V56.3704Z" fill="#6683C2"/>
<path d="M347.965 31.6711H332.141V13.6456H347.965V31.6711Z" fill="#6683C2"/>
<path d="M379.59 352.944H363.766V77.6982H379.59V352.944Z" fill="#6683C2"/>
<path d="M395.418 352.944H379.594V90.2427H395.418V352.944Z" fill="#6683C2"/>
<path d="M332.144 352.944H316.32V106.823H332.144V352.944Z" fill="#6683C2"/>
<path d="M411.222 352.944H395.398V56.2785H411.222V352.944Z" fill="#6683C2"/>
<path d="M411.222 33.7351H395.398V16.6498H411.222V33.7351Z" fill="#6683C2"/>
<path d="M427.043 352.944H411.219V69.8091H427.043V352.944Z" fill="#6683C2"/>
<path d="M442.863 352.944H427.039V87.5825H442.863V352.944Z" fill="#6683C2"/>
<path d="M458.66 352.944H442.836V118.68H458.66V352.944Z" fill="#6683C2"/>
<path d="M63.2693 150.902H47.4453V133.725H63.2693V150.902Z" fill="#F8F8F8"/>
<path d="M126.543 172.413H110.719V155.396H126.543V172.413Z" fill="#F8F8F8"/>
<path d="M427.043 130.055H411.219V112.924H427.043V130.055Z" fill="#F8F8F8"/>
<path d="M189.801 150.832H173.977V126.821H189.801V150.832Z" fill="#F8F8F8"/>
<path d="M1391.82 352.944H1376V101.434H1391.82V352.944Z" fill="#6683C2"/>
<path d="M1407.64 352.944H1391.82V74.6481H1407.64V352.944Z" fill="#6683C2"/>
<path d="M1423.45 352.944H1407.62V90.2427H1423.45V352.944Z" fill="#6683C2"/>
<path d="M1455.1 352.944H1439.27V104.461H1455.1V352.944Z" fill="#6683C2"/>
<path d="M1439.27 75.7029H1423.45V55.8197H1439.27V75.7029Z" fill="#6683C2"/>
<path d="M1407.64 60.8879H1391.82V41.5322H1407.64V60.8879Z" fill="#6683C2"/>
<path d="M1470.89 352.944H1455.07V90.2427H1470.89V352.944Z" fill="#6683C2"/>
<path d="M1486.72 352.944H1470.9V112.167H1486.72V352.944Z" fill="#6683C2"/>
<path d="M1502.54 352.944H1486.72V128.083H1502.54V352.944Z" fill="#6683C2"/>
<path d="M1518.35 352.944H1502.52V94.4166H1518.35V352.944Z" fill="#6683C2"/>
<path d="M1549.99 55.1775H1534.16V34.3311H1549.99V55.1775Z" fill="#6683C2"/>
<path d="M1549.99 20.7776H1534.16V4.38028H1549.99V20.7776Z" fill="#6683C2"/>
<path d="M1534.18 352.944H1518.35V83.2939H1534.18V352.944Z" fill="#6683C2"/>
<path d="M1549.99 352.944H1534.16V69.8091H1549.99V352.944Z" fill="#6683C2"/>
<path d="M1565.8 352.944H1549.98V112.167H1565.8V352.944Z" fill="#6683C2"/>
<path d="M1597.44 54.031H1581.62V30.2033H1597.44V54.031Z" fill="#6683C2"/>
<path d="M1755.59 62.4475H1739.77V44.3761H1755.59V62.4475Z" fill="#6683C2"/>
<path d="M1660.69 45.2932H1644.87V28.3684H1660.69V45.2932Z" fill="#6683C2"/>
<path d="M1660.69 17.3147H1644.87V6.10352e-05H1660.69V17.3147Z" fill="#6683C2"/>
<path d="M1629.07 62.0579H1613.24V44.7432H1629.07V62.0579Z" fill="#6683C2"/>
<path d="M1502.54 82.0557H1486.72V55.82H1502.54V82.0557Z" fill="#6683C2"/>
<path d="M1502.54 42.656H1486.72V26.0064H1502.54V42.656Z" fill="#6683C2"/>
<path d="M1470.89 63.8235H1455.07V46.5089H1470.89V63.8235Z" fill="#6683C2"/>
<path d="M1439.27 37.2898H1423.45V19.9752H1439.27V37.2898Z" fill="#6683C2"/>
<path d="M1581.62 352.944H1565.8V94.4166H1581.62V352.944Z" fill="#6683C2"/>
<path d="M1597.44 352.944H1581.62V83.2939H1597.44V352.944Z" fill="#6683C2"/>
<path d="M1613.25 352.944H1597.42V112.167H1613.25V352.944Z" fill="#6683C2"/>
<path d="M1629.07 352.944H1613.24V138.815H1629.07V352.944Z" fill="#6683C2"/>
<path d="M1644.87 352.944H1629.05V77.6982H1644.87V352.944Z" fill="#6683C2"/>
<path d="M1439.27 352.944H1423.45V118.68H1439.27V352.944Z" fill="#6683C2"/>
<path d="M1660.69 352.944H1644.87V57.8838H1660.69V352.944Z" fill="#6683C2"/>
<path d="M1676.52 352.944H1660.7V69.8091H1676.52V352.944Z" fill="#6683C2"/>
<path d="M1692.32 352.944H1676.49V90.2427H1692.32V352.944Z" fill="#6683C2"/>
<path d="M1723.96 352.944H1708.14V92.9259H1723.96V352.944Z" fill="#6683C2"/>
<path d="M1739.77 352.944H1723.95V130.238H1739.77V352.944Z" fill="#6683C2"/>
<path d="M1723.96 76.9182H1708.14V41.9679H1723.96V76.9182Z" fill="#6683C2"/>
<path d="M1818.86 56.3704H1803.04V38.5282H1818.86V56.3704Z" fill="#6683C2"/>
<path d="M1723.96 31.6711H1708.14V13.6456H1723.96V31.6711Z" fill="#6683C2"/>
<path d="M1755.59 352.944H1739.77V77.6982H1755.59V352.944Z" fill="#6683C2"/>
<path d="M1771.42 352.944H1755.59V90.2427H1771.42V352.944Z" fill="#6683C2"/>
<path d="M1708.14 352.944H1692.32V106.823H1708.14V352.944Z" fill="#6683C2"/>
<path d="M1787.22 352.944H1771.4V56.2785H1787.22V352.944Z" fill="#6683C2"/>
<path d="M1787.22 33.7351H1771.4V16.6498H1787.22V33.7351Z" fill="#6683C2"/>
<path d="M1803.04 352.944H1787.22V69.8091H1803.04V352.944Z" fill="#6683C2"/>
<path d="M1818.86 352.944H1803.04V87.5825H1818.86V352.944Z" fill="#6683C2"/>
<path d="M1834.66 352.944H1818.84V118.68H1834.66V352.944Z" fill="#6683C2"/>
<path d="M1439.27 150.902H1423.45V133.725H1439.27V150.902Z" fill="#F8F8F8"/>
<path d="M1502.54 172.413H1486.72V155.396H1502.54V172.413Z" fill="#F8F8F8"/>
<path d="M1803.04 130.055H1787.22V112.924H1803.04V130.055Z" fill="#F8F8F8"/>
<path d="M1565.8 150.832H1549.98V126.821H1565.8V150.832Z" fill="#F8F8F8"/>
<path d="M474.488 352.944H458.664V101.434H474.488V352.944Z" fill="#6683C2"/>
<path d="M490.316 352.944H474.492V74.6481H490.316V352.944Z" fill="#6683C2"/>
<path d="M506.113 352.944H490.289V90.2427H506.113V352.944Z" fill="#6683C2"/>
<path d="M537.761 352.944H521.938V104.461H537.761V352.944Z" fill="#6683C2"/>
<path d="M521.941 75.7029H506.117V55.8197H521.941V75.7029Z" fill="#6683C2"/>
<path d="M490.316 60.8879H474.492V41.5322H490.316V60.8879Z" fill="#6683C2"/>
<path d="M553.566 352.944H537.742V90.2427H553.566V352.944Z" fill="#6683C2"/>
<path d="M569.394 352.944H553.57V112.167H569.394V352.944Z" fill="#6683C2"/>
<path d="M585.207 352.944H569.383V128.083H585.207V352.944Z" fill="#6683C2"/>
<path d="M601.019 352.944H585.195V94.4166H601.019V352.944Z" fill="#6683C2"/>
<path d="M632.66 55.1775H616.836V34.3311H632.66V55.1775Z" fill="#6683C2"/>
<path d="M632.66 20.7776H616.836V4.38028H632.66V20.7776Z" fill="#6683C2"/>
<path d="M616.832 352.944H601.008V83.2939H616.832V352.944Z" fill="#6683C2"/>
<path d="M632.66 352.944H616.836V69.8091H632.66V352.944Z" fill="#6683C2"/>
<path d="M648.465 352.944H632.641V112.167H648.465V352.944Z" fill="#6683C2"/>
<path d="M680.113 54.031H664.289V30.2033H680.113V54.031Z" fill="#6683C2"/>
<path d="M838.261 62.4475H822.438V44.3761H838.261V62.4475Z" fill="#6683C2"/>
<path d="M743.363 45.2932H727.539V28.3684H743.363V45.2932Z" fill="#6683C2"/>
<path d="M743.363 17.3147H727.539V6.10352e-05H743.363V17.3147Z" fill="#6683C2"/>
<path d="M711.738 62.0579H695.914V44.7432H711.738V62.0579Z" fill="#6683C2"/>
<path d="M585.207 82.0559H569.383V55.8202H585.207V82.0559Z" fill="#6683C2"/>
<path d="M585.207 42.656H569.383V26.0064H585.207V42.656Z" fill="#6683C2"/>
<path d="M553.566 63.8235H537.742V46.5089H553.566V63.8235Z" fill="#6683C2"/>
<path d="M521.941 37.2898H506.117V19.9752H521.941V37.2898Z" fill="#6683C2"/>
<path d="M664.285 352.944H648.461V94.4166H664.285V352.944Z" fill="#6683C2"/>
<path d="M680.113 352.944H664.289V83.2939H680.113V352.944Z" fill="#6683C2"/>
<path d="M695.91 352.944H680.086V112.167H695.91V352.944Z" fill="#6683C2"/>
<path d="M711.738 352.944H695.914V138.815H711.738V352.944Z" fill="#6683C2"/>
<path d="M727.535 352.944H711.711V77.6982H727.535V352.944Z" fill="#6683C2"/>
<path d="M521.941 352.944H506.117V118.68H521.941V352.944Z" fill="#6683C2"/>
<path d="M743.363 352.944H727.539V57.8838H743.363V352.944Z" fill="#6683C2"/>
<path d="M759.183 352.944H743.359V69.8091H759.183V352.944Z" fill="#6683C2"/>
<path d="M774.988 352.944H759.164V90.2427H774.988V352.944Z" fill="#6683C2"/>
<path d="M806.629 352.944H790.805V92.9259H806.629V352.944Z" fill="#6683C2"/>
<path d="M822.441 352.944H806.617V130.238H822.441V352.944Z" fill="#6683C2"/>
<path d="M806.629 76.9182H790.805V41.9679H806.629V76.9182Z" fill="#6683C2"/>
<path d="M901.535 56.3704H885.711V38.5282H901.535V56.3704Z" fill="#6683C2"/>
<path d="M806.629 31.6711H790.805V13.6456H806.629V31.6711Z" fill="#6683C2"/>
<path d="M838.261 352.944H822.438V77.6982H838.261V352.944Z" fill="#6683C2"/>
<path d="M854.082 352.944H838.258V90.2427H854.082V352.944Z" fill="#6683C2"/>
<path d="M790.808 352.944H774.984V106.823H790.808V352.944Z" fill="#6683C2"/>
<path d="M869.886 352.944H854.062V56.2785H869.886V352.944Z" fill="#6683C2"/>
<path d="M869.886 33.7351H854.062V16.6498H869.886V33.7351Z" fill="#6683C2"/>
<path d="M885.707 352.944H869.883V69.8091H885.707V352.944Z" fill="#6683C2"/>
<path d="M901.535 352.944H885.711V87.5825H901.535V352.944Z" fill="#6683C2"/>
<path d="M917.332 352.944H901.508V118.68H917.332V352.944Z" fill="#6683C2"/>
<path d="M885.707 130.055H869.883V112.924H885.707V130.055Z" fill="#F8F8F8"/>
<path d="M648.465 150.832H632.641V126.821H648.465V150.832Z" fill="#F8F8F8"/>
<path d="M1850.49 352.944H1834.66V101.434H1850.49V352.944Z" fill="#6683C2"/>
<path d="M1866.32 352.944H1850.49V74.6481H1866.32V352.944Z" fill="#6683C2"/>
<path d="M1882.11 352.944H1866.29V90.2427H1882.11V352.944Z" fill="#6683C2"/>
<path d="M1913.76 352.944H1897.94V104.461H1913.76V352.944Z" fill="#6683C2"/>
<path d="M1897.94 75.7029H1882.12V55.8197H1897.94V75.7029Z" fill="#6683C2"/>
<path d="M1866.32 60.8879H1850.49V41.5322H1866.32V60.8879Z" fill="#6683C2"/>
<path d="M1929.57 352.944H1913.74V90.2427H1929.57V352.944Z" fill="#6683C2"/>
<path d="M1929.57 63.8235H1913.74V46.5089H1929.57V63.8235Z" fill="#6683C2"/>
<path d="M1897.94 37.2898H1882.12V19.9752H1897.94V37.2898Z" fill="#6683C2"/>
<path d="M1897.94 352.944H1882.12V118.68H1897.94V352.944Z" fill="#6683C2"/>
</g>
</svg>
