<svg width="416" height="108" fill="none" xmlns="http://www.w3.org/2000/svg"><g clip-path="url(#a)"><path d="M277.222 122.987s0 2.186-2.186 2.733c-4.373 1.093-8.746 1.639-13.118 1.093-2.733 0-5.466-.547-8.746-1.093h-1.64s-1.093-.547-1.093-1.094v-4.372c0-27.877-1.093-55.207-1.64-83.083V22.413c0-4.373-.546-3.826 3.826-4.92 4.373-1.093 8.746-1.64 13.119-1.64 2.186 0 5.466 0 7.652 1.094 2.186 1.093 2.186 2.733 2.733 4.92 0 9.838 1.64 92.921 1.64 101.12h-.547Z" fill="#6BA3B1"/><path d="M254.265 114.244V42.64c0-7.652 0-15.305-.547-23.504h-.546V124.63v-10.386h1.093Z" fill="#fff"/><path d="M366.865 125.173H402.941s1.093 0 1.093 1.093l-1.093 1.093h-38.809c-1.639 0-3.279 0-3.826-2.186l-6.559-14.758c-.547-1.64-1.64-3.28-2.186-4.92-2.733-5.466-4.92-10.932-7.653-16.398-.546-1.64-1.64-3.28-2.186-5.466-3.28-8.199-6.559-16.398-9.839-25.143-1.093-2.187-1.64-4.373-2.186-6.56-1.093-2.732-2.187-5.465-3.28-8.745-.546-1.64-1.093-3.28-1.64-4.373 0-1.64 0-2.733 1.094-3.826l11.478-9.839s1.093-.546 1.64-1.093c1.64-1.093 3.279-1.64 4.919-1.64 4.92.547 9.839 1.64 14.758 2.187 4.373.546 8.746 1.64 13.119 2.733.546 0 1.64 0 2.733 1.093 1.639.546 4.919 11.479 6.012 14.211 2.733 6.013 4.92 12.026 7.653 17.492l19.677 45.914c0 1.093 1.093 2.733 1.64 3.826 0 1.093.547 2.186 1.093 3.28.547 2.733 0 3.279-2.733 3.279h-26.783c-2.733 0-4.92.547-6.559 2.187-2.187 2.186-4.92 3.826-7.653 5.465 0 0-.546.547-1.639 1.094h1.639Z" fill="#A5CE83"/><path d="M379.436 49.742s6.013 16.398 5.466 16.944c-.546.547-12.572 0-15.305 0h-2.186c-.547-1.64-1.64-3.28-2.186-5.466-1.094-3.28-2.187-7.106-3.827-10.385v-1.64h2.187c4.373 0 14.758 0 16.398 1.093l-.547-.546Z" fill="#F5E7DE"/><path d="M342.816 25.695v1.093c1.64 3.827 3.28 8.2 4.373 12.026 0 1.093.546 1.64.546 2.733 1.094 2.733 2.187 6.012 3.28 8.745 2.186 4.92 4.373 10.386 6.013 15.852l3.279 8.198c1.093 3.28 2.733 6.013 3.826 9.293l4.92 11.478c2.186 4.92 4.373 10.386 6.012 15.305 0 .547 0 1.093.547 1.64v.546h-.547s0-1.093-.546-1.093c0-1.093-.547-2.186-1.093-3.279-2.187-5.466-4.373-10.932-6.56-15.852-1.093-2.186-1.639-4.373-2.733-6.559-1.639-4.373-3.279-8.199-4.919-12.572-1.093-2.733-2.186-6.012-3.28-8.745-1.639-4.92-3.826-9.839-6.012-14.212-1.093-2.733-2.187-4.92-2.733-7.652-1.093-2.733-1.64-5.466-2.733-8.2-.547-2.185-1.64-4.372-2.186-6.012v-1.64l.546-1.093Z" fill="#fff"/><path d="M158.149 26.582v105.493c0 1.64-8.199 2.187-16.398 2.733-4.373 0-15.852-.546-16.945-1.093-1.093-.546 0-7.652 0-8.199V22.756c0-1.093 0-8.746.547-9.292.546-1.093 12.025-1.093 14.211-1.093 8.199 0 16.398 1.093 17.491 2.186 1.094 1.093.547 3.826.547 4.92v7.652l.547-.547Z" fill="#C0735B"/><path d="M140.109 17.288h3.28c2.733 0 6.012 0 8.199 2.186 1.093.547 2.186 1.64 2.186 3.28 0 .547 0 1.64-1.093 2.186-1.093.547-1.093 1.094-2.187 1.094-2.733 1.093-6.012 1.64-9.292 1.64-1.64 0-3.826 0-5.466-.547-2.186-.547-6.559-2.186-5.466-5.466 0-1.64 1.64-2.187 3.28-2.733 2.186-.547 4.373-1.093 6.559-1.093v-.547Z" fill="#E3C2AC"/><path d="M128.086 39.702v-25.69h-.547v116.425h.547V39.702ZM155.961 40.249v-25.69h-.547V131.53c0 .546 1.093.546 1.093 0V40.249h-.546Z" fill="#010101"/><path d="M327.513 112.051v11.479c0 1.093 0 1.64-1.64 2.186-6.559 2.733-13.119 2.187-20.224.547h-1.094c-.546 0 0-3.28 0-3.826 0-7.653.547-94.015 0-97.841v-2.733c0-1.64 1.094-2.733 2.733-2.733h4.92c3.826 0 7.652 0 12.025.546 2.186 0 3.28 1.093 3.28 3.28v89.095Z" fill="#A8C88D"/><path d="M275.035 12.572V3.826c0-1.64 0-1.64 1.64-2.186C279.955.547 285.967 0 289.793 0c5.466 0 8.199.547 13.665 1.64 3.28 0 3.826 1.093 3.826 4.373v90.735c0 8.199 0 16.944-.546 25.143 0 2.733-1.093 3.826-3.28 4.373-1.64 0-3.279.547-5.466 1.093-5.466 1.093-10.385 0-15.304-.546-1.64 0-3.28-1.094-4.92-1.64-1.093 0-1.64-1.093-1.64-2.187 0-28.423-.63-94.285-.63-102.484l-.463-7.928Z" fill="#C6E3AC"/><path d="M250.44 125.174c-3.826 1.639-8.199 2.186-12.025 2.186-4.373 0-8.746 0-12.572-1.093h-1.64V15.854c0-2.186.547-4.373 3.28-4.92 3.826-.546 6.012-.546 9.838-1.092 3.28 0 10.386 0 13.119 1.64 1.64.546 1.093 1.64 1.64 3.279V121.894c0 1.64 0 2.186-1.64 2.733v.547Z" fill="#8BB85D"/><path d="M250.986 21.864H223.109v-1.64H250.986V21.864Z" fill="#DEF0F5"/><path d="M206.252 129.891s-1.093 2.733-3.826 3.28a52.74 52.74 0 0 1-13.119 0s-1.093 0-1.64-.547c-.546 0-1.093-.546-1.093-1.64V10.733c0-1.64.547-1.64 2.733-2.186 1.64 0 3.826-.547 5.466-.547h9.839c2.186 0 2.733.547 3.28 2.733v59.033c0 19.13 0 38.261-.547 57.392v1.64l-1.093 1.093Z" fill="#96C269"/><path d="M207.891 15.653v1.64h-21.864v-1.64H207.891ZM207.892 13.463h-20.771v-1.64h21.317V13.463h-.546Z" fill="#B4DE89"/><path d="M187.664 131.53s-9.839 2.733-14.758 2.733c-8.199 0-14.758-1.64-15.305-1.64-.547 0-.547-8.199-1.093-11.478 0-27.877.546-89.095.546-90.189 0-1.093 0-2.733 1.094-2.733 1.639 0 3.826-.546 5.466-.546h19.677c1.64 0 1.64 0 1.64 2.186v9.839c0 13.665.546 92.375 1.093 92.921l1.64-1.093Z" fill="#8ECBC7"/><path d="M178.919 57.905a.157.157 0 0 0-.163-.159c-1.54.06-13.502.505-13.502-.006V34.236c0-1.093 13.665-1.64 13.665 0 0 1.023.478 20.71.092 23.685-.018.14-.092.125-.092-.016ZM177.826 67.03c.905 0 1.639.53 1.639 1.435 0 .906-.729 1.845-1.635 1.845h-10.938a1.64 1.64 0 0 1 .002-3.28h10.932ZM166.893 64.845c-.906 0-1.639-.53-1.639-1.435s.734-1.845 1.64-1.845h10.932c.905 0 1.639.53 1.639 1.435 0 .906-.729 1.845-1.635 1.845h-10.937ZM168.531 122.786V90.537h-.547V127.159v-4.373h.547ZM176.73 108.573v18.038-37.169h.547c0 6.013.547 12.572.547 18.585l-1.094.546Z" fill="#5AB7B1"/><path d="M126.448 130.981c0 2.733-2.186 3.279-4.373 3.279-8.745 1.093-16.944 1.64-25.69 0-2.186 0-4.372-1.093-6.559-1.64-1.64 0-2.733-1.639-2.733-3.279C86 124.968 86 120.595 86 116.222V61.016c0-12.572.547-25.143 1.093-37.715v-3.826c0-1.093 1.093-1.64 2.187-1.64h4.919c9.292 0 18.584.547 27.876 1.093h1.094c2.186 0 1.639 1.64 2.186 3.826v108.227h1.093Z" fill="#144683"/><path d="M126.448 130.981c0 2.733-2.186 3.279-4.373 3.279-8.745 1.093-16.944 1.64-25.69 0-2.186 0-4.372-1.093-6.559-1.64-1.64 0-2.733-1.639-2.733-3.279C86 124.968 86 120.595 86 116.222V61.016c0-12.572.547-25.143 1.093-37.715v-3.826c0-1.093 1.093-1.64 2.187-1.64h4.919c9.292 0 18.584.547 27.876 1.093h1.094c2.186 0 1.639 1.64 2.186 3.826v108.227h1.093Z" fill="#144683"/><path d="M126.448 130.981c0 2.733-2.186 3.279-4.373 3.279-8.745 1.093-16.944 1.64-25.69 0-2.186 0-4.372-1.093-6.559-1.64-1.64 0-2.733-1.639-2.733-3.279C86 124.968 86 120.595 86 116.222V61.016c0-12.572.547-25.143 1.093-37.715v-3.826c0-1.093 1.093-1.64 2.187-1.64h4.919c9.292 0 18.584.547 27.876 1.093h1.094c2.186 0 1.639 1.64 2.186 3.826v108.227h1.093Z" fill="#B1DD85"/><path d="M108.96 33.686v2.186s0 .547-.546.547c0 0-.547 0-1.094-.547v-4.92h.547v2.734h1.093Z" fill="#fff"/></g><defs><clipPath id="a"><rect width="416" height="108" rx="20" fill="#fff"/></clipPath></defs></svg>