<svg width="427" height="393" fill="none" xmlns="http://www.w3.org/2000/svg"><g clip-path="url(#a)"><path d="M432.204 145.01 325.295 98.778V.31h106.909v144.7Z" fill="#A1E4D0"/><path d="M428.873 82.854s-23.251-36.231-24.803-56.637C402.518 5.811 401.127.31 401.127.31h-18.756s17.77 39.662 21.295 49.339c3.541 9.66 14.18 31.765 14.18 31.765l13.178 10.535-2.151-9.095Z" fill="#7FCBB4"/><path d="M428.389 127.775s-2.749-13.641-4.964-17.233c-2.199-3.577-1.213-21.086 1.536-26.604 2.748-5.518-11.626-13.949-11.626-13.949s4.156 29.241 3.751 36.556l-.695 3.301s-8.537-7.573-19.435-13.642c-10.882-6.068-13.776-14.191-13.776-14.191s-.825 7.573-.825 7.993c0 .421 5.094 6.069 15.992 13.367 10.898 7.298 17.365 13.366 17.786 19.839.42 6.473 11.576 8.819 12.272 8.819.695 0-.016-4.256-.016-4.256ZM362.209 88.145s.13-13.237.194-18.14c.065-4.903 5.87-29.937 5.87-29.937l-5.352-4.692s-8.602 39.888-2.231 55.132l1.519-2.363Z" fill="#7FCBB4"/><path d="M363.842 90.104s-17.802-23.869-20.05-26.312c-2.263-2.444-16.977-36.313-16.977-36.313l-4.285 7.913 17.172 25.147-18.676-7.347v4.515c.615-3.447 32.144 14.613 37.949 38.368l5.32-2.508-.453-3.463ZM362.92 26.007S349.969 7.883 350.923.31h-4.414s4.139 19.499 16.395 28.593c0 0-4.689-5.647-18.74-8.544-14.051-2.896-20.955-4.968-20.955-4.968l3.59 10.276s22.329-4.887 36.105 9.71c13.776 14.612 7.276-5.406 7.276-5.406l-7.26-3.964ZM420.013 67.74s-3.929-33.982 7.713-47.996V.309c-4.043-.696-11.303 0-11.303 0s-.436 47.446-6.435 46.847c-5.982-.614 10.025 20.584 10.025 20.584Z" fill="#7FCBB4"/><path opacity=".34" d="m120.096 366.995-13.889 2.589 18.433-67.334 45.111 26.054c3.848 2.233 3.848 7.783 0 10.016l-49.655 28.675Z" fill="#A4A4A4"/><path d="m374.854.31.695 115.038 13.986 6.57L387.53.31h-12.676Z" fill="#D6F3EA"/><path d="M328.337 76.267 327.9 3.19l-.032-2.88h-9.2l.501 82.852 108.559 62.01-.081-13.237-99.31-55.667Z" fill="#D6F3EA"/><path d="m307.252 87.758 132.133 75.408L438.399.31h-11.545l.874 144.862-49.93-28.481L377.102.31h-9.07l.679 111.187-49.574-28.303L318.635.31h-11.916l.533 87.448Z" fill="#EEE"/><path d="M461.439 242.539 462.716 393H190.899l270.54-150.461Z" fill="#42547C"/><path d="m460.985 225.224-3.233 40.066L246.795 393h-55.67l269.86-167.776Z" fill="silver"/><path d="M238.756 79.376s22.41-7.395 19.111-38.254c0 .016-27.923 15.227-19.111 38.254Z" fill="#5CAA93"/><path opacity=".34" d="M244.074 154.283c11.984 0 21.699-3.101 21.699-6.926s-9.715-6.926-21.699-6.926c-11.984 0-21.699 3.101-21.699 6.926s9.715 6.926 21.699 6.926Z" fill="#C97D7F"/><path d="m265.189 118.99-54.279-1.586 8.764 26.878c.323 2.492 2.134 4.92 5.433 6.829 7.292 4.207 19.095 4.24 26.339.049 3.04-1.748 4.802-3.981 5.271-6.263l8.472-25.907Z" fill="snow"/><path d="M265.19 118.99c-7.535 15.033-15.054 30.082-27.148 35.293 4.851.048 9.718-.987 13.404-3.123 3.04-1.748 4.802-3.981 5.271-6.263l8.473-25.907Z" fill="#EDE1E1"/><path d="M265.766 115.842c.047-8.776-12.235-15.957-27.434-16.04-15.199-.082-27.558 6.966-27.605 15.742-.048 8.777 12.235 15.958 27.433 16.04 15.199.083 27.558-6.965 27.606-15.742Z" fill="#fff"/><path d="M261.675 115.311c.041-7.534-10.502-13.698-23.549-13.769-13.047-.071-23.656 5.979-23.697 13.513-.04 7.534 10.503 13.699 23.549 13.77 13.047.071 23.656-5.98 23.697-13.514Z" fill="#6D6058"/><path d="M238.497 53.307v65.796" stroke="#7FCBB4" stroke-width="12.138" stroke-miterlimit="10" stroke-linecap="round" stroke-linejoin="round"/><path d="M238.237 100.898s1.019-23.577-28.991-31.425c0 0 4.35 31.49 28.991 31.425Z" fill="#7FCBB4"/><path d="M239.061 92.29s23.364-3.301 25.596-34.258c0 .016-30.172 10.05-25.596 34.258ZM238.722 74.263s10.462-22.315-15.328-41.944c0 .016-8.473 32.121 15.328 41.944Z" fill="#7FCBB4"/><path d="m238.786 72.92-14.827-39.242" stroke="#5CAA93" stroke-width="2.428" stroke-miterlimit="10" stroke-linecap="round" stroke-linejoin="round"/><path opacity=".34" d="m26.364 373.678 23.429-13.528c1.471-.857 1.293-2.362-.42-3.349L5.02 331.184c-1.714-.987-4.317-1.1-5.789-.242l-23.429 13.528c-1.471.857-1.293 2.362.42 3.349l44.352 25.617c1.698 1.003 4.301 1.1 5.789.242Z" fill="#939393"/><path d="M-29.888 346.59v-.048l.097-2.104 1.65.275 22.685-13.091c1.471-.858 4.09-.745 5.788.243l43.382 25.049 2.49.421-.097 2.023c0 .55-.324 1.068-.987 1.456l-23.429 13.528c-1.471.858-4.09.745-5.788-.242l-44.352-25.617c-.97-.517-1.439-1.229-1.439-1.893Z" fill="snow"/><path d="m21.773 372.319 23.429-13.528c1.471-.858 1.293-2.363-.42-3.35L.43 329.825c-1.714-.987-4.317-1.1-5.789-.243l-23.428 13.528c-1.472.858-1.294 2.363.42 3.35l44.352 25.616c1.697.987 4.317 1.101 5.788.243Z" fill="#5B78B7"/><path d="m15.79 371.979 29.184-16.392L.106 329.679l-28.797 16.587 44.48 25.713Z" fill="#E4EDFF"/><path d="M30.519 349.454-.606 331.492l-19.97 11.505 51.095 6.457Z" fill="#fff"/><path d="M-7.56 350.393 10 340.263c.808-.469.71-1.295-.227-1.845L4 335.085c-.938-.55-2.361-.599-3.186-.13l-17.543 10.13c-.809.47-.712 1.295.226 1.845l5.773 3.334c.937.534 2.36.598 3.169.129Z" fill="#EDE1E1"/><path d="m4.13 336.962-10.59 6.133M6.087 338.628l-5.514 3.204" stroke="#fff" stroke-width="1.922" stroke-miterlimit="10" stroke-linecap="round" stroke-linejoin="round"/><path d="m6.072 358.549 17.56-10.13c.808-.47.711-1.295-.227-1.845l-5.772-3.334c-.938-.55-2.36-.598-3.185-.129l-17.56 10.13c-.808.469-.711 1.295.226 1.845l5.773 3.333c.938.534 2.36.599 3.185.13Z" fill="#FFAC80"/><path d="M3.902 356.563c2.188-.011 3.956-1.05 3.95-2.319-.008-1.269-1.787-2.288-3.975-2.276-2.187.012-3.955 1.05-3.949 2.319.007 1.269 1.786 2.288 3.974 2.276Z" fill="#fff"/><path d="m17.746 345.118-10.59 6.149M19.703 346.785l-5.497 3.204" stroke="#fff" stroke-width="1.922" stroke-miterlimit="10" stroke-linecap="round" stroke-linejoin="round"/><path d="m19.685 366.704 17.56-10.13c.808-.469.711-1.295-.226-1.845l-5.773-3.333c-.938-.55-2.36-.599-3.185-.13l-17.56 10.13c-.808.47-.711 1.295.227 1.845l5.772 3.334c.954.534 2.377.598 3.185.129Z" fill="#EDE1E1"/><path d="M17.517 364.719c2.187-.012 3.955-1.05 3.948-2.32-.006-1.269-1.785-2.288-3.973-2.276-2.188.012-3.956 1.05-3.95 2.319.008 1.269 1.787 2.289 3.975 2.277Z" fill="#fff"/><path d="m31.376 353.273-10.59 6.15M33.333 354.956l-5.514 3.188" stroke="#fff" stroke-width="1.922" stroke-miterlimit="10" stroke-linecap="round" stroke-linejoin="round"/><path d="M347.317 149.978c.502 2.249-.921 4.498-2.085 4.757-1.148.259-.405-1.828-.906-4.078-.501-2.249-2.069-3.819-.905-4.078 1.164-.259 3.395 1.149 3.896 3.399Z" fill="#CC6269"/><path d="M339.379 150.382s-.146-5.745 2.312-8.172" stroke="#CC6269" stroke-width="3.957" stroke-miterlimit="10" stroke-linecap="round" stroke-linejoin="round"/><path opacity=".34" d="M84.017 259.588 209.6 187.076c1.456-.841 4.01-.728 5.692.243L288.83 229.7c1.681.971 1.859 2.443.404 3.285l-115.722 70.748a18.148 18.148 0 0 1-13.355 2.249c-.793-.113-1.553-.356-2.199-.728l-73.537-42.381c-1.665-.955-1.86-2.444-.404-3.285Z" fill="#989898"/><path d="m71.71 250.931 3.105 1.958 1.294-4.402H71.37l.34 2.444ZM180.968 92.427l-3.105-1.974-5.336 5.016 6.646 1.036 1.795-4.078Z" fill="#463757"/><path d="m75.916 250.963 123.482-71.298c2.733-1.57 4.075-5.923 3.008-9.644l-21.812-75.684c-1.067-3.722-4.188-5.486-6.921-3.916L49.868 162.35c-2.733 1.57-3.541 4.45-2.458 8.188l21.602 76.509c1.067 3.738 4.171 5.502 6.904 3.916Z" fill="#5B78B7"/><path d="m79.101 252.986 123.483-71.298c2.732-1.57 4.074-5.923 3.007-9.644L183.779 96.36c-1.067-3.722-4.188-5.486-6.92-3.916L52.196 164.55c-2.733 1.57-3.282 3.674-2.199 7.412l22.184 77.107c1.083 3.738 4.188 5.502 6.92 3.916Z" fill="#E4EDFF"/><path d="m198.785 148.401-14.989-52.042c-1.067-3.721-4.188-5.485-6.92-3.916l-79.552 46.022 101.461 9.936Z" fill="#fff"/><path d="M77 256.886v-4.029l18.125 10.551 1.035-2.379 120.686-69.68c1.455-.841 4.349-.728 6.014.243l52.291 30.001v-.841l7.939 3.851 1.116-.453-.146 3.657c-.129.793-.436 1.133-.922 1.408l-125.6 72.706c-1.455.842-4.01.825-5.692-.145L78.94 260.107c-1.956-1.004-1.94-3.221-1.94-3.221Z" fill="#4B6499"/><path d="M77 256.886v-4.029l18.126 10.55 1.034-2.378 59.195-34.177 2.183 75.085c-.728.421-1.73.631-2.765.615-1.035-.016-2.086-.259-2.927-.745L78.94 260.106c-1.956-1.003-1.94-3.22-1.94-3.22Z" fill="#5B78B7"/><path d="m77.97 252.646 125.584-72.512c1.455-.841 4.01-.728 5.691.243l73.537 42.381c1.681.971 1.859 2.443.404 3.285l-125.585 72.512c-1.455.841-4.01.728-5.691-.243l-73.537-42.381c-1.665-.971-1.86-2.46-.404-3.285Z" fill="#A4BAEA"/><path d="M209.355 200.555c.178.114.55.065.825-.097l7.632-4.401c.275-.162.356-.373.161-.486l-5.044-2.913c-.178-.113-.55-.064-.825.098l-7.632 4.401c-.274.162-.355.372-.161.485l5.044 2.913ZM200.511 213.679c.178.113.55.065.825-.097l7.631-4.402c.275-.161.356-.372.162-.485l-5.045-2.913c-.178-.097-.55-.065-.824.097l-7.632 4.402c-.275.162-.356.372-.178.485l5.061 2.913ZM204.99 219.148c.178.114.55.065.825-.097l7.631-4.401c.275-.162.356-.373.162-.486l-5.061-2.913c-.178-.097-.55-.064-.824.097l-7.632 4.402c-.275.162-.356.372-.178.469l5.077 2.929ZM217.085 220.2c.177.098.549.065.824-.097l7.632-4.401c.275-.162.34-.372.162-.469l-5.045-2.913c-.178-.097-.55-.065-.825.097l-7.631 4.401c-.275.162-.34.373-.162.486l5.045 2.896ZM238.071 217.126c.177.113.549.064.824-.098l7.632-4.401c.275-.162.356-.372.162-.486l-5.934-3.43c-.178-.097-.55-.065-.825.097l-7.632 4.401c-.275.162-.339.373-.161.486l5.934 3.431ZM224.908 224.715c.178.113.615.016.987-.194l9.992-5.761c.356-.211.501-.469.323-.567l-5.934-3.43c-.177-.097-.63-.016-.986.178l-9.992 5.761c-.356.21-.502.469-.324.566l5.934 3.447ZM159.297 262.646c.145.08.501.032.776-.13l7.615-4.401c.275-.162.388-.356.227-.454l-2.199-1.262c-.146-.081-.502-.032-.776.13l-7.616 4.401c-.275.162-.372.356-.226.453l2.199 1.263ZM149.111 268.682c.146.081.501.032.776-.13l7.616-4.401c.275-.162.388-.356.226-.453l-2.199-1.263c-.145-.08-.501-.032-.776.13l-7.616 4.401c-.274.162-.371.356-.226.453l2.199 1.263ZM138.31 274.766c.145.081.485.016.759-.129l7.616-4.402c.275-.162.388-.356.243-.437l-2.119-1.213c-.145-.081-.485-.017-.759.129l-7.616 4.402c-.275.161-.372.356-.243.436l2.119 1.214ZM144.938 266.352c.146.08.485.016.76-.13l7.616-4.401c.275-.162.388-.356.243-.437l-2.119-1.214c-.145-.081-.485-.016-.76.129l-7.615 4.402c-.275.162-.372.356-.243.437l2.118 1.214ZM172.473 254.976c.178.113.55.064.825-.097l49.623-28.627c.275-.161.355-.372.161-.485l-5.934-3.431c-.178-.097-.566-.064-.824.097l-49.623 28.627c-.275.161-.356.372-.178.485l5.95 3.431Z" fill="#849FDA"/><path d="M226.283 222.822c.017 0 .049 0 .081-.017l5.821-3.365c.033-.017.049-.033.033-.049l-.372-.21c-.017 0-.049 0-.081.016l-5.821 3.366c-.032.016-.049.032-.032.048l.371.211ZM241.225 213.565h.048l2.474-1.424c.016 0 .016-.016 0-.032l-.372-.211h-.048l-2.474 1.424c-.016 0-.016.017 0 .033l.372.21ZM206.623 226.22c.178.097.55.064.825-.098l7.631-4.401c.275-.162.356-.372.162-.486l-5.045-2.912c-.178-.097-.566-.065-.824.097l-7.632 4.401c-.275.162-.356.372-.162.486l5.045 2.913ZM196.129 232.272c.178.097.55.065.825-.097l7.615-4.402c.275-.162.356-.372.178-.485l-5.045-2.913c-.178-.097-.566-.065-.824.097l-7.616 4.402c-.275.161-.339.372-.162.485l5.029 2.913ZM185.636 238.34c.178.097.55.065.825-.097l7.632-4.402c.275-.161.339-.372.161-.469l-5.044-2.913c-.178-.097-.55-.064-.825.097l-7.632 4.402c-.275.162-.339.372-.161.485l5.044 2.897ZM175.126 244.392c.178.097.549.065.824-.097l7.632-4.401c.275-.162.356-.372.162-.486l-5.045-2.912c-.178-.098-.55-.065-.825.097l-7.631 4.401c-.275.162-.34.372-.162.486l5.045 2.912ZM164.633 250.461c.178.097.55.064.825-.097l7.615-4.402c.275-.162.34-.372.162-.469l-5.045-2.913c-.178-.097-.55-.065-.824.097l-7.616 4.402c-.275.161-.356.372-.178.485l5.061 2.897ZM154.139 256.513c.177.097.549.065.824-.097l7.616-4.402c.275-.161.356-.372.162-.485l-5.045-2.913c-.178-.097-.55-.065-.825.097l-7.615 4.402c-.275.162-.356.372-.162.485l5.045 2.913ZM130.483 270.154c.178.097.55.065.825-.097l20.777-11.991c.275-.162.356-.372.162-.485l-5.045-2.913c-.178-.097-.55-.065-.825.097L125.6 266.756c-.275.162-.355.372-.161.485l5.044 2.913ZM194.529 225.168c.177.113.549.065.824-.097l7.632-4.401c.275-.162.356-.373.162-.47l-5.061-2.912c-.178-.098-.55-.065-.825.097l-7.632 4.401c-.275.162-.339.372-.161.469l5.061 2.913ZM184.034 231.22c.178.114.55.065.825-.097l7.632-4.401c.275-.162.355-.372.161-.469l-5.06-2.913c-.178-.097-.55-.065-.825.097l-7.632 4.401c-.275.162-.339.373-.161.47l5.06 2.912ZM173.541 237.288c.178.114.55.065.825-.097l7.632-4.401c.274-.162.355-.372.177-.486l-5.06-2.912c-.178-.098-.566-.065-.825.097l-7.632 4.401c-.275.162-.356.372-.178.469l5.061 2.929ZM163.031 243.341c.178.113.55.064.824-.097l7.616-4.402c.275-.162.356-.372.162-.485l-5.061-2.913c-.178-.097-.55-.065-.825.097l-7.615 4.401c-.275.162-.356.373-.162.47l5.061 2.929ZM152.538 249.393c.177.113.549.065.824-.097l7.632-4.402c.275-.162.356-.372.162-.469l-5.061-2.913c-.178-.097-.55-.065-.825.097l-7.632 4.402c-.274.162-.355.372-.161.469l5.061 2.913ZM142.045 255.461c.177.113.549.064.824-.097l7.616-4.402c.275-.162.356-.372.178-.485l-5.061-2.913c-.178-.097-.55-.065-.825.097l-7.615 4.402c-.275.161-.34.372-.162.469l5.045 2.929ZM131.534 261.513c.178.114.55.065.825-.097l7.632-4.401c.275-.162.355-.372.161-.469l-5.06-2.913c-.178-.097-.55-.065-.825.097l-7.632 4.401c-.275.162-.339.373-.161.47l5.06 2.912ZM190.067 219.715c.177.113.549.064.824-.097l7.632-4.402c.275-.162.339-.372.162-.469l-5.045-2.913c-.178-.097-.55-.065-.825.097l-7.631 4.402c-.275.161-.356.372-.178.469l5.061 2.913ZM179.572 225.767c.178.113.55.065.825-.097l7.631-4.402c.275-.162.356-.372.162-.485l-5.045-2.913c-.178-.097-.549-.065-.824.097l-7.632 4.402c-.275.161-.34.372-.162.469l5.045 2.929ZM169.063 231.835c.177.114.549.065.824-.097l7.616-4.401c.275-.162.339-.373.162-.486l-5.045-2.913c-.178-.097-.55-.064-.825.097l-7.615 4.402c-.275.162-.356.372-.178.485l5.061 2.913ZM158.568 237.887c.178.113.55.065.825-.097l7.631-4.402c.275-.161.356-.372.162-.485l-5.045-2.913c-.177-.097-.549-.065-.824.097l-7.632 4.402c-.275.162-.34.372-.162.469l5.045 2.929ZM148.075 243.939c.178.114.55.065.824-.097l7.632-4.401c.275-.162.356-.373.162-.486l-5.045-2.913c-.178-.097-.55-.064-.824.097l-7.632 4.402c-.275.162-.34.372-.162.469l5.045 2.929ZM137.566 250.008c.178.113.55.064.841-.097l7.632-4.402c.274-.162.355-.372.161-.485l-5.044-2.913c-.178-.097-.55-.065-.825.097l-7.632 4.401c-.275.162-.356.373-.178.486l5.045 2.913ZM127.071 256.06c.178.113.55.065.825-.097l7.631-4.402c.275-.162.356-.372.162-.485l-5.045-2.913c-.178-.097-.549-.065-.824.097l-7.632 4.402c-.275.161-.34.372-.162.469l5.045 2.929ZM211.004 207.627c.178.113.55.065.825-.097l12.935-7.46c.275-.162.356-.372.162-.485l-5.045-2.913c-.178-.097-.55-.065-.825.097l-12.935 7.46c-.275.162-.356.372-.178.485l5.061 2.913ZM109.609 258.099c.178.113.55.065.825-.097l12.935-7.46c.275-.162.356-.372.162-.485l-5.045-2.913c-.178-.114-.566-.065-.825.097l-12.935 7.46c-.275.162-.355.372-.161.485l5.044 2.913ZM215.483 213.08c.178.113.55.065.825-.097l15.409-8.9c.275-.162.355-.372.161-.486l-5.06-2.913c-.178-.097-.55-.064-.825.098l-15.409 8.9c-.275.162-.356.372-.178.469l5.077 2.929ZM227.578 214.132c.178.097.55.065.825-.097l10.283-5.923c.275-.162.356-.372.162-.485l-5.045-2.913c-.178-.097-.55-.065-.824.097l-10.284 5.923c-.275.161-.356.372-.162.485l5.045 2.913ZM198.861 206.607c.178.113.55.065.825-.097l7.615-4.402c.275-.161.356-.372.162-.485l-5.045-2.913c-.177-.113-.549-.065-.824.097l-7.616 4.402c-.275.162-.355.372-.161.485l5.044 2.913ZM188.401 212.627c.178.113.55.065.825-.097l7.632-4.402c.275-.161.355-.372.161-.485l-5.044-2.913c-.178-.113-.55-.065-.825.097l-7.632 4.402c-.275.162-.355.372-.161.485l5.044 2.913ZM177.907 218.695c.178.114.55.065.825-.097l7.631-4.401c.275-.162.356-.372.162-.486l-5.045-2.912c-.178-.114-.549-.065-.824.097l-7.632 4.401c-.275.162-.34.372-.162.469l5.045 2.929ZM167.414 224.747c.178.113.55.065.825-.097l7.615-4.401c.275-.162.356-.373.162-.486l-5.045-2.913c-.178-.113-.55-.064-.824.097l-7.616 4.402c-.275.162-.356.372-.162.485l5.045 2.913ZM156.919 230.799c.177.114.549.065.824-.097l7.616-4.401c.275-.162.356-.372.162-.486l-5.045-2.912c-.178-.114-.55-.065-.825.097l-7.615 4.401c-.275.162-.34.372-.162.469l5.045 2.929ZM146.41 236.868c.178.113.55.064.825-.097l7.631-4.402c.275-.162.34-.372.162-.469l-5.045-2.913c-.177-.113-.549-.065-.824.097l-7.632 4.402c-.275.161-.356.372-.162.469l5.045 2.913ZM135.917 242.92c.178.113.55.065.825-.097l7.631-4.402c.275-.161.356-.372.162-.485l-5.045-2.913c-.178-.113-.549-.065-.824.097l-7.632 4.402c-.275.162-.356.372-.162.485l5.045 2.913ZM125.424 248.972c.177.113.549.064.824-.097l7.632-4.402c.275-.162.339-.372.162-.469l-5.045-2.913c-.178-.113-.55-.065-.825.097l-7.632 4.402c-.274.161-.339.372-.161.469l5.045 2.913ZM119.31 254.328c.129-.081.275-.129.452-.146.162-.016.291 0 .372.049l5.045 2.913c.081.048.129.129.097.226s-.129.178-.259.259l-1.988 1.149 6.629 3.835c.081.049.113.13.081.227-.033.097-.13.178-.259.259l-5.142 2.961a1.076 1.076 0 0 1-.453.146.71.71 0 0 1-.388-.049l-12.013-6.942c-.081-.049-.113-.129-.081-.227.032-.097.129-.178.259-.258l7.648-4.402Z" fill="#849FDA"/><path d="M228.936 211.672c.016 0 .048 0 .081-.016l5.821-3.366c.032-.016.048-.032.032-.048l-.372-.211c-.016 0-.049 0-.081.016l-5.821 3.366c-.032.016-.048.033-.032.049l.372.21Z" fill="#849FDA"/><path d="m199.171 261.546 29.493-17.023c1.584-.923 1.487-2.363-.227-3.22l-9.863-4.904c-1.714-.857-4.414-.792-6.015.114l-29.492 17.023c-1.584.923-1.487 2.363.227 3.221l9.863 4.903c1.714.857 4.414.809 6.014-.114Z" fill="#A68FE0"/><path opacity=".34" d="M147.737 181.299 125.65 194.65c-6.128 3.705-12.531.614-14.196-6.862l-2.134-9.482c-1.682-7.476 1.972-16.636 8.1-20.341l22.087-13.35c6.128-3.706 12.531-.615 14.196 6.861l2.135 9.482c1.665 7.477-1.973 16.636-8.101 20.341Z" fill="#E3CFCF"/><path d="m145.101 177.982-22.086 13.35c-6.129 3.706-12.531.615-14.197-6.861l-2.134-9.483c-1.682-7.476 1.972-16.635 8.101-20.341l22.086-13.35c6.128-3.706 12.531-.615 14.197 6.861l2.134 9.483c1.682 7.492-1.956 16.635-8.101 20.341Z" fill="#7FCBB4"/><path d="m127.689 176.413-2.975-13.221c-.243-1.068.533-2.314 1.423-2.314l12.321.065c.986 0 1.325 1.521.582 2.573l-9.362 13.156c-.679.954-1.746.809-1.989-.259Z" fill="#fff"/><path opacity=".34" d="m107.913 178.711-8.36 5.048c-4.963 3.01-7.922 10.422-6.564 16.474 1.358 6.052 6.533 8.56 11.513 5.566l8.359-5.048c.21-.13.42-.259.614-.405l-.064.081 5.513.437-1.778-4.483c2.199-3.527 3.169-8.107 2.28-12.104-1.359-6.068-6.533-8.56-11.513-5.566ZM156.955 133.028l-9.799 5.923c-3.929 2.378-6.257 8.236-5.19 13.026l.275 1.198c1.083 4.79 5.174 6.764 9.103 4.401l9.798-5.922c3.929-2.379 6.258-8.237 5.191-13.027l-.275-1.198c-1.084-4.806-5.19-6.78-9.103-4.401Z" fill="#E3CFCF"/><path d="m110.032 201.203-8.359 5.049c-4.964 3.01-10.154.502-11.513-5.566-1.358-6.053 1.585-13.48 6.565-16.474l8.359-5.049c4.964-3.009 10.154-.501 11.513 5.567 1.358 6.052-1.601 13.48-6.565 16.473Z" fill="#F37E60"/><path d="m110.583 200.88 5.514.436-1.779-4.482-3.735 4.046Z" fill="#FF9963"/><path d="M99.701 195.748c.348-1.108-.012-2.208-.804-2.458-.792-.249-1.717.448-2.065 1.556-.348 1.109.012 2.209.805 2.458.792.249 1.716-.447 2.064-1.556ZM104.705 192.72c.348-1.109-.012-2.209-.804-2.458-.792-.25-1.717.447-2.065 1.555-.348 1.109.012 2.209.805 2.458.792.25 1.716-.447 2.064-1.555ZM109.806 188.323c.226 1.019-.259 2.249-1.1 2.751-.841.501-1.698.08-1.924-.939-.226-1.02.259-2.249 1.1-2.751.84-.502 1.697-.081 1.924.939Z" fill="#fff"/><path d="m162.486 146.719-9.799 5.922c-3.929 2.379-8.019.389-9.103-4.401l-.275-1.198c-1.083-4.79 1.262-10.648 5.191-13.026l9.798-5.923c3.929-2.379 8.02-.388 9.103 4.402l.275 1.197c1.067 4.79-1.277 10.648-5.19 13.027Z" fill="#68CCEA"/><path d="m146.285 140.051 15.539-9.385M147.304 144.582l15.538-9.386M148.323 149.13l10.704-6.473" stroke="snow" stroke-width="2.428" stroke-miterlimit="10" stroke-linecap="round" stroke-linejoin="round"/><path opacity=".34" d="M53.837 297.204c1.33-10.876-12.392-21.508-30.652-23.746-18.26-2.239-34.14 4.763-35.472 15.639-1.331 10.875 12.392 21.507 30.651 23.746 18.26 2.238 34.141-4.763 35.472-15.639Z" fill="#5B78B7"/><path d="M16.08 310.319c17.104-.908 30.531-9.899 29.992-20.082-.54-10.183-14.843-17.702-31.946-16.794-17.104.908-30.531 9.899-29.992 20.082.54 10.183 14.842 17.702 31.946 16.794Z" fill="#5672B1"/><path d="M15.563 300.593c17.104-.907 30.532-9.898 29.992-20.081-.54-10.183-14.842-17.702-31.946-16.794-17.103.907-30.53 9.898-29.991 20.081.54 10.183 14.842 17.702 31.945 16.794Z" fill="#7B9DE5"/><path d="m20.163 267.316 4.01 9.385a1.92 1.92 0 0 1-.712 2.363l-11.447 7.444c-1.245.809-2.895-.049-2.96-1.522l-.517-11.651a1.89 1.89 0 0 1 .873-1.683l7.94-5.162a1.91 1.91 0 0 1 2.813.826Z" fill="#7694D4"/><path d="m17.012 264.127-4.204-2.055-9.524 6.295-1.196 13.027a2.097 2.097 0 0 0 .776 1.828l1.811 1.457c1.762 1.424 4.366.097 4.269-2.169l-.453-10.292 8.666-5.647c.938-.583.857-1.958-.145-2.444Z" fill="#5D7BBD"/><path d="m9.588 172.796-27.26 45.148 30.203 48.174" stroke="#5877B8" stroke-width="14.566" stroke-miterlimit="10" stroke-linecap="round" stroke-linejoin="round"/><path d="m2.086 169.236-27.875 49.808 32.532 50.958" stroke="#5877B8" stroke-width="14.566" stroke-miterlimit="10" stroke-linecap="round" stroke-linejoin="round"/><path d="m-18.82 170.336 20.357 12.929c5.481 3.48 12.822 1.845 16.298-3.641l.356-.55c3.476-5.485 1.843-12.816-3.638-16.295l-20.357-12.93c-5.481-3.479-12.822-1.844-16.298 3.641l-.356.551c-3.492 5.469-1.843 12.8 3.638 16.295Z" fill="#7694D4"/><path opacity=".68" d="m-8.957 154.461 12.095 7.121c.598.356 1.39.145 1.746-.453a1.289 1.289 0 0 0-.453-1.748l-12.094-7.12a1.286 1.286 0 0 0-1.746.453 1.284 1.284 0 0 0 .452 1.747Z" fill="#B7CDFE"/><path d="M36.401 193.307c9.274-13.467 13.591-26.592 9.643-29.315-3.949-2.724-14.668 5.985-23.942 19.452-9.274 13.466-13.59 26.591-9.642 29.315 3.948 2.723 14.667-5.986 23.941-19.452Z" fill="#8EA8E0"/><path d="m9.557 210.484-7.05-8.091c-8.682-9.985-9.119-24.71-1.034-35.164 7.405-9.596 20.195-13.253 31.562-9.062l10.493 3.884-33.97 48.433Z" fill="#88A5E5"/><path d="M33.884 191.349c9.273-13.467 13.59-26.592 9.642-29.315-3.948-2.724-14.667 5.985-23.941 19.452-9.274 13.466-13.591 26.591-9.643 29.315 3.949 2.723 14.668-5.986 23.942-19.452Z" fill="#5877B8"/><path d="M35.622 179.479c-.081 4.984-1.908 12.298-11.14 15.486-3.994 1.376-7.972-2.201-6.873-6.279 1.456-5.453 5.724-11.618 10.43-14.013 3.508-1.78 7.647.89 7.583 4.806Z" fill="#C7D8FB"/><path d="M19.58 181.502c9.282-13.464 20.002-22.186 23.947-19.468.744.502 1.18 1.376 1.374 2.557-5.028 1.084-13.533 8.884-21.068 19.839-7.535 10.956-11.803 21.668-11.01 26.749-1.165.243-2.135.146-2.879-.372-3.961-2.718.372-15.842 9.637-29.305Z" fill="#B7CDFE"/><path d="m106.143 319.452 40.551 9.887 8.78 5.631 2.442 1.764c.307.227.501.583.517.971.032.55.049 1.019-.178 1.165l-51.272 30.649a1.001 1.001 0 0 1-.533.129c-4.527 0-1.552-50.358-.307-50.196Z" fill="#A6603B"/><path d="m107.533 366.72 46.842-28.027c.631-.372.922-5.13.275-5.486l-67.376-38.06a.956.956 0 0 0-.954.016L35.37 325.229a.943.943 0 0 0 .016 1.635l70.335 39.888c.809.405 1.52.13 1.811-.032Z" fill="#A6603B"/><path d="m108.374 366.202 48.151-28.836c-2.523-4.483-2.361-8.043-.938-14.483l-45.839 28.61c-1.973 5.388-2.846 10.923-1.374 14.709Z" fill="snow"/><path d="m34.79 312.753 2.021-.016v.081l49.413-29.144a.956.956 0 0 1 .954-.016l69.769 39.419v-.421l1.309-.016.017 1.57h-.017a.943.943 0 0 1-.452.987l-50.949 30.066a.956.956 0 0 1-.954.016l-70.61-39.888a.923.923 0 0 1-.469-.761l-.032-1.877Z" fill="#C27750"/><path d="M106.143 330.359c.291-.178 50.803-7.298 50.803-7.298v-.421l1.309-.566.017 2.12h-.017a.943.943 0 0 1-.452.987l-50.949 30.066c-.145.081-1.698 1.133-1.875 1.133-.162-.016 1.164-26.021 1.164-26.021Z" fill="#A6603B"/><path d="m106.822 352.852 50.948-30.066a.943.943 0 0 0-.016-1.635l-70.335-39.743c-.291-.162-1.083-.21-1.374-.048l-50.787 29.953a.942.942 0 0 0 .016 1.634l70.61 39.889c.291.194.647.178.938.016Z" fill="#FFAC80"/><path d="m106.823 352.852 4.689-2.767-72.21-41.151-4.059 2.395a.942.942 0 0 0 .016 1.634l70.61 39.889a.956.956 0 0 0 .954 0Z" fill="#FFB994"/><path d="M109.731 349.162 40.075 309.5" stroke="#C77347" stroke-width="2.428" stroke-miterlimit="10" stroke-linecap="round" stroke-linejoin="round"/><path d="M106.434 352.981c-2.312 7.783-1.391 14.094-.227 16.619l-71.289-40.051s-3.816-10.097-.226-17.201l71.742 40.633Z" fill="#E38B5D"/><path d="M276.766 196.687c-8.715-8.706-8.246-10.098-18.06-13.788 0 0-16.315 35.164 7.405 29.84.566-.129 12.984-2.006 13.226-3.414.243-1.392 4.673-3.787-2.571-12.638Z" fill="#C79682"/><path d="M280.571 197.374s61.086 26.458 62.412 35.989l-6.403 18.156s-22.216-4.434-61.216-43.821l5.207-10.324Z" fill="#EFC0AC"/><path d="M244.644 273.85s-.728 4.887-4.543 3.075c-3.816-1.796-60.375-73.046-60.375-73.046l5.06-1.197 59.858 71.168Z" fill="#56446B"/><path d="m244.642 273.851 57.594-34.824.663-4.386-63.625-67.948-56.948 30.455-.646 4.369 62.962 72.334Z" fill="#4F6DAD"/><path d="m245.289 269.482 57.61-34.84-62.978-72.334-57.594 34.84 62.962 72.334Z" fill="#6683C2"/><path d="m187.598 308.675 52.501-31.733.663-4.515-65.581-70.068-51.288 29.111-.146 5.389 63.851 71.816Z" fill="#4F6DAD"/><path d="m187.712 304.5 53.05-32.073-62.024-73.806-54.845 32.849 63.819 73.03Z" fill="#6683C2"/><path d="M241.215 266.989s25.854-14.693 50.9-31.49c.097-.081.954-6.489.954-6.489-9.702-12.25-57.853-60.456-57.853-60.456l-50.431 24.839-.954 6.489 57.384 67.107Z" fill="#DED3D3"/><path d="M242.169 260.5c.34-4.838 26.404-22.331 50.9-31.49.809-.648-56.898-66.946-56.898-66.946-20.147 5.842-37.755 15.551-51.401 31.329l57.399 67.107Z" fill="#F7F7F7"/><path d="M238.854 246.438c.259-3.608 19.678-16.651 37.932-23.464.615-.485-42.395-49.889-42.395-49.889-15.005 4.353-28.134 11.586-38.304 23.351l42.767 50.002Z" fill="#EBE6E6"/><path d="M189.103 299.337s27.051-15.567 52.097-32.364c.097-.081-.243-5.615-.243-5.615-9.701-12.25-57.853-60.456-57.853-60.456l-51.401 31.328 57.4 67.107Z" fill="#DED3D3"/><path d="M190.072 292.848c-.437-2.751 24.528-22.995 50.9-31.49.808-.647-56.899-66.945-56.899-66.945-20.438 4.45-37.771 14.531-51.401 31.328l57.4 67.107Z" fill="#fff"/><path d="m283.319 201.436-4.592-6.781c-.598-1.407-4.576-2.702-5.675-3.689l-13.162-11.619a3.502 3.502 0 0 0-2.393-.874l-10.914.178c-1.083.016-1.746 1.165-1.245 2.136.501.955.873 1.295 2.231 1.877 3.073 1.344 9.152 2.687 9.152 2.687l3.994 5.502a7.84 7.84 0 0 0 2.005 1.925l13.873 9.143 4.543 2.088 2.183-2.573Z" fill="#EFC0AC"/><path d="M187.89 275.565c.259-3.608 19.678-16.651 37.932-23.464.615-.485-42.395-49.889-42.395-49.889-15.004 4.353-28.134 11.586-38.304 23.351l42.767 50.002Z" fill="#EBE6E6"/><path d="M305.214 154.719s-6.808 30.697 10.655 34.241c17.463 3.544 20.615-.615 20.615-.615s-9.054 1.246-15.15-1.149-14.843-6.634-13.436-21.554c1.406-14.92 1.406-14.936 1.406-14.936l-4.09 4.013Z" fill="#3D3D3D"/><path d="M356.502 196.484c2.296.696-3.784-52.737-2.862-54.938 1.245-2.961-32.257-21.441-28.862-24.354 6.872-5.89 10.073-10.874 8.004-14.418l-2.959-7.573s5.465-6.958-6.565-1.133c-3.816 1.845-22.038 8.787-18.82 30.293.889 5.89.21 19.726.485 26.458.937 23.091 13.889 34.16 51.579 45.665Z" fill="#3D3D3D"/><path d="m384.862 192.795-19.338-42.591c-1.553-8.82 1.73-15.341-7.099-13.787l-2.603.453c-8.812 1.553-18.804 9.579-17.252 18.399l9.944 43.74c1.552 8.819 37.9 2.605 36.348-6.214Z" fill="#EFC0AC"/><path d="M343.469 176.791s4.786-8.463 3.816-12.881c-1.601 1.845-3.444 3.398-5.821 4.127l2.005 8.754Z" fill="#C79682"/><path d="M318.746 103.842s-7.631 9.126-5.934 19.37c.324 1.958 1.245 6.812 1.747 9.062 1.196 5.388.145 6.408-1.553 11.796-.194.599-.776 1.764-3.427 5.697-.421.614-.292 1.456 0 2.152.614 1.456 2.101 3.641 5.642 3.188 1.553-.195 1.795 2.168 2.539 5.582 1.197 5.389 3.379 10.859 6.257 12.72 5.53 3.56 25.564-5.243 25.564-5.243l5.998-32.85-36.833-31.474Z" fill="#EFC0AC"/><path d="M325.634 172.649c-2.878-1.845-5.061-7.331-6.257-12.72-.76-3.398-1.003-5.777-2.539-5.582-3.541.453-5.028-1.716-5.643-3.188-.291-.68-.42-1.538 0-2.152 2.652-3.933 3.234-5.098 3.428-5.697 1.698-5.388 2.749-6.424 1.552-11.796-.501-2.266-1.422-7.12-1.746-9.062-1.309-7.946 2.975-15.195 4.964-18.076l-.647-.55s-7.631 9.127-5.934 19.37c.324 1.958 1.245 6.813 1.747 9.062 1.196 5.389.145 6.408-1.553 11.797-.194.599-.776 1.764-3.427 5.696-.421.615-.292 1.456 0 2.152.614 1.457 2.101 3.641 5.642 3.188 1.553-.194 1.795 2.168 2.539 5.583 1.197 5.388 3.379 10.858 6.257 12.719 5.53 3.56 25.564-5.243 25.564-5.243l.016-.081c-4.867 2.007-19.387 7.525-23.963 4.58Z" fill="#EDB7A0"/><path d="M326.038 134.215c-2.183-.55-6.128-.582-8.343-.566-2.522.016-2.361-2.573-.049-2.67 4.237-.178 5.805.259 8.683 1.618.728.34.615 1.845-.291 1.618Z" fill="#474747"/><path d="M319.054 138.941c.275 1.424.905 2.492 1.407 2.379.501-.097.695-1.327.42-2.735-.275-1.424-.905-2.492-1.407-2.379-.501.114-.695 1.311-.42 2.735Z" fill="#111A33"/><path d="M318.521 160.787c2.781-.227 3.557-.372 8.003-2.395 0 0-3.282 6.554-7.858 5.777l-.145-3.382Z" fill="#E97084"/><path d="M318.666 151.66s.307 1.893-1.196 3.058" stroke="#C79682" stroke-miterlimit="10"/><path d="M322.368 160.123s-3.444-1.877-4.737 0l.97 3.819 3.767-3.819Z" fill="#E97084"/><path d="M315.868 104.069s7.777-8.835 16.573-10.583Z" fill="#363636"/><path d="M315.868 104.069s7.777-8.835 16.573-10.583" stroke="#555" stroke-width="3.957" stroke-miterlimit="10" stroke-linecap="round" stroke-linejoin="round"/><path d="M343.986 144.783s-2.166 2.346-4.737 4.693c-4.237 3.851-5.999 9.434-4.754 15.243l.534 2.46c-.017 0 11.431-7.104 8.957-22.396Z" fill="#EDB7A0"/><path d="M314.736 141.53c.55 3.657 3.331 6.295 6.209 5.858 2.878-.437 4.786-3.738 4.252-7.412-.549-3.657-3.217-5.162-6.112-4.838-3.217.372-4.883 2.719-4.349 6.392ZM323.726 135.106l20.583-1.149" stroke="#F7F3F3" stroke-width="3.957" stroke-miterlimit="10"/><path d="m322.822 135.915 1.859-.097c.259-.016.469-.324.453-.68-.016-.356-.243-.647-.517-.631l-2.846.146c-4.495.097-1.164.323-.453.679.016.356 1.229.599 1.504.583ZM314.704 142.679c.307.68.873 1.084 1.261.906.388-.178.437-.858.13-1.537-.307-.68-.873-1.084-1.261-.906-.388.178-.437.857-.13 1.537Z" fill="#F7F3F3"/><path d="M324.568 209.026c9.152-4.111 16.994-8.949 24.238-14.047 41.554-4.741 42.152-26.797 42.152-26.797 19.532-7.735 27.277 4.175 36.93 33.675 2.361 7.217 9.491 93.29 9.491 93.29 0 .016 1.003 73.175-7.276 76.12l-92.519 20.325s3.396-34.387 1.261-58.676c-1.099-12.493-17.624-41.621-22.491-49.777-.339-.55-5.481 7.833-5.643 7.396-3.056-7.978-2.199-15.907 1.795-24.241-7.68-16.425-15.7-44.792 12.062-57.268Z" fill="#E97084"/><path d="M333.477 204.608c36.347-7.233 59.631 21.36 62.816-31.701 0 0-10.865-5.324-13.921 0-5.368 9.353-5.74 14.499-20.875 14.402-7.825-.048-17.85-.42-20.146 3.431l-7.874 13.868Z" fill="#D9CCFF"/><path d="M317.518 284.758s19.306 32.979 20.519 42.558c1.212 9.58-.453 62.35-.453 62.35l11.448-.081 16.266-49.452-26.227-78.839c-1.633-4.92-8.488 2.508-12.304 6.003l-21.198 17.639 6.048 4.029 5.901-4.207Z" fill="#D55F73"/><path d="M338.471 342.204c13.938 5.696 22.217.728 29.299-6.651l-18.756 57.22-77.789.227 42.071-13.577c13.841-4.046 23.51-16.506 24.011-30.924l1.164-6.295Z" fill="#55617D"/><path d="m462.714 393-113.684-.21c.113-1.91.469-4.418.906-6.327l20.761-87.756c3.751-15.891 15.215-31.782 28.651-39.759l63.366-37.543V393Z" fill="#6683C2"/><path d="M462.716 393h-80.457l12.951-82.286c5.659-23.933 39.776-39.08 60.019-51.071l7.487-4.094V393Z" fill="#5B78B7"/><path d="M390.262 143.359s.064 9.677-2.765 13.609c-3.363 4.661-22.944-21.117-46.033-25.292-22.588-4.094-25.563-19.775-25.596-27.607 0-2.411.889-4.71 2.765-6.813 7.131-7.994 29.638-12.46 49.801-4.951 22.232 8.285 21.715 37.429 21.828 51.054Z" fill="#474747"/><path d="M380.462 212.213s-22.426-8.981-18.918-26.328c3.509-17.347 2.345-20.147 2.345-20.147l3.751 4.612s-5.352 15.389-3.622 22.331c1.924 7.622 10.704 17.089 16.412 16.409 5.756-.68.032 3.123.032 3.123Z" fill="#363636"/><path d="M338.408 88.987c-17.139 3.673 4.899 9.046-.388 25.762-1.406 4.401 9.734 18.205 11.836 21.91 6.759 11.926-.873 11.425 13.323 28.06 4.042 4.741 2.765 17.865 3.493 25.001 2.247 22.008 39.856 44.194 57.335 33.708 9.96-.47 9.912-18.319 4.786-30.779-.841 4.58 7.583-12.169-12.224-27.914-5.934-4.709 1.86-14.774-15.991-32.51-9.912-9.838-7.923-19.823-19.079-32.153-11.933-13.157-23.979-15.163-43.091-11.085Z" fill="#474747"/><path d="M351.06 150.15c3.752-.25 6.5-4.854 6.139-10.285-.36-5.431-3.694-9.631-7.445-9.381-3.751.249-6.5 4.854-6.139 10.285.361 5.43 3.694 9.631 7.445 9.381Z" fill="#EFC0AC"/><path d="M351.555 140.349c.501 2.249-.922 4.498-2.086 4.757-1.164.259-.404-1.828-.906-4.078-.501-2.249-2.069-3.819-.905-4.078 1.148-.258 3.395 1.149 3.897 3.399Z" fill="#C79682"/><path d="M343.614 140.753s-.146-5.744 2.312-8.171" stroke="#C79682" stroke-miterlimit="10"/><path d="m341.35 190.74-7.89 13.868s9.54-1.23 11.755-1.246l6.613-15.681c.016 0-8.117-1.084-10.478 3.059Z" fill="#EAE3FF"/><path d="M413.431 333.45s27.762 7.412 49.105 17.995v-14.03c-11.173-5.275-27.407-8.9-49.105-3.965ZM462.714 293.658c-8.101-12.347-15.748-21.393-15.748-20.891.177 13.399 4.85 28.076 10.623 41.183-12.192-11.586-31.773-24.467-56.883-21.732 0 0 36.607 14.823 61.992 36.927v-35.487h.016Z" fill="#7FCBB4"/><path d="M462.537 365.135v-16.263c-15.587-4.256-36.041-4.175-57.287 11.683 0-.016 30.656-.048 57.287 4.58Z" fill="#7FCBB4"/><path d="M201.714 283.965s68.621 21.279 71.208 31.927l-5.142 21.312s-25.692-2.444-74.458-42.608l8.392-10.631Z" fill="#EFC0AC"/><path d="M295.867 328.87s-4.301 11.635-13.905 11.878c-9.605.226-29.767-2.719-23.704-28.82 3.282-14.111 11.124-9.143 11.124-9.143l15.684 20.438 10.801 5.647Z" fill="#D9CCFF"/><path d="M295.866 328.87s-8.343-2.784-17.948-2.557c-9.604.227-25.725 11.7-19.661-14.402 3.282-14.111 11.124-9.143 11.124-9.143l15.684 20.438 10.801 5.664Z" fill="#EAE3FF"/><path d="M349.677 237.587c-9.702 21.441-28.522 43.757-38.66 65.004-3.655 7.67-7.47 15.275-11.335 22.849-1.245 2.152-2.91 3.867-4.996 5.129-1.908 1.651-4.123 2.703-6.662 3.188-4.478 1.036-10.267.292-14.131-2.362-3.994-2.735-7.422-6.748-8.327-11.651-.162-1.667-.308-3.334-.469-5.001.145-3.285 1.099-6.327 2.829-9.126 5.19-10.147 10.251-20.341 15.005-30.698a512.093 512.093 0 0 1-2.005 4.353c5.772-12.573 10.93-25.406 16.444-38.092 2.086-4.79 4.204-9.564 6.354-14.322a14.096 14.096 0 0 1 3.509-6.197 13.939 13.939 0 0 1 5.449-4.693c2.248-1.327 4.641-1.991 7.195-2.007a13.788 13.788 0 0 1 7.276.599c4.479 1.602 8.764 4.547 10.898 8.965.598 1.57 1.181 3.139 1.779 4.693.744 3.301.63 6.553-.356 9.774l10.203-.405Z" fill="#E97084"/><path d="M156.036 278.318s-6.936-5.729-7.26-12.671l8.311 7.541-1.051 5.13Z" fill="#EFC0AC"/><path d="M156.022 278.43c.065.065.695.146.76.227-.55.194-2.636.939-.986 3.285.21.485.485.712.808 1.003.21.243.453.486.728.745 0 0-.938.582-.841 1.634-.016.097-.016.21-.032.324.824 1.634 1.261 2.039 2.829 2.686-.744.906.404 2.217 1.472 3.107 1.067.874 3.104 1.731 4.268 2.136 3.945 1.553 8.877 2.977 8.877 2.977l22.103-.598s6.532-6.117 5.691-11.975c-.84-5.858-24.269-15.308-24.382-15.341-.049-.064-1.65-.679-2.086-.793-1.472-.388-2.943-.76-4.43-1.149-3.234-.954-13.631-6.294-13.34-6.165 0 0-2.134 1.893.631 4.758 3.363 3.463 11.738 8.026 11.577 8.123-1.811 1.149-4.754.178-10.866-.065-4.786-.226-2.781 5.081-2.781 5.081Z" fill="#EFC0AC"/><path d="m164.542 280.794-.049.226-8.505-2.476.049-.226 8.505 2.476ZM166.048 286.101l-.049.226-8.505-2.492.049-.21 8.505 2.476ZM168.6 291.652l-.048.226-8.505-2.476.048-.226 8.505 2.476ZM170.961 273.835l-1.261-.437s-2.264.744-7.179-.421c-4.932-1.181-5.433.227-5.433.227s7.535 3.56 11.27 2.848c4.414-.842 2.603-2.217 2.603-2.217Z" fill="#C79682"/><path d="m160.146 261.812 1.374.825c.421.259.566.761.34 1.133-.226.372-.76.469-1.18.21l-1.375-.825c-.42-.259-.566-.761-.339-1.133.242-.356.776-.453 1.18-.21Z" fill="#FFC2CD"/><path d="M200.906 284.968s.405-3.528-1.633-5.308c-2.037-1.78-10.995-8.447-24.027-11.845 0 0 15.328 6.796 18.061 10.502 2.732 3.706 7.599 6.651 7.599 6.651Z" fill="#C79682"/><path d="M339.329 259.562s6.581-35.859-12.531-50.973" stroke="#D55F73" stroke-miterlimit="10" stroke-linecap="round" stroke-linejoin="round"/><path d="m64.749 311.053 27.358-15.793c1.471-.842 1.277-2.347-.42-3.318-1.698-.971-4.285-1.084-5.757-.242l-27.358 15.793c-1.471.842-1.277 2.347.42 3.318 1.699.987 4.286 1.084 5.757.242ZM126.482 314.533c-1.002-.583-2.555-.648-3.428-.146l-29.347 16.959c-.873.501-.76 1.391.243 1.974 1.003.582 2.555.647 3.428.146l29.363-16.959c.873-.502.76-1.392-.259-1.974ZM137.397 320.99c-1.003-.583-2.555-.648-3.428-.146l-29.363 16.959c-.873.501-.76 1.391.243 1.974 1.002.583 2.554.647 3.427.146l29.363-16.959c.873-.502.76-1.392-.242-1.974Z" fill="#FFDCC9"/><path opacity=".34" d="M93.726 324.016c9.412 0 17.042-3.405 17.042-7.606 0-4.2-7.63-7.605-17.042-7.605-9.412 0-17.042 3.405-17.042 7.605 0 4.201 7.63 7.606 17.042 7.606Z" fill="#6E5487"/><path d="m99.06 290.147-7.195-2.913c-.388-.161-.76-.323-1.131-.517a7.204 7.204 0 0 0-1.051-.437c-.033-.017-.065-.017-.098-.033a8.21 8.21 0 0 0-.856-.226c-5.886-1.263-13.13-.583-17.026 5.971-3.606 6.068-1.844 13.69-1.844 13.69 1.165 6.084 6.533 12.703 7.082 12.929 0 0 3.17 2.412 5.53 3.188 1.31.437 3.735.906 6.678 1.068 8.133.47 11.706-5.761 14.035-10.356.921-1.845 7.809-17.833-4.123-22.364Z" fill="#E46681"/><path d="m99.205 290.13-7.195-2.896c-.389-.162-.76-.324-1.132-.518a7.2 7.2 0 0 0-1.051-.437c-.033-.016-.065-.016-.097-.032a8.473 8.473 0 0 0-.857-.227 22.498 22.498 0 0 0-3.509-.485l6.047 2.443c11.933 4.515 4.932 20.471 4.107 22.364-4.77 11.036-15.312 10.567-14.018 11.214 3.33 1.651 4.834 1.133 7.777 1.311 8.133.469 11.706-5.761 14.035-10.357.937-1.861 7.825-17.849-4.107-22.38Z" fill="#E3758C"/><path d="M89.278 293.302c-1.019.583-2.668.583-3.687 0-1.018-.583-1.034-1.537-.016-2.136 1.019-.583 2.668-.583 3.687 0 1.035.599 1.035 1.553.016 2.136Z" fill="#E3758C"/><path d="M87.483 291.959c-.032-.194-.615-4.871 3.007-6.975" stroke="#463757" stroke-width="3.757" stroke-miterlimit="10" stroke-linecap="round" stroke-linejoin="round"/><path d="M76.408 294.612a.83.83 0 0 1-.825.826.83.83 0 0 1-.824-.826c0-.453.372-.825.824-.825.47 0 .825.372.825.825ZM80.222 296.263a.83.83 0 0 1-.824.826.83.83 0 0 1-.825-.826c0-.453.372-.825.825-.825.453 0 .825.356.825.825ZM77.248 298.562a.828.828 0 0 1-.825.825.828.828 0 0 1-.824-.825.83.83 0 0 1 .824-.826.83.83 0 0 1 .825.826ZM74.224 300.05a.83.83 0 0 1-.824.826.83.83 0 0 1-.825-.826c0-.453.372-.825.825-.825.453 0 .824.372.824.825ZM78.04 301.701a.828.828 0 0 1-.824.825.828.828 0 0 1-.824-.825.83.83 0 0 1 .824-.826c.453 0 .825.356.825.826Z" fill="#FA909C"/><path d="M45.572 318.514s-.42 12.444 2.846 18.625l8.36 4.693s-3.51-14.062-3.008-18.674l-8.198-4.644Z" fill="snow"/><path d="m110.765 356.93 43.801-26.539M111.203 360.7l43.802-26.538" stroke="#BFB1A8" stroke-width="2.428" stroke-miterlimit="10" stroke-linecap="round" stroke-linejoin="round"/></g><defs><clipPath id="a"><path fill="#fff" d="M0 0h427v393H0z"/></clipPath></defs></svg>