<svg width="292" height="193" fill="none" xmlns="http://www.w3.org/2000/svg"><g clip-path="url(#a)"><path d="M220.385 139.11c25.142 25.412 66.103 25.617 91.492.461 25.387-25.153 25.59-66.146.448-91.559-25.141-25.412-66.105-25.618-91.492-.464-25.389 25.157-25.589 66.15-.448 91.562Z" fill="#BBEAF9"/><path d="M107.686 198.188c18.082 18.276 47.673 18.297 66.098.041 18.42-18.251 18.695-47.863.613-66.14s-47.674-18.297-66.094-.045c-18.425 18.255-18.699 47.867-.617 66.144Z" fill="#C5EAF5"/><g clip-path="url(#b)"><path d="m145.147 112.936-21.651 24.72-63.312 72.292 65.381-2.007s16.07-32.32 23.194-46.346c8.423-16.58 18.314-35.164 21.381-37.317 5.668-3.973 15.096-7.249 18.129-12.084l-43.122.746v-.004Z" fill="#FFB098"/><path d="M57.828 208.272s66.288-76.873 72.005-79.678l28.43 17.015s-17.721 53.349-26.823 66.171c-9.101 12.818-72.048 5.574-72.048 5.574l-1.56-9.083-.004.001Z" fill="#6787C3"/><path d="M202.974 85.317a8.397 8.397 0 0 1-5.948-1.637l-14.753-11.106a16.323 16.323 0 0 0-11.883-2.962l-11.787 1.665a6.348 6.348 0 0 0-4.443 2.843l-3.58 5.559-3.177.792c-2.464.475-4.336 1.735-4.666 3.982-.322 2.2.93 4.648 2.997 5.265-1.808.386-3.105 2.044-3.082 3.723.058 4.36 3.781 5.23 3.781 5.23-1.864.147-3.086 1.194-3.288 2.587-.124.857-.181 2.369 1.38 3.542-.617.099-1.106.456-1.566.967-.748.828-.467 3.037-.24 4.422 0 0 .186 4.017 3.754 4.776l19.732 3.697s9.454 1.743 22.756-4.518a8.56 8.56 0 0 1 2.884-.788l116.184-15.66-22.925-44.279-82.131 31.889.001.01Z" fill="#FFBEAC"/><path d="m217.281 79.764 73.81-31.298s19.054 16.969 23.857 55.243c0 0-85.624 8.927-92.565 5.625l-.259-17.806-4.843-11.764Z" fill="#F37E60"/><path d="M205.299 78.932c-.959-.472-1.824-.553-2.53-.464-.437.055-.851.2-1.225.412a5.58 5.58 0 0 0-.29-1.187c-.331-.894-.919-1.812-1.93-2.597-1.817-1.409-3.656-.58-4.918.423.049-.925-.082-3.095-2.089-4.51-2.611-1.84-4.813-.982-6.699.254 0 0 1.779-3.719-1.95-5.448l-8.702 8.592s-3.77 3.48-2.604 6.553c1.166 3.07 4.176 3.832 4.911 3.739 0 0-2.943 4.119 1.135 7 2.683 1.894 4.994.103 6.384-1.57.218 1.24.8 2.65 2.237 3.534 3.018 1.857 5.472-.034 7.034-1.511.859-.814 3.255-4.209 5.079-6.97a3.752 3.752 0 0 0 5.977 1.01l1.228-1.219c.635-1.088 1.185-2.08 1.107-3.026-.098-1.169-.848-2.373-2.144-3.013l-.011-.002Z" fill="#FFB098"/><path d="M182.219 70.633c-2.517 2.494-6.431 4.086-9.623 5.043l-19.45 3.617c1.637-1.744 5.319-5.787 8.346-9.23 2.871-3.269 5.233-4.67 6.325-5.2a2.601 2.601 0 0 1 1.245-.25c6.527.29 10.388-.612 11.903-1.122.656-.221 1.394-.077 1.886.409 1.203 1.181 2.404 3.728-.625 6.732l-.007.001Z" fill="#FFB098"/><path d="M180.728 117.532a.367.367 0 0 1-.06.028c-.332.111-8.214 2.699-14.521 1.389a318.432 318.432 0 0 0-11.775-2.206.298.298 0 0 1 .098-.589c.054.008 5.562.917 11.798 2.211 6.154 1.275 14.134-1.346 14.213-1.372a.296.296 0 0 1 .375.188.292.292 0 0 1-.129.347l.001.004Z" fill="#DB9885"/><path d="m145.037 89.602 9.485 1.504M146.365 98.953l10.434 1.861M144.279 105.297l11.469 3.134" stroke="#DB9885" stroke-width="1.5" stroke-linecap="round" stroke-linejoin="round"/><path d="M217.282 79.763s5.213 13.12 4.944 30.212c0 0 7.195.337 8.864.092 0 0 2.203-20.654-5.409-34.039 0 0-3.807 1.335-8.399 3.735Z" fill="#D86344"/><path d="M130.544 121.84s23.908 6.845 34.426 21.566c0 0-1.592 6.307-3.711 10.025 0 0-23.899-16.661-39.188-20.676 0 0 2.931-7.141 8.473-10.915Z" fill="#81A3E3"/><path d="M152.842 79.326s17.495-2.152 23.249-4.959c5.754-2.81 8.286-7.32 8.286-7.32M184.948 73.51s-5.277 12.989-9.701 11.207c-4.425-1.786-3.512-6.47-1.427-9.023" stroke="#DB9885" stroke-width="1.5" stroke-linecap="round" stroke-linejoin="round"/><path d="M193.087 77.812s-4.69 9.333-9.198 13.572c-4.504 4.24-10.682-1.182-6.626-6.691" stroke="#DB9885" stroke-width="1.5" stroke-linecap="round" stroke-linejoin="round"/><path d="M200.006 81.22s-2.963 11.332-8.976 13.042c-6.012 1.71-6.137-3.896-6.137-3.896" stroke="#DB9885" stroke-width="1.5" stroke-linecap="round" stroke-linejoin="round"/><path d="M206.481 84.713s-4.793 5.95-7.616-.107" stroke="#DB9885" stroke-width="1.5" stroke-linecap="round" stroke-linejoin="round"/></g></g><defs><clipPath id="a"><rect width="291.783" height="193" rx="10" fill="#fff"/></clipPath><clipPath id="b"><path fill="#fff" transform="rotate(-8.096 605.889 -241.13)" d="M0 0h269.301v144.545H0z"/></clipPath></defs></svg>