<svg width="290" height="197" fill="none" xmlns="http://www.w3.org/2000/svg"><rect width="290" height="197" rx="10" fill="#A7D5E3"/><g clip-path="url(#a)"><g clip-path="url(#b)"><path d="M231.842 115.378a2.8 2.8 0 1 0-4.609-3.178 2.8 2.8 0 0 0 4.609 3.178Z" fill="#B45C41"/><path d="m235.519 129.442-6.799-6.312-6.329-6.284-17.862 22.068-3.32 10.782 8.423 3.377s7.009-7.504 8.608-9.066c1.598-1.562 11.031-7.879 13.63-10.136 3.033-2.636 3.648-4.43 3.648-4.43l.001.001Z" fill="#FFB098"/><path d="M224.818 117.685c2.681-2.019 3.205-5.263 3.257-7.201.035-1.308-.236-3.242-1.444-3.747-.712-.298-1.933-.081-2.37.972-2.037 4.897-5.449 5.509-8.578 7.949-3.128 2.441-6.468 11.546-8.695 17.286-1.924 4.959-9.84 11.616-9.84 11.616l4.064 5.138 23.606-32.013ZM225.165 135.441a2.72 2.72 0 0 1-1.27-5.129l7.764-4.064a2.716 2.716 0 0 1 3.67 1.148 2.719 2.719 0 0 1-1.148 3.671l-7.764 4.064c-.4.209-.829.309-1.252.31Z" fill="#FFB098"/><path d="M225.683 123.026a2.722 2.722 0 0 1-1.271-5.13l8.977-4.699a2.719 2.719 0 1 1 2.523 4.819l-8.977 4.7c-.4.209-.83.309-1.252.31ZM230.204 114.325c-1.218 1.077-2.03.848-2.517-.083-.697-1.33-.085-4.351 1.246-5.047l13.549-6.671a2.721 2.721 0 0 1 2.524 4.82l-13.55 6.671a2.715 2.715 0 0 1-1.252.31ZM222.984 130.647a2.719 2.719 0 0 1-1.271-5.13l12.096-6.333a2.721 2.721 0 0 1 2.524 4.821l-12.097 6.332a2.7 2.7 0 0 1-1.252.31Z" fill="#FFB098"/><path d="M225.156 136.288a3.572 3.572 0 0 1-3.168-1.913 3.583 3.583 0 0 1 1.508-4.825l7.765-4.061a.85.85 0 0 1 1.15.361.85.85 0 0 1-.362 1.15l-7.763 4.061a1.875 1.875 0 0 0-.788 2.524 1.87 1.87 0 0 0 1.657.998h.008a.853.853 0 0 1 .004 1.705h-.012.001ZM225.673 123.877a3.571 3.571 0 0 1-3.165-1.913c-.91-1.752-.233-3.914 1.51-4.822l8.978-4.701a.856.856 0 0 1 1.15.362.849.849 0 0 1-.361 1.149l-8.979 4.7a1.876 1.876 0 0 0-.788 2.522 1.87 1.87 0 0 0 1.657.999c.241.002.597-.073.863-.214a.852.852 0 1 1 .794 1.509 3.558 3.558 0 0 1-1.649.408h-.011l.001.001Z" fill="#D58670"/><path d="M222.975 131.504a3.562 3.562 0 0 1-3.168-1.916 3.579 3.579 0 0 1 1.507-4.822l11.645-6.095a.849.849 0 0 1 1.149.362.849.849 0 0 1-.361 1.149l-11.641 6.095a1.868 1.868 0 0 0 .869 3.522h.008c.469 0 .852.381.852.85.003.474-.441.799-.86.855ZM227.517 114.647a.854.854 0 0 1-.813-1.11c.911-2.854.297-4.972.291-4.995a.852.852 0 0 1 1.629-.499c.033.105.788 2.618-.295 6.01a.855.855 0 0 1-.813.595l.001-.001Z" fill="#D58670"/><path d="m144.277 99.218 7.981-3.947s4.739 2.252 10.51 12.433c5.772 10.18 18.03 40.111 18.03 40.111s14.591-10.784 18.806-12.289c4.213-1.504 5.56-2.87 5.56-2.87s11.882 13.582 12.035 15.372c.153 1.789-27.647 41.153-44.765 37.082-17.118-4.072-38.911-67.908-38.911-67.908l10.754-17.984Z" fill="#FFF3E9"/><path d="M146.519 90.059c.763-17.07 5.632-34.024 3.811-51.014-.309-2.879-.837-7.44-2.343-9.91-2.908-4.776-8.943-5.825-13.716-8.734-7.253-4.426-15.724-6.577-24.021-4.748-9.242 2.039-15.792 10.705-18.42 19.798-2.627 9.091-2.137 18.74-2.241 28.205-.106 9.464-1.94 18.341-6.829 26.446-2.989 4.954-7.552 9.986-10.272 15.093-5.45 10.223-1.634 24.077 7.185 31.589l70.043-30.436c-3.148-4.67-3.449-10.662-3.197-16.289Z" fill="#594646"/><path d="m135.736 89.683-2.149-.558c-.587-.152-1.088-.461-1.517-.844-.552.127-1.111.244-1.701.332-11.247 1.659-20.347-13.19-20.35-13.19-.226 2.495-.519 4.994-1.124 7.43-.598 2.41-1.589 4.464-2.982 6.506.111-.225-.473.543-.643.745-.377.447-.809.847-1.258 1.221-.916.762-1.928 1.4-2.951 2.006l.176.035s17.882 19.455 30.059 15.905c.179-.052 2.896.098 3.166-.024 7.928-3.584 2.999-15.009 1.274-19.564Z" fill="#FFB098"/><path d="m134.036 74.323-4.504-.291-19.002-1.233c-.17.927-.34 1.794-.509 2.624h.003s9.1 14.851 20.347 13.19c.59-.086 1.149-.204 1.701-.331-.026-.024-.059-.039-.085-.063l2.049-13.897Z" fill="#D5856E"/><path d="M154.422 104.98c2.058-1.282.921-7.655.482-8.013-2.769-2.284-5.735-3.556-8.895-4.541-1.488-.463-3.017-.867-4.595-1.27-.516-.133-1.032-.266-1.556-.403-1.609-.43-2.99-.806-3.659-.947l-.46-.121c1.669 4.409 4.67 14.799-2.331 18.711-.477.266-2.311.941-2.686 1.028-12.157 2.795-29.482-16.056-29.482-16.056l-.177-.034c-3.087 1.828-6.81 2.983-9.89 4.401-7.642 3.525-13.823 8.055-16.48 15.265-3.403 9.275-18.474 49.391-19.197 56.168 0 0 33.89-13.15 34.999-15.24 0 0 1.698 10.73 1.232 21.013L82.729 204h69.384s1.085-19.046 1.19-27.502c.07-1.567.112-2.844.106-3.584-.064-8.016 3.846-18.824 4.132-23.743 0 0 5.785-6.115 6.295-13.861.317-4.82-4.043-21.047-9.415-30.33h.001Z" fill="#FFF3E9"/><path d="M157.248 149.994a.847.847 0 0 1-.7-.367.849.849 0 0 1 .214-1.186c3.323-2.307 5.524-8.317 6.23-13.251.524-3.692-6.336-20.661-8.701-25.187a.849.849 0 0 1 .362-1.149.855.855 0 0 1 1.149.361c2.051 3.923 9.523 21.682 8.879 26.214-.702 4.914-2.943 11.635-6.946 14.411a.845.845 0 0 1-.486.153l-.001.001ZM118.622 156.55c-2.451 0-5.05-.513-7.662-1.894a.858.858 0 0 1-.356-1.155.86.86 0 0 1 1.155-.356c7.53 3.979 14.92.036 18.471-1.857l1.913-1.025c2.506-1.358 4.317-2.34 7.612-2.746 2.03-.25 4.392.184 6.908.647 1.857.339 3.776.691 5.463.721a.853.853 0 0 1-.014 1.705h-.014c-1.829-.031-3.82-.398-5.744-.75-2.382-.436-4.645-.847-6.388-.63-2.977.367-4.582 1.236-7.01 2.552l-1.924 1.03c-2.413 1.285-7.049 3.757-12.41 3.757v.001Z" fill="#F3DDCD"/><path d="M143.582 53.34a95.62 95.62 0 0 1-.137-5.213c.012-5.787-3.471-10.995-8.845-13.138L115.947 35l-10.206 13.44s-.078 14.551 1.044 20.343c1.76 9.095 12.963 14.07 12.963 14.07s7.776 4.002 13.323 1.413c5.548-2.59 9.071-9.215 10.872-15.77 1.155-4.208.02-7.831-.359-15.158l-.002.001Z" fill="#FFB098"/><path d="M120.678 50.056s-.539-.041-1.089.123c-.19.056-3.52.563-6.249 1.827.573.251.923.535-.329.353a5.329 5.329 0 0 0-2.353 2.297c-.434.922-.616 1.876-.533 2.682.021.196.049.31.088.283 4.622-3.016 7.045-3.357 10.665-3.79.866-.105 1.39-.961 1.055-1.728-.302-.69-.746-1.334-1.255-2.048v.002ZM142.434 49.175l-.098-.023c-1.202.444-.943.096-.448-.268-3.164-.625-6.685-.394-6.897-.409-.608-.04-1.137.117-1.137.117-.281.794-.517 1.507-.594 2.235-.086.809.724 1.518 1.63 1.432 3.314-.318 5.685-.506 10.005.724.097-.6.204-1.21.321-1.827a27.304 27.304 0 0 0-.748 0c.245-.073.529-.167.795-.246l.039-.197a6.47 6.47 0 0 0-2.867-1.54l-.001.002Z" fill="#5A4747"/><path d="M121.041 70.857c.335-2.362-1.339-4.552-3.739-4.892-2.4-.34-4.617 1.298-4.952 3.66-.334 2.361 1.34 4.551 3.74 4.891 2.399.34 4.616-1.298 4.951-3.66ZM141.602 72.239c-2.422-.087-4.322-2.09-4.244-4.475.078-2.384 2.104-4.246 4.526-4.159a4.412 4.412 0 0 1 2.547.93c-.004 1.351-.124 2.633-.489 3.965-.345 1.256-.84 2.477-1.4 3.67a4.433 4.433 0 0 1-.938.069h-.002Z" fill="#8D2E2A" opacity=".29"/><path d="M127.795 67.18a.853.853 0 0 1-.109-1.698c1.475-.19 2.663-.767 2.891-1.405.124-.355.017-.836-.134-1.427-.442-1.693-.878-3.026-1.299-4.314-.433-1.313-.878-2.67-1.33-4.42a.851.851 0 0 1 .611-1.038.842.842 0 0 1 1.038.61c.442 1.694.878 3.027 1.3 4.315.432 1.312.877 2.67 1.329 4.42.17.654.4 1.549.092 2.423-.685 1.926-3.451 2.42-4.281 2.529-.036.002-.073.006-.109.006h.001Z" fill="#DE8B79"/><path d="M119.753 62.018c1.044-.022 1.85-.808 1.798-1.756l-.107-1.971c-.052-.948-.941-1.7-1.987-1.677-1.044.022-1.85.808-1.798 1.756l.107 1.972c.052.948.941 1.699 1.987 1.676Z" fill="#0A0A0A"/><path d="M115.363 59.082c.193.07.418.05.589-.07 1.679-1.164 3.182-1.516 3.796-1.295.307.133.663.01.792-.26.129-.271-.015-.593-.322-.718-.027-.013-.054-.022-.082-.032-1.391-.502-3.523.454-4.947 1.443a.5.5 0 0 0-.087.757.65.65 0 0 0 .262.176l-.001-.001Z" fill="#000"/><path d="M139.461 59.53c.959.024 1.73-.662 1.722-1.534l-.017-1.814c-.008-.872-.793-1.597-1.752-1.62-.959-.024-1.73.662-1.723 1.534l.017 1.814c.008.872.793 1.597 1.753 1.62Z" fill="#0A0A0A"/><path d="M135.561 56.656a.596.596 0 0 0 .542-.039c1.589-.998 2.984-1.257 3.537-1.028.277.133.607.036.738-.206.13-.243.011-.544-.265-.673a.793.793 0 0 0-.075-.033c-1.255-.519-3.25.27-4.597 1.117a.457.457 0 0 0-.112.69.576.576 0 0 0 .232.172Z" fill="#000"/><path d="M51.785 177.629c3.122-13.217 22.91-64.631 22.91-64.631l19.278 35.435-1.264 4.817-16.788 38.922s-5.78 4.307-9.74 3.997c-13.04-1.025-17.075-7.207-14.397-18.541v.001Z" fill="#FFF3E9"/><path d="M155.491 158.21a.85.85 0 0 1-.833-1.03l1.755-8.212a.835.835 0 0 1 1.01-.655.847.847 0 0 1 .655 1.01l-1.755 8.213a.848.848 0 0 1-.832.675v-.001Z" fill="#F3DDCD"/><path d="M106.148 54.98c-.927-2.165-3.13-3.616-5.216-3.436-2.087.18-3.898 1.98-4.288 4.259-.47 2.735.98 5.592 2.839 7.617 1.273 1.388 2.816 2.555 4.53 2.933 1.715.376 3.609-.166 4.61-1.673l-2.475-9.7Z" fill="#FFB098"/><path d="M104.462 59.712a.854.854 0 0 1-.801-.56c-.634-1.742-2.441-3.052-4.295-3.115a.852.852 0 0 1 .03-1.705h.03c2.561.088 4.962 1.833 5.839 4.237a.853.853 0 0 1-.801 1.144l-.002-.001Z" fill="#DE8B79"/><path d="M102.579 62.598a.841.841 0 0 1-.599-.247c-2.282-2.26-1.605-4.617-1.06-6.51a.838.838 0 0 1 1.054-.584c.453.13.714.603.584 1.055-.586 2.037-.836 3.382.621 4.828.337.33.339.872.006 1.205a.841.841 0 0 1-.605.253h-.001Z" fill="#DE8B79"/><path d="M72.485 178.291 51 182.972v21.024h27.509l1.466-21.224-7.49-4.481Z" fill="#FFF3E9"/><path d="M137.212 30.932c-5.874-2.854-12.872-3.258-19.03-1.097-6.157 2.161-11.398 6.86-14.249 12.777l-1.347 8.394c2.444 2.099 4.844 4.604 8.588 3.154 2.995-1.158 6.933-2.855 9.555-4.723a152.08 152.08 0 0 0 9.515-7.362c2.096-1.76 4.228-3.622 6.833-4.43 2.606-.809 5.853-.248 7.338 2.06-.478-3.898-3.7-7.07-7.205-8.774h.002Z" fill="#594646"/><path d="M128.75 73.513c-1.888 0-3.776-.56-5.295-1.662a.854.854 0 0 1 1-1.383c2.246 1.632 5.492 1.798 7.89.411a.854.854 0 0 1 .855 1.478c-1.341.775-2.896 1.158-4.45 1.158v-.002ZM127.749 76.75c-.03 0-.063 0-.097-.005l-1.463-.166a.853.853 0 0 1-.75-.944c.053-.463.433-.841.943-.75l1.464.167a.852.852 0 0 1-.098 1.699h.001Z" fill="#DE8B79"/><path d="M80.071 183.073a.853.853 0 0 1-.76-.469 5.463 5.463 0 0 0-2.888-2.613.854.854 0 0 1-.491-1.102.859.859 0 0 1 1.102-.492 7.173 7.173 0 0 1 3.797 3.44.848.848 0 0 1-.377 1.144.83.83 0 0 1-.383.092ZM91.055 156.417a.853.853 0 0 1-.761-1.238 73.82 73.82 0 0 0 4.344-10.566.858.858 0 0 1 1.072-.549.85.85 0 0 1 .55 1.071 75.452 75.452 0 0 1-4.445 10.817.849.849 0 0 1-.761.466v-.001ZM180.172 153.699a.85.85 0 0 1-.802-1.141c.503-1.394.736-2.909.675-4.392a.854.854 0 0 1 .817-.888h.036c.455 0 .832.358.853.817a13.349 13.349 0 0 1-.775 5.041.849.849 0 0 1-.802.564l-.002-.001ZM213.47 152.667a.85.85 0 0 1-.736-.422 85.579 85.579 0 0 0-10.964-14.865.853.853 0 0 1 1.255-1.155 87.197 87.197 0 0 1 11.18 15.159.85.85 0 0 1-.736 1.283h.001Z" fill="#F3DDCD"/></g></g><defs><clipPath id="a"><path fill="#fff" transform="translate(51 15)" d="M0 0h195v182H0z"/></clipPath><clipPath id="b"><path d="M51 15h195.467v189H61c-5.523 0-10-4.477-10-10V15Z" fill="#fff"/></clipPath></defs></svg>