<svg width="223" height="251" fill="none" xmlns="http://www.w3.org/2000/svg"><rect width="168" height="251" rx="10" fill="#A7D5E3"/><g clip-path="url(#a)"><path d="M205.72 150.186a3.185 3.185 0 1 0-5.243-3.616 3.185 3.185 0 0 0 5.243 3.616Z" fill="#B45C41"/><path d="m209.903 166.186-7.735-7.181-7.199-7.148-20.32 25.104-3.776 12.265 9.582 3.841s7.973-8.536 9.792-10.313c1.818-1.776 12.549-8.963 15.505-11.531 3.45-2.998 4.149-5.039 4.149-5.039l.002.002Z" fill="#FFB098"/><path d="M197.73 152.811c3.049-2.297 3.646-5.987 3.705-8.191.04-1.488-.269-3.689-1.643-4.264-.81-.338-2.199-.091-2.696 1.107-2.317 5.57-6.199 6.267-9.757 9.042-3.559 2.777-7.358 13.134-9.891 19.664-2.189 5.642-11.194 13.214-11.194 13.214l4.623 5.845 26.853-36.417ZM198.127 173.01a3.095 3.095 0 0 1-1.446-5.835l8.832-4.623a3.094 3.094 0 0 1 2.87 5.482l-8.832 4.623a3.083 3.083 0 0 1-1.424.353Z" fill="#FFB098"/><path d="M198.715 158.887a3.093 3.093 0 0 1-1.446-5.836l10.212-5.345a3.093 3.093 0 1 1 2.869 5.482l-10.212 5.346a3.088 3.088 0 0 1-1.423.353ZM203.859 148.989c-1.385 1.225-2.309.965-2.863-.094-.792-1.514-.096-4.95 1.418-5.743l15.413-7.588a3.096 3.096 0 0 1 2.87 5.484l-15.413 7.588a3.084 3.084 0 0 1-1.425.353ZM195.644 167.557a3.096 3.096 0 0 1-1.445-5.837l13.76-7.203A3.094 3.094 0 1 1 210.83 160l-13.761 7.203a3.085 3.085 0 0 1-1.425.354Z" fill="#FFB098"/><path d="M198.117 173.973a4.063 4.063 0 0 1-3.604-2.176 4.075 4.075 0 0 1 1.715-5.489l8.833-4.62a.967.967 0 0 1 1.308.411.965.965 0 0 1-.411 1.308l-8.831 4.62a2.131 2.131 0 0 0-.896 2.871 2.126 2.126 0 0 0 1.884 1.136h.01a.97.97 0 0 1 .003 1.939h-.013.002ZM198.705 159.855a4.061 4.061 0 0 1-3.6-2.176c-1.036-1.994-.265-4.453 1.718-5.486l10.213-5.347a.972.972 0 0 1 1.308.411.967.967 0 0 1-.411 1.307l-10.214 5.347a2.132 2.132 0 0 0-.896 2.868 2.125 2.125 0 0 0 1.885 1.137c.274.002.679-.083.981-.244a.97.97 0 1 1 .903 1.718 4.05 4.05 0 0 1-1.875.463h-.013l.001.002Z" fill="#D58670"/><path d="M195.634 168.53a4.052 4.052 0 0 1-3.603-2.178 4.07 4.07 0 0 1 1.715-5.486l13.246-6.933a.964.964 0 0 1 1.307.411.965.965 0 0 1-.411 1.307l-13.242 6.933a2.127 2.127 0 0 0 .988 4.007h.009a.97.97 0 0 1 .971.967c.002.54-.503.909-.98.972ZM200.801 149.355a.966.966 0 0 1-.926-1.263c1.036-3.247.338-5.656.332-5.682a.97.97 0 0 1 .646-1.206.973.973 0 0 1 1.206.638c.038.12.897 2.979-.335 6.838a.973.973 0 0 1-.925.676l.002-.001Z" fill="#D58670"/><path d="m106.11 131.804 9.078-4.49s5.391 2.561 11.957 14.143c6.566 11.581 20.51 45.628 20.51 45.628s16.599-12.266 21.393-13.979c4.793-1.711 6.325-3.265 6.325-3.265s13.516 15.451 13.69 17.487c.174 2.035-31.45 46.814-50.923 42.183-19.473-4.631-44.263-77.25-44.263-77.25l12.233-20.457Z" fill="#FFF3E9"/><path d="M108.66 121.385c.868-19.419 6.407-38.705 4.335-58.033-.352-3.274-.952-8.462-2.666-11.273-3.307-5.432-10.173-6.625-15.602-9.935-8.251-5.035-17.887-7.482-27.326-5.401-10.513 2.319-17.964 12.178-20.953 22.521-2.99 10.342-2.431 21.32-2.55 32.085-.12 10.766-2.206 20.865-7.768 30.085-3.4 5.635-8.591 11.359-11.686 17.169-6.198 11.629-1.858 27.389 8.174 35.935l79.679-34.624c-3.582-5.312-3.923-12.129-3.637-18.529Z" fill="#594646"/><path d="m96.393 120.957-2.445-.635c-.668-.173-1.237-.525-1.725-.96-.628.144-1.264.278-1.936.377-12.794 1.888-23.146-15.005-23.148-15.005-.258 2.839-.592 5.682-1.28 8.452-.68 2.743-1.807 5.079-3.392 7.402.126-.256-.538.617-.73.848-.43.508-.922.964-1.432 1.389-1.042.867-2.193 1.592-3.358 2.282l.201.04s20.342 22.131 34.195 18.093c.203-.06 3.294.111 3.6-.027 9.02-4.078 3.412-17.074 1.45-22.256Z" fill="#FFB098"/><path d="m94.459 103.484-5.124-.331-21.616-1.402a155.918 155.918 0 0 1-.578 2.985h.002s10.353 16.894 23.146 15.005a24.201 24.201 0 0 0 1.936-.378c-.03-.027-.067-.044-.097-.072l2.33-15.809v.002Z" fill="#D5856E"/><path d="M117.648 138.358c2.341-1.458 1.047-8.708.549-9.115-3.15-2.599-6.525-4.046-10.119-5.167-1.693-.525-3.433-.985-5.227-1.444-.588-.151-1.174-.303-1.771-.459-1.83-.489-3.401-.916-4.161-1.077l-.525-.138c1.9 5.016 5.314 16.836-2.651 21.286-.543.303-2.629 1.071-3.055 1.169-13.83 3.18-33.538-18.265-33.538-18.265l-.201-.038c-3.511 2.079-7.748 3.393-11.25 5.006-8.694 4.01-15.726 9.164-18.747 17.366-3.872 10.55-21.017 56.184-21.839 63.894 0 0 38.553-14.959 39.813-17.336 0 0 1.933 12.206 1.402 23.903L36.093 251h78.928s1.234-21.666 1.354-31.285c.08-1.783.127-3.235.121-4.078-.073-9.118 4.374-21.413 4.7-27.009 0 0 6.581-6.956 7.161-15.767.361-5.484-4.599-23.943-10.71-34.503h.001Z" fill="#FFF3E9"/><path d="M120.865 189.565a.965.965 0 0 1-.796-.417.965.965 0 0 1 .243-1.349c3.78-2.625 6.285-9.462 7.088-15.075.596-4.2-7.208-23.503-9.898-28.651a.965.965 0 0 1 .411-1.308.975.975 0 0 1 1.308.411c2.333 4.463 10.833 24.665 10.1 29.82-.799 5.59-3.348 13.236-7.902 16.394a.963.963 0 0 1-.553.174l-.001.001ZM76.926 197.022c-2.788 0-5.745-.584-8.716-2.154a.975.975 0 0 1-.405-1.314.978.978 0 0 1 1.314-.405c8.566 4.526 16.973.041 21.012-2.113l2.176-1.166c2.851-1.545 4.911-2.662 8.659-3.123 2.309-.285 4.997.209 7.858.736 2.113.385 4.296.786 6.216.82a.97.97 0 0 1-.017 1.939h-.016c-2.08-.034-4.345-.452-6.534-.852-2.71-.497-5.284-.964-7.267-.717-3.386.418-5.212 1.406-7.974 2.903l-2.189 1.171c-2.744 1.462-8.02 4.274-14.117 4.274v.001Z" fill="#F3DDCD"/><path d="M105.318 79.615a110.325 110.325 0 0 1-.155-5.931c.014-6.582-3.948-12.508-10.062-14.945l-21.218.014-11.61 15.29s-.09 16.551 1.186 23.14c2.003 10.346 14.748 16.005 14.748 16.005s8.845 4.553 15.155 1.608c6.31-2.945 10.319-10.483 12.367-17.94 1.315-4.786.024-8.908-.408-17.243l-.003.002Z" fill="#FFB098"/><path d="M79.263 75.88s-.613-.048-1.238.138c-.217.065-4.005.64-7.11 2.079.652.286 1.05.609-.373.402a6.063 6.063 0 0 0-2.677 2.613c-.494 1.048-.701 2.133-.606 3.05.023.223.055.352.1.322 5.257-3.43 8.014-3.818 12.132-4.312.984-.118 1.58-1.092 1.2-1.965-.343-.786-.848-1.517-1.428-2.33v.002ZM104.012 74.876l-.112-.025c-1.367.505-1.072.11-.509-.306-3.6-.71-7.606-.448-7.847-.465-.692-.045-1.293.133-1.293.133-.32.903-.588 1.715-.675 2.543-.098.92.823 1.727 1.854 1.629 3.77-.362 6.466-.576 11.381.823.11-.682.232-1.376.365-2.078a30.735 30.735 0 0 0-.85 0c.278-.083.601-.19.904-.28.014-.075.028-.15.044-.224a7.36 7.36 0 0 0-3.261-1.75h-.001Z" fill="#5A4747"/><path d="M79.677 99.54c.381-2.686-1.523-5.177-4.253-5.564-2.73-.387-5.252 1.477-5.633 4.163-.38 2.686 1.524 5.178 4.254 5.565 2.73.387 5.252-1.477 5.632-4.163ZM103.065 101.113c-2.755-.099-4.917-2.378-4.828-5.09.089-2.712 2.394-4.83 5.148-4.731a5.019 5.019 0 0 1 2.898 1.058c-.004 1.537-.14 2.995-.556 4.51-.392 1.429-.955 2.818-1.593 4.175-.345.06-.702.092-1.067.078h-.002Z" fill="#8D2E2A" opacity=".29"/><path d="M87.36 95.359a.971.971 0 0 1-.964-.847.975.975 0 0 1 .84-1.086c1.678-.215 3.03-.872 3.288-1.597.142-.405.02-.951-.152-1.624-.502-1.926-.998-3.442-1.478-4.907-.492-1.494-.998-3.038-1.512-5.028a.968.968 0 0 1 .694-1.181.959.959 0 0 1 1.182.694c.502 1.926.998 3.443 1.478 4.908.492 1.493.998 3.038 1.512 5.027.193.745.455 1.763.105 2.757-.78 2.192-3.926 2.754-4.87 2.877-.042.003-.083.007-.124.007Z" fill="#DE8B79"/><path d="M78.21 89.486c1.187-.024 2.105-.919 2.045-1.997l-.122-2.243c-.06-1.078-1.07-1.933-2.26-1.907-1.188.025-2.105.919-2.046 1.997l.122 2.243c.06 1.079 1.071 1.933 2.26 1.907Z" fill="#0A0A0A"/><path d="M73.216 86.146c.22.08.476.058.67-.079 1.91-1.324 3.62-1.725 4.319-1.473.349.15.754.01.9-.297.147-.308-.016-.674-.366-.817-.03-.014-.061-.024-.094-.036-1.582-.57-4.007.517-5.626 1.642a.567.567 0 0 0-.1.862.737.737 0 0 0 .298.2l-.001-.002Z" fill="#000"/><path d="M100.63 86.656c1.091.027 1.968-.754 1.959-1.746l-.019-2.062c-.009-.992-.902-1.817-1.993-1.844-1.091-.027-1.969.754-1.96 1.746l.02 2.062c.009.993.901 1.817 1.993 1.844Z" fill="#0A0A0A"/><path d="M96.194 83.386a.678.678 0 0 0 .617-.044c1.807-1.135 3.394-1.43 4.024-1.17.314.152.69.041.838-.234.148-.276.013-.619-.301-.766-.027-.014-.056-.025-.085-.037-1.428-.59-3.697.307-5.23 1.27a.52.52 0 0 0-.127.786c.07.088.163.154.264.195Z" fill="#000"/><path d="M.893 221.002c3.552-15.036 26.062-73.523 26.062-73.523l21.93 40.31-1.438 5.48-19.098 44.276s-6.574 4.9-11.08 4.547C2.437 240.926-2.153 233.893.892 221l.002.002Z" fill="#FFF3E9"/><path d="M118.866 198.911a.964.964 0 0 1-.947-1.172l1.996-9.342c.111-.52.609-.872 1.149-.745a.965.965 0 0 1 .745 1.15l-1.996 9.342a.967.967 0 0 1-.947.768v-.001Z" fill="#F3DDCD"/><path d="M62.736 81.48c-1.055-2.464-3.561-4.114-5.935-3.91-2.373.206-4.433 2.253-4.878 4.845-.533 3.112 1.116 6.362 3.23 8.666 1.449 1.578 3.203 2.907 5.154 3.336 1.95.427 4.105-.188 5.244-1.903L62.736 81.48Z" fill="#FFB098"/><path d="M60.816 86.863a.973.973 0 0 1-.912-.638c-.72-1.98-2.777-3.471-4.886-3.543a.97.97 0 0 1 .035-1.939h.035c2.911.1 5.643 2.084 6.641 4.82a.971.971 0 0 1-.912 1.3h-.001Z" fill="#DE8B79"/><path d="M58.674 90.146a.957.957 0 0 1-.682-.281c-2.596-2.57-1.825-5.252-1.206-7.406a.955.955 0 0 1 1.2-.664.969.969 0 0 1 .663 1.2c-.666 2.318-.95 3.847.708 5.492a.965.965 0 0 1 .006 1.371.959.959 0 0 1-.688.288h-.001Z" fill="#DE8B79"/><path d="M24.441 221.754 0 227.079v23.917h31.293l1.668-24.145-8.52-5.097Z" fill="#FFF3E9"/><path d="M98.073 54.123c-6.682-3.246-14.643-3.705-21.648-1.247-7.004 2.459-12.965 7.804-16.21 14.535l-1.531 9.548c2.78 2.388 5.51 5.238 9.77 3.588 3.406-1.318 7.886-3.248 10.869-5.372A172.92 172.92 0 0 0 90.147 66.8c2.384-2.002 4.81-4.12 7.772-5.04 2.965-.92 6.659-.282 8.348 2.343-.544-4.434-4.209-8.042-8.197-9.98h.003Z" fill="#594646"/><path d="M88.445 102.563c-2.148 0-4.296-.638-6.024-1.892a.97.97 0 1 1 1.138-1.573c2.555 1.857 6.248 2.046 8.975.468a.972.972 0 0 1 .973 1.681c-1.526.882-3.295 1.317-5.062 1.317v-.001ZM87.308 106.246c-.035 0-.072 0-.11-.007l-1.665-.189a.97.97 0 0 1-.853-1.073c.06-.527.492-.958 1.073-.853l1.665.189a.97.97 0 0 1-.111 1.933h.001Z" fill="#DE8B79"/><path d="M33.07 227.194a.972.972 0 0 1-.865-.533 6.214 6.214 0 0 0-3.285-2.973.971.971 0 0 1-.559-1.253.976.976 0 0 1 1.254-.56 8.16 8.16 0 0 1 4.32 3.913.965.965 0 0 1-.43 1.302.94.94 0 0 1-.435.104ZM45.567 196.872a.969.969 0 0 1-.866-1.409 83.98 83.98 0 0 0 4.942-12.019.976.976 0 0 1 1.22-.625c.51.164.79.711.624 1.219a85.89 85.89 0 0 1-5.056 12.304.966.966 0 0 1-.865.531v-.001ZM146.942 193.779a.967.967 0 0 1-.912-1.297 13.23 13.23 0 0 0 .767-4.997.971.971 0 0 1 .929-1.01h.042a.97.97 0 0 1 .97.929 15.203 15.203 0 0 1-.881 5.735.968.968 0 0 1-.913.642l-.002-.002ZM184.822 192.605a.969.969 0 0 1-.838-.48 97.327 97.327 0 0 0-12.472-16.909.97.97 0 0 1 1.428-1.314 99.185 99.185 0 0 1 12.718 17.244.97.97 0 0 1-.838 1.459h.002Z" fill="#F3DDCD"/></g><defs><clipPath id="a"><path d="M0 36h222.357v215H10c-5.523 0-10-4.477-10-10V36Z" fill="#fff"/></clipPath></defs></svg>