<svg width="189" height="28" viewBox="0 0 189 28" fill="none" xmlns="http://www.w3.org/2000/svg">
<mask id="mask0_2011_4947" style="mask-type:alpha" maskUnits="userSpaceOnUse" x="0" y="0" width="189" height="28">
<rect width="189" height="28" fill="#D9D9D9"/>
</mask>
<g mask="url(#mask0_2011_4947)">
<path opacity="0.75" d="M1.70181 4.04507C2.16893 2.92777 3.94253 0.10583 6.98371 0.916666C10.0176 1.85422 16.0245 2.45447 18.1801 2.32436C20.2019 2.18654 36.533 3.63339 67.5325 2.78509C98.5319 1.93679 155.137 3.05731 157.033 2.78507C159.062 2.52053 181.921 1.53675 183.729 2.78508C185.544 3.90669 185.984 5.58481 186.045 6.85965C185.972 8.12679 187.32 10.3657 187.79 11.537C188.267 12.5815 188.887 15.7956 188.257 17.4121C187.627 19.0285 186.765 19.996 184.916 21.7965C183.209 23.478 182.994 24.8642 181.45 26.0465C179.905 27.2289 178.751 26.2725 177.138 26.3067C175.525 26.341 146.406 25.5839 144.532 25.476C142.659 25.3681 69.7248 26.0276 63.533 26.3066C57.475 26.5933 27.7343 25.2503 23.1482 25.6218C18.5621 25.9934 13.4554 26.0806 10.7573 26.3066C8.05915 26.5326 4.52896 27.2192 2.51204 24.9418C0.495131 22.6643 0.597288 13.8979 0.920858 10.6111C1.25173 7.19751 1.70181 4.04507 1.70181 4.04507Z" fill="#FFCA42"/>
</g>
</svg>
