<svg width="190" height="92" viewBox="0 0 190 92" fill="none" xmlns="http://www.w3.org/2000/svg">
<rect width="175.765" height="63.7215" rx="31.8607" transform="matrix(-1 0 0 1 176.547 27.4609)" fill="#6683C2"/>
<g clip-path="url(#clip0_187_2347)">
<path d="M146.126 34.6088C145.955 34.508 145.778 34.4133 145.605 34.3156C145.519 34.1873 145.409 34.0682 145.275 33.9796C143.275 32.6784 141.088 31.866 138.816 31.3986C134.864 30.1891 130.698 29.6882 126.554 29.957C123.242 30.1738 119.948 30.8488 116.844 32.034C115.66 32.486 113.818 32.9686 113.425 34.3675C113.337 34.6821 113.34 34.9998 113.416 35.2961C113.242 35.6504 113.294 36.0658 113.492 36.4079C113.227 36.7133 113.038 37.0737 112.965 37.5166C112.821 38.4054 113.495 39.2882 114.465 39.0194C114.892 38.9003 115.322 38.7872 115.749 38.6712C117.255 40.3267 118.951 41.805 120.805 43.0604C121.064 43.8056 121.827 44.3554 122.629 44.2241C123.647 44.8564 124.907 45.5833 126.121 45.9071C126.337 46.857 127.594 47.5473 128.579 47.1044C129.063 47.7244 129.884 48.036 130.643 47.4587C130.759 47.3732 130.866 47.2816 130.982 47.193C130.991 47.1838 130.997 47.1777 131.006 47.1685C132.674 45.8765 134.233 44.4898 135.684 42.9993C137.2 41.8386 138.673 40.6229 140.091 39.337C140.926 38.5795 140.57 37.3547 139.823 36.753C139.789 36.695 139.749 36.6369 139.704 36.582C141.64 36.6858 143.577 36.7927 145.507 36.8782C146.742 36.9332 147.136 35.1983 146.123 34.6027L146.126 34.6088ZM122.711 39.8166C122.61 39.9052 122.51 39.9968 122.409 40.0915C122.278 39.9998 122.147 39.9052 122.016 39.8105C122.123 39.8044 122.232 39.7952 122.339 39.786C122.461 39.7983 122.586 39.8074 122.708 39.8166H122.711Z" fill="#F1BBA2"/>
<path d="M143.435 25.302C143.185 23.6221 143.38 21.9239 142.779 20.305C142.45 19.4223 142.029 18.6221 141.953 17.6599C141.882 16.765 142.02 15.8639 142.038 14.969C142.068 13.4662 141.916 11.9512 141.562 10.4882C140.211 4.90471 135.57 0.20398 129.599 0.46055C129.492 0.46055 129.434 0.454441 129.358 0.448332C123.341 0.139837 118.599 4.79781 117.241 10.4118C116.888 11.8749 116.735 13.3899 116.766 14.8926C116.784 15.7876 116.918 16.6886 116.851 17.5836C116.778 18.5457 116.354 19.3459 116.025 20.2287C115.421 21.8475 115.619 23.5458 115.369 25.2257C115.152 26.6857 114.253 28.0113 114.658 29.508C114.692 29.6301 114.82 29.7401 114.951 29.7309C118.098 29.511 121.194 30.3998 124.161 29.1231C125.796 28.4206 129.324 28.1579 129.342 25.8579C129.379 25.8579 129.419 25.8579 129.455 25.8518C129.391 28.2251 132.984 28.4878 134.636 29.1995C137.604 30.4732 140.699 29.5874 143.846 29.8073C143.977 29.8165 144.109 29.7065 144.139 29.5843C144.545 28.0877 143.645 26.7651 143.429 25.302H143.435Z" fill="#363537"/>
<path d="M179.418 35.2441C179.33 35.2594 179.253 35.2868 179.183 35.3204C179.275 34.5324 178.131 33.9887 177.787 34.8195C175.228 40.9619 172.38 47.7916 166.183 51.0567C163.456 52.4923 153.96 54.0837 151.051 40.968C150.98 40.6565 148.465 45.2809 148.208 45.458C147.046 46.2705 145.888 47.086 144.726 47.8985C143.942 48.4483 142.646 49.0561 142.255 50.0121C141.472 48.7904 141.633 51.5363 142.255 50.0121C151.624 64.6183 164.054 61.7716 168.034 59.548C172.111 57.2694 175.207 52.3457 177.186 48.2497C178.427 45.681 179.397 42.9687 180.059 40.1953C180.266 39.3309 181.699 34.8867 179.421 35.2441H179.418Z" fill="#F1BBA2"/>
<path d="M133.703 31.0201L135.002 15.0852C135.002 14.4774 133.559 16.4536 133.05 16.8232C130.458 18.6955 128.384 19.2728 125.286 19.5966C125.191 19.6058 125.109 19.6332 125.032 19.6638C124.599 19.6638 124.633 19.8715 124.636 20.4304C124.648 24.0041 123.843 30.9193 124.645 34.4318C124.853 35.3451 125.063 33.9706 126.014 34.383C126.658 34.6609 127.847 34.5387 128.555 34.5998C129.457 34.6762 129.354 34.5785 130.256 34.6548C131.242 34.7373 132.501 35.4612 133.337 34.664C134.151 33.8882 133.709 31.9578 133.706 31.0201H133.703Z" fill="#F1BBA2"/>
<path d="M147.42 93.1403C145.374 83.5036 143.843 81.6618 143.697 77.7002C143.651 76.4877 144.352 71.8908 143.849 70.7515C143.291 69.49 112.136 69.4136 112.081 69.4534C111.935 68.6684 112.228 75.4644 112.182 76.3777C111.932 81.445 110.096 83.525 108.928 88.3907C107.745 93.3235 101.609 137.719 104.082 155.893C104.14 156.308 104.43 156.644 104.844 156.657C113.902 156.87 125.274 157.035 135.868 157.155C136.914 152.02 137.323 147.868 138.72 142.804C138.848 142.345 139.421 142.327 139.671 142.678C141.074 144.658 140.153 152.57 140.086 157.115C142.818 157.142 148.225 157.274 150.68 157.292C151.119 157.295 151.433 156.938 151.443 156.528C151.729 140.01 150.897 109.515 147.42 93.1433V93.1403Z" fill="#F5E4D5"/>
<path d="M138.667 9.12954C138.683 7.21748 137.792 6.41722 136.258 5.58642C127.994 1.11172 120.574 5.20462 120.522 6.38057C120.315 11.1607 119.906 17.2573 122.123 21.5762C123.782 24.8109 127.03 27.6728 130.738 26.0815C134.608 24.4199 138.591 19.7436 138.667 9.12954Z" fill="#F1BBA2"/>
<path d="M189.175 30.1222C189.514 29.7526 189.916 29.2823 189.94 28.9188C190.005 27.975 188.907 28.6714 188.58 28.9646C187.894 29.5755 187.217 30.1894 186.51 30.7789C186.153 31.0752 185.805 31.3867 185.433 31.6616C185.25 31.796 184.222 32.4252 183.982 32.1748C184.96 31.231 185.936 30.2872 186.906 29.3342C187.309 28.9371 188.69 27.7337 188.336 27.0251C188.294 26.9365 188.217 26.8968 188.12 26.8998C186.995 26.9487 185.851 28.2346 185.128 28.9921C184.646 29.4991 183.911 30.6445 183.234 30.8797C183.045 30.9439 182.884 30.9255 182.74 30.8522C182.594 30.6598 182.457 30.4582 182.335 30.2444C182.268 30.0825 182.191 29.9237 182.106 29.774C182.088 29.7343 182.069 29.6977 182.054 29.6549C182.036 29.6121 182.008 29.5846 181.978 29.5633C181.7 29.1387 181.328 28.7813 180.81 28.5492C179.929 28.1552 178.3 27.9353 177.562 28.6897C177.452 28.8027 177.525 28.9402 177.641 28.989C177.712 29.1204 177.769 29.1448 177.962 29.2151C178.483 29.4075 179.032 29.438 179.538 29.6977C180.209 30.0428 180.752 30.5407 181.094 31.1607C181.258 31.8663 181.136 32.5932 180.651 33.2102C180.203 33.7783 179.575 34.0471 178.91 34.2182C178.904 34.1968 178.898 34.1724 178.883 34.151C178.206 33.1247 177.925 31.9579 177.794 30.7453C177.736 30.223 177.91 29.267 177.394 28.9432C177.3 28.8852 177.202 28.9096 177.135 28.9677C177.083 28.9799 177.035 29.0135 177.004 29.0746C176.522 30.0062 176.315 31.1729 176.415 32.2206C176.495 33.0514 176.885 33.7783 177.3 34.487C177.367 35.052 177.187 35.5621 177.047 36.1608C176.952 36.564 176.839 37.181 177.028 37.6055C177.022 37.63 177.019 37.6574 177.019 37.6849C177.019 37.7063 177.019 37.7277 177.019 37.7491C177.019 37.8285 177.111 37.9232 177.193 37.9232C177.208 37.9232 177.224 37.9232 177.242 37.9232C177.257 37.9232 177.269 37.9171 177.282 37.9171C177.327 37.9476 177.373 37.9751 177.428 37.9965C177.471 38.0148 177.51 38.0118 177.547 38.0026C177.83 38.1981 178.203 38.5341 178.343 38.6135C178.507 38.7082 178.687 38.8639 178.886 38.8884C179.224 38.9342 179.566 38.6959 179.843 38.5279C181.02 37.8193 182.094 36.8419 183.067 35.8798C183.274 35.6751 183.512 35.4613 183.738 35.2353C184.43 34.7894 185.095 34.3007 185.729 33.8303C186.543 33.2255 187.33 32.581 188.083 31.8999C188.538 31.4875 189.254 30.9927 189.267 30.3208C189.267 30.2261 189.236 30.165 189.163 30.1161L189.175 30.1222Z" fill="#F1BBA2"/>
<path d="M125.586 14.7863C125.595 15.3545 125.33 15.8187 124.994 15.8248C124.659 15.831 124.381 15.3728 124.375 14.8047C124.366 14.2366 124.631 13.7723 124.967 13.7662C125.302 13.7601 125.58 14.2182 125.586 14.7863Z" fill="#363537"/>
<path d="M133.75 14.9691C133.744 15.5372 133.466 15.9954 133.134 15.9893C132.798 15.9862 132.533 15.5219 132.539 14.9538C132.545 14.3857 132.823 13.9275 133.155 13.9337C133.488 13.9398 133.756 14.401 133.75 14.9691Z" fill="#363537"/>
<path d="M135.299 11.9466C135.283 11.9313 134.976 11.8475 134.964 11.8475C134.006 11.6342 132.7 11.4685 131.78 11.7466C131.303 11.8913 130.835 12.2456 131.508 12.417C132.084 12.5637 132.909 12.5427 133.516 12.5541C134.009 12.5618 134.61 12.6151 135.078 12.4818C135.644 12.3218 135.666 12.1237 135.299 11.9447V11.9466Z" fill="#363537"/>
<path d="M122.832 12.3444C123.274 12.5047 123.884 12.4934 124.38 12.5179C124.99 12.5481 125.811 12.6217 126.411 12.516C127.117 12.3915 126.713 12.0124 126.265 11.837C125.397 11.5013 124.062 11.5786 123.067 11.7257C123.054 11.7257 122.733 11.7861 122.714 11.8012C122.314 11.9521 122.298 12.1482 122.835 12.3444H122.832Z" fill="#363537"/>
<path d="M131.804 20.8182C128.874 21.8658 126.26 20.6166 126.105 20.6655C126.041 20.6868 125.974 20.7357 125.986 20.806C126.236 22.0766 127.675 22.7913 128.795 22.8555C129.963 22.9227 131.597 22.2324 131.981 21.0106C132.015 20.9068 131.92 20.7724 131.801 20.8151L131.804 20.8182Z" fill="white"/>
<path d="M129.734 19.3032C128.925 19.5018 128.178 19.2391 128.093 18.3381C128.053 17.9196 128.19 17.379 128.239 16.9605C128.34 16.0595 128.456 15.1615 128.578 14.2665C128.605 14.071 128.3 14.0558 128.273 14.2513C128.169 15.0057 128.071 15.7632 127.983 16.5207C127.907 17.1865 127.702 17.9685 127.785 18.6374C127.898 19.5904 129.026 19.795 129.798 19.6026C129.987 19.5568 129.923 19.2574 129.734 19.3032Z" fill="#CF9980"/>
<path d="M79.5569 60.4097C79.3465 60.0707 78.6084 59.863 78.2882 59.6889C77.7912 59.4201 77.3063 59.1299 76.8275 58.8306C76.6872 57.508 75.7174 56.4268 74.8971 55.3486C74.1743 54.3987 73.1527 52.2697 71.6523 52.5019C71.5333 52.5202 71.4174 52.6607 71.4845 52.7859C71.8901 53.5312 72.5428 54.1115 73.0033 54.8263C73.2747 55.2447 73.5064 55.6815 73.7077 56.1305C73.3204 55.8098 72.9118 55.5196 72.4879 55.3394C71.1247 54.5239 69.7036 53.8214 68.2153 53.2594C67.2761 52.905 65.8153 52.1781 64.7906 52.4866C64.7266 52.5049 64.6717 52.5813 64.6656 52.6454C64.5711 53.5312 66.471 54.0016 67.0656 54.2337C68.2641 54.698 69.4291 55.2142 70.5666 55.7976C70.53 55.8342 70.4904 55.8709 70.4538 55.9106C70.4141 55.9503 70.3714 55.9931 70.3287 56.0358C68.9351 55.5196 67.5292 55.0279 66.1081 54.588C65.1566 54.2948 63.8391 53.7725 62.848 54.0688C62.7565 54.0963 62.7199 54.2001 62.7199 54.2856C62.7291 54.6949 63.1164 54.8049 63.4488 54.9729C64.1716 55.3364 64.9218 55.6296 65.6842 55.9014C66.8674 56.3229 68.069 56.6895 69.237 57.1446C69.2248 57.1598 69.2126 57.1751 69.1973 57.1904C67.9317 56.8025 66.6448 56.4451 65.3365 56.2252C64.7113 56.1213 63.1896 55.767 62.7169 56.3687C62.6711 56.4268 62.6589 56.5062 62.6864 56.5734C62.9304 57.1782 64.0801 57.3889 64.7815 57.5508C64.3149 57.5325 63.8452 57.5355 63.3726 57.5691C63.2109 57.5813 63.1469 57.7768 63.2323 57.899C63.705 58.574 65.0681 58.7542 65.8336 58.9497C67.0199 59.2521 68.2184 59.4873 69.3864 59.8508C69.4504 59.9027 69.5114 59.9577 69.5724 60.0096C70.405 60.7335 71.3687 61.5185 72.3506 62.0286C72.6983 62.2088 73.0215 62.2912 73.3204 62.2973C73.6406 62.3737 73.9822 62.3798 74.3786 62.3645C75.876 62.3157 77.0867 62.5997 78.3096 63.5038C78.4621 63.6168 78.6511 63.4886 78.7091 63.342C78.947 62.7158 79.9777 61.0847 79.5599 60.4128L79.5569 60.4097Z" fill="#F1BBA2"/>
<path d="M138.611 13.6952C137.86 12.9744 136.564 13.6799 136.311 14.5413C136.256 14.7276 136.378 14.8467 136.528 14.8712C136.394 15.1827 136.314 15.5523 136.293 15.9219C136.174 16.3587 136.128 16.7893 136.198 17.0978C136.198 17.2536 136.208 17.4094 136.22 17.5651C136.153 17.7423 136.128 17.9225 136.198 18.0905C136.653 19.1718 138.071 17.669 138.333 17.1925C138.803 16.3342 139.455 14.5107 138.608 13.6983L138.611 13.6952Z" fill="#F1BBA2"/>
<path d="M138.912 11.5573C138.93 11.5267 138.945 11.4962 138.954 11.4626C139.393 11.4534 139.872 11.0502 139.772 10.4363C139.628 9.56274 139.345 8.76554 138.963 8.03248C139.226 7.80646 139.363 7.41855 139.146 7.01231C138.283 5.40569 136.655 4.33665 134.874 3.69217C134.874 3.28288 134.63 2.8461 134.145 2.79418C132.748 2.64451 131.349 2.56815 129.949 2.58037C129.906 2.32074 129.741 2.10082 129.412 2.03057C128.265 1.79538 127.232 2.00003 126.195 2.30242C126.033 2.01225 125.722 1.81066 125.35 1.89923C124.688 2.05501 124.026 2.38794 123.398 2.78807C123.127 2.49484 122.666 2.36656 122.282 2.69643C121.212 3.61581 120.071 4.63598 119.885 6.16013C119.845 6.47779 120.001 6.71298 120.227 6.84126C119.739 7.95612 119.391 9.13818 119.193 10.3844C119.077 11.1052 119.757 11.5359 120.236 11.3801C120.147 11.8505 120.086 12.33 120.047 12.8126C120.016 13.2189 120.574 13.2402 120.644 12.8646C120.644 12.8584 120.65 12.8554 120.654 12.8493C121.52 10.2744 123.752 9.1901 125.96 8.28905C127.521 7.65068 128.613 6.49612 129.311 4.94753C129.488 5.86996 129.769 6.77712 130.376 7.51323C131.242 8.567 132.526 8.80525 133.675 9.41613C135.121 10.1828 135.713 11.4595 136.78 12.6049C137.106 12.9562 138.235 13.5365 138.35 13.3563C138.579 13.3319 138.817 13.2555 139.067 13.1059C139.488 12.8554 139.238 12.2628 138.848 12.2506C138.881 12.1865 138.905 12.1101 138.912 12.0185C138.921 11.8658 138.924 11.713 138.924 11.5603L138.912 11.5573Z" fill="#363537"/>
<path d="M137.595 14.7037C137.586 15.3116 137.445 15.8889 137.174 16.4325C137.086 16.6066 137.351 16.7624 137.436 16.5853C137.732 15.9927 137.888 15.3635 137.9 14.7037C137.903 14.5083 137.598 14.5083 137.595 14.7037Z" fill="#CF9980"/>
<path d="M121.083 16.2309C120.851 15.7117 120.723 15.168 120.696 14.6029C120.687 14.4074 120.382 14.4074 120.391 14.6029C120.421 15.226 120.565 15.8186 120.821 16.3867C120.9 16.5669 121.165 16.4111 121.083 16.234V16.2309Z" fill="#F57256"/>
<path d="M124.047 6.89919C122.791 8.36225 121.534 9.88945 120.711 11.6091C120.638 10.8241 119.445 10.54 119.235 11.4289C118.274 15.4729 117.75 19.5872 117.664 23.7412C117.631 23.9886 117.622 24.2482 117.649 24.5201C117.737 25.4822 119.168 25.5189 119.174 24.5201C119.174 24.3337 119.183 24.1505 119.186 23.9642C119.342 22.7638 120.308 21.7925 120.787 20.6898C121.351 19.3917 121.324 17.9958 121.299 16.6091C121.241 13.008 122.855 10.6225 125.127 7.97434C125.764 7.23212 124.687 6.1478 124.047 6.89308V6.89919Z" fill="#363537"/>
<path d="M143.867 79.4476C143.851 79.3468 143.836 79.249 143.824 79.1452C142.766 79.1085 141.708 79.0749 140.649 79.0444C140.317 76.3932 139.942 73.748 139.518 71.109C139.487 70.9166 139.192 70.9991 139.225 71.1915C139.643 73.8 140.018 76.4176 140.344 79.0383C132.922 78.8306 125.493 78.8031 118.07 78.9619C115.999 79.0077 113.929 79.0719 111.858 79.1421C111.837 79.246 111.818 79.3468 111.797 79.4476C121.321 79.1116 130.857 79.0749 140.381 79.3376C141.759 90.4709 142.324 101.702 142.049 112.921C141.955 116.812 141.756 120.703 141.467 124.586C141.451 124.781 141.756 124.781 141.772 124.586C142.821 110.648 142.598 96.6194 141.085 82.7249C140.963 81.5979 140.829 80.4738 140.689 79.3498C141.735 79.3804 142.784 79.4109 143.83 79.4476C143.842 79.4476 143.858 79.4476 143.87 79.4476H143.867Z" fill="#DBC6B6"/>
<path d="M146.053 36.7899C146.013 35.6842 145.626 34.7038 145.028 33.8485C143.098 32.639 141.003 31.8693 138.828 31.4203C138.661 31.6158 138.478 31.8296 138.261 32.0525C136.526 33.8455 134.416 35.3116 132.022 36.0599C127.145 37.578 122.04 35.6781 119.61 31.1484C118.673 31.4081 117.749 31.7074 116.844 32.0525C115.66 32.5046 113.818 32.9872 113.425 34.3861C113.337 34.7007 113.34 35.0184 113.416 35.3146C113.242 35.669 113.294 36.0844 113.492 36.4265C113.227 36.7319 113.038 37.0923 112.965 37.5352C112.821 38.424 113.495 39.3068 114.465 39.038C114.892 38.9188 115.322 38.8058 115.749 38.6898C117.255 40.3453 118.951 41.8236 120.805 43.079C121.064 43.8242 121.827 44.374 122.629 44.2427C123.647 44.8749 124.907 45.6019 126.121 45.9257C126.337 46.8756 127.594 47.5659 128.579 47.123C129.063 47.743 129.884 48.0546 130.643 47.4773C130.759 47.3918 130.866 47.3001 130.982 47.2116C130.991 47.2024 130.997 47.1963 131.006 47.1871C132.674 45.8951 134.233 44.5084 135.684 43.0179C137.2 41.8572 138.673 40.6415 140.091 39.3556C140.926 38.5981 140.57 37.3733 139.823 36.7716C139.789 36.7136 139.749 36.6555 139.704 36.6006C141.64 36.7044 143.577 36.8113 145.507 36.8968C145.714 36.906 145.894 36.8602 146.053 36.7838V36.7899ZM122.409 40.1101C122.278 40.0184 122.147 39.9237 122.016 39.8291C122.123 39.823 122.232 39.8138 122.339 39.8046C122.461 39.8168 122.586 39.826 122.708 39.8352C122.607 39.9237 122.507 40.0154 122.406 40.1101H122.409Z" fill="#FFFBB9"/>
<path d="M179.367 46.8571C179.633 46.3287 179.764 45.6384 179.91 45.2322C180.148 44.5694 180.91 43.3506 180.621 42.6237C180.31 41.8479 178.724 41.518 178.047 41.2156C177.214 40.846 175.802 39.8289 174.866 39.9083C174.192 39.9633 174.003 40.4367 173.729 41.0079C173.225 42.0586 172.814 43.1521 172.436 44.2548C170.886 43.7874 169.49 44.6182 168.325 45.7453C167.355 46.6861 166.489 47.7368 165.162 48.1888C163.576 48.7325 162.009 48.1613 160.563 47.5046C159.7 47.1137 158.795 46.9762 157.883 46.8968C156.114 45.7545 154.504 44.4258 153.183 42.6634C151.863 40.9041 147.63 35.7421 146.953 35.0243C145.465 33.4513 143.58 32.2815 141.287 31.5942C137.844 36.4538 133.73 40.8766 129.027 44.5205C128.695 44.7801 128.173 44.9817 127.78 44.6824C125.154 42.6817 116.432 32.706 115.899 31.8019C108 34.6548 104.402 40.8399 100.803 48.1522C99.5801 50.0367 98.4091 52.0404 96.9331 53.7234C95.4906 55.3636 93.5632 56.4479 92.0689 58.0362C91.1053 59.0625 90.3093 59.8597 88.7845 59.9055C87.8025 59.9361 86.8327 59.7192 85.8508 59.8567C85.0945 59.9636 84.4235 60.2201 83.899 60.6539C83.4446 60.4401 82.9933 60.2262 82.5389 60.0124C82.0387 59.7773 81.5173 59.4535 80.9653 59.371C80.8463 59.3527 80.7396 59.371 80.6451 59.4046C80.3492 59.3221 79.9985 59.429 79.8827 59.8047C79.5868 60.7669 79.2941 61.7321 78.9983 62.6942C78.7695 63.4456 78.1779 64.6032 78.2298 65.3882C78.3091 66.558 80.5353 67.0406 81.5477 67.3583C83.5849 69.6308 85.9179 72.0285 89.1413 72.2667C90.8643 72.395 92.4471 71.5948 94.1457 71.5153C96.0822 71.4207 97.9334 71.9552 99.8912 71.7383C101.328 71.5795 102.965 71.4695 104.258 70.7701C105.618 70.037 106.619 68.6595 107.549 67.4652C108.531 66.2007 109.406 64.8689 110.187 63.4853C110.739 65.1836 111.166 66.9582 111.147 67.9936C111.099 70.8037 110.986 71.2985 111.727 74.0383C111.922 74.7561 112.148 75.4647 112.395 76.1611C117.314 76.8178 126.508 76.0023 131.205 75.9717C133.779 75.9534 140.064 76.3291 142.616 76.6193C142.775 76.6376 142.934 76.6528 143.095 76.6712C143.446 76.1977 143.8 75.7304 144.132 75.2417C144.965 74.0199 144.934 72.3706 145.382 70.9686C146.014 68.9863 147.023 62.6576 147.746 59.82C148.764 60.4065 150.713 61.4022 151.738 61.9795C153.47 62.9538 155.294 63.8793 157.316 63.9801C159.319 64.0779 161.356 63.3387 163.195 62.624C164.226 62.2238 165.223 61.671 166.321 61.503C167.571 61.3136 168.825 61.6496 170.078 61.4816C173.106 61.0754 176.778 58.1034 177.614 55.1254C177.94 53.9647 178.12 53.0301 178.852 52.0129C179.41 51.2402 180.023 50.4735 180.249 49.5236C180.499 48.4607 180.16 47.4497 179.37 46.8449L179.367 46.8571Z" fill="#F3EB5D"/>
<path d="M145.354 53.4914C144.423 51.3472 143.567 49.1419 143.167 46.8267C142.755 44.4381 142.911 41.9763 143.582 39.6488C144.137 37.7215 145.043 35.9163 146.241 34.325C146.165 34.2578 146.089 34.1937 146.012 34.1265C143.743 37.1442 142.511 40.9164 142.646 44.713C142.816 49.5543 145.302 53.8518 147.098 58.2257C147.324 58.7755 147.54 59.3314 147.738 59.8904C147.745 59.869 147.751 59.8476 147.754 59.8262C147.857 59.8873 147.976 59.9515 148.098 60.0217C147.324 57.7981 146.29 55.6417 145.357 53.4914H145.354ZM108.392 36.515C108.285 36.6189 108.182 36.7227 108.078 36.8266C108.289 43.2927 110.695 49.8903 110.551 56.3351C110.487 59.1207 110.024 61.8757 109.527 64.6125C109.679 64.3681 109.823 64.1177 109.969 63.8703C110.307 61.9643 110.612 60.0523 110.765 58.1219C110.957 55.6692 110.823 53.2318 110.481 50.8005C109.813 46.0356 108.484 41.3501 108.392 36.515Z" fill="#B0AB46"/>
<path d="M163.055 49.365C161.738 50.2049 160.372 50.9533 158.954 51.613C158.777 51.6955 158.929 51.9582 159.106 51.8757C160.521 51.2159 161.89 50.4676 163.208 49.6277C163.373 49.5238 163.22 49.2581 163.055 49.365Z" fill="#B0AB46"/>
<path d="M83.2487 62.2943C82.7303 63.6657 82.2088 65.0341 81.6904 66.4055C81.6202 66.5887 81.916 66.6682 81.9831 66.488C82.5016 65.1165 83.023 63.7481 83.5415 62.3767C83.6116 62.1935 83.3158 62.114 83.2487 62.2943Z" fill="#B0AB46"/>
<path d="M92.2416 68.836C91.2139 68.0877 90.2624 67.2539 89.3841 66.3345C89.2469 66.1909 89.0334 66.4078 89.1676 66.5514C90.0642 67.4891 91.0401 68.3382 92.0861 69.1018C92.2447 69.2178 92.3972 68.9521 92.2386 68.8391L92.2416 68.836Z" fill="#B0AB46"/>
<path d="M91.9533 70.2201C91.0384 69.878 90.1998 69.4015 89.4404 68.7845C89.2879 68.6623 89.0714 68.8761 89.2239 69.0014C90.0229 69.6519 90.9042 70.1559 91.871 70.5163C92.0539 70.5835 92.1332 70.2903 91.9533 70.2231V70.2201Z" fill="#B0AB46"/>
<path d="M179.118 46.2891C177.09 45.614 175.062 44.9329 173.031 44.267C172.845 44.206 172.763 44.5022 172.949 44.5603C174.983 45.2231 177.008 45.9073 179.036 46.5823C179.222 46.6434 179.301 46.3501 179.118 46.2891Z" fill="#B0AB46"/>
<path d="M163.425 24.0391C164.005 27.2216 167.056 29.3309 170.238 28.7504C173.421 28.1698 175.53 25.1194 174.95 21.9369C174.369 18.7544 171.319 16.6451 168.136 17.2257C164.954 17.8061 162.844 20.8566 163.425 24.0391Z" fill="#7FCBB4"/>
<path d="M149.621 13.6562C150.395 17.8996 154.463 20.7119 158.706 19.938C162.949 19.1639 165.761 15.0967 164.987 10.8533C164.213 6.61 160.146 3.79754 155.903 4.57163C151.66 5.34559 148.847 9.4129 149.621 13.6562Z" fill="#68CCEB"/>
</g>
<path d="M62.8901 46.6518C61.8683 47.1525 60.8932 47.0508 59.9648 46.347C59.2561 45.8023 58.6194 44.9534 58.0545 43.8006C57.577 42.8258 57.3923 41.8618 57.5004 40.9086C57.6316 39.7898 58.1678 38.9998 59.1089 38.5387C59.9929 38.1056 60.8664 38.1445 61.7294 38.6553C62.4757 39.0982 63.0786 39.7886 63.5381 40.7263C64.2758 42.2321 64.5913 43.4801 64.4846 44.4702C64.3761 45.4569 63.8447 46.1842 62.8901 46.6518ZM59.5806 39.5142C58.9555 39.8205 58.6153 40.3811 58.5602 41.1958C58.5145 41.8768 58.6588 42.5584 58.9931 43.2407C59.5349 44.3465 60.0912 45.1034 60.6621 45.5115C61.233 45.9195 61.8175 45.9769 62.4158 45.6838C63.1284 45.3347 63.44 44.6777 63.3507 43.7128C63.2892 43.0427 63.046 42.2741 62.6211 41.4069C62.1748 40.496 61.6977 39.8837 61.1897 39.5699C60.685 39.2545 60.1487 39.2359 59.5806 39.5142Z" fill="white"/>
<path d="M54.0172 44.5092L56.3742 43.3606C56.6733 43.2141 56.8962 43.2904 57.0427 43.5895C57.1893 43.8886 57.113 44.1115 56.8139 44.2581L54.4519 45.4091C54.3745 45.4469 54.2611 45.5088 54.1114 45.5946C53.9634 45.6755 53.8525 45.734 53.7785 45.7702C53.6474 45.8344 53.5185 45.8434 53.3916 45.7972C53.2681 45.7493 53.1751 45.6615 53.1125 45.5338C52.994 45.2918 53.0627 45.0748 53.3187 44.8827C53.3844 44.8296 53.6172 44.7051 54.0172 44.5092ZM55.6311 47.0758C55.8529 46.9671 56.1881 46.8091 56.6367 46.6018C57.0854 46.3945 57.4206 46.2365 57.6424 46.1278C57.9416 45.9813 58.1644 46.0576 58.311 46.3567C58.4575 46.6559 58.3812 46.8787 58.0821 47.0253C57.8603 47.134 57.525 47.292 57.0764 47.4992C56.6278 47.7065 56.2926 47.8645 56.0707 47.9732C55.9699 48.0226 55.822 48.1034 55.6269 48.2157C55.4318 48.3279 55.2855 48.4079 55.188 48.4557C54.8788 48.6072 54.6509 48.5334 54.5044 48.2342C54.3693 47.9586 54.4406 47.7382 54.7181 47.5731C55.078 47.3634 55.3823 47.1976 55.6311 47.0758Z" fill="white"/>
<path d="M52.7438 48.6475L53.6578 50.513C53.8109 50.8255 53.7345 51.0568 53.4287 51.2066C53.0724 51.3812 52.7749 51.2248 52.5361 50.7374C52.5064 50.6769 52.4678 50.5896 52.4202 50.4753C52.3726 50.3611 52.3389 50.2839 52.3191 50.2435L51.7533 49.1015L49.5028 50.1354C49.0423 50.361 48.7156 50.5023 48.5226 50.5593C48.192 50.6588 47.9806 50.6144 47.8884 50.4262C47.8143 50.2749 47.8129 50.038 47.8841 49.7156L48.0657 48.9889L48.7727 44.1536C48.8448 43.7306 49.0539 43.4344 49.4001 43.2648C49.7799 43.0787 50.0505 43.1503 50.2119 43.4797L52.2646 47.6694C52.3201 47.6381 52.3882 47.6026 52.4688 47.5631C53.0873 47.2601 53.478 47.275 53.6411 47.6077C53.7596 47.8497 53.7068 48.0652 53.4827 48.2542C53.3832 48.3405 53.1369 48.4716 52.7438 48.6475ZM49.6759 44.8614C49.48 46.7329 49.3046 48.1485 49.1495 49.1081L51.2766 48.1285L49.6759 44.8614Z" fill="white"/>
<path d="M47.3194 51.0641C46.8853 51.3351 46.0834 51.7572 44.9137 52.3303C44.6314 52.4686 44.426 52.4067 44.2976 52.1445C44.1691 51.8823 44.2461 51.6821 44.5284 51.5438C44.7939 51.4137 45.1865 51.2068 45.706 50.923C46.2255 50.6393 46.6181 50.4324 46.8836 50.3023C47.1828 50.1558 47.3965 50.2136 47.525 50.4757C47.6386 50.7076 47.5701 50.9038 47.3194 51.0641Z" fill="white"/>
<path d="M42.5899 50.9886L42.1922 52.04L41.732 53.3721L44.4279 54.7146C44.5646 54.781 44.6585 54.8663 44.7095 54.9704C44.7738 55.1015 44.7802 55.2422 44.7287 55.3924C44.6773 55.5427 44.5877 55.6491 44.46 55.7117C44.3323 55.7742 44.1858 55.7689 44.0207 55.6956C43.5353 55.4874 42.6515 55.0618 41.3695 54.4187L40.8828 55.9138C40.7718 56.1891 40.6186 56.608 40.4232 57.1705C40.375 57.3442 40.2887 57.4615 40.1643 57.5225C40.0366 57.585 39.8976 57.5906 39.7473 57.5392C39.6005 57.4861 39.4949 57.394 39.4307 57.2629C39.3796 57.1587 39.3698 57.0323 39.4011 56.8835C39.4343 56.7131 39.5072 56.4919 39.6199 56.2199C39.7514 55.9013 39.8351 55.6852 39.8712 55.5716L40.3943 53.9212L39.2669 53.2919C38.8153 53.0422 38.4475 52.8785 38.1636 52.8009C37.9799 52.7492 37.8551 52.6561 37.7892 52.5217C37.7233 52.3872 37.7119 52.2448 37.755 52.0945C37.8014 51.9426 37.8868 51.8361 38.0112 51.7752C38.2095 51.678 38.6354 51.7903 39.289 52.1119L40.7516 52.8896L41.2952 51.4979C41.5158 50.9105 41.6449 50.4721 41.6824 50.1828C41.7126 49.9721 41.8016 49.8306 41.9495 49.7581C42.0806 49.6939 42.2204 49.6858 42.369 49.7339C42.5176 49.782 42.6232 49.8699 42.6858 49.9976C42.7763 50.1825 42.7444 50.5128 42.5899 50.9886Z" fill="white"/>
<path d="M36.6582 59.5484C36.1507 59.7971 35.6433 59.9143 35.1363 59.9002C34.5623 59.8772 34.0876 59.6825 33.7123 59.3162C33.6625 59.2656 33.6236 59.2117 33.5956 59.1546C33.5297 59.0201 33.5258 58.8845 33.5838 58.7477C33.6435 58.6059 33.7406 58.5021 33.8751 58.4362C34.0095 58.3703 34.1559 58.3757 34.3143 58.4523L34.7167 58.6866C34.9184 58.792 35.1423 58.8365 35.3885 58.82C35.6331 58.8003 35.8982 58.7204 36.1839 58.5804C36.5503 58.4009 36.8153 58.1294 36.9789 57.7658C37.1528 57.3805 37.1541 57.0131 36.9828 56.6635C36.7341 56.156 36.3492 55.8424 35.8279 55.7226C35.37 55.6219 34.8548 55.6763 34.2823 55.8859C33.8911 56.0317 33.6305 55.9719 33.5004 55.7063C33.4032 55.508 33.4753 55.2851 33.7167 55.0377L34.776 54.1499C34.9667 53.9522 35.0863 53.754 35.1348 53.5552C35.1816 53.353 35.1565 53.1486 35.0594 52.9419C34.9212 52.6428 34.69 52.4602 34.3658 52.3939C34.0282 52.3259 33.6376 52.4006 33.1939 52.618C32.9654 52.73 32.7707 52.8941 32.6099 53.1104L32.2156 53.7475C32.1392 53.8724 32.0675 53.9514 32.0002 53.9843C31.8658 54.0502 31.7251 54.0566 31.5783 54.0035C31.4331 53.9454 31.3284 53.8508 31.2642 53.7197C31.1341 53.4542 31.2661 53.0728 31.6601 52.5755C32.0001 52.138 32.3146 51.8484 32.6037 51.7068C33.3263 51.3527 33.9776 51.2316 34.5576 51.3434C35.1793 51.4639 35.6458 51.8418 35.957 52.4771C36.344 53.267 36.28 53.9444 35.7649 54.5094C35.7192 54.5609 35.6652 54.6165 35.6028 54.6763C36.1305 54.622 36.586 54.7052 36.9692 54.9259C37.3508 55.1432 37.6618 55.4972 37.9022 55.988C38.2266 56.6501 38.2689 57.3276 38.0289 58.0203C37.7873 58.7097 37.3304 59.2191 36.6582 59.5484Z" fill="white"/>
<path d="M31.9582 57.5404C32.0191 57.6648 32.0306 57.7946 31.9927 57.9299C31.9565 58.0601 31.8762 58.1557 31.7518 58.2167C31.7115 58.2364 31.6477 58.2594 31.5604 58.2854C31.4732 58.3115 31.4077 58.3353 31.364 58.3567L30.8648 58.6138C30.663 58.7209 30.495 58.8033 30.3606 58.8608L30.9411 60.0456C31.0893 60.3481 31.0138 60.5726 30.7147 60.7192C30.5668 60.7916 30.4361 60.8098 30.3225 60.7738C30.2107 60.7327 30.1178 60.6365 30.0437 60.4853L29.7545 59.9079L29.463 59.3256C29.0678 59.5484 28.7862 59.7009 28.6181 59.7833C28.0971 60.0385 27.7609 60.0115 27.6094 59.7023C27.5023 59.4838 27.5281 59.3024 27.6866 59.1581C27.7422 59.11 27.9062 59.0192 28.1784 58.8858C28.3465 58.8035 28.6281 58.6509 29.0233 58.4281L28.7292 57.8407C28.5794 57.5349 28.4907 57.3157 28.4634 57.1832C28.4377 57.0458 28.4453 56.9295 28.4863 56.8344C28.5272 56.7393 28.6031 56.6646 28.7141 56.6103C28.8418 56.5477 28.9699 56.537 29.0985 56.5782C29.2288 56.6144 29.3252 56.6964 29.3878 56.8241C29.4158 56.8813 29.4535 56.9753 29.501 57.1062C29.5518 57.2356 29.5929 57.3321 29.6242 57.396L29.9108 57.9683L30.2964 57.7982C30.3636 57.7652 30.4645 57.7116 30.599 57.6374C30.7318 57.5598 30.8319 57.5045 30.8991 57.4716C31.4503 57.2015 31.8034 57.2245 31.9582 57.5404Z" fill="white"/>
<path d="M22.8008 59.4474L23.2293 59.25L23.6577 59.0526C23.7686 58.9982 23.9234 58.9015 24.1221 58.7625C24.3241 58.6219 24.4772 58.526 24.5814 58.475C24.6856 58.4239 24.7902 58.4206 24.8953 58.465C25.0038 58.5077 25.0835 58.5812 25.1346 58.6854C25.2861 58.9946 24.9114 59.3699 24.0106 59.8112C23.8964 59.8672 23.725 59.947 23.4965 60.0506C23.2714 60.1526 23.1017 60.2315 22.9874 60.2875C22.8092 60.3748 22.639 60.4103 22.4768 60.3939C22.2828 60.3722 22.1446 60.2774 22.0623 60.1093C21.8449 59.6656 21.837 59.1985 22.0385 58.708L22.6981 57.5533C22.9391 57.1435 22.9987 56.8142 22.8768 56.5655C22.8291 56.468 22.7117 56.3901 22.5247 56.3316C22.3377 56.2732 22.1938 56.2687 22.0929 56.3181C21.861 56.4317 21.7133 56.5896 21.6497 56.7916L21.6004 57.3034C21.5838 57.4824 21.5117 57.6032 21.384 57.6658C21.2798 57.7168 21.1726 57.7277 21.0623 57.6983C20.9505 57.6656 20.869 57.5971 20.8179 57.4929C20.6599 57.1703 20.6987 56.8115 20.9346 56.4167C21.1434 56.0602 21.4242 55.7955 21.7772 55.6225C22.0931 55.4678 22.4431 55.4505 22.8271 55.5708C23.2129 55.686 23.4798 55.8949 23.6281 56.1974C23.8405 56.631 23.8933 57.0365 23.7865 57.414C23.7313 57.6161 23.5638 57.9378 23.284 58.3791C23.0195 58.7921 22.8585 59.1482 22.8008 59.4474Z" fill="white"/>
<path d="M20.1602 61.9784L19.7625 63.0297L19.3023 64.3618L21.9982 65.7043C22.1349 65.7707 22.2288 65.856 22.2799 65.9602C22.3441 66.0913 22.3505 66.2319 22.299 66.3822C22.2476 66.5324 22.158 66.6388 22.0303 66.7014C21.9026 66.764 21.7562 66.7586 21.591 66.6853C21.1056 66.4772 20.2219 66.0515 18.9398 65.4084L18.4532 66.9035C18.3421 67.1788 18.1889 67.5977 17.9936 68.1603C17.9453 68.334 17.859 68.4513 17.7346 68.5122C17.6069 68.5748 17.4679 68.5804 17.3177 68.5289C17.1708 68.4758 17.0652 68.3838 17.001 68.2527C16.95 68.1485 16.9401 68.022 16.9714 67.8733C17.0046 67.7028 17.0775 67.4816 17.1902 67.2097C17.3217 66.891 17.4055 66.6749 17.4415 66.5614L17.9646 64.9109L16.8372 64.2816C16.3856 64.0319 16.0178 63.8682 15.7339 63.7906C15.5502 63.7389 15.4254 63.6458 15.3595 63.5114C15.2937 63.3769 15.2823 63.2346 15.3253 63.0843C15.3717 62.9323 15.4571 62.8259 15.5815 62.7649C15.7798 62.6678 16.2057 62.78 16.8593 63.1017L18.3219 63.8793L18.8655 62.4877C19.0862 61.9002 19.2152 61.4619 19.2527 61.1726C19.2829 60.9619 19.3719 60.8203 19.5198 60.7479C19.6509 60.6836 19.7907 60.6756 19.9393 60.7236C20.0879 60.7717 20.1935 60.8596 20.2561 60.9873C20.3467 61.1722 20.3147 61.5025 20.1602 61.9784Z" fill="white"/>
<defs>
<clipPath id="clip0_187_2347">
<rect width="126.912" height="90.8031" fill="white" transform="matrix(-1 0 0 1 189.82 0.379883)"/>
</clipPath>
</defs>
</svg>
