<svg width="117" height="92" viewBox="0 0 117 92" fill="none" xmlns="http://www.w3.org/2000/svg">
<rect width="107.264" height="63.7215" rx="31.8607" transform="matrix(-1 0 0 1 113.633 28.1436)" fill="#68CCEB"/>
<g clip-path="url(#clip0_368_302)">
<g clip-path="url(#clip1_368_302)">
<path d="M69.5312 26.9185C68.2987 26.5671 66.6064 26.2352 64.5913 26.2645C61.5296 26.3035 59.1134 27.1431 57.6754 27.7776C57.8026 30.4035 57.9298 33.0393 58.0472 35.6652C61.8719 32.7464 65.7065 29.8276 69.5312 26.9185Z" fill="#F1BBA2"/>
<path d="M60.0065 22.0567C60.0065 22.0567 60.7597 26.7717 60.3293 27.9627C60.3195 27.992 60.2902 28.0798 60.3293 28.1579C60.5934 28.6655 63.5672 27.6698 66.6094 26.4886C65.8464 23.3746 65.0834 20.2703 64.3302 17.1562C64.3302 17.166 59.3609 20.3972 60.0065 22.0567Z" fill="#F1BBA2"/>
<path d="M67.7405 20.2611C66.9579 21.7156 65.3439 22.0963 65.4221 22.233C65.5297 22.3989 68.0828 21.3153 70.4012 19.3044C71.8489 18.0451 72.651 16.9127 73.1695 15.7901C73.5119 15.0482 74.0499 13.8182 73.5412 12.8323C73.3553 12.4711 73.1304 12.3539 72.788 12.0415C72.2206 11.5242 71.5359 10.6651 71.0663 9.17154C68.1807 8.27344 65.2852 7.50225 65.0895 7.96106C65.0504 8.04892 65.1287 8.16606 65.158 8.20511C65.8623 9.29844 69.5795 16.8444 67.7405 20.2611Z" fill="#363537"/>
<path d="M59.5387 24.7809C59.1083 24.7223 58.7757 24.5466 58.7757 24.5466C58.6779 24.4978 58.5801 24.4294 58.492 24.3611C58.492 24.3611 58.3453 24.244 58.2084 24.1073C56.565 22.3404 57.2497 18.504 57.2497 18.504C57.4551 17.3423 57.6997 16.9323 58.267 15.3118C58.7268 14.0037 59.3431 12.0611 59.8811 9.57182C60.018 9.54253 61.368 9.28872 62.7374 9.05444C63.3146 9.02515 66.9144 8.86896 68.8316 11.2997C71.2674 14.3747 69.1055 19.1482 67.1198 21.452C66.9046 21.7059 66.6796 21.9401 66.4448 22.1549C65.9459 22.7406 64.958 23.7266 63.4222 24.3416C63.4222 24.3416 61.6418 25.0542 59.5387 24.7809Z" fill="#F1BBA2"/>
<path d="M64.875 23.1707C64.2098 23.5709 63.3588 23.9907 62.3219 24.3421C61.6176 24.5764 60.972 24.7326 60.3948 24.8302C60.6003 25.494 60.9133 25.7087 61.0991 25.7966C61.9697 26.1968 63.5446 25.2109 64.875 23.1707Z" fill="#CF9980"/>
<path d="M59.965 15.8288C59.8769 16.2583 60.0236 16.6488 60.2878 16.7074C60.5617 16.7659 60.8551 16.4633 60.9432 16.0435C61.0312 15.614 60.8845 15.2235 60.6203 15.165C60.3464 15.1064 60.053 15.409 59.965 15.8288Z" fill="#353333"/>
<path d="M65.2444 17.488C65.0683 17.9077 64.6966 18.1616 64.4031 18.0347C64.1097 17.9175 64.0216 17.4782 64.1977 17.0487C64.3738 16.6289 64.7455 16.3751 65.039 16.502C65.3227 16.6289 65.4107 17.0682 65.2444 17.488Z" fill="#353333"/>
<path d="M61.3479 16.4959C61.4441 16.233 61.164 16.1424 61.0141 16.3789C60.9981 16.4041 60.982 16.4292 60.9658 16.4542C60.7408 16.7763 60.4963 17.0789 60.2224 17.3523C60.1539 17.4206 60.0854 17.4889 60.0072 17.5475C59.9387 17.6159 59.8604 17.6744 59.7724 17.7525C59.6941 17.8306 59.5963 17.9185 59.5376 18.0454C59.5083 18.1039 59.4789 18.1723 59.4691 18.2504C59.4594 18.3187 59.4594 18.3968 59.4691 18.4651C59.5083 18.7385 59.6844 18.9435 59.88 19.0509C60.0756 19.168 60.2811 19.2168 60.4963 19.2461C60.33 19.1192 60.1539 19.0118 60.0267 18.8751C59.968 18.8068 59.9191 18.7385 59.88 18.6604C59.8506 18.5823 59.8311 18.5042 59.8311 18.4359C59.8311 18.3675 59.8506 18.3089 59.8898 18.2601C59.9289 18.2113 59.9876 18.1528 60.0561 18.0942C60.1245 18.0356 60.2126 17.977 60.3006 17.9087C60.3397 17.8794 60.3789 17.8404 60.4278 17.8013C60.4669 17.7623 60.506 17.733 60.5452 17.6939C60.8484 17.3913 61.1027 17.0301 61.2886 16.6494C61.3093 16.5984 61.3291 16.5472 61.3479 16.4959Z" fill="#CF9980"/>
<path d="M59.8562 20.8274C59.8171 20.7493 59.8367 20.72 59.8465 20.7103C59.8954 20.6322 60.0519 20.681 60.3649 20.6615C60.541 20.6517 60.6779 20.6224 60.8247 20.5931C60.854 20.5931 61.0301 20.5541 61.1964 20.5053C61.7148 20.3588 61.9398 20.1441 61.9789 20.1831C62.0474 20.2612 61.4605 21.2862 60.6877 21.2765C60.2964 21.2862 59.9541 21.0324 59.8562 20.8274Z" fill="white"/>
<path d="M65.5156 14.0688C65.701 14.252 65.5172 14.5383 65.2672 14.4645L63.6404 13.984C63.6492 13.984 63.989 12.5605 65.5156 14.0688Z" fill="#363537"/>
<path d="M59.9486 13.0438C59.6982 13.1158 59.7222 13.4551 59.977 13.5101L61.6276 13.8668C61.6276 13.8668 62.0139 12.4507 59.9486 13.0438Z" fill="#363537"/>
<path d="M68.7344 15.3023C69.0768 14.5702 68.9985 13.7111 68.4996 13.0668C68.4898 13.0571 68.4898 13.0571 68.48 13.0473C68.3724 12.9106 67.2377 11.4171 66.0248 10.724C64.2053 9.67946 62.1217 11.1242 59.7251 10.2456C58.7567 9.89422 57.4655 9.03517 56.3503 6.69232C58.0035 7.84422 58.8154 7.80518 59.2458 7.57089C60.0773 7.10232 59.8914 5.6478 60.6544 5.40375C61.2022 5.22803 61.8772 5.80399 62.3272 6.27256C62.3565 5.34518 62.8847 4.53494 63.6477 4.24208C64.6651 3.85161 65.9954 4.4178 66.4943 5.66732C66.7878 5.11089 67.1008 4.93518 67.3258 4.88637C68.3529 4.65208 69.8202 6.37994 71.0625 9.19136C70.994 9.55256 70.9158 10.0016 70.8473 10.5385C70.8473 10.5385 70.7299 11.4366 70.6908 12.3542C70.5636 15.3121 71.3853 17.5964 70.3875 18.5042C70.055 18.8068 69.4289 19.0509 68.079 18.719C67.7562 18.7287 67.4236 18.7287 67.1008 18.7385L68.7344 15.3023Z" fill="#363537"/>
<path d="M73.076 10.3823C72.9391 10.4116 72.8217 10.4409 72.7043 10.4799C72.5869 10.5092 72.4598 10.5483 72.3424 10.5873C72.1076 10.6654 71.8631 10.7435 71.6381 10.8411C71.4033 10.9388 71.1783 11.0364 70.9631 11.1535C70.7479 11.2707 70.5327 11.4073 70.3566 11.5733C70.5718 11.4561 70.8066 11.3976 71.0414 11.339C71.2761 11.2804 71.5109 11.2511 71.7457 11.2316C71.9804 11.2023 72.225 11.1926 72.4598 11.1926C72.5771 11.1926 72.6945 11.1926 72.8119 11.1926C72.9293 11.1926 73.0467 11.1926 73.1641 11.2023L73.076 10.3823Z" fill="#363537"/>
<path d="M72.3386 8.3811C72.2506 8.63491 72.143 8.89848 72.0452 9.14253C71.9376 9.39634 71.83 9.65015 71.7126 9.8942C71.5952 10.1382 71.468 10.3921 71.3213 10.6166C71.2528 10.7337 71.1746 10.8411 71.0865 10.9485C71.0376 10.9973 70.9985 11.0461 70.9398 11.0851C70.8909 11.1242 70.8224 11.1632 70.7539 11.1632C70.8224 11.173 70.9007 11.1535 70.9594 11.1242C71.0278 11.0949 71.0865 11.0559 71.1452 11.0168C71.2626 10.929 71.3702 10.8411 71.4778 10.7337C71.6832 10.5385 71.8691 10.314 72.055 10.0992C72.231 9.87467 72.4071 9.65015 72.5734 9.42563C72.7397 9.19134 72.906 8.96682 73.0625 8.72277L72.3386 8.3811Z" fill="#363537"/>
<path d="M69.25 14.2186C68.937 13.6329 68.5457 13.0862 68.0859 12.5981C67.8512 12.3541 67.6066 12.1295 67.3425 11.9148C67.0784 11.7 66.7947 11.5145 66.4915 11.3486C66.4132 11.3095 66.3447 11.2607 66.2665 11.2314L66.0317 11.1241C65.8752 11.046 65.7089 10.9874 65.5426 10.9386C65.21 10.841 64.8872 10.7629 64.5546 10.6945C64.2318 10.6262 63.8992 10.5676 63.5764 10.5091C63.2536 10.4505 62.921 10.3919 62.5884 10.3333C61.9331 10.226 61.2679 10.1381 60.6125 10.0698C60.2799 10.0307 59.9571 10.0014 59.6343 9.95262C59.3115 9.90381 59.0082 9.83548 58.705 9.7281C58.6267 9.69881 58.5583 9.66953 58.48 9.64024C58.4017 9.61096 58.3333 9.58167 58.255 9.54262C58.1083 9.47429 57.9616 9.39619 57.8246 9.3181C57.5409 9.16191 57.2768 8.96667 57.0225 8.77143C56.5138 8.36143 56.0638 7.87334 55.653 7.35596C55.9856 7.93191 56.3866 8.46881 56.8757 8.93738C57.1203 9.17167 57.3844 9.38643 57.6681 9.57191C57.9518 9.75738 58.255 9.92334 58.568 10.0502C58.6072 10.0698 58.6463 10.0795 58.6854 10.0991L58.8028 10.1381C58.8811 10.1674 58.9691 10.1869 59.0474 10.2162C59.1256 10.2455 59.2136 10.2552 59.3017 10.2748L59.556 10.3236C59.8886 10.3821 60.2212 10.431 60.544 10.47C61.1994 10.5579 61.8548 10.6555 62.5102 10.7531C63.1656 10.8605 63.821 10.9679 64.4666 11.085C64.7894 11.1436 65.1122 11.2021 65.4252 11.29C65.5817 11.3291 65.7285 11.3779 65.8752 11.4364L66.1002 11.5341C66.1784 11.5633 66.2469 11.6024 66.3154 11.6414C66.9023 11.9148 67.4305 12.2955 67.9196 12.7348C68.4185 13.1838 68.8489 13.6817 69.25 14.2186Z" fill="#363537"/>
<path d="M63.5528 19.1677C64.7952 19.1677 65.8125 18.1525 65.8125 16.9127C65.8125 15.673 64.7952 14.6577 63.5528 14.6577C62.3105 14.6577 61.2932 15.673 61.2932 16.9127C61.2932 18.1622 62.3105 19.1677 63.5528 19.1677ZM63.5528 14.853C64.6973 14.853 65.6266 15.7803 65.6266 16.9225C65.6266 18.0646 64.6973 18.9822 63.5528 18.9822C62.4084 18.9822 61.4888 18.0549 61.4888 16.9225C61.4791 15.7803 62.4084 14.853 63.5528 14.853Z" fill="white"/>
<path d="M59.1353 17.8696C60.2407 17.8696 61.1406 16.9715 61.1406 15.8684C61.1406 14.7653 60.2407 13.8672 59.1353 13.8672C58.0299 13.8672 57.13 14.7653 57.13 15.8684C57.1202 16.9617 58.0202 17.8696 59.1353 17.8696ZM59.1353 14.0429C60.1429 14.0429 60.9548 14.8629 60.9548 15.8586C60.9548 16.8641 60.1331 17.6743 59.1353 17.6743C58.1375 17.6743 57.3159 16.8543 57.3159 15.8586C57.3061 14.8629 58.1278 14.0429 59.1353 14.0429Z" fill="white"/>
<path d="M68.1339 21.6408C67.2253 21.4465 66.6466 20.5539 66.8414 19.6471C67.0362 18.7404 67.9306 18.1629 68.8392 18.3573C69.7478 18.5517 70.3265 19.4443 70.1317 20.351C69.937 21.2577 69.0425 21.8352 68.1339 21.6408Z" fill="#F1BBA2"/>
<path d="M67.6828 20.6707C67.6534 20.6707 67.6241 20.6512 67.6143 20.6219C67.36 20.0557 67.5067 19.4017 67.986 19.0503C68.348 18.7867 68.8664 18.7574 69.2968 18.9722C69.3359 18.9917 69.3457 19.0405 69.3262 19.0796C69.3066 19.1186 69.2577 19.1284 69.2186 19.1088C68.8371 18.9136 68.3871 18.9429 68.0741 19.1772C67.6632 19.4798 67.5263 20.0557 67.7513 20.5536C67.7708 20.5926 67.7513 20.6415 67.7121 20.6512C67.7023 20.6707 67.6926 20.6707 67.6828 20.6707Z" fill="#CF9980"/>
<path d="M69.2865 19.5871C69.2669 19.5871 69.2474 19.5773 69.2376 19.5676C68.9735 19.304 68.592 19.1478 68.2105 19.1478C68.1616 19.1478 68.1322 19.1185 68.1322 19.0697C68.1322 19.0306 68.1616 18.9916 68.2105 18.9916C68.6311 18.9818 69.0517 19.1576 69.3452 19.4504C69.3745 19.4797 69.3745 19.5285 69.3452 19.5578C69.3256 19.5773 69.3061 19.5871 69.2865 19.5871Z" fill="#CF9980"/>
<path d="M33.1136 15.0089C32.7516 15.1358 31.7832 15.4775 30.9811 16.4049C30.7463 16.6685 30.5311 16.932 30.3746 17.342C30.179 17.8789 30.2964 18.1425 30.3746 19.2163C30.4137 19.6946 30.4822 21.0418 30.7757 22.2035C30.7952 22.3011 30.8539 22.5061 30.9811 22.5354C31.2354 22.6037 31.4604 21.9594 32.0473 21.5787C32.4484 21.3151 32.8886 21.2761 33.2016 21.2761C34.0233 21.0711 34.6885 20.8661 35.1971 20.7001C35.5297 20.5927 35.8134 20.4854 36.0091 20.2023C36.2536 19.8411 36.1949 19.4116 36.1558 19.2163C36.3514 18.9918 36.5666 18.6696 36.4884 18.3768C36.4003 18.0351 35.9993 17.9375 36.0286 17.6837C36.058 17.4592 36.3905 17.4592 36.5471 17.1175C36.6253 16.9418 36.6547 16.688 36.5471 16.483C36.3905 16.1999 36.0971 16.278 35.9993 16.0242C35.9015 15.7997 36.1167 15.6532 36.0286 15.3799C35.9601 15.1847 35.7938 15.0773 35.6667 14.9894C35.3537 14.7844 35.0211 14.7551 34.7178 14.7551C33.8374 14.7551 33.1527 14.9894 33.1136 15.0089Z" fill="#F1BBA2"/>
<path d="M33.8322 17.8105C34.1452 17.7324 34.4582 17.6738 34.7713 17.6347C35.0843 17.5957 35.4071 17.5762 35.7201 17.5762C35.8375 17.5762 35.9549 17.5859 36.0625 17.5859C36.0429 17.6152 36.0332 17.6445 36.0234 17.6836C36.0234 17.7031 36.0234 17.7226 36.0234 17.7519C35.9158 17.7616 33.2257 18.0936 32.9029 18.1228C33.2159 17.9862 33.5192 17.8886 33.8322 17.8105Z" fill="#CF9980"/>
<path d="M34.3308 19.4115C34.6047 19.3334 34.8786 19.2651 35.1525 19.2163C35.4264 19.1675 35.7101 19.1479 35.984 19.1382C36.0622 19.1382 36.1405 19.1382 36.2188 19.1382C36.1992 19.1675 36.1796 19.187 36.1601 19.2163C36.1601 19.2358 36.1698 19.2553 36.1698 19.2749C36.1111 19.2846 36.0427 19.2944 35.984 19.3041C35.7101 19.3432 35.4362 19.3822 35.1721 19.431C34.8982 19.4799 33.8222 19.6849 33.5385 19.7337C33.7928 19.597 34.0667 19.4994 34.3308 19.4115Z" fill="#CF9980"/>
<path d="M33.9947 16.1998C33.7208 16.2291 33.4469 16.2486 33.173 16.2681C33.4273 16.1608 33.6914 16.0827 33.9653 16.0241C34.2392 15.9655 34.5131 15.9167 34.787 15.8972C35.0609 15.8679 35.3446 15.8679 35.6185 15.8777C35.7359 15.8874 35.8631 15.8874 35.9804 15.907C35.9804 15.946 35.9804 15.985 36 16.0339C35.8631 16.0241 33.9947 16.1998 33.9947 16.1998Z" fill="#CF9980"/>
<path d="M32.0274 20.4463C33.6414 20.2706 36.2434 27.9825 36.2434 27.9825C38.2194 33.1856 39.2856 36.0946 38.6694 39.8237C38.5129 40.7413 37.7694 44.9389 35.6467 45.4173C34.3359 45.7101 32.6241 44.4801 32.0176 42.8694C31.8122 42.3032 31.7731 41.8444 31.7731 41.7175C31.6752 39.3551 30.1003 22.6818 30.7851 21.2761C30.9318 20.9832 31.147 20.7977 31.147 20.7977C31.147 20.7977 31.4992 20.5049 32.0274 20.4463Z" fill="#F1BBA2"/>
<path d="M32.9141 21.4519C32.7869 21.4421 32.6597 21.4421 32.5326 21.4421H31.7793C31.6522 21.4421 31.525 21.4421 31.3978 21.4519C31.5152 21.5007 31.6424 21.5398 31.7696 21.5593C31.8967 21.5788 32.0239 21.5886 32.1511 21.5886C32.2782 21.5886 32.4054 21.5788 32.5326 21.5593C32.6695 21.5398 32.7967 21.5007 32.9141 21.4519Z" fill="#CF9980"/>
<path d="M29.9966 13.4568C29.9966 13.4568 31.816 15.3506 31.5519 17.2347C31.4052 18.289 31.1411 18.5623 30.9161 18.5623C30.7987 18.5623 30.6911 18.4354 30.5639 18.2987C30.3096 18.0156 30.2216 17.7033 30.1922 17.6056C29.9574 16.7954 30.1727 16.4342 29.9868 15.6728C29.8596 15.1359 29.7031 15.1164 29.3803 14.0718C29.2238 13.5642 29.1847 13.3397 29.2825 13.2421C29.4586 13.0761 29.9477 13.4275 29.9966 13.4568Z" fill="#F1BBA2"/>
<path d="M44.8929 30.5039C44.2882 30.1834 43.5419 30.5096 43.4045 31.18C43.0174 33.0683 42.7299 35.6077 43.0343 38.545C43.1322 39.4724 43.6604 44.49 44.8929 44.6072C45.6951 44.6853 47.0352 42.6841 49.3438 32.8636L44.8929 30.5039Z" fill="#6683C2"/>
<path d="M83.8906 34.0352C83.8906 34.0352 83.2254 47.8873 80.6136 48.4437C78.0018 49.0001 77.8845 36.1828 77.8845 36.1828L83.8906 34.0352Z" fill="#6683C2"/>
<path d="M36.98 46.1296C37.6256 46.1296 38.281 46.0124 38.907 45.7488L59.0384 37.6172C61.6796 36.5531 62.9512 33.5562 61.8752 30.9205C60.809 28.2848 57.8059 27.0158 55.1648 28.0896L35.0334 36.2212C32.3922 37.2853 31.1206 40.2822 32.1966 42.9179C33.0183 44.9191 34.9453 46.1296 36.98 46.1296Z" fill="#F1BBA2"/>
<path d="M90.7017 50.8642C92.5505 50.8642 94.3308 49.8684 95.2601 48.1308C96.5904 45.622 95.6318 42.508 93.1178 41.1804L77.4275 32.9023C74.9135 31.5746 71.793 32.5313 70.4627 35.0401C69.1323 37.5489 70.091 40.663 72.6049 41.9906L88.2953 50.2687C89.0681 50.6689 89.8898 50.8642 90.7017 50.8642Z" fill="#F1BBA2"/>
<path d="M43.807 32.6877L50.3512 30.0422L55.2422 38.867C55.2422 38.867 54.8118 39.1599 54.1075 39.6187L43.6016 43.8651C45.333 40.1946 44.1592 34.2496 43.807 32.6877Z" fill="#CF9980"/>
<path d="M84.7109 36.7383C83.5469 38.7004 81.1894 42.9566 80.5731 46.1878L77.257 44.4404C75.5648 41.5509 73.8627 38.4271 73.8627 38.4271L78.5189 33.4778L84.7109 36.7383Z" fill="#CF9980"/>
<path d="M39.3277 34.4934C40.0809 37.4805 38.0854 41.4536 38.6723 39.8332C38.7212 39.7063 38.7505 39.5794 38.7897 39.4329C39.0831 38.0663 38.7408 35.9675 38.506 34.8253L39.3277 34.4934Z" fill="#CF9980"/>
<path d="M72.9251 128.769C71.8029 128.409 70.9917 127.457 70.6995 126.315L56.2955 70.0469C56.1585 69.5002 56.0509 68.8755 56.002 68.2898C55.5716 62.6376 59.8072 57.7079 65.4612 57.2783C71.125 56.8488 76.0649 61.0757 76.4953 66.7181L81.2201 128.325C81.269 128.95 81.1907 129.565 81.0146 130.141C77.8311 130.004 75.1565 129.484 72.9251 128.769Z" fill="#7F9BD7"/>
<path d="M65.473 57.2881C71.1368 56.8586 76.0767 61.0855 76.5072 66.7279L76.8984 71.804C74.5018 73.0048 71.4303 73.9517 68.4859 73.1219C64.309 71.9407 60.3277 67.7821 56.3171 64.9024C57.3931 60.8024 60.9831 57.6298 65.473 57.2881Z" fill="#6683C2"/>
<path d="M69.0122 26.2644C69.0122 26.2644 63.0843 32.4144 58.5063 27.2406L43.7159 29.8665C43.7159 29.8665 47.5406 41.5711 44.8995 44.5875C46.3668 44.2946 47.8341 44.0018 49.3112 43.7089C47.6189 50.1811 45.9364 56.6532 44.2441 63.1253C50.7002 63.0277 55.6206 64.0625 59.0052 65.0777C62.7419 66.2003 65.52 67.567 70.5871 68.3772C73.9717 68.9141 76.828 68.9629 78.7551 68.9044C78.2953 61.5537 77.8356 54.2127 77.3758 46.862C78.4323 47.438 79.4789 48.0139 80.5354 48.5899C80.3887 46.6863 80.3887 43.9042 81.1908 40.6827C81.8951 37.8323 82.9907 35.6065 83.8906 34.0642L69.0122 26.2644Z" fill="#F2F2F2"/>
<path d="M49.5078 40.6437C49.5567 40.6437 49.5959 40.6144 49.6056 40.5656C50.5349 34.6401 54.4282 29.1539 54.4673 29.0953C54.4967 29.0563 54.4869 28.9977 54.4477 28.9684C54.4086 28.9392 54.3499 28.9489 54.3206 28.988C54.2815 29.0465 50.3589 34.5718 49.4296 40.5363C49.4198 40.5851 49.4589 40.6339 49.5078 40.6437C49.498 40.6437 49.498 40.6437 49.5078 40.6437Z" fill="#E3E3E3"/>
<path d="M76.1137 44.0602C76.1627 44.0602 76.2018 44.0212 76.2116 43.9724C76.3876 39.4721 73.2672 29.9445 73.2281 29.8469C73.2085 29.7981 73.1596 29.7688 73.1107 29.7883C73.0618 29.8079 73.0324 29.8567 73.052 29.9055C73.0813 30.0031 76.192 39.4917 76.0257 43.9626C76.0257 44.0114 76.0648 44.0505 76.1137 44.0602Z" fill="#E3E3E3"/>
<path d="M32.9288 75.2401C32.9777 73.8149 33.0853 72.3409 33.3298 70.9351C33.6037 69.3732 34.1417 67.0597 35.6188 65.1268C38.9447 60.7535 45.5573 61.0463 47.3181 61.1244C50.5853 61.2611 52.7178 62.2959 53.1873 62.5399C54.2144 63.0573 55.085 63.6723 56.9338 65.3709C61.2379 69.3244 63.39 71.3061 63.9475 73.6392C64.0551 74.0785 64.9453 78.0516 62.7737 80.2285C62.3433 80.658 61.2086 81.5854 53.6373 81.6342C51.2113 81.6537 49.2256 81.5463 47.8855 81.4585C46.5258 90.703 45.391 102.583 44.2857 111.964C41.889 111.31 38.2913 109.771 36.337 108.902C35.476 108.519 34.8998 107.699 34.8159 106.76C34.3521 101.575 32.8793 84.3497 32.9288 75.2401Z" fill="#7F9BD7"/>
<path d="M44.7868 75.8945C44.9042 75.8847 45.1488 75.9628 45.8726 76.6852C46.0096 76.8219 46.1368 76.9683 46.2639 77.1147C46.1368 76.4802 46.0487 75.8945 45.9998 75.4162C45.902 74.4205 46.0096 74.2252 46.127 74.1666C46.1563 74.1471 46.215 74.1374 46.2933 74.1569C46.6356 74.2838 47.2226 75.3869 47.5062 76.1288C47.8388 76.9976 47.9269 77.7395 47.9562 78.0226V78.0324C48.0638 78.9207 48.2203 80.0531 48.4453 81.4881C48.3768 81.4881 48.3181 81.4783 48.2497 81.4783C48.2399 81.4002 48.2301 81.3319 48.2203 81.2635C48.2105 81.3416 48.191 81.41 48.1519 81.449C48.1421 81.4588 48.1323 81.4685 48.1323 81.4783C48.054 81.4685 47.9758 81.4685 47.9073 81.4588C47.9073 81.4783 47.8975 81.4978 47.8975 81.5174C47.2617 81.3124 46.6063 78.6083 46.4204 77.759C46.4009 77.6809 46.3911 77.6028 46.3715 77.5345C46.1759 77.2807 45.9802 77.0464 45.7553 76.8316C45.051 76.119 44.8553 76.0897 44.826 76.0897C44.8162 76.119 44.7673 76.3533 45.3542 77.554C45.7063 78.2569 46.215 79.1647 46.6845 79.9164C47.066 80.5216 47.4671 81.1074 47.878 81.6638C47.8682 81.7516 47.8486 81.8395 47.8388 81.9274C47.3791 81.3221 46.9389 80.6876 46.5183 80.0238C46.0389 79.2624 45.5303 78.3447 45.1781 77.6321C44.4836 76.2264 44.6108 76.0507 44.6695 75.9726C44.689 75.9238 44.7281 75.8945 44.7868 75.8945ZM47.0465 79.4869C47.5845 81.2245 47.8975 81.3319 47.9562 81.3319C47.9758 81.3319 47.9856 81.3319 47.9953 81.3221C48.191 81.0781 47.6432 79.3893 46.6356 77.9152C46.753 78.4716 46.8998 79.0183 47.0465 79.4869ZM46.528 77.4466C47.2617 78.4131 47.829 79.565 48.0736 80.3947C47.9366 79.4771 47.829 78.7059 47.7606 78.0519V78.0421C47.7312 77.7688 47.6432 77.0366 47.3204 76.1971C46.9291 75.1819 46.3617 74.3326 46.215 74.3326C46.1465 74.3814 46.0781 74.8402 46.2933 76.1971C46.352 76.5974 46.4302 77.0171 46.528 77.4466Z" fill="#6683C2"/>
<path d="M56.02 68.2996L59.2578 81.4586C57.8394 81.5953 56.0102 81.605 53.6527 81.6246C51.5398 81.6343 49.7595 81.566 48.4487 81.4879C50.3953 81.5074 56.8417 80.6581 56.02 68.2996Z" fill="#6683C2"/>
<path d="M110.626 46.7632C109.266 47.1146 107.936 45.8748 106.919 44.9572C106.762 44.8108 104.992 43.1805 105.275 42.7705C105.393 42.6046 105.696 42.8584 106.283 42.8096C107.721 42.7022 108.484 40.9939 109.941 40.8475C109.99 40.8475 110.02 40.8377 110.049 40.8377C110.949 40.7596 111.438 40.7108 111.8 41.0427C113.072 42.1946 111.291 46.4605 111.291 46.4605C111.154 46.5582 110.919 46.6851 110.626 46.7632Z" fill="#DDA78D"/>
<path d="M113.122 27.9064L105.654 64.247C105.595 64.5342 105.314 64.7194 105.027 64.6606L78.8816 59.3097C78.5943 59.2509 78.4093 58.9704 78.4683 58.6831L85.9365 22.3426C85.9956 22.0553 86.2763 21.8701 86.5636 21.9289L112.709 27.2798C112.996 27.3386 113.181 27.6192 113.122 27.9064Z" fill="#FAF0EB"/>
<path d="M91.8982 39.0994C91.7933 39.0517 91.7241 38.9255 91.7573 38.7827L93.5582 30.8546C93.5915 30.7118 93.7296 30.6167 93.8989 30.6621L101.841 32.4728C101.905 32.4705 101.972 32.5324 102.012 32.5824C102.053 32.6325 102.07 32.7348 102.046 32.7871L100.245 40.7153C100.235 40.8057 100.185 40.8462 100.135 40.8866C100.085 40.927 99.9829 40.9436 99.9305 40.9197L91.9887 39.109C91.9244 39.1113 91.9244 39.1113 91.8982 39.0994ZM94.0256 31.2881L92.3459 38.6714L99.7418 40.3603L101.422 32.977L94.0256 31.2881Z" fill="#6683C2"/>
<path d="M95.4895 38.6494C95.3584 38.5898 95.2392 38.504 95.17 38.3778L93.4022 35.5847C93.1827 35.2323 93.2944 34.7779 93.6469 34.5592C93.9995 34.3406 94.4547 34.4528 94.6742 34.8052L95.8265 36.6554L100.486 30.0267C100.731 29.6961 101.179 29.6155 101.522 29.8348C101.854 30.0802 101.935 30.5277 101.716 30.8702L96.4211 38.4099C96.2735 38.5954 96.0472 38.7451 95.8017 38.7282C95.685 38.7067 95.5944 38.6971 95.4895 38.6494Z" fill="#86A6EB"/>
<path d="M88.7368 55.5767C88.6843 55.5528 88.6438 55.5028 88.6295 55.4647C88.5889 55.4147 88.5722 55.3124 88.596 55.26L90.3968 47.3318C90.4301 47.1891 90.5682 47.094 90.7375 47.1394L98.6792 48.9501C98.8222 48.9835 98.9176 49.1216 98.8725 49.2906L97.0716 57.2188C97.0621 57.3092 97.0121 57.3496 96.9621 57.39C96.9121 57.4304 96.8096 57.447 96.7572 57.4232L88.8154 55.6124C88.8011 55.5743 88.763 55.5886 88.7368 55.5767ZM90.8761 47.7392L89.1964 55.1225L96.5923 56.8114L98.272 49.4281L90.8761 47.7392Z" fill="#6683C2"/>
<path d="M92.4465 54.6751C92.3154 54.6154 92.1962 54.5297 92.127 54.4035L90.3592 51.6104C90.1397 51.258 90.2514 50.8035 90.6039 50.5849C90.9565 50.3662 91.4117 50.4785 91.6312 50.8309L92.7836 52.681L97.4426 46.0523C97.6879 45.7217 98.1358 45.6412 98.4792 45.8604C98.8106 46.1058 98.8919 46.5533 98.6729 46.8958L93.3782 54.4355C93.2305 54.621 93.0042 54.7707 92.7588 54.7539C92.6158 54.7204 92.5252 54.7108 92.4465 54.6751Z" fill="#86A6EB"/>
<path d="M109.076 39.4515H109.213C109.252 39.4515 109.291 39.4515 109.34 39.4612C109.418 39.4612 109.496 39.471 109.575 39.4808C109.731 39.5003 109.888 39.5198 110.044 39.5589C110.357 39.6272 110.66 39.7346 110.954 39.8712C111.101 39.9396 111.247 40.0274 111.384 40.125C111.521 40.2227 111.658 40.3203 111.785 40.4374C112.04 40.6717 112.255 40.945 112.431 41.2477V41.2574C112.656 41.6381 112.519 42.1555 112.118 42.4093C111.717 42.6631 111.208 42.5558 110.983 42.1653C110.954 42.1262 110.934 42.0774 110.925 42.0286C110.856 41.8431 110.768 41.6577 110.641 41.4917C110.582 41.4039 110.514 41.3258 110.435 41.2574C110.357 41.1793 110.279 41.111 110.191 41.0427C110.015 40.906 109.819 40.7986 109.604 40.701C109.496 40.6522 109.389 40.6131 109.271 40.5839C109.213 40.5643 109.154 40.5546 109.105 40.535C109.076 40.5253 109.046 40.5253 109.027 40.5155L108.958 40.5058C108.675 40.496 108.46 40.252 108.489 39.9591C108.518 39.6662 108.792 39.4417 109.076 39.4515Z" fill="#F1BBA2"/>
<path d="M108.188 40.5645L108.472 40.6231C108.56 40.6426 108.658 40.6621 108.746 40.6816C108.922 40.7207 109.108 40.7695 109.284 40.8183C109.636 40.9159 109.998 41.0331 110.34 41.1795C110.516 41.2478 110.692 41.3259 110.868 41.4138C111.044 41.5016 111.221 41.5992 111.387 41.7066C111.563 41.814 111.729 41.9409 111.895 42.0971C112.062 42.2533 112.218 42.429 112.355 42.6535L112.375 42.6828C112.61 43.0635 112.482 43.5809 112.081 43.8347C111.69 44.0885 111.181 43.9909 110.947 43.6102C110.937 43.5907 110.927 43.5711 110.907 43.5516C110.868 43.4735 110.81 43.3857 110.722 43.2978C110.643 43.21 110.546 43.1221 110.428 43.0342C110.321 42.9464 110.193 42.8683 110.066 42.7902C109.939 42.7121 109.802 42.6438 109.655 42.5754C109.372 42.4388 109.078 42.3216 108.765 42.2045C108.609 42.1459 108.452 42.0971 108.296 42.0483C108.217 42.0288 108.139 41.9995 108.061 41.98L107.807 41.9116C107.445 41.814 107.239 41.4431 107.357 41.0721C107.474 40.7207 107.836 40.4961 108.188 40.5645Z" fill="#F1BBA2"/>
<path d="M108.557 42.2529L108.997 42.3603C109.144 42.3994 109.281 42.4384 109.418 42.4775C109.701 42.5653 109.985 42.6532 110.259 42.7703C110.543 42.8777 110.826 43.0046 111.11 43.1706C111.257 43.2487 111.403 43.3463 111.55 43.4732C111.628 43.5317 111.707 43.6001 111.785 43.6879L111.814 43.7172L111.844 43.7563C111.863 43.7856 111.883 43.8051 111.902 43.8344C111.922 43.8539 111.942 43.8929 111.961 43.9222C111.981 43.9515 112 43.9808 112.02 44.0101C112.215 44.4103 112.049 44.9179 111.638 45.1327C111.227 45.3572 110.729 45.2108 110.533 44.8106V44.8008V44.791L110.523 44.7813C110.513 44.7617 110.484 44.7325 110.455 44.7032C110.396 44.6446 110.318 44.5763 110.22 44.5079C110.034 44.381 109.819 44.2541 109.594 44.137C109.369 44.0198 109.124 43.9125 108.88 43.8051C108.753 43.7563 108.635 43.7075 108.508 43.6587L108.117 43.5122C107.774 43.3951 107.618 43.0144 107.755 42.6727C107.882 42.3603 108.234 42.1846 108.557 42.2529Z" fill="#F1BBA2"/>
<path d="M109.003 44.1666L109.306 44.2057C109.404 44.2154 109.502 44.2349 109.6 44.2545C109.795 44.2935 109.991 44.3326 110.196 44.3814C110.402 44.4399 110.607 44.4985 110.832 44.6059C110.949 44.6645 111.067 44.723 111.194 44.8304L111.243 44.8695C111.262 44.889 111.282 44.8987 111.292 44.9183C111.311 44.9378 111.321 44.9476 111.341 44.9671C111.36 44.9866 111.38 45.0061 111.39 45.0354C111.409 45.0549 111.419 45.0745 111.439 45.1037C111.458 45.133 111.468 45.1623 111.487 45.1916C111.497 45.2111 111.507 45.2209 111.507 45.2404C111.517 45.2599 111.517 45.2795 111.527 45.2892C111.536 45.3283 111.556 45.3576 111.566 45.3966C111.683 45.8066 111.419 46.2459 111.008 46.3728C110.588 46.4997 110.167 46.2752 110.059 45.8652C110.059 45.8749 110.069 45.8945 110.069 45.9042C110.069 45.914 110.079 45.914 110.079 45.9237C110.079 45.9335 110.079 45.9335 110.089 45.9335C110.098 45.953 110.108 45.9726 110.118 45.9726L110.128 45.9823C110.118 45.9726 110.089 45.9335 110.04 45.9042C109.942 45.8359 109.805 45.7676 109.658 45.709C109.512 45.6504 109.355 45.5918 109.189 45.543C109.11 45.5137 109.022 45.4942 108.944 45.4747L108.67 45.4064C108.328 45.3185 108.142 44.9768 108.24 44.6352C108.367 44.3423 108.68 44.1373 109.003 44.1666Z" fill="#F1BBA2"/>
<path d="M108.667 39.5687C108.735 39.5492 109.43 39.3051 109.713 39.598C109.733 39.6175 109.889 39.7834 109.831 39.9201C109.801 39.9884 109.743 40.0275 109.684 40.0568C109.567 40.1153 109.439 40.1251 109.195 40.1251C108.989 40.1251 108.882 40.1153 108.774 40.0568C108.755 40.047 108.735 40.0373 108.725 40.0177C108.579 39.9006 108.647 39.637 108.667 39.5687Z" fill="#EFC4BD"/>
<path d="M107.691 40.574C107.916 40.574 108.092 40.6033 108.209 40.6325C108.434 40.6814 108.61 40.7302 108.737 40.8864C108.767 40.9156 108.904 41.0914 108.845 41.2573C108.816 41.3549 108.737 41.4037 108.708 41.4233C108.659 41.4623 108.551 41.5209 108.209 41.4818C107.916 41.4428 107.779 41.433 107.691 41.3354C107.544 41.1792 107.554 40.8668 107.691 40.574Z" fill="#EFC4BD"/>
<path d="M108.105 42.2532C108.33 42.2532 108.506 42.2825 108.623 42.3117C108.848 42.3606 109.024 42.4094 109.151 42.5656C109.181 42.5948 109.318 42.7706 109.259 42.9365C109.23 43.0341 109.151 43.0829 109.122 43.1025C109.073 43.1415 108.966 43.2001 108.623 43.161C108.33 43.122 108.193 43.1025 108.105 43.0146C107.958 42.8584 107.958 42.546 108.105 42.2532Z" fill="#EFC4BD"/>
<path d="M108.703 44.2153C108.889 44.2153 109.036 44.2349 109.134 44.2641C109.32 44.3032 109.466 44.3422 109.564 44.4691C109.584 44.4984 109.701 44.6351 109.652 44.7718C109.623 44.8499 109.564 44.8987 109.545 44.9084C109.506 44.9377 109.417 44.9865 109.134 44.9572C108.899 44.928 108.782 44.9084 108.703 44.8401C108.576 44.7034 108.586 44.4496 108.703 44.2153Z" fill="#EFC4BD"/>
<path d="M111.899 42.1847C111.928 42.1847 111.948 42.175 111.967 42.1555C112.006 42.1164 111.997 42.0578 111.957 42.0188C111.928 41.9993 111.331 41.4721 110.901 41.3159C110.852 41.2964 110.793 41.3257 110.784 41.3745C110.764 41.4233 110.793 41.4819 110.842 41.4916C111.234 41.6283 111.83 42.1555 111.84 42.1555C111.85 42.175 111.879 42.1847 111.899 42.1847Z" fill="#DDA78D"/>
<path d="M111.561 43.5709C111.591 43.5709 111.62 43.5513 111.64 43.5318C111.669 43.4928 111.659 43.4342 111.61 43.4049C111.552 43.3659 110.192 42.4873 109.664 42.4775C109.615 42.4775 109.566 42.5166 109.566 42.5752C109.566 42.624 109.605 42.6728 109.664 42.6728C110.055 42.6825 111.131 43.3171 111.503 43.5611C111.522 43.5611 111.542 43.5709 111.561 43.5709Z" fill="#DDA78D"/>
<path d="M111.201 44.9375C111.24 44.9375 111.27 44.918 111.289 44.8887C111.309 44.8399 111.289 44.7813 111.25 44.7618L109.959 44.1273C109.91 44.1078 109.851 44.1273 109.832 44.1663C109.812 44.2151 109.832 44.2737 109.871 44.2932L111.162 44.9278C111.172 44.9375 111.191 44.9375 111.201 44.9375Z" fill="#DDA78D"/>
</g>
<path fill-rule="evenodd" clip-rule="evenodd" d="M74.0035 16.3941L75.2259 7.91113L76.2578 16.3941H74.0035Z" fill="#FEA970"/>
<path fill-rule="evenodd" clip-rule="evenodd" d="M75.0649 6.54935C74.9199 6.59701 74.8144 6.74435 74.8144 6.9194C74.8144 7.13288 74.9715 7.3055 75.165 7.3055C75.3586 7.3055 75.5156 7.13288 75.5156 6.9194C75.5156 6.75067 75.4174 6.60673 75.2803 6.5547V5.90845H75.0653V6.54935H75.0649Z" fill="#6683C2"/>
<path fill-rule="evenodd" clip-rule="evenodd" d="M75.4375 7.16748C75.3733 7.25209 75.2765 7.30558 75.1686 7.30558C75.0606 7.30558 74.9653 7.25209 74.9007 7.16845V8.01845H75.207L75.2226 7.91147L75.2357 8.01845H75.437V7.16748H75.4375Z" fill="#FEAA71"/>
<path d="M65.0067 3.67602C65.0699 3.677 65.1336 3.67845 65.1968 3.6804C65.1988 3.6804 65.2007 3.6804 65.2032 3.6804C65.2649 3.68234 65.3267 3.68478 65.3884 3.68769C65.3923 3.68769 65.3962 3.68769 65.4001 3.68818C65.4604 3.6911 65.5207 3.6945 65.5805 3.69888C65.5859 3.69888 65.5917 3.69936 65.597 3.69985C65.6559 3.70374 65.7147 3.7086 65.7736 3.71347C65.7804 3.71395 65.7877 3.71444 65.7945 3.71541C65.8518 3.72027 65.9097 3.72611 65.9671 3.73194C65.9754 3.73292 65.9841 3.7334 65.9924 3.73438C66.0488 3.74021 66.1047 3.74653 66.1611 3.75334C66.1708 3.75431 66.1806 3.75577 66.1908 3.75674C66.2457 3.76355 66.3007 3.77085 66.3561 3.77863C66.3673 3.78009 66.378 3.78154 66.3892 3.78349C66.4431 3.79127 66.4971 3.79905 66.5511 3.8078C66.5633 3.80975 66.5754 3.81169 66.5876 3.81364C66.6406 3.8219 66.6936 3.83114 66.7466 3.84038C66.7602 3.84281 66.7733 3.84525 66.7869 3.84768C66.839 3.85692 66.891 3.86664 66.9425 3.87637C66.9571 3.87928 66.9712 3.8822 66.9858 3.88463C67.0369 3.89485 67.0875 3.90506 67.1385 3.91575C67.1541 3.91916 67.1701 3.92256 67.1857 3.92597C67.2358 3.93666 67.2854 3.94785 67.3355 3.95903C67.3525 3.96292 67.369 3.96681 67.386 3.9707C67.4351 3.98189 67.4838 3.99356 67.5329 4.00571C67.5509 4.01009 67.5689 4.01447 67.5864 4.01933C67.6345 4.03149 67.6827 4.04364 67.7303 4.05629C67.7493 4.06115 67.7682 4.0665 67.7867 4.07136C67.8339 4.084 67.8811 4.09713 67.9282 4.11026C67.9482 4.1161 67.9681 4.12145 67.988 4.12728C68.0342 4.14041 68.0804 4.15403 68.1266 4.16764C68.1475 4.17396 68.1684 4.18029 68.1893 4.18661C68.2346 4.20022 68.2798 4.21432 68.3255 4.22891C68.3474 4.23572 68.3693 4.24301 68.3916 4.25031C68.4359 4.2649 68.4806 4.279 68.5249 4.29407C68.5477 4.30185 68.5711 4.30963 68.5939 4.31741C68.6372 4.332 68.681 4.34708 68.7242 4.36264C68.7481 4.3709 68.7724 4.37966 68.7962 4.38841C68.839 4.40397 68.8818 4.41904 68.9241 4.43509C68.9489 4.44433 68.9742 4.45406 68.999 4.4633C69.0408 4.47886 69.0826 4.4949 69.1244 4.51095C69.1507 4.52116 69.1765 4.53137 69.2027 4.54158C69.2436 4.55763 69.2844 4.57368 69.3253 4.59021C69.3525 4.6014 69.3797 4.61258 69.4065 4.62376C69.4464 4.6403 69.4862 4.65683 69.5261 4.67336C69.5543 4.68552 69.5825 4.69768 69.6107 4.70983C69.6496 4.72637 69.6885 4.74339 69.7274 4.76041C69.7566 4.77354 69.7863 4.78666 69.8154 4.79979C69.8534 4.81681 69.8913 4.83383 69.9292 4.85134C69.9594 4.86544 69.99 4.87954 70.0202 4.89364C70.0571 4.91115 70.0941 4.92817 70.1315 4.94568C70.1631 4.96075 70.1952 4.97631 70.2273 4.99187C70.2628 5.00889 70.2983 5.02591 70.3338 5.0439C70.3674 5.06044 70.4014 5.07794 70.4349 5.09447C70.469 5.11149 70.5025 5.12851 70.5366 5.14553C70.5721 5.16352 70.6076 5.18249 70.6431 5.20097C70.6752 5.2175 70.7077 5.23403 70.7398 5.25154C70.7778 5.27148 70.8157 5.29239 70.8536 5.31281C70.8838 5.32886 70.9134 5.3449 70.9436 5.36095C70.9864 5.38429 71.0297 5.4086 71.0724 5.43243C71.0972 5.44653 71.1225 5.46015 71.1473 5.47377C71.2154 5.51218 71.2835 5.55108 71.3516 5.59047V9.627C69.1964 8.37485 67.0811 7.73833 65.0062 7.71207V3.67554L65.0067 3.67602Z" fill="#86A6EB"/>
<path d="M58.8185 5.47207C58.8394 5.45942 58.8599 5.44727 58.8808 5.43511C58.9245 5.40885 58.9683 5.38259 59.0121 5.35682C59.0364 5.34272 59.0607 5.32862 59.085 5.315C59.1254 5.29166 59.1657 5.26832 59.2061 5.24546C59.2314 5.23136 59.2567 5.21775 59.2815 5.20364C59.3208 5.18176 59.3607 5.15939 59.4001 5.138C59.4254 5.12438 59.4507 5.11077 59.4765 5.09715C59.5158 5.07576 59.5557 5.05485 59.5951 5.03394C59.6199 5.02081 59.6447 5.00816 59.6695 4.99552C59.7099 4.97461 59.7497 4.9537 59.7901 4.93376C59.8144 4.92161 59.8387 4.90945 59.8635 4.89778C59.9044 4.87736 59.9452 4.85742 59.9856 4.83748C60.0094 4.82581 60.0332 4.81463 60.0571 4.80344C60.0984 4.78351 60.1402 4.76406 60.1815 4.74461C60.2044 4.73391 60.2277 4.7237 60.2506 4.713C60.2929 4.69355 60.3352 4.67458 60.3775 4.65562C60.3999 4.64541 60.4227 4.63617 60.4451 4.62596C60.4879 4.60748 60.5312 4.58851 60.574 4.57052C60.5958 4.56128 60.6177 4.55253 60.6396 4.54329C60.6834 4.5253 60.7271 4.50682 60.7709 4.48931C60.7918 4.48105 60.8132 4.47278 60.8341 4.46451C60.8789 4.44701 60.9236 4.42902 60.9683 4.412C60.9888 4.40422 61.0092 4.39692 61.0296 4.38914C61.0753 4.37212 61.1205 4.3551 61.1662 4.33857C61.1857 4.33128 61.2051 4.32447 61.2246 4.31766C61.2713 4.30113 61.318 4.28459 61.3646 4.26855C61.3831 4.26223 61.4016 4.2559 61.4201 4.24958C61.4677 4.23354 61.5154 4.21797 61.5626 4.20241C61.5805 4.19658 61.5981 4.19123 61.616 4.18539C61.6647 4.16983 61.7128 4.15476 61.7614 4.14017C61.7785 4.13482 61.7955 4.12996 61.812 4.1251C61.8616 4.11051 61.9112 4.09592 61.9608 4.08182C61.9769 4.07744 61.9929 4.07307 62.0085 4.06869C62.059 4.05459 62.1096 4.04097 62.1602 4.02784C62.1753 4.02395 62.1908 4.02006 62.2059 4.01617C62.2574 4.00304 62.309 3.98991 62.3605 3.97727C62.3746 3.97387 62.3892 3.97046 62.4033 3.96706C62.4558 3.95442 62.5083 3.94226 62.5609 3.93059C62.574 3.92767 62.5876 3.92475 62.6007 3.92184C62.6542 3.91017 62.7082 3.8985 62.7617 3.8878C62.7739 3.88537 62.786 3.88293 62.7982 3.8805C62.8531 3.8698 62.9076 3.85911 62.9625 3.8489C62.9737 3.84695 62.9854 3.84452 62.9966 3.84257C63.0525 3.83236 63.1084 3.82312 63.1643 3.81388C63.1745 3.81243 63.1852 3.81048 63.1955 3.80902C63.2523 3.79978 63.3092 3.79103 63.3666 3.78276C63.3759 3.7813 63.3851 3.77985 63.3948 3.77887C63.4527 3.77061 63.511 3.76283 63.5694 3.75553C63.5777 3.75456 63.5864 3.75359 63.5947 3.75261C63.654 3.74532 63.7133 3.73851 63.7727 3.73268C63.7799 3.7317 63.7872 3.73122 63.7945 3.73025C63.8548 3.72392 63.9156 3.71858 63.9759 3.71323C63.9822 3.71274 63.9886 3.71225 63.9944 3.71177C64.0561 3.70642 64.1179 3.70204 64.1797 3.69815C64.1845 3.69815 64.1899 3.69767 64.1947 3.69718C64.2575 3.69329 64.3207 3.68989 64.3834 3.68697C64.3873 3.68697 64.3917 3.68697 64.3956 3.68648C64.4598 3.68356 64.5239 3.68113 64.5881 3.67967C64.591 3.67967 64.5935 3.67967 64.5964 3.67967C64.662 3.67821 64.7277 3.67676 64.7938 3.67627C64.7953 3.67627 64.7967 3.67627 64.7982 3.67627C64.8653 3.67627 64.9329 3.67627 65 3.67676V7.71329C62.8307 7.68606 60.7053 8.3255 58.6235 9.62822V5.59169C58.6877 5.55133 58.7524 5.51194 58.8166 5.47255L58.8185 5.47207Z" fill="#4C68A7"/>
<path d="M64.3809 0.26593C64.7807 0.095749 65.2326 0.0962228 65.632 0.267242L76.1352 4.7647C76.5619 4.94742 76.5653 5.55114 76.1407 5.73862L71.3521 7.85278V5.59114C71.284 5.55175 71.2159 5.51285 71.1478 5.47443C71.123 5.46033 71.0977 5.44671 71.0729 5.4331C71.0301 5.40927 70.9869 5.38496 70.9441 5.36161C70.9139 5.34508 70.8843 5.32952 70.8541 5.31347C70.8162 5.29305 70.7783 5.27263 70.7403 5.2522C70.7082 5.23518 70.6757 5.21865 70.6436 5.20163C70.6081 5.18315 70.5726 5.16468 70.5371 5.1462C70.503 5.12869 70.4695 5.11216 70.4354 5.09514C70.4019 5.07812 70.3678 5.0611 70.3343 5.04457C70.2988 5.02706 70.2633 5.01004 70.2278 4.99254C70.1957 4.97698 70.1641 4.96141 70.132 4.94634C70.0951 4.92883 70.0581 4.91133 70.0207 4.89431C69.9905 4.88021 69.9599 4.86562 69.9297 4.852C69.8918 4.8345 69.8539 4.81748 69.8159 4.80046C69.7868 4.78733 69.7571 4.77371 69.7279 4.76107C69.689 4.74405 69.6501 4.72703 69.6112 4.7105C69.583 4.69834 69.5548 4.68619 69.5266 4.67403C69.4867 4.65701 69.4469 4.64048 69.407 4.62443C69.3797 4.61325 69.3525 4.60206 69.3258 4.59088C69.2849 4.57434 69.2441 4.5583 69.2032 4.54225C69.177 4.53204 69.1512 4.52134 69.1249 4.51161C69.0831 4.49557 69.0413 4.47952 68.9995 4.46396C68.9747 4.45472 68.9494 4.445 68.9246 4.43576C68.8818 4.41971 68.839 4.40463 68.7967 4.38907C68.7729 4.38032 68.7486 4.37157 68.7247 4.3633C68.6815 4.34774 68.6377 4.33315 68.5944 4.31808C68.5716 4.3103 68.5482 4.30203 68.5254 4.29474C68.4811 4.27966 68.4364 4.26556 68.3921 4.25097C68.3702 4.24368 68.3484 4.23687 68.326 4.22958C68.2808 4.21499 68.2351 4.20137 68.1898 4.18727C68.1689 4.18095 68.148 4.17463 68.1271 4.16831C68.0809 4.15469 68.0347 4.14108 67.9885 4.12795C67.9686 4.12211 67.9487 4.11628 67.9287 4.11093C67.8815 4.0978 67.8344 4.08467 67.7872 4.07203C67.7682 4.06716 67.7493 4.06181 67.7308 4.05695C67.6827 4.04431 67.6345 4.03215 67.5869 4.02C67.5689 4.01562 67.5509 4.01124 67.5334 4.00638C67.4843 3.99422 67.4356 3.98255 67.3865 3.97137C67.3695 3.96748 67.353 3.96359 67.336 3.9597C67.2859 3.94851 67.2363 3.93733 67.1862 3.92663C67.1706 3.92323 67.1546 3.91982 67.139 3.91642C67.088 3.90572 67.0369 3.89551 66.9863 3.8853C66.9717 3.88238 66.9576 3.87946 66.943 3.87703C66.891 3.86682 66.839 3.85758 66.7874 3.84834C66.7738 3.84591 66.7607 3.84348 66.7471 3.84105C66.6941 3.83181 66.6411 3.82306 66.5881 3.8143C66.5759 3.81236 66.5638 3.81041 66.5516 3.80847C66.4976 3.8002 66.4436 3.79193 66.3897 3.78415C66.3785 3.7827 66.3678 3.78124 66.3566 3.77929C66.3017 3.77151 66.2462 3.76422 66.1913 3.75741C66.1815 3.75644 66.1718 3.75498 66.1616 3.75401C66.1052 3.7472 66.0493 3.74088 65.9929 3.73504C65.9846 3.73407 65.9759 3.7331 65.9676 3.73261C65.9102 3.72677 65.8523 3.72143 65.795 3.71608C65.7882 3.71559 65.7809 3.7151 65.7741 3.71413C65.7152 3.70927 65.6564 3.70441 65.5975 3.70052C65.5922 3.70052 65.5864 3.70003 65.581 3.69954C65.5207 3.69565 65.4604 3.69176 65.4006 3.68885C65.3967 3.68885 65.3928 3.68885 65.3889 3.68836C65.3272 3.68544 65.2654 3.68301 65.2037 3.68106C65.2017 3.68106 65.1998 3.68106 65.1973 3.68106C65.1336 3.67912 65.0704 3.67766 65.0072 3.67669C64.9401 3.67572 64.8725 3.67572 64.8054 3.6762C64.8039 3.6762 64.8025 3.6762 64.801 3.6762C64.7354 3.6762 64.6692 3.67766 64.6036 3.67961C64.6007 3.67961 64.5983 3.67961 64.5953 3.67961C64.5311 3.68106 64.467 3.6835 64.4028 3.68641C64.3989 3.68641 64.3945 3.68641 64.3906 3.6869C64.3274 3.68982 64.2647 3.69322 64.2019 3.69711C64.1971 3.69711 64.1917 3.6976 64.1869 3.69808C64.1251 3.70197 64.0634 3.70684 64.0016 3.7117C63.9953 3.71219 63.989 3.71267 63.9831 3.71316C63.9223 3.71851 63.862 3.72386 63.8017 3.73018C63.7944 3.73115 63.7872 3.73164 63.7799 3.73261C63.7205 3.73893 63.6612 3.74574 63.6019 3.75255C63.5936 3.75352 63.5849 3.75449 63.5766 3.75546C63.5182 3.76276 63.4604 3.77054 63.402 3.77881C63.3928 3.78026 63.3835 3.78124 63.3738 3.7827C63.3169 3.79096 63.2595 3.79971 63.2027 3.80895C63.1924 3.81041 63.1817 3.81236 63.1715 3.81382C63.1156 3.82306 63.0597 3.83278 63.0038 3.84251C62.9926 3.84445 62.9809 3.8464 62.9697 3.84883C62.9148 3.85904 62.8598 3.86925 62.8054 3.88044C62.7932 3.88287 62.7811 3.8853 62.7689 3.88773C62.7149 3.89843 62.6614 3.9101 62.6079 3.92177C62.5948 3.92469 62.5812 3.9276 62.5681 3.93052C62.5156 3.94219 62.463 3.95435 62.4105 3.96699C62.3964 3.9704 62.3818 3.9738 62.3677 3.9772C62.3162 3.98985 62.2646 4.00249 62.2131 4.0161C62.198 4.01999 62.1825 4.02388 62.1674 4.02778C62.1168 4.0409 62.0662 4.05501 62.0157 4.06862C61.9996 4.073 61.9836 4.07737 61.968 4.08175C61.9184 4.09585 61.8688 4.11044 61.8192 4.12503C61.8022 4.12989 61.7852 4.13524 61.7686 4.1401C61.72 4.15469 61.6719 4.16977 61.6232 4.18533C61.6053 4.19116 61.5878 4.19651 61.5698 4.20235C61.5221 4.21791 61.4745 4.23347 61.4273 4.24952C61.4088 4.25584 61.3903 4.26167 61.3718 4.26848C61.3252 4.28453 61.2785 4.30106 61.2318 4.31759C61.2123 4.3244 61.1929 4.33121 61.1734 4.3385C61.1277 4.35504 61.0825 4.37205 61.0368 4.38907C61.0164 4.39685 60.996 4.40415 60.9755 4.41193C60.9308 4.42895 60.8861 4.44645 60.8413 4.46445C60.8204 4.47271 60.799 4.48098 60.7781 4.48925C60.7343 4.50675 60.6906 4.52523 60.6468 4.54322C60.6249 4.55246 60.6031 4.56121 60.5812 4.57045C60.5384 4.58845 60.4951 4.60741 60.4523 4.62589C60.4299 4.63561 60.4071 4.64534 60.3847 4.65555C60.3424 4.67452 60.3001 4.69348 60.2578 4.71293C60.2349 4.72363 60.2116 4.73384 60.1888 4.74454C60.1474 4.76399 60.1056 4.78344 60.0643 4.80338C60.0404 4.81456 60.0166 4.82575 59.9928 4.83742C59.9519 4.85735 59.9111 4.87729 59.8707 4.89771C59.8464 4.90987 59.8221 4.92154 59.7973 4.9337C59.7569 4.95412 59.7171 4.97503 59.6767 4.99545C59.6519 5.0081 59.6271 5.02074 59.6023 5.03387C59.5629 5.05478 59.523 5.07617 59.4837 5.09708C59.4584 5.1107 59.4331 5.12383 59.4073 5.13793C59.3679 5.15933 59.3281 5.18169 59.2887 5.20358C59.2634 5.21768 59.2381 5.23129 59.2133 5.2454C59.1729 5.26825 59.1326 5.29159 59.0922 5.31493C59.0679 5.32903 59.0436 5.34265 59.0193 5.35675C58.9755 5.38252 58.9317 5.40878 58.888 5.43504C58.8671 5.44768 58.8466 5.45936 58.8257 5.472C58.7611 5.5109 58.6969 5.55077 58.6327 5.59114V7.60916L53.9385 5.69494C53.5014 5.51672 53.4967 4.89954 53.931 4.71466L64.3809 0.26593Z" fill="#6683C2"/>
</g>
<defs>
<clipPath id="clip0_368_302">
<rect width="116.823" height="91.8651" fill="white" transform="matrix(-1 0 0 1 116.82 0)"/>
</clipPath>
<clipPath id="clip1_368_302">
<rect width="116.709" height="150.001" fill="white" transform="matrix(-1 0 0 1 116.906 4.11475)"/>
</clipPath>
</defs>
</svg>
