<svg width="774" height="393" fill="none" xmlns="http://www.w3.org/2000/svg"><g clip-path="url(#a)"><path d="M-303.671 394.447h100.095c.195-.259.394-.518.589-.777l.398-.515c.058.431.125.862.208 1.292h58.884c26.832-22.104 53.136-43.661 80.358-65.309-17.611 20.962-34.326 42.737-49.846 65.309h75.574a1531.998 1531.998 0 0 1 22.923-18.302c-.909.64 5.39-3.978.095-.067 2.57-1.761 31.812-25.396 80.106-58.124C41.338 341.388 17 366.349-8.351 394.452h78.803c30.687-25.187 61.22-49.237 101.538-78.74a2683.909 2683.909 0 0 1 18.537-13.447 1370.847 1370.847 0 0 0-25.106 27.559c-18.586 20.987-36.517 42.552-53.813 64.628h80.994c13.229-10.565 24.167-19.236 37.081-29.315 33.505-26.099 68.37-52.123 102.584-76.097-17.652 17.04-34.956 34.451-51.846 52.273a1663.036 1663.036 0 0 0-48.202 53.139h90.351c11.735-8.7 23.516-17.345 35.371-25.877-1.186 1.35-2.373 2.701-3.556 4.057a1021.042 1021.042 0 0 0-18.4 21.815h99.555a1958.31 1958.31 0 0 1 16.848-12.342c.718-.519 1.436-1.033 2.154-1.548-1.083 1.18-2.183 2.347-3.266 3.535a908.39 908.39 0 0 0-9.275 10.355h235.441a227.598 227.598 0 0 0 2.203-6.047c3.27-9.445-1.556-20.708-8.951-26.463-3.203-2.497-6.552-3.982-9.984-4.647a1066.13 1066.13 0 0 1 17.607-14.141c8.295-6.512 9.35-22.004 3.905-30.511-5.689-8.892-17.59-15.429-28.209-11.569a969.686 969.686 0 0 0-81.658 33.97 2416.696 2416.696 0 0 1 31.007-27.671c16.204-14.233 32.55-28.307 48.899-42.373 8.034-6.914 9.536-21.707 3.905-30.511a30.004 30.004 0 0 0-8.963-9.035c-4.693-3.049-13.918-4.768-19.246-2.538-29.923 12.526-58.834 26.872-86.948 42.611.933-.715 1.867-1.435 2.805-2.146 4.83-3.655 9.693-7.269 14.586-10.837a1056.524 1056.524 0 0 1 31.878-22.351c10.839-7.315 16.578-22.535 8.963-34.447-7.59-11.866-19.333-15.601-34.177-9.034a895.831 895.831 0 0 0-20.221 9.252c-8.893 4.203-16.126-8.198-8.171-14.003a1759.67 1759.67 0 0 1 19.919-14.317c24.782-17.562 8.498-52.026-19.247-46.016-54.045 11.703-113.875 47.706-163.439 79.258 53.398-42.607 59.83-40.879 63.499-54.309 1.647-6.027.904-14.053-2.519-19.399-3.44-5.374-8.557-10.109-14.927-11.568-6.963-1.598-12.764-.343-19.246 2.538-20.927 9.294-41.455 19.415-61.643 30.185-2.98-13.446-18.541-24.162-30.849-18.934-1.988.845-3.971 1.702-5.959 2.556l-.008-.017c-2.66 1.761-45.941 18.612-109.647 51.792-11.188 5.826-21.271-9.427-11.615-17.575 2.971-2.505 5.942-5.015 8.918-7.524 9.523-8.035 8.959-23.92 1.954-33.059-7.814-10.193-21.014-12.305-32.222-6.483-33.596 17.45-66.125 36.706-97.833 57.263-10.187 6.604-21.209-7.094-12.694-15.772.253-.26.51-.519.764-.778 8.785-8.951 9.51-23.201 1.954-33.059-7.266-9.477-21.715-13.359-32.222-6.483a1073.728 1073.728 0 0 0-83.475 60.504c-3.805 3.045-8.735-2.011-5.64-5.788a1212.82 1212.82 0 0 1 29.165-34.276c21.723-24.58-8.84-57.287-35.327-35.605a867.119 867.119 0 0 0-50.543 44.794c-5.037 4.827-13.333 1.138-13.266-5.868v-.368c0-24.309-31.326-32.515-42.642-17.805-59.204 76.967-101.099 155.117-131.769 240.92-3.519 9.846 1.693 21.749 10.216 27.68v.004Z" fill="url(#b)"/><path d="M555.789 204.525c-30.801 4.496-23.331 17.577-44.621 28.994 21.314 4.769 48.468 1.141 48.468 1.141s6.116-2.282 0 14.384c-6.115 16.666 0 39.721-3.623 45.885 11.551-7.075 28.537-39.496 28.537-39.496s2.535 2.052 8.156 9.131c5.617 7.08 14.947 9.587 17.439 14.154 3.11-13.468 0-34.927 0-34.927s-10.929 2.852 10.419 5.934c21.343 3.082 43.009-8.561 54.56-4.453-15.403-22.6-50.256-38.235-36.632-35.268.699.153-66.178 13.699-82.708-5.479h.005Z" fill="#266E70"/><path d="M567.112 197.222c-6.796-9.816 5.326-22.369 15.855-18.717 14.005 4.86-5.164 29.219 15.993 18.717 10.281-13.013 30.668-13.924 24.776-2.281-5.887 11.642-46.205 30.82-56.624 2.281Z" fill="#266E70"/><path d="M596.785 319.743c-4.076 7.376-21.3 2.492-21.3 2.492-4.156-16.713-3.424-50.433-1.579-69.745.675-6.969 1.489-12.05 2.269-13.79 2.943-6.557 12.673-16.143 17.657-2.444.309.853.609 1.893.894 3.092.081.321.162.656.228 1.016.228 1.016.438 2.133.642 3.345.048.245.09.494.124.738a123.3 123.3 0 0 1 .608 4.156c.048.36.105.714.138 1.074.024.148.048.302.057.45.081.575.148 1.179.219 1.779.033.345.081.69.114 1.049.057.566.124 1.131.186 1.721.033.312.066.623.09.944.105.959.186 1.927.276 2.919.033.336.057.657.09.992.081 1.007.162 2.018.243 3.049.081 1.026.161 2.066.228 3.115.048.691.09 1.395.138 2.114.048.786.09 1.568.138 2.368.033.518.066 1.04.09 1.558.228 4.28.4 8.632.504 12.879.414 16.632-.171 31.726-2.049 35.129h-.005Z" fill="#A76D52"/><path d="M598.839 284.609c-3.415-18.602-14.395-28.864-24.929-32.119.675-6.969 1.489-12.05 2.269-13.79 2.943-6.557 12.673-16.143 17.657-2.444.309.853.609 1.893.894 3.092.081.321.162.656.228 1.016.228 1.016.438 2.133.642 3.345.048.245.09.494.124.738a123.3 123.3 0 0 1 .608 4.156c.048.36.105.714.138 1.074.024.148.048.302.057.45.081.575.148 1.179.219 1.779.033.345.081.69.114 1.049.067.566.124 1.131.186 1.721.033.312.066.623.09.944.105.959.195 1.927.276 2.919.033.336.057.657.09.992.091 1.007.171 2.018.243 3.049.081 1.026.161 2.066.228 3.115.048.691.09 1.395.138 2.114.048.786.09 1.568.138 2.368.033.518.066 1.04.09 1.558.228 4.28.4 8.632.504 12.879l-.004-.005Z" fill="#754D3B"/><path d="M546.574 312.999h72.779v34.155c0 12.87-10.367 23.314-23.131 23.314h-26.517c-12.769 0-23.131-10.449-23.131-23.314v-34.155Z" fill="#405B57"/><path d="m619.355 345.045-48.687 25.428h25.556c12.773 0 23.131-10.439 23.131-23.314v-2.114Z" fill="#2B3836"/><path d="M577.077 202.014c.452-26.708 11.822-38.81 21.88-44.744 10.058-5.934 28.077-20.774 39.034-22.739-15.827 16.436-19.917 53.103-34.64 67.483 15.299-12.175 24.363-18.775 36.813-16.781 20.016 3.202 39.29 13.814 60.352 21.119-10.419 6.394-51.217 14.609-56.186 14.384-4.97-.23-30.108-3.422-30.108-3.422 16.084 15.525 19.536 52.734 28.001 58.212-17.129-1.596-50.651-18.947-57.447-37.209-9.059 17.576-61.608 30.82-70.439 45.199 2.04-15.065 17.439-48.626 28.767-60.038 11.322-11.413 24.234-12.328 24.234-12.328s-64.552 1.596-81.99-18.492c27.406 2.056 46.884-14.84 62.288-13.239 15.403 1.596 28.086 16.436 29.446 22.6l-.005-.005Z" fill="#3A8585"/><path d="M649.672 199.598c-20.054-.378-39.676 2.052-58.441 9.194-1.365.522-.775 2.751.609 2.224 18.58-7.07 38.082-10.483 57.941-10.104 1.474.028 1.36-1.285-.114-1.314h.005Z" fill="#8CC2BD"/><path d="M602.951 169.181c-9.764 11.149-14.395 25.571-12.798 40.377.157 1.462 2.45 1.476 2.293 0-1.527-14.183 1.531-28.787 10.909-39.5.97-1.112.575-1.994-.404-.877ZM608.75 237.781c-1.845-7.847-6.273-14.466-12.716-19.23-1.189-.882-2.335 1.121-1.156 1.993 5.949 4.401 10.962 9.975 12.664 17.198.338 1.443 1.55 1.486 1.208.039ZM560.976 197.475c-6.049-2.991-12.488-2.641-19.118-3.336-1.464-.154-1.578.953-.128 1.107 6.225.652 12.407 1.409 18.09 4.223 1.317.651 2.482-1.338 1.156-1.994Z" fill="#8CC2BD"/><path d="M442.815 158.861c-34.762 35.618-91.534 6.577-92.704-.69-3.595-22.345 2.968-32.186-1.384-43.138-4.36-10.952-9.515-21.938-8.322-39.563.961-14.355 7.043-31.725 16.079-45.458 8.498-12.927 19.602-22.633 31.51-23.591 7.223-.59 14.747 2.056 22.165 9.15 9.06-5 30.759 12.026 32.656 33.274 6.24 69.409 34.778 74.403 0 110.021v-.005Z" fill="#363537"/><path d="M449.155 88.469c-.79-1.247-2.773-.092-1.979 1.164 6.197 9.788 12.593 20.036 15.066 31.53 2.644 12.294-.723 27.248-14.286 30.901-1.422.383-.818 2.612.609 2.224 11.185-3.01 17.011-13.953 16.93-25.116-.11-14.907-8.66-28.582-16.34-40.708v.005Z" fill="#363537"/><path d="M463.757 140.561c-.68-11.187-4.513-21.799-10.766-31.026-.828-1.217-2.811-.067-1.979 1.165 4.994 7.367 8.47 15.597 9.863 24.44 1.503 9.51 1.76 22.48-8.103 27.474-1.317.667-.157 2.661 1.156 1.994 8.935-4.524 10.381-14.892 9.824-24.047h.005ZM363.322 134.067c-9.121.642-14.052-11.072-17.419-18.046-3.705-7.66-6.515-15.923-7.485-24.421-.875-7.679-.129-15.4 2.463-22.691 2.763-7.775 6.686-17.136 12.911-22.724 1.104-.992-.523-2.617-1.621-1.63-6.615 5.939-10.591 15.472-13.501 23.745-3.11 8.844-3.576 18.204-1.955 27.412 1.707 9.716 5.559 19 10.386 27.546 3.61 6.39 7.947 13.709 16.221 13.124 1.46-.101 1.475-2.411 0-2.31v-.005Z" fill="#363537"/><path d="M354.568 170.701c-10.762-9.255-11.271-24.89-10.225-38.076 1.075-13.57 3.909-26.938 2.835-40.608-.115-1.471-2.407-1.486-2.293 0 1.242 15.765-2.796 31.136-3.172 46.834-.285 12.016 1.679 25.265 11.233 33.48 1.118.959 2.744-.666 1.617-1.63h.005Z" fill="#363537"/><path d="M435.609 148.422s26.645 13.172 31.629 16.369c4.984 3.197 11.627 13.449 15.403 36.581 12.74 78.071 25.38 73.201 23.906 93.265 2.516 5.953 4.585 10.003 6.002 12.055 1.074 1.558 2.073 12.452-.452 20.236-1.27 3.916 3.02 17.999 3.471 20.841.452 2.842-13.71 32.938-23.554 32.938h-77.71s-68.275 4.851-66.786-3.034c1.488-7.884-8.831-24.253-11.713-37.669-12.526-11.681-32.813-19.642-33.198-45.516-.238-15.961-.538-34.807 6.591-89.066 4.023-30.633 13.073-38.618 17.162-40.329 1.437-.599 34.497-16.671 34.497-16.671h74.757-.005Z" fill="#9ED2EC"/><path d="M400.112 218.402c-.11-1.476-2.354-1.006-2.245.46a503.208 503.208 0 0 1 1.213 51.522c-.038 1.481 2.244 1.644 2.282.158a509.861 509.861 0 0 0-1.25-52.14Z" fill="#446C8F"/><path d="M371.66 145.843c-8.165 22.067 15.037 66.274 25.898 72.97 26.146-23.131 28.248-62.799 27.102-73.881-.666-.115-6.087-4.918-6.13-9.553-21.899-3.719-37.074-1.442-42.633-.163-.87 4.501-4.237 10.632-4.237 10.632v-.005Z" fill="#F1BBA2"/><path d="M373.474 121.136c.984 4.151 3.228 20.85 4.479 23.946 6.087 15.065 14.1 16.436 19.051 16.436 5.35 0 15.574-2.588 19.954-16.134 1.503-4.644 1.569-11.901 2.906-25.418-22.846-4.548-46.395 1.165-46.395 1.165l.005.005Z" fill="#F1BBA2"/><path d="M419.405 126.268c-12.083 21.004-29.674 36.428-43.508 8.944-.128-.762-1.545-9.365-1.545-9.365l45.077-.95-.024 1.371Z" fill="#CD9A82"/><path d="M431.241 75.318c12.978-2.094 11.727 18.837-1.698 28.932 0 0 0-25.006 1.698-28.932ZM359.159 75.318c-12.978-2.095-15.403 16.157 1.698 28.931 0 0 0-25.006-1.698-28.931Z" fill="#F1BBA2"/><path d="M435.671 60.694c0-16.761-6.325-38.2-39.328-38.2s-39.4 21.194-39.4 42.63c-.099 16.454 1.047 27.344 4.661 41.014 4.009 15.156 14.081 22.327 25.252 30.81 1.607 1.223 5.507 3.006 9.487 3.183 3.98-.177 7.88-1.96 9.487-3.183 11.171-8.483 22.527-15.654 25.252-30.81 2.711-15.089 5.845-29.478 4.594-45.444h-.005Z" fill="#F1BBA2"/><path d="M414.301 85.47c0-2.55 1.612-4.616 3.6-4.616 1.987 0 3.6 2.066 3.6 4.616s-1.613 4.616-3.6 4.616c-1.988 0-3.6-2.066-3.6-4.616ZM374.352 85.47c0-2.55 1.612-4.615 3.599-4.615 1.988 0 3.6 2.065 3.6 4.615 0 2.55-1.612 4.616-3.6 4.616-1.987 0-3.599-2.066-3.599-4.616Z" fill="#363537"/><path d="M398.575 110.366a1.988 1.988 0 0 1-.822-3.787c1.973-.916 1.835-3.053.78-7.506a41.282 41.282 0 0 1-.543-2.507 1.982 1.982 0 0 1 1.608-2.286 1.964 1.964 0 0 1 2.268 1.62c.114.67.295 1.438.49 2.253.908 3.825 2.278 9.6-2.958 12.03a1.93 1.93 0 0 1-.823.183Z" fill="#CD9A82"/><path d="M412.188 68.8c-3.871.393-7.799 5.478-4.299 5.306 14.828-.715 19.916 2.454 20.278 1.71.956-1.96-5.845-8.052-15.979-7.016ZM381.086 68.959c3.89-.087 7.932 5.277 4.427 5.195-14.842-.335-17.733 2.435-18.218 1.764-1.455-2.013 4.851-6.763 13.786-6.96h.005Z" fill="#363537"/><path d="M380.406 112.675c12.308 3.068 21.181 2.737 33.199 0 0 0-4.532 12.223-16.241 12.223-11.708 0-16.958-12.223-16.958-12.223Z" fill="#5D1A1C"/><mask id="c" style="mask-type:luminance" maskUnits="userSpaceOnUse" x="380" y="112" width="34" height="13"><path d="M380.406 112.675c12.308 3.068 21.181 2.737 33.199 0 0 0-4.532 12.223-16.241 12.223-11.708 0-16.958-12.223-16.958-12.223Z" fill="#fff"/></mask><g mask="url(#c)"><path d="M397.647 134.777c7.75 0 14.033-3.994 14.033-8.92 0-4.927-6.283-8.92-14.033-8.92-7.751 0-14.034 3.993-14.034 8.92 0 4.926 6.283 8.92 14.034 8.92Z" fill="#ED4053"/><path d="M397.005 118.399c8.846 0 16.016-3.417 16.016-7.631s-7.17-7.631-16.016-7.631c-8.846 0-16.017 3.417-16.017 7.631s7.171 7.631 16.017 7.631Z" fill="#fff"/></g><path d="M434.177 88.551c.789-31.52-19.408-30.676-23.383-54.287-.766 6.557-7.571 11.715-16.112 16.805-5.359 3.197-11.404 6.36-17.063 9.83-11.965 7.34-22.227 16.03-20.691 29.186l-6.263 21.766s-10.272-60.58 6.263-77.011a79.232 79.232 0 0 1 7.19-6.347c9.217-7.108 17.853-10.008 25.457-10.688 10.728-.945 19.398 2.502 24.719 4.687 10.053 4.132 32.713 14.749 19.878 66.06h.005Z" fill="#363537"/><path opacity=".26" d="M389.22 47.824c-3.319-3.485 3.857-8.968 4.223-12.544.147-1.567-.171-2.895-1.056-4.189-1.465-2.123-4.342-2.387-5.816-4.18-2.587-3.149 1.479-3.82 2.668-6.346.618-1.303.537-1.86.333-2.756-.067-.311-.148-.656-.219-1.097-.138-.796-1.056-.911-1.327-1.592-1.968-4.764-1.455-3.393-.846-6.164.181-.877.48-1.706.799-2.54-11.908.959-23.017 10.665-31.51 23.592 2.439-.321 5.749-1.86 7.647-1.51 1.317.254 1.959 1.41 1.169 4.5-.699 2.738-2.529 6.994-.332 9.568.789.925 1.807 1.212 2.967 1.361 1.408.197 4.751-1.361 5.702-.705 1.969 1.362-3.229 8.897-2.896 11.643.471 3.911 3.034 3.451 5.635 4.87.628.345 1.032.728 1.26 1.165 5.655-3.475 11.704-6.639 17.063-9.831-1.441-1.812-4.09-1.788-5.464-3.245Z" fill="#9ED2EC"/><path d="M418.772 132.111c4.489 2.761 14.742 12.515 18.594 19.896 7.884 15.113-15.261 86.679-19.469 85.524l-20.901-19.479c5.797-6.806 25.96-41.418 23.578-75.861-2.915-2.061-2.245-5.805-1.802-10.08Z" fill="#fff"/><path d="M373.469 143.898c-2.297 30.57 16.383 63.988 23.535 74.154-7.98 7.914-22.651 19.494-22.651 19.494-13.814-27.124-17.723-49.743-18.889-66.395-.951-13.574 4.846-26.736 15.532-35.057a2248.25 2248.25 0 0 0 4.47-3.489c1.303 7.52.433 10.042-1.992 11.293h-.005Z" fill="#fff"/><path d="M471.085 197.221c-2.577 8.105-7.261 14.197-12.483 20.884-.903 1.155.709 2.799 1.617 1.634 5.469-7.002 9.573-14.729 12.269-23.213.452-1.419-.956-.714-1.403.7v-.005ZM324.184 177.589c-.438-1.414-.975.397-.538 1.821 3.681 11.93 6.325 24.296 5.735 36.917-.627 13.334-4.123 26.999-6.296 40.161-.243 1.453 1.969 2.076 2.207.614 2.211-13.387 5.744-27.206 6.377-40.775.604-12.86-3.743-26.607-7.485-38.738Z" fill="#446C8F"/><path d="M464.339 297.977c.424-7.511-3.842-13.727-.96-20.467a57.877 57.877 0 0 0 4.484-18.103c1.127-13.709-3.343-25.452-6.895-38.384-4.309-15.673 1.032-28.006 4.527-42.975.338-1.443-.461-2.809-.799-1.361-2.849 12.198-9.021 24.152-7.557 36.988.814 7.152 3.624 13.81 5.636 20.664 2.187 7.463 3.305 15.232 2.934 23.021-.385 8.086-2.601 15.381-5.987 22.657-1.727 3.705 4.546 7.367 3.452 11.259-.96 4.678-1.393 7.535-.746 10.967.39 2.071 1.274 3.82 1.864 5.805 1.046 3.503 3.039 4.112.532 10.54-.751 1.922-.466 3.293.799 5.052 1.826 2.54 3.415 1.855 3.377 6.427-.01 1.05-.314 2.248-.714 3.47l3.034-1.984c.362-1.462.524-2.881.252-4.127-.527-2.411-2.81-3.053-3.97-4.961-1.641-2.684.646-5.143.998-7.587.21-1.477-.152-2.67-.537-4.089-.685-2.516-2.316-4.711-2.996-7.266a21.806 21.806 0 0 1-.732-5.56l.014.014h-.01Z" fill="#446C8F"/><path d="M500.958 323.917c-6.03-.465-12.236-.944-18.166.576-5.126 1.313-9.544 4.232-13.891 7.151-5.911 3.969-11.708 7.214-18.908 8.024-6.548.738-13.187-.091-19.692-.882-1.46-.178-1.446 2.133 0 2.31 11.522 1.4 23.207 2.353 33.688-3.58 4.941-2.8 9.33-6.567 14.485-8.997 7.11-3.351 14.875-2.881 22.489-2.291 1.469.115 1.465-2.196 0-2.311h-.005ZM494.224 289.732c-11.46 10.277-19.992 21.656-25.076 36.241-.489 1.405 1.722 2.009 2.207.614 4.955-14.217 13.263-26.636 24.434-36.648 1.103-.988-.466-1.189-1.565-.207ZM330.272 226.929a144.501 144.501 0 0 0-8.08-21.262c-.632-1.342-.09 1.749.538 3.087 3.167 6.701 3.252 11.671 5.331 18.794.413 1.423 2.625.814 2.206-.614l.005-.005Z" fill="#446C8F"/><path d="M396.52 177.803c-10.824 0-18.513-12.141-23.502-37.094a1.728 1.728 0 0 1 1.346-2.037 1.717 1.717 0 0 1 2.021 1.357c4.608 23.021 11.489 34.577 20.454 34.314 10.885-.307 17.604-11.293 21.147-34.563a1.719 1.719 0 0 1 1.96-1.448 1.732 1.732 0 0 1 1.436 1.975c-2.416 15.87-7.581 37.022-24.444 37.501-.138 0-.275.005-.413.005l-.005-.01Z" fill="#F6BB5A"/><path d="M379.907 123.704c-5.212.465-10.899.619-15.455-2.401-5.369-3.561-5.355-9.227-4.713-15.041.276-2.478-3.576-2.459-3.847 0-.718 6.495-.423 12.663 4.889 17.126 5.359 4.501 12.493 4.788 19.122 4.194 2.444-.221 2.468-4.098 0-3.878h.004Z" fill="#9ED2EC"/><path d="M437.642 71.338h-2.52c-1.815 0-3.286 1.483-3.286 3.312v30.101c0 1.83 1.471 3.312 3.286 3.312h2.52c1.815 0 3.286-1.482 3.286-3.312v-30.1c0-1.83-1.471-3.313-3.286-3.313ZM358.197 71.338h-2.52c-1.815 0-3.286 1.483-3.286 3.312v30.101c0 1.83 1.471 3.312 3.286 3.312h2.52c1.815 0 3.286-1.482 3.286-3.312v-30.1c0-1.83-1.471-3.313-3.286-3.313Z" fill="#2E282F"/><path d="M438.468 63.445h-2.863v7.919h2.863v-7.919ZM358.371 63.443h-2.863v7.919h2.863v-7.919Z" fill="#2E282F"/><path d="M437.032 66.328c-1.579 0-2.863-1.294-2.863-2.885 0-24.301-12.545-36.62-37.288-36.62-17.919 0-37.069 9.62-37.069 36.62 0 1.591-1.28 2.885-2.863 2.885-1.584 0-2.863-1.294-2.863-2.885 0-31.29 23.05-42.39 42.79-42.39 28.139 0 43.014 14.657 43.014 42.39 0 1.591-1.279 2.885-2.863 2.885h.005ZM248.841 205.986c-.452-10.717 16.758-16.479 16.758-16.479l3.362 23.108s-11.061 9.112-20.12-6.629Z" fill="#446C8F"/><path d="M284.145 192.819c-.742-5.219-4.219-20.663-5.193-25.293-1.356-6.432-13.154-14.427-20.882-18.319-5.222-2.632-18.661-14.95-21.015-16.618-2.534-1.802-9.149 1.701-5.863 6.432 3.286 4.731 8.893 9.021 11.794 11.748 2.9 2.727 5.221 8.772 5.221 8.772s-16.435 3.264-19.146 3.096c-2.706-.173-13.729-5.435-15.855-6.212-2.125-.781-12.464-5.459-15.322-4.29-2.858 1.17-3.971 4.678-1.284 7.017 2.682 2.339 14.091 7.794 14.091 7.794s-15.665-.973-17.596 1.169c-1.935 2.143-2.125 6.236 1.936 7.602 3.286 4.094 16.63 5.46 16.63 5.46s10.443 9.548 14.889 8.963c4.447-.585 14.695-2.924 15.855-3.312 1.161-.388 18.756 1.754 19.146 2.924.385 1.169 3.286 22.412 3.286 22.412s19.859-1.845 19.308-19.34v-.005Z" fill="#F1BBA2"/><path d="M271.796 175.453c-4.832-4.127-8.147-8.551-14.923-6.82-3.933 1.001-7.191 3.494-10.567 5.627-4.266 2.694-8.783 4.788-13.691 5.986-3.61.882-6.415 1.683-9.754-.819-1.45-1.088-2.492-2.66-4.004-3.7-1.721-1.184-3.966-2.153-6.092-1.525-3.909 1.155-4.332 5.853-1.655 8.446.909.877 2.036.053 1.127-.825-1.93-3.072-.399-6.005 2.24-6.005 1.869 0 2.592 1.006 4.547 2.626.875.724 1.588 1.639 2.449 2.382 1.046.906 2.149 1.846 3.519 2.215 4.128 1.112 10.02-1.218 13.767-2.68 4.989-1.95 9.054-5.133 13.696-7.692 3.571-1.97 7.495-3.384 11.484-1.808 2.725 1.079 5.041 3.523 7.257 5.417.956.815 1.551 0 .59-.82l.01-.005ZM248.209 159.536l7.542-1.951c.385-.973-8.646-.566-8.646-.566l1.104 2.512v.005Z" fill="#CD9A82"/><path d="M349.968 375.572c-9.43-22.259-66.416-186.673-66.416-186.673.927 5.028-17.705 20.999-34.611 17.107 1.746 4.093 6.563 41.954 15.546 67.914 6.387 18.458 6.458 36.542 9.583 54.929 5.516 32.483 28.789 43.344 61.313 45.679l14.59 1.049-.005-.005Z" fill="#9ED2EC"/><path d="M516.712 358.078c-1.855 0-3.353-1.515-3.353-3.379v-32.464c0-1.87 1.503-3.38 3.353-3.38 17.733 0 20.011 8.839 20.011 16.542 0 13.358-8.227 22.685-20.011 22.685v-.004Zm3.353-32.378v25.226c6.843-1.701 9.948-8.642 9.948-15.529 0-7.272-3.1-9.29-9.948-9.692v-.005Z" fill="#B52F41"/><path d="M520.357 309.39h-42.172c-1.731 0-3.134 1.414-3.134 3.159v54.766c0 1.745 1.403 3.159 3.134 3.159h42.172c1.73 0 3.134-1.414 3.134-3.159v-54.766c0-1.745-1.404-3.159-3.134-3.159Z" fill="#E2606E"/><path d="M475.051 367.309c0 1.74 1.412 3.163 3.138 3.163h42.168c1.726 0 3.138-1.423 3.138-3.163v-24.91l-48.439 24.215v.695h-.005Z" fill="#C8606B"/><path d="M710.695 326.612c-.224-6.466-1.294-13.416-5.284-18.693-6.691-8.863-19.069-8.7-26.412-.81-3.838 4.122-5.859 9.701-5.968 15.314-.162 8.019 2.34 18.875 4.313 26.223.062.235 11.252 1.587 16.858 1.937 4.09.254 10.933 1.064 13.363-2.943 3.187-5.258 3.334-15.06 3.13-21.023v-.005Z" fill="#405B57"/><path d="M726.221 339.658h-67.709l1.303 21.013c.218 3.878 4.379 8.93 9.439 8.93h46.219c5.06 0 9.221-5.052 9.44-8.93l1.303-21.013h.005Z" fill="#749FC5"/><path d="M725.391 353.044 682.168 369.6h33.312c5.06 0 9.221-5.052 9.44-8.93l.471-7.626Z" fill="#446C8F"/><path d="M707.622 313.349c0-.642-.043-1.27-.095-1.898-.599-1.231-1.279-2.425-2.116-3.532-6.691-8.863-19.07-8.7-26.412-.81-3.838 4.122-5.859 9.701-5.969 15.314-.061 3.159.295 6.763.866 10.415a22.134 22.134 0 0 0 11.308 3.111c12.384 0 22.423-10.118 22.423-22.6h-.005Z" fill="#9BA58A"/><path d="M694.946 297.062a26.504 26.504 0 0 0-.375 5.79c.042.973 1.55.978 1.502 0a24.923 24.923 0 0 1 .324-5.387c.161-.954-1.284-1.366-1.451-.403ZM699.836 300.849l-1.627 5.589c-.271.939 1.18 1.337 1.451.402l1.626-5.588c.271-.94-1.179-1.338-1.45-.403ZM712.695 321.425a19.767 19.767 0 0 1-3.409 1.284c-.932.259-.538 1.721.399 1.462a21.665 21.665 0 0 0 3.771-1.438c.871-.426.11-1.735-.761-1.308ZM682.093 308.311c-1.379-1.874-2.763-3.743-4.142-5.617-.57-.777-1.878-.02-1.298.766 1.379 1.875 2.763 3.744 4.142 5.618.571.777 1.878.019 1.298-.767ZM679.258 310.516l-2.72-3.446c-.604-.762-1.66.316-1.065 1.073l2.72 3.447c.604.762 1.659-.317 1.065-1.074ZM675.559 321.114a23.719 23.719 0 0 0-6.153-.628c-.966.029-.971 1.548 0 1.515a22.112 22.112 0 0 1 5.754.57c.941.221 1.345-1.241.399-1.462v.005ZM674.935 330.643c-1.179.373-2.354.747-3.533 1.126-.918.292-.528 1.759.399 1.462a962.8 962.8 0 0 0 3.534-1.127c.918-.292.528-1.759-.4-1.461ZM685.659 319.186a12.51 12.51 0 0 1-2.434-1.869c-.695-.68-1.76.388-1.066 1.074a14.155 14.155 0 0 0 2.74 2.109c.837.493 1.593-.815.76-1.309v-.005ZM687.694 316.474c-.594-.935-1.193-1.864-1.788-2.799-.523-.82-1.826-.058-1.298.767.594.934 1.194 1.864 1.788 2.799.523.82 1.826.057 1.298-.767ZM697.704 313.847a17.112 17.112 0 0 0-1.626 3.201c-.352.911 1.103 1.304 1.45.403a15.44 15.44 0 0 1 1.475-2.838c.532-.819-.766-1.577-1.299-.766ZM694.34 324.049c-.314-.916-1.77-.523-1.451.402.447 1.304.637 2.617.571 3.998-.048.977 1.46.973 1.502 0a11.711 11.711 0 0 0-.627-4.4h.005ZM688.01 332.099a7.274 7.274 0 0 0-3.723-2.161c-.942-.216-1.346 1.246-.4 1.462a5.852 5.852 0 0 1 3.058 1.773c.661.714 1.726-.359 1.065-1.074ZM674.567 328.725a35.803 35.803 0 0 0-5.16-.455c-.97-.015-.97 1.505 0 1.514 1.598.024 3.182.149 4.756.398.946.153 1.355-1.308.399-1.462l.005.005ZM712.265 332.897a26.009 26.009 0 0 1-4.371-.758c-.937-.244-1.336 1.218-.399 1.462 1.569.412 3.158.676 4.77.81.965.082.96-1.438 0-1.514ZM707.505 328.357l-3.557 1.634c-.88.403-.114 1.711.761 1.309l3.557-1.635c.88-.402.114-1.711-.761-1.308Z" fill="#A76D52"/><path d="M495.878 235.235H285.594c-4.157 0-6.088 4.281-8.18 7.468l11.237 101.639c-.851 7.87 2.549 10.722 6.254 10.722h191.391c3.709 0 7.104-2.852 7.594-6.399L503.958 243.7c-1.736-4.855-3.928-8.46-8.08-8.46v-.005Z" fill="#fff"/><path d="M497.835 238.522h-214.46c-4.156 0-7.019 3.83-6.4 8.508l10.338 107.227c.485 3.547 3.885 6.399 7.595 6.399h191.391c3.709 0 7.104-2.852 7.594-6.399l10.339-107.227c.618-4.678-2.245-8.508-6.401-8.508h.004Z" fill="#2E282F"/><path d="M488.765 360.658H292.438c-2.345 0-4.247 1.917-4.247 4.28v.384c0 2.364 1.902 4.28 4.247 4.28h196.327c2.346 0 4.247-1.916 4.247-4.28v-.384c0-2.363-1.901-4.28-4.247-4.28Z" fill="#363537"/><path d="M381.833 305.402c-.053-4.227 3.985-7.693 9.026-7.693 5.04 0 9.083 3.466 9.025 7.693-.052 4.175-4.094 7.526-9.025 7.526-4.932 0-8.974-3.351-9.026-7.526Z" fill="#FCF7ED"/><path opacity=".49" d="M402.935 127.7c-3.933.561-7.295.484-11.147-.422-1.436-.336-2.045 1.889-.609 2.224 4.285 1.007 8.008 1.04 12.365.417 1.455-.206.836-2.43-.609-2.224v.005Z" fill="#CD9A82"/><path d="M419.502 27.203c-1.954-.982-4.974-1.687-7.162-1.274-.347.067-2.777 1.155-2.33 1.174-.385-.02-1.16-.916-1.526-1.069-4.708-1.975-7.495-3.188-12.912-2.852-11.189.695-18.465 5.1-26.944 12.016-3.696 3.015-6.677 7.075-9.145 11.27-3.253 5.535-3.034 15.217-1.056 22.345.794 2.861 4.817-1.783 5.041-4.736.356-4.692-1.522-9.308-.352-14.025 1.122-4.51 4.617-8.129 8.075-10.976 6.829-5.617 12.707-10.085 21.818-11.091 3.876-.427 7.98-.796 11.537 1.093 2.145 1.136 2.901 2.152 5.383 2.109 3.072-.058 4.979-.997 7.818.661 2.345 1.37 4.561 3.384 6.078 5.632 2.653 3.935 4.099 10.976 2.468 15.678-.975 2.81 6.391 9.889 7.362 7.099 3.366-9.692-1.261-26.583-14.153-33.058v.004Z" fill="#363537"/><path d="M55.004 375.5c0 5.455 2.294 9.867 5.125 9.867h694.912c1.42 0 2.698-1.1 3.629-2.892.926-1.782 1.502-4.253 1.502-6.975 0-5.455-2.3-9.882-5.134-9.882H60.127c-1.42 0-2.698 1.099-3.624 2.892-.766 1.474-1.291 3.415-1.451 5.578-.032.457-.05.929-.05 1.412h.002Z" fill="#DCBFA3"/><path d="M62.583 385.366h689.995c0 5.035-2.141 9.114-4.785 9.114H67.368c-2.643 0-4.785-4.079-4.785-9.114Z" fill="#BDA084"/></g><defs><linearGradient id="b" x1="86.969" y1="246.226" x2="376.791" y2="246.226" gradientUnits="userSpaceOnUse"><stop stop-color="#FCF7ED" stop-opacity="0"/><stop offset="1" stop-color="#FCF7ED"/></linearGradient><clipPath id="a"><path d="M0 33C0 14.775 14.775 0 33 0h741v393H33c-18.225 0-33-14.775-33-33V33Z" fill="#fff"/></clipPath></defs></svg>