<svg width="847" height="316" viewBox="0 0 847 316" fill="none" xmlns="http://www.w3.org/2000/svg">
<g clip-path="url(#clip0_2002_44)">
<path d="M-68.6285 308.97H23.0039C23.1824 308.733 23.3648 308.496 23.5433 308.259C23.6649 308.102 23.7865 307.945 23.908 307.788C23.9612 308.182 24.022 308.576 24.098 308.97H78.0038C102.567 288.763 126.648 269.057 151.569 249.267C135.446 268.43 120.145 288.335 105.937 308.97H175.122C182.374 303.074 189.481 297.415 196.107 292.239C195.275 292.824 201.041 288.602 196.194 292.177C198.545 290.568 225.316 268.962 269.527 239.043C247.213 260.466 224.932 283.284 201.725 308.974H273.866C301.958 285.949 329.91 263.964 366.82 236.994C372.457 232.872 378.114 228.778 383.789 224.702C376.021 232.995 368.351 241.387 360.806 249.894C343.791 269.08 327.376 288.794 311.543 308.974H385.689C397.8 299.316 407.813 291.39 419.635 282.175C450.307 258.317 482.225 234.528 513.547 212.612C497.387 228.189 481.545 244.106 466.084 260.397C451.025 276.264 436.32 292.468 421.957 308.974H504.669C515.412 301.021 526.197 293.118 537.051 285.318C535.964 286.553 534.878 287.788 533.795 289.027C528.082 295.595 522.474 302.248 516.951 308.97H608.089C613.214 305.185 618.35 301.415 623.513 297.687C624.17 297.213 624.827 296.743 625.484 296.272C624.493 297.35 623.486 298.417 622.495 299.503C619.638 302.634 616.812 305.796 614.004 308.97H829.54C830.235 307.138 830.911 305.299 831.557 303.441C834.551 294.808 830.133 284.511 823.363 279.25C820.431 276.968 817.365 275.611 814.223 275.003C819.553 270.64 824.921 266.323 830.342 262.076C837.936 256.123 838.901 241.961 833.917 234.184C828.708 226.055 817.813 220.079 808.092 223.608C782.727 232.815 757.768 243.18 733.338 254.662C742.729 246.14 752.199 237.717 761.723 229.366C776.557 216.355 791.521 203.49 806.489 190.631C813.843 184.311 815.219 170.788 810.063 162.74C807.932 159.413 805.167 156.63 801.858 154.481C797.561 151.694 789.117 150.122 784.239 152.16C756.845 163.611 730.379 176.726 704.641 191.113C705.496 190.459 706.351 189.802 707.209 189.152C711.631 185.81 716.083 182.507 720.562 179.245C730.162 172.252 739.895 165.447 749.745 158.813C759.668 152.126 764.922 138.212 757.951 127.323C751.003 116.476 740.252 113.062 726.663 119.065C720.452 121.81 714.283 124.628 708.151 127.522C700.01 131.365 693.389 120.028 700.671 114.721C706.476 110.493 712.539 106.138 718.906 101.634C741.593 85.5793 726.686 54.0744 701.287 59.5686C651.81 70.2665 597.038 103.178 551.665 132.022C600.549 93.0732 606.437 94.6522 609.795 82.3753C611.303 76.8657 610.623 69.5286 607.489 64.6423C604.34 59.7292 599.656 55.4011 593.825 54.0667C587.45 52.6062 582.139 53.7532 576.206 56.3875C557.048 64.8832 538.255 74.1358 519.773 83.9811C517.046 71.6888 502.8 61.8932 491.533 66.6725C489.713 67.4448 487.897 68.2286 486.078 69.0086L486.07 68.9933C483.635 70.603 444.013 86.0075 385.693 116.339C375.451 121.665 366.22 107.721 375.06 100.273C377.78 97.9824 380.5 95.6884 383.223 93.3943C391.942 86.0496 391.425 71.5282 385.013 63.1741C377.859 53.8564 365.775 51.9256 355.514 57.2478C324.759 73.1991 294.98 90.8021 265.952 109.594C256.626 115.631 246.536 103.11 254.332 95.1761C254.563 94.939 254.799 94.702 255.031 94.4649C263.073 86.2828 263.738 73.2564 256.82 64.2446C250.168 55.5808 236.941 52.0327 227.322 58.3184C201 75.5084 175.483 93.9717 150.904 113.628C147.42 116.411 142.907 111.789 145.741 108.336C154.087 98.1621 163.102 87.556 172.44 77.0034C192.327 54.5332 164.348 24.6341 140.1 44.4547C124.152 57.4925 108.718 71.1612 93.8299 85.4034C89.218 89.8156 81.6241 86.4434 81.6849 80.0392C81.6849 79.9283 81.6849 79.8174 81.6849 79.7027C81.6849 57.481 53.0073 49.9795 42.6478 63.4264C-11.5506 133.785 -49.9039 205.225 -77.9812 283.663C-81.2027 292.663 -76.4313 303.544 -68.6285 308.966V308.97Z" fill="url(#paint0_linear_2002_44)"/>
<path d="M711.398 167.399C686.78 170.993 692.751 181.447 675.734 190.573C692.77 194.384 714.473 191.484 714.473 191.484C714.473 191.484 719.361 189.661 714.473 202.981C709.585 216.301 714.473 234.728 711.576 239.654C720.809 234 734.385 208.088 734.385 208.088C734.385 208.088 736.411 209.727 740.904 215.386C745.393 221.044 752.85 223.047 754.842 226.698C757.327 215.933 754.842 198.782 754.842 198.782C754.842 198.782 746.107 201.062 763.169 203.525C780.228 205.988 797.544 196.683 806.777 199.966C794.466 181.903 766.609 169.407 777.499 171.778C778.057 171.901 724.606 182.727 711.394 167.399H711.398Z" fill="#266E70"/>
<path d="M720.451 161.563C715.019 153.718 724.708 143.684 733.123 146.604C744.316 150.488 728.995 169.957 745.905 161.563C754.123 151.162 770.417 150.434 765.708 159.74C761.002 169.045 728.778 184.373 720.451 161.563Z" fill="#266E70"/>
<path d="M744.174 259.487C740.916 265.383 727.15 261.479 727.15 261.479C723.828 248.121 724.413 221.17 725.888 205.736C726.428 200.166 727.078 196.105 727.701 194.714C730.054 189.473 737.83 181.812 741.813 192.76C742.06 193.442 742.3 194.274 742.528 195.231C742.593 195.488 742.657 195.756 742.71 196.043C742.893 196.856 743.06 197.748 743.224 198.717C743.262 198.913 743.296 199.112 743.322 199.307C743.497 200.342 743.653 201.457 743.809 202.629C743.847 202.916 743.893 203.2 743.919 203.487C743.938 203.606 743.957 203.728 743.965 203.847C744.029 204.307 744.083 204.789 744.14 205.268C744.166 205.544 744.204 205.82 744.231 206.107C744.276 206.559 744.33 207.011 744.379 207.483C744.406 207.732 744.432 207.981 744.451 208.237C744.535 209.003 744.599 209.777 744.672 210.57C744.698 210.838 744.717 211.095 744.744 211.363C744.808 212.168 744.873 212.976 744.938 213.8C745.002 214.62 745.067 215.451 745.12 216.29C745.158 216.842 745.192 217.405 745.23 217.979C745.268 218.608 745.303 219.232 745.341 219.872C745.367 220.286 745.394 220.703 745.413 221.117C745.595 224.538 745.732 228.016 745.816 231.411C746.146 244.704 745.679 256.767 744.178 259.487H744.174Z" fill="#A76D52"/>
<path d="M745.807 231.407C743.078 216.539 734.302 208.337 725.883 205.736C726.423 200.166 727.072 196.105 727.696 194.714C730.049 189.473 737.825 181.812 741.808 192.76C742.055 193.442 742.295 194.274 742.523 195.231C742.588 195.488 742.652 195.756 742.705 196.043C742.888 196.856 743.055 197.748 743.218 198.717C743.256 198.913 743.291 199.112 743.317 199.307C743.492 200.342 743.648 201.457 743.804 202.629C743.842 202.916 743.887 203.2 743.914 203.487C743.933 203.606 743.952 203.728 743.96 203.847C744.024 204.307 744.078 204.789 744.135 205.268C744.161 205.544 744.199 205.82 744.226 206.107C744.279 206.559 744.325 207.011 744.374 207.483C744.401 207.732 744.427 207.981 744.446 208.237C744.53 209.003 744.602 209.777 744.667 210.57C744.693 210.838 744.712 211.095 744.739 211.363C744.811 212.168 744.876 212.976 744.933 213.8C744.997 214.62 745.062 215.451 745.115 216.29C745.153 216.842 745.187 217.405 745.225 217.979C745.263 218.608 745.298 219.232 745.336 219.872C745.362 220.286 745.389 220.703 745.408 221.117C745.59 224.538 745.727 228.016 745.811 231.411L745.807 231.407Z" fill="#754D3B"/>
<path d="M704.043 254.099H762.211V281.398C762.211 291.684 753.925 300.031 743.724 300.031H722.53C712.325 300.031 704.043 291.68 704.043 281.398V254.099Z" fill="#405B57"/>
<path d="M762.21 279.713L723.297 300.036H743.723C753.932 300.036 762.21 291.692 762.21 281.402V279.713Z" fill="#2B3836"/>
<path d="M728.42 165.393C728.781 144.047 737.869 134.374 745.908 129.631C753.947 124.888 768.348 113.028 777.105 111.457C764.456 124.593 761.187 153.9 749.42 165.393C761.647 155.662 768.892 150.387 778.842 151.981C794.84 154.54 810.245 163.021 827.079 168.86C818.751 173.97 786.144 180.536 782.172 180.356C778.2 180.172 758.109 177.621 758.109 177.621C770.963 190.029 773.723 219.769 780.488 224.147C766.798 222.872 740.005 209.004 734.574 194.408C727.333 208.456 685.334 219.041 678.275 230.534C679.906 218.493 692.213 191.669 701.267 182.547C710.317 173.426 720.636 172.694 720.636 172.694C720.636 172.694 669.043 173.97 655.105 157.915C677.01 159.558 692.578 146.054 704.889 147.334C717.2 148.609 727.337 160.47 728.424 165.396L728.42 165.393Z" fill="#3A8585"/>
<path d="M786.433 163.462C770.405 163.159 754.722 165.101 739.724 170.809C738.633 171.227 739.105 173.008 740.211 172.587C755.061 166.936 770.648 164.209 786.52 164.511C787.698 164.534 787.607 163.485 786.429 163.462H786.433Z" fill="#8CC2BD"/>
<path d="M749.097 139.151C741.294 148.062 737.592 159.589 738.869 171.423C738.994 172.591 740.826 172.602 740.701 171.423C739.481 160.087 741.925 148.414 749.42 139.852C750.195 138.963 749.88 138.258 749.097 139.151Z" fill="#8CC2BD"/>
<path d="M753.737 193.978C752.262 187.707 748.724 182.417 743.573 178.609C742.623 177.904 741.707 179.505 742.65 180.202C747.405 183.719 751.411 188.175 752.771 193.948C753.041 195.101 754.011 195.135 753.737 193.978Z" fill="#8CC2BD"/>
<path d="M715.558 161.766C710.723 159.375 705.577 159.655 700.278 159.099C699.107 158.977 699.016 159.862 700.175 159.984C705.151 160.505 710.092 161.11 714.634 163.359C715.687 163.88 716.618 162.29 715.558 161.766Z" fill="#8CC2BD"/>
<path d="M584.366 130.903C556.582 159.37 511.207 136.159 510.272 130.351C507.399 112.491 512.644 104.626 509.166 95.8728C505.681 87.1192 501.561 78.3387 502.515 64.2524C503.282 52.7788 508.144 38.8955 515.365 27.92C522.158 17.588 531.033 9.83036 540.55 9.06417C546.323 8.59297 552.336 10.7076 558.266 16.3774C565.506 12.3817 582.85 25.9892 584.366 42.9716C589.353 98.4472 612.162 102.439 584.366 130.907V130.903Z" fill="#363537"/>
<path d="M589.428 74.6408C588.797 73.6448 587.212 74.568 587.846 75.5717C592.799 83.3945 597.911 91.585 599.888 100.772C602.001 110.598 599.31 122.55 588.47 125.469C587.333 125.776 587.816 127.557 588.956 127.247C597.896 124.841 602.552 116.095 602.487 107.173C602.4 95.2588 595.566 84.3292 589.428 74.637V74.6408Z" fill="#363537"/>
<path d="M601.104 116.277C600.56 107.335 597.497 98.8536 592.499 91.4791C591.837 90.506 590.252 91.4254 590.918 92.41C594.908 98.2981 597.687 104.876 598.801 111.944C600.002 119.544 600.207 129.911 592.324 133.903C591.271 134.435 592.198 136.029 593.248 135.496C600.389 131.88 601.545 123.594 601.1 116.277H601.104Z" fill="#363537"/>
<path d="M520.829 111.086C513.539 111.599 509.597 102.236 506.906 96.6625C503.945 90.5406 501.699 83.9361 500.924 77.1439C500.224 71.0068 500.821 64.8352 502.892 59.0083C505.101 52.7946 508.236 45.3128 513.212 40.8459C514.094 40.0529 512.794 38.7542 511.916 39.5434C506.629 44.2899 503.451 51.9096 501.125 58.5218C498.639 65.5898 498.267 73.0716 499.563 80.4308C500.927 88.1961 504.006 95.6166 507.864 102.447C510.749 107.554 514.215 113.404 520.829 112.936C521.996 112.856 522.007 111.009 520.829 111.09V111.086Z" fill="#363537"/>
<path d="M513.834 140.365C505.232 132.968 504.825 120.471 505.662 109.932C506.521 99.0869 508.786 88.4025 507.927 77.4767C507.836 76.3006 506.004 76.2891 506.095 77.4767C507.087 90.0766 503.86 102.362 503.56 114.909C503.332 124.513 504.901 135.101 512.537 141.668C513.431 142.434 514.731 141.135 513.83 140.365H513.834Z" fill="#363537"/>
<path d="M578.602 122.559C578.602 122.559 599.898 133.086 603.881 135.642C607.864 138.197 613.174 146.391 616.192 164.879C626.375 227.277 636.477 223.385 635.299 239.421C637.31 244.179 638.963 247.416 640.096 249.056C640.955 250.301 641.753 259.009 639.735 265.23C638.72 268.36 642.148 279.615 642.509 281.887C642.87 284.159 631.551 308.213 623.684 308.213H561.574C561.574 308.213 507.005 312.09 508.195 305.788C509.384 299.486 501.136 286.404 498.833 275.681C488.822 266.345 472.607 259.982 472.299 239.303C472.109 226.546 471.87 211.482 477.567 168.116C480.783 143.633 488.016 137.251 491.284 135.883C492.432 135.404 518.856 122.559 518.856 122.559H578.605H578.602Z" fill="#9ED2EC"/>
<path d="M550.235 178.491C550.147 177.311 548.353 177.687 548.441 178.859C549.471 192.566 549.786 206.296 549.41 220.038C549.379 221.221 551.204 221.352 551.234 220.164C551.614 206.258 551.276 192.363 550.235 178.491Z" fill="#446C8F"/>
<path d="M527.489 120.497C520.963 138.134 539.507 173.467 548.189 178.819C569.086 160.331 570.766 128.626 569.85 119.769C569.318 119.677 564.985 115.838 564.95 112.134C547.447 109.161 535.319 110.981 530.876 112.004C530.18 115.601 527.489 120.501 527.489 120.501V120.497Z" fill="#F1BBA2"/>
<path d="M528.941 100.749C529.728 104.066 531.522 117.413 532.522 119.888C537.387 131.929 543.791 133.024 547.748 133.024C552.024 133.024 560.196 130.956 563.696 120.129C564.897 116.417 564.951 110.617 566.019 99.814C547.759 96.1785 528.938 100.745 528.938 100.745L528.941 100.749Z" fill="#F1BBA2"/>
<path d="M565.646 104.852C555.988 121.639 541.929 133.967 530.872 112C530.769 111.391 529.637 104.514 529.637 104.514L565.665 103.756L565.646 104.852Z" fill="#CD9A82"/>
<path d="M575.107 64.1289C585.479 62.4547 584.48 79.1844 573.75 87.2523C573.75 87.2523 573.75 67.2664 575.107 64.1289Z" fill="#F1BBA2"/>
<path d="M517.494 64.1283C507.122 62.4542 505.183 77.0423 518.851 87.2517C518.851 87.2517 518.851 67.2658 517.494 64.1283Z" fill="#F1BBA2"/>
<path d="M578.647 52.4399C578.647 39.0432 573.592 21.9075 547.214 21.9075C520.836 21.9075 515.723 38.8478 515.723 55.9797C515.644 69.1312 516.56 77.8351 519.448 88.7609C522.652 100.874 530.703 106.605 539.631 113.386C540.916 114.363 544.032 115.788 547.214 115.93C550.395 115.788 553.512 114.363 554.796 113.386C563.725 106.605 572.801 100.874 574.979 88.7609C577.145 76.7011 579.65 65.2007 578.65 52.4399H578.647Z" fill="#F1BBA2"/>
<path d="M561.574 72.2417C561.574 70.2036 562.863 68.5525 564.451 68.5525C566.04 68.5525 567.329 70.2036 567.329 72.2417C567.329 74.2797 566.04 75.9308 564.451 75.9308C562.863 75.9308 561.574 74.2797 561.574 72.2417Z" fill="#363537"/>
<path d="M529.637 72.2417C529.637 70.2036 530.925 68.5525 532.514 68.5525C534.103 68.5525 535.391 70.2036 535.391 72.2417C535.391 74.2797 534.103 75.9308 532.514 75.9308C530.925 75.9308 529.637 74.2797 529.637 72.2417Z" fill="#363537"/>
<path d="M549 92.1395C548.407 92.1395 547.837 91.7985 547.571 91.2162C547.206 90.4194 547.552 89.4808 548.343 89.1131C549.92 88.3813 549.81 86.6728 548.966 83.1138C548.799 82.4128 548.643 81.7462 548.533 81.1103C548.388 80.2483 548.962 79.4285 549.817 79.2829C550.673 79.1335 551.486 79.7158 551.63 80.5778C551.722 81.1141 551.866 81.727 552.022 82.3783C552.748 85.4354 553.843 90.0516 549.658 91.9939C549.445 92.0935 549.221 92.1395 549 92.1395Z" fill="#CD9A82"/>
<path d="M559.881 58.9179C556.787 59.232 553.647 63.2966 556.445 63.1587C568.296 62.5879 572.363 65.1202 572.652 64.5264C573.416 62.9595 567.98 58.0904 559.881 58.9179Z" fill="#363537"/>
<path d="M535.022 59.045C538.131 58.9761 541.361 63.2629 538.56 63.1977C526.698 62.9296 524.387 65.1438 523.999 64.6075C522.836 62.9985 527.876 59.2021 535.018 59.045H535.022Z" fill="#363537"/>
<path d="M534.48 93.9858C544.317 96.4376 551.41 96.1733 561.014 93.9858C561.014 93.9858 557.392 103.755 548.034 103.755C538.677 103.755 534.48 93.9858 534.48 93.9858Z" fill="#5D1A1C"/>
<mask id="mask0_2002_44" style="mask-type:luminance" maskUnits="userSpaceOnUse" x="534" y="93" width="28" height="11">
<path d="M534.48 93.9858C544.317 96.4376 551.41 96.1733 561.014 93.9858C561.014 93.9858 557.392 103.755 548.034 103.755C538.677 103.755 534.48 93.9858 534.48 93.9858Z" fill="white"/>
</mask>
<g mask="url(#mask0_2002_44)">
<path d="M548.255 111.653C554.45 111.653 559.472 108.461 559.472 104.523C559.472 100.586 554.45 97.394 548.255 97.394C542.061 97.394 537.039 100.586 537.039 104.523C537.039 108.461 542.061 111.653 548.255 111.653Z" fill="#ED4053"/>
<path d="M547.747 98.5609C554.817 98.5609 560.548 95.8304 560.548 92.4621C560.548 89.0938 554.817 86.3633 547.747 86.3633C540.677 86.3633 534.945 89.0938 534.945 92.4621C534.945 95.8304 540.677 98.5609 547.747 98.5609Z" fill="white"/>
</g>
<path d="M577.459 74.7054C578.089 49.5132 561.947 50.1875 558.77 31.3164C558.158 36.5571 552.719 40.6791 545.892 44.7476C541.609 47.3028 536.778 49.8312 532.255 52.6048C522.692 58.4699 514.49 65.4154 515.717 75.9313L510.712 93.3275C510.712 93.3275 502.502 44.9085 515.717 31.7761C517.656 29.8491 519.579 28.1712 521.464 26.7039C528.83 21.0227 535.733 18.705 541.81 18.161C550.385 17.4063 557.314 20.1607 561.567 21.9076C569.602 25.2099 587.713 33.6954 577.455 74.7054H577.459Z" fill="#363537"/>
<path opacity="0.26" d="M541.528 42.1549C538.875 39.3698 544.611 34.9872 544.903 32.1294C545.021 30.8767 544.766 29.8155 544.059 28.7812C542.889 27.0841 540.589 26.8734 539.411 25.4406C537.343 22.9237 540.593 22.3873 541.543 20.3684C542.037 19.3264 541.973 18.8821 541.809 18.1657C541.756 17.9167 541.691 17.6408 541.634 17.2884C541.524 16.6525 540.791 16.5605 540.574 16.0165C539.001 12.2086 539.411 13.3042 539.897 11.09C540.042 10.3889 540.281 9.72615 540.536 9.05957C531.019 9.82575 522.14 17.5834 515.352 27.9154C517.301 27.6587 519.947 26.429 521.463 26.7086C522.516 26.9117 523.029 27.8349 522.398 30.3059C521.84 32.4933 520.376 35.8952 522.132 37.9524C522.763 38.6917 523.577 38.9216 524.504 39.0404C525.629 39.1974 528.301 37.9524 529.061 38.4772C530.635 39.5652 526.48 45.5874 526.747 47.7825C527.123 50.9086 529.171 50.5408 531.251 51.6747C531.752 51.9506 532.075 52.257 532.258 52.6056C536.777 49.8282 541.612 47.2998 545.895 44.7484C544.744 43.3003 542.627 43.3195 541.528 42.1549Z" fill="#9ED2EC"/>
<path d="M565.146 109.523C568.734 111.73 576.929 119.525 580.008 125.425C586.31 137.504 567.811 194.703 564.447 193.78L547.742 178.211C552.375 172.771 568.491 145.108 566.587 117.579C564.257 115.932 564.793 112.94 565.146 109.523Z" fill="white"/>
<path d="M528.932 118.942C527.096 143.376 542.026 170.085 547.742 178.21C541.364 184.535 529.639 193.791 529.639 193.791C518.597 172.111 515.473 154.033 514.542 140.725C513.782 129.876 518.415 119.356 526.955 112.705C529.046 111.077 530.528 109.917 530.528 109.917C531.57 115.927 530.874 117.942 528.936 118.942H528.932Z" fill="white"/>
<path d="M606.956 161.561C604.896 168.039 601.152 172.908 596.978 178.253C596.256 179.176 597.545 180.49 598.271 179.559C602.642 173.962 605.922 167.787 608.077 161.006C608.438 159.872 607.313 160.435 606.956 161.565V161.561Z" fill="#446C8F"/>
<path d="M489.549 145.871C489.199 144.741 488.77 146.189 489.12 147.326C492.061 156.862 494.175 166.745 493.703 176.832C493.202 187.49 490.408 198.412 488.671 208.931C488.477 210.092 490.245 210.59 490.435 209.422C492.202 198.722 495.026 187.678 495.532 176.832C496.014 166.554 492.54 155.567 489.549 145.871Z" fill="#446C8F"/>
<path d="M601.564 242.091C601.903 236.088 598.493 231.119 600.797 225.733C602.769 221.117 603.97 216.274 604.381 211.263C605.282 200.307 601.709 190.921 598.87 180.585C595.426 168.058 599.694 158.201 602.488 146.237C602.758 145.084 602.119 143.992 601.849 145.149C599.573 154.899 594.639 164.453 595.81 174.713C596.46 180.428 598.706 185.75 600.314 191.228C602.062 197.192 602.955 203.402 602.659 209.628C602.351 216.09 600.58 221.921 597.874 227.736C596.494 230.698 601.507 233.625 600.633 236.735C599.865 240.474 599.519 242.757 600.036 245.5C600.348 247.155 601.055 248.554 601.526 250.14C602.363 252.94 603.955 253.427 601.952 258.564C601.352 260.1 601.58 261.196 602.591 262.602C604.05 264.632 605.32 264.084 605.289 267.739C605.282 268.578 605.038 269.536 604.719 270.512L607.144 268.926C607.433 267.758 607.562 266.624 607.345 265.628C606.924 263.701 605.099 263.188 604.172 261.663C602.86 259.518 604.689 257.552 604.97 255.599C605.137 254.419 604.848 253.465 604.54 252.331C603.993 250.32 602.689 248.565 602.146 246.523C601.747 245.029 601.568 243.554 601.561 242.079L601.572 242.091H601.564Z" fill="#446C8F"/>
<path d="M630.832 262.823C626.013 262.452 621.053 262.069 616.313 263.283C612.216 264.333 608.685 266.666 605.211 268.999C600.486 272.171 595.853 274.764 590.098 275.412C584.865 276.002 579.559 275.339 574.359 274.707C573.192 274.565 573.204 276.412 574.359 276.553C583.569 277.672 592.907 278.434 601.284 273.692C605.234 271.454 608.742 268.443 612.862 266.501C618.544 263.823 624.751 264.199 630.836 264.67C632.011 264.762 632.007 262.915 630.836 262.823H630.832Z" fill="#446C8F"/>
<path d="M625.458 235.502C616.297 243.715 609.479 252.81 605.416 264.467C605.024 265.59 606.792 266.072 607.179 264.958C611.14 253.595 617.78 243.669 626.708 235.666C627.59 234.877 626.336 234.716 625.458 235.502Z" fill="#446C8F"/>
<path d="M494.41 185.305C492.703 179.462 490.548 173.804 487.952 168.311C487.447 167.238 487.88 169.709 488.382 170.778C490.913 176.133 490.981 180.106 492.642 185.799C492.973 186.936 494.74 186.45 494.406 185.308L494.41 185.305Z" fill="#446C8F"/>
<path d="M547.362 146.042C538.711 146.042 532.565 136.338 528.578 116.395C528.429 115.644 528.908 114.916 529.653 114.766C530.395 114.617 531.12 115.1 531.269 115.851C534.952 134.251 540.452 143.487 547.616 143.276C556.316 143.031 561.687 134.251 564.519 115.651C564.633 114.897 565.332 114.38 566.085 114.494C566.833 114.609 567.346 115.318 567.232 116.073C565.302 128.757 561.174 145.663 547.696 146.046C547.586 146.046 547.476 146.05 547.365 146.05L547.362 146.042Z" fill="#F6BB5A"/>
<path d="M534.08 102.802C529.914 103.173 525.368 103.296 521.727 100.882C517.436 98.0361 517.447 93.508 517.96 88.861C518.181 86.8805 515.102 86.8958 514.885 88.861C514.311 94.0519 514.547 98.9823 518.793 102.549C523.076 106.146 528.777 106.376 534.076 105.901C536.03 105.725 536.049 102.626 534.076 102.802H534.08Z" fill="#9ED2EC"/>
<path d="M580.227 60.9497H578.212C576.762 60.9497 575.586 62.1349 575.586 63.5969V87.6551C575.586 89.117 576.762 90.3022 578.212 90.3022H580.227C581.677 90.3022 582.853 89.117 582.853 87.6551V63.5969C582.853 62.1349 581.677 60.9497 580.227 60.9497Z" fill="#2E282F"/>
<path d="M516.731 60.9497H514.716C513.266 60.9497 512.09 62.1349 512.09 63.5969V87.6551C512.09 89.117 513.266 90.3022 514.716 90.3022H516.731C518.181 90.3022 519.357 89.117 519.357 87.6551V63.5969C519.357 62.1349 518.181 60.9497 516.731 60.9497Z" fill="#2E282F"/>
<path d="M580.89 54.6401H578.602V60.9688H580.89V54.6401Z" fill="#2E282F"/>
<path d="M516.866 54.6401H514.578V60.9688H516.866V54.6401Z" fill="#2E282F"/>
<path d="M579.744 56.9462C578.482 56.9462 577.456 55.9118 577.456 54.6399C577.456 35.2172 567.429 25.3717 547.653 25.3717C533.332 25.3717 518.025 33.0604 518.025 54.6399C518.025 55.9118 517.003 56.9462 515.737 56.9462C514.472 56.9462 513.449 55.9118 513.449 54.6399C513.449 29.6317 531.872 20.7593 547.649 20.7593C570.139 20.7593 582.028 32.4742 582.028 54.6399C582.028 55.9118 581.006 56.9462 579.74 56.9462H579.744Z" fill="#446C8F"/>
<path d="M429.327 168.568C428.966 160.002 442.722 155.397 442.722 155.397L445.409 173.866C445.409 173.866 436.568 181.148 429.327 168.568Z" fill="#446C8F"/>
<path d="M457.541 158.044C456.948 153.872 454.17 141.528 453.39 137.828C452.307 132.687 442.877 126.297 436.701 123.186C432.528 121.083 421.786 111.237 419.905 109.904C417.879 108.464 412.592 111.264 415.218 115.045C417.845 118.826 422.326 122.255 424.645 124.435C426.963 126.615 428.818 131.446 428.818 131.446C428.818 131.446 415.682 134.054 413.516 133.92C411.353 133.782 402.543 129.576 400.844 128.955C399.145 128.331 390.882 124.592 388.597 125.527C386.313 126.461 385.424 129.266 387.571 131.135C389.715 133.005 398.833 137.364 398.833 137.364C398.833 137.364 386.313 136.587 384.77 138.299C383.223 140.011 383.071 143.283 386.317 144.375C388.943 147.646 399.608 148.738 399.608 148.738C399.608 148.738 407.955 156.369 411.509 155.902C415.063 155.435 423.253 153.565 424.181 153.255C425.108 152.945 439.171 154.657 439.483 155.592C439.791 156.527 442.11 173.505 442.11 173.505C442.11 173.505 457.982 172.03 457.541 158.047V158.044Z" fill="#F1BBA2"/>
<path d="M447.677 144.163C443.816 140.865 441.166 137.329 435.75 138.712C432.607 139.512 430.003 141.504 427.305 143.209C423.895 145.362 420.284 147.036 416.362 147.994C413.477 148.699 411.235 149.339 408.566 147.339C407.407 146.469 406.575 145.213 405.366 144.381C403.99 143.435 402.196 142.661 400.497 143.163C397.373 144.086 397.035 147.841 399.175 149.913C399.9 150.614 400.801 149.955 400.075 149.254C398.532 146.799 399.756 144.454 401.865 144.454C403.359 144.454 403.937 145.259 405.499 146.554C406.199 147.132 406.769 147.864 407.457 148.457C408.293 149.182 409.175 149.932 410.269 150.227C413.568 151.116 418.278 149.254 421.273 148.086C425.26 146.527 428.51 143.983 432.219 141.937C435.074 140.363 438.209 139.233 441.398 140.493C443.576 141.355 445.427 143.309 447.198 144.822C447.962 145.473 448.437 144.822 447.67 144.167L447.677 144.163Z" fill="#CD9A82"/>
<path d="M428.819 131.442L434.847 129.882C435.155 129.105 427.938 129.43 427.938 129.43L428.819 131.438V131.442Z" fill="#CD9A82"/>
<path d="M510.152 304.108C502.615 286.317 457.069 154.909 457.069 154.909C457.81 158.927 442.918 171.692 429.406 168.581C430.801 171.853 434.651 202.113 441.831 222.862C446.936 237.614 446.993 252.069 449.49 266.764C453.899 292.726 472.5 301.407 498.494 303.273L510.155 304.112L510.152 304.108Z" fill="#9ED2EC"/>
<path d="M643.422 290.127C641.939 290.127 640.742 288.916 640.742 287.426V261.479C640.742 259.985 641.943 258.778 643.422 258.778C657.595 258.778 659.416 265.843 659.416 271.999C659.416 282.676 652.84 290.131 643.422 290.131V290.127ZM646.101 264.249V284.411C651.571 283.051 654.053 277.504 654.053 271.999C654.053 266.187 651.575 264.574 646.101 264.253V264.249Z" fill="#B52F41"/>
<path d="M646.336 251.213H612.63C611.246 251.213 610.125 252.343 610.125 253.737V297.51C610.125 298.904 611.246 300.034 612.63 300.034H646.336C647.719 300.034 648.841 298.904 648.841 297.51V253.737C648.841 252.343 647.719 251.213 646.336 251.213Z" fill="#E2606E"/>
<path d="M610.125 297.505C610.125 298.896 611.254 300.034 612.634 300.034H646.336C647.716 300.034 648.844 298.896 648.844 297.505V277.596L610.129 296.95V297.505H610.125Z" fill="#C8606B"/>
<path d="M798.46 264.978C798.282 259.81 797.426 254.255 794.238 250.037C788.89 242.954 778.996 243.084 773.128 249.389C770.06 252.684 768.445 257.143 768.358 261.629C768.228 268.038 770.227 276.715 771.805 282.588C771.854 282.776 780.798 283.856 785.279 284.136C788.548 284.339 794.017 284.986 795.959 281.784C798.506 277.581 798.624 269.747 798.46 264.981V264.978Z" fill="#405B57"/>
<path d="M810.87 275.405H756.754L757.795 292.2C757.97 295.299 761.296 299.337 765.34 299.337H802.281C806.325 299.337 809.65 295.299 809.825 292.2L810.867 275.405H810.87Z" fill="#749FC5"/>
<path d="M810.206 286.104L775.66 299.337H802.285C806.329 299.337 809.655 295.299 809.83 292.199L810.206 286.104Z" fill="#446C8F"/>
<path d="M796.005 254.377C796.005 253.864 795.97 253.362 795.929 252.86C795.45 251.876 794.906 250.922 794.237 250.037C788.889 242.954 778.996 243.084 773.127 249.389C770.06 252.684 768.445 257.143 768.357 261.629C768.308 264.154 768.593 267.035 769.049 269.954C771.706 271.525 774.788 272.44 778.087 272.44C787.985 272.44 796.008 264.353 796.008 254.377H796.005Z" fill="#9BA58A"/>
<path d="M785.869 241.36C785.603 242.896 785.497 244.432 785.569 245.988C785.603 246.765 786.808 246.769 786.77 245.988C786.705 244.54 786.781 243.111 787.028 241.682C787.158 240.919 786.002 240.59 785.869 241.36Z" fill="#A76D52"/>
<path d="M789.78 244.386C789.347 245.876 788.913 247.363 788.48 248.853C788.263 249.604 789.423 249.922 789.639 249.175C790.073 247.685 790.506 246.198 790.939 244.708C791.156 243.957 789.996 243.639 789.78 244.386Z" fill="#A76D52"/>
<path d="M800.064 260.831C799.186 261.26 798.278 261.597 797.339 261.858C796.594 262.065 796.91 263.233 797.658 263.026C798.7 262.739 799.7 262.352 800.673 261.877C801.368 261.536 800.76 260.49 800.064 260.831Z" fill="#A76D52"/>
<path d="M775.601 250.351C774.499 248.853 773.393 247.359 772.29 245.861C771.834 245.24 770.789 245.845 771.253 246.474C772.355 247.972 773.461 249.466 774.563 250.963C775.019 251.584 776.065 250.979 775.601 250.351Z" fill="#A76D52"/>
<path d="M773.338 252.113C772.612 251.193 771.89 250.278 771.164 249.358C770.681 248.749 769.837 249.611 770.312 250.216C771.038 251.136 771.76 252.051 772.486 252.971C772.969 253.58 773.813 252.718 773.338 252.113Z" fill="#A76D52"/>
<path d="M770.381 260.583C768.762 260.204 767.128 260.032 765.463 260.082C764.691 260.105 764.688 261.319 765.463 261.292C767.021 261.246 768.542 261.392 770.062 261.748C770.815 261.924 771.138 260.756 770.381 260.58V260.583Z" fill="#A76D52"/>
<path d="M769.883 268.198C768.94 268.497 768.001 268.796 767.059 269.098C766.325 269.332 766.637 270.504 767.378 270.267C768.321 269.968 769.259 269.669 770.202 269.367C770.935 269.133 770.624 267.961 769.883 268.198Z" fill="#A76D52"/>
<path d="M778.45 259.044C777.736 258.622 777.094 258.128 776.504 257.55C775.95 257.006 775.098 257.86 775.653 258.408C776.314 259.059 777.044 259.622 777.842 260.093C778.511 260.488 779.116 259.442 778.45 259.048V259.044Z" fill="#A76D52"/>
<path d="M780.081 256.876C779.606 256.129 779.127 255.386 778.652 254.638C778.234 253.983 777.192 254.593 777.614 255.251C778.089 255.998 778.568 256.742 779.043 257.489C779.462 258.144 780.503 257.535 780.081 256.876Z" fill="#A76D52"/>
<path d="M788.074 254.776C787.546 255.584 787.124 256.435 786.774 257.335C786.493 258.063 787.656 258.377 787.933 257.657C788.245 256.856 788.644 256.105 789.111 255.389C789.537 254.734 788.5 254.129 788.074 254.776Z" fill="#A76D52"/>
<path d="M785.383 262.928C785.132 262.196 783.969 262.51 784.224 263.249C784.581 264.291 784.733 265.341 784.68 266.444C784.642 267.226 785.847 267.222 785.881 266.444C785.938 265.245 785.771 264.065 785.379 262.928H785.383Z" fill="#A76D52"/>
<path d="M780.328 269.364C779.526 268.498 778.5 267.901 777.352 267.636C776.599 267.464 776.276 268.632 777.033 268.805C777.994 269.027 778.804 269.494 779.477 270.222C780.005 270.793 780.856 269.935 780.328 269.364Z" fill="#A76D52"/>
<path d="M769.588 266.666C768.22 266.448 766.852 266.321 765.464 266.302C764.689 266.291 764.689 267.505 765.464 267.513C766.741 267.532 768.007 267.632 769.265 267.831C770.022 267.953 770.348 266.785 769.585 266.662L769.588 266.666Z" fill="#A76D52"/>
<path d="M799.72 269.999C798.537 269.9 797.374 269.693 796.226 269.394C795.478 269.199 795.158 270.367 795.907 270.562C797.162 270.892 798.431 271.103 799.72 271.21C800.491 271.275 800.487 270.061 799.72 269.999Z" fill="#A76D52"/>
<path d="M795.908 266.372L793.065 267.679C792.362 268 792.974 269.046 793.673 268.724L796.516 267.418C797.22 267.096 796.608 266.05 795.908 266.372Z" fill="#A76D52"/>
<path d="M626.772 191.943H458.702C455.38 191.943 453.836 195.364 452.164 197.912L461.145 279.147C460.465 285.437 463.183 287.716 466.144 287.716H619.113C622.078 287.716 624.791 285.437 625.183 282.602L633.229 198.709C631.842 194.828 630.09 191.947 626.772 191.947V191.943Z" fill="white"/>
<path d="M628.333 194.571H456.925C453.603 194.571 451.315 197.632 451.809 201.371L460.072 287.073C460.46 289.908 463.178 292.187 466.142 292.187H619.112C622.076 292.187 624.79 289.908 625.182 287.073L633.445 201.371C633.939 197.632 631.651 194.571 628.329 194.571H628.333Z" fill="#2E282F"/>
<path d="M621.082 292.187H464.168C462.293 292.187 460.773 293.719 460.773 295.608V295.915C460.773 297.804 462.293 299.336 464.168 299.336H621.082C622.957 299.336 624.476 297.804 624.476 295.915V295.608C624.476 293.719 622.957 292.187 621.082 292.187Z" fill="#363537"/>
<path d="M535.614 248.025C535.572 244.646 538.799 241.876 542.828 241.876C546.857 241.876 550.087 244.646 550.042 248.025C550 251.362 546.769 254.04 542.828 254.04C538.886 254.04 535.655 251.362 535.614 248.025Z" fill="#FCF7ED"/>
<path opacity="0.49" d="M552.767 106.269C549.4 106.632 546.521 106.582 543.223 105.996C541.993 105.779 541.472 107.218 542.702 107.435C546.371 108.087 549.559 108.109 553.289 107.705C554.535 107.572 554.005 106.132 552.767 106.266V106.269Z" fill="#CD9A82"/>
<path d="M565.866 25.2995C564.307 24.4979 561.899 23.9231 560.154 24.2594C559.877 24.3141 557.939 25.2017 558.295 25.2174C557.988 25.2017 557.37 24.4705 557.078 24.3454C553.323 22.7345 551.1 21.7453 546.78 22.019C537.855 22.5859 532.052 26.1792 525.289 31.8213C522.342 34.2807 519.964 37.5925 517.996 41.0138C515.401 45.5298 515.576 53.428 517.154 59.2422C517.787 61.5765 520.996 57.7877 521.174 55.3791C521.459 51.5512 519.96 47.7859 520.893 43.9384C521.789 40.2591 524.576 37.3071 527.334 34.9845C532.78 30.402 537.469 26.7579 544.736 25.9368C547.827 25.5888 551.1 25.2877 553.937 26.8283C555.648 27.7549 556.251 28.5839 558.231 28.5487C560.681 28.5018 562.202 27.7354 564.466 29.0883C566.336 30.2065 568.104 31.8487 569.314 33.6825C571.43 36.8926 572.583 42.6364 571.282 46.4721C570.505 48.7634 576.38 54.5384 577.154 52.2628C579.839 44.3568 576.149 30.578 565.866 25.2956V25.2995Z" fill="#363537"/>
<path d="M274.002 303.98C274.002 308.399 275.837 311.974 278.102 311.974H833.896C835.032 311.974 836.054 311.083 836.799 309.631C837.539 308.187 838 306.185 838 303.98C838 299.561 836.161 295.974 833.894 295.974H278.099C276.964 295.974 275.942 296.864 275.201 298.316C274.589 299.511 274.169 301.084 274.041 302.836C274.015 303.206 274 303.589 274 303.98H274.002Z" fill="#DCBFA3"/>
<path d="M280 311.974H832C832 315.841 830.287 318.974 828.172 318.974H283.828C281.713 318.974 280 315.841 280 311.974Z" fill="#BDA084"/>
<line y1="-0.5" x2="5" y2="-0.5" transform="matrix(-1 0 0 1 303 174.974)" stroke="white"/>
</g>
<defs>
<linearGradient id="paint0_linear_2002_44" x1="288.987" y1="173.474" x2="554.307" y2="173.474" gradientUnits="userSpaceOnUse">
<stop stop-color="#FCF7ED" stop-opacity="0"/>
<stop offset="1" stop-color="#FCF7ED"/>
</linearGradient>
<clipPath id="clip0_2002_44">
<rect width="847" height="316" fill="white"/>
</clipPath>
</defs>
</svg>
