<svg width="684" height="262" viewBox="0 0 684 262" fill="none" xmlns="http://www.w3.org/2000/svg">
<g clip-path="url(#clip0_2002_3045)">
<path d="M46.978 254.433H117.463C117.601 254.25 117.741 254.068 117.878 253.886C117.972 253.766 118.065 253.645 118.159 253.525C118.2 253.827 118.246 254.13 118.305 254.433H159.77C178.665 238.902 197.189 223.755 216.358 208.545C203.956 223.273 192.186 238.572 181.257 254.433H234.475C240.054 249.901 245.521 245.552 250.617 241.573C249.977 242.022 254.413 238.778 250.684 241.526C252.493 240.289 273.086 223.682 307.094 200.686C289.929 217.152 272.791 234.69 254.939 254.436H310.431C332.04 236.739 353.542 219.841 381.933 199.111C386.27 195.943 390.621 192.796 394.986 189.663C389.011 196.037 383.111 202.488 377.307 209.026C364.219 223.773 351.592 238.925 339.413 254.436H396.448C405.763 247.012 413.466 240.92 422.56 233.838C446.153 215.5 470.705 197.216 494.799 180.371C482.368 192.343 470.182 204.577 458.289 217.099C446.706 229.295 435.394 241.749 424.345 254.436H487.969C496.233 248.323 504.529 242.249 512.878 236.254C512.042 237.203 511.206 238.152 510.374 239.104C505.979 244.153 501.666 249.266 497.417 254.433H567.522C571.464 251.523 575.415 248.626 579.386 245.761C579.892 245.396 580.397 245.035 580.903 244.673C580.14 245.502 579.366 246.322 578.603 247.156C576.406 249.563 574.232 251.994 572.072 254.433H737.867C738.401 253.025 738.921 251.612 739.418 250.183C741.721 243.548 738.322 235.634 733.115 231.59C730.859 229.836 728.501 228.792 726.084 228.325C730.184 224.972 734.313 221.654 738.483 218.389C744.324 213.814 745.067 202.929 741.233 196.951C737.227 190.704 728.846 186.11 721.368 188.823C701.857 195.899 682.658 203.866 663.866 212.691C671.089 206.141 678.374 199.667 685.7 193.248C697.111 183.248 708.622 173.359 720.135 163.476C725.792 158.619 726.85 148.224 722.885 142.038C721.245 139.482 719.118 137.342 716.573 135.691C713.268 133.548 706.772 132.34 703.02 133.907C681.948 142.708 661.589 152.788 641.792 163.847C642.449 163.344 643.107 162.839 643.767 162.339C647.169 159.771 650.593 157.231 654.039 154.725C661.423 149.35 668.909 144.119 676.487 139.02C684.119 133.88 688.161 123.186 682.799 114.817C677.454 106.48 669.184 103.855 658.732 108.469C653.954 110.579 649.208 112.745 644.492 114.97C638.23 117.923 633.136 109.21 638.738 105.131C643.203 101.881 647.867 98.5334 652.765 95.0716C670.216 82.7319 658.749 58.5168 639.212 62.7398C601.153 70.9623 559.022 96.2589 524.119 118.429C561.722 88.4918 566.251 89.7055 568.834 80.2693C569.994 76.0346 569.471 70.3951 567.061 66.6395C564.638 62.8632 561.035 59.5366 556.55 58.511C551.646 57.3884 547.561 58.27 542.997 60.2948C528.26 66.8246 513.804 73.9363 499.588 81.5035C497.49 72.0555 486.532 64.5265 477.865 68.1999C476.465 68.7935 475.068 69.396 473.668 69.9955L473.663 69.9837C471.79 71.2209 441.311 83.061 396.45 106.374C388.572 110.468 381.471 99.7501 388.271 94.0254C390.364 92.2651 392.456 90.5019 394.551 88.7387C401.257 83.0934 400.86 71.9321 395.927 65.511C390.425 58.3493 381.13 56.8653 373.237 60.956C349.579 73.2163 326.672 86.7462 304.344 101.19C297.17 105.83 289.409 96.206 295.405 90.1081C295.583 89.9259 295.765 89.7437 295.943 89.5615C302.129 83.2726 302.64 73.2604 297.319 66.3338C292.202 59.6747 282.028 56.9476 274.629 61.7788C254.381 74.9913 234.753 89.1824 215.847 104.29C213.167 106.43 209.695 102.877 211.875 100.223C218.295 92.4033 225.23 84.2512 232.412 76.1404C247.71 58.8695 226.188 35.8887 207.536 51.123C195.269 61.144 183.396 71.65 171.944 82.5967C168.397 85.988 162.555 83.3961 162.602 78.4737C162.602 78.3885 162.602 78.3032 162.602 78.2151C162.602 61.1352 140.543 55.3695 132.574 65.7049C90.8834 119.783 61.3813 174.693 39.7836 234.981C37.3057 241.899 40.9759 250.263 46.978 254.43V254.433Z" fill="url(#paint0_linear_2002_3045)"/>
<path d="M646.669 145.509C627.742 148.266 632.332 156.285 619.25 163.285C632.347 166.209 649.033 163.985 649.033 163.985C649.033 163.985 652.791 162.586 649.033 172.804C645.275 183.022 649.033 197.157 646.806 200.936C653.904 196.599 664.342 176.721 664.342 176.721C664.342 176.721 665.899 177.979 669.353 182.319C672.804 186.66 678.538 188.197 680.069 190.998C681.98 182.74 680.069 169.583 680.069 169.583C680.069 169.583 673.354 171.332 686.471 173.221C699.586 175.111 712.899 167.973 719.997 170.491C710.532 156.635 689.116 147.049 697.488 148.868C697.917 148.962 656.823 157.267 646.666 145.509H646.669Z" fill="#266E70"/>
<path d="M653.629 141.03C649.454 135.011 656.902 127.315 663.372 129.554C671.978 132.534 660.198 147.469 673.199 141.03C679.517 133.051 692.044 132.493 688.424 139.631C684.806 146.769 660.032 158.527 653.629 141.03Z" fill="#266E70"/>
<path d="M671.862 216.15C669.357 220.673 658.773 217.678 658.773 217.678C656.219 207.431 656.669 186.757 657.803 174.917C658.218 170.644 658.718 167.529 659.197 166.462C661.006 162.442 666.985 156.564 670.047 164.963C670.237 165.486 670.421 166.124 670.596 166.859C670.646 167.056 670.696 167.261 670.737 167.482C670.877 168.105 671.006 168.79 671.131 169.533C671.16 169.683 671.187 169.836 671.207 169.986C671.342 170.779 671.461 171.634 671.581 172.534C671.61 172.754 671.646 172.971 671.666 173.192C671.681 173.283 671.695 173.377 671.701 173.468C671.751 173.821 671.792 174.191 671.835 174.558C671.856 174.77 671.885 174.981 671.906 175.202C671.941 175.549 671.982 175.895 672.02 176.257C672.04 176.448 672.06 176.639 672.075 176.836C672.139 177.424 672.189 178.017 672.245 178.625C672.265 178.831 672.28 179.028 672.3 179.234C672.35 179.851 672.399 180.471 672.449 181.103C672.499 181.732 672.548 182.369 672.589 183.013C672.619 183.436 672.645 183.868 672.674 184.309C672.703 184.791 672.73 185.27 672.759 185.761C672.779 186.078 672.8 186.398 672.814 186.716C672.955 189.34 673.06 192.008 673.124 194.612C673.378 204.81 673.019 214.064 671.865 216.15H671.862Z" fill="#A76D52"/>
<path d="M673.123 194.609C671.025 183.204 664.277 176.912 657.805 174.917C658.22 170.644 658.719 167.529 659.199 166.462C661.007 162.442 666.986 156.564 670.048 164.963C670.238 165.486 670.423 166.124 670.598 166.859C670.648 167.056 670.697 167.261 670.738 167.482C670.878 168.105 671.007 168.79 671.133 169.533C671.162 169.683 671.188 169.836 671.209 169.986C671.343 170.779 671.463 171.634 671.583 172.534C671.612 172.754 671.647 172.971 671.667 173.192C671.682 173.283 671.697 173.377 671.702 173.468C671.752 173.821 671.793 174.191 671.837 174.558C671.857 174.77 671.887 174.981 671.907 175.202C671.948 175.549 671.983 175.895 672.021 176.257C672.041 176.448 672.062 176.639 672.076 176.836C672.141 177.424 672.196 178.017 672.246 178.625C672.266 178.831 672.281 179.028 672.301 179.234C672.357 179.851 672.407 180.471 672.451 181.103C672.5 181.732 672.55 182.369 672.591 183.013C672.62 183.436 672.646 183.868 672.676 184.309C672.705 184.791 672.731 185.27 672.76 185.761C672.781 186.078 672.801 186.398 672.816 186.716C672.956 189.34 673.061 192.008 673.126 194.612L673.123 194.609Z" fill="#754D3B"/>
<path d="M641.008 212.015H685.728V232.956C685.728 240.847 679.358 247.25 671.515 247.25H655.221C647.375 247.25 641.008 240.844 641.008 232.956V212.015Z" fill="#405B57"/>
<path d="M685.729 231.663L655.812 247.253H671.516C679.365 247.253 685.729 240.852 685.729 232.959V231.663Z" fill="#2B3836"/>
<path d="M659.752 143.969C660.03 127.594 667.017 120.174 673.197 116.536C679.377 112.898 690.449 103.799 697.182 102.594C687.457 112.671 684.944 135.153 675.897 143.969C685.298 136.504 690.867 132.458 698.518 133.68C710.817 135.643 722.66 142.15 735.603 146.628C729.2 150.549 704.131 155.586 701.077 155.447C698.024 155.306 682.577 153.349 682.577 153.349C692.46 162.868 694.581 185.681 699.783 189.04C689.257 188.061 668.659 177.423 664.483 166.227C658.916 177.003 626.627 185.123 621.2 193.939C622.454 184.702 631.916 164.125 638.876 157.128C645.834 150.131 653.768 149.57 653.768 149.57C653.768 149.57 614.102 150.549 603.387 138.232C620.227 139.493 632.196 129.134 641.661 130.116C651.126 131.094 658.919 140.193 659.755 143.972L659.752 143.969Z" fill="#3A8585"/>
<path d="M704.355 142.487C692.032 142.255 679.975 143.745 668.444 148.124C667.606 148.444 667.968 149.811 668.818 149.487C680.235 145.153 692.219 143.06 704.422 143.292C705.328 143.31 705.258 142.505 704.352 142.487H704.355Z" fill="#8CC2BD"/>
<path d="M675.648 123.838C669.648 130.674 666.802 139.517 667.784 148.594C667.881 149.491 669.289 149.499 669.193 148.594C668.255 139.899 670.133 130.944 675.896 124.376C676.492 123.694 676.25 123.154 675.648 123.838Z" fill="#8CC2BD"/>
<path d="M679.211 165.898C678.077 161.087 675.357 157.029 671.397 154.108C670.667 153.567 669.962 154.795 670.687 155.33C674.343 158.028 677.423 161.446 678.469 165.874C678.676 166.759 679.421 166.785 679.211 165.898Z" fill="#8CC2BD"/>
<path d="M649.862 141.186C646.145 139.352 642.188 139.567 638.115 139.141C637.215 139.047 637.145 139.726 638.036 139.82C641.861 140.219 645.66 140.684 649.152 142.409C649.961 142.808 650.677 141.589 649.862 141.186Z" fill="#8CC2BD"/>
<path d="M549.001 117.512C527.64 139.35 492.755 121.544 492.036 117.089C489.827 103.388 493.86 97.3553 491.186 90.6403C488.506 83.9253 485.339 77.1898 486.072 66.3841C486.663 57.5826 490.4 46.9327 495.952 38.5132C501.174 30.5875 507.997 24.6366 515.314 24.0489C519.753 23.6874 524.376 25.3096 528.934 29.6589C534.501 26.5938 547.835 37.0321 549.001 50.0595C552.835 92.6151 570.371 95.6773 549.001 117.515V117.512Z" fill="#1B161C"/>
<path d="M552.899 74.3541C552.414 73.5901 551.195 74.2983 551.683 75.0683C555.491 81.0691 559.421 87.3521 560.941 94.3992C562.566 101.937 560.497 111.106 552.163 113.345C551.289 113.58 551.66 114.947 552.537 114.709C559.41 112.863 562.989 106.154 562.94 99.3098C562.872 90.1704 557.618 81.7862 552.899 74.3512V74.3541Z" fill="#1B161C"/>
<path d="M561.868 106.292C561.45 99.4332 559.095 92.9269 555.253 87.2698C554.744 86.5234 553.526 87.2287 554.037 87.9839C557.105 92.5008 559.241 97.5465 560.097 102.968C561.021 108.799 561.179 116.751 555.118 119.813C554.309 120.222 555.022 121.444 555.828 121.036C561.319 118.262 562.207 111.905 561.865 106.292H561.868Z" fill="#1B161C"/>
<path d="M500.154 102.31C494.549 102.704 491.519 95.5219 489.45 91.246C487.173 86.5499 485.446 81.4836 484.85 76.2732C484.313 71.5654 484.771 66.8311 486.364 62.3613C488.062 57.5947 490.472 51.8554 494.298 48.4288C494.975 47.8205 493.976 46.8243 493.301 47.4296C489.236 51.0707 486.793 56.9158 485.005 61.9881C483.094 67.41 482.808 73.1493 483.804 78.7946C484.853 84.7514 487.22 90.4437 490.186 95.6835C492.404 99.6008 495.069 104.088 500.154 103.73C501.051 103.668 501.059 102.252 500.154 102.313V102.31Z" fill="#1B161C"/>
<path d="M494.778 124.771C488.165 119.096 487.852 109.51 488.495 101.425C489.156 93.1059 490.897 84.9098 490.237 76.5286C490.167 75.6264 488.758 75.6176 488.828 76.5286C489.591 86.194 487.11 95.6185 486.879 105.243C486.704 112.61 487.911 120.733 493.781 125.77C494.468 126.358 495.467 125.361 494.775 124.771H494.778Z" fill="#1B161C"/>
<path d="M544.572 111.111C544.572 111.111 560.945 119.186 564.007 121.147C567.069 123.107 571.152 129.393 573.472 143.575C581.3 191.441 589.067 188.455 588.162 200.757C589.707 204.406 590.979 206.89 591.849 208.147C592.51 209.103 593.123 215.782 591.572 220.555C590.792 222.956 593.427 231.59 593.705 233.332C593.983 235.075 585.28 253.527 579.231 253.527H531.481C531.481 253.527 489.527 256.501 490.442 251.667C491.356 246.833 485.015 236.797 483.244 228.572C475.548 221.41 463.082 216.529 462.845 200.665C462.699 190.88 462.515 179.324 466.895 146.058C469.367 127.277 474.928 122.381 477.441 121.332C478.324 120.964 498.638 111.111 498.638 111.111H544.575H544.572Z" fill="#9ED2EC"/>
<path d="M522.757 154.017C522.689 153.112 521.31 153.4 521.377 154.299C522.169 164.814 522.412 175.346 522.123 185.887C522.099 186.795 523.502 186.895 523.525 185.984C523.817 175.317 523.557 164.658 522.757 154.017Z" fill="#446C8F"/>
<path d="M505.275 109.53C500.258 123.06 514.515 150.163 521.189 154.269C537.255 140.087 538.547 115.766 537.843 108.971C537.434 108.901 534.102 105.956 534.076 103.114C520.62 100.834 511.295 102.23 507.879 103.015C507.344 105.774 505.275 109.533 505.275 109.533V109.53Z" fill="#F1BBA2"/>
<path d="M506.39 94.3805C506.995 96.9255 508.374 107.164 509.142 109.062C512.883 118.299 517.807 119.139 520.848 119.139C524.136 119.139 530.419 117.552 533.11 109.248C534.033 106.4 534.074 101.951 534.895 93.6635C520.857 90.8747 506.387 94.3776 506.387 94.3776L506.39 94.3805Z" fill="#F1BBA2"/>
<path d="M534.614 97.5277C527.189 110.405 516.38 119.862 507.879 103.011C507.8 102.544 506.93 97.2691 506.93 97.2691L534.629 96.6873L534.614 97.5277Z" fill="#CD9A82"/>
<path d="M541.883 66.2884C549.858 65.0042 549.089 77.8376 540.84 84.0265C540.84 84.0265 540.84 68.6952 541.883 66.2884Z" fill="#F1BBA2"/>
<path d="M497.59 66.2884C489.616 65.0042 488.125 76.1949 498.633 84.0266C498.633 84.0266 498.633 68.6953 497.59 66.2884Z" fill="#F1BBA2"/>
<path d="M544.606 57.3227C544.606 47.046 540.72 33.9011 520.44 33.9011C500.16 33.9011 496.23 46.8962 496.23 60.0381C496.169 70.1268 496.873 76.8035 499.094 85.1848C501.557 94.477 507.746 98.8734 514.611 104.075C515.598 104.824 517.994 105.917 520.44 106.026C522.886 105.917 525.282 104.824 526.27 104.075C533.134 98.8734 540.112 94.477 541.787 85.1848C543.452 75.9337 545.378 67.1116 544.609 57.3227H544.606Z" fill="#F1BBA2"/>
<path d="M531.477 72.5133C531.477 70.9499 532.467 69.6833 533.689 69.6833C534.91 69.6833 535.901 70.9499 535.901 72.5133C535.901 74.0767 534.91 75.3433 533.689 75.3433C532.467 75.3433 531.477 74.0767 531.477 72.5133Z" fill="#1B161C"/>
<path d="M506.922 72.5133C506.922 70.9499 507.912 69.6833 509.134 69.6833C510.355 69.6833 511.346 70.9499 511.346 72.5133C511.346 74.0767 510.355 75.3433 509.134 75.3433C507.912 75.3433 506.922 74.0767 506.922 72.5133Z" fill="#1B161C"/>
<path d="M521.812 87.7768C521.356 87.7768 520.918 87.5152 520.713 87.0685C520.433 86.4573 520.699 85.7373 521.307 85.4552C522.519 84.8939 522.434 83.5832 521.786 80.8531C521.657 80.3154 521.537 79.804 521.453 79.3162C521.342 78.655 521.783 78.0261 522.44 77.9144C523.098 77.7998 523.723 78.2465 523.834 78.9077C523.904 79.3191 524.015 79.7893 524.135 80.2889C524.693 82.634 525.535 86.1752 522.318 87.6651C522.154 87.7415 521.982 87.7768 521.812 87.7768Z" fill="#CD9A82"/>
<path d="M530.179 62.2923C527.801 62.5332 525.387 65.6512 527.538 65.5454C536.649 65.1076 539.776 67.0501 539.998 66.5946C540.585 65.3926 536.406 61.6575 530.179 62.2923Z" fill="#1B161C"/>
<path d="M511.064 62.3888C513.454 62.3359 515.938 65.6244 513.784 65.5744C504.664 65.3687 502.887 67.0673 502.589 66.6558C501.695 65.4216 505.57 62.5093 511.061 62.3888H511.064Z" fill="#1B161C"/>
<path d="M510.645 89.1934C518.207 91.0741 523.66 90.8714 531.044 89.1934C531.044 89.1934 528.259 96.6871 521.065 96.6871C513.871 96.6871 510.645 89.1934 510.645 89.1934Z" fill="#5D1A1C"/>
<mask id="mask0_2002_3045" style="mask-type:luminance" maskUnits="userSpaceOnUse" x="510" y="89" width="22" height="8">
<path d="M510.645 89.1934C518.207 91.0741 523.66 90.8714 531.044 89.1934C531.044 89.1934 528.259 96.6871 521.065 96.6871C513.871 96.6871 510.645 89.1934 510.645 89.1934Z" fill="white"/>
</mask>
<g mask="url(#mask0_2002_3045)">
<path d="M521.24 102.745C526.003 102.745 529.864 100.296 529.864 97.2756C529.864 94.2552 526.003 91.8066 521.24 91.8066C516.478 91.8066 512.617 94.2552 512.617 97.2756C512.617 100.296 516.478 102.745 521.24 102.745Z" fill="#ED4053"/>
<path d="M520.842 92.7028C526.277 92.7028 530.684 90.6082 530.684 88.0244C530.684 85.4406 526.277 83.3459 520.842 83.3459C515.406 83.3459 511 85.4406 511 88.0244C511 90.6082 515.406 92.7028 520.842 92.7028Z" fill="white"/>
</g>
<path d="M543.691 74.4027C544.176 55.0777 531.766 55.5949 529.323 41.1187C528.852 45.1389 524.671 48.301 519.423 51.4219C516.129 53.382 512.415 55.3216 508.938 57.4492C501.586 61.9484 495.28 67.2763 496.224 75.3431L492.375 88.6878C492.375 88.6878 486.063 51.5453 496.224 41.4714C497.714 39.9932 499.193 38.706 500.642 37.5805C506.305 33.2224 511.612 31.4445 516.284 31.0272C522.877 30.4482 528.204 32.5612 531.474 33.9012C537.651 36.4344 551.575 42.9437 543.688 74.4027H543.691Z" fill="#1B161C"/>
<path opacity="0.26" d="M516.07 49.433C514.031 47.2966 518.44 43.9347 518.665 41.7424C518.756 40.7814 518.56 39.9674 518.016 39.174C517.116 37.8721 515.348 37.7105 514.443 36.6114C512.853 34.6807 515.351 34.2692 516.082 32.7205C516.462 31.9212 516.412 31.5803 516.286 31.0308C516.246 30.8397 516.196 30.6282 516.152 30.3578C516.067 29.87 515.503 29.7994 515.337 29.3821C514.127 26.461 514.443 27.3015 514.817 25.6029C514.928 25.0651 515.112 24.5567 515.308 24.0454C507.99 24.6332 501.164 30.5841 495.945 38.5098C497.444 38.3129 499.478 37.3696 500.644 37.5841C501.454 37.7399 501.848 38.4481 501.363 40.3436C500.933 42.0216 499.808 44.6312 501.158 46.2093C501.644 46.7764 502.269 46.9528 502.982 47.0439C503.847 47.1643 505.901 46.2093 506.486 46.6119C507.695 47.4465 504.501 52.0661 504.706 53.75C504.995 56.148 506.57 55.8659 508.169 56.7358C508.554 56.9474 508.803 57.1825 508.943 57.4499C512.418 55.3193 516.134 53.3797 519.428 51.4226C518.542 50.3117 516.915 50.3264 516.07 49.433Z" fill="#9ED2EC"/>
<path d="M534.224 101.111C536.983 102.804 543.283 108.784 545.65 113.309C550.495 122.575 536.273 166.453 533.687 165.745L520.844 153.802C524.406 149.629 536.796 128.409 535.332 107.291C533.541 106.027 533.953 103.732 534.224 101.111Z" fill="white"/>
<path d="M506.387 108.337C504.976 127.08 516.454 147.569 520.849 153.802C515.946 158.654 506.931 165.754 506.931 165.754C498.442 149.124 496.04 135.256 495.324 125.047C494.739 116.724 498.302 108.655 504.868 103.553C506.475 102.304 507.614 101.414 507.614 101.414C508.415 106.024 507.88 107.57 506.39 108.337H506.387Z" fill="white"/>
<path d="M566.366 141.03C564.782 145.999 561.903 149.735 558.695 153.834C558.14 154.542 559.13 155.55 559.688 154.836C563.049 150.543 565.571 145.805 567.228 140.604C567.505 139.734 566.64 140.166 566.366 141.033V141.03Z" fill="#446C8F"/>
<path d="M476.108 128.993C475.839 128.126 475.509 129.237 475.778 130.11C478.04 137.425 479.665 145.006 479.302 152.744C478.916 160.92 476.769 169.298 475.433 177.368C475.284 178.258 476.643 178.64 476.789 177.744C478.148 169.536 480.319 161.064 480.708 152.744C481.079 144.859 478.408 136.431 476.108 128.993Z" fill="#446C8F"/>
<path d="M562.224 202.805C562.484 198.2 559.863 194.389 561.634 190.257C563.151 186.716 564.074 183.001 564.39 179.157C565.082 170.753 562.335 163.553 560.153 155.624C557.505 146.014 560.787 138.453 562.934 129.275C563.142 128.391 562.651 127.553 562.443 128.441C560.693 135.92 556.9 143.249 557.8 151.119C558.3 155.503 560.027 159.585 561.263 163.788C562.607 168.363 563.294 173.127 563.066 177.902C562.829 182.86 561.467 187.333 559.387 191.794C558.326 194.065 562.181 196.311 561.508 198.697C560.918 201.565 560.652 203.317 561.05 205.421C561.289 206.69 561.833 207.763 562.195 208.979C562.838 211.128 564.062 211.501 562.522 215.442C562.061 216.62 562.236 217.461 563.013 218.539C564.135 220.097 565.111 219.676 565.088 222.48C565.082 223.124 564.895 223.858 564.65 224.608L566.514 223.391C566.736 222.495 566.835 221.625 566.669 220.861C566.345 219.383 564.942 218.989 564.229 217.819C563.221 216.173 564.626 214.666 564.843 213.167C564.971 212.262 564.749 211.53 564.512 210.66C564.092 209.118 563.089 207.772 562.671 206.205C562.365 205.059 562.227 203.928 562.221 202.796L562.23 202.805H562.224Z" fill="#446C8F"/>
<path d="M584.724 218.71C581.018 218.425 577.205 218.131 573.561 219.063C570.411 219.868 567.696 221.658 565.025 223.447C561.393 225.881 557.831 227.87 553.407 228.367C549.383 228.819 545.304 228.311 541.306 227.826C540.409 227.717 540.418 229.134 541.306 229.242C548.387 230.101 555.566 230.685 562.007 227.047C565.043 225.331 567.74 223.021 570.908 221.531C575.276 219.477 580.048 219.765 584.727 220.127C585.63 220.197 585.627 218.781 584.727 218.71H584.724Z" fill="#446C8F"/>
<path d="M580.592 197.751C573.55 204.051 568.308 211.028 565.184 219.97C564.883 220.831 566.242 221.202 566.54 220.347C569.585 211.63 574.69 204.016 581.554 197.877C582.232 197.272 581.267 197.148 580.592 197.751Z" fill="#446C8F"/>
<path d="M479.845 159.245C478.533 154.763 476.876 150.423 474.88 146.208C474.492 145.386 474.825 147.281 475.211 148.101C477.157 152.209 477.209 155.257 478.486 159.624C478.741 160.497 480.099 160.123 479.842 159.248L479.845 159.245Z" fill="#446C8F"/>
<path d="M520.556 129.126C513.905 129.126 509.18 121.682 506.114 106.383C506 105.807 506.369 105.249 506.941 105.134C507.511 105.02 508.069 105.39 508.183 105.966C511.015 120.081 515.243 127.166 520.752 127.004C527.44 126.816 531.569 120.081 533.746 105.813C533.834 105.234 534.372 104.837 534.95 104.926C535.526 105.014 535.92 105.557 535.833 106.136C534.348 115.866 531.175 128.835 520.813 129.129C520.728 129.129 520.643 129.132 520.559 129.132L520.556 129.126Z" fill="#F6BB5A"/>
<path d="M510.343 95.957C507.14 96.2421 503.646 96.3361 500.846 94.4847C497.547 92.3013 497.556 88.8277 497.95 85.263C498.12 83.7437 495.753 83.7555 495.586 85.263C495.145 89.245 495.326 93.0271 498.59 95.7631C501.884 98.5225 506.267 98.6989 510.34 98.3345C511.842 98.1993 511.857 95.8218 510.34 95.957H510.343Z" fill="#9ED2EC"/>
<path d="M545.826 63.8511H544.277C543.162 63.8511 542.258 64.7602 542.258 65.8817V84.3369C542.258 85.4584 543.162 86.3676 544.277 86.3676H545.826C546.941 86.3676 547.845 85.4584 547.845 84.3369V65.8817C547.845 64.7602 546.941 63.8511 545.826 63.8511Z" fill="#2E282F"/>
<path d="M497.005 63.8511H495.457C494.342 63.8511 493.438 64.7602 493.438 65.8817V84.3369C493.438 85.4584 494.342 86.3676 495.457 86.3676H497.005C498.121 86.3676 499.025 85.4584 499.025 84.3369V65.8817C499.025 64.7602 498.121 63.8511 497.005 63.8511Z" fill="#2E282F"/>
<path d="M546.329 59.011H544.57V63.8658H546.329V59.011Z" fill="#2E282F"/>
<path d="M497.111 59.011H495.352V63.8658H497.111V59.011Z" fill="#2E282F"/>
<path d="M545.449 60.7802C544.479 60.7802 543.69 59.9867 543.69 59.0111C543.69 44.1117 535.981 36.5592 520.777 36.5592C509.766 36.5592 497.999 42.4572 497.999 59.0111C497.999 59.9867 497.213 60.7802 496.24 60.7802C495.267 60.7802 494.48 59.9867 494.48 59.0111C494.48 39.8271 508.644 33.021 520.774 33.021C538.064 33.021 547.205 42.0076 547.205 59.0111C547.205 59.9867 546.419 60.7802 545.446 60.7802H545.449Z" fill="#446C8F"/>
<path d="M429.806 146.405C429.529 139.834 440.104 136.302 440.104 136.302L442.17 150.469C442.17 150.469 435.373 156.056 429.806 146.405Z" fill="#446C8F"/>
<path d="M451.499 138.332C451.043 135.132 448.907 125.664 448.308 122.825C447.475 118.881 440.225 113.979 435.477 111.593C432.268 109.98 424.01 102.427 422.564 101.404C421.006 100.3 416.942 102.448 418.961 105.348C420.98 108.249 424.425 110.879 426.208 112.551C427.99 114.223 429.416 117.929 429.416 117.929C429.416 117.929 419.317 119.93 417.652 119.827C415.989 119.722 409.215 116.495 407.909 116.019C406.603 115.54 400.25 112.672 398.494 113.389C396.738 114.106 396.054 116.257 397.705 117.691C399.353 119.125 406.363 122.469 406.363 122.469C406.363 122.469 396.738 121.873 395.551 123.186C394.362 124.5 394.245 127.01 396.741 127.847C398.76 130.357 406.96 131.194 406.96 131.194C406.96 131.194 413.377 137.048 416.109 136.69C418.841 136.331 425.138 134.897 425.851 134.659C426.564 134.421 437.376 135.735 437.616 136.452C437.853 137.169 439.635 150.193 439.635 150.193C439.635 150.193 451.838 149.062 451.499 138.335V138.332Z" fill="#F1BBA2"/>
<path d="M443.915 127.686C440.946 125.156 438.909 122.443 434.745 123.504C432.329 124.118 430.327 125.646 428.252 126.954C425.631 128.606 422.855 129.89 419.839 130.624C417.621 131.165 415.897 131.656 413.846 130.122C412.955 129.455 412.315 128.491 411.385 127.853C410.328 127.127 408.948 126.534 407.642 126.919C405.24 127.627 404.98 130.507 406.625 132.097C407.183 132.635 407.876 132.129 407.318 131.591C406.131 129.708 407.072 127.909 408.694 127.909C409.843 127.909 410.287 128.526 411.488 129.52C412.025 129.963 412.464 130.525 412.993 130.98C413.636 131.535 414.313 132.111 415.155 132.338C417.691 133.02 421.312 131.591 423.615 130.695C426.68 129.499 429.178 127.548 432.03 125.978C434.225 124.771 436.636 123.904 439.087 124.87C440.762 125.532 442.185 127.03 443.547 128.191C444.134 128.691 444.499 128.191 443.909 127.689L443.915 127.686Z" fill="#CD9A82"/>
<path d="M429.416 117.926L434.051 116.73C434.287 116.134 428.738 116.383 428.738 116.383L429.416 117.923V117.926Z" fill="#CD9A82"/>
<path d="M491.949 250.381C486.155 236.733 451.139 135.929 451.139 135.929C451.708 139.012 440.259 148.804 429.871 146.417C430.944 148.927 433.904 172.14 439.424 188.056C443.348 199.373 443.392 210.461 445.312 221.734C448.701 241.65 463.002 248.309 482.987 249.74L491.952 250.384L491.949 250.381Z" fill="#9ED2EC"/>
<path d="M594.404 239.654C593.264 239.654 592.344 238.725 592.344 237.582V217.678C592.344 216.532 593.267 215.606 594.404 215.606C605.301 215.606 606.7 221.025 606.7 225.747C606.7 233.938 601.645 239.656 594.404 239.656V239.654ZM596.464 219.802V235.269C600.669 234.226 602.577 229.97 602.577 225.747C602.577 221.289 600.672 220.052 596.464 219.805V219.802Z" fill="#B52F41"/>
<path d="M596.644 209.802H570.73C569.667 209.802 568.805 210.669 568.805 211.739V245.317C568.805 246.386 569.667 247.253 570.73 247.253H596.644C597.708 247.253 598.57 246.386 598.57 245.317V211.739C598.57 210.669 597.708 209.802 596.644 209.802Z" fill="#E2606E"/>
<path d="M568.805 245.314C568.805 246.381 569.673 247.254 570.733 247.254H596.644C597.705 247.254 598.573 246.381 598.573 245.314V230.042L568.808 244.888V245.314H568.805Z" fill="#C8606B"/>
<path d="M723.145 228.361H681.539L682.34 241.244C682.474 243.621 685.031 246.719 688.14 246.719H716.541C719.65 246.719 722.207 243.621 722.341 241.244L723.142 228.361H723.145Z" fill="#749FC5"/>
<path d="M581.608 164.337H452.393C449.839 164.337 448.653 166.961 447.367 168.915L454.272 231.231C453.749 236.056 455.838 237.805 458.115 237.805H575.72C577.999 237.805 580.086 236.056 580.387 233.882L586.573 169.527C585.506 166.55 584.159 164.34 581.608 164.34V164.337Z" fill="white"/>
<path d="M582.804 166.353H451.024C448.47 166.353 446.711 168.701 447.091 171.569L453.443 237.311C453.741 239.486 455.831 241.234 458.11 241.234H575.715C577.995 241.234 580.081 239.486 580.382 237.311L586.735 171.569C587.115 168.701 585.355 166.353 582.801 166.353H582.804Z" fill="#2E282F"/>
<path d="M577.236 241.234H456.598C455.157 241.234 453.988 242.409 453.988 243.859V244.094C453.988 245.543 455.157 246.718 456.598 246.718H577.236C578.677 246.718 579.846 245.543 579.846 244.094V243.859C579.846 242.409 578.677 241.234 577.236 241.234Z" fill="#1B161C"/>
<path d="M511.524 207.357C511.492 204.765 513.973 202.64 517.07 202.64C520.167 202.64 522.651 204.765 522.616 207.357C522.584 209.916 520.1 211.97 517.07 211.97C514.04 211.97 511.556 209.916 511.524 207.357Z" fill="#FCF7ED"/>
<path opacity="0.49" d="M524.493 98.4066C522.076 98.7505 520.01 98.7034 517.643 98.148C516.761 97.9423 516.387 99.3059 517.269 99.5116C519.902 100.129 522.19 100.149 524.867 99.7673C525.761 99.6409 525.381 98.2773 524.493 98.4037V98.4066Z" fill="#CD9A82"/>
<path d="M534.676 36.7904C533.475 36.188 531.619 35.756 530.275 36.0087C530.062 36.0499 528.569 36.717 528.843 36.7287C528.607 36.717 528.13 36.1674 527.905 36.0734C525.012 34.8626 523.3 34.1191 519.972 34.3248C513.096 34.751 508.625 37.4516 503.415 41.6922C501.144 43.5407 499.312 46.0298 497.795 48.6012C495.797 51.9954 495.931 57.9316 497.147 62.3015C497.635 64.0559 500.107 61.2083 500.244 59.398C500.463 56.521 499.309 53.691 500.028 50.7993C500.718 48.034 502.865 45.8153 504.99 44.0697C509.186 40.6255 512.798 37.8866 518.397 37.2694C520.778 37.0079 523.3 36.7816 525.486 37.9395C526.804 38.636 527.268 39.259 528.794 39.2325C530.681 39.1972 531.853 38.6213 533.598 39.6381C535.038 40.4785 536.4 41.7128 537.332 43.0911C538.963 45.5037 539.851 49.8207 538.849 52.7036C538.25 54.4257 542.776 58.7662 543.372 57.0559C545.441 51.1138 542.598 40.7577 534.676 36.7875V36.7904Z" fill="#1B161C"/>
<path d="M310.691 250.335C310.691 253.68 312.101 256.385 313.84 256.385H740.847C741.719 256.385 742.505 255.711 743.077 254.612C743.646 253.519 744 252.004 744 250.335C744 246.991 742.587 244.277 740.846 244.277H313.839C312.967 244.277 312.181 244.951 311.612 246.05C311.142 246.953 310.819 248.144 310.721 249.469C310.701 249.75 310.689 250.039 310.689 250.335H310.691Z" fill="#DCBFA3"/>
<path d="M315.354 256.384H739.34C739.34 259.471 738.024 261.972 736.4 261.972H318.294C316.67 261.972 315.354 259.471 315.354 256.384Z" fill="#BDA084"/>
</g>
<defs>
<linearGradient id="paint0_linear_2002_3045" x1="322.062" y1="150.289" x2="526.152" y2="150.289" gradientUnits="userSpaceOnUse">
<stop stop-color="#FCF7ED" stop-opacity="0"/>
<stop offset="1" stop-color="#FCF7ED"/>
</linearGradient>
<clipPath id="clip0_2002_3045">
<rect width="684" height="262" fill="white"/>
</clipPath>
</defs>
</svg>
