<svg width="236" height="260" fill="none" xmlns="http://www.w3.org/2000/svg"><g clip-path="url(#a)"><path fill="#D6F3BA" d="M0 0h236v260H0z"/><g clip-path="url(#b)"><path d="M202.089 168.423c-2.662-1.306-4.642 2.926-1.42 4.164 3.222 1.239 5.048 2.046 6.063 2.046 1.015 0 1.943-2.637 1.076-3.506-.867-.868-3.88-1.805-5.719-2.704Z" fill="#F1BBA2"/><path d="M75.759 133.914c4.513 0 5.7 5.809 11.332 7.682 6.986 2.322 16.062-1.349 18.405-7.337 3.043-7.78-2.718-11.834-1.408-24.764.867-8.569-4.957-7.811-9.944-16.152-4.986-8.347-3.652-9.253-10.416-16.922-6.764-7.67-18.066-8.754-26.558-7.405-8.492 1.35-12.722 2.908-19.37 7.485-6.647 4.577-3.64 9.48-7.913 12.715-4.274 3.227-6.18 6.979-7.471 13.398-2.485 12.32 5.866 18.277 2.115 22.534-3.751 4.257-11.364 23.335 8.332 22.183 6.96-.407 13.196 1.885 16.608-3.407 5.024-7.786 7.533-2.606 14.414-6.018 6.887-3.419 11.868-3.98 11.868-3.98l.006-.012Z" fill="#363537"/><path d="M25.281 138.127c16.584-13.521 18.159 0 57.943-2.642 4.907-.327 27.24 4.176 31.551 6.831 21.854 13.448 38.936 101.514 38.936 101.514l-126.548-1.398-1.882-104.305Z" fill="#F3C55C"/><path d="M57.003 131.979c-.29 5.582-5.362.302-5.362 7.374 0 6.142 6.862 15.955 26.287 12.844 12.353-1.977 16.068-12.542 8.725-15.622-4.156-1.743-6.118-8.748-6.118-8.748l-23.532 4.146v.006Z" fill="#F1BBA2"/><path d="M83.338 99.984c3.819 15.326 3.671 37.589-13.755 38.926-21.319 1.638-44.79-40.276-27.683-55.664 17.107-15.388 36.027-4.965 41.438 16.738Z" fill="#F1BBA2"/><path d="M49.533 94.71c-2.508 4.848-2.687 5.717-5.466 8.501-2.78 2.785-2.521 9.998-1.193 14.113 6.327 19.621.91 10.146-.344 11.403-1.255 1.257-6.45-11.557-7.164-12.271-.72-.721-6.358-21.265-6.358-23.421 0-2.156 13.583-15.154 15.225-16.805 1.648-1.651 16.48-4.731 20.691-4.731 4.213 0 12.63-.536 14.426 2.334 1.79 2.871 13.436 26.92 13.436 26.92s6.985 11.206 2.263 10.892c-6.045-.407-7.182-1.627-8.732-5.169-1.66-3.807-3.234-12.357-11.56-9.53-14.075 4.775-25.224-2.223-25.224-2.223v-.013Z" fill="#363537"/><path d="M-8.26 252.35c-5.393-33.641 21.386-111.038 38.77-118.085 12.249-4.971 21.687-1.06 23.963 12.524 2.275 13.583-18.435 77.587-18.435 77.587s60.734-16.718 66.115 0c5.374 16.719 2.687 28.565 2.687 28.565l-113.094-.591h-.006Z" fill="#F3C55C"/><path d="M47.889 226.083c-5.565 0-10.509-.123-14.248-.222-1.801-.043-3.363-.086-4.636-.105a1.526 1.526 0 0 1-1.304-.702c-1.39-2.15 1.636-9.487 7.57-23.366 6.069-14.205 13.62-31.885 13.62-41.476a.757.757 0 1 1 1.513 0c0 9.905-7.619 27.739-13.743 42.074-2.442 5.71-4.741 11.101-6.186 15.117-2.067 5.748-1.624 6.69-1.5 6.832h.048a357.5 357.5 0 0 1 4.655.105c8.302.209 20.84.529 33.74-.426a.76.76 0 0 1 .11 1.516c-6.77.499-13.57.647-19.64.647v.006Z" fill="#C99565"/><path d="M57.2 115.236c-.135.875.781 3.518 2.737 2.914 1.291-.4 1.076-3.702-.443-4.306-1.236-.487-2.158.518-2.293 1.392ZM73.225 110.333c-.228.856.578 3.566 2.583 3.166 1.328-.259 1.285-3.548-.154-4.306-1.175-.622-2.202.283-2.43 1.14Z" fill="#372313"/><path d="M65.754 129.928c1.064 1.232 3.616 2.68 7.539 1.349 3.923-1.33 3.474-5.291 3.474-5.291-3.542 2.242-6.918 3.32-11.013 3.936v.006Z" fill="#E66C40"/><path d="M70.353 107.308c.787 0 3.277-1.749 5.645-1.368 2.367.382 2.28.056 1.715-.517-.572-.573-2.177-1.164-5.177-.776-3.64.474-2.866 2.661-2.183 2.661ZM59.915 109.821c.043-.758-1.58-.942-2.755-.634-1.611.425-4.07 2.778-4.477 4.466-.215.881.406 1.312 1.31.074 1.07-1.46 1.913-2.347 3.271-2.557 1.095-.172 2.62-.751 2.65-1.343v-.006Z" fill="#363537"/><path d="M46.35 117.602c1.919 2.71 4.563 8.039 2.595 9.437-1.968 1.399-7.803-1.657-9.722-4.367-1.918-2.711-1.881-6.043.086-7.442 1.968-1.398 5.123-.339 7.041 2.372Z" fill="#F1BBA2"/><path d="M69.915 140.782c-3.867 0-7.077-1.294-7.256-1.368a.496.496 0 0 1 .376-.917c.055.024 5.638 2.267 10.73.776a.498.498 0 0 1 .276.955c-1.39.406-2.797.56-4.126.56v-.006Z" fill="#C99565"/><path d="M48.42 127.834c1.395 1.398 7.858 7.737 14.431 11.125 1.906.986.941 7.54.775 8.52-1.254 7.453-9.223 5.846-13.983 3.462-5.11-2.563-.326-18.9-7.557-19.393-8.197-.56-11.456 3.074-12.649 2.76-2.336-.622 1.851-4.257 7.551-5.975 4.57-1.374 10.595-1.035 11.431-.499Z" fill="#363537"/><path d="M51.88 77.456c-3.1-.512-4.612 3.227-6.063 5.279-.29.406.381.924.688.536 1.353-1.688 2.59-5.255 5.252-4.928.498.061.62-.801.117-.888h.006ZM53.282 80.653c-2.09.19-3.314 1.81-4.525 3.345-.35.443.264 1.072.627.628 1.04-1.288 2.127-2.858 3.905-3.074.56-.068.584-.955 0-.9h-.007ZM38.294 99.533c-1.783 2.144-2.994 4.879-3.492 7.627-.105.56.75.807.867.24.516-2.575 1.61-5.175 3.253-7.238.35-.438-.259-1.066-.627-.629ZM58.95 143.087c.044-.585-.848-.573-.903 0-.11 1.244.129 2.495.067 3.745-.03.561-.098 1.214-.448 1.676-.45.591-1.187.591-1.864.542-.59-.043-.56.832 0 .906 4.145.517 2.977-4.374 3.149-6.869ZM100.459 114.719c-.51-1.06-1.175-2.033-1.796-3.025-.406-.653-1.138-1.571-1.1-2.384.024-.567-.85-.567-.88 0-.043.684.338 1.368.664 1.941.51.905 1.1 1.768 1.63 2.661.48.801 1.02 1.681 1.174 2.624.16.979-.412 1.392-1.291 1.632-.566.154-.326.992.24.875.897-.191 1.746-.696 1.955-1.651.197-.905-.203-1.866-.59-2.667l-.006-.006ZM100.509 125.579c-.51-.573-1.156-.85-1.832-1.171-.818-.394-1.236-.782-1.12-1.755.056-.487-.799-.61-.867-.117-.202 1.447.51 2.174 1.753 2.753.615.284 1.623.715 1.777 1.479.117.603-.88 1.09-1.23 1.478-.387.431.216 1.047.64.641.467-.45 1.143-.826 1.414-1.442.301-.683-.074-1.349-.529-1.86l-.006-.006ZM77.03 84.158c-.781-.838-1.777-1.14-2.89-1.245-1.255-.123-2.478-.055-3.345-1.127-.375-.462-1.015.191-.652.653 1.617 2.04 4.501.629 6.241 2.36.412.412 1.033-.216.64-.641h.006Z" fill="#352D27"/><path d="M110.672 140.844c6.893.936 28.765 26.575 56.448 32.526 27.684 5.95 37.799-.327 37.799-.327l11.818 19.183c-27.086 19.879-69.398 9.437-96.22-3.949l-9.845-47.433Z" fill="#F3C55C"/><path d="M220.441 249.614s16.725-52.873-18.331-78.783c-7.379-5.451-13.798-8.02-29.312-7.965-16.523.062-31.391 15.567-37.233 26.07-10.822 19.46-19.788 60.678-19.788 60.678h104.664Z" fill="#7FCBB4"/><path d="M200.676 249.571a.737.737 0 0 1-.738-.739v-30.124c-.006-.141-.935-18.086-3.444-25.072a.736.736 0 0 1 .449-.948.734.734 0 0 1 .947.449c2.589 7.196 3.493 24.795 3.536 25.541v30.16a.736.736 0 0 1-.738.739l-.012-.006ZM146.149 244.772a.738.738 0 0 1-.732-.659c-.178-1.546-4.378-38.045-1.98-50.871a.743.743 0 0 1 .867-.591c.4.074.664.462.59.868-2.361 12.604 1.956 50.052 1.999 50.428a.746.746 0 0 1-.652.825h-.092Z" fill="#539A85"/><path d="M163.088 169.002c-3.715 4.226-6.082 17.156.694 17.501 15.933.819 21.485-20.859 17.218-22.239-9.753-3.16-17.912 4.738-17.912 4.738Z" fill="#F1F2F2"/><path d="M162.41 158.191c0 1.651-.966 12.184 1.74 13.688 7.92 4.398 16.861-4.805 16.861-7.608v-9.043l-18.595 2.969-.006-.006Z" fill="#F1BBA2"/><path d="M149.694 116.813c-.774-8.058-5.478-14.785-9.543-11.409-4.064 3.376-8.713 6.93-7.723 11.409.553 2.507 13.583 6.604 13.583 6.604l3.683-6.604Z" fill="#363537"/><path d="M141.675 124.673a.742.742 0 0 1-.467-1.318c2.589-2.088 3.849-4.318 3.849-6.813 0-.413.332-.739.738-.739a.74.74 0 0 1 .738.739c0 2.932-1.482 5.612-4.403 7.971a.73.73 0 0 1-.461.167l.006-.007Z" fill="#DE501D"/><path d="M143.999 135.959c-2.577.579-4.483 1.244-5.541.191-1.057-1.06 0-3.789 0-3.789l3.401-.548 2.14 4.146Z" fill="#82512B"/><path d="M191.607 138.7c-2.447 16.909-13.288 30.302-28.501 30.302-11.241 0-18.663-5.637-19.88-17.163-.283-2.679.258-6.4.055-7.971-.338-2.643-2.281-5.575-2.281-8.347 0-16.91 14.512-25.023 29.725-25.023 15.212 0 23.305 11.471 20.882 28.202Z" fill="#F1BBA2"/><path d="M158.94 140.222c-.062-.548 1.236-1.651 3.013-1.232 1.771.419 3.086 1.675 2.508 2.02-.578.345-1.875-.727-3.006-.597-1.132.123-2.466.197-2.509-.191h-.006ZM150.136 140.542c.062-.548-1.236-1.651-3.013-1.232-1.771.419-3.087 1.676-2.509 2.021.578.345 1.876-.727 3.007-.598 1.132.13 2.466.197 2.509-.191h.006ZM156.666 129.842c12.95-1.269 13.682 3.961 17.384 8.858 3.707 4.897 12.784 3.955 16.953 3.296 1.42-.222 3.566-9.475 2.976-15-.437-4.097-.197-11.625-8.621-16.011-8.424-4.386-11.351-5.371-19.536-3.85-8.178 1.522-17.064 23.483-9.162 22.707h.006Z" fill="#363537"/><path d="M178.691 117.324c.775-8.057 8.652-14.914 12.723-11.538 4.071 3.376 7.877 12.967 5.768 14.433-2.109 1.467-14.807 3.709-14.807 3.709l-3.684-6.604Z" fill="#363537"/><path d="M183.642 124.144c-3.585 0-5.061-2.2-5.552-3.235-.861-1.805-.769-4.01.209-4.915a.741.741 0 0 1 1.002 1.09c-.344.32-.56 1.768.117 3.185.516 1.084 1.912 2.821 5.46 2.297a.745.745 0 0 1 .215 1.473c-.522.074-1.008.111-1.457.111l.006-.006Z" fill="#D9886B"/><path d="M137.478 135.324c4.323 5.624 6.014-9.678 18.03-6.752 4.691 1.14 1.008-6.917 5.478-10.041 4.465-3.123 11.585-10.109 3.837-11.119-7.747-1.01-18.238 3.475-21.152 8.267-1.298 2.132-3.979 4.978-4.366 8.822-.517 5.186-3.069 9.203-1.82 10.823h-.007Z" fill="#363537"/><path d="M151.945 158.567s1.347 3.104 4.938 3.295c3.591.191 4.237-3.265 4.237-3.265-3.161 1.078-5.897 1.3-9.175-.03Z" fill="#F1F2F2"/><path d="M161.568 144.521c-.627.234-1.261 1.244-.959 2.735.301 1.485 1.414 2.138 2.109 1.688.695-.45 1.193-2.532.756-3.4-.436-.869-1.506-1.171-1.912-1.017l.006-.006ZM147.506 144.546c-.615.258-1.212 1.293-.849 2.772.363 1.472 1.494 2.076 2.177 1.601.683-.48 1.088-2.575.621-3.425-.467-.85-1.556-1.109-1.949-.942v-.006Z" fill="#372313"/><path d="M170.604 123.816c-1.531-1.774-4.396-2.248-6.524-1.423-.516.204-.301 1.035.234.844 1.949-.696 4.175-.234 5.651 1.22.418.413 1.021-.203.639-.641ZM173.536 115.63c-2.613-.628-5.024-.32-7.422.868-.516.259-.061 1.029.455.777 2.214-1.078 4.335-1.245 6.733-.783.56.111.806-.727.24-.862h-.006ZM183.999 132.447c-1.537.505-3.456-1.121-3.394-2.698.024-.567-.836-.561-.873 0-.136 2.094 2.447 4.374 4.507 3.567.523-.21.32-1.054-.24-.869ZM148.075 120.244c-1.494-.142-2.994.357-3.867 1.638-.326.475-.486 1.017-.658 1.559-.252.795-.523 1.158-1.396 1.238-.566.056-.584.887 0 .9 1.291.018 1.925-.74 2.293-1.892.216-.677.419-1.287.966-1.786.725-.665 1.715-.844 2.669-.789.565.031.547-.819 0-.868h-.007ZM155.271 112.501c-.99-.253-1.654-.98-2.748-.844-1.021.129-1.833.844-2.46 1.614-.356.437.234 1.071.634.634.602-.647 1.346-1.423 2.318-1.331.719.068 1.309.641 2.023.783.553.111.793-.715.233-.856Z" fill="#251C16"/><path d="M163.09 169.495a.494.494 0 0 1 0-.986c4.304 0 7.889-.831 10.644-2.47a.491.491 0 0 1 .676.173.494.494 0 0 1-.172.677c-2.909 1.731-6.66 2.606-11.148 2.606Z" fill="#C48976"/><path d="M165.887 249.78c0-7.915 11.037-23.316 31.298-23.316 20.262 0 30.641 1.417 30.641 1.417v21.604l-61.939.295Z" fill="#7FCBB4"/><path d="M165.539 232.046a.744.744 0 0 1-.264-1.436c6.303-2.414 30.057-4.94 35.406-4.872.412 0 .738.338.732.751a.739.739 0 0 1-.738.733h-.012c-5.122-.074-28.833 2.464-34.853 4.774a.796.796 0 0 1-.264.05h-.007Z" fill="#539A85"/><path d="M67.112 236.69h92.955c5.467 0 9.906 4.448 9.906 9.925v1.54H67.105v-11.471l.007.006Z" fill="#7C8CAF"/><path d="M147.489 248.161H45.131l-6.727-76.208c-.387-2.199.572-4.226 2.773-4.226h95.883c1.709 0 3.179 1.244 3.48 2.957l6.949 77.477Z" fill="#7C8CAF"/><path d="M96.586 196.391c.27 4.226-2.68 7.854-6.592 8.106-3.91.253-7.305-2.963-7.582-7.189-.276-4.225 2.681-7.854 6.592-8.106 3.911-.253 7.305 2.963 7.582 7.189Z" fill="#DBDBDB"/><path d="M320.102 246.959H-74.902v16.208h395.004v-16.208Z" fill="#DCBFA3"/><path d="M250.477 208.791c-4.071-9.099-10.472-28.59-10.472-38.015s1.457-18.517 0-23.717c-1.457-5.199-9.636-39.918-6.451-52.688 1.987-7.959 2.669-2.353 2.669-2.353s12.803 20.279 14.254 28.398c1.451 8.12-.449 23.397 1.457 27.918 1.9 4.522 5.239 15.296 5.239 22.448v37.042l-6.69.973-.006-.006Z" fill="#C2E8D8"/><path d="M-25.16 229.095c-25.87 0-46.918-21.087-46.918-47.003 0-14.568 6.58-28.078 18.06-37.059a1.36 1.36 0 0 1 1.888.203l58.213 70.146a1.366 1.366 0 0 1-.148 1.898 46.804 46.804 0 0 1-31.102 11.809l.006.006Zm-28.207-81.068c-10.17 8.445-15.975 20.79-15.975 34.072 0 24.406 19.819 44.261 44.181 44.261a44.08 44.08 0 0 0 28.286-10.257l-56.492-68.076Z" fill="#9CA8D3"/><path d="M-25.167 219.7c20.733 0 37.54-16.837 37.54-37.608 0-20.77-16.807-37.608-37.54-37.608s-37.54 16.838-37.54 37.608c0 20.771 16.807 37.608 37.54 37.608Z" fill="#68CCEB"/><path d="M-3.191 190.933c1.076 1.078 1.02 3.074 2.263 1.835 1.236-1.238-.216-2.427 1.832-1.835 2.048.591 3.339-.647 3.339-2.483s.11-3.776-1.937-3.018c-2.048.757-3.339 1.293-4.63 1.94s-.861 3.561-.861 3.561h-.006ZM4.23 194.166c0-1.293.628-2.106 1.722-1.01 1.095 1.097 3.985 3.702 2.048 3.056-1.937-.647-3.763-2.052-3.763-2.052l-.007.006Z" fill="#DCF8C1"/><path d="M1.54 182.844c0-1.078 2.274-2.236 3.492-3.45 1.211-1.213.283-3.234 1.408-3.234s1.125-.326 1.125 1.294.861 3.776-.646 3.776c-1.506 0-1.721.647-2.687 1.62-.971.973-2.693 0-2.693 0v-.006Z" fill="#F3C55C"/><path d="M205.303 173.369c-.517 5.452-7.828 8.649-1.58 14.908 1.752 1.756 4.378 3.29 6.481 2.945 3.781-.623 6.831-5.187 6.592-7.522-.689-6.628-8.966-13.774-9.87-12.869-.904.906-1.445.697-1.623 2.538Z" fill="#F1BBA2"/><path d="M202.644 186.842a.345.345 0 0 1-.289-.16.332.332 0 0 1 .111-.462c2.3-1.417 5.11-4.479 5.657-6.943.541-2.451 1.525-6.271 1.537-6.308a.34.34 0 0 1 .412-.24.336.336 0 0 1 .24.413c-.012.037-.99 3.844-1.531 6.289-.59 2.68-3.493 5.853-5.964 7.374a.315.315 0 0 1-.179.049l.006-.012ZM204.421 188.887a.336.336 0 0 1-.068-.665c1.697-.333 5.356-3.666 6.026-5.237.713-1.669 2.195-6.708 2.195-7.299 0-.185.154-.339.339-.339.184 0 .338.154.338.339 0 .794-1.593 6.036-2.245 7.564-.688 1.614-4.452 5.23-6.518 5.631-.018 0-.043.006-.061.006h-.006ZM207.991 190.563a.338.338 0 0 1-.32-.228.338.338 0 0 1 .209-.432c2.214-.776 4.772-3.56 5.418-5.063.664-1.54 1.808-5.193 1.814-5.23a.338.338 0 1 1 .645.203c-.049.154-1.168 3.721-1.838 5.292-.683 1.595-3.351 4.577-5.817 5.439a.36.36 0 0 1-.111.019Z" fill="#C99565"/><path d="m31.57 247.515-33.157.098-.041-14.137 33.155-.099a2.309 2.309 0 0 1 2.313 2.303l.028 9.512a2.31 2.31 0 0 1-2.299 2.317v.006Z" fill="#6683C2"/><path d="m8.68 243.645-.02-6.339c0-.708-.497-1.287-1.112-1.287l-37.836.117a.108.108 0 0 1-.092-.062c-.338-.739-.326-1.558 0-2.439.019-.043.05-.068.092-.068l39.926-.123c.61 0 1.107.573 1.113 1.287l.037 11.563c0 .708-.492 1.288-1.107 1.294l-39.71.123c-.185 0-.35-.129-.412-.333-.21-.64-.191-1.3.006-1.983.061-.204.227-.339.412-.339l37.595-.111c.609 0 1.107-.579 1.107-1.294v-.006Z" fill="#92AEEA"/><path d="m-23.059 238.169-6.026.018c.11-.314.258-.314.43-2.513l37.073-.111c.136 0 .179.579.185.733l.024 8.692c0 .154-37.472.136-37.472.136-.295-2.095-.37-2.193-.468-3.099l3.61-.092-3.523.012c-.099 0-.056-2.285.092-3.425l6.075-.357v.006Z" fill="#E6E6E6"/><path d="m7.797 238.699.012 4.133.006.924-1.623-.456-1.617.469v-.924l-.013-4.134 3.235-.012Z" fill="#F3C55C"/><path d="M241.701 179.968c-1.064 8.211-8.959 13.755-17.119 12.462-8.16-1.294-13.731-8.976-12.433-17.15 1.291-8.175 8.959-13.756 17.119-12.456 8.159 1.299 13.226 11.02 12.439 17.15l-.006-.006Z" fill="#FCDCB5"/><path d="M264.395 211.674c1.967 18.431 2.398 36.499-22.241 36.499-18.786 0-23.797-13.879-22.764-35.107 1.014-20.84 7.096-42.469 18.447-37.042 12.581 6.013 24.565 17.052 26.558 35.65Z" fill="#FCDCB5"/><path d="M222.583 191.876a.707.707 0 0 1-.608-1.06c4.445-7.737 9.112-10.072 13.903-11.963 4.95-1.953 6.561-.918 6.837-.69l-.904 1.09s.013.013.037.025c-.012-.006-1.279-.758-5.448.887-4.544 1.793-8.977 4.01-13.196 11.353a.707.707 0 0 1-.615.358h-.006Z" fill="#9E614B"/><path d="m214.685 174.984-4.95-6.388c-.528-.684.019-1.67.874-1.583l7.926.8-3.85 7.171ZM233.112 164.863l-2.835-6c-.185-.518-.916-.512-1.095 0l-2.502 5.39 6.432.603v.007ZM226.094 213.128a4.804 4.804 0 0 1-4.181-4.959c.147-3.548-1.593-5.421-3.081-6.37-1.875-1.195-3.665-1.158-4.132-.942a4.796 4.796 0 0 1-5.829-7.614c3.437-2.662 8.983-2.779 13.804-.284 5.805 3 9.101 8.84 8.818 15.616a4.79 4.79 0 0 1-4.987 4.59c-.141 0-.277-.019-.412-.037ZM233.602 240.916c-1.009 0-17.427-.979-17.476 3.499-.055 4.479 2.103 3.678 8.117 3.678 6.014 0 15.477.055 15.477.055l-6.118-7.232Z" fill="#FCDCB5"/></g></g><defs><clipPath id="a"><path fill="#fff" d="M0 0h236v260H0z"/></clipPath><clipPath id="b"><rect x="-74" y="-18" width="394" height="281" rx="32" fill="#fff"/></clipPath></defs></svg>