<svg width="589" height="348" fill="none" xmlns="http://www.w3.org/2000/svg"><path d="M497.561 33.168H104.825c-12.144 0-21.97 10.582-21.97 23.633v267.064c0 13.051 9.826 23.683 21.97 23.683h392.736c12.144 0 21.97-10.632 21.97-23.683V56.801c0-13.051-9.826-23.633-21.97-23.633Zm15.873 288.782c0 11.54-9.574 20.811-21.365 20.811H110.267c-11.79 0-21.365-9.322-21.365-20.811V87.034c0-11.539 9.574-20.86 21.365-20.86h381.802c11.841 0 21.365 9.321 21.365 20.86V321.95Z" fill="#F37E60"/><path d="M513.438 87.033V321.95c0 11.539-9.574 20.811-21.365 20.811H110.271c-11.79 0-21.365-9.322-21.365-20.811V87.033c0-11.54 9.574-20.861 21.365-20.861h381.802c11.841 0 21.365 9.372 21.365 20.861Z" fill="#fff" fill-opacity=".56"/><path d="M163.076 50.15c0-2.168-1.663-3.931-3.679-3.931-2.015 0-3.678 1.763-3.678 3.93 0 2.167 1.663 3.93 3.678 3.93 2.066 0 3.679-1.763 3.679-3.93ZM144.533 50.15c0-2.168-1.663-3.931-3.679-3.931-2.015 0-3.678 1.763-3.678 3.93 0 2.167 1.663 3.93 3.678 3.93 2.016 0 3.679-1.763 3.679-3.93ZM125.943 50.15c0-2.168-1.663-3.931-3.679-3.931-2.015 0-3.678 1.763-3.678 3.93 0 2.167 1.663 3.93 3.678 3.93 2.066 0 3.679-1.763 3.679-3.93ZM398.747 54.08h84.201a3.936 3.936 0 0 0 3.93-3.93 3.936 3.936 0 0 0-3.93-3.931h-84.201a3.936 3.936 0 0 0-3.931 3.93 3.936 3.936 0 0 0 3.931 3.93Z" fill="#fff"/><path d="M467.279 86.682H134.457c-10.834 0-19.652 8.818-19.652 19.652v112.973c0 10.834 8.818 19.652 19.652 19.652h332.822c10.834 0 19.652-8.818 19.652-19.652V106.334c0-10.834-8.818-19.652-19.652-19.652ZM208.479 259.92h-74.022c-10.834 0-19.652 8.818-19.652 19.652v31.493c0 10.834 8.818 19.652 19.652 19.652h73.971c10.834 0 19.652-8.818 19.652-19.652v-31.493c.051-10.834-8.767-19.652-19.601-19.652ZM337.873 258.006h-74.022c-10.834 0-19.652 8.818-19.652 19.652v31.493c0 10.834 8.818 19.652 19.652 19.652h73.972c10.834 0 19.652-8.818 19.652-19.652v-31.493c.05-10.834-8.768-19.652-19.602-19.652ZM467.28 258.006h-74.023c-10.833 0-19.652 8.818-19.652 19.652v31.493c0 10.834 8.819 19.652 19.652 19.652h73.972c10.834 0 19.652-8.818 19.652-19.652v-31.493c.051-10.834-8.768-19.652-19.601-19.652Z" fill="#F37E60" fill-opacity=".08"/><path d="M293.924 181.013c-2.336 1.411-5.075-.706-5.115-3.931l-.121-16.176-.121-16.177c-.04-3.275 2.658-5.442 5.035-4.082l14.622 8.416 12.89 7.408c2.74 1.562 2.78 6.4.081 8.013l-12.769 7.76-14.502 8.769Z" fill="#F37E60"/><path d="M300.842 200.868c-22.02 0-39.908-17.888-39.908-39.909 0-22.02 17.888-39.908 39.908-39.908s39.909 17.888 39.909 39.908c0 22.021-17.889 39.909-39.909 39.909Zm0-77.046c-20.458 0-37.087 16.629-37.087 37.087 0 20.458 16.629 37.087 37.087 37.087 20.458 0 37.087-16.629 37.087-37.087 0-20.458-16.629-37.087-37.087-37.087ZM167.158 305.724c-1.359.722-2.882-.362-2.923-1.987l-.082-8.08-.083-8.081c0-1.625 1.524-2.708 2.882-2.031l8.358 4.198 7.369 3.702c1.565.767 1.565 3.205.041 4.017l-7.287 3.883-8.275 4.379Z" fill="#F37E60"/><path d="M171.44 317.667c-12.295 0-22.323-10.028-22.323-22.323s10.028-22.323 22.323-22.323 22.322 10.028 22.322 22.323-9.977 22.323-22.322 22.323Zm0-43.033c-11.439 0-20.71 9.322-20.71 20.71 0 11.438 9.322 20.71 20.71 20.71 11.438 0 20.71-9.322 20.71-20.71.05-11.438-9.272-20.71-20.71-20.71ZM296.599 304.075c-1.358.722-2.881-.361-2.923-1.986l-.082-8.081-.082-8.08c0-1.625 1.523-2.709 2.882-2.032l8.357 4.199 7.369 3.701c1.565.768 1.565 3.205.042 4.018l-7.287 3.882-8.276 4.379Z" fill="#F37E60"/><path d="M300.846 315.702c-12.295 0-22.323-10.028-22.323-22.323s10.028-22.322 22.323-22.322 22.323 10.027 22.323 22.322c0 12.346-9.978 22.323-22.323 22.323Zm0-43.033c-11.438 0-20.71 9.322-20.71 20.71 0 11.439 9.322 20.71 20.71 20.71 11.438 0 20.71-9.322 20.71-20.71.051-11.388-9.272-20.71-20.71-20.71ZM426.041 304.075c-1.359.722-2.882-.361-2.923-1.986l-.083-8.081-.082-8.08c0-1.625 1.523-2.709 2.882-2.032l8.357 4.199 7.37 3.701c1.564.768 1.564 3.205.041 4.018l-7.287 3.882-8.275 4.379Z" fill="#F37E60"/><path d="M430.241 315.702c-12.295 0-22.323-10.028-22.323-22.323s10.028-22.322 22.323-22.322 22.322 10.027 22.322 22.322c0 12.346-9.977 22.323-22.322 22.323Zm0-43.033c-11.439 0-20.711 9.322-20.711 20.71 0 11.439 9.323 20.71 20.711 20.71 11.438 0 20.71-9.322 20.71-20.71.05-11.388-9.272-20.71-20.71-20.71Z" fill="#F37E60"/><path d="M80.437 192.349s-4.233 23.734-10.38 25.396c-2.772.756-6.35.101-9.776-1.058-5.795-1.965-11.086-5.442-11.287-6.399l-5.846-17.838c3.377 1.461 22.625 12.446 24.187 13.454 2.57-3.83 8.063-13.756 8.264-14.512 0 0-1.209-5.342-.15-6.853.957-1.31 1.259 3.023 1.662 2.519.453-.604 2.973-6.802 4.686-4.988 3.729 4.132-1.36 10.279-1.36 10.279Z" fill="#FFC0B8"/><path d="M64.06 203.483c-.403 4.031-2.47 9.272-3.175 12.497-.1.503-.201.957-.252 1.31-5.795-1.965-12.748-2.621-12.95-3.578l-1.31-5.996-3.275-15.218c3.426 1.461 14.26 7.004 20.962 10.985Z" fill="#6683C2"/><path d="M60.887 215.978c-.1.504-.201.958-.252 1.31-5.795-1.965-12.748-2.62-12.95-3.577l-1.31-5.997 5.845-.806s1.865 4.183 2.117 6.097c.201 1.411 4.283 2.419 6.55 2.973Z" fill="#6D8CCF"/><path d="M41.592 293.834c-1.209 4.535-1.965 8.566-2.368 12.345-1.008 9.624-.756 24.489 1.008 33.912l4.938-.504s7.004-25.396 10.28-38.346c.856-3.275 1.511-6.248 1.864-8.466 2.016-12.647-5.392-48.525-5.845-50.843v-.151l-19.904-2.771c-10.582 25.144 1.965 31.493 10.027 54.824Z" fill="#FFC0B8"/><path d="M57.361 292.774c-.1.806-.352 2.872-.705 5.341-.403 3.427-.957 7.659-1.461 10.38a2.726 2.726 0 0 1-2.369 2.268c-.604.05-1.209.151-1.814.201-2.62.252-5.19.303-7.71-.05a20.323 20.323 0 0 1-4.182-1.058 2.753 2.753 0 0 1-1.763-2.923c.655-5.24 1.21-10.481 2.217-14.109-2.973-8.616-4.586-13.907-7.407-19.652-1.512-3.073-2.772-5.996-3.628-9.019-1.865-6.753-1.663-14.16 2.973-25.094l19.903 2.771V241.981c.504 2.268 7.912 38.145 5.946 50.793Z" fill="#F2C45B"/><path d="M52.126 245.255s-4.535 1.915-5.392 3.124c-.857 1.21.756 5.443-1.058 10.078-1.814 4.636-.958 8.869-2.167 15.369-.857 4.384-4.081 10.028-3.124 13.505.957 3.476 4.333 3.98 4.333 3.98s-3.779 1.814-3.779 4.031c0 2.218.605 4.536-.705 8.264-1.31 3.729.907 5.896 2.973 6.853.252.101.302.252.15.454a20.388 20.388 0 0 1-4.181-1.058 2.753 2.753 0 0 1-1.764-2.923c.655-5.24 1.21-10.481 2.217-14.109-2.973-8.617-4.585-13.907-7.407-19.652-1.512-3.074-2.772-5.996-3.628-9.02 2.015-9.12 3.83-17.434 4.03-18.845.505-3.276 17.234-2.066 17.234-2.066l2.268 2.015Z" fill="#FACE69"/><path d="M20.727 345.884 8.583 331.826s8.919-13.908 16.124-23.179c1.713-2.218 3.326-4.132 4.686-5.594 9.877-10.229 15.017-61.727 15.017-61.727H28.134c-12.8 11.741-9.574 27.966-9.927 43.94-.151 5.543-1.915 10.884-4.888 15.57a87.165 87.165 0 0 0-1.713 2.872c-3.729 6.803-5.946 14.815-7.962 27.916l-2.519 8.516 19.602 5.744Z" fill="#FFC0B8"/><path d="M45.672 241.125s-3.326 38.699-10.028 53.111c-.1.151-.201.453-.403.755-1.512 2.772-6.248 10.582-8.566 14.059a2.989 2.989 0 0 1-2.973 1.26c-1.16-.252-2.52-.706-3.83-1.31a38.224 38.224 0 0 1-4.938-2.621h-.05c-.807-.503-1.613-1.007-2.218-1.461a2.918 2.918 0 0 1-.957-3.628c1.915-3.93 5.14-10.128 5.29-11.791 1.513-15.369-2.62-36.835 9.726-48.223h2.066l12.446-.151h4.434Z" fill="#F2C45B"/><path d="m41.288 241.176 3.426 5.089c.1 1.109-10.682 3.527-16.175 2.52-5.29-.958-8.213 3.376-7.357 11.791.857 8.364.403 8.516-.856 15.167-1.26 6.651-1.915 12.043 2.418 14.361-.252-.101-4.434-1.612-4.988 2.318-.555 4.031-4.334 8.012-3.93 10.834.352 2.418.906 3.073 1.057 3.174-.806-.504-1.612-1.008-2.217-1.461a2.918 2.918 0 0 1-.957-3.628c1.915-3.931 5.14-10.128 5.29-11.791 1.513-15.369-2.62-36.835 9.726-48.223h2.066l12.497-.151Z" fill="#FACE69"/><path d="M54.088 242.585a3.313 3.313 0 0 1-2.771 2.922c-3.73.655-7.61.958-11.59.958-4.384 0-8.919-.353-13.504-1.058a2.702 2.702 0 0 1-1.36-.555 3.077 3.077 0 0 1-1.361-2.217c-.958-6.399-3.477-24.237-3.628-34.517-.05-1.914 0-3.577.201-4.887.555-4.284 3.93-10.431 11.942-12.547l7.156.05c12.244 2.62 14.31 19.4 14.109 25.951-.05 3.023 0 6.046.151 8.969.202 4.888.605 9.473.706 12.95.05 1.562.05 2.923-.05 3.981Z" fill="#6683C2"/><path d="M54.137 238.605c-1.965-1.21-4.737-2.419-7.962-2.57-5.392-.252-15.217-5.19-15.923-8.919-.756-3.729-2.52-1.159-4.787-4.837-2.267-3.679-2.066-12.648-2.066-12.648l15.218 2.771s1.814 3.578 3.023 5.694c.907 1.613 8.365 5.745 11.791 7.609.252 4.888.655 9.423.706 12.9Z" fill="#6D8CCF"/><path d="M45.772 338.174c5.745 2.217 11.993 2.57 14.915 5.593 1.36 1.461.303 3.83-1.713 3.779l-18.493-.655a2.26 2.26 0 0 1-2.167-2.368c.101-2.116.605-4.283 1.512-6.349 1.915.756 3.88.806 5.946 0ZM8.636 331.825c4.938 4.384 11.842 7.71 13.303 12.346.504 1.612-1.058 3.174-2.67 2.62l-17.587-5.896c-1.21-.403-1.915-1.612-1.612-2.821.554-2.57 2.116-5.694 3.729-7.357 1.36 1.36 3.023 1.663 4.837 1.108Z" fill="#52699A"/><path d="M36.953 184.438c-2.318.705-3.275 1.864-6.248.554-4.535-2.066-8.365-9.927-2.369-13.454.404-1.26.857-1.713 2.42-2.066 1.612-.353 3.224.353 5.39.302 2.167-.05 5.292-2.318 7.206.907 1.915 3.175-2.821 5.644-5.19 7.256-2.368 1.512-1.612 4.183-1.209 6.501Z" fill="#727272"/><path d="M31.914 190.74c2.62 2.62 5.09 3.124 7.256.05l-.605-5.039-.252-2.116H32.52l-.101 1.31-.504 5.795Z" fill="#FFC0B8"/><path d="M32.32 185.848c1.411 1.714 5.342 2.217 6.4 1.462l-.454-3.729-5.794-2.419-.152 4.686Z" fill="#EDA89F"/><path d="M41.24 173.504c1.059 2.973 2.117 9.624-.453 12.093-1.612 1.562-7.458.957-8.617-3.326-1.41-1.007-2.418-3.527-1.159-4.635.907-.807 2.117 1.31 3.73.957.604-.151-1.26-4.233.654-4.938 1.915-.706 3.93.856 5.845-.151Z" fill="#FFC0B8"/><path d="M35.24 295.045c-1.512 2.771-6.248 10.582-8.566 14.059a2.986 2.986 0 0 1-2.973 1.259c-1.16-.252-2.52-.705-3.83-1.31.1-.201 2.52.403 4.283-.101 4.485-1.31 2.167-6.601 2.167-6.601 3.174.857 8.566-6.853 8.919-7.306ZM56.66 298.117c-.404 3.427-.958 7.659-1.462 10.38a2.726 2.726 0 0 1-2.368 2.268c-.605.05-1.21.151-1.814.202.201-2.167 3.376-1.361 3.728-7.105.152-2.369-1.814-3.628-1.814-3.628 1.26 0 2.822-.907 3.73-2.117Z" fill="#FACE69"/><path d="M206.063 107.894 60.286 122.356c-4.485.454-7.76 4.737-7.306 9.574l9.825 99.116c.504 4.838 4.536 8.415 9.02 8.012l145.827-14.462c4.485-.453 7.76-4.736 7.307-9.624l-9.826-99.116c-.504-4.838-4.535-8.415-9.07-7.962Zm16.528 106.625c.403 4.283-2.772 8.062-7.156 8.515L73.69 237.093c-4.384.454-8.264-2.671-8.667-6.954l-8.617-87.174c-.403-4.283 2.771-8.112 7.155-8.515l141.746-14.059c4.384-.454 8.264 2.67 8.717 6.954l8.567 87.174Z" fill="#7FCBB4"/><path d="m213.978 127.345 8.616 87.174c.403 4.283-2.771 8.062-7.155 8.516L73.693 237.094c-4.384.453-8.264-2.671-8.667-6.954l-8.616-87.174c-.404-4.283 2.77-8.113 7.155-8.516l141.746-14.059c4.333-.453 8.213 2.671 8.667 6.954ZM82.557 126.491c-.1-.806-.756-1.411-1.512-1.31-.755.05-1.31.806-1.209 1.612.1.807.756 1.411 1.512 1.31.705-.05 1.26-.806 1.21-1.612ZM75.655 127.196c-.101-.806-.756-1.411-1.512-1.31-.756.05-1.31.806-1.21 1.612.101.807.757 1.411 1.512 1.311.756-.101 1.26-.807 1.21-1.613ZM68.752 127.85c-.1-.806-.755-1.41-1.511-1.31-.756.051-1.31.807-1.21 1.613.101.806.756 1.411 1.512 1.31.756-.051 1.31-.806 1.21-1.613ZM170.186 119.285l31.241-3.074c.807-.101 1.411-.806 1.311-1.613-.101-.806-.807-1.41-1.613-1.31l-31.241 3.074c-.807.101-1.411.806-1.311 1.613.051.806.807 1.41 1.613 1.31Z" fill="#fff"/><path d="M134.617 194.147c-1.836 1.294-4.257-.048-4.466-2.541l-1.169-12.273-1.169-12.273c-.25-2.493 1.837-4.363 3.882-3.548l12.606 5.034 11.187 4.41c2.337.911 2.713 4.603.584 6.089l-10.018 7.096-11.437 8.006Z" fill="#7FCBB4"/><path d="M142.624 210.544c-17.536 1.763-33.257-11.137-34.97-28.672-1.764-17.536 11.136-33.257 28.671-34.97 17.536-1.764 33.257 11.136 34.971 28.671 1.763 17.536-11.086 33.257-28.672 34.971Zm-6.097-61.375c-16.326 1.613-28.269 16.175-26.656 32.501 1.612 16.327 16.175 28.269 32.501 26.656 16.326-1.612 28.268-16.175 26.656-32.501-1.612-16.326-16.175-28.268-32.501-26.656Z" fill="#7FCBB4"/><path d="M22.89 207.161s3.125 9.524 7.005 15.621c.907 1.462 1.864 2.671 2.872 3.578 6.702 6.097 25.85 10.934 25.85 10.934 4.585 5.191 12.496 6.299 14.814 4.687 4.032-2.873-6.802-2.923-6.752-5.594 0 0 5.24-.655 4.737-2.821-.504-2.218-9.877-.555-9.877-.555-7.91-5.593-14.058-9.171-20.407-14.21a71.109 71.109 0 0 0-.807-3.124c-2.066-7.508-5.039-14.713-10.531-20.911-5.14 2.973-6.752 7.357-6.903 12.395Z" fill="#FFC0B8"/><path d="M41.69 215.477c-.655 1.008-2.822 2.469-5.29 3.829-.102.051-.202.152-.353.202-2.923 1.562-6.198 2.822-7.962 2.822-3.326-5.291-9.272-19.299-3.275-25.296.907-.907 2.116-1.663 3.628-2.167 7.91-2.569 11.186 13.102 13.252 20.61Z" fill="#6683C2"/><path d="M36.093 219.46c-2.922 1.562-6.198 2.822-7.961 2.822-3.326-5.291-9.272-19.299-3.276-25.296-.05.353-1.763 9.222.353 11.439 2.167 2.267.403 3.981 2.268 7.508 1.763 3.325 5.694 4.988 8.616 3.527Z" fill="#6D8CCF"/><path d="m525.877 192.55-7.861 6.047-.554.403s-.857-.958-2.116-2.419a189.487 189.487 0 0 1-3.679-4.333c-3.275-3.981-6.954-8.617-7.961-11.086-2.419-5.644-1.311-20.206-1.311-20.206-3.023-2.621-4.081-6.702-2.116-10.129 1.31-2.317 2.469 4.787 4.434 5.745 0 0 2.117-5.291 2.822-3.275.857 2.317-1.008 7.104-1.008 7.104l5.039 16.679 6.198 6.702 8.113 8.768Z" fill="#FFC0B8"/><path d="M537.071 55.237 401.17.566c-4.182-1.713-9.07.605-10.884 5.14l-37.187 92.414c-1.814 4.535.1 9.574 4.283 11.237l135.9 54.673c4.183 1.713 9.07-.605 10.884-5.14l37.188-92.415c1.864-4.484-.05-9.523-4.283-11.237Zm-34.668 102.14c-1.613 3.981-6.198 5.896-10.28 4.233l-132.171-53.161c-4.082-1.663-6.098-6.198-4.485-10.179l32.703-81.278c1.612-3.98 6.198-5.896 10.279-4.233L530.571 65.92c4.081 1.663 6.097 6.198 4.484 10.179l-32.652 81.278Z" fill="#7FCBB4"/><path d="m535.101 76.1-32.703 81.278c-1.612 3.981-6.198 5.896-10.279 4.233L359.947 108.45c-4.082-1.663-6.097-6.198-4.485-10.179l32.703-81.278c1.613-3.98 6.198-5.895 10.28-4.233l132.121 53.161c4.132 1.663 6.097 6.198 4.535 10.179ZM418.957 14.573c.302-.756 0-1.613-.706-1.865-.705-.302-1.512.101-1.814.857-.302.756 0 1.613.706 1.864.705.252 1.511-.15 1.814-.856ZM412.558 11.952c.302-.756 0-1.613-.705-1.865-.706-.302-1.512.101-1.814.857-.303.756 0 1.612.705 1.864.706.303 1.512-.1 1.814-.856ZM406.105 9.383c.302-.755 0-1.612-.706-1.864-.705-.302-1.511.1-1.814.857-.302.755.001 1.612.706 1.864s1.512-.1 1.814-.857ZM499.985 48.74l29.125 11.74a1.466 1.466 0 0 0 1.915-.806 1.466 1.466 0 0 0-.807-1.915l-29.125-11.74a1.466 1.466 0 0 0-1.915.805 1.466 1.466 0 0 0 .807 1.915Z" fill="#fff"/><path d="M433.577 98.176c-2.192.192-3.793-2.294-2.993-4.588l3.962-11.473 3.962-11.472c.8-2.294 3.456-2.868 4.931-1.1l9.272 11.138 8.176 9.8c1.728 2.055.547 5.497-1.939 5.688l-11.843.908-13.528 1.1Z" fill="#7FCBB4"/><path d="M433.316 116.864c-16.376-6.601-24.338-25.245-17.737-41.622 6.601-16.377 25.245-24.338 41.622-17.737 16.377 6.601 24.338 25.245 17.737 41.622-6.551 16.376-25.245 24.338-41.622 17.737Zm23.028-57.243c-15.217-6.097-32.551 1.26-38.648 16.478-6.098 15.217 1.259 32.551 16.477 38.648 15.218 6.098 32.552-1.259 38.649-16.477 6.147-15.167-1.26-32.551-16.478-38.649Z" fill="#7FCBB4"/><path d="m525.886 192.551-5.996 7.458-4.535-3.427s-5.493-4.182-5.039-4.787c1.461-1.965 4.585-7.508 6.046-9.524l9.524 10.28Z" fill="#6683C2"/><path d="M583.982 307.538c-.302-3.175-1.159-8.314-2.419-8.768-1.41-.504-11.136 2.923-18.694 4.888-7.105 1.864-16.881 4.484-20.861 1.26-4.586-3.729-18.292-33.106-21.113-49.584 4.938-2.721 9.876-5.341 14.864-8.012 23.684 20.206 9.524 31.443 16.075 47.669 14.713-2.923 23.532-2.318 30.586-2.52.101-.05 1.764-.1 3.124.101 1.008 4.031 3.326 12.95-1.562 14.966Z" fill="#FFC0B8"/><path d="M582.473 292.522c1.965-.454 3.98-.303 5.895.101.353.05.303.201.303.453-.051.957-.202 2.066-.303 3.074 0 .201 0 .201-.252.353-.604.352-.655.907-.453 1.814.504 2.519-.151 7.961-.857 9.876-2.368 6.601-3.426-2.217-3.477-4.888 3.679-4.182 2.117-6.903-.856-10.783Z" fill="#6683C2"/><path d="M536.213 339.284c.655 3.679 0 3.679-1.613 5.593-5.593.555-10.783.907-13.202-1.511 3.326-1.613 6.198-4.435 8.264-6.097-.151-8.264-6.198-28.168-7.962-32.552-.957-2.268-2.317-5.19-2.569-7.659-1.663-18.745-.051-40.362 2.872-58.15h16.074c8.717 19.199-7.105 33.207-5.694 59.863 1.814 5.341 3.124 10.683 3.93 15.923 1.159 7.962-1.209 18.14-.1 24.59Z" fill="#FFC0B8"/><path d="M536.359 340.293c.857 3.326.353 5.291-.403 7.155h-3.88s-.655-1.562-1.461-1.259c-3.83 1.461-11.137 2.317-12.295.453-1.059-1.663 4.787-3.981 4.787-3.981 1.713 2.772 5.996 1.512 13.252-2.368Z" fill="#52699A"/><path d="M564.579 280.281c-1.008 3.376-3.628 6.449-8.617 4.938 0 0-1.461 7.306-9.423 3.426-2.015 1.663-4.132 2.772-6.298 3.376-3.276.857-6.702.504-10.33-1.108-6.652 5.845-12.295-.554-12.295-.554-4.082 1.562-9.221-2.772-9.221-2.772 1.41-18.694 8.263-33.811 7.659-48.021-.051-.605-.051-1.159-.101-1.764l2.167-.453 9.07-1.915 10.481-2.217c5.946 5.492 8.566 16.578 12.648 26.958 3.124 8.012 7.155 15.671 14.26 20.106Z" fill="#F2C45B"/><path d="M529.864 290.857c-6.651 5.845-12.295-.554-12.295-.554-4.082 1.562-9.221-2.772-9.221-2.772 1.411-18.694 8.264-33.811 7.659-48.021.756-.806 1.461-1.562 2.066-2.217 1.461-1.562 2.368-2.52 2.368-2.52l6.702.605 6.45.554-5.997 11.338s-7.81.857-9.12 6.097c-1.31 5.241 1.411 5.039-.605 9.826-2.015 4.787-6.752 14.865-3.023 20.005 3.779 5.19 15.369 4.787 15.016 7.659Z" fill="#FACD65"/><path d="m512.578 195.676-2.217 14.059s-1.058-.756-2.771-2.016l4.182-12.748c.252.252.504.453.806.705Z" fill="#FFC0B8"/><path d="M542.407 237.443c-5.996-20.761-2.57-30.738-13.605-42.025-2.419 2.771-6.047 2.973-16.225.202l-2.218 14.058c4.737 7.256 10.733 11.287 8.315 27.714h23.733v.051Z" fill="#3E3279"/><path d="M527.949 190.583c-1.259 4.988-3.728 7.256-7.054 6.853v-.152l-.151-5.089-.151-4.182-.152-5.14 6.198 2.016.555 2.418.755 3.276Z" fill="#FFC0B8"/><path d="M527.947 190.586c-1.26 4.989-3.729 7.256-7.055 6.853v-.151c1.109-.957 3.326-5.24 2.318-4.989-.806.202-1.965.001-2.469-.1l-.151-4.183c.302-.05.504-.1.554-.1.202-.051 4.031-.404 6.047-.555l.756 3.225Z" fill="#F0AFA8"/><path d="m513.483 196.933-3.124 12.748c-6.399-2.62-19.148-9.675-22.373-14.109-4.736-6.601-9.876-30.738-9.876-30.738-3.024-2.217-6.551-7.205-5.09-11.438 1.411-4.132 3.83 3.275 7.105 4.837 0 0 2.419-6.298 2.822-1.814.403 4.485-.504 7.156-.504 7.156 3.124 6.046 7.71 14.965 11.943 23.683 4.938 3.426 14.865 7.205 19.097 9.675Z" fill="#FFC0B8"/><path d="M544.424 242.235c0 1.713-4.837 3.376-10.632 4.333-8.818 1.462-19.854 1.26-18.997-3.225 2.167-11.337 1.31-23.985-1.36-27.613l-.051-.05a11.233 11.233 0 0 0-1.058-1.21l-.05-.05c-2.218-2.318-5.896-5.09-7.76-6.702 1.511-4.485 3.628-8.566 7.407-13.353 4.333 2.015 9.221 2.67 9.221 2.67 2.62.404 7.458-3.93 6.752-6.5a30.049 30.049 0 0 1 3.477 4.182c2.671 3.83 4.535 8.063 5.997 12.799 1.914 6.047.705 11.993 2.519 19.552.302 1.159.605 2.368 1.008 3.476 1.562 4.838 3.527 9.121 3.527 11.691Z" fill="#6683C2"/><path d="M540.895 230.593c-1.26-1.512-2.772-3.477-3.578-5.14-1.562-3.275.202-11.086-.605-13.101-.755-2.016-1.814-1.613-2.721-4.132-.907-2.57-5.593.554-9.825-1.26-4.284-1.814-3.125-5.493-3.125-5.493l10.381-6.701c2.67 3.829 4.535 8.062 5.996 12.799 1.915 6.046.705 11.992 2.519 19.551.252 1.159.605 2.318.958 3.477ZM533.79 246.569c-8.818 1.461-19.853 1.26-18.997-3.225 2.167-11.338 1.31-23.986-1.36-27.614l-.051-.05a11.323 11.323 0 0 0-1.058-1.209c.403.403 4.888 4.585 7.609 5.039-.453-.101-4.132-.303-3.527 2.57.655 3.174 3.124 6.752 2.267 10.632-.856 3.88-2.066 8.213 2.318 9.574 4.384 1.36 14.613 1.763 12.799 4.283Z" fill="#6C8DD5"/><path d="M519.277 172.594c-1.36 2.418-4.283 11.892-2.066 16.225 2.167 4.334 11.741 2.217 11.741 2.217l-.454-14.159-9.221-4.283Z" fill="#FFC0B8"/><path d="M519.081 170.126c-2.016 1.26-3.024 4.334-1.159 7.559 1.864 3.275 4.888.705 5.795 2.721.907 2.015-2.873 4.837-.152 9.07 3.377 5.341-6.399 8.566-1.814 15.117 2.268 3.225 7.408-.605 12.951 1.663 7.004 2.821 11.035-3.578 7.709-8.516-3.023-4.485-7.508-5.795-5.291-10.632 3.326-7.206-1.108-11.792-4.686-12.144-3.578-.303-5.845-9.524-13.353-4.838Z" fill="#727272"/><path d="M564.58 280.277c-1.007 3.376-3.628 6.45-8.616 4.938 0 0-1.462 7.307-9.423 3.427-2.016 1.663-4.132 2.771-6.299 3.376.806-7.155 10.632-3.124 10.985-6.047.706-6.046 11.388-2.318 5.795-7.659-5.896-5.694-5.744-15.066-5.744-15.066l-1.311-3.326c.051 0 .152.101.353.201 3.124 8.063 7.155 15.722 14.26 20.156Z" fill="#FACD65"/><path d="M343.371 324.926s15.823 2.318 15.52 2.167c-.252-.152-28.923 14.562-28.923 14.562l-28.269-12.648 14.009-4.081h27.663Z" fill="#496093"/><path d="M338.181 345.986h.403c4.585-.101 7.558-.353 7.558-.353s.202.05.605.101c3.93.655 23.431 3.174 23.028-3.981-.202-4.081-14.412-5.543-19.451-4.737h-.05c-1.26.202-2.016.404-2.016.404s-2.569-1.008-6.55-2.369c-.151-.05-.353-.101-.504-.201-13.253-4.586-41.068-13.102-47.971-7.055-.101.051-.151.151-.201.202-.051.05-.152.151-.202.252-.05.05-.101.151-.151.201 0 0-.051.051-.051.101-.05.101-.151.202-.201.302-.051.101-.151.252-.202.353-.05.101-.1.252-.151.353a4.283 4.283 0 0 0-.252.856c-.05.303-.101.605-.101.857a7.64 7.64 0 0 0 0 1.512c.958 12.799 31.595 13.605 46.46 13.202Z" fill="#FFC0B8"/><path d="m337.979 347.497.453-1.512.202-.655 3.023-10.279.454-1.461c-13.253-4.586-41.874-12.094-48.878-5.795-.101.05-.151.151-.201.201-.051.051-.152.152-.202.252-.05.051-.101.151-.151.202 0 0-.051.05-.051.101-.05.1-.151.201-.201.302-.051.101-.151.252-.202.353-.05.101-.1.252-.151.352a4.293 4.293 0 0 0-.252.857c-.05.302-.101.605-.101.857a7.63 7.63 0 0 0 0 1.511c.907 12.951 31.393 15.117 46.258 14.714Z" fill="#6683C2"/><path d="M316.21 301.746c4.384 6.198.454 23.079.454 23.079h29.528c-.806-1.159-3.124-15.722 2.066-23.784 8.365-12.95-.655-23.028-.655-23.028l-12.295-2.217-.806-3.931-.555-2.67-.151-.605h-5.543l-.201 1.159-.454 2.57-.655 3.779-11.287 2.469c.151-.05-9.473 9.02.554 23.179Z" fill="#FFC0B8"/><path d="M346.244 324.822c-.706-1.008-2.469-11.69.201-19.803-5.845-1.713-4.837 14.462-14.562 19.803h14.361Z" fill="#C4626E"/><path d="M300.19 314.595c.302 1.914 1.663 3.98 3.628 6.046 5.089 5.241 15.52 4.989 22.625 6.904l.755-3.78s-12.748-3.577-15.469-8.062c-.302-.453-.504-.907-.554-1.31-.907-4.434 4.232-10.028 4.232-10.028l.555-25.849c-.051 0-17.334 26.353-15.772 36.079ZM335.868 323.816l-.152 2.519c-.252-.1-.201-.403.051-.453 6.349-1.31 16.78.504 21.869-3.83 3.124-2.67 4.837-5.946 5.24-8.465 1.562-9.725-15.318-35.575-15.318-35.575l.605 25.799s5.139 5.543 4.232 10.028c-.151.806-.806 1.763-1.713 2.821-3.779 4.485-14.814 7.156-14.814 7.156Z" fill="#FFC0B8"/><path d="M316.264 301.746c4.384 6.198.453 23.078.453 23.078h29.529c-.706-.957-2.47-11.69.201-19.803.454-1.411 1.058-2.771 1.865-3.93 8.364-12.95-.656-23.028-.656-23.028l-9.825-1.764-2.47-.453c-.453 5.845-7.155 5.391-8.263.302l-3.125.655-8.163 1.764c0-.051-9.624 9.019.454 23.179Z" fill="#F2C45B"/><path d="M299.994 314.595c.353 1.814 1.411 4.081 3.225 6.046a.61.61 0 0 0 .756.101l2.166-1.411 5.745-3.729a3.215 3.215 0 0 1-.504-1.36c-.907-4.434 7.306-11.338 7.306-11.338l-1.965-24.539c-2.67-.101-7.004 5.945-10.632 13.403v.051c-3.981 8.011-7.004 17.636-6.097 22.776ZM352.393 313.843c-.151.807-1.26 1.462-2.167 2.57l5.342 4.435 2.167 1.763c3.124-2.671 4.988-6.097 5.643-8.566 1.058-3.779-.453-10.28-3.023-16.729v-.051c-3.88-9.725-10.078-19.299-13.303-19.4l-1.864 26.203s8.163 5.341 7.205 9.775Z" fill="#F2C45B"/><path d="M299.336 342.761c0 6.853 19.753 3.527 19.753 3.527s3.073.202 7.709.303h.252c6.752.151 16.78 0 25.749-1.361 11.036-1.663 20.559-5.24 20.761-12.496v-.051c0-.302 0-.604-.051-.907-.05-.302-.05-.655-.151-.957-.05-.303-.151-.554-.252-.857-.05-.101-.101-.252-.151-.353-.05-.1-.151-.251-.202-.352-.05-.101-.151-.202-.201-.303 0-.05-.05-.05-.05-.1a.69.69 0 0 0-.152-.202c-.05-.101-.151-.151-.201-.202-.806-.806-2.016-1.36-3.477-1.763-9.977-2.469-33.005 4.736-44.696 8.818-.151.05-.403.05-.503.202-3.679 4.686-24.137-.756-24.137 7.054Z" fill="#FFC0B8"/><path d="m318.129 336.315 1.663 11.64c6.147.151 22.423 0 30.687-1.311 12.043-1.914 22.978-5.946 23.129-13.857v-.05c0-.302 0-.605-.051-.907-.05-.302-.05-.655-.151-.957-.05-.303-.151-.555-.252-.857-.05-.101-.101-.252-.151-.353-.05-.101-.151-.252-.201-.353-.051-.1-.152-.201-.202-.302 0-.05-.05-.05-.05-.101a.698.698 0 0 0-.152-.201c-.05-.101-.151-.151-.201-.202-.857-.856-2.116-1.511-3.628-1.915-10.28-2.821-38.8 5.694-50.44 9.726Z" fill="#6683C2"/><path d="M310.82 302.046v24.237a2.366 2.366 0 0 0 2.369 2.369h37.137a2.365 2.365 0 0 0 2.368-2.369v-24.237a2.365 2.365 0 0 0-2.368-2.368h-37.137a2.365 2.365 0 0 0-2.369 2.368Z" fill="#BEC4F2"/><path d="M335.462 314.141a3.666 3.666 0 0 0-3.678-3.678 3.667 3.667 0 0 0-3.679 3.678 3.667 3.667 0 0 0 3.679 3.679c2.015.05 3.678-1.613 3.678-3.679Z" fill="#C9CFFF"/><path d="M327.754 272.267c.756.403 1.612 1.159 2.822 1.159 1.763.05 3.98-1.562 3.98-1.562l-.554-2.671h-1.915l-3.325.202-.605.353-.403 2.519Z" fill="#E2978D"/><path d="M310.82 302.046v24.237a2.366 2.366 0 0 0 2.369 2.369h37.137a2.365 2.365 0 0 0 2.368-2.369c-37.591 1.714-41.874-3.779-39.505-26.605a2.365 2.365 0 0 0-2.369 2.368Z" fill="#C9CFFF"/><path d="M299.994 314.598c.353 1.814 1.411 4.082 3.225 6.047a.61.61 0 0 0 .756.101l2.166-1.411c-1.158-2.016-2.821-3.578-3.628-6.651-2.116-8.264 3.225-20.156 3.528-20.862-3.931 8.012-6.954 17.637-6.047 22.776Z" fill="#FFDC8C"/><path d="M339.845 261.889s3.83-7.659-.907-10.985c-2.318-7.205-12.698-2.217-16.729-2.771-.857-.101-1.663.353-1.915 1.209-.554 2.066.806 4.233.605 6.954-.101 1.058-.756 2.016.453 4.182 1.26 2.167 18.493 1.411 18.493 1.411Z" fill="#6E6E6E"/><path d="M338.435 260.122s2.469-2.066 2.52.101c.05 2.57-3.125 4.233-3.125 4.233s-1.36 7.86-8.011 7.357c-6.602-.504-7.105-8.516-7.105-8.516s-3.427-1.21-2.419-4.183c.453-1.41 2.167.202 2.167.202l.201-2.721c.051-.454.504-.806.958-.706.856.202 2.418.303 4.635-.453 2.671-.907 3.78-2.519 5.997-2.217 2.419.252 4.535 3.326 4.182 6.903Z" fill="#FFC0B8"/><path d="M324.02 276.754c.604 2.57 2.267 5.694 6.903 5.694 5.24 0 6.601-3.729 6.903-6.198l-2.469-.453c-.453 5.845-7.155 5.392-8.264.302l-3.073.655Z" fill="#fff"/><path d="M335.211 253.624s0 4.384 3.175 6.501l.957-2.621s0-2.822-.201-2.872c-.151-.05-2.671-2.419-2.772-2.469-.1-.05-3.829 0-3.829 0s-10.834 2.318-10.834 2.419c0 .1.605 4.736.605 4.736s.907-2.166 2.872-1.965c5.744.554 8.969-.705 10.027-3.729Z" fill="#6E6E6E"/></svg>