<svg width="324" height="234" fill="none" xmlns="http://www.w3.org/2000/svg"><path d="M180.119 4.869c1.449-.152 2.912-.334 4.37-.299 2.854.07 7.022 1 9.666 2.1 5.66-4.078 11.922-7.64 19.166-6.43 4.127.69 8.328 3.149 10.752 6.587.667.946 1.223 2.123 2.002 2.967 1.542 1.67 3.767 2.811 5.484 4.322 5.199 4.575 8.484 10.163 11.183 16.466 1.349 4.474 2.231 8.913 2.435 13.59a70.563 70.563 0 0 1-.027 6.307c-.139 3.047-.75 6.09.376 9.022 2.617 6.815 9.397 10.324 14.694 14.785 2.74 2.307 5.135 4.889 6.944 7.998 1.393 2.394 2.335 4.994 2.517 7.771a18.989 18.989 0 0 1-2.298 10.251c-1.333 2.483-3.057 4.739-5.269 6.498-.198-.327-.312-.642-.444-.998 3.074-1.813 5.51-6.44 6.41-9.797 2.301-8.585-2.186-15.738-8.593-21.128-3.657-3.076-7.715-5.577-11.017-9.08-1.636-1.737-2.771-3.762-3.946-5.819.527 2.26 1.174 4.36 2.449 6.324 1.968 3.031 4.855 5.07 7.67 7.24 5.282 4.074 9.311 9.321 10.413 16.033.99 6.023-.063 10.918-3.569 15.856-.854-.715-3.061-4.56-4.092-5.884.551-1.808 1.153-3.653 1.436-5.526 1.156-7.652-2.265-12.914-7.917-17.636-2.138-1.788-4.688-3.6-6.222-5.95-.911-1.393-1.294-2.932-1.845-4.48l-.263-.208.126.013-.2.08c-.138.644.105 1.375.261 2.008 1.278 5.171 6.865 7.855 10.418 11.375 1.648 1.633 2.99 3.479 3.933 5.604 2.098 4.73 1.541 9.314-.292 14.028-1.32-1.555-2.732-3.352-4.499-4.413-4.695-2.776-11.097-3.824-16.462-2.874-.13-.889.06-1.633-.342-2.48.34-3.722-.061-7.012-1.21-10.566.144-.96-.524-2.287-1.009-3.098-1.226-2.051-3.238-3.83-5.584-4.402 3.039-1.408 5.865-3.178 7.44-6.254 1.115-2.176 1.422-4.736.619-7.072-.427-1.24-1.215-2.48-2.44-3.054-2.408-1.127-5.589.894-7.84 1.685-6.936 2.438-14.33-.792-19.584-5.362-1.244-1.082-2.928-3.316-4.306-3.966-.097-.996-1.721-2.523-2.398-3.308-1.384.052-2.752.092-4.137.036 1.319-.205 2.682-.152 4.015-.157-5.365-8.196-7.363-13.025-10.211-22.272-7.332 3.373-16.795 9.16-21.623 15.64-1.437 1.927-2.459 4.074-3.295 6.32-3.028 8.138-3.854 18.018-3.138 26.62-.441 1.273-1.855 2.517-2.782 3.485-3.338 3.486-7.216 6.348-11.217 9.022-2.713 1.814-13.799 7.534-15.058 9.425-2.956.795-5.987 2.189-8.581 3.823-.361-5.61.955-9.068 4.693-13.353 8.827-10.118 21.377-11.861 28.411-25.068.941-1.767 1.9-3.598 1.763-5.667-.144-2.172-1.69-4.454-2.494-6.448 4.87-10.48 13.903-23.504 25.171-27.557 1.474-.53 2.999-.829 4.531-1.139-4.692-.662-9.496 2.784-13.066 5.485-6.514 4.93-11.97 12.25-15.584 19.558-.681 1.377-1.141 2.83-1.739 4.237 1.195 2.51 3.486 5.027 2.516 7.92-.424 1.266-1.113 2.475-1.753 3.644-1.846 3.37-4.519 6.449-7.447 8.928-8.356 7.074-22.983 12.657-25.461 24.335-.391 1.842-.27 3.661-.189 5.526l-2.5 1.537c-1.124-4.255-1.147-9.665-.392-13.99 1.538-8.82 7.448-15.083 15.4-18.789 3.796-1.768 7.799-3.102 11.247-5.54 5.182-3.663 6.607-8.152 7.62-14.15-.88-1.737-1.659-3.45-2.134-5.344-1.509-6.01.19-12.38 3.346-17.578 4.225-6.956 11.348-12.634 18.904-15.543 1.984-.764 4.029-1.26 6.088-1.772ZM209.881.94a23.995 23.995 0 0 0-12.398 4.531c5.789-1.72 11.228-1.842 17.114-.416 3.556.942 6.693 2.334 9.95 4.017-2.642-3.97-6.259-6.873-11.026-7.806-1.207-.236-2.413-.29-3.64-.326Zm-32.964 5.777c-8.382 2.379-17.014 8.99-21.258 16.628-2.798 5.034-4.444 11.06-2.803 16.744.217.754.473 1.512.759 2.244l.372.616.194-.012c1.081-12.176 4.912-23.017 14.573-31.06a33.187 33.187 0 0 1 4.107-2.941c.783-.468 3.79-1.644 4.19-2.194l-.134-.025Zm27.195 4.035c.081 2.314 1.026 4.867 1.67 7.084 2.462 8.47 5.816 18.867 12.44 24.994 2.559 2.367 5.69 3.46 9.091 3.892 1.633.207 3.325.36 4.89.901 1.493.517 3.374 2.225 4.558 2.51-1.245-1.985-3.818-2.989-6.01-3.504-1.875-.441-3.814-.561-5.686-.999-4.685-1.094-8.092-4.476-10.582-8.437-4.074-6.48-6.839-14.503-8.709-21.897-.261-1.032-.66-4.087-1.662-4.544Z" fill="#564E4C"/><path d="M153.616 42.335a25.759 25.759 0 0 1-.759-2.243c-1.641-5.684.005-11.71 2.803-16.745 4.244-7.639 12.876-14.25 21.258-16.627l.133.024c-.399.55-3.406 1.727-4.189 2.194a33.177 33.177 0 0 0-4.107 2.942c-9.661 8.042-13.492 18.883-14.573 31.06l-.194.011-.372-.616Z" fill="#ECECEC"/><path d="M236.763 50.135c-1.184-.286-3.065-1.994-4.558-2.511-1.565-.542-3.257-.694-4.89-.902-3.4-.432-6.532-1.525-9.091-3.891-6.624-6.128-9.978-16.525-12.439-24.995-.645-2.216-1.59-4.77-1.67-7.083 1.001.457 1.401 3.511 1.661 4.543 1.87 7.395 4.635 15.417 8.709 21.898 2.49 3.961 5.897 7.343 10.582 8.437 1.873.438 3.812.557 5.686.999 2.192.515 4.765 1.519 6.01 3.505ZM123.187 95.638l-.648.402c-.081-1.865-.201-3.684.19-5.526 2.478-11.678 17.105-17.262 25.46-24.336 2.929-2.479 5.601-5.557 7.447-8.928.641-1.169 1.329-2.377 1.753-3.643.97-2.893-1.32-5.41-2.516-7.92.598-1.407 1.059-2.86 1.739-4.237 3.615-7.308 9.07-14.628 15.584-19.558 3.57-2.701 8.374-6.147 13.066-5.485-1.531.31-3.057.608-4.53 1.138-11.269 4.054-20.302 17.078-25.172 27.558.804 1.994 2.35 4.276 2.494 6.447.137 2.07-.822 3.9-1.763 5.668-7.034 13.206-19.584 14.95-28.41 25.067-3.738 4.285-5.054 7.743-4.694 13.353Z" fill="#453734"/><path d="M195.08 43.732c-.94.05-2.284.033-2.972.766-.247.264-.362.524-.458.865.09.432.158.643.533.907 1.48 1.04 7.181.19 9.431.735 1.379.65 3.063 2.883 4.307 3.965 5.254 4.57 12.648 7.8 19.584 5.363 2.251-.791 5.432-2.812 7.839-1.685 1.225.573 2.014 1.813 2.44 3.054.804 2.335.496 4.896-.618 7.071-1.575 3.076-4.402 4.846-7.441 6.254l-1.45.772a6.09 6.09 0 0 1-.57-.449c-.828-.73-2.909-.792-3.956-.667-1.14.135-2.132.5-3.134 1.042-2.512-1.173-5.074-1.055-7.642-.105-2.629.972-5.079 2.861-6.259 5.457-.986 2.168-.807 4.37-.52 6.652-1.618.965-3.249 1.87-4.965 2.651-5.49 2.502-14.575 5.482-16.277 12.054-.527 2.035-.453 4.263-.269 6.338.606 6.814 1.983 14.006 2.976 20.819l2.625 17.76c.635 4.512 1.164 9.049 1.868 13.55.092.586.128 1.402.448 1.908.031.05.073.091.11.137l.286-.028c.219-.354.237-.658.225-1.065-.045-1.505-.361-3.069-.561-4.567a656.336 656.336 0 0 0-1.279-9.157 2394.644 2394.644 0 0 0-4.021-27.198c-.686-4.603-2.266-11.95-1.801-16.313.156-1.462.532-3.03 1.33-4.28 4.743-7.424 18.339-8.31 24.334-15.53.645-.776 1.421-1.916 1.187-2.944l-.307-.333-.381-.007c-.662.737-.411 1.895-1.164 2.722-.068.075-.133.152-.2.227-.959 1.077-2.139 1.936-3.337 2.726-.146-3.061-.239-5.487 1.97-7.911 1.89-2.075 4.952-3.497 7.752-3.63 1.234-.06 2.417.203 3.352 1.048 1.975 1.785 2.163 5.787 2.233 8.292.018.909.026 1.817.024 2.726.412.131.43.158.83.005.874-3.315-.188-8.354-1.849-11.326-.028-.05-.058-.099-.087-.148 1.584-.579 3.568-1.153 5.185-.39 1.085.512 1.678 1.58 2.017 2.685.837 2.722.789 5.98.621 8.795-.054.904-.33 2.264-.133 3.124l.252.135c.36-.213.554-.447.675-.849.3-.993.223-2.181.227-3.215.018-3.653-.096-6.999-1.574-10.4 1.08.175 2.177.307 3.209.683l.143.157c3.371 3.778 2.764 10.617 2.523 15.308-.03.569-.212 1.477.412 1.658.384-.275.477-.492.567-.96.166-.855.116-1.826.131-2.698.069-4.137-.451-7.88-1.485-11.876.75 1.381 1.518 2.753 2.303 4.115 1.148 3.554 1.549 6.844 1.21 10.567-.385 2.005-2.079 9.199-1.623 10.744.244.222.227.292.571.303-.707 2.894-2.798 4.632-5.252 6.106-3.914 2.35-8.077 3.893-12.112 5.943l4.123 11.12c.929 2.551 1.672 5.426 3.037 7.771.653 1.843 1.223 3.956 2.12 5.68l.48 1.406c2.375 6.487 4.814 12.95 7.316 19.389.808 2.116 2.033 4.325 2.587 6.512.501 2.568 1.925 5.3 2.892 7.755l5.984 15.115c.865 2.127 1.404 4.638 2.543 6.615l.393.098.246-.199c.106-1.183-9.663-26.112-11.057-29.184 8.556 2.77 16.344 5.135 23.97 10.103-.647 4.411-1.802 8.833-3.044 13.111-.516 1.779-1.546 3.844-1.748 5.665-.494.949-.964 2.294-1.188 3.349-3.778 10.493-9.211 21.048-19.784 26.043-2.209 1.043-7.218 1.736-8.27 2.368-1.19.132-2.508 0-3.71 0-1.972.001-3.949.066-5.92.003-.979-.585-2.378-.672-3.479-1.007-2.559-.779-5.024-2.132-7.173-3.712a26.462 26.462 0 0 1-8.806-11.131c-2.364-5.659-2.714-12.297-3.624-18.33l-4.45-30.423c-1.244.158-2.535.094-3.768-.119-5.15-.887-9.373-4.428-12.311-8.599-1.815-2.575-3.097-5.467-4.111-8.438-3.819-11.18-2.797-22.669-2.19-34.243.271-5.156.222-10.516 1.086-15.607 2.024 2.065 4.258 3.762 7.065 4.596 1.623.482 4.272.958 5.812.134.214-.346.214-.327.132-.724-1.076.051-2.176.141-3.252.119-3.337-.07-6.775-2.34-9.032-4.629-.821-.943-1.53-2.02-2.481-2.835-3.844-5.78-5.516-11.913-6.554-18.69l-.119-1.388c-.717-8.603.109-18.482 3.138-26.62.836-2.247 1.858-4.394 3.294-6.32 4.829-6.48 14.291-12.268 21.624-15.64 2.847 9.246 4.846 14.075 10.21 22.271-1.332.005-2.696-.047-4.014.157Zm-21.29 3.954c.427.277.973.604 1.502.541.266-.031.196-.048.38-.287l-.124-.384c-1.021-1.037-2.397-1.256-3.799-1.31-1.193-.047-2.946-.041-3.828.88-.205.215-.143.152-.109.468.06.036.118.078.181.11.785.391 1.776-.139 2.536-.413l.143.254c-.847.51-1.46 1.148-1.695 2.14-.24 1.018-.016 2.537.594 3.403.331.471.814.798 1.388.882.741.107 1.46-.163 2.025-.634.823-.686 1.39-1.829 1.437-2.9.035-.808-.177-1.92-.766-2.52-.031-.032-.068-.058-.101-.086l.236-.144Zm26.769 4.533c.325.35.587.716 1.073.828.382-.178.421-.214.647-.57l-.116-.436c-.862-.92-2.224-1.344-3.436-1.56-1.076-.193-2.352-.302-3.295.343-.229.44-.21.424-.078.904l.741.262c-.412 1.566-1.347 3.189-.444 4.817.361.65 1.053 1.05 1.76 1.22.609.147 1.223.126 1.758-.235.988-.668 1.359-2.116 1.523-3.22.122-.82.013-1.548-.133-2.353ZM169.14 39.16c-1.097.14-2.59.246-3.359 1.144-.246.287-.313.56-.357.925.157.425.169.548.609.75.901.416 3.132-.013 4.189.031 2.438.102 4.965.866 7.099 2.035.671.353 1.102.597 1.873.372.341-.099.559-.237.825-.475.151-.416.211-.615.026-1.037-.686-1.56-4.043-2.559-5.556-3.02-1.739-.53-3.529-.818-5.349-.725Zm13.663 7.326c-.055 1.25.392 2.571.584 3.812.688 4.45-.946 7.552-4.173 10.495-1.153 1.052-2.849 2.274-2.964 3.975-.054.793.256 1.471.777 2.053.994 1.11 2.688 1.859 4.173 1.904.238.007.468-.019.704-.044-.051-.272-.004-.503-.257-.66-1.324-.82-3.781-.65-4.331-2.482-.19-.632-.07-1.254.281-1.805.767-1.202 2.174-2.152 3.206-3.139 3.557-3.396 4.146-7.372 3.275-12.057-.129-.693-.259-1.538-.875-1.964l-.4-.088Zm46.837 10.907c-1.844.94-3.445 2.328-4.091 4.373-.254.807-.345 1.693.081 2.456.388.697 1.36 1.066 2.101 1.19.227.039.454.045.683.053 1.443-.22 2.427-.68 3.317-1.872.8-1.071 1.21-2.527 1.018-3.858-.113-.78-.465-1.467-1.132-1.911-.653-.435-1.212-.467-1.977-.431Zm-54.386 15.86-.186.671c.663.954 5.748 1.707 7.061 1.941 2.71.484 5.454.715 8.158 1.189.035-.458.137-.626-.158-.993-4.933-.577-10.153-1.203-14.875-2.807Z" fill="#ECB7A6"/><path d="M242.744 30.585c3.236 1.334 6.154 3.43 9.055 5.364 8.963 5.976 17.822 12.608 25.502 20.197 4.817-4.899 9.594-7.605 16.625-7.638 5.754-.027 11.019 2.063 15.084 6.156 4.177 4.205 6.431 9.613 6.373 15.54-.057 5.844-2.286 11.434-6.511 15.51-1.843 1.778-4.001 3.121-6.281 4.262 1.303 2.274 2.823 4.412 4.161 6.665 1.901 3.2 3.586 6.58 5.172 9.945a120.773 120.773 0 0 1 7.806 83.645 122.663 122.663 0 0 1-10.716 26.662c-1.489 2.707-3.238 5.261-4.747 7.952 4.287.046 8.575.048 12.861.007 1.634-.005 3.98-.297 5.54.092-2.673.464-6.643.113-9.438.112l-22.014-.024-41.389-.017-12.506.001c-2.49.001-5.017.088-7.503-.07 3.023-.399 7.156-.091 10.288-.09l21.462.01a586.698 586.698 0 0 0-3.337-18.56c-.522-2.717-.877-5.701-1.731-8.324-.177-.542-.426-1.006-.732-1.484.223-1.056.694-2.401 1.188-3.349 3.419-.16 7.171-.257 9.986-2.489 1.821-1.442 2.416-3.37 2.667-5.59 1.032-4.941 1.143-10.294 1.321-15.319.692-19.593-.746-44.964-8.814-62.944 2.212-1.759 3.936-4.015 5.269-6.498a18.999 18.999 0 0 0 2.299-10.251c-.183-2.777-1.125-5.378-2.518-7.771-1.809-3.11-4.204-5.691-6.944-7.998-5.297-4.461-12.077-7.97-14.694-14.785-1.126-2.932-.515-5.975-.376-9.022.096-2.092.119-4.214.027-6.307-.204-4.677-1.086-9.116-2.435-13.59Zm48.79 19.132c-11.251 1.285-19.354 11.411-18.141 22.67 1.213 11.26 11.287 19.427 22.553 18.286 11.369-1.15 19.628-11.337 18.404-22.699-1.224-11.36-11.463-19.554-22.816-18.257Zm-8.87 91.008c-.766 1.106-1.303 2.224-1.854 3.445-1.006-.046-2.553-.302-3.36.477-.293.283-.466.566-.426.99.084.893 1.072 1.614 1.77 2.022.305.175.614.344.928.504-.572 1.259-1.247 2.869-.944 4.267.238.282.32.395.733.37 1.388-.082 2.956-2.084 3.681-2.091.806.742 2.027 2.042 3.209 1.963.26-.018.365-.179.555-.338.368-.95.168-1.711-.125-2.649l-.48-1.573c.875-.462 2.229-1.015 2.551-2.051.144-.461.068-.579-.107-1.005-.912-.798-1.81-.673-2.958-.595-.175.012-.351.025-.526.039-.27-1.174-.489-2.816-1.607-3.513-.325-.203-.67-.221-1.04-.262Z" fill="#ECECEC"/><path d="M177.32 44.043c-2.135-1.17-4.661-1.933-7.1-2.035-1.056-.044-3.287.385-4.189-.03-.439-.203-.451-.326-.608-.75.044-.365.111-.639.356-.926.77-.898 2.263-1.005 3.36-1.144 1.82-.093 3.61.195 5.349.725 1.513.46 4.87 1.46 5.556 3.02.185.422.125.62-.026 1.037-.266.238-.484.376-.825.475-.772.225-1.202-.019-1.873-.372ZM201.613 47.004c-2.251-.545-7.952.305-9.431-.734-.376-.264-.443-.476-.534-.907.097-.342.211-.601.459-.865.688-.733 2.032-.717 2.971-.766 1.385.056 2.753.016 4.137-.036.677.785 2.301 2.312 2.398 3.308ZM170.528 47.288c-.76.275-1.752.805-2.537.413-.063-.031-.12-.073-.181-.11-.034-.316-.096-.252.11-.467.881-.922 2.634-.927 3.828-.88 1.402.054 2.777.273 3.799 1.31l.124.384c-.184.239-.115.256-.38.287-.529.062-1.076-.265-1.503-.54-.784-.51-2.349-.577-3.26-.397Z" fill="#5D5452"/><path d="M181.902 68.68c-.236.025-.466.052-.704.044-1.485-.045-3.179-.793-4.173-1.903-.521-.582-.831-1.26-.777-2.054.115-1.7 1.811-2.922 2.964-3.975 3.227-2.942 4.861-6.044 4.173-10.494-.192-1.241-.639-2.562-.584-3.813l.4.089c.616.425.746 1.27.875 1.963.871 4.685.282 8.662-3.275 12.058-1.032.986-2.439 1.937-3.206 3.139-.351.55-.471 1.172-.281 1.804.55 1.833 3.007 1.663 4.331 2.483.253.156.206.387.257.66Z" fill="#CE8973"/><path d="M170.528 47.29c.911-.181 2.476-.114 3.261.395l-.236.143c-1.008-.319-1.836-.311-2.882-.285l-.143-.254Z" fill="#683935"/><path d="M173.552 47.83c.034.03.07.055.101.086.589.602.802 1.713.766 2.522-.046 1.07-.613 2.213-1.437 2.9-.565.47-1.284.74-2.024.633-.575-.084-1.057-.411-1.389-.882-.609-.866-.834-2.385-.593-3.404.234-.99.848-1.63 1.695-2.14 1.045-.026 1.874-.033 2.881.285Z" fill="#302B28"/><path d="M195.353 51.728c-.132-.48-.151-.465.078-.904.943-.645 2.218-.535 3.295-.343 1.212.216 2.573.64 3.435 1.56l.116.436c-.226.356-.265.392-.646.57-.487-.111-.748-.477-1.074-.828-.235-.302-.643-.604-.929-.87-.061-.009-.122-.02-.183-.028l-.305-.043c-.979-.146-1.732-.15-2.667.222-.402.16-.689.204-1.12.228Z" fill="#5D5452"/><path d="M195.355 51.727c.432-.024.718-.07 1.12-.229.935-.37 1.688-.368 2.667-.221l.305.042.183.03c.286.264.694.566.929.869.146.805.256 1.532.134 2.352-.165 1.105-.535 2.553-1.524 3.22-.534.362-1.148.383-1.757.236-.707-.17-1.399-.57-1.76-1.22-.903-1.629.032-3.251.444-4.818l-.741-.261Z" fill="#302B28"/><path d="M228.414 65.464c-.229-.008-.456-.014-.682-.052-.742-.126-1.714-.494-2.102-1.19-.425-.764-.335-1.65-.08-2.457.645-2.045 2.246-3.434 4.09-4.373.765-.036 1.324-.005 1.977.43.668.445 1.02 1.131 1.132 1.912.192 1.33-.218 2.786-1.018 3.858-.89 1.192-1.874 1.652-3.317 1.872Zm1.068-7.096c-1.427 1.02-2.969 2.515-3.245 4.346-.063.418.004.838.281 1.167.396.472 1.175.61 1.763.626.053.001.107-.003.161-.004 1.131-.232 1.885-.608 2.546-1.585.599-.886 1.016-2.108.739-3.18-.143-.555-.447-.91-.946-1.194-.437-.25-.822-.232-1.299-.176Z" fill="#CE8973"/><path d="M228.442 64.503c-.054.002-.107.006-.161.005-.588-.016-1.367-.154-1.763-.626-.277-.33-.343-.75-.281-1.168.276-1.83 1.819-3.326 3.245-4.345.478-.056.862-.074 1.299.176.499.284.803.639.947 1.194.276 1.072-.141 2.294-.74 3.18-.661.977-1.415 1.353-2.546 1.584Z" fill="#ECB7A6"/><path d="M261.489 105.436c3.505-4.938 4.558-9.833 3.569-15.856-1.103-6.712-5.131-11.96-10.413-16.033-2.815-2.17-5.703-4.209-7.671-7.24-1.275-1.964-1.922-4.063-2.449-6.324 1.175 2.057 2.31 4.082 3.947 5.819 3.302 3.503 7.36 6.004 11.017 9.08 6.407 5.39 10.894 12.543 8.593 21.128-.9 3.357-3.336 7.984-6.41 9.797l-.183-.371Z" fill="#ECECEC"/><path d="M256.831 98.86c1.833-4.713 2.39-9.298.292-14.027-.942-2.126-2.285-3.972-3.933-5.604-3.553-3.52-9.14-6.204-10.418-11.376-.156-.632-.399-1.363-.261-2.007l.2-.08-.126-.013.263.208c.551 1.548.934 3.087 1.845 4.48 1.534 2.349 4.084 4.162 6.222 5.95 5.652 4.722 9.073 9.983 7.917 17.636-.283 1.873-.885 3.718-1.436 5.526l-.565-.692ZM160.827 69.882l.119 1.389c-3.939 4.084-7.976 7.665-12.66 10.872-1.48 1.014-14.75 8.842-14.867 9.024l.059.194c-.569.205-1.113.345-1.708.452 1.258-1.89 12.344-7.611 15.057-9.424 4.001-2.675 7.88-5.536 11.217-9.023.927-.968 2.342-2.211 2.783-3.484Z" fill="#453734"/><path d="M218.614 71.725c1.002-.542 1.994-.907 3.134-1.042 1.047-.125 3.128-.062 3.956.667.189.166.362.304.57.448l1.45-.77c2.347.57 4.358 2.35 5.584 4.4.485.812 1.153 2.14 1.01 3.099a186.39 186.39 0 0 1-2.303-4.115c1.034 3.996 1.554 7.738 1.485 11.876-.015.871.035 1.843-.131 2.697-.09.468-.183.686-.567.96-.624-.18-.442-1.089-.413-1.658.241-4.69.849-11.53-2.522-15.308l-.143-.156c-1.032-.376-2.129-.508-3.209-.684 1.478 3.402 1.592 6.748 1.574 10.4-.004 1.035.073 2.223-.227 3.216-.121.402-.315.635-.675.849l-.252-.135c-.197-.86.079-2.22.133-3.125.168-2.814.216-6.072-.621-8.795-.339-1.104-.932-2.172-2.017-2.684-1.617-.763-3.601-.189-5.185.39.029.049.059.098.087.148 1.661 2.971 2.723 8.01 1.849 11.326-.4.153-.418.126-.831-.005.003-.909-.005-1.817-.023-2.726-.07-2.505-.258-6.507-2.233-8.293-.935-.844-2.118-1.107-3.352-1.048-2.8.134-5.862 1.556-7.753 3.63-2.208 2.425-2.115 4.85-1.969 7.912 1.198-.79 2.378-1.65 3.337-2.726.067-.076.132-.152.2-.227.753-.827.502-1.985 1.164-2.722l.381.007.307.332c.234 1.029-.542 2.168-1.187 2.945-5.995 7.22-19.591 8.106-24.334 15.53-.798 1.25-1.174 2.817-1.33 4.28-.465 4.362 1.115 11.71 1.801 16.312a2398.15 2398.15 0 0 1 4.021 27.199c.448 3.049.874 6.101 1.279 9.156.2 1.498.516 3.063.561 4.568.012.407-.006.71-.225 1.065l-.286.028c-.037-.046-.079-.088-.11-.138-.32-.505-.356-1.321-.448-1.907-.704-4.501-1.233-9.038-1.868-13.55l-2.625-17.76c-.993-6.813-2.37-14.005-2.976-20.819-.184-2.076-.258-4.304.269-6.338 1.702-6.572 10.787-9.553 16.277-12.054 1.716-.781 3.347-1.686 4.965-2.652-.287-2.28-.466-4.484.52-6.652 1.18-2.595 3.63-4.484 6.259-5.456 2.568-.95 5.13-1.068 7.642.105Z" fill="#CE8973"/><path d="m133.479 91.362-.06-.193c.117-.182 13.387-8.01 14.868-9.024 4.683-3.207 8.721-6.788 12.659-10.873 1.038 6.776 2.71 12.91 6.554 18.69l-.224.455c-6.447.209-12.938.028-19.391.04-4.255.01-8.589-.103-12.786.69l-1.62.215Z" fill="#564E4C"/><path d="M190.287 77.053c-2.704-.473-5.449-.705-8.159-1.189-1.312-.234-6.397-.987-7.061-1.94l.187-.671c4.722 1.605 9.941 2.23 14.875 2.807.294.367.193.535.158.993ZM234.477 100.141c-.345-.011-.328-.081-.572-.303-.456-1.545 1.239-8.74 1.623-10.744.402.846.212 1.59.342 2.479-.164 2.835-.707 5.813-1.393 8.568ZM167.502 89.96c.951.815 1.66 1.892 2.48 2.835l-.787.31c-.708-.833-1.302-1.786-1.917-2.69l.224-.455Z" fill="#CE8973"/><path d="M135.099 91.147c4.196-.793 8.53-.68 12.786-.69 6.452-.012 12.944.169 19.391-.04.616.903 1.209 1.856 1.917 2.69l.063.194c-.864 5.09-.816 10.451-1.086 15.607-.607 11.574-1.629 23.062 2.189 34.243 1.015 2.971 2.297 5.863 4.111 8.438 2.938 4.171 7.162 7.712 12.312 8.599 1.233.212 2.524.277 3.768.119l4.449 30.423c.91 6.033 1.26 12.67 3.624 18.33a26.47 26.47 0 0 0 8.807 11.13c2.149 1.581 4.614 2.934 7.173 3.713 1.101.335 2.5.422 3.479 1.007-11.354.279-22.745.118-34.102.096-8.907-.017-17.816.143-26.722.075l-.13-.315.931-.111c1.899.127 4.011-.177 5.851-.647l.977-.2c1.997-.582 3.754-1.236 5.363-2.597 2.894-2.284 3.114-6.364 4.112-9.623l.041-.133.136.06c2.135 3.043 8.823 11.213 11.792 13.111.719-.39 1.854-.883 2.047-1.764.174-.792-.328-1.427-.784-2.007l-1.231-1.539c.077-.045.155-.087.229-.134.839-.539 1.324-1.612 1.514-2.555.333-1.645.039-3.58-.498-5.155-1.189-3.489-6.578-11.89-8.853-15.133-2.273-3.926-4.79-4.53-8.362-6.754l-.173-.109c-.845-1.273-2.004-2.468-2.984-3.656-1.373-1.664-2.687-3.386-4.096-5.02-.703-.814-1.316-1.479-2.454-1.532-1.152-.053-2.266.275-3.089 1.098-.888.888-1.117 1.895-1.118 3.114-3.135 1.582-6.065 3.483-9.275 4.925-11.734 5.27-20.775 2.734-32.794 1.504 2.783-3.626 6.393-6.689 8.819-10.6.445-10.585-.337-21.026-2.892-31.325a95.235 95.235 0 0 0-1.742-6.136c-.521-1.63-1.478-3.414-1.592-5.109l.272-.225c.278.095.369.188.549.432 1.077 1.458 1.65 4.095 2.167 5.843 2.993 10.119 5.461 24.956 4.145 35.402 7.01-9.643 14.956-26.128 18.389-37.425 4.023-13.242 7.686-30.254.714-43.132-2.038-3.766-4.085-5.265-8.14-6.487Z" fill="#FEFEFE"/><path d="m133.476 91.364 1.621-.216c4.055 1.222 6.102 2.722 8.14 6.487 6.972 12.878 3.309 29.89-.714 43.132-3.433 11.298-11.379 27.783-18.389 37.425 1.316-10.446-1.152-25.283-4.145-35.402-.517-1.748-1.09-4.384-2.167-5.842-.18-.245-.271-.338-.549-.433l-.272.226c.114 1.695 1.071 3.479 1.592 5.108a95.235 95.235 0 0 1 1.742 6.136c2.555 10.3 3.337 20.74 2.893 31.325-2.427 3.912-6.037 6.974-8.82 10.6-.361-.042-.713-.142-1.066-.226-.821-1.744-1.562-3.522-2.492-5.213-7.863-14.294-22.505-25.099-38.037-29.597-2.934-.848-6.032-1.391-9.092-1.333 2.293-3.351 5.371-6.427 8.11-9.427a1167.918 1167.918 0 0 1 17.648-18.712 562.589 562.589 0 0 0 5.61-5.627c3.055-2.617 5.79-5.835 8.681-8.65 3.739-3.64 7.754-6.967 11.746-10.322 1.549-.948 3.039-2.166 4.522-3.225l2.5-1.537.648-.402c2.594-1.634 5.625-3.028 8.582-3.823a10.233 10.233 0 0 0 1.708-.452Z" fill="#89A2D8"/><path d="M235.871 91.575c5.365-.95 11.767.098 16.462 2.874-10.922 3.758-18.023 14.259-22.901 24.225-1.969 4.022-3.502 8.253-5.158 12.409-1.365-2.346-2.109-5.22-3.038-7.771l-4.122-11.12c4.034-2.05 8.198-3.593 12.111-5.943 2.455-1.474 4.546-3.212 5.253-6.106.687-2.755 1.229-5.733 1.393-8.568Z" fill="#FEFEFE"/><path d="m169.196 93.107.787-.31c2.257 2.29 5.695 4.56 9.032 4.63 1.076.022 2.176-.068 3.253-.12.082.398.082.379-.133.725-1.54.824-4.188.348-5.812-.135-2.806-.834-5.041-2.53-7.064-4.595l-.063-.195Z" fill="#CE8973"/><path d="M224.272 131.082c1.657-4.156 3.189-8.387 5.158-12.409 4.879-9.966 11.98-20.467 22.902-24.225 1.767 1.061 3.179 2.858 4.499 4.413l.565.692c1.03 1.324 3.238 5.169 4.092 5.884l.183.371c.132.356.245.671.444.998 8.068 17.98 9.506 43.351 8.813 62.944-.177 5.025-.289 10.378-1.32 15.319-1.988-4.782-3.617-7.582-7.862-10.697-7.626-4.969-15.414-7.334-23.97-10.104l-1-.2c-.555-2.186-1.78-4.396-2.588-6.511a1057.163 1057.163 0 0 1-7.316-19.389c3.758-6.731 8.423-12.3 14.577-16.938 1.535-1.157 3.227-2.11 4.748-3.27.369-.281.523-.39.574-.855-.328-.186-.536-.23-.909-.108-1.297.42-2.71 1.553-3.813 2.34a53.229 53.229 0 0 0-15.656 17.425c-.898-1.724-1.468-3.837-2.121-5.68Z" fill="#89A2D8"/><path d="m53.75 182.165-3.936-49.377-1.442-17.709c-.305-3.67-.751-7.404-.822-11.084-.02-1.033.064-2.046.865-2.804.85-.806 2.03-.765 3.119-.773.684 4.782.881 9.71 1.282 14.528.138 1.648.112 3.644.484 5.225l.46 5.133c.913 11.753 1.886 23.5 2.92 35.243.44 5.236.715 10.495 1.232 15.722-.367.926-3.452 6.926-3.98 7.228a36.69 36.69 0 0 0-.182-1.332Z" fill="#683935"/><path d="m51.534 100.418 51.149.136c1.888.005 11.942-.27 12.67.027l.167.22c-3.993 3.355-8.007 6.681-11.746 10.322-2.891 2.815-5.627 6.033-8.682 8.65-6.84-.367-13.75-.217-20.6-.227-6.948-.01-13.934-.168-20.877.013-.246.252-.226.291-.314.612-.372-1.581-.347-3.577-.484-5.225-.401-4.818-.599-9.746-1.283-14.528Z" fill="#F8E5C7"/><path d="M226.395 136.762a53.243 53.243 0 0 1 15.657-17.425c1.102-.787 2.515-1.92 3.812-2.34.373-.122.581-.078.909.107-.051.466-.204.575-.573.856-1.521 1.16-3.214 2.113-4.749 3.27-6.154 4.638-10.819 10.206-14.576 16.937l-.48-1.405ZM53.3 120.171c.089-.321.069-.359.315-.611 6.943-.181 13.929-.023 20.877-.013 6.85.01 13.76-.141 20.6.227a572.297 572.297 0 0 1-5.61 5.627c-2.475-.545-5.624-.191-8.174-.185l-19.048.099c-2.78.009-5.745.266-8.5-.011l-.46-5.133Z" fill="#FEFEFE"/><path d="M53.76 125.305c2.755.276 5.72.02 8.5.01l19.048-.099c2.55-.006 5.699-.36 8.174.185a1163.25 1163.25 0 0 0-17.648 18.712c-2.739 3-5.817 6.076-8.11 9.427-.32.648-.527 1.231-.256 1.943.719 1.891 3.411 3.694 4.913 4.978-1.91 2.511-3.758 5.049-5.453 7.711-1.242 1.951-3.56 6.73-5.016 8.098-.517-5.227-.791-10.486-1.232-15.722a3433.482 3433.482 0 0 1-2.92-35.243Z" fill="#F8E5C7"/><path d="M129.986 3.757a218.195 218.195 0 0 1 42.683-.198c2.197.216 5.532.243 7.449 1.311-2.059.512-4.103 1.009-6.087 1.773-7.557 2.909-14.68 8.586-18.904 15.543-3.156 5.197-4.855 11.567-3.346 17.577.475 1.895 1.254 3.608 2.133 5.344-1.012 5.998-2.437 10.488-7.619 14.15-3.449 2.438-7.451 3.772-11.247 5.54-7.952 3.707-13.862 9.97-15.4 18.789-.755 4.325-.732 9.735.391 13.99-1.483 1.06-2.973 2.278-4.522 3.227l-.166-.221c-.73-.296-10.782-.022-12.67-.026l-51.148-.137c-1.09.008-2.27-.033-3.12.772-.801.759-.884 1.772-.865 2.805.07 3.68.517 7.414.822 11.084l1.442 17.709 3.936 49.377c.191 2.836-2.182 6.129-3.243 8.77-3.202 7.974-4.313 16.417-.145 24.246 1.117 2.098 2.55 4.145 4.31 5.759.077.072.16.138.241.207.034 1.303.08 2.608.097 3.912-11.827-.245-23.697-.007-35.53.002l-9.33-.015c-1.578 0-3.371.145-4.931-.072 1.194-.435 15.033-.105 17.463-.1-2.993-3.913-5.304-8.675-7.456-13.092C7.056 195.023 2.5 179.758.594 161.118-3.181 124.213 11.263 85.873 36.877 59.33c3.322-3.442 6.823-6.88 10.491-9.955a116.645 116.645 0 0 1 3.88-3.09c14.887-13.498 45.435-36.221 73.82-41.243.135-.024.27-.046.404-.068 2.214-.671 3.947-1.16 4.514-1.217Zm152.675 136.969c.37.04.716.057 1.041.26 1.117.698 1.337 2.34 1.607 3.514l.525-.039c1.149-.078 2.047-.203 2.959.595.175.425.25.544.107 1.006-.323 1.035-1.677 1.588-2.551 2.049l.48 1.574c.293.938.492 1.699.124 2.649-.189.159-.295.32-.554.338-1.181.079-2.404-1.221-3.209-1.963-.725.008-2.294 2.008-3.681 2.091-.413.024-.495-.089-.733-.37-.304-1.398.372-3.008.944-4.267-.314-.16-.624-.329-.929-.505-.697-.408-1.686-1.128-1.769-2.02-.04-.425.133-.708.426-.991.808-.779 2.354-.523 3.36-.477.551-1.222 1.088-2.339 1.853-3.444Zm-246.706-8.284a5.798 5.798 0 1 0 .003 0l.125-.021-.128.021Zm1.858 11.437Zm1.487-.398a5.818 5.818 0 0 1-.002.001l.002-.001Zm-2.176-11.146Zm58.133-61.357a7.716 7.716 0 0 0-9.121-5.986 7.685 7.685 0 0 0-.001.002 7.715 7.715 0 0 1 8.487 10.96 7.68 7.68 0 0 0 .635-4.975Z" fill="#ECECEC"/><path d="M68.382 160.46c-1.502-1.284-4.194-3.087-4.913-4.978-.271-.712-.065-1.295.256-1.943 3.06-.058 6.158.485 9.093 1.333-1.501 1.839-3.031 3.674-4.436 5.588Z" fill="#405C9F"/><path d="M72.816 154.872c15.532 4.499 30.173 15.303 38.036 29.598.93 1.69 1.671 3.469 2.492 5.212l-.116.044a673.151 673.151 0 0 1-18.735-3.683c-9.542-2.028-23.936-6.878-32.743-.724-.98.685-2.713 2.177-3.048 3.348-.047.166-.035.192-.026.342l.18.089c3.742-4.282 7.094-5.758 12.816-6.128 6.493-.42 13.357 1.567 19.63 2.992 7.122 1.619 14.969 3.508 22.182 4.421 2.232.675 4.969.871 7.285 1.179 8.149 1.082 16.119 1.927 23.962-1.233 3.011-1.214 5.969-2.847 8.804-4.424 1.343-.748 2.644-1.593 4.037-2.245l.178-.081 1.363.698c.202.749 1.063 1.336 1.703 1.7 3.937 2.242 11.926 5.239 14.94 8.106 1.166 1.109 1.95 2.515 2.393 4.053.795 2.755.752 6.94-.725 9.462-.634 1.081-2.47 2.619-2.811 3.496l-.074.421-.135-.06c-.007-3.226-.057-6.483-2.548-8.897-.89-.862-1.937-1.525-3.011-2.132-1.914-1.082-14.655-7.226-15.666-7.21l-.217.252c.091.422.233.451.592.682 1.186.764 2.637 1.284 3.926 1.862 3.752 1.685 11.37 4.635 14.09 7.509.806.851 1.326 1.926 1.595 3.06.778 3.278-.14 8.128-1.455 11.163-.455 1.051-1.41 2.335-1.459 3.467-1.609 1.361-3.366 2.015-5.364 2.597 1.697-3.431 3.012-6.344 1.769-10.219-1.305-4.069-6.763-6.453-10.305-8.144-1.952-.932-4.556-2.407-6.684-2.698-.334.17-.316.085-.456.475.467.747 2.122 1.096 2.929 1.407 1.894.731 3.748 1.62 5.574 2.506 5.102 2.476 9.641 5.562 8.24 12.061-.367 1.704-1.744 3.164-2.044 4.812-1.84.47-3.951.774-5.85.647.801-.744 1.217-1.222 1.243-2.346.034-1.472-1.105-2.852-2.093-3.845-2.095-2.103-8.176-5.056-11.13-5.191-.265-.012-.284.002-.508.041.1.399.402.551.746.749 1.151.663 2.661 1.009 3.919 1.447 2.796.972 6.911 2.8 7.861 5.878.138.446.311 1.121.126 1.575-.357.881-1.487 1.057-2.091 1.693.349.091.636.113.996.11l.129.315a90.474 90.474 0 0 0-4.887-.039l-.007-.122c-.587-.437-1.833-.433-2.572-.47-5.815-.294-11.775-.047-17.608-.031-3.872.011-7.74.095-11.612.15-2.348.033-4.733-.043-7.072.163-1.489-.024-3.616-.235-4.994.331-2.53.174-5.156.036-7.7.04l-14.891.018h-16.7c-2.33.008-4.71.201-7.033.099a3.236 3.236 0 0 1-1.104-.238c-2.293-1.06-4.175-2.306-6.166-3.834-.08-.069-.164-.135-.242-.207-1.76-1.615-3.192-3.661-4.309-5.76-4.168-7.828-3.057-16.272.145-24.246 1.06-2.641 3.434-5.934 3.243-8.77.069.443.13.887.182 1.333.528-.303 3.613-6.302 3.98-7.229 1.457-1.368 3.774-6.146 5.017-8.097 1.695-2.662 3.543-5.201 5.453-7.711 1.404-1.915 2.934-3.749 4.435-5.589Z" fill="#ECB7A6"/><path d="m236.776 164.069 1.001.2c1.394 3.073 11.162 28.002 11.056 29.185l-.246.198-.393-.097c-1.139-1.977-1.677-4.489-2.542-6.615l-5.984-15.115c-.968-2.455-2.392-5.187-2.892-7.756Z" fill="#CE8973"/><path d="M261.746 174.37c4.245 3.115 5.874 5.915 7.862 10.697-.251 2.221-.847 4.148-2.667 5.591-2.816 2.232-6.567 2.329-9.987 2.488.202-1.821 1.232-3.886 1.748-5.665 1.242-4.277 2.398-8.7 3.044-13.111Z" fill="#405C9F"/><path d="M156.48 183.481c.001-1.219.23-2.226 1.118-3.114.823-.824 1.937-1.151 3.089-1.098 1.138.052 1.751.718 2.454 1.532 1.409 1.633 2.723 3.356 4.096 5.02.98 1.188 2.139 2.383 2.984 3.656-1.584-.305-8.942-4.191-11.107-5.199l-1.363-.698-1.271-.099Z" fill="#89A2D8"/><path d="M113.484 190.384c-7.214-.913-15.06-2.803-22.182-4.421-6.273-1.426-13.137-3.412-19.63-2.992-5.722.37-9.075 1.846-12.817 6.128l-.18-.09c-.009-.149-.02-.175.027-.341.334-1.171 2.067-2.663 3.047-3.348 8.807-6.154 23.201-1.304 32.743.724a669.899 669.899 0 0 0 18.735 3.682c.12.229.242.396.257.658Z" fill="#CE8973"/><path d="M114.411 189.907c12.02 1.23 21.06 3.766 32.794-1.504 3.211-1.442 6.141-3.343 9.276-4.924l1.27.098-.178.082c-1.393.651-2.694 1.496-4.037 2.244-2.835 1.577-5.793 3.211-8.804 4.424-7.844 3.16-15.814 2.315-23.962 1.233-2.316-.307-5.053-.504-7.285-1.179-.015-.261-.137-.428-.256-.657l.116-.044c.353.084.706.185 1.066.227ZM174.616 211.092c.34-.877 2.177-2.414 2.81-3.495 1.477-2.523 1.52-6.707.725-9.462-.443-1.538-1.227-2.944-2.393-4.053-3.014-2.867-11.003-5.865-14.94-8.106-.64-.365-1.501-.952-1.703-1.701 2.166 1.008 9.523 4.894 11.108 5.2l.172.109c3.573 2.223 6.09 2.828 8.363 6.753-.004.082-.01.164-.012.246-.034 1.046.455 2.308.604 3.366.543 3.85-.103 7.572-2.778 10.508-.651.264-1.269.487-1.956.635Z" fill="#CE8973"/><path d="M170.25 221.214c.049-1.133 1.004-2.416 1.459-3.467 1.315-3.035 2.233-7.886 1.455-11.163-.269-1.134-.789-2.209-1.595-3.06-2.72-2.874-10.337-5.825-14.09-7.509-1.289-.578-2.739-1.099-3.925-1.862-.36-.231-.502-.26-.592-.682l.217-.252c1.011-.017 13.751 6.128 15.665 7.209 1.074.607 2.121 1.271 3.012 2.133 2.49 2.414 2.54 5.671 2.547 8.897l-.041.132c-.998 3.26-1.219 7.34-4.112 9.624Z" fill="#CE8973"/><path d="M178.758 196.339c2.275 3.244 7.664 11.644 8.853 15.133.537 1.575.831 3.51.498 5.155-.19.943-.675 2.016-1.514 2.555-.074.047-.152.089-.229.134-1.284-1.595-3.421-2.283-4.93-3.66-1.738-1.585-2.995-3.799-4.863-5.198 2.674-2.935 3.32-6.657 2.777-10.507-.149-1.058-.638-2.32-.604-3.366l.012-.246Z" fill="#ECB7A6"/><path d="M255.766 196.495c.306.478.555.942.732 1.484.854 2.623 1.209 5.608 1.731 8.325a583.346 583.346 0 0 1 3.337 18.56l-21.462-.01c-3.132-.001-7.265-.31-10.288.089-.69.048-1.412-.017-2.105-.037 1.053-.631 6.062-1.325 8.271-2.368 10.573-4.995 16.006-15.55 19.784-26.043Z" fill="#FEFEFE"/><path d="m164.887 223.807-.977.2c.299-1.648 1.677-3.108 2.044-4.812 1.401-6.499-3.138-9.586-8.24-12.061-1.826-.886-3.68-1.775-5.574-2.506-.807-.311-2.463-.66-2.93-1.407.141-.39.122-.305.457-.475 2.127.291 4.732 1.766 6.683 2.698 3.542 1.691 9.001 4.075 10.306 8.144 1.243 3.875-.072 6.788-1.769 10.219Z" fill="#CE8973"/><path d="M174.615 211.093c.687-.148 1.306-.372 1.957-.636 1.868 1.398 3.125 3.613 4.863 5.197 1.509 1.377 3.646 2.066 4.93 3.661l1.231 1.539c.456.58.958 1.215.784 2.006-.193.881-1.328 1.375-2.047 1.764-2.969-1.898-9.657-10.067-11.792-13.111l.074-.42Z" fill="#89A2D8"/><path d="m158.061 224.655-.931.111a3.591 3.591 0 0 1-.996-.109c.604-.636 1.734-.813 2.092-1.693.184-.455.011-1.13-.127-1.576-.95-3.078-5.065-4.906-7.861-5.878-1.257-.438-2.768-.783-3.919-1.446-.344-.199-.646-.351-.746-.749.224-.04.243-.053.508-.041 2.954.134 9.035 3.088 11.13 5.191.988.992 2.128 2.373 2.093 3.844-.026 1.125-.441 1.602-1.243 2.346Z" fill="#CE8973"/><path d="M54.913 221.149c1.99 1.528 3.873 2.774 6.166 3.834-1.351.522-4.565.186-6.069.078-.016-1.304-.063-2.609-.097-3.912Z" fill="#4A292A"/><path d="M113.501 224.732c2.338-.206 4.723-.13 7.072-.163 3.871-.055 7.739-.139 11.611-.15 5.833-.016 11.793-.263 17.608.031.74.037 1.986.033 2.572.47l.008.123c-5.855.178-11.747.048-17.606.05-7.635.03-15.27.018-22.905-.036.579-.136 1.122-.004 1.64-.325Z" fill="#FEFEFE"/><path d="M108.506 225.064c1.378-.566 3.505-.355 4.994-.332-.518.322-1.061.19-1.64.326-1.1.081-2.249.011-3.354.006Z" fill="#fff"/><path d="M5.075 225.07c1.528.225 3.285.075 4.83.075l9.14.016c11.59-.009 23.218-.256 34.803-.002 1.473.112 4.621.46 5.945-.081.38.152.672.228 1.081.247 2.275.106 4.606-.095 6.889-.102l16.359-.001 14.587-.019c2.492-.003 5.064.139 7.542-.041 1.082.005 2.209.079 3.286-.006 7.479.056 14.957.068 22.436.037 5.739-.001 11.511.133 17.246-.052a82.153 82.153 0 0 1 4.787.04c8.724.071 17.451-.096 26.176-.078 11.125.022 22.284.189 33.405-.1 1.931.065 3.867-.002 5.799-.003 1.178 0 2.468.137 3.634 0 .678.02 1.386.088 2.061.039 2.435.164 4.911.073 7.35.072l12.251-.001 40.542.018 21.564.025c2.737.001 6.627.365 9.245-.116.532.127 1.073.248 1.563.509a4.63 4.63 0 0 1 2.26 2.876 4.677 4.677 0 0 1-.419 3.38c-.57 1.042-1.509 1.7-2.605 1.974-1.66.414-3.842.127-5.567.125l-10.753-.011-45.802.022-200.263-.039-34.251.015-10.252-.026c-1.596-.002-3.251.137-4.838-.011-.818-.077-1.565-.284-2.265-.752a4.125 4.125 0 0 1-1.782-2.792 4.586 4.586 0 0 1 .788-3.366c.865-1.232 1.826-1.681 3.228-1.871Z" fill="#9D7D70"/><path d="M293.5 91c11.322 0 20.5-9.402 20.5-21s-9.178-21-20.5-21S273 58.402 273 70s9.178 21 20.5 21Z" fill="#F37E60"/></svg>