<svg width="346" height="324" viewBox="0 0 346 324" fill="none" xmlns="http://www.w3.org/2000/svg">
<path d="M346 62.0429C346 96.307 318.634 124.085 284.87 124.085C251.113 124.085 223.747 96.3081 223.747 62.0429C223.747 27.7778 251.112 0 284.87 0C318.634 0 346 27.7778 346 62.0429Z" fill="#A0D76A"/>
<path d="M200.679 35.6171C200.679 50.2111 188.287 62.0424 172.998 62.0424C157.712 62.0424 145.319 50.2115 145.319 35.6171C145.319 21.0227 157.711 9.19141 172.998 9.19141C188.287 9.19141 200.679 21.0227 200.679 35.6171Z" fill="#F2C45B"/>
<path d="M239.893 204.512C239.893 270.506 186.19 324 119.944 324C53.7047 324 0 270.506 0 204.512C0 138.519 53.7047 85.0215 119.944 85.0215C186.191 85.0229 239.893 138.52 239.893 204.512Z" fill="#F37E60"/>
</svg>
