<svg width="55" height="55" fill="none" xmlns="http://www.w3.org/2000/svg"><circle cx="27.725" cy="27.725" r="27.275" fill="#F37E60"/><path d="M25.09 21.647a.518.518 0 0 0 .692-.097l1.198-1.589 1.26 1.661c.158.143.344.301.694.095a.495.495 0 0 0 .095-.693l-1.43-1.884 1.205-1.598a.495.495 0 0 0-.79-.596l-1.037 1.375-1.044-1.376a.494.494 0 0 0-.788.599l1.213 1.598-1.366 1.812a.495.495 0 0 0 .097.693Zm-5.19-3.034h.184v3.435a.495.495 0 1 0 .99 0v-3.435h.401a.495.495 0 1 0 0-.99h-.402v-.879c-.008-.192.096-.216.368-.186a.495.495 0 0 0 .218-.965c-.071-.016-.708-.15-1.168.216-.186.149-.407.431-.407.935v.88h-.185a.495.495 0 0 0 0 .989Zm3.883 3.714a.496.496 0 0 0 .478-.623c-.71-2.662-.028-4.467-.018-4.494a.495.495 0 0 0-.92-.366c-.033.085-.82 2.109-.018 5.115a.494.494 0 0 0 .477.368Zm6.013-.769a.496.496 0 0 0 .35.606c.203.054.501-.045.606-.35.802-3.007.015-5.031-.018-5.116a.495.495 0 0 0-.92.368c.008.017.7 1.8-.018 4.492Z" fill="#fff"/><path d="M44.209 39.577s-2.64-1.953-2.768-1.975V17.815c.195-.348.38-.7.555-1.058l.33.895c.113.177.278.404.636.293a.495.495 0 0 0 .293-.636l-.721-1.954c-.124-.2-.12-.47-.664-.371l-2.033.75a.495.495 0 0 0 .343.928l.929-.342c-1.617 3.296-4.304 6.528-7.669 9.2-3.674 2.916-7.853 4.938-11.767 5.691a.495.495 0 0 0-.392.58c.036.186.277.45.58.392 7.1-1.367 14.456-6.547 18.59-12.754v19.33H15.03v-6.133c1.417-.026 4.235-.08 4.428-.098a.496.496 0 0 0 .448-.54.493.493 0 0 0-.538-.446c-.185.014-2.534.06-4.338.094V16.521h.25a.846.846 0 0 0 .849-.918.845.845 0 0 0-.162-.432l-1.756-2.406a.852.852 0 0 0-.687-.35.85.85 0 0 0-.685.35l-1.757 2.406a.845.845 0 0 0-.071.885.846.846 0 0 0 .757.465h.252v24.752a.495.495 0 0 0 .495.495h7.548v.436a.495.495 0 1 0 .99 0v-.436h6.213v.436a.495.495 0 1 0 .99 0v-.436h6.213v.436a.495.495 0 0 0 .99 0v-2.456h5.487a.494.494 0 0 0 .497-.495v-.47l2.027 1.48-2.027 1.48v-.47a.495.495 0 0 0-.495-.495h-3.672a.495.495 0 1 0 0 .99h3.177v.251a.846.846 0 0 0 .85.85.847.847 0 0 0 .5-.163l2.406-1.757a.852.852 0 0 0 .256-1.071.85.85 0 0 0-.256-.3Zm-31.2 1.202V16.026a.495.495 0 0 0-.494-.495h-.47l1.48-2.027 1.48 2.027h-.47a.495.495 0 0 0-.495.495v23.227a.495.495 0 0 0 .495.495h5.528v1.03H13.01Zm8.044 0v-1.03h6.213v1.03h-6.213Zm13.416 0h-6.213v-1.03h6.213v1.03Z" fill="#fff"/><path d="M34.473 34.513a.495.495 0 0 0 .99 0v-.063a.495.495 0 1 0-.99 0v.063Zm0 2.407a.495.495 0 0 0 .99 0v-.064a.495.495 0 1 0-.99 0v.064Zm0-4.82a.495.495 0 0 0 .99 0v-.063a.495.495 0 1 0-.99 0v.063Zm0-2.406a.495.495 0 1 0 .99 0v-.064a.495.495 0 0 0-.99 0v.064Zm.495-1.944a.495.495 0 0 0 .494-.495v-.063a.495.495 0 1 0-.99 0v.063a.495.495 0 0 0 .496.495Zm-7.698 6.763a.495.495 0 1 0 .99 0v-.063a.495.495 0 1 0-.99 0v.063Zm0 2.407a.495.495 0 1 0 .99 0v-.064a.495.495 0 1 0-.99 0v.064Zm.494-4.325a.495.495 0 0 0 .495-.495v-.063a.495.495 0 1 0-.99 0v.063a.495.495 0 0 0 .495.495Zm-6.708 1.855a.495.495 0 1 0-.99 0v.063a.495.495 0 0 0 .99 0v-.063Zm-.495 1.911a.495.495 0 0 0-.495.495v.064a.495.495 0 1 0 .99 0v-.064a.495.495 0 0 0-.495-.495Z" fill="#fff"/></svg>