<svg width="156" height="74" viewBox="0 0 156 74" fill="none" xmlns="http://www.w3.org/2000/svg">
<g clip-path="url(#clip0_2023_173)">
<path d="M87.334 44.8716C87.5575 44.7393 87.7889 44.615 88.0164 44.4866C88.1281 44.3182 88.2718 44.1618 88.4474 44.0455C91.065 42.3371 93.9261 41.2703 96.899 40.6567C102.071 39.0686 107.521 38.4108 112.944 38.7638C117.278 39.0485 121.587 39.9348 125.65 41.4909C127.198 42.0844 129.608 42.718 130.123 44.5548C130.239 44.9679 130.235 45.385 130.135 45.774C130.362 46.2392 130.295 46.7846 130.035 47.2338C130.382 47.6348 130.63 48.1081 130.725 48.6896C130.913 49.8566 130.031 51.0156 128.762 50.6627C128.204 50.5063 127.641 50.3579 127.082 50.2055C125.111 52.3792 122.892 54.3202 120.466 55.9685C120.127 56.9471 119.129 57.6689 118.08 57.4965C116.747 58.3266 115.099 59.2811 113.511 59.7062C113.228 60.9535 111.584 61.8598 110.295 61.2783C109.66 62.0924 108.587 62.5015 107.593 61.7435C107.442 61.6312 107.302 61.5109 107.15 61.3946C107.138 61.3826 107.13 61.3746 107.118 61.3625C104.936 59.6661 102.897 57.8454 100.997 55.8883C99.0139 54.3643 97.0865 52.7682 95.231 51.0798C94.1376 50.0852 94.6045 48.477 95.5822 47.687C95.626 47.6108 95.6779 47.5346 95.7378 47.4624C93.2039 47.5987 90.67 47.7391 88.1441 47.8514C86.528 47.9236 86.0132 45.6457 87.338 44.8636L87.334 44.8716ZM117.972 51.7094C118.104 51.8257 118.236 51.946 118.367 52.0704C118.539 51.9501 118.71 51.8257 118.882 51.7014C118.742 51.6934 118.599 51.6814 118.459 51.6693C118.299 51.6854 118.136 51.6974 117.976 51.7094H117.972Z" fill="#F1BBA2"/>
<path d="M90.8559 32.6519C91.1831 30.4462 90.9277 28.2164 91.7138 26.0908C92.1448 24.9318 92.6955 23.8811 92.7952 22.6178C92.887 21.4428 92.7074 20.2597 92.6835 19.0846C92.6436 17.1115 92.8431 15.1223 93.306 13.2013C95.0737 5.87025 101.147 -0.301804 108.96 0.0350726C109.1 0.0350726 109.176 0.0270518 109.275 0.0190309C117.149 -0.386023 123.354 5.72989 125.129 13.1011C125.592 15.0221 125.792 17.0112 125.752 18.9844C125.728 20.1594 125.552 21.3425 125.64 22.5176C125.736 23.7808 126.29 24.8316 126.721 25.9906C127.512 28.1161 127.252 30.3459 127.579 32.5517C127.863 34.4686 129.04 36.2092 128.509 38.1743C128.465 38.3347 128.298 38.4791 128.126 38.467C124.008 38.1783 119.958 39.3453 116.075 37.669C113.936 36.7466 109.319 36.4017 109.295 33.3818C109.248 33.3818 109.196 33.3818 109.148 33.3738C109.232 36.4899 104.531 36.8348 102.368 37.7692C98.4855 39.4416 94.4353 38.2785 90.3172 38.5673C90.1456 38.5793 89.974 38.435 89.9341 38.2745C89.4034 36.3094 90.5806 34.5729 90.8639 32.6519H90.8559Z" fill="#363537"/>
<path d="M43.772 45.7059C43.8877 45.726 43.9875 45.7621 44.0793 45.8062C43.9596 44.7715 45.456 44.0576 45.9069 45.1485C49.2548 53.2135 52.9818 62.1808 61.0903 66.4679C64.6577 68.3528 77.0837 70.4423 80.8906 53.2215C80.9824 52.8124 84.2744 58.8842 84.6096 59.1168C86.13 60.1836 87.6463 61.2544 89.1666 62.3212C90.1922 63.043 91.8881 63.8411 92.3988 65.0964C93.2129 67.0976 93.4244 63.4922 92.3988 65.0964C80.1404 84.2743 63.8756 80.5365 58.6681 77.6169C53.333 74.6252 49.2827 68.1603 46.693 62.7824C45.0689 59.4096 43.8 55.8483 42.934 52.2068C42.6627 51.0719 40.7872 45.2367 43.768 45.7059H43.772Z" fill="#F1BBA2"/>
<path d="M103.59 40.1597L101.89 19.2373C101.89 18.4392 103.778 21.034 104.444 21.5192C107.836 23.9776 110.549 24.7356 114.604 25.1607C114.727 25.1727 114.835 25.2088 114.935 25.2489C115.501 25.2489 115.457 25.5216 115.453 26.2555C115.437 30.9477 116.491 40.0274 115.441 44.6394C115.17 45.8385 114.895 44.0338 113.65 44.5752C112.808 44.9401 111.252 44.7797 110.326 44.8599C109.145 44.9602 109.28 44.8318 108.099 44.9321C106.81 45.0404 105.162 45.9909 104.069 44.9441C103.003 43.9255 103.582 41.3909 103.586 40.1597H103.59Z" fill="#F1BBA2"/>
<path d="M97.0937 11.4175C97.0737 8.90696 98.2389 7.85623 100.246 6.76539C111.06 0.890109 120.769 6.26409 120.836 7.8081C121.108 14.0844 121.643 22.0893 118.742 27.76C116.571 32.007 112.321 35.7648 107.469 33.6754C102.405 31.4937 97.1934 25.3537 97.0937 11.4175Z" fill="#F1BBA2"/>
<path d="M31.0051 38.9807C30.5621 38.4955 30.0354 37.8779 30.0035 37.4006C29.9197 36.1614 31.3562 37.0758 31.7832 37.4608C32.681 38.2629 33.5669 39.069 34.4926 39.843C34.9595 40.232 35.4144 40.6411 35.9012 41.002C36.1407 41.1784 37.4854 42.0046 37.8007 41.6757C36.5198 40.4365 35.2428 39.1973 33.9739 37.946C33.4472 37.4247 31.6395 35.8446 32.1024 34.9142C32.1583 34.7979 32.258 34.7457 32.3857 34.7497C33.8582 34.8139 35.3546 36.5023 36.3003 37.4969C36.9308 38.1626 37.8925 39.6665 38.7783 39.9753C39.0257 40.0595 39.2372 40.0355 39.4248 39.9392C39.6163 39.6866 39.7959 39.4219 39.9555 39.1411C40.0433 38.9286 40.143 38.7201 40.2548 38.5235C40.2787 38.4714 40.3026 38.4233 40.3226 38.3671C40.3465 38.311 40.3825 38.2749 40.4224 38.2468C40.7855 37.6894 41.2723 37.2202 41.9507 36.9154C43.1039 36.398 45.2348 36.1093 46.2004 37.0998C46.3441 37.2482 46.2483 37.4287 46.0967 37.4929C46.0049 37.6653 45.9291 37.6974 45.6777 37.7896C44.9953 38.0423 44.2771 38.0824 43.6147 38.4233C42.7368 38.8765 42.0265 39.5302 41.5796 40.3443C41.3641 41.2707 41.5237 42.2252 42.1582 43.0353C42.7448 43.7812 43.5668 44.1341 44.4367 44.3587C44.4447 44.3306 44.4526 44.2986 44.4726 44.2705C45.3585 42.923 45.7256 41.391 45.8972 39.7989C45.973 39.1131 45.7455 37.8578 46.4199 37.4327C46.5436 37.3565 46.6713 37.3886 46.7591 37.4648C46.8269 37.4808 46.8908 37.5249 46.9307 37.6052C47.5612 38.8283 47.8325 40.3603 47.7008 41.7359C47.5971 42.8267 47.0863 43.7812 46.5436 44.7116C46.4558 45.4536 46.6912 46.1233 46.8748 46.9094C46.9985 47.4387 47.1461 48.2488 46.8987 48.8063C46.9067 48.8384 46.9107 48.8745 46.9107 48.9106C46.9107 48.9386 46.9107 48.9667 46.9107 48.9948C46.9107 49.0991 46.791 49.2234 46.6833 49.2234C46.6633 49.2234 46.6434 49.2234 46.6194 49.2234C46.5995 49.2234 46.5835 49.2154 46.5675 49.2154C46.5077 49.2555 46.4478 49.2916 46.376 49.3196C46.3201 49.3437 46.2683 49.3397 46.2204 49.3276C45.8493 49.5843 45.3624 50.0255 45.1789 50.1297C44.9634 50.2541 44.728 50.4586 44.4686 50.4907C44.0257 50.5508 43.5788 50.238 43.2156 50.0174C41.6753 49.087 40.2707 47.8037 38.9978 46.5404C38.7264 46.2717 38.4152 45.991 38.1199 45.6942C37.2141 45.1087 36.3442 44.467 35.5142 43.8494C34.4487 43.0553 33.4192 42.2091 32.4336 41.3148C31.839 40.7734 30.9013 40.1237 30.8853 39.2414C30.8853 39.1171 30.9253 39.0369 31.021 38.9727L31.0051 38.9807Z" fill="#F1BBA2"/>
<path d="M114.211 18.8447C114.199 19.5906 114.546 20.2002 114.985 20.2082C115.424 20.2163 115.787 19.6147 115.795 18.8688C115.807 18.1228 115.46 17.5132 115.021 17.5052C114.582 17.4972 114.219 18.0988 114.211 18.8447Z" fill="#363537"/>
<path d="M103.528 19.0848C103.536 19.8308 103.899 20.4323 104.334 20.4243C104.773 20.4203 105.12 19.8107 105.112 19.0648C105.104 18.3188 104.741 17.7173 104.306 17.7253C103.871 17.7333 103.52 18.3389 103.528 19.0848Z" fill="#363537"/>
<path d="M101.501 15.1161C101.522 15.0961 101.923 14.986 101.94 14.986C103.193 14.706 104.902 14.4884 106.105 14.8535C106.73 15.0435 107.342 15.5087 106.461 15.7337C105.708 15.9263 104.629 15.8988 103.834 15.9138C103.189 15.9238 102.403 15.9938 101.791 15.8188C101.05 15.6087 101.021 15.3486 101.501 15.1136V15.1161Z" fill="#363537"/>
<path d="M117.814 15.6384C117.236 15.8489 116.438 15.834 115.789 15.8662C114.99 15.9059 113.917 16.0024 113.131 15.8638C112.207 15.7003 112.735 15.2025 113.322 14.9722C114.458 14.5314 116.205 14.6329 117.507 14.8261C117.523 14.8261 117.943 14.9054 117.968 14.9252C118.492 15.1233 118.513 15.3808 117.81 15.6384H117.814Z" fill="#363537"/>
<path d="M106.074 26.7646C109.908 28.1402 113.328 26.4999 113.532 26.5641C113.615 26.5922 113.703 26.6563 113.687 26.7486C113.36 28.4169 111.477 29.3554 110.012 29.4396C108.484 29.5278 106.345 28.6215 105.842 27.0173C105.798 26.8809 105.922 26.7045 106.078 26.7606L106.074 26.7646Z" fill="white"/>
<path d="M108.784 24.7754C109.841 25.0361 110.819 24.6912 110.93 23.5081C110.982 22.9586 110.803 22.2488 110.739 21.6994C110.607 20.5163 110.456 19.3372 110.296 18.1622C110.26 17.9055 110.659 17.8855 110.695 18.1421C110.831 19.1327 110.958 20.1273 111.074 21.1219C111.174 21.9961 111.441 23.0228 111.334 23.9011C111.186 25.1524 109.709 25.4211 108.7 25.1684C108.452 25.1082 108.536 24.7152 108.784 24.7754Z" fill="#CF9980"/>
<path d="M97.1678 17.4122C98.1494 16.4658 99.8453 17.3922 100.177 18.5231C100.248 18.7677 100.089 18.9241 99.8932 18.9562C100.069 19.3653 100.173 19.8506 100.2 20.3358C100.356 20.9093 100.416 21.4748 100.324 21.8798C100.324 22.0844 100.312 22.2889 100.296 22.4934C100.384 22.726 100.416 22.9627 100.324 23.1832C99.7296 24.6029 97.8741 22.6298 97.5309 22.0042C96.9164 20.8772 96.0625 18.483 97.1718 17.4162L97.1678 17.4122Z" fill="#F1BBA2"/>
<path d="M96.7741 14.6051C96.7502 14.565 96.7302 14.5249 96.7182 14.4808C96.1436 14.4688 95.5171 13.9394 95.6488 13.1333C95.8364 11.9863 96.2075 10.9396 96.7063 9.97708C96.3631 9.68031 96.1835 9.17099 96.4668 8.6376C97.5961 6.52811 99.727 5.12446 102.057 4.27826C102.057 3.74086 102.377 3.16737 103.011 3.09919C104.839 2.90268 106.67 2.80242 108.502 2.81846C108.558 2.47758 108.773 2.18883 109.204 2.09659C110.705 1.78778 112.057 2.05648 113.414 2.45351C113.625 2.07252 114.033 1.80783 114.519 1.92414C115.385 2.12867 116.251 2.56581 117.073 3.09117C117.428 2.70617 118.031 2.53773 118.534 2.97086C119.934 4.178 121.427 5.51748 121.67 7.51869C121.722 7.93577 121.518 8.24458 121.223 8.41301C121.862 9.87682 122.317 11.4289 122.576 13.0651C122.728 14.0116 121.838 14.577 121.211 14.3725C121.327 14.9901 121.407 15.6198 121.459 16.2534C121.499 16.7868 120.768 16.8149 120.676 16.3216C120.676 16.3136 120.669 16.3096 120.665 16.3015C119.531 12.9207 116.61 11.497 113.721 10.314C111.678 9.47578 110.25 7.95984 109.336 5.92655C109.104 7.1377 108.737 8.3288 107.943 9.29531C106.81 10.6789 105.13 10.9917 103.626 11.7938C101.734 12.8004 100.96 14.4768 99.5634 15.9807C99.1364 16.4419 97.66 17.2039 97.5083 16.9673C97.2091 16.9352 96.8978 16.8349 96.5706 16.6384C96.0199 16.3096 96.3471 15.5315 96.8579 15.5155C96.814 15.4313 96.7821 15.331 96.7741 15.2107C96.7621 15.0102 96.7581 14.8097 96.7581 14.6091L96.7741 14.6051Z" fill="#363537"/>
<path d="M98.4971 18.7364C98.509 19.5345 98.6926 20.2925 99.0477 21.0064C99.1635 21.2349 98.8163 21.4395 98.7046 21.2069C98.3175 20.4288 98.114 19.6027 98.098 18.7364C98.094 18.4798 98.4931 18.4798 98.4971 18.7364Z" fill="#CF9980"/>
<path d="M120.102 20.7416C120.406 20.0598 120.573 19.3459 120.609 18.604C120.621 18.3473 121.02 18.3473 121.008 18.604C120.968 19.4221 120.781 20.2002 120.446 20.9461C120.342 21.1827 119.995 20.9782 120.102 20.7456V20.7416Z" fill="#F57256"/>
<path d="M116.224 8.48903C117.868 10.41 119.512 12.4152 120.59 14.6731C120.685 13.6424 122.246 13.2695 122.521 14.4365C123.778 19.7463 124.464 25.1484 124.576 30.6025C124.62 30.9274 124.632 31.2683 124.596 31.6252C124.48 32.8885 122.609 32.9366 122.601 31.6252C122.601 31.3806 122.589 31.1399 122.585 30.8953C122.381 29.3192 121.116 28.0439 120.49 26.5961C119.752 24.8917 119.788 23.0589 119.82 21.2382C119.895 16.5099 117.784 13.3777 114.812 9.9007C113.978 8.92617 115.386 7.50246 116.224 8.48101V8.48903Z" fill="#363537"/>
<path d="M87.4298 47.7354C87.4817 46.2836 87.9885 44.9963 88.7706 43.8733C91.2965 42.2852 94.0379 41.2746 96.883 40.6851C97.1025 40.9417 97.3419 41.2225 97.6252 41.5152C99.8958 43.8693 102.657 45.7943 105.79 46.7769C112.17 48.7701 118.85 46.2756 122.03 40.3281C123.255 40.669 124.465 41.062 125.65 41.5152C127.198 42.1088 129.608 42.7424 130.123 44.5792C130.239 44.9923 130.235 45.4093 130.135 45.7984C130.362 46.2636 130.295 46.809 130.035 47.2582C130.382 47.6592 130.63 48.1324 130.725 48.7139C130.913 49.881 130.031 51.04 128.762 50.6871C128.204 50.5307 127.641 50.3823 127.082 50.2299C125.111 52.4035 122.892 54.3446 120.466 55.9929C120.127 56.9714 119.129 57.6933 118.08 57.5208C116.747 58.351 115.099 59.3055 113.511 59.7306C113.228 60.9778 111.584 61.8842 110.295 61.3027C109.66 62.1168 108.587 62.5259 107.593 61.7679C107.442 61.6556 107.302 61.5353 107.15 61.419C107.138 61.407 107.13 61.3989 107.118 61.3869C104.936 59.6905 102.897 57.8698 100.997 55.9127C99.0139 54.3887 97.0865 52.7925 95.231 51.1042C94.1376 50.1096 94.6045 48.5014 95.5822 47.7113C95.626 47.6351 95.6779 47.5589 95.7378 47.4867C93.2039 47.6231 90.67 47.7635 88.1441 47.8758C87.8727 47.8878 87.6373 47.8276 87.4298 47.7274V47.7354ZM118.367 52.0947C118.539 51.9744 118.71 51.8501 118.882 51.7258C118.742 51.7178 118.599 51.7057 118.459 51.6937C118.299 51.7097 118.136 51.7218 117.976 51.7338C118.108 51.8501 118.24 51.9704 118.371 52.0947H118.367Z" fill="#FFFBB9"/>
<path d="M43.8382 60.9538C43.491 60.26 43.3194 59.3537 43.1279 58.8203C42.8166 57.95 41.8191 56.3498 42.1981 55.3954C42.6052 54.3767 44.6802 53.9436 45.566 53.5466C46.6554 53.0613 48.5029 51.7258 49.728 51.8301C50.6099 51.9023 50.8573 52.5239 51.2164 53.2738C51.8748 54.6534 52.4135 56.0892 52.9083 57.5369C54.9354 56.9233 56.763 58.0142 58.2874 59.494C59.5563 60.7292 60.6896 62.1088 62.4254 62.7024C64.5004 63.4162 66.5514 62.6663 68.4429 61.804C69.5722 61.2907 70.7573 61.1102 71.9504 61.006C74.2649 59.5061 76.3718 57.7615 78.0996 55.4475C79.8275 53.1375 85.3661 46.3599 86.252 45.4174C88.1993 43.352 90.6653 41.816 93.6661 40.9137C98.1712 47.2943 103.554 53.1014 109.707 57.8858C110.142 58.2267 110.825 58.4914 111.34 58.0984C114.775 55.4716 126.188 42.3735 126.886 41.1864C137.221 44.9321 141.93 53.0533 146.638 62.6542C148.239 65.1287 149.771 67.7595 151.702 69.9693C153.59 72.1229 156.112 73.5466 158.067 75.632C159.328 76.9795 160.369 78.0262 162.365 78.0864C163.649 78.1265 164.918 77.8417 166.203 78.0222C167.193 78.1626 168.071 78.4995 168.757 79.0689C169.352 78.7882 169.942 78.5075 170.537 78.2268C171.191 77.918 171.874 77.4928 172.596 77.3846C172.752 77.3605 172.891 77.3846 173.015 77.4287C173.402 77.3204 173.861 77.4608 174.012 77.954C174.4 79.2173 174.783 80.4846 175.17 81.7479C175.469 82.7345 176.243 84.2544 176.175 85.2851C176.072 86.8211 173.159 87.4548 171.834 87.8718C169.168 90.8556 166.115 94.0038 161.898 94.3166C159.643 94.485 157.572 93.4343 155.349 93.33C152.816 93.2057 150.393 93.9075 147.832 93.6228C145.952 93.4143 143.809 93.2699 142.117 92.3515C140.338 91.389 139.029 89.5803 137.812 88.0122C136.527 86.3519 135.382 84.6033 134.36 82.7866C133.638 85.0164 133.079 87.3465 133.103 88.706C133.167 92.3956 133.315 93.0453 132.345 96.6427C132.089 97.5851 131.794 98.5155 131.471 99.4299C125.035 100.292 113.004 99.2214 106.858 99.1813C103.49 99.1572 95.2662 99.6505 91.9263 100.031C91.7188 100.056 91.5113 100.076 91.2998 100.1C90.8409 99.478 90.378 98.8644 89.9431 98.2228C88.8537 96.6186 88.8936 94.453 88.307 92.6122C87.481 90.0094 86.1602 81.6998 85.2145 77.9741C83.8817 78.7441 81.3318 80.0515 79.9911 80.8095C77.7245 82.0888 75.3383 83.304 72.6926 83.4363C70.071 83.5646 67.4054 82.5941 64.9992 81.6557C63.6504 81.1303 62.3456 80.4044 60.909 80.1838C59.273 79.9352 57.6329 80.3763 55.9929 80.1558C52.0304 79.6224 47.226 75.7202 46.1327 71.8101C45.7057 70.2861 45.4702 69.0589 44.5126 67.7234C43.7823 66.7088 42.9803 65.7022 42.685 64.4549C42.3578 63.0593 42.8007 61.7318 43.8342 60.9378L43.8382 60.9538Z" fill="#F3EB5D"/>
<path d="M88.3448 69.6647C89.5619 66.8493 90.6832 63.9538 91.2059 60.9139C91.7446 57.7777 91.5411 54.5453 90.6632 51.4894C89.937 48.9588 88.7518 46.5886 87.1836 44.4992C87.2834 44.411 87.3831 44.3268 87.4829 44.2385C90.4517 48.2008 92.0638 53.1537 91.8883 58.1387C91.6648 64.4952 88.4126 70.1379 86.0623 75.8808C85.767 76.6027 85.4837 77.3326 85.2243 78.0665C85.2163 78.0384 85.2084 78.0104 85.2044 77.9823C85.0687 78.0625 84.9131 78.1467 84.7535 78.239C85.767 75.3194 87.1198 72.488 88.3408 69.6647H88.3448ZM136.708 47.3747C136.848 47.511 136.984 47.6474 137.119 47.7837C136.844 56.2738 133.696 64.9364 133.883 73.3984C133.967 77.0559 134.573 80.6733 135.224 84.2666C135.024 83.9458 134.837 83.6169 134.645 83.2921C134.202 80.7896 133.803 78.2791 133.604 75.7445C133.352 72.5241 133.528 69.3238 133.975 66.1315C134.849 59.8752 136.589 53.7232 136.708 47.3747Z" fill="#B0AB46"/>
<path d="M65.1824 64.2465C66.9062 65.3494 68.6939 66.332 70.5494 67.1982C70.7809 67.3065 70.5814 67.6514 70.3499 67.5431C68.4984 66.6769 66.7067 65.6943 64.9829 64.5914C64.7674 64.4551 64.9669 64.1062 65.1824 64.2465Z" fill="#B0AB46"/>
<path d="M44.1646 60.2077C46.8182 59.3214 49.4718 58.4271 52.1294 57.5528C52.3728 57.4726 52.4806 57.8616 52.2372 57.9378C49.5756 58.8081 46.9259 59.7064 44.2723 60.5927C44.0289 60.6729 43.9252 60.2879 44.1646 60.2077Z" fill="#B0AB46"/>
</g>
<defs>
<clipPath id="clip0_2023_173">
<rect width="156" height="74" rx="10" fill="white"/>
</clipPath>
</defs>
</svg>
