<svg width="119" height="117" viewBox="0 0 119 117" fill="none" xmlns="http://www.w3.org/2000/svg">
<g clip-path="url(#clip0_2022_28)">
<path d="M64.5529 12C42.6057 11.9714 24.7224 29.8307 24.7227 51.778C24.7229 66.3679 32.5792 79.1211 44.2913 86.0429C46.3709 87.272 47.6298 89.5247 47.6298 91.9406V101.629C48.0259 101.464 48.451 101.379 48.8804 101.379H80.1198C80.5633 101.379 80.9855 101.468 81.3704 101.629V91.9403C81.3704 89.496 82.6762 87.25 84.7781 86.0022C96.4519 79.0708 104.277 66.3392 104.277 51.7777C104.278 29.8265 86.4972 12.0287 64.5529 12Z" fill="#FFD77C"/>
<path d="M58.1427 91.9406C58.1427 89.5249 56.884 87.272 54.8042 86.0429C43.0921 79.1209 35.2358 66.3679 35.2356 51.778C35.2353 31.6272 50.3116 14.9248 69.7667 12.3472C68.0382 12.1185 66.2967 12.0025 64.5532 12C42.6059 11.9714 24.7224 29.8305 24.7227 51.778C24.7229 66.3679 32.5792 79.1211 44.2913 86.0429C46.3711 87.272 47.6298 89.5249 47.6298 91.9406V101.629C48.0259 101.464 48.451 101.379 48.8804 101.379H58.1427V91.9406Z" fill="#EAB148"/>
<path d="M69.4844 103.286C68.9785 103.286 68.4933 103.085 68.1356 102.728C67.7779 102.37 67.5769 101.885 67.5769 101.379V84.3069C67.5769 82.5912 68.1546 80.8987 69.2032 79.5408L71.9329 76.0067C72.47 75.3089 72.7619 74.4534 72.7635 73.5728V55.7567C72.7635 55.2507 72.9645 54.7656 73.3222 54.4078C73.6799 54.0501 74.1651 53.8491 74.671 53.8491C75.1769 53.8491 75.6621 54.0501 76.0198 54.4078C76.3776 54.7656 76.5785 55.2507 76.5785 55.7567V73.5728C76.5785 75.2885 76.0008 76.981 74.9522 78.3389L72.2225 81.873C71.6854 82.5708 71.3934 83.4263 71.392 84.3069V101.379C71.392 101.885 71.191 102.37 70.8333 102.728C70.4755 103.085 69.9903 103.286 69.4844 103.286ZM59.5201 103.286C59.0142 103.286 58.529 103.085 58.1713 102.728C57.8136 102.37 57.6126 101.885 57.6126 101.379V84.3069C57.6126 83.4309 57.3176 82.5665 56.782 81.873L54.0521 78.3389C53.0004 76.9724 52.4288 75.2971 52.4258 73.5728V55.7567C52.4258 55.2507 52.6268 54.7656 52.9845 54.4078C53.3422 54.0501 53.8274 53.8491 54.3333 53.8491C54.8392 53.8491 55.3244 54.0501 55.6821 54.4078C56.0399 54.7656 56.2408 55.2507 56.2408 55.7567V73.5728C56.2408 74.449 56.5359 75.3132 57.0714 76.0065L59.8014 79.5406C60.8531 80.9071 61.4247 82.5823 61.4277 84.3067V101.379C61.4277 101.629 61.3784 101.877 61.2825 102.109C61.1867 102.34 61.0462 102.55 60.8691 102.728C60.6919 102.905 60.4816 103.045 60.2502 103.141C60.0187 103.237 59.7707 103.286 59.5201 103.286Z" fill="#EAB148"/>
<path d="M92.2491 43.9892C90.1848 36.2966 84.8814 29.8645 77.6987 26.3425C77.2534 26.1145 76.9154 25.7208 76.7576 25.2461C76.5998 24.7713 76.6347 24.2536 76.855 23.8044C77.0752 23.3552 77.463 23.0105 77.935 22.8445C78.4069 22.6785 78.9252 22.7046 79.3781 22.917C87.5497 26.9239 93.5841 34.2442 95.9338 43.0004C96.0559 43.486 95.9822 44.0002 95.7285 44.4319C95.4749 44.8636 95.0617 45.1783 94.5781 45.3081C94.0945 45.4379 93.5792 45.3724 93.1435 45.1256C92.7078 44.8789 92.3866 44.4707 92.2491 43.9892Z" fill="#FFEAC8"/>
<path d="M76.5755 59.7799H52.4242C51.9183 59.7799 51.4331 59.5789 51.0754 59.2212C50.7177 58.8635 50.5167 58.3783 50.5167 57.8724C50.5167 57.3665 50.7177 56.8813 51.0754 56.5235C51.4331 56.1658 51.9183 55.9648 52.4242 55.9648H76.5755C77.0814 55.9648 77.5666 56.1658 77.9243 56.5235C78.2821 56.8813 78.4831 57.3665 78.4831 57.8724C78.4831 58.3783 78.2821 58.8635 77.9243 59.2212C77.5666 59.5789 77.0814 59.7799 76.5755 59.7799ZM15.4698 52.6668H8.90753C8.40162 52.6668 7.91643 52.4658 7.5587 52.1081C7.20097 51.7503 7 51.2652 7 50.7592C7 50.2533 7.20097 49.7682 7.5587 49.4104C7.91643 49.0527 8.40162 48.8517 8.90753 48.8517H15.4698C15.9757 48.8517 16.4609 49.0527 16.8187 49.4104C17.1764 49.7682 17.3774 50.2533 17.3774 50.7592C17.3774 51.2652 17.1764 51.7503 16.8187 52.1081C16.4609 52.4658 15.9757 52.6668 15.4698 52.6668ZM17.3425 40.5614L11.2071 38.2329C10.741 38.0484 10.3661 37.6879 10.1637 37.2293C9.96126 36.7706 9.9475 36.2507 10.1254 35.782C10.3033 35.3133 10.6585 34.9334 11.1143 34.7246C11.5701 34.5157 12.0897 34.4947 12.5609 34.666L18.6963 36.9945C19.1625 37.1789 19.5373 37.5394 19.7397 37.9981C19.9422 38.4567 19.9559 38.9766 19.778 39.4454C19.6001 39.9141 19.2449 40.2939 18.7891 40.5028C18.3334 40.7116 17.8137 40.7327 17.3425 40.5614ZM10.1005 65.7457C9.92108 65.2727 9.93684 64.7478 10.1444 64.2864C10.3519 63.825 10.7342 63.4649 11.2071 63.2854L17.3425 60.9569C17.8137 60.7856 18.3334 60.8066 18.7891 61.0155C19.2449 61.2243 19.6001 61.6042 19.778 62.0729C19.9559 62.5416 19.9422 63.0615 19.7397 63.5202C19.5373 63.9788 19.1625 64.3393 18.6963 64.5238L12.5609 66.8523C12.3267 66.9412 12.0772 66.9831 11.8268 66.9756C11.5764 66.9681 11.33 66.9113 11.1015 66.8086C10.873 66.7058 10.6671 66.559 10.4953 66.3767C10.3236 66.1943 10.1894 65.9799 10.1005 65.7457ZM120.092 52.6668H113.53C113.024 52.6668 112.539 52.4658 112.181 52.1081C111.824 51.7503 111.623 51.2652 111.623 50.7592C111.623 50.2533 111.824 49.7682 112.181 49.4104C112.539 49.0527 113.024 48.8517 113.53 48.8517H120.092C120.598 48.8517 121.084 49.0527 121.441 49.4104C121.799 49.7682 122 50.2533 122 50.7592C122 51.2652 121.799 51.7503 121.441 52.1081C121.084 52.4658 120.598 52.6668 120.092 52.6668ZM109.197 39.4545C109.017 38.9815 109.033 38.4566 109.241 37.9952C109.448 37.5338 109.83 37.1738 110.303 36.9942L116.439 34.6657C116.91 34.4944 117.43 34.5155 117.885 34.7243C118.341 34.9332 118.696 35.313 118.874 35.7817C119.052 36.2505 119.038 36.7704 118.836 37.229C118.634 37.6877 118.259 38.0482 117.793 38.2326L111.657 40.5614C111.184 40.7408 110.659 40.7251 110.198 40.5175C109.737 40.3099 109.376 39.9276 109.197 39.4545ZM116.439 66.8525L110.304 64.524C109.838 64.3396 109.463 63.9791 109.26 63.5204C109.058 63.0618 109.044 62.5419 109.222 62.0731C109.4 61.6044 109.755 61.2246 110.211 61.0157C110.667 60.8069 111.186 60.7858 111.657 60.9571L117.793 63.2856C118.259 63.47 118.634 63.8306 118.836 64.2892C119.039 64.7479 119.052 65.2678 118.875 65.7365C118.697 66.2052 118.341 66.5851 117.886 66.7939C117.43 67.0028 116.91 67.0238 116.439 66.8525Z" fill="#FFEDC2"/>
<path d="M80.118 110.626H48.8783C47.0532 110.626 45.5684 112.111 45.5684 113.936V116.753C45.5684 118.579 47.0532 120.064 48.8783 120.064H80.118C81.9433 120.064 83.4281 118.579 83.4281 116.753V113.936C83.4281 112.111 81.9433 110.626 80.118 110.626Z" fill="#EFECEF"/>
<path d="M80.1182 115.345H48.8785C47.3838 115.345 46.1187 114.349 45.7091 112.985C45.616 113.294 45.5686 113.614 45.5684 113.936V116.754C45.5684 118.579 47.0532 120.064 48.8783 120.064H80.118C81.9433 120.064 83.4281 118.579 83.4281 116.754V113.936C83.4281 113.605 83.378 113.287 83.2874 112.985C82.8781 114.349 81.6129 115.345 80.1182 115.345Z" fill="#E2DFE2"/>
<path d="M80.118 101.315H48.8783C47.0532 101.315 45.5684 102.8 45.5684 104.625V107.443C45.5684 109.268 47.0532 110.753 48.8783 110.753H80.118C81.9433 110.753 83.4281 109.268 83.4281 107.443V104.625C83.4281 102.8 81.9433 101.315 80.118 101.315Z" fill="#EFECEF"/>
<path d="M80.1182 106.034H48.8785C47.3838 106.034 46.1187 105.038 45.7091 103.675C45.616 103.983 45.5686 104.303 45.5684 104.625V107.443C45.5684 109.268 47.0532 110.753 48.8783 110.753H80.118C81.9433 110.753 83.4281 109.268 83.4281 107.443V104.625C83.4281 104.295 83.378 103.976 83.2874 103.675C82.8781 105.038 81.6129 106.034 80.1182 106.034Z" fill="#E2DFE2"/>
</g>
<defs>
<clipPath id="clip0_2022_28">
<path d="M0 0H119V85C119 102.673 104.673 117 87 117H0V0Z" fill="white"/>
</clipPath>
</defs>
</svg>
