<svg width="111" height="76" viewBox="0 0 111 76" fill="none" xmlns="http://www.w3.org/2000/svg">
<g clip-path="url(#clip0_2023_117)">
<path d="M52.9205 30.8463C53.0766 31.5773 53.1557 32.3227 53.1565 33.0702C53.1565 39.6709 47.1702 45.0408 39.8116 45.0408C32.4533 45.0408 26.467 39.6709 26.467 33.0702C26.467 32.1718 26.5814 31.2977 26.7915 30.4554H23.2667L23.2462 30.455C23.0837 31.3173 23.0013 32.1929 23 33.0704C23 41.5828 30.5416 48.508 39.8116 48.508C49.0816 48.508 56.6235 41.5828 56.6235 33.0704C56.6235 32.3153 56.5638 31.5729 56.449 30.8465L52.9205 30.8463Z" fill="#F3C55C"/>
<path d="M24.9427 32.5524C25.7827 32.5524 26.4955 31.9484 26.6469 31.1221C27.687 25.4448 33.1939 21.0995 39.8126 21.0995C46.4316 21.0995 51.9385 25.4448 52.9786 31.1221C53.13 31.9484 53.8426 32.5524 54.6827 32.5524C55.7598 32.5524 56.5826 31.5784 56.3901 30.5189C55.0622 23.2167 48.1361 17.6326 39.8129 17.6326C31.4896 17.6326 24.5637 23.2165 23.2358 30.5189C23.0428 31.5784 23.8657 32.5524 24.9427 32.5524Z" fill="#FFD77C"/>
<path d="M84.1881 48.5079C74.9181 48.5079 67.3765 41.5827 67.3765 33.0703C67.3765 24.558 74.9181 17.6326 84.1881 17.6326C93.4581 17.6326 101 24.558 101 33.0703C101 41.5827 93.4581 48.5079 84.1881 48.5079ZM84.1881 21.0995C76.8298 21.0995 70.8434 26.4694 70.8434 33.0703C70.8434 39.671 76.8298 45.0409 84.1881 45.0409C91.5466 45.0409 97.5329 39.671 97.5329 33.0703C97.5329 26.4694 91.5464 21.0995 84.1881 21.0995Z" fill="#FDD272"/>
<path d="M78.156 90.1046C71.744 90.1046 66.4265 85.1404 65.9865 78.7435L64.2257 53.1466H59.5508C59.6026 53.4804 59.6306 53.8178 59.6306 54.1567V80.9883C59.6306 83.1168 57.0969 85.2543 54.7155 86.7932C52.1659 88.4407 50.6134 91.2563 50.6134 94.2918H78.2274V90.1046H78.156Z" fill="#FFD77C"/>
<path d="M54.9136 89.6001C55.28 89.491 55.6411 89.3647 55.9957 89.2217C61.162 87.1362 64.0937 81.6373 63.1927 76.1394L59.4248 53.1466L57.8288 78.6677C57.4269 85.0964 52.0956 90.1046 45.6542 90.1046V94.2916H51.4325V94.1903C51.4325 92.0531 52.8646 90.2093 54.9136 89.6001ZM53.9749 94.2918H88.2846V111.406H53.9749V94.2918Z" fill="#E4B854"/>
<path d="M74.9132 55.4252C82.3864 45.6201 87.3967 27.6052 87.3967 7.00024H47.6813V26.3303C47.6813 41.686 59.5908 54.4105 74.9132 55.4252Z" fill="#FFD77C"/>
<path d="M73.2177 51.3401C68.9667 51.3401 64.9593 49.0357 61.4371 44.962C60.5976 43.9913 61.6701 42.5292 62.8426 43.0508L62.8805 43.0681L65.8326 44.4408C67.417 45.1777 69.1941 43.8864 68.9831 42.1517L68.59 38.92C68.5508 38.5979 68.5824 38.2712 68.6827 37.9626C68.7829 37.654 68.9494 37.371 69.1703 37.1334L71.388 34.7502C72.5784 33.4709 71.8995 31.3817 70.1845 31.0465L66.9896 30.4218C66.6711 30.3595 66.3701 30.2285 66.1076 30.0378C65.8451 29.8471 65.6275 29.6013 65.4699 29.3176L63.8885 26.4722C63.0396 24.9449 60.8429 24.9449 59.9942 26.4722L58.4128 29.3176C58.2552 29.6013 58.0375 29.8471 57.775 30.0378C57.5125 30.2285 57.2115 30.3595 56.8931 30.4218L56.8528 30.4296C54.9862 30.7962 53.136 29.7145 52.5471 27.9057C50.5429 21.7515 49.087 14.6669 48.3379 7H36.4857C36.4857 38.0796 47.8824 63.2746 61.9412 63.2746C66.7971 63.2746 71.3351 60.2676 75.1957 55.0507C76.3435 53.4998 75.1987 51.3314 73.2692 51.3399L73.2177 51.3401Z" fill="#F3C55C"/>
<path d="M63.888 22.543L65.4694 25.3884C65.627 25.6721 65.8447 25.9178 66.1072 26.1085C66.3697 26.2993 66.6707 26.4303 66.9891 26.4925L70.1841 27.1173C71.8991 27.4527 72.5779 29.5419 71.3876 30.8209L69.1699 33.2041C68.9488 33.4417 68.7823 33.7247 68.682 34.0333C68.5818 34.3419 68.5502 34.6687 68.5895 34.9908L68.9826 38.2225C69.1937 39.9571 67.4165 41.2482 65.8321 40.5116L62.8801 39.1389C62.5859 39.0021 62.2653 38.9313 61.9409 38.9313C61.6164 38.9313 61.2959 39.0021 61.0017 39.1389L58.0496 40.5116C56.4652 41.2485 54.6881 39.9571 54.8991 38.2225L55.2922 34.9908C55.3314 34.6687 55.2997 34.3419 55.1995 34.0333C55.0993 33.7247 54.9328 33.4417 54.7119 33.2041L52.4942 30.8209C51.3038 29.5416 51.9827 27.4524 53.6977 27.1173L56.8926 26.4925C57.211 26.4303 57.512 26.2993 57.7745 26.1085C58.0371 25.9178 58.2547 25.6721 58.4123 25.3884L59.9937 22.543C60.8426 21.0156 63.0393 21.0156 63.888 22.543Z" fill="white"/>
</g>
<defs>
<clipPath id="clip0_2023_117">
<rect width="111" height="76" rx="10" fill="white"/>
</clipPath>
</defs>
</svg>
