<svg width="156" height="76" viewBox="0 0 156 76" fill="none" xmlns="http://www.w3.org/2000/svg">
<g clip-path="url(#clip0_2023_131)">
<path d="M110.031 10C97.0538 9.98309 86.4793 20.5434 86.4795 33.5209C86.4796 42.148 91.1251 49.689 98.0505 53.7819C99.2802 54.5086 100.025 55.8407 100.025 57.2692V62.9982C100.259 62.9003 100.51 62.8499 100.764 62.8502H119.236C119.498 62.8502 119.748 62.903 119.976 62.9982V57.2691C119.976 55.8237 120.748 54.4957 121.991 53.7578C128.893 49.6592 133.52 42.131 133.52 33.5207C133.521 20.5409 123.007 10.017 110.031 10Z" fill="#FFD77C"/>
<path d="M106.241 57.2692C106.241 55.8408 105.497 54.5086 104.267 53.7819C97.3414 49.6889 92.696 42.148 92.6958 33.5209C92.6957 21.6056 101.61 11.7294 113.114 10.2053C112.092 10.07 111.062 10.0015 110.031 10C97.054 9.98309 86.4793 20.5432 86.4795 33.5209C86.4796 42.148 91.1251 49.689 98.0505 53.7819C99.2803 54.5086 100.025 55.8408 100.025 57.2692V62.9982C100.259 62.9003 100.51 62.8499 100.764 62.8502H106.241V57.2692Z" fill="#EAB148"/>
<path d="M112.947 63.9781C112.648 63.9781 112.361 63.8593 112.15 63.6477C111.938 63.4362 111.819 63.1493 111.819 62.8502V52.7554C111.819 51.7409 112.161 50.7402 112.781 49.9372L114.395 47.8475C114.713 47.4348 114.885 46.929 114.886 46.4083V35.8735C114.886 35.5744 115.005 35.2875 115.217 35.076C115.428 34.8644 115.715 34.7456 116.014 34.7456C116.313 34.7456 116.6 34.8644 116.812 35.076C117.023 35.2875 117.142 35.5744 117.142 35.8735V46.4083C117.142 47.4228 116.8 48.4236 116.18 49.2265L114.566 51.3162C114.249 51.7288 114.076 52.2347 114.075 52.7554V62.8502C114.075 63.1493 113.956 63.4362 113.745 63.6477C113.533 63.8593 113.246 63.9781 112.947 63.9781ZM107.055 63.9781C106.756 63.9781 106.469 63.8593 106.258 63.6477C106.046 63.4362 105.927 63.1493 105.927 62.8502V52.7554C105.927 52.2375 105.753 51.7263 105.436 51.3162L103.822 49.2265C103.2 48.4185 102.862 47.4279 102.86 46.4083V35.8735C102.86 35.5744 102.979 35.2875 103.191 35.076C103.402 34.8644 103.689 34.7456 103.988 34.7456C104.288 34.7456 104.574 34.8644 104.786 35.076C104.998 35.2875 105.116 35.5744 105.116 35.8735V46.4083C105.116 46.9264 105.291 47.4374 105.607 47.8473L107.222 49.9371C107.844 50.7451 108.182 51.7357 108.183 52.7553V62.85C108.183 62.9982 108.154 63.1448 108.098 63.2817C108.041 63.4186 107.958 63.5429 107.853 63.6477C107.748 63.7524 107.624 63.8355 107.487 63.8922C107.35 63.9489 107.204 63.9781 107.055 63.9781Z" fill="#EAB148"/>
<path d="M126.408 28.9154C125.188 24.3667 122.052 20.5633 117.805 18.4808C117.541 18.346 117.341 18.1132 117.248 17.8325C117.155 17.5517 117.176 17.2456 117.306 16.98C117.436 16.7144 117.665 16.5106 117.944 16.4124C118.223 16.3143 118.53 16.3297 118.798 16.4553C123.63 18.8246 127.198 23.1531 128.587 28.3307C128.659 28.6178 128.616 28.9218 128.466 29.1771C128.316 29.4324 128.071 29.6185 127.786 29.6952C127.5 29.772 127.195 29.7332 126.937 29.5873C126.68 29.4414 126.49 29.2001 126.408 28.9154Z" fill="#FFEAC8"/>
<path d="M117.14 38.2522H102.86C102.56 38.2522 102.274 38.1334 102.062 37.9219C101.85 37.7104 101.732 37.4235 101.732 37.1243C101.732 36.8252 101.85 36.5383 102.062 36.3267C102.274 36.1152 102.56 35.9964 102.86 35.9964H117.14C117.439 35.9964 117.726 36.1152 117.938 36.3267C118.149 36.5383 118.268 36.8252 118.268 37.1243C118.268 37.4235 118.149 37.7104 117.938 37.9219C117.726 38.1334 117.439 38.2522 117.14 38.2522ZM81.0082 34.0462H77.1279C76.8288 34.0462 76.5419 33.9274 76.3304 33.7159C76.1188 33.5043 76 33.2174 76 32.9183C76 32.6191 76.1188 32.3323 76.3304 32.1207C76.5419 31.9092 76.8288 31.7904 77.1279 31.7904H81.0082C81.3074 31.7904 81.5943 31.9092 81.8058 32.1207C82.0173 32.3323 82.1362 32.6191 82.1362 32.9183C82.1362 33.2174 82.0173 33.5043 81.8058 33.7159C81.5943 33.9274 81.3074 34.0462 81.0082 34.0462ZM82.1156 26.8883L78.4877 25.5114C78.212 25.4023 77.9904 25.1892 77.8707 24.918C77.751 24.6468 77.7429 24.3393 77.8481 24.0622C77.9532 23.785 78.1633 23.5604 78.4328 23.4369C78.7023 23.3134 79.0096 23.301 79.2882 23.4023L82.9161 24.7791C83.1917 24.8882 83.4134 25.1014 83.5331 25.3726C83.6528 25.6438 83.6609 25.9512 83.5557 26.2283C83.4505 26.5055 83.2405 26.7301 82.971 26.8536C82.7015 26.9771 82.3942 26.9895 82.1156 26.8883ZM77.8334 41.7798C77.7272 41.5002 77.7366 41.1898 77.8593 40.9169C77.982 40.6441 78.208 40.4312 78.4877 40.325L82.1156 38.9482C82.3942 38.8469 82.7015 38.8593 82.971 38.9828C83.2405 39.1063 83.4505 39.3309 83.5557 39.6081C83.6609 39.8853 83.6528 40.1927 83.5331 40.4639C83.4134 40.7351 83.1917 40.9483 82.9161 41.0573L79.2882 42.4342C79.1497 42.4867 79.0022 42.5115 78.8541 42.5071C78.7061 42.5026 78.5603 42.4691 78.4252 42.4083C78.2902 42.3476 78.1684 42.2608 78.0668 42.153C77.9652 42.0451 77.8859 41.9183 77.8334 41.7798ZM142.872 34.0462H138.992C138.693 34.0462 138.406 33.9274 138.194 33.7159C137.983 33.5043 137.864 33.2174 137.864 32.9183C137.864 32.6191 137.983 32.3323 138.194 32.1207C138.406 31.9092 138.693 31.7904 138.992 31.7904H142.872C143.171 31.7904 143.458 31.9092 143.67 32.1207C143.881 32.3323 144 32.6191 144 32.9183C144 33.2174 143.881 33.5043 143.67 33.7159C143.458 33.9274 143.171 34.0462 142.872 34.0462ZM136.429 26.2338C136.323 25.9541 136.333 25.6437 136.455 25.3709C136.578 25.0981 136.804 24.8851 137.084 24.779L140.712 23.4021C140.99 23.3008 141.298 23.3133 141.567 23.4368C141.837 23.5603 142.047 23.7849 142.152 24.062C142.257 24.3392 142.249 24.6466 142.129 24.9178C142.009 25.189 141.788 25.4022 141.512 25.5113L137.884 26.8883C137.605 26.9944 137.294 26.985 137.021 26.8623C136.749 26.7396 136.536 26.5135 136.429 26.2338ZM140.712 42.4343L137.084 41.0575C136.808 40.9484 136.587 40.7352 136.467 40.464C136.347 40.1928 136.339 39.8854 136.444 39.6082C136.549 39.3311 136.76 39.1065 137.029 38.983C137.299 38.8595 137.606 38.847 137.884 38.9483L141.512 40.3252C141.788 40.4342 142.01 40.6474 142.129 40.9186C142.249 41.1898 142.257 41.4973 142.152 41.7744C142.047 42.0516 141.837 42.2762 141.567 42.3997C141.298 42.5232 140.99 42.5356 140.712 42.4343Z" fill="#FFEDC2"/>
<path d="M117.732 73.8235H102.267C101.187 73.8235 100.309 74.7015 100.309 75.7807V77.4467C100.309 78.5259 101.187 79.4039 102.267 79.4039H117.732C118.812 79.4039 119.69 78.5259 119.69 77.4467V75.7807C119.69 74.7015 118.812 73.8235 117.732 73.8235Z" fill="#EFECEF"/>
<path d="M117.732 76.6137H102.267C101.383 76.6137 100.635 76.0245 100.392 75.2186C100.337 75.4009 100.309 75.5903 100.309 75.7807V77.4468C100.309 78.5259 101.187 79.4039 102.267 79.4039H117.732C118.812 79.4039 119.69 78.5259 119.69 77.4468V75.7807C119.69 75.5852 119.66 75.3967 119.606 75.2186C119.364 76.0245 118.616 76.6137 117.732 76.6137Z" fill="#E2DFE2"/>
<path d="M119.235 68.318H100.763C99.6835 68.318 98.8055 69.196 98.8055 70.2752V71.9412C98.8055 73.0205 99.6835 73.8985 100.763 73.8985H119.235C120.314 73.8985 121.192 73.0205 121.192 71.9412V70.2752C121.192 69.196 120.314 68.318 119.235 68.318Z" fill="#EFECEF"/>
<path d="M119.235 71.1084H100.763C99.879 71.1084 99.131 70.5192 98.8888 69.7131C98.8337 69.8954 98.8057 70.0848 98.8055 70.2752V71.9413C98.8055 73.0206 99.6835 73.8986 100.763 73.8986H119.235C120.314 73.8986 121.192 73.0206 121.192 71.9413V70.2752C121.192 70.0797 121.163 69.8914 121.109 69.7131C120.867 70.5192 120.119 71.1084 119.235 71.1084Z" fill="#E2DFE2"/>
<path d="M119.235 62.8125H100.763C99.6835 62.8125 98.8055 63.6905 98.8055 64.7698V66.4359C98.8055 67.515 99.6835 68.393 100.763 68.393H119.235C120.314 68.393 121.192 67.515 121.192 66.4359V64.7698C121.192 63.6905 120.314 62.8125 119.235 62.8125Z" fill="#EFECEF"/>
<path d="M119.235 65.6029H100.763C99.879 65.6029 99.131 65.0136 98.8888 64.2078C98.8337 64.39 98.8057 64.5794 98.8055 64.7698V66.4359C98.8055 67.5151 99.6835 68.3931 100.763 68.3931H119.235C120.314 68.3931 121.192 67.5151 121.192 66.4359V64.7698C121.192 64.5743 121.163 64.3859 121.109 64.2078C120.867 65.0136 120.119 65.6029 119.235 65.6029Z" fill="#E2DFE2"/>
</g>
<defs>
<clipPath id="clip0_2023_131">
<rect width="156" height="76" rx="10" fill="white"/>
</clipPath>
</defs>
</svg>
