<svg width="156" height="99" viewBox="0 0 156 99" fill="none" xmlns="http://www.w3.org/2000/svg">
<g clip-path="url(#clip0_2024_234)">
<path d="M106.25 9.00003C89.0618 8.9776 75.0564 22.9642 75.0566 40.1523C75.0568 51.5785 81.2095 61.5663 90.3819 66.9871C92.0106 67.9497 92.9965 69.7139 92.9965 71.6059V79.1937C93.3067 79.064 93.6396 78.9973 93.9759 78.9976H118.441C118.789 78.9976 119.119 79.0676 119.421 79.1937V71.6057C119.421 69.6915 120.443 67.9325 122.089 66.9552C131.232 61.5269 137.36 51.5561 137.36 40.1521C137.36 22.961 123.436 9.02246 106.25 9.00003Z" fill="#FFD77C"/>
<path d="M101.23 71.6059C101.23 69.7141 100.244 67.9497 98.6152 66.9871C89.4428 61.5661 83.2901 51.5785 83.2899 40.1523C83.2897 24.3711 95.0968 11.2906 110.333 9.27189C108.979 9.09277 107.616 9.00195 106.25 9.00003C89.062 8.9776 75.0564 22.964 75.0566 40.1523C75.0568 51.5785 81.2095 61.5663 90.3819 66.9871C92.0108 67.9497 92.9965 69.7141 92.9965 71.6059V79.1937C93.3067 79.064 93.6396 78.9973 93.9759 78.9976H101.23V71.6059Z" fill="#EAB148"/>
<path d="M110.112 80.4915C109.716 80.4915 109.336 80.3341 109.056 80.054C108.776 79.7738 108.618 79.3938 108.618 78.9976V65.6276C108.618 64.284 109.071 62.9585 109.892 61.895L112.03 59.1273C112.45 58.5807 112.679 57.9108 112.68 57.2211V43.2683C112.68 42.8721 112.837 42.4921 113.118 42.212C113.398 41.9318 113.778 41.7744 114.174 41.7744C114.57 41.7744 114.95 41.9318 115.23 42.212C115.51 42.4921 115.668 42.8721 115.668 43.2683V57.2211C115.668 58.5648 115.215 59.8902 114.394 60.9537L112.256 63.7215C111.836 64.2679 111.607 64.938 111.606 65.6276V78.9976C111.606 79.3938 111.449 79.7738 111.168 80.054C110.888 80.3341 110.508 80.4915 110.112 80.4915ZM102.308 80.4915C101.912 80.4915 101.532 80.3341 101.252 80.054C100.972 79.7738 100.815 79.3938 100.815 78.9976V65.6276C100.815 64.9416 100.583 64.2646 100.164 63.7215L98.0261 60.9537C97.2025 59.8835 96.7548 58.5716 96.7524 57.2211V43.2683C96.7524 42.8721 96.9098 42.4921 97.19 42.212C97.4702 41.9318 97.8501 41.7744 98.2463 41.7744C98.6425 41.7744 99.0225 41.9318 99.3027 42.212C99.5828 42.4921 99.7402 42.8721 99.7402 43.2683V57.2211C99.7402 57.9073 99.9713 58.5841 100.391 59.1271L102.529 61.8948C103.352 62.965 103.8 64.277 103.802 65.6274V78.9974C103.802 79.1936 103.764 79.3879 103.689 79.5692C103.614 79.7505 103.504 79.9152 103.365 80.0539C103.226 80.1926 103.061 80.3027 102.88 80.3778C102.699 80.4529 102.505 80.4915 102.308 80.4915Z" fill="#EAB148"/>
<path d="M127.941 34.0526C126.324 28.0281 122.17 22.9907 116.545 20.2324C116.197 20.0539 115.932 19.7455 115.808 19.3737C115.685 19.0019 115.712 18.5965 115.884 18.2447C116.057 17.8929 116.361 17.6229 116.73 17.493C117.1 17.363 117.506 17.3834 117.86 17.5497C124.26 20.6878 128.986 26.4207 130.826 33.2782C130.922 33.6585 130.864 34.0611 130.665 34.3992C130.467 34.7374 130.143 34.9838 129.764 35.0855C129.386 35.1871 128.982 35.1358 128.641 34.9425C128.3 34.7493 128.048 34.4296 127.941 34.0526Z" fill="#FFEAC8"/>
<path d="M115.665 46.4189H96.7512C96.355 46.4189 95.9751 46.2615 95.6949 45.9813C95.4147 45.7012 95.2573 45.3212 95.2573 44.925C95.2573 44.5288 95.4147 44.1488 95.6949 43.8686C95.9751 43.5885 96.355 43.4311 96.7512 43.4311H115.665C116.062 43.4311 116.442 43.5885 116.722 43.8686C117.002 44.1488 117.159 44.5288 117.159 44.925C117.159 45.3212 117.002 45.7012 116.722 45.9813C116.442 46.2615 116.062 46.4189 115.665 46.4189ZM67.8102 40.8482H62.6709C62.2747 40.8482 61.8947 40.6908 61.6146 40.4106C61.3344 40.1305 61.177 39.7505 61.177 39.3543C61.177 38.9581 61.3344 38.5781 61.6146 38.298C61.8947 38.0178 62.2747 37.8604 62.6709 37.8604H67.8102C68.2064 37.8604 68.5864 38.0178 68.8665 38.298C69.1467 38.5781 69.3041 38.9581 69.3041 39.3543C69.3041 39.7505 69.1467 40.1305 68.8665 40.4106C68.5864 40.6908 68.2064 40.8482 67.8102 40.8482ZM69.2768 31.3678L64.4718 29.5442C64.1068 29.3998 63.8132 29.1174 63.6547 28.7582C63.4961 28.399 63.4854 27.9919 63.6247 27.6248C63.764 27.2577 64.0422 26.9602 64.3991 26.7967C64.7561 26.6331 65.163 26.6166 65.532 26.7508L70.337 28.5743C70.7021 28.7188 70.9957 29.0011 71.1542 29.3603C71.3127 29.7195 71.3235 30.1267 71.1842 30.4938C71.0449 30.8608 70.7667 31.1583 70.4097 31.3219C70.0528 31.4855 69.6458 31.5019 69.2768 31.3678ZM63.6052 51.091C63.4647 50.7206 63.477 50.3095 63.6395 49.9481C63.802 49.5868 64.1014 49.3048 64.4718 49.1642L69.2768 47.3406C69.6458 47.2065 70.0528 47.223 70.4097 47.3865C70.7667 47.5501 71.0449 47.8476 71.1842 48.2146C71.3235 48.5817 71.3127 48.9889 71.1542 49.3481C70.9957 49.7073 70.7021 49.9896 70.337 50.1341L65.532 51.9577C65.3486 52.0273 65.1533 52.0601 64.9572 52.0542C64.7611 52.0483 64.568 52.0039 64.3891 51.9234C64.2102 51.8429 64.0489 51.728 63.9144 51.5852C63.7799 51.4424 63.6748 51.2744 63.6052 51.091ZM149.746 40.8482H144.607C144.21 40.8482 143.831 40.6908 143.55 40.4106C143.27 40.1305 143.113 39.7505 143.113 39.3543C143.113 38.9581 143.27 38.5781 143.55 38.298C143.831 38.0178 144.21 37.8604 144.607 37.8604H149.746C150.142 37.8604 150.522 38.0178 150.802 38.298C151.082 38.5781 151.24 38.9581 151.24 39.3543C151.24 39.7505 151.082 40.1305 150.802 40.4106C150.522 40.6908 150.142 40.8482 149.746 40.8482ZM141.213 30.501C141.073 30.1305 141.085 29.7194 141.247 29.3581C141.41 28.9967 141.709 28.7148 142.08 28.5741L146.885 26.7506C147.254 26.6164 147.661 26.6329 148.018 26.7965C148.375 26.96 148.653 27.2575 148.792 27.6246C148.931 27.9917 148.921 28.3988 148.762 28.758C148.603 29.1172 148.31 29.3996 147.945 29.544L143.14 31.3678C142.77 31.5083 142.358 31.496 141.997 31.3334C141.636 31.1709 141.354 30.8714 141.213 30.501ZM146.885 51.9578L142.08 50.1343C141.715 49.9898 141.421 49.7075 141.263 49.3483C141.104 48.9891 141.093 48.5819 141.233 48.2148C141.372 47.8478 141.65 47.5503 142.007 47.3867C142.364 47.2232 142.771 47.2067 143.14 47.3408L147.945 49.1644C148.31 49.3088 148.604 49.5912 148.762 49.9504C148.921 50.3096 148.932 50.7167 148.792 51.0838C148.653 51.4509 148.375 51.7484 148.018 51.9119C147.661 52.0755 147.254 52.092 146.885 51.9578Z" fill="#FFEDC2"/>
<path d="M116.45 93.5314H95.9659C94.5364 93.5314 93.3735 94.6942 93.3735 96.1235V98.3302C93.3735 99.7595 94.5364 100.922 95.9659 100.922H116.45C117.879 100.922 119.042 99.7595 119.042 98.3302V96.1235C119.042 94.6942 117.879 93.5314 116.45 93.5314Z" fill="#EFECEF"/>
<path d="M116.45 97.2268H95.9659C94.7953 97.2268 93.8045 96.4464 93.4838 95.379C93.4108 95.6205 93.3737 95.8713 93.3735 96.1235V98.3301C93.3735 99.7594 94.5364 100.922 95.9659 100.922H116.45C117.879 100.922 119.042 99.7594 119.042 98.3301V96.1235C119.042 95.8646 119.003 95.6149 118.932 95.379C118.611 96.4464 117.62 97.2268 116.45 97.2268Z" fill="#E2DFE2"/>
<path d="M118.44 86.2395H93.9743C92.5449 86.2395 91.3821 87.4024 91.3821 88.8317V91.0383C91.3821 92.4678 92.5449 93.6307 93.9743 93.6307H118.44C119.869 93.6307 121.032 92.4678 121.032 91.0383V88.8317C121.032 87.4024 119.869 86.2395 118.44 86.2395Z" fill="#EFECEF"/>
<path d="M118.44 89.9352H93.9744C92.8039 89.9352 91.8131 89.1548 91.4923 88.0873C91.4194 88.3287 91.3823 88.5795 91.3821 88.8317V91.0383C91.3821 92.4678 92.5449 93.6307 93.9743 93.6307H118.44C119.869 93.6307 121.032 92.4678 121.032 91.0383V88.8317C121.032 88.5728 120.993 88.3234 120.922 88.0873C120.601 89.1548 119.611 89.9352 118.44 89.9352Z" fill="#E2DFE2"/>
<path d="M118.44 78.9478H93.9743C92.5449 78.9478 91.3821 80.1106 91.3821 81.5401V83.7467C91.3821 85.1761 92.5449 86.3389 93.9743 86.3389H118.44C119.869 86.3389 121.032 85.1761 121.032 83.7467V81.5401C121.032 80.1106 119.869 78.9478 118.44 78.9478Z" fill="#EFECEF"/>
<path d="M118.44 82.6435H93.9744C92.8039 82.6435 91.8131 81.8631 91.4923 80.7958C91.4194 81.0372 91.3823 81.288 91.3821 81.5402V83.7468C91.3821 85.1761 92.5449 86.339 93.9743 86.339H118.44C119.869 86.339 121.032 85.1761 121.032 83.7468V81.5402C121.032 81.2813 120.993 81.0317 120.922 80.7958C120.601 81.8631 119.611 82.6435 118.44 82.6435Z" fill="#E2DFE2"/>
</g>
<defs>
<clipPath id="clip0_2024_234">
<rect width="156" height="99" rx="10" fill="white"/>
</clipPath>
</defs>
</svg>
