<svg width="195" height="64" viewBox="0 0 195 64" fill="none" xmlns="http://www.w3.org/2000/svg">
<path fill-rule="evenodd" clip-rule="evenodd" d="M29.741 33.2797C27.5248 33.5522 24.7289 34.029 21.4215 34.7783L13.0679 36.4473C8.90818 43.7703 6.41915 47.7894 5.60083 48.5728C4.78252 49.3562 3.86192 49.7309 2.80494 49.7309C2.05482 49.7309 1.44108 49.4924 0.895543 48.9815C0.384099 48.4706 0.111328 47.8575 0.111328 47.1763C0.111328 46.1205 2.2594 42.2716 6.52143 35.6299C6.31686 35.2552 6.18047 34.7783 6.18047 34.2674C6.18047 32.3601 7.33975 31.1679 9.69239 30.657C12.3178 26.8082 16.3412 21.4267 21.7625 14.5465C27.2179 7.66625 30.4911 4.22615 31.6163 4.22615C33.1847 4.22615 34.1054 5.35014 34.344 7.59813L34.5827 17.7822L35.8102 38.7975L36.7649 43.6681C37.0376 44.9965 37.174 45.9502 37.174 46.5633C37.174 47.4488 36.799 48.2322 36.0488 48.9134C35.2987 49.6287 34.4804 49.9693 33.5257 49.9693C32.196 49.9693 31.2413 48.6409 30.6275 45.9502C30.1161 43.2934 29.7751 39.07 29.741 33.2797ZM28.7522 15.3639L17.8073 29.3287C19.819 28.8178 23.6719 28.0344 29.366 27.0126L28.7522 15.3639ZM68.7813 39.9215C70.5543 43.2594 73.6571 44.9624 78.1237 44.9624C79.6921 44.9624 81.5674 44.6218 83.7496 43.9747C85.9317 43.3275 87.3979 42.5101 88.1821 41.5223C89.0004 40.4324 89.8528 39.9215 90.6711 39.9215C91.319 39.9215 91.8986 40.1599 92.3418 40.6027C92.7851 41.0455 93.0238 41.5904 93.0238 42.2035C93.0238 44.2471 91.2508 46.1545 87.7047 47.8575C84.1587 49.5606 80.6809 50.4121 77.2372 50.4121C72.907 50.4121 69.5314 49.3903 67.1106 47.3466C64.6897 45.303 63.4623 42.5782 63.4623 39.1381C63.4623 34.1653 65.1671 29.2946 68.5426 24.5262C71.9182 19.7577 76.2825 17.3735 81.6697 17.3735C85.2498 17.3735 87.9434 17.9866 89.8187 19.1787C91.694 20.3708 92.6487 22.0397 92.6487 24.2537C92.6487 26.0589 92.035 27.5916 90.8075 28.8859C89.58 30.1802 88.2503 31.1679 86.8182 31.8832C85.3862 32.5644 83.5109 33.45 81.2264 34.4377L68.7813 39.9215ZM69.1564 34.3356L79.0784 29.8396C83.2722 27.9322 86.1363 26.3995 87.6707 25.2414C86.2045 23.6065 83.886 22.8231 80.7832 22.8231C75.8051 22.8572 71.9523 26.672 69.1564 34.3356ZM143.009 47.2104C142.975 47.4829 142.907 47.7554 142.873 48.0619C142.804 48.3685 142.77 48.7431 142.668 49.1859C142.566 49.5946 142.463 50.1055 142.361 50.6846C142.225 51.2636 142.122 51.9107 141.952 52.6601C141.679 54.295 141.406 55.7596 141.168 57.0539C140.929 58.3481 140.759 59.4721 140.656 60.4258C140.486 61.2433 140.077 61.8904 139.429 62.3673C138.747 62.8441 138.031 63.0826 137.247 63.0826C136.428 63.0826 135.781 62.6738 135.405 61.8904C135.167 61.4817 134.996 61.0049 134.894 60.4599C134.792 59.949 134.826 59.3359 134.962 58.6888C135.065 58.1097 135.235 57.0879 135.474 55.6574C135.712 54.2268 136.053 52.3876 136.497 50.1396C136.258 50.1396 135.951 50.1736 135.542 50.2418C135.167 50.3099 134.758 50.4121 134.348 50.5143C133.939 50.6164 133.564 50.6846 133.189 50.7527C132.814 50.8208 132.507 50.8549 132.269 50.8549C128.62 50.8549 123.267 50.6846 116.175 50.3099C112.595 50.2077 109.492 50.1055 106.833 50.0715C104.173 50.0374 101.957 50.0033 100.15 50.0033C99.7748 50.0033 99.3998 49.9352 99.0588 49.7309C98.7179 49.5606 98.4451 49.3221 98.1723 49.0497C97.9336 48.7772 97.7632 48.4366 97.6609 48.0619C97.5586 47.6872 97.5245 47.3126 97.5927 46.9039C97.5927 46.8017 97.7291 46.2226 98.0018 45.1327C98.2746 44.0428 98.6838 42.4079 99.1952 40.2621C99.7748 38.0141 100.389 35.1189 101.036 31.5767C101.684 28.0684 102.4 23.9131 103.184 19.0765C103.321 18.225 103.696 17.5097 104.344 16.9647C104.992 16.3857 105.776 16.1132 106.662 16.1132C107.515 16.1132 108.163 16.3857 108.674 16.9647C109.151 17.5438 109.356 18.225 109.22 19.0765C108.367 24.3899 107.549 29.1243 106.73 33.2797C105.912 37.4351 105.094 41.0455 104.241 44.1109C105.708 44.2471 107.378 44.2812 109.22 44.2812C109.492 44.2812 109.901 44.2812 110.413 44.2471C110.924 44.2131 111.538 44.179 112.322 44.145C113.55 44.0768 114.573 44.0768 115.357 44.145L115.493 44.0768C115.971 42.476 116.38 40.5005 116.789 38.1844C116.925 37.4351 117.028 36.5154 117.164 35.3914C117.3 34.2674 117.471 32.9731 117.641 31.4745C117.88 29.9418 118.05 28.6134 118.187 27.4554C118.323 26.3314 118.46 25.3777 118.596 24.5943C119.483 19.2127 121.119 16.522 123.506 16.522C124.358 16.522 125.04 16.7944 125.552 17.3394C126.063 17.8844 126.268 18.5656 126.165 19.4171C126.097 19.6555 125.995 19.9621 125.859 20.3708C125.722 20.7795 125.552 21.3245 125.313 21.9716C125.143 22.6188 124.972 23.1637 124.836 23.6746C124.699 24.1856 124.597 24.5943 124.529 25.003C124.426 25.6842 124.324 26.5698 124.188 27.5916C124.051 28.6475 123.881 29.8396 123.642 31.2361C123.335 33.995 123.063 36.1067 122.824 37.5713C122.79 37.9119 122.722 38.3547 122.585 38.8997C122.483 39.4446 122.312 40.0577 122.142 40.773C122.006 41.4542 121.903 42.0673 121.767 42.5441C121.631 43.021 121.562 43.4637 121.494 43.8044V44.0428C122.96 44.179 124.631 44.2131 126.472 44.2131C127.7 44.2131 128.825 44.179 129.882 44.1109C130.939 44.0428 131.894 43.9747 132.746 43.8384C132.985 43.0891 133.189 42.2035 133.394 41.2498C133.598 40.2961 133.803 39.2743 133.973 38.1503C134.11 37.401 134.212 36.4814 134.348 35.3574C134.485 34.2334 134.655 32.9391 134.86 31.4404C135.099 29.9077 135.269 28.5793 135.405 27.4213C135.542 26.2973 135.644 25.3436 135.781 24.5602C136.667 19.1787 138.304 16.4879 140.69 16.4879C141.543 16.4879 142.225 16.7604 142.736 17.3053C143.248 17.8503 143.452 18.5315 143.35 19.383C143.282 19.6215 143.179 19.928 143.077 20.3367C142.941 20.7454 142.77 21.2904 142.566 21.9376C142.361 22.5847 142.191 23.1297 142.054 23.6406C141.918 24.1515 141.816 24.5602 141.747 24.9689C141.645 25.6501 141.543 26.5357 141.406 27.5575C141.27 28.6134 141.1 29.8055 140.861 31.202C140.69 32.6325 140.554 33.8587 140.452 34.9146C140.349 35.9705 140.213 36.856 140.077 37.5372C140.043 37.8778 139.94 38.3206 139.838 38.8656C139.702 39.4106 139.565 40.0236 139.395 40.7389C139.258 41.4201 139.156 42.0332 139.054 42.5101C138.952 42.9869 138.849 43.4297 138.781 43.7703V43.9406H140.384C140.793 43.9406 141.134 44.0087 141.475 44.2131C141.816 44.3834 142.122 44.6218 142.361 44.8943C142.6 45.1668 142.77 45.5074 142.873 45.882C142.975 46.2567 143.077 46.8357 143.009 47.2104ZM152.113 39.9215C153.886 43.2594 156.988 44.9624 161.455 44.9624C163.023 44.9624 164.899 44.6218 167.081 43.9747C169.263 43.3275 170.729 42.5101 171.513 41.5223C172.332 40.4324 173.184 39.9215 174.003 39.9215C174.65 39.9215 175.23 40.1599 175.673 40.6027C176.116 41.0455 176.355 41.5904 176.355 42.2035C176.355 44.2471 174.582 46.1545 171.036 47.8575C167.49 49.5606 164.012 50.4121 160.569 50.4121C156.238 50.4121 152.863 49.3903 150.442 47.3466C148.021 45.303 146.794 42.5782 146.794 39.1381C146.794 34.1653 148.498 29.2946 151.874 24.5262C155.25 19.7577 159.614 17.3735 165.001 17.3735C168.581 17.3735 171.275 17.9866 173.15 19.1787C175.025 20.3708 175.98 22.0397 175.98 24.2537C175.98 26.0589 175.366 27.5916 174.139 28.8859C172.911 30.1802 171.582 31.1679 170.15 31.8832C168.718 32.5644 166.842 33.45 164.558 34.4377L152.113 39.9215ZM152.522 34.3356L162.444 29.8736C166.638 27.9663 169.502 26.4335 171.036 25.2755C169.57 23.6406 167.251 22.8572 164.149 22.8572C159.171 22.8572 155.284 26.672 152.522 34.3356ZM179.867 6.95098C179.867 7.70031 179.492 8.38152 178.776 8.99461C178.026 9.64176 176.798 9.9483 175.059 9.9483C174.309 9.9483 173.593 9.74394 173.014 9.30115C172.434 8.85837 172.127 8.34746 172.127 7.70031C172.127 6.57632 172.468 5.75887 173.184 5.17984C173.9 4.60081 175.196 4.29427 177.105 4.29427C177.753 4.29427 178.401 4.56675 178.981 5.14578C179.56 5.72481 179.867 6.30383 179.867 6.95098ZM164.319 7.08722C164.319 8.04092 163.842 8.79025 162.853 9.36927C161.864 9.9483 160.978 10.2208 160.193 10.2208C158.011 10.2208 156.92 9.40333 156.92 7.76843C156.92 6.78068 157.398 5.99729 158.318 5.3842C159.273 4.80518 160.091 4.49863 160.773 4.49863C163.126 4.53269 164.319 5.3842 164.319 7.08722ZM189.209 36.822C188.903 38.6272 187.88 39.5468 186.038 39.5468C184.504 39.5468 183.72 38.8997 183.72 37.5372L183.959 35.2552C184.163 33.1094 184.47 30.8614 184.879 28.4431L187.266 13.7971C188.425 6.44008 189.141 2.52313 189.346 2.01222C189.585 1.50132 189.925 1.09259 190.369 0.786047C190.846 0.479503 191.426 0.343262 192.176 0.343262C193.983 0.343262 194.733 1.26289 194.46 3.06809L189.209 36.822ZM184.095 51.0592C183.379 51.0592 182.731 50.6164 182.083 49.7309C181.435 48.8453 181.129 47.9938 181.129 47.2104C181.129 46.3929 181.47 45.6777 182.152 45.0646C182.833 44.4174 183.584 44.1109 184.436 44.1109C185.186 44.1109 185.902 44.5537 186.482 45.4052C187.095 46.2567 187.368 47.1082 187.368 47.9257C187.368 48.8112 187.027 49.5606 186.311 50.1737C185.629 50.7527 184.879 51.0592 184.095 51.0592Z" fill="white"/>
</svg>
