<svg width="157" height="117" viewBox="0 0 157 117" fill="none" xmlns="http://www.w3.org/2000/svg">
<g clip-path="url(#clip0_2022_14)">
<path d="M97.2083 39.6546C97.4024 40.5637 97.5008 41.4906 97.5018 42.4202C97.5018 50.6286 90.0574 57.3065 80.9065 57.3065C71.7559 57.3065 64.3114 50.6286 64.3114 42.4202C64.3114 41.303 64.4537 40.2159 64.715 39.1685H60.3317L60.3061 39.168C60.104 40.2404 60.0016 41.3292 60 42.4205C60 53.0063 69.3785 61.6182 80.9065 61.6182C92.4344 61.6182 101.813 53.0063 101.813 42.4205C101.813 41.4815 101.739 40.5583 101.596 39.6549L97.2083 39.6546Z" fill="#F3C55C"/>
<path d="M62.4165 41.7763C63.461 41.7763 64.3475 41.0252 64.5357 39.9977C65.8292 32.9375 72.6775 27.5339 80.9083 27.5339C89.1394 27.5339 95.9877 32.9375 97.2811 39.9977C97.4694 41.0252 98.3555 41.7763 99.4004 41.7763C100.74 41.7763 101.763 40.565 101.524 39.2475C99.8723 30.1667 91.2592 23.2224 80.9086 23.2224C70.558 23.2224 61.9451 30.1664 60.2938 39.2475C60.0538 40.565 61.0771 41.7763 62.4165 41.7763Z" fill="#FFD77C"/>
<path d="M136.092 61.6181C124.564 61.6181 115.186 53.0061 115.186 42.4204C115.186 31.8347 124.564 23.2224 136.092 23.2224C147.62 23.2224 156.999 31.8347 156.999 42.4204C156.999 53.0061 147.62 61.6181 136.092 61.6181ZM136.092 27.5339C126.941 27.5339 119.497 34.2117 119.497 42.4204C119.497 50.6288 126.941 57.3067 136.092 57.3067C145.243 57.3067 152.687 50.6288 152.687 42.4204C152.687 34.2117 145.243 27.5339 136.092 27.5339Z" fill="#FDD272"/>
<path d="M128.59 113.347C120.616 113.347 114.004 107.173 113.456 99.2183L111.267 67.3866H105.453C105.518 67.8016 105.552 68.2213 105.552 68.6427V102.01C105.552 104.657 102.402 107.315 99.4402 109.229C96.2695 111.277 94.3389 114.779 94.3389 118.554H128.679V113.347H128.59Z" fill="#FFD77C"/>
<path d="M99.6866 112.719C100.142 112.584 100.591 112.427 101.032 112.249C107.457 109.655 111.103 102.817 109.982 95.9799L105.297 67.3867L103.312 99.1241C102.812 107.119 96.1822 113.347 88.1719 113.347V118.553H95.3576V118.428C95.3576 115.77 97.1385 113.477 99.6866 112.719ZM98.5193 118.554H141.186V139.837H98.5193V118.554Z" fill="#E4B854"/>
<path d="M124.558 70.2202C133.852 58.0268 140.082 35.624 140.082 10.0002H90.6934V34.0386C90.6934 53.1345 105.504 68.9584 124.558 70.2202Z" fill="#FFD77C"/>
<path d="M122.449 65.1402C117.163 65.1402 112.18 62.2745 107.799 57.2086C106.755 56.0014 108.089 54.1831 109.547 54.8318L109.594 54.8534L113.265 56.5604C115.236 57.4767 117.446 55.8709 117.183 53.7137L116.694 49.6949C116.646 49.2943 116.685 48.888 116.81 48.5042C116.934 48.1204 117.141 47.7685 117.416 47.4731L120.174 44.5094C121.654 42.9184 120.81 40.3204 118.677 39.9036L114.704 39.1267C114.308 39.0493 113.934 38.8863 113.608 38.6492C113.281 38.412 113.01 38.1063 112.814 37.7536L110.848 34.2151C109.792 32.3157 107.06 32.3157 106.005 34.2151L104.038 37.7536C103.842 38.1063 103.572 38.412 103.245 38.6492C102.919 38.8863 102.545 39.0493 102.149 39.1267L102.099 39.1364C99.7772 39.5923 97.4764 38.2471 96.744 35.9977C94.2517 28.3446 92.4412 19.5343 91.5096 10H76.7705C76.7705 48.6498 90.9431 79.9816 108.426 79.9816C114.465 79.9816 120.108 76.2422 124.909 69.7546C126.337 67.8259 124.913 65.1293 122.513 65.1399L122.449 65.1402Z" fill="#F3C55C"/>
<path d="M110.847 29.3288L112.814 32.8673C113.01 33.2201 113.281 33.5257 113.607 33.7629C113.933 34 114.308 34.163 114.704 34.2404L118.677 35.0173C120.81 35.4344 121.654 38.0325 120.174 39.6231L117.416 42.5868C117.141 42.8822 116.934 43.2341 116.809 43.6179C116.684 44.0016 116.645 44.408 116.694 44.8086L117.183 48.8274C117.445 50.9846 115.235 52.5902 113.265 51.6741L109.594 49.9671C109.228 49.797 108.829 49.7088 108.426 49.7088C108.022 49.7088 107.624 49.797 107.258 49.9671L103.587 51.6741C101.617 52.5905 99.4065 50.9846 99.6689 48.8274L100.158 44.8086C100.207 44.408 100.167 44.0017 100.042 43.6179C99.9178 43.2342 99.7109 42.8822 99.4361 42.5868L96.6782 39.6231C95.1979 38.0322 96.0421 35.4341 98.1748 35.0173L102.148 34.2404C102.544 34.163 102.918 34 103.245 33.7629C103.571 33.5257 103.842 33.2201 104.038 32.8673L106.004 29.3288C107.06 27.4295 109.792 27.4295 110.847 29.3288Z" fill="white"/>
</g>
<defs>
<clipPath id="clip0_2022_14">
<path d="M0 0H157V85C157 102.673 142.673 117 125 117H0V0Z" fill="white"/>
</clipPath>
</defs>
</svg>
