<svg width="225" height="96" fill="none" xmlns="http://www.w3.org/2000/svg"><path d="M57.772 0c-11.3.095-20.386 9.365-20.292 20.66.094 11.293 9.369 20.375 20.668 20.281 11.3-.094 20.387-9.364 20.292-20.658C78.346 8.989 69.071-.094 57.772 0Zm.282 31.718c-6.215.047-11.3-4.941-11.393-11.153-.047-6.212 4.943-11.294 11.158-11.341 6.215-.047 11.3 4.941 11.346 11.153.142 6.212-4.896 11.294-11.11 11.34Z" fill="#fff"/><path d="M57.913 15.343a5.173 5.173 0 0 0-5.085 5.176 5.174 5.174 0 0 0 5.18 5.083 5.173 5.173 0 0 0 5.084-5.177c0-2.823-2.354-5.082-5.18-5.082ZM67.187 55.058H52.92V43.341H43.6v32.705h9.322V64.282h14.266v11.764h9.18V43.341h-9.18v11.717ZM14.315 37.46h9.18V14.025h11.77v-9.27H2.546v9.27h11.77V37.46ZM210.642 28.377l-8.287 10.368 7.173 5.727 8.287-10.368-7.173-5.727ZM28.155 57.318l9.557-14.024H8.286v9.13H20.34l-8.474 12.47 7.627 5.176 3.342-4.94c4.85 1.176 8.428 5.505 8.428 10.682 0 6.07-4.944 11.011-11.017 11.011-6.074 0-11.017-4.94-11.017-11.011H0C0 86.965 9.087 96 20.198 96c11.158 0 20.198-9.083 20.198-20.188.047-8.236-5.038-15.389-12.241-18.494Z" fill="#fff"/><path d="m215.819 43.34-14.266 17.836V43.341h-9.275v32.705h9.275l14.266-17.929v17.93H225V43.34h-9.181ZM163.087 38.258c4.332 0 8.381-1.976 11.488-5.27v4.47h9.181V4.754h-9.181V7.34c-1.318-1.176-2.872-2.07-4.567-2.682a13.759 13.759 0 0 0-4.378-.706c-6.827 0-13.089 4.941-15.584 12.235-3.108 9.035.8 18.635 8.71 21.365 1.318.47 2.825.706 4.331.706Zm-4.473-19.388c1.177-3.388 4.049-5.647 7.204-5.647a5.89 5.89 0 0 1 2.024.33c3.626 1.27 5.462 5.647 4.002 9.835-1.177 3.388-4.049 5.647-7.203 5.647a5.896 5.896 0 0 1-2.025-.33c-3.625-1.27-5.461-5.693-4.002-9.835ZM92.75 76.801c4.332 0 8.381-1.977 11.489-5.27V76h9.18V43.295h-9.18v2.589c-1.319-1.177-2.872-2.071-4.567-2.683a13.765 13.765 0 0 0-4.379-.706c-6.827 0-13.089 4.942-15.584 12.236-3.107 9.035.8 18.635 8.71 21.364 1.366.47 2.872.706 4.332.706Zm-4.472-19.388c1.177-3.388 4.049-5.647 7.203-5.647.707 0 1.366.094 2.025.33 3.625 1.27 5.461 5.646 4.002 9.835-1.177 3.388-4.05 5.647-7.204 5.647a5.893 5.893 0 0 1-2.024-.33c-3.625-1.27-5.414-5.694-4.002-9.835ZM178.627 43.34l-14.266 17.836V43.341h-9.275v32.705h9.228l14.313-17.929v17.93h9.181V43.34h-9.181ZM104.238 4.802v8.847c0 4.14-3.107 7.34-7.156 7.34-4.002 0-7.157-3.246-7.157-7.34V4.755H80.65v8.894c0 9.129 7.345 16.564 16.385 16.564 2.59 0 5.037-.611 7.156-1.647v8.941h9.181V4.802h-9.134Z" fill="#fff"/><path d="M149.859 4.755h-11.111l-7.674 11.247h-4.002V4.755h-9.181V37.46h9.181V25.225h4.896l8.334 12.235h11.111l-11.912-17.506 10.358-15.2ZM141.479 55.058h-14.313V43.341h-9.275v32.705h9.275V64.282h14.313v11.764h9.134V43.341h-9.134v11.717Z" fill="#fff"/></svg>