<svg width="23" height="23" viewBox="0 0 23 23" fill="none" xmlns="http://www.w3.org/2000/svg">
<rect width="23" height="23" rx="11.5" fill="white" fill-opacity="0.09"/>
<path d="M15.7835 16.2324C15.8727 16.2324 15.9598 16.206 16.034 16.1564C16.1081 16.1069 16.1659 16.0365 16.2001 15.9541C16.2342 15.8717 16.2431 15.7811 16.2257 15.6936C16.2083 15.6062 16.1654 15.5258 16.1023 15.4628L7.77156 7.13205C7.687 7.0475 7.57233 7 7.45275 7C7.33318 7 7.2185 7.0475 7.13395 7.13205C7.0494 7.21661 7.00189 7.33128 7.00189 7.45086C7.00189 7.57043 7.0494 7.68511 7.13395 7.76966L15.4647 16.1004C15.5065 16.1423 15.5562 16.1756 15.6109 16.1982C15.6656 16.2209 15.7243 16.2325 15.7835 16.2324Z" fill="#F2C45B"/>
<path d="M7.45278 16.2324C7.51199 16.2325 7.57064 16.2209 7.62535 16.1982C7.68006 16.1756 7.72975 16.1423 7.77158 16.1004L16.1023 7.76966C16.1869 7.68511 16.2344 7.57043 16.2344 7.45086C16.2344 7.33128 16.1869 7.21661 16.1023 7.13205C16.0178 7.0475 15.9031 7 15.7835 7C15.6639 7 15.5493 7.0475 15.4647 7.13205L7.13397 15.4628C7.07091 15.5258 7.02796 15.6062 7.01056 15.6936C6.99316 15.7811 7.00209 15.8717 7.03621 15.9541C7.07034 16.0365 7.12813 16.1069 7.20228 16.1564C7.27643 16.206 7.36361 16.2324 7.45278 16.2324Z" fill="#F2C45B"/>
</svg>
