<svg width="267" height="261" viewBox="0 0 267 261" fill="none" xmlns="http://www.w3.org/2000/svg">
<rect y="63" width="281" height="281" rx="140.5" fill="#6683C2"/>
<path d="M194.734 16.6645C194.811 16.6065 194.888 16.5497 194.964 16.491C196.896 14.9977 198.506 12.8229 200.237 11.095L225.417 -14.2928C228.188 -17.0793 230.813 -20.0817 233.667 -22.7734C234.266 -23.3373 246.444 -33.4839 250.183 -36.5624C257.379 -42.4889 280.91 -58.9812 281.508 -58.9992C287.658 -59.184 260.958 -28.1042 267.115 -28.0962C270.632 -28.0917 264.299 -24.938 267.712 -24.5767C270.046 -24.3297 271.945 -23.336 273.393 -21.4843C274.099 -20.5826 274.588 -19.5999 274.784 -18.4703C275.298 -15.5163 275.008 -9.87178 275.027 -6.61986C275.068 0.631836 275.307 7.963 275.011 15.2052C273.513 16.5295 271.718 17.5851 270.054 18.6857C267.407 20.4228 264.769 22.1737 262.14 23.9386L237.821 40.4537L229.111 46.3307C227.194 47.5988 225.166 48.7705 223.328 50.1493C223.189 49.651 223.018 49.1757 222.829 48.6941C218.494 37.6728 205.591 21.4162 194.734 16.6645Z" fill="#89A2D8"/>
<path d="M193.753 19.3051C194.923 18.9049 195.455 19.0276 196.565 19.5728C204.331 23.3901 218.835 41.2765 221.365 49.5674C221.426 49.7658 221.437 49.9373 221.422 50.143C213.234 55.5333 205.116 60.8275 196.34 65.2399C188.556 69.1537 180.288 72.1586 172.943 76.8851C164.114 82.5659 156.199 89.7807 148.139 96.4739C145.538 98.6335 143.017 101.063 140.236 102.983C136.756 105.315 133.101 109.268 128.487 108.42C127.886 108.31 127.262 108.129 126.684 107.932C125.641 107.155 124.693 106.304 123.837 105.324C122.995 103.616 122.587 101.61 123.101 99.7474C123.291 99.2438 123.417 98.7032 123.566 98.1857C124.503 93.2085 127.475 89.2581 130.162 85.0864C135.101 77.7864 140.598 70.8822 145.57 63.6104C146.648 62.241 147.613 60.7714 148.674 59.3843C147.99 55.5895 146.381 51.8516 143.595 49.1227C139.273 44.8901 133.254 43.4983 127.358 43.5889C123.785 43.9604 114.935 49.9509 112.459 52.6716C113.517 58.4742 115.003 64.2051 116.436 69.9244C117.452 73.9789 118.379 78.0923 119.536 82.1067C118.919 82.5917 117.252 82.5498 116.427 82.6854C115.241 82.88 114.051 83.2931 112.92 83.694C110.408 84.5843 108.588 85.8694 106.326 87.1993C104.808 85.1516 103.218 81.9276 101.874 79.6547C99.4819 75.6053 97.1381 71.5275 94.8431 67.4223C93.5646 65.1569 92.1025 62.8695 91.0946 60.4733C91.1841 59.3698 90.6341 58.0822 90.3178 57.025C90.2238 56.6207 90.1387 56.2145 90.0623 55.8068C89.5082 52.7754 89.548 49.3898 90.8561 46.5483C91.3765 45.4177 92.0757 44.4098 92.8868 43.47C94.4583 41.6493 96.3897 40.0636 98.1252 38.3928C101.268 35.3677 104.369 32.3095 107.548 29.3207C109.333 27.6426 111.36 26.032 112.76 24.0139C111.642 24.6106 109.548 26.9532 108.506 27.935L98.6175 37.4324C96.8779 39.1112 95.0727 40.7344 93.3876 42.4674C92.6613 43.2032 91.9997 44.0004 91.4109 44.85C89.0137 48.3292 89.1225 52.6398 89.863 56.6229C90.1677 57.6659 90.5241 58.7202 90.7536 59.7808C90.6988 59.7067 90.6452 59.6322 90.5897 59.5588C88.2291 56.4381 84.9139 50.3725 83.8413 46.695C82.9504 43.639 82.7015 40.6035 84.2762 37.7138C85.1949 36.3031 86.1653 34.9823 87.3646 33.794C89.4918 31.6867 92.0719 29.9401 94.4609 28.1393L104.864 20.2897C106.677 18.9323 108.584 17.7279 110.178 16.1028C110.136 16.1107 110.091 16.1104 110.051 16.1264C108.574 16.7174 89.5694 31.2732 87.6324 33.0661C86.2725 34.3248 85.1693 35.725 84.2166 37.3101C83.2165 33.3922 83.705 29.2466 85.7102 25.7539C87.6122 22.8616 90.2449 20.5969 93.1521 18.7649C95.2752 17.427 97.5329 16.3535 99.7418 15.1709C104.327 12.7154 108.673 10.0694 113.871 9.07279C123.81 7.16668 137.224 12.722 146.741 15.7735C152.684 17.679 158.645 19.5467 164.736 20.9293C172.554 22.7045 180.163 23.1542 188.035 21.3147C189.954 20.8662 192.065 20.3679 193.753 19.3051ZM136.379 92.9846C133.121 93.9304 130.431 97.0106 128.831 99.908C128.109 101.215 127.627 102.706 128.042 104.195C128.279 105.047 128.772 105.72 129.558 106.138C130.748 106.77 132.154 106.703 133.431 106.445C135.845 105.487 140.604 102.477 141.707 100.133C142.227 99.0262 142.227 97.7663 141.799 96.6325C141.264 95.2171 140.119 94.0313 138.742 93.4151C137.962 93.0662 137.226 92.9716 136.379 92.9846Z" fill="#F1BBA2"/>
<path d="M84.2188 37.3089C85.1715 35.7238 86.2747 34.3235 87.6346 33.0649C89.5716 31.272 108.576 16.7162 110.053 16.1252C110.093 16.1091 110.138 16.1094 110.18 16.1016C108.586 17.7267 106.68 18.9311 104.866 20.2885L94.463 28.1381C92.0741 29.9389 89.494 31.6854 87.3668 33.7928C86.1674 34.9811 85.197 36.3019 84.2784 37.7125L84.2188 37.3089Z" fill="#331310"/>
<path d="M193.755 19.3044C193.695 18.8695 193.616 18.4153 193.701 17.9792C193.831 17.3137 194.19 17.0126 194.74 16.6641C205.596 21.4158 218.5 37.6724 222.834 48.6937C223.024 49.1753 223.194 49.6506 223.334 50.1489C223.049 50.5087 222.863 50.7566 222.423 50.9373C221.985 50.8641 221.885 50.8231 221.594 50.4532C221.517 50.3548 221.476 50.2526 221.424 50.1422C221.44 49.9366 221.428 49.7651 221.367 49.5667C218.837 41.2758 204.334 23.3894 196.567 19.5721C195.458 19.0268 194.926 18.9042 193.755 19.3044Z" fill="#5D4130"/>
<path d="M89.8662 56.6227C89.1257 52.6395 89.0169 48.329 91.414 44.8498C92.0028 44.0002 92.6645 43.2029 93.3908 42.4671C95.0758 40.7342 96.881 39.1109 98.6206 37.4322L108.509 27.9347C109.551 26.953 111.645 24.6104 112.763 24.0137C111.363 26.0317 109.336 27.6424 107.551 29.3205C104.372 32.3093 101.271 35.3674 98.1283 38.3925C96.3928 40.0634 94.4615 41.649 92.89 43.4697C92.0788 44.4095 91.3796 45.4175 90.8593 46.5481C89.5511 49.3896 89.5114 52.7751 90.0655 55.8065C90.1418 56.2143 90.227 56.6205 90.3209 57.0248L89.8662 56.6227Z" fill="#331310"/>
<path d="M89.8594 56.623L90.3141 57.0252C90.6305 58.0823 91.1805 59.37 91.0909 60.4734L90.75 59.7809C90.5204 58.7203 90.164 57.666 89.8594 56.623Z" fill="#5D2E26"/>
<path d="M119.539 82.1074L119.722 82.3641C123.259 82.6764 127.184 82.8962 130.166 85.0871C127.479 89.2588 124.506 93.2092 123.569 98.1864C122.291 97.4343 121.314 96.9114 119.8 96.8669C119.73 96.2267 119.759 94.987 119.393 94.4754C119.045 94.3613 118.602 94.308 118.251 94.4644C118.059 94.5498 118.017 94.5962 117.868 94.7164C117.737 95.4641 117.839 96.1031 118.232 96.7531C118.297 96.86 118.348 96.9748 118.405 97.0864C116.82 98.575 115.174 98.27 115.103 101.321C115.074 102.568 115.671 103.732 116.563 104.578C117.698 105.654 119.119 106.159 120.619 106.484C121.222 108.314 121.67 110.17 122.061 112.056C121.141 111.832 120.355 111.613 119.515 111.16C118.758 110.752 118.069 110.292 117.178 110.514C116.896 110.796 116.825 110.856 116.86 111.289C116.921 112.055 117.858 112.872 118.459 113.241C119.72 114.013 121.128 114.116 122.568 114.155C122.651 114.682 122.631 115.358 123.067 115.714C123.363 115.955 123.687 115.952 124.035 115.897C124.322 115.592 124.53 115.419 124.546 114.965C124.559 114.568 124.246 114.081 124.057 113.739C125.53 112.811 126.719 111.961 127.147 110.167C127.206 109.912 127.259 109.656 127.306 109.398C127.092 108.916 126.856 108.433 126.688 107.933C127.265 108.13 127.889 108.311 128.49 108.421C133.104 109.269 136.759 105.316 140.239 102.984C140.99 106.252 138.57 112.338 136.828 115.124C135.915 116.585 134.832 117.92 133.733 119.244C133.673 119.262 133.612 119.275 133.554 119.298C132.479 119.721 131.569 120.845 130.537 121.414C125.968 123.934 119.76 125.184 114.641 123.833C112.243 123.357 109.913 122.294 107.869 120.969C103.304 118.001 100.13 113.316 99.0665 107.977C98.0239 102.969 98.6701 97.5002 101.361 93.0969C102.245 91.6506 103.374 90.3986 104.286 88.9832L104.357 88.8712C104.773 88.1604 105.604 87.5555 106.329 87.2001C108.591 85.8701 110.412 84.585 112.923 83.6947C114.055 83.2939 115.244 82.8807 116.43 82.6861C117.256 82.5505 118.922 82.5925 119.539 82.1074ZM118.253 88.2774C113.989 88.8438 110.126 91.0861 107.519 94.5082C105.019 97.8285 103.975 102.022 104.626 106.127C105.207 110.044 107.305 113.78 110.515 116.134C112.056 117.285 113.823 118.097 115.7 118.518C115.157 117.868 113.024 117.211 112.13 116.71C107.009 113.835 104.405 108.054 104.929 102.288C105.285 98.2924 107.239 94.6104 110.348 92.0764C112.359 90.4326 114.52 89.5553 117.008 88.905C117.409 88.8003 118.261 88.7451 118.373 88.3512L118.253 88.2774Z" fill="#F2C45B"/>
<path d="M115.693 118.518C113.816 118.097 112.049 117.285 110.508 116.134C107.298 113.78 105.2 110.044 104.619 106.127C103.968 102.022 105.012 97.8284 107.512 94.5082C110.119 91.0861 113.982 88.8438 118.246 88.2773L118.366 88.3511C118.254 88.745 117.402 88.8002 117.001 88.9049C114.513 89.5552 112.352 90.4326 110.341 92.0763C107.232 94.6104 105.278 98.2923 104.922 102.287C104.398 108.054 107.002 113.835 112.123 116.71C113.017 117.211 115.15 117.868 115.693 118.518Z" fill="#331310"/>
<path d="M107.061 121.244C105.808 120.373 104.616 119.418 103.561 118.314C99.7429 114.315 97.8037 108.527 97.9765 103.048C98.1231 97.659 100.422 92.5534 104.358 88.8711L104.288 88.9831C103.376 90.3985 102.246 91.6505 101.363 93.0968C98.6716 97.5 98.0254 102.969 99.068 107.977C100.131 113.316 103.305 118.001 107.87 120.969C109.914 122.294 112.245 123.357 114.642 123.833L114.224 124.12C111.872 123.63 109.929 122.834 107.886 121.567C103.02 122.547 98.284 123.757 93.5912 125.39L92.875 125.207C97.5261 123.562 102.256 122.341 107.061 121.244Z" fill="#5D2E26"/>
<path d="M133.433 106.446C132.156 106.704 130.75 106.771 129.56 106.139C128.774 105.721 128.281 105.048 128.044 104.196C127.629 102.707 128.111 101.216 128.833 99.9089C130.433 97.0116 133.122 93.9313 136.381 92.9855C137.228 92.9726 137.964 93.0672 138.743 93.416C140.121 94.0322 141.266 95.218 141.801 96.6334C142.229 97.7672 142.229 99.0271 141.708 100.133C140.606 102.478 135.847 105.488 133.433 106.446Z" fill="#ECECEC"/>
<path d="M119.8 96.8651C121.314 96.9096 122.29 97.4325 123.569 98.1846C123.42 98.7022 123.294 99.2427 123.104 99.7464C122.427 99.3931 121.623 98.8788 120.835 99.044C120.57 99.3603 120.513 99.5414 120.537 99.9624C120.613 101.347 121.413 103.252 121.905 104.559L123.84 105.323C124.696 106.303 125.644 107.154 126.687 107.931C126.856 108.431 127.092 108.914 127.305 109.396C127.259 109.654 127.206 109.91 127.146 110.165C126.718 111.96 125.53 112.809 124.057 113.737C124.246 114.079 124.559 114.566 124.545 114.963C124.529 115.418 124.322 115.59 124.035 115.896C123.687 115.95 123.363 115.953 123.067 115.712C122.63 115.356 122.651 114.68 122.567 114.153C121.127 114.114 119.72 114.011 118.459 113.239C117.858 112.871 116.921 112.054 116.859 111.287C116.824 110.854 116.895 110.794 117.177 110.513C118.069 110.291 118.757 110.75 119.515 111.158C120.355 111.611 121.14 111.83 122.06 112.054C121.669 110.168 121.222 108.312 120.618 106.482C119.119 106.157 117.697 105.652 116.563 104.576C115.671 103.73 115.073 102.566 115.103 101.319C115.174 98.2682 116.819 98.5732 118.405 97.0846C118.348 96.973 118.297 96.8582 118.232 96.7513C117.839 96.1013 117.737 95.4623 117.867 94.7146C118.017 94.5944 118.058 94.5481 118.25 94.4626C118.602 94.3062 119.044 94.3595 119.393 94.4736C119.758 94.9852 119.73 96.2249 119.8 96.8651ZM118.697 99.3477C118.123 99.9769 117.802 100.483 117.839 101.362C117.871 102.117 118.283 102.838 118.851 103.321C119.095 103.528 119.351 103.69 119.63 103.845L119.926 103.724C119.833 102.355 119.288 100.904 118.985 99.5508L118.697 99.3477ZM122.212 106.622C122.52 107.836 122.807 110.513 123.644 111.387C124.043 111.384 124.087 111.245 124.387 111.001C124.773 110.288 124.955 109.478 124.706 108.682C124.45 107.863 123.782 107.249 123.014 106.911C122.754 106.797 122.482 106.709 122.212 106.622Z" fill="#F2C45B"/>
<path d="M121.904 104.561C121.412 103.253 120.613 101.348 120.536 99.9639C120.513 99.5429 120.569 99.3618 120.835 99.0455C121.622 98.8803 122.426 99.3946 123.103 99.7479C122.59 101.611 122.998 103.616 123.839 105.325L121.904 104.561Z" fill="#F2C45B"/>
<path d="M119.63 103.845C119.351 103.69 119.095 103.528 118.851 103.321C118.283 102.838 117.871 102.117 117.839 101.362C117.802 100.483 118.123 99.9768 118.697 99.3477L118.985 99.5508C119.287 100.904 119.832 102.355 119.926 103.724L119.63 103.845Z" fill="#F2C45B"/>
<path d="M124.386 111.001C124.086 111.246 124.043 111.385 123.643 111.387C122.807 110.514 122.52 107.836 122.211 106.623C122.481 106.709 122.753 106.797 123.013 106.912C123.782 107.25 124.449 107.864 124.705 108.682C124.955 109.478 124.772 110.289 124.386 111.001Z" fill="#F2C45B"/>
<path d="M49.4609 122.543C49.6804 120.319 50.3752 117.74 52.1599 116.252C55.1764 113.736 60.5832 114.316 64.1942 114.736C74.5202 115.936 82.8785 120.029 91.4687 125.657L92.8696 125.205L93.5858 125.388C84.6891 128.523 76.5124 132.639 68.5877 137.756L68.4698 137.368C66.9806 134.697 65.4822 132.026 63.8234 129.456C61.7835 126.296 57.0715 119.807 53.1297 119.076C52.4469 118.95 51.7458 119.046 51.1873 119.483C50.226 120.235 49.958 121.488 49.7776 122.624L49.4609 122.543Z" fill="#D8997B"/>
<path d="M49.7797 122.625C49.9601 121.489 50.2282 120.236 51.1894 119.484C51.7479 119.047 52.449 118.95 53.1318 119.077C57.0737 119.808 61.7856 126.297 63.8255 129.457C65.4844 132.027 66.9827 134.697 68.4719 137.369C62.7214 141.059 57.8088 145.492 53.1961 150.505C52.1024 146.568 49.3744 131.422 49.5555 127.522C49.8762 126.03 49.7053 124.171 49.7797 122.625Z" fill="#BA866D"/>
<path d="M114.638 123.831C119.757 125.182 125.965 123.932 130.534 121.412C131.566 120.843 132.476 119.719 133.55 119.296C133.608 119.273 133.67 119.26 133.73 119.242C136.275 119.393 138.825 119.527 141.361 119.793C142.885 119.954 144.614 120.367 146.132 120.314C147.102 120.28 148.186 119.638 149.169 119.419C153.743 118.4 158.305 119.069 161.539 122.726C162.615 123.943 164.404 127.257 165.538 127.952C165.566 127.969 165.594 127.988 165.621 128.006L165.458 128.425C166.222 130.457 167.264 132.374 167.958 134.435C169.388 138.687 173.198 154.08 171.771 157.9C171.763 157.92 171.746 157.936 171.733 157.954C171.056 157.144 171.154 154.045 171.078 152.883C170.148 143.788 166.946 127.829 159.489 121.97C159.412 121.909 159.333 121.85 159.255 121.791C159.872 123.729 160.436 125.631 160.768 127.645C162.458 137.904 161.084 152.196 159.365 162.505C159.08 162.755 159.25 162.671 158.846 162.733L158.555 162.394C160.193 155.056 160.937 142.588 160.63 134.966C160.485 131.381 160.225 123.567 157.482 121.166C156.015 119.882 153.987 119.753 152.128 119.88C143.391 120.477 133.731 128.955 128.263 135.422C126.758 137.202 125.594 139.314 124.071 141.027C124.042 141.059 124.013 141.09 123.984 141.121C123.784 140.942 123.766 140.893 123.678 140.652C124.083 139.365 125.143 138.153 125.951 137.097C128.482 133.785 131.348 130.744 134.503 128.02C135.949 126.77 137.508 125.652 138.933 124.381C129.211 125.284 119.521 129.366 111.545 134.879C109.359 136.39 107.433 138.329 105.232 139.764C103.404 140.956 101.308 141.228 99.192 140.749C98.0872 140.499 96.6845 139.909 96.0843 138.883C95.8361 138.46 95.7705 137.954 95.903 137.481C96.7289 134.441 105.219 128.944 108.162 127.277C110.098 126.18 112.177 125.33 114.088 124.198L114.219 124.119L114.638 123.831Z" fill="#8C5E49"/>
<path d="M123.984 141.124C124.013 141.092 124.042 141.061 124.071 141.029C125.595 139.317 126.758 137.205 128.263 135.425C133.732 128.958 143.391 120.48 152.129 119.882C153.987 119.755 156.016 119.884 157.483 121.169C160.225 123.57 160.485 131.384 160.63 134.968C160.938 142.59 160.193 155.059 158.556 162.397C151.925 154.335 139.002 146.247 129.197 142.675C127.519 142.063 125.755 141.381 123.984 141.124Z" fill="#BA866D"/>
<path d="M107.884 121.566C109.927 122.833 111.87 123.629 114.222 124.119L114.091 124.199C112.18 125.331 110.101 126.181 108.165 127.278C105.222 128.945 96.7321 134.442 95.9061 137.482C95.7736 137.954 95.8392 138.46 96.0874 138.884C96.6876 139.909 98.0904 140.5 99.1951 140.75C101.311 141.228 103.407 140.957 105.235 139.765C107.436 138.33 109.362 136.39 111.548 134.88C119.524 129.367 129.215 125.284 138.936 124.382C137.511 125.652 135.953 126.771 134.507 128.021C131.352 130.744 128.485 133.786 125.955 137.098C125.146 138.153 124.086 139.366 123.681 140.652C123.769 140.894 123.787 140.942 123.987 141.122C125.758 141.379 127.522 142.062 129.2 142.673C139.005 146.245 151.928 154.333 158.559 162.395L158.849 162.734C159.253 162.672 159.083 162.756 159.368 162.506C160.458 161.813 161.46 160.449 162.425 159.534C164.699 157.377 167.163 155.169 169.759 153.406C170.211 153.098 170.531 152.774 171.081 152.884C171.157 154.045 171.059 157.145 171.736 157.955C171.749 157.937 171.766 157.921 171.774 157.901C173.201 154.081 169.391 138.687 167.961 134.436C167.267 132.374 166.226 130.458 165.461 128.426C183.006 134.936 198.904 147.438 206.836 164.704C213.841 180.147 214.469 197.73 208.582 213.633C204.71 224.106 198.306 233.459 189.942 240.857L189.933 256.932C189.942 259.23 189.694 261.921 190.12 264.156C187.082 264.472 182.886 264.202 179.725 264.202L157.759 264.202L157.774 255.68C151.442 257.357 146.022 258.392 139.497 259.098C139.474 260.796 139.507 262.499 139.514 264.198L107.7 264.221L107.717 258.92C105.594 258.5 103.418 258.302 101.284 257.928C98.5637 257.451 95.8831 256.8 93.1873 256.207C80.7887 253.123 69.264 247.233 59.5013 238.992C46.3694 227.992 38.7645 214.276 37.2422 197.174C41.5691 197.454 45.973 197.162 49.8625 195.048C50.9767 194.441 51.96 193.655 53.0298 192.979C52.6769 194.922 52.5883 196.903 52.7661 198.869C53.312 205.361 56.5033 210.987 61.4846 215.134C66.2137 219.071 72.776 221.22 78.9239 220.632C80.782 220.453 82.5071 219.922 84.3117 219.497C90.5577 218.024 94.3138 216.841 98.5439 211.625C102.438 206.813 104.243 200.642 103.554 194.49C102.941 188.433 99.8921 182.886 95.1079 179.122C90.8138 175.709 87.0148 175.04 81.7591 174.312C79.1071 173.945 76.5784 173.659 73.9003 173.976C67.2102 174.767 61.4966 178.309 57.3627 183.536C56.4484 181.703 55.9394 179.906 54.6735 178.232C51.3561 173.847 46.0525 172.605 40.8838 171.873C42.1983 168.833 43.4027 165.815 44.9903 162.897C50.4403 152.885 58.9841 143.874 68.5916 137.757C76.5163 132.64 84.693 128.524 93.5897 125.389C98.2824 123.756 103.018 122.546 107.884 121.566ZM117.18 204.432C115.573 206.037 114.345 208.456 113.013 210.316C105.75 220.456 100.015 228.092 86.3027 228.018C80.3743 227.986 74.6688 226.096 69.2081 223.946C68.3106 223.593 66.4792 222.376 65.5908 222.681L65.4423 223.027C65.9245 224.105 68.9826 224.981 70.1051 225.409C78.7416 228.703 89.0287 230.707 97.7977 226.805C106.742 222.824 112.378 212.866 117.691 205.086C118.114 205.425 118.552 205.755 119.005 206.053C119.894 206.637 121.868 207.764 122.921 207.463C123.167 207.392 123.102 207.387 123.234 207.14C121.766 205.902 119.645 205.559 118.159 204.167C116.436 202.554 117.22 199.985 116.011 198.344L115.763 198.419C115.736 198.475 115.704 198.53 115.681 198.588C114.934 200.525 116.33 202.736 117.18 204.432ZM72.1862 162.722C70.0801 163.314 68.8392 165.488 69.3993 167.602C69.9594 169.717 72.1134 170.991 74.2365 170.463C75.6389 170.114 76.7446 169.037 77.1297 167.644C77.5148 166.251 77.1193 164.759 76.0953 163.739C75.0713 162.72 73.5773 162.331 72.1862 162.722ZM101.649 162.801C99.507 163.064 97.9841 165.015 98.249 167.158C98.5139 169.3 100.466 170.821 102.608 170.555C104.748 170.289 106.268 168.339 106.003 166.199C105.739 164.059 103.79 162.538 101.649 162.801ZM129.066 173.895C125.356 174.52 122.014 176.125 119.785 179.248C118.05 181.701 117.381 184.752 117.931 187.705C118.502 190.85 120.484 193.488 123.099 195.258C126.358 197.464 130.124 198.262 134.011 197.698C137.871 196.788 141.148 195.179 143.281 191.691C144.826 189.143 145.304 186.087 144.611 183.189C143.829 180.124 141.852 177.501 139.122 175.905C136.164 174.148 132.475 173.44 129.066 173.895Z" fill="#E9B49C"/>
<path d="M171.081 152.885C170.531 152.776 170.211 153.1 169.759 153.407C167.164 155.171 164.699 157.379 162.425 159.536C161.46 160.451 160.458 161.815 159.369 162.508C161.088 152.199 162.461 137.906 160.771 127.648C160.439 125.634 159.876 123.732 159.258 121.793C159.336 121.853 159.415 121.911 159.492 121.972C166.949 127.831 170.151 143.791 171.081 152.885Z" fill="#D8997B"/>
<path d="M49.5596 127.521C49.2796 125.994 49.2408 124.078 49.4672 122.543L49.7839 122.624C49.7094 124.17 49.8804 126.029 49.5596 127.521Z" fill="#974D3C"/>
<path d="M165.461 128.425L165.625 128.006C183.409 134.591 199.537 147.496 207.534 164.975C209.013 168.209 209.879 171.434 210.961 174.796C213.813 174.171 216.319 173.105 218.679 171.381C216.138 171.246 213.618 169.467 211.954 167.604C210.516 165.996 209.553 163.715 209.674 161.542C209.779 159.66 210.649 158.025 212.093 156.823C213.819 155.399 216.051 154.738 218.275 154.993C220.807 155.291 223.107 156.613 224.638 158.651C225.977 160.447 226.484 162.478 226.144 164.691C225.839 166.676 224.855 168.569 223.76 170.226C226.855 170.278 229.439 170.09 231.802 167.767C234.225 165.387 235.163 161.825 235.151 158.514C235.142 156.014 234.634 153.586 233.734 151.257C233.451 150.526 232.897 149.703 232.745 148.947C232.695 148.699 232.705 148.406 232.859 148.21C233.215 148.294 233.341 148.414 233.535 148.717C236.236 152.941 237.168 159.048 235.867 163.876C235.069 166.834 233.435 169.705 230.716 171.267C227.909 172.88 224.454 173.015 221.315 172.642C218.614 174.928 215.163 176.82 211.566 177.08C212.188 179.676 212.488 182.387 212.733 185.043C214.133 199.172 210.875 213.372 203.456 225.479C200.004 231.11 195.458 236.777 190.416 241.063L190.415 252.277C190.415 254.116 190.518 256.019 190.395 257.85C190.24 259.901 190.304 261.995 190.299 264.052L190.121 264.155C189.694 261.92 189.942 259.23 189.933 256.932L189.942 240.857C198.306 233.458 204.71 224.106 208.582 213.632C214.469 197.729 213.841 180.146 206.836 164.703C198.904 147.438 183.006 134.935 165.461 128.425ZM233.303 168.171C234.892 165.998 235.707 163.384 235.963 160.72C236.09 159.399 236.134 155.397 235.334 154.428C235.052 154.697 235.375 156.841 235.412 157.347C235.691 161.241 234.992 164.09 232.848 167.347C230.926 169.498 228.757 170.719 225.855 170.886C224.976 170.937 224.077 170.937 223.199 170.867L221.924 172.081C225.392 172.275 229.096 172.091 231.846 169.68C232.363 169.227 232.861 168.696 233.303 168.171ZM216.565 155.601C214.473 155.99 212.575 156.823 211.355 158.655C210.404 160.085 210.151 161.777 210.504 163.445C211.063 166.087 212.961 168.273 215.206 169.676C216.061 170.211 217.738 171.113 218.733 170.91C219.11 170.833 219.195 170.801 219.409 170.493C218.731 169.866 217.874 169.471 217.078 169.011C214.401 167.467 211.962 165.572 211.895 162.175C211.868 160.826 212.321 159.505 213.312 158.567C214.433 157.504 216.03 157.06 217.549 157.128C219.406 157.211 221.26 158.018 222.502 159.414C223.583 160.628 224.051 162.027 224.09 163.635C223.589 167.29 221.673 169.76 218.774 171.942C217.224 173.107 215.465 174.105 213.616 174.706C212.842 174.957 211.775 174.964 211.116 175.435C211.167 175.89 211.177 176.002 211.438 176.372C212.345 176.769 214.304 175.961 215.206 175.608C219.214 174.041 222.981 171.074 224.737 167.065C225.625 165.038 225.925 162.945 225.097 160.83C224.297 158.784 222.701 157.151 220.675 156.305C219.379 155.751 217.971 155.51 216.565 155.601ZM216.878 157.623C215.386 158.013 213.874 158.58 213.014 159.958C212.416 160.914 212.332 162.109 212.614 163.184C213.336 165.936 216.2 167.978 218.567 169.267C218.913 169.455 219.269 169.626 219.632 169.778C220.217 169.811 220.457 169.685 220.886 169.287C222.349 167.931 223.449 165.429 223.427 163.424C223.41 161.86 222.693 160.397 221.546 159.348C220.387 158.287 218.627 157.578 217.048 157.612C216.992 157.613 216.935 157.619 216.878 157.623Z" fill="#5D2E26"/>
<path d="M68.4768 137.371L68.5947 137.759C58.9872 143.876 50.4434 152.887 44.9934 162.9C43.4058 165.817 42.2014 168.835 40.8869 171.875C37.9228 179.963 36.6821 188.581 37.2453 197.177C38.7676 214.278 46.3726 227.995 59.5044 238.994C69.2671 247.236 80.7918 253.125 93.1904 256.209L93.1497 256.502C82.2403 253.998 71.7582 248.829 62.7805 242.188C62.7054 246.847 62.6824 251.507 62.7121 256.167C62.7215 258.695 63.0126 261.682 62.5856 264.159L62.3749 264.026C62.228 262.579 62.3115 261.062 62.3056 259.605L62.3179 259.158L62.3024 254.528L62.3097 254.065L62.3059 249.405L62.3112 248.899L62.3027 244.33L62.3163 243.858L62.321 241.946C61.2787 241.064 60.2307 240.189 59.1774 239.321L58.7317 238.928C57.1952 237.622 55.748 236.182 54.2768 234.802C51.4785 231.623 48.7852 228.475 46.2142 225.105C41.243 216.994 38.0328 209.177 37.0586 199.624C35.7265 186.545 38.5201 173.378 45.0483 161.967C47.431 157.846 50.1914 154.184 53.201 150.508C57.8137 145.494 62.7263 141.061 68.4768 137.371Z" fill="#331310"/>
<path d="M232.844 167.349C234.988 164.091 235.687 161.243 235.408 157.349C235.371 156.843 235.048 154.698 235.33 154.43C236.13 155.399 236.086 159.401 235.959 160.722C235.703 163.385 234.888 166 233.299 168.173L232.844 167.349Z" fill="#F37E60"/>
<path d="M224.082 163.639C224.043 162.031 223.574 160.631 222.494 159.417C221.251 158.022 219.397 157.214 217.541 157.131C216.022 157.063 214.425 157.508 213.303 158.57C212.312 159.509 211.86 160.83 211.887 162.178C211.954 165.576 214.393 167.47 217.069 169.015C217.865 169.474 218.722 169.87 219.401 170.497C219.187 170.805 219.102 170.837 218.725 170.914C217.73 171.117 216.053 170.214 215.198 169.68C212.952 168.276 211.055 166.09 210.496 163.449C210.143 161.78 210.396 160.089 211.347 158.659C212.566 156.827 214.465 155.994 216.557 155.605C217.963 155.513 219.371 155.755 220.667 156.308C222.693 157.155 224.289 158.788 225.088 160.833C225.917 162.949 225.617 165.041 224.729 167.068C222.972 171.078 219.206 174.044 215.198 175.612C214.296 175.964 212.337 176.772 211.43 176.375C211.169 176.005 211.159 175.894 211.108 175.439C211.767 174.968 212.834 174.96 213.607 174.709C215.457 174.109 217.216 173.111 218.765 171.945C221.665 169.764 223.581 167.294 224.082 163.639Z" fill="#E99E87"/>
<path d="M74.2372 170.463C72.1141 170.991 69.9601 169.717 69.4 167.602C68.8399 165.487 70.0809 163.314 72.187 162.722C73.5781 162.331 75.072 162.72 76.096 163.739C77.12 164.758 77.5155 166.251 77.1305 167.643C76.7454 169.036 75.6397 170.114 74.2372 170.463Z" fill="#5D4130"/>
<path d="M102.608 170.556C100.465 170.822 98.5136 169.3 98.2487 167.158C97.9838 165.016 99.5067 163.064 101.649 162.801C103.789 162.538 105.738 164.059 106.003 166.199C106.268 168.34 104.748 170.29 102.608 170.556Z" fill="#5D4130"/>
<path d="M232.845 167.348L233.3 168.171C232.858 168.697 232.361 169.227 231.844 169.68C229.094 172.091 225.389 172.275 221.922 172.081L223.197 170.868C224.074 170.937 224.973 170.938 225.852 170.887C228.755 170.719 230.924 169.499 232.845 167.348Z" fill="#E99E87"/>
<path d="M37.2416 197.174C36.6783 188.579 37.919 179.961 40.8832 171.873C46.0519 172.605 51.3555 173.846 54.6729 178.232C55.9388 179.906 56.4478 181.703 57.3621 183.536C55.3273 186.416 53.7511 189.505 53.0292 192.979C51.9594 193.655 50.9761 194.441 49.8619 195.047C45.9724 197.162 41.5685 197.454 37.2416 197.174Z" fill="#F37E60"/>
<path d="M57.3654 183.536C61.4993 178.309 67.2129 174.768 73.9029 173.976C76.5811 173.66 79.1098 173.945 81.7617 174.312C87.0174 175.04 90.8164 175.71 95.1106 179.123C99.8948 182.887 102.943 188.434 103.557 194.49C104.245 200.642 102.441 206.814 98.5466 211.626C94.3165 216.841 90.5603 218.025 84.3144 219.497C82.5098 219.922 80.7847 220.454 78.9265 220.632C72.7786 221.221 66.2163 219.071 61.4873 215.134C56.506 210.987 53.3147 205.362 52.7688 198.869C52.5909 196.903 52.6796 194.922 53.0325 192.98C53.7544 189.506 55.3306 186.417 57.3654 183.536ZM75.0632 174.264C62.3918 174.939 52.6556 185.74 53.2942 198.414C53.9325 211.087 64.7051 220.855 77.3803 220.253C90.1078 219.649 99.9247 208.823 99.2836 196.097C98.6424 183.371 87.7873 173.586 75.0632 174.264ZM84.0372 175.112C90.5562 178.014 95.2664 181.52 97.8994 188.413C100.245 194.555 100.177 201.387 97.4254 207.38C94.9649 212.74 91.1883 216.048 86.0593 218.739C87.3256 218.453 88.5319 218.14 89.7502 217.69C95.2698 215.356 99.3631 211.143 101.632 205.6C103.968 199.891 103.781 193.543 101.389 187.884C99.1981 182.7 94.7624 178.329 89.5209 176.254C87.7847 175.567 85.9089 175.12 84.0372 175.112Z" fill="#331310"/>
<path d="M134.011 197.697C130.123 198.261 126.357 197.463 123.098 195.257C120.483 193.488 118.501 190.849 117.93 187.705C117.38 184.751 118.049 181.7 119.784 179.247C122.013 176.124 125.355 174.519 129.065 173.894C132.474 173.439 136.163 174.148 139.121 175.904C141.851 177.5 143.828 180.124 144.61 183.188C145.303 186.087 144.825 189.142 143.28 191.691C141.147 195.179 137.87 196.787 134.011 197.697Z" fill="#F37E60"/>
<path d="M77.3735 220.253C64.6984 220.854 53.9258 211.087 53.2875 198.413C52.6489 185.74 62.3851 174.939 75.0565 174.264C87.7806 173.586 98.6357 183.371 99.2769 196.097C99.918 208.822 90.1011 219.649 77.3735 220.253ZM66.4143 193.494C64.9456 193.94 64.1001 195.475 64.5085 196.955C64.9172 198.434 66.4304 199.318 67.9199 198.947C68.9174 198.699 69.7015 197.929 69.9686 196.936C70.2354 195.943 69.943 194.884 69.2044 194.169C68.4661 193.454 67.398 193.195 66.4143 193.494ZM82.4154 193.565C81.3267 193.609 80.3459 194.236 79.848 195.205C79.35 196.174 79.4118 197.336 80.0098 198.247C80.6077 199.158 81.6494 199.677 82.7365 199.606C84.3893 199.498 85.6474 198.08 85.5597 196.427C85.4717 194.773 84.0702 193.497 82.4154 193.565Z" fill="#F37E60"/>
<path d="M86.0612 218.741C91.1902 216.049 94.9668 212.741 97.4273 207.381C100.179 201.388 100.247 194.556 97.9013 188.414C95.2683 181.521 90.5582 178.015 84.0391 175.113C85.9108 175.121 87.7866 175.568 89.5228 176.255C94.7643 178.33 99.2 182.701 101.391 187.885C103.783 193.544 103.97 199.892 101.633 205.601C99.365 211.144 95.2717 215.357 89.7521 217.691C88.5338 218.141 87.3275 218.454 86.0612 218.741Z" fill="#F37E60"/>
<path d="M67.9203 198.948C66.4308 199.319 64.9176 198.435 64.5089 196.956C64.1005 195.476 64.946 193.941 66.4147 193.495C67.3984 193.196 68.4666 193.455 69.2048 194.17C69.9434 194.885 70.2358 195.945 69.969 196.937C69.7019 197.93 68.9179 198.7 67.9203 198.948Z" fill="#5D4130"/>
<path d="M82.7385 199.606C81.6514 199.678 80.6097 199.159 80.0118 198.248C79.4138 197.337 79.352 196.174 79.85 195.205C80.348 194.236 81.3288 193.61 82.4174 193.565C84.0722 193.498 85.4737 194.773 85.5617 196.427C85.6494 198.081 84.3914 199.498 82.7385 199.606Z" fill="#5D4130"/>
<path d="M117.173 204.434C116.323 202.738 114.926 200.527 115.674 198.59C115.697 198.531 115.728 198.477 115.755 198.42L116.003 198.346C117.213 199.987 116.428 202.556 118.151 204.169C119.638 205.561 121.758 205.903 123.226 207.141C123.094 207.389 123.159 207.394 122.913 207.464C121.86 207.766 119.886 206.638 118.998 206.054C118.545 205.757 118.107 205.426 117.684 205.088L117.336 204.933L117.173 204.434Z" fill="#5D2E26"/>
<path d="M117.694 205.088C112.381 212.867 106.745 222.826 97.8007 226.806C89.0318 230.708 78.7446 228.704 70.1081 225.41C68.9857 224.982 65.9275 224.107 65.4453 223.028L65.5939 222.682C66.4823 222.377 68.3136 223.594 69.2112 223.947C74.6719 226.098 80.3773 227.988 86.3057 228.019C100.018 228.093 105.753 220.457 113.016 210.317C114.348 208.457 115.576 206.038 117.183 204.434L117.347 204.933L117.694 205.088Z" fill="#5D2E26"/>
<path d="M62.773 242.186C71.7508 248.826 82.2328 253.995 93.1422 256.499C93.2372 256.609 93.3652 256.698 93.4273 256.83C93.6926 257.39 93.5062 263.065 93.5128 264.224L72.3856 264.205C69.324 264.206 65.5616 264.524 62.5781 264.156C63.0051 261.679 62.7141 258.692 62.7046 256.164C62.6749 251.505 62.698 246.845 62.773 242.186Z" fill="#E9B49C"/>
<path d="M101.279 257.928C98.5597 257.451 95.879 256.8 93.1832 256.207L93.1425 256.5C93.2374 256.61 93.3654 256.699 93.4276 256.83C93.6928 257.391 93.5064 263.065 93.513 264.225L72.3858 264.206C69.3242 264.206 65.5618 264.524 62.5784 264.157L62.3677 264.024C62.0463 264.22 61.8013 264.203 61.4399 264.211C53.2004 264.39 29.0983 264.189 20.8551 264.208L14.9844 266.147L198.36 266.142L242.831 266.133C250.16 266.135 257.551 266.348 264.873 266.157C265.327 266.145 265.837 266.157 266.237 265.92C266.419 265.812 266.52 265.595 266.553 265.391C266.614 265.013 266.477 264.76 266.256 264.476C265.837 264.243 265.458 264.221 264.994 264.194L264.96 264.192C262.653 264.058 260.255 264.212 257.942 264.237C252.241 264.298 246.48 264.467 240.785 264.216C237.026 264.101 233.229 264.22 229.468 264.26C221.329 264.347 213.123 264.505 204.988 264.245L190.495 264.229C190.488 262.107 190.532 259.968 190.391 257.851C190.236 259.902 190.299 261.995 190.295 264.053L190.116 264.156C187.078 264.472 182.882 264.202 179.721 264.202L157.755 264.202L157.77 255.68C151.438 257.357 146.018 258.392 139.493 259.098C139.47 260.796 139.503 262.499 139.51 264.198L107.696 264.221L107.713 258.92C105.59 258.5 103.414 258.302 101.279 257.928Z" fill="#6683C2"/>
<path d="M118.853 98.4746C120.029 98.4746 121.223 98.8385 122.417 99.5918C122.561 99.6812 122.696 99.7739 122.823 99.8672C122.782 100.239 122.76 100.623 122.76 101.016C122.76 102.947 123.288 104.663 124.105 105.745C123.995 105.887 123.871 106.024 123.729 106.153C123.272 106.551 122.756 106.839 122.163 107C121.579 107.178 120.927 107.263 120.19 107.263C120.106 107.263 119.97 107.245 119.784 107.229C119.59 107.212 119.344 107.187 119.048 107.136C119.065 107.305 119.098 107.491 119.141 107.694C119.174 107.906 119.217 108.135 119.276 108.389C119.623 108.406 119.937 108.414 120.216 108.423C120.495 108.431 120.767 108.431 120.995 108.431C121.046 108.431 121.114 108.423 121.207 108.414C121.3 108.414 121.401 108.397 121.503 108.389C121.613 108.372 121.706 108.346 121.799 108.354C121.892 108.329 121.969 108.33 122.02 108.321C122.13 108.321 122.231 108.354 122.333 108.405C122.434 108.448 122.527 108.507 122.604 108.583C122.688 108.659 122.756 108.744 122.807 108.846C122.874 108.939 122.917 109.049 122.934 109.15C122.967 109.311 122.968 109.447 122.942 109.54C122.909 109.642 122.841 109.727 122.73 109.786C122.62 109.845 122.46 109.887 122.257 109.904C122.045 109.93 121.791 109.938 121.478 109.938C121.308 109.938 121.062 109.929 120.749 109.921C120.436 109.921 120.055 109.912 119.581 109.896C119.649 110.226 119.708 110.556 119.775 110.903C119.852 111.25 119.929 111.614 120.005 112.004C120.056 112.241 120.022 112.453 119.895 112.622C119.768 112.774 119.59 112.859 119.353 112.867C119.115 112.867 118.895 112.783 118.709 112.622C118.523 112.453 118.396 112.249 118.345 111.995C118.192 111.279 118.04 110.559 117.888 109.837C117.498 109.828 117.16 109.811 116.889 109.777C116.618 109.735 116.39 109.675 116.212 109.607C116.043 109.531 115.907 109.447 115.813 109.346C115.72 109.236 115.661 109.108 115.636 108.973C115.585 108.736 115.61 108.549 115.729 108.414C115.84 108.303 116.023 108.23 116.276 108.22H116.584C116.669 108.228 116.762 108.219 116.863 108.236C116.973 108.236 117.092 108.253 117.211 108.262C117.338 108.27 117.448 108.27 117.566 108.278C117.524 108.075 117.49 107.872 117.456 107.66C117.414 107.432 117.371 107.212 117.329 106.958C117.126 106.947 116.92 106.938 116.711 106.933C116.449 106.924 116.228 106.899 116.042 106.882C115.856 106.84 115.704 106.805 115.594 106.746C115.467 106.695 115.374 106.628 115.314 106.526C115.247 106.442 115.204 106.323 115.17 106.188C115.111 105.942 115.145 105.756 115.246 105.604C115.373 105.443 115.585 105.366 115.906 105.357C115.948 105.357 116 105.366 116.059 105.366C116.118 105.375 116.186 105.374 116.245 105.383C116.321 105.391 116.381 105.392 116.423 105.392C116.482 105.4 116.517 105.4 116.542 105.4C116.722 105.423 116.906 105.451 117.092 105.484C116.948 104.663 116.821 103.961 116.702 103.343C116.592 102.733 116.491 102.233 116.397 101.869C116.296 101.457 116.192 101.046 116.085 100.634C115.933 100.041 115.873 99.6003 115.873 99.3379C115.873 99.0756 115.94 98.8893 116.067 98.8047C116.203 98.7116 116.389 98.6608 116.635 98.6523C116.838 98.6354 117.126 98.6016 117.481 98.5508C117.828 98.5 118.302 98.4746 118.853 98.4746ZM119.039 100.185C118.76 100.176 118.514 100.193 118.294 100.193C118.082 100.21 117.905 100.236 117.761 100.253C117.812 100.566 117.88 100.88 117.947 101.176C117.981 101.311 118.006 101.429 118.04 101.548C118.074 101.675 118.108 101.794 118.134 101.912C118.286 102.538 118.413 103.173 118.506 103.774C118.607 104.392 118.709 105.011 118.811 105.62C119.279 105.66 119.745 105.702 120.208 105.747C120.69 105.73 121.105 105.654 121.469 105.502C121.85 105.341 122.146 105.13 122.375 104.867C122.603 104.596 122.772 104.274 122.849 103.894C122.933 103.513 122.917 103.072 122.815 102.598C122.739 102.242 122.612 101.938 122.426 101.658C122.231 101.362 121.927 101.09 121.486 100.845C120.665 100.396 119.852 100.185 119.039 100.185Z" fill="#BF9432"/>
<path d="M46.2848 232.088C49.5316 231.584 52.2788 231.901 55.3411 233.091C59.628 235.171 62.888 238.622 64.4336 243.174C65.7358 247.009 65.5293 251.708 63.6922 255.34C61.6808 259.248 58.1896 262.189 53.9967 263.507C53.6599 263.612 53.3193 263.703 52.9755 263.782C49.0267 264.392 45.879 264.38 42.0724 263.14C41.2616 262.519 40.1152 262.128 39.2407 261.546C36.8672 259.965 35.3758 257.294 34.0594 254.845C33.0779 251.325 32.8496 248.546 33.1416 244.926C33.6664 243.104 34.1612 241.36 35.1399 239.716C37.7146 235.391 41.5205 233.274 46.2848 232.088ZM48.81 236.683C45.3406 236.895 42.3711 237.927 40.0272 240.597C37.9356 242.979 36.9479 246.007 37.1557 249.165C37.3897 252.383 38.9095 255.37 41.372 257.454C43.1895 259.003 45.4639 259.935 47.8494 260.002L48.0099 259.909C47.7993 259.839 47.6129 259.779 47.3934 259.744C44.0214 259.087 41.4754 257.722 39.5327 254.81C37.7543 252.186 37.1236 248.95 37.7868 245.851C38.4093 242.925 40.172 240.368 42.6849 238.745C44.192 237.806 45.9039 237.244 47.675 237.107C48.3628 237.048 49.1611 237.09 49.8028 236.825C49.443 236.651 49.1992 236.673 48.81 236.683ZM48.448 241.45L48.2865 243.007C47.0575 243.473 45.568 244.039 44.9603 245.307C44.6408 245.974 44.6824 246.746 44.9455 247.425C45.4501 248.725 48.2749 250.637 47.8053 251.932C47.6993 252.224 47.5905 252.407 47.307 252.554C46.8591 252.787 46.1079 252.787 45.6544 252.588C44.884 252.251 44.2696 251.643 43.4048 251.559C43.027 251.725 42.9138 251.751 42.7889 252.186C42.6546 252.652 42.699 253.145 43.0201 253.514C43.3449 253.887 43.9303 254.116 44.3699 254.317C44.5935 254.972 44.4582 255.78 44.4194 256.466C45.0363 256.387 45.7342 256.373 46.277 256.051L46.3889 255.801C46.3848 255.584 46.2981 255.085 46.4618 254.942C47.5694 253.976 50.0368 254.817 50.6127 251.764C50.7341 251.12 50.5544 250.519 50.1803 249.992C49.174 248.572 47.0581 248.065 47.3199 245.999C47.3489 245.772 47.4467 245.617 47.5735 245.434C48.975 244.937 51.0751 247.367 51.971 245.763C52.1754 245.397 52.1457 245.012 52.0357 244.626C51.4573 243.931 50.2283 243.835 50.1267 242.87L50.5206 241.999C50.3563 241.731 50.304 241.661 49.9813 241.568C49.5121 241.434 48.9352 241.464 48.448 241.45Z" fill="#F2C45B"/>
<path d="M55.4264 232.867C56.6396 233.45 57.7579 234.121 58.9053 234.821C60.4033 236.138 61.7663 237.435 62.8765 239.105L63.2385 239.617C63.9844 240.991 64.6325 242.405 65.0983 243.9L65.313 244.619C65.5246 246.053 65.7189 247.482 65.7031 248.935L65.5839 249.999C65.4685 251.341 65.2149 252.766 64.7037 254.019L64.5038 254.516C63.7835 256.167 62.867 257.782 61.6241 259.101L61.2261 259.494C58.5237 262.267 56.504 262.78 53.0844 264.188L52.9766 263.783C53.3203 263.704 53.6609 263.613 53.9977 263.508C58.1906 262.19 61.6818 259.249 63.6933 255.341C65.5303 251.709 65.7369 247.009 64.4347 243.175C62.8891 238.623 59.6291 235.172 55.3422 233.092L55.4264 232.867Z" fill="#331310"/>
<path d="M47.3976 259.744C47.6171 259.779 47.8035 259.839 48.0142 259.908L47.8537 260.002C45.4682 259.935 43.1937 259.003 41.3762 257.453C38.9138 255.37 37.394 252.382 37.16 249.165C36.9521 246.007 37.9399 242.978 40.0314 240.597C42.3753 237.927 45.3449 236.894 48.8143 236.682C49.2035 236.672 49.4472 236.651 49.8071 236.824C49.1653 237.09 48.3671 237.048 47.6793 237.107C45.9081 237.243 44.1963 237.805 42.6891 238.745C40.1762 240.368 38.4136 242.925 37.791 245.851C37.1278 248.95 37.7585 252.186 39.5369 254.809C41.4796 257.722 44.0256 259.087 47.3976 259.744Z" fill="#331310"/>
<path d="M48.2875 243.008L48.449 241.451C48.9363 241.466 49.5131 241.435 49.9823 241.57C50.305 241.662 50.3573 241.733 50.5216 242L50.1277 242.872C50.2293 243.836 51.4583 243.932 52.0367 244.628C52.1468 245.014 52.1764 245.399 51.972 245.765C51.0761 247.369 48.976 244.938 47.5745 245.435C47.4477 245.619 47.3499 245.773 47.3209 246C47.0591 248.066 49.175 248.574 50.1813 249.993C50.5554 250.521 50.7351 251.121 50.6137 251.765C50.0379 254.819 47.5704 253.977 46.4628 254.943C46.2991 255.086 46.3858 255.585 46.3899 255.802L46.278 256.052C45.7352 256.375 45.0373 256.389 44.4204 256.467C44.4592 255.781 44.5945 254.974 44.3709 254.318C43.9313 254.117 43.3459 253.889 43.0211 253.515C42.7001 253.146 42.6556 252.653 42.7899 252.187C42.9148 251.753 43.028 251.726 43.4059 251.56C44.2706 251.644 44.885 252.253 45.6554 252.59C46.1089 252.788 46.8601 252.789 47.308 252.556C47.5915 252.408 47.7003 252.225 47.8063 251.933C48.2759 250.638 45.4511 248.727 44.9465 247.426C44.6834 246.747 44.6418 245.976 44.9613 245.309C45.569 244.041 47.0585 243.474 48.2875 243.008Z" fill="#F2C45B"/>
<path d="M48.3805 249.924C48.2954 249.924 48.1617 249.915 47.9793 249.897C47.7969 249.879 47.5597 249.849 47.2679 249.807C47.2557 249.969 47.2466 250.155 47.2405 250.366C47.2345 250.571 47.2284 250.799 47.2223 251.052C47.5689 251.07 47.8789 251.082 48.1525 251.088C48.4322 251.094 48.6876 251.097 48.9186 251.097C48.9673 251.097 49.0372 251.094 49.1284 251.088C49.2257 251.076 49.326 251.064 49.4293 251.052C49.5388 251.034 49.6391 251.022 49.7303 251.016C49.8276 251.004 49.9005 250.998 49.9492 250.998C50.0586 250.998 50.1559 251.022 50.241 251.07C50.3322 251.112 50.4082 251.172 50.469 251.25C50.5359 251.329 50.5876 251.416 50.624 251.512C50.6605 251.608 50.6788 251.711 50.6788 251.819C50.6788 251.981 50.6544 252.114 50.6058 252.216C50.5572 252.312 50.472 252.39 50.3504 252.451C50.2288 252.511 50.0647 252.553 49.858 252.577C49.6513 252.595 49.3929 252.604 49.0828 252.604C48.9125 252.604 48.6724 252.601 48.3623 252.595C48.0583 252.589 47.6722 252.58 47.2041 252.568C47.198 252.887 47.1949 253.221 47.1949 253.569C47.1949 253.912 47.1949 254.279 47.1949 254.67C47.1949 254.911 47.1159 255.116 46.9578 255.284C46.7997 255.446 46.6021 255.528 46.365 255.528C46.1218 255.528 45.9212 255.446 45.7631 255.284C45.605 255.116 45.526 254.911 45.526 254.67V252.505C45.1308 252.499 44.7994 252.478 44.5319 252.442C44.2644 252.399 44.0485 252.342 43.8844 252.27C43.7263 252.198 43.6108 252.111 43.5378 252.008C43.4709 251.9 43.4375 251.777 43.4375 251.638C43.4375 251.404 43.5135 251.22 43.6655 251.088C43.8236 250.95 44.0607 250.88 44.3769 250.88C44.4194 250.88 44.4833 250.883 44.5684 250.889C44.6535 250.889 44.7477 250.892 44.8511 250.898C44.9605 250.904 45.0761 250.913 45.1977 250.926C45.3193 250.932 45.4348 250.938 45.5442 250.944C45.5503 250.745 45.5594 250.537 45.5716 250.321C45.5837 250.104 45.5959 249.873 45.6081 249.626L44.997 249.599C44.7356 249.587 44.5167 249.569 44.3404 249.545C44.1641 249.515 44.0212 249.473 43.9117 249.419C43.8084 249.364 43.7324 249.292 43.6837 249.202C43.6412 249.106 43.6199 248.988 43.6199 248.85C43.6199 248.615 43.6959 248.42 43.8479 248.264C44.006 248.107 44.2431 248.029 44.5593 248.029C44.6018 248.029 44.6535 248.032 44.7143 248.038C44.7751 248.038 44.8359 248.041 44.8967 248.047C44.9636 248.053 45.0213 248.059 45.07 248.065C45.1247 248.065 45.1642 248.065 45.1885 248.065L45.7084 248.146C45.7631 247.334 45.8057 246.621 45.8361 246.008C45.8725 245.394 45.8908 244.907 45.8908 244.546V243.3C45.8908 242.705 45.9273 242.272 46.0002 242.001C46.0671 241.736 46.1735 241.559 46.3194 241.469C46.4714 241.378 46.6629 241.327 46.894 241.315C47.1007 241.303 47.3773 241.27 47.7239 241.216C48.0765 241.162 48.5173 241.135 49.0463 241.135C50.1528 241.135 51.1956 241.511 52.1744 242.263C52.7095 242.678 53.0804 243.135 53.2871 243.634C53.4938 244.134 53.5972 244.675 53.5972 245.259C53.5972 246.011 53.4847 246.681 53.2597 247.271C53.0348 247.86 52.6365 248.378 52.065 248.823C51.5482 249.22 50.9828 249.503 50.3687 249.671C49.7607 249.84 49.098 249.924 48.3805 249.924ZM47.5871 242.921C47.5689 243.24 47.5597 243.55 47.5597 243.851C47.5597 243.971 47.5597 244.095 47.5597 244.221C47.5658 244.341 47.5689 244.462 47.5689 244.582C47.5689 245.213 47.5445 245.836 47.4959 246.45C47.4533 247.057 47.4138 247.671 47.3773 248.291L48.7271 248.408C49.1953 248.396 49.6239 248.315 50.013 248.164C50.4082 248.014 50.7456 247.803 51.0253 247.533C51.3111 247.262 51.533 246.937 51.6911 246.558C51.8492 246.173 51.9282 245.74 51.9282 245.259C51.9282 244.916 51.8674 244.603 51.7458 244.32C51.6242 244.031 51.381 243.764 51.0162 243.517C50.3352 243.072 49.6087 242.849 48.8365 242.849C48.5629 242.849 48.3228 242.855 48.1161 242.867C47.9093 242.879 47.733 242.897 47.5871 242.921Z" fill="#BF9432"/>
</svg>
