<svg width="251" height="184" viewBox="0 0 251 184" fill="none" xmlns="http://www.w3.org/2000/svg">
<g clip-path="url(#clip0_3001_439)">
<rect width="251" height="184" rx="92" fill="#6683C2"/>
<path d="M174.875 5.6717C174.93 5.62978 174.986 5.58875 175.041 5.54637C176.437 4.46738 177.6 2.89596 178.851 1.64744L197.045 -16.6966C199.047 -18.71 200.944 -20.8794 203.006 -22.8243C203.438 -23.2318 212.238 -30.5633 214.939 -32.7876C220.139 -37.0698 237.142 -48.9864 237.574 -48.9994C242.017 -49.1329 222.725 -26.6761 227.174 -26.6704C229.715 -26.6671 225.139 -24.3884 227.606 -24.1273C229.292 -23.9488 230.664 -23.2308 231.71 -21.8929C232.221 -21.2414 232.574 -20.5313 232.715 -19.7151C233.086 -17.5807 232.877 -13.5022 232.89 -11.1525C232.92 -5.91275 233.093 -0.61559 232.879 4.61732C231.797 5.57417 230.5 6.33687 229.297 7.13215C227.385 8.38728 225.479 9.65245 223.579 10.9276L206.007 22.8607L199.714 27.1072C198.329 28.0235 196.863 28.87 195.536 29.8663C195.435 29.5062 195.312 29.1628 195.175 28.8149C192.043 20.8513 182.72 9.10509 174.875 5.6717Z" fill="#89A2D8"/>
<path d="M174.171 7.57891C175.017 7.28973 175.401 7.37838 176.203 7.77237C181.815 10.5306 192.294 23.4545 194.122 29.4451C194.166 29.5884 194.175 29.7124 194.164 29.8609C188.247 33.7558 182.381 37.5811 176.04 40.7693C170.416 43.5972 164.442 45.7684 159.135 49.1836C152.756 53.2883 147.037 58.5014 141.212 63.3375C139.334 64.898 137.512 66.6531 135.502 68.0406C132.988 69.726 130.347 72.5822 127.013 71.9694C126.579 71.8897 126.128 71.7593 125.71 71.6169C124.956 71.0554 124.272 70.4406 123.653 69.7324C123.045 68.498 122.75 67.0489 123.121 65.7029C123.258 65.339 123.35 64.9484 123.457 64.5744C124.134 60.9781 126.282 58.1238 128.223 55.1094C131.792 49.8348 135.764 44.8462 139.356 39.5919C140.135 38.6024 140.833 37.5405 141.599 36.5384C141.105 33.7963 139.943 31.0956 137.929 29.1238C134.806 26.0655 130.457 25.0599 126.198 25.1253C123.615 25.3937 117.221 29.7222 115.432 31.688C116.196 35.8807 117.27 40.0216 118.305 44.1541C119.039 47.0837 119.71 50.0559 120.545 52.9565C120.1 53.307 118.895 53.2767 118.299 53.3746C117.442 53.5152 116.582 53.8138 115.765 54.1034C113.95 54.7467 112.635 55.6753 111 56.6362C109.903 55.1566 108.755 52.8271 107.784 51.1848C106.055 48.2588 104.362 45.3124 102.704 42.3462C101.78 40.7094 100.723 39.0566 99.995 37.3252C100.06 36.5279 99.6623 35.5975 99.4337 34.8336C99.3658 34.5415 99.3043 34.248 99.2491 33.9533C98.8488 31.763 98.8775 29.3168 99.8227 27.2636C100.199 26.4467 100.704 25.7184 101.29 25.0393C102.425 23.7238 103.821 22.5781 105.075 21.3708C107.346 19.185 109.586 16.9753 111.883 14.8157C113.173 13.6032 114.638 12.4395 115.649 10.9813C114.842 11.4124 113.328 13.1051 112.576 13.8145L105.431 20.6769C104.174 21.8899 102.869 23.0628 101.652 24.3149C101.127 24.8466 100.649 25.4226 100.224 26.0365C98.4915 28.5504 98.5701 31.665 99.1051 34.5431C99.3253 35.2967 99.5828 36.0584 99.7487 36.8248C99.709 36.7712 99.6703 36.7175 99.6302 36.6644C97.9245 34.4095 95.5291 30.0268 94.7541 27.3696C94.1104 25.1615 93.9306 22.9682 95.0683 20.8802C95.7321 19.8609 96.4333 18.9066 97.2999 18.0479C98.8369 16.5253 100.701 15.2633 102.427 13.9621L109.944 8.29033C111.254 7.30956 112.632 6.43931 113.784 5.26507C113.753 5.27077 113.721 5.27054 113.692 5.28216C112.625 5.7092 98.893 16.2265 97.4934 17.522C96.5108 18.4314 95.7137 19.4432 95.0253 20.5885C94.3027 17.7576 94.6557 14.7622 96.1045 12.2385C97.4788 10.1487 99.3811 8.51228 101.482 7.18856C103.016 6.22191 104.647 5.44623 106.243 4.5917C109.556 2.81747 112.696 0.905599 116.452 0.185516C123.633 -1.19176 133.326 2.82225 140.203 5.02717C144.497 6.40398 148.804 7.75346 153.205 8.75246C158.854 10.0352 164.352 10.3601 170.04 9.03092C171.426 8.70689 172.951 8.34684 174.171 7.57891ZM132.716 60.8163C130.361 61.4997 128.418 63.7254 127.262 65.8189C126.74 66.7632 126.392 67.8403 126.691 68.9164C126.863 69.5319 127.219 70.0186 127.787 70.3203C128.647 70.777 129.663 70.7289 130.585 70.5423C132.329 69.8502 135.769 67.6749 136.565 65.9811C136.941 65.1817 136.941 64.2714 136.632 63.4522C136.245 62.4295 135.418 61.5727 134.423 61.1274C133.859 60.8754 133.327 60.807 132.716 60.8163Z" fill="#F1BBA2"/>
<path d="M95.0234 20.5871C95.7118 19.4418 96.509 18.43 97.4915 17.5206C98.8912 16.2251 112.623 5.7078 113.69 5.28076C113.719 5.26914 113.752 5.26937 113.782 5.26367C112.63 6.43791 111.253 7.30816 109.942 8.28894L102.425 13.9607C100.699 15.2619 98.8351 16.5239 97.2981 18.0465C96.4315 18.9052 95.7303 19.8595 95.0665 20.8788L95.0234 20.5871Z" fill="#331310"/>
<path d="M174.175 7.57769C174.132 7.26345 174.075 6.93531 174.136 6.62016C174.23 6.13934 174.489 5.92172 174.887 5.66992C182.731 9.10331 192.054 20.8496 195.186 28.8131C195.323 29.1611 195.446 29.5045 195.547 29.8645C195.342 30.1245 195.207 30.3036 194.889 30.4342C194.573 30.3813 194.5 30.3517 194.29 30.0844C194.235 30.0133 194.205 29.9395 194.168 29.8597C194.179 29.7111 194.17 29.5872 194.127 29.4438C192.299 23.4533 181.819 10.5293 176.207 7.77116C175.405 7.37716 175.021 7.28851 174.175 7.57769Z" fill="#5D4130"/>
<path d="M99.1036 34.5422C98.5685 31.6642 98.4899 28.5496 100.222 26.0357C100.647 25.4218 101.126 24.8457 101.65 24.3141C102.868 23.0619 104.172 21.8891 105.429 20.6761L112.574 13.8136C113.327 13.1043 114.84 11.4116 115.648 10.9805C114.636 12.4386 113.171 13.6024 111.882 14.8149C109.585 16.9745 107.344 19.1842 105.073 21.37C103.819 22.5772 102.424 23.723 101.288 25.0385C100.702 25.7176 100.197 26.4459 99.8212 27.2628C98.8759 29.3159 98.8472 31.7622 99.2476 33.9525C99.3027 34.2472 99.3643 34.5407 99.4322 34.8328L99.1036 34.5422Z" fill="#331310"/>
<path d="M99.1094 34.543L99.438 34.8335C99.6665 35.5973 100.064 36.5278 99.9992 37.3251L99.7529 36.8247C99.587 36.0583 99.3295 35.2965 99.1094 34.543Z" fill="#5D2E26"/>
<path d="M120.541 52.957L120.672 53.1425C123.229 53.3681 126.064 53.5269 128.219 55.11C126.277 58.1243 124.13 60.9787 123.453 64.575C122.529 64.0315 121.823 63.6537 120.729 63.6216C120.679 63.159 120.699 62.2632 120.435 61.8936C120.183 61.8111 119.864 61.7726 119.609 61.8856C119.471 61.9474 119.441 61.9809 119.333 62.0677C119.238 62.608 119.312 63.0696 119.596 63.5393C119.643 63.6165 119.68 63.6995 119.721 63.7802C118.576 64.8557 117.386 64.6354 117.335 66.8398C117.314 67.7409 117.746 68.5819 118.39 69.1931C119.21 69.9706 120.237 70.3354 121.32 70.5701C121.757 71.8927 122.08 73.2335 122.362 74.5965C121.698 74.4344 121.13 74.2765 120.523 73.9493C119.976 73.6544 119.478 73.3222 118.834 73.4826C118.63 73.6861 118.579 73.7296 118.604 74.042C118.649 74.596 119.326 75.1864 119.76 75.4526C120.671 76.0104 121.688 76.0849 122.729 76.1132C122.789 76.4937 122.774 76.9825 123.09 77.2396C123.304 77.4137 123.538 77.4116 123.789 77.3722C123.997 77.1516 124.146 77.0267 124.158 76.6984C124.168 76.4115 123.942 76.0594 123.805 75.8124C124.869 75.1422 125.728 74.5281 126.037 73.2315C126.08 73.0471 126.118 72.8621 126.152 72.6759C125.998 72.3275 125.827 71.9786 125.706 71.6174C126.123 71.7599 126.574 71.8902 127.008 71.97C130.342 72.5827 132.983 69.7265 135.498 68.0412C136.04 70.4031 134.291 74.8006 133.033 76.8134C132.373 77.869 131.59 78.8338 130.796 79.7899C130.753 79.8029 130.709 79.8123 130.667 79.8289C129.89 80.1349 129.233 80.9469 128.487 81.3582C125.186 83.1791 120.7 84.0824 117.001 83.1062C115.269 82.7621 113.585 81.9939 112.108 81.0364C108.81 78.8921 106.516 75.5073 105.748 71.6491C104.994 68.0309 105.461 64.0791 107.406 60.8975C108.044 59.8525 108.86 58.9479 109.519 57.9252L109.57 57.8443C109.871 57.3306 110.471 56.8936 110.996 56.6367C112.63 55.6758 113.945 54.7472 115.76 54.1039C116.578 53.8143 117.437 53.5158 118.294 53.3752C118.891 53.2772 120.095 53.3075 120.541 52.957ZM119.611 57.4152C116.53 57.8244 113.739 59.4446 111.855 61.9173C110.049 64.3163 109.294 67.3464 109.765 70.3124C110.185 73.1431 111.701 75.8422 114.02 77.5431C115.134 78.3748 116.41 78.9616 117.767 79.2654C117.374 78.796 115.833 78.3215 115.187 77.9592C111.487 75.8819 109.605 71.7052 109.984 67.5383C110.241 64.6515 111.653 61.9911 113.899 60.1601C115.352 58.9725 116.914 58.3385 118.711 57.8686C119.001 57.793 119.617 57.7531 119.698 57.4685L119.611 57.4152Z" fill="#F2C45B"/>
<path d="M117.764 79.2643C116.407 78.9605 115.13 78.3737 114.017 77.542C111.698 75.8411 110.182 73.142 109.762 70.3113C109.291 67.3453 110.046 64.3152 111.852 61.9162C113.736 59.4435 116.527 57.8233 119.608 57.4141L119.695 57.4674C119.614 57.752 118.998 57.7919 118.708 57.8675C116.911 58.3374 115.349 58.9714 113.896 60.159C111.65 61.99 110.238 64.6504 109.98 67.5372C109.602 71.7041 111.484 75.8808 115.184 77.9581C115.83 78.3204 117.371 78.7948 117.764 79.2643Z" fill="#331310"/>
<path d="M111.523 81.2348C110.618 80.6059 109.757 79.9159 108.995 79.1177C106.236 76.2282 104.835 72.046 104.96 68.0872C105.065 64.1935 106.726 60.5044 109.571 57.8438L109.52 57.9246C108.861 58.9473 108.045 59.852 107.406 60.897C105.462 64.0786 104.995 68.0304 105.748 71.6486C106.517 75.5068 108.81 78.8916 112.108 81.0359C113.585 81.9934 115.269 82.7616 117.002 83.1057L116.699 83.3133C115 82.959 113.596 82.384 112.12 81.4686C108.603 82.1762 105.182 83.051 101.791 84.2309L101.273 84.0985C104.634 82.9097 108.052 82.0278 111.523 81.2348Z" fill="#5D2E26"/>
<path d="M130.583 70.5431C129.66 70.7298 128.644 70.7779 127.785 70.3212C127.216 70.0195 126.86 69.5328 126.689 68.9173C126.389 67.8412 126.737 66.7641 127.259 65.8198C128.415 63.7263 130.358 61.5006 132.713 60.8172C133.325 60.8079 133.857 60.8763 134.42 61.1283C135.415 61.5735 136.242 62.4304 136.629 63.4531C136.938 64.2723 136.938 65.1826 136.562 65.982C135.766 67.6758 132.327 69.8511 130.583 70.5431Z" fill="#ECECEC"/>
<path d="M120.739 63.6207C121.832 63.6529 122.538 64.0307 123.462 64.5742C123.354 64.9481 123.263 65.3387 123.126 65.7026C122.636 65.4474 122.056 65.0757 121.487 65.1951C121.295 65.4237 121.254 65.5545 121.271 65.8587C121.326 66.8589 121.904 68.2354 122.259 69.1802L123.658 69.7321C124.276 70.4404 124.961 71.0552 125.715 71.6166C125.837 71.9778 126.007 72.3267 126.162 72.6751C126.128 72.8613 126.09 73.0463 126.047 73.2307C125.738 74.5273 124.879 75.1414 123.815 75.8116C123.951 76.0586 124.177 76.4107 124.167 76.6976C124.156 77.0259 124.006 77.1508 123.799 77.3714C123.547 77.4108 123.313 77.4129 123.099 77.2388C122.784 76.9817 122.798 76.4929 122.738 76.1124C121.698 76.0841 120.681 76.0096 119.77 75.4518C119.335 75.1856 118.658 74.5952 118.614 74.0412C118.588 73.7288 118.64 73.6853 118.844 73.4818C119.488 73.3214 119.985 73.6536 120.532 73.9485C121.139 74.2757 121.707 74.4336 122.372 74.5956C122.089 73.2327 121.766 71.8919 121.33 70.5693C120.246 70.3346 119.219 69.9698 118.4 69.1923C117.755 68.5811 117.323 67.74 117.344 66.839C117.396 64.6346 118.585 64.8549 119.731 63.7794C119.69 63.6987 119.653 63.6157 119.606 63.5385C119.322 63.0688 119.248 62.6072 119.342 62.0669C119.45 61.9801 119.48 61.9466 119.619 61.8848C119.873 61.7718 120.192 61.8103 120.444 61.8928C120.708 62.2624 120.688 63.1582 120.739 63.6207ZM119.942 65.4146C119.527 65.8692 119.295 66.2349 119.322 66.8698C119.345 67.4155 119.643 67.9362 120.053 68.2856C120.229 68.4353 120.414 68.5522 120.616 68.6638L120.83 68.577C120.762 67.5876 120.368 66.5389 120.15 65.5613L119.942 65.4146ZM122.481 70.671C122.704 71.5476 122.912 73.4822 123.516 74.1135C123.805 74.1114 123.836 74.0111 124.053 73.8345C124.332 73.3195 124.464 72.7341 124.284 72.1588C124.098 71.5676 123.616 71.124 123.061 70.8795C122.873 70.7967 122.677 70.7332 122.481 70.671Z" fill="#F2C45B"/>
<path d="M122.25 69.18C121.894 68.2352 121.317 66.8586 121.261 65.8585C121.244 65.5543 121.285 65.4234 121.477 65.1949C122.046 65.0755 122.627 65.4471 123.116 65.7024C122.745 67.0484 123.04 68.4975 123.648 69.7319L122.25 69.18Z" fill="#F2C45B"/>
<path d="M120.609 68.6633C120.407 68.5517 120.222 68.4348 120.046 68.2851C119.635 67.9357 119.338 67.415 119.315 66.8693C119.288 66.2344 119.52 65.8687 119.935 65.4141L120.143 65.5608C120.361 66.5384 120.755 67.5871 120.822 68.5765L120.609 68.6633Z" fill="#F2C45B"/>
<path d="M124.048 73.8335C123.831 74.0101 123.8 74.1104 123.511 74.1124C122.907 73.4812 122.7 71.5466 122.477 70.6699C122.672 70.7321 122.868 70.7957 123.056 70.8784C123.611 71.1229 124.094 71.5666 124.279 72.1577C124.459 72.7331 124.327 73.3185 124.048 73.8335Z" fill="#F2C45B"/>
<path d="M69.9062 82.1741C70.0649 80.5667 70.5669 78.7036 71.8564 77.6282C74.036 75.8105 77.9427 76.2298 80.5519 76.5331C88.0129 77.3999 94.0523 80.3575 100.259 84.4241L101.271 84.0976L101.789 84.23C95.3605 86.4948 89.4524 89.4688 83.7264 93.1663L83.6412 92.8858C82.5651 90.9557 81.4825 89.026 80.2839 87.1689C78.81 84.8856 75.4053 80.1971 72.5571 79.6688C72.0638 79.5775 71.5572 79.6474 71.1536 79.9633C70.4591 80.5065 70.2654 81.4119 70.135 82.2327L69.9062 82.1741Z" fill="#D8997B"/>
<path d="M70.137 82.2318C70.2673 81.4109 70.461 80.5056 71.1556 79.9624C71.5591 79.6465 72.0657 79.5766 72.5591 79.6679C75.4073 80.1962 78.8119 84.8847 80.2858 87.168C81.4844 89.0251 82.5671 90.9548 83.6431 92.8849C79.488 95.5513 75.9384 98.7543 72.6055 102.377C71.8153 99.5318 69.8442 88.5881 69.975 85.7702C70.2067 84.6923 70.0832 83.349 70.137 82.2318Z" fill="#BA866D"/>
<path d="M117.007 83.1048C120.706 84.0811 125.192 83.1778 128.493 81.3568C129.239 80.9455 129.896 80.1336 130.673 79.8275C130.715 79.8109 130.759 79.8016 130.802 79.7886C132.641 79.898 134.484 79.9946 136.316 80.1871C137.417 80.3029 138.666 80.6019 139.763 80.5634C140.464 80.5385 141.248 80.075 141.958 79.9169C145.263 79.1802 148.559 79.6639 150.896 82.3059C151.674 83.1857 152.966 85.5798 153.786 86.0825C153.806 86.0948 153.826 86.1082 153.846 86.1212L153.727 86.4241C154.28 87.8925 155.033 89.2771 155.534 90.7667C156.567 93.8386 159.32 104.961 158.289 107.721C158.283 107.736 158.271 107.747 158.262 107.76C157.772 107.175 157.843 104.936 157.788 104.096C157.116 97.5247 154.803 85.9934 149.415 81.7597C149.359 81.7157 149.302 81.6733 149.245 81.6303C149.692 83.031 150.099 84.4053 150.339 85.8605C151.56 93.2728 150.567 103.6 149.325 111.049C149.119 111.229 149.242 111.169 148.95 111.214L148.74 110.968C149.923 105.666 150.461 96.6574 150.239 91.1502C150.134 88.5599 149.946 82.9139 147.965 81.1791C146.905 80.2512 145.439 80.1577 144.096 80.2496C137.783 80.6814 130.803 86.8071 126.852 91.4797C125.764 92.766 124.924 94.2919 123.823 95.5295C123.802 95.5525 123.781 95.575 123.76 95.5978C123.616 95.4679 123.603 95.4331 123.539 95.2585C123.832 94.3288 124.597 93.4528 125.182 92.6902C127.011 90.2972 129.082 88.0994 131.361 86.1312C132.406 85.2282 133.532 84.4201 134.562 83.502C127.538 84.1542 120.535 87.104 114.772 91.0873C113.193 92.1788 111.802 93.5802 110.211 94.6171C108.89 95.4782 107.375 95.6746 105.847 95.3289C105.049 95.1482 104.035 94.7217 103.601 93.9804C103.422 93.6746 103.375 93.3091 103.47 92.9677C104.067 90.771 110.202 86.7989 112.328 85.5944C113.727 84.8018 115.229 84.1879 116.61 83.3696L116.705 83.3124L117.007 83.1048Z" fill="#8C5E49"/>
<path d="M123.758 95.6007C123.779 95.5779 123.8 95.5554 123.82 95.5323C124.921 94.2948 125.762 92.7689 126.85 91.4826C130.801 86.81 137.78 80.6843 144.094 80.2524C145.436 80.1606 146.902 80.254 147.962 81.1819C149.944 82.9168 150.132 88.5628 150.236 91.153C150.459 96.6603 149.921 105.669 148.737 110.971C143.946 105.147 134.609 99.3023 127.524 96.7212C126.312 96.2795 125.037 95.7862 123.758 95.6007Z" fill="#BA866D"/>
<path d="M112.121 81.4668C113.597 82.3822 115.001 82.9571 116.7 83.3114L116.605 83.3686C115.225 84.1869 113.723 84.8008 112.324 85.5934C110.197 86.7979 104.063 90.77 103.466 92.9667C103.37 93.3081 103.418 93.6736 103.597 93.9794C104.031 94.7207 105.044 95.1472 105.842 95.328C107.371 95.6736 108.886 95.4772 110.207 94.6161C111.797 93.5793 113.189 92.1778 114.768 91.0863C120.531 87.103 127.533 84.1532 134.558 83.501C133.528 84.4191 132.402 85.2272 131.357 86.1303C129.077 88.0984 127.006 90.2962 125.178 92.6892C124.593 93.4519 123.828 94.3278 123.535 95.2575C123.599 95.4321 123.612 95.467 123.756 95.5968C125.035 95.7823 126.31 96.2757 127.522 96.7173C134.607 99.2984 143.945 105.143 148.736 110.967L148.946 111.213C149.238 111.168 149.115 111.228 149.321 111.048C150.108 110.547 150.832 109.562 151.529 108.901C153.173 107.342 154.953 105.747 156.829 104.472C157.155 104.25 157.387 104.016 157.784 104.095C157.839 104.935 157.768 107.174 158.257 107.759C158.266 107.746 158.279 107.735 158.284 107.72C159.316 104.96 156.563 93.8377 155.529 90.7657C155.028 89.2761 154.276 87.8915 153.723 86.4231C166.4 91.1271 177.887 100.161 183.619 112.636C188.68 123.794 189.134 136.499 184.88 147.99C182.082 155.557 177.455 162.315 171.412 167.661L171.405 179.276C171.412 180.937 171.233 182.881 171.541 184.496C169.345 184.724 166.314 184.529 164.03 184.529L148.158 184.529L148.169 178.371C143.594 179.583 139.678 180.331 134.963 180.841C134.946 182.067 134.97 183.298 134.975 184.526L111.988 184.543L112 180.713C110.466 180.409 108.894 180.266 107.351 179.996C105.386 179.651 103.449 179.18 101.501 178.752C92.5428 176.524 84.2156 172.268 77.1615 166.313C67.673 158.365 62.1781 148.454 61.0781 136.098C64.2046 136.3 67.3866 136.089 70.197 134.561C71.0021 134.123 71.7126 133.555 72.4855 133.066C72.2305 134.47 72.1665 135.901 72.295 137.322C72.6895 142.013 74.9953 146.078 78.5946 149.074C82.0116 151.919 86.7532 153.472 91.1954 153.047C92.538 152.918 93.7845 152.534 95.0884 152.227C99.6015 151.163 102.315 150.308 105.372 146.539C108.186 143.062 109.49 138.603 108.992 134.158C108.549 129.782 106.346 125.774 102.889 123.054C99.7865 120.588 97.0415 120.104 93.244 119.578C91.3278 119.313 89.5007 119.107 87.5656 119.335C82.7317 119.907 78.6033 122.466 75.6163 126.243C74.9557 124.919 74.5879 123.62 73.6732 122.411C71.2762 119.242 67.444 118.345 63.7094 117.816C64.6592 115.619 65.5294 113.439 66.6765 111.331C70.6144 104.096 76.7878 97.5853 83.7298 93.1654C89.4558 89.4679 95.3639 86.4939 101.792 84.2291C105.183 83.0492 108.605 82.1743 112.121 81.4668ZM118.838 141.342C117.676 142.501 116.789 144.249 115.827 145.593C110.579 152.92 106.435 158.437 96.527 158.384C92.2434 158.361 88.1209 156.995 84.1753 155.442C83.5267 155.186 82.2035 154.307 81.5615 154.527L81.4542 154.778C81.8026 155.557 84.0123 156.189 84.8233 156.499C91.0637 158.879 98.4967 160.327 104.833 157.507C111.296 154.631 115.368 147.436 119.207 141.815C119.512 142.059 119.829 142.298 120.156 142.513C120.798 142.935 122.225 143.749 122.985 143.531C123.163 143.481 123.116 143.477 123.212 143.298C122.151 142.404 120.619 142.156 119.545 141.151C118.3 139.985 118.867 138.129 117.993 136.943L117.813 136.997C117.794 137.037 117.771 137.077 117.755 137.119C117.214 138.519 118.223 140.116 118.838 141.342ZM86.3271 111.204C84.8053 111.632 83.9087 113.202 84.3134 114.73C84.7181 116.258 86.2744 117.179 87.8085 116.797C88.8219 116.545 89.6208 115.767 89.899 114.76C90.1773 113.754 89.8915 112.676 89.1516 111.939C88.4117 111.203 87.3322 110.922 86.3271 111.204ZM107.616 111.261C106.068 111.451 104.967 112.861 105.159 114.409C105.35 115.957 106.761 117.056 108.309 116.864C109.855 116.672 110.953 115.263 110.762 113.716C110.571 112.17 109.162 111.071 107.616 111.261ZM127.426 119.277C124.745 119.729 122.331 120.888 120.72 123.145C119.466 124.917 118.983 127.121 119.38 129.256C119.793 131.528 121.225 133.434 123.114 134.713C125.469 136.307 128.19 136.883 130.999 136.476C133.788 135.819 136.156 134.656 137.697 132.136C138.813 130.294 139.159 128.087 138.658 125.992C138.093 123.778 136.664 121.883 134.692 120.729C132.555 119.46 129.889 118.948 127.426 119.277Z" fill="#E9B49C"/>
<path d="M157.785 104.097C157.388 104.017 157.156 104.252 156.83 104.474C154.955 105.748 153.174 107.344 151.531 108.902C150.833 109.563 150.109 110.549 149.322 111.049C150.564 103.601 151.557 93.2734 150.336 85.8611C150.096 84.4059 149.689 83.0316 149.242 81.6309C149.299 81.6739 149.356 81.7163 149.412 81.7603C154.8 85.994 157.113 97.5253 157.785 104.097Z" fill="#D8997B"/>
<path d="M69.9854 85.7708C69.7831 84.6675 69.755 83.2831 69.9187 82.1738L70.1474 82.2324C70.0937 83.3497 70.2172 84.693 69.9854 85.7708Z" fill="#974D3C"/>
<path d="M153.719 86.4239L153.837 86.1211C166.687 90.8796 178.341 100.204 184.119 112.833C185.188 115.17 185.813 117.5 186.595 119.929C188.656 119.478 190.466 118.708 192.172 117.462C190.335 117.364 188.515 116.079 187.312 114.733C186.274 113.571 185.577 111.923 185.665 110.353C185.741 108.993 186.37 107.812 187.413 106.943C188.66 105.914 190.273 105.437 191.88 105.621C193.709 105.836 195.371 106.791 196.478 108.264C197.445 109.562 197.811 111.029 197.565 112.628C197.345 114.062 196.634 115.43 195.843 116.627C198.08 116.665 199.947 116.529 201.654 114.851C203.404 113.131 204.082 110.557 204.074 108.165C204.067 106.358 203.7 104.604 203.049 102.921C202.846 102.393 202.445 101.798 202.335 101.252C202.299 101.073 202.306 100.861 202.418 100.719C202.674 100.78 202.766 100.867 202.906 101.086C204.858 104.138 205.531 108.551 204.591 112.04C204.015 114.177 202.833 116.251 200.869 117.379C198.841 118.545 196.345 118.642 194.076 118.373C192.125 120.025 189.631 121.392 187.032 121.58C187.481 123.455 187.699 125.415 187.875 127.333C188.887 137.543 186.533 147.803 181.172 156.551C178.678 160.619 175.394 164.714 171.75 167.811L171.749 175.914C171.749 177.242 171.824 178.617 171.735 179.94C171.623 181.423 171.669 182.935 171.666 184.422L171.537 184.497C171.228 182.881 171.408 180.937 171.401 179.277L171.408 167.662C177.451 162.316 182.078 155.558 184.876 147.991C189.13 136.5 188.676 123.795 183.615 112.637C177.883 100.162 166.396 91.1279 153.719 86.4239ZM202.738 115.143C203.886 113.572 204.476 111.683 204.66 109.759C204.752 108.804 204.784 105.912 204.206 105.212C204.002 105.407 204.236 106.956 204.262 107.322C204.464 110.135 203.959 112.194 202.409 114.547C201.021 116.102 199.454 116.984 197.357 117.105C196.721 117.141 196.072 117.141 195.438 117.091L194.517 117.968C197.022 118.108 199.699 117.975 201.686 116.233C202.059 115.905 202.419 115.522 202.738 115.143ZM190.644 106.06C189.133 106.341 187.761 106.943 186.88 108.267C186.192 109.3 186.01 110.523 186.265 111.728C186.669 113.636 188.04 115.216 189.662 116.23C190.28 116.616 191.492 117.269 192.211 117.122C192.483 117.066 192.544 117.043 192.699 116.821C192.209 116.367 191.59 116.082 191.015 115.75C189.081 114.634 187.318 113.265 187.27 110.81C187.251 109.836 187.577 108.881 188.293 108.203C189.104 107.435 190.258 107.114 191.355 107.163C192.697 107.223 194.036 107.807 194.934 108.815C195.715 109.692 196.054 110.704 196.082 111.865C195.719 114.506 194.335 116.291 192.24 117.867C191.121 118.709 189.85 119.43 188.513 119.864C187.954 120.046 187.183 120.051 186.707 120.391C186.744 120.72 186.751 120.801 186.94 121.068C187.595 121.355 189.011 120.771 189.662 120.516C192.558 119.384 195.28 117.24 196.549 114.343C197.19 112.879 197.408 111.367 196.809 109.838C196.231 108.36 195.078 107.18 193.614 106.569C192.678 106.169 191.66 105.994 190.644 106.06ZM190.871 107.521C189.792 107.803 188.7 108.213 188.078 109.208C187.647 109.899 187.585 110.763 187.789 111.539C188.311 113.527 190.381 115.003 192.091 115.934C192.341 116.07 192.598 116.194 192.86 116.304C193.283 116.327 193.456 116.237 193.767 115.949C194.824 114.969 195.619 113.161 195.603 111.713C195.59 110.583 195.072 109.525 194.244 108.767C193.406 108.001 192.134 107.488 190.994 107.513C190.953 107.514 190.912 107.519 190.871 107.521Z" fill="#5D2E26"/>
<path d="M83.6466 92.8887L83.7318 93.1692C76.7898 97.589 70.6165 104.1 66.6786 111.334C65.5314 113.443 64.6612 115.623 63.7114 117.82C61.5696 123.664 60.6731 129.891 61.0801 136.101C62.1801 148.458 67.6751 158.369 77.1635 166.317C84.2176 172.272 92.5448 176.528 101.503 178.756L101.474 178.967C93.5915 177.158 86.0176 173.423 79.5307 168.625C79.4765 171.991 79.4598 175.358 79.4812 178.725C79.4881 180.552 79.6984 182.71 79.3899 184.5L79.2376 184.404C79.1314 183.358 79.1918 182.262 79.1875 181.209L79.1964 180.887L79.1852 177.541L79.1905 177.206L79.1877 173.839L79.1916 173.474L79.1855 170.172L79.1953 169.831L79.1987 168.45C78.4455 167.813 77.6883 167.18 76.9272 166.553L76.6052 166.269C75.495 165.326 74.4493 164.285 73.3863 163.288C71.3643 160.991 69.4183 158.716 67.5607 156.281C63.9687 150.421 61.6491 144.773 60.9452 137.87C59.9827 128.42 62.0012 118.906 66.7182 110.661C68.4398 107.683 70.4344 105.037 72.609 102.381C75.9419 98.758 79.4915 95.555 83.6466 92.8887Z" fill="#331310"/>
<path d="M202.422 114.546C203.971 112.192 204.477 110.134 204.274 107.32C204.248 106.955 204.015 105.405 204.218 105.211C204.796 105.911 204.764 108.803 204.673 109.757C204.488 111.682 203.899 113.571 202.75 115.141L202.422 114.546Z" fill="#F37E60"/>
<path d="M196.083 111.867C196.055 110.706 195.716 109.694 194.935 108.817C194.038 107.809 192.698 107.225 191.356 107.165C190.259 107.116 189.105 107.437 188.295 108.205C187.579 108.883 187.252 109.838 187.271 110.812C187.319 113.267 189.082 114.636 191.016 115.752C191.591 116.084 192.21 116.369 192.701 116.823C192.546 117.045 192.484 117.068 192.212 117.124C191.493 117.271 190.282 116.619 189.664 116.232C188.041 115.218 186.67 113.639 186.266 111.73C186.011 110.525 186.194 109.302 186.881 108.269C187.762 106.946 189.134 106.343 190.646 106.062C191.662 105.996 192.679 106.171 193.615 106.571C195.079 107.182 196.232 108.362 196.81 109.84C197.409 111.369 197.192 112.881 196.55 114.346C195.281 117.242 192.56 119.386 189.663 120.519C189.012 120.773 187.597 121.357 186.941 121.07C186.752 120.803 186.745 120.722 186.708 120.394C187.185 120.053 187.956 120.048 188.514 119.866C189.851 119.433 191.122 118.711 192.241 117.869C194.337 116.293 195.721 114.508 196.083 111.867Z" fill="#E99E87"/>
<path d="M87.811 116.799C86.2769 117.18 84.7206 116.26 84.3159 114.732C83.9111 113.204 84.8078 111.633 86.3296 111.206C87.3347 110.923 88.4142 111.204 89.1541 111.941C89.894 112.677 90.1798 113.756 89.9015 114.762C89.6233 115.768 88.8244 116.547 87.811 116.799Z" fill="#5D4130"/>
<path d="M108.312 116.867C106.764 117.059 105.354 115.96 105.162 114.412C104.971 112.864 106.071 111.454 107.619 111.264C109.166 111.073 110.574 112.173 110.765 113.719C110.956 115.266 109.858 116.674 108.312 116.867Z" fill="#5D4130"/>
<path d="M202.408 114.549L202.737 115.144C202.418 115.524 202.058 115.907 201.685 116.234C199.698 117.976 197.021 118.109 194.516 117.969L195.437 117.092C196.071 117.142 196.72 117.143 197.355 117.106C199.453 116.985 201.02 116.103 202.408 114.549Z" fill="#E99E87"/>
<path d="M61.0799 136.1C60.6729 129.889 61.5694 123.662 63.7112 117.818C67.4458 118.347 71.278 119.244 73.675 122.413C74.5897 123.622 74.9575 124.921 75.6181 126.245C74.1478 128.326 73.0089 130.559 72.4873 133.069C71.7144 133.557 71.0038 134.125 70.1988 134.563C67.3884 136.091 64.2063 136.302 61.0799 136.1Z" fill="#F37E60"/>
<path d="M75.62 126.242C78.607 122.466 82.7354 119.907 87.5693 119.335C89.5044 119.106 91.3315 119.312 93.2477 119.578C97.0453 120.104 99.7902 120.587 102.893 123.054C106.35 125.773 108.553 129.781 108.996 134.157C109.493 138.603 108.19 143.062 105.376 146.539C102.319 150.307 99.6052 151.162 95.0922 152.226C93.7883 152.534 92.5418 152.917 91.1991 153.046C86.757 153.472 82.0153 151.918 78.5984 149.074C74.9991 146.077 72.6932 142.013 72.2988 137.322C72.1702 135.901 72.2343 134.469 72.4893 133.066C73.0109 130.556 74.1498 128.324 75.62 126.242ZM88.4077 119.543C79.2519 120.031 72.217 127.835 72.6784 136.992C73.1396 146.15 80.9234 153.207 90.0819 152.773C99.2782 152.336 106.371 144.513 105.908 135.318C105.445 126.123 97.6015 119.053 88.4077 119.543ZM94.8919 120.156C99.6022 122.252 103.006 124.786 104.908 129.767C106.603 134.204 106.554 139.14 104.566 143.471C102.788 147.343 100.059 149.734 96.353 151.679C97.2679 151.471 98.1395 151.245 99.0198 150.92C103.008 149.234 105.966 146.19 107.605 142.185C109.293 138.06 109.158 133.473 107.43 129.384C105.846 125.638 102.641 122.48 98.8541 120.981C97.5997 120.484 96.2443 120.161 94.8919 120.156Z" fill="#331310"/>
<path d="M131.005 136.477C128.196 136.885 125.475 136.309 123.12 134.715C121.23 133.436 119.799 131.529 119.386 129.257C118.988 127.123 119.472 124.919 120.726 123.147C122.336 120.89 124.751 119.73 127.431 119.279C129.895 118.95 132.56 119.462 134.697 120.731C136.67 121.884 138.098 123.78 138.663 125.994C139.164 128.088 138.819 130.296 137.702 132.138C136.161 134.658 133.794 135.82 131.005 136.477Z" fill="#F37E60"/>
<path d="M90.0812 152.775C80.9227 153.21 73.1389 146.152 72.6777 136.995C72.2163 127.838 79.2512 120.034 88.407 119.545C97.6008 119.056 105.444 126.126 105.908 135.321C106.371 144.516 99.2775 152.339 90.0812 152.775ZM82.1625 133.44C81.1013 133.763 80.4904 134.872 80.7855 135.941C81.0808 137.01 82.1742 137.649 83.2504 137.381C83.9712 137.201 84.5377 136.645 84.7307 135.928C84.9235 135.21 84.7122 134.445 84.1785 133.928C83.6451 133.411 82.8733 133.225 82.1625 133.44ZM93.7242 133.491C92.9376 133.524 92.2289 133.976 91.8691 134.677C91.5093 135.377 91.5539 136.217 91.986 136.875C92.418 137.533 93.1707 137.908 93.9562 137.857C95.1505 137.778 96.0595 136.754 95.9961 135.559C95.9325 134.364 94.9199 133.443 93.7242 133.491Z" fill="#F37E60"/>
<path d="M96.3518 151.681C100.058 149.737 102.786 147.346 104.564 143.473C106.552 139.143 106.602 134.206 104.907 129.769C103.004 124.788 99.601 122.255 94.8906 120.158C96.2431 120.164 97.5985 120.487 98.8529 120.983C102.64 122.483 105.845 125.64 107.428 129.386C109.157 133.475 109.292 138.062 107.604 142.188C105.964 146.193 103.007 149.237 99.0186 150.923C98.1383 151.248 97.2667 151.474 96.3518 151.681Z" fill="#F37E60"/>
<path d="M83.25 137.382C82.1738 137.65 81.0804 137.011 80.7851 135.942C80.49 134.873 81.101 133.764 82.1622 133.442C82.8729 133.226 83.6447 133.413 84.1782 133.929C84.7119 134.446 84.9231 135.212 84.7303 135.929C84.5373 136.646 83.9708 137.202 83.25 137.382Z" fill="#5D4130"/>
<path d="M93.9537 137.857C93.1682 137.909 92.4155 137.534 91.9835 136.876C91.5514 136.217 91.5068 135.378 91.8666 134.677C92.2264 133.977 92.9351 133.524 93.7217 133.492C94.9174 133.443 95.93 134.365 95.9936 135.56C96.057 136.755 95.148 137.779 93.9537 137.857Z" fill="#5D4130"/>
<path d="M118.838 141.344C118.224 140.119 117.215 138.521 117.755 137.122C117.772 137.08 117.795 137.04 117.814 136.999L117.993 136.945C118.867 138.131 118.301 139.987 119.546 141.153C120.62 142.159 122.152 142.406 123.212 143.301C123.117 143.48 123.164 143.483 122.986 143.534C122.225 143.752 120.799 142.937 120.157 142.515C119.83 142.3 119.513 142.062 119.208 141.817L118.957 141.705L118.838 141.344Z" fill="#5D2E26"/>
<path d="M119.214 141.818C115.375 147.44 111.302 154.635 104.84 157.511C98.5034 160.331 91.0704 158.882 84.8301 156.502C84.0191 156.193 81.8094 155.561 81.4609 154.781L81.5683 154.531C82.2102 154.311 83.5335 155.19 84.182 155.445C88.1276 156.999 92.2501 158.365 96.5337 158.388C106.442 158.441 110.586 152.923 115.834 145.597C116.796 144.253 117.683 142.505 118.844 141.346L118.963 141.706L119.214 141.818Z" fill="#5D2E26"/>
<path d="M79.5315 168.623C86.0184 173.421 93.5922 177.156 101.475 178.965C101.543 179.045 101.636 179.109 101.681 179.204C101.872 179.609 101.738 183.709 101.743 184.547L86.4771 184.533C84.2649 184.534 81.5463 184.764 79.3906 184.498C79.6992 182.708 79.4888 180.55 79.482 178.723C79.4606 175.357 79.4772 171.989 79.5315 168.623Z" fill="#E9B49C"/>
<path d="M107.353 180C105.388 179.655 103.451 179.184 101.503 178.756L101.473 178.967C101.542 179.047 101.635 179.111 101.679 179.207C101.871 179.611 101.736 183.712 101.741 184.549L86.4757 184.536C84.2635 184.536 81.5449 184.766 79.3892 184.5L79.237 184.404C79.0048 184.546 78.8278 184.533 78.5666 184.539C72.6132 184.668 55.1981 184.523 49.2419 184.537L45 185.938L177.499 185.935L209.632 185.928C214.927 185.929 220.267 186.083 225.558 185.945C225.886 185.937 226.254 185.945 226.544 185.774C226.676 185.696 226.748 185.539 226.772 185.392C226.816 185.118 226.717 184.936 226.557 184.731C226.255 184.563 225.981 184.547 225.646 184.527L225.621 184.526C223.954 184.428 222.222 184.54 220.55 184.558C216.43 184.602 212.268 184.724 208.153 184.543C205.437 184.46 202.693 184.546 199.976 184.575C194.095 184.638 188.166 184.752 182.288 184.564L171.816 184.552C171.811 183.019 171.843 181.474 171.741 179.944C171.629 181.426 171.675 182.938 171.671 184.425L171.542 184.5C169.347 184.728 166.315 184.533 164.031 184.533L148.16 184.533L148.17 178.375C143.595 179.587 139.679 180.335 134.964 180.845C134.948 182.072 134.972 183.302 134.976 184.53L111.989 184.547L112.002 180.717C110.467 180.413 108.895 180.27 107.353 180Z" fill="#6683C2"/>
<path d="M120.05 64.7812C120.9 64.7813 121.763 65.0445 122.625 65.5889C122.729 65.6534 122.826 65.7198 122.918 65.7871C122.888 66.056 122.871 66.3338 122.871 66.6182C122.871 68.0137 123.255 69.2514 123.846 70.0332C123.766 70.1364 123.676 70.2364 123.573 70.3301C123.243 70.6176 122.87 70.8252 122.441 70.9414C122.019 71.0699 121.548 71.1309 121.016 71.1309C120.954 71.1308 120.857 71.1186 120.723 71.1064C120.582 71.0942 120.404 71.0757 120.19 71.0391C120.203 71.1614 120.227 71.2965 120.258 71.4434C120.282 71.5961 120.313 71.7611 120.355 71.9443C120.606 71.9566 120.832 71.9626 121.034 71.9688C121.236 71.9749 121.432 71.9756 121.597 71.9756C121.633 71.9756 121.683 71.969 121.75 71.9629C121.817 71.9629 121.891 71.9505 121.964 71.9443C122.043 71.9321 122.111 71.9138 122.179 71.9199C122.246 71.9018 122.3 71.9015 122.337 71.8955C122.416 71.8955 122.49 71.9204 122.563 71.957C122.637 71.9876 122.705 72.0309 122.76 72.0859C122.821 72.1409 122.87 72.2021 122.906 72.2754C122.955 72.3426 122.986 72.4218 122.998 72.4951C123.022 72.6112 123.022 72.7091 123.004 72.7764C122.979 72.8497 122.931 72.9113 122.852 72.9541C122.772 72.9969 122.656 73.0278 122.509 73.04C122.356 73.0584 122.172 73.0644 121.946 73.0645C121.824 73.0645 121.646 73.0579 121.42 73.0518C121.194 73.0518 120.918 73.0454 120.575 73.0332C120.624 73.2718 120.667 73.5109 120.716 73.7617C120.771 74.0125 120.827 74.2753 120.882 74.5566C120.919 74.7279 120.894 74.8816 120.802 75.0039C120.71 75.1138 120.581 75.1746 120.41 75.1807C120.239 75.1806 120.08 75.12 119.945 75.0039C119.811 74.8816 119.719 74.7343 119.683 74.5508C119.573 74.0329 119.462 73.5131 119.352 72.9912C119.07 72.9851 118.826 72.9727 118.63 72.9482C118.434 72.9177 118.269 72.8741 118.141 72.8252C118.018 72.7702 117.921 72.7091 117.854 72.6357C117.786 72.5563 117.743 72.4649 117.725 72.3672C117.688 72.1959 117.706 72.0608 117.792 71.9629C117.884 71.8712 118.043 71.8161 118.27 71.8223C118.3 71.8222 118.343 71.8162 118.41 71.8223C118.471 71.8284 118.539 71.8227 118.612 71.835C118.692 71.835 118.777 71.8464 118.862 71.8525C118.954 71.8586 119.034 71.8591 119.119 71.8652C119.089 71.7185 119.064 71.5718 119.04 71.4189C119.009 71.2538 118.979 71.0946 118.948 70.9111C118.802 70.903 118.653 70.8967 118.502 70.8926C118.312 70.8865 118.153 70.8677 118.019 70.8555C117.884 70.8249 117.774 70.8006 117.694 70.7578C117.603 70.7211 117.535 70.672 117.492 70.5986C117.443 70.5375 117.413 70.4521 117.389 70.3545C117.346 70.1771 117.37 70.0418 117.443 69.9316C117.535 69.8156 117.689 69.761 117.921 69.7549C117.951 69.7549 117.988 69.7607 118.03 69.7607C118.073 69.7669 118.122 69.7673 118.165 69.7734C118.22 69.7796 118.263 69.7793 118.294 69.7793C118.336 69.7853 118.361 69.7852 118.379 69.7852C118.509 69.8015 118.643 69.8222 118.777 69.8467C118.673 69.2533 118.581 68.7454 118.495 68.2988C118.416 67.8584 118.343 67.4974 118.275 67.2344C118.202 66.9367 118.126 66.6385 118.049 66.3408C117.939 65.9128 117.896 65.5949 117.896 65.4053C117.896 65.2156 117.945 65.0807 118.037 65.0195C118.135 64.9524 118.269 64.9163 118.446 64.9102C118.593 64.8979 118.802 64.8726 119.059 64.8359C119.309 64.7993 119.652 64.7812 120.05 64.7812ZM120.184 66.0166C119.982 66.0105 119.804 66.0234 119.646 66.0234C119.493 66.0357 119.365 66.0532 119.261 66.0654C119.297 66.2917 119.346 66.5184 119.395 66.7324C119.419 66.8303 119.437 66.9163 119.462 67.002C119.486 67.0936 119.511 67.1791 119.529 67.2646C119.639 67.7172 119.732 68.1761 119.799 68.6104C119.872 69.0569 119.945 69.5039 120.019 69.9443C120.357 69.9729 120.694 70.0035 121.028 70.0361C121.377 70.0239 121.676 69.9685 121.939 69.8584C122.215 69.7422 122.43 69.59 122.595 69.4004C122.76 69.2046 122.881 68.9716 122.937 68.6963C122.998 68.4211 122.985 68.1032 122.912 67.7607C122.857 67.5038 122.765 67.2829 122.631 67.0811C122.49 66.8671 122.27 66.6714 121.952 66.4941C121.359 66.1699 120.771 66.0166 120.184 66.0166Z" fill="#BF9432"/>
<path d="M67.6133 161.327C69.9593 160.963 71.9443 161.191 74.157 162.052C77.2545 163.554 79.61 166.048 80.7268 169.337C81.6677 172.108 81.5185 175.503 80.1911 178.127C78.7377 180.951 76.2152 183.076 73.1856 184.028C72.9422 184.104 72.6961 184.171 72.4477 184.228C69.5945 184.668 67.3201 184.66 64.5696 183.763C63.9838 183.315 63.1554 183.033 62.5235 182.612C60.8085 181.469 59.7309 179.539 58.7798 177.77C58.0706 175.227 57.9057 173.219 58.1167 170.603C58.4958 169.287 58.8534 168.026 59.5605 166.838C61.4208 163.713 64.1708 162.184 67.6133 161.327ZM69.4379 164.647C66.9311 164.8 64.7854 165.546 63.0919 167.475C61.5806 169.196 60.8669 171.384 61.0171 173.666C61.1861 175.991 62.2843 178.149 64.0635 179.655C65.3767 180.774 67.0202 181.448 68.7438 181.496L68.8598 181.429C68.7076 181.379 68.5729 181.335 68.4143 181.31C65.9779 180.835 64.1382 179.849 62.7345 177.744C61.4496 175.849 60.9938 173.511 61.473 171.271C61.9229 169.157 63.1964 167.31 65.0122 166.137C66.1012 165.458 67.3381 165.052 68.6178 164.953C69.1148 164.911 69.6916 164.941 70.1553 164.749C69.8953 164.624 69.7191 164.64 69.4379 164.647ZM69.1763 168.091L69.0597 169.216C68.1716 169.553 67.0954 169.962 66.6563 170.878C66.4254 171.36 66.4555 171.918 66.6456 172.408C67.0102 173.348 69.0512 174.729 68.7119 175.665C68.6354 175.876 68.5567 176.008 68.3519 176.115C68.0283 176.283 67.4855 176.283 67.1578 176.139C66.6011 175.896 66.1572 175.456 65.5324 175.395C65.2594 175.516 65.1776 175.535 65.0873 175.848C64.9903 176.185 65.0224 176.541 65.2544 176.808C65.4891 177.078 65.912 177.243 66.2297 177.388C66.3912 177.862 66.2935 178.446 66.2655 178.941C66.7112 178.884 67.2155 178.874 67.6076 178.641L67.6885 178.461C67.6856 178.304 67.6229 177.943 67.7412 177.84C68.5415 177.142 70.3244 177.75 70.7405 175.544C70.8282 175.078 70.6983 174.644 70.428 174.263C69.7009 173.237 68.1721 172.871 68.3612 171.378C68.3822 171.214 68.4528 171.102 68.5444 170.97C69.5571 170.611 71.0745 172.367 71.7219 171.208C71.8696 170.943 71.8482 170.665 71.7686 170.386C71.3507 169.884 70.4627 169.814 70.3893 169.117L70.6739 168.488C70.5552 168.294 70.5174 168.244 70.2843 168.177C69.9452 168.08 69.5284 168.102 69.1763 168.091Z" fill="#F2C45B"/>
<path d="M74.2154 161.889C75.0921 162.31 75.9001 162.795 76.7291 163.3C77.8115 164.252 78.7964 165.189 79.5985 166.396L79.8601 166.766C80.399 167.758 80.8673 168.78 81.2039 169.86L81.3591 170.38C81.512 171.416 81.6524 172.449 81.641 173.498L81.5548 174.267C81.4714 175.237 81.2882 176.267 80.9188 177.172L80.7744 177.531C80.2539 178.724 79.5917 179.891 78.6936 180.844L78.4061 181.128C76.4534 183.132 74.9941 183.502 72.5232 184.52L72.4453 184.227C72.6937 184.17 72.9398 184.104 73.1832 184.028C76.2128 183.076 78.7353 180.951 80.1887 178.127C81.5161 175.503 81.6653 172.107 80.7245 169.337C79.6076 166.048 77.2521 163.554 74.1546 162.051L74.2154 161.889Z" fill="#331310"/>
<path d="M68.4169 181.312C68.5755 181.338 68.7102 181.381 68.8624 181.431L68.7464 181.499C67.0227 181.45 65.3793 180.777 64.0661 179.657C62.2868 178.152 61.1887 175.993 61.0196 173.669C60.8695 171.387 61.5832 169.198 63.0944 167.478C64.788 165.549 66.9337 164.802 69.4405 164.649C69.7217 164.642 69.8978 164.627 70.1578 164.752C69.6941 164.944 69.1174 164.914 68.6204 164.956C67.3406 165.055 66.1037 165.461 65.0147 166.14C63.199 167.312 61.9254 169.16 61.4756 171.274C60.9964 173.513 61.4521 175.851 62.7371 177.747C64.1408 179.852 65.9804 180.838 68.4169 181.312Z" fill="#331310"/>
<path d="M69.055 169.217L69.1717 168.092C69.5237 168.102 69.9405 168.08 70.2796 168.177C70.5127 168.244 70.5505 168.295 70.6693 168.488L70.3846 169.118C70.458 169.815 71.346 169.884 71.764 170.387C71.8435 170.666 71.8649 170.944 71.7173 171.209C71.0699 172.367 69.5524 170.611 68.5398 170.97C68.4482 171.103 68.3775 171.215 68.3566 171.379C68.1674 172.872 69.6962 173.238 70.4234 174.264C70.6936 174.645 70.8235 175.079 70.7358 175.544C70.3197 177.75 68.5368 177.143 67.7365 177.841C67.6182 177.944 67.6809 178.304 67.6839 178.461L67.603 178.642C67.2108 178.875 66.7065 178.885 66.2608 178.942C66.2888 178.446 66.3866 177.863 66.225 177.389C65.9074 177.244 65.4844 177.079 65.2497 176.809C65.0177 176.542 64.9856 176.186 65.0827 175.849C65.1729 175.535 65.2547 175.516 65.5277 175.396C66.1526 175.457 66.5965 175.897 67.1532 176.14C67.4808 176.283 68.0236 176.284 68.3472 176.115C68.5521 176.009 68.6307 175.876 68.7073 175.665C69.0466 174.73 67.0055 173.349 66.6409 172.409C66.4508 171.918 66.4208 171.361 66.6516 170.879C67.0907 169.963 68.167 169.553 69.055 169.217Z" fill="#F2C45B"/>
<path d="M69.1263 174.212C69.0648 174.212 68.9681 174.205 68.8364 174.192C68.7046 174.179 68.5332 174.158 68.3224 174.127C68.3136 174.245 68.307 174.379 68.3026 174.531C68.2982 174.679 68.2938 174.844 68.2894 175.027C68.5398 175.04 68.7639 175.049 68.9616 175.053C69.1636 175.057 69.3481 175.06 69.5151 175.06C69.5502 175.06 69.6008 175.057 69.6667 175.053C69.7369 175.044 69.8094 175.036 69.8841 175.027C69.9632 175.014 70.0357 175.005 70.1016 175.001C70.1719 174.992 70.2246 174.988 70.2597 174.988C70.3388 174.988 70.4091 175.005 70.4706 175.04C70.5365 175.07 70.5914 175.114 70.6353 175.17C70.6837 175.227 70.721 175.29 70.7474 175.359C70.7737 175.429 70.7869 175.503 70.7869 175.581C70.7869 175.699 70.7693 175.794 70.7342 175.868C70.699 175.938 70.6375 175.994 70.5497 176.038C70.4618 176.081 70.3432 176.111 70.1938 176.129C70.0445 176.142 69.8578 176.148 69.6337 176.148C69.5107 176.148 69.3372 176.146 69.1131 176.142C68.8935 176.138 68.6145 176.131 68.2762 176.122C68.2718 176.353 68.2696 176.594 68.2696 176.846C68.2696 177.094 68.2696 177.359 68.2696 177.642C68.2696 177.815 68.2125 177.963 68.0983 178.085C67.9841 178.202 67.8413 178.261 67.67 178.261C67.4943 178.261 67.3493 178.202 67.2351 178.085C67.1208 177.963 67.0637 177.815 67.0637 177.642V176.077C66.7782 176.072 66.5387 176.057 66.3454 176.031C66.1522 176.001 65.9962 175.959 65.8776 175.907C65.7634 175.855 65.6799 175.792 65.6272 175.718C65.5788 175.64 65.5547 175.551 65.5547 175.451C65.5547 175.281 65.6096 175.149 65.7194 175.053C65.8337 174.953 66.005 174.903 66.2334 174.903C66.2642 174.903 66.3103 174.905 66.3718 174.91C66.4333 174.91 66.5014 174.912 66.5761 174.916C66.6552 174.92 66.7386 174.927 66.8265 174.936C66.9144 174.94 66.9978 174.944 67.0769 174.949C67.0813 174.805 67.0879 174.655 67.0967 174.499C67.1055 174.342 67.1142 174.175 67.123 173.997L66.6815 173.977C66.4926 173.969 66.3345 173.955 66.2071 173.938C66.0797 173.916 65.9764 173.886 65.8974 173.847C65.8227 173.808 65.7678 173.756 65.7326 173.69C65.7019 173.621 65.6865 173.536 65.6865 173.436C65.6865 173.267 65.7414 173.125 65.8512 173.012C65.9654 172.899 66.1368 172.843 66.3652 172.843C66.396 172.843 66.4333 172.845 66.4772 172.849C66.5212 172.849 66.5651 172.851 66.609 172.856C66.6574 172.86 66.6991 172.864 66.7342 172.869C66.7738 172.869 66.8023 172.869 66.8199 172.869L67.1955 172.927C67.2351 172.341 67.2658 171.826 67.2878 171.382C67.3141 170.939 67.3273 170.587 67.3273 170.326V169.426C67.3273 168.996 67.3537 168.683 67.4064 168.487C67.4547 168.296 67.5316 168.168 67.637 168.103C67.7469 168.037 67.8852 168 68.0522 167.992C68.2015 167.983 68.4014 167.959 68.6518 167.92C68.9066 167.881 69.2251 167.861 69.6073 167.861C70.4069 167.861 71.1603 168.133 71.8676 168.676C72.2542 168.976 72.5222 169.307 72.6715 169.667C72.8209 170.028 72.8956 170.419 72.8956 170.841C72.8956 171.384 72.8143 171.869 72.6518 172.295C72.4892 172.721 72.2015 173.095 71.7885 173.416C71.4151 173.703 71.0066 173.908 70.5628 174.029C70.1235 174.151 69.6447 174.212 69.1263 174.212ZM68.553 169.152C68.5398 169.383 68.5332 169.607 68.5332 169.824C68.5332 169.911 68.5332 170 68.5332 170.091C68.5376 170.178 68.5398 170.265 68.5398 170.352C68.5398 170.808 68.5222 171.258 68.4871 171.702C68.4563 172.141 68.4278 172.584 68.4014 173.032L69.3767 173.117C69.715 173.108 70.0247 173.049 70.3059 172.941C70.5914 172.832 70.8352 172.68 71.0373 172.484C71.2438 172.289 71.4041 172.054 71.5184 171.78C71.6326 171.502 71.6897 171.189 71.6897 170.841C71.6897 170.593 71.6458 170.367 71.5579 170.163C71.47 169.954 71.2943 169.761 71.0307 169.583C70.5387 169.261 70.0137 169.1 69.4558 169.1C69.2581 169.1 69.0846 169.105 68.9352 169.113C68.7858 169.122 68.6584 169.135 68.553 169.152Z" fill="#BF9432"/>
</g>
<defs>
<clipPath id="clip0_3001_439">
<rect width="251" height="184" rx="92" fill="white"/>
</clipPath>
</defs>
</svg>
