<svg width="166" height="108" viewBox="0 0 166 108" fill="none" xmlns="http://www.w3.org/2000/svg">
<path d="M67.4329 58.3373C67.4329 85.5735 89.4679 107.651 116.649 107.651C143.828 107.651 165.863 85.5735 165.863 58.3373C165.863 31.1017 143.828 9.02295 116.649 9.02295C89.4673 9.02352 67.4329 31.1022 67.4329 58.3373Z" fill="#7FCBB4"/>
<path d="M0.294602 32.6822C0.294602 50.4712 14.8135 64.8927 32.7274 64.8927C50.6368 64.8927 65.1562 50.4718 65.1562 32.6822C65.1562 14.8927 50.6374 0.471191 32.7274 0.471191C14.8135 0.471191 0.294602 14.8927 0.294602 32.6822Z" fill="#68CCEA"/>
<path d="M50.8846 102.83C41.8074 102.83 34.4489 95.3448 34.4489 86.1112C34.4489 76.8775 41.8074 69.3921 50.8846 69.3921C59.9618 69.3921 67.3203 76.8775 67.3203 86.1112C67.3203 95.3448 59.9618 102.83 50.8846 102.83Z" fill="#F2C45B"/>
</svg>
