<svg width="1108" height="303" viewBox="0 0 1108 303" fill="none" xmlns="http://www.w3.org/2000/svg">
<g clip-path="url(#clip0_2002_1082)">
<path d="M1069.75 258.046C1069.75 293.368 1041.12 322 1005.8 322C970.479 322 941.844 293.368 941.844 258.046C941.844 222.724 970.479 194.09 1005.8 194.09C1041.12 194.091 1069.75 222.725 1069.75 258.046Z" fill="#7FCBB4"/>
<path d="M1157 224.774C1157 247.845 1138.13 266.548 1114.85 266.548C1091.58 266.548 1072.71 247.845 1072.71 224.774C1072.71 201.703 1091.58 183 1114.85 183C1138.13 183 1157 201.703 1157 224.774Z" fill="#68CCEA"/>
<path d="M1091.19 316.824C1103.03 316.824 1112.63 307.059 1112.63 295.013C1112.63 282.967 1103.03 273.202 1091.19 273.202C1079.35 273.202 1069.75 282.967 1069.75 295.013C1069.75 307.059 1079.35 316.824 1091.19 316.824Z" fill="#F2C45B"/>
</g>
<path d="M864.193 278.922H776.753C776.583 278.698 776.409 278.473 776.239 278.248C776.123 278.1 776.007 277.951 775.891 277.802C775.84 278.176 775.778 278.549 775.709 278.922H724.27C710.227 267.442 696.162 255.983 682.031 244.608C672.744 237.133 663.428 229.698 654.071 222.314C669.456 240.483 684.058 259.354 697.615 278.919H631.596C626.543 274.837 621.457 270.788 616.342 266.779C615.128 265.829 613.913 264.879 612.699 263.933C612.322 263.639 611.945 263.349 611.568 263.056C611.589 263.07 611.615 263.088 611.629 263.099C611.608 263.085 611.586 263.067 611.564 263.052C611.332 262.874 611.104 262.693 610.872 262.516C608.033 260.308 610.698 262.421 611.484 262.998C608.787 261.163 606.268 258.988 603.669 257.02C583.376 241.632 562.637 226.831 541.503 212.621C545.947 216.862 550.366 221.128 554.749 225.431C572.41 242.763 589.557 260.612 606.199 278.922H537.36C529.308 272.365 521.228 265.847 513.079 259.412C507.439 254.954 501.838 250.408 496.071 246.116C496.201 246.214 499.148 248.487 497.202 246.989C496.542 246.486 495.886 245.974 495.226 245.471C493.91 244.459 492.59 243.448 491.271 242.44C488.411 240.254 485.551 238.076 482.68 235.904C471.424 227.385 460.081 218.975 448.659 210.681C443.279 206.773 437.881 202.891 432.466 199.027C439.879 206.889 447.198 214.846 454.397 222.912C470.634 241.102 486.294 259.793 501.407 278.926H430.653C422.45 272.426 414.232 265.945 405.974 259.51C403.407 257.509 400.834 255.512 398.26 253.518C398.028 253.337 397.792 253.159 397.564 252.978C397.549 252.967 397.538 252.96 397.524 252.949C395.802 251.626 394.084 250.299 392.362 248.98C386.768 244.684 381.157 240.41 375.527 236.162C364.275 227.664 352.954 219.254 341.546 210.968C330.664 203.058 319.698 195.253 308.645 187.568C324.066 202.336 339.183 217.427 353.936 232.874C368.306 247.917 382.339 263.28 396.045 278.93H317.117C306.865 271.39 296.574 263.897 286.217 256.502C287.254 257.672 288.291 258.843 289.324 260.018C294.776 266.246 300.126 272.553 305.401 278.926H218.433C213.542 275.337 208.641 271.767 203.715 268.229C203.088 267.779 202.461 267.333 201.834 266.887C202.78 267.91 203.74 268.921 204.686 269.95C207.413 272.919 210.11 275.917 212.788 278.926H7.11845C6.45507 277.19 5.80981 275.446 5.19356 273.684C2.33703 265.499 6.55295 255.74 13.0128 250.749C15.8113 248.584 18.7367 247.298 21.7346 246.721C16.6487 242.585 11.5265 238.492 6.35357 234.465C-0.892877 228.821 -1.81364 215.394 2.94241 208.02C7.91233 200.314 18.3089 194.648 27.5854 197.994C40.6065 202.692 53.5153 207.705 66.2935 213.03C72.1335 215.463 76.8714 207.846 72.1008 203.692L71.829 203.453C57.6732 191.117 43.3942 178.919 29.1115 166.728C22.0935 160.735 20.7812 147.914 25.7004 140.283C27.734 137.129 30.3731 134.49 33.5305 132.453C37.6304 129.81 45.6888 128.32 50.3434 130.252C60.3521 134.41 70.2339 138.797 79.9925 143.397C84.2121 145.383 87.5834 139.46 83.7118 136.865C83.5596 136.763 83.4073 136.662 83.2551 136.56C73.7865 130.22 68.773 117.028 75.425 106.704C78.4301 102.046 82.9034 97.9425 88.4642 96.6774C94.5507 95.2926 99.6112 96.3874 105.281 98.8778C127.702 108.723 149.575 119.609 171.006 131.304C173.442 132.634 175.672 129.27 173.497 127.552L173.279 127.381C170.832 125.449 168.378 123.524 165.917 121.607C164.771 120.715 163.629 119.812 162.473 118.932C162.161 118.696 161.882 118.482 161.697 118.341C156.336 114.226 150.945 110.152 145.526 106.113C134.687 98.0368 123.736 90.1197 112.679 82.3476C103.708 76.0401 99.2995 65.6507 103.751 55.0983C108.101 44.7923 118.719 40.1486 129.492 42.465C154.549 47.8482 181.03 59.1619 206.836 72.6869C212.346 75.5761 218.607 70.4213 216.896 64.44C216.863 64.3276 216.83 64.2116 216.798 64.0956C215.359 58.8719 216.007 51.9155 218.998 47.2827C222.003 42.6245 226.473 38.521 232.037 37.2558C238.12 35.8711 243.188 36.9586 248.85 39.4562C267.131 47.5111 285.064 56.2836 302.7 65.6181C302.983 64.3493 303.382 63.0878 303.907 61.8408C307.685 52.887 319.611 44.9735 329.649 49.2076C331.385 49.9398 333.118 50.683 334.854 51.4225L334.862 51.408C334.891 51.4261 334.916 51.4442 334.945 51.4623C385.039 72.7921 433.93 96.71 481.193 123.778C482.538 124.547 483.879 125.319 485.217 126.095C488.233 127.835 491.159 123.717 488.516 121.444L488.277 121.237C469.992 105.508 451.501 90.0255 433.002 74.5466C424.683 67.5829 425.176 53.815 431.295 45.8943C438.121 37.0601 449.652 35.2294 459.443 40.2755C488.788 55.3955 517.201 72.0816 544.896 89.8986C553.803 95.6262 563.442 83.765 555.996 76.2358L555.329 75.5616C547.655 67.804 547.02 55.4535 553.622 46.9093C559.969 38.695 572.591 35.3309 581.77 41.2905C596.292 50.712 610.556 60.5394 624.538 70.7548C631.861 76.1053 640.695 66.3794 634.67 59.6006C634.496 59.4048 634.318 59.2054 634.144 59.0097C626.554 50.4908 625.118 36.4366 634.144 28.1497C643.595 19.475 655.51 20.4393 665.004 28.1497C680.222 40.5111 694.951 53.4706 709.157 66.9775C713.558 71.1608 720.805 67.9599 720.747 61.8879C720.747 61.7828 720.747 61.6777 720.747 61.5689C720.747 56.2184 723.125 49.8238 727.137 46.1408C734.946 38.9741 750.53 36.5055 757.997 46.1408C795.687 94.7598 827.754 147.221 852.513 203.594C859.93 220.487 866.85 237.593 873.103 254.95C876.177 263.483 871.624 273.8 864.178 278.941L864.193 278.922Z" fill="url(#paint0_linear_2002_1082)"/>
<path d="M716.841 72.6716C722.945 75.5245 729.271 80.2045 729.742 87.5343C730.246 95.3716 723.405 97.5068 716.855 97.4198C714.637 97.3908 714.212 93.9216 716.453 93.9506C718.562 93.9796 720.904 94.1029 722.909 93.3162C726.385 91.9532 726.777 87.933 725.562 84.8481C723.808 80.3893 719.545 77.7902 715.405 75.8544C713.375 74.9047 714.796 71.7146 716.837 72.668L716.841 72.6716Z" fill="#446C8F"/>
<path d="M703.14 65.8493C704.58 58.3419 705.105 53.285 709.872 51.6609L710.623 51.1027C711.503 50.4466 712.595 50.1384 713.689 50.2363L717.724 50.5916C723.934 51.7842 727.475 60.5495 725.634 70.1667C723.789 79.784 717.26 86.6135 711.05 85.4209L705.062 83.409L705.841 81.6799C702.009 78.4065 701.701 73.3532 703.14 65.8493Z" fill="#2E282F"/>
<path d="M712.113 58.0301C693.234 59.7846 709.007 80.4618 710.272 86.5374C715.568 111.851 702.757 101.157 709.007 118.09C713.495 130.248 701.709 139.851 700.872 143.802C700.035 147.746 658.688 153.046 645.786 157.436C634.186 161.391 619.592 153.376 615.358 148.279C603.337 133.815 610.689 121.08 614.292 116.919C617.899 112.754 614.799 111.891 613.795 102.683C613.567 100.552 614.111 98.5181 615.14 96.5642C617.533 92.0619 622.55 87.933 626.863 83.8548C628.767 82.0568 630.539 80.266 631.873 78.4608C643.796 62.3729 639.091 44.8023 646.623 25.2416C647.751 22.3271 649.147 19.3691 650.908 16.3567C653.631 11.7203 657.219 8.42147 661.323 6.12683C675.714 -1.94613 696.341 2.36404 707.452 4.58981C712.121 5.87307 713.603 9.70474 713.291 11.6514C751.539 22.6316 725.24 48.9929 712.113 58.0265V58.0301Z" fill="#BE6B59"/>
<path d="M641.393 97.4813C639.972 96.6801 638.478 97.2892 637.003 97.0535C634.077 96.5895 634.958 94.3384 633.396 92.5657C632.297 91.3078 631.275 91.6848 629.85 91.3622C626.595 90.6046 628.498 88.4223 627.86 85.9174C627.65 85.0873 627.302 84.3985 626.856 83.8584C622.546 87.9329 617.525 92.0619 615.133 96.5678C617.569 98.6014 622.274 95.067 622.238 100.077C622.22 102.52 622.909 104.633 625.783 104.485C626.472 104.441 626.961 104.213 627.607 104.014C629.727 103.386 628.846 103.325 629.807 104.641C630.681 105.819 630.88 106.83 632.374 107.407C637.55 109.404 648.208 101.342 641.389 97.4813H641.393Z" fill="#D39489"/>
<path d="M651.887 60.7708C650.082 75.4703 647.012 92.6131 638.935 97.6736C630.866 102.727 634.516 111.286 631.848 117.996C629.18 124.705 612.411 133.293 630.518 142.153C648.625 151.012 670.053 132.492 685.662 134.493C701.902 136.57 698.379 100.353 691.93 93.1242C685.481 85.8959 651.887 60.778 651.887 60.778V60.7708Z" fill="#873D36"/>
<path d="M676.174 157.07C639.62 154.906 653.736 135.457 645.039 133.181C649.248 129.857 647.805 120.228 649.317 117.843C652.837 112.286 660.775 85.1381 659.695 70.5691L690.689 91.413C689.841 91.9967 689.109 92.8196 688.471 93.8744C686.716 96.7563 685.625 101.328 684.744 107.327C684.378 109.832 684.044 112.572 683.715 115.549C683.338 118.902 691.798 121.936 693.455 123.281C695.123 124.626 711.471 159.154 676.171 157.07H676.174Z" fill="#FFB692"/>
<path d="M691.933 95.6072C688.369 96.6911 685.629 101.327 684.748 107.323C678.716 103.702 669.613 88.252 669.613 79.0879L691.933 95.6072Z" fill="#DC765D"/>
<path d="M722.52 48.0325C724.923 33.8259 720.265 20.4858 711.696 15.2549C704.253 32.5934 678.508 25.5572 672.839 37.4038C672.324 38.4769 672.07 39.6586 671.943 40.8404C671.465 45.3608 665.875 53.557 662.127 53.9159C651.872 54.891 660.731 67.0313 660.129 70.5258C663.156 77.6997 669.033 84.4423 675.344 90.5505C678.994 94.3459 683.551 97.1771 688.611 98.6452C702.071 102.56 705.46 99.4065 709.647 92.9756C714.367 85.7219 719.656 75.7422 720.233 71.5009C722.009 58.4689 718.775 61.2783 722.52 48.0361V48.0325Z" fill="#FFB692"/>
<path d="M666.901 55.7753C664.538 44.9836 654.873 45.0017 651.937 53.0276C649.592 59.4403 653.518 70.0797 660.144 72.3309C669.635 75.5572 669.392 67.1398 666.901 55.7753Z" fill="#FFB692"/>
<path d="M686.978 49.7323C687.13 47.8183 688.286 46.3466 689.562 46.4481C690.838 46.5496 691.752 48.1845 691.599 50.0985C691.447 52.0125 690.291 53.4843 689.015 53.3828C687.739 53.2813 686.825 51.6464 686.978 49.7323Z" fill="#3D303E"/>
<path d="M712.667 52.6435C712.819 50.7295 713.976 49.2577 715.252 49.3592C716.528 49.4607 717.441 51.0956 717.289 53.0096C717.137 54.9236 715.98 56.3954 714.704 56.2939C713.428 56.1924 712.515 54.5575 712.667 52.6435Z" fill="#3D303E"/>
<path d="M684.022 36.7331C689.848 34.5798 696.684 34.9894 697.101 36.2255C697.518 37.4617 697.011 39.4373 695.807 39.4265C694.604 39.4156 685.171 39.1038 683.174 38.4259C682.094 38.0598 683.228 37.0267 684.022 36.7331Z" fill="#BE6B59"/>
<path d="M714.429 38.4695C718.231 37.0449 723.926 40.4597 724.115 41.326C724.231 41.8625 723.847 42.5332 723.549 42.4788C722.368 42.2686 716.002 41.9024 713.718 41.5653C712.587 41.3985 713.638 38.7631 714.429 38.4695Z" fill="#BE6B59"/>
<path d="M704.975 69.7644C704.935 69.7644 704.91 69.7644 704.899 69.7644C704.352 69.7426 703.924 69.2822 703.942 68.7349C703.964 68.1875 704.439 67.7416 704.972 67.7779C705.044 67.7779 706.972 67.8032 708.296 66.1901C709.155 65.1388 708.691 64.1456 707.799 62.4744C707.306 61.55 706.795 60.5967 706.668 59.5708C706.603 59.027 706.991 58.5304 707.538 58.4651C708.082 58.3963 708.578 58.7878 708.644 59.3315C708.723 59.9877 709.126 60.738 709.55 61.5319C710.405 63.1269 711.576 65.3128 709.833 67.4444C708.024 69.652 705.457 69.7607 704.975 69.7607V69.7644Z" fill="#DC765D"/>
<path d="M709.195 78.0079C707.69 80.8391 705.562 83.0358 702.949 84.1451C702.561 84.3191 702.159 84.4568 701.756 84.5692C700.393 84.9644 698.914 85.0695 697.341 84.8339C696.677 84.736 696.029 84.591 695.398 84.4061C695.34 84.3988 695.296 84.3843 695.242 84.3662C691.61 83.286 688.423 80.8753 686.542 77.8883C686.513 77.8375 686.473 77.7759 686.444 77.7288C686.187 77.2865 685.94 76.8225 685.73 76.3549C685.592 76.0431 685.48 75.7314 685.367 75.4196C685.128 74.7055 685.704 73.9805 686.455 74.0204C690.345 74.2705 698.356 75.0209 704.808 75.9054C706.095 76.0758 707.321 76.2606 708.437 76.4455C709.155 76.5615 709.546 77.3627 709.198 78.0115L709.195 78.0079Z" fill="white"/>
<path d="M709.194 78.0077C707.69 80.8389 705.562 83.0356 702.948 84.1449C702.561 84.3189 702.158 84.4567 701.756 84.569C700.393 84.9642 698.914 85.0693 697.341 84.8337C697.003 84.7829 696.677 84.7249 696.355 84.6524C696.032 84.5799 695.709 84.5002 695.398 84.4059C695.427 84.3624 695.463 84.3334 695.503 84.3044C695.419 84.3298 695.325 84.3407 695.242 84.366C695.053 84.3117 694.865 84.2537 694.68 84.1884C694.469 84.1195 694.259 84.0507 694.063 83.9709C693.802 83.8621 693.549 83.7643 693.299 83.6446C693.038 83.5359 692.787 83.4126 692.537 83.2821C692.287 83.1516 692.052 83.0211 691.805 82.8761C691.319 82.6043 690.852 82.2961 690.409 81.9735C690.188 81.8104 689.967 81.6473 689.757 81.4624C689.558 81.3029 689.358 81.1434 689.17 80.973C689.159 80.9621 689.148 80.9476 689.13 80.9331C688.934 80.7519 688.735 80.567 688.539 80.3749C688.343 80.1791 688.158 79.987 687.988 79.784C687.825 79.6172 687.673 79.4396 687.535 79.2511C687.172 78.8197 686.846 78.3593 686.545 77.8881C686.516 77.8373 686.476 77.7757 686.447 77.7286C686.603 77.7685 686.77 77.8011 686.951 77.8192C686.973 77.8337 687.006 77.8373 687.016 77.8373C689.579 78.3593 693.538 78.9031 696.891 79.2257C699.099 79.4432 701.034 79.5592 702.129 79.5012C705.957 79.2837 706.189 76.8586 706.78 76.1843C707.357 76.2605 707.904 76.3583 708.433 76.4417C709.151 76.5577 709.542 77.3588 709.194 78.0077Z" fill="#5B1828"/>
<path d="M702.948 84.1448C702.561 84.3188 702.158 84.4566 701.756 84.569C700.393 84.9641 698.914 85.0692 697.341 84.8336C697.003 84.7828 696.677 84.7248 696.355 84.6523C696.032 84.5798 695.709 84.5001 695.398 84.4058C695.34 84.3986 695.296 84.3841 695.242 84.366C695.053 84.3116 694.865 84.2536 694.68 84.1883C694.469 84.1195 694.259 84.0506 694.063 83.9708C693.802 83.8621 693.549 83.7642 693.299 83.6446C693.038 83.5358 692.787 83.4126 692.537 83.2821C692.287 83.1516 692.052 83.0211 691.805 82.8761C691.319 82.6042 690.852 82.2961 690.409 81.9734C690.188 81.8103 689.967 81.6472 689.757 81.4623C689.558 81.3028 689.358 81.1433 689.17 80.9729C689.159 80.962 689.148 80.9475 689.13 80.933C688.934 80.7518 688.735 80.5669 688.539 80.3748C688.343 80.179 688.158 79.9869 687.988 79.7839C687.825 79.6172 687.673 79.4395 687.535 79.251C687.172 78.8197 686.846 78.3593 686.545 77.888C686.516 77.8373 686.476 77.7756 686.447 77.7285C686.603 77.7684 686.77 77.801 686.951 77.8191C686.973 77.8336 687.006 77.8373 687.016 77.8373C689.579 78.3593 693.538 78.903 696.891 79.2257C699.465 80.2624 701.709 81.9626 702.948 84.1412V84.1448Z" fill="#E57876"/>
<path d="M554.475 189.655C550.502 179.012 567.826 163.827 567.826 163.827C567.826 163.827 580.321 189.673 572.919 192.863C565.517 196.057 561.834 199.602 554.475 189.655Z" fill="#E3903A"/>
<path d="M758.666 254.583C757.172 258.607 754.947 265.197 746.308 265.197H618.925C619.457 258.259 616.96 257.516 618.471 239.666C618.874 234.953 619.247 229.226 619.606 222.857C621.212 194.07 622.383 151.936 623.003 128.773L643.662 120.326C652.496 129.78 658.064 149.834 658.064 149.834H699.357C699.357 149.834 701.213 128.178 688.445 121.102C689.047 121.258 708.793 125.492 716.579 130.266C726.903 136.613 728.092 149.939 732.464 168.376C736.793 186.635 740.958 202.314 746.047 210.655C751.126 219 752.873 226.445 752.123 228.715C751.365 230.984 753.145 229.255 755.074 234.442C757.002 239.619 760.163 250.556 758.67 254.587L758.666 254.583Z" fill="#F6BB5A"/>
<path d="M636.829 265.197C636.557 263.834 636.042 262.594 635.509 261.279C634.175 257.998 633.718 254.619 633.309 251.118C632.671 245.644 632.743 239.971 632.663 234.471C632.576 228.849 632.315 223.404 631.739 217.807C631.424 214.813 630.934 211.848 630.655 208.853C630.514 207.378 630.655 205.58 629.93 204.246C629.582 203.59 628.672 203.216 627.958 203.441C625 204.384 625.268 210.198 624.275 212.634C622.861 216.082 621.194 219.453 619.606 222.857C619.247 229.23 618.874 234.954 618.471 239.666C616.96 257.516 619.457 258.259 618.925 265.197H636.825H636.829Z" fill="#E3903A"/>
<path d="M573.649 166.932C571.35 161.367 557.33 140.248 556.5 137C551.859 151.559 545.5 150.5 545.5 150.5L570.025 201C570.025 201 582.915 188.605 573.649 166.929V166.932Z" fill="#F7B288"/>
<path d="M623.006 128.769C614.777 131.553 598.087 154.775 594.266 171.345C589.826 190.601 581.771 202.829 579.186 208.505C574.046 219.786 587.484 263.28 594.266 265.734C614.712 273.129 621.396 240.888 621.614 237.107C623.814 236.737 624.318 235.171 625.848 232.75C628.226 228.976 629.531 223.727 629.531 223.727L623.009 128.769H623.006Z" fill="#F6BB5A"/>
<path d="M597.892 205.286C586.132 190.039 572.198 163.214 572.198 163.214C576.167 176.271 566.354 191.323 554.479 189.651C563.048 207.367 564.016 216.219 566.959 222.799C569.903 229.378 572.502 244.632 573.398 246.151C574.293 247.67 578.513 250.646 578.995 252.539C579.477 254.435 581.297 260.14 581.906 260.764C583.816 262.729 589.438 270.472 594.604 266.948C599.005 263.947 605.689 261.344 607.625 259.256C607.39 253.575 597.896 205.283 597.896 205.283L597.892 205.286Z" fill="#F6BB5A"/>
<path d="M609.775 230.005C608.887 228.2 607.861 227.294 606.545 225.851C604.508 223.622 604.363 221.49 603.873 218.579C603.156 214.302 601.535 210.796 598.573 207.592C597.026 205.917 595.101 204.674 593.611 202.941C591.117 200.041 590.192 196.108 588.956 192.559C588.59 191.504 586.901 191.957 587.274 193.023C588.786 197.369 589.917 201.824 593.277 205.149C596.891 208.723 600.571 211.521 601.8 216.814C602.626 220.374 601.981 224.176 604.834 226.754C609.811 231.245 609.514 236.541 609.902 242.805C609.971 243.922 611.718 243.929 611.649 242.805C611.384 238.532 611.718 233.942 609.782 230.002L609.775 230.005Z" fill="#E3903A"/>
<path d="M662.185 157.157H688.061C695.539 157.157 701.426 150.668 700.585 143.233C699.168 130.712 694.756 123.574 693.393 122.465L684.885 117.995C691.577 123.331 693.089 134.246 694.038 141.337C694.64 145.839 691.12 149.83 686.582 149.83H663.367C659.369 149.83 656.084 146.698 655.86 142.707C655.435 135.24 654.243 123.712 649.465 117.165L642.896 120.736C644.078 121.45 649.077 129.284 649.606 144.893C649.838 151.712 655.37 157.153 662.193 157.153L662.185 157.157Z" fill="#FCF7ED"/>
<path d="M554.475 189.655C560.619 202.361 561.696 210.876 564.824 216.64C575.83 223.198 592.425 201.81 587.375 189.833V189.826C579.147 176.594 572.194 163.214 572.194 163.214C576.16 176.271 566.35 191.323 554.475 189.651V189.655Z" fill="#FCF7ED"/>
<path d="M633.19 159.248C632.07 150.128 628.097 143.182 625.646 134.384C625.349 133.315 624.196 131.68 624.497 132.756C626.766 140.909 629.663 149.116 631.16 157.472C632.679 165.951 630.957 174.6 630.043 183.108C629.137 191.529 628.611 183.391 628.274 191.837C627.962 199.693 629.71 210.709 624.994 217.593C624.348 218.536 625.835 219.409 626.476 218.474C630.714 212.293 629.623 203.916 629.84 196.909C630.141 187.335 630.641 194.342 631.609 184.794C632.468 176.326 634.23 167.727 633.19 159.248Z" fill="#E3903A"/>
<path d="M695.866 201.154C683.081 202.68 672.296 208.096 661.298 214.588C660.319 215.165 661.156 216.676 662.139 216.096C672.825 209.789 683.802 203.463 696.236 201.98C697.342 201.85 696.986 201.02 695.87 201.154H695.866Z" fill="#E3903A"/>
<path d="M739.663 234.845C734.831 234.515 727.9 233.83 723.104 235.026C719.168 236.008 716.13 239.481 713.012 241.917C708.854 245.165 702.003 250.596 696.899 252.093C691.291 253.738 700.151 252.963 708.3 247.525C711.74 245.231 714.937 242.57 718.153 239.971C721.698 237.103 724.453 236.422 728.879 236.324C732.047 236.255 737.148 235.802 740.301 236.016C741.422 236.092 740.776 234.917 739.663 234.841V234.845Z" fill="#E3903A"/>
<path d="M717.92 170.747C715.303 160.151 714.813 150.052 717.369 139.358C717.63 138.263 717.05 137.491 716.785 138.593C714.501 148.138 713.457 157.94 715.379 167.535C717.528 178.28 721.53 188.919 717.992 200.037C716.441 204.909 713.102 208.795 711.007 213.403C709.22 217.325 708.506 221.643 708.901 225.873C709.096 227.954 709.684 229.831 710.227 231.829C711.319 235.845 710.202 238.383 709.332 242.222C709.02 243.592 708.89 244.875 709.009 246.101L710.673 244.716C710.844 241.203 713.051 237.361 712.616 233.935C712.036 229.386 710.115 225.601 710.695 220.776C711.786 211.695 719.276 205.091 720.715 195.977C722.081 187.332 719.964 178.994 717.923 170.743L717.92 170.747Z" fill="#E3903A"/>
<path d="M730.8 221.425C724.989 224.709 720.327 228.081 716.691 233.681C716.071 234.638 717.558 235.515 718.174 234.562C721.65 229.204 726.261 224.88 731.818 221.74C732.808 221.182 731.789 220.863 730.796 221.421L730.8 221.425Z" fill="#E3903A"/>
<path d="M722.915 152.143C720.917 156.457 719.069 160.833 717.372 165.27C716.97 166.321 718.659 166.774 719.054 165.734C720.7 161.434 721.751 157.117 723.687 152.941C724.154 151.93 723.386 151.121 722.915 152.143Z" fill="#E3903A"/>
<path d="M703.449 250.121L712.211 244.716C716.347 241.439 721.788 243.965 724.75 249.399C727.748 254.898 726.976 264.247 722.423 265.197C717.076 265.197 703.475 265.784 703.475 265.784L703.453 250.124L703.449 250.121Z" fill="#FCF7ED"/>
<path d="M703.448 250.121C698.819 251.139 695.916 252.328 693.574 252.658C691.232 252.992 679.592 252.009 673.143 251.331C666.694 250.654 664.552 251.705 650.947 254.463C644.861 258.694 639.836 259.415 638.803 260.909C637.766 262.402 637.11 266.045 641.181 265.94C645.252 265.832 710.463 265.781 710.463 265.781C718.866 265.781 711.014 248.457 703.452 250.121H703.448Z" fill="#F7B288"/>
<path d="M672.403 257.947C666.508 260.329 657.446 258.212 653.879 261.271C650.953 263.78 653.614 268.075 657.366 267.118C658.417 266.85 658.019 265.233 656.964 265.502C655.579 265.828 653.361 263.519 655.496 262.272C657.319 261.206 659.113 260.865 666.084 260.619C668.662 260.528 670.88 260.619 673.208 259.397C674.175 258.889 673.411 257.541 672.399 257.951L672.403 257.947Z" fill="#DC765D"/>
<path d="M668.042 253.651C663.453 254.387 657.631 254.387 653.321 256.221C650.207 257.545 647.557 258.958 642.961 261.789C641.311 262.804 641.775 265.393 643.309 266.691C645.908 268.887 649.652 265.831 646.542 265.831C642.826 266.1 643.45 263.102 645.15 262.112C649.391 260.162 650.283 259.796 652.219 258.712C656.873 256.109 663.268 256.098 668.445 255.272C669.51 255.101 669.104 253.485 668.042 253.655V253.651Z" fill="#DC765D"/>
<path d="M952.998 272.246C952.998 276.051 951.473 279.128 949.592 279.128H487.694C486.75 279.128 485.901 278.361 485.282 277.111C484.666 275.868 484.283 274.145 484.283 272.246C484.283 268.441 485.812 265.353 487.695 265.353H949.593C950.537 265.353 951.386 266.12 952.002 267.37C952.511 268.398 952.86 269.752 952.967 271.261C952.988 271.58 953 271.909 953 272.246H952.998Z" fill="#DCBFA3"/>
<path d="M947.924 279.128H489.357C489.357 282.733 490.781 285.653 492.537 285.653H944.744C946.501 285.653 947.924 282.733 947.924 279.128Z" fill="#BDA084"/>
<path d="M521.469 210.376C518.366 207.298 512.802 206.602 508.658 206.939C504.112 207.309 499.628 209.089 496.195 212.123C492.229 215.628 492.248 218.971 493.705 223.774C494.325 225.815 496.348 226.264 497.885 225.648C500.36 226.913 504.076 225.71 506.672 225.003C509.419 224.256 511.413 223.034 513.893 221.748C516.1 220.606 518.67 220.852 520.758 219.348C523.778 217.176 524.119 213 521.469 210.372V210.376Z" fill="#266E70"/>
<path d="M519.968 216.64C520.004 210.263 509.582 210.495 511.446 204.003C513.309 197.51 520.059 194.208 528.096 197.141C540.403 201.632 550.389 213.798 552.978 230.328C548.49 226.152 540.881 220.859 534.668 218.96C528.451 217.06 526.533 215.135 521.813 220.906L519.968 216.64Z" fill="#266E70"/>
<path d="M510.644 215.817C510.075 214.244 507.544 214.922 508.117 216.513C510.72 223.719 512.097 231.086 512.239 238.756C512.268 240.438 514.889 240.445 514.856 238.756C514.711 230.875 513.323 223.234 510.64 215.817H510.644Z" fill="#266E70"/>
<path d="M521.836 211.239C518.327 221.392 516.812 231.945 517.312 242.675C517.392 244.353 520.009 244.36 519.929 242.675C519.44 232.166 520.926 221.878 524.359 211.935C524.91 210.34 522.38 209.651 521.832 211.239H521.836Z" fill="#266E70"/>
<path d="M532.057 213.113C528.667 222.415 525.474 231.763 525.361 241.765C525.343 243.451 527.961 243.451 527.979 241.765C528.084 232.003 531.274 222.879 534.58 213.809C535.156 212.225 532.63 211.539 532.053 213.113H532.057Z" fill="#3A8585"/>
<path d="M525.511 203.64C522.064 215.067 520.559 226.837 521.023 238.76C521.089 240.438 523.706 240.449 523.641 238.76C523.184 227.062 524.656 215.545 528.034 204.336C528.524 202.72 525.997 202.027 525.508 203.64H525.511Z" fill="#3A8585"/>
<path d="M520.027 239.061C516.649 222.491 517.337 204.655 508.079 189.84C507.187 188.415 504.922 189.728 505.817 191.163C514.938 205.761 514.173 223.433 517.5 239.757C517.838 241.406 520.361 240.71 520.023 239.061H520.027Z" fill="#3A8585"/>
<path d="M513.817 241.624C511.852 232.177 506.889 223.893 499.472 217.716C498.185 216.647 496.326 218.489 497.62 219.569C504.721 225.485 509.409 233.268 511.29 242.32C511.634 243.969 514.157 243.269 513.817 241.624Z" fill="#3A8585"/>
<path d="M496.865 236.393H541.754V257.878C541.754 262.747 537.803 266.698 532.934 266.698H505.685C500.817 266.698 496.865 262.747 496.865 257.878V236.393Z" fill="#9ED2EC"/>
<path d="M510.5 266.698H532.939C537.811 266.698 541.759 262.75 541.759 257.878V247.3L510.5 266.698Z" fill="#749FC5"/>
<path d="M502.285 220.276C492.726 211.13 484.207 208.817 476.152 214.925C468.094 221.03 440.011 234.946 437.709 236.393C463.722 242.671 475.656 242.084 482.235 236.393C488.815 230.701 497.576 222.389 502.289 224.118C503.859 221.925 502.289 220.276 502.289 220.276H502.285Z" fill="#3A8585"/>
<path d="M512.429 198.736C511.599 190.184 514.39 172.23 502.982 169.467C491.574 166.705 456.125 162.79 452.898 161.18C465.561 177.526 463.948 178.446 478.912 185.813C493.876 193.179 506.868 198.13 510.497 201.049L512.429 198.736Z" fill="#3A8585"/>
<path d="M531.402 214.925C534.669 205.609 531.17 196.169 545.902 193.407C560.635 190.645 582.733 202.017 591.944 217.394C577.687 213.997 570.103 214.57 561.251 217.394C550.644 220.78 538.536 211.525 533.295 217.394L531.406 214.925H531.402Z" fill="#3A8585"/>
<path d="M524.757 206.265C524.721 200.084 514.933 189.496 520.055 179.364C525.181 169.235 541.066 170.189 549.121 166.259C557.179 162.33 565.234 157.954 565.234 157.954C562.7 173.607 559.249 174.571 553.032 181.111C546.815 187.65 529.904 199.947 527.197 207.265L524.753 206.265H524.757Z" fill="#3A8585"/>
<path d="M779.032 255.823C770.052 255.823 763.777 248.768 763.777 238.666C763.777 227.577 771.93 226.156 779.032 226.156C780.445 226.156 781.587 227.301 781.587 228.711V253.264C781.587 254.677 780.442 255.819 779.032 255.819V255.823ZM776.472 231.332C771.252 231.637 768.889 233.163 768.889 238.662C768.889 243.871 771.256 249.12 776.472 250.411V231.332Z" fill="#C85C6B"/>
<path d="M808.397 218.996H776.258C774.936 218.996 773.865 220.067 773.865 221.389V262.801C773.865 264.122 774.936 265.194 776.258 265.194H808.397C809.719 265.194 810.79 264.122 810.79 262.801V221.389C810.79 220.067 809.719 218.996 808.397 218.996Z" fill="#E2606E"/>
<path d="M773.865 262.801C773.865 264.117 774.942 265.194 776.258 265.194H808.401C809.717 265.194 810.793 264.117 810.793 262.801V243.962L773.869 262.275V262.801H773.865Z" fill="#C85C6B"/>
<path d="M798.138 265.193H867.221C868.5 265.193 869.537 264.156 869.537 262.877V259.285C869.537 258.005 868.5 256.968 867.221 256.968H798.138C796.859 256.968 795.822 258.005 795.822 259.285V262.877C795.822 264.156 796.859 265.193 798.138 265.193Z" fill="#3D303E"/>
<path d="M711.725 265.193H806.1C807.379 265.193 808.416 264.156 808.416 262.877V259.285C808.416 258.005 807.379 256.968 806.1 256.968H711.725C710.446 256.968 709.409 258.005 709.409 259.285V262.877C709.409 264.156 710.446 265.193 711.725 265.193Z" fill="#2E282F"/>
<path d="M853.58 142.287H909.648C911.044 142.287 911.852 142.852 914.386 144.164L868.304 254.315C867.757 255.71 858.332 256.838 856.936 256.838L811.794 258.342C808.143 256.305 806.643 255.71 807.186 254.315L850.067 144.81C850.614 143.414 852.184 142.287 853.58 142.287Z" fill="#695C70"/>
<path d="M857.259 143.878H913.328C914.723 143.878 915.409 145.009 914.865 146.401L871.984 255.906C871.437 257.302 869.867 258.429 868.472 258.429H812.403C811.008 258.429 810.322 257.298 810.866 255.906L853.747 146.401C854.294 145.005 855.864 143.878 857.259 143.878Z" fill="#2E282F"/>
<path opacity="0.32" d="M701.122 10.4152C700.843 8.78389 699.969 7.352 698.425 6.6705C697.49 6.26087 696.522 6.27899 695.529 6.37324C691.994 6.714 690.414 8.14589 687.343 5.75336C685.545 4.3396 684.374 3.82484 682.149 4.74923C680.438 5.46336 680.594 5.95274 678.676 5.92011C677.019 5.89474 677.462 5.51773 676.109 5.35098C674.137 5.10811 672.463 5.66636 670.646 6.44937C668.986 7.1635 667.46 8.09151 665.847 8.90352C664.825 9.41827 661.91 11.1728 661.004 9.10289C660.837 8.71864 661.276 7.48975 661.301 6.92787C661.319 6.67412 661.326 6.39499 661.326 6.12674C657.223 8.42139 653.638 11.7202 650.912 16.3566C649.15 19.369 647.751 22.327 646.627 25.2416C649.386 23.3819 651.412 20.2136 654.965 20.0324C658.213 19.8765 660.717 21.4896 663.607 19.2204C665.753 17.5275 666.093 15.4503 668.939 14.7688C671.734 14.0982 672.02 15.9651 674.431 16.4363C675.845 16.7082 677.121 16.208 678.27 15.4395C680.372 14.0184 681.166 11.4157 683.541 14.4099C684.904 16.121 685.259 17.6906 687.869 17.4115C690.497 17.1142 693.299 13.6487 695.26 15.8128C695.235 16.3348 695.471 16.8605 696.065 17.1033C696.5 17.7849 697.305 17.716 697.838 17.2701C700.441 16.7807 701.557 12.8367 701.129 10.4079L701.122 10.4152Z" fill="#D39489"/>
<path d="M662.186 53.8574C661.86 52.7844 660.174 53.2412 660.504 54.3214C661.001 55.9563 660.997 57.5079 660.265 59.0666C659.855 59.9366 659.279 60.6979 658.996 61.6295C658.546 63.1158 658.8 64.4462 659.413 65.8418C659.862 66.8677 661.367 65.9796 660.921 64.9609C659.841 62.5031 661.512 61.1256 662.226 58.9506C662.799 57.2033 662.715 55.5938 662.19 53.8538L662.186 53.8574Z" fill="#DC765D"/>
<path d="M663.585 30.9474L667.848 29.095L666.097 43.9576L662.131 40.3616L663.585 30.9474Z" fill="#873D36"/>
<path d="M659.814 29.0913L665.607 30.3891L664.15 41.9529L658.074 42.1342L659.814 29.0913Z" fill="#585C7A"/>
<path d="M662.331 32.1689L661.863 32.0964C658.811 31.6251 656.806 28.6635 657.462 25.6438C662.664 1.78023 677.89 -1.68893 692.643 0.594841C703.084 2.20798 706.93 3.8755 706.93 3.8755C706.93 3.8755 695.072 2.08836 692.339 1.8781C687.746 1.52648 675.037 0.616592 668.345 28.1089C667.685 30.8168 665.086 32.5894 662.331 32.1653V32.1689Z" fill="#FCEFE6"/>
<path d="M648.029 55.1372C648.855 47.5391 648.968 42.4532 653.59 40.4521L654.293 39.8359C655.119 39.1109 656.181 38.7157 657.28 38.723L661.329 38.752C667.618 39.4371 671.896 47.8907 670.798 57.6203C669.692 67.4152 663.519 75.0205 657.497 74.0055C654.38 73.4798 651.516 72.0552 651.201 70.9459C645.034 65.0553 647.3 61.8253 648.029 55.1335V55.1372Z" fill="#585C7A"/>
<path d="M663.363 56.714C664.183 49.1993 660.916 42.6779 656.066 42.1522C651.219 41.6266 646.623 47.2889 645.804 54.8036C644.984 62.3183 648.25 68.8397 653.101 69.3654C657.947 69.891 662.544 64.2287 663.363 56.714Z" fill="#E5F2F8"/>
<path d="M655.439 44.3454C655.566 44.3454 655.696 44.3526 655.827 44.3671C657.94 44.5955 659.256 46.6219 659.851 47.8109C661.021 50.149 661.496 53.3064 661.152 56.4747C660.51 62.3763 657.183 67.1758 653.732 67.1758C653.605 67.1758 653.474 67.1686 653.344 67.1541C651.23 66.9257 649.918 64.8993 649.32 63.7103C648.149 61.3722 647.674 58.2147 648.019 55.0465C648.66 49.1449 651.988 44.3454 655.439 44.3454ZM655.439 42.116C650.828 42.116 646.587 47.6115 645.804 54.8036C644.984 62.3183 648.25 68.8397 653.101 69.3654C653.311 69.3871 653.521 69.398 653.728 69.398C658.339 69.398 662.58 63.9024 663.363 56.7104C664.183 49.1957 660.916 42.6742 656.066 42.1486C655.856 42.1268 655.646 42.116 655.439 42.116Z" fill="#99B3BB"/>
<path d="M556.671 137.319C554.93 133.855 548.885 123.906 547.12 120.908C544.667 116.742 534.562 113.938 528.26 113.038C524 112.428 511.738 106.995 509.705 106.384C507.515 105.723 503.722 109.717 507.123 112.243C510.524 114.77 515.441 116.445 518.103 117.665C520.766 118.886 523.802 122.554 523.802 122.554C523.802 122.554 513.102 128.685 511.172 129.204C509.244 129.718 500.321 128.636 498.656 128.593C496.99 128.547 488.682 127.712 486.962 129.197C485.243 130.683 485.289 133.39 487.712 134.39C490.131 135.391 499.367 136.516 499.367 136.516C499.367 136.516 488.212 139.513 487.368 141.459C486.52 143.407 487.346 146.304 490.5 146.304C493.751 148.386 503.38 146.208 503.38 146.208C503.38 146.208 512.903 150.413 515.867 148.962C518.832 147.512 525.432 143.477 526.151 142.935C526.869 142.392 539.645 139.758 540.191 140.481C540.734 141.206 547.737 155.332 547.737 155.332C547.737 155.332 561.158 149.388 556.672 137.323L556.671 137.319Z" fill="#F7B288"/>
<path d="M543.989 128.111C539.651 126.368 536.302 124.062 531.981 126.858C529.472 128.479 527.784 130.98 525.929 133.259C523.584 136.137 520.924 138.657 517.781 140.643C515.47 142.105 513.701 143.321 510.785 142.36C509.519 141.942 508.424 141.09 507.125 140.72C505.647 140.299 503.854 140.151 502.518 141.087C500.062 142.809 500.868 146.182 503.343 147.362C504.183 147.76 504.776 146.921 503.936 146.523C501.869 144.834 502.25 142.43 504.091 141.811C505.395 141.373 506.135 141.905 507.878 142.576C508.658 142.875 509.37 143.345 510.145 143.661C511.087 144.047 512.077 144.443 513.119 144.379C516.259 144.186 519.823 141.18 522.094 139.282C525.117 136.752 527.207 133.58 529.845 130.707C531.874 128.496 534.28 126.591 537.432 126.754C539.586 126.866 541.775 128.027 543.764 128.827C544.622 129.17 544.846 128.463 543.983 128.117L543.989 128.111Z" fill="#CD9A82"/>
<path d="M523.801 122.551L528.605 119.422C528.646 118.653 522.442 121.056 522.442 121.056L523.8 122.548L523.801 122.551Z" fill="#CD9A82"/>
<defs>
<linearGradient id="paint0_linear_2002_1082" x1="383.582" y1="150.47" x2="591.297" y2="150.47" gradientUnits="userSpaceOnUse">
<stop stop-color="#E5F2F8" stop-opacity="0"/>
<stop offset="1" stop-color="#E5F2F8"/>
</linearGradient>
<clipPath id="clip0_2002_1082">
<rect x="852" y="134" width="256" height="169" rx="10" fill="white"/>
</clipPath>
</defs>
</svg>
