<svg width="352" height="418" viewBox="0 0 352 418" fill="none" xmlns="http://www.w3.org/2000/svg">
<g clip-path="url(#clip0_2023_1193)">
<rect width="352" height="418" fill="#D6F3BA"/>
<path fill-rule="evenodd" clip-rule="evenodd" d="M223.33 288.789C278.657 288.789 329.566 289.49 369.963 290.668C468.828 242.735 434.588 149.28 399.097 96.4319C349.69 22.8607 232.967 -3.5739 184.661 55.1237C119.122 134.789 55.8986 106.984 21.759 167.487C-12.3806 227.989 39.4671 285.986 76.7228 290.668C117.12 289.49 168.029 288.789 223.343 288.789H223.33Z" fill="#D6F3BA"/>
<g clip-path="url(#clip1_2023_1193)">
<path fill-rule="evenodd" clip-rule="evenodd" d="M315.272 210.51C315.409 210.172 315.794 209.999 316.133 210.136C316.473 210.254 316.656 210.647 316.519 210.984C315.858 212.691 315.299 214.498 314.831 216.368C315.015 216.186 315.216 216.03 315.427 215.857C316.335 215.127 317.362 214.498 318.508 213.959C318.848 213.813 319.242 213.95 319.398 214.279C319.554 214.607 319.416 215.009 319.086 215.164C318.032 215.656 317.087 216.231 316.262 216.888C315.473 217.518 314.795 218.211 314.226 218.987C313.364 223.029 312.814 227.391 312.31 231.99C313.08 230.794 313.905 229.727 314.786 228.778C316.317 227.126 317.995 225.849 319.847 224.936C320.177 224.763 320.572 224.909 320.746 225.237C320.902 225.566 320.773 225.958 320.443 226.123C318.747 226.962 317.188 228.148 315.776 229.672C314.373 231.205 313.107 233.057 311.97 235.266L311.851 236.507C311.558 239.253 311.274 242.054 310.925 244.92C310.925 244.947 310.925 244.974 310.916 245.002C310.558 247.995 310.136 251.052 309.605 254.163C311.053 251.946 312.594 249.984 314.263 248.287C316.693 245.796 319.37 243.852 322.268 242.465C322.607 242.31 323.002 242.447 323.167 242.775C323.323 243.104 323.185 243.496 322.855 243.66C320.095 244.984 317.555 246.836 315.226 249.217C312.906 251.59 310.806 254.492 308.926 257.913C308.101 262.038 307.055 266.235 305.671 270.478C304.983 272.568 304.222 274.667 303.36 276.774C305.377 275.05 307.523 273.553 309.788 272.303C312.952 270.551 316.354 269.256 319.976 268.425C320.333 268.343 320.691 268.571 320.764 268.918C320.847 269.274 320.627 269.63 320.278 269.703C316.766 270.524 313.483 271.756 310.439 273.453C307.431 275.123 304.644 277.222 302.076 279.758C301.444 281.145 300.765 282.541 300.031 283.946L298.564 283.892C300.994 279.293 302.883 274.685 304.378 270.141C304.625 266.901 304.249 263.671 303.222 260.441C302.195 257.156 300.49 253.862 298.152 250.577C297.941 250.276 298.014 249.865 298.317 249.655C298.619 249.436 299.032 249.509 299.243 249.801C301.673 253.214 303.424 256.618 304.497 260.03C305.111 261.965 305.506 263.908 305.689 265.843C307.688 258.662 308.798 251.626 309.605 244.92C308.825 242.082 307.945 239.682 306.982 237.702C306.019 235.749 304.983 234.234 303.855 233.176C303.58 232.921 303.571 232.51 303.828 232.236C304.075 231.972 304.497 231.962 304.763 232.209C306.019 233.386 307.147 235.028 308.183 237.118C308.825 238.423 309.43 239.919 309.999 241.598C310.191 239.819 310.366 238.076 310.549 236.361L310.696 235.028C310.696 235.028 310.696 234.983 310.705 234.955C311.649 225.849 312.612 217.545 315.317 210.501L315.272 210.51Z" fill="white"/>
<path fill-rule="evenodd" clip-rule="evenodd" d="M159.575 239.81C160.088 246.708 161.106 247.666 167.726 248.195C161.106 248.734 160.088 249.683 159.575 256.581C159.079 249.674 158.043 248.725 151.441 248.195C158.043 247.666 159.079 246.708 159.575 239.81ZM132.707 258.014C132.973 261.691 133.523 262.202 137.054 262.494C133.523 262.777 132.982 263.279 132.707 266.965C132.432 263.288 131.891 262.777 128.352 262.494C131.882 262.202 132.432 261.691 132.707 258.014ZM144.481 229.654C144.756 233.386 145.306 233.897 148.883 234.189C145.306 234.472 144.756 234.992 144.481 238.715C144.206 234.983 143.656 234.472 140.071 234.189C143.647 233.897 144.206 233.377 144.481 229.654Z" fill="white"/>
<path fill-rule="evenodd" clip-rule="evenodd" d="M265.187 222.801C264.802 228.093 264.023 228.814 258.961 229.225C264.023 229.626 264.802 230.365 265.187 235.64C265.572 230.365 266.361 229.626 271.432 229.225C266.361 228.814 265.581 228.084 265.187 222.801ZM285.773 236.744C285.562 239.563 285.141 239.956 282.445 240.175C285.141 240.394 285.572 240.777 285.773 243.596C285.975 240.768 286.397 240.384 289.093 240.175C286.397 239.956 285.966 239.563 285.773 236.744ZM276.759 215.027C276.549 217.892 276.127 218.284 273.394 218.503C276.127 218.722 276.558 219.115 276.759 221.98C276.97 219.115 277.392 218.722 280.125 218.503C277.392 218.284 276.961 217.892 276.759 215.027Z" fill="white"/>
<path fill-rule="evenodd" clip-rule="evenodd" d="M47.0749 83.4377L173.993 67.5149C183.897 66.2648 193.03 73.3183 194.277 83.1731L216.275 256.764C217.522 266.628 210.443 275.707 200.531 276.948L73.6305 292.88C63.718 294.121 54.5941 287.076 53.3378 277.212L31.3396 103.622C30.0834 93.767 37.1716 84.6878 47.0749 83.4377Z" fill="#B7E886"/>
<path fill-rule="evenodd" clip-rule="evenodd" d="M47.7282 88.5111L174.628 72.5792C181.735 71.685 188.282 76.7492 189.172 83.821L211.17 257.402C212.068 264.474 206.988 270.998 199.882 271.883L72.9817 287.806C65.8751 288.7 59.3279 283.645 58.4293 276.574L36.431 102.983C35.5324 95.9113 40.6216 89.4054 47.7282 88.5111Z" fill="#E7FFCF"/>
<path fill-rule="evenodd" clip-rule="evenodd" d="M38.8867 98.6216L163.54 72.9626L200.284 249.719L75.6391 275.378L38.8867 98.6216Z" fill="white"/>
<path fill-rule="evenodd" clip-rule="evenodd" d="M57.1814 136.84C56.844 135.216 57.8884 133.626 59.5128 133.291L67.84 131.574C69.4612 131.24 71.0468 132.282 71.3833 133.902L73.0976 142.16C73.4348 143.785 72.3895 145.375 70.7643 145.709L62.4371 147.42C60.8166 147.754 59.2322 146.712 58.8957 145.092L57.1814 136.84ZM81.0319 251.566C80.6946 249.942 81.7389 248.353 83.3633 248.018L91.6905 246.3C93.3117 245.966 94.8973 247.008 95.2338 248.629L96.9481 256.887C97.2854 258.511 96.24 260.101 94.6148 260.435L86.2876 262.147C84.6671 262.48 83.0827 261.438 82.7462 259.818L81.0319 251.566ZM76.2636 228.617C75.9262 226.993 76.9704 225.404 78.5946 225.068L86.9146 223.352C88.5352 223.017 90.1205 224.058 90.4579 225.678L92.1776 233.936C92.516 235.561 91.4706 237.152 89.8447 237.486L81.5193 239.198C79.8988 239.531 78.3145 238.489 77.978 236.869L76.2636 228.617ZM71.4884 205.67C71.1499 204.045 72.1943 202.454 73.8194 202.119L82.1448 200.403C83.766 200.068 85.3516 201.11 85.6881 202.731L87.4025 210.989C87.7397 212.613 86.6945 214.203 85.0696 214.537L76.7495 216.249C75.1296 216.582 73.5456 215.541 73.2082 213.922L71.4884 205.67ZM66.7179 182.719C66.3806 181.095 67.4249 179.506 69.0493 179.171L77.3765 177.454C78.9977 177.119 80.5833 178.161 80.9198 179.782L82.6341 188.04C82.9714 189.664 81.926 191.254 80.3008 191.588L71.9736 193.3C70.3531 193.633 68.7688 192.591 68.4323 190.972L66.7179 182.719ZM61.9496 159.77C61.6123 158.146 62.6564 156.557 64.2806 156.222L72.5988 154.505C74.2201 154.171 75.8059 155.213 76.1424 156.833L77.8568 165.091C78.194 166.716 77.1488 168.305 75.5239 168.64L67.2057 170.351C65.585 170.684 64.0004 169.642 63.6639 168.022L61.9496 159.77Z" fill="#F1FFD7"/>
<path fill-rule="evenodd" clip-rule="evenodd" d="M82.0225 129.19L159.113 113.322C160.415 113.057 161.699 113.897 161.964 115.192C162.24 116.488 161.396 117.765 160.085 118.039L83.0037 133.907C81.7016 134.181 80.4178 133.332 80.1427 132.037C79.8768 130.741 80.7204 129.463 82.0225 129.199V129.19ZM105.873 243.925L182.972 228.048C184.274 227.774 185.558 228.623 185.824 229.919C186.099 231.214 185.246 232.492 183.944 232.756L106.863 248.634C105.561 248.907 104.278 248.059 104.002 246.763C103.737 245.467 104.58 244.19 105.882 243.925H105.873ZM107.624 252.311C106.322 252.575 105.479 253.862 105.745 255.158C106.02 256.444 107.304 257.284 108.606 257.019L154.904 247.493C156.206 247.219 157.059 245.942 156.784 244.646C156.518 243.35 155.225 242.511 153.932 242.775L107.624 252.311ZM101.114 220.976L178.195 205.099C179.497 204.825 180.781 205.674 181.056 206.97C181.322 208.265 180.478 209.543 179.176 209.807L102.086 225.685C100.784 225.958 99.4909 225.11 99.225 223.814C98.9499 222.518 99.7935 221.241 101.105 220.976H101.114ZM102.856 229.362C101.554 229.627 100.701 230.913 100.976 232.209C101.242 233.505 102.526 234.335 103.828 234.079L150.135 224.544C151.438 224.27 152.272 222.993 152.015 221.697C151.74 220.401 150.456 219.562 149.154 219.827L102.856 229.362ZM96.3365 198.027L173.436 182.159C174.738 181.886 176.022 182.734 176.288 184.03C176.563 185.326 175.719 186.603 174.417 186.868L97.3268 202.745C96.0247 203.019 94.741 202.17 94.4751 200.874C94.2 199.579 95.0436 198.301 96.3457 198.036L96.3365 198.027ZM98.0879 206.413C96.7858 206.687 95.9422 207.964 96.2081 209.26C96.4832 210.556 97.767 211.386 99.0691 211.131L145.367 201.595C146.669 201.321 147.522 200.044 147.247 198.748C146.981 197.452 145.697 196.613 144.395 196.878L98.0879 206.413ZM91.5774 175.078L168.658 159.21C169.96 158.937 171.253 159.785 171.519 161.081C171.794 162.377 170.942 163.654 169.64 163.928L92.5586 179.796C91.2565 180.07 89.9727 179.221 89.6976 177.925C89.4317 176.63 90.2753 175.352 91.5774 175.088V175.078ZM93.3197 183.464C92.0176 183.738 91.1648 185.015 91.4399 186.311C91.7058 187.607 92.9987 188.437 94.3008 188.182L140.599 178.646C141.901 178.373 142.754 177.095 142.479 175.799C142.204 174.504 140.92 173.664 139.618 173.929L93.3197 183.464ZM86.8091 152.13L163.899 136.261C165.201 135.997 166.485 136.836 166.76 138.132C167.026 139.428 166.183 140.705 164.88 140.979L87.7811 156.847C86.479 157.121 85.1953 156.272 84.9293 154.976C84.6543 153.681 85.507 152.403 86.8091 152.139V152.13ZM88.5514 160.515C87.2493 160.789 86.4057 162.066 86.6716 163.362H86.6808C86.9467 164.658 88.2305 165.488 89.5326 165.233L135.84 155.697C137.142 155.424 137.986 154.146 137.72 152.85C137.445 151.555 136.161 150.715 134.859 150.98L88.5514 160.515ZM83.7831 137.566C82.481 137.84 81.6466 139.118 81.9033 140.413C82.1784 141.709 83.4622 142.539 84.7643 142.284L131.062 132.748C132.364 132.475 133.217 131.197 132.942 129.901C132.676 128.606 131.383 127.766 130.09 128.031L83.7831 137.566Z" fill="#BBD58D"/>
<path fill-rule="evenodd" clip-rule="evenodd" d="M78.0031 71.5299L100.322 68.7286L99.7262 64.0385C99.0843 59.0016 102.706 54.3662 107.768 53.7274C112.839 53.0887 117.497 56.693 118.13 61.7299L118.726 66.42L141.045 63.6096C144.099 63.2355 146.923 65.3981 147.299 68.4457L148.638 78.994C149.023 82.0417 146.831 84.843 143.778 85.2263L80.7265 93.1375C77.6729 93.5207 74.8578 91.349 74.4727 88.3013L73.1339 77.7531C72.7488 74.7145 74.9312 71.9132 77.9939 71.5299H78.0031ZM108.474 59.1932C106.218 59.4852 104.623 61.52 104.907 63.7556C105.201 66.0003 107.245 67.588 109.492 67.296C111.748 67.0131 113.343 64.9783 113.05 62.7427C112.766 60.498 110.721 58.9103 108.474 59.1932Z" fill="#B7E886"/>
<path fill-rule="evenodd" clip-rule="evenodd" d="M58.8634 136.863C58.3315 136.307 58.3682 135.449 58.9184 134.92C59.4777 134.409 60.3489 134.436 60.8715 134.984L65.1263 139.491L70.4172 127.766C70.729 127.072 71.5451 126.762 72.242 127.072C72.9298 127.383 73.2415 128.195 72.9298 128.888L66.8227 142.439C66.7493 142.621 66.6393 142.795 66.4834 142.931C65.9241 143.452 65.0438 143.424 64.5303 142.868L58.8634 136.854V136.863ZM63.6316 159.812C63.109 159.256 63.1456 158.398 63.6958 157.869C64.2552 157.349 65.1171 157.376 65.6398 157.933L69.8946 162.44L75.1947 150.715C75.5065 150.021 76.3226 149.711 77.0195 150.021C77.7164 150.332 78.0281 151.144 77.7164 151.837L71.6001 165.388C71.5268 165.57 71.4076 165.743 71.2609 165.88C70.7015 166.4 69.8212 166.373 69.3077 165.816L63.6316 159.803V159.812ZM82.7047 251.599C82.182 251.042 82.2187 250.185 82.7689 249.655C83.3283 249.135 84.2086 249.163 84.7221 249.719L88.9768 254.227L94.2678 242.511C94.5795 241.817 95.3956 241.507 96.0926 241.817C96.7803 242.127 97.0921 242.939 96.7803 243.633L90.6732 257.183C90.5999 257.366 90.4898 257.539 90.3248 257.676C89.7746 258.196 88.9035 258.169 88.3808 257.612L82.6955 251.599H82.7047ZM77.9364 228.65C77.4138 228.093 77.4413 227.236 78.0006 226.706C78.56 226.186 79.4219 226.214 79.9446 226.77L84.2177 231.278L89.4995 219.553C89.8113 218.859 90.6274 218.549 91.3243 218.859C92.0212 219.169 92.333 219.981 92.0212 220.675L85.905 234.225C85.8316 234.408 85.7124 234.581 85.5657 234.718C85.0063 235.238 84.1444 235.211 83.6125 234.654L77.9456 228.641L77.9364 228.65ZM73.1682 205.701C72.6455 205.144 72.6822 204.287 73.2232 203.757C73.7825 203.237 74.6628 203.265 75.1763 203.821L79.4311 208.329L84.7312 196.604C85.043 195.91 85.8499 195.6 86.556 195.91C87.2529 196.22 87.5555 197.032 87.2437 197.726L81.1367 211.276C81.0633 211.459 80.9441 211.632 80.7974 211.769C80.238 212.289 79.3669 212.262 78.8442 211.705L73.1682 205.692V205.701ZM68.3907 182.752C67.8681 182.196 67.8956 181.338 68.4549 180.809C69.0143 180.288 69.8854 180.316 70.4081 180.872L74.6628 185.38L79.9446 173.655C80.2564 172.961 81.0725 172.651 81.7786 172.961C82.4663 173.271 82.7781 174.084 82.4663 174.777L76.3501 188.327C76.2859 188.51 76.1667 188.683 76.0108 188.82C75.4514 189.34 74.5895 189.313 74.0668 188.756L68.3907 182.743V182.752Z" fill="#AFD171"/>
<path fill-rule="evenodd" clip-rule="evenodd" d="M244.59 204.908H248.459V202.015C248.459 198.83 251.064 196.239 254.273 196.239H280.04C283.24 196.239 285.845 198.83 285.845 202.015V204.689H289.723V202.015C289.723 196.713 285.368 192.379 280.04 192.379H254.273C248.936 192.379 244.59 196.713 244.59 202.015V204.908Z" fill="#F57A44"/>
<path fill-rule="evenodd" clip-rule="evenodd" d="M283.07 208.986C283.07 209.698 283.648 210.273 284.363 210.273H291.03C291.745 210.273 292.323 209.698 292.323 208.986V204.689C292.323 203.986 291.745 203.411 291.03 203.411H284.363C283.648 203.411 283.07 203.986 283.07 204.689V208.986Z" fill="#FC9774"/>
<path fill-rule="evenodd" clip-rule="evenodd" d="M241.738 208.986C241.738 209.698 242.316 210.273 243.022 210.273H249.698C250.413 210.273 250.991 209.698 250.991 208.986V204.689C250.991 203.986 250.413 203.411 249.698 203.411H243.022C242.316 203.411 241.738 203.986 241.738 204.689V208.986Z" fill="#FC9774"/>
<path fill-rule="evenodd" clip-rule="evenodd" d="M209.684 281.711C209.684 285.972 213.159 289.422 217.441 289.422H316.236C320.518 289.422 323.985 285.972 323.985 281.711V212.308C323.985 210.191 322.251 208.457 320.106 208.457H213.562C211.417 208.457 209.684 210.191 209.684 212.308V281.711Z" fill="#F2957D"/>
<path fill-rule="evenodd" clip-rule="evenodd" d="M213.746 212.308H320.299C322.426 212.308 324.168 214.042 324.168 216.168V239.29C324.168 247.813 317.227 254.711 308.671 254.711H272.643V258.662C272.643 261.865 270.039 264.456 266.83 264.456C263.62 264.456 261.016 261.865 261.016 258.662V254.711H225.373C216.809 254.711 209.867 247.803 209.867 239.29V216.168C209.867 214.042 211.609 212.308 213.746 212.308Z" fill="#F37E60"/>
<path fill-rule="evenodd" clip-rule="evenodd" d="M209.867 235.439C209.867 243.953 216.818 250.86 225.373 250.86H308.671C317.227 250.86 324.168 243.953 324.168 235.439V212.308C324.168 210.191 322.426 208.457 320.299 208.457H213.746C211.609 208.457 209.867 210.191 209.867 212.308V235.439Z" fill="#FFAA94"/>
<path fill-rule="evenodd" clip-rule="evenodd" d="M261.016 254.82C261.016 258.014 263.62 260.605 266.829 260.605C270.039 260.605 272.643 258.014 272.643 254.82V245.604H261.016V254.82Z" fill="#FC9774"/>
<path fill-rule="evenodd" clip-rule="evenodd" d="M262.305 254.446C262.305 256.937 264.331 258.945 266.825 258.945C269.32 258.945 271.346 256.937 271.346 254.446V247.283H262.305V254.446Z" fill="#FFE2DC"/>
<path d="M272.09 250.896H262.141V252.439H272.09V250.896Z" fill="#FC9774"/>
<path d="M293.292 132.009H248.141V155.797H293.292V132.009Z" fill="white"/>
<path d="M293.292 162.595H248.141V172.806H293.292V162.595Z" fill="white"/>
<path fill-rule="evenodd" clip-rule="evenodd" d="M272.1 134.5C271.174 133.04 270.339 131.982 269.578 131.343C273.163 129.4 275.153 127.274 275.557 124.956C276.079 125.412 276.529 125.969 276.886 126.617C275.548 129.783 273.961 132.411 272.1 134.5Z" fill="#5EB69B"/>
<path fill-rule="evenodd" clip-rule="evenodd" d="M267.06 134.5C267.986 133.04 268.821 131.982 269.591 131.343C265.996 129.4 264.007 127.274 263.603 124.956C263.08 125.412 262.64 125.969 262.273 126.617C263.612 129.783 265.208 132.411 267.06 134.5Z" fill="#5EB69B"/>
<path fill-rule="evenodd" clip-rule="evenodd" d="M298.81 137.566C294.941 132.228 287.632 128.587 276.894 126.625C275.556 129.792 273.969 132.42 272.108 134.509C271.182 133.049 270.347 131.991 269.586 131.352C268.825 131.991 267.981 133.049 267.055 134.509C265.203 132.429 263.608 129.792 262.269 126.625C251.54 128.587 244.223 132.228 240.353 137.566C237.391 146.198 235.429 153.033 234.484 158.088C237.63 158.754 241.252 159.557 245.341 160.46C244.791 170.196 244.654 178.518 244.92 185.426C250.651 187.087 258.647 190.034 268.174 194.012C268.66 193.994 269.137 193.967 269.586 193.939C270.026 193.967 270.503 193.994 270.998 194.012C280.535 190.043 288.522 187.087 294.253 185.426C294.519 178.527 294.372 170.196 293.831 160.46C297.93 159.548 301.543 158.754 304.679 158.088C303.734 153.033 301.772 146.198 298.81 137.566Z" fill="#7FCBB4"/>
<path fill-rule="evenodd" clip-rule="evenodd" d="M292.109 144.145C292.861 149.027 293.439 154.465 293.824 160.46C294.338 160.351 294.851 160.232 295.355 160.123C294.686 156.409 293.604 151.089 292.109 144.145Z" fill="#5EB69B"/>
<path fill-rule="evenodd" clip-rule="evenodd" d="M247.059 144.145C246.307 149.027 245.729 154.465 245.344 160.46C244.83 160.351 244.317 160.232 243.812 160.123C244.482 156.409 245.564 151.089 247.059 144.145Z" fill="#5EB69B"/>
<path fill-rule="evenodd" clip-rule="evenodd" d="M291.794 204.488C292.95 207.407 290.822 212.134 289.383 213.074C263.157 210.455 246.78 206.787 236.666 201.695C233.658 200.044 228.395 199.332 225.194 197.215C217.446 189.085 223.25 178.409 230.935 178.929C236.308 179.96 238.839 181.493 241.379 184.513C250.576 186.594 269.283 193.994 291.785 204.488H291.794Z" fill="#CDDBB5"/>
<path fill-rule="evenodd" clip-rule="evenodd" d="M319.692 208.84C320.746 215.967 311.806 217.098 293.43 213.996C301.16 211.45 302.177 209.214 296.428 205.637C312.42 202.754 319.719 202.781 319.692 208.84ZM219.466 208.84C218.412 215.967 227.352 217.098 245.738 213.996C238.008 211.45 236.99 209.214 242.748 205.637C226.756 202.754 219.448 202.781 219.476 208.84H219.466Z" fill="#9BB174"/>
<path fill-rule="evenodd" clip-rule="evenodd" d="M289.723 212.791C291.264 213.083 292.502 213.485 293.428 214.005C301.158 211.459 302.176 209.224 296.427 205.647C295.115 205.711 293.639 205.537 291.988 205.145C292.594 207.818 291.016 211.523 289.723 212.791ZM249.441 212.791C247.891 213.083 246.653 213.485 245.727 214.005C237.997 211.459 236.979 209.224 242.738 205.647C244.04 205.711 245.516 205.537 247.167 205.145C246.571 207.818 248.139 211.523 249.441 212.791Z" fill="#F1BBA2"/>
<path fill-rule="evenodd" clip-rule="evenodd" d="M303.731 174.358C304.364 169.211 304.208 163.901 303.255 158.389C300.87 158.909 298.23 159.493 295.359 160.132C294.864 160.242 294.351 160.36 293.828 160.47C294.351 169.914 294.507 178.017 294.268 184.787C298.963 181.019 302.118 177.542 303.722 174.358H303.731Z" fill="#F1BBA2"/>
<path fill-rule="evenodd" clip-rule="evenodd" d="M235.428 174.358C234.796 169.211 234.961 163.901 235.905 158.389C238.289 158.909 240.93 159.493 243.809 160.132C244.305 160.242 244.827 160.36 245.341 160.47C244.809 169.914 244.662 178.017 244.901 184.787C240.197 181.019 237.042 177.542 235.437 174.358H235.428Z" fill="#F1BBA2"/>
<path fill-rule="evenodd" clip-rule="evenodd" d="M296.549 172.989C296.512 169.312 296.366 164.959 296.146 159.94C295.889 159.995 295.614 160.05 295.357 160.123C294.862 160.232 294.348 160.351 293.826 160.461C294.147 166.282 294.339 171.593 294.376 176.402C294.798 175.909 295.302 175.325 295.88 174.668C297.503 173.974 299.126 173.637 300.758 173.646C298.878 173.071 297.484 172.861 296.558 172.998L296.549 172.989ZM242.603 172.989C242.649 169.312 242.787 164.959 243.007 159.94C243.273 159.995 243.53 160.05 243.796 160.123C244.291 160.232 244.813 160.351 245.327 160.461C245.006 166.282 244.813 171.593 244.777 176.402C244.346 175.909 243.851 175.325 243.282 174.668C241.65 173.974 240.027 173.637 238.395 173.646C240.274 173.071 241.668 172.861 242.594 172.998L242.603 172.989Z" fill="#CF9980"/>
<path fill-rule="evenodd" clip-rule="evenodd" d="M245.616 163.125H293.537C293.986 163.125 294.362 163.499 294.362 163.955V185.399C288.64 187.05 280.617 190.007 271.053 193.985H268.082C258.518 190.016 250.494 187.05 244.781 185.399V163.955C244.781 163.499 245.157 163.125 245.607 163.125H245.616Z" fill="#F5F5F5"/>
<path fill-rule="evenodd" clip-rule="evenodd" d="M247.023 186.065C252.525 187.78 259.714 190.49 268.096 193.976L268.169 194.012L268.747 193.976H270.415L270.993 194.012C279.402 190.508 286.628 187.798 292.148 186.065V168.353C288.993 172.323 282.74 175.607 274.716 177.569C274.753 177.834 274.771 178.099 274.771 178.381C274.771 181.228 272.451 183.537 269.59 183.537C267.023 183.537 264.895 181.685 264.473 179.239C262.163 179.449 259.779 179.559 257.339 179.559C253.763 179.559 250.297 179.321 247.023 178.892V186.074V186.065Z" fill="#DCDCDC"/>
<path fill-rule="evenodd" clip-rule="evenodd" d="M264.567 100.812C267.795 105.283 272.921 109.206 279.954 112.601C278.203 117.829 275.553 122.948 269.748 123.897C264.191 123.012 261.12 119.016 259.863 113.349C262.843 110.046 264.411 105.867 264.567 100.812Z" fill="#F1BBA2"/>
<path fill-rule="evenodd" clip-rule="evenodd" d="M285.624 103.649C285.624 94.8256 278.361 87.6079 269.503 87.6079C260.645 87.6079 253.383 94.8256 253.383 103.649V128.889C256.024 127.976 258.986 127.228 262.259 126.626C262.626 125.978 263.075 125.421 263.589 124.965C263.983 127.283 265.973 129.409 269.577 131.352C273.162 129.409 275.152 127.283 275.555 124.965C276.078 125.421 276.527 125.978 276.885 126.626C280.103 127.21 283.019 127.949 285.624 128.843V103.649ZM264.57 100.812C267.798 105.283 272.924 109.206 279.957 112.601C278.205 117.829 275.555 122.948 269.751 123.897C264.194 123.012 261.122 119.016 259.866 113.349C262.846 110.046 264.414 105.867 264.57 100.812Z" fill="#5A595A"/>
<path fill-rule="evenodd" clip-rule="evenodd" d="M275.559 124.956C275.155 124.326 274.871 123.213 274.706 121.607C273.367 122.757 271.744 123.569 269.754 123.897C267.425 123.532 265.536 122.611 264.023 121.242C263.978 122.72 263.831 123.952 263.602 124.956C263.996 127.273 265.986 129.4 269.589 131.343C273.175 129.4 275.165 127.273 275.568 124.956H275.559Z" fill="#F1BBA2"/>
<path fill-rule="evenodd" clip-rule="evenodd" d="M274.868 122.821C274.804 122.456 274.749 122.045 274.703 121.607C273.364 122.757 271.741 123.569 269.751 123.897C267.422 123.532 265.533 122.611 264.02 121.242C264.002 121.771 263.974 122.255 263.938 122.72C265.322 123.66 267.284 124.463 269.797 125.12C271.393 124.7 273.08 124.107 274.868 122.821Z" fill="#CF9980"/>
<path fill-rule="evenodd" clip-rule="evenodd" d="M253.383 117.391H260.673L259.738 146.974H256.327L256.969 137.356L255.282 146.974H250.688C252.375 140.039 253.97 124.782 253.383 117.391Z" fill="#5A595A"/>
<path fill-rule="evenodd" clip-rule="evenodd" d="M278.407 117.747L285.229 117.172C285.073 127.785 285.22 140.194 286.421 147.376H282.982L282.716 146.481L282.313 147.376H281.084L280.25 141.198L280.011 147.376H277.48L278.416 117.747H278.407Z" fill="#5A595A"/>
<path fill-rule="evenodd" clip-rule="evenodd" d="M269.591 175.033C271.443 175.033 272.947 176.529 272.947 178.382C272.947 180.234 271.443 181.712 269.591 181.712C267.738 181.712 266.234 180.216 266.234 178.382C266.234 176.547 267.738 175.033 269.591 175.033Z" fill="#BCBCBC"/>
<path fill-rule="evenodd" clip-rule="evenodd" d="M247.371 204.488C246.216 207.407 248.334 212.134 249.783 213.074C276.008 210.455 292.376 206.787 302.49 201.695C305.498 200.044 310.762 199.332 313.962 197.215C321.719 189.085 315.915 178.409 308.222 178.929C302.857 179.96 300.326 181.493 297.777 184.513C288.589 186.594 269.874 193.994 247.38 204.488H247.371Z" fill="#CDDBB5"/>
<path fill-rule="evenodd" clip-rule="evenodd" d="M267.826 193.875C253.485 199.423 242.197 201.659 233.953 200.564C234.962 200.911 235.897 201.276 236.677 201.705C239.317 203.037 242.389 204.269 245.947 205.409C246.341 205.345 246.763 205.254 247.176 205.154C247.231 204.926 247.295 204.707 247.387 204.497C255.346 200.774 262.829 197.452 269.596 194.605C269.119 194.405 268.642 194.213 268.184 194.021C268.156 194.012 268.138 194.003 268.11 193.985C268.028 193.958 267.936 193.921 267.845 193.885L267.826 193.875Z" fill="#A1B57F" fill-opacity="0.709804"/>
<path fill-rule="evenodd" clip-rule="evenodd" d="M292.089 205.756C286.046 207.608 278.636 209.224 269.586 210.62C275.464 211.523 282.038 212.335 289.393 213.074C289.493 213.001 289.613 212.901 289.732 212.791C290.933 211.614 292.364 208.366 292.089 205.756Z" fill="#A1B57F" fill-opacity="0.709804"/>
<path fill-rule="evenodd" clip-rule="evenodd" d="M262.326 99.525C265.077 97.5358 267.231 97.4263 268.781 99.2056C268.919 104.097 267.341 108.038 264.095 111.031C264.921 108.732 264.334 104.89 262.316 99.525H262.326Z" fill="#5A595A"/>
</g>
<rect y="157" width="352" height="261" fill="url(#paint0_linear_2023_1193)"/>
</g>
<defs>
<linearGradient id="paint0_linear_2023_1193" x1="176" y1="152.5" x2="176" y2="418" gradientUnits="userSpaceOnUse">
<stop stop-color="white" stop-opacity="0"/>
<stop offset="1" stop-color="#F8F7DC"/>
</linearGradient>
<clipPath id="clip0_2023_1193">
<rect width="352" height="418" fill="white"/>
</clipPath>
<clipPath id="clip1_2023_1193">
<rect width="348.515" height="243.633" fill="white" transform="translate(10 53.5906)"/>
</clipPath>
</defs>
</svg>
