<svg width="352" height="418" viewBox="0 0 352 418" fill="none" xmlns="http://www.w3.org/2000/svg">
<rect width="352" height="418" fill="#D6F3BA"/>
<path d="M290.418 203.693C250.961 265.126 174.082 287.978 118.687 254.732C63.2958 221.484 50.383 144.741 89.8385 83.3067C129.296 21.8717 206.179 -0.977077 261.572 32.2679C316.966 65.5165 329.879 142.26 290.418 203.693Z" fill="#D6F3BA"/>
<path fill-rule="evenodd" clip-rule="evenodd" d="M243.483 254.926C212.605 252.99 183.395 250.421 151.176 248.61C118.267 246.78 84.6963 245.055 50.5221 243.32C46.363 243.119 35.3805 243.512 40.9867 234.293C40.7951 234.187 47.3692 234.954 47.2542 234.839C46.9955 234.561 46.9188 234.235 47.0434 233.89C47.1584 233.555 47.4651 233.191 48.0113 232.817C58.7351 225.505 69.708 218.087 81.0546 210.794C92.6601 203.358 104.62 196.007 116.829 188.59C117.174 188.369 117.682 188.178 118.276 187.996C118.851 187.833 119.503 187.679 120.26 187.564C120.969 187.449 121.736 187.363 122.55 187.296H122.608C122.388 186.616 122.32 185.868 122.445 185.092L137.913 82.876C138.373 79.8477 141.42 77.471 144.717 77.5477L304.624 81.7931C310.652 83.4319 313.47 84.3519 312.483 90.8494L298.903 180.616L298.338 184.335C297.906 187.373 296.555 189.922 295.731 190.976C294.092 193.104 291.83 193.726 291.083 194.282C289.444 195.48 286.301 194.886 289.54 195.538C289.684 195.586 290.058 195.72 290.383 196.247C290.843 197.023 291.332 204.431 291.16 204.709C290.336 206.051 290.738 205.399 289.962 206.635C289.722 207.028 289.473 207.421 289.233 207.804C286.751 211.801 284.413 215.576 281.48 220.416C276.603 228.428 271.59 236.43 266.483 244.451C266.291 244.729 264.278 248.649 262.803 251.303C260.148 256.066 248.351 255.223 243.483 254.926ZM204.335 218.011L221.086 219.141L221.048 219.103C220.885 219.017 220.703 218.94 220.463 218.873C220.224 218.816 219.946 218.787 219.658 218.768H219.63L204.344 218.011H204.335Z" fill="#9EC166"/>
<path fill-rule="evenodd" clip-rule="evenodd" d="M286.933 195.518L121.515 191.129C118.209 191.043 115.9 188.513 116.369 185.485L131.827 83.2784C132.287 80.25 135.335 77.8638 138.641 77.95L304.049 82.3392C307.365 82.4254 309.675 84.9554 309.205 87.9838L293.747 190.19C293.287 193.218 290.24 195.605 286.933 195.518Z" fill="#C8ED71"/>
<path fill-rule="evenodd" clip-rule="evenodd" d="M282.238 189.375L128.023 185.283C125.004 185.207 122.905 182.907 123.317 180.147L137.108 88.9613C137.529 86.2013 140.318 84.0259 143.327 84.1026L297.552 88.1851C300.571 88.2713 302.669 90.5713 302.257 93.3313L288.467 184.517C288.045 187.277 285.266 189.452 282.247 189.375H282.238Z" fill="#F2FCEF"/>
<path fill-rule="evenodd" clip-rule="evenodd" d="M302.191 93.705L301.808 96.3021L136.457 91.9129L136.85 89.335C137.31 86.3067 139.965 83.9109 143.865 84.0067L296.834 88.0604C300.955 88.1754 302.728 90.1209 302.191 93.7146V93.705Z" fill="#DBFAC3"/>
<path fill-rule="evenodd" clip-rule="evenodd" d="M282.938 91.7404C282.814 92.5933 281.961 93.2546 281.041 93.2162C280.121 93.1971 279.469 92.4975 279.603 91.6542C279.728 90.8108 280.581 90.14 281.511 90.1783C282.431 90.1975 283.073 90.8971 282.938 91.7404ZM294.918 92.0567C294.793 92.9096 293.94 93.5708 293.02 93.5325C292.091 93.5133 291.448 92.8137 291.583 91.9608C291.707 91.1271 292.56 90.4562 293.48 90.485C294.41 90.5042 295.052 91.2133 294.918 92.0567ZM288.928 91.9033C288.803 92.7467 287.951 93.4079 287.031 93.3792C286.101 93.36 285.468 92.6604 285.593 91.8075C285.718 90.9642 286.571 90.2933 287.5 90.3317C288.411 90.3508 289.053 91.06 288.928 91.9033Z" fill="white"/>
<path fill-rule="evenodd" clip-rule="evenodd" d="M130.829 214.053C147.187 215.078 163.383 216.104 179.406 217.158C195.324 218.193 211.089 219.266 226.739 220.339C222.148 224.345 217.586 228.351 213.111 232.338C208.655 236.324 204.227 240.33 199.8 244.317C183.834 243.339 167.648 242.352 151.375 241.404C134.921 240.445 118.284 239.506 101.484 238.567C106.199 234.494 110.981 230.402 115.85 226.329C120.728 222.227 125.749 218.145 130.838 214.053H130.829Z" fill="#FEFEFE"/>
<path fill-rule="evenodd" clip-rule="evenodd" d="M239.775 254.686C208.888 252.75 177.234 250.776 144.89 249.032C111.847 247.249 77.9888 245.764 43.508 244.231C38.4863 244.01 37.6621 239.295 41.6871 233.718C80.2217 235.261 117.99 236.708 154.905 238.567C190.928 240.388 226.118 242.496 260.446 244.547C253.364 250.422 244.183 254.954 239.784 254.686H239.775Z" fill="#9EC166"/>
<path fill-rule="evenodd" clip-rule="evenodd" d="M286.285 194.876C259.231 193.621 231.88 192.375 204.137 191.177C176.038 189.97 147.585 188.82 118.778 187.66C118.021 187.631 117.235 187.641 116.468 187.689C115.654 187.756 114.897 187.833 114.187 187.957C113.421 188.072 112.779 188.226 112.194 188.398C111.59 188.58 111.102 188.772 110.757 188.983C98.5474 196.41 86.5874 203.751 74.9915 211.187C63.6353 218.48 52.672 225.898 41.9482 233.219C41.3924 233.593 41.0857 233.948 40.9803 234.293C40.8557 234.628 40.9324 234.954 41.1911 235.232C41.4595 235.51 41.9003 235.74 42.5328 235.922C43.1557 236.104 43.9415 236.229 44.8903 236.267H44.9095C81.2111 238.021 116.88 239.774 151.831 241.662C186.091 243.502 219.623 245.476 252.408 247.47C253.27 247.518 254.114 247.479 254.928 247.364C255.772 247.259 256.577 247.067 257.286 246.828C257.995 246.598 258.675 246.31 259.174 245.965C259.758 245.62 260.151 245.256 260.439 244.844C265.547 236.823 270.549 228.801 275.417 220.809C280.295 212.797 285.307 204.786 290.281 196.774C290.454 196.534 290.444 196.314 290.3 196.103C290.137 195.892 289.917 195.701 289.543 195.528C289.179 195.356 288.7 195.212 288.163 195.097C287.607 195.001 287.004 194.905 286.294 194.876H286.285ZM111.734 237.982C111.389 237.963 111.073 237.915 110.814 237.839C110.574 237.771 110.392 237.676 110.297 237.561C110.153 237.455 110.105 237.321 110.105 237.187C110.134 237.043 110.21 236.909 110.392 236.756C118.308 229.932 126.387 223.099 134.686 216.257C134.811 216.142 135.022 216.027 135.261 215.931C135.529 215.835 135.779 215.749 136.095 215.691C136.411 215.624 136.727 215.576 137.092 215.538C137.408 215.509 137.753 215.5 138.088 215.509C150.853 216.104 163.561 216.707 176.163 217.321C188.688 217.924 201.156 218.547 213.557 219.151H213.586C213.873 219.17 214.161 219.209 214.4 219.266C214.64 219.324 214.822 219.391 214.975 219.496C215.119 219.582 215.196 219.678 215.215 219.793C215.215 219.908 215.215 220.023 215.09 220.148C212.081 223.684 209.062 227.23 206.139 230.776C203.197 234.302 200.255 237.848 197.361 241.375C197.256 241.519 197.045 241.681 196.805 241.806C196.566 241.931 196.297 242.046 195.991 242.132C195.684 242.218 195.339 242.285 194.994 242.333C194.659 242.371 194.294 242.391 193.978 242.362C180.533 241.624 166.992 240.857 153.335 240.148C139.574 239.42 125.716 238.682 111.744 237.973L111.734 237.982Z" fill="#C8ED71"/>
<path fill-rule="evenodd" clip-rule="evenodd" d="M208.008 220.243H207.98C196.968 219.697 185.909 219.151 174.831 218.614C163.695 218.078 152.444 217.541 141.155 217.004C140.887 216.985 140.571 217.004 140.283 217.014C139.996 217.043 139.708 217.091 139.44 217.158C139.152 217.215 138.893 217.282 138.683 217.378C138.472 217.464 138.29 217.56 138.165 217.666C130.776 223.741 123.551 229.808 116.468 235.864C116.344 235.989 116.238 236.123 116.238 236.238C116.181 236.363 116.258 236.478 116.363 236.573C116.468 236.669 116.622 236.756 116.833 236.813C117.072 236.871 117.331 236.928 117.647 236.928C130.048 237.57 142.353 238.212 154.601 238.854C166.733 239.496 178.808 240.158 190.787 240.819C191.084 240.828 191.42 240.819 191.707 240.79C192.023 240.752 192.292 240.685 192.579 240.608C192.848 240.531 193.097 240.426 193.308 240.311C193.547 240.206 193.681 240.071 193.806 239.937C198.914 233.67 204.079 227.402 209.321 221.125C209.398 221.02 209.446 220.905 209.417 220.809C209.398 220.703 209.341 220.617 209.216 220.531C209.111 220.464 208.928 220.397 208.708 220.339C208.526 220.282 208.267 220.243 208.008 220.234V220.243Z" fill="#FEFEFE"/>
<path fill-rule="evenodd" clip-rule="evenodd" d="M262.092 196.601C259.073 196.458 256.064 196.314 253.026 196.18C252.921 196.18 252.825 196.18 252.681 196.189C252.605 196.189 252.528 196.208 252.394 196.228C252.317 196.247 252.24 196.275 252.154 196.304C252.106 196.323 252.049 196.362 252.03 196.4C251.637 196.86 251.272 197.33 250.908 197.79C250.88 197.818 250.88 197.857 250.88 197.885C250.908 197.924 250.927 197.943 250.995 197.972C251.042 198 251.09 198.029 251.196 198.039C251.272 198.058 251.378 198.068 251.512 198.068C254.55 198.221 257.588 198.374 260.626 198.508C260.75 198.508 260.865 198.508 260.971 198.499C261.095 198.48 261.153 198.47 261.258 198.451C261.373 198.441 261.45 198.413 261.517 198.384C261.575 198.355 261.622 198.317 261.661 198.288C261.996 197.818 262.36 197.349 262.734 196.879V196.774C262.734 196.774 262.657 196.716 262.629 196.697C262.581 196.668 262.504 196.64 262.418 196.63C262.341 196.611 262.226 196.601 262.102 196.592L262.092 196.601ZM141.754 191.417C138.371 191.263 135.017 191.1 131.663 190.938C131.327 190.985 130.982 191.024 130.666 191.053C129.909 191.532 129.181 192.001 128.414 192.48C128.567 192.576 128.73 192.672 128.912 192.758C132.142 192.902 135.362 193.036 138.611 193.161C139.004 193.094 139.397 193.017 139.818 192.94C141.649 191.666 141.965 191.551 141.764 191.417H141.754ZM266.912 217.713C263.846 217.541 260.75 217.388 257.684 217.234C257.607 217.225 257.492 217.225 257.415 217.234C257.3 217.234 257.252 217.253 257.147 217.282C257.07 217.301 257.003 217.32 256.946 217.349C256.927 217.378 256.84 217.416 256.821 217.445C256.428 217.991 256.093 218.518 255.719 219.045C255.7 219.084 255.7 219.122 255.7 219.151C255.7 219.189 255.748 219.218 255.796 219.256C255.825 219.285 255.901 219.304 255.949 219.323C256.026 219.343 256.141 219.352 256.217 219.362C259.303 219.525 262.447 219.688 265.552 219.841C265.628 219.85 265.734 219.85 265.81 219.831C265.916 219.831 266.002 219.812 266.079 219.793C266.155 219.774 266.203 219.755 266.28 219.716C266.328 219.688 266.357 219.649 266.405 219.611C266.75 219.093 267.085 218.547 267.43 218.01C267.449 217.972 267.449 217.943 267.449 217.895C267.43 217.867 267.43 217.828 267.382 217.8C267.325 217.78 267.267 217.761 267.162 217.742C267.114 217.723 267.008 217.713 266.903 217.713H266.912ZM256.534 215.001C256.61 215.011 256.716 215.02 256.773 215.04C256.85 215.059 256.898 215.078 256.955 215.097C256.984 215.126 257.013 215.164 257.032 215.203C257.032 215.231 257.032 215.27 257.013 215.298C256.639 215.816 256.275 216.343 255.94 216.86C255.94 216.899 255.863 216.937 255.796 216.956C255.748 216.995 255.671 217.014 255.585 217.033C255.508 217.052 255.432 217.071 255.345 217.071C255.269 217.09 255.163 217.09 255.058 217.09C255.163 217.09 255.25 217.1 255.326 217.11C255.374 217.129 255.422 217.158 255.47 217.186C255.527 217.215 255.547 217.234 255.527 217.273C255.575 217.301 255.575 217.34 255.527 217.368C255.163 217.915 254.77 218.442 254.425 218.978C254.406 219.017 254.377 219.045 254.301 219.084C254.253 219.113 254.176 219.141 254.09 219.16C254.013 219.18 253.898 219.199 253.822 219.208C253.716 219.218 253.611 219.218 253.534 219.218C250.42 219.055 247.295 218.883 244.181 218.729C244.075 218.729 243.999 218.71 243.884 218.7C243.836 218.681 243.788 218.653 243.73 218.624C243.711 218.605 243.654 218.566 243.654 218.538V218.432C244.047 217.905 244.44 217.378 244.871 216.841C244.89 216.803 244.947 216.774 244.995 216.745C245.043 216.707 245.12 216.688 245.197 216.669C245.273 216.65 245.36 216.63 245.465 216.621C245.561 216.621 245.647 216.611 245.724 216.621C245.647 216.611 245.561 216.592 245.513 216.583C245.407 216.573 245.36 216.544 245.312 216.515C245.283 216.487 245.254 216.458 245.235 216.439C245.235 216.4 245.206 216.372 245.254 216.333C245.647 215.816 246.04 215.298 246.404 214.771C246.433 214.733 246.481 214.704 246.548 214.675C246.625 214.656 246.672 214.628 246.749 214.608C246.855 214.589 246.931 214.57 247.008 214.57C247.085 214.56 247.2 214.56 247.305 214.56C250.362 214.714 253.429 214.877 256.534 215.02V215.001ZM245.762 216.602C248.848 216.765 251.962 216.928 255.067 217.1L245.762 216.602ZM255.067 217.1L245.762 216.602C248.848 216.765 251.962 216.928 255.067 217.1ZM242.964 216.468C239.84 216.305 236.725 216.151 233.601 215.988C233.505 215.988 233.39 215.988 233.313 215.988C233.208 216.008 233.122 216.017 233.026 216.036C232.968 216.055 232.882 216.084 232.815 216.113C232.757 216.132 232.738 216.17 232.671 216.218C232.259 216.736 231.828 217.273 231.416 217.79C231.387 217.828 231.358 217.867 231.387 217.895C231.387 217.934 231.416 217.963 231.464 217.982C231.492 218.01 231.54 218.039 231.646 218.058C231.694 218.078 231.809 218.078 231.885 218.087C235.029 218.24 238.172 218.413 241.344 218.566C241.44 218.576 241.526 218.566 241.632 218.557C241.727 218.557 241.785 218.538 241.871 218.518C241.967 218.49 242.053 218.47 242.111 218.442C242.159 218.413 242.207 218.375 242.187 218.346C242.6 217.828 243.021 217.292 243.405 216.755C243.433 216.717 243.462 216.678 243.462 216.65C243.433 216.611 243.405 216.583 243.385 216.554C243.309 216.535 243.242 216.515 243.194 216.496C243.117 216.477 243.031 216.468 242.935 216.458L242.964 216.468ZM280.358 197.454C278.94 197.397 277.502 197.33 276.084 197.253C275.978 197.253 275.892 197.253 275.815 197.263C275.71 197.263 275.662 197.272 275.576 197.291C275.499 197.31 275.422 197.33 275.384 197.339C275.365 197.368 275.317 197.397 275.317 197.425C274.943 197.924 274.541 198.441 274.244 198.93C274.215 198.959 274.215 198.988 274.215 199.016C274.263 199.035 274.263 199.064 274.34 199.083C274.368 199.103 274.445 199.122 274.493 199.141C274.57 199.141 274.617 199.16 274.732 199.17C276.141 199.237 277.588 199.313 279.035 199.371C279.141 199.38 279.217 199.371 279.294 199.371C279.371 199.361 279.447 199.352 279.515 199.342C279.582 199.323 279.697 199.304 279.725 199.275C279.773 199.246 279.802 199.227 279.802 199.208C280.166 198.69 280.511 198.192 280.847 197.675C280.875 197.646 280.847 197.617 280.847 197.598C280.818 197.569 280.799 197.55 280.741 197.521C280.722 197.502 280.636 197.483 280.578 197.473C280.511 197.464 280.454 197.454 280.348 197.445L280.358 197.454ZM153.647 191.838C153.772 191.838 153.887 191.838 153.935 191.858C154.011 191.877 154.097 191.905 154.155 191.925C154.174 191.953 154.203 191.973 154.232 192.001C154.203 192.04 154.174 192.068 154.155 192.107C153.542 192.548 152.919 193.008 152.315 193.448C152.257 193.477 152.181 193.515 152.133 193.535C152.056 193.563 151.922 193.592 151.817 193.611C151.711 193.63 151.606 193.65 151.481 193.65C151.405 193.659 151.261 193.659 151.136 193.659C147.897 193.535 144.715 193.391 141.486 193.257C141.361 193.257 141.246 193.257 141.198 193.228C141.093 193.209 141.035 193.19 140.987 193.17C140.959 193.142 140.94 193.113 140.94 193.084C140.911 193.055 140.959 193.017 141.016 192.988C141.639 192.548 142.272 192.097 142.933 191.656C142.981 191.618 143.029 191.599 143.115 191.57C143.192 191.541 143.307 191.522 143.402 191.493C143.546 191.474 143.642 191.465 143.776 191.455C143.872 191.445 144.006 191.445 144.083 191.455C147.284 191.58 150.485 191.714 153.647 191.848V191.838ZM273.832 197.148C273.937 197.148 274.033 197.167 274.119 197.186C274.196 197.205 274.263 197.215 274.33 197.243C274.378 197.272 274.397 197.301 274.435 197.33C274.464 197.358 274.407 197.397 274.435 197.435C274.1 197.905 273.784 198.384 273.42 198.853C273.42 198.882 273.391 198.92 273.305 198.94C273.257 198.978 273.18 198.997 273.065 199.016C272.988 199.035 272.864 199.055 272.777 199.064C272.672 199.074 272.576 199.074 272.461 199.064C269.423 198.92 266.385 198.777 263.338 198.633C263.242 198.633 263.156 198.614 263.05 198.604C262.955 198.585 262.897 198.566 262.849 198.537C262.801 198.508 262.772 198.48 262.734 198.451C262.715 198.422 262.715 198.384 262.763 198.345C263.108 197.885 263.443 197.406 263.788 196.946C263.836 196.908 263.884 196.879 263.942 196.841C264.009 196.812 264.095 196.793 264.172 196.774C264.248 196.755 264.335 196.735 264.44 196.735C264.545 196.726 264.641 196.716 264.785 196.726C267.823 196.87 270.813 197.013 273.822 197.148H273.832ZM125.089 192.912C122.127 192.806 119.166 192.682 116.243 192.557C116.109 192.557 116.004 192.557 115.87 192.567C115.745 192.576 115.63 192.595 115.505 192.615C115.381 192.634 115.266 192.653 115.189 192.682C115.112 192.701 115.036 192.739 114.988 192.778C113.598 193.65 112.237 194.503 110.905 195.365C110.848 195.403 110.8 195.442 110.8 195.47C110.8 195.499 110.8 195.528 110.848 195.557C110.877 195.585 110.953 195.605 111.04 195.624C111.135 195.624 111.241 195.643 111.356 195.653C114.346 195.768 117.355 195.902 120.364 196.017H120.728C120.853 196.007 120.987 195.988 121.092 195.969C121.198 195.95 121.303 195.921 121.409 195.892C121.485 195.873 121.562 195.835 121.61 195.806C122.894 194.934 124.236 194.071 125.568 193.19C125.625 193.161 125.625 193.132 125.625 193.094C125.625 193.065 125.625 193.036 125.568 193.008C125.52 192.988 125.472 192.969 125.367 192.95C125.319 192.931 125.204 192.921 125.098 192.912H125.089ZM205.493 212.625C185.972 211.685 166.23 210.765 146.345 209.865C146.23 209.865 146.105 209.865 145.98 209.874C145.837 209.874 145.741 209.903 145.635 209.922C145.511 209.941 145.396 209.97 145.319 210.008C145.242 210.037 145.137 210.085 145.08 210.123C143.747 211.206 142.435 212.28 141.122 213.353C141.074 213.401 141.045 213.439 141.045 213.478C141.045 213.516 141.074 213.554 141.122 213.583C141.15 213.621 141.198 213.65 141.313 213.669C141.409 213.688 141.524 213.698 141.649 213.708C151.788 214.177 161.908 214.656 171.97 215.135C181.956 215.605 191.913 216.084 201.822 216.573C201.947 216.573 202.062 216.573 202.187 216.573C202.311 216.563 202.388 216.544 202.551 216.515C202.627 216.496 202.742 216.458 202.819 216.429C202.896 216.391 202.972 216.353 203.001 216.305C204.027 215.203 205.052 214.091 206.097 212.979C206.145 212.931 206.173 212.903 206.145 212.855C206.145 212.816 206.097 212.788 206.049 212.749C205.991 212.72 205.943 212.692 205.828 212.673C205.752 212.653 205.617 212.634 205.493 212.634V212.625ZM232.527 213.957C232.633 213.957 232.767 213.957 232.844 213.995C232.949 214.014 233.035 214.043 233.083 214.072C233.131 214.1 233.16 214.139 233.189 214.177C233.189 214.225 233.189 214.263 233.131 214.302C232.211 215.433 231.33 216.554 230.41 217.665C230.381 217.713 230.362 217.752 230.247 217.79C230.17 217.828 230.093 217.857 229.988 217.876C229.882 217.905 229.767 217.924 229.643 217.943C229.537 217.953 229.403 217.953 229.307 217.943C226.241 217.8 223.174 217.646 220.136 217.493C220.012 217.483 219.897 217.474 219.82 217.445C219.743 217.426 219.695 217.397 219.609 217.368C219.552 217.33 219.532 217.292 219.532 217.253C219.504 217.205 219.504 217.167 219.532 217.129C220.472 216.017 221.411 214.905 222.379 213.775C222.436 213.736 222.503 213.698 222.58 213.66C222.637 213.631 222.772 213.593 222.82 213.573C222.896 213.545 223.04 213.525 223.193 213.516C223.299 213.506 223.366 213.506 223.5 213.506C226.519 213.66 229.509 213.813 232.518 213.966L232.527 213.957ZM220.318 213.353C220.424 213.353 220.558 213.353 220.635 213.391C220.75 213.401 220.778 213.439 220.845 213.458C220.922 213.497 220.951 213.525 220.951 213.573C220.951 213.612 220.922 213.66 220.903 213.698C219.954 214.81 218.986 215.921 218.047 217.033C217.999 217.081 217.922 217.129 217.894 217.158C217.769 217.205 217.683 217.225 217.577 217.253C217.482 217.282 217.367 217.301 217.242 217.311C217.117 217.32 217.002 217.32 216.897 217.32C212.92 217.11 208.905 216.918 204.918 216.717C204.793 216.717 204.678 216.698 204.63 216.678C204.525 216.65 204.448 216.63 204.372 216.602C204.343 216.563 204.314 216.525 204.295 216.487C204.295 216.439 204.314 216.4 204.314 216.362C205.34 215.26 206.384 214.139 207.41 213.027C207.429 212.989 207.505 212.95 207.592 212.912C207.668 212.883 207.783 212.855 207.86 212.826C207.956 212.807 208.1 212.788 208.195 212.778C208.339 212.768 208.464 212.759 208.569 212.768C212.46 212.97 216.399 213.161 220.328 213.353H220.318ZM143.307 209.711C143.431 209.711 143.546 209.74 143.623 209.759C143.728 209.778 143.795 209.798 143.834 209.836C143.882 209.865 143.882 209.903 143.91 209.941C143.91 209.98 143.862 210.028 143.834 210.066C142.492 211.139 141.16 212.222 139.818 213.295C139.77 213.343 139.694 213.382 139.617 213.41C139.502 213.449 139.406 213.487 139.301 213.516C139.176 213.535 139.042 213.564 138.937 213.573C138.812 213.583 138.649 213.583 138.544 213.583C134.375 213.391 130.235 213.2 126.095 213.008C125.97 212.998 125.855 212.998 125.76 212.97C125.683 212.95 125.606 212.922 125.549 212.893C125.52 212.864 125.491 212.826 125.491 212.788C125.52 212.749 125.549 212.711 125.606 212.663C126.967 211.599 128.376 210.516 129.794 209.433C129.842 209.395 129.919 209.357 130.034 209.328C130.11 209.29 130.216 209.261 130.35 209.242C130.446 209.223 130.59 209.194 130.714 209.184C130.82 209.184 130.973 209.175 131.107 209.175C135.17 209.366 139.253 209.539 143.326 209.721L143.307 209.711ZM127.945 209.04C124.801 208.897 121.648 208.763 118.515 208.619C118.371 208.619 118.275 208.619 118.122 208.638C117.997 208.638 117.853 208.657 117.729 208.676C117.652 208.695 117.527 208.734 117.441 208.763C117.336 208.801 117.24 208.839 117.173 208.878C115.697 209.951 114.24 211.015 112.803 212.078C112.745 212.117 112.726 212.165 112.697 212.203C112.697 212.241 112.726 212.28 112.774 212.308C112.803 212.347 112.88 212.366 112.985 212.385C113.033 212.414 113.177 212.423 113.301 212.433C116.492 212.567 119.693 212.72 122.885 212.855C123.028 212.855 123.153 212.855 123.277 212.845C123.402 212.826 123.546 212.816 123.67 212.788C123.795 212.768 123.91 212.74 123.987 212.701C124.063 212.673 124.169 212.625 124.226 212.586C125.616 211.523 127.025 210.449 128.443 209.366C128.52 209.318 128.548 209.28 128.52 209.242C128.52 209.203 128.52 209.165 128.472 209.136C128.424 209.108 128.366 209.079 128.27 209.069C128.194 209.04 128.079 209.031 127.954 209.031L127.945 209.04ZM115.371 208.475C115.477 208.485 115.572 208.504 115.659 208.523C115.783 208.533 115.85 208.561 115.898 208.59C115.927 208.628 115.946 208.657 115.946 208.705C115.946 208.743 115.898 208.782 115.87 208.82C114.384 209.893 112.88 210.957 111.442 212.021C111.365 212.059 111.289 212.107 111.183 212.136C111.107 212.174 110.982 212.203 110.867 212.222C110.762 212.251 110.599 212.27 110.474 212.28C110.369 212.289 110.215 212.299 110.081 212.289C106.861 212.145 103.641 212.011 100.412 211.868C100.287 211.858 100.172 211.848 100.095 211.82C99.99 211.81 99.9229 211.781 99.8845 211.743C99.8366 211.714 99.8079 211.676 99.8558 211.638C99.8558 211.599 99.8845 211.561 99.9324 211.513C101.447 210.459 102.999 209.395 104.523 208.341C104.571 208.293 104.647 208.255 104.791 208.226C104.868 208.188 104.964 208.159 105.107 208.14C105.203 208.12 105.366 208.101 105.491 208.082C105.625 208.073 105.73 208.073 105.865 208.082C109.027 208.226 112.199 208.36 115.371 208.485V208.475ZM102.654 207.929C99.4916 207.804 96.2908 207.67 93.0995 207.536C92.9749 207.526 92.86 207.526 92.7354 207.536C92.582 207.555 92.4383 207.565 92.3137 207.593C92.1891 207.613 92.0741 207.641 91.9783 207.67C91.9016 207.708 91.7866 207.747 91.71 207.785C90.1095 208.839 88.5091 209.893 86.9374 210.967C86.8895 211.005 86.832 211.053 86.832 211.091C86.832 211.12 86.8608 211.158 86.88 211.206C86.9279 211.225 86.995 211.254 87.0908 211.273C87.1675 211.293 87.2824 211.312 87.407 211.321C90.6654 211.455 93.8758 211.599 97.1341 211.743C97.2587 211.743 97.3929 211.743 97.527 211.733C97.6516 211.714 97.8145 211.695 97.9199 211.676C98.0829 211.647 98.1595 211.618 98.2554 211.59C98.3608 211.551 98.447 211.513 98.4949 211.475C100.047 210.411 101.59 209.347 103.133 208.293C103.191 208.245 103.21 208.207 103.239 208.168C103.239 208.13 103.21 208.101 103.162 208.063C103.133 208.044 103.047 208.015 102.97 207.986C102.865 207.977 102.788 207.958 102.654 207.948V207.929ZM123.757 204.536C115.582 204.191 107.436 203.856 99.2233 203.511C99.0987 203.501 98.9645 203.501 98.8399 203.511C98.6962 203.511 98.6004 203.54 98.4662 203.559C98.3416 203.578 98.2266 203.607 98.1308 203.635C98.0541 203.674 97.9391 203.712 97.8912 203.75C96.3387 204.757 94.7958 205.753 93.272 206.76C93.2241 206.798 93.1954 206.836 93.1954 206.875C93.1762 206.913 93.1762 206.942 93.2241 206.97C93.272 206.999 93.3487 207.028 93.4349 207.047C93.5116 207.066 93.617 207.076 93.7512 207.085C102.089 207.44 110.426 207.804 118.697 208.159C118.84 208.159 118.965 208.159 119.09 208.159C119.214 208.149 119.358 208.12 119.482 208.101C119.588 208.082 119.722 208.053 119.799 208.025C119.875 207.986 119.981 207.948 120.038 207.9C121.428 206.894 122.808 205.888 124.197 204.872C124.274 204.824 124.303 204.785 124.303 204.757C124.303 204.728 124.303 204.69 124.245 204.651C124.197 204.613 124.15 204.594 124.063 204.575C123.958 204.555 123.862 204.546 123.747 204.536H123.757ZM123.105 200.425C123.21 200.425 123.316 200.444 123.392 200.463C123.469 200.483 123.555 200.502 123.575 200.53C123.632 200.559 123.651 200.588 123.651 200.617C123.651 200.645 123.603 200.693 123.575 200.732C122.195 201.69 120.805 202.658 119.444 203.616C119.387 203.655 119.3 203.693 119.205 203.722C119.128 203.75 119.013 203.77 118.888 203.798C118.764 203.818 118.649 203.837 118.543 203.846C118.419 203.856 118.285 203.856 118.15 203.846C112.075 203.597 105.97 203.338 99.8654 203.089C99.7408 203.08 99.6545 203.06 99.5491 203.051C99.4725 203.032 99.3958 203.013 99.3479 202.984C99.3479 202.955 99.3191 202.917 99.3191 202.888C99.3191 202.85 99.3479 202.811 99.3958 202.783C100.862 201.824 102.338 200.875 103.823 199.927C103.9 199.879 103.977 199.85 104.063 199.821C104.168 199.793 104.264 199.764 104.379 199.745C104.504 199.725 104.647 199.706 104.772 199.697C104.897 199.687 105.04 199.687 105.136 199.687C111.135 199.946 117.135 200.195 123.115 200.435L123.105 200.425ZM136.598 205.102C136.723 205.111 136.857 205.121 136.934 205.14C137.049 205.15 137.097 205.178 137.145 205.207C137.202 205.236 137.202 205.274 137.202 205.313C137.221 205.351 137.173 205.389 137.125 205.428C135.784 206.453 134.452 207.469 133.139 208.485C133.062 208.523 132.985 208.571 132.899 208.6C132.794 208.628 132.698 208.657 132.564 208.686C132.449 208.715 132.343 208.724 132.219 208.734C132.094 208.753 131.95 208.753 131.826 208.743C128.711 208.6 125.539 208.465 122.396 208.331H122.367C122.262 208.322 122.156 208.303 122.051 208.293C121.974 208.264 121.926 208.245 121.878 208.216C121.821 208.178 121.821 208.149 121.821 208.111C121.821 208.073 121.85 208.025 121.897 207.986C123.287 206.98 124.677 205.964 126.066 204.939C126.143 204.91 126.22 204.872 126.306 204.833C126.402 204.795 126.507 204.776 126.593 204.747C126.718 204.728 126.881 204.709 127.005 204.699C127.082 204.69 127.245 204.69 127.322 204.69C130.436 204.824 133.532 204.968 136.598 205.092V205.102ZM148.942 205.648C145.875 205.523 142.808 205.38 139.722 205.245C139.617 205.236 139.483 205.245 139.358 205.255C139.215 205.255 139.119 205.274 138.985 205.293C138.889 205.322 138.783 205.351 138.678 205.38C138.601 205.408 138.525 205.447 138.457 205.495C137.125 206.52 135.784 207.536 134.471 208.552C134.423 208.59 134.394 208.638 134.394 208.667C134.394 208.705 134.423 208.743 134.452 208.782C134.5 208.81 134.576 208.839 134.662 208.858C134.739 208.878 134.845 208.897 134.979 208.897C138.132 209.04 141.246 209.184 144.361 209.318C144.485 209.318 144.648 209.318 144.754 209.318C144.878 209.309 144.993 209.29 145.118 209.261C145.233 209.242 145.329 209.213 145.434 209.175C145.511 209.146 145.587 209.108 145.626 209.069C146.91 208.044 148.194 207.028 149.469 205.993C149.517 205.955 149.545 205.916 149.545 205.878C149.517 205.849 149.517 205.811 149.469 205.782C149.44 205.753 149.363 205.734 149.267 205.715C149.191 205.696 149.076 205.686 148.951 205.677L148.942 205.648ZM161.18 206.194C161.275 206.204 161.41 206.213 161.486 206.233C161.592 206.252 161.64 206.28 161.707 206.309C161.755 206.338 161.783 206.367 161.783 206.405C161.783 206.443 161.755 206.482 161.707 206.52C160.499 207.555 159.292 208.58 158.084 209.606C158.007 209.644 157.96 209.683 157.845 209.721C157.768 209.75 157.662 209.778 157.557 209.807C157.442 209.826 157.317 209.845 157.212 209.855C157.087 209.865 156.953 209.865 156.819 209.855C153.733 209.711 150.619 209.587 147.495 209.443C147.389 209.433 147.255 209.424 147.178 209.405C147.102 209.385 147.015 209.357 146.967 209.328C146.91 209.299 146.891 209.261 146.891 209.223C146.891 209.194 146.939 209.146 146.967 209.108C148.223 208.082 149.488 207.066 150.791 206.031C150.81 205.993 150.887 205.964 150.973 205.926C151.079 205.897 151.165 205.868 151.29 205.849C151.395 205.82 151.529 205.811 151.654 205.792C151.759 205.782 151.893 205.782 151.999 205.792C155.056 205.926 158.122 206.07 161.17 206.194H161.18ZM173.379 206.74C173.494 206.75 173.6 206.769 173.676 206.788C173.782 206.808 173.858 206.827 173.887 206.855C173.916 206.894 173.964 206.923 173.964 206.961C173.964 206.99 173.964 207.038 173.916 207.076C172.727 208.111 171.558 209.155 170.418 210.181C170.399 210.219 170.322 210.248 170.236 210.286C170.13 210.325 170.044 210.353 169.92 210.382C169.814 210.401 169.718 210.411 169.575 210.42C169.45 210.44 169.335 210.44 169.21 210.43C166.125 210.286 163.029 210.152 159.943 210.008C159.8 210.008 159.704 209.989 159.627 209.97C159.522 209.951 159.474 209.932 159.416 209.893C159.359 209.865 159.34 209.836 159.34 209.778C159.34 209.74 159.34 209.702 159.416 209.663C160.595 208.638 161.822 207.603 163.029 206.578C163.077 206.539 163.135 206.501 163.221 206.472C163.317 206.434 163.422 206.405 163.537 206.386C163.662 206.357 163.748 206.348 163.872 206.338C163.997 206.319 164.141 206.319 164.265 206.338C167.303 206.472 170.341 206.616 173.379 206.74ZM185.464 207.296C185.588 207.306 185.732 207.306 185.78 207.335C185.885 207.354 185.933 207.373 185.981 207.411C186.039 207.44 186.058 207.469 186.087 207.517C186.058 207.555 186.058 207.593 186.039 207.632C184.908 208.667 183.806 209.711 182.732 210.746C182.656 210.794 182.608 210.833 182.522 210.861C182.445 210.89 182.33 210.928 182.225 210.948C182.129 210.967 181.985 210.995 181.889 211.005C181.765 211.005 181.65 211.015 181.525 211.005C178.458 210.861 175.392 210.727 172.296 210.583C172.191 210.574 172.057 210.564 171.98 210.545C171.865 210.526 171.788 210.497 171.76 210.468C171.712 210.44 171.683 210.401 171.664 210.363C171.683 210.325 171.683 210.286 171.76 210.238C172.89 209.213 174.05 208.178 175.19 207.143C175.219 207.105 175.296 207.066 175.382 207.038C175.459 206.999 175.583 206.97 175.67 206.951C175.775 206.932 175.909 206.903 176.034 206.894H176.379C179.417 207.038 182.435 207.172 185.445 207.306L185.464 207.296ZM197.5 207.862C197.625 207.862 197.73 207.881 197.807 207.9C197.912 207.919 197.96 207.948 198.047 207.967C198.104 208.005 198.123 208.034 198.123 208.073C198.104 208.111 198.104 208.149 198.075 208.188C197.031 209.232 195.977 210.277 194.961 211.331C194.903 211.369 194.855 211.408 194.769 211.436C194.673 211.475 194.616 211.503 194.453 211.532C194.357 211.551 194.271 211.57 194.137 211.58C194.012 211.59 193.878 211.599 193.772 211.59C190.706 211.455 187.668 211.302 184.592 211.158C184.496 211.158 184.362 211.139 184.285 211.12C184.208 211.101 184.122 211.072 184.065 211.043C184.017 211.015 183.988 210.976 183.988 210.948C183.969 210.9 183.988 210.861 184.045 210.823C185.119 209.788 186.211 208.743 187.323 207.708C187.371 207.66 187.419 207.622 187.505 207.593C187.582 207.565 187.697 207.536 187.802 207.507C187.927 207.478 188.003 207.469 188.137 207.459C188.262 207.45 188.406 207.45 188.502 207.45C191.52 207.603 194.51 207.737 197.5 207.871V207.862ZM209.48 208.418C209.585 208.427 209.71 208.437 209.767 208.456C209.863 208.475 209.949 208.494 210.007 208.533C210.055 208.561 210.083 208.59 210.102 208.638C210.102 208.676 210.083 208.724 210.026 208.763C209.029 209.817 208.061 210.861 207.093 211.906C207.065 211.944 207.017 211.983 206.911 212.021C206.835 212.059 206.748 212.078 206.624 212.107C206.547 212.136 206.422 212.145 206.279 212.155C206.202 212.155 206.077 212.174 205.943 212.155C202.925 212.011 199.887 211.858 196.82 211.724C196.715 211.714 196.609 211.705 196.513 211.685C196.437 211.666 196.37 211.638 196.293 211.609C196.274 211.57 196.245 211.532 196.216 211.503C196.197 211.465 196.216 211.417 196.274 211.379C197.27 210.344 198.315 209.299 199.36 208.235C199.407 208.197 199.465 208.159 199.551 208.13C199.647 208.092 199.733 208.063 199.81 208.044C199.944 208.025 200.05 208.005 200.174 207.996C200.28 207.996 200.414 207.996 200.519 207.996C203.509 208.14 206.499 208.283 209.48 208.418ZM221.382 208.993C218.392 208.849 215.431 208.705 212.46 208.571C212.364 208.561 212.22 208.561 212.125 208.571C212 208.58 211.885 208.6 211.78 208.628C211.684 208.648 211.597 208.676 211.492 208.715C211.463 208.734 211.377 208.772 211.329 208.82C210.332 209.874 209.336 210.919 208.416 211.963C208.339 212.011 208.339 212.05 208.368 212.088C208.339 212.126 208.397 212.165 208.445 212.193C208.492 212.222 208.569 212.241 208.646 212.27C208.722 212.289 208.857 212.299 208.962 212.308C212 212.462 214.99 212.605 218.028 212.749C218.133 212.749 218.267 212.749 218.392 212.74C218.469 212.73 218.603 212.711 218.708 212.692C218.823 212.663 218.9 212.634 218.977 212.586C219.053 212.558 219.101 212.519 219.159 212.471C220.079 211.427 220.989 210.373 221.938 209.318C221.986 209.27 222.015 209.232 221.986 209.194C221.967 209.155 221.938 209.127 221.88 209.088C221.823 209.06 221.746 209.04 221.679 209.012C221.602 209.012 221.487 208.983 221.363 208.983L221.382 208.993ZM233.198 209.568C230.256 209.433 227.305 209.28 224.362 209.136C224.238 209.127 224.104 209.136 223.998 209.136C223.902 209.146 223.797 209.165 223.682 209.184C223.586 209.203 223.5 209.232 223.433 209.27C223.356 209.299 223.308 209.338 223.241 209.385C222.321 210.44 221.411 211.494 220.472 212.548C220.414 212.586 220.414 212.634 220.472 212.663C220.472 212.701 220.491 212.74 220.548 212.768C220.596 212.807 220.673 212.826 220.788 212.855C220.855 212.864 220.941 212.883 221.047 212.893C224.065 213.046 227.075 213.19 230.065 213.334C230.17 213.334 230.304 213.334 230.4 213.324C230.544 213.315 230.668 213.295 230.745 213.276C230.87 213.248 230.956 213.219 231.013 213.19C231.09 213.152 231.157 213.113 231.157 213.065C232.058 212.011 232.94 210.948 233.812 209.884C233.84 209.845 233.86 209.807 233.84 209.769C233.84 209.74 233.783 209.702 233.764 209.663C233.706 209.635 233.62 209.606 233.524 209.587C233.447 209.568 233.332 209.548 233.208 209.548L233.198 209.568ZM244.938 210.143C242.025 209.999 239.092 209.865 236.16 209.721C236.054 209.711 235.958 209.711 235.815 209.721C235.69 209.73 235.575 209.75 235.479 209.778C235.402 209.798 235.316 209.826 235.24 209.855C235.163 209.893 235.077 209.932 235.077 209.98C234.185 211.043 233.323 212.107 232.451 213.161C232.432 213.2 232.403 213.238 232.403 213.286C232.451 213.315 232.48 213.353 232.508 213.391C232.556 213.42 232.633 213.449 232.748 213.468C232.825 213.487 232.93 213.506 233.055 213.506C236.045 213.669 239.035 213.813 241.996 213.966C242.14 213.966 242.235 213.966 242.341 213.957C242.465 213.938 242.542 213.918 242.676 213.899C242.782 213.88 242.868 213.842 242.916 213.813C243.021 213.775 243.069 213.736 243.107 213.698C243.893 212.634 244.756 211.561 245.59 210.497C245.59 210.459 245.59 210.42 245.57 210.382C245.57 210.344 245.542 210.305 245.455 210.277C245.407 210.248 245.35 210.229 245.273 210.2C245.197 210.181 245.062 210.171 244.938 210.162V210.143ZM270.909 211.446C263.271 211.063 255.595 210.679 247.928 210.286C247.784 210.277 247.66 210.286 247.564 210.296C247.458 210.296 247.343 210.325 247.219 210.344C247.142 210.363 247.027 210.401 246.979 210.43C246.902 210.468 246.874 210.497 246.826 210.535C245.982 211.609 245.197 212.673 244.334 213.736V213.861C244.334 213.861 244.411 213.938 244.459 213.966C244.507 213.995 244.564 214.033 244.67 214.043C244.727 214.072 244.852 214.091 244.967 214.091C252.796 214.493 260.607 214.896 268.36 215.289C268.465 215.298 268.599 215.289 268.695 215.289C268.8 215.27 268.915 215.26 269.011 215.231C269.126 215.203 269.174 215.174 269.222 215.145C269.327 215.107 269.375 215.068 269.414 215.03C270.123 213.957 270.832 212.864 271.532 211.781C271.589 211.733 271.56 211.705 271.532 211.666C271.532 211.618 271.484 211.59 271.407 211.561C271.378 211.532 271.33 211.503 271.206 211.484C271.129 211.465 271.052 211.446 270.918 211.436L270.909 211.446ZM135.055 200.943C135.18 200.952 135.314 200.962 135.391 200.981C135.467 201 135.535 201.019 135.554 201.048C135.611 201.077 135.63 201.115 135.659 201.153C135.659 201.182 135.611 201.23 135.554 201.259C134.25 202.227 132.937 203.195 131.625 204.153C131.577 204.182 131.462 204.23 131.414 204.249C131.27 204.287 131.174 204.316 131.097 204.335C130.944 204.354 130.858 204.373 130.733 204.383C130.599 204.393 130.465 204.393 130.34 204.393C127.245 204.268 124.159 204.124 121.064 203.99C120.939 203.99 120.824 203.98 120.747 203.961C120.652 203.942 120.623 203.913 120.565 203.885C120.517 203.856 120.489 203.827 120.46 203.798C120.46 203.76 120.517 203.722 120.565 203.683C121.926 202.715 123.287 201.757 124.677 200.799C124.725 200.751 124.801 200.722 124.878 200.693C124.993 200.665 125.089 200.636 125.194 200.617C125.319 200.588 125.462 200.578 125.558 200.569C125.702 200.559 125.827 200.55 125.922 200.559C128.97 200.703 132.008 200.818 135.046 200.943H135.055ZM147.188 201.46C144.169 201.335 141.131 201.201 138.122 201.067C138.007 201.067 137.882 201.067 137.758 201.077C137.614 201.077 137.518 201.105 137.384 201.125C137.288 201.144 137.173 201.173 137.097 201.201C136.991 201.23 136.934 201.268 136.857 201.307C135.544 202.275 134.241 203.243 132.947 204.201C132.899 204.239 132.87 204.268 132.851 204.306C132.851 204.345 132.899 204.373 132.947 204.412C132.976 204.44 133.024 204.469 133.11 204.479C133.187 204.508 133.33 204.517 133.455 204.517C136.522 204.651 139.579 204.795 142.674 204.929C142.799 204.92 142.914 204.929 143.038 204.92C143.144 204.9 143.278 204.891 143.402 204.862C143.508 204.843 143.623 204.814 143.7 204.785C143.795 204.747 143.853 204.718 143.91 204.68C145.166 203.712 146.421 202.744 147.677 201.767C147.753 201.728 147.753 201.69 147.753 201.652C147.782 201.623 147.734 201.594 147.677 201.565C147.657 201.537 147.581 201.518 147.495 201.498C147.389 201.479 147.303 201.46 147.178 201.46H147.188ZM159.244 201.978C159.368 201.987 159.483 201.997 159.579 202.016C159.637 202.035 159.723 202.054 159.732 202.083C159.79 202.112 159.838 202.14 159.809 202.179C159.838 202.208 159.809 202.246 159.761 202.284C158.554 203.262 157.356 204.239 156.139 205.217C156.12 205.255 156.043 205.284 155.957 205.322C155.88 205.351 155.775 205.38 155.64 205.399C155.535 205.418 155.43 205.447 155.295 205.447C155.171 205.456 155.056 205.456 154.931 205.456C151.865 205.332 148.807 205.188 145.741 205.054C145.635 205.054 145.53 205.035 145.425 205.025C145.348 204.996 145.271 204.977 145.223 204.948C145.195 204.92 145.166 204.881 145.166 204.833C145.166 204.805 145.195 204.766 145.242 204.718C146.479 203.76 147.734 202.783 148.99 201.824C149.018 201.786 149.114 201.748 149.2 201.719C149.277 201.69 149.392 201.661 149.497 201.642C149.622 201.613 149.737 201.604 149.862 201.594C149.986 201.585 150.12 201.575 150.197 201.585C153.245 201.728 156.225 201.853 159.244 201.978ZM171.223 202.514C168.233 202.37 165.243 202.246 162.253 202.121C162.157 202.112 162.013 202.121 161.917 202.121C161.793 202.131 161.649 202.15 161.553 202.169C161.448 202.188 161.333 202.217 161.256 202.246C161.151 202.284 161.103 202.313 161.045 202.351C159.838 203.329 158.659 204.306 157.49 205.274C157.442 205.322 157.413 205.36 157.413 205.389C157.442 205.428 157.442 205.456 157.49 205.495C157.519 205.523 157.595 205.543 157.701 205.562C157.777 205.581 157.883 205.59 157.988 205.6C161.036 205.734 164.093 205.868 167.14 206.003C167.246 206.012 167.37 206.012 167.505 206.003C167.629 205.983 167.744 205.974 167.84 205.955C167.974 205.926 168.06 205.897 168.137 205.868C168.233 205.84 168.281 205.801 168.319 205.763C169.469 204.785 170.629 203.808 171.75 202.821C171.827 202.783 171.827 202.744 171.798 202.715C171.827 202.677 171.779 202.648 171.75 202.62C171.702 202.591 171.645 202.562 171.549 202.553C171.472 202.533 171.357 202.514 171.232 202.514H171.223ZM183.145 203.051C180.183 202.907 177.193 202.783 174.213 202.648C174.107 202.648 173.973 202.648 173.868 202.658C173.762 202.668 173.609 202.687 173.504 202.706C173.427 202.725 173.322 202.754 173.245 202.783C173.14 202.821 173.101 202.85 173.053 202.888C171.894 203.875 170.772 204.853 169.651 205.83C169.594 205.868 169.546 205.907 169.594 205.945C169.575 205.983 169.622 206.012 169.67 206.041C169.699 206.07 169.747 206.098 169.862 206.108C169.958 206.137 170.044 206.146 170.178 206.146C173.187 206.29 176.225 206.424 179.273 206.558C179.369 206.558 179.474 206.558 179.608 206.558C179.733 206.539 179.848 206.53 179.953 206.501C180.059 206.482 180.164 206.453 180.241 206.424C180.337 206.395 180.394 206.348 180.413 206.309C181.487 205.332 182.589 204.345 183.7 203.358C183.72 203.319 183.748 203.281 183.748 203.252C183.748 203.214 183.7 203.185 183.672 203.156C183.624 203.128 183.566 203.099 183.47 203.089C183.394 203.07 183.279 203.051 183.154 203.051H183.145ZM194.98 203.588C192.057 203.463 189.067 203.329 186.135 203.185C186.029 203.185 185.895 203.185 185.761 203.195C185.665 203.204 185.521 203.223 185.445 203.243C185.349 203.262 185.243 203.29 185.157 203.319C185.08 203.348 185.004 203.386 184.975 203.425C183.873 204.412 182.8 205.399 181.717 206.386C181.697 206.415 181.669 206.463 181.669 206.501C181.669 206.53 181.697 206.568 181.774 206.597C181.793 206.625 181.87 206.645 181.956 206.664C182.033 206.693 182.148 206.693 182.272 206.702C185.262 206.855 188.272 206.98 191.29 207.114C191.415 207.124 191.549 207.124 191.655 207.114C191.76 207.095 191.894 207.085 192 207.066C192.105 207.038 192.21 207.009 192.287 206.98C192.335 206.942 192.412 206.913 192.469 206.865C193.495 205.868 194.52 204.881 195.536 203.885C195.612 203.856 195.612 203.818 195.612 203.779C195.593 203.75 195.536 203.712 195.517 203.683C195.459 203.655 195.373 203.635 195.296 203.616C195.2 203.597 195.114 203.588 194.98 203.578V203.588ZM206.777 204.134C203.864 203.99 200.883 203.865 197.97 203.731C197.845 203.731 197.73 203.731 197.606 203.741C197.481 203.75 197.405 203.76 197.29 203.779C197.165 203.808 197.079 203.827 196.973 203.865C196.897 203.894 196.849 203.923 196.82 203.971C195.804 204.958 194.779 205.945 193.763 206.942C193.734 206.98 193.705 207.018 193.705 207.057C193.705 207.095 193.763 207.133 193.811 207.162C193.859 207.191 193.916 207.22 194.022 207.229C194.098 207.258 194.213 207.268 194.309 207.277C197.299 207.421 200.289 207.565 203.279 207.699C203.404 207.689 203.538 207.689 203.643 207.689C203.758 207.67 203.883 207.66 203.988 207.632C204.084 207.603 204.17 207.584 204.276 207.555C204.352 207.517 204.4 207.478 204.429 207.44C205.397 206.453 206.394 205.456 207.362 204.46C207.39 204.421 207.419 204.383 207.39 204.345C207.39 204.306 207.342 204.278 207.314 204.249C207.237 204.23 207.189 204.201 207.074 204.182C206.997 204.163 206.892 204.153 206.787 204.143L206.777 204.134ZM218.488 204.67C215.594 204.546 212.623 204.412 209.738 204.268C209.614 204.258 209.48 204.258 209.403 204.278C209.259 204.287 209.163 204.297 209.058 204.316C208.943 204.345 208.866 204.364 208.77 204.402C208.713 204.431 208.665 204.46 208.646 204.498C207.649 205.504 206.672 206.501 205.713 207.488C205.665 207.536 205.665 207.574 205.685 207.603C205.685 207.641 205.713 207.68 205.761 207.708C205.819 207.747 205.867 207.775 205.982 207.785C206.058 207.814 206.164 207.823 206.288 207.823C209.259 207.967 212.22 208.111 215.21 208.245C215.306 208.255 215.45 208.255 215.575 208.245C215.651 208.245 215.776 208.216 215.891 208.197C215.967 208.168 216.102 208.14 216.15 208.101C216.226 208.073 216.293 208.034 216.303 207.996C217.223 206.999 218.172 206.003 219.082 204.996C219.101 204.958 219.13 204.92 219.101 204.891C219.101 204.853 219.082 204.814 219.034 204.785C218.977 204.766 218.919 204.738 218.814 204.718C218.737 204.699 218.632 204.69 218.497 204.68L218.488 204.67ZM230.16 205.226C230.285 205.236 230.39 205.245 230.467 205.265C230.572 205.284 230.62 205.313 230.687 205.332C230.735 205.36 230.764 205.399 230.764 205.437C230.783 205.475 230.783 205.514 230.735 205.552C229.873 206.568 228.982 207.565 228.138 208.571C228.11 208.609 228.014 208.648 227.975 208.676C227.87 208.715 227.793 208.734 227.688 208.763C227.582 208.791 227.496 208.801 227.4 208.81C227.257 208.82 227.132 208.82 227.027 208.82C224.046 208.676 221.075 208.542 218.152 208.398C218.076 208.389 217.961 208.37 217.865 208.35C217.788 208.341 217.712 208.312 217.645 208.283C217.597 208.255 217.568 208.216 217.549 208.188C217.549 208.149 217.549 208.101 217.568 208.063C218.488 207.066 219.398 206.07 220.318 205.073C220.376 205.025 220.424 204.987 220.472 204.968C220.577 204.929 220.663 204.9 220.769 204.881C220.865 204.862 220.98 204.843 221.075 204.833C221.181 204.824 221.315 204.824 221.42 204.833C224.334 204.977 227.257 205.102 230.151 205.236L230.16 205.226ZM241.737 205.782C241.833 205.792 241.938 205.801 242.025 205.82C242.101 205.84 242.216 205.868 242.264 205.897C242.312 205.926 242.341 205.955 242.341 205.993C242.37 206.022 242.37 206.06 242.312 206.098C241.507 207.114 240.692 208.12 239.907 209.127C239.849 209.175 239.801 209.213 239.725 209.242C239.648 209.28 239.6 209.299 239.485 209.328C239.36 209.357 239.274 209.366 239.15 209.376C239.044 209.385 238.91 209.385 238.805 209.385C235.872 209.242 232.901 209.098 229.978 208.954C229.873 208.954 229.787 208.935 229.691 208.916C229.614 208.897 229.547 208.878 229.47 208.839C229.422 208.82 229.403 208.782 229.403 208.734C229.375 208.695 229.375 208.657 229.403 208.619C230.295 207.613 231.128 206.616 232 205.6C232.02 205.562 232.096 205.523 232.154 205.495C232.23 205.466 232.307 205.437 232.422 205.418C232.527 205.389 232.614 205.38 232.738 205.37C232.844 205.36 232.978 205.36 233.074 205.37C235.968 205.504 238.872 205.648 241.756 205.773L241.737 205.782ZM273.63 207.354C273.726 207.354 273.841 207.373 273.918 207.392C274.023 207.411 274.081 207.44 274.157 207.459C274.205 207.498 274.234 207.536 274.234 207.565C274.282 207.603 274.263 207.641 274.205 207.68C273.582 208.705 272.873 209.73 272.212 210.756C272.212 210.785 272.135 210.833 272.059 210.871C272.011 210.909 271.934 210.938 271.829 210.957C271.771 210.976 271.675 210.995 271.532 211.015H271.196C265.35 210.718 259.505 210.42 253.64 210.123C253.563 210.114 253.4 210.114 253.352 210.085C253.247 210.066 253.16 210.047 253.112 210.008C253.055 209.98 253.036 209.941 253.036 209.903C253.007 209.874 253.007 209.836 253.036 209.788C253.764 208.782 254.521 207.766 255.317 206.74C255.345 206.702 255.393 206.673 255.441 206.635C255.518 206.606 255.633 206.578 255.71 206.558C255.786 206.539 255.892 206.52 255.997 206.51C256.122 206.501 256.237 206.501 256.332 206.501C262.13 206.788 267.89 207.076 273.63 207.363V207.354ZM253.266 206.348C253.371 206.348 253.448 206.367 253.553 206.386C253.63 206.405 253.726 206.424 253.755 206.453C253.802 206.491 253.86 206.52 253.879 206.549C253.879 206.587 253.879 206.625 253.86 206.664C253.074 207.68 252.307 208.705 251.55 209.711C251.522 209.75 251.474 209.788 251.359 209.826C251.34 209.855 251.234 209.884 251.157 209.903C251.052 209.922 250.947 209.951 250.822 209.96C250.717 209.97 250.602 209.97 250.506 209.96C247.564 209.817 244.631 209.683 241.727 209.539C241.651 209.529 241.507 209.52 241.44 209.491C241.335 209.481 241.258 209.453 241.22 209.424C241.143 209.385 241.124 209.357 241.095 209.318C241.095 209.28 241.095 209.242 241.124 209.203C241.929 208.197 242.724 207.191 243.558 206.175C243.606 206.137 243.635 206.098 243.711 206.07C243.788 206.031 243.874 206.003 243.97 205.983C244.047 205.964 244.162 205.955 244.286 205.935C244.392 205.935 244.526 205.916 244.631 205.935C247.477 206.079 250.343 206.233 253.247 206.357L253.266 206.348ZM125.51 196.659C125.635 196.668 125.75 196.678 125.827 196.688C125.922 196.707 125.951 196.735 126.009 196.764C126.066 196.783 126.066 196.812 126.066 196.85C126.066 196.879 126.037 196.918 125.99 196.946C124.648 197.866 123.316 198.777 121.974 199.687C121.926 199.725 121.85 199.754 121.773 199.783C121.667 199.821 121.562 199.84 121.457 199.86C121.332 199.888 121.217 199.898 121.092 199.908C120.968 199.917 120.824 199.917 120.728 199.917C115.716 199.706 110.714 199.505 105.711 199.294C105.567 199.294 105.472 199.275 105.366 199.256C105.318 199.246 105.242 199.218 105.203 199.189C105.155 199.16 105.127 199.131 105.155 199.103C105.155 199.064 105.175 199.026 105.232 198.997C106.622 198.096 108.03 197.176 109.477 196.275C109.554 196.237 109.602 196.208 109.717 196.18C109.822 196.151 109.909 196.122 110.033 196.113C110.158 196.084 110.302 196.074 110.397 196.065C110.512 196.055 110.637 196.045 110.762 196.055C115.697 196.266 120.594 196.458 125.52 196.659H125.51ZM137.691 197.167C134.701 197.042 131.72 196.918 128.73 196.793C128.587 196.783 128.491 196.783 128.385 196.793C128.261 196.812 128.146 196.822 128.021 196.841C127.916 196.86 127.81 196.889 127.734 196.918C127.619 196.946 127.571 196.975 127.494 197.023C126.152 197.933 124.82 198.844 123.507 199.754C123.431 199.793 123.431 199.831 123.402 199.86C123.431 199.898 123.46 199.927 123.479 199.965C123.507 199.994 123.584 200.013 123.699 200.032C123.747 200.051 123.862 200.061 123.987 200.07C127.025 200.195 130.062 200.329 133.1 200.444C133.206 200.454 133.34 200.454 133.474 200.444C133.599 200.444 133.704 200.425 133.81 200.406C133.915 200.377 134.049 200.348 134.126 200.32C134.241 200.291 134.289 200.262 134.337 200.214C135.602 199.294 136.915 198.384 138.189 197.464C138.237 197.425 138.237 197.397 138.266 197.358C138.266 197.33 138.237 197.301 138.189 197.272C138.16 197.243 138.084 197.224 137.997 197.205C137.892 197.186 137.815 197.176 137.681 197.176L137.691 197.167ZM149.612 197.665C146.622 197.55 143.632 197.416 140.7 197.291C140.556 197.291 140.432 197.291 140.307 197.301C140.202 197.31 140.067 197.32 139.991 197.339C139.866 197.368 139.751 197.387 139.675 197.416C139.598 197.445 139.521 197.473 139.473 197.521C138.189 198.451 136.924 199.361 135.65 200.281C135.602 200.31 135.573 200.348 135.573 200.387C135.602 200.425 135.621 200.454 135.65 200.483C135.697 200.511 135.755 200.53 135.841 200.55C135.918 200.569 136.042 200.578 136.148 200.588C139.167 200.732 142.185 200.847 145.223 200.971C145.348 200.971 145.472 200.971 145.559 200.962C145.683 200.962 145.827 200.943 145.923 200.923C146.028 200.895 146.143 200.866 146.22 200.847C146.316 200.818 146.402 200.78 146.45 200.741C147.667 199.821 148.865 198.901 150.101 197.972C150.178 197.943 150.197 197.905 150.178 197.876C150.178 197.847 150.149 197.809 150.12 197.77C150.072 197.751 150.015 197.732 149.91 197.713C149.833 197.694 149.727 197.684 149.622 197.675L149.612 197.665ZM161.457 198.173C161.563 198.173 161.64 198.192 161.745 198.211C161.793 198.23 161.87 198.25 161.937 198.278C162.004 198.307 162.004 198.336 162.004 198.374C162.032 198.393 161.985 198.441 161.956 198.47C160.748 199.4 159.598 200.329 158.448 201.259C158.429 201.297 158.343 201.326 158.276 201.355C158.17 201.393 158.055 201.412 157.979 201.431C157.854 201.45 157.72 201.47 157.615 201.489H157.25C154.241 201.364 151.251 201.23 148.261 201.096C148.137 201.096 148.022 201.077 147.916 201.067C147.868 201.048 147.792 201.019 147.734 201C147.705 200.971 147.677 200.933 147.657 200.904C147.677 200.866 147.677 200.828 147.734 200.799C148.942 199.879 150.14 198.959 151.405 198.029C151.452 197.991 151.5 197.962 151.587 197.933C151.663 197.905 151.788 197.885 151.874 197.866C151.98 197.838 152.114 197.828 152.219 197.818C152.344 197.809 152.487 197.799 152.583 197.809C155.545 197.933 158.515 198.068 161.467 198.183L161.457 198.173ZM173.197 198.69C170.265 198.566 167.332 198.432 164.419 198.307C164.294 198.298 164.15 198.298 164.055 198.307C163.911 198.317 163.815 198.336 163.71 198.345C163.614 198.374 163.508 198.403 163.422 198.422C163.317 198.451 163.269 198.489 163.221 198.528C162.061 199.467 160.911 200.387 159.761 201.307C159.713 201.355 159.685 201.383 159.685 201.422C159.685 201.46 159.713 201.479 159.761 201.508C159.809 201.537 159.886 201.556 159.962 201.575C160.02 201.604 160.125 201.613 160.25 201.613C163.24 201.748 166.22 201.882 169.249 202.006C169.345 202.016 169.488 202.006 169.584 202.006C169.728 201.997 169.824 201.978 169.929 201.958C170.025 201.939 170.102 201.91 170.217 201.882C170.293 201.843 170.37 201.815 170.399 201.776C171.491 200.847 172.622 199.917 173.724 198.988C173.772 198.949 173.801 198.911 173.772 198.882C173.801 198.853 173.753 198.825 173.724 198.796C173.676 198.767 173.6 198.748 173.513 198.729C173.437 198.71 173.322 198.69 173.197 198.7V198.69ZM184.937 199.189C185.042 199.198 185.128 199.218 185.224 199.227C185.301 199.246 185.377 199.265 185.425 199.285C185.454 199.313 185.502 199.352 185.502 199.38C185.502 199.419 185.502 199.457 185.454 199.486C184.381 200.425 183.327 201.374 182.292 202.294C182.263 202.323 182.186 202.361 182.1 202.399C182.023 202.428 181.927 202.457 181.812 202.476C181.707 202.505 181.602 202.514 181.467 202.524C181.362 202.533 181.228 202.533 181.132 202.533C178.142 202.409 175.181 202.265 172.229 202.131C172.085 202.131 171.99 202.121 171.913 202.102C171.807 202.083 171.76 202.064 171.692 202.035C171.645 201.997 171.616 201.978 171.645 201.93C171.616 201.901 171.645 201.863 171.692 201.815C172.766 200.904 173.868 199.975 174.999 199.035C175.047 198.997 175.104 198.959 175.19 198.93C175.267 198.911 175.372 198.882 175.449 198.863C175.555 198.834 175.689 198.825 175.794 198.815C175.919 198.805 176.053 198.805 176.158 198.805C179.1 198.93 181.995 199.064 184.937 199.189ZM196.59 199.716C196.667 199.716 196.782 199.735 196.877 199.745C196.954 199.764 197.04 199.783 197.098 199.812C197.117 199.84 197.146 199.879 197.146 199.908C197.175 199.936 197.146 199.975 197.098 200.023C196.101 200.962 195.105 201.901 194.127 202.84C194.079 202.878 193.974 202.917 193.945 202.945C193.83 202.984 193.753 203.003 193.677 203.022C193.552 203.051 193.418 203.07 193.341 203.07C193.197 203.08 193.073 203.089 192.977 203.08C190.006 202.955 187.045 202.83 184.112 202.677C183.978 202.677 183.873 202.658 183.796 202.639C183.72 202.629 183.614 202.6 183.595 202.572C183.537 202.553 183.518 202.514 183.518 202.485C183.49 202.447 183.518 202.409 183.566 202.37C184.611 201.441 185.655 200.511 186.719 199.563C186.738 199.534 186.815 199.505 186.901 199.476C186.978 199.438 187.055 199.419 187.141 199.4C187.265 199.38 187.38 199.361 187.505 199.352C187.61 199.342 187.745 199.342 187.879 199.342C190.763 199.486 193.667 199.61 196.571 199.735H196.6L196.59 199.716ZM208.147 200.224C208.253 200.233 208.358 200.253 208.435 200.272C208.512 200.281 208.588 200.31 208.636 200.339C208.713 200.358 208.713 200.387 208.713 200.425C208.713 200.463 208.713 200.492 208.684 200.53C207.716 201.479 206.777 202.428 205.867 203.358C205.809 203.396 205.752 203.434 205.675 203.463C205.598 203.492 205.512 203.52 205.387 203.54C205.272 203.568 205.177 203.578 205.071 203.588C204.966 203.597 204.832 203.597 204.707 203.597C201.794 203.453 198.804 203.329 195.9 203.195C195.823 203.185 195.689 203.175 195.641 203.156C195.536 203.137 195.45 203.118 195.402 203.08C195.344 203.06 195.296 203.032 195.325 202.993C195.325 202.955 195.325 202.917 195.373 202.888C196.341 201.949 197.337 201.019 198.334 200.07C198.411 200.032 198.459 199.994 198.526 199.965C198.602 199.927 198.679 199.898 198.813 199.888C198.89 199.86 199.005 199.84 199.13 199.821H199.465C202.378 199.946 205.234 200.08 208.147 200.205V200.224ZM219.647 200.76C219.772 200.77 219.887 200.78 219.964 200.789C220.04 200.818 220.127 200.837 220.175 200.856C220.222 200.895 220.251 200.923 220.251 200.971C220.251 201 220.28 201.029 220.251 201.067C219.302 202.025 218.45 202.974 217.577 203.913C217.53 203.952 217.453 203.99 217.376 204.019C217.319 204.048 217.213 204.076 217.137 204.095C217.012 204.115 216.897 204.134 216.772 204.143C216.667 204.153 216.552 204.153 216.427 204.153C213.514 204.028 210.591 203.885 207.707 203.75C207.563 203.741 207.438 203.722 207.39 203.703C207.285 203.693 207.237 203.664 207.17 203.635C207.122 203.607 207.093 203.578 207.065 203.53C207.036 203.501 207.065 203.463 207.141 203.415C208.061 202.476 209 201.537 209.94 200.588C209.968 200.559 210.045 200.521 210.093 200.492C210.17 200.463 210.256 200.435 210.361 200.415C210.457 200.396 210.591 200.377 210.668 200.377C210.773 200.368 210.907 200.358 211.042 200.368C213.888 200.502 216.772 200.636 219.638 200.76H219.647ZM231.119 201.297C231.224 201.297 231.339 201.316 231.416 201.326C231.464 201.345 231.54 201.374 231.627 201.393C231.675 201.422 231.703 201.46 231.703 201.489C231.732 201.527 231.732 201.556 231.675 201.604C230.812 202.562 229.997 203.511 229.192 204.45C229.145 204.488 229.068 204.527 229.001 204.555C228.924 204.584 228.838 204.613 228.742 204.642C228.665 204.661 228.55 204.68 228.426 204.68C228.32 204.699 228.186 204.699 228.081 204.69C225.187 204.565 222.273 204.421 219.379 204.278C219.255 204.278 219.14 204.268 219.063 204.239C218.967 204.23 218.919 204.201 218.862 204.172C218.814 204.153 218.785 204.115 218.785 204.067C218.766 204.028 218.766 204 218.814 203.961C219.676 203.013 220.567 202.064 221.487 201.115C221.516 201.077 221.564 201.038 221.641 201.019C221.717 200.99 221.804 200.962 221.88 200.943C221.986 200.923 222.091 200.904 222.216 200.895C222.292 200.885 222.427 200.885 222.532 200.895C225.417 201.029 228.272 201.163 231.128 201.288L231.119 201.297ZM242.494 201.834C239.667 201.7 236.811 201.565 234.013 201.431C233.869 201.431 233.745 201.431 233.649 201.441C233.543 201.45 233.428 201.47 233.352 201.479C233.227 201.508 233.141 201.527 233.064 201.565C233.035 201.585 232.959 201.623 232.901 201.661C232.096 202.62 231.253 203.578 230.419 204.536C230.39 204.575 230.362 204.613 230.39 204.642C230.39 204.67 230.438 204.709 230.496 204.728C230.544 204.766 230.592 204.795 230.678 204.805C230.783 204.824 230.87 204.843 230.994 204.843C233.879 204.977 236.782 205.121 239.677 205.255H240.012C240.117 205.236 240.223 205.226 240.328 205.207C240.405 205.178 240.482 205.159 240.597 205.121C240.645 205.092 240.692 205.054 240.721 205.015C241.497 204.067 242.293 203.099 243.107 202.14C243.127 202.102 243.155 202.064 243.127 202.025C243.107 201.997 243.05 201.968 243.031 201.939C242.954 201.91 242.887 201.891 242.81 201.872C242.734 201.853 242.628 201.834 242.494 201.834ZM253.85 202.38H253.822C250.985 202.236 248.158 202.112 245.36 201.978C245.283 201.968 245.149 201.968 245.043 201.978C244.919 201.987 244.804 202.006 244.727 202.025C244.631 202.045 244.526 202.073 244.468 202.102C244.411 202.131 244.353 202.16 244.325 202.198C243.548 203.166 242.753 204.124 241.967 205.083C241.919 205.121 241.919 205.159 241.948 205.198C241.967 205.236 241.996 205.255 242.044 205.293C242.101 205.322 242.187 205.341 242.255 205.36C242.302 205.389 242.437 205.389 242.561 205.399C245.417 205.552 248.282 205.686 251.167 205.811C251.292 205.82 251.378 205.82 251.502 205.811C251.608 205.811 251.723 205.782 251.819 205.763C251.895 205.744 251.982 205.715 252.03 205.677C252.106 205.648 252.164 205.61 252.221 205.571C252.95 204.603 253.687 203.645 254.445 202.677C254.473 202.648 254.492 202.61 254.445 202.572C254.445 202.533 254.397 202.514 254.339 202.485C254.32 202.447 254.243 202.428 254.157 202.409C254.08 202.39 253.965 202.38 253.841 202.38H253.85ZM276.208 203.453C273.41 203.329 270.573 203.185 267.823 203.051C267.717 203.041 267.583 203.051 267.507 203.051C267.401 203.06 267.305 203.08 267.162 203.108C267.085 203.128 267.037 203.147 266.96 203.175C266.912 203.214 266.855 203.243 266.797 203.281C266.117 204.249 265.437 205.217 264.727 206.194V206.3C264.727 206.3 264.804 206.367 264.833 206.415C264.881 206.443 264.996 206.463 265.072 206.482C265.178 206.501 265.255 206.52 265.36 206.52C268.187 206.664 271.043 206.808 273.87 206.942C273.975 206.942 274.11 206.942 274.215 206.932C274.32 206.923 274.397 206.903 274.531 206.884C274.608 206.865 274.713 206.836 274.732 206.808C274.809 206.769 274.838 206.74 274.857 206.702C275.518 205.725 276.141 204.757 276.831 203.77V203.664C276.831 203.664 276.774 203.597 276.726 203.559C276.649 203.54 276.572 203.511 276.457 203.501C276.41 203.473 276.304 203.463 276.199 203.453H276.208ZM265.12 202.907C262.293 202.783 259.485 202.639 256.687 202.505C256.582 202.505 256.447 202.505 256.342 202.514C256.237 202.524 256.131 202.543 256.083 202.562C255.94 202.581 255.863 202.61 255.786 202.639C255.738 202.668 255.71 202.696 255.662 202.735C254.933 203.703 254.195 204.67 253.457 205.629C253.429 205.667 253.41 205.705 253.429 205.744C253.457 205.782 253.486 205.811 253.544 205.84C253.592 205.878 253.668 205.888 253.783 205.916C253.86 205.935 253.937 205.945 254.071 205.945C256.898 206.098 259.763 206.233 262.581 206.367C262.734 206.376 262.878 206.376 262.974 206.357C263.05 206.357 263.156 206.338 263.29 206.309C263.367 206.29 263.415 206.261 263.501 206.233C263.558 206.204 263.635 206.165 263.654 206.127C264.335 205.159 265.015 204.182 265.724 203.214C265.724 203.185 265.753 203.147 265.724 203.108C265.724 203.08 265.676 203.041 265.628 203.003C265.571 202.984 265.485 202.955 265.437 202.936C265.331 202.917 265.235 202.907 265.12 202.898V202.907ZM136.847 193.429C136.953 193.429 137.049 193.448 137.164 193.468C137.212 193.487 137.288 193.496 137.355 193.525C137.375 193.554 137.375 193.583 137.403 193.611C137.403 193.64 137.355 193.669 137.327 193.707C136.062 194.589 134.806 195.451 133.522 196.333C133.474 196.362 133.417 196.39 133.34 196.419C133.235 196.448 133.129 196.477 133.024 196.496C132.928 196.515 132.784 196.534 132.66 196.544H132.324C129.305 196.429 126.344 196.304 123.354 196.18C123.23 196.17 123.115 196.16 123.067 196.141C122.961 196.132 122.904 196.103 122.856 196.074C122.827 196.045 122.798 196.017 122.798 195.988C122.798 195.95 122.827 195.921 122.856 195.892C124.159 195.02 125.472 194.167 126.814 193.285C126.862 193.247 126.91 193.218 126.996 193.19C127.14 193.161 127.235 193.142 127.341 193.123C127.446 193.103 127.552 193.094 127.676 193.084C127.81 193.075 127.916 193.065 128.05 193.075C130.982 193.199 133.925 193.314 136.847 193.429ZM148.568 193.908C145.635 193.793 142.722 193.669 139.79 193.544C139.655 193.544 139.55 193.544 139.425 193.554C139.31 193.563 139.186 193.573 139.08 193.602C138.975 193.611 138.879 193.64 138.793 193.669C138.716 193.698 138.64 193.726 138.592 193.755C137.327 194.637 136.062 195.509 134.845 196.381C134.787 196.41 134.768 196.448 134.768 196.477C134.768 196.505 134.787 196.534 134.816 196.563C134.864 196.592 134.921 196.62 135.027 196.63C135.084 196.649 135.18 196.659 135.314 196.668C138.285 196.793 141.265 196.908 144.246 197.033C144.351 197.042 144.485 197.033 144.62 197.033C144.687 197.033 144.821 197.004 144.926 196.985C145.041 196.965 145.166 196.946 145.223 196.918C145.319 196.889 145.396 196.85 145.463 196.812C146.632 195.95 147.84 195.068 149.047 194.186C149.095 194.148 149.114 194.119 149.095 194.09C149.114 194.052 149.095 194.023 149.047 194.004C149.018 193.985 148.942 193.956 148.865 193.937C148.75 193.928 148.673 193.918 148.577 193.908H148.568ZM160.202 194.407C160.317 194.416 160.413 194.416 160.518 194.435C160.566 194.455 160.643 194.474 160.71 194.493C160.758 194.522 160.758 194.55 160.787 194.579C160.787 194.618 160.758 194.646 160.71 194.685C159.55 195.566 158.4 196.438 157.279 197.32C157.222 197.358 157.145 197.387 157.059 197.425C156.982 197.445 156.886 197.473 156.771 197.493C156.675 197.512 156.56 197.531 156.436 197.531C156.292 197.54 156.196 197.54 156.062 197.54C153.101 197.425 150.178 197.291 147.236 197.167C147.111 197.157 146.996 197.148 146.9 197.138C146.824 197.119 146.766 197.09 146.718 197.061C146.67 197.042 146.67 197.013 146.67 196.985C146.642 196.946 146.67 196.918 146.718 196.879C147.897 196.017 149.105 195.135 150.302 194.244C150.35 194.215 150.417 194.177 150.542 194.148C150.619 194.129 150.667 194.11 150.81 194.081C150.906 194.071 151.04 194.052 151.146 194.043C151.27 194.043 151.385 194.033 151.491 194.043C154.385 194.167 157.298 194.292 160.212 194.407H160.202ZM171.817 194.886C168.904 194.771 166.029 194.646 163.115 194.522C162.991 194.522 162.876 194.522 162.751 194.531C162.646 194.531 162.512 194.55 162.435 194.57C162.33 194.589 162.224 194.618 162.147 194.637C162.071 194.665 162.004 194.704 161.956 194.733C160.796 195.624 159.646 196.496 158.525 197.378C158.506 197.406 158.477 197.445 158.477 197.483C158.477 197.512 158.506 197.54 158.554 197.569C158.573 197.588 158.65 197.617 158.736 197.627C158.812 197.646 158.927 197.665 159.052 197.665C161.985 197.79 164.898 197.924 167.859 198.039C167.984 198.039 168.127 198.039 168.223 198.039C168.329 198.029 168.425 198.01 168.54 197.991C168.645 197.972 168.741 197.953 168.827 197.924C168.932 197.895 168.98 197.857 169.019 197.809C170.111 196.927 171.185 196.055 172.325 195.164C172.344 195.125 172.373 195.087 172.344 195.058C172.373 195.03 172.344 195.001 172.296 194.982C172.248 194.953 172.172 194.924 172.105 194.905C172.009 194.895 171.922 194.886 171.817 194.876V194.886ZM183.317 195.384C183.422 195.384 183.537 195.394 183.633 195.413C183.691 195.432 183.758 195.451 183.815 195.47C183.863 195.499 183.892 195.538 183.892 195.566C183.892 195.595 183.863 195.633 183.835 195.662C182.79 196.563 181.745 197.445 180.72 198.326C180.672 198.365 180.595 198.403 180.567 198.422C180.471 198.451 180.365 198.48 180.25 198.499C180.155 198.518 180.049 198.528 179.944 198.537C179.81 198.556 179.675 198.556 179.599 198.547C176.637 198.422 173.734 198.298 170.792 198.173C170.696 198.163 170.581 198.144 170.504 198.135C170.427 198.115 170.341 198.096 170.293 198.068C170.265 198.048 170.245 198.01 170.217 197.981C170.245 197.943 170.245 197.914 170.265 197.866C171.367 196.985 172.469 196.103 173.542 195.212C173.571 195.183 173.676 195.145 173.762 195.116C173.81 195.097 173.925 195.068 174.021 195.049C174.127 195.03 174.222 195.01 174.337 195.01C174.462 195.01 174.606 194.991 174.702 195.01C177.586 195.135 180.471 195.25 183.327 195.384H183.317ZM194.798 195.883C191.942 195.758 189.086 195.633 186.202 195.509C186.077 195.509 185.972 195.509 185.866 195.518C185.761 195.518 185.665 195.538 185.55 195.557C185.425 195.576 185.339 195.605 185.262 195.633C185.186 195.662 185.138 195.681 185.109 195.72C184.065 196.62 183.01 197.502 181.995 198.384C181.966 198.422 181.947 198.46 181.947 198.499C181.966 198.518 181.966 198.556 182.014 198.585C182.042 198.614 182.119 198.633 182.225 198.652C182.301 198.681 182.407 198.69 182.512 198.69C185.425 198.815 188.339 198.949 191.242 199.074C191.338 199.083 191.472 199.083 191.607 199.074C191.702 199.055 191.817 199.045 191.894 199.026C192 199.007 192.105 198.978 192.182 198.959C192.258 198.92 192.345 198.882 192.373 198.853C193.341 197.962 194.338 197.071 195.363 196.17C195.382 196.141 195.382 196.113 195.382 196.074C195.382 196.045 195.335 196.017 195.306 195.988C195.229 195.969 195.181 195.94 195.105 195.921C195.028 195.902 194.913 195.892 194.817 195.892L194.798 195.883ZM206.192 196.39C203.346 196.275 200.51 196.141 197.654 196.017C197.548 196.007 197.424 196.017 197.347 196.017C197.203 196.026 197.107 196.045 197.002 196.065C196.925 196.074 196.791 196.103 196.762 196.132C196.647 196.16 196.6 196.189 196.552 196.228C195.526 197.128 194.558 198.02 193.59 198.911C193.562 198.94 193.562 198.978 193.562 199.016C193.562 199.045 193.59 199.074 193.638 199.103C193.715 199.131 193.763 199.15 193.84 199.16C193.916 199.179 194.031 199.198 194.156 199.198C197.012 199.342 199.896 199.467 202.829 199.591C202.934 199.591 203.068 199.591 203.174 199.582C203.25 199.582 203.413 199.553 203.49 199.534C203.586 199.524 203.672 199.495 203.749 199.467C203.825 199.428 203.912 199.4 203.94 199.361C204.86 198.46 205.771 197.569 206.739 196.659C206.767 196.63 206.767 196.592 206.796 196.553C206.767 196.525 206.739 196.486 206.691 196.467C206.643 196.448 206.566 196.419 206.49 196.4C206.413 196.39 206.298 196.381 206.192 196.371V196.39ZM217.52 196.889C214.683 196.774 211.856 196.64 209.058 196.505C208.933 196.505 208.818 196.505 208.694 196.505C208.579 196.515 208.483 196.534 208.406 196.553C208.33 196.573 208.224 196.601 208.138 196.62C208.09 196.649 208.032 196.678 207.985 196.726C207.036 197.627 206.125 198.528 205.186 199.419C205.157 199.457 205.138 199.486 205.157 199.524C205.138 199.553 205.186 199.591 205.215 199.62C205.282 199.639 205.368 199.668 205.445 199.687C205.522 199.697 205.637 199.706 205.742 199.716C208.627 199.86 211.473 199.984 214.367 200.109C214.492 200.109 214.616 200.109 214.731 200.099C214.837 200.09 214.932 200.07 215.019 200.051C215.143 200.032 215.21 200.013 215.287 199.984C215.335 199.955 215.45 199.917 215.469 199.888C216.341 198.988 217.223 198.087 218.124 197.176C218.143 197.148 218.172 197.109 218.143 197.08C218.143 197.042 218.124 197.013 218.066 196.975C218.018 196.956 217.97 196.927 217.855 196.908C217.779 196.898 217.664 196.889 217.539 196.879L217.52 196.889ZM228.809 197.406C226.011 197.282 223.203 197.157 220.376 197.023C220.232 197.023 220.136 197.023 220.06 197.033C219.935 197.042 219.82 197.052 219.743 197.071C219.638 197.1 219.542 197.119 219.475 197.138C219.398 197.176 219.312 197.215 219.293 197.243C218.392 198.154 217.539 199.045 216.667 199.946C216.638 199.975 216.619 200.013 216.619 200.051C216.638 200.08 216.667 200.118 216.715 200.147C216.772 200.166 216.859 200.195 216.935 200.214C217.031 200.224 217.108 200.233 217.223 200.243C220.079 200.377 222.963 200.511 225.848 200.636H226.135C226.26 200.626 226.404 200.598 226.48 200.588C226.557 200.569 226.662 200.54 226.739 200.511C226.816 200.483 226.883 200.444 226.883 200.415C227.707 199.515 228.56 198.595 229.403 197.694C229.422 197.655 229.451 197.627 229.451 197.579C229.422 197.55 229.375 197.521 229.327 197.502C229.298 197.473 229.221 197.445 229.135 197.435C229.03 197.416 228.924 197.406 228.819 197.397L228.809 197.406ZM240.022 197.914C237.252 197.79 234.444 197.655 231.636 197.531H231.32C231.195 197.54 231.08 197.569 231.004 197.579C230.908 197.598 230.822 197.627 230.764 197.655C230.687 197.675 230.64 197.713 230.582 197.761C229.739 198.662 228.924 199.572 228.09 200.483C228.09 200.511 228.071 200.55 228.071 200.588C228.09 200.607 228.148 200.645 228.148 200.674C228.253 200.693 228.311 200.722 228.407 200.741C228.483 200.751 228.56 200.77 228.694 200.77C231.531 200.914 234.358 201.048 237.214 201.173C237.338 201.173 237.453 201.173 237.53 201.163C237.655 201.163 237.77 201.144 237.865 201.125C237.98 201.105 238.028 201.077 238.105 201.048C238.182 201.01 238.23 200.981 238.268 200.952C239.054 200.042 239.83 199.131 240.606 198.221C240.625 198.183 240.654 198.144 240.654 198.115C240.625 198.087 240.606 198.048 240.549 198.01C240.501 197.991 240.443 197.962 240.338 197.943C240.261 197.943 240.146 197.924 240.022 197.914ZM251.205 198.432C251.311 198.432 251.426 198.451 251.502 198.46C251.579 198.48 251.627 198.508 251.704 198.528C251.732 198.556 251.78 198.585 251.78 198.633C251.828 198.652 251.828 198.69 251.78 198.729C251.052 199.649 250.276 200.559 249.547 201.47C249.576 201.508 249.5 201.546 249.442 201.575C249.375 201.613 249.298 201.642 249.193 201.661C249.116 201.68 249.001 201.69 248.905 201.7C248.771 201.709 248.685 201.719 248.56 201.709C245.676 201.585 242.897 201.441 240.05 201.307C239.945 201.307 239.859 201.288 239.782 201.278C239.686 201.259 239.629 201.23 239.581 201.211C239.533 201.182 239.504 201.144 239.475 201.105C239.475 201.067 239.456 201.038 239.504 201C240.232 200.09 241.057 199.179 241.833 198.269C241.833 198.23 241.91 198.202 241.977 198.173C242.053 198.144 242.13 198.125 242.216 198.106C242.312 198.077 242.417 198.068 242.523 198.058C242.628 198.048 242.743 198.048 242.839 198.058C245.647 198.183 248.426 198.317 251.225 198.441L251.205 198.432ZM278.681 199.735C278.805 199.735 278.892 199.754 278.987 199.764C279.064 199.783 279.15 199.812 279.208 199.831C279.256 199.86 279.285 199.898 279.285 199.927C279.332 199.955 279.304 199.994 279.256 200.032C278.681 200.952 278.048 201.872 277.454 202.802C277.425 202.84 277.397 202.878 277.349 202.907C277.272 202.936 277.186 202.965 277.08 202.984C277.013 203.003 276.898 203.022 276.822 203.022C276.707 203.041 276.582 203.041 276.457 203.032C271.79 202.811 267.075 202.591 262.408 202.351C262.255 202.351 262.207 202.332 262.092 202.313C262.015 202.294 261.967 202.275 261.91 202.246C261.833 202.217 261.805 202.188 261.805 202.16C261.776 202.121 261.776 202.083 261.805 202.045C262.456 201.144 263.165 200.214 263.875 199.285C263.875 199.256 263.875 199.218 263.98 199.179C264.028 199.16 264.133 199.131 264.22 199.112C264.325 199.083 264.373 199.074 264.507 199.074C264.612 199.064 264.727 199.055 264.852 199.064C269.462 199.294 274.081 199.505 278.69 199.725L278.681 199.735ZM262.293 198.959C259.524 198.834 256.773 198.7 253.985 198.566H253.668C253.572 198.575 253.467 198.595 253.352 198.614C253.275 198.633 253.189 198.662 253.141 198.681C253.093 198.71 253.017 198.748 252.988 198.786C252.26 199.706 251.522 200.617 250.812 201.527C250.784 201.565 250.755 201.604 250.755 201.642C250.812 201.661 250.832 201.7 250.899 201.728C250.947 201.757 250.995 201.776 251.1 201.795C251.177 201.815 251.282 201.824 251.387 201.834C254.186 201.978 257.003 202.102 259.821 202.227C259.926 202.236 260.06 202.236 260.166 202.227C260.281 202.217 260.377 202.208 260.453 202.179C260.559 202.16 260.655 202.131 260.722 202.102C260.77 202.073 260.798 202.045 260.846 202.006C261.527 201.086 262.207 200.176 262.887 199.246C262.945 199.208 262.916 199.179 262.887 199.141C262.916 199.112 262.868 199.083 262.811 199.055C262.763 199.026 262.686 199.007 262.61 198.988C262.495 198.968 262.418 198.959 262.293 198.959ZM128.807 190.851C128.903 190.861 129.008 190.861 129.123 190.88C129.171 190.899 129.229 190.918 129.277 190.947C129.334 190.966 129.353 190.985 129.353 191.024C129.334 191.053 129.334 191.081 129.277 191.11C128.577 191.56 127.916 192.011 127.235 192.442C127.216 192.471 127.14 192.509 127.053 192.538C126.948 192.567 126.862 192.586 126.737 192.595C126.612 192.624 126.497 192.634 126.373 192.643C126.267 192.653 126.133 192.653 126.028 192.653C122.789 192.528 119.511 192.394 116.253 192.26C116.157 192.26 116.071 192.241 115.965 192.222C115.889 192.212 115.841 192.193 115.774 192.164C115.726 192.135 115.726 192.107 115.726 192.078C115.726 192.049 115.755 192.02 115.802 191.973C116.512 191.541 117.23 191.091 117.93 190.66C117.987 190.621 118.035 190.602 118.131 190.573C118.246 190.545 118.352 190.516 118.428 190.506C118.534 190.487 118.687 190.468 118.792 190.458C118.917 190.449 119.032 190.458 119.128 190.458C122.357 190.583 125.606 190.708 128.807 190.842V190.851ZM165.962 192.375C162.809 192.25 159.637 192.107 156.474 191.982C156.35 191.982 156.235 191.982 156.11 191.992C156.005 191.992 155.899 192.011 155.794 192.03C155.688 192.049 155.592 192.068 155.506 192.097C155.43 192.116 155.353 192.155 155.315 192.183C154.711 192.634 154.078 193.084 153.484 193.525C153.436 193.554 153.436 193.583 153.407 193.63C153.407 193.659 153.455 193.688 153.484 193.717C153.532 193.745 153.59 193.765 153.685 193.774C153.743 193.793 153.848 193.803 153.982 193.813C157.183 193.947 160.346 194.09 163.547 194.215C163.69 194.215 163.815 194.215 163.911 194.205C164.055 194.196 164.15 194.186 164.256 194.167C164.361 194.138 164.447 194.119 164.524 194.1C164.601 194.071 164.649 194.033 164.725 194.004C165.3 193.544 165.847 193.103 166.45 192.653C166.498 192.624 166.527 192.595 166.527 192.557C166.498 192.538 166.498 192.509 166.45 192.48C166.402 192.452 166.326 192.433 166.268 192.413C166.163 192.413 166.048 192.394 165.952 192.385L165.962 192.375ZM178.19 192.893C178.324 192.893 178.43 192.902 178.487 192.921C178.612 192.921 178.669 192.96 178.717 192.979C178.746 192.998 178.775 193.036 178.794 193.065C178.775 193.094 178.775 193.123 178.746 193.161C178.2 193.602 177.644 194.062 177.069 194.512C177.04 194.55 176.963 194.57 176.915 194.608C176.81 194.637 176.714 194.656 176.628 194.675C176.522 194.685 176.417 194.704 176.283 194.723C176.177 194.723 176.043 194.723 175.967 194.713C172.775 194.589 169.575 194.455 166.402 194.32C166.278 194.311 166.163 194.301 166.086 194.292C166.038 194.273 165.962 194.244 165.904 194.225C165.856 194.196 165.856 194.167 165.827 194.138C165.827 194.11 165.856 194.071 165.904 194.043C166.489 193.602 167.035 193.151 167.639 192.691C167.687 192.663 167.763 192.624 167.821 192.605C167.897 192.576 168.003 192.557 168.118 192.528C168.185 192.519 168.319 192.509 168.425 192.5C168.568 192.49 168.664 192.48 168.798 192.49C171.913 192.634 175.056 192.758 178.2 192.893H178.19ZM190.399 193.4C187.285 193.276 184.132 193.132 180.988 193.008C180.883 192.998 180.758 192.998 180.653 193.008C180.528 193.017 180.413 193.027 180.337 193.046C180.26 193.065 180.155 193.084 180.078 193.113C180.001 193.142 179.915 193.18 179.886 193.218C179.33 193.669 178.784 194.119 178.238 194.57C178.209 194.608 178.18 194.637 178.18 194.665C178.18 194.694 178.209 194.733 178.257 194.752C178.315 194.771 178.362 194.8 178.477 194.819C178.525 194.838 178.621 194.848 178.765 194.848C181.908 194.991 185.109 195.125 188.243 195.25C188.348 195.26 188.482 195.26 188.588 195.25C188.693 195.25 188.827 195.221 188.904 195.212C189 195.193 189.077 195.173 189.163 195.135C189.268 195.106 189.316 195.078 189.345 195.039C189.843 194.598 190.37 194.138 190.917 193.688C190.945 193.65 190.974 193.621 190.974 193.573C190.945 193.544 190.945 193.515 190.897 193.496C190.821 193.477 190.763 193.448 190.687 193.429C190.639 193.41 190.505 193.41 190.399 193.4ZM202.512 193.928C202.608 193.937 202.714 193.947 202.819 193.966C202.877 193.985 202.953 193.995 203.011 194.023C203.059 194.052 203.087 194.081 203.087 194.11C203.116 194.148 203.087 194.177 203.059 194.205C202.56 194.656 202.062 195.125 201.573 195.576C201.525 195.605 201.468 195.643 201.41 195.662C201.334 195.691 201.257 195.72 201.123 195.739C201.046 195.758 200.931 195.768 200.835 195.777C200.73 195.787 200.596 195.787 200.49 195.777C197.337 195.653 194.194 195.509 191.06 195.375C190.917 195.365 190.821 195.365 190.763 195.346C190.658 195.327 190.6 195.298 190.552 195.279C190.505 195.26 190.476 195.221 190.476 195.193C190.476 195.164 190.476 195.125 190.505 195.097C191.022 194.646 191.549 194.186 192.076 193.736C192.134 193.707 192.182 193.669 192.268 193.64C192.316 193.621 192.45 193.592 192.527 193.573C192.603 193.554 192.718 193.544 192.824 193.535C192.948 193.525 193.063 193.525 193.188 193.525C196.274 193.669 199.388 193.803 202.522 193.928H202.512ZM214.568 194.464C214.693 194.464 214.808 194.483 214.856 194.503C214.952 194.512 215.009 194.531 215.057 194.56C215.105 194.589 215.134 194.618 215.134 194.646C215.162 194.675 215.134 194.713 215.105 194.742C214.635 195.202 214.166 195.662 213.725 196.113C213.667 196.151 213.62 196.18 213.562 196.208C213.485 196.237 213.409 196.256 213.294 196.275C213.188 196.295 213.083 196.314 212.977 196.323C212.882 196.323 212.738 196.333 212.661 196.323C209.499 196.199 206.375 196.055 203.26 195.911C203.116 195.911 203.04 195.902 202.944 195.883C202.867 195.863 202.81 195.844 202.79 195.815C202.714 195.787 202.685 195.758 202.685 195.729C202.666 195.7 202.685 195.662 202.714 195.633C203.183 195.183 203.682 194.723 204.19 194.273C204.237 194.225 204.285 194.205 204.391 194.177C204.439 194.148 204.487 194.119 204.63 194.11C204.736 194.09 204.841 194.071 204.947 194.062C205.042 194.052 205.186 194.052 205.253 194.062C208.377 194.196 211.473 194.33 214.568 194.464ZM226.567 195.001C226.672 195.01 226.758 195.02 226.864 195.03C226.931 195.049 226.988 195.078 227.046 195.097C227.075 195.125 227.122 195.145 227.151 195.183C227.151 195.212 227.122 195.25 227.094 195.279C226.643 195.739 226.25 196.199 225.81 196.659C225.79 196.688 225.733 196.726 225.656 196.755C225.56 196.783 225.474 196.803 225.397 196.822C225.321 196.841 225.215 196.86 225.11 196.87C225.005 196.87 224.87 196.879 224.765 196.87C221.679 196.735 218.545 196.592 215.431 196.448C215.306 196.458 215.23 196.448 215.115 196.419C215.067 196.4 214.99 196.381 214.904 196.362C214.875 196.333 214.827 196.304 214.856 196.266C214.856 196.237 214.856 196.208 214.875 196.16C215.345 195.71 215.795 195.25 216.265 194.79C216.293 194.752 216.341 194.733 216.427 194.704C216.485 194.665 216.552 194.646 216.667 194.627C216.772 194.608 216.868 194.598 216.983 194.589C217.098 194.579 217.223 194.579 217.319 194.589C220.385 194.723 223.481 194.867 226.576 194.991L226.567 195.001ZM238.46 195.547C238.603 195.557 238.68 195.566 238.776 195.576C238.833 195.595 238.92 195.614 238.967 195.643C239.015 195.662 239.044 195.691 239.044 195.729C239.063 195.758 239.044 195.787 239.044 195.825C238.651 196.285 238.22 196.755 237.808 197.215C237.779 197.243 237.702 197.282 237.655 197.301C237.607 197.33 237.53 197.358 237.386 197.378C237.31 197.397 237.204 197.416 237.127 197.416C237.003 197.425 236.888 197.425 236.763 197.425C233.668 197.282 230.601 197.138 227.506 197.004C227.381 197.004 227.295 196.985 227.19 196.965C227.113 196.956 227.065 196.937 226.998 196.908C226.95 196.879 226.921 196.85 226.902 196.822C226.902 196.793 226.921 196.755 226.95 196.716C227.372 196.266 227.793 195.796 228.234 195.336C228.292 195.308 228.34 195.269 228.387 195.24C228.445 195.221 228.541 195.202 228.656 195.173C228.732 195.154 228.819 195.145 228.915 195.135C229.058 195.125 229.154 195.135 229.288 195.125C232.326 195.269 235.393 195.413 238.45 195.547H238.46ZM250.333 196.084C250.41 196.093 250.515 196.103 250.621 196.122C250.669 196.141 250.784 196.16 250.832 196.189C250.86 196.218 250.908 196.237 250.908 196.266C250.908 196.304 250.937 196.333 250.889 196.371C250.496 196.831 250.132 197.301 249.758 197.761C249.71 197.799 249.682 197.838 249.634 197.857C249.557 197.885 249.442 197.914 249.375 197.933C249.298 197.953 249.155 197.972 249.078 197.972C248.953 197.981 248.877 197.981 248.742 197.981C245.647 197.838 242.58 197.694 239.523 197.56C239.38 197.56 239.303 197.54 239.226 197.521C239.15 197.502 239.063 197.483 239.015 197.464C238.967 197.435 238.92 197.406 238.92 197.378C238.92 197.339 238.92 197.31 238.967 197.263C239.332 196.812 239.753 196.352 240.175 195.892C240.204 195.844 240.252 195.815 240.328 195.787C240.376 195.768 240.482 195.739 240.568 195.72C240.654 195.7 240.75 195.691 240.855 195.672H241.2C244.238 195.815 247.276 195.959 250.343 196.084H250.333Z" fill="white"/>
<g opacity="0.17">
<path fill-rule="evenodd" clip-rule="evenodd" d="M221.33 177.224C219.25 163.28 219.279 148.11 219.854 132.633C219.126 132.566 218.397 132.479 217.669 132.393C216.989 148.809 216.826 164.948 219.03 179.706H221.723C221.579 178.891 221.454 178.058 221.33 177.224Z" fill="#E9F7D2"/>
</g>
<g opacity="0.17">
<path fill-rule="evenodd" clip-rule="evenodd" d="M264.212 177.224H221.336C221.461 178.048 221.595 178.882 221.729 179.706H264.212V177.224Z" fill="#E9F7D2"/>
</g>
<g opacity="0.17">
<path fill-rule="evenodd" clip-rule="evenodd" d="M265.719 121.305V177.224H268.019V123.193C267.242 122.589 266.466 121.957 265.719 121.295V121.305Z" fill="#E9F7D2"/>
</g>
<g opacity="0.17">
<path d="M268.019 177.224H265.719V179.706H268.019V177.224Z" fill="#E9F7D2"/>
</g>
<path fill-rule="evenodd" clip-rule="evenodd" d="M163.94 189.031C163.69 189.031 163.432 188.955 163.23 188.772C162.761 188.38 162.694 187.68 163.096 187.21C168.463 180.751 171.424 172.557 171.424 164.143C171.424 160.118 170.763 156.151 169.46 152.385C169.258 151.8 169.565 151.167 170.15 150.976C170.734 150.775 171.357 151.081 171.558 151.666C172.938 155.672 173.638 159.869 173.638 164.143C173.638 173.075 170.504 181.777 164.802 188.629C164.582 188.887 164.265 189.022 163.949 189.022L163.94 189.031Z" fill="white"/>
<path fill-rule="evenodd" clip-rule="evenodd" d="M186.995 174.685C178.092 176.381 166.918 179.85 153.473 185.102C154.393 185.341 155.246 185.638 156.051 185.983C174.604 179.246 186.899 175.863 192.946 175.835C191.873 175.461 190.8 175.202 189.726 175.078C189.813 165.188 190.33 156.457 191.269 148.838C188.979 160.645 187.561 169.26 186.995 174.694V174.685Z" fill="#65B09A"/>
<path fill-rule="evenodd" clip-rule="evenodd" d="M153.467 185.092C149.346 183.856 145.685 184.134 142.484 185.916L145.168 195.231C145.465 196.285 144.861 197.11 143.826 197.062L146.308 197.167C147.42 196.535 148.579 196.142 149.768 195.969C152.029 197.407 155.01 197.1 158.68 195.03C158.958 191.331 158.019 188.322 155.882 186.012C155.93 186.003 155.987 185.983 156.035 185.964C155.23 185.619 154.377 185.322 153.457 185.073L153.467 185.092Z" fill="#F1BBA2"/>
<path fill-rule="evenodd" clip-rule="evenodd" d="M184.221 201.738C184.776 198.394 185.342 194.79 185.898 190.957C178.902 192.787 169.798 194.522 158.595 196.17C158.643 195.797 158.681 195.423 158.7 195.059C155.02 197.129 152.04 197.435 149.788 195.998C148.59 196.161 147.44 196.563 146.328 197.196L171.436 198.24C171.13 199.937 170.392 201.23 169.251 202.016C174.532 202.246 179.525 202.16 184.24 201.748L184.221 201.738Z" fill="#7FCBB4"/>
<path fill-rule="evenodd" clip-rule="evenodd" d="M142.488 185.917C144.874 184.585 147.538 184.086 150.461 184.441C155.253 174.072 152.282 159.323 159.057 136.821C154.179 139.265 148.496 151.11 142.018 172.337C141.319 172.931 140.36 173.612 139.172 174.369L142.497 185.907L142.488 185.917Z" fill="#7FCBB4"/>
<path fill-rule="evenodd" clip-rule="evenodd" d="M159.057 136.831C152.291 159.333 155.253 174.081 150.461 184.45C151.438 184.565 152.435 184.786 153.47 185.102C166.916 179.85 178.08 176.381 186.993 174.685C187.558 169.251 188.976 160.636 191.267 148.829C190.328 156.448 189.82 165.188 189.724 175.068C190.788 175.193 191.871 175.452 192.944 175.825C186.897 175.854 174.601 179.237 156.048 185.974L155.895 186.022C158.041 188.332 158.971 191.341 158.693 195.04C158.674 195.404 158.636 195.778 158.588 196.152C169.791 194.503 178.904 192.769 185.891 190.938C191.65 189.434 195.982 187.853 198.886 186.214C206.466 173.602 207.635 157.33 202.422 137.387C199.604 133.783 193.308 132.442 183.543 133.362C173.365 141.958 168.698 142.37 169.561 134.608C165.123 134.723 161.616 135.46 159.048 136.821L159.057 136.831Z" fill="#7FCBB4"/>
<path fill-rule="evenodd" clip-rule="evenodd" d="M158.744 137.003C152.706 149.519 151.662 174.943 148.892 177.694C147.838 178.949 145.356 180.502 141.465 182.332L141.532 182.591L142.5 185.926C144.886 184.594 147.55 184.096 150.473 184.45C155.265 174.081 152.294 159.332 159.069 136.831C158.954 136.878 158.859 136.946 158.753 137.003H158.744Z" fill="#65B09A"/>
<path fill-rule="evenodd" clip-rule="evenodd" d="M105.198 200.34L165.803 202.87C168.917 202.994 170.872 201.26 171.419 198.222L103.176 195.385H102.984C102.323 195.347 101.355 195.644 101.671 197.474C101.949 198.988 103.54 200.272 105.188 200.349L105.198 200.34Z" fill="#B9DD7F"/>
<path fill-rule="evenodd" clip-rule="evenodd" d="M95.2702 162.811L134.428 164.45C135.472 164.488 136.565 165.389 136.871 166.443L145.171 195.241C145.468 196.295 144.864 197.119 143.829 197.071L104.662 195.442C103.617 195.394 102.525 194.493 102.218 193.449L93.919 164.651C93.6123 163.597 94.2257 162.773 95.2607 162.811H95.2702Z" fill="#9EC166"/>
<path fill-rule="evenodd" clip-rule="evenodd" d="M98.7578 174.503L103.866 192.223C104.105 193.104 105.044 193.909 105.964 193.948L141.701 195.433C142.602 195.471 143.023 194.753 142.784 193.919L139.382 182.093C136.439 182.467 133.373 182.668 130.22 182.668C127.853 182.668 125.524 182.553 123.272 182.342C122.822 183.54 121.681 184.364 120.224 184.364C118.356 184.364 116.583 183.032 115.969 181.269C109.117 179.879 103.195 177.522 98.7578 174.503Z" fill="#B9DD7F"/>
<path fill-rule="evenodd" clip-rule="evenodd" d="M87.0374 205.371C90.0274 203.425 92.3466 201.624 93.9757 199.956C96.5057 201.096 98.9303 202.141 101.23 203.061C106.798 202.342 113.305 201.652 120.761 200.991L105.207 200.339C103.549 200.272 101.968 198.979 101.69 197.464C101.374 195.634 102.342 195.337 103.003 195.366H103.195L104.68 195.433C103.636 195.385 102.543 194.484 102.237 193.439L98.1349 179.208C95.6432 179.064 93.4199 179.016 91.4936 179.064C80.5016 183.051 71.0332 199.381 50.6016 212.98C50.937 216.535 52.6907 218.816 55.422 221.078C66.1457 216.487 76.927 211.379 83.2616 207.69C84.6224 206.885 85.8874 206.118 87.047 205.361L87.0374 205.371Z" fill="#81B4D3"/>
<path fill-rule="evenodd" clip-rule="evenodd" d="M28.7333 214.494C36.86 221.662 42.8879 225.994 46.4529 227.642C50.3054 229.415 51.3883 228.064 52.3275 223.589C41.6133 220.187 47.4496 217.839 43.4246 215.146C39.1217 214.887 34.2246 212.874 28.7333 209.118C25.2929 208.763 24.8904 210.872 28.7333 214.494Z" fill="#9FC266"/>
<path fill-rule="evenodd" clip-rule="evenodd" d="M30.861 205.15C31.206 207.651 31.4455 208.859 31.7618 211.053L31.9247 211.159L32.0014 211.197L32.0876 211.245L32.241 211.35L32.4039 211.446L32.471 211.485L32.5668 211.533L32.7201 211.609H32.7393L32.8926 211.715L32.9597 211.743L33.3814 211.973L33.4389 212.002L33.5443 212.06L33.6689 212.127L33.6976 212.146L33.8605 212.223L33.8989 212.251L34.0139 212.309L34.1385 212.366L34.1768 212.385L34.3301 212.462L34.3685 212.481L34.4835 212.539L34.5985 212.596L34.6368 212.615L34.7997 212.692H34.8285L34.953 212.759L35.0489 212.807L35.1064 212.836L35.2597 212.903H35.2789L35.4226 212.98L35.5185 213.018L35.7389 213.114H35.7485L35.988 213.219L36.0551 213.248L36.2085 213.305L36.3618 213.373L36.448 213.401L36.5151 213.44L36.678 213.497L36.8314 213.555L36.8985 213.583L36.9751 213.612L37.1285 213.67H37.138L37.2818 213.727L37.3489 213.756L37.4351 213.785L37.5693 213.833H37.5789L37.7418 213.89L37.7897 213.909L37.8855 213.938L38.0101 213.986H38.0389L38.1922 214.043L38.2401 214.063L38.336 214.091L38.4989 214.139L38.6426 214.187H38.681L38.7864 214.225L38.8918 214.264H38.9301L39.0835 214.312H39.1122L39.2272 214.36L39.3326 214.388H39.3805L39.5243 214.436H39.553L39.668 214.475L39.7639 214.494L39.8118 214.513L39.9555 214.551L40.243 214.618L40.3964 214.647H40.406L40.5401 214.676L40.6168 214.695H40.6743L40.818 214.733L40.9618 214.762L41.1151 214.791L41.2493 214.82L41.4026 214.839H41.4601L41.5368 214.868C41.5176 214.599 41.4601 214.312 41.3643 213.986C38.2785 210.986 35.5376 207.738 33.8318 201.317C31.4551 198.796 30.1997 199.812 30.7555 205.064L30.861 205.15ZM32.8447 218.03C33.4772 221.48 34.2439 224.681 34.9914 226.329C36.5918 229.837 39.5722 228.035 42.8305 225.591C40.1664 223.876 36.8122 221.365 32.8351 218.03H32.8447Z" fill="#9FC266"/>
<path fill-rule="evenodd" clip-rule="evenodd" d="M37.5485 213.852L37.654 213.89H37.6635L37.8265 213.948L37.884 213.967L37.9702 213.996L38.0948 214.044H38.1235L38.2769 214.101L38.3248 214.12L38.4206 214.149L38.5835 214.197L38.7273 214.245H38.7656L38.871 214.283L38.9765 214.322H39.0148L39.1681 214.369H39.1969L39.3119 214.417L39.4173 214.446H39.4652L39.609 214.494H39.6377L39.7527 214.532L39.8485 214.561H39.8965L40.0402 214.609L40.3277 214.676L40.481 214.705H40.4906L40.6248 214.734L40.7015 214.753H40.759L40.9027 214.801L41.0465 214.82L41.1998 214.849L41.334 214.877L41.4873 214.897H41.5448L41.6215 214.925C41.6023 214.657 41.5448 214.369 41.449 214.044C38.3631 211.044 35.6223 207.795 33.9165 201.374C33.2935 200.713 32.7473 200.301 32.2969 200.138C32.6515 205.428 34.3956 209.98 37.5198 213.814L37.5485 213.852Z" fill="#9BB45F"/>
<path fill-rule="evenodd" clip-rule="evenodd" d="M51.2833 223.244C52.2512 221.931 53.3149 220.944 54.4745 220.282C52.6154 218.576 51.3216 216.765 50.7849 214.331C48.667 215.452 46.6066 216.104 44.6133 216.286C46.0412 218.433 43.3674 220.493 51.2833 223.244Z" fill="#F1BBA2"/>
<path fill-rule="evenodd" clip-rule="evenodd" d="M164.746 224.681C177.827 223.857 183.156 214.082 182.897 201.844C178.584 202.151 174.032 202.208 169.231 201.997C168.33 202.62 167.18 202.927 165.81 202.87L120.759 200.991C113.303 201.652 106.796 202.342 101.228 203.061C97.8066 203.502 94.7399 203.952 92.047 204.412C90.1111 204.93 87.2266 206.003 83.3741 207.613L83.2495 207.69C76.9149 211.38 66.1336 216.487 55.4099 221.078C55.0841 220.81 54.7774 220.541 54.4803 220.282C53.3207 220.944 52.257 221.931 51.2891 223.244C51.6149 223.359 51.9599 223.483 52.3241 223.589C52.3145 223.665 52.2953 223.752 52.2761 223.828C82.8182 226.588 92.8807 221.96 100.969 219.506C127.477 224.24 140.242 225.975 164.756 224.672L164.746 224.681Z" fill="#81B4D3"/>
<path fill-rule="evenodd" clip-rule="evenodd" d="M179.799 118.047C178.802 113.926 178.62 109.221 177.25 107.41C166.229 103.528 165.012 109.623 160.144 110.793C160 114.827 162.06 126.356 166.229 128.234C167.12 129.173 168.577 129.71 170.599 129.873C170.407 130.736 169.823 133.821 169.564 134.617C168.702 142.379 173.369 141.967 183.546 133.371H183.594C183.527 130.63 183.297 128.541 183.335 126.481C183.364 125.081 183.422 123.836 183.508 122.743C187.159 118.938 187.878 115.862 185.674 113.514C182.789 112.144 181.112 114.089 180.652 119.331C179.79 118.996 180.384 119.283 179.799 118.057V118.047Z" fill="#F1BBA2"/>
<path fill-rule="evenodd" clip-rule="evenodd" d="M160.153 110.793C165.021 109.623 166.238 103.538 177.259 107.41C178.62 109.221 178.812 113.917 179.808 118.047C180.403 119.274 179.799 118.986 180.661 119.322C181.121 114.07 182.798 112.125 185.683 113.505C187.878 115.862 187.159 118.938 183.517 122.733C183.441 123.826 183.373 125.072 183.345 126.471C193.618 117.012 191.529 104.18 185.29 99.9538C186.804 100.107 188.357 100.701 189.938 101.717C187.667 98.6697 184.6 97.6059 180.757 98.5355C181.169 96.3697 181.093 94.7884 180.508 93.7534C180.345 95.2197 180.048 96.3409 179.646 97.1363C177.163 94.8651 172.42 94.338 167.561 96.178C161.265 98.5451 160.421 98.4013 157.939 96.6859C151.25 101.2 156.032 112.144 160.163 110.773L160.153 110.793Z" fill="#363537"/>
<path fill-rule="evenodd" clip-rule="evenodd" d="M177.088 128.004C175.268 129.193 173.092 129.806 170.601 129.883C170.495 130.343 170.265 131.512 170.035 132.595C173.188 131.742 175.536 130.218 177.088 128.004Z" fill="#D7A188"/>
<path fill-rule="evenodd" clip-rule="evenodd" d="M101.773 196.017C98.3417 194.81 95.3708 193.344 92.8888 191.638C91.7292 192.759 90.5888 193.861 89.4388 194.925C78.2167 205.39 67.3683 213.401 56.9608 218.318C55.9258 218.816 54.9004 219.266 53.875 219.698C54.0667 219.899 54.2775 220.081 54.4883 220.282L55.4179 221.078C57.5358 220.177 59.6537 219.257 61.7429 218.318C70.2242 214.532 78.1783 210.651 83.2575 207.699C83.2958 207.68 83.3438 207.651 83.3821 207.623C84.695 206.856 85.9217 206.099 87.0429 205.371C87.8958 204.815 88.7008 204.278 89.4388 203.732C91.2979 202.4 92.8121 201.135 93.9717 199.956C96.5113 201.096 98.9263 202.141 101.226 203.061C104.36 202.659 107.8 202.266 111.548 201.863C114.432 201.566 117.508 201.269 120.757 200.981L111.548 200.598L105.203 200.33C103.545 200.263 101.964 198.969 101.686 197.455C101.571 196.784 101.629 196.324 101.773 196.008V196.017Z" fill="#5D9EC5"/>
<path fill-rule="evenodd" clip-rule="evenodd" d="M162.87 218.327C155.251 220.474 144.661 220.732 131.082 219.132C128.763 218.864 126.53 218.595 124.364 218.327C119.716 217.752 115.442 217.177 111.541 216.583C107.641 215.989 104.105 215.385 100.942 214.781C98.6229 216.142 95.9587 217.321 92.94 218.327C91.8187 218.701 90.6496 219.055 89.4325 219.372C79.8971 221.902 67.4004 222.927 51.9233 222.448C51.7125 222.707 51.4921 222.975 51.2812 223.253C51.6071 223.368 51.9521 223.492 52.3163 223.598L52.2683 223.837C70.8408 225.515 81.8425 224.46 89.4325 222.822C94.3296 221.768 97.7987 220.474 100.961 219.515C104.747 220.186 108.245 220.809 111.551 221.355C131.36 224.681 143.741 225.793 164.748 224.681C170.613 224.317 174.906 222.141 177.848 218.768C181.48 214.609 183.043 208.6 182.899 201.844C182.314 201.882 181.73 201.92 181.126 201.949C179.928 202.016 178.72 202.064 177.484 202.093C177.053 210.306 172.185 215.711 162.879 218.327H162.87Z" fill="#5D9EC5"/>
<path fill-rule="evenodd" clip-rule="evenodd" d="M119.187 177.896C120.643 177.896 122.023 179.074 122.263 180.541C122.503 182.007 121.516 183.195 120.049 183.195C118.583 183.195 117.203 182.016 116.973 180.541C116.733 179.074 117.73 177.896 119.196 177.896H119.187Z" fill="#B9DD7F"/>
<path fill-rule="evenodd" clip-rule="evenodd" d="M159.435 103.126C156.599 105.263 155.822 107.371 157.135 109.47C162.004 111.109 166.441 110.773 170.437 108.445C167.878 108.56 164.208 106.787 159.435 103.126Z" fill="#363537"/>
<path fill-rule="evenodd" clip-rule="evenodd" d="M167.672 104.065C166.072 105.043 165.564 106.116 166.149 107.285C168.621 108.388 170.969 108.426 173.192 107.4C171.841 107.343 169.992 106.231 167.672 104.065Z" fill="#363537"/>
<path fill-rule="evenodd" clip-rule="evenodd" d="M135.64 122.704H122.214L122.837 130.438C122.923 131.511 121.6 132.086 120.872 131.281L113.081 122.704H45.5949C42.1161 122.704 39.2891 119.877 39.2891 116.389V91.7883C39.2891 88.3095 42.1066 85.4824 45.5949 85.4824H135.64C139.119 85.4824 141.946 88.2999 141.946 91.7883V116.389C141.946 119.867 139.128 122.704 135.64 122.704Z" fill="#B9DD7F"/>
<rect y="157" width="352" height="261" fill="url(#paint0_linear_2023_1555)"/>
<defs>
<linearGradient id="paint0_linear_2023_1555" x1="176" y1="152.5" x2="176" y2="418" gradientUnits="userSpaceOnUse">
<stop stop-color="white" stop-opacity="0"/>
<stop offset="1" stop-color="#F8F7DC"/>
</linearGradient>
</defs>
</svg>
