<svg width="353" height="287" viewBox="0 0 353 287" fill="none" xmlns="http://www.w3.org/2000/svg">
<g clip-path="url(#clip0_2001_4)">
<rect width="353" height="287" fill="#D6F3BA"/>
<path fill-rule="evenodd" clip-rule="evenodd" d="M224.33 255.789C279.657 255.789 330.566 256.49 370.963 257.668C469.828 209.735 435.588 116.28 400.097 63.4319C350.69 -10.1393 233.967 -36.5739 185.661 22.1237C120.122 101.789 56.8986 73.9845 22.759 134.487C-11.3806 194.989 40.4671 252.986 77.7228 257.668C118.12 256.49 169.029 255.789 224.343 255.789H224.33Z" fill="#D6F3BA"/>
<g clip-path="url(#clip1_2001_4)">
<path fill-rule="evenodd" clip-rule="evenodd" d="M316.272 177.51C316.409 177.172 316.794 176.999 317.133 177.136C317.473 177.254 317.656 177.647 317.519 177.984C316.858 179.691 316.299 181.498 315.831 183.368C316.015 183.186 316.216 183.03 316.427 182.857C317.335 182.127 318.362 181.498 319.508 180.959C319.848 180.813 320.242 180.95 320.398 181.279C320.554 181.607 320.416 182.009 320.086 182.164C319.032 182.656 318.087 183.231 317.262 183.888C316.473 184.518 315.795 185.211 315.226 185.987C314.364 190.029 313.814 194.391 313.31 198.99C314.08 197.794 314.905 196.727 315.786 195.778C317.317 194.126 318.995 192.849 320.847 191.936C321.177 191.763 321.572 191.909 321.746 192.237C321.902 192.566 321.773 192.958 321.443 193.123C319.747 193.962 318.188 195.148 316.776 196.672C315.373 198.205 314.107 200.057 312.97 202.266L312.851 203.507C312.558 206.253 312.274 209.054 311.925 211.92C311.925 211.947 311.925 211.974 311.916 212.002C311.558 214.995 311.136 218.052 310.605 221.163C312.053 218.946 313.594 216.984 315.263 215.287C317.693 212.796 320.37 210.852 323.268 209.465C323.607 209.31 324.002 209.447 324.167 209.775C324.323 210.104 324.185 210.496 323.855 210.66C321.095 211.984 318.555 213.836 316.226 216.217C313.906 218.59 311.806 221.492 309.926 224.913C309.101 229.038 308.055 233.235 306.671 237.478C305.983 239.568 305.222 241.667 304.36 243.774C306.377 242.05 308.523 240.553 310.788 239.303C313.952 237.551 317.354 236.256 320.976 235.425C321.333 235.343 321.691 235.571 321.764 235.918C321.847 236.274 321.627 236.63 321.278 236.703C317.766 237.524 314.483 238.756 311.439 240.453C308.431 242.123 305.644 244.222 303.076 246.758C302.444 248.145 301.765 249.541 301.031 250.946L299.564 250.892C301.994 246.293 303.883 241.685 305.378 237.141C305.625 233.901 305.249 230.671 304.222 227.441C303.195 224.156 301.49 220.862 299.152 217.577C298.941 217.276 299.014 216.865 299.317 216.655C299.619 216.436 300.032 216.509 300.243 216.801C302.673 220.214 304.424 223.618 305.497 227.03C306.111 228.965 306.506 230.908 306.689 232.843C308.688 225.662 309.798 218.626 310.605 211.92C309.825 209.082 308.945 206.682 307.982 204.702C307.019 202.749 305.983 201.234 304.855 200.176C304.58 199.921 304.571 199.51 304.828 199.236C305.075 198.972 305.497 198.962 305.763 199.209C307.019 200.386 308.147 202.028 309.183 204.118C309.825 205.423 310.43 206.919 310.999 208.598C311.191 206.819 311.366 205.076 311.549 203.361L311.696 202.028C311.696 202.028 311.696 201.983 311.705 201.955C312.649 192.849 313.612 184.545 316.317 177.501L316.272 177.51Z" fill="white"/>
<path fill-rule="evenodd" clip-rule="evenodd" d="M160.575 206.81C161.088 213.708 162.106 214.666 168.726 215.195C162.106 215.734 161.088 216.683 160.575 223.581C160.079 216.674 159.043 215.725 152.441 215.195C159.043 214.666 160.079 213.708 160.575 206.81ZM133.707 225.014C133.973 228.691 134.523 229.202 138.054 229.494C134.523 229.777 133.982 230.279 133.707 233.965C133.432 230.288 132.891 229.777 129.352 229.494C132.882 229.202 133.432 228.691 133.707 225.014ZM145.481 196.654C145.756 200.386 146.306 200.897 149.883 201.189C146.306 201.472 145.756 201.992 145.481 205.715C145.206 201.983 144.656 201.472 141.071 201.189C144.647 200.897 145.206 200.377 145.481 196.654Z" fill="white"/>
<path fill-rule="evenodd" clip-rule="evenodd" d="M266.187 189.801C265.802 195.093 265.023 195.814 259.961 196.225C265.023 196.626 265.802 197.365 266.187 202.64C266.572 197.365 267.361 196.626 272.432 196.225C267.361 195.814 266.581 195.084 266.187 189.801ZM286.773 203.744C286.562 206.563 286.141 206.956 283.445 207.175C286.141 207.394 286.572 207.777 286.773 210.596C286.975 207.768 287.397 207.384 290.093 207.175C287.397 206.956 286.966 206.563 286.773 203.744ZM277.759 182.027C277.549 184.892 277.127 185.284 274.394 185.503C277.127 185.722 277.558 186.115 277.759 188.98C277.97 186.115 278.392 185.722 281.125 185.503C278.392 185.284 277.961 184.892 277.759 182.027Z" fill="white"/>
<path fill-rule="evenodd" clip-rule="evenodd" d="M48.0749 50.4377L174.993 34.5149C184.897 33.2648 194.03 40.3183 195.277 50.1731L217.275 223.764C218.522 233.628 211.443 242.707 201.531 243.948L74.6305 259.88C64.718 261.121 55.5941 254.076 54.3378 244.212L32.3396 70.6218C31.0834 60.767 38.1716 51.6878 48.0749 50.4377Z" fill="#B7E886"/>
<path fill-rule="evenodd" clip-rule="evenodd" d="M48.7282 55.5111L175.628 39.5792C182.735 38.685 189.282 43.7492 190.172 50.821L212.17 224.402C213.068 231.474 207.988 237.998 200.882 238.883L73.9817 254.806C66.8751 255.7 60.3279 250.645 59.4293 243.574L37.431 69.9831C36.5324 62.9113 41.6216 56.4054 48.7282 55.5111Z" fill="#E7FFCF"/>
<path fill-rule="evenodd" clip-rule="evenodd" d="M39.8867 65.6216L164.54 39.9626L201.284 216.719L76.6391 242.378L39.8867 65.6216Z" fill="white"/>
<path fill-rule="evenodd" clip-rule="evenodd" d="M58.1814 103.84C57.844 102.216 58.8884 100.626 60.5128 100.291L68.84 98.5741C70.4612 98.2398 72.0468 99.2817 72.3833 100.902L74.0976 109.16C74.4348 110.785 73.3895 112.375 71.7643 112.709L63.4371 114.42C61.8166 114.754 60.2322 113.712 59.8957 112.092L58.1814 103.84ZM82.0319 218.566C81.6946 216.942 82.7389 215.353 84.3633 215.018L92.6905 213.3C94.3117 212.966 95.8973 214.008 96.2338 215.629L97.9481 223.887C98.2854 225.511 97.24 227.101 95.6148 227.435L87.2876 229.147C85.6671 229.48 84.0827 228.438 83.7462 226.818L82.0319 218.566ZM77.2636 195.617C76.9262 193.993 77.9704 192.404 79.5946 192.068L87.9146 190.352C89.5352 190.017 91.1205 191.058 91.4579 192.678L93.1776 200.936C93.516 202.561 92.4706 204.152 90.8447 204.486L82.5193 206.198C80.8988 206.531 79.3145 205.489 78.978 203.869L77.2636 195.617ZM72.4884 172.67C72.1499 171.045 73.1943 169.454 74.8194 169.119L83.1448 167.403C84.766 167.068 86.3516 168.11 86.6881 169.731L88.4025 177.989C88.7397 179.613 87.6945 181.203 86.0696 181.537L77.7495 183.249C76.1296 183.582 74.5456 182.541 74.2082 180.922L72.4884 172.67ZM67.7179 149.719C67.3806 148.095 68.4249 146.506 70.0493 146.171L78.3765 144.454C79.9977 144.119 81.5833 145.161 81.9198 146.782L83.6341 155.04C83.9714 156.664 82.926 158.254 81.3008 158.588L72.9736 160.3C71.3531 160.633 69.7688 159.591 69.4323 157.972L67.7179 149.719ZM62.9496 126.77C62.6123 125.146 63.6564 123.557 65.2806 123.222L73.5988 121.505C75.2201 121.171 76.8059 122.213 77.1424 123.833L78.8568 132.091C79.194 133.716 78.1488 135.305 76.5239 135.64L68.2057 137.351C66.585 137.684 65.0004 136.642 64.6639 135.022L62.9496 126.77Z" fill="#F1FFD7"/>
<path fill-rule="evenodd" clip-rule="evenodd" d="M83.0225 96.1897L160.113 80.3217C161.415 80.0571 162.699 80.8966 162.964 82.1923C163.24 83.488 162.396 84.7655 161.085 85.0392L84.0037 100.907C82.7016 101.181 81.4178 100.332 81.1427 99.0367C80.8768 97.741 81.7204 96.4635 83.0225 96.1989V96.1897ZM106.873 210.925L183.972 195.048C185.274 194.774 186.558 195.623 186.824 196.919C187.099 198.214 186.246 199.492 184.944 199.756L107.863 215.634C106.561 215.907 105.278 215.059 105.002 213.763C104.737 212.467 105.58 211.19 106.882 210.925H106.873ZM108.624 219.311C107.322 219.575 106.479 220.862 106.745 222.158C107.02 223.444 108.304 224.284 109.606 224.019L155.904 214.493C157.206 214.219 158.059 212.942 157.784 211.646C157.518 210.35 156.225 209.511 154.932 209.775L108.624 219.311ZM102.114 187.976L179.195 172.099C180.497 171.825 181.781 172.674 182.056 173.97C182.322 175.265 181.478 176.543 180.176 176.807L103.086 192.685C101.784 192.958 100.491 192.11 100.225 190.814C99.9499 189.518 100.794 188.241 102.105 187.976H102.114ZM103.856 196.362C102.554 196.627 101.701 197.913 101.976 199.209C102.242 200.505 103.526 201.335 104.828 201.079L151.135 191.544C152.438 191.27 153.272 189.993 153.015 188.697C152.74 187.401 151.456 186.562 150.154 186.827L103.856 196.362ZM97.3365 165.027L174.436 149.159C175.738 148.886 177.022 149.734 177.288 151.03C177.563 152.326 176.719 153.603 175.417 153.868L98.3268 169.745C97.0247 170.019 95.741 169.17 95.4751 167.874C95.2 166.579 96.0436 165.301 97.3457 165.036L97.3365 165.027ZM99.0879 173.413C97.7858 173.687 96.9422 174.964 97.2081 176.26C97.4832 177.556 98.767 178.386 100.069 178.131L146.367 168.595C147.669 168.321 148.522 167.044 148.247 165.748C147.981 164.452 146.697 163.613 145.395 163.878L99.0879 173.413ZM92.5774 142.078L169.658 126.21C170.96 125.937 172.253 126.785 172.519 128.081C172.794 129.377 171.942 130.654 170.64 130.928L93.5586 146.796C92.2565 147.07 90.9727 146.221 90.6976 144.925C90.4317 143.63 91.2753 142.352 92.5774 142.088V142.078ZM94.3197 150.464C93.0176 150.738 92.1648 152.015 92.4399 153.311C92.7058 154.607 93.9987 155.437 95.3008 155.182L141.599 145.646C142.901 145.373 143.754 144.095 143.479 142.799C143.204 141.504 141.92 140.664 140.618 140.929L94.3197 150.464ZM87.8091 119.13L164.899 103.261C166.201 102.997 167.485 103.836 167.76 105.132C168.026 106.428 167.183 107.705 165.88 107.979L88.7811 123.847C87.479 124.121 86.1953 123.272 85.9293 121.976C85.6543 120.681 86.507 119.403 87.8091 119.139V119.13ZM89.5514 127.515C88.2493 127.789 87.4057 129.066 87.6716 130.362H87.6808C87.9467 131.658 89.2305 132.488 90.5326 132.233L136.84 122.697C138.142 122.424 138.986 121.146 138.72 119.85C138.445 118.555 137.161 117.715 135.859 117.98L89.5514 127.515ZM84.7831 104.566C83.481 104.84 82.6466 106.118 82.9033 107.413C83.1784 108.709 84.4622 109.539 85.7643 109.284L132.062 99.7484C133.364 99.4747 134.217 98.1972 133.942 96.9015C133.676 95.6058 132.383 94.7663 131.09 95.0309L84.7831 104.566Z" fill="#BBD58D"/>
<path fill-rule="evenodd" clip-rule="evenodd" d="M79.0031 38.5299L101.322 35.7286L100.726 31.0385C100.084 26.0016 103.706 21.3662 108.768 20.7274C113.839 20.0887 118.497 23.693 119.13 28.7299L119.726 33.42L142.045 30.6096C145.099 30.2355 147.923 32.3981 148.299 35.4457L149.638 45.994C150.023 49.0417 147.831 51.843 144.778 52.2263L81.7265 60.1375C78.6729 60.5207 75.8578 58.349 75.4727 55.3013L74.1339 44.7531C73.7488 41.7145 75.9312 38.9132 78.9939 38.5299H79.0031ZM109.474 26.1932C107.218 26.4852 105.623 28.52 105.907 30.7556C106.201 33.0003 108.245 34.588 110.492 34.296C112.748 34.0131 114.343 31.9783 114.05 29.7427C113.766 27.498 111.721 25.9103 109.474 26.1932Z" fill="#B7E886"/>
<path fill-rule="evenodd" clip-rule="evenodd" d="M59.8634 103.863C59.3315 103.307 59.3682 102.449 59.9184 101.92C60.4777 101.409 61.3489 101.436 61.8715 101.984L66.1263 106.491L71.4172 94.766C71.729 94.0725 72.5451 93.7622 73.242 94.0725C73.9298 94.3827 74.2415 95.1948 73.9298 95.8883L67.8227 109.439C67.7493 109.621 67.6393 109.795 67.4834 109.931C66.9241 110.452 66.0438 110.424 65.5303 109.868L59.8634 103.854V103.863ZM64.6316 126.812C64.109 126.256 64.1456 125.398 64.6958 124.869C65.2552 124.349 66.1171 124.376 66.6398 124.933L70.8946 129.44L76.1947 117.715C76.5065 117.021 77.3226 116.711 78.0195 117.021C78.7164 117.332 79.0281 118.144 78.7164 118.837L72.6001 132.388C72.5268 132.57 72.4076 132.743 72.2609 132.88C71.7015 133.4 70.8212 133.373 70.3077 132.816L64.6316 126.803V126.812ZM83.7047 218.599C83.182 218.042 83.2187 217.185 83.7689 216.655C84.3283 216.135 85.2086 216.163 85.7221 216.719L89.9768 221.227L95.2678 209.511C95.5795 208.817 96.3956 208.507 97.0926 208.817C97.7803 209.127 98.0921 209.939 97.7803 210.633L91.6732 224.183C91.5999 224.366 91.4898 224.539 91.3248 224.676C90.7746 225.196 89.9035 225.169 89.3808 224.612L83.6955 218.599H83.7047ZM78.9364 195.65C78.4138 195.093 78.4413 194.236 79.0006 193.706C79.56 193.186 80.4219 193.214 80.9446 193.77L85.2177 198.278L90.4995 186.553C90.8113 185.859 91.6274 185.549 92.3243 185.859C93.0212 186.169 93.333 186.981 93.0212 187.675L86.905 201.225C86.8316 201.408 86.7124 201.581 86.5657 201.718C86.0063 202.238 85.1444 202.211 84.6125 201.654L78.9456 195.641L78.9364 195.65ZM74.1682 172.701C73.6455 172.144 73.6822 171.287 74.2232 170.757C74.7825 170.237 75.6628 170.265 76.1763 170.821L80.4311 175.329L85.7312 163.604C86.043 162.91 86.8499 162.6 87.556 162.91C88.2529 163.22 88.5555 164.032 88.2437 164.726L82.1367 178.276C82.0633 178.459 81.9441 178.632 81.7974 178.769C81.238 179.289 80.3669 179.262 79.8442 178.705L74.1682 172.692V172.701ZM69.3907 149.752C68.8681 149.196 68.8956 148.338 69.4549 147.809C70.0143 147.288 70.8854 147.316 71.4081 147.872L75.6628 152.38L80.9446 140.655C81.2564 139.961 82.0725 139.651 82.7786 139.961C83.4663 140.271 83.7781 141.084 83.4663 141.777L77.3501 155.327C77.2859 155.51 77.1667 155.683 77.0108 155.82C76.4514 156.34 75.5895 156.313 75.0668 155.756L69.3907 149.743V149.752Z" fill="#AFD171"/>
<path fill-rule="evenodd" clip-rule="evenodd" d="M245.59 171.908H249.459V169.015C249.459 165.83 252.064 163.239 255.273 163.239H281.04C284.24 163.239 286.845 165.83 286.845 169.015V171.689H290.723V169.015C290.723 163.713 286.368 159.379 281.04 159.379H255.273C249.936 159.379 245.59 163.713 245.59 169.015V171.908Z" fill="#F57A44"/>
<path fill-rule="evenodd" clip-rule="evenodd" d="M284.07 175.986C284.07 176.698 284.648 177.273 285.363 177.273H292.03C292.745 177.273 293.323 176.698 293.323 175.986V171.689C293.323 170.986 292.745 170.411 292.03 170.411H285.363C284.648 170.411 284.07 170.986 284.07 171.689V175.986Z" fill="#FC9774"/>
<path fill-rule="evenodd" clip-rule="evenodd" d="M242.738 175.986C242.738 176.698 243.316 177.273 244.022 177.273H250.698C251.413 177.273 251.991 176.698 251.991 175.986V171.689C251.991 170.986 251.413 170.411 250.698 170.411H244.022C243.316 170.411 242.738 170.986 242.738 171.689V175.986Z" fill="#FC9774"/>
<path fill-rule="evenodd" clip-rule="evenodd" d="M210.684 248.711C210.684 252.972 214.159 256.422 218.441 256.422H317.236C321.518 256.422 324.985 252.972 324.985 248.711V179.308C324.985 177.191 323.251 175.457 321.106 175.457H214.562C212.417 175.457 210.684 177.191 210.684 179.308V248.711Z" fill="#F2957D"/>
<path fill-rule="evenodd" clip-rule="evenodd" d="M214.746 179.308H321.299C323.426 179.308 325.168 181.042 325.168 183.168V206.29C325.168 214.813 318.227 221.711 309.671 221.711H273.643V225.662C273.643 228.865 271.039 231.456 267.83 231.456C264.62 231.456 262.016 228.865 262.016 225.662V221.711H226.373C217.809 221.711 210.867 214.803 210.867 206.29V183.168C210.867 181.042 212.609 179.308 214.746 179.308Z" fill="#F37E60"/>
<path fill-rule="evenodd" clip-rule="evenodd" d="M210.867 202.439C210.867 210.953 217.818 217.86 226.373 217.86H309.671C318.227 217.86 325.168 210.953 325.168 202.439V179.308C325.168 177.191 323.426 175.457 321.299 175.457H214.746C212.609 175.457 210.867 177.191 210.867 179.308V202.439Z" fill="#FFAA94"/>
<path fill-rule="evenodd" clip-rule="evenodd" d="M262.016 221.82C262.016 225.014 264.62 227.605 267.829 227.605C271.039 227.605 273.643 225.014 273.643 221.82V212.604H262.016V221.82Z" fill="#FC9774"/>
<path fill-rule="evenodd" clip-rule="evenodd" d="M263.305 221.446C263.305 223.937 265.331 225.945 267.825 225.945C270.32 225.945 272.346 223.937 272.346 221.446V214.283H263.305V221.446Z" fill="#FFE2DC"/>
<path d="M273.09 217.896H263.141V219.439H273.09V217.896Z" fill="#FC9774"/>
<path d="M294.292 99.009H249.141V122.797H294.292V99.009Z" fill="white"/>
<path d="M294.292 129.595H249.141V139.806H294.292V129.595Z" fill="white"/>
<path fill-rule="evenodd" clip-rule="evenodd" d="M273.1 101.5C272.174 100.04 271.339 98.9819 270.578 98.3432C274.163 96.3996 276.153 94.2735 276.557 91.9558C277.079 92.4121 277.529 92.9687 277.886 93.6165C276.548 96.7828 274.961 99.4108 273.1 101.5Z" fill="#5EB69B"/>
<path fill-rule="evenodd" clip-rule="evenodd" d="M268.06 101.5C268.986 100.04 269.821 98.9819 270.591 98.3432C266.996 96.3996 265.007 94.2735 264.603 91.9558C264.08 92.4121 263.64 92.9687 263.273 93.6165C264.612 96.7828 266.208 99.4108 268.06 101.5Z" fill="#5EB69B"/>
<path fill-rule="evenodd" clip-rule="evenodd" d="M299.81 104.566C295.941 99.2281 288.632 95.5873 277.894 93.6255C276.556 96.7918 274.969 99.4197 273.108 101.509C272.182 100.049 271.347 98.9909 270.586 98.3521C269.825 98.9909 268.981 100.049 268.055 101.509C266.203 99.4289 264.608 96.7918 263.269 93.6255C252.54 95.5873 245.223 99.2281 241.353 104.566C238.391 113.198 236.429 120.033 235.484 125.088C238.63 125.754 242.252 126.557 246.341 127.46C245.791 137.196 245.654 145.518 245.92 152.426C251.651 154.087 259.647 157.034 269.174 161.012C269.66 160.994 270.137 160.967 270.586 160.939C271.026 160.967 271.503 160.994 271.998 161.012C281.535 157.043 289.522 154.087 295.253 152.426C295.519 145.527 295.372 137.196 294.831 127.46C298.93 126.548 302.543 125.754 305.679 125.088C304.734 120.033 302.772 113.198 299.81 104.566Z" fill="#7FCBB4"/>
<path fill-rule="evenodd" clip-rule="evenodd" d="M293.109 111.145C293.861 116.027 294.439 121.465 294.824 127.46C295.338 127.351 295.851 127.232 296.355 127.123C295.686 123.409 294.604 118.089 293.109 111.145Z" fill="#5EB69B"/>
<path fill-rule="evenodd" clip-rule="evenodd" d="M248.059 111.145C247.307 116.027 246.729 121.465 246.344 127.46C245.83 127.351 245.317 127.232 244.812 127.123C245.482 123.409 246.564 118.089 248.059 111.145Z" fill="#5EB69B"/>
<path fill-rule="evenodd" clip-rule="evenodd" d="M292.794 171.488C293.95 174.407 291.822 179.134 290.383 180.074C264.157 177.455 247.78 173.787 237.666 168.695C234.658 167.044 229.395 166.332 226.194 164.215C218.446 156.085 224.25 145.409 231.935 145.929C237.308 146.96 239.839 148.493 242.379 151.513C251.576 153.594 270.283 160.994 292.785 171.488H292.794Z" fill="#CDDBB5"/>
<path fill-rule="evenodd" clip-rule="evenodd" d="M320.692 175.84C321.746 182.967 312.806 184.098 294.43 180.996C302.16 178.45 303.177 176.214 297.428 172.637C313.42 169.754 320.719 169.781 320.692 175.84ZM220.466 175.84C219.412 182.967 228.352 184.098 246.738 180.996C239.008 178.45 237.99 176.214 243.748 172.637C227.756 169.754 220.448 169.781 220.476 175.84H220.466Z" fill="#9BB174"/>
<path fill-rule="evenodd" clip-rule="evenodd" d="M290.723 179.791C292.264 180.083 293.502 180.485 294.428 181.005C302.158 178.459 303.176 176.224 297.427 172.647C296.115 172.711 294.639 172.537 292.988 172.145C293.594 174.818 292.016 178.523 290.723 179.791ZM250.441 179.791C248.891 180.083 247.653 180.485 246.727 181.005C238.997 178.459 237.979 176.224 243.738 172.647C245.04 172.711 246.516 172.537 248.167 172.145C247.571 174.818 249.139 178.523 250.441 179.791Z" fill="#F1BBA2"/>
<path fill-rule="evenodd" clip-rule="evenodd" d="M304.731 141.358C305.364 136.211 305.208 130.901 304.255 125.389C301.87 125.909 299.23 126.493 296.359 127.132C295.864 127.242 295.351 127.36 294.828 127.47C295.351 136.914 295.507 145.017 295.268 151.787C299.963 148.019 303.118 144.542 304.722 141.358H304.731Z" fill="#F1BBA2"/>
<path fill-rule="evenodd" clip-rule="evenodd" d="M236.428 141.358C235.796 136.211 235.961 130.901 236.905 125.389C239.289 125.909 241.93 126.493 244.809 127.132C245.305 127.242 245.827 127.36 246.341 127.47C245.809 136.914 245.662 145.017 245.901 151.787C241.197 148.019 238.042 144.542 236.437 141.358H236.428Z" fill="#F1BBA2"/>
<path fill-rule="evenodd" clip-rule="evenodd" d="M297.549 139.989C297.512 136.312 297.366 131.959 297.146 126.94C296.889 126.995 296.614 127.05 296.357 127.123C295.862 127.232 295.348 127.351 294.826 127.461C295.147 133.282 295.339 138.593 295.376 143.402C295.798 142.909 296.302 142.325 296.88 141.668C298.503 140.974 300.126 140.637 301.758 140.646C299.878 140.071 298.484 139.861 297.558 139.998L297.549 139.989ZM243.603 139.989C243.649 136.312 243.787 131.959 244.007 126.94C244.273 126.995 244.53 127.05 244.796 127.123C245.291 127.232 245.813 127.351 246.327 127.461C246.006 133.282 245.813 138.593 245.777 143.402C245.346 142.909 244.851 142.325 244.282 141.668C242.65 140.974 241.027 140.637 239.395 140.646C241.274 140.071 242.668 139.861 243.594 139.998L243.603 139.989Z" fill="#CF9980"/>
<path fill-rule="evenodd" clip-rule="evenodd" d="M246.616 130.125H294.537C294.986 130.125 295.362 130.499 295.362 130.955V152.399C289.64 154.05 281.617 157.007 272.053 160.985H269.082C259.518 157.016 251.494 154.05 245.781 152.399V130.955C245.781 130.499 246.157 130.125 246.607 130.125H246.616Z" fill="#F5F5F5"/>
<path fill-rule="evenodd" clip-rule="evenodd" d="M248.023 153.065C253.525 154.78 260.714 157.49 269.096 160.976L269.169 161.012L269.747 160.976H271.415L271.993 161.012C280.402 157.508 287.628 154.798 293.148 153.065V135.353C289.993 139.323 283.74 142.607 275.716 144.569C275.753 144.834 275.771 145.099 275.771 145.381C275.771 148.228 273.451 150.537 270.59 150.537C268.023 150.537 265.895 148.685 265.473 146.239C263.163 146.449 260.779 146.559 258.339 146.559C254.763 146.559 251.297 146.321 248.023 145.892V153.074V153.065Z" fill="#DCDCDC"/>
<path fill-rule="evenodd" clip-rule="evenodd" d="M265.567 67.8115C268.795 72.2827 273.921 76.2064 280.954 79.6008C279.203 84.8293 276.553 89.9483 270.748 90.8973C265.191 90.0122 262.12 86.0155 260.863 80.349C263.843 77.0458 265.411 72.8667 265.567 67.8115Z" fill="#F1BBA2"/>
<path fill-rule="evenodd" clip-rule="evenodd" d="M286.624 70.6493C286.624 61.8256 279.361 54.6079 270.503 54.6079C261.645 54.6079 254.383 61.8256 254.383 70.6493V95.8886C257.024 94.9761 259.986 94.2279 263.259 93.6256C263.626 92.9778 264.075 92.4212 264.589 91.9649C264.983 94.2826 266.973 96.4087 270.577 98.3523C274.162 96.4087 276.152 94.2826 276.555 91.9649C277.078 92.4212 277.527 92.9778 277.885 93.6256C281.103 94.2096 284.019 94.9487 286.624 95.843V70.6493ZM265.57 67.8115C268.798 72.2827 273.924 76.2063 280.957 79.6008C279.205 84.8293 276.555 89.9483 270.751 90.8973C265.194 90.0122 262.122 86.0155 260.866 80.349C263.846 77.0458 265.414 72.8667 265.57 67.8115Z" fill="#5A595A"/>
<path fill-rule="evenodd" clip-rule="evenodd" d="M276.559 91.9557C276.155 91.3261 275.871 90.2129 275.706 88.6069C274.367 89.7567 272.744 90.5688 270.754 90.8973C268.425 90.5323 266.536 89.6107 265.023 88.2419C264.978 89.7202 264.831 90.952 264.602 91.9557C264.996 94.2734 266.986 96.3995 270.589 98.3431C274.175 96.3995 276.165 94.2734 276.568 91.9557H276.559Z" fill="#F1BBA2"/>
<path fill-rule="evenodd" clip-rule="evenodd" d="M275.868 89.8205C275.804 89.4555 275.749 89.0449 275.703 88.6069C274.364 89.7567 272.741 90.5688 270.751 90.8973C268.422 90.5323 266.533 89.6107 265.02 88.2419C265.002 88.7712 264.974 89.2548 264.938 89.7202C266.322 90.66 268.284 91.463 270.797 92.12C272.393 91.7002 274.08 91.1071 275.868 89.8205Z" fill="#CF9980"/>
<path fill-rule="evenodd" clip-rule="evenodd" d="M254.383 84.3914H261.673L260.738 113.974H257.327L257.969 104.356L256.282 113.974H251.688C253.375 107.039 254.97 91.7825 254.383 84.3914Z" fill="#5A595A"/>
<path fill-rule="evenodd" clip-rule="evenodd" d="M279.407 84.7472L286.229 84.1724C286.073 94.7845 286.22 107.194 287.421 114.376H283.982L283.716 113.481L283.313 114.376H282.084L281.25 108.198L281.011 114.376H278.48L279.416 84.7472H279.407Z" fill="#5A595A"/>
<path fill-rule="evenodd" clip-rule="evenodd" d="M270.591 142.033C272.443 142.033 273.947 143.529 273.947 145.382C273.947 147.234 272.443 148.712 270.591 148.712C268.738 148.712 267.234 147.216 267.234 145.382C267.234 143.547 268.738 142.033 270.591 142.033Z" fill="#BCBCBC"/>
<path fill-rule="evenodd" clip-rule="evenodd" d="M248.371 171.488C247.216 174.407 249.334 179.134 250.783 180.074C277.008 177.455 293.376 173.787 303.49 168.695C306.498 167.044 311.762 166.332 314.962 164.215C322.719 156.085 316.915 145.409 309.222 145.929C303.857 146.96 301.326 148.493 298.777 151.513C289.589 153.594 270.874 160.994 248.38 171.488H248.371Z" fill="#CDDBB5"/>
<path fill-rule="evenodd" clip-rule="evenodd" d="M268.826 160.875C254.485 166.423 243.197 168.659 234.953 167.564C235.962 167.911 236.897 168.276 237.677 168.705C240.317 170.037 243.389 171.269 246.947 172.409C247.341 172.345 247.763 172.254 248.176 172.154C248.231 171.926 248.295 171.707 248.387 171.497C256.346 167.774 263.829 164.452 270.596 161.605C270.119 161.405 269.642 161.213 269.184 161.021C269.156 161.012 269.138 161.003 269.11 160.985C269.028 160.958 268.936 160.921 268.845 160.885L268.826 160.875Z" fill="#A1B57F" fill-opacity="0.709804"/>
<path fill-rule="evenodd" clip-rule="evenodd" d="M293.089 172.756C287.046 174.608 279.636 176.224 270.586 177.62C276.464 178.523 283.038 179.335 290.393 180.074C290.493 180.001 290.613 179.901 290.732 179.791C291.933 178.614 293.364 175.366 293.089 172.756Z" fill="#A1B57F" fill-opacity="0.709804"/>
<path fill-rule="evenodd" clip-rule="evenodd" d="M263.326 66.525C266.077 64.5358 268.231 64.4263 269.781 66.2056C269.919 71.0965 268.341 75.0384 265.095 78.0314C265.921 75.7319 265.334 71.8904 263.316 66.525H263.326Z" fill="#5A595A"/>
</g>
<rect x="1" y="134" width="352" height="153" fill="url(#paint0_linear_2001_4)"/>
</g>
<defs>
<linearGradient id="paint0_linear_2001_4" x1="177" y1="131.362" x2="177" y2="287" gradientUnits="userSpaceOnUse">
<stop stop-color="white" stop-opacity="0"/>
<stop offset="1" stop-color="#F8F7DC"/>
</linearGradient>
<clipPath id="clip0_2001_4">
<rect width="353" height="287" fill="white"/>
</clipPath>
<clipPath id="clip1_2001_4">
<rect width="348.515" height="243.633" fill="white" transform="translate(11 20.5906)"/>
</clipPath>
</defs>
</svg>
