<svg width="560" height="558" viewBox="0 0 560 558" fill="none" xmlns="http://www.w3.org/2000/svg">
<g clip-path="url(#clip0_49_7723)">
<path d="M484.543 9.77478C481.861 10.4221 479.163 8.77025 478.52 6.08687C477.877 3.40422 479.534 0.708445 482.219 0.0705864C484.896 -0.566543 487.584 1.08533 488.225 3.76214C488.866 6.43823 487.219 9.1289 484.543 9.77478Z" fill="white"/>
<path d="M436.706 45.4338C429.711 46.9618 422.795 42.5573 421.22 35.5722C419.645 28.5878 424.004 21.6413 430.977 20.0201C438.018 18.3835 445.044 22.7924 446.634 29.8438C448.224 36.8953 443.768 43.892 436.706 45.4338Z" fill="white"/>
<path d="M304.206 256.18C234.94 271.311 166.446 227.694 150.853 158.522C135.26 89.3563 178.422 20.5664 247.479 4.51131C317.2 -11.6954 386.784 31.9652 402.529 101.795C418.267 171.624 374.144 240.912 304.206 256.18Z" fill="white"/>
<path d="M289.45 60.6284C285.679 64.2383 282.375 68.6392 280.39 73.4942C286.168 80.4443 292.23 89.7541 291.429 99.2899C291.408 99.537 291.378 99.7827 291.353 100.028C290.126 98.4552 289.964 95.1508 289.515 93.1818C287.663 85.066 283.201 76.9547 275.871 72.6843C267.478 68.2273 259.94 68.446 250.737 69.7006C243.103 71.0915 236.372 73.7617 230.289 78.6729C223.836 82.4118 219.177 91.6327 217.293 98.5689C214.064 110.463 216.065 122.383 216.604 134.433C216.357 135.62 216.355 135.765 215.49 136.597C214.62 128.811 213.829 120.825 213.898 112.982C214.014 99.6945 217.803 87.9295 227.426 78.5147C237.192 70.8611 245.422 68.9482 257.387 67.039C259.363 67.0325 261.341 67.0441 263.315 67.0106C269.001 68.0749 273.972 69.5599 278.794 72.8498L282.48 66.8182C291.327 54.4889 301.337 45.8366 316.718 43.3092C329.954 41.1347 344.508 44.1417 355.406 52.0891C364.292 58.569 370.179 68.3177 373.047 78.8522C374.616 84.6133 375.282 90.9992 379.472 95.5962C383.097 99.5735 388.318 101.58 393.171 103.589C397.373 105.102 401.543 106.57 405.508 108.651C411.62 112.866 414.885 118.012 416.262 125.324C417.633 132.604 416.835 140.018 415.695 147.266C414.07 142.979 417.297 137.134 415.527 132.784C415.506 131.806 415.417 130.85 415.303 129.879C414.347 121.713 411.813 115.719 405.274 110.548C401.531 108.068 397.114 106.778 392.914 105.288C384.64 102.208 377.381 98.5259 374.159 89.7359C373.074 86.7748 372.556 83.5257 371.751 80.4742C369.215 70.8764 364.685 62.2788 357.134 55.6968C347.236 47.0686 333.717 43.3924 320.745 44.4122C308.311 45.3898 297.506 51.2107 289.45 60.6284Z" fill="#4D261D"/>
<path d="M280.389 73.4939C282.374 68.6389 285.678 64.2381 289.449 60.6282C289.581 60.6187 289.715 60.6267 289.843 60.5997C291.351 60.2841 296.708 55.8635 298.779 54.6993C312.961 46.7279 330.999 46.2184 345.396 54.0192C358.558 61.1508 364.831 72.8379 369.293 86.644C371.42 93.2216 373.277 99.9363 378.62 104.72C382.527 108.217 387.621 110.003 392.382 112.002C395.032 113.317 397.673 114.651 400.303 116.007C405.704 119.485 409.45 122.367 412.89 127.87C413.852 129.41 414.46 131.383 415.527 132.783C417.297 137.134 414.07 142.979 415.694 147.266C414.023 158.489 408.679 168.742 402.797 178.295C401.21 178.674 399.661 178.37 398.103 179.092C392.66 181.616 391.203 188.588 389.266 193.728C383.115 187.71 383.53 178.743 376.742 173.17C369.201 166.979 358.011 166.826 349.526 162.167C339.891 156.878 332.456 146.41 325.415 138.133C328.61 147.908 333.331 154.155 337.49 163.036C333.944 162.842 330.436 162.198 327.052 161.119C307.236 154.778 300.397 136.878 291.663 120.123C291.773 119.459 291.784 119.189 291.694 118.555L290.939 118.829C285.761 119.756 276.591 131.058 273.701 135.196C272.628 136.732 271.051 138.621 270.586 140.41L269.56 141.071C269.585 141.334 269.577 141.668 269.669 141.915C267.138 144.211 265.198 148.826 263.503 151.838C258.259 161.152 244.871 187.381 238.554 193.464C236.507 187.909 233.977 181.924 228.308 179.156C225.398 177.735 221.607 177.466 218.563 178.616C217.338 179.078 216.04 179.968 214.816 180.29C213.259 170.485 211.688 160.383 212.527 150.439C212.8 147.203 215.949 138.835 215.489 136.597C216.355 135.765 216.357 135.62 216.604 134.433C218.383 131.811 220.176 129.275 222.187 126.825C222.813 121.606 223.685 116.42 224.802 111.284C227.921 97.5241 233.833 86.0915 245.967 78.3978C250.131 76.259 254.087 74.5553 258.62 73.3525C264.378 72.4493 270.056 72.2583 275.87 72.684C283.2 76.9544 287.663 85.0658 289.514 93.1815C289.963 95.1505 290.125 98.455 291.353 100.028C291.378 99.7825 291.408 99.5368 291.428 99.2897C292.23 89.7539 286.167 80.444 280.389 73.4939ZM355.473 107.966C356.468 114.311 367.144 125.445 372.357 129.172C372.841 129.518 373.336 129.824 373.846 130.129L374.406 129.937C374.321 129.843 374.239 129.746 374.152 129.655C371.009 126.392 367.013 123.823 364.131 120.257C362.501 118.24 357.154 108.667 355.473 107.966ZM268.757 117.175C263.165 128.84 254.538 139.33 241.924 143.677C240.403 144.201 234.319 145.202 233.723 145.85L234.059 146.541C244.278 145.895 254.137 139.049 260.701 131.544C263.45 128.402 268.433 121.833 269.093 117.678L268.757 117.175Z" fill="#7F4A43"/>
<path d="M421.563 92.181C415.837 97.3174 410.297 102.611 405.51 108.651C411.622 112.867 414.887 118.012 416.264 125.324C417.635 132.604 416.837 140.018 415.697 147.266C414.025 158.489 408.681 168.742 402.8 178.296C407.874 178.623 412.671 179.884 416.173 183.854C419.585 187.723 420.879 193.243 420.421 198.3C419.62 207.153 414.03 215 407.351 220.534C402.891 224.23 396.673 227.861 390.668 227.149C389.036 226.956 387.387 226.497 385.793 226.099C382.263 242.037 377.367 257.206 368.589 271.107L369.171 271.106C376.489 271.092 383.766 271.077 391.016 272.266C415.789 276.33 440.625 290.58 458.308 308.251C463.825 313.764 468.487 319.734 473.407 325.754C473.848 304.519 473.46 283.194 473.458 261.951C473.457 254.18 472.691 242.008 473.863 234.826C474.353 231.825 475.811 228.947 477.842 226.693C481.182 222.985 486.207 221.089 491.135 220.942C497.973 220.739 504.29 224.029 509.208 228.544C509.162 225.231 508.812 221.87 509.047 218.562C509.388 213.775 511.594 209.142 515.316 206.058C519.518 202.577 525.302 201.705 530.595 202.326C537.536 203.141 541.286 206.815 545.405 212.035C546.898 206.514 548.93 202.224 554.067 199.144C558.401 196.579 563.589 195.875 568.45 197.192C573.104 198.441 576.84 201.71 579.183 205.86C582.916 212.472 581.712 221.797 581.673 229.208C585.415 224.759 589.598 221.937 595.516 221.469C600.937 221.041 606.385 222.658 610.436 226.361C614.845 230.392 616.607 235.494 616.751 241.317C617.047 253.309 616.52 265.332 616.766 277.325C621.45 274.156 626.437 272.261 632.19 273.351C636.894 274.242 641.263 276.903 643.969 280.882C645.493 283.124 646.424 285.525 646.751 288.207C647.363 293.205 646.998 298.483 646.965 303.524L646.729 330.15C646.683 334.198 647.299 339.053 646.642 343.005C646.992 344.772 647.363 346.535 647.756 348.293C650.182 345.926 653.079 343.96 655.649 341.736C657.773 339.898 659.581 337.783 661.605 335.842C663.929 334.036 669.911 325.916 671.757 323.635C699.65 288.859 712.364 244.316 707.035 200.057C702.302 157.394 677.857 115.432 644.399 88.8554C606.704 59.0102 558.626 45.5065 510.905 51.3602C477.299 55.2114 446.695 69.6365 421.563 92.181Z" fill="white"/>
<path d="M250.743 69.7007C259.947 68.4461 267.484 68.2274 275.877 72.6844C270.063 72.2586 264.385 72.4496 258.627 73.3528C256.268 72.134 253.482 71.4342 251.001 70.415L250.743 69.7007Z" fill="white"/>
<path d="M392.921 105.288C397.12 106.778 401.537 108.068 405.28 110.549C403.212 112.13 401.79 113.877 400.31 116.007C397.68 114.652 395.039 113.317 392.389 112.003C392.581 109.766 392.758 107.528 392.921 105.288Z" fill="white"/>
<path d="M374.416 129.937L373.856 130.13C373.346 129.824 372.851 129.519 372.367 129.173C367.155 125.445 356.478 114.312 355.484 107.967C357.164 108.668 362.511 118.24 364.142 120.258C367.023 123.823 371.019 126.392 374.162 129.656C374.25 129.746 374.331 129.843 374.416 129.937Z" fill="#4D261D"/>
<path d="M405.279 110.548C411.818 115.719 414.353 121.713 415.308 129.878C415.422 130.85 415.511 131.806 415.533 132.783C414.466 131.383 413.858 129.41 412.896 127.87C409.456 122.367 405.71 119.485 400.309 116.007C401.789 113.876 403.211 112.129 405.279 110.548Z" fill="white"/>
<path d="M234.061 146.541L233.725 145.851C234.321 145.203 240.405 144.201 241.926 143.677C254.54 139.33 263.167 128.84 268.76 117.176L269.096 117.678C268.435 121.833 263.453 128.402 260.704 131.545C254.139 139.049 244.28 145.895 234.061 146.541Z" fill="#4D261D"/>
<path d="M290.947 118.83L291.702 118.556C291.792 119.19 291.782 119.46 291.672 120.123C285.733 130.004 281.549 138.211 269.677 141.915C269.585 141.669 269.593 141.335 269.568 141.071L270.594 140.411C281.061 136.824 286.127 128.06 290.947 118.83Z" fill="#4D261D"/>
<path d="M270.596 140.41C271.062 138.621 272.639 136.732 273.712 135.196C276.602 131.058 285.772 119.756 290.949 118.829C286.129 128.06 281.064 136.823 270.596 140.41Z" fill="#E9B49C"/>
<path d="M269.678 141.916C281.55 138.211 285.734 130.004 291.673 120.123C300.406 136.879 307.245 154.779 327.061 161.12C330.445 162.199 333.953 162.843 337.499 163.037C333.341 154.156 328.62 147.909 325.424 138.134C332.466 146.41 339.901 156.879 349.535 162.168C358.02 166.827 369.21 166.98 376.751 173.171C383.54 178.744 383.124 187.711 389.275 193.729C391.212 188.589 392.669 181.617 398.113 179.093C399.67 178.371 401.22 178.675 402.807 178.296C407.881 178.623 412.678 179.885 416.18 183.855C419.592 187.723 420.886 193.244 420.428 198.301C419.627 207.154 414.037 215.001 407.358 220.535C402.898 224.231 396.68 227.862 390.675 227.15C389.044 226.956 387.394 226.498 385.8 226.1C382.27 242.038 377.374 257.207 368.596 271.108C364.402 276.861 360.287 282.166 355.058 287.044L353.098 288.828C353.604 302.022 353.275 312.829 343.773 323.053C336.47 330.911 326.153 335.212 315.491 335.526C307.244 335.77 300.265 333.512 293.07 329.635C267.855 311.932 279.196 290.809 274.228 285.276C271.237 283.979 262.922 273.591 260.483 270.705C251.243 257.245 244.606 242.172 240.916 226.267C238.612 226.765 236.132 227.097 233.775 226.931C224.474 226.274 217.188 220.643 211.341 213.822C209.121 209.252 207.637 205.067 206.947 200.028C206.916 194.317 208.147 189.665 210.851 184.649C212.144 183.167 213.468 181.714 214.825 180.291C216.049 179.969 217.347 179.079 218.573 178.617C221.616 177.467 225.407 177.736 228.318 179.157C233.986 181.925 236.517 187.91 238.564 193.465C244.88 187.382 258.269 161.153 263.512 151.839C265.208 148.827 267.147 144.212 269.678 141.916ZM275.719 165.529C269.231 166.064 263.546 167.848 259.207 173.055C257.107 175.574 255.818 178.458 254.763 181.533C258.831 178.232 262.813 174.982 267.786 173.128C271.221 172.027 274.782 171.224 278.411 171.691C282.026 172.157 288.13 176.467 291.257 174.401C291.725 173.475 291.833 172.788 291.526 171.789C290.899 169.758 288.855 168.717 287.058 167.872C283.58 166.234 279.548 165.504 275.719 165.529ZM351.168 166.611C347.578 167.087 341.762 167.867 339.28 170.785C338.673 171.498 338.513 172.499 338.663 173.39C338.778 174.08 339.064 174.253 339.501 174.757C342.712 175.964 348.791 172.488 352.381 172.141C355.451 171.845 358.197 172.438 361.102 173.325L361.591 173.53C364.16 174.618 368.327 178.216 371.068 177.592C371.426 177.51 371.638 177.338 371.924 177.144C372.27 176.108 372.205 175.427 371.687 174.446C369.662 170.605 364.458 168.311 360.419 167.237C357.538 166.471 354.125 166.18 351.168 166.611ZM220.988 193.958C221.127 194.046 221.264 194.14 221.406 194.226C223.098 195.259 226.383 194.867 227.425 196.736C227.044 197.557 226.773 197.726 226.102 198.315C223.793 200.341 222.195 202.822 222.048 205.967C221.926 208.554 222.989 210.949 224.73 212.825C228.048 216.4 232.937 217.797 237.681 217.865C238.293 217.875 238.814 217.85 239.412 217.731C239.667 217.317 239.802 217.067 239.935 216.59C235.254 217.043 230.672 216.611 226.85 213.555C224.836 211.946 223.279 209.633 223.018 207.022C222.77 204.545 223.766 202.2 225.385 200.361C226.538 199.051 227.94 198.056 229.379 197.089C227.401 195.225 225.12 193.715 222.293 193.748C221.839 193.753 221.424 193.837 220.988 193.958ZM399.333 195.663C402.046 196.717 404.231 197.662 405.57 200.459C406.538 202.482 406.406 204.798 405.611 206.852C404.244 210.383 401.147 213.193 397.654 214.553C394.887 215.629 388.252 215.374 387.634 215.78L387.93 216.283C393.414 216.663 398.274 216.535 402.67 212.697C405.233 210.459 407.156 207.17 407.242 203.708C407.295 201.593 406.63 199.308 405.08 197.805C403.606 196.374 401.706 195.542 399.653 195.642C399.547 195.647 399.44 195.656 399.333 195.663ZM349.835 202.362C347.422 202.558 345.302 204.042 344.291 206.242C343.28 208.442 343.535 211.016 344.958 212.975C346.381 214.935 348.751 215.973 351.156 215.691C354.784 215.266 357.403 212.012 357.043 208.378C356.682 204.743 353.476 202.067 349.835 202.362ZM280.442 202.78C277.15 204.079 275.48 207.752 276.667 211.086C277.853 214.419 281.47 216.211 284.841 215.137C287.124 214.408 288.829 212.494 289.288 210.142C289.748 207.789 288.887 205.374 287.045 203.841C285.203 202.308 282.671 201.902 280.442 202.78ZM309.039 202.382C309.407 207.222 310.273 211.89 309.629 216.761C308.876 222.461 301.003 232.386 306.544 237.116C309.418 239.568 314.765 239.588 318.375 239.157C323.125 238.589 327.851 236.839 331.635 233.879C331.284 233.826 330.936 233.683 330.583 233.721C329.79 233.803 327.868 235.13 327.055 235.519C322.201 237.843 316.682 238.881 311.333 238.081C309.482 237.805 307.473 237.249 306.341 235.63C305.256 234.078 305.233 231.921 305.691 230.15C306.129 228.459 307.027 226.815 307.773 225.241C310.131 220.271 311.115 216.406 310.911 210.855C310.813 208.212 310.719 205.493 309.79 202.988L309.039 202.382ZM271.652 227.451C267.549 228.04 263.79 229.414 261.276 232.923C259.326 235.644 258.702 239.056 259.384 242.317C260.059 245.499 261.967 248.283 264.692 250.06C267.281 251.761 270.239 252.355 273.289 252.477C277.06 251.89 280.302 250.899 282.742 247.725C284.685 245.182 285.522 241.962 285.065 238.795C284.601 235.356 282.744 232.035 279.946 229.963C277.485 228.141 274.678 227.471 271.652 227.451ZM359.364 227.451C355.12 228.206 351.37 229.731 348.821 233.414C346.937 236.089 346.241 239.424 346.901 242.629C347.601 245.95 349.753 248.769 352.662 250.481C355.247 252.002 357.944 252.374 360.866 252.614C364.921 251.902 368.398 250.837 370.886 247.267C372.83 244.478 373.411 240.896 372.722 237.59C372.023 234.163 369.906 231.192 366.894 229.412C364.499 227.997 362.073 227.639 359.364 227.451ZM293.696 255.812C295.227 262.272 298.154 267.587 303.995 271.164C309.419 274.486 316.395 275.58 322.564 274.007C326.566 272.953 330.228 270.883 333.194 267.997C336.671 264.327 338.665 260.858 340.141 256.022C324.699 255.693 309.138 255.572 293.696 255.812ZM279.049 289.909C281.649 293.913 294.987 301.544 299.793 302.389C300.257 302.472 300.734 302.461 301.203 302.466C296.881 300.279 292.322 298.324 288.126 295.918C285.314 294.305 281.852 290.972 279.049 289.909ZM349.532 291.858C337.798 301.17 323.715 305.705 308.719 304.029C307.398 303.882 302.626 302.683 301.68 303.249C301.992 304.002 301.762 303.752 302.227 304.11C315.959 307.068 330.696 305.449 342.688 297.804C345.202 296.191 347.562 294.351 349.741 292.307L349.532 291.858Z" fill="#E9B49C"/>
<path d="M254.762 181.532C255.816 178.457 257.106 175.573 259.205 173.054C263.544 167.847 269.23 166.063 275.718 165.528C279.546 165.503 283.578 166.233 287.057 167.871C288.853 168.717 290.898 169.758 291.524 171.788C291.832 172.787 291.724 173.475 291.255 174.4C288.129 176.466 282.025 172.156 278.41 171.69C274.781 171.223 271.22 172.026 267.785 173.128C262.812 174.981 258.83 178.231 254.762 181.532Z" fill="#4D261D"/>
<path d="M361.101 173.325C358.196 172.438 355.45 171.845 352.38 172.141C348.79 172.488 342.711 175.964 339.5 174.757C339.063 174.253 338.777 174.08 338.662 173.39C338.513 172.498 338.672 171.498 339.279 170.784C341.761 167.866 347.577 167.086 351.167 166.61C354.124 166.179 357.537 166.47 360.418 167.236C364.457 168.31 369.661 170.604 371.686 174.445C372.204 175.426 372.269 176.107 371.923 177.143C371.637 177.337 371.425 177.51 371.067 177.592C368.326 178.216 364.159 174.618 361.59 173.53L361.101 173.325Z" fill="#4D261D"/>
<path d="M239.933 216.589C239.8 217.066 239.665 217.316 239.41 217.73C238.811 217.849 238.291 217.874 237.679 217.864C232.935 217.796 228.046 216.399 224.728 212.824C222.987 210.948 221.924 208.553 222.046 205.966C222.193 202.821 223.791 200.34 226.1 198.314C226.771 197.726 227.042 197.556 227.423 196.736C226.381 194.866 223.095 195.259 221.403 194.225C221.262 194.139 221.125 194.046 220.986 193.957C221.422 193.837 221.836 193.752 222.291 193.747C225.118 193.714 227.399 195.224 229.377 197.089C227.938 198.055 226.536 199.05 225.383 200.36C223.764 202.199 222.768 204.545 223.016 207.022C223.277 209.632 224.834 211.945 226.848 213.555C230.67 216.611 235.252 217.042 239.933 216.589Z" fill="#1C0C0A"/>
<path d="M387.926 216.282L387.631 215.779C388.248 215.373 394.883 215.629 397.65 214.552C401.143 213.193 404.24 210.382 405.607 206.851C406.403 204.798 406.534 202.481 405.566 200.458C404.227 197.662 402.043 196.717 399.329 195.663C399.437 195.656 399.543 195.646 399.649 195.641C401.702 195.542 403.602 196.374 405.077 197.805C406.627 199.308 407.291 201.592 407.238 203.707C407.152 207.169 405.23 210.458 402.666 212.696C398.27 216.534 393.41 216.663 387.926 216.282Z" fill="#1C0C0A"/>
<path d="M545.411 212.035C546.904 206.514 548.936 202.224 554.073 199.144C558.407 196.579 563.595 195.875 568.456 197.192C573.11 198.441 576.846 201.71 579.189 205.86C582.922 212.472 581.718 221.797 581.679 229.208C581.693 231.319 582.414 237.504 580.888 238.902C580.703 239.071 580.371 239.265 580.151 239.402C578.645 228.549 583.562 212.275 575.72 203.545C572.639 200.116 568.281 198.25 563.69 198.171C559.149 198.093 554.596 199.816 551.43 203.111C547.998 206.686 547.32 210.639 547.425 215.38C546.277 214.341 545.926 213.479 545.411 212.035Z" fill="#4D261D"/>
<path d="M547.422 215.38C547.317 210.639 547.996 206.686 551.428 203.112C554.593 199.816 559.146 198.093 563.688 198.171C568.279 198.25 572.637 200.116 575.717 203.546C583.56 212.275 578.643 228.549 580.148 239.402C579.803 249.993 580.126 260.669 580.134 271.269C580.355 300.138 585.574 327.876 585.342 356.745C591.169 356.765 592.304 357.004 598.026 357.609C594.091 358.91 589.882 359.386 585.86 360.395C592.036 383.549 597.356 407.047 602.775 430.394C594.697 429.964 586.084 429.589 578.025 430.405C578.032 424.94 577.764 419.277 578.356 413.846C576.739 412.585 566.364 413.267 563.84 413.347C564.669 408.663 564.019 403.124 563.977 398.332L563.785 368.588L563.569 269.163L563.546 237.64C563.546 233.073 563.782 228.442 563.616 223.884C563.576 222.776 563.335 221.607 562.729 220.669C561.67 223.093 561.987 396.162 562.829 411.346C562.746 411.862 562.832 412.582 562.339 412.864C560.128 414.127 555.097 413.092 552.478 413.263L551.784 412.951C550.994 411.104 559.689 366.691 560.399 360.428C560.827 356.656 560.703 353.132 558.098 350.086C556.179 347.843 553.723 347.055 550.866 346.855L548.49 346.526C548.277 346.305 547.959 346.15 547.853 345.863C547.258 344.264 547.737 329.162 547.733 326.318L547.624 252.477L547.707 230.027C547.729 225.199 547.964 220.182 547.422 215.38Z" fill="url(#paint0_linear_49_7723)"/>
<path d="M351.162 215.69C348.757 215.972 346.387 214.934 344.964 212.974C343.54 211.016 343.285 208.441 344.296 206.241C345.307 204.041 347.427 202.557 349.841 202.361C353.481 202.066 356.687 204.742 357.048 208.377C357.408 212.011 354.79 215.265 351.162 215.69Z" fill="#1C0C0A"/>
<path d="M509.214 228.544C509.169 225.231 508.818 221.87 509.054 218.562C509.394 213.775 511.6 209.142 515.323 206.058C519.524 202.577 525.309 201.704 530.602 202.326C537.542 203.141 541.292 206.815 545.412 212.035C545.926 213.479 546.278 214.341 547.425 215.379C547.968 220.182 547.732 225.199 547.71 230.027L547.627 252.477L547.736 326.318C547.74 329.162 547.261 344.263 547.856 345.863C547.962 346.15 548.28 346.304 548.493 346.525L550.87 346.854C537.097 347.119 523.321 347.171 509.547 347.007L509.214 228.544ZM526.205 232.236C525.254 237.037 525.903 242.959 525.905 247.909L525.917 281.177L525.93 312.507C525.929 317.575 525.454 323.187 526.143 328.197L526.699 328.826C527.741 324.572 527.028 316.525 527.026 311.861L527.009 273.784L527.03 247.339C527.036 242.589 527.39 237.525 526.87 232.82L526.205 232.236Z" fill="#F37E60"/>
<path d="M284.843 215.136C281.472 216.211 277.856 214.418 276.669 211.085C275.482 207.752 277.153 204.078 280.445 202.78C282.674 201.902 285.206 202.308 287.048 203.841C288.89 205.374 289.75 207.789 289.291 210.141C288.832 212.494 287.126 214.408 284.843 215.136Z" fill="#1C0C0A"/>
<path d="M331.626 233.879C327.842 236.839 323.117 238.589 318.366 239.157C314.756 239.588 309.409 239.568 306.535 237.116C300.994 232.385 308.867 222.461 309.62 216.76C310.264 211.889 309.399 207.222 309.03 202.381L309.781 202.988C310.71 205.493 310.804 208.212 310.902 210.855C311.107 216.405 310.122 220.271 307.764 225.241C307.018 226.815 306.12 228.458 305.682 230.15C305.224 231.92 305.247 234.077 306.332 235.629C307.464 237.249 309.473 237.805 311.324 238.081C316.673 238.881 322.192 237.843 327.046 235.519C327.859 235.13 329.781 233.803 330.574 233.72C330.927 233.683 331.275 233.826 331.626 233.879Z" fill="#1C0C0A"/>
<path d="M473.408 325.754C473.849 304.519 473.462 283.195 473.459 261.951C473.459 254.18 472.693 242.009 473.865 234.826C474.355 231.825 475.813 228.947 477.844 226.693C481.184 222.985 486.209 221.089 491.136 220.943C497.974 220.739 504.292 224.029 509.209 228.544L509.542 347.007C501.894 346.951 494.246 346.954 486.598 347.015C484.555 343.677 482.78 340.168 480.731 336.825C478.421 333.057 475.799 329.473 473.408 325.754Z" fill="#E99E87"/>
<path d="M273.285 252.477C270.235 252.354 267.277 251.761 264.689 250.06C261.964 248.283 260.055 245.498 259.38 242.316C258.699 239.056 259.323 235.644 261.272 232.923C263.786 229.414 267.545 228.039 271.648 227.45C274.674 227.471 277.481 228.141 279.942 229.962C282.74 232.035 284.597 235.356 285.061 238.795C285.518 241.962 284.681 245.181 282.738 247.725C280.298 250.899 277.056 251.889 273.285 252.477Z" fill="#E99E87"/>
<path d="M360.871 252.614C357.949 252.373 355.252 252.002 352.667 250.48C349.758 248.769 347.606 245.95 346.906 242.629C346.247 239.424 346.942 236.089 348.826 233.414C351.375 229.73 355.125 228.205 359.369 227.45C362.079 227.638 364.504 227.997 366.899 229.412C369.911 231.191 372.028 234.163 372.728 237.59C373.416 240.896 372.835 244.478 370.891 247.267C368.403 250.837 364.926 251.902 360.871 252.614Z" fill="#E99E87"/>
<path d="M526.703 328.827L526.148 328.197C525.458 323.187 525.933 317.575 525.935 312.507L525.921 281.178L525.909 247.91C525.907 242.959 525.258 237.038 526.21 232.236L526.874 232.82C527.394 237.526 527.04 242.59 527.034 247.339L527.013 273.784L527.03 311.861C527.033 316.525 527.745 324.573 526.703 328.827Z" fill="#1C0C0A"/>
<path d="M333.187 267.996C330.221 270.882 326.56 272.952 322.557 274.006C316.389 275.579 309.412 274.485 303.988 271.163C298.148 267.586 295.221 262.271 293.69 255.812C309.131 255.572 324.693 255.692 340.134 256.022C338.658 260.858 336.665 264.326 333.187 267.996Z" fill="white"/>
<path d="M41.2237 316.804C36.0973 306.098 29.7567 288.919 33.7038 277.123C35.206 272.634 38.1693 268.903 42.4707 266.832C50.9166 262.762 62.3044 265.531 70.6184 268.602C76.7309 270.859 82.5751 273.723 88.3027 276.816C101.95 284.185 115.15 292.829 128.363 300.973C134.161 304.546 141.517 308.203 146.771 312.357C147.847 313.207 148.754 314.262 149.282 315.542C149.496 316.061 149.51 316.55 149.509 317.101C147.197 321.811 126.017 337.399 120.553 342.159C113.642 346.7 107.471 352.831 100.903 357.91L84.4982 371.598C82.0313 373.638 79.3982 376.204 76.5785 377.734C75.679 378.223 75.1031 378.406 74.1029 378.064C68.5882 376.18 49.6505 335.37 45.9576 327.89C45.4163 324.387 42.7713 320.047 41.2237 316.804Z" fill="#E99E87"/>
<path d="M174.149 304.006C197.224 282.753 229.375 271.474 260.485 270.705C262.924 273.591 271.238 283.979 274.229 285.276C273.428 287.505 273.677 290.295 273.664 292.643C273.62 300.545 273.909 307.656 277.338 314.925C280.322 321.252 285.25 326.965 291.216 330.653C299.15 336.225 308.971 338.16 318.524 337.397C329.153 336.548 339.723 331.356 346.575 323.143C355.476 312.477 356.214 300.345 355.06 287.044C360.289 282.166 364.404 276.861 368.598 271.108C376.113 271.094 383.583 271.047 391.025 272.267C415.798 276.33 440.634 290.581 458.317 308.252C463.834 313.765 468.496 319.734 473.416 325.754C475.807 329.474 478.428 333.057 480.738 336.825C482.787 340.169 484.562 343.678 486.606 347.016L409.432 347.21C404.205 347.232 384.142 346.793 380.929 347.842C380.656 347.931 380.486 348.206 380.264 348.388L380.191 348.683C370.279 349.478 360.075 349.033 350.132 349.041L300.067 349.079C292.86 349.074 292.743 348.264 285.967 349.202C283.874 349.491 281.896 350.648 280.483 352.208C279.331 353.479 278.536 355.166 278.239 356.852C277.282 362.29 277.41 368.325 277.123 373.847C276.502 384.62 275.961 395.396 275.5 406.176L273.558 442.156C273.205 448.527 272.623 454.995 272.611 461.375C256.086 461.289 227.884 461.319 211.358 461.467C212.878 453.731 215.272 446.143 217.198 438.498C220.296 426.198 223.129 413.804 226.564 401.593C227.597 397.921 233.516 381.712 233.46 379.765C233.025 379.012 233.06 378.963 232.246 378.684C230.067 380.434 228.011 390.554 226.661 393.821L226.433 394.365C225.585 376.332 220.649 359.028 208.865 344.975C196.985 330.808 178.76 320.327 160.187 318.737C162.092 316.893 163.768 314.655 165.554 312.679C168.292 309.65 171.191 306.818 174.149 304.006Z" fill="#6683C2"/>
<path d="M291.216 330.652C285.25 326.965 280.322 321.252 277.337 314.924C273.909 307.655 273.619 300.544 273.663 292.643C273.676 290.295 273.428 287.505 274.229 285.276C279.197 290.808 267.857 311.931 293.071 329.634L291.554 329.703C291.128 330.36 291.194 330.031 291.216 330.652Z" fill="#4B68A7"/>
<path d="M353.095 288.827L355.054 287.044C356.208 300.345 355.471 312.477 346.57 323.143C339.717 331.356 329.148 336.547 318.519 337.397C308.965 338.16 299.145 336.225 291.211 330.653C291.19 330.032 291.123 330.361 291.549 329.704L293.067 329.634C300.261 333.511 307.241 335.77 315.487 335.526C326.15 335.212 336.467 330.91 343.77 323.052C353.272 312.828 353.601 302.021 353.095 288.827Z" fill="#4B68A7"/>
<path d="M301.204 302.466C300.735 302.461 300.258 302.471 299.794 302.389C294.989 301.543 281.65 293.913 279.05 289.908C281.853 290.971 285.315 294.304 288.128 295.917C292.324 298.323 296.883 300.278 301.204 302.466Z" fill="#E99E87"/>
<path d="M302.223 304.109C301.758 303.751 301.988 304.002 301.677 303.248C302.622 302.683 307.395 303.882 308.716 304.029C323.711 305.704 337.794 301.17 349.528 291.858L349.738 292.307C347.559 294.351 345.198 296.191 342.684 297.803C330.692 305.448 315.955 307.068 302.223 304.109Z" fill="#E99F88"/>
<path d="M41.2268 316.804C42.7745 320.046 45.4194 324.387 45.9608 327.89C43.4259 333.066 41.4715 338.644 39.1828 343.949L20.7902 386.905C26.4499 399.197 31.4454 411.814 36.8753 424.213C44.3364 441.251 52.2255 458.301 58.9491 475.632C56.3521 476.605 53.2162 476.11 50.4558 476.815C41.9774 458.016 34.0897 438.862 26.0434 419.87C21.4106 408.935 16.3762 398.129 12.0221 387.083C12.9123 382.063 17.0607 374.315 19.1189 369.355L41.2268 316.804Z" fill="#7F4A43"/>
<path d="M158.987 319.991L160.181 318.737C178.754 320.327 196.979 330.808 208.858 344.974C220.643 359.028 225.579 376.331 226.427 394.364L226.655 393.82C228.004 390.554 230.061 380.434 232.24 378.684C233.053 378.963 233.018 379.011 233.453 379.765C233.51 381.711 227.59 397.92 226.557 401.593C223.122 413.804 220.29 426.197 217.191 438.497C215.265 446.143 212.871 453.731 211.352 461.467L209.093 461.777L209.185 459.653C210.761 454.59 211.909 449.388 213.488 444.311C213.501 444.281 213.514 444.252 213.525 444.221C215.811 437.348 217.014 430.03 218.8 423.005C220.527 416.21 222.968 409.308 224.082 402.397C226.186 389.348 221.856 371.145 215.976 359.443C207.742 343.052 192.215 330.064 174.931 324.131C169.793 322.367 164.369 321.811 159.295 320.099C159.191 320.064 159.089 320.027 158.987 319.991Z" fill="#4B68A7"/>
<path d="M110.949 410.735C122.873 378.75 138.082 347.101 158.986 319.991C159.089 320.027 159.191 320.064 159.295 320.099C164.369 321.811 169.793 322.367 174.931 324.131C192.215 330.065 207.741 343.052 215.976 359.443C221.856 371.146 226.186 389.348 224.082 402.397C222.968 409.308 220.527 416.21 218.8 423.005C217.014 430.03 215.811 437.348 213.524 444.222C213.514 444.252 213.5 444.281 213.488 444.311C210.58 443.535 207.335 443.31 204.351 442.838C198.965 441.986 193.604 440.986 188.273 439.84C168.481 435.466 148.532 429.781 130.167 421.079C123.586 417.96 117.319 414.254 110.949 410.735Z" fill="#6683C2"/>
<path d="M100.905 357.91C107.473 352.831 113.644 346.7 120.555 342.159C122.482 344.787 123.443 348.236 122.883 351.48C122.297 354.878 120.08 357.846 117.207 359.691C114.264 361.616 110.643 362.205 107.242 361.312C104.775 360.686 102.859 359.49 100.905 357.91Z" fill="#E9B49C"/>
<path d="M380.189 348.683L380.263 348.388C380.484 348.206 380.655 347.931 380.927 347.842C384.141 346.793 404.204 347.232 409.431 347.21L486.604 347.016C494.252 346.954 501.9 346.951 509.547 347.008C523.322 347.171 537.098 347.12 550.87 346.854C553.727 347.055 556.183 347.843 558.102 350.086C560.707 353.132 560.831 356.656 560.403 360.428C559.693 366.691 550.998 411.104 551.788 412.951L552.482 413.263L552.055 413.925L552.206 414.305C551.533 414.554 551.353 414.438 551.039 415.128C549.597 418.295 546.538 439.24 545.57 444.525C541.674 465.352 537.643 486.154 533.478 506.929C532.628 511.265 532.499 515.003 529.854 518.67C529.323 519.404 528.075 520.756 528.412 521.72C529.385 524.504 531.387 525.73 530.296 529.077C529.577 531.282 527.94 533.192 526.2 534.675L587.666 534.654L649.198 534.586C658.053 534.589 668.447 533.888 668.447 533.888H671.363H673.915H677.195C677.195 533.888 680.476 534.398 681.569 534.547C687.287 534.481 693.985 533.408 698.454 537.719C702.988 542.092 701.557 555.311 701.533 561.488C700.848 561.361 700.176 561.19 699.5 561.027C698.313 558.944 699.152 553.625 699.241 551.195C699.383 547.318 699.723 542.024 696.756 539.049C694.867 537.155 692.182 536.872 689.643 536.787C678.635 536.419 667.506 536.754 656.489 536.763L592.564 536.788L395.814 536.804L158.518 536.699L66.7314 536.788C47.0019 536.788 27.2204 536.471 7.49707 536.877C6.7409 537.316 5.9458 537.759 5.29373 538.347C0.36552 542.792 2.88816 554.932 2.37656 561.215L2.33916 561.626L0.569489 561.13C0.233428 560.215 0.237583 559.377 0.207986 558.417C0.0192527 552.288 -0.938702 541.566 3.73881 536.928C7.53315 533.165 22.5589 534.607 28.0369 534.573C36.2936 534.286 44.6278 534.502 52.8927 534.503L99.1164 534.534C107.721 534.536 116.472 534.863 125.051 534.335L127.521 534.246C131.124 534.663 135.087 534.383 138.729 534.38L160.441 534.351L227.478 534.499C226.996 534.135 226.522 533.775 226.068 533.377C223.878 531.454 222.039 529.195 221.91 526.169C221.829 524.276 222.663 522.594 224.003 521.287C224.925 520.388 225.96 519.875 227.224 519.638C230.848 518.956 234.934 519.31 238.619 519.326C244.91 519.382 251.202 519.376 257.492 519.305C261.407 519.28 265.357 519.146 269.268 519.318C270.096 519.478 270.883 519.605 271.722 519.69C272.386 519.758 272.612 519.876 273.131 520.265C271.762 521.185 269.294 521.14 267.637 521.721C265.498 522.902 262.446 524.57 261.628 527.027C261.248 528.167 261.34 529.215 261.956 530.238C262.937 531.869 264.624 532.933 266.157 533.991C275.964 535.303 287.353 534.421 297.34 534.429L358.67 534.455L463.703 534.548C482.163 534.575 501.116 535.154 519.521 534.493C521.546 534.42 523.198 534.007 524.861 532.806C526.497 531.624 527.859 529.882 528.194 527.851C528.444 526.336 528.128 524.888 527.219 523.648C526.536 522.717 525.644 522.118 524.558 521.733C524.702 520.926 525.008 520.302 525.352 519.565C526.404 519.108 527.452 518.669 528.284 517.853C529.258 516.896 529.558 515.773 529.875 514.485C531.226 509 532.088 503.291 533.16 497.74C535.314 486.77 537.413 475.789 539.456 464.798C543.807 441.683 548.568 418.665 552.504 395.472L556.214 373.677C557.085 368.851 558.509 363.611 558.598 358.711C558.655 355.588 558.337 353.181 556.021 350.911C554.432 349.352 553.011 349.1 550.864 348.907C544.471 348.329 537.717 348.737 531.289 348.742L495.242 348.756L380.189 348.683ZM228.485 521.635C227.007 521.889 225.451 522.218 224.486 523.492C223.627 524.626 223.718 526.397 224.099 527.699C224.799 530.089 226.73 531.732 228.911 532.78C234.655 535.541 254.698 534.364 262.256 534.335L262.493 534.039C261.003 532.117 259.036 530.074 259.461 527.465C259.85 525.077 261.974 523.127 263.61 521.489C251.92 521.519 240.166 521.285 228.485 521.635Z" fill="url(#paint1_linear_49_7723)"/>
<path d="M272.665 461.374C272.677 454.994 273.259 448.527 273.612 442.156L275.554 406.176C276.015 395.396 276.555 384.619 277.176 373.847C277.464 368.325 277.335 362.29 278.293 356.852C278.59 355.166 279.385 353.479 280.537 352.207C281.95 350.648 283.928 349.491 286.021 349.202C292.797 348.264 292.852 349.073 300.059 349.079L350.124 349.041C360.067 349.033 370.271 349.478 380.182 348.683L495.235 348.756L531.282 348.742C537.711 348.737 544.464 348.329 550.857 348.907C553.005 349.1 554.425 349.352 556.015 350.91C558.33 353.181 558.648 355.588 558.591 358.711C558.503 363.611 557.078 368.851 556.207 373.677L552.497 395.472C548.562 418.665 543.801 441.683 539.449 464.798C537.406 475.789 535.307 486.77 533.153 497.74C532.082 503.291 531.219 509 529.868 514.485C529.551 515.772 529.252 516.896 528.277 517.853C527.445 518.669 526.398 519.108 525.345 519.565C522.14 519.164 518.646 519.384 515.409 519.373L497.14 519.329L436.007 519.246L326.015 519.188C307.159 519.191 299.835 518.599 281 519.318C277.089 519.146 269.915 520.144 266 520.169C265.825 512.303 269.931 503.261 270.417 495.407C271.12 484.072 271.649 472.686 272.665 461.374ZM402.109 417.101C396.996 417.695 392.598 420.995 390.599 425.74C388.601 430.485 389.313 435.938 392.461 440.012C395.61 444.085 400.708 446.148 405.803 445.409C413.528 444.29 418.922 437.174 417.912 429.434C416.903 421.694 409.863 416.2 402.109 417.101Z" fill="#ECECEC"/>
<path d="M127.519 534.246C125.257 532.728 121.662 531.933 119.068 530.872C110.159 527.229 102.155 520.259 97.1558 512.045C84.7813 491.711 89.6167 470.602 96.8015 449.528C99.5075 441.702 102.288 433.902 105.141 426.129C106.985 421.188 109.637 416.252 110.864 411.127C110.895 410.997 110.923 410.865 110.952 410.735C117.322 414.254 123.589 417.96 130.17 421.078C148.535 429.781 168.484 435.466 188.276 439.84C193.607 440.986 198.968 441.986 204.354 442.838C207.338 443.31 210.583 443.535 213.491 444.311C211.912 449.388 210.764 454.59 209.188 459.653C204.53 460.038 166.509 463.18 164 464.482C163.758 464.608 163.636 464.888 163.454 465.091C163.524 465.629 163.418 465.915 163.89 466.272C164.725 466.905 165.754 466.922 166.763 466.892C171.089 466.764 175.518 465.835 179.842 465.415C188.491 464.575 198.322 464.433 206.697 462.558C207.537 462.37 208.325 462.168 209.096 461.777L211.355 461.467C227.88 461.319 256.222 461.288 272.747 461.374C271.731 472.686 271.203 484.072 270.5 495.407C270.014 503.261 269.132 511.439 269.307 519.305C263.016 519.376 256.725 519.382 238.618 519.325C234.932 519.31 230.847 518.956 227.222 519.637C225.958 519.875 224.924 520.388 224.001 521.287C222.661 522.593 221.827 524.276 221.908 526.168C222.037 529.195 223.876 531.454 226.067 533.376C226.52 533.775 226.995 534.135 227.477 534.498L160.439 534.351L138.727 534.38C135.085 534.382 131.123 534.663 127.519 534.246Z" fill="#E9B49C"/>
<path d="M257 520.5L278 360.5L293.5 387.5V520.5H257Z" fill="#ECECEC"/>
<path d="M562.831 411.346C563.113 412.227 563.137 412.703 563.842 413.347C566.366 413.267 576.741 412.584 578.358 413.845C575.996 415.175 556.174 414.343 552.204 414.305L552.053 413.925L552.48 413.263C555.1 413.092 560.13 414.127 562.341 412.863C562.834 412.582 562.748 411.862 562.831 411.346Z" fill="#1C0C0A"/>
<path d="M552.197 414.305C556.167 414.343 575.989 415.175 578.352 413.846C577.759 419.277 578.027 424.94 578.021 430.405C574.997 432.858 572.981 435.55 572.655 439.557C572.435 442.254 573.132 445.404 574.932 447.487C575.205 447.805 575.498 448.101 575.795 448.395C577.366 464.219 579.794 480.063 582.024 495.805C583.858 508.739 585.453 521.783 587.657 534.654L526.192 534.675C527.932 533.192 529.568 531.282 530.287 529.077C531.378 525.731 529.376 524.504 528.403 521.72C528.067 520.756 529.315 519.404 529.845 518.67C532.491 515.003 532.619 511.265 533.47 506.929C537.634 486.154 541.665 465.352 545.561 444.525C546.529 439.241 549.588 418.295 551.03 415.128C551.344 414.438 551.524 414.554 552.197 414.305Z" fill="white"/>
<path d="M405.805 445.409C400.71 446.147 395.612 444.085 392.463 440.012C389.314 435.938 388.603 430.485 390.601 425.74C392.599 420.995 396.997 417.695 402.111 417.1C409.864 416.2 416.904 421.694 417.914 429.434C418.923 437.174 413.53 444.29 405.805 445.409Z" fill="white"/>
<path d="M209.092 461.776C208.32 462.168 207.532 462.37 206.693 462.558C198.318 464.433 188.487 464.575 179.838 465.415C175.513 465.835 171.085 466.763 166.759 466.892C165.75 466.921 164.721 466.905 163.885 466.272C163.414 465.915 163.52 465.628 163.449 465.09C163.632 464.888 163.754 464.608 163.996 464.482C166.505 463.18 204.526 460.038 209.183 459.653L209.092 461.776Z" fill="#E99E87"/>
<path d="M58.9472 475.632C59.0179 475.713 59.0777 475.805 59.16 475.874C60.1522 476.705 65.4985 477.422 67.1599 477.965C78.6632 481.721 83.7755 495.672 85.7678 506.39C87.4919 515.669 87.4263 524.925 87.4409 534.311C99.9166 534.281 112.592 533.775 125.047 534.335C116.468 534.863 107.717 534.535 99.1126 534.533L52.8889 534.503C44.624 534.501 36.2898 534.285 28.0331 534.573C27.9894 520.412 27.5869 505.326 33.6555 492.178C37.3502 484.174 42.2159 479.858 50.4539 476.815C53.2143 476.11 56.3502 476.606 58.9472 475.632Z" fill="#E99E87"/>
<path d="M269.259 519.318C288.094 518.599 307.157 519.191 326.013 519.188L436.005 519.246L497.138 519.329L515.407 519.373C518.644 519.384 522.138 519.165 525.343 519.565C525 520.302 524.693 520.926 524.549 521.733C521.121 522.04 517.501 521.811 514.051 521.799L494.057 521.731L432.27 521.64L321.444 521.588C303.534 521.597 285.524 522.139 267.628 521.721C269.285 521.14 251.631 521.42 253 520.5C252.481 520.111 255.663 519.385 255 519.318C254.16 519.232 270.087 519.478 269.259 519.318Z" fill="#4B3634"/>
<path d="M262.256 534.334C254.698 534.364 234.655 535.541 228.911 532.78C226.73 531.732 224.799 530.089 224.099 527.699C223.717 526.397 223.627 524.626 224.486 523.492C225.451 522.217 227.007 521.889 228.485 521.635C240.166 521.285 251.92 521.519 263.609 521.489C261.974 523.127 259.85 525.076 259.461 527.465C259.036 530.074 261.003 532.117 262.493 534.038L262.256 534.334Z" fill="#ECECEC"/>
<path d="M524.554 521.732C525.64 522.117 526.532 522.717 527.215 523.647C528.125 524.888 528.44 526.336 528.19 527.851C527.856 529.882 526.493 531.623 524.857 532.806C523.194 534.007 521.543 534.42 519.517 534.493C501.112 535.154 482.159 534.575 463.699 534.547L358.666 534.455L297.336 534.428C287.349 534.42 267.807 535.311 258 534C256.467 532.942 253.982 531.131 253 529.5C252.384 528.477 252.12 526.64 252.5 525.5C253.318 523.043 256.36 522.768 258.5 521.587C276.396 522.005 303.539 521.597 321.449 521.587L432.275 521.64L494.062 521.73L514.056 521.799C517.505 521.81 521.126 522.039 524.554 521.732Z" fill="#ECECEC"/>
<path d="M2.34233 561.626L2.37973 561.215C2.89132 554.932 0.368686 542.791 5.29689 538.346C5.94896 537.759 6.74406 537.316 7.50024 536.876C27.2236 536.471 47.005 536.788 66.7346 536.787L158.521 536.698L395.817 536.804L592.567 536.787L656.492 536.762C667.509 536.754 678.638 536.418 689.646 536.786C692.185 536.872 694.87 537.155 696.76 539.049C699.726 542.023 699.386 547.317 699.244 551.194C699.155 553.624 698.316 558.944 699.503 561.027C700.179 561.189 700.851 561.36 701.536 561.488L196.073 561.545L56.4903 561.441L18.9584 561.409C13.7093 561.411 7.48711 560.761 2.34233 561.626Z" fill="#D4987C"/>
<path d="M572.365 376.363C568.119 378.083 563.918 379.92 559.681 381.661C560.745 383.785 561.495 386.151 562.344 388.374L567.129 400.861C569.691 407.337 572.172 413.844 574.572 420.382C575.58 423.093 576.951 425.964 577.593 428.782C582.44 428.862 587.3 428.787 592.148 428.776C591.245 427.125 590.692 424.996 590.055 423.215C588.851 419.841 587.62 416.476 586.363 413.122C585.516 411.583 584.676 409.338 584.243 407.637L584.412 407.487C583.803 406.939 573.766 379.882 572.365 376.363Z" fill="#F37E60"/>
<path d="M577.609 428.783C576.967 425.964 575.596 423.094 574.588 420.382C572.188 413.845 569.707 407.337 567.145 400.862L562.36 388.375C561.511 386.152 560.761 383.785 559.697 381.661L558.94 382.022C562.97 393.9 567.722 405.495 572.077 417.251C573.005 419.744 573.948 422.231 574.904 424.713C575.399 426.01 576.065 427.43 576.348 428.784L577.609 428.783Z" fill="#FEFEFE"/>
<path d="M612.054 431.587C613.902 431.575 620.316 431.273 621.737 431.694L622.747 431.768C624.244 431.619 625.875 431.733 627.384 431.734C631.365 431.736 635.409 431.877 639.384 431.67C640.617 431.365 644.959 431.513 646.284 431.734C647.458 431.762 648.637 431.811 649.812 431.778C649.765 440.169 649.766 448.56 649.813 456.952C649.82 461.555 649.586 466.256 649.867 470.844C650.484 469.407 650.933 467.849 651.434 466.366C652.704 462.609 653.846 458.81 655.076 455.04C657.615 447.255 660.44 439.535 662.844 431.712L674.068 431.673C681.227 431.559 688.477 431.462 695.632 431.656L690.462 445.567C685.398 459.814 680.633 474.166 676.171 488.613C675.098 491.932 674.057 495.262 673.049 498.601C672.175 501.502 671.378 504.447 670.326 507.29C665.334 499.239 660.054 491.321 654.853 483.402C653.545 481.41 652.263 479.398 650.937 477.418C650.202 476.322 649.372 475.253 648.697 474.121L641.494 463.283C640.277 461.455 639.132 459.384 637.692 457.74C637.071 457.032 636.194 456.219 635.242 456.014C634.334 455.818 633.231 456.097 632.469 456.606C631.782 457.063 631.239 457.783 631.1 458.608C631.004 459.178 631.09 459.698 631.32 460.223C632.264 462.369 633.945 464.43 635.259 466.385C637.447 469.637 639.492 472.978 641.657 476.245C642.972 478.228 644.953 480.82 645.994 482.866C650.418 489.308 654.567 495.987 658.821 502.545L664.271 510.983C665.339 512.642 666.486 514.29 667.436 516.018C665.127 522.603 662.892 529.214 660.732 535.849C663.608 536.019 666.561 535.884 669.446 535.879L685.732 535.822C686.121 533.508 686.365 531.151 686.691 528.826L688.789 513.966L695.44 466.99L698.751 443.634C699.249 440.137 700.347 434.704 700.245 431.375C700.229 430.864 699.933 430.384 699.514 430.075C698.713 429.485 680.242 429.759 678.05 429.759L597.097 429.898L572.67 429.912C568.583 429.911 563.716 429.614 559.732 430.062C559.346 430.307 559.026 430.569 558.852 431.008C558.548 431.775 558.69 432.747 558.784 433.547C559.867 442.095 561.023 450.634 562.252 459.163C564.797 478.027 567.438 496.879 570.175 515.717C570.773 519.87 571.387 524.033 571.927 528.193C572.158 529.968 572.376 534.216 573.008 535.656C573.454 535.877 573.995 535.802 574.483 535.789C574.508 531.417 574.734 527.053 574.767 522.681C574.782 520.675 574.483 515.785 574.846 514.127C575.942 513.7 581.171 507.118 582.162 505.717C582.972 504.57 583.609 503.321 584.412 502.178L584.484 502.077C585.083 500.786 585.712 499.559 586.586 498.43C587.665 499.467 588.379 500.828 589.144 502.1C589.496 502.713 589.815 503.357 590.311 503.867L590.699 503.922C587.969 496.207 584.868 488.648 581.92 481.017C577.572 469.816 573.282 458.592 569.051 447.346C567.079 442.187 564.924 437.046 563.101 431.837L572.092 431.827C573.843 431.824 575.648 431.893 577.392 431.735C579.243 436.013 580.742 440.496 582.397 444.858L592.894 472.858C600.806 493.785 608.583 514.762 616.225 535.788L617.574 535.797C614.077 526.734 610.912 517.536 607.547 508.424L589.288 459.634L582.3 440.997C581.145 437.94 580.078 434.83 578.788 431.828L593.34 431.827C594.782 435.414 596.022 439.112 597.374 442.736L607.489 469.659C607.63 469.367 607.642 469.174 607.624 468.859C607.404 465.04 606.619 461.114 606.1 457.32C604.885 448.784 603.73 440.24 602.634 431.688C605.685 431.652 608.742 431.535 611.794 431.595L612.054 431.587Z" fill="#EAEAEA"/>
<path d="M505.529 536.773C507.259 536.9 511.563 537.044 513.089 536.665C513.35 536.309 513.289 536.184 513.277 535.753C511.599 535.732 507.112 535.394 505.753 535.875C505.508 536.227 505.541 536.354 505.529 536.773Z" fill="#554148"/>
</g>
<defs>
<linearGradient id="paint0_linear_49_7723" x1="536.568" y1="309.97" x2="614.043" y2="318.854" gradientUnits="userSpaceOnUse">
<stop stop-color="#FDE8E5"/>
<stop offset="1" stop-color="#FBFDF7"/>
</linearGradient>
<linearGradient id="paint1_linear_49_7723" x1="368.88" y1="332.233" x2="347.684" y2="589.098" gradientUnits="userSpaceOnUse">
<stop stop-color="#3D2318"/>
<stop offset="1" stop-color="#4F3C3C"/>
</linearGradient>
<clipPath id="clip0_49_7723">
<rect width="560" height="558" fill="white"/>
</clipPath>
</defs>
</svg>
