<svg width="801" height="608" viewBox="0 0 801 608" fill="none" xmlns="http://www.w3.org/2000/svg">
<g clip-path="url(#clip0_2017_2)">
<path d="M820.814 224.34L655.476 152.816V0.478516H820.814V224.34Z" fill="#A1E4D0"/>
<path d="M815.663 128.182C815.663 128.182 779.704 72.1288 777.304 40.5598C774.903 8.99087 772.753 0.479004 772.753 0.479004H743.746C743.746 0.479004 771.227 61.8395 776.679 76.8104C782.155 91.7562 798.609 125.954 798.609 125.954L818.988 142.252L815.663 128.182Z" fill="#7FCBB4"/>
<path d="M814.913 197.678C814.913 197.678 810.662 176.573 807.236 171.016C803.836 165.483 805.361 138.395 809.612 129.858C813.863 121.321 791.633 108.278 791.633 108.278C791.633 108.278 798.059 153.516 797.434 164.832L796.359 169.939C796.359 169.939 783.156 158.223 766.302 148.835C749.473 139.447 744.997 126.879 744.997 126.879C744.997 126.879 743.722 138.596 743.722 139.246C743.722 139.897 751.599 148.635 768.452 159.925C785.306 171.216 795.309 180.604 795.959 190.618C796.609 200.632 813.863 204.262 814.938 204.262C816.013 204.262 814.913 197.678 814.913 197.678Z" fill="#7FCBB4"/>
<path d="M712.565 136.367C712.565 136.367 712.765 115.889 712.865 108.303C712.965 100.718 721.942 61.9886 721.942 61.9886L713.665 54.7285C713.665 54.7285 700.362 116.439 710.214 140.022L712.565 136.367Z" fill="#7FCBB4"/>
<path d="M715.09 139.397C715.09 139.397 687.559 102.47 684.083 98.69C680.582 94.9097 657.827 42.5117 657.827 42.5117L651.201 54.7538L677.757 93.658L648.875 82.2921V89.2769C649.825 83.9444 698.586 111.883 707.564 148.635L715.79 144.754L715.09 139.397Z" fill="#7FCBB4"/>
<path d="M713.664 40.2344C713.664 40.2344 693.635 12.1953 695.11 0.479004H688.283C688.283 0.479004 694.685 30.646 713.639 44.7156C713.639 44.7156 706.387 35.9785 684.657 31.4972C662.927 27.016 652.25 23.8115 652.25 23.8115L657.801 39.7087C657.801 39.7087 692.334 32.1481 713.639 54.7296C734.944 77.3361 724.892 46.3679 724.892 46.3679L713.664 40.2344Z" fill="#7FCBB4"/>
<path d="M801.96 104.799C801.96 104.799 795.883 52.2255 813.887 30.5453V0.478444C807.636 -0.598055 796.408 0.478444 796.408 0.478444C796.408 0.478444 795.733 73.8807 786.456 72.9544C777.204 72.0031 801.96 104.799 801.96 104.799Z" fill="#7FCBB4"/>
<path opacity="0.34" d="M338.128 567.769L316.648 571.774L345.155 467.604L414.921 507.91C420.872 511.365 420.872 519.952 414.921 523.407L338.128 567.769Z" fill="#A4A4A4"/>
<path d="M732.118 0.478516L733.193 178.451L754.823 188.616L751.723 0.478516H732.118Z" fill="#D6F3EA"/>
<path d="M660.177 117.992L659.502 4.93472L659.452 0.478516H645.224L645.999 128.657L813.887 224.591L813.762 204.112L660.177 117.992Z" fill="#D6F3EA"/>
<path d="M627.569 135.767L831.916 252.43L830.391 0.478516H812.537L813.887 224.591L736.669 180.529L735.594 0.478516H721.566L722.616 172.493L645.949 128.707L645.173 0.478516H626.744L627.569 135.767Z" fill="#EEEEEE"/>
<path d="M866.024 375.225L868 607.999H447.628L866.024 375.225Z" fill="#42547C"/>
<path d="M865.325 348.438L860.323 410.424L534.073 608H447.979L865.325 348.438Z" fill="#C0C0C0"/>
<path d="M72.5417 521.58L124.179 491.738V488.709L51.6369 449.83L0 476.642V479.672L72.5417 521.58Z" fill="#5B78B7"/>
<path d="M72.5417 518.551L124.179 488.709L51.6369 446.826L0 476.642L72.5417 518.551Z" fill="#6683C2"/>
<path d="M72.5415 513.719L121.228 485.605V478.67L52.862 446.125L4.17578 467.305V474.239L72.5415 513.719Z" fill="#EDE1E1"/>
<path d="M72.5415 506.784L121.228 478.67L52.862 439.19L4.17578 467.304L72.5415 506.784Z" fill="#FFFAFA"/>
<path d="M51.8374 448.904L54.2379 447.502C55.2382 446.926 55.1131 445.9 53.9629 445.224C52.7876 444.548 51.0122 444.473 50.012 445.049L47.6114 446.451C46.6112 447.026 46.7362 448.053 47.8865 448.729C49.0618 449.405 50.8372 449.48 51.8374 448.904Z" fill="#EDE1E1"/>
<path d="M41.7847 454.687L44.1852 453.285C45.1854 452.709 45.0604 451.683 43.9101 451.007C42.7349 450.331 40.9595 450.256 39.9592 450.832L37.5587 452.234C36.5585 452.81 36.6835 453.836 37.8337 454.512C38.984 455.213 40.7844 455.288 41.7847 454.687Z" fill="#EDE1E1"/>
<path d="M31.7319 460.495L34.1325 459.093C35.1327 458.517 35.0077 457.491 33.8574 456.815C32.6821 456.139 30.9067 456.064 29.9065 456.639L27.506 458.041C26.5057 458.617 26.6307 459.644 27.781 460.32C28.9313 460.995 30.7067 461.071 31.7319 460.495Z" fill="#EDE1E1"/>
<path d="M21.6802 466.278L24.0807 464.876C25.0809 464.3 24.9559 463.274 23.8057 462.598C22.6304 461.922 20.855 461.847 19.8547 462.423L17.4542 463.825C16.454 464.4 16.579 465.427 17.7293 466.103C18.8795 466.779 20.6549 466.854 21.6802 466.278Z" fill="#EDE1E1"/>
<path d="M36.7338 448.528C36.5837 448.177 36.2837 447.351 36.1836 447.001C35.4585 444.823 35.6335 442.745 36.6838 441.293C37.559 440.066 39.0343 439.39 40.7847 439.39C44.8606 439.39 49.3617 442.92 50.787 447.276C50.862 447.526 51.1371 447.652 51.3871 447.577C51.6372 447.501 51.7622 447.226 51.6872 447.001C50.1369 442.294 45.2357 438.464 40.7847 438.464C38.7342 438.464 37.0088 439.265 35.9336 440.742C34.7333 442.419 34.4833 444.798 35.3084 447.276C35.4335 447.677 35.8086 448.578 35.9836 448.953L36.7338 448.528Z" fill="#433878"/>
<path d="M26.681 454.311C26.531 453.961 26.2309 453.134 26.1309 452.784C25.4057 450.606 25.5808 448.528 26.631 447.076C27.5062 445.849 28.9816 445.173 30.732 445.173C34.8079 445.173 39.3089 448.703 40.7343 453.059C40.8093 453.31 41.0844 453.435 41.3344 453.36C41.5845 453.285 41.7095 453.009 41.6345 452.784C40.0841 448.077 35.183 444.247 30.732 444.247C28.6815 444.247 26.9561 445.048 25.8809 446.525C24.6806 448.203 24.4305 450.581 25.2557 453.059C25.3807 453.46 25.7558 454.361 25.9309 454.737L26.681 454.311Z" fill="#433878"/>
<path d="M16.6293 460.119C16.4792 459.769 16.1792 458.943 16.0792 458.592C15.354 456.414 15.529 454.336 16.5793 452.884C17.4545 451.657 18.9298 450.981 20.6802 450.981C24.7562 450.981 29.2572 454.511 30.6825 458.867C30.7575 459.118 31.0326 459.243 31.2827 459.168C31.5327 459.093 31.6577 458.817 31.5827 458.592C30.0324 453.886 25.1312 450.055 20.6802 450.055C18.6297 450.055 16.9043 450.856 15.8291 452.333C14.6288 454.011 14.3788 456.389 15.204 458.867C15.329 459.268 15.7041 460.169 15.8791 460.545L16.6293 460.119Z" fill="#433878"/>
<path d="M6.57655 465.902C6.42651 465.552 6.12645 464.726 6.02642 464.375C5.30126 462.197 5.4763 460.119 6.52654 458.667C7.40174 457.441 8.87708 456.765 10.6275 456.765C14.7034 456.765 19.2045 460.295 20.6298 464.651C20.7048 464.901 20.9799 465.026 21.2299 464.951C21.48 464.876 21.605 464.601 21.53 464.375C19.9796 459.669 15.0785 455.838 10.6275 455.838C8.57701 455.838 6.85161 456.639 5.77636 458.117C4.57609 459.794 4.32603 462.172 5.15122 464.651C5.27625 465.051 5.65134 465.952 5.82638 466.328L6.57655 465.902Z" fill="#433878"/>
<path d="M64.8152 446.976L18.3545 473.914" stroke="#D4C9C9" stroke-width="1.5167" stroke-miterlimit="10" stroke-linecap="round" stroke-linejoin="round"/>
<path d="M74.9675 453.235L28.5068 480.147" stroke="#D4C9C9" stroke-width="1.5167" stroke-miterlimit="10" stroke-linecap="round" stroke-linejoin="round"/>
<path d="M84.8699 459.519L38.4092 486.456" stroke="#D4C9C9" stroke-width="1.5167" stroke-miterlimit="10" stroke-linecap="round" stroke-linejoin="round"/>
<path d="M95.2224 465.452L48.7617 492.389" stroke="#D4C9C9" stroke-width="1.5167" stroke-miterlimit="10" stroke-linecap="round" stroke-linejoin="round"/>
<path d="M105.599 471.66L59.1387 498.573" stroke="#D4C9C9" stroke-width="1.5167" stroke-miterlimit="10" stroke-linecap="round" stroke-linejoin="round"/>
<path d="M521.636 122.802C521.636 122.802 556.294 111.361 551.193 63.6191C551.193 63.6442 508.008 87.177 521.636 122.802Z" fill="#5CAA93"/>
<path opacity="0.34" d="M529.861 238.688C548.395 238.688 563.419 233.89 563.419 227.973C563.419 222.055 548.395 217.258 529.861 217.258C511.328 217.258 496.304 222.055 496.304 227.973C496.304 233.89 511.328 238.688 529.861 238.688Z" fill="#C97D7F"/>
<path d="M562.52 184.086L478.575 181.633L492.128 223.216C492.628 227.071 495.429 230.826 500.53 233.78C511.808 240.29 530.062 240.34 541.265 233.856C545.966 231.152 548.691 227.697 549.416 224.167L562.52 184.086Z" fill="#FFFAFA"/>
<path d="M562.52 184.086C550.867 207.344 539.239 230.626 520.535 238.688C528.037 238.763 535.564 237.16 541.265 233.856C545.966 231.152 548.692 227.697 549.417 224.167L562.52 184.086Z" fill="#EDE1E1"/>
<path d="M563.41 179.216C563.483 165.639 544.488 154.529 520.983 154.402C497.478 154.274 478.364 165.178 478.29 178.755C478.217 192.333 497.212 203.443 520.717 203.57C544.222 203.697 563.336 192.794 563.41 179.216Z" fill="white"/>
<path d="M557.082 178.395C557.145 166.74 540.84 157.202 520.663 157.093C500.486 156.983 484.079 166.343 484.016 177.999C483.952 189.655 500.258 199.192 520.435 199.302C540.612 199.411 557.019 190.051 557.082 178.395Z" fill="#6D6058"/>
<path d="M521.235 82.4702V184.262" stroke="#7FCBB4" stroke-width="12.1381" stroke-miterlimit="10" stroke-linecap="round" stroke-linejoin="round"/>
<path d="M520.835 156.098C520.835 156.098 522.411 119.622 476 107.48C476 107.48 482.727 156.198 520.835 156.098Z" fill="#7FCBB4"/>
<path d="M522.111 142.78C522.111 142.78 558.244 137.672 561.695 89.7808C561.695 89.8058 515.034 105.327 522.111 142.78Z" fill="#7FCBB4"/>
<path d="M521.586 114.89C521.586 114.89 537.765 80.3673 497.88 50C497.88 50.025 484.777 99.6942 521.586 114.89Z" fill="#7FCBB4"/>
<path d="M521.685 112.813L498.755 52.103" stroke="#5CAA93" stroke-width="2.4276" stroke-miterlimit="10" stroke-linecap="round" stroke-linejoin="round"/>
<path opacity="0.34" d="M193.169 578.108L229.402 557.179C231.678 555.852 231.403 553.524 228.752 551.997L160.161 512.367C157.511 510.839 153.485 510.664 151.209 511.991L114.976 532.92C112.7 534.247 112.976 536.575 115.626 538.102L184.217 577.733C186.843 579.285 190.868 579.435 193.169 578.108Z" fill="#939393"/>
<path d="M106.174 536.2V536.15V536.125L106.324 532.87L108.874 533.296L143.958 513.043C146.233 511.716 150.284 511.891 152.91 513.418L220 552.172L223.851 552.823L223.701 555.953C223.701 556.804 223.201 557.605 222.176 558.206L185.942 579.135C183.667 580.462 179.616 580.286 176.99 578.759L108.399 539.129C106.899 538.328 106.174 537.227 106.174 536.2Z" fill="#FFFAFA"/>
<path d="M186.067 576.005L222.301 555.076C224.576 553.749 224.301 551.421 221.651 549.894L153.06 510.264C150.409 508.736 146.383 508.561 144.108 509.888L107.874 530.817C105.599 532.144 105.874 534.472 108.525 535.999L177.115 575.63C179.741 577.157 183.792 577.332 186.067 576.005Z" fill="#5B78B7"/>
<path d="M176.815 575.48L221.951 550.119L152.56 510.039L108.024 535.699L176.815 575.48Z" fill="#E4EDFF"/>
<path d="M199.595 540.631L151.459 512.842L120.577 530.642L199.595 540.631Z" fill="white"/>
<path d="M140.707 542.083L167.863 526.411C169.114 525.685 168.964 524.409 167.513 523.557L158.586 518.4C157.136 517.549 154.936 517.474 153.66 518.2L126.529 533.872C125.279 534.598 125.429 535.875 126.879 536.726L135.806 541.883C137.256 542.709 139.457 542.809 140.707 542.083Z" fill="#EDE1E1"/>
<path d="M137.352 539.012C140.736 538.993 143.47 537.387 143.46 535.424C143.449 533.46 140.697 531.884 137.314 531.902C133.93 531.92 131.196 533.527 131.207 535.49C131.217 537.453 133.969 539.03 137.352 539.012Z" fill="white"/>
<path d="M158.786 521.305L142.407 530.793" stroke="white" stroke-width="1.9219" stroke-miterlimit="10" stroke-linecap="round" stroke-linejoin="round"/>
<path d="M161.812 523.883L153.285 528.84" stroke="white" stroke-width="1.9219" stroke-miterlimit="10" stroke-linecap="round" stroke-linejoin="round"/>
<path d="M161.787 554.701L188.943 539.029C190.193 538.303 190.043 537.026 188.593 536.175L179.666 531.018C178.216 530.167 176.015 530.092 174.74 530.818L147.584 546.489C146.333 547.215 146.483 548.492 147.934 549.343L156.861 554.501C158.311 555.327 160.512 555.427 161.787 554.701Z" fill="#FFAC80"/>
<path d="M158.433 551.629C161.817 551.611 164.551 550.005 164.541 548.041C164.53 546.078 161.778 544.501 158.395 544.52C155.011 544.538 152.277 546.144 152.288 548.108C152.298 550.071 155.05 551.648 158.433 551.629Z" fill="white"/>
<path d="M179.842 533.922L163.463 543.435" stroke="white" stroke-width="1.9219" stroke-miterlimit="10" stroke-linecap="round" stroke-linejoin="round"/>
<path d="M182.867 536.5L174.365 541.457" stroke="white" stroke-width="1.9219" stroke-miterlimit="10" stroke-linecap="round" stroke-linejoin="round"/>
<path d="M182.842 567.319L209.998 551.647C211.248 550.921 211.098 549.644 209.648 548.793L200.721 543.636C199.27 542.784 197.07 542.709 195.795 543.435L168.638 559.107C167.388 559.833 167.538 561.11 168.988 561.961L177.915 567.118C179.391 567.944 181.591 568.045 182.842 567.319Z" fill="#EDE1E1"/>
<path d="M179.488 564.248C182.872 564.229 185.606 562.623 185.595 560.659C185.585 558.696 182.833 557.119 179.45 557.138C176.066 557.156 173.332 558.763 173.342 560.726C173.353 562.689 176.105 564.266 179.488 564.248Z" fill="white"/>
<path d="M200.921 546.54L184.542 556.053" stroke="white" stroke-width="1.9219" stroke-miterlimit="10" stroke-linecap="round" stroke-linejoin="round"/>
<path d="M203.947 549.144L195.42 554.075" stroke="white" stroke-width="1.9219" stroke-miterlimit="10" stroke-linecap="round" stroke-linejoin="round"/>
<path d="M689.533 232.026C690.309 235.506 688.108 238.986 686.308 239.387C684.532 239.787 685.683 236.558 684.907 233.078C684.132 229.598 681.707 227.17 683.507 226.769C685.307 226.368 688.758 228.546 689.533 232.026Z" fill="#CC6269"/>
<path d="M677.255 232.652C677.255 232.652 677.03 223.765 680.831 220.009" stroke="#CC6269" stroke-width="3.9569" stroke-miterlimit="10" stroke-linecap="round" stroke-linejoin="round"/>
<path opacity="0.34" d="M282.331 401.602L476.551 289.42C478.801 288.118 482.752 288.294 485.353 289.796L599.079 355.362C601.68 356.864 601.955 359.142 599.704 360.444L420.738 469.897C414.562 473.677 407.16 474.929 400.083 473.377C398.858 473.201 397.683 472.826 396.683 472.25L282.956 406.684C280.381 405.207 280.081 402.903 282.331 401.602Z" fill="#989898"/>
<path d="M263.301 388.208L268.103 391.237L270.103 384.428H262.776L263.301 388.208Z" fill="#463757"/>
<path d="M432.266 142.991L427.465 139.937L419.213 147.698L429.49 149.3L432.266 142.991Z" fill="#463757"/>
<path d="M269.804 388.259L460.772 277.955C464.998 275.527 467.074 268.792 465.424 263.034L431.691 145.946C430.04 140.188 425.214 137.459 420.988 139.888L229.519 251.168C225.293 253.596 224.043 258.052 225.718 263.835L259.126 382.2C260.776 387.983 265.578 390.712 269.804 388.259Z" fill="#5B78B7"/>
<path d="M274.73 391.388L465.699 281.084C469.925 278.656 472.001 271.921 470.35 266.163L436.618 149.075C434.967 143.317 430.141 140.588 425.915 143.017L233.121 254.572C228.895 257 228.045 260.255 229.72 266.038L264.028 385.329C265.703 391.112 270.504 393.841 274.73 391.388Z" fill="#E4EDFF"/>
<path d="M459.822 229.587L436.642 149.075C434.992 143.317 430.165 140.588 425.939 143.017L302.911 214.216L459.822 229.587Z" fill="white"/>
<path d="M271.479 397.421V391.188L299.511 407.51L301.111 403.83L487.754 296.03C490.005 294.728 494.481 294.904 497.056 296.406L577.925 342.82V341.518L590.203 347.477L591.928 346.776L591.703 352.434C591.503 353.66 591.028 354.186 590.278 354.612L396.033 467.093C393.783 468.395 389.832 468.37 387.231 466.868L274.48 402.403C271.454 400.851 271.479 397.421 271.479 397.421Z" fill="#4B6499"/>
<path d="M271.479 397.421V391.188L299.511 407.51L301.111 403.83L392.657 350.957L396.033 467.118C394.908 467.769 393.358 468.095 391.757 468.07C390.157 468.045 388.531 467.669 387.231 466.918L274.48 402.403C271.454 400.851 271.479 397.421 271.479 397.421Z" fill="#5B78B7"/>
<path d="M272.979 390.862L467.198 278.68C469.449 277.379 473.4 277.554 476 279.056L589.727 344.622C592.327 346.124 592.602 348.403 590.352 349.704L396.132 461.886C393.882 463.188 389.931 463.012 387.33 461.51L273.604 395.944C271.028 394.442 270.728 392.139 272.979 390.862Z" fill="#A4BAEA"/>
<path d="M476.176 310.274C476.451 310.45 477.026 310.375 477.451 310.124L489.254 303.315C489.679 303.064 489.804 302.739 489.504 302.564L481.702 298.057C481.427 297.882 480.852 297.957 480.427 298.208L468.624 305.017C468.199 305.267 468.074 305.593 468.374 305.768L476.176 310.274Z" fill="#849FDA"/>
<path d="M462.497 330.578C462.772 330.753 463.348 330.678 463.773 330.428L475.575 323.618C476 323.368 476.126 323.042 475.825 322.867L468.024 318.361C467.749 318.211 467.173 318.261 466.748 318.511L454.946 325.321C454.521 325.571 454.396 325.896 454.671 326.072L462.497 330.578Z" fill="#849FDA"/>
<path d="M469.425 339.039C469.7 339.215 470.275 339.139 470.7 338.889L482.503 332.08C482.928 331.829 483.053 331.504 482.753 331.329L474.926 326.822C474.651 326.672 474.076 326.722 473.651 326.972L461.848 333.782C461.423 334.032 461.298 334.358 461.573 334.508L469.425 339.039Z" fill="#849FDA"/>
<path d="M488.128 340.667C488.404 340.817 488.979 340.767 489.404 340.516L501.207 333.707C501.632 333.457 501.732 333.131 501.457 332.981L493.655 328.475C493.38 328.324 492.805 328.375 492.379 328.625L480.577 335.434C480.152 335.685 480.052 336.01 480.327 336.185L488.128 340.667Z" fill="#849FDA"/>
<path d="M520.587 335.91C520.862 336.085 521.437 336.01 521.862 335.76L533.665 328.951C534.09 328.7 534.215 328.375 533.915 328.199L524.738 322.892C524.463 322.742 523.888 322.792 523.462 323.042L511.66 329.852C511.235 330.102 511.135 330.428 511.41 330.603L520.587 335.91Z" fill="#849FDA"/>
<path d="M500.231 347.652C500.506 347.827 501.181 347.677 501.756 347.351L517.21 338.439C517.76 338.113 517.985 337.713 517.71 337.562L508.533 332.255C508.258 332.105 507.558 332.23 507.008 332.53L491.554 341.443C491.004 341.768 490.779 342.169 491.054 342.319L500.231 347.652Z" fill="#849FDA"/>
<path d="M398.758 406.333C398.983 406.458 399.533 406.383 399.958 406.133L411.736 399.323C412.161 399.073 412.336 398.772 412.086 398.622L408.685 396.669C408.46 396.544 407.91 396.619 407.485 396.87L395.707 403.679C395.282 403.929 395.132 404.23 395.357 404.38L398.758 406.333Z" fill="#849FDA"/>
<path d="M383.005 415.671C383.23 415.796 383.78 415.721 384.205 415.471L395.983 408.661C396.408 408.411 396.583 408.111 396.333 407.96L392.932 406.008C392.707 405.883 392.157 405.958 391.732 406.208L379.954 413.017C379.529 413.268 379.379 413.568 379.604 413.718L383.005 415.671Z" fill="#849FDA"/>
<path d="M366.301 425.084C366.526 425.209 367.051 425.109 367.476 424.884L379.254 418.074C379.679 417.824 379.854 417.524 379.629 417.398L376.353 415.521C376.128 415.396 375.603 415.496 375.178 415.721L363.4 422.531C362.975 422.781 362.825 423.081 363.025 423.207L366.301 425.084Z" fill="#849FDA"/>
<path d="M376.553 412.066C376.778 412.191 377.303 412.091 377.728 411.866L389.506 405.056C389.931 404.806 390.106 404.506 389.881 404.38L386.605 402.503C386.38 402.378 385.855 402.478 385.43 402.703L373.652 409.513C373.227 409.763 373.077 410.063 373.277 410.188L376.553 412.066Z" fill="#849FDA"/>
<path d="M419.138 394.467C419.413 394.642 419.989 394.567 420.414 394.316L497.156 350.03C497.581 349.779 497.706 349.454 497.406 349.279L488.229 343.971C487.954 343.821 487.354 343.871 486.954 344.121L410.211 388.408C409.786 388.658 409.661 388.984 409.936 389.159L419.138 394.467Z" fill="#849FDA"/>
<path d="M502.356 344.722C502.381 344.722 502.431 344.722 502.481 344.697L511.484 339.49C511.534 339.465 511.559 339.44 511.534 339.415L510.958 339.089C510.933 339.089 510.883 339.089 510.833 339.114L501.831 344.322C501.781 344.347 501.756 344.372 501.781 344.397L502.356 344.722Z" fill="#849FDA"/>
<path d="M525.462 330.402C525.487 330.402 525.512 330.402 525.537 330.402L529.363 328.199C529.388 328.199 529.388 328.174 529.363 328.149L528.788 327.823C528.763 327.823 528.738 327.823 528.713 327.823L524.887 330.026C524.862 330.026 524.862 330.051 524.887 330.076L525.462 330.402Z" fill="#849FDA"/>
<path d="M471.95 349.979C472.225 350.129 472.8 350.079 473.225 349.829L485.028 343.02C485.453 342.769 485.578 342.444 485.278 342.269L477.476 337.762C477.201 337.612 476.601 337.662 476.201 337.912L464.398 344.722C463.973 344.972 463.848 345.298 464.148 345.473L471.95 349.979Z" fill="#849FDA"/>
<path d="M455.722 359.343C455.997 359.493 456.572 359.443 456.997 359.192L468.775 352.383C469.2 352.132 469.325 351.807 469.05 351.632L461.248 347.126C460.973 346.975 460.373 347.025 459.973 347.276L448.195 354.085C447.77 354.336 447.67 354.661 447.945 354.836L455.722 359.343Z" fill="#849FDA"/>
<path d="M439.493 368.731C439.768 368.881 440.343 368.831 440.768 368.58L452.571 361.771C452.996 361.521 453.096 361.195 452.821 361.045L445.019 356.539C444.744 356.388 444.169 356.438 443.744 356.689L431.941 363.498C431.516 363.749 431.416 364.074 431.691 364.249L439.493 368.731Z" fill="#849FDA"/>
<path d="M423.239 378.094C423.514 378.244 424.089 378.194 424.514 377.944L436.317 371.134C436.742 370.884 436.867 370.558 436.567 370.383L428.765 365.877C428.49 365.727 427.915 365.777 427.49 366.027L415.687 372.837C415.262 373.087 415.162 373.412 415.437 373.588L423.239 378.094Z" fill="#849FDA"/>
<path d="M407.01 387.482C407.285 387.632 407.86 387.582 408.285 387.331L420.063 380.522C420.488 380.272 420.588 379.946 420.313 379.796L412.511 375.29C412.236 375.139 411.661 375.189 411.236 375.44L399.458 382.249C399.033 382.5 398.908 382.825 399.183 383L407.01 387.482Z" fill="#849FDA"/>
<path d="M390.781 396.845C391.056 396.995 391.631 396.945 392.056 396.695L403.834 389.885C404.259 389.635 404.384 389.309 404.084 389.134L396.282 384.628C396.007 384.478 395.432 384.528 395.007 384.778L383.229 391.588C382.804 391.838 382.679 392.163 382.979 392.339L390.781 396.845Z" fill="#849FDA"/>
<path d="M354.198 417.949C354.473 418.099 355.048 418.049 355.473 417.799L387.606 399.248C388.031 398.998 388.156 398.672 387.856 398.497L380.054 393.991C379.779 393.841 379.204 393.891 378.779 394.141L346.646 412.692C346.221 412.942 346.096 413.268 346.396 413.443L354.198 417.949Z" fill="#849FDA"/>
<path d="M453.245 348.353C453.52 348.528 454.095 348.453 454.521 348.202L466.323 341.393C466.748 341.143 466.873 340.817 466.573 340.667L458.747 336.161C458.471 336.01 457.896 336.061 457.471 336.311L445.669 343.12C445.243 343.371 445.143 343.696 445.418 343.846L453.245 348.353Z" fill="#849FDA"/>
<path d="M437.017 357.715C437.292 357.891 437.867 357.816 438.292 357.565L450.095 350.756C450.52 350.505 450.645 350.18 450.345 350.03L442.518 345.523C442.243 345.373 441.668 345.423 441.243 345.674L429.44 352.483C429.015 352.733 428.915 353.059 429.19 353.209L437.017 357.715Z" fill="#849FDA"/>
<path d="M420.788 367.104C421.063 367.279 421.639 367.204 422.064 366.954L433.866 360.144C434.292 359.894 434.417 359.568 434.142 359.393L426.315 354.887C426.04 354.737 425.439 354.787 425.039 355.037L413.237 361.846C412.812 362.097 412.687 362.422 412.962 362.572L420.788 367.104Z" fill="#849FDA"/>
<path d="M404.535 376.467C404.81 376.642 405.385 376.567 405.81 376.316L417.588 369.507C418.013 369.257 418.138 368.931 417.838 368.756L410.011 364.25C409.736 364.099 409.161 364.149 408.736 364.4L396.958 371.209C396.533 371.46 396.408 371.785 396.708 371.935L404.535 376.467Z" fill="#849FDA"/>
<path d="M388.306 385.83C388.581 386.005 389.156 385.93 389.581 385.679L401.384 378.87C401.809 378.62 401.934 378.294 401.634 378.144L393.807 373.638C393.532 373.488 392.957 373.538 392.532 373.788L380.729 380.597C380.304 380.848 380.179 381.173 380.479 381.323L388.306 385.83Z" fill="#849FDA"/>
<path d="M372.077 395.218C372.352 395.393 372.927 395.318 373.352 395.067L385.13 388.258C385.555 388.007 385.68 387.682 385.405 387.507L377.578 383.001C377.303 382.85 376.728 382.9 376.303 383.151L364.525 389.96C364.1 390.211 364 390.536 364.275 390.686L372.077 395.218Z" fill="#849FDA"/>
<path d="M355.823 404.581C356.098 404.756 356.674 404.681 357.099 404.431L368.901 397.621C369.327 397.371 369.452 397.046 369.151 396.895L361.325 392.389C361.05 392.239 360.474 392.289 360.049 392.539L348.247 399.349C347.822 399.599 347.722 399.925 347.997 400.075L355.823 404.581Z" fill="#849FDA"/>
<path d="M446.344 339.916C446.619 340.091 447.194 340.016 447.619 339.765L459.422 332.956C459.847 332.706 459.947 332.38 459.672 332.23L451.87 327.724C451.595 327.573 451.02 327.624 450.595 327.874L438.792 334.683C438.367 334.934 438.242 335.259 438.517 335.409L446.344 339.916Z" fill="#849FDA"/>
<path d="M430.116 349.279C430.391 349.454 430.966 349.379 431.391 349.129L443.194 342.319C443.619 342.069 443.744 341.744 443.444 341.568L435.642 337.062C435.367 336.912 434.792 336.962 434.367 337.212L422.564 344.022C422.139 344.272 422.039 344.598 422.314 344.748L430.116 349.279Z" fill="#849FDA"/>
<path d="M413.862 358.667C414.137 358.842 414.712 358.767 415.137 358.517L426.915 351.707C427.34 351.457 427.44 351.131 427.165 350.956L419.363 346.45C419.088 346.3 418.513 346.35 418.088 346.6L406.31 353.409C405.885 353.66 405.76 353.985 406.035 354.16L413.862 358.667Z" fill="#849FDA"/>
<path d="M397.632 368.03C397.907 368.205 398.483 368.13 398.908 367.88L410.71 361.07C411.136 360.82 411.261 360.495 410.96 360.319L403.159 355.813C402.884 355.663 402.308 355.713 401.883 355.963L390.081 362.773C389.656 363.023 389.556 363.348 389.831 363.499L397.632 368.03Z" fill="#849FDA"/>
<path d="M381.404 377.393C381.679 377.568 382.254 377.493 382.679 377.243L394.482 370.433C394.907 370.183 395.032 369.857 394.732 369.682L386.93 365.176C386.655 365.026 386.08 365.076 385.655 365.326L373.852 372.135C373.427 372.386 373.327 372.711 373.602 372.861L381.404 377.393Z" fill="#849FDA"/>
<path d="M365.15 386.781C365.425 386.956 366 386.881 366.45 386.631L378.253 379.821C378.678 379.571 378.803 379.246 378.503 379.07L370.701 374.564C370.426 374.414 369.851 374.464 369.426 374.714L357.623 381.524C357.198 381.774 357.073 382.099 357.348 382.275L365.15 386.781Z" fill="#849FDA"/>
<path d="M348.921 396.144C349.197 396.32 349.772 396.244 350.197 395.994L361.999 389.185C362.425 388.934 362.55 388.609 362.25 388.434L354.448 383.927C354.173 383.777 353.598 383.827 353.172 384.077L341.37 390.887C340.945 391.137 340.845 391.463 341.12 391.613L348.921 396.144Z" fill="#849FDA"/>
<path d="M478.727 321.215C479.002 321.39 479.577 321.315 480.002 321.065L500.007 309.523C500.432 309.273 500.557 308.948 500.257 308.772L492.455 304.266C492.18 304.116 491.605 304.166 491.18 304.416L471.175 315.957C470.75 316.208 470.625 316.533 470.9 316.708L478.727 321.215Z" fill="#849FDA"/>
<path d="M321.916 399.299C322.191 399.474 322.766 399.399 323.191 399.148L343.196 387.607C343.621 387.357 343.746 387.031 343.446 386.856L335.644 382.35C335.369 382.175 334.769 382.25 334.369 382.5L314.364 394.041C313.939 394.292 313.814 394.617 314.114 394.792L321.916 399.299Z" fill="#849FDA"/>
<path d="M485.653 329.651C485.928 329.827 486.503 329.751 486.929 329.501L510.759 315.732C511.184 315.482 511.309 315.156 511.009 314.981L503.182 310.475C502.907 310.324 502.332 310.374 501.907 310.625L478.077 324.394C477.651 324.644 477.526 324.97 477.801 325.12L485.653 329.651Z" fill="#849FDA"/>
<path d="M504.357 331.279C504.632 331.429 505.207 331.379 505.633 331.129L521.536 321.966C521.961 321.715 522.086 321.39 521.786 321.215L513.984 316.709C513.709 316.558 513.134 316.608 512.709 316.859L496.806 326.022C496.38 326.272 496.255 326.597 496.555 326.773L504.357 331.279Z" fill="#849FDA"/>
<path d="M459.947 319.638C460.222 319.813 460.797 319.738 461.222 319.488L473 312.678C473.425 312.428 473.55 312.102 473.25 311.927L465.448 307.421C465.173 307.245 464.598 307.321 464.173 307.571L452.395 314.38C451.97 314.631 451.845 314.956 452.145 315.131L459.947 319.638Z" fill="#849FDA"/>
<path d="M443.768 328.95C444.043 329.125 444.619 329.05 445.044 328.8L456.846 321.991C457.271 321.74 457.397 321.415 457.096 321.239L449.295 316.733C449.02 316.558 448.444 316.633 448.019 316.883L436.217 323.693C435.792 323.943 435.667 324.269 435.967 324.444L443.768 328.95Z" fill="#849FDA"/>
<path d="M427.54 338.339C427.815 338.514 428.39 338.439 428.815 338.189L440.618 331.379C441.043 331.129 441.168 330.803 440.868 330.628L433.066 326.122C432.791 325.947 432.216 326.022 431.791 326.272L419.988 333.082C419.563 333.332 419.463 333.657 419.738 333.808L427.54 338.339Z" fill="#849FDA"/>
<path d="M411.311 347.701C411.586 347.876 412.162 347.801 412.587 347.551L424.364 340.741C424.789 340.491 424.914 340.166 424.614 339.99L416.813 335.484C416.538 335.309 415.962 335.384 415.537 335.634L403.76 342.444C403.335 342.694 403.209 343.02 403.51 343.195L411.311 347.701Z" fill="#849FDA"/>
<path d="M395.083 357.064C395.358 357.24 395.933 357.165 396.358 356.914L408.136 350.105C408.561 349.854 408.686 349.529 408.386 349.354L400.584 344.847C400.309 344.672 399.734 344.747 399.309 344.998L387.531 351.807C387.106 352.058 387.006 352.383 387.281 352.533L395.083 357.064Z" fill="#849FDA"/>
<path d="M378.829 366.453C379.104 366.628 379.679 366.553 380.104 366.302L391.907 359.493C392.332 359.242 392.432 358.917 392.157 358.767L384.355 354.261C384.08 354.085 383.505 354.16 383.08 354.411L371.277 361.22C370.852 361.471 370.727 361.796 371.027 361.946L378.829 366.453Z" fill="#849FDA"/>
<path d="M362.6 375.816C362.875 375.991 363.451 375.916 363.876 375.666L375.678 368.856C376.104 368.606 376.229 368.28 375.928 368.105L368.127 363.599C367.852 363.424 367.276 363.499 366.851 363.749L355.049 370.559C354.624 370.809 354.499 371.134 354.799 371.31L362.6 375.816Z" fill="#849FDA"/>
<path d="M346.372 385.179C346.647 385.354 347.222 385.279 347.647 385.028L359.45 378.219C359.875 377.969 359.975 377.643 359.7 377.493L351.898 372.987C351.623 372.811 351.048 372.886 350.623 373.137L338.82 379.946C338.395 380.197 338.295 380.522 338.57 380.672L346.372 385.179Z" fill="#849FDA"/>
<path d="M336.919 393.465C337.119 393.34 337.344 393.265 337.619 393.24C337.869 393.215 338.069 393.24 338.194 393.315L345.996 397.821C346.121 397.896 346.196 398.022 346.146 398.172C346.096 398.322 345.946 398.447 345.746 398.572L342.67 400.35L352.923 406.283C353.048 406.358 353.098 406.483 353.048 406.634C352.998 406.784 352.848 406.909 352.647 407.034L344.696 411.615C344.496 411.741 344.246 411.816 343.995 411.841C343.745 411.866 343.545 411.841 343.395 411.766L324.816 401.026C324.691 400.951 324.641 400.825 324.691 400.675C324.741 400.525 324.891 400.4 325.091 400.275L336.919 393.465Z" fill="#849FDA"/>
<path d="M506.458 327.473C506.483 327.473 506.533 327.473 506.583 327.448L515.585 322.241C515.635 322.216 515.66 322.191 515.635 322.166L515.06 321.84C515.035 321.84 514.985 321.84 514.935 321.865L505.933 327.073C505.883 327.098 505.858 327.123 505.883 327.148L506.458 327.473Z" fill="#849FDA"/>
<path d="M460.423 404.631L506.033 378.294C508.484 376.867 508.334 374.639 505.683 373.312L490.43 365.727C487.779 364.4 483.603 364.5 481.127 365.902L435.517 392.239C433.066 393.666 433.216 395.894 435.867 397.221L451.12 404.806C453.771 406.133 457.947 406.058 460.423 404.631Z" fill="#A68FE0"/>
<path opacity="0.34" d="M380.879 280.482L346.721 301.136C337.244 306.869 327.342 302.087 324.766 290.521L321.465 275.851C318.865 264.285 324.516 250.115 333.993 244.382L368.151 223.728C377.628 217.995 387.53 222.777 390.106 234.343L393.407 249.014C395.982 260.58 390.356 274.749 380.879 280.482Z" fill="#E3CFCF"/>
<path d="M376.803 275.351L342.645 296.004C333.168 301.737 323.265 296.956 320.69 285.39L317.389 270.719C314.788 259.153 320.44 244.983 329.917 239.25L364.075 218.596C373.552 212.863 383.454 217.645 386.03 229.211L389.331 243.882C391.931 255.473 386.305 269.618 376.803 275.351Z" fill="#7FCBB4"/>
<path d="M349.872 272.922L345.271 252.469C344.896 250.816 346.096 248.889 347.471 248.889L366.526 248.989C368.051 248.989 368.576 251.342 367.426 252.969L352.947 273.323C351.897 274.8 350.247 274.574 349.872 272.922Z" fill="white"/>
<path opacity="0.34" d="M319.289 276.477L306.361 284.288C298.684 288.944 294.108 300.41 296.209 309.773C298.309 319.136 306.311 323.017 314.013 318.385L326.941 310.574C327.266 310.374 327.591 310.174 327.891 309.949L327.791 310.074L336.318 310.75L333.567 303.815C336.968 298.357 338.468 291.273 337.093 285.089C334.993 275.701 326.991 271.846 319.289 276.477Z" fill="#E3CFCF"/>
<path opacity="0.34" d="M395.133 205.803L379.979 214.966C373.903 218.646 370.302 227.709 371.952 235.119L372.377 236.972C374.053 244.382 380.379 247.436 386.456 243.781L401.609 234.618C407.685 230.938 411.286 221.876 409.636 214.465L409.211 212.613C407.535 205.177 401.184 202.123 395.133 205.803Z" fill="#E3CFCF"/>
<path d="M322.566 311.275L309.638 319.086C301.961 323.743 293.934 319.862 291.833 310.474C289.733 301.111 294.284 289.62 301.986 284.989L314.914 277.178C322.591 272.521 330.617 276.402 332.718 285.79C334.818 295.153 330.242 306.644 322.566 311.275Z" fill="#F37E60"/>
<path d="M323.416 310.774L331.943 311.45L329.192 304.516L323.416 310.774Z" fill="#FF9963"/>
<path d="M306.588 302.837C307.127 301.122 306.57 299.419 305.344 299.034C304.119 298.648 302.69 299.726 302.151 301.441C301.613 303.155 302.17 304.858 303.395 305.243C304.621 305.629 306.05 304.551 306.588 302.837Z" fill="white"/>
<path d="M314.329 298.151C314.867 296.436 314.31 294.733 313.085 294.348C311.859 293.962 310.43 295.04 309.892 296.755C309.353 298.469 309.91 300.172 311.136 300.557C312.361 300.943 313.79 299.865 314.329 298.151Z" fill="white"/>
<path d="M322.215 291.348C322.565 292.925 321.815 294.828 320.515 295.604C319.214 296.38 317.889 295.729 317.539 294.152C317.189 292.575 317.939 290.672 319.239 289.896C320.54 289.12 321.865 289.771 322.215 291.348Z" fill="white"/>
<path d="M403.684 226.983L388.531 236.146C382.454 239.826 376.128 236.747 374.452 229.336L374.027 227.484C372.352 220.074 375.978 211.011 382.054 207.331L397.208 198.168C403.284 194.488 409.611 197.567 411.286 204.977L411.711 206.83C413.361 214.24 409.736 223.303 403.684 226.983Z" fill="#68CCEA"/>
<path d="M378.628 216.669L402.658 202.148" stroke="#FFFAFA" stroke-width="2.4276" stroke-miterlimit="10" stroke-linecap="round" stroke-linejoin="round"/>
<path d="M380.203 223.678L404.234 209.158" stroke="#FFFAFA" stroke-width="2.4276" stroke-miterlimit="10" stroke-linecap="round" stroke-linejoin="round"/>
<path d="M381.778 230.714L398.332 220.7" stroke="#FFFAFA" stroke-width="2.4276" stroke-miterlimit="10" stroke-linecap="round" stroke-linejoin="round"/>
<path opacity="0.34" d="M235.656 459.796C237.715 442.971 216.492 426.523 188.253 423.06C160.015 419.596 135.454 430.428 133.395 447.254C131.336 464.08 152.559 480.527 180.798 483.991C209.036 487.454 233.597 476.622 235.656 459.796Z" fill="#5B78B7"/>
<path d="M177.267 480.087C203.718 478.682 224.484 464.773 223.649 449.019C222.815 433.265 200.696 421.633 174.244 423.037C147.793 424.442 127.027 438.351 127.862 454.105C128.696 469.859 150.815 481.491 177.267 480.087Z" fill="#5672B1"/>
<path d="M176.467 465.041C202.918 463.636 223.684 449.727 222.85 433.973C222.015 418.219 199.896 406.587 173.445 407.991C146.994 409.396 126.227 423.305 127.062 439.059C127.896 454.813 150.016 466.445 176.467 465.041Z" fill="#7B9DE5"/>
<path d="M183.582 413.557L189.783 428.077C190.359 429.404 189.883 430.931 188.683 431.732L170.979 443.248C169.054 444.5 166.503 443.173 166.403 440.895L165.603 422.87C165.553 421.818 166.078 420.817 166.953 420.266L179.231 412.28C180.781 411.254 182.857 411.88 183.582 413.557Z" fill="#7694D4"/>
<path d="M178.706 408.625L172.205 405.445L157.476 415.184L155.626 435.337C155.526 436.413 155.976 437.49 156.826 438.166L159.627 440.419C162.353 442.622 166.379 440.569 166.228 437.064L165.528 421.142L178.931 412.405C180.382 411.504 180.257 409.376 178.706 408.625Z" fill="#5D7BBD"/>
<path d="M167.228 267.328L125.068 337.175L171.779 411.704" stroke="#5877B8" stroke-width="14.5657" stroke-miterlimit="10" stroke-linecap="round" stroke-linejoin="round"/>
<path d="M155.626 261.82L112.516 338.878L162.827 417.713" stroke="#5877B8" stroke-width="14.5657" stroke-miterlimit="10" stroke-linecap="round" stroke-linejoin="round"/>
<path d="M123.293 263.523L154.775 283.526C163.252 288.908 174.605 286.38 179.981 277.893L180.531 277.042C185.907 268.555 183.382 257.214 174.905 251.832L143.423 231.829C134.946 226.446 123.593 228.975 118.217 237.462L117.667 238.313C112.265 246.775 114.816 258.115 123.293 263.523Z" fill="#7694D4"/>
<path opacity="0.68" d="M138.547 238.964L157.251 249.979C158.176 250.53 159.402 250.204 159.952 249.278C160.502 248.352 160.177 247.125 159.252 246.574L140.547 235.559C139.622 235.008 138.397 235.334 137.847 236.26C137.297 237.211 137.622 238.413 138.547 238.964Z" fill="#B7CDFE"/>
<path opacity="0.68" d="M128.77 245.948L147.474 256.963C148.399 257.514 149.624 257.189 150.174 256.262C150.725 255.336 150.4 254.109 149.474 253.559L130.77 242.543C129.845 241.993 128.619 242.318 128.069 243.244C127.519 244.196 127.844 245.397 128.77 245.948Z" fill="#B7CDFE"/>
<path opacity="0.68" d="M124.669 257.764L143.373 268.78C144.298 269.331 145.524 269.005 146.074 268.079C146.624 267.153 146.299 265.926 145.374 265.375L126.669 254.36C125.744 253.809 124.519 254.134 123.969 255.061C123.419 255.987 123.744 257.214 124.669 257.764Z" fill="#B7CDFE"/>
<path d="M208.692 299.06C223.034 278.226 229.711 257.921 223.604 253.708C217.498 249.494 200.921 262.967 186.578 283.801C172.236 304.635 165.56 324.94 171.666 329.154C177.773 333.367 194.35 319.894 208.692 299.06Z" fill="#8EA8E0"/>
<path d="M167.179 325.634L156.276 313.117C142.848 297.67 142.173 274.889 154.676 258.716C166.129 243.871 185.908 238.213 203.487 244.697L219.716 250.705L167.179 325.634Z" fill="#88A5E5"/>
<path d="M204.8 296.031C219.143 275.197 225.819 254.892 219.713 250.678C213.606 246.465 197.029 259.938 182.687 280.772C168.345 301.606 161.668 321.911 167.774 326.124C173.881 330.338 190.458 316.865 204.8 296.031Z" fill="#5877B8"/>
<path d="M207.488 277.668C207.363 285.378 204.537 296.694 190.259 301.626C184.083 303.754 177.931 298.221 179.632 291.912C181.882 283.476 188.484 273.937 195.76 270.232C201.187 267.478 207.588 271.609 207.488 277.668Z" fill="#C7D8FB"/>
<path d="M182.682 280.797C197.035 259.968 213.614 246.474 219.716 250.68C220.866 251.456 221.541 252.808 221.841 254.636C214.064 256.313 200.911 268.38 189.259 285.328C177.606 302.277 171.004 318.85 172.23 326.711C170.429 327.086 168.929 326.936 167.779 326.135C161.652 321.929 168.354 301.626 182.682 280.797Z" fill="#B7CDFE"/>
<path d="M127.719 332.068L111.315 340.48C109.365 341.482 108.69 343.96 109.865 345.813L117.717 358.18C118.442 359.306 119.892 359.682 121.068 359.056L137.746 349.968C139.147 349.217 139.597 347.44 138.747 346.113L130.32 332.819C129.795 331.893 128.644 331.593 127.719 332.068Z" fill="#7B9DE5"/>
<path d="M112.366 339.929L110.44 341.056C109.015 341.882 108.565 343.735 109.465 345.136L117.642 358.004C118.417 359.206 119.967 359.607 121.218 358.931L124.343 357.228L112.366 339.929Z" fill="#5D7BBD"/>
<path d="M316.548 494.215L379.262 509.512L392.84 518.224L396.616 520.953C397.091 521.303 397.391 521.854 397.416 522.455C397.466 523.306 397.491 524.032 397.141 524.257L317.848 571.673C317.598 571.824 317.323 571.874 317.023 571.874C310.021 571.874 314.622 493.965 316.548 494.215Z" fill="#A6603B"/>
<path d="M318.699 567.343L391.14 523.982C392.116 523.407 392.566 516.046 391.565 515.496L287.366 456.613C286.916 456.363 286.341 456.363 285.891 456.638L207.098 503.153C206.123 503.729 206.148 505.131 207.123 505.682L315.898 567.393C317.148 568.019 318.249 567.593 318.699 567.343Z" fill="#A6603B"/>
<path d="M319.999 566.542L394.466 521.93C390.565 514.995 390.815 509.487 393.016 499.523L322.124 543.785C319.074 552.122 317.723 560.684 319.999 566.542Z" fill="#FFFAFA"/>
<path d="M206.197 483.851L209.323 483.826V483.951L285.741 438.864C286.191 438.588 286.741 438.588 287.216 438.839L395.116 499.824V499.173L397.141 499.148L397.166 501.576H397.141C397.241 502.152 397.016 502.753 396.441 503.103L317.648 549.618C317.198 549.893 316.648 549.893 316.173 549.643L206.972 487.932C206.497 487.657 206.272 487.206 206.247 486.755L206.197 483.851Z" fill="#C27750"/>
<path d="M316.548 511.089C316.998 510.814 395.116 499.799 395.116 499.799V499.148L397.142 498.271L397.167 501.551H397.142C397.242 502.127 397.017 502.728 396.442 503.078L317.648 549.593C317.423 549.718 315.023 551.345 314.748 551.345C314.498 551.32 316.548 511.089 316.548 511.089Z" fill="#A6603B"/>
<path d="M317.598 545.888L396.391 499.373C397.366 498.797 397.341 497.395 396.366 496.845L287.591 435.359C287.141 435.109 285.915 435.033 285.465 435.284L206.922 481.623C205.947 482.199 205.972 483.601 206.947 484.152L316.147 545.863C316.597 546.163 317.148 546.138 317.598 545.888Z" fill="#FFAC80"/>
<path d="M317.598 545.888L324.85 541.607L213.174 477.943L206.898 481.648C205.923 482.224 205.948 483.626 206.923 484.177L316.123 545.888C316.598 546.163 317.148 546.138 317.598 545.888Z" fill="#FFB994"/>
<path d="M322.099 540.179L214.374 478.819" stroke="#C77347" stroke-width="2.4276" stroke-miterlimit="10" stroke-linecap="round" stroke-linejoin="round"/>
<path d="M316.998 546.088C313.422 558.129 314.848 567.893 316.648 571.799L206.398 509.837C206.398 509.837 200.496 494.215 206.048 483.225L316.998 546.088Z" fill="#E38B5D"/>
<path d="M580.426 304.29C566.947 290.821 567.673 288.668 552.494 282.96C552.494 282.96 527.263 337.361 563.947 329.124C564.822 328.924 584.026 326.02 584.401 323.842C584.777 321.689 591.628 317.984 580.426 304.29Z" fill="#C79682"/>
<path d="M586.309 305.353C586.309 305.353 680.78 346.285 682.831 361.031L672.929 389.12C672.929 389.12 638.571 382.26 578.257 321.325L586.309 305.353Z" fill="#EFC0AC"/>
<path d="M530.746 423.668C530.746 423.668 529.62 431.228 523.719 428.424C517.818 425.646 430.348 315.417 430.348 315.417L438.174 313.564L530.746 423.668Z" fill="#56446B"/>
<path d="M530.745 423.668L619.816 369.793L620.841 363.008L522.444 257.887L434.373 305.002L433.373 311.762L530.745 423.668Z" fill="#4F6DAD"/>
<path d="M531.745 416.909L620.841 363.008L523.444 251.103L434.373 305.003L531.745 416.909Z" fill="#6683C2"/>
<path d="M442.525 477.543L523.719 428.45L524.744 421.465L423.321 313.064L344.002 358.102L343.777 366.438L442.525 477.543Z" fill="#4F6DAD"/>
<path d="M442.7 471.084L524.744 421.465L428.822 307.281L344.002 358.102L442.7 471.084Z" fill="#6683C2"/>
<path d="M525.445 413.053C525.445 413.053 565.429 390.321 604.163 364.335C604.313 364.21 605.638 354.296 605.638 354.296C590.635 335.345 516.167 260.766 516.167 260.766L438.175 299.194L436.699 309.233L525.445 413.053Z" fill="#DED3D3"/>
<path d="M526.92 403.014C527.445 395.528 567.754 368.466 605.638 354.296C606.888 353.294 517.643 250.727 517.643 250.727C486.486 259.764 459.254 274.785 438.149 299.194L526.92 403.014Z" fill="#F7F7F7"/>
<path d="M521.793 381.259C522.193 375.676 552.225 355.498 580.456 344.958C581.406 344.207 514.891 267.776 514.891 267.776C491.686 274.51 471.381 285.701 455.652 303.901L521.793 381.259Z" fill="#EBE6E6"/>
<path d="M444.851 463.098C444.851 463.098 486.685 439.014 525.419 413.028C525.569 412.903 525.044 404.341 525.044 404.341C510.04 385.389 435.573 310.811 435.573 310.811L356.08 359.278L444.851 463.098Z" fill="#DED3D3"/>
<path d="M446.351 453.059C445.676 448.803 484.285 417.484 525.07 404.341C526.32 403.339 437.074 300.771 437.074 300.771C405.467 307.656 378.661 323.253 357.581 349.239L446.351 453.059Z" fill="white"/>
<path d="M590.559 311.637L583.458 301.147C582.532 298.969 576.381 296.966 574.681 295.439L554.326 277.464C553.301 276.563 552 276.087 550.625 276.112L533.746 276.388C532.071 276.413 531.046 278.19 531.821 279.692C532.596 281.169 533.171 281.695 535.272 282.596C540.023 284.674 549.425 286.752 549.425 286.752L555.601 295.264C556.451 296.441 557.502 297.442 558.702 298.243L580.157 312.388L587.184 315.617L590.559 311.637Z" fill="#EFC0AC"/>
<path d="M442.975 426.321C443.375 420.738 473.407 400.56 501.639 390.02C502.589 389.269 436.074 312.838 436.074 312.838C412.868 319.572 392.564 330.763 376.835 348.963L442.975 426.321Z" fill="#EBE6E6"/>
<path d="M624.419 239.361C624.419 239.361 613.891 286.853 640.898 292.335C667.904 297.818 672.78 291.384 672.78 291.384C672.78 291.384 658.777 293.312 649.35 289.606C639.922 285.901 626.394 279.342 628.57 256.26C630.745 233.178 630.745 233.153 630.745 233.153L624.419 239.361Z" fill="#3D3D3D"/>
<path d="M703.737 303.976C707.288 305.053 697.886 222.387 699.311 218.983C701.237 214.401 649.425 185.812 654.676 181.305C665.304 172.193 670.255 164.482 667.054 158.999L662.478 147.283C662.478 147.283 670.93 136.518 652.326 145.53C646.424 148.384 618.243 159.124 623.219 192.396C624.594 201.508 623.544 222.913 623.969 233.328C625.419 269.052 645.449 286.176 703.737 303.976Z" fill="#3D3D3D"/>
<path d="M747.596 298.268L717.689 232.376C715.288 218.732 720.365 208.643 706.711 211.047L702.685 211.748C689.057 214.151 673.604 226.568 676.004 240.212L691.383 307.882C693.783 321.526 749.996 311.912 747.596 298.268Z" fill="#EFC0AC"/>
<path d="M683.581 273.508C683.581 273.508 690.983 260.415 689.483 253.581C687.007 256.435 684.156 258.838 680.48 259.964L683.581 273.508Z" fill="#C79682"/>
<path d="M645.348 160.651C645.348 160.651 633.545 174.771 636.171 190.618C636.671 193.647 638.096 201.158 638.872 204.638C640.722 212.974 639.097 214.551 636.471 222.888C636.171 223.814 635.271 225.617 631.17 231.7C630.52 232.652 630.72 233.953 631.17 235.03C632.12 237.283 634.421 240.663 639.897 239.962C642.297 239.661 642.672 243.317 643.823 248.599C645.673 256.936 649.049 265.397 653.5 268.276C662.052 273.784 693.034 260.165 693.034 260.165L702.311 209.344L645.348 160.651Z" fill="#EFC0AC"/>
<path d="M656.001 267.1C651.55 264.246 648.174 255.759 646.323 247.422C645.148 242.165 644.773 238.485 642.397 238.785C636.921 239.486 634.621 236.132 633.67 233.853C633.22 232.802 633.02 231.475 633.67 230.524C637.771 224.44 638.672 222.638 638.972 221.712C641.597 213.375 643.223 211.773 641.372 203.461C640.597 199.956 639.172 192.446 638.672 189.442C636.646 177.149 643.273 165.934 646.348 161.478L645.348 160.626C645.348 160.626 633.545 174.746 636.171 190.593C636.671 193.622 638.096 201.133 638.872 204.613C640.722 212.949 639.097 214.527 636.471 222.863C636.171 223.789 635.271 225.592 631.17 231.675C630.52 232.627 630.72 233.929 631.17 235.005C632.12 237.258 634.421 240.638 639.897 239.937C642.297 239.637 642.672 243.292 643.823 248.574C645.673 256.911 649.049 265.372 653.5 268.251C662.052 273.759 693.034 260.14 693.034 260.14L693.059 260.015C685.532 263.119 663.077 271.656 656.001 267.1Z" fill="#EDB7A0"/>
<path d="M656.625 207.642C653.25 206.79 647.148 206.74 643.723 206.765C639.822 206.79 640.072 202.785 643.647 202.635C650.199 202.359 652.625 203.035 657.076 205.138C658.201 205.664 658.026 207.992 656.625 207.642Z" fill="#474747"/>
<path d="M645.823 214.952C646.248 217.155 647.223 218.808 647.998 218.632C648.773 218.482 649.073 216.579 648.648 214.401C648.223 212.198 647.248 210.546 646.473 210.721C645.698 210.896 645.398 212.749 645.823 214.952Z" fill="#111A33"/>
<path d="M644.998 248.75C649.299 248.399 650.499 248.174 657.376 245.044C657.376 245.044 652.3 255.184 645.223 253.982L644.998 248.75Z" fill="#E97084"/>
<path d="M645.224 234.629C645.224 234.629 645.699 237.558 643.373 239.361" stroke="#C79682" stroke-miterlimit="10"/>
<path d="M650.95 247.723C650.95 247.723 645.624 244.819 643.623 247.723L645.123 253.632L650.95 247.723Z" fill="#E97084"/>
<path d="M640.896 161.002C640.896 161.002 652.924 147.333 666.527 144.629Z" fill="#363636"/>
<path d="M640.896 161.002C640.896 161.002 652.924 147.333 666.527 144.629" stroke="#555555" stroke-width="3.9569" stroke-miterlimit="10" stroke-linecap="round" stroke-linejoin="round"/>
<path d="M684.381 223.99C684.381 223.99 681.031 227.62 677.055 231.25C670.503 237.208 667.778 245.845 669.703 254.833L670.528 258.638C670.503 258.638 688.207 247.648 684.381 223.99Z" fill="#EDB7A0"/>
<path d="M639.146 218.958C639.996 224.616 644.297 228.696 648.748 228.02C653.199 227.345 656.15 222.237 655.325 216.554C654.475 210.897 650.349 208.568 645.873 209.069C640.897 209.645 638.321 213.275 639.146 218.958Z" stroke="#F7F3F3" stroke-width="3.9569" stroke-miterlimit="10"/>
<path d="M653.049 209.019L684.881 207.242" stroke="#F7F3F3" stroke-width="3.9569" stroke-miterlimit="10"/>
<path d="M651.65 210.27L654.525 210.12C654.925 210.095 655.251 209.619 655.226 209.069C655.201 208.518 654.85 208.067 654.425 208.092L650.024 208.318C643.073 208.468 648.224 208.818 649.324 209.369C649.349 209.92 651.225 210.295 651.65 210.27Z" fill="#F7F3F3"/>
<path d="M639.097 220.736C639.572 221.787 640.447 222.413 641.047 222.138C641.647 221.862 641.722 220.811 641.247 219.759C640.772 218.708 639.897 218.082 639.297 218.357C638.697 218.633 638.622 219.684 639.097 220.736Z" fill="#F7F3F3"/>
<path d="M654.35 323.378C668.504 317.019 680.632 309.534 691.834 301.648C756.099 294.313 757.024 260.19 757.024 260.19C787.231 248.224 799.209 266.649 814.137 312.288C817.788 323.453 828.816 456.614 828.816 456.614C828.816 456.639 830.366 569.822 817.563 574.378L674.48 605.822C674.48 605.822 679.731 552.623 676.431 515.045C674.73 495.718 649.174 450.656 641.648 438.038C641.122 437.187 633.171 450.155 632.921 449.479C628.194 437.137 629.52 424.87 635.696 411.977C623.818 386.566 611.416 342.68 654.35 323.378Z" fill="#E97084"/>
<path d="M668.129 316.544C724.342 305.353 760.35 349.59 765.276 267.5C765.276 267.5 748.472 259.264 743.746 267.5C735.444 281.971 734.869 289.932 711.464 289.782C699.361 289.706 683.858 289.131 680.307 295.089L668.129 316.544Z" fill="#D9CCFF"/>
<path d="M643.448 440.542C643.448 440.542 673.305 491.563 675.18 506.383C677.056 521.204 674.48 602.843 674.48 602.843L692.184 602.718L717.34 526.211L676.781 404.241C674.255 396.63 663.653 408.122 657.751 413.529L624.969 440.817L634.321 447.051L643.448 440.542Z" fill="#D55F73"/>
<path d="M675.853 529.415C697.408 538.228 710.211 530.542 721.164 519.126L692.157 607.649L571.854 608L636.92 586.996C658.324 580.737 673.278 561.46 674.053 539.154L675.853 529.415Z" fill="#55617D"/>
<path d="M867.999 608L692.184 607.675C692.359 604.721 692.909 600.84 693.584 597.886L725.691 462.122C731.493 437.538 749.222 412.953 770.001 400.611L867.999 342.53V608Z" fill="#6683C2"/>
<path d="M867.999 608H743.57L763.6 480.698C772.352 443.671 825.114 420.239 856.421 401.688L867.999 395.354V608Z" fill="#5B78B7"/>
<path d="M755.948 221.787C755.948 221.787 756.048 236.757 751.672 242.841C746.471 250.051 716.189 210.17 680.481 203.711C645.548 197.378 640.946 173.119 640.896 161.002C640.896 157.272 642.272 153.717 645.172 150.462C656.2 138.095 691.008 131.185 722.19 142.802C756.573 155.619 755.773 200.707 755.948 221.787Z" fill="#474747"/>
<path d="M740.794 328.31C740.794 328.31 706.111 314.415 711.537 287.578C716.963 260.741 715.163 256.41 715.163 256.41L720.964 263.545C720.964 263.545 712.687 287.353 715.363 298.093C718.339 309.884 731.917 324.53 740.744 323.478C749.646 322.427 740.794 328.31 740.794 328.31Z" fill="#363636"/>
<path d="M675.755 137.67C649.249 143.352 683.332 151.664 675.155 177.525C672.979 184.335 690.208 205.689 693.459 211.422C703.911 229.873 692.109 229.097 714.064 254.833C720.315 262.168 718.34 282.471 719.465 293.512C722.941 327.559 781.104 361.882 808.135 345.659C823.539 344.933 823.464 317.32 815.537 298.043C814.237 305.128 827.265 279.217 796.633 254.858C787.455 247.573 799.508 232.001 771.902 204.563C756.573 189.342 759.649 173.895 742.395 154.818C723.941 134.465 705.312 131.361 675.755 137.67Z" fill="#474747"/>
<path d="M695.322 232.293C701.123 231.907 705.373 224.783 704.816 216.381C704.258 207.98 699.103 201.482 693.301 201.868C687.5 202.254 683.249 209.378 683.807 217.78C684.365 226.181 689.52 232.679 695.322 232.293Z" fill="#EFC0AC"/>
<path d="M696.085 217.13C696.86 220.61 694.66 224.09 692.859 224.491C691.059 224.891 692.234 221.662 691.459 218.182C690.684 214.702 688.258 212.274 690.059 211.873C691.834 211.472 695.31 213.65 696.085 217.13Z" fill="#C79682"/>
<path d="M683.807 217.756C683.807 217.756 683.582 208.869 687.383 205.114" stroke="#C79682" stroke-miterlimit="10"/>
<path d="M680.306 295.088L668.104 316.543C668.104 316.543 682.857 314.641 686.283 314.615L696.51 290.357C696.535 290.357 683.957 288.679 680.306 295.088Z" fill="#EAE3FF"/>
<path d="M791.781 515.872C791.781 515.872 834.716 527.338 867.724 543.711V522.006C850.445 513.844 825.339 508.236 791.781 515.872Z" fill="#7FCBB4"/>
<path d="M867.999 454.311C855.471 435.209 843.643 421.215 843.643 421.991C843.918 442.72 851.145 465.426 860.072 485.704C841.217 467.78 810.936 447.852 772.102 452.083C772.102 452.083 828.715 475.015 867.974 509.212V454.311H867.999Z" fill="#7FCBB4"/>
<path d="M867.723 564.89V539.73C843.618 533.146 811.985 533.271 779.128 557.805C779.128 557.78 826.539 557.73 867.723 564.89Z" fill="#7FCBB4"/>
<path d="M464.355 439.315C464.355 439.315 570.479 472.236 574.48 488.709L566.528 521.68C566.528 521.68 526.794 517.899 451.377 455.763L464.355 439.315Z" fill="#EFC0AC"/>
<path d="M609.964 508.787C609.964 508.787 603.313 526.787 588.459 527.162C573.606 527.513 542.424 522.956 551.801 482.575C556.877 460.745 569.005 468.43 569.005 468.43L593.26 500.049L609.964 508.787Z" fill="#D9CCFF"/>
<path d="M609.963 508.786C609.963 508.786 597.06 504.48 582.207 504.831C567.354 505.181 542.423 522.931 551.8 482.55C556.876 460.719 569.004 468.405 569.004 468.405L593.26 500.024L609.963 508.786Z" fill="#EAE3FF"/>
<path d="M693.183 367.565C678.18 400.736 649.073 435.259 633.394 468.13C627.743 479.997 621.842 491.763 615.865 503.479C613.94 506.809 611.364 509.463 608.138 511.415C605.188 513.969 601.762 515.596 597.836 516.347C590.91 517.949 581.957 516.798 575.981 512.692C569.805 508.461 564.503 502.253 563.103 494.667C562.853 492.088 562.628 489.51 562.378 486.931C562.603 481.849 564.078 477.143 566.754 472.811C574.781 457.115 582.608 441.343 589.959 425.32C588.934 427.573 587.909 429.802 586.859 432.055C595.786 412.603 603.762 392.75 612.289 373.123C615.515 365.712 618.791 358.327 622.117 350.967C623.117 347.262 624.942 344.082 627.543 341.378C629.693 338.249 632.494 335.821 635.97 334.118C639.446 332.065 643.147 331.039 647.097 331.014C650.898 330.313 654.649 330.613 658.35 331.94C665.277 334.419 671.903 338.975 675.204 345.81C676.129 348.238 677.029 350.666 677.955 353.07C679.105 358.177 678.93 363.209 677.404 368.191L693.183 367.565Z" fill="#E97084"/>
<path d="M393.714 430.578C393.714 430.578 382.986 421.716 382.486 410.976L395.339 422.642L393.714 430.578Z" fill="#EFC0AC"/>
<path d="M393.689 430.753C393.789 430.853 394.765 430.978 394.865 431.103C394.014 431.404 390.789 432.555 393.339 436.185C393.664 436.936 394.089 437.287 394.59 437.737C394.915 438.113 395.29 438.488 395.715 438.889C395.715 438.889 394.264 439.79 394.415 441.418C394.39 441.568 394.389 441.743 394.364 441.918C395.64 444.447 396.315 445.073 398.74 446.074C397.59 447.476 399.366 449.504 401.016 450.881C402.666 452.233 405.817 453.559 407.618 454.185C413.719 456.589 421.346 458.792 421.346 458.792L455.529 457.865C455.529 457.865 465.631 448.402 464.331 439.34C463.03 430.277 426.797 415.657 426.622 415.607C426.547 415.506 424.071 414.555 423.396 414.38C421.121 413.779 418.845 413.203 416.545 412.602C411.543 411.125 395.465 402.864 395.915 403.064C395.915 403.064 392.614 405.993 396.89 410.424C402.091 415.782 415.044 422.842 414.794 422.992C411.994 424.769 407.443 423.267 397.99 422.892C390.589 422.541 393.689 430.753 393.689 430.753Z" fill="#EFC0AC"/>
<path d="M406.867 434.408L406.792 434.759L393.639 430.929L393.714 430.578L406.867 434.408Z" fill="#C79682"/>
<path d="M409.193 442.619L409.118 442.969L395.965 439.114L396.04 438.789L409.193 442.619Z" fill="#C79682"/>
<path d="M413.143 451.206L413.068 451.557L399.915 447.726L399.99 447.376L413.143 451.206Z" fill="#C79682"/>
<path d="M416.795 423.643L414.844 422.967C414.844 422.967 411.344 424.118 403.742 422.316C396.115 420.488 395.34 422.666 395.34 422.666C395.34 422.666 406.993 428.174 412.769 427.072C419.595 425.771 416.795 423.643 416.795 423.643Z" fill="#C79682"/>
<path d="M400.066 405.042L402.191 406.319C402.842 406.719 403.067 407.495 402.717 408.071C402.366 408.647 401.541 408.797 400.891 408.396L398.766 407.12C398.115 406.719 397.89 405.943 398.24 405.367C398.616 404.816 399.441 404.666 400.066 405.042Z" fill="#FFC2CD"/>
<path d="M463.105 440.867C463.105 440.867 463.73 435.409 460.579 432.656C457.429 429.902 443.576 419.587 423.421 414.33C423.421 414.33 447.126 424.845 451.352 430.578C455.578 436.311 463.105 440.867 463.105 440.867Z" fill="#C79682"/>
<path d="M677.18 401.563C677.18 401.563 687.358 346.085 657.801 322.703" stroke="#D55F73" stroke-miterlimit="10" stroke-linecap="round" stroke-linejoin="round"/>
<path d="M252.533 481.223L294.843 456.789C297.119 455.487 296.819 453.159 294.193 451.657C291.567 450.154 287.567 449.979 285.291 451.281L242.981 475.715C240.706 477.017 241.006 479.345 243.631 480.847C246.257 482.374 250.258 482.525 252.533 481.223Z" fill="#FFDCC9"/>
<path d="M348.005 486.605C346.454 485.704 344.054 485.604 342.704 486.38L297.318 512.617C295.968 513.393 296.143 514.77 297.693 515.671C299.244 516.572 301.644 516.672 302.994 515.896L348.405 489.66C349.755 488.884 349.58 487.507 348.005 486.605Z" fill="#FFDCC9"/>
<path d="M364.883 496.595C363.333 495.693 360.932 495.593 359.582 496.369L314.172 522.606C312.821 523.382 312.996 524.759 314.547 525.66C316.097 526.561 318.498 526.662 319.848 525.886L365.258 499.649C366.609 498.873 366.434 497.496 364.883 496.595Z" fill="#FFDCC9"/>
<path opacity="0.34" d="M297.342 501.276C311.898 501.276 323.698 496.008 323.698 489.51C323.698 483.011 311.898 477.743 297.342 477.743C282.786 477.743 270.986 483.011 270.986 489.51C270.986 496.008 282.786 501.276 297.342 501.276Z" fill="#6E5487"/>
<path d="M305.595 448.878L294.467 444.372C293.867 444.121 293.292 443.871 292.717 443.571C292.167 443.295 291.642 443.07 291.092 442.895C291.042 442.87 290.992 442.87 290.942 442.845C290.492 442.694 290.066 442.594 289.616 442.494C280.514 440.541 269.312 441.593 263.285 451.732C257.709 461.12 260.435 472.911 260.435 472.911C262.235 482.325 270.537 492.564 271.387 492.914C271.387 492.914 276.288 496.644 279.939 497.846C281.965 498.522 285.715 499.248 290.266 499.498C302.844 500.224 308.371 490.586 311.971 483.476C313.397 480.622 324.049 455.888 305.595 448.878Z" fill="#E46681"/>
<path d="M305.82 448.853L294.692 444.372C294.092 444.121 293.517 443.871 292.942 443.571C292.391 443.295 291.866 443.07 291.316 442.895C291.266 442.87 291.216 442.87 291.166 442.845C290.716 442.694 290.291 442.594 289.841 442.494C288.09 442.119 286.265 441.843 284.415 441.743L293.767 445.523C312.221 452.508 301.394 477.193 300.118 480.122C292.742 497.195 276.438 496.469 278.438 497.471C283.589 500.024 285.915 499.223 290.466 499.499C303.044 500.225 308.57 490.586 312.171 483.476C313.621 480.597 324.274 455.863 305.82 448.853Z" fill="#E3758C"/>
<path d="M290.467 453.76C288.891 454.661 286.341 454.661 284.765 453.76C283.19 452.859 283.165 451.382 284.74 450.455C286.316 449.554 288.866 449.554 290.442 450.455C292.042 451.382 292.042 452.859 290.467 453.76Z" fill="#E3758C"/>
<path d="M287.691 451.682C287.641 451.382 286.74 444.147 292.342 440.892" stroke="#463757" stroke-width="3.7569" stroke-miterlimit="10" stroke-linecap="round" stroke-linejoin="round"/>
<path d="M270.561 455.788C270.561 456.488 269.986 457.064 269.286 457.064C268.586 457.064 268.011 456.488 268.011 455.788C268.011 455.087 268.586 454.511 269.286 454.511C270.011 454.511 270.561 455.087 270.561 455.788Z" fill="#FA909C"/>
<path d="M276.463 458.341C276.463 459.042 275.888 459.618 275.187 459.618C274.487 459.618 273.912 459.042 273.912 458.341C273.912 457.64 274.487 457.064 275.187 457.064C275.888 457.064 276.463 457.615 276.463 458.341Z" fill="#FA909C"/>
<path d="M271.862 461.896C271.862 462.597 271.287 463.173 270.587 463.173C269.887 463.173 269.312 462.597 269.312 461.896C269.312 461.195 269.887 460.62 270.587 460.62C271.287 460.62 271.862 461.195 271.862 461.896Z" fill="#FA909C"/>
<path d="M267.186 464.2C267.186 464.901 266.611 465.476 265.911 465.476C265.211 465.476 264.636 464.901 264.636 464.2C264.636 463.499 265.211 462.923 265.911 462.923C266.611 462.923 267.186 463.499 267.186 464.2Z" fill="#FA909C"/>
<path d="M273.087 466.753C273.087 467.454 272.512 468.03 271.811 468.03C271.111 468.03 270.536 467.454 270.536 466.753C270.536 466.052 271.111 465.477 271.811 465.477C272.512 465.477 273.087 466.027 273.087 466.753Z" fill="#FA909C"/>
<path d="M222.876 492.764C222.876 492.764 222.226 512.016 227.277 521.579L240.205 528.839C240.205 528.839 234.779 507.084 235.554 499.949L222.876 492.764Z" fill="#FFFAFA"/>
<path d="M323.699 552.197L391.44 511.14" stroke="#BFB1A8" stroke-width="2.4276" stroke-miterlimit="10" stroke-linecap="round" stroke-linejoin="round"/>
<path d="M324.375 558.03L392.116 516.973" stroke="#BFB1A8" stroke-width="2.4276" stroke-miterlimit="10" stroke-linecap="round" stroke-linejoin="round"/>
</g>
<defs>
<clipPath id="clip0_2017_2">
<rect width="801" height="608" fill="white"/>
</clipPath>
</defs>
</svg>
