<svg width="258" height="349" fill="none" xmlns="http://www.w3.org/2000/svg"><g opacity=".4"><path d="M190.729 251.969c16.671-9.625 22.275-31.13 12.516-48.033-9.759-16.903-31.185-22.803-47.856-13.177-16.671 9.625-22.275 31.13-12.516 48.033 9.759 16.903 31.185 22.802 47.856 13.177Z" fill="#E6EEFF"/><path d="M331.111 259.783c34.268-19.785 45.793-63.98 25.741-98.711-20.053-34.732-64.089-46.849-98.358-27.064-34.268 19.785-45.793 63.98-25.741 98.712 20.053 34.731 64.089 46.848 98.358 27.063Z" fill="#D8E3FA"/><path d="M210.709 30.358c26.069 45.153 10.597 102.886-34.555 128.955-45.148 26.066-102.884 10.6-128.953-34.553C21.133 79.608 36.604 21.871 81.752-4.195c45.154-26.068 102.889-10.598 128.957 34.553Z" fill="#E6EEFF"/></g></svg>