<svg width="320" height="45" fill="none" xmlns="http://www.w3.org/2000/svg"><mask id="a" fill="#fff"><path d="M300 0c11.046 0 20 8.954 20 20s-8.954 20-20 20H159.955l-1.833 3.554c-.745 1.444-2.811 1.444-3.556 0L152.733 40H20C8.954 40 0 31.046 0 20S8.954 0 20 0h280Z"/></mask><path d="M159.955 40v-1.5h-.914l-.419.812 1.333.688Zm-1.833 3.554-1.333-.688 1.333.688Zm-3.556 0 1.334-.688-1.334.688ZM152.733 40l1.334-.688-.42-.812h-.914V40ZM20 40v1.5V40Zm0-40v-1.5V0Zm280 0v1.5c10.217 0 18.5 8.283 18.5 18.5h3c0-11.874-9.626-21.5-21.5-21.5V0Zm20 20h-1.5c0 10.217-8.283 18.5-18.5 18.5v3c11.874 0 21.5-9.626 21.5-21.5H320Zm-20 20v-1.5H159.955v3H300V40Zm-140.045 0-1.333-.688-1.833 3.554 1.333.688 1.333.687 1.833-3.553-1.333-.688Zm-1.833 3.554-1.333-.688a.5.5 0 0 1-.889 0l-1.334.688-1.333.687c1.304 2.528 4.919 2.528 6.222 0l-1.333-.687Zm-3.556 0 1.334-.688-1.833-3.554-1.334.688-1.333.688 1.833 3.553 1.333-.687ZM152.733 40v-1.5H20v3h132.733V40ZM20 40v-1.5C9.783 38.5 1.5 30.217 1.5 20h-3c0 11.874 9.626 21.5 21.5 21.5V40ZM0 20h1.5C1.5 9.783 9.783 1.5 20 1.5v-3C8.126-1.5-1.5 8.126-1.5 20H0ZM20 0v1.5h280v-3H20V0Z" fill="#F37E60" mask="url(#a)"/></svg>