<svg width="80" height="80" fill="none" xmlns="http://www.w3.org/2000/svg"><circle cx="40" cy="40" r="40" fill="#F37E60"/><path d="M19.5 23.523c.007-.634-.078-2.604.041-3.07.212-.824 1.733-.58 2.35-.581l3.057.002 11.099-.001c1.968.006 2.86.488 4.222 1.86 2.4-2.4 4.098-1.86 7.182-1.86h10.837c2.088 0 2.819-.533 2.806 1.827l-.003 1.823 1.957-.005c.442 0 1.084-.098 1.456.209.645.532.406 3.279.406 4.109 0 .639.18 2.633-.25 3.11-.501.554-1.496.101-1.591-.588-.067-.478-.011-1.062-.011-1.551l.001-3.427h-1.968v7.942c1.23-.028 3.058 1.72 3.596 2.62.917 1.53-.379 2.549-1.343 3.474-.76.728-1.556 1.453-2.253 2.241l.001 11.647c.005 2.12.481 2.423-1.691 2.404l-14.69-.005c-1.598.001-3.264-.015-3.534 2.02.484.048 1.007.002 1.495.002l13.44-.002h7.02l.003-12.992c0-.556-.14-1.547.104-2.055.323-.67 1.485-.522 1.634.199.094.454.035 1.024.035 1.49v10.31c0 .581.13 4.024-.104 4.38-.525.795-2.694.476-3.61.476h-41.93c-.893.001-1.795.028-2.686-.012-1.394-.063-.947-2.358-.947-3.439V26.19c-.006-2.051-.445-2.669 1.968-2.668l1.902.002Zm1.854-1.79V53.88l14.668-.001c1.599-.003 1.847-.097 3.334.618l.03-.027c-.066-.968-.03-1.95-.03-2.921l.001-24.95c0-.8.074-1.821-.056-2.584-.393-2.304-2.496-2.285-4.233-2.284l-3.248.003c-3.488.001-6.98-.038-10.466 0Zm26.355 0-2.084-.002c-2.904-.001-4.464.147-4.45 3.727l.002 29.04c1.325-.673 2.012-.62 3.458-.62l10.692.002c1.307 0 2.624.038 3.93 0 .047-2.207 0-4.427 0-6.636v-3.831c-.78.774-3.998 4.165-4.367 4.33-.278.126-3.214.405-3.63.4-1.23-.015-1.017-1.227-1.017-2.078-.001-2.49-.452-2.142 1.22-3.762l6.306-6.323c.487-.498 1.01-.964 1.488-1.47V21.733H47.709ZM17.46 25.38c-.021.427-.003.859-.001 1.287l.001 31.056h21.895c-.238-2.074-1.885-2.027-3.392-2.02l-12.502.001c-.678 0-2.846.081-3.355-.085-.754-.246-.607-1.145-.607-1.763V25.38c-.678 0-1.36-.012-2.039 0Zm43.842 9.667-6.554 6.594c-.684.699-1.418 1.356-2.08 2.075.65.576 1.254 1.202 1.902 1.78l7.842-7.784c.247-.248.511-.482.72-.764-.136-.193-1.579-1.73-1.83-1.901Zm-9.256 10.629v.606c.206.003.418.015.623 0-.183-.21-.381-.46-.623-.606Z" fill="#fff"/><path d="M35.45 29.75h-8.93c-.511 0-1.47.135-1.898-.212-.596-.481-.41-1.544.685-1.567h8.866c.511 0 1.415-.128 1.86.18.697.485.296 1.52-.584 1.599ZM55.053 29.75l-8.982.001c-.383 0-.785.026-1.165-.018-1.063-.123-1.133-1.718.278-1.762l8.941-.002c.382 0 .78-.026 1.159.012.996.1 1.133 1.784-.231 1.768ZM35.446 35.738l-9.049.001c-.417 0-.853.023-1.268-.022-1.083-.115-1.246-1.692.174-1.758h9.028c.431 0 .878-.02 1.307.019.97.088 1.003 1.589-.192 1.76ZM55.277 35.739c-.667.021-1.341 0-2.01 0l-6.733.002c-.496 0-1.58.133-1.998-.177-.744-.552-.368-1.507.473-1.604.618-.026 1.25 0 1.87 0h6.683c.505-.001 1.68-.145 2.112.147.675.457.408 1.556-.397 1.632ZM33.968 41.657l-7.983.002c-.334 0-.687.022-1.02-.014-.676-.074-.91-1.024-.445-1.48.4-.39 1.608-.26 2.16-.256h7.777c.673 0 1.895-.156 1.92.836.032 1.207-1.637.917-2.41.912ZM50.113 41.656c-.254.03-.537.002-.794.002l-1.643-.002c-.83 0-1.938.072-2.739.004-.994-.085-1.135-1.535.073-1.752.326-.021.664-.002.992-.001l1.963.001c.888 0 2.711-.392 2.912.766.086.5-.294.914-.764.982ZM35.722 47.565c-.467.024-.946 0-1.414 0h-2.832c-.985.001-6.08.163-6.71-.104-.783-.332-.587-1.418.188-1.677.512-.028 1.04-.001 1.554-.001h6.787c.564 0 2.088-.128 2.578.094.806.366.637 1.445-.151 1.688Z" fill="#fff"/></svg>