<svg width="744" height="80" viewBox="0 0 744 80" fill="none" xmlns="http://www.w3.org/2000/svg">
<g clip-path="url(#clip0_2020_722)">
<mask id="path-1-inside-1_2020_722" fill="white">
<path d="M0 0H744V80H0V0Z"/>
</mask>
<path d="M0 0H744V80H0V0Z" fill="url(#paint0_linear_2020_722)"/>
<path d="M41.2473 31.5158C41.818 38.1885 40.4448 22.8139 38.4503 29.1486C37.3908 32.513 36.199 35.836 35.036 39.1675C33.7975 42.7158 32.5596 46.2662 31.3211 49.8145C28.9212 56.6918 26.3894 63.5386 24.1804 70.4788C22.5115 75.7199 21.1043 81.1904 20.9616 86.7072C21.7582 84.6535 22.8013 82.7001 23.9167 80.7981C25.3616 78.334 26.9332 75.9436 28.2952 73.4307C28.4439 73.1568 28.9026 73.3349 28.7523 73.6114C28.587 73.918 28.4169 74.2235 28.2463 74.5269C26.8808 76.9413 25.358 79.2649 23.9769 81.6696C22.7813 83.7498 21.7024 85.9082 20.9569 88.1862C20.9711 89.0046 21.0125 89.8254 21.0892 90.6444C21.3234 93.1755 21.9029 95.9228 22.9866 98.3934C23.9064 99.5091 24.8585 100.602 25.8377 101.668C25.2705 100.228 24.9531 98.686 24.849 97.1423C24.6586 94.318 25.1607 91.5124 26.1089 88.8505C27.1193 86.0102 28.5857 83.3554 30.1289 80.7708C31.7645 78.0316 33.4532 75.3284 35.0241 72.5515C36.6576 69.6626 38.207 66.7296 39.6756 63.7562C39.8138 63.4759 40.2725 63.6541 40.1327 63.937C39.954 64.2998 39.7731 64.663 39.5918 65.0242C38.1249 67.9487 36.5751 70.8332 34.9476 73.672C33.4002 76.3704 31.7362 78.9992 30.1602 81.6801C28.6444 84.2582 27.2388 86.9251 26.317 89.773C25.4697 92.3911 25.0951 95.1707 25.4163 97.9087C25.6199 99.6364 26.1149 101.326 26.9363 102.843C27.4474 103.382 27.9675 103.912 28.4914 104.439C28.5632 104.488 28.6371 104.537 28.7115 104.588C28.6504 104.331 29.0564 104.174 29.1799 104.441C29.2768 104.652 29.3763 104.865 29.4733 105.076C29.6087 105.159 29.7446 105.244 29.8817 105.324C30.1536 105.484 29.8569 105.875 29.5875 105.716C29.4941 105.754 29.4023 105.78 29.3135 105.744C29.2295 105.708 29.1491 105.67 29.0671 105.634C28.8025 105.626 28.5376 105.608 28.2734 105.573C28.0778 105.547 27.8829 105.514 27.6907 105.473C27.5454 105.461 27.4012 105.445 27.2586 105.426C23.0088 104.847 19.6155 101.859 17.5215 98.2852C15.1995 94.324 14.1089 89.604 14.0529 85.0313C13.6088 84.0058 13.2032 82.9645 12.8362 81.9074C11.3363 77.5829 10.5824 73.09 10.61 68.5128C10.6381 63.9003 11.2488 59.2751 10.7884 54.6682C10.3428 50.208 8.68005 46.0039 5.76226 42.5709C5.55806 42.33 5.944 42.024 6.14819 42.2649C6.49716 42.6745 6.83126 43.0966 7.14838 43.5315C9.78135 47.1339 11.1005 51.382 11.3728 55.8061C11.6562 60.4087 11.0307 65.0087 11.103 69.6129C11.1746 74.2327 12.1326 78.7787 13.7887 83.086C13.8775 83.319 13.9705 83.5509 14.0634 83.7828C14.0958 82.7855 14.1858 81.7965 14.3194 80.8127C13.7039 76.6402 13.6506 72.3784 13.9663 68.1702C14.5534 60.3917 16.3786 52.7829 18.2326 45.2202C20.0833 37.6715 21.9796 30.09 22.6745 22.3345C23.3646 14.6243 24.4994 17.2275 21.6527 9.97133C22.126 21.2215 24.8867 21.7734 21.7532 10.3944C22.103 11.2855 24.523 22.0449 23.0392 10.0887C25.268 17.2553 23.8174 16.7633 22.982 24.181C22.1144 31.8937 20.1468 39.4281 18.3116 46.9576C16.478 54.4845 14.76 62.0855 14.3514 69.8371C14.1889 72.9286 14.2482 76.0448 14.5959 79.1189C15.0762 76.6057 15.8394 74.1401 16.7593 71.7433C18.3384 67.6236 20.3406 63.6818 22.1474 59.6582C23.0646 57.6155 24.0026 55.548 24.5953 53.3858C25.2007 51.1742 25.3944 48.7667 24.3589 46.658C24.2204 46.375 24.6725 46.1792 24.8106 46.46C25.0436 46.9348 25.2255 47.4284 25.3541 47.9413C25.9013 50.1219 25.45 52.4294 24.7668 54.5291C24.0886 56.6122 23.166 58.623 22.2568 60.6152C20.4492 64.5793 18.4875 68.4851 16.9745 72.5736C15.9842 75.2456 15.2123 78.0026 14.822 80.8103C15.3413 84.2788 16.2518 87.6786 17.6597 90.9227C18.2365 91.8791 18.8404 92.818 19.4734 93.7389C19.5095 91.9234 19.8538 90.1118 20.3898 88.3762C20.4177 88.2879 20.4462 88.2016 20.4747 88.1153C20.3928 81.7284 22.0633 75.4266 24.0313 69.3831C26.3351 62.3078 28.8958 55.3106 31.347 48.2841C32.5959 44.7046 33.8452 41.1272 35.0941 37.5477C36.2517 34.2307 37.8184 38.8029 38.8311 35.4385C40.8188 28.8315 41.6 36.0069 40.4597 29.1294C40.4082 28.8191 40.8965 28.7472 40.948 29.0575C41.0825 29.876 41.1885 30.6969 41.2598 31.5216L41.2473 31.5158ZM19.9576 94.4456C20.0746 94.61 20.1895 94.7749 20.3086 94.9388C20.8267 95.6573 21.3613 96.3608 21.9075 97.0572C21.0786 94.6563 20.6621 92.089 20.5202 89.6839C20.1285 91.2394 19.914 92.8478 19.9576 94.4456ZM14.5308 84.9155C14.9836 85.9588 15.4787 86.9832 16.0029 87.9896C15.4148 86.2274 14.959 84.4315 14.6155 82.6112C14.5568 83.3762 14.5255 84.1436 14.5303 84.9134L14.5308 84.9155ZM24.5969 104.185C23.8592 103.704 23.1811 103.128 22.5843 102.481C21.0107 100.778 20.0026 98.6255 19.6368 96.3466C19.598 96.1084 19.5681 95.8703 19.5429 95.6333C18.6637 94.2009 17.8893 92.7039 17.2189 91.1666C16.2495 89.5613 15.3601 87.9082 14.5706 86.2071C14.6931 88.4556 15.0736 90.6935 15.7241 92.8496C16.3726 94.9973 17.2639 97.0983 18.5127 98.9708C20.0107 101.217 22.117 103.138 24.5927 104.186L24.5969 104.185ZM27.7739 104.99C27.6628 104.897 27.593 104.856 27.5216 104.809C26.154 103.917 25.034 102.773 24.1167 101.472C22.6477 100.003 21.3398 98.3784 20.191 96.6456C20.2121 96.7532 20.2312 96.8614 20.2544 96.9685C20.7166 99.1097 21.8292 101.112 23.4168 102.63C24.6306 103.793 26.1337 104.646 27.7734 104.987L27.7739 104.99ZM23.9777 100.334C24.1441 100.612 24.3217 100.882 24.505 101.147C24.9346 101.578 25.3785 101.993 25.8369 102.395C25.2079 101.716 24.5848 101.033 23.9777 100.334ZM20.0119 95.3672C20.0151 95.3995 20.0183 95.4319 20.0216 95.4643C20.8774 96.8448 21.8312 98.16 22.8812 99.3927C22.7493 99.128 22.6237 98.8619 22.5034 98.59C21.6416 97.5401 20.8074 96.466 20.0097 95.3677L20.0119 95.3672Z" fill="#EBDCEB"/>
<path d="M32.7476 74.7259C31.218 74.5482 29.9382 73.7633 28.7027 73.0055C28.6116 72.9498 28.4622 73.0428 28.4692 73.1471C28.5112 73.886 28.4276 74.6393 28.3639 75.3834C28.3334 75.7419 28.3207 76.1006 28.2964 76.4576C28.2707 76.8459 28.136 77.2159 28.0909 77.5977C28.1683 77.586 28.4791 77.5165 28.4791 77.5165C28.4931 77.6037 28.573 77.6775 28.6807 77.6343C29.0377 77.4876 29.344 77.2491 29.6625 77.0342C29.9959 76.807 30.3324 76.5834 30.6653 76.3541C30.9829 76.135 31.2999 75.9138 31.6169 75.6927C31.9303 75.4746 32.3095 75.1216 32.6948 75.0566C32.8743 75.0249 32.9604 74.7504 32.7476 74.7259Z" fill="#FFD88C"/>
<path d="M33.0475 74.9198C33.1888 75.1491 32.1576 75.9155 30.8079 76.7289C29.4587 77.5444 28.2995 78.1005 28.1598 77.8686C28.0185 77.6393 29.0541 76.9006 30.4054 76.0846C31.7566 75.2686 32.9073 74.6858 33.0491 74.9172L33.0475 74.9198Z" fill="#FFD88C"/>
<path d="M31.0774 50.636C35.1346 59.2656 35.2766 69.6432 28.6118 73.6682C28.5261 73.7196 28.4424 73.7704 28.3556 73.8175C28.3165 73.8401 28.2752 73.8631 28.2355 73.8836C28.1096 73.9533 27.9832 74.0209 27.8558 74.0843C27.8198 74.1017 27.7818 74.1196 27.7463 74.139C27.6861 74.1666 27.6585 74.182 27.6284 74.1958C27.5904 74.2137 27.5502 74.232 27.5122 74.2499C27.4139 74.2954 27.3151 74.3387 27.2137 74.3805C27.173 74.3968 27.1345 74.4126 27.0959 74.4284C27.0389 74.4508 27.0045 74.4656 26.9676 74.4788C26.786 74.5484 26.6055 74.6134 26.4235 74.6721C26.3882 74.6827 26.3534 74.6954 26.318 74.706C26.2347 74.7303 26.1994 74.7409 26.1662 74.751C26.1203 74.7641 26.0723 74.7777 26.0244 74.7913C25.9432 74.815 25.861 74.8346 25.7793 74.8562C25.7118 74.8722 25.6739 74.8812 25.6339 74.8908C25.5454 74.9118 25.4547 74.9333 25.3652 74.9502C25.2699 74.9706 25.1741 74.989 25.0777 75.0053C25.0398 75.0143 24.9988 75.0196 24.9603 75.0265C24.8319 75.0482 24.7051 75.0673 24.5756 75.0848C24.5215 75.0911 24.4678 75.0994 24.4157 75.1052C24.3705 75.1115 24.3268 75.1153 24.2811 75.1195C24.1896 75.128 24.0981 75.1365 24.004 75.1434C23.9582 75.1476 23.912 75.1498 23.8662 75.154C23.82 75.1562 23.7743 75.1604 23.728 75.1626C23.6818 75.1647 23.6355 75.1669 23.5893 75.1691C23.3602 75.1793 23.129 75.1812 22.896 75.1748C22.6634 75.1704 22.4314 75.1593 22.1974 75.1398C22.1046 75.1331 22.0112 75.1244 21.9173 75.1136C20.7305 74.9914 19.549 74.7045 18.3701 74.269C17.8459 74.0776 17.3232 73.8551 16.803 73.6054C16.6851 73.5495 16.5661 73.4894 16.4477 73.4314C16.4148 73.4149 16.3841 73.3979 16.3517 73.3835C16.2635 73.3404 16.177 73.2947 16.0904 73.249C16.0544 73.2288 16.0169 73.2112 15.9809 73.1911C15.8969 73.147 15.8151 73.1023 15.7306 73.0561C15.6947 73.036 15.6587 73.0158 15.6227 72.9956C15.5378 72.9474 15.4533 72.9012 15.3679 72.8508C15.3345 72.8322 15.3007 72.8115 15.2673 72.7929C15.1766 72.7394 15.086 72.6858 14.9953 72.6323C14.9693 72.6164 14.9432 72.6005 14.9151 72.5851C14.8109 72.5215 14.7067 72.4579 14.6047 72.3938C11.8186 70.6392 9.16949 68.1961 6.82933 65.273C0.856198 57.8189 1.30509 48.4474 10.0226 43.1855C15.8115 39.6911 21.3818 40.2604 25.6758 43.6005C27.8529 45.2943 29.6991 47.6941 31.0816 50.635L31.0774 50.636Z" fill="#FFCA42"/>
<path d="M18.626 40.8429C21.4889 42.5085 23.9052 45.3118 25.6129 48.9463C29.6727 57.5776 29.8126 67.9556 23.1453 71.9791C21.0596 73.237 18.7756 73.6694 16.4245 73.4263C20.6221 75.5368 24.928 75.8918 28.6101 73.6691C35.2774 69.6456 35.1354 59.2681 31.0777 50.6363C28.3637 44.8663 23.8701 41.1826 18.6265 40.845L18.626 40.8429Z" fill="#F2BD4D"/>
<path opacity="0.17" d="M31.0734 50.6369C35.1306 59.2665 35.2726 69.6441 28.6079 73.6692C28.5221 73.7205 28.4385 73.7713 28.3517 73.8184C28.3125 73.841 28.2713 73.8641 28.2316 73.8845C28.1057 73.9542 27.9792 74.0218 27.8518 74.0852C27.8159 74.1026 27.7778 74.1205 27.7424 74.14C27.6821 74.1676 27.6546 74.1829 27.6245 74.1967C27.5864 74.2146 27.5463 74.233 27.5082 74.2509C27.4099 74.2963 27.3111 74.3397 27.2097 74.3814C27.1691 74.3977 27.1305 74.4135 27.092 74.4293C27.0349 74.4517 27.0006 74.4665 26.9637 74.4797C26.7821 74.5494 26.6016 74.6143 26.4196 74.6731C26.3843 74.6837 26.3494 74.6964 26.3141 74.707C26.2308 74.7312 26.1955 74.7418 26.1622 74.7519C26.1164 74.765 26.0684 74.7786 26.0204 74.7922C25.9392 74.816 25.857 74.8355 25.7753 74.8571C25.7079 74.8731 25.67 74.8822 25.6299 74.8917C25.5414 74.9127 25.4508 74.9343 25.3613 74.9511C25.266 74.9716 25.1701 74.9899 25.0738 75.0062C25.0359 75.0152 24.9948 75.0205 24.9564 75.0275C24.828 75.0492 24.7011 75.0683 24.5717 75.0858C24.5175 75.092 24.4638 75.1003 24.4118 75.1061C24.3665 75.1124 24.3229 75.1162 24.2771 75.1204C24.1856 75.1289 24.0941 75.1374 24 75.1443C23.9543 75.1486 23.9081 75.1507 23.8623 75.155C23.8161 75.1571 23.7703 75.1614 23.7241 75.1635C23.6778 75.1657 23.6316 75.1678 23.5853 75.17C23.3557 75.1782 23.1246 75.1801 22.892 75.1757C22.6594 75.1714 22.4274 75.1602 22.1935 75.1407C22.1001 75.132 22.0072 75.1253 21.9134 75.1145C20.7287 74.9918 19.5472 74.7049 18.3662 74.2699C17.8441 74.0781 17.3214 73.8555 16.7991 73.6063C14.8078 72.6569 12.8371 71.3073 10.9616 69.6456C16.4139 70.7024 23.2376 66.5688 25.7611 63.1436C32.2306 54.3625 25.6708 43.5972 25.6708 43.5972C27.848 45.291 29.6941 47.6909 31.0767 50.6317L31.0734 50.6369Z" fill="#DA9C10"/>
<path d="M9.43304 45.3064C8.02106 44.7054 7.01674 43.5899 6.05285 42.5134C5.98251 42.433 5.8133 42.4798 5.7888 42.5828C5.61731 43.304 5.32271 44.0036 5.04756 44.7008C4.91593 45.0369 4.80055 45.3758 4.67363 45.713C4.53793 46.0789 4.30363 46.3952 4.14969 46.7499C4.22781 46.7601 4.54423 46.7798 4.54423 46.7798C4.532 46.8689 4.58746 46.9618 4.70474 46.9493C5.0892 46.9088 5.4519 46.7673 5.81797 46.6494C6.203 46.527 6.58853 46.4066 6.97257 46.28C7.34025 46.1595 7.70743 46.0369 8.07461 45.9142C8.43807 45.7947 8.90177 45.563 9.28875 45.608C9.46965 45.6291 9.63095 45.3897 9.43514 45.3059L9.43304 45.3064Z" fill="#B6ABDE"/>
<path d="M9.67852 45.3221C9.68498 45.3493 9.76985 45.4815 9.66528 45.6411C9.48725 45.9132 8.33719 46.1799 6.97057 46.5379C5.68404 46.8768 4.5371 47.1847 4.17203 47.0727C4.05436 47.0366 4.01273 46.8521 4.01172 46.8103C4.01083 46.5256 5.19387 45.9948 6.71966 45.5946C8.24545 45.1944 9.60797 45.0627 9.67641 45.3226L9.67852 45.3221Z" fill="#B6ABDE"/>
<path d="M9.66834 45.5758C9.73679 45.8357 8.53078 46.2792 7.00548 46.6815C5.47969 47.0817 4.21069 47.2883 4.14225 47.0284C4.0738 46.7686 5.27736 46.3522 6.80315 45.952C8.32894 45.5518 9.6004 45.3181 9.66884 45.5779L9.66834 45.5758Z" fill="#B6ABDE"/>
<path d="M14.7245 21.7164C16.1392 31.1442 13.3012 41.1432 5.76549 43.1243C5.66904 43.1494 5.57259 43.1745 5.47726 43.195C5.433 43.2055 5.38875 43.216 5.34449 43.2265C5.2028 43.258 5.0627 43.2869 4.92162 43.3116C4.88108 43.319 4.84054 43.3264 4.79951 43.3318C4.73529 43.3426 4.70318 43.348 4.67058 43.3514C4.62793 43.3593 4.5869 43.3646 4.54375 43.3705C4.43589 43.3851 4.32803 43.3996 4.22129 43.4096C4.17814 43.4154 4.13661 43.4186 4.09508 43.4219C4.03408 43.4275 3.99726 43.4319 3.95784 43.4346C3.76592 43.4515 3.57251 43.4621 3.37972 43.466C3.3424 43.4682 3.30669 43.4679 3.26887 43.468C3.18221 43.4687 3.14651 43.4684 3.1108 43.4681C3.06195 43.4686 3.0126 43.4671 2.96375 43.4677C2.8787 43.4658 2.79364 43.4639 2.7107 43.4615C2.64089 43.4582 2.60258 43.4563 2.56216 43.4549C2.46979 43.4503 2.37953 43.4453 2.28827 43.436C2.19069 43.4283 2.09312 43.4205 1.99665 43.4081C1.95784 43.4041 1.91643 43.3985 1.87762 43.3944C1.74917 43.3786 1.62071 43.3627 1.49337 43.3422C1.44042 43.3349 1.38698 43.3255 1.33354 43.3161C1.28952 43.3089 1.24501 43.2996 1.20099 43.2924C1.10985 43.2743 1.01871 43.2562 0.929683 43.2376C0.885168 43.2283 0.840658 43.219 0.795647 43.2076C0.750635 43.1962 0.706118 43.1869 0.661107 43.1755C0.616095 43.1641 0.57158 43.1548 0.526568 43.1434C0.304114 43.088 0.0817772 43.0238 -0.139444 42.9549C-0.360665 42.886 -0.579659 42.8077 -0.800144 42.7231C-0.887941 42.691 -0.974122 42.6562 -1.06291 42.6199C-2.16337 42.1679 -3.21233 41.5579 -4.21895 40.8075C-4.66508 40.4761 -5.10243 40.1162 -5.53048 39.7297C-5.62909 39.6427 -5.72609 39.5531 -5.82148 39.4609C-5.84741 39.4361 -5.87334 39.4114 -5.89926 39.3866C-5.97083 39.3197 -6.04029 39.2522 -6.11236 39.1832C-6.14139 39.1548 -6.17091 39.1242 -6.19994 39.0958C-6.2668 39.0299 -6.33415 38.962 -6.40101 38.8962C-6.43004 38.8677 -6.45957 38.8372 -6.48698 38.8061C-6.55483 38.7361 -6.62269 38.6661 -6.69054 38.5961C-6.71696 38.5692 -6.74388 38.5403 -6.7703 38.5134C-6.84175 38.4376 -6.9137 38.3597 -6.98565 38.2818C-7.00687 38.2582 -7.02759 38.2366 -7.0488 38.2129C-7.13005 38.124 -7.2118 38.0329 -7.29144 37.9414C-9.45705 35.4717 -11.2944 32.3783 -12.6992 28.9126C-16.2835 20.0712 -13.1699 11.204 -3.31358 8.61613C3.23128 6.89709 8.40145 9.01499 11.558 13.4339C13.1569 15.6739 14.238 18.4986 14.7209 21.7106L14.7245 21.7164Z" fill="#B6ABDE"/>
<path d="M5.6044 8.80322C7.87065 11.2093 9.3786 14.5842 9.9747 18.5536C11.3899 27.9835 8.55195 37.9824 1.01572 39.9614C-1.34177 40.5814 -3.65207 40.3507 -5.83624 39.4516C-2.42126 42.6626 1.60217 44.2181 5.76425 43.125C13.3026 41.1455 16.1385 31.147 14.7232 21.7171C13.7768 15.4121 10.5288 10.6084 5.60229 8.80372L5.6044 8.80322Z" fill="#9C8FCD"/>
<path opacity="0.1" d="M14.7248 21.7168C16.1396 31.1446 13.3016 41.1436 5.76586 43.1246C5.66941 43.1497 5.57296 43.1749 5.47762 43.1953C5.43337 43.2059 5.38912 43.2164 5.34486 43.2269C5.20316 43.2584 5.06307 43.2872 4.92199 43.3119C4.88145 43.3194 4.84091 43.3268 4.79987 43.3321C4.73565 43.343 4.70355 43.3484 4.67095 43.3517C4.6283 43.3596 4.58726 43.365 4.54412 43.3708C4.43626 43.3854 4.3284 43.4 4.22165 43.4099C4.17851 43.4157 4.13698 43.419 4.09545 43.4222C4.03445 43.4279 3.99763 43.4322 3.9582 43.435C3.76628 43.4519 3.57287 43.4625 3.38008 43.4663C3.34276 43.4686 3.30706 43.4682 3.26924 43.4684C3.18258 43.4691 3.14687 43.4688 3.11116 43.4684C3.06231 43.469 3.01297 43.4674 2.96412 43.468C2.87906 43.4661 2.79401 43.4643 2.71106 43.4619C2.64126 43.4586 2.60295 43.4566 2.56253 43.4552C2.47016 43.4507 2.3799 43.4456 2.28864 43.4364C2.19106 43.4286 2.09348 43.4209 1.99702 43.4085C1.95821 43.4044 1.9168 43.3988 1.87799 43.3948C1.74953 43.3789 1.62108 43.3631 1.49373 43.3425C1.44079 43.3352 1.38735 43.3258 1.33391 43.3165C1.28989 43.3093 1.24537 43.2999 1.20135 43.2927C1.11022 43.2746 1.01908 43.2565 0.930049 43.2379C0.885534 43.2286 0.841024 43.2193 0.796013 43.2079C0.751001 43.1965 0.706484 43.1872 0.661473 43.1758C0.616461 43.1645 0.571946 43.1552 0.526934 43.1438C0.30448 43.0884 0.0821432 43.0242 -0.139078 42.9552C-0.360796 42.8842 -0.579294 42.808 -0.799778 42.7235C-0.888072 42.6892 -0.974253 42.6545 -1.06255 42.6202C-2.163 42.1683 -3.21196 41.5583 -4.21859 40.8079C-4.66261 40.476 -5.10256 40.1145 -5.53012 39.7301C-7.16508 38.2564 -8.66732 36.4044 -9.98731 34.2793C-5.06724 36.8344 2.64998 34.7926 6.04796 32.2177C14.7594 25.6186 11.5605 13.4338 11.5605 13.4338C13.1594 15.6737 14.2404 18.4984 14.7233 21.7105L14.7248 21.7168Z" fill="#3B53CC"/>
<path d="M29.2985 49.5764C27.7207 48.8115 26.6389 47.4825 25.5969 46.1993C25.521 46.1047 25.3245 46.1492 25.2915 46.263C25.0552 47.0769 24.678 47.8602 24.3267 48.6396C24.1578 49.0155 24.0056 49.3963 23.844 49.7749C23.6672 50.1836 23.3831 50.5339 23.1877 50.9294C23.2762 50.9459 23.6354 50.9864 23.6354 50.9864C23.6172 51.0879 23.6762 51.1954 23.8081 51.1884C24.2475 51.1635 24.6701 51.0211 25.0954 50.9089C25.5413 50.7897 25.9882 50.6746 26.4331 50.5512C26.8591 50.4323 27.285 50.3134 27.7115 50.1966C28.1311 50.0792 28.6758 49.8415 29.1138 49.9141C29.3182 49.9494 29.5177 49.6833 29.2964 49.5769L29.2985 49.5764Z" fill="#FA8D8D"/>
<path d="M29.569 49.6069C29.5765 49.6383 29.6647 49.7941 29.5352 49.9706C29.3153 50.2725 27.9892 50.5104 26.4097 50.8438C24.9213 51.1578 23.5965 51.4484 23.1868 51.2984C23.0551 51.2501 23.0181 51.038 23.0198 50.989C23.0362 50.6648 24.4153 50.125 26.1791 49.7521C27.943 49.3793 29.5059 49.3038 29.569 49.6069Z" fill="#FA9595"/>
<path d="M36.6626 22.9405C37.7453 33.7815 33.9439 45.0389 25.2332 46.8817C25.1231 46.9057 25.0104 46.9281 24.9014 46.9473C24.8503 46.9573 24.7988 46.9651 24.7477 46.975C24.585 47.0026 24.424 47.0277 24.2619 47.0485C24.2167 47.0548 24.1688 47.0596 24.1236 47.0659C24.0478 47.0751 24.0131 47.0789 23.9758 47.0812C23.928 47.0859 23.878 47.0912 23.8301 47.0959C23.706 47.1077 23.5835 47.117 23.4606 47.1241C23.4122 47.1268 23.3639 47.1294 23.3155 47.1321C23.2472 47.1351 23.203 47.1367 23.1589 47.1384C22.9382 47.1466 22.7182 47.1481 22.4987 47.1429C22.4562 47.1419 22.4136 47.141 22.3711 47.14C22.2698 47.1354 22.2315 47.1335 22.1911 47.132C22.1349 47.1299 22.0783 47.1257 22.0242 47.1231C21.9271 47.1174 21.8316 47.1092 21.7341 47.1015C21.6565 47.0934 21.6092 47.0914 21.5652 47.0842C21.4603 47.0738 21.3575 47.0629 21.2537 47.0478C21.1436 47.0342 21.033 47.0185 20.924 47.0002C20.8779 46.9935 20.8339 46.9863 20.7899 46.9791C20.6437 46.9542 20.4991 46.9267 20.354 46.8971C20.2933 46.885 20.2341 46.8704 20.1734 46.8583C20.1241 46.8479 20.0723 46.8359 20.0226 46.8234C19.921 46.799 19.8169 46.7729 19.7148 46.7464C19.6651 46.7339 19.6128 46.7198 19.5625 46.7053C19.5123 46.6907 19.4621 46.6761 19.4119 46.6615C19.3617 46.647 19.3114 46.6324 19.2607 46.6157C19.0091 46.5408 18.7593 46.4544 18.5105 46.3633C18.2617 46.2722 18.0152 46.1717 17.7709 46.0619C17.6738 46.0187 17.5746 45.976 17.4786 45.9281C16.248 45.3503 15.0849 44.5973 13.9797 43.6847C13.4894 43.2799 13.01 42.846 12.5431 42.3804C12.4358 42.2756 12.3317 42.1656 12.226 42.0582C12.1991 42.0292 12.1696 41.9987 12.1426 41.9697C12.0655 41.8887 11.9883 41.8076 11.9107 41.7244C11.878 41.6902 11.8475 41.6555 11.8149 41.6213C11.7424 41.5413 11.67 41.4613 11.5976 41.3814C11.567 41.3466 11.5339 41.3103 11.5034 41.2756C11.4305 41.1935 11.357 41.1094 11.2836 41.0252C11.2557 40.9921 11.2256 40.9595 11.1977 40.9263C11.1202 40.8343 11.0432 40.7444 10.9651 40.6503C10.9429 40.6224 10.9212 40.5966 10.8969 40.5693C10.8091 40.462 10.7212 40.3548 10.635 40.2449C8.30401 37.3042 6.38047 33.6702 4.97175 29.6355C1.37918 19.3447 5.43335 9.3946 16.8265 6.98714C24.3912 5.3902 30.1726 8.09401 33.5264 13.3144C35.2264 15.961 36.3007 19.2446 36.6689 22.939L36.6626 22.9405Z" fill="#FA9595"/>
<path d="M26.9827 7.69162C29.4333 10.5641 30.9657 14.501 31.4204 19.0651C32.5035 29.9082 28.7022 41.1655 19.9888 43.0068C17.2643 43.5814 14.6379 43.1917 12.1987 42.044C15.9159 45.8989 20.4191 47.8992 25.2293 46.8818C33.9427 45.0406 37.744 33.7832 36.6609 22.9401C35.9378 15.6917 32.5003 10.0252 26.9806 7.69212L26.9827 7.69162Z" fill="#FA8D8D"/>
<path opacity="0.39" d="M36.6646 22.9397C37.7473 33.7807 33.9459 45.0381 25.2351 46.8809C25.125 46.9048 25.0124 46.9272 24.9034 46.9465C24.8523 46.9564 24.8007 46.9643 24.7497 46.9742C24.587 47.0018 24.426 47.0268 24.2639 47.0477C24.2187 47.054 24.1708 47.0587 24.1256 47.0651C24.0498 47.0742 24.0151 47.0781 23.9778 47.0803C23.9299 47.0851 23.88 47.0903 23.8321 47.0951C23.708 47.1069 23.5855 47.1161 23.4625 47.1233C23.4142 47.1259 23.3658 47.1286 23.3175 47.1312C23.2492 47.1342 23.205 47.1359 23.1609 47.1375C22.9402 47.1458 22.7201 47.1473 22.5007 47.142C22.4581 47.1411 22.4156 47.1401 22.3731 47.1392C22.2718 47.1346 22.2335 47.1326 22.1931 47.1312C22.1369 47.1291 22.0802 47.1249 22.0262 47.1222C21.9291 47.1166 21.8336 47.1084 21.736 47.1006C21.6584 47.0926 21.6112 47.0905 21.5672 47.0833C21.4623 47.0729 21.3595 47.062 21.2557 47.0469C21.1456 47.0333 21.035 47.0176 20.926 46.9994C20.8799 46.9926 20.8359 46.9854 20.7918 46.9782C20.6457 46.9533 20.5011 46.9258 20.356 46.8963C20.2952 46.8842 20.2361 46.8695 20.1753 46.8575C20.1261 46.8471 20.0743 46.8351 20.0246 46.8226C19.923 46.7981 19.8188 46.7721 19.7168 46.7455C19.6671 46.7331 19.6147 46.719 19.5645 46.7044C19.5143 46.6898 19.4641 46.6753 19.4139 46.6607C19.3636 46.6461 19.3134 46.6316 19.2627 46.6149C19.0106 46.5378 18.7612 46.4535 18.5125 46.3624C18.2632 46.2692 18.0172 46.1709 17.7729 46.0611C17.6758 46.0179 17.5782 45.9726 17.4806 45.9273C16.25 45.3494 15.0869 44.5964 13.9817 43.6839C13.4913 43.2791 13.014 42.8447 12.545 42.3796C10.7629 40.6052 9.15186 38.4079 7.76758 35.9093C13.239 39.0977 22.1611 37.198 26.1833 34.4483C36.4973 27.3976 33.5326 13.3125 33.5326 13.3125C35.2326 15.9592 36.3069 19.2428 36.6751 22.9372L36.6646 22.9397Z" fill="#FC748D"/>
<path d="M41.9802 67.9608C40.9316 66.6968 40.5283 65.1403 40.1405 63.6398C40.1141 63.529 39.9271 63.4917 39.854 63.5775C39.3344 64.1826 38.7065 64.7074 38.1006 65.2402C37.8078 65.4976 37.5311 65.7666 37.2434 66.0271C36.9319 66.3088 36.5517 66.4986 36.2315 66.7625C36.3007 66.8101 36.5914 66.984 36.5914 66.984C36.5367 67.0632 36.5441 67.1786 36.6596 67.224C37.0446 67.3733 37.4616 67.4134 37.8672 67.4804C38.2958 67.5509 38.7228 67.6239 39.1505 67.6901C39.5598 67.7541 39.9707 67.8155 40.38 67.8795C40.7846 67.9424 41.3423 67.9468 41.6868 68.1786C41.8487 68.2881 42.1222 68.1369 41.9755 67.9597L41.9802 67.9608Z" fill="#B6ABDE"/>
<path d="M42.2008 68.0959C42.1946 68.1261 42.2076 68.2931 42.0292 68.3951C41.7233 68.5695 40.4991 68.2618 39.0172 67.938C37.6222 67.6333 36.3795 67.3698 36.0867 67.0838C35.9934 66.9911 36.0449 66.7955 36.0643 66.7555C36.2045 66.4836 37.5948 66.553 39.2479 66.9134C40.9011 67.2738 42.2629 67.8138 42.2008 68.0959Z" fill="#B6ABDE"/>
<path d="M58.6977 47.984C55.3784 57.6909 47.7254 65.8675 39.5662 64.0823C39.463 64.0604 39.3593 64.0365 39.2573 64.0099C39.2102 63.999 39.1626 63.986 39.1149 63.9731C38.9653 63.9335 38.8177 63.8935 38.6713 63.8488C38.6305 63.8364 38.5871 63.8224 38.5463 63.81C38.4788 63.7885 38.4453 63.7788 38.4135 63.7665C38.3701 63.7525 38.3267 63.7385 38.2828 63.7224C38.1735 63.6843 38.0638 63.6441 37.9561 63.6034C37.9122 63.5874 37.8704 63.5708 37.8286 63.5542C37.7675 63.5312 37.7304 63.5157 37.6908 63.4986C37.4985 63.4206 37.3095 63.3374 37.1259 63.2485C37.0909 63.2325 37.0533 63.2149 37.0179 63.1969C36.9344 63.1548 36.8994 63.1389 36.8661 63.1203C36.8202 63.0958 36.7722 63.0719 36.7263 63.0475C36.645 63.0049 36.5678 62.9614 36.4881 62.9163C36.424 62.8807 36.3854 62.859 36.3489 62.8367C36.264 62.7884 36.1785 62.7381 36.0968 62.6846C36.0082 62.6305 35.9192 62.5744 35.8344 62.5172C35.7979 62.495 35.763 62.4701 35.7287 62.4473C35.6147 62.3706 35.5002 62.2918 35.3895 62.2099C35.3437 62.1766 35.2974 62.1412 35.2512 62.1058C35.2132 62.0772 35.1748 62.0466 35.1347 62.0186C35.0578 61.9573 34.9788 61.8966 34.9014 61.8332C34.863 61.8026 34.8266 61.7715 34.7882 61.7409C34.7513 61.7076 34.7129 61.677 34.6765 61.6459C34.6397 61.6127 34.6012 61.5821 34.5644 61.5488C34.3791 61.3874 34.1986 61.2183 34.0235 61.0434C33.8483 60.8686 33.6764 60.6885 33.5093 60.5007C33.4425 60.426 33.3758 60.3513 33.3107 60.274C32.4856 59.3037 31.7871 58.2105 31.2011 57.0001C30.9404 56.4656 30.7006 55.9063 30.4852 55.3279C30.4361 55.196 30.3869 55.0641 30.3394 54.9296C30.3262 54.8929 30.3156 54.8579 30.3025 54.8212C30.2676 54.7213 30.2332 54.6234 30.2004 54.523C30.1863 54.4822 30.1737 54.4388 30.1591 54.3959C30.1273 54.2996 30.0976 54.2028 30.0679 54.106C30.0554 54.0626 30.0412 54.0218 30.0287 53.9784C29.9985 53.8795 29.9678 53.7786 29.9398 53.6792C29.9303 53.6395 29.9167 53.6008 29.9051 53.5615C29.8751 53.4538 29.845 53.3461 29.8144 53.2363C29.807 53.2049 29.799 53.1715 29.7895 53.1406C29.7554 53.0161 29.723 52.8891 29.6927 52.7615C28.8534 49.3426 28.6339 45.4869 29.0103 41.4874C29.9714 31.2828 37.3259 24.3237 47.9981 26.6581C55.0839 28.208 58.9619 32.7582 59.7827 38.5253C60.1991 41.4484 59.831 44.6772 58.6977 47.984Z" fill="#B6ABDE"/>
<path d="M56.3979 31.1858C57.3656 34.5919 57.1341 38.5548 55.7366 42.6424C52.4173 52.3493 44.7648 60.528 36.603 58.7412C34.0503 58.1837 31.9615 56.8334 30.3284 54.9087C31.9929 59.6447 35.0558 63.0985 39.5628 64.0839C47.7241 65.8686 55.3771 57.692 58.6964 47.9851C60.9146 41.4956 60.1981 35.3148 56.3979 31.1858Z" fill="#9C8FCD"/>
<path opacity="0.1" d="M58.6985 47.9842C55.3792 57.6911 47.7263 65.8677 39.5671 64.0825C39.4639 64.0606 39.3602 64.0367 39.2582 64.0101C39.211 63.9992 39.1634 63.9862 39.1158 63.9733C38.9662 63.9337 38.8186 63.8937 38.6721 63.849C38.6313 63.8366 38.5879 63.8226 38.5471 63.8102C38.4797 63.7887 38.4462 63.779 38.4143 63.7666C38.3709 63.7527 38.3275 63.7387 38.2836 63.7226C38.1744 63.6845 38.0646 63.6443 37.957 63.6036C37.9131 63.5876 37.8713 63.571 37.8295 63.5544C37.7684 63.5314 37.7313 63.5159 37.6916 63.4988C37.4994 63.4208 37.3104 63.3376 37.1268 63.2487C37.0918 63.2327 37.0542 63.2151 37.0187 63.1971C36.9353 63.155 36.9003 63.139 36.867 63.1205C36.8211 63.096 36.7731 63.0721 36.7272 63.0477C36.6458 63.0051 36.5687 62.9616 36.489 62.9165C36.4248 62.8809 36.3863 62.8592 36.3498 62.8369C36.2648 62.7886 36.1794 62.7382 36.0977 62.6848C36.0091 62.6307 35.9201 62.5746 35.8352 62.5174C35.7988 62.4951 35.7639 62.4703 35.7296 62.4475C35.6156 62.3708 35.5011 62.292 35.3904 62.2101C35.3446 62.1767 35.2983 62.1414 35.2521 62.106C35.2141 62.0774 35.1757 62.0468 35.1356 62.0188C35.0587 61.9575 34.9797 61.8968 34.9023 61.8334C34.8638 61.8028 34.8275 61.7717 34.789 61.7411C34.7522 61.7078 34.7138 61.6772 34.6774 61.6461C34.6406 61.6129 34.6021 61.5822 34.5653 61.549C34.38 61.3876 34.2016 61.218 34.0243 61.0436C33.8492 60.8687 33.6768 60.6866 33.5102 60.5009C33.4434 60.4262 33.3788 60.351 33.3116 60.2742C32.4865 59.3039 31.7901 58.2102 31.202 57.0003C30.9434 56.4653 30.7036 55.906 30.4861 55.3281C29.6583 53.1191 29.1438 50.6171 28.9372 47.9402C32.3596 52.7842 40.7243 54.6001 45.2354 53.7952C56.8025 51.7352 59.7852 38.5229 59.7852 38.5229C60.2016 41.446 59.8335 44.6748 58.7002 47.9816L58.6985 47.9842Z" fill="#3B53CC"/>
<path d="M733.705 81.64C732.765 91.2737 727.53 100.418 719.682 100.498C719.583 100.498 719.482 100.498 719.383 100.498C719.336 100.498 719.291 100.498 719.244 100.495C719.098 100.491 718.954 100.483 718.81 100.474C718.77 100.472 718.728 100.467 718.688 100.465C718.622 100.46 718.589 100.455 718.558 100.453C718.516 100.448 718.474 100.446 718.429 100.441C718.321 100.429 718.212 100.415 718.104 100.401C718.062 100.396 718.019 100.389 717.977 100.382C717.916 100.373 717.878 100.368 717.84 100.361C717.647 100.328 717.456 100.293 717.268 100.25C717.23 100.243 717.195 100.234 717.16 100.224C717.075 100.203 717.04 100.194 717.004 100.187C716.957 100.175 716.908 100.163 716.861 100.149C716.778 100.128 716.696 100.104 716.613 100.078C716.547 100.06 716.507 100.048 716.47 100.034C716.38 100.008 716.293 99.9795 716.206 99.9489C716.112 99.9183 716.02 99.8853 715.928 99.85C715.89 99.8359 715.853 99.8217 715.815 99.8076C715.693 99.7605 715.573 99.7111 715.452 99.6593C715.403 99.6381 715.354 99.6169 715.304 99.5933C715.262 99.5745 715.222 99.5556 715.179 99.5368C715.095 99.4968 715.012 99.4567 714.927 99.4144C714.887 99.3932 714.845 99.3743 714.803 99.3531C714.762 99.3319 714.72 99.3107 714.68 99.2896C714.64 99.2684 714.598 99.2448 714.558 99.2236C714.353 99.1129 714.153 98.9952 713.955 98.8727C713.757 98.7503 713.559 98.6184 713.368 98.4818C713.291 98.4277 713.215 98.3712 713.138 98.3146C712.175 97.5964 711.299 96.7369 710.5 95.7479C710.147 95.3099 709.808 94.8483 709.485 94.3609C709.412 94.2502 709.339 94.1372 709.266 94.0241C709.247 93.9935 709.229 93.9629 709.21 93.9323C709.158 93.8475 709.104 93.7651 709.052 93.678C709.031 93.6426 709.01 93.6073 708.988 93.5696C708.939 93.4872 708.89 93.4048 708.842 93.3224C708.821 93.2871 708.8 93.2494 708.779 93.2141C708.729 93.1293 708.68 93.0445 708.633 92.9574C708.614 92.9244 708.595 92.8891 708.576 92.8561C708.525 92.7643 708.475 92.6701 708.423 92.5759C708.322 92.3852 708.265 92.2745 708.209 92.1662C706.702 89.1967 705.668 85.6951 705.15 81.9344C703.824 72.3408 709.052 64.3814 719.317 64.2754C726.134 64.2071 730.662 67.5746 732.659 72.7081C733.669 75.3102 734.03 78.3597 733.71 81.6424L733.705 81.64Z" fill="#FFABC0"/>
<path d="M727.977 66.6631C729.597 69.5949 730.243 73.292 729.847 77.347C728.907 86.983 723.673 96.1245 715.822 96.2046C713.368 96.2305 711.164 95.4298 709.254 94.0028C711.799 98.0107 715.346 100.542 719.681 100.497C727.532 100.417 732.767 91.2759 733.707 81.6399C734.335 75.197 732.343 69.6608 727.977 66.6631Z" fill="#FA8D8D"/>
<path opacity="0.39" d="M733.702 81.6424C732.762 91.276 727.528 100.42 719.679 100.5C719.58 100.5 719.479 100.5 719.38 100.5C719.333 100.5 719.288 100.5 719.241 100.498C719.095 100.493 718.951 100.486 718.808 100.476C718.768 100.474 718.725 100.469 718.685 100.467C718.619 100.462 718.586 100.458 718.556 100.455C718.513 100.45 718.471 100.448 718.426 100.443C718.318 100.432 718.21 100.418 718.101 100.403C718.059 100.399 718.016 100.392 717.974 100.385C717.913 100.375 717.875 100.37 717.838 100.363C717.644 100.33 717.454 100.295 717.265 100.253C717.228 100.246 717.192 100.236 717.157 100.227C717.072 100.206 717.037 100.196 717.002 100.189C716.954 100.177 716.905 100.166 716.858 100.151C716.775 100.13 716.693 100.107 716.611 100.081C716.545 100.062 716.505 100.05 716.467 100.036C716.378 100.01 716.29 99.9795 716.203 99.9512C716.109 99.9206 716.017 99.8877 715.925 99.8523C715.888 99.8382 715.85 99.8241 715.812 99.81C715.69 99.7629 715.57 99.7134 715.45 99.6616C715.4 99.6404 715.351 99.6192 715.301 99.5957C715.259 99.5768 715.219 99.558 715.177 99.5391C715.092 99.4991 715.009 99.4591 714.925 99.4167C714.885 99.3955 714.842 99.3767 714.8 99.3555C714.76 99.3343 714.717 99.3131 714.677 99.2919C714.637 99.2707 714.595 99.2471 714.555 99.226C714.35 99.1153 714.15 98.9975 713.952 98.8751C713.754 98.7503 713.556 98.6208 713.366 98.4842C713.288 98.43 713.213 98.3735 713.135 98.317C712.172 97.5988 711.296 96.7392 710.497 95.7502C710.144 95.3122 709.805 94.8483 709.483 94.3632C708.249 92.5052 707.238 90.3105 706.471 87.8921C710.648 91.6269 718.69 91.5327 722.644 89.8396C732.779 85.5019 732.654 72.7104 732.654 72.7104C733.664 75.3125 734.025 78.3621 733.704 81.6447L733.702 81.6424Z" fill="#FA9595"/>
<path d="M727.318 75.5106C727.238 73.111 727.16 70.7091 727.08 68.3095C727.062 67.7043 727.04 67.0991 727.022 66.4939C727.01 66.1524 726.48 66.1524 726.489 66.4939C726.569 68.9359 726.652 71.3778 726.732 73.8198C726.812 76.2618 726.918 78.7037 726.93 81.1457C726.939 83.5641 726.836 85.9873 726.463 88.3798C726.115 90.6098 725.564 92.8045 724.876 94.9545C723.48 99.3133 721.523 103.451 719.498 107.546C719.929 105.457 720.258 103.284 720.164 101.098C720.15 100.757 719.618 100.757 719.632 101.098C719.759 104.018 719.126 106.861 718.455 109.686C716.933 112.887 715.591 116.238 715.45 119.798C715.419 120.561 715.45 121.338 715.539 122.111C714.706 119.951 713.99 117.745 713.399 115.505C711.929 109.938 711.218 104.176 711.308 98.4185C711.402 92.2912 712.398 86.2227 712.888 80.1237C713.375 74.0529 713.538 67.9539 713.373 61.8666C713.208 55.7817 712.718 49.7086 711.906 43.6755C711.805 42.9314 711.701 42.1896 711.59 41.4455C711.541 41.1087 711.03 41.2524 711.079 41.5868C711.986 47.7329 712.556 53.9261 712.787 60.1335C713.015 66.3079 712.909 72.4917 712.466 78.6543C712.024 84.8287 711.025 90.963 710.806 97.1539C710.604 102.942 711.199 108.756 712.563 114.382C713.241 117.177 714.108 119.928 715.158 122.605C715.563 123.639 715.977 124.724 716.479 125.765C716.79 126.498 717.171 127.197 717.63 127.84C715.975 126.34 714.649 124.472 713.462 122.567C712.539 121.084 711.68 119.563 710.764 118.074C709.789 116.487 708.727 114.975 707.535 113.544C706.181 111.919 704.731 110.369 703.532 108.622C702.395 106.964 701.552 105.134 701.001 103.201C699.887 99.2898 699.898 95.1547 700.169 91.1302C700.313 89.0062 700.537 86.8868 700.746 84.7675C700.982 82.3749 701.217 79.9824 701.453 77.5899L701.629 75.8096C701.662 75.4705 701.132 75.4729 701.097 75.8096C700.638 80.4675 700.12 85.1254 699.738 89.7903C699.406 93.8477 699.272 97.9946 700.15 101.998C700.581 103.959 701.271 105.872 702.27 107.616C703.32 109.449 704.707 111.055 706.08 112.649C707.37 114.149 708.602 115.672 709.673 117.337C710.634 118.828 711.51 120.37 712.424 121.889C714.185 124.812 716.159 127.769 719.086 129.641C719.441 129.87 719.809 130.077 720.188 130.268C720.414 130.381 720.899 130.484 720.866 130.298C720.986 130.235 721.363 130.279 721.269 130.131C719.288 126.966 717.607 122.76 717.541 119.028C717.484 115.901 718.238 112.88 718.954 109.856C719.189 109.359 719.43 108.867 719.67 108.379C721.636 104.376 723.588 100.364 725.034 96.1366C725.759 94.0196 726.36 91.8579 726.772 89.6561C727.198 87.3813 727.398 85.0783 727.443 82.7682C727.49 80.3474 727.394 77.9266 727.314 75.5059L727.318 75.5106ZM717.748 112.729C717.341 114.624 717.028 116.548 717.011 118.491C716.997 120.375 717.24 122.266 717.722 124.086C718.207 125.914 718.944 127.675 719.896 129.309C718.518 128.365 717.623 126.903 716.908 125.379C716.286 123.848 715.987 122.167 715.97 120.53C715.942 117.705 716.745 114.987 717.826 112.385C717.8 112.5 717.774 112.613 717.751 112.729H717.748Z" fill="white"/>
<path d="M714.6 45.8297C713.232 44.8901 712.406 43.4914 711.61 42.1373C711.551 42.0384 711.362 42.0526 711.315 42.1562C710.983 42.8885 710.524 43.5714 710.089 44.2567C709.879 44.5864 709.686 44.9231 709.481 45.2575C709.26 45.6178 708.946 45.9074 708.711 46.2512C708.791 46.2795 709.121 46.3666 709.121 46.3666C709.09 46.4585 709.13 46.5691 709.255 46.5809C709.669 46.6186 710.081 46.5432 710.494 46.4985C710.927 46.4491 711.36 46.402 711.791 46.3478C712.206 46.296 712.618 46.2442 713.032 46.1924C713.439 46.1406 713.981 45.9922 714.379 46.1217C714.565 46.183 714.786 45.9616 714.596 45.8297H714.6Z" fill="#FFABC0"/>
<path d="M714.787 46.1664C714.806 46.4584 713.438 46.6751 711.74 46.781C710.042 46.8846 708.657 46.8375 708.641 46.5455C708.622 46.2535 709.981 46.0652 711.679 45.9592C713.376 45.8556 714.768 45.8744 714.787 46.1664Z" fill="#FFABC0"/>
<path d="M725.12 21.8072C724.644 32.1544 719.555 42.2095 711.17 42.7276C711.064 42.7347 710.955 42.7394 710.849 42.7417C710.8 42.7417 710.75 42.7441 710.701 42.7464C710.546 42.7488 710.39 42.7511 710.237 42.7464C710.192 42.7464 710.15 42.7464 710.105 42.7441C710.035 42.7417 709.999 42.7394 709.966 42.7394C709.919 42.7394 709.874 42.7347 709.827 42.7323C709.71 42.7252 709.594 42.7182 709.479 42.7064C709.432 42.704 709.387 42.6993 709.342 42.6923C709.276 42.6852 709.236 42.6828 709.194 42.6758C708.987 42.6522 708.782 42.624 708.577 42.5887C708.537 42.5816 708.499 42.5745 708.459 42.5675C708.367 42.5486 708.33 42.5416 708.292 42.5345C708.24 42.5251 708.188 42.5133 708.137 42.5039C708.047 42.485 707.958 42.4638 707.868 42.4427C707.795 42.4238 707.753 42.4144 707.713 42.4026C707.616 42.3791 707.522 42.3532 707.425 42.3249C707.324 42.2967 707.223 42.266 707.124 42.2354C707.084 42.2237 707.042 42.2095 707.002 42.1954C706.87 42.153 706.738 42.1059 706.606 42.0588C706.552 42.0376 706.498 42.0188 706.443 41.9976C706.399 41.9811 706.354 41.9623 706.307 41.9434C706.215 41.9057 706.123 41.8681 706.031 41.828C705.987 41.8092 705.94 41.788 705.895 41.7692C705.85 41.748 705.805 41.7291 705.761 41.7079C705.716 41.6867 705.671 41.6656 705.624 41.6444C705.4 41.5384 705.179 41.423 704.96 41.3006C704.741 41.1805 704.524 41.0509 704.31 40.9144C704.225 40.8602 704.138 40.806 704.056 40.7495C702.987 40.036 702.005 39.1647 701.098 38.1521C700.695 37.7047 700.307 37.229 699.937 36.7251C699.852 36.6097 699.767 36.4943 699.685 36.3766C699.664 36.346 699.64 36.313 699.619 36.2824C699.558 36.1953 699.497 36.1081 699.438 36.021C699.412 35.9833 699.388 35.9456 699.362 35.9103C699.306 35.8256 699.249 35.7408 699.193 35.6536C699.169 35.616 699.143 35.5783 699.12 35.5406C699.063 35.4511 699.007 35.364 698.95 35.2745C698.929 35.2392 698.906 35.2039 698.884 35.1686C698.826 35.072 698.764 34.9755 698.705 34.8766C698.689 34.8483 698.67 34.82 698.654 34.7894C698.585 34.6764 698.519 34.5634 698.453 34.448C696.68 31.3584 695.385 27.6731 694.622 23.6816C692.677 13.5064 697.825 4.71576 708.787 4.03992C716.065 3.5925 721.091 6.94108 723.504 12.3172C724.726 15.0417 725.28 18.2796 725.117 21.8072H725.12Z" fill="#FFABC0"/>
<path d="M718.174 6.11857C720.068 9.16102 720.958 13.0771 720.758 17.4312C720.282 27.7784 715.191 37.8336 706.807 38.3493C704.187 38.5117 701.789 37.777 699.67 36.3571C702.611 40.4992 706.539 43.0095 711.169 42.7246C719.552 42.2088 724.643 32.1537 725.119 21.8042C725.437 14.8856 723.004 9.08095 718.174 6.11621V6.11857Z" fill="#FA8D8D"/>
<path opacity="0.39" d="M725.122 21.808C724.646 32.1551 719.558 42.2103 711.172 42.7284C711.066 42.7354 710.958 42.7401 710.852 42.7425C710.802 42.7425 710.753 42.7448 710.703 42.7472C710.548 42.7495 710.393 42.7519 710.24 42.7472C710.195 42.7472 710.152 42.7472 710.108 42.7448C710.037 42.7425 710.002 42.7401 709.969 42.7401C709.922 42.7401 709.877 42.7354 709.83 42.7331C709.712 42.726 709.597 42.7189 709.481 42.7072C709.434 42.7048 709.389 42.7001 709.345 42.693C709.279 42.686 709.239 42.6836 709.196 42.6766C708.989 42.653 708.784 42.6247 708.579 42.5894C708.539 42.5824 708.502 42.5753 708.462 42.5682C708.37 42.5494 708.332 42.5423 708.294 42.5353C708.243 42.5258 708.191 42.5141 708.139 42.5046C708.05 42.4858 707.96 42.4646 707.871 42.4434C707.798 42.4246 707.755 42.4152 707.715 42.4034C707.619 42.3798 707.524 42.3539 707.428 42.3257C707.327 42.2974 707.225 42.2668 707.126 42.2362C707.086 42.2244 707.044 42.2103 707.004 42.1962C706.872 42.1538 706.74 42.1067 706.608 42.0596C706.554 42.0384 706.5 42.0195 706.446 41.9984C706.401 41.9819 706.356 41.963 706.309 41.9442C706.217 41.9065 706.126 41.8688 706.034 41.8288C705.989 41.81 705.942 41.7888 705.897 41.7699C705.852 41.7487 705.808 41.7299 705.763 41.7087C705.718 41.6875 705.674 41.6663 705.626 41.6451C705.403 41.5392 705.181 41.4238 704.962 41.3013C704.743 41.1789 704.527 41.0517 704.312 40.9151C704.228 40.861 704.143 40.8045 704.058 40.7503C702.989 40.0344 702.007 39.1655 701.1 38.1529C700.7 37.7055 700.312 37.2275 699.939 36.7259C698.52 34.809 697.319 32.5178 696.367 29.9769C701.037 33.7399 709.623 33.196 713.753 31.1708C724.345 25.9784 723.509 12.3203 723.509 12.3203C724.731 15.0449 725.285 18.2828 725.122 21.8103V21.808Z" fill="#FA9595"/>
<path d="M728.638 70.6811C727.698 69.313 727.427 67.7093 727.168 66.1622C727.149 66.0491 726.968 65.9926 726.888 66.0727C726.316 66.6379 725.642 67.1112 724.99 67.5939C724.674 67.827 724.375 68.0719 724.064 68.3098C723.73 68.5665 723.332 68.7242 722.988 68.9621C723.052 69.0162 723.33 69.2188 723.33 69.2188C723.269 69.2941 723.266 69.4119 723.377 69.466C723.749 69.6497 724.163 69.7298 724.564 69.8334C724.985 69.9417 725.407 70.0547 725.831 70.1583C726.236 70.2596 726.641 70.3585 727.046 70.4574C727.446 70.5563 728.002 70.6105 728.329 70.8766C728.482 71.0014 728.767 70.8742 728.635 70.6835L728.638 70.6811Z" fill="#FFCA42"/>
<path d="M728.847 70.8336C728.837 70.8618 728.837 71.0314 728.651 71.1185C728.331 71.2669 727.13 70.8477 725.677 70.3909C724.309 69.9599 723.087 69.5831 722.818 69.27C722.731 69.1687 722.799 68.9756 722.825 68.9356C722.99 68.6742 724.375 68.8673 725.995 69.3783C727.617 69.8893 728.934 70.5533 728.847 70.8336Z" fill="#FFD362"/>
<path d="M728.69 71.062C728.603 71.3423 727.247 71.055 725.624 70.544C724.002 70.033 722.728 69.4914 722.815 69.2135C722.902 68.9333 724.239 69.2441 725.862 69.7551C727.484 70.2661 728.777 70.7842 728.69 71.062Z" fill="#FFCA42"/>
<path d="M747.082 52.03C742.928 61.5176 734.573 69.0813 726.56 66.557C726.459 66.524 726.357 66.491 726.256 66.4557C726.209 66.4392 726.162 66.4227 726.117 66.4063C725.971 66.3544 725.827 66.2979 725.684 66.2414C725.644 66.2249 725.601 66.2084 725.561 66.192C725.495 66.1637 725.465 66.1496 725.432 66.1354C725.389 66.1166 725.347 66.0978 725.305 66.0789C725.199 66.0295 725.093 65.9824 724.987 65.9306C724.944 65.9117 724.904 65.8905 724.864 65.8693C724.805 65.8411 724.768 65.8222 724.732 65.8011C724.546 65.7045 724.365 65.6032 724.188 65.4973C724.153 65.4761 724.12 65.4573 724.085 65.4361C724.005 65.3866 723.972 65.3654 723.939 65.3466C723.894 65.3183 723.849 65.2901 723.805 65.2618C723.727 65.2123 723.652 65.1605 723.576 65.1087C723.515 65.0663 723.48 65.0404 723.444 65.0169C723.364 64.9604 723.284 64.9015 723.204 64.8426C723.119 64.7791 723.037 64.7155 722.955 64.6495C722.922 64.6236 722.886 64.5954 722.853 64.5695C722.745 64.4823 722.639 64.3905 722.533 64.2987C722.491 64.261 722.446 64.221 722.403 64.1833C722.368 64.1503 722.333 64.1173 722.295 64.0844C722.222 64.0161 722.152 63.9478 722.079 63.8772C722.043 63.8418 722.008 63.8065 721.973 63.7735C721.937 63.7382 721.902 63.7029 721.869 63.6676C721.834 63.6322 721.801 63.5969 721.765 63.5592C721.593 63.3803 721.429 63.1942 721.268 63.0012C721.108 62.8104 720.951 62.6126 720.8 62.4077C720.739 62.3277 720.68 62.2452 720.621 62.1605C719.879 61.1102 719.274 59.9446 718.791 58.6753C718.577 58.1125 718.384 57.5285 718.219 56.928C718.181 56.7914 718.144 56.6525 718.108 56.5136C718.099 56.4759 718.089 56.4382 718.08 56.4005C718.054 56.2969 718.028 56.1933 718.005 56.0897C717.995 56.0473 717.986 56.0026 717.974 55.9578C717.95 55.8589 717.929 55.7577 717.906 55.6588C717.896 55.614 717.887 55.5716 717.877 55.5269C717.856 55.4233 717.835 55.3197 717.814 55.2161C717.807 55.176 717.797 55.1336 717.79 55.0936C717.769 54.9829 717.748 54.8699 717.729 54.7569C717.722 54.7239 717.717 54.6909 717.713 54.658C717.689 54.5284 717.668 54.3989 717.649 54.2671C717.103 50.7466 717.213 46.8422 717.932 42.8437C719.768 32.6449 727.723 26.2845 738.2 29.5836C745.156 31.776 748.646 36.7046 748.971 42.587C749.136 45.5683 748.49 48.7897 747.075 52.0229L747.082 52.03Z" fill="#FFCA42"/>
<path d="M746.228 34.8916C746.904 38.4097 746.331 42.3847 744.584 46.3785C740.43 55.8685 732.073 63.4299 724.062 60.9055C721.556 60.1166 719.583 58.5719 718.113 56.4878C719.373 61.4095 722.14 65.1607 726.565 66.5548C734.576 69.0792 742.933 61.5154 747.087 52.0278C749.864 45.6838 749.675 39.3917 746.23 34.8916H746.228Z" fill="#FFCA42"/>
<path opacity="0.21" d="M747.076 52.0319C742.922 61.5196 734.567 69.0833 726.553 66.559C726.452 66.526 726.351 66.493 726.249 66.4577C726.202 66.4412 726.155 66.4247 726.11 66.4082C725.964 66.3564 725.821 66.2999 725.677 66.2434C725.637 66.2269 725.595 66.2104 725.555 66.194C725.489 66.1657 725.458 66.1516 725.425 66.1374C725.383 66.1186 725.34 66.0998 725.298 66.0809C725.192 66.0315 725.086 65.9844 724.98 65.9326C724.938 65.9137 724.898 65.8925 724.858 65.8713C724.799 65.8431 724.761 65.8242 724.726 65.8031C724.54 65.7065 724.358 65.6052 724.182 65.4993C724.146 65.4781 724.113 65.4592 724.078 65.4381C723.998 65.3886 723.965 65.3674 723.932 65.3486C723.887 65.3203 723.843 65.292 723.798 65.2638C723.72 65.2143 723.645 65.1625 723.57 65.1107C723.508 65.0683 723.473 65.0424 723.438 65.0189C723.358 64.9624 723.278 64.9035 723.197 64.8446C723.113 64.781 723.03 64.7175 722.948 64.6515C722.915 64.6256 722.88 64.5974 722.847 64.5715C722.738 64.4843 722.632 64.3925 722.526 64.3007C722.484 64.263 722.439 64.223 722.397 64.1853C722.361 64.1523 722.326 64.1193 722.288 64.0864C722.215 64.0181 722.145 63.9498 722.072 63.8791C722.037 63.8438 722.001 63.8085 721.966 63.7755C721.931 63.7402 721.895 63.7049 721.862 63.6696C721.827 63.6342 721.794 63.5989 721.759 63.5612C721.587 63.3799 721.422 63.1939 721.262 63.0031C721.102 62.8101 720.944 62.6146 720.793 62.4097C720.732 62.3273 720.673 62.2472 720.614 62.1625C719.872 61.1122 719.267 59.9466 718.784 58.6773C718.57 58.1145 718.379 57.5305 718.212 56.93C717.572 54.6317 717.273 52.0626 717.296 49.3474C720.306 54.5328 728.517 57.1043 733.1 56.6945C744.848 55.6443 748.964 42.5938 748.964 42.5938C749.129 45.575 748.484 48.7964 747.068 52.0296L747.076 52.0319Z" fill="#E0AD2A"/>
<path d="M705.219 77.11C703.827 76.6013 702.695 75.5158 701.602 74.4655C701.522 74.3878 701.381 74.4514 701.381 74.562C701.381 75.3368 701.268 76.0998 701.171 76.8557C701.124 77.2207 701.096 77.588 701.053 77.9554C701.009 78.351 700.867 78.7066 700.809 79.0928C700.879 79.0975 701.167 79.0904 701.167 79.0904C701.176 79.1846 701.244 79.2788 701.345 79.2552C701.68 79.1799 701.974 78.9986 702.276 78.8431C702.594 78.6807 702.911 78.5182 703.227 78.351C703.528 78.1909 703.83 78.0307 704.134 77.8706C704.433 77.7128 704.798 77.4279 705.153 77.442C705.318 77.4491 705.412 77.183 705.219 77.11Z" fill="#9C8FCD"/>
<path d="M705.437 77.1057C705.449 77.1339 705.552 77.2658 705.493 77.4424C705.392 77.7462 704.422 78.1253 703.277 78.6245C702.199 79.0931 701.243 79.5194 700.892 79.4346C700.779 79.4063 700.704 79.2156 700.694 79.1708C700.633 78.8718 701.577 78.2077 702.854 77.652C704.132 77.0962 705.319 76.8372 705.437 77.1057Z" fill="#9C8FCD"/>
<path d="M705.483 77.3744C705.6 77.6429 704.616 78.2151 703.34 78.7732C702.061 79.3289 700.973 79.6586 700.855 79.3902C700.738 79.1217 701.724 78.5777 703.001 78.022C704.279 77.4663 705.362 77.106 705.48 77.3744H705.483Z" fill="#9C8FCD"/>
<path d="M713.998 44.8548L713.716 45.5448C713.631 45.7544 713.546 45.9663 713.466 46.1759C710.183 54.7993 711.227 64.4918 716.304 72.2299L716.711 72.8539C716.751 72.9151 716.772 72.981 716.775 73.0446C716.779 73.2707 716.603 73.4638 716.362 73.4473L715.618 73.3931C706.161 72.7008 696.97 76.704 691.039 84.1006C691.034 84.1077 690.605 84.6422 690.605 84.6422C690.374 84.9295 689.977 84.8424 689.901 84.5315L689.725 83.8086C687.483 74.6859 680.936 67.2376 672.193 63.8372C672.11 63.8042 672.028 63.7736 671.945 63.743L671.248 63.4793C671.037 63.3992 670.954 63.1684 671.025 62.9847C671.053 62.9094 671.105 62.8411 671.183 62.794L671.816 62.4007C679.872 57.4038 684.956 48.7615 685.406 39.2903L685.441 38.5462C685.453 38.2825 685.712 38.1271 685.938 38.1977C685.985 38.2118 686.032 38.2354 686.072 38.2731L686.345 38.5015L686.642 38.7534C693.886 44.8713 703.675 47.0354 712.821 44.5369L713.539 44.3415C713.652 44.3109 713.76 44.3321 713.845 44.3862C713.991 44.4804 714.071 44.6712 713.996 44.8572L713.998 44.8548Z" fill="#9C8FCD"/>
<path d="M685.92 38.2515C685.92 38.2515 689.768 42.8269 691.148 44.2634C692.806 45.9919 696.767 48.2501 698.83 48.78C701.933 49.5759 706.389 48.382 708.685 47.2588C709.951 46.6394 713.609 44.5012 713.609 44.5012C713.806 44.3953 714.018 44.6143 713.908 44.8097C713.908 44.8097 708.065 53.777 708.002 58.8917C707.973 61.1193 710.526 65.9632 712.005 67.9484C713.022 69.3118 716.632 72.9359 716.632 72.9359C716.781 73.1031 716.62 73.3598 716.406 73.3009C716.406 73.3009 712.302 71.8009 710.9 71.41C708.31 70.6847 703.205 70.9461 700.454 72.1447C697.549 73.4116 694.556 77.0804 693.218 79.2304C692.413 80.5232 690.439 84.6536 690.439 84.6536C690.333 84.8467 690.041 84.7855 690.02 84.5665C690.02 84.5665 689.994 80.2595 689.846 78.8348C689.573 76.2304 688.329 70.4539 686.639 68.8621C684.5 66.8487 680.175 65.2662 677.808 64.6493C676.2 64.2301 671.278 63.3823 671.278 63.3823C671.059 63.3305 671.045 63.0268 671.257 62.9538C671.257 62.9538 675.437 61.5832 676.791 61.0252C679.256 60.0126 683.799 57.0054 684.957 54.9238C685.97 53.1058 686.617 48.6151 686.575 46.4605C686.537 44.4353 685.534 38.421 685.534 38.421C685.518 38.2091 685.779 38.0961 685.923 38.2515H685.92Z" fill="#AFA1E4"/>
</g>
<path d="M744 79.5H0V80.5H744V79.5Z" fill="black" fill-opacity="0.1" mask="url(#path-1-inside-1_2020_722)"/>
<defs>
<linearGradient id="paint0_linear_2020_722" x1="595.405" y1="65.7658" x2="542.459" y2="-107.072" gradientUnits="userSpaceOnUse">
<stop stop-color="#C7E0FF"/>
<stop offset="1" stop-color="#DDECFF"/>
</linearGradient>
<clipPath id="clip0_2020_722">
<path d="M0 0H744V80H0V0Z" fill="white"/>
</clipPath>
</defs>
</svg>
