<svg width="297" height="296" fill="none" xmlns="http://www.w3.org/2000/svg"><path d="M186.485 0c-6.601 0-12.001 5.4-12.001 12v15.36h24.001V12c-.12-6.6-5.4-12-12-12Zm0 18.84a6.71 6.71 0 0 1-6.721-6.72c0-3.72 3-6.72 6.721-6.72 3.72 0 6.72 3 6.72 6.72 0 3.72-3 6.72-6.72 6.72Z" fill="#F37E60"/><path d="M193.205 12.124c0-3.72-3-6.72-6.72-6.72-.36 0-.72 0-.96.12.96-.36 1.08-.6 2.76-.6 3.72 0 6.72 3 6.72 6.72 0 3.36-1.68 5.16-4.32 5.88 1.32-1.32 2.52-3.36 2.52-5.4Zm-15.121 13.68v-15.36c0-4.2 1.8-7.8 5.041-9.96-5.041 1.44-8.641 6-8.641 11.52v15.36h24.001v-1.56h-20.401Z" fill="#B03D44" opacity=".45"/><path d="M285.356 347.408H82.914c-6.48 0-11.64-5.28-11.64-11.641V39.843c0-6.48 5.28-11.64 11.64-11.64h202.442c6.481 0 11.641 5.28 11.641 11.64v295.924c.12 6.361-5.16 11.641-11.641 11.641Z" fill="#84A2E3"/><path d="M284.05 40.68H84.367v294.244H284.05V40.68Z" fill="#ACC3F6"/><path d="M276.37 49.68H92.047v276.244H276.37V49.68Z" fill="#fff"/><path d="M256.806 33.481v12H111.484v-12c0-.84.12-1.68.36-2.52 1.08-3.48 4.32-5.88 8.04-5.88h128.402c4.8-.12 8.52 3.72 8.52 8.4Z" fill="#F37E60"/><path opacity=".45" d="M256.806 42.478v3H111.484v-8.64c0-2.28.12-4.2.36-5.88 1.08-3.48 4.32-5.88 8.04-5.88h1.081c-2.161 2.16-3.841 5.4-3.841 8.76v8.64h139.682Z" fill="#B03D44"/><g opacity=".15" stroke="#0964AF" stroke-width="3.122" stroke-miterlimit="10" stroke-linecap="round" stroke-linejoin="round"><path d="M143.164 78.96h29.88M240.242 88.563h22.801M143.164 88.563h87.241M143.164 98.164h119.882M224.883 107.641h38.16M143.164 107.641h72.241M182.883 78.96h80.161"/></g><g opacity=".15" stroke="#0964AF" stroke-width="3.122" stroke-miterlimit="10" stroke-linecap="round" stroke-linejoin="round"><path d="M143.164 147.602h29.88M240.242 157.203h22.801M143.164 157.203h87.241M143.164 166.684h119.882M224.883 176.281h38.16M143.164 176.281h72.241M182.883 147.602h80.161"/></g><g opacity=".15" stroke="#0964AF" stroke-width="3.122" stroke-miterlimit="10" stroke-linecap="round" stroke-linejoin="round"><path d="M143.164 213.844h29.88M240.242 223.324h22.801M143.164 223.324h87.241M143.164 232.922h119.882M224.883 242.406h38.16M143.164 242.406h72.241M182.883 213.844h80.161"/></g><g opacity=".15" stroke="#0964AF" stroke-width="3.122" stroke-miterlimit="10" stroke-linecap="round" stroke-linejoin="round"><path d="M143.164 281.281h29.88M240.242 290.766h22.801M143.164 290.766h87.241M182.883 281.281h80.161"/></g><path d="M130.562 103.564h-22.44c-1.44 0-2.52-1.081-2.52-2.521v-22.32c0-1.44 1.08-2.52 2.52-2.52h22.44c1.44 0 2.52 1.08 2.52 2.52v22.44c0 1.321-1.2 2.401-2.52 2.401ZM130.562 171.965h-22.44c-1.44 0-2.52-1.08-2.52-2.52v-22.441c0-1.44 1.08-2.52 2.52-2.52h22.44c1.44 0 2.52 1.08 2.52 2.52v22.441c0 1.44-1.2 2.52-2.52 2.52ZM130.562 240.363h-22.44c-1.44 0-2.52-1.08-2.52-2.52v-22.44c0-1.44 1.08-2.52 2.52-2.52h22.44c1.44 0 2.52 1.08 2.52 2.52v22.44c0 1.32-1.2 2.52-2.52 2.52ZM130.562 308.762h-22.44c-1.44 0-2.52-1.08-2.52-2.52v-22.441c0-1.44 1.08-2.52 2.52-2.52h22.44c1.44 0 2.52 1.08 2.52 2.52v22.441c0 1.32-1.2 2.52-2.52 2.52Z" stroke="#5B78B7" stroke-width="1.157" stroke-miterlimit="10"/><path d="m108.961 85.081 10.32 12.48 19.92-31.44M108.961 152.882l10.32 12.48 19.92-31.44" stroke="#F37E60" stroke-width="5" stroke-miterlimit="10" stroke-linecap="round" stroke-linejoin="round"/><path d="M32.644 172.805s.48 3.48.84 3.72c0 0-.36.6-1.32.6" fill="#FFB392"/><path d="m42.847 188.76-6.36 27.84c-.12.72.36 1.56 1.08 1.56l19.68 2.88c.72.12 1.32-.36 1.44-1.08l6.36-27.84c.12-.72-.36-1.56-1.08-1.56l-19.68-2.88c-.72 0-1.32.36-1.44 1.08Z" fill="#68CCEA"/><path d="m44.042 189.602-6.12 26.64 19.56 2.76 6.12-26.52-19.56-2.88Z" fill="#E5F8FF"/><path d="m61.563 194.4-16.68-2.4M60.967 196.92l-16.56-2.4M53.992 198.96l-10.32-1.44M53.281 201.12l-10.32-1.44M52.565 203.284l-10.44-1.44M56.393 215.279l-10.44-1.56" stroke="#A1D2F0" stroke-width=".574" stroke-miterlimit="10" stroke-linecap="round" stroke-linejoin="round"/><path d="M35.28 216.843c1.08-.48 1.92-1.44 2.76-2.4.84-.96 1.56-1.92 2.4-2.76.36-.36.6-.72.72-1.2-1.32-.12-2.16 1.56-3.48 1.68.6-2.16 1.44-4.2 2.64-6.24.24-.48.6-1.08.36-1.56-1.44.6-2.64 1.56-3.6 2.64-.72.84-1.44 1.68-1.92 2.52-1.68 2.64-2.76 5.64-3.48 8.64" fill="#F2A181"/><path d="m29.64 239.283-14.041-11.881s-6.6 8.88-4.08 17.401c1.2 4.2 2.76 6.24 3.36 8.28.6 1.92 4.8 28.32 4.56 30.24-.36 1.92-2.64 7.32-3.48 12.96-1.08 6.84-.84 29.161-1.68 35.041-.84 5.88 4.68 6.96 4.92 4.92 2.52-17.04 9.36-43.681 10.32-52.201.84-8.52.48-24.12.12-44.76Z" fill="#FFBE9D"/><path d="m29.643 256.086-6.12 14.04c2.52 4.32 4.08 9.48 4.32 14.76.12 2.76-.12 5.4-.12 8.16 0 .24 0 .36.12.6.84-3.96 1.44-7.32 1.68-9.48.72-6 .72-15.6.48-27.96-.12-.12-.24-.12-.36-.12Z" fill="#F2A181"/><path d="M48.717 345.243c-.36-.36-3.6-.84-5.04-1.56-1.44-.6-3.24-2.52-3.6-3.36-.36-.84-.24-5.041-.24-6.841.36-12.12 2.52-41.88 2.88-48.96.6-12.36-1.08-25.081-5.76-45.001l-17.76-13.56s-4.92 9.24-3.36 18c.96 5.16 5.16 5.88 5.88 7.92.72 2.04 11.4 34.081 11.4 34.081s-2.04 6.96-2.16 14.52c-.12 6.48 2.88 26.04 3.36 33.48.12 1.44.36 4.921-.12 6.001-.48 1.32-1.92 3-1.8 4.68 0 .96.72 1.92 2.04 2.28 1.2.36 1.92-.36 2.4-.36 2.52-.12 3.24 1.56 7.56 1.56 1.32 0 3.24-.72 4.32-1.8.48-.24.36-.72 0-1.08Z" fill="#FFBE9D"/><path d="M15.84 225.843c-1.2 1.32-5.52 8.521-5.52 14.281s1.8 9.6 2.16 10.8c1.08 3.12 3.12 6 3.12 6.6 0 .6 3.24.96 9.96.6 12.48-.84 17.16-3.12 17.16-3.12s.36-5.16-.84-16.56c-.6-5.4-5.16-13.921-5.16-13.921" fill="#397789"/><path d="M4.438 202.682s2.04 10.08 2.52 11.76c.48 1.8 3.12 13.08 5.64 12.96 2.52-.24 16.08-11.52 16.08-11.52l-1.92-3.84-12 5.64s-1.08-12.96-2.04-16.08" fill="#FFBE9D"/><path d="M9.125 208.805c1.32 4.44 3.84 9.24 4.68 12.6.12.72 8.4-2.28 8.4-5.4" fill="#F2A181"/><path d="M12.597 188.758s-3.96.48-6 1.92c-5.16 3.96-1.2 18.12-1.2 18.12s-.24.72 3.24.6c3.48-.24 6.24-1.2 6.24-1.2l-.96-11.64" fill="#F37E60"/><path d="M8.038 196.805s-.48 8.4 1.08 12.6c1.44 0 2.76-.36 2.76-.36l-3.84-12.24Z" fill="#CE5C3F"/><path d="M31.55 162.481c2.4 3.12 1.92 7.44 1.32 11.28-.24 1.92-.6 3.96-.84 5.88-.12.961-.36 1.921-1.08 2.521-.72.6-1.8.6-2.76.6v4.8c-2.76.12-5.52.12-8.28 0 0-1.08-.24-2.28-.72-3.24-1.32 0-2.28-1.44-2.76-2.64a27.465 27.465 0 0 1-1.44-4.441c-.6-2.04-1.08-3.96-1.2-6.12 0-2.04.48-4.2 1.8-5.88.84-1.08 2.16-1.92 3.36-2.52 1.68-.84 3.72-1.56 5.52-.84" fill="#FFBE9D"/><path d="M28.676 177.244c-.36-1.68-.36-2.52.24-3.6.12-.36.36-.72.72-.96.48-.36.96-.36 1.44-.12.36.12.6.36.72.72.6-2.16.72-4.56.48-6.84-.24-3.6-2.4-6.36-5.64-7.68-5.88-2.4-14.28 0-16.68 5.76-1.8 4.32-.84 10.68 2.52 14.28 3 3.24 7.44 3.72 11.52 3 2.04-.36 5.28-.12 6.36-3a.265.265 0 0 0-.36-.36c-.72.12-1.32-.84-1.32-1.2Z" fill="#5B5B5B"/><path d="M29.154 169.563c.24.36.12.84.36 1.2.36.6.84.84 1.44 1.08.96.48.72 1.92.72 2.52.72-.48.84-1.8 1.08-2.52.24-.72.36-1.56.6-2.28.24-.72.6-1.44.72-2.28.24-2.76-1.44-5.881-3.48-7.441-1.56-1.08-3.84-1.08-5.52.12-.72.48-1.2 1.2-1.56 2.041-.12.36-.24.72-.12 1.08" fill="#5B5B5B"/><path d="M15.719 188.764c.12-.96.36-2.04 1.32-2.401.24-.12.48-.12.72-.12 2.76-.24 5.4-.48 8.16-.36 1.08 0 2.28.12 3.24.6 1.56.841 2.4 2.521 3.24 4.081" fill="#CE5C3F"/><path d="M38.64 223.559c-.36-.6-1.2-1.2-1.56-1.8-.72-1.44-1.44-7.68-1.2-9.24.24-1.68 1.8-2.64 2.52-6.36.84-4.92-1.08-8.64-2.28-10.32-1.56-2.28-.6-2.28-1.2-5.04-.12-.48-.24-1.08-.6-1.44-.36-.36-2.64-1.44-3.12-1.44-4.44-.72-6.96-.12-11.401 0-2.16.12-4.44.36-6.6.84-2.4.48-4.44 1.2-4.92 4.44-.72 5.04-.12 10.08 1.44 14.88.96 3.12 7.08 14.04 5.52 16.2-.36.48-1.2 1.44-1.32 2.04-.36 2.16 4.56 3 6.72 3.12 3.24.24 6.96.12 10.2-.12 2.52-.12 7.8-.96 8.28-3.96.12-.84-.12-1.32-.48-1.8Z" fill="#F37E60"/><path d="M37.674 207.002c0 .84-.48 2.04-.6 2.52-.6.36-3.12.84-4.44.24-.36-2.88-2.04-8.52-2.04-8.52s7.08 4.92 7.08 5.76Z" fill="#CE5C3F"/><path d="M34.563 204.96s8.16 19.56 11.64 19.56c2.52 0 8.88-18.12 8.88-18.12l-3.96-1.92-4.44 7.56-4.56-14.04" fill="#FFBE9D"/><path d="M50.281 205.921s1.32-2.04 1.2-3.48c0-.6-.36-3.24-.12-3.72.24-.481.96-2.281 1.32-2.521.36-.36 1.8-.84 2.16-.6.36.24.72-.84 1.32-.72.6.12 1.08.6 1.08 1.08 0 .48.72.6.84.96s0 .72.24.96c.12.24.6.12.72.841.12.6 0 .72 0 1.08 0 .36.36.36.24.96s-.48 1.44-.96 2.16c-.36.72-1.2 1.56-2.16 2.28-.48.36-.84.84-1.32 1.8" fill="#FFBE9D"/><path d="M52.444 190.8c-.12-.12-.36-.36-.72-.24-.36.24-.24.6-.12.72s2.4 5.4 2.4 5.4.24.24.6-.12.24-.48.24-.48-2.28-5.16-2.4-5.28Z" fill="#1B227A"/><path d="M54.957 195.846c-.48.84-.96 1.08-1.44 1.56-.36.36-.36.6-.72.96.72 0 .6-.48 1.56-1.2.48-.36.84-.6.96-1.2 0-.24-.24-.36-.36-.12Z" fill="#F2A181"/><path d="M27.117 187.446c2.16.12 8.28-.96 11.64 2.64 2.88 3 4.56 10.8 5.64 14.04-2.88 2.88-5.64 5.28-9.96 4.32-.12-.12-2.28-6.96-3.84-7.56" fill="#F37E60"/><path d="M42.836 249.722s1.44 33.6 1.2 36c-.24 2.401-3 48.721-3 48.721s-5.64.96-8.88 0c0 0-4.32-36.12 0-47.28l-1.92-10.801s.24 8.04 0 9.6c-.24 1.681-8.88 47.281-8.88 47.281s-5.76-.12-8.28-2.4c0 0-.84-31.68 5.16-45.121l-5.4-34.92 3.12-8.88 26.88 7.8Z" fill="#397789"/><path d="M30.114 276.364c-.84-5.16-5.76-23.4-5.88-23.88-2.64-2.04-5.16-3.96-6-5.64 1.44 4.44 4.32 4.68 5.4 6.96 2.64 5.64.6 4.44 6.72 23.28" fill="#1C4E5D"/><path d="M6.12 187.205c-.12 1.8.24 3.601.24 5.401 0 1.8-.36 3.72-1.68 4.92-1.32 1.2-3.72 1.32-4.68-.24.96 1.92 3 3.36 5.16 3.72 2.16.36 4.44-.12 6.36-.96 5.28-2.4 8.76-7.92 8.64-13.801-.12-4.8-3.72-9.36-8.88-6.96-3 1.44-4.92 4.68-5.16 7.92Z" fill="#5B5B5B"/></svg>