<svg width="605" height="479" fill="none" xmlns="http://www.w3.org/2000/svg"><g clip-path="url(#a)"><path fill="#fff" d="M239 191.916h366v287H239zM413.887 8.723a4.252 4.252 0 1 1-1.995-8.265 4.252 4.252 0 0 1 1.995 8.265ZM373.122 39.104c-5.96 1.302-11.854-2.45-13.196-8.403-1.341-5.951 2.373-11.87 8.315-13.252 5.999-1.395 11.987 2.362 13.341 8.37 1.355 6.01-2.442 11.972-8.46 13.285Z"/><path d="M260.218 218.68c-59.022 12.894-117.387-24.273-130.674-83.216C116.257 76.528 153.036 17.911 211.88 4.23 271.291-9.58 330.584 27.624 344 87.126c13.411 59.503-24.187 118.544-83.782 131.554Z" fill="#fff"/><path d="M247.642 52.053c-3.213 3.076-6.029 6.826-7.72 10.963 4.923 5.922 10.09 13.855 9.406 21.98-.017.212-.043.42-.064.63-1.046-1.34-1.184-4.156-1.566-5.834-1.578-6.915-5.381-13.827-11.627-17.466-7.151-3.798-13.574-3.612-21.417-2.543-6.505 1.186-12.24 3.461-17.424 7.646-5.498 3.186-9.468 11.043-11.073 16.954-2.752 10.135-1.047 20.292-.587 30.56-.211 1.011-.213 1.135-.95 1.844-.741-6.635-1.415-13.44-1.357-20.123.1-11.322 3.328-21.347 11.528-29.37 8.321-6.522 15.334-8.152 25.53-9.778 1.684-.006 3.369.004 5.052-.025 4.845.907 9.08 2.173 13.189 4.976l3.141-5.14c7.539-10.506 16.068-17.878 29.174-20.032 11.279-1.853 23.681.71 32.967 7.481 7.572 5.522 12.588 13.83 15.033 22.806 1.337 4.909 1.904 10.35 5.474 14.267 3.089 3.39 7.538 5.1 11.673 6.812 3.581 1.288 7.134 2.539 10.513 4.312 5.208 3.593 7.99 7.978 9.164 14.208 1.168 6.203.488 12.521-.484 18.697-1.384-3.653 1.366-8.633-.143-12.341a25.966 25.966 0 0 0-.191-2.475c-.814-6.958-2.974-12.066-8.546-16.472-3.189-2.114-6.953-3.212-10.531-4.482-7.051-2.624-13.237-5.762-15.982-13.252-.924-2.523-1.366-5.292-2.052-7.892-2.161-8.179-6.021-15.505-12.455-21.113-8.435-7.352-19.954-10.485-31.008-9.616-10.595.833-19.802 5.793-26.667 13.818Z" fill="#4D261D"/><path d="M247.645 52.05c6.864-8.025 16.071-12.985 26.667-13.818 11.053-.869 22.572 2.264 31.007 9.616 6.434 5.608 10.294 12.935 12.455 21.113.686 2.6 1.128 5.369 2.052 7.892 2.745 7.49 8.931 10.628 15.982 13.252-.139 1.908-.29 3.815-.454 5.722-4.057-1.704-8.397-3.226-11.726-6.206-4.553-4.076-6.136-9.798-7.947-15.402-3.803-11.765-9.149-21.723-20.364-27.8-12.267-6.648-27.638-6.213-39.723.58-1.764.991-6.329 4.758-7.614 5.027-.109.023-.224.016-.335.024Z" fill="#fff"/><path d="M239.926 63.017c1.692-4.137 4.507-7.887 7.721-10.963.111-.008.226-.001.335-.024 1.285-.27 5.85-4.036 7.614-5.028 12.085-6.793 27.456-7.227 39.723-.58 11.216 6.077 16.561 16.036 20.364 27.8 1.812 5.605 3.394 11.327 7.947 15.403 3.329 2.98 7.67 4.502 11.726 6.206a487.83 487.83 0 0 1 6.75 3.412c4.602 2.964 7.795 5.419 10.726 10.109.82 1.312 1.337 2.993 2.247 4.186 1.508 3.707-1.242 8.688.143 12.341-1.425 9.563-5.979 18.3-10.99 26.44-1.353.323-2.673.064-4 .679-4.638 2.152-5.88 8.092-7.53 12.472-5.242-5.128-4.888-12.769-10.672-17.518-6.426-5.275-15.961-5.405-23.192-9.375-8.209-4.507-14.545-13.428-20.545-20.48 2.723 8.329 6.746 13.652 10.29 21.22a35.666 35.666 0 0 1-8.895-1.634c-16.885-5.403-22.713-20.656-30.155-34.933.094-.565.103-.795.026-1.336l-.643.234c-4.412.789-12.226 10.42-14.689 13.946-.914 1.309-2.258 2.919-2.654 4.443l-.874.563c.021.225.014.509.092.719-2.157 1.957-3.809 5.89-5.254 8.456-4.468 7.936-15.876 30.287-21.259 35.47-1.744-4.733-3.9-9.833-8.73-12.192-2.481-1.211-5.711-1.44-8.304-.46-1.045.394-2.151 1.152-3.194 1.426-1.327-8.355-2.665-16.963-1.95-25.436.233-2.758 2.916-9.888 2.524-11.795.738-.709.739-.833.95-1.844 1.516-2.234 3.044-4.395 4.758-6.483a141.25 141.25 0 0 1 2.228-13.243c2.658-11.725 7.695-21.467 18.035-28.022 3.548-1.823 6.919-3.275 10.782-4.3 4.906-.77 9.744-.932 14.698-.57 6.246 3.64 10.049 10.551 11.627 17.467.383 1.678.52 4.494 1.567 5.834.021-.21.046-.419.064-.63.683-8.125-4.484-16.058-9.407-21.98Zm63.98 29.374c.848 5.407 9.945 14.894 14.387 18.07.412.295.834.555 1.269.816l.477-.164c-.072-.08-.142-.163-.216-.24-2.679-2.781-6.083-4.97-8.539-8.008-1.389-1.72-5.946-9.876-7.378-10.474Zm-73.891 7.847c-4.765 9.94-12.117 18.878-22.865 22.583-1.297.446-6.481 1.3-6.989 1.852l.286.588c8.709-.55 17.109-6.384 22.703-12.779 2.342-2.678 6.588-8.275 7.151-11.816l-.286-.428Z" fill="#7F4A43"/><path d="M360.218 78.94c-4.88 4.377-9.6 8.888-13.679 14.034 5.208 3.592 7.99 7.977 9.163 14.208 1.169 6.203.489 12.521-.483 18.697-1.424 9.563-5.978 18.3-10.99 26.44 4.324.279 8.412 1.354 11.396 4.737 2.907 3.296 4.01 8 3.62 12.309-.683 7.544-5.447 14.231-11.137 18.946-3.801 3.15-9.1 6.244-14.216 5.637-1.391-.165-2.796-.556-4.154-.895-3.009 13.581-7.18 26.507-14.66 38.352l.496-.001c6.236-.012 12.437-.024 18.614.989 21.109 3.462 42.273 15.606 57.34 30.663 4.702 4.698 8.675 9.785 12.866 14.914.376-18.095.046-36.265.044-54.367-.001-6.622-.653-16.993.345-23.114.418-2.556 1.661-5.009 3.391-6.93 2.846-3.159 7.128-4.775 11.327-4.9 5.826-.173 11.209 2.63 15.4 6.478-.039-2.824-.338-5.687-.137-8.506.29-4.079 2.17-8.027 5.342-10.655 3.58-2.966 8.509-3.71 13.019-3.18 5.915.694 9.11 3.825 12.62 8.273 1.272-4.705 3.004-8.36 7.381-10.984a15.9 15.9 0 0 1 12.256-1.664c3.965 1.064 7.149 3.85 9.146 7.387 3.18 5.633 2.155 13.579 2.121 19.895 3.189-3.791 6.754-6.197 11.796-6.595 4.62-.365 9.262 1.013 12.714 4.168 3.757 3.435 5.258 7.783 5.38 12.744.253 10.219-.196 20.464.014 30.684 3.991-2.701 8.24-4.316 13.143-3.387 4.008.759 7.731 3.026 10.036 6.417 1.299 1.911 2.092 3.957 2.371 6.242.521 4.259.211 8.756.183 13.052l-.201 22.688c-.039 3.45.485 7.587-.074 10.954.297 1.506.613 3.008.948 4.506 2.068-2.017 4.537-3.692 6.726-5.587 1.81-1.567 3.351-3.368 5.075-5.022 1.981-1.54 7.078-8.458 8.651-10.403a141.302 141.302 0 0 0 30.061-105.302c-4.033-36.353-24.863-72.11-53.373-94.756a153.2 153.2 0 0 0-113.752-31.95c-28.636 3.282-54.714 15.573-76.129 34.784ZM214.658 59.788c7.843-1.069 14.265-1.255 21.417 2.543-4.954-.363-9.792-.2-14.699.57-2.01-1.04-4.384-1.636-6.498-2.504l-.22-.609ZM185.585 114.939c-.46-10.268-2.165-20.425.587-30.56 1.605-5.91 5.575-13.768 11.074-16.954 2.612-.048 11.488-1.13 13.36-.234-10.34 6.556-15.377 16.298-18.035 28.022a141.564 141.564 0 0 0-2.229 13.243c-1.713 2.088-3.241 4.249-4.757 6.483Z" fill="#fff"/><path d="M335.809 90.103c3.578 1.27 7.342 2.368 10.531 4.482-1.762 1.347-2.973 2.836-4.235 4.651a486.718 486.718 0 0 0-6.75-3.412c.164-1.906.315-3.813.454-5.721Z" fill="#fff"/><path d="m320.05 111.108-.477.164c-.434-.26-.856-.52-1.269-.815-4.441-3.176-13.539-12.664-14.386-18.07 1.432.597 5.988 8.754 7.378 10.473 2.455 3.039 5.86 5.228 8.538 8.009.075.077.144.159.216.239Z" fill="#4D261D"/><path d="M346.343 94.59c5.572 4.407 7.731 9.515 8.546 16.472.097.829.172 1.643.191 2.476-.909-1.193-1.427-2.875-2.247-4.187-2.931-4.689-6.123-7.145-10.726-10.109 1.262-1.815 2.473-3.304 4.236-4.651Z" fill="#fff"/><path d="m200.447 125.253-.287-.588c.508-.552 5.693-1.406 6.989-1.852 10.748-3.704 18.1-12.643 22.865-22.583l.286.428c-.563 3.541-4.808 9.139-7.151 11.816-5.593 6.395-13.994 12.229-22.702 12.779ZM248.922 101.646l.644-.234c.076.541.068.77-.026 1.336-5.061 8.419-8.626 15.412-18.742 18.569-.079-.21-.072-.494-.093-.719l.874-.563c8.92-3.056 13.236-10.524 17.343-18.389Z" fill="#4D261D"/><path d="M231.578 120.03c.397-1.524 1.741-3.134 2.655-4.443 2.462-3.526 10.276-13.157 14.688-13.946-4.107 7.865-8.423 15.333-17.343 18.389Z" fill="#E9B49C"/><path d="M230.796 121.322c10.117-3.157 13.682-10.15 18.742-18.569 7.442 14.278 13.27 29.531 30.155 34.934a35.71 35.71 0 0 0 8.895 1.633c-3.544-7.568-7.567-12.89-10.29-21.22 6.001 7.052 12.336 15.973 20.545 20.48 7.231 3.97 16.766 4.1 23.192 9.375 5.784 4.749 5.43 12.39 10.672 17.518 1.65-4.38 2.892-10.32 7.53-12.471 1.327-.615 2.648-.356 4-.679 4.324.279 8.411 1.353 11.395 4.736 2.908 3.297 4.011 8.001 3.621 12.31-.683 7.543-5.447 14.23-11.138 18.946-3.8 3.149-9.099 6.243-14.216 5.636-1.39-.164-2.796-.555-4.154-.894-3.008 13.58-7.18 26.506-14.659 38.352-3.574 4.902-7.08 9.423-11.537 13.579l-1.669 1.52c.431 11.243.151 20.452-7.946 29.164-6.223 6.695-15.015 10.361-24.1 10.629-7.027.207-12.975-1.717-19.105-5.021-21.486-15.085-11.823-33.084-16.056-37.798-2.549-1.105-9.634-9.957-11.712-12.416a111.398 111.398 0 0 1-16.673-37.867c-1.964.424-4.077.708-6.085.566-7.926-.56-14.134-5.358-19.116-11.17-1.892-3.895-3.156-7.46-3.745-11.755-.026-4.866 1.023-8.83 3.327-13.104a114.424 114.424 0 0 1 3.386-3.714c1.043-.274 2.15-1.032 3.194-1.426 2.593-.98 5.823-.751 8.304.46 4.83 2.359 6.986 7.459 8.73 12.192 5.383-5.183 16.791-27.534 21.259-35.47 1.445-2.566 3.097-6.499 5.254-8.456Zm5.148 20.121c-5.529.456-10.373 1.976-14.07 6.413-1.789 2.147-2.888 4.605-3.787 7.225 3.467-2.813 6.86-5.582 11.097-7.162 2.927-.938 5.962-1.623 9.054-1.225 3.08.397 8.281 4.07 10.946 2.31.399-.789.491-1.375.229-2.226-.534-1.731-2.276-2.618-3.807-3.338-2.964-1.396-6.4-2.018-9.662-1.997Zm64.291.922c-3.06.406-8.015 1.07-10.13 3.557-.517.608-.653 1.46-.526 2.22.098.588.342.736.714 1.165 2.737 1.028 7.917-1.933 10.975-2.229 2.617-.252 4.957.253 7.431 1.009l.417.174c2.189.928 5.74 3.993 8.076 3.462.305-.07.485-.217.729-.382.295-.883.24-1.463-.201-2.299-1.726-3.273-6.161-5.228-9.602-6.143-2.455-.653-5.363-.901-7.883-.534Zm-110.928 23.303c.118.076.235.155.356.229 1.441.88 4.241.546 5.129 2.139-.325.699-.556.843-1.127 1.345-1.968 1.727-3.33 3.84-3.455 6.52-.104 2.205.802 4.245 2.285 5.844 2.828 3.046 6.994 4.237 11.036 4.295.522.008.965-.013 1.475-.114.218-.353.333-.566.446-.973-3.989.386-7.893.019-11.15-2.585-1.716-1.372-3.043-3.343-3.265-5.567-.212-2.111.637-4.109 2.017-5.677.982-1.116 2.177-1.964 3.403-2.788-1.685-1.588-3.629-2.875-6.038-2.847a4.235 4.235 0 0 0-1.112.179Zm151.97 1.453c2.312.899 4.174 1.704 5.314 4.087.825 1.723.713 3.697.036 5.447-1.166 3.009-3.805 5.404-6.781 6.562-2.358.918-8.012.7-8.538 1.046l.252.428c4.673.325 8.814.215 12.56-3.055 2.185-1.907 3.823-4.71 3.896-7.66.045-1.802-.521-3.749-1.842-5.03-1.256-1.219-2.875-1.928-4.624-1.843-.091.004-.182.012-.273.018Zm-42.178 5.708a5.711 5.711 0 0 0-4.724 3.306 5.704 5.704 0 0 0 .569 5.738 5.708 5.708 0 1 0 4.155-9.044Zm-59.131.357a5.592 5.592 0 1 0 4.101 10.404 5.592 5.592 0 0 0-4.101-10.404Zm24.368-.34c.314 4.125 1.051 8.102.503 12.253-.642 4.857-7.35 13.314-2.629 17.345 2.449 2.09 7.005 2.106 10.082 1.739 4.047-.484 8.074-1.975 11.298-4.497-.298-.045-.595-.167-.896-.135-.676.07-2.313 1.201-3.006 1.532-4.136 1.98-8.839 2.865-13.397 2.183-1.577-.235-3.289-.709-4.254-2.089-.924-1.322-.944-3.16-.554-4.669.374-1.441 1.138-2.842 1.775-4.183 2.009-4.235 2.848-7.529 2.673-12.258-.083-2.253-.163-4.57-.955-6.704l-.64-.517Zm-31.858 21.362c-3.496.502-6.699 1.673-8.841 4.663-1.661 2.319-2.193 5.226-1.612 8.004a10.469 10.469 0 0 0 4.523 6.599c2.206 1.449 4.726 1.955 7.325 2.059 3.214-.5 5.976-1.345 8.055-4.049a10.145 10.145 0 0 0 1.979-7.61c-.395-2.93-1.977-5.76-4.362-7.526-2.096-1.552-4.488-2.123-7.067-2.14Zm74.741 0c-3.617.643-6.812 1.943-8.984 5.082a10.098 10.098 0 0 0-1.636 7.852c.596 2.829 2.43 5.231 4.909 6.69 2.203 1.296 4.501 1.613 6.991 1.818 3.455-.607 6.418-1.514 8.538-4.556 1.657-2.377 2.151-5.429 1.565-8.246a10.547 10.547 0 0 0-4.967-6.969c-2.041-1.205-4.107-1.511-6.416-1.671Zm-55.956 24.167c1.304 5.504 3.798 10.033 8.775 13.082 4.622 2.83 10.567 3.763 15.823 2.422a20.452 20.452 0 0 0 9.058-5.122c2.963-3.127 4.662-6.082 5.919-10.203-13.157-.281-26.418-.383-39.575-.179Zm-12.482 29.054c2.215 3.412 13.582 9.914 17.677 10.635.395.07.801.061 1.201.066-3.682-1.864-7.567-3.53-11.143-5.58-2.396-1.375-5.346-4.215-7.735-5.121Zm60.06 1.661c-9.999 7.935-21.999 11.799-34.777 10.372-1.126-.126-5.193-1.148-5.998-.666.265.643.069.429.466.734 11.701 2.521 24.258 1.141 34.477-5.373a41.667 41.667 0 0 0 6.01-4.684l-.178-.383Z" fill="#E9B49C"/><path d="M218.084 155.077c.899-2.62 1.998-5.077 3.787-7.224 3.697-4.437 8.541-5.957 14.07-6.413 3.262-.021 6.698.601 9.662 1.996 1.531.721 3.273 1.608 3.807 3.339.262.851.17 1.436-.229 2.225-2.665 1.761-7.866-1.912-10.946-2.309-3.092-.398-6.127.286-9.054 1.225-4.237 1.579-7.63 4.349-11.097 7.161ZM308.704 148.086c-2.475-.756-4.815-1.261-7.431-1.008-3.059.295-8.239 3.257-10.975 2.228-.373-.429-.616-.576-.714-1.164-.128-.76.008-1.612.525-2.22 2.115-2.487 7.071-3.152 10.13-3.557 2.52-.367 5.429-.119 7.884.533 3.441.915 7.876 2.87 9.601 6.143.441.836.496 1.416.202 2.299-.244.165-.424.313-.729.382-2.336.532-5.887-2.534-8.076-3.461l-.417-.175Z" fill="#4D261D"/><path d="M80.703 207.437c-1.43.166-2.717.261-4.103-.226-3.933-1.379-5.777-6.058-7.413-9.542-3.41-7.266-10.064-24.289-7.12-31.851 1.074-2.759 3.129-4.097 5.72-5.227 1.873-.066 3.69.033 5.408.865 1.355.655 2.569 1.784 3.154 3.187 1.682 4.033 1.196 10.168 2.558 14.73.984 3.299 2.186 6.653 3.73 9.733 1.223 2.439 2.855 4.852 3.77 7.42.79 2.219.836 4.759-.25 6.89-1.121 2.196-3.181 3.336-5.454 4.021Z" fill="#fff"/><path d="M205.454 184.954c-.114.406-.228.62-.446.972-.51.102-.953.123-1.475.115-4.042-.059-8.208-1.249-11.036-4.295-1.483-1.599-2.389-3.64-2.285-5.844.125-2.68 1.487-4.794 3.455-6.521.571-.501.802-.646 1.127-1.344-.888-1.594-3.688-1.259-5.129-2.14-.121-.073-.238-.153-.356-.228a4.229 4.229 0 0 1 1.112-.179c2.409-.028 4.353 1.258 6.038 2.847-1.226.824-2.421 1.672-3.403 2.788-1.38 1.567-2.229 3.566-2.017 5.676.222 2.225 1.549 4.196 3.265 5.567 3.257 2.604 7.161 2.972 11.15 2.586ZM331.554 184.693l-.251-.429c.526-.346 6.18-.128 8.537-1.045 2.977-1.159 5.616-3.553 6.781-6.562.678-1.75.789-3.724-.036-5.448-1.14-2.383-3.002-3.188-5.314-4.086.092-.006.182-.014.273-.019 1.749-.084 3.368.625 4.625 1.844 1.32 1.281 1.887 3.228 1.841 5.03-.073 2.95-1.711 5.752-3.896 7.659-3.745 3.271-7.887 3.38-12.56 3.056Z" fill="#1C0C0A"/><path d="M465.752 181.073c1.272-4.705 3.003-8.36 7.381-10.984a15.9 15.9 0 0 1 12.256-1.664c3.965 1.065 7.149 3.85 9.146 7.387 3.18 5.633 2.155 13.579 2.121 19.895.012 1.799.627 7.069-.673 8.26-.158.144-.441.31-.629.426-1.283-9.248 2.907-23.115-3.776-30.554-2.625-2.922-6.338-4.512-10.25-4.579-3.87-.067-7.75 1.401-10.447 4.209-2.924 3.046-3.503 6.415-3.413 10.454-.978-.884-1.277-1.619-1.716-2.85Z" fill="#4D261D"/><path d="M467.469 183.919c-.089-4.04.489-7.409 3.414-10.454 2.697-2.809 6.577-4.276 10.447-4.21 3.912.067 7.625 1.657 10.25 4.579 6.683 7.439 2.493 21.306 3.776 30.554-.294 9.025-.019 18.122-.012 27.155.188 24.599 4.635 48.235 4.437 72.835 4.966.016 5.933.22 10.809.736-3.354 1.109-6.94 1.514-10.367 2.373 5.262 19.731 9.796 39.754 14.413 59.648-6.883-.366-14.222-.686-21.089.009.006-4.657-.223-9.482.282-14.11-1.378-1.075-10.219-.493-12.369-.425.706-3.992.152-8.711.116-12.794l-.163-25.346-.185-84.721-.019-26.861c0-3.892.201-7.838.06-11.722-.034-.944-.24-1.94-.756-2.74-.903 2.066-.632 149.54.085 162.479-.071.44.002 1.053-.417 1.293-1.884 1.077-6.171.195-8.403.341l-.592-.266c-.673-1.574 6.737-39.419 7.342-44.756.364-3.214.258-6.217-1.961-8.813-1.635-1.911-3.728-2.582-6.162-2.753l-2.025-.28c-.182-.189-.453-.32-.543-.565-.507-1.363-.099-14.231-.103-16.654l-.092-62.922.07-19.129c.019-4.114.22-8.389-.243-12.481Z" fill="url(#b)"/><path d="M300.229 184.183a5.706 5.706 0 1 1-1.126-11.357 5.707 5.707 0 0 1 1.126 11.357Z" fill="#1C0C0A"/><path d="M434.907 195.137c-.039-2.823-.338-5.687-.137-8.506.29-4.079 2.17-8.026 5.342-10.655 3.58-2.966 8.509-3.709 13.019-3.18 5.914.695 9.11 3.826 12.62 8.273.438 1.231.738 1.966 1.716 2.85.462 4.093.261 8.368.243 12.482l-.071 19.129.092 62.922c.004 2.423-.404 15.291.103 16.654.09.245.361.376.543.565l2.025.28c-11.736.226-23.475.269-35.212.13l-.283-100.944Zm14.478 3.146c-.811 4.092-.258 9.137-.256 13.356l.01 28.348.012 26.696c-.002 4.318-.407 9.101.181 13.369l.473.537c.888-3.625.281-10.482.279-14.457l-.015-32.445.018-22.535c.005-4.047.307-8.362-.136-12.372l-.566-.497Z" fill="#F37E60"/><path d="M243.724 183.716a5.591 5.591 0 1 1-3.395-10.655 5.591 5.591 0 0 1 3.395 10.655ZM283.576 199.678c-3.224 2.522-7.251 4.013-11.298 4.497-3.077.367-7.633.35-10.082-1.739-4.722-4.031 1.987-12.488 2.629-17.345.548-4.151-.189-8.129-.503-12.253l.64.517c.791 2.134.871 4.451.955 6.703.174 4.73-.664 8.024-2.674 12.259-.636 1.341-1.401 2.742-1.774 4.183-.39 1.508-.371 3.347.554 4.669.964 1.38 2.676 1.854 4.253 2.089 4.559.681 9.261-.203 13.398-2.183.692-.331 2.33-1.463 3.006-1.533.3-.032.597.09.896.136Z" fill="#1C0C0A"/><path d="M404.393 277.964c.376-18.095.045-36.265.043-54.367 0-6.621-.652-16.993.346-23.114.417-2.556 1.66-5.009 3.391-6.93 2.845-3.159 7.128-4.775 11.326-4.9 5.827-.173 11.21 2.63 15.4 6.478l.284 100.944c-6.517-.048-13.034-.046-19.551.006-1.741-2.844-3.253-5.834-4.999-8.683-1.969-3.211-4.203-6.264-6.24-9.434Z" fill="#E99E87"/><path d="M480.599 350.905c-.718-12.938-.988-160.412-.085-162.478.516.799.721 1.796.756 2.74.141 3.883-.061 7.83-.061 11.721l.02 26.862.185 84.72.163 25.346c.035 4.083.59 8.803-.117 12.795-.601-.549-.621-.955-.861-1.706Z" fill="#4D261D"/><path d="M496.65 195.695c3.189-3.791 6.754-6.196 11.796-6.595 4.62-.364 9.262 1.014 12.714 4.169 3.757 3.435 5.258 7.783 5.38 12.744.253 10.219-.196 20.463.014 30.683 3.991-2.7 8.24-4.315 13.143-3.386 4.008.759 7.731 3.026 10.036 6.417 1.299 1.91 2.092 3.956 2.371 6.242.521 4.258.211 8.756.183 13.051l-.201 22.689c-.039 3.45.485 7.587-.074 10.954-2.525-4.395-5.278 18.851-5.278 18.851v-37.787l-5.878-3.751s.547 4.054-2.879 6.131c-1.643.996-1.553 7.144-1.553 7.144l3.273 22.086-3.273 12.389s-5.419 46.953-6.212 48.452c-1.017-1.755-8.268 8.845-9.628 7.454-9.897 7.441-8.662-3.417-8.662-3.417-2.068.904-7.178-3.106-7.178-3.106l-4.969-.931s-4.25-110.043-4.439-134.642c-.006-9.033-.282-18.131.012-27.155.188-.116.471-.281.629-.425 1.3-1.192.685-6.462.673-8.261Zm14.536 12.527c-.707 3.638-.414 79.924.061 81.629l.441.403c.659-4.066.234-8.839.234-12.975l-.031-26.03-.006-27.394c.009-4.912.359-10.111-.101-14.987-.186-.213-.371-.477-.598-.646Z" fill="#D4D4D4"/><path d="M233.874 215.532c-2.598-.105-5.119-.61-7.325-2.06a10.47 10.47 0 0 1-4.523-6.598c-.581-2.779-.049-5.686 1.612-8.005 2.142-2.989 5.345-4.161 8.842-4.663 2.578.017 4.97.588 7.067 2.141 2.384 1.766 3.967 4.596 4.362 7.526a10.151 10.151 0 0 1-1.979 7.609c-2.079 2.705-4.842 3.549-8.056 4.05ZM308.498 215.648c-2.49-.205-4.788-.521-6.992-1.818-2.478-1.458-4.312-3.86-4.908-6.69a10.098 10.098 0 0 1 1.636-7.852c2.172-3.139 5.367-4.438 8.984-5.082 2.308.16 4.375.466 6.416 1.672a10.543 10.543 0 0 1 4.967 6.968c.586 2.817.092 5.869-1.565 8.246-2.12 3.042-5.083 3.949-8.538 4.556Z" fill="#E99E87"/><path d="m449.813 280.584-.473-.537c-.588-4.269-.183-9.051-.181-13.37l-.012-26.696-.01-28.348c-.002-4.218-.555-9.264.256-13.356l.566.498c.443 4.01.141 8.325.136 12.372l-.018 22.534.015 32.446c.002 3.974.609 10.831-.279 14.457ZM511.688 290.258l-.441-.403c-.475-1.705-.768-77.991-.061-81.628.227.169.412.432.598.646.46 4.875.11 10.074.101 14.987l.007 27.393.031 26.03c-.001 4.137.424 8.909-.235 12.975Z" fill="#1C0C0A"/><path d="M284.916 228.746a20.455 20.455 0 0 1-9.058 5.121c-5.256 1.341-11.201.408-15.823-2.422-4.977-3.049-7.471-7.578-8.775-13.082 13.157-.204 26.418-.102 39.575.179-1.257 4.121-2.956 7.077-5.919 10.204Z" fill="#fff"/><path d="M36.123 270.342c-4.368-9.123-9.771-23.761-6.408-33.813 1.28-3.825 3.806-7.004 7.47-8.769 7.198-3.468 16.901-1.108 23.986 1.508 5.208 1.924 10.188 4.364 15.069 6.999 11.629 6.28 22.877 13.645 34.136 20.585 4.941 3.045 11.208 6.161 15.686 9.701.917.724 1.689 1.623 2.139 2.714.183.442.195.859.193 1.328-1.969 4.013-20.018 17.296-24.673 21.353-5.89 3.868-11.147 9.093-16.744 13.421l-13.979 11.663c-2.102 1.738-4.346 3.925-6.748 5.229-.767.417-1.258.573-2.11.281-4.7-1.605-20.836-36.379-23.983-42.753-.461-2.986-2.715-6.684-4.034-9.447Z" fill="#E99E87"/><path d="M149.391 259.441c19.663-18.109 47.059-27.721 73.569-28.376 2.077 2.46 9.163 11.311 11.711 12.416-.682 1.9-.471 4.277-.482 6.278-.037 6.733.21 12.793 3.131 18.986 2.543 5.392 6.742 10.26 11.826 13.403 6.761 4.748 15.129 6.397 23.269 5.746 9.057-.723 18.064-5.147 23.903-12.146 7.584-9.088 8.213-19.426 7.23-30.76 4.456-4.156 7.962-8.677 11.536-13.58 6.403-.011 12.769-.052 19.11.988 21.109 3.462 42.273 15.606 57.34 30.663 4.702 4.698 8.675 9.785 12.866 14.914 2.038 3.17 4.271 6.223 6.24 9.434 1.746 2.849 3.259 5.839 5 8.684l-65.761.165c-4.454.019-21.55-.356-24.288.539-.232.076-.377.31-.566.465l-.063.251c-8.445.678-17.141.298-25.613.305l-42.661.032c-6.141-.004-16.191-.694-21.965.105-1.784.247-3.469 1.233-4.673 2.562-.982 1.083-1.659 2.52-1.912 3.957-.816 4.634-.707 9.777-.951 14.482-.53 9.179-.99 18.362-1.383 27.548l-1.655 30.659c-.3 5.429-.796 10.94-.807 16.376a2989.258 2989.258 0 0 0-42.244.079c1.295-6.592 3.335-13.058 4.976-19.572 2.64-10.482 5.054-21.042 7.981-31.447.88-3.13 5.924-16.942 5.876-18.6-.371-.642-.341-.683-1.034-.921-1.857 1.491-3.609 10.114-4.759 12.898l-.195.463c-.722-15.366-4.928-30.111-14.97-42.086-10.123-12.071-25.653-21.002-41.479-22.357 1.624-1.572 3.052-3.479 4.574-5.163 2.332-2.581 4.803-4.994 7.323-7.39Z" fill="#6683C2"/><path d="M249.149 282.144c-5.084-3.143-9.283-8.011-11.826-13.403-2.921-6.193-3.168-12.253-3.131-18.986.012-2.001-.2-4.378.483-6.277 4.233 4.714-5.43 22.713 16.056 37.798l-1.294.059c-.362.56-.306.279-.288.809Z" fill="#4B68A7"/><path d="m301.871 246.506 1.67-1.52c.983 11.334.355 21.672-7.23 30.761-5.839 6.998-14.845 11.422-23.903 12.146-8.14.65-16.508-.999-23.269-5.747-.018-.529-.074-.249.288-.809l1.294-.059c6.13 3.304 12.077 5.228 19.105 5.021 9.085-.268 17.876-3.934 24.099-10.629 8.097-8.712 8.377-17.921 7.946-29.164Z" fill="#4B68A7"/><path d="M257.655 258.13c-.4-.004-.806.004-1.202-.066-4.094-.72-15.461-7.222-17.676-10.634 2.389.905 5.339 3.745 7.735 5.12 3.576 2.05 7.461 3.716 11.143 5.58Z" fill="#E99E87"/><path d="M258.526 259.527c-.396-.305-.2-.091-.465-.733.805-.482 4.872.54 5.998.665 12.778 1.427 24.778-2.436 34.777-10.371l.178.383a41.684 41.684 0 0 1-6.011 4.683c-10.218 6.514-22.776 7.895-34.477 5.373Z" fill="#E99F88"/><path d="M36.134 270.348c1.319 2.763 3.572 6.461 4.034 9.446-2.16 4.411-3.826 9.164-5.776 13.684l-15.673 36.604c4.823 10.474 9.08 21.225 13.707 31.79 6.357 14.518 13.08 29.047 18.81 43.815-2.214.829-4.886.407-7.238 1.008-7.225-16.019-13.946-32.34-20.802-48.524-3.948-9.317-8.238-18.525-11.948-27.938.759-4.277 4.293-10.88 6.047-15.106l18.839-44.779Z" fill="#7F4A43"/><path d="m136.471 273.064 1.017-1.068c15.826 1.355 31.356 10.286 41.479 22.357 10.042 11.975 14.248 26.72 14.97 42.086l.195-.463c1.15-2.784 2.902-11.407 4.759-12.898.693.238.663.279 1.034.921.048 1.658-4.996 15.47-5.876 18.6-2.927 10.405-5.341 20.966-7.981 31.447-1.641 6.515-3.681 12.98-4.976 19.572l-1.925.264.078-1.809c1.343-4.315 2.322-8.748 3.667-13.073.011-.026.023-.051.031-.077 1.949-5.857 2.974-12.092 4.496-18.079 1.471-5.789 3.551-11.671 4.501-17.56 1.792-11.119-1.897-26.63-6.908-36.602-7.017-13.967-20.247-25.034-34.975-30.089-4.378-1.503-9-1.977-13.324-3.437a8.13 8.13 0 0 1-.262-.092Z" fill="#4B68A7"/><path d="M95.541 350.383c10.161-27.255 23.121-54.224 40.934-77.324l.262.092c4.324 1.459 8.946 1.933 13.324 3.436 14.728 5.056 27.958 16.122 34.975 30.09 5.01 9.971 8.7 25.482 6.908 36.601-.95 5.889-3.03 11.771-4.502 17.561-1.521 5.986-2.546 12.221-4.495 18.078-.009.026-.02.051-.031.077-2.478-.662-5.243-.853-7.786-1.256a254.54 254.54 0 0 1-13.7-2.554c-16.865-3.728-33.864-8.572-49.513-15.987-5.608-2.658-10.948-5.816-16.376-8.814Z" fill="#6683C2"/><path d="M86.982 305.375c5.597-4.328 10.855-9.552 16.744-13.421 1.642 2.239 2.461 5.178 1.984 7.942-.499 2.896-2.388 5.425-4.836 6.997a10.6 10.6 0 0 1-8.492 1.381c-2.102-.533-3.735-1.553-5.4-2.899Z" fill="#E9B49C"/><path d="m324.964 297.504.063-.251c.188-.155.334-.389.566-.465 2.738-.895 19.834-.52 24.288-.539l65.761-.165a1261.41 1261.41 0 0 1 19.55-.007c11.737.139 23.476.095 35.212-.131 2.434.171 4.527.843 6.162 2.754 2.219 2.595 2.325 5.599 1.961 8.813-.605 5.336-8.015 43.181-7.342 44.755l.592.266-.364.564.129.324c-.574.211-.727.113-.995.701-1.228 2.698-3.835 20.547-4.66 25.049a4190.275 4190.275 0 0 1-10.303 53.175c-.725 3.695-.834 6.881-3.089 10.005-.452.626-1.515 1.778-1.228 2.6.828 2.371 2.535 3.417 1.605 6.268-.613 1.88-2.007 3.506-3.49 4.771l52.376-.018 52.432-.058c7.545.002 16.403-.595 16.403-.595H578.047s2.795.435 3.727.561c4.872-.056 10.579-.97 14.388 2.704 3.863 3.725 2.643 14.99 2.623 20.254-.583-.109-1.156-.255-1.732-.394-1.012-1.774-.297-6.307-.221-8.378.121-3.303.411-7.814-2.117-10.349-1.61-1.614-3.898-1.855-6.061-1.928-9.38-.314-18.864-.028-28.251-.02l-54.472.021-167.653.014-202.203-.09-78.212.076c-16.812 0-33.668-.27-50.475.075-.644.375-1.322.753-1.877 1.253-4.2 3.788-2.05 14.133-2.486 19.487l-.032.35-1.508-.423c-.286-.78-.283-1.493-.308-2.312-.16-5.222-.977-14.358 3.009-18.311 3.233-3.207 16.037-1.978 20.705-2.006 7.035-.245 14.137-.061 21.18-.06l39.387.026c7.333.002 14.789.281 22.099-.169l2.105-.076c3.071.356 6.448.116 9.55.114l18.502-.024 57.123.125c-.41-.31-.815-.617-1.201-.956-1.867-1.638-3.434-3.563-3.544-6.142-.069-1.612.642-3.046 1.783-4.159.787-.767 1.668-1.203 2.745-1.406 3.089-.581 6.57-.279 9.711-.266 5.36.049 10.721.043 16.081-.017 3.337-.021 6.702-.136 10.035.01.705.137 1.376.245 2.091.318.565.057.758.158 1.2.49-1.166.784-3.269.745-4.681 1.24-1.823 1.007-4.423 2.428-5.12 4.522-.324.971-.246 1.864.279 2.735.836 1.391 2.273 2.297 3.579 3.199 8.357 1.117 18.062.366 26.572.373l52.26.022 89.5.079c15.73.023 31.88.517 47.564-.047 1.725-.062 3.132-.413 4.55-1.437 1.394-1.008 2.555-2.492 2.84-4.222.213-1.291-.056-2.525-.831-3.582-.582-.793-1.342-1.304-2.268-1.632.123-.687.384-1.219.677-1.846.897-.391 1.79-.765 2.498-1.46.831-.815 1.086-1.772 1.356-2.869 1.151-4.674 1.886-9.539 2.799-14.269a2815.764 2815.764 0 0 0 5.365-28.071c3.708-19.696 7.765-39.31 11.119-59.073l3.161-18.572c.742-4.112 1.956-8.577 2.031-12.752.049-2.661-.222-4.713-2.195-6.648-1.355-1.328-2.565-1.542-4.395-1.707-5.448-.492-11.202-.145-16.68-.14l-30.716.012-98.038-.063ZM195.695 444.879c-1.259.216-2.585.496-3.408 1.582-.731.967-.654 2.476-.33 3.586.597 2.036 2.243 3.436 4.101 4.329 4.895 2.353 21.973 1.349 28.414 1.324l.201-.252c-1.269-1.637-2.945-3.378-2.583-5.601.332-2.035 2.141-3.696 3.535-5.092-9.961.025-19.976-.174-29.93.124Z" fill="url(#c)"/><path d="M223.34 393.534c.01-5.436.506-10.947.807-16.376l1.655-30.659c.392-9.186.853-18.369 1.382-27.548.245-4.705.136-9.848.951-14.482.254-1.437.931-2.874 1.913-3.957 1.204-1.329 2.889-2.315 4.672-2.561 5.775-.8 15.824-.11 21.966-.105l42.661-.033c8.472-.007 17.167.373 25.613-.305l98.038.063 30.716-.012c5.478-.005 11.232-.352 16.68.14 1.83.165 3.04.379 4.395 1.708 1.973 1.934 2.243 3.986 2.195 6.647-.075 4.175-1.289 8.64-2.031 12.752l-3.161 18.572c-3.354 19.763-7.411 39.377-11.119 59.073a2815.764 2815.764 0 0 1-5.365 28.071c-.913 4.73-1.648 9.595-2.799 14.269-.27 1.097-.525 2.054-1.356 2.869-.709.696-1.601 1.069-2.498 1.46-2.732-.342-5.709-.155-8.467-.164l-15.567-.038-52.092-.071-93.726-.049c-16.068.002-32.311-.502-48.361.11-3.332-.146-6.698-.031-10.034-.01-.149-6.703.602-13.672 1.017-20.364.599-9.659 1.049-19.361 1.915-29Zm120.304-37.726a12.165 12.165 0 1 0 3.147 24.122c6.583-.954 11.179-7.017 10.319-13.612-.861-6.596-6.859-11.277-13.466-10.51Z" fill="#ECECEC"/><path d="M109.664 455.626c-1.927-1.293-4.991-1.971-7.201-2.874-7.592-3.105-14.412-9.044-18.672-16.043-10.544-17.328-6.424-35.314-.302-53.272a1121.053 1121.053 0 0 1 7.107-19.939c1.571-4.21 3.83-8.416 4.876-12.783.027-.111.05-.223.075-.334 5.428 2.998 10.768 6.156 16.376 8.814 15.649 7.415 32.648 12.259 49.513 15.987a254.54 254.54 0 0 0 13.7 2.554c2.543.403 5.308.594 7.786 1.255-1.345 4.326-2.324 8.759-3.667 13.074-3.968.328-36.367 3.005-38.505 4.114-.206.108-.31.346-.465.519.06.458-.031.703.371 1.007.712.539 1.589.553 2.449.528 3.686-.109 7.459-.901 11.144-1.259 7.37-.715 15.748-.836 22.884-2.434.715-.16 1.387-.332 2.044-.666l1.925-.264c14.081-.126 28.163-.152 42.244-.079-.866 9.639-1.316 19.341-1.915 29-.414 6.692-1.166 13.661-1.017 20.364-5.36.06-10.721.066-16.081.017-3.141-.013-6.622-.315-9.711.266-1.077.203-1.958.639-2.745 1.406-1.141 1.113-1.852 2.547-1.783 4.159.11 2.579 1.677 4.504 3.544 6.142.386.339.791.646 1.201.956l-57.123-.125-18.502.024c-3.102.003-6.479.242-9.55-.114Z" fill="#E9B49C"/><path d="M480.596 350.897c.241.751.26 1.157.862 1.706 2.15-.069 10.991-.65 12.369.424-2.013 1.133-18.903.424-22.286.392l-.129-.324.364-.564c2.232-.146 6.519.736 8.403-.34.42-.24.346-.854.417-1.294Z" fill="#1C0C0A"/><path d="M471.539 353.424c3.383.032 20.273.741 22.286-.392-.505 4.629-.276 9.454-.282 14.111-2.577 2.09-4.295 4.384-4.572 7.798-.187 2.298.407 4.983 1.94 6.758.233.27.483.523.736.773 1.338 13.484 3.407 26.985 5.308 40.399 1.562 11.021 2.921 22.136 4.799 33.103l-52.375.018c1.483-1.264 2.877-2.89 3.49-4.77.93-2.851-.777-3.897-1.605-6.268-.287-.822.776-1.974 1.228-2.6 2.254-3.125 2.364-6.31 3.089-10.005a4207.976 4207.976 0 0 0 10.303-53.175c.825-4.503 3.431-22.351 4.66-25.049.268-.588.421-.49.995-.701ZM346.792 379.928a12.165 12.165 0 1 1-3.148-24.122c6.607-.767 12.606 3.914 13.466 10.51.86 6.595-3.736 12.658-10.318 13.612Z" fill="#fff"/><path d="M179.168 393.876c-.657.333-1.329.506-2.045.666-7.136 1.597-15.513 1.719-22.883 2.434-3.685.358-7.458 1.149-11.144 1.259-.86.025-1.737.011-2.449-.528-.402-.305-.311-.549-.372-1.007.156-.173.26-.411.466-.519 2.138-1.109 34.536-3.787 38.505-4.115l-.078 1.81ZM51.231 405.68c.06.069.111.147.181.206.846.708 5.402 1.319 6.817 1.781 9.802 3.201 14.159 15.089 15.856 24.221 1.47 7.908 1.414 15.794 1.426 23.793 10.63-.026 21.432-.457 32.044.02-7.31.45-14.766.171-22.098.169l-39.388-.026c-7.043-.001-14.145-.185-21.18.06-.037-12.067-.38-24.922 4.79-36.126 3.149-6.82 7.295-10.498 14.315-13.091 2.352-.6 5.024-.178 7.237-1.007Z" fill="#E99E87"/><path d="M230.436 442.912c16.05-.613 32.293-.108 48.361-.111l93.726.05 52.092.071 15.567.037c2.758.009 5.735-.178 8.467.164-.293.627-.554 1.16-.677 1.847-2.921.261-6.006.066-8.945.056l-17.037-.058-52.65-.077-94.436-.045c-15.261.008-30.608.47-45.857.114 1.412-.495 3.514-.457 4.681-1.241-.442-.331-.635-.432-1.2-.49a22.704 22.704 0 0 1-2.092-.317Z" fill="#5D4130"/><path d="M224.472 455.701c-6.44.025-23.519 1.029-28.414-1.324-1.858-.893-3.503-2.293-4.1-4.329-.325-1.111-.402-2.619.33-3.586.822-1.086 2.148-1.366 3.407-1.582 9.954-.298 19.969-.099 29.93-.124-1.393 1.396-3.203 3.057-3.535 5.092-.362 2.223 1.315 3.964 2.584 5.601l-.202.252Z" fill="#ECECEC"/><path d="M447.983 444.966c.925.328 1.685.839 2.267 1.632.775 1.057 1.044 2.291.831 3.582-.285 1.73-1.446 3.214-2.84 4.222-1.417 1.024-2.824 1.375-4.55 1.437-15.683.564-31.834.071-47.563.047l-89.5-.079-52.261-.022c-8.509-.007-18.215.745-26.571-.373-1.307-.902-2.743-1.808-3.58-3.198-.525-.872-.603-1.765-.279-2.736.697-2.094 3.297-3.515 5.12-4.522 15.25.356 30.596-.105 45.857-.113l94.437.044 52.649.078 17.037.058c2.94.01 6.024.205 8.946-.057Z" fill="#ECECEC"/><path d="m2.997 478.955.032-.35c.436-5.354-1.714-15.699 2.486-19.486.555-.501 1.233-.879 1.877-1.253 16.806-.346 33.663-.075 50.474-.076l78.213-.076 202.203.09 167.653-.014 54.471-.021c9.388-.008 18.871-.293 28.251.02 2.164.073 4.451.314 6.062 1.928 2.527 2.535 2.238 7.046 2.117 10.349-.076 2.071-.791 6.604.22 8.379.576.138 1.149.284 1.732.393l-430.711.048-118.94-.088-31.981-.028c-4.473.002-9.775-.551-14.16.185Z" fill="#D4987C"/><path d="M413.887 8.385A4.252 4.252 0 1 1 411.892.12a4.252 4.252 0 0 1 1.995 8.265ZM373.122 38.767c-5.96 1.302-11.854-2.45-13.196-8.403-1.341-5.951 2.373-11.87 8.315-13.252 5.999-1.394 11.987 2.362 13.341 8.371 1.355 6.009-2.442 11.97-8.46 13.284ZM260.218 218.352c-59.022 12.894-117.387-24.273-130.674-83.216C116.257 76.199 153.036 17.583 211.88 3.902 271.291-9.908 330.584 27.296 344 86.798c13.411 59.503-24.187 118.544-83.782 131.554Z" fill="#fff"/><path d="M247.642 51.726c-3.213 3.076-6.029 6.826-7.72 10.963 4.923 5.922 10.09 13.855 9.406 21.98-.017.211-.043.42-.064.63-1.046-1.34-1.184-4.156-1.566-5.834-1.578-6.916-5.381-13.827-11.627-17.466-7.151-3.798-13.574-3.612-21.417-2.543-6.505 1.185-12.24 3.46-17.424 7.646-5.498 3.186-9.468 11.043-11.073 16.953-2.752 10.135-1.047 20.293-.587 30.561-.211 1.011-.213 1.135-.95 1.844-.741-6.635-1.415-13.44-1.357-20.123.1-11.323 3.328-21.348 11.528-29.37 8.321-6.522 15.334-8.152 25.53-9.779 1.684-.005 3.369.005 5.052-.024 4.845.907 9.08 2.172 13.189 4.976l3.141-5.14c7.539-10.506 16.068-17.878 29.174-20.032 11.279-1.853 23.681.71 32.967 7.481 7.572 5.522 12.588 13.829 15.033 22.805 1.337 4.91 1.904 10.351 5.474 14.268 3.089 3.39 7.538 5.1 11.673 6.811 3.581 1.29 7.134 2.54 10.513 4.313 5.208 3.593 7.99 7.977 9.164 14.208 1.168 6.203.488 12.521-.484 18.697-1.384-3.653 1.366-8.634-.143-12.341a25.966 25.966 0 0 0-.191-2.475c-.814-6.958-2.974-12.066-8.546-16.472-3.189-2.114-6.953-3.213-10.531-4.482-7.051-2.625-13.237-5.762-15.982-13.252-.924-2.523-1.366-5.292-2.052-7.892-2.161-8.179-6.021-15.505-12.455-21.113-8.435-7.353-19.954-10.485-31.008-9.616-10.595.833-19.802 5.793-26.667 13.818Z" fill="#4D261D"/><path d="M239.926 62.68c1.692-4.138 4.507-7.888 7.721-10.964.111-.008.226-.001.335-.024 1.285-.27 5.85-4.036 7.614-5.028 12.085-6.793 27.456-7.227 39.723-.58 11.216 6.077 16.561 16.036 20.364 27.8 1.812 5.605 3.394 11.327 7.947 15.403 3.329 2.98 7.67 4.502 11.726 6.206a487.83 487.83 0 0 1 6.75 3.412c4.602 2.964 7.795 5.419 10.726 10.109.82 1.312 1.337 2.993 2.247 4.186 1.508 3.708-1.242 8.688.143 12.341-1.425 9.563-5.979 18.3-10.99 26.441-1.353.323-2.673.064-4 .679-4.638 2.151-5.88 8.091-7.53 12.471-5.242-5.128-4.888-12.769-10.672-17.518-6.426-5.275-15.961-5.405-23.192-9.375-8.209-4.507-14.545-13.428-20.545-20.48 2.723 8.33 6.746 13.652 10.29 21.22a35.666 35.666 0 0 1-8.895-1.634c-16.885-5.402-22.713-20.655-30.155-34.933.094-.565.103-.795.026-1.336l-.643.234c-4.412.789-12.226 10.42-14.689 13.946-.914 1.309-2.258 2.919-2.654 4.443l-.874.563c.021.225.014.509.092.719-2.157 1.957-3.809 5.89-5.254 8.456-4.468 7.936-15.876 30.287-21.259 35.47-1.744-4.733-3.9-9.833-8.73-12.192-2.481-1.211-5.711-1.44-8.304-.46-1.045.394-2.151 1.152-3.194 1.426-1.327-8.355-2.665-16.963-1.95-25.436.233-2.758 2.916-9.888 2.524-11.795.738-.709.739-.833.95-1.844 1.516-2.234 3.044-4.395 4.758-6.483a141.24 141.24 0 0 1 2.228-13.243c2.658-11.724 7.695-21.466 18.035-28.022 3.548-1.823 6.919-3.275 10.782-4.3 4.906-.769 9.744-.932 14.698-.569 6.246 3.639 10.049 10.55 11.627 17.466.383 1.678.52 4.494 1.567 5.834.021-.21.046-.418.064-.629.683-8.126-4.484-16.059-9.407-21.98Zm63.98 29.373c.848 5.407 9.945 14.894 14.387 18.07.412.295.834.555 1.269.816l.477-.164c-.072-.08-.142-.163-.216-.24-2.679-2.781-6.083-4.97-8.539-8.008-1.389-1.72-5.946-9.876-7.378-10.474ZM230.015 99.9c-4.765 9.94-12.117 18.879-22.865 22.583-1.297.446-6.481 1.3-6.989 1.852l.286.588c8.709-.55 17.109-6.384 22.703-12.779 2.342-2.677 6.588-8.275 7.151-11.816l-.286-.428Z" fill="#7F4A43"/><path d="M360.218 78.602c-4.88 4.377-9.6 8.888-13.679 14.034 5.208 3.592 7.99 7.977 9.163 14.208 1.169 6.203.489 12.521-.483 18.697-1.424 9.563-5.978 18.3-10.99 26.44 4.324.279 8.412 1.354 11.396 4.737 2.907 3.296 4.01 8 3.62 12.31-.683 7.543-5.447 14.23-11.137 18.945-3.801 3.15-9.1 6.244-14.216 5.637-1.391-.165-2.796-.555-4.154-.895-3.009 13.581-7.18 26.507-14.66 38.352l.496-.001c6.236-.012 12.437-.024 18.614.989 21.109 3.462 42.273 15.606 57.34 30.663 4.702 4.698 8.675 9.785 12.866 14.914.376-18.094.046-36.265.044-54.367-.001-6.621-.653-16.993.345-23.114.418-2.556 1.66-5.009 3.391-6.93 2.846-3.159 7.128-4.775 11.327-4.9 5.826-.173 11.209 2.63 15.4 6.478-.039-2.823-.338-5.687-.137-8.506.29-4.079 2.17-8.027 5.342-10.655 3.58-2.966 8.509-3.71 13.019-3.18 5.915.694 9.11 3.825 12.62 8.273 1.272-4.705 3.004-8.36 7.381-10.984a15.9 15.9 0 0 1 12.256-1.664c3.965 1.064 7.149 3.85 9.146 7.387 3.18 5.633 2.155 13.579 2.121 19.895 3.189-3.791 6.754-6.197 11.796-6.595 4.62-.365 9.262 1.013 12.714 4.168 3.757 3.435 5.258 7.783 5.38 12.744.253 10.219-.196 20.464.013 30.684 3.992-2.701 8.241-4.315 13.144-3.387 4.008.759 7.731 3.027 10.036 6.418 1.299 1.91 2.092 3.956 2.371 6.241.521 4.259.211 8.756.183 13.052l-.201 22.688c-.039 3.45.485 7.587-.074 10.954.297 1.506.613 3.008.948 4.506 2.067-2.017 4.537-3.692 6.726-5.587 1.81-1.567 3.351-3.368 5.075-5.022 1.981-1.54 7.078-8.458 8.651-10.402a141.303 141.303 0 0 0 30.061-105.302c-4.033-36.354-24.863-72.11-53.373-94.757a153.2 153.2 0 0 0-113.752-31.95c-28.636 3.282-54.714 15.574-76.129 34.784ZM214.658 59.451c7.843-1.069 14.265-1.255 21.417 2.543-4.954-.363-9.792-.2-14.699.57-2.01-1.04-4.384-1.636-6.498-2.504l-.22-.609Z" fill="#fff"/><path d="M335.809 89.774c3.578 1.27 7.342 2.369 10.531 4.483-1.762 1.347-2.973 2.836-4.235 4.651a487.83 487.83 0 0 0-6.75-3.412c.164-1.906.315-3.813.454-5.722Z" fill="#fff"/><path d="m320.05 110.77-.477.164c-.434-.26-.856-.52-1.269-.815-4.441-3.176-13.539-12.663-14.386-18.07 1.432.597 5.988 8.754 7.378 10.473 2.455 3.039 5.86 5.228 8.538 8.009.075.077.144.159.216.239Z" fill="#4D261D"/><path d="M346.343 94.253c5.572 4.406 7.731 9.514 8.546 16.472.097.828.172 1.642.191 2.475-.909-1.193-1.427-2.875-2.247-4.187-2.931-4.689-6.123-7.144-10.726-10.109 1.262-1.815 2.473-3.304 4.236-4.651Z" fill="#fff"/><path d="m200.447 124.926-.287-.588c.508-.552 5.693-1.406 6.989-1.853 10.748-3.704 18.1-12.642 22.865-22.582l.286.428c-.563 3.541-4.808 9.138-7.151 11.816-5.593 6.395-13.994 12.229-22.702 12.779ZM248.922 101.319l.644-.234c.076.54.068.77-.026 1.336-5.061 8.419-8.626 15.412-18.742 18.569-.079-.21-.072-.495-.093-.719l.874-.563c8.92-3.056 13.236-10.524 17.343-18.389Z" fill="#4D261D"/><path d="M231.578 119.703c.397-1.525 1.741-3.134 2.655-4.444 2.462-3.525 10.276-13.156 14.688-13.946-4.107 7.866-8.423 15.334-17.343 18.39Z" fill="#E9B49C"/><path d="M230.796 120.984c10.117-3.156 13.682-10.15 18.742-18.569 7.442 14.278 13.27 29.531 30.155 34.934a35.71 35.71 0 0 0 8.895 1.633c-3.544-7.567-7.567-12.89-10.29-21.22 6.001 7.053 12.336 15.973 20.545 20.48 7.231 3.97 16.766 4.1 23.192 9.375 5.784 4.749 5.43 12.39 10.672 17.518 1.65-4.38 2.892-10.32 7.53-12.471 1.327-.615 2.648-.356 4-.679 4.324.279 8.411 1.353 11.395 4.736 2.908 3.297 4.011 8.001 3.621 12.31-.683 7.544-5.447 14.23-11.138 18.946-3.8 3.149-9.099 6.243-14.216 5.636-1.39-.164-2.796-.555-4.154-.894-3.008 13.581-7.18 26.507-14.659 38.352-3.574 4.902-7.08 9.423-11.537 13.579l-1.669 1.52c.431 11.243.151 20.452-7.946 29.164-6.223 6.695-15.015 10.361-24.1 10.629-7.027.207-12.975-1.717-19.105-5.021-21.486-15.085-11.823-33.084-16.056-37.798-2.549-1.105-9.634-9.957-11.712-12.416a111.398 111.398 0 0 1-16.673-37.867c-1.964.424-4.077.708-6.085.566-7.926-.56-14.134-5.358-19.116-11.17-1.892-3.895-3.156-7.46-3.745-11.754-.026-4.867 1.023-8.831 3.327-13.105a114.424 114.424 0 0 1 3.386-3.714c1.043-.274 2.15-1.032 3.194-1.426 2.593-.98 5.823-.751 8.304.46 4.83 2.359 6.986 7.459 8.73 12.192 5.383-5.183 16.791-27.533 21.259-35.47 1.445-2.566 3.097-6.499 5.254-8.456Zm5.148 20.121c-5.529.456-10.373 1.976-14.07 6.413-1.789 2.147-2.888 4.605-3.787 7.225 3.467-2.813 6.86-5.582 11.097-7.162 2.927-.938 5.962-1.623 9.054-1.225 3.08.397 8.281 4.07 10.946 2.31.399-.789.491-1.375.229-2.226-.534-1.73-2.276-2.617-3.807-3.338-2.964-1.396-6.4-2.018-9.662-1.997Zm64.291.922c-3.06.406-8.015 1.071-10.13 3.557-.517.608-.653 1.461-.526 2.22.098.588.342.736.714 1.165 2.737 1.029 7.917-1.933 10.975-2.229 2.617-.252 4.957.253 7.431 1.009l.417.175c2.189.927 5.74 3.992 8.076 3.461.305-.07.485-.217.729-.382.295-.883.24-1.463-.201-2.299-1.726-3.273-6.161-5.228-9.602-6.143-2.455-.653-5.363-.901-7.883-.534ZM189.307 165.33c.118.076.235.155.356.229 1.441.88 4.241.546 5.129 2.139-.325.699-.556.844-1.127 1.345-1.968 1.727-3.33 3.841-3.455 6.52-.104 2.205.802 4.245 2.285 5.844 2.828 3.047 6.994 4.237 11.036 4.295.522.008.965-.013 1.475-.114.218-.353.333-.566.446-.973-3.989.386-7.893.019-11.15-2.585-1.716-1.372-3.043-3.343-3.265-5.567-.212-2.111.637-4.109 2.017-5.677.982-1.116 2.177-1.964 3.403-2.787-1.685-1.589-3.629-2.876-6.038-2.848a4.277 4.277 0 0 0-1.112.179Zm151.97 1.454c2.312.898 4.174 1.703 5.314 4.086.825 1.723.713 3.698.036 5.447-1.166 3.009-3.805 5.404-6.781 6.562-2.358.918-8.012.7-8.538 1.046l.252.429c4.673.324 8.814.214 12.56-3.056 2.185-1.907 3.823-4.71 3.896-7.66.045-1.802-.521-3.749-1.842-5.029-1.256-1.22-2.875-1.929-4.624-1.844-.091.004-.182.012-.273.019Zm-42.178 5.708a5.708 5.708 0 1 0 .924 11.378 5.708 5.708 0 0 0-.924-11.378Zm-59.131.356a5.592 5.592 0 1 0 4.102 10.404 5.592 5.592 0 0 0-4.102-10.404Zm24.368-.34c.314 4.125 1.052 8.102.503 12.253-.642 4.858-7.35 13.314-2.629 17.345 2.449 2.09 7.005 2.106 10.082 1.739 4.047-.484 8.074-1.975 11.298-4.497-.298-.045-.595-.167-.896-.135-.676.07-2.313 1.201-3.006 1.532-4.136 1.98-8.839 2.865-13.397 2.183-1.577-.235-3.289-.709-4.254-2.089-.924-1.322-.944-3.16-.554-4.669.374-1.441 1.138-2.842 1.775-4.183 2.009-4.235 2.848-7.529 2.673-12.258-.083-2.253-.163-4.569-.955-6.704l-.64-.517Zm-31.858 21.362c-3.496.502-6.699 1.673-8.841 4.663-1.661 2.319-2.193 5.226-1.612 8.004a10.469 10.469 0 0 0 4.523 6.599c2.206 1.449 4.726 1.955 7.325 2.059 3.214-.5 5.976-1.344 8.055-4.049a10.143 10.143 0 0 0 1.979-7.609c-.395-2.93-1.977-5.761-4.362-7.527-2.096-1.552-4.488-2.123-7.067-2.14Zm74.741 0c-3.617.643-6.812 1.943-8.984 5.082a10.098 10.098 0 0 0-1.636 7.852c.596 2.829 2.43 5.232 4.909 6.69 2.203 1.296 4.501 1.613 6.991 1.818 3.455-.607 6.418-1.514 8.538-4.556 1.657-2.377 2.151-5.429 1.565-8.246a10.547 10.547 0 0 0-4.967-6.969c-2.041-1.205-4.107-1.511-6.416-1.671Zm-55.956 24.167c1.304 5.505 3.798 10.034 8.775 13.082 4.622 2.83 10.567 3.763 15.823 2.422a20.46 20.46 0 0 0 9.058-5.121c2.963-3.127 4.662-6.083 5.919-10.204-13.157-.281-26.418-.383-39.575-.179Zm-12.482 29.054c2.215 3.413 13.582 9.914 17.677 10.635.395.07.801.061 1.201.066-3.682-1.864-7.567-3.53-11.143-5.58-2.396-1.375-5.346-4.215-7.735-5.121Zm60.06 1.662c-9.999 7.934-21.999 11.798-34.777 10.371-1.126-.126-5.193-1.148-5.998-.666.265.643.069.429.466.734 11.701 2.521 24.258 1.141 34.477-5.373a41.667 41.667 0 0 0 6.01-4.684l-.178-.382Z" fill="#E9B49C"/><path d="M218.084 154.739c.899-2.62 1.998-5.077 3.787-7.224 3.697-4.437 8.541-5.957 14.07-6.413 3.262-.021 6.698.601 9.662 1.997 1.531.72 3.273 1.607 3.807 3.338.262.851.17 1.437-.229 2.225-2.665 1.761-7.866-1.912-10.946-2.309-3.092-.398-6.127.286-9.054 1.225-4.237 1.579-7.63 4.349-11.097 7.161ZM308.694 147.749c-2.474-.756-4.814-1.261-7.431-1.009-3.058.295-8.238 3.257-10.975 2.228-.372-.429-.616-.576-.714-1.164-.127-.76.009-1.612.525-2.22 2.116-2.487 7.071-3.152 10.131-3.557 2.52-.367 5.428-.119 7.883.533 3.441.915 7.876 2.87 9.601 6.143.441.836.497 1.417.202 2.299-.244.165-.424.313-.729.382-2.336.532-5.887-2.534-8.076-3.461l-.417-.174Z" fill="#4D261D"/><path d="M205.454 184.616c-.114.407-.228.62-.446.972-.51.102-.953.123-1.475.115-4.042-.059-8.208-1.249-11.036-4.295-1.483-1.599-2.389-3.64-2.285-5.844.125-2.68 1.487-4.794 3.455-6.521.571-.501.802-.646 1.127-1.344-.888-1.594-3.688-1.259-5.129-2.14-.121-.073-.238-.153-.356-.228a4.229 4.229 0 0 1 1.112-.179c2.409-.028 4.353 1.258 6.038 2.847-1.226.824-2.421 1.672-3.403 2.788-1.38 1.567-2.229 3.566-2.017 5.676.222 2.225 1.549 4.196 3.265 5.567 3.257 2.604 7.161 2.972 11.15 2.586ZM331.554 184.355l-.251-.429c.526-.346 6.18-.127 8.537-1.045 2.977-1.158 5.616-3.553 6.781-6.562.678-1.75.789-3.724-.036-5.448-1.14-2.383-3.002-3.188-5.314-4.086.092-.006.182-.014.273-.018 1.749-.085 3.368.624 4.625 1.843 1.32 1.281 1.887 3.228 1.841 5.03-.073 2.95-1.711 5.753-3.896 7.66-3.745 3.27-7.887 3.379-12.56 3.055Z" fill="#1C0C0A"/><path d="M465.752 180.736c1.272-4.704 3.003-8.359 7.381-10.984a15.896 15.896 0 0 1 12.256-1.663c3.965 1.064 7.149 3.849 9.146 7.386 3.18 5.633 2.155 13.579 2.121 19.895.012 1.799.627 7.069-.673 8.26-.158.144-.441.31-.629.426-1.283-9.248 2.907-23.115-3.776-30.554-2.625-2.922-6.338-4.512-10.25-4.579-3.87-.067-7.75 1.401-10.447 4.209-2.924 3.046-3.503 6.415-3.413 10.454-.978-.884-1.277-1.619-1.716-2.85Z" fill="#4D261D"/><path d="M467.469 183.59c-.089-4.039.489-7.408 3.414-10.453 2.697-2.809 6.577-4.276 10.447-4.21 3.912.067 7.625 1.657 10.25 4.579 6.683 7.439 2.493 21.306 3.776 30.554-.294 9.024-.019 18.122-.012 27.155.188 24.599 4.635 48.235 4.437 72.835 4.966.016 5.933.22 10.809.736-3.354 1.109-6.94 1.514-10.367 2.373 5.262 19.731 9.796 39.754 14.413 59.648-6.883-.367-14.222-.686-21.089.009.006-4.657-.223-9.482.282-14.11-1.378-1.075-10.219-.494-12.369-.425.706-3.992.152-8.712.116-12.795l-.163-25.345-.185-84.721-.019-26.861c0-3.892.201-7.838.06-11.722-.034-.944-.24-1.941-.756-2.74-.903 2.066-.632 149.54.085 162.479-.071.439.002 1.053-.417 1.293-1.884 1.076-6.171.194-8.403.34l-.592-.266c-.673-1.574 6.737-39.419 7.342-44.755.364-3.214.258-6.217-1.961-8.813-1.635-1.911-3.728-2.583-6.162-2.753l-2.025-.28c-.182-.189-.453-.32-.543-.565-.507-1.363-.099-14.231-.103-16.654l-.092-62.922.07-19.129c.019-4.114.22-8.389-.243-12.482Z" fill="url(#d)"/><path d="M300.229 183.846a5.703 5.703 0 0 1-5.281-2.314 5.707 5.707 0 1 1 5.281 2.314Z" fill="#1C0C0A"/><path d="M434.907 194.799c-.039-2.823-.338-5.687-.137-8.505.29-4.08 2.17-8.027 5.342-10.655 3.58-2.967 8.509-3.71 13.019-3.181 5.914.695 9.11 3.826 12.62 8.274.438 1.23.738 1.965 1.716 2.85.462 4.092.261 8.367.243 12.481l-.071 19.129.092 62.922c.004 2.423-.404 15.291.103 16.654.09.245.361.376.543.565l2.025.28c-11.736.226-23.475.269-35.212.13l-.283-100.944Zm14.478 3.146c-.811 4.092-.258 9.137-.256 13.356l.01 28.348.012 26.696c-.002 4.318-.407 9.101.181 13.369l.473.537c.888-3.625.281-10.482.279-14.456l-.015-32.446.018-22.535c.005-4.047.307-8.362-.136-12.371l-.566-.498Z" fill="#F37E60"/><path d="M243.714 183.378a5.591 5.591 0 1 1-3.395-10.655 5.591 5.591 0 0 1 3.395 10.655ZM283.576 199.349c-3.224 2.522-7.251 4.014-11.298 4.498-3.077.367-7.633.35-10.082-1.74-4.722-4.03 1.987-12.487 2.629-17.345.548-4.15-.189-8.128-.503-12.252l.64.517c.791 2.134.871 4.451.955 6.703.174 4.73-.664 8.023-2.674 12.259-.636 1.341-1.401 2.741-1.774 4.183-.39 1.508-.371 3.346.554 4.669.964 1.38 2.676 1.853 4.253 2.089 4.559.681 9.261-.203 13.398-2.184.692-.331 2.33-1.462 3.006-1.532.3-.032.597.09.896.135Z" fill="#1C0C0A"/><path d="M404.393 277.636c.376-18.095.045-36.265.043-54.367 0-6.622-.652-16.993.346-23.114.417-2.557 1.66-5.009 3.391-6.93 2.845-3.159 7.128-4.775 11.326-4.9 5.827-.173 11.21 2.63 15.4 6.478l.284 100.944c-6.517-.048-13.034-.046-19.551.006-1.741-2.844-3.253-5.834-4.999-8.683-1.969-3.211-4.203-6.265-6.24-9.434Z" fill="#E99E87"/><path d="M480.599 350.568c-.718-12.939-.988-160.413-.085-162.479.516.799.721 1.796.756 2.74.141 3.883-.061 7.83-.061 11.721l.02 26.862.185 84.721.163 25.345c.035 4.083.59 8.803-.117 12.795-.601-.549-.621-.954-.861-1.705Z" fill="#4D261D"/><path d="M496.65 195.367c3.189-3.791 6.754-6.196 11.796-6.595 4.62-.365 9.262 1.014 12.714 4.169 3.757 3.435 5.258 7.782 5.38 12.744.253 10.219-.196 20.463.014 30.683 3.991-2.701 8.24-4.315 13.143-3.386 4.008.759 7.731 3.026 10.036 6.417 1.299 1.91 2.092 3.956 2.371 6.242.521 4.258.211 8.756.183 13.051l-.201 22.688c-.039 3.45.485 7.587-.074 10.955-2.525-4.395-5.278 18.851-5.278 18.851v-37.787l-5.878-3.751s.547 4.054-2.879 6.131c-1.643.995-1.553 7.144-1.553 7.144l3.273 22.086-3.273 12.389s-5.419 46.953-6.212 48.452c-1.017-1.755-8.268 8.845-9.628 7.454-9.897 7.441-8.662-3.417-8.662-3.417-2.068.903-7.178-3.106-7.178-3.106l-4.969-.931s-4.25-110.043-4.439-134.642c-.006-9.033-.282-18.131.012-27.155.188-.116.471-.281.629-.426 1.3-1.191.685-6.461.673-8.26Zm14.536 12.527c-.707 3.638-.414 79.924.061 81.629l.441.403c.659-4.066.234-8.839.234-12.975l-.031-26.03-.006-27.394c.009-4.913.359-10.111-.101-14.987-.186-.213-.371-.477-.598-.646Z" fill="#D4D4D4"/><path d="M233.874 215.194c-2.598-.105-5.119-.61-7.325-2.06a10.47 10.47 0 0 1-4.523-6.598c-.581-2.779-.049-5.686 1.612-8.005 2.142-2.989 5.345-4.161 8.842-4.663 2.578.018 4.97.588 7.067 2.141 2.384 1.766 3.967 4.596 4.362 7.526a10.151 10.151 0 0 1-1.979 7.609c-2.079 2.705-4.842 3.549-8.056 4.05ZM308.498 215.31c-2.49-.205-4.788-.521-6.992-1.818-2.478-1.458-4.312-3.86-4.908-6.69a10.098 10.098 0 0 1 1.636-7.852c2.172-3.139 5.367-4.438 8.984-5.082 2.308.16 4.375.466 6.416 1.672a10.543 10.543 0 0 1 4.967 6.968c.586 2.817.092 5.87-1.565 8.246-2.12 3.042-5.083 3.95-8.538 4.556Z" fill="#E99E87"/><path d="m449.813 280.255-.473-.536c-.588-4.269-.183-9.051-.181-13.37l-.012-26.696-.01-28.348c-.002-4.218-.555-9.264.256-13.356l.566.498c.443 4.009.141 8.325.136 12.372l-.018 22.534.015 32.446c.002 3.974.609 10.831-.279 14.456ZM511.688 289.921l-.441-.403c-.475-1.705-.768-77.991-.061-81.628.227.169.412.432.598.646.46 4.875.11 10.074.101 14.987l.007 27.394.031 26.029c-.001 4.137.424 8.909-.235 12.975Z" fill="#1C0C0A"/><path d="M284.916 228.417a20.447 20.447 0 0 1-9.058 5.122c-5.256 1.341-11.201.408-15.823-2.423-4.977-3.048-7.471-7.577-8.775-13.081 13.157-.204 26.418-.102 39.575.179-1.257 4.121-2.956 7.076-5.919 10.203Z" fill="#fff"/><path d="M36.123 270.005c-4.368-9.123-9.771-23.761-6.408-33.812 1.28-3.826 3.806-7.005 7.47-8.77 7.198-3.468 16.901-1.108 23.986 1.508 5.208 1.924 10.188 4.364 15.069 6.999 11.629 6.28 22.877 13.645 34.136 20.585 4.941 3.045 11.208 6.161 15.686 9.701.917.724 1.689 1.623 2.139 2.714.183.442.195.859.193 1.328-1.969 4.013-20.018 17.296-24.673 21.353-5.89 3.868-11.147 9.093-16.744 13.421l-13.979 11.664c-2.102 1.738-4.346 3.924-6.748 5.229-.767.416-1.258.572-2.11.28-4.7-1.605-20.836-36.379-23.983-42.753-.461-2.986-2.715-6.684-4.034-9.447Z" fill="#E99E87"/><path d="M149.391 259.103c19.663-18.109 47.059-27.721 73.569-28.375 2.077 2.459 9.163 11.311 11.711 12.416-.682 1.899-.471 4.276-.482 6.277-.037 6.733.21 12.793 3.131 18.986 2.543 5.392 6.742 10.26 11.826 13.403 6.761 4.748 15.129 6.397 23.269 5.746 9.057-.723 18.064-5.147 23.903-12.146 7.584-9.088 8.213-19.426 7.23-30.76 4.456-4.156 7.962-8.677 11.536-13.58 6.403-.011 12.769-.052 19.11.988 21.109 3.463 42.273 15.606 57.341 30.663 4.701 4.698 8.674 9.785 12.865 14.915 2.038 3.169 4.271 6.222 6.24 9.433 1.746 2.849 3.259 5.839 5 8.684l-65.761.165c-4.454.019-21.55-.355-24.288.539-.232.076-.377.31-.566.465l-.063.251c-8.445.678-17.141.298-25.613.305l-42.661.033c-6.141-.005-6.241-.695-12.015.105-1.784.246-3.469 1.232-4.673 2.561-.982 1.083-1.659 2.52-1.912 3.957-.816 4.634-.707 9.777-.951 14.482a1835.36 1835.36 0 0 0-1.383 27.548l-1.655 30.659c-.301 5.429-.796 10.94-.807 16.376-14.081-.073-38.113-.047-52.194.079 1.295-6.592 3.335-13.057 4.976-19.572 2.64-10.481 5.054-21.042 7.981-31.447.88-3.13 5.924-16.942 5.876-18.6-.371-.642-.341-.683-1.034-.921-1.857 1.491-3.609 10.114-4.759 12.898l-.195.463c-.722-15.366-4.928-30.111-14.97-42.086-10.123-12.071-25.653-21.002-41.479-22.357 1.624-1.571 3.052-3.478 4.574-5.162 2.332-2.581 4.803-4.995 7.323-7.391Z" fill="#6683C2"/><path d="M249.149 281.806c-5.084-3.143-9.283-8.011-11.826-13.403-2.921-6.193-3.168-12.253-3.131-18.986.012-2.001-.2-4.378.483-6.277 4.233 4.714-5.43 22.713 16.056 37.798l-1.294.059c-.362.56-.306.28-.288.809Z" fill="#4B68A7"/><path d="m301.871 246.169 1.67-1.52c.983 11.334.355 21.673-7.23 30.761-5.839 6.998-14.845 11.422-23.903 12.146-8.14.65-16.508-.998-23.269-5.747-.018-.529-.074-.249.288-.808l1.294-.059c6.13 3.303 12.077 5.227 19.105 5.02 9.085-.268 17.876-3.933 24.099-10.629 8.097-8.712 8.377-17.921 7.946-29.164Z" fill="#4B68A7"/><path d="M257.655 257.792c-.4-.004-.806.004-1.202-.066-4.094-.72-15.461-7.222-17.676-10.634 2.389.905 5.339 3.745 7.735 5.12 3.576 2.05 7.461 3.716 11.143 5.58Z" fill="#E99E87"/><path d="M258.526 259.189c-.396-.305-.2-.091-.465-.733.805-.482 4.872.54 5.998.665 12.778 1.428 24.778-2.436 34.777-10.371l.178.383a41.684 41.684 0 0 1-6.011 4.683c-10.218 6.515-22.776 7.895-34.477 5.373Z" fill="#E99F88"/><path d="M36.134 270.01c1.319 2.763 3.572 6.461 4.034 9.447-2.16 4.41-3.826 9.163-5.776 13.683l-15.673 36.604c4.823 10.474 9.08 21.225 13.707 31.79 6.357 14.518 13.08 29.048 18.81 43.815-2.214.83-4.886.407-7.238 1.008-7.225-16.019-13.946-32.34-20.802-48.524-3.948-9.317-8.238-18.525-11.948-27.938.759-4.277 4.293-10.88 6.047-15.106l18.839-44.779Z" fill="#7F4A43"/><path d="m136.471 272.727 1.017-1.069c15.826 1.355 31.356 10.286 41.479 22.358 10.042 11.975 14.248 26.719 14.97 42.085l.195-.463c1.15-2.784 2.902-11.407 4.759-12.898.693.238.663.279 1.034.921.048 1.659-4.996 15.47-5.876 18.6-2.927 10.405-5.341 20.966-7.981 31.447-1.641 6.515-3.681 12.98-4.976 19.572l-1.925.264.078-1.809c1.343-4.315 2.322-8.748 3.667-13.073.011-.026.023-.051.031-.077 1.949-5.857 2.974-12.092 4.496-18.078 1.471-5.79 3.551-11.672 4.501-17.561 1.792-11.119-1.897-26.63-6.908-36.601-7.017-13.968-20.247-25.034-34.975-30.09-4.378-1.503-9-1.977-13.324-3.436l-.262-.092Z" fill="#4B68A7"/><path d="M95.541 350.055c10.161-27.255 23.121-54.224 40.934-77.325.087.032.174.063.262.092 4.324 1.46 8.946 1.933 13.324 3.437 14.728 5.055 27.958 16.122 34.975 30.089 5.01 9.972 8.7 25.483 6.908 36.602-.95 5.889-3.03 11.77-4.502 17.56-1.521 5.987-2.546 12.222-4.495 18.079-.009.026-.02.051-.031.076-2.478-.661-5.243-.852-7.786-1.255a254.54 254.54 0 0 1-13.7-2.554c-16.865-3.728-33.864-8.572-49.513-15.987-5.608-2.658-10.948-5.816-16.376-8.814Z" fill="#6683C2"/><path d="M86.982 305.038c5.597-4.327 10.855-9.552 16.744-13.421 1.642 2.239 2.461 5.178 1.984 7.943-.499 2.895-2.388 5.424-4.836 6.996a10.6 10.6 0 0 1-8.492 1.381c-2.102-.533-3.735-1.553-5.4-2.899Z" fill="#E9B49C"/><path d="M233.34 393.196c.011-5.436.506-10.947.807-16.376l1.655-30.659c.392-9.186.853-18.369 1.383-27.548.244-4.705.135-9.848.951-14.482.253-1.437.93-2.874 1.912-3.957 1.204-1.329 2.889-2.315 4.673-2.561 5.774-.8 5.821-.11 11.962-.105l42.661-.033c8.472-.006 17.168.373 25.613-.305l98.038.063 30.716-.012c5.478-.005 11.233-.352 16.68.14 1.83.165 3.04.38 4.395 1.708 1.973 1.934 2.244 3.986 2.195 6.647-.075 4.175-1.288 8.64-2.031 12.752l-3.161 18.572c-3.354 19.763-7.411 39.377-11.118 59.073a2868.473 2868.473 0 0 1-5.365 28.071c-.914 4.73-1.648 9.595-2.799 14.269-.271 1.097-.526 2.054-1.356 2.87-.709.695-1.602 1.069-2.499 1.459-2.731-.342-5.708-.155-8.466-.164l-15.568-.038-52.092-.07-93.726-.05c-16.067.002-22.308-.502-38.357.11-3.333-.146-9.446.705-12.782.726-.149-6.702 3.35-14.408 3.764-21.1.599-9.659 1.049-19.361 1.915-29Zm110.301-37.726a12.163 12.163 0 0 0-8.221 19.523 12.165 12.165 0 0 0 11.369 4.599c6.582-.953 11.179-7.017 10.318-13.612-.86-6.596-6.859-11.277-13.466-10.51Z" fill="#ECECEC"/><path d="M109.664 455.289c-1.927-1.294-4.991-1.971-7.201-2.875-7.592-3.105-14.412-9.044-18.672-16.043-10.544-17.327-6.424-35.314-.302-53.272a1121.053 1121.053 0 0 1 7.107-19.939c1.571-4.209 3.83-8.416 4.876-12.783.027-.111.05-.223.075-.334 5.428 2.998 10.768 6.156 16.376 8.814 15.649 7.415 32.648 12.259 49.513 15.987a254.54 254.54 0 0 0 13.7 2.554c2.543.403 5.308.594 7.786 1.256-1.345 4.325-2.324 8.758-3.667 13.073-3.968.328-36.367 3.005-38.505 4.115-.206.107-.31.345-.465.518.06.459-.031.703.371 1.007.712.539 1.589.554 2.449.528 3.686-.109 7.459-.901 11.144-1.258 7.37-.716 15.748-.837 22.884-2.435.715-.16 1.387-.332 2.044-.666l1.925-.264c14.081-.126 38.232-.152 52.313-.079-.866 9.639-1.316 19.341-1.915 29-.414 6.693-1.166 13.661-1.017 20.364-5.36.06-10.721.066-26.15.017-3.141-.013-6.622-.315-9.711.266-1.077.203-1.958.639-2.745 1.406-1.141 1.113-1.852 2.547-1.783 4.159.11 2.579 1.677 4.504 3.544 6.142.386.34.791.646 1.201.956l-57.123-.125-18.502.024c-3.102.003-6.479.242-9.55-.113Z" fill="#E9B49C"/><path d="m219.99 443.584 17.895-136.338 13.207 23.007v113.331H219.99Z" fill="#ECECEC"/><path d="M480.596 350.57c.241.751.26 1.157.862 1.705 2.15-.068 10.991-.649 12.369.425-2.013 1.133-18.903.424-22.286.392l-.129-.324.364-.564c2.232-.146 6.519.736 8.403-.34.42-.24.346-.854.417-1.294Z" fill="#1C0C0A"/><path d="M471.539 353.096c3.383.033 20.273.742 22.286-.391-.505 4.628-.276 9.454-.282 14.111-2.577 2.09-4.295 4.384-4.572 7.798-.187 2.298.407 4.982 1.94 6.758.233.27.483.523.736.773 1.338 13.484 3.407 26.984 5.308 40.399 1.562 11.021 2.921 22.136 4.799 33.103l-52.375.018c1.483-1.264 2.877-2.891 3.49-4.77.93-2.851-.777-3.897-1.605-6.269-.287-.821.776-1.973 1.228-2.599 2.254-3.125 2.364-6.31 3.089-10.005a4207.976 4207.976 0 0 0 10.303-53.175c.825-4.503 3.431-22.351 4.66-25.049.268-.589.421-.49.995-.702ZM346.792 379.59a12.165 12.165 0 1 1-3.148-24.122c6.607-.767 12.606 3.914 13.466 10.51.86 6.595-3.736 12.659-10.318 13.612Z" fill="#fff"/><path d="M179.168 393.538c-.657.334-1.329.506-2.045.666-7.136 1.598-15.513 1.719-22.883 2.434-3.685.358-7.458 1.149-11.144 1.259-.86.025-1.737.011-2.449-.528-.402-.305-.311-.549-.372-1.007.156-.173.26-.411.466-.519 2.138-1.109 34.536-3.787 38.505-4.114l-.078 1.809ZM51.231 405.353c.06.068.111.147.181.206.846.708 5.402 1.319 6.817 1.781 9.802 3.201 14.159 15.089 15.856 24.221 1.47 7.908 1.414 15.794 1.426 23.792 10.63-.025 21.432-.456 32.044.021-7.31.45-14.766.171-22.098.169l-39.388-.026c-7.043-.002-14.145-.185-21.18.059-.037-12.066-.38-24.921 4.79-36.125 3.149-6.82 7.295-10.498 14.315-13.091 2.352-.601 5.024-.178 7.237-1.007Z" fill="#E99E87"/><path d="M230.435 442.575c16.049-.612 32.293-.108 48.36-.111l93.726.05 52.092.071 15.568.037c2.758.009 5.735-.177 8.466.164-.292.628-.554 1.16-.676 1.847-2.922.261-6.006.066-8.946.056l-17.037-.058-52.649-.077-94.437-.045c-15.261.008-30.608.47-45.857.114 1.412-.495-13.631-.257-12.465-1.04-.442-.332 2.27-.95 1.704-1.008-.715-.073 12.856.137 12.151 0Z" fill="#4B3634"/><path d="M224.472 455.364c-6.44.024-23.519 1.028-28.414-1.325-1.858-.893-3.503-2.293-4.1-4.329-.325-1.11-.402-2.619.33-3.586.822-1.086 2.148-1.366 3.407-1.582 9.954-.298 19.969-.099 29.93-.124-1.393 1.396-3.203 3.057-3.535 5.092-.362 2.223 1.315 3.964 2.584 5.601l-.202.253Z" fill="#ECECEC"/><path d="M447.981 444.628c.925.328 1.685.839 2.267 1.632.775 1.058 1.044 2.291.831 3.582-.285 1.731-1.446 3.215-2.84 4.222-1.417 1.024-2.824 1.375-4.55 1.438-15.683.563-31.834.07-47.563.046l-89.5-.079-52.261-.022c-8.509-.007-25.162.752-33.518-.365-1.307-.902-3.424-2.445-4.261-3.835-.525-.871-.75-2.437-.426-3.408.697-2.094 3.29-2.328 5.113-3.334 15.249.356 38.378.008 53.639 0l94.437.045 52.649.077 17.037.058c2.94.01 6.024.205 8.946-.057Z" fill="#ECECEC"/><path d="m2.997 478.617.032-.35c.436-5.354-1.714-15.699 2.486-19.486.555-.501 1.233-.879 1.877-1.253 16.806-.346 33.663-.075 50.474-.076l78.213-.076 202.203.09 167.653-.014 54.471-.021c9.388-.008 18.871-.293 28.251.02 2.164.073 4.451.314 6.062 1.928 2.527 2.535 2.238 7.046 2.117 10.349-.076 2.071-.791 6.604.22 8.379.576.138 1.149.284 1.732.393l-430.711.048-118.94-.088-31.981-.028c-4.473.002-9.775-.551-14.16.185Z" fill="#D4987C"/><path d="M551.834 266.323c-2.123-.329-6.002-.095-8.316-.092-2.793.003-6.292-.194-9.006.043-.509.045-1.018.18-1.433.49a2.448 2.448 0 0 0-.951 1.666c-.275 2.772-.037 6.328-.037 9.207l.004 19.069-.001 6.13c1.489-.158 3.063-.077 4.56-.075 2.863-.001 5.726.015 8.589.048 1.856.018 3.761.107 5.61-.054-1.15-.066-2.324-.02-3.477-.023v-36.399c1.485.012 2.974.05 4.458-.01Zm-14.055 13.175c.523.302.835.594 1.188 1.079.052 1.915.158 3.906-.013 5.813-.385.518-.717.951-1.401 1.019-.207.02-.419.012-.626.005-.527-.304-.854-.562-1.025-1.166-.37-1.302-.44-4.921.217-6.076.157-.276.409-.53.713-.635.306-.105.634-.07.947-.039Z" fill="#89A2D8"/><path d="M553.761 267.854a2.793 2.793 0 0 0-.055-.092c-.479-.769-.994-1.239-1.883-1.446-1.484.061-2.973.023-4.458.01l.001 36.4c1.152.002 2.326-.044 3.476.023l2.958-.029-.017-4.887v-20.406c.004-3.188.067-6.387-.022-9.573Z" fill="#6683C2"/><path d="M514.447 285.27c-1.417-3.824-2.902-8.416-4.586-12.062-.283 4.12-.498 8.27-.936 12.377l.057.189c.543.318 4.543-.426 5.465-.504Z" fill="#554148"/><path d="M538.962 280.573c-.352-.485-.665-.777-1.187-1.079-.314-.031-.642-.065-.947.039-.304.105-.556.36-.713.635-.657 1.155-.587 4.775-.218 6.077.171.603.499.861 1.026 1.165.207.007.419.015.626-.005.684-.068 1.016-.501 1.401-1.019.171-1.907.064-3.898.012-5.813Z" fill="#FEFEFE"/><path d="M514.455 285.272c-.922.078-4.922.823-5.465.505l-.057-.19c-.268.924-.152 2.682-.221 3.709-.195 2.922-.402 5.888-.812 8.788-.138 2.08-.421 4.133-.596 6.206 1.629-.134 3.272-.417 4.892-.633 3.151-.421 6.324-.837 9.49-1.118-.252.002-.552.037-.782-.076-.491-.241-2.028-4.957-2.273-5.644-1.259-3.887-2.71-7.733-4.176-11.547Z" fill="#E9B49C"/><path d="M603.95 307.464c.404-1.702 1.076-3.725.755-5.486-.188-1.029-.809-1.88-1.685-2.436-.936-.595-2.121-.832-3.201-.544-2.165.577-3.146 3.292-4.145 5.085.372.51 7.324 3.326 8.104 3.389.057.005.115-.005.172-.008Z" fill="#554148"/><path d="M556.05 307.348c-.069-1.212.358-3.051-.528-4.017-.429-.468-1.105-.566-1.706-.602l-2.957.029c-1.849.16-3.755.071-5.61.054-2.863-.034-5.726-.05-8.589-.049-1.497-.001-3.071-.083-4.56.075-.631.239-1.173.474-1.469 1.121-.425.933-.191 2.28-.192 3.28l14.018.014c2.453.003 5.06-.154 7.497.085 1.362-.045 2.733-.002 4.096.01Z" fill="#91AEEE"/><path d="M521.689 302.54c-3.166.281-6.339.697-9.489 1.117-1.621.217-3.264.5-4.893.634-.31.124-.474.126-.641.424-.003 1.36.237 2.741.406 4.089.34 2.702.756 5.419.974 8.132l9.359-1.178c1.98-.239 4.009-.387 5.97-.744-.816-4.085-1.099-8.345-1.686-12.474Z" fill="#554148"/><path d="m595.669 304.086-.229-.136c-1.019.417-4.927 5.649-6.198 6.874-1.063 1.219-3.472 3.524-4.068 4.879.439.068.709.117.988.501.719.99.905 2.221 1.69 3.234l.107.141.066.082c2.974 1.455 5.514-.739 7.304 1.225.916 1.305 1.894 2.821 3.591 3.132 1.396.256 2.678-.356 3.9-.944l.22-.113c.378-.156.675-.244 1.076-.097.77.283 1.173 1.256 1.486 1.946.454-1.663-.268-5.436-.262-7.399-.365-2.324-.375-4.778-.524-7.128-.045-.708.01-1.795-.214-2.438-.098-.281-.404-.296-.657-.378-.058.002-.115.012-.173.007-.779-.062-7.731-2.878-8.103-3.388Z" fill="#E9B49C"/><path d="m556.031 308.735.012-1.391c-1.363-.012-2.733-.055-4.095-.01-3.315.21-6.734.043-10.059.033-3.805-.011-7.673.107-11.471-.07.035.448-.005 1.186.257 1.551 3.509.161 7.081.028 10.597.016 1.203-.355 12.528-.126 14.759-.129Z" fill="#FEFEFE"/><path d="M555.075 332.803c.542-.112 1.123-.298 1.565-.64.608-.469.735-1.171.802-1.896.113-1.232.042-2.513.039-3.752l-.017-6.348c-.006-3.169.22-6.431.036-9.585-.026-.439-.045-.885-.335-1.237-.47-.263-.904-.377-1.44-.439-1.485-.171-3.099-.048-4.596-.044-3.287.025-6.573.025-9.859 0-3.516.011-7.088.145-10.596-.017-.558-.027-1.119-.011-1.556.387-.621.567-.439 2.018-.442 2.819l-.007 12.389c.001 2.125-.223 4.504.162 6.585.071.386.237.68.503.965.441.473 1.047.672 1.671.77 1.131-.115 6.197-.26 7.046.056 1.722.25 3.764.047 5.519.042l11.505-.055Z" fill="#6683C2"/><path d="M523.366 315.012c-1.961.357-3.99.505-5.97.745l-9.359 1.178c.114 1.863.41 3.743.635 5.596l1.55 12.174c1.276 10.261 2.425 20.514 4.016 30.735l7.678-.002c-.472-2.052-.612-4.347-.896-6.44l-2.146-16.908-2.122-15.703c-.354-2.588-1.085-6.205-.977-8.736.231.426.384.958.446 1.442l6.007 46.35c2.776-.034 5.551-.041 8.327-.021l-.009-2.09c-1.016-1.818-1.721-9.5-2.079-11.965a1444.98 1444.98 0 0 1-3.194-22.026c-.64-4.779-1.082-9.575-1.907-14.329Z" fill="#E9B49C"/><path d="M588.027 319.665a2.64 2.64 0 0 1-.065-.083l-.108-.14c-.785-1.013-.97-2.244-1.69-3.234-.279-.384-.549-.433-.987-.501-.512.433-.873.785-1.199 1.385-.825 1.517-1.459 3.184-2.145 4.769l-4.314 10.223a484.788 484.788 0 0 0-5.031 12.169c-.807 2.008-7.495 26.853-8.134 28.921 1.479 1.041 1.174.461 2.603 1.562 1.489-2.636 10.344-28.025 11.505-30.965l7.029-17.644c.438-1.112 2.025-5.748 2.536-6.462Z" fill="#F37E60"/><path d="m522.232 365.445-6.007-46.35a4.321 4.321 0 0 0-.445-1.442c-.109 2.532.623 6.149.976 8.737l2.122 15.703L521.024 359c.284 2.094.424 4.388.896 6.44l.312.005Z" fill="#E99E87"/><path d="M595.336 320.884c-1.79-1.964-4.33.23-7.304-1.225.011.428-.104.769-.242 1.168-.757 2.182-1.666 4.33-2.513 6.479a1064.151 1064.151 0 0 1-4.991 12.486c-1.874 4.649-9.641 27.799-11.764 32.334 2.098 1.775 5.211-1.272 7.289.521.534-.909 6.103-15.733 6.487-16.721 1.016-2.612 2-5.236 2.952-7.872l7.267-19.475 1.843-5.101c.306-.854.53-1.807.976-2.594Z" fill="#F37E60"/><path d="M588.027 319.659c-.512.714-2.099 5.35-2.536 6.462l-7.029 17.644c-1.162 2.94-7.429 21.039-8.918 23.675l1.041-.52c2.123-4.536 7.822-22.479 9.696-27.128 1.69-4.152 3.354-8.314 4.991-12.486.846-2.149 1.755-4.297 2.513-6.479.138-.399.253-.74.242-1.168Z" fill="#9B4337"/><path d="M488.722 320.751c-3.618 1.466-7.197 3.031-10.808 4.515.907 1.809 1.546 3.826 2.269 5.72l4.078 10.641a716.277 716.277 0 0 1 6.342 16.633c.859 2.311 2.027 4.757 2.574 7.159 4.131.067 8.272.004 12.403-.006-.77-1.406-1.241-3.221-1.783-4.738a566.188 566.188 0 0 0-3.147-8.601c-.722-1.311-1.437-3.224-1.806-4.674l.144-.128c-.519-.466-9.071-23.522-10.266-26.521ZM602.832 323.079c-1.222.587-2.504 1.199-3.901.943-1.696-.311-2.674-1.827-3.59-3.131-.131 1.794-1.498 4.745-2.165 6.568l-5.233 14.02-4.599 12.345c-.675 1.758-5.682 14.536-6.496 16.227l6.248 4.686c.53-.923 5.349-12.75 5.719-13.755l2.65-7.27 6.481-17.624c1.565-4.323 2.986-8.83 4.886-13.009Z" fill="#F37E60"/><path d="M595.336 320.891c-.446.787-.67 1.74-.976 2.593l-1.843 5.102-7.267 19.475a342.874 342.874 0 0 1-2.952 7.871c-.384.989-4.391 11.648-4.925 12.557l1.042-1.562c.813-1.691 4.249-11.345 4.924-13.103l4.599-12.345 5.233-14.02c.667-1.823 2.034-4.774 2.165-6.568Z" fill="#9B4337"/><path d="M603.044 322.959c-.276 1.266-.972 2.559-1.436 3.782a759.08 759.08 0 0 0-2.955 8.002 1537.285 1537.285 0 0 1-6.628 17.991c-1.401 3.844-4.216 11.983-5.81 15.749.445.422 2.088-1.366 2.603-1.042 2.135-.002 2.561.122 4.686 0-.737-.057.637-2.083-.102-2.098 1.646-5.451 3.514-10.84 5.282-16.254L606 326.403l-.394-1.595c-.313-.69-.716-1.663-1.486-1.946-.401-.147-.697-.059-1.076.097Z" fill="#F37E60"/><path d="M585.689 369.52c1.593-3.766 5.206-12.496 6.333-16.79 2.246-5.983 4.456-11.98 6.628-17.99.97-2.673 1.955-5.341 2.955-8.002.463-1.223 1.159-2.517 1.436-3.782l-.22.113c-1.9 4.179-3.321 8.686-4.886 13.009l-6.481 17.625-2.65 7.269c-.37 1.006-4.148 9.707-4.677 10.631l1.562-2.083Z" fill="#9B4337"/><path d="M493.188 365.422c-.548-2.402-1.716-4.848-2.575-7.158a710.137 710.137 0 0 0-6.342-16.634l-4.078-10.64c-.723-1.894-1.362-3.911-2.269-5.72l-.644.307c3.433 10.122 7.482 20.001 11.193 30.019a648.494 648.494 0 0 0 2.409 6.358c.422 1.106.99 2.315 1.231 3.469l1.075-.001Z" fill="#FEFEFE"/><path d="M538.051 332.818c-.849-.315-5.915-.171-7.047-.056l.023.056c2.27.271 4.656.13 6.942.121l.082-.121Z" fill="#4364B4"/><path d="m555.069 332.806-11.505.055c-1.755.004-3.797.208-5.519-.043l-.082.121c-.195 4.24-.096 8.529-.158 12.777-.095 6.566-.283 13.151-.179 19.718l17.792-.014-.49-.132c-.352-.743.104-29.009.141-32.482Zm-5.561 16.173c.735.32 1.585.729 1.921 1.512.552 1.283.306 12.697.282 14.838l-3.869-.002-2.014-.006-.027-9.265c-.004-1.572-.187-3.366.111-4.91.096-.489.329-.941.671-1.304.533-.556 1.386-.908 2.155-.906.257 0 .514.022.77.043Z" fill="#89A2D8"/><path d="M537.961 332.948c-2.286.009-4.672.15-6.941-.122-.18 10.164-.495 20.347-.478 30.512l.008 2.09c2.355.056 4.719.015 7.075.015-.105-6.567.083-13.152.179-19.719.061-4.248-.038-8.536.157-12.776Z" fill="#6683C2"/><path d="M551.718 365.325c.023-2.141.27-13.555-.282-14.838-.337-.783-1.187-1.192-1.921-1.512-.256-.021-.514-.043-.771-.043-.768-.002-1.621.35-2.154.906a2.646 2.646 0 0 0-.672 1.305c-.297 1.543-.115 3.337-.11 4.909l.027 9.265 2.013.006 3.87.002Z" fill="#ECECEC"/><path d="M530.796 367.902c-1.211-.359-6.676-.101-8.251-.091l-.222.007c-2.6-.051-5.205.048-7.805.079.934 7.287 1.918 14.568 2.953 21.841.443 3.233 1.111 6.579 1.299 9.833.015.268.005.433-.115.681l-8.619-22.941c-1.152-3.088-2.209-6.239-3.437-9.295l-12.4.001c1.099 2.558 2.008 5.208 2.992 7.812l5.955 15.882 15.559 41.574c2.867 7.765 5.563 15.602 8.543 23.324l-1.149-.007-12.242.007-23.327-.006c-.415.011-.877.075-1.256-.114-.539-1.226-.725-4.847-.921-6.359-.461-3.545-.984-7.092-1.493-10.631a4737.985 4737.985 0 0 1-6.752-48.191 1292.106 1292.106 0 0 1-2.955-21.827c-.081-.682-.201-1.51.058-2.164.148-.374.421-.597.75-.806 3.394-.381 7.541-.128 11.024-.127l20.815-.012 68.981-.118c1.868-.001 17.607-.234 18.29.269.357.263.609.672.623 1.107.087 2.837-.849 7.467-1.274 10.447l-2.821 19.901-5.667 40.029-1.788 12.662c-.278 1.982-.485 3.99-.817 5.962l-13.877.048c-2.459.004-4.975.12-7.426-.025a791.035 791.035 0 0 1 5.713-16.898c-.809-1.472-1.787-2.877-2.697-4.29l-4.644-7.19c-3.625-5.589-7.16-11.28-10.93-16.77-.887-1.743-2.576-3.952-3.696-5.642-1.845-2.783-3.588-5.63-5.452-8.401-1.12-1.666-2.552-3.422-3.356-5.251-.196-.447-.27-.89-.188-1.376.119-.703.581-1.316 1.167-1.706.649-.434 1.589-.671 2.363-.504.811.174 1.558.867 2.087 1.47 1.228 1.401 2.203 3.166 3.24 4.723l6.138 9.236c.575.964 1.282 1.875 1.908 2.81 1.13 1.686 2.223 3.401 3.338 5.098 4.432 6.748 8.931 13.495 13.184 20.355.896-2.422 1.576-4.931 2.32-7.404a452.842 452.842 0 0 1 2.661-8.51 921.444 921.444 0 0 1 12.177-36.681l4.406-11.853c-6.097-.166-12.275-.083-18.375.014l-9.565.033c-2.048 6.667-4.455 13.245-6.619 19.878-1.048 3.213-2.021 6.45-3.102 9.652-.427 1.263-.81 2.591-1.336 3.815-.239-3.909-.041-7.915-.046-11.837-.04-7.151-.041-14.301-.001-21.452-1.001.029-2.006-.013-3.007-.037-1.129-.189-4.828-.314-5.879-.055-3.387.177-6.833.057-10.225.055-1.286 0-2.675-.098-3.951.029l-.861-.063Z" fill="#F0F0F0"/><path d="M593.746 367.873c-6.097-.166-12.275-.083-18.375.014 1.504 1.451 3.214 2.727 4.819 4.066 3.065 2.559 6.15 5.141 9.15 7.773l4.406-11.853Z" fill="#554148"/><path d="M551.711 367.941c-1.129-.188-4.828-.314-5.879-.055l-.005 16.075c.001 1.915-.227 5.288.101 7.001.128.667.496 1.371.956 1.869.57.618 1.319.933 2.157.941.747.008 1.457-.202 1.981-.757.399-.424.574-.903.652-1.473.345-2.514.113-5.34.113-7.889.01-5.237-.015-10.475-.076-15.712Z" fill="#ECECEC"/><path d="M530.795 367.909c-1.211-.359-6.676-.101-8.251-.091.409 2.039.569 4.17.841 6.234l1.536 11.235 5.206 38.877c.521 3.953 1.062 7.904 1.624 11.851.316 2.345.471 4.818 1.097 7.098l.022.089c2.346-.259 4.687-.604 7.03-.89.176-1.663-.315-3.744-.539-5.406-.489-3.621-1.087-7.254-1.407-10.892-.72-4.22-1.091-8.557-1.617-12.81l-2.816-22.815-1.833-14.807c-.314-2.532-.772-5.13-.893-7.673Z" fill="#E9B49C"/><path d="m522.531 367.818-.222.007c-.138 1.211.298 2.843.471 4.071l1.179 8.453 5.665 42.511c.703 4.796 1.37 9.597 2 14.404.21 1.548.868 4.652.689 6.002l.544-.064-.022-.088c-.626-2.28-.781-4.753-1.097-7.098-.562-3.948-1.103-7.898-1.623-11.851l-5.207-38.878-1.536-11.235c-.272-2.063-.432-4.194-.841-6.234Z" fill="#E99E87"/><path d="M522.317 367.813c-2.6-.051-5.205.049-7.805.079.934 7.287 1.918 14.568 2.953 21.841.443 3.233 1.111 6.579 1.299 9.833.015.269.005.433-.115.682 1.122 3.473 1.483 8.863 1.978 12.656.455 3.485 3.909 30.39 4.586 31.304 2.344-.469 4.732-.71 7.108-.954.179-1.35-.478-4.454-.689-6.002a954.921 954.921 0 0 0-1.999-14.404l-5.666-42.511-1.179-8.453c-.173-1.228-.609-2.86-.471-4.071Z" fill="#E9B49C"/><path d="m575.379 367.888-9.565.033c-2.049 6.667-4.456 13.245-6.619 19.878-1.048 3.213-2.021 6.45-3.103 9.652-.427 1.263-.81 2.59-1.335 3.815a46.804 46.804 0 0 1-.998 2.792c.575.965 1.283 1.876 1.909 2.81 1.13 1.687 2.223 3.401 3.337 5.099 4.432 6.748 8.931 13.495 13.184 20.355.897-2.422 1.577-4.932 2.321-7.404a452.842 452.842 0 0 1 2.661-8.51 920.907 920.907 0 0 1 12.177-36.681c-3.001-2.632-6.086-5.215-9.151-7.773-1.604-1.34-3.315-2.616-4.818-4.066Zm6.585 17.245c.99.389 1.793.895 2.219 1.913.262.627.235 1.119.123 1.776-.322 1.878-1.18 3.774-1.761 5.59-.667 2.084-1.175 4.374-2.062 6.362-.36.808-.891 1.44-1.737 1.771-.657.257-1.265.234-1.952.15-.92-.372-1.663-.827-2.091-1.762-.176-.383-.332-.895-.311-1.322.101-2.074 1.514-5.405 2.184-7.418.535-1.609.992-3.294 1.629-4.863.374-.921.814-1.597 1.773-1.987.639-.261 1.309-.265 1.986-.21Z" fill="#F37E60"/><path d="M554.714 367.97c-1.001.028-2.005-.013-3.006-.037.061 5.237.086 10.474.075 15.712.001 2.549.232 5.374-.112 7.889-.078.57-.253 1.049-.652 1.473-.524.554-1.234.764-1.981.757-.838-.008-1.587-.324-2.158-.941a4.015 4.015 0 0 1-.955-1.87c-.329-1.712-.101-5.085-.101-7l.004-16.075c-3.387.177-6.832.056-10.224.055-1.286-.001-2.676-.099-3.952.029.882.376 4.571.099 5.676.08a692.97 692.97 0 0 0 .64 47.659c.068 1.609.647 9.525-.017 10.303.32 3.638.918 7.271 1.407 10.891.224 1.662.715 3.744.539 5.406a66.51 66.51 0 0 1-.219 5.357c-.104 1.232-.304 2.486-.36 3.718.863-1.427 1.243-3.616 1.708-5.229l2.06-7.068a2150.64 2150.64 0 0 1 8.375-27.576c-.886-1.743-2.575-3.952-3.695-5.642-1.845-2.784-3.588-5.63-5.452-8.402-1.12-1.666-2.552-3.422-3.356-5.251a2.333 2.333 0 0 1-.188-1.375c.119-.704.581-1.317 1.166-1.707.65-.433 1.589-.671 2.364-.504.81.175 1.558.867 2.087 1.471 1.227 1.4 2.203 3.166 3.239 4.723l6.138 9.235c.362-.92.695-1.851.998-2.793-.239-3.909-.041-7.914-.046-11.837-.041-7.15-.041-14.301-.002-21.451Z" fill="#89A2D8"/><path d="m531.645 367.961-.86-.064c.121 2.543.578 5.142.893 7.674l1.833 14.807 2.816 22.815c.525 4.253.897 8.59 1.617 12.81.664-.778.085-8.694.017-10.303a692.97 692.97 0 0 1-.64-47.659c-1.105.019-4.794.296-5.676-.08Z" fill="#6683C2"/><path d="m518.648 400.253-8.62-22.941c-1.152-3.088-2.209-6.239-3.437-9.295h-12.4c1.099 2.559 2.008 5.208 2.992 7.813l5.955 15.881 15.559 41.574c2.867 7.765 5.563 15.603 8.543 23.325 1.018.008 2.037.005 3.055-.006-2.423-3.323-4.135-8.38-5.083-12.39-.678-.915-4.132-27.82-4.587-31.304-.495-3.793-.856-9.183-1.977-12.657Z" fill="#F37E60"/><path d="M576.789 402.686c.687.084 1.296.107 1.952-.15.847-.331 1.378-.963 1.738-1.771.887-1.988 1.394-4.278 2.061-6.362.582-1.816 1.439-3.712 1.761-5.59.113-.657.14-1.149-.122-1.776-.427-1.018-1.229-1.524-2.219-1.913-.677-.055-1.348-.051-1.987.21-.959.39-1.398 1.066-1.772 1.987-.637 1.569-1.095 3.254-1.63 4.863-.669 2.013-2.083 5.344-2.184 7.418-.02.427.136.939.311 1.322.429.935 1.172 1.39 2.091 1.762Zm4.515-16.958c.851.128 1.644.363 2.189 1.079.48.631.484 1.19.359 1.937-.323 1.937-1.195 3.866-1.798 5.741-.638 1.98-1.114 4.207-2.012 6.071-.197.41-.484.725-.849.993-.504.369-1.09.474-1.696.566-.915-.274-1.741-.643-2.214-1.524-.171-.32-.313-.689-.275-1.057.153-1.441.842-3.034 1.293-4.414l2.244-6.857c.289-.857.556-1.788 1.411-2.241.417-.22.884-.275 1.348-.294Z" fill="#554148"/><path d="M577.501 402.118c.607-.092 1.193-.197 1.697-.566a2.63 2.63 0 0 0 .848-.992c.898-1.865 1.374-4.091 2.012-6.072.604-1.874 1.476-3.804 1.799-5.741.125-.747.12-1.306-.36-1.937-.545-.716-1.338-.951-2.188-1.079-.465.019-.931.074-1.349.295-.855.452-1.122 1.383-1.411 2.24l-2.243 6.857c-.451 1.38-1.14 2.973-1.293 4.414-.039.368.104.738.275 1.057.472.881 1.299 1.25 2.213 1.524ZM569.736 439.758c-.809-1.472-1.787-2.876-2.697-4.29l-4.643-7.19c-3.625-5.588-7.161-11.28-10.931-16.769a2166.787 2166.787 0 0 0-8.376 27.576l-2.059 7.068c-.465 1.613-.845 3.802-1.708 5.229-.518 1.729-.932 3.487-1.461 5.216l17.672.032 5.446-.01c.992-.001 2.061-.069 3.045.037a792.985 792.985 0 0 1 5.712-16.899Z" fill="#F37E60"/><path d="M513.275 456.625c-.586-1.639-1.077-3.538-1.903-5.06l.012 5.038c.628.027 1.262.017 1.891.022Z" fill="#FEFEFE"/><path d="M431.772 457.444c1.474.109 5.142.232 6.442-.091.222-.304.171-.41.16-.777-1.43-.018-5.254-.306-6.412.104-.208.3-.18.407-.19.764Z" fill="#554148"/><path d="m324.964 297.166.063-.251c.188-.155.334-.389.566-.465 2.738-.894 19.834-.52 24.288-.539l65.761-.165c6.516-.052 13.033-.055 19.55-.007 11.737.139 23.476.096 35.212-.131 2.434.171 4.527.843 6.162 2.754 2.219 2.595 2.325 5.599 1.961 8.813-.605 5.336-8.015 43.181-7.342 44.755l.592.266-.364.564.129.324c-.574.212-.727.113-.995.701-1.228 2.698-3.835 20.547-4.66 25.05a4197.117 4197.117 0 0 1-10.303 53.175c-.725 3.694-.834 6.88-3.089 10.004-.452.626-1.515 1.778-1.228 2.6.828 2.371 2.535 3.417 1.605 6.268-.613 1.88-2.007 3.507-3.49 4.771l52.376-.018 52.432-.058c7.545.002 16.403-.595 16.403-.595H578.047s2.795.435 3.727.561c4.872-.056 10.579-.97 14.388 2.704 3.863 3.725 2.643 14.99 2.623 20.254-.583-.109-1.156-.255-1.733-.394-1.011-1.774-.296-6.307-.22-8.378.121-3.303.411-7.814-2.117-10.349-1.61-1.614-3.898-1.855-6.061-1.928-9.38-.313-18.864-.028-28.251-.02l-54.472.021-167.653.014-202.203-.09-78.212.076c-16.812 0-33.668-.27-50.475.076-.644.374-1.322.752-1.877 1.253-4.2 3.787-2.05 14.132-2.486 19.486l-.032.35-1.508-.423c-.286-.779-.283-1.493-.308-2.312-.16-5.222-.977-14.358 3.009-18.311 3.233-3.206 16.037-1.978 20.705-2.006 7.035-.245 14.137-.061 21.18-.06l39.387.026c7.333.002 14.789.281 22.099-.169l2.105-.076c3.071.356 6.448.117 9.55.114l18.502-.024 57.123.125c-.41-.31-.815-.616-1.201-.956-1.867-1.638-3.434-3.563-3.544-6.142-.069-1.612.642-3.046 1.783-4.159.787-.767 1.668-1.203 2.745-1.406 3.089-.581 6.57-.279 9.711-.266 5.36.049 10.721.043 16.081-.017 3.337-.021 6.702-.136 10.035.01.705.137 1.376.245 2.091.318.565.058.758.158 1.2.49-1.166.784-3.269.745-4.681 1.24-1.823 1.007-4.423 2.428-5.12 4.522-.324.971-.246 1.864.279 2.736.836 1.39 2.273 2.296 3.579 3.198 8.357 1.118 18.062.366 26.572.373l52.26.022 89.5.079c15.73.024 31.88.517 47.564-.047 1.725-.062 3.132-.413 4.55-1.437 1.394-1.008 2.555-2.492 2.84-4.222.213-1.291-.056-2.525-.831-3.582-.582-.793-1.342-1.304-2.268-1.632.123-.687.384-1.219.677-1.846.897-.39 1.79-.764 2.498-1.46.831-.815 1.086-1.772 1.356-2.869 1.151-4.674 1.886-9.539 2.799-14.269a2815.764 2815.764 0 0 0 5.365-28.071c3.708-19.696 7.765-39.31 11.119-59.073l3.161-18.572c.742-4.112 1.956-8.577 2.031-12.752.049-2.661-.222-4.713-2.195-6.647-1.355-1.328-2.565-1.543-4.395-1.708-5.448-.492-11.202-.145-16.68-.14l-30.716.012-98.038-.063ZM195.695 444.541c-1.259.216-2.585.496-3.408 1.582-.731.967-.654 2.476-.33 3.586.597 2.036 2.243 3.436 4.101 4.329 4.895 2.353 21.973 1.349 28.414 1.325l.201-.253c-1.269-1.637-2.945-3.378-2.583-5.601.332-2.035 2.141-3.696 3.535-5.092-9.961.025-19.976-.174-29.93.124Z" fill="url(#e)"/></g><defs><linearGradient id="b" x1="458.221" y1="264.52" x2="524.238" y2="272.091" gradientUnits="userSpaceOnUse"><stop stop-color="#FDE8E5"/><stop offset="1" stop-color="#FBFDF7"/></linearGradient><linearGradient id="c" x1="315.327" y1="283.487" x2="297.266" y2="502.365" gradientUnits="userSpaceOnUse"><stop stop-color="#3D2318"/><stop offset="1" stop-color="#4F3C3C"/></linearGradient><linearGradient id="d" x1="458.221" y1="264.192" x2="524.238" y2="271.762" gradientUnits="userSpaceOnUse"><stop stop-color="#FDE8E5"/><stop offset="1" stop-color="#FBFDF7"/></linearGradient><linearGradient id="e" x1="315.327" y1="283.15" x2="297.266" y2="502.027" gradientUnits="userSpaceOnUse"><stop stop-color="#3D2318"/><stop offset="1" stop-color="#4F3C3C"/></linearGradient><clipPath id="a"><path fill="#fff" d="M0 0h605v478.956H0z"/></clipPath></defs></svg>