<svg width="265" height="209" fill="none" xmlns="http://www.w3.org/2000/svg"><path d="M180.324 3.662a1.856 1.856 0 1 1-.871-3.61 1.856 1.856 0 0 1 .871 3.61ZM162.515 16.93a4.847 4.847 0 1 1-2.067-9.47 4.847 4.847 0 0 1 2.067 9.47Z" fill="#fff"/><path d="M113.207 99.445c-25.777 5.63-51.266-10.6-57.069-36.338-5.802-25.736 10.26-51.332 35.959-57.306 25.945-6.03 51.84 10.216 57.699 36.199 5.857 25.983-10.563 51.764-36.589 57.445Z" fill="#F3F3F3"/><path d="M107.719 22.584c-1.403 1.343-2.633 2.98-3.372 4.787 2.15 2.586 4.407 6.05 4.108 9.598-.007.092-.019.184-.028.275-.457-.585-.517-1.815-.684-2.547-.689-3.02-2.35-6.039-5.077-7.628-3.124-1.658-5.929-1.576-9.354-1.11-2.84.518-5.345 1.511-7.61 3.339-2.4 1.391-4.134 4.822-4.835 7.403-1.202 4.426-.457 8.861-.257 13.345-.092.441-.092.495-.414.805-.324-2.897-.618-5.869-.593-8.787.044-4.944 1.453-9.322 5.035-12.825 3.634-2.848 6.696-3.56 11.15-4.27.734-.003 1.47.002 2.205-.01 2.116.395 3.966.948 5.76 2.172l1.372-2.244c3.292-4.588 7.017-7.807 12.741-8.748 4.926-.809 10.342.31 14.398 3.267 3.306 2.411 5.497 6.039 6.565 9.959.583 2.143.831 4.52 2.39 6.23 1.349 1.48 3.292 2.227 5.098 2.974 1.564.563 3.116 1.109 4.591 1.883 2.275 1.569 3.49 3.484 4.002 6.204.511 2.709.214 5.468-.211 8.165-.604-1.595.597-3.77-.062-5.389-.008-.364-.041-.72-.084-1.08-.355-3.04-1.298-5.27-3.732-7.194-1.393-.923-3.036-1.403-4.599-1.957-3.079-1.146-5.781-2.516-6.98-5.787-.403-1.102-.596-2.31-.896-3.446-.944-3.571-2.629-6.77-5.439-9.22-3.684-3.21-8.715-4.578-13.542-4.198-4.627.363-8.648 2.53-11.646 6.034Z" fill="#4D261D"/><path d="M107.719 22.584c2.998-3.504 7.019-5.67 11.646-6.034 4.827-.38 9.858.988 13.541 4.199 2.811 2.449 4.496 5.648 5.44 9.22.3 1.135.492 2.344.896 3.445 1.199 3.271 3.901 4.641 6.98 5.787-.061.834-.127 1.666-.198 2.499-1.772-.744-3.668-1.409-5.122-2.71-1.988-1.78-2.679-4.278-3.47-6.726-1.661-5.137-3.996-9.486-8.894-12.14-5.357-2.902-12.07-2.712-17.347.254-.771.433-2.764 2.078-3.326 2.195-.048.01-.097.007-.146.01Z" fill="#fff"/><path d="M104.341 27.373c.739-1.807 1.969-3.445 3.372-4.788.049-.003.099 0 .146-.01.562-.118 2.555-1.763 3.326-2.196 5.277-2.966 11.99-3.155 17.348-.253 4.898 2.654 7.232 7.002 8.893 12.14.791 2.447 1.482 4.946 3.47 6.726 1.454 1.3 3.35 1.965 5.122 2.71.986.488 1.969.985 2.947 1.49 2.01 1.294 3.404 2.366 4.685 4.413.358.573.584 1.308.981 1.829.659 1.619-.542 3.793.062 5.389-.622 4.175-2.611 7.99-4.799 11.545-.591.141-1.168.028-1.747.297-2.026.94-2.568 3.533-3.289 5.446-2.289-2.24-2.134-5.576-4.66-7.65-2.807-2.303-6.971-2.36-10.129-4.094-3.585-1.968-6.352-5.863-8.972-8.943 1.189 3.638 2.946 5.962 4.494 9.267a15.592 15.592 0 0 1-3.885-.714c-7.374-2.36-9.919-9.02-13.169-15.254a1.53 1.53 0 0 0 .011-.584l-.281.102c-1.927.345-5.339 4.55-6.415 6.09-.399.572-.986 1.275-1.159 1.94l-.382.246c.009.098.006.223.041.314-.942.855-1.664 2.572-2.295 3.693-1.951 3.465-6.933 13.225-9.284 15.488-.762-2.067-1.703-4.293-3.813-5.323-1.083-.53-2.494-.63-3.626-.201-.457.172-.94.503-1.395.622-.58-3.648-1.164-7.407-.852-11.107.102-1.204 1.274-4.317 1.102-5.15.323-.31.323-.364.415-.806.662-.975 1.33-1.919 2.078-2.83.233-1.942.558-3.872.973-5.783 1.161-5.12 3.36-9.374 7.876-12.237 1.55-.796 3.022-1.43 4.71-1.877a27.885 27.885 0 0 1 6.418-.249c2.728 1.59 4.389 4.607 5.078 7.627.167.733.227 1.962.684 2.548.009-.092.021-.183.028-.275.299-3.548-1.958-7.012-4.108-9.598Zm27.942 12.826c.37 2.361 4.343 6.504 6.283 7.891.18.129.364.242.554.356l.208-.072-.094-.104c-1.17-1.215-2.657-2.17-3.729-3.497-.607-.751-2.597-4.313-3.222-4.574Zm-32.27 3.427c-2.081 4.34-5.292 8.244-9.986 9.861-.566.195-2.83.568-3.052.809l.125.257c3.803-.24 7.472-2.788 9.915-5.58 1.023-1.17 2.877-3.614 3.123-5.16l-.125-.187Z" fill="#7F4A43"/><path d="M156.877 38.421c-2.13 1.912-4.192 3.881-5.973 6.129 2.274 1.568 3.489 3.483 4.002 6.204.51 2.708.213 5.467-.212 8.164-.622 4.176-2.61 7.991-4.799 11.546 1.888.122 3.673.591 4.977 2.068 1.27 1.44 1.751 3.494 1.581 5.376-.298 3.293-2.379 6.213-4.864 8.272-1.66 1.376-3.974 2.727-6.209 2.462-.607-.072-1.221-.243-1.814-.39-1.314 5.93-3.135 11.574-6.402 16.746 2.796-.005 5.577-.022 8.346.432 9.219 1.512 18.461 6.814 25.042 13.389 2.053 2.052 3.788 4.273 5.618 6.513.165-7.902.02-15.836.019-23.741 0-2.891-.285-7.42.151-10.093.183-1.116.725-2.187 1.481-3.026 1.243-1.38 3.113-2.085 4.947-2.14 2.544-.075 4.895 1.149 6.725 2.829-.017-1.233-.147-2.483-.059-3.714.126-1.782.947-3.505 2.333-4.653 1.563-1.295 3.716-1.62 5.685-1.389 2.583.304 3.979 1.67 5.512 3.613.555-2.054 1.311-3.65 3.223-4.796a6.945 6.945 0 0 1 5.353-.727c1.731.465 3.122 1.681 3.994 3.226 1.389 2.46.941 5.93.926 8.687 1.393-1.655 2.95-2.706 5.152-2.88 2.017-.159 4.045.443 5.552 1.82 1.641 1.5 2.297 3.4 2.35 5.566.11 4.462-.086 8.935.006 13.398 1.743-1.179 3.599-1.884 5.74-1.479 1.75.332 3.376 1.322 4.383 2.803a6.05 6.05 0 0 1 1.035 2.725c.228 1.86.092 3.824.08 5.699l-.088 9.908c-.017 1.506.212 3.313-.032 4.783.13.658.268 1.313.414 1.967.903-.88 1.981-1.612 2.938-2.439.79-.684 1.463-1.471 2.216-2.193.865-.672 3.091-3.694 3.778-4.543a61.696 61.696 0 0 0 13.128-45.982c-1.761-15.874-10.858-31.488-23.309-41.377a66.911 66.911 0 0 0-49.678-13.952c-12.506 1.433-23.895 6.8-33.248 15.19Z" fill="#F3F3F3"/><path d="M93.309 25.958c3.425-.466 6.23-.548 9.353 1.11a27.888 27.888 0 0 0-6.42.25c-.877-.454-1.914-.715-2.837-1.094l-.096-.266ZM80.612 50.046c-.201-4.484-.946-8.92.256-13.345.7-2.58 2.435-6.012 4.836-7.403 1.141-.021 5.017-.494 5.835-.102-4.516 2.862-6.716 7.116-7.877 12.236a61.878 61.878 0 0 0-.973 5.783c-.748.912-1.415 1.855-2.077 2.83ZM146.218 39.2c1.562.554 3.206 1.033 4.599 1.956-.77.589-1.299 1.24-1.85 2.032-.979-.505-1.961-1.001-2.947-1.49.071-.833.137-1.666.198-2.499Z" fill="#fff"/><path d="m139.334 48.375-.208.072a7.988 7.988 0 0 1-.554-.356c-1.94-1.387-5.913-5.53-6.283-7.89.625.26 2.615 3.822 3.222 4.573 1.072 1.326 2.559 2.282 3.729 3.497.033.033.063.07.094.104Z" fill="#4D261D"/><path d="M150.818 41.157c2.434 1.924 3.377 4.155 3.733 7.193.042.361.075.717.083 1.08-.397-.52-.623-1.255-.981-1.827-1.28-2.048-2.674-3.12-4.684-4.415.551-.792 1.08-1.442 1.849-2.03Z" fill="#fff"/><path d="m87.098 54.552-.125-.257c.222-.241 2.486-.614 3.052-.81 4.694-1.617 7.904-5.52 9.985-9.86l.125.187c-.245 1.546-2.1 3.99-3.123 5.16-2.442 2.792-6.111 5.34-9.914 5.58ZM108.276 44.24l.281-.102c.034.236.03.336-.011.583-2.21 3.676-3.767 6.73-8.185 8.109-.034-.092-.031-.216-.041-.314l.382-.246c3.895-1.335 5.78-4.596 7.574-8.03Z" fill="#4D261D"/><path d="M100.699 52.271c.174-.665.76-1.368 1.16-1.94 1.075-1.54 4.487-5.745 6.414-6.09-1.793 3.435-3.678 6.696-7.574 8.03Z" fill="#E9B49C"/><path d="M100.356 52.83c4.419-1.378 5.975-4.432 8.186-8.108 3.249 6.234 5.795 12.895 13.169 15.254 1.259.402 2.565.641 3.884.714-1.547-3.305-3.304-5.63-4.493-9.267 2.62 3.08 5.387 6.975 8.972 8.943 3.158 1.734 7.322 1.79 10.128 4.094 2.527 2.074 2.372 5.41 4.661 7.65.721-1.913 1.263-4.507 3.289-5.446.579-.269 1.156-.156 1.747-.297 1.888.122 3.673.591 4.976 2.069 1.27 1.439 1.752 3.493 1.581 5.375-.298 3.294-2.378 6.214-4.864 8.273-1.66 1.375-3.974 2.726-6.208 2.461-.607-.072-1.221-.242-1.814-.39-1.314 5.93-3.136 11.574-6.402 16.747-1.561 2.14-3.092 4.115-5.039 5.929l-.729.664c.188 4.91.066 8.931-3.47 12.735-2.718 2.924-6.557 4.524-10.525 4.641-3.069.091-5.666-.749-8.343-2.192-9.384-6.587-5.164-14.447-7.012-16.505-1.114-.483-4.208-4.348-5.115-5.422a48.641 48.641 0 0 1-7.282-16.535c-.857.185-1.78.309-2.657.247-3.462-.245-6.173-2.34-8.349-4.878-.826-1.7-1.378-3.257-1.635-5.133-.011-2.124.447-3.856 1.453-5.722.48-.551.974-1.092 1.479-1.622.455-.12.938-.45 1.394-.622 1.133-.428 2.544-.328 3.627.2 2.11 1.03 3.05 3.258 3.813 5.324 2.35-2.263 7.333-12.023 9.284-15.488.631-1.12 1.353-2.838 2.294-3.693Zm2.249 8.787c-2.415.199-4.53.863-6.145 2.8-.781.937-1.261 2.01-1.654 3.155 1.514-1.229 2.996-2.438 4.847-3.128 1.278-.41 2.603-.708 3.953-.535 1.346.174 3.617 1.778 4.781 1.009.174-.345.214-.6.1-.972-.233-.756-.994-1.143-1.663-1.458-1.294-.61-2.795-.88-4.219-.871Zm28.077.402c-1.336.177-3.5.468-4.424 1.553-.226.266-.285.638-.23.97.043.257.15.32.312.508 1.195.45 3.457-.844 4.793-.973 1.143-.11 2.165.11 3.246.44l.182.077c.956.405 2.506 1.743 3.527 1.511.133-.03.211-.094.318-.167.129-.385.104-.638-.088-1.004-.754-1.429-2.69-2.282-4.193-2.682-1.072-.285-2.343-.393-3.443-.233ZM82.237 72.195c.052.033.103.068.156.1.63.384 1.852.238 2.24.934-.142.305-.243.368-.493.587-.859.754-1.454 1.677-1.508 2.847-.046.963.35 1.854.998 2.552 1.234 1.33 3.054 1.85 4.82 1.876.227.003.42-.006.643-.05.095-.154.146-.247.195-.425-1.742.169-3.447.008-4.87-1.129-.749-.599-1.328-1.46-1.425-2.43-.093-.923.278-1.795.88-2.48.43-.487.951-.857 1.487-1.217-.736-.694-1.585-1.256-2.637-1.243-.17.001-.324.033-.486.078Zm66.369.635c1.01.392 1.823.743 2.321 1.784.36.752.311 1.614.015 2.379-.509 1.314-1.661 2.36-2.961 2.865-1.03.4-3.499.305-3.729.457l.11.187c2.041.141 3.85.094 5.486-1.334.954-.833 1.669-2.057 1.701-3.345.02-.787-.228-1.637-.804-2.197-.549-.532-1.256-.842-2.02-.805l-.119.008Zm-18.42 2.492a2.492 2.492 0 1 0 .403 4.968 2.492 2.492 0 0 0-.403-4.968Zm-25.824.156a2.442 2.442 0 1 0 1.792 4.543 2.442 2.442 0 0 0-1.792-4.543Zm10.642-.149c.137 1.801.459 3.538.22 5.35-.28 2.122-3.21 5.815-1.148 7.575 1.069.912 3.059.92 4.403.76 1.767-.212 3.526-.863 4.934-1.965-.131-.02-.26-.073-.392-.059-.295.03-1.01.525-1.312.67-1.807.864-3.861 1.25-5.851.953-.689-.103-1.437-.31-1.858-.912-.404-.578-.412-1.38-.242-2.04.163-.629.497-1.24.775-1.826.878-1.85 1.244-3.287 1.168-5.353-.037-.983-.072-1.995-.417-2.927l-.28-.226Zm-13.913 9.328c-1.527.22-2.926.731-3.861 2.037-.726 1.012-.958 2.281-.704 3.495A4.571 4.571 0 0 0 98.5 93.07c.963.633 2.064.854 3.199.9 1.404-.22 2.61-.588 3.518-1.769a4.431 4.431 0 0 0 .864-3.323c-.172-1.28-.863-2.515-1.905-3.286-.915-.678-1.96-.927-3.086-.935Zm32.641 0c-1.58.281-2.975.849-3.923 2.22a4.409 4.409 0 0 0-.715 3.428c.26 1.236 1.061 2.285 2.144 2.921.962.567 1.965.705 3.053.794 1.509-.265 2.803-.66 3.729-1.99.723-1.037.939-2.37.683-3.6a4.602 4.602 0 0 0-2.169-3.043c-.891-.526-1.794-.66-2.802-.73ZM109.295 95.21c.569 2.404 1.659 4.382 3.832 5.713 2.019 1.236 4.615 1.643 6.91 1.057a8.93 8.93 0 0 0 3.956-2.236c1.294-1.365 2.036-2.656 2.585-4.456-5.746-.122-11.537-.167-17.283-.078Zm-5.451 12.687c.967 1.49 5.931 4.33 7.719 4.644.173.031.351.027.525.029-1.608-.814-3.305-1.542-4.866-2.437-1.047-.6-2.335-1.84-3.378-2.236Zm26.229.726c-4.367 3.465-9.607 5.152-15.188 4.529-.491-.055-2.267-.501-2.619-.291.116.281.03.187.203.32 5.11 1.101 10.594.499 15.057-2.346.936-.6 1.814-1.285 2.625-2.045l-.078-.167Z" fill="#E9B49C"/><path d="M94.809 67.57c.392-1.144.872-2.217 1.653-3.154 1.615-1.938 3.731-2.601 6.145-2.8 1.425-.01 2.925.262 4.22.871.668.315 1.429.702 1.662 1.458.115.372.075.627-.1.972-1.163.769-3.435-.835-4.78-1.009-1.351-.174-2.676.125-3.954.535-1.85.69-3.332 1.9-4.846 3.127ZM134.374 64.518c-1.081-.33-2.103-.55-3.246-.44-1.335.129-3.598 1.422-4.793.973-.162-.188-.269-.252-.312-.509-.055-.331.004-.703.23-.97.924-1.085 3.088-1.375 4.424-1.552 1.101-.16 2.371-.052 3.443.233 1.503.4 3.439 1.253 4.193 2.682.193.365.217.619.088 1.004-.106.072-.185.136-.318.167-1.021.232-2.571-1.107-3.527-1.512l-.182-.076Z" fill="#4D261D"/><path d="M34.81 90.435c-.624.072-1.186.114-1.791-.098-1.718-.603-2.523-2.646-3.238-4.167-1.49-3.173-4.395-10.606-3.11-13.909.47-1.204 1.367-1.789 2.499-2.282.818-.029 1.611.015 2.361.378.592.286 1.123.779 1.378 1.391.734 1.761.522 4.44 1.117 6.433.43 1.44.955 2.905 1.63 4.25.533 1.065 1.246 2.118 1.645 3.24.346.968.366 2.078-.109 3.008-.49.96-1.389 1.457-2.382 1.756Z" fill="#fff"/><path d="M89.29 80.617c-.05.177-.1.27-.195.424a2.9 2.9 0 0 1-.645.05c-1.765-.025-3.584-.545-4.82-1.875-.647-.698-1.043-1.59-.997-2.552.055-1.17.65-2.093 1.509-2.847.25-.22.35-.282.492-.587-.388-.696-1.61-.55-2.24-.935-.053-.032-.104-.066-.156-.1.162-.044.317-.076.486-.078 1.052-.012 1.901.55 2.637 1.244-.535.36-1.057.73-1.486 1.217-.603.684-.973 1.557-.881 2.479.097.971.676 1.832 1.426 2.43 1.422 1.138 3.127 1.298 4.87 1.13ZM144.364 80.5l-.11-.186c.23-.151 2.699-.056 3.728-.457 1.3-.506 2.453-1.552 2.962-2.865.296-.764.344-1.627-.016-2.38-.498-1.04-1.311-1.391-2.321-1.783l.12-.009c.763-.036 1.47.273 2.019.805.577.56.824 1.41.805 2.197-.032 1.288-.748 2.512-1.702 3.344-1.636 1.429-3.444 1.476-5.485 1.335Z" fill="#1C0C0A"/><path d="M202.969 78.92c.555-2.054 1.311-3.65 3.223-4.796a6.944 6.944 0 0 1 5.352-.726c1.732.465 3.123 1.68 3.995 3.225 1.389 2.46.941 5.93.926 8.688.005.785.274 3.087-.294 3.607-.069.063-.192.135-.274.186-.561-4.039 1.269-10.094-1.649-13.342-1.147-1.276-2.768-1.97-4.477-2-1.69-.029-3.384.612-4.562 1.838-1.277 1.33-1.53 2.801-1.491 4.565-.427-.386-.558-.707-.749-1.244Z" fill="#4D261D"/><path d="M203.719 80.166c-.039-1.764.213-3.235 1.49-4.565 1.178-1.226 2.873-1.867 4.563-1.838 1.708.029 3.33.723 4.476 2 2.919 3.247 1.089 9.303 1.649 13.341-.128 3.94-.008 7.914-.005 11.858.082 10.742 2.024 21.063 1.938 31.805 2.169.007 2.591.096 4.72.321-1.464.484-3.031.661-4.527 1.037 2.298 8.615 4.278 17.359 6.294 26.046-3.006-.16-6.211-.3-9.21.004.003-2.034-.097-4.141.123-6.162-.602-.469-4.462-.215-5.402-.185.309-1.743.067-3.804.051-5.587l-.071-11.068-.081-36.995-.008-11.73c0-1.699.088-3.422.026-5.118-.015-.412-.105-.847-.33-1.196-.394.902-.276 65.299.037 70.949-.031.192.001.46-.182.565-.823.47-2.695.085-3.67.149l-.258-.117c-.294-.687 2.942-17.213 3.206-19.543.159-1.403.113-2.715-.857-3.848-.714-.835-1.627-1.128-2.691-1.203l-.884-.122c-.079-.082-.197-.14-.237-.247-.221-.595-.043-6.214-.045-7.272l-.04-27.476.031-8.353c.008-1.797.095-3.663-.106-5.45Z" fill="url(#a)"/><path d="M130.685 80.281a2.49 2.49 0 0 1-2.555-3.516 2.492 2.492 0 1 1 2.555 3.516Z" fill="#1C0C0A"/><path d="M189.5 85.064c-.017-1.233-.147-2.484-.06-3.714.127-1.782.948-3.506 2.333-4.653 1.564-1.295 3.716-1.62 5.686-1.389 2.583.303 3.978 1.67 5.511 3.613.192.537.323.858.75 1.244.201 1.787.114 3.654.106 5.45l-.031 8.354.04 27.476c.002 1.058-.176 6.677.045 7.272.039.107.158.164.237.247l.884.122c-5.125.099-10.252.118-15.377.057l-.124-44.08Zm6.323 1.373c-.354 1.787-.113 3.99-.112 5.832l.004 12.379.006 11.657c-.001 1.886-.178 3.975.079 5.839l.207.234c.387-1.583.122-4.577.121-6.313l-.006-14.168.008-9.84c.002-1.767.134-3.651-.06-5.402l-.247-.218Z" fill="#F37E60"/><path d="M106 80.074a2.443 2.443 0 1 1-1.482-4.654A2.443 2.443 0 0 1 106 80.074ZM123.411 87.05c-1.408 1.1-3.166 1.752-4.934 1.963-1.344.16-3.333.153-4.403-.76-2.062-1.76.868-5.452 1.148-7.573.24-1.813-.082-3.55-.219-5.35l.279.225c.346.932.381 1.944.417 2.927.076 2.065-.29 3.504-1.167 5.353-.278.586-.612 1.197-.775 1.827-.171.658-.162 1.461.241 2.038.422.603 1.169.81 1.858.913 1.991.297 4.045-.089 5.851-.954.303-.144 1.018-.638 1.313-.669.131-.014.261.04.391.06Z" fill="#1C0C0A"/><path d="M176.166 121.234c.165-7.901.02-15.836.019-23.74 0-2.892-.285-7.42.151-10.093.183-1.117.725-2.188 1.481-3.027 1.243-1.38 3.113-2.085 4.947-2.14 2.544-.075 4.895 1.15 6.725 2.83l.124 44.078a578.56 578.56 0 0 0-8.538.003c-.76-1.242-1.421-2.547-2.184-3.791-.859-1.402-1.835-2.736-2.725-4.12Z" fill="#E99E87"/><path d="M209.447 153.081c-.313-5.649-.431-70.047-.037-70.95.225.35.315.785.33 1.197.062 1.696-.026 3.42-.026 5.119l.009 11.729.08 36.995.071 11.068c.016 1.783.258 3.844-.051 5.587-.262-.24-.271-.417-.376-.745Z" fill="#4D261D"/><path d="M216.464 85.31c1.392-1.655 2.949-2.706 5.151-2.88 2.018-.159 4.045.443 5.553 1.82 1.64 1.5 2.296 3.399 2.349 5.566.111 4.462-.085 8.935.006 13.398 1.743-1.179 3.599-1.884 5.74-1.479 1.75.332 3.376 1.322 4.383 2.802a6.07 6.07 0 0 1 1.036 2.726c.227 1.86.092 3.823.079 5.699l-.087 9.908c-.018 1.506.211 3.313-.033 4.783-1.102-1.919-2.305 8.232-2.305 8.232v-16.501l-2.567-1.638s.239 1.771-1.257 2.678c-.717.434-.678 3.119-.678 3.119l1.429 9.644-1.429 5.41s-2.367 20.503-2.713 21.158c-.444-.766-3.611 3.862-4.205 3.255-4.322 3.249-3.783-1.492-3.783-1.492-.903.394-3.135-1.356-3.135-1.356l-2.17-.407s-1.856-48.053-1.938-58.794c-.003-3.945-.123-7.917.005-11.858.082-.05.206-.123.275-.186.567-.52.299-2.821.294-3.607Zm6.348 5.47c-.309 1.589-.181 34.9.026 35.645l.193.176c.288-1.776.102-3.86.102-5.666l-.013-11.366-.003-11.962c.004-2.145.157-4.415-.044-6.545-.081-.093-.162-.208-.261-.282Z" fill="#D4D4D4"/><path d="M101.695 93.97c-1.134-.046-2.235-.267-3.198-.9a4.572 4.572 0 0 1-1.976-2.881c-.254-1.213-.021-2.483.704-3.495.936-1.306 2.334-1.818 3.861-2.037 1.127.008 2.171.257 3.087.935 1.041.771 1.732 2.007 1.905 3.286a4.432 4.432 0 0 1-.865 3.323c-.908 1.181-2.114 1.55-3.518 1.768ZM134.299 94.02c-1.087-.09-2.091-.227-3.053-.793-1.082-.637-1.883-1.686-2.144-2.922a4.413 4.413 0 0 1 .715-3.429c.948-1.37 2.344-1.938 3.923-2.219 1.008.07 1.911.204 2.802.73a4.602 4.602 0 0 1 2.169 3.043c.256 1.23.04 2.563-.683 3.6-.926 1.33-2.22 1.725-3.729 1.99Z" fill="#E99E87"/><path d="m196.002 122.378-.207-.234c-.257-1.864-.08-3.953-.079-5.838l-.006-11.658-.004-12.378c-.001-1.842-.242-4.046.112-5.832l.247.217c.194 1.75.062 3.635.06 5.402l-.008 9.84.006 14.168c.001 1.736.266 4.73-.121 6.313ZM223.025 126.603l-.193-.176c-.207-.745-.335-34.056-.027-35.645.1.074.181.189.262.282.2 2.13.048 4.4.044 6.545l.003 11.962.013 11.366c0 1.806.186 3.89-.102 5.666Z" fill="#1C0C0A"/><path d="M123.992 99.743a8.933 8.933 0 0 1-3.956 2.236c-2.296.585-4.892.178-6.911-1.058-2.173-1.33-3.262-3.309-3.832-5.712 5.746-.09 11.537-.044 17.284.078-.55 1.8-1.291 3.09-2.585 4.456Z" fill="#fff"/><path d="M15.34 117.906c-1.908-3.984-4.268-10.376-2.799-14.765.56-1.671 1.662-3.059 3.263-3.83 3.143-1.514 7.38-.484 10.475.659 2.274.84 4.449 1.905 6.58 3.056 5.08 2.742 9.991 5.958 14.908 8.989 2.158 1.33 4.895 2.69 6.85 4.236.401.316.739.709.935 1.185.08.193.085.375.084.58-.86 1.752-8.742 7.553-10.775 9.324-2.572 1.689-4.868 3.971-7.312 5.861l-6.105 5.093c-.918.759-1.898 1.714-2.947 2.283-.335.182-.55.25-.922.123-2.052-.701-9.1-15.886-10.474-18.669-.201-1.304-1.185-2.919-1.761-4.125Z" fill="#E99E87"/><path d="M64.805 113.142c8.587-7.908 20.552-12.105 32.13-12.391.906 1.074 4.001 4.939 5.114 5.422-.298.829-.206 1.867-.211 2.741-.016 2.94.092 5.586 1.368 8.291 1.11 2.354 2.944 4.48 5.164 5.852 2.953 2.073 6.607 2.793 10.162 2.509 3.956-.316 7.889-2.247 10.439-5.303 3.313-3.969 3.587-8.483 3.158-13.433 1.946-1.814 3.477-3.789 5.038-5.929 2.796-.005 5.576-.023 8.346.431 9.219 1.512 18.461 6.815 25.042 13.39 2.053 2.051 3.788 4.272 5.618 6.512.89 1.384 1.866 2.718 2.725 4.12.763 1.244 1.423 2.549 2.184 3.791l-28.719.073c-1.945.008-9.412-.156-10.607.235-.102.033-.165.135-.248.203l-.027.11c-3.688.296-7.486.13-11.186.133l-18.631.014c-2.682-.002-7.071-.303-9.593.046-.779.108-1.514.538-2.04 1.118a3.538 3.538 0 0 0-.836 1.728c-.356 2.024-.308 4.27-.415 6.324a807.722 807.722 0 0 0-.604 12.03l-.722 13.387c-.132 2.371-.348 4.778-.353 7.152-6.15-.033-12.3-.021-18.449.034.566-2.879 1.456-5.702 2.173-8.547 1.153-4.577 2.207-9.188 3.486-13.732.384-1.366 2.587-7.397 2.566-8.122-.162-.28-.149-.298-.452-.402-.81.651-1.576 4.417-2.078 5.632l-.085.203c-.316-6.71-2.152-13.149-6.538-18.378-4.42-5.271-11.203-9.171-18.115-9.763.71-.686 1.333-1.519 1.998-2.254 1.019-1.127 2.097-2.181 3.198-3.227Z" fill="#6683C2"/><path d="M108.37 123.057c-2.22-1.372-4.054-3.498-5.165-5.852-1.276-2.705-1.383-5.351-1.367-8.291.005-.874-.088-1.912.21-2.741 1.849 2.058-2.37 9.918 7.013 16.505l-.565.026c-.159.244-.134.122-.126.353Z" fill="#4B68A7"/><path d="m131.407 107.495.729-.664c.429 4.949.155 9.464-3.158 13.432-2.55 3.056-6.483 4.988-10.439 5.304-3.555.284-7.209-.436-10.162-2.509-.008-.231-.032-.109.126-.354l.565-.025c2.677 1.442 5.275 2.283 8.344 2.192 3.967-.117 7.807-1.718 10.524-4.641 3.537-3.805 3.659-7.826 3.471-12.735Z" fill="#4B68A7"/><path d="M112.092 112.571c-.175-.002-.352.002-.525-.029-1.788-.314-6.752-3.154-7.719-4.644 1.043.396 2.331 1.636 3.378 2.236 1.561.895 3.258 1.623 4.866 2.437Z" fill="#E99E87"/><path d="M112.469 113.18c-.173-.134-.088-.04-.203-.321.351-.21 2.128.236 2.619.291 5.581.623 10.821-1.064 15.188-4.529l.078.167a18.146 18.146 0 0 1-2.625 2.045c-4.463 2.845-9.947 3.448-15.057 2.347Z" fill="#E99F88"/><path d="M15.337 117.903c.576 1.207 1.56 2.822 1.762 4.125-.944 1.926-1.671 4.002-2.523 5.976l-6.844 15.983c2.106 4.574 3.965 9.269 5.986 13.882 2.776 6.34 5.712 12.684 8.214 19.133-.966.362-2.133.178-3.16.44-3.156-6.995-6.091-14.122-9.085-21.189-1.724-4.069-3.598-8.089-5.218-12.199.331-1.868 1.875-4.751 2.64-6.597l8.228-19.554Z" fill="#7F4A43"/><path d="m59.164 119.089.444-.467c6.912.592 13.694 4.492 18.115 9.763 4.386 5.229 6.223 11.668 6.538 18.377l.085-.202c.502-1.215 1.267-4.981 2.078-5.632.303.104.29.122.452.402.02.724-2.182 6.756-2.566 8.122-1.279 4.544-2.333 9.155-3.486 13.732-.716 2.845-1.607 5.668-2.173 8.547l-.84.115.034-.79c.586-1.884 1.014-3.82 1.601-5.709l.014-.033c.85-2.558 1.298-5.281 1.963-7.895.643-2.528 1.55-5.096 1.966-7.668.782-4.855-.829-11.628-3.017-15.982-3.064-6.099-8.842-10.932-15.275-13.14-1.911-.656-3.93-.863-5.818-1.5l-.115-.04Z" fill="#4B68A7"/><path d="M41.29 152.855c4.437-11.901 10.096-23.678 17.876-33.765l.114.04c1.889.637 3.907.844 5.82 1.501 6.431 2.207 12.21 7.04 15.274 13.139 2.188 4.354 3.8 11.127 3.016 15.983-.415 2.571-1.323 5.139-1.966 7.668-.664 2.614-1.112 5.336-1.963 7.894l-.013.033c-1.082-.288-2.29-.372-3.4-.548-2.005-.317-4-.689-5.984-1.115-7.365-1.628-14.789-3.743-21.623-6.981-2.45-1.161-4.781-2.54-7.152-3.849Z" fill="#6683C2"/><path d="M37.555 133.2c2.444-1.889 4.74-4.171 7.312-5.86.717.977 1.075 2.261.867 3.468-.219 1.264-1.044 2.369-2.113 3.055a4.627 4.627 0 0 1-3.708.603c-.918-.232-1.631-.678-2.358-1.266Z" fill="#E9B49C"/><path d="m141.482 129.765.028-.109c.082-.068.146-.17.247-.204 1.196-.39 8.662-.227 10.607-.235l28.719-.072c2.846-.023 5.692-.024 8.538-.003 5.126.061 10.253.042 15.378-.057 1.063.075 1.977.368 2.691 1.202.97 1.134 1.016 2.445.857 3.849-.264 2.33-3.5 18.856-3.207 19.543l.259.116-.159.246.056.142c-.25.092-.317.049-.434.306-.537 1.178-1.675 8.972-2.035 10.938-1.45 7.75-2.95 15.49-4.5 23.22-.317 1.614-.364 3.005-1.349 4.369-.197.273-.662.776-.536 1.135.361 1.036 1.107 1.492.701 2.737-.268.821-.877 1.531-1.524 2.083l22.873-.007 22.898-.026c3.296.001 7.164-.26 7.164-.26h3.255s1.221.19 1.628.246c2.128-.025 4.62-.424 6.284 1.18 1.687 1.627 1.154 6.546 1.145 8.844-.255-.047-.505-.111-.756-.171-.442-.775-.13-2.754-.097-3.659.053-1.442.18-3.412-.924-4.519-.703-.705-1.703-.81-2.647-.842-4.097-.137-8.238-.012-12.338-.009l-23.789.01-73.218.006-88.306-.04-34.158.034c-7.342 0-14.703-.118-22.043.033-.281.163-.577.328-.82.547-1.834 1.654-.895 6.171-1.086 8.509L.87 209l-.658-.185c-.125-.34-.124-.652-.135-1.01-.07-2.28-.426-6.269 1.314-7.995 1.412-1.401 7.004-.864 9.043-.877 3.072-.106 6.174-.026 9.25-.026l17.2.012c3.203.001 6.46.122 9.652-.074l.92-.033c1.34.155 2.815.051 4.17.05l8.08-.011 24.947.055a9.42 9.42 0 0 1-.525-.418c-.815-.715-1.5-1.556-1.547-2.682-.03-.704.28-1.33.779-1.816a2.237 2.237 0 0 1 1.198-.614c1.35-.253 2.87-.122 4.241-.116 2.341.021 4.682.019 7.023-.008 1.457-.009 2.927-.059 4.383.005.308.06.6.107.913.139.247.025.331.069.524.214-.509.342-1.428.325-2.044.541-.796.44-1.932 1.06-2.236 1.975-.142.424-.108.814.121 1.194.366.607.993 1.003 1.564 1.397 3.649.488 7.888.16 11.604.163l22.823.01 39.087.034c6.869.01 13.923.226 20.772-.02.754-.027 1.368-.181 1.987-.628.609-.44 1.116-1.088 1.24-1.844a2.02 2.02 0 0 0-.362-1.564 2.014 2.014 0 0 0-.991-.712c.054-.3.168-.533.296-.807.392-.17.781-.333 1.091-.637.363-.356.474-.774.592-1.253.503-2.041.824-4.165 1.222-6.231.802-4.082 1.583-8.167 2.344-12.257 1.619-8.601 3.391-17.166 4.855-25.796l1.381-8.11c.324-1.795.854-3.745.887-5.568.021-1.162-.097-2.058-.959-2.903-.592-.58-1.12-.673-1.919-.745-2.379-.215-4.892-.064-7.285-.062l-13.414.006-42.816-.028Zm-56.454 64.354c-.55.095-1.13.217-1.489.691-.32.422-.285 1.081-.144 1.566.261.889.98 1.5 1.791 1.89 2.138 1.028 9.596.59 12.41.579l.087-.11c-.554-.715-1.286-1.476-1.128-2.446.145-.889.935-1.614 1.544-2.224-4.35.011-8.724-.076-13.071.054Z" fill="url(#b)"/><path d="M97.097 171.698c.005-2.374.222-4.781.353-7.151l.722-13.388c.172-4.011.373-8.021.604-12.029.107-2.055.06-4.301.416-6.324.11-.628.406-1.255.835-1.728.526-.581 1.262-1.011 2.041-1.119 2.521-.349 6.91-.048 9.592-.046l18.631-.014c3.7-.003 7.498.163 11.186-.133l42.816.028 13.414-.006c2.392-.002 4.905-.153 7.285.061.799.073 1.327.166 1.919.746.861.845.98 1.741.959 2.903-.033 1.823-.563 3.772-.888 5.568l-1.38 8.11c-1.465 8.63-3.236 17.195-4.856 25.796-.76 4.089-1.541 8.175-2.343 12.257-.399 2.066-.72 4.19-1.222 6.231-.118.479-.23.897-.592 1.253-.31.304-.7.467-1.091.637-1.193-.149-2.494-.067-3.698-.071l-6.799-.017-22.749-.031-40.933-.021c-7.017.001-14.111-.22-21.12.048-1.455-.064-2.925-.014-4.382-.005-.065-2.926.263-5.97.444-8.892.262-4.218.458-8.454.837-12.663Zm52.54-16.474a5.31 5.31 0 1 0 1.375 10.533 5.312 5.312 0 0 0-1.375-10.533Z" fill="#ECECEC"/><path d="M47.462 198.814c-.842-.565-2.18-.861-3.145-1.255-3.316-1.356-6.294-3.949-8.155-7.006-4.605-7.566-2.805-15.42-.131-23.262a491.078 491.078 0 0 1 3.103-8.707c.686-1.838 1.673-3.675 2.13-5.582l.032-.146c2.371 1.31 4.703 2.689 7.152 3.849 6.834 3.238 14.258 5.354 21.623 6.981 1.984.427 3.98.799 5.984 1.116 1.11.175 2.318.259 3.4.548-.588 1.889-1.015 3.824-1.601 5.709-1.734.143-15.883 1.312-16.816 1.796-.09.047-.136.151-.204.227.026.2-.013.307.162.439.311.236.694.242 1.07.231 1.61-.048 3.258-.393 4.867-.55 3.219-.312 6.877-.365 9.994-1.063.312-.07.605-.145.892-.29l.841-.116c6.15-.055 12.3-.066 18.45-.034-.38 4.209-.576 8.446-.837 12.663-.181 2.923-.51 5.966-.444 8.892-2.341.027-4.682.029-7.024.008-1.371-.006-2.891-.137-4.24.116-.47.089-.856.279-1.199.614-.499.486-.809 1.112-.779 1.816.048 1.126.733 1.967 1.548 2.682.168.148.345.282.524.418l-24.947-.055-8.08.011c-1.355.001-2.83.105-4.17-.05Z" fill="#E9B49C"/><path d="M209.448 153.081c.105.328.114.505.377.745.939-.03 4.8-.284 5.402.185-.88.495-8.256.185-9.733.171l-.056-.141.158-.247c.975-.063 2.847.322 3.67-.148.183-.105.151-.373.182-.565Z" fill="#1C0C0A"/><path d="M205.498 154.185c1.477.014 8.854.323 9.733-.171-.221 2.021-.121 4.128-.123 6.161-1.125.913-1.876 1.915-1.997 3.406-.082 1.003.178 2.175.847 2.951.102.117.211.228.322.337.584 5.888 1.488 11.783 2.318 17.641.682 4.813 1.276 9.666 2.096 14.455l-22.874.008c.648-.552 1.257-1.262 1.524-2.083.406-1.245-.339-1.701-.701-2.737-.125-.359.339-.862.537-1.135.984-1.365 1.032-2.756 1.349-4.369 1.55-7.73 3.05-15.47 4.5-23.22.36-1.966 1.498-9.76 2.035-10.938.117-.257.184-.214.434-.306ZM151.012 165.757a5.312 5.312 0 1 1-1.523-10.515 5.312 5.312 0 0 1 1.523 10.515Z" fill="#fff"/><path d="M77.813 171.847c-.287.145-.58.221-.892.291-3.117.697-6.776.75-9.994 1.063-1.61.156-3.258.501-4.867.549-.376.011-.759.005-1.07-.23-.175-.133-.136-.24-.162-.44.068-.076.113-.18.204-.227.933-.484 15.082-1.653 16.816-1.796l-.035.79ZM21.938 177.004c.026.03.048.064.079.09.37.309 2.359.576 2.977.778 4.28 1.397 6.183 6.589 6.925 10.576.641 3.453.617 6.897.622 10.39 4.643-.011 9.36-.2 13.995.009-3.193.196-6.449.074-9.651.073l-17.202-.011c-3.075 0-6.177-.081-9.25.026-.016-5.269-.165-10.882 2.093-15.775 1.375-2.978 3.185-4.584 6.251-5.716 1.027-.262 2.194-.078 3.16-.44Z" fill="#E99E87"/><path d="M100.197 193.259c7.009-.267 14.103-.047 21.12-.048l40.932.022 22.75.031 6.798.016c1.205.004 2.505-.077 3.698.072-.128.274-.242.506-.295.806-1.276.114-2.624.029-3.907.025l-7.441-.026-22.993-.033-41.242-.02c-6.665.004-13.367.205-20.027.05.616-.216 1.535-.2 2.044-.542-.193-.145-.277-.189-.524-.214a10.057 10.057 0 0 1-.913-.139Z" fill="#5D4130"/><path d="M97.592 198.847c-2.812.011-10.271.449-12.409-.579-.811-.39-1.53-1.001-1.79-1.89-.142-.485-.176-1.144.144-1.566.359-.474.938-.596 1.488-.691 4.347-.13 8.72-.043 13.071-.054-.609.61-1.399 1.335-1.544 2.224-.158.97.574 1.731 1.128 2.446l-.088.11Z" fill="#ECECEC"/><path d="M195.211 194.157c.405.144.736.367.99.713.339.462.457 1 .363 1.564-.124.756-.631 1.404-1.24 1.844-.619.447-1.233.6-1.987.627-6.849.246-13.903.031-20.772.021l-39.087-.035-22.823-.009c-3.716-.003-7.955.325-11.604-.163-.57-.394-1.198-.79-1.564-1.397-.229-.38-.263-.77-.121-1.194.304-.915 1.44-1.535 2.236-1.975 6.659.156 13.362-.046 20.026-.049l41.243.019 22.993.034 7.441.025c1.283.005 2.63.09 3.906-.025Z" fill="#ECECEC"/><path d="m.866 209 .014-.153c.19-2.338-.749-6.855 1.085-8.509.243-.219.539-.384.82-.547 7.34-.151 14.701-.033 22.043-.033l34.158-.033 88.306.039 73.218-.006 23.789-.01c4.1-.003 8.241-.128 12.338.009.945.032 1.944.137 2.647.842 1.104 1.107.977 3.077.924 4.519-.033.905-.345 2.884.097 3.659.251.06.502.124.756.172l-188.101.021-51.944-.039-13.967-.012c-1.953.001-4.269-.241-6.183.081Z" fill="#D4987C"/><path d="M240.555 116.296c-.927-.143-2.621-.041-3.632-.04-1.22.001-2.748-.085-3.933.019a1.209 1.209 0 0 0-.626.214 1.064 1.064 0 0 0-.415.727c-.121 1.211-.017 2.764-.016 4.021l.001 8.327v2.676c.65-.069 1.337-.033 1.991-.032a293.04 293.04 0 0 1 3.751.021c.811.007 1.643.046 2.45-.024-.502-.029-1.015-.009-1.518-.01v-15.894c.648.005 1.299.022 1.947-.005Zm-6.138 5.754c.228.131.364.259.518.471.023.836.069 1.705-.005 2.538-.168.226-.313.415-.612.445-.09.009-.183.005-.274.002-.23-.133-.373-.245-.447-.509-.162-.568-.192-2.149.095-2.653a.597.597 0 0 1 .311-.277c.133-.046.277-.031.414-.017Z" fill="#89A2D8"/><path d="m241.405 116.969-.024-.04c-.209-.336-.434-.541-.822-.631-.648.026-1.299.01-1.947.004v15.895c.503.001 1.016-.019 1.518.01l1.292-.013-.007-2.134v-8.911c.001-1.391.029-2.789-.01-4.18Z" fill="#6683C2"/><path d="M224.234 124.57c-.619-1.67-1.267-3.675-2.003-5.267-.123 1.799-.217 3.611-.408 5.404l.025.083c.237.139 1.984-.186 2.386-.22Z" fill="#554148"/><path d="M234.937 122.52a1.52 1.52 0 0 0-.518-.471c-.137-.014-.28-.029-.414.017a.605.605 0 0 0-.311.277c-.287.504-.256 2.085-.095 2.654.075.263.218.376.448.509.09.002.183.006.273-.003.299-.029.444-.218.612-.445.075-.832.028-1.702.005-2.538Z" fill="#FEFEFE"/><path d="M224.237 124.569c-.403.034-2.15.359-2.387.221l-.025-.083c-.117.403-.066 1.171-.096 1.619-.086 1.276-.176 2.571-.355 3.838-.06.908-.184 1.805-.26 2.71.711-.059 1.429-.182 2.136-.277a94.578 94.578 0 0 1 4.145-.488c-.11.001-.241.016-.342-.033-.214-.105-.885-2.165-.993-2.464-.549-1.698-1.183-3.377-1.823-5.043Z" fill="#E9B49C"/><path d="M206.031 130.899c-.353-.939-.667-1.97-1.108-2.869-.255-.521-.517-.757-1.056-.945-.299-.023-.574-.031-.867.048-.411.11-.749.324-.953.707-.156.297-.22.634-.183.968.086.858.812 2.326 1.098 3.228.183-.14.374-.27.561-.404.785-.464 1.613-.632 2.508-.733ZM263.325 134.265c.176-.744.47-1.627.33-2.396a1.601 1.601 0 0 0-.736-1.064c-.409-.259-.926-.363-1.398-.237-.946.252-1.374 1.438-1.81 2.221.162.222 3.198 1.452 3.539 1.479.025.002.05-.002.075-.003ZM209.981 133.271c-.801-1.052-1.83-1.745-3.16-1.925-1.18-.16-2.492.191-3.438.916-.996.763-1.697 1.958-1.847 3.206-.115.953.063 1.817.405 2.704-.406.161-.814.341-1.005.767-.235.526.038 1.08.239 1.567.313.83.81 2.511 1.226 3.212a.89.89 0 0 0 .38.364c.168.08.348.095.531.112.515-.132 1.015-.398 1.496-.621 1.04-.484 2.102-1.048 3.193-1.399l.281-.134c1.577-.648 3.14-1.332 4.72-1.972.304-.136.607-.277.915-.403 1.502 3.865 3.06 7.73 4.457 11.633l-.888.351-.063.056c.161.633.473 1.468.789 2.041l1.102-.398c.229.686.512 1.903 1.071 2.384a.653.653 0 0 0 .525.172c.234-.035.498-.228.629-.42.087-.126.082-.2.047-.347-.195-.835-.607-1.696-.913-2.502l-2.118-5.502-3.108-8.218c-.495-1.308-.936-2.683-1.504-3.957-.111-.25-.31-.51-.555-.643-.668-.363-1.952.353-2.63.579-.18-.591-.449-1.101-.777-1.623Z" fill="#554148"/><path d="M242.399 134.209c-.03-.53.156-1.333-.231-1.754-.187-.205-.482-.248-.745-.264l-1.291.013c-.808.07-1.64.031-2.45.024-1.25-.015-2.501-.022-3.751-.021-.654-.001-1.341-.037-1.992.032-.275.105-.512.207-.641.49-.186.407-.084.995-.084 1.432l6.122.006c1.071.001 2.21-.067 3.274.037.595-.019 1.193-.001 1.789.005Z" fill="#91AEEE"/><path d="M227.393 132.11c-1.383.123-2.769.305-4.145.488-.707.095-1.425.218-2.136.277-.136.054-.207.055-.28.185-.002.594.103 1.197.177 1.786.149 1.18.33 2.366.425 3.551l4.088-.515c.864-.104 1.751-.169 2.607-.325-.357-1.784-.48-3.644-.736-5.447Z" fill="#554148"/><path d="m259.702 132.787-.1-.059c-.445.182-2.152 2.466-2.707 3.001-.464.533-1.516 1.539-1.776 2.131.191.029.309.051.431.218.314.433.395.97.738 1.413l.047.061a.915.915 0 0 0 .029.036c1.299.636 2.408-.323 3.189.535.401.57.828 1.232 1.569 1.367.609.112 1.169-.155 1.703-.411l.096-.05c.165-.068.295-.106.47-.042.336.123.512.548.649.849.198-.726-.117-2.373-.115-3.23-.159-1.015-.163-2.087-.228-3.113-.02-.309.004-.784-.094-1.065-.043-.123-.176-.129-.287-.165-.025.001-.05.005-.075.003-.34-.027-3.377-1.257-3.539-1.479Z" fill="#E9B49C"/><path d="m242.393 134.819.005-.607c-.595-.005-1.193-.024-1.788-.004-1.448.091-2.941.019-4.393.014-1.662-.005-3.351.047-5.01-.031.016.196-.002.518.113.678 1.532.07 3.092.012 4.627.007.526-.155 5.472-.055 6.446-.057Z" fill="#FEFEFE"/><path d="M241.98 145.326c.236-.049.49-.13.683-.279.266-.205.321-.512.35-.828.05-.538.019-1.098.017-1.638l-.007-2.772c-.002-1.384.096-2.809.016-4.186-.011-.192-.02-.386-.147-.54a1.574 1.574 0 0 0-.629-.192c-.648-.075-1.353-.021-2.007-.019-1.435.011-2.87.011-4.305 0-1.536.005-3.096.063-4.628-.007-.244-.012-.488-.005-.679.169-.272.247-.192.881-.193 1.23l-.003 5.41c0 .928-.098 1.967.07 2.876a.804.804 0 0 0 .22.421c.193.207.457.293.73.336.494-.05 2.706-.113 3.077.025.752.109 1.644.02 2.41.018l5.025-.024Z" fill="#6683C2"/><path d="M228.134 137.559c-.857.156-1.743.22-2.607.325l-4.088.514c.05.814.18 1.635.278 2.444l.676 5.316c.558 4.481 1.06 8.958 1.754 13.421l3.354-.001c-.207-.896-.268-1.898-.392-2.812l-.937-7.383-.927-6.857c-.154-1.13-.473-2.71-.426-3.815.101.186.167.419.195.63l2.623 20.239c1.212-.014 2.424-.017 3.636-.009l-.003-.913c-.444-.793-.752-4.148-.908-5.224-.49-3.202-.955-6.409-1.395-9.618-.28-2.087-.473-4.181-.833-6.257Z" fill="#E9B49C"/><path d="m256.371 139.587-.029-.036-.046-.061c-.343-.443-.424-.98-.738-1.413-.122-.168-.24-.189-.432-.219-.223.189-.381.343-.523.605-.361.663-.637 1.391-.937 2.083l-1.884 4.464a208.2 208.2 0 0 0-2.197 5.313c-.353.877-3.273 11.727-3.553 12.63.646.454.513.201 1.137.682.651-1.151 4.517-12.238 5.025-13.522l3.07-7.705c.191-.485.884-2.51 1.107-2.821Z" fill="#F37E60"/><path d="m227.633 159.579-2.624-20.239a1.893 1.893 0 0 0-.194-.63c-.048 1.105.272 2.685.426 3.815l.927 6.857.937 7.383c.124.914.185 1.916.391 2.812l.137.002Z" fill="#E99E87"/><path d="M259.559 140.122c-.782-.858-1.891.1-3.19-.535.005.187-.045.336-.106.51-.331.953-.728 1.891-1.097 2.829a465.324 465.324 0 0 1-2.18 5.452c-.818 2.03-4.21 12.139-5.138 14.12.916.775 2.276-.556 3.184.227.233-.397 2.665-6.87 2.833-7.302.444-1.14.873-2.286 1.289-3.437l3.174-8.504.804-2.228c.134-.372.232-.788.427-1.132Z" fill="#F37E60"/><path d="M256.371 139.587c-.224.311-.917 2.336-1.108 2.821l-3.069 7.705c-.508 1.284-3.245 9.187-3.895 10.339l.455-.228c.927-1.98 3.416-9.816 4.234-11.846.738-1.813 1.465-3.63 2.18-5.452.369-.938.766-1.876 1.097-2.829.061-.174.111-.323.106-.51Z" fill="#9B4337"/><path d="M212.997 140.063c-1.58.641-3.143 1.324-4.72 1.972.396.79.675 1.671.991 2.498l1.781 4.646c.953 2.41 1.877 4.831 2.77 7.264.375 1.009.885 2.077 1.124 3.125 1.804.03 3.612.002 5.416-.002-.336-.614-.541-1.406-.778-2.069a258.972 258.972 0 0 0-1.375-3.756c-.315-.572-.627-1.408-.788-2.041l.062-.055c-.226-.204-3.961-10.272-4.483-11.582ZM262.828 141.078c-.533.256-1.093.523-1.703.412-.741-.136-1.168-.798-1.568-1.368-.058.784-.655 2.072-.946 2.868l-2.285 6.123-2.009 5.39c-.295.768-2.481 6.348-2.837 7.086l2.729 2.046c.231-.403 2.336-5.567 2.498-6.006l1.157-3.175 2.83-7.696c.684-1.888 1.304-3.856 2.134-5.68Z" fill="#F37E60"/><path d="M259.559 140.122c-.195.344-.293.76-.427 1.133l-.804 2.227-3.174 8.505a151.09 151.09 0 0 1-1.289 3.437c-.168.431-1.918 5.086-2.151 5.483l.455-.682c.355-.738 1.855-4.954 2.15-5.722l2.009-5.39 2.285-6.123c.291-.796.888-2.084.946-2.868Z" fill="#9B4337"/><path d="M262.924 141.029c-.121.553-.425 1.118-.627 1.652a332.08 332.08 0 0 0-1.291 3.494 672.001 672.001 0 0 1-2.894 7.856c-.612 1.679-1.842 5.232-2.538 6.877.195.184.912-.596 1.137-.455.933-.001 1.119.053 2.047 0-.322-.025.278-.91-.045-.916.719-2.38 1.535-4.734 2.307-7.098l3.195-9.906-.172-.696c-.137-.302-.313-.726-.649-.85-.175-.064-.305-.026-.47.042Z" fill="#F37E60"/><path d="M255.348 161.362c.696-1.644 2.273-5.456 2.765-7.331a672.059 672.059 0 0 0 2.895-7.856c.424-1.167.854-2.332 1.29-3.494.203-.534.507-1.099.628-1.652l-.096.05c-.83 1.824-1.451 3.792-2.134 5.68l-2.83 7.696-1.158 3.175c-.161.439-1.811 4.239-2.043 4.642l.683-.91Z" fill="#9B4337"/><path d="M214.945 159.573c-.239-1.049-.749-2.117-1.124-3.126a309.043 309.043 0 0 0-2.77-7.264l-1.78-4.646c-.316-.827-.595-1.708-.992-2.498l-.281.134c1.5 4.42 3.268 8.734 4.889 13.109.345.927.696 1.853 1.052 2.776.184.483.432 1.011.537 1.515h.469Z" fill="#FEFEFE"/><path d="M208.003 142.17c-1.092.351-2.153.916-3.193 1.399-.481.224-.981.489-1.496.621 1.51 4.414 3.36 8.713 4.91 13.112.223.63.775 1.646.857 2.259 1.799.016 3.6.019 5.399.009-.105-.504-.353-1.032-.537-1.515-.356-.924-.706-1.849-1.052-2.776-1.621-4.375-3.389-8.689-4.888-13.109Z" fill="#F37E60"/><path d="M234.543 145.334c-.371-.137-2.583-.074-3.077-.024l.01.024c.991.119 2.033.057 3.031.053l.036-.053Z" fill="#4364B4"/><path d="m241.98 145.328-5.024.024c-.767.002-1.658.091-2.41-.018l-.036.052c-.085 1.852-.042 3.725-.069 5.579-.042 2.868-.124 5.744-.078 8.611l7.77-.006-.214-.058c-.154-.324.045-12.667.061-14.184Zm-2.428 7.063c.321.139.692.318.839.66.241.56.133 5.544.123 6.479l-1.69-.001-.879-.003-.012-4.045c-.002-.687-.082-1.47.048-2.144.042-.214.144-.411.294-.57.232-.242.605-.396.94-.395.113 0 .225.009.337.019Z" fill="#89A2D8"/><path d="M234.512 145.387c-.999.004-2.041.066-3.032-.053-.078 4.438-.216 8.885-.208 13.324l.003.912c1.029.024 2.061.007 3.09.007-.046-2.868.036-5.743.078-8.611.027-1.855-.016-3.727.069-5.579Z" fill="#6683C2"/><path d="M240.51 159.531c.01-.935.118-5.919-.123-6.48-.147-.342-.518-.52-.839-.66-.112-.009-.224-.019-.336-.019-.336 0-.708.153-.941.396a1.15 1.15 0 0 0-.294.57c-.13.674-.05 1.457-.048 2.144l.012 4.045.879.003 1.69.001Z" fill="#ECECEC"/><path d="M227.768 160.613c.688-.004 3.075-.117 3.604.04l.376.027c.557-.055 1.164-.013 1.725-.012 1.482 0 2.986.053 4.466-.024.459-.114 2.074-.059 2.567.024.437.01.876.028 1.313.016-.017 3.122-.017 6.245.001 9.367.002 1.713-.085 3.462.02 5.169.229-.535.397-1.114.583-1.666.473-1.398.898-2.812 1.355-4.214.945-2.897 1.996-5.77 2.891-8.681l4.177-.014c2.664-.042 5.362-.079 8.025-.006l-1.924 5.176a400.355 400.355 0 0 0-5.318 16.017c-.4 1.235-.787 2.474-1.162 3.716-.325 1.08-.622 2.176-1.014 3.233-1.857-2.995-3.822-5.942-5.758-8.888-.486-.741-.964-1.49-1.457-2.227-.273-.408-.582-.805-.834-1.227l-2.68-4.032c-.453-.68-.879-1.451-1.415-2.063-.231-.263-.558-.566-.911-.642-.339-.073-.749.031-1.033.22-.255.171-.457.438-.509.745-.036.212-.004.406.082.601.351.799.977 1.566 1.466 2.293.814 1.21 1.575 2.453 2.381 3.669.489.738 1.226 1.702 1.614 2.463 1.646 2.397 3.19 4.883 4.773 7.323l2.028 3.14c.398.617.825 1.23 1.178 1.873-.859 2.45-1.691 4.91-2.495 7.379 1.07.063 2.169.013 3.243.011l6.061-.021c.144-.861.235-1.738.356-2.603l.781-5.529 2.475-17.48 1.232-8.69c.186-1.302.594-3.323.556-4.562a.64.64 0 0 0-.271-.483c-.299-.22-7.172-.118-7.988-.118l-30.126.052-9.09.005c-1.521-.001-3.332-.111-4.815.055-.143.092-.262.189-.327.352-.113.286-.061.648-.025.945a566.41 566.41 0 0 0 1.29 9.532 2070.44 2070.44 0 0 0 2.949 21.043c.222 1.545.451 3.094.652 4.642.085.661.167 2.241.402 2.777.166.082.367.055.549.05.009-1.627.093-3.251.105-4.878.006-.746-.105-2.566.03-3.182.408-.159 2.354-2.608 2.722-3.13.302-.427.539-.891.838-1.317l.027-.037c.222-.481.456-.937.782-1.357.401.385.667.892.952 1.365.131.229.249.468.434.658l.144.02c-1.016-2.87-2.17-5.683-3.267-8.522a1307.16 1307.16 0 0 1-4.789-12.529c-.733-1.92-1.535-3.833-2.214-5.771l3.346-.004c.652-.001 1.323.025 1.972-.034.689 1.592 1.247 3.26 1.863 4.883l3.906 10.419a1949.7 1949.7 0 0 1 8.683 23.415l.501.004c-1.301-3.372-2.479-6.795-3.731-10.186l-6.795-18.154-2.6-6.935c-.43-1.137-.827-2.294-1.307-3.411l5.415-.001c.537 1.335.998 2.711 1.501 4.059l3.765 10.018a.528.528 0 0 0 .05-.298c-.082-1.42-.374-2.881-.567-4.293a678.192 678.192 0 0 1-1.29-9.538c1.135-.013 2.273-.056 3.408-.034l.097-.003Z" fill="#EAEAEA"/><path d="M258.867 160.641c-2.662-.072-5.36-.036-8.024.006.656.634 1.403 1.191 2.104 1.776a212.281 212.281 0 0 1 3.996 3.394l1.924-5.176Z" fill="#554148"/><path d="M240.508 160.668c-.493-.082-2.109-.137-2.568-.024l-.002 7.02c0 .836-.099 2.309.044 3.057.056.291.217.598.418.816.249.27.576.407.942.411.326.003.636-.088.865-.331.174-.185.251-.394.285-.643.15-1.098.049-2.332.049-3.445a523.06 523.06 0 0 0-.033-6.861Z" fill="#ECECEC"/><path d="M231.371 160.654c-.529-.156-2.916-.044-3.604-.039.179.89.249 1.821.368 2.722l.67 4.906 2.274 16.976c.227 1.727.463 3.452.709 5.175.138 1.024.206 2.104.479 3.1l.01.038c1.024-.113 2.047-.263 3.07-.388.077-.726-.138-1.635-.236-2.361-.213-1.581-.474-3.167-.614-4.756-.314-1.843-.477-3.737-.706-5.594l-1.23-9.962-.8-6.466c-.138-1.106-.337-2.24-.39-3.351Z" fill="#E9B49C"/><path d="m227.764 160.612-.097.003c-.061.529.13 1.242.205 1.778l.515 3.691 2.474 18.563c.308 2.095.599 4.191.874 6.29.092.676.379 2.032.301 2.621l.237-.028a.421.421 0 0 0-.01-.038c-.273-.996-.341-2.076-.478-3.1a476.261 476.261 0 0 1-.709-5.175l-2.274-16.977-.671-4.905c-.119-.902-.189-1.832-.367-2.723Z" fill="#E99E87"/><path d="M227.669 160.616c-1.136-.023-2.274.021-3.409.034.408 3.182.838 6.361 1.29 9.538.193 1.411.485 2.872.567 4.293a.53.53 0 0 1-.05.298c.49 1.517.647 3.87.864 5.527.198 1.521 1.706 13.27 2.002 13.669 1.024-.205 2.067-.31 3.104-.417.079-.589-.209-1.945-.301-2.621a414.966 414.966 0 0 0-.873-6.289l-2.474-18.564-.515-3.691c-.075-.536-.266-1.249-.205-1.777Z" fill="#E9B49C"/><path d="m250.845 160.645-4.177.014c-.895 2.911-1.946 5.784-2.891 8.68-.458 1.403-.883 2.817-1.355 4.215-.187.551-.354 1.131-.583 1.666-.133.411-.278.817-.436 1.219.251.421.56.819.834 1.227.493.737.97 1.485 1.457 2.226 1.936 2.947 3.9 5.893 5.758 8.889.391-1.058.688-2.153 1.013-3.233.375-1.243.763-2.481 1.162-3.716a404.17 404.17 0 0 1 5.318-16.018 212.281 212.281 0 0 0-3.996-3.394c-.701-.585-1.448-1.142-2.104-1.775Zm2.876 7.53c.432.17.783.391.969.836.114.273.103.488.053.775-.14.82-.515 1.648-.769 2.441-.291.91-.513 1.91-.9 2.778-.157.353-.389.629-.759.774-.286.112-.552.102-.852.065-.402-.162-.726-.361-.914-.769-.076-.168-.144-.391-.135-.578.044-.905.661-2.36.954-3.239.233-.703.433-1.439.711-2.124.164-.402.355-.697.774-.867.279-.114.572-.116.868-.092Z" fill="#F37E60"/><path d="M241.823 160.685c-.437.012-.876-.006-1.313-.017.027 2.287.038 4.574.033 6.861 0 1.114.101 2.347-.049 3.445-.034.249-.111.458-.285.643-.229.243-.539.334-.865.331a1.262 1.262 0 0 1-.942-.411 1.752 1.752 0 0 1-.418-.816c-.143-.748-.043-2.221-.044-3.057l.002-7.019c-1.479.077-2.984.024-4.465.023-.562 0-1.168-.043-1.726.013.385.164 1.996.044 2.479.035-.145 6.938-.052 13.88.28 20.811.029.703.282 4.16-.008 4.499.14 1.589.401 3.175.614 4.756.099.726.313 1.635.236 2.361a28.975 28.975 0 0 1-.096 2.339c-.045.538-.133 1.086-.157 1.623.377-.623.543-1.578.746-2.283l.9-3.086a937.425 937.425 0 0 1 3.657-12.042c-.387-.761-1.124-1.726-1.614-2.464-.805-1.215-1.566-2.458-2.38-3.668-.49-.728-1.115-1.494-1.466-2.293a1.019 1.019 0 0 1-.082-.601 1.15 1.15 0 0 1 .509-.745c.284-.189.694-.293 1.032-.22.354.076.681.379.912.642.536.612.962 1.383 1.415 2.063l2.68 4.032c.158-.401.304-.808.436-1.219-.105-1.707-.018-3.456-.02-5.169a835.635 835.635 0 0 1-.001-9.367Z" fill="#89A2D8"/><path d="m231.752 160.682-.376-.028c.053 1.111.253 2.245.39 3.351l.801 6.466 1.23 9.962c.229 1.858.391 3.751.706 5.594.29-.339.037-3.796.007-4.499a302.141 302.141 0 0 1-.279-20.811c-.483.008-2.094.129-2.479-.035Z" fill="#6683C2"/><path d="M219.817 187.53c.676 1.531 1.968 2.624 3.02 3.879l.088.046c.112.914.005 1.965 0 2.89-.003.714.083 2.196-.038 2.841.361.664.575 1.494.831 2.209.683.058 1.392.022 2.078.018l3.52-.026a1926.425 1926.425 0 0 0-8.682-23.415l-3.906-10.419c-.616-1.623-1.174-3.291-1.863-4.883-.649.059-1.321.033-1.972.034l-3.346.004c.678 1.938 1.48 3.851 2.214 5.771 1.575 4.184 3.171 8.361 4.789 12.528 1.097 2.84 2.251 5.653 3.267 8.523ZM226.07 174.78l-3.765-10.018c-.503-1.348-.964-2.724-1.501-4.059h-5.415c.48 1.118.877 2.275 1.307 3.412l2.6 6.935 6.795 18.154c1.252 3.391 2.43 6.813 3.731 10.185.445.003.89.003 1.334-.003-1.058-1.451-1.805-3.659-2.22-5.41-.296-.399-1.804-12.148-2.003-13.669-.216-1.657-.373-4.01-.863-5.527Z" fill="#F37E60"/><path d="M251.461 175.844c.3.037.566.047.853-.065.369-.145.601-.421.758-.774.388-.868.609-1.868.901-2.778.254-.793.628-1.62.769-2.441.049-.287.061-.502-.054-.775-.186-.445-.536-.666-.969-.836-.296-.024-.588-.022-.867.092-.419.17-.611.466-.774.868-.279.685-.478 1.421-.712 2.123-.292.879-.91 2.334-.954 3.24-.009.186.059.409.136.577.187.408.511.607.913.769Zm1.972-7.405c.371.056.718.158.956.471.209.276.211.52.157.846-.142.846-.522 1.689-.786 2.507-.278.865-.486 1.837-.879 2.651a1.15 1.15 0 0 1-.37.434c-.22.161-.476.207-.741.247-.399-.12-.76-.281-.967-.666-.074-.139-.137-.3-.12-.461.067-.629.368-1.325.565-1.927l.98-2.995c.126-.374.243-.781.616-.978.182-.096.386-.121.589-.129Z" fill="#554148"/><path d="M251.772 175.596c.265-.04.521-.086.741-.247.16-.117.285-.255.371-.434.392-.814.6-1.786.879-2.651.263-.818.644-1.661.785-2.507.055-.326.053-.57-.157-.845-.238-.313-.584-.416-.956-.472-.203.008-.406.033-.589.129-.373.197-.49.604-.616.978l-.98 2.995c-.197.602-.498 1.298-.564 1.927-.017.161.045.322.12.461.206.385.567.546.966.666ZM248.371 192.029c-.353-.643-.78-1.256-1.178-1.873l-2.028-3.14c-1.583-2.44-3.127-4.925-4.773-7.323a937.47 937.47 0 0 0-3.658 12.042l-.9 3.087c-.203.704-.369 1.66-.745 2.283-.227.755-.408 1.522-.638 2.278l7.717.014 2.379-.005c.433-.001.899-.03 1.329.016a347.589 347.589 0 0 1 2.495-7.379Z" fill="#F37E60"/><path d="M219.234 186.852c-.285-.474-.55-.98-.952-1.366-.325.42-.559.877-.782 1.357.577.042 1.157.045 1.734.009Z" fill="#554148"/><path d="m219.819 187.528-.144-.021c-.184-.19-.303-.429-.434-.657-.578.035-1.157.032-1.734-.009l-.027.038c-.299.425-.536.89-.838 1.316-.368.522-2.314 2.971-2.722 3.13l.045.011c.96.267 1.59 1.232 2.548 1.48 1.38.356 2.825-.858 4.102-1.224.726-.208 1.477-.192 2.225-.186-1.053-1.255-2.345-2.348-3.021-3.878Z" fill="#E9B49C"/><path d="M222.838 191.404c-.748-.006-1.498-.021-2.225.187-1.277.366-2.722 1.579-4.101 1.223-.959-.247-1.589-1.212-2.549-1.479l-.045-.012c-.135.617-.023 2.437-.029 3.183-.012 1.627-.097 3.251-.106 4.877 1.002-.042 2.02-.008 3.023-.009l6.087.007-.005-2.199c.12-.645.034-2.127.038-2.841.005-.925.111-1.977 0-2.89l-.088-.047Z" fill="#F37E60"/><path d="M223.727 199.394c-.256-.716-.471-1.545-.832-2.209l.005 2.199c.275.012.552.008.827.01Z" fill="#FEFEFE"/><path d="M188.127 199.752c.643.047 2.245.101 2.813-.04.097-.133.075-.179.07-.34-.624-.007-2.294-.133-2.8.046-.091.131-.079.178-.083.334Z" fill="#554148"/><defs><linearGradient id="a" x1="199.68" y1="115.362" x2="228.511" y2="118.669" gradientUnits="userSpaceOnUse"><stop stop-color="#FDE8E5"/><stop offset="1" stop-color="#FBFDF7"/></linearGradient><linearGradient id="b" x1="137.274" y1="123.645" x2="129.388" y2="219.222" gradientUnits="userSpaceOnUse"><stop stop-color="#3D2318"/><stop offset="1" stop-color="#4F3C3C"/></linearGradient></defs></svg>