<svg width="49" height="37" fill="none" xmlns="http://www.w3.org/2000/svg"><path d="M47.31 0H1.69C.758 0 0 .754 0 1.682v33.636C0 36.246.758 37 1.69 37h45.62c.932 0 1.69-.754 1.69-1.682V1.682C49 .754 48.242 0 47.31 0Zm-3.379 1.682h2.535a.847.847 0 0 1 .844.84v2.523a.84.84 0 0 1-.844.841H43.93a.847.847 0 0 1-.845-.84V2.522a.84.84 0 0 1 .845-.841Zm0 5.886h2.535a.847.847 0 0 1 .845.841v2.523a.84.84 0 0 1-.845.84H43.93a.847.847 0 0 1-.845-.84V8.409a.839.839 0 0 1 .845-.84Zm0 5.886h2.535c.224 0 .439.09.597.247a.839.839 0 0 1 .248.594v2.523a.84.84 0 0 1-.845.841H43.93a.847.847 0 0 1-.845-.84v-2.524a.847.847 0 0 1 .845-.84Zm0 5.887h2.535a.847.847 0 0 1 .845.84v2.523a.84.84 0 0 1-.845.841h-2.535a.847.847 0 0 1-.845-.84v-2.523a.84.84 0 0 1 .845-.841Zm0 5.886h2.535a.847.847 0 0 1 .845.841v2.523a.84.84 0 0 1-.845.84h-2.535a.847.847 0 0 1-.845-.84v-2.523a.84.84 0 0 1 .845-.84ZM5.069 35.318H2.535a.847.847 0 0 1-.845-.84v-2.524a.84.84 0 0 1 .845-.84h2.534a.847.847 0 0 1 .845.84v2.523a.84.84 0 0 1-.845.841Zm0-5.886H2.535a.847.847 0 0 1-.845-.841v-2.523a.839.839 0 0 1 .845-.84h2.534a.847.847 0 0 1 .845.84v2.523a.84.84 0 0 1-.845.84Zm0-5.886H2.535a.847.847 0 0 1-.845-.841v-2.523a.839.839 0 0 1 .845-.841h2.534a.847.847 0 0 1 .845.84v2.523a.84.84 0 0 1-.845.841Zm0-5.887H2.535a.847.847 0 0 1-.845-.84v-2.524a.84.84 0 0 1 .845-.84h2.534a.847.847 0 0 1 .845.84v2.523a.84.84 0 0 1-.845.841Zm0-5.886H2.535a.847.847 0 0 1-.845-.841V8.409a.839.839 0 0 1 .845-.84h2.534a.847.847 0 0 1 .845.84v2.523a.84.84 0 0 1-.845.84Zm0-5.887H2.535a.847.847 0 0 1-.845-.84V2.522a.838.838 0 0 1 .521-.777.848.848 0 0 1 .324-.064h2.534a.848.848 0 0 1 .78.519.838.838 0 0 1 .065.322v2.523a.839.839 0 0 1-.845.84Zm38.017 28.591v-2.522a.84.84 0 0 1 .845-.841h2.535a.84.84 0 0 1 .845.84v2.523a.84.84 0 0 1-.844.841H43.93a.848.848 0 0 1-.78-.519.84.84 0 0 1-.065-.322Z" fill="#7FCBB4"/><path d="M8.448 1.682h32.104a.847.847 0 0 1 .845.84v31.955a.839.839 0 0 1-.845.841H8.448a.847.847 0 0 1-.844-.84V2.522a.839.839 0 0 1 .844-.841Z" fill="#F37E60"/><path d="m33.177 17.491-13.688-7.258c-.787-.418-1.748.136-1.748 1.009v14.516c0 .873.96 1.427 1.748 1.009l13.688-7.258a1.134 1.134 0 0 0 0-2.018Z" fill="#fff"/><path d="M20.86 20.18v-9.22l-1.37-.727c-.788-.418-1.749.136-1.749 1.009v14.516c0 .873.96 1.427 1.748 1.01l13.688-7.26c.412-.218.617-.615.615-1.012l-10.906 3.153c-1.01.293-2.025-.444-2.025-1.469Z" fill="#E4EAF8"/></svg>