<svg width="65" height="50" fill="none" xmlns="http://www.w3.org/2000/svg"><path d="M62.759 0H2.24C1.006 0 0 1.02 0 2.273v45.454C0 48.981 1.006 50 2.241 50H62.76C63.994 50 65 48.98 65 47.727V2.273C65 1.019 63.994 0 62.759 0Zm-4.483 2.273h3.362c.297 0 .582.12.792.333.21.213.329.502.329.803v3.41c0 .3-.118.59-.328.803-.21.213-.496.333-.793.333h-3.362c-.297 0-.583-.12-.793-.333a1.144 1.144 0 0 1-.328-.804V3.41c0-.301.118-.59.328-.803.21-.213.496-.333.793-.333Zm0 7.954h3.362c.297 0 .582.12.793.333.21.213.328.502.328.803v3.41c0 .301-.118.59-.328.803-.21.213-.495.333-.793.333h-3.362c-.297 0-.582-.12-.793-.333a1.145 1.145 0 0 1-.328-.803v-3.41c0-.3.118-.59.328-.803.21-.213.496-.333.793-.333Zm0 7.955h3.362c.297 0 .583.12.793.333.21.213.328.502.328.803v3.41c0 .3-.118.59-.328.803-.21.213-.495.333-.793.333h-3.362c-.297 0-.583-.12-.793-.333a1.144 1.144 0 0 1-.328-.804v-3.409c0-.301.118-.59.328-.803.21-.213.496-.333.793-.333Zm0 7.954h3.362c.298 0 .583.12.793.333.21.213.328.502.328.804v3.409c0 .301-.118.59-.328.803-.21.213-.495.333-.792.333h-3.363c-.297 0-.583-.12-.793-.333a1.144 1.144 0 0 1-.328-.803v-3.41c0-.3.118-.59.328-.803.21-.213.496-.333.793-.333Zm0 7.955h3.363c.297 0 .582.12.792.333.21.213.328.502.328.803v3.41c0 .3-.117.59-.328.803-.21.213-.495.333-.792.333h-3.363c-.297 0-.583-.12-.793-.333a1.144 1.144 0 0 1-.328-.803v-3.41c0-.301.118-.59.328-.803.21-.213.496-.333.793-.333ZM6.724 47.727H3.362c-.297 0-.582-.12-.792-.333a1.144 1.144 0 0 1-.329-.803v-3.41c0-.3.118-.59.329-.803.21-.213.495-.333.792-.333h3.362c.297 0 .582.12.793.333.21.213.328.502.328.804v3.409c0 .301-.118.59-.328.803-.21.214-.496.333-.793.333Zm0-7.954H3.362c-.297 0-.582-.12-.792-.333a1.145 1.145 0 0 1-.329-.803v-3.41c0-.301.118-.59.329-.803.21-.213.495-.333.792-.333h3.362c.297 0 .582.12.793.333.21.213.328.502.328.803v3.41c0 .3-.118.59-.328.803-.21.213-.496.333-.793.333Zm0-7.955H3.362c-.297 0-.582-.12-.792-.333a1.144 1.144 0 0 1-.329-.803v-3.41c0-.3.118-.59.329-.803.21-.213.495-.333.792-.333h3.362c.297 0 .582.12.793.333.21.213.328.502.328.804v3.409c0 .301-.118.59-.328.803-.21.213-.496.333-.793.333Zm0-7.954H3.362c-.297 0-.582-.12-.792-.333a1.145 1.145 0 0 1-.329-.804v-3.409c0-.301.118-.59.329-.803.21-.214.495-.333.792-.333h3.362c.297 0 .582.12.793.333.21.213.328.502.328.803v3.41c0 .3-.118.59-.328.803-.21.213-.496.333-.793.333Zm0-7.955H3.362c-.297 0-.582-.12-.792-.333a1.144 1.144 0 0 1-.329-.803v-3.41c0-.3.118-.59.329-.803.21-.213.495-.333.792-.333h3.362c.297 0 .582.12.793.333.21.213.328.502.328.803v3.41c0 .301-.118.59-.328.803-.21.213-.496.333-.793.333Zm0-7.954H3.362c-.297 0-.582-.12-.792-.333a1.145 1.145 0 0 1-.329-.804V3.41a1.15 1.15 0 0 1 .329-.803 1.12 1.12 0 0 1 .792-.333h3.362a1.107 1.107 0 0 1 .793.333 1.138 1.138 0 0 1 .328.803v3.41c0 .3-.118.59-.328.803-.21.213-.496.333-.793.333ZM57.155 46.59v-3.41c0-.3.118-.59.328-.803.21-.213.496-.333.793-.333h3.363c.297 0 .582.12.792.333.21.213.329.502.329.804v3.409c0 .301-.118.59-.328.803-.21.213-.496.333-.793.333h-3.363a1.108 1.108 0 0 1-.793-.333 1.137 1.137 0 0 1-.328-.803Z" fill="#6683C2"/><path d="M11.207 2.273h42.586c.297 0 .582.12.792.333.21.213.329.502.329.803v43.182c0 .301-.119.59-.329.804-.21.213-.495.332-.792.332H11.207c-.298 0-.583-.12-.793-.332a1.145 1.145 0 0 1-.328-.804V3.41c0-.301.118-.59.328-.803.21-.213.495-.333.793-.333Z" fill="#EA5D70"/><path d="m44.01 23.637-18.156-9.809c-1.045-.564-2.32.185-2.32 1.364v19.617c0 1.178 1.275 1.928 2.32 1.363l18.156-9.808a1.546 1.546 0 0 0 0-2.727Z" fill="#fff"/><path d="M27.673 27.271v-12.46l-1.82-.983c-1.044-.564-2.318.185-2.318 1.364v19.617c0 1.179 1.274 1.928 2.319 1.363l18.156-9.808c.547-.296.819-.833.817-1.37L30.36 29.256c-1.34.395-2.687-.6-2.687-1.985Z" fill="#E4EAF8"/></svg>