<svg viewBox="0 0 158 76" fill="none" xmlns="http://www.w3.org/2000/svg"><circle cx="90.746" cy="48.978" r="18.06" fill="#fff"/><path d="M114.444 48.943a1.587 1.587 0 0 1 0-1.406l2.023-4.14a4.71 4.71 0 0 0-2.032-6.255l-4.071-2.16a1.59 1.59 0 0 1-.826-1.137l-.796-4.539a4.71 4.71 0 0 0-5.321-3.866l-4.563.646a1.588 1.588 0 0 1-1.336-.435l-3.312-3.204a4.71 4.71 0 0 0-6.577 0l-3.312 3.205a1.591 1.591 0 0 1-1.337.434l-4.563-.645a4.71 4.71 0 0 0-5.32 3.866l-.797 4.538a1.59 1.59 0 0 1-.826 1.137l-4.07 2.16a4.71 4.71 0 0 0-2.033 6.255l2.024 4.14a1.59 1.59 0 0 1 0 1.406l-2.024 4.14a4.71 4.71 0 0 0 2.033 6.255l4.07 2.16a1.591 1.591 0 0 1 .826 1.137l.796 4.539a4.708 4.708 0 0 0 5.322 3.865l4.562-.645a1.589 1.589 0 0 1 1.337.434l3.312 3.204a4.715 4.715 0 0 0 3.288 1.338 4.716 4.716 0 0 0 3.289-1.338l3.312-3.203a1.592 1.592 0 0 1 1.336-.435l4.563.645a4.71 4.71 0 0 0 5.321-3.865l.796-4.54a1.602 1.602 0 0 1 .826-1.136l4.071-2.16a4.71 4.71 0 0 0 2.032-6.255l-2.023-4.14ZM84.662 34.157a5.744 5.744 0 0 1 5.738 5.738 5.744 5.744 0 0 1-5.738 5.737 5.744 5.744 0 0 1-5.737-5.737 5.744 5.744 0 0 1 5.737-5.738Zm-2.961 25.516a1.56 1.56 0 0 1-1.107.459 1.565 1.565 0 0 1-1.106-2.671l20.654-20.654a1.565 1.565 0 0 1 2.213 2.212L81.701 59.673Zm15.48 2.65a5.744 5.744 0 0 1-5.738-5.738 5.744 5.744 0 0 1 5.737-5.737 5.744 5.744 0 0 1 5.738 5.737 5.744 5.744 0 0 1-5.738 5.738Z" fill="#F37E60"/><path d="M97.18 53.978a2.61 2.61 0 0 0-2.607 2.608 2.61 2.61 0 0 0 2.608 2.608 2.61 2.61 0 0 0 2.608-2.608 2.61 2.61 0 0 0-2.608-2.608Zm-12.517-16.69a2.61 2.61 0 0 0-2.608 2.607 2.61 2.61 0 0 0 2.608 2.608 2.611 2.611 0 0 0 2.608-2.608 2.611 2.611 0 0 0-2.608-2.608Z" fill="#F37E60"/><circle cx="136.381" cy="20.611" r="11.364" transform="rotate(15 136.381 20.611)" fill="#fff"/><path d="M150.954 24.373a1.007 1.007 0 0 1 .232-.868l1.934-2.22a3.01 3.01 0 0 0-.22-4.197l-2.155-2.006a1.01 1.01 0 0 1-.322-.838l.259-2.933a3.01 3.01 0 0 0-2.645-3.266l-2.922-.356a1.018 1.018 0 0 1-.753-.49l-1.514-2.524a3.01 3.01 0 0 0-4.06-1.088l-2.574 1.43a1.011 1.011 0 0 1-.896.047l-2.71-1.153a3.01 3.01 0 0 0-3.923 1.506l-1.242 2.67a1.013 1.013 0 0 1-.698.565l-2.869.66a3.01 3.01 0 0 0-2.289 3.524l.565 2.89a1.01 1.01 0 0 1-.233.867l-1.934 2.22a3.011 3.011 0 0 0 .22 4.197l2.156 2.006a1.02 1.02 0 0 1 .321.839l-.259 2.933a3.008 3.008 0 0 0 2.645 3.265l2.922.357a1.019 1.019 0 0 1 .754.489l1.514 2.525a3.011 3.011 0 0 0 4.059 1.087l2.574-1.43c.277-.154.604-.17.897-.046l2.709 1.153a3.01 3.01 0 0 0 3.923-1.507l1.242-2.669a1.013 1.013 0 0 1 .698-.565l2.869-.66a3.01 3.01 0 0 0 2.289-3.524l-.564-2.89Zm-15.935-14.05a3.67 3.67 0 0 1 2.592 4.49 3.67 3.67 0 0 1-4.49 2.592 3.67 3.67 0 0 1-2.592-4.49 3.67 3.67 0 0 1 4.49-2.592Zm-6.048 15.258a.995.995 0 0 1-1.365-.366.999.999 0 0 1 .365-1.366l16.163-9.331a1 1 0 0 1 1 1.731l-16.163 9.332Zm9.116 4.195a3.67 3.67 0 0 1-2.593-4.49 3.67 3.67 0 0 1 4.49-2.592 3.669 3.669 0 0 1 2.592 4.49 3.67 3.67 0 0 1-4.489 2.592Z" fill="#F37E60"/><path d="M139.466 24.62a1.668 1.668 0 0 0-2.041 1.18 1.668 1.668 0 0 0 1.178 2.04 1.668 1.668 0 0 0 2.041-1.178 1.668 1.668 0 0 0-1.178-2.041ZM134.5 12.25a1.669 1.669 0 0 0-2.041 1.178 1.667 1.667 0 1 0 2.041-1.178Z" fill="#F37E60"/><circle cx="37.159" cy="39.242" r="8.936" transform="rotate(-15 37.159 39.242)" fill="#fff"/><path d="M48.737 36.098a.806.806 0 0 1-.184-.687l.447-2.29a2.385 2.385 0 0 0-1.814-2.792l-2.273-.523a.804.804 0 0 1-.554-.448l-.984-2.115a2.385 2.385 0 0 0-3.108-1.194l-2.147.914a.804.804 0 0 1-.71-.038l-2.04-1.132a2.385 2.385 0 0 0-3.216.861l-1.2 2.002a.805.805 0 0 1-.597.387l-2.316.282a2.385 2.385 0 0 0-2.096 2.588l.206 2.324a.806.806 0 0 1-.255.664l-1.708 1.59a2.385 2.385 0 0 0-.174 3.325l1.532 1.76a.806.806 0 0 1 .184.687l-.447 2.29a2.385 2.385 0 0 0 1.814 2.793l2.273.522a.804.804 0 0 1 .553.448l.985 2.115a2.383 2.383 0 0 0 3.108 1.194l2.147-.914a.805.805 0 0 1 .71.038l2.04 1.132a2.387 2.387 0 0 0 3.216-.861l1.2-2.001a.806.806 0 0 1 .597-.388l2.316-.282a2.385 2.385 0 0 0 2.095-2.588l-.205-2.324a.805.805 0 0 1 .255-.664l1.708-1.59a2.385 2.385 0 0 0 .174-3.325l-1.532-1.76ZM32.235 32.77a2.908 2.908 0 0 1 3.558 2.054 2.908 2.908 0 0 1-2.054 3.558 2.908 2.908 0 0 1-3.558-2.054 2.908 2.908 0 0 1 2.054-3.558Zm1.895 12.866a.79.79 0 0 1-1.082.29.792.792 0 0 1-.29-1.082l7.394-12.806a.792.792 0 1 1 1.373.792L34.13 45.636Zm7.918-.732a2.908 2.908 0 0 1-3.558-2.054 2.908 2.908 0 0 1 2.054-3.558 2.908 2.908 0 0 1 3.558 2.054 2.908 2.908 0 0 1-2.054 3.558Z" fill="#F37E60"/><path d="M40.951 40.821a1.322 1.322 0 0 0-.933 1.617 1.322 1.322 0 0 0 1.617.934 1.322 1.322 0 0 0 .934-1.617 1.322 1.322 0 0 0-1.618-.934Zm-8.309-6.522a1.322 1.322 0 0 0-.933 1.617 1.322 1.322 0 0 0 1.617.934 1.322 1.322 0 0 0 .934-1.617 1.322 1.322 0 0 0-1.617-.934Z" fill="#F37E60"/><circle cx="6.6" cy="52.048" r="4.028" transform="rotate(7.062 6.6 52.048)" fill="#fff"/><path d="M11.967 52.695a.363.363 0 0 1 .04-.318l.574-.881c.32-.49.195-1.138-.284-1.474l-.862-.603a.363.363 0 0 1-.155-.281l-.053-1.05a1.075 1.075 0 0 0-1.097-1.026l-1.052.019a.364.364 0 0 1-.29-.136l-.66-.82a1.075 1.075 0 0 0-1.49-.184l-.84.633a.362.362 0 0 1-.315.061l-1.016-.274a1.075 1.075 0 0 0-1.313.726l-.308 1.006a.363.363 0 0 1-.22.234l-.982.375a1.075 1.075 0 0 0-.636 1.36l.342.995a.363.363 0 0 1-.039.318l-.575.881c-.32.49-.194 1.138.285 1.474l.862.604a.364.364 0 0 1 .155.28l.053 1.05a1.074 1.074 0 0 0 1.097 1.026l1.051-.018a.363.363 0 0 1 .291.136l.66.818a1.076 1.076 0 0 0 1.49.185l.84-.633a.363.363 0 0 1 .315-.06l1.016.273a1.075 1.075 0 0 0 1.313-.726l.308-1.006a.364.364 0 0 1 .219-.234l.983-.375c.547-.209.826-.806.636-1.36l-.343-.995Zm-6.33-4.185a1.311 1.311 0 0 1 1.138 1.461 1.311 1.311 0 0 1-1.46 1.139 1.311 1.311 0 0 1-1.14-1.461 1.311 1.311 0 0 1 1.461-1.139Zm-1.388 5.697a.356.356 0 0 1-.5-.062.357.357 0 0 1 .061-.501l5.258-4.1a.357.357 0 0 1 .44.564l-5.259 4.1Zm3.432 1.035a1.311 1.311 0 0 1-1.138-1.461 1.311 1.311 0 0 1 1.46-1.139 1.311 1.311 0 0 1 1.14 1.461 1.311 1.311 0 0 1-1.462 1.139Z" fill="#F37E60"/><path d="M7.917 53.35a.596.596 0 1 0-.145 1.183.596.596 0 0 0 .145-1.183ZM5.55 49.218a.596.596 0 1 0-.145 1.183.596.596 0 0 0 .145-1.183Z" fill="#F37E60"/></svg>