<svg width="23" height="42" viewBox="0 0 23 42" fill="none" xmlns="http://www.w3.org/2000/svg">
<path d="M21 40.8635C21 41.4158 21.4477 41.8635 22 41.8635C22.5523 41.8635 23 41.4158 23 40.8635H22H21ZM12 7.36704L11.9996 6.36704L12 7.36704ZM0.292947 6.65636C-0.097607 7.04686 -0.0976552 7.68002 0.292839 8.07058L6.65632 14.435C7.04681 14.8256 7.67998 14.8256 8.07053 14.4351C8.46108 14.0446 8.46113 13.4115 8.07064 13.0209L2.41421 7.36363L8.0715 1.70721C8.46205 1.31671 8.4621 0.683549 8.07161 0.292995C7.68111 -0.0975585 7.04795 -0.0976067 6.65739 0.292888L0.292947 6.65636ZM22 40.8635H23V20.8635H22H21V40.8635H22ZM22 20.8635H23C23 18.2955 22.6197 14.7328 21.0737 11.7757C20.294 10.2842 19.2044 8.92192 17.6961 7.93458C16.1816 6.94318 14.2997 6.36609 11.9996 6.36704L12 7.36704L12.0004 8.36704C13.9503 8.36624 15.4434 8.85033 16.6007 9.60794C17.7643 10.3696 18.6435 11.4441 19.3013 12.7023C20.6303 15.2443 21 18.4316 21 20.8635H22ZM12 7.36704L11.9996 6.36704C7.00114 6.36911 3.00253 6.36368 1.00008 6.36353L1 7.36353L0.999924 8.36353C2.99747 8.36368 7.00279 8.36911 12.0004 8.36704L12 7.36704Z" fill="#F37E60"/>
</svg>
