<svg width="19" height="19" viewBox="0 0 19 19" fill="none" xmlns="http://www.w3.org/2000/svg">
<g opacity="0.5">
<circle cx="9.44922" cy="9.44922" r="8.74922" stroke="#6683C2" stroke-width="1.4"/>
<path d="M9.96783 11.4059H8.46855C8.42935 10.9747 8.45385 10.5926 8.54204 10.2594C8.64004 9.92622 8.82132 9.61264 9.0859 9.31867C9.36028 9.01489 9.73265 8.70132 10.203 8.37795C10.5166 8.16237 10.742 7.94678 10.8792 7.7312C11.0261 7.51562 11.0996 7.27554 11.0996 7.01096C11.0996 6.59939 10.9477 6.26132 10.644 5.99674C10.3402 5.73217 9.94333 5.59988 9.45337 5.59988C9.01241 5.59988 8.57634 5.72727 8.14518 5.98204C7.71401 6.22702 7.31715 6.61899 6.95458 7.15795L5.67578 5.89385C6.17554 5.2667 6.75369 4.78654 7.41024 4.45337C8.07658 4.1202 8.77722 3.95361 9.51216 3.95361C10.1883 3.95361 10.791 4.0908 11.3201 4.36518C11.8493 4.62976 12.2657 4.99233 12.5695 5.45289C12.8831 5.90365 13.0399 6.41811 13.0399 6.99626C13.0399 7.54502 12.8831 8.03498 12.5695 8.46614C12.2657 8.8973 11.8052 9.29907 11.1878 9.67144C10.7077 9.94582 10.3843 10.2104 10.2177 10.4652C10.0511 10.72 9.96783 11.0335 9.96783 11.4059ZM10.4529 13.6695C10.4529 13.9929 10.3353 14.2722 10.1001 14.5073C9.86493 14.7327 9.57586 14.8454 9.23289 14.8454C8.88992 14.8454 8.60084 14.7327 8.36566 14.5073C8.13048 14.2722 8.01289 13.9929 8.01289 13.6695C8.01289 13.3363 8.13048 13.0571 8.36566 12.8317C8.60084 12.5965 8.88992 12.4789 9.23289 12.4789C9.57586 12.4789 9.86493 12.5965 10.1001 12.8317C10.3353 13.0571 10.4529 13.3363 10.4529 13.6695Z" fill="#6683C2"/>
</g>
</svg>
