<svg width="684" height="262" fill="none" xmlns="http://www.w3.org/2000/svg"><g clip-path="url(#a)"><path d="M46.978 254.433h70.485l.415-.547.281-.361c.041.302.087.605.146.908h41.465c18.895-15.531 37.419-30.678 56.588-45.888-12.402 14.728-24.172 30.027-35.101 45.888h53.218a1078.51 1078.51 0 0 1 16.142-12.86c-.64.449 3.796-2.795.067-.047 1.809-1.237 22.402-17.844 56.41-40.84-17.165 16.466-34.303 34.004-52.155 53.75h55.492c21.609-17.697 43.111-34.595 71.502-55.325 4.337-3.168 8.688-6.315 13.053-9.448a967.52 967.52 0 0 0-17.679 19.363 982.192 982.192 0 0 0-37.894 45.41h57.035c9.315-7.424 17.018-13.516 26.112-20.598 23.593-18.338 48.145-36.622 72.239-53.467a1162.202 1162.202 0 0 0-36.51 36.728 1170.162 1170.162 0 0 0-33.944 37.337h63.624a2179.958 2179.958 0 0 1 24.909-18.182c-.836.949-1.672 1.898-2.504 2.85a715.556 715.556 0 0 0-12.957 15.329h70.105c3.942-2.91 7.893-5.807 11.864-8.672.506-.365 1.011-.726 1.517-1.088-.763.829-1.537 1.649-2.3 2.483a651.605 651.605 0 0 0-6.531 7.277h165.795a162.619 162.619 0 0 0 1.551-4.25c2.303-6.635-1.096-14.549-6.303-18.593-2.256-1.754-4.614-2.798-7.031-3.265 4.1-3.353 8.229-6.671 12.399-9.936 5.841-4.575 6.584-15.46 2.75-21.438-4.006-6.247-12.387-10.841-19.865-8.128a683.616 683.616 0 0 0-57.502 23.868 1712.988 1712.988 0 0 1 21.834-19.443c11.411-10 22.922-19.889 34.435-29.772 5.657-4.857 6.715-15.252 2.75-21.438a21.108 21.108 0 0 0-6.312-6.347c-3.305-2.143-9.801-3.351-13.553-1.784-21.072 8.801-41.431 18.881-61.228 29.94.657-.503 1.315-1.008 1.975-1.508a716.968 716.968 0 0 1 10.272-7.614 741.665 741.665 0 0 1 22.448-15.705c7.632-5.14 11.674-15.834 6.312-24.203-5.345-8.337-13.615-10.962-24.067-6.348a626.587 626.587 0 0 0-14.24 6.501c-6.262 2.953-11.356-5.76-5.754-9.839 4.465-3.25 9.129-6.598 14.027-10.06 17.451-12.34 5.984-36.554-13.553-32.331-38.059 8.222-80.19 33.519-115.093 55.689 37.603-29.937 42.132-28.724 44.715-38.16 1.16-4.234.637-9.874-1.773-13.63-2.423-3.776-6.026-7.102-10.511-8.128-4.904-1.123-8.989-.241-13.553 1.784-14.737 6.53-29.193 13.641-43.409 21.209-2.098-9.449-13.056-16.978-21.723-13.304-1.4.593-2.797 1.196-4.197 1.796l-.005-.012c-1.873 1.237-32.352 13.077-77.213 36.39-7.878 4.094-14.979-6.624-8.179-12.349 2.093-1.76 4.185-3.523 6.28-5.286 6.706-5.646 6.309-16.807 1.376-23.228-5.502-7.162-14.797-8.646-22.69-4.555-23.658 12.26-46.565 25.79-68.893 40.234-7.174 4.64-14.935-4.984-8.939-11.082.178-.182.36-.364.538-.547 6.186-6.288 6.697-16.3 1.376-23.227-5.117-6.66-15.291-9.386-22.69-4.555a755.884 755.884 0 0 0-58.782 42.511c-2.68 2.14-6.152-1.413-3.972-4.067a854.008 854.008 0 0 1 20.537-24.083c15.298-17.27-6.224-40.251-24.876-25.017a610.33 610.33 0 0 0-35.592 31.474c-3.547 3.391-9.389.8-9.342-4.123v-.259c0-17.08-22.059-22.846-30.028-12.51-41.69 54.078-71.193 108.988-92.79 169.276-2.478 6.918 1.192 15.282 7.194 19.449v.003Z" fill="url(#b)"/><path d="M646.669 145.509c-18.927 2.757-14.337 10.776-27.419 17.776 13.097 2.924 29.783.7 29.783.7s3.758-1.399 0 8.819 0 24.353-2.227 28.132c7.098-4.337 17.536-24.215 17.536-24.215s1.557 1.258 5.011 5.598c3.451 4.341 9.185 5.878 10.716 8.679 1.911-8.258 0-21.415 0-21.415s-6.715 1.749 6.402 3.638c13.115 1.89 26.428-5.248 33.526-2.73-9.465-13.856-30.881-23.442-22.509-21.623.429.094-40.665 8.399-50.822-3.359h.003Z" fill="#266E70"/><path d="M653.629 141.03c-4.175-6.019 3.273-13.715 9.743-11.476 8.606 2.98-3.174 17.915 9.827 11.476 6.318-7.979 18.845-8.537 15.225-1.399-3.618 7.138-28.392 18.896-34.795 1.399Z" fill="#266E70"/><path d="M671.862 216.15c-2.505 4.523-13.089 1.528-13.089 1.528-2.554-10.247-2.104-30.921-.97-42.761.415-4.273.915-7.388 1.394-8.455 1.809-4.02 7.788-9.898 10.85-1.499.19.523.374 1.161.549 1.896.05.197.1.402.141.623.14.623.269 1.308.394 2.051.029.15.056.303.076.453.135.793.254 1.648.374 2.548.029.22.065.437.085.658.015.091.029.185.035.276.05.353.091.723.134 1.09.021.212.05.423.071.644.035.347.076.693.114 1.055.02.191.04.382.055.579.064.588.114 1.181.17 1.789.02.206.035.403.055.609l.149 1.869c.05.629.099 1.266.14 1.91.03.423.056.855.085 1.296l.085 1.452c.02.317.041.637.055.955.141 2.624.246 5.292.31 7.896.254 10.198-.105 19.452-1.259 21.538h-.003Z" fill="#A76D52"/><path d="M673.123 194.609c-2.098-11.405-8.846-17.697-15.318-19.692.415-4.273.914-7.388 1.394-8.455 1.808-4.02 7.787-9.898 10.849-1.499.19.523.375 1.161.55 1.896.05.197.099.402.14.623.14.623.269 1.308.395 2.051.029.15.055.303.076.453.134.793.254 1.648.374 2.548.029.22.064.437.084.658.015.091.03.185.035.276.05.353.091.723.135 1.09.02.212.05.423.07.644.041.347.076.693.114 1.055.02.191.041.382.055.579.065.588.12 1.181.17 1.789.02.206.035.403.055.609.056.617.106 1.237.15 1.869.049.629.099 1.266.14 1.91.029.423.055.855.085 1.296.029.482.055.961.084 1.452.021.317.041.637.056.955.14 2.624.245 5.292.31 7.896l-.003-.003Z" fill="#754D3B"/><path d="M641.008 212.015h44.72v20.941c0 7.891-6.37 14.294-14.213 14.294h-16.294c-7.846 0-14.213-6.406-14.213-14.294v-20.941Z" fill="#405B57"/><path d="m685.729 231.663-29.917 15.59h15.704c7.849 0 14.213-6.401 14.213-14.294v-1.296Z" fill="#2B3836"/><path d="M659.752 143.969c.278-16.375 7.265-23.795 13.445-27.433 6.18-3.638 17.252-12.737 23.985-13.942-9.725 10.077-12.238 32.559-21.285 41.375 9.401-7.465 14.97-11.511 22.621-10.289 12.299 1.963 24.142 8.47 37.085 12.948-6.403 3.921-31.472 8.958-34.526 8.819-3.053-.141-18.5-2.098-18.5-2.098 9.883 9.519 12.004 32.332 17.206 35.691-10.526-.979-31.124-11.617-35.3-22.813-5.567 10.776-37.856 18.896-43.283 27.712 1.254-9.237 10.716-29.814 17.676-36.811 6.958-6.997 14.892-7.558 14.892-7.558s-39.666.979-50.381-11.338c16.84 1.261 28.809-9.098 38.274-8.116 9.465.978 17.258 10.077 18.094 13.856l-.003-.003Z" fill="#3A8585"/><path d="M704.355 142.487c-12.323-.232-24.38 1.258-35.911 5.637-.838.32-.476 1.687.374 1.363 11.417-4.334 23.401-6.427 35.604-6.195.906.018.836-.787-.07-.805h.003Z" fill="#8CC2BD"/><path d="M675.648 123.838c-6 6.836-8.846 15.679-7.864 24.756.097.897 1.505.905 1.409 0-.938-8.695.94-17.65 6.703-24.218.596-.682.354-1.222-.248-.538ZM679.211 165.898c-1.134-4.811-3.854-8.869-7.814-11.79-.73-.541-1.435.687-.71 1.222 3.656 2.698 6.736 6.116 7.782 10.544.207.885.952.911.742.024ZM649.862 141.186c-3.717-1.834-7.674-1.619-11.747-2.045-.9-.094-.97.585-.079.679 3.825.399 7.624.864 11.116 2.589.809.399 1.525-.82.71-1.223Z" fill="#8CC2BD"/><path d="M549.001 117.512c-21.361 21.838-56.246 4.032-56.965-.423-2.209-13.701 1.824-19.734-.85-26.449-2.68-6.715-5.847-13.45-5.114-24.256.591-8.801 4.328-19.451 9.88-27.87 5.222-7.927 12.045-13.877 19.362-14.465 4.439-.362 9.062 1.26 13.62 5.61 5.567-3.065 18.901 7.373 20.067 20.4 3.834 42.556 21.37 45.618 0 67.456v-.003Z" fill="#1B161C"/><path d="M552.899 74.354c-.485-.764-1.704-.056-1.216.714 3.808 6.001 7.738 12.284 9.258 19.331 1.625 7.538-.444 16.707-8.778 18.946-.874.235-.503 1.602.374 1.364 6.873-1.846 10.452-8.555 10.403-15.4-.068-9.139-5.322-17.523-10.041-24.958v.003Z" fill="#1B161C"/><path d="M561.868 106.292c-.418-6.859-2.773-13.365-6.615-19.022-.509-.747-1.727-.041-1.216.714 3.068 4.517 5.204 9.563 6.06 14.984.924 5.831 1.082 13.783-4.979 16.845-.809.409-.096 1.631.71 1.223 5.491-2.774 6.379-9.131 6.037-14.744h.003ZM500.154 102.31c-5.605.394-8.635-6.788-10.704-11.064-2.277-4.696-4.004-9.762-4.6-14.973-.537-4.708-.079-9.442 1.514-13.912 1.698-4.766 4.108-10.506 7.934-13.932.677-.608-.322-1.605-.997-1-4.065 3.642-6.508 9.487-8.296 14.56-1.911 5.421-2.197 11.16-1.201 16.806 1.049 5.956 3.416 11.649 6.382 16.888 2.218 3.918 4.883 8.405 9.968 8.047.897-.062.905-1.478 0-1.417v-.003Z" fill="#1B161C"/><path d="M494.778 124.771c-6.613-5.675-6.926-15.261-6.283-23.346.661-8.32 2.402-16.515 1.742-24.896-.07-.903-1.479-.911-1.409 0 .763 9.665-1.718 19.09-1.949 28.714-.175 7.367 1.032 15.49 6.902 20.527.687.588 1.686-.409.994-.999h.003Z" fill="#1B161C"/><path d="M544.572 111.111s16.373 8.075 19.435 10.036c3.062 1.96 7.145 8.246 9.465 22.428 7.828 47.866 15.595 44.88 14.69 57.182 1.545 3.649 2.817 6.133 3.687 7.39.661.956 1.274 7.635-.277 12.408-.78 2.401 1.855 11.035 2.133 12.777.278 1.743-8.425 20.195-14.474 20.195h-47.75s-41.954 2.974-41.039-1.86c.914-4.834-5.427-14.87-7.198-23.095-7.696-7.162-20.162-12.043-20.399-27.907-.146-9.785-.33-21.341 4.05-54.607 2.472-18.781 8.033-23.677 10.546-24.726.883-.368 21.197-10.221 21.197-10.221h45.937-.003Z" fill="#9ED2EC"/><path d="M522.757 154.017c-.068-.905-1.447-.617-1.38.282a307.964 307.964 0 0 1 .746 31.588c-.024.908 1.379 1.008 1.402.097a312.228 312.228 0 0 0-.768-31.967Z" fill="#446C8F"/><path d="M505.275 109.53c-5.017 13.53 9.24 40.633 15.914 44.739 16.066-14.182 17.358-38.503 16.654-45.298-.409-.07-3.741-3.015-3.767-5.857-13.456-2.28-22.781-.884-26.197-.099-.535 2.759-2.604 6.518-2.604 6.518v-.003Z" fill="#F1BBA2"/><path d="M506.39 94.38c.605 2.546 1.984 12.784 2.752 14.682 3.741 9.237 8.665 10.077 11.706 10.077 3.288 0 9.571-1.587 12.262-9.891.923-2.848.964-7.297 1.785-15.585-14.038-2.788-28.508.715-28.508.715l.003.002Z" fill="#F1BBA2"/><path d="M534.614 97.528c-7.425 12.877-18.234 22.334-26.735 5.483-.079-.467-.949-5.742-.949-5.742l27.699-.582-.015.84Z" fill="#CD9A82"/><path d="M541.883 66.288c7.975-1.284 7.206 11.55-1.043 17.739 0 0 0-15.332 1.043-17.739ZM497.59 66.288c-7.974-1.284-9.465 9.907 1.043 17.739 0 0 0-15.332-1.043-17.739Z" fill="#F1BBA2"/><path d="M544.606 57.323c0-10.277-3.886-23.422-24.166-23.422s-24.21 12.995-24.21 26.137c-.061 10.089.643 16.766 2.864 25.147 2.463 9.292 8.652 13.688 15.517 18.89.987.749 3.383 1.842 5.829 1.951 2.446-.109 4.842-1.202 5.83-1.951 6.864-5.202 13.842-9.598 15.517-18.89 1.665-9.251 3.591-18.073 2.822-27.862h-.003Z" fill="#F1BBA2"/><path d="M531.477 72.513c0-1.563.99-2.83 2.212-2.83 1.221 0 2.212 1.267 2.212 2.83 0 1.564-.991 2.83-2.212 2.83-1.222 0-2.212-1.266-2.212-2.83ZM506.922 72.513c0-1.563.99-2.83 2.212-2.83 1.221 0 2.212 1.267 2.212 2.83 0 1.564-.991 2.83-2.212 2.83-1.222 0-2.212-1.266-2.212-2.83Z" fill="#1B161C"/><path d="M521.812 87.777a1.218 1.218 0 0 1-.505-2.322c1.212-.561 1.127-1.872.479-4.602a24.658 24.658 0 0 1-.333-1.537 1.207 1.207 0 1 1 2.381-.408c.07.411.181.881.301 1.38.558 2.346 1.4 5.887-1.817 7.377a1.193 1.193 0 0 1-.506.112Z" fill="#CD9A82"/><path d="M530.179 62.292c-2.378.241-4.792 3.36-2.641 3.253 9.111-.437 12.238 1.505 12.46 1.05.587-1.202-3.592-4.938-9.819-4.303ZM511.064 62.389c2.39-.053 4.874 3.235 2.72 3.185-9.12-.205-10.897 1.493-11.195 1.082-.894-1.234 2.981-4.147 8.472-4.267h.003Z" fill="#1B161C"/><path d="M510.645 89.193c7.562 1.881 13.015 1.678 20.399 0 0 0-2.785 7.494-9.979 7.494-7.194 0-10.42-7.494-10.42-7.494Z" fill="#5D1A1C"/><mask id="c" style="mask-type:luminance" maskUnits="userSpaceOnUse" x="510" y="89" width="22" height="8"><path d="M510.645 89.193c7.562 1.881 13.015 1.678 20.399 0 0 0-2.785 7.494-9.979 7.494-7.194 0-10.42-7.494-10.42-7.494Z" fill="#fff"/></mask><g mask="url(#c)"><path d="M521.24 102.745c4.763 0 8.624-2.449 8.624-5.47 0-3.02-3.861-5.468-8.624-5.468-4.762 0-8.623 2.448-8.623 5.469 0 3.02 3.861 5.469 8.623 5.469Z" fill="#ED4053"/><path d="M520.842 92.703c5.435 0 9.842-2.095 9.842-4.679 0-2.583-4.407-4.678-9.842-4.678-5.436 0-9.842 2.095-9.842 4.678 0 2.584 4.406 4.679 9.842 4.679Z" fill="#fff"/></g><path d="M543.691 74.403c.485-19.325-11.925-18.808-14.368-33.284-.471 4.02-4.652 7.182-9.9 10.303-3.294 1.96-7.008 3.9-10.485 6.027-7.352 4.5-13.658 9.827-12.714 17.894l-3.849 13.345s-6.312-37.143 3.849-47.217a48.614 48.614 0 0 1 4.418-3.89c5.663-4.359 10.97-6.137 15.642-6.554 6.593-.579 11.92 1.534 15.19 2.874 6.177 2.533 20.101 9.043 12.214 40.502h.003Z" fill="#1B161C"/><path opacity=".26" d="M516.07 49.433c-2.039-2.136 2.37-5.498 2.595-7.69.091-.962-.105-1.776-.649-2.569-.9-1.302-2.668-1.463-3.573-2.563-1.59-1.93.908-2.342 1.639-3.89.38-.8.33-1.14.204-1.69-.04-.191-.09-.403-.134-.673-.085-.488-.649-.559-.815-.976-1.21-2.921-.894-2.08-.52-3.78.111-.537.295-1.045.491-1.557-7.318.588-14.144 6.54-19.363 14.465 1.499-.197 3.533-1.14 4.699-.926.81.156 1.204.864.719 2.76-.43 1.678-1.555 4.287-.205 5.865.486.567 1.111.744 1.824.835.865.12 2.919-.835 3.504-.432 1.209.834-1.985 5.454-1.78 7.138.289 2.398 1.864 2.116 3.463 2.986.385.211.634.447.774.714 3.475-2.13 7.191-4.07 10.485-6.027-.886-1.111-2.513-1.097-3.358-1.99Z" fill="#9ED2EC"/><path d="M534.224 101.111c2.759 1.693 9.059 7.673 11.426 12.198 4.845 9.266-9.377 53.144-11.963 52.436l-12.843-11.943c3.562-4.173 15.952-25.393 14.488-46.511-1.791-1.264-1.379-3.559-1.108-6.18Z" fill="#fff"/><path d="M506.387 108.337c-1.411 18.743 10.067 39.232 14.462 45.465-4.903 4.852-13.918 11.952-13.918 11.952-8.489-16.63-10.891-30.498-11.607-40.707-.585-8.323 2.978-16.392 9.544-21.494 1.607-1.249 2.746-2.139 2.746-2.139.801 4.61.266 6.156-1.224 6.923h-.003Z" fill="#fff"/><path d="M566.366 141.03c-1.584 4.969-4.463 8.705-7.671 12.804-.555.708.435 1.716.993 1.002a45.145 45.145 0 0 0 7.54-14.232c.277-.87-.588-.438-.862.429v-.003ZM476.108 128.993c-.269-.867-.599.244-.33 1.117 2.262 7.315 3.887 14.896 3.524 22.634-.386 8.176-2.533 16.554-3.869 24.624-.149.89 1.21 1.272 1.356.376 1.359-8.208 3.53-16.68 3.919-25 .371-7.885-2.3-16.313-4.6-23.751Z" fill="#446C8F"/><path d="M562.224 202.805c.26-4.605-2.361-8.416-.59-12.548a35.434 35.434 0 0 0 2.756-11.1c.692-8.404-2.055-15.604-4.237-23.533-2.648-9.61.634-17.171 2.781-26.349.208-.884-.283-1.722-.491-.834-1.75 7.479-5.543 14.808-4.643 22.678.5 4.384 2.227 8.466 3.463 12.669 1.344 4.575 2.031 9.339 1.803 14.114-.237 4.958-1.599 9.431-3.679 13.892-1.061 2.271 2.794 4.517 2.121 6.903-.59 2.868-.856 4.62-.458 6.724.239 1.269.783 2.342 1.145 3.558.643 2.149 1.867 2.522.327 6.463-.461 1.178-.286 2.019.491 3.097 1.122 1.558 2.098 1.137 2.075 3.941-.006.644-.193 1.378-.438 2.128l1.864-1.217c.222-.896.321-1.766.155-2.53-.324-1.478-1.727-1.872-2.44-3.042-1.008-1.646.397-3.153.614-4.652.128-.905-.094-1.637-.331-2.507-.42-1.542-1.423-2.888-1.841-4.455a13.387 13.387 0 0 1-.45-3.409l.009.009h-.006Z" fill="#446C8F"/><path d="M584.724 218.71c-3.706-.285-7.519-.579-11.163.353-3.15.805-5.865 2.595-8.536 4.384-3.632 2.434-7.194 4.423-11.618 4.92-4.024.452-8.103-.056-12.101-.541-.897-.109-.888 1.308 0 1.416 7.081.859 14.26 1.443 20.701-2.195 3.036-1.716 5.733-4.026 8.901-5.516 4.368-2.054 9.14-1.766 13.819-1.404.903.07.9-1.346 0-1.417h-.003ZM580.592 197.751c-7.042 6.3-12.284 13.277-15.408 22.219-.301.861 1.058 1.232 1.356.377 3.045-8.717 8.15-16.331 15.014-22.47.678-.605-.287-.729-.962-.126ZM479.845 159.245a88.49 88.49 0 0 0-4.965-13.037c-.388-.822-.055 1.073.331 1.893 1.946 4.108 1.998 7.156 3.275 11.523.255.873 1.613.499 1.356-.376l.003-.003Z" fill="#446C8F"/><path d="M520.556 129.126c-6.651 0-11.376-7.444-14.442-22.743a1.06 1.06 0 0 1 .827-1.249 1.056 1.056 0 0 1 1.242.832c2.832 14.115 7.06 21.2 12.569 21.038 6.688-.188 10.817-6.923 12.994-21.191a1.055 1.055 0 1 1 2.087.323c-1.485 9.73-4.658 22.699-15.02 22.993-.085 0-.17.003-.254.003l-.003-.006Z" fill="#F6BB5A"/><path d="M510.343 95.957c-3.203.285-6.697.38-9.497-1.472-3.299-2.184-3.29-5.657-2.896-9.222.17-1.52-2.197-1.508-2.364 0-.441 3.982-.26 7.764 3.004 10.5 3.294 2.76 7.677 2.936 11.75 2.572 1.502-.136 1.517-2.513 0-2.378h.003Z" fill="#9ED2EC"/><path d="M545.826 63.851h-1.549c-1.115 0-2.019.91-2.019 2.03v18.456c0 1.121.904 2.03 2.019 2.03h1.549c1.115 0 2.019-.909 2.019-2.03V65.882c0-1.122-.904-2.03-2.019-2.03ZM497.005 63.851h-1.548c-1.115 0-2.019.91-2.019 2.03v18.456c0 1.121.904 2.03 2.019 2.03h1.548c1.116 0 2.02-.909 2.02-2.03V65.882c0-1.122-.904-2.03-2.02-2.03Z" fill="#2E282F"/><path d="M546.329 59.011h-1.759v4.855h1.759V59.01ZM497.111 59.011h-1.759v4.855h1.759V59.01Z" fill="#2E282F"/><path d="M545.449 60.78c-.97 0-1.759-.793-1.759-1.769 0-14.9-7.709-22.452-22.913-22.452-11.011 0-22.778 5.898-22.778 22.452 0 .976-.786 1.77-1.759 1.77-.973 0-1.76-.794-1.76-1.77 0-19.184 14.164-25.99 26.294-25.99 17.29 0 26.431 8.987 26.431 25.99 0 .976-.786 1.77-1.759 1.77h.003ZM429.806 146.405c-.277-6.571 10.298-10.103 10.298-10.103l2.066 14.167s-6.797 5.587-12.364-4.064Z" fill="#446C8F"/><path d="M451.499 138.332c-.456-3.2-2.592-12.668-3.191-15.507-.833-3.944-8.083-8.846-12.831-11.232-3.209-1.613-11.467-9.166-12.913-10.189-1.558-1.104-5.622 1.044-3.603 3.944 2.019 2.901 5.464 5.531 7.247 7.203 1.782 1.672 3.208 5.378 3.208 5.378s-10.099 2.001-11.764 1.898c-1.663-.105-8.437-3.332-9.743-3.808-1.306-.479-7.659-3.347-9.415-2.63-1.756.717-2.44 2.868-.789 4.302 1.648 1.434 8.658 4.778 8.658 4.778s-9.625-.596-10.812.717c-1.189 1.314-1.306 3.824 1.19 4.661 2.019 2.51 10.219 3.347 10.219 3.347s6.417 5.854 9.149 5.496c2.732-.359 9.029-1.793 9.742-2.031.713-.238 11.525 1.076 11.765 1.793.237.717 2.019 13.741 2.019 13.741s12.203-1.131 11.864-11.858v-.003Z" fill="#F1BBA2"/><path d="M443.915 127.686c-2.969-2.53-5.006-5.243-9.17-4.182-2.416.614-4.418 2.142-6.493 3.45-2.621 1.652-5.397 2.936-8.413 3.67-2.218.541-3.942 1.032-5.993-.502-.891-.667-1.531-1.631-2.461-2.269-1.057-.726-2.437-1.319-3.743-.934-2.402.708-2.662 3.588-1.017 5.178.558.538 1.251.032.693-.506-1.187-1.883-.246-3.682 1.376-3.682 1.149 0 1.593.617 2.794 1.611.537.443.976 1.005 1.505 1.46.643.555 1.32 1.131 2.162 1.358 2.536.682 6.157-.747 8.46-1.643 3.065-1.196 5.563-3.147 8.415-4.717 2.195-1.207 4.606-2.074 7.057-1.108 1.675.662 3.098 2.16 4.46 3.321.587.5.952 0 .362-.502l.006-.003ZM429.416 117.926l4.635-1.196c.236-.596-5.313-.347-5.313-.347l.678 1.54v.003Z" fill="#CD9A82"/><path d="M491.949 250.381c-5.794-13.648-40.81-114.452-40.81-114.452.569 3.083-10.88 12.875-21.268 10.488 1.073 2.51 4.033 25.723 9.553 41.639 3.924 11.317 3.968 22.405 5.888 33.678 3.389 19.916 17.69 26.575 37.675 28.006l8.965.644-.003-.003Z" fill="#9ED2EC"/><path d="M594.404 239.654c-1.14 0-2.06-.929-2.06-2.072v-19.904c0-1.146.923-2.072 2.06-2.072 10.897 0 12.296 5.419 12.296 10.141 0 8.191-5.055 13.909-12.296 13.909v-.002Zm2.06-19.852v15.467c4.205-1.043 6.113-5.299 6.113-9.522 0-4.458-1.905-5.695-6.113-5.942v-.003Z" fill="#B52F41"/><path d="M596.644 209.802H570.73a1.931 1.931 0 0 0-1.925 1.937v33.578a1.93 1.93 0 0 0 1.925 1.936h25.914a1.931 1.931 0 0 0 1.926-1.936v-33.578c0-1.07-.862-1.937-1.926-1.937Z" fill="#E2606E"/><path d="M568.805 245.314a1.94 1.94 0 0 0 1.928 1.94h25.911a1.94 1.94 0 0 0 1.929-1.94v-15.272l-29.765 14.846v.426h-.003Z" fill="#C8606B"/><path d="M723.145 228.361h-41.606l.801 12.883c.134 2.377 2.691 5.475 5.8 5.475h28.401c3.109 0 5.666-3.098 5.8-5.475l.801-12.883h.003Z" fill="#749FC5"/><path d="M581.608 164.337H452.393c-2.554 0-3.74 2.624-5.026 4.578l6.905 62.316c-.523 4.825 1.566 6.574 3.843 6.574H575.72c2.279 0 4.366-1.749 4.667-3.923l6.186-64.355c-1.067-2.977-2.414-5.187-4.965-5.187v-.003Z" fill="#fff"/><path d="M582.804 166.353h-131.78c-2.554 0-4.313 2.348-3.933 5.216l6.352 65.742c.298 2.175 2.388 3.923 4.667 3.923h117.605c2.28 0 4.366-1.748 4.667-3.923l6.353-65.742c.38-2.868-1.38-5.216-3.934-5.216h.003Z" fill="#2E282F"/><path d="M577.236 241.234H456.598a2.618 2.618 0 0 0-2.61 2.625v.235a2.617 2.617 0 0 0 2.61 2.624h120.638a2.617 2.617 0 0 0 2.61-2.624v-.235a2.618 2.618 0 0 0-2.61-2.625Z" fill="#1B161C"/><path d="M511.524 207.357c-.032-2.592 2.449-4.717 5.546-4.717 3.097 0 5.581 2.125 5.546 4.717-.032 2.559-2.516 4.613-5.546 4.613-3.03 0-5.514-2.054-5.546-4.613Z" fill="#FCF7ED"/><path opacity=".49" d="M524.493 98.407c-2.417.344-4.483.296-6.85-.259-.882-.206-1.256 1.158-.374 1.364 2.633.617 4.921.637 7.598.255.894-.126.514-1.49-.374-1.363v.003Z" fill="#CD9A82"/><path d="M534.676 36.79c-1.201-.602-3.057-1.034-4.401-.781-.213.04-1.706.708-1.432.72-.236-.012-.713-.562-.938-.656-2.893-1.21-4.605-1.954-7.933-1.748-6.876.426-11.347 3.127-16.557 7.367-2.271 1.849-4.103 4.338-5.62 6.91-1.998 3.393-1.864 9.33-.648 13.7.488 1.754 2.96-1.094 3.097-2.904.219-2.877-.935-5.707-.216-8.599.69-2.765 2.837-4.984 4.962-6.73 4.196-3.444 7.808-6.182 13.407-6.8 2.381-.261 4.903-.487 7.089.67 1.318.697 1.782 1.32 3.308 1.294 1.887-.036 3.059-.612 4.804.405 1.44.84 2.802 2.075 3.734 3.453 1.631 2.413 2.519 6.73 1.517 9.613-.599 1.722 3.927 6.062 4.523 4.352 2.069-5.942-.774-16.298-8.696-20.268v.002Z" fill="#1B161C"/><path d="M310.691 250.335c0 3.345 1.41 6.05 3.149 6.05h427.007c.872 0 1.658-.674 2.23-1.773.569-1.093.923-2.608.923-4.277 0-3.344-1.413-6.058-3.154-6.058H313.839c-.872 0-1.658.674-2.227 1.773-.47.903-.793 2.094-.891 3.419-.02.281-.032.57-.032.866h.002Z" fill="#DCBFA3"/><path d="M315.354 256.384H739.34c0 3.087-1.316 5.588-2.94 5.588H318.294c-1.624 0-2.94-2.501-2.94-5.588Z" fill="#BDA084"/></g><defs><linearGradient id="b" x1="322.062" y1="150.289" x2="526.152" y2="150.289" gradientUnits="userSpaceOnUse"><stop stop-color="#FCF7ED" stop-opacity="0"/><stop offset="1" stop-color="#FCF7ED"/></linearGradient><clipPath id="a"><path fill="#fff" d="M0 0h684v262H0z"/></clipPath></defs></svg>