<svg width="614" height="495" fill="none" xmlns="http://www.w3.org/2000/svg"><path d="M427.221 9.009a4.4 4.4 0 1 1-2.064-8.553 4.4 4.4 0 0 1 2.064 8.553Z" fill="#fff"/><path d="M385.039 40.45c-6.167 1.347-12.266-2.536-13.654-8.695-1.388-6.158 2.455-12.282 8.603-13.712 6.208-1.443 12.403 2.444 13.805 8.662 1.401 6.217-2.527 12.386-8.754 13.745Z" fill="#68CCEA"/><path d="M268.214 226.26c-61.072 13.341-121.462-25.116-135.21-86.104-13.749-60.983 24.307-121.634 85.194-135.79C279.67-9.924 341.022 28.572 354.904 90.14c13.875 61.568-25.027 122.658-86.69 136.12Z" fill="#F2C45B"/><path d="M255.203 53.844c-3.325 3.183-6.238 7.063-7.988 11.344 5.094 6.128 10.44 14.336 9.733 22.744-.018.218-.045.434-.066.65-1.083-1.386-1.226-4.3-1.621-6.036-1.633-7.155-5.568-14.307-12.031-18.072-7.399-3.93-14.045-3.737-22.16-2.63-6.73 1.225-12.665 3.58-18.028 7.91-5.69 3.296-9.798 11.426-11.459 17.542-2.847 10.487-1.083 20.997-.607 31.621-.218 1.047-.22 1.175-.983 1.908-.766-6.865-1.464-13.906-1.403-20.821.102-11.716 3.443-22.089 11.927-30.39 8.611-6.748 15.867-8.434 26.417-10.118 1.742-.005 3.485.005 5.227-.025 5.013.939 9.395 2.248 13.647 5.149l3.25-5.318c7.8-10.87 16.626-18.5 30.187-20.728 11.67-1.917 24.502.734 34.111 7.741 7.834 5.714 13.025 14.309 15.554 23.597 1.384 5.08 1.97 10.71 5.665 14.763 3.196 3.507 7.799 5.276 12.078 7.048 3.705 1.333 7.382 2.627 10.878 4.462 5.388 3.717 8.267 8.254 9.481 14.701 1.209 6.418.506 12.955-.5 19.346-1.432-3.78 1.413-8.933-.148-12.769a27.091 27.091 0 0 0-.197-2.561c-.843-7.2-3.078-12.485-8.843-17.044-3.3-2.187-7.194-3.324-10.897-4.638-7.295-2.715-13.696-5.962-16.536-13.712-.957-2.61-1.414-5.475-2.124-8.166-2.236-8.462-6.229-16.042-12.888-21.846-8.727-7.607-20.646-10.849-32.083-9.95-10.963.863-20.49 5.995-27.593 14.298Z" fill="#4D261D"/><path d="M247.212 65.189c1.75-4.28 4.663-8.161 7.988-11.344.116-.008.234-.001.347-.025 1.33-.278 6.053-4.176 7.879-5.202 12.504-7.029 28.408-7.478 41.102-.6 11.604 6.288 17.135 16.592 21.07 28.765 1.875 5.8 3.512 11.72 8.223 15.937 3.444 3.084 7.936 4.658 12.133 6.421a503.852 503.852 0 0 1 6.984 3.531c4.762 3.067 8.065 5.608 11.099 10.46.848 1.357 1.383 3.097 2.324 4.332 1.561 3.836-1.285 8.989.148 12.769-1.474 9.895-6.186 18.935-11.371 27.358-1.399.334-2.766.066-4.139.703-4.799 2.225-6.084 8.372-7.792 12.904-5.423-5.306-5.057-13.212-11.042-18.126-6.649-5.458-16.515-5.593-23.996-9.701-8.495-4.663-15.05-13.893-21.259-21.191 2.818 8.619 6.98 14.127 10.647 21.957a36.942 36.942 0 0 1-9.203-1.69c-17.472-5.591-23.502-21.373-31.202-36.146.097-.585.106-.823.027-1.382l-.666.242c-4.565.816-12.65 10.781-15.198 14.43-.946 1.354-2.336 3.02-2.747 4.597l-.904.582c.022.233.015.527.096.745-2.232 2.024-3.942 6.093-5.437 8.749-4.623 8.212-16.427 31.338-21.997 36.701-1.804-4.898-4.035-10.174-9.033-12.615-2.567-1.253-5.909-1.49-8.592-.476-1.081.407-2.226 1.192-3.305 1.476-1.373-8.645-2.758-17.552-2.018-26.32.241-2.853 3.018-10.23 2.612-12.204.763-.733.765-.861.983-1.908 1.569-2.312 3.149-4.548 4.923-6.708.551-4.601 1.32-9.174 2.305-13.702 2.75-12.132 7.962-22.212 18.661-28.995 3.672-1.886 7.16-3.388 11.156-4.449 5.077-.796 10.083-.965 15.209-.59 6.463 3.766 10.398 10.918 12.03 18.073.396 1.736.539 4.65 1.621 6.037.022-.217.049-.434.067-.651.707-8.408-4.639-16.616-9.733-22.744Zm66.201 30.394c.876 5.594 10.29 15.41 14.886 18.697.426.305.863.574 1.313.844l.493-.17c-.074-.083-.146-.169-.223-.248-2.772-2.878-6.295-5.143-8.835-8.286-1.438-1.779-6.153-10.22-7.634-10.838Zm-76.457 8.119c-4.93 10.285-12.537 19.534-23.658 23.366-1.342.462-6.706 1.345-7.232 1.917l.297.608c9.01-.569 17.702-6.605 23.49-13.222 2.424-2.771 6.817-8.562 7.399-12.226l-.296-.443Z" fill="#7F4A43"/><path d="M371.683 81.665c-5.049 4.529-9.933 9.197-14.154 14.522 5.389 3.717 8.268 8.254 9.482 14.7 1.209 6.419.505 12.956-.5 19.347-1.474 9.895-6.186 18.935-11.371 27.358 4.474.288 8.703 1.4 11.79 4.901 3.009 3.411 4.15 8.278 3.746 12.737-.706 7.805-5.635 14.724-11.523 19.603-3.933 3.259-9.416 6.46-14.71 5.832-1.438-.17-2.893-.574-4.298-.925-3.113 14.052-7.429 27.426-15.168 39.683l.512-.001c6.453-.013 12.869-.025 19.261 1.023 21.842 3.582 43.74 16.147 59.331 31.727 4.864 4.861 8.975 10.124 13.312 15.432.389-18.723.047-37.524.045-56.254-.001-6.851-.676-17.583.357-23.916.432-2.646 1.718-5.183 3.509-7.171 2.944-3.269 7.375-4.941 11.72-5.07 6.028-.179 11.598 2.721 15.934 6.702-.04-2.921-.349-5.884-.141-8.801.3-4.22 2.245-8.305 5.527-11.024 3.705-3.069 8.805-3.839 13.472-3.291 6.119.718 9.425 3.958 13.057 8.56 1.317-4.868 3.108-8.65 7.637-11.365a16.45 16.45 0 0 1 12.682-1.721c4.103 1.101 7.397 3.983 9.463 7.642 3.291 5.829 2.23 14.051 2.195 20.586 3.299-3.923 6.988-6.411 12.206-6.824 4.78-.377 9.583 1.049 13.155 4.313 3.887 3.555 5.44 8.053 5.567 13.187.261 10.573-.203 21.173.013 31.748 4.131-2.794 8.527-4.465 13.6-3.504 4.147.786 8 3.132 10.385 6.64 1.344 1.977 2.164 4.094 2.453 6.458.539 4.407.218 9.06.189 13.505l-.208 23.476c-.041 3.57.502 7.85-.077 11.335.308 1.558.635 3.112.982 4.661 2.139-2.086 4.694-3.819 6.959-5.78 1.873-1.621 3.467-3.485 5.251-5.197 2.049-1.593 7.324-8.751 8.952-10.763a146.21 146.21 0 0 0 31.104-108.957c-4.173-37.616-25.726-74.614-55.226-98.046a158.518 158.518 0 0 0-117.7-33.059c-29.63 3.396-56.613 16.114-78.772 35.991Z" fill="#F2C45B"/><path d="m330.122 114.955-.493.17c-.45-.269-.887-.539-1.314-.844-4.595-3.286-14.009-13.103-14.885-18.697 1.481.618 6.196 9.058 7.633 10.837 2.541 3.144 6.064 5.409 8.835 8.286.078.08.15.165.224.248ZM206.367 129.594l-.297-.608c.526-.572 5.89-1.455 7.232-1.917 11.121-3.833 18.728-13.081 23.658-23.366l.296.443c-.582 3.664-4.975 9.455-7.399 12.226-5.788 6.617-14.48 12.653-23.49 13.222ZM256.521 105.162l.666-.242c.079.559.07.797-.027 1.382-5.236 8.711-8.925 15.947-19.392 19.214-.081-.217-.074-.512-.096-.745l.904-.582c9.229-3.162 13.696-10.889 17.945-19.027Z" fill="#4D261D"/><path d="M238.586 124.19c.411-1.578 1.801-3.243 2.747-4.598 2.548-3.648 10.633-13.613 15.198-14.43-4.25 8.138-8.716 15.865-17.945 19.028Z" fill="#E9B49C"/><path d="M237.771 125.517c10.467-3.267 14.156-10.503 19.392-19.214 7.7 14.773 13.73 30.555 31.202 36.146a36.95 36.95 0 0 0 9.203 1.69c-3.666-7.83-7.829-13.338-10.647-21.957 6.209 7.298 12.764 16.528 21.259 21.191 7.481 4.108 17.347 4.243 23.996 9.701 5.986 4.914 5.619 12.82 11.043 18.126 1.707-4.532 2.992-10.679 7.791-12.904 1.373-.637 2.74-.369 4.139-.703 4.474.289 8.703 1.401 11.791 4.901 3.009 3.411 4.15 8.278 3.746 12.737-.706 7.805-5.636 14.724-11.524 19.603-3.933 3.259-9.415 6.461-14.709 5.833-1.439-.171-2.893-.575-4.298-.926-3.113 14.052-7.43 27.427-15.169 39.683-3.698 5.073-7.326 9.751-11.937 14.051l-1.727 1.573c.446 11.633.156 21.161-8.222 30.176-6.439 6.928-15.536 10.72-24.937 10.997-7.271.215-13.424-1.776-19.767-5.194-22.232-15.609-12.234-34.233-16.614-39.111-2.637-1.143-9.968-10.302-12.118-12.847a115.25 115.25 0 0 1-17.252-39.181c-2.032.439-4.219.732-6.297.586-8.2-.579-14.624-5.544-19.779-11.558-1.958-4.03-3.266-7.719-3.875-12.162-.027-5.036 1.058-9.138 3.443-13.56a118.978 118.978 0 0 1 3.503-3.842c1.08-.284 2.224-1.069 3.305-1.476 2.683-1.014 6.025-.777 8.592.476 4.998 2.441 7.229 7.717 9.034 12.615 5.569-5.363 17.373-28.489 21.997-36.701 1.495-2.656 3.204-6.725 5.436-8.749Zm5.326 20.819c-5.72.472-10.733 2.045-14.558 6.636-1.852 2.221-2.989 4.764-3.919 7.475 3.588-2.911 7.098-5.776 11.483-7.41 3.028-.971 6.168-1.68 9.368-1.268 3.187.411 8.569 4.211 11.325 2.39.414-.816.509-1.422.238-2.303-.553-1.791-2.355-2.709-3.939-3.454-3.067-1.444-6.622-2.088-9.998-2.066Zm66.523.954c-3.166.42-8.294 1.107-10.482 3.68-.535.63-.676 1.511-.544 2.297.102.609.354.761.739 1.206 2.832 1.064 8.191-2.001 11.356-2.307 2.707-.261 5.129.262 7.689 1.044l.431.181c2.265.959 5.939 4.131 8.357 3.581.315-.072.502-.224.754-.395.305-.913.248-1.514-.209-2.379-1.785-3.386-6.374-5.409-9.934-6.356-2.541-.675-5.55-.932-8.157-.552Zm-114.779 24.112c.123.078.244.16.368.236 1.492.911 4.389.565 5.308 2.214-.336.723-.575.873-1.166 1.391-2.037 1.787-3.445 3.974-3.575 6.747-.108 2.281.829 4.392 2.364 6.047 2.926 3.152 7.237 4.383 11.419 4.444.54.008.999-.014 1.527-.119.225-.365.344-.585.461-1.006-4.127.4-8.167.019-11.537-2.675-1.776-1.419-3.149-3.459-3.379-5.76-.218-2.184.66-4.252 2.087-5.874 1.017-1.155 2.253-2.032 3.522-2.884-1.744-1.644-3.755-2.975-6.248-2.947a4.45 4.45 0 0 0-1.151.186Zm157.245 1.504c2.393.929 4.319 1.762 5.499 4.227.854 1.784.738 3.827.037 5.637-1.206 3.114-3.936 5.591-7.016 6.79-2.44.949-8.29.724-8.834 1.082l.26.443c4.835.336 9.121.223 12.996-3.161 2.261-1.973 3.956-4.873 4.031-7.926.047-1.864-.539-3.879-1.905-5.204-1.3-1.262-2.975-1.995-4.785-1.908-.094.005-.188.013-.283.02Zm-43.641 5.906a5.906 5.906 0 1 0 .956 11.77 5.906 5.906 0 0 0-.956-11.77Zm-61.184.369a5.786 5.786 0 1 0 4.245 10.762 5.786 5.786 0 0 0-4.245-10.762Zm25.214-.352c.325 4.268 1.088 8.383.52 12.678-.664 5.026-7.605 13.776-2.72 17.947 2.534 2.162 7.248 2.18 10.432 1.8 4.188-.501 8.354-2.044 11.691-4.654-.31-.047-.617-.173-.928-.14-.699.073-2.394 1.243-3.11 1.586-4.28 2.049-9.146 2.964-13.863 2.259-1.632-.244-3.403-.734-4.401-2.161-.957-1.369-.976-3.271-.573-4.832.386-1.491 1.178-2.94 1.836-4.328 2.079-4.382 2.947-7.79 2.766-12.684-.086-2.33-.169-4.728-.988-6.936l-.662-.535Zm-32.964 22.103c-3.618.519-6.932 1.732-9.148 4.825-1.719 2.399-2.269 5.407-1.668 8.282a10.831 10.831 0 0 0 4.68 6.827c2.282 1.501 4.891 2.024 7.579 2.132 3.326-.518 6.184-1.392 8.335-4.19a10.502 10.502 0 0 0 2.048-7.874c-.409-3.031-2.046-5.96-4.513-7.787-2.17-1.606-4.645-2.197-7.313-2.215Zm77.335 0c-3.742.666-7.048 2.011-9.295 5.258a10.446 10.446 0 0 0-1.693 8.125c.617 2.928 2.514 5.413 5.079 6.922 2.279 1.342 4.657 1.67 7.234 1.882 3.574-.628 6.64-1.567 8.834-4.715 1.714-2.459 2.226-5.617 1.619-8.532a10.906 10.906 0 0 0-5.139-7.21c-2.112-1.248-4.25-1.564-6.639-1.73Zm-57.898 25.006c1.349 5.696 3.93 10.382 9.08 13.536 4.782 2.929 10.933 3.893 16.372 2.506a21.16 21.16 0 0 0 9.372-5.299c3.066-3.236 4.824-6.294 6.125-10.558-13.614-.29-27.335-.396-40.949-.185Zm-12.915 30.063c2.292 3.531 14.053 10.258 18.29 11.004.409.072.83.063 1.243.068-3.81-1.929-7.83-3.653-11.53-5.774-2.479-1.422-5.532-4.361-8.003-5.298Zm62.144 1.719c-10.346 8.21-22.762 12.208-35.984 10.731-1.165-.13-5.373-1.187-6.206-.689.274.665.072.444.482.759 12.107 2.609 25.101 1.181 35.674-5.559a43.161 43.161 0 0 0 6.219-4.846l-.185-.396Z" fill="#E9B49C"/><path d="M224.617 160.445c.93-2.711 2.067-5.254 3.918-7.475 3.826-4.591 8.839-6.164 14.559-6.635 3.376-.022 6.931.621 9.998 2.065 1.583.746 3.386 1.664 3.938 3.454.272.881.176 1.487-.237 2.303-2.757 1.822-8.138-1.979-11.325-2.389-3.2-.412-6.34.296-9.368 1.267-4.385 1.635-7.896 4.5-11.483 7.41ZM318.377 153.21c-2.561-.782-4.982-1.305-7.689-1.044-3.165.306-8.525 3.371-11.356 2.306-.385-.444-.637-.596-.739-1.205-.132-.786.009-1.668.544-2.297 2.188-2.573 7.316-3.261 10.482-3.68 2.607-.38 5.616-.124 8.157.552 3.56.946 8.149 2.969 9.934 6.356.457.865.514 1.465.209 2.379-.252.17-.439.323-.754.395-2.418.55-6.092-2.622-8.357-3.582l-.431-.18Z" fill="#4D261D"/><path d="M211.541 191.353c-.117.421-.236.641-.461 1.006a6.892 6.892 0 0 1-1.526.119c-4.182-.061-8.493-1.292-11.419-4.444-1.535-1.655-2.472-3.766-2.365-6.047.13-2.773 1.539-4.96 3.575-6.747.592-.519.831-.668 1.167-1.391-.919-1.649-3.816-1.303-5.308-2.214-.124-.076-.245-.158-.368-.237.384-.106.75-.18 1.151-.185 2.493-.029 4.504 1.303 6.247 2.947-1.268.852-2.504 1.729-3.521 2.884-1.428 1.622-2.306 3.69-2.087 5.874.23 2.301 1.603 4.341 3.379 5.76 3.37 2.694 7.409 3.075 11.536 2.675ZM342.026 191.085l-.26-.443c.544-.358 6.394-.133 8.833-1.082 3.08-1.199 5.811-3.677 7.017-6.79.701-1.811.816-3.853-.037-5.637-1.18-2.465-3.106-3.298-5.499-4.228.095-.006.189-.015.282-.019 1.81-.087 3.485.646 4.786 1.908 1.366 1.325 1.952 3.339 1.905 5.204-.076 3.052-1.77 5.952-4.031 7.925-3.876 3.384-8.161 3.498-12.996 3.162Z" fill="#1C0C0A"/><path d="M480.883 187.339c1.316-4.868 3.107-8.65 7.637-11.365a16.451 16.451 0 0 1 12.681-1.722c4.103 1.101 7.397 3.983 9.464 7.643 3.29 5.829 2.229 14.051 2.195 20.586.012 1.861.648 7.314-.697 8.547-.163.149-.457.32-.651.44-1.327-9.569 3.008-23.918-3.906-31.614-2.716-3.024-6.559-4.669-10.607-4.739-4.004-.068-8.018 1.45-10.809 4.356-3.026 3.152-3.625 6.637-3.532 10.817-1.012-.915-1.321-1.676-1.775-2.949Z" fill="#4D261D"/><path d="M482.657 190.288c-.092-4.18.506-7.665 3.532-10.817 2.791-2.905 6.805-4.424 10.81-4.355 4.048.069 7.89 1.714 10.606 4.738 6.915 7.697 2.579 22.045 3.907 31.614-.304 9.338-.02 18.751-.013 28.097.195 25.454 4.796 49.91 4.592 75.363 5.138.018 6.138.229 11.184.762-3.47 1.147-7.182 1.567-10.728 2.456 5.446 20.415 10.137 41.133 14.914 61.718-7.122-.379-14.716-.71-21.821.01.006-4.819-.231-9.812.292-14.601-1.426-1.112-10.574-.51-12.799-.439.731-4.131.157-9.014.121-13.239l-.169-26.225-.191-87.662-.021-27.793c0-4.027.209-8.111.063-12.129-.036-.977-.248-2.008-.783-2.835-.933 2.138-.654 154.731.088 168.118-.073.455.003 1.09-.431 1.339-1.95 1.113-6.385.201-8.695.352l-.612-.275c-.696-1.629 6.97-40.788 7.596-46.309.378-3.326.268-6.434-2.029-9.119-1.692-1.978-3.857-2.672-6.376-2.849l-2.095-.29c-.188-.195-.468-.331-.562-.584-.524-1.41-.102-14.725-.106-17.233l-.096-65.105.074-19.794c.019-4.256.226-8.68-.252-12.914Z" fill="url(#a)"/><path d="M309.616 190.562a5.9 5.9 0 0 1-5.464-2.394 5.904 5.904 0 0 1 4.3-9.357 5.906 5.906 0 0 1 1.164 11.751Z" fill="#1C0C0A"/><path d="M448.97 201.897c-.04-2.922-.349-5.885-.141-8.801.3-4.221 2.245-8.306 5.527-11.025 3.705-3.069 8.805-3.839 13.472-3.291 6.119.719 9.425 3.959 13.057 8.561.454 1.273.764 2.033 1.776 2.949.478 4.234.27 8.657.251 12.914l-.073 19.794.095 65.105c.004 2.507-.418 15.822.106 17.232.094.254.375.39.562.585l2.096.289c-12.144.234-24.29.279-36.435.135l-.293-104.447Zm14.981 3.254c-.839 4.234-.267 9.455-.265 13.82l.011 29.332.012 27.623c-.001 4.468-.42 9.416.188 13.833l.489.556c.919-3.751.291-10.847.289-14.959l-.016-33.572.019-23.316c.005-4.188.318-8.653-.141-12.802l-.586-.515Z" fill="#F37E60"/><path d="M251.145 190.073a5.786 5.786 0 1 1-3.513-11.026 5.786 5.786 0 0 1 3.513 11.026ZM292.392 206.597c-3.337 2.61-7.503 4.153-11.691 4.654-3.183.38-7.898.362-10.431-1.8-4.886-4.17 2.056-12.921 2.72-17.947.567-4.295-.196-8.41-.52-12.678l.662.535c.819 2.208.901 4.606.988 6.936.18 4.894-.688 8.302-2.767 12.684-.658 1.388-1.449 2.837-1.835 4.328-.404 1.561-.384 3.463.572 4.832.998 1.427 2.77 1.918 4.402 2.161 4.716.705 9.582-.21 13.862-2.259.717-.343 2.411-1.513 3.11-1.586.312-.032.619.094.928.14Z" fill="#1C0C0A"/><path d="M417.399 287.605c.389-18.723.047-37.525.045-56.254-.001-6.852-.676-17.584.357-23.917.432-2.645 1.718-5.183 3.509-7.171 2.944-3.269 7.375-4.94 11.719-5.07 6.029-.179 11.599 2.722 15.935 6.703l.293 104.448c-6.743-.05-13.486-.047-20.229.007-1.801-2.943-3.366-6.038-5.173-8.985-2.037-3.322-4.348-6.482-6.456-9.761Z" fill="#E99E87"/><path d="M496.243 363.068c-.743-13.388-1.022-165.981-.088-168.119.534.827.746 1.858.782 2.835.146 4.019-.063 8.102-.063 12.129l.021 27.794.191 87.661.169 26.226c.037 4.224.61 9.108-.121 13.238-.622-.568-.643-.987-.891-1.764Z" fill="#4D261D"/><path d="M512.854 202.481c3.3-3.923 6.988-6.412 12.206-6.824 4.78-.377 9.583 1.049 13.155 4.313 3.887 3.555 5.441 8.053 5.567 13.187.262 10.573-.203 21.173.014 31.748 4.13-2.794 8.526-4.465 13.599-3.504 4.147.785 8 3.131 10.385 6.64 1.344 1.976 2.165 4.094 2.453 6.458.54 4.407.218 9.06.189 13.505l-.208 23.476c-.04 3.569.502 7.85-.076 11.334-2.613-4.547-5.462 19.506-5.462 19.506v-39.099l-6.081-3.881s.566 4.195-2.979 6.344c-1.7 1.03-1.607 7.392-1.607 7.392l3.386 22.852-3.386 12.819s-5.607 48.584-6.428 50.134c-1.052-1.815-8.554 9.152-9.962 7.713-10.24 7.7-8.962-3.535-8.962-3.535-2.14.934-7.428-3.214-7.428-3.214l-5.142-.964s-4.397-113.862-4.592-139.316c-.007-9.346-.292-18.759.012-28.097.194-.12.487-.291.651-.44 1.345-1.233.709-6.686.696-8.547Zm15.04 12.962c-.731 3.764-.428 82.697.064 84.462l.456.417c.682-4.208.242-9.146.243-13.426l-.032-26.933-.007-28.344c.009-5.084.371-10.463-.105-15.508-.192-.221-.383-.493-.619-.668Z" fill="#D4D4D4"/><path d="M240.948 222.995c-2.689-.108-5.297-.631-7.579-2.131a10.829 10.829 0 0 1-4.681-6.827c-.601-2.875-.051-5.883 1.668-8.282 2.217-3.094 5.531-4.306 9.149-4.825 2.668.018 5.143.608 7.312 2.215 2.468 1.827 4.105 4.755 4.513 7.787a10.498 10.498 0 0 1-2.047 7.873c-2.152 2.799-5.01 3.672-8.335 4.19ZM318.176 223.116c-2.577-.212-4.954-.54-7.234-1.881-2.565-1.509-4.462-3.995-5.079-6.922a10.446 10.446 0 0 1 1.693-8.125c2.247-3.248 5.553-4.592 9.295-5.258 2.389.166 4.528.482 6.64 1.729a10.907 10.907 0 0 1 5.138 7.211c.607 2.914.095 6.073-1.619 8.532-2.193 3.147-5.259 4.086-8.834 4.714Z" fill="#E99E87"/><path d="m464.384 290.314-.489-.556c-.608-4.417-.189-9.365-.188-13.833l-.012-27.623-.011-29.332c-.002-4.365-.574-9.586.265-13.82l.586.515c.459 4.149.146 8.614.141 12.802l-.018 23.316.015 33.572c.002 4.112.63 11.208-.289 14.959ZM528.417 300.32l-.456-.417c-.491-1.764-.795-80.698-.063-84.462.235.175.427.448.619.669.475 5.045.113 10.424.104 15.507l.007 28.345.032 26.933c-.001 4.28.44 9.218-.243 13.425Z" fill="#1C0C0A"/><path d="M293.762 236.678a21.165 21.165 0 0 1-9.372 5.299c-5.439 1.387-11.59.423-16.373-2.506-5.149-3.154-7.73-7.84-9.079-13.536 13.614-.211 27.334-.105 40.949.185-1.301 4.264-3.059 7.322-6.125 10.558Z" fill="#fff"/><path d="M36.35 279.713c-4.519-9.439-10.11-24.586-6.63-34.986 1.325-3.958 3.938-7.247 7.73-9.074 7.447-3.588 17.487-1.147 24.818 1.561 5.39 1.99 10.542 4.515 15.592 7.242 12.033 6.497 23.671 14.118 35.321 21.299 5.112 3.151 11.597 6.375 16.23 10.038.949.749 1.749 1.679 2.214 2.808.189.457.201.889.2 1.375-2.038 4.152-20.713 17.896-25.53 22.093-6.093 4.003-11.534 9.409-17.325 13.887l-14.464 12.069c-2.175 1.798-4.497 4.06-6.983 5.41-.793.431-1.301.592-2.183.291-4.862-1.661-21.56-37.643-24.815-44.238-.477-3.089-2.81-6.916-4.174-9.775Z" fill="#93B1F2"/><path d="M153.545 268.429c20.345-18.738 48.692-28.683 76.121-29.361 2.15 2.545 9.481 11.704 12.119 12.847-.707 1.966-.488 4.426-.499 6.496-.039 6.966.216 13.236 3.239 19.645 2.632 5.579 6.976 10.616 12.237 13.868 6.995 4.913 15.653 6.619 24.076 5.946 9.372-.749 18.691-5.327 24.733-12.568 7.848-9.404 8.498-20.101 7.481-31.828 4.611-4.301 8.238-8.978 11.937-14.051 6.625-.012 13.212-.054 19.773 1.022 21.842 3.583 43.74 16.148 59.331 31.727 4.864 4.861 8.975 10.125 13.312 15.433 2.108 3.279 4.419 6.438 6.456 9.761 1.807 2.947 3.372 6.041 5.174 8.985l-68.044.171c-4.608.019-22.297-.368-25.13.557-.241.079-.391.321-.587.482l-.065.26c-8.738.701-17.735.308-26.501.315l-44.142.033c-6.355-.004-16.753-.718-22.728.109-1.845.255-3.589 1.275-4.835 2.65-1.016 1.121-1.716 2.608-1.979 4.095-.844 4.795-.731 10.116-.984 14.985a1922.562 1922.562 0 0 0-1.43 28.504l-1.713 31.723c-.311 5.617-.824 11.32-.835 16.945-14.57-.076-29.14-.049-43.71.081 1.339-6.82 3.45-13.511 5.148-20.252 2.732-10.844 5.229-21.772 8.258-32.538.911-3.238 6.13-17.529 6.08-19.246-.383-.664-.353-.707-1.07-.953-1.921 1.543-3.734 10.466-4.924 13.346l-.201.48c-.748-15.9-5.099-31.156-15.49-43.547-10.474-12.49-26.543-21.732-42.919-23.133 1.68-1.627 3.158-3.6 4.733-5.342 2.413-2.671 4.969-5.168 7.578-7.647Z" fill="#7FCBB4"/><path d="M256.765 291.922c-5.26-3.251-9.605-8.288-12.237-13.867-3.022-6.409-3.278-12.679-3.239-19.645.012-2.071-.208-4.53.499-6.496 4.38 4.878-5.618 23.502 16.613 39.111l-1.338.061c-.375.579-.317.289-.298.836Z" fill="#5FA791"/><path d="m311.319 255.045 1.728-1.572c1.018 11.727.367 22.424-7.481 31.828-6.041 7.241-15.36 11.819-24.732 12.567-8.423.673-17.082-1.033-24.077-5.946-.019-.547-.077-.257.298-.836l1.338-.062c6.343 3.419 12.497 5.41 19.768 5.195 9.401-.277 18.498-4.07 24.937-10.998 8.378-9.014 8.667-18.543 8.221-30.176Z" fill="#5FA791"/><path d="M265.572 267.072c-.413-.005-.834.004-1.243-.068-4.237-.746-15.998-7.473-18.29-11.004 2.471.937 5.524 3.876 8.003 5.298 3.7 2.121 7.72 3.845 11.53 5.774Z" fill="#E99E87"/><path d="M266.466 268.521c-.41-.316-.207-.095-.482-.76.834-.498 5.042.559 6.207.689 13.221 1.477 25.638-2.521 35.984-10.731l.184.396a43.106 43.106 0 0 1-6.219 4.846c-10.573 6.74-23.566 8.168-35.674 5.56Z" fill="#E99F88"/><path d="M36.351 279.715c1.365 2.859 3.697 6.686 4.174 9.775-2.235 4.563-3.958 9.481-5.976 14.158l-16.217 37.874c4.99 10.838 9.395 21.963 14.182 32.894 6.579 15.022 13.534 30.056 19.463 45.336-2.29.858-5.055.421-7.489 1.043-7.475-16.575-14.43-33.462-21.524-50.208-4.085-9.641-8.523-19.169-12.362-28.908.784-4.426 4.442-11.257 6.257-15.631l19.492-46.333Z" fill="#415888"/><path d="m140.18 282.523 1.052-1.105c16.376 1.402 32.445 10.643 42.919 23.133 10.391 12.391 14.743 27.648 15.49 43.547l.201-.48c1.19-2.88 3.003-11.802 4.924-13.345.718.246.687.288 1.07.953.05 1.716-5.169 16.007-6.08 19.245-3.028 10.767-5.525 21.694-8.258 32.539-1.698 6.741-3.809 13.431-5.148 20.252l-1.992.273.081-1.872c1.39-4.465 2.402-9.051 3.794-13.527.011-.027.023-.052.032-.079 2.017-6.061 3.077-12.513 4.652-18.707 1.522-5.991 3.674-12.077 4.657-18.17 1.855-11.505-1.963-27.554-7.147-37.872-7.261-14.452-20.95-25.903-36.189-31.134-4.53-1.555-9.312-2.046-13.786-3.555a10.87 10.87 0 0 1-.272-.096Z" fill="#5FA791"/><path d="M97.82 362.53c10.514-28.201 23.924-56.106 42.355-80.009.09.033.18.065.272.096 4.474 1.509 9.256 2 13.786 3.555 15.239 5.231 28.928 16.682 36.189 31.134 5.184 10.318 9.002 26.367 7.147 37.872-.983 6.093-3.135 12.179-4.657 18.17-1.575 6.194-2.635 12.646-4.652 18.707-.009.027-.021.052-.032.079-2.564-.685-5.425-.883-8.056-1.299a264.179 264.179 0 0 1-14.176-2.643c-17.45-3.857-35.039-8.869-51.231-16.542-5.803-2.75-11.328-6.018-16.945-9.12Z" fill="#7FCBB4"/><path d="M88.969 315.955c5.79-4.478 11.232-9.884 17.325-13.887 1.698 2.317 2.546 5.358 2.053 8.218-.517 2.996-2.472 5.613-5.005 7.24a10.968 10.968 0 0 1-8.787 1.429c-2.175-.552-3.864-1.607-5.586-3Z" fill="#E9B49C"/><path d="m335.209 307.821.065-.26c.195-.16.346-.403.586-.481 2.833-.926 20.523-.538 25.131-.558l68.043-.171c6.743-.054 13.486-.057 20.229-.007 12.144.144 24.291.099 36.434-.135 2.519.177 4.684.872 6.376 2.849 2.296 2.686 2.406 5.793 2.029 9.119-.626 5.521-8.292 44.68-7.596 46.309l.612.275-.376.584.133.334c-.594.22-.752.117-1.029.726-1.272 2.792-3.969 21.26-4.822 25.919a4354.496 4354.496 0 0 1-10.661 55.021c-.75 3.823-.864 7.119-3.196 10.352-.468.648-1.568 1.839-1.271 2.689.857 2.454 2.623 3.536 1.66 6.486-.633 1.945-2.076 3.629-3.61 4.937l54.193-.019 54.252-.06c7.807.003 16.972-.616 16.972-.616H597.076s2.893.45 3.857.581c5.041-.057 10.947-1.004 14.887 2.798 3.997 3.855 2.736 15.51 2.714 20.957-.603-.113-1.196-.264-1.792-.407-1.047-1.837-.307-6.527-.228-8.669.125-3.418.425-8.086-2.191-10.709-1.666-1.67-4.033-1.919-6.272-1.994-9.705-.325-19.518-.029-29.231-.022l-56.362.022-173.473.015-209.221-.093-80.928.078c-17.395.001-34.836-.279-52.226.079-.667.387-1.368.778-1.943 1.296-4.345 3.919-2.12 14.623-2.572 20.163l-.033.362-1.56-.438c-.296-.806-.293-1.545-.319-2.392-.166-5.403-1.01-14.857 3.113-18.946 3.346-3.318 16.594-2.047 21.424-2.076 7.28-.254 14.628-.063 21.915-.062l40.755.027c7.587.002 15.302.29 22.866-.175l2.178-.078c3.177.367 6.671.12 9.882.117l19.143-.025 59.106.13c-.424-.321-.843-.638-1.243-.989-1.931-1.695-3.553-3.687-3.666-6.356-.072-1.668.663-3.152 1.845-4.303.814-.793 1.726-1.245 2.84-1.455 3.196-.601 6.798-.288 10.047-.275 5.547.05 11.094.044 16.64-.018 3.452-.022 6.935-.141 10.383.011.73.141 1.424.253 2.164.328.585.06.784.164 1.242.508-1.207.811-3.383.771-4.844 1.283-1.886 1.041-4.577 2.512-5.298 4.679-.335 1.005-.255 1.928.289 2.83.865 1.439 2.352 2.376 3.704 3.31 8.646 1.156 18.688.378 27.493.385l54.075.023 92.607.082c16.275.024 32.986.535 49.214-.048 1.785-.064 3.241-.428 4.708-1.487 1.442-1.043 2.643-2.578 2.938-4.369.221-1.336-.057-2.612-.86-3.706-.602-.821-1.388-1.349-2.346-1.689.127-.71.398-1.261.7-1.91.929-.404 1.852-.791 2.586-1.51.859-.844 1.123-1.835 1.403-2.97 1.191-4.836 1.951-9.87 2.896-14.763a2920.09 2920.09 0 0 0 5.551-29.046c3.837-20.379 8.034-40.674 11.504-61.124l3.271-19.216c.768-4.255 2.024-8.875 2.102-13.195.05-2.753-.23-4.876-2.271-6.878-1.402-1.374-2.654-1.596-4.548-1.767-5.637-.509-11.591-.149-17.259-.145l-31.782.013-101.441-.065Zm-133.756 152.49c-1.303.224-2.675.514-3.526 1.637-.757 1-.677 2.562-.341 3.71.617 2.107 2.32 3.556 4.242 4.48 5.065 2.434 22.737 1.396 29.4 1.37l.209-.261c-1.313-1.694-3.048-3.495-2.673-5.796.343-2.105 2.216-3.824 3.658-5.268-10.307.026-20.67-.18-30.969.128Z" fill="url(#b)"/><path d="M230.054 407.181c.011-5.626.523-11.328.835-16.946l1.712-31.722c.406-9.505.883-19.007 1.431-28.504.253-4.869.14-10.19.984-14.985.262-1.487.962-2.974 1.979-4.095 1.245-1.375 2.989-2.395 4.834-2.65 5.975-.827 16.373-.113 22.728-.109l44.142-.033c8.766-.007 17.763.386 26.502-.316l101.441.065 31.782-.013c5.668-.004 11.622-.363 17.259.146 1.894.171 3.146.392 4.547 1.766 2.042 2.002 2.322 4.125 2.272 6.878-.078 4.32-1.334 8.94-2.102 13.195l-3.271 19.217c-3.47 20.449-7.668 40.744-11.504 61.124a2948.91 2948.91 0 0 1-5.551 29.045c-.945 4.894-1.706 9.928-2.897 14.764-.279 1.135-.543 2.125-1.403 2.969-.733.719-1.657 1.106-2.585 1.51-2.826-.354-5.906-.16-8.76-.17l-16.108-.038-53.9-.074-96.979-.051c-16.625.003-33.433-.519-50.039.114-3.449-.151-6.931-.032-10.383-.011-.154-6.935.623-14.146 1.052-21.07.62-9.994 1.086-20.033 1.982-30.006Zm124.48-39.036a12.587 12.587 0 1 0 3.256 24.959c6.811-.987 11.567-7.261 10.677-14.085-.89-6.824-7.097-11.668-13.933-10.874Z" fill="#ECECEC"/><path d="M112.43 471.43c-1.994-1.338-5.164-2.039-7.451-2.975-7.856-3.212-14.912-9.357-19.32-16.6-10.91-17.928-6.647-36.539-.313-55.12 2.386-6.9 4.838-13.778 7.353-20.631 1.627-4.356 3.964-8.709 5.046-13.227.027-.115.052-.231.078-.346 5.616 3.103 11.141 6.37 16.944 9.12 16.192 7.673 33.781 12.685 51.231 16.542a263.377 263.377 0 0 0 14.176 2.643c2.632.417 5.493.614 8.056 1.299-1.392 4.476-2.404 9.063-3.794 13.527-4.106.339-37.629 3.11-39.841 4.258-.213.111-.321.357-.482.536.062.475-.031.727.384 1.042.737.558 1.645.573 2.534.546 3.814-.113 7.719-.932 11.531-1.302 7.626-.74 16.294-.866 23.678-2.519.741-.166 1.435-.344 2.115-.689l1.992-.273c14.57-.13 29.141-.157 43.711-.081-.896 9.973-1.362 20.012-1.982 30.006-.429 6.924-1.206 14.135-1.052 21.07-5.546.063-11.093.069-16.64.018-3.249-.013-6.851-.325-10.047.276-1.115.209-2.027.661-2.84 1.454-1.182 1.152-1.917 2.635-1.846 4.304.114 2.668 1.736 4.66 3.667 6.355.4.351.818.669 1.243.989l-59.106-.13-19.144.026c-3.21.002-6.704.25-9.881-.118Z" fill="#E9B49C"/><path d="M496.245 363.07c.249.777.269 1.197.892 1.765 2.225-.071 11.372-.673 12.798.439-2.083 1.173-19.559.439-23.06.405l-.133-.335.377-.583c2.309-.151 6.745.761 8.694-.353.435-.248.359-.883.432-1.338Z" fill="#1C0C0A"/><path d="M486.866 365.678c3.501.034 20.977.768 23.061-.405-.523 4.789-.287 9.782-.292 14.601-2.666 2.163-4.444 4.536-4.731 8.069-.194 2.378.421 5.155 2.007 6.992.241.28.5.541.761.8 1.386 13.952 3.526 27.921 5.493 41.801 1.616 11.404 3.022 22.905 4.966 34.253l-54.193.019c1.534-1.308 2.977-2.992 3.61-4.937.963-2.95-.803-4.032-1.66-6.486-.297-.85.803-2.041 1.271-2.689 2.332-3.233 2.445-6.529 3.196-10.352a4372.349 4372.349 0 0 0 10.661-55.021c.853-4.659 3.55-23.127 4.821-25.919.277-.609.436-.506 1.029-.726Z" fill="#6683C2"/><path d="M357.79 393.103a12.585 12.585 0 0 1-13.405-17.342 12.589 12.589 0 0 1 10.148-7.617c6.836-.794 13.043 4.05 13.934 10.874.89 6.824-3.866 13.098-10.677 14.085Z" fill="#fff"/><path d="M184.36 407.532c-.681.346-1.375.524-2.116.689-7.383 1.654-16.051 1.779-23.677 2.519-3.813.371-7.718 1.189-11.532 1.303-.889.026-1.797.011-2.533-.547-.416-.315-.322-.567-.385-1.042.161-.178.269-.425.482-.536 2.212-1.148 35.735-3.918 39.841-4.258l-.08 1.872Z" fill="#E99E87"/><path d="M51.978 419.75c.063.071.115.152.188.213.875.733 5.588 1.365 7.053 1.844 10.143 3.311 14.65 15.612 16.407 25.061 1.52 8.182 1.462 16.343 1.475 24.618 11-.026 22.175-.472 33.157.022-7.564.465-15.28.176-22.866.174l-40.755-.027c-7.288-.001-14.636-.191-21.916.062-.038-12.485-.393-25.786 4.958-37.379 3.257-7.057 7.547-10.863 14.81-13.545 2.434-.622 5.2-.185 7.49-1.043Z" fill="#93B1F2"/><path d="M237.407 458.269c16.606-.634 33.413-.112 50.038-.114l96.98.051 53.9.073 16.108.039c2.853.01 5.934-.184 8.76.17-.303.649-.573 1.2-.7 1.91-3.023.271-6.214.069-9.256.059l-17.628-.06-54.477-.08-97.715-.046c-15.79.008-31.67.485-47.448.117 1.461-.512 3.636-.472 4.843-1.283-.457-.344-.656-.448-1.241-.507a23.883 23.883 0 0 1-2.164-.329Z" fill="#5D4130"/><path d="M231.232 471.508c-6.664.025-24.335 1.063-29.4-1.371-1.923-.924-3.625-2.373-4.243-4.48-.336-1.148-.416-2.709.341-3.709.851-1.124 2.224-1.414 3.526-1.637 10.3-.309 20.662-.103 30.969-.129-1.442 1.444-3.314 3.163-3.657 5.269-.375 2.3 1.36 4.101 2.673 5.796l-.209.261Z" fill="#ECECEC"/><path d="M462.491 460.397c.957.34 1.744.868 2.346 1.689.802 1.094 1.08 2.37.86 3.706-.295 1.791-1.497 3.326-2.939 4.369-1.467 1.059-2.922 1.423-4.708 1.487-16.228.583-32.939.073-49.214.048l-92.607-.082-54.074-.023c-8.805-.007-18.847.771-27.494-.385-1.352-.934-2.838-1.871-3.704-3.31-.543-.902-.624-1.825-.289-2.83.721-2.167 3.412-3.638 5.298-4.679 15.779.368 31.658-.109 47.449-.117l97.714.046 54.477.079 17.629.061c3.041.01 6.233.212 9.256-.059Z" fill="#ECECEC"/><path d="m2.066 495.57.033-.363c.451-5.539-1.773-16.243 2.572-20.162.575-.518 1.276-.909 1.943-1.297 17.39-.357 34.83-.077 52.226-.078l80.928-.078 209.221.093 173.472-.015 56.363-.022c9.713-.008 19.526-.303 29.231.021 2.239.076 4.606.325 6.272 1.995 2.615 2.623 2.316 7.29 2.19 10.708-.078 2.143-.818 6.833.229 8.67.596.143 1.189.294 1.792.407l-445.662.05-123.068-.092-33.092-.029c-4.628.002-10.114-.57-14.65.192Z" fill="#D4987C"/><path d="M569.953 275.904c-2.196-.34-6.21-.098-8.605-.095-2.89.003-6.51-.201-9.318.045-.526.046-1.053.186-1.483.507a2.53 2.53 0 0 0-.984 1.723c-.285 2.868-.039 6.548-.038 9.527l.004 19.731-.001 6.342c1.541-.163 3.169-.079 4.718-.077 2.963-.001 5.925.015 8.888.05 1.919.018 3.891.111 5.804-.056-1.19-.069-2.405-.021-3.597-.023l-.001-37.663c1.537.013 3.077.052 4.613-.011Zm-14.543 13.633c.541.312.864.614 1.229 1.116.054 1.981.164 4.041-.013 6.015-.398.536-.741.984-1.45 1.054-.213.021-.433.012-.647.005-.545-.314-.884-.581-1.061-1.206-.382-1.347-.455-5.092.225-6.287.162-.285.423-.549.738-.657.316-.108.655-.073.979-.04Z" fill="#89A2D8"/><path d="m571.951 277.495-.057-.095c-.495-.795-1.029-1.282-1.948-1.496-1.536.063-3.077.024-4.613.011v37.663c1.193.002 2.408-.046 3.597.023l3.061-.03-.017-5.057-.001-21.114c.005-3.298.07-6.609-.022-9.905Z" fill="#6683C2"/><path d="M531.273 295.508c-1.467-3.956-3.002-8.709-4.745-12.481-.293 4.263-.515 8.558-.968 12.807l.058.196c.562.329 4.701-.442 5.655-.522Z" fill="#554148"/><path d="M556.643 290.652c-.365-.501-.688-.803-1.229-1.116-.324-.032-.663-.067-.979.041-.315.108-.576.372-.738.657-.68 1.195-.607 4.94-.225 6.287.177.625.516.891 1.061 1.206.214.007.434.016.647-.005.709-.07 1.052-.519 1.45-1.054.177-1.974.067-4.034.013-6.016Z" fill="#FEFEFE"/><path d="M531.276 295.512c-.954.08-5.093.851-5.655.522l-.059-.196c-.277.956-.156 2.774-.228 3.836-.202 3.024-.416 6.093-.84 9.094-.143 2.152-.436 4.277-.617 6.422 1.685-.139 3.385-.432 5.062-.656 3.26-.435 6.543-.866 9.819-1.156-.26.002-.571.038-.809-.079-.508-.249-2.098-5.129-2.352-5.84-1.302-4.022-2.803-8.001-4.321-11.947Z" fill="#E9B49C"/><path d="M488.156 310.506c-.836-2.226-1.58-4.667-2.624-6.797-.606-1.235-1.226-1.795-2.504-2.241-.708-.053-1.36-.072-2.053.114-.975.261-1.776.767-2.258 1.675a4.002 4.002 0 0 0-.435 2.294c.206 2.035 1.926 5.511 2.602 7.648.434-.329.887-.638 1.33-.956 1.859-1.1 3.821-1.498 5.942-1.737ZM497.497 316.12c-1.898-2.493-4.336-4.137-7.486-4.563-2.798-.379-5.907.454-8.146 2.17-2.361 1.81-4.023 4.641-4.378 7.598-.272 2.257.15 4.305.961 6.407-.962.383-1.93.809-2.382 1.819-.557 1.245.089 2.558.566 3.713.741 1.966 1.92 5.949 2.905 7.609.22.37.507.677.9.863.398.189.826.226 1.259.266 1.219-.313 2.405-.943 3.545-1.473 2.463-1.145 4.978-2.482 7.564-3.315l.666-.317c3.737-1.536 7.44-3.155 11.184-4.672.719-.322 1.437-.657 2.167-.954 3.559 9.157 7.25 18.316 10.56 27.564l-2.105.832-.149.132c.381 1.5 1.122 3.48 1.869 4.836l2.613-.944c.54 1.626 1.211 4.512 2.536 5.652.348.3.779.475 1.244.405.555-.082 1.179-.539 1.491-.993.204-.299.192-.475.111-.823-.463-1.978-1.438-4.019-2.164-5.929l-5.018-13.037-7.364-19.473c-1.172-3.099-2.218-6.358-3.562-9.375-.265-.594-.735-1.209-1.316-1.525-1.583-.86-4.624.836-6.232 1.373-.425-1.402-1.064-2.61-1.839-3.846Z" fill="#554148"/><path d="M574.314 318.352c-.071-1.254.371-3.157-.546-4.156-.445-.485-1.144-.586-1.765-.624l-3.06.03c-1.914.167-3.885.074-5.805.056a731.326 731.326 0 0 0-8.887-.05c-1.549-.001-3.178-.086-4.718.077-.653.248-1.214.491-1.52 1.16-.44.965-.198 2.36-.199 3.395l14.505.013c2.537.003 5.235-.159 7.757.089 1.41-.047 2.827-.002 4.238.01Z" fill="#91AEEE"/><path d="M538.763 313.377c-3.275.291-6.559.721-9.818 1.156-1.677.224-3.377.517-5.062.656-.321.128-.491.131-.664.438-.003 1.407.245 2.836.42 4.232.352 2.796.782 5.606 1.008 8.414l9.684-1.219c2.048-.248 4.148-.4 6.177-.771-.845-4.226-1.138-8.634-1.745-12.906Z" fill="#554148"/><path d="m615.309 314.978-.237-.14c-1.054.431-5.098 5.844-6.413 7.112-1.1 1.262-3.592 3.647-4.209 5.049.454.07.733.12 1.022.518.744 1.025.936 2.298 1.749 3.347l.111.145.068.086c3.077 1.505 5.705-.765 7.557 1.267.949 1.35 1.96 2.918 3.716 3.24 1.444.265 2.771-.368 4.036-.976l.227-.117c.392-.162.698-.253 1.113-.1.797.292 1.214 1.299 1.538 2.013.47-1.721-.277-5.625-.271-7.656-.377-2.405-.388-4.944-.543-7.376-.046-.732.011-1.857-.221-2.523-.101-.29-.418-.305-.68-.391-.059.003-.119.013-.178.008-.807-.064-8-2.978-8.385-3.506Z" fill="#E9B49C"/><path d="m574.3 319.791.012-1.439c-1.41-.013-2.827-.057-4.237-.011-3.429.217-6.968.045-10.408.035-3.937-.012-7.939.11-11.869-.073.037.463-.005 1.227.266 1.605 3.63.167 7.327.029 10.964.017 1.245-.368 12.964-.131 15.272-.134Z" fill="#FEFEFE"/><path d="M573.307 344.697c.561-.116 1.162-.309 1.619-.662.629-.485.761-1.212.83-1.962.116-1.275.043-2.6.04-3.882l-.017-6.568c-.006-3.279.227-6.655.037-9.918-.027-.454-.047-.916-.347-1.28-.486-.272-.936-.39-1.49-.454-1.537-.177-3.206-.05-4.756-.046-3.4.026-6.8.026-10.201 0-3.637.012-7.334.15-10.964-.017-.577-.028-1.157-.012-1.609.4-.643.587-.455 2.088-.458 2.917l-.007 12.819c.001 2.198-.231 4.66.168 6.814.074.399.245.703.52.998.456.49 1.084.695 1.729.797 1.171-.12 6.413-.269 7.291.057 1.782.259 3.894.049 5.711.044l11.904-.057Z" fill="#6683C2"/><path d="M540.499 326.283c-2.029.37-4.129.523-6.177.771l-9.684 1.219c.118 1.928.425 3.873.657 5.791l1.604 12.596c1.32 10.617 2.509 21.226 4.155 31.802l7.945-.002c-.489-2.124-.633-4.498-.927-6.664l-2.221-17.495-2.196-16.247c-.365-2.679-1.122-6.421-1.01-9.04.239.441.397.992.461 1.492l6.216 47.959c2.872-.035 5.744-.042 8.616-.022l-.009-2.163c-1.051-1.88-1.781-9.829-2.152-12.379a1497.114 1497.114 0 0 1-3.305-22.791c-.662-4.945-1.12-9.907-1.973-14.827Z" fill="#E9B49C"/><path d="m607.406 331.094-.068-.086-.111-.145c-.812-1.049-1.004-2.322-1.748-3.346-.289-.398-.569-.449-1.022-.519-.53.448-.903.813-1.24 1.433-.855 1.57-1.51 3.295-2.22 4.935l-4.464 10.577a501.814 501.814 0 0 0-5.205 12.591c-.836 2.079-7.755 27.786-8.417 29.926 1.53 1.077 1.214.476 2.694 1.616 1.541-2.728 10.702-28.998 11.904-32.04l7.273-18.257c.453-1.15 2.095-5.947 2.624-6.685Z" fill="#F37E60"/><path d="m539.328 378.465-6.216-47.959a4.438 4.438 0 0 0-.461-1.492c-.112 2.619.645 6.361 1.01 9.04l2.196 16.247 2.221 17.495c.294 2.166.438 4.54.927 6.664l.323.005Z" fill="#E99E87"/><path d="M614.961 332.361c-1.852-2.032-4.48.238-7.558-1.267.012.442-.107.795-.25 1.208-.783 2.257-1.724 4.481-2.6 6.704a1089.24 1089.24 0 0 1-5.164 12.919c-1.939 4.811-9.976 28.764-12.172 33.457 2.17 1.836 5.391-1.317 7.542.539.552-.941 6.314-16.279 6.712-17.302a357.32 357.32 0 0 0 3.054-8.144l7.519-20.151 1.907-5.279c.317-.883.549-1.869 1.01-2.684Z" fill="#F37E60"/><path d="M607.405 331.094c-.529.738-2.171 5.535-2.623 6.685l-7.273 18.257c-1.203 3.042-7.686 21.77-9.228 24.497l1.078-.538c2.197-4.693 8.093-23.259 10.032-28.07a1089.24 1089.24 0 0 0 5.164-12.919c.876-2.223 1.817-4.447 2.6-6.704.143-.413.262-.766.25-1.208Z" fill="#9B4337"/><path d="M504.643 332.227c-3.744 1.517-7.447 3.136-11.184 4.671.939 1.872 1.6 3.959 2.348 5.919l4.22 11.01a738.176 738.176 0 0 1 6.562 17.211c.889 2.391 2.097 4.921 2.664 7.407 4.273.07 8.558.004 12.833-.006-.796-1.455-1.284-3.333-1.845-4.903a594.789 594.789 0 0 0-3.256-8.899c-.747-1.357-1.488-3.336-1.869-4.836l.149-.132c-.537-.483-9.386-24.34-10.622-27.442ZM622.719 334.625c-1.264.608-2.591 1.242-4.036.977-1.756-.322-2.767-1.891-3.716-3.241-.135 1.857-1.549 4.91-2.24 6.797l-5.414 14.507-4.759 12.773c-.698 1.819-5.879 15.041-6.721 16.79l6.465 4.849c.548-.955 5.534-13.193 5.917-14.233l2.742-7.522 6.706-18.236c1.619-4.473 3.09-9.137 5.056-13.461Z" fill="#F37E60"/><path d="M614.961 332.361c-.461.815-.693 1.801-1.01 2.684l-1.907 5.279-7.519 20.151a357.32 357.32 0 0 1-3.054 8.144c-.398 1.023-4.544 12.053-5.096 12.993l1.077-1.616c.842-1.75 4.397-11.739 5.095-13.558l4.759-12.773 5.415-14.507c.69-1.887 2.104-4.94 2.24-6.797Z" fill="#9B4337"/><path d="M622.942 334.508c-.287 1.309-1.007 2.648-1.487 3.913a803.981 803.981 0 0 0-3.057 8.28 1601.138 1601.138 0 0 1-6.858 18.615c-1.45 3.978-4.362 12.399-6.012 16.296.461.437 2.161-1.413 2.694-1.078 2.209-.002 2.65.126 4.849 0-.763-.059.659-2.156-.107-2.171 1.703-5.641 3.637-11.217 5.466-16.818l7.57-23.473-.408-1.651c-.324-.714-.74-1.72-1.537-2.013-.415-.152-.722-.061-1.113.1Z" fill="#F37E60"/><path d="M604.991 382.688c1.649-3.897 5.387-12.929 6.552-17.372a1601.346 1601.346 0 0 0 6.859-18.616 789.35 789.35 0 0 1 3.057-8.279c.48-1.266 1.2-2.604 1.486-3.913l-.227.117c-1.966 4.324-3.437 8.987-5.056 13.46l-6.706 18.237-2.742 7.522c-.383 1.04-4.292 10.044-4.84 10.999l1.617-2.155Z" fill="#9B4337"/><path d="M509.273 378.443c-.566-2.485-1.775-5.016-2.663-7.407a739.897 739.897 0 0 0-6.562-17.211l-4.22-11.01c-.748-1.96-1.409-4.046-2.348-5.919l-.666.318c3.552 10.473 7.742 20.696 11.582 31.062a677.74 677.74 0 0 0 2.492 6.579c.437 1.144 1.024 2.395 1.274 3.589l1.111-.001Z" fill="#FEFEFE"/><path d="M492.808 337.215c-2.585.833-5.1 2.17-7.563 3.315-1.141.53-2.326 1.159-3.545 1.473 3.578 10.457 7.96 20.645 11.634 31.068.527 1.494 1.834 3.901 2.028 5.353 4.265.038 8.53.045 12.794.02-.249-1.193-.837-2.445-1.273-3.589a643.542 643.542 0 0 1-2.493-6.578c-3.839-10.366-8.029-20.589-11.582-31.062Z" fill="#F37E60"/><path d="M555.688 344.711c-.879-.326-6.121-.177-7.291-.057l.023.057c2.349.281 4.817.135 7.183.126l.085-.126Z" fill="#4364B4"/><path d="m573.303 344.695-11.904.057c-1.817.005-3.929.216-5.711-.044l-.085.125c-.202 4.388-.099 8.825-.163 13.22-.098 6.795-.293 13.609-.185 20.404l18.409-.015-.507-.137c-.364-.769.107-30.016.146-33.61Zm-5.754 16.735c.76.331 1.64.754 1.988 1.564.571 1.328.316 13.138.292 15.354l-4.004-.002-2.084-.007-.027-9.586c-.005-1.627-.194-3.483.114-5.08.099-.507.34-.974.695-1.35.551-.575 1.434-.939 2.229-.938.266.001.532.023.797.045Z" fill="#89A2D8"/><path d="M555.602 344.833c-2.366.009-4.834.155-7.183-.126-.186 10.517-.511 21.053-.494 31.571l.009 2.163c2.437.057 4.882.015 7.32.015-.109-6.795.086-13.609.185-20.403.063-4.396-.039-8.833.163-13.22Z" fill="#6683C2"/><path d="M569.836 378.349c.025-2.215.28-14.025-.291-15.353-.349-.81-1.228-1.234-1.988-1.564-.265-.022-.532-.045-.797-.045-.795-.002-1.678.362-2.23.938a2.73 2.73 0 0 0-.694 1.349c-.308 1.598-.12 3.454-.115 5.081l.028 9.585 2.084.008 4.003.001Z" fill="#ECECEC"/><path d="M539.644 380.916c1.629-.011 7.284-.277 8.537.094l.89.065c1.321-.132 2.758-.03 4.089-.03 3.51.002 7.075.127 10.579-.056 1.088-.269 4.916-.139 6.084.056 1.036.025 2.075.068 3.111.039-.041 7.398-.04 14.797.001 22.196.006 4.058-.2 8.203.048 12.248.544-1.267.94-2.64 1.382-3.948 1.119-3.312 2.126-6.662 3.21-9.986 2.239-6.864 4.729-13.67 6.849-20.568l9.897-.035c6.312-.1 12.704-.186 19.012-.015l-4.558 12.265a953.057 953.057 0 0 0-12.6 37.954 460.021 460.021 0 0 0-2.753 8.806c-.77 2.558-1.474 5.155-2.401 7.661-4.401-7.098-9.056-14.079-13.642-21.062-1.153-1.756-2.284-3.53-3.453-5.275-.648-.967-1.38-1.909-1.975-2.908l-6.351-9.555c-1.073-1.612-2.082-3.438-3.352-4.888-.547-.624-1.321-1.34-2.16-1.521-.801-.173-1.773.073-2.445.521-.606.404-1.084 1.039-1.207 1.766-.085.503-.009.961.194 1.424.832 1.892 2.314 3.709 3.473 5.433 1.929 2.867 3.732 5.813 5.641 8.693 1.159 1.749 2.906 4.034 3.824 5.838 3.901 5.68 7.559 11.569 11.31 17.351l4.805 7.44c.941 1.462 1.953 2.915 2.79 4.439a819.848 819.848 0 0 0-5.911 17.485c2.536.149 5.14.03 7.684.026l14.359-.05c.343-2.041.558-4.119.845-6.169l1.85-13.101 5.864-41.419 2.919-20.592c.439-3.084 1.407-7.874 1.317-10.81-.013-.449-.275-.873-.644-1.145-.706-.521-16.992-.279-18.924-.279l-71.376.123-21.537.012c-3.604-.001-7.895-.262-11.407.132-.341.216-.623.447-.776.834-.268.676-.144 1.534-.06 2.239a1340.93 1340.93 0 0 0 3.057 22.585 4950.612 4950.612 0 0 0 6.986 49.863c.527 3.662 1.069 7.332 1.545 11 .203 1.565.396 5.311.953 6.58.393.195.87.129 1.3.117.022-3.854.222-7.702.251-11.556.013-1.769-.251-6.081.07-7.542.966-.377 5.576-6.18 6.449-7.416.715-1.011 1.276-2.112 1.984-3.12l.065-.089c.527-1.139 1.081-2.22 1.852-3.215.952.914 1.581 2.114 2.256 3.235.31.541.592 1.109 1.029 1.558l.342.049c-2.407-6.802-5.141-13.467-7.74-20.195a3047.375 3047.375 0 0 1-11.347-29.688c-1.738-4.548-3.639-9.081-5.246-13.674l7.927-.009c1.544-.003 3.136.059 4.673-.081 1.632 3.772 2.954 7.725 4.413 11.571l9.255 24.687a4600.089 4600.089 0 0 1 20.571 55.485l1.189.007c-3.083-7.99-5.874-16.099-8.84-24.134l-16.099-43.017-6.161-16.432c-1.018-2.696-1.959-5.438-3.097-8.085h12.83c1.272 3.162 2.365 6.423 3.557 9.618l8.919 23.737c.123-.257.134-.427.118-.705-.194-3.367-.885-6.829-1.343-10.174a1636.505 1636.505 0 0 1-3.056-22.599c2.69-.032 5.385-.135 8.076-.082l.23-.007Z" fill="#9BB4EB"/><path d="M613.328 380.977c-6.308-.172-12.701-.086-19.012.015 1.556 1.5 3.325 2.821 4.985 4.207 3.172 2.647 6.364 5.319 9.468 8.043l4.559-12.265Z" fill="#554148"/><path d="M569.819 381.047c-1.168-.195-4.996-.325-6.083-.057l-.005 16.633c.001 1.981-.235 5.472.104 7.243.132.69.513 1.419.989 1.935.59.639 1.365.965 2.232.974.773.007 1.508-.21 2.05-.784.413-.438.594-.934.675-1.524.356-2.602.117-5.525.116-8.163a1190.55 1190.55 0 0 0-.078-16.257Z" fill="#ECECEC"/><path d="M548.181 381.011c-1.253-.371-6.908-.105-8.538-.094.423 2.11.589 4.315.871 6.45l1.589 11.625 5.387 40.227c.538 4.091 1.098 8.178 1.68 12.263.327 2.426.487 4.985 1.135 7.344l.023.092c2.427-.268 4.849-.625 7.274-.921.182-1.721-.326-3.874-.558-5.594-.506-3.746-1.125-7.505-1.455-11.27-.746-4.366-1.13-8.854-1.674-13.255l-2.913-23.606-1.897-15.321c-.326-2.62-.799-5.309-.924-7.94Z" fill="#E9B49C"/><path d="m539.636 380.914-.23.007c-.143 1.253.308 2.942.487 4.213l1.22 8.746 5.862 43.986a984.58 984.58 0 0 1 2.069 14.904c.218 1.602.898 4.814.713 6.211l.563-.066-.023-.092c-.648-2.359-.808-4.918-1.135-7.344-.582-4.085-1.142-8.172-1.68-12.263l-5.387-40.227-1.589-11.625c-.282-2.135-.447-4.34-.87-6.45Z" fill="#E99E87"/><path d="M539.414 380.923c-2.69-.053-5.386.05-8.076.082.966 7.54 1.985 15.073 3.056 22.599.458 3.345 1.15 6.807 1.343 10.174.016.278.006.448-.118.705 1.161 3.594 1.534 9.172 2.047 13.096.47 3.605 4.044 31.445 4.745 32.391 2.425-.486 4.896-.735 7.354-.988.185-1.396-.495-4.608-.713-6.21a970.301 970.301 0 0 0-2.069-14.904l-5.862-43.986-1.22-8.746c-.178-1.271-.63-2.961-.487-4.213Z" fill="#E9B49C"/><path d="m594.32 380.992-9.897.035c-2.12 6.898-4.61 13.704-6.849 20.568-1.085 3.324-2.091 6.674-3.211 9.986-.441 1.308-.838 2.681-1.381 3.948a48.39 48.39 0 0 1-1.032 2.889c.595.999 1.327 1.941 1.975 2.908 1.169 1.745 2.3 3.519 3.453 5.275 4.585 6.982 9.241 13.964 13.642 21.062.927-2.506 1.63-5.103 2.4-7.661.889-2.944 1.807-5.88 2.754-8.806a954.661 954.661 0 0 1 12.599-37.954c-3.104-2.723-6.296-5.395-9.468-8.043-1.66-1.385-3.429-2.706-4.985-4.207Zm6.813 17.844c1.025.402 1.855.926 2.296 1.98.272.648.244 1.157.127 1.837-.333 1.944-1.22 3.905-1.822 5.784-.69 2.156-1.215 4.526-2.133 6.583-.372.836-.921 1.49-1.797 1.833-.68.266-1.31.242-2.02.155-.952-.385-1.721-.856-2.164-1.823-.182-.397-.343-.927-.322-1.368.105-2.146 1.568-5.593 2.26-7.676.554-1.665 1.027-3.409 1.686-5.032.387-.953.842-1.652 1.834-2.056.661-.269 1.355-.274 2.055-.217Z" fill="#F37E60"/><path d="M572.935 381.085c-1.035.03-2.075-.013-3.11-.038.063 5.419.089 10.838.078 16.257 0 2.638.24 5.561-.116 8.163-.081.59-.262 1.086-.676 1.524-.541.574-1.276.791-2.049.784-.867-.009-1.643-.335-2.232-.974a4.156 4.156 0 0 1-.989-1.935c-.34-1.771-.104-5.262-.105-7.243l.005-16.633c-3.505.183-7.07.058-10.58.057-1.33-.001-2.768-.102-4.088.03.912.389 4.729.103 5.873.083a716.972 716.972 0 0 0 .662 49.313c.07 1.665.67 9.856-.017 10.66.33 3.765.949 7.524 1.455 11.27.232 1.72.74 3.874.558 5.594a69.287 69.287 0 0 1-.227 5.543c-.107 1.274-.315 2.572-.372 3.846.893-1.476 1.286-3.741 1.767-5.41l2.131-7.314c2.825-9.53 5.714-19.041 8.666-28.533-.917-1.803-2.664-4.089-3.823-5.838-1.909-2.88-3.713-5.825-5.641-8.693-1.159-1.723-2.641-3.54-3.473-5.433-.204-.462-.28-.921-.195-1.423.123-.728.601-1.362 1.207-1.766.673-.448 1.645-.694 2.446-.522.839.181 1.612.898 2.159 1.522 1.271 1.449 2.28 3.276 3.352 4.887l6.352 9.556a48.41 48.41 0 0 0 1.031-2.89c-.247-4.045-.042-8.189-.047-12.248-.042-7.398-.042-14.797-.002-22.196Z" fill="#89A2D8"/><path d="m549.062 381.075-.89-.065c.125 2.631.598 5.319.924 7.94l1.897 15.321 2.913 23.606c.544 4.401.928 8.889 1.674 13.255.687-.805.087-8.995.017-10.661a716.952 716.952 0 0 1-.662-49.312c-1.144.019-4.961.306-5.873-.084Z" fill="#6683C2"/><path d="M520.814 444.695c1.601 3.627 4.661 6.217 7.156 9.191l.208.109c.264 2.165.012 4.657 0 6.848-.009 1.693.195 5.205-.091 6.732.855 1.574 1.363 3.54 1.97 5.235 1.618.136 3.298.053 4.923.043l8.34-.062a4599.943 4599.943 0 0 0-20.571-55.484l-9.255-24.688c-1.459-3.845-2.781-7.799-4.413-11.57-1.537.139-3.129.078-4.673.081l-7.927.009c1.608 4.593 3.508 9.125 5.246 13.674a3067.196 3067.196 0 0 0 11.347 29.688c2.599 6.728 5.333 13.392 7.74 20.194ZM535.612 414.484l-8.919-23.737c-1.191-3.195-2.285-6.456-3.556-9.618l-12.83.001c1.137 2.647 2.078 5.389 3.096 8.084l6.161 16.432 16.099 43.017c2.967 8.035 5.757 16.144 8.84 24.135 1.054.007 2.108.005 3.161-.007-2.507-3.438-4.278-8.67-5.26-12.82-.701-.946-4.274-28.785-4.745-32.391-.512-3.924-.886-9.502-2.047-13.096Z" fill="#F37E60"/><path d="M595.776 417.01c.71.087 1.34.111 2.02-.155.875-.343 1.425-.997 1.797-1.833.918-2.058 1.443-4.427 2.133-6.583.602-1.879 1.489-3.841 1.822-5.784.117-.68.145-1.189-.127-1.837-.441-1.054-1.271-1.578-2.296-1.98-.7-.057-1.394-.053-2.055.217-.992.404-1.447 1.103-1.834 2.056-.659 1.623-1.132 3.367-1.686 5.032-.692 2.083-2.155 5.53-2.26 7.675-.021.442.14.972.322 1.369.443.967 1.212 1.438 2.164 1.823Zm4.671-17.547c.88.132 1.701.375 2.265 1.116.496.654.501 1.231.372 2.004-.335 2.005-1.237 4.001-1.861 5.941-.66 2.049-1.153 4.352-2.082 6.282-.204.423-.5.75-.878 1.027-.521.382-1.128.49-1.755.586-.947-.284-1.802-.665-2.291-1.578-.176-.33-.324-.712-.284-1.093.158-1.491.871-3.139 1.338-4.567l2.321-7.095c.299-.887.575-1.851 1.46-2.318.432-.229.915-.286 1.395-.305Z" fill="#554148"/><path d="M596.509 416.417c.627-.096 1.234-.204 1.755-.586a2.73 2.73 0 0 0 .878-1.027c.929-1.93 1.422-4.233 2.082-6.283.624-1.939 1.526-3.936 1.861-5.94.129-.773.124-1.351-.372-2.004-.564-.741-1.385-.984-2.265-1.116-.48.019-.963.076-1.395.304-.885.468-1.161 1.432-1.46 2.319l-2.321 7.095c-.467 1.428-1.18 3.076-1.338 4.567-.04.381.108.763.284 1.093.489.912 1.344 1.294 2.291 1.578ZM588.477 455.357c-.838-1.523-1.849-2.976-2.791-4.439l-4.805-7.44c-3.751-5.782-7.409-11.671-11.31-17.351a2236.038 2236.038 0 0 0-8.666 28.533l-2.131 7.314c-.482 1.669-.875 3.933-1.767 5.41-.536 1.789-.965 3.608-1.512 5.398l18.286.033 5.634-.011c1.027-.001 2.132-.072 3.151.038a816.153 816.153 0 0 1 5.911-17.485Z" fill="#F37E60"/><path d="M519.438 443.087c-.675-1.121-1.305-2.321-2.257-3.235-.77.995-1.324 2.077-1.852 3.215 1.367.098 2.74.105 4.109.02Z" fill="#554148"/><path d="m520.813 444.692-.342-.049c-.437-.45-.719-1.017-1.029-1.558a30.774 30.774 0 0 1-4.108-.021l-.064.09c-.709 1.008-1.27 2.109-1.984 3.12-.874 1.236-5.484 7.039-6.45 7.415l.106.027c2.275.633 3.766 2.92 6.037 3.507 3.27.843 6.693-2.032 9.719-2.9 1.721-.493 3.499-.457 5.271-.441-2.495-2.973-5.555-5.564-7.156-9.19Z" fill="#E9B49C"/><path d="M527.961 453.884c-1.772-.016-3.55-.052-5.271.441-3.026.868-6.449 3.743-9.718 2.9-2.271-.587-3.763-2.874-6.038-3.507-.035-.01-.071-.018-.106-.027-.32 1.462-.056 5.773-.07 7.542-.029 3.855-.229 7.703-.25 11.557 2.373-.099 4.784-.019 7.161-.021l14.422.017-.012-5.213c.285-1.527.082-5.039.09-6.731.012-2.192.264-4.683 0-6.849l-.208-.109Z" fill="#F37E60"/><path d="M530.055 472.809c-.607-1.695-1.115-3.661-1.97-5.235l.012 5.213c.65.028 1.307.017 1.958.022Z" fill="#FEFEFE"/><path d="M445.718 473.658c1.525.113 5.32.24 6.665-.094.231-.315.177-.425.167-.804-1.48-.019-5.437-.317-6.635.107-.216.31-.186.422-.197.791Z" fill="#554148"/><defs><linearGradient id="a" x1="473.088" y1="273.687" x2="541.396" y2="281.52" gradientUnits="userSpaceOnUse"><stop stop-color="#FDE8E5"/><stop offset="1" stop-color="#FBFDF7"/></linearGradient><linearGradient id="b" x1="325.237" y1="293.318" x2="306.549" y2="519.793" gradientUnits="userSpaceOnUse"><stop stop-color="#3D2318"/><stop offset="1" stop-color="#4F3C3C"/></linearGradient></defs></svg>