<svg width="372" height="390" fill="none" xmlns="http://www.w3.org/2000/svg"><path d="M336.458 6.833a3.464 3.464 0 1 1-1.626-6.735 3.464 3.464 0 0 1 1.626 6.735Z" fill="#fff"/><path d="M303.234 31.594a9.045 9.045 0 1 1-3.858-17.672 9.045 9.045 0 0 1 3.858 17.672Z" fill="#68CCEA"/><path d="M211.233 177.928c-48.096 10.506-95.655-19.78-106.482-67.811-10.828-48.026 19.143-95.79 67.093-106.939 48.412-11.253 96.728 19.063 107.661 67.55 10.927 48.487-19.71 96.598-68.272 107.2Z" fill="#F2C45B"/><path d="M200.979 42.143c-2.618 2.507-4.913 5.563-6.291 8.934 4.012 4.826 8.222 11.29 7.665 17.911-.014.172-.035.342-.052.513-.853-1.092-.965-3.387-1.277-4.754-1.285-5.635-4.384-11.267-9.474-14.233-5.828-3.094-11.061-2.943-17.452-2.072-5.301.966-9.974 2.82-14.198 6.23-4.481 2.597-7.716 9-9.024 13.816-2.242 8.258-.853 16.535-.478 24.903-.172.823-.173.924-.774 1.502-.604-5.407-1.153-10.952-1.105-16.397.08-9.227 2.711-17.396 9.393-23.933 6.781-5.315 12.496-6.643 20.804-7.969 1.372-.004 2.745.004 4.116-.02 3.948.74 7.399 1.77 10.748 4.055l2.56-4.188c6.143-8.56 13.093-14.569 23.773-16.324 9.19-1.51 19.296.578 26.863 6.097 6.17 4.5 10.258 11.268 12.25 18.583 1.089 4 1.551 8.434 4.461 11.626 2.517 2.762 6.142 4.156 9.512 5.55 2.918 1.051 5.813 2.07 8.566 3.515 4.244 2.927 6.511 6.5 7.468 11.577.952 5.055.397 10.203-.394 15.236-1.129-2.977 1.112-7.035-.117-10.056a21.288 21.288 0 0 0-.156-2.017c-.663-5.67-2.423-9.832-6.964-13.422-2.598-1.723-5.665-2.618-8.581-3.653-5.745-2.139-10.786-4.695-13.023-10.799-.753-2.056-1.113-4.312-1.673-6.43-1.761-6.665-4.905-12.635-10.149-17.205-6.873-5.991-16.26-8.544-25.267-7.836-8.634.68-16.136 4.72-21.73 11.26Z" fill="#4D261D"/><path d="M194.682 51.079c1.378-3.371 3.673-6.427 6.291-8.934.091-.006.184 0 .273-.02 1.048-.219 4.767-3.288 6.205-4.096 9.848-5.536 22.373-5.89 32.369-.473 9.139 4.952 13.495 13.067 16.594 22.654 1.476 4.567 2.765 9.23 6.476 12.55 2.712 2.429 6.249 3.67 9.555 5.057 1.841.913 3.674 1.84 5.5 2.78 3.751 2.416 6.352 4.417 8.74 8.239.669 1.069 1.09 2.439 1.831 3.411 1.229 3.021-1.012 7.08.117 10.056-1.161 7.793-4.872 14.912-8.956 21.546-1.101.263-2.178.052-3.259.553-3.779 1.753-4.791 6.593-6.136 10.162-4.271-4.178-3.983-10.405-8.696-14.274-5.237-4.299-13.007-4.405-18.898-7.64-6.69-3.672-11.853-10.941-16.742-16.689 2.219 6.788 5.497 11.126 8.385 17.292a29.058 29.058 0 0 1-7.248-1.331c-13.76-4.403-18.509-16.832-24.573-28.466.077-.46.084-.648.022-1.088l-.525.19c-3.595.643-9.962 8.491-11.969 11.364-.745 1.067-1.84 2.379-2.163 3.62l-.712.46c.017.183.011.414.075.586-1.757 1.594-3.104 4.799-4.281 6.89-3.641 6.467-12.938 24.68-17.324 28.903-1.421-3.857-3.178-8.013-7.114-9.935-2.021-.987-4.653-1.173-6.766-.375-.851.321-1.753.939-2.603 1.163-1.081-6.808-2.172-13.823-1.589-20.728.19-2.247 2.376-8.057 2.057-9.611.601-.578.602-.678.774-1.502 1.235-1.821 2.48-3.582 3.877-5.283a115.51 115.51 0 0 1 1.815-10.792c2.166-9.554 6.271-17.492 14.697-22.834 2.891-1.485 5.638-2.668 8.785-3.503 3.999-.628 7.941-.76 11.978-.465 5.09 2.966 8.188 8.598 9.474 14.233.312 1.367.424 3.662 1.277 4.754.017-.17.038-.341.052-.513.557-6.621-3.653-13.085-7.665-17.911Zm52.135 23.936c.691 4.406 8.104 12.136 11.724 14.725.336.24.679.452 1.034.664l.388-.133c-.058-.066-.115-.133-.176-.196-2.182-2.266-4.957-4.05-6.958-6.526-1.132-1.4-4.845-8.047-6.012-8.534Zm-60.212 6.394c-3.883 8.1-9.873 15.384-18.632 18.402-1.056.364-5.28 1.059-5.695 1.509l.234.48c7.096-.449 13.941-5.202 18.5-10.413 1.908-2.183 5.368-6.744 5.827-9.629l-.234-.349Z" fill="#7F4A43"/><path d="M292.712 64.053c-3.976 3.566-7.822 7.242-11.146 11.436 4.244 2.927 6.511 6.5 7.467 11.577.952 5.055.398 10.203-.394 15.236-1.16 7.793-4.871 14.912-8.955 21.545 3.524.228 6.854 1.103 9.286 3.86 2.369 2.686 3.268 6.52 2.95 10.031-.556 6.147-4.438 11.596-9.075 15.438-3.098 2.567-7.415 5.088-11.585 4.593-1.133-.134-2.278-.452-3.385-.728-2.451 11.066-5.85 21.599-11.945 31.251h.404c5.081-.01 10.134-.02 15.168.805 17.201 2.822 34.447 12.717 46.725 24.987 3.831 3.828 7.068 7.973 10.484 12.153.306-14.745.037-29.552.035-44.302 0-5.396-.532-13.848.282-18.835.34-2.083 1.353-4.082 2.763-5.647 2.319-2.575 5.808-3.891 9.229-3.993 4.748-.141 9.135 2.143 12.55 5.278-.032-2.3-.275-4.634-.112-6.931.237-3.324 1.768-6.541 4.353-8.682 2.917-2.417 6.934-3.023 10.609-2.592 4.82.566 7.423 3.118 10.284 6.742 1.036-3.834 2.447-6.812 6.014-8.951a12.955 12.955 0 0 1 9.987-1.355c3.231.867 5.826 3.136 7.453 6.019 2.592 4.59 1.756 11.065 1.729 16.211 2.598-3.089 5.503-5.049 9.612-5.374 3.764-.297 7.547.826 10.36 3.397 3.061 2.799 4.285 6.342 4.384 10.385.206 8.327-.16 16.675.011 25.003 3.253-2.201 6.715-3.516 10.71-2.76 3.266.619 6.3 2.466 8.178 5.23 1.059 1.556 1.705 3.224 1.932 5.086.425 3.47.172 7.135.149 10.635l-.164 18.488c-.032 2.811.396 6.183-.06 8.926.243 1.227.5 2.451.773 3.672 1.685-1.643 3.697-3.008 5.481-4.553 1.475-1.276 2.73-2.744 4.135-4.092 1.614-1.254 5.768-6.892 7.05-8.477a115.142 115.142 0 0 0 24.495-85.807c-3.286-29.624-20.26-58.76-43.492-77.214a124.838 124.838 0 0 0-92.693-26.035c-23.334 2.674-44.585 12.69-62.036 28.344Z" fill="#F2C45B"/><path d="m259.99 90.27-.389.133a15.022 15.022 0 0 1-1.034-.665c-3.619-2.588-11.033-10.319-11.723-14.724 1.166.487 4.879 7.133 6.012 8.534 2.001 2.476 4.775 4.26 6.957 6.526.061.063.118.13.177.195ZM162.522 101.798l-.233-.479c.414-.45 4.639-1.145 5.695-1.51 8.758-3.018 14.749-10.302 18.632-18.4l.233.348c-.458 2.885-3.918 7.446-5.827 9.628-4.558 5.212-11.404 9.965-18.5 10.413ZM202.017 82.558l.524-.19c.062.44.055.627-.021 1.088-4.124 6.86-7.029 12.559-15.273 15.131-.063-.171-.058-.403-.075-.586l.712-.459c7.268-2.49 10.786-8.575 14.133-14.984Z" fill="#4D261D"/><path d="M187.898 97.541c.324-1.242 1.419-2.553 2.164-3.62 2.006-2.873 8.374-10.721 11.969-11.364-3.347 6.409-6.864 12.494-14.133 14.984Z" fill="#E9B49C"/><path d="M187.254 98.587c8.243-2.573 11.148-8.271 15.272-15.132 6.064 11.635 10.813 24.064 24.572 28.466 2.35.75 4.786 1.197 7.248 1.332-2.887-6.167-6.165-10.505-8.384-17.292 4.889 5.747 10.052 13.016 16.741 16.688 5.892 3.235 13.662 3.342 18.898 7.64 4.714 3.87 4.425 10.096 8.697 14.275 1.344-3.569 2.356-8.41 6.136-10.163 1.081-.501 2.157-.29 3.259-.553 3.524.227 6.854 1.103 9.286 3.86 2.369 2.686 3.268 6.519 2.95 10.03-.556 6.147-4.438 11.596-9.075 15.439-3.098 2.566-7.415 5.087-11.585 4.593-1.132-.134-2.278-.453-3.384-.729-2.452 11.067-5.851 21.6-11.946 31.252-2.913 3.995-5.77 7.679-9.401 11.065l-1.361 1.239c.352 9.161.123 16.665-6.475 23.764-5.07 5.457-12.234 8.443-19.638 8.662-5.726.169-10.572-1.399-15.568-4.091-17.508-12.293-9.634-26.96-13.083-30.801-2.077-.901-7.851-8.114-9.544-10.118a90.775 90.775 0 0 1-13.586-30.856c-1.601.346-3.323.576-4.959.461-6.458-.456-11.517-4.366-15.577-9.102-1.542-3.174-2.572-6.079-3.051-9.578-.022-3.966.833-7.196 2.711-10.679a91.83 91.83 0 0 1 2.759-3.026c.85-.223 1.751-.841 2.602-1.162 2.113-.799 4.746-.612 6.767.375 3.936 1.922 5.693 6.077 7.114 9.934 4.386-4.223 13.683-22.436 17.323-28.903 1.178-2.091 2.524-5.296 4.282-6.89Zm4.194 16.396c-4.505.371-8.452 1.61-11.465 5.226-1.458 1.749-2.353 3.751-3.086 5.886 2.825-2.292 5.59-4.548 9.043-5.835 2.385-.765 4.858-1.323 7.378-.999 2.51.324 6.748 3.317 8.919 1.882.325-.642.4-1.12.187-1.813-.435-1.41-1.855-2.133-3.102-2.72-2.416-1.138-5.215-1.644-7.874-1.627Zm52.389.751c-2.493.33-6.531.872-8.255 2.898-.421.496-.532 1.19-.428 1.809.08.48.279.6.582.949 2.23.839 6.451-1.575 8.943-1.816 2.132-.205 4.039.206 6.056.822l.339.143c1.784.755 4.678 3.253 6.581 2.82.249-.057.396-.177.595-.311.239-.72.194-1.192-.165-1.874-1.406-2.667-5.02-4.26-7.824-5.005-2-.532-4.37-.734-6.424-.435Zm-90.392 18.989c.097.061.192.126.29.186 1.175.718 3.456.445 4.18 1.743-.265.57-.453.688-.918 1.096-1.604 1.407-2.714 3.13-2.816 5.313-.084 1.797.654 3.46 1.862 4.763 2.304 2.482 5.699 3.452 8.993 3.499a5.37 5.37 0 0 0 1.202-.093c.177-.287.271-.461.363-.793-3.25.315-6.431.016-9.085-2.106-1.399-1.118-2.48-2.724-2.661-4.537-.172-1.72.519-3.348 1.643-4.625.801-.91 1.775-1.601 2.774-2.272-1.373-1.295-2.957-2.343-4.92-2.32a3.445 3.445 0 0 0-.907.146Zm123.836 1.184c1.884.732 3.401 1.388 4.331 3.33.672 1.404.581 3.013.028 4.439-.949 2.452-3.099 4.403-5.525 5.347-1.921.748-6.528.57-6.957.852l.205.349c3.808.265 7.183.175 10.235-2.49 1.78-1.554 3.115-3.837 3.175-6.241.037-1.469-.425-3.055-1.501-4.099-1.024-.993-2.343-1.571-3.769-1.502-.073.003-.147.01-.222.015Zm-34.369 4.651a4.65 4.65 0 1 0 .917 9.255 4.65 4.65 0 0 0-.917-9.255Zm-48.184.291a4.556 4.556 0 1 0 3.341 8.478 4.556 4.556 0 0 0-3.341-8.478Zm19.857-.277c.255 3.361.856 6.602.409 9.984-.523 3.959-5.989 10.85-2.142 14.134 1.995 1.703 5.708 1.717 8.215 1.418 3.299-.395 6.58-1.61 9.207-3.665-.243-.037-.485-.136-.73-.11-.551.057-1.885.978-2.45 1.248-3.37 1.614-7.203 2.335-10.917 1.779-1.285-.191-2.68-.578-3.466-1.702-.753-1.077-.769-2.575-.451-3.805.304-1.174.927-2.315 1.445-3.408 1.638-3.451 2.321-6.135 2.179-9.989-.068-1.836-.133-3.724-.778-5.463l-.521-.421Zm-25.961 17.407c-2.849.409-5.459 1.364-7.204 3.8-1.354 1.889-1.787 4.258-1.314 6.522a8.533 8.533 0 0 0 3.686 5.377c1.797 1.181 3.851 1.593 5.969 1.678 2.619-.408 4.87-1.095 6.564-3.299a8.273 8.273 0 0 0 1.613-6.201c-.322-2.388-1.612-4.694-3.555-6.133-1.708-1.265-3.657-1.73-5.759-1.744Zm60.904 0c-2.947.524-5.551 1.583-7.32 4.141a8.228 8.228 0 0 0-1.334 6.399c.486 2.305 1.981 4.263 4 5.451 1.796 1.056 3.668 1.315 5.697 1.482 2.816-.495 5.23-1.234 6.958-3.713 1.35-1.937 1.753-4.424 1.275-6.72a8.594 8.594 0 0 0-4.047-5.678c-1.663-.982-3.347-1.231-5.229-1.362Zm-45.597 19.693c1.063 4.485 3.095 8.176 7.151 10.66 3.766 2.306 8.611 3.066 12.894 1.974a16.677 16.677 0 0 0 7.381-4.174c2.414-2.548 3.799-4.956 4.823-8.314-10.722-.229-21.527-.312-32.249-.146Zm-10.17 23.676c1.805 2.78 11.067 8.078 14.403 8.665.322.058.654.05.979.054-3-1.519-6.166-2.877-9.079-4.547-1.953-1.12-4.357-3.434-6.303-4.172Zm48.94 1.353c-8.148 6.466-17.926 9.614-28.339 8.451-.917-.102-4.231-.935-4.887-.542.216.524.057.349.379.598 9.535 2.054 19.768.93 28.095-4.378a33.979 33.979 0 0 0 4.898-3.817l-.146-.312Z" fill="#E9B49C"/><path d="M176.898 126.095c.733-2.135 1.628-4.137 3.086-5.886 3.013-3.616 6.961-4.855 11.465-5.226 2.659-.017 5.459.489 7.874 1.627 1.247.587 2.667 1.31 3.102 2.72.214.693.139 1.171-.187 1.814-2.171 1.434-6.409-1.559-8.919-1.882-2.52-.325-4.993.233-7.378.998-3.453 1.287-6.218 3.543-9.043 5.835ZM250.734 120.395c-2.016-.616-3.923-1.028-6.055-.822-2.493.241-6.714 2.654-8.943 1.816-.304-.35-.502-.47-.582-.949-.104-.619.007-1.313.428-1.809 1.723-2.026 5.762-2.568 8.255-2.898 2.053-.3 4.423-.098 6.423.434 2.805.746 6.418 2.339 7.824 5.006.36.681.405 1.154.165 1.873-.199.135-.346.255-.594.312-1.904.433-4.797-2.065-6.581-2.821l-.34-.142Z" fill="#4D261D"/><path d="M166.594 150.435c-.093.332-.186.505-.363.793a5.5 5.5 0 0 1-1.203.093c-3.293-.048-6.688-1.018-8.992-3.5-1.209-1.303-1.947-2.965-1.863-4.762.103-2.184 1.212-3.906 2.816-5.313.466-.409.654-.527.919-1.096-.724-1.298-3.006-1.026-4.18-1.743-.099-.06-.194-.125-.29-.187a3.47 3.47 0 0 1 .906-.145c1.963-.023 3.547 1.025 4.92 2.32-.999.671-1.972 1.362-2.773 2.272-1.124 1.277-1.816 2.905-1.644 4.625.181 1.813 1.263 3.419 2.661 4.536 2.654 2.122 5.835 2.422 9.086 2.107ZM269.353 150.225l-.205-.35c.429-.282 5.036-.104 6.957-.852 2.426-.944 4.576-2.895 5.526-5.347.552-1.426.643-3.034-.029-4.439-.929-1.942-2.446-2.598-4.33-3.33l.222-.015c1.425-.069 2.744.509 3.768 1.503 1.076 1.043 1.538 2.63 1.501 4.098-.06 2.404-1.394 4.688-3.175 6.242-3.052 2.665-6.427 2.754-10.235 2.49ZM243.833 149.813a4.65 4.65 0 1 1-1.084-9.237 4.65 4.65 0 0 1 1.084 9.237Z" fill="#1C0C0A"/><path d="M353.581 158.738c-.031-2.301-.274-4.634-.111-6.931.236-3.324 1.768-6.541 4.353-8.683 2.917-2.417 6.934-3.023 10.609-2.591 4.819.565 7.423 3.117 10.284 6.741.357 1.003.601 1.602 1.398 2.323.376 3.334.213 6.818.198 10.17l-.058 15.588.075 51.273c.003 1.975-.329 12.461.084 13.571.074.2.294.307.442.46l1.65.229c-9.563.184-19.129.219-28.693.106l-.231-82.256Zm11.798 2.563c-.66 3.334-.21 7.446-.208 10.883l.008 23.1.01 21.754c-.001 3.519-.331 7.416.147 10.895l.386.437c.723-2.954.229-8.542.227-11.78l-.012-26.44.015-18.362c.004-3.298.25-6.814-.111-10.082l-.462-.405Z" fill="#F37E60"/><path d="M197.784 149.428a4.555 4.555 0 1 1-2.766-8.68 4.555 4.555 0 0 1 2.766 8.68ZM230.269 162.441c-2.627 2.055-5.908 3.271-9.207 3.665-2.507.299-6.219.285-8.215-1.417-3.847-3.285 1.619-10.176 2.142-14.134.447-3.383-.154-6.624-.409-9.985l.521.421c.645 1.74.71 3.628.778 5.463.142 3.854-.541 6.538-2.178 9.989-.519 1.093-1.142 2.234-1.446 3.409-.318 1.229-.302 2.727.451 3.804.786 1.125 2.181 1.511 3.466 1.703 3.715.555 7.547-.166 10.917-1.779.565-.27 1.899-1.192 2.45-1.249.245-.026.487.073.73.11Z" fill="#1C0C0A"/><path d="M328.714 226.238c.306-14.745.037-29.551.035-44.302 0-5.396-.532-13.847.282-18.835.34-2.083 1.353-4.081 2.763-5.647 2.319-2.574 5.808-3.891 9.229-3.993 4.748-.141 9.135 2.143 12.55 5.279l.23 82.256c-5.31-.039-10.62-.037-15.931.005-1.418-2.317-2.651-4.754-4.074-7.075-1.604-2.617-3.424-5.105-5.084-7.688ZM189.754 175.356c-2.117-.085-4.171-.497-5.969-1.678a8.536 8.536 0 0 1-3.686-5.377c-.473-2.264-.04-4.633 1.314-6.523 1.745-2.436 4.355-3.39 7.205-3.799 2.101.014 4.05.479 5.758 1.744 1.944 1.439 3.233 3.745 3.555 6.133a8.27 8.27 0 0 1-1.613 6.2c-1.694 2.204-3.945 2.892-6.564 3.3ZM250.577 175.451c-2.03-.167-3.902-.425-5.697-1.481-2.02-1.189-3.514-3.146-4-5.452a8.23 8.23 0 0 1 1.333-6.398c1.77-2.558 4.374-3.617 7.321-4.141 1.881.13 3.565.379 5.228 1.362a8.586 8.586 0 0 1 4.047 5.678c.478 2.295.075 4.783-1.275 6.719-1.727 2.479-4.142 3.219-6.957 3.713Z" fill="#E99E87"/><path d="m365.718 228.37-.385-.438c-.479-3.478-.149-7.375-.148-10.894l-.01-21.754-.008-23.1c-.002-3.437-.452-7.549.209-10.883l.461.405c.361 3.268.115 6.784.111 10.082l-.015 18.362.013 26.439c.001 3.239.496 8.827-.228 11.781Z" fill="#1C0C0A"/><path d="M231.348 186.132a16.678 16.678 0 0 1-7.382 4.173c-4.283 1.092-9.127.333-12.893-1.974-4.056-2.484-6.088-6.174-7.151-10.659 10.722-.167 21.527-.083 32.249.145-1.025 3.358-2.409 5.767-4.823 8.315Z" fill="#fff"/><path d="M28.633 220.022c-3.56-7.433-7.962-19.362-5.222-27.552 1.043-3.117 3.101-5.708 6.088-7.146 5.864-2.826 13.772-.904 19.545 1.229 4.244 1.567 8.302 3.555 12.279 5.703 9.476 5.117 18.642 11.119 27.816 16.774 4.026 2.481 9.134 5.02 12.782 7.905.747.59 1.377 1.322 1.743 2.211.149.361.159.7.158 1.083-1.605 3.27-16.312 14.094-20.106 17.399-4.798 3.153-9.083 7.41-13.644 10.937l-11.39 9.504c-1.714 1.416-3.542 3.198-5.5 4.261-.625.339-1.025.466-1.719.229-3.83-1.308-16.979-29.645-19.543-34.839-.376-2.432-2.212-5.446-3.287-7.698Z" fill="#93B1F2"/><path d="M120.921 211.136c16.023-14.757 38.347-22.589 59.949-23.122 1.693 2.004 7.466 9.217 9.543 10.117-.556 1.548-.383 3.485-.392 5.116-.031 5.486.17 10.424 2.551 15.471 2.072 4.393 5.494 8.36 9.636 10.921 5.509 3.869 12.328 5.213 18.962 4.683 7.38-.59 14.719-4.195 19.477-9.898 6.181-7.405 6.693-15.83 5.892-25.065 3.631-3.387 6.488-7.071 9.4-11.066 5.218-.01 10.405-.042 15.572.805 17.202 2.821 34.447 12.717 46.726 24.986 3.83 3.829 7.068 7.974 10.483 12.154 1.661 2.582 3.481 5.07 5.085 7.687 1.423 2.321 2.655 4.758 4.074 7.076l-53.586.134c-3.629.016-17.56-.289-19.792.44-.189.061-.307.252-.461.379l-.051.204c-6.882.553-13.968.243-20.872.249l-34.763.026c-5.004-.003-13.193-.566-17.899.086-1.453.201-2.826 1.004-3.807 2.087-.8.883-1.352 2.054-1.559 3.225-.664 3.776-.575 7.966-.775 11.801-.431 7.479-.806 14.962-1.126 22.447l-1.349 24.983c-.245 4.424-.649 8.915-.657 13.345-11.475-.06-22.949-.038-34.424.064 1.055-5.371 2.717-10.64 4.055-15.949 2.151-8.54 4.118-17.146 6.503-25.625.717-2.55 4.827-13.805 4.788-15.156-.302-.524-.278-.557-.842-.751-1.513 1.215-2.941 8.242-3.878 10.51l-.159.378c-.588-12.521-4.016-24.536-12.199-34.295-8.248-9.836-20.903-17.114-33.799-18.218 1.323-1.28 2.486-2.834 3.727-4.207 1.9-2.103 3.913-4.069 5.967-6.022Z" fill="#7FCBB4"/><path d="M202.206 229.637c-4.142-2.561-7.564-6.528-9.636-10.921-2.381-5.047-2.582-9.985-2.552-15.472.01-1.63-.163-3.567.393-5.115 3.45 3.841-4.424 18.508 13.084 30.801l-1.054.048c-.296.456-.25.228-.235.659Z" fill="#5FA791"/><path d="m245.177 200.596 1.36-1.239c.802 9.236.289 17.66-5.891 25.066-4.758 5.703-12.097 9.308-19.478 9.898-6.633.53-13.452-.814-18.961-4.683-.015-.431-.061-.203.235-.659l1.054-.048c4.995 2.692 9.841 4.26 15.568 4.091 7.403-.218 14.567-3.205 19.638-8.661 6.598-7.1 6.826-14.604 6.475-23.765Z" fill="#5FA791"/><path d="M209.148 210.067c-.325-.003-.657.004-.979-.054-3.336-.587-12.598-5.885-14.403-8.665 1.946.738 4.35 3.052 6.303 4.172 2.913 1.67 6.079 3.028 9.079 4.547Z" fill="#E99E87"/><path d="M209.856 211.208c-.323-.249-.163-.074-.379-.598.656-.393 3.97.44 4.887.542 10.413 1.163 20.191-1.985 28.339-8.451l.145.312a33.979 33.979 0 0 1-4.898 3.817c-8.326 5.308-18.559 6.433-28.094 4.378Z" fill="#E99F88"/><path d="M28.622 220.023c1.075 2.252 2.912 5.266 3.287 7.698-1.76 3.594-3.117 7.467-4.706 11.151l-12.771 29.827c3.93 8.535 7.399 17.296 11.169 25.905 5.18 11.83 10.658 23.67 15.327 35.704-1.803.675-3.98.331-5.897.821-5.887-13.054-11.364-26.353-16.951-39.541-3.217-7.592-6.713-15.096-9.736-22.766.618-3.485 3.498-8.865 4.928-12.309l15.35-36.49Z" fill="#415888"/><path d="m110.391 222.234.829-.871c12.896 1.104 25.551 8.382 33.8 18.219 8.183 9.758 11.61 21.773 12.199 34.294l.158-.378c.937-2.268 2.365-9.295 3.878-10.51.565.194.54.227.843.751.039 1.351-4.072 12.606-4.789 15.156-2.385 8.479-4.351 17.085-6.503 25.625-1.338 5.309-3 10.578-4.055 15.95l-1.568.215.063-1.475c1.095-3.516 1.892-7.128 2.988-10.653.009-.021.019-.041.026-.062 1.588-4.773 2.423-9.854 3.663-14.732 1.199-4.718 2.894-9.511 3.668-14.309 1.46-9.061-1.546-21.7-5.629-29.826-5.718-11.381-16.499-20.399-28.5-24.519-3.568-1.225-7.334-1.611-10.857-2.8-.072-.024-.143-.05-.214-.075Z" fill="#5FA791"/><path d="M77.04 285.244c8.28-22.21 18.84-44.185 33.355-63.01.071.026.142.052.214.075 3.523 1.189 7.289 1.576 10.857 2.8 12.001 4.12 22.782 13.138 28.5 24.52 4.083 8.125 7.089 20.765 5.629 29.825-.774 4.799-2.469 9.592-3.668 14.31-1.24 4.878-2.075 9.959-3.663 14.731-.007.022-.017.042-.026.063-2.019-.539-4.272-.695-6.344-1.023a207.027 207.027 0 0 1-11.164-2.082c-13.743-3.037-27.595-6.984-40.347-13.027-4.57-2.166-8.92-4.739-13.344-7.182Z" fill="#7FCBB4"/><path d="M70.063 248.565c4.56-3.526 8.845-7.784 13.644-10.936 1.337 1.824 2.005 4.219 1.616 6.472-.407 2.359-1.946 4.42-3.94 5.701a8.636 8.636 0 0 1-6.92 1.126c-1.714-.435-3.044-1.266-4.4-2.363Z" fill="#E9B49C"/><path d="m263.989 242.158.051-.204c.154-.127.272-.318.461-.379 2.231-.729 16.163-.424 19.792-.44l53.586-.134c5.31-.043 10.621-.045 15.931-.006 9.564.113 19.13.078 28.693-.106 1.984.139 3.689.686 5.021 2.244 1.809 2.114 1.896 4.562 1.598 7.181-.493 4.348-6.53 35.187-5.982 36.47l.482.216-.296.46.104.264c-.467.172-.592.092-.81.571-1.001 2.199-3.125 16.743-3.797 20.412a3424.15 3424.15 0 0 1-8.396 43.331c-.591 3.011-.68 5.606-2.517 8.152-.368.511-1.235 1.449-1.001 2.119.675 1.932 2.066 2.784 1.308 5.108-.499 1.531-1.636 2.857-2.844 3.887l42.679-.015 42.726-.047c6.148.002 13.366-.485 13.366-.485h6.074s2.278.355 3.037.458c3.971-.046 8.621-.791 11.725 2.203 3.147 3.036 2.154 12.215 2.137 16.504-.475-.088-.942-.207-1.412-.32-.824-1.446-.241-5.14-.179-6.828.098-2.691.334-6.367-1.725-8.433-1.312-1.315-3.177-1.511-4.94-1.571-7.643-.255-15.371-.022-23.02-.016l-44.388.017-136.615.012-164.769-.074-63.733.062c-13.7 0-27.435-.22-41.13.062-.525.305-1.077.613-1.53 1.021-3.422 3.086-1.67 11.516-2.026 15.878l-.026.286-1.229-.345c-.233-.635-.23-1.217-.25-1.884-.132-4.255-.797-11.7 2.451-14.921 2.635-2.613 13.068-1.612 16.872-1.635 5.733-.199 11.52-.049 17.259-.048l32.096.021c5.975.001 12.05.229 18.007-.138l1.716-.062c2.502.29 5.253.095 7.782.093l15.076-.02 46.548.103a17.498 17.498 0 0 1-.979-.779c-1.521-1.335-2.798-2.904-2.888-5.006-.056-1.314.523-2.482 1.454-3.389.641-.625 1.359-.98 2.237-1.145 2.516-.474 5.353-.228 7.912-.217 4.368.039 8.737.035 13.104-.014 2.719-.017 5.462-.111 8.177.008.575.112 1.121.2 1.705.259.46.047.617.129.977.399-.95.639-2.664.608-3.814 1.011-1.486.82-3.605 1.978-4.172 3.685-.264.791-.201 1.519.227 2.229.682 1.133 1.852 1.871 2.917 2.606 6.809.911 14.718.298 21.652.304l42.586.018 72.931.064c12.817.02 25.978.422 38.758-.038 1.406-.05 2.552-.337 3.707-1.171 1.136-.821 2.082-2.03 2.315-3.44.173-1.052-.046-2.057-.678-2.919-.474-.646-1.093-1.062-1.847-1.33.099-.559.313-.993.551-1.504.731-.318 1.458-.623 2.036-1.19.677-.664.885-1.444 1.105-2.338.938-3.809 1.537-7.773 2.281-11.627a2304.441 2304.441 0 0 0 4.371-22.874c3.022-16.05 6.328-32.033 9.06-48.137l2.576-15.134c.605-3.351 1.594-6.989 1.656-10.391.039-2.169-.182-3.841-1.789-5.417-1.104-1.082-2.09-1.257-3.581-1.391-4.44-.401-9.129-.118-13.593-.115l-25.029.01-79.888-.051ZM158.651 362.25c-1.026.176-2.107.404-2.777 1.289-.596.787-.533 2.017-.268 2.921.486 1.66 1.827 2.801 3.341 3.528 3.988 1.917 17.905 1.1 23.153 1.08l.165-.206c-1.034-1.334-2.4-2.753-2.105-4.565.27-1.658 1.744-3.011 2.88-4.149-8.117.021-16.278-.141-24.389.102Z" fill="url(#a)"/><path d="M181.178 320.406c.009-4.43.413-8.921.658-13.345l1.348-24.983c.32-7.485.696-14.968 1.127-22.448.199-3.834.11-8.025.775-11.801.206-1.171.758-2.342 1.559-3.225.98-1.082 2.354-1.886 3.807-2.087 4.705-.651 12.894-.089 17.899-.085l34.763-.027c6.904-.005 13.989.304 20.871-.248l79.889.051 25.029-.01c4.464-.004 9.153-.287 13.592.114 1.491.135 2.477.31 3.581 1.392 1.608 1.576 1.829 3.248 1.789 5.416-.061 3.402-1.05 7.041-1.655 10.392l-2.576 15.133c-2.733 16.105-6.039 32.088-9.06 48.138a2310.006 2310.006 0 0 1-4.372 22.874c-.744 3.854-1.343 7.818-2.281 11.627-.22.894-.428 1.674-1.105 2.338-.577.567-1.304.871-2.035 1.189-2.226-.278-4.652-.126-6.9-.133l-12.685-.031-42.448-.058-76.375-.04c-13.092.002-26.329-.409-39.407.09-2.716-.119-5.458-.026-8.177-.009-.121-5.461.491-11.14.829-16.593.488-7.871.855-15.777 1.56-23.631Zm98.033-30.742a9.913 9.913 0 1 0 10.972 8.564c-.701-5.375-5.589-9.19-10.972-8.564Z" fill="#ECECEC"/><path d="M88.544 371.006c-1.57-1.054-4.067-1.606-5.868-2.343-6.187-2.53-11.744-7.369-15.215-13.073-8.593-14.119-5.235-28.776-.246-43.409a912.491 912.491 0 0 1 5.79-16.248c1.28-3.43 3.122-6.858 3.974-10.417.022-.09.04-.181.061-.272 4.423 2.443 8.775 5.017 13.344 7.182 12.752 6.043 26.604 9.99 40.347 13.028 3.701.795 7.424 1.489 11.164 2.081 2.072.328 4.325.484 6.344 1.023-1.096 3.525-1.893 7.137-2.988 10.653-3.234.267-29.634 2.449-31.376 3.353-.168.088-.253.282-.38.423.049.373-.024.572.303.82.58.44 1.295.451 1.995.43 3.004-.089 6.079-.734 9.082-1.025 6.006-.583 12.832-.682 18.647-1.984.583-.13 1.13-.271 1.666-.542l1.568-.216c11.475-.102 22.949-.124 34.424-.064-.706 7.855-1.073 15.76-1.561 23.631-.337 5.454-.95 11.132-.828 16.594-4.368.049-8.737.054-13.105.014-2.559-.01-5.396-.256-7.912.217-.878.165-1.596.521-2.237 1.145-.93.907-1.51 2.076-1.453 3.39.089 2.101 1.366 3.67 2.887 5.005.315.276.645.526.979.779l-46.548-.103-15.076.02c-2.528.002-5.28.197-7.782-.092Z" fill="#E9B49C"/><path d="M383.424 287.723c2.757.027 16.521.605 18.161-.319-.411 3.772-.225 7.704-.23 11.499-2.099 1.703-3.499 3.572-3.726 6.354-.152 1.873.332 4.06 1.582 5.507.189.22.393.426.599.63 1.091 10.988 2.776 21.989 4.325 32.92 1.273 8.98 2.381 18.038 3.911 26.975l-42.679.015c1.208-1.031 2.345-2.356 2.844-3.888.758-2.323-.633-3.175-1.308-5.108-.234-.669.633-1.608 1.001-2.118 1.837-2.546 1.926-5.142 2.517-8.153a3427.436 3427.436 0 0 0 8.396-43.33c.672-3.67 2.796-18.213 3.797-20.412.218-.48.343-.399.81-.572Z" fill="#6683C2"/><path d="M281.771 309.321a9.912 9.912 0 1 1-2.564-19.656 9.913 9.913 0 0 1 2.564 19.656Z" fill="#fff"/><path d="M145.192 320.685c-.535.272-1.083.412-1.666.543-5.815 1.302-12.641 1.401-18.647 1.984-3.002.291-6.077.936-9.081 1.025-.701.021-1.415.009-1.995-.43-.328-.248-.254-.447-.303-.821.127-.14.212-.335.38-.422 1.741-.904 28.142-3.086 31.376-3.353l-.064 1.474Z" fill="#E99E87"/><path d="M40.933 330.305c.05.056.09.12.148.168.689.577 4.401 1.074 5.555 1.451 7.987 2.608 11.537 12.295 12.92 19.737 1.198 6.444 1.152 12.87 1.162 19.388 8.663-.021 17.464-.372 26.112.017-5.956.366-12.033.139-18.008.137l-32.096-.021c-5.738-.001-11.525-.151-17.258.049-.03-9.833-.31-20.308 3.904-29.438 2.565-5.557 5.944-8.555 11.664-10.667 1.916-.49 4.094-.146 5.897-.821Z" fill="#93B1F2"/><path d="M186.96 360.642c13.079-.499 26.315-.088 39.408-.09l76.374.04 42.449.058 12.685.03c2.247.008 4.673-.144 6.899.134-.238.511-.451.945-.551 1.505-2.381.213-4.894.054-7.29.046l-13.882-.048-42.903-.062-76.953-.037c-12.436.007-24.942.383-37.368.093 1.151-.404 2.864-.372 3.815-1.011-.361-.27-.518-.352-.978-.4a18.85 18.85 0 0 1-1.705-.258Z" fill="#5D4130"/><path d="M182.102 371.067c-5.248.02-19.165.837-23.153-1.079-1.514-.728-2.855-1.869-3.342-3.528-.264-.905-.327-2.135.269-2.922.67-.885 1.751-1.113 2.777-1.289 8.111-.243 16.272-.081 24.389-.102-1.136 1.138-2.61 2.491-2.881 4.15-.295 1.811 1.071 3.23 2.106 4.564l-.165.206Z" fill="#ECECEC"/><path d="M364.233 362.318c.754.267 1.373.683 1.848 1.329.631.862.851 1.867.677 2.919-.232 1.41-1.178 2.619-2.314 3.44-1.155.835-2.302 1.121-3.708 1.172-12.78.459-25.941.057-38.758.038l-72.931-.065-42.585-.018c-6.935-.005-14.843.607-21.653-.304-1.064-.735-2.235-1.473-2.917-2.606-.427-.71-.491-1.437-.227-2.229.568-1.706 2.687-2.865 4.172-3.685 12.426.29 24.932-.086 37.368-.092l76.953.036 42.903.063 13.883.048c2.395.008 4.909.167 7.289-.046Z" fill="#ECECEC"/><path d="m1.63 390.017.025-.285c.355-4.363-1.396-12.793 2.026-15.879.453-.408 1.005-.716 1.53-1.021 13.695-.281 27.43-.061 41.13-.062l63.733-.061 164.769.073 136.615-.012 44.388-.017c7.649-.006 15.377-.239 23.02.017 1.763.059 3.628.256 4.94 1.571 2.059 2.065 1.823 5.741 1.725 8.433-.062 1.688-.645 5.381.179 6.827.47.113.937.232 1.412.321l-350.974.039-96.92-.072-26.061-.022c-3.645.001-7.965-.45-11.538.15Z" fill="#D4987C"/><path d="M351.024 372.758c1.201.089 4.19.189 5.249-.074.181-.248.139-.334.131-.633-1.165-.015-4.281-.25-5.225.084-.17.245-.147.332-.155.623Z" fill="#554148"/><defs><linearGradient id="a" x1="256.136" y1="230.736" x2="241.418" y2="409.093" gradientUnits="userSpaceOnUse"><stop stop-color="#3D2318"/><stop offset="1" stop-color="#4F3C3C"/></linearGradient></defs></svg>