<svg width="326" height="315" fill="none" xmlns="http://www.w3.org/2000/svg"><path d="M271.404 5.893a2.794 2.794 0 1 1-1.311-5.432 2.794 2.794 0 0 1 1.311 5.432Z" fill="#fff"/><path d="M244.612 25.867a7.296 7.296 0 1 1-3.113-14.257 7.296 7.296 0 0 1 3.113 14.257Z" fill="#68CCEA"/><path d="M170.392 143.91c-38.798 8.475-77.163-15.956-85.897-54.701-8.734-38.742 15.442-77.273 54.123-86.265 39.052-9.078 78.028 15.377 86.847 54.49 8.815 39.114-15.899 77.924-55.073 86.476Z" fill="#F2C45B"/><path d="M162.126 34.377c-2.112 2.021-3.963 4.487-5.075 7.206 3.236 3.893 6.632 9.108 6.183 14.449-.011.138-.028.276-.042.414-.688-.882-.778-2.733-1.03-3.835-1.037-4.546-3.537-9.09-7.642-11.482-4.701-2.496-8.923-2.374-14.078-1.67-4.276.778-8.046 2.274-11.454 5.025-3.614 2.094-6.224 7.259-7.279 11.144-1.809 6.662-.688 13.339-.386 20.089-.138.664-.14.746-.624 1.212-.487-4.362-.93-8.835-.892-13.228.065-7.443 2.187-14.032 7.578-19.306 5.47-4.287 10.079-5.358 16.782-6.428 1.106-.003 2.214.003 3.32-.016 3.185.596 5.969 1.428 8.67 3.271l2.065-3.378c4.955-6.906 10.562-11.753 19.177-13.168 7.414-1.218 15.566.466 21.67 4.918 4.978 3.629 8.275 9.09 9.882 14.99.879 3.227 1.251 6.804 3.598 9.379 2.031 2.228 4.955 3.352 7.674 4.477 2.353.847 4.689 1.67 6.91 2.835 3.423 2.361 5.252 5.244 6.024 9.34.768 4.077.32 8.23-.318 12.29-.91-2.402.897-5.676-.094-8.112a17.052 17.052 0 0 0-.126-1.628c-.535-4.573-1.955-7.93-5.618-10.827-2.096-1.39-4.57-2.112-6.922-2.947-4.635-1.725-8.701-3.787-10.505-8.71-.608-1.66-.898-3.48-1.35-5.188-1.42-5.376-3.957-10.192-8.187-13.879-5.544-4.833-13.116-6.892-20.382-6.32-6.965.547-13.017 3.807-17.529 9.082Z" fill="#4D261D"/><path d="M157.057 41.584c1.111-2.72 2.962-5.184 5.075-7.206.073-.005.148-.001.22-.016.845-.177 3.845-2.653 5.005-3.305 7.944-4.465 18.048-4.75 26.112-.381 7.372 3.995 10.885 10.54 13.385 18.274 1.191 3.684 2.231 7.445 5.224 10.125 2.188 1.958 5.042 2.959 7.708 4.079a319.83 319.83 0 0 1 4.437 2.243c3.026 1.948 5.124 3.562 7.051 6.645.539.862.879 1.967 1.477 2.752.991 2.437-.817 5.71.094 8.112-.937 6.286-3.93 12.03-7.224 17.38-.889.212-1.757.042-2.63.446-3.049 1.414-3.865 5.319-4.95 8.198-3.445-3.37-3.212-8.393-7.015-11.515-4.224-3.467-10.491-3.553-15.244-6.163-5.397-2.962-9.561-8.826-13.506-13.462 1.791 5.476 4.435 8.975 6.764 13.95a23.466 23.466 0 0 1-5.846-1.075c-11.1-3.551-14.931-13.578-19.822-22.963.061-.371.067-.522.017-.878l-.423.154c-2.901.519-8.037 6.85-9.655 9.167-.601.86-1.485 1.919-1.746 2.92l-.574.37c.014.148.009.335.061.474-1.418 1.286-2.504 3.87-3.454 5.558-2.937 5.217-10.436 19.908-13.974 23.315-1.147-3.111-2.564-6.463-5.739-8.014-1.631-.796-3.754-.946-5.459-.302-.686.259-1.413.757-2.099.937-.872-5.492-1.752-11.15-1.282-16.72.153-1.813 1.917-6.5 1.66-7.753.484-.466.485-.547.624-1.212.997-1.469 2.001-2.89 3.127-4.262a93.21 93.21 0 0 1 1.465-8.705c1.747-7.707 5.058-14.11 11.855-18.42 2.332-1.198 4.548-2.152 7.087-2.826 3.226-.506 6.406-.613 9.662-.374 4.106 2.392 6.606 6.935 7.643 11.48.251 1.104.342 2.955 1.03 3.836.014-.138.03-.276.042-.414.449-5.341-2.947-10.556-6.183-14.449Zm42.056 19.309c.557 3.554 6.537 9.79 9.457 11.878.271.194.548.365.834.536l.314-.108c-.048-.052-.093-.107-.142-.157-1.761-1.828-3.999-3.267-5.613-5.264-.914-1.13-3.909-6.492-4.85-6.885Zm-48.572 5.158c-3.132 6.534-7.964 12.41-15.03 14.844-.852.294-4.26.855-4.594 1.218l.189.387c5.724-.362 11.246-4.197 14.923-8.4 1.54-1.76 4.331-5.44 4.701-7.767l-.189-.282Z" fill="#7F4A43"/><path d="M236.125 52.052c-3.207 2.877-6.31 5.842-8.992 9.225 3.424 2.361 5.253 5.244 6.024 9.34.768 4.077.321 8.23-.318 12.29-.936 6.286-3.929 12.029-7.224 17.38 2.843.183 5.529.89 7.491 3.113 1.911 2.167 2.636 5.259 2.38 8.092-.449 4.959-3.581 9.354-7.321 12.454-2.499 2.07-5.982 4.104-9.345 3.705-.914-.108-1.838-.365-2.731-.588-1.977 8.927-4.719 17.424-9.636 25.21l.326-.001c4.099-.008 8.175-.016 12.236.65 13.876 2.276 27.787 10.258 37.692 20.156 3.09 3.088 5.702 6.432 8.457 9.804.247-11.894.03-23.839.029-35.738-.001-4.352-.43-11.17.227-15.193.274-1.681 1.091-3.293 2.229-4.556 1.87-2.076 4.685-3.139 7.445-3.221 3.83-.114 7.368 1.729 10.123 4.258-.025-1.855-.222-3.738-.09-5.591.191-2.681 1.426-5.276 3.512-7.004 2.353-1.949 5.593-2.438 8.558-2.09 3.887.456 5.988 2.515 8.295 5.438.836-3.093 1.974-5.495 4.852-7.22a10.45 10.45 0 0 1 8.056-1.094c2.607.7 4.699 2.531 6.012 4.856 2.091 3.703 1.417 8.926 1.395 13.077 2.095-2.492 4.439-4.073 7.754-4.335 3.036-.239 6.088.667 8.357 2.74 2.469 2.258 3.456 5.116 3.537 8.378.166 6.717-.129 13.451.008 20.169 2.624-1.775 5.417-2.837 8.64-2.226 2.634.499 5.082 1.989 6.597 4.218.854 1.256 1.375 2.601 1.559 4.103.342 2.799.138 5.756.12 8.579l-.133 14.914c-.025 2.268.319 4.987-.048 7.201.195.99.403 1.977.623 2.961 1.359-1.325 2.982-2.426 4.422-3.672 1.189-1.03 2.202-2.214 3.336-3.301 1.301-1.012 4.652-5.56 5.686-6.838a92.885 92.885 0 0 0 19.76-69.219c-2.651-23.897-16.343-47.4-35.084-62.287a100.703 100.703 0 0 0-74.773-21.002c-18.824 2.157-35.966 10.237-50.043 22.865Z" fill="#F2C45B"/><path d="m209.722 73.199-.314.108a11.976 11.976 0 0 1-.834-.536c-2.92-2.088-8.9-8.324-9.457-11.878.941.392 3.936 5.754 4.85 6.884 1.614 1.997 3.852 3.436 5.613 5.264.049.051.094.105.142.158ZM131.102 82.5l-.188-.388c.334-.362 3.742-.923 4.594-1.217 7.065-2.435 11.898-8.31 15.03-14.844l.188.281c-.37 2.328-3.161 6.007-4.7 7.767-3.677 4.204-9.199 8.038-14.924 8.4ZM162.959 66.978l.423-.154c.05.356.045.507-.017.878-3.327 5.535-5.67 10.131-12.32 12.207-.051-.139-.047-.326-.061-.473l.575-.37c5.863-2.01 8.7-6.918 11.4-12.088Z" fill="#4D261D"/><path d="M151.57 79.067c.261-1.003 1.144-2.06 1.745-2.921 1.619-2.318 6.755-8.648 9.656-9.168-2.7 5.17-5.538 10.08-11.401 12.089Z" fill="#E9B49C"/><path d="M151.052 79.907c6.65-2.075 8.993-6.671 12.319-12.206 4.892 9.385 8.723 19.412 19.822 22.963 1.896.605 3.861.966 5.847 1.074-2.329-4.974-4.974-8.473-6.764-13.949 3.945 4.636 8.109 10.5 13.506 13.462 4.752 2.61 11.02 2.696 15.244 6.163 3.803 3.122 3.57 8.145 7.015 11.515 1.085-2.879 1.901-6.784 4.95-8.198.872-.404 1.741-.233 2.629-.446 2.843.184 5.53.89 7.491 3.114 1.911 2.167 2.636 5.259 2.38 8.091-.449 4.959-3.58 9.355-7.321 12.454-2.499 2.07-5.981 4.104-9.345 3.705-.914-.108-1.838-.365-2.73-.588-1.978 8.927-4.72 17.424-9.637 25.21-2.349 3.223-4.654 6.195-7.583 8.927l-1.098.999c.284 7.39.1 13.443-5.223 19.17-4.09 4.401-9.869 6.811-15.841 6.987-4.62.136-8.529-1.129-12.559-3.3-14.123-9.916-7.771-21.748-10.554-24.846-1.675-.727-6.333-6.545-7.699-8.162a73.246 73.246 0 0 1-10.96-24.891c-1.29.279-2.679.465-4 .372-5.209-.368-9.29-3.522-12.565-7.343-1.244-2.56-2.075-4.904-2.462-7.726-.017-3.199.672-5.805 2.187-8.614a75.576 75.576 0 0 1 2.226-2.442c.686-.18 1.413-.678 2.099-.937 1.705-.644 3.828-.494 5.459.302 3.175 1.551 4.592 4.903 5.739 8.015 3.538-3.407 11.037-18.1 13.974-23.316.95-1.687 2.036-4.272 3.454-5.558Zm3.383 13.227c-3.634.3-6.818 1.299-9.248 4.215-1.176 1.411-1.899 3.027-2.49 4.749 2.279-1.849 4.509-3.669 7.295-4.707 1.924-.617 3.919-1.067 5.951-.806 2.025.261 5.444 2.676 7.195 1.519.263-.519.323-.904.151-1.463-.351-1.138-1.496-1.721-2.502-2.195-1.949-.917-4.207-1.326-6.352-1.312Zm42.261.606c-2.011.266-5.268.703-6.659 2.338-.339.4-.429.96-.345 1.46.064.386.224.483.469.765 1.799.676 5.204-1.27 7.215-1.465 1.719-.166 3.258.166 4.884.663l.274.115c1.439.61 3.773 2.624 5.309 2.275.2-.046.319-.143.479-.251.194-.58.158-.962-.132-1.512-1.135-2.151-4.05-3.436-6.312-4.037-1.613-.43-3.525-.592-5.182-.351Zm-72.917 15.318c.078.049.155.102.234.15.948.579 2.788.359 3.372 1.406-.214.459-.366.555-.741.884-1.294 1.135-2.189 2.525-2.271 4.286-.068 1.449.527 2.791 1.502 3.842 1.859 2.002 4.597 2.784 7.254 2.823.343.005.635-.009.97-.075.143-.232.218-.372.293-.64-2.622.254-5.188.013-7.329-1.699-1.128-.902-2.001-2.197-2.147-3.66-.139-1.387.419-2.701 1.326-3.731.646-.734 1.431-1.291 2.237-1.832-1.108-1.045-2.385-1.89-3.969-1.872-.254.003-.487.05-.731.118Zm99.896.955c1.52.59 2.743 1.12 3.493 2.686.542 1.133.469 2.431.023 3.581-.766 1.978-2.5 3.552-4.457 4.313-1.55.604-5.266.46-5.612.688l.165.281c3.072.214 5.794.142 8.257-2.008 1.436-1.254 2.512-3.096 2.561-5.035.029-1.185-.343-2.464-1.211-3.306-.826-.802-1.89-1.268-3.04-1.212-.06.003-.119.008-.179.012Zm-27.725 3.752a3.753 3.753 0 0 0-2.732 5.945 3.752 3.752 0 1 0 2.732-5.945Zm-38.869.234a3.676 3.676 0 1 0 2.696 6.84 3.676 3.676 0 0 0-2.696-6.84Zm16.018-.223c.206 2.711.691 5.326.33 8.054-.422 3.193-4.831 8.752-1.728 11.402 1.61 1.373 4.605 1.384 6.627 1.143 2.661-.318 5.308-1.298 7.427-2.956-.196-.03-.391-.11-.589-.089-.444.046-1.521.79-1.976 1.007-2.719 1.302-5.81 1.883-8.806 1.435-1.037-.154-2.163-.466-2.797-1.373-.607-.869-.62-2.077-.363-3.069.245-.947.748-1.868 1.166-2.75 1.321-2.784 1.872-4.949 1.757-8.058-.055-1.48-.107-3.003-.628-4.406l-.42-.34Zm-20.942 14.042c-2.298.33-4.403 1.1-5.812 3.065-1.092 1.524-1.441 3.435-1.059 5.262a6.882 6.882 0 0 0 2.973 4.337c1.45.953 3.107 1.285 4.815 1.354 2.113-.329 3.928-.884 5.295-2.662a6.673 6.673 0 0 0 1.301-5.002c-.26-1.926-1.3-3.786-2.867-4.947-1.378-1.02-2.951-1.396-4.646-1.407Zm49.13 0c-2.377.423-4.478 1.277-5.905 3.34a6.64 6.64 0 0 0-1.076 5.162c.392 1.86 1.598 3.439 3.227 4.398 1.448.852 2.959 1.06 4.596 1.195 2.271-.399 4.218-.996 5.612-2.995 1.089-1.563 1.414-3.569 1.028-5.421a6.925 6.925 0 0 0-3.264-4.58c-1.342-.793-2.7-.994-4.218-1.099Zm-36.782 15.886c.857 3.618 2.497 6.595 5.768 8.599 3.039 1.861 6.946 2.473 10.402 1.592a13.457 13.457 0 0 0 5.954-3.366c1.947-2.056 3.064-3.999 3.891-6.707-8.65-.185-17.366-.252-26.015-.118Zm-8.204 19.098c1.456 2.243 8.927 6.517 11.619 6.991.259.046.527.04.789.043-2.42-1.225-4.974-2.32-7.324-3.668-1.575-.903-3.514-2.77-5.084-3.366Zm39.479 1.092c-6.573 5.216-14.461 7.756-22.86 6.818-.74-.083-3.413-.755-3.943-.438.174.422.046.282.306.482 7.692 1.658 15.946.751 22.663-3.531a27.365 27.365 0 0 0 3.951-3.079l-.117-.252Z" fill="#E9B49C"/><path d="M142.695 102.097c.591-1.722 1.313-3.337 2.489-4.748 2.431-2.917 5.615-3.916 9.249-4.216 2.145-.014 4.403.395 6.352 1.313 1.006.473 2.151 1.056 2.502 2.194.172.56.112.944-.151 1.463-1.751 1.157-5.17-1.257-7.195-1.518-2.032-.262-4.027.188-5.951.805-2.786 1.038-5.016 2.859-7.295 4.707ZM202.262 97.502c-1.627-.497-3.165-.829-4.885-.663-2.01.194-5.415 2.141-7.214 1.465-.245-.282-.405-.379-.47-.766-.083-.5.006-1.06.346-1.459 1.39-1.634 4.648-2.071 6.659-2.338 1.656-.241 3.568-.079 5.182.35 2.262.602 5.177 1.887 6.311 4.039.29.55.326.93.133 1.51-.161.11-.279.206-.48.252-1.535.349-3.869-1.666-5.308-2.275l-.274-.115Z" fill="#4D261D"/><path d="M134.394 121.736c-.074.267-.15.408-.293.639a4.372 4.372 0 0 1-.97.076c-2.657-.039-5.395-.821-7.254-2.824-.975-1.051-1.57-2.392-1.502-3.841.082-1.762.977-3.151 2.271-4.286.376-.33.528-.425.741-.884-.584-1.048-2.424-.827-3.372-1.406-.079-.049-.156-.101-.234-.151.244-.067.477-.114.732-.117 1.583-.019 2.861.827 3.968 1.871-.806.542-1.591 1.099-2.237 1.833-.907 1.03-1.464 2.344-1.326 3.731.147 1.462 1.019 2.758 2.147 3.66 2.141 1.711 4.707 1.953 7.329 1.699ZM217.29 121.562l-.165-.282c.346-.227 4.062-.084 5.612-.687 1.957-.761 3.691-2.335 4.457-4.313.446-1.151.519-2.448-.023-3.581-.75-1.567-1.973-2.096-3.493-2.686.06-.004.119-.01.179-.012 1.15-.056 2.214.41 3.04 1.211.868.842 1.24 2.122 1.211 3.307-.049 1.939-1.125 3.781-2.561 5.035-2.463 2.149-5.185 2.221-8.257 2.008Z" fill="#1C0C0A"/><path d="M305.5 119.185c.836-3.092 1.974-5.495 4.852-7.22a10.449 10.449 0 0 1 8.056-1.093c2.607.699 4.699 2.53 6.012 4.855 2.091 3.703 1.416 8.926 1.394 13.078.008 1.182.412 4.646-.442 5.429-.104.095-.29.204-.413.28-.844-6.079 1.91-15.194-2.482-20.084-1.726-1.921-4.167-2.966-6.738-3.01-2.544-.044-5.095.921-6.867 2.767-1.923 2.002-2.303 4.216-2.244 6.872-.643-.582-.84-1.065-1.128-1.874Z" fill="#4D261D"/><path d="M306.623 121.058c-.059-2.655.321-4.869 2.244-6.871 1.772-1.846 4.323-2.811 6.867-2.768 2.571.044 5.012 1.09 6.738 3.011 4.392 4.889 1.638 14.005 2.482 20.084-.194 5.932-.013 11.912-.008 17.849.124 16.171 3.046 31.707 2.917 47.878 3.264.011 3.899.145 7.105.483-2.205.729-4.563.996-6.815 1.561 3.459 12.969 6.439 26.131 9.474 39.208-4.524-.241-9.348-.45-13.862.006.003-3.061-.147-6.233.185-9.275-.906-.706-6.717-.324-8.131-.279.464-2.624.1-5.727.077-8.41l-.108-16.661-.121-55.69-.013-17.657c0-2.558.132-5.152.04-7.705-.023-.621-.158-1.276-.497-1.801-.594 1.358-.416 98.298.056 106.803-.047.289.001.692-.275.85-1.238.708-4.056.128-5.523.224l-.389-.175c-.442-1.035 4.428-25.912 4.826-29.42.239-2.112.17-4.086-1.289-5.792-1.075-1.257-2.451-1.698-4.051-1.81l-1.331-.185c-.119-.123-.297-.21-.357-.371-.333-.896-.065-9.354-.067-10.947l-.061-41.361.046-12.574c.013-2.705.145-5.515-.159-8.205Z" fill="url(#a)"/><path d="M196.696 121.23a3.748 3.748 0 0 1-3.471-1.521 3.752 3.752 0 1 1 3.471 1.521Z" fill="#1C0C0A"/><path d="M285.221 128.432c-.025-1.856-.222-3.738-.09-5.591.191-2.682 1.426-5.277 3.512-7.004 2.353-1.95 5.593-2.439 8.558-2.091 3.887.457 5.988 2.515 8.295 5.438.288.809.485 1.292 1.128 1.874.304 2.69.172 5.5.16 8.204l-.047 12.575.061 41.36c.002 1.593-.266 10.052.067 10.948.06.161.238.247.357.371l1.331.184c-7.714.149-15.431.177-23.146.086l-.186-66.354Zm9.517 2.067c-.533 2.69-.169 6.007-.168 8.78l.006 18.634.008 17.548c-.001 2.839-.267 5.983.119 8.789l.312.352c.583-2.383.184-6.89.183-9.502l-.01-21.328.012-14.813c.003-2.66.202-5.497-.09-8.132l-.372-.328Z" fill="#F37E60"/><path d="M159.55 120.919a3.675 3.675 0 1 1-2.232-7.002 3.675 3.675 0 0 1 2.232 7.002ZM185.755 131.42c-2.12 1.658-4.766 2.638-7.427 2.956-2.022.242-5.017.231-6.627-1.143-3.104-2.65 1.306-8.208 1.728-11.402.36-2.728-.124-5.342-.33-8.054l.42.34c.52 1.403.573 2.926.628 4.407.115 3.109-.437 5.274-1.758 8.057-.418.882-.92 1.803-1.166 2.75-.256.992-.244 2.2.364 3.069.634.907 1.759 1.219 2.796 1.374 2.996.448 6.088-.134 8.807-1.436.455-.217 1.531-.961 1.976-1.007.197-.021.393.059.589.089Z" fill="#1C0C0A"/><path d="M265.172 182.883c.247-11.895.03-23.839.028-35.738 0-4.353-.429-11.17.227-15.194.275-1.68 1.092-3.292 2.23-4.555 1.87-2.077 4.685-3.139 7.445-3.221 3.83-.114 7.368 1.729 10.123 4.258l.186 66.354c-4.284-.031-8.567-.03-12.851.005-1.144-1.87-2.139-3.836-3.287-5.708-1.294-2.111-2.762-4.118-4.101-6.201Z" fill="#E99E87"/><path d="M315.26 230.823c-.471-8.505-.649-105.445-.056-106.803.34.525.475 1.18.497 1.801.093 2.552-.039 5.147-.039 7.705l.013 17.657.121 55.69.107 16.66c.024 2.684.388 5.787-.076 8.411-.396-.361-.409-.627-.567-1.121Z" fill="#4D261D"/><path d="M325.812 128.802c2.096-2.492 4.439-4.073 7.754-4.335 3.037-.239 6.088.667 8.357 2.741 2.47 2.258 3.457 5.115 3.537 8.377.166 6.717-.129 13.451.009 20.169 2.623-1.775 5.416-2.837 8.639-2.226 2.635.499 5.082 1.989 6.597 4.218.854 1.256 1.376 2.601 1.559 4.103.343 2.8.138 5.756.12 8.579l-.132 14.914c-.026 2.268.319 4.987-.049 7.201-1.659-2.889-3.469 12.392-3.469 12.392v-24.839l-3.864-2.466s.36 2.665-1.892 4.03c-1.08.655-1.021 4.696-1.021 4.696l2.151 14.518-2.151 8.144s-3.562 30.864-4.083 31.849c-.669-1.153-5.435 5.814-6.329 4.9-6.506 4.892-5.694-2.246-5.694-2.246-1.359.594-4.719-2.042-4.719-2.042l-3.266-.612s-2.794-72.335-2.918-88.505c-.004-5.938-.185-11.918.008-17.85.123-.076.31-.185.413-.28.855-.783.451-4.247.443-5.43Zm9.555 8.235c-.465 2.391-.272 52.537.04 53.657l.29.265c.433-2.672.154-5.81.154-8.529l-.02-17.11-.005-18.007c.006-3.229.236-6.646-.066-9.851-.122-.141-.244-.314-.393-.425Z" fill="#D4D4D4"/><path d="M153.07 141.836c-1.708-.068-3.365-.401-4.815-1.354a6.88 6.88 0 0 1-2.973-4.337c-.382-1.826-.032-3.737 1.06-5.261 1.408-1.966 3.513-2.736 5.812-3.066 1.695.012 3.267.387 4.645 1.407 1.568 1.161 2.608 3.022 2.867 4.948a6.672 6.672 0 0 1-1.3 5.002c-1.367 1.777-3.183 2.332-5.296 2.661ZM202.13 141.913c-1.637-.135-3.147-.343-4.595-1.195-1.629-.959-2.835-2.538-3.227-4.398a6.638 6.638 0 0 1 1.076-5.161c1.427-2.063 3.528-2.918 5.905-3.341 1.518.106 2.876.307 4.218 1.099a6.927 6.927 0 0 1 3.264 4.581c.386 1.851.061 3.858-1.028 5.42-1.394 2-3.342 2.596-5.613 2.995Z" fill="#E99E87"/><path d="m295.02 184.603-.311-.353c-.387-2.806-.12-5.949-.119-8.788l-.008-17.549-.007-18.634c-.001-2.773-.364-6.089.168-8.779l.373.327c.291 2.636.093 5.472.089 8.133l-.012 14.812.01 21.328c.001 2.613.4 7.12-.183 9.503Z" fill="#1C0C0A"/><path d="M186.624 150.528a13.459 13.459 0 0 1-5.954 3.367c-3.456.881-7.363.268-10.402-1.593-3.271-2.003-4.911-4.98-5.768-8.599 8.649-.134 17.365-.067 26.015.118-.827 2.709-1.944 4.652-3.891 6.707Z" fill="#fff"/><path d="M23.09 177.868c-2.87-5.996-6.422-15.619-4.211-22.226.841-2.514 2.5-4.604 4.91-5.764 4.73-2.28 11.11-.729 15.766.991 3.424 1.265 6.698 2.869 9.906 4.601 7.644 4.128 15.038 8.969 22.439 13.531 3.247 2.002 7.367 4.05 10.31 6.377.603.476 1.111 1.067 1.407 1.784.12.29.128.564.127.873-1.295 2.638-13.159 11.369-16.219 14.036-3.87 2.543-7.327 5.977-11.006 8.822l-9.19 7.667c-1.38 1.142-2.856 2.58-4.435 3.437-.504.274-.827.376-1.387.185-3.089-1.055-13.696-23.914-15.765-28.104-.303-1.962-1.784-4.393-2.651-6.21Z" fill="#93B1F2"/><path d="M97.547 170.699c12.925-11.904 30.934-18.222 48.359-18.652 1.366 1.616 6.023 7.435 7.699 8.161-.449 1.249-.31 2.812-.317 4.127-.025 4.426.137 8.409 2.058 12.48 1.671 3.544 4.432 6.744 7.773 8.81 4.445 3.121 9.945 4.205 15.296 3.778 5.954-.476 11.874-3.384 15.712-7.984 4.986-5.974 5.399-12.77 4.753-20.22 2.929-2.732 5.234-5.704 7.583-8.927 4.209-.007 8.394-.034 12.562.65 13.876 2.275 27.787 10.258 37.692 20.155 3.09 3.089 5.702 6.432 8.457 9.804 1.339 2.083 2.808 4.091 4.102 6.201 1.147 1.873 2.142 3.839 3.286 5.708l-43.227.109c-2.927.013-14.165-.234-15.965.354-.153.05-.248.204-.373.306l-.041.165c-5.551.446-11.267.196-16.836.201l-28.043.021c-4.037-.003-10.643-.457-14.438.069-1.173.162-2.28.81-3.072 1.683a5.338 5.338 0 0 0-1.257 2.602c-.536 3.046-.464 6.426-.625 9.519-.348 6.034-.651 12.07-.909 18.109l-1.088 20.153c-.197 3.568-.523 7.191-.53 10.765-9.256-.048-18.513-.031-27.769.052.851-4.334 2.192-8.584 3.271-12.866 1.735-6.89 3.322-13.832 5.246-20.671.578-2.058 3.894-11.137 3.863-12.227-.244-.422-.225-.449-.68-.605-1.221.98-2.373 6.648-3.128 8.478l-.128.305c-.475-10.101-3.24-19.793-9.841-27.665-6.654-7.935-16.862-13.806-27.265-14.696 1.067-1.033 2.006-2.287 3.006-3.394 1.533-1.696 3.157-3.283 4.814-4.858Z" fill="#7FCBB4"/><path d="M163.12 185.624c-3.342-2.066-6.102-5.266-7.774-8.81-1.92-4.072-2.082-8.055-2.058-12.48.008-1.316-.132-2.878.317-4.127 2.783 3.099-3.569 14.93 10.554 24.846l-.85.039c-.238.368-.201.184-.189.532Z" fill="#5FA791"/><path d="m197.774 162.196 1.097-.999c.647 7.45.233 14.246-4.752 20.22-3.838 4.6-9.759 7.509-15.712 7.984-5.351.428-10.852-.656-15.296-3.777-.012-.348-.049-.164.189-.532l.851-.039c4.029 2.172 7.939 3.437 12.558 3.3 5.972-.176 11.751-2.585 15.841-6.986 5.323-5.727 5.507-11.78 5.224-19.171Z" fill="#5FA791"/><path d="M168.714 169.838c-.263-.002-.53.003-.79-.043-2.692-.474-10.163-4.747-11.619-6.99 1.57.595 3.509 2.462 5.084 3.365 2.35 1.348 4.904 2.443 7.325 3.668Z" fill="#E99E87"/><path d="M169.283 170.757c-.261-.201-.132-.06-.306-.482.529-.317 3.202.354 3.942.437 8.4.938 16.288-1.602 22.861-6.817l.117.251a27.404 27.404 0 0 1-3.951 3.079c-6.717 4.282-14.972 5.189-22.663 3.532Z" fill="#E99F88"/><path d="M23.093 177.869c.867 1.816 2.348 4.247 2.651 6.21-1.42 2.899-2.514 6.023-3.796 8.995l-10.302 24.061c3.17 6.885 5.968 13.952 9.01 20.897 4.178 9.543 8.597 19.093 12.363 28.801-1.454.545-3.21.267-4.757.662-4.749-10.53-9.167-21.258-13.674-31.896-2.595-6.125-5.415-12.178-7.854-18.365.499-2.812 2.823-7.152 3.976-9.93l12.383-29.435Z" fill="#415888"/><path d="m89.055 179.653.668-.702c10.404.891 20.612 6.762 27.266 14.696 6.601 7.872 9.366 17.564 9.841 27.665l.128-.305c.755-1.829 1.907-7.498 3.128-8.478.455.156.436.183.68.606.031 1.09-3.285 10.169-3.863 12.226-1.924 6.84-3.511 13.782-5.246 20.671-1.079 4.283-2.42 8.533-3.271 12.866l-1.265.174.051-1.19c.883-2.836 1.526-5.75 2.41-8.593l.021-.051c1.281-3.85 1.954-7.948 2.955-11.883.967-3.806 2.334-7.673 2.959-11.544 1.178-7.309-1.247-17.504-4.541-24.059-4.612-9.181-13.309-16.456-22.99-19.779-2.878-.988-5.916-1.3-8.759-2.259-.058-.019-.115-.04-.172-.061Z" fill="#5FA791"/><path d="M62.148 230.479c6.68-17.916 15.199-35.644 26.908-50.829.057.021.114.042.172.061 2.843.959 5.88 1.271 8.758 2.259 9.682 3.323 18.378 10.598 22.991 19.779 3.293 6.554 5.719 16.75 4.54 24.059-.624 3.871-1.991 7.737-2.958 11.543-1.001 3.935-1.674 8.034-2.955 11.884-.006.017-.014.034-.021.05-1.629-.434-3.446-.56-5.118-.825a167.03 167.03 0 0 1-9.006-1.679c-11.085-2.45-22.26-5.634-32.546-10.509-3.686-1.747-7.196-3.822-10.765-5.793Z" fill="#7FCBB4"/><path d="M56.516 200.893c3.679-2.845 7.135-6.28 11.006-8.823 1.08 1.472 1.618 3.404 1.304 5.221-.328 1.903-1.57 3.566-3.18 4.599a6.969 6.969 0 0 1-5.581.908c-1.382-.35-2.455-1.021-3.55-1.905Z" fill="#E9B49C"/><path d="m212.954 195.723.041-.165c.124-.102.219-.256.372-.306 1.8-.587 13.038-.341 15.966-.354l43.226-.109c4.284-.034 8.568-.035 12.852-.004a744.14 744.14 0 0 0 23.146-.086c1.6.113 2.975.554 4.05 1.81 1.459 1.706 1.529 3.681 1.289 5.793-.397 3.508-5.268 28.385-4.826 29.42l.389.174-.239.371.085.213c-.377.139-.478.074-.654.461-.808 1.774-2.521 13.506-3.063 16.466a2765.826 2765.826 0 0 1-6.773 34.954c-.477 2.428-.548 4.522-2.03 6.576-.298.412-.997 1.169-.808 1.709.545 1.559 1.666 2.246 1.055 4.12-.402 1.236-1.319 2.305-2.294 3.136l34.429-.012 34.465-.037c4.96.001 10.782-.392 10.782-.392H379.314s1.838.286 2.45.369c3.203-.036 6.955-.637 9.458 1.777 2.539 2.45 1.738 9.854 1.724 13.314-.383-.071-.76-.167-1.138-.258-.665-1.167-.195-4.146-.145-5.508.079-2.171.269-5.136-1.392-6.803-1.058-1.061-2.562-1.219-3.984-1.267-6.166-.206-12.4-.018-18.571-.013l-35.806.014-110.204.009-132.916-.059-51.412.05c-11.051 0-22.131-.178-33.179.049-.423.247-.869.495-1.234.824-2.76 2.49-1.347 9.29-1.634 12.809l-.02.23-.992-.278c-.188-.512-.186-.981-.203-1.519-.105-3.433-.642-9.439 1.978-12.037 2.126-2.108 10.542-1.3 13.61-1.319 4.625-.161 9.293-.04 13.923-.039l25.89.017c4.82.001 9.722.185 14.527-.111l1.384-.05c2.018.234 4.238.077 6.277.075l12.162-.016 37.549.083a14.025 14.025 0 0 1-.789-.629c-1.227-1.077-2.257-2.342-2.33-4.037-.045-1.06.422-2.003 1.173-2.734.516-.504 1.096-.791 1.804-.925 2.03-.381 4.318-.183 6.383-.174 3.524.032 7.047.028 10.571-.012 2.193-.014 4.405-.089 6.596.007.464.09.904.161 1.375.209.371.038.498.104.789.322-.767.515-2.149.49-3.078.815-1.198.662-2.907 1.596-3.365 2.973-.213.638-.162 1.225.183 1.798.55.914 1.494 1.509 2.353 2.102 5.493.735 11.873.241 17.466.245l34.353.015 58.832.052c10.34.015 20.956.34 31.265-.031 1.134-.041 2.059-.272 2.991-.945.916-.662 1.68-1.637 1.867-2.775.14-.848-.037-1.659-.546-2.354-.383-.522-.882-.857-1.491-1.073.081-.452.253-.802.445-1.214.59-.256 1.176-.502 1.642-.959.546-.536.714-1.165.892-1.887.756-3.072 1.239-6.27 1.839-9.379a1828.96 1828.96 0 0 0 3.527-18.452c2.437-12.947 5.104-25.84 7.309-38.831l2.078-12.208c.488-2.703 1.285-5.638 1.335-8.382.032-1.75-.146-3.098-1.443-4.37-.891-.873-1.686-1.014-2.889-1.122-3.581-.324-7.364-.096-10.965-.093l-20.19.009-64.444-.042Zm-84.974 96.875c-.827.142-1.699.327-2.24 1.04-.481.636-.43 1.627-.217 2.357.393 1.339 1.474 2.259 2.696 2.846 3.217 1.546 14.444.887 18.677.871l.133-.166c-.834-1.076-1.936-2.221-1.698-3.682.218-1.338 1.407-2.43 2.323-3.347-6.547.016-13.131-.115-19.674.081Z" fill="url(#b)"/><path d="M146.151 258.845c.007-3.574.333-7.196.53-10.765l1.088-20.153c.258-6.038.561-12.074.909-18.108.161-3.093.089-6.474.625-9.52a5.335 5.335 0 0 1 1.257-2.601c.792-.874 1.899-1.522 3.072-1.684 3.795-.525 10.401-.072 14.438-.069l28.043-.021c5.569-.004 11.285.245 16.836-.2l64.444.041 20.191-.008c3.601-.003 7.384-.231 10.965.092 1.203.109 1.998.249 2.889 1.122 1.296 1.272 1.474 2.621 1.443 4.37-.05 2.744-.848 5.679-1.336 8.382l-2.078 12.208c-2.204 12.991-4.871 25.885-7.308 38.832a1868.399 1868.399 0 0 1-3.527 18.452c-.6 3.109-1.083 6.307-1.84 9.379-.177.721-.345 1.35-.891 1.886-.466.457-1.053.703-1.642.959-1.796-.224-3.753-.101-5.566-.107l-10.233-.025-34.242-.047-61.609-.032c-10.562.001-21.24-.33-31.789.072-2.191-.096-4.403-.02-6.596-.006-.098-4.406.396-8.987.668-13.386.394-6.349.69-12.727 1.259-19.063Zm79.08-24.799a7.997 7.997 0 1 0 1.847 15.887 7.997 7.997 0 0 0-1.847-15.887Z" fill="#ECECEC"/><path d="M71.424 299.662c-1.267-.85-3.281-1.295-4.734-1.889-4.99-2.041-9.473-5.945-12.274-10.546-6.931-11.39-4.223-23.213-.198-35.017a736 736 0 0 1 4.671-13.107c1.033-2.767 2.518-5.532 3.205-8.403.018-.073.033-.146.05-.22 3.568 1.971 7.078 4.047 10.764 5.794 10.287 4.875 21.46 8.059 32.547 10.509 2.986.642 5.989 1.202 9.006 1.679 1.671.265 3.489.39 5.118.825-.885 2.844-1.528 5.758-2.411 8.594-2.608.215-23.905 1.975-25.31 2.705-.136.07-.205.227-.307.341.04.301-.02.461.245.661.468.355 1.044.364 1.61.347 2.422-.071 4.903-.592 7.325-.827 4.845-.47 10.351-.55 15.042-1.6.47-.105.912-.218 1.344-.438l1.265-.173c9.256-.083 18.513-.1 27.769-.052-.569 6.336-.865 12.713-1.259 19.062-.272 4.4-.766 8.981-.668 13.386-3.524.04-7.048.044-10.571.012-2.065-.009-4.353-.207-6.383.175-.708.133-1.288.42-1.805.924-.75.731-1.217 1.674-1.172 2.734.072 1.695 1.103 2.96 2.33 4.037.254.223.519.425.789.629l-37.549-.083-12.162.016c-2.04.002-4.259.159-6.277-.075Z" fill="#E9B49C"/><path d="M315.256 230.824c.158.494.171.761.566 1.121 1.414-.045 7.225-.427 8.131.279-1.323.745-12.426.279-14.65.258l-.084-.213.239-.371c1.467-.096 4.285.484 5.523-.224.276-.157.228-.561.275-.85Z" fill="#1C0C0A"/><path d="M309.301 232.482c2.224.021 13.326.487 14.65-.257-.332 3.042-.182 6.214-.186 9.275-1.694 1.374-2.823 2.882-3.005 5.126-.123 1.511.267 3.275 1.275 4.442.153.178.317.344.484.509.88 8.863 2.239 17.737 3.489 26.555 1.027 7.245 1.92 14.551 3.155 21.76l-34.429.012c.975-.831 1.892-1.9 2.294-3.136.612-1.874-.51-2.561-1.055-4.12-.188-.54.511-1.297.808-1.709 1.482-2.054 1.554-4.148 2.03-6.576a2765.826 2765.826 0 0 0 6.773-34.954c.542-2.96 2.255-14.692 3.063-16.466.176-.387.277-.322.654-.461Z" fill="#6683C2"/><path d="M227.307 249.903a7.997 7.997 0 1 1-2.291-15.83 7.997 7.997 0 0 1 2.291 15.83Z" fill="#fff"/><path d="M117.12 259.07c-.432.22-.873.333-1.344.438-4.691 1.05-10.197 1.13-15.042 1.6-2.422.235-4.903.756-7.325.827-.566.017-1.142.008-1.61-.347-.264-.2-.205-.36-.244-.661.102-.114.17-.271.306-.341 1.405-.73 22.702-2.49 25.311-2.705l-.052 1.189Z" fill="#E99E87"/><path d="M33.015 266.832c.04.045.073.097.12.136.555.465 3.55.866 4.48 1.171 6.443 2.103 9.307 9.918 10.423 15.921.966 5.198.929 10.382.937 15.639 6.988-.016 14.088-.3 21.064.014-4.805.296-9.707.112-14.526.111l-25.891-.017c-4.63-.001-9.298-.122-13.923.039-.024-7.932-.25-16.382 3.15-23.746 2.069-4.484 4.794-6.901 9.409-8.606 1.546-.395 3.302-.117 4.757-.662Z" fill="#93B1F2"/><path d="M150.82 291.301c10.549-.403 21.227-.071 31.789-.073l61.609.033 34.242.047 10.233.024c1.813.006 3.77-.117 5.566.108-.193.412-.364.762-.445 1.214-1.92.172-3.948.044-5.88.037l-11.199-.038-34.609-.051-62.076-.029c-10.032.005-20.12.308-30.144.074.928-.325 2.311-.3 3.077-.815-.29-.218-.417-.284-.789-.322-.47-.048-.91-.119-1.374-.209Z" fill="#5D4130"/><path d="M146.896 299.711c-4.234.016-15.46.676-18.678-.871-1.221-.587-2.303-1.507-2.695-2.846-.214-.729-.264-1.721.217-2.357.54-.713 1.412-.897 2.24-1.04 6.543-.196 13.126-.064 19.674-.081-.916.917-2.106 2.009-2.324 3.347-.238 1.461.864 2.606 1.699 3.682l-.133.166Z" fill="#ECECEC"/><path d="M293.814 292.654c.609.215 1.108.551 1.491 1.072.509.695.686 1.506.546 2.355-.187 1.137-.95 2.113-1.867 2.775-.931.673-1.856.904-2.991.945-10.309.37-20.925.046-31.265.03l-58.831-.051-34.353-.015c-5.594-.005-11.974.489-17.467-.245-.858-.593-1.803-1.189-2.353-2.103-.345-.572-.396-1.159-.183-1.798.458-1.376 2.167-2.311 3.366-2.972 10.023.234 20.111-.069 30.143-.075l62.077.03 34.608.05 11.199.039c1.932.006 3.96.134 5.88-.037Z" fill="#ECECEC"/><path d="m1.31 314.998.021-.23c.287-3.52-1.126-10.32 1.634-12.809.366-.33.811-.578 1.235-.824 11.047-.227 22.127-.049 33.178-.05l51.412-.05 132.916.06 110.204-.01 35.806-.014c6.171-.005 12.405-.192 18.571.014 1.422.048 2.926.206 3.984 1.267 1.662 1.666 1.471 4.631 1.392 6.803-.05 1.361-.52 4.341.145 5.507.379.091.755.187 1.139.259l-283.123.032-78.184-.058-21.023-.019c-2.94.001-6.425-.362-9.307.122Z" fill="#D4987C"/><path d="M310.117 197.431c-.531-1.414-1.004-2.965-1.667-4.318-.385-.785-.779-1.141-1.591-1.424-.45-.034-.864-.045-1.304.072-.619.166-1.128.488-1.434 1.065a2.53 2.53 0 0 0-.277 1.457c.131 1.293 1.224 3.501 1.653 4.859.276-.21.564-.406.845-.607 1.181-.699 2.428-.952 3.775-1.104ZM316.052 200.997c-1.205-1.584-2.754-2.628-4.755-2.899-1.777-.24-3.753.289-5.175 1.379-1.5 1.15-2.556 2.948-2.782 4.827-.172 1.434.096 2.735.611 4.07-.611.243-1.226.514-1.513 1.156-.354.791.056 1.625.359 2.358.471 1.249 1.22 3.78 1.846 4.834.14.235.322.43.572.549.253.12.524.143.799.169.775-.199 1.528-.599 2.253-.936 1.565-.727 3.162-1.577 4.805-2.106l.423-.202c2.374-.975 4.727-2.004 7.105-2.968.457-.204.913-.417 1.377-.606 2.261 5.818 4.605 11.636 6.708 17.511l-1.337.529-.095.084c.243.953.713 2.21 1.187 3.072l1.661-.599c.343 1.032.769 2.866 1.611 3.59.221.19.494.302.79.258.353-.053.749-.343.947-.632.13-.189.123-.301.071-.522-.294-1.257-.914-2.554-1.375-3.767l-3.188-8.282-4.678-12.371c-.744-1.969-1.409-4.04-2.263-5.956-.168-.378-.467-.768-.836-.969-1.005-.546-2.938.532-3.959.872-.27-.89-.676-1.657-1.169-2.443Z" fill="#554148"/><path d="M320.598 211.23c-2.378.964-4.731 1.993-7.104 2.968.596 1.19 1.016 2.515 1.491 3.761l2.681 6.994a468.173 468.173 0 0 1 4.169 10.934c.564 1.519 1.332 3.126 1.692 4.705 2.715.045 5.437.003 8.153-.004-.506-.924-.816-2.117-1.173-3.114a378.106 378.106 0 0 0-2.068-5.654c-.474-.862-.945-2.119-1.187-3.072l.094-.084c-.341-.307-5.962-15.462-6.748-17.434Z" fill="#F37E60"/><path d="M323.531 240.591c-.359-1.579-1.127-3.187-1.692-4.705a468.173 468.173 0 0 0-4.169-10.934l-2.68-6.995c-.476-1.245-.896-2.57-1.492-3.76l-.423.202c2.256 6.654 4.918 13.148 7.357 19.733a448.118 448.118 0 0 0 1.584 4.18c.277.726.65 1.521.809 2.28l.706-.001Z" fill="#FEFEFE"/><path d="M313.07 214.4c-1.642.53-3.24 1.379-4.805 2.106-.725.337-1.478.737-2.252.936 2.273 6.644 5.057 13.116 7.391 19.737.335.949 1.165 2.478 1.289 3.401 2.709.024 5.418.028 8.127.013-.158-.758-.531-1.553-.809-2.28a412.282 412.282 0 0 1-1.583-4.18c-2.439-6.585-5.101-13.079-7.358-19.733Z" fill="#F37E60"/><path d="M342.825 242.161c1.035-.007 4.628-.176 5.424.06l.565.041c.839-.083 1.752-.019 2.598-.019 2.23.001 4.494.081 6.721-.036.691-.17 3.123-.088 3.865.036.658.016 1.318.043 1.976.025-.026 4.7-.026 9.4.001 14.101.003 2.578-.127 5.211.03 7.781.345-.805.597-1.678.878-2.508.711-2.105 1.35-4.233 2.039-6.345 1.423-4.36 3.005-8.684 4.351-13.066l6.288-.022c4.009-.064 8.07-.118 12.078-.009l-2.896 7.791a606.452 606.452 0 0 0-8.004 24.112 296.711 296.711 0 0 0-1.75 5.594c-.489 1.625-.935 3.275-1.525 4.867-2.796-4.509-5.753-8.944-8.666-13.38-.733-1.116-1.451-2.243-2.194-3.352-.411-.614-.877-1.213-1.255-1.847l-4.034-6.07c-.682-1.024-1.323-2.184-2.13-3.105-.348-.397-.839-.852-1.372-.967-.509-.109-1.126.047-1.553.332-.385.256-.689.659-.767 1.121-.054.32-.006.611.123.905.529 1.202 1.47 2.356 2.207 3.451 1.225 1.822 2.371 3.693 3.583 5.523.737 1.111 1.847 2.563 2.43 3.708 2.478 3.609 4.802 7.35 7.184 11.024l3.053 4.726c.598.929 1.241 1.852 1.773 2.82a515.744 515.744 0 0 0-3.755 11.108c1.611.095 3.265.019 4.881.017l9.122-.032c.218-1.296.354-2.617.537-3.919l1.175-8.323 3.725-26.313 1.855-13.082c.279-1.959.894-5.002.837-6.867-.009-.286-.175-.555-.409-.728-.449-.33-10.795-.177-12.023-.177l-45.344.078-13.682.008c-2.29-.001-5.016-.167-7.247.084-.216.137-.395.284-.493.53-.17.429-.091.974-.038 1.422a854.87 854.87 0 0 0 1.942 14.348 3127.83 3127.83 0 0 0 4.439 31.677c.334 2.327.678 4.658.981 6.988.129.995.251 3.374.605 4.181.25.123.553.082.826.074.014-2.448.141-4.893.16-7.342.008-1.124-.16-3.863.044-4.791.614-.239 3.543-3.926 4.097-4.711.454-.642.811-1.342 1.261-1.982l.04-.057c.336-.723.688-1.41 1.177-2.043.605.581 1.005 1.343 1.434 2.056.197.344.375.704.653.99l.217.031c-1.529-4.322-3.266-8.556-4.917-12.83a1951.212 1951.212 0 0 1-7.208-18.86c-1.105-2.89-2.312-5.769-3.333-8.687l5.036-.006c.981-.002 1.992.037 2.969-.051 1.036 2.396 1.876 4.907 2.803 7.351l5.88 15.683a2918.841 2918.841 0 0 1 13.068 35.249l.756.005c-1.959-5.077-3.732-10.228-5.616-15.333l-10.228-27.328-3.914-10.439c-.647-1.712-1.245-3.454-1.967-5.136h8.151c.807 2.009 1.502 4.08 2.259 6.11l5.666 15.08c.079-.163.085-.271.075-.448-.123-2.139-.562-4.338-.853-6.463-.681-4.782-1.328-9.567-1.942-14.358 1.71-.02 3.422-.085 5.131-.051l.146-.005Z" fill="#9BB4EB"/><path d="M330.866 282.68c1.017 2.304 2.961 3.949 4.546 5.838l.132.07c.168 1.375.008 2.958 0 4.351-.005 1.075.124 3.306-.057 4.276.543 1 .866 2.249 1.251 3.326 1.028.086 2.095.033 3.127.027l5.299-.039a2908.264 2908.264 0 0 0-13.069-35.249l-5.879-15.683c-.927-2.443-1.767-4.955-2.804-7.351-.976.089-1.987.05-2.968.052l-5.036.005c1.021 2.918 2.228 5.798 3.332 8.687a1951.28 1951.28 0 0 0 7.209 18.86c1.651 4.275 3.388 8.509 4.917 12.83ZM340.273 263.487l-5.666-15.08c-.757-2.03-1.451-4.101-2.259-6.11h-8.151c.723 1.682 1.32 3.424 1.967 5.136l3.914 10.439 10.228 27.328c1.884 5.105 3.657 10.257 5.616 15.333.669.005 1.338.003 2.008-.004-1.593-2.185-2.718-5.509-3.342-8.145-.445-.601-2.715-18.287-3.014-20.577-.326-2.493-.563-6.037-1.301-8.32Z" fill="#F37E60"/><path d="m330.86 282.678-.217-.031c-.278-.285-.457-.646-.654-.989-.869.053-1.741.049-2.61-.013l-.04.056c-.45.641-.807 1.34-1.261 1.983-.555.784-3.483 4.471-4.097 4.71l.067.017c1.445.402 2.393 1.856 3.836 2.228 2.077.536 4.251-1.291 6.174-1.842 1.093-.313 2.223-.29 3.348-.28-1.585-1.889-3.529-3.535-4.546-5.839Z" fill="#E9B49C"/><path d="M335.409 288.517c-1.126-.01-2.255-.033-3.349.28-1.922.551-4.097 2.378-6.174 1.842-1.443-.372-2.39-1.825-3.835-2.227a.844.844 0 0 0-.068-.017c-.203.928-.036 3.667-.044 4.791-.018 2.449-.145 4.893-.159 7.342 1.508-.063 3.039-.012 4.549-.014l9.162.011-.008-3.312c.182-.97.053-3.201.058-4.276.007-1.392.168-2.975 0-4.351l-.132-.069Z" fill="#F37E60"/><path d="M283.159 301.08c.97.072 3.38.152 4.235-.06.146-.2.112-.27.106-.511-.94-.012-3.454-.201-4.215.068-.137.198-.118.268-.126.503Z" fill="#554148"/><defs><linearGradient id="a" x1="300.543" y1="174.04" x2="343.939" y2="179.017" gradientUnits="userSpaceOnUse"><stop stop-color="#FDE8E5"/><stop offset="1" stop-color="#FBFDF7"/></linearGradient><linearGradient id="b" x1="206.619" y1="186.51" x2="194.746" y2="330.386" gradientUnits="userSpaceOnUse"><stop stop-color="#3D2318"/><stop offset="1" stop-color="#4F3C3C"/></linearGradient></defs></svg>