<svg width="1344" height="502" fill="none" xmlns="http://www.w3.org/2000/svg"><g clip-path="url(#a)"><path fill="#3F5483" d="M0 0h1344v502H0z"/><path fill="#324266" d="M-60 208.359h1461v428H-60z"/><path d="M517.588 270.67h-10.252V107.719h10.252V270.67ZM527.846 270.67h-10.252V90.364h10.252V270.67Z" fill="#324266"/><path d="M538.073 270.67H527.82V100.468h10.253V270.67ZM558.565 270.67h-10.253V109.68h10.253v160.99ZM548.338 91.047h-10.252V78.165h10.252v12.882ZM527.846 81.45h-10.252V68.908h10.252v12.54ZM568.823 270.67H558.57V100.468h10.253V270.67Z" fill="#324266"/><path d="M579.065 270.67h-10.253V114.672h10.253V270.67Z" fill="#324266"/><path d="M589.315 270.67h-10.253V124.984h10.253V270.67Z" fill="#324266"/><path d="M599.565 270.67h-10.253V103.172h10.253V270.67ZM620.073 77.75H609.82V64.244h10.253V77.75ZM620.073 55.463H609.82V44.839h10.253v10.624Z" fill="#324266"/><path d="M609.807 270.67h-10.252V95.966h10.252V270.67ZM620.073 270.67H609.82V87.229h10.253V270.67Z" fill="#324266"/><path d="M630.307 270.67h-10.252V114.672h10.252V270.67ZM650.807 77.008h-10.252V61.57h10.252v15.438ZM753.268 82.459h-10.252V70.751h10.252v11.708ZM691.783 71.346h-10.252V60.38h10.252v10.966ZM691.783 53.219h-10.252V42h10.252v11.218ZM671.299 82.207h-10.252V70.989h10.252v11.218ZM589.315 95.164h-10.253V78.166h10.253v16.998ZM589.315 69.637h-10.253V58.85h10.253v10.787ZM568.823 83.352H558.57V72.133h10.253v11.219ZM548.338 66.16h-10.252V54.942h10.252V66.16Z" fill="#324266"/><path d="M640.557 270.67h-10.252V103.172h10.252V270.67Z" fill="#324266"/><path d="M650.807 270.67h-10.252V95.966h10.252V270.67Z" fill="#324266"/><path d="M661.033 270.67h-10.252V114.672h10.252V270.67ZM671.299 270.67h-10.252V131.938h10.252V270.67Z" fill="#324266"/><path d="M681.533 270.67h-10.252V92.34h10.252v178.33ZM548.338 270.67h-10.252V118.892h10.252V270.67Z" fill="#324266"/><path d="M691.783 270.67h-10.252V79.503h10.252V270.67Z" fill="#324266"/><path d="M702.026 270.67h-10.253V87.229h10.253V270.67Z" fill="#324266"/><path d="M712.276 270.67h-10.253V100.468h10.253V270.67ZM732.776 270.67h-10.253V102.206h10.253V270.67Z" fill="#324266"/><path d="M743.026 270.67h-10.253V126.381h10.253V270.67ZM732.776 91.836h-10.253V69.192h10.253v22.644ZM794.268 78.522h-10.252v-11.56h10.252v11.56ZM732.776 62.52h-10.253V50.84h10.253v11.68Z" fill="#324266"/><path d="M753.268 270.67h-10.252V92.34h10.252v178.33Z" fill="#324266"/><path d="M763.518 270.67h-10.252V100.468h10.252V270.67ZM722.533 270.67h-10.252V111.21h10.252v159.46Z" fill="#324266"/><path d="M773.768 270.67h-10.252V78.463h10.252V270.67ZM773.768 63.857h-10.252V52.788h10.252v11.07Z" fill="#324266"/><path d="M784.018 270.67h-10.252V87.229h10.252V270.67Z" fill="#324266"/><path d="M794.268 270.67h-10.252V98.744h10.252V270.67Z" fill="#324266"/><path d="M804.494 270.67h-10.252V118.892h10.252V270.67Z" fill="#324266"/><path d="M548.33 139.768h-10.252v-11.129h10.252v11.129ZM589.307 153.705h-10.252V142.68h10.252v11.025ZM702.026 126.232h-10.253v-11.024h10.253v11.024ZM743.002 153.75H732.75v-11.099h10.252v11.099ZM784.018 126.262h-10.252v-11.099h10.252v11.099ZM630.307 139.725h-10.252v-15.557h10.252v15.557Z" fill="#3F5483"/><path d="M5.225 270.67H-5.027V103.172H5.225V270.67ZM25.737 77.75H15.484V64.244h10.253V77.75ZM25.737 55.46H15.484V44.838h10.253v10.624Z" fill="#324266"/><path d="M15.471 270.67H5.219V95.966H15.47V270.67ZM25.737 270.67H15.484V87.229h10.253V270.67Z" fill="#324266"/><path d="M35.967 270.67H25.715V114.672h10.252V270.67ZM56.467 77.006H46.215V61.568h10.252v15.438ZM158.936 82.459h-10.252V70.751h10.252v11.708ZM97.448 71.346H87.195V60.38h10.253v10.966ZM97.448 53.219H87.195V42h10.253v11.218ZM76.963 82.207H66.711V70.989h10.252v11.218Z" fill="#324266"/><path d="M46.213 270.67H35.961V103.172h10.252V270.67ZM56.467 270.67H46.215V95.966h10.252V270.67Z" fill="#324266"/><path d="M66.713 270.67H56.461V114.672h10.252V270.67Z" fill="#324266"/><path d="M76.963 270.67H66.711V131.938h10.252V270.67Z" fill="#324266"/><path d="M87.194 270.67H76.94V92.34h10.253v178.33ZM97.448 270.67H87.195V79.503h10.253V270.67ZM107.701 270.67H97.449V87.229h10.252V270.67Z" fill="#324266"/><path d="M117.94 270.67h-10.252V100.468h10.252V270.67ZM138.451 270.67h-10.252V102.206h10.252V270.67Z" fill="#324266"/><path d="M148.682 270.67H138.43V126.381h10.252V270.67ZM138.451 91.834h-10.252V69.19h10.252v22.644ZM199.924 78.522h-10.252v-11.56h10.252v11.56ZM138.451 62.52h-10.252V50.84h10.252v11.68ZM158.936 270.67h-10.252V92.34h10.252v178.33ZM169.198 270.67h-10.253V100.468h10.253V270.67ZM128.201 270.67h-10.252V111.21h10.252v159.46Z" fill="#324266"/><path d="M179.428 270.67h-10.252V78.463h10.252V270.67ZM179.428 63.857h-10.252V52.788h10.252v11.07Z" fill="#324266"/><path d="M189.674 270.67h-10.252V87.229h10.252V270.67Z" fill="#324266"/><path d="M199.924 270.67h-10.252V98.744h10.252V270.67Z" fill="#324266"/><path d="M210.162 270.67H199.91V118.892h10.252V270.67Z" fill="#324266"/><path d="M189.674 126.262h-10.252v-11.099h10.252v11.099ZM35.967 139.723H25.715v-15.557h10.252v15.557Z" fill="#3F5483"/><path d="M814.76 270.67h-10.252V107.719h10.252V270.67Z" fill="#324266"/><path d="M825.002 270.67H814.75V90.364h10.252V270.67Z" fill="#324266"/><path d="M835.244 270.67h-10.252V100.468h10.252V270.67ZM855.752 270.67H845.5V109.68h10.252v160.99ZM845.494 91.047h-10.252V78.165h10.252v12.882ZM825.002 81.45H814.75V68.908h10.252v12.54Z" fill="#324266"/><path d="M865.987 270.67h-10.253V100.468h10.253V270.67Z" fill="#324266"/><path d="M876.229 270.67h-10.252V114.672h10.252V270.67ZM886.487 270.67h-10.253V124.984h10.253V270.67Z" fill="#324266"/><path d="M896.737 270.67h-10.253V103.172h10.253V270.67ZM917.229 77.75h-10.252V64.244h10.252V77.75ZM917.229 55.463h-10.252V44.839h10.252v10.624Z" fill="#324266"/><path d="M906.979 270.67h-10.252V95.966h10.252V270.67Z" fill="#324266"/><path d="M917.229 270.67h-10.252V87.229h10.252V270.67Z" fill="#324266"/><path d="M927.471 270.67h-10.252V114.672h10.252V270.67ZM947.979 77.008h-10.252V61.57h10.252v15.438ZM1050.42 82.459h-10.25V70.751h10.25v11.708ZM988.955 71.346h-10.252V60.38h10.252v10.966ZM988.955 53.219h-10.252V42h10.252v11.218ZM968.471 82.207h-10.252V70.989h10.252v11.218ZM886.487 95.164h-10.253V78.166h10.253v16.998ZM886.487 69.637h-10.253V58.85h10.253v10.787ZM865.987 83.352h-10.253V72.133h10.253v11.219ZM845.494 66.16h-10.252V54.942h10.252V66.16ZM937.729 270.67h-10.252V103.172h10.252V270.67Z" fill="#324266"/><path d="M947.979 270.67h-10.252V95.966h10.252V270.67Z" fill="#324266"/><path d="M958.221 270.67h-10.252V114.672h10.252V270.67Z" fill="#324266"/><path d="M968.471 270.67h-10.252V131.938h10.252V270.67Z" fill="#324266"/><path d="M978.705 270.67h-10.252V92.34h10.252v178.33ZM845.494 270.67h-10.252V118.892h10.252V270.67Z" fill="#324266"/><path d="M988.955 270.67h-10.252V79.503h10.252V270.67Z" fill="#324266"/><path d="M999.198 270.67h-10.253V87.229h10.253V270.67Z" fill="#324266"/><path d="M1009.43 270.67h-10.25V100.468h10.25V270.67ZM1029.94 270.67h-10.25V102.206h10.25V270.67Z" fill="#324266"/><path d="M1040.18 270.67h-10.25V126.381h10.25V270.67ZM1029.94 91.836h-10.25V69.192h10.25v22.644ZM1091.43 78.522h-10.25v-11.56h10.25v11.56ZM1029.94 62.52h-10.25V50.84h10.25v11.68Z" fill="#324266"/><path d="M1050.42 270.67h-10.25V92.34h10.25v178.33ZM1060.69 270.67h-10.25V100.468h10.25V270.67ZM1019.7 270.67h-10.25V111.21h10.25v159.46ZM1070.94 270.67h-10.25V78.463h10.25V270.67ZM1070.94 63.857h-10.25V52.788h10.25v11.07Z" fill="#324266"/><path d="M1081.18 270.67h-10.25V87.229h10.25V270.67ZM1091.43 270.67h-10.25V98.744h10.25V270.67Z" fill="#324266"/><path d="M1101.67 270.67h-10.26V118.892h10.26V270.67Z" fill="#324266"/><path d="M845.487 139.768h-10.253v-11.129h10.253v11.129ZM886.479 153.705h-10.252V142.68h10.252v11.025ZM1081.18 126.262h-10.25v-11.099h10.25v11.099ZM927.471 139.723h-10.252v-15.557h10.252v15.557Z" fill="#3F5483"/><path d="M220.408 270.67h-10.252V107.719h10.252V270.67ZM230.67 270.67h-10.252V90.364h10.252V270.67Z" fill="#324266"/><path d="M240.901 270.67h-10.253V100.468h10.253V270.67ZM261.412 270.67H251.16V109.68h10.252v160.99ZM251.162 91.047H240.91V78.165h10.252v12.882ZM230.67 81.45h-10.252V68.908h10.252v12.54Z" fill="#324266"/><path d="M271.651 270.67h-10.253V100.468h10.253V270.67ZM281.912 270.67H271.66V114.672h10.252V270.67Z" fill="#324266"/><path d="M292.143 270.67h-10.252V124.984h10.252V270.67Z" fill="#324266"/><path d="M302.389 270.67h-10.252V103.172h10.252V270.67ZM322.901 77.75h-10.253V64.244h10.253V77.75ZM322.901 55.463h-10.253V44.839h10.253v10.624ZM312.643 270.67h-10.252V95.966h10.252V270.67ZM322.901 270.67h-10.253V87.229h10.253V270.67Z" fill="#324266"/><path d="M333.139 270.67h-10.252V114.672h10.252V270.67ZM353.631 77.008h-10.252V61.57h10.252v15.438ZM456.096 82.459h-10.252V70.751h10.252v11.708ZM394.612 71.346h-10.253V60.38h10.253v10.966ZM394.612 53.219h-10.253V42h10.253v11.218ZM374.135 82.207h-10.252V70.989h10.252v11.218ZM292.143 95.164h-10.252V78.166h10.252v16.998ZM292.143 69.637h-10.252V58.85h10.252v10.787ZM271.651 83.352h-10.253V72.133h10.253v11.219ZM251.162 66.16H240.91V54.942h10.252V66.16Z" fill="#324266"/><path d="M343.385 270.67h-10.252V103.172h10.252V270.67Z" fill="#324266"/><path d="M353.631 270.67h-10.252V95.966h10.252V270.67Z" fill="#324266"/><path d="M363.869 270.67h-10.252V114.672h10.252V270.67ZM374.135 270.67h-10.252V131.938h10.252V270.67Z" fill="#324266"/><path d="M384.362 270.67h-10.253V92.34h10.253v178.33ZM251.162 270.67H240.91V118.892h10.252V270.67Z" fill="#324266"/><path d="M394.612 270.67h-10.253V79.503h10.253V270.67Z" fill="#324266"/><path d="M404.858 270.67h-10.253V87.229h10.253V270.67ZM415.112 270.67h-10.253V100.468h10.253V270.67ZM435.604 270.67h-10.252V102.206h10.252V270.67Z" fill="#324266"/><path d="M445.854 270.67h-10.252V126.381h10.252V270.67ZM435.604 91.836h-10.252V69.192h10.252v22.644ZM497.096 78.522h-10.252v-11.56h10.252v11.56ZM435.604 62.52h-10.252V50.84h10.252v11.68Z" fill="#324266"/><path d="M456.096 270.67h-10.252V92.34h10.252v178.33ZM466.354 270.67h-10.252V100.468h10.252V270.67ZM425.358 270.67h-10.253V111.21h10.253v159.46Z" fill="#324266"/><path d="M476.604 270.67h-10.252V78.463h10.252V270.67ZM476.604 63.857h-10.252V52.788h10.252v11.07Z" fill="#324266"/><path d="M486.846 270.67h-10.252V87.229h10.252V270.67Z" fill="#324266"/><path d="M497.096 270.67h-10.252V98.744h10.252V270.67Z" fill="#324266"/><path d="M507.33 270.67h-10.252V118.892h10.252V270.67Z" fill="#324266"/><path d="M486.854 126.264h-10.252v-11.099h10.252v11.099ZM333.143 139.725h-10.252v-15.557h10.252v15.557Z" fill="#3F5483"/><path d="M1111.92 270.67h-10.26V107.719h10.26V270.67ZM1122.17 270.67h-10.25V90.364h10.25V270.67Z" fill="#324266"/><path d="M1132.41 270.67h-10.25V100.468h10.25V270.67ZM1152.92 270.67h-10.25V109.68h10.25v160.99ZM1142.67 91.047h-10.26V78.165h10.26v12.882ZM1122.17 81.45h-10.25V68.908h10.25v12.54Z" fill="#324266"/><path d="M1163.16 270.67h-10.25V100.468h10.25V270.67Z" fill="#324266"/><path d="M1173.4 270.67h-10.25V114.672h10.25V270.67ZM1183.65 270.67h-10.25V124.984h10.25V270.67ZM1193.91 270.67h-10.25V103.172h10.25V270.67ZM1214.4 77.75h-10.25V64.244h10.25V77.75ZM1214.4 55.463h-10.25V44.839h10.25v10.624Z" fill="#324266"/><path d="M1204.15 270.67h-10.25V95.966h10.25V270.67ZM1214.4 270.67h-10.25V87.229h10.25V270.67Z" fill="#324266"/><path d="M1224.63 270.67h-10.25V114.672h10.25V270.67ZM1245.14 77.008h-10.26V61.57h10.26v15.438ZM1347.6 82.459h-10.26V70.751h10.26v11.708ZM1286.12 71.346h-10.25V60.38h10.25v10.966ZM1286.12 53.219h-10.25V42h10.25v11.218ZM1265.64 82.207h-10.25V70.989h10.25v11.218ZM1183.65 95.164h-10.25V78.166h10.25v16.998ZM1183.65 69.637h-10.25V58.85h10.25v10.787ZM1163.16 83.352h-10.25V72.133h10.25v11.219ZM1142.67 66.16h-10.26V54.942h10.26V66.16ZM1234.89 270.67h-10.26V103.172h10.26V270.67Z" fill="#324266"/><path d="M1245.14 270.67h-10.26V95.966h10.26V270.67Z" fill="#324266"/><path d="M1255.38 270.67h-10.26V114.672h10.26V270.67ZM1265.64 270.67h-10.25V131.938h10.25V270.67Z" fill="#324266"/><path d="M1275.87 270.67h-10.25V92.34h10.25v178.33ZM1142.67 270.67h-10.26V118.892h10.26V270.67ZM1286.12 270.67h-10.25V79.503h10.25V270.67ZM1296.37 270.67h-10.25V87.229h10.25V270.67ZM1306.62 270.67h-10.25V100.468h10.25V270.67ZM1327.11 270.67h-10.25V102.206h10.25V270.67Z" fill="#324266"/><path d="M1337.35 270.67h-10.25V126.381h10.25V270.67ZM1327.11 91.836h-10.25V69.192h10.25v22.644ZM1327.11 62.52h-10.25V50.84h10.25v11.68Z" fill="#324266"/><path d="M1347.6 270.67h-10.26V92.34h10.26v178.33ZM1316.87 270.67h-10.25V111.21h10.25v159.46Z" fill="#324266"/><path d="M1224.63 139.725h-10.25v-15.557h10.25v15.557Z" fill="#3F5483"/></g><defs><clipPath id="a"><path fill="#fff" d="M0 0h1344v502H0z"/></clipPath></defs></svg>