<svg width="190" height="92" fill="none" xmlns="http://www.w3.org/2000/svg"><rect width="175.765" height="63.721" rx="31.861" transform="matrix(-1 0 0 1 176.547 27.46)" fill="#6683C2"/><g clip-path="url(#a)"><path d="M146.126 34.609c-.171-.101-.348-.196-.521-.293a1.203 1.203 0 0 0-.33-.336c-2-1.302-4.187-2.114-6.459-2.581a34.367 34.367 0 0 0-12.262-1.442c-3.312.217-6.606.892-9.71 2.077-1.184.452-3.026.935-3.419 2.334a1.785 1.785 0 0 0-.009.928c-.174.354-.122.77.076 1.112a2.203 2.203 0 0 0-.527 1.109c-.144.888.53 1.771 1.5 1.502.427-.119.857-.232 1.284-.348a28.279 28.279 0 0 0 5.056 4.39c.259.745 1.022 1.294 1.824 1.163 1.018.632 2.278 1.36 3.492 1.683.216.95 1.473 1.64 2.458 1.197.484.62 1.305.932 2.064.355.116-.086.223-.177.339-.266l.024-.024a44.791 44.791 0 0 0 4.678-4.17 68.896 68.896 0 0 0 4.407-3.662c.835-.758.479-1.982-.268-2.584a1.341 1.341 0 0 0-.119-.171c1.936.104 3.873.21 5.803.296 1.235.055 1.629-1.68.616-2.275l.003.006Zm-23.415 5.208c-.101.088-.201.18-.302.275a31.882 31.882 0 0 1-.393-.282c.107-.006.216-.015.323-.024.122.012.247.021.369.03h.003Z" fill="#F1BBA2"/><path d="M143.435 25.302c-.25-1.68-.055-3.378-.656-4.997-.329-.883-.75-1.683-.826-2.645-.071-.895.067-1.796.085-2.691a17.604 17.604 0 0 0-.476-4.48C140.211 4.904 135.57.203 129.599.46c-.107 0-.165-.007-.241-.013-6.017-.308-10.759 4.35-12.117 9.964a17.604 17.604 0 0 0-.475 4.48c.018.896.152 1.797.085 2.692-.073.962-.497 1.762-.826 2.645-.604 1.619-.406 3.317-.656 4.997-.217 1.46-1.116 2.785-.711 4.282.034.122.162.232.293.223 3.147-.22 6.243.669 9.21-.608 1.635-.702 5.163-.965 5.181-3.265.037 0 .077 0 .113-.006-.064 2.373 3.529 2.636 5.181 3.348 2.968 1.273 6.063.387 9.21.607.131.01.263-.1.293-.223.406-1.496-.494-2.819-.71-4.282h.006Z" fill="#363537"/><path d="M179.418 35.244a.89.89 0 0 0-.235.076c.092-.788-1.052-1.331-1.396-.5-2.559 6.142-5.407 12.972-11.604 16.237-2.727 1.435-12.223 3.027-15.132-10.089-.071-.312-2.586 4.313-2.843 4.49-1.162.813-2.32 1.628-3.482 2.44-.784.55-2.08 1.158-2.471 2.114-.783-1.222-.622 1.524 0 0 9.369 14.606 21.799 11.76 25.779 9.536 4.077-2.279 7.173-7.202 9.152-11.298a39.808 39.808 0 0 0 2.873-8.055c.207-.864 1.64-5.308-.638-4.95h-.003ZM133.703 31.02l1.299-15.935c0-.608-1.443 1.369-1.952 1.738-2.592 1.872-4.666 2.45-7.764 2.774a.913.913 0 0 0-.254.067c-.433 0-.399.207-.396.766.012 3.574-.793 10.49.009 14.002.208.913.418-.461 1.369-.049.644.278 1.833.156 2.541.217.902.076.799-.022 1.701.055.986.082 2.245.806 3.081.009.814-.776.372-2.706.369-3.644h-.003Z" fill="#F1BBA2"/><path d="M147.42 93.14c-2.046-9.636-3.577-11.478-3.723-15.44-.046-1.212.655-5.81.152-6.949-.558-1.261-31.713-1.337-31.768-1.298-.146-.785.147 6.011.101 6.925-.25 5.067-2.086 7.147-3.254 12.013-1.183 4.932-7.319 49.328-4.846 67.502.058.415.348.751.762.764 9.058.213 20.43.378 31.024.498 1.046-5.135 1.455-9.287 2.852-14.351.128-.459.701-.477.951-.126 1.403 1.98.482 9.892.415 14.437 2.732.027 8.139.159 10.594.177.439.003.753-.354.763-.764.286-16.518-.546-47.013-4.023-63.385v-.003Z" fill="#F5E4D5"/><path d="M138.667 9.13c.016-1.913-.875-2.713-2.409-3.544-8.264-4.474-15.684-.381-15.736.795-.207 4.78-.616 10.876 1.601 15.195 1.659 3.235 4.907 6.097 8.615 4.505 3.87-1.661 7.853-6.337 7.929-16.951ZM189.175 30.122c.339-.37.741-.84.765-1.203.065-.944-1.033-.248-1.36.046-.686.61-1.363 1.224-2.07 1.814-.357.296-.705.608-1.077.883-.183.134-1.211.763-1.451.513.978-.944 1.954-1.888 2.924-2.84.403-.398 1.784-1.601 1.43-2.31-.042-.088-.119-.128-.216-.125-1.125.049-2.269 1.335-2.992 2.092-.482.507-1.217 1.652-1.894 1.888a.608.608 0 0 1-.494-.028 5.59 5.59 0 0 1-.405-.608 4.243 4.243 0 0 0-.229-.47c-.018-.04-.037-.076-.052-.12a.21.21 0 0 0-.076-.09 2.69 2.69 0 0 0-1.168-1.015c-.881-.394-2.51-.614-3.248.14-.11.114-.037.251.079.3.071.131.128.156.321.226.521.192 1.07.223 1.576.483.671.345 1.214.843 1.556 1.463.164.705.042 1.432-.443 2.05-.448.567-1.076.836-1.741 1.007-.006-.021-.012-.046-.027-.067-.677-1.026-.958-2.193-1.089-3.406-.058-.522.116-1.478-.4-1.802a.213.213 0 0 0-.259.025.195.195 0 0 0-.131.107c-.482.931-.689 2.098-.589 3.146.08.83.47 1.557.885 2.266.067.565-.113 1.075-.253 1.674-.095.403-.208 1.02-.019 1.444a.339.339 0 0 0-.009.08v.064c0 .08.092.174.174.174h.049c.015 0 .027-.006.04-.006.045.03.091.058.146.08a.179.179 0 0 0 .119.006c.283.195.656.531.796.61.164.095.344.25.543.275.338.046.68-.192.957-.36 1.177-.709 2.251-1.686 3.224-2.648.207-.205.445-.419.671-.645a37.032 37.032 0 0 0 1.991-1.405 31.645 31.645 0 0 0 2.354-1.93c.455-.412 1.171-.907 1.184-1.58 0-.094-.031-.155-.104-.204l.012.006Z" fill="#F1BBA2"/><path d="M125.586 14.786c.009.569-.256 1.033-.592 1.039-.335.006-.613-.452-.619-1.02-.009-.568.256-1.033.592-1.039.335-.006.613.452.619 1.02ZM133.75 14.97c-.006.567-.284 1.025-.616 1.02-.336-.004-.601-.468-.595-1.036.006-.568.284-1.027.616-1.02.333.006.601.467.595 1.035ZM135.299 11.947a3.007 3.007 0 0 0-.335-.1c-.958-.213-2.264-.378-3.184-.1-.477.144-.945.499-.272.67.576.147 1.401.126 2.008.137.493.008 1.094.061 1.562-.072.566-.16.588-.358.221-.537v.002ZM122.832 12.344c.442.16 1.052.15 1.548.174.61.03 1.431.104 2.031-.002.706-.124.302-.504-.146-.679-.868-.336-2.203-.258-3.198-.111-.013 0-.334.06-.353.075-.4.151-.416.347.121.543h-.003Z" fill="#363537"/><path d="M131.804 20.818c-2.93 1.048-5.544-.201-5.699-.152-.064.02-.131.07-.119.14.25 1.27 1.689 1.985 2.809 2.05 1.168.067 2.802-.624 3.186-1.845.034-.104-.061-.239-.18-.196l.003.003Z" fill="#fff"/><path d="M129.734 19.303c-.809.199-1.556-.064-1.641-.965-.04-.418.097-.959.146-1.378.101-.9.217-1.799.339-2.694.027-.195-.278-.21-.305-.015-.104.755-.202 1.512-.29 2.27-.076.665-.281 1.447-.198 2.116.113.953 1.241 1.158 2.013.966.189-.046.125-.346-.064-.3Z" fill="#CF9980"/><path d="M79.557 60.41c-.21-.34-.949-.547-1.269-.721a26.945 26.945 0 0 1-1.46-.858c-.14-1.323-1.11-2.404-1.93-3.482-.724-.95-1.745-3.08-3.246-2.847-.119.018-.235.159-.168.284.406.745 1.059 1.325 1.52 2.04.27.419.502.855.704 1.304-.388-.32-.796-.61-1.22-.79a26.68 26.68 0 0 0-4.273-2.08c-.939-.355-2.4-1.082-3.424-.773-.064.018-.12.094-.125.158-.095.886 1.805 1.357 2.4 1.589 1.198.464 2.363.98 3.5 1.564-.036.036-.076.073-.112.113l-.125.125a81.852 81.852 0 0 0-4.22-1.448c-.952-.293-2.27-.816-3.261-.52-.091.028-.128.132-.128.218.01.409.396.519.729.687.723.363 1.473.657 2.235.928 1.183.422 2.385.788 3.553 1.244-.012.015-.024.03-.04.045-1.265-.387-2.552-.745-3.86-.965-.626-.104-2.147-.458-2.62.144a.207.207 0 0 0-.03.204c.243.605 1.393.816 2.094.978a12.78 12.78 0 0 0-1.408.018c-.162.012-.226.208-.14.33.472.675 1.835.855 2.6 1.05 1.187.303 2.385.538 3.553.902.064.052.125.107.186.159.833.724 1.797 1.509 2.779 2.019.347.18.67.262.97.268.32.077.661.083 1.058.068 1.497-.05 2.708.235 3.93 1.139.153.113.342-.015.4-.162.238-.626 1.269-2.257.85-2.93l-.002-.002ZM138.611 13.695c-.751-.72-2.047-.015-2.3.846-.055.187.067.306.217.33a3.164 3.164 0 0 0-.235 1.05c-.119.438-.165.868-.095 1.177 0 .156.01.311.022.467-.067.177-.092.357-.022.525.455 1.082 1.873-.421 2.135-.898.47-.858 1.122-2.681.275-3.494l.003-.003Z" fill="#F1BBA2"/><path d="M138.912 11.557a.38.38 0 0 0 .042-.094.866.866 0 0 0 .818-1.027 7.979 7.979 0 0 0-.809-2.404.802.802 0 0 0 .183-1.02c-.863-1.606-2.491-2.675-4.272-3.32 0-.41-.244-.846-.729-.898a36.39 36.39 0 0 0-4.196-.214.646.646 0 0 0-.537-.55c-1.147-.235-2.18-.03-3.217.272-.162-.29-.473-.491-.845-.403-.662.156-1.324.489-1.952.89-.271-.294-.732-.422-1.116-.093-1.07.92-2.211 1.94-2.397 3.464a.66.66 0 0 0 .342.681 14.465 14.465 0 0 0-1.034 3.543c-.116.721.564 1.152 1.043.996-.089.47-.15.95-.189 1.433-.031.406.527.427.597.052 0-.007.006-.01.01-.016.866-2.575 3.098-3.659 5.306-4.56 1.561-.638 2.653-1.793 3.351-3.341.177.922.458 1.83 1.065 2.565.866 1.054 2.15 1.292 3.299 1.903 1.446.767 2.038 2.043 3.105 3.189.326.351 1.455.931 1.57.751.229-.024.467-.1.717-.25.421-.25.171-.843-.219-.855a.6.6 0 0 0 .064-.232c.009-.153.012-.306.012-.459l-.012-.003Z" fill="#363537"/><path d="M137.595 14.704a3.962 3.962 0 0 1-.421 1.729c-.088.174.177.33.262.152a4.345 4.345 0 0 0 .464-1.881c.003-.196-.302-.196-.305 0Z" fill="#CF9980"/><path d="M121.083 16.23a4.483 4.483 0 0 1-.387-1.627c-.009-.196-.314-.196-.305 0 .03.623.174 1.216.43 1.784.079.18.344.024.262-.153v-.003Z" fill="#F57256"/><path d="M124.047 6.9c-1.256 1.462-2.513 2.99-3.336 4.71-.073-.786-1.266-1.07-1.476-.181a58.397 58.397 0 0 0-1.571 12.312 3.356 3.356 0 0 0-.015.78c.088.961 1.519.998 1.525 0 0-.187.009-.37.012-.557.156-1.2 1.122-2.171 1.601-3.274.564-1.298.537-2.694.512-4.08-.058-3.602 1.556-5.987 3.828-8.636.637-.742-.44-1.826-1.08-1.08v.005Z" fill="#363537"/><path d="M143.867 79.448a7.097 7.097 0 0 1-.043-.303c-1.058-.036-2.116-.07-3.175-.1a230.797 230.797 0 0 0-1.131-7.936c-.031-.192-.326-.11-.293.083.418 2.608.793 5.226 1.119 7.846a451.306 451.306 0 0 0-22.274-.076c-2.071.046-4.141.11-6.212.18l-.061.306c9.524-.336 19.06-.373 28.584-.11a228 228 0 0 1 1.086 45.248c-.016.195.289.195.305 0a228.502 228.502 0 0 0-.687-41.861 211.195 211.195 0 0 0-.396-3.375c1.046.03 2.095.06 3.141.098h.04-.003Z" fill="#DBC6B6"/><path d="M146.053 36.79c-.04-1.106-.427-2.086-1.025-2.941-1.93-1.21-4.025-1.98-6.2-2.429-.167.196-.35.41-.567.633-1.735 1.793-3.845 3.259-6.239 4.007-4.877 1.518-9.982-.382-12.412-4.912-.937.26-1.861.56-2.766.905-1.184.452-3.026.934-3.419 2.333a1.785 1.785 0 0 0-.009.929c-.174.354-.122.77.076 1.111a2.203 2.203 0 0 0-.527 1.11c-.144.888.53 1.77 1.5 1.502.427-.12.857-.232 1.284-.348a28.279 28.279 0 0 0 5.056 4.389c.259.745 1.022 1.295 1.824 1.164 1.018.632 2.278 1.359 3.492 1.683.216.95 1.473 1.64 2.458 1.197.484.62 1.305.932 2.064.354.116-.085.223-.177.339-.265l.024-.025a44.791 44.791 0 0 0 4.678-4.17 68.896 68.896 0 0 0 4.407-3.661c.835-.758.479-1.983-.268-2.584a1.341 1.341 0 0 0-.119-.171c1.936.103 3.873.21 5.803.296.207.009.387-.037.546-.113v.006Zm-23.644 3.32c-.131-.092-.262-.186-.393-.28.107-.007.216-.016.323-.025.122.012.247.021.369.03-.101.089-.201.18-.302.275h.003Z" fill="#FFFBB9"/><path d="M179.367 46.857c.266-.528.397-1.219.543-1.625.238-.663 1-1.881.711-2.608-.311-.776-1.897-1.106-2.574-1.408-.833-.37-2.245-1.387-3.181-1.308-.674.055-.863.529-1.137 1.1-.504 1.05-.915 2.144-1.293 3.247-1.55-.468-2.946.363-4.111 1.49-.97.941-1.836 1.992-3.163 2.444-1.586.544-3.153-.028-4.599-.684-.863-.391-1.768-.529-2.68-.608-1.769-1.142-3.379-2.471-4.7-4.234-1.32-1.759-5.553-6.92-6.23-7.639-1.488-1.573-3.373-2.742-5.666-3.43-3.443 4.86-7.557 9.283-12.26 12.926-.332.26-.854.462-1.247.162-2.626-2-11.348-11.976-11.881-12.88-7.899 2.853-11.497 9.038-15.096 16.35-1.223 1.885-2.394 3.888-3.87 5.571-1.442 1.64-3.37 2.725-4.864 4.313-.964 1.026-1.76 1.824-3.285 1.87-.982.03-1.951-.187-2.933-.05-.757.108-1.427.364-1.952.798l-1.36-.642c-.5-.235-1.022-.559-1.574-.641a.647.647 0 0 0-.32.034c-.296-.083-.646.024-.762.4-.296.962-.589 1.927-.885 2.89-.229.75-.82 1.908-.768 2.693.08 1.17 2.305 1.653 3.318 1.97 2.037 2.273 4.37 4.67 7.593 4.909 1.723.128 3.306-.672 5.005-.752 1.936-.094 3.787.44 5.745.223 1.437-.159 3.074-.269 4.367-.968 1.36-.733 2.361-2.11 3.291-3.305a32.612 32.612 0 0 0 2.638-3.98c.552 1.699.979 3.473.96 4.509-.048 2.81-.161 3.305.58 6.044.195.718.421 1.427.668 2.123 4.919.657 14.113-.159 18.81-.19 2.574-.018 8.859.358 11.411.648.159.019.318.034.479.052.351-.473.705-.94 1.037-1.43.833-1.221.802-2.87 1.25-4.272.632-1.983 1.641-8.311 2.364-11.149 1.018.587 2.967 1.582 3.992 2.16 1.732.974 3.556 1.9 5.578 2 2.003.098 4.04-.641 5.879-1.356 1.031-.4 2.028-.953 3.126-1.121 1.25-.19 2.504.147 3.757-.021 3.028-.407 6.7-3.379 7.536-6.357.326-1.16.506-2.095 1.238-3.112.558-.773 1.171-1.54 1.397-2.49.25-1.062-.089-2.073-.879-2.678l-.003.012Z" fill="#F3EB5D"/><path d="M145.354 53.491c-.931-2.144-1.787-4.35-2.187-6.664a16.089 16.089 0 0 1 .415-7.178 16.41 16.41 0 0 1 2.659-5.324l-.229-.199c-2.269 3.018-3.501 6.79-3.366 10.587.17 4.841 2.656 9.139 4.452 13.513.226.55.442 1.105.64 1.664a.377.377 0 0 0 .016-.064c.103.061.222.126.344.196-.774-2.224-1.808-4.38-2.741-6.53h-.003Zm-36.962-16.976c-.107.104-.21.208-.314.312.211 6.466 2.617 13.063 2.473 19.508-.064 2.786-.527 5.54-1.024 8.277.152-.244.296-.494.442-.742.338-1.906.643-3.818.796-5.748.192-2.453.058-4.89-.284-7.322-.668-4.764-1.997-9.45-2.089-14.285ZM163.055 49.365a35.333 35.333 0 0 1-4.101 2.248c-.177.083-.025.345.152.263a35.693 35.693 0 0 0 4.102-2.248c.165-.104.012-.37-.153-.263ZM83.249 62.294c-.519 1.372-1.04 2.74-1.559 4.112-.07.183.226.262.293.082.519-1.371 1.04-2.74 1.558-4.111.07-.184-.225-.263-.292-.083ZM92.242 68.836a21.208 21.208 0 0 1-2.858-2.501c-.137-.144-.35.073-.216.216a21.87 21.87 0 0 0 2.918 2.55c.159.117.311-.149.153-.262l.003-.003ZM91.953 70.22a8.899 8.899 0 0 1-2.513-1.436c-.152-.122-.369.092-.216.217a9.315 9.315 0 0 0 2.647 1.515c.183.067.262-.226.082-.293v-.003ZM179.118 46.29c-2.028-.676-4.056-1.357-6.087-2.023-.186-.061-.268.235-.082.293 2.034.663 4.059 1.347 6.087 2.022.186.061.265-.232.082-.293Z" fill="#B0AB46"/><path d="M163.425 24.04a5.857 5.857 0 1 0 11.525-2.103 5.858 5.858 0 0 0-11.525 2.102Z" fill="#7FCBB4"/><path d="M149.621 13.656a7.81 7.81 0 1 0 15.367-2.804 7.81 7.81 0 0 0-15.367 2.804Z" fill="#68CCEB"/></g><path d="M62.89 46.652c-1.022.5-1.997.399-2.925-.305-.709-.545-1.346-1.394-1.91-2.546-.478-.975-.663-1.94-.555-2.892.132-1.12.668-1.91 1.609-2.37.884-.433 1.757-.395 2.62.116.747.443 1.35 1.134 1.81 2.071.737 1.506 1.052 2.754.946 3.744-.109.987-.64 1.714-1.595 2.182Zm-3.31-7.138c-.624.306-.965.867-1.02 1.682-.046.68.099 1.362.433 2.045.542 1.105 1.098 1.862 1.67 2.27.57.408 1.155.466 1.753.173.712-.35 1.024-1.006.935-1.971-.062-.67-.305-1.439-.73-2.306-.446-.911-.923-1.523-1.431-1.837-.505-.316-1.041-.334-1.61-.056ZM54.017 44.51l2.357-1.15c.3-.146.522-.07.669.23.146.299.07.521-.23.668l-2.361 1.151c-.078.038-.19.1-.34.186-.149.08-.26.139-.334.175a.477.477 0 0 1-.666-.236c-.118-.242-.05-.46.207-.651.065-.053.298-.178.698-.374Zm1.614 2.566c.222-.109.557-.267 1.006-.474.448-.207.784-.365 1.005-.474.3-.147.522-.07.669.229.147.299.07.522-.229.668-.222.109-.557.267-1.006.474-.448.207-.783.365-1.005.474-.101.05-.249.13-.444.243a8.358 8.358 0 0 1-.439.24c-.31.151-.537.077-.684-.222-.135-.275-.063-.496.214-.66.36-.21.664-.376.913-.498ZM52.744 48.648l.914 1.865c.153.313.076.544-.23.694-.356.174-.653.018-.892-.47a4.972 4.972 0 0 1-.116-.262 5.012 5.012 0 0 0-.1-.232l-.567-1.142-2.25 1.034c-.46.226-.787.367-.98.424-.331.1-.542.055-.635-.133-.074-.151-.075-.388-.004-.71l.182-.727.707-4.835c.072-.423.28-.72.627-.89.38-.185.65-.114.812.216l2.053 4.19c.055-.032.123-.067.204-.107.618-.303 1.009-.288 1.172.045.119.242.066.457-.158.646-.1.087-.346.218-.74.394Zm-3.068-3.787c-.196 1.872-.371 3.288-.526 4.247l2.127-.98-1.601-3.267ZM47.32 51.064c-.435.271-1.237.693-2.406 1.266-.283.139-.488.077-.616-.185-.129-.263-.052-.463.23-.601.266-.13.659-.337 1.178-.621.52-.284.912-.49 1.178-.62.299-.147.513-.09.641.173.114.232.045.428-.206.588ZM42.59 50.989l-.398 1.051-.46 1.332 2.696 1.343c.137.066.23.151.282.255.064.132.07.272.019.422a.527.527 0 0 1-.269.32c-.128.062-.274.057-.44-.016-.485-.209-1.369-.634-2.65-1.277l-.487 1.495c-.111.275-.264.694-.46 1.256-.048.174-.134.291-.259.352a.527.527 0 0 1-.417.017.542.542 0 0 1-.316-.276.577.577 0 0 1-.03-.38 3.67 3.67 0 0 1 .219-.663c.131-.319.215-.535.251-.648l.523-1.65-1.127-.63c-.452-.25-.82-.413-1.103-.491-.184-.052-.309-.145-.375-.28a.578.578 0 0 1-.034-.427.496.496 0 0 1 .256-.319c.198-.097.624.015 1.278.337l1.463.778.543-1.392c.22-.587.35-1.026.387-1.315.03-.21.12-.352.267-.425a.541.541 0 0 1 .42-.024.509.509 0 0 1 .317.264c.09.184.058.515-.096.99ZM36.658 59.548a3.223 3.223 0 0 1-1.522.352c-.574-.023-1.048-.218-1.424-.584a.62.62 0 0 1-.116-.161.469.469 0 0 1-.012-.407.59.59 0 0 1 .291-.312c.135-.066.28-.06.44.016l.402.235c.201.105.425.15.672.133.244-.02.51-.1.795-.24.366-.18.631-.45.795-.814.174-.386.175-.753.004-1.102-.249-.508-.634-.822-1.155-.941-.458-.101-.973-.047-1.546.163-.39.146-.651.086-.782-.18-.097-.198-.025-.42.217-.668l1.059-.888c.19-.198.31-.396.359-.595a.92.92 0 0 0-.076-.613.93.93 0 0 0-.693-.548c-.338-.068-.728.007-1.172.224a1.6 1.6 0 0 0-.584.492l-.394.638c-.077.124-.148.203-.216.236a.52.52 0 0 1-.422.02.57.57 0 0 1-.314-.284c-.13-.266.002-.647.396-1.145.34-.437.655-.727.944-.868.722-.354 1.374-.475 1.954-.364.621.12 1.088.499 1.399 1.134.387.79.323 1.467-.192 2.032-.046.052-.1.108-.162.167.527-.054.983.03 1.366.25.382.217.693.571.933 1.062.325.662.367 1.34.127 2.032-.242.69-.699 1.2-1.37 1.528ZM31.958 57.54c.061.125.073.255.035.39a.438.438 0 0 1-.241.287c-.04.02-.104.042-.192.068-.087.027-.152.05-.196.072l-.5.257c-.201.107-.369.19-.503.247l.58 1.185c.148.302.073.527-.226.673-.148.073-.279.09-.392.055-.112-.041-.205-.138-.28-.289l-.288-.577-.292-.582c-.395.222-.677.375-.845.457-.52.255-.857.228-1.009-.08-.107-.22-.08-.4.078-.545.055-.048.22-.139.491-.272.168-.083.45-.235.845-.458l-.294-.587c-.15-.306-.238-.525-.266-.658a.597.597 0 0 1 .023-.349.449.449 0 0 1 .228-.224.498.498 0 0 1 .385-.032c.13.036.226.118.289.246.028.057.065.151.113.282.05.13.092.226.123.29l.287.572.385-.17a7.91 7.91 0 0 0 .303-.16c.133-.078.233-.133.3-.166.551-.27.904-.248 1.06.068ZM22.8 59.447l.43-.197.428-.197a3.86 3.86 0 0 0 .464-.29 3.94 3.94 0 0 1 .46-.288.362.362 0 0 1 .313-.01.435.435 0 0 1 .24.22c.151.31-.224.685-1.124 1.126-.115.056-.286.136-.514.24-.226.102-.395.18-.51.236a.939.939 0 0 1-.51.107.493.493 0 0 1-.415-.285c-.217-.443-.225-.91-.024-1.401l.66-1.155c.241-.41.3-.739.179-.987-.048-.098-.165-.176-.352-.234-.187-.059-.331-.063-.432-.014-.232.114-.38.272-.443.474l-.05.511c-.016.18-.088.3-.216.363a.447.447 0 0 1-.322.032.38.38 0 0 1-.244-.205c-.158-.323-.12-.681.117-1.076.208-.357.49-.622.842-.794.316-.155.666-.172 1.05-.052.386.115.653.324.801.626.212.434.265.84.159 1.217-.056.202-.223.524-.503.965-.264.413-.425.77-.483 1.068ZM20.16 61.978l-.398 1.052-.46 1.332 2.696 1.342c.137.067.23.152.282.256.064.131.07.272.019.422a.527.527 0 0 1-.269.32c-.127.062-.274.057-.439-.017-.485-.208-1.37-.633-2.651-1.277l-.487 1.495c-.11.276-.264.695-.46 1.257-.048.174-.134.291-.258.352a.526.526 0 0 1-.417.017.541.541 0 0 1-.317-.276.578.578 0 0 1-.03-.38c.034-.17.107-.391.22-.663.13-.319.215-.535.25-.649l.524-1.65-1.128-.63c-.451-.25-.82-.413-1.103-.49-.184-.052-.309-.145-.374-.28a.578.578 0 0 1-.035-.427.496.496 0 0 1 .257-.32c.198-.096.624.016 1.277.338l1.463.777.544-1.391c.22-.588.35-1.026.387-1.315.03-.211.119-.353.267-.425a.541.541 0 0 1 .42-.024.509.509 0 0 1 .316.263c.09.185.059.515-.096.991Z" fill="#fff"/><defs><clipPath id="a"><path fill="#fff" transform="matrix(-1 0 0 1 189.82 .38)" d="M0 0h126.912v90.803H0z"/></clipPath></defs></svg>