<svg width="382" height="235" fill="none" xmlns="http://www.w3.org/2000/svg"><path d="M267.871 122.22c-2.575-1.261-4.49 2.826-1.374 4.022 3.116 1.196 4.882 1.975 5.863 1.975.981 0 1.879-2.546 1.041-3.385-.839-.839-3.752-1.743-5.53-2.612Z" fill="#F1BBA2"/><path d="M145.697 88.895c4.365 0 5.513 5.61 10.96 7.418 6.755 2.243 15.532-1.303 17.798-7.085 2.944-7.513-2.628-11.428-1.362-23.915.839-8.275-4.793-7.543-9.615-15.598-4.823-8.06-3.533-8.935-10.074-16.341-6.541-7.407-17.471-8.454-25.683-7.15-8.213 1.302-12.304 2.807-18.732 7.227-6.429 4.42-3.521 9.155-7.654 12.279-4.133 3.117-5.976 6.74-7.225 12.938-2.402 11.898 5.673 17.65 2.046 21.762-3.628 4.11-10.99 22.534 8.057 21.422 6.732-.393 12.762 1.82 16.062-3.29 4.859-7.52 7.285-2.517 13.939-5.812 6.66-3.302 11.477-3.843 11.477-3.843l.006-.012Z" fill="#363537"/><path d="M96.883 92.964c16.038-13.058 17.56 0 56.035-2.552 4.745-.316 26.344 4.033 30.512 6.597 21.134 12.986 37.654 98.032 37.654 98.032l-122.382-1.35-1.82-100.727Z" fill="#F3C55C"/><path d="M127.56 87.027c-.279 5.39-5.185.291-5.185 7.12 0 5.932 6.636 15.408 25.422 12.404 11.947-1.91 15.538-12.112 8.438-15.087-4.02-1.683-5.917-8.447-5.917-8.447l-22.758 4.004v.006Z" fill="#F1BBA2"/><path d="M153.026 56.128c3.693 14.801 3.55 36.3-13.302 37.591-20.617 1.583-43.316-38.893-26.772-53.754 16.543-14.86 34.841-4.795 40.074 16.163Z" fill="#F1BBA2"/><path d="M120.338 51.036c-2.426 4.681-2.599 5.52-5.286 8.21-2.688 2.688-2.439 9.654-1.154 13.628 6.119 18.947.88 9.798-.333 11.012-1.213 1.213-6.238-11.16-6.928-11.85-.696-.697-6.149-20.536-6.149-22.618 0-2.082 13.136-14.635 14.724-16.229 1.594-1.594 15.937-4.569 20.011-4.569 4.073 0 12.214-.517 13.95 2.255 1.731 2.772 12.994 25.997 12.994 25.997s6.755 10.82 2.188 10.517c-5.845-.392-6.946-1.57-8.444-4.99-1.606-3.677-3.128-11.934-11.18-9.204-13.612 4.61-24.393-2.147-24.393-2.147v-.012Z" fill="#363537"/><path d="M64.447 203.268C59.232 170.781 85.13 96.039 101.941 89.234c11.845-4.8 20.973-1.023 23.174 12.094 2.2 13.117-17.828 74.926-17.828 74.926s58.735-16.145 63.938 0c5.197 16.146 2.599 27.585 2.599 27.585l-109.371-.571h-.006Z" fill="#F3C55C"/><path d="M118.748 177.902c-5.381 0-10.162-.119-13.778-.214-1.742-.042-3.253-.083-4.484-.101a1.478 1.478 0 0 1-1.26-.678c-1.344-2.076 1.581-9.161 7.32-22.564 5.869-13.719 13.172-30.792 13.172-40.054a.73.73 0 1 1 1.463 0c0 9.566-7.368 26.788-13.291 40.631-2.361 5.514-4.585 10.72-5.983 14.598-1.998 5.551-1.569 6.461-1.451 6.598h.048c1.237.017 2.753.053 4.502.101 8.028.202 20.153.511 32.629-.411a.734.734 0 0 1 .107 1.464c-6.547.482-13.124.624-18.994.624v.006Z" fill="#C99565"/><path d="M127.751 70.858c-.131.844.755 3.396 2.646 2.813 1.249-.386 1.041-3.575-.428-4.158-1.195-.47-2.087.5-2.218 1.345ZM143.251 66.122c-.22.827.559 3.445 2.498 3.058 1.284-.25 1.242-3.426-.149-4.158-1.136-.601-2.129.273-2.349 1.1Z" fill="#372313"/><path d="M136.023 85.046c1.029 1.19 3.497 2.588 7.291 1.303 3.794-1.285 3.36-5.11 3.36-5.11-3.425 2.165-6.69 3.206-10.651 3.801v.006Z" fill="#E66C40"/><path d="M140.471 63.202c.761 0 3.169-1.69 5.459-1.321 2.289.369 2.206.053 1.659-.5-.553-.553-2.105-1.124-5.007-.75-3.521.459-2.772 2.57-2.111 2.57ZM130.378 65.628c.042-.731-1.528-.91-2.664-.612-1.558.41-3.936 2.682-4.329 4.313-.208.85.393 1.267 1.267.07 1.034-1.409 1.849-2.266 3.163-2.468 1.059-.166 2.534-.726 2.563-1.297v-.006Z" fill="#363537"/><path d="M117.26 73.142c1.856 2.618 4.413 7.764 2.51 9.114-1.903 1.35-7.547-1.6-9.402-4.218-1.855-2.617-1.82-5.835.083-7.186 1.903-1.35 4.954-.327 6.809 2.29Z" fill="#F1BBA2"/><path d="M140.049 95.527c-3.74 0-6.844-1.249-7.017-1.32a.48.48 0 0 1 .363-.887c.053.024 5.453 2.19 10.377.75a.481.481 0 0 1 .594.327.481.481 0 0 1-.327.595c-1.344.393-2.705.541-3.99.541v-.006Z" fill="#C99565"/><path d="M119.257 83.023c1.35 1.35 7.6 7.472 13.957 10.744 1.843.952.91 7.281.749 8.227-1.213 7.198-8.92 5.646-13.522 3.344-4.942-2.475-.316-18.252-7.309-18.727-7.927-.542-11.078 2.968-12.232 2.665-2.26-.601 1.79-4.111 7.302-5.77 4.419-1.328 10.246-1 11.055-.483Z" fill="#363537"/><path d="M122.604 34.373c-2.997-.494-4.46 3.117-5.864 5.098-.279.393.369.893.666.518 1.309-1.63 2.504-5.075 5.079-4.76.481.06.6-.773.113-.856h.006ZM123.962 37.46c-2.022.185-3.205 1.75-4.377 3.23-.339.429.256 1.036.607.608 1.005-1.244 2.057-2.76 3.776-2.969.541-.066.565-.922 0-.869h-.006ZM109.468 55.693c-1.724 2.07-2.896 4.712-3.377 7.365-.102.541.725.78.838.232.5-2.486 1.558-4.997 3.146-6.99.339-.422-.25-1.029-.607-.607ZM129.446 97.753c.042-.565-.821-.553-.874 0-.107 1.202.125 2.409.065 3.617-.029.541-.095 1.172-.434 1.618-.434.571-1.147.571-1.802.523-.57-.041-.541.804 0 .875 4.008.5 2.879-4.224 3.045-6.633ZM169.584 70.358c-.493-1.023-1.136-1.963-1.736-2.921-.393-.63-1.1-1.517-1.065-2.302.024-.548-.82-.548-.85 0-.042.66.327 1.32.642 1.874.494.874 1.065 1.707 1.576 2.57.464.773.987 1.624 1.136 2.534.154.946-.399 1.344-1.249 1.576-.547.149-.315.958.232.845.868-.184 1.689-.672 1.891-1.594.19-.875-.196-1.803-.571-2.576l-.006-.006ZM169.632 80.846c-.493-.554-1.118-.822-1.772-1.13-.791-.381-1.195-.756-1.082-1.696.053-.47-.773-.59-.839-.113-.196 1.398.494 2.1 1.695 2.659.595.273 1.57.69 1.719 1.428.113.583-.851 1.053-1.19 1.427-.374.417.209 1.012.619.62.452-.435 1.106-.798 1.368-1.393.291-.66-.072-1.303-.512-1.797l-.006-.005ZM146.928 40.845c-.755-.809-1.718-1.1-2.794-1.201-1.214-.12-2.397-.054-3.235-1.089-.363-.446-.982.184-.631.63 1.564 1.97 4.353.607 6.036 2.279.398.399.999-.208.618-.619h.006Z" fill="#352D27"/><path d="M179.461 95.587c6.666.904 27.818 25.663 54.59 31.41 26.772 5.747 36.554-.315 36.554-.315l11.429 18.525c-26.194 19.197-67.113 9.113-93.052-3.814l-9.521-45.806Z" fill="#F3C55C"/><path d="M285.62 200.627s16.175-51.06-17.727-76.081c-7.136-5.265-13.344-7.745-28.348-7.692-15.978.06-30.357 15.033-36.006 25.176-10.466 18.793-19.137 58.597-19.137 58.597H285.62Z" fill="#7FCBB4"/><path d="M266.505 200.585a.712.712 0 0 1-.713-.714v-29.09c-.006-.137-.904-17.466-3.33-24.212a.71.71 0 0 1 .434-.916.71.71 0 0 1 .915.434c2.504 6.948 3.378 23.944 3.42 24.664v29.126a.712.712 0 0 1-.714.714l-.012-.006ZM213.774 195.951a.714.714 0 0 1-.708-.637c-.173-1.493-4.234-36.74-1.915-49.126a.718.718 0 0 1 1.409.268c-2.283 12.171 1.891 48.335 1.933 48.698a.72.72 0 0 1-.63.797H213.774Z" fill="#539A85"/><path d="M230.156 122.779c-3.592 4.081-5.881 16.568.672 16.901 15.408.791 20.778-20.143 16.651-21.476-9.432-3.051-17.323 4.575-17.323 4.575Z" fill="#F1F2F2"/><path d="M229.502 112.339c0 1.594-.934 11.767 1.683 13.218 7.659 4.248 16.305-4.64 16.305-7.347v-8.733l-17.982 2.868-.006-.006Z" fill="#F1BBA2"/><path d="M217.204 72.38c-.75-7.78-5.299-14.277-9.23-11.017-3.93 3.26-8.426 6.692-7.469 11.017.536 2.422 13.137 6.377 13.137 6.377l3.562-6.377Z" fill="#363537"/><path d="M209.452 79.971a.715.715 0 0 1-.452-1.273c2.503-2.017 3.722-4.17 3.722-6.58 0-.398.321-.713.714-.713.392 0 .713.32.713.713 0 2.832-1.433 5.42-4.257 7.698a.71.71 0 0 1-.446.161l.006-.006Z" fill="#DE501D"/><path d="M211.695 90.87c-2.491.559-4.335 1.201-5.358.184-1.022-1.023 0-3.659 0-3.659l3.289-.529 2.069 4.004Z" fill="#82512B"/><path d="M257.738 93.517c-2.367 16.329-12.851 29.262-27.563 29.262-10.87 0-18.048-5.443-19.225-16.573-.274-2.588.249-6.181.053-7.698-.327-2.552-2.206-5.384-2.206-8.061 0-16.33 14.034-24.165 28.746-24.165 14.712 0 22.538 11.077 20.195 27.235Z" fill="#F1BBA2"/><path d="M226.15 94.986c-.059-.53 1.196-1.594 2.914-1.19 1.713.405 2.986 1.619 2.427 1.952-.559.333-1.814-.702-2.908-.577-1.095.119-2.385.19-2.427-.185h-.006ZM217.634 95.296c.059-.53-1.196-1.595-2.914-1.19-1.713.404-2.985 1.618-2.426 1.951.559.333 1.813-.702 2.907-.577 1.095.125 2.385.19 2.427-.184h.006ZM223.944 84.962c12.523-1.225 13.231 3.825 16.811 8.555 3.586 4.73 12.363 3.819 16.395 3.183 1.373-.215 3.449-9.15 2.878-14.486-.422-3.956-.19-11.226-8.337-15.461-8.147-4.236-10.978-5.188-18.893-3.718-7.909 1.469-16.502 22.677-8.86 21.927h.006Z" fill="#363537"/><path d="M245.246 72.874c.749-7.781 8.367-14.402 12.304-11.142 3.936 3.26 7.617 12.522 5.578 13.938-2.04 1.416-14.32 3.581-14.32 3.581l-3.562-6.377Z" fill="#363537"/><path d="M250.034 79.46c-3.467 0-4.894-2.124-5.37-3.124-.833-1.743-.743-3.873.202-4.747a.715.715 0 1 1 .969 1.053c-.333.31-.541 1.707.113 3.075.5 1.047 1.85 2.725 5.281 2.22a.718.718 0 1 1 .208 1.422c-.505.07-.975.106-1.409.106l.006-.006Z" fill="#D9886B"/><path d="M205.389 90.256c4.181 5.432 5.816-9.345 17.436-6.52 4.537 1.1.975-6.68 5.298-9.696 4.318-3.016 11.204-9.763 3.711-10.738-7.493-.976-17.638 3.355-20.456 7.983-1.255 2.059-3.848 4.807-4.223 8.52-.499 5.008-2.967 8.887-1.76 10.451h-.006Z" fill="#363537"/><path d="M219.383 112.702s1.302 2.998 4.775 3.183c3.473.184 4.097-3.153 4.097-3.153-3.056 1.041-5.703 1.255-8.872-.03Z" fill="#F1F2F2"/><path d="M228.682 99.138c-.606.226-1.219 1.202-.927 2.641.291 1.434 1.367 2.065 2.039 1.63.672-.434 1.154-2.445.732-3.283-.423-.84-1.457-1.13-1.85-.982l.006-.006ZM215.088 99.162c-.595.25-1.172 1.249-.821 2.677.351 1.422 1.445 2.005 2.105 1.547.66-.464 1.053-2.487.601-3.308-.452-.82-1.505-1.07-1.885-.91v-.006Z" fill="#372313"/><path d="M237.423 79.144c-1.481-1.714-4.252-2.172-6.31-1.375-.499.197-.291 1 .226.816 1.885-.673 4.038-.227 5.465 1.177.405.399.987-.196.619-.618ZM240.257 71.238c-2.527-.607-4.859-.31-7.178.838-.499.25-.059.994.44.75 2.141-1.041 4.193-1.202 6.512-.755.541.107.779-.702.232-.833h-.006ZM250.378 87.478c-1.487.488-3.342-1.082-3.283-2.605.024-.548-.808-.542-.844 0-.131 2.022 2.367 4.224 4.359 3.444.505-.202.309-1.017-.232-.839ZM215.636 75.694c-1.445-.137-2.896.345-3.741 1.582-.315.458-.469.982-.636 1.505-.244.767-.505 1.118-1.35 1.196-.547.053-.565.856 0 .868 1.249.018 1.862-.713 2.218-1.826.208-.654.405-1.243.934-1.725.702-.643 1.659-.815 2.581-.761.547.03.529-.792 0-.84h-.006ZM222.592 68.216c-.957-.244-1.599-.946-2.658-.815-.987.125-1.772.815-2.378 1.559-.345.422.226 1.035.612.612.583-.624 1.302-1.374 2.242-1.285.696.066 1.267.62 1.956.756.536.107.768-.69.226-.827Z" fill="#251C16"/><path d="M230.159 123.255a.477.477 0 0 1 0-.952c4.163 0 7.63-.803 10.294-2.385a.476.476 0 0 1 .654.167.476.476 0 0 1-.166.654c-2.813 1.672-6.441 2.516-10.782 2.516Z" fill="#C48976"/><path d="M232.859 200.787c0-7.644 10.675-22.516 30.269-22.516 19.594 0 29.632 1.368 29.632 1.368v20.863l-59.901.285Z" fill="#7FCBB4"/><path d="M232.527 183.661a.718.718 0 0 1-.256-1.386c6.095-2.332 29.067-4.772 34.241-4.706a.71.71 0 0 1 .708.726.716.716 0 0 1-.714.708h-.012c-4.954-.072-27.884 2.379-33.706 4.61a.767.767 0 0 1-.255.048h-.006Z" fill="#539A85"/><path d="M137.334 188.146h89.895c5.287 0 9.58 4.295 9.58 9.584v1.487h-99.481V188.14l.006.006Z" fill="#7C8CAF"/><path d="M215.067 199.223h-98.988l-6.506-73.594c-.374-2.124.553-4.081 2.682-4.081h92.726c1.653 0 3.075 1.202 3.366 2.855l6.72 74.82Z" fill="#7C8CAF"/><path d="M165.842 149.229c.261 4.08-2.593 7.584-6.375 7.828-3.782.244-7.065-2.861-7.332-6.942-.268-4.081 2.592-7.585 6.374-7.829 3.782-.244 7.065 2.862 7.333 6.943Z" fill="#DBDBDB"/><path d="M377 198.063H5a5 5 0 0 0-5 5v5.651a5 5 0 0 0 5 5h372a5 5 0 0 0 5-5v-5.651a5 5 0 0 0-5-5Z" fill="#DCBFA3"/><path d="M340.083 53.475c0-6.943-.749-37.151 9.188-51.41 0 0 2.248 12.004 2.248 21.296 0 9.293-6.94 45.498-6.94 45.498l-4.502-15.384h.006ZM304.314 0s18.94 73.362 18.94 87.996-8.724 9.007-8.724 9.007-6.47-50.94-8.724-56.759c-2.247-5.818-.844-10.696-.844-14.73 0-4.032-2.064-9.19-2.064-13.04 0-3.848 1.41-12.474 1.41-12.474h.006Z" fill="#A7CBBD"/><path d="M330.713 161.203c1.689-7.216 12.096-16.627 12.096-26.044 0-9.417-1.124-45.497 1.968-52.713 3.092-7.216 5.625-19.138 5.625-26.044 0-6.907 8.439-14.117 8.439-19.138v-8.471s3.936 5.336 3.936 13.807-3.092 19.453-5.625 22.279c-2.533 2.825-4.222 6.276-4.222 12.237 0 5.96-1.41 35.455-1.41 43.302 0 7.846-.564 9.411-2.533 16.942-1.968 7.532-16.882 25.414-16.882 25.414l-1.41-1.571h.018Z" fill="#A4CABB"/><path d="M314.669 161.203c-3.937-8.786-10.127-27.609-10.127-36.71 0-9.102 1.409-17.883 0-22.904-1.409-5.02-9.318-38.548-6.238-50.88 1.921-7.687 2.581-2.273 2.581-2.273s12.381 19.584 13.784 27.424c1.403 7.841-.434 22.594 1.409 26.961 1.838 4.366 5.067 14.771 5.067 21.678v35.77l-6.47.94-.006-.006Z" fill="#C2E8D8"/><path d="M330.708 45.105 317.769 19.69s-4.502 14.432-4.502 19.137c0 4.706-1.689 8.472-1.689 13.177 0 4.706 3.937 14.432 3.937 22.594s-1.41 16.627-1.41 23.534 7.035 63.07 7.035 63.07h5.067l4.501-116.092v-.006Z" fill="#92BCAB"/><path d="M326.21 161.203c0-6.276-1.969-11.297-1.969-20.708 0-9.411 0-15.372-1.689-26.984-1.688-11.612 3.658-28.555 3.658-36.086 0-7.531-2.813-29.81 0-38.281 2.812-8.471 5.905-25.73 5.905-25.73s14.628 32.63 14.628 38.282v37.65c0 7.217-3.092 18.829-4.501 26.67-1.41 7.846-1.41 13.807-1.41 21.963s-6.351 23.218-6.351 23.218h-8.277l.006.006Z" fill="#C2E8D8"/><path d="M348.395 198.23h-40.699l-5.364-45.485a3.871 3.871 0 0 1 3.848-4.325h43.511a3.87 3.87 0 0 1 3.848 4.307l-5.138 45.503h-.006Z" fill="#E3AC69"/><path d="M351.316 184.719H304.48l-1.582-21.951h49.905l-1.487 21.951Z" fill="#FCC583"/><path d="M48.103 180.811c-25.017 0-45.373-20.363-45.373-45.39 0-14.069 6.363-27.115 17.466-35.789a1.317 1.317 0 0 1 1.825.197l56.297 67.74a1.317 1.317 0 0 1-.143 1.832 45.3 45.3 0 0 1-30.078 11.404l.006.006Zm-27.277-78.287c-9.836 8.156-15.45 20.077-15.45 32.903 0 23.57 19.167 42.743 42.727 42.743 10.026 0 19.69-3.51 27.355-9.905l-54.632-65.741Z" fill="#9CA8D3"/><path d="M48.097 171.739c20.05 0 36.304-16.26 36.304-36.318 0-20.058-16.254-36.318-36.304-36.318s-36.304 16.26-36.304 36.318c0 20.058 16.254 36.318 36.304 36.318Z" fill="#68CCEB"/><mask id="a" style="mask-type:luminance" maskUnits="userSpaceOnUse" x="11" y="99" width="60" height="59"><path d="M41.116 157.772c16.195 0 29.323-13.134 29.323-29.335S57.311 99.103 41.116 99.103s-29.323 13.133-29.323 29.334 13.128 29.335 29.323 29.335Z" fill="#fff"/></mask><g mask="url(#a)"><path d="M30.33 126.95c-5.62 3.795-12.702 17.543-5.62 16.502 7.076-1.041 10.413-5.83 13.743-.833s3.686 8.543 9.651 8.543 13.707 4.462 14.92 3.254c1.207-1.208-3.122-8.459-5.411-15.336-2.29-6.871-9.164-13.748-13.743-15.622-4.579-1.874-13.535 3.492-13.535 3.492h-.006Z" fill="#F3C55C"/><path d="M51.642 129.442c-2.586-2.837-5.47-5.044-7.778-5.984-4.579-1.874-13.534 3.492-13.534 3.492-2.587 1.749-5.483 5.604-7.166 9.155 3.396.726 3.627-2.338 9.723-2.933 7.076-.696 6.66-.702 10.27 1.523 3.61 2.225 2.26-1.243 4.947-2.635 1.719-.886 2.902-1.832 3.538-2.618Z" fill="#7DD2B1"/><path d="M25.538 126.95c-3.955-1.41-6.452-.994-6.452-5.789 0-4.794 1.516-6.157-1.011-6.157-2.528 0-8.153 10.928-8.153 14.165 0 3.236 6.44 3.289 7.808 1.921 1.367-1.368 7.808-4.14 7.808-4.14Z" fill="#F3C55C"/><path d="M60.305 97.806c-10.62 0-17.28 9.399-9.996 12.106 7.285 2.707 8.54 2.261 12.91 5.092 4.371 2.826 8.534 6.366 9.58 3.659 1.04-2.707 5.412-3.332 5.412-5.622s-16.24-15.23-17.906-15.23v-.005Z" fill="#7CC8AA"/><path d="M24.254 107.419c2.159 0 3.122 1.035 9.164-1.047 6.035-2.082 9.264-7.109 9.264-7.109l-11.346 2.005-7.076 6.151h-.006Z" fill="#F1F2F2"/></g><path d="M69.35 143.958c1.04 1.041.987 2.968 2.188 1.773 1.195-1.196-.208-2.344 1.772-1.773s3.23-.625 3.23-2.398c0-1.772.106-3.646-1.874-2.915-1.98.732-3.229 1.25-4.478 1.874-1.249.625-.832 3.439-.832 3.439h-.006ZM76.527 147.081c0-1.25.607-2.035 1.665-.976 1.059 1.059 3.854 3.575 1.98 2.951-1.873-.625-3.639-1.981-3.639-1.981l-.006.006Z" fill="#DCF8C1"/><path d="M73.922 136.147c0-1.041 2.2-2.16 3.378-3.332 1.171-1.172.273-3.123 1.361-3.123 1.089 0 1.089-.315 1.089 1.249 0 1.565.832 3.647-.625 3.647-1.457 0-1.665.625-2.599 1.565-.94.939-2.604 0-2.604 0v-.006Z" fill="#F3C55C"/><path d="m48.53 179.491 6.578 13.331H41.109l7.422-13.331Z" fill="#9CA8D3"/><path d="M38.345 190.526h19.522a6.85 6.85 0 0 1 6.845 6.847v1.285H31.5v-1.285a6.85 6.85 0 0 1 6.845-6.847Z" fill="#9CA8D3"/><path d="M270.981 126.997c-.5 5.265-7.57 8.352-1.529 14.396 1.695 1.696 4.234 3.177 6.268 2.844 3.657-.601 6.607-5.009 6.375-7.264-.666-6.401-8.67-13.301-9.544-12.427-.874.875-1.398.672-1.57 2.451Z" fill="#F1BBA2"/><path d="M268.411 140.007a.332.332 0 0 1-.28-.154.32.32 0 0 1 .107-.446c2.224-1.369 4.942-4.325 5.471-6.705.523-2.367 1.475-6.056 1.487-6.091a.326.326 0 0 1 .63.166c-.012.036-.957 3.712-1.481 6.074-.571 2.588-3.377 5.651-5.768 7.121a.309.309 0 0 1-.172.047l.006-.012ZM270.128 141.982a.324.324 0 0 1-.065-.642c1.641-.322 5.179-3.54 5.828-5.057.689-1.612 2.122-6.478 2.122-7.049a.33.33 0 0 1 .328-.328.33.33 0 0 1 .327.328c0 .767-1.541 5.829-2.171 7.305-.666 1.558-4.305 5.05-6.303 5.437-.018 0-.042.006-.06.006h-.006ZM273.578 143.6a.326.326 0 0 1-.31-.22.325.325 0 0 1 .203-.416c2.14-.75 4.614-3.439 5.239-4.89.642-1.487 1.748-5.015 1.754-5.051a.327.327 0 0 1 .624.196c-.047.149-1.13 3.594-1.778 5.111-.66 1.54-3.241 4.42-5.625 5.252a.338.338 0 0 1-.107.018Z" fill="#C99565"/><path d="m102.965 198.599-32.064.096-.04-13.653 32.064-.095a2.23 2.23 0 0 1 2.236 2.224l.028 9.185a2.232 2.232 0 0 1-2.224 2.237v.006Z" fill="#6683C2"/><path d="m80.83 194.863-.018-6.122c0-.684-.481-1.243-1.076-1.243l-36.59.113a.104.104 0 0 1-.089-.06c-.327-.713-.315-1.505 0-2.355.018-.042.048-.066.09-.066l38.611-.119c.589 0 1.07.553 1.076 1.244l.036 11.166c0 .684-.476 1.243-1.07 1.249l-38.404.119c-.178 0-.339-.125-.398-.321-.202-.619-.184-1.256.006-1.916.06-.196.22-.327.398-.327l36.358-.107c.589 0 1.07-.559 1.07-1.249v-.006Z" fill="#92AEEA"/><path d="m50.138 189.574-5.828.018c.107-.303.25-.303.416-2.427l35.852-.107c.131 0 .173.559.179.708l.024 8.394c0 .148-36.24.131-36.24.131-.285-2.023-.356-2.118-.451-2.993l3.49-.089-3.407.012c-.095 0-.053-2.207.09-3.308l5.875-.345v.006Z" fill="#E6E6E6"/><path d="m79.976 190.086.011 3.992.006.892-1.57-.44-1.563.452v-.893l-.012-3.991 3.128-.012Z" fill="#F3C55C"/><path d="M306.183 133.369c-1.029 7.93-8.664 13.284-16.556 12.035-7.891-1.25-13.278-8.668-12.024-16.562 1.249-7.894 8.665-13.284 16.556-12.029 7.891 1.255 12.791 10.643 12.03 16.562l-.006-.006Z" fill="#FCDCB5"/><path d="M328.128 163.988c1.903 17.799 2.319 35.247-21.509 35.247-18.167 0-23.014-13.403-22.015-33.903.981-20.125 6.863-41.012 17.84-35.771 12.167 5.806 23.757 16.467 25.684 34.427Z" fill="#FCDCB5"/><path d="M287.693 144.868a.683.683 0 0 1-.589-1.023c4.3-7.472 8.813-9.726 13.446-11.552 4.787-1.886 6.345-.887 6.612-.667l-.874 1.053s.012.012.036.024c-.012-.006-1.237-.732-5.269.857-4.395 1.731-8.682 3.872-12.761 10.963a.683.683 0 0 1-.595.345h-.006Z" fill="#9E614B"/><path d="M342.177 234.994h-.167a3.715 3.715 0 0 1-3.55-3.872c0-.066.291-6.919-.054-14.242-.594-12.582-2.783-14.783-4.466-15.664-2.497-1.201-12.702-2.796-22.466-3.64a3.714 3.714 0 0 1 .642-7.401c5.192.452 22.479 2.112 27.111 4.593 2.438 1.303 4.073 4.17 5.144 9.024.684 3.088 1.159 7.085 1.415 11.88.428 7.996.107 15.461.095 15.777a3.715 3.715 0 0 1-3.71 3.551l.006-.006ZM280.055 128.556l-4.787-6.169c-.512-.66.018-1.612.844-1.529l7.665.774-3.722 6.924ZM297.876 118.782l-2.741-5.794c-.178-.5-.886-.494-1.058 0l-2.421 5.205 6.22.583v.006ZM291.087 165.392a4.642 4.642 0 0 1-4.044-4.789c.143-3.427-1.54-5.235-2.979-6.151-1.814-1.154-3.544-1.119-3.996-.91a4.639 4.639 0 0 1-6.464-.857 4.626 4.626 0 0 1 .827-6.496c3.324-2.57 8.688-2.683 13.35-.274 5.613 2.897 8.801 8.537 8.527 15.081a4.629 4.629 0 0 1-4.823 4.432c-.136 0-.267-.018-.398-.036ZM298.347 192.227c-.976 0-16.853-.946-16.901 3.379-.053 4.325 2.034 3.552 7.85 3.552s14.968.053 14.968.053l-5.917-6.984Z" fill="#FCDCB5"/></svg>