<svg width="50" height="62" viewBox="0 0 50 62" fill="none" xmlns="http://www.w3.org/2000/svg">
<g clip-path="url(#clip0_46_1558)">
<path d="M45.3692 47.7388C37.3491 60.8468 21.745 65.7282 10.5034 58.628C-0.738173 51.5279 -3.35562 35.1429 4.63095 22.0349C12.6511 8.89273 28.2551 4.01136 39.4967 11.1115C50.7383 18.2117 53.3558 34.6308 45.3692 47.7388Z" fill="#81ABDD"/>
<path d="M34.3986 11.9649C33.6604 10.9749 32.6537 10.1215 31.4456 9.84845C31.0429 9.78018 30.6067 9.95086 30.506 10.3946C30.3047 11.248 29.9355 12.0673 29.7342 12.9206C29.6335 13.2961 29.8684 13.774 30.2711 13.8764C30.6738 13.9788 31.11 13.774 31.2107 13.3303C31.412 12.4769 31.7476 11.6576 31.9825 10.8042C31.6805 10.9749 31.3785 11.1456 31.0429 11.3504C31.1771 11.3845 31.2778 11.4187 31.412 11.4528C31.4456 11.4528 31.5127 11.487 31.5463 11.5211C31.4456 11.487 31.4456 11.487 31.5127 11.5211C31.5463 11.5211 31.5798 11.5552 31.6134 11.5552C31.8147 11.6576 32.0496 11.7942 32.2174 11.9307C32.251 11.9649 32.3852 12.0673 32.251 11.9307C32.3181 11.9649 32.3516 11.999 32.4188 12.0673C32.5194 12.1355 32.5865 12.2379 32.6872 12.3062C32.7879 12.4086 32.855 12.4769 32.9557 12.5793C32.9892 12.6134 33.0228 12.6476 33.0563 12.7158C33.0899 12.75 33.2241 12.9548 33.0899 12.75C33.2241 12.9206 33.3248 13.0572 33.5261 13.0913C33.6939 13.1255 33.9624 13.1255 34.0966 13.023C34.4322 12.8182 34.6335 12.3062 34.3986 11.9649Z" fill="black"/>
<path d="M24.3316 6.2301C24.4323 6.50318 24.5329 6.77626 24.6336 7.04935C24.7343 7.28829 24.8014 7.56138 24.8685 7.80033C24.9356 8.00514 25.0027 8.24409 25.0698 8.48303C25.137 8.68785 25.1705 8.85852 25.2041 9.06334C25.2376 9.23401 25.2712 9.40469 25.3047 9.57537C25.3047 9.6095 25.3047 9.6095 25.3047 9.64364C25.3047 9.57537 25.2712 9.5071 25.2712 9.43883C25.3047 9.57537 25.3047 9.71191 25.3047 9.84845C25.3047 9.95086 25.3047 10.0874 25.3047 10.1898C25.3047 10.2581 25.3047 10.2922 25.3047 10.3605C25.3047 10.2922 25.3383 10.2239 25.3383 10.1557C25.3383 10.2581 25.3047 10.3605 25.2712 10.4629C25.2712 10.497 25.2376 10.497 25.2376 10.5312C25.2712 10.4629 25.3047 10.3946 25.3047 10.3605C25.2712 10.4288 25.2712 10.4629 25.2376 10.497L25.2041 10.5312C25.2376 10.4629 25.2712 10.4288 25.3383 10.3605C25.3047 10.3946 25.2712 10.4288 25.2376 10.4629C25.2376 10.4629 25.2041 10.4629 25.2041 10.497C25.2712 10.4629 25.3047 10.4288 25.3719 10.3605C25.3383 10.3946 25.3047 10.3946 25.2712 10.4288H25.2376C25.3047 10.3946 25.3719 10.3605 25.4054 10.3605C25.3719 10.3605 25.3383 10.3946 25.2712 10.3946H25.2376C25.3047 10.3946 25.3719 10.3605 25.439 10.3605C25.3719 10.3605 25.3383 10.3605 25.2712 10.3605C25.2376 10.3605 25.2376 10.3605 25.2041 10.3605C25.2712 10.3605 25.3383 10.3946 25.4054 10.3946C25.3719 10.3946 25.3047 10.3946 25.2712 10.3605C25.2376 10.3605 25.1705 10.3263 25.137 10.3263C25.1034 10.3263 25.0698 10.2922 25.0698 10.2922C25.137 10.3263 25.2041 10.3605 25.2376 10.3605C25.1705 10.3263 25.0698 10.2922 25.0027 10.2239C24.9021 10.1898 24.8349 10.1215 24.7678 10.0533C24.7343 10.0191 24.6672 9.98499 24.6336 9.95086C24.7007 9.98499 24.7343 10.0191 24.8014 10.0874C24.7343 10.0533 24.6672 9.98499 24.6336 9.95086C24.5665 9.88259 24.4994 9.84845 24.4658 9.78018C24.3987 9.71191 24.3316 9.67777 24.298 9.6095C24.2309 9.54123 24.1974 9.47296 24.1302 9.40469C24.0631 9.33642 24.0296 9.26815 23.9625 9.19988C23.9625 9.19988 23.9625 9.16574 23.9289 9.16574C23.9625 9.23401 23.996 9.26815 24.0631 9.33642C24.0296 9.26815 23.9625 9.19988 23.9289 9.13161C23.8953 9.06334 23.8282 8.99506 23.7947 8.92679C23.7611 8.85852 23.694 8.79025 23.6604 8.72198C23.6269 8.65371 23.5933 8.58544 23.5598 8.51717C23.5262 8.4489 23.4927 8.38063 23.4591 8.31236V8.27822C23.4927 8.34649 23.5262 8.41476 23.5262 8.4489C23.4927 8.34649 23.4591 8.24409 23.4255 8.14168C23.392 8.03927 23.3584 7.93687 23.3584 7.83446C23.3584 7.76619 23.3249 7.73205 23.3249 7.66378C23.3249 7.73205 23.3584 7.80033 23.3584 7.8686C23.3584 7.80033 23.3584 7.73205 23.3249 7.66378C23.3249 7.59551 23.3249 7.52724 23.3249 7.45897C23.3249 7.42484 23.3249 7.3907 23.3249 7.35656C23.3249 7.42484 23.2913 7.49311 23.2913 7.56138C23.2913 7.45897 23.3249 7.35656 23.3584 7.25416C23.3584 7.22002 23.392 7.18589 23.392 7.15175C23.3584 7.22002 23.3249 7.28829 23.3249 7.32243C23.3584 7.22002 23.392 7.15175 23.4591 7.04935C23.4591 7.01521 23.4927 7.01521 23.4927 6.98107C23.4591 7.04935 23.4255 7.08348 23.3584 7.15175C23.4255 7.08348 23.4927 6.98108 23.5598 6.9128C23.5933 6.87867 23.5933 6.87867 23.6269 6.84453C23.5598 6.87867 23.5262 6.9128 23.4591 6.98107C23.5262 6.94694 23.5598 6.9128 23.6269 6.87867C23.694 6.84453 23.7611 6.8104 23.8282 6.77626C23.8618 6.74213 23.8953 6.74213 23.9625 6.70799C23.8953 6.74213 23.8282 6.77626 23.7947 6.77626C23.8953 6.74213 24.0296 6.67386 24.1302 6.63972C24.2645 6.60559 24.3987 6.57145 24.5329 6.53731C24.6 6.53731 24.7007 6.50318 24.7678 6.50318C24.7007 6.50318 24.6336 6.53731 24.5665 6.53731C24.6 6.53731 24.6672 6.53731 24.7007 6.53731C24.8014 6.53731 24.9021 6.50318 25.0027 6.46904C25.1034 6.43491 25.1705 6.40077 25.2376 6.29837C25.3047 6.2301 25.3719 6.16183 25.4054 6.05942C25.439 5.95701 25.4725 5.85461 25.4725 5.7522C25.4725 5.68393 25.439 5.61566 25.439 5.54739C25.4054 5.41085 25.3383 5.30844 25.2376 5.20603C25.1705 5.1719 25.137 5.13776 25.0698 5.06949C24.9692 5.03536 24.8349 5.00122 24.7007 5.00122C24.4658 5.03536 24.2645 5.06949 24.0296 5.10363C23.8953 5.13776 23.7611 5.1719 23.6269 5.20603C23.5598 5.24017 23.4927 5.24017 23.4591 5.2743C23.3584 5.30844 23.2242 5.37671 23.1235 5.41085C23.0229 5.44498 22.9222 5.51325 22.8215 5.58152C22.7208 5.64979 22.6202 5.71806 22.5531 5.78634C22.5195 5.82047 22.4859 5.85461 22.4524 5.88874C22.3517 5.99115 22.251 6.12769 22.1504 6.26423C22.0833 6.3325 22.0497 6.40077 22.0161 6.50318C21.949 6.63972 21.8819 6.77626 21.8484 6.94694C21.8484 6.98108 21.8148 7.04935 21.8148 7.08348C21.8148 7.11762 21.8148 7.11762 21.8148 7.15175C21.8148 7.25416 21.7812 7.32243 21.7812 7.42484C21.7812 7.52724 21.7812 7.59551 21.7812 7.69792C21.7812 7.8686 21.8148 8.00514 21.8484 8.17581C21.8484 8.27822 21.8819 8.38063 21.9155 8.4489C21.949 8.5513 21.9826 8.65371 22.0161 8.72198C22.0833 8.89266 22.1504 9.0292 22.2175 9.19988C22.251 9.30228 22.3182 9.40469 22.3517 9.47296C22.4188 9.57537 22.4524 9.64364 22.5195 9.74604C22.5866 9.84845 22.6202 9.91672 22.6873 10.0191C22.788 10.1557 22.8886 10.2922 22.9893 10.4288C23.0564 10.497 23.1235 10.5994 23.1906 10.6677C23.2578 10.736 23.3249 10.8042 23.392 10.9066C23.4591 10.9749 23.5262 11.0432 23.6269 11.1115C23.7611 11.2139 23.8618 11.3163 23.996 11.4187C24.0631 11.487 24.1302 11.5211 24.2309 11.5894C24.298 11.6235 24.3651 11.6918 24.4658 11.7259C24.6 11.7942 24.7343 11.8624 24.8685 11.8966C24.9356 11.9307 25.0027 11.9307 25.0698 11.9648C25.1705 11.999 25.2712 11.999 25.3719 11.999C25.4054 11.999 25.439 11.999 25.4725 11.999C25.5061 11.999 25.5396 11.999 25.5732 11.999C25.6739 11.999 25.7745 11.9648 25.8417 11.9648C25.8752 11.9648 25.9088 11.9648 25.9088 11.9307C26.0094 11.8966 26.0766 11.8624 26.1772 11.8283C26.2443 11.7942 26.345 11.7259 26.4121 11.6576C26.4457 11.6235 26.4457 11.6235 26.4792 11.5894C26.5464 11.5211 26.6135 11.4528 26.647 11.3504C26.6806 11.3163 26.6806 11.2821 26.7141 11.2821C26.7477 11.1797 26.8148 11.0773 26.8484 11.0091C26.8484 10.9749 26.8819 10.9408 26.8819 10.9066C26.9155 10.7701 26.949 10.5994 26.949 10.4288C26.949 10.3263 26.9826 10.2239 26.9826 10.1215C26.9826 9.98499 26.9826 9.88259 26.9826 9.74604C26.949 9.54123 26.949 9.30228 26.9155 9.09747C26.8819 8.92679 26.8484 8.75612 26.8148 8.58544C26.7812 8.38063 26.7141 8.20995 26.6806 8.00514C26.6135 7.80033 26.5464 7.56138 26.4792 7.35656C26.4121 7.11762 26.3114 6.87867 26.2443 6.63972C26.1437 6.36664 26.043 6.12769 25.9423 5.85461C25.9088 5.7522 25.8752 5.68393 25.8081 5.58152C25.741 5.51325 25.6739 5.44498 25.6068 5.37671C25.5061 5.30844 25.439 5.2743 25.3383 5.2743C25.2376 5.24017 25.137 5.24017 25.0363 5.2743C24.9692 5.30844 24.9021 5.34257 24.8685 5.34257C24.7678 5.41085 24.6672 5.51325 24.6 5.61566C24.5665 5.68393 24.5329 5.7522 24.5329 5.78634C24.298 5.95701 24.298 6.09355 24.3316 6.2301Z" fill="black"/>
<path d="M34.7015 6.29836C34.9028 7.4931 35.272 8.72198 35.8089 9.81431C36.0438 10.2922 36.4129 10.8725 36.9834 11.0432C37.6881 11.248 38.225 10.736 38.5605 10.1898C39.1981 9.19987 39.1646 7.90273 38.8626 6.8104C38.5941 5.82047 38.0236 4.72813 37.1176 4.18197C36.5807 3.87475 35.9767 3.84061 35.4062 4.1137C34.8022 4.45505 34.4666 5.10362 34.2317 5.7522C34.0975 6.12769 34.3995 6.60558 34.7686 6.70799C35.2048 6.8104 35.5404 6.57145 35.7082 6.16182C35.7082 6.12769 35.7418 6.09355 35.7418 6.05942C35.8089 5.88874 35.6746 6.19596 35.7418 6.09355C35.7753 6.02528 35.7753 5.99115 35.8089 5.92287C35.876 5.82047 35.9095 5.71806 35.9767 5.61566C35.9767 5.58152 36.0102 5.58152 36.0438 5.54738C36.0438 5.54738 35.9095 5.68393 35.9767 5.61566C36.0102 5.58152 36.0438 5.54738 36.0773 5.51325C36.1109 5.47911 36.1444 5.44498 36.178 5.44498C36.2451 5.37671 36.1109 5.51325 36.0773 5.51325C36.1109 5.51325 36.1109 5.47911 36.1444 5.47911C36.178 5.47911 36.2116 5.44498 36.2451 5.44498C36.3122 5.41084 36.0438 5.51325 36.178 5.47911C36.2116 5.47911 36.2451 5.47911 36.2787 5.44498C36.2787 5.44498 36.0773 5.44498 36.1444 5.47911C36.178 5.47911 36.178 5.47911 36.2116 5.47911C36.2451 5.47911 36.2787 5.47911 36.3122 5.47911C36.2451 5.47911 36.1109 5.44498 36.2451 5.47911C36.2787 5.47911 36.3122 5.51325 36.3458 5.51325C36.3458 5.51325 36.3793 5.51325 36.3793 5.54738C36.48 5.58152 36.2116 5.44498 36.2787 5.51325C36.3458 5.54738 36.4129 5.58152 36.48 5.61566C36.5136 5.64979 36.6142 5.71806 36.5136 5.61566C36.3793 5.51325 36.5471 5.64979 36.5471 5.64979C36.6142 5.71806 36.6814 5.78633 36.7485 5.8546C36.782 5.88874 36.8156 5.92287 36.8491 5.95701C36.7485 5.82047 36.9834 6.09355 36.8491 5.95701C36.9498 6.12769 37.084 6.29836 37.1512 6.46904C37.2183 6.57145 37.2518 6.67385 37.2854 6.77626C37.2183 6.60558 37.3525 6.87867 37.2854 6.77626C37.3189 6.84453 37.3189 6.9128 37.3525 6.94694C37.4196 7.15175 37.4867 7.3907 37.5203 7.59551C37.5203 7.66378 37.5538 7.69792 37.5538 7.76619C37.5538 7.80032 37.5538 7.83446 37.5538 7.83446C37.5538 7.93686 37.5203 7.66378 37.5538 7.73205C37.5538 7.86859 37.5874 7.971 37.5874 8.10754C37.5874 8.20995 37.5874 8.31235 37.5874 8.41476C37.5874 8.4489 37.5874 8.51717 37.5874 8.5513C37.5874 8.75611 37.621 8.38062 37.5874 8.58544C37.5538 8.68784 37.5538 8.79025 37.5203 8.89266C37.5203 8.96093 37.4867 8.99506 37.4867 9.06333C37.4867 9.09747 37.4532 9.09747 37.4532 9.1316C37.4196 9.23401 37.5203 8.99506 37.4867 9.06333C37.4532 9.16574 37.3861 9.23401 37.3525 9.33642C37.3189 9.37055 37.2854 9.40469 37.2854 9.47296C37.2183 9.57536 37.3189 9.40469 37.3525 9.40469C37.3525 9.40469 37.2854 9.47296 37.2854 9.50709C37.2518 9.54123 37.2183 9.57536 37.1847 9.6095C37.0505 9.74604 37.3189 9.54123 37.2183 9.57536C37.084 9.64364 37.4196 9.50709 37.2854 9.54123C37.2183 9.57536 37.1847 9.54123 37.4196 9.54123C37.3861 9.54123 37.3189 9.54123 37.4532 9.54123C37.6545 9.57536 37.3525 9.47296 37.5538 9.57536C37.5874 9.57536 37.7216 9.64364 37.5538 9.57536C37.4532 9.54123 37.7216 9.71191 37.621 9.6095C37.5874 9.57536 37.5538 9.54123 37.5203 9.50709C37.4196 9.37055 37.5874 9.64363 37.5538 9.54123C37.5203 9.50709 37.4867 9.47296 37.4867 9.43882C37.4196 9.33642 37.3525 9.23401 37.3189 9.1316C37.2518 8.99506 37.1847 8.85852 37.1176 8.72198C37.1176 8.68784 37.084 8.65371 37.084 8.65371C37.0169 8.48303 37.1512 8.82439 37.084 8.65371C37.0505 8.58544 37.0169 8.51717 36.9834 8.41476C36.8827 8.10754 36.782 7.80032 36.6814 7.4931C36.5136 6.98107 36.3793 6.43491 36.2787 5.88874C36.2116 5.47911 35.7082 5.24017 35.3391 5.34257C34.8022 5.47911 34.6344 5.8546 34.7015 6.29836Z" fill="black"/>
<path d="M35.337 15.9586C35.1021 16.3341 34.8337 16.6413 34.5316 16.9485C34.3974 17.0509 34.3974 17.0509 34.2632 17.1533C34.1961 17.1875 34.129 17.2216 34.0618 17.2899C34.0283 17.2899 33.9947 17.324 33.9612 17.324C34.0283 17.2899 34.0283 17.2899 33.9612 17.324C33.8269 17.3582 33.6927 17.3923 33.5585 17.4264C33.3571 17.4606 33.6256 17.4264 33.4914 17.4264C33.4243 17.4264 33.3571 17.4264 33.3236 17.4264C33.1894 17.4264 33.0551 17.4264 32.9209 17.4264C32.8873 17.4264 32.686 17.3923 32.8873 17.4264C32.8202 17.4264 32.7531 17.3923 32.686 17.3923C31.7128 17.1875 30.7732 16.6754 29.8001 17.1192C29.431 17.2899 29.3303 17.8361 29.5316 18.1774C29.7665 18.5529 30.2028 18.6212 30.5719 18.4505C30.337 18.5529 30.5048 18.4846 30.5719 18.4505C30.7061 18.4164 30.3706 18.4505 30.5048 18.4505C30.6055 18.4505 30.7061 18.4505 30.7732 18.4505C30.5048 18.4505 30.8404 18.4505 30.9075 18.4846C31.0081 18.5188 31.1424 18.5529 31.243 18.587C31.78 18.7236 32.3169 18.8943 32.8538 18.9284C34.4981 19.0991 35.7732 18.0409 36.6457 16.6754C36.8806 16.3341 36.7128 15.8221 36.3773 15.6173C36.0081 15.4466 35.5719 15.6173 35.337 15.9586Z" fill="black"/>
<path d="M20.0348 5.88885C20.2697 5.44509 20.5046 4.96719 20.8066 4.55757C20.773 4.62584 20.7395 4.65997 20.6724 4.72824C20.8737 4.45516 21.1422 4.21621 21.4106 3.97726C21.3435 4.0114 21.31 4.04553 21.2428 4.11381C21.3435 4.04553 21.4777 3.94313 21.5784 3.87486C21.914 3.67005 22.0818 3.19215 21.8469 2.81666C21.6455 2.47531 21.1757 2.30463 20.8066 2.54358C20.3032 2.8508 19.867 3.26042 19.5314 3.70418C19.1959 4.14794 18.9274 4.62584 18.6925 5.10373C18.5247 5.47922 18.5918 5.95712 18.961 6.16193C19.3301 6.36674 19.8334 6.29847 20.0348 5.88885Z" fill="black"/>
<path d="M37.9226 2.44114C37.9897 2.44114 38.0232 2.44114 38.0903 2.44114C38.0232 2.44114 37.9561 2.407 37.889 2.407C38.0232 2.407 38.1239 2.44114 38.2581 2.50941C38.191 2.47528 38.1239 2.44114 38.0903 2.44114C38.2246 2.50941 38.3588 2.57768 38.4595 2.64595C38.3924 2.61182 38.3588 2.57768 38.2917 2.50941C38.3924 2.57768 38.493 2.68009 38.5601 2.78249C38.5266 2.71422 38.493 2.68009 38.4259 2.61182C38.4595 2.68009 38.493 2.71422 38.5266 2.78249C38.5937 2.95317 38.795 3.08971 38.9628 3.12385C39.1306 3.15798 39.3991 3.15798 39.5333 3.05558C39.7011 2.95317 39.8353 2.78249 39.8689 2.61182C39.9024 2.407 39.9024 2.20219 39.8018 2.03152C39.634 1.69016 39.3655 1.45121 39.0635 1.2464C38.7279 1.00745 38.2917 0.905046 37.889 0.870911C37.6877 0.870911 37.4863 0.973317 37.3521 1.10986C37.2179 1.2464 37.1172 1.45121 37.1172 1.65603C37.1172 1.86084 37.1843 2.06565 37.3521 2.20219C37.5199 2.33873 37.7212 2.44114 37.9226 2.44114Z" fill="black"/>
</g>
<defs>
<clipPath id="clip0_46_1558">
<rect width="50" height="61" fill="white" transform="translate(0 0.905029)"/>
</clipPath>
</defs>
</svg>
