<svg width="50" height="62" viewBox="0 0 50 62" fill="none" xmlns="http://www.w3.org/2000/svg">
<g clip-path="url(#clip0_46_1586)">
<path d="M45.3692 47.7388C37.3491 60.8468 21.745 65.7282 10.5034 58.628C-0.738173 51.5278 -3.35562 35.1428 4.63095 22.0348C12.6511 8.89267 28.2551 4.0113 39.4967 11.1115C50.7383 18.2116 53.3558 34.6308 45.3692 47.7388Z" fill="#FA8D8D"/>
<path d="M34.3986 11.9648C33.6604 10.9749 32.6537 10.1215 31.4456 9.84839C31.0429 9.78012 30.6067 9.9508 30.506 10.3946C30.3047 11.2479 29.9355 12.0672 29.7342 12.9206C29.6335 13.2961 29.8684 13.774 30.2711 13.8764C30.6738 13.9788 31.11 13.774 31.2107 13.3302C31.412 12.4768 31.7476 11.6576 31.9825 10.8042C31.6805 10.9749 31.3785 11.1455 31.0429 11.3504C31.1771 11.3845 31.2778 11.4186 31.412 11.4528C31.4456 11.4528 31.5127 11.4869 31.5463 11.521C31.4456 11.4869 31.4456 11.4869 31.5127 11.521C31.5463 11.521 31.5798 11.5552 31.6134 11.5552C31.8147 11.6576 32.0496 11.7941 32.2174 11.9307C32.251 11.9648 32.3852 12.0672 32.251 11.9307C32.3181 11.9648 32.3516 11.9989 32.4188 12.0672C32.5194 12.1355 32.5865 12.2379 32.6872 12.3061C32.7879 12.4086 32.855 12.4768 32.9557 12.5792C32.9892 12.6134 33.0228 12.6475 33.0563 12.7158C33.0899 12.7499 33.2241 12.9547 33.0899 12.7499C33.2241 12.9206 33.3248 13.0571 33.5261 13.0913C33.6939 13.1254 33.9624 13.1254 34.0966 13.023C34.4322 12.8182 34.6335 12.3061 34.3986 11.9648Z" fill="black"/>
<path d="M24.3316 6.22997C24.4323 6.50306 24.5329 6.77614 24.6336 7.04922C24.7343 7.28817 24.8014 7.56126 24.8685 7.8002C24.9356 8.00502 25.0027 8.24396 25.0698 8.48291C25.137 8.68772 25.1705 8.8584 25.2041 9.06321C25.2376 9.23389 25.2712 9.40457 25.3047 9.57524C25.3047 9.60938 25.3047 9.60938 25.3047 9.64352C25.3047 9.57525 25.2712 9.50697 25.2712 9.4387C25.3047 9.57525 25.3047 9.71179 25.3047 9.84833C25.3047 9.95074 25.3047 10.0873 25.3047 10.1897C25.3047 10.258 25.3047 10.2921 25.3047 10.3604C25.3047 10.2921 25.3383 10.2238 25.3383 10.1555C25.3383 10.258 25.3047 10.3604 25.2712 10.4628C25.2712 10.4969 25.2376 10.4969 25.2376 10.531C25.2712 10.4628 25.3047 10.3945 25.3047 10.3604C25.2712 10.4286 25.2712 10.4628 25.2376 10.4969L25.2041 10.531C25.2376 10.4628 25.2712 10.4286 25.3383 10.3604C25.3047 10.3945 25.2712 10.4286 25.2376 10.4628C25.2376 10.4628 25.2041 10.4628 25.2041 10.4969C25.2712 10.4628 25.3047 10.4286 25.3719 10.3604C25.3383 10.3945 25.3047 10.3945 25.2712 10.4286H25.2376C25.3047 10.3945 25.3719 10.3604 25.4054 10.3604C25.3719 10.3604 25.3383 10.3945 25.2712 10.3945H25.2376C25.3047 10.3945 25.3719 10.3604 25.439 10.3604C25.3719 10.3604 25.3383 10.3604 25.2712 10.3604C25.2376 10.3604 25.2376 10.3604 25.2041 10.3604C25.2712 10.3604 25.3383 10.3945 25.4054 10.3945C25.3719 10.3945 25.3047 10.3945 25.2712 10.3604C25.2376 10.3604 25.1705 10.3262 25.137 10.3262C25.1034 10.3262 25.0698 10.2921 25.0698 10.2921C25.137 10.3262 25.2041 10.3604 25.2376 10.3604C25.1705 10.3262 25.0698 10.2921 25.0027 10.2238C24.9021 10.1897 24.8349 10.1214 24.7678 10.0531C24.7343 10.019 24.6672 9.98487 24.6336 9.95073C24.7007 9.98487 24.7343 10.019 24.8014 10.0873C24.7343 10.0531 24.6672 9.98487 24.6336 9.95073C24.5665 9.88246 24.4994 9.84833 24.4658 9.78006C24.3987 9.71179 24.3316 9.67765 24.298 9.60938C24.2309 9.54111 24.1974 9.47284 24.1302 9.40457C24.0631 9.3363 24.0296 9.26803 23.9625 9.19976C23.9625 9.19976 23.9625 9.16562 23.9289 9.16562C23.9625 9.23389 23.996 9.26803 24.0631 9.3363C24.0296 9.26803 23.9625 9.19976 23.9289 9.13148C23.8953 9.06321 23.8282 8.99494 23.7947 8.92667C23.7611 8.8584 23.694 8.79013 23.6604 8.72186C23.6269 8.65359 23.5933 8.58532 23.5598 8.51705C23.5262 8.44878 23.4927 8.38051 23.4591 8.31223V8.2781C23.4927 8.34637 23.5262 8.41464 23.5262 8.44878C23.4927 8.34637 23.4591 8.24396 23.4255 8.14156C23.392 8.03915 23.3584 7.93674 23.3584 7.83434C23.3584 7.76607 23.3249 7.73193 23.3249 7.66366C23.3249 7.73193 23.3584 7.8002 23.3584 7.86847C23.3584 7.8002 23.3584 7.73193 23.3249 7.66366C23.3249 7.59539 23.3249 7.52712 23.3249 7.45885C23.3249 7.42471 23.3249 7.39058 23.3249 7.35644C23.3249 7.42471 23.2913 7.49298 23.2913 7.56126C23.2913 7.45885 23.3249 7.35644 23.3584 7.25404C23.3584 7.2199 23.392 7.18577 23.392 7.15163C23.3584 7.2199 23.3249 7.28817 23.3249 7.32231C23.3584 7.2199 23.392 7.15163 23.4591 7.04922C23.4591 7.01509 23.4927 7.01509 23.4927 6.98095C23.4591 7.04922 23.4255 7.08336 23.3584 7.15163C23.4255 7.08336 23.4927 6.98095 23.5598 6.91268C23.5933 6.87855 23.5933 6.87855 23.6269 6.84441C23.5598 6.87855 23.5262 6.91268 23.4591 6.98095C23.5262 6.94682 23.5598 6.91268 23.6269 6.87855C23.694 6.84441 23.7611 6.81028 23.8282 6.77614C23.8618 6.74201 23.8953 6.74201 23.9625 6.70787C23.8953 6.74201 23.8282 6.77614 23.7947 6.77614C23.8953 6.74201 24.0296 6.67373 24.1302 6.6396C24.2645 6.60546 24.3987 6.57133 24.5329 6.53719C24.6 6.53719 24.7007 6.50306 24.7678 6.50306C24.7007 6.50306 24.6336 6.53719 24.5665 6.53719C24.6 6.53719 24.6672 6.53719 24.7007 6.53719C24.8014 6.53719 24.9021 6.50306 25.0027 6.46892C25.1034 6.43479 25.1705 6.40065 25.2376 6.29824C25.3047 6.22997 25.3719 6.1617 25.4054 6.0593C25.439 5.95689 25.4725 5.85448 25.4725 5.75208C25.4725 5.68381 25.439 5.61554 25.439 5.54727C25.4054 5.41072 25.3383 5.30832 25.2376 5.20591C25.1705 5.17178 25.137 5.13764 25.0698 5.06937C24.9692 5.03523 24.8349 5.0011 24.7007 5.0011C24.4658 5.03523 24.2645 5.06937 24.0296 5.1035C23.8953 5.13764 23.7611 5.17178 23.6269 5.20591C23.5598 5.24005 23.4927 5.24005 23.4591 5.27418C23.3584 5.30832 23.2242 5.37659 23.1235 5.41072C23.0229 5.44486 22.9222 5.51313 22.8215 5.5814C22.7208 5.64967 22.6202 5.71794 22.5531 5.78621C22.5195 5.82035 22.4859 5.85448 22.4524 5.88862C22.3517 5.99103 22.251 6.12757 22.1504 6.26411C22.0833 6.33238 22.0497 6.40065 22.0161 6.50306C21.949 6.6396 21.8819 6.77614 21.8484 6.94682C21.8484 6.98095 21.8148 7.04922 21.8148 7.08336C21.8148 7.11749 21.8148 7.11749 21.8148 7.15163C21.8148 7.25404 21.7812 7.32231 21.7812 7.42471C21.7812 7.52712 21.7812 7.59539 21.7812 7.6978C21.7812 7.86847 21.8148 8.00502 21.8484 8.17569C21.8484 8.2781 21.8819 8.38051 21.9155 8.44878C21.949 8.55118 21.9826 8.65359 22.0161 8.72186C22.0833 8.89254 22.1504 9.02908 22.2175 9.19976C22.251 9.30216 22.3182 9.40457 22.3517 9.47284C22.4188 9.57525 22.4524 9.64352 22.5195 9.74592C22.5866 9.84833 22.6202 9.9166 22.6873 10.019C22.788 10.1555 22.8886 10.2921 22.9893 10.4286C23.0564 10.4969 23.1235 10.5993 23.1906 10.6676C23.2578 10.7358 23.3249 10.8041 23.392 10.9065C23.4591 10.9748 23.5262 11.0431 23.6269 11.1113C23.7611 11.2137 23.8618 11.3162 23.996 11.4186C24.0631 11.4868 24.1302 11.521 24.2309 11.5892C24.298 11.6234 24.3651 11.6916 24.4658 11.7258C24.6 11.794 24.7343 11.8623 24.8685 11.8965C24.9356 11.9306 25.0027 11.9306 25.0698 11.9647C25.1705 11.9989 25.2712 11.9989 25.3719 11.9989C25.4054 11.9989 25.439 11.9989 25.4725 11.9989C25.5061 11.9989 25.5396 11.9989 25.5732 11.9989C25.6739 11.9989 25.7745 11.9647 25.8417 11.9647C25.8752 11.9647 25.9088 11.9647 25.9088 11.9306C26.0094 11.8965 26.0766 11.8623 26.1772 11.8282C26.2443 11.794 26.345 11.7258 26.4121 11.6575C26.4457 11.6234 26.4457 11.6234 26.4792 11.5892C26.5464 11.521 26.6135 11.4527 26.647 11.3503C26.6806 11.3162 26.6806 11.282 26.7141 11.282C26.7477 11.1796 26.8148 11.0772 26.8484 11.0089C26.8484 10.9748 26.8819 10.9407 26.8819 10.9065C26.9155 10.77 26.949 10.5993 26.949 10.4286C26.949 10.3262 26.9826 10.2238 26.9826 10.1214C26.9826 9.98487 26.9826 9.88246 26.9826 9.74592C26.949 9.54111 26.949 9.30216 26.9155 9.09735C26.8819 8.92667 26.8484 8.756 26.8148 8.58532C26.7812 8.38051 26.7141 8.20983 26.6806 8.00502C26.6135 7.8002 26.5464 7.56126 26.4792 7.35644C26.4121 7.11749 26.3114 6.87855 26.2443 6.6396C26.1437 6.36652 26.043 6.12757 25.9423 5.85448C25.9088 5.75208 25.8752 5.68381 25.8081 5.5814C25.741 5.51313 25.6739 5.44486 25.6068 5.37659C25.5061 5.30832 25.439 5.27418 25.3383 5.27418C25.2376 5.24005 25.137 5.24005 25.0363 5.27418C24.9692 5.30832 24.9021 5.34245 24.8685 5.34245C24.7678 5.41072 24.6672 5.51313 24.6 5.61554C24.5665 5.68381 24.5329 5.75208 24.5329 5.78621C24.298 5.95689 24.298 6.09343 24.3316 6.22997Z" fill="black"/>
<path d="M34.7015 6.2983C34.9028 7.49304 35.272 8.72192 35.8089 9.81425C36.0438 10.2921 36.4129 10.8724 36.9834 11.0431C37.6881 11.2479 38.225 10.7359 38.5605 10.1897C39.1981 9.19981 39.1646 7.90267 38.8626 6.81033C38.5941 5.82041 38.0236 4.72807 37.1176 4.18191C36.5807 3.87469 35.9767 3.84055 35.4062 4.11364C34.8022 4.45499 34.4666 5.10356 34.2317 5.75214C34.0975 6.12763 34.3995 6.60552 34.7686 6.70793C35.2048 6.81033 35.5404 6.57139 35.7082 6.16176C35.7082 6.12763 35.7418 6.09349 35.7418 6.05936C35.8089 5.88868 35.6746 6.1959 35.7418 6.09349C35.7753 6.02522 35.7753 5.99108 35.8089 5.92281C35.876 5.82041 35.9095 5.718 35.9767 5.61559C35.9767 5.58146 36.0102 5.58146 36.0438 5.54732C36.0438 5.54732 35.9095 5.68387 35.9767 5.61559C36.0102 5.58146 36.0438 5.54732 36.0773 5.51319C36.1109 5.47905 36.1444 5.44492 36.178 5.44492C36.2451 5.37665 36.1109 5.51319 36.0773 5.51319C36.1109 5.51319 36.1109 5.47905 36.1444 5.47905C36.178 5.47905 36.2116 5.44492 36.2451 5.44492C36.3122 5.41078 36.0438 5.51319 36.178 5.47905C36.2116 5.47905 36.2451 5.47905 36.2787 5.44492C36.2787 5.44492 36.0773 5.44492 36.1444 5.47905C36.178 5.47905 36.178 5.47905 36.2116 5.47905C36.2451 5.47905 36.2787 5.47905 36.3122 5.47905C36.2451 5.47905 36.1109 5.44492 36.2451 5.47905C36.2787 5.47905 36.3122 5.51319 36.3458 5.51319C36.3458 5.51319 36.3793 5.51319 36.3793 5.54732C36.48 5.58146 36.2116 5.44492 36.2787 5.51319C36.3458 5.54732 36.4129 5.58146 36.48 5.61559C36.5136 5.64973 36.6142 5.718 36.5136 5.61559C36.3793 5.51319 36.5471 5.64973 36.5471 5.64973C36.6142 5.718 36.6814 5.78627 36.7485 5.85454C36.782 5.88868 36.8156 5.92281 36.8491 5.95695C36.7485 5.82041 36.9834 6.09349 36.8491 5.95695C36.9498 6.12763 37.084 6.2983 37.1512 6.46898C37.2183 6.57139 37.2518 6.67379 37.2854 6.7762C37.2183 6.60552 37.3525 6.87861 37.2854 6.7762C37.3189 6.84447 37.3189 6.91274 37.3525 6.94688C37.4196 7.15169 37.4867 7.39064 37.5203 7.59545C37.5203 7.66372 37.5538 7.69786 37.5538 7.76613C37.5538 7.80026 37.5538 7.8344 37.5538 7.8344C37.5538 7.9368 37.5203 7.66372 37.5538 7.73199C37.5538 7.86853 37.5874 7.97094 37.5874 8.10748C37.5874 8.20989 37.5874 8.31229 37.5874 8.4147C37.5874 8.44883 37.5874 8.51711 37.5874 8.55124C37.5874 8.75605 37.621 8.38056 37.5874 8.58538C37.5538 8.68778 37.5538 8.79019 37.5203 8.8926C37.5203 8.96087 37.4867 8.995 37.4867 9.06327C37.4867 9.09741 37.4532 9.09741 37.4532 9.13154C37.4196 9.23395 37.5203 8.995 37.4867 9.06327C37.4532 9.16568 37.3861 9.23395 37.3525 9.33636C37.3189 9.37049 37.2854 9.40463 37.2854 9.4729C37.2183 9.5753 37.3189 9.40463 37.3525 9.40463C37.3525 9.40463 37.2854 9.4729 37.2854 9.50703C37.2518 9.54117 37.2183 9.5753 37.1847 9.60944C37.0505 9.74598 37.3189 9.54117 37.2183 9.5753C37.084 9.64357 37.4196 9.50703 37.2854 9.54117C37.2183 9.5753 37.1847 9.54117 37.4196 9.54117C37.3861 9.54117 37.3189 9.54117 37.4532 9.54117C37.6545 9.5753 37.3525 9.4729 37.5538 9.5753C37.5874 9.5753 37.7216 9.64357 37.5538 9.5753C37.4532 9.54117 37.7216 9.71184 37.621 9.60944C37.5874 9.5753 37.5538 9.54117 37.5203 9.50703C37.4196 9.37049 37.5874 9.64357 37.5538 9.54117C37.5203 9.50703 37.4867 9.4729 37.4867 9.43876C37.4196 9.33636 37.3525 9.23395 37.3189 9.13154C37.2518 8.995 37.1847 8.85846 37.1176 8.72192C37.1176 8.68778 37.084 8.65365 37.084 8.65365C37.0169 8.48297 37.1512 8.82432 37.084 8.65365C37.0505 8.58538 37.0169 8.51711 36.9834 8.4147C36.8827 8.10748 36.782 7.80026 36.6814 7.49304C36.5136 6.98101 36.3793 6.43484 36.2787 5.88868C36.2116 5.47905 35.7082 5.2401 35.3391 5.34251C34.8022 5.47905 34.6344 5.85454 34.7015 6.2983Z" fill="black"/>
<path d="M35.337 15.9586C35.1021 16.3341 34.8337 16.6413 34.5316 16.9485C34.3974 17.0509 34.3974 17.0509 34.2632 17.1533C34.1961 17.1875 34.129 17.2216 34.0618 17.2899C34.0283 17.2899 33.9947 17.324 33.9612 17.324C34.0283 17.2899 34.0283 17.2899 33.9612 17.324C33.8269 17.3582 33.6927 17.3923 33.5585 17.4264C33.3571 17.4606 33.6256 17.4264 33.4914 17.4264C33.4243 17.4264 33.3571 17.4264 33.3236 17.4264C33.1894 17.4264 33.0551 17.4264 32.9209 17.4264C32.8873 17.4264 32.686 17.3923 32.8873 17.4264C32.8202 17.4264 32.7531 17.3923 32.686 17.3923C31.7128 17.1875 30.7732 16.6754 29.8001 17.1192C29.431 17.2899 29.3303 17.8361 29.5316 18.1774C29.7665 18.5529 30.2028 18.6212 30.5719 18.4505C30.337 18.5529 30.5048 18.4846 30.5719 18.4505C30.7061 18.4164 30.3706 18.4505 30.5048 18.4505C30.6055 18.4505 30.7061 18.4505 30.7732 18.4505C30.5048 18.4505 30.8404 18.4505 30.9075 18.4846C31.0081 18.5188 31.1424 18.5529 31.243 18.587C31.78 18.7236 32.3169 18.8943 32.8538 18.9284C34.4981 19.0991 35.7732 18.0409 36.6457 16.6754C36.8806 16.3341 36.7128 15.8221 36.3773 15.6173C36.0081 15.4466 35.5719 15.6173 35.337 15.9586Z" fill="black"/>
<path d="M20.0348 5.88879C20.2697 5.44503 20.5046 4.96713 20.8066 4.55751C20.773 4.62578 20.7395 4.65991 20.6724 4.72818C20.8737 4.4551 21.1422 4.21615 21.4106 3.9772C21.3435 4.01134 21.31 4.04547 21.2428 4.11374C21.3435 4.04547 21.4777 3.94307 21.5784 3.8748C21.914 3.66998 22.0818 3.19209 21.8469 2.8166C21.6455 2.47524 21.1757 2.30457 20.8066 2.54352C20.3032 2.85073 19.867 3.26036 19.5314 3.70412C19.1959 4.14788 18.9274 4.62578 18.6925 5.10367C18.5247 5.47916 18.5918 5.95706 18.961 6.16187C19.3301 6.36668 19.8334 6.29841 20.0348 5.88879Z" fill="black"/>
<path d="M37.9226 2.44108C37.9897 2.44108 38.0232 2.44108 38.0903 2.44108C38.0232 2.44108 37.9561 2.40694 37.889 2.40694C38.0232 2.40694 38.1239 2.44108 38.2581 2.50935C38.191 2.47521 38.1239 2.44108 38.0903 2.44108C38.2246 2.50935 38.3588 2.57762 38.4595 2.64589C38.3924 2.61176 38.3588 2.57762 38.2917 2.50935C38.3924 2.57762 38.493 2.68003 38.5601 2.78243C38.5266 2.71416 38.493 2.68003 38.4259 2.61176C38.4595 2.68003 38.493 2.71416 38.5266 2.78243C38.5937 2.95311 38.795 3.08965 38.9628 3.12379C39.1306 3.15792 39.3991 3.15792 39.5333 3.05552C39.7011 2.95311 39.8353 2.78243 39.8689 2.61176C39.9024 2.40694 39.9024 2.20213 39.8018 2.03145C39.634 1.6901 39.3655 1.45115 39.0635 1.24634C38.7279 1.00739 38.2917 0.904985 37.889 0.87085C37.6877 0.87085 37.4863 0.973256 37.3521 1.1098C37.2179 1.24634 37.1172 1.45115 37.1172 1.65596C37.1172 1.86078 37.1843 2.06559 37.3521 2.20213C37.5199 2.33867 37.7212 2.44108 37.9226 2.44108Z" fill="black"/>
</g>
<defs>
<clipPath id="clip0_46_1586">
<rect width="50" height="61" fill="white" transform="translate(0 0.905029)"/>
</clipPath>
</defs>
</svg>
