<svg width="23" height="42" fill="none" xmlns="http://www.w3.org/2000/svg"><path d="M21 40.864a1 1 0 1 0 2 0h-2ZM12 7.367v-1 1ZM.293 6.657a1 1 0 0 0 0 1.414l6.363 6.364a1 1 0 1 0 1.415-1.414L2.414 7.364l5.658-5.657A1 1 0 0 0 6.657.293L.293 6.656ZM22 40.863h1v-20h-2v20h1Zm0-20h1c0-2.569-.38-6.131-1.926-9.088-.78-1.492-1.87-2.854-3.378-3.841C16.182 6.943 14.3 6.366 12 6.367v2c1.95 0 3.443.483 4.6 1.24 1.164.763 2.043 1.837 2.701 3.095 1.33 2.542 1.699 5.73 1.699 8.161h1ZM12 7.366v-1C7 6.369 3.003 6.364 1 6.364v2c1.997 0 6.003.005 11 .003v-1Z" fill="#F37E60"/></svg>