<svg width="17" height="17" fill="none" xmlns="http://www.w3.org/2000/svg"><path d="M14.82 2.315a.703.703 0 1 1 .992.996l-7.678 7.658a.705.705 0 0 1-.496.205h-.017v-.001a.703.703 0 0 1-.5-.226L4.085 7.651a.704.704 0 0 1 1.035-.953l2.539 2.758 7.16-7.14Z" fill="#6683C2" stroke="#6683C2" stroke-width=".2"/><path d="M8.2.1a.703.703 0 0 1 0 1.406A6.702 6.702 0 0 0 1.506 8.2 6.702 6.702 0 0 0 8.2 14.894 6.702 6.702 0 0 0 14.895 8.2a.703.703 0 1 1 1.405 0c0 4.466-3.634 8.1-8.1 8.1-4.466 0-8.1-3.634-8.1-8.1C.1 3.733 3.735.1 8.2.1Z" fill="#6683C2" stroke="#6683C2" stroke-width=".2"/></svg>