<svg width="17" height="17" fill="none" xmlns="http://www.w3.org/2000/svg"><path d="M12.462 7.426a.646.646 0 1 0 0-1.291.646.646 0 0 0 0 1.291Z" fill="#000"/><path d="M13.948 1.291h-.84V.646a.646.646 0 1 0-1.29 0v.645H8.878V.646a.646.646 0 1 0-1.291 0v.645H4.682V.646a.646.646 0 1 0-1.292 0v.645h-.807A2.586 2.586 0 0 0 0 3.874v10.074a2.586 2.586 0 0 0 2.583 2.583h4.94a.646.646 0 1 0 0-1.291h-4.94c-.712 0-1.292-.58-1.292-1.292V3.874c0-.712.58-1.291 1.292-1.291h.807v.646a.646.646 0 1 0 1.292 0v-.646h2.906v.646a.646.646 0 1 0 1.291 0v-.646h2.938v.646a.646.646 0 0 0 1.292 0v-.646h.84c.711 0 1.29.58 1.29 1.291v3.681a.646.646 0 1 0 1.292 0v-3.68a2.586 2.586 0 0 0-2.583-2.584Z" fill="#000"/><path d="M12.624 8.718a3.911 3.911 0 0 0-3.907 3.906 3.911 3.911 0 0 0 3.907 3.907 3.911 3.911 0 0 0 3.906-3.907 3.911 3.911 0 0 0-3.906-3.906Zm0 6.522a2.618 2.618 0 0 1-2.616-2.616 2.618 2.618 0 0 1 2.616-2.615 2.618 2.618 0 0 1 2.615 2.615 2.618 2.618 0 0 1-2.615 2.616Z" fill="#000"/><path d="M13.56 11.978h-.29V11.3a.646.646 0 1 0-1.291 0v1.324c0 .357.289.646.645.646h.937a.646.646 0 0 0 0-1.292ZM9.654 7.426a.646.646 0 1 0 0-1.291.646.646 0 0 0 0 1.291ZM6.843 10.235a.646.646 0 1 0 0-1.292.646.646 0 0 0 0 1.292ZM4.036 7.426a.646.646 0 1 0 0-1.291.646.646 0 0 0 0 1.291ZM4.036 10.235a.646.646 0 1 0 0-1.292.646.646 0 0 0 0 1.292ZM4.036 13.044a.646.646 0 1 0 0-1.292.646.646 0 0 0 0 1.292ZM6.843 13.044a.646.646 0 1 0 0-1.292.646.646 0 0 0 0 1.292ZM6.843 7.426a.646.646 0 1 0 0-1.291.646.646 0 0 0 0 1.291Z" fill="#000"/></svg>