<svg width="20" height="25" fill="none" xmlns="http://www.w3.org/2000/svg"><path d="M13.917.792A4.85 4.85 0 0 0 9.78 3.089c-.558.902-.055 2.412.7 3.166l2.437 2.437a5.378 5.378 0 0 1 1.56 3.808c0 1.37-.515 2.763-1.56 3.807l-2.438 2.438c-.754.754-1.258 2.264-.7 3.165a4.85 4.85 0 0 0 4.137 2.298h1.018a4.852 4.852 0 0 0 4.863-4.862V5.655A4.852 4.852 0 0 0 14.935.792h-1.018Z" fill="#fff" fill-opacity=".38"/><path d="m12.008 13.4-4.286 3.806c-.236.21-.546.315-.855.315-.31 0-.62-.105-.856-.315a.991.991 0 0 1 0-1.519l2.221-1.971H1.21c-.668 0-1.21-.481-1.21-1.074 0-.594.542-1.074 1.21-1.074h7.022l-2.22-1.972a.991.991 0 0 1 0-1.52 1.32 1.32 0 0 1 1.71 0l4.286 3.806a.991.991 0 0 1 0 1.519Z" fill="#fff"/></svg>