<svg width="19" height="21" fill="none" xmlns="http://www.w3.org/2000/svg"><path d="M15.024 12.773c-.39-.405-.86-.622-1.357-.622-.494 0-.968.213-1.374.618l-1.269 1.265c-.104-.056-.209-.108-.31-.16-.144-.073-.28-.141-.397-.213-1.188-.755-2.269-1.74-3.305-3.012-.502-.635-.84-1.169-1.084-1.711.33-.301.634-.615.932-.916l.337-.341c.843-.843.843-1.936 0-2.78L6.101 3.807a16.735 16.735 0 0 1-.374-.382 18.963 18.963 0 0 0-.755-.747c-.39-.385-.855-.59-1.345-.59s-.964.205-1.366.59l-.008.008L.888 4.063A2.938 2.938 0 0 0 .017 5.93C-.08 7.103.266 8.195.53 8.91c.65 1.755 1.622 3.381 3.072 5.124a18.9 18.9 0 0 0 6.293 4.928c.923.437 2.156.955 3.534 1.044.084.004.172.008.253.008.927 0 1.707-.334 2.317-.996.004-.008.012-.012.016-.02.209-.253.45-.482.703-.727.172-.165.35-.337.522-.518.397-.414.606-.896.606-1.39 0-.498-.213-.976-.618-1.377l-2.205-2.213Zm1.438 4.229c-.004 0-.004.004 0 0-.157.169-.318.321-.49.49-.261.249-.526.51-.775.803-.406.434-.884.638-1.51.638-.06 0-.125 0-.185-.003-1.193-.077-2.301-.543-3.132-.94a17.84 17.84 0 0 1-5.928-4.643c-1.37-1.65-2.285-3.176-2.891-4.815-.374-1-.51-1.779-.45-2.514.04-.47.22-.859.554-1.192l1.37-1.37c.196-.185.405-.285.61-.285.253 0 .458.153.586.281l.012.012c.245.23.478.466.723.72.125.128.253.256.382.389l1.096 1.096c.426.426.426.82 0 1.245-.117.116-.229.233-.345.345-.338.346-.659.667-1.008.98-.008.008-.016.012-.02.02-.346.346-.282.683-.21.912l.013.036c.285.69.686 1.341 1.297 2.116l.004.004c1.108 1.366 2.277 2.43 3.566 3.245.165.105.333.189.494.27.145.072.281.14.398.212.016.008.032.02.048.028.136.068.265.1.397.1.334 0 .543-.208.61-.276l1.374-1.374c.137-.136.354-.301.607-.301.249 0 .453.157.578.293l.008.008 2.213 2.213c.413.41.413.831.004 1.257Zm-6.193-11.49A5.092 5.092 0 0 1 13.04 6.95a5.118 5.118 0 0 1 1.438 2.771c.044.265.273.45.534.45.032 0 .06-.004.092-.008a.543.543 0 0 0 .446-.627 6.195 6.195 0 0 0-1.739-3.353 6.194 6.194 0 0 0-3.353-1.739.545.545 0 0 0-.627.442.536.536 0 0 0 .438.626Zm8.723 3.868a10.19 10.19 0 0 0-2.864-5.522A10.19 10.19 0 0 0 10.607.994a.54.54 0 0 0-.623.442.545.545 0 0 0 .446.627 9.125 9.125 0 0 1 4.935 2.558 9.099 9.099 0 0 1 2.559 4.935c.044.265.273.45.534.45.032 0 .06-.004.092-.008a.532.532 0 0 0 .442-.618Z" fill="#fff"/></svg>