<svg width="18" height="18" fill="none" xmlns="http://www.w3.org/2000/svg"><mask id="a" fill="#fff"><path fill-rule="evenodd" clip-rule="evenodd" d="M7.917 2.868a.945.945 0 0 1 .583.872v11.334a.944.944 0 0 1-1.612.668L3.387 12.24H.944A.945.945 0 0 1 0 11.296V7.518a.944.944 0 0 1 .944-.944h2.443l3.5-3.501a.944.944 0 0 1 1.03-.205Zm4.982-.14a.944.944 0 0 1 1.335 0A9.415 9.415 0 0 1 17 9.407a9.42 9.42 0 0 1-2.766 6.68.944.944 0 0 1-1.335-1.336 7.53 7.53 0 0 0 2.212-5.343 7.528 7.528 0 0 0-2.213-5.343.944.944 0 0 1 0-1.335ZM10.226 5.4a.945.945 0 0 1 1.336 0 5.651 5.651 0 0 1 1.66 4.007 5.652 5.652 0 0 1-1.66 4.008.945.945 0 0 1-1.336-1.337 3.763 3.763 0 0 0 1.107-2.67 3.76 3.76 0 0 0-1.107-2.672.944.944 0 0 1 0-1.336Z"/></mask><path fill-rule="evenodd" clip-rule="evenodd" d="M7.917 2.868a.945.945 0 0 1 .583.872v11.334a.944.944 0 0 1-1.612.668L3.387 12.24H.944A.945.945 0 0 1 0 11.296V7.518a.944.944 0 0 1 .944-.944h2.443l3.5-3.501a.944.944 0 0 1 1.03-.205Zm4.982-.14a.944.944 0 0 1 1.335 0A9.415 9.415 0 0 1 17 9.407a9.42 9.42 0 0 1-2.766 6.68.944.944 0 0 1-1.335-1.336 7.53 7.53 0 0 0 2.212-5.343 7.528 7.528 0 0 0-2.213-5.343.944.944 0 0 1 0-1.335ZM10.226 5.4a.945.945 0 0 1 1.336 0 5.651 5.651 0 0 1 1.66 4.007 5.652 5.652 0 0 1-1.66 4.008.945.945 0 0 1-1.336-1.337 3.763 3.763 0 0 0 1.107-2.67 3.76 3.76 0 0 0-1.107-2.672.944.944 0 0 1 0-1.336Z" fill="#BABABA"/><path d="m7.917 2.868 9.805-23.648-.008-.004L7.917 2.868Zm.583.872-25.6-.006v.006H8.5Zm0 11.334 25.6.005v-.005H8.5Zm-1.612.668-18.102 18.102.003.002L6.888 15.742ZM3.387 12.24 21.489-5.861 13.99-13.36H3.387v25.6ZM0 11.296h-25.6H0Zm.944-4.722v25.6-25.6Zm2.443 0v25.6H13.99l7.498-7.498L3.387 6.574Zm3.5-3.501L24.99 21.175l.006-.006L6.888 3.073Zm6.012-.344-18.1-18.105-.005.006L12.899 2.729Zm1.335 0-18.1 18.105.003.002L14.234 2.729Zm0 13.356L32.019 34.5l.16-.154.157-.158-18.102-18.102Zm-1.335-1.335L-5.178-3.379l-.17.17-.168.174L12.898 14.75Zm2.212-5.343h-25.6v.04l25.6-.04Zm-2.213-5.343-18.104 18.1.003.002L12.899 4.064ZM10.228 5.4l18.092 18.112.01-.01.01-.01L10.227 5.4Zm.668-.277v-25.6 25.6Zm.668.277L-6.549 23.492l.015.015.015.014L11.563 5.4Zm1.66 4.007-25.6-.033v.065l25.6-.032Zm-1.66 4.008L-6.52-4.706l-.01.008-.009.01 18.102 18.102Zm-1.336-1.337L-7.843-6.057l-.016.017-.016.016 18.102 18.102Zm1.107-2.67-25.6-.04v.076l25.6-.037Zm-1.107-2.672L-7.865 24.848l.012.013.012.012L10.227 6.736Zm-12.114 19.78a24.655 24.655 0 0 1-11.062-9.084l42.58-28.433a26.545 26.545 0 0 0-11.909-9.78l-19.61 47.297Zm-11.062-9.084a24.656 24.656 0 0 1-4.15-13.698l51.2.013a26.545 26.545 0 0 0-4.47-14.748l-42.58 28.433Zm-4.15-13.692v11.334h51.2V3.74h-51.2Zm0 11.329a24.656 24.656 0 0 1 4.156-13.696l42.568 28.45A26.544 26.544 0 0 0 34.1 15.08l-51.2-.01Zm4.156-13.696A24.656 24.656 0 0 1-1.879-7.705l19.592 47.303a26.545 26.545 0 0 0 11.912-9.774l-42.568-28.45Zm11.064-9.078a24.655 24.655 0 0 1 14.243-1.403L2.38 41.109a26.545 26.545 0 0 0 15.334-1.511L-1.879-7.705Zm14.243-1.403a24.655 24.655 0 0 1 12.623 6.745l-36.198 36.21a26.545 26.545 0 0 0 13.59 7.261l9.985-50.216ZM24.99-2.36l-3.501-3.501-36.204 36.203 3.501 3.502L24.99-2.36Zm-21.603-11H.944v51.2h2.443v-51.2Zm-2.443 0c6.54 0 12.81 2.598 17.435 7.222l-36.204 36.204A26.545 26.545 0 0 0 .945 37.84v-51.2ZM18.38-6.137A24.656 24.656 0 0 1 25.6 11.296h-51.2c0 7.04 2.797 13.792 7.775 18.77L18.379-6.138ZM25.6 11.296V7.518h-51.2v3.778h51.2Zm0-3.778c0 6.54-2.598 12.81-7.221 17.434l-36.204-36.204A26.544 26.544 0 0 0-25.6 7.518h51.2Zm-7.221 17.434A24.656 24.656 0 0 1 .944 32.174v-51.2a26.545 26.545 0 0 0-18.77 7.774L18.38 24.953ZM.944 32.174h2.443v-51.2H.944v51.2Zm20.545-7.498 3.5-3.501-36.203-36.204-3.501 3.5 36.204 36.205Zm3.507-3.507A24.655 24.655 0 0 1 12.37 27.92L2.373-22.293a26.544 26.544 0 0 0-13.593 7.27l36.216 36.192ZM12.37 27.92A24.656 24.656 0 0 1-1.879 26.52l19.593-47.303a26.544 26.544 0 0 0-15.34-1.51l9.996 50.215Zm18.628-7.087a24.656 24.656 0 0 1-17.432 7.218v-51.2A26.544 26.544 0 0 0-5.2-15.376l36.199 36.21Zm-17.432 7.218a24.655 24.655 0 0 1-17.431-7.218l36.198-36.21a26.544 26.544 0 0 0-18.767-7.772v51.2Zm-17.429-7.216A16.185 16.185 0 0 1-8.6 9.406h51.2c0-9.667-3.95-18.469-10.27-24.784L-3.862 20.836ZM-8.6 9.406A16.18 16.18 0 0 1-3.868-2.016l36.204 36.203A35.021 35.021 0 0 0 42.6 9.407H-8.6Zm5.05-11.734a24.656 24.656 0 0 1 17.342-6.92l-.445 51.198A26.545 26.545 0 0 0 32.02 34.5L-3.551-2.329Zm17.342-6.92a24.656 24.656 0 0 1 17.22 7.22L-5.192 34.176a26.545 26.545 0 0 0 18.54 7.774l.444-51.199Zm17.22 7.22a24.656 24.656 0 0 1 7.22 17.22l-51.198.445a26.545 26.545 0 0 0 7.774 18.539L31.012-2.028Zm7.22 17.22a24.655 24.655 0 0 1-6.92 17.343L-5.515-3.035a26.545 26.545 0 0 0-7.45 18.672l51.197-.445Zm-7.258 17.687a33.129 33.129 0 0 0 7.216-10.783L-9.113 2.504c.911-2.202 2.25-4.2 3.936-5.883l36.15 36.258Zm7.216-10.783a33.129 33.129 0 0 0 2.521-12.728l-51.2.079a18.071 18.071 0 0 1 1.376-6.943L38.19 22.095Zm2.521-12.689c0-9.146-3.735-17.469-9.71-23.445L-5.204 22.166A18.072 18.072 0 0 1-10.49 9.407h51.2Zm-9.708-23.442a24.655 24.655 0 0 1 7.219 17.432h-51.2c0 7.038 2.795 13.789 7.772 18.767l36.21-36.199Zm7.219 17.432a24.655 24.655 0 0 1-7.219 17.431L-5.207-15.37a26.544 26.544 0 0 0-7.771 18.767h51.2Zm-9.883 20.095a24.653 24.653 0 0 1-8.003 5.351L.73-18.454a26.546 26.546 0 0 0-8.615 5.762l36.224 36.184Zm-8.003 5.351a24.655 24.655 0 0 1-9.441 1.88v-51.2c-3.489 0-6.943.687-10.165 2.023l19.606 47.297Zm-9.441 1.88c-3.24 0-6.449-.639-9.442-1.88L21.06-18.454a26.544 26.544 0 0 0-10.165-2.023v51.2Zm-9.442-1.88a24.654 24.654 0 0 1-8.002-5.351l36.224-36.184a26.546 26.546 0 0 0-8.615-5.762L1.453 28.843Zm-7.972-5.322a19.949 19.949 0 0 1-4.34-6.489L36.444-2.556a31.25 31.25 0 0 0-6.8-10.166L-6.519 23.521Zm-4.34-6.489a19.948 19.948 0 0 1-1.519-7.658l51.2.066a31.252 31.252 0 0 0-2.377-11.996L-10.86 17.032Zm-1.519-7.593a19.95 19.95 0 0 1 1.518-7.657l47.305 19.589a31.254 31.254 0 0 0 2.377-11.995l-51.2.063Zm1.518-7.657a19.949 19.949 0 0 1 4.34-6.488l36.166 36.241a31.252 31.252 0 0 0 6.799-10.164L-10.86 1.782Zm4.321-6.47a24.655 24.655 0 0 1 17.434-7.22v51.2c7.04 0 13.792-2.797 18.77-7.776L-6.54-4.687Zm17.434-7.22c6.539 0 12.81 2.597 17.433 7.22L-7.875 31.517a26.545 26.545 0 0 0 18.77 7.775v-51.2Zm17.433 7.22a24.655 24.655 0 0 1 7.222 17.434h-51.2c0 7.04 2.796 13.792 7.775 18.77L28.328-4.687Zm7.222 17.434c0 6.54-2.598 12.81-7.221 17.434L-7.876-6.024a26.545 26.545 0 0 0-7.775 18.77h51.2Zm-7.254 17.467a29.361 29.361 0 0 0 6.4-9.559L-12.603 1.052a21.837 21.837 0 0 1 4.76-7.109l36.139 36.27Zm6.4-9.559A29.362 29.362 0 0 0 36.934 9.37l-51.2.074a21.837 21.837 0 0 1 1.663-8.392l47.3 19.602Zm2.238-11.207A29.362 29.362 0 0 0 34.696-1.84l-47.299 19.602a21.836 21.836 0 0 1-1.664-8.395l51.2.08ZM34.696-1.84a29.362 29.362 0 0 0-6.402-9.56L-7.841 24.873a21.837 21.837 0 0 1-4.762-7.11l47.3-19.603Zm-6.377-9.536a24.657 24.657 0 0 1 5.351 8.002l-47.297 19.607a26.545 26.545 0 0 0 5.762 8.615l36.184-36.224Zm5.351 8.002a24.656 24.656 0 0 1 1.88 9.442h-51.2c0 3.488.687 6.943 2.023 10.165L33.67-3.374Zm1.88 9.442c0 3.24-.639 6.448-1.88 9.442L-13.627-4.097A26.544 26.544 0 0 0-15.65 6.068h51.2Zm-1.88 9.442a24.657 24.657 0 0 1-5.352 8.002L-7.864-12.712a26.544 26.544 0 0 0-5.762 8.615L33.67 15.51Z" fill="#BABABA" mask="url(#a)"/><path d="M17 1 1 17" stroke="#BABABA" stroke-width="2" stroke-linecap="round"/></svg>