<svg width="67" height="67" fill="none" xmlns="http://www.w3.org/2000/svg"><circle cx="33.5" cy="33.5" r="33.5" fill="#fff"/><path d="M38 32h-2.365V20.757h-1.056c-1.934 0-2.946.929-2.946 2.314 0 1.572.7 2.3 2.142 3.229l1.19.771L31.544 32H29l3.08-4.4c-1.77-1.214-2.768-2.4-2.768-4.4 0-2.5 1.815-4.2 5.252-4.2h3.421L38 32Z" fill="#FC3F1D"/><path d="M16.307 40.265h7.289a.3.3 0 0 1 .307.29v1.354c0 .18-.083.352-.227.47L19.6 45.6h3.996c.17 0 .307.128.307.288v1.555a.3.3 0 0 1-.307.29h-7.289a.3.3 0 0 1-.307-.29V46.09c0-.18.083-.352.227-.47l4.076-3.221h-3.996a.302.302 0 0 1-.307-.293v-1.552a.3.3 0 0 1 .307-.29ZM28.984 40c.842 0 1.594.179 2.22.506.628.327 1.131.803 1.477 1.395.347.593.536 1.303.536 2.099 0 .796-.19 1.506-.536 2.099a3.638 3.638 0 0 1-1.476 1.395c-.627.327-1.379.506-2.221.506-.843 0-1.595-.179-2.222-.506a3.638 3.638 0 0 1-1.476-1.395c-.347-.593-.536-1.303-.536-2.099 0-.796.19-1.506.536-2.099a3.638 3.638 0 0 1 1.476-1.395c.628-.327 1.379-.506 2.221-.506Zm0 2.133c-.404 0-.758.08-1.05.23-.293.15-.524.369-.683.645-.158.277-.243.611-.243.992 0 .38.085.715.243.992.159.276.39.495.683.645.293.15.646.23 1.05.23.403 0 .756-.08 1.05-.23.292-.15.524-.369.682-.645.158-.277.243-.611.243-.992 0-.38-.085-.715-.243-.992a1.627 1.627 0 0 0-.683-.645 2.293 2.293 0 0 0-1.05-.23ZM38.016 40c.842 0 1.594.179 2.22.506.628.327 1.131.803 1.478 1.395.346.593.535 1.303.535 2.099 0 .796-.19 1.506-.535 2.099a3.638 3.638 0 0 1-1.477 1.395c-.627.327-1.379.506-2.221.506-.843 0-1.594-.179-2.222-.506a3.637 3.637 0 0 1-1.476-1.395c-.347-.593-.536-1.303-.536-2.099 0-.796.19-1.506.536-2.099a3.637 3.637 0 0 1 1.476-1.395c.628-.327 1.379-.506 2.222-.506Zm0 2.133c-.404 0-.758.08-1.05.23-.293.15-.524.369-.683.645-.158.277-.243.611-.243.992 0 .38.085.715.243.992.159.276.39.495.683.645.292.15.646.23 1.05.23.403 0 .757-.08 1.05-.23.292-.15.523-.369.682-.645.158-.277.243-.611.243-.992 0-.38-.085-.715-.243-.992a1.627 1.627 0 0 0-.683-.645 2.294 2.294 0 0 0-1.05-.23ZM51 40.556v6.886a.3.3 0 0 1-.307.29H49.26a.674.674 0 0 1-.496-.214l-3.41-3.85v3.774c0 .16-.14.29-.31.29h-1.642a.3.3 0 0 1-.307-.29v-6.886a.3.3 0 0 1 .307-.29h1.433c.19 0 .371.078.496.214l3.41 3.852v-3.776c0-.16.135-.29.305-.29h1.647a.3.3 0 0 1 .307.29Z" fill="url(#a)"/><defs><linearGradient id="a" x1="51.54" y1="42.464" x2="35.484" y2="42.273" gradientUnits="userSpaceOnUse"><stop stop-color="#6339F5"/><stop offset="1" stop-color="#3D3F55"/></linearGradient></defs></svg>