<svg width="419" height="564" fill="none" xmlns="http://www.w3.org/2000/svg"><g opacity=".38" fill="#B5CBF9"><path d="M123.106 123.548c29.202 2.162 51.098 27.915 48.906 57.522-2.191 29.607-27.64 51.856-56.841 49.694-29.202-2.161-51.098-27.914-48.906-57.521 2.191-29.607 27.64-51.856 56.841-49.695ZM310.225 20.026c60.025 4.443 105.035 57.362 100.532 118.198-4.503 60.836-56.813 106.552-116.838 102.109-60.025-4.443-105.034-57.362-100.531-118.198 4.502-60.836 56.813-106.552 116.837-102.11ZM296.998 413.91c5.854-79.089-53.515-147.943-132.603-153.797-79.08-5.853-147.942 53.509-153.796 132.599-5.854 79.088 53.517 147.947 132.598 153.8 79.089 5.853 147.948-53.515 153.801-132.602Z"/></g></svg>