<svg width="273" height="472" fill="none" xmlns="http://www.w3.org/2000/svg"><g clip-path="url(#a)"><mask id="c" style="mask-type:alpha" maskUnits="userSpaceOnUse" x="-26" y="-17" width="320" height="577"><path transform="rotate(-180 293.733 559.342)" fill="url(#b)" d="M293.733 559.342h319.341v576.169H293.733z"/></mask><g mask="url(#c)"><path fill-rule="evenodd" clip-rule="evenodd" d="M42.395.322a40.355 40.355 0 0 0-40.243 40.26v14.124h5.284v3.17H2.152v19.057h-.048a2.114 2.114 0 0 0-2.082 2.13v12.715a2.114 2.114 0 0 0 2.114 2.146v19.009h-.048a2.112 2.112 0 0 0-2.082 2.146v33.901a2.115 2.115 0 0 0 2.114 2.146v12.651h-.032a2.112 2.112 0 0 0-2.082 2.146v31.788a2.119 2.119 0 0 0 1.297 1.982c.259.108.536.164.817.164v284.889h5.284v3.186H2.12v14.461a40.355 40.355 0 0 0 40.243 40.259h188.549a40.354 40.354 0 0 0 40.259-40.259v-14.461h-5.285v-3.186h5.285V189.448a2.114 2.114 0 0 0 2.114-2.13v-59.364a2.103 2.103 0 0 0-.614-1.505 2.118 2.118 0 0 0-1.5-.625V57.877h-5.285v-3.171h5.285V40.58A40.356 40.356 0 0 0 230.912.322H42.395Zm0 16.96h43.878a4.244 4.244 0 0 1 4.244 4.227v2.13a12.716 12.716 0 0 0 12.699 12.699h67.883a12.716 12.716 0 0 0 12.716-12.7v-2.13a4.246 4.246 0 0 1 4.227-4.227h42.902c13.051 0 23.3 10.249 23.3 23.3v461.844a23.069 23.069 0 0 1-14.346 21.592 23.053 23.053 0 0 1-8.954 1.708H42.394a23.055 23.055 0 0 1-21.596-14.357 23.059 23.059 0 0 1-1.703-8.959V40.565c0-13.035 10.248-23.284 23.3-23.284Z" fill="#93A7D0"/></g></g><defs><linearGradient id="b" x1="453.404" y1="629.762" x2="453.404" y2="859.1" gradientUnits="userSpaceOnUse"><stop offset=".2" stop-color="#F8F8F8" stop-opacity="0"/><stop offset="1" stop-color="#F8F8F8"/></linearGradient><clipPath id="a"><path d="M0 0h241.674C258.975 0 273 14.025 273 31.326v408.57c0 17.301-14.025 31.326-31.326 31.326H0V0Z" fill="#fff"/></clipPath></defs></svg>