<svg width="250" height="262" viewBox="0 0 250 262" fill="none" xmlns="http://www.w3.org/2000/svg">
<g clip-path="url(#clip0_2018_47)">
<path d="M179.839 87.1161C179.311 87.1161 178.782 87.0915 178.251 87.0421C177.991 87.0176 177.747 86.903 177.562 86.718L163.279 72.4375C163.094 72.2527 162.98 72.0091 162.955 71.7488C162.692 68.9094 163.149 66.0494 164.286 63.434C165.422 60.8186 167.2 58.5324 169.456 56.7875C171.711 55.0426 174.371 53.8954 177.188 53.4523C180.005 53.0092 182.888 53.2846 185.57 54.2528C188.252 55.2211 190.647 56.8509 192.531 58.9912C194.415 61.1315 195.729 63.7129 196.35 66.4961C196.97 69.2794 196.878 72.1743 196.082 74.9125C195.286 77.6506 193.811 80.1434 191.794 82.1597C190.226 83.7322 188.363 84.9795 186.311 85.83C184.259 86.6806 182.06 87.1177 179.839 87.1161ZM178.855 84.8404C180.943 84.9825 183.037 84.6751 184.995 83.9389C186.954 83.2026 188.732 82.0547 190.209 80.5726C191.946 78.8354 193.22 76.6902 193.915 74.3333C194.609 71.9763 194.701 69.4829 194.182 67.0812C193.664 64.6795 192.551 62.4461 190.947 60.5855C189.342 58.7248 187.296 57.2963 184.997 56.4306C182.697 55.5649 180.217 55.2897 177.784 55.6302C175.351 55.9706 173.042 56.9159 171.068 58.3794C169.094 59.843 167.519 61.7781 166.487 64.0077C165.454 66.2373 164.998 68.6902 165.158 71.142L178.855 84.8404Z" fill="#68CCEA"/>
<path d="M137.132 120.53C135.663 120.534 134.225 120.114 132.988 119.323C131.751 118.531 130.768 117.401 130.156 116.066C129.544 114.731 129.328 113.248 129.536 111.794C129.743 110.341 130.364 108.977 131.324 107.866L163.221 70.9122L164.919 72.3781L133.022 109.324C132.114 110.36 131.634 111.702 131.679 113.078C131.724 114.455 132.291 115.762 133.264 116.736C134.238 117.71 135.546 118.277 136.922 118.322C138.299 118.368 139.641 117.887 140.676 116.979L177.622 85.0783L179.088 86.7798L142.134 118.676C140.743 119.875 138.968 120.533 137.132 120.53ZM172.993 56.3547L174.579 54.7687L195.227 75.4177L193.641 77.0037L172.993 56.3547ZM164.388 64.9552L165.974 63.3693L186.622 84.0172L185.036 85.6032L164.388 64.9552Z" fill="#68CCEA"/>
<path d="M158.31 95.2458C157.843 95.247 157.38 95.1556 156.949 94.977C156.517 94.7983 156.126 94.5359 155.796 94.2049C155.129 93.5381 154.755 92.6338 154.755 91.6908C154.755 90.7478 155.129 89.8435 155.796 89.1767L162.677 82.2933C163.354 81.6465 164.255 81.2855 165.191 81.2855C166.127 81.2855 167.027 81.6465 167.704 82.2933C168.035 82.6233 168.297 83.0151 168.475 83.4464C168.654 83.8777 168.746 84.34 168.746 84.8068C168.746 85.2737 168.654 85.736 168.475 86.1673C168.297 86.5986 168.035 86.9904 167.704 87.3204L160.822 94.2049C160.493 94.536 160.102 94.7985 159.67 94.9772C159.239 95.1559 158.777 95.2471 158.31 95.2458ZM165.192 83.4957C165.02 83.4952 164.849 83.529 164.69 83.595C164.53 83.661 164.386 83.758 164.264 83.8804L157.382 90.7626C157.26 90.8844 157.164 91.029 157.098 91.1882C157.032 91.3473 156.998 91.5179 156.998 91.6902C156.998 91.8625 157.032 92.0331 157.098 92.1923C157.164 92.3514 157.26 92.496 157.382 92.6178C157.632 92.8554 157.964 92.9879 158.309 92.9879C158.654 92.9879 158.986 92.8554 159.236 92.6178L166.12 85.7344C166.304 85.5511 166.43 85.317 166.481 85.062C166.532 84.8069 166.507 84.5424 166.407 84.302C166.308 84.0616 166.139 83.8562 165.923 83.7118C165.707 83.5674 165.452 83.4906 165.192 83.4912V83.4957ZM124.325 131.651C122.846 131.737 121.38 131.343 120.142 130.53C119.494 130.008 118.982 129.337 118.651 128.574C118.32 127.811 118.18 126.978 118.243 126.149C118.243 120.483 130.768 116.82 132.195 116.422L132.8 118.582C127.687 120.012 120.486 123.306 120.486 126.149C120.433 126.627 120.495 127.111 120.668 127.56C120.842 128.009 121.12 128.41 121.481 128.728C123.824 130.471 130.366 128.504 135.622 126.925C142.421 124.882 148.296 123.118 149.588 126.902C150.063 128.165 150.189 129.532 149.951 130.859L147.754 130.411C147.907 129.477 147.808 128.519 147.466 127.636C146.873 125.892 140.736 127.737 136.268 129.079C132.032 130.35 127.701 131.651 124.325 131.651Z" fill="#68CCEA"/>
</g>
<path d="M71.4733 174.306C71.191 174.306 70.9203 174.2 70.7208 174.011C70.5212 173.822 70.4091 173.566 70.4091 173.299V168.572C70.4091 168.304 70.5212 168.048 70.7208 167.859C70.9203 167.671 71.191 167.564 71.4733 167.564C71.7555 167.564 72.0262 167.671 72.2257 167.859C72.4253 168.048 72.5374 168.304 72.5374 168.572V173.299C72.5374 173.854 72.0596 174.306 71.4733 174.306ZM67.1514 171.942C66.8692 171.942 66.5985 171.836 66.3989 171.647C66.1993 171.459 66.0872 171.202 66.0872 170.935V166.228C66.0872 165.961 66.1993 165.705 66.3989 165.516C66.5985 165.327 66.8692 165.221 67.1514 165.221C67.4336 165.221 67.7043 165.327 67.9039 165.516C68.1035 165.705 68.2156 165.961 68.2156 166.228V170.935C68.2156 171.49 67.7378 171.942 67.1514 171.942ZM62.8295 169.579C62.5473 169.579 62.2766 169.473 62.0771 169.284C61.8775 169.095 61.7654 168.839 61.7654 168.572V163.865C61.7654 163.598 61.8775 163.341 62.0771 163.153C62.2766 162.964 62.5473 162.858 62.8295 162.858C63.1118 162.858 63.3825 162.964 63.582 163.153C63.7816 163.341 63.8937 163.598 63.8937 163.865V168.572C63.8937 169.127 63.4159 169.579 62.8295 169.579ZM58.5294 167.236C58.3897 167.236 58.2513 167.21 58.1222 167.159C57.9931 167.108 57.8757 167.034 57.7769 166.941C57.6781 166.847 57.5997 166.736 57.5462 166.614C57.4928 166.492 57.4652 166.361 57.4652 166.228V161.501C57.4652 161.234 57.5774 160.978 57.7769 160.789C57.9765 160.6 58.2472 160.494 58.5294 160.494C58.8116 160.494 59.0823 160.6 59.2819 160.789C59.4815 160.978 59.5936 161.234 59.5936 161.501V166.228C59.5936 166.783 59.1158 167.236 58.5294 167.236ZM9.01268 231.24H1.08566C0.803422 231.24 0.532742 231.134 0.333171 230.945C0.133599 230.756 0.0214844 230.5 0.0214844 230.233C0.0214844 229.966 0.133599 229.71 0.333171 229.521C0.532742 229.332 0.803422 229.226 1.08566 229.226H9.01268C9.29492 229.226 9.56559 229.332 9.76516 229.521C9.96473 229.71 10.0769 229.966 10.0769 230.233C10.0769 230.5 9.96473 230.756 9.76516 230.945C9.56559 231.134 9.29492 231.24 9.01268 231.24ZM13.8123 226.081H1.58517C1.30293 226.081 1.03225 225.975 0.832681 225.786C0.633109 225.597 0.520994 225.341 0.520994 225.074C0.520994 224.807 0.633109 224.551 0.832681 224.362C1.03225 224.173 1.30293 224.067 1.58517 224.067H13.8123C14.0946 224.067 14.3652 224.173 14.5648 224.362C14.7644 224.551 14.8765 224.807 14.8765 225.074C14.8765 225.341 14.7644 225.597 14.5648 225.786C14.3652 225.975 14.0946 226.081 13.8123 226.081ZM9.01268 220.902H3.12713C2.8449 220.902 2.57422 220.796 2.37465 220.607C2.17508 220.418 2.06296 220.162 2.06296 219.895C2.06296 219.627 2.17508 219.371 2.37465 219.182C2.57422 218.993 2.8449 218.887 3.12713 218.887H9.01268C9.29492 218.887 9.56559 218.993 9.76516 219.182C9.96473 219.371 10.0769 219.627 10.0769 219.895C10.0769 220.162 9.96473 220.418 9.76516 220.607C9.56559 220.796 9.29492 220.902 9.01268 220.902ZM13.8123 236.42H1.58517C1.30293 236.42 1.03225 236.314 0.832681 236.125C0.633109 235.936 0.520994 235.68 0.520994 235.413C0.520994 235.146 0.633109 234.889 0.832681 234.701C1.03225 234.512 1.30293 234.406 1.58517 234.406H13.8123C14.0946 234.406 14.3652 234.512 14.5648 234.701C14.7644 234.889 14.8765 235.146 14.8765 235.413C14.8765 235.68 14.7644 235.936 14.5648 236.125C14.3652 236.314 14.0946 236.42 13.8123 236.42ZM13.8123 215.743H5.95046C5.66822 215.743 5.39754 215.637 5.19797 215.448C4.9984 215.259 4.88629 215.003 4.88629 214.735C4.88629 214.468 4.9984 214.212 5.19797 214.023C5.39754 213.834 5.66822 213.728 5.95046 213.728H13.8123C14.0946 213.728 14.3652 213.834 14.5648 214.023C14.7644 214.212 14.8765 214.468 14.8765 214.735C14.8765 215.003 14.7644 215.259 14.5648 215.448C14.3652 215.637 14.0946 215.743 13.8123 215.743ZM46.8235 230.973C43.1314 230.973 40.1127 228.116 40.1127 224.622C40.1127 221.128 43.1314 218.271 46.8235 218.271C50.5155 218.271 53.5343 221.128 53.5343 224.622C53.5343 228.116 50.5155 230.973 46.8235 230.973ZM46.8235 220.285C44.3042 220.285 42.241 222.238 42.241 224.622C42.241 227.006 44.3042 228.959 46.8235 228.959C49.3428 228.959 51.4059 227.006 51.4059 224.622C51.4059 222.238 49.3428 220.285 46.8235 220.285ZM22.6298 234.652C22.0565 234.652 21.4889 234.545 20.9593 234.338C20.4296 234.13 19.9484 233.826 19.5431 233.442C19.1377 233.059 18.8162 232.603 18.5968 232.102C18.3774 231.601 18.2645 231.063 18.2645 230.521C18.2645 229.978 18.3774 229.441 18.5968 228.94C18.8162 228.439 19.1377 227.983 19.5431 227.6C19.9484 227.216 20.4296 226.912 20.9593 226.704C21.4889 226.496 22.0565 226.39 22.6298 226.39C23.7875 226.39 24.8979 226.825 25.7165 227.6C26.5352 228.374 26.9951 229.425 26.9951 230.521C26.9951 231.617 26.5352 232.667 25.7165 233.442C24.8979 234.217 23.7875 234.652 22.6298 234.652ZM22.6298 228.404C21.3919 228.404 20.3928 229.349 20.3928 230.521C20.3928 231.692 21.3919 232.638 22.6298 232.638C23.8677 232.638 24.8667 231.692 24.8667 230.521C24.8667 229.349 23.8677 228.404 22.6298 228.404ZM37.854 239.544C36.6963 239.544 35.5859 239.109 34.7673 238.334C33.9486 237.559 33.4887 236.508 33.4887 235.413C33.4887 234.317 33.9486 233.266 34.7673 232.491C35.5859 231.717 36.6963 231.281 37.854 231.281C39.0117 231.281 40.1221 231.717 40.9407 232.491C41.7594 233.266 42.2193 234.317 42.2193 235.413C42.2193 236.508 41.7594 237.559 40.9407 238.334C40.1221 239.109 39.0117 239.544 37.854 239.544ZM37.854 233.296C36.6161 233.296 35.6171 234.241 35.6171 235.413C35.6171 236.584 36.6161 237.53 37.854 237.53C39.0919 237.53 40.0909 236.584 40.0909 235.413C40.0909 234.241 39.0919 233.296 37.854 233.296ZM31.2083 208.939C28.0375 208.939 25.4531 206.493 25.4531 203.493C25.4531 200.738 29.6446 196.813 30.4699 196.052C30.8826 195.682 31.5341 195.682 31.9467 196.052C32.7937 196.813 36.9636 200.759 36.9636 203.493C36.9636 206.493 34.3791 208.939 31.2083 208.939ZM31.2083 198.21C29.5143 199.896 27.5814 202.28 27.5814 203.493C27.5814 205.383 29.2103 206.925 31.2083 206.925C33.2064 206.925 34.8352 205.383 34.8352 203.493C34.8352 202.28 32.9023 199.896 31.2083 198.21ZM33.1629 182.26C29.9921 182.26 27.4077 179.815 27.4077 176.814C27.4077 174.059 31.5993 170.134 32.4245 169.373C32.8372 169.003 33.4887 169.003 33.9014 169.373C34.7484 170.134 38.9182 174.08 38.9182 176.814C38.9182 179.815 36.3338 182.26 33.1629 182.26ZM33.1629 171.531C31.469 173.217 29.5361 175.601 29.5361 176.814C29.5361 178.705 31.1649 180.246 33.1629 180.246C35.161 180.246 36.7898 178.705 36.7898 176.814C36.7898 175.601 34.8569 173.217 33.1629 171.531Z" fill="#68CCEA"/>
<path d="M89.4995 183.206C88.1965 183.206 86.8717 182.877 85.6772 182.219L56.2929 166.167H40.8298C40.69 166.167 40.5517 166.141 40.4226 166.09C40.2934 166.039 40.1761 165.965 40.0773 165.872C39.9785 165.778 39.9001 165.667 39.8466 165.545C39.7931 165.423 39.7656 165.292 39.7656 165.16V152.046C39.7656 151.491 40.2434 151.039 40.8298 151.039H56.3146L64.3285 146.682C64.8498 146.394 65.5013 146.579 65.7836 147.052C66.0877 147.545 65.8922 148.162 65.3927 148.429L57.1182 152.93C56.953 153.021 56.7662 153.07 56.5752 153.074H41.894V164.173H56.5752C56.7707 164.173 56.9445 164.214 57.1182 164.317L86.7414 180.513C88.4788 181.459 90.542 181.459 92.2577 180.513C93.9734 179.568 95.0159 177.882 95.0159 175.992V141.256C95.0159 139.365 93.9951 137.679 92.2577 136.734C91.4213 136.269 90.4692 136.025 89.4995 136.025C88.5299 136.025 87.5777 136.269 86.7414 136.734L70.8004 145.428C70.2792 145.716 69.6277 145.531 69.3454 145.058C69.2747 144.943 69.2288 144.817 69.2103 144.685C69.1917 144.554 69.2009 144.42 69.2372 144.292C69.2736 144.164 69.3364 144.044 69.4221 143.939C69.5077 143.834 69.6145 143.746 69.7363 143.681L85.6555 134.987C88.0444 133.671 90.9112 133.671 93.3002 134.987C95.6891 136.302 97.1225 138.645 97.1225 141.256V175.93C97.1225 178.561 95.6891 180.904 93.3002 182.219C92.1057 182.877 90.7809 183.206 89.4561 183.206H89.4995Z" fill="#68CCEA"/>
<path d="M39.5052 168.613H38.4844C37.1814 168.613 36.1172 167.606 36.1172 166.372V151.019C36.1172 149.785 37.1814 148.778 38.4844 148.778H39.5052C40.8082 148.778 41.8724 149.785 41.8724 151.019V166.372C41.8724 167.606 40.8082 168.613 39.5052 168.613ZM38.4844 150.792C38.3541 150.792 38.2455 150.895 38.2455 151.019V166.372C38.2455 166.496 38.3541 166.598 38.4844 166.598H39.5052C39.6355 166.598 39.7441 166.496 39.7441 166.372V151.019C39.7441 150.895 39.6355 150.792 39.5052 150.792H38.4844Z" fill="#68CCEA"/>
<path d="M31.0783 259.625C19.242 259.625 8.60028 253.397 3.2794 243.367C1.95461 240.901 1.02074 238.27 0.521228 235.577C0.173742 233.83 0 232.083 0 230.233C0 228.383 0.173742 226.595 0.521228 224.889C0.868714 223.08 1.41166 221.272 2.12835 219.525C2.91019 217.634 3.8875 215.825 5.03854 214.181C8.3329 209.394 13.026 205.616 18.5471 203.308V189.989C18.5471 189.434 19.0248 188.982 19.6112 188.982H42.4801C43.0665 188.982 43.5443 189.434 43.5443 189.989V203.308C51.0587 206.432 57.0094 212.29 59.9847 219.525C60.2019 220.038 59.9196 220.634 59.3766 220.84C58.8337 221.046 58.2039 220.778 57.9867 220.265C56.5632 216.822 54.4193 213.688 51.6837 211.049C48.948 208.411 45.6772 206.323 42.0675 204.911C41.8716 204.83 41.7042 204.699 41.5849 204.531C41.4656 204.364 41.3994 204.167 41.3943 203.965V190.996H20.6537V203.965C20.6537 204.376 20.3931 204.746 20.0022 204.89C14.5888 207 9.98301 210.621 6.79769 215.27C5.7118 216.811 4.79965 218.476 4.08296 220.244C3.38799 221.868 2.88847 223.553 2.58442 225.239C2.25866 226.842 2.10663 228.507 2.10663 230.233C2.10663 231.96 2.25866 233.563 2.58442 235.207C3.06222 237.715 3.93093 240.161 5.14713 242.463C10.0988 251.794 20.0022 257.59 31.0348 257.59C42.0675 257.59 51.9709 251.794 56.9225 242.463C57.8781 240.716 58.6165 238.784 59.1812 236.708C59.3332 236.173 59.8979 235.844 60.4843 235.968C61.0489 236.112 61.3964 236.646 61.2661 237.201C60.6797 239.421 59.8762 241.497 58.8554 243.367C53.5563 253.377 42.9145 259.605 31.0783 259.605V259.625Z" fill="#68CCEA"/>
<path d="M61.0697 232.247H60.9829C60.8416 232.238 60.7036 232.203 60.5768 232.143C60.45 232.083 60.337 232.001 60.2441 231.899C60.1513 231.798 60.0805 231.68 60.0359 231.553C59.9912 231.426 59.9735 231.292 59.9839 231.158C60.0056 230.87 59.9839 230.541 59.9839 230.233C59.9839 228.753 59.8536 227.315 59.5929 225.814C59.5061 225.259 59.897 224.745 60.4617 224.643C61.048 224.54 61.591 224.93 61.6996 225.465C61.9819 227.088 62.1339 228.651 62.1339 230.233C62.1339 230.603 62.1339 230.973 62.1122 231.302C62.0688 231.836 61.6127 232.247 61.048 232.247H61.0697ZM45.1288 190.729H17.0259C15.0713 190.729 13.4642 189.228 13.4642 187.358V186.782C13.4642 184.933 15.0496 183.412 17.0259 183.412H45.1288C47.0834 183.412 48.6906 184.912 48.6906 186.782V187.358C48.6906 189.208 47.1052 190.729 45.1288 190.729ZM17.0259 185.446C16.2441 185.446 15.6143 186.042 15.6143 186.782V187.358C15.6143 188.098 16.2441 188.694 17.0259 188.694H45.1288C45.9107 188.694 46.5405 188.098 46.5405 187.358V186.782C46.5405 186.042 45.9107 185.446 45.1288 185.446H17.0259ZM57.9207 243.922H4.2341C3.95186 243.922 3.68118 243.816 3.48161 243.627C3.28204 243.438 3.16992 243.182 3.16992 242.915C3.16992 242.648 3.28204 242.392 3.48161 242.203C3.68118 242.014 3.95186 241.908 4.2341 241.908H57.9207C58.2029 241.908 58.4736 242.014 58.6731 242.203C58.8727 242.392 58.9848 242.648 58.9848 242.915C58.9848 243.182 58.8727 243.438 58.6731 243.627C58.4736 243.816 58.2029 243.922 57.9207 243.922ZM74.2308 175.827C74.0025 175.832 73.7789 175.766 73.5935 175.64C73.408 175.514 73.2707 175.334 73.2022 175.128C73.1337 174.922 73.1376 174.701 73.2134 174.497C73.2893 174.293 73.4328 174.118 73.6227 173.998L95.4709 159.857C95.9704 159.548 96.6219 159.651 96.9477 160.124C97.2734 160.576 97.1648 161.213 96.6653 161.522L74.8172 175.663C74.6393 175.782 74.427 175.846 74.2091 175.848L74.2308 175.827Z" fill="#68CCEA"/>
<path d="M100.579 0C89.4431 0 80.6445 8.93607 80.6445 20.0718C80.6445 31.2075 89.5806 40.0061 100.579 40.0061C111.577 40.0061 120.651 31.07 120.651 19.9343C120.651 8.79859 111.715 0 100.579 0ZM100.579 35.6068C91.9177 35.6068 84.9063 28.5954 84.9063 19.9343C84.9063 11.2732 92.0552 4.3993 100.579 4.3993C109.24 4.3993 116.251 11.4107 116.251 20.0718C116.251 28.7329 109.24 35.6068 100.579 35.6068Z" fill="#F37E60"/>
<path d="M90.9553 42.6183C90.268 41.6559 88.7557 41.5185 87.7934 42.2059L65.5219 59.9405L36.789 47.9799C36.1016 47.705 35.2767 47.8425 34.7268 48.2549L3.93175 70.2514C2.96941 70.9388 2.69445 72.3136 3.38184 73.2759C3.79427 73.9633 4.48167 74.2383 5.16906 74.2383C5.58149 74.2383 5.99392 74.1008 6.40636 73.8258L36.2391 52.5167L65.1095 64.4773C65.7969 64.7523 66.7592 64.6148 67.3091 64.2023L90.5429 45.7803C91.5053 45.0929 91.6427 43.5806 90.9553 42.6183Z" fill="#68CCEA"/>
<path d="M98.7321 30.7343H95.5648V9.91431H102.295C103.709 9.91431 104.935 10.1667 105.971 10.6714C107.027 11.1761 107.847 11.8847 108.432 12.7971C109.035 13.7095 109.337 14.7674 109.337 15.971C109.337 17.1746 109.035 18.2326 108.432 19.145C107.847 20.0574 107.027 20.7659 105.971 21.2707C104.935 21.7754 103.709 22.0277 102.295 22.0277H92.4824V19.4362H102.295C103.502 19.4362 104.454 19.1256 105.151 18.5044C105.849 17.8832 106.198 17.0387 106.198 15.971C106.198 14.9033 105.849 14.0589 105.151 13.4377C104.454 12.8165 103.502 12.5059 102.295 12.5059H98.7321V30.7343ZM104.925 24.6776V27.24H92.4824V24.6776H104.925Z" fill="#F37E60"/>
<path d="M153.04 249.769H248.499M131 249.769H144.766M241.373 151.757C243.278 152.83 245.094 154.051 246.805 155.411L248.499 156.756M188.878 155.192L194.86 146.59C195.761 145.295 197.01 144.281 198.462 143.665C199.915 143.049 201.512 142.855 203.069 143.108L228.446 147.216C230.25 147.505 232.031 147.924 233.775 148.469M182.683 181.766C180.39 184.447 177.99 187.036 175.49 189.525C172.497 192.505 167.657 192.5 164.671 189.513C164.371 189.213 164.196 188.81 164.181 188.386C164.167 187.962 164.314 187.548 164.594 187.228L171.378 179.46C173.401 177.145 175.295 174.719 177.051 172.194L184.151 161.987M211.609 165.239C205.958 161.032 197.976 162.142 193.686 167.732L191.232 170.93M233.084 173.972C237.381 175.881 241.289 178.565 244.614 181.889L248.499 185.772M192.374 227.009H174.905C174.592 227.009 174.291 226.884 174.07 226.662C173.848 226.441 173.723 226.14 173.723 225.827V219.552C173.723 219.239 173.848 218.938 174.07 218.716C174.291 218.495 174.592 218.37 174.905 218.37H205.084C205.398 218.37 205.699 218.495 205.92 218.716C206.142 218.938 206.266 219.239 206.266 219.552V225.827C206.266 226.14 206.142 226.441 205.92 226.662C205.699 226.884 205.398 227.009 205.084 227.009H200.648M179.783 218.004L181.818 214.408C183.9 210.728 185.02 206.318 185.02 201.795V199.461M194.97 199.393V201.795C194.97 206.318 196.09 210.728 198.172 214.409L200.207 218.005M197.859 199.128H182.131C181.817 199.128 181.516 199.004 181.295 198.782C181.073 198.56 180.949 198.26 180.949 197.946V193.305C180.949 192.992 181.073 192.691 181.295 192.469C181.516 192.248 181.817 192.123 182.131 192.123H197.859C198.173 192.123 198.474 192.248 198.695 192.469C198.917 192.691 199.042 192.992 199.042 193.305V197.946C199.042 198.26 198.917 198.56 198.695 198.782C198.474 199.004 198.173 199.128 197.859 199.128Z" stroke="#68CCEA" stroke-width="3" stroke-miterlimit="10" stroke-linecap="round" stroke-linejoin="round"/>
<path d="M185.393 191.756V190.169C185.393 186.855 184.357 183.624 182.431 180.927L180.357 178.024H199.042M186.448 177.825V174.184C186.448 172.387 187.905 170.93 189.702 170.93H190.288C192.085 170.93 193.542 172.387 193.542 174.184V177.795M154.943 225.292V227.455C154.943 231.474 155.938 235.391 157.788 238.661L159.032 240.86M142.035 240.823L143.259 238.661C145.109 235.391 146.104 231.473 146.104 227.455V225.292M158.597 225.087H142.45C142.136 225.087 141.835 224.962 141.614 224.74C141.392 224.519 141.268 224.218 141.268 223.904V220.046C141.268 219.732 141.392 219.432 141.614 219.21C141.835 218.988 142.136 218.864 142.45 218.864H158.597C158.91 218.864 159.211 218.988 159.433 219.21C159.654 219.432 159.779 219.732 159.779 220.046V223.904C159.779 224.218 159.654 224.519 159.433 224.74C159.211 224.962 158.91 225.087 158.597 225.087Z" stroke="#68CCEA" stroke-width="3" stroke-miterlimit="10" stroke-linecap="round" stroke-linejoin="round"/>
<path d="M150.524 218.864C154.308 218.864 157.376 215.796 157.376 212.012C157.376 208.228 154.308 205.16 150.524 205.16C146.74 205.16 143.672 208.228 143.672 212.012C143.672 215.796 146.74 218.864 150.524 218.864Z" stroke="#68CCEA" stroke-width="3" stroke-miterlimit="10" stroke-linecap="round" stroke-linejoin="round"/>
<path d="M136.068 249.376V242.313C136.068 241.999 136.193 241.699 136.415 241.477C136.636 241.255 136.937 241.131 137.25 241.131H163.796C164.109 241.131 164.41 241.255 164.631 241.477C164.853 241.699 164.978 241.999 164.978 242.313V249.529M214.702 156.374C214.702 158.397 214.303 160.4 213.53 162.268C212.756 164.137 211.621 165.834 210.191 167.264L193.832 183.623C191.887 185.568 191.887 188.722 193.832 190.667C195.778 192.613 198.931 192.613 200.877 190.667L207.129 184.415C210.864 180.68 215.82 178.414 221.089 178.034C226.358 177.653 231.314 175.387 235.05 171.652L238.728 167.974M233.393 225.46V227.455C233.393 231.473 234.388 235.391 236.238 238.661L237.539 240.959M220.5 240.798L221.709 238.661C223.559 235.391 224.554 231.473 224.554 227.455V225.46M237.047 225.087H220.9C220.586 225.087 220.286 224.962 220.064 224.74C219.842 224.519 219.718 224.218 219.718 223.905V220.046C219.718 219.732 219.842 219.432 220.064 219.21C220.286 218.988 220.586 218.864 220.9 218.864H237.047C237.361 218.864 237.661 218.988 237.883 219.21C238.105 219.432 238.229 219.732 238.229 220.046V223.905C238.229 224.218 238.105 224.519 237.883 224.74C237.661 224.962 237.361 225.087 237.047 225.087Z" stroke="#68CCEA" stroke-width="3" stroke-miterlimit="10" stroke-linecap="round" stroke-linejoin="round"/>
<path d="M228.975 218.864C232.759 218.864 235.827 215.796 235.827 212.012C235.827 208.228 232.759 205.16 228.975 205.16C225.191 205.16 222.123 208.228 222.123 212.012C222.123 215.796 225.191 218.864 228.975 218.864Z" stroke="#68CCEA" stroke-width="3" stroke-miterlimit="10" stroke-linecap="round" stroke-linejoin="round"/>
<path d="M243.429 249.132V242.313C243.429 241.999 243.304 241.698 243.082 241.477C242.861 241.255 242.56 241.13 242.246 241.13H215.701C215.388 241.13 215.087 241.255 214.866 241.477C214.644 241.698 214.519 241.999 214.519 242.313V249.254M248.499 260.499H131" stroke="#68CCEA" stroke-width="3" stroke-miterlimit="10" stroke-linecap="round" stroke-linejoin="round"/>
<defs>
<clipPath id="clip0_2018_47">
<rect width="83" height="83" fill="white" transform="translate(116 51)"/>
</clipPath>
</defs>
</svg>
