<svg width="80" height="80" viewBox="0 0 80 80" fill="none" xmlns="http://www.w3.org/2000/svg">
<circle cx="40" cy="40" r="40" fill="#F37E60"/>
<g clip-path="url(#clip0_2005_1011)">
<path d="M38.8347 41.4445C34.6658 41.7706 31.0168 38.7118 30.6811 34.61C30.3454 30.5083 33.4501 26.9144 37.6179 26.5798C41.7922 26.2447 45.4512 29.305 45.7873 33.4129C46.1235 37.5208 43.0095 41.118 38.8347 41.4445ZM37.9374 29.0201C35.1259 29.1789 32.9838 31.5604 33.1648 34.3258C33.3459 37.0912 35.7809 39.1825 38.5898 38.9851C41.3713 38.7896 43.4712 36.4222 43.2919 33.6838C43.1127 30.9457 40.7214 28.8628 37.9374 29.0201Z" fill="white"/>
<path d="M29.158 51.2906C26.5487 49.3325 23.7928 47.5642 21.1987 45.5873C20.0325 44.6986 19.5411 43.6233 18.8491 42.381L16.443 38.0044C15.4762 36.2532 14.3295 34.544 13.4736 32.7392C12.3071 30.2798 14.0928 27.6713 16.6943 27.3709C19.5459 27.2054 20.4251 29.7627 21.5911 31.7754L24.3288 36.4559C25.5237 38.5055 25.2413 38.0851 27.175 39.3223C30.8174 41.6527 30.6956 42.5952 34.7767 42.6114L39.4538 42.6104C43.2321 42.6081 46.5846 42.3321 49.0766 45.6308C49.6411 46.3778 49.9953 47.3779 50.4003 48.222L52.6018 52.7383C54.1766 55.9306 55.8621 59.0702 57.4318 62.2654C58.1365 63.6998 59.0302 65.0002 58.3807 66.6662C57.3447 69.3234 53.562 69.7955 51.7755 67.5791C51.2433 66.919 50.9428 66.1 50.5677 65.3489C49.5449 63.3011 48.347 61.3096 47.4129 59.2257C47.3012 64.1575 47.5674 69.0931 47.8298 74.0158L48.4359 85.5388C48.4997 86.6663 48.7987 88.2705 48.3479 89.3462C47.2756 91.9038 44.7927 92.9083 42.1885 91.8344C39.3136 90.4625 39.5919 88.0651 39.3966 85.3377L38.5211 73.2698C38.4358 72.1358 38.3985 70.12 38.0325 69.1215C38.2345 72.2105 37.6718 76.607 37.4742 79.7521L37.1149 85.2412C37.0446 86.388 37.0521 87.6135 36.8237 88.7396C35.8467 93.5571 28.5468 93.2332 28.0342 88.5284C27.8937 87.2383 28.0795 85.8602 28.1449 84.5659L28.6175 76.2186C28.7886 73.0743 29.056 69.9181 29.1459 66.7718C29.2856 61.8805 29.3351 56.2001 29.158 51.2906ZM16.6943 29.8399C16.0498 30.1322 15.7076 30.4493 15.5757 31.1295C15.9847 32.6209 17.9176 35.507 18.7146 36.9539L20.2827 39.8016C22.1604 43.2863 21.8524 43.0868 25.0941 45.3453L29.3192 48.2974C32.1712 50.2871 31.7606 49.9133 31.7515 53.133L31.7497 57.205C31.7501 64.4163 31.4399 70.8489 31.0366 78.0506L30.6455 84.8333C30.5843 85.8466 30.3896 86.9528 30.4621 87.9612C30.5948 89.8087 33.192 90.5524 34.1552 88.8351C34.7266 87.8166 34.6406 84.2133 34.7294 82.9229L35.5945 70.6482C35.6795 69.5324 35.3366 66.7736 36.6898 66.3181C37.3777 66.0864 39.3851 66.1066 39.994 66.4423C40.8219 66.8987 40.6797 68.4388 40.7373 69.2352L41.8047 83.6425C41.9219 85.4484 41.4723 90.6017 44.6919 89.7839C47.1819 88.8104 45.7925 84.2004 45.6568 81.8757L45.3152 75.1747C45.1143 71.4432 44.9828 68.0395 45.0185 64.3126L45.0205 56.1302C45.0212 55.2215 44.7273 52.1614 46.6761 52.9539C47.6581 53.3532 48.3658 55.7061 48.8168 56.5944C49.3561 57.6566 53.4846 65.9176 54.0493 66.3557C54.6831 66.8475 55.7061 66.4916 56.0315 65.8121C56.4544 64.9289 54.5054 61.9867 54.077 61.1613C53.053 59.1879 52.0644 57.1889 51.0708 55.2001L48.3172 49.5599C46.0007 44.8541 45.5572 45.0671 39.827 45.0691L34.2738 45.0738C31.0977 45.0759 31.593 45.0777 28.9631 43.4413L24.9489 40.9045C24.3181 40.5028 23.8257 40.2997 23.3848 39.6679C22.0269 37.7218 20.4277 34.7981 19.2551 32.7069C18.6839 31.6879 18.1608 29.7183 16.6943 29.8399Z" fill="white"/>
<path d="M48.4166 39.4447L48.4141 27.2168C48.4138 24.7895 48.7718 22.561 51.8884 22.237C54.3153 22.2046 56.7473 22.2373 59.1749 22.236L61.3659 22.2354C64.0216 22.2359 66.0532 23.0402 66.0846 26.1739L66.0862 30.8394C66.0864 32.5857 66.405 34.3403 65.0386 35.6945C63.6611 37.0597 61.7537 36.786 59.9704 36.7818C58.9775 36.7812 52.8868 36.6859 52.4459 36.8569C51.7538 37.1254 49.1362 38.9512 48.4166 39.4447ZM56.3254 24.0931L53.4179 24.0911C51.0305 24.0892 50.3193 24.1001 50.3195 26.8825L50.3233 35.9465C52.4961 34.9437 51.15 35.0003 53.86 35.0029L57.4859 35.0038L60.718 35.0079C62.544 35.0095 64.2204 35.155 64.2204 32.8628L64.2182 27.9638C64.2153 24.4946 64.5426 24.0907 60.5101 24.0914L56.3254 24.0931Z" fill="white"/>
<path d="M56.3189 30.6534C56.4093 29.1856 57.3365 29.1309 57.9771 28.2255C58.2434 27.849 58.1877 27.2143 57.7712 26.9587C56.9106 26.4304 56.2031 27.6551 55.3817 27.1307C53.9293 26.2034 55.8598 25.3578 56.8815 25.284C58.6289 25.1751 60.386 26.4109 59.9078 28.2479C59.6437 29.2625 58.646 29.4981 58.0399 30.221C57.8462 30.4518 57.9637 30.7805 57.8011 30.9976C57.6617 31.1834 56.395 31.4442 56.3189 30.6534Z" fill="white"/>
<path d="M57.4005 33.4183C56.92 33.5685 56.4063 33.3098 56.2492 32.8385C56.092 32.3672 56.35 31.8594 56.8275 31.7004C57.3113 31.5391 57.8359 31.7971 57.9951 32.2747C58.1544 32.7523 57.8873 33.2659 57.4005 33.4183Z" fill="white"/>
</g>
<defs>
<clipPath id="clip0_2005_1011">
<rect width="55" height="40" fill="white" transform="translate(13 20)"/>
</clipPath>
</defs>
</svg>
