<svg width="80" height="80" viewBox="0 0 80 80" fill="none" xmlns="http://www.w3.org/2000/svg">
<circle cx="40" cy="40" r="40" fill="white"/>
<path d="M49.7054 54.3759C48.0951 52.9182 46.1694 51.8527 44.0789 51.2629C46.2867 49.9492 47.7701 47.5398 47.7701 44.7895C47.7701 40.6385 44.3929 37.2614 40.2419 37.2614C36.0909 37.2614 32.7138 40.6385 32.7138 44.7895C32.7138 47.5398 34.1971 49.9492 36.405 51.2629C34.3144 51.8527 32.3887 52.9182 30.7783 54.3759C28.1997 56.7078 26.5768 59.8878 26.2085 63.33C26.1967 63.4405 26.2083 63.5522 26.2425 63.658C26.2768 63.7637 26.3328 63.861 26.4071 63.9437C26.4814 64.0263 26.5722 64.0924 26.6737 64.1377C26.7752 64.183 26.885 64.2064 26.9961 64.2065L53.4875 64.2064C53.5987 64.2064 53.7086 64.1831 53.8102 64.1378C53.9117 64.0926 54.0026 64.0265 54.0769 63.9438C54.1512 63.8611 54.2072 63.7637 54.2414 63.6579C54.2756 63.5521 54.2871 63.4403 54.2752 63.3298C53.9069 59.8877 52.2838 56.7078 49.7054 54.3759ZM34.2983 44.7895C34.2983 41.5122 36.9647 38.8458 40.242 38.8458C43.5194 38.8458 46.1857 41.5121 46.1857 44.7895C46.1857 48.0665 43.5202 50.7324 40.2434 50.7332H40.2408C36.9639 50.7325 34.2983 48.0665 34.2983 44.7895ZM27.9087 62.6222C28.9652 56.6893 34.1189 52.3182 40.2407 52.3176H40.2433C46.3648 52.3182 51.5186 56.6893 52.5752 62.6221L27.9087 62.6222ZM31.5211 22.9984L35.5063 26.2015L34.1649 31.1352C34.0342 31.6163 34.2103 32.1165 34.6136 32.4095C34.8164 32.558 35.061 32.6382 35.3123 32.6386C35.5379 32.6386 35.764 32.5734 35.9641 32.4424L40.2419 29.6421L44.5198 32.4424C44.9368 32.7154 45.4669 32.7025 45.8704 32.4094C46.2737 32.1163 46.4497 31.6161 46.3188 31.1352L44.9775 26.2016L48.9627 22.9984C49.3512 22.6861 49.5027 22.178 49.3486 21.7038C49.1945 21.2297 48.7732 20.9076 48.2754 20.8834L43.1685 20.6344L41.3539 15.8545C41.1773 15.3894 40.741 15.089 40.242 15.0889H40.2419C39.743 15.0889 39.3066 15.3894 39.1299 15.8545L37.3152 20.6344L32.2084 20.8834C31.7104 20.9076 31.2892 21.2298 31.1351 21.7039C30.981 22.1781 31.1325 22.6862 31.5211 22.9984ZM37.6504 22.2044C37.8816 22.1932 38.1045 22.1147 38.2918 21.9787C38.479 21.8427 38.6225 21.6549 38.7047 21.4385L40.2419 17.3897L41.7792 21.4387C41.8613 21.6551 42.0048 21.8427 42.192 21.9787C42.3793 22.1147 42.6021 22.1932 42.8332 22.2044L47.1592 22.4152L43.7835 25.1284C43.603 25.2733 43.4688 25.4678 43.3973 25.6879C43.3257 25.9081 43.32 26.1443 43.3809 26.3676L44.517 30.5469L40.8933 28.1747C40.6997 28.048 40.4733 27.9805 40.2419 27.9805C40.0105 27.9805 39.7842 28.048 39.5906 28.1748L35.9671 30.5469L37.1032 26.3676C37.1639 26.1443 37.1582 25.9081 37.0867 25.688C37.0152 25.4679 36.881 25.2735 36.7007 25.1285L33.3249 22.4152L37.6504 22.2044ZM27.5129 35.1187H21.2766C21.0665 35.1187 20.865 35.0352 20.7164 34.8867C20.5678 34.7381 20.4844 34.5366 20.4844 34.3265C20.4844 34.1164 20.5678 33.9149 20.7164 33.7663C20.865 33.6177 21.0665 33.5343 21.2766 33.5343H27.513C27.617 33.5343 27.72 33.5548 27.8161 33.5946C27.9122 33.6344 27.9996 33.6928 28.0731 33.7663C28.1467 33.8399 28.205 33.9272 28.2448 34.0234C28.2847 34.1195 28.3051 34.2225 28.3051 34.3265C28.3051 34.4306 28.2846 34.5336 28.2448 34.6297C28.205 34.7258 28.1466 34.8131 28.0731 34.8867C27.9995 34.9603 27.9122 35.0186 27.816 35.0584C27.7199 35.0982 27.6169 35.1187 27.5129 35.1187ZM23.1313 24.4478C23.1833 24.3577 23.2525 24.2787 23.3351 24.2153C23.4176 24.152 23.5118 24.1055 23.6123 24.0786C23.7128 24.0517 23.8176 24.0448 23.9208 24.0584C24.0239 24.072 24.1234 24.1058 24.2135 24.1578L29.6143 27.276C29.7655 27.3632 29.8836 27.4979 29.9503 27.6591C30.0171 27.8203 30.0287 27.9991 29.9835 28.1676C29.9382 28.3361 29.8386 28.485 29.7001 28.5911C29.5616 28.6972 29.3919 28.7546 29.2174 28.7544C29.0786 28.7544 28.9422 28.7177 28.8221 28.6481L23.4212 25.5299C23.2393 25.4249 23.1065 25.2519 23.0521 25.0489C22.9978 24.846 23.0262 24.6297 23.1313 24.4478ZM29.6143 41.3771L24.2135 44.4953C24.1234 44.5474 24.0239 44.5812 23.9208 44.5948C23.8176 44.6084 23.7128 44.6015 23.6123 44.5746C23.5118 44.5477 23.4176 44.5012 23.3351 44.4378C23.2525 44.3745 23.1833 44.2955 23.1313 44.2054C23.0262 44.0234 22.9978 43.8072 23.0521 43.6042C23.1065 43.4013 23.2393 43.2283 23.4212 43.1232L28.8221 40.005C29.004 39.9016 29.2193 39.8744 29.4212 39.9292C29.6231 39.984 29.7951 40.1164 29.8997 40.2976C30.0043 40.4788 30.033 40.694 29.9796 40.8962C29.9261 41.0985 29.7948 41.2713 29.6143 41.3771ZM57.3524 44.2053C57.3004 44.2954 57.2311 44.3744 57.1486 44.4377C57.0661 44.5011 56.9719 44.5476 56.8714 44.5745C56.7709 44.6014 56.666 44.6083 56.5629 44.5947C56.4597 44.5811 56.3603 44.5473 56.2702 44.4952L50.8694 41.3771C50.6875 41.272 50.5547 41.099 50.5003 40.896C50.446 40.6931 50.4744 40.4768 50.5795 40.2949C50.6315 40.2048 50.7007 40.1258 50.7833 40.0624C50.8658 39.9991 50.96 39.9526 51.0605 39.9257C51.161 39.8988 51.2658 39.8919 51.369 39.9055C51.4721 39.9191 51.5716 39.9529 51.6617 40.0049L57.0624 43.1231C57.2444 43.2282 57.3771 43.4012 57.4315 43.6041C57.4859 43.8071 57.4574 44.0233 57.3524 44.2053ZM59.9994 34.3265C59.9994 34.5366 59.9159 34.7381 59.7673 34.8867C59.6188 35.0352 59.4173 35.1187 59.2072 35.1187H52.9709C52.7608 35.1187 52.5593 35.0352 52.4107 34.8867C52.2621 34.7381 52.1787 34.5366 52.1787 34.3265C52.1787 34.1164 52.2621 33.9149 52.4107 33.7663C52.5593 33.6177 52.7608 33.5343 52.9709 33.5343H59.2073C59.4174 33.5343 59.6188 33.6178 59.7674 33.7663C59.9159 33.9149 59.9994 34.1164 59.9994 34.3265ZM50.5795 28.3581C50.4744 28.1761 50.446 27.9599 50.5003 27.7569C50.5547 27.554 50.6875 27.381 50.8694 27.2759L56.2702 24.1577C56.4522 24.0527 56.6684 24.0242 56.8713 24.0786C57.0743 24.133 57.2473 24.2657 57.3524 24.4477C57.4574 24.6296 57.4859 24.8459 57.4315 25.0488C57.3771 25.2518 57.2444 25.4248 57.0624 25.5298L51.6617 28.648C51.5716 28.7001 51.4721 28.734 51.369 28.7476C51.2658 28.7612 51.161 28.7544 51.0604 28.7275C50.9599 28.7005 50.8657 28.654 50.7832 28.5907C50.7007 28.5273 50.6314 28.4482 50.5795 28.3581Z" fill="#F88E73"/>
</svg>
