<svg width="80" height="80" viewBox="0 0 80 80" fill="none" xmlns="http://www.w3.org/2000/svg">
<circle cx="40" cy="40" r="40" fill="#F37E60"/>
<path d="M38.1666 16.9482C38.3598 16.2579 38.6026 15.5796 38.8135 14.8954C39.0454 14.1431 39.0883 13.2691 39.8404 13.0049C40.7958 12.9161 40.8995 14.0217 41.1559 14.8307L41.8381 16.9482L44.4697 16.9446C44.8276 16.9453 45.3165 16.9121 45.5823 17.2403C46.3863 18.2334 45.1784 19.0282 44.6362 19.5035C44.0566 20.0116 43.4727 20.5186 42.9213 21.0672C43.1842 22.0665 43.8008 23.7001 43.9362 24.5758C44.053 25.3317 43.2787 25.9575 42.6855 25.6714C42.2135 25.4439 40.5119 24.1213 40.116 23.7634C39.373 23.4251 37.7741 26.1188 36.6752 25.7267C35.572 25.3333 36.1995 23.8607 36.4435 23.0361L37.0139 21.0672C36.2882 20.352 34.1991 19.0905 34.1498 18.0393C34.0747 16.4358 37.1048 16.9699 38.1666 16.9482ZM39.9673 17.5059C39.1285 19.3817 39.4347 18.7832 37.7757 19.05C38.136 19.4753 38.595 19.8488 38.8968 20.3268C38.9035 20.8408 38.8113 21.2916 38.7097 21.7871C39.0855 21.537 39.5199 21.0924 39.9673 21.0672C40.396 21.2261 40.7357 21.4716 41.0915 21.7871C40.8249 19.9499 40.9344 20.1621 42.1577 19.05C41.6292 18.9933 40.7632 19.0639 40.3962 18.5747C40.1428 18.2371 40.1437 17.7604 39.9673 17.5059Z" fill="white"/>
<path d="M22.4183 22.0402C22.4161 21.1656 22.0461 19.5876 23.359 19.4185C25.0284 19.0925 24.7129 21.1207 24.7062 22.0402C25.3628 21.8628 26.2593 21.3274 26.9448 21.4914C27.4938 21.6227 27.9163 22.2127 27.7193 22.7181C27.4736 23.3487 26.1163 23.7846 25.4903 24.0568C25.8224 24.5578 26.5842 25.166 26.6328 25.7517C26.6804 26.3277 26.1761 26.8434 25.5277 26.83C24.8203 26.8153 24.0365 25.8214 23.5832 25.3663L23.5193 25.3187C23.0866 25.4506 22.6402 26.5732 21.761 26.7671C21.1668 26.8981 20.516 26.6123 20.4069 26.037C20.2805 25.3705 21.1497 24.5658 21.5661 24.0568C20.9092 23.7802 19.7741 23.5355 19.3886 22.9372C19.081 22.4597 19.346 21.8176 19.8722 21.5699C20.5371 21.2571 21.7284 21.8581 22.4183 22.0402Z" fill="white"/>
<path d="M54.9259 21.9365C54.9198 21.0246 54.6291 19.7282 55.7304 19.388C57.234 19.2868 56.9948 20.8986 56.9922 21.9365C57.8064 21.6275 59.9343 20.8262 59.6587 22.6385C59.5484 23.3632 58.2008 23.6515 57.5973 24.0791C57.897 24.3923 58.4878 25.0499 58.6725 25.4225C58.9932 26.0694 58.4474 26.8696 57.7401 26.8287C57.1074 26.792 56.5571 26.0102 56.1679 25.579L55.9465 25.4035C55.5075 25.8128 54.9514 26.6616 54.3319 26.7429C53.7711 26.8164 53.2881 26.386 53.2447 25.8305C53.194 25.1801 53.9127 24.5465 54.3064 24.0791C53.5218 23.5224 51.8939 23.3447 52.3005 22.063C52.6571 20.9392 54.2039 21.7115 54.9259 21.9365Z" fill="white"/>
<path d="M34.3276 31.0809C33.2572 31.1849 32.5761 29.4024 32.0636 28.5823C31.6136 27.8623 28.3936 23.7218 30.7363 23.6641C31.2156 23.5755 31.433 23.7144 31.7068 24.1064C32.5011 25.244 33.2276 26.6466 34.0051 27.8465C34.5781 28.7309 36.2122 30.5536 34.3276 31.0809Z" fill="white"/>
<path d="M46.3096 31.075C45.2629 31.1813 44.4301 30.4419 44.9503 29.57C45.2368 29.0897 45.6099 28.6344 45.9466 28.179L47.4471 26.1285C48.0042 25.3701 48.6947 23.9216 49.6981 23.643C50.4862 23.5854 51.4556 24.0731 51.0973 24.8866C50.6999 25.7886 49.4105 27.3154 48.7942 28.167C48.1969 28.9922 47.3439 30.6931 46.3096 31.075Z" fill="white"/>
<path d="M40.2323 30.0199C38.0161 30.087 38.3469 27.8138 38.5597 26.7332C38.6714 26.1669 39.0382 25.9048 39.8061 25.7791C41.9654 25.5613 41.6472 28.11 41.4704 29.048C41.3714 29.5738 40.9474 29.8939 40.2323 30.0199Z" fill="white"/>
<path d="M29.2223 35.3401C28.362 35.232 23.7077 32.2794 23.5484 31.4214C23.4187 30.7218 23.6581 30.1975 24.1629 30.0398C25.057 29.8616 26.2186 30.9944 27.0159 31.4953C27.9316 32.0705 31.3219 33.501 29.2223 35.3401Z" fill="white"/>
<path d="M50.3343 35.3316C49.2304 35.4719 48.512 33.8564 49.5311 33.1479C50.2433 32.6529 51.0758 32.2899 51.8273 31.8685L53.8022 30.7562C54.2626 30.4968 54.7294 30.1913 55.2228 30.0256C56.0758 29.9482 56.7979 30.8588 56.3517 31.8117C56.1116 32.3245 54.8729 32.8598 54.4285 33.1071L51.7804 34.5515C51.311 34.8037 50.8296 35.1641 50.3343 35.3316Z" fill="white"/>
<path d="M40.7466 50.2034C35.776 50.6144 31.4112 46.923 30.9916 41.953C30.5718 36.9831 34.2556 32.6119 39.2248 32.1835C44.2063 31.754 48.5908 35.4489 49.0115 40.4312C49.4323 45.4134 45.7297 49.7914 40.7466 50.2034ZM39.3858 34.2194C35.5313 34.5651 32.6845 37.9663 33.023 41.8214C33.3615 45.6765 36.7575 48.5296 40.6131 48.1984C44.4789 47.8661 47.3412 44.4593 47.0019 40.5941C46.6625 36.7289 43.2505 33.8729 39.3858 34.2194Z" fill="white"/>
<path d="M18.6887 57.088L18.6897 39.1624C18.7061 37.515 19.3871 36.4049 21.1189 36.4396L26.0243 36.4395C26.6258 36.4389 27.5392 36.3553 28.0952 36.4488C29.1072 36.6188 29.2971 38.2241 28.2359 38.4629C27.2944 38.6746 26.2085 38.579 25.2464 38.5792L20.7485 38.5773C20.7889 39.1194 20.7514 39.6757 20.7501 40.2201L20.7485 53.6931H59.4173V38.5773L53.9329 38.5728C53.3463 38.5705 52.5748 38.6592 52.0086 38.5844C51.1697 38.4735 50.6822 37.4297 51.3328 36.765C51.7419 36.347 52.6441 36.4403 53.1855 36.4393L57.4683 36.439C58.8739 36.4396 60.7816 36.1323 61.3364 37.8988C61.6068 38.7592 61.4952 40.6297 61.4927 41.6178V57.088C61.9287 57.0914 62.3672 57.0948 62.8029 57.0804C65.4647 56.9927 64.961 57.7653 64.9629 60.0247C64.9642 61.6052 65.2596 63.5933 64.1618 64.8946C62.7768 66.5364 60.5384 66.1533 58.6445 66.1524L20.4454 66.1535C18.8974 66.1562 17.5157 66.3388 16.2596 65.1953C14.7277 63.8005 15.0327 61.7643 15.0353 59.879C15.0365 58.9952 14.7332 57.4042 15.8836 57.1431C16.5181 56.9992 17.9794 57.0859 18.6887 57.088ZM23.1285 55.7549H20.7485C20.7424 56.1993 20.7457 56.6436 20.7485 57.088H57.1984H59.4173V55.7549H23.1285ZM36.6839 59.1583L19.3344 59.1592C18.6064 59.1602 17.8638 59.1976 17.1377 59.1583C17.136 60.0257 17.0442 62.0689 17.2168 62.8196C17.6107 64.5324 19.8565 64.0589 21.1785 64.0579L43.4182 64.0557L59.5976 64.0568C62.2007 64.0574 62.9144 64.3587 62.9076 61.4392L62.9022 59.1583H36.6839Z" fill="white"/>
<path d="M37.6666 41.692C35.9469 42.1186 35.925 38.0216 37.0461 37.4786C38.7803 37.2406 38.702 41.0014 37.6666 41.692Z" fill="white"/>
<path d="M42.8933 41.7005C41.4043 42.0519 41.1334 38.2006 42.4013 37.478C44.1028 37.2437 44.0398 41.1182 42.8933 41.7005Z" fill="white"/>
<path d="M36.1906 44.8076C35.5743 44.3688 34.5827 43.3987 35.752 42.8932C36.9753 42.3642 39.0967 45.8547 42.4855 43.4958C42.8221 43.2614 43.0782 42.9473 43.4783 42.7886C44.3938 42.7502 45.2051 43.4103 44.5398 44.1926C42.6288 46.4399 38.6383 46.4755 36.1906 44.8076Z" fill="white"/>
<path d="M36.2955 59.8091H43.696C43.7589 60.1734 43.6969 61.4694 43.696 61.9367H36.2955C36.2549 61.8865 36.2951 60.0479 36.2955 59.8091Z" fill="white"/>
</svg>
