<svg width="275" height="164" viewBox="0 0 275 164" fill="none" xmlns="http://www.w3.org/2000/svg">
<path d="M232.457 16.2344H49.0564C43.3854 16.2344 38.7969 21.1759 38.7969 27.2704V151.985C38.7969 158.08 43.3854 163.045 49.0564 163.045H232.457C238.128 163.045 242.717 158.08 242.717 151.985V27.2704C242.717 21.1759 238.128 16.2344 232.457 16.2344ZM239.87 151.091C239.87 156.479 235.399 160.809 229.893 160.809H51.5978C46.0915 160.809 41.6206 156.456 41.6206 151.091V41.3891C41.6206 36.0005 46.0915 31.6472 51.5978 31.6472H229.893C235.422 31.6472 239.87 36.0005 239.87 41.3891V151.091Z" fill="#F37E60"/>
<path d="M239.866 41.3903V151.092C239.866 156.481 235.395 160.81 229.889 160.81H51.5943C46.0881 160.81 41.6172 156.457 41.6172 151.092V41.3903C41.6172 36.0017 46.0881 31.6484 51.5943 31.6484H229.889C235.419 31.6484 239.866 36.0252 239.866 41.3903Z" fill="white" fill-opacity="0.67"/>
<path d="M76.2558 24.1655C76.2558 23.1537 75.4793 22.3301 74.5381 22.3301C73.5968 22.3301 72.8203 23.1537 72.8203 24.1655C72.8203 25.1773 73.5968 26.0009 74.5381 26.0009C75.5028 26.0009 76.2558 25.1773 76.2558 24.1655Z" fill="white"/>
<path d="M67.5918 24.1655C67.5918 23.1537 66.8153 22.3301 65.874 22.3301C64.9328 22.3301 64.1562 23.1537 64.1562 24.1655C64.1562 25.1773 64.9328 26.0009 65.874 26.0009C66.8153 26.0009 67.5918 25.1773 67.5918 24.1655Z" fill="white"/>
<path d="M58.9121 24.1655C58.9121 23.1537 58.1356 22.3301 57.1943 22.3301C56.2531 22.3301 55.4766 23.1537 55.4766 24.1655C55.4766 25.1773 56.2531 26.0009 57.1943 26.0009C58.1591 26.0009 58.9121 25.1773 58.9121 24.1655Z" fill="white"/>
<path d="M186.312 26.0009H225.632C226.644 26.0009 227.468 25.1773 227.468 24.1655C227.468 23.1537 226.644 22.3301 225.632 22.3301H186.312C185.3 22.3301 184.477 23.1537 184.477 24.1655C184.477 25.1773 185.3 26.0009 186.312 26.0009Z" fill="white"/>
<path d="M218.311 41.2246H62.888C57.8289 41.2246 53.7109 45.3425 53.7109 50.4017V103.158C53.7109 108.217 57.8289 112.335 62.888 112.335H218.311C223.37 112.335 227.488 108.217 227.488 103.158V50.4017C227.488 45.3425 223.37 41.2246 218.311 41.2246Z" fill="white" fill-opacity="0.29"/>
<path d="M97.4552 122.125H62.888C57.8289 122.125 53.7109 126.243 53.7109 131.302V146.009C53.7109 151.068 57.8289 155.186 62.888 155.186H97.4316C102.491 155.186 106.609 151.068 106.609 146.009V131.302C106.632 126.243 102.514 122.125 97.4552 122.125Z" fill="white" fill-opacity="0.29"/>
<path d="M157.885 121.23H123.318C118.259 121.23 114.141 125.348 114.141 130.408V145.114C114.141 150.174 118.259 154.292 123.318 154.292H157.861C162.92 154.292 167.038 150.174 167.038 145.114V130.408C167.062 125.348 162.944 121.23 157.885 121.23Z" fill="white" fill-opacity="0.29"/>
<path d="M218.315 121.23H183.747C178.688 121.23 174.57 125.348 174.57 130.408V145.114C174.57 150.174 178.688 154.292 183.747 154.292H218.291C223.35 154.292 227.468 150.174 227.468 145.114V130.408C227.492 125.348 223.374 121.23 218.315 121.23Z" fill="white" fill-opacity="0.29"/>
<path d="M136.286 85.8654C134.921 86.5243 133.321 85.536 133.298 84.03L133.227 76.4765L133.157 68.9231C133.133 67.3935 134.71 66.3817 136.098 67.017L144.64 70.9467L152.17 74.4058C153.77 75.1353 153.793 77.3942 152.217 78.1472L144.757 81.771L136.286 85.8654Z" fill="#F37E60"/>
<path d="M140.59 94.5466C130.307 94.5466 121.953 86.1931 121.953 75.91C121.953 65.627 130.307 57.2734 140.59 57.2734C150.873 57.2734 159.226 65.627 159.226 75.91C159.226 86.1931 150.873 94.5466 140.59 94.5466ZM140.59 58.5676C131.036 58.5676 123.271 66.3329 123.271 75.8865C123.271 85.4401 131.036 93.2053 140.59 93.2053C150.143 93.2053 157.909 85.4401 157.909 75.8865C157.909 66.3329 150.143 58.5676 140.59 58.5676Z" fill="#F37E60"/>
<path d="M77.757 144.242C76.9805 144.619 76.1098 144.054 76.0863 143.207L76.0392 138.995L75.9922 134.783C75.9922 133.936 76.8628 133.371 77.6394 133.724L82.4162 135.912L86.6282 137.842C87.5224 138.242 87.5224 139.513 86.6517 139.936L82.4868 141.96L77.757 144.242Z" fill="#F37E60"/>
<path d="M80.1586 149.091C74.417 149.091 69.7344 144.408 69.7344 138.666C69.7344 132.925 74.417 128.242 80.1586 128.242C85.9002 128.242 90.5829 132.925 90.5829 138.666C90.5829 144.408 85.9237 149.091 80.1586 149.091ZM80.1586 128.995C74.8171 128.995 70.4874 133.348 70.4874 138.666C70.4874 144.008 74.8406 148.338 80.1586 148.338C85.5002 148.338 89.8299 143.984 89.8299 138.666C89.8534 133.325 85.5002 128.995 80.1586 128.995Z" fill="#F37E60"/>
<path d="M138.195 143.324C137.418 143.701 136.547 143.136 136.524 142.289L136.477 138.077L136.43 133.865C136.43 133.018 137.3 132.453 138.077 132.806L142.854 134.994L147.066 136.924C147.96 137.324 147.96 138.595 147.089 139.018L142.924 141.042L138.195 143.324Z" fill="#F37E60"/>
<path d="M140.596 148.173C134.855 148.173 130.172 143.49 130.172 137.748C130.172 132.007 134.855 127.324 140.596 127.324C146.338 127.324 151.02 132.007 151.02 137.748C151.02 143.514 146.361 148.173 140.596 148.173ZM140.596 128.077C135.255 128.077 130.925 132.43 130.925 137.748C130.925 143.09 135.278 147.42 140.596 147.42C145.938 147.42 150.267 143.066 150.267 137.748C150.291 132.43 145.938 128.077 140.596 128.077Z" fill="#F37E60"/>
<path d="M198.616 143.324C197.84 143.701 196.969 143.136 196.946 142.289L196.899 138.077L196.852 133.865C196.852 133.018 197.722 132.453 198.499 132.806L203.276 134.994L207.488 136.924C208.382 137.324 208.382 138.595 207.511 139.018L203.346 141.042L198.616 143.324Z" fill="#F37E60"/>
<path d="M201.018 148.173C195.276 148.173 190.594 143.49 190.594 137.748C190.594 132.007 195.276 127.324 201.018 127.324C206.76 127.324 211.442 132.007 211.442 137.748C211.442 143.514 206.783 148.173 201.018 148.173ZM201.018 128.077C195.676 128.077 191.347 132.43 191.347 137.748C191.347 143.09 195.7 147.42 201.018 147.42C206.36 147.42 210.689 143.066 210.689 137.748C210.713 132.43 206.36 128.077 201.018 128.077Z" fill="#F37E60"/>
<path d="M37.663 90.5683C37.663 90.5683 35.6864 101.651 32.8156 102.428C31.5214 102.781 29.8507 102.475 28.2506 101.934C25.5445 101.016 23.0737 99.3925 22.9796 98.9454L20.25 90.6154C21.8266 91.2978 30.8154 96.4276 31.5449 96.8982C32.745 95.1098 35.3099 90.4742 35.404 90.1213C35.404 90.1213 34.8392 87.627 35.3334 86.921C35.7805 86.3092 35.9217 88.3329 36.1099 88.0976C36.3217 87.8152 37.4983 84.9209 38.2983 85.768C40.0396 87.6976 37.663 90.5683 37.663 90.5683Z" fill="#FFC0B8"/>
<path d="M30.0155 95.7704C29.8272 97.6529 28.8625 100.1 28.533 101.606C28.486 101.841 28.4389 102.053 28.4154 102.218C25.7093 101.3 22.462 100.994 22.3679 100.547L21.7561 97.747L20.2266 90.6406C21.8267 91.323 26.8858 93.9114 30.0155 95.7704Z" fill="#5772AE"/>
<path d="M28.5426 101.605C28.4955 101.84 28.4484 102.052 28.4249 102.217C25.7188 101.299 22.4716 100.993 22.3774 100.546L21.7656 97.7456L24.4952 97.3691C24.4952 97.3691 25.3659 99.3222 25.4835 100.216C25.5777 100.875 27.4837 101.346 28.5426 101.605Z" fill="#5F79B3"/>
<path d="M19.5226 137.961C18.9578 140.079 18.6048 141.961 18.4166 143.726C17.946 148.221 18.0636 155.162 18.8872 159.563L21.1933 159.327C21.1933 159.327 24.4641 147.468 25.9936 141.42C26.3936 139.891 26.6995 138.502 26.8642 137.467C27.8055 131.561 24.3464 114.807 24.1346 113.724V113.677V113.654L14.8399 112.359C9.89836 124.101 15.7576 127.066 19.5226 137.961Z" fill="#FFC0B8"/>
<path d="M26.888 137.467C26.8409 137.843 26.7233 138.808 26.5586 139.961C26.3703 141.561 26.1115 143.538 25.8762 144.809C25.782 145.373 25.335 145.797 24.7702 145.867C24.4878 145.891 24.2055 145.938 23.9231 145.962C22.6995 146.079 21.4994 146.103 20.3228 145.938C19.664 145.844 19.0051 145.679 18.3698 145.444C17.805 145.232 17.4756 144.667 17.5462 144.079C17.8521 141.632 18.1109 139.185 18.5815 137.49C17.1932 133.467 16.4402 130.996 15.1225 128.313C14.4166 126.878 13.8283 125.513 13.4282 124.101C12.5576 120.948 12.6517 117.489 14.8166 112.383L24.1113 113.677V113.701V113.748C24.3467 114.807 27.8057 131.561 26.888 137.467Z" fill="#F2C45B"/>
<path d="M24.4421 115.278C24.4421 115.278 22.3243 116.172 21.9243 116.736C21.5243 117.301 22.2773 119.278 21.4301 121.443C20.583 123.608 20.9831 125.584 20.4183 128.62C20.0183 130.667 18.5123 133.302 18.9594 134.926C19.4065 136.55 20.9831 136.785 20.9831 136.785C20.9831 136.785 19.2182 137.632 19.2182 138.667C19.2182 139.703 19.5006 140.785 18.8888 142.526C18.277 144.268 19.3124 145.28 20.2771 145.727C20.3948 145.774 20.4183 145.844 20.3477 145.938C19.6889 145.844 19.03 145.68 18.3946 145.444C17.8299 145.233 17.5005 144.668 17.5711 144.08C17.877 141.632 18.1358 139.185 18.6064 137.491C17.2181 133.467 16.4651 130.996 15.1474 128.314C14.4414 126.878 13.8532 125.514 13.4531 124.102C14.3944 119.843 15.2415 115.96 15.3356 115.301C15.5709 113.772 23.3832 114.336 23.3832 114.336L24.4421 115.278Z" fill="#FACE69"/>
<path d="M9.78639 162.268L4.11541 155.703C4.11541 155.703 8.2804 149.209 11.6453 144.879C12.4454 143.844 13.1984 142.949 13.8337 142.267C18.4458 137.49 20.846 113.441 20.846 113.441H13.2455C7.26857 118.924 8.77455 126.501 8.60984 133.96C8.53924 136.549 7.71566 139.043 6.32733 141.232C6.04495 141.679 5.78611 142.126 5.52727 142.573C3.78597 145.75 2.75061 149.491 1.80936 155.609L0.632812 159.586L9.78639 162.268Z" fill="#FFC0B8"/>
<path d="M21.4357 113.348C21.4357 113.348 19.8826 131.42 16.753 138.149C16.7059 138.22 16.6589 138.361 16.5647 138.502C15.8588 139.797 13.6469 143.444 12.5645 145.067C12.2586 145.515 11.7174 145.75 11.1761 145.656C10.6349 145.538 9.99959 145.326 9.38778 145.044C8.58772 144.691 7.78767 144.267 7.08174 143.82C7.08174 143.82 7.08174 143.82 7.05821 143.82C6.68171 143.585 6.30521 143.35 6.02284 143.138C5.48162 142.761 5.29338 142.032 5.57575 141.444C6.46993 139.608 7.97592 136.714 8.04651 135.937C8.75244 128.76 6.82289 118.736 12.588 113.418H13.5528L19.3649 113.348H21.4357Z" fill="#F2C45B"/>
<path d="M19.3885 113.371L20.9886 115.748C21.0356 116.265 16 117.395 13.4351 116.924C10.9644 116.477 9.59956 118.501 9.99959 122.431C10.3996 126.337 10.1878 126.407 9.59956 129.513C9.01128 132.619 8.70538 135.137 10.729 136.22C10.6114 136.173 8.65832 135.467 8.39948 137.302C8.14063 139.185 6.37581 141.044 6.56405 142.361C6.72877 143.491 6.98761 143.797 7.05821 143.844C6.68171 143.608 6.30521 143.373 6.02284 143.161C5.48162 142.785 5.29338 142.055 5.57575 141.467C6.46993 139.632 7.97592 136.737 8.04651 135.961C8.75244 128.784 6.82289 118.76 12.588 113.442H13.5528L19.3885 113.371Z" fill="#FACE69"/>
<path d="M25.3611 114.03C25.2905 114.712 24.7728 115.277 24.0669 115.395C22.3256 115.701 20.5137 115.842 18.6547 115.842C16.6075 115.842 14.4897 115.677 12.3484 115.348C12.1131 115.324 11.9013 115.23 11.7131 115.089C11.3601 114.854 11.1248 114.477 11.0777 114.053C10.6306 111.065 9.45408 102.735 9.38349 97.9347C9.35996 97.0405 9.38349 96.264 9.47761 95.6522C9.73645 93.6521 11.313 90.7813 15.0545 89.793L18.3959 89.8165C24.1139 91.0401 25.0787 98.8759 24.9846 101.935C24.961 103.347 24.9846 104.759 25.0552 106.124C25.1493 108.406 25.3375 110.547 25.3846 112.171C25.4081 112.9 25.4081 113.536 25.3611 114.03Z" fill="#5772AE"/>
<path d="M25.3873 112.171C24.4696 111.606 23.1754 111.041 21.6694 110.971C19.1516 110.853 14.5631 108.547 14.2336 106.806C13.8807 105.065 13.0571 106.265 11.9982 104.547C10.9393 102.829 11.0334 98.6406 11.0334 98.6406L18.1398 99.9348C18.1398 99.9348 18.9869 101.606 19.5516 102.594C19.9752 103.347 23.4578 105.276 25.0579 106.147C25.1756 108.43 25.3638 110.547 25.3873 112.171Z" fill="#5F79B3"/>
<path d="M21.4757 158.668C24.1582 159.703 27.0761 159.868 28.4409 161.28C29.0762 161.962 28.582 163.068 27.6408 163.045L19.0049 162.739C18.4166 162.715 17.9695 162.221 17.9931 161.633C18.0401 160.645 18.2754 159.633 18.699 158.668C19.5932 159.021 20.5109 159.044 21.4757 158.668Z" fill="#52699A"/>
<path d="M4.13445 155.705C6.44049 157.752 9.66425 159.305 10.3466 161.47C10.582 162.223 9.8525 162.953 9.0995 162.694L0.887166 159.941C0.32242 159.753 -0.00701436 159.188 0.134172 158.623C0.393013 157.423 1.12248 155.964 1.87547 155.188C2.51081 155.823 3.28733 155.964 4.13445 155.705Z" fill="#52699A"/>
<path d="M17.3617 86.8756C16.2793 87.205 15.8322 87.7462 14.4439 87.1344C12.3261 86.1696 10.5377 82.4988 13.3379 80.8516C13.5262 80.2634 13.7379 80.0516 14.4674 79.8869C15.2204 79.7221 15.9734 80.0516 16.9852 80.028C17.9971 80.0045 19.456 78.9456 20.3502 80.4516C21.2443 81.9341 19.0324 83.0871 17.9265 83.8401C16.8205 84.546 17.1735 85.7931 17.3617 86.8756Z" fill="#5D5D5D"/>
<path d="M15.0078 89.8179C16.2314 91.0415 17.3844 91.2768 18.3963 89.8414L18.1139 87.4883L17.9963 86.5H15.2902L15.2431 87.1118L15.0078 89.8179Z" fill="#FFC0B8"/>
<path d="M15.1953 87.536C15.8542 88.3361 17.6896 88.5714 18.1838 88.2184L17.972 86.4772L15.2659 85.3477L15.1953 87.536Z" fill="#EDA89F"/>
<path d="M19.3651 81.77C19.8592 83.1584 20.3534 86.2645 19.1533 87.4175C18.4003 88.147 15.6707 87.8646 15.1295 85.8644C14.4706 85.3938 14 84.2173 14.5883 83.6996C15.0119 83.3231 15.5766 84.3114 16.3296 84.1467C16.612 84.0761 15.7413 82.1701 16.6355 81.8406C17.5297 81.5112 18.4709 82.2407 19.3651 81.77Z" fill="#FFC0B8"/>
<path d="M16.5598 138.527C15.8538 139.822 13.6419 143.469 12.5595 145.093C12.2536 145.54 11.7124 145.775 11.1712 145.681C10.63 145.563 9.99462 145.351 9.38281 145.069C9.42987 144.975 10.5594 145.257 11.383 145.022C13.4772 144.41 12.3948 141.939 12.3948 141.939C13.8772 142.339 16.3951 138.739 16.5598 138.527Z" fill="#FACE69"/>
<path d="M26.5574 139.961C26.3691 141.561 26.1103 143.538 25.875 144.808C25.7808 145.373 25.3337 145.797 24.769 145.867C24.4866 145.891 24.2042 145.938 23.9219 145.961C24.016 144.95 25.4985 145.326 25.6632 142.643C25.7338 141.538 24.8161 140.949 24.8161 140.949C25.4043 140.949 26.1338 140.526 26.5574 139.961Z" fill="#FACE69"/>
<path d="M96.3272 51.1314L28.2519 57.8848C26.1576 58.0966 24.6281 60.0967 24.8399 62.3557L29.4285 108.641C29.6638 110.9 31.5463 112.571 33.6405 112.383L101.739 105.629C103.834 105.418 105.363 103.417 105.151 101.135L100.563 54.8493C100.328 52.5903 98.445 50.9196 96.3272 51.1314ZM104.045 100.923C104.234 102.923 102.751 104.688 100.704 104.9L34.5112 111.465C32.464 111.677 30.6521 110.218 30.4638 108.218L26.44 67.509C26.2518 65.5089 27.7342 63.7205 29.7814 63.5323L95.9743 56.9671C98.0215 56.7553 99.8334 58.2142 100.045 60.2144L104.045 100.923Z" fill="#7FCBB4"/>
<path d="M100.027 60.213L104.051 100.922C104.239 102.922 102.757 104.687 100.71 104.898L34.5169 111.464C32.4697 111.675 30.6579 110.216 30.4696 108.216L26.4458 67.5076C26.2576 65.5075 27.74 63.7192 29.7872 63.5309L95.9801 56.9657C98.0037 56.754 99.8156 58.2129 100.027 60.213Z" fill="white"/>
<path d="M38.6512 59.8162C38.6041 59.4397 38.2982 59.1573 37.9453 59.2044C37.5923 59.2279 37.3335 59.5808 37.3805 59.9573C37.4276 60.3338 37.7335 60.6162 38.0865 60.5691C38.4159 60.5456 38.6747 60.1926 38.6512 59.8162Z" fill="white"/>
<path d="M35.4325 60.1443C35.3854 59.7678 35.0795 59.4854 34.7265 59.5325C34.3736 59.556 34.1147 59.909 34.1618 60.2855C34.2088 60.662 34.5147 60.9443 34.8677 60.8973C35.2207 60.8502 35.456 60.5208 35.4325 60.1443Z" fill="white"/>
<path d="M32.2059 60.449C32.1588 60.0725 31.8529 59.7901 31.5 59.8372C31.147 59.8607 30.8882 60.2137 30.9352 60.5902C30.9823 60.9667 31.2882 61.249 31.6411 61.202C31.9941 61.1784 32.253 60.8255 32.2059 60.449Z" fill="white"/>
<path d="M79.5784 56.4499L94.1677 55.0145C94.5442 54.9674 94.8266 54.638 94.7795 54.2615C94.7324 53.885 94.403 53.6026 94.0265 53.6497L79.4373 55.0851C79.0608 55.1321 78.7784 55.4616 78.8254 55.838C78.849 56.2145 79.2019 56.4969 79.5784 56.4499Z" fill="white"/>
<path d="M62.5659 92.5005C61.5305 93.1358 60.1657 92.4769 60.048 91.2533L59.3892 85.2294L58.7303 79.2054C58.5891 77.9818 59.7657 77.0641 60.9187 77.4641L68.0251 79.9349L74.3314 82.0997C75.6491 82.5468 75.8609 84.3587 74.6608 85.0882L69.0134 88.5708L62.5659 92.5005Z" fill="#7FCBB4"/>
<path d="M66.7028 99.0665C58.514 99.8901 51.1723 93.8662 50.3722 85.6774C49.5486 77.4886 55.5726 70.1469 63.7614 69.3468C71.9502 68.5232 79.2919 74.5472 80.0919 82.736C80.9155 90.9248 74.9151 98.2665 66.7028 99.0665ZM63.8555 70.4057C56.2314 71.1587 50.6546 77.9592 51.4076 85.5832C52.1606 93.2073 58.9611 98.7842 66.5851 98.0312C74.2092 97.2782 79.786 90.4777 79.033 82.8537C78.28 75.2296 71.4796 69.6527 63.8555 70.4057Z" fill="#7FCBB4"/>
<path d="M10.7969 97.4879C10.7969 97.4879 12.2558 101.935 14.0677 104.782C14.4912 105.465 14.9383 106.03 15.409 106.453C18.5386 109.3 27.4804 111.559 27.4804 111.559C29.6217 113.983 33.3161 114.501 34.3985 113.748C36.281 112.407 31.2218 112.383 31.2454 111.136C31.2454 111.136 33.6926 110.83 33.4573 109.818C33.222 108.783 28.8452 109.559 28.8452 109.559C25.1508 106.947 22.28 105.277 19.3151 102.924C19.1975 102.429 19.0798 101.959 18.9386 101.465C17.9738 97.9585 16.5855 94.5935 14.0206 91.6992C11.6205 93.0876 10.8675 95.1348 10.7969 97.4879Z" fill="#FFC0B8"/>
<path d="M19.5741 101.369C19.2682 101.84 18.2563 102.522 17.1033 103.157C17.0562 103.181 17.0092 103.228 16.9386 103.251C15.5738 103.981 14.0443 104.569 13.2207 104.569C11.6676 102.098 8.89096 95.5568 11.6912 92.7566C12.1147 92.333 12.6795 91.9801 13.3854 91.7448C17.0798 90.5447 18.6093 97.8628 19.5741 101.369Z" fill="#6683C2"/>
<path d="M16.962 103.229C15.5972 103.959 14.0677 104.547 13.2441 104.547C11.6911 102.076 8.9144 95.5346 11.7146 92.7344C11.6911 92.8991 10.891 97.0406 11.8793 98.0759C12.8911 99.1348 12.0676 99.9349 12.9382 101.582C13.7618 103.135 15.5972 103.912 16.962 103.229Z" fill="#5F79B3"/>
<path d="M245.678 90.6624L242.007 93.4862L241.748 93.6744C241.748 93.6744 241.348 93.2273 240.76 92.5449C240.289 92.0037 239.677 91.2978 239.042 90.5213C237.512 88.6623 235.795 86.4974 235.324 85.3444C234.194 82.7089 234.712 75.9085 234.712 75.9085C233.3 74.6849 232.806 72.7788 233.724 71.1787C234.336 70.0963 234.877 73.4142 235.795 73.8613C235.795 73.8613 236.783 71.3905 237.112 72.3318C237.512 73.4142 236.642 75.6496 236.642 75.6496L238.995 83.4384L241.889 86.568L245.678 90.6624Z" fill="#FFC0B8"/>
<path d="M250.896 26.5411L187.432 1.00989C185.479 0.20983 183.197 1.29226 182.35 3.41005L164.984 46.566C164.137 48.6838 165.031 51.0369 166.984 51.8134L230.447 77.3446C232.4 78.1447 234.683 77.0622 235.53 74.9444L252.896 31.7885C253.766 29.6942 252.872 27.3411 250.896 26.5411ZM234.706 74.2385C233.953 76.0975 231.812 76.9916 229.906 76.2151L168.184 51.3899C166.278 50.6133 165.337 48.4955 166.09 46.6366L181.361 8.68101C182.114 6.82205 184.256 5.92788 186.162 6.7044L247.86 31.5297C249.766 32.3062 250.707 34.424 249.954 36.2829L234.706 74.2385Z" fill="#7FCBB4"/>
<path d="M249.984 36.2846L234.712 74.2402C233.959 76.0991 231.818 76.9933 229.912 76.2168L168.19 51.3915C166.284 50.615 165.343 48.4972 166.096 46.6382L181.367 8.68266C182.12 6.82371 184.262 5.92953 186.168 6.70606L247.866 31.5313C249.796 32.3078 250.713 34.4256 249.984 36.2846Z" fill="white"/>
<path d="M195.747 7.55061C195.888 7.19764 195.747 6.79762 195.417 6.67996C195.088 6.53877 194.711 6.72702 194.57 7.07999C194.429 7.43295 194.57 7.83298 194.9 7.95064C195.229 8.06829 195.606 7.88004 195.747 7.55061Z" fill="white"/>
<path d="M192.755 6.32795C192.896 5.97499 192.755 5.57496 192.425 5.4573C192.096 5.31612 191.719 5.50437 191.578 5.85733C191.437 6.2103 191.578 6.61032 191.907 6.72798C192.237 6.86917 192.613 6.68092 192.755 6.32795Z" fill="white"/>
<path d="M189.747 5.12874C189.888 4.77577 189.747 4.37574 189.417 4.25809C189.088 4.1169 188.711 4.30515 188.57 4.65811C188.429 5.01108 188.57 5.41111 188.9 5.52876C189.229 5.64642 189.606 5.4817 189.747 5.12874Z" fill="white"/>
<path d="M233.591 23.5047L247.192 28.9874C247.545 29.1286 247.945 28.9639 248.086 28.6109C248.227 28.258 248.063 27.8579 247.71 27.7167L234.109 22.234C233.756 22.0928 233.356 22.2575 233.214 22.6105C233.073 22.9635 233.238 23.3635 233.591 23.5047Z" fill="white"/>
<path d="M201.835 47.5787C200.611 47.6728 199.717 46.4492 200.164 45.3197L202.376 39.6722L204.588 34.0248C205.035 32.8953 206.517 32.6129 207.341 33.4836L212.518 38.9663L217.083 43.7902C218.047 44.802 217.389 46.4962 216 46.5904L209.388 47.0375L201.835 47.5787Z" fill="#7FCBB4"/>
<path d="M202.453 55.3193C194.805 52.2367 191.087 43.5302 194.17 35.8826C197.253 28.235 205.959 24.5171 213.607 27.5997C221.254 30.6822 224.972 39.3887 221.89 47.0363C218.831 54.6839 210.101 58.4018 202.453 55.3193ZM213.207 28.588C206.1 25.7407 198.006 29.1762 195.158 36.2826C192.311 43.389 195.747 51.4837 202.853 54.3309C209.959 57.1782 218.054 53.7427 220.901 46.6363C223.772 39.5534 220.313 31.4352 213.207 28.588Z" fill="#7FCBB4"/>
<path d="M245.682 90.6636L242.882 94.1462L240.764 92.5461C240.764 92.5461 238.199 90.593 238.411 90.3106C239.093 89.3929 240.552 86.8045 241.235 85.8633L245.682 90.6636Z" fill="#6683C2"/>
<path d="M272.812 144.36C272.671 142.877 272.271 140.477 271.683 140.265C271.024 140.03 266.483 141.63 262.953 142.548C259.635 143.419 255.07 144.642 253.211 143.136C251.07 141.395 244.669 127.676 243.352 119.982C245.658 118.711 247.964 117.487 250.293 116.24C261.353 125.676 254.741 130.924 257.8 138.501C264.671 137.136 268.789 137.418 272.083 137.324C272.13 137.301 272.907 137.277 273.542 137.371C274.012 139.254 275.095 143.419 272.812 144.36Z" fill="#FFC0B8"/>
<path d="M272.102 137.348C273.019 137.137 273.961 137.207 274.855 137.395C275.019 137.419 274.996 137.49 274.996 137.607C274.972 138.054 274.902 138.572 274.855 139.043C274.855 139.137 274.855 139.137 274.737 139.207C274.455 139.372 274.431 139.631 274.525 140.054C274.761 141.231 274.455 143.772 274.125 144.667C273.019 147.749 272.525 143.631 272.502 142.384C274.219 140.431 273.49 139.16 272.102 137.348Z" fill="#6683C2"/>
<path d="M250.501 159.186C250.807 160.904 250.501 160.904 249.748 161.798C247.136 162.057 244.712 162.222 243.583 161.092C245.136 160.339 246.477 159.022 247.442 158.245C247.371 154.386 244.547 145.091 243.724 143.044C243.277 141.985 242.641 140.62 242.524 139.467C241.747 130.714 242.5 120.619 243.865 112.312H251.371C255.442 121.278 248.053 127.819 248.712 140.267C249.559 142.762 250.171 145.256 250.548 147.703C251.089 151.421 249.983 156.174 250.501 159.186Z" fill="#FFC0B8"/>
<path d="M250.578 159.656C250.978 161.209 250.742 162.127 250.389 162.998H248.578C248.578 162.998 248.272 162.268 247.895 162.409C246.107 163.092 242.695 163.492 242.154 162.621C241.659 161.845 244.389 160.762 244.389 160.762C245.189 162.056 247.189 161.468 250.578 159.656Z" fill="#52699A"/>
<path d="M263.753 131.63C263.282 133.207 262.059 134.642 259.729 133.936C259.729 133.936 259.047 137.348 255.329 135.536C254.387 136.313 253.399 136.831 252.387 137.113C250.858 137.513 249.258 137.348 247.563 136.595C244.457 139.325 241.822 136.337 241.822 136.337C239.916 137.066 237.516 135.042 237.516 135.042C238.174 126.312 241.375 119.253 241.092 112.617C241.069 112.335 241.069 112.076 241.045 111.794L242.057 111.582L246.293 110.688L251.187 109.652C253.964 112.217 255.187 117.394 257.093 122.241C258.552 125.983 260.435 129.56 263.753 131.63Z" fill="#F2C45B"/>
<path d="M247.54 136.573C244.434 139.302 241.798 136.314 241.798 136.314C239.892 137.043 237.492 135.02 237.492 135.02C238.151 126.29 241.351 119.23 241.069 112.595C241.422 112.218 241.751 111.865 242.034 111.559C242.716 110.83 243.14 110.383 243.14 110.383L246.269 110.665L249.281 110.924L246.481 116.219C246.481 116.219 242.834 116.619 242.222 119.066C241.61 121.513 242.881 121.419 241.94 123.654C240.998 125.89 238.786 130.596 240.528 132.996C242.293 135.42 247.705 135.232 247.54 136.573Z" fill="#FACD65"/>
<path d="M239.462 92.1224L238.427 98.6876C238.427 98.6876 237.933 98.3346 237.133 97.7463L239.086 91.793C239.204 91.9106 239.321 92.0047 239.462 92.1224Z" fill="#FFC0B8"/>
<path d="M253.395 111.629C250.595 101.934 252.195 97.2749 247.042 92.0039C245.913 93.2981 244.218 93.3922 239.465 92.098L238.43 98.6632C240.642 102.052 243.442 103.934 242.312 111.605H253.395V111.629Z" fill="#3E3279"/>
<path d="M246.647 89.7448C246.058 92.0744 244.905 93.1333 243.352 92.945V92.8744L243.282 90.4978L243.211 88.5447L243.141 86.1445L246.035 87.0858L246.294 88.2153L246.647 89.7448Z" fill="#FFC0B8"/>
<path d="M246.639 89.7462C246.05 92.0758 244.897 93.1347 243.344 92.9464V92.8758C243.862 92.4288 244.897 90.4286 244.427 90.5463C244.05 90.6404 243.509 90.5463 243.274 90.4992L243.203 88.5461C243.344 88.5226 243.438 88.4991 243.462 88.4991C243.556 88.4755 245.344 88.3108 246.286 88.2402L246.639 89.7462Z" fill="#F0AFA8"/>
<path d="M239.891 92.7096L238.432 98.663C235.443 97.4394 229.49 94.145 227.984 92.0743C225.772 88.9917 223.372 77.7203 223.372 77.7203C221.96 76.685 220.313 74.3554 220.995 72.3788C221.654 70.4492 222.783 73.9083 224.313 74.6378C224.313 74.6378 225.442 71.6964 225.631 73.7906C225.819 75.8849 225.395 77.1321 225.395 77.1321C226.854 79.9558 228.996 84.1208 230.972 88.1916C233.278 89.7918 237.914 91.5566 239.891 92.7096Z" fill="#FFC0B8"/>
<path d="M254.34 113.864C254.34 114.664 252.081 115.44 249.375 115.887C245.257 116.57 240.103 116.476 240.503 114.381C241.515 109.087 241.115 103.18 239.868 101.486L239.845 101.463C239.703 101.274 239.539 101.086 239.35 100.898L239.327 100.874C238.292 99.792 236.574 98.4978 235.703 97.7448C236.409 95.6505 237.397 93.7445 239.162 91.5091C241.186 92.4503 243.468 92.7562 243.468 92.7562C244.692 92.9445 246.951 90.9208 246.622 89.7207C247.233 90.3325 247.775 90.9914 248.245 91.6738C249.492 93.4621 250.363 95.4387 251.045 97.6507C251.94 100.474 251.375 103.251 252.222 106.781C252.363 107.322 252.504 107.887 252.693 108.404C253.422 110.663 254.34 112.663 254.34 113.864Z" fill="#5772AE"/>
<path d="M252.69 108.43C252.101 107.724 251.395 106.806 251.019 106.03C250.289 104.5 251.113 100.853 250.736 99.9116C250.383 98.9703 249.889 99.1586 249.466 97.982C249.042 96.7819 246.854 98.2409 244.877 97.3937C242.877 96.5466 243.418 94.8289 243.418 94.8289L248.266 91.6992C249.513 93.4876 250.383 95.4642 251.066 97.6761C251.96 100.5 251.395 103.276 252.242 106.806C252.36 107.347 252.525 107.889 252.69 108.43Z" fill="#5F79B3"/>
<path d="M249.376 115.888C245.258 116.57 240.105 116.476 240.505 114.382C241.516 109.087 241.116 103.181 239.869 101.487L239.846 101.463C239.705 101.275 239.54 101.087 239.352 100.898C239.54 101.087 241.634 103.04 242.905 103.252C242.693 103.204 240.975 103.11 241.258 104.452C241.563 105.934 242.716 107.605 242.316 109.417C241.916 111.229 241.352 113.252 243.399 113.888C245.446 114.523 250.223 114.711 249.376 115.888Z" fill="#5F79B3"/>
<path d="M242.598 81.3438C241.963 82.4732 240.598 86.8971 241.634 88.9207C242.645 90.9444 247.116 89.9561 247.116 89.9561L246.905 83.3439L242.598 81.3438Z" fill="#FFC0B8"/>
<path d="M242.509 80.1913C241.567 80.7796 241.097 82.2149 241.967 83.7209C242.838 85.2504 244.25 84.0504 244.674 84.9916C245.097 85.9328 243.332 87.2506 244.603 89.2272C246.18 91.7215 241.615 93.2275 243.756 96.2865C244.815 97.7925 247.215 96.0041 249.803 97.063C253.074 98.3808 254.957 95.3923 253.404 93.0863C251.992 90.992 249.897 90.3802 250.933 88.1212C252.486 84.7563 250.415 82.615 248.744 82.4503C247.074 82.3091 246.015 78.0029 242.509 80.1913Z" fill="#5D5D5D"/>
<path d="M263.756 131.632C263.286 133.208 262.062 134.644 259.732 133.938C259.732 133.938 259.05 137.35 255.332 135.538C254.391 136.314 253.402 136.832 252.391 137.114C252.767 133.773 257.356 135.655 257.52 134.291C257.85 131.467 262.838 133.208 260.226 130.714C257.473 128.055 257.544 123.678 257.544 123.678L256.932 122.125C256.956 122.125 257.003 122.172 257.097 122.219C258.556 125.984 260.438 129.561 263.756 131.632Z" fill="#FACD65"/>
<path d="M160.452 152.479C160.452 152.479 167.841 153.561 167.7 153.49C167.582 153.42 154.193 160.291 154.193 160.291L140.992 154.385L147.534 152.479H160.452Z" fill="#496093"/>
<path d="M158.026 162.316C158.073 162.316 158.12 162.316 158.143 162.316C158.167 162.316 158.19 162.316 158.214 162.316C160.355 162.269 161.744 162.152 161.744 162.152C161.744 162.152 161.838 162.175 162.026 162.199C163.861 162.505 172.968 163.681 172.78 160.34C172.686 158.434 166.05 157.751 163.697 158.128H163.673C163.085 158.222 162.732 158.316 162.732 158.316C162.732 158.316 161.532 157.845 159.673 157.21C159.602 157.187 159.508 157.163 159.438 157.116C153.249 154.975 140.26 150.998 137.036 153.822C136.989 153.845 136.965 153.892 136.942 153.916C136.918 153.939 136.871 153.986 136.848 154.033C136.824 154.057 136.801 154.104 136.777 154.128C136.777 154.128 136.754 154.151 136.754 154.175C136.73 154.222 136.683 154.269 136.66 154.316C136.636 154.363 136.589 154.433 136.565 154.48C136.542 154.528 136.518 154.598 136.495 154.645C136.448 154.763 136.401 154.904 136.377 155.045C136.354 155.186 136.33 155.328 136.33 155.445C136.307 155.681 136.307 155.916 136.33 156.151C136.777 162.128 151.084 162.505 158.026 162.316Z" fill="#FFC0B8"/>
<path d="M157.932 163.022L158.143 162.316L158.238 162.01L159.649 157.21L159.861 156.528C153.673 154.386 140.307 150.88 137.036 153.822C136.989 153.845 136.965 153.892 136.942 153.916C136.918 153.939 136.871 153.986 136.848 154.033C136.824 154.057 136.801 154.104 136.777 154.128C136.777 154.128 136.754 154.151 136.754 154.175C136.73 154.222 136.683 154.269 136.66 154.316C136.636 154.363 136.589 154.433 136.565 154.481C136.542 154.528 136.518 154.598 136.495 154.645C136.448 154.763 136.401 154.904 136.377 155.045C136.354 155.186 136.33 155.328 136.33 155.445C136.307 155.681 136.307 155.916 136.33 156.151C136.754 162.199 150.99 163.211 157.932 163.022Z" fill="#6683C2"/>
<path d="M147.759 141.655C149.806 144.55 147.971 152.433 147.971 152.433H161.76C161.383 151.891 160.301 145.091 162.725 141.326C166.631 135.278 162.419 130.572 162.419 130.572L156.677 129.537L156.301 127.701L156.042 126.454L155.971 126.172H153.383L153.289 126.713L153.077 127.913L152.771 129.678L147.5 130.831C147.571 130.807 143.076 135.043 147.759 141.655Z" fill="#FFC0B8"/>
<path d="M161.792 152.432C161.463 151.961 160.639 146.973 161.886 143.184C159.157 142.384 159.627 149.937 155.086 152.432H161.792Z" fill="#C4626E"/>
<path d="M140.281 147.653C140.422 148.547 141.058 149.512 141.975 150.477C144.352 152.924 149.223 152.806 152.541 153.7L152.894 151.936C152.894 151.936 146.94 150.265 145.67 148.171C145.528 147.959 145.434 147.747 145.411 147.559C144.987 145.488 147.387 142.876 147.387 142.876L147.646 130.805C147.623 130.805 139.552 143.111 140.281 147.653Z" fill="#FFC0B8"/>
<path d="M156.945 151.96L156.874 153.137C156.757 153.09 156.78 152.948 156.898 152.925C159.863 152.313 164.734 153.16 167.11 151.136C168.569 149.889 169.369 148.36 169.557 147.183C170.287 142.642 162.404 130.57 162.404 130.57L162.686 142.618C162.686 142.618 165.087 145.207 164.663 147.301C164.592 147.677 164.287 148.124 163.863 148.619C162.098 150.713 156.945 151.96 156.945 151.96Z" fill="#FFC0B8"/>
<path d="M147.781 141.655C149.828 144.55 147.993 152.433 147.993 152.433H161.782C161.452 151.986 160.629 146.974 161.876 143.185C162.088 142.526 162.37 141.891 162.747 141.35C166.653 135.302 162.441 130.596 162.441 130.596L157.852 129.772L156.699 129.561C156.487 132.29 153.358 132.078 152.84 129.702L151.381 130.008L147.569 130.831C147.569 130.808 143.075 135.043 147.781 141.655Z" fill="#F2C45B"/>
<path d="M140.193 147.654C140.357 148.501 140.852 149.56 141.699 150.477C141.793 150.572 141.934 150.595 142.052 150.525L143.064 149.866L145.746 148.124C145.605 147.913 145.534 147.677 145.511 147.489C145.087 145.418 148.923 142.195 148.923 142.195L148.005 130.735C146.758 130.688 144.734 133.512 143.04 136.994C143.04 136.994 143.04 136.994 143.04 137.018C141.181 140.759 139.769 145.254 140.193 147.654Z" fill="#F2C45B"/>
<path d="M164.662 147.303C164.591 147.68 164.074 147.986 163.65 148.503L166.144 150.574L167.156 151.398C168.615 150.15 169.486 148.55 169.792 147.397C170.286 145.632 169.58 142.597 168.38 139.585C168.38 139.561 168.38 139.561 168.38 139.561C166.568 135.02 163.674 130.549 162.168 130.502L161.297 142.738C161.297 142.738 165.109 145.232 164.662 147.303Z" fill="#F2C45B"/>
<path d="M139.883 160.808C139.883 164.008 149.107 162.455 149.107 162.455C149.107 162.455 150.542 162.549 152.707 162.596C152.754 162.596 152.801 162.596 152.825 162.596C155.978 162.667 160.661 162.596 164.849 161.961C170.003 161.184 174.45 159.514 174.544 156.125V156.102C174.544 155.96 174.544 155.819 174.521 155.678C174.497 155.537 174.497 155.372 174.45 155.231C174.426 155.09 174.379 154.972 174.332 154.831C174.309 154.784 174.285 154.713 174.262 154.666C174.238 154.619 174.191 154.549 174.168 154.502C174.144 154.454 174.097 154.407 174.073 154.36C174.073 154.337 174.05 154.337 174.05 154.313C174.026 154.266 174.003 154.243 173.979 154.219C173.956 154.172 173.909 154.149 173.885 154.125C173.509 153.749 172.944 153.49 172.262 153.301C167.602 152.148 156.849 155.513 151.389 157.419C151.319 157.443 151.201 157.443 151.154 157.513C149.436 159.702 139.883 157.161 139.883 160.808Z" fill="#FFC0B8"/>
<path d="M148.656 157.798L149.433 163.234C152.304 163.304 159.904 163.234 163.763 162.622C169.387 161.728 174.493 159.845 174.564 156.151V156.127C174.564 155.986 174.564 155.845 174.54 155.704C174.517 155.563 174.517 155.398 174.47 155.257C174.446 155.116 174.399 154.998 174.352 154.857C174.329 154.81 174.305 154.739 174.282 154.692C174.258 154.645 174.211 154.574 174.187 154.527C174.164 154.48 174.117 154.433 174.093 154.386C174.093 154.363 174.07 154.363 174.07 154.339C174.046 154.292 174.023 154.268 173.999 154.245C173.976 154.198 173.929 154.174 173.905 154.151C173.505 153.751 172.917 153.445 172.211 153.257C167.41 151.939 154.092 155.916 148.656 157.798Z" fill="#6683C2"/>
<path d="M145.25 141.795V153.114C145.25 153.726 145.744 154.22 146.356 154.22H163.698C164.31 154.22 164.804 153.726 164.804 153.114V141.795C164.804 141.184 164.31 140.689 163.698 140.689H146.356C145.744 140.689 145.25 141.184 145.25 141.795Z" fill="#BEC4F2"/>
<path d="M156.756 147.444C156.756 146.48 155.979 145.727 155.038 145.727C154.073 145.727 153.32 146.503 153.32 147.444C153.32 148.409 154.097 149.162 155.038 149.162C155.979 149.186 156.756 148.409 156.756 147.444Z" fill="#C9CFFF"/>
<path d="M153.156 127.889C153.509 128.077 153.909 128.43 154.474 128.43C155.298 128.453 156.333 127.7 156.333 127.7L156.074 126.453H155.18L153.627 126.547L153.344 126.712L153.156 127.889Z" fill="#E2978D"/>
<path d="M145.25 141.795V153.114C145.25 153.726 145.744 154.22 146.356 154.22H163.698C164.31 154.22 164.804 153.726 164.804 153.114C147.25 153.914 145.25 151.349 146.356 140.689C145.744 140.689 145.25 141.184 145.25 141.795Z" fill="#C9CFFF"/>
<path d="M140.193 147.658C140.358 148.505 140.852 149.564 141.699 150.481C141.793 150.575 141.934 150.599 142.052 150.528L143.064 149.869C142.522 148.928 141.746 148.199 141.369 146.763C140.381 142.904 142.875 137.351 143.017 137.021C141.181 140.763 139.769 145.257 140.193 147.658Z" fill="#FFDC8C"/>
<path d="M158.81 123.043C158.81 123.043 160.598 119.466 158.386 117.913C157.304 114.548 152.456 116.877 150.574 116.619C150.174 116.572 149.797 116.783 149.68 117.183C149.421 118.148 150.056 119.16 149.962 120.431C149.915 120.925 149.609 121.372 150.174 122.384C150.762 123.396 158.81 123.043 158.81 123.043Z" fill="#6E6E6E"/>
<path d="M158.144 122.218C158.144 122.218 159.297 121.253 159.32 122.265C159.344 123.465 157.861 124.241 157.861 124.241C157.861 124.241 157.226 127.912 154.12 127.677C151.037 127.442 150.802 123.7 150.802 123.7C150.802 123.7 149.202 123.135 149.673 121.747C149.884 121.088 150.684 121.841 150.684 121.841L150.779 120.571C150.802 120.359 151.014 120.194 151.226 120.241C151.626 120.335 152.355 120.382 153.39 120.029C154.638 119.606 155.155 118.853 156.191 118.994C157.32 119.112 158.308 120.547 158.144 122.218Z" fill="#FFC0B8"/>
<path d="M151.422 129.982C151.704 131.182 152.481 132.641 154.646 132.641C157.093 132.641 157.728 130.9 157.869 129.747L156.716 129.535C156.505 132.265 153.375 132.053 152.857 129.676L151.422 129.982Z" fill="white"/>
<path d="M156.642 119.183C156.642 119.183 156.642 121.23 158.125 122.219L158.572 120.995C158.572 120.995 158.572 119.677 158.478 119.654C158.407 119.63 157.231 118.524 157.183 118.501C157.136 118.477 155.395 118.501 155.395 118.501C155.395 118.501 150.336 119.583 150.336 119.63C150.336 119.677 150.618 121.842 150.618 121.842C150.618 121.842 151.042 120.83 151.96 120.924C154.642 121.183 156.148 120.595 156.642 119.183Z" fill="#6E6E6E"/>
</svg>
