<svg width="380" height="340" viewBox="0 0 380 340" fill="none" xmlns="http://www.w3.org/2000/svg">
<path d="M486.492 32.4258H102.497C90.6229 32.4258 81.0156 42.7721 81.0156 55.5325V316.654C81.0156 329.414 90.6229 339.81 102.497 339.81H486.492C498.366 339.81 507.973 329.414 507.973 316.654V55.5325C507.973 42.7721 498.366 32.4258 486.492 32.4258ZM502.012 314.781C502.012 326.064 492.651 335.129 481.122 335.129H107.817C96.2887 335.129 86.9278 326.014 86.9278 314.781V85.0934C86.9278 73.811 96.2887 64.6964 107.817 64.6964H481.122C492.7 64.6964 502.012 73.811 502.012 85.0934V314.781Z" fill="#F37E60"/>
<path d="M502.013 85.0962V314.784C502.013 326.067 492.653 335.132 481.124 335.132H107.819C96.2906 335.132 86.9297 326.017 86.9297 314.784V85.0962C86.9297 73.8138 96.2906 64.6992 107.819 64.6992H481.124C492.702 64.6992 502.013 73.8631 502.013 85.0962Z" fill="white" fill-opacity="0.67"/>
<path d="M159.451 49.0324C159.451 46.9138 157.825 45.1895 155.854 45.1895C153.884 45.1895 152.258 46.9138 152.258 49.0324C152.258 51.1509 153.884 52.8753 155.854 52.8753C157.874 52.8753 159.451 51.1509 159.451 49.0324Z" fill="white"/>
<path d="M141.31 49.0324C141.31 46.9138 139.684 45.1895 137.714 45.1895C135.743 45.1895 134.117 46.9138 134.117 49.0324C134.117 51.1509 135.743 52.8753 137.714 52.8753C139.684 52.8753 141.31 51.1509 141.31 49.0324Z" fill="white"/>
<path d="M123.138 49.0324C123.138 46.9138 121.513 45.1895 119.542 45.1895C117.571 45.1895 115.945 46.9138 115.945 49.0324C115.945 51.1509 117.571 52.8753 119.542 52.8753C121.562 52.8753 123.138 51.1509 123.138 49.0324Z" fill="white"/>
<path d="M456.88 84.75H131.465C120.872 84.75 112.25 93.3719 112.25 103.965V214.424C112.25 225.016 120.872 233.638 131.465 233.638H456.88C467.473 233.638 476.095 225.016 476.095 214.424V103.965C476.095 93.3719 467.473 84.75 456.88 84.75Z" fill="white" fill-opacity="0.29"/>
<path d="M203.839 254.135H131.465C120.872 254.135 112.25 262.757 112.25 273.349V304.142C112.25 314.735 120.872 323.356 131.465 323.356H203.79C214.383 323.356 223.005 314.735 223.005 304.142V273.349C223.054 262.757 214.432 254.135 203.839 254.135Z" fill="white" fill-opacity="0.29"/>
<path d="M330.363 252.264H257.988C247.395 252.264 238.773 260.886 238.773 271.478V302.271C238.773 312.863 247.395 321.485 257.988 321.485H330.314C340.906 321.485 349.528 312.863 349.528 302.271V271.478C349.577 260.886 340.955 252.264 330.363 252.264Z" fill="white" fill-opacity="0.29"/>
<path d="M456.886 252.264H384.511C373.919 252.264 365.297 260.886 365.297 271.478V302.271C365.297 312.863 373.919 321.485 384.511 321.485H456.837C467.43 321.485 476.052 312.863 476.052 302.271V271.478C476.101 260.886 467.479 252.264 456.886 252.264Z" fill="white" fill-opacity="0.29"/>
<path d="M285.139 178.215C282.282 179.595 278.931 177.525 278.882 174.372L278.734 158.557L278.586 142.742C278.537 139.54 281.838 137.421 284.745 138.751L302.629 146.979L318.395 154.222C321.745 155.749 321.795 160.479 318.494 162.055L302.876 169.642L285.139 178.215Z" fill="#F37E60"/>
<path d="M294.153 196.392C272.623 196.392 255.133 178.902 255.133 157.372C255.133 135.842 272.623 118.352 294.153 118.352C315.683 118.352 333.173 135.842 333.173 157.372C333.173 178.902 315.683 196.392 294.153 196.392ZM294.153 121.061C274.15 121.061 257.892 137.32 257.892 157.323C257.892 177.325 274.15 193.584 294.153 193.584C314.156 193.584 330.414 177.325 330.414 157.323C330.414 137.32 314.156 121.061 294.153 121.061Z" fill="#F37E60"/>
<path d="M162.594 300.448C160.968 301.236 159.145 300.054 159.096 298.28L158.997 289.461L158.898 280.642C158.898 278.868 160.721 277.686 162.347 278.425L172.349 283.007L181.168 287.047C183.04 287.884 183.04 290.545 181.217 291.432L172.496 295.669L162.594 300.448Z" fill="#F37E60"/>
<path d="M167.623 310.597C155.601 310.597 145.797 300.793 145.797 288.771C145.797 276.75 155.601 266.945 167.623 266.945C179.644 266.945 189.448 276.75 189.448 288.771C189.448 300.793 179.693 310.597 167.623 310.597ZM167.623 268.522C156.439 268.522 147.373 277.637 147.373 288.771C147.373 299.955 156.488 309.02 167.623 309.02C178.806 309.02 187.872 299.906 187.872 288.771C187.921 277.587 178.806 268.522 167.623 268.522Z" fill="#F37E60"/>
<path d="M289.133 298.522C287.507 299.31 285.684 298.128 285.635 296.354L285.536 287.535L285.438 278.716C285.438 276.943 287.26 275.76 288.886 276.499L298.888 281.081L307.707 285.121C309.579 285.959 309.579 288.619 307.756 289.506L299.035 293.743L289.133 298.522Z" fill="#F37E60"/>
<path d="M294.162 308.671C282.14 308.671 272.336 298.867 272.336 286.845C272.336 274.824 282.14 265.02 294.162 265.02C306.183 265.02 315.987 274.824 315.987 286.845C315.987 298.916 306.232 308.671 294.162 308.671ZM294.162 266.596C282.978 266.596 273.913 275.711 273.913 286.845C273.913 298.029 283.027 307.094 294.162 307.094C305.346 307.094 314.411 297.98 314.411 286.845C314.46 275.711 305.346 266.596 294.162 266.596Z" fill="#F37E60"/>
<path d="M78.6459 188.064C78.6459 188.064 74.5074 211.269 68.4967 212.895C65.7869 213.634 62.2889 212.994 58.9387 211.861C53.2728 209.939 48.0997 206.54 47.9026 205.604L42.1875 188.163C45.4885 189.591 64.3089 200.332 65.8362 201.317C68.3489 197.573 73.7191 187.867 73.9162 187.128C73.9162 187.128 72.7337 181.906 73.7684 180.428C74.7045 179.147 75.0001 183.384 75.3942 182.891C75.8376 182.3 78.301 176.24 79.9761 178.013C83.622 182.053 78.6459 188.064 78.6459 188.064Z" fill="#FFC0B8"/>
<path d="M62.6283 198.951C62.2342 202.893 60.2142 208.017 59.5245 211.17C59.4259 211.663 59.3274 212.106 59.2781 212.451C53.6123 210.529 46.8133 209.889 46.6162 208.953L45.3352 203.09L42.1328 188.211C45.483 189.64 56.0757 195.059 62.6283 198.951Z" fill="#5772AE"/>
<path d="M59.5564 211.169C59.4579 211.662 59.3593 212.105 59.3101 212.45C53.6442 210.529 46.8452 209.888 46.6482 208.952L45.3672 203.089L51.0823 202.301C51.0823 202.301 52.9052 206.39 53.1515 208.262C53.3486 209.642 57.3393 210.627 59.5564 211.169Z" fill="#5F79B3"/>
<path d="M40.6617 287.291C39.4793 291.725 38.7403 295.667 38.3461 299.362C37.3608 308.772 37.6071 323.306 39.3315 332.519L44.1598 332.027C44.1598 332.027 51.008 307.196 54.2105 294.534C55.048 291.331 55.6885 288.424 56.0334 286.257C58.0041 273.89 50.7617 238.811 50.3183 236.545V236.447V236.397L30.8574 233.688C20.5111 258.272 32.7788 264.48 40.6617 287.291Z" fill="#FFC0B8"/>
<path d="M56.0861 286.256C55.9875 287.044 55.7412 289.064 55.3963 291.479C55.0022 294.829 54.4602 298.967 53.9675 301.628C53.7705 302.81 52.8344 303.697 51.6519 303.845C51.0607 303.894 50.4695 303.993 49.8783 304.042C47.3163 304.288 44.8037 304.338 42.3403 303.993C40.9607 303.796 39.5812 303.451 38.251 302.958C37.0686 302.515 36.3788 301.332 36.5266 300.1C37.1671 294.977 37.709 289.853 38.6944 286.305C35.7876 277.881 34.211 272.707 31.452 267.091C29.974 264.085 28.7423 261.228 27.9047 258.272C26.0818 251.67 26.2788 244.428 30.8115 233.736L50.2724 236.446V236.495V236.594C50.7651 238.811 58.0075 273.89 56.0861 286.256Z" fill="#F2C45B"/>
<path d="M50.9613 239.793C50.9613 239.793 46.5272 241.666 45.6896 242.848C44.8521 244.031 46.4287 248.169 44.655 252.702C42.8814 257.234 43.7189 261.373 42.5365 267.728C41.6989 272.015 38.5458 277.533 39.4819 280.932C40.418 284.332 43.7189 284.825 43.7189 284.825C43.7189 284.825 40.0238 286.598 40.0238 288.766C40.0238 290.934 40.615 293.2 39.3341 296.846C38.0531 300.492 40.2209 302.61 42.2409 303.546C42.4872 303.645 42.5365 303.793 42.3887 303.99C41.0092 303.793 39.6297 303.448 38.2994 302.955C37.117 302.512 36.4272 301.329 36.575 300.098C37.2155 294.974 37.7575 289.85 38.7428 286.303C35.836 277.878 34.2594 272.705 31.5004 267.088C30.0224 264.083 28.7907 261.225 27.9531 258.269C29.9238 249.351 31.6975 241.222 31.8946 239.843C32.3873 236.64 48.7443 237.823 48.7443 237.823L50.9613 239.793Z" fill="#FACE69"/>
<path d="M20.2747 338.181L8.40105 324.435C8.40105 324.435 17.1215 310.837 24.1668 301.771C25.842 299.604 27.4185 297.731 28.7488 296.303C38.4053 286.301 43.4307 235.949 43.4307 235.949H27.5171C15.003 247.429 18.1561 263.293 17.8113 278.911C17.6635 284.331 15.9391 289.553 13.0323 294.135C12.441 295.071 11.8991 296.007 11.3571 296.943C7.7113 303.594 5.5435 311.428 3.57278 324.238L1.10938 332.564L20.2747 338.181Z" fill="#FFC0B8"/>
<path d="M44.6673 235.758C44.6673 235.758 41.4156 273.596 34.863 287.686C34.7644 287.834 34.6659 288.13 34.4688 288.425C32.9908 291.135 28.3596 298.772 26.0932 302.171C25.4527 303.107 24.3196 303.6 23.1864 303.403C22.0532 303.157 20.723 302.713 19.442 302.122C17.7669 301.383 16.0918 300.496 14.6138 299.56C14.6138 299.56 14.6138 299.56 14.5645 299.56C13.7762 299.067 12.9879 298.575 12.3967 298.131C11.2635 297.343 10.8694 295.816 11.4606 294.584C13.3328 290.741 16.486 284.681 16.6338 283.055C18.1118 268.028 14.0718 247.04 26.1425 235.906H28.1625L40.3317 235.758H44.6673Z" fill="#F2C45B"/>
<path d="M40.381 235.805L43.7312 240.781C43.8297 241.865 33.2864 244.23 27.9161 243.244C22.743 242.308 19.8854 246.545 20.723 254.773C21.5606 262.951 21.1172 263.099 19.8854 269.603C18.6537 276.106 18.0133 281.378 22.2503 283.644C22.004 283.545 17.9147 282.067 17.3728 285.91C16.8308 289.852 13.1357 293.744 13.5299 296.503C13.8747 298.868 14.4167 299.508 14.5645 299.607C13.7762 299.114 12.9879 298.622 12.3967 298.178C11.2635 297.39 10.8694 295.862 11.4606 294.631C13.3328 290.788 16.486 284.728 16.6338 283.102C18.1118 268.075 14.0718 247.087 26.1425 235.952H28.1625L40.381 235.805Z" fill="#FACE69"/>
<path d="M52.8849 237.184C52.7371 238.612 51.6532 239.795 50.1751 240.041C46.5293 240.682 42.7356 240.977 38.8435 240.977C34.5571 240.977 30.123 240.632 25.6396 239.943C25.1469 239.893 24.7035 239.696 24.3094 239.401C23.5704 238.908 23.0777 238.12 22.9791 237.233C22.043 230.976 19.5796 213.535 19.4318 203.484C19.3826 201.612 19.4318 199.986 19.6289 198.705C20.1709 194.517 23.4718 188.507 31.3054 186.438L38.3015 186.487C50.2737 189.049 52.2937 205.455 52.0966 211.86C52.0473 214.816 52.0966 217.772 52.2444 220.63C52.4415 225.409 52.8356 229.892 52.9341 233.291C52.9834 234.819 52.9834 236.149 52.8849 237.184Z" fill="#5772AE"/>
<path d="M52.9487 233.29C51.0272 232.108 48.3175 230.925 45.1643 230.777C39.8926 230.531 30.2853 225.703 29.5956 222.057C28.8566 218.411 27.1322 220.924 24.9151 217.327C22.698 213.731 22.8951 204.961 22.8951 204.961L37.7741 207.671C37.7741 207.671 39.5477 211.169 40.7302 213.238C41.617 214.815 48.9087 218.855 52.2589 220.677C52.5053 225.456 52.8994 229.891 52.9487 233.29Z" fill="#5F79B3"/>
<path d="M44.7545 330.646C50.371 332.814 56.4803 333.159 59.3378 336.115C60.6681 337.544 59.6334 339.86 57.6627 339.81L39.5813 339.17C38.3496 339.121 37.4135 338.086 37.4628 336.854C37.5613 334.785 38.054 332.666 38.9408 330.646C40.813 331.386 42.7345 331.435 44.7545 330.646Z" fill="#52699A"/>
<path d="M8.44386 324.439C13.2721 328.726 20.0219 331.977 21.4506 336.51C21.9433 338.087 20.416 339.614 18.8394 339.072L1.64486 333.308C0.462421 332.913 -0.227333 331.731 0.068276 330.549C0.610225 328.036 2.13754 324.981 3.71412 323.355C5.04435 324.686 6.6702 324.981 8.44386 324.439Z" fill="#52699A"/>
<path d="M36.1419 180.327C33.8755 181.017 32.9394 182.15 30.0326 180.869C25.5985 178.849 21.8541 171.164 27.717 167.715C28.1112 166.483 28.5546 166.04 30.0819 165.695C31.6585 165.35 33.235 166.04 35.3536 165.99C37.4721 165.941 40.5267 163.724 42.3989 166.877C44.2711 169.981 39.6399 172.395 37.3243 173.972C35.0087 175.45 35.7477 178.061 36.1419 180.327Z" fill="#5D5D5D"/>
<path d="M31.2109 186.488C33.7729 189.05 36.187 189.542 38.3055 186.537L37.7143 181.61L37.468 179.541H31.8022L31.7036 180.822L31.2109 186.488Z" fill="#FFC0B8"/>
<path d="M31.6094 181.711C32.9889 183.386 36.8318 183.879 37.8664 183.14L37.423 179.494L31.7572 177.129L31.6094 181.711Z" fill="#EDA89F"/>
<path d="M40.336 169.637C41.3706 172.544 42.4052 179.048 39.8925 181.462C38.316 182.989 32.6009 182.398 31.4677 178.21C30.0882 177.225 29.1028 174.761 30.3345 173.677C31.2213 172.889 32.4038 174.958 33.9804 174.614C34.5716 174.466 32.7487 170.475 34.6209 169.785C36.493 169.096 38.4638 170.623 40.336 169.637Z" fill="#FFC0B8"/>
<path d="M34.4643 288.473C32.9862 291.182 28.355 298.819 26.0887 302.218C25.4482 303.155 24.315 303.647 23.1819 303.45C22.0487 303.204 20.7185 302.76 19.4375 302.169C19.536 301.972 21.9009 302.563 23.6253 302.071C28.0101 300.79 25.7438 295.617 25.7438 295.617C28.8477 296.454 34.1194 288.916 34.4643 288.473Z" fill="#FACE69"/>
<path d="M55.4008 291.479C55.0067 294.829 54.4647 298.967 53.9721 301.628C53.775 302.81 52.8389 303.697 51.6565 303.845C51.0652 303.894 50.474 303.993 49.8828 304.042C50.0799 301.923 53.1838 302.712 53.5286 297.095C53.6765 294.779 51.755 293.548 51.755 293.548C52.9867 293.548 54.514 292.661 55.4008 291.479Z" fill="#FACE69"/>
<path d="M201.475 105.491L58.9427 119.631C54.5578 120.074 51.3554 124.262 51.7988 128.992L61.4061 225.902C61.8988 230.632 65.8402 234.13 70.2251 233.736L212.807 219.596C217.192 219.153 220.394 214.965 219.951 210.186L210.344 113.275C209.851 108.546 205.91 105.048 201.475 105.491ZM217.635 209.742C218.029 213.93 214.926 217.625 210.639 218.069L72.048 231.814C67.7617 232.258 63.9681 229.203 63.5739 225.015L55.1491 139.782C54.7549 135.594 57.8588 131.849 62.1451 131.455L200.736 117.71C205.023 117.266 208.816 120.321 209.26 124.509L217.635 209.742Z" fill="#7FCBB4"/>
<path d="M209.228 124.508L217.653 209.742C218.047 213.929 214.943 217.625 210.657 218.068L72.0655 231.814C67.7792 232.257 63.9855 229.203 63.5914 225.015L55.1665 139.781C54.7724 135.593 57.8763 131.849 62.1626 131.455L200.754 117.709C204.991 117.265 208.785 120.32 209.228 124.508Z" fill="white"/>
<path d="M80.7111 123.673C80.6126 122.884 79.9721 122.293 79.2331 122.392C78.4941 122.441 77.9521 123.18 78.0506 123.968C78.1492 124.756 78.7897 125.348 79.5287 125.249C80.2184 125.2 80.7604 124.461 80.7111 123.673Z" fill="white"/>
<path d="M73.9767 124.364C73.8782 123.576 73.2377 122.984 72.4987 123.083C71.7597 123.132 71.2177 123.871 71.3163 124.66C71.4148 125.448 72.0553 126.039 72.7943 125.941C73.5333 125.842 74.026 125.152 73.9767 124.364Z" fill="white"/>
<path d="M67.2267 125.003C67.1282 124.214 66.4877 123.623 65.7487 123.722C65.0097 123.771 64.4677 124.51 64.5663 125.298C64.6648 126.087 65.3053 126.678 66.0443 126.579C66.7833 126.53 67.3253 125.791 67.2267 125.003Z" fill="white"/>
<path d="M166.4 116.63L196.946 113.624C197.734 113.526 198.326 112.836 198.227 112.048C198.128 111.259 197.439 110.668 196.65 110.767L166.104 113.772C165.316 113.87 164.725 114.56 164.823 115.349C164.873 116.137 165.612 116.728 166.4 116.63Z" fill="white"/>
<path d="M130.789 192.109C128.621 193.439 125.764 192.06 125.518 189.498L124.138 176.885L122.759 164.272C122.463 161.71 124.926 159.789 127.341 160.627L142.219 165.8L155.423 170.332C158.182 171.268 158.626 175.062 156.113 176.589L144.289 183.881L130.789 192.109Z" fill="#7FCBB4"/>
<path d="M139.451 205.856C122.306 207.58 106.934 194.968 105.259 177.822C103.535 160.677 116.148 145.306 133.293 143.63C150.438 141.906 165.81 154.519 167.485 171.664C169.209 188.809 156.646 204.181 139.451 205.856ZM133.49 145.847C117.527 147.424 105.851 161.663 107.427 177.625C109.004 193.588 123.242 205.265 139.205 203.688C155.168 202.112 166.844 187.873 165.268 171.91C163.691 155.947 149.453 144.271 133.49 145.847Z" fill="#7FCBB4"/>
<path d="M22.3906 202.55C22.3906 202.55 25.4452 211.861 29.2389 217.823C30.1257 219.252 31.0618 220.434 32.0472 221.321C38.5998 227.282 57.3217 232.012 57.3217 232.012C61.8051 237.087 69.5402 238.17 71.8065 236.594C75.748 233.786 65.1553 233.736 65.2046 231.125C65.2046 231.125 70.3285 230.485 69.8358 228.366C69.3431 226.198 60.1793 227.824 60.1793 227.824C52.4442 222.355 46.4335 218.857 40.2257 213.931C39.9793 212.896 39.733 211.911 39.4374 210.876C37.4174 203.535 34.5106 196.49 29.1404 190.43C24.115 193.337 22.5384 197.623 22.3906 202.55Z" fill="#FFC0B8"/>
<path d="M40.7808 210.678C40.1403 211.663 38.0218 213.092 35.6076 214.422C35.5091 214.472 35.4106 214.57 35.2628 214.619C32.4052 216.147 29.2028 217.378 27.4784 217.378C24.2267 212.205 18.4131 198.509 24.276 192.646C25.1628 191.759 26.3452 191.02 27.8233 190.527C35.5584 188.015 38.7608 203.337 40.7808 210.678Z" fill="#6683C2"/>
<path d="M35.3018 214.571C32.4443 216.099 29.2418 217.33 27.5175 217.33C24.2658 212.157 18.4521 198.461 24.315 192.598C24.2658 192.943 22.5906 201.614 24.6599 203.782C26.7784 205.999 25.054 207.674 26.877 211.122C28.6014 214.374 32.4443 216 35.3018 214.571Z" fill="#5F79B3"/>
<path d="M525.102 54.0082L392.226 0.552315C388.137 -1.1228 383.358 1.14353 381.584 5.57766L345.224 95.9354C343.45 100.37 345.323 105.296 349.412 106.922L482.288 160.378C486.377 162.053 491.156 159.787 492.93 155.353L529.29 64.995C531.113 60.6101 529.24 55.6833 525.102 54.0082ZM491.205 153.875C489.629 157.767 485.145 159.639 481.155 158.013L351.925 106.035C347.934 104.409 345.963 99.9754 347.54 96.0832L379.515 16.6137C381.091 12.7215 385.575 10.8494 389.565 12.4752L518.746 64.4531C522.737 66.0789 524.708 70.513 523.131 74.4052L491.205 153.875Z" fill="#7FCBB4"/>
<path d="M523.192 74.4075L491.217 153.877C489.641 157.769 485.157 159.641 481.167 158.015L351.936 106.038C347.946 104.412 345.975 99.9776 347.551 96.0854L379.526 16.616C381.103 12.7238 385.586 10.8516 389.577 12.4775L518.758 64.4553C522.798 66.0812 524.72 70.5153 523.192 74.4075Z" fill="white"/>
<path d="M335.745 317.689C335.745 317.689 351.215 319.956 350.919 319.808C350.673 319.66 322.639 334.046 322.639 334.046L295 321.68L308.697 317.689H335.745Z" fill="#496093"/>
<path d="M330.657 338.286C330.756 338.286 330.855 338.286 330.904 338.286C330.953 338.286 331.002 338.286 331.052 338.286C335.535 338.188 338.442 337.941 338.442 337.941C338.442 337.941 338.639 337.991 339.033 338.04C342.876 338.68 361.943 341.144 361.549 334.148C361.352 330.157 347.458 328.728 342.531 329.517H342.482C341.25 329.714 340.511 329.911 340.511 329.911C340.511 329.911 337.998 328.925 334.106 327.595C333.958 327.546 333.761 327.497 333.614 327.398C320.656 322.915 293.46 314.588 286.71 320.501C286.612 320.55 286.562 320.648 286.513 320.698C286.464 320.747 286.365 320.845 286.316 320.944C286.267 320.993 286.218 321.092 286.168 321.141C286.168 321.141 286.119 321.19 286.119 321.24C286.07 321.338 285.971 321.437 285.922 321.535C285.873 321.634 285.774 321.781 285.725 321.88C285.676 321.979 285.626 322.126 285.577 322.225C285.479 322.471 285.38 322.767 285.331 323.062C285.282 323.358 285.232 323.654 285.232 323.9C285.183 324.393 285.183 324.885 285.232 325.378C286.168 337.892 316.123 338.68 330.657 338.286Z" fill="#FFC0B8"/>
<path d="M330.46 339.763L330.904 338.285L331.101 337.644L334.057 327.594L334.5 326.165C321.543 321.681 293.559 314.34 286.71 320.499C286.612 320.548 286.562 320.647 286.513 320.696C286.464 320.745 286.365 320.844 286.316 320.942C286.267 320.992 286.218 321.09 286.168 321.139C286.168 321.139 286.119 321.189 286.119 321.238C286.07 321.337 285.971 321.435 285.922 321.534C285.873 321.632 285.774 321.78 285.725 321.878C285.676 321.977 285.626 322.125 285.577 322.223C285.479 322.47 285.38 322.765 285.331 323.061C285.282 323.357 285.232 323.652 285.232 323.898C285.183 324.391 285.183 324.884 285.232 325.377C286.119 338.038 315.926 340.157 330.46 339.763Z" fill="#6683C2"/>
<path d="M309.163 295.032C313.45 301.092 309.607 317.597 309.607 317.597H338.478C337.69 316.463 335.423 302.225 340.498 294.342C348.676 281.68 339.857 271.826 339.857 271.826L327.836 269.659L327.048 265.816L326.506 263.205L326.358 262.613H320.938L320.741 263.746L320.298 266.259L319.657 269.954L308.621 272.368C308.769 272.319 299.359 281.187 309.163 295.032Z" fill="#FFC0B8"/>
<path d="M338.541 317.591C337.852 316.606 336.127 306.161 338.738 298.229C333.023 296.554 334.009 312.369 324.5 317.591H338.541Z" fill="#C4626E"/>
<path d="M293.504 307.588C293.799 309.461 295.13 311.481 297.051 313.501C302.027 318.625 312.226 318.378 319.173 320.25L319.912 316.555C319.912 316.555 307.447 313.057 304.786 308.672C304.491 308.229 304.294 307.786 304.244 307.391C303.357 303.056 308.383 297.587 308.383 297.587L308.925 272.312C308.876 272.312 291.977 298.08 293.504 307.588Z" fill="#FFC0B8"/>
<path d="M328.388 316.605L328.24 319.068C327.994 318.97 328.043 318.674 328.289 318.625C334.497 317.344 344.696 319.118 349.672 314.881C352.726 312.269 354.401 309.067 354.796 306.604C356.323 297.095 339.818 271.82 339.818 271.82L340.409 297.046C340.409 297.046 345.435 302.465 344.548 306.85C344.4 307.638 343.76 308.574 342.873 309.609C339.178 313.994 328.388 316.605 328.388 316.605Z" fill="#FFC0B8"/>
<path d="M309.208 295.029C313.495 301.089 309.652 317.594 309.652 317.594H338.523C337.833 316.658 336.109 306.163 338.72 298.231C339.163 296.852 339.755 295.522 340.543 294.388C348.721 281.726 339.902 271.873 339.902 271.873L330.295 270.148L327.881 269.705C327.437 275.42 320.885 274.977 319.801 270.001L316.746 270.641L308.765 272.366C308.765 272.316 299.355 281.185 309.208 295.029Z" fill="#F2C45B"/>
<path d="M293.322 307.589C293.667 309.363 294.702 311.58 296.475 313.501C296.673 313.698 296.968 313.748 297.215 313.6L299.333 312.22L304.95 308.574C304.654 308.131 304.506 307.638 304.457 307.244C303.57 302.909 311.601 296.159 311.601 296.159L309.679 272.165C307.068 272.067 302.831 277.979 299.284 285.271C299.284 285.271 299.284 285.271 299.284 285.32C295.392 293.153 292.436 302.564 293.322 307.589Z" fill="#F2C45B"/>
<path d="M344.545 306.853C344.398 307.641 343.314 308.282 342.427 309.366L347.649 313.701L349.768 315.426C352.822 312.815 354.645 309.464 355.286 307.05C356.32 303.355 354.842 297 352.33 290.693C352.33 290.644 352.33 290.644 352.33 290.644C348.536 281.135 342.476 271.774 339.323 271.676L337.5 297.295C337.5 297.295 345.481 302.518 344.545 306.853Z" fill="#F2C45B"/>
<path d="M292.672 335.13C292.672 341.831 311.985 338.579 311.985 338.579C311.985 338.579 314.99 338.776 319.523 338.875C319.622 338.875 319.72 338.875 319.769 338.875C326.371 339.023 336.176 338.875 344.945 337.545C355.735 335.919 365.047 332.421 365.244 325.326V325.277C365.244 324.981 365.244 324.686 365.195 324.39C365.145 324.094 365.145 323.75 365.047 323.454C364.997 323.158 364.899 322.912 364.8 322.616C364.751 322.518 364.702 322.37 364.653 322.272C364.603 322.173 364.505 322.025 364.456 321.927C364.406 321.828 364.308 321.73 364.258 321.631C364.258 321.582 364.209 321.582 364.209 321.532C364.16 321.434 364.111 321.385 364.061 321.335C364.012 321.237 363.914 321.188 363.864 321.138C363.076 320.35 361.894 319.808 360.465 319.414C350.71 317 328.194 324.045 316.764 328.036C316.616 328.085 316.37 328.085 316.271 328.233C312.675 332.815 292.672 327.494 292.672 335.13Z" fill="#FFC0B8"/>
<path d="M311.039 328.828L312.665 340.209C318.676 340.357 334.589 340.209 342.669 338.928C354.444 337.056 365.135 333.114 365.283 325.379V325.33C365.283 325.034 365.283 324.739 365.234 324.443C365.185 324.147 365.185 323.802 365.086 323.507C365.037 323.211 364.938 322.965 364.84 322.669C364.791 322.571 364.741 322.423 364.692 322.324C364.643 322.226 364.544 322.078 364.495 321.98C364.446 321.881 364.347 321.782 364.298 321.684C364.298 321.635 364.249 321.635 364.249 321.585C364.199 321.487 364.15 321.438 364.101 321.388C364.052 321.29 363.953 321.241 363.904 321.191C363.066 320.354 361.834 319.713 360.356 319.319C350.306 316.56 322.42 324.886 311.039 328.828Z" fill="#6683C2"/>
<path d="M303.906 295.323V319.021C303.906 320.302 304.941 321.337 306.222 321.337H342.532C343.813 321.337 344.848 320.302 344.848 319.021V295.323C344.848 294.042 343.813 293.008 342.532 293.008H306.222C304.941 293.008 303.906 294.042 303.906 295.323Z" fill="#BEC4F2"/>
<path d="M327.998 307.149C327.998 305.129 326.372 303.553 324.401 303.553C322.381 303.553 320.805 305.179 320.805 307.149C320.805 309.169 322.431 310.746 324.401 310.746C326.372 310.795 327.998 309.169 327.998 307.149Z" fill="#C9CFFF"/>
<path d="M320.461 266.205C321.2 266.599 322.038 267.338 323.22 267.338C324.944 267.387 327.112 265.81 327.112 265.81L326.57 263.199H324.698L321.446 263.396L320.855 263.741L320.461 266.205Z" fill="#E2978D"/>
<path d="M303.906 295.323V319.021C303.906 320.302 304.941 321.337 306.222 321.337H342.532C343.813 321.337 344.848 320.302 344.848 319.021C308.094 320.696 303.906 315.326 306.222 293.008C304.941 293.008 303.906 294.042 303.906 295.323Z" fill="#C9CFFF"/>
<path d="M293.322 307.597C293.667 309.371 294.702 311.588 296.476 313.509C296.673 313.707 296.968 313.756 297.215 313.608L299.333 312.228C298.2 310.258 296.574 308.73 295.786 305.725C293.717 297.645 298.939 286.018 299.235 285.328C295.392 293.162 292.436 302.572 293.322 307.597Z" fill="#FFDC8C"/>
<path d="M332.301 256.059C332.301 256.059 336.046 248.57 331.415 245.319C329.148 238.273 318.999 243.151 315.058 242.609C314.22 242.51 313.432 242.954 313.185 243.791C312.644 245.811 313.974 247.93 313.777 250.59C313.678 251.625 313.038 252.561 314.22 254.679C315.452 256.798 332.301 256.059 332.301 256.059Z" fill="#6E6E6E"/>
<path d="M330.902 254.331C330.902 254.331 333.316 252.311 333.366 254.43C333.415 256.942 330.311 258.568 330.311 258.568C330.311 258.568 328.981 266.254 322.477 265.761C316.023 265.269 315.531 257.435 315.531 257.435C315.531 257.435 312.18 256.252 313.166 253.346C313.609 251.966 315.284 253.543 315.284 253.543L315.481 250.882C315.531 250.439 315.974 250.094 316.417 250.193C317.255 250.39 318.782 250.488 320.95 249.749C323.561 248.862 324.645 247.286 326.813 247.581C329.178 247.828 331.247 250.833 330.902 254.331Z" fill="#FFC0B8"/>
<path d="M316.836 270.588C317.427 273.101 319.053 276.156 323.586 276.156C328.71 276.156 330.04 272.51 330.335 270.096L327.921 269.652C327.478 275.367 320.925 274.924 319.841 269.948L316.836 270.588Z" fill="white"/>
<path d="M327.759 247.978C327.759 247.978 327.759 252.264 330.862 254.334L331.799 251.772C331.799 251.772 331.799 249.013 331.601 248.963C331.454 248.914 328.99 246.599 328.892 246.549C328.793 246.5 325.147 246.549 325.147 246.549C325.147 246.549 314.555 248.816 314.555 248.914C314.555 249.013 315.146 253.545 315.146 253.545C315.146 253.545 316.033 251.427 317.954 251.624C323.571 252.166 326.724 250.934 327.759 247.978Z" fill="#6E6E6E"/>
</svg>
