<svg width="309" height="248" viewBox="0 0 309 248" fill="none" xmlns="http://www.w3.org/2000/svg">
<path d="M312.679 234.623C312.562 235.213 312.443 235.798 312.321 236.377C309.394 250.257 304.731 261.251 298.368 267.566C255.573 273.448 25.8477 271.627 25.8477 271.627C15.1583 264.359 7.65535 251.668 3.58198 236.377C3.42703 235.796 3.27721 235.212 3.13253 234.623C-1.08296 217.509 -1.09751 197.35 3.41504 177.956C3.55031 177.371 3.69071 176.786 3.83625 176.202C8.70837 156.506 18.2848 137.723 32.9106 123.876C34.3685 122.494 35.7931 121.046 37.1886 119.536C37.7202 118.959 38.2467 118.375 38.7698 117.781C52.3965 102.336 63.2913 81.1256 76.0593 61.1148C76.4317 60.5281 76.8076 59.9441 77.1851 59.3601C87.7786 42.9665 99.7299 27.5227 115.603 16.902C116.5 16.3017 117.41 15.7159 118.333 15.1473C124.201 11.5308 130.594 8.56519 137.632 6.43026C173.763 -4.52703 202.692 -1.39013 229.313 15.1473C230.228 15.7168 231.142 16.3017 232.053 16.902C247.055 26.7991 261.368 40.9934 275.886 59.3601C276.344 59.9407 276.803 60.5256 277.263 61.1148C277.885 61.9103 278.505 62.7136 279.127 63.5246C290.232 78.0127 298.786 97.0618 304.847 117.781C305.018 118.365 305.187 118.949 305.354 119.536C306.629 124.02 307.79 128.579 308.834 133.182C308.906 133.5 308.978 133.819 309.049 134.138C309.069 134.228 309.089 134.315 309.109 134.404C309.571 136.482 310.009 138.569 310.425 140.662V140.665C311.435 145.759 312.307 150.887 313.042 156.012C313.44 158.79 313.798 161.568 314.114 164.339V164.342C314.571 168.316 314.943 172.276 315.233 176.203C315.276 176.788 315.318 177.373 315.357 177.957C316.766 198.723 315.854 218.505 312.678 234.623L312.679 234.623Z" fill="#EAEFFB"/>
<path d="M24.169 233.227C24.0748 233.418 23.9396 233.625 23.7324 233.647C23.5509 233.666 23.3822 233.522 23.3103 233.351C23.2376 233.178 23.241 232.985 23.2495 232.797C23.2906 231.963 23.4327 231.135 23.6716 230.336C23.7521 230.067 23.8522 229.788 24.0603 229.604C25.3213 228.487 24.4156 232.73 24.169 233.227Z" fill="#6683C2"/>
<path d="M18.4431 233.059C18.4637 233.18 18.4834 233.31 18.4474 233.413C18.3815 233.603 18.1512 233.609 17.9851 233.484C17.819 233.359 17.7026 233.148 17.5939 232.945C17.2643 232.327 16.9287 231.699 16.7463 231.02C16.5314 230.222 16.5785 228.807 17.4149 229.823C18.0313 230.572 18.2864 232.136 18.4431 233.059Z" fill="#6683C2"/>
<path d="M28.8209 192.766C29.7609 191.308 30.183 189.563 30.433 187.833C30.6427 186.383 30.8414 184.836 30.814 183.369C30.7917 182.179 30.04 180.919 28.8817 181.581C27.8424 182.175 26.9092 183.476 26.2398 184.454C25.0207 186.233 24.2022 188.304 23.8906 190.455C23.6946 191.808 23.2537 194.729 24.9984 195.295C26.3682 195.741 28.1789 193.762 28.8209 192.766Z" fill="#A1B2D7"/>
<path d="M20.5493 191.9C21.4876 194.048 22.0963 196.347 22.3454 198.687C22.4661 199.823 22.4909 201.028 21.9884 202.048C21.7555 202.52 21.3711 202.962 20.8626 203.049C20.0647 203.186 19.4072 202.43 18.9834 201.724C17.2652 198.854 16.4819 195.406 16.7858 192.053C16.8338 191.52 16.9168 190.969 17.2053 190.523C18.3456 188.765 20.0425 190.74 20.5501 191.9H20.5493Z" fill="#A1B2D7"/>
<path d="M30.7797 196.699C30.1616 198.485 29.2678 200.171 28.1412 201.674C27.6738 202.298 27.1507 202.904 26.4752 203.278C26.1961 203.433 25.81 203.529 25.5909 203.293C25.501 203.198 25.4607 203.064 25.4308 202.935C25.0926 201.483 25.6816 199.988 26.3117 198.642C27.0103 197.15 27.8322 195.579 29.1548 194.57C31.0879 193.094 31.3465 195.06 30.7806 196.699H30.7797Z" fill="#A1B2D7"/>
<path d="M22.208 219.371L21.9512 219.362C21.9537 219.298 22.2003 212.893 23.2088 205.218C24.1402 198.128 25.9312 188.474 29.1742 182.736L29.3976 182.863C26.1752 188.564 24.3919 198.184 23.4639 205.25C22.4571 212.914 22.2106 219.308 22.208 219.372V219.371Z" fill="#E0BA89"/>
<path d="M21.8019 218.768L21.5476 218.73C22.5784 211.947 21.0896 199.279 18.3604 191.619L18.6026 191.532C21.343 199.225 22.8378 211.952 21.8019 218.768Z" fill="#E0BA89"/>
<path d="M23.7443 217.571C23.3702 214.463 23.6852 210.399 24.5859 206.698C25.3598 203.52 26.9436 199.011 30.0958 195.57L30.285 195.744C24.5473 202.005 23.3839 212.436 23.9986 217.54L23.7434 217.571H23.7443Z" fill="#E0BA89"/>
<path d="M16.2704 212.122C18.189 211.089 20.3044 210.867 20.3044 208.523V206.5C20.3044 206.285 20.5253 206.114 20.7881 206.125L22.9592 206.218L25.1303 206.125C25.3931 206.114 25.614 206.285 25.614 206.5V208.016C25.614 209.053 26.1208 210.065 27.0103 210.804C27.9255 211.565 29.2919 211.752 30.1463 212.508C30.6197 212.928 30.927 213.454 31.1702 213.989C32.9886 217.983 30.8209 222.333 29.6514 226.267C28.8356 229.014 28.0188 231.761 27.203 234.508C27.1918 234.546 27.1798 234.586 27.1687 234.624H17.3277C16.7627 232.029 16.1977 229.435 15.6335 226.84C15.2089 224.89 13.8451 218.795 13.7946 217.658C13.7441 216.521 13.9495 215.376 14.4153 214.303C14.78 213.463 15.333 212.634 16.2413 212.14C16.2516 212.135 16.2619 212.129 16.2713 212.124L16.2704 212.122Z" fill="#A1B2D7"/>
<path d="M19.3466 210.313C19.814 210.452 20.2361 210.58 20.4997 210.617C22.0639 210.833 23.6545 211.043 25.2349 210.958C25.8479 210.925 26.4634 210.841 27.0413 210.703C27.0815 210.736 27.1218 210.77 27.1637 210.803C27.543 211.1 27.995 211.309 28.459 211.499C27.3246 211.961 25.9651 212.194 24.6091 212.236C22.8403 212.291 21.0665 212.043 19.356 211.705C19.0649 211.647 18.3971 211.479 17.791 211.248C18.3997 210.986 18.9459 210.706 19.3491 210.313H19.3466Z" fill="#6683C2"/>
<path d="M23.6571 209.065C22.45 209.074 21.236 208.975 20.04 208.82C20.0486 208.725 20.0546 208.626 20.0546 208.523V207.824C21.4466 207.989 22.8558 208.13 24.2495 208.095C24.7349 208.083 25.2204 208.046 25.6869 207.983V208.016C25.6869 208.319 25.734 208.619 25.8231 208.912C25.1262 209.01 24.3925 209.059 23.658 209.065H23.6571Z" fill="#6683C2"/>
<path d="M29.2252 217.417C29.2081 217.879 29.1627 218.4 28.8108 218.688C28.7492 218.739 28.6738 218.781 28.5951 218.775C28.4744 218.764 28.3905 218.647 28.34 218.533C28.1645 218.139 28.1833 217.688 28.1756 217.255C28.161 216.498 27.1354 213.587 28.0069 213.494C29.4332 213.343 29.2526 216.695 29.226 217.418L29.2252 217.417Z" fill="#6683C2"/>
<path d="M23.9399 216.478C23.9408 217.217 23.9416 217.956 23.9425 218.696C23.9425 218.851 23.9408 219.016 23.862 219.149C23.7088 219.41 23.3184 219.425 23.0744 219.252C22.8304 219.079 22.7029 218.782 22.6112 218.493C22.2714 217.42 22.256 216.243 22.5684 215.162C22.7251 214.621 23.1018 213.995 23.6403 214.452C24.0367 214.789 23.9382 216.01 23.9391 216.478H23.9399Z" fill="#6683C2"/>
<path d="M23.6089 230.628C23.6097 231.367 23.6106 232.106 23.6114 232.845C23.6114 233.001 23.6097 233.166 23.531 233.299C23.3777 233.56 22.9873 233.575 22.7434 233.402C22.4994 233.229 22.3718 232.932 22.2802 232.642C21.9403 231.57 21.9249 230.393 22.2374 229.312C22.3941 228.771 22.7707 228.145 23.3092 228.602C23.7056 228.939 23.6072 230.16 23.608 230.628H23.6089Z" fill="#6683C2"/>
<path d="M26.5985 218.459C26.5506 218.675 26.4667 218.917 26.2646 218.993C26.0874 219.059 25.8836 218.958 25.7681 218.805C25.6534 218.652 25.608 218.457 25.5712 218.267C25.4068 217.42 25.3443 216.554 25.3871 215.691C25.4017 215.401 25.4325 215.096 25.596 214.857C26.5848 213.412 26.7226 217.897 26.5985 218.459Z" fill="#6683C2"/>
<path d="M25.5019 228.434C25.4257 228.64 25.311 228.87 25.1004 228.915C24.9155 228.956 24.7271 228.828 24.6338 228.66C24.5405 228.492 24.5217 228.293 24.5105 228.099C24.46 227.238 24.514 226.37 24.6706 225.522C24.7237 225.236 24.7956 224.938 24.9882 224.725C26.1603 223.431 25.6997 227.894 25.5019 228.433V228.434Z" fill="#6683C2"/>
<path d="M27.8755 224.343C27.7907 224.546 27.6657 224.77 27.4534 224.806C27.2676 224.837 27.0844 224.701 26.998 224.529C26.9115 224.357 26.9021 224.156 26.8987 223.963C26.8858 223.101 26.9766 222.236 27.17 221.396C27.2351 221.113 27.3199 220.819 27.5219 220.614C28.7487 219.375 28.0955 223.812 27.8746 224.342L27.8755 224.343Z" fill="#6683C2"/>
<path d="M20.5811 218.581C20.5443 218.714 20.5023 218.855 20.4004 218.945C20.2112 219.112 19.8988 219.021 19.7395 218.823C19.5803 218.625 19.5366 218.36 19.4973 218.107C19.3783 217.337 19.2593 216.553 19.3705 215.781C19.5015 214.874 20.3123 213.448 20.9021 214.838C21.337 215.863 20.8568 217.571 20.5802 218.58L20.5811 218.581Z" fill="#6683C2"/>
<path d="M21.1924 228.641C21.1556 228.775 21.1137 228.915 21.0118 229.005C20.8226 229.172 20.5092 229.081 20.3509 228.884C20.1925 228.686 20.148 228.42 20.1086 228.168C19.9896 227.398 19.8706 226.613 19.9819 225.842C20.1129 224.935 20.9236 223.508 21.5135 224.899C21.9484 225.924 21.4681 227.632 21.1916 228.64L21.1924 228.641Z" fill="#6683C2"/>
<path d="M23.5069 225.522C23.4701 225.655 23.4281 225.796 23.3262 225.886C23.137 226.053 22.8237 225.962 22.6653 225.764C22.5069 225.566 22.4624 225.301 22.423 225.048C22.304 224.278 22.185 223.494 22.2963 222.722C22.4273 221.815 23.2381 220.389 23.8279 221.779C24.2628 222.804 23.7825 224.512 23.506 225.521L23.5069 225.522Z" fill="#6683C2"/>
<path d="M18.2206 214.313C18.4175 215.54 18.2711 216.823 17.8037 217.971C17.7712 218.051 17.7352 218.132 17.6719 218.189C17.5237 218.32 17.2789 218.259 17.1471 218.111C17.0152 217.962 16.9698 217.755 16.9356 217.557C16.8038 216.801 16.7652 216.029 16.82 215.262C16.8714 214.549 17.9732 212.774 18.2206 214.313Z" fill="#6683C2"/>
<path d="M18.8031 221.193C19.2971 222.329 19.4726 223.609 19.3039 224.84C19.2919 224.926 19.2774 225.014 19.2303 225.085C19.1199 225.251 18.8673 225.255 18.7029 225.146C18.5386 225.036 18.4435 224.848 18.3614 224.665C18.0472 223.968 17.8186 223.231 17.6825 222.476C17.5558 221.772 18.1833 219.769 18.8023 221.194L18.8031 221.193Z" fill="#6683C2"/>
<path d="M297.727 226.924C297.727 234.021 291.423 234.609 283.649 234.609C279.835 234.609 276.331 234.831 273.796 233.495C271.163 232.108 269.571 230.54 269.571 226.924C269.571 221.229 273.878 214.574 279.499 212.327C280.166 212.061 279.721 208.734 278.504 206.656C277.936 205.686 279.888 205.369 281.85 206.644C281.637 205.319 282.804 204.717 283.613 204.717C284.422 204.717 285.198 205.14 285.298 206.599C286.468 205.393 288.839 205.576 288.216 206.427C287.009 208.081 286.282 212.163 286.817 212.315C291.372 213.603 295.083 217.532 296.76 221.932C297.385 223.568 297.728 225.271 297.728 226.926L297.727 226.924Z" fill="#A1B2D7"/>
<path d="M286.908 210.618H279.655C279.626 210.618 279.602 210.642 279.602 210.672V211.877C279.602 211.906 279.626 211.93 279.655 211.93H286.908C286.937 211.93 286.962 211.906 286.962 211.877V210.672C286.962 210.642 286.937 210.618 286.908 210.618Z" fill="#6683C2"/>
<path d="M277.267 61.1155H76.0645C76.4369 60.5289 76.8127 59.9449 77.1902 59.3608H275.89C276.349 59.9415 276.807 60.5264 277.267 61.1155Z" fill="#A1B2D7"/>
<path d="M232.044 16.9031H115.595C116.492 16.3028 117.402 15.7171 118.325 15.1484H229.305C230.22 15.7179 231.134 16.3028 232.044 16.9031Z" fill="#A1B2D7"/>
<path d="M305.342 119.536H37.1768C37.7084 118.96 38.2349 118.376 38.758 117.782H304.835C305.006 118.366 305.175 118.95 305.342 119.536Z" fill="#A1B2D7"/>
<path d="M315.354 177.957H3.41211C3.54737 177.372 3.68778 176.787 3.83332 176.203H315.23C315.273 176.788 315.315 177.373 315.354 177.957Z" fill="#A1B2D7"/>
<path d="M312.666 234.623C312.55 235.213 312.431 235.798 312.308 236.378H3.57055C3.4156 235.796 3.26578 235.212 3.12109 234.623H312.666Z" fill="#A1B2D7"/>
<path d="M248.536 40.4971H212.178V59.3629H248.536V40.4971Z" fill="#A1B2D7"/>
<path d="M231.664 43.7639C231.664 43.1036 231.077 42.5684 230.354 42.5684C229.63 42.5684 229.044 43.1036 229.044 43.7639C229.044 44.2897 229.417 44.7358 229.934 44.8951V46.4649H230.773V44.8951C231.29 44.7358 231.664 44.2897 231.664 43.7639Z" fill="#6683C2"/>
<path d="M314.136 164.34V164.342L312.741 176.203L312.738 176.233L312.436 176.203L304.309 175.407L309.131 134.406C309.593 136.484 310.032 138.571 310.448 140.664V140.666C311.457 145.76 312.329 150.888 313.064 156.013C313.463 158.791 313.821 161.57 314.137 164.341L314.136 164.34Z" fill="#A1B2D7"/>
<path d="M313.068 156.012L312.175 163.599L307.805 163.171L310.452 140.665C311.461 145.758 312.334 150.886 313.068 156.012Z" fill="#6683C2"/>
<path d="M309.054 134.139L301.602 176.17L290.753 174.568L298.365 131.637L308.838 133.183C308.911 133.502 308.983 133.82 309.054 134.14V134.139Z" fill="#A1B2D7"/>
<path d="M300.83 165.448L295.204 164.617L299.151 142.357L304.776 143.188L300.83 165.448Z" fill="#6683C2"/>
<path d="M286.631 176.065L281.115 174.758L291.192 139.321L296.707 140.628L286.631 176.065Z" fill="#A1B2D7"/>
<path d="M285.905 173.668L283.045 172.99L291.938 141.715L294.798 142.393L285.905 173.668Z" fill="#6683C2"/>
<path d="M104.633 117.782V112.404H57.5023V117.782H104.633Z" fill="#A1B2D7"/>
<path d="M93.2959 116.487V113.699H68.8583V116.487H93.2959Z" fill="#6683C2"/>
<path d="M107.93 112.406V105.436H68.4708V112.406H107.93Z" fill="#A1B2D7"/>
<path d="M98.4404 110.728V107.113H77.9803V110.728H98.4404Z" fill="#6683C2"/>
<path d="M96.0547 105.559V101.944H62.8377V105.559H96.0547Z" fill="#A1B2D7"/>
<path d="M94.1045 104.69V102.815H64.7879V104.69H94.1045Z" fill="#6683C2"/>
<path d="M169.602 103.727C172.456 104.136 175.557 104.886 177.256 107.216C179.154 109.818 179.227 113.019 178.022 116.005C183.912 111.568 187.665 105.597 189.626 98.4878C190.869 93.985 191.163 89.2775 191.276 84.6077C191.351 81.4785 191.344 78.3039 190.538 75.2792C188.887 69.0774 184.089 64.2123 178.971 60.3415C175.424 57.6585 171.611 55.2889 167.477 53.6507C162.686 51.753 157.499 50.8658 152.351 51.0644C150.024 51.1543 147.608 51.4986 145.68 52.8046C144.501 53.6036 143.575 54.716 142.696 55.8361C138.972 60.5864 135.769 65.8471 134.106 71.6499C132.183 78.3596 132.403 85.5779 134.089 92.3501C135.279 97.1287 137.181 101.704 139.503 106.038C140.262 107.456 143.866 112.453 143.866 112.453C143.866 112.453 143.521 109.392 145.051 107.404C147.763 103.884 162.266 102.677 169.601 103.726L169.602 103.727Z" fill="#28252B"/>
<path d="M178.571 130.392C174.37 121.505 171.439 106.577 172.057 93.3189C172.463 92.5662 151.212 93.3223 151.619 94.0751C152.236 107.333 150.109 121.505 145.908 130.392C144.552 133.263 146.902 137.9 148.311 140.68C149.948 143.909 151.965 146.931 154.556 149.475C156.276 151.164 159.228 153.578 162.16 154.464V154.514C162.187 154.506 162.212 154.496 162.239 154.489C162.265 154.496 162.291 154.506 162.318 154.514V154.464C165.25 153.578 168.202 151.164 169.921 149.475C172.513 146.931 174.53 143.909 176.167 140.68C177.576 137.901 179.926 133.263 178.569 130.392H178.571Z" fill="#F1BBA2"/>
<g style="mix-blend-mode:multiply" opacity="0.28">
<path d="M170.799 105.771C170.936 105.676 159.453 103.836 151.648 102.599C151.564 104.758 151.414 106.908 151.196 109.021C154.942 110.836 163.899 113.868 170.799 105.771Z" fill="#F1BBA2"/>
</g>
<path d="M188.202 66.1154C187.459 71.3556 184.472 84.4512 182.619 89.0191C178.861 98.2868 173.985 106.103 163.434 109.232C161.921 109.681 160.348 109.823 158.817 109.368C150.208 106.807 143.689 97.9108 140.534 90.1958C138.231 84.5625 135.917 78.9139 134.224 73.0606C131.782 64.6236 130.127 56.7253 133.941 48.5213C137.136 41.6506 143.087 36.0619 150.218 33.462C155.122 31.6739 159.289 32.8539 164.211 32.8145C166.715 32.794 168.451 32.3821 171.026 33.098C175.945 34.4648 180.536 37.2137 183.664 41.2995C189.251 48.5983 189.492 57.0225 188.202 66.1154Z" fill="#F1BBA2"/>
<path d="M190.231 48.9564C187.224 41.2448 180.804 35.007 173.129 31.9121C171.027 31.0643 169.074 31.4762 167.076 30.9923C166.888 30.9469 166.706 30.8904 166.529 30.8296C166.005 29.9878 165.371 29.2847 164.6 28.7974C162.797 27.6559 155.433 28.3487 150.904 29.9398C130.517 37.1051 127.459 59.244 127.229 62.4426C126.777 68.7095 126.663 75.0064 127.074 81.2759C127.483 87.5 128.435 93.7875 131.038 99.4558C133.641 105.124 138.062 110.158 143.859 112.454C138.942 101.856 136.931 89.9261 138.1 78.3017C138.282 76.4939 138.544 74.6724 139.224 72.9879C139.985 71.0996 141.213 69.5059 142.671 68.0912C144.217 67.0781 145.877 66.208 147.537 65.4407C148.893 64.8147 150.277 64.229 151.655 63.6321C154.889 62.2328 158.09 60.7718 160.829 58.5889C161.13 58.7987 161.437 58.9983 161.745 59.1858C163.997 60.5586 166.438 61.6033 168.796 62.7851C170.167 63.4728 171.511 64.2059 172.774 65.0776C175.476 66.942 177.754 69.4177 179.388 72.266C180.114 73.5335 180.761 74.9268 181.951 75.7746C184.257 77.418 187.313 74.8685 188.481 72.8869C192.685 65.7576 193.237 56.6689 190.23 48.9573L190.231 48.9564Z" fill="#363537"/>
<path d="M173.267 82.71C173.135 84.2746 174.483 85.5103 175.722 84.0485C176.255 83.4191 176.299 82.2133 176.105 81.4391C175.894 80.599 175.032 80.0398 174.22 80.5305C173.56 80.9296 173.328 81.9906 173.267 82.71Z" fill="#363537"/>
<path d="M161.17 97.1592C159.596 97.1592 158.023 96.9382 156.495 96.4972C156.427 96.4775 156.388 96.4064 156.407 96.3379C156.426 96.2694 156.498 96.23 156.566 96.2497C159.529 97.1052 162.665 97.1189 165.636 96.2882C165.704 96.2694 165.775 96.3088 165.794 96.3773C165.813 96.4458 165.774 96.5169 165.705 96.5357C164.221 96.9511 162.694 97.1583 161.169 97.1583L161.17 97.1592Z" fill="#A45236"/>
<path d="M159.559 99.6604C159.489 99.6604 159.432 99.6039 159.431 99.5337C159.43 99.4626 159.486 99.4044 159.557 99.4035L162.22 99.3667C162.293 99.3667 162.349 99.4224 162.35 99.4934C162.351 99.5645 162.294 99.6228 162.223 99.6236L159.561 99.6604H159.559Z" fill="#A45236"/>
<path d="M162.679 91.4838C162.668 91.4838 162.656 91.4821 162.644 91.4795C161.77 91.2398 160.931 90.8193 160.215 90.2626C159.995 90.0914 159.749 89.879 159.596 89.5972C159.236 88.9387 159.473 88.1585 159.683 87.47L159.705 87.3981C160.387 85.1518 160.498 82.7488 160.028 80.4495C160.014 80.3801 160.059 80.3124 160.128 80.2979C160.198 80.2842 160.265 80.3287 160.28 80.3981C160.758 82.7394 160.645 85.1861 159.951 87.4726L159.929 87.5454C159.724 88.2168 159.514 88.9104 159.822 89.4739C159.953 89.7146 160.175 89.9047 160.373 90.0597C161.062 90.5958 161.871 91.0008 162.713 91.2312C162.781 91.25 162.822 91.3203 162.803 91.3888C162.787 91.4461 162.735 91.483 162.679 91.483V91.4838Z" fill="#A45236"/>
<path d="M178.685 77.2942C178.65 76.8797 177.545 76.2631 177.33 76.1518C176.58 75.7664 175.749 75.5403 174.908 75.4966C173.955 75.4478 172.974 75.7056 172.117 76.1098C171.536 76.3838 170.038 77.259 171.249 77.909C171.662 78.1308 172.166 77.9613 172.613 77.8183C174.288 77.2847 176.101 77.194 177.821 77.5588C178.011 77.599 178.211 77.6444 178.397 77.5862C178.615 77.5168 178.695 77.4141 178.685 77.2933V77.2942Z" fill="#363537"/>
<path d="M150.893 82.71C151.025 84.2746 149.677 85.5103 148.438 84.0485C147.904 83.4191 147.861 82.2133 148.055 81.4391C148.266 80.599 149.128 80.0398 149.939 80.5305C150.599 80.9296 150.832 81.9906 150.893 82.71Z" fill="#363537"/>
<path d="M145.47 77.2946C145.505 76.8802 146.609 76.2636 146.825 76.1523C147.574 75.7669 148.405 75.5408 149.247 75.4971C150.2 75.4483 151.181 75.7061 152.038 76.1103C152.618 76.3843 154.116 77.2595 152.906 77.9095C152.492 78.1313 151.988 77.9618 151.541 77.8187C149.867 77.2852 148.053 77.1945 146.333 77.5593C146.143 77.5995 145.943 77.6449 145.757 77.5867C145.539 77.5173 145.459 77.4145 145.47 77.2938V77.2946Z" fill="#363537"/>
<path d="M185.617 73.0248C187.982 71.8892 190.994 73.2226 192.268 75.3515C193.542 77.4805 193.456 80.1155 192.996 82.5528C192.695 84.1482 192.236 85.7496 191.317 87.1352C190.399 88.52 188.964 89.6752 187.271 90.016C185.579 90.3569 183.653 89.742 182.814 88.3513C182.513 87.852 182.361 87.2851 182.237 86.7199C181.405 82.9338 181.029 75.2282 185.617 73.0248H185.617Z" fill="#F1BBA2"/>
<path d="M183.748 86.0677C183.723 86.0677 183.702 86.048 183.7 86.0223C183.558 83.5003 184.339 80.8901 185.842 78.8614C187.016 77.2762 188.491 76.413 189.883 76.4918C189.909 76.4935 189.929 76.5158 189.928 76.5423C189.927 76.5689 189.904 76.5894 189.878 76.5877C187.942 76.4781 186.465 78.1814 185.919 78.9187C184.429 80.9304 183.656 83.5174 183.796 86.0172C183.798 86.0437 183.777 86.066 183.751 86.0677C183.75 86.0677 183.749 86.0677 183.748 86.0677Z" fill="#A45236"/>
<path d="M184.376 81.8062C184.36 81.8062 184.344 81.7976 184.334 81.7822C184.321 81.7591 184.329 81.73 184.352 81.7171C185.889 80.8342 187.689 80.8291 188.937 81.7034C188.958 81.7188 188.963 81.7488 188.949 81.7702C188.933 81.7916 188.903 81.7968 188.882 81.7822C187.665 80.9284 185.905 80.9361 184.4 81.8002C184.393 81.8045 184.385 81.8062 184.376 81.8062Z" fill="#A45236"/>
<path d="M132.466 74.3435C129.854 74.0995 127.492 76.3954 127.036 78.8344C126.579 81.2733 127.574 83.7148 128.85 85.8412C129.686 87.2328 130.672 88.5756 132.015 89.5561C133.357 90.5358 135.103 91.1216 136.809 90.8535C138.514 90.5855 140.107 89.3403 140.411 87.7449C140.52 87.172 140.467 86.5871 140.387 86.0142C139.854 82.1751 137.534 74.818 132.466 74.3435Z" fill="#F1BBA2"/>
<path d="M138.704 86.0178C138.649 86.0178 138.598 85.9827 138.581 85.927C137.851 83.5515 136.24 81.4097 134.16 80.0506C133.404 79.5556 131.455 78.4869 129.715 79.2456C129.65 79.2739 129.575 79.2439 129.547 79.1788C129.519 79.1137 129.548 79.0384 129.614 79.0101C130.919 78.4406 132.628 78.7421 134.302 79.8357C136.431 81.2273 138.08 83.4204 138.828 85.8517C138.848 85.9193 138.811 85.9913 138.743 86.0118C138.73 86.0161 138.717 86.0178 138.705 86.0178H138.704Z" fill="#A45236"/>
<path d="M132.403 83.7919C132.379 83.7919 132.353 83.7842 132.331 83.7688C132.272 83.7286 132.258 83.6481 132.298 83.5898C133.183 82.3104 134.904 81.6776 136.682 81.9773C136.752 81.9893 136.8 82.0552 136.788 82.1254C136.776 82.1957 136.71 82.2419 136.639 82.2308C134.959 81.9482 133.337 82.5382 132.509 83.7363C132.484 83.7722 132.444 83.7919 132.403 83.7919Z" fill="#A45236"/>
<path d="M180.426 87.6844C181.249 97.513 179.769 107.409 177.422 116.989C186.334 110.929 193.162 101.642 195.557 91.1321C195.881 89.7123 196.125 88.2761 196.328 86.8349C197.998 75.0452 197.343 58.0051 188.241 44.8846C187.332 43.5744 180.195 44.8435 178.969 43.8253C177.603 42.6906 186.499 46.2548 184.728 46.3696C182.957 46.4843 181.251 47.0786 179.615 47.7689C177.1 48.8291 174.686 50.1282 172.415 51.6422C171.626 52.168 170.824 52.7547 170.403 53.605C169.914 54.5933 170.024 55.7597 170.146 56.8558C170.488 59.9345 170.779 61.1754 172.504 63.7522C174.072 66.0961 175.396 68.601 176.49 71.2009C178.586 76.1884 180.425 82.2216 180.425 87.6861L180.426 87.6844Z" fill="#363537"/>
<path d="M214.656 149.907C208.567 141.634 197.875 139.144 189.027 135.03C184.338 132.85 180.182 130.778 176.993 126.635C176.15 125.539 148.916 123.76 147.404 126.747C145.126 131.248 139.492 132.85 134.803 135.03C125.954 139.144 116.536 142.453 110.446 150.727C107.24 155.082 104.593 159.925 105.446 165.266C106.12 169.489 108.088 173.372 109.809 177.287C116.138 191.683 125.318 241.888 129.669 268.11C145.492 277.081 183.148 272.101 193.426 268.688C197.935 241.919 207.835 191.354 214.02 177.286C215.741 173.372 217.709 169.488 218.383 165.265C219.236 159.924 217.861 154.262 214.655 149.906L214.656 149.907Z" fill="#F1BBA2"/>
<path d="M197.636 138.623C197.636 138.623 166.044 144.369 131.007 136.681C114.784 140.968 103.639 154.308 96.1167 170.802C85.0044 195.166 117.074 178.359 118.886 215.896C118.947 217.154 120.662 218.914 120.601 218.77C121.489 220.875 121.603 223.749 122.048 225.998C123.074 231.181 124.06 236.372 125.02 241.568C126.652 250.401 128.206 259.249 129.677 268.111C145.5 277.082 183.156 272.102 193.434 268.689C197.943 241.92 207.843 191.355 214.029 177.287C215.749 173.372 218.069 152.538 215.802 149.128C210.875 141.717 197.637 138.622 197.637 138.622L197.636 138.623Z" fill="white"/>
<path d="M216.239 149.941C228.525 166.634 235.932 195.091 243.059 216.099C250.277 237.376 249.822 242.759 247.76 247.818C244.692 255.342 218.477 247.325 213.073 235.236C207.668 223.145 199.702 200.075 196.362 189.67C193.023 179.266 197.882 152.904 216.239 149.94V149.941Z" fill="white"/>
<path d="M197.635 230.697C197.635 248.009 178.872 262.044 155.726 262.044C145.219 262.044 135.616 259.153 128.261 254.375C123.551 251.316 119.762 247.483 117.249 243.141C116.665 242.132 110.374 242.885 109.487 242.153C107.882 240.832 108.594 228.935 109.916 227.362C110.372 226.817 114.253 226.012 114.536 224.882C118.182 210.349 135.237 199.351 155.726 199.351C169.281 199.351 181.333 204.163 188.994 211.63C194.414 216.913 197.635 223.524 197.635 230.697Z" fill="#FCC583"/>
<path d="M135.291 210.681C133.985 211.382 132.717 211.498 131.62 211.226C131.528 211.127 131.441 211.025 131.36 210.919C131.343 210.897 131.322 210.879 131.304 210.859C128.692 208.008 127.609 199.981 128.32 198.088C128.4 197.873 128.531 197.735 128.705 197.665C129.068 197.516 129.617 197.659 130.276 197.999C132.72 199.538 135.358 201.444 136.181 202.438C137.665 204.23 139.445 208.446 135.291 210.679V210.681Z" fill="#FCC583"/>
<path d="M195.802 223.557C197.469 223.87 199.797 223.626 201.001 222.654C203.152 220.917 204.001 218.131 204.559 215.481C204.791 214.135 205.358 211.441 204.158 210.439C203.385 209.805 202.202 210.301 201.737 211.098C201.278 211.881 201.315 212.834 201.538 213.7C202.517 217.365 206.995 219.506 210.509 218.209C213.295 217.175 213.942 215.641 213.338 216.533C210.62 220.544 204.005 219.45 201.658 215.446C200.801 213.988 200.311 211.831 201.513 210.419C202.243 209.587 203.607 209.233 204.517 209.992C205.992 211.236 205.565 213.92 205.249 215.532C204.765 217.711 204.272 220.679 202.956 222.516C201.363 224.793 198.539 226.896 195.683 226.233C194.054 225.886 193.687 223.161 195.801 223.558L195.802 223.557Z" fill="#FCC583"/>
<path d="M174.212 205.218C169.798 203.919 164.358 203.032 158.451 202.777C152.466 202.519 146.903 202.948 142.361 203.887C142.161 203.661 141.933 203.546 141.643 203.352C145.456 201.659 151.494 200.857 158.518 201.218C166.446 201.625 171.128 202.867 174.83 204.741C174.649 204.871 174.454 205.021 174.213 205.218H174.212Z" fill="#BD8440"/>
<path d="M128.517 220.994C128.724 219.561 128.348 218.321 127.676 218.224C127.005 218.127 126.292 219.21 126.085 220.642C125.878 222.075 126.254 223.316 126.926 223.413C127.597 223.51 128.31 222.427 128.517 220.994Z" fill="#BD8440"/>
<path d="M114.099 145.607C98.0017 158.662 80.6886 186.151 68.4968 204.683C56.1491 223.452 53.4524 238.209 61.57 244.061C68.1603 248.812 84.4136 241.099 92.6887 230.765C100.967 220.428 114.491 200.113 120.346 190.888C126.201 181.661 131.116 153.106 114.099 145.608V145.607Z" fill="white"/>
<path d="M131.873 181.703C131.822 181.745 131.771 181.791 131.718 181.838C131.681 181.871 131.643 181.906 131.605 181.941C130.762 182.713 127.692 183.735 126.23 185.453C114.637 199.065 87.7873 238.776 79.2802 242.827C69.5796 247.446 62.7932 245.641 59.9458 240.681C55.893 233.622 58.7267 225.187 66.3187 216.797C73.4706 208.892 109.116 184.065 119.366 171.794C119.994 171.042 120.528 170.337 120.952 169.686C120.952 169.685 120.954 169.684 120.955 169.683C124.004 165.009 132.602 171.689 133.416 177.358C133.651 178.988 133.242 180.534 131.873 181.703Z" fill="#F1BBA2"/>
<path d="M124.639 167.718C123.118 166.501 123.615 164.52 125.606 161.917C127.598 159.315 133.261 152.506 134.639 150.813C136.017 149.119 140.878 144.167 143.279 144.376C145.508 144.57 139.343 153.39 138.761 154.167C138.178 154.944 131.077 163.554 129.652 165.366C128.228 167.178 126.394 169.122 124.64 167.717L124.639 167.718Z" fill="#F1BBA2"/>
<path d="M130.748 167.132C129.228 165.915 129.724 163.933 131.716 161.331C133.707 158.728 139.37 151.92 140.748 150.226C142.125 148.532 146.961 143.581 149.387 143.79C151.618 143.981 145.452 152.804 144.87 153.581C144.287 154.357 137.185 162.967 135.761 164.779C134.336 166.591 132.502 168.535 130.748 167.131V167.132Z" fill="#F1BBA2"/>
<path d="M151.303 170.002C152.265 171.278 153.354 172.952 154.145 173.48C154.935 174.008 160.472 177.915 156.612 170.329C152.752 162.742 153.708 163.204 151.635 160.445C149.56 157.687 142.861 160.974 136.946 163.714C130.821 166.551 130.033 169.416 130.835 170.769C131.637 172.123 134.031 173.881 137.839 171.038C141.622 168.213 147.56 164.428 148.641 166.129C149.722 167.83 150.479 168.91 151.303 170.002Z" fill="#F1BBA2"/>
<path d="M137.149 166.837C135.628 165.621 136.125 163.639 138.116 161.036C140.107 158.434 145.771 151.626 147.149 149.932C148.526 148.238 153.747 142.886 155.789 143.495C157.933 144.135 151.853 152.509 151.271 153.286C150.688 154.063 143.587 162.673 142.162 164.485C140.737 166.297 138.904 168.241 137.149 166.837L137.149 166.837Z" fill="#F1BBA2"/>
<path d="M142.917 181.568C144.199 183.198 146.282 183.991 147.269 185.089C148.256 186.186 149.053 188.653 145.618 187.747C142.183 186.841 141.138 185.697 138.337 184.653C136.413 183.936 134.776 184.558 132.498 184.49C129.613 184.403 129.683 182.612 127.046 184.653C123.913 187.076 145.494 160.823 142.97 163.744C140.673 166.4 137.098 171.351 137.839 175.734C138.213 177.948 141.828 180.182 142.918 181.568H142.917Z" fill="#F1BBA2"/>
<path d="M140.886 166.216C140.886 166.216 140.863 166.498 140.818 166.988C140.767 167.536 132.771 181.22 131.706 181.838C131.643 181.875 131.58 181.912 131.516 181.95C130.659 182.466 129.084 182.051 128.288 182.686C127.327 183.45 126.121 184.235 125.432 184.82C122.674 187.159 113.131 183.013 116.709 177.374C117.731 175.764 118.654 174.071 119.551 172.361C120.018 171.471 120.478 170.577 120.941 169.686C120.941 169.685 120.943 169.684 120.943 169.683C122.352 166.976 123.792 164.314 125.553 161.956C125.96 161.41 126.384 160.881 126.829 160.371C129.007 157.877 138.893 162.773 140.886 166.216Z" fill="#F1BBA2"/>
<path d="M132.745 161.294C132.718 161.294 132.692 161.286 132.669 161.269C132.612 161.226 132.6 161.146 132.642 161.089C132.686 161.03 137.102 155.094 141.689 149.305C141.733 149.249 141.814 149.24 141.869 149.284C141.925 149.328 141.934 149.41 141.89 149.465C137.305 155.252 132.892 161.184 132.849 161.243C132.824 161.277 132.784 161.294 132.746 161.294H132.745Z" fill="#E8825F"/>
<path d="M138.182 162.512C138.156 162.512 138.128 162.503 138.105 162.486C138.049 162.443 138.037 162.364 138.079 162.306C138.128 162.241 142.981 155.735 147.568 149.946C147.612 149.89 147.693 149.881 147.749 149.926C147.804 149.969 147.814 150.051 147.769 150.106C143.185 155.893 138.333 162.395 138.285 162.46C138.26 162.495 138.221 162.512 138.182 162.512Z" fill="#E8825F"/>
<path d="M248.118 240.44C245.28 232.811 236.982 229.599 225.68 230.079C214.378 230.558 173.97 244.81 160.604 243.267C153.469 242.443 154.375 255.888 162.387 256.774C170.399 257.661 227.661 261.198 237.412 256.687C247.163 252.176 250.112 245.801 248.118 240.44Z" fill="#F1BBA2"/>
<path d="M138.59 251.387C137.932 247.371 137.597 243.473 138.301 239.686C140.71 239.938 143.946 240.104 146.181 240.512C149.601 241.153 152.899 242.239 156.307 243.122C158.054 243.568 159.36 242.434 160.973 242.558C162.838 242.703 169.005 242.902 172.486 242.359C174.687 242.016 172.102 247.377 172.795 249.45C172.881 249.705 172.961 249.967 172.938 250.207C172.912 250.493 172.737 250.71 172.568 250.913C170.722 253.124 171.02 257.233 167.806 257.233C163.636 257.233 159.186 257.576 155.896 257.561C151.119 257.585 144.686 257.362 139.506 257.231C138.382 255.054 138.961 253.592 138.59 251.387Z" fill="#F1BBA2"/>
<path d="M122.152 238.009C121.425 237.971 120.668 237.938 119.978 238.111C119.288 238.285 118.661 238.711 118.564 239.315C118.529 239.53 118.569 239.769 118.74 239.96C118.942 240.185 119.279 240.293 119.588 240.385C126.912 242.501 132.957 243.328 140.365 244.81C143.03 245.302 141.507 241.251 140.249 240.392C139.168 239.668 137.977 239.653 136.694 239.469C132.126 238.811 127.387 238.282 122.152 238.009H122.152Z" fill="#F1BBA2"/>
<path d="M139.066 244.777C139.277 245.491 121.989 241.209 116.646 241.928C116.077 242.004 115.535 242.281 115.239 242.773C114.342 244.26 115.251 247.743 138.726 252.161C140.399 252.515 142.064 252.827 143.718 253.097C141.925 250.307 140.375 247.527 139.067 244.777H139.066Z" fill="#F1BBA2"/>
<path d="M138.696 248.57C138.69 248.57 138.685 248.57 138.679 248.569C131.749 247.639 124.138 246.323 115.429 243.019C115.363 242.995 115.33 242.92 115.355 242.854C115.38 242.788 115.454 242.755 115.52 242.78C124.204 246.073 131.798 247.386 138.712 248.314C138.782 248.324 138.832 248.388 138.823 248.459C138.814 248.523 138.758 248.57 138.696 248.57V248.57Z" fill="#E8825F"/>
<path d="M150.951 237.208C149.338 236.641 147.772 236.003 146.113 235.772C144.636 235.566 143.235 234.431 142.098 233.46C141.897 233.289 141.58 233.395 141.469 233.671C140.987 234.875 141.17 236.299 141.809 237.42C142.542 238.707 143.766 239.651 145.031 240.476C146.297 241.303 147.642 242.059 148.797 243.14C149.554 243.848 150.225 244.689 151.064 245.353C152.013 246.101 152.956 246.232 154.045 246.458C155.421 246.743 156.805 246.872 158.175 246.955C159.54 247.068 163.52 247.192 163.911 245.528C164.313 243.812 161.83 242.676 160.626 241.837C157.323 239.585 154.173 238.34 150.951 237.209L150.951 237.208Z" fill="#F1BBA2"/>
<path d="M153.775 182.8C156.463 180.111 156.463 175.751 153.775 173.063C151.087 170.374 146.729 170.374 144.041 173.063C141.353 175.751 141.353 180.111 144.041 182.8C146.729 185.489 151.087 185.489 153.775 182.8Z" fill="#F2C45B"/>
<path d="M148.916 183.625C148.708 183.625 148.5 183.614 148.29 183.591C146.778 183.426 145.421 182.683 144.469 181.498C143.516 180.312 143.082 178.827 143.246 177.314C143.41 175.802 144.153 174.445 145.338 173.491C146.523 172.538 148.009 172.104 149.52 172.268C152.641 172.608 154.904 175.423 154.565 178.545C154.4 180.057 153.657 181.415 152.472 182.368C151.452 183.189 150.208 183.625 148.917 183.625H148.916ZM148.895 172.492C147.662 172.492 146.474 172.908 145.499 173.693C144.367 174.603 143.658 175.899 143.501 177.342C143.344 178.786 143.759 180.204 144.669 181.337C145.579 182.469 146.874 183.178 148.318 183.335C149.761 183.492 151.179 183.078 152.31 182.167C153.442 181.257 154.151 179.961 154.309 178.517C154.632 175.537 152.471 172.848 149.492 172.525C149.293 172.503 149.092 172.492 148.895 172.492Z" fill="#D1990A"/>
<path d="M148.849 172.491C148.778 172.491 148.721 172.434 148.721 172.363V171.209C148.721 171.137 148.778 171.08 148.849 171.08C148.92 171.08 148.977 171.137 148.977 171.209V172.363C148.977 172.434 148.92 172.491 148.849 172.491Z" fill="#D1990A"/>
<path d="M148.849 184.778C148.778 184.778 148.721 184.721 148.721 184.65V183.495C148.721 183.424 148.778 183.367 148.849 183.367C148.92 183.367 148.977 183.424 148.977 183.495V184.65C148.977 184.721 148.92 184.778 148.849 184.778Z" fill="#D1990A"/>
<path d="M155.552 178.058H154.398C154.327 178.058 154.27 178.001 154.27 177.93C154.27 177.859 154.327 177.801 154.398 177.801H155.552C155.623 177.801 155.68 177.859 155.68 177.93C155.68 178.001 155.623 178.058 155.552 178.058Z" fill="#D1990A"/>
<path d="M143.259 178.058H142.105C142.034 178.058 141.977 178.001 141.977 177.93C141.977 177.859 142.034 177.801 142.105 177.801H143.259C143.33 177.801 143.387 177.859 143.387 177.93C143.387 178.001 143.33 178.058 143.259 178.058Z" fill="#D1990A"/>
<path d="M152.809 174.123C152.777 174.123 152.743 174.11 152.719 174.085C152.668 174.035 152.668 173.953 152.719 173.904L153.534 173.088C153.585 173.037 153.666 173.037 153.716 173.088C153.766 173.138 153.766 173.22 153.716 173.269L152.9 174.085C152.875 174.11 152.842 174.123 152.809 174.123Z" fill="#D1990A"/>
<path d="M144.138 182.812C144.106 182.812 144.072 182.799 144.048 182.774C143.997 182.723 143.997 182.642 144.048 182.592L144.864 181.776C144.914 181.726 144.995 181.726 145.045 181.776C145.096 181.827 145.096 181.908 145.045 181.958L144.229 182.774C144.204 182.799 144.171 182.812 144.138 182.812Z" fill="#D1990A"/>
<path d="M153.625 182.812C153.593 182.812 153.559 182.799 153.534 182.774L152.719 181.958C152.668 181.907 152.668 181.826 152.719 181.776C152.769 181.726 152.85 181.726 152.9 181.776L153.716 182.592C153.766 182.643 153.766 182.724 153.716 182.774C153.691 182.799 153.658 182.812 153.625 182.812Z" fill="#D1990A"/>
<path d="M144.954 174.123C144.922 174.123 144.888 174.11 144.864 174.085L144.048 173.269C143.997 173.219 143.997 173.137 144.048 173.088C144.098 173.037 144.179 173.037 144.229 173.088L145.045 173.904C145.096 173.954 145.096 174.036 145.045 174.085C145.02 174.11 144.987 174.123 144.954 174.123Z" fill="#D1990A"/>
<path d="M132.653 161.294C131.569 161.294 130.491 160.705 130.062 160.275C130.011 160.224 130.012 160.143 130.062 160.093C130.112 160.043 130.194 160.043 130.243 160.093C130.63 160.479 131.653 161.037 132.654 161.037C132.676 161.037 132.697 161.037 132.718 161.037C132.792 161.037 132.849 161.092 132.85 161.162C132.852 161.233 132.796 161.292 132.725 161.294C132.701 161.294 132.677 161.294 132.653 161.294Z" fill="#E8825F"/>
<path d="M138.11 162.513C137.026 162.513 135.948 161.923 135.519 161.494C135.468 161.443 135.469 161.362 135.519 161.312C135.57 161.262 135.651 161.261 135.701 161.312C136.087 161.698 137.11 162.256 138.111 162.256C138.133 162.256 138.154 162.256 138.176 162.256C138.25 162.256 138.306 162.311 138.307 162.381C138.309 162.452 138.253 162.511 138.182 162.513C138.158 162.513 138.134 162.513 138.11 162.513Z" fill="#E8825F"/>
<path d="M144.996 160.666C144.946 160.666 144.898 160.636 144.878 160.588C144.849 160.523 144.88 160.447 144.945 160.419L147.458 159.341C147.523 159.313 147.598 159.343 147.627 159.408C147.655 159.473 147.624 159.549 147.559 159.577L145.046 160.654C145.03 160.661 145.013 160.665 144.996 160.665V160.666Z" fill="#E8825F"/>
<path d="M132.725 167.567C130.334 167.567 128.078 167.261 127.041 167.097C126.971 167.086 126.923 167.02 126.934 166.95C126.945 166.88 127.011 166.832 127.081 166.843C128.457 167.06 131.995 167.529 135.119 167.19C136.588 167.03 138.618 166.401 140.288 165.587C140.351 165.556 140.428 165.582 140.46 165.646C140.491 165.71 140.464 165.786 140.401 165.818C138.706 166.644 136.643 167.283 135.147 167.446C134.352 167.532 133.531 167.567 132.726 167.567H132.725Z" fill="#E8825F"/>
<path d="M126.74 172.496C126.689 172.496 126.64 172.465 126.62 172.414C126.594 172.348 126.627 172.273 126.693 172.247C130.808 170.646 137.803 170.037 138.749 170.037C138.821 170.037 138.878 170.094 138.878 170.166C138.878 170.237 138.821 170.294 138.749 170.294C137.811 170.294 130.869 170.899 126.786 172.487C126.771 172.493 126.755 172.496 126.74 172.496Z" fill="#E8825F"/>
<path d="M129.426 174.887C129.41 174.887 129.395 174.885 129.379 174.879C129.313 174.853 129.281 174.779 129.307 174.713C129.679 173.756 132.118 171.544 134.199 170.506C134.263 170.475 134.34 170.5 134.371 170.564C134.403 170.627 134.377 170.704 134.314 170.736C132.316 171.733 129.895 173.909 129.546 174.806C129.527 174.857 129.478 174.888 129.426 174.888L129.426 174.887Z" fill="#E8825F"/>
</svg>
