<svg width="344" height="339" viewBox="0 0 344 339" fill="none" xmlns="http://www.w3.org/2000/svg">
<g clip-path="url(#clip0_199_1820)">
<path d="M408.347 315.191C408.198 315.944 408.046 316.691 407.89 317.431C404.155 335.147 398.202 349.182 390.079 357.242C335.453 364.75 42.2164 362.426 42.2164 362.426C28.5717 353.149 18.9945 336.949 13.7949 317.431C13.5971 316.689 13.4059 315.943 13.2212 315.191C7.8403 293.346 7.82172 267.614 13.5818 242.859C13.7545 242.111 13.9337 241.364 14.1195 240.619C20.3386 215.478 32.5626 191.502 51.2319 173.826C53.093 172.063 54.9114 170.215 56.6926 168.286C57.3712 167.551 58.0433 166.805 58.711 166.047C76.105 146.332 90.0119 119.257 106.31 93.7141C106.785 92.9653 107.265 92.2198 107.747 91.4743C121.269 70.5485 136.525 50.8349 156.786 37.2779C157.931 36.5117 159.093 35.764 160.271 35.0381C167.761 30.4218 175.922 26.6363 184.905 23.9111C231.025 9.92453 267.953 13.9287 301.933 35.0381C303.102 35.765 304.268 36.5117 305.43 37.2779C324.58 49.9113 342.851 68.0299 361.381 91.4743C361.967 92.2154 362.553 92.962 363.14 93.7141C363.933 94.7296 364.725 95.755 365.519 96.7902C379.695 115.284 390.614 139.599 398.35 166.047C398.568 166.792 398.783 167.538 398.997 168.286C400.625 174.01 402.107 179.83 403.439 185.705C403.532 186.112 403.623 186.519 403.714 186.926C403.739 187.04 403.764 187.152 403.79 187.265C404.38 189.918 404.939 192.582 405.47 195.254V195.257C406.759 201.759 407.872 208.305 408.81 214.847C409.319 218.393 409.776 221.939 410.179 225.477V225.48C410.762 230.553 411.237 235.608 411.607 240.62C411.662 241.368 411.716 242.114 411.766 242.86C413.564 269.367 412.4 294.617 408.345 315.192L408.347 315.191Z" fill="#EAEFFB"/>
<path d="M40.0738 313.41C39.9536 313.654 39.781 313.918 39.5165 313.946C39.2848 313.97 39.0696 313.786 38.9778 313.567C38.8849 313.348 38.8893 313.101 38.9002 312.861C38.9526 311.797 39.134 310.739 39.4389 309.72C39.5416 309.376 39.6695 309.02 39.9351 308.785C41.5447 307.359 40.3886 312.775 40.0738 313.41Z" fill="#6683C2"/>
<path d="M32.7655 313.195C32.7917 313.35 32.8169 313.516 32.771 313.648C32.6868 313.89 32.3929 313.898 32.1809 313.739C31.9688 313.579 31.8202 313.309 31.6814 313.05C31.2607 312.262 30.8323 311.459 30.5996 310.593C30.3253 309.574 30.3854 307.768 31.453 309.065C32.2399 310.021 32.5655 312.018 32.7655 313.195Z" fill="#6683C2"/>
<path d="M46.01 261.763C47.2099 259.901 47.7487 257.673 48.0678 255.465C48.3355 253.615 48.589 251.639 48.5541 249.767C48.5256 248.248 47.5662 246.64 46.0876 247.485C44.761 248.243 43.5698 249.903 42.7152 251.153C41.1591 253.423 40.1144 256.066 39.7166 258.812C39.4664 260.54 38.9036 264.268 41.1307 264.991C42.8792 265.559 45.1904 263.034 46.01 261.763Z" fill="#A1B2D7"/>
<path d="M35.4522 260.658C36.6499 263.399 37.4269 266.334 37.7449 269.321C37.899 270.771 37.9307 272.309 37.2892 273.611C36.992 274.214 36.5013 274.778 35.8522 274.889C34.8337 275.064 33.9944 274.099 33.4535 273.197C31.2602 269.534 30.2603 265.133 30.6483 260.853C30.7095 260.172 30.8155 259.469 31.1837 258.9C32.6393 256.656 34.8053 259.176 35.4533 260.658H35.4522Z" fill="#A1B2D7"/>
<path d="M48.5105 266.782C47.7215 269.062 46.5806 271.215 45.1425 273.133C44.5458 273.93 43.8781 274.703 43.0159 275.181C42.6596 275.378 42.1668 275.501 41.887 275.2C41.7723 275.078 41.7209 274.907 41.6827 274.742C41.251 272.889 42.0029 270.981 42.8072 269.263C43.6989 267.358 44.748 265.353 46.4363 264.064C48.9039 262.181 49.2339 264.691 48.5115 266.782H48.5105Z" fill="#A1B2D7"/>
<path d="M37.5681 295.724L37.2402 295.712C37.2435 295.63 37.5582 287.455 38.8456 277.658C40.0345 268.608 42.3206 256.284 46.4601 248.96L46.7454 249.122C42.6321 256.4 40.3558 268.679 39.1712 277.698C37.8861 287.481 37.5714 295.643 37.5681 295.725V295.724Z" fill="#E0BA89"/>
<path d="M37.0512 294.953L36.7267 294.904C38.0424 286.247 36.142 270.076 32.6582 260.298L32.9675 260.188C36.4655 270.007 38.3735 286.252 37.0512 294.953Z" fill="#E0BA89"/>
<path d="M39.5292 293.425C39.0516 289.458 39.4538 284.27 40.6034 279.546C41.5913 275.49 43.613 269.734 47.6366 265.342L47.8782 265.564C40.5542 273.557 39.0691 286.871 39.8538 293.386L39.5281 293.425H39.5292Z" fill="#E0BA89"/>
<path d="M29.9902 286.47C32.4392 285.152 35.1395 284.867 35.1395 281.875V279.293C35.1395 279.019 35.4214 278.8 35.7569 278.815L38.5282 278.933L41.2996 278.815C41.635 278.8 41.917 279.019 41.917 279.293V281.228C41.917 282.552 42.5639 283.844 43.6993 284.788C44.8675 285.758 46.6116 285.998 47.7022 286.963C48.3066 287.498 48.6989 288.17 49.0092 288.853C51.3303 293.951 48.5634 299.503 47.0706 304.525C46.0292 308.032 44.9866 311.538 43.9452 315.044C43.931 315.093 43.9157 315.144 43.9015 315.193H31.3398C30.6186 311.881 29.8973 308.569 29.1772 305.256C28.6351 302.767 26.8943 294.988 26.8298 293.536C26.7654 292.085 27.0276 290.624 27.6221 289.254C28.0877 288.182 28.7936 287.124 29.9531 286.493C29.9662 286.486 29.9793 286.479 29.9913 286.472L29.9902 286.47Z" fill="#A1B2D7"/>
<path d="M33.9153 284.161C34.512 284.338 35.0507 284.502 35.3873 284.549C37.3838 284.825 39.4142 285.092 41.4315 284.984C42.214 284.943 42.9997 284.836 43.7373 284.658C43.7887 284.701 43.8401 284.745 43.8936 284.786C44.3777 285.166 44.9547 285.432 45.547 285.675C44.0991 286.264 42.3637 286.563 40.6327 286.616C38.375 286.686 36.1107 286.369 33.9273 285.937C33.5558 285.864 32.7034 285.649 31.9297 285.355C32.7067 285.02 33.4039 284.663 33.9186 284.161H33.9153Z" fill="#6683C2"/>
<path d="M39.4198 282.567C37.879 282.579 36.3294 282.453 34.8027 282.255C34.8137 282.133 34.8213 282.008 34.8213 281.876V280.983C36.5982 281.194 38.3969 281.375 40.176 281.33C40.7956 281.315 41.4152 281.268 42.0108 281.187V281.228C42.0108 281.615 42.0709 281.999 42.1846 282.373C41.295 282.497 40.3585 282.561 39.4209 282.567H39.4198Z" fill="#6683C2"/>
<path d="M46.5261 293.229C46.5043 293.818 46.4463 294.484 45.9972 294.851C45.9185 294.916 45.8224 294.969 45.7218 294.961C45.5677 294.948 45.4606 294.799 45.3962 294.653C45.1721 294.15 45.1962 293.574 45.1863 293.021C45.1678 292.056 43.8586 288.339 44.9711 288.221C46.7917 288.028 46.5611 292.307 46.5272 293.23L46.5261 293.229Z" fill="#6683C2"/>
<path d="M39.7804 292.031C39.7815 292.974 39.7826 293.917 39.7836 294.861C39.7836 295.06 39.7815 295.269 39.6809 295.44C39.4853 295.772 38.987 295.792 38.6756 295.571C38.3641 295.35 38.2013 294.971 38.0843 294.602C37.6505 293.233 37.6308 291.73 38.0297 290.35C38.2297 289.66 38.7105 288.86 39.3979 289.444C39.9039 289.874 39.7782 291.433 39.7793 292.031H39.7804Z" fill="#6683C2"/>
<path d="M39.3565 310.093C39.3576 311.036 39.3587 311.98 39.3598 312.923C39.3598 313.122 39.3576 313.332 39.2571 313.502C39.0615 313.835 38.5632 313.854 38.2517 313.634C37.9403 313.413 37.7774 313.034 37.6605 312.664C37.2267 311.295 37.207 309.792 37.6059 308.413C37.8059 307.722 38.2867 306.923 38.9741 307.507C39.48 307.936 39.3544 309.495 39.3554 310.093H39.3565Z" fill="#6683C2"/>
<path d="M43.1743 294.559C43.1131 294.835 43.006 295.144 42.7481 295.24C42.5219 295.325 42.2618 295.197 42.1143 295.001C41.9679 294.805 41.91 294.556 41.863 294.313C41.6532 293.233 41.5734 292.127 41.628 291.026C41.6466 290.656 41.6859 290.267 41.8947 289.962C43.1568 288.116 43.3328 293.841 43.1743 294.559Z" fill="#6683C2"/>
<path d="M41.7732 307.292C41.676 307.555 41.5296 307.848 41.2607 307.906C41.0247 307.957 40.7843 307.795 40.6652 307.58C40.546 307.366 40.522 307.111 40.5078 306.864C40.4433 305.765 40.5122 304.657 40.7121 303.575C40.7799 303.21 40.8717 302.83 41.1176 302.557C42.6136 300.906 42.0257 306.602 41.7732 307.291V307.292Z" fill="#6683C2"/>
<path d="M44.805 302.069C44.6969 302.328 44.5373 302.614 44.2663 302.66C44.0292 302.7 43.7953 302.526 43.6849 302.307C43.5746 302.087 43.5625 301.831 43.5582 301.584C43.5418 300.483 43.6576 299.379 43.9046 298.308C43.9876 297.946 44.0958 297.571 44.3537 297.31C45.9197 295.728 45.0859 301.392 44.804 302.068L44.805 302.069Z" fill="#6683C2"/>
<path d="M35.4925 294.714C35.4455 294.885 35.3919 295.064 35.2619 295.179C35.0204 295.392 34.6215 295.276 34.4183 295.024C34.215 294.771 34.1593 294.432 34.109 294.11C33.9571 293.127 33.8052 292.126 33.9473 291.141C34.1145 289.983 35.1493 288.162 35.9023 289.938C36.4574 291.246 35.8444 293.426 35.4914 294.713L35.4925 294.714Z" fill="#6683C2"/>
<path d="M36.2737 307.556C36.2267 307.727 36.1732 307.906 36.0432 308.021C35.8016 308.234 35.4017 308.118 35.1995 307.866C34.9973 307.613 34.9405 307.274 34.8903 306.952C34.7384 305.969 34.5865 304.968 34.7285 303.983C34.8957 302.825 35.9306 301.004 36.6835 302.779C37.2387 304.088 36.6256 306.268 36.2726 307.555L36.2737 307.556Z" fill="#6683C2"/>
<path d="M39.2269 303.574C39.1799 303.744 39.1263 303.924 38.9963 304.038C38.7548 304.252 38.3548 304.136 38.1526 303.883C37.9505 303.631 37.8937 303.292 37.8434 302.969C37.6915 301.987 37.5396 300.985 37.6816 300C37.8488 298.843 38.8837 297.022 39.6367 298.797C40.1918 300.105 39.5787 302.285 39.2258 303.573L39.2269 303.574Z" fill="#6683C2"/>
<path d="M32.4788 289.266C32.7301 290.832 32.5432 292.471 31.9466 293.936C31.9051 294.037 31.8592 294.141 31.7783 294.213C31.5892 294.382 31.2767 294.303 31.1084 294.114C30.9401 293.924 30.8822 293.66 30.8385 293.408C30.6702 292.442 30.621 291.456 30.691 290.478C30.7565 289.568 32.163 287.301 32.4788 289.266Z" fill="#6683C2"/>
<path d="M33.2229 298.049C33.8535 299.5 34.0775 301.133 33.8622 302.705C33.8469 302.814 33.8284 302.927 33.7683 303.017C33.6273 303.229 33.3049 303.235 33.0951 303.095C32.8853 302.955 32.764 302.715 32.6591 302.482C32.258 301.592 31.9662 300.651 31.7925 299.687C31.6307 298.788 32.4318 296.231 33.2219 298.05L33.2229 298.049Z" fill="#6683C2"/>
<path d="M363.145 93.7154H106.316C106.792 92.9666 107.272 92.2211 107.753 91.4756H361.387C361.973 92.2167 362.558 92.9633 363.145 93.7154Z" fill="#A1B2D7"/>
<path d="M305.42 37.2799H156.775C157.921 36.5136 159.082 35.7659 160.26 35.04H301.923C303.091 35.767 304.257 36.5136 305.42 37.2799Z" fill="#A1B2D7"/>
<path d="M398.982 168.287H56.6777C57.3564 167.552 58.0284 166.806 58.6961 166.047H398.335C398.553 166.793 398.769 167.538 398.982 168.287Z" fill="#A1B2D7"/>
<path d="M411.762 242.859H13.5781C13.7508 242.112 13.93 241.365 14.1158 240.62H411.604C411.658 241.367 411.712 242.114 411.762 242.859Z" fill="#A1B2D7"/>
<path d="M408.331 315.191C408.183 315.945 408.031 316.691 407.874 317.431H13.7807C13.583 316.689 13.3917 315.943 13.207 315.191H408.331Z" fill="#A1B2D7"/>
<path d="M326.47 67.396H280.061V91.4777H326.47V67.396Z" fill="#A1B2D7"/>
<path d="M304.934 71.566C304.934 70.7232 304.185 70.04 303.262 70.04C302.338 70.04 301.59 70.7232 301.59 71.566C301.59 72.2372 302.066 72.8068 302.726 73.0101V75.0138H303.797V73.0101C304.457 72.8068 304.934 72.2372 304.934 71.566Z" fill="#6683C2"/>
<path d="M142.781 166.048V159.184H82.6207V166.048H142.781Z" fill="#A1B2D7"/>
<path d="M128.311 164.395V160.835H97.1167V164.395H128.311Z" fill="#6683C2"/>
<path d="M146.99 159.186V150.288H96.6222V159.186H146.99Z" fill="#A1B2D7"/>
<path d="M134.877 157.044V152.43H108.76V157.044H134.877Z" fill="#6683C2"/>
<path d="M131.832 150.445V145.831H89.4316V150.445H131.832Z" fill="#A1B2D7"/>
<path d="M129.342 149.335V146.942H91.9201V149.335H129.342Z" fill="#6683C2"/>
<path d="M225.713 148.108C229.357 148.629 233.315 149.587 235.484 152.561C237.907 155.882 237.999 159.968 236.461 163.78C243.979 158.116 248.77 150.495 251.274 141.42C252.859 135.672 253.235 129.663 253.379 123.702C253.476 119.708 253.466 115.656 252.437 111.795C250.329 103.878 244.205 97.6683 237.673 92.7274C233.145 89.3026 228.278 86.2779 223.001 84.1867C216.886 81.7643 210.264 80.6319 203.692 80.8855C200.722 81.0002 197.638 81.4397 195.177 83.1067C193.672 84.1266 192.49 85.5466 191.369 86.9764C186.615 93.04 182.527 99.7551 180.404 107.162C177.949 115.727 178.23 124.941 180.382 133.585C181.901 139.685 184.329 145.526 187.293 151.058C188.262 152.867 192.862 159.245 192.862 159.245C192.862 159.245 192.421 155.339 194.375 152.801C197.836 148.308 216.349 146.767 225.712 148.106L225.713 148.108Z" fill="#28252B"/>
<path d="M237.162 182.144C231.799 170.8 228.058 151.745 228.847 134.821C229.366 133.861 202.239 134.826 202.758 135.787C203.546 152.709 200.832 170.8 195.469 182.144C193.737 185.808 196.737 191.728 198.536 195.276C200.625 199.398 203.2 203.256 206.508 206.503C208.703 208.659 212.471 211.74 216.214 212.871V212.934C216.248 212.924 216.281 212.912 216.314 212.903C216.348 212.912 216.381 212.924 216.415 212.934V212.871C220.158 211.74 223.926 208.659 226.121 206.503C229.429 203.256 232.004 199.398 234.093 195.276C235.892 191.729 238.892 185.808 237.16 182.144H237.162Z" fill="#F1BBA2"/>
<g style="mix-blend-mode:multiply" opacity="0.28">
<path d="M227.24 150.716C227.415 150.595 212.758 148.246 202.796 146.666C202.689 149.423 202.496 152.167 202.219 154.863C207 157.181 218.434 161.052 227.24 150.716Z" fill="#F1BBA2"/>
</g>
<path d="M249.457 100.097C248.509 106.786 244.696 123.502 242.331 129.333C237.534 141.163 231.31 151.14 217.842 155.134C215.911 155.707 213.903 155.889 211.949 155.308C200.959 152.039 192.638 140.683 188.611 130.835C185.671 123.644 182.718 116.434 180.556 108.963C177.44 98.1931 175.327 88.1111 180.196 77.6389C184.273 68.8688 191.87 61.735 200.972 58.4162C207.233 56.1338 212.551 57.6401 218.834 57.5898C222.03 57.5636 224.246 57.0378 227.534 57.9517C233.812 59.6963 239.672 63.2052 243.665 68.4206C250.797 77.7373 251.104 88.4904 249.457 100.097Z" fill="#F1BBA2"/>
<path d="M252.045 78.1942C248.207 68.3506 240.011 60.3882 230.215 56.4377C227.532 55.3555 225.039 55.8813 222.488 55.2636C222.248 55.2057 222.016 55.1336 221.79 55.0559C221.121 53.9814 220.312 53.0839 219.328 52.4619C217.027 51.0048 207.626 51.8891 201.846 53.9202C175.822 63.0664 171.919 91.326 171.625 95.4089C171.048 103.408 170.903 111.446 171.428 119.449C171.949 127.394 173.165 135.42 176.487 142.655C179.809 149.89 185.453 156.316 192.853 159.247C186.577 145.719 184.009 130.491 185.502 115.653C185.733 113.345 186.069 111.02 186.937 108.87C187.908 106.459 189.475 104.425 191.336 102.619C193.31 101.326 195.429 100.215 197.548 99.2359C199.279 98.4368 201.046 97.6891 202.804 96.9272C206.933 95.141 211.018 93.2762 214.514 90.4898C214.899 90.7576 215.29 91.0123 215.684 91.2517C218.559 93.004 221.674 94.3376 224.684 95.8461C226.435 96.7239 228.15 97.6596 229.762 98.7724C233.211 101.152 236.119 104.312 238.204 107.948C239.132 109.566 239.957 111.345 241.476 112.427C244.42 114.524 248.32 111.27 249.812 108.741C255.177 99.6404 255.882 88.039 252.044 78.1953L252.045 78.1942Z" fill="#363537"/>
<path d="M230.392 121.28C230.224 123.277 231.945 124.854 233.526 122.988C234.207 122.185 234.263 120.646 234.015 119.658C233.746 118.585 232.646 117.871 231.61 118.498C230.767 119.007 230.47 120.362 230.392 121.28Z" fill="#363537"/>
<path d="M214.951 139.724C212.942 139.724 210.935 139.442 208.984 138.879C208.896 138.853 208.847 138.763 208.871 138.675C208.895 138.588 208.987 138.537 209.075 138.563C212.857 139.655 216.86 139.672 220.652 138.612C220.738 138.588 220.829 138.638 220.854 138.726C220.878 138.813 220.828 138.904 220.74 138.928C218.845 139.458 216.897 139.722 214.949 139.722L214.951 139.724Z" fill="#A45236"/>
<path d="M212.894 142.917C212.805 142.917 212.732 142.845 212.73 142.755C212.729 142.664 212.802 142.59 212.892 142.589L216.291 142.542C216.384 142.542 216.456 142.613 216.457 142.704C216.458 142.795 216.386 142.869 216.295 142.87L212.897 142.917H212.894Z" fill="#A45236"/>
<path d="M216.877 132.479C216.863 132.479 216.849 132.477 216.834 132.473C215.718 132.167 214.646 131.631 213.732 130.92C213.451 130.701 213.138 130.43 212.942 130.071C212.483 129.23 212.786 128.234 213.054 127.355L213.082 127.264C213.952 124.396 214.094 121.329 213.494 118.394C213.475 118.305 213.533 118.219 213.622 118.2C213.71 118.183 213.797 118.24 213.815 118.328C214.426 121.317 214.281 124.44 213.396 127.359L213.367 127.452C213.106 128.309 212.837 129.194 213.231 129.913C213.398 130.22 213.681 130.463 213.934 130.661C214.814 131.345 215.847 131.862 216.921 132.156C217.008 132.18 217.06 132.27 217.036 132.358C217.016 132.431 216.949 132.478 216.877 132.478V132.479Z" fill="#A45236"/>
<path d="M237.309 114.366C237.264 113.837 235.855 113.05 235.579 112.908C234.623 112.416 233.562 112.128 232.488 112.072C231.271 112.01 230.019 112.339 228.925 112.855C228.184 113.204 226.272 114.322 227.817 115.151C228.345 115.434 228.989 115.218 229.559 115.035C231.697 114.354 234.011 114.239 236.207 114.704C236.449 114.756 236.705 114.814 236.942 114.739C237.221 114.651 237.322 114.52 237.309 114.365V114.366Z" fill="#363537"/>
<path d="M201.832 121.28C202 123.277 200.279 124.854 198.698 122.988C198.017 122.185 197.961 120.646 198.209 119.658C198.478 118.585 199.579 117.871 200.615 118.498C201.457 119.007 201.754 120.362 201.832 121.28Z" fill="#363537"/>
<path d="M194.909 114.367C194.954 113.838 196.364 113.051 196.639 112.909C197.595 112.417 198.657 112.129 199.731 112.073C200.947 112.011 202.199 112.34 203.293 112.856C204.034 113.205 205.947 114.323 204.401 115.152C203.874 115.435 203.23 115.219 202.659 115.036C200.522 114.355 198.207 114.24 196.012 114.705C195.769 114.757 195.514 114.815 195.276 114.74C194.998 114.652 194.896 114.521 194.909 114.366V114.367Z" fill="#363537"/>
<path d="M246.155 108.917C249.174 107.468 253.019 109.17 254.645 111.887C256.271 114.605 256.161 117.968 255.575 121.079C255.19 123.116 254.604 125.16 253.432 126.929C252.259 128.696 250.427 130.171 248.267 130.606C246.107 131.041 243.648 130.256 242.578 128.481C242.193 127.844 241.999 127.12 241.84 126.399C240.779 121.566 240.298 111.73 246.156 108.917H246.155Z" fill="#F1BBA2"/>
<path d="M243.77 125.567C243.738 125.567 243.711 125.541 243.709 125.509C243.527 122.289 244.524 118.958 246.443 116.368C247.941 114.345 249.824 113.243 251.601 113.343C251.635 113.345 251.66 113.374 251.659 113.408C251.656 113.442 251.628 113.468 251.594 113.466C249.123 113.326 247.238 115.5 246.541 116.441C244.64 119.009 243.652 122.311 243.831 125.502C243.833 125.536 243.807 125.564 243.773 125.567C243.772 125.567 243.771 125.567 243.77 125.567Z" fill="#A45236"/>
<path d="M244.571 120.127C244.55 120.127 244.53 120.116 244.518 120.096C244.501 120.067 244.511 120.029 244.541 120.013C246.502 118.886 248.799 118.879 250.393 119.996C250.42 120.015 250.426 120.053 250.408 120.081C250.388 120.108 250.35 120.115 250.323 120.096C248.769 119.006 246.523 119.016 244.602 120.119C244.592 120.125 244.582 120.127 244.571 120.127Z" fill="#A45236"/>
<path d="M178.31 110.601C174.976 110.289 171.961 113.22 171.378 116.333C170.796 119.447 172.066 122.563 173.695 125.277C174.761 127.054 176.02 128.768 177.734 130.019C179.447 131.27 181.676 132.018 183.854 131.675C186.03 131.333 188.064 129.744 188.452 127.707C188.591 126.976 188.523 126.229 188.421 125.498C187.741 120.598 184.779 111.207 178.31 110.601Z" fill="#F1BBA2"/>
<path d="M186.272 125.503C186.202 125.503 186.138 125.458 186.116 125.387C185.184 122.355 183.127 119.621 180.473 117.886C179.507 117.254 177.02 115.89 174.799 116.858C174.716 116.895 174.62 116.856 174.584 116.773C174.548 116.69 174.586 116.594 174.669 116.558C176.336 115.831 178.517 116.216 180.653 117.612C183.371 119.388 185.477 122.187 186.431 125.291C186.457 125.377 186.409 125.469 186.323 125.495C186.306 125.501 186.29 125.503 186.275 125.503H186.272Z" fill="#A45236"/>
<path d="M178.23 122.662C178.198 122.662 178.165 122.652 178.137 122.632C178.063 122.581 178.044 122.478 178.095 122.404C179.225 120.77 181.422 119.963 183.692 120.345C183.781 120.361 183.841 120.445 183.826 120.534C183.811 120.624 183.727 120.683 183.637 120.669C181.492 120.308 179.422 121.061 178.364 122.591C178.333 122.636 178.281 122.662 178.23 122.662Z" fill="#A45236"/>
<path d="M239.53 127.629C240.58 140.175 238.692 152.807 235.696 165.035C247.072 157.3 255.788 145.446 258.844 132.03C259.257 130.217 259.569 128.384 259.829 126.544C261.96 111.495 261.124 89.7442 249.505 72.9964C248.346 71.3239 239.235 72.9439 237.67 71.6442C235.927 70.1958 247.283 74.7454 245.022 74.8919C242.761 75.0383 240.584 75.797 238.495 76.678C235.285 78.0313 232.203 79.6896 229.304 81.6223C228.297 82.2935 227.274 83.0422 226.736 84.1277C226.112 85.3892 226.253 86.878 226.408 88.2773C226.845 92.2071 227.216 93.791 229.418 97.0802C231.42 100.072 233.11 103.27 234.506 106.588C237.182 112.955 239.529 120.656 239.529 127.631L239.53 127.629Z" fill="#363537"/>
<path d="M283.225 207.055C275.452 196.494 261.804 193.316 250.51 188.065C244.525 185.282 239.22 182.637 235.15 177.349C234.073 175.95 199.309 173.679 197.379 177.492C194.471 183.237 187.28 185.282 181.295 188.065C169.999 193.316 157.978 197.54 150.205 208.101C146.112 213.66 142.733 219.842 143.821 226.66C144.682 232.05 147.194 237.007 149.39 242.004C157.469 260.381 169.187 324.466 174.741 357.937C194.939 369.388 243.006 363.031 256.125 358.675C261.881 324.505 274.518 259.96 282.413 242.003C284.61 237.006 287.122 232.049 287.982 226.659C289.07 219.841 287.316 212.613 283.224 207.053L283.225 207.055Z" fill="#F1BBA2"/>
<path d="M261.497 192.65C261.497 192.65 221.171 199.985 176.448 190.172C155.74 195.645 141.514 212.672 131.911 233.727C117.727 264.827 158.663 243.373 160.975 291.288C161.053 292.893 163.243 295.14 163.165 294.957C164.299 297.642 164.444 301.312 165.012 304.183C166.321 310.798 167.58 317.425 168.805 324.057C170.888 335.332 172.873 346.627 174.75 357.938C194.948 369.389 243.015 363.032 256.134 358.676C261.89 324.506 274.527 259.961 282.422 242.004C284.619 237.008 287.579 210.413 284.685 206.06C278.396 196.6 261.498 192.649 261.498 192.649L261.497 192.65Z" fill="white"/>
<path d="M285.246 207.098C300.928 228.406 310.383 264.731 319.48 291.547C328.693 318.706 328.113 325.577 325.48 332.035C321.565 341.639 288.102 331.405 281.205 315.975C274.305 300.541 264.136 271.093 259.873 257.811C255.61 244.53 261.813 210.88 285.246 207.097V207.098Z" fill="white"/>
<path d="M261.498 310.18C261.498 332.278 237.547 350.193 208.002 350.193C194.591 350.193 182.333 346.503 172.945 340.404C166.932 336.5 162.095 331.607 158.888 326.065C158.142 324.776 150.112 325.738 148.98 324.803C146.931 323.117 147.84 307.931 149.527 305.923C150.109 305.227 155.063 304.2 155.425 302.758C160.078 284.207 181.849 270.167 208.002 270.167C225.305 270.167 240.689 276.311 250.467 285.842C257.386 292.585 261.498 301.024 261.498 310.18Z" fill="#FCC583"/>
<path d="M181.917 284.63C180.25 285.526 178.631 285.673 177.231 285.327C177.114 285.2 177.003 285.07 176.899 284.934C176.878 284.907 176.851 284.884 176.828 284.858C173.494 281.219 172.111 270.973 173.018 268.556C173.121 268.281 173.288 268.105 173.51 268.016C173.973 267.826 174.674 268.008 175.515 268.442C178.635 270.408 182.002 272.84 183.053 274.109C184.947 276.397 187.219 281.777 181.917 284.628V284.63Z" fill="#FCC583"/>
<path d="M259.158 301.067C261.285 301.466 264.257 301.155 265.794 299.914C268.539 297.697 269.623 294.141 270.335 290.758C270.632 289.04 271.355 285.601 269.823 284.322C268.837 283.513 267.326 284.146 266.733 285.163C266.147 286.163 266.194 287.38 266.479 288.485C267.728 293.162 273.445 295.895 277.93 294.24C281.487 292.921 282.313 290.962 281.541 292.101C278.072 297.221 269.628 295.824 266.632 290.714C265.538 288.852 264.912 286.099 266.447 284.297C267.379 283.235 269.12 282.783 270.281 283.752C272.164 285.339 271.619 288.766 271.216 290.823C270.598 293.604 269.969 297.393 268.289 299.738C266.255 302.644 262.651 305.329 259.006 304.483C256.926 304.04 256.457 300.562 259.157 301.068L259.158 301.067Z" fill="#FCC583"/>
<path d="M231.6 277.657C225.965 275.999 219.021 274.868 211.48 274.542C203.841 274.212 196.741 274.761 190.942 275.959C190.687 275.67 190.396 275.524 190.025 275.275C194.893 273.114 202.6 272.091 211.567 272.551C221.686 273.071 227.662 274.657 232.388 277.048C232.157 277.215 231.908 277.406 231.601 277.657H231.6Z" fill="#BD8440"/>
<path d="M173.27 297.796C173.535 295.967 173.054 294.384 172.197 294.26C171.34 294.136 170.431 295.518 170.166 297.347C169.902 299.176 170.382 300.759 171.24 300.883C172.097 301.007 173.006 299.625 173.27 297.796Z" fill="#BD8440"/>
<path d="M154.867 201.566C134.319 218.231 112.219 253.319 96.6567 276.974C80.8953 300.933 77.453 319.769 87.8149 327.239C96.2272 333.303 116.974 323.459 127.537 310.268C138.104 297.073 155.367 271.142 162.841 259.365C170.314 247.588 176.588 211.138 154.867 201.567V201.566Z" fill="white"/>
<path d="M177.553 247.641C177.488 247.695 177.423 247.753 177.355 247.813C177.308 247.856 177.26 247.9 177.211 247.945C176.136 248.931 172.217 250.235 170.35 252.428C155.553 269.803 121.279 320.492 110.42 325.664C98.0379 331.56 89.3753 329.256 85.7406 322.925C80.5674 313.914 84.1845 303.147 93.8754 292.437C103.005 282.348 148.504 250.657 161.588 234.993C162.39 234.032 163.071 233.133 163.613 232.302C163.613 232.301 163.615 232.3 163.617 232.298C167.509 226.332 178.484 234.859 179.523 242.095C179.823 244.175 179.3 246.149 177.553 247.641Z" fill="#F1BBA2"/>
<path d="M168.319 229.79C166.379 228.237 167.012 225.707 169.554 222.385C172.096 219.063 179.325 210.373 181.084 208.21C182.843 206.048 189.048 199.728 192.113 199.995C194.959 200.243 187.089 211.501 186.346 212.492C185.602 213.484 176.537 224.474 174.719 226.787C172.9 229.1 170.56 231.582 168.321 229.789L168.319 229.79Z" fill="#F1BBA2"/>
<path d="M176.118 229.041C174.177 227.488 174.811 224.959 177.353 221.637C179.895 218.315 187.124 209.624 188.882 207.462C190.64 205.3 196.814 198.979 199.911 199.246C202.757 199.491 194.887 210.752 194.144 211.744C193.4 212.735 184.335 223.726 182.517 226.039C180.698 228.352 178.357 230.833 176.118 229.04V229.041Z" fill="#F1BBA2"/>
<path d="M202.356 232.705C203.584 234.334 204.974 236.471 205.984 237.145C206.992 237.82 214.061 242.807 209.133 233.123C204.206 223.439 205.426 224.028 202.78 220.507C200.132 216.986 191.58 221.182 184.029 224.679C176.212 228.301 175.205 231.957 176.229 233.684C177.253 235.413 180.308 237.657 185.169 234.028C189.998 230.423 197.578 225.591 198.958 227.762C200.338 229.933 201.304 231.311 202.356 232.705Z" fill="#F1BBA2"/>
<path d="M184.288 228.666C182.347 227.113 182.981 224.583 185.523 221.261C188.065 217.939 195.294 209.249 197.053 207.086C198.811 204.924 205.475 198.093 208.082 198.87C210.819 199.687 203.058 210.377 202.315 211.368C201.571 212.36 192.506 223.35 190.688 225.663C188.869 227.976 186.528 230.457 184.289 228.665L184.288 228.666Z" fill="#F1BBA2"/>
<path d="M191.653 247.469C193.289 249.549 195.948 250.561 197.208 251.962C198.468 253.364 199.485 256.512 195.101 255.356C190.715 254.199 189.382 252.74 185.807 251.406C183.351 250.491 181.261 251.286 178.353 251.198C174.67 251.087 174.76 248.801 171.394 251.406C167.395 254.5 194.942 220.989 191.72 224.717C188.789 228.107 184.225 234.428 185.171 240.022C185.648 242.848 190.263 245.699 191.654 247.469H191.653Z" fill="#F1BBA2"/>
<path d="M189.058 227.872C189.058 227.872 189.029 228.232 188.971 228.857C188.906 229.557 178.7 247.024 177.34 247.813C177.259 247.86 177.178 247.908 177.098 247.957C176.004 248.615 173.993 248.085 172.977 248.896C171.751 249.872 170.211 250.873 169.331 251.62C165.811 254.605 153.63 249.313 158.197 242.115C159.501 240.06 160.679 237.899 161.824 235.717C162.42 234.58 163.007 233.439 163.598 232.302C163.598 232.301 163.6 232.3 163.602 232.297C165.399 228.843 167.237 225.445 169.485 222.434C170.005 221.738 170.546 221.062 171.115 220.412C173.895 217.229 186.513 223.478 189.058 227.872Z" fill="#F1BBA2"/>
<path d="M178.667 221.59C178.633 221.59 178.599 221.579 178.57 221.557C178.498 221.503 178.482 221.401 178.536 221.328C178.592 221.252 184.228 213.676 190.083 206.286C190.14 206.215 190.243 206.203 190.314 206.26C190.385 206.316 190.397 206.42 190.34 206.491C184.488 213.877 178.855 221.449 178.799 221.525C178.768 221.568 178.717 221.59 178.668 221.59H178.667Z" fill="#E8825F"/>
<path d="M185.608 223.145C185.574 223.145 185.539 223.134 185.509 223.112C185.437 223.057 185.422 222.956 185.475 222.882C185.538 222.799 191.733 214.495 197.588 207.105C197.645 207.034 197.747 207.022 197.818 207.079C197.89 207.135 197.902 207.238 197.845 207.31C191.993 214.696 185.8 222.996 185.739 223.079C185.707 223.123 185.657 223.145 185.608 223.145Z" fill="#E8825F"/>
<path d="M325.937 322.617C322.314 312.879 311.723 308.779 297.296 309.391C282.869 310.004 231.29 328.195 214.229 326.226C205.12 325.174 206.277 342.336 216.504 343.468C226.732 344.599 299.824 349.115 312.271 343.356C324.718 337.598 328.482 329.46 325.937 322.617Z" fill="#F1BBA2"/>
<path d="M186.126 336.59C185.287 331.464 184.86 326.488 185.758 321.653C188.833 321.976 192.964 322.188 195.816 322.708C200.182 323.526 204.391 324.913 208.742 326.04C210.972 326.61 212.639 325.161 214.698 325.32C217.079 325.504 224.95 325.759 229.395 325.066C232.203 324.628 228.904 331.472 229.788 334.117C229.898 334.443 230 334.777 229.972 335.084C229.938 335.449 229.715 335.726 229.498 335.985C227.142 338.807 227.523 344.053 223.42 344.053C218.097 344.053 212.417 344.49 208.217 344.471C202.119 344.502 193.908 344.217 187.296 344.049C185.861 341.271 186.601 339.405 186.126 336.59Z" fill="#F1BBA2"/>
<path d="M165.146 319.514C164.217 319.466 163.251 319.423 162.37 319.644C161.489 319.866 160.689 320.41 160.566 321.181C160.521 321.455 160.571 321.761 160.79 322.004C161.048 322.291 161.478 322.429 161.873 322.547C171.221 325.248 178.938 326.303 188.394 328.195C191.796 328.823 189.852 323.652 188.245 322.556C186.866 321.632 185.345 321.613 183.708 321.378C177.877 320.538 171.827 319.862 165.145 319.514H165.146Z" fill="#F1BBA2"/>
<path d="M166.431 335.054C165.402 334.82 164.328 334.571 163.362 334.706C162.396 334.841 161.591 335.503 161.862 336.347C162.077 337.019 162.878 337.575 163.632 338.024C168.673 341.014 174.497 342.485 179.968 343.317C184.535 343.995 187.766 344.457 192.562 343.534C192.985 343.45 193.429 342.211 193.636 341.904C194.599 340.436 192.284 338.571 190.672 338.205C188.866 337.801 186.503 338.118 184.625 337.946C178.766 337.427 172.683 336.477 166.43 335.055L166.431 335.054Z" fill="#F1BBA2"/>
<path d="M186.736 328.153C187.005 329.065 164.937 323.599 158.117 324.516C157.391 324.614 156.7 324.968 156.322 325.595C155.176 327.493 156.337 331.939 186.302 337.579C188.438 338.031 190.562 338.429 192.673 338.773C190.385 335.211 188.407 331.663 186.737 328.153H186.736Z" fill="#F1BBA2"/>
<path d="M186.263 332.995C186.256 332.995 186.249 332.995 186.242 332.994C177.396 331.807 167.68 330.127 156.565 325.91C156.48 325.879 156.438 325.784 156.469 325.699C156.501 325.615 156.596 325.573 156.68 325.604C167.765 329.808 177.459 331.484 186.284 332.669C186.374 332.681 186.437 332.763 186.425 332.854C186.414 332.936 186.343 332.996 186.263 332.996V332.995Z" fill="#E8825F"/>
<path d="M201.907 318.491C199.847 317.768 197.849 316.953 195.731 316.658C193.846 316.396 192.058 314.946 190.605 313.707C190.35 313.489 189.945 313.624 189.803 313.977C189.188 315.514 189.422 317.33 190.237 318.761C191.173 320.404 192.735 321.609 194.349 322.663C195.966 323.719 197.682 324.683 199.158 326.063C200.124 326.966 200.98 328.041 202.05 328.888C203.262 329.842 204.465 330.01 205.855 330.298C207.613 330.662 209.379 330.827 211.128 330.933C212.87 331.078 217.951 331.235 218.45 329.111C218.962 326.922 215.793 325.471 214.257 324.4C210.041 321.526 206.019 319.936 201.906 318.492L201.907 318.491Z" fill="#F1BBA2"/>
<path d="M205.511 249.042C208.942 245.61 208.942 240.045 205.511 236.613C202.08 233.18 196.517 233.18 193.086 236.613C189.655 240.045 189.655 245.61 193.086 249.042C196.517 252.474 202.08 252.474 205.511 249.042Z" fill="#F2C45B"/>
<path d="M199.306 250.095C199.041 250.095 198.775 250.081 198.508 250.051C196.578 249.842 194.846 248.893 193.629 247.38C192.413 245.867 191.859 243.97 192.069 242.04C192.279 240.109 193.227 238.377 194.74 237.16C196.252 235.944 198.148 235.389 200.078 235.599C204.061 236.032 206.949 239.626 206.517 243.611C206.307 245.541 205.358 247.274 203.846 248.49C202.543 249.539 200.955 250.095 199.308 250.095H199.306ZM199.279 235.884C197.706 235.884 196.19 236.416 194.945 237.417C193.5 238.579 192.595 240.233 192.395 242.076C192.195 243.919 192.723 245.729 193.885 247.174C195.047 248.619 196.7 249.525 198.543 249.726C200.385 249.926 202.195 249.397 203.639 248.235C205.084 247.073 205.989 245.419 206.19 243.576C206.603 239.772 203.845 236.339 200.042 235.926C199.787 235.899 199.532 235.884 199.279 235.884Z" fill="#D1990A"/>
<path d="M199.22 235.884C199.13 235.884 199.057 235.811 199.057 235.721V234.247C199.057 234.156 199.13 234.083 199.22 234.083C199.311 234.083 199.384 234.156 199.384 234.247V235.721C199.384 235.811 199.311 235.884 199.22 235.884Z" fill="#D1990A"/>
<path d="M199.22 251.568C199.13 251.568 199.057 251.494 199.057 251.404V249.93C199.057 249.839 199.13 249.766 199.22 249.766C199.311 249.766 199.384 249.839 199.384 249.93V251.404C199.384 251.494 199.311 251.568 199.22 251.568Z" fill="#D1990A"/>
<path d="M207.778 242.991H206.305C206.214 242.991 206.141 242.917 206.141 242.827C206.141 242.736 206.214 242.663 206.305 242.663H207.778C207.868 242.663 207.942 242.736 207.942 242.827C207.942 242.917 207.868 242.991 207.778 242.991Z" fill="#D1990A"/>
<path d="M192.086 242.991H190.613C190.522 242.991 190.449 242.917 190.449 242.827C190.449 242.736 190.522 242.663 190.613 242.663H192.086C192.177 242.663 192.25 242.736 192.25 242.827C192.25 242.917 192.177 242.991 192.086 242.991Z" fill="#D1990A"/>
<path d="M204.277 237.966C204.236 237.966 204.193 237.949 204.162 237.918C204.097 237.853 204.097 237.749 204.162 237.686L205.203 236.644C205.268 236.58 205.371 236.58 205.435 236.644C205.498 236.709 205.499 236.812 205.435 236.876L204.393 237.918C204.362 237.949 204.319 237.966 204.277 237.966Z" fill="#D1990A"/>
<path d="M193.209 249.056C193.168 249.056 193.125 249.04 193.093 249.008C193.029 248.944 193.029 248.84 193.093 248.777L194.135 247.735C194.199 247.67 194.303 247.67 194.366 247.735C194.431 247.799 194.431 247.903 194.366 247.967L193.325 249.008C193.293 249.04 193.251 249.056 193.209 249.056Z" fill="#D1990A"/>
<path d="M205.319 249.056C205.277 249.056 205.235 249.04 205.203 249.008L204.162 247.967C204.097 247.902 204.097 247.798 204.162 247.735C204.226 247.67 204.33 247.67 204.393 247.735L205.435 248.777C205.499 248.841 205.499 248.945 205.435 249.008C205.403 249.04 205.36 249.056 205.319 249.056Z" fill="#D1990A"/>
<path d="M194.251 237.966C194.209 237.966 194.166 237.949 194.135 237.918L193.093 236.876C193.029 236.811 193.029 236.707 193.093 236.644C193.158 236.58 193.262 236.58 193.325 236.644L194.366 237.686C194.431 237.75 194.431 237.854 194.366 237.918C194.335 237.949 194.292 237.966 194.251 237.966Z" fill="#D1990A"/>
<path d="M178.549 221.589C177.165 221.589 175.789 220.837 175.241 220.288C175.177 220.224 175.178 220.12 175.241 220.057C175.306 219.992 175.41 219.992 175.473 220.057C175.966 220.55 177.272 221.261 178.55 221.261C178.578 221.261 178.605 221.261 178.632 221.261C178.726 221.261 178.798 221.331 178.801 221.421C178.803 221.512 178.732 221.587 178.641 221.589C178.61 221.589 178.58 221.589 178.549 221.589Z" fill="#E8825F"/>
<path d="M185.516 223.145C184.131 223.145 182.756 222.393 182.208 221.845C182.144 221.78 182.145 221.676 182.208 221.613C182.273 221.55 182.376 221.548 182.44 221.613C182.933 222.106 184.239 222.818 185.517 222.818C185.544 222.818 185.572 222.818 185.599 222.818C185.694 222.818 185.765 222.887 185.767 222.977C185.77 223.068 185.698 223.143 185.608 223.145C185.577 223.145 185.547 223.145 185.516 223.145Z" fill="#E8825F"/>
<path d="M194.305 220.787C194.241 220.787 194.18 220.75 194.154 220.688C194.118 220.604 194.157 220.508 194.24 220.472L197.448 219.096C197.531 219.061 197.627 219.099 197.663 219.182C197.699 219.265 197.66 219.362 197.577 219.398L194.369 220.773C194.349 220.782 194.327 220.786 194.305 220.786V220.787Z" fill="#E8825F"/>
<path d="M178.642 229.596C175.59 229.596 172.71 229.206 171.387 228.997C171.297 228.983 171.236 228.899 171.25 228.809C171.264 228.719 171.348 228.658 171.438 228.672C173.194 228.95 177.71 229.548 181.697 229.115C183.572 228.912 186.163 228.108 188.296 227.069C188.376 227.029 188.475 227.063 188.515 227.144C188.555 227.226 188.521 227.323 188.44 227.364C186.276 228.419 183.643 229.234 181.733 229.442C180.718 229.552 179.671 229.596 178.643 229.596H178.642Z" fill="#E8825F"/>
<path d="M171.002 235.888C170.937 235.888 170.874 235.849 170.849 235.783C170.816 235.699 170.858 235.604 170.942 235.571C176.195 233.527 185.124 232.75 186.332 232.75C186.423 232.75 186.496 232.823 186.496 232.914C186.496 233.005 186.423 233.078 186.332 233.078C185.134 233.078 176.273 233.85 171.061 235.877C171.041 235.885 171.022 235.888 171.002 235.888Z" fill="#E8825F"/>
<path d="M174.431 238.941C174.411 238.941 174.391 238.938 174.372 238.93C174.288 238.897 174.246 238.802 174.279 238.718C174.754 237.497 177.868 234.673 180.524 233.348C180.605 233.308 180.703 233.341 180.744 233.422C180.784 233.503 180.751 233.601 180.671 233.641C178.12 234.914 175.03 237.691 174.585 238.837C174.56 238.901 174.497 238.942 174.432 238.942L174.431 238.941Z" fill="#E8825F"/>
</g>
<defs>
<clipPath id="clip0_199_1820">
<path d="M0 0H344V319C344 330.046 335.046 339 324 339H0V0Z" fill="white"/>
</clipPath>
</defs>
</svg>
