<svg width="427" height="294" viewBox="0 0 427 294" fill="none" xmlns="http://www.w3.org/2000/svg">
<g clip-path="url(#clip0_2087_36)">
<path d="M-513.671 295.447H-413.576C-413.381 295.188 -413.182 294.929 -412.987 294.67C-412.854 294.498 -412.721 294.327 -412.589 294.155C-412.531 294.586 -412.464 295.017 -412.381 295.447H-353.497C-326.665 273.343 -300.361 251.786 -273.139 230.138C-290.75 251.1 -307.465 272.875 -322.985 295.447H-247.411C-239.489 288.998 -231.725 282.808 -224.488 277.145C-225.397 277.785 -219.098 273.167 -224.393 277.078C-221.824 275.317 -192.581 251.682 -144.287 218.954C-168.662 242.388 -193 267.349 -218.351 295.452H-139.548C-108.861 270.265 -78.3281 246.215 -38.0098 216.712C-31.8517 212.203 -25.6728 207.724 -19.4732 203.265C-27.9593 212.337 -36.3375 221.518 -44.5788 230.824C-63.1652 251.811 -81.0959 273.376 -98.3917 295.452H-17.3984C-4.16921 284.887 6.76939 276.216 19.6832 266.137C53.1877 240.038 88.0532 214.014 122.267 190.04C104.615 207.08 87.3104 224.491 70.4212 242.313C53.9719 259.67 37.9086 277.396 22.2186 295.452H112.57C124.305 286.752 136.086 278.107 147.941 269.575C146.755 270.925 145.568 272.276 144.385 273.632C138.144 280.817 132.019 288.095 125.985 295.447H225.54C231.138 291.307 236.749 287.183 242.388 283.105C243.106 282.586 243.824 282.072 244.542 281.557C243.459 282.737 242.359 283.904 241.276 285.092C238.155 288.517 235.068 291.976 232.001 295.447H467.442C468.201 293.444 468.94 291.432 469.645 289.4C472.915 279.955 468.089 268.692 460.694 262.937C457.491 260.44 454.142 258.955 450.71 258.29C456.532 253.518 462.396 248.796 468.317 244.149C476.612 237.637 477.666 222.145 472.222 213.638C466.533 204.746 454.632 198.209 444.013 202.069C416.305 212.14 389.042 223.479 362.355 236.039C372.613 226.716 382.958 217.502 393.362 208.368C409.566 194.135 425.912 180.061 442.261 165.995C450.295 159.081 451.797 144.288 446.166 135.484C443.838 131.845 440.817 128.8 437.203 126.449C432.51 123.4 423.285 121.681 417.957 123.911C388.033 136.437 359.123 150.783 331.009 166.522C331.942 165.807 332.876 165.087 333.814 164.376C338.644 160.721 343.507 157.107 348.4 153.539C358.886 145.89 369.518 138.445 380.278 131.188C391.117 123.873 396.856 108.653 389.241 96.7412C381.651 84.8754 369.908 81.1405 355.064 87.707C348.279 90.71 341.54 93.7925 334.843 96.9587C325.95 101.162 318.717 88.761 326.672 82.9557C333.013 78.3298 339.636 73.5659 346.591 68.639C371.372 51.0767 355.089 16.6129 327.344 22.6231C273.299 34.3257 213.469 70.3287 163.905 101.881C217.303 59.2744 223.735 61.0017 227.404 47.5717C229.051 41.5447 228.308 33.5185 224.885 28.1733C221.445 22.7988 216.328 18.0642 209.958 16.6045C202.995 15.0068 197.194 16.2615 190.712 19.1433C169.785 28.4368 149.257 38.5584 129.069 49.3284C126.089 35.8816 110.528 25.1661 98.22 30.3942C96.2323 31.2391 94.2487 32.0965 92.261 32.9497L92.2527 32.933C89.5928 34.6938 46.3116 51.5451 -17.3942 84.7249C-28.5818 90.5511 -38.6655 75.2975 -29.0092 67.15C-26.038 64.6447 -23.0668 62.1352 -20.0915 59.6257C-10.568 51.5911 -11.1323 35.706 -18.137 26.5672C-25.9508 16.3745 -39.151 14.2623 -50.3592 20.0843C-83.955 37.5337 -116.484 56.7899 -148.192 77.3469C-158.379 83.9511 -169.401 70.2534 -160.886 61.5747C-160.633 61.3154 -160.375 61.0561 -160.122 60.7968C-151.337 51.8462 -150.611 37.5965 -158.168 27.7383C-165.434 18.2608 -179.883 14.3794 -190.39 21.2554C-219.143 40.06 -247.017 60.2572 -273.865 81.7595C-277.67 84.8043 -282.6 79.7477 -279.504 75.9709C-270.388 64.8413 -260.54 53.239 -250.34 41.6953C-228.617 17.1148 -259.179 -15.5924 -285.667 6.08971C-303.087 20.352 -319.947 35.3045 -336.21 50.8843C-341.247 55.7109 -349.543 52.0219 -349.476 45.0162C-349.476 44.8949 -349.476 44.7736 -349.476 44.6482C-349.476 20.3395 -380.802 12.1334 -392.118 26.8433C-451.322 103.81 -493.217 181.96 -523.887 267.763C-527.406 277.609 -522.194 289.512 -513.671 295.443V295.447Z" fill="url(#paint0_linear_2087_36)"/>
<path d="M398.21 178.95C379.315 181.708 383.898 189.733 370.837 196.737C383.912 199.662 400.57 197.436 400.57 197.436C400.57 197.436 404.322 196.037 400.57 206.26C396.818 216.484 400.57 230.627 398.347 234.409C405.433 230.069 415.854 210.18 415.854 210.18C415.854 210.18 417.409 211.438 420.857 215.781C424.302 220.124 430.026 221.662 431.555 224.464C433.463 216.202 431.555 203.038 431.555 203.038C431.555 203.038 424.851 204.787 437.947 206.678C451.039 208.569 464.331 201.426 471.417 203.946C461.968 190.082 440.587 180.491 448.945 182.311C449.374 182.405 408.348 190.715 398.207 178.95H398.21Z" fill="#266E70"/>
<path d="M405.158 174.469C400.989 168.447 408.425 160.747 414.884 162.987C423.475 165.969 411.716 180.912 424.695 174.469C431.002 166.486 443.509 165.927 439.894 173.07C436.282 180.212 411.549 191.976 405.158 174.469Z" fill="#266E70"/>
<path d="M423.361 249.631C420.861 254.156 410.294 251.16 410.294 251.16C407.745 240.906 408.194 220.221 409.326 208.374C409.74 204.099 410.239 200.982 410.718 199.915C412.523 195.892 418.492 190.011 421.549 198.415C421.739 198.938 421.923 199.576 422.098 200.312C422.148 200.509 422.197 200.714 422.238 200.935C422.378 201.558 422.506 202.243 422.632 202.987C422.661 203.137 422.687 203.29 422.708 203.44C422.842 204.234 422.961 205.09 423.081 205.989C423.11 206.21 423.145 206.428 423.166 206.648C423.18 206.739 423.195 206.833 423.201 206.924C423.25 207.277 423.291 207.648 423.335 208.015C423.355 208.227 423.385 208.439 423.405 208.659C423.44 209.006 423.481 209.353 423.519 209.715C423.539 209.906 423.559 210.097 423.574 210.294C423.638 210.882 423.688 211.476 423.743 212.085C423.764 212.291 423.778 212.488 423.799 212.693C423.848 213.311 423.898 213.931 423.948 214.564C423.997 215.193 424.047 215.831 424.088 216.475C424.117 216.898 424.143 217.33 424.172 217.772C424.201 218.254 424.228 218.733 424.257 219.224C424.277 219.542 424.298 219.862 424.312 220.18C424.452 222.805 424.557 225.475 424.621 228.08C424.875 238.284 424.516 247.543 423.364 249.631H423.361Z" fill="#A76D52"/>
<path d="M424.619 228.078C422.524 216.666 415.788 210.371 409.326 208.374C409.74 204.099 410.239 200.982 410.718 199.915C412.524 195.892 418.492 190.011 421.55 198.415C421.739 198.938 421.923 199.576 422.098 200.312C422.148 200.509 422.197 200.714 422.238 200.935C422.378 201.558 422.507 202.243 422.632 202.987C422.661 203.137 422.687 203.29 422.708 203.44C422.842 204.234 422.962 205.09 423.081 205.989C423.11 206.21 423.145 206.428 423.166 206.648C423.18 206.739 423.195 206.833 423.201 206.924C423.25 207.277 423.291 207.648 423.335 208.015C423.355 208.227 423.385 208.439 423.405 208.659C423.446 209.006 423.481 209.353 423.519 209.715C423.539 209.906 423.56 210.097 423.574 210.294C423.638 210.882 423.694 211.476 423.743 212.085C423.764 212.291 423.778 212.488 423.799 212.693C423.854 213.311 423.904 213.931 423.948 214.564C423.997 215.193 424.047 215.831 424.088 216.475C424.117 216.898 424.143 217.33 424.172 217.772C424.201 218.254 424.228 218.733 424.257 219.224C424.277 219.542 424.298 219.862 424.312 220.18C424.452 222.805 424.557 225.475 424.622 228.08L424.619 228.078Z" fill="#754D3B"/>
<path d="M392.559 245.494H437.206V266.447C437.206 274.342 430.846 280.749 423.016 280.749H406.749C398.916 280.749 392.559 274.339 392.559 266.447V245.494Z" fill="#405B57"/>
<path d="M437.207 265.153L407.34 280.752H423.017C430.853 280.752 437.207 274.348 437.207 266.45V265.153Z" fill="#2B3836"/>
<path d="M411.272 177.409C411.549 161.026 418.524 153.601 424.694 149.961C430.865 146.321 441.918 137.217 448.64 136.012C438.931 146.094 436.422 168.588 427.39 177.409C436.775 169.941 442.335 165.892 449.973 167.115C462.252 169.079 474.076 175.589 486.996 180.07C480.605 183.993 455.577 189.033 452.528 188.894C449.48 188.753 434.059 186.795 434.059 186.795C443.925 196.319 446.043 219.145 451.236 222.506C440.728 221.527 420.164 210.883 415.995 199.68C410.438 210.462 378.201 218.586 372.784 227.408C374.035 218.166 383.482 197.577 390.431 190.576C397.377 183.575 405.297 183.014 405.297 183.014C405.297 183.014 365.698 183.993 355 171.67C371.812 172.931 383.762 162.566 393.211 163.548C402.66 164.528 410.44 173.631 411.275 177.412L411.272 177.409Z" fill="#3A8585"/>
<path d="M455.803 175.927C443.501 175.695 431.464 177.186 419.952 181.567C419.115 181.888 419.477 183.255 420.326 182.931C431.723 178.594 443.687 176.501 455.87 176.733C456.774 176.751 456.704 175.945 455.8 175.927H455.803Z" fill="#8CC2BD"/>
<path d="M427.143 157.268C421.154 164.107 418.312 172.955 419.293 182.038C419.389 182.934 420.795 182.943 420.699 182.038C419.762 173.337 421.638 164.378 427.391 157.806C427.986 157.124 427.744 156.583 427.143 157.268Z" fill="#8CC2BD"/>
<path d="M430.702 199.35C429.57 194.537 426.854 190.476 422.901 187.554C422.172 187.013 421.469 188.242 422.192 188.777C425.842 191.476 428.917 194.896 429.961 199.327C430.168 200.212 430.912 200.238 430.702 199.35Z" fill="#8CC2BD"/>
<path d="M401.396 174.625C397.685 172.79 393.735 173.005 389.668 172.578C388.77 172.484 388.7 173.163 389.589 173.257C393.408 173.657 397.201 174.122 400.687 175.848C401.495 176.248 402.21 175.028 401.396 174.625Z" fill="#8CC2BD"/>
<path d="M328.909 150.938C307.583 172.788 272.756 154.972 272.039 150.514C269.833 136.806 273.859 130.77 271.19 124.051C268.515 117.332 265.352 110.593 266.085 99.781C266.674 90.9746 270.405 80.3187 275.948 71.8945C281.161 63.9643 287.973 58.01 295.278 57.4219C299.709 57.0603 304.325 58.6833 308.876 63.0351C314.433 59.9683 327.745 70.4125 328.909 83.4472C332.736 126.027 350.243 129.091 328.909 150.941V150.938Z" fill="#363537"/>
<path d="M332.797 107.755C332.313 106.991 331.096 107.699 331.584 108.47C335.385 114.474 339.309 120.761 340.826 127.812C342.448 135.354 340.382 144.528 332.062 146.768C331.19 147.003 331.56 148.371 332.435 148.132C339.297 146.286 342.871 139.573 342.821 132.725C342.754 123.58 337.509 115.191 332.797 107.752V107.755Z" fill="#363537"/>
<path d="M341.756 139.711C341.339 132.848 338.988 126.338 335.151 120.678C334.644 119.931 333.427 120.637 333.938 121.393C337.001 125.912 339.134 130.961 339.988 136.386C340.91 142.219 341.068 150.176 335.017 153.24C334.209 153.649 334.921 154.872 335.726 154.463C341.208 151.687 342.095 145.327 341.753 139.711H341.756Z" fill="#363537"/>
<path d="M280.143 135.727C274.547 136.121 271.522 128.935 269.457 124.656C267.184 119.958 265.46 114.888 264.865 109.675C264.328 104.965 264.786 100.228 266.376 95.7553C268.071 90.986 270.478 85.2435 274.297 81.815C274.973 81.2063 273.976 80.2095 273.302 80.8152C269.244 84.4584 266.805 90.3068 265.02 95.3819C263.112 100.807 262.826 106.549 263.821 112.198C264.868 118.158 267.231 123.854 270.192 129.096C272.406 133.016 275.067 137.506 280.143 137.147C281.038 137.085 281.047 135.668 280.143 135.73V135.727Z" fill="#363537"/>
<path d="M274.772 158.201C268.17 152.523 267.858 142.931 268.5 134.842C269.159 126.518 270.898 118.317 270.239 109.931C270.169 109.029 268.763 109.02 268.833 109.931C269.594 119.602 267.117 129.032 266.887 138.662C266.712 146.033 267.917 154.16 273.777 159.2C274.463 159.788 275.461 158.792 274.769 158.201H274.772Z" fill="#363537"/>
<path d="M324.489 144.533C324.489 144.533 340.834 152.613 343.892 154.575C346.949 156.536 351.025 162.825 353.341 177.016C361.156 224.908 368.911 221.921 368.006 234.229C369.549 237.881 370.818 240.366 371.688 241.625C372.347 242.58 372.96 249.264 371.411 254.039C370.632 256.441 373.263 265.08 373.54 266.824C373.817 268.567 365.13 287.03 359.091 287.03H311.419C311.419 287.03 269.535 290.006 270.449 285.169C271.362 280.332 265.031 270.29 263.263 262.06C255.579 254.894 243.134 250.01 242.898 234.138C242.752 224.347 242.568 212.785 246.941 179.5C249.409 160.708 254.961 155.81 257.469 154.76C258.35 154.392 278.632 144.533 278.632 144.533H324.492H324.489Z" fill="#9ED2EC"/>
<path d="M302.713 187.463C302.646 186.557 301.269 186.845 301.336 187.745C302.127 198.266 302.369 208.804 302.08 219.351C302.057 220.26 303.457 220.36 303.481 219.448C303.772 208.775 303.513 198.11 302.713 187.463Z" fill="#446C8F"/>
<path d="M285.259 142.951C280.25 156.489 294.483 183.608 301.147 187.716C317.186 173.525 318.475 149.191 317.772 142.393C317.364 142.322 314.038 139.376 314.012 136.532C300.578 134.251 291.269 135.647 287.858 136.432C287.324 139.193 285.259 142.954 285.259 142.954V142.951Z" fill="#F1BBA2"/>
<path d="M286.37 127.794C286.974 130.341 288.351 140.585 289.118 142.484C292.853 151.726 297.768 152.567 300.805 152.567C304.087 152.567 310.359 150.979 313.046 142.67C313.968 139.82 314.009 135.369 314.829 127.077C300.814 124.286 286.367 127.791 286.367 127.791L286.37 127.794Z" fill="#F1BBA2"/>
<path d="M314.547 130.943C307.134 143.828 296.343 153.29 287.857 136.43C287.778 135.963 286.908 130.685 286.908 130.685L314.562 130.103L314.547 130.943Z" fill="#CD9A82"/>
<path d="M321.808 99.6874C329.77 98.4024 329.002 111.243 320.767 117.436C320.767 117.436 320.767 102.096 321.808 99.6874Z" fill="#F1BBA2"/>
<path d="M277.587 99.6874C269.626 98.4025 268.138 109.599 278.629 117.436C278.629 117.436 278.629 102.096 277.587 99.6874Z" fill="#F1BBA2"/>
<path d="M324.526 90.7161C324.526 80.4336 320.646 67.2812 300.4 67.2812C280.154 67.2812 276.23 80.2836 276.23 93.433C276.169 103.527 276.872 110.208 279.089 118.594C281.549 127.891 287.727 132.29 294.58 137.495C295.566 138.244 297.958 139.338 300.4 139.447C302.842 139.338 305.234 138.244 306.22 137.495C313.073 132.29 320.039 127.891 321.711 118.594C323.374 109.337 325.296 100.51 324.529 90.7161H324.526Z" fill="#F1BBA2"/>
<path d="M311.416 105.915C311.416 104.35 312.405 103.083 313.625 103.083C314.844 103.083 315.833 104.35 315.833 105.915C315.833 107.479 314.844 108.746 313.625 108.746C312.405 108.746 311.416 107.479 311.416 105.915Z" fill="#363537"/>
<path d="M286.908 105.916C286.908 104.351 287.897 103.084 289.117 103.084C290.336 103.084 291.325 104.351 291.325 105.916C291.325 107.48 290.336 108.747 289.117 108.747C287.897 108.747 286.908 107.48 286.908 105.916Z" fill="#363537"/>
<path d="M301.769 121.187C301.314 121.187 300.876 120.925 300.672 120.478C300.392 119.866 300.658 119.146 301.264 118.864C302.475 118.302 302.391 116.991 301.743 114.259C301.615 113.721 301.495 113.209 301.41 112.721C301.299 112.06 301.74 111.43 302.396 111.319C303.053 111.204 303.677 111.651 303.788 112.313C303.858 112.724 303.969 113.195 304.088 113.695C304.646 116.041 305.486 119.584 302.274 121.075C302.111 121.151 301.938 121.187 301.769 121.187Z" fill="#CD9A82"/>
<path d="M310.122 95.6883C307.747 95.9294 305.337 99.0492 307.485 98.9433C316.581 98.5052 319.702 100.449 319.924 99.993C320.51 98.7904 316.339 95.0532 310.122 95.6883Z" fill="#363537"/>
<path d="M291.039 95.7858C293.426 95.7329 295.906 99.0231 293.755 98.9732C284.651 98.7673 282.877 100.467 282.579 100.055C281.687 98.8203 285.555 95.9063 291.037 95.7858H291.039Z" fill="#363537"/>
<path d="M290.622 122.604C298.172 124.486 303.616 124.283 310.988 122.604C310.988 122.604 308.208 130.102 301.025 130.102C293.843 130.102 290.622 122.604 290.622 122.604Z" fill="#5D1A1C"/>
<mask id="mask0_2087_36" style="mask-type:luminance" maskUnits="userSpaceOnUse" x="290" y="122" width="21" height="9">
<path d="M290.622 122.604C298.172 124.486 303.616 124.283 310.988 122.604C310.988 122.604 308.208 130.102 301.025 130.102C293.843 130.102 290.622 122.604 290.622 122.604Z" fill="white"/>
</mask>
<g mask="url(#mask0_2087_36)">
<path d="M301.198 136.164C305.953 136.164 309.807 133.714 309.807 130.692C309.807 127.67 305.953 125.22 301.198 125.22C296.443 125.22 292.589 127.67 292.589 130.692C292.589 133.714 296.443 136.164 301.198 136.164Z" fill="#ED4053"/>
<path d="M300.804 126.116C306.231 126.116 310.63 124.02 310.63 121.435C310.63 118.85 306.231 116.754 300.804 116.754C295.378 116.754 290.979 118.85 290.979 121.435C290.979 124.02 295.378 126.116 300.804 126.116Z" fill="white"/>
</g>
<path d="M323.612 107.806C324.096 88.4699 311.706 88.9875 309.267 74.5031C308.798 78.5256 304.623 81.6894 299.383 84.8121C296.096 86.7733 292.388 88.714 288.916 90.8428C281.576 95.3445 275.281 100.675 276.223 108.747L272.381 122.099C272.381 122.099 266.079 84.9356 276.223 74.856C277.711 73.377 279.187 72.0891 280.634 70.9629C286.288 66.6023 291.585 64.8234 296.25 64.4059C302.832 63.8266 308.15 65.9408 311.414 67.2816C317.582 69.8162 331.482 76.3291 323.609 107.806H323.612Z" fill="#363537"/>
<path opacity="0.26" d="M296.034 82.8209C293.998 80.6832 298.4 77.3194 298.624 75.1259C298.715 74.1644 298.519 73.3499 297.977 72.556C297.078 71.2534 295.313 71.0917 294.409 69.992C292.822 68.0602 295.316 67.6485 296.046 66.0989C296.425 65.2992 296.375 64.9581 296.25 64.4082C296.209 64.2171 296.159 64.0054 296.116 63.7349C296.031 63.2468 295.468 63.1762 295.302 62.7587C294.094 59.8359 294.409 60.6769 294.782 58.9773C294.893 58.4393 295.077 57.9306 295.272 57.4189C287.968 58.007 281.153 63.9613 275.942 71.8915C277.439 71.6945 279.469 70.7506 280.633 70.9653C281.442 71.1211 281.835 71.8297 281.351 73.7263C280.922 75.4052 279.799 78.0163 281.147 79.5953C281.631 80.1628 282.255 80.3392 282.967 80.4304C283.831 80.5509 285.882 79.5953 286.465 79.9981C287.673 80.8332 284.484 85.4555 284.688 87.1403C284.977 89.5397 286.55 89.2574 288.145 90.1277C288.531 90.3394 288.779 90.5747 288.919 90.8422C292.387 88.7105 296.098 86.7698 299.386 84.8115C298.502 83.7001 296.877 83.7148 296.034 82.8209Z" fill="#9ED2EC"/>
<path d="M314.161 134.527C316.915 136.221 323.205 142.205 325.568 146.733C330.404 156.004 316.206 199.907 313.624 199.198L300.803 187.248C304.359 183.073 316.728 161.841 315.267 140.711C313.478 139.447 313.89 137.15 314.161 134.527Z" fill="white"/>
<path d="M286.368 141.758C284.959 160.511 296.418 181.012 300.805 187.248C295.91 192.103 286.91 199.207 286.91 199.207C278.436 182.567 276.038 168.691 275.323 158.477C274.739 150.149 278.296 142.075 284.851 136.971C286.455 135.721 287.593 134.83 287.593 134.83C288.392 139.444 287.858 140.99 286.371 141.758H286.368Z" fill="white"/>
<path d="M346.252 174.469C344.671 179.441 341.797 183.179 338.594 187.281C338.04 187.989 339.029 188.998 339.586 188.283C342.941 183.987 345.458 179.247 347.112 174.043C347.39 173.173 346.526 173.605 346.252 174.472V174.469Z" fill="#446C8F"/>
<path d="M256.136 162.426C255.868 161.558 255.538 162.67 255.807 163.543C258.065 170.862 259.687 178.448 259.325 186.19C258.94 194.37 256.796 202.753 255.462 210.827C255.314 211.718 256.67 212.1 256.816 211.204C258.173 202.991 260.34 194.514 260.728 186.19C261.099 178.301 258.432 169.868 256.136 162.426Z" fill="#446C8F"/>
<path d="M342.113 236.279C342.373 231.671 339.756 227.858 341.524 223.724C343.038 220.18 343.96 216.464 344.275 212.618C344.966 204.208 342.224 197.004 340.045 189.071C337.402 179.456 340.678 171.891 342.822 162.708C343.029 161.823 342.539 160.985 342.332 161.873C340.585 169.356 336.798 176.689 337.696 184.564C338.195 188.951 339.919 193.035 341.153 197.24C342.495 201.818 343.181 206.584 342.953 211.362C342.717 216.323 341.358 220.798 339.281 225.261C338.222 227.534 342.069 229.781 341.399 232.168C340.809 235.038 340.544 236.791 340.94 238.896C341.18 240.166 341.722 241.239 342.084 242.457C342.726 244.606 343.948 244.98 342.411 248.923C341.95 250.102 342.125 250.943 342.901 252.022C344.021 253.58 344.996 253.16 344.972 255.965C344.966 256.609 344.78 257.344 344.535 258.094L346.396 256.876C346.618 255.979 346.717 255.109 346.55 254.345C346.227 252.866 344.826 252.472 344.115 251.301C343.108 249.655 344.511 248.146 344.727 246.647C344.855 245.741 344.634 245.009 344.397 244.139C343.977 242.595 342.977 241.248 342.56 239.681C342.253 238.534 342.116 237.402 342.11 236.27L342.119 236.279H342.113Z" fill="#446C8F"/>
<path d="M364.578 252.192C360.879 251.907 357.072 251.613 353.434 252.545C350.289 253.351 347.579 255.142 344.913 256.932C341.286 259.367 337.73 261.358 333.313 261.855C329.296 262.307 325.224 261.799 321.233 261.313C320.337 261.205 320.346 262.622 321.233 262.731C328.302 263.589 335.469 264.174 341.899 260.534C344.93 258.817 347.623 256.506 350.785 255.015C355.147 252.96 359.911 253.248 364.581 253.61C365.483 253.68 365.48 252.263 364.581 252.192H364.578Z" fill="#446C8F"/>
<path d="M360.45 231.222C353.42 237.526 348.186 244.507 345.067 253.454C344.767 254.316 346.123 254.686 346.421 253.831C349.461 245.109 354.557 237.491 361.41 231.348C362.087 230.743 361.124 230.619 360.45 231.222Z" fill="#446C8F"/>
<path d="M259.868 192.694C258.558 188.209 256.904 183.867 254.911 179.65C254.523 178.827 254.856 180.723 255.241 181.544C257.184 185.654 257.236 188.703 258.511 193.073C258.765 193.946 260.122 193.573 259.865 192.696L259.868 192.694Z" fill="#446C8F"/>
<path d="M300.51 162.558C293.87 162.558 289.153 155.11 286.093 139.803C285.979 139.226 286.347 138.668 286.918 138.553C287.487 138.438 288.044 138.809 288.158 139.385C290.985 153.508 295.206 160.597 300.706 160.435C307.383 160.247 311.505 153.508 313.679 139.232C313.766 138.653 314.303 138.256 314.881 138.344C315.455 138.433 315.849 138.976 315.762 139.556C314.28 149.291 311.112 162.267 300.767 162.561C300.682 162.561 300.598 162.564 300.513 162.564L300.51 162.558Z" fill="#F6BB5A"/>
<path d="M290.319 129.371C287.122 129.656 283.633 129.75 280.838 127.898C277.545 125.713 277.553 122.238 277.947 118.671C278.116 117.151 275.753 117.162 275.587 118.671C275.147 122.655 275.327 126.439 278.586 129.177C281.874 131.938 286.25 132.114 290.317 131.75C291.816 131.614 291.831 129.236 290.317 129.371H290.319Z" fill="#9ED2EC"/>
<path d="M325.738 97.2461H324.192C323.078 97.2461 322.176 98.1558 322.176 99.2779V117.743C322.176 118.866 323.078 119.775 324.192 119.775H325.738C326.851 119.775 327.754 118.866 327.754 117.743V99.2779C327.754 98.1558 326.851 97.2461 325.738 97.2461Z" fill="#2E282F"/>
<path d="M277.002 97.2461H275.455C274.342 97.2461 273.44 98.1558 273.44 99.2779V117.743C273.44 118.866 274.342 119.775 275.455 119.775H277.002C278.115 119.775 279.017 118.866 279.017 117.743V99.2779C279.017 98.1558 278.115 97.2461 277.002 97.2461Z" fill="#2E282F"/>
<path d="M326.246 92.4043H324.49V97.2618H326.246V92.4043Z" fill="#2E282F"/>
<path d="M277.107 92.4043H275.351V97.2618H277.107V92.4043Z" fill="#2E282F"/>
<path d="M325.365 94.1733C324.397 94.1733 323.609 93.3794 323.609 92.4032C323.609 77.4954 315.913 69.9387 300.735 69.9387C289.742 69.9387 277.994 75.84 277.994 92.4032C277.994 93.3794 277.209 94.1733 276.238 94.1733C275.266 94.1733 274.482 93.3794 274.482 92.4032C274.482 73.2084 288.622 66.3984 300.732 66.3984C317.993 66.3984 327.119 75.3901 327.119 92.4032C327.119 93.3794 326.334 94.1733 325.362 94.1733H325.365Z" fill="#446C8F"/>
<path d="M209.916 179.847C209.638 173.273 220.196 169.738 220.196 169.738L222.259 183.914C222.259 183.914 215.473 189.504 209.916 179.847Z" fill="#446C8F"/>
<path d="M231.573 171.769C231.118 168.567 228.985 159.094 228.387 156.253C227.556 152.307 220.318 147.403 215.577 145.015C212.374 143.401 204.13 135.844 202.686 134.821C201.131 133.715 197.073 135.865 199.089 138.767C201.104 141.669 204.544 144.3 206.324 145.974C208.103 147.647 209.527 151.354 209.527 151.354C209.527 151.354 199.444 153.357 197.782 153.254C196.122 153.148 189.359 149.92 188.055 149.443C186.751 148.964 180.409 146.094 178.656 146.812C176.902 147.529 176.22 149.681 177.868 151.116C179.513 152.551 186.512 155.897 186.512 155.897C186.512 155.897 176.902 155.3 175.718 156.615C174.531 157.929 174.414 160.44 176.905 161.278C178.921 163.789 187.107 164.627 187.107 164.627C187.107 164.627 193.514 170.485 196.241 170.126C198.969 169.767 205.256 168.332 205.968 168.094C206.679 167.856 217.473 169.17 217.713 169.888C217.949 170.605 219.729 183.637 219.729 183.637C219.729 183.637 231.911 182.505 231.573 171.772V171.769Z" fill="#F1BBA2"/>
<path d="M223.999 161.116C221.036 158.584 219.002 155.87 214.845 156.932C212.432 157.546 210.434 159.075 208.363 160.384C205.746 162.036 202.974 163.321 199.964 164.056C197.75 164.597 196.028 165.088 193.98 163.553C193.091 162.886 192.452 161.921 191.524 161.283C190.468 160.557 189.091 159.963 187.787 160.348C185.389 161.057 185.129 163.938 186.772 165.529C187.329 166.067 188.02 165.562 187.463 165.023C186.279 163.139 187.218 161.339 188.837 161.339C189.984 161.339 190.427 161.957 191.626 162.951C192.163 163.395 192.601 163.956 193.129 164.412C193.77 164.968 194.447 165.544 195.287 165.77C197.82 166.453 201.434 165.023 203.733 164.127C206.793 162.93 209.288 160.978 212.135 159.407C214.326 158.199 216.732 157.331 219.18 158.299C220.852 158.96 222.272 160.46 223.632 161.621C224.218 162.121 224.583 161.621 223.994 161.119L223.999 161.116Z" fill="#CD9A82"/>
<path d="M209.527 151.351L214.154 150.155C214.391 149.558 208.851 149.808 208.851 149.808L209.527 151.349V151.351Z" fill="#CD9A82"/>
<path d="M271.953 283.88C266.168 270.225 231.21 169.364 231.21 169.364C231.779 172.449 220.349 182.246 209.978 179.858C211.048 182.37 214.004 205.596 219.514 221.521C223.432 232.844 223.476 243.938 225.393 255.217C228.777 275.144 243.054 281.807 263.006 283.239L271.956 283.883L271.953 283.88Z" fill="#9ED2EC"/>
<path d="M374.244 273.149C373.106 273.149 372.188 272.22 372.188 271.076V251.161C372.188 250.014 373.109 249.088 374.244 249.088C385.123 249.088 386.52 254.51 386.52 259.235C386.52 267.43 381.473 273.152 374.244 273.152V273.149ZM376.301 253.287V268.762C380.499 267.718 382.404 263.46 382.404 259.235C382.404 254.775 380.502 253.537 376.301 253.29V253.287Z" fill="#B52F41"/>
<path d="M376.479 243.281H350.608C349.546 243.281 348.686 244.149 348.686 245.219V278.816C348.686 279.886 349.546 280.753 350.608 280.753H376.479C377.54 280.753 378.401 279.886 378.401 278.816V245.219C378.401 244.149 377.54 243.281 376.479 243.281Z" fill="#E2606E"/>
<path d="M348.686 278.812C348.686 279.88 349.552 280.753 350.611 280.753H376.479C377.538 280.753 378.404 279.88 378.404 278.812V263.531L348.688 278.386V278.812H348.686Z" fill="#C8606B"/>
<path d="M361.461 197.79H232.461C229.911 197.79 228.727 200.416 227.443 202.371L234.337 264.722C233.815 269.55 235.901 271.3 238.173 271.3H355.583C357.859 271.3 359.942 269.55 360.242 267.374L366.418 202.983C365.353 200.004 364.008 197.793 361.461 197.793V197.79Z" fill="white"/>
<path d="M362.661 199.807H231.099C228.549 199.807 226.793 202.156 227.172 205.026L233.515 270.805C233.812 272.981 235.898 274.73 238.174 274.73H355.584C357.859 274.73 359.942 272.981 360.242 270.805L366.585 205.026C366.964 202.156 365.208 199.807 362.658 199.807H362.661Z" fill="#2E282F"/>
<path d="M357.098 274.731H236.66C235.221 274.731 234.055 275.907 234.055 277.357V277.592C234.055 279.043 235.221 280.218 236.66 280.218H357.098C358.537 280.218 359.703 279.043 359.703 277.592V277.357C359.703 275.907 358.537 274.731 357.098 274.731Z" fill="#363537"/>
<path d="M291.498 240.835C291.466 238.241 293.943 236.115 297.035 236.115C300.128 236.115 302.607 238.241 302.572 240.835C302.54 243.396 300.061 245.451 297.035 245.451C294.01 245.451 291.53 243.396 291.498 240.835Z" fill="#FCF7ED"/>
<path opacity="0.49" d="M304.442 131.822C302.029 132.166 299.967 132.119 297.604 131.563C296.723 131.357 296.349 132.722 297.23 132.927C299.859 133.545 302.143 133.565 304.815 133.183C305.708 133.057 305.329 131.692 304.442 131.819V131.822Z" fill="#CD9A82"/>
<path d="M314.608 70.171C313.409 69.5682 311.557 69.136 310.215 69.3889C310.002 69.43 308.511 70.0975 308.785 70.1092C308.549 70.0975 308.073 69.5476 307.849 69.4535C304.961 68.2421 303.251 67.4982 299.928 67.704C293.064 68.1304 288.6 70.8326 283.399 75.0755C281.132 76.925 279.303 79.4155 277.789 81.9884C275.793 85.3845 275.928 91.3241 277.141 95.6964C277.628 97.4518 280.096 94.6026 280.234 92.7913C280.452 89.9127 279.3 87.0811 280.018 84.1878C280.706 81.4209 282.85 79.2009 284.971 77.4543C289.161 74.0082 292.766 71.2678 298.356 70.6503C300.733 70.3886 303.251 70.1622 305.433 71.3207C306.749 72.0176 307.213 72.6409 308.736 72.6144C310.62 72.5792 311.79 72.0029 313.532 73.0202C314.97 73.8612 316.329 75.0961 317.26 76.4752C318.888 78.8892 319.775 83.2086 318.774 86.0931C318.176 87.8162 322.695 92.1591 323.29 90.4478C325.356 84.5024 322.517 74.1405 314.608 70.1681V70.171Z" fill="#363537"/>
<path d="M91.0012 283.837C91.0012 287.183 92.4088 289.889 94.1455 289.889H520.443C521.314 289.889 522.098 289.215 522.669 288.115C523.237 287.022 523.591 285.506 523.591 283.837C523.591 280.49 522.18 277.774 520.442 277.774H94.1438C93.2731 277.774 92.489 278.449 91.9211 279.548C91.4513 280.453 91.1289 281.644 91.0307 282.97C91.011 283.25 90.9996 283.54 90.9996 283.837H91.0012Z" fill="#DCBFA3"/>
<path d="M95.654 289.889H518.936C518.936 292.978 517.622 295.48 516 295.48H98.5892C96.9677 295.48 95.654 292.978 95.654 289.889Z" fill="#BDA084"/>
</g>
<defs>
<linearGradient id="paint0_linear_2087_36" x1="-123.031" y1="147.226" x2="166.791" y2="147.226" gradientUnits="userSpaceOnUse">
<stop stop-color="#FCF7ED" stop-opacity="0"/>
<stop offset="1" stop-color="#FCF7ED"/>
</linearGradient>
<clipPath id="clip0_2087_36">
<rect width="427" height="294" fill="white"/>
</clipPath>
</defs>
</svg>
