<svg width="240" height="155" viewBox="0 0 240 155" fill="none" xmlns="http://www.w3.org/2000/svg">
<path d="M97.3197 83.6849C97.3197 123.073 129.261 155 168.661 155C208.058 155 240 123.073 240 83.6849C240 44.2974 208.058 12.3677 168.661 12.3677C129.26 12.3685 97.3197 44.2982 97.3197 83.6849Z" fill="#7FCBB4"/>
<path d="M1.00754e-05 46.5828C1.00754e-05 72.3088 21.0459 93.1648 47.0132 93.1648C72.9738 93.1648 94.0206 72.3096 94.0206 46.5828C94.0206 20.856 72.9747 0 47.0132 0C21.0459 0 1.00754e-05 20.856 1.00754e-05 46.5828Z" fill="#68CCEA"/>
<path d="M72.8072 149.639C59.5224 149.639 48.753 138.72 48.753 125.252C48.753 111.784 59.5224 100.865 72.8072 100.865C86.0921 100.865 96.8615 111.784 96.8615 125.252C96.8615 138.72 86.0921 149.639 72.8072 149.639Z" fill="#F2C45B"/>
</svg>
