<svg width="468" height="478" fill="none" xmlns="http://www.w3.org/2000/svg"><g clip-path="url(#a)"><rect x=".191" y="28.738" width="447.841" height="449.038" rx="223.921" fill="#F37E60"/><path d="M191.757 4.021c3.056-3.16 7.655-4.495 11.972-3.872 8.886 1.113 16.274 7.017 25.071 8.47 10.637 1.707 21.348-1.809 31.984-.014 6.379 1.202 12.254 4.762 16.319 9.806 1.78 2.195 3.07 4.732 4.554 7.12 0-2.803.044-5.696-1.024-8.336-.905-2.315-2.744-4.065-4.198-6.024 3.293 1.113 5.43 4.184 6.334 7.403.965 3.368.505 6.913.208 10.355 4.258-.89 10.073-1.988 12.847 2.359-1.854-.52-3.62-1.276-5.518-1.647-1.929-.37-3.902.06-5.786.43 3.086 1.87 6.453 3.56 8.649 6.542 4.421 5.682 5.014 13.248 4.51 20.176-.831 10.102-3.412 20.057-7.106 29.492a35.063 35.063 0 0 0-3.665-2.79c-1.706-1.127-3.723-1.72-5.756-1.868-3.367-.297-6.735-.52-10.087-.89.118-7.715 0-15.874-3.872-22.802-1.647-2.848-3.961-5.741-7.254-6.646-2.938-.415-5.92.282-8.887-.015-7.269-.682-14.152-3.382-20.694-6.453-2.745-1.469-5.445.786-8.115 1.32-7.714 1.855-15.829-.252-22.786-3.694a38.425 38.425 0 0 1-6.454-6.156c-2.67-3.19-3.723-7.314-5.518-10.978.133 2.492.371 5.074 1.647 7.284 1.157 2.403 3.13 4.362 3.946 6.913.059 2.967-1.335 5.741-2.151 8.56-2.656-2.359-5.163-5.03-6.454-8.412-1.765-4.495-2.952-9.553-1.631-14.315.504-1.854 1.097-3.68 1.557-5.534-3.011 2.76-3.545 7.032-3.694 10.874-.163 6.825 3.19 13.396 8.293 17.802 1.231.965 1.854 2.493 1.32 4.02-.578 2.997-2.314 5.549-3.738 8.19-2.329-2.834-3.931-6.142-5.667-9.347-3.115-6.023-5.652-12.624-5.563-19.508.03-4.569 1.617-9.271 4.984-12.46 1.855-1.84 4.317-2.834 6.661-3.858.49-4.139 1.662-8.456 4.762-11.438v-.059Zm2.092 5.266c2.626 1.632 5.756 2.196 8.382 3.813 3.323 2.003 6.453 4.332 9.39 6.869 5.296 4.584 10.667 9.079 16.081 13.529 4.911 4.05 10.548 7.091 16.2 9.954 3.59 1.84 7.64 2.834 11.675 2.478.994-.06 1.795-.697 2.626-1.143-3.783-.578-7.67-.727-11.304-2.017-6.706-2.077-12.239-6.557-17.817-10.637-7.966-5.474-14.36-12.966-22.594-18.084-3.827-2.418-8.025-4.643-12.669-4.762h.03Zm.074 13.752c.653 3.175 2.448 5.934 4.555 8.338 4.732 5.711 11.704 9.138 18.84 10.77 2.284.356 5.296.8 6.72-1.528-3.308-.297-6.69-.03-9.895-1.039-5.207-1.572-9.613-4.954-13.648-8.485-2.7-2.255-4.258-5.49-6.587-8.056h.015Zm87.586 13.381c2.492 2.033 5.533 3.457 7.565 6.023 1.944 2.092 2.507 5.119 4.658 7.062-.267-3.19-1.587-6.216-3.649-8.678-2.092-2.552-5.059-4.94-8.589-4.421l.015.014Zm-10.355 13.07c.89 5.148 5.058 8.708 8.738 12.016 3.693 3.323 8.797 5.296 13.796 4.406-2.047-1.365-4.629-1.172-6.854-2.047-5.37-2.003-10.043-5.964-12.698-11.067-.683-1.35-1.573-2.64-2.982-3.308Z" fill="#58301F"/><path d="M193.832 9.302c4.629.12 8.842 2.344 12.669 4.762 8.233 5.119 14.627 12.595 22.594 18.084 5.578 4.095 11.111 8.56 17.816 10.637 3.635 1.29 7.522 1.439 11.305 2.017-.831.46-1.647 1.083-2.626 1.143-4.035.356-8.085-.638-11.675-2.478-5.652-2.863-11.29-5.89-16.215-9.954a823.892 823.892 0 0 1-16.081-13.53c-2.937-2.536-6.067-4.865-9.39-6.868-2.641-1.602-5.756-2.18-8.382-3.813h-.015Z" fill="#341707"/><path d="M180.706 30.65c.163-3.857.682-8.13 3.694-10.874-.46 1.854-1.053 3.679-1.558 5.533-1.335 4.762-.133 9.821 1.632 14.316 1.291 3.382 3.798 6.053 6.453 8.411.816-2.818 2.196-5.578 2.151-8.56-.801-2.55-2.789-4.51-3.946-6.912-1.261-2.21-1.498-4.792-1.646-7.284 1.795 3.664 2.848 7.788 5.518 10.977a38.437 38.437 0 0 0 6.453 6.157c-4.376 7.937-6.601 16.808-8.352 25.635-1.735-2.3-3.605-4.644-4.539-7.403 1.424-2.64 3.16-5.192 3.738-8.189.534-1.528-.089-3.056-1.32-4.02-5.103-4.406-8.456-10.978-8.293-17.802l.015.015Z" fill="#3A1807"/><path d="M193.906 23.04c2.329 2.58 3.887 5.8 6.587 8.055 4.035 3.53 8.441 6.913 13.648 8.485 3.204 1.01 6.587.742 9.895 1.039-1.424 2.329-4.436 1.869-6.72 1.528-7.136-1.617-14.108-5.044-18.841-10.77-2.121-2.404-3.916-5.163-4.554-8.338h-.015Z" fill="#381906"/><path d="M281.512 36.42c3.53-.533 6.497 1.855 8.589 4.422 2.047 2.447 3.368 5.489 3.65 8.678-2.152-1.943-2.715-4.955-4.659-7.061-2.032-2.582-5.073-3.99-7.565-6.023l-.015-.015Z" fill="#39190A"/><path d="M199.457 42.413c6.957 3.456 15.072 5.548 22.786 3.694 2.67-.534 5.37-2.79 8.115-1.32 6.542 3.085 13.44 5.77 20.709 6.453 2.952.296 5.934-.4 8.886.014 3.309.905 5.623 3.798 7.255 6.647 3.857 6.927 3.99 15.087 3.872 22.8-4.139-.385-8.367-.607-12.269-2.18-4.465-1.75-8.886-3.96-13.767-4.154-6.29-.326-12.936-.237-18.736 2.522-2.433 1.083-3.946 3.353-5.222 5.593a95.514 95.514 0 0 0-7.699-.341c-2.211-3.116-5.252-5.682-8.975-6.735-4.317-1.454-8.961-1.573-13.471-1.246l.371-.12c2.329-.8 4.807-1.334 7.255-.89 2.759.357 5.34 1.707 8.144 1.677 2.181 0 3.827-2.878 2.314-4.614-1.914-1.958-4.717-2.625-7.313-3.189-3.62-.786-7.329-.06-10.682 1.365l.089-.371c1.736-8.827 3.961-17.698 8.352-25.635l-.014.03Zm37.131 23.914c-2.492.519-5.132 1.053-7.135 2.7-1.944 1.676-.163 5.296 2.314 5.073 4.095-.193 8.041-1.632 12.15-1.513 2.996-.133 5.8 1.068 8.752 1.394 1.35.193 2.834-.712 3.042-2.12-.267-1.633-1.751-2.671-3.101-3.398-4.895-2.507-10.637-3.1-16.022-2.151v.015Z" fill="#F5A288"/><path d="M271.143 49.49c1.409.667 2.299 1.958 2.981 3.308 2.656 5.103 7.329 9.05 12.699 11.067 2.225.875 4.807.682 6.854 2.047-5 .89-10.103-1.068-13.797-4.406-3.679-3.323-7.847-6.868-8.737-12.016Z" fill="#391A0A"/><path d="M236.589 66.328c5.385-.935 11.126-.356 16.022 2.151 1.35.727 2.833 1.766 3.1 3.397-.207 1.395-1.691 2.3-3.041 2.122-2.937-.327-5.756-1.528-8.752-1.395-4.124-.133-8.071 1.32-12.15 1.513-2.463.223-4.258-3.397-2.314-5.073 2.002-1.647 4.643-2.196 7.135-2.7v-.015Z" fill="#562F1E"/><path d="M191.031 68.42c3.353-1.425 7.062-2.152 10.681-1.365 2.596.563 5.4 1.23 7.314 3.19 1.513 1.72-.134 4.613-2.314 4.613-2.819.03-5.385-1.32-8.145-1.677-2.448-.445-4.94.09-7.254.89-1.498-1.661-1.142-3.768-.267-5.637l-.015-.015Z" fill="#542D1C"/><path d="M180.692 77.81c3.397-1.26 6.69-2.848 10.236-3.65 4.495-.326 9.138-.207 13.47 1.247 3.723 1.068 6.75 3.635 8.975 6.735a88.8 88.8 0 0 1 7.699.341c1.276-2.225 2.789-4.51 5.222-5.593 5.801-2.759 12.447-2.848 18.737-2.522 4.88.208 9.301 2.404 13.766 4.154 3.902 1.573 8.13 1.795 12.269 2.181 3.352.37 6.72.593 10.088.89 2.047.148 4.035.742 5.755 1.87-2.343.222-4.687.578-6.972 1.142-3.234-.09-6.423-.638-9.643-.92-3.041.015-6.646-1.499-9.271.623-1.929 1.38-1.766 3.976-2.137 6.067-.727 5.252-2.091 10.949-6.215 14.628-4.525 3.857-11.008 4.376-16.645 3.293-4.688-.89-8.708-4.109-10.874-8.308-2.196-3.59-2.804-7.803-3.917-11.793-.816-3.056-4.955-3.427-7.313-1.944-1.172 2.225-2.329 4.45-3.65 6.587.356-3.783 1.039-7.877-.816-11.408-5.815-5.281-14.923-6.35-22.044-3.234 1.009.252 2.032.52 3.056.771l-.089 2.953c-2.285-.134-4.555-.297-6.839-.46-.92 5.043-.683 10.31.771 15.235.801 2.73 2.626 5.074 4.925 6.705 1.128.534 2.3.994 3.501 1.365 2.137.386 4.332.549 6.483.238 2.404-.356 4.495-1.662 6.617-2.789-.549 1.364-1.068 2.729-1.602 4.094-4.599 1.454-9.613 1.795-14.227.193-3.293-1.469-6.008-4.198-7.373-7.551-1.795-3.931-1.943-8.323-2.151-12.58.104-2.403-2.745-3.857-2.225-6.32-.178-1.424 1.453-1.72 2.433-2.24Zm44.341 4.243c-1.839 4.124-.356 8.842.935 12.936 1.439 5.504 5.993 9.984 11.615 11.037 5.133.519 11.112-.119 14.539-4.45 3.753-5.118 4.42-11.794 4.064-17.965l-.326-.03c-.534-1.543-1.157-3.234-2.7-4.035-4.421-2.522-9.746-2.848-14.731-2.552-4.718.416-10.325.98-13.396 5.059Z" fill="#435A8C"/><path d="M187.383 78.196c7.106-3.1 16.214-2.032 22.044 3.234-1.691 1.498-3.337 3.026-4.984 4.54-2.077-.727-4.272-1.157-6.468-.965-2.745.342-6.468 2.7-5.608 5.89 2.359.623 4.035-1.617 5.563-3.026 1.514.207 3.027.4 4.51.786.193.148.594.445.786.593-3.96 4.866-6.824 10.474-10.517 15.517a26.172 26.172 0 0 1-3.501-1.364c.356-7.166.741-14.33 1.142-21.481l.089-2.953c-1.024-.252-2.047-.519-3.056-.77Z" fill="#FBCDC0"/><path d="M225.031 82.052c3.056-4.08 8.678-4.643 13.395-5.059-1.676 3.427-3.96 6.513-5.281 10.103a43.583 43.583 0 0 1-2.225 3.264c-1.424 1.78-3.175 3.249-4.97 4.628-1.29-4.094-2.759-8.812-.934-12.936h.015Z" fill="#F5AF9B"/><path d="M238.428 76.994c4.984-.297 10.31.03 14.731 2.551 1.543.801 2.166 2.493 2.7 4.035-1.039-.133-2.062-.326-3.086-.46a365.863 365.863 0 0 0-4.436 5.074c-1.424-1.023-2.848-2.077-4.361-2.982l-.504-.089c-3.576-.89-7.255.09-10.326 1.973 1.321-3.59 3.605-6.69 5.282-10.102Z" fill="#FACABE"/><path d="M209.426 81.43c1.854 3.515 1.172 7.624.816 11.407-1.543 3.1-3.101 6.186-4.436 9.391-2.106 1.127-4.198 2.433-6.616 2.789-2.151.311-4.347.148-6.483-.238 3.694-5.043 6.557-10.651 10.518-15.517 1.513 1.261 3.1 2.433 4.836 3.368.564-2.389-.845-4.392-2.581-5.86a18.183 18.183 0 0 0-1.083-.786c1.661-1.528 3.308-3.056 4.984-4.54l.045-.015Z" fill="#FAB5A1"/><path d="M252.759 83.12c1.023.134 2.047.327 3.085.46l.327.03c.356 6.156-.312 12.847-4.065 17.965-3.427 4.332-9.42 4.97-14.553 4.451 2.774-5 5.325-10.133 8.441-14.94.786-.088 1.587-.177 2.388-.251-.029-.89-.059-1.766-.074-2.641a359.326 359.326 0 0 1 4.436-5.073h.015Z" fill="#F9B7A5"/><path d="M261.008 84.307c2.641-2.121 6.245-.608 9.272-.623 0 3.546-.683 7.047-1.217 10.548.416.133 1.232.43 1.632.563 2.715-3.694 5.459-7.477 9.213-10.191 2.284-.564 4.628-.905 6.972-1.142 1.276.86 2.507 1.78 3.664 2.788 3.486 3.932 3.991 9.688 2.685 14.613-1.453 5.192-4.257 10.162-8.515 13.559-2.329 1.899-5.281 3.13-8.307 3.1-1.172-.044-2.33-.163-3.487-.252 0 2.73.075 5.474.312 8.204.771 9.969 1.009 19.983 2.017 29.937.03 6.216 1.069 12.387 1.069 18.603-.861 3.026-2.196 5.919-3.887 8.574-6.617 8.1-16.408 13.53-26.807 14.702-7.18.875-14.805 0-21.08-3.828-3.546-2.106-6.172-5.681-7.076-9.702-.757-3.323-.401-6.735-.164-10.087 3.442-.06 6.928.044 10.296-.772 9.168-2.195 17.816-6.587 24.774-12.98 7.477-6.958 13.93-15.295 17.431-24.968.504-1.498.742-3.07.994-4.613-2.062 2.967-3.442 6.364-5.622 9.257-4.347 5.682-9.45 10.978-15.829 14.36-9.851 5.296-21.496 7.506-32.533 5.266l-.416-.059c-3.827-1.543-7.818-3.011-10.903-5.86-6.35-5.34-9.806-13.188-12.195-20.947-1.706-5.711-2.507-11.645-3.248-17.535-.371-2.759-.46-5.563-.075-8.337 4.614 1.602 9.628 1.261 14.227-.193 1.306 3.546 4.095 6.913 7.996 7.537 2.685-.045 5.222-1.039 7.833-1.543a60.334 60.334 0 0 0-.653-1.751c-2.581.341-5.029 1.484-7.64 1.513-2.863-1.053-6.097-4.361-4.391-7.58 2.641-5.875 6.943-11.468 6.513-18.247 2.358-1.469 6.482-1.113 7.313 1.943 1.113 3.99 1.706 8.189 3.917 11.794 2.18 4.198 6.201 7.417 10.874 8.307 5.637 1.083 12.12.564 16.644-3.293 4.124-3.664 5.504-9.36 6.216-14.627.386-2.092.223-4.688 2.136-6.068l.045.03Zm22.015 9.82c-4.095 3.354-7.477 8.026-8.189 13.382 2.374-2.329 2.433-6.29 5.504-7.996.934 2.329 1.468 4.836 2.893 6.943.563-3.042-.564-5.949-1.988-8.56 2.047-1.795 4.257-3.397 6.319-5.192-1.602.133-3.308.282-4.539 1.424Zm-65.199 25.012c-4.599.505-9.317.03-13.767 1.514-1.335 1.231-2.715 2.7-2.507 4.687.207 7.077 4.628 13.841 10.888 17.09 5.845 2.626 12.877 2.685 18.544-.43 4.525-2.359 7.759-6.661 9.509-11.378 1.039-3.917 1.81-8.323-.504-11.942l-.356.296c-1.335-.786-2.804-1.35-4.376-1.231-5.831.104-11.616.964-17.431 1.394Z" fill="#F5A48A"/><path d="M270.28 83.683c3.219.282 6.408.831 9.642.92-3.753 2.715-6.497 6.513-9.212 10.192-.415-.134-1.231-.43-1.632-.564.534-3.501 1.202-7.002 1.217-10.548h-.015Z" fill="#4F2A19"/><path d="M197.975 85.004c2.196-.208 4.391.237 6.468.964.356.238.727.505 1.068.786a210.619 210.619 0 0 0-3.056 1.9c-1.483-.386-3.011-.58-4.51-.787.698-.905 1.335-1.854 1.959-2.804-.475-.015-1.454-.06-1.929-.06Z" fill="#6E6868"/><path d="M233.161 87.097c3.085-1.87 6.75-2.863 10.325-1.973-.831-.09-1.676-.163-2.507-.238a367.238 367.238 0 0 0-1.588 3.383c.282 0 .861-.03 1.143-.045-3.086.327-5.667 2.122-8.041 3.961a202.473 202.473 0 0 0-1.557-1.84c.801-1.053 1.513-2.15 2.225-3.263v.015Z" fill="#726462"/><path d="M192.38 90.894c-.86-3.19 2.863-5.548 5.608-5.89.489 0 1.453.045 1.928.06-.638.95-1.261 1.899-1.958 2.804-1.528 1.409-3.219 3.649-5.578 3.026Z" fill="#524945"/><path d="M239.391 88.27a342.64 342.64 0 0 1 1.587-3.383c.831.074 1.661.148 2.507.237l.504.09c-.415.978-.815 1.957-1.231 2.951-.742.015-1.483.045-2.225.075-.282 0-.861.03-1.142.044v-.015Z" fill="#29150D"/><path d="M243.974 85.213c1.513.905 2.923 1.958 4.362 2.982.029.875.059 1.75.074 2.64-.801.09-1.602.163-2.388.253-1.083-.994-2.181-1.959-3.264-2.923.4-.98.816-1.958 1.231-2.952h-.015Z" fill="#796B6F"/><path d="M387.222 24.018c.46-.46 1.128-.623 1.736-.86.267 2.491.326 4.998.252 7.506-.712 0-1.424 0-2.121.014-.06-2.225-.356-4.48.133-6.66ZM370.072 30.026c2.285.816 4.213 2.447 5.489 4.495.356.682-.044 1.498-.015 2.225-2.269-1.795-4.955-3.65-5.459-6.72h-.015ZM405.098 45.87a68.428 68.428 0 0 1 7.402-.03v1.707a68.176 68.176 0 0 1-7.387-.03v-1.646h-.015ZM403.985 30.858c.638-.519 1.661-1.038 2.181-.06-.994 2.152-2.745 3.932-4.748 5.178-.608-.222-1.186-.519-1.75-.786 1.409-1.469 2.73-3.056 4.317-4.332ZM378.334 39.505c5.43-5.251 15.102-5.044 20.161.623 3.694 3.858 4.525 9.821 2.848 14.79-.949 2.7-3.204 4.585-4.717 6.929-1.38 2.166-1.365 4.821-1.662 7.269-2.314.133-4.613.267-6.927.297-2.3.03-4.584.074-6.884.148-.4-2.27-.475-4.629-1.246-6.81-.92-2.032-2.596-3.59-3.768-5.459-3.62-5.43-2.878-13.529 2.21-17.802l-.015.015Zm.282 2.596c-2.774 3.13-3.323 7.789-1.913 11.646.979 2.67 3.085 4.658 4.584 7.017 1.261 1.913 1.542 4.243 1.913 6.453.727.074 1.439.148 2.181.237.282-4.183-.193-8.366-.356-12.55-1.706-.608-4.525-.964-4.465-3.323-.386-2.196 2.863-3.62 4.272-1.928.816 1.023 1.024 2.388 1.439 3.604 1.306-.178 2.611-.37 3.917-.563.637-1.32 1.053-2.878 2.225-3.843 1.305-.445 3.1.149 3.249 1.692.504 2.329-2.285 2.996-3.843 3.827-.489 4.391-.548 8.827-.563 13.248.341.03 1.008.089 1.335.103.445-2.166.712-4.42 1.75-6.408 1.38-2.418 3.665-4.213 4.837-6.765 2.121-4.629.786-10.518-2.967-13.915-4.881-4.54-13.485-3.709-17.609 1.439l.014.03Zm3.501 8.427c.223 1.157.772 2.195 1.899 2.67.03-.549.104-1.632.149-2.18l-2.048-.49Zm4.733 4.035c-.06 4.272.118 8.545.608 12.773.475.014 1.454.059 1.928.089.09-4.317.342-8.62.564-12.936-1.053.03-2.077.044-3.115.074h.015Z" fill="#FFF2E0"/><path d="M378.616 42.102c4.124-5.163 12.743-5.979 17.609-1.44 3.754 3.383 5.104 9.287 2.967 13.916-1.172 2.551-3.456 4.346-4.851 6.765-1.038 1.973-1.305 4.242-1.75 6.408-.327-.03-.994-.089-1.335-.104 0-4.42.074-8.856.563-13.247 1.558-.83 4.347-1.498 3.843-3.828-.149-1.542-1.944-2.136-3.249-1.69-1.187.964-1.602 2.521-2.226 3.842-1.305.192-2.61.37-3.916.563-.43-1.216-.623-2.566-1.439-3.605-1.394-1.69-4.658-.267-4.272 1.929-.06 2.359 2.759 2.715 4.465 3.323.163 4.183.638 8.352.356 12.55-.742-.089-1.469-.163-2.181-.237-.371-2.21-.667-4.54-1.913-6.453-1.499-2.359-3.605-4.362-4.584-7.017-1.425-3.857-.861-8.515 1.913-11.646v-.03Z" fill="#FFD08E"/><path d="M362.924 46.553c2.566-.4 5.177-.4 7.744-.193 0 .43-.015 1.29-.03 1.736-2.077.059-4.169.296-6.231 0-.756-.163-1.008-1.039-1.483-1.543Z" fill="#FFF2E0"/><path d="M382.117 50.529c.668.163 1.35.326 2.047.49a99.77 99.77 0 0 1-.148 2.18c-1.127-.475-1.661-1.528-1.899-2.67ZM392.416 53.2c-.03-.55-.104-1.633-.148-2.182l2.047-.49c-.223 1.158-.772 2.196-1.899 2.671ZM386.84 54.564c1.023-.03 2.062-.045 3.115-.074-.222 4.302-.489 8.619-.564 12.936-.474-.03-1.439-.06-1.928-.09-.49-4.242-.668-8.514-.608-12.772h-.015Z" fill="#FFD08E"/><path d="M380.576 69.576h.564c2.299-.074 4.584-.133 6.883-.163 2.344-.015 4.688.119 7.032.237 0 .416-.044 1.247-.059 1.662a516.01 516.01 0 0 1-14.375.06c0-.46-.03-1.35-.045-1.81v.014Z" fill="#5F8FBB"/><path d="M380.65 73.033c4.837-.416 9.688-.43 14.539-.55 0 .46-.045 1.38-.06 1.84-4.821.386-9.642.594-14.479.52V73.033Z" fill="#5E89B2"/><path d="M380.871 75.94c4.465 0 9.183.163 13.693 0-.045.4-.623 1.053-.668 1.454-.504.727-.934 2.21-1.75 2.403-1.439.579-5.905.594-7.878.193-2.492-.623-.415-1.469-2.611-2.73l-.786-1.305v-.015Z" fill="#5F88AF"/><path d="M210.242 92.823c1.32-2.136 2.492-4.361 3.649-6.587.415 6.78-3.887 12.373-6.512 18.247-1.706 3.219 1.513 6.528 4.391 7.581 2.596-.03 5.058-1.172 7.64-1.513.207.578.43 1.157.652 1.75-2.611.505-5.147 1.499-7.832 1.543-3.917-.623-6.691-3.99-8.011-7.536.534-1.365 1.053-2.744 1.602-4.094 1.335-3.19 2.893-6.29 4.436-9.39h-.015Z" fill="#D0684F"/><path d="M202.453 88.654a130.198 130.198 0 0 1 3.056-1.899c1.721 1.469 3.13 3.472 2.581 5.86-1.735-.934-3.323-2.121-4.836-3.367-.193-.149-.593-.43-.786-.594h-.015Z" fill="#2F1B15"/><path d="M240.534 88.239c.741-.03 1.483-.06 2.225-.075 1.098.965 2.18 1.944 3.278 2.923-3.115 4.806-5.667 9.939-8.441 14.939-5.622-1.068-10.177-5.549-11.616-11.037 1.795-1.38 3.561-2.849 4.97-4.629.519.608 1.039 1.216 1.558 1.84 2.373-1.855 4.955-3.635 8.04-3.961h-.014Z" fill="#FBCDC1"/><path d="M283.009 94.128c1.231-1.142 2.937-1.29 4.54-1.424-2.062 1.795-4.273 3.397-6.32 5.192 1.424 2.611 2.566 5.519 1.988 8.56-1.409-2.107-1.958-4.614-2.893-6.943-3.071 1.706-3.13 5.682-5.504 7.996.698-5.355 4.095-10.028 8.189-13.381Z" fill="#C76246"/><path d="M79.176 108.133c2.552-.801 5.37-1.884 8.04-.905 2.953 1.187 4.57 4.139 5.742 6.913-6.928-.296-13.56 2.166-20.176 3.828-1.899.445-3.65 1.29-5.222 2.433 8.16-1.202 15.948-4.51 24.21-5.029 4.2-.208 5.386 4.732 5.49 8.04a99.755 99.755 0 0 0-23.721 4.124c2.077.104 4.153.089 6.2-.267 5.134-.934 10.311-1.736 15.518-2.106 2.092-.075 4.643-.134 6.068 1.691 1.557 1.884 1.201 4.48 1.172 6.75-4.926-.638-9.925-.297-14.82.46-1.721.267-3.368.89-4.955 1.587 5.548.237 11.007-1.558 16.555-.964 1.469.118 3.056.905 3.309 2.522 1.053 4.836-.03 9.835-1.143 14.567-.371.742-1.172 1.113-1.958 1.247-2.804.326-5.622.534-8.426.89v-5.608c1.691.46 3.382.935 5.088 1.409l-1.335-2.047c.905-1.231 1.795-2.477 2.7-3.709-1.513 1.039-2.952 2.3-4.732 2.834-1.217 0-2.389-.341-3.56-.594-.312 3.205-.223 6.558 1.409 9.45 2.73 5.623 5.563 11.809 4.272 18.218-.445 2.937-2.284 5.325-3.738 7.818-.965 2.106-1.395 4.391-1.855 6.631-9.42-.89-18.632-3.219-27.578-6.201 0-1.929 0-3.857-.104-5.771-.43-4.643-1.69-9.153-2.462-13.737-1.959-10.815-3.887-21.629-5.34-32.518-.297-3.872-1.069-8.946 2.759-11.408 6.987-4.54 14.745-7.789 22.608-10.489l-.015-.059Z" fill="#F4A489"/><path d="M72.77 117.953c6.63-1.662 13.247-4.124 20.175-3.827.563.163 1.112.4 1.631.712 1.276 1.008 2.626 2.151 3.13 3.768.727 1.824.802 4.02 2.255 5.489 1.083 1.231 2.478 2.24 3.235 3.738.697 1.602.341 3.397.222 5.088-.445 2.567 1.098 4.94.964 7.507-.133 3.916-.89 7.937-2.981 11.304 1.127-4.732 2.195-9.732 1.142-14.568-.238-1.602-1.84-2.403-3.308-2.522-5.549-.593-11.008 1.202-16.556.965 1.587-.698 3.234-1.321 4.955-1.588 4.895-.756 9.88-1.098 14.82-.46.029-2.269.4-4.866-1.172-6.75-1.424-1.824-3.976-1.765-6.068-1.691-5.207.371-10.384 1.172-15.517 2.107-2.047.356-4.124.371-6.201.267a99.886 99.886 0 0 1 23.721-4.124c-.104-3.308-1.276-8.248-5.489-8.041-8.278.519-16.051 3.828-24.21 5.029 1.572-1.142 3.337-1.988 5.222-2.433l.03.03ZM152.729 392.949c1.617 4.762 1.928 9.939 4.302 14.434 3.382 6.453 7.462 12.58 12.476 17.891-1.053-.208-2.122-.401-3.16-.638-1.587-3.724-4.732-6.438-6.705-9.939-3.828-6.394-7.121-13.559-6.884-21.155v-.593H152.729Z" fill="#C25D42"/><path d="M94.59 114.838c2.136-.297 4.525-.593 6.409.727 3.145 2.166 4.806 5.756 6.646 8.99.845 1.81 2.136 3.812 1.542 5.889-.934 2.285-3.694 2.24-5.756 2.493.119-1.692.475-3.487-.222-5.089-.757-1.498-2.136-2.507-3.234-3.738-1.454-1.469-1.528-3.664-2.255-5.489-.52-1.617-1.854-2.759-3.13-3.768v-.015Z" fill="#F4A588"/><path d="M272.934 117.286c1.157.103 2.314.207 3.486.252-.905 2.7-1.988 5.355-3.175 7.951-.237-2.729-.297-5.459-.311-8.203Z" fill="#502A18"/><path d="M217.836 119.139c5.816-.445 11.601-1.29 17.431-1.394 1.573-.134 3.041.445 4.362 1.231-1.899 1.602-3.961 3.026-6.29 3.917-6.958 2.685-14.524 3.753-21.956 3.189-1.765-.193-3.62-.401-5.118-1.409-1.246-.979-1.587-2.626-2.21-4.006 4.45-1.483 9.182-1.009 13.766-1.513l.015-.015Z" fill="#FEFEFE"/><path d="m239.618 118.962.356-.297c2.314 3.635 1.543 8.041.504 11.942-4.821-.875-9.939-1.35-14.642.415-5.726 1.944-10.236 6.365-13.411 11.394-6.275-3.249-10.681-10.014-10.889-17.09-.207-1.973 1.172-3.457 2.508-4.688.623 1.38.964 3.026 2.21 4.005 1.498.994 3.368 1.217 5.118 1.41 7.432.563 14.998-.505 21.956-3.19 2.329-.89 4.391-2.314 6.29-3.916v.015Z" fill="#701115"/><path d="M225.835 131.038c4.687-1.765 9.805-1.291 14.642-.415-1.751 4.717-4.985 9.004-9.51 11.378-5.666 3.115-12.698 3.056-18.543.43 3.189-5.029 7.684-9.45 13.411-11.393Z" fill="#DE594C"/><path d="M265.173 139.612c2.196-2.893 3.561-6.29 5.623-9.257-.253 1.543-.475 3.115-.98 4.614-3.501 9.672-9.939 18.024-17.431 24.967-6.957 6.394-15.621 10.785-24.774 12.98-3.367.801-6.854.712-10.295.772l-.49.029c.697-4.791.475-9.672 0-14.479 11.037 2.226 22.683.03 32.533-5.266 6.379-3.382 11.482-8.678 15.829-14.36h-.015Z" fill="#CE6851"/><path d="M92.766 146.734c1.78-.534 3.22-1.795 4.732-2.834-.904 1.232-1.795 2.478-2.7 3.709l1.336 2.047a688.72 688.72 0 0 0-5.089-1.409 354.168 354.168 0 0 0 0 5.608c2.804-.357 5.623-.564 8.427-.891-2.79 1.38-6.009 1.365-8.842 2.626-1.632-2.878-1.721-6.23-1.41-9.45 1.172.253 2.344.609 3.56.594h-.014Z" fill="#C15D41"/><path d="M276.331 174.029c0-6.216-1.038-12.387-1.068-18.603 4.525.222 9.02 1.068 13.292 2.566 7.136 2.596 12.966 7.878 17.476 13.871 1.365 1.75 2.27 3.857 3.812 5.489 2.077 1.231 4.525 1.632 6.78 2.477a256.045 256.045 0 0 1 28.572 12.12c11.794 5.949 23.543 12.313 33.571 21.007 6.646 6.438 11.201 14.612 15.74 22.593 11.66 21.659 19.924 44.965 26.955 68.478a620.184 620.184 0 0 1 7.685 29.299c.86 3.842 1.706 7.699 2.433 11.586 2.522 13.5 4.376 27.148 5.177 40.87-.104 2.3-.119 4.584-.104 6.884v3.456c-.015 1.855-.104 3.709-.207 5.563-.208 2.967-.446 5.934-.905 8.886-.787 4.57-1.766 9.124-3.383 13.471-1.513 3.56-3.619 7.046-6.913 9.242-3.145 2.062-6.601 3.59-10.073 5.044-2.67 1.023-5.414 1.928-8.144 2.774-1.528.46-3.071.905-4.614 1.305-1.29.238-2.581.475-3.872.742-4.124.845-8.292 1.528-12.461 2.151-2.626.356-5.252.623-7.892.846-18.751 1.78-37.592 2.314-56.417 2.136-13.337-.208-26.94 1.112-39.98-2.315-4.599-1.082-8.605-3.723-13.114-5.088 2.818 2.997 6.749 4.451 10.532 5.815 7.581 2.493 15.666 2.122 23.499 3.234 11.423 1.558 22.964 1.973 34.417 3.353 9.45 1.039 18.84 2.433 28.26 3.709 5.267.667 10.503 1.676 15.829 1.736 1.632 7.031 3.115 14.108 4.614 21.169.341 1.736.682 3.486.949 5.252.846 6.349 2.092 12.683 1.929 19.122H274.729c-5.207-.074-10.444.326-15.621-.445-1.765-20.517-2.166-41.123-2.003-61.699-4.272-.237-8.619-.474-12.654-1.958 1.795-1.469 3.709-2.908 5.014-4.866 1.603-2.418 2.448-5.237 3.353-7.966a56.426 56.426 0 0 0-3.145-.104c1.157-.119 2.299-.297 3.442-.445 1.602-6.231 1.483-12.699.727-19.033 6.928-.95 13.826-2.107 20.783-2.908 1.499 7.373 2.374 15.043.623 22.46-.86 4.436-3.56 8.204-4.628 12.565 1.424-1.216 2.789-2.566 3.546-4.302 2.492-5.266 3.679-11.096 3.886-16.912.163-4.732-.756-9.42-1.735-14.033 8.381-1.38 16.763-2.7 25.145-3.932 2.7-.43 5.444-.534 8.1-1.216 1.602-.371 2.418-1.929 3.234-3.19.4-1.305.667-2.625.934-3.961-14.612-.237-29.239.104-43.837-.207 2.285-2.848 5.519-4.658 8.856-5.979 16.482-6.853 34.091-10.28 51.003-15.829 5.37-1.691 10.74-3.456 16.244-4.658 1.469-.415 3.086-.638 4.273-1.676-.149-3.234-1.38-6.26-2.107-9.376-2.433-9.702-4.213-19.567-5.993-29.402-.876-4.392-.846-8.976-2.507-13.189-1.291 3.308-.579 6.869-.416 10.296.356 6.319.92 12.609 1.469 18.914.46 5.845.534 11.838-1.009 17.55-.994 3.694-3.56 6.958-6.987 8.678-3.724 1.87-7.818 2.715-11.764 3.917-12.714 3.694-25.561 6.987-38.111 11.23-5.771 2.121-11.749 4.673-15.755 9.539-3.204.074-6.423.074-9.628.059.03-9.569.801-19.093.98-28.631.252-5.059.252-10.118.563-15.177.683-8.678.579-17.401 1.276-26.064.356-4.466.49-8.931.668-13.396 1.409-27.445 3.872-54.845 7.847-82.052 2.166-15.71 4.644-31.376 6.988-47.057.281-1.898.519-3.812.637-5.726l-.089-.059Zm35.026 7.432c.267 1.439.578 2.893 1.038 4.302 3.041 8.946 5.563 18.114 6.809 27.504.356 3.739.623 7.551.06 11.29-.208 1.913-1.87 3.679-3.902 3.471-5.504-.564-9.39-5.949-15.102-5.726-4.228.326-6.75 4.302-8.767 7.565-5.623 10.281-11.216 20.621-15.532 31.539-1.514 4.006-3.279 7.982-3.932 12.239.727-1.246 1.395-2.522 1.884-3.872 1.884-5.281 4.124-10.429 6.587-15.473 4.317-8.708 8.649-17.445 13.871-25.664 1.468-2.181 3.501-4.732 6.423-4.51 5.103.757 8.871 5.059 14.004 5.771 1.706.297 3.531-.371 4.555-1.81 2.062-2.596 1.854-6.112 1.913-9.242-.193-11.423-3.619-22.504-7.58-33.126-.549-1.543-1.365-2.952-2.329-4.258Zm55.378 34.773c-7.758 7.136-13.485 16.23-17.757 25.813-4.421 9.598-7.388 19.819-9.272 30.204-1.899 10.74-2.641 21.718-1.602 32.592.237 1.736-.059 3.902 1.617 5.029.237-3.827-.386-7.625-.46-11.438a134.674 134.674 0 0 1 9.821-52.871c3.59-8.605 8.248-16.868 14.345-23.959 2.389-2.922 5.652-5.043 7.803-8.188-1.661.637-3.219 1.542-4.495 2.788v.03Zm-98.518 101.204.178 1.943c2.062.312 4.139.801 6.23.49.861-.104 1.558-.772 1.321-1.662-2.329-1.424-5.163-1.216-7.729-.771Zm1.543 37.606c-1.232.445-2.359 1.706-1.959 3.086.401 2.611 4.54 2.641 5.489.43.742-2.017-1.528-4.317-3.53-3.516Zm88.831 6.379c-2.804.787-5.86 1.202-8.144 3.175 3.797.356 7.58-.415 11.378-.386 13.262.06 26.465 3.813 37.77 10.741.296-.149.89-.46 1.186-.608-4.064-3.991-9.672-5.756-14.924-7.626-8.722-3.07-18.054-3.886-27.251-3.693 1.765-.876 3.634-1.558 5.593-1.825 8.441-1.276 17.119-1.751 25.545-.104 3.472.653 6.691 2.166 10.147 2.908-.712-.935-1.468-1.929-2.596-2.344-7.121-3.056-15.057-3.249-22.682-2.967-5.445.178-10.8 1.32-16.037 2.729h.015ZM267.163 468.65c0 .43-.014 1.276-.014 1.706 3.011-.059 6.364.757 9.034-1.053-2.908-1.009-5.993-.772-9.02-.638v-.015ZM48.792 196.074c1.128-6.364 1.335-13.04 4.035-19.004 2.418 2.507 5.549 4.154 8.901 5 8.96 2.982 18.173 5.311 27.578 6.201 3.783.534 7.67-.104 10.993-2.047.727 6.141.089 12.312.223 18.469 1.424 1.127 2.922 2.27 3.782 3.916 1.202 2.24 1.662 4.777 2.062 7.269 1.083 7.566 1.825 15.206 2.433 22.831 0 4.703.861 9.346 1.365 14.005.742 5.948 1.365 11.912 2.433 17.816-16.437.03-32.874-.059-49.311-.059-10.978-.089-21.97.163-32.948-.059l-.06-.905a13.427 13.427 0 0 1 .074-2.315 5065.114 5065.114 0 0 1 9.124-57.663c.593-3.16 1.053-6.512 3.026-9.168 1.573-2.092 4.05-3.145 6.305-4.302l-.015.015Zm1.053 2.359c1.024.964 2.107 1.899 3.368 2.581 7.877 4.183 16.482 6.868 25.234 8.53 6.26 1.009 12.729 1.617 19.004.475.979-.074 1.632-.816 2.24-1.499-4.599.06-9.183.831-13.782.356-11.245-.919-22.297-4.153-32.325-9.316-1.187-.534-2.463-.831-3.739-1.113v-.014ZM201.177 165.099c4.762-2.715 10.118-4.02 15.206-5.919l.415.059c.49 4.807.698 9.687 0 14.479-2.596 5.37-4.984 10.844-7.061 16.437l-.178.519c-3.323 8.738-5.845 17.758-8.278 26.777-5.177 19.731-8.812 39.876-10.963 60.156-.771-2.626-1.854-5.86-4.732-6.78-3.368-.727-6.824-.237-10.236-.297-10.681-.029-21.348.089-32.029-.029 2.181-12.462 4.035-25.042 4.05-37.711 0-1.29-.163-2.581-.252-3.871-.757 1.824-1.113 3.797-1.157 5.77-.252 7.255-1.202 14.479-2.255 21.659-.668 4.718-1.751 9.391-2.196 14.138-9.049.059-18.098.015-27.133.015-.964-7.566-1.943-15.117-2.848-22.683-.341-3.397-.697-6.794-1.602-10.087 5.949-7.982 12.12-15.8 18.38-23.529 4.584-5.444 9.272-10.844 14.598-15.591 2.18-1.973 4.643-3.59 7.284-4.881 9.375-4.613 19.122-8.5 29.15-11.512 1.78-.563 3.813-.994 4.925-2.655 4.466-6.008 10.251-11.008 16.883-14.479l.029.015Zm-27.608 26.984c-3.189 4.97-5.696 10.355-7.951 15.815-.979 2.492-1.943 5.251-1.216 7.936.37 1.35 1.809 1.973 3.055 2.225 3.798.668 7.462-1.513 11.245-.845 1.469.786 2.003 2.507 2.448 3.99 1.009 3.976 1.395 8.071 1.854 12.15.653 6.379 1.514 12.758 2.255 19.122.164 1.514.594 2.982 1.113 4.406.43-3.99-.267-7.966-.623-11.927-.712-7.581-1.128-15.22-2.062-22.771-.43-2.715-.979-6.023-3.679-7.403-4.332-1.602-9.183 2.284-13.307-.163-.415-2.76.756-5.415 1.765-7.907 1.958-4.851 4.273-9.554 6.795-14.138 1.453-2.626 3.308-5.014 4.702-7.684-2.922 1.587-4.613 4.524-6.408 7.18l.014.014ZM112.746 410.128c9.124.044 21.6.059 30.723 0 2.893 4.94 5.133 7.061 10.058 9.346 1.454.593 2.967 1.083 4.436 1.661 2.685 1.395 5.385 2.848 8.382 3.486 1.053.238 2.106.431 3.159.638 4.822 1.009 9.554 2.626 14.539 2.7-.178 7.151-.119 14.301-.253 21.452-.697 17.193-.4 34.431-1.661 51.61-.104 1.009-.237 2.033-.356 3.056-11.423.327-22.861.045-34.284.148-15.665 0-31.331.03-46.997-.029-.178-1.914-.356-3.828-.563-5.726-.03-1.202 0-2.389.014-3.576.282-14.553 2.656-28.957 4.985-43.288 2.285-13.292 4.614-26.584 7.314-39.787.148-.579.326-1.142.489-1.691h.015Zm56.506 52.945c-1.78.994-2.27 3.561-1.201 5.252 1.275 2.522 5.919 2.047 6.29-.92.845-2.893-2.344-5.652-5.089-4.332Z" fill="#6A86C4"/><path d="m216.827 173.719.49-.03c-.238 3.353-.594 6.765.163 10.088.905 4.02 3.53 7.595 7.076 9.702 6.26 3.812 13.9 4.703 21.08 3.827 10.4-1.186 20.191-6.601 26.807-14.701.341 4.154-.341 8.307-1.291 12.343-.326 1.394-1.023 2.729-2.21 3.575-7.328 5.533-16.482 8.218-25.575 8.738-9.183.519-18.648-2.077-25.917-7.818-3.249-2.478-4.762-6.468-7.684-9.257 2.062-5.593 4.45-11.067 7.061-16.438v-.029Z" fill="#E9E9E9"/><path d="M272.446 182.589c1.691-2.656 3.041-5.534 3.887-8.575-.119 1.914-.356 3.827-.638 5.726-2.329 15.681-4.821 31.346-6.987 47.057-3.976 27.192-6.439 54.592-7.848 82.051-.193 4.466-.311 8.931-.668 13.396-.697 8.679-.593 17.387-1.275 26.065-.327 5.059-.312 10.118-.564 15.176-.178 9.554-.949 19.078-.979 28.632h-8.634c.445-3.531.386-7.106.4-10.652 1.172-23.009 2.226-46.018 4.317-68.967 2.404-27.148 5.934-54.207 10.652-81.043.771-4.925 1.706-9.821 2.744-14.702 1.172-5.444 1.81-10.977 3.086-16.407-4.836 2.685-9.821 5.237-15.161 6.75-7.64 2.092-15.814 2.64-23.528.653-4.851-1.172-9.673-2.997-13.545-6.246-3.486-2.908-7.076-6.245-8.1-10.844l.178-.519c2.923 2.788 4.436 6.779 7.685 9.257 7.254 5.741 16.734 8.337 25.917 7.817 9.093-.519 18.232-3.204 25.575-8.737 1.187-.846 1.899-2.181 2.21-3.575.965-4.036 1.632-8.189 1.291-12.343l-.015.03Z" fill="#BFBFBF"/><path d="M52.816 177.07c2.848-.816 5.83-1.009 8.782-.786.104 1.929.104 3.842.104 5.771-3.353-.846-6.483-2.478-8.901-5l.015.015ZM89.295 188.256c.46-2.24.89-4.539 1.854-6.631 3.264.831 7.759.861 9.139 4.599-3.323 1.929-7.21 2.581-10.993 2.047v-.015Z" fill="#4B5A7D"/><path d="M311.369 181.461c.95 1.32 1.781 2.729 2.33 4.272 3.975 10.622 7.387 21.704 7.58 33.127-.059 3.13.149 6.646-1.913 9.242-1.024 1.424-2.849 2.092-4.555 1.81-5.118-.712-8.901-5.029-14.004-5.771-2.922-.237-4.955 2.329-6.438 4.51-5.222 8.203-9.554 16.941-13.871 25.664-2.448 5.029-4.703 10.177-6.587 15.473-.489 1.35-1.157 2.641-1.884 3.872.668-4.258 2.418-8.234 3.932-12.239 4.317-10.918 9.909-21.258 15.532-31.539 2.017-3.278 4.524-7.239 8.767-7.566 5.697-.222 9.584 5.163 15.102 5.726 2.032.208 3.694-1.542 3.902-3.471.563-3.738.296-7.551-.06-11.289-1.246-9.391-3.768-18.544-6.809-27.504-.46-1.409-.786-2.848-1.038-4.302l.014-.015ZM173.585 192.083c1.795-2.655 3.486-5.608 6.409-7.18-1.395 2.67-3.249 5.059-4.703 7.684-2.522 4.584-4.836 9.287-6.794 14.138-1.009 2.507-2.166 5.148-1.766 7.907 4.139 2.433 8.99-1.454 13.307.163 2.7 1.365 3.249 4.688 3.679 7.388.935 7.566 1.336 15.191 2.063 22.772.356 3.96 1.053 7.936.623 11.927-.534-1.424-.95-2.893-1.113-4.406-.742-6.379-1.602-12.743-2.255-19.122-.46-4.08-.846-8.174-1.854-12.15-.445-1.498-.979-3.219-2.448-3.991-3.783-.667-7.462 1.513-11.245.846-1.261-.252-2.7-.875-3.056-2.225-.727-2.685.252-5.445 1.217-7.937 2.254-5.459 4.762-10.83 7.951-15.814h-.015Z" fill="#3D5B9C"/><path d="M201.325 217.451c2.433-9.02 4.941-18.039 8.278-26.777 1.024 4.614 4.629 7.952 8.1 10.844 3.857 3.249 8.679 5.059 13.544 6.246 7.715 1.988 15.904 1.454 23.529-.653 5.34-1.513 10.325-4.065 15.161-6.75-1.276 5.43-1.899 10.963-3.086 16.408-1.038 4.88-1.973 9.776-2.744 14.701-4.718 26.836-8.248 53.895-10.652 81.043-2.091 22.95-3.145 45.973-4.317 68.968 0 3.545.045 7.12-.4 10.651-9.094-.089-18.188.208-27.282-.193-1.394-3.887-2.373-7.877-3.456-11.853-6.987-25.071-13.648-50.231-20.472-75.361-2.359-9.049-5.014-18.039-7.18-27.133 2.151-20.28 5.785-40.425 10.963-60.156l.014.015Z" fill="#E9E9E9"/><path d="M49.83 198.433c1.275.282 2.55.579 3.738 1.113 10.013 5.163 21.08 8.397 32.325 9.316 4.599.475 9.183-.296 13.782-.356-.609.683-1.261 1.424-2.24 1.513-6.29 1.128-12.744.52-19.019-.489-8.738-1.662-17.357-4.332-25.234-8.53-1.261-.668-2.33-1.617-3.367-2.581l.014.014ZM366.751 216.235c1.276-1.261 2.833-2.151 4.495-2.789-2.151 3.13-5.415 5.251-7.803 8.188-6.097 7.092-10.756 15.34-14.346 23.959a134.673 134.673 0 0 0-9.82 52.871c.074 3.813.697 7.611.46 11.438-1.677-1.127-1.395-3.293-1.617-5.029-1.039-10.874-.297-21.867 1.602-32.592 1.884-10.385 4.851-20.606 9.272-30.204 4.272-9.583 9.998-18.677 17.757-25.813v-.029ZM146.009 234.704c.03-1.988.401-3.946 1.157-5.771.089 1.276.252 2.582.252 3.872 0 12.669-1.869 25.249-4.05 37.711h-1.809c.459-4.762 1.528-9.421 2.195-14.138 1.068-7.18 2.018-14.39 2.255-21.659v-.015ZM108.783 238.71c.297-.253.89-.727 1.172-.965.89 3.294 1.261 6.706 1.602 10.103.89 7.566 1.87 15.132 2.849 22.683h-1.81c-1.068-5.905-1.677-11.868-2.433-17.817-.519-4.658-1.365-9.302-1.365-14.004h-.015Z" fill="#3D5B9C"/><path d="M16.199 271.095c3.679-.875 7.714-.623 10.948-.683.757-.044 2.581 0 3.175 0 10.978.208 21.97-.044 32.948.06 16.437 0 32.874.089 49.311.044h1.81c9.049 0 18.084.03 27.133-.015h1.81c10.681.119 21.347 0 32.029.03 3.397.059 6.868-.43 10.236.297 2.892.92 3.961 4.154 4.732 6.779 2.166 9.109 4.821 18.084 7.18 27.133 6.824 25.116 13.5 50.276 20.472 75.347 1.083 3.961 2.062 7.966 3.457 11.853a67.245 67.245 0 0 1 1.009 3.041c.83 2.492 1.008 5.163.652 7.759-.608.297-1.201.608-1.81.905a735.28 735.28 0 0 0-8.307-30.798c-2.641-9.894-5.222-19.789-8.07-29.64-5.133-19.537-10.548-38.986-15.829-58.479-.979-3.531-1.632-7.506-4.495-10.073-1.498-1.468-3.679-1.765-5.697-1.824-51.121.133-102.257-.03-153.378.074-3.99-.149-8.01-.03-11.927.89.816-.95 1.498-2.077 2.596-2.7h.015Z" fill="#DFE5E9"/><path d="M13.605 273.809c3.917-.92 7.922-1.038 11.928-.89 51.12-.104 102.257.059 153.378-.074 2.003.044 4.183.356 5.696 1.824 2.864 2.567 3.516 6.543 4.495 10.073 5.282 19.508 10.696 38.957 15.829 58.494 2.849 9.836 5.445 19.746 8.07 29.641a713.932 713.932 0 0 1 8.308 30.797c-2.655 1.394-5.726 1.216-8.619.964-5.845-.534-11.705-.178-17.55-.356-3.189-.104-6.394-.03-9.553.371-2.359-5.355-4.288-11.275-8.946-15.147-1.498-1.349-3.931-2.24-5.697-.86-1.483 1.246-1.082 3.412-.993 5.118.029.252.103.772.133 1.024.49 3.115 1.187 6.171 2.032 9.197-.904.149-1.809.297-2.714.46-2.404-5.489-3.917-11.512-7.596-16.363-1.75-2.462-5.637-3.53-8.1-1.557-1.439 1.765-.905 4.302-.949 6.423v.594c-1.884-.06-3.902-.52-5.726.237-1.321.801-1.069 2.552-1.083 3.887.415 1.528.875 3.041 1.305 4.569.163.564.326 1.127.49 1.706-13.04.549-26.08.104-39.135.208-16.897.014-33.809 0-50.72.059-1.691 0-3.383-.03-5.074-.163-1.706-.831-3.427-1.973-4.198-3.783-1.35-3.353-1.395-4.54-2.804-8.486-.06-.4-.49-1.839-.83-3.56-1.173-5.43-2.73-9.049-4.199-14.405-3.516-12.342-7.017-24.685-10.637-36.983-2.032-6.676-3.708-13.47-5.948-20.087-.594-2.358-1.261-4.688-1.944-7.017-2.863-9.88-5.652-19.789-8.53-29.669-.593-2.048-.326-4.184-.104-6.261h-.015v.015Zm94.054 55.631c-3.353.297-6.676 1.914-8.605 4.732-2.566 3.561-2.64 8.486-.86 12.402 3.115 7.403 12.714 11.601 20.087 8.026 4.628-1.899 7.283-7.328 6.171-12.179-1.528-7.507-9.035-13.663-16.808-12.996l.015.015Z" fill="#B2B7BF"/><path d="M339.171 322.26c-.148-3.427-.86-6.987.415-10.295 1.662 4.213 1.632 8.797 2.508 13.188 1.795 9.835 3.56 19.686 5.993 29.403.727 3.115 1.958 6.156 2.106 9.375-1.186 1.039-2.818 1.261-4.272 1.677-5.519 1.201-10.874 2.967-16.244 4.658-16.912 5.533-34.521 8.96-51.003 15.829-3.338 1.335-6.557 3.145-8.856 5.978h-2.834c4.006-4.866 9.984-7.417 15.755-9.524 12.55-4.243 25.397-7.521 38.111-11.23 3.946-1.202 8.055-2.062 11.764-3.916 3.427-1.721 5.993-4.985 6.987-8.679 1.543-5.696 1.469-11.705 1.009-17.549-.534-6.305-1.113-12.595-1.469-18.915h.03Z" fill="#3D5B9C"/><path d="M40.74 386.169c-8.13-8.278-13.589-19.108-15.458-30.56-2.136-12.832-2.002-25.947-1.112-38.883 2.24 6.617 3.916 13.396 5.948 20.087 3.62 12.298 7.314 24.804 10.83 37.146 1.469 5.356 4.139 13.649 5.31 19.078" fill="#6A86C4"/><path d="M268.232 317.438c2.567-.445 5.4-.638 7.744.771.238.905-.474 1.573-1.32 1.662-2.092.312-4.184-.178-6.231-.49l-.178-1.943h-.015Z" fill="#3D5B9C"/><path d="M107.673 329.439c7.773-.667 15.28 5.474 16.808 12.996 1.112 4.836-1.543 10.28-6.172 12.179-7.373 3.56-16.971-.623-20.086-8.026-1.795-3.916-1.706-8.841.86-12.402 1.929-2.818 5.252-4.435 8.605-4.732l-.015-.015Z" fill="#DEE5EA"/><path d="M269.776 355.046c2.002-.801 4.287 1.498 3.53 3.516-.949 2.21-5.088 2.18-5.489-.431-.415-1.379.727-2.64 1.959-3.085ZM358.608 361.424c5.252-1.409 10.592-2.552 16.037-2.73 7.64-.282 15.561-.089 22.682 2.967 1.142.416 1.884 1.409 2.596 2.344-3.456-.742-6.675-2.255-10.147-2.908-8.426-1.631-17.104-1.157-25.546.104-1.958.267-3.827.95-5.592 1.825 9.197-.208 18.514.623 27.251 3.694 5.252 1.869 10.845 3.634 14.924 7.625-.296.148-.89.46-1.186.608-11.305-6.928-24.508-10.681-37.77-10.74-3.798-.03-7.581.727-11.378.385 2.269-1.973 5.34-2.388 8.144-3.174h-.015Z" fill="#3D5B9C"/><path d="M153.677 386.524c2.463-1.958 6.35-.904 8.1 1.558 3.679 4.851 5.192 10.874 7.596 16.363 1.646 2.922 4.05 5.341 5.518 8.367 1.795 3.605 3.828 7.18 6.824 9.939 1.662 1.602 3.694 2.7 5.608 3.961.326.356.638.727.949 1.113-1.424.044-2.833.133-4.242.148-4.97-.089-9.717-1.691-14.539-2.7-5.014-5.311-9.093-11.423-12.476-17.891-2.373-4.495-2.685-9.672-4.302-14.434.059-2.121-.49-4.658.949-6.424h.015Zm-.4 1.87c.222 1.973-.03 4.183 1.023 5.963.994 1.632 3.857 1.128 4.169-.786.312-1.869.252-4.228-1.335-5.548-1.276-.445-2.596.163-3.857.371Z" fill="#F5A58B"/><path d="M153.291 388.393c1.261-.208 2.581-.831 3.857-.371 1.587 1.321 1.647 3.679 1.335 5.549-.311 1.913-3.174 2.432-4.168.786-1.054-1.795-.801-3.991-1.024-5.964Z" fill="#FBC8B9"/><path d="M170.93 388.645c1.765-1.38 4.198-.49 5.696.86 4.658 3.872 6.587 9.791 8.946 15.147 1.187 2.269 2.967 4.139 4.777 5.919 1.646 2.225 3.323 4.613 5.904 5.86 5.949 3.115 12.802 3.471 19.196 5.132 3.768.891 7.418 2.315 11.29 2.715-3.65-2.403-8.071-2.952-12.18-4.183-5.667-1.602-11.645-2.047-17.119-4.317-2.137-.772-3.383-2.73-4.51-4.554 1.587-2.315 3.694-4.421 6.512-5.089 8.278-2.462 16.719.964 24.285 4.139 2.389.534 4.866.549 7.299.386 7.625-.668 15.176-1.899 22.742-2.938.756 6.335.875 12.803-.727 19.034a88.136 88.136 0 0 1-3.442.445c-3.53.222-7.046.519-10.562.816-5.148.415-10.296.905-15.458.964-7.373.133-14.731.653-22.104.208-4.436-.223-8.768-1.484-13.218-1.336a34.788 34.788 0 0 0-.95-1.112c-2.151-2.774-5.31-4.569-7.372-7.418-3.353-4.673-6.424-9.672-7.863-15.294-.846-3.027-1.543-6.098-2.032-9.198.489 1.261 1.068 2.492 1.617 3.724.934-.357 1.884-.698 2.744-1.202.979-1.78.504-4.065-.415-5.786-.683-1.305-2.389-1.112-3.605-1.439-.178 1.217-.371 2.433-.49 3.665-.089-1.706-.474-3.887.994-5.119l.045-.029Zm27.34 20.368c-1.78.163-2.714 2.077-2.551 3.694 1.839 1.484 4.228 2.032 6.527 2.359 2.789 1.112 5.192-3.472 2.819-5.148-2.077-1.024-4.525-1.202-6.78-.905h-.015Z" fill="#F4A48A"/><path d="M170.424 390.084c1.216.327 2.922.134 3.605 1.439.905 1.706 1.394 3.991.415 5.786-.86.519-1.81.846-2.744 1.202-.549-1.246-1.128-2.463-1.617-3.739-.03-.252-.104-.771-.134-1.023.119-1.246.312-2.463.49-3.679l-.015.014Z" fill="#FBC7BC"/><path d="M221.457 391.955c9.079.4 18.188.104 27.281.193 2.878 0 5.756-.015 8.634 0 3.22.015 6.424.029 9.628-.06a95.618 95.618 0 0 1 2.834 0c14.612.312 29.224-.014 43.837.208-.267 1.32-.534 2.656-.935 3.961-11.808.964-23.513 2.923-35.292 4.213-9.91 1.009-19.76 2.611-29.7 3.427-5.666.579-11.363 1.053-16.941 2.285.074 1.498.148 2.996.252 4.495-2.433.163-4.91.148-7.299-.386 1.469-1.988 1.543-4.465.994-6.78 5.356-.845 10.756-1.201 16.126-1.839 8.678-.994 17.357-2.033 26.05-2.982 4.48-.608 9.02-.89 13.426-1.958-2.953-1.706-6.468-.92-9.702-1.128-8.189-.326-16.393.045-24.582-.415-7.862-.223-15.74.03-23.602-.163-.312-1.024-.668-2.033-1.009-3.027v-.044Z" fill="#C0C6CC"/><path d="M147.014 393.763c1.825-.757 3.842-.297 5.741-.237-.237 7.61 3.056 14.775 6.883 21.154 1.973 3.501 5.118 6.216 6.706 9.94-2.982-.638-5.682-2.107-8.382-3.487-3.738-4.287-7.15-8.886-9.287-14.212-.371-.993-.667-1.987-.964-2.996-.163-.579-.326-1.157-.489-1.706 1.008-.163 2.151-.03 3.07-.564 1.424-1.854.475-5.504-2.091-5.652-.831.445-1.543 1.068-2.285 1.647.03-1.321-.237-3.071 1.083-3.887h.015Z" fill="#F6A68B"/><path d="M222.48 394.98c7.863.193 15.74-.059 23.603.163 8.189.46 16.392.089 24.581.416 3.234.193 6.75-.579 9.702 1.127-4.406 1.068-8.945 1.35-13.425 1.958-8.694.95-17.372 1.988-26.05 2.982-5.371.638-10.785.994-16.126 1.84-.549-.252-1.083-.49-1.617-.727.356-2.596.178-5.266-.653-7.759h-.015Z" fill="#6B6E76"/><path d="M145.918 397.65c.742-.578 1.439-1.201 2.285-1.646 2.566.148 3.515 3.812 2.091 5.652-.905.534-2.047.386-3.071.564-.43-1.528-.89-3.042-1.305-4.57Z" fill="#FCC4B5"/><path d="M277.444 400.439c11.779-1.275 23.483-3.248 35.292-4.213-.816 1.261-1.647 2.819-3.234 3.19-2.656.682-5.4.801-8.1 1.216a1431.246 1431.246 0 0 0-25.145 3.932c-.415.059-1.261.163-1.676.222-6.943.801-13.856 1.958-20.784 2.908-7.581 1.038-15.132 2.284-22.742 2.937a451.122 451.122 0 0 1-.252-4.495c5.578-1.231 11.274-1.691 16.941-2.284 9.94-.816 19.79-2.404 29.7-3.427v.014Z" fill="#85888F"/><path d="M221.31 403.644c.609-.297 1.202-.608 1.81-.905.534.237 1.068.475 1.617.727.549 2.329.49 4.792-.994 6.779-7.566-3.174-16.007-6.601-24.284-4.139-2.819.668-4.926 2.775-6.513 5.089-.86-.208-1.736-.416-2.581-.638-1.81-1.78-3.59-3.649-4.777-5.904 3.175-.401 6.364-.475 9.554-.371 5.845.163 11.704-.178 17.549.356 2.893.252 5.949.43 8.619-.964v-.03Z" fill="#878B94"/><path d="M57.875 404.208c16.912-.074 33.809-.044 50.721-.059 13.039-.104 26.094.341 39.134-.208.297 1.009.593 2.003.964 2.997-.311 0-.949 0-1.261.015-2.833-.149-2.225 1.053-4.064 3.189-9.124.059-21.481.045-30.605 0a28.015 28.015 0 0 0-.489 1.691c-.015-.415-.06-1.261-.075-1.676H63.305c-1.44-.074-2.908-.119-4.273-.594-1.053-1.572-.905-3.56-1.142-5.355h-.015Z" fill="#8B8F96"/><path d="M169.402 404.446a85.23 85.23 0 0 1 2.715-.445c1.424 5.622 4.51 10.621 7.863 15.294 2.062 2.849 5.222 4.644 7.373 7.418-1.899-1.276-3.932-2.374-5.593-3.961-2.997-2.744-5.029-6.335-6.824-9.939-1.484-3.027-3.887-5.445-5.519-8.367h-.015Z" fill="#CB6E4F"/><path d="M274.565 404.786c.416-.059 1.261-.163 1.677-.222.979 4.613 1.898 9.286 1.735 14.033-.207 5.816-1.394 11.631-3.887 16.912-.771 1.736-2.136 3.086-3.545 4.302 1.068-4.376 3.768-8.144 4.628-12.565 1.766-7.417.891-15.087-.623-22.46h.015Z" fill="#3D5B9C"/><path d="M143.337 409.963c1.676-2.27 2.478-1.84 5.311-1.899 1.231 4.613 4.747 8.144 7.002 12.224-5.088-1.929-8.797-1.944-12.328-10.311l.015-.014Z" fill="#F5A68A"/><path d="M147.06 406.937h1.617c2.136 5.325 5.548 9.924 9.286 14.212-1.468-.579-2.967-1.069-4.435-1.662-1.958-4.228-5.578-7.848-6.483-12.535l.015-.015Z" fill="#C46243"/><path d="M198.272 409.014c2.27-.297 4.703-.119 6.78.905 2.373 1.676-.015 6.26-2.819 5.147-2.284-.326-4.688-.875-6.527-2.358-.163-1.617.771-3.531 2.551-3.694h.015Z" fill="#FCCEC0"/><path d="M190.361 410.557c.846.222 1.706.43 2.582.637 1.127 1.84 2.388 3.798 4.509 4.555 5.474 2.27 11.468 2.7 17.12 4.317 4.109 1.231 8.515 1.795 12.179 4.183-3.872-.4-7.521-1.825-11.289-2.715-6.409-1.661-13.262-2.017-19.196-5.132-2.582-1.247-4.258-3.62-5.905-5.86v.015Z" fill="#CB6E4F"/><path d="M239.064 427.987c3.516-.297 7.031-.594 10.562-.816 1.053 0 2.092.044 3.145.104-.905 2.729-1.736 5.548-3.353 7.966-1.305 1.958-3.204 3.397-5.014 4.866-3.827-2.774-5.207-7.596-5.355-12.12h.015Z" fill="#3D5B9C"/><path d="M184.043 427.973c1.409 0 2.833-.103 4.242-.148 4.451-.133 8.783 1.113 13.218 1.335 7.358.445 14.731-.074 22.104-.207 5.178-.06 10.311-.549 15.458-.965.149 4.51 1.513 9.346 5.356 12.12 4.05 1.484 8.396 1.721 12.654 1.959-.163 20.576.252 41.181 2.003 61.698-4.08-.504-8.174.267-12.254.267-19.552 0-39.12-.03-58.672 0-1.854-.03-3.709-.104-5.563-.178-.163-.964-.341-1.899-.46-2.848 1.261-17.179.964-34.417 1.661-51.611.134-7.15.075-14.301.253-21.451v.029Z" fill="#E9E9E9"/><path d="M268.662 440.834c4.495 1.365 8.515 3.991 13.114 5.088 13.055 3.427 26.658 2.107 39.98 2.315 18.826.178 37.666-.356 56.417-2.137 1.157 4.154 2.092 8.367 3.027 12.58-5.326-.059-10.578-1.053-15.829-1.735-9.42-1.276-18.811-2.671-28.246-3.709-11.452-1.38-22.994-1.795-34.417-3.353-7.818-1.112-15.918-.742-23.498-3.234-3.783-1.365-7.714-2.818-10.533-5.815h-.015ZM169.252 463.073c2.745-1.32 5.919 1.439 5.088 4.346-.37 2.967-5.014 3.427-6.29.92-1.053-1.691-.563-4.257 1.202-5.251v-.015ZM267.181 468.65c3.011-.133 6.112-.371 9.019.638-2.67 1.81-6.022.994-9.034 1.053 0-.43.015-1.275.015-1.706v.015Z" fill="#3D5B9C"/><path d="M318.627 106.827c-.223-5.089 4.347-9.88 9.45-9.554h.059c33.468 0 73.7.044 107.271-.015 0 3.472.979 7.076 3.398 9.762 2.329 2.818 5.815 4.361 9.316 4.776.059 6.646.044 9.48.044 12.299 0 2.922-.029 5.844.03 12.98.015 2.641-.148 5.222-1.543 7.254v.03c-1.721 2.7-4.88 4.272-8.1 4.376h-.667c-27.504-.015-61.862.045-89.366-.029-1.691-.104-3.071.563-4.242 1.379-.594.416-1.158.876-1.692 1.306-.549.445-1.053.86-1.572 1.201-1.988 1.41-3.917 2.908-5.815 4.377-1.543 1.172-3.071 2.329-4.659 3.397.164-3.56.801-7.062 1.232-10.696l.089-.786-.787-.045c-1.335-.074-2.581-.089-3.842-.237-1.083-.134-2.092-.371-3.011-.816l-.386-.208c-3.071-1.81-5.266-5.162-5.133-8.693v-.03c0-8.144.015-12.075.015-16.007l-.03-16.006-.059-.015Z" fill="#D2E2FE" stroke="url(#b)"/><path d="M439.561 125.105c0 .341-.119.638-.386.89a1.22 1.22 0 0 1-.89.371c-.356 0-.668-.119-.92-.371a1.223 1.223 0 0 1-.371-.89c0-.356.119-.638.371-.89.252-.238.564-.371.92-.371.356 0 .638.118.89.371.252.237.386.534.386.89Zm-.772-2.7h-1.009c-.029-.178-.059-.49-.089-.92-.029-.445-.074-.949-.118-1.513-.045-.564-.089-1.157-.134-1.751-.044-.608-.089-1.172-.133-1.706-.03-.534-.074-.979-.104-1.32-.03-.356-.03-.579-.03-.638 0-.311.104-.564.327-.756a1.13 1.13 0 0 1 .801-.312c.311 0 .578.104.786.312.222.192.326.445.326.756 0 .074 0 .282-.029.638-.03.341-.06.786-.104 1.32-.03.534-.074 1.098-.119 1.706-.044.609-.089 1.187-.133 1.751-.045.564-.089 1.068-.119 1.513-.03.43-.059.742-.089.92h-.03ZM430.688 126.453c-.92 0-1.735-.192-2.448-.593a4.286 4.286 0 0 1-1.661-1.632c-.401-.697-.608-1.498-.608-2.403s.207-1.691.608-2.374c.4-.697.964-1.231 1.661-1.632.713-.4 1.528-.593 2.448-.593.92 0 1.736.193 2.448.593.712.401 1.276.935 1.661 1.632.401.698.609 1.484.609 2.374 0 .89-.208 1.706-.609 2.403-.385.697-.949 1.231-1.661 1.632-.712.401-1.528.593-2.448.593Zm0-1.631c.549 0 1.024-.134 1.424-.386a2.63 2.63 0 0 0 .935-1.039c.237-.445.341-.979.341-1.557 0-.579-.118-1.083-.341-1.528a2.588 2.588 0 0 0-.935-1.054c-.4-.252-.875-.385-1.424-.385-.549 0-.994.133-1.409.385a2.622 2.622 0 0 0-.95 1.054c-.222.445-.326.949-.326 1.528 0 .578.104 1.112.326 1.557.238.445.549.787.95 1.039.4.252.875.386 1.409.386ZM420.217 126.172v-8.026h1.943v8.026h-1.943Zm-3.041-7.076v-1.588h8.011v1.588h-8.011ZM411.685 126.453a5.133 5.133 0 0 1-2.151-.445 4.698 4.698 0 0 1-1.632-1.261l1.217-1.187c.297.415.638.742 1.053.979.43.237.92.341 1.454.341.875 0 1.558-.267 2.047-.816.49-.549.727-1.275.727-2.21s-.252-1.676-.742-2.225c-.489-.549-1.157-.816-2.017-.816-.564 0-1.039.118-1.454.341a3.04 3.04 0 0 0-1.039.949l-1.201-1.157a4.475 4.475 0 0 1 1.617-1.261c.638-.296 1.35-.445 2.151-.445.92 0 1.721.193 2.418.594a4.016 4.016 0 0 1 1.647 1.617c.4.682.608 1.483.608 2.403 0 .92-.193 1.721-.593 2.433a4.217 4.217 0 0 1-1.647 1.617c-.712.386-1.528.578-2.463.578v-.029Zm-1.78-4.006v-1.35h5.682v1.35h-5.682ZM394.033 126.172v-1.617h.623c.312 0 .549-.074.698-.223.163-.148.252-.415.281-.786l.564-6.038h6.602v8.664h-1.944v-8.352l1.395 1.261h-5.682l1.469-1.261-.594 6.112c-.074.83-.311 1.424-.697 1.75-.386.327-.964.49-1.751.49h-.964ZM392.726 126.172h-1.795v-1.721l-.089-.371v-3.249c0-.653-.207-1.157-.623-1.513-.415-.371-.979-.549-1.706-.549-.519 0-1.009.104-1.454.311a3.46 3.46 0 0 0-1.142.876l-1.112-1.217a5.273 5.273 0 0 1 1.661-1.112c.638-.267 1.335-.401 2.121-.401.816 0 1.543.148 2.151.43.624.282 1.113.683 1.454 1.217.342.534.52 1.172.52 1.913v5.386h.014Zm-4.865.281c-.668 0-1.247-.118-1.751-.37a2.922 2.922 0 0 1-1.187-.994c-.282-.416-.415-.905-.415-1.454 0-.608.178-1.113.519-1.528.341-.43.831-.757 1.439-.979.623-.238 1.335-.342 2.151-.342h2.433v1.336h-2.255c-.682 0-1.231.118-1.661.37-.416.238-.623.609-.623 1.083 0 .431.163.772.489 1.024.326.237.742.371 1.261.371.519 0 .949-.104 1.38-.312.415-.207.741-.489.994-.845.252-.371.4-.786.43-1.261l.623.297c0 .712-.163 1.335-.49 1.898a3.425 3.425 0 0 1-1.35 1.291c-.578.297-1.246.445-1.973.445l-.014-.03ZM373.871 126.172v-1.617h.623c.312 0 .549-.074.697-.223.164-.148.253-.415.282-.786l.564-6.038h6.602v8.664h-1.944v-8.352l1.395 1.261h-5.682l1.483-1.261-.593 6.112c-.074.83-.312 1.424-.697 1.75-.386.327-.965.49-1.751.49h-.979ZM371.499 123.561l1.113 1.216a4.694 4.694 0 0 1-1.677 1.231c-.667.297-1.424.445-2.24.445-.964 0-1.839-.192-2.581-.593a4.536 4.536 0 0 1-1.751-1.632c-.415-.697-.623-1.483-.623-2.373 0-.891.208-1.706.608-2.404.401-.697.965-1.231 1.662-1.632.712-.4 1.498-.593 2.374-.593.875 0 1.617.193 2.269.593.653.386 1.172.92 1.558 1.603.386.667.579 1.453.579 2.344v.103h-1.929v-.192c0-.579-.104-1.083-.326-1.514a2.36 2.36 0 0 0-2.181-1.379c-.519 0-.979.133-1.395.385-.4.238-.697.594-.919 1.039-.223.445-.327.979-.327 1.602 0 .623.134 1.172.386 1.632.267.46.623.816 1.083 1.083.46.237.994.371 1.602.371 1.098 0 2.003-.445 2.73-1.335h-.015Zm1.291-1.098h-7.715v-1.321h7.433l.282.638v.683ZM353.087 125.357v-.757h.282c.237 0 .43-.045.579-.134.148-.103.267-.281.326-.519.074-.252.148-.608.193-1.053l.593-5.37h6.483v7.58h-1.914v-7.269l1.35 1.261h-5.592l1.528-1.261-.623 5.207c-.06.579-.178 1.039-.342 1.365a1.473 1.473 0 0 1-.741.727c-.327.148-.757.223-1.321.223h-.801Zm-.415 3.145V124.6h10.206v3.902h-1.824v-3.457l1.097 1.127h-8.337l.697-1.127v3.457h-1.839ZM350.461 123.517l1.246 1.216c-.43.534-.949.95-1.587 1.261-.623.297-1.335.445-2.151.445-.89 0-1.691-.193-2.404-.593a4.459 4.459 0 0 1-1.646-1.632c-.401-.697-.608-1.498-.608-2.403s.207-1.677.608-2.359c.4-.697.964-1.231 1.661-1.632.712-.4 1.528-.608 2.433-.608.786 0 1.484.148 2.107.445a4.539 4.539 0 0 1 1.587 1.261l-1.246 1.216a2.766 2.766 0 0 0-.964-.934c-.386-.238-.846-.371-1.395-.371s-1.009.133-1.424.386a2.542 2.542 0 0 0-.964 1.053c-.238.445-.341.949-.341 1.528 0 .578.118 1.098.341 1.543.237.445.564.801.964 1.053.415.252.89.386 1.424.386.534 0 1.009-.119 1.395-.371a3.06 3.06 0 0 0 .964-.935v.045ZM335.642 126.172v-10.711h-2.967c-.712 0-1.275.178-1.676.534-.4.341-.608.831-.608 1.439 0 .608.208 1.098.608 1.454.401.341.964.519 1.676.519h3.145v1.706h-3.145c-.86 0-1.617-.148-2.269-.445-.653-.312-1.157-.742-1.513-1.306-.357-.548-.535-1.201-.535-1.928 0-.727.178-1.38.535-1.929.356-.548.86-.979 1.513-1.29.667-.312 1.424-.475 2.269-.475h4.97v12.417h-2.003v.015Zm-8.144 0 4.183-5.786h2.226l-4.021 5.786H327.498Z" fill="#3A4F73"/><path d="M448.683 110.937c6.972 0 12.625-5.652 12.625-12.624s-5.653-12.625-12.625-12.625-12.624 5.653-12.624 12.625 5.652 12.624 12.624 12.624Z" fill="#6683C2" stroke="#fff" stroke-width="1.71"/><path d="M448.163 91.563h1.914v13.634h-2.181V93.863l-3.457 2.477v-2.225l3.724-2.552Z" fill="#fff"/><path d="M151.553 414.058c-2.878-4.45-5.207-9.39-5.414-14.745-1.558.059-3.249-.193-4.688.534-1.039.741-.727 2.151-.668 3.248.579-.519 1.113-1.068 1.765-1.483 2.107-.03 3.101 2.908 2.048 4.51-.712.489-1.662.445-2.478.638.163.445.327.905.505 1.379.296.801.608 1.617.964 2.404.875 1.795 1.928 3.456 3.1 5.043 1.113-.459 5.044 3.353 7.388 4.154.341.119-2.032-4.94-2.522-5.667v-.015Z" fill="#F6A68B"/><path d="M140.77 403.079c.578-.519 1.112-1.068 1.765-1.484 2.106-.029 3.1 2.923 2.047 4.51-.712.49-1.661.445-2.477.638-.445-1.231-.905-2.448-1.335-3.664Z" fill="#FCC4B5"/></g><g clip-path="url(#c)"><path d="M191.757 4.021c3.056-3.16 7.655-4.495 11.972-3.872 8.886 1.113 16.274 7.017 25.071 8.47 10.637 1.707 21.348-1.809 31.984-.014 6.379 1.202 12.254 4.762 16.319 9.806 1.78 2.195 3.07 4.732 4.554 7.12 0-2.803.044-5.696-1.024-8.336-.905-2.315-2.744-4.065-4.198-6.024 3.293 1.113 5.43 4.184 6.334 7.403.965 3.368.505 6.913.208 10.355 4.258-.89 10.073-1.988 12.847 2.359-1.854-.52-3.62-1.276-5.518-1.647-1.929-.37-3.902.06-5.786.43 3.086 1.87 6.453 3.56 8.649 6.542 4.421 5.682 5.014 13.248 4.51 20.176-.831 10.102-3.412 20.057-7.106 29.492a35.063 35.063 0 0 0-3.665-2.79c-1.706-1.127-3.723-1.72-5.756-1.868-3.367-.297-6.735-.52-10.087-.89.118-7.715 0-15.874-3.872-22.802-1.647-2.848-3.961-5.741-7.254-6.646-2.938-.415-5.92.282-8.887-.015-7.269-.682-14.152-3.382-20.694-6.453-2.745-1.469-5.445.786-8.115 1.32-7.714 1.855-15.829-.252-22.786-3.694a38.425 38.425 0 0 1-6.454-6.156c-2.67-3.19-3.723-7.314-5.518-10.978.133 2.492.371 5.074 1.647 7.284 1.157 2.403 3.13 4.362 3.946 6.913.059 2.967-1.335 5.741-2.151 8.56-2.656-2.359-5.163-5.03-6.454-8.412-1.765-4.495-2.952-9.553-1.631-14.315.504-1.854 1.097-3.68 1.557-5.534-3.011 2.76-3.545 7.032-3.694 10.874-.163 6.825 3.19 13.396 8.293 17.802 1.231.965 1.854 2.493 1.32 4.02-.578 2.997-2.314 5.549-3.738 8.19-2.329-2.834-3.931-6.142-5.667-9.347-3.115-6.023-5.652-12.624-5.563-19.508.03-4.569 1.617-9.271 4.984-12.46 1.855-1.84 4.317-2.834 6.661-3.858.49-4.139 1.662-8.456 4.762-11.438v-.059Zm2.092 5.266c2.626 1.632 5.756 2.196 8.382 3.813 3.323 2.003 6.453 4.332 9.39 6.869 5.296 4.584 10.667 9.079 16.081 13.529 4.911 4.05 10.548 7.091 16.2 9.954 3.59 1.84 7.64 2.834 11.675 2.478.994-.06 1.795-.697 2.626-1.143-3.783-.578-7.67-.727-11.304-2.017-6.706-2.077-12.239-6.557-17.817-10.637-7.966-5.474-14.36-12.966-22.594-18.084-3.827-2.418-8.025-4.643-12.669-4.762h.03Zm.074 13.752c.653 3.175 2.448 5.934 4.555 8.338 4.732 5.711 11.704 9.138 18.84 10.77 2.284.356 5.296.8 6.72-1.528-3.308-.297-6.69-.03-9.895-1.039-5.207-1.572-9.613-4.954-13.648-8.485-2.7-2.255-4.258-5.49-6.587-8.056h.015Zm87.586 13.381c2.492 2.033 5.533 3.457 7.565 6.023 1.944 2.092 2.507 5.119 4.658 7.062-.267-3.19-1.587-6.216-3.649-8.678-2.092-2.552-5.059-4.94-8.589-4.421l.015.014Zm-10.355 13.07c.89 5.148 5.058 8.708 8.738 12.016 3.693 3.323 8.797 5.296 13.796 4.406-2.047-1.365-4.629-1.172-6.854-2.047-5.37-2.003-10.043-5.964-12.698-11.067-.683-1.35-1.573-2.64-2.982-3.308Z" fill="#58301F"/><path d="M193.832 9.302c4.629.12 8.842 2.344 12.669 4.762 8.233 5.119 14.627 12.595 22.594 18.084 5.578 4.095 11.111 8.56 17.816 10.637 3.635 1.29 7.522 1.439 11.305 2.017-.831.46-1.647 1.083-2.626 1.143-4.035.356-8.085-.638-11.675-2.478-5.652-2.863-11.29-5.89-16.215-9.954a823.892 823.892 0 0 1-16.081-13.53c-2.937-2.536-6.067-4.865-9.39-6.868-2.641-1.602-5.756-2.18-8.382-3.813h-.015Z" fill="#341707"/><path d="M180.706 30.65c.163-3.857.682-8.13 3.694-10.874-.46 1.854-1.053 3.679-1.558 5.533-1.335 4.762-.133 9.821 1.632 14.316 1.291 3.382 3.798 6.053 6.453 8.411.816-2.818 2.196-5.578 2.151-8.56-.801-2.55-2.789-4.51-3.946-6.912-1.261-2.21-1.498-4.792-1.646-7.284 1.795 3.664 2.848 7.788 5.518 10.977a38.437 38.437 0 0 0 6.453 6.157c-4.376 7.937-6.601 16.808-8.352 25.635-1.735-2.3-3.605-4.644-4.539-7.403 1.424-2.64 3.16-5.192 3.738-8.189.534-1.528-.089-3.056-1.32-4.02-5.103-4.406-8.456-10.978-8.293-17.802l.015.015Z" fill="#3A1807"/><path d="M193.906 23.04c2.329 2.58 3.887 5.8 6.587 8.055 4.035 3.53 8.441 6.913 13.648 8.485 3.204 1.01 6.587.742 9.895 1.039-1.424 2.329-4.436 1.869-6.72 1.528-7.136-1.617-14.108-5.044-18.841-10.77-2.121-2.404-3.916-5.163-4.554-8.338h-.015Z" fill="#381906"/><path d="M281.512 36.42c3.53-.533 6.497 1.855 8.589 4.422 2.047 2.447 3.368 5.489 3.65 8.678-2.152-1.943-2.715-4.955-4.659-7.061-2.032-2.582-5.073-3.99-7.565-6.023l-.015-.015Z" fill="#39190A"/><path d="M199.457 42.413c6.957 3.456 15.072 5.548 22.786 3.694 2.67-.534 5.37-2.79 8.115-1.32 6.542 3.085 13.44 5.77 20.709 6.453 2.952.296 5.934-.4 8.886.014 3.309.905 5.623 3.798 7.255 6.647 3.857 6.927 3.99 15.087 3.872 22.8-4.139-.385-8.367-.607-12.269-2.18-4.465-1.75-8.886-3.96-13.767-4.154-6.29-.326-12.936-.237-18.736 2.522-2.433 1.083-3.946 3.353-5.222 5.593a95.514 95.514 0 0 0-7.699-.341c-2.211-3.116-5.252-5.682-8.975-6.735-4.317-1.454-8.961-1.573-13.471-1.247l.371-.118c2.329-.801 4.807-1.335 7.255-.89 2.759.356 5.34 1.706 8.144 1.676 2.181 0 3.827-2.878 2.314-4.614-1.914-1.958-4.717-2.625-7.313-3.189-3.62-.786-7.329-.06-10.682 1.365l.089-.371c1.736-8.827 3.961-17.698 8.352-25.635l-.014.03Zm37.131 23.914c-2.492.519-5.132 1.053-7.135 2.7-1.944 1.676-.163 5.296 2.314 5.073 4.095-.193 8.041-1.632 12.15-1.513 2.996-.133 5.8 1.068 8.752 1.394 1.35.193 2.834-.712 3.042-2.12-.267-1.633-1.751-2.671-3.101-3.398-4.895-2.507-10.637-3.1-16.022-2.151v.015Z" fill="#F5A288"/><path d="M271.143 49.49c1.409.667 2.299 1.958 2.981 3.308 2.656 5.103 7.329 9.05 12.699 11.067 2.225.875 4.807.682 6.854 2.047-5 .89-10.103-1.068-13.797-4.406-3.679-3.323-7.847-6.868-8.737-12.016Z" fill="#391A0A"/><path d="M236.589 66.328c5.385-.935 11.126-.356 16.022 2.151 1.35.727 2.833 1.765 3.1 3.397-.207 1.395-1.691 2.3-3.041 2.122-2.937-.327-5.756-1.528-8.752-1.395-4.124-.133-8.071 1.32-12.15 1.513-2.463.223-4.258-3.397-2.314-5.073 2.002-1.647 4.643-2.196 7.135-2.7v-.015Z" fill="#562F1E"/><path d="M191.031 68.42c3.353-1.425 7.062-2.152 10.681-1.365 2.596.563 5.4 1.23 7.314 3.19 1.513 1.72-.134 4.613-2.314 4.613-2.819.03-5.385-1.32-8.145-1.677-2.448-.445-4.94.09-7.254.89-1.498-1.661-1.142-3.768-.267-5.637l-.015-.015Z" fill="#542D1C"/><path d="M180.692 77.81c3.397-1.26 6.69-2.848 10.236-3.65 4.495-.326 9.138-.207 13.47 1.247 3.723 1.068 6.75 3.635 8.975 6.735a88.8 88.8 0 0 1 7.699.341c1.276-2.225 2.789-4.51 5.222-5.593 5.801-2.759 12.447-2.848 18.737-2.522 4.88.208 9.301 2.404 13.766 4.154 3.902 1.573 8.13 1.795 12.269 2.181 3.352.37 6.72.593 10.088.89 2.047.148 4.035.742 5.755 1.87-2.343.222-4.687.578-6.972 1.142-3.234-.09-6.423-.638-9.643-.92-3.041.015-6.646-1.499-9.271.623-1.929 1.38-1.766 3.976-2.137 6.067-.727 5.252-2.091 10.949-6.215 14.628-4.525 3.857-11.008 4.376-16.645 3.293-4.688-.89-8.708-4.109-10.874-8.308-2.196-3.59-2.804-7.803-3.917-11.793-.816-3.056-4.955-3.427-7.313-1.944-1.172 2.225-2.329 4.45-3.65 6.587.356-3.783 1.039-7.877-.816-11.408-5.815-5.281-14.923-6.35-22.044-3.234 1.009.252 2.032.52 3.056.771l-.089 2.953c-2.285-.134-4.555-.297-6.839-.46-.92 5.043-.683 10.31.771 15.235.801 2.73 2.626 5.074 4.925 6.705 1.128.534 2.3.994 3.501 1.365 2.137.386 4.332.549 6.483.238 2.404-.356 4.495-1.662 6.617-2.789-.549 1.364-1.068 2.729-1.602 4.094-4.599 1.454-9.613 1.795-14.227.193-3.293-1.469-6.008-4.198-7.373-7.551-1.795-3.931-1.943-8.323-2.151-12.58.104-2.403-2.745-3.857-2.225-6.32-.178-1.424 1.453-1.72 2.433-2.24Zm44.341 4.243c-1.839 4.124-.356 8.842.935 12.936 1.439 5.504 5.993 9.984 11.615 11.037 5.133.519 11.112-.119 14.539-4.45 3.753-5.118 4.42-11.794 4.064-17.965l-.326-.03c-.534-1.543-1.157-3.234-2.7-4.035-4.421-2.522-9.746-2.848-14.731-2.552-4.718.416-10.325.98-13.396 5.059Z" fill="#435A8C"/><path d="M187.383 78.196c7.106-3.1 16.214-2.032 22.044 3.234-1.691 1.498-3.337 3.026-4.984 4.54-2.077-.727-4.272-1.157-6.468-.965-2.745.342-6.468 2.7-5.608 5.89 2.359.623 4.035-1.617 5.563-3.026 1.514.207 3.027.4 4.51.786.193.148.594.445.786.593-3.96 4.866-6.824 10.474-10.517 15.517a26.172 26.172 0 0 1-3.501-1.364c.356-7.166.741-14.33 1.142-21.481l.089-2.953c-1.024-.252-2.047-.519-3.056-.77Z" fill="#FBCDC0"/><path d="M225.031 82.052c3.056-4.08 8.678-4.643 13.395-5.059-1.676 3.427-3.96 6.513-5.281 10.103a43.583 43.583 0 0 1-2.225 3.264c-1.424 1.78-3.175 3.249-4.97 4.628-1.29-4.094-2.759-8.812-.934-12.936h.015Z" fill="#F5AF9B"/><path d="M238.428 76.994c4.984-.297 10.31.03 14.731 2.551 1.543.801 2.166 2.493 2.7 4.035-1.039-.133-2.062-.326-3.086-.46a365.863 365.863 0 0 0-4.436 5.074c-1.424-1.023-2.848-2.077-4.361-2.982l-.504-.089c-3.576-.89-7.255.09-10.326 1.973 1.321-3.59 3.605-6.69 5.282-10.102Z" fill="#FACABE"/><path d="M209.426 81.43c1.854 3.515 1.172 7.624.816 11.407-1.543 3.1-3.101 6.186-4.436 9.391-2.106 1.127-4.198 2.433-6.616 2.789-2.151.311-4.347.148-6.483-.238 3.694-5.043 6.557-10.651 10.518-15.517 1.513 1.261 3.1 2.433 4.836 3.368.564-2.389-.845-4.392-2.581-5.86a18.183 18.183 0 0 0-1.083-.786c1.661-1.528 3.308-3.056 4.984-4.54l.045-.015Z" fill="#FAB5A1"/><path d="M252.759 83.12c1.023.134 2.047.327 3.085.46l.327.03c.356 6.156-.312 12.847-4.065 17.965-3.427 4.332-9.42 4.97-14.553 4.451 2.774-5 5.325-10.133 8.441-14.94.786-.088 1.587-.177 2.388-.251-.029-.89-.059-1.766-.074-2.641a359.326 359.326 0 0 1 4.436-5.073h.015Z" fill="#F9B7A5"/><path d="M261.008 84.307c2.641-2.121 6.245-.608 9.272-.623 0 3.546-.683 7.047-1.217 10.548.416.133 1.232.43 1.632.563 2.715-3.694 5.459-7.477 9.213-10.191 2.284-.564 4.628-.905 6.972-1.142 1.276.86 2.507 1.78 3.664 2.788 3.486 3.932 3.991 9.688 2.685 14.613-1.453 5.192-4.257 10.162-8.515 13.559-2.329 1.899-5.281 3.13-8.307 3.1-1.172-.044-2.33-.163-3.487-.252 0 2.73.075 5.474.312 8.204.771 9.969 1.009 19.983 2.017 29.937.03 6.216 1.069 12.387 1.069 18.603-.861 3.026-2.196 5.919-3.887 8.574-6.617 8.1-16.408 13.53-26.807 14.702-7.18.875-14.805 0-21.08-3.828-3.546-2.106-6.172-5.681-7.076-9.702-.757-3.323-.401-6.735-.164-10.087 3.442-.06 6.928.044 10.296-.772 9.168-2.195 17.816-6.587 24.774-12.98 7.477-6.958 13.93-15.295 17.431-24.968.504-1.498.742-3.07.994-4.613-2.062 2.967-3.442 6.364-5.622 9.257-4.347 5.682-9.45 10.978-15.829 14.36-9.851 5.296-21.496 7.506-32.533 5.266l-.416-.059c-3.827-1.543-7.818-3.012-10.903-5.86-6.35-5.34-9.806-13.188-12.195-20.947-1.706-5.711-2.507-11.645-3.248-17.535-.371-2.759-.46-5.563-.075-8.337 4.614 1.602 9.628 1.261 14.227-.193 1.306 3.546 4.095 6.913 7.996 7.537 2.685-.045 5.222-1.039 7.833-1.543a60.334 60.334 0 0 0-.653-1.751c-2.581.341-5.029 1.484-7.64 1.513-2.863-1.053-6.097-4.361-4.391-7.58 2.641-5.875 6.943-11.468 6.513-18.247 2.358-1.469 6.482-1.113 7.313 1.943 1.113 3.99 1.706 8.189 3.917 11.794 2.18 4.198 6.201 7.417 10.874 8.307 5.637 1.083 12.12.564 16.644-3.293 4.124-3.664 5.504-9.36 6.216-14.627.386-2.092.223-4.688 2.136-6.068l.045.03Zm22.015 9.82c-4.095 3.354-7.477 8.026-8.189 13.382 2.374-2.329 2.433-6.29 5.504-7.996.934 2.329 1.468 4.836 2.893 6.943.563-3.042-.564-5.949-1.988-8.56 2.047-1.795 4.257-3.397 6.319-5.192-1.602.133-3.308.282-4.539 1.424Zm-65.199 25.012c-4.599.505-9.317.03-13.767 1.514-1.335 1.231-2.715 2.7-2.507 4.687.207 7.077 4.628 13.841 10.888 17.09 5.845 2.626 12.877 2.685 18.544-.43 4.525-2.359 7.759-6.661 9.509-11.378 1.039-3.917 1.81-8.323-.504-11.942l-.356.296c-1.335-.786-2.804-1.35-4.376-1.231-5.831.104-11.616.964-17.431 1.394Z" fill="#F5A48A"/><path d="M270.28 83.683c3.219.282 6.408.831 9.642.92-3.753 2.715-6.497 6.513-9.212 10.192-.415-.134-1.231-.43-1.632-.564.534-3.501 1.202-7.002 1.217-10.548h-.015Z" fill="#4F2A19"/><path d="M197.975 85.004c2.196-.208 4.391.237 6.468.964.356.238.727.505 1.068.786a210.619 210.619 0 0 0-3.056 1.9c-1.483-.386-3.011-.58-4.51-.787.698-.905 1.335-1.854 1.959-2.804-.475-.015-1.454-.06-1.929-.06Z" fill="#6E6868"/><path d="M233.161 87.097c3.085-1.87 6.75-2.863 10.325-1.973-.831-.09-1.676-.163-2.507-.238a367.238 367.238 0 0 0-1.588 3.383c.282 0 .861-.03 1.143-.045-3.086.327-5.667 2.122-8.041 3.961a202.473 202.473 0 0 0-1.557-1.84c.801-1.053 1.513-2.15 2.225-3.263v.015Z" fill="#726462"/><path d="M192.38 90.894c-.86-3.19 2.863-5.548 5.608-5.89.489 0 1.453.045 1.928.06-.638.95-1.261 1.899-1.958 2.804-1.528 1.409-3.219 3.649-5.578 3.026Z" fill="#524945"/><path d="M239.391 88.27a342.64 342.64 0 0 1 1.587-3.383c.831.074 1.661.148 2.507.237l.504.09c-.415.978-.815 1.957-1.231 2.951-.742.015-1.483.045-2.225.075-.282 0-.861.03-1.142.044v-.015Z" fill="#29150D"/><path d="M243.974 85.213c1.513.905 2.923 1.958 4.362 2.982.029.875.059 1.75.074 2.64-.801.09-1.602.163-2.388.253-1.083-.994-2.181-1.959-3.264-2.923.4-.98.816-1.958 1.231-2.952h-.015Z" fill="#796B6F"/><path d="M387.222 24.018c.46-.46 1.128-.623 1.736-.86.267 2.491.326 4.998.252 7.506-.712 0-1.424 0-2.121.014-.06-2.225-.356-4.48.133-6.66ZM370.072 30.026c2.285.816 4.213 2.447 5.489 4.495.356.682-.044 1.498-.015 2.225-2.269-1.795-4.955-3.65-5.459-6.72h-.015ZM405.098 45.87a68.428 68.428 0 0 1 7.402-.03v1.707a68.176 68.176 0 0 1-7.387-.03v-1.646h-.015ZM403.985 30.858c.638-.519 1.661-1.038 2.181-.06-.994 2.152-2.745 3.932-4.748 5.178-.608-.222-1.186-.519-1.75-.786 1.409-1.469 2.73-3.056 4.317-4.332ZM378.334 39.505c5.43-5.251 15.102-5.044 20.161.623 3.694 3.858 4.525 9.821 2.848 14.79-.949 2.7-3.204 4.585-4.717 6.929-1.38 2.166-1.365 4.821-1.662 7.269-2.314.133-4.613.267-6.927.297-2.3.03-4.584.074-6.884.148-.4-2.27-.475-4.629-1.246-6.81-.92-2.032-2.596-3.59-3.768-5.459-3.62-5.43-2.878-13.529 2.21-17.802l-.015.015Zm.282 2.596c-2.774 3.13-3.323 7.789-1.913 11.646.979 2.67 3.085 4.658 4.584 7.017 1.261 1.913 1.542 4.243 1.913 6.453.727.074 1.439.148 2.181.237.282-4.183-.193-8.366-.356-12.55-1.706-.608-4.525-.964-4.465-3.323-.386-2.196 2.863-3.62 4.272-1.928.816 1.023 1.024 2.388 1.439 3.604 1.306-.178 2.611-.37 3.917-.563.637-1.32 1.053-2.878 2.225-3.843 1.305-.445 3.1.149 3.249 1.692.504 2.329-2.285 2.996-3.843 3.827-.489 4.391-.548 8.827-.563 13.248.341.03 1.008.089 1.335.103.445-2.166.712-4.42 1.75-6.408 1.38-2.418 3.665-4.213 4.837-6.765 2.121-4.629.786-10.518-2.967-13.915-4.881-4.54-13.485-3.709-17.609 1.439l.014.03Zm3.501 8.427c.223 1.157.772 2.195 1.899 2.67.03-.549.104-1.632.149-2.18l-2.048-.49Zm4.733 4.035c-.06 4.272.118 8.545.608 12.773.475.014 1.454.059 1.928.089.09-4.317.342-8.62.564-12.936-1.053.03-2.077.044-3.115.074h.015Z" fill="#FFF2E0"/><path d="M378.616 42.102c4.124-5.163 12.743-5.979 17.609-1.44 3.754 3.383 5.104 9.287 2.967 13.916-1.172 2.551-3.456 4.346-4.851 6.765-1.038 1.973-1.305 4.242-1.75 6.408-.327-.03-.994-.089-1.335-.104 0-4.42.074-8.856.563-13.247 1.558-.83 4.347-1.498 3.843-3.828-.149-1.542-1.944-2.136-3.249-1.69-1.187.964-1.602 2.521-2.226 3.842-1.305.192-2.61.37-3.916.563-.43-1.216-.623-2.566-1.439-3.605-1.394-1.69-4.658-.267-4.272 1.929-.06 2.359 2.759 2.715 4.465 3.323.163 4.183.638 8.352.356 12.55-.742-.089-1.469-.163-2.181-.237-.371-2.21-.667-4.54-1.913-6.453-1.499-2.359-3.605-4.362-4.584-7.017-1.425-3.857-.861-8.515 1.913-11.646v-.03Z" fill="#FFD08E"/><path d="M362.924 46.553c2.566-.4 5.177-.4 7.744-.193 0 .43-.015 1.29-.03 1.736-2.077.059-4.169.296-6.231 0-.756-.163-1.008-1.039-1.483-1.543Z" fill="#FFF2E0"/><path d="M382.117 50.529c.668.163 1.35.326 2.047.49a99.77 99.77 0 0 1-.148 2.18c-1.127-.475-1.661-1.528-1.899-2.67ZM392.416 53.2c-.03-.55-.104-1.633-.148-2.182l2.047-.49c-.223 1.158-.772 2.196-1.899 2.671ZM386.84 54.564c1.023-.03 2.062-.045 3.115-.074-.222 4.302-.489 8.619-.564 12.936-.474-.03-1.439-.06-1.928-.09-.49-4.242-.668-8.514-.608-12.772h-.015Z" fill="#FFD08E"/><path d="M380.576 69.576h.564c2.299-.074 4.584-.133 6.883-.163 2.344-.015 4.688.119 7.032.237 0 .416-.044 1.247-.059 1.662a516.01 516.01 0 0 1-14.375.06c0-.46-.03-1.35-.045-1.81v.014Z" fill="#5F8FBB"/><path d="M380.65 73.033c4.837-.416 9.688-.43 14.539-.55 0 .46-.045 1.38-.06 1.84-4.821.386-9.642.594-14.479.52V73.033Z" fill="#5E89B2"/><path d="M380.871 75.94c4.465 0 9.183.163 13.693 0-.045.4-.623 1.053-.668 1.454-.504.727-.934 2.21-1.75 2.403-1.439.579-5.905.594-7.878.193-2.492-.623-.415-1.469-2.611-2.73l-.786-1.305v-.015Z" fill="#5F88AF"/><path d="M210.242 92.823c1.32-2.136 2.492-4.361 3.649-6.587.415 6.78-3.887 12.373-6.512 18.247-1.706 3.219 1.513 6.528 4.391 7.581 2.596-.03 5.058-1.172 7.64-1.513.207.578.43 1.157.652 1.75-2.611.505-5.147 1.499-7.832 1.543-3.917-.623-6.691-3.99-8.011-7.536.534-1.365 1.053-2.744 1.602-4.094 1.335-3.19 2.893-6.29 4.436-9.39h-.015Z" fill="#D0684F"/><path d="M202.453 88.654a130.198 130.198 0 0 1 3.056-1.899c1.721 1.469 3.13 3.472 2.581 5.86-1.735-.934-3.323-2.121-4.836-3.367-.193-.149-.593-.43-.786-.594h-.015Z" fill="#2F1B15"/><path d="M240.534 88.239c.741-.03 1.483-.06 2.225-.075 1.098.965 2.18 1.944 3.278 2.923-3.115 4.806-5.667 9.939-8.441 14.939-5.622-1.068-10.177-5.549-11.616-11.037 1.795-1.38 3.561-2.849 4.97-4.629.519.608 1.039 1.216 1.558 1.84 2.373-1.855 4.955-3.635 8.04-3.961h-.014Z" fill="#FBCDC1"/><path d="M283.009 94.128c1.231-1.142 2.937-1.29 4.54-1.424-2.062 1.795-4.273 3.397-6.32 5.192 1.424 2.611 2.566 5.519 1.988 8.56-1.409-2.107-1.958-4.614-2.893-6.943-3.071 1.706-3.13 5.682-5.504 7.996.698-5.355 4.095-10.028 8.189-13.381Z" fill="#C76246"/><path d="M79.176 108.133c2.552-.801 5.37-1.884 8.04-.905 2.953 1.187 4.57 4.139 5.742 6.913-6.928-.296-13.56 2.166-20.176 3.828-1.899.445-3.65 1.29-5.222 2.433 8.16-1.202 15.948-4.51 24.21-5.029 4.2-.208 5.386 4.732 5.49 8.04a99.755 99.755 0 0 0-23.721 4.124c2.077.104 4.153.089 6.2-.267 5.134-.934 10.311-1.736 15.518-2.106 2.092-.075 4.643-.134 6.068 1.691 1.557 1.884 1.201 4.48 1.172 6.75-4.926-.638-9.925-.297-14.82.46-1.721.267-3.368.89-4.955 1.587 5.548.237 11.007-1.558 16.555-.964 1.469.118 3.056.905 3.309 2.522 1.053 4.836-.03 9.835-1.143 14.567-.371.742-1.172 1.113-1.958 1.247-2.804.326-5.622.534-8.426.89v-5.608c1.691.46 3.382.935 5.088 1.409l-1.335-2.047c.905-1.231 1.795-2.477 2.7-3.709-1.513 1.039-2.952 2.3-4.732 2.834-1.217 0-2.389-.341-3.56-.594-.312 3.205-.223 6.557 1.409 9.45 2.73 5.623 5.563 11.809 4.272 18.218-.445 2.937-2.284 5.325-3.738 7.818-.965 2.106-1.395 4.391-1.855 6.631-9.42-.89-18.632-3.219-27.578-6.201 0-1.929 0-3.857-.104-5.771-.43-4.643-1.69-9.153-2.462-13.737-1.959-10.815-3.887-21.629-5.34-32.518-.297-3.872-1.069-8.946 2.759-11.408 6.987-4.54 14.745-7.789 22.608-10.489l-.015-.059Z" fill="#F4A489"/><path d="M72.77 117.953c6.63-1.662 13.247-4.124 20.175-3.827.563.163 1.112.4 1.631.712 1.276 1.008 2.626 2.151 3.13 3.768.727 1.824.802 4.02 2.255 5.489 1.083 1.231 2.478 2.24 3.235 3.738.697 1.602.341 3.397.222 5.088-.445 2.567 1.098 4.94.964 7.507-.133 3.916-.89 7.937-2.981 11.304 1.127-4.732 2.195-9.732 1.142-14.568-.238-1.602-1.84-2.403-3.308-2.522-5.549-.593-11.008 1.202-16.556.965 1.587-.698 3.234-1.321 4.955-1.588 4.895-.756 9.88-1.098 14.82-.46.029-2.269.4-4.866-1.172-6.75-1.424-1.824-3.976-1.765-6.068-1.691-5.207.371-10.384 1.172-15.517 2.107-2.047.356-4.124.371-6.201.267a99.886 99.886 0 0 1 23.721-4.124c-.104-3.308-1.276-8.248-5.489-8.041-8.278.519-16.051 3.828-24.21 5.029 1.572-1.142 3.337-1.988 5.222-2.433l.03.03Z" fill="#C25D42"/><path d="M94.59 114.838c2.136-.297 4.525-.593 6.409.727 3.145 2.166 4.806 5.756 6.646 8.99.845 1.81 2.136 3.812 1.542 5.889-.934 2.285-3.694 2.24-5.756 2.493.119-1.692.475-3.487-.222-5.089-.757-1.498-2.136-2.507-3.234-3.738-1.454-1.469-1.528-3.664-2.255-5.489-.52-1.617-1.854-2.759-3.13-3.768v-.015Z" fill="#F4A588"/><path d="M272.934 117.286c1.157.103 2.314.207 3.486.252-.905 2.7-1.988 5.355-3.175 7.951-.237-2.729-.297-5.459-.311-8.203Z" fill="#502A18"/><path d="M217.836 119.139c5.816-.445 11.601-1.29 17.431-1.394 1.573-.134 3.041.445 4.362 1.231-1.899 1.602-3.961 3.026-6.29 3.917-6.958 2.685-14.524 3.753-21.956 3.189-1.765-.193-3.62-.401-5.118-1.409-1.246-.979-1.587-2.626-2.21-4.006 4.45-1.483 9.182-1.009 13.766-1.513l.015-.015Z" fill="#FEFEFE"/><path d="m239.618 118.962.356-.297c2.314 3.635 1.543 8.041.504 11.942-4.821-.875-9.939-1.35-14.642.415-5.726 1.944-10.236 6.365-13.411 11.394-6.275-3.249-10.681-10.014-10.889-17.09-.207-1.973 1.172-3.457 2.508-4.688.623 1.38.964 3.026 2.21 4.005 1.498.994 3.368 1.217 5.118 1.41 7.432.563 14.998-.505 21.956-3.19 2.329-.89 4.391-2.314 6.29-3.916v.015Z" fill="#701115"/><path d="M225.835 131.038c4.687-1.765 9.805-1.291 14.642-.415-1.751 4.717-4.985 9.004-9.51 11.378-5.666 3.115-12.698 3.056-18.543.43 3.189-5.029 7.684-9.45 13.411-11.393Z" fill="#DE594C"/><path d="M265.173 139.612c2.196-2.893 3.561-6.29 5.623-9.257-.253 1.543-.475 3.115-.98 4.614-3.501 9.672-9.939 18.024-17.431 24.967-6.957 6.394-15.621 10.785-24.774 12.98-3.367.801-6.854.712-10.295.772l-.49.029c.697-4.791.475-9.672 0-14.479 11.037 2.226 22.683.03 32.533-5.266 6.379-3.382 11.482-8.678 15.829-14.36h-.015Z" fill="#CE6851"/><path d="M92.766 146.734c1.78-.534 3.22-1.795 4.732-2.834-.904 1.232-1.795 2.478-2.7 3.709l1.336 2.047a688.72 688.72 0 0 0-5.089-1.409 354.168 354.168 0 0 0 0 5.608c2.804-.357 5.623-.564 8.427-.891-2.79 1.38-6.009 1.365-8.842 2.626-1.632-2.878-1.721-6.23-1.41-9.45 1.172.253 2.344.609 3.56.594h-.014Z" fill="#C15D41"/><path d="M276.331 174.029c0-6.216-1.038-12.387-1.068-18.603 4.525.222 9.02 1.068 13.292 2.566 7.136 2.596 12.966 7.878 17.476 13.871 1.365 1.75 2.27 3.857 3.812 5.489 2.077 1.231 4.525 1.632 6.78 2.477a256.045 256.045 0 0 1 28.572 12.12c11.794 5.949 23.543 12.313 33.571 21.007 6.646 6.438 11.201 14.612 15.74 22.593 11.66 21.659 19.924 44.965 26.955 68.478a620.184 620.184 0 0 1 7.685 29.299c.86 3.842 1.706 7.699 2.433 11.586 2.522 13.5 4.376 27.148 5.177 40.87-.104 2.3-.119 4.584-.104 6.884v3.456c-.015 1.855-.104 3.709-.207 5.563-.208 2.967-.446 5.934-.905 8.886-.787 4.57-1.766 9.124-3.383 13.471-1.513 3.56-3.619 7.046-6.913 9.242-3.145 2.062-6.601 3.59-10.073 5.044-2.67 1.023-5.414 1.928-8.144 2.774-1.528.46-3.071.905-4.614 1.305-1.29.238-2.581.475-3.872.742-4.124.845-8.292 1.528-12.461 2.151-2.626.356-5.252.623-7.892.846-18.751 1.78-37.592 2.314-56.417 2.136-13.337-.208-26.94 1.112-39.98-2.315-4.599-1.082-8.605-3.723-13.114-5.088 2.818 2.997 6.749 4.451 10.532 5.815 7.581 2.493 15.666 2.122 23.499 3.234 11.423 1.558 22.964 1.973 34.417 3.353 9.45 1.039 18.84 2.433 28.26 3.709 5.267.667 10.503 1.676 15.829 1.736 1.632 7.031 3.115 14.108 4.614 21.169.341 1.736.682 3.486.949 5.252.846 6.349 2.092 12.683 1.929 19.122H274.729c-5.207-.074-10.444.326-15.621-.445-1.765-20.517-2.166-41.123-2.003-61.699-4.272-.237-8.619-.474-12.654-1.958 1.795-1.469 3.709-2.908 5.014-4.866 1.603-2.418 2.448-5.237 3.353-7.966a56.426 56.426 0 0 0-3.145-.104c1.157-.119 2.299-.297 3.442-.445 1.602-6.231 1.483-12.699.727-19.033 6.928-.95 13.826-2.107 20.783-2.908 1.499 7.373 2.374 15.043.623 22.46-.86 4.436-3.56 8.204-4.628 12.565 1.424-1.216 2.789-2.566 3.546-4.302 2.492-5.266 3.679-11.096 3.886-16.912.163-4.732-.756-9.42-1.735-14.033 8.381-1.38 16.763-2.7 25.145-3.932 2.7-.43 5.444-.534 8.1-1.216 1.602-.371 2.418-1.929 3.234-3.19.4-1.305.667-2.625.934-3.961-14.612-.237-29.239.104-43.837-.207 2.285-2.848 5.519-4.658 8.856-5.979 16.482-6.853 34.091-10.28 51.003-15.829 5.37-1.691 10.74-3.456 16.244-4.658 1.469-.415 3.086-.638 4.273-1.676-.149-3.234-1.38-6.26-2.107-9.376-2.433-9.702-4.213-19.567-5.993-29.402-.876-4.392-.846-8.976-2.507-13.189-1.291 3.308-.579 6.869-.416 10.296.356 6.319.92 12.609 1.469 18.914.46 5.845.534 11.838-1.009 17.55-.994 3.694-3.56 6.958-6.987 8.678-3.724 1.87-7.818 2.715-11.764 3.917-12.714 3.694-25.561 6.987-38.111 11.23-5.771 2.121-11.749 4.673-15.755 9.539-3.204.074-6.423.074-9.628.059.03-9.569.801-19.093.979-28.631.253-5.059.253-10.118.564-15.177.683-8.678.579-17.401 1.276-26.064.356-4.466.49-8.931.668-13.396 1.409-27.445 3.872-54.845 7.847-82.052 2.166-15.71 4.644-31.376 6.988-47.057.281-1.898.519-3.812.637-5.726l-.089-.059Zm35.026 7.432c.267 1.439.578 2.893 1.038 4.302 3.041 8.946 5.563 18.114 6.809 27.504.356 3.739.623 7.551.06 11.29-.208 1.913-1.87 3.679-3.902 3.471-5.504-.564-9.39-5.949-15.102-5.726-4.228.326-6.75 4.302-8.767 7.565-5.623 10.281-11.216 20.621-15.532 31.539-1.514 4.006-3.279 7.982-3.932 12.239.727-1.246 1.395-2.522 1.884-3.872 1.884-5.281 4.124-10.429 6.587-15.473 4.317-8.708 8.649-17.445 13.871-25.664 1.468-2.181 3.501-4.732 6.423-4.51 5.103.757 8.871 5.059 14.004 5.771 1.706.297 3.531-.371 4.555-1.81 2.062-2.596 1.854-6.112 1.913-9.242-.193-11.423-3.619-22.504-7.58-33.126-.549-1.543-1.365-2.952-2.329-4.258Zm55.378 34.773c-7.758 7.136-13.485 16.23-17.757 25.813-4.421 9.598-7.388 19.819-9.272 30.204-1.899 10.74-2.641 21.718-1.602 32.592.237 1.736-.059 3.902 1.617 5.029.237-3.827-.386-7.625-.46-11.438a134.674 134.674 0 0 1 9.821-52.871c3.59-8.605 8.248-16.868 14.345-23.959 2.389-2.922 5.652-5.043 7.803-8.188-1.661.637-3.219 1.542-4.495 2.788v.03Zm-98.518 101.204.178 1.943c2.062.312 4.139.801 6.23.49.861-.104 1.558-.772 1.321-1.662-2.329-1.424-5.163-1.216-7.729-.771Zm1.543 37.606c-1.232.445-2.359 1.706-1.959 3.086.401 2.611 4.54 2.641 5.489.43.742-2.017-1.528-4.317-3.53-3.516Zm88.831 6.379c-2.804.787-5.86 1.202-8.144 3.175 3.797.356 7.58-.415 11.378-.386 13.262.06 26.465 3.813 37.77 10.741.296-.149.89-.46 1.186-.608-4.064-3.991-9.672-5.756-14.924-7.626-8.722-3.07-18.054-3.886-27.251-3.693 1.765-.876 3.634-1.558 5.593-1.825 8.441-1.276 17.119-1.751 25.545-.104 3.472.653 6.691 2.166 10.147 2.908-.712-.935-1.468-1.929-2.596-2.344-7.121-3.056-15.057-3.249-22.682-2.967-5.445.178-10.8 1.32-16.037 2.729h.015ZM267.163 468.65c0 .43-.014 1.276-.014 1.706 3.011-.059 6.364.757 9.034-1.053-2.908-1.009-5.993-.772-9.02-.638v-.015ZM48.792 196.074c1.128-6.364 1.335-13.04 4.035-19.004 2.418 2.507 5.549 4.154 8.901 5 8.96 2.982 18.173 5.311 27.578 6.201 3.783.534 7.67-.104 10.993-2.047.727 6.141.089 12.312.223 18.469 1.424 1.127 2.922 2.27 3.782 3.916 1.202 2.24 1.662 4.777 2.062 7.269 1.083 7.566 1.825 15.206 2.433 22.831 0 4.703.861 9.346 1.365 14.005.742 5.948 1.365 11.912 2.433 17.816-16.437.03-32.874-.059-49.311-.059-10.978-.089-21.97.163-32.948-.059l-.06-.905a13.427 13.427 0 0 1 .074-2.315 5065.114 5065.114 0 0 1 9.124-57.663c.593-3.16 1.053-6.512 3.026-9.168 1.573-2.092 4.05-3.145 6.305-4.302l-.015.015Zm1.053 2.359c1.024.964 2.107 1.899 3.368 2.581 7.877 4.183 16.482 6.868 25.234 8.53 6.26 1.009 12.729 1.617 19.004.475.979-.074 1.632-.816 2.24-1.499-4.599.06-9.183.831-13.782.356-11.245-.919-22.297-4.153-32.325-9.316-1.187-.534-2.463-.831-3.739-1.113v-.014ZM201.177 165.099c4.762-2.715 10.118-4.02 15.206-5.919l.415.059c.49 4.807.698 9.687 0 14.479-2.596 5.37-4.984 10.844-7.061 16.437l-.178.519c-3.323 8.738-5.845 17.758-8.278 26.777-5.177 19.731-8.812 39.876-10.963 60.156-.771-2.626-1.854-5.86-4.732-6.78-3.368-.727-6.824-.237-10.236-.297-10.681-.029-21.348.089-32.029-.029 2.181-12.462 4.035-25.042 4.05-37.711 0-1.29-.163-2.581-.252-3.871-.757 1.824-1.113 3.797-1.157 5.77-.252 7.255-1.202 14.479-2.255 21.659-.668 4.718-1.751 9.391-2.196 14.138-9.049.059-18.098.015-27.133.015-.964-7.566-1.943-15.117-2.848-22.683-.341-3.397-.697-6.794-1.602-10.087 5.949-7.982 12.12-15.8 18.38-23.529 4.584-5.444 9.272-10.844 14.598-15.591 2.18-1.973 4.643-3.59 7.284-4.881 9.375-4.613 19.122-8.5 29.15-11.512 1.78-.563 3.813-.994 4.925-2.655 4.466-6.008 10.251-11.008 16.883-14.479l.029.015Zm-27.608 26.984c-3.189 4.97-5.696 10.355-7.951 15.815-.979 2.492-1.943 5.251-1.216 7.936.37 1.35 1.809 1.973 3.055 2.225 3.798.668 7.462-1.513 11.245-.845 1.469.786 2.003 2.507 2.448 3.99 1.009 3.976 1.395 8.071 1.854 12.15.653 6.379 1.514 12.758 2.255 19.122.164 1.514.594 2.982 1.113 4.406.43-3.99-.267-7.966-.623-11.927-.712-7.581-1.128-15.22-2.062-22.771-.43-2.715-.979-6.023-3.679-7.403-4.332-1.602-9.183 2.284-13.307-.163-.415-2.76.756-5.415 1.765-7.907 1.958-4.851 4.273-9.554 6.795-14.138 1.453-2.626 3.308-5.014 4.702-7.684-2.922 1.587-4.613 4.524-6.408 7.18l.014.014Z" fill="#6A86C4"/><path d="m216.827 173.719.49-.03c-.238 3.353-.594 6.765.163 10.088.905 4.02 3.53 7.595 7.076 9.702 6.26 3.812 13.9 4.703 21.08 3.827 10.4-1.186 20.191-6.601 26.807-14.701.341 4.154-.341 8.307-1.291 12.343-.326 1.394-1.023 2.729-2.21 3.575-7.328 5.533-16.482 8.218-25.575 8.738-9.183.519-18.648-2.077-25.917-7.818-3.249-2.478-4.762-6.468-7.684-9.257 2.062-5.593 4.45-11.067 7.061-16.438v-.029Z" fill="#E9E9E9"/><path d="M272.446 182.589c1.691-2.656 3.041-5.534 3.887-8.575-.119 1.914-.356 3.827-.638 5.726-2.329 15.681-4.821 31.346-6.987 47.057-3.976 27.192-6.439 54.592-7.848 82.051-.193 4.466-.311 8.931-.668 13.396-.697 8.679-.593 17.387-1.275 26.065-.327 5.059-.312 10.118-.564 15.176-.178 9.554-.949 19.078-.979 28.632h-8.634c.445-3.531.386-7.106.4-10.652 1.172-23.009 2.226-46.018 4.317-68.967 2.404-27.148 5.934-54.207 10.652-81.043.771-4.925 1.706-9.821 2.744-14.702 1.172-5.444 1.81-10.977 3.086-16.407-4.836 2.685-9.821 5.237-15.161 6.75-7.64 2.092-15.814 2.64-23.528.653-4.851-1.172-9.673-2.997-13.545-6.246-3.486-2.908-7.076-6.245-8.1-10.844l.178-.519c2.923 2.788 4.436 6.779 7.685 9.256 7.254 5.742 16.734 8.338 25.917 7.818 9.093-.519 18.232-3.204 25.575-8.737 1.187-.846 1.899-2.181 2.21-3.575.965-4.036 1.632-8.189 1.291-12.343l-.015.03Z" fill="#BFBFBF"/><path d="M52.816 177.07c2.848-.816 5.83-1.009 8.782-.786.104 1.929.104 3.842.104 5.771-3.353-.846-6.483-2.478-8.901-5l.015.015ZM89.295 188.256c.46-2.24.89-4.539 1.854-6.631 3.264.831 7.759.861 9.139 4.599-3.323 1.929-7.21 2.581-10.993 2.047v-.015Z" fill="#4B5A7D"/><path d="M311.369 181.461c.95 1.32 1.781 2.729 2.33 4.272 3.975 10.622 7.387 21.704 7.58 33.127-.059 3.13.149 6.646-1.913 9.242-1.024 1.424-2.849 2.092-4.555 1.81-5.118-.712-8.901-5.029-14.004-5.771-2.922-.237-4.955 2.329-6.438 4.51-5.222 8.203-9.554 16.941-13.871 25.664-2.448 5.029-4.703 10.177-6.587 15.473-.489 1.35-1.157 2.641-1.884 3.872.668-4.258 2.418-8.234 3.932-12.239 4.317-10.918 9.909-21.258 15.532-31.539 2.017-3.278 4.524-7.239 8.767-7.566 5.697-.222 9.584 5.163 15.102 5.726 2.032.208 3.694-1.542 3.902-3.471.563-3.738.296-7.551-.06-11.289-1.246-9.391-3.768-18.544-6.809-27.504-.46-1.409-.786-2.848-1.038-4.302l.014-.015ZM173.585 192.083c1.795-2.655 3.486-5.608 6.409-7.18-1.395 2.67-3.249 5.059-4.703 7.684-2.522 4.584-4.836 9.287-6.794 14.138-1.009 2.507-2.166 5.148-1.766 7.907 4.139 2.433 8.99-1.454 13.307.163 2.7 1.365 3.249 4.688 3.679 7.388.935 7.566 1.336 15.191 2.063 22.772.356 3.96 1.053 7.936.623 11.927-.534-1.424-.95-2.893-1.113-4.406-.742-6.379-1.602-12.743-2.255-19.122-.46-4.08-.846-8.174-1.854-12.15-.445-1.498-.979-3.219-2.448-3.991-3.783-.667-7.462 1.513-11.245.846-1.261-.252-2.7-.875-3.056-2.225-.727-2.685.252-5.445 1.217-7.937 2.254-5.459 4.762-10.83 7.951-15.814h-.015Z" fill="#3D5B9C"/><path d="M201.325 217.451c2.433-9.02 4.941-18.039 8.278-26.777 1.024 4.614 4.629 7.952 8.1 10.844 3.857 3.249 8.679 5.059 13.544 6.246 7.715 1.988 15.904 1.454 23.529-.653 5.34-1.513 10.325-4.065 15.161-6.75-1.276 5.43-1.899 10.963-3.086 16.408-1.038 4.88-1.973 9.776-2.744 14.701-4.718 26.836-8.248 53.895-10.652 81.043-2.091 22.95-3.145 45.973-4.317 68.968 0 3.545.045 7.12-.4 10.651-9.094-.089-18.188.208-27.282-.193-1.394-3.887-2.373-7.877-3.456-11.853-6.987-25.071-13.648-50.231-20.472-75.361-2.359-9.049-5.014-18.039-7.18-27.133 2.151-20.28 5.785-40.425 10.963-60.156l.014.015Z" fill="#E9E9E9"/><path d="M49.83 198.433c1.275.282 2.55.579 3.738 1.113 10.013 5.163 21.08 8.397 32.325 9.316 4.599.475 9.183-.296 13.782-.356-.609.683-1.261 1.424-2.24 1.513-6.29 1.128-12.744.52-19.019-.489-8.738-1.662-17.357-4.332-25.234-8.53-1.261-.668-2.33-1.617-3.367-2.581l.014.014ZM366.751 216.235c1.276-1.261 2.833-2.151 4.495-2.789-2.151 3.13-5.415 5.251-7.803 8.188-6.097 7.092-10.756 15.34-14.346 23.959a134.673 134.673 0 0 0-9.82 52.871c.074 3.813.697 7.611.46 11.438-1.677-1.127-1.395-3.293-1.617-5.029-1.039-10.874-.297-21.867 1.602-32.592 1.884-10.385 4.851-20.606 9.272-30.204 4.272-9.583 9.998-18.677 17.757-25.813v-.029ZM146.009 234.704c.03-1.988.401-3.946 1.157-5.771.089 1.276.252 2.582.252 3.872 0 12.669-1.869 25.249-4.05 37.711h-1.809c.459-4.762 1.528-9.421 2.195-14.138 1.068-7.18 2.018-14.39 2.255-21.659v-.015ZM108.783 238.71c.297-.253.89-.727 1.172-.965.89 3.294 1.261 6.706 1.602 10.103.89 7.566 1.87 15.132 2.849 22.683h-1.81c-1.068-5.905-1.677-11.868-2.433-17.817-.519-4.658-1.365-9.302-1.365-14.004h-.015Z" fill="#3D5B9C"/><path d="M16.199 271.095c3.679-.875 7.714-.623 10.948-.683.757-.044 2.581 0 3.175 0 10.978.208 21.97-.044 32.948.06 16.437 0 32.874.089 49.311.044h1.81c9.049 0 18.084.03 27.133-.015h1.81c10.681.119 21.347 0 32.029.03 3.397.059 6.868-.43 10.236.297 2.892.92 3.961 4.154 4.732 6.779 2.166 9.109 4.821 18.084 7.18 27.133 6.824 25.116 13.5 50.276 20.472 75.347 1.083 3.961 2.062 7.966 3.457 11.853a67.245 67.245 0 0 1 1.009 3.041c.83 2.492 1.008 5.163.652 7.759-.608.296-1.201.608-1.81.905a735.28 735.28 0 0 0-8.307-30.798c-2.641-9.894-5.222-19.789-8.07-29.64-5.133-19.537-10.548-38.986-15.829-58.479-.979-3.531-1.632-7.506-4.495-10.073-1.498-1.468-3.679-1.765-5.697-1.824-51.121.133-102.257-.03-153.378.074-3.99-.149-8.01-.03-11.927.89.816-.95 1.498-2.077 2.596-2.7h.015Z" fill="#DFE5E9"/><path d="M13.605 273.809c3.917-.92 7.922-1.038 11.928-.89 51.12-.104 102.257.059 153.378-.074 2.003.044 4.183.356 5.696 1.824 2.864 2.567 3.516 6.543 4.495 10.073 5.282 19.508 10.696 38.957 15.829 58.494 2.849 9.836 5.445 19.746 8.07 29.641a713.932 713.932 0 0 1 8.308 30.797c-2.655 1.394-5.726 1.216-8.619.964-5.845-.534-11.705-.178-17.55-.356-3.189-.104-6.394-.03-9.553.371-2.359-5.356-4.288-11.275-8.946-15.147-1.498-1.35-3.931-2.24-5.697-.86-1.483 1.246-1.082 3.412-.993 5.118.029.252.103.771.133 1.024.49 3.115 1.187 6.171 2.032 9.197-.904.149-1.809.297-2.714.46-2.404-5.489-3.917-11.512-7.596-16.363-1.75-2.462-5.637-3.53-8.1-1.557-1.439 1.765-.905 4.302-.949 6.423v.594c-1.884-.06-3.902-.52-5.726.237-1.321.801-1.069 2.552-1.083 3.887.415 1.528.875 3.041 1.305 4.569.163.564.326 1.127.49 1.706-13.04.549-26.08.104-39.135.207-16.897.015-33.809.001-50.72.06-1.691 0-3.383-.03-5.074-.163-1.706-.831-3.427-1.973-4.198-3.783-1.35-3.353-1.395-4.54-2.804-8.486-.06-.4-.49-1.839-.83-3.56-1.173-5.43-2.73-9.049-4.199-14.405-3.516-12.343-7.017-24.685-10.637-36.983-2.032-6.676-3.708-13.47-5.948-20.087-.594-2.359-1.261-4.688-1.944-7.017-2.863-9.88-5.652-19.789-8.53-29.669-.593-2.048-.326-4.184-.104-6.261h-.015v.015Zm94.054 55.631c-3.353.297-6.676 1.914-8.605 4.732-2.566 3.561-2.64 8.486-.86 12.402 3.115 7.403 12.714 11.601 20.087 8.026 4.628-1.899 7.283-7.329 6.171-12.18-1.528-7.506-9.035-13.662-16.808-12.995l.015.015Z" fill="#B2B7BF"/><path d="M318.627 106.827c-.223-5.089 4.347-9.88 9.45-9.554h.059c33.468 0 73.7.044 107.271-.015 0 3.472.979 7.076 3.398 9.762 2.329 2.818 5.815 4.361 9.316 4.776.059 6.646.044 9.48.044 12.299 0 2.922-.029 5.844.03 12.98.015 2.641-.148 5.222-1.543 7.254v.03c-1.721 2.7-4.88 4.272-8.1 4.376h-.667c-27.504-.015-61.862.045-89.366-.029-1.691-.104-3.071.563-4.242 1.379-.594.416-1.158.876-1.692 1.306-.549.445-1.053.86-1.572 1.201-1.988 1.41-3.917 2.908-5.815 4.377-1.543 1.172-3.071 2.329-4.659 3.397.164-3.56.801-7.062 1.232-10.696l.089-.786-.787-.045c-1.335-.074-2.581-.089-3.842-.237-1.083-.134-2.092-.371-3.011-.816l-.386-.208c-3.071-1.81-5.266-5.162-5.133-8.693v-.03c0-8.144.015-12.075.015-16.007l-.03-16.006-.059-.015Z" fill="#D2E2FE" stroke="url(#d)"/><path d="M439.561 125.105c0 .341-.119.638-.386.89a1.22 1.22 0 0 1-.89.371c-.356 0-.668-.119-.92-.371a1.223 1.223 0 0 1-.371-.89c0-.356.119-.638.371-.89.252-.238.564-.371.92-.371.356 0 .638.118.89.371.252.237.386.534.386.89Zm-.772-2.7h-1.009c-.029-.178-.059-.49-.089-.92-.029-.445-.074-.949-.118-1.513-.045-.564-.089-1.157-.134-1.751-.044-.608-.089-1.172-.133-1.706-.03-.534-.074-.979-.104-1.32-.03-.356-.03-.579-.03-.638 0-.311.104-.564.327-.756a1.13 1.13 0 0 1 .801-.312c.311 0 .578.104.786.312.222.192.326.445.326.756 0 .074 0 .282-.029.638-.03.341-.06.786-.104 1.32-.03.534-.074 1.098-.119 1.706-.044.609-.089 1.187-.133 1.751-.045.564-.089 1.068-.119 1.513-.03.43-.059.742-.089.92h-.03ZM430.688 126.453c-.92 0-1.735-.192-2.448-.593a4.286 4.286 0 0 1-1.661-1.632c-.401-.697-.608-1.498-.608-2.403s.207-1.691.608-2.374c.4-.697.964-1.231 1.661-1.632.713-.4 1.528-.593 2.448-.593.92 0 1.736.193 2.448.593.712.401 1.276.935 1.661 1.632.401.698.609 1.484.609 2.374 0 .89-.208 1.706-.609 2.403-.385.697-.949 1.231-1.661 1.632-.712.401-1.528.593-2.448.593Zm0-1.631c.549 0 1.024-.134 1.424-.386a2.63 2.63 0 0 0 .935-1.039c.237-.445.341-.979.341-1.557 0-.579-.118-1.083-.341-1.528a2.588 2.588 0 0 0-.935-1.054c-.4-.252-.875-.385-1.424-.385-.549 0-.994.133-1.409.385a2.622 2.622 0 0 0-.95 1.054c-.222.445-.326.949-.326 1.528 0 .578.104 1.112.326 1.557.238.445.549.787.95 1.039.4.252.875.386 1.409.386ZM420.217 126.172v-8.026h1.943v8.026h-1.943Zm-3.041-7.076v-1.588h8.011v1.588h-8.011ZM411.685 126.453a5.133 5.133 0 0 1-2.151-.445 4.698 4.698 0 0 1-1.632-1.261l1.217-1.187c.297.415.638.742 1.053.979.43.237.92.341 1.454.341.875 0 1.558-.267 2.047-.816.49-.549.727-1.275.727-2.21s-.252-1.676-.742-2.225c-.489-.549-1.157-.816-2.017-.816-.564 0-1.039.118-1.454.341a3.04 3.04 0 0 0-1.039.949l-1.201-1.157a4.475 4.475 0 0 1 1.617-1.261c.638-.296 1.35-.445 2.151-.445.92 0 1.721.193 2.418.594a4.016 4.016 0 0 1 1.647 1.617c.4.682.608 1.483.608 2.403 0 .92-.193 1.721-.593 2.433a4.217 4.217 0 0 1-1.647 1.617c-.712.386-1.528.578-2.463.578v-.029Zm-1.78-4.006v-1.35h5.682v1.35h-5.682ZM394.033 126.172v-1.617h.623c.312 0 .549-.074.698-.223.163-.148.252-.415.281-.786l.564-6.038h6.602v8.664h-1.944v-8.352l1.395 1.261h-5.682l1.469-1.261-.594 6.112c-.074.83-.311 1.424-.697 1.75-.386.327-.964.49-1.751.49h-.964ZM392.726 126.172h-1.795v-1.721l-.089-.371v-3.249c0-.653-.207-1.157-.623-1.513-.415-.371-.979-.549-1.706-.549-.519 0-1.009.104-1.454.311a3.46 3.46 0 0 0-1.142.876l-1.112-1.217a5.273 5.273 0 0 1 1.661-1.112c.638-.267 1.335-.401 2.121-.401.816 0 1.543.148 2.151.43.624.282 1.113.683 1.454 1.217.342.534.52 1.172.52 1.913v5.386h.014Zm-4.865.281c-.668 0-1.247-.118-1.751-.37a2.922 2.922 0 0 1-1.187-.994c-.282-.416-.415-.905-.415-1.454 0-.608.178-1.113.519-1.528.341-.43.831-.757 1.439-.979.623-.238 1.335-.342 2.151-.342h2.433v1.336h-2.255c-.682 0-1.231.118-1.661.37-.416.238-.623.609-.623 1.083 0 .431.163.772.489 1.024.326.237.742.371 1.261.371.519 0 .949-.104 1.38-.312.415-.207.741-.489.994-.845.252-.371.4-.786.43-1.261l.623.297c0 .712-.163 1.335-.49 1.898a3.425 3.425 0 0 1-1.35 1.291c-.578.297-1.246.445-1.973.445l-.014-.03ZM373.871 126.172v-1.617h.623c.312 0 .549-.074.697-.223.164-.148.253-.415.282-.786l.564-6.038h6.602v8.664h-1.944v-8.352l1.395 1.261h-5.682l1.483-1.261-.593 6.112c-.074.83-.312 1.424-.697 1.75-.386.327-.965.49-1.751.49h-.979ZM371.499 123.561l1.113 1.216a4.694 4.694 0 0 1-1.677 1.231c-.667.297-1.424.445-2.24.445-.964 0-1.839-.192-2.581-.593a4.536 4.536 0 0 1-1.751-1.632c-.415-.697-.623-1.483-.623-2.373 0-.891.208-1.706.608-2.404.401-.697.965-1.231 1.662-1.632.712-.4 1.498-.593 2.374-.593.875 0 1.617.193 2.269.593.653.386 1.172.92 1.558 1.603.386.667.579 1.453.579 2.344v.103h-1.929v-.192c0-.579-.104-1.083-.326-1.514a2.36 2.36 0 0 0-2.181-1.379c-.519 0-.979.133-1.395.385-.4.238-.697.594-.919 1.039-.223.445-.327.979-.327 1.602 0 .623.134 1.172.386 1.632.267.46.623.816 1.083 1.083.46.237.994.371 1.602.371 1.098 0 2.003-.445 2.73-1.335h-.015Zm1.291-1.098h-7.715v-1.321h7.433l.282.638v.683ZM353.087 125.357v-.757h.282c.237 0 .43-.045.579-.134.148-.103.267-.281.326-.519.074-.252.148-.608.193-1.053l.593-5.37h6.483v7.58h-1.914v-7.269l1.35 1.261h-5.592l1.528-1.261-.623 5.207c-.06.579-.178 1.039-.342 1.365a1.473 1.473 0 0 1-.741.727c-.327.148-.757.223-1.321.223h-.801Zm-.415 3.145V124.6h10.206v3.902h-1.824v-3.457l1.097 1.127h-8.337l.697-1.127v3.457h-1.839ZM350.461 123.517l1.246 1.216c-.43.534-.949.95-1.587 1.261-.623.297-1.335.445-2.151.445-.89 0-1.691-.193-2.404-.593a4.459 4.459 0 0 1-1.646-1.632c-.401-.697-.608-1.498-.608-2.403s.207-1.677.608-2.359c.4-.697.964-1.231 1.661-1.632.712-.4 1.528-.608 2.433-.608.786 0 1.484.148 2.107.445a4.539 4.539 0 0 1 1.587 1.261l-1.246 1.216a2.766 2.766 0 0 0-.964-.934c-.386-.238-.846-.371-1.395-.371s-1.009.133-1.424.386a2.542 2.542 0 0 0-.964 1.053c-.238.445-.341.949-.341 1.528 0 .578.118 1.098.341 1.543.237.445.564.801.964 1.053.415.252.89.386 1.424.386.534 0 1.009-.119 1.395-.371a3.06 3.06 0 0 0 .964-.935v.045ZM335.642 126.172v-10.711h-2.967c-.712 0-1.275.178-1.676.534-.4.341-.608.831-.608 1.439 0 .608.208 1.098.608 1.454.401.341.964.519 1.676.519h3.145v1.706h-3.145c-.86 0-1.617-.148-2.269-.445-.653-.312-1.157-.742-1.513-1.306-.357-.548-.535-1.201-.535-1.928 0-.727.178-1.38.535-1.929.356-.548.86-.979 1.513-1.29.667-.312 1.424-.475 2.269-.475h4.97v12.417h-2.003v.015Zm-8.144 0 4.183-5.786h2.226l-4.021 5.786H327.498Z" fill="#3A4F73"/><path d="M448.683 110.937c6.972 0 12.625-5.652 12.625-12.624s-5.653-12.625-12.625-12.625-12.624 5.653-12.624 12.625 5.652 12.624 12.624 12.624Z" fill="#6683C2" stroke="#fff" stroke-width="1.71"/><path d="M448.163 91.563h1.914v13.634h-2.181V93.863l-3.457 2.477v-2.225l3.724-2.552Z" fill="#fff"/></g><defs><linearGradient id="b" x1="320.021" y1="29.092" x2="400.056" y2="153.245" gradientUnits="userSpaceOnUse"><stop stop-color="#fff"/><stop offset="1" stop-color="#fff" stop-opacity="0"/></linearGradient><linearGradient id="d" x1="320.021" y1="29.092" x2="400.056" y2="153.245" gradientUnits="userSpaceOnUse"><stop stop-color="#fff"/><stop offset="1" stop-color="#fff" stop-opacity="0"/></linearGradient><clipPath id="a"><rect x=".191" y="28.738" width="447.841" height="449.038" rx="223.921" fill="#fff"/></clipPath><clipPath id="c"><path fill="#fff" transform="translate(.191)" d="M0 0h467v277.805H0z"/></clipPath></defs></svg>