<svg width="50" height="50" viewBox="0 0 50 50" fill="none" xmlns="http://www.w3.org/2000/svg">
<circle cx="25" cy="25" r="25" fill="#F37E60"/>
<path d="M36.3526 29.6407C36.8755 28.9738 37.1262 28.2588 37.0942 27.5226C37.0622 26.7116 36.6994 26.0766 36.4006 25.6871C36.7474 24.8228 36.8808 23.4623 35.723 22.4058C34.8747 21.6322 33.4341 21.2854 31.4386 21.3814C30.0354 21.4454 28.8616 21.7069 28.8136 21.7176H28.8082C28.5414 21.7656 28.2587 21.8243 27.9705 21.8883C27.9492 21.5468 28.0079 20.6985 28.6375 18.7884C29.3844 16.5155 29.3418 14.7761 28.4988 13.613C27.6131 12.3911 26.1992 12.2951 25.783 12.2951C25.3828 12.2951 25.0147 12.4605 24.7533 12.7646C24.161 13.4529 24.2304 14.7227 24.3051 15.3096C23.6008 17.1984 21.6267 21.8296 19.9567 23.1154C19.9247 23.1368 19.898 23.1635 19.8713 23.1901C19.3804 23.7077 19.0496 24.2679 18.8255 24.7588C18.5107 24.588 18.1533 24.492 17.7691 24.492H14.5145C13.2873 24.492 12.2949 25.4897 12.2949 26.7116V35.3817C12.2949 36.6089 13.2927 37.6013 14.5145 37.6013H17.7691C18.244 37.6013 18.6868 37.4519 19.0496 37.1958L20.3035 37.3452C20.4955 37.3718 23.9103 37.804 27.4157 37.7346C28.0506 37.7827 28.6482 37.8093 29.203 37.8093C30.1581 37.8093 30.9904 37.7346 31.684 37.5853C33.3167 37.2385 34.4318 36.5448 34.9974 35.5258C35.4295 34.7468 35.4295 33.9731 35.3602 33.4823C36.4219 32.5219 36.6087 31.4601 36.5713 30.7132C36.55 30.281 36.454 29.9128 36.3526 29.6407ZM14.5145 36.1607C14.0823 36.1607 13.7355 35.8085 13.7355 35.3817V26.7062C13.7355 26.274 14.0876 25.9272 14.5145 25.9272H17.7691C18.2013 25.9272 18.5481 26.2794 18.5481 26.7062V35.3764C18.5481 35.8085 18.196 36.1553 17.7691 36.1553H14.5145V36.1607ZM34.9867 29.0165C34.7626 29.2512 34.7199 29.6087 34.8907 29.8862C34.8907 29.8915 35.1094 30.265 35.1361 30.7772C35.1734 31.4761 34.8373 32.0951 34.133 32.6233C33.8823 32.8153 33.7809 33.1461 33.8876 33.4449C33.8876 33.4503 34.117 34.1545 33.7435 34.8215C33.3861 35.4617 32.5911 35.9206 31.3853 36.1767C30.4195 36.3848 29.107 36.4221 27.4957 36.2941H27.421C23.9903 36.3688 20.5222 35.9206 20.4849 35.9153H20.4795L19.9407 35.8512C19.9727 35.7018 19.9887 35.5418 19.9887 35.3817V26.7062C19.9887 26.4768 19.9513 26.2527 19.8873 26.0446C19.9833 25.6871 20.2501 24.8922 20.8797 24.2146C23.2753 22.3151 25.6176 15.9072 25.719 15.6298C25.7617 15.5177 25.7723 15.395 25.751 15.2723C25.6603 14.6747 25.6923 13.9438 25.8203 13.725C26.1031 13.7303 26.8661 13.8104 27.325 14.4453C27.8692 15.1976 27.8478 16.5421 27.2609 18.3242C26.3646 21.0399 26.2899 22.4699 26.9995 23.0994C27.3516 23.4142 27.8212 23.4302 28.1626 23.3075C28.4881 23.2328 28.7975 23.1688 29.091 23.1208C29.1123 23.1154 29.139 23.1101 29.1604 23.1048C30.7983 22.7473 33.7329 22.5285 34.7519 23.4569C35.6163 24.2466 35.0027 25.2923 34.9333 25.4044C34.7359 25.7032 34.7946 26.0926 35.0614 26.3327C35.0667 26.3381 35.627 26.8663 35.6536 27.5759C35.675 28.0508 35.4509 28.5363 34.9867 29.0165Z" fill="white"/>
</svg>
