<svg width="50" height="50" viewBox="0 0 50 50" fill="none" xmlns="http://www.w3.org/2000/svg">
<circle cx="25" cy="25" r="25" fill="#F37E60"/>
<g clip-path="url(#clip0_133_408)">
<path d="M24.5008 25.8667C21.9995 26.0623 19.8101 24.2271 19.6087 21.766C19.4072 19.305 21.27 17.1486 23.7708 16.9479C26.2753 16.7468 28.4707 18.583 28.6724 21.0477C28.8741 23.5125 27.0057 25.6708 24.5008 25.8667ZM23.9625 18.412C22.2755 18.5074 20.9903 19.9362 21.0989 21.5955C21.2075 23.2547 22.6685 24.5095 24.3539 24.391C26.0228 24.2737 27.2827 22.8533 27.1751 21.2103C27.0676 19.5674 25.6329 18.3177 23.9625 18.412Z" fill="white"/>
<path d="M18.6956 31.7744C17.13 30.5995 15.4765 29.5385 13.92 28.3524C13.2203 27.8191 12.9255 27.174 12.5102 26.4286L11.0666 23.8026C10.4865 22.7519 9.79851 21.7264 9.28495 20.6435C8.58504 19.1679 9.65647 17.6028 11.2174 17.4226C12.9283 17.3233 13.4558 18.8576 14.1555 20.0653L15.798 22.8736C16.515 24.1033 16.3455 23.8511 17.5058 24.5934C19.6912 25.9916 19.6181 26.5571 22.0668 26.5668L24.8731 26.5663C27.1401 26.5649 29.1515 26.3993 30.6468 28.3785C30.9855 28.8267 31.1979 29.4267 31.441 29.9332L32.7619 32.643C33.7068 34.5584 34.7181 36.4421 35.6599 38.3592C36.0827 39.2199 36.6189 40.0001 36.2292 40.9997C35.6076 42.5941 33.338 42.8773 32.2661 41.5475C31.9467 41.1514 31.7665 40.66 31.5414 40.2093C30.9277 38.9806 30.209 37.7858 29.6485 36.5354C29.5815 39.4945 29.7412 42.4558 29.8987 45.4095L30.2623 52.3233C30.3006 52.9998 30.48 53.9623 30.2095 54.6077C29.5662 56.1423 28.0764 56.745 26.5139 56.1007C24.7889 55.2775 24.9559 53.8391 24.8387 52.2026L24.3135 44.9619C24.2622 44.2815 24.2399 43.072 24.0203 42.4729C24.1415 44.3263 23.8039 46.9642 23.6853 48.8512L23.4697 52.1447C23.4275 52.8328 23.432 53.5681 23.295 54.2438C22.7088 57.1343 18.3288 56.9399 18.0213 54.117C17.937 53.343 18.0485 52.5161 18.0877 51.7395L18.3713 46.7311C18.4739 44.8446 18.6344 42.9508 18.6883 41.0631C18.7721 38.1283 18.8018 34.7201 18.6956 31.7744ZM11.2174 18.9039C10.8307 19.0793 10.6253 19.2696 10.5462 19.6777C10.7916 20.5725 11.9513 22.3042 12.4295 23.1723L13.3704 24.8809C14.497 26.9718 14.3122 26.8521 16.2572 28.2072L18.7923 29.9784C20.5035 31.1723 20.2571 30.948 20.2517 32.8798L20.2506 35.323C20.2508 39.6498 20.0647 43.5094 19.8228 47.8304L19.5881 51.9C19.5513 52.5079 19.4345 53.1717 19.478 53.7767C19.5576 54.8852 21.116 55.3314 21.6939 54.3011C22.0367 53.69 21.9852 51.528 22.0384 50.7537L22.5575 43.3889C22.6085 42.7194 22.4028 41.0641 23.2147 40.7909C23.6274 40.6518 24.8318 40.664 25.1972 40.8654C25.6939 41.1392 25.6086 42.0633 25.6432 42.5411L26.2836 51.1855C26.3539 52.269 26.0842 55.361 28.0159 54.8703C29.5099 54.2862 28.6763 51.5203 28.5949 50.1254L28.3899 46.1048C28.2694 43.8659 28.1905 41.8237 28.2119 39.5876L28.2131 34.6781C28.2135 34.1329 28.0372 32.2969 29.2064 32.7723C29.7956 33.012 30.2202 34.4236 30.4908 34.9566C30.8144 35.594 33.2915 40.5506 33.6303 40.8134C34.0106 41.1085 34.6244 40.8949 34.8197 40.4873C35.0734 39.9573 33.904 38.192 33.647 37.6968C33.0326 36.5128 32.4394 35.3133 31.8432 34.1201L30.1911 30.736C28.8012 27.9125 28.5351 28.0403 25.097 28.0415L21.7651 28.0443C19.8594 28.0455 20.1566 28.0466 18.5786 27.0648L16.1701 25.5427C15.7916 25.3017 15.4962 25.1798 15.2317 24.8007C14.4169 23.6331 13.4574 21.8789 12.7539 20.6241C12.4111 20.0128 12.0973 18.831 11.2174 18.9039Z" fill="white"/>
<path d="M30.2496 24.6668L30.248 17.3301C30.2479 15.8737 30.4627 14.5366 32.3327 14.3422C33.7888 14.3228 35.248 14.3424 36.7046 14.3416L38.0192 14.3413C39.6126 14.3415 40.8315 14.8241 40.8504 16.7044L40.8513 19.5036C40.8514 20.5515 41.0426 21.6042 40.2228 22.4167C39.3963 23.2358 38.2518 23.0716 37.1819 23.0691C36.5861 23.0687 32.9317 23.0116 32.6672 23.1142C32.2519 23.2753 30.6813 24.3707 30.2496 24.6668ZM34.9948 15.4559L33.2504 15.4547C31.8179 15.4536 31.3912 15.4601 31.3913 17.1295L31.3936 22.5679C32.6973 21.9663 31.8896 22.0002 33.5156 22.0018L35.6911 22.0023L37.6304 22.0048C38.726 22.0057 39.7318 22.093 39.7318 20.7177L39.7305 17.7783C39.7288 15.6968 39.9252 15.4544 37.5057 15.4549L34.9948 15.4559Z" fill="white"/>
<path d="M34.991 19.392C35.0452 18.5113 35.6015 18.4785 35.9859 17.9353C36.1457 17.7093 36.1123 17.3286 35.8623 17.1752C35.346 16.8582 34.9215 17.593 34.4286 17.2784C33.5572 16.722 34.7155 16.2146 35.3285 16.1704C36.377 16.105 37.4312 16.8465 37.1443 17.9487C36.9858 18.5575 36.3872 18.6988 36.0236 19.1326C35.9073 19.271 35.9778 19.4683 35.8802 19.5985C35.7966 19.71 35.0366 19.8665 34.991 19.392Z" fill="white"/>
<path d="M35.6403 21.0509C35.352 21.1411 35.0438 20.9859 34.9495 20.7031C34.8552 20.4203 35.01 20.1156 35.2965 20.0202C35.5868 19.9235 35.9015 20.0783 35.9971 20.3648C36.0926 20.6514 35.9324 20.9596 35.6403 21.0509Z" fill="white"/>
</g>
<defs>
<clipPath id="clip0_133_408">
<rect width="33" height="24" fill="white" transform="translate(9 13)"/>
</clipPath>
</defs>
</svg>
