<svg width="50" height="50" viewBox="0 0 50 50" fill="none" xmlns="http://www.w3.org/2000/svg">
<circle cx="25" cy="25" r="25" fill="#F37E60"/>
<path d="M25.5 10.5C25.5353 10.5001 25.5726 10.5186 25.5938 10.5469L25.5957 10.5498L29.6494 15.8672V15.8682C29.68 15.909 29.6833 15.9615 29.6641 16C29.6419 16.0441 29.6006 16.0702 29.5488 16.0703H28.0068V26.2549C26.7452 24.3504 25.0144 22.7851 22.9844 21.7197V16.0703H21.4434C21.4026 16.0703 21.3572 16.0465 21.3301 16.002C21.3047 15.9389 21.321 15.8944 21.334 15.8779L21.3398 15.8711L25.3965 10.5498L25.3984 10.5469C25.4157 10.5239 25.4578 10.5 25.5 10.5Z" stroke="white"/>
<path d="M15.79 20.762C15.8161 20.7598 15.8431 20.7646 15.8652 20.7747C15.907 20.7973 15.9316 20.8376 15.9316 20.8879V22.429H16.7402C22.9564 22.429 28.0086 27.4944 28.0088 33.7122V39.2668C28.0089 39.2829 28.0051 39.2989 27.999 39.3137C27.9929 39.3286 27.984 39.3424 27.9727 39.3538C27.9613 39.3652 27.9475 39.374 27.9326 39.3801C27.9177 39.3863 27.9019 39.39 27.8857 39.3899H23.1084C23.0924 39.39 23.0763 39.3862 23.0615 39.3801C23.0467 39.374 23.0329 39.3651 23.0215 39.3538C23.0101 39.3424 23.0013 39.3286 22.9951 39.3137C22.989 39.2989 22.9853 39.2829 22.9854 39.2668V33.2571C22.9851 30.0588 20.3866 27.4514 17.1797 27.4514H15.9316V28.9934C15.9315 29.0452 15.9055 29.0865 15.8613 29.1086C15.8118 29.1334 15.766 29.123 15.7393 29.1018L15.7324 29.0969L10.4111 25.0403L10.4092 25.0393L10.374 24.9963C10.366 24.9802 10.3617 24.9625 10.3613 24.9446C10.3613 24.8962 10.3766 24.8675 10.4111 24.8411L15.7324 20.7844L15.7393 20.7786C15.7475 20.772 15.764 20.7642 15.79 20.762ZM35.2617 20.7786L35.2695 20.7844L40.5859 24.8381C40.626 24.8722 40.6402 24.9074 40.6406 24.9426C40.6406 24.9613 40.6353 24.9796 40.627 24.9963C40.6186 25.013 40.6066 25.0281 40.5918 25.0393L40.5898 25.0403L35.2695 29.0969L35.2617 29.1018C35.2331 29.1244 35.1825 29.1303 35.1465 29.1116L35.1406 29.1086L35.1104 29.0881C35.0846 29.0648 35.0694 29.0321 35.0693 28.9934V27.4514H33.8213C32.4851 27.4515 31.2507 27.908 30.2656 28.6731V23.1653C31.5292 22.684 32.8823 22.429 34.2686 22.429H35.0693V20.8879C35.0693 20.8476 35.0929 20.8019 35.1367 20.7747C35.2002 20.7486 35.245 20.7655 35.2617 20.7786Z" stroke="white"/>
</svg>
