<svg width="50" height="50" viewBox="0 0 50 50" fill="none" xmlns="http://www.w3.org/2000/svg">
<circle cx="25" cy="25" r="25" fill="#F37E60"/>
<path d="M35.2588 26.1455C35.8799 25.5872 36.8194 25.5414 37.4922 26.0361L37.6484 26.166C38.3853 26.8478 38.4122 28.028 37.6699 28.7412L29.5566 36.5352C29.0989 36.9749 28.5371 37.2915 27.9238 37.4551C27.3106 37.6186 26.6657 37.6241 26.0498 37.4707L22.9834 36.707C22.3689 36.554 21.7383 36.4983 21.1074 36.543L18.7119 36.71C18.8934 37.3987 18.5022 38.1123 17.8154 38.3232L15.332 39.0869C14.6255 39.3033 13.881 38.9064 13.665 38.2031L11.3955 30.8164C11.1791 30.1119 11.5743 29.3659 12.2783 29.1494L14.7617 28.3857H14.7627C15.4294 28.1825 16.1342 28.528 16.3896 29.1641H16.3965L16.4287 29.2695L16.4961 29.4912L18.1787 28.7354C19.551 28.1183 21.0515 28.0315 22.4209 28.4082L26.6885 29.582L29.9375 28.9902L30.1836 28.959C30.7158 28.9195 31.2397 29.0701 31.6709 29.3672L35.2588 26.1455ZM15.4863 29.5498C15.4249 29.3678 15.2289 29.2702 15.0518 29.3252L15.0508 29.3262L12.5674 30.0889C12.3816 30.1458 12.2783 30.3418 12.335 30.5273L14.6055 37.9141V37.915C14.619 37.9589 14.6407 37.9998 14.6699 38.0352C14.6992 38.0707 14.7357 38.1005 14.7764 38.1221C14.8169 38.1435 14.8615 38.1568 14.9072 38.1611C14.953 38.1655 14.999 38.16 15.043 38.1465L17.5273 37.3838C17.714 37.3264 17.8165 37.1289 17.7598 36.9453L15.4893 29.5586L15.4863 29.5498ZM36.9102 26.8281C36.6111 26.6081 36.1916 26.6288 35.915 26.877L32.3418 30.085C32.6407 30.6614 32.4279 31.3835 31.8447 31.6992L28.8408 33.3223C28.1452 33.6974 27.3684 33.8974 26.5781 33.9053L25.0234 33.9189H25.0186C24.8892 33.9179 24.7651 33.866 24.6738 33.7744C24.5827 33.6828 24.5308 33.5589 24.5303 33.4297C24.5298 33.3005 24.5805 33.1763 24.6709 33.084C24.7613 32.9917 24.8846 32.9388 25.0137 32.9365H25.0156L26.5684 32.9229L26.8047 32.9131C27.3531 32.8743 27.8876 32.7189 28.373 32.457L31.377 30.834C31.4046 30.8191 31.4291 30.7984 31.4482 30.7734C31.4673 30.7486 31.481 30.7199 31.4883 30.6895C31.4955 30.659 31.4961 30.6274 31.4902 30.5967C31.4844 30.5659 31.4721 30.5365 31.4541 30.5107V30.5098C31.1555 30.0805 30.6277 29.8641 30.1143 29.957L26.7549 30.5684L26.7559 30.5693C26.6828 30.5831 26.6077 30.5796 26.5361 30.5596L22.1602 29.3555C21.0033 29.0374 19.7376 29.112 18.582 29.6318L16.7871 30.4375L18.4189 35.7451L21.0391 35.5625C21.7717 35.511 22.5081 35.5751 23.2207 35.7529L26.2871 36.5166C27.1844 36.7408 28.1708 36.5048 28.876 35.8271L36.9893 28.0322C37.3429 27.6918 37.3031 27.1173 36.9102 26.8281Z" fill="white" stroke="white" stroke-width="0.3"/>
<path d="M24.2363 10.9355C24.7055 10.8037 25.2069 10.8248 25.666 10.999L37.4189 15.4463C37.765 15.5772 37.9892 15.9024 37.9873 16.2725C37.9854 16.6426 37.7584 16.9653 37.4111 17.0928L37.249 17.1514V21.7041C37.249 21.8344 37.1966 21.9596 37.1045 22.0518C37.0125 22.1437 36.8879 22.1952 36.7578 22.1953C36.6275 22.1953 36.5023 22.1438 36.4102 22.0518C36.318 21.9596 36.2656 21.8344 36.2656 21.7041V17.5117L33.6221 18.4805V22.9131C33.622 23.8567 33.0973 24.7213 32.2549 25.1699C27.3845 27.7634 22.4383 27.7628 17.5693 25.1699C16.7273 24.7213 16.2022 23.8568 16.2021 22.9131V18.4805L12.4092 17.0918C12.0622 16.9647 11.8347 16.642 11.832 16.2725C11.8298 15.9031 12.0523 15.5773 12.3975 15.4453L24.0371 11.001L24.2363 10.9355ZM25.7002 21.3848C25.1912 21.5708 24.633 21.5708 24.124 21.3848L17.1855 18.8408V22.9131C17.1856 23.4906 17.5082 24.0231 18.0312 24.3018C22.5996 26.7348 27.2252 26.7348 31.793 24.3018L31.9795 24.1865C32.392 23.89 32.6386 23.4185 32.6387 22.9131V18.8408L25.7002 21.3848ZM25.3174 11.918C25.0179 11.8046 24.6868 11.8046 24.3877 11.9189L13.0068 16.2637L24.4619 20.4619C24.7527 20.5681 25.0715 20.5681 25.3623 20.4619L36.8086 16.2656L25.3174 11.918Z" fill="white" stroke="white" stroke-width="0.3"/>
</svg>
