<svg width="200" height="65" viewBox="0 0 200 65" fill="none" xmlns="http://www.w3.org/2000/svg">
<path d="M38.058 38.5V28.884H35.578C34.9807 28.884 34.5113 29.0333 34.17 29.332C33.8287 29.6307 33.658 30.036 33.658 30.548C33.658 31.0707 33.8287 31.4813 34.17 31.78C34.5113 32.0787 34.9807 32.228 35.578 32.228H38.218V34.052H35.578C34.7567 34.052 34.0367 33.908 33.418 33.62C32.81 33.3213 32.33 32.9107 31.978 32.388C31.6367 31.8547 31.466 31.2413 31.466 30.548C31.466 29.8547 31.6367 29.2467 31.978 28.724C32.33 28.2013 32.81 27.796 33.418 27.508C34.0367 27.2093 34.7567 27.06 35.578 27.06H40.218V38.5H38.058ZM30.618 38.5L34.442 33.172H36.842L33.178 38.5H30.618ZM48.3938 38.5V30.452H50.5058V38.5H48.3938ZM42.6978 38.5V30.452H44.8098V38.5H42.6978ZM43.6898 35.124V33.428H49.6258V35.124H43.6898ZM52.4094 37.508V36.804H52.6334C52.8574 36.804 53.0334 36.7613 53.1614 36.676C53.3 36.5907 53.4067 36.436 53.4814 36.212C53.556 35.988 53.6147 35.6627 53.6574 35.236L54.1694 30.452H60.4094V37.236H58.3454V30.756L59.8014 32.148H54.5374L56.1534 30.756L55.6414 35.412C55.5774 35.9347 55.46 36.3507 55.2894 36.66C55.1294 36.9693 54.884 37.188 54.5534 37.316C54.2334 37.444 53.796 37.508 53.2414 37.508H52.4094ZM51.9774 40.692V36.804H61.7214V40.692H59.7374V37.364L60.8414 38.5H53.2414L53.9614 37.364V40.692H51.9774ZM69.6689 35.988L70.7889 37.284C70.3835 37.7427 69.8609 38.1053 69.2209 38.372C68.5915 38.628 67.8929 38.756 67.1249 38.756C66.1969 38.756 65.3809 38.5747 64.6769 38.212C63.9729 37.8493 63.4235 37.348 63.0289 36.708C62.6342 36.068 62.4369 35.3267 62.4369 34.484C62.4369 33.6413 62.6235 32.9 62.9969 32.26C63.3809 31.6093 63.8982 31.1027 64.5489 30.74C65.2102 30.3773 65.9515 30.196 66.7729 30.196C67.5729 30.196 68.2822 30.3773 68.9009 30.74C69.5302 31.092 70.0209 31.5827 70.3729 32.212C70.7249 32.8413 70.9009 33.572 70.9009 34.404V34.5H68.8369V34.276C68.8369 33.7853 68.7462 33.3587 68.5649 32.996C68.3942 32.6333 68.1542 32.3507 67.8449 32.148C67.5462 31.9453 67.1889 31.844 66.7729 31.844C66.3355 31.844 65.9515 31.9507 65.6209 32.164C65.2902 32.3667 65.0289 32.6653 64.8369 33.06C64.6555 33.444 64.5649 33.9027 64.5649 34.436C64.5649 35.0013 64.6769 35.4867 64.9009 35.892C65.1355 36.2867 65.4502 36.5907 65.8449 36.804C66.2502 37.0067 66.7142 37.108 67.2369 37.108C68.1969 37.108 69.0075 36.7347 69.6689 35.988ZM70.9009 35.124H63.7969V33.78H70.6449L70.9009 34.404V35.124ZM78.1225 38.5L74.2985 34.308H74.4745L77.9305 30.452H80.4585L76.3465 35.028L76.2345 33.62L80.7785 38.5H78.1225ZM72.6665 38.5V30.452H74.7785V38.5H72.6665ZM87.5601 35.844L88.8721 37.124C88.4561 37.6467 87.9495 38.052 87.3521 38.34C86.7655 38.6173 86.0935 38.756 85.3361 38.756C84.5041 38.756 83.7575 38.5747 83.0961 38.212C82.4348 37.8387 81.9121 37.332 81.5281 36.692C81.1548 36.0413 80.9681 35.3053 80.9681 34.484C80.9681 33.652 81.1601 32.916 81.5441 32.276C81.9281 31.6253 82.4508 31.1187 83.1121 30.756C83.7841 30.3827 84.5415 30.196 85.3841 30.196C86.1201 30.196 86.7815 30.34 87.3681 30.628C87.9548 30.9053 88.4561 31.3 88.8721 31.812L87.5601 33.108C87.3361 32.7667 87.0481 32.4893 86.6961 32.276C86.3548 32.0627 85.9548 31.956 85.4961 31.956C85.0375 31.956 84.6321 32.0627 84.2801 32.276C83.9281 32.4893 83.6508 32.788 83.4481 33.172C83.2455 33.556 83.1441 33.9933 83.1441 34.484C83.1441 34.964 83.2455 35.396 83.4481 35.78C83.6508 36.164 83.9281 36.4627 84.2801 36.676C84.6321 36.8893 85.0375 36.996 85.4961 36.996C85.9655 36.996 86.3708 36.8893 86.7121 36.676C87.0535 36.4627 87.3361 36.1853 87.5601 35.844Z" fill="black"/>
<g clip-path="url(#clip0_2007_1864)">
<path d="M110.002 47.25C118.15 47.25 124.755 40.6462 124.755 32.5C124.755 24.3538 118.15 17.75 110.002 17.75C101.855 17.75 95.25 24.3538 95.25 32.5C95.25 40.6462 101.855 47.25 110.002 47.25Z" fill="#FC3F1D"/>
<path fill-rule="evenodd" clip-rule="evenodd" d="M112.315 41.7163H115.53V23.2788H110.85C106.141 23.2788 103.669 25.6867 103.669 29.2472C103.669 32.3193 105.271 34.0483 108.105 35.9335L109.829 37.0715L107.616 35.2156L103.234 41.7114H106.722L111.402 34.7272L109.77 33.6429C107.802 32.3193 106.839 31.2887 106.839 29.0567C106.839 27.0933 108.222 25.7697 110.855 25.7697H112.291V41.7114H112.306L112.315 41.7163Z" fill="white"/>
</g>
<path d="M135.63 36.7C136.158 37.468 136.774 38.076 137.478 38.524C138.198 38.972 139.022 39.196 139.95 39.196C140.606 39.196 141.19 39.044 141.702 38.74C142.214 38.436 142.614 38.02 142.902 37.492C143.206 36.964 143.358 36.372 143.358 35.716C143.358 35.076 143.222 34.516 142.95 34.036C142.678 33.54 142.294 33.156 141.798 32.884C141.302 32.596 140.734 32.452 140.094 32.452C139.406 32.452 138.79 32.604 138.246 32.908C137.702 33.196 137.238 33.62 136.854 34.18L135.774 34.108C135.918 33.276 136.206 32.54 136.638 31.9C137.086 31.26 137.654 30.764 138.342 30.412C139.046 30.044 139.854 29.86 140.766 29.86C141.902 29.86 142.902 30.116 143.766 30.628C144.646 31.124 145.326 31.812 145.806 32.692C146.302 33.572 146.55 34.58 146.55 35.716C146.55 36.916 146.262 37.98 145.686 38.908C145.126 39.836 144.35 40.564 143.358 41.092C142.382 41.62 141.278 41.884 140.046 41.884C138.718 41.884 137.502 41.628 136.398 41.116C135.31 40.588 134.358 39.796 133.542 38.74L135.63 36.7ZM145.59 26.932H136.47L137.91 25.348L136.854 34.18H134.094L135.27 24.34H145.59V26.932ZM152.605 39.82C152.605 40.348 152.413 40.804 152.029 41.188C151.645 41.556 151.173 41.74 150.613 41.74C150.069 41.74 149.597 41.556 149.197 41.188C148.813 40.804 148.621 40.348 148.621 39.82C148.621 39.276 148.813 38.82 149.197 38.452C149.597 38.068 150.069 37.876 150.613 37.876C151.173 37.876 151.645 38.068 152.029 38.452C152.413 38.82 152.605 39.276 152.605 39.82ZM161.598 41.884C160.174 41.884 158.95 41.532 157.926 40.828C156.902 40.124 156.118 39.108 155.574 37.78C155.03 36.436 154.758 34.82 154.758 32.932C154.758 30.084 155.366 27.876 156.582 26.308C157.798 24.74 159.47 23.956 161.598 23.956C163.742 23.956 165.414 24.74 166.614 26.308C167.83 27.876 168.438 30.084 168.438 32.932C168.438 34.82 168.166 36.436 167.622 37.78C167.078 39.108 166.294 40.124 165.27 40.828C164.262 41.532 163.038 41.884 161.598 41.884ZM161.598 39.244C162.734 39.244 163.614 38.716 164.238 37.66C164.862 36.588 165.174 35.012 165.174 32.932C165.174 30.836 164.862 29.26 164.238 28.204C163.614 27.132 162.734 26.596 161.598 26.596C160.478 26.596 159.606 27.132 158.982 28.204C158.358 29.26 158.046 30.836 158.046 32.932C158.046 35.012 158.358 36.588 158.982 37.66C159.606 38.716 160.478 39.244 161.598 39.244Z" fill="#003C56"/>
<defs>
<clipPath id="clip0_2007_1864">
<rect width="29.5" height="29.5" fill="white" transform="translate(95.25 17.75)"/>
</clipPath>
</defs>
</svg>
