<svg width="145" height="45" viewBox="0 0 145 45" fill="none" xmlns="http://www.w3.org/2000/svg">
<path d="M30.4241 11.666H41.8135C42.0788 11.666 42.2938 11.8812 42.2938 12.1467V14.388C42.2938 14.6866 42.1644 14.9693 41.939 15.1649L35.5699 20.4969H41.8135C42.0788 20.4969 42.2938 20.7081 42.2938 20.9736V23.5467C42.2938 23.8122 42.0788 24.0274 41.8135 24.0274H30.4241C30.1589 24.0274 29.9438 23.8122 29.9438 23.5467V21.309C29.9438 21.0105 30.0733 20.7278 30.2987 20.5322L36.6677 15.2002H30.4241C30.1589 15.2002 29.9438 14.9801 29.9438 14.7147V12.1467C29.9438 11.8812 30.1589 11.666 30.4241 11.666ZM50.2331 11.2277C51.55 11.2277 52.7241 11.524 53.7042 12.0656C54.6844 12.6072 55.4706 13.394 56.0118 14.3748C56.553 15.3557 56.8491 16.5307 56.8491 17.8485C56.8491 19.1664 56.553 20.3414 56.0118 21.3222C55.4706 22.3031 54.6844 23.0899 53.7042 23.6315C52.7241 24.1731 51.55 24.4694 50.2331 24.4694C48.9162 24.4694 47.7421 24.1731 46.7619 23.6315C45.7818 23.0899 44.9955 22.3031 44.4543 21.3222C43.9132 20.3414 43.617 19.1664 43.617 17.8485C43.617 16.5307 43.9132 15.3557 44.4543 14.3748C44.9955 13.394 45.7818 12.6072 46.7619 12.0656C47.7421 11.524 48.9162 11.2277 50.2331 11.2277ZM50.2331 14.7588C49.6031 14.7588 49.0501 14.892 48.5927 15.1396C48.1353 15.3872 47.7735 15.7492 47.5261 16.2069C47.2787 16.6647 47.1456 17.2181 47.1456 17.8485C47.1456 18.479 47.2787 19.0324 47.5261 19.4901C47.7735 19.9479 48.1353 20.3099 48.5927 20.5575C49.0501 20.8051 49.6031 20.9383 50.2331 20.9383C50.863 20.9383 51.4161 20.8051 51.8735 20.5575C52.3309 20.3099 52.6926 19.9479 52.9401 19.4901C53.1875 19.0324 53.3206 18.479 53.3206 17.8485C53.3206 17.2181 53.1875 16.6647 52.9401 16.2069C52.6926 15.7492 52.3309 15.3872 51.8735 15.1396C51.4161 14.892 50.863 14.7588 50.2331 14.7588ZM64.3473 11.2277C65.6642 11.2277 66.8383 11.524 67.8185 12.0656C68.7986 12.6072 69.5849 13.394 70.126 14.3748C70.6672 15.3557 70.9634 16.5307 70.9634 17.8485C70.9634 19.1664 70.6672 20.3414 70.126 21.3222C69.5849 22.3031 68.7986 23.0899 67.8185 23.6315C66.8383 24.1731 65.6642 24.4694 64.3473 24.4694C63.0304 24.4694 61.8563 24.1731 60.8762 23.6315C59.896 23.0899 59.1098 22.3031 58.5686 21.3222C58.0274 20.3414 57.7313 19.1664 57.7313 17.8485C57.7313 16.5307 58.0274 15.3557 58.5686 14.3748C59.1098 13.394 59.896 12.6072 60.8762 12.0656C61.8563 11.524 63.0304 11.2277 64.3473 11.2277ZM64.3473 14.7588C63.7174 14.7588 63.1643 14.892 62.7069 15.1396C62.2495 15.3872 61.8877 15.7492 61.6403 16.2069C61.3929 16.6647 61.2598 17.2181 61.2598 17.8485C61.2598 18.479 61.3929 19.0324 61.6403 19.4901C61.8877 19.9479 62.2495 20.3099 62.7069 20.5575C63.1643 20.8051 63.7174 20.9383 64.3473 20.9383C64.9773 20.9383 65.5303 20.8051 65.9877 20.5575C66.4451 20.3099 66.8069 19.9479 67.0543 19.4901C67.3017 19.0324 67.4348 18.479 67.4348 17.8485C67.4348 17.2181 67.3017 16.6647 67.0543 16.2069C66.8069 15.7492 66.4451 15.3872 65.9877 15.1396C65.5303 14.892 64.9773 14.7588 64.3473 14.7588ZM84.638 12.1482V23.5465C84.638 23.812 84.423 24.0272 84.1577 24.0272H81.9195C81.6212 24.0272 81.3388 23.8977 81.1433 23.6721L75.8151 17.2992V23.5465C75.8151 23.812 75.5952 24.0272 75.33 24.0272H72.7654C72.5001 24.0272 72.2851 23.812 72.2851 23.5465V12.1482C72.2851 11.8827 72.5001 11.6675 72.7654 11.6675H75.0036C75.302 11.6675 75.5844 11.7971 75.7799 12.0227L81.108 18.3979V12.1482C81.108 11.8827 81.3191 11.6675 81.5843 11.6675H84.1577C84.423 11.6675 84.638 11.8827 84.638 12.1482Z" fill="url(#paint0_linear_2009_1951)"/>
<path d="M26.8873 33.7723H26.0108V27.92H26.8873V33.7723ZM29.0237 28.0113H23.8835V27.2444H29.0237V28.0113ZM31.2627 33.9184C30.7879 33.9184 30.3679 33.8149 30.0027 33.608C29.6375 33.4011 29.3514 33.118 29.1445 32.7589C28.9375 32.3937 28.8341 31.9768 28.8341 31.5081C28.8341 31.0394 28.9375 30.6255 29.1445 30.2664C29.3514 29.9073 29.6375 29.6243 30.0027 29.4173C30.3679 29.2043 30.7879 29.0978 31.2627 29.0978C31.7374 29.0978 32.1544 29.2043 32.5135 29.4173C32.8787 29.6243 33.1647 29.9073 33.3717 30.2664C33.5847 30.6255 33.6912 31.0394 33.6912 31.5081C33.6912 31.9768 33.5847 32.3937 33.3717 32.7589C33.1647 33.118 32.8787 33.4011 32.5135 33.608C32.1544 33.8149 31.7374 33.9184 31.2627 33.9184ZM31.2627 33.188C31.567 33.188 31.8348 33.118 32.0661 32.978C32.2974 32.838 32.4769 32.6402 32.6048 32.3846C32.7326 32.1289 32.7965 31.8368 32.7965 31.5081C32.7965 31.1794 32.7326 30.8903 32.6048 30.6407C32.4769 30.3851 32.2974 30.1873 32.0661 30.0473C31.8348 29.9012 31.567 29.8282 31.2627 29.8282C30.9583 29.8282 30.6875 29.9012 30.4501 30.0473C30.2188 30.1873 30.0392 30.3851 29.9114 30.6407C29.7836 30.8903 29.7197 31.1794 29.7197 31.5081C29.7197 31.8368 29.7836 32.1289 29.9114 32.3846C30.0392 32.6402 30.2188 32.838 30.4501 32.978C30.6875 33.118 30.9583 33.188 31.2627 33.188ZM36.1337 32.2933C35.5554 32.2933 35.1111 32.1411 34.8007 31.8368C34.4963 31.5324 34.3442 31.0942 34.3442 30.5221V29.2439H35.1933V30.4308C35.1933 30.8568 35.2906 31.1551 35.4854 31.3255C35.6802 31.4898 35.9602 31.572 36.3254 31.572C36.7575 31.572 37.1897 31.4259 37.6218 31.1338L37.8501 31.6998C37.6918 31.8276 37.5184 31.9372 37.3297 32.0285C37.1471 32.1137 36.9523 32.1807 36.7454 32.2294C36.5445 32.272 36.3406 32.2933 36.1337 32.2933ZM37.5762 33.7723V29.2439H38.4253V33.7723H37.5762ZM42.902 33.7723L40.4278 31.4259H40.5191L42.756 29.2439H43.8424L41.4139 31.6085L41.2404 31.1338L44.0616 33.7723H42.902ZM39.8252 33.7723V29.2439H40.6743V33.7723H39.8252ZM48.5554 33.7723H47.7611V32.8776L47.7337 32.6585V30.9694C47.7337 30.6103 47.618 30.3273 47.3867 30.1203C47.1554 29.9073 46.842 29.8008 46.4463 29.8008C46.1603 29.8008 45.8985 29.8617 45.6612 29.9834C45.4238 30.099 45.2168 30.2603 45.0403 30.4673L44.5108 29.9195C44.7603 29.6578 45.0464 29.4569 45.369 29.3169C45.6977 29.1708 46.0629 29.0978 46.4646 29.0978C46.8785 29.0978 47.2407 29.1739 47.5511 29.326C47.8676 29.4782 48.1141 29.6912 48.2906 29.9651C48.4671 30.2329 48.5554 30.5586 48.5554 30.942V33.7723ZM46.0903 33.9184C45.7494 33.9184 45.4481 33.8576 45.1864 33.7358C44.9247 33.608 44.7208 33.4345 44.5747 33.2154C44.4286 32.9963 44.3556 32.7467 44.3556 32.4667C44.3556 32.1502 44.4438 31.8824 44.6203 31.6633C44.8029 31.4381 45.0525 31.2677 45.369 31.152C45.6855 31.0303 46.0477 30.9694 46.4555 30.9694H47.8341V31.5994H46.5468C46.1633 31.5994 45.8468 31.6694 45.5973 31.8094C45.3538 31.9433 45.2321 32.1533 45.2321 32.4394C45.2321 32.6828 45.3234 32.8776 45.506 33.0237C45.6946 33.1698 45.9381 33.2428 46.2364 33.2428C46.5285 33.2428 46.7933 33.185 47.0307 33.0693C47.268 32.9537 47.4567 32.7924 47.5967 32.5854C47.7428 32.3724 47.825 32.1289 47.8432 31.855L48.1445 32.0194C48.1445 32.3846 48.0563 32.7102 47.8798 32.9963C47.7032 33.2824 47.4598 33.5076 47.1494 33.6719C46.845 33.8362 46.492 33.9184 46.0903 33.9184ZM53.7132 33.9184C53.1776 33.9184 52.6815 33.8119 52.225 33.5989C51.7746 33.3797 51.3942 33.0754 51.0837 32.6859L51.6772 32.1015C51.9267 32.4424 52.225 32.7011 52.5719 32.8776C52.925 33.048 53.3115 33.1332 53.7314 33.1332C54.054 33.1332 54.3401 33.0785 54.5897 32.9689C54.8453 32.8593 55.0431 32.7102 55.1831 32.5215C55.3292 32.3328 55.4022 32.1198 55.4022 31.8824C55.4022 31.5355 55.2622 31.2616 54.9823 31.0607C54.7084 30.8599 54.334 30.7594 53.8593 30.7594H52.508V30.0016H53.8593C54.2671 30.0016 54.5957 29.9043 54.8453 29.7095C55.0949 29.5147 55.2196 29.2591 55.2196 28.9426C55.2196 28.6261 55.0796 28.3704 54.7997 28.1756C54.5258 27.9809 54.1666 27.8835 53.7223 27.8835C53.3206 27.8835 52.9767 27.9626 52.6906 28.1209C52.4045 28.273 52.1185 28.5317 51.8324 28.8969L51.239 28.34C51.5798 27.9078 51.948 27.5944 52.3437 27.3996C52.7454 27.1987 53.211 27.0983 53.7406 27.0983C54.1971 27.0983 54.6018 27.1744 54.9549 27.3266C55.314 27.4787 55.597 27.6887 55.804 27.9565C56.0109 28.2183 56.1144 28.5195 56.1144 28.8604C56.1144 29.1891 56.02 29.4812 55.8313 29.7369C55.6427 29.9925 55.3809 30.1873 55.0462 30.3212C55.4418 30.449 55.7492 30.6529 55.9683 30.9329C56.1874 31.2129 56.297 31.5385 56.297 31.9098C56.297 32.2872 56.1813 32.628 55.95 32.9324C55.7248 33.2367 55.4174 33.4771 55.0279 33.6536C54.6384 33.8302 54.2001 33.9184 53.7132 33.9184ZM60.8488 33.7723V29.2439H61.6979V33.7723H60.8488ZM57.4433 33.7723V29.2439H58.2924V33.7723H57.4433ZM57.8541 31.7455V31.0425H61.3235V31.7455H57.8541ZM66.9491 33.7723H66.1548V32.8776L66.1274 32.6585V30.9694C66.1274 30.6103 66.0118 30.3273 65.7805 30.1203C65.5492 29.9073 65.2357 29.8008 64.8401 29.8008C64.554 29.8008 64.2923 29.8617 64.0549 29.9834C63.8175 30.099 63.6106 30.2603 63.4341 30.4673L62.9045 29.9195C63.1541 29.6578 63.4401 29.4569 63.7627 29.3169C64.0914 29.1708 64.4566 29.0978 64.8583 29.0978C65.2722 29.0978 65.6344 29.1739 65.9448 29.326C66.2613 29.4782 66.5078 29.6912 66.6843 29.9651C66.8609 30.2329 66.9491 30.5586 66.9491 30.942V33.7723ZM64.484 33.9184C64.1432 33.9184 63.8419 33.8576 63.5801 33.7358C63.3184 33.608 63.1145 33.4345 62.9684 33.2154C62.8224 32.9963 62.7493 32.7467 62.7493 32.4667C62.7493 32.1502 62.8376 31.8824 63.0141 31.6633C63.1967 31.4381 63.4462 31.2677 63.7627 31.152C64.0792 31.0303 64.4414 30.9694 64.8492 30.9694H66.2278V31.5994H64.9405C64.5571 31.5994 64.2405 31.6694 63.991 31.8094C63.7475 31.9433 63.6258 32.1533 63.6258 32.4394C63.6258 32.6828 63.7171 32.8776 63.8997 33.0237C64.0884 33.1698 64.3318 33.2428 64.6301 33.2428C64.9223 33.2428 65.187 33.185 65.4244 33.0693C65.6618 32.9537 65.8505 32.7924 65.9905 32.5854C66.1365 32.3724 66.2187 32.1289 66.237 31.855L66.5383 32.0194C66.5383 32.3846 66.45 32.7102 66.2735 32.9963C66.097 33.2824 65.8535 33.5076 65.5431 33.6719C65.2388 33.8362 64.8857 33.9184 64.484 33.9184ZM71.5837 33.7723V29.2439H72.4327V33.7723H71.5837ZM68.1782 33.7723V29.2439H69.0273V33.7723H68.1782ZM68.589 31.7455V31.0425H72.0584V31.7455H68.589ZM73.822 33.7723V29.2439H74.6528V32.6585L74.5889 32.6402L77.3005 29.2439H78.0401V33.7723H77.2092V30.3577L77.2823 30.3851L74.5615 33.7723H73.822ZM79.4391 33.7723V29.2439H80.2699V32.6585L80.206 32.6402L82.9176 29.2439H83.6572V33.7723H82.8263V30.3577L82.8994 30.3851L80.1786 33.7723H79.4391ZM81.6029 28.4313C81.1829 28.4313 80.8329 28.3248 80.553 28.1117C80.273 27.8926 80.1086 27.5852 80.0599 27.1896H80.7812C80.8177 27.4452 80.906 27.6309 81.046 27.7465C81.1921 27.8622 81.3777 27.92 81.6029 27.92C81.8281 27.92 82.0107 27.8622 82.1507 27.7465C82.2968 27.6309 82.3881 27.4452 82.4246 27.1896H83.1459C83.0972 27.5852 82.9328 27.8926 82.6529 28.1117C82.3729 28.3248 82.0229 28.4313 81.6029 28.4313Z" fill="black"/>
<path d="M102.178 29H99.8017V26.39H93.3217V24.482L99.8017 16.13H102.178V24.482H103.978V26.39H102.178V29ZM99.8017 19.172L95.6257 24.482H99.8017V19.172ZM108.496 27.74C108.496 28.136 108.352 28.478 108.064 28.766C107.776 29.042 107.422 29.18 107.002 29.18C106.594 29.18 106.24 29.042 105.94 28.766C105.652 28.478 105.508 28.136 105.508 27.74C105.508 27.332 105.652 26.99 105.94 26.714C106.24 26.426 106.594 26.282 107.002 26.282C107.422 26.282 107.776 26.426 108.064 26.714C108.352 26.99 108.496 27.332 108.496 27.74ZM115.06 15.842C116.044 15.842 116.908 16.052 117.652 16.472C118.408 16.892 118.99 17.474 119.398 18.218C119.818 18.95 120.028 19.802 120.028 20.774C120.028 21.794 119.812 22.772 119.38 23.708C118.96 24.632 118.366 25.532 117.598 26.408C116.83 27.272 115.936 28.136 114.916 29H111.748C112.828 28.136 113.728 27.362 114.448 26.678C115.18 25.994 115.768 25.358 116.212 24.77C116.668 24.182 117.004 23.612 117.22 23.06L117.508 23.15C117.196 23.63 116.782 24.02 116.266 24.32C115.75 24.608 115.168 24.752 114.52 24.752C113.668 24.752 112.9 24.566 112.216 24.194C111.544 23.822 111.01 23.312 110.614 22.664C110.23 22.016 110.038 21.272 110.038 20.432C110.038 19.532 110.254 18.74 110.686 18.056C111.13 17.36 111.73 16.82 112.486 16.436C113.242 16.04 114.1 15.842 115.06 15.842ZM115.06 17.822C114.544 17.822 114.082 17.936 113.674 18.164C113.278 18.38 112.966 18.68 112.738 19.064C112.51 19.448 112.396 19.88 112.396 20.36C112.396 20.84 112.51 21.272 112.738 21.656C112.966 22.04 113.278 22.34 113.674 22.556C114.082 22.772 114.544 22.88 115.06 22.88C115.576 22.88 116.026 22.772 116.41 22.556C116.806 22.34 117.118 22.04 117.346 21.656C117.574 21.272 117.688 20.84 117.688 20.36C117.688 19.88 117.574 19.448 117.346 19.064C117.118 18.68 116.806 18.38 116.41 18.164C116.026 17.936 115.576 17.822 115.06 17.822Z" fill="#003C56"/>
<defs>
<linearGradient id="paint0_linear_2009_1951" x1="84.6365" y1="24.9108" x2="29.9438" y2="24.9108" gradientUnits="userSpaceOnUse">
<stop stop-color="#6339F5"/>
<stop offset="1" stop-color="#3D3F55"/>
</linearGradient>
</defs>
</svg>
