<svg width="200" height="65" viewBox="0 0 200 65" fill="none" xmlns="http://www.w3.org/2000/svg">
<path d="M45.5095 19.6639H59.2317C59.5513 19.6639 59.8103 19.9232 59.8103 20.243V22.9434C59.8103 23.3031 59.6543 23.6437 59.3828 23.8794L51.7093 30.3035H59.2317C59.5513 30.3035 59.8103 30.558 59.8103 30.8778V33.978C59.8103 34.2978 59.5513 34.5571 59.2317 34.5571H45.5095C45.1899 34.5571 44.9308 34.2978 44.9308 33.978V31.282C44.9308 30.9223 45.0868 30.5817 45.3584 30.346L53.0319 23.9219H45.5095C45.1899 23.9219 44.9308 23.6568 44.9308 23.3369V20.243C44.9308 19.9232 45.1899 19.6639 45.5095 19.6639ZM69.3757 19.1357C70.9623 19.1357 72.3769 19.4928 73.5578 20.1453C74.7387 20.7978 75.686 21.7458 76.338 22.9275C76.99 24.1093 77.3468 25.5249 77.3468 27.1127C77.3468 28.7005 76.99 30.1161 76.338 31.2979C75.686 32.4797 74.7387 33.4276 73.5578 34.0801C72.3769 34.7326 70.9623 35.0897 69.3757 35.0897C67.789 35.0897 66.3745 34.7326 65.1936 34.0801C64.0127 33.4276 63.0654 32.4797 62.4134 31.2979C61.7613 30.1161 61.4046 28.7005 61.4046 27.1127C61.4046 25.5249 61.7613 24.1093 62.4134 22.9275C63.0654 21.7458 64.0127 20.7978 65.1936 20.1453C66.3745 19.4928 67.789 19.1357 69.3757 19.1357ZM69.3757 23.3901C68.6167 23.3901 67.9504 23.5506 67.3993 23.8489C66.8482 24.1472 66.4124 24.5834 66.1143 25.1349C65.8162 25.6864 65.6558 26.3532 65.6558 27.1127C65.6558 27.8722 65.8162 28.539 66.1143 29.0905C66.4124 29.642 66.8482 30.0782 67.3993 30.3765C67.9504 30.6748 68.6167 30.8353 69.3757 30.8353C70.1347 30.8353 70.801 30.6748 71.3521 30.3765C71.9032 30.0782 72.339 29.642 72.6371 29.0905C72.9352 28.539 73.0956 27.8722 73.0956 27.1127C73.0956 26.3532 72.9352 25.6864 72.6371 25.1349C72.339 24.5834 71.9032 24.1472 71.3521 23.8489C70.801 23.5506 70.1347 23.3901 69.3757 23.3901ZM86.3808 19.1357C87.9675 19.1357 89.382 19.4928 90.5629 20.1453C91.7438 20.7978 92.6911 21.7458 93.3431 22.9275C93.9952 24.1093 94.352 25.5249 94.352 27.1127C94.352 28.7005 93.9952 30.1161 93.3431 31.2979C92.6911 32.4797 91.7438 33.4276 90.5629 34.0801C89.382 34.7326 87.9675 35.0897 86.3808 35.0897C84.7942 35.0897 83.3796 34.7326 82.1987 34.0801C81.0178 33.4276 80.0705 32.4797 79.4185 31.2979C78.7665 30.1161 78.4097 28.7005 78.4097 27.1127C78.4097 25.5249 78.7665 24.1093 79.4185 22.9275C80.0705 21.7458 81.0178 20.7978 82.1987 20.1453C83.3796 19.4928 84.7942 19.1357 86.3808 19.1357ZM86.3808 23.3901C85.6218 23.3901 84.9555 23.5506 84.4044 23.8489C83.8533 24.1472 83.4175 24.5834 83.1194 25.1349C82.8213 25.6864 82.6609 26.3532 82.6609 27.1127C82.6609 27.8722 82.8213 28.539 83.1194 29.0905C83.4175 29.642 83.8533 30.0782 84.4044 30.3765C84.9555 30.6748 85.6218 30.8353 86.3808 30.8353C87.1398 30.8353 87.8061 30.6748 88.3572 30.3765C88.9083 30.0782 89.3442 29.642 89.6423 29.0905C89.9404 28.539 90.1007 27.8722 90.1007 27.1127C90.1007 26.3532 89.9404 25.6864 89.6423 25.1349C89.3442 24.5834 88.9083 24.1472 88.3572 23.8489C87.8061 23.5506 87.1398 23.3901 86.3808 23.3901ZM110.827 20.2448V33.9778C110.827 34.2976 110.568 34.5569 110.249 34.5569H107.552C107.193 34.5569 106.852 34.4008 106.617 34.1291L100.197 26.4509V33.9778C100.197 34.2976 99.9325 34.5569 99.6129 34.5569H96.5231C96.2035 34.5569 95.9444 34.2976 95.9444 33.9778V20.2448C95.9444 19.925 96.2035 19.6657 96.5231 19.6657H99.2197C99.5792 19.6657 99.9194 19.8219 100.155 20.0937L106.574 27.7745V20.2448C106.574 19.925 106.829 19.6657 107.148 19.6657H110.249C110.568 19.6657 110.827 19.925 110.827 20.2448Z" fill="url(#paint0_linear_2007_1898)"/>
<path d="M41.753 45.8643H40.697V38.8133H41.753V45.8643ZM44.327 38.9233H38.134V37.9993H44.327V38.9233ZM47.0245 46.0403C46.4525 46.0403 45.9465 45.9156 45.5065 45.6663C45.0665 45.4169 44.7218 45.0759 44.4725 44.6433C44.2232 44.2033 44.0985 43.7009 44.0985 43.1363C44.0985 42.5716 44.2232 42.0729 44.4725 41.6403C44.7218 41.2076 45.0665 40.8666 45.5065 40.6173C45.9465 40.3606 46.4525 40.2323 47.0245 40.2323C47.5965 40.2323 48.0988 40.3606 48.5315 40.6173C48.9715 40.8666 49.3162 41.2076 49.5655 41.6403C49.8222 42.0729 49.9505 42.5716 49.9505 43.1363C49.9505 43.7009 49.8222 44.2033 49.5655 44.6433C49.3162 45.0759 48.9715 45.4169 48.5315 45.6663C48.0988 45.9156 47.5965 46.0403 47.0245 46.0403ZM47.0245 45.1603C47.3912 45.1603 47.7138 45.0759 47.9925 44.9073C48.2712 44.7386 48.4875 44.5003 48.6415 44.1923C48.7955 43.8843 48.8725 43.5323 48.8725 43.1363C48.8725 42.7403 48.7955 42.3919 48.6415 42.0913C48.4875 41.7833 48.2712 41.5449 47.9925 41.3763C47.7138 41.2003 47.3912 41.1123 47.0245 41.1123C46.6578 41.1123 46.3315 41.2003 46.0455 41.3763C45.7668 41.5449 45.5505 41.7833 45.3965 42.0913C45.2425 42.3919 45.1655 42.7403 45.1655 43.1363C45.1655 43.5323 45.2425 43.8843 45.3965 44.1923C45.5505 44.5003 45.7668 44.7386 46.0455 44.9073C46.3315 45.0759 46.6578 45.1603 47.0245 45.1603ZM52.8932 44.0823C52.1965 44.0823 51.6612 43.8989 51.2872 43.5323C50.9205 43.1656 50.7372 42.6376 50.7372 41.9483V40.4083H51.7602V41.8383C51.7602 42.3516 51.8775 42.7109 52.1122 42.9163C52.3469 43.1143 52.6842 43.2133 53.1242 43.2133C53.6449 43.2133 54.1655 43.0373 54.6862 42.6853L54.9612 43.3673C54.7705 43.5213 54.5615 43.6533 54.3342 43.7633C54.1142 43.8659 53.8795 43.9466 53.6302 44.0053C53.3882 44.0566 53.1425 44.0823 52.8932 44.0823ZM54.6312 45.8643V40.4083H55.6542V45.8643H54.6312ZM61.0479 45.8643L58.0669 43.0373H58.1769L60.8719 40.4083H62.1809L59.2549 43.2573L59.0459 42.6853L62.4449 45.8643H61.0479ZM57.3409 45.8643V40.4083H58.3639V45.8643H57.3409ZM67.8591 45.8643H66.9021V44.7863L66.8691 44.5223V42.4873C66.8691 42.0546 66.7298 41.7136 66.4511 41.4643C66.1725 41.2076 65.7948 41.0793 65.3181 41.0793C64.9735 41.0793 64.6581 41.1526 64.3721 41.2993C64.0861 41.4386 63.8368 41.6329 63.6241 41.8823L62.9861 41.2223C63.2868 40.9069 63.6315 40.6649 64.0201 40.4963C64.4161 40.3203 64.8561 40.2323 65.3401 40.2323C65.8388 40.2323 66.2751 40.3239 66.6491 40.5073C67.0305 40.6906 67.3275 40.9473 67.5401 41.2773C67.7528 41.5999 67.8591 41.9923 67.8591 42.4543V45.8643ZM64.8891 46.0403C64.4785 46.0403 64.1155 45.9669 63.8001 45.8203C63.4848 45.6663 63.2391 45.4573 63.0631 45.1933C62.8871 44.9293 62.7991 44.6286 62.7991 44.2913C62.7991 43.9099 62.9055 43.5873 63.1181 43.3233C63.3381 43.0519 63.6388 42.8466 64.0201 42.7073C64.4015 42.5606 64.8378 42.4873 65.3291 42.4873H66.9901V43.2463H65.4391C64.9771 43.2463 64.5958 43.3306 64.2951 43.4993C64.0018 43.6606 63.8551 43.9136 63.8551 44.2583C63.8551 44.5516 63.9651 44.7863 64.1851 44.9623C64.4125 45.1383 64.7058 45.2263 65.0651 45.2263C65.4171 45.2263 65.7361 45.1566 66.0221 45.0173C66.3081 44.8779 66.5355 44.6836 66.7041 44.4343C66.8801 44.1776 66.9791 43.8843 67.0011 43.5543L67.3641 43.7523C67.3641 44.1923 67.2578 44.5846 67.0451 44.9293C66.8325 45.2739 66.5391 45.5453 66.1651 45.7433C65.7985 45.9413 65.3731 46.0403 64.8891 46.0403ZM74.0733 46.0403C73.428 46.0403 72.8303 45.9119 72.2803 45.6553C71.7377 45.3913 71.2793 45.0246 70.9053 44.5553L71.6203 43.8513C71.921 44.2619 72.2803 44.5736 72.6983 44.7863C73.1237 44.9916 73.5893 45.0943 74.0953 45.0943C74.484 45.0943 74.8287 45.0283 75.1293 44.8963C75.4373 44.7643 75.6757 44.5846 75.8443 44.3573C76.0203 44.1299 76.1083 43.8733 76.1083 43.5873C76.1083 43.1693 75.9397 42.8393 75.6023 42.5973C75.2723 42.3553 74.8213 42.2343 74.2493 42.2343H72.6213V41.3213H74.2493C74.7407 41.3213 75.1367 41.2039 75.4373 40.9693C75.738 40.7346 75.8883 40.4266 75.8883 40.0453C75.8883 39.6639 75.7197 39.3559 75.3823 39.1213C75.0523 38.8866 74.6197 38.7693 74.0843 38.7693C73.6003 38.7693 73.186 38.8646 72.8413 39.0553C72.4967 39.2386 72.152 39.5503 71.8073 39.9903L71.0923 39.3193C71.503 38.7986 71.9467 38.4209 72.4233 38.1863C72.9073 37.9443 73.4683 37.8233 74.1063 37.8233C74.6563 37.8233 75.144 37.9149 75.5693 38.0983C76.002 38.2816 76.343 38.5346 76.5923 38.8573C76.8417 39.1726 76.9663 39.5356 76.9663 39.9463C76.9663 40.3423 76.8527 40.6943 76.6253 41.0023C76.398 41.3103 76.0827 41.5449 75.6793 41.7063C76.156 41.8603 76.5263 42.1059 76.7903 42.4433C77.0543 42.7806 77.1863 43.1729 77.1863 43.6203C77.1863 44.0749 77.047 44.4856 76.7683 44.8523C76.497 45.2189 76.1267 45.5086 75.6573 45.7213C75.188 45.9339 74.66 46.0403 74.0733 46.0403ZM82.6704 45.8643V40.4083H83.6934V45.8643H82.6704ZM78.5674 45.8643V40.4083H79.5904V45.8643H78.5674ZM79.0624 43.4223V42.5753H83.2424V43.4223H79.0624ZM90.0203 45.8643H89.0633V44.7863L89.0303 44.5223V42.4873C89.0303 42.0546 88.8909 41.7136 88.6123 41.4643C88.3336 41.2076 87.9559 41.0793 87.4793 41.0793C87.1346 41.0793 86.8193 41.1526 86.5333 41.2993C86.2473 41.4386 85.9979 41.6329 85.7853 41.8823L85.1473 41.2223C85.4479 40.9069 85.7926 40.6649 86.1813 40.4963C86.5773 40.3203 87.0173 40.2323 87.5013 40.2323C87.9999 40.2323 88.4363 40.3239 88.8103 40.5073C89.1916 40.6906 89.4886 40.9473 89.7013 41.2773C89.9139 41.5999 90.0203 41.9923 90.0203 42.4543V45.8643ZM87.0503 46.0403C86.6396 46.0403 86.2766 45.9669 85.9613 45.8203C85.6459 45.6663 85.4003 45.4573 85.2243 45.1933C85.0483 44.9293 84.9603 44.6286 84.9603 44.2913C84.9603 43.9099 85.0666 43.5873 85.2793 43.3233C85.4993 43.0519 85.7999 42.8466 86.1813 42.7073C86.5626 42.5606 86.9989 42.4873 87.4903 42.4873H89.1513V43.2463H87.6003C87.1383 43.2463 86.7569 43.3306 86.4563 43.4993C86.1629 43.6606 86.0163 43.9136 86.0163 44.2583C86.0163 44.5516 86.1263 44.7863 86.3463 44.9623C86.5736 45.1383 86.8669 45.2263 87.2263 45.2263C87.5783 45.2263 87.8973 45.1566 88.1833 45.0173C88.4693 44.8779 88.6966 44.6836 88.8653 44.4343C89.0413 44.1776 89.1403 43.8843 89.1623 43.5543L89.5253 43.7523C89.5253 44.1923 89.4189 44.5846 89.2063 44.9293C88.9936 45.2739 88.7003 45.5453 88.3263 45.7433C87.9596 45.9413 87.5343 46.0403 87.0503 46.0403ZM95.604 45.8643V40.4083H96.627V45.8643H95.604ZM91.501 45.8643V40.4083H92.524V45.8643H91.501ZM91.996 43.4223V42.5753H96.176V43.4223H91.996ZM98.3008 45.8643V40.4083H99.3018V44.5223L99.2248 44.5003L102.492 40.4083H103.383V45.8643H102.382V41.7503L102.47 41.7833L99.1918 45.8643H98.3008ZM105.068 45.8643V40.4083H106.069V44.5223L105.992 44.5003L109.259 40.4083H110.15V45.8643H109.149V41.7503L109.237 41.7833L105.959 45.8643H105.068ZM107.675 39.4293C107.169 39.4293 106.748 39.3009 106.41 39.0443C106.073 38.7803 105.875 38.4099 105.816 37.9333H106.685C106.729 38.2413 106.836 38.4649 107.004 38.6043C107.18 38.7436 107.404 38.8133 107.675 38.8133C107.947 38.8133 108.167 38.7436 108.335 38.6043C108.511 38.4649 108.621 38.2413 108.665 37.9333H109.534C109.476 38.4099 109.278 38.7803 108.94 39.0443C108.603 39.3009 108.181 39.4293 107.675 39.4293Z" fill="black"/>
<path d="M128.88 36.7C129.408 37.468 130.024 38.076 130.728 38.524C131.448 38.972 132.272 39.196 133.2 39.196C133.856 39.196 134.44 39.044 134.952 38.74C135.464 38.436 135.864 38.02 136.152 37.492C136.456 36.964 136.608 36.372 136.608 35.716C136.608 35.076 136.472 34.516 136.2 34.036C135.928 33.54 135.544 33.156 135.048 32.884C134.552 32.596 133.984 32.452 133.344 32.452C132.656 32.452 132.04 32.604 131.496 32.908C130.952 33.196 130.488 33.62 130.104 34.18L129.024 34.108C129.168 33.276 129.456 32.54 129.888 31.9C130.336 31.26 130.904 30.764 131.592 30.412C132.296 30.044 133.104 29.86 134.016 29.86C135.152 29.86 136.152 30.116 137.016 30.628C137.896 31.124 138.576 31.812 139.056 32.692C139.552 33.572 139.8 34.58 139.8 35.716C139.8 36.916 139.512 37.98 138.936 38.908C138.376 39.836 137.6 40.564 136.608 41.092C135.632 41.62 134.528 41.884 133.296 41.884C131.968 41.884 130.752 41.628 129.648 41.116C128.56 40.588 127.608 39.796 126.792 38.74L128.88 36.7ZM138.84 26.932H129.72L131.16 25.348L130.104 34.18H127.344L128.52 24.34H138.84V26.932ZM145.855 39.82C145.855 40.348 145.663 40.804 145.279 41.188C144.895 41.556 144.423 41.74 143.863 41.74C143.319 41.74 142.847 41.556 142.447 41.188C142.063 40.804 141.871 40.348 141.871 39.82C141.871 39.276 142.063 38.82 142.447 38.452C142.847 38.068 143.319 37.876 143.863 37.876C144.423 37.876 144.895 38.068 145.279 38.452C145.663 38.82 145.855 39.276 145.855 39.82ZM154.848 41.884C153.424 41.884 152.2 41.532 151.176 40.828C150.152 40.124 149.368 39.108 148.824 37.78C148.28 36.436 148.008 34.82 148.008 32.932C148.008 30.084 148.616 27.876 149.832 26.308C151.048 24.74 152.72 23.956 154.848 23.956C156.992 23.956 158.664 24.74 159.864 26.308C161.08 27.876 161.688 30.084 161.688 32.932C161.688 34.82 161.416 36.436 160.872 37.78C160.328 39.108 159.544 40.124 158.52 40.828C157.512 41.532 156.288 41.884 154.848 41.884ZM154.848 39.244C155.984 39.244 156.864 38.716 157.488 37.66C158.112 36.588 158.424 35.012 158.424 32.932C158.424 30.836 158.112 29.26 157.488 28.204C156.864 27.132 155.984 26.596 154.848 26.596C153.728 26.596 152.856 27.132 152.232 28.204C151.608 29.26 151.296 30.836 151.296 32.932C151.296 35.012 151.608 36.588 152.232 37.66C152.856 38.716 153.728 39.244 154.848 39.244Z" fill="#003C56"/>
<defs>
<linearGradient id="paint0_linear_2007_1898" x1="110.826" y1="35.6215" x2="44.9308" y2="35.6215" gradientUnits="userSpaceOnUse">
<stop stop-color="#6339F5"/>
<stop offset="1" stop-color="#3D3F55"/>
</linearGradient>
</defs>
</svg>
