<svg width="145" height="45" viewBox="0 0 145 45" fill="none" xmlns="http://www.w3.org/2000/svg">
<path d="M16.6172 32.4286C22.1006 32.4286 26.5459 27.9834 26.5459 22.5C26.5459 17.0166 22.1006 12.5714 16.6172 12.5714C11.1337 12.5714 6.68848 17.0166 6.68848 22.5C6.68848 27.9834 11.1337 32.4286 16.6172 32.4286Z" fill="#CE2457"/>
<path fill-rule="evenodd" clip-rule="evenodd" d="M16.1286 16.5285C13.0505 16.7803 10.6309 19.3582 10.6309 22.5012C10.6309 25.8111 13.314 28.4942 16.6238 28.4942C19.9335 28.4942 22.6167 25.8111 22.6167 22.5012C22.6167 19.3578 20.1965 16.7797 17.1178 16.5284L16.9564 20.4647C17.9377 20.6238 18.6869 21.475 18.6869 22.5012C18.6869 23.6407 17.7632 24.5645 16.6238 24.5645C15.4843 24.5645 14.5605 23.6407 14.5605 22.5012C14.5605 21.4754 15.3093 20.6244 16.2901 20.4649L16.1286 16.5285Z" fill="white"/>
<path d="M16.6192 16.1088C17.3336 16.1088 17.9128 15.5297 17.9128 14.8153C17.9128 14.1009 17.3336 13.5217 16.6192 13.5217C15.9048 13.5217 15.3257 14.1009 15.3257 14.8153C15.3257 15.5297 15.9048 16.1088 16.6192 16.1088Z" fill="white"/>
<path d="M40.0712 22.4979C40.0712 23.8654 39.571 24.9699 38.6261 25.8641C37.6812 26.7582 36.5141 27.179 35.1246 27.179C33.735 27.179 32.6234 26.7582 31.623 25.8641C30.7337 24.9699 30.2334 23.8654 30.2334 22.4979C30.2334 21.1304 30.7337 20.0259 31.6785 19.1317C32.6234 18.2376 33.7906 17.8168 35.1246 17.8168C36.4585 17.8168 37.6812 18.2376 38.6261 19.1317C39.571 20.0259 40.0712 21.1304 40.0712 22.4979ZM38.2371 22.4979C38.2371 21.709 37.9591 21.0252 37.3478 20.4992C36.7919 19.9733 36.0138 19.7103 35.1246 19.7103C34.2353 19.7103 33.5127 19.9733 32.9013 20.4992C32.2899 21.0252 32.012 21.709 32.012 22.4979C32.012 23.2869 32.2899 23.9706 32.9013 24.4966C33.4571 25.0225 34.2353 25.2855 35.1246 25.2855C36.0138 25.2855 36.7919 25.0225 37.3478 24.4966C37.9591 23.9706 38.2371 23.2869 38.2371 22.4979Z" fill="black"/>
<path d="M45.9365 26.7593H43.88V19.8692H40.7119V18.2387H49.049V19.8692H45.9365V26.7593Z" fill="black"/>
<path d="M53.6523 26.9713C52.2073 26.9713 51.04 26.761 50.0952 26.3402V24.6571C51.1512 25.1304 52.2628 25.3409 53.3745 25.3409C54.2082 25.3409 54.8196 25.2357 55.3198 25.0253C55.7644 24.8149 56.0423 24.4993 56.0423 24.1311C56.0423 23.3948 55.3754 23.0792 53.9859 23.0792H52.2628V21.5539H53.9859C55.1531 21.5539 55.7089 21.2384 55.7089 20.6072C55.7089 19.9234 54.9307 19.6078 53.4301 19.6078C52.4296 19.6078 51.4291 19.8183 50.3731 20.239V18.6085C51.318 18.2404 52.4852 18.03 53.8747 18.03C54.9863 18.03 55.9312 18.2403 56.7093 18.6611C57.4319 19.0819 57.8209 19.6604 57.8209 20.2916C57.8209 21.2384 57.3207 21.8695 56.3758 22.1851C57.543 22.5532 58.1544 23.237 58.1544 24.2889C58.1544 25.0779 57.7653 25.7616 56.9316 26.235C56.0979 26.761 54.9863 26.9713 53.6523 26.9713Z" fill="black"/>
<path d="M69.3712 22.4979C69.3712 23.8654 68.8711 24.9699 67.9263 25.8641C66.9814 26.7582 65.8142 27.179 64.4247 27.179C63.0351 27.179 61.9236 26.7582 60.9231 25.8641C59.9782 24.9699 59.478 23.8654 59.478 22.4979C59.478 21.1304 59.9782 20.0259 60.9231 19.1317C61.9236 18.2376 63.0907 17.8168 64.4803 17.8168C65.8698 17.8168 67.037 18.2376 67.9818 19.1317C68.8711 20.0259 69.3712 21.1304 69.3712 22.4979ZM67.5928 22.4979C67.5928 21.709 67.3149 21.0252 66.7035 20.4992C66.1477 19.9733 65.3696 19.7103 64.4803 19.7103C63.591 19.7103 62.8684 19.9733 62.2571 20.4992C61.6456 21.0252 61.3678 21.709 61.3678 22.4979C61.3678 23.2869 61.6456 23.9706 62.2571 24.4966C62.8129 25.0225 63.591 25.2855 64.4803 25.2855C65.3696 25.2855 66.1477 25.0225 66.7035 24.4966C67.2593 23.9706 67.5928 23.2869 67.5928 22.4979Z" fill="black"/>
<path d="M76.5993 26.7593H71.208V18.2387H76.3213C77.2105 18.2387 77.9328 18.4491 78.4888 18.8173C79.0448 19.1855 79.267 19.764 79.267 20.3951C79.267 20.8159 79.1559 21.1841 78.9331 21.4997C78.7109 21.8152 78.4329 22.0782 78.0439 22.236C79.267 22.5516 79.8782 23.288 79.8782 24.4451C79.8782 25.1814 79.6002 25.76 78.9889 26.1807C78.4329 26.5489 77.6548 26.7593 76.5993 26.7593ZM73.2645 19.764V21.6574H75.8211C76.2654 21.6574 76.5993 21.5523 76.8766 21.3945C77.0994 21.2367 77.2657 20.9737 77.2657 20.7107C77.2657 20.0796 76.8214 19.764 75.8763 19.764H73.2645ZM73.2645 23.1302V25.234H76.2102C76.7103 25.234 77.0436 25.1288 77.3216 24.9711C77.5996 24.7606 77.7106 24.5503 77.7106 24.1821C77.7106 23.8665 77.5996 23.6035 77.3216 23.3932C77.0436 23.1828 76.6545 23.1302 76.2102 23.1302H73.2645Z" fill="black"/>
<path d="M83.71 26.7545H81.7646V18.2338H83.8211V24.0194L88.8791 18.2338H90.8245V26.7545H88.7681V20.9689L83.71 26.7545Z" fill="black"/>
<path d="M95.0198 26.7545H92.9634V18.2338H95.0198V26.7545Z" fill="black"/>
<path d="M97.1915 22.3369L101.311 26.7023H98.6516L94.7397 22.442L98.391 18.2869H100.946L97.1915 22.3369Z" fill="black"/>
<path d="M118.852 29H116.476V26.39H109.996V24.482L116.476 16.13H118.852V24.482H120.652V26.39H118.852V29ZM116.476 19.172L112.3 24.482H116.476V19.172ZM125.169 27.74C125.169 28.136 125.025 28.478 124.737 28.766C124.449 29.042 124.095 29.18 123.675 29.18C123.267 29.18 122.913 29.042 122.613 28.766C122.325 28.478 122.181 28.136 122.181 27.74C122.181 27.332 122.325 26.99 122.613 26.714C122.913 26.426 123.267 26.282 123.675 26.282C124.095 26.282 124.449 26.426 124.737 26.714C125.025 26.99 125.169 27.332 125.169 27.74ZM131.77 29.288C130.786 29.288 129.922 29.078 129.178 28.658C128.434 28.238 127.852 27.656 127.432 26.912C127.012 26.168 126.802 25.316 126.802 24.356C126.802 23.336 127.018 22.364 127.45 21.44C127.882 20.504 128.482 19.598 129.25 18.722C130.018 17.846 130.912 16.982 131.932 16.13H135.1C134.02 16.982 133.114 17.756 132.382 18.452C131.65 19.136 131.062 19.772 130.618 20.36C130.174 20.948 129.838 21.518 129.61 22.07L129.322 21.98C129.634 21.5 130.048 21.116 130.564 20.828C131.08 20.528 131.662 20.378 132.31 20.378C133.174 20.378 133.942 20.564 134.614 20.936C135.286 21.308 135.814 21.818 136.198 22.466C136.594 23.114 136.792 23.858 136.792 24.698C136.792 25.598 136.57 26.396 136.126 27.092C135.694 27.776 135.1 28.316 134.344 28.712C133.588 29.096 132.73 29.288 131.77 29.288ZM131.77 27.308C132.298 27.308 132.76 27.194 133.156 26.966C133.552 26.738 133.864 26.438 134.092 26.066C134.32 25.682 134.434 25.25 134.434 24.77C134.434 24.278 134.32 23.846 134.092 23.474C133.864 23.09 133.552 22.79 133.156 22.574C132.76 22.358 132.298 22.25 131.77 22.25C131.266 22.25 130.816 22.358 130.42 22.574C130.024 22.79 129.712 23.09 129.484 23.474C129.256 23.846 129.142 24.278 129.142 24.77C129.142 25.25 129.256 25.682 129.484 26.066C129.712 26.438 130.024 26.738 130.42 26.966C130.816 27.194 131.266 27.308 131.77 27.308Z" fill="#003C56"/>
</svg>
