<svg width="145" height="45" viewBox="0 0 145 45" fill="none" xmlns="http://www.w3.org/2000/svg">
<path d="M38.2601 11.666H49.6495C49.9147 11.666 50.1297 11.8812 50.1297 12.1467V14.388C50.1297 14.6866 50.0003 14.9693 49.7749 15.1649L43.4059 20.4969H49.6495C49.9147 20.4969 50.1297 20.7081 50.1297 20.9736V23.5467C50.1297 23.8122 49.9147 24.0274 49.6495 24.0274H38.2601C37.9948 24.0274 37.7798 23.8122 37.7798 23.5467V21.309C37.7798 21.0105 37.9092 20.7278 38.1346 20.5322L44.5037 15.2002H38.2601C37.9948 15.2002 37.7798 14.9801 37.7798 14.7147V12.1467C37.7798 11.8812 37.9948 11.666 38.2601 11.666ZM58.069 11.2277C59.3859 11.2277 60.56 11.524 61.5402 12.0656C62.5203 12.6072 63.3066 13.394 63.8477 14.3748C64.3889 15.3557 64.6851 16.5307 64.6851 17.8485C64.6851 19.1664 64.3889 20.3414 63.8477 21.3222C63.3066 22.3031 62.5203 23.0899 61.5402 23.6315C60.56 24.1731 59.3859 24.4694 58.069 24.4694C56.7521 24.4694 55.578 24.1731 54.5978 23.6315C53.6177 23.0899 52.8315 22.3031 52.2903 21.3222C51.7491 20.3414 51.453 19.1664 51.453 17.8485C51.453 16.5307 51.7491 15.3557 52.2903 14.3748C52.8315 13.394 53.6177 12.6072 54.5978 12.0656C55.578 11.524 56.7521 11.2277 58.069 11.2277ZM58.069 14.7588C57.4391 14.7588 56.886 14.892 56.4286 15.1396C55.9712 15.3872 55.6094 15.7492 55.362 16.2069C55.1146 16.6647 54.9815 17.2181 54.9815 17.8485C54.9815 18.479 55.1146 19.0324 55.362 19.4901C55.6094 19.9479 55.9712 20.3099 56.4286 20.5575C56.886 20.8051 57.4391 20.9383 58.069 20.9383C58.699 20.9383 59.252 20.8051 59.7094 20.5575C60.1668 20.3099 60.5286 19.9479 60.776 19.4901C61.0234 19.0324 61.1565 18.479 61.1565 17.8485C61.1565 17.2181 61.0234 16.6647 60.776 16.2069C60.5286 15.7492 60.1668 15.3872 59.7094 15.1396C59.252 14.892 58.699 14.7588 58.069 14.7588ZM72.1833 11.2277C73.5002 11.2277 74.6743 11.524 75.6544 12.0656C76.6346 12.6072 77.4208 13.394 77.962 14.3748C78.5032 15.3557 78.7993 16.5307 78.7993 17.8485C78.7993 19.1664 78.5032 20.3414 77.962 21.3222C77.4208 22.3031 76.6346 23.0899 75.6544 23.6315C74.6743 24.1731 73.5002 24.4694 72.1833 24.4694C70.8663 24.4694 69.6922 24.1731 68.7121 23.6315C67.7319 23.0899 66.9457 22.3031 66.4045 21.3222C65.8633 20.3414 65.5672 19.1664 65.5672 17.8485C65.5672 16.5307 65.8633 15.3557 66.4045 14.3748C66.9457 13.394 67.7319 12.6072 68.7121 12.0656C69.6922 11.524 70.8663 11.2277 72.1833 11.2277ZM72.1833 14.7588C71.5533 14.7588 71.0003 14.892 70.5429 15.1396C70.0854 15.3872 69.7237 15.7492 69.4763 16.2069C69.2288 16.6647 69.0958 17.2181 69.0958 17.8485C69.0958 18.479 69.2288 19.0324 69.4763 19.4901C69.7237 19.9479 70.0854 20.3099 70.5429 20.5575C71.0003 20.8051 71.5533 20.9383 72.1833 20.9383C72.8132 20.9383 73.3662 20.8051 73.8237 20.5575C74.2811 20.3099 74.6428 19.9479 74.8903 19.4901C75.1377 19.0324 75.2707 18.479 75.2707 17.8485C75.2707 17.2181 75.1377 16.6647 74.8903 16.2069C74.6428 15.7492 74.2811 15.3872 73.8237 15.1396C73.3662 14.892 72.8132 14.7588 72.1833 14.7588ZM92.474 12.1482V23.5465C92.474 23.812 92.2589 24.0272 91.9937 24.0272H89.7555C89.4572 24.0272 89.1747 23.8977 88.9792 23.6721L83.6511 17.2992V23.5465C83.6511 23.812 83.4312 24.0272 83.1659 24.0272H80.6013C80.3361 24.0272 80.121 23.812 80.121 23.5465V12.1482C80.121 11.8827 80.3361 11.6675 80.6013 11.6675H82.8395C83.1379 11.6675 83.4203 11.7971 83.6158 12.0227L88.9439 18.3979V12.1482C88.9439 11.8827 89.155 11.6675 89.4203 11.6675H91.9937C92.2589 11.6675 92.474 11.8827 92.474 12.1482Z" fill="url(#paint0_linear_2009_1956)"/>
<path d="M20.6165 32.0742H16.9645V31.3164H20.6165V32.0742ZM21.8947 33.7723H20.9634L18.6353 27.8104H18.964L16.6358 33.7723H15.7411L18.334 27.2444H19.2927L21.8947 33.7723ZM26.2973 33.7723V29.2439H27.1464V33.7723H26.2973ZM22.8918 33.7723V29.2439H23.7409V33.7723H22.8918ZM23.3026 31.7455V31.0425H26.7721V31.7455H23.3026ZM28.2343 33.4619V33.0693H28.3987C28.5265 33.0693 28.6239 33.0419 28.6908 32.9872C28.7639 32.9324 28.8217 32.8411 28.8643 32.7133C28.9069 32.5794 28.9404 32.3937 28.9647 32.1563L29.2934 29.2439H32.5528V33.3524H31.7129V29.3991L32.3063 29.956H29.4304L30.106 29.3991L29.7591 32.2202C29.7225 32.5307 29.6617 32.7772 29.5765 32.9598C29.4973 33.1363 29.3786 33.2641 29.2204 33.3432C29.0621 33.4224 28.8461 33.4619 28.5722 33.4619H28.2343ZM28.0335 34.9684V33.0693H33.2285V34.9684H32.425V33.2337L32.9546 33.7723H28.5174L28.8369 33.2337V34.9684H28.0335ZM37.7627 32.4394L38.2923 32.9872C38.0549 33.2793 37.7627 33.5076 37.4158 33.6719C37.0749 33.8362 36.6884 33.9184 36.2563 33.9184C35.7632 33.9184 35.325 33.8149 34.9415 33.608C34.5581 33.4011 34.2568 33.118 34.0377 32.7589C33.8246 32.3937 33.7181 31.9768 33.7181 31.5081C33.7181 31.0394 33.8216 30.6255 34.0285 30.2664C34.2355 29.9012 34.5216 29.6151 34.8868 29.4082C35.252 29.2013 35.6628 29.0978 36.1193 29.0978C36.5636 29.0978 36.9562 29.2013 37.2971 29.4082C37.644 29.6091 37.9149 29.889 38.1097 30.2482C38.3105 30.6012 38.4109 31.012 38.4109 31.4807V31.5355H37.5527V31.4533C37.5527 31.1246 37.4919 30.8386 37.3701 30.5951C37.2484 30.3455 37.078 30.1538 36.8588 30.0199C36.6458 29.8799 36.3993 29.8099 36.1193 29.8099C35.8211 29.8099 35.5563 29.8799 35.325 30.0199C35.0937 30.1599 34.9142 30.3577 34.7863 30.6134C34.6585 30.8629 34.5946 31.1581 34.5946 31.499C34.5946 31.8398 34.6646 32.1411 34.8046 32.4028C34.9507 32.6585 35.1515 32.8563 35.4072 32.9963C35.6628 33.1363 35.955 33.2063 36.2837 33.2063C36.8862 33.2063 37.3793 32.9506 37.7627 32.4394ZM38.4109 31.7911H34.3481V31.1612H38.2649L38.4109 31.4807V31.7911ZM39.5113 33.7723V29.2439H40.3421V32.6585L40.2782 32.6402L42.9898 29.2439H43.7293V33.7723H42.8985V30.3577L42.9715 30.3851L40.2508 33.7723H39.5113ZM41.6751 28.4313C41.2551 28.4313 40.9051 28.3248 40.6251 28.1117C40.3451 27.8926 40.1808 27.5852 40.1321 27.1896H40.8534C40.8899 27.4452 40.9781 27.6309 41.1181 27.7465C41.2642 27.8622 41.4499 27.92 41.6751 27.92C41.9003 27.92 42.0829 27.8622 42.2229 27.7465C42.3689 27.6309 42.4602 27.4452 42.4968 27.1896H43.218C43.1693 27.5852 43.005 27.8926 42.725 28.1117C42.445 28.3248 42.095 28.4313 41.6751 28.4313ZM47.0576 33.7723V27.2444H47.9341V33.5897L47.4411 33.0054H51.2483L50.9014 33.5897V27.2444H51.7778V33.5897L51.4309 33.0054H55.2381L54.7451 33.5897V27.2444H55.6216V33.7723H47.0576ZM60.9176 32.4394L61.4471 32.9872C61.2098 33.2793 60.9176 33.5076 60.5707 33.6719C60.2298 33.8362 59.8433 33.9184 59.4112 33.9184C58.9181 33.9184 58.4799 33.8149 58.0964 33.608C57.713 33.4011 57.4117 33.118 57.1926 32.7589C56.9795 32.3937 56.873 31.9768 56.873 31.5081C56.873 31.0394 56.9765 30.6255 57.1834 30.2664C57.3904 29.9012 57.6765 29.6151 58.0417 29.4082C58.4069 29.2013 58.8177 29.0978 59.2742 29.0978C59.7185 29.0978 60.1111 29.2013 60.452 29.4082C60.7989 29.6091 61.0698 29.889 61.2645 30.2482C61.4654 30.6012 61.5658 31.012 61.5658 31.4807V31.5355H60.7076V31.4533C60.7076 31.1246 60.6467 30.8386 60.525 30.5951C60.4033 30.3455 60.2329 30.1538 60.0137 30.0199C59.8007 29.8799 59.5542 29.8099 59.2742 29.8099C58.976 29.8099 58.7112 29.8799 58.4799 30.0199C58.2486 30.1599 58.069 30.3577 57.9412 30.6134C57.8134 30.8629 57.7495 31.1581 57.7495 31.499C57.7495 31.8398 57.8195 32.1411 57.9595 32.4028C58.1056 32.6585 58.3064 32.8563 58.5621 32.9963C58.8177 33.1363 59.1099 33.2063 59.4385 33.2063C60.0411 33.2063 60.5341 32.9506 60.9176 32.4394ZM61.5658 31.7911H57.503V31.1612H61.4198L61.5658 31.4807V31.7911ZM62.1457 33.7723V33.0602H62.4927C62.6631 33.0602 62.7879 33.0176 62.867 32.9324C62.9522 32.8472 63.004 32.698 63.0222 32.485L63.3052 29.2439H66.6377V33.7723H65.7886V29.3991L66.3912 29.956H63.4696L64.1269 29.3991L63.8165 32.6311C63.78 33.0572 63.6674 33.3554 63.4787 33.5258C63.29 33.6902 63.007 33.7723 62.6296 33.7723H62.1457ZM71.3571 29.2439H72.2245L69.9694 34.4936C69.8294 34.8284 69.6498 35.0871 69.4307 35.2697C69.2177 35.4523 68.9103 35.5436 68.5086 35.5436H68.0155V34.8314H68.4903C68.679 34.8314 68.8342 34.7827 68.9559 34.6853C69.0838 34.594 69.1872 34.4571 69.2664 34.2745L69.4581 33.7906L67.5043 29.2439H68.4081L70.0424 33.3067H69.7137L71.3571 29.2439ZM72.3865 33.4619V33.0693H72.5508C72.6786 33.0693 72.776 33.0419 72.843 32.9872C72.916 32.9324 72.9738 32.8411 73.0164 32.7133C73.059 32.5794 73.0925 32.3937 73.1169 32.1563L73.4455 29.2439H76.7049V33.3524H75.865V29.3991L76.4584 29.956H73.5825L74.2581 29.3991L73.9112 32.2202C73.8746 32.5307 73.8138 32.7772 73.7286 32.9598C73.6494 33.1363 73.5307 33.2641 73.3725 33.3432C73.2142 33.4224 72.9982 33.4619 72.7243 33.4619H72.3865ZM72.1856 34.9684V33.0693H77.3806V34.9684H76.5771V33.2337L77.1067 33.7723H72.6695L72.989 33.2337V34.9684H72.1856ZM78.5099 33.7723V29.2439H79.3499V33.6445L78.7929 33.0693H80.6737C80.9537 33.0693 81.1698 33.0024 81.3219 32.8685C81.4802 32.7285 81.5593 32.5367 81.5593 32.2933C81.5593 32.0559 81.4802 31.8733 81.3219 31.7455C81.1698 31.6116 80.9537 31.5446 80.6737 31.5446H78.9299V30.8325H80.7102C81.2276 30.8325 81.6415 30.9694 81.9519 31.2433C82.2684 31.5111 82.4267 31.8581 82.4267 32.2841C82.4267 32.5763 82.3536 32.835 82.2076 33.0602C82.0615 33.2793 81.8576 33.4528 81.5958 33.5806C81.3402 33.7084 81.045 33.7723 80.7102 33.7723H78.5099ZM86.4192 33.7723L83.945 31.4259H84.0363L86.2731 29.2439H87.3596L84.931 31.6085L84.7575 31.1338L87.5787 33.7723H86.4192ZM83.3424 33.7723V29.2439H84.1915V33.7723H83.3424ZM90.1688 33.9184C89.6941 33.9184 89.2741 33.8149 88.9089 33.608C88.5437 33.4011 88.2576 33.118 88.0507 32.7589C87.8437 32.3937 87.7403 31.9768 87.7403 31.5081C87.7403 31.0394 87.8437 30.6255 88.0507 30.2664C88.2576 29.9073 88.5437 29.6243 88.9089 29.4173C89.2741 29.2043 89.6941 29.0978 90.1688 29.0978C90.6436 29.0978 91.0605 29.2043 91.4197 29.4173C91.7849 29.6243 92.0709 29.9073 92.2779 30.2664C92.4909 30.6255 92.5974 31.0394 92.5974 31.5081C92.5974 31.9768 92.4909 32.3937 92.2779 32.7589C92.0709 33.118 91.7849 33.4011 91.4197 33.608C91.0605 33.8149 90.6436 33.9184 90.1688 33.9184ZM90.1688 33.188C90.4732 33.188 90.741 33.118 90.9723 32.978C91.2036 32.838 91.3831 32.6402 91.511 32.3846C91.6388 32.1289 91.7027 31.8368 91.7027 31.5081C91.7027 31.1794 91.6388 30.8903 91.511 30.6407C91.3831 30.3851 91.2036 30.1873 90.9723 30.0473C90.741 29.9012 90.4732 29.8282 90.1688 29.8282C89.8645 29.8282 89.5937 29.9012 89.3563 30.0473C89.125 30.1873 88.9454 30.3851 88.8176 30.6407C88.6898 30.8903 88.6259 31.1794 88.6259 31.5081C88.6259 31.8368 88.6898 32.1289 88.8176 32.3846C88.9454 32.6402 89.125 32.838 89.3563 32.978C89.5937 33.118 89.8645 33.188 90.1688 33.188Z" fill="black"/>
<path d="M110.54 29H108.164V26.39H101.684V24.482L108.164 16.13H110.54V24.482H112.34V26.39H110.54V29ZM108.164 19.172L103.988 24.482H108.164V19.172ZM116.858 27.74C116.858 28.136 116.714 28.478 116.426 28.766C116.138 29.042 115.784 29.18 115.364 29.18C114.956 29.18 114.602 29.042 114.302 28.766C114.014 28.478 113.87 28.136 113.87 27.74C113.87 27.332 114.014 26.99 114.302 26.714C114.602 26.426 114.956 26.282 115.364 26.282C115.784 26.282 116.138 26.426 116.426 26.714C116.714 26.99 116.858 27.332 116.858 27.74ZM123.423 15.842C124.407 15.842 125.271 16.052 126.015 16.472C126.771 16.892 127.353 17.474 127.761 18.218C128.181 18.95 128.391 19.802 128.391 20.774C128.391 21.794 128.175 22.772 127.743 23.708C127.323 24.632 126.729 25.532 125.961 26.408C125.193 27.272 124.299 28.136 123.279 29H120.111C121.191 28.136 122.091 27.362 122.811 26.678C123.543 25.994 124.131 25.358 124.575 24.77C125.031 24.182 125.367 23.612 125.583 23.06L125.871 23.15C125.559 23.63 125.145 24.02 124.629 24.32C124.113 24.608 123.531 24.752 122.883 24.752C122.031 24.752 121.263 24.566 120.579 24.194C119.907 23.822 119.373 23.312 118.977 22.664C118.593 22.016 118.401 21.272 118.401 20.432C118.401 19.532 118.617 18.74 119.049 18.056C119.493 17.36 120.093 16.82 120.849 16.436C121.605 16.04 122.463 15.842 123.423 15.842ZM123.423 17.822C122.907 17.822 122.445 17.936 122.037 18.164C121.641 18.38 121.329 18.68 121.101 19.064C120.873 19.448 120.759 19.88 120.759 20.36C120.759 20.84 120.873 21.272 121.101 21.656C121.329 22.04 121.641 22.34 122.037 22.556C122.445 22.772 122.907 22.88 123.423 22.88C123.939 22.88 124.389 22.772 124.773 22.556C125.169 22.34 125.481 22.04 125.709 21.656C125.937 21.272 126.051 20.84 126.051 20.36C126.051 19.88 125.937 19.448 125.709 19.064C125.481 18.68 125.169 18.38 124.773 18.164C124.389 17.936 123.939 17.822 123.423 17.822Z" fill="#003C56"/>
<defs>
<linearGradient id="paint0_linear_2009_1956" x1="92.4725" y1="24.9108" x2="37.7798" y2="24.9108" gradientUnits="userSpaceOnUse">
<stop stop-color="#6339F5"/>
<stop offset="1" stop-color="#3D3F55"/>
</linearGradient>
</defs>
</svg>
