<svg width="267" height="261" fill="none" xmlns="http://www.w3.org/2000/svg"><rect y="63" width="281" height="281" rx="140.5" fill="#6683C2"/><path d="M194.734 16.665c.077-.058.154-.115.23-.174 1.932-1.493 3.542-3.668 5.273-5.396l25.18-25.388c2.771-2.786 5.396-5.789 8.25-8.48.599-.564 12.777-10.71 16.516-13.79 7.196-5.926 30.727-22.418 31.325-22.436 6.15-.185-20.55 30.895-14.393 30.903 3.517.004-2.816 3.158.597 3.52 2.334.246 4.233 1.24 5.681 3.092.706.901 1.195 1.884 1.391 3.014.514 2.954.224 8.598.243 11.85.041 7.252.28 14.583-.016 21.825-1.498 1.324-3.293 2.38-4.957 3.48a908.16 908.16 0 0 0-7.914 5.254l-24.319 16.515-8.71 5.877c-1.917 1.268-3.945 2.44-5.783 3.818-.139-.498-.31-.973-.499-1.455-4.335-11.021-17.238-27.278-28.095-32.03Z" fill="#89A2D8"/><path d="M193.753 19.305c1.17-.4 1.702-.277 2.812.268 7.766 3.817 22.27 21.703 24.8 29.994.061.199.072.37.057.576-8.188 5.39-16.306 10.684-25.082 15.097-7.784 3.914-16.052 6.919-23.397 11.645-8.829 5.68-16.744 12.896-24.804 19.589-2.601 2.16-5.122 4.589-7.903 6.509-3.48 2.332-7.135 6.285-11.749 5.437a12.94 12.94 0 0 1-1.803-.488 18.055 18.055 0 0 1-2.847-2.608c-.842-1.708-1.25-3.714-.736-5.577.19-.503.316-1.044.465-1.561.937-4.978 3.909-8.928 6.596-13.1 4.939-7.3 10.436-14.204 15.408-21.476 1.078-1.369 2.043-2.839 3.104-4.226-.684-3.794-2.293-7.532-5.079-10.261-4.322-4.233-10.341-5.625-16.237-5.534-3.573.371-12.423 6.362-14.899 9.083 1.058 5.802 2.544 11.533 3.977 17.252 1.016 4.055 1.943 8.168 3.1 12.183-.617.485-2.284.443-3.109.578-1.186.195-2.376.608-3.507 1.009-2.512.89-4.332 2.175-6.594 3.505-1.518-2.047-3.108-5.271-4.452-7.544a592.523 592.523 0 0 1-7.03-12.233c-1.28-2.265-2.741-4.552-3.75-6.949.09-1.103-.46-2.39-.776-3.448-.094-.404-.18-.81-.256-1.218-.554-3.032-.514-6.417.794-9.259.52-1.13 1.22-2.138 2.03-3.078 1.572-1.82 3.504-3.406 5.24-5.077 3.142-3.025 6.243-6.084 9.422-9.072 1.785-1.678 3.812-3.289 5.212-5.307-1.118.597-3.212 2.94-4.254 3.921l-9.888 9.497c-1.74 1.68-3.545 3.302-5.23 5.035a17.933 17.933 0 0 0-1.977 2.383c-2.397 3.48-2.288 7.79-1.548 11.773.305 1.043.661 2.097.89 3.158-.054-.074-.108-.149-.163-.222-2.36-3.12-5.676-9.186-6.749-12.864-.89-3.056-1.14-6.092.435-8.981.919-1.41 1.89-2.732 3.089-3.92 2.127-2.107 4.707-3.854 7.096-5.655l10.403-7.85c1.813-1.357 3.72-2.561 5.314-4.186-.042.008-.087.007-.127.023-1.477.591-20.482 15.147-22.419 16.94-1.36 1.259-2.463 2.659-3.415 4.244-1-3.918-.512-8.063 1.493-11.556 1.902-2.892 4.535-5.157 7.442-6.99 2.123-1.337 4.38-2.41 6.59-3.593 4.585-2.456 8.931-5.102 14.129-6.098 9.939-1.906 23.353 3.649 32.87 6.7 5.943 1.906 11.904 3.774 17.995 5.156 7.818 1.776 15.427 2.225 23.299.386 1.919-.449 4.03-.947 5.718-2.01Zm-57.374 73.68c-3.258.945-5.948 4.026-7.548 6.923-.722 1.307-1.204 2.798-.789 4.287.237.852.73 1.525 1.516 1.943 1.19.632 2.596.565 3.873.307 2.414-.958 7.173-3.968 8.276-6.312.52-1.107.52-2.367.092-3.5-.535-1.416-1.68-2.602-3.057-3.218-.78-.349-1.516-.443-2.363-.43Z" fill="#F1BBA2"/><path d="M84.219 37.309c.953-1.585 2.056-2.985 3.416-4.244 1.937-1.793 20.941-16.349 22.418-16.94.04-.016.085-.016.127-.023-1.594 1.625-3.5 2.83-5.314 4.186l-10.403 7.85c-2.389 1.8-4.969 3.547-7.096 5.655-1.2 1.188-2.17 2.509-3.089 3.92l-.06-.404Z" fill="#331310"/><path d="M193.755 19.304c-.06-.434-.139-.889-.054-1.325.13-.665.489-.966 1.039-1.315 10.856 4.752 23.76 21.008 28.094 32.03.19.481.36.957.5 1.455-.285.36-.471.608-.911.788-.438-.073-.538-.114-.829-.484-.077-.098-.118-.2-.17-.31a1.456 1.456 0 0 0-.057-.576c-2.53-8.291-17.033-26.178-24.8-29.995-1.109-.545-1.641-.668-2.812-.268Z" fill="#5D4130"/><path d="M89.866 56.623c-.74-3.983-.85-8.294 1.548-11.773.589-.85 1.25-1.647 1.977-2.383 1.685-1.733 3.49-3.356 5.23-5.035l9.888-9.497c1.042-.982 3.136-3.325 4.254-3.921-1.4 2.018-3.427 3.628-5.212 5.306-3.179 2.99-6.28 6.047-9.423 9.072-1.735 1.671-3.666 3.257-5.238 5.078-.811.94-1.51 1.947-2.03 3.078-1.309 2.842-1.349 6.227-.794 9.258.076.408.161.815.255 1.219l-.455-.402Z" fill="#331310"/><path d="m89.86 56.623.454.402c.317 1.057.867 2.345.777 3.448l-.341-.692c-.23-1.06-.586-2.115-.89-3.158Z" fill="#5D2E26"/><path d="m119.539 82.107.183.257c3.537.312 7.462.532 10.444 2.723-2.687 4.172-5.66 8.122-6.597 13.1-1.278-.753-2.255-1.276-3.769-1.32-.07-.64-.041-1.88-.407-2.392-.348-.114-.791-.167-1.142-.01-.192.085-.234.131-.383.251-.131.748-.029 1.387.364 2.037.065.107.116.222.173.333-1.585 1.489-3.231 1.184-3.302 4.235-.029 1.247.568 2.411 1.46 3.257 1.135 1.076 2.556 1.581 4.056 1.906.603 1.83 1.051 3.686 1.442 5.572-.92-.224-1.706-.443-2.546-.896-.757-.408-1.446-.868-2.337-.646-.282.282-.353.342-.318.775.061.766.998 1.583 1.599 1.952 1.261.772 2.669.875 4.109.914.083.527.063 1.203.499 1.559.296.241.62.238.968.183.287-.305.495-.478.511-.932.013-.397-.3-.884-.489-1.226 1.473-.928 2.662-1.778 3.09-3.572.059-.255.112-.511.159-.769-.214-.482-.45-.965-.618-1.465a12.89 12.89 0 0 0 1.802.488c4.614.848 8.269-3.105 11.749-5.437.751 3.268-1.669 9.354-3.411 12.14-.913 1.461-1.996 2.796-3.095 4.12-.06.018-.121.031-.179.054-1.075.423-1.985 1.547-3.017 2.116-4.569 2.52-10.777 3.77-15.896 2.419-2.398-.476-4.728-1.539-6.772-2.864a20.206 20.206 0 0 1-8.802-12.992c-1.043-5.008-.397-10.477 2.294-14.88.884-1.446 2.013-2.698 2.925-4.114l.071-.112c.416-.71 1.247-1.316 1.972-1.67 2.262-1.33 4.083-2.616 6.594-3.506 1.132-.401 2.321-.814 3.507-1.009.826-.136 2.492-.094 3.109-.579Zm-1.286 6.17a16.171 16.171 0 0 0-10.734 6.231 15.326 15.326 0 0 0-2.893 11.619c.581 3.917 2.679 7.653 5.889 10.007a13.66 13.66 0 0 0 5.185 2.384c-.543-.65-2.676-1.307-3.57-1.808-5.121-2.875-7.725-8.656-7.201-14.422a14.876 14.876 0 0 1 5.419-10.212c2.011-1.643 4.172-2.52 6.66-3.171.401-.105 1.253-.16 1.365-.554l-.12-.074Z" fill="#F2C45B"/><path d="M115.693 118.518a13.66 13.66 0 0 1-5.185-2.384c-3.21-2.354-5.308-6.09-5.889-10.007a15.325 15.325 0 0 1 2.893-11.619 16.172 16.172 0 0 1 10.734-6.23l.12.073c-.112.394-.964.45-1.365.554-2.488.65-4.649 1.528-6.66 3.171a14.877 14.877 0 0 0-5.419 10.211c-.524 5.767 2.08 11.548 7.201 14.423.894.501 3.027 1.158 3.57 1.808Z" fill="#331310"/><path d="M107.061 121.244c-1.253-.871-2.445-1.826-3.5-2.93-3.818-3.999-5.757-9.787-5.585-15.266a20.165 20.165 0 0 1 6.382-14.177l-.07.112c-.912 1.415-2.042 2.667-2.925 4.114-2.691 4.403-3.338 9.872-2.295 14.88a20.203 20.203 0 0 0 8.802 12.992c2.044 1.325 4.375 2.388 6.772 2.864l-.418.287c-2.352-.49-4.295-1.286-6.338-2.553-4.866.98-9.602 2.19-14.295 3.823l-.716-.183c4.651-1.645 9.381-2.866 14.186-3.963Z" fill="#5D2E26"/><path d="M133.433 106.446c-1.277.258-2.683.325-3.873-.307-.786-.418-1.279-1.091-1.516-1.943-.415-1.489.067-2.98.789-4.287 1.6-2.897 4.289-5.978 7.548-6.924.847-.012 1.583.082 2.362.431 1.378.616 2.523 1.802 3.058 3.217.428 1.134.428 2.394-.093 3.5-1.102 2.345-5.861 5.355-8.275 6.313Z" fill="#ECECEC"/><path d="M119.8 96.865c1.514.045 2.49.568 3.769 1.32-.149.517-.275 1.058-.465 1.561-.677-.353-1.481-.867-2.269-.702-.265.316-.322.497-.298.918.076 1.385.876 3.29 1.368 4.597l1.935.764c.856.98 1.804 1.831 2.847 2.608.169.5.405.983.618 1.465a14.36 14.36 0 0 1-.159.769c-.428 1.795-1.616 2.644-3.089 3.572.189.342.502.829.488 1.226-.016.455-.223.627-.51.933-.348.054-.672.057-.968-.184-.437-.356-.416-1.032-.5-1.559-1.44-.039-2.847-.142-4.108-.914-.601-.368-1.538-1.185-1.6-1.952-.035-.433.036-.493.318-.774.892-.222 1.58.237 2.338.645.84.453 1.625.672 2.545.896-.391-1.886-.838-3.742-1.442-5.572-1.499-.325-2.921-.83-4.055-1.906-.892-.846-1.49-2.01-1.46-3.257.071-3.05 1.716-2.746 3.302-4.234-.057-.112-.108-.227-.173-.334-.393-.65-.495-1.289-.365-2.036.15-.12.191-.167.383-.252.352-.157.794-.103 1.143.01.365.512.337 1.752.407 2.392Zm-1.103 2.483c-.574.629-.895 1.135-.858 2.014.032.755.444 1.476 1.012 1.959.244.207.5.369.779.524l.296-.121c-.093-1.369-.638-2.82-.941-4.173l-.288-.203Zm3.515 7.274c.308 1.214.595 3.891 1.432 4.765.399-.003.443-.142.743-.386.386-.713.568-1.523.319-2.319-.256-.819-.924-1.433-1.692-1.771a8.42 8.42 0 0 0-.802-.289Z" fill="#F2C45B"/><path d="M121.904 104.561c-.492-1.308-1.291-3.213-1.368-4.597-.023-.421.033-.602.299-.918.787-.166 1.591.349 2.268.702-.513 1.863-.105 3.868.736 5.577l-1.935-.764ZM119.63 103.845a4.699 4.699 0 0 1-.779-.524c-.568-.483-.98-1.204-1.012-1.959-.037-.879.284-1.385.858-2.014l.288.203c.302 1.353.847 2.804.941 4.173l-.296.121ZM124.386 111.001c-.3.245-.343.384-.743.386-.836-.873-1.123-3.551-1.432-4.764.27.086.542.174.802.289.769.338 1.436.952 1.692 1.77.25.796.067 1.607-.319 2.319Z" fill="#F2C45B"/><path d="M49.46 122.543c.22-2.224.915-4.803 2.7-6.291 3.016-2.516 8.423-1.936 12.034-1.516 10.326 1.2 18.684 5.293 27.275 10.921l1.4-.452.717.183c-8.897 3.135-17.074 7.251-24.998 12.368l-.118-.388c-1.49-2.671-2.988-5.342-4.647-7.912-2.04-3.16-6.752-9.649-10.693-10.38-.683-.126-1.384-.03-1.943.407-.961.752-1.229 2.005-1.41 3.141l-.316-.081Z" fill="#D8997B"/><path d="M49.78 122.625c.18-1.136.448-2.389 1.41-3.141.558-.437 1.259-.534 1.942-.407 3.942.731 8.654 7.22 10.694 10.38 1.658 2.57 3.157 5.24 4.646 7.912-5.75 3.69-10.663 8.123-15.276 13.136-1.094-3.937-3.822-19.083-3.64-22.983.32-1.492.15-3.351.224-4.897Z" fill="#BA866D"/><path d="M114.638 123.831c5.119 1.351 11.327.101 15.896-2.419 1.032-.569 1.942-1.693 3.016-2.116.058-.023.12-.036.18-.054 2.545.151 5.095.285 7.631.551 1.524.161 3.253.574 4.771.521.97-.034 2.054-.676 3.037-.895 4.574-1.019 9.136-.35 12.37 3.307 1.076 1.217 2.865 4.531 3.999 5.226.028.017.056.036.083.054l-.163.419c.764 2.032 1.806 3.949 2.5 6.01 1.43 4.252 5.24 19.645 3.813 23.465-.008.02-.025.036-.038.054-.677-.81-.579-3.909-.655-5.071-.93-9.095-4.132-25.054-11.589-30.913-.077-.061-.156-.12-.234-.179.617 1.938 1.181 3.84 1.513 5.854 1.69 10.259.316 24.551-1.403 34.86-.285.25-.115.166-.519.228l-.291-.339c1.638-7.338 2.382-19.806 2.075-27.428-.145-3.585-.405-11.399-3.148-13.8-1.467-1.284-3.495-1.413-5.354-1.286-8.737.597-18.397 9.075-23.865 15.542-1.505 1.78-2.669 3.892-4.192 5.605a8.05 8.05 0 0 1-.087.094c-.2-.179-.218-.228-.306-.469.405-1.287 1.465-2.499 2.273-3.555a60.627 60.627 0 0 1 8.552-9.077c1.446-1.25 3.005-2.368 4.43-3.639-9.722.903-19.412 4.985-27.388 10.498-2.186 1.511-4.112 3.45-6.313 4.885-1.828 1.192-3.924 1.464-6.04.985-1.105-.25-2.507-.84-3.108-1.866a1.807 1.807 0 0 1-.181-1.402c.826-3.04 9.316-8.537 12.259-10.204 1.936-1.097 4.015-1.947 5.926-3.079l.131-.079.419-.288Z" fill="#8C5E49"/><path d="m123.984 141.124.087-.095c1.524-1.712 2.687-3.824 4.192-5.604 5.469-6.467 15.128-14.945 23.866-15.543 1.858-.127 3.887.002 5.354 1.287 2.742 2.401 3.002 10.215 3.147 13.799.308 7.622-.437 20.091-2.074 27.429-6.631-8.062-19.554-16.15-29.359-19.722-1.678-.612-3.442-1.294-5.213-1.551Z" fill="#BA866D"/><path d="M107.884 121.566c2.043 1.267 3.986 2.063 6.338 2.553l-.131.08c-1.911 1.132-3.99 1.982-5.926 3.079-2.943 1.667-11.433 7.164-12.259 10.204-.132.472-.067.978.181 1.402.6 1.025 2.003 1.616 3.108 1.866 2.116.478 4.212.207 6.04-.985 2.201-1.435 4.127-3.375 6.313-4.885 7.976-5.513 17.667-9.596 27.388-10.498-1.425 1.27-2.983 2.389-4.429 3.639a60.527 60.527 0 0 0-8.552 9.077c-.809 1.055-1.869 2.268-2.274 3.554.088.242.106.29.306.47 1.771.257 3.535.94 5.213 1.551 9.805 3.572 22.728 11.66 29.359 19.722l.29.339c.404-.062.234.022.519-.228 1.09-.693 2.092-2.057 3.057-2.972 2.274-2.157 4.738-4.365 7.334-6.128.452-.308.772-.632 1.322-.522.076 1.161-.022 4.261.655 5.071.013-.018.03-.034.038-.054 1.427-3.82-2.383-19.214-3.813-23.465-.694-2.062-1.735-3.978-2.5-6.01 17.545 6.51 33.443 19.012 41.375 36.278a64.358 64.358 0 0 1 1.746 48.929 67.679 67.679 0 0 1-18.64 27.224l-.009 16.075c.009 2.298-.239 4.989.187 7.224-3.038.316-7.234.046-10.395.046h-21.966l.015-8.522c-6.332 1.677-11.752 2.712-18.277 3.418-.023 1.698.01 3.401.017 5.1l-31.814.023.017-5.301c-2.123-.42-4.299-.618-6.433-.992-2.72-.477-5.4-1.128-8.097-1.721a83.453 83.453 0 0 1-33.686-17.215c-13.132-11-20.736-24.716-22.259-41.818 4.327.28 8.731-.012 12.62-2.126 1.115-.607 2.098-1.393 3.168-2.069a21.913 21.913 0 0 0-.264 5.89c.546 6.492 3.737 12.118 8.719 16.265 4.729 3.937 11.291 6.086 17.439 5.498 1.858-.179 3.583-.71 5.388-1.135 6.246-1.473 10.002-2.656 14.232-7.872a23.144 23.144 0 0 0 5.01-17.135 22.427 22.427 0 0 0-8.446-15.368c-4.294-3.413-8.093-4.082-13.349-4.81-2.652-.367-5.18-.653-7.859-.336-6.69.791-12.403 4.333-16.537 9.56-.915-1.833-1.424-3.63-2.69-5.304-3.317-4.385-8.62-5.627-13.79-6.359 1.315-3.04 2.52-6.058 4.107-8.976 5.45-10.012 13.994-19.023 23.602-25.14 7.924-5.117 16.101-9.233 24.998-12.368 4.692-1.633 9.428-2.843 14.294-3.823Zm9.296 82.866c-1.607 1.605-2.835 4.024-4.167 5.884-7.263 10.14-12.998 17.776-26.71 17.702-5.929-.032-11.634-1.922-17.095-4.072-.897-.353-2.729-1.57-3.617-1.265l-.149.346c.483 1.078 3.54 1.954 4.663 2.382 8.637 3.294 18.924 5.298 27.693 1.396 8.944-3.981 14.58-13.939 19.893-21.719.423.339.861.669 1.314.967.889.584 2.863 1.711 3.916 1.41.246-.071.181-.076.313-.323-1.468-1.238-3.589-1.581-5.075-2.973-1.723-1.613-.939-4.182-2.148-5.823l-.248.075c-.027.056-.059.111-.082.169-.747 1.937.649 4.148 1.499 5.844Zm-44.994-41.71a4.005 4.005 0 1 0 2.169 7.71 4.005 4.005 0 0 0-2.169-7.71Zm29.463.079a3.906 3.906 0 1 0 .953 7.754 3.906 3.906 0 0 0-.953-7.754Zm27.417 11.094c-3.71.625-7.052 2.23-9.281 5.353a11.12 11.12 0 0 0-1.854 8.457c.571 3.145 2.553 5.783 5.168 7.553 3.259 2.206 7.025 3.004 10.912 2.44 3.86-.91 7.137-2.519 9.27-6.007a11.322 11.322 0 0 0 1.33-8.502 11.823 11.823 0 0 0-5.489-7.284c-2.958-1.757-6.647-2.465-10.056-2.01Z" fill="#E9B49C"/><path d="M171.081 152.885c-.55-.109-.87.215-1.322.522-2.595 1.764-5.06 3.972-7.334 6.129-.965.915-1.967 2.279-3.056 2.972 1.719-10.309 3.092-24.602 1.402-34.86-.332-2.014-.895-3.916-1.513-5.855.078.06.157.118.234.179 7.457 5.859 10.659 21.819 11.589 30.913Z" fill="#D8997B"/><path d="M49.56 127.521c-.28-1.527-.32-3.443-.093-4.978l.317.081c-.075 1.546.096 3.405-.224 4.897Z" fill="#974D3C"/><path d="m165.461 128.425.164-.419c17.784 6.585 33.912 19.49 41.909 36.969 1.479 3.234 2.345 6.459 3.427 9.821 2.852-.625 5.358-1.691 7.718-3.415-2.541-.135-5.061-1.914-6.725-3.777-1.438-1.608-2.401-3.889-2.28-6.062.105-1.882.975-3.517 2.419-4.719a8.24 8.24 0 0 1 6.182-1.83 9.321 9.321 0 0 1 6.363 3.658c1.339 1.796 1.846 3.827 1.506 6.04-.305 1.985-1.289 3.878-2.384 5.535 3.095.052 5.679-.136 8.042-2.459 2.423-2.38 3.361-5.942 3.349-9.253-.009-2.5-.517-4.928-1.417-7.257-.283-.731-.837-1.554-.989-2.31-.05-.248-.04-.541.114-.737.356.084.482.204.676.507 2.701 4.224 3.633 10.331 2.332 15.159-.798 2.958-2.432 5.829-5.151 7.391-2.807 1.613-6.262 1.748-9.401 1.375-2.701 2.286-6.152 4.178-9.749 4.438.622 2.596.922 5.307 1.167 7.963a65.105 65.105 0 0 1-9.277 40.436c-3.452 5.631-7.998 11.298-13.04 15.584l-.001 11.214c0 1.839.103 3.742-.02 5.573-.155 2.051-.091 4.145-.096 6.202l-.178.103c-.427-2.235-.179-4.925-.188-7.223l.009-16.075a67.682 67.682 0 0 0 18.64-27.225 64.358 64.358 0 0 0-1.746-48.929c-7.932-17.265-23.83-29.768-41.375-36.278Zm67.842 39.746c1.589-2.173 2.404-4.787 2.66-7.451.127-1.321.171-5.323-.629-6.292-.282.269.041 2.413.078 2.919.279 3.894-.42 6.743-2.564 10-1.922 2.151-4.091 3.372-6.993 3.539-.879.051-1.778.051-2.656-.019l-1.275 1.214c3.468.194 7.172.01 9.922-2.401a14.126 14.126 0 0 0 1.457-1.509Zm-16.738-12.57c-2.092.389-3.99 1.222-5.21 3.054-.951 1.43-1.204 3.122-.851 4.79.559 2.642 2.457 4.828 4.702 6.231.855.535 2.532 1.437 3.527 1.234.377-.077.462-.109.676-.417-.678-.627-1.535-1.022-2.331-1.482-2.677-1.544-5.116-3.439-5.183-6.836-.027-1.349.426-2.67 1.417-3.608 1.121-1.063 2.718-1.507 4.237-1.439 1.857.083 3.711.89 4.953 2.286 1.081 1.214 1.549 2.613 1.588 4.221-.501 3.655-2.417 6.125-5.316 8.307-1.55 1.165-3.309 2.163-5.158 2.764-.774.251-1.841.258-2.5.729.051.455.061.567.322.937.907.397 2.866-.411 3.768-.764 4.008-1.567 7.775-4.534 9.531-8.543.888-2.027 1.188-4.12.36-6.235a8.1 8.1 0 0 0-4.422-4.525 8.98 8.98 0 0 0-4.11-.704Zm.313 2.022c-1.492.39-3.004.957-3.864 2.335-.598.956-.682 2.151-.4 3.226.722 2.752 3.586 4.794 5.953 6.083.346.188.702.359 1.065.511.585.033.825-.093 1.254-.491 1.463-1.356 2.563-3.858 2.541-5.863-.017-1.564-.734-3.027-1.881-4.076-1.159-1.061-2.919-1.77-4.498-1.736-.056.001-.113.007-.17.011Z" fill="#5D2E26"/><path d="m68.477 137.371.118.388c-9.608 6.117-18.152 15.128-23.602 25.141-1.587 2.917-2.792 5.935-4.106 8.975a61.79 61.79 0 0 0-3.642 25.302c1.523 17.101 9.128 30.818 22.26 41.817a83.44 83.44 0 0 0 33.685 17.215l-.04.293c-10.91-2.504-21.392-7.673-30.37-14.314a621.554 621.554 0 0 0-.068 13.979c.01 2.528.3 5.515-.126 7.992l-.211-.133c-.147-1.447-.063-2.964-.07-4.421l.013-.447-.016-4.63.008-.463-.004-4.66.005-.506-.008-4.569.013-.472.005-1.912a314.161 314.161 0 0 0-3.144-2.625l-.445-.393c-1.537-1.306-2.984-2.746-4.455-4.126-2.799-3.179-5.492-6.327-8.063-9.697-4.971-8.111-8.181-15.928-9.155-25.481a62.98 62.98 0 0 1 7.99-37.657c2.382-4.121 5.142-7.783 8.152-11.459 4.613-5.014 9.525-9.447 15.276-13.137Z" fill="#331310"/><path d="M232.844 167.349c2.144-3.258 2.843-6.106 2.564-10-.037-.506-.36-2.651-.078-2.919.8.969.756 4.971.629 6.292-.256 2.663-1.071 5.278-2.66 7.451l-.455-.824Z" fill="#F37E60"/><path d="M224.082 163.639c-.039-1.608-.508-3.008-1.588-4.222-1.243-1.395-3.097-2.203-4.953-2.286-1.519-.068-3.116.377-4.238 1.439-.991.939-1.443 2.26-1.416 3.608.067 3.398 2.506 5.292 5.182 6.837.796.459 1.653.855 2.332 1.482-.214.308-.299.34-.676.417-.995.203-2.672-.7-3.527-1.234-2.246-1.404-4.143-3.59-4.702-6.231-.353-1.669-.1-3.36.851-4.79 1.219-1.832 3.118-2.665 5.21-3.054a8.98 8.98 0 0 1 4.11.703 8.1 8.1 0 0 1 4.421 4.525c.829 2.116.529 4.208-.359 6.235-1.757 4.01-5.523 6.976-9.531 8.544-.902.352-2.861 1.16-3.768.763-.261-.37-.271-.481-.322-.936.659-.471 1.726-.479 2.499-.73 1.85-.6 3.609-1.598 5.158-2.764 2.9-2.181 4.816-4.651 5.317-8.306Z" fill="#E99E87"/><path d="M74.237 170.463a4.004 4.004 0 1 1-1.932-7.772 4.004 4.004 0 0 1 1.932 7.772ZM102.608 170.556a3.907 3.907 0 1 1-.963-7.755 3.907 3.907 0 0 1 .963 7.755Z" fill="#5D4130"/><path d="m232.845 167.348.455.823a14.024 14.024 0 0 1-1.456 1.509c-2.75 2.411-6.455 2.595-9.922 2.401l1.275-1.213c.877.069 1.776.07 2.655.019 2.903-.168 5.072-1.388 6.993-3.539Z" fill="#E99E87"/><path d="M37.242 197.174a61.784 61.784 0 0 1 3.641-25.301c5.169.732 10.472 1.973 13.79 6.359 1.266 1.674 1.775 3.471 2.69 5.304-2.036 2.88-3.612 5.969-4.334 9.443-1.07.676-2.053 1.462-3.167 2.068-3.89 2.115-8.294 2.407-12.62 2.127Z" fill="#F37E60"/><path d="M57.365 183.536c4.134-5.227 9.848-8.768 16.538-9.56 2.678-.316 5.207-.031 7.859.336 5.255.728 9.054 1.398 13.349 4.811a22.431 22.431 0 0 1 8.446 15.367 23.15 23.15 0 0 1-5.01 17.136c-4.23 5.215-7.987 6.399-14.233 7.871-1.804.425-3.53.957-5.387 1.135-6.148.589-12.71-1.561-17.44-5.498-4.981-4.147-8.172-9.772-8.718-16.265a21.9 21.9 0 0 1 .264-5.889c.721-3.474 2.298-6.563 4.332-9.444Zm17.698-9.272c-12.671.675-22.407 11.476-21.769 24.15.639 12.673 11.411 22.441 24.086 21.839 12.728-.604 22.545-11.43 21.904-24.156-.642-12.726-11.497-22.511-24.22-21.833Zm8.974.848c6.52 2.902 11.23 6.408 13.862 13.301 2.346 6.142 2.278 12.974-.474 18.967-2.46 5.36-6.237 8.668-11.366 11.359 1.267-.286 2.473-.599 3.691-1.049 5.52-2.334 9.613-6.547 11.882-12.09 2.336-5.709 2.149-12.057-.243-17.716-2.19-5.184-6.627-9.555-11.868-11.63-1.736-.687-3.612-1.134-5.484-1.142Z" fill="#331310"/><path d="M134.011 197.697c-3.888.564-7.654-.234-10.913-2.44-2.615-1.769-4.597-4.408-5.168-7.552a11.122 11.122 0 0 1 1.854-8.458c2.229-3.123 5.571-4.728 9.281-5.353 3.409-.455 7.098.254 10.056 2.01a11.825 11.825 0 0 1 5.489 7.284 11.324 11.324 0 0 1-1.33 8.503c-2.133 3.488-5.41 5.096-9.269 6.006ZM77.374 220.253c-12.676.601-23.448-9.166-24.086-21.84-.64-12.673 9.097-23.474 21.769-24.149 12.724-.678 23.579 9.107 24.22 21.833.641 12.725-9.176 23.552-21.903 24.156Zm-10.96-26.759a2.83 2.83 0 1 0 1.644 5.416 2.83 2.83 0 0 0-1.644-5.416Zm16.001.071a3.024 3.024 0 1 0 .246 6.044 3.024 3.024 0 0 0-.246-6.044Z" fill="#F37E60"/><path d="M86.061 218.741c5.13-2.692 8.906-6 11.366-11.36 2.752-5.993 2.82-12.825.474-18.967-2.633-6.893-7.343-10.399-13.862-13.301 1.872.008 3.748.455 5.484 1.142 5.241 2.075 9.677 6.446 11.868 11.63 2.392 5.659 2.579 12.007.242 17.716-2.268 5.543-6.361 9.756-11.88 12.09-1.22.45-2.425.763-3.692 1.05Z" fill="#F37E60"/><path d="M67.92 198.948a2.83 2.83 0 1 1-1.368-5.491 2.83 2.83 0 0 1 1.368 5.491ZM82.739 199.606a3.023 3.023 0 0 1-2.889-4.401 3.027 3.027 0 0 1 5.712 1.222 3.025 3.025 0 0 1-2.823 3.179Z" fill="#5D4130"/><path d="M117.173 204.434c-.85-1.696-2.247-3.907-1.499-5.844.023-.059.054-.113.081-.17l.248-.074c1.21 1.641.425 4.21 2.148 5.823 1.487 1.392 3.607 1.734 5.075 2.972-.132.248-.067.253-.313.323-1.053.302-3.027-.826-3.915-1.41a17.46 17.46 0 0 1-1.314-.966l-.348-.155-.163-.499Z" fill="#5D2E26"/><path d="M117.694 205.088c-5.313 7.779-10.949 17.738-19.893 21.718-8.77 3.902-19.056 1.898-27.693-1.396-1.122-.428-4.18-1.303-4.663-2.382l.149-.346c.888-.305 2.72.912 3.617 1.265 5.46 2.151 11.166 4.041 17.095 4.072 13.712.074 19.447-7.562 26.71-17.702 1.332-1.86 2.56-4.279 4.167-5.883l.164.499.347.155Z" fill="#5D2E26"/><path d="M62.773 242.186c8.978 6.64 19.46 11.809 30.37 14.313.094.11.222.199.284.331.266.56.08 6.235.086 7.394l-21.127-.019c-3.062.001-6.824.319-9.808-.049.427-2.477.136-5.464.127-7.992-.03-4.659-.007-9.319.068-13.978Z" fill="#E9B49C"/><path d="M101.279 257.928c-2.72-.477-5.4-1.128-8.096-1.721l-.04.293c.094.11.222.199.285.33.265.561.078 6.235.085 7.395l-21.127-.019c-3.062 0-6.824.318-9.808-.049l-.21-.133c-.322.196-.567.179-.928.187-8.24.179-32.342-.022-40.585-.003l-5.87 1.939 183.375-.005 44.471-.009c7.329.002 14.72.215 22.042.024.454-.012.964 0 1.364-.237.182-.108.283-.325.316-.529.061-.378-.076-.631-.297-.915-.419-.233-.798-.255-1.262-.282l-.034-.002c-2.307-.134-4.705.02-7.018.045-5.701.061-11.462.23-17.157-.021-3.759-.115-7.556.004-11.317.044-8.139.087-16.345.245-24.48-.015l-14.493-.016c-.007-2.122.037-4.261-.104-6.378-.155 2.051-.092 4.144-.096 6.202l-.179.103c-3.038.316-7.234.046-10.395.046h-21.966l.015-8.522c-6.332 1.677-11.752 2.712-18.277 3.418-.023 1.698.01 3.401.017 5.1l-31.814.023.017-5.301c-2.123-.42-4.299-.618-6.434-.992Z" fill="#6683C2"/><path d="M118.853 98.475c1.176 0 2.37.364 3.564 1.117.144.09.279.182.406.275-.041.372-.063.756-.063 1.149 0 1.931.528 3.647 1.345 4.729-.11.142-.234.279-.376.408a3.92 3.92 0 0 1-1.566.847c-.584.178-1.236.263-1.973.263-.084 0-.22-.018-.406-.034a8.663 8.663 0 0 1-.736-.093c.017.169.05.355.093.558.033.212.076.441.135.695.347.017.661.025.94.034.279.008.551.008.779.008.051 0 .119-.008.212-.017.093 0 .194-.017.296-.025.11-.017.203-.043.296-.035.093-.025.17-.024.221-.033.11 0 .211.033.313.084a.867.867 0 0 1 .271.178.884.884 0 0 1 .203.263c.067.093.11.203.127.304a.876.876 0 0 1 .008.39.419.419 0 0 1-.212.246c-.11.059-.27.101-.473.118a6.616 6.616 0 0 1-.779.034c-.17 0-.416-.009-.729-.017-.313 0-.694-.009-1.168-.025.068.33.127.66.194 1.007.077.347.154.711.23 1.101.051.237.017.449-.11.618-.127.152-.305.237-.542.245a.968.968 0 0 1-.644-.245 1.129 1.129 0 0 1-.364-.627c-.153-.716-.305-1.436-.457-2.158a10.33 10.33 0 0 1-.999-.06 3.375 3.375 0 0 1-.677-.17 1.227 1.227 0 0 1-.399-.261.8.8 0 0 1-.177-.373c-.051-.237-.026-.424.093-.559.111-.111.294-.184.547-.194h.308c.085.008.178-.001.279.016.11 0 .229.017.348.026.127.008.237.008.355.016a13.894 13.894 0 0 1-.11-.618c-.042-.228-.085-.448-.127-.702-.203-.011-.409-.02-.618-.025-.262-.009-.483-.034-.669-.051-.186-.042-.338-.077-.448-.136a.533.533 0 0 1-.28-.22.899.899 0 0 1-.144-.338c-.059-.246-.025-.432.076-.584.127-.161.339-.238.66-.247.042 0 .094.009.153.009.059.009.127.008.186.017.076.008.136.009.178.009a.794.794 0 0 0 .119.008c.18.023.364.051.55.084-.144-.821-.271-1.523-.39-2.141-.11-.61-.211-1.11-.305-1.474a92.976 92.976 0 0 0-.312-1.235c-.152-.593-.212-1.034-.212-1.296s.067-.449.194-.533c.136-.093.322-.144.568-.153.203-.017.491-.05.846-.101.347-.051.821-.076 1.372-.076Zm.186 1.71c-.279-.009-.525.008-.745.008-.212.017-.389.043-.533.06.051.313.119.627.186.923.034.135.059.253.093.372.034.127.068.246.094.364.152.626.279 1.261.372 1.862.101.618.203 1.237.305 1.846.468.04.934.082 1.397.127.482-.017.897-.093 1.261-.245.381-.161.677-.372.906-.635.228-.271.397-.593.474-.973.084-.381.068-.822-.034-1.296a2.663 2.663 0 0 0-.389-.94c-.195-.296-.499-.568-.94-.813-.821-.449-1.634-.66-2.447-.66Z" fill="#BF9432"/><path d="M46.285 232.088c3.247-.504 5.994-.187 9.056 1.003 4.287 2.08 7.547 5.531 9.093 10.083 1.302 3.835 1.095 8.534-.742 12.166a16.454 16.454 0 0 1-9.695 8.167c-.337.105-.678.196-1.022.275-3.948.61-7.096.598-10.903-.642-.81-.621-1.957-1.012-2.831-1.594-2.374-1.581-3.865-4.252-5.182-6.701-.981-3.52-1.21-6.299-.917-9.919.524-1.822 1.02-3.566 1.998-5.21 2.575-4.325 6.38-6.442 11.145-7.628Zm2.525 4.595c-3.47.212-6.439 1.244-8.783 3.914-2.091 2.382-3.08 5.41-2.871 8.568a11.998 11.998 0 0 0 4.216 8.289c1.818 1.549 4.092 2.481 6.477 2.548l.16-.093c-.21-.07-.396-.13-.616-.165-3.372-.657-5.918-2.022-7.86-4.934a11.631 11.631 0 0 1-1.746-8.959 11.245 11.245 0 0 1 4.898-7.106 11.048 11.048 0 0 1 4.99-1.638c.688-.059 1.486-.017 2.128-.282-.36-.174-.604-.152-.993-.142Zm-.362 4.767-.162 1.557c-1.229.466-2.718 1.032-3.326 2.3-.32.667-.278 1.439-.014 2.118.504 1.3 3.329 3.212 2.86 4.507-.107.292-.215.475-.499.622-.448.233-1.2.233-1.653.034-.77-.337-1.384-.945-2.25-1.029-.377.166-.49.192-.615.627-.134.466-.09.959.231 1.328.325.373.91.602 1.35.803.224.655.088 1.463.05 2.149.616-.079 1.314-.093 1.857-.415l.112-.25c-.004-.217-.09-.716.073-.859 1.107-.966 3.575-.125 4.15-3.178.122-.644-.058-1.245-.432-1.772-1.006-1.42-3.122-1.927-2.86-3.993.029-.227.127-.382.254-.565 1.401-.497 3.501 1.933 4.397.329.204-.366.175-.751.065-1.137-.579-.695-1.808-.791-1.91-1.756l.395-.871c-.165-.268-.217-.338-.54-.431-.469-.134-1.046-.104-1.533-.118Z" fill="#F2C45B"/><path d="M55.426 232.867c1.214.583 2.332 1.254 3.48 1.954 1.497 1.317 2.86 2.614 3.97 4.284l.363.512c.745 1.374 1.393 2.788 1.86 4.283l.214.719c.212 1.434.406 2.863.39 4.316l-.12 1.064c-.114 1.342-.368 2.767-.88 4.02l-.2.497c-.72 1.651-1.636 3.266-2.879 4.585l-.398.393c-2.702 2.773-4.722 3.286-8.142 4.694l-.107-.405c.343-.079.684-.17 1.02-.275a16.454 16.454 0 0 0 9.696-8.167c1.837-3.632 2.044-8.332.742-12.166-1.546-4.552-4.806-8.003-9.093-10.083l.084-.225ZM47.398 259.744c.22.035.405.095.616.164l-.16.094c-2.386-.067-4.66-.999-6.478-2.549a11.996 11.996 0 0 1-4.216-8.288c-.208-3.158.78-6.187 2.871-8.568 2.344-2.67 5.314-3.703 8.783-3.915.39-.01.633-.031.993.142-.642.266-1.44.224-2.128.283a11.025 11.025 0 0 0-4.99 1.638 11.245 11.245 0 0 0-4.898 7.106 11.628 11.628 0 0 0 1.746 8.958c1.943 2.913 4.489 4.278 7.86 4.935Z" fill="#331310"/><path d="m48.288 243.008.161-1.557c.487.015 1.064-.016 1.533.119.323.092.375.163.54.43l-.394.872c.101.964 1.33 1.06 1.909 1.756.11.386.14.771-.065 1.137-.896 1.604-2.996-.827-4.398-.33-.126.184-.224.338-.253.565-.262 2.066 1.854 2.574 2.86 3.993.374.528.554 1.128.433 1.772-.576 3.054-3.044 2.212-4.151 3.178-.164.143-.077.642-.073.859l-.112.25c-.543.323-1.24.337-1.858.415.04-.686.174-1.493-.05-2.149-.439-.201-1.024-.429-1.349-.803-.32-.369-.365-.862-.231-1.328.125-.434.238-.461.616-.627.865.084 1.479.693 2.25 1.03.453.198 1.204.199 1.652-.034.284-.148.392-.331.498-.623.47-1.295-2.355-3.206-2.86-4.507-.263-.679-.304-1.45.015-2.117.608-1.268 2.098-1.835 3.327-2.301Z" fill="#F2C45B"/><path d="M48.38 249.924a4.56 4.56 0 0 1-.4-.027c-.183-.018-.42-.048-.712-.09-.012.162-.021.348-.028.559l-.018.686a31.399 31.399 0 0 0 1.697.045c.048 0 .118-.003.21-.009l.3-.036c.11-.018.21-.03.301-.036a1.96 1.96 0 0 1 .22-.018c.109 0 .206.024.291.072a.606.606 0 0 1 .228.18.86.86 0 0 1 .21.569.93.93 0 0 1-.073.397.546.546 0 0 1-.256.235c-.121.06-.285.102-.492.126a9.202 9.202 0 0 1-.775.027c-.17 0-.41-.003-.72-.009-.305-.006-.69-.015-1.159-.027-.006.319-.01.653-.01 1.001v1.101a.863.863 0 0 1-.236.614.795.795 0 0 1-.593.244.806.806 0 0 1-.602-.244.863.863 0 0 1-.237-.614v-2.165a8.63 8.63 0 0 1-.994-.063 2.723 2.723 0 0 1-.648-.172.836.836 0 0 1-.346-.262.687.687 0 0 1-.1-.37c0-.234.075-.418.227-.55.159-.138.396-.208.712-.208.042 0 .106.003.191.009a6.72 6.72 0 0 1 .63.037l.346.018c.006-.199.015-.407.028-.623l.036-.695-.611-.027a7.575 7.575 0 0 1-.657-.054 1.583 1.583 0 0 1-.428-.126.535.535 0 0 1-.228-.217.87.87 0 0 1-.064-.352c0-.235.076-.43.228-.586.158-.157.395-.235.711-.235.043 0 .095.003.155.009.061 0 .122.003.183.009l.173.018h.118l.52.081c.055-.812.098-1.525.128-2.138.037-.614.055-1.101.055-1.462V243.3c0-.595.036-1.028.11-1.299.066-.265.172-.442.318-.532.152-.091.344-.142.575-.154.207-.012.483-.045.83-.099a8.971 8.971 0 0 1 1.322-.081c1.107 0 2.15.376 3.128 1.128.535.415.906.872 1.113 1.371.207.5.31 1.041.31 1.625 0 .752-.112 1.422-.337 2.012-.225.589-.623 1.107-1.195 1.552a4.874 4.874 0 0 1-1.696.848 7.405 7.405 0 0 1-1.989.253Zm-.793-7.003c-.018.319-.027.629-.027.93v.37c.006.12.009.241.009.361 0 .631-.025 1.254-.073 1.868a163.86 163.86 0 0 0-.119 1.841l1.35.117a3.799 3.799 0 0 0 1.286-.244 2.94 2.94 0 0 0 1.012-.631c.286-.271.508-.596.666-.975.158-.385.237-.818.237-1.299 0-.343-.06-.656-.182-.939-.122-.289-.365-.556-.73-.803-.68-.445-1.407-.668-2.18-.668-.273 0-.513.006-.72.018-.207.012-.383.03-.529.054Z" fill="#BF9432"/></svg>