<svg width="541" height="293" fill="none" xmlns="http://www.w3.org/2000/svg"><path d="M51 0h481.244A8.756 8.756 0 0 1 541 8.756V262H51V0Z" fill="#fff"/><path stroke="#6583C4" stroke-opacity=".1" stroke-width="1.599" stroke-linecap="round" d="M48.76 206.911h491.401M48.76 153.911h491.401M48.76 100.911h491.401M48.76 48.911h491.401M106.581.799v260.402M161.581.799v260.402M326.581.799v260.402M216.581.799v260.402M381.581.799v260.402M491.581.799v260.402M271.581.799v260.402M436.581.799v260.402"/><path d="M52.75 219.848C73.536 219.048 119 206.5 161 206.5s55.5-49 110.5-52 71-81 110.5-81.5 31.5 4 50.5-12.5 46.5 6 59.5-11" stroke="#6683C2" stroke-width="1.599"/><path stroke="#B4C2E2" stroke-width="1.599" stroke-linecap="round" d="M51.581.799v264.402"/><path d="M147.075 292.208h-8.98v-1.228l4.758-4.528c.87-.832 1.535-1.58 1.996-2.245.46-.665.691-1.35.691-2.053 0-.499-.116-.953-.346-1.363a2.527 2.527 0 0 0-.978-.997c-.422-.243-.921-.365-1.497-.365-.78 0-1.484.218-2.11.653-.614.422-1.145.997-1.593 1.726l-1.017-.94c.64-.895 1.356-1.567 2.149-2.014a5.321 5.321 0 0 1 2.629-.672c.857 0 1.599.179 2.225.537a3.806 3.806 0 0 1 1.459 1.458c.358.602.537 1.28.537 2.034 0 .589-.128 1.151-.384 1.689-.243.524-.614 1.068-1.113 1.631a25.071 25.071 0 0 1-1.861 1.899l-1.266 1.19-1.267 1.189-1.247 1.171h7.215v1.228Zm7.687.307c-1.036 0-1.932-.282-2.686-.845-.742-.575-1.311-1.394-1.708-2.456-.396-1.074-.595-2.36-.595-3.856 0-2.251.442-4.01 1.324-5.276.883-1.267 2.104-1.9 3.665-1.9 1.56 0 2.782.633 3.664 1.9.883 1.266 1.324 3.025 1.324 5.276 0 1.496-.198 2.782-.594 3.856-.397 1.062-.966 1.881-1.708 2.456-.742.563-1.637.845-2.686.845Zm0-1.248c1.113 0 1.97-.511 2.571-1.535.614-1.023.921-2.481.921-4.374 0-1.906-.307-3.371-.921-4.394-.601-1.023-1.458-1.535-2.571-1.535-1.113 0-1.976.512-2.59 1.535-.602 1.023-.902 2.488-.902 4.394 0 1.893.3 3.351.902 4.374.614 1.024 1.477 1.535 2.59 1.535Zm16.184.941h-8.98v-1.228l4.758-4.528c.87-.832 1.535-1.58 1.996-2.245.46-.665.691-1.35.691-2.053 0-.499-.116-.953-.346-1.363a2.527 2.527 0 0 0-.978-.997c-.422-.243-.921-.365-1.497-.365-.78 0-1.484.218-2.11.653-.614.422-1.145.997-1.593 1.726l-1.017-.94c.64-.895 1.356-1.567 2.149-2.014a5.321 5.321 0 0 1 2.629-.672c.857 0 1.599.179 2.225.537a3.806 3.806 0 0 1 1.459 1.458c.358.602.537 1.28.537 2.034 0 .589-.128 1.151-.384 1.689-.243.524-.614 1.068-1.113 1.631a25.071 25.071 0 0 1-1.861 1.899l-1.266 1.19-1.267 1.189-1.247 1.171h7.215v1.228Zm11.467 0h-8.98v-1.228l4.759-4.528c.869-.832 1.534-1.58 1.995-2.245.46-.665.691-1.35.691-2.053 0-.499-.115-.953-.346-1.363a2.527 2.527 0 0 0-.978-.997c-.422-.243-.921-.365-1.497-.365-.78 0-1.484.218-2.11.653-.614.422-1.145.997-1.593 1.726l-1.017-.94c.64-.895 1.356-1.567 2.149-2.014a5.321 5.321 0 0 1 2.629-.672c.857 0 1.599.179 2.225.537a3.806 3.806 0 0 1 1.459 1.458c.358.602.537 1.28.537 2.034 0 .589-.128 1.151-.384 1.689-.243.524-.614 1.068-1.113 1.631a25.071 25.071 0 0 1-1.861 1.899l-1.266 1.19-1.266 1.189-1.248 1.171h7.215v1.228ZM5.703 200.143h1.42v13.719h-1.42v-12.145l-3.511 2.782v-1.574l3.511-2.782Zm13.202 13.719h-1.42v-3.511h-7.253v-1.19l7.253-9.018h1.42v9.018h2.149v1.19h-2.15v3.511Zm-1.42-11.877-5.737 7.176h5.737v-7.176Zm6.36 14.198h-.96a5.6 5.6 0 0 0 .672-1.323c.167-.461.237-.857.211-1.19l.154.326c-.294 0-.544-.096-.748-.288a1.017 1.017 0 0 1-.308-.748c0-.294.096-.544.288-.748a.995.995 0 0 1 .73-.307c.332 0 .6.115.805.345.218.23.326.531.326.902 0 .307-.057.639-.172.998a5.496 5.496 0 0 1-.422 1.074c-.18.358-.371.678-.576.959Zm8.167-16.347c.998 0 1.868.218 2.61.653a4.51 4.51 0 0 1 1.727 1.803c.422.755.633 1.631.633 2.629 0 .946-.205 1.912-.614 2.897-.397.985-1.024 1.983-1.88 2.993-.858.998-1.958 2.015-3.3 3.051h-2.054c1.318-.985 2.392-1.887 3.224-2.706.844-.831 1.496-1.618 1.957-2.359.473-.755.806-1.497.998-2.226l.364.192a4.353 4.353 0 0 1-1.592 1.746c-.691.435-1.471.652-2.341.652a4.838 4.838 0 0 1-2.322-.576 4.744 4.744 0 0 1-1.727-1.611c-.434-.691-.652-1.484-.652-2.379 0-.896.211-1.702.633-2.418a4.822 4.822 0 0 1 1.765-1.708c.755-.422 1.612-.633 2.571-.633Zm0 1.267c-.665 0-1.26.153-1.784.46-.524.294-.94.704-1.247 1.228a3.43 3.43 0 0 0-.46 1.765c0 .64.153 1.215.46 1.727.307.512.723.915 1.247 1.209.524.294 1.12.441 1.784.441.678 0 1.273-.147 1.785-.441a3.183 3.183 0 0 0 1.228-1.209c.307-.512.46-1.087.46-1.727a3.43 3.43 0 0 0-.46-1.765 3.15 3.15 0 0 0-1.228-1.228c-.512-.307-1.107-.46-1.785-.46ZM7.346 147.38h1.42v13.718h-1.42v-12.145l-3.51 2.782v-1.573l3.51-2.782Zm5.508 10.399a6.155 6.155 0 0 0 1.612 1.727c.626.435 1.362.652 2.206.652.665 0 1.247-.153 1.746-.46.499-.32.889-.749 1.17-1.286.295-.55.442-1.158.442-1.823 0-.639-.141-1.202-.422-1.688a3.031 3.031 0 0 0-1.17-1.171c-.487-.281-1.05-.422-1.69-.422-.69 0-1.304.167-1.841.499-.525.32-.979.761-1.362 1.324l-.595-.057a4.162 4.162 0 0 1 .806-1.612 3.93 3.93 0 0 1 1.381-1.036 4.461 4.461 0 0 1 1.823-.365c.882 0 1.663.198 2.34.595.691.384 1.235.921 1.631 1.612.397.678.595 1.451.595 2.321 0 .921-.21 1.746-.633 2.475a4.66 4.66 0 0 1-1.727 1.727c-.729.409-1.56.614-2.494.614-1.036 0-1.963-.23-2.782-.691-.806-.473-1.49-1.151-2.053-2.033l1.017-.902Zm7.751-9.171h-6.773l.48-.346-.767 6.869H12.22l.882-7.751h7.502v1.228Zm3.834 14.812h-.96c.282-.41.506-.851.672-1.324.166-.461.237-.857.211-1.19l.154.326c-.295 0-.544-.095-.749-.287a1.02 1.02 0 0 1-.307-.749c0-.294.096-.543.288-.748a.995.995 0 0 1 .73-.307c.332 0 .6.115.805.345.217.231.326.531.326.902 0 .307-.057.64-.173.998a5.509 5.509 0 0 1-.422 1.074c-.179.359-.37.678-.575.96Zm8.167-16.347c.998 0 1.868.217 2.61.652a4.506 4.506 0 0 1 1.726 1.804c.422.754.633 1.63.633 2.628 0 .947-.204 1.912-.614 2.897-.396.985-1.023 1.983-1.88 2.993-.857.998-1.957 2.015-3.3 3.051h-2.053c1.318-.985 2.392-1.887 3.224-2.705.844-.832 1.496-1.618 1.957-2.36.473-.755.805-1.497.997-2.226l.365.192a4.353 4.353 0 0 1-1.593 1.746c-.69.435-1.47.652-2.34.652a4.837 4.837 0 0 1-2.322-.575 4.755 4.755 0 0 1-1.727-1.612c-.435-.691-.652-1.484-.652-2.379s.21-1.701.633-2.418a4.811 4.811 0 0 1 1.765-1.707c.755-.422 1.612-.633 2.571-.633Zm0 1.266c-.665 0-1.26.153-1.784.46-.525.295-.94.704-1.247 1.228a3.432 3.432 0 0 0-.46 1.766c0 .639.153 1.215.46 1.726.307.512.722.915 1.247 1.209.524.294 1.119.441 1.784.441.678 0 1.273-.147 1.785-.441a3.184 3.184 0 0 0 1.227-1.209c.307-.511.46-1.087.46-1.726 0-.653-.153-1.241-.46-1.766a3.157 3.157 0 0 0-1.227-1.228c-.512-.307-1.107-.46-1.785-.46ZM5.172 94.617h1.42v13.718h-1.42V96.19L1.66 98.972v-1.573l3.512-2.782Zm9.69 14.025c-.998 0-1.867-.218-2.61-.652a4.64 4.64 0 0 1-1.745-1.804c-.41-.767-.614-1.644-.614-2.629 0-.946.204-1.912.614-2.897.409-.985 1.036-1.982 1.88-2.993.857-1.01 1.957-2.027 3.3-3.05h2.053c-1.305.984-2.38 1.892-3.223 2.724-.845.819-1.503 1.599-1.977 2.34a8.062 8.062 0 0 0-.978 2.226l-.365-.191a4.26 4.26 0 0 1 1.574-1.727 4.304 4.304 0 0 1 2.36-.672c.831 0 1.605.199 2.321.595a4.545 4.545 0 0 1 1.727 1.612c.435.678.652 1.464.652 2.36 0 .895-.217 1.701-.652 2.417a4.627 4.627 0 0 1-1.765 1.708c-.742.422-1.593.633-2.552.633Zm0-1.266c.665 0 1.26-.154 1.784-.461.525-.307.94-.716 1.247-1.228.308-.524.461-1.113.461-1.765 0-.652-.153-1.228-.46-1.727a3.339 3.339 0 0 0-1.248-1.209c-.524-.294-1.119-.441-1.784-.441s-1.26.147-1.784.441a3.34 3.34 0 0 0-1.247 1.209c-.295.499-.442 1.075-.442 1.727 0 .652.147 1.241.442 1.765.306.512.722.921 1.247 1.228.524.307 1.119.461 1.784.461Zm7.983 3.281h-.96c.282-.41.506-.851.672-1.324.167-.461.237-.857.211-1.19l.154.326c-.294 0-.544-.096-.748-.288a1.017 1.017 0 0 1-.308-.748c0-.294.096-.543.288-.748a.995.995 0 0 1 .73-.307c.332 0 .6.115.805.345.218.231.326.531.326.902 0 .307-.057.64-.172.998a5.496 5.496 0 0 1-.422 1.074c-.18.358-.371.678-.576.96Zm8.167-16.347c.998 0 1.868.217 2.61.652a4.508 4.508 0 0 1 1.727 1.803c.422.755.633 1.631.633 2.629 0 .946-.205 1.912-.614 2.897-.397.985-1.024 1.983-1.88 2.993-.858.998-1.958 2.015-3.3 3.051h-2.054c1.318-.985 2.392-1.887 3.224-2.705.844-.832 1.496-1.618 1.957-2.36.473-.755.806-1.497.998-2.226l.364.192a4.353 4.353 0 0 1-1.592 1.746c-.691.435-1.471.652-2.341.652a4.848 4.848 0 0 1-2.322-.575 4.755 4.755 0 0 1-1.727-1.612c-.434-.691-.652-1.484-.652-2.38 0-.895.211-1.7.633-2.417a4.811 4.811 0 0 1 1.765-1.707c.755-.422 1.612-.633 2.571-.633Zm0 1.266c-.665 0-1.26.153-1.784.46-.524.294-.94.704-1.247 1.228a3.43 3.43 0 0 0-.46 1.765c0 .64.153 1.216.46 1.727.307.512.723.915 1.247 1.209.524.294 1.12.441 1.784.441.678 0 1.273-.147 1.785-.441a3.183 3.183 0 0 0 1.228-1.209c.307-.511.46-1.087.46-1.727a3.43 3.43 0 0 0-.46-1.765 3.149 3.149 0 0 0-1.228-1.228c-.512-.307-1.107-.46-1.785-.46ZM5.666 41.853h1.42V55.57h-1.42V43.426l-3.511 2.782v-1.573l3.51-2.782Zm9.69 14.025c-.96 0-1.816-.172-2.57-.518-.756-.345-1.35-.818-1.785-1.42a3.53 3.53 0 0 1-.653-2.09c0-.756.218-1.427.653-2.016.435-.588 1.03-1.048 1.784-1.381.755-.345 1.612-.518 2.571-.518.972 0 1.83.173 2.571.518.755.333 1.35.793 1.785 1.381.434.589.652 1.26.652 2.015a3.53 3.53 0 0 1-.652 2.091c-.435.602-1.03 1.075-1.785 1.42-.742.346-1.599.518-2.57.518Zm0-7.137c-.87 0-1.644-.147-2.322-.441-.678-.295-1.215-.698-1.611-1.21a2.889 2.889 0 0 1-.576-1.745c0-.742.192-1.395.576-1.957a3.963 3.963 0 0 1 1.611-1.343c.678-.333 1.452-.5 2.322-.5.87 0 1.644.167 2.322.5.678.32 1.208.767 1.592 1.343.397.563.595 1.215.595 1.957 0 .64-.198 1.221-.595 1.746-.384.511-.914.914-1.592 1.209-.678.294-1.452.44-2.322.44Zm0 5.89c.652 0 1.24-.121 1.765-.364.538-.243.96-.576 1.267-.998.32-.422.48-.895.48-1.42 0-.537-.16-1.01-.48-1.42-.307-.422-.73-.754-1.267-.998-.524-.242-1.113-.364-1.765-.364a4.28 4.28 0 0 0-1.784.364 3.29 3.29 0 0 0-1.267.998c-.307.41-.46.883-.46 1.42 0 .525.153.998.46 1.42.32.422.742.755 1.267.998a4.28 4.28 0 0 0 1.784.364Zm0-6.811c.563 0 1.068-.109 1.516-.326.46-.218.825-.512 1.093-.883a2.16 2.16 0 0 0 .403-1.266 2.22 2.22 0 0 0-.402-1.305 2.72 2.72 0 0 0-1.094-.902 3.266 3.266 0 0 0-1.516-.345c-.55 0-1.055.115-1.516.345a2.72 2.72 0 0 0-1.093.902 2.22 2.22 0 0 0-.403 1.305c0 .46.134.882.403 1.266.268.371.633.665 1.093.883.46.217.966.326 1.516.326Zm8.02 10.073h-.959c.282-.41.505-.85.672-1.324.166-.46.236-.857.21-1.19l.154.327c-.294 0-.543-.096-.748-.288a1.019 1.019 0 0 1-.307-.748c0-.295.096-.544.288-.749a.996.996 0 0 1 .729-.307c.332 0 .601.115.806.346.217.23.326.53.326.901 0 .307-.058.64-.173.998-.102.371-.243.73-.422 1.075-.179.358-.37.678-.575.959Zm8.417-2.015c-1.036 0-1.931-.281-2.686-.844-.742-.575-1.31-1.394-1.707-2.456-.397-1.074-.595-2.36-.595-3.856 0-2.252.441-4.01 1.324-5.277.882-1.266 2.104-1.9 3.664-1.9s2.782.634 3.665 1.9c.883 1.267 1.324 3.025 1.324 5.277 0 1.496-.198 2.782-.595 3.856-.396 1.062-.966 1.88-1.707 2.456-.742.563-1.638.844-2.687.844Zm0-1.247c1.113 0 1.97-.511 2.571-1.535.614-1.023.921-2.481.921-4.374 0-1.906-.307-3.37-.92-4.394-.602-1.023-1.459-1.535-2.572-1.535-1.112 0-1.976.512-2.59 1.535-.601 1.023-.902 2.488-.902 4.394 0 1.893.301 3.35.902 4.374.614 1.024 1.478 1.535 2.59 1.535Z" fill="#6683C2"/><path stroke="#6583C4" stroke-width="1.599" stroke-linecap="round" d="M48.76 207.057h6.396"/><path d="M257.065 292.208h-8.979v-1.228l4.758-4.528c.87-.832 1.535-1.58 1.996-2.245.46-.665.69-1.35.69-2.053 0-.499-.115-.953-.345-1.363a2.53 2.53 0 0 0-.979-.997c-.422-.243-.921-.365-1.496-.365-.78 0-1.484.218-2.111.653-.614.422-1.145.997-1.592 1.726l-1.017-.94c.639-.895 1.356-1.567 2.149-2.014a5.32 5.32 0 0 1 2.628-.672c.857 0 1.599.179 2.226.537a3.796 3.796 0 0 1 1.458 1.458c.358.602.537 1.28.537 2.034a3.88 3.88 0 0 1-.383 1.689c-.243.524-.614 1.068-1.113 1.631a25.265 25.265 0 0 1-1.861 1.899l-1.267 1.19-1.266 1.189-1.247 1.171h7.214v1.228Zm7.687.307c-1.036 0-1.931-.282-2.686-.845-.742-.575-1.311-1.394-1.707-2.456-.397-1.074-.595-2.36-.595-3.856 0-2.251.441-4.01 1.324-5.276.882-1.267 2.104-1.9 3.664-1.9 1.561 0 2.783.633 3.665 1.9.883 1.266 1.324 3.025 1.324 5.276 0 1.496-.198 2.782-.595 3.856-.396 1.062-.966 1.881-1.707 2.456-.742.563-1.638.845-2.687.845Zm0-1.248c1.113 0 1.97-.511 2.571-1.535.614-1.023.921-2.481.921-4.374 0-1.906-.307-3.371-.921-4.394-.601-1.023-1.458-1.535-2.571-1.535-1.112 0-1.976.512-2.59 1.535-.601 1.023-.902 2.488-.902 4.394 0 1.893.301 3.351.902 4.374.614 1.024 1.478 1.535 2.59 1.535Zm16.184.941h-8.979v-1.228l4.758-4.528c.87-.832 1.535-1.58 1.995-2.245.461-.665.691-1.35.691-2.053 0-.499-.115-.953-.345-1.363a2.53 2.53 0 0 0-.979-.997c-.422-.243-.921-.365-1.496-.365-.78 0-1.484.218-2.111.653-.614.422-1.145.997-1.592 1.726l-1.017-.94c.639-.895 1.356-1.567 2.149-2.014a5.32 5.32 0 0 1 2.628-.672c.857 0 1.599.179 2.226.537a3.796 3.796 0 0 1 1.458 1.458c.358.602.537 1.28.537 2.034 0 .589-.128 1.151-.383 1.689-.243.524-.614 1.068-1.113 1.631a25.265 25.265 0 0 1-1.861 1.899l-1.267 1.19-1.266 1.189-1.247 1.171h7.214v1.228Zm2.238-2.188 1.017-.94a5.838 5.838 0 0 0 1.727 1.593c.665.396 1.42.594 2.264.594.985 0 1.772-.268 2.36-.805.601-.538.902-1.216.902-2.034 0-.576-.154-1.068-.461-1.478-.294-.409-.703-.722-1.228-.94-.511-.23-1.093-.345-1.746-.345h-1.343v-1.247h1.343c.576 0 1.094-.103 1.555-.307a2.64 2.64 0 0 0 1.093-.864c.269-.371.403-.806.403-1.304 0-.742-.262-1.343-.787-1.804-.524-.473-1.215-.71-2.072-.71-.767 0-1.451.198-2.053.595-.601.384-1.125.915-1.573 1.592l-1.017-.94c.589-.78 1.273-1.388 2.053-1.822a5.11 5.11 0 0 1 2.59-.672c.857 0 1.612.166 2.264.499.653.32 1.164.767 1.535 1.343.371.563.557 1.202.557 1.919 0 .639-.199 1.215-.595 1.726-.384.512-.927.915-1.631 1.209-.691.294-1.497.441-2.417.441l.191-.709c.96 0 1.804.166 2.533.498.729.333 1.292.787 1.688 1.363.41.563.614 1.215.614 1.957 0 .767-.204 1.464-.614 2.091-.396.614-.952 1.1-1.669 1.458-.703.358-1.528.538-2.475.538-1.023 0-1.957-.218-2.801-.653a7.065 7.065 0 0 1-2.207-1.842Z" fill="#6683C2"/><path stroke="#6583C4" stroke-width="1.599" stroke-linecap="round" d="M216.799 260.799v2.402M48.76 154.293h6.396"/><path d="M369.293 292.208h-8.979v-1.228l4.758-4.528c.87-.832 1.535-1.58 1.996-2.245.46-.665.691-1.35.691-2.053 0-.499-.116-.953-.346-1.363a2.527 2.527 0 0 0-.978-.997c-.422-.243-.921-.365-1.497-.365-.78 0-1.484.218-2.11.653-.614.422-1.145.997-1.593 1.726l-1.017-.94c.64-.895 1.356-1.567 2.149-2.014a5.321 5.321 0 0 1 2.629-.672c.857 0 1.599.179 2.225.537a3.806 3.806 0 0 1 1.459 1.458c.358.602.537 1.28.537 2.034 0 .589-.128 1.151-.384 1.689-.243.524-.614 1.068-1.113 1.631a25.071 25.071 0 0 1-1.861 1.899l-1.266 1.19-1.267 1.189-1.247 1.171h7.214v1.228Zm7.688.307c-1.036 0-1.932-.282-2.686-.845-.742-.575-1.311-1.394-1.708-2.456-.397-1.074-.595-2.36-.595-3.856 0-2.251.442-4.01 1.324-5.276.883-1.267 2.104-1.9 3.665-1.9 1.56 0 2.782.633 3.664 1.9.883 1.266 1.324 3.025 1.324 5.276 0 1.496-.198 2.782-.594 3.856-.397 1.062-.966 1.881-1.708 2.456-.742.563-1.637.845-2.686.845Zm0-1.248c1.113 0 1.97-.511 2.571-1.535.614-1.023.921-2.481.921-4.374 0-1.906-.307-3.371-.921-4.394-.601-1.023-1.458-1.535-2.571-1.535-1.113 0-1.976.512-2.59 1.535-.602 1.023-.902 2.488-.902 4.394 0 1.893.3 3.351.902 4.374.614 1.024 1.477 1.535 2.59 1.535Zm16.183.941h-8.979v-1.228l4.758-4.528c.87-.832 1.535-1.58 1.996-2.245.46-.665.691-1.35.691-2.053 0-.499-.116-.953-.346-1.363a2.527 2.527 0 0 0-.978-.997c-.422-.243-.921-.365-1.497-.365-.78 0-1.484.218-2.11.653-.614.422-1.145.997-1.593 1.726l-1.017-.94c.64-.895 1.356-1.567 2.149-2.014a5.321 5.321 0 0 1 2.629-.672c.857 0 1.599.179 2.225.537a3.796 3.796 0 0 1 1.458 1.458c.359.602.538 1.28.538 2.034 0 .589-.128 1.151-.384 1.689-.243.524-.614 1.068-1.113 1.631a25.071 25.071 0 0 1-1.861 1.899l-1.266 1.19-1.267 1.189-1.247 1.171h7.214v1.228Zm10.613 0h-1.42v-3.512h-7.252v-1.189l7.252-9.018h1.42v9.018h2.149v1.189h-2.149v3.512Zm-1.42-11.877-5.737 7.176h5.737v-7.176Z" fill="#6683C2"/><path stroke="#6583C4" stroke-width="1.599" stroke-linecap="round" d="M48.76 101.53h6.396"/><path d="M477.131 292.208h-8.98v-1.228l4.759-4.528c.869-.832 1.535-1.58 1.995-2.245.461-.665.691-1.35.691-2.053 0-.499-.115-.953-.346-1.363a2.527 2.527 0 0 0-.978-.997c-.422-.243-.921-.365-1.497-.365-.78 0-1.483.218-2.11.653-.614.422-1.145.997-1.593 1.726l-1.017-.94c.64-.895 1.356-1.567 2.149-2.014a5.321 5.321 0 0 1 2.629-.672c.857 0 1.599.179 2.226.537a3.81 3.81 0 0 1 1.458 1.458c.358.602.537 1.28.537 2.034 0 .589-.128 1.151-.384 1.689-.243.524-.614 1.068-1.113 1.631a25.071 25.071 0 0 1-1.861 1.899l-1.266 1.19-1.266 1.189-1.247 1.171h7.214v1.228Zm7.687.307c-1.036 0-1.931-.282-2.686-.845-.742-.575-1.311-1.394-1.708-2.456-.396-1.074-.595-2.36-.595-3.856 0-2.251.442-4.01 1.324-5.276.883-1.267 2.105-1.9 3.665-1.9 1.561 0 2.782.633 3.665 1.9.882 1.266 1.324 3.025 1.324 5.276 0 1.496-.199 2.782-.595 3.856-.397 1.062-.966 1.881-1.708 2.456-.742.563-1.637.845-2.686.845Zm0-1.248c1.113 0 1.97-.511 2.571-1.535.614-1.023.921-2.481.921-4.374 0-1.906-.307-3.371-.921-4.394-.601-1.023-1.458-1.535-2.571-1.535-1.113 0-1.976.512-2.59 1.535-.601 1.023-.902 2.488-.902 4.394 0 1.893.301 3.351.902 4.374.614 1.024 1.477 1.535 2.59 1.535Zm16.184.941h-8.98v-1.228l4.759-4.528c.869-.832 1.535-1.58 1.995-2.245.461-.665.691-1.35.691-2.053 0-.499-.115-.953-.346-1.363a2.527 2.527 0 0 0-.978-.997c-.422-.243-.921-.365-1.497-.365-.78 0-1.483.218-2.11.653-.614.422-1.145.997-1.593 1.726l-1.017-.94c.64-.895 1.356-1.567 2.149-2.014a5.321 5.321 0 0 1 2.629-.672c.857 0 1.599.179 2.226.537a3.81 3.81 0 0 1 1.458 1.458c.358.602.537 1.28.537 2.034 0 .589-.128 1.151-.384 1.689-.243.524-.614 1.068-1.113 1.631a25.071 25.071 0 0 1-1.861 1.899l-1.266 1.19-1.266 1.189-1.247 1.171h7.214v1.228Zm3.293-3.32a6.144 6.144 0 0 0 1.612 1.727c.627.435 1.362.652 2.206.652.666 0 1.248-.153 1.746-.46a3.34 3.34 0 0 0 1.171-1.286c.294-.55.441-1.157.441-1.822 0-.64-.141-1.203-.422-1.689a3.025 3.025 0 0 0-1.17-1.17c-.486-.282-1.049-.422-1.689-.422-.691 0-1.305.166-1.842.499a4.469 4.469 0 0 0-1.362 1.323l-.595-.057a4.157 4.157 0 0 1 .806-1.612 3.944 3.944 0 0 1 1.381-1.036 4.463 4.463 0 0 1 1.823-.364c.883 0 1.663.198 2.341.594a4.204 4.204 0 0 1 1.631 1.612c.396.678.595 1.452.595 2.322 0 .921-.211 1.746-.634 2.475a4.666 4.666 0 0 1-1.726 1.727c-.729.409-1.561.614-2.495.614-1.036 0-1.963-.231-2.782-.691-.806-.473-1.49-1.151-2.053-2.034l1.017-.902Zm7.752-9.171h-6.773l.479-.345-.767 6.868h-1.324l.883-7.751h7.502v1.228Z" fill="#6683C2"/><path stroke="#6583C4" stroke-width="1.599" stroke-linecap="round" d="M48.76 48.767h6.396"/><path stroke="#B4C2E2" stroke-width="1.599" stroke-linecap="round" d="M540.201 261.799H44.799"/><circle cx="490.994" cy="49.995" r="7.994" fill="#F37E60"/><circle cx="381.797" cy="72.797" r="4.797" fill="#F37E60"/><circle cx="270.797" cy="154.797" r="4.797" fill="#F37E60"/><circle cx="161.797" cy="206.797" r="4.797" fill="#F37E60"/><path d="M491.207 70.446c0-2.457-3.243-3.371-4.559-1.295a86.778 86.778 0 0 1-5.263 7.433 9.27 9.27 0 0 1-3.744 2.805 14.303 14.303 0 0 0-.44-.006h-3.163c-.014-7.685-.029-5.977-.053 0h-93.973c-7.737 0-14.01 6.272-14.01 14.009v23.64c0 7.737 6.273 14.01 14.01 14.01h97.189c7.737 0 14.01-6.273 14.01-14.01v-23.64c0-.097-.002-.193-.004-.29V70.447Z" fill="#B6CAF6"/><path d="M387.145 88.731h1.166V100h-1.166v-9.976l-2.884 2.285v-1.293l2.884-2.285Zm7.96 11.521c-.788 0-1.492-.142-2.112-.425-.62-.284-1.108-.673-1.466-1.167a2.901 2.901 0 0 1-.536-1.718c0-.62.179-1.171.536-1.654.358-.484.846-.862 1.466-1.135.62-.284 1.324-.426 2.112-.426.799 0 1.502.142 2.112.426.62.273 1.108.651 1.466 1.135.357.483.535 1.035.535 1.654a2.9 2.9 0 0 1-.535 1.718c-.358.494-.846.883-1.466 1.167-.61.283-1.313.425-2.112.425Zm0-5.863c-.715 0-1.35-.12-1.907-.362-.557-.242-.998-.573-1.324-.993a2.374 2.374 0 0 1-.473-1.434c0-.61.158-1.146.473-1.608.326-.473.767-.84 1.324-1.103.557-.273 1.192-.41 1.907-.41.714 0 1.35.137 1.907.41.557.263.993.63 1.308 1.103.326.462.489.998.489 1.608a2.32 2.32 0 0 1-.489 1.434c-.315.42-.751.751-1.308.993-.557.241-1.193.362-1.907.362Zm0 4.839c.536 0 1.019-.1 1.45-.3.441-.2.788-.472 1.04-.82.263-.346.394-.735.394-1.166 0-.44-.131-.83-.394-1.166a2.555 2.555 0 0 0-1.04-.82 3.41 3.41 0 0 0-1.45-.299c-.536 0-1.024.1-1.466.3-.431.2-.777.472-1.04.82a1.892 1.892 0 0 0-.378 1.165c0 .431.126.82.378 1.167.263.347.609.62 1.04.82.442.199.93.299 1.466.299Zm0-5.595c.462 0 .877-.09 1.245-.268.378-.179.678-.42.898-.725.221-.315.331-.662.331-1.04 0-.4-.11-.757-.331-1.072a2.231 2.231 0 0 0-.898-.74 2.683 2.683 0 0 0-1.245-.284c-.452 0-.867.094-1.245.283a2.231 2.231 0 0 0-.898.74 1.821 1.821 0 0 0-.331 1.073c0 .378.11.725.331 1.04.22.305.52.546.898.725.378.178.793.268 1.245.268Zm12.74 2.443h-4.224V95.02h4.224v1.056Zm10.769 1.907.835.772c-.357.462-.809.83-1.355 1.103-.536.263-1.145.394-1.828.394-.788 0-1.492-.178-2.112-.536a3.954 3.954 0 0 1-1.45-1.465c-.347-.62-.52-1.33-.52-2.128 0-.799.173-1.508.52-2.128a3.928 3.928 0 0 1 1.465-1.466c.62-.357 1.324-.535 2.112-.535.683 0 1.293.136 1.829.41.535.262.982.625 1.339 1.087l-.835.772a2.85 2.85 0 0 0-.946-.898c-.378-.231-.84-.347-1.387-.347-.567 0-1.066.131-1.497.394-.431.263-.767.63-1.009 1.103-.241.463-.362.998-.362 1.608 0 .61.121 1.15.362 1.623.242.463.578.825 1.009 1.088.431.262.93.394 1.497.394.547 0 1.009-.11 1.387-.331a3.01 3.01 0 0 0 .946-.914Zm3.844 5.075h-1.166V92.246h1.151v2.348h-.284a2.96 2.96 0 0 1 .614-1.355 3.44 3.44 0 0 1 1.198-.914 3.718 3.718 0 0 1 1.561-.331c.756 0 1.429.183 2.017.551a3.69 3.69 0 0 1 1.371 1.466c.336.62.504 1.324.504 2.112 0 .798-.173 1.508-.52 2.128a3.73 3.73 0 0 1-1.418 1.465c-.599.358-1.287.536-2.065.536-.704 0-1.324-.142-1.859-.425a3.011 3.011 0 0 1-1.198-1.182c-.263-.505-.358-1.067-.284-1.687l.221-.315c.042.494.199.94.472 1.34.274.388.631.693 1.072.914a3.2 3.2 0 0 0 1.45.33c.578 0 1.082-.13 1.513-.393a2.84 2.84 0 0 0 1.009-1.103c.252-.473.378-1.01.378-1.608 0-.599-.121-1.13-.362-1.592a2.632 2.632 0 0 0-.978-1.103c-.42-.273-.908-.41-1.465-.41-.568 0-1.072.142-1.513.426a2.918 2.918 0 0 0-1.04 1.182c-.253.493-.379 1.071-.379 1.733v6.699Zm15.36-5.265.82.773a4.56 4.56 0 0 1-1.482 1.245c-.578.294-1.24.441-1.986.441-.819 0-1.555-.178-2.206-.536a3.977 3.977 0 0 1-1.513-1.465c-.368-.62-.552-1.33-.552-2.128 0-.799.174-1.508.52-2.128a3.93 3.93 0 0 1 1.466-1.466c.62-.357 1.324-.535 2.112-.535.757 0 1.424.178 2.002.535.588.347 1.05.825 1.387 1.435.336.61.504 1.313.504 2.112v.094h-1.198v-.094c0-.61-.121-1.14-.362-1.592a2.584 2.584 0 0 0-.962-1.072 2.436 2.436 0 0 0-1.371-.394c-.567 0-1.066.131-1.497.394a2.726 2.726 0 0 0-1.009 1.088c-.242.462-.362.998-.362 1.607 0 .61.131 1.15.394 1.624.262.472.62.84 1.071 1.103.463.262.993.394 1.592.394 1.093 0 1.97-.478 2.632-1.434Zm1.072-1.26h-7.014v-.962h6.762l.252.505v.457Zm1.365 3.152v-.678h.315c.21 0 .373-.047.488-.142.126-.105.221-.273.284-.504.074-.231.131-.547.173-.946l.615-5.17h5.359v7.282h-1.167v-7.045l.82.757h-4.839l.946-.757-.63 5.028c-.063.536-.163.961-.3 1.276-.136.316-.331.547-.583.694-.242.136-.578.205-1.009.205h-.472Zm-.316 2.332v-3.01h8.653v3.01h-1.103v-2.852l.819.835h-7.722l.457-.835v2.852h-1.104ZM456.617 100v-7.754h1.166V100h-1.166Zm-5.989 0v-7.754h1.166V100h-1.166Zm.567-3.578v-.993h6.068v.993h-6.068Zm9.114 3.578v-7.754h1.166v6.194l-.126-.048 5.043-6.146h1.009V100h-1.166v-6.194l.126.047-5.044 6.147h-1.008Zm9.619 0v-7.754h1.166v6.194l-.126-.048 5.044-6.146h1.008V100h-1.166v-6.194l.126.047-5.043 6.147h-1.009Zm3.625-9.204c-.704 0-1.298-.179-1.781-.536-.473-.368-.741-.872-.804-1.513h1.056c.063.452.226.783.489.993.273.21.62.315 1.04.315.41 0 .746-.105 1.009-.315.273-.21.441-.541.504-.993h1.056c-.063.64-.331 1.145-.804 1.513-.473.357-1.061.536-1.765.536Zm-85.825 29.456c-1.303 0-2.296-.467-2.979-1.403-.672-.945-1.008-2.316-1.008-4.113 0-1.713.273-3.005.819-3.877.557-.872 1.435-1.408 2.632-1.608l3.468-.583.205 1.025-3.468.614c-.609.105-1.098.315-1.466.631-.367.315-.635.777-.803 1.387-.168.599-.268 1.397-.3 2.395l-.205.473c.063-.578.263-1.072.599-1.481a3.263 3.263 0 0 1 1.261-.962 3.744 3.744 0 0 1 1.576-.347c.767 0 1.413.174 1.939.521a3.23 3.23 0 0 1 1.197 1.371c.274.578.41 1.229.41 1.954 0 .809-.157 1.518-.473 2.128a3.319 3.319 0 0 1-1.355 1.387c-.578.325-1.261.488-2.049.488Zm-.016-1.04c.83 0 1.482-.263 1.955-.788.483-.536.725-1.261.725-2.175 0-.893-.226-1.587-.678-2.08-.441-.505-1.056-.757-1.844-.757a2.56 2.56 0 0 0-1.324.363 3.108 3.108 0 0 0-1.024.977c-.284.41-.473.888-.568 1.434l.048-.946c-.032 1.335.173 2.333.614 2.995.452.651 1.151.977 2.096.977Zm12.306.788h-1.119v-1.513l-.016-.441v-2.9c0-.652-.21-1.172-.63-1.561-.421-.388-.988-.583-1.702-.583-.515 0-.983.111-1.403.331-.41.221-.772.52-1.088.899l-.819-.788c.431-.463.914-.82 1.45-1.072.546-.252 1.166-.378 1.86-.378.693 0 1.297.131 1.812.394.525.252.93.609 1.214 1.071.294.463.441 1.009.441 1.639V120Zm-4.082.252c-.589 0-1.109-.105-1.56-.315a2.692 2.692 0 0 1-1.041-.883 2.246 2.246 0 0 1-.362-1.26c0-.547.152-1.009.457-1.387.305-.389.72-.683 1.245-.883.536-.2 1.14-.299 1.812-.299h2.554v.945h-2.396c-.704 0-1.292.132-1.765.394-.462.252-.694.652-.694 1.198 0 .462.174.83.521 1.103.346.273.803.41 1.371.41.546 0 1.04-.105 1.481-.315a2.723 2.723 0 0 0 1.056-.914 2.56 2.56 0 0 0 .457-1.34l.473.268c0 .63-.158 1.193-.473 1.686-.305.494-.73.883-1.276 1.167-.547.283-1.167.425-1.86.425Zm5.387-.252v-1.009h.63c.284 0 .499-.073.646-.22.148-.158.237-.442.268-.851l.489-5.674h5.516V120h-1.166v-7.518l.819.757h-4.917l.899-.757-.521 5.627c-.063.693-.246 1.182-.551 1.465-.294.284-.736.426-1.324.426h-.788Zm9.127 0v-1.009h.63c.284 0 .499-.073.646-.22.148-.158.237-.442.268-.851l.489-5.674h5.516V120h-1.166v-7.518l.819.757h-4.917l.898-.757-.52 5.627c-.063.693-.247 1.182-.551 1.465-.294.284-.736.426-1.324.426h-.788Zm13.151 0v-7.754h3.94c.777 0 1.397.189 1.86.567.462.368.693.862.693 1.482 0 .388-.116.73-.347 1.024a2.2 2.2 0 0 1-.945.678l-.016-.142c.494.137.893.368 1.198.693.315.316.473.71.473 1.182 0 .431-.132.82-.394 1.167-.253.346-.599.62-1.041.819a3.53 3.53 0 0 1-1.434.284h-3.987Zm1.166-.252-.725-.741h3.546c.504 0 .904-.11 1.198-.331.294-.231.441-.546.441-.946 0-.399-.147-.709-.441-.929-.294-.232-.694-.347-1.198-.347h-3.373v-.993h3.326c.483 0 .825-.105 1.024-.315.2-.21.3-.494.3-.851 0-.347-.1-.61-.3-.788-.199-.179-.541-.268-1.024-.268h-3.483l.709-.741v7.25Zm17.466.252h-7.376v-1.009l3.908-3.719c.715-.683 1.261-1.298 1.639-1.844.379-.547.568-1.109.568-1.687 0-.409-.095-.782-.284-1.119a2.082 2.082 0 0 0-.804-.819c-.346-.2-.756-.3-1.229-.3-.641 0-1.219.179-1.734.536-.504.347-.94.82-1.308 1.419l-.835-.772c.525-.736 1.114-1.288 1.765-1.655a4.371 4.371 0 0 1 2.159-.552c.704 0 1.314.147 1.828.441.515.295.915.694 1.198 1.198.294.494.442 1.051.442 1.671 0 .483-.105.945-.316 1.387-.199.43-.504.877-.914 1.339-.399.463-.909.983-1.529 1.561l-1.04.977a15372.55 15372.55 0 0 0-2.064 1.938h5.926V120Zm6.314.252c-.851 0-1.586-.231-2.206-.693-.61-.473-1.077-1.146-1.403-2.018-.326-.882-.489-1.938-.489-3.168 0-1.849.363-3.293 1.088-4.334.725-1.04 1.728-1.56 3.01-1.56 1.282 0 2.285.52 3.01 1.56.725 1.041 1.088 2.485 1.088 4.334 0 1.23-.163 2.286-.489 3.168-.325.872-.793 1.545-1.402 2.018-.61.462-1.345.693-2.207.693Zm0-1.024c.914 0 1.618-.421 2.112-1.261.504-.841.757-2.038.757-3.594 0-1.565-.253-2.768-.757-3.609-.494-.84-1.198-1.261-2.112-1.261-.914 0-1.623.421-2.127 1.261-.494.841-.741 2.044-.741 3.609 0 1.556.247 2.753.741 3.594.504.84 1.213 1.261 2.127 1.261Zm13.294.772h-7.376v-1.009l3.909-3.719c.714-.683 1.26-1.298 1.639-1.844.378-.547.567-1.109.567-1.687 0-.409-.094-.782-.284-1.119a2.086 2.086 0 0 0-.803-.819c-.347-.2-.757-.3-1.23-.3a2.97 2.97 0 0 0-1.733.536c-.505.347-.941.82-1.308 1.419l-.836-.772c.526-.736 1.114-1.288 1.765-1.655a4.372 4.372 0 0 1 2.16-.552c.704 0 1.313.147 1.828.441.515.295.914.694 1.198 1.198.294.494.441 1.051.441 1.671 0 .483-.105.945-.315 1.387-.2.43-.505.877-.914 1.339-.4.463-.909.983-1.529 1.561l-1.04.977-1.041.977-1.024.961h5.926V120Zm2.705-2.727a5.052 5.052 0 0 0 1.324 1.419c.515.357 1.119.536 1.813.536.546 0 1.024-.126 1.434-.379.41-.262.73-.614.961-1.055.242-.452.363-.951.363-1.498 0-.525-.116-.987-.347-1.387a2.493 2.493 0 0 0-.961-.961c-.4-.231-.862-.347-1.387-.347-.568 0-1.072.137-1.513.41a3.668 3.668 0 0 0-1.119 1.087l-.489-.047a3.42 3.42 0 0 1 .662-1.324 3.246 3.246 0 0 1 1.135-.851 3.675 3.675 0 0 1 1.497-.299c.725 0 1.366.163 1.923.488a3.465 3.465 0 0 1 1.34 1.324c.325.557.488 1.193.488 1.907 0 .757-.173 1.434-.52 2.033a3.838 3.838 0 0 1-1.418 1.419c-.599.336-1.282.504-2.049.504-.851 0-1.613-.189-2.286-.567-.662-.389-1.224-.946-1.686-1.671l.835-.741Zm6.368-7.533h-5.564l.394-.284-.63 5.642h-1.088l.725-6.367h6.163v1.009Zm4.11 9.535a.859.859 0 0 1-.268.63.834.834 0 0 1-.615.253.888.888 0 0 1-.63-.253.887.887 0 0 1-.252-.63c0-.242.084-.447.252-.615a.866.866 0 0 1 .63-.268c.242 0 .447.09.615.268a.81.81 0 0 1 .268.615Zm-.52-2.49h-.725c-.011-.189-.026-.494-.047-.914-.021-.431-.048-.925-.079-1.482-.021-.557-.048-1.124-.079-1.702-.021-.588-.042-1.14-.063-1.655-.021-.515-.042-.94-.063-1.276a30.65 30.65 0 0 1-.016-.584c0-.199.068-.362.205-.488a.685.685 0 0 1 .504-.205c.2 0 .368.068.505.205a.636.636 0 0 1 .205.488c0 .053-.011.247-.032.584a122.041 122.041 0 0 1-.126 2.931 80.893 80.893 0 0 1-.079 1.702 136.499 136.499 0 0 1-.11 2.396Z" fill="#2D457C"/><path stroke="#6583C4" stroke-width="1.599" stroke-linecap="round" d="M161.799 258.221v6.396M271.799 258.221v6.396M326.799 260.799v2.402M381.799 258.221v6.396M436.799 260.799v2.402M491.799 258.221v6.396"/></svg>