<svg width="289" height="227" fill="none" xmlns="http://www.w3.org/2000/svg"><path d="M39.64 0h195.143a6.784 6.784 0 0 1 6.784 6.784v196.381H39.641V0Z" fill="#fff"/><path stroke="#6583C4" stroke-opacity=".1" stroke-width="1.239" stroke-linecap="round" d="M37.776 160.426h203.165M37.776 119.545h203.165M37.776 78.665h203.165M37.776 37.784h203.165M81.143.619v204.404M128.221.619v204.404M175.291.619v204.404M223.596.619v204.404"/><path d="M40.867 170.337c16.105-.62 23.538-8.672 39.642-9.292 16.105-.619 32.209-25.395 47.075-40.261 14.866-14.866 36.545-17.963 42.12-41.5 5.574-23.538 16.104-26.635 23.537-41.5" stroke="#6683C2" stroke-width="1.239"/><path stroke="#B4C2E2" stroke-width="1.239" stroke-linecap="round" d="M39.963.619v207.708"/><path d="M70.036 226.553h-6.958v-.951l3.687-3.508c.674-.645 1.19-1.224 1.546-1.74.357-.515.535-1.045.535-1.59 0-.387-.089-.739-.267-1.056a1.966 1.966 0 0 0-.758-.773c-.328-.188-.714-.282-1.16-.282-.605 0-1.15.168-1.635.505-.476.327-.887.773-1.234 1.338l-.788-.728c.496-.694 1.05-1.214 1.665-1.561a4.124 4.124 0 0 1 2.037-.521c.664 0 1.238.139 1.724.417a2.94 2.94 0 0 1 1.13 1.13c.277.465.416.991.416 1.575 0 .456-.099.892-.297 1.308-.189.407-.476.828-.862 1.264a19.44 19.44 0 0 1-1.442 1.472l-.982.921-.98.922-.967.907h5.59v.951Zm5.956.238c-.803 0-1.497-.218-2.082-.654-.574-.446-1.015-1.08-1.323-1.903-.307-.832-.46-1.828-.46-2.988 0-1.744.341-3.107 1.025-4.088.684-.981 1.63-1.472 2.84-1.472 1.209 0 2.155.491 2.839 1.472.684.981 1.026 2.344 1.026 4.088 0 1.16-.154 2.156-.461 2.988-.307.823-.748 1.457-1.323 1.903-.575.436-1.269.654-2.081.654Zm0-.966c.862 0 1.526-.396 1.992-1.189.475-.793.713-1.923.713-3.39 0-1.476-.238-2.611-.713-3.404-.466-.793-1.13-1.189-1.992-1.189-.863 0-1.532.396-2.007 1.189-.466.793-.699 1.928-.699 3.404 0 1.467.233 2.597.699 3.39.475.793 1.144 1.189 2.007 1.189Zm12.539.728h-6.958v-.951l3.687-3.508c.674-.645 1.19-1.224 1.546-1.74.357-.515.535-1.045.535-1.59 0-.387-.089-.739-.267-1.056a1.965 1.965 0 0 0-.758-.773c-.327-.188-.714-.282-1.16-.282-.604 0-1.15.168-1.635.505-.476.327-.887.773-1.234 1.338l-.788-.728c.496-.694 1.05-1.214 1.665-1.561a4.124 4.124 0 0 1 2.037-.521c.664 0 1.239.139 1.724.417.486.277.862.654 1.13 1.13.277.465.416.991.416 1.575 0 .456-.099.892-.297 1.308-.189.407-.476.828-.862 1.264-.377.436-.858.927-1.442 1.472l-.982.921-.98.922-.967.907h5.59v.951Zm8.884 0h-6.957v-.951l3.687-3.508c.674-.645 1.189-1.224 1.546-1.74.357-.515.535-1.045.535-1.59 0-.387-.09-.739-.268-1.056a1.965 1.965 0 0 0-.758-.773c-.327-.188-.713-.282-1.16-.282-.604 0-1.149.168-1.635.505-.475.327-.886.773-1.233 1.338l-.788-.728c.495-.694 1.05-1.214 1.665-1.561a4.124 4.124 0 0 1 2.036-.521c.664 0 1.24.139 1.725.417.485.277.862.654 1.13 1.13.277.465.416.991.416 1.575 0 .456-.1.892-.298 1.308-.188.407-.475.828-.862 1.264-.376.436-.857.927-1.442 1.472l-.98.921-.982.922-.966.907h5.59v.951ZM3.977 155.223h1.1v10.629h-1.1v-9.41l-2.72 2.155v-1.219l2.72-2.155Zm10.228 10.629h-1.1v-2.721h-5.62v-.921l5.62-6.987h1.1v6.987h1.665v.921h-1.665v2.721Zm-1.1-9.202-4.445 5.56h4.445v-5.56Zm4.928 11h-.744a4.35 4.35 0 0 0 .52-1.025c.13-.357.184-.664.164-.922l.12.253a.82.82 0 0 1-.58-.223.79.79 0 0 1-.238-.58c0-.228.074-.421.223-.58a.774.774 0 0 1 .564-.238c.258 0 .466.09.625.268.168.178.253.411.253.699 0 .238-.045.495-.134.773-.08.287-.189.565-.327.832a5.233 5.233 0 0 1-.446.743Zm6.328-12.665c.773 0 1.447.168 2.022.505.574.337 1.02.803 1.338 1.398.326.584.49 1.263.49 2.036 0 .734-.159 1.482-.476 2.245-.307.763-.793 1.536-1.456 2.319-.665.773-1.517 1.561-2.557 2.364H22.13c1.02-.763 1.853-1.462 2.497-2.096.654-.645 1.16-1.254 1.517-1.829a6.263 6.263 0 0 0 .773-1.724l.282.148a3.37 3.37 0 0 1-1.234 1.353 3.332 3.332 0 0 1-1.813.506 3.754 3.754 0 0 1-1.799-.446 3.69 3.69 0 0 1-1.338-1.249c-.337-.535-.505-1.15-.505-1.843 0-.694.163-1.319.49-1.874a3.727 3.727 0 0 1 1.368-1.323c.585-.327 1.249-.49 1.992-.49Zm0 .981c-.515 0-.976.119-1.383.357a2.546 2.546 0 0 0-.966.951 2.655 2.655 0 0 0-.357 1.368 2.552 2.552 0 0 0 1.323 2.274c.407.228.867.342 1.383.342.525 0 .986-.114 1.382-.342.407-.228.724-.54.952-.936.238-.397.357-.843.357-1.338 0-.506-.12-.962-.357-1.368a2.441 2.441 0 0 0-.952-.951c-.396-.238-.857-.357-1.382-.357ZM6.024 114.342h1.1v10.629h-1.1v-9.41l-2.72 2.155v-1.219l2.72-2.155Zm4.267 8.057c.347.545.763.991 1.249 1.338.486.337 1.056.505 1.71.505.515 0 .966-.119 1.352-.356a2.59 2.59 0 0 0 .907-.996 2.95 2.95 0 0 0 .342-1.413c0-.495-.109-.931-.327-1.308a2.349 2.349 0 0 0-.907-.907c-.376-.218-.812-.327-1.308-.327-.535 0-1.01.129-1.427.387-.406.248-.758.59-1.056 1.026l-.46-.045c.129-.486.337-.902.624-1.249a3.04 3.04 0 0 1 1.07-.802 3.445 3.445 0 0 1 1.413-.283c.683 0 1.288.154 1.813.461a3.25 3.25 0 0 1 1.264 1.249c.307.525.46 1.124.46 1.798 0 .714-.163 1.353-.49 1.918a3.61 3.61 0 0 1-1.338 1.338c-.565.317-1.209.476-1.932.476-.803 0-1.522-.179-2.156-.535-.624-.367-1.155-.892-1.59-1.576l.787-.699Zm6.006-7.106h-5.248l.372-.267-.595 5.322H9.801l.684-6.006h5.812v.951Zm2.97 11.477h-.743c.218-.318.391-.659.52-1.026.129-.357.183-.664.164-.922l.119.253a.815.815 0 0 1-.58-.223.79.79 0 0 1-.238-.58c0-.228.074-.421.223-.58a.773.773 0 0 1 .565-.237c.258 0 .466.089.624.267.169.178.253.411.253.699 0 .238-.045.495-.134.773-.08.287-.188.565-.327.832a5.246 5.246 0 0 1-.446.744Zm6.328-12.666c.773 0 1.447.168 2.022.505.575.337 1.02.803 1.338 1.398.327.585.49 1.263.49 2.036 0 .734-.158 1.482-.475 2.245-.307.763-.793 1.536-1.457 2.319-.664.773-1.516 1.561-2.557 2.364h-1.59c1.02-.763 1.853-1.462 2.497-2.096.654-.644 1.16-1.254 1.516-1.829a6.247 6.247 0 0 0 .773-1.724l.283.149a3.375 3.375 0 0 1-1.234 1.352 3.332 3.332 0 0 1-1.814.506 3.754 3.754 0 0 1-1.799-.446c-.555-.307-1-.724-1.338-1.249-.337-.535-.505-1.15-.505-1.843 0-.694.163-1.318.49-1.873a3.727 3.727 0 0 1 1.368-1.323c.585-.328 1.249-.491 1.992-.491Zm0 .981c-.515 0-.976.119-1.382.357a2.547 2.547 0 0 0-.967.951 2.661 2.661 0 0 0-.356 1.368 2.553 2.553 0 0 0 1.323 2.274c.406.228.867.342 1.382.342.526 0 .986-.114 1.383-.342a2.47 2.47 0 0 0 .951-.936c.238-.397.357-.843.357-1.338a2.66 2.66 0 0 0-.357-1.368 2.44 2.44 0 0 0-.951-.951c-.397-.238-.858-.357-1.383-.357ZM4.34 73.461h1.1v10.63h-1.1v-9.41l-2.72 2.155v-1.22l2.72-2.155Zm7.508 10.867c-.773 0-1.447-.168-2.022-.505a3.596 3.596 0 0 1-1.353-1.398c-.317-.594-.476-1.273-.476-2.036 0-.734.159-1.482.476-2.245.317-.763.803-1.536 1.457-2.32.664-.782 1.516-1.57 2.557-2.363h1.59c-1.01.763-1.843 1.467-2.497 2.111-.654.634-1.165 1.239-1.531 1.814a6.236 6.236 0 0 0-.758 1.724l-.283-.148a3.3 3.3 0 0 1 1.22-1.338 3.334 3.334 0 0 1 1.828-.52c.644 0 1.244.153 1.799.46.554.298 1 .714 1.337 1.249.337.525.506 1.135.506 1.828 0 .694-.169 1.319-.506 1.873a3.583 3.583 0 0 1-1.367 1.324c-.575.327-1.234.49-1.977.49Zm0-.981a2.685 2.685 0 0 0 2.348-1.308c.238-.407.357-.862.357-1.368 0-.505-.119-.951-.357-1.338a2.579 2.579 0 0 0-.966-.936 2.777 2.777 0 0 0-1.382-.342c-.516 0-.977.114-1.383.342a2.58 2.58 0 0 0-.966.936c-.228.387-.342.833-.342 1.338 0 .505.114.961.342 1.368a2.685 2.685 0 0 0 2.349 1.308Zm6.185 2.542h-.744c.218-.317.392-.66.52-1.026.13-.356.184-.664.164-.921l.12.252a.817.817 0 0 1-.58-.223.789.789 0 0 1-.238-.58c0-.227.074-.42.223-.58a.772.772 0 0 1 .564-.237c.258 0 .466.09.625.267.168.179.253.412.253.7 0 .237-.045.495-.134.772-.08.288-.189.565-.327.833a5.271 5.271 0 0 1-.446.743Zm6.328-12.666c.773 0 1.447.169 2.022.506.574.337 1.02.802 1.338 1.397.326.585.49 1.264.49 2.037 0 .733-.159 1.481-.476 2.245-.307.763-.793 1.536-1.456 2.319-.665.773-1.517 1.56-2.557 2.363H22.13c1.02-.763 1.853-1.462 2.497-2.096.654-.644 1.16-1.254 1.517-1.828.366-.585.624-1.16.773-1.725l.282.149a3.37 3.37 0 0 1-1.234 1.353 3.333 3.333 0 0 1-1.813.505 3.75 3.75 0 0 1-1.799-.446 3.68 3.68 0 0 1-1.338-1.249c-.337-.535-.505-1.15-.505-1.843 0-.694.163-1.318.49-1.873a3.728 3.728 0 0 1 1.368-1.323c.585-.327 1.249-.49 1.992-.49Zm0 .981c-.515 0-.976.12-1.383.357a2.543 2.543 0 0 0-.966.952 2.656 2.656 0 0 0-.357 1.367 2.55 2.55 0 0 0 1.323 2.275c.407.228.867.342 1.383.342.525 0 .986-.114 1.382-.342a2.47 2.47 0 0 0 .952-.937 2.55 2.55 0 0 0 .357-1.338c0-.505-.12-.961-.357-1.367a2.44 2.44 0 0 0-.952-.952c-.396-.238-.857-.357-1.382-.357ZM3.948 32.58h1.1v10.63h-1.1V33.8l-2.72 2.155v-1.22l2.72-2.155Zm7.508 10.867c-.744 0-1.408-.134-1.992-.401-.585-.268-1.046-.635-1.383-1.1a2.734 2.734 0 0 1-.505-1.62c0-.586.168-1.106.505-1.562.337-.456.798-.812 1.383-1.07.584-.268 1.248-.402 1.992-.402.753 0 1.417.134 1.992.402.584.258 1.045.614 1.382 1.07.337.456.506.976.506 1.561 0 .605-.169 1.145-.506 1.62-.337.466-.798.833-1.382 1.1-.575.268-1.24.402-1.992.402Zm0-5.53c-.674 0-1.274-.114-1.8-.342-.524-.228-.94-.54-1.248-.937a2.238 2.238 0 0 1-.446-1.352c0-.575.149-1.08.446-1.517a3.07 3.07 0 0 1 1.249-1.04c.525-.258 1.125-.387 1.799-.387.674 0 1.273.13 1.798.387.526.248.937.594 1.234 1.04.308.436.461.942.461 1.517 0 .495-.153.946-.46 1.352-.298.397-.71.71-1.235.937-.525.228-1.124.342-1.798.342Zm0 4.564c.505 0 .961-.095 1.367-.283.416-.188.744-.446.981-.773.248-.327.372-.694.372-1.1 0-.416-.124-.783-.372-1.1a2.409 2.409 0 0 0-.98-.773 3.215 3.215 0 0 0-1.368-.282c-.506 0-.967.094-1.383.282a2.548 2.548 0 0 0-.981.773 1.784 1.784 0 0 0-.357 1.1c0 .406.12.773.357 1.1.248.327.575.585.981.773.416.188.877.283 1.383.283Zm0-5.278c.436 0 .827-.084 1.174-.252.357-.169.64-.397.847-.684.208-.298.313-.625.313-.981a1.72 1.72 0 0 0-.313-1.011 2.108 2.108 0 0 0-.847-.699 2.53 2.53 0 0 0-1.174-.267c-.426 0-.818.089-1.175.267-.357.169-.639.401-.847.699a1.72 1.72 0 0 0-.312 1.01c0 .357.104.684.312.982.208.287.49.515.847.684.357.168.748.252 1.175.252Zm6.214 7.805h-.743c.218-.317.391-.66.52-1.026.129-.357.183-.664.163-.922l.12.253a.817.817 0 0 1-.58-.223.789.789 0 0 1-.238-.58c0-.227.074-.42.223-.58a.772.772 0 0 1 .565-.237c.257 0 .465.089.624.267.168.179.253.412.253.7 0 .237-.045.495-.134.772a4.27 4.27 0 0 1-.327.833 5.27 5.27 0 0 1-.446.743Zm6.521-1.561c-.803 0-1.496-.218-2.081-.654-.575-.446-1.016-1.08-1.323-1.903-.307-.832-.46-1.828-.46-2.988 0-1.744.341-3.107 1.025-4.088.684-.981 1.63-1.472 2.84-1.472 1.208 0 2.155.49 2.838 1.472.684.981 1.026 2.344 1.026 4.088 0 1.16-.153 2.156-.46 2.988-.308.823-.749 1.457-1.324 1.903-.574.436-1.268.654-2.08.654Zm0-.966c.862 0 1.526-.397 1.992-1.19.476-.792.714-1.922.714-3.389 0-1.477-.238-2.611-.714-3.404-.466-.793-1.13-1.19-1.992-1.19-.862 0-1.531.397-2.007 1.19-.466.793-.698 1.927-.698 3.404 0 1.467.232 2.597.698 3.39.476.792 1.145 1.189 2.007 1.189Z" fill="#676767"/><path stroke="#6583C4" stroke-width="1.239" stroke-linecap="round" d="M81.143 200.068v4.955M37.776 160.426h4.955"/><path d="M117.106 226.553h-6.957v-.951l3.687-3.508c.674-.645 1.189-1.224 1.546-1.74.357-.515.535-1.045.535-1.59a2.12 2.12 0 0 0-.267-1.056 1.965 1.965 0 0 0-.759-.773c-.327-.188-.713-.282-1.159-.282-.605 0-1.15.168-1.635.505-.476.327-.887.773-1.234 1.338l-.788-.728c.495-.694 1.05-1.214 1.665-1.561a4.122 4.122 0 0 1 2.036-.521c.664 0 1.239.139 1.725.417.486.277.862.654 1.13 1.129.277.466.416.991.416 1.576 0 .456-.099.892-.297 1.308-.189.407-.476.828-.863 1.264-.376.436-.857.927-1.442 1.472l-.981.921a829.1 829.1 0 0 1-.981.922l-.966.907h5.589v.951Zm5.956.238c-.802 0-1.496-.218-2.081-.654-.575-.446-1.016-1.08-1.323-1.903-.307-.832-.461-1.828-.461-2.988 0-1.744.342-3.107 1.026-4.088.684-.981 1.63-1.472 2.839-1.472 1.21 0 2.156.491 2.84 1.472.684.981 1.026 2.344 1.026 4.088 0 1.16-.154 2.156-.461 2.988-.308.823-.749 1.457-1.323 1.903-.575.436-1.269.654-2.082.654Zm0-.966c.863 0 1.527-.397 1.992-1.189.476-.793.714-1.923.714-3.39 0-1.477-.238-2.611-.714-3.404-.465-.793-1.129-1.189-1.992-1.189-.862 0-1.531.396-2.006 1.189-.466.793-.699 1.927-.699 3.404 0 1.467.233 2.597.699 3.39.475.792 1.144 1.189 2.006 1.189Zm12.539.728h-6.957v-.951l3.687-3.508c.674-.645 1.189-1.224 1.546-1.74.357-.515.535-1.045.535-1.59a2.12 2.12 0 0 0-.267-1.056 1.959 1.959 0 0 0-.759-.773c-.327-.188-.713-.282-1.159-.282-.605 0-1.15.168-1.635.505-.476.327-.887.773-1.234 1.338l-.788-.728c.496-.694 1.051-1.214 1.665-1.561a4.123 4.123 0 0 1 2.037-.521c.664 0 1.238.139 1.724.417.486.277.862.654 1.13 1.129.277.466.416.991.416 1.576 0 .456-.099.892-.297 1.308-.189.407-.476.828-.863 1.264-.376.436-.857.927-1.441 1.472l-.982.921a829.1 829.1 0 0 1-.981.922l-.966.907h5.589v.951Zm1.735-1.694.788-.729a4.51 4.51 0 0 0 1.337 1.234c.516.307 1.101.461 1.755.461.763 0 1.372-.208 1.828-.625a2.02 2.02 0 0 0 .699-1.575c0-.446-.119-.828-.357-1.145a2.151 2.151 0 0 0-.951-.728 3.258 3.258 0 0 0-1.353-.268h-1.041v-.966h1.041c.446 0 .847-.08 1.204-.238.357-.159.639-.382.847-.669.208-.287.312-.624.312-1.011 0-.575-.203-1.041-.609-1.397-.406-.367-.942-.55-1.606-.55-.594 0-1.124.153-1.59.46-.466.298-.872.709-1.219 1.234l-.788-.728a5.092 5.092 0 0 1 1.591-1.412 3.956 3.956 0 0 1 2.006-.521c.664 0 1.249.129 1.755.387.505.248.902.595 1.189 1.04.287.437.431.932.431 1.487 0 .496-.154.942-.461 1.338-.297.396-.718.709-1.263.937-.536.227-1.16.341-1.873.341l.148-.55c.743 0 1.398.129 1.962.387.565.258 1.001.609 1.309 1.055.317.436.475.942.475 1.517 0 .594-.158 1.134-.475 1.62-.308.476-.739.852-1.294 1.13-.545.277-1.184.416-1.917.416a4.67 4.67 0 0 1-2.171-.505 5.464 5.464 0 0 1-1.709-1.427Z" fill="#676767"/><path stroke="#6583C4" stroke-width="1.239" stroke-linecap="round" d="M128.221 200.068v4.955M37.776 119.545h4.955"/><path d="M163.974 226.553h-6.957v-.951l3.687-3.508c.673-.645 1.189-1.224 1.546-1.74.356-.515.535-1.045.535-1.59a2.11 2.11 0 0 0-.268-1.056 1.956 1.956 0 0 0-.758-.773c-.327-.188-.714-.282-1.159-.282-.605 0-1.15.168-1.636.505-.475.327-.887.773-1.234 1.338l-.787-.728c.495-.694 1.05-1.214 1.665-1.561a4.122 4.122 0 0 1 2.036-.521c.664 0 1.239.139 1.725.417.485.277.862.654 1.129 1.129.278.466.417.991.417 1.576 0 .456-.1.892-.298 1.308-.188.407-.475.828-.862 1.264-.377.436-.857.927-1.442 1.472l-.981.921a829.1 829.1 0 0 1-.981.922l-.966.907h5.589v.951Zm5.956.238c-.803 0-1.496-.218-2.081-.654-.575-.446-1.016-1.08-1.323-1.903-.307-.832-.461-1.828-.461-2.988 0-1.744.342-3.107 1.026-4.088.684-.981 1.63-1.472 2.839-1.472s2.156.491 2.839 1.472c.684.981 1.026 2.344 1.026 4.088 0 1.16-.153 2.156-.461 2.988-.307.823-.748 1.457-1.323 1.903-.575.436-1.268.654-2.081.654Zm0-.966c.862 0 1.526-.397 1.992-1.189.476-.793.714-1.923.714-3.39 0-1.477-.238-2.611-.714-3.404-.466-.793-1.13-1.189-1.992-1.189-.862 0-1.531.396-2.007 1.189-.466.793-.698 1.927-.698 3.404 0 1.467.232 2.597.698 3.39.476.792 1.145 1.189 2.007 1.189Zm12.539.728h-6.957v-.951l3.687-3.508c.674-.645 1.189-1.224 1.546-1.74.356-.515.535-1.045.535-1.59a2.11 2.11 0 0 0-.268-1.056 1.956 1.956 0 0 0-.758-.773c-.327-.188-.713-.282-1.159-.282-.605 0-1.15.168-1.636.505-.475.327-.887.773-1.234 1.338l-.787-.728c.495-.694 1.05-1.214 1.665-1.561a4.122 4.122 0 0 1 2.036-.521c.664 0 1.239.139 1.725.417.485.277.862.654 1.129 1.129.278.466.417.991.417 1.576 0 .456-.099.892-.298 1.308-.188.407-.475.828-.862 1.264-.376.436-.857.927-1.442 1.472l-.981.921a829.1 829.1 0 0 1-.981.922l-.966.907h5.589v.951Zm8.223 0h-1.1v-2.72h-5.62v-.922l5.62-6.987h1.1v6.987h1.665v.922h-1.665v2.72Zm-1.1-9.202-4.445 5.56h4.445v-5.56Z" fill="#676767"/><path stroke="#6583C4" stroke-width="1.239" stroke-linecap="round" d="M175.291 200.068v4.955M37.776 78.665h4.955"/><path d="M212.548 226.553h-6.957v-.951l3.686-3.508c.674-.645 1.19-1.224 1.546-1.74.357-.515.536-1.045.536-1.59 0-.387-.09-.739-.268-1.056a1.956 1.956 0 0 0-.758-.773c-.327-.188-.714-.282-1.16-.282-.604 0-1.149.168-1.635.505-.476.327-.887.773-1.234 1.338l-.788-.728c.496-.694 1.051-1.214 1.665-1.561a4.128 4.128 0 0 1 2.037-.521c.664 0 1.239.139 1.724.417a2.94 2.94 0 0 1 1.13 1.129c.278.466.416.991.416 1.576 0 .456-.099.892-.297 1.308-.188.407-.476.828-.862 1.264-.377.436-.857.927-1.442 1.472l-.981.921a829.1 829.1 0 0 1-.981.922l-.967.907h5.59v.951Zm5.956.238c-.803 0-1.497-.218-2.081-.654-.575-.446-1.016-1.08-1.323-1.903-.308-.832-.461-1.828-.461-2.988 0-1.744.342-3.107 1.026-4.088.683-.981 1.63-1.472 2.839-1.472s2.155.491 2.839 1.472c.684.981 1.026 2.344 1.026 4.088 0 1.16-.154 2.156-.461 2.988-.307.823-.748 1.457-1.323 1.903-.575.436-1.268.654-2.081.654Zm0-.966c.862 0 1.526-.397 1.992-1.189.476-.793.713-1.923.713-3.39 0-1.477-.237-2.611-.713-3.404-.466-.793-1.13-1.189-1.992-1.189-.862 0-1.531.396-2.007 1.189-.466.793-.699 1.927-.699 3.404 0 1.467.233 2.597.699 3.39.476.792 1.145 1.189 2.007 1.189Zm12.539.728h-6.957v-.951l3.686-3.508c.674-.645 1.19-1.224 1.546-1.74.357-.515.536-1.045.536-1.59 0-.387-.09-.739-.268-1.056a1.956 1.956 0 0 0-.758-.773c-.327-.188-.714-.282-1.16-.282-.604 0-1.149.168-1.635.505-.476.327-.887.773-1.234 1.338l-.788-.728c.496-.694 1.051-1.214 1.665-1.561a4.128 4.128 0 0 1 2.037-.521c.664 0 1.239.139 1.724.417a2.94 2.94 0 0 1 1.13 1.129c.278.466.416.991.416 1.576 0 .456-.099.892-.297 1.308-.188.407-.476.828-.862 1.264-.377.436-.857.927-1.442 1.472l-.981.921a829.1 829.1 0 0 1-1.948 1.829h5.59v.951Zm2.552-2.572c.347.546.763.991 1.248 1.338.486.337 1.056.506 1.71.506.515 0 .966-.119 1.353-.357.386-.248.689-.58.907-.996.228-.426.342-.897.342-1.412 0-.496-.11-.932-.328-1.308a2.344 2.344 0 0 0-.906-.907c-.377-.218-.813-.327-1.309-.327-.535 0-1.01.129-1.427.386-.406.248-.758.59-1.055 1.026l-.461-.045c.129-.485.337-.901.624-1.248a3.045 3.045 0 0 1 1.071-.803 3.46 3.46 0 0 1 1.412-.283c.684 0 1.288.154 1.814.461a3.26 3.26 0 0 1 1.263 1.249c.307.525.461 1.125.461 1.799 0 .713-.163 1.353-.491 1.917a3.614 3.614 0 0 1-1.337 1.338c-.565.318-1.21.476-1.933.476-.803 0-1.521-.178-2.156-.535-.624-.367-1.154-.892-1.59-1.576l.788-.699Zm6.005-7.105h-5.247l.372-.268-.595 5.322h-1.026l.684-6.006h5.812v.952Z" fill="#676767"/><path stroke="#6583C4" stroke-width="1.239" stroke-linecap="round" d="M223.596 200.068v4.955M37.776 37.784h4.955"/><path stroke="#B4C2E2" stroke-width="1.239" stroke-linecap="round" d="M240.888 202.782H34.537"/><circle cx="192.014" cy="38.403" r="6.194" fill="#F37E60"/><circle cx="169.724" cy="79.284" r="3.716" fill="#F37E60"/><circle cx="127.599" cy="120.165" r="3.716" fill="#F37E60"/><circle cx="80.521" cy="161.046" r="3.716" fill="#F37E60"/><path d="M191.984 52.097c0-1.904 2.513-2.613 3.533-1.004a67.216 67.216 0 0 0 4.078 5.759 7.179 7.179 0 0 0 2.907 2.177c.112-.004.224-.01.337-.01h2.448c.011-5.952.022-4.629.04 0h72.814c5.994 0 10.854 4.86 10.854 10.855v18.317c0 5.995-4.86 10.854-10.854 10.854h-75.302c-5.995 0-10.855-4.86-10.855-10.854V52.097Z" fill="#B6CAF6"/><path d="M205.376 67.43h.903v8.732h-.903v-7.73l-2.235 1.77v-1l2.235-1.771Zm6.167 8.927c-.611 0-1.156-.11-1.636-.33a2.806 2.806 0 0 1-1.136-.903 2.245 2.245 0 0 1-.415-1.331c0-.48.138-.908.415-1.283.277-.374.655-.667 1.136-.879.48-.22 1.025-.33 1.636-.33.619 0 1.164.11 1.636.33.481.212.859.505 1.136.88a2.1 2.1 0 0 1 .415 1.282c0 .496-.138.94-.415 1.33a2.806 2.806 0 0 1-1.136.904c-.472.22-1.017.33-1.636.33Zm0-4.543c-.554 0-1.046-.093-1.478-.28a2.549 2.549 0 0 1-1.025-.77 1.834 1.834 0 0 1-.367-1.11c0-.473.122-.888.367-1.246a2.522 2.522 0 0 1 1.025-.855c.432-.212.924-.318 1.478-.318.553 0 1.046.106 1.477.318.432.203.77.488 1.014.855.252.358.379.773.379 1.245 0 .407-.127.777-.379 1.111-.244.326-.582.582-1.014.77-.431.187-.924.28-1.477.28Zm0 3.75c.415 0 .79-.078 1.123-.233.342-.154.611-.366.806-.635.204-.268.306-.57.306-.903 0-.342-.102-.644-.306-.904a1.977 1.977 0 0 0-.806-.635 2.638 2.638 0 0 0-1.123-.232c-.415 0-.794.077-1.136.232a2.096 2.096 0 0 0-.806.635c-.195.26-.293.562-.293.904 0 .333.098.635.293.903.204.269.472.48.806.635.342.155.721.232 1.136.232Zm0-4.336c.358 0 .68-.069.965-.207.293-.139.525-.326.696-.562.171-.244.256-.513.256-.806 0-.31-.085-.586-.256-.83a1.732 1.732 0 0 0-.696-.574 2.08 2.08 0 0 0-.965-.22c-.35 0-.672.073-.965.22-.293.138-.525.33-.696.574a1.412 1.412 0 0 0-.256.83c0 .293.085.562.256.806.171.236.403.423.696.562.293.138.615.207.965.207Zm9.871 1.893h-3.273v-.818h3.273v.818Zm8.343 1.478.648.598a3.006 3.006 0 0 1-1.05.855 3.182 3.182 0 0 1-1.417.305c-.611 0-1.156-.138-1.636-.415a3.073 3.073 0 0 1-1.124-1.136c-.268-.48-.403-1.03-.403-1.648 0-.619.135-1.168.403-1.649.277-.48.656-.859 1.136-1.135.48-.277 1.026-.416 1.636-.416.529 0 1.002.106 1.417.318.415.203.761.484 1.038.842l-.648.599a2.21 2.21 0 0 0-.732-.696c-.293-.18-.651-.269-1.075-.269-.439 0-.826.102-1.16.305a2.087 2.087 0 0 0-.781.855c-.188.358-.281.773-.281 1.246 0 .472.093.891.281 1.257.187.359.447.64.781.843.334.204.721.305 1.16.305.424 0 .782-.085 1.075-.256.293-.18.537-.415.732-.708Zm2.979 3.932h-.904v-8.377h.892v1.82h-.22c.073-.4.232-.75.476-1.051.253-.301.562-.537.928-.708a2.88 2.88 0 0 1 1.209-.257c.586 0 1.107.143 1.563.428.456.276.81.655 1.063 1.135.26.48.39 1.026.39 1.637 0 .618-.134 1.168-.403 1.648-.26.48-.626.859-1.099 1.136-.464.277-.997.415-1.599.415-.546 0-1.026-.11-1.441-.33a2.333 2.333 0 0 1-.928-.915 2.2 2.2 0 0 1-.22-1.307l.171-.244c.033.382.155.728.366 1.038a2.2 2.2 0 0 0 .831.708c.342.17.716.256 1.123.256.448 0 .839-.102 1.172-.305.334-.212.595-.497.782-.855a2.61 2.61 0 0 0 .293-1.245c0-.464-.094-.876-.281-1.234a2.034 2.034 0 0 0-.757-.854 2.037 2.037 0 0 0-1.136-.318c-.439 0-.83.11-1.172.33a2.27 2.27 0 0 0-.806.916c-.195.382-.293.83-.293 1.343v5.19Zm11.901-4.079.635.598c-.318.407-.7.729-1.148.965-.448.228-.961.342-1.539.342-.635 0-1.205-.138-1.709-.415a3.08 3.08 0 0 1-1.173-1.136c-.284-.48-.427-1.03-.427-1.648 0-.619.134-1.168.403-1.649.277-.48.655-.859 1.136-1.135.48-.277 1.025-.416 1.636-.416.586 0 1.103.139 1.551.416.456.268.814.639 1.074 1.11.261.473.391 1.018.391 1.637v.073h-.928v-.073c0-.472-.093-.883-.281-1.233a1.993 1.993 0 0 0-.745-.83 1.886 1.886 0 0 0-1.062-.306c-.44 0-.826.102-1.16.305a2.115 2.115 0 0 0-.782.843c-.187.358-.28.773-.28 1.245 0 .473.101.892.305 1.258.203.366.48.651.83.855.358.204.77.305 1.234.305.846 0 1.526-.37 2.039-1.11Zm.83-.977h-5.434v-.745h5.239l.195.391v.354Zm1.057 2.442v-.525h.245c.163 0 .289-.036.378-.11.098-.081.171-.211.22-.39.057-.18.102-.424.134-.733l.477-4.005h4.151v5.641h-.903v-5.458l.635.586h-3.749l.733-.586-.489 3.895c-.049.415-.126.745-.232.99a1.103 1.103 0 0 1-.452.537c-.187.106-.447.158-.781.158h-.367Zm-.244 1.808v-2.333h6.704v2.333h-.855v-2.21l.635.647h-5.983l.354-.648v2.21h-.855Zm12.922-1.563v-6.008h.903v6.008h-.903Zm-4.641 0v-6.008h.904v6.008h-.904Zm.44-2.772v-.77h4.701v.77h-4.701Zm7.061 2.772v-6.008h.904v4.799l-.098-.037 3.908-4.762h.781v6.008h-.903v-4.8l.097.037-3.907 4.763h-.782Zm7.453 0v-6.008h.904v4.799l-.098-.037 3.908-4.762h.781v6.008h-.903v-4.8l.097.037-3.907 4.763h-.782Zm2.809-7.132c-.546 0-1.005-.138-1.38-.415-.366-.285-.574-.676-.623-1.172h.818c.049.35.175.606.379.77.212.162.48.243.806.243.317 0 .578-.081.781-.244.212-.163.342-.42.391-.77h.818c-.049.497-.256.888-.622 1.173-.367.277-.823.415-1.368.415Zm-66.497 22.327c-1.009 0-1.778-.362-2.307-1.087-.522-.733-.782-1.795-.782-3.187 0-1.327.212-2.328.635-3.004.431-.675 1.111-1.09 2.039-1.245l2.687-.452.158.793-2.686.477c-.472.081-.851.244-1.136.488-.285.244-.492.603-.622 1.075-.131.464-.208 1.082-.232 1.856l-.159.366c.049-.447.203-.83.464-1.148.26-.325.586-.574.977-.745.39-.179.798-.268 1.221-.268.594 0 1.095.134 1.502.403.407.26.716.614.928 1.062.212.448.317.953.317 1.514 0 .627-.122 1.177-.366 1.649a2.568 2.568 0 0 1-1.05 1.075c-.448.252-.977.378-1.588.378Zm-.012-.806c.643 0 1.148-.204 1.514-.61.375-.416.562-.977.562-1.686 0-.692-.175-1.229-.525-1.611-.342-.391-.818-.587-1.429-.587-.366 0-.708.094-1.025.281-.31.18-.574.432-.794.757-.22.318-.366.688-.44 1.112l.037-.733c-.025 1.034.134 1.807.476 2.32.35.505.892.757 1.624.757Zm9.534.61h-.867V89.99l-.012-.342v-2.246c0-.505-.163-.908-.488-1.21-.326-.3-.766-.451-1.319-.451-.399 0-.761.085-1.087.256a2.856 2.856 0 0 0-.842.696l-.635-.61a3.652 3.652 0 0 1 1.123-.83 3.4 3.4 0 0 1 1.441-.294c.537 0 1.005.102 1.404.306.407.195.721.472.94.83.228.358.342.782.342 1.27v3.798Zm-3.162.196c-.456 0-.859-.081-1.209-.244a2.08 2.08 0 0 1-.806-.684 1.74 1.74 0 0 1-.281-.977c0-.423.118-.781.354-1.075.236-.3.558-.529.965-.683a4 4 0 0 1 1.404-.232h1.978v.732h-1.856c-.545 0-1.001.102-1.367.306-.359.195-.538.504-.538.928 0 .358.135.643.403.854.269.212.623.318 1.063.318a2.63 2.63 0 0 0 1.147-.244c.342-.171.615-.407.819-.709.211-.3.329-.647.354-1.038l.366.208c0 .489-.122.924-.366 1.307a2.474 2.474 0 0 1-.989.903c-.424.22-.904.33-1.441.33Zm4.174-.195v-.782h.488c.22 0 .387-.057.501-.17.114-.123.183-.343.207-.66l.379-4.396h4.274v6.008h-.904v-5.825l.635.586h-3.81l.696-.586-.403 4.36c-.049.537-.191.915-.427 1.135-.228.22-.57.33-1.026.33h-.61Zm7.071 0v-.782h.488c.22 0 .387-.057.501-.17.114-.123.183-.343.208-.66l.378-4.396h4.274v6.008h-.903v-5.825l.635.586h-3.81l.696-.586-.403 4.36c-.049.537-.192.915-.428 1.135-.228.22-.57.33-1.025.33h-.611Zm10.189 0v-6.008h3.053c.602 0 1.083.146 1.441.44.358.284.537.667.537 1.147 0 .301-.089.566-.268.794a1.71 1.71 0 0 1-.733.525l-.012-.11c.382.106.692.285.928.537.244.245.366.55.366.916 0 .334-.102.635-.305.904-.196.269-.464.48-.806.635-.334.146-.704.22-1.111.22h-3.09Zm.904-.196-.562-.574h2.748c.39 0 .7-.085.928-.256a.882.882 0 0 0 .342-.733c0-.31-.114-.55-.342-.72-.228-.18-.538-.269-.928-.269h-2.614v-.77h2.577c.374 0 .639-.08.794-.243.154-.163.232-.383.232-.66 0-.269-.078-.472-.232-.61-.155-.139-.42-.208-.794-.208h-2.699l.55-.574v5.617Zm13.532.196h-5.715v-.782l3.029-2.882c.553-.529.977-1.005 1.27-1.428.293-.424.439-.86.439-1.307 0-.318-.073-.607-.22-.867a1.609 1.609 0 0 0-.622-.635 1.88 1.88 0 0 0-.953-.232c-.496 0-.944.138-1.343.415a3.576 3.576 0 0 0-1.014 1.1l-.647-.6c.407-.569.863-.996 1.368-1.281a3.387 3.387 0 0 1 1.673-.428c.545 0 1.017.114 1.416.342.399.228.709.538.928.928.228.383.342.814.342 1.295 0 .374-.081.732-.244 1.074-.155.334-.391.68-.708 1.038-.31.358-.704.761-1.185 1.209a538.075 538.075 0 0 1-1.612 1.514l-.793.745h4.591v.782Zm4.893.195c-.66 0-1.23-.18-1.71-.537-.472-.367-.834-.888-1.087-1.563-.252-.684-.378-1.502-.378-2.455 0-1.433.281-2.552.842-3.358.562-.806 1.339-1.209 2.333-1.209.993 0 1.77.403 2.332 1.21.562.805.842 1.925.842 3.357 0 .953-.126 1.77-.378 2.455-.252.675-.615 1.196-1.087 1.563-.472.358-1.042.537-1.709.537Zm0-.794c.708 0 1.253-.325 1.636-.977.391-.65.586-1.579.586-2.784 0-1.213-.195-2.145-.586-2.796-.383-.651-.928-.977-1.636-.977-.709 0-1.258.326-1.649.977-.383.651-.574 1.583-.574 2.796 0 1.205.191 2.133.574 2.784.391.652.94.977 1.649.977Zm10.299.599h-5.714v-.782l3.028-2.882c.554-.529.977-1.005 1.27-1.428.293-.424.44-.86.44-1.307 0-.318-.074-.607-.22-.867a1.612 1.612 0 0 0-.623-.635 1.876 1.876 0 0 0-.952-.232c-.497 0-.945.138-1.344.415-.39.269-.728.635-1.013 1.1l-.647-.6c.407-.569.863-.996 1.367-1.281a3.39 3.39 0 0 1 1.673-.428c.546 0 1.018.114 1.417.342.399.228.708.538.928.928.228.383.342.814.342 1.295 0 .374-.082.732-.245 1.074-.154.334-.39.68-.708 1.038-.309.358-.704.761-1.184 1.209l-.806.757-.806.757-.794.745h4.591v.782Zm2.097-2.113c.285.448.626.814 1.025 1.1.399.276.867.414 1.405.414.423 0 .793-.097 1.111-.293.317-.203.566-.476.745-.818.187-.35.281-.737.281-1.16 0-.407-.09-.765-.269-1.075a1.923 1.923 0 0 0-.745-.745 2.104 2.104 0 0 0-1.075-.268c-.439 0-.83.106-1.172.317a2.837 2.837 0 0 0-.867.843l-.378-.037c.106-.399.276-.74.513-1.025.244-.285.537-.505.879-.66.35-.154.736-.232 1.16-.232.562 0 1.058.126 1.49.379.439.244.785.586 1.038 1.025.252.432.378.924.378 1.478 0 .586-.134 1.111-.403 1.575-.269.464-.635.83-1.099 1.1-.464.26-.993.39-1.587.39-.66 0-1.25-.147-1.771-.44-.513-.3-.948-.732-1.307-1.294l.648-.574Zm4.933-5.837h-4.311l.306-.22-.489 4.372h-.842l.561-4.933h4.775v.781Zm3.185 7.388a.67.67 0 0 1-.208.488.648.648 0 0 1-.476.196.692.692 0 0 1-.489-.196.69.69 0 0 1-.195-.488c0-.187.065-.346.195-.476a.671.671 0 0 1 .489-.208c.187 0 .346.07.476.208a.63.63 0 0 1 .208.476Zm-.403-1.93h-.562l-.037-.708c-.016-.334-.036-.716-.061-1.148a70.566 70.566 0 0 0-.061-1.318c-.016-.456-.032-.884-.049-1.282a41.207 41.207 0 0 0-.049-.99c-.008-.26-.012-.41-.012-.452 0-.154.053-.28.159-.378a.531.531 0 0 1 .391-.159.53.53 0 0 1 .39.159.491.491 0 0 1 .159.378c0 .041-.008.192-.024.452a114.493 114.493 0 0 1-.098 2.272 66.4 66.4 0 0 1-.061 1.318 84.836 84.836 0 0 1-.085 1.857Z" fill="#2D457C"/></svg>