<svg width="396" height="308" fill="none" xmlns="http://www.w3.org/2000/svg"><path d="M49.242 24.62H386.57c4.687 0 8.486 3.8 8.486 8.486v245.558H49.242V24.62Z" fill="#EBEFF7"/><path stroke="#6583C4" stroke-opacity=".1" stroke-width="1.55" stroke-linecap="round" d="M47.251 225.246h346.502M47.251 173.766l346.502-.001M47.251 123.404h346.502M47.251 71.924h346.502"/><path d="M51.125 237.684c20.144-.774 38.41-10.285 58.553-11.06 20.145-.775 56.947-32.885 75.542-51.48s68.009-21.479 74.982-50.921c6.973-29.441 65.685-32.885 74.982-51.48" stroke="#6683C2" stroke-width="1.55"/><path stroke="#B4C2E2" stroke-width="1.55" stroke-linecap="round" d="M49.993 25.395v259.81"/><path d="M5.7 218.021h1.376v13.295H5.7v-11.771l-3.403 2.697v-1.525l3.403-2.696Zm12.794 13.295h-1.376v-3.403h-7.029v-1.153l7.029-8.739h1.376v8.739h2.083v1.153h-2.083v3.403Zm-1.376-11.51-5.56 6.954h5.56v-6.954Zm6.164 13.76h-.93c.273-.397.49-.824.65-1.283.162-.446.23-.831.205-1.153l.15.316a1.02 1.02 0 0 1-.726-.279.986.986 0 0 1-.297-.725c0-.285.092-.527.278-.725a.963.963 0 0 1 .707-.298c.322 0 .583.112.781.335.21.223.316.514.316.874 0 .297-.056.62-.167.967a5.36 5.36 0 0 1-.41 1.041 6.61 6.61 0 0 1-.557.93Zm7.915-15.843c.967 0 1.81.211 2.529.632a4.378 4.378 0 0 1 1.674 1.748c.409.732.613 1.581.613 2.548 0 .917-.198 1.853-.595 2.808-.384.954-.992 1.921-1.822 2.9-.83.967-1.897 1.953-3.198 2.957h-1.99c1.277-.955 2.318-1.829 3.124-2.622.818-.806 1.45-1.568 1.896-2.287.46-.731.782-1.45.967-2.157l.354.186a4.217 4.217 0 0 1-1.544 1.692c-.669.421-1.425.632-2.268.632a4.69 4.69 0 0 1-2.25-.558 4.601 4.601 0 0 1-1.674-1.562c-.421-.669-.632-1.438-.632-2.305 0-.868.205-1.649.614-2.343a4.664 4.664 0 0 1 1.71-1.655c.732-.409 1.562-.614 2.492-.614Zm0 1.227c-.645 0-1.22.149-1.73.447a3.183 3.183 0 0 0-1.208 1.19 3.322 3.322 0 0 0-.446 1.711 3.19 3.19 0 0 0 1.655 2.844c.508.286 1.084.428 1.73.428.656 0 1.233-.142 1.728-.428a3.085 3.085 0 0 0 1.19-1.171 3.19 3.19 0 0 0 .447-1.673c0-.633-.149-1.203-.447-1.711a3.052 3.052 0 0 0-1.19-1.19c-.495-.298-1.072-.447-1.729-.447ZM7.264 166.885H8.64v13.295H7.264v-11.77l-3.403 2.696v-1.525l3.403-2.696Zm5.337 10.078c.434.682.955 1.24 1.562 1.674.608.421 1.32.632 2.139.632.644 0 1.208-.149 1.692-.446a3.24 3.24 0 0 0 1.134-1.246 3.687 3.687 0 0 0 .428-1.767c0-.62-.137-1.165-.41-1.636a2.924 2.924 0 0 0-1.134-1.134c-.47-.273-1.016-.41-1.636-.41-.67 0-1.265.162-1.785.484-.508.31-.948.738-1.32 1.283l-.577-.056a4.035 4.035 0 0 1 .781-1.562 3.816 3.816 0 0 1 1.339-1.004 4.332 4.332 0 0 1 1.767-.353c.855 0 1.611.192 2.268.576.67.372 1.196.893 1.58 1.562.385.657.577 1.407.577 2.25 0 .893-.204 1.692-.614 2.399a4.519 4.519 0 0 1-1.673 1.673c-.707.397-1.513.595-2.417.595-1.005 0-1.903-.223-2.697-.669-.78-.459-1.444-1.116-1.99-1.971l.986-.874Zm7.512-8.888H13.55l.464-.335-.743 6.657h-1.283l.855-7.512h7.27v1.19Zm3.716 14.355h-.93c.273-.397.49-.824.65-1.283.162-.446.23-.831.205-1.153l.149.316c-.285 0-.527-.093-.725-.279a.986.986 0 0 1-.298-.725c0-.285.093-.527.28-.725a.963.963 0 0 1 .706-.298c.322 0 .582.112.78.335.212.223.317.514.317.874 0 .297-.056.62-.167.967a5.36 5.36 0 0 1-.41 1.041 6.61 6.61 0 0 1-.557.93Zm7.915-15.843c.967 0 1.81.211 2.529.632a4.377 4.377 0 0 1 1.673 1.748c.41.732.614 1.581.614 2.548 0 .917-.198 1.853-.595 2.808-.384.954-.992 1.921-1.822 2.9-.83.967-1.897 1.953-3.198 2.957h-1.99c1.277-.955 2.318-1.829 3.124-2.622.818-.806 1.45-1.568 1.896-2.287.46-.731.781-1.45.967-2.157l.354.186a4.217 4.217 0 0 1-1.544 1.692c-.67.421-1.425.632-2.268.632a4.69 4.69 0 0 1-2.25-.558 4.602 4.602 0 0 1-1.674-1.562c-.421-.669-.632-1.438-.632-2.305 0-.868.205-1.649.614-2.343a4.665 4.665 0 0 1 1.71-1.655c.732-.409 1.562-.614 2.492-.614Zm0 1.227c-.645 0-1.221.149-1.73.447a3.184 3.184 0 0 0-1.208 1.19 3.322 3.322 0 0 0-.446 1.711c0 .619.149 1.177.446 1.673.298.496.7.886 1.209 1.172.508.285 1.084.427 1.729.427.657 0 1.233-.142 1.73-.427a3.094 3.094 0 0 0 1.19-1.172 3.19 3.19 0 0 0 .446-1.673c0-.633-.15-1.203-.447-1.711a3.052 3.052 0 0 0-1.19-1.19c-.495-.298-1.072-.447-1.729-.447ZM5.154 115.75H6.53v13.295H5.154v-11.77l-3.403 2.696v-1.525l3.403-2.696Zm9.391 13.593c-.967 0-1.81-.211-2.529-.633a4.498 4.498 0 0 1-1.692-1.747c-.397-.744-.595-1.593-.595-2.548 0-.917.198-1.853.595-2.808.397-.954 1.004-1.921 1.822-2.9.83-.98 1.897-1.965 3.199-2.957h1.99c-1.265.955-2.306 1.835-3.125 2.64-.818.794-1.456 1.55-1.915 2.269a7.806 7.806 0 0 0-.948 2.157l-.354-.186a4.134 4.134 0 0 1 1.525-1.674 4.178 4.178 0 0 1 2.287-.65c.806 0 1.556.192 2.25.576a4.408 4.408 0 0 1 1.674 1.562c.421.657.632 1.419.632 2.287 0 .868-.21 1.649-.632 2.343a4.483 4.483 0 0 1-1.71 1.655c-.72.409-1.544.614-2.474.614Zm0-1.228c.645 0 1.221-.148 1.73-.446a3.365 3.365 0 0 0 1.208-1.19 3.322 3.322 0 0 0 .446-1.711c0-.632-.148-1.19-.446-1.673a3.232 3.232 0 0 0-1.209-1.172c-.508-.285-1.084-.427-1.729-.427s-1.221.142-1.73.427a3.232 3.232 0 0 0-1.208 1.172c-.285.483-.427 1.041-.427 1.673 0 .633.142 1.203.427 1.711.298.496.7.893 1.209 1.19.508.298 1.084.446 1.73.446Zm7.737 3.18h-.93c.273-.397.49-.824.65-1.283.162-.446.23-.83.205-1.153l.15.316a1.02 1.02 0 0 1-.726-.279.986.986 0 0 1-.297-.725c0-.285.092-.527.278-.725a.966.966 0 0 1 .707-.297c.322 0 .583.111.781.334.21.223.316.515.316.874 0 .298-.056.62-.167.967-.1.36-.236.707-.41 1.041a6.61 6.61 0 0 1-.557.93Zm7.915-15.843c.967 0 1.81.211 2.529.633a4.365 4.365 0 0 1 1.674 1.748c.409.731.613 1.58.613 2.547 0 .917-.198 1.853-.595 2.808-.384.954-.992 1.921-1.822 2.901-.83.967-1.897 1.952-3.198 2.956h-1.99c1.277-.954 2.318-1.828 3.124-2.622.818-.805 1.45-1.568 1.896-2.287.46-.731.782-1.45.967-2.157l.354.186a4.217 4.217 0 0 1-1.544 1.692c-.669.422-1.425.632-2.268.632a4.69 4.69 0 0 1-2.25-.557 4.61 4.61 0 0 1-1.674-1.562c-.421-.67-.632-1.438-.632-2.306 0-.868.205-1.649.614-2.343a4.664 4.664 0 0 1 1.71-1.655c.732-.409 1.562-.614 2.492-.614Zm0 1.228c-.645 0-1.22.148-1.73.446a3.183 3.183 0 0 0-1.208 1.19 3.324 3.324 0 0 0-.446 1.711c0 .62.149 1.177.446 1.673.298.496.7.887 1.209 1.172.508.285 1.084.427 1.73.427.656 0 1.233-.142 1.729-.427a3.088 3.088 0 0 0 1.19-1.172 3.188 3.188 0 0 0 .446-1.673c0-.632-.149-1.203-.447-1.711a3.052 3.052 0 0 0-1.19-1.19c-.495-.298-1.072-.446-1.729-.446ZM5.663 64.614H7.04v13.295H5.663V66.14l-3.402 2.696V67.31l3.402-2.696Zm9.392 13.593c-.93 0-1.76-.168-2.492-.502-.731-.335-1.308-.794-1.73-1.376a3.42 3.42 0 0 1-.631-2.027 3.2 3.2 0 0 1 .632-1.953c.421-.57.998-1.016 1.73-1.338.73-.335 1.561-.502 2.49-.502.943 0 1.774.167 2.493.502.73.322 1.307.768 1.729 1.338a3.2 3.2 0 0 1 .632 1.953 3.42 3.42 0 0 1-.632 2.027c-.422.582-.998 1.04-1.73 1.376-.718.334-1.55.502-2.491.502Zm0-6.917c-.843 0-1.593-.143-2.25-.428-.657-.285-1.178-.676-1.562-1.172a2.799 2.799 0 0 1-.558-1.692c0-.719.186-1.351.558-1.896a3.842 3.842 0 0 1 1.562-1.302c.657-.322 1.407-.483 2.25-.483s1.593.16 2.25.483c.657.31 1.171.744 1.543 1.302.384.545.577 1.177.577 1.896a2.74 2.74 0 0 1-.577 1.692c-.372.496-.886.887-1.543 1.172-.657.285-1.407.428-2.25.428Zm0 5.708a4.02 4.02 0 0 0 1.71-.353c.521-.236.93-.558 1.228-.967.31-.41.465-.868.465-1.376 0-.52-.155-.98-.465-1.376-.298-.41-.707-.732-1.227-.967a4.022 4.022 0 0 0-1.711-.353c-.632 0-1.209.117-1.73.353a3.187 3.187 0 0 0-1.227.967 2.23 2.23 0 0 0-.446 1.376c0 .508.149.967.446 1.376.31.409.72.731 1.227.967.521.235 1.098.353 1.73.353Zm0-6.601c.545 0 1.035-.105 1.469-.316a2.7 2.7 0 0 0 1.06-.856c.26-.371.39-.78.39-1.227 0-.47-.13-.892-.39-1.264a2.637 2.637 0 0 0-1.06-.874 3.165 3.165 0 0 0-1.47-.335c-.532 0-1.022.112-1.468.335-.446.21-.8.502-1.06.874s-.39.793-.39 1.264c0 .447.13.856.39 1.227.26.36.614.645 1.06.856.446.21.936.316 1.469.316Zm7.773 9.762h-.93c.273-.397.49-.824.65-1.283.162-.446.23-.83.205-1.153l.15.316c-.286 0-.528-.093-.726-.279a.987.987 0 0 1-.297-.725c0-.285.093-.527.278-.725a.965.965 0 0 1 .707-.297c.322 0 .583.111.781.334.21.223.316.515.316.874 0 .298-.056.62-.167.967-.1.36-.236.707-.41 1.041-.173.347-.359.657-.557.93Zm8.157-1.952c-1.004 0-1.872-.273-2.603-.819-.72-.557-1.271-1.35-1.655-2.38-.385-1.04-.577-2.287-.577-3.737 0-2.182.428-3.886 1.283-5.114.856-1.227 2.04-1.84 3.552-1.84s2.696.613 3.551 1.84c.856 1.228 1.283 2.932 1.283 5.114 0 1.45-.192 2.696-.576 3.737-.384 1.03-.936 1.823-1.655 2.38-.719.546-1.587.819-2.603.819Zm0-1.209c1.078 0 1.909-.496 2.492-1.488.595-.991.892-2.404.892-4.24 0-1.846-.297-3.266-.892-4.257-.583-.992-1.414-1.488-2.492-1.488-1.079 0-1.915.496-2.51 1.488-.583.991-.874 2.41-.874 4.258 0 1.835.291 3.248.874 4.24.595.991 1.431 1.487 2.51 1.487Z" fill="#676767"/><path stroke="#6583C4" stroke-width="1.55" stroke-linecap="round" d="M47.251 225.288h6.199M47.251 174.153h6.199M47.251 123.018h6.199"/><path stroke="#6583C4" stroke-opacity=".1" stroke-width="1.55" stroke-linecap="round" d="M110.197 25.395v255.677"/><path d="M96.16 307.243h-8.702v-1.19l4.612-4.388c.843-.806 1.487-1.531 1.934-2.176.446-.644.67-1.308.67-1.989 0-.484-.112-.924-.336-1.321a2.456 2.456 0 0 0-.948-.967c-.409-.235-.892-.353-1.45-.353-.757 0-1.438.211-2.046.632-.595.409-1.11.967-1.543 1.674l-.986-.911c.62-.868 1.314-1.519 2.083-1.953a5.158 5.158 0 0 1 2.548-.651c.83 0 1.549.174 2.157.521a3.685 3.685 0 0 1 1.413 1.413c.347.583.52 1.24.52 1.971 0 .571-.124 1.116-.372 1.637-.235.508-.595 1.035-1.078 1.58a24.234 24.234 0 0 1-1.804 1.841l-1.227 1.153-1.227 1.153-1.209 1.134h6.992v1.19Zm7.451.298c-1.004 0-1.872-.273-2.603-.818-.719-.558-1.271-1.352-1.655-2.381-.385-1.041-.577-2.287-.577-3.737 0-2.182.428-3.886 1.283-5.114.856-1.227 2.039-1.841 3.552-1.841 1.512 0 2.696.614 3.551 1.841.856 1.228 1.283 2.932 1.283 5.114 0 1.45-.192 2.696-.576 3.737-.384 1.029-.936 1.823-1.655 2.381-.719.545-1.587.818-2.603.818Zm0-1.209c1.078 0 1.909-.496 2.491-1.488.595-.991.893-2.404.893-4.239 0-1.847-.298-3.267-.893-4.258-.582-.992-1.413-1.488-2.491-1.488-1.079 0-1.915.496-2.511 1.488-.582.991-.873 2.411-.873 4.258 0 1.835.291 3.248.873 4.239.596.992 1.432 1.488 2.511 1.488Zm15.684.911h-8.702v-1.19l4.611-4.388c.843-.806 1.488-1.531 1.934-2.176.446-.644.67-1.308.67-1.989a2.65 2.65 0 0 0-.335-1.321 2.45 2.45 0 0 0-.949-.967c-.409-.235-.892-.353-1.45-.353-.756 0-1.438.211-2.045.632-.595.409-1.11.967-1.544 1.674l-.985-.911c.62-.868 1.314-1.519 2.082-1.953a5.161 5.161 0 0 1 2.548-.651c.83 0 1.549.174 2.157.521a3.689 3.689 0 0 1 1.413 1.413c.347.583.521 1.24.521 1.971 0 .571-.124 1.116-.372 1.637-.236.508-.595 1.035-1.079 1.58a24.287 24.287 0 0 1-1.803 1.841l-1.228 1.153-1.227 1.153-1.209 1.134h6.992v1.19Zm11.113 0h-8.702v-1.19l4.611-4.388c.843-.806 1.488-1.531 1.934-2.176.447-.644.67-1.308.67-1.989a2.65 2.65 0 0 0-.335-1.321 2.455 2.455 0 0 0-.948-.967c-.409-.235-.893-.353-1.451-.353-.756 0-1.438.211-2.045.632-.595.409-1.11.967-1.543 1.674l-.986-.911c.62-.868 1.314-1.519 2.083-1.953a5.157 5.157 0 0 1 2.547-.651c.831 0 1.55.174 2.157.521a3.682 3.682 0 0 1 1.413 1.413c.347.583.521 1.24.521 1.971 0 .571-.124 1.116-.372 1.637-.236.508-.595 1.035-1.078 1.58a24.515 24.515 0 0 1-1.804 1.841l-1.227 1.153-1.228 1.153-1.208 1.134h6.991v1.19Z" fill="#676767"/><path stroke="#6583C4" stroke-width="1.55" stroke-linecap="round" d="M110.197 274.875v6.198"/><path stroke="#6583C4" stroke-opacity=".1" stroke-width="1.55" stroke-linecap="round" d="M185.181 25.395v255.677"/><path d="M171.136 307.242h-8.702v-1.19l4.611-4.388c.843-.806 1.488-1.531 1.934-2.176.446-.644.669-1.308.669-1.989a2.65 2.65 0 0 0-.334-1.321 2.457 2.457 0 0 0-.949-.967c-.409-.235-.892-.353-1.45-.353-.756 0-1.438.211-2.045.632-.595.409-1.11.967-1.544 1.674l-.985-.911c.62-.868 1.314-1.519 2.082-1.953a5.158 5.158 0 0 1 2.548-.651c.83 0 1.549.174 2.157.521a3.689 3.689 0 0 1 1.413 1.413c.347.583.521 1.24.521 1.971 0 .571-.124 1.116-.372 1.637-.236.508-.595 1.035-1.079 1.58a24.287 24.287 0 0 1-1.803 1.841l-1.228 1.153-1.227 1.153-1.209 1.134h6.992v1.19Zm7.45.298c-1.004 0-1.872-.273-2.603-.818-.719-.558-1.271-1.352-1.655-2.381-.384-1.041-.577-2.287-.577-3.737 0-2.182.428-3.886 1.283-5.114.856-1.227 2.04-1.841 3.552-1.841s2.696.614 3.552 1.841c.855 1.228 1.283 2.932 1.283 5.114 0 1.45-.192 2.696-.577 3.737-.384 1.029-.936 1.823-1.655 2.381-.719.545-1.586.818-2.603.818Zm0-1.209c1.079 0 1.909-.496 2.492-1.488.595-.991.892-2.404.892-4.239 0-1.847-.297-3.267-.892-4.258-.583-.992-1.413-1.488-2.492-1.488-1.078 0-1.915.496-2.51 1.488-.583.991-.874 2.411-.874 4.258 0 1.835.291 3.248.874 4.239.595.992 1.432 1.488 2.51 1.488Zm15.684.911h-8.702v-1.19l4.612-4.388c.843-.806 1.487-1.531 1.933-2.176.447-.644.67-1.308.67-1.989a2.65 2.65 0 0 0-.335-1.321 2.455 2.455 0 0 0-.948-.967c-.409-.235-.893-.353-1.451-.353-.756 0-1.438.211-2.045.632-.595.409-1.11.967-1.543 1.674l-.986-.911c.62-.868 1.314-1.519 2.083-1.953a5.157 5.157 0 0 1 2.547-.651c.831 0 1.55.174 2.157.521a3.675 3.675 0 0 1 1.413 1.413c.347.583.521 1.24.521 1.971 0 .571-.124 1.116-.372 1.637-.235.508-.595 1.035-1.078 1.58a24.321 24.321 0 0 1-1.804 1.841l-1.227 1.153-1.228 1.153-1.208 1.134h6.991v1.19Zm2.17-2.12.985-.911a5.65 5.65 0 0 0 1.674 1.544c.644.384 1.376.576 2.194.576.954 0 1.717-.26 2.287-.781.583-.521.874-1.178.874-1.971 0-.558-.149-1.035-.446-1.432-.286-.396-.682-.7-1.19-.911-.496-.223-1.06-.335-1.693-.335h-1.301v-1.208h1.301c.558 0 1.06-.099 1.507-.298a2.55 2.55 0 0 0 1.059-.837 2.09 2.09 0 0 0 .391-1.264c0-.719-.254-1.302-.762-1.748-.509-.459-1.178-.688-2.009-.688-.743 0-1.407.192-1.989.577-.583.371-1.091.886-1.525 1.543l-.986-.911c.571-.756 1.234-1.345 1.99-1.767a4.952 4.952 0 0 1 2.51-.651c.831 0 1.562.162 2.195.484.632.31 1.128.744 1.487 1.302.36.545.539 1.165.539 1.859 0 .62-.192 1.178-.576 1.674-.372.495-.899.886-1.581 1.171-.669.285-1.45.428-2.343.428l.186-.688c.93 0 1.748.161 2.455.483.706.322 1.252.763 1.636 1.32.397.546.595 1.178.595 1.897 0 .744-.198 1.419-.595 2.027-.384.595-.923 1.066-1.618 1.413-.681.347-1.481.521-2.398.521-.992 0-1.897-.211-2.715-.633a6.806 6.806 0 0 1-2.138-1.785Z" fill="#676767"/><path stroke="#6583C4" stroke-width="1.55" stroke-linecap="round" d="M185.181 274.874v6.198"/><path stroke="#6583C4" stroke-opacity=".1" stroke-width="1.55" stroke-linecap="round" d="M260.15 25.395v255.677"/><path d="M245.857 307.242h-8.702v-1.19l4.611-4.388c.843-.806 1.488-1.531 1.934-2.176.446-.644.669-1.308.669-1.989a2.65 2.65 0 0 0-.334-1.321 2.45 2.45 0 0 0-.949-.967c-.409-.235-.892-.353-1.45-.353-.756 0-1.438.211-2.045.632-.595.409-1.11.967-1.544 1.674l-.985-.911c.62-.868 1.314-1.519 2.082-1.953a5.161 5.161 0 0 1 2.548-.651c.83 0 1.549.174 2.157.521a3.689 3.689 0 0 1 1.413 1.413c.347.583.521 1.24.521 1.971 0 .571-.124 1.116-.372 1.637-.236.508-.595 1.035-1.079 1.58a24.287 24.287 0 0 1-1.803 1.841l-1.228 1.153-1.227 1.153-1.209 1.134h6.992v1.19Zm7.45.298c-1.004 0-1.872-.273-2.603-.818-.719-.558-1.271-1.352-1.655-2.381-.384-1.041-.576-2.287-.576-3.737 0-2.182.427-3.886 1.283-5.114.855-1.227 2.039-1.841 3.551-1.841s2.696.614 3.552 1.841c.855 1.228 1.283 2.932 1.283 5.114 0 1.45-.192 2.696-.577 3.737-.384 1.029-.936 1.823-1.655 2.381-.719.545-1.586.818-2.603.818Zm0-1.209c1.079 0 1.909-.496 2.492-1.488.595-.991.892-2.404.892-4.239 0-1.847-.297-3.267-.892-4.258-.583-.992-1.413-1.488-2.492-1.488-1.078 0-1.915.496-2.51 1.488-.583.991-.874 2.411-.874 4.258 0 1.835.291 3.248.874 4.239.595.992 1.432 1.488 2.51 1.488Zm15.684.911h-8.702v-1.19l4.612-4.388c.843-.806 1.487-1.531 1.933-2.176.447-.644.67-1.308.67-1.989a2.65 2.65 0 0 0-.335-1.321 2.455 2.455 0 0 0-.948-.967c-.409-.235-.893-.353-1.451-.353-.756 0-1.438.211-2.045.632-.595.409-1.109.967-1.543 1.674l-.986-.911c.62-.868 1.314-1.519 2.083-1.953a5.157 5.157 0 0 1 2.547-.651c.831 0 1.55.174 2.157.521a3.675 3.675 0 0 1 1.413 1.413c.348.583.521 1.24.521 1.971 0 .571-.124 1.116-.372 1.637-.235.508-.595 1.035-1.078 1.58a24.321 24.321 0 0 1-1.804 1.841l-1.227 1.153-1.228 1.153-1.208 1.134h6.991v1.19Zm10.286 0h-1.376v-3.403h-7.029v-1.153l7.029-8.739h1.376v8.739h2.082v1.153h-2.082v3.403Zm-1.376-11.51-5.56 6.954h5.56v-6.954Z" fill="#676767"/><path stroke="#6583C4" stroke-width="1.55" stroke-linecap="round" d="M260.15 274.874v6.198"/><path d="M322.285 307.242h-8.702v-1.19l4.612-4.388c.843-.806 1.487-1.531 1.934-2.176.446-.644.669-1.308.669-1.989a2.65 2.65 0 0 0-.335-1.321 2.455 2.455 0 0 0-.948-.967c-.409-.235-.893-.353-1.451-.353-.756 0-1.437.211-2.045.632-.595.409-1.109.967-1.543 1.674l-.986-.911c.62-.868 1.314-1.519 2.083-1.953a5.157 5.157 0 0 1 2.547-.651c.831 0 1.55.174 2.157.521a3.675 3.675 0 0 1 1.413 1.413c.348.583.521 1.24.521 1.971 0 .571-.124 1.116-.372 1.637-.235.508-.595 1.035-1.078 1.58a24.321 24.321 0 0 1-1.804 1.841l-1.227 1.153-1.227 1.153-1.209 1.134h6.991v1.19Zm7.451.298c-1.005 0-1.872-.273-2.604-.818-.719-.558-1.27-1.352-1.655-2.381-.384-1.041-.576-2.287-.576-3.737 0-2.182.428-3.886 1.283-5.114.855-1.227 2.039-1.841 3.552-1.841 1.512 0 2.696.614 3.551 1.841.855 1.228 1.283 2.932 1.283 5.114 0 1.45-.192 2.696-.576 3.737-.385 1.029-.936 1.823-1.655 2.381-.719.545-1.587.818-2.603.818Zm0-1.209c1.078 0 1.909-.496 2.491-1.488.595-.991.893-2.404.893-4.239 0-1.847-.298-3.267-.893-4.258-.582-.992-1.413-1.488-2.491-1.488-1.079 0-1.916.496-2.511 1.488-.582.991-.874 2.411-.874 4.258 0 1.835.292 3.248.874 4.239.595.992 1.432 1.488 2.511 1.488Zm15.684.911h-8.702v-1.19l4.611-4.388c.843-.806 1.488-1.531 1.934-2.176.446-.644.669-1.308.669-1.989a2.65 2.65 0 0 0-.334-1.321 2.464 2.464 0 0 0-.949-.967c-.409-.235-.892-.353-1.45-.353-.756 0-1.438.211-2.046.632-.595.409-1.109.967-1.543 1.674l-.985-.911c.619-.868 1.314-1.519 2.082-1.953a5.158 5.158 0 0 1 2.548-.651c.83 0 1.549.174 2.157.521a3.689 3.689 0 0 1 1.413 1.413c.347.583.52 1.24.52 1.971a3.76 3.76 0 0 1-.371 1.637c-.236.508-.595 1.035-1.079 1.58a24.13 24.13 0 0 1-1.804 1.841l-1.227 1.153-1.227 1.153-1.209 1.134h6.992v1.19Zm3.192-3.217c.434.682.954 1.24 1.562 1.674.607.421 1.32.632 2.138.632.645 0 1.209-.149 1.692-.446.484-.31.862-.725 1.134-1.246a3.677 3.677 0 0 0 .428-1.767c0-.619-.136-1.165-.409-1.636a2.942 2.942 0 0 0-1.134-1.134c-.471-.273-1.017-.409-1.637-.409-.669 0-1.264.161-1.785.483-.508.31-.948.738-1.32 1.283l-.576-.056a4.015 4.015 0 0 1 .781-1.561 3.817 3.817 0 0 1 1.339-1.005 4.328 4.328 0 0 1 1.766-.353c.855 0 1.612.192 2.269.577a4.066 4.066 0 0 1 1.58 1.561c.384.657.577 1.407.577 2.25 0 .893-.205 1.693-.614 2.399a4.512 4.512 0 0 1-1.674 1.674c-.706.396-1.512.595-2.417.595-1.004 0-1.903-.223-2.696-.67-.781-.458-1.444-1.115-1.99-1.971l.986-.874Zm7.512-8.888h-6.564l.465-.335-.744 6.657h-1.283l.855-7.512h7.271v1.19Z" fill="#676767"/><path stroke="#6583C4" stroke-opacity=".1" stroke-width="1.55" stroke-linecap="round" d="M336.517 25.395v255.677"/><path stroke="#6583C4" stroke-width="1.55" stroke-linecap="round" d="M336.517 274.874v6.198M47.251 71.882h6.199"/><path stroke="#B4C2E2" stroke-width="1.55" stroke-linecap="round" d="M301.311 278.268H43.199"/><circle cx="335.654" cy="72.657" r="7.748" fill="#F37E60"/><circle cx="259.813" cy="123.792" r="4.649" fill="#F37E60"/><circle cx="184.828" cy="174.927" r="4.649" fill="#F37E60"/><circle cx="109.844" cy="226.062" r="4.649" fill="#F37E60"/><path d="M336.224 58.725c0 2.382-3.143 3.268-4.418 1.256a84.123 84.123 0 0 0-5.101-7.203 8.991 8.991 0 0 0-3.626-2.72c-.143.005-.286.008-.43.008h-3.064c-.014 7.446-.028 5.79-.051 0h-91.076c-7.498 0-13.577-6.08-13.577-13.578v-22.91C214.881 6.078 220.96 0 228.458 0h94.191c7.499 0 13.578 6.079 13.578 13.577V36.49l-.003.21v22.026Z" fill="#B6CAF6"/><path d="M231.626 10.15h1.131v10.922h-1.131v-9.669l-2.795 2.215v-1.252l2.795-2.215Zm7.715 11.166c-.764 0-1.446-.137-2.047-.412-.601-.275-1.074-.652-1.42-1.13a2.805 2.805 0 0 1-.52-1.665c0-.601.173-1.136.52-1.604.346-.469.819-.835 1.42-1.1.601-.275 1.283-.412 2.047-.412.774 0 1.456.137 2.047.412.6.265 1.074.631 1.42 1.1a2.63 2.63 0 0 1 .519 1.604c0 .62-.173 1.176-.519 1.664-.346.48-.82.856-1.42 1.13-.591.276-1.273.413-2.047.413Zm0-5.682c-.693 0-1.309-.117-1.848-.351-.54-.234-.968-.555-1.283-.962a2.297 2.297 0 0 1-.459-1.39c0-.591.153-1.11.459-1.558a3.15 3.15 0 0 1 1.283-1.07c.539-.264 1.155-.397 1.848-.397.692 0 1.308.133 1.848.397.54.255.962.611 1.268 1.07.315.448.473.967.473 1.558 0 .509-.158.972-.473 1.39-.306.407-.728.728-1.268.962-.54.234-1.156.351-1.848.351Zm0 4.69c.519 0 .988-.097 1.405-.29a2.47 2.47 0 0 0 1.008-.795c.255-.336.382-.713.382-1.13 0-.428-.127-.805-.382-1.13-.244-.337-.58-.601-1.008-.795a3.303 3.303 0 0 0-1.405-.29c-.52 0-.993.097-1.421.29a2.626 2.626 0 0 0-1.008.794 1.835 1.835 0 0 0-.366 1.13c0 .418.122.795.366 1.13.255.337.591.602 1.008.795.428.194.901.29 1.421.29Zm0-5.423c.448 0 .85-.087 1.206-.26.367-.173.657-.407.871-.702.214-.306.321-.642.321-1.008 0-.387-.107-.733-.321-1.039a2.165 2.165 0 0 0-.871-.718 2.596 2.596 0 0 0-1.206-.275c-.438 0-.84.092-1.207.275a2.162 2.162 0 0 0-.87.718 1.767 1.767 0 0 0-.321 1.039c0 .366.107.702.321 1.008.213.295.504.53.87.702.367.173.769.26 1.207.26Zm12.347 2.367h-4.094v-1.023h4.094v1.023Zm10.436 1.849.81.748a3.75 3.75 0 0 1-1.314 1.07c-.519.254-1.11.381-1.772.381-.763 0-1.445-.173-2.046-.52a3.833 3.833 0 0 1-1.405-1.42c-.337-.6-.505-1.288-.505-2.062 0-.774.168-1.46.505-2.062a3.8 3.8 0 0 1 1.42-1.42c.601-.346 1.283-.52 2.047-.52.662 0 1.252.133 1.772.398.519.254.952.605 1.298 1.053l-.81.749a2.77 2.77 0 0 0-.916-.87c-.367-.225-.815-.337-1.344-.337-.55 0-1.034.128-1.451.382-.418.255-.744.611-.978 1.07-.234.447-.351.967-.351 1.557s.117 1.115.351 1.574c.234.448.56.799.978 1.053.417.255.901.382 1.451.382.529 0 .977-.107 1.344-.32.366-.224.672-.52.916-.886Zm3.726 4.918h-1.13V13.557h1.115v2.276h-.275c.092-.5.29-.937.596-1.314a3.325 3.325 0 0 1 1.16-.886c.469-.214.973-.32 1.513-.32.733 0 1.384.178 1.955.534.57.346 1.013.82 1.329 1.42.325.601.488 1.284.488 2.047 0 .774-.168 1.462-.504 2.062a3.618 3.618 0 0 1-1.374 1.42c-.581.347-1.248.52-2.001.52-.683 0-1.283-.137-1.803-.412a2.927 2.927 0 0 1-1.161-1.146c-.254-.489-.346-1.033-.275-1.634l.214-.306c.041.479.194.912.459 1.299.264.376.611.672 1.038.886.428.213.896.32 1.405.32.56 0 1.049-.127 1.467-.381.417-.265.743-.622.977-1.07.245-.458.367-.977.367-1.558 0-.58-.117-1.094-.351-1.542a2.55 2.55 0 0 0-.947-1.07c-.408-.264-.881-.397-1.421-.397a2.65 2.65 0 0 0-1.466.413 2.829 2.829 0 0 0-1.008 1.145c-.245.479-.367 1.039-.367 1.68v6.492Zm14.886-5.102.794.749c-.397.509-.875.911-1.436 1.207-.56.285-1.201.427-1.924.427-.794 0-1.507-.173-2.138-.52a3.854 3.854 0 0 1-1.467-1.42c-.356-.6-.534-1.288-.534-2.062 0-.774.168-1.46.504-2.062a3.8 3.8 0 0 1 1.42-1.42c.601-.346 1.283-.52 2.047-.52.733 0 1.38.174 1.94.52.57.336 1.018.8 1.344 1.39.326.59.489 1.273.489 2.046v.092h-1.161v-.091c0-.591-.117-1.105-.352-1.543a2.498 2.498 0 0 0-.931-1.039 2.363 2.363 0 0 0-1.329-.382c-.55 0-1.034.128-1.451.382a2.642 2.642 0 0 0-.978 1.054c-.234.448-.351.967-.351 1.558 0 .59.127 1.115.382 1.573.254.459.601.815 1.039 1.07.448.254.962.381 1.542.381 1.059 0 1.909-.463 2.551-1.39Zm1.039-1.222h-6.797v-.931h6.552l.245.488v.443Zm1.322 3.055v-.656h.306c.203 0 .361-.046.473-.138.122-.102.214-.265.275-.489a4.85 4.85 0 0 0 .168-.916l.596-5.01h5.193v7.057h-1.13v-6.828l.794.733h-4.689l.916-.733-.611 4.872c-.061.52-.158.932-.29 1.238-.132.305-.321.53-.565.672-.234.132-.56.198-.978.198h-.458Zm-.305 2.26V20.11h8.385v2.917h-1.069v-2.765l.794.81h-7.484l.443-.81v2.765h-1.069Zm16.162-1.954v-7.515h1.131v7.515h-1.131Zm-5.804 0v-7.515h1.13v7.515h-1.13Zm.55-3.467v-.963h5.881v.963H293.7Zm8.832 3.467v-7.515h1.131v6.003l-.122-.046 4.887-5.957h.978v7.515h-1.13v-6.003l.122.046-4.888 5.957h-.978Zm9.323 0v-7.515h1.13v6.003l-.122-.046 4.888-5.957h.977v7.515h-1.13v-6.003l.122.046-4.887 5.957h-.978Zm3.513-8.92c-.682 0-1.257-.173-1.726-.52-.458-.356-.718-.845-.779-1.466h1.024c.061.438.218.759.473.962.265.204.601.306 1.008.306.397 0 .723-.102.978-.306.264-.203.427-.524.488-.962h1.024c-.061.621-.321 1.11-.779 1.466-.458.347-1.029.52-1.711.52Zm-83.176 28.164c-1.263 0-2.225-.453-2.887-1.36-.652-.916-.978-2.245-.978-3.986 0-1.66.265-2.912.795-3.757.539-.845 1.389-1.365 2.55-1.558l3.361-.565.198.992-3.36.596c-.591.102-1.064.306-1.421.611-.356.306-.616.754-.779 1.344-.163.58-.259 1.354-.29 2.322l-.198.458c.061-.56.254-1.038.58-1.436a3.162 3.162 0 0 1 1.222-.931 3.627 3.627 0 0 1 1.527-.336c.744 0 1.37.168 1.879.504.509.325.896.769 1.161 1.328.265.56.397 1.192.397 1.895 0 .784-.153 1.47-.458 2.062a3.214 3.214 0 0 1-1.314 1.344c-.56.315-1.222.473-1.985.473Zm-.016-1.008c.805 0 1.436-.255 1.894-.764.469-.519.703-1.222.703-2.107 0-.866-.219-1.538-.657-2.017-.427-.489-1.023-.733-1.787-.733-.458 0-.886.117-1.283.352-.387.224-.718.54-.993.947-.275.397-.458.86-.55 1.39l.046-.917c-.03 1.293.168 2.26.596 2.902.438.631 1.115.947 2.031.947Zm11.926.764h-1.084v-1.467l-.016-.427v-2.81c0-.632-.203-1.136-.611-1.513-.407-.377-.957-.565-1.649-.565-.499 0-.952.107-1.36.32a3.577 3.577 0 0 0-1.054.871l-.794-.763a4.587 4.587 0 0 1 1.405-1.039c.53-.244 1.131-.367 1.803-.367.672 0 1.257.128 1.756.382.509.245.901.59 1.176 1.039.286.448.428.978.428 1.589v4.75Zm-3.956.244c-.57 0-1.074-.102-1.512-.305a2.6 2.6 0 0 1-1.008-.856 2.176 2.176 0 0 1-.351-1.222c0-.53.147-.977.442-1.344.296-.377.698-.662 1.207-.855.519-.194 1.105-.29 1.757-.29h2.474v.916h-2.322c-.682 0-1.252.127-1.71.382-.448.244-.672.631-.672 1.16 0 .449.168.805.504 1.07.336.265.779.397 1.329.397.529 0 1.008-.102 1.435-.305a2.63 2.63 0 0 0 1.024-.886c.264-.377.412-.81.443-1.298l.458.26c0 .61-.153 1.155-.458 1.633a3.097 3.097 0 0 1-1.238 1.13c-.529.276-1.13.413-1.802.413Zm5.221-.244v-.978h.611c.275 0 .484-.071.626-.214.143-.152.229-.427.26-.824l.473-5.5h5.346v7.516h-1.13v-7.286l.794.733h-4.765l.87-.733-.504 5.453c-.061.672-.239 1.145-.534 1.42-.286.275-.713.413-1.283.413h-.764Zm8.845 0v-.978h.611c.275 0 .484-.071.626-.214.143-.152.23-.427.26-.824l.474-5.5h5.346v7.516h-1.131v-7.286l.795.733h-4.766l.871-.733-.504 5.453c-.062.672-.24 1.145-.535 1.42-.285.275-.713.413-1.283.413h-.764Zm12.745 0v-7.515h3.819c.753 0 1.354.183 1.802.55.448.356.672.835.672 1.435 0 .377-.112.708-.336.993a2.125 2.125 0 0 1-.916.657l-.016-.137c.479.132.866.356 1.161.672.306.305.459.687.459 1.145 0 .418-.128.794-.382 1.13-.245.337-.581.601-1.008.795a3.423 3.423 0 0 1-1.39.275h-3.865Zm1.131-.245-.703-.718h3.437c.488 0 .875-.106 1.16-.32.286-.224.428-.53.428-.917s-.142-.687-.428-.9c-.285-.225-.672-.337-1.16-.337h-3.269v-.962h3.223c.468 0 .799-.102.993-.306.193-.203.29-.478.29-.825 0-.336-.097-.59-.29-.763-.194-.173-.525-.26-.993-.26H267.4l.688-.718v7.026Zm16.926.245h-7.148v-.978l3.788-3.605c.692-.661 1.222-1.257 1.588-1.787.367-.53.55-1.074.55-1.634 0-.397-.091-.758-.275-1.084a2.012 2.012 0 0 0-.779-.795c-.336-.193-.733-.29-1.191-.29-.621 0-1.181.173-1.68.52-.489.335-.912.794-1.268 1.374l-.809-.748c.509-.713 1.079-1.248 1.71-1.604a4.24 4.24 0 0 1 2.093-.535c.682 0 1.273.143 1.772.428.499.285.886.672 1.16 1.16.286.48.428 1.02.428 1.62 0 .468-.102.916-.305 1.344-.194.418-.489.85-.886 1.298-.387.448-.881.952-1.482 1.513l-1.008.947-1.008.947-.993.931h5.743v.978Zm6.12.244c-.825 0-1.538-.224-2.138-.672-.591-.458-1.044-1.11-1.36-1.955-.316-.855-.473-1.879-.473-3.07 0-1.792.351-3.192 1.054-4.2.702-1.009 1.675-1.513 2.917-1.513 1.242 0 2.215.504 2.917 1.513.703 1.008 1.054 2.408 1.054 4.2 0 1.191-.158 2.215-.473 3.07-.316.845-.769 1.497-1.36 1.955-.59.448-1.303.672-2.138.672Zm0-.993c.886 0 1.568-.407 2.047-1.222.488-.814.733-1.975.733-3.482 0-1.517-.245-2.683-.733-3.498-.479-.814-1.161-1.222-2.047-1.222-.886 0-1.573.407-2.062 1.222-.479.815-.718 1.98-.718 3.498 0 1.507.239 2.668.718 3.482.489.815 1.176 1.222 2.062 1.222Zm12.884.749h-7.149v-.978l3.788-3.605c.693-.661 1.222-1.257 1.589-1.787.366-.53.55-1.074.55-1.634 0-.397-.092-.758-.275-1.084a2.019 2.019 0 0 0-.779-.795c-.336-.193-.734-.29-1.192-.29-.621 0-1.181.173-1.68.52-.489.335-.911.794-1.268 1.374l-.809-.748c.509-.713 1.079-1.248 1.711-1.604a4.236 4.236 0 0 1 2.092-.535c.682 0 1.273.143 1.772.428.499.285.886.672 1.161 1.16.285.48.427 1.02.427 1.62 0 .468-.101.916-.305 1.344-.194.418-.489.85-.886 1.298-.387.448-.881.952-1.482 1.513l-1.008.947-1.008.947-.993.931h5.744v.978Zm2.621-2.643c.357.56.784 1.019 1.283 1.375.499.346 1.085.52 1.757.52.529 0 .993-.123 1.39-.367.397-.255.708-.596.932-1.024a3.03 3.03 0 0 0 .351-1.45c0-.51-.112-.958-.336-1.345a2.411 2.411 0 0 0-.932-.931c-.387-.224-.835-.337-1.344-.337-.55 0-1.039.133-1.466.398a3.554 3.554 0 0 0-1.085 1.053l-.473-.045a3.31 3.31 0 0 1 .641-1.283 3.134 3.134 0 0 1 1.1-.825c.438-.194.922-.29 1.451-.29.703 0 1.324.157 1.864.473.549.306.982.733 1.298 1.283.316.54.473 1.156.473 1.848 0 .733-.168 1.39-.504 1.97a3.711 3.711 0 0 1-1.374 1.375c-.581.326-1.243.49-1.986.49-.825 0-1.563-.184-2.215-.55-.641-.378-1.186-.917-1.634-1.62l.809-.718Zm6.171-7.3h-5.392l.382-.276-.611 5.468h-1.054l.703-6.17h5.972v.977Zm3.984 9.24a.837.837 0 0 1-.26.611.81.81 0 0 1-.596.245.862.862 0 0 1-.611-.245.861.861 0 0 1-.244-.61.81.81 0 0 1 .244-.596.836.836 0 0 1 .611-.26c.235 0 .433.086.596.26.173.162.26.361.26.595Zm-.504-2.413h-.703l-.046-.886c-.02-.418-.046-.896-.076-1.436-.021-.54-.046-1.09-.077-1.65-.02-.57-.04-1.104-.061-1.603a53.15 53.15 0 0 0-.061-1.238c-.01-.325-.015-.514-.015-.565 0-.193.066-.35.199-.473a.663.663 0 0 1 .488-.199c.194 0 .357.067.489.199.132.122.199.28.199.473 0 .051-.011.24-.031.566a129.69 129.69 0 0 1-.122 2.841c-.02.56-.046 1.11-.076 1.65a130.141 130.141 0 0 1-.107 2.32Z" fill="#2D457C"/></svg>