<svg width="49" height="49" fill="none" xmlns="http://www.w3.org/2000/svg"><g filter="url(#a)"><path d="M24.5 9C33.06 9 40 15.94 40 24.5 40 33.06 33.06 40 24.5 40 15.94 40 9 33.06 9 24.5 9 15.94 15.94 9 24.5 9Z" fill="#F2C45B"/></g><path d="M31.628 19.355a1.311 1.311 0 0 0-1.794 0l-8.077 7.718-3.59-3.43a1.311 1.311 0 0 0-1.795 0 1.175 1.175 0 0 0 0 1.715l4.487 4.287c.248.236.572.355.897.355.325 0 .65-.118.898-.355l8.974-8.575a1.175 1.175 0 0 0 0-1.715Z" fill="#fff"/><defs><filter id="a" x=".6" y=".6" width="47.8" height="47.8" filterUnits="userSpaceOnUse" color-interpolation-filters="sRGB"><feFlood flood-opacity="0" result="BackgroundImageFix"/><feColorMatrix in="SourceAlpha" values="0 0 0 0 0 0 0 0 0 0 0 0 0 0 0 0 0 0 127 0" result="hardAlpha"/><feOffset/><feGaussianBlur stdDeviation="4.2"/><feComposite in2="hardAlpha" operator="out"/><feColorMatrix values="0 0 0 0 0.94902 0 0 0 0 0.768627 0 0 0 0 0.356863 0 0 0 0.55 0"/><feBlend in2="BackgroundImageFix" result="effect1_dropShadow_138_30396"/><feBlend in="SourceGraphic" in2="effect1_dropShadow_138_30396" result="shape"/></filter></defs></svg>