<svg width="605" height="324" fill="none" xmlns="http://www.w3.org/2000/svg"><g clip-path="url(#a)"><path d="M274.009 149.518c-34.974 10.823-72.326-9.486-83.429-45.363-11.103-35.877 8.249-73.734 43.223-84.558 34.974-10.823 72.326 9.486 83.429 45.363 11.103 35.877-8.248 73.734-43.223 84.558Z" fill="#F2C45B"/><path d="M74.877 146.776c6.559 21.096 29.013 32.917 50.152 26.405 21.138-6.511 32.959-28.889 26.4-49.985-6.559-21.096-29.014-32.918-50.152-26.407-21.14 6.512-32.96 28.891-26.4 49.987Z" fill="#7FCBB4"/><path d="M119.532 60.83c3.607 11.601 15.849 18.137 27.345 14.596 11.494-3.54 17.887-15.816 14.28-27.418-3.608-11.603-15.85-18.139-27.343-14.598-11.497 3.541-17.89 15.817-14.282 27.42Z" fill="#68CCEA"/><path d="M106.152 269.182c10.576 34.015 46.467 53.177 80.172 42.795 33.697-10.38 52.442-46.369 41.865-80.385-10.576-34.017-46.467-53.178-80.165-42.798-33.705 10.381-52.449 46.372-41.872 80.388Z" fill="#6683C2"/></g><g clip-path="url(#b)"><path d="M612.195 301.214c-.145.722-.294 1.438-.446 2.148-3.647 16.99-9.458 30.45-17.389 38.179-53.332 7.201-339.622 4.973-339.622 4.973-13.322-8.898-22.672-24.434-27.749-43.152-.193-.712-.379-1.427-.56-2.148-5.253-20.95-5.271-45.627.352-69.368.169-.717.344-1.433.525-2.148 6.072-24.111 18.006-47.104 36.234-64.055a113.595 113.595 0 0 0 5.331-5.313c.662-.706 1.319-1.421 1.97-2.148 16.982-18.907 30.56-44.872 46.472-69.368.464-.718.932-1.433 1.403-2.148 13.202-20.068 28.096-38.974 47.877-51.975a108.207 108.207 0 0 1 3.403-2.148 102.994 102.994 0 0 1 24.05-10.671c45.028-13.414 81.081-9.574 114.256 10.67 1.141.698 2.279 1.414 3.414 2.149 18.697 12.115 36.535 29.491 54.626 51.975a441.254 441.254 0 0 1 4.039 5.098c13.84 17.736 24.501 41.055 32.054 66.418a312.893 312.893 0 0 1 5.237 20.024l.074.325a343.864 343.864 0 0 1 1.641 7.661v.003a351.774 351.774 0 0 1 3.26 18.788c.497 3.4.943 6.801 1.337 10.194v.003a351.959 351.959 0 0 1 1.549 16.667c1.755 25.421.619 49.636-3.339 69.368l.001-.001Z" fill="#EAEFFB"/><path d="M252.646 299.506c-.118.234-.286.488-.545.514-.226.023-.436-.153-.526-.363-.09-.211-.086-.448-.075-.677.051-1.021.228-2.035.526-3.013.1-.329.225-.671.484-.896 1.572-1.367.443 3.826.136 4.435ZM245.504 299.3c.025.149.05.308.005.434-.082.233-.369.24-.576.087-.207-.153-.352-.412-.488-.66-.41-.756-.828-1.525-1.056-2.357-.268-.977-.209-2.709.834-1.464.768.916 1.086 2.831 1.281 3.96Z" fill="#6683C2"/><path d="M258.437 249.975c1.171-1.785 1.697-3.922 2.009-6.039.261-1.775.509-3.669.475-5.465-.028-1.456-.965-2.998-2.408-2.188-1.295.726-2.458 2.319-3.293 3.517a17.316 17.316 0 0 0-2.927 7.346c-.245 1.656-.794 5.232 1.38 5.925 1.707.545 3.964-1.877 4.764-3.096ZM248.133 248.916a27.878 27.878 0 0 1 2.239 8.308c.15 1.391.181 2.866-.445 4.115-.29.578-.769 1.119-1.403 1.225-.995.168-1.814-.758-2.342-1.622a19.499 19.499 0 0 1-2.739-11.838c.06-.653.163-1.327.523-1.874 1.421-2.152 3.536.266 4.168 1.686h-.001ZM260.883 254.789a22.233 22.233 0 0 1-3.288 6.091c-.583.764-1.235 1.506-2.077 1.964-.347.189-.829.307-1.102.019-.112-.118-.162-.281-.199-.44-.422-1.777.312-3.607 1.098-5.254.87-1.827 1.894-3.75 3.543-4.986 2.409-1.806 2.731.601 2.026 2.606h-.001Z" fill="#A1B2D7"/><path d="m250.195 282.545-.32-.012c.003-.078.31-7.919 1.567-17.314 1.161-8.679 3.393-20.498 7.435-27.522l.278.155c-4.016 6.98-6.238 18.756-7.395 27.406-1.254 9.381-1.562 17.209-1.565 17.288v-.001Z" fill="#E0BA89"/><path d="m249.695 281.805-.317-.047c1.285-8.303-.57-23.811-3.972-33.188l.302-.106c3.415 9.417 5.278 24.996 3.987 33.341ZM252.11 280.34c-.466-3.804-.073-8.78 1.049-13.311.965-3.889 2.938-9.41 6.867-13.622l.236.213c-7.151 7.665-8.601 20.434-7.835 26.682l-.318.038h.001Z" fill="#E0BA89"/><path d="M242.796 273.67c2.391-1.264 5.027-1.537 5.027-4.406v-2.476c0-.263.276-.473.603-.459l2.706.113 2.705-.113c.328-.014.603.196.603.459v1.855c0 1.27.632 2.509 1.74 3.414 1.141.931 2.844 1.16 3.908 2.086.59.514.973 1.157 1.276 1.813 2.267 4.889-.435 10.213-1.892 15.03l-3.052 10.088-.042.142h-12.264c-.705-3.176-1.409-6.353-2.112-9.529-.529-2.387-2.229-9.848-2.292-11.24a9.145 9.145 0 0 1 .774-4.107c.454-1.028 1.144-2.043 2.276-2.648l.037-.02-.001-.002Z" fill="#A1B2D7"/><path d="M246.63 271.456c.583.17 1.108.327 1.437.372 1.949.264 3.932.521 5.901.417a12.7 12.7 0 0 0 2.251-.312c.051.041.101.083.153.123.473.363 1.036.619 1.614.852-1.413.565-3.108.851-4.798.903-2.204.067-4.415-.237-6.546-.651a14.157 14.157 0 0 1-1.951-.559c.759-.321 1.44-.664 1.942-1.145h-.003ZM252.006 269.928c-1.505.011-3.017-.11-4.508-.3.011-.116.018-.237.018-.363v-.856c1.735.202 3.491.375 5.228.332.605-.015 1.21-.06 1.791-.137v.04c0 .371.059.739.17 1.097-.868.12-1.783.18-2.698.187h-.001ZM258.94 280.152c-.022.565-.078 1.203-.517 1.556-.077.061-.17.113-.269.105-.15-.012-.255-.156-.318-.295-.218-.482-.195-1.035-.204-1.565-.019-.926-1.297-4.49-.211-4.604 1.778-.185 1.553 3.919 1.52 4.804l-.001-.001ZM252.353 279.003l.003 2.714c0 .191-.002.392-.1.555-.191.319-.677.338-.981.126-.304-.212-.463-.575-.578-.93a6.976 6.976 0 0 1-.053-4.077c.195-.662.665-1.428 1.336-.869.494.412.371 1.907.372 2.481h.001ZM251.943 296.325l.003 2.715c0 .19-.002.392-.1.555-.191.319-.678.338-.982.126-.304-.212-.463-.576-.577-.93a6.968 6.968 0 0 1-.053-4.077c.195-.662.665-1.429 1.336-.869.494.412.371 1.907.372 2.48h.001ZM255.663 281.428c-.06.264-.165.561-.416.653-.221.081-.475-.042-.619-.229-.143-.188-.2-.427-.246-.66a12.96 12.96 0 0 1-.229-3.152c.018-.355.057-.729.26-1.021 1.233-1.77 1.404 3.721 1.25 4.409ZM254.301 293.638c-.095.253-.238.534-.5.589-.231.05-.465-.107-.582-.312-.116-.206-.139-.45-.153-.687a12.927 12.927 0 0 1 .199-3.154c.066-.35.156-.715.396-.976 1.461-1.584.887 3.879.64 4.539v.001ZM257.258 288.63c-.106.248-.262.522-.526.566-.232.039-.46-.128-.568-.339-.107-.21-.119-.456-.123-.692a12.92 12.92 0 0 1 .338-3.142c.081-.347.186-.707.438-.957 1.529-1.517.715 3.914.44 4.563l.001.001ZM248.169 281.577c-.045.164-.098.336-.225.446-.236.204-.625.093-.823-.149-.199-.242-.253-.567-.302-.877-.149-.942-.297-1.902-.158-2.847.163-1.11 1.173-2.857 1.908-1.154.542 1.255-.056 3.345-.401 4.58l.001.001ZM248.933 293.893c-.046.163-.098.335-.225.445-.236.205-.626.093-.824-.149-.197-.242-.253-.567-.302-.876-.148-.943-.296-1.903-.158-2.847.164-1.111 1.174-2.857 1.909-1.155.542 1.255-.056 3.346-.401 4.581l.001.001ZM251.814 290.073c-.046.163-.098.335-.225.445-.236.205-.626.094-.824-.149-.197-.242-.253-.567-.302-.876-.148-.942-.296-1.903-.158-2.847.164-1.11 1.174-2.857 1.909-1.154.542 1.254-.057 3.345-.401 4.58l.001.001ZM245.229 276.352a8.282 8.282 0 0 1-.52 4.478.681.681 0 0 1-.164.266c-.185.162-.49.086-.654-.095-.165-.182-.221-.435-.264-.677a11.403 11.403 0 0 1-.144-2.81c.064-.873 1.437-3.046 1.746-1.162ZM245.956 284.775a8.278 8.278 0 0 1 .624 4.465.715.715 0 0 1-.091.3c-.138.203-.453.208-.658.074-.205-.134-.323-.365-.425-.588a11.287 11.287 0 0 1-.846-2.681c-.158-.861.624-3.313 1.395-1.569l.001-.001Z" fill="#6683C2"/><path d="M593.561 291.79c0 8.687-7.855 9.408-17.544 9.408-4.753 0-9.12.271-12.279-1.364-3.282-1.699-5.265-3.618-5.265-8.044 0-6.972 5.366-15.119 12.372-17.869.831-.326.277-4.399-1.24-6.943-.708-1.187 1.725-1.575 4.17-.014-.265-1.623 1.189-2.36 2.197-2.36s1.975.518 2.1 2.305c1.458-1.476 4.413-1.253 3.637-.211-1.506 2.024-2.411 7.022-1.745 7.207 5.677 1.578 10.303 6.388 12.393 11.773.778 2.003 1.205 4.087 1.205 6.114l-.001-.002Z" fill="#A1B2D7"/><path d="M580.084 271.829h-9.038a.066.066 0 0 0-.067.066v1.475c0 .036.03.066.067.066h9.038c.037 0 .067-.03.067-.066v-1.475a.066.066 0 0 0-.067-.066Z" fill="#6683C2"/><path d="M568.065 88.815H317.32c.464-.718.933-1.433 1.403-2.148h247.626c.571.71 1.143 1.427 1.716 2.148ZM511.709 34.693H366.586a108.162 108.162 0 0 1 3.402-2.149h138.307c1.14.698 2.279 1.414 3.414 2.149ZM603.051 160.33H268.855c.663-.705 1.319-1.42 1.971-2.148h331.593c.214.715.424 1.43.632 2.148ZM615.533 231.847H226.781c.169-.717.344-1.433.525-2.148h388.072c.054.717.106 1.433.155 2.148ZM612.178 301.213c-.145.723-.293 1.439-.446 2.148H226.974c-.193-.711-.38-1.426-.56-2.148h385.764Z" fill="#A1B2D7"/><path d="M532.254 63.575h-45.311V86.67h45.311V63.575Z" fill="#A1B2D7"/><path d="M511.23 67.574c0-.808-.731-1.464-1.633-1.464-.901 0-1.632.656-1.632 1.464 0 .644.465 1.19 1.109 1.385v1.921h1.046V68.96c.644-.195 1.11-.742 1.11-1.385Z" fill="#6683C2"/><path d="M614.013 215.178v.003l-1.738 14.519-.005.037-.375-.037-10.129-.975 6.01-50.191a337.04 337.04 0 0 1 1.64 7.66v.003a352.79 352.79 0 0 1 4.598 28.982l-.001-.001ZM607.684 178.207l-9.287 51.452-13.52-1.961 9.486-52.554 13.052 1.893c.091.39.181.78.269 1.171v-.001Z" fill="#A1B2D7"/><path d="m597.431 216.535-7.011-1.017 4.918-27.25 7.011 1.017-4.918 27.25Z" fill="#6683C2"/><path d="m579.733 229.531-6.874-1.6 12.558-43.38 6.873 1.6-12.557 43.38Z" fill="#A1B2D7"/><path d="m578.826 226.597-3.564-.83 11.083-38.285 3.563.829-11.082 38.286Z" fill="#6683C2"/><path d="M352.928 158.183V151.6h-58.736v6.583h58.736Z" fill="#A1B2D7"/><path d="M338.791 156.597v-3.413h-30.455v3.413h30.455Z" fill="#6683C2"/><path d="M356.992 151.601v-8.533h-49.175v8.533h49.175Z" fill="#A1B2D7"/><path d="M345.168 149.547v-4.425H319.67v4.425h25.498Z" fill="#6683C2"/><path d="M342.191 143.219v-4.425h-41.396v4.425h41.396Z" fill="#A1B2D7"/><path d="M339.77 142.155v-2.295h-36.536v2.295h36.536Z" fill="#6683C2"/><path d="M433.892 140.979c3.557.5 7.421 1.418 9.539 4.27 2.365 3.185 2.456 7.104.954 10.76 7.34-5.432 12.017-12.741 14.462-21.444 1.548-5.512 1.915-11.275 2.056-16.991.093-3.831.084-7.717-.92-11.42-2.058-7.592-8.037-13.547-14.415-18.286-4.42-3.284-9.172-6.185-14.324-8.19a47.252 47.252 0 0 0-18.852-3.166c-2.9.11-5.91.531-8.313 2.13-1.469.978-2.624 2.34-3.718 3.71-4.641 5.816-8.633 12.256-10.706 19.359-2.396 8.214-2.122 17.05-.021 25.341 1.483 5.849 3.854 11.45 6.747 16.756.947 1.735 5.437 7.852 5.437 7.852s-.43-3.747 1.478-6.18c3.379-4.31 21.453-5.787 30.595-4.502l.001.001Z" fill="#28252B"/><path d="M445.06 173.619c-5.235-10.879-8.888-29.153-8.118-45.383.507-.922-25.977.004-25.47.925.769 16.23-1.881 33.579-7.117 44.458-1.691 3.514 1.238 9.191 2.994 12.594 2.04 3.953 4.554 7.653 7.783 10.767 2.144 2.067 5.822 5.022 9.477 6.107v.06c.033-.009.065-.021.098-.03.033.009.065.021.098.03v-.06c3.654-1.085 7.333-4.04 9.476-6.107 3.23-3.114 5.743-6.814 7.783-10.767 1.756-3.402 4.685-9.08 2.994-12.594h.002Z" fill="#F1BBA2"/><path d="M435.376 143.478c.171-.116-14.139-2.369-23.865-3.884a122.1 122.1 0 0 1-.564 7.862c4.668 2.222 15.831 5.934 24.429-3.978Z" fill="#F1BBA2" style="mix-blend-mode:multiply" opacity=".28"/><path d="M457.072 94.934c-.926 6.415-4.648 22.446-6.957 28.038-4.684 11.345-10.76 20.913-23.909 24.744-1.886.549-3.845.723-5.753.166-10.73-3.135-18.853-14.025-22.785-23.47-2.871-6.896-5.754-13.81-7.864-20.976-3.043-10.328-5.105-19.997-.352-30.04 3.98-8.41 11.398-15.252 20.284-18.435 6.112-2.188 11.305-.744 17.438-.792 3.121-.025 5.285-.53 8.494.347 6.13 1.673 11.851 5.038 15.75 10.04 6.962 8.935 7.262 19.247 5.654 30.378Z" fill="#F1BBA2"/><path d="M459.599 73.93c-3.747-9.44-11.749-17.077-21.314-20.866-2.619-1.037-5.053-.533-7.543-1.125a7.662 7.662 0 0 1-.682-.2c-.653-1.03-1.443-1.89-2.404-2.487-2.246-1.398-11.424-.55-17.068 1.398-25.407 8.772-29.217 35.873-29.504 39.789-.564 7.671-.705 15.38-.193 23.054.509 7.62 1.696 15.317 4.939 22.255 3.244 6.939 8.753 13.101 15.978 15.912-6.127-12.973-8.634-27.577-7.177-41.807.227-2.213.554-4.443 1.401-6.505.949-2.312 2.479-4.263 4.296-5.995 1.926-1.24 3.995-2.305 6.064-3.244 1.69-.767 3.415-1.484 5.132-2.214 4.031-1.713 8.02-3.502 11.433-6.174.375.257.757.501 1.141.73 2.807 1.681 5.849 2.96 8.787 4.407 1.71.842 3.385 1.74 4.958 2.806a27.322 27.322 0 0 1 8.242 8.8c.906 1.551 1.712 3.257 3.195 4.295 2.874 2.012 6.682-1.109 8.138-3.535 5.238-8.727 5.927-19.853 2.18-29.294h.001Z" fill="#363537"/><path d="M438.453 115.249c-.165 1.915 1.516 3.428 3.059 1.638.665-.77.72-2.246.477-3.194-.262-1.028-1.336-1.713-2.348-1.112-.822.488-1.113 1.787-1.188 2.668Z" fill="#363537"/><path d="M423.379 132.936c-1.961 0-3.921-.27-5.826-.81a.158.158 0 0 1-.11-.195.161.161 0 0 1 .199-.108 21.02 21.02 0 0 0 11.303.047.16.16 0 0 1 .197.109.157.157 0 0 1-.111.194 21.31 21.31 0 0 1-5.653.762l.001.001ZM421.373 135.999a.158.158 0 0 1-.16-.155.158.158 0 0 1 .158-.159l3.318-.045c.091 0 .161.068.162.155a.158.158 0 0 1-.158.159l-3.318.045h-.002ZM425.261 125.99a.218.218 0 0 1-.043-.005 8.824 8.824 0 0 1-3.028-1.49c-.274-.21-.58-.47-.771-.815-.448-.806-.153-1.761.109-2.604l.027-.088c.85-2.75.988-5.691.403-8.506a.158.158 0 0 1 .125-.186.161.161 0 0 1 .188.123 17.405 17.405 0 0 1-.409 8.66l-.028.09c-.255.821-.518 1.671-.133 2.36.163.295.439.528.687.717a8.454 8.454 0 0 0 2.916 1.435.156.156 0 0 1 .112.192.16.16 0 0 1-.155.116v.001Z" fill="#A45236"/><path d="M445.209 108.619c-.044-.507-1.42-1.262-1.689-1.398a7.558 7.558 0 0 0-3.018-.802c-1.188-.06-2.41.256-3.478.75-.724.336-2.591 1.407-1.082 2.203.515.272 1.144.064 1.701-.111a12.995 12.995 0 0 1 6.49-.318c.236.05.486.105.718.034.272-.085.371-.211.358-.359v.001ZM410.573 115.249c.164 1.915-1.516 3.428-3.06 1.638-.665-.77-.719-2.246-.477-3.194.263-1.028 1.337-1.713 2.348-1.112.823.488 1.113 1.787 1.189 2.668ZM403.814 108.621c.043-.508 1.42-1.262 1.689-1.399a7.591 7.591 0 0 1 3.018-.802c1.187-.059 2.41.256 3.478.751.723.335 2.59 1.407 1.082 2.202-.516.272-1.144.064-1.701-.111a12.984 12.984 0 0 0-6.49-.317c-.237.049-.486.105-.718.033-.272-.085-.371-.21-.358-.358v.001Z" fill="#363537"/><path d="M453.851 103.393c2.948-1.39 6.702.242 8.289 2.848 1.588 2.606 1.481 5.832.908 8.815-.375 1.953-.947 3.914-2.092 5.61-1.145 1.695-2.933 3.109-5.042 3.527-2.11.417-4.51-.336-5.555-2.038-.375-.612-.565-1.306-.72-1.997-1.036-4.635-1.505-14.068 4.213-16.765h-.001Z" fill="#F1BBA2"/><path d="M451.522 119.36a.06.06 0 0 1-.06-.055c-.177-3.088.796-6.283 2.669-8.766 1.463-1.941 3.301-2.998 5.036-2.901a.06.06 0 0 1 .057.062.06.06 0 0 1-.063.055c-2.412-.134-4.253 1.951-4.934 2.854-1.856 2.462-2.821 5.629-2.646 8.689a.058.058 0 0 1-.056.062h-.003Z" fill="#A45236"/><path d="M452.31 114.143a.063.063 0 0 1-.052-.029.058.058 0 0 1 .022-.08c1.915-1.081 4.158-1.087 5.713-.017a.06.06 0 0 1 .015.082.062.062 0 0 1-.083.015c-1.517-1.046-3.71-1.036-5.585.022a.063.063 0 0 1-.03.007Z" fill="#A45236"/><path d="M387.611 105.007c-3.255-.299-6.199 2.512-6.767 5.498-.569 2.985.671 5.974 2.261 8.577 1.042 1.704 2.271 3.347 3.944 4.548 1.673 1.199 3.848 1.916 5.974 1.588 2.126-.328 4.111-1.852 4.49-3.805.135-.702.069-1.418-.03-2.119-.665-4.7-3.556-13.706-9.872-14.287Z" fill="#F1BBA2"/><path d="M395.388 119.299a.16.16 0 0 1-.153-.111c-.91-2.908-2.918-5.53-5.509-7.194-.943-.606-3.372-1.914-5.54-.985a.16.16 0 0 1-.21-.082.157.157 0 0 1 .083-.207c1.627-.697 3.757-.328 5.843 1.011 2.653 1.703 4.709 4.388 5.641 7.364a.157.157 0 0 1-.106.196.133.133 0 0 1-.047.008h-.002Z" fill="#A45236"/><path d="M387.538 116.574a.161.161 0 0 1-.09-.028.156.156 0 0 1-.041-.219c1.103-1.567 3.248-2.341 5.464-1.974a.157.157 0 0 1 .131.181.16.16 0 0 1-.184.129c-2.095-.346-4.116.376-5.148 1.843a.161.161 0 0 1-.132.068Z" fill="#A45236"/><path d="M447.378 121.338c1.026 12.032-.818 24.146-3.743 35.873 11.106-7.418 19.616-18.786 22.6-31.652.403-1.739.707-3.497.961-5.261 2.081-14.432 1.265-35.292-10.079-51.354-1.132-1.603-10.027-.05-11.554-1.296-1.702-1.39 9.384 2.974 7.177 3.114-2.208.14-4.333.868-6.372 1.713a54.39 54.39 0 0 0-8.974 4.742c-.982.644-1.982 1.362-2.507 2.403-.609 1.21-.471 2.637-.32 3.98.427 3.768.788 5.287 2.938 8.441a53.775 53.775 0 0 1 4.968 9.119c2.613 6.105 4.904 13.491 4.904 20.18l.001-.002Z" fill="#363537"/><path d="M490.037 197.509c-7.589-10.128-20.913-13.175-31.94-18.211-5.843-2.669-11.022-5.205-14.996-10.277-1.051-1.342-34.992-3.519-36.876.137-2.839 5.51-9.86 7.471-15.704 10.14-11.027 5.036-22.765 9.087-30.353 19.215-3.996 5.331-7.295 11.26-6.232 17.798.839 5.169 3.292 9.924 5.437 14.716 7.887 17.623 19.328 79.081 24.75 111.181 19.72 10.982 66.648 4.886 79.456.708 5.619-32.77 17.957-94.67 25.665-111.89 2.145-4.792 4.598-9.547 5.437-14.716 1.063-6.538-.649-13.47-4.645-18.802l.001.001Z" fill="#F1BBA2"/><path d="M468.828 183.694s-39.371 7.035-83.035-2.376c-20.217 5.248-34.106 21.578-43.481 41.77-13.849 29.825 26.118 9.25 28.375 55.202.076 1.538 2.214 3.694 2.138 3.518 1.107 2.575 1.248 6.095 1.803 8.848a1521.913 1521.913 0 0 1 3.704 19.059 1781.556 1781.556 0 0 1 5.803 32.493c19.72 10.982 66.648 4.886 79.456.708 5.62-32.77 17.958-94.67 25.666-111.89 2.144-4.792 5.035-30.297 2.21-34.472-6.141-9.072-22.638-12.861-22.638-12.861l-.001.001Z" fill="#fff"/><path d="M492.014 197.549c15.311 20.436 24.542 55.272 33.423 80.988 8.995 26.047 8.428 32.636 5.858 38.829-3.823 9.211-36.493-.604-43.227-15.402-6.736-14.801-16.664-43.042-20.826-55.779-4.162-12.738 1.894-45.008 24.772-48.637v.001Z" fill="#fff"/><path d="M468.824 296.408c0 21.192-23.383 38.373-52.228 38.373-13.094 0-25.062-3.539-34.228-9.387-5.87-3.745-10.592-8.437-13.723-13.752-.729-1.236-8.569-.314-9.674-1.21-2-1.618-1.113-16.181.535-18.107.568-.667 5.405-1.652 5.758-3.035 4.543-17.791 25.798-31.255 51.332-31.255 16.892 0 31.912 5.892 41.459 15.032 6.755 6.467 10.769 14.56 10.769 23.341Z" fill="#FCC583"/><path d="M391.129 271.905c-1.627.858-3.208 1-4.575.668a5.467 5.467 0 0 1-.324-.377c-.02-.026-.047-.048-.069-.073-3.255-3.49-4.605-13.316-3.719-15.634.1-.263.263-.432.48-.518.452-.182 1.136-.007 1.957.409 3.046 1.885 6.334 4.218 7.36 5.435 1.849 2.194 4.067 7.354-1.11 10.088v.002ZM466.541 287.668c2.077.383 4.978.085 6.479-1.106 2.68-2.126 3.739-5.536 4.433-8.78.291-1.647.997-4.945-.499-6.172-.963-.776-2.438-.169-3.017.806-.572.959-.526 2.126-.248 3.186 1.22 4.486 6.801 7.107 11.179 5.52 3.473-1.266 4.28-3.144 3.527-2.052-3.388 4.91-11.632 3.571-14.556-1.33-1.068-1.786-1.68-4.426-.182-6.154.91-1.019 2.61-1.452 3.744-.523 1.838 1.522 1.306 4.808.912 6.781-.602 2.667-1.217 6.301-2.857 8.55-1.985 2.787-5.504 5.362-9.063 4.55-2.031-.424-2.488-3.76.147-3.275l.001-.001Z" fill="#FCC583"/><path d="M439.636 265.218c-5.501-1.59-12.281-2.675-19.643-2.988-7.458-.316-14.39.21-20.051 1.359-.25-.277-.533-.417-.895-.655 4.752-2.073 12.277-3.054 21.031-2.613 9.879.498 15.714 2.019 20.328 4.313-.226.159-.469.343-.769.584h-.001ZM382.693 284.532c.258-1.754-.211-3.273-1.047-3.392-.837-.119-1.725 1.207-1.983 2.961-.258 1.754.211 3.272 1.048 3.391.836.119 1.724-1.206 1.982-2.96Z" fill="#BD8440"/><path d="M364.722 192.245c-20.061 15.981-41.637 49.632-56.831 72.318-15.388 22.976-18.749 41.041-8.632 48.204 8.213 5.816 28.468-3.625 38.781-16.275 10.317-12.655 27.171-37.523 34.467-48.817 7.297-11.295 13.422-46.25-7.785-55.429v-.001Z" fill="#fff"/><path d="M386.875 236.431a8.33 8.33 0 0 0-.193.166l-.141.125c-1.05.946-4.876 2.197-6.698 4.3-14.447 16.663-47.909 65.275-58.51 70.235-12.09 5.654-20.547 3.444-24.095-2.627-5.051-8.642-1.52-18.968 7.942-29.238 8.913-9.676 53.334-40.069 66.108-55.09.784-.922 1.448-1.784 1.977-2.581l.004-.004c3.8-5.721 14.515 2.456 15.53 9.396.292 1.995-.218 3.887-1.924 5.318Z" fill="#F1BBA2"/><path d="M377.853 219.312c-1.895-1.489-1.276-3.915 1.206-7.101 2.481-3.186 9.539-11.52 11.257-13.594 1.716-2.074 7.774-8.135 10.767-7.879 2.778.238-4.905 11.035-5.63 11.985-.727.951-9.577 11.491-11.352 13.709-1.775 2.219-4.061 4.598-6.247 2.879l-.001.001Z" fill="#F1BBA2"/><path d="M385.476 218.594c-1.895-1.489-1.276-3.915 1.206-7.101 2.481-3.186 9.539-11.52 11.256-13.594 1.716-2.073 7.743-8.135 10.767-7.879 2.779.235-4.905 11.035-5.63 11.986-.727.95-9.577 11.49-11.352 13.709-1.775 2.218-4.061 4.598-6.247 2.878v.001Z" fill="#F1BBA2"/><path d="M411.084 222.108c1.2 1.562 2.557 3.612 3.542 4.258.985.647 7.886 5.43 3.075-3.857-4.81-9.288-3.619-8.723-6.203-12.099-2.585-3.377-10.934.648-18.306 4.001-7.632 3.473-8.615 6.98-7.615 8.636.999 1.658 3.982 3.81 8.728.33 4.715-3.458 12.115-8.091 13.462-6.009 1.348 2.082 2.291 3.403 3.317 4.74Z" fill="#F1BBA2"/><path d="M393.443 218.234c-1.895-1.489-1.276-3.915 1.206-7.101 2.481-3.186 9.539-11.52 11.256-13.594 1.717-2.073 8.223-8.625 10.768-7.879 2.672.783-4.905 11.035-5.63 11.985-.727.951-9.577 11.491-11.352 13.709-1.776 2.219-4.061 4.598-6.247 2.879l-.001.001ZM400.636 236.266c1.598 1.995 4.193 2.966 5.424 4.31 1.23 1.344 2.223 4.363-2.057 3.254-4.282-1.109-5.584-2.508-9.075-3.787-2.397-.878-4.438-.116-7.277-.2-3.595-.107-3.508-2.299-6.794.2-3.904 2.966 22.991-29.171 19.845-25.595-2.862 3.25-7.317 9.312-6.394 14.677.466 2.71 4.971 5.444 6.33 7.141h-.002Z" fill="#F1BBA2"/><path d="M398.11 217.473s-.029.345-.085.944c-.063.671-10.028 17.423-11.356 18.18l-.236.137c-1.068.631-3.032.124-4.024.9-1.197.937-2.7 1.897-3.559 2.613-3.436 2.863-15.329-2.212-10.871-9.115 1.274-1.971 2.424-4.044 3.541-6.136.583-1.091 1.156-2.185 1.733-3.275l.003-.004c1.755-3.313 3.55-6.572 5.744-9.46a32.978 32.978 0 0 1 1.591-1.939c2.714-3.053 15.034 2.941 17.519 7.155Z" fill="#F1BBA2"/><path d="M387.956 211.448a.157.157 0 0 1-.128-.251c.055-.073 5.558-7.339 11.274-14.425a.161.161 0 0 1 .225-.026c.07.054.081.153.026.222-5.713 7.083-11.213 14.345-11.268 14.417a.159.159 0 0 1-.128.063h-.001ZM394.733 212.939a.162.162 0 0 1-.096-.031.156.156 0 0 1-.034-.22c.061-.08 6.11-8.044 11.826-15.131a.161.161 0 0 1 .225-.025c.07.053.081.153.026.221-5.713 7.084-11.76 15.044-11.819 15.123a.159.159 0 0 1-.128.063Z" fill="#E8825F"/><path d="M531.736 308.335c-3.537-9.339-13.877-13.27-27.962-12.683-14.086.587-64.443 18.033-81.099 16.144-8.893-1.009-7.764 15.45 2.221 16.535 9.985 1.085 81.346 5.416 93.498-.107 12.153-5.522 15.827-13.326 13.342-19.889Z" fill="#F1BBA2"/><path d="M395.243 321.735c-.82-4.916-1.237-9.688-.36-14.324 3.002.309 7.035.512 9.82 1.011 4.262.784 8.372 2.115 12.619 3.196 2.178.546 3.805-.843 5.815-.691 2.325.177 10.01.421 14.349-.243 2.742-.421-.479 6.143.384 8.68.108.312.207.633.179.926-.033.351-.251.617-.462.865-2.3 2.706-1.929 7.737-5.934 7.737-5.197 0-10.743.419-14.843.402-5.953.029-13.97-.245-20.426-.405-1.401-2.665-.678-4.455-1.141-7.154Z" fill="#F1BBA2"/><path d="M374.756 305.359c-.907-.046-1.85-.087-2.71.125-.86.212-1.641.734-1.762 1.474a.918.918 0 0 0 .219.789c.252.276.672.408 1.057.521 9.127 2.59 16.661 3.602 25.893 5.417 3.321.601 1.423-4.357-.145-5.409-1.347-.886-2.832-.904-4.43-1.13-5.693-.805-11.599-1.453-18.123-1.787h.001ZM376.009 320.261c-1.004-.224-2.053-.462-2.996-.333-.943.13-1.73.764-1.465 1.573.21.645.992 1.178 1.728 1.608 4.922 2.868 10.608 4.278 15.95 5.076 4.458.651 7.613 1.094 12.295.209.413-.081.847-1.269 1.048-1.563.94-1.408-1.319-3.197-2.893-3.548-1.764-.388-4.07-.084-5.904-.248-5.72-.498-11.659-1.409-17.764-2.773l.001-.001Z" fill="#F1BBA2"/><path d="M395.832 313.644c.262.875-21.283-4.367-27.942-3.487-.708.093-1.383.433-1.753 1.034-1.118 1.82.015 6.084 29.271 11.493 2.085.433 4.159.815 6.22 1.145-2.234-3.416-4.165-6.818-5.795-10.185h-.001Z" fill="#F1BBA2"/><path d="m395.37 318.288-.021-.001c-8.636-1.139-18.122-2.75-28.974-6.793a.157.157 0 0 1-.093-.203.16.16 0 0 1 .206-.091c10.821 4.032 20.286 5.639 28.902 6.775.088.012.15.091.138.178a.16.16 0 0 1-.158.136v-.001Z" fill="#E8825F"/><path d="M410.645 304.378c-2.011-.694-3.962-1.475-6.03-1.758-1.84-.251-3.586-1.641-5.004-2.83-.249-.209-.644-.08-.783.259-.6 1.474-.372 3.216.424 4.588.913 1.576 2.439 2.731 4.015 3.742 1.578 1.012 3.254 1.937 4.694 3.261.943.866 1.78 1.897 2.824 2.709 1.183.915 2.358 1.076 3.715 1.352 1.716.349 3.44.508 5.148.609 1.701.139 6.661.29 7.148-1.747.501-2.1-2.593-3.491-4.093-4.518-4.117-2.756-8.043-4.281-12.059-5.666l.001-.001Z" fill="#F1BBA2"/><path d="M414.169 237.775a8.324 8.324 0 0 0 0-11.919c-3.35-3.292-8.781-3.292-12.131 0a8.324 8.324 0 0 0 0 11.919c3.35 3.292 8.781 3.292 12.131 0Z" fill="#F2C45B"/><path d="M408.116 238.785c-.259 0-.518-.014-.779-.042a7.08 7.08 0 0 1-4.763-2.562 6.838 6.838 0 0 1-1.524-5.121 6.894 6.894 0 0 1 2.608-4.68 7.133 7.133 0 0 1 5.212-1.497c3.889.415 6.708 3.862 6.286 7.683a6.894 6.894 0 0 1-2.608 4.68 7.116 7.116 0 0 1-4.431 1.539h-.001Zm-.026-13.628a6.799 6.799 0 0 0-4.232 1.469 6.584 6.584 0 0 0-2.49 4.468 6.534 6.534 0 0 0 1.455 4.89 6.768 6.768 0 0 0 4.548 2.447 6.82 6.82 0 0 0 4.976-1.43 6.588 6.588 0 0 0 2.49-4.468c.403-3.648-2.29-6.94-6.003-7.337a7.16 7.16 0 0 0-.744-.039Z" fill="#D1990A"/><path d="M408.029 225.157a.158.158 0 0 1-.16-.157v-1.413c0-.087.071-.157.16-.157.088 0 .159.07.159.157V225a.158.158 0 0 1-.159.157ZM408.029 240.198a.158.158 0 0 1-.16-.157v-1.413c0-.087.071-.157.16-.157.088 0 .159.07.159.157v1.413a.158.158 0 0 1-.159.157ZM416.383 231.973h-1.438a.16.16 0 0 1-.16-.158c0-.087.072-.157.16-.157h1.438c.089 0 .16.07.16.157a.159.159 0 0 1-.16.158ZM401.065 231.973h-1.438a.159.159 0 0 1-.16-.158c0-.087.071-.157.16-.157h1.438c.089 0 .16.07.16.157a.159.159 0 0 1-.16.158ZM412.971 227.154a.163.163 0 0 1-.113-.046.155.155 0 0 1 0-.223l1.017-.999a.16.16 0 0 1 .226 0 .155.155 0 0 1 0 .222l-1.017 1a.165.165 0 0 1-.113.046ZM402.162 237.789a.16.16 0 0 1-.113-.046.154.154 0 0 1 0-.222l1.017-.999a.16.16 0 0 1 .226 0 .154.154 0 0 1 0 .222l-1.017.999a.159.159 0 0 1-.113.046ZM413.986 237.789a.159.159 0 0 1-.113-.046l-1.017-.999a.154.154 0 0 1 0-.222.16.16 0 0 1 .226 0l1.017.999a.154.154 0 0 1 0 .222.16.16 0 0 1-.113.046ZM403.181 227.154a.163.163 0 0 1-.113-.046l-1.017-1a.154.154 0 0 1 0-.222.16.16 0 0 1 .226 0l1.017.999a.155.155 0 0 1 0 .223.163.163 0 0 1-.113.046Z" fill="#D1990A"/><path d="M387.839 211.447c-1.352 0-2.695-.721-3.23-1.248a.155.155 0 0 1 0-.222.16.16 0 0 1 .226 0c.482.473 1.757 1.155 3.005 1.155h.08c.092 0 .162.067.164.153a.159.159 0 0 1-.156.162h-.089ZM394.644 212.94c-1.352 0-2.695-.721-3.23-1.247a.156.156 0 0 1 0-.223.162.162 0 0 1 .226 0c.481.473 1.756 1.156 3.005 1.156h.08c.092 0 .162.067.164.153a.158.158 0 0 1-.156.161h-.089ZM403.229 210.679a.162.162 0 0 1-.148-.095.157.157 0 0 1 .085-.207l3.131-1.32a.162.162 0 0 1 .21.083.157.157 0 0 1-.084.207l-3.131 1.318a.158.158 0 0 1-.063.013v.001ZM387.935 219.126c-2.98 0-5.791-.374-7.083-.574a.159.159 0 0 1-.133-.181.16.16 0 0 1 .183-.131c1.715.266 6.123.84 10.016.425 1.831-.195 4.361-.966 6.442-1.963a.164.164 0 0 1 .215.073.157.157 0 0 1-.074.21c-2.112 1.012-4.682 1.794-6.547 1.993-.992.106-2.014.148-3.018.148h-.001ZM380.475 225.161a.161.161 0 0 1-.15-.101.157.157 0 0 1 .091-.203c5.129-1.96 13.846-2.706 15.025-2.706.089 0 .16.071.16.158a.158.158 0 0 1-.16.157c-1.169 0-9.821.74-14.909 2.685a.163.163 0 0 1-.057.01Z" fill="#E8825F"/><path d="M383.819 228.088a.144.144 0 0 1-.057-.011.156.156 0 0 1-.091-.203c.464-1.171 3.504-3.879 6.097-5.149a.161.161 0 0 1 .215.07.157.157 0 0 1-.072.211c-2.49 1.22-5.507 3.884-5.941 4.982a.163.163 0 0 1-.15.101l-.001-.001Z" fill="#E8825F"/></g><defs><clipPath id="a"><path fill="#fff" d="M0 0h381v324H0z"/></clipPath><clipPath id="b"><path fill="#fff" transform="translate(234 14)" d="M0 0h371v309H0z"/></clipPath></defs></svg>