<svg width="51" height="58" fill="none" xmlns="http://www.w3.org/2000/svg"><g clip-path="url(#a)"><path d="M10.928 0C8.924 0 7.285 1.631 7.285 3.625v50.75c0 1.994 1.64 3.625 3.643 3.625h36.429c2.003 0 3.642-1.631 3.642-3.625V14.5L36.428 0h-25.5Z" fill="#E2E5E7"/><path d="M40.07 14.5H51L36.427 0v10.875c0 1.994 1.639 3.625 3.643 3.625Z" fill="#B0B7BD"/><path d="M50.999 25.375 40.07 14.5H51v10.875Z" fill="#CAD1D8"/><path d="M43.714 47.125c0 .997-.82 1.813-1.821 1.813H1.82A1.822 1.822 0 0 1 0 47.124V29c0-.997.82-1.813 1.821-1.813h40.072c1.002 0 1.821.816 1.821 1.813v18.125Z" fill="#F15642"/><path d="M7.94 34.342c0-.478.378-1 .988-1h3.365c1.894 0 3.599 1.261 3.599 3.68 0 2.29-1.705 3.566-3.6 3.566h-2.43v1.914c0 .638-.409.999-.934.999-.48 0-.989-.36-.989-.999v-8.16Zm1.921.825v3.61h2.432c.976 0 1.748-.857 1.748-1.756 0-1.013-.772-1.854-1.748-1.854H9.86Zm8.883 8.334c-.48 0-1.005-.261-1.005-.897V34.37c0-.52.524-.899 1.005-.899h3.335c6.656 0 6.51 10.029.131 10.029h-3.466Zm.918-8.26v6.493h2.417c3.933 0 4.107-6.493 0-6.493h-2.417Zm11.288.116v2.304h3.713c.525 0 1.05.522 1.05 1.028 0 .478-.525.87-1.05.87H30.95v3.043c0 .507-.363.897-.873.897-.641 0-1.033-.39-1.033-.897v-8.233c0-.52.394-.899 1.033-.899h5.113c.641 0 1.02.38 1.02.9 0 .463-.379.985-1.02.985h-4.24v.002Z" fill="#fff"/><path d="M41.892 48.937H7.285v1.813h34.607a1.822 1.822 0 0 0 1.822-1.813v-1.813c0 .997-.82 1.813-1.822 1.813Z" fill="#CAD1D8"/></g><defs><clipPath id="a"><path fill="#fff" d="M0 0h51v58H0z"/></clipPath></defs></svg>