<svg width="800" height="518" viewBox="0 0 800 518" fill="none" xmlns="http://www.w3.org/2000/svg">
<g clip-path="url(#clip0_101_311)">
<path d="M792.126 335.455L793.869 543.101H422.959L792.126 335.455Z" fill="#666F82"/>
<g clip-path="url(#clip1_101_311)">
<path d="M530.782 639.428C532.223 639.588 533.344 640.228 534.786 640.549C537.028 640.869 539.27 640.869 541.512 640.549C542.633 640.388 543.754 640.068 544.875 639.748C545.835 639.428 546.636 639.107 547.437 638.467C548.238 637.826 548.878 637.186 549.359 636.385C550.64 634.623 551.44 632.862 552.241 630.94C552.561 630.139 552.722 629.178 553.042 628.378C554.163 623.894 554.003 618.929 553.682 614.285C553.202 608.52 552.722 602.595 552.081 596.829C550.319 580.815 548.238 564.801 547.917 548.787C547.597 529.249 550.319 509.712 553.202 490.334C554.163 483.929 555.124 477.843 555.444 471.437C568.736 478.484 580.106 489.053 588.113 501.704C591.636 513.715 593.878 526.046 594.679 538.537C595.16 544.783 595.16 551.029 593.558 557.114C592.597 560.637 591.156 564.16 589.715 567.523C585.551 577.612 582.028 587.861 579.305 598.431C578.024 603.556 577.063 608.68 576.263 613.965C575.142 621.812 574.821 629.819 575.462 637.826C575.462 637.986 575.462 638.146 575.462 638.146C575.462 638.947 575.622 639.748 575.622 640.549C576.263 647.275 577.544 654.641 580.266 660.727C580.426 660.887 580.426 661.207 580.587 661.367C581.227 662.969 581.708 665.051 580.106 666.172C578.024 667.613 574.982 668.253 572.579 668.894C567.455 670.495 562.01 671.777 556.565 672.257C548.878 672.898 541.351 671.136 534.145 668.414C532.704 667.773 531.102 667.132 529.661 666.492C524.857 664.09 520.052 660.406 519.092 654.641C517.81 648.556 523.576 639.107 530.782 639.428Z" fill="#EFC0AC"/>
<path d="M555.123 471.437C555.283 468.555 557.732 467.588 557.571 464.705C557.251 456.218 565.334 459.39 574.142 456.988C578.786 455.707 576.422 443.893 581.226 444.533C581.867 444.693 582.668 444.693 583.308 444.854C597.561 446.775 611.974 448.697 625.746 452.54C624.465 452.701 623.184 453.021 622.063 453.341C618.54 454.302 615.177 455.903 612.134 457.985C603.486 463.59 596.6 471.918 592.917 481.687C590.835 486.971 592.276 493.857 592.596 499.462C592.596 500.423 592.757 501.544 592.917 502.505C591.155 502.345 589.394 502.025 587.632 501.544C587.632 501.704 587.632 501.704 587.792 501.865C579.785 489.053 568.415 478.484 555.123 471.437Z" fill="#EBB7A1"/>
<path d="M592.757 499.302C592.757 500.263 592.917 501.384 593.077 502.345C593.558 507.79 594.358 513.235 595.8 518.519C597.721 526.046 600.284 533.093 603.967 539.658C606.049 543.662 608.611 547.345 611.654 550.868C619.02 559.356 626.387 568.004 635.035 575.21C635.996 576.011 636.956 576.812 637.917 577.452C646.085 583.698 655.693 589.463 665.142 593.466C684.839 601.794 707.58 596.99 727.117 591.224C731.761 589.783 736.245 589.303 740.729 587.061C750.018 582.256 756.904 574.249 763.149 565.922C779.484 543.982 785.729 519.48 783.968 492.416C783.648 487.772 783.327 482.968 781.886 478.644C779.964 472.719 775.961 467.754 771.957 463.11C764.911 454.462 757.384 446.135 750.018 437.807C749.537 437.167 748.897 436.526 748.416 436.046C747.455 440.85 743.452 444.213 739.768 447.256C734.964 451.259 729.679 454.622 724.395 457.985C717.348 462.469 709.822 466.153 701.654 467.434C693.007 468.875 683.878 468.395 675.391 465.992C673.95 465.512 672.348 465.032 671.387 463.75C670.426 462.309 670.587 460.548 670.426 458.946C670.266 453.341 668.024 447.896 665.942 442.612C664.181 438.128 665.5 445 665 445.5C665 447 664.222 449.5 664 450.5C663.778 451.5 662.5 453 661 456.5C659 458.946 658.5 460 653 463C650.805 464.197 645.5 466.5 641 467.5C636.5 468.5 628.5 470.212 618 469C605 467.5 602.383 475.52 599.5 476C598.219 476.16 594.038 465.672 592.757 465.992C589.234 466.953 582.043 471.418 579 473.5C570.352 479.105 585.683 474.731 582 484.5C579.918 489.625 592.277 493.697 592.757 499.302Z" fill="#3F9FBC"/>
</g>
<path d="M752.236 200.858L606.352 137.054V1.16153H752.236V200.858Z" fill="#A1E4D0"/>
<path d="M747.687 115.079C747.687 115.079 715.96 65.0771 713.842 36.916C711.724 8.75481 709.826 1.16179 709.826 1.16179H684.232C684.232 1.16179 708.48 55.8985 713.29 69.2533C718.122 82.5858 732.64 113.092 732.64 113.092L750.622 127.63L747.687 115.079Z" fill="#7FCBB4"/>
<path d="M747.032 177.073C747.032 177.073 743.281 158.247 740.258 153.289C737.258 148.354 738.603 124.19 742.354 116.575C746.105 108.96 726.491 97.3244 726.491 97.3244C726.491 97.3244 732.161 137.679 731.609 147.773L730.661 152.329C730.661 152.329 719.011 141.878 704.14 133.503C689.291 125.128 685.342 113.917 685.342 113.917C685.342 113.917 684.217 124.369 684.217 124.95C684.217 125.53 691.167 133.324 706.038 143.396C720.908 153.468 729.734 161.843 730.308 170.776C730.881 179.709 746.105 182.947 747.054 182.947C748.003 182.947 747.032 177.073 747.032 177.073Z" fill="#7FCBB4"/>
<path d="M656.72 122.381C656.72 122.381 656.896 104.113 656.985 97.3468C657.073 90.58 664.994 56.0318 664.994 56.0318L657.691 49.5554C657.691 49.5554 645.953 104.605 654.646 125.642L656.72 122.381Z" fill="#7FCBB4"/>
<path d="M658.952 125.084C658.952 125.084 634.66 92.1434 631.593 88.7712C628.504 85.399 608.426 38.6573 608.426 38.6573L602.579 49.5778L626.011 84.2824L600.527 74.1435V80.3742C601.366 75.6174 644.39 100.54 652.311 133.324L659.569 129.863L658.952 125.084Z" fill="#7FCBB4"/>
<path d="M657.694 36.6257C657.694 36.6257 640.021 11.6134 641.323 1.16179H635.299C635.299 1.16179 640.948 28.0723 657.672 40.6232C657.672 40.6232 651.273 32.8291 632.1 28.8316C612.927 24.8341 603.506 21.9756 603.506 21.9756L608.404 36.1567C608.404 36.1567 638.874 29.4123 657.672 49.5561C676.47 69.7223 667.6 42.0971 667.6 42.0971L657.694 36.6257Z" fill="#7FCBB4"/>
<path d="M735.6 94.2205C735.6 94.2205 730.238 47.3224 746.124 27.9825V1.16131C740.608 0.201016 730.702 1.16131 730.702 1.16131C730.702 1.16131 730.106 66.6399 721.921 65.8136C713.757 64.965 735.6 94.2205 735.6 94.2205Z" fill="#7FCBB4"/>
<path opacity="0.34" d="M326.341 507.213L307.389 510.787L332.541 417.862L394.098 453.817C399.35 456.899 399.35 464.559 394.098 467.64L326.341 507.213Z" fill="#A4A4A4"/>
<path d="M760.684 1.16141L762.029 225.915L774.231 218.366L774.385 1.16141H760.684Z" fill="#CECECE"/>
<path d="M673.977 1.16153L674.925 159.923L694.01 168.99L691.274 1.16153H673.977Z" fill="#D6F3EA"/>
<path d="M610.499 105.99L609.903 5.13658L609.859 1.16141H597.305L597.989 115.503L746.123 201.081L746.013 182.813L610.499 105.99Z" fill="#D6F3EA"/>
<path d="M581.73 121.846L762.033 225.915L760.687 1.16152H744.934L746.126 201.081L677.993 161.776L677.045 1.16152H664.667L665.594 154.608L597.947 115.548L597.263 1.16152H581.002L581.73 121.846Z" fill="#EEEEEE"/>
<path d="M791.51 311.559L787.097 366.854L499.234 543.102H423.27L791.51 311.559Z" fill="#C0C0C0"/>
<path d="M92.0063 466.011L137.568 439.391V436.688L73.5612 402.006L28 425.924V428.626L92.0063 466.011Z" fill="#5B78B7"/>
<path d="M92.0063 463.309L137.568 436.688L73.5612 399.326L28 425.924L92.0063 463.309Z" fill="#6683C2"/>
<path d="M92.0073 458.998L134.965 433.919V427.733L74.6432 398.701L31.6855 417.594V423.78L92.0073 458.998Z" fill="#EDE1E1"/>
<path d="M92.0073 452.812L134.965 427.733L74.6432 392.515L31.6855 417.594L92.0073 452.812Z" fill="#FFFAFA"/>
<path d="M73.7411 401.18L75.8592 399.93C76.7417 399.416 76.6314 398.5 75.6165 397.897C74.5795 397.294 73.013 397.227 72.1305 397.741L70.0124 398.992C69.1298 399.505 69.2401 400.421 70.2551 401.024C71.292 401.627 72.8586 401.694 73.7411 401.18Z" fill="#EDE1E1"/>
<path d="M64.8661 406.339L66.9842 405.088C67.8667 404.575 67.7564 403.659 66.7415 403.056C65.7045 402.453 64.138 402.386 63.2555 402.9L61.1374 404.15C60.2548 404.664 60.3651 405.58 61.3801 406.183C62.395 406.808 63.9836 406.875 64.8661 406.339Z" fill="#EDE1E1"/>
<path d="M55.9989 411.52L58.117 410.269C58.9996 409.755 58.8892 408.84 57.8743 408.237C56.8373 407.634 55.2708 407.567 54.3883 408.081L52.2702 409.331C51.3876 409.845 51.498 410.76 52.5129 411.363C53.5278 411.966 55.0943 412.033 55.9989 411.52Z" fill="#EDE1E1"/>
<path d="M47.1298 416.679L49.2479 415.428C50.1304 414.914 50.0201 413.999 49.0052 413.396C47.9682 412.793 46.4017 412.726 45.5191 413.239L43.401 414.49C42.5185 415.004 42.6288 415.919 43.6437 416.522C44.6587 417.125 46.2252 417.192 47.1298 416.679Z" fill="#EDE1E1"/>
<path d="M60.4117 400.845C60.2793 400.532 60.0145 399.795 59.9263 399.482C59.2864 397.539 59.4409 395.686 60.3675 394.391C61.1398 393.296 62.4415 392.693 63.986 392.693C67.5823 392.693 71.5538 395.842 72.8114 399.728C72.8776 399.951 73.1203 400.063 73.3409 399.996C73.5615 399.929 73.6719 399.683 73.6057 399.482C72.2377 395.284 67.9133 391.867 63.986 391.867C62.1768 391.867 60.6544 392.582 59.7056 393.899C58.6466 395.396 58.4259 397.517 59.154 399.728C59.2644 400.085 59.5953 400.889 59.7498 401.224L60.4117 400.845Z" fill="#433878"/>
<path d="M51.5406 406.003C51.4082 405.691 51.1434 404.954 51.0552 404.641C50.4153 402.698 50.5698 400.845 51.4964 399.549C52.2687 398.455 53.5704 397.852 55.1149 397.852C58.7112 397.852 62.6827 401.001 63.9403 404.887C64.0065 405.11 64.2492 405.222 64.4698 405.155C64.6904 405.088 64.8008 404.842 64.7346 404.641C63.3666 400.443 59.0422 397.026 55.1149 397.026C53.3057 397.026 51.7833 397.741 50.8345 399.058C49.7755 400.554 49.5549 402.676 50.283 404.887C50.3933 405.244 50.7242 406.048 50.8787 406.383L51.5406 406.003Z" fill="#433878"/>
<path d="M42.6734 411.185C42.541 410.872 42.2762 410.135 42.188 409.822C41.5481 407.879 41.7026 406.026 42.6293 404.731C43.4015 403.636 44.7032 403.033 46.2477 403.033C49.844 403.033 53.8155 406.182 55.0731 410.068C55.1393 410.291 55.382 410.403 55.6026 410.336C55.8233 410.269 55.9336 410.023 55.8674 409.822C54.4994 405.624 50.175 402.207 46.2477 402.207C44.4385 402.207 42.9161 402.922 41.9674 404.239C40.9083 405.736 40.6877 407.857 41.4158 410.068C41.5261 410.425 41.857 411.229 42.0115 411.564L42.6734 411.185Z" fill="#433878"/>
<path d="M33.8062 416.344C33.6738 416.031 33.4091 415.294 33.3208 414.981C32.681 413.038 32.8354 411.185 33.7621 409.89C34.5343 408.795 35.836 408.192 37.3805 408.192C40.9768 408.192 44.9483 411.341 46.2059 415.227C46.2721 415.45 46.5148 415.562 46.7354 415.495C46.9561 415.428 47.0664 415.182 47.0002 414.981C45.6323 410.783 41.3078 407.366 37.3805 407.366C35.5713 407.366 34.0489 408.081 33.1002 409.398C32.0411 410.894 31.8205 413.016 32.5486 415.227C32.6589 415.584 32.9898 416.388 33.1443 416.723L33.8062 416.344Z" fill="#433878"/>
<path d="M85.1913 399.46L44.1973 423.49" stroke="#D4C9C9" stroke-width="1.5167" stroke-miterlimit="10" stroke-linecap="round" stroke-linejoin="round"/>
<path d="M94.1464 405.043L53.1523 429.051" stroke="#D4C9C9" stroke-width="1.5167" stroke-miterlimit="10" stroke-linecap="round" stroke-linejoin="round"/>
<path d="M102.885 410.649L61.8906 434.679" stroke="#D4C9C9" stroke-width="1.5167" stroke-miterlimit="10" stroke-linecap="round" stroke-linejoin="round"/>
<path d="M112.021 415.942L71.0273 439.971" stroke="#D4C9C9" stroke-width="1.5167" stroke-miterlimit="10" stroke-linecap="round" stroke-linejoin="round"/>
<path d="M121.174 421.48L80.1797 445.487" stroke="#D4C9C9" stroke-width="1.5167" stroke-miterlimit="10" stroke-linecap="round" stroke-linejoin="round"/>
<path d="M528.608 94.7323C528.608 94.7323 559.188 84.5264 554.687 41.9384C554.687 41.9608 516.584 62.9532 528.608 94.7323Z" fill="#5CAA93"/>
<path opacity="0.34" d="M535.867 198.109C552.22 198.109 565.476 193.829 565.476 188.55C565.476 183.271 552.22 178.992 535.867 178.992C519.514 178.992 506.258 183.271 506.258 188.55C506.258 193.829 519.514 198.109 535.867 198.109Z" fill="#C97D7F"/>
<path d="M564.681 149.401L490.613 147.213L502.572 184.307C503.013 187.746 505.484 191.096 509.985 193.731C519.936 199.537 536.042 199.582 545.927 193.798C550.075 191.386 552.479 188.304 553.119 185.155L564.681 149.401Z" fill="#FFFAFA"/>
<path d="M564.681 149.402C554.4 170.148 544.14 190.918 527.637 198.109C534.256 198.176 540.897 196.746 545.927 193.798C550.075 191.386 552.48 188.305 553.12 185.156L564.681 149.402Z" fill="#EDE1E1"/>
<path d="M565.466 145.057C565.53 132.945 548.77 123.035 528.031 122.921C507.291 122.807 490.426 132.534 490.361 144.646C490.297 156.757 507.057 166.668 527.796 166.782C548.536 166.895 565.401 157.169 565.466 145.057Z" fill="white"/>
<path d="M559.883 144.325C559.939 133.927 545.552 125.419 527.749 125.322C509.946 125.224 495.469 133.574 495.413 143.971C495.358 154.369 509.745 162.877 527.547 162.974C545.35 163.072 559.827 154.722 559.883 144.325Z" fill="#6D6058"/>
<path d="M528.248 58.7546V149.558" stroke="#7FCBB4" stroke-width="12.1381" stroke-miterlimit="10" stroke-linecap="round" stroke-linejoin="round"/>
<path d="M527.9 124.434C527.9 124.434 529.29 91.8961 488.34 81.0648C488.34 81.0648 494.275 124.524 527.9 124.434Z" fill="#7FCBB4"/>
<path d="M529.026 112.554C529.026 112.554 560.907 107.998 563.952 65.276C563.952 65.2983 522.782 79.1444 529.026 112.554Z" fill="#7FCBB4"/>
<path d="M528.564 87.6751C528.564 87.6751 542.839 56.8787 507.648 29.7895C507.648 29.8118 496.087 74.1193 528.564 87.6751Z" fill="#7FCBB4"/>
<path d="M528.648 85.8216L508.416 31.6655" stroke="#5CAA93" stroke-width="2.4276" stroke-miterlimit="10" stroke-linecap="round" stroke-linejoin="round"/>
<path opacity="0.34" d="M198.442 516.437L230.412 497.767C232.42 496.584 232.177 494.507 229.838 493.144L169.318 457.792C166.979 456.43 163.427 456.273 161.419 457.457L129.449 476.127C127.441 477.311 127.684 479.388 130.023 480.75L190.543 516.102C192.86 517.487 196.412 517.621 198.442 516.437Z" fill="#939393"/>
<path d="M121.682 479.053V479.008V478.986L121.814 476.083L124.065 476.462L155.02 458.395C157.027 457.212 160.602 457.368 162.918 458.73L222.115 493.301L225.513 493.881L225.38 496.673C225.38 497.432 224.939 498.147 224.034 498.683L192.064 517.353C190.057 518.536 186.482 518.38 184.166 517.018L123.645 481.666C122.321 480.951 121.682 479.968 121.682 479.053Z" fill="#FFFAFA"/>
<path d="M192.174 514.561L224.144 495.891C226.152 494.707 225.91 492.63 223.571 491.268L163.051 455.916C160.712 454.554 157.16 454.397 155.152 455.581L123.182 474.251C121.174 475.435 121.417 477.511 123.755 478.874L184.276 514.226C186.592 515.588 190.167 515.745 192.174 514.561Z" fill="#5B78B7"/>
<path d="M184.009 514.092L223.834 491.47L162.608 455.715L123.312 478.606L184.009 514.092Z" fill="#E4EDFF"/>
<path d="M204.111 483.005L161.639 458.216L134.391 474.095L204.111 483.005Z" fill="white"/>
<path d="M152.153 484.301L176.114 470.321C177.217 469.673 177.085 468.534 175.805 467.775L167.929 463.174C166.649 462.415 164.707 462.348 163.582 462.996L139.643 476.976C138.54 477.624 138.672 478.762 139.952 479.522L147.829 484.122C149.109 484.859 151.05 484.949 152.153 484.301Z" fill="#EDE1E1"/>
<path d="M149.195 481.561C152.181 481.545 154.593 480.112 154.584 478.36C154.575 476.609 152.147 475.202 149.161 475.219C146.176 475.235 143.763 476.668 143.773 478.419C143.782 480.171 146.21 481.577 149.195 481.561Z" fill="white"/>
<path d="M168.106 465.765L153.654 474.229" stroke="white" stroke-width="1.9219" stroke-miterlimit="10" stroke-linecap="round" stroke-linejoin="round"/>
<path d="M170.772 468.065L163.248 472.487" stroke="white" stroke-width="1.9219" stroke-miterlimit="10" stroke-linecap="round" stroke-linejoin="round"/>
<path d="M170.753 495.556L194.714 481.576C195.818 480.929 195.685 479.79 194.406 479.03L186.529 474.43C185.249 473.671 183.308 473.604 182.182 474.251L158.221 488.231C157.118 488.879 157.251 490.018 158.53 490.777L166.407 495.378C167.687 496.115 169.628 496.204 170.753 495.556Z" fill="#FFAC80"/>
<path d="M167.797 492.817C170.782 492.8 173.195 491.367 173.186 489.616C173.176 487.864 170.748 486.458 167.763 486.474C164.778 486.491 162.365 487.924 162.374 489.675C162.384 491.426 164.812 492.833 167.797 492.817Z" fill="white"/>
<path d="M186.682 477.021L172.23 485.507" stroke="white" stroke-width="1.9219" stroke-miterlimit="10" stroke-linecap="round" stroke-linejoin="round"/>
<path d="M189.351 479.321L181.85 483.743" stroke="white" stroke-width="1.9219" stroke-miterlimit="10" stroke-linecap="round" stroke-linejoin="round"/>
<path d="M189.328 506.812L213.289 492.832C214.392 492.184 214.26 491.045 212.98 490.286L205.103 485.685C203.823 484.926 201.882 484.859 200.757 485.507L176.796 499.487C175.692 500.134 175.825 501.273 177.104 502.033L184.981 506.633C186.283 507.37 188.225 507.46 189.328 506.812Z" fill="#EDE1E1"/>
<path d="M186.369 504.072C189.355 504.056 191.767 502.623 191.758 500.872C191.748 499.12 189.321 497.714 186.335 497.73C183.35 497.746 180.937 499.179 180.947 500.931C180.956 502.682 183.384 504.089 186.369 504.072Z" fill="white"/>
<path d="M205.282 488.276L190.83 496.763" stroke="white" stroke-width="1.9219" stroke-miterlimit="10" stroke-linecap="round" stroke-linejoin="round"/>
<path d="M207.949 490.599L200.426 494.998" stroke="white" stroke-width="1.9219" stroke-miterlimit="10" stroke-linecap="round" stroke-linejoin="round"/>
<path opacity="0.34" d="M326.01 334.411L497.377 234.339C499.363 233.178 502.849 233.334 505.143 234.674L605.488 293.163C607.783 294.503 608.026 296.535 606.04 297.697L448.131 395.334C442.682 398.706 436.151 399.823 429.907 398.438C428.826 398.282 427.789 397.947 426.906 397.433L326.561 338.944C324.289 337.627 324.024 335.572 326.01 334.411Z" fill="#989898"/>
<path d="M309.217 322.463L313.453 325.166L315.219 319.091H308.754L309.217 322.463Z" fill="#463757"/>
<path d="M458.3 103.717L454.064 100.993L446.783 107.916L455.851 109.345L458.3 103.717Z" fill="#463757"/>
<path d="M314.954 322.508L483.453 224.112C487.182 221.946 489.013 215.938 487.557 210.802L457.793 106.353C456.337 101.217 452.079 98.7824 448.35 100.949L279.409 200.216C275.681 202.382 274.577 206.358 276.056 211.516L305.533 317.104C306.989 322.263 311.225 324.697 314.954 322.508Z" fill="#5B78B7"/>
<path d="M319.298 325.3L487.797 226.903C491.526 224.737 493.357 218.729 491.901 213.593L462.137 109.144C460.681 104.008 456.422 101.574 452.694 103.74L282.584 203.253C278.855 205.419 278.105 208.323 279.583 213.481L309.854 319.895C311.333 325.054 315.569 327.488 319.298 325.3Z" fill="#E4EDFF"/>
<path d="M482.615 180.965L462.162 109.144C460.706 104.008 456.447 101.573 452.719 103.74L344.166 167.253L482.615 180.965Z" fill="white" fill-opacity="0.62"/>
<path d="M316.432 330.682V325.121L341.165 339.682L342.577 336.399L507.259 240.236C509.245 239.075 513.194 239.231 515.467 240.571L586.82 281.975V280.814L597.654 286.129L599.176 285.504L598.977 290.551C598.801 291.645 598.382 292.114 597.72 292.494L426.33 392.833C424.344 393.994 420.858 393.972 418.564 392.632L319.079 335.126C316.41 333.742 316.432 330.682 316.432 330.682Z" fill="#4B6499"/>
<path d="M316.432 330.682V325.121L341.165 339.682L342.577 336.399L423.352 289.233L426.33 392.856C425.337 393.436 423.969 393.726 422.557 393.704C421.145 393.682 419.711 393.347 418.564 392.677L319.079 335.126C316.41 333.742 316.432 330.682 316.432 330.682Z" fill="#5B78B7"/>
<path d="M317.756 324.831L489.123 224.759C491.109 223.598 494.595 223.754 496.889 225.094L597.234 283.583C599.529 284.923 599.772 286.955 597.786 288.116L426.419 388.188C424.433 389.349 420.947 389.193 418.652 387.853L318.307 329.364C316.035 328.024 315.77 325.97 317.756 324.831Z" fill="#A4BAEA"/>
<path d="M497.045 252.942C497.288 253.099 497.795 253.032 498.17 252.808L508.584 246.734C508.959 246.511 509.07 246.22 508.805 246.064L501.921 242.044C501.678 241.888 501.171 241.955 500.796 242.178L490.382 248.252C490.007 248.476 489.896 248.766 490.161 248.922L497.045 252.942Z" fill="#849FDA"/>
<path d="M484.976 271.054C485.219 271.211 485.726 271.144 486.102 270.92L496.515 264.846C496.891 264.623 497.001 264.332 496.736 264.176L489.852 260.156C489.61 260.022 489.102 260.067 488.727 260.29L478.313 266.364C477.938 266.588 477.828 266.878 478.07 267.034L484.976 271.054Z" fill="#849FDA"/>
<path d="M491.084 278.602C491.327 278.759 491.834 278.692 492.21 278.468L502.623 272.394C502.999 272.171 503.109 271.88 502.844 271.724L495.938 267.704C495.696 267.57 495.188 267.615 494.813 267.838L484.399 273.913C484.024 274.136 483.914 274.426 484.156 274.56L491.084 278.602Z" fill="#849FDA"/>
<path d="M507.588 280.054C507.831 280.188 508.338 280.143 508.713 279.92L519.127 273.846C519.502 273.622 519.59 273.332 519.348 273.198L512.464 269.178C512.221 269.044 511.714 269.089 511.339 269.312L500.925 275.387C500.55 275.61 500.461 275.9 500.704 276.056L507.588 280.054Z" fill="#849FDA"/>
<path d="M536.227 275.811C536.47 275.967 536.977 275.9 537.352 275.677L547.766 269.603C548.142 269.379 548.252 269.089 547.987 268.933L539.89 264.198C539.647 264.064 539.14 264.109 538.764 264.332L528.351 270.407C527.975 270.63 527.887 270.92 528.13 271.077L536.227 275.811Z" fill="#849FDA"/>
<path d="M518.269 286.285C518.512 286.441 519.108 286.307 519.615 286.017L533.25 278.067C533.736 277.776 533.934 277.419 533.692 277.285L525.594 272.55C525.352 272.416 524.734 272.528 524.248 272.796L510.613 280.746C510.128 281.037 509.929 281.394 510.172 281.528L518.269 286.285Z" fill="#849FDA"/>
<path d="M428.731 338.632C428.93 338.743 429.415 338.676 429.79 338.453L440.182 332.379C440.557 332.155 440.712 331.887 440.491 331.753L437.49 330.011C437.292 329.9 436.806 329.967 436.431 330.19L426.039 336.264C425.664 336.488 425.532 336.756 425.731 336.89L428.731 338.632Z" fill="#849FDA"/>
<path d="M414.833 346.962C415.031 347.074 415.517 347.007 415.892 346.783L426.284 340.709C426.659 340.486 426.813 340.218 426.593 340.084L423.592 338.342C423.393 338.23 422.908 338.297 422.533 338.52L412.141 344.595C411.766 344.818 411.634 345.086 411.832 345.22L414.833 346.962Z" fill="#849FDA"/>
<path d="M400.095 355.359C400.293 355.47 400.756 355.381 401.132 355.18L411.523 349.106C411.899 348.882 412.053 348.614 411.854 348.503L408.964 346.828C408.765 346.716 408.302 346.805 407.927 347.006L397.535 353.081C397.16 353.304 397.028 353.572 397.204 353.684L400.095 355.359Z" fill="#849FDA"/>
<path d="M409.141 343.746C409.34 343.858 409.803 343.768 410.178 343.567L420.57 337.493C420.945 337.27 421.1 337.002 420.901 336.89L418.011 335.215C417.812 335.103 417.349 335.193 416.974 335.394L406.582 341.468C406.207 341.691 406.075 341.959 406.251 342.071L409.141 343.746Z" fill="#849FDA"/>
<path d="M446.717 328.046C446.96 328.203 447.467 328.136 447.842 327.912L515.555 288.406C515.93 288.183 516.041 287.893 515.776 287.736L507.679 283.002C507.436 282.868 506.906 282.912 506.553 283.136L438.84 322.642C438.465 322.865 438.355 323.155 438.598 323.312L446.717 328.046Z" fill="#849FDA"/>
<path d="M520.143 283.672C520.165 283.672 520.209 283.672 520.253 283.649L528.196 279.004C528.24 278.982 528.262 278.96 528.24 278.937L527.733 278.647C527.711 278.647 527.667 278.647 527.623 278.669L519.68 283.314C519.636 283.337 519.614 283.359 519.636 283.381L520.143 283.672Z" fill="#849FDA"/>
<path d="M540.528 270.897C540.55 270.897 540.572 270.897 540.594 270.897L543.97 268.932C543.992 268.932 543.992 268.91 543.97 268.887L543.462 268.597C543.44 268.597 543.418 268.597 543.396 268.597L540.02 270.562C539.998 270.562 539.998 270.585 540.02 270.607L540.528 270.897Z" fill="#849FDA"/>
<path d="M493.314 288.361C493.557 288.495 494.065 288.451 494.44 288.227L504.854 282.153C505.229 281.93 505.339 281.639 505.074 281.483L498.19 277.463C497.948 277.329 497.418 277.374 497.065 277.597L486.651 283.671C486.276 283.895 486.166 284.185 486.431 284.341L493.314 288.361Z" fill="#849FDA"/>
<path d="M478.992 296.714C479.234 296.848 479.742 296.803 480.117 296.58L490.509 290.506C490.884 290.282 490.994 289.992 490.752 289.836L483.868 285.816C483.625 285.682 483.095 285.726 482.742 285.95L472.351 292.024C471.975 292.248 471.887 292.538 472.13 292.694L478.992 296.714Z" fill="#849FDA"/>
<path d="M464.674 305.088C464.917 305.222 465.424 305.178 465.799 304.954L476.213 298.88C476.588 298.657 476.676 298.366 476.434 298.232L469.55 294.213C469.307 294.079 468.8 294.123 468.425 294.347L458.011 300.421C457.636 300.644 457.547 300.935 457.79 301.091L464.674 305.088Z" fill="#849FDA"/>
<path d="M450.336 313.441C450.579 313.575 451.086 313.53 451.461 313.307L461.875 307.233C462.25 307.009 462.361 306.719 462.096 306.563L455.212 302.543C454.969 302.409 454.462 302.453 454.087 302.677L443.673 308.751C443.298 308.975 443.209 309.265 443.452 309.421L450.336 313.441Z" fill="#849FDA"/>
<path d="M436.015 321.815C436.258 321.949 436.766 321.905 437.141 321.681L447.533 315.607C447.908 315.384 447.996 315.093 447.753 314.959L440.869 310.939C440.627 310.805 440.119 310.85 439.744 311.073L429.352 317.148C428.977 317.371 428.867 317.661 429.109 317.818L436.015 321.815Z" fill="#849FDA"/>
<path d="M421.699 330.168C421.942 330.302 422.449 330.257 422.824 330.034L433.216 323.96C433.591 323.736 433.702 323.446 433.437 323.29L426.553 319.27C426.31 319.136 425.803 319.18 425.428 319.404L415.036 325.478C414.661 325.701 414.551 325.992 414.815 326.148L421.699 330.168Z" fill="#849FDA"/>
<path d="M389.416 348.994C389.659 349.128 390.166 349.083 390.541 348.86L418.893 332.312C419.268 332.088 419.378 331.798 419.113 331.642L412.23 327.622C411.987 327.488 411.48 327.533 411.104 327.756L382.753 344.304C382.378 344.528 382.267 344.818 382.532 344.974L389.416 348.994Z" fill="#849FDA"/>
<path d="M476.811 286.91C477.054 287.067 477.561 287 477.936 286.776L488.35 280.702C488.725 280.479 488.836 280.188 488.571 280.054L481.665 276.034C481.422 275.9 480.915 275.945 480.54 276.168L470.126 282.243C469.751 282.466 469.663 282.756 469.905 282.89L476.811 286.91Z" fill="#849FDA"/>
<path d="M462.487 295.262C462.73 295.419 463.237 295.352 463.612 295.128L474.026 289.054C474.401 288.831 474.512 288.54 474.247 288.406L467.341 284.387C467.098 284.253 466.591 284.297 466.216 284.52L455.802 290.595C455.427 290.818 455.338 291.109 455.581 291.243L462.487 295.262Z" fill="#849FDA"/>
<path d="M448.172 303.637C448.414 303.793 448.922 303.727 449.297 303.503L459.711 297.429C460.086 297.205 460.196 296.915 459.954 296.759L453.048 292.739C452.805 292.605 452.275 292.65 451.922 292.873L441.508 298.947C441.133 299.171 441.023 299.461 441.266 299.595L448.172 303.637Z" fill="#849FDA"/>
<path d="M433.831 311.989C434.073 312.146 434.581 312.079 434.956 311.855L445.348 305.781C445.723 305.557 445.833 305.267 445.568 305.111L438.663 301.091C438.42 300.957 437.912 301.002 437.537 301.225L427.145 307.299C426.77 307.523 426.66 307.813 426.925 307.947L433.831 311.989Z" fill="#849FDA"/>
<path d="M419.512 320.342C419.755 320.498 420.262 320.431 420.638 320.208L431.052 314.133C431.427 313.91 431.537 313.62 431.272 313.486L424.366 309.466C424.124 309.332 423.616 309.377 423.241 309.6L412.827 315.674C412.452 315.898 412.342 316.188 412.606 316.322L419.512 320.342Z" fill="#849FDA"/>
<path d="M405.189 328.716C405.432 328.873 405.94 328.806 406.315 328.582L416.707 322.508C417.082 322.284 417.192 321.994 416.949 321.838L410.043 317.818C409.801 317.684 409.293 317.729 408.918 317.952L398.526 324.026C398.151 324.25 398.063 324.54 398.306 324.674L405.189 328.716Z" fill="#849FDA"/>
<path d="M390.852 337.069C391.095 337.225 391.602 337.158 391.977 336.935L402.391 330.861C402.766 330.637 402.877 330.347 402.612 330.213L395.706 326.193C395.463 326.059 394.956 326.104 394.581 326.327L384.167 332.402C383.792 332.625 383.704 332.915 383.946 333.049L390.852 337.069Z" fill="#849FDA"/>
<path d="M470.718 279.384C470.961 279.54 471.469 279.473 471.844 279.25L482.258 273.176C482.633 272.952 482.721 272.662 482.478 272.528L475.594 268.508C475.352 268.374 474.844 268.419 474.469 268.642L464.055 274.717C463.68 274.94 463.57 275.23 463.813 275.364L470.718 279.384Z" fill="#849FDA"/>
<path d="M456.404 287.737C456.647 287.893 457.155 287.826 457.53 287.603L467.944 281.528C468.319 281.305 468.429 281.015 468.164 280.858L461.28 276.838C461.038 276.704 460.53 276.749 460.155 276.972L449.741 283.047C449.366 283.27 449.278 283.561 449.521 283.695L456.404 287.737Z" fill="#849FDA"/>
<path d="M442.06 296.111C442.303 296.267 442.81 296.2 443.186 295.977L453.577 289.903C453.953 289.679 454.041 289.389 453.798 289.233L446.914 285.213C446.672 285.079 446.164 285.123 445.789 285.347L435.397 291.421C435.022 291.645 434.912 291.935 435.154 292.091L442.06 296.111Z" fill="#849FDA"/>
<path d="M427.742 304.464C427.985 304.62 428.492 304.553 428.867 304.33L439.281 298.255C439.657 298.032 439.767 297.742 439.502 297.585L432.618 293.565C432.376 293.431 431.868 293.476 431.493 293.699L421.079 299.774C420.704 299.997 420.616 300.287 420.858 300.421L427.742 304.464Z" fill="#849FDA"/>
<path d="M413.424 312.816C413.667 312.972 414.174 312.905 414.549 312.682L424.963 306.607C425.338 306.384 425.448 306.094 425.184 305.937L418.3 301.918C418.057 301.784 417.55 301.828 417.175 302.051L406.761 308.126C406.386 308.349 406.297 308.64 406.54 308.774L413.424 312.816Z" fill="#849FDA"/>
<path d="M399.081 321.19C399.324 321.347 399.831 321.28 400.228 321.056L410.642 314.982C411.018 314.759 411.128 314.468 410.863 314.312L403.979 310.292C403.737 310.158 403.229 310.203 402.854 310.426L392.44 316.501C392.065 316.724 391.955 317.014 392.197 317.171L399.081 321.19Z" fill="#849FDA"/>
<path d="M384.764 329.543C385.006 329.699 385.514 329.632 385.889 329.409L396.303 323.334C396.678 323.111 396.788 322.821 396.524 322.664L389.64 318.645C389.397 318.511 388.89 318.555 388.514 318.779L378.101 324.853C377.725 325.076 377.637 325.367 377.88 325.501L384.764 329.543Z" fill="#849FDA"/>
<path d="M499.293 262.702C499.535 262.858 500.043 262.791 500.418 262.568L518.069 252.273C518.444 252.049 518.554 251.759 518.289 251.603L511.406 247.583C511.163 247.449 510.655 247.493 510.28 247.717L492.629 258.012C492.254 258.235 492.144 258.526 492.387 258.682L499.293 262.702Z" fill="#849FDA"/>
<path d="M360.934 332.357C361.176 332.513 361.684 332.446 362.059 332.223L379.71 321.928C380.085 321.704 380.195 321.414 379.93 321.258L373.046 317.238C372.804 317.081 372.274 317.148 371.921 317.372L354.27 327.667C353.895 327.89 353.785 328.181 354.05 328.337L360.934 332.357Z" fill="#849FDA"/>
<path d="M505.409 270.228C505.651 270.384 506.159 270.317 506.534 270.094L527.56 257.811C527.935 257.588 528.046 257.297 527.781 257.141L520.875 253.121C520.632 252.987 520.125 253.032 519.75 253.255L498.723 265.538C498.348 265.761 498.238 266.052 498.481 266.186L505.409 270.228Z" fill="#849FDA"/>
<path d="M521.908 271.68C522.151 271.814 522.658 271.769 523.033 271.546L537.066 263.372C537.441 263.149 537.551 262.858 537.286 262.702L530.403 258.682C530.16 258.548 529.652 258.593 529.277 258.816L515.245 266.99C514.87 267.213 514.76 267.503 515.024 267.66L521.908 271.68Z" fill="#849FDA"/>
<path d="M482.721 261.295C482.963 261.451 483.471 261.384 483.846 261.161L494.238 255.086C494.613 254.863 494.723 254.573 494.458 254.416L487.575 250.397C487.332 250.24 486.824 250.307 486.449 250.531L476.057 256.605C475.682 256.828 475.572 257.119 475.837 257.275L482.721 261.295Z" fill="#849FDA"/>
<path d="M468.447 269.602C468.69 269.759 469.197 269.692 469.572 269.468L479.986 263.394C480.362 263.171 480.472 262.88 480.207 262.724L473.323 258.704C473.081 258.548 472.573 258.615 472.198 258.838L461.784 264.912C461.409 265.136 461.299 265.426 461.563 265.582L468.447 269.602Z" fill="#849FDA"/>
<path d="M454.131 277.977C454.374 278.134 454.881 278.067 455.256 277.843L465.67 271.769C466.045 271.546 466.156 271.255 465.891 271.099L459.007 267.079C458.764 266.923 458.257 266.99 457.882 267.213L447.468 273.288C447.093 273.511 447.004 273.801 447.247 273.935L454.131 277.977Z" fill="#849FDA"/>
<path d="M439.811 286.329C440.053 286.485 440.561 286.418 440.936 286.195L451.328 280.121C451.703 279.897 451.813 279.607 451.548 279.451L444.664 275.431C444.422 275.275 443.914 275.342 443.539 275.565L433.147 281.639C432.772 281.863 432.662 282.153 432.927 282.309L439.811 286.329Z" fill="#849FDA"/>
<path d="M425.492 294.682C425.735 294.838 426.242 294.771 426.617 294.548L437.009 288.473C437.384 288.25 437.495 287.96 437.23 287.803L430.346 283.783C430.103 283.627 429.596 283.694 429.221 283.917L418.829 289.992C418.454 290.215 418.366 290.506 418.608 290.64L425.492 294.682Z" fill="#849FDA"/>
<path d="M411.152 303.056C411.395 303.213 411.902 303.146 412.278 302.922L422.692 296.848C423.067 296.625 423.155 296.334 422.912 296.2L416.028 292.18C415.786 292.024 415.278 292.091 414.903 292.315L404.489 298.389C404.114 298.612 404.004 298.903 404.268 299.037L411.152 303.056Z" fill="#849FDA"/>
<path d="M396.832 311.409C397.075 311.565 397.582 311.498 397.957 311.275L408.371 305.201C408.746 304.977 408.857 304.687 408.592 304.531L401.708 300.511C401.465 300.354 400.958 300.421 400.583 300.645L390.169 306.719C389.794 306.942 389.683 307.233 389.948 307.389L396.832 311.409Z" fill="#849FDA"/>
<path d="M382.512 319.761C382.754 319.917 383.262 319.85 383.637 319.627L394.051 313.553C394.426 313.329 394.514 313.039 394.272 312.905L387.388 308.885C387.145 308.729 386.638 308.796 386.263 309.019L375.849 315.093C375.473 315.317 375.385 315.607 375.628 315.741L382.512 319.761Z" fill="#849FDA"/>
<path d="M374.171 327.153C374.348 327.041 374.546 326.974 374.789 326.952C375.01 326.93 375.186 326.952 375.296 327.019L382.18 331.039C382.291 331.106 382.357 331.217 382.313 331.351C382.269 331.485 382.136 331.597 381.96 331.709L379.246 333.294L388.292 338.587C388.402 338.654 388.446 338.766 388.402 338.9C388.358 339.034 388.226 339.145 388.049 339.257L381.033 343.344C380.856 343.456 380.636 343.523 380.415 343.545C380.195 343.567 380.018 343.545 379.886 343.478L363.492 333.897C363.382 333.83 363.338 333.719 363.382 333.585C363.426 333.451 363.559 333.339 363.735 333.227L374.171 327.153Z" fill="#849FDA"/>
<path d="M523.758 268.285C523.78 268.285 523.825 268.285 523.869 268.262L531.812 263.617C531.856 263.595 531.878 263.573 531.856 263.55L531.348 263.26C531.326 263.26 531.282 263.26 531.238 263.282L523.295 267.927C523.251 267.95 523.229 267.972 523.251 267.994L523.758 268.285Z" fill="#849FDA"/>
<path d="M483.144 337.113L523.388 313.62C525.55 312.347 525.417 310.359 523.079 309.176L509.62 302.409C507.281 301.225 503.596 301.315 501.412 302.565L461.168 326.059C459.006 327.332 459.138 329.319 461.477 330.503L474.936 337.27C477.275 338.453 480.959 338.386 483.144 337.113Z" fill="#9BB1E0"/>
<path opacity="0.34" d="M412.958 226.367L382.819 244.791C374.457 249.905 365.72 245.639 363.448 235.322L360.535 222.235C358.241 211.917 363.227 199.277 371.589 194.163L401.728 175.739C410.09 170.625 418.827 174.89 421.1 185.208L424.012 198.295C426.285 208.612 421.32 221.252 412.958 226.367Z" fill="#E3CFCF"/>
<path d="M409.364 221.789L379.226 240.213C370.864 245.327 362.126 241.062 359.854 230.744L356.942 217.657C354.647 207.34 359.633 194.699 367.995 189.585L398.134 171.161C406.496 166.047 415.233 170.312 417.506 180.63L420.418 193.717C422.713 204.057 417.749 216.675 409.364 221.789Z" fill="#7FCBB4"/>
<path d="M385.603 219.622L381.544 201.377C381.213 199.903 382.272 198.183 383.485 198.183L400.298 198.273C401.644 198.273 402.107 200.372 401.092 201.823L388.317 219.98C387.391 221.297 385.934 221.096 385.603 219.622Z" fill="white"/>
<path opacity="0.34" d="M358.616 222.794L347.209 229.761C340.436 233.915 336.398 244.143 338.251 252.496C340.105 260.848 347.165 264.31 353.96 260.178L365.367 253.21C365.654 253.032 365.941 252.853 366.206 252.652L366.117 252.764L373.641 253.367L371.214 247.181C374.215 242.312 375.539 235.992 374.325 230.476C372.472 222.101 365.411 218.662 358.616 222.794Z" fill="#E3CFCF"/>
<path opacity="0.34" d="M425.537 159.749L412.166 167.923C406.805 171.205 403.628 179.29 405.084 185.9L405.459 187.553C406.937 194.163 412.519 196.888 417.881 193.627L431.251 185.453C436.613 182.171 439.79 174.086 438.334 167.476L437.959 165.823C436.48 159.191 430.876 156.466 425.537 159.749Z" fill="#E3CFCF"/>
<path d="M361.509 253.835L350.103 260.803C343.329 264.957 336.247 261.496 334.393 253.121C332.54 244.769 336.556 234.518 343.351 230.386L354.758 223.419C361.532 219.265 368.614 222.726 370.467 231.101C372.321 239.453 368.283 249.704 361.509 253.835Z" fill="#F37E60"/>
<path d="M362.26 253.389L369.783 253.992L367.356 247.805L362.26 253.389Z" fill="#FF9963"/>
<path d="M347.41 246.308C347.885 244.778 347.393 243.259 346.312 242.915C345.231 242.571 343.97 243.533 343.495 245.062C343.02 246.592 343.511 248.111 344.592 248.455C345.673 248.798 346.935 247.837 347.41 246.308Z" fill="white"/>
<path d="M354.242 242.127C354.717 240.598 354.225 239.079 353.144 238.735C352.063 238.391 350.802 239.352 350.327 240.882C349.852 242.412 350.343 243.931 351.424 244.274C352.505 244.618 353.767 243.657 354.242 242.127Z" fill="white"/>
<path d="M361.198 236.059C361.507 237.466 360.845 239.163 359.697 239.855C358.55 240.548 357.381 239.967 357.072 238.56C356.763 237.153 357.425 235.456 358.572 234.764C359.72 234.071 360.889 234.652 361.198 236.059Z" fill="white"/>
<path d="M433.083 178.642L419.713 186.816C414.351 190.099 408.769 187.352 407.291 180.742L406.916 179.089C405.437 172.479 408.637 164.394 413.998 161.111L427.369 152.938C432.73 149.655 438.312 152.402 439.79 159.012L440.165 160.665C441.622 167.275 438.422 175.359 433.083 178.642Z" fill="#68CCEA"/>
<path d="M410.975 169.441L432.178 156.489" stroke="#FFFAFA" stroke-width="2.4276" stroke-miterlimit="10" stroke-linecap="round" stroke-linejoin="round"/>
<path d="M412.367 175.694L433.57 162.742" stroke="#FFFAFA" stroke-width="2.4276" stroke-miterlimit="10" stroke-linecap="round" stroke-linejoin="round"/>
<path d="M413.752 181.97L428.358 173.037" stroke="#FFFAFA" stroke-width="2.4276" stroke-miterlimit="10" stroke-linecap="round" stroke-linejoin="round"/>
<path opacity="0.34" d="M235.925 410.897C237.741 395.887 219.015 381.215 194.099 378.126C169.183 375.036 147.512 384.699 145.696 399.708C143.879 414.718 162.605 429.39 187.521 432.479C212.437 435.569 234.108 425.906 235.925 410.897Z" fill="#5B78B7"/>
<path d="M184.408 428.997C207.746 427.744 226.069 415.336 225.333 401.283C224.597 387.229 205.08 376.853 181.741 378.105C158.402 379.358 140.079 391.766 140.816 405.82C141.552 419.873 161.069 430.25 184.408 428.997Z" fill="#5672B1"/>
<path d="M183.702 415.575C207.041 414.322 225.364 401.914 224.628 387.861C223.892 373.808 204.375 363.431 181.036 364.684C157.697 365.937 139.374 378.345 140.111 392.398C140.847 406.451 160.364 416.828 183.702 415.575Z" fill="#7B9DE5"/>
<path d="M189.978 369.649L195.45 382.601C195.957 383.785 195.538 385.147 194.479 385.862L178.858 396.135C177.159 397.252 174.909 396.068 174.82 394.036L174.114 377.956C174.07 377.018 174.533 376.125 175.306 375.634L186.139 368.51C187.507 367.594 189.338 368.152 189.978 369.649Z" fill="#7694D4"/>
<path d="M185.678 365.249L179.941 362.413L166.946 371.1L165.313 389.078C165.225 390.038 165.622 390.998 166.372 391.601L168.843 393.611C171.248 395.576 174.8 393.745 174.668 390.619L174.05 376.415L185.876 368.621C187.156 367.817 187.045 365.919 185.678 365.249Z" fill="#5D7BBD"/>
<path d="M175.549 239.205L138.35 301.512L179.564 367.996" stroke="#5877B8" stroke-width="14.5657" stroke-miterlimit="10" stroke-linecap="round" stroke-linejoin="round"/>
<path d="M165.309 234.292L127.271 303.031L171.663 373.356" stroke="#5877B8" stroke-width="14.5657" stroke-miterlimit="10" stroke-linecap="round" stroke-linejoin="round"/>
<path d="M136.785 235.811L164.563 253.654C172.043 258.456 182.06 256.2 186.804 248.629L187.289 247.87C192.033 240.299 189.804 230.183 182.325 225.381L154.547 207.538C147.067 202.736 137.05 204.992 132.307 212.563L131.821 213.322C127.055 220.87 129.306 230.987 136.785 235.811Z" fill="#7694D4"/>
<path opacity="0.68" d="M150.241 213.903L166.745 223.729C167.561 224.22 168.642 223.93 169.128 223.104C169.613 222.277 169.326 221.183 168.51 220.692L152.007 210.865C151.19 210.374 150.109 210.664 149.624 211.491C149.138 212.339 149.425 213.411 150.241 213.903Z" fill="#B7CDFE"/>
<path opacity="0.68" d="M141.616 220.133L158.12 229.959C158.936 230.451 160.017 230.16 160.503 229.334C160.988 228.508 160.701 227.413 159.885 226.922L143.382 217.096C142.565 216.604 141.484 216.895 140.999 217.721C140.513 218.57 140.8 219.642 141.616 220.133Z" fill="#B7CDFE"/>
<path opacity="0.68" d="M137.999 230.674L154.503 240.5C155.319 240.991 156.4 240.701 156.886 239.875C157.371 239.048 157.084 237.954 156.268 237.463L139.764 227.637C138.948 227.145 137.867 227.436 137.382 228.262C136.896 229.088 137.183 230.182 137.999 230.674Z" fill="#B7CDFE"/>
<path d="M212.136 267.512C224.791 248.927 230.682 230.814 225.294 227.055C219.906 223.296 205.279 235.315 192.624 253.9C179.97 272.485 174.079 290.598 179.467 294.357C184.855 298.115 199.481 286.096 212.136 267.512Z" fill="#8EA8E0"/>
<path d="M175.508 291.217L165.888 280.051C154.04 266.272 153.445 245.95 164.476 231.523C174.581 218.28 192.034 213.233 207.544 219.017L221.864 224.376L175.508 291.217Z" fill="#88A5E5"/>
<path d="M208.7 264.809C221.355 246.224 227.246 228.111 221.858 224.352C216.47 220.594 201.844 232.613 189.189 251.198C176.534 269.783 170.643 287.896 176.031 291.654C181.419 295.413 196.046 283.394 208.7 264.809Z" fill="#5877B8"/>
<path d="M211.07 248.428C210.96 255.307 208.467 265.401 195.869 269.8C190.419 271.699 184.991 266.763 186.492 261.135C188.477 253.609 194.302 245.101 200.723 241.796C205.51 239.339 211.159 243.024 211.07 248.428Z" fill="#C7D8FB"/>
<path d="M189.183 251.22C201.847 232.639 216.475 220.602 221.859 224.354C222.874 225.046 223.47 226.252 223.734 227.883C216.873 229.379 205.267 240.143 194.986 255.262C184.704 270.381 178.879 285.165 179.96 292.178C178.372 292.513 177.048 292.379 176.033 291.664C170.627 287.912 176.54 269.8 189.183 251.22Z" fill="#B7CDFE"/>
<path d="M140.691 296.957L126.217 304.46C124.496 305.354 123.9 307.565 124.937 309.217L131.865 320.249C132.505 321.254 133.785 321.589 134.822 321.031L149.538 312.924C150.774 312.254 151.171 310.669 150.421 309.485L142.985 297.627C142.522 296.8 141.507 296.532 140.691 296.957Z" fill="#7B9DE5"/>
<path d="M127.144 303.969L125.445 304.974C124.187 305.711 123.79 307.364 124.584 308.614L131.799 320.093C132.483 321.165 133.851 321.522 134.954 320.919L137.712 319.401L127.144 303.969Z" fill="#5D7BBD"/>
<path d="M307.304 441.601L362.64 455.246L374.62 463.017L377.952 465.452C378.371 465.764 378.636 466.256 378.658 466.792C378.702 467.551 378.724 468.199 378.415 468.399L308.452 510.697C308.231 510.831 307.988 510.876 307.724 510.876C301.546 510.876 305.606 441.377 307.304 441.601Z" fill="#A6603B"/>
<path d="M309.204 506.834L373.122 468.154C373.982 467.64 374.379 461.075 373.497 460.583L281.558 408.058C281.161 407.834 280.653 407.834 280.256 408.08L210.734 449.574C209.874 450.087 209.896 451.338 210.756 451.829L306.732 506.878C307.836 507.437 308.806 507.057 309.204 506.834Z" fill="#A6603B"/>
<path d="M310.349 506.119L376.054 466.323C372.613 460.137 372.833 455.224 374.775 446.336L312.225 485.819C309.533 493.256 308.341 500.894 310.349 506.119Z" fill="#FFFAFA"/>
<path d="M209.939 432.355L212.697 432.333V432.444L280.124 392.224C280.521 391.978 281.006 391.978 281.425 392.201L376.629 446.603V446.023L378.417 446L378.439 448.166H378.417C378.505 448.68 378.306 449.216 377.799 449.529L308.277 491.022C307.88 491.268 307.394 491.268 306.975 491.045L210.623 435.995C210.204 435.75 210.006 435.348 209.984 434.946L209.939 432.355Z" fill="#C27750"/>
<path d="M307.303 456.653C307.7 456.407 376.626 446.581 376.626 446.581V446L378.413 445.219L378.435 448.144H378.413C378.502 448.658 378.303 449.194 377.796 449.506L308.273 491C308.075 491.112 305.957 492.563 305.714 492.563C305.493 492.541 307.303 456.653 307.303 456.653Z" fill="#A6603B"/>
<path d="M308.231 487.695L377.753 446.201C378.614 445.688 378.592 444.437 377.731 443.946L281.755 389.097C281.358 388.874 280.277 388.807 279.879 389.03L210.578 430.368C209.717 430.881 209.739 432.132 210.6 432.623L306.951 487.672C307.348 487.94 307.834 487.918 308.231 487.695Z" fill="#FFAC80"/>
<path d="M308.232 487.695L314.63 483.876L216.094 427.084L210.556 430.39C209.696 430.903 209.718 432.154 210.578 432.645L306.93 487.695C307.349 487.94 307.834 487.918 308.232 487.695Z" fill="#FFB994"/>
<path d="M312.206 482.603L217.156 427.866" stroke="#C77347" stroke-width="2.4276" stroke-miterlimit="10" stroke-linecap="round" stroke-linejoin="round"/>
<path d="M307.703 487.873C304.547 498.615 305.805 507.325 307.394 510.809L210.116 455.536C210.116 455.536 204.909 441.601 209.807 431.797L307.703 487.873Z" fill="#E38B5D"/>
<path d="M250.819 430.01L288.151 408.214C290.159 407.052 289.894 404.975 287.577 403.636C285.261 402.296 281.73 402.139 279.723 403.301L242.391 425.097C240.383 426.258 240.648 428.335 242.965 429.675C245.281 431.037 248.812 431.171 250.819 430.01Z" fill="#FFDCC9"/>
<path d="M335.057 434.812C333.689 434.008 331.571 433.918 330.379 434.611L290.334 458.015C289.143 458.707 289.297 459.936 290.665 460.74C292.033 461.544 294.151 461.633 295.343 460.941L335.41 437.536C336.601 436.844 336.447 435.616 335.057 434.812Z" fill="#FFDCC9"/>
<path d="M349.95 443.723C348.582 442.919 346.464 442.829 345.273 443.522L305.205 466.926C304.014 467.618 304.168 468.847 305.536 469.651C306.904 470.455 309.022 470.544 310.214 469.852L350.281 446.447C351.472 445.755 351.318 444.527 349.95 443.723Z" fill="#FFDCC9"/>
<path opacity="0.34" d="M290.357 447.899C303.2 447.899 313.612 443.199 313.612 437.402C313.612 431.606 303.2 426.906 290.357 426.906C277.513 426.906 267.102 431.606 267.102 437.402C267.102 443.199 277.513 447.899 290.357 447.899Z" fill="#6E5487"/>
<path d="M297.639 401.157L287.821 397.137C287.292 396.914 286.784 396.691 286.277 396.423C285.791 396.177 285.328 395.976 284.843 395.82C284.799 395.797 284.754 395.797 284.71 395.775C284.313 395.641 283.938 395.552 283.541 395.462C275.51 393.72 265.625 394.658 260.308 403.703C255.388 412.078 257.793 422.596 257.793 422.596C259.381 430.993 266.706 440.127 267.457 440.44C267.457 440.44 271.781 443.767 275.002 444.839C276.789 445.442 280.099 446.09 284.115 446.313C295.213 446.961 300.089 438.363 303.266 432.02C304.523 429.474 313.922 407.41 297.639 401.157Z" fill="#E46681"/>
<path d="M297.836 401.135L288.018 397.137C287.488 396.914 286.981 396.691 286.473 396.423C285.988 396.177 285.524 395.976 285.039 395.82C284.995 395.797 284.951 395.797 284.907 395.775C284.509 395.641 284.134 395.552 283.737 395.462C282.193 395.127 280.582 394.882 278.949 394.792L287.201 398.164C303.484 404.395 293.931 426.415 292.805 429.028C286.297 444.259 271.911 443.611 273.676 444.504C278.221 446.782 280.273 446.067 284.289 446.313C295.387 446.961 300.263 438.363 303.44 432.02C304.72 429.452 314.119 407.388 297.836 401.135Z" fill="#E3758C"/>
<path d="M284.289 405.512C282.899 406.316 280.649 406.316 279.259 405.512C277.869 404.708 277.847 403.39 279.237 402.564C280.627 401.76 282.877 401.76 284.267 402.564C285.679 403.39 285.679 404.708 284.289 405.512Z" fill="#E3758C"/>
<path d="M281.842 403.658C281.798 403.39 281.004 396.936 285.946 394.033" stroke="#463757" stroke-width="3.7569" stroke-miterlimit="10" stroke-linecap="round" stroke-linejoin="round"/>
<path d="M266.727 407.321C266.727 407.946 266.22 408.459 265.602 408.459C264.984 408.459 264.477 407.946 264.477 407.321C264.477 406.695 264.984 406.182 265.602 406.182C266.242 406.182 266.727 406.695 266.727 407.321Z" fill="#FA909C"/>
<path d="M271.934 409.599C271.934 410.224 271.427 410.738 270.809 410.738C270.191 410.738 269.684 410.224 269.684 409.599C269.684 408.973 270.191 408.46 270.809 408.46C271.427 408.46 271.934 408.951 271.934 409.599Z" fill="#FA909C"/>
<path d="M267.872 412.77C267.872 413.395 267.364 413.909 266.746 413.909C266.129 413.909 265.621 413.395 265.621 412.77C265.621 412.145 266.129 411.631 266.746 411.631C267.364 411.631 267.872 412.145 267.872 412.77Z" fill="#FA909C"/>
<path d="M263.749 414.825C263.749 415.45 263.241 415.964 262.623 415.964C262.006 415.964 261.498 415.45 261.498 414.825C261.498 414.199 262.006 413.686 262.623 413.686C263.241 413.686 263.749 414.199 263.749 414.825Z" fill="#FA909C"/>
<path d="M268.958 417.103C268.958 417.728 268.45 418.242 267.832 418.242C267.214 418.242 266.707 417.728 266.707 417.103C266.707 416.477 267.214 415.964 267.832 415.964C268.45 415.964 268.958 416.455 268.958 417.103Z" fill="#FA909C"/>
<path d="M224.657 440.306C224.657 440.306 224.083 457.479 228.54 466.01L239.947 472.487C239.947 472.487 235.159 453.08 235.843 446.715L224.657 440.306Z" fill="#FFFAFA"/>
<path d="M313.613 493.323L373.383 456.698" stroke="#BFB1A8" stroke-width="2.4276" stroke-miterlimit="10" stroke-linecap="round" stroke-linejoin="round"/>
<path d="M314.207 498.526L373.977 461.901" stroke="#BFB1A8" stroke-width="2.4276" stroke-miterlimit="10" stroke-linecap="round" stroke-linejoin="round"/>
<path opacity="0.15" d="M482.903 333.554C485.785 333.554 488.828 333.074 491.55 334.035C490.75 334.035 489.789 334.035 488.988 334.035C492.191 334.835 495.394 335.476 498.116 337.077C500.518 338.358 502.6 340.12 504.522 341.882C514.771 351.01 522.298 362.7 532.707 371.348C540.074 377.433 548.721 383.198 558.33 383.198C566.177 383.198 573.704 379.195 578.508 373.109C584.914 364.782 586.675 353.092 594.843 346.366C599.327 342.842 604.932 341.401 609.896 338.519C613.74 336.437 617.263 332.433 616.302 328.269C615.341 324.266 610.857 322.344 606.853 321.063C596.444 317.7 584.914 314.337 574.665 310.974C567.778 308.732 560.572 307.291 553.205 306.97C548.721 306.65 544.237 306.81 539.753 306.17C537.031 305.689 534.309 305.049 531.586 304.248C526.301 302.807 521.017 300.885 515.892 298.803C513.65 297.842 511.088 296.561 510.127 294.319C505.323 281.508 524.219 277.344 532.867 278.305C541.195 279.266 548.721 282.949 556.408 286.312C573.864 293.839 592.12 299.283 610.857 302.646C630.875 306.17 652.014 307.611 669.63 317.7C674.594 320.582 679.558 324.426 680.679 330.031C682.601 339.64 673.473 348.608 671.231 357.415C669.149 366.223 669.63 375.351 669.469 384.48C669.309 393.608 668.509 402.896 663.864 410.743C663.384 411.704 667.641 439.699 667 440.5L608.5 476.5C606.578 476.18 595.804 448.537 593.882 447.896C582.031 443.572 570.501 438.448 558.971 433.163C558.33 432.843 557.85 432.683 557.209 432.362C544.398 426.437 533.988 419.711 525.821 408.021C514.291 391.686 505.323 373.109 489.949 360.458C484.664 356.134 478.419 352.291 475.536 346.205C474.255 343.483 473.614 339.96 475.216 337.398C476.817 334.835 480.02 333.554 482.903 333.554Z" fill="#9E9EA4"/>
<path d="M613.097 240.191C613.417 240.831 613.577 241.632 613.897 242.272C618.061 252.041 624.787 260.689 632.634 268.056C634.876 270.137 637.118 272.059 640.001 272.7C643.844 273.661 648.328 272.059 651.691 273.981C653.133 274.782 654.254 276.223 655.695 277.344C657.136 278.465 659.058 279.105 660.499 278.145C661.46 277.504 661.94 276.543 662.741 275.742C665.303 273.18 669.627 274.942 672.83 276.863C674.111 277.664 675.392 278.465 676.674 279.266C680.677 281.988 684.521 285.031 687.723 288.554C689.485 290.476 691.086 292.557 693.168 293.999C695.25 295.44 698.133 296.081 700.535 294.96C701.336 294.479 702.136 293.839 702.937 293.358C703.898 292.878 704.859 292.557 705.98 292.397C706.941 292.237 708.062 292.237 709.022 292.077C714.467 291.597 720.233 290.315 723.435 285.992C723.916 285.191 724.396 284.39 724.877 283.589C725.517 282.629 725.998 281.508 726.959 280.867C728.24 279.906 730.161 279.586 731.603 278.625C734.325 276.543 736.247 273.661 737.528 270.298C738.969 266.294 741.175 263.581 743 259C743.847 256.873 744.001 256.121 744.001 255C744.481 247.153 743.241 239.027 740.999 231.5C737.957 219.649 731.11 208.507 721.501 200.5C717.017 196.657 713.017 192.32 707.892 189.438C704.369 187.356 699.505 186.141 695.501 185.5C693.419 185.18 691.923 185.141 690.001 184.5C685.197 183.059 680.305 178.359 675.501 179C674.22 179.16 671.782 179.656 670.501 179.817C666.337 180.457 664.184 177.582 660.501 175.5C656.177 173.098 648.969 173.091 645.766 177.094C644.805 178.215 643.942 179.176 642.501 179.817C640.419 180.777 639.083 179.336 637.001 179.817C635.4 180.137 633.435 181.898 632.154 182.859C629.431 184.781 625.748 184.14 623.026 185.742C620.143 187.503 617.901 192.628 616.139 195.35C608.773 208.642 607.652 225.938 613.097 240.191Z" fill="#3D3D3D"/>
<path d="M623.187 185.582C625.909 183.98 629.432 187.504 632.155 185.582C633.436 184.621 634.717 180.297 636.318 179.977C638.56 179.496 640.802 181.098 642.884 180.297C644.326 179.657 644.966 178.215 645.927 176.934C649.13 173.091 655.376 173.571 659.699 175.973C663.383 178.055 667.066 181.258 671.23 180.617C672.511 180.457 673.792 179.817 675.073 179.657C680.038 179.016 684.041 183.5 688.685 184.941C690.607 185.422 692.689 185.422 694.771 185.902C698.774 186.543 702.458 188.625 705.981 190.706C711.105 193.749 716.07 196.792 720.714 200.475C730.323 208.482 737.209 219.532 740.572 231.543C742.654 239.07 744.095 246.917 743.614 254.764C743.614 255.885 743.294 257.006 743.134 258.127C747.298 256.846 750.821 253.643 753.063 249.959C755.785 245.475 756.746 240.191 756.906 234.906C757.707 219.052 751.622 203.037 740.732 191.507C738.17 188.785 735.287 186.383 732.885 183.5C729.362 179.496 726.799 174.692 723.116 170.849C720.234 167.966 716.871 165.564 713.187 163.802C699.895 157.717 684.522 161.881 669.788 162.521C665.625 162.681 661.301 162.681 657.137 163.802C654.255 164.603 651.532 166.205 648.489 167.165C644.966 168.286 641.283 168.767 638.08 170.368C635.998 171.329 634.076 172.77 632.155 174.052C629.112 176.294 625.909 178.536 624.148 181.738C623.667 183.02 623.187 184.301 623.187 185.582Z" fill="#434343"/>
<path d="M660.501 294.96C664.985 296.881 668.988 299.604 672.031 303.447C675.074 307.291 676.515 312.575 675.234 317.22C676.835 317.54 678.437 318.02 680.038 318.18C683.882 318.821 687.885 318.661 691.889 318.341C693.17 318.18 694.611 318.18 695.892 317.7C699.736 316.419 701.657 312.415 704.38 309.853C705.981 308.251 708.063 307.611 710.305 307.131C711.907 306.65 714.629 306.33 715.91 305.209C716.07 305.049 716.23 304.888 716.391 304.728C715.109 303.767 713.828 302.646 712.707 301.365C712.227 300.885 711.746 300.244 711.266 299.764C709.344 297.522 707.743 295.12 706.462 292.557C705.341 292.718 704.38 293.038 703.419 293.518C702.618 293.999 701.818 294.639 701.017 295.12C698.775 296.241 695.892 295.6 693.65 294.159C691.568 292.718 689.967 290.636 688.205 288.714C685.003 285.191 681.159 282.148 677.156 279.426C677.796 280.867 678.437 282.468 678.437 283.91C678.597 286.632 677.796 289.355 675.874 291.116C673.953 292.878 670.75 293.358 668.508 291.917C668.348 293.038 667.067 293.678 665.946 293.999C663.864 294.479 662.262 294.799 660.501 294.96Z" fill="#E4A387"/>
<path d="M633.595 405.298C636.157 409.782 640.481 413.305 645.125 415.708C649.609 417.95 654.574 419.711 657.617 423.715C658.097 424.355 658.417 424.836 658.738 425.476C659.378 426.757 659.859 427.878 660.339 429.16C662.101 433.644 664.022 438.128 665.784 442.452C667.866 447.736 670.108 453.021 670.268 458.786C670.268 460.388 670.268 462.309 671.229 463.59C672.19 464.872 673.631 465.352 675.232 465.832C683.72 468.235 692.848 468.715 701.496 467.274C709.823 465.832 717.19 462.309 724.236 457.825C729.521 454.462 734.806 451.099 739.61 447.096C743.293 444.053 747.297 440.69 748.258 435.886C748.418 435.405 748.418 434.925 748.418 434.444C748.578 431.402 748.418 427.878 748.258 424.836C747.937 420.832 747.457 416.829 747.457 412.665C747.457 407.861 748.418 403.857 749.539 399.373C751.941 389.764 752.742 378.715 751.781 368.946C750.66 356.775 746.336 344.764 747.937 332.753C748.578 327.148 750.66 321.704 751.941 316.259C753.222 310.814 754.023 304.888 752.261 299.444C750.179 293.198 744.895 288.394 738.809 285.992C734.485 284.23 729.681 283.589 724.877 283.75C724.396 284.55 724.076 285.351 723.435 286.152C720.233 290.476 714.307 291.917 709.023 292.237C708.062 292.397 706.941 292.397 705.98 292.557C707.261 295.12 708.862 297.682 710.784 299.764C712.866 300.084 715.108 300.725 717.03 301.525C718.311 302.166 719.752 302.807 720.553 304.088C721.514 305.209 721.834 306.97 721.193 308.252C720.233 310.333 717.51 310.654 715.268 311.134C712.546 311.775 709.983 313.216 708.062 315.298C706.62 316.899 705.339 318.821 703.738 320.262C700.695 322.985 696.051 323.145 692.207 323.145C687.243 323.145 682.439 321.704 677.474 321.063C674.752 320.583 672.029 320.422 669.307 321.223C667.706 321.704 666.264 322.504 664.823 323.465C664.663 324.266 664.343 325.067 664.022 325.707C663.222 326.828 661.94 327.309 660.98 328.269C660.659 328.59 660.499 328.75 660.339 329.07C659.698 330.031 659.378 331.152 658.738 332.113C657.937 333.394 656.656 334.515 655.695 335.956C654.734 337.398 653.933 338.999 653.133 340.6C659.058 338.198 665.143 336.437 671.389 336.597C679.076 336.757 687.243 340.12 691.247 346.686C693.489 350.529 694.289 355.013 694.93 359.497C695.25 361.579 695.41 363.661 695.09 365.583C694.77 367.665 693.809 369.746 692.688 371.508C689.485 377.273 684.841 382.558 678.595 384.96C675.873 386.081 672.99 386.562 670.108 387.202C664.663 388.483 660.179 391.526 655.535 394.248C649.77 397.611 643.684 400.334 637.599 403.056C636.478 403.697 635.036 404.498 633.595 405.298Z" fill="#E97084"/>
<path d="M581.872 415.708C583.954 420.672 586.516 425.957 591.32 428.359C593.402 429.48 595.644 429.8 598.046 430.12C602.53 427.078 606.854 424.035 611.338 420.992C613.58 419.391 615.982 417.789 618.224 416.028C623.189 412.345 628.313 408.501 633.758 405.298C635.199 404.498 636.641 403.697 638.082 403.056C644.167 400.334 650.413 397.611 656.018 394.248C660.662 391.366 665.146 388.483 670.591 387.202C673.474 386.562 676.356 386.081 679.079 384.96C685.164 382.558 689.808 377.273 693.171 371.508C694.292 369.586 695.253 367.665 695.573 365.583C695.894 363.501 695.734 361.419 695.413 359.497C694.773 355.013 694.132 350.529 691.73 346.686C687.726 340.12 679.719 336.597 671.872 336.597C665.627 336.437 659.381 338.198 653.616 340.6C652.815 342.202 651.854 343.803 650.733 345.084C649.292 346.846 647.53 348.447 645.769 349.729C642.566 352.291 639.043 354.213 636 356.775C633.118 359.177 630.075 361.259 626.712 362.86C619.986 366.223 612.619 368.625 605.893 371.989C596.285 376.793 586.996 382.398 577.708 387.683C577.708 388.003 577.548 388.163 577.548 388.483C575.146 397.611 578.349 407.06 581.872 415.708Z" fill="#FDE797"/>
<path d="M571.459 395.69C571.459 402.095 572.1 408.661 574.182 414.747C575.463 418.59 577.224 422.113 579.626 425.316C580.107 425.957 580.587 426.757 581.228 427.398C582.349 428.679 583.47 429.8 584.591 430.921C586.353 432.523 588.595 433.964 590.997 433.804C592.598 433.644 594.2 432.683 595.641 431.722C596.442 431.242 597.242 430.601 598.043 430.121C595.801 429.96 593.399 429.48 591.317 428.359C586.513 425.957 583.95 420.672 581.869 415.708C578.345 407.06 575.142 397.451 577.224 388.323C577.224 388.003 577.385 387.843 577.385 387.522C577.064 387.683 576.584 388.003 576.264 388.163C574.662 389.124 572.74 390.245 571.94 392.006C571.779 392.167 571.779 392.487 571.779 392.647C571.459 393.608 571.459 394.729 571.459 395.69Z" fill="#E97084"/>
<path d="M611.495 253.002C612.456 254.283 613.898 255.244 615.339 256.045C616.46 256.685 617.741 257.326 618.542 258.447C619.503 259.888 618.862 262.13 618.862 263.732C618.862 265.814 618.862 267.895 619.182 269.817C619.663 273.02 620.784 276.063 622.866 278.465C623.186 278.785 623.506 279.266 623.827 279.746C624.627 281.027 624.307 282.789 624.948 284.23C625.588 285.671 626.229 287.433 627.51 288.554C629.111 289.995 631.353 290.636 633.435 291.276C635.037 291.757 636.638 292.077 638.239 292.397C641.282 293.038 644.325 293.358 647.368 293.999C651.691 294.96 656.175 295.44 660.499 294.96C662.261 294.799 663.862 294.479 665.464 294.159C666.585 293.839 667.866 293.358 668.026 292.077C670.268 293.518 673.471 293.038 675.393 291.276C677.314 289.515 678.275 286.632 677.955 284.07C677.795 282.468 677.314 281.027 676.674 279.586C675.393 278.785 674.111 277.984 672.83 277.184C669.788 275.262 665.304 273.661 662.741 276.063C661.941 276.863 661.46 277.984 660.499 278.465C659.058 279.426 656.976 278.785 655.695 277.664C654.254 276.543 653.133 275.102 651.691 274.301C648.168 272.379 643.844 273.821 640.001 273.02C637.118 272.379 634.716 270.298 632.634 268.376C624.787 261.009 618.061 252.362 613.898 242.593C613.257 243.554 612.617 244.515 611.816 245.475C611.175 246.436 610.375 247.557 610.214 248.678C609.894 249.959 610.535 251.721 611.495 253.002Z" fill="#EBAA8F"/>
<path d="M508.522 288.234C508.682 285.191 508.682 282.308 508.842 279.266C508.842 278.145 509.003 277.024 509.323 275.903C510.444 273.34 513.487 272.379 516.209 271.739C520.533 270.618 525.017 269.497 529.661 269.817C532.383 269.977 534.946 270.618 537.508 271.258C541.512 272.219 545.515 273.18 549.519 274.621C555.124 276.703 560.569 279.586 566.174 281.508C578.825 285.992 592.597 285.831 605.569 287.913C616.459 289.675 627.348 291.437 638.238 292.237C641.281 292.878 644.324 293.198 647.366 293.839C651.69 294.8 656.174 295.28 660.498 294.8C664.982 296.721 668.986 299.444 672.028 303.287C675.071 307.131 676.512 312.415 675.231 317.059C674.27 316.899 673.47 316.739 672.509 316.739C669.947 316.739 667.224 317.7 666.103 320.102C665.623 321.063 665.463 322.184 665.302 323.145C665.142 323.946 664.822 324.746 664.502 325.387C663.701 326.508 662.42 326.988 661.459 327.949C661.139 328.269 660.979 328.43 660.818 328.75C648.968 324.106 636.797 319.782 624.626 316.259C610.053 312.095 595.32 308.091 580.747 303.928C575.462 302.486 570.177 300.885 564.572 301.205C561.369 301.365 558.327 302.166 555.124 302.326C546.156 302.967 537.348 299.284 528.38 299.444C524.697 299.444 520.693 299.924 517.971 297.682C517.01 296.881 515.729 295.6 514.608 296.081C514.287 296.241 514.127 296.401 513.807 296.561C513.326 296.561 513.006 296.241 512.686 296.081C511.084 294.639 509.323 293.038 508.842 290.956C508.362 290.155 508.522 289.194 508.522 288.234ZM522.775 289.995C524.857 289.355 527.099 289.675 529.341 289.835C531.583 289.995 533.985 289.995 535.907 289.195C533.505 287.593 530.622 286.632 527.739 286.312C527.099 286.312 526.458 286.152 525.818 286.472C525.017 286.792 524.536 287.593 523.896 288.073C523.415 288.394 522.935 288.554 522.455 288.714C521.654 288.874 520.853 288.554 520.693 287.753C520.693 287.593 520.693 287.433 520.693 287.113C520.533 286.312 519.572 285.831 518.931 286.312C518.291 286.632 518.131 287.593 518.131 288.234C517.971 289.355 517.971 290.636 517.81 291.757C519.572 291.597 521.013 290.476 522.775 289.995Z" fill="#F6B599"/>
<path d="M712.386 301.365C713.507 302.647 714.788 303.607 716.07 304.728C717.351 302.967 714.308 301.846 712.386 301.365Z" fill="#9C2D33"/>
<path d="M665.144 323.305C666.425 322.344 668.027 321.543 669.628 321.063C672.19 320.262 675.073 320.583 677.795 320.903C682.6 321.704 687.564 322.985 692.528 322.985C696.372 322.985 701.016 322.825 704.059 320.102C705.66 318.661 706.781 316.739 708.383 315.138C710.304 313.056 712.867 311.615 715.589 310.974C717.831 310.494 720.554 310.173 721.514 308.091C722.155 306.81 721.835 305.209 720.874 303.928C719.913 302.807 718.632 302.006 717.351 301.365C715.429 300.405 713.187 299.924 711.105 299.604C711.586 300.084 712.066 300.725 712.546 301.205C714.308 301.686 717.511 302.807 716.23 304.568C716.07 304.728 716.07 304.889 715.749 305.049C714.468 306.33 711.746 306.65 710.144 306.97C708.062 307.451 705.981 308.091 704.219 309.693C701.496 312.255 699.415 316.259 695.731 317.54C694.45 318.02 693.009 318.18 691.728 318.18C687.724 318.501 683.721 318.821 679.877 318.02C678.276 317.7 676.674 317.22 675.073 317.059C674.112 316.899 673.311 316.739 672.35 316.739C669.788 316.739 667.066 317.7 665.945 320.102C665.464 321.223 665.464 322.344 665.144 323.305Z" fill="#FDE797"/>
<path d="M476.655 338.358C476.975 338.358 477.456 338.198 477.776 338.358C478.256 338.519 478.416 339.319 478.577 339.8C478.737 341.401 478.897 343.003 479.057 344.604C479.217 345.725 479.377 346.846 479.858 347.647C480.338 348.608 481.459 349.248 482.42 349.248C483.381 349.088 484.182 348.287 484.502 347.326C484.822 346.366 484.662 345.405 484.662 344.284C484.662 343.963 484.662 343.483 484.822 343.323C485.142 342.842 485.783 343.163 486.263 343.323C491.068 346.045 493.95 351.81 498.915 354.052C500.837 354.853 502.918 355.334 504.84 356.134C507.242 357.095 509.164 358.857 510.926 360.618C513.648 363.341 514.769 366.864 516.37 370.067C518.773 375.031 521.655 379.836 524.538 384.64C532.225 397.451 541.032 409.622 550.641 420.992C553.043 423.875 555.605 426.757 558.968 428.359C562.492 429.96 566.655 429.96 570.499 429C573.702 428.199 576.584 426.758 579.627 425.316C577.225 422.113 575.463 418.43 574.182 414.747C572.1 408.661 571.3 402.095 571.46 395.69C571.46 394.729 571.46 393.608 571.78 392.647C571.139 392.807 570.339 392.647 569.698 392.487C568.417 392.006 567.456 391.206 566.495 390.245C556.246 380.636 547.278 369.907 538.15 359.177C537.029 357.736 535.908 356.455 534.627 355.013C533.185 353.252 531.744 351.49 530.463 349.568C530.303 349.248 529.983 348.928 529.983 348.447C529.983 347.967 530.143 347.647 530.303 347.166C532.385 341.882 529.822 337.237 526.78 333.074C525.819 331.793 524.698 330.351 523.417 329.23C521.815 327.949 519.894 327.148 518.132 326.188C512.047 323.145 506.762 318.341 500.676 315.138C499.555 314.497 498.274 314.017 496.993 313.536C494.11 312.736 490.587 313.056 488.345 314.978C487.705 315.618 487.064 316.259 486.424 316.899C484.502 318.661 481.779 319.301 479.858 321.063C478.096 322.664 477.295 325.387 477.776 327.789C477.936 328.269 477.936 328.59 477.936 329.07C477.936 329.551 477.616 330.031 477.295 330.511C476.335 331.953 475.534 333.714 475.214 335.476C475.214 336.757 475.374 338.198 476.655 338.358Z" fill="#F6B599"/>
<path d="M801 543.532L645.871 543.242C646.026 540.607 646.511 537.145 647.107 534.51L675.436 413.401C680.555 391.471 696.198 369.54 714.533 358.53L801 306.719V543.532Z" fill="#6683C2"/>
<path d="M800.997 541.716H691.209L708.882 428.156C716.604 395.126 763.158 374.223 790.782 357.675L800.997 352.025V541.716Z" fill="#5B78B7"/>
<path d="M733.754 459.533C733.754 459.533 771.637 469.761 800.761 484.367V465.004C785.515 457.724 763.363 452.722 733.754 459.533Z" fill="#7FCBB4"/>
<path d="M801 404.617C789.947 387.578 779.511 375.094 779.511 375.786C779.753 394.277 786.13 414.533 794.006 432.622C777.37 416.632 750.651 398.856 716.387 402.63C716.387 402.63 766.339 423.086 800.978 453.592V404.617H801Z" fill="#7FCBB4"/>
<path d="M800.759 503.26V480.816C779.49 474.942 751.579 475.054 722.588 496.94C722.588 496.917 764.42 496.873 800.759 503.26Z" fill="#7FCBB4"/>
</g>
<defs>
<clipPath id="clip0_101_311">
<rect width="800" height="518" fill="white"/>
</clipPath>
<clipPath id="clip1_101_311">
<rect width="308.709" height="122.575" fill="white" transform="translate(475.627 420.669)"/>
</clipPath>
</defs>
</svg>
