<svg width="297" height="318" viewBox="0 0 297 318" fill="none" xmlns="http://www.w3.org/2000/svg">
<path d="M186.485 0C179.884 0 174.484 5.40008 174.484 12.0002V27.3604H198.485C198.485 27.3604 198.485 15.1202 198.485 12.0002C198.365 5.40008 193.085 0 186.485 0ZM186.485 18.8403C182.764 18.8403 179.764 15.8402 179.764 12.1202C179.764 8.40012 182.764 5.40008 186.485 5.40008C190.205 5.40008 193.205 8.40012 193.205 12.1202C193.205 15.8402 190.205 18.8403 186.485 18.8403Z" fill="#F37E60"/>
<g opacity="0.45">
<path d="M193.205 12.1206C193.205 8.40058 190.205 5.40054 186.485 5.40054C186.125 5.40054 185.765 5.40054 185.525 5.52054C186.485 5.16053 186.605 4.92053 188.285 4.92053C192.005 4.92053 195.005 7.92057 195.005 11.6406C195.005 15.0007 193.325 16.8007 190.685 17.5207C192.005 16.2007 193.205 14.1607 193.205 12.1206ZM178.084 25.8008V10.4406C178.084 6.24055 179.884 2.6405 183.125 0.480469C178.084 1.92049 174.484 6.48055 174.484 12.0006V27.3608H198.485C198.485 27.3608 198.485 26.7608 198.485 25.8008H178.084Z" fill="#B03D44"/>
</g>
<path d="M285.356 347.408H82.9136C76.4335 347.408 71.2734 342.128 71.2734 335.767V39.8433C71.2734 33.3632 76.5535 28.2031 82.9136 28.2031H285.356C291.837 28.2031 296.997 33.4832 296.997 39.8433V335.767C297.117 342.128 291.837 347.408 285.356 347.408Z" fill="#84A2E3"/>
<path d="M284.05 40.6797H84.3672V334.924H284.05V40.6797Z" fill="#ACC3F6"/>
<path d="M276.37 49.6836H92.0469V325.927H276.37V49.6836Z" fill="white"/>
<path d="M256.806 33.481V45.4812H111.484V33.481C111.484 32.641 111.604 31.801 111.844 30.9609C112.924 27.4809 116.164 25.0809 119.884 25.0809H248.286C253.086 24.9609 256.806 28.8009 256.806 33.481Z" fill="#F37E60"/>
<path opacity="0.45" d="M256.806 42.4823V45.4823H111.484V36.8422C111.484 34.5622 111.604 32.6421 111.844 30.9621C112.924 27.4821 116.164 25.082 119.884 25.082H120.965C118.804 27.2421 117.124 30.4821 117.124 33.8422V42.4823H256.806Z" fill="#B03D44"/>
<g opacity="0.15">
<path d="M143.164 78.9609H173.044" stroke="#0964AF" stroke-width="3.1215" stroke-miterlimit="10" stroke-linecap="round" stroke-linejoin="round"/>
<path d="M240.242 88.5625H263.043" stroke="#0964AF" stroke-width="3.1215" stroke-miterlimit="10" stroke-linecap="round" stroke-linejoin="round"/>
<path d="M143.164 88.5625H230.405" stroke="#0964AF" stroke-width="3.1215" stroke-miterlimit="10" stroke-linecap="round" stroke-linejoin="round"/>
<path d="M143.164 98.1641H263.046" stroke="#0964AF" stroke-width="3.1215" stroke-miterlimit="10" stroke-linecap="round" stroke-linejoin="round"/>
<path d="M224.883 107.641H263.043" stroke="#0964AF" stroke-width="3.1215" stroke-miterlimit="10" stroke-linecap="round" stroke-linejoin="round"/>
<path d="M143.164 107.641H215.405" stroke="#0964AF" stroke-width="3.1215" stroke-miterlimit="10" stroke-linecap="round" stroke-linejoin="round"/>
<path d="M182.883 78.9609H263.044" stroke="#0964AF" stroke-width="3.1215" stroke-miterlimit="10" stroke-linecap="round" stroke-linejoin="round"/>
</g>
<g opacity="0.15">
<path d="M143.164 147.602H173.044" stroke="#0964AF" stroke-width="3.1215" stroke-miterlimit="10" stroke-linecap="round" stroke-linejoin="round"/>
<path d="M240.242 157.199H263.043" stroke="#0964AF" stroke-width="3.1215" stroke-miterlimit="10" stroke-linecap="round" stroke-linejoin="round"/>
<path d="M143.164 157.199H230.405" stroke="#0964AF" stroke-width="3.1215" stroke-miterlimit="10" stroke-linecap="round" stroke-linejoin="round"/>
<path d="M143.164 166.684H263.046" stroke="#0964AF" stroke-width="3.1215" stroke-miterlimit="10" stroke-linecap="round" stroke-linejoin="round"/>
<path d="M224.883 176.281H263.043" stroke="#0964AF" stroke-width="3.1215" stroke-miterlimit="10" stroke-linecap="round" stroke-linejoin="round"/>
<path d="M143.164 176.281H215.405" stroke="#0964AF" stroke-width="3.1215" stroke-miterlimit="10" stroke-linecap="round" stroke-linejoin="round"/>
<path d="M182.883 147.602H263.044" stroke="#0964AF" stroke-width="3.1215" stroke-miterlimit="10" stroke-linecap="round" stroke-linejoin="round"/>
</g>
<g opacity="0.15">
<path d="M143.164 213.844H173.044" stroke="#0964AF" stroke-width="3.1215" stroke-miterlimit="10" stroke-linecap="round" stroke-linejoin="round"/>
<path d="M240.242 223.324H263.043" stroke="#0964AF" stroke-width="3.1215" stroke-miterlimit="10" stroke-linecap="round" stroke-linejoin="round"/>
<path d="M143.164 223.324H230.405" stroke="#0964AF" stroke-width="3.1215" stroke-miterlimit="10" stroke-linecap="round" stroke-linejoin="round"/>
<path d="M143.164 232.922H263.046" stroke="#0964AF" stroke-width="3.1215" stroke-miterlimit="10" stroke-linecap="round" stroke-linejoin="round"/>
<path d="M224.883 242.406H263.043" stroke="#0964AF" stroke-width="3.1215" stroke-miterlimit="10" stroke-linecap="round" stroke-linejoin="round"/>
<path d="M143.164 242.406H215.405" stroke="#0964AF" stroke-width="3.1215" stroke-miterlimit="10" stroke-linecap="round" stroke-linejoin="round"/>
<path d="M182.883 213.844H263.044" stroke="#0964AF" stroke-width="3.1215" stroke-miterlimit="10" stroke-linecap="round" stroke-linejoin="round"/>
</g>
<g opacity="0.15">
<path d="M143.164 281.285H173.044" stroke="#0964AF" stroke-width="3.1215" stroke-miterlimit="10" stroke-linecap="round" stroke-linejoin="round"/>
<path d="M240.242 290.77H263.043" stroke="#0964AF" stroke-width="3.1215" stroke-miterlimit="10" stroke-linecap="round" stroke-linejoin="round"/>
<path d="M143.164 290.77H230.405" stroke="#0964AF" stroke-width="3.1215" stroke-miterlimit="10" stroke-linecap="round" stroke-linejoin="round"/>
<path d="M143.164 300.367H263.046" stroke="#0964AF" stroke-width="3.1215" stroke-miterlimit="10" stroke-linecap="round" stroke-linejoin="round"/>
<path d="M224.883 309.848H263.043" stroke="#0964AF" stroke-width="3.1215" stroke-miterlimit="10" stroke-linecap="round" stroke-linejoin="round"/>
<path d="M143.164 309.848H215.405" stroke="#0964AF" stroke-width="3.1215" stroke-miterlimit="10" stroke-linecap="round" stroke-linejoin="round"/>
<path d="M182.883 281.285H263.044" stroke="#0964AF" stroke-width="3.1215" stroke-miterlimit="10" stroke-linecap="round" stroke-linejoin="round"/>
</g>
<path d="M130.562 103.564H108.122C106.682 103.564 105.602 102.483 105.602 101.043V78.7232C105.602 77.2831 106.682 76.2031 108.122 76.2031H130.562C132.002 76.2031 133.082 77.2831 133.082 78.7232V101.163C133.082 102.484 131.882 103.564 130.562 103.564Z" stroke="#5B78B7" stroke-width="1.1566" stroke-miterlimit="10"/>
<path d="M130.562 171.965H108.122C106.682 171.965 105.602 170.885 105.602 169.445V147.004C105.602 145.564 106.682 144.484 108.122 144.484H130.562C132.002 144.484 133.082 145.564 133.082 147.004V169.445C133.082 170.885 131.882 171.965 130.562 171.965Z" stroke="#5B78B7" stroke-width="1.1566" stroke-miterlimit="10"/>
<path d="M130.562 240.363H108.122C106.682 240.363 105.602 239.283 105.602 237.843V215.403C105.602 213.963 106.682 212.883 108.122 212.883H130.562C132.002 212.883 133.082 213.963 133.082 215.403V237.843C133.082 239.163 131.882 240.363 130.562 240.363Z" stroke="#5B78B7" stroke-width="1.1566" stroke-miterlimit="10"/>
<path d="M130.562 308.766H108.122C106.682 308.766 105.602 307.686 105.602 306.246V283.805C105.602 282.365 106.682 281.285 108.122 281.285H130.562C132.002 281.285 133.082 282.365 133.082 283.805V306.246C133.082 307.566 131.882 308.766 130.562 308.766Z" stroke="#5B78B7" stroke-width="1.1566" stroke-miterlimit="10"/>
<path d="M108.961 85.0814L119.281 97.5615L139.201 66.1211" stroke="#F37E60" stroke-width="5" stroke-miterlimit="10" stroke-linecap="round" stroke-linejoin="round"/>
<path d="M108.961 152.882L119.281 165.362L139.201 133.922" stroke="#F37E60" stroke-width="5" stroke-miterlimit="10" stroke-linecap="round" stroke-linejoin="round"/>
<path d="M32.6441 172.805C32.6441 172.805 33.1241 176.285 33.4841 176.525C33.4841 176.525 33.1241 177.125 32.1641 177.125" fill="#FFB392"/>
<path d="M42.8472 188.76L36.4871 216.6C36.3671 217.32 36.8471 218.16 37.5671 218.16L57.2474 221.04C57.9674 221.16 58.5674 220.68 58.6874 219.96L65.0475 192.12C65.1675 191.4 64.6875 190.56 63.9675 190.56L44.2872 187.68C43.5672 187.68 42.9672 188.04 42.8472 188.76Z" fill="#68CCEA"/>
<path d="M44.042 189.598L37.9219 216.238L57.4822 218.998L63.6022 192.478L44.042 189.598Z" fill="#E5F8FF"/>
<path d="M61.563 194.4L44.8828 192" stroke="#A1D2F0" stroke-width="0.5742" stroke-miterlimit="10" stroke-linecap="round" stroke-linejoin="round"/>
<path d="M60.9665 196.92L44.4062 194.52" stroke="#A1D2F0" stroke-width="0.5742" stroke-miterlimit="10" stroke-linecap="round" stroke-linejoin="round"/>
<path d="M53.992 198.96L43.6719 197.52" stroke="#A1D2F0" stroke-width="0.5742" stroke-miterlimit="10" stroke-linecap="round" stroke-linejoin="round"/>
<path d="M53.2811 201.12L42.9609 199.68" stroke="#A1D2F0" stroke-width="0.5742" stroke-miterlimit="10" stroke-linecap="round" stroke-linejoin="round"/>
<path d="M52.5651 203.28L42.125 201.84" stroke="#A1D2F0" stroke-width="0.5742" stroke-miterlimit="10" stroke-linecap="round" stroke-linejoin="round"/>
<path d="M56.3933 215.279L45.9531 213.719" stroke="#A1D2F0" stroke-width="0.5742" stroke-miterlimit="10" stroke-linecap="round" stroke-linejoin="round"/>
<path d="M35.2797 216.843C36.3598 216.363 37.1998 215.403 38.0398 214.443C38.8798 213.483 39.5998 212.523 40.4398 211.683C40.7998 211.323 41.0398 210.963 41.1598 210.483C39.8398 210.363 38.9998 212.043 37.6798 212.163C38.2798 210.003 39.1198 207.963 40.3198 205.923C40.5598 205.443 40.9198 204.843 40.6798 204.363C39.2398 204.963 38.0398 205.923 37.0798 207.003C36.3598 207.843 35.6397 208.683 35.1597 209.523C33.4797 212.163 32.3997 215.163 31.6797 218.163" fill="#F2A181"/>
<path d="M29.6392 239.283L15.599 227.402C15.599 227.402 8.99886 236.282 11.5189 244.803C12.7189 249.003 14.2789 251.043 14.8789 253.083C15.479 255.003 19.679 281.403 19.439 283.323C19.079 285.243 16.799 290.643 15.959 296.283C14.8789 303.123 15.1189 325.444 14.2789 331.324C13.4389 337.204 18.959 338.284 19.199 336.244C21.719 319.204 28.5591 292.563 29.5191 284.043C30.3592 275.523 29.9992 259.923 29.6392 239.283Z" fill="#FFBE9D"/>
<path d="M29.6435 256.086L23.5234 270.126C26.0435 274.446 27.6035 279.606 27.8435 284.886C27.9635 287.646 27.7235 290.286 27.7235 293.046C27.7235 293.286 27.7235 293.406 27.8435 293.646C28.6835 289.686 29.2835 286.326 29.5235 284.166C30.2435 278.166 30.2435 268.566 30.0035 256.206C29.8835 256.086 29.7635 256.086 29.6435 256.086Z" fill="#F2A181"/>
<path d="M48.7173 345.247C48.3573 344.887 45.1173 344.407 43.6773 343.687C42.2372 343.086 40.4372 341.166 40.0772 340.326C39.7172 339.486 39.8372 335.286 39.8372 333.486C40.1972 321.366 42.3572 291.606 42.7172 284.526C43.3172 272.166 41.6372 259.445 36.9572 239.525L19.1969 225.965C19.1969 225.965 14.2768 235.205 15.8369 243.965C16.7969 249.125 20.9969 249.845 21.7169 251.885C22.437 253.925 33.1171 285.966 33.1171 285.966C33.1171 285.966 31.0771 292.926 30.9571 300.486C30.8371 306.966 33.8371 326.526 34.3171 333.966C34.4371 335.406 34.6771 338.886 34.1971 339.966C33.7171 341.286 32.2771 342.967 32.3971 344.647C32.3971 345.607 33.1171 346.567 34.4371 346.927C35.6371 347.287 36.3571 346.567 36.8372 346.567C39.3572 346.447 40.0772 348.127 44.3973 348.127C45.7173 348.127 47.6373 347.407 48.7173 346.327C49.1973 346.087 49.0773 345.607 48.7173 345.247Z" fill="#FFBE9D"/>
<path d="M15.8404 225.843C14.6404 227.163 10.3203 234.364 10.3203 240.124C10.3203 245.884 12.1203 249.724 12.4803 250.924C13.5604 254.044 15.6004 256.924 15.6004 257.524C15.6004 258.124 18.8404 258.484 25.5605 258.124C38.0407 257.284 42.7208 255.004 42.7208 255.004C42.7208 255.004 43.0808 249.844 41.8808 238.444C41.2808 233.044 36.7207 224.523 36.7207 224.523" fill="#397789"/>
<path d="M4.4375 202.682C4.4375 202.682 6.47753 212.762 6.95754 214.442C7.43754 216.242 10.0776 227.522 12.5976 227.402C15.1177 227.162 28.6778 215.882 28.6778 215.882L26.7578 212.042L14.7576 217.682C14.7576 217.682 13.6776 204.722 12.7176 201.602" fill="#FFBE9D"/>
<path d="M9.125 208.805C10.445 213.245 12.9651 218.045 13.8051 221.405C13.9251 222.125 22.2052 219.125 22.2052 216.005" fill="#F2A181"/>
<path d="M12.5973 188.758C12.5973 188.758 8.63726 189.238 6.59723 190.678C1.43715 194.638 5.39721 208.798 5.39721 208.798C5.39721 208.798 5.15721 209.518 8.63726 209.398C12.1173 209.158 14.8773 208.198 14.8773 208.198L13.9173 196.558" fill="#F37E60"/>
<path d="M8.03841 196.805C8.03841 196.805 7.5584 205.205 9.11843 209.405C10.5584 209.405 11.8785 209.045 11.8785 209.045L8.03841 196.805Z" fill="#CE5C3F"/>
<path d="M31.5493 162.481C33.9493 165.601 33.4693 169.921 32.8693 173.761C32.6293 175.681 32.2693 177.721 32.0293 179.641C31.9093 180.602 31.6693 181.562 30.9493 182.162C30.2293 182.762 29.1493 182.762 28.1893 182.762C28.1893 184.322 28.1893 186.002 28.1893 187.562C25.4292 187.682 22.6692 187.682 19.9091 187.562C19.9091 186.482 19.6691 185.282 19.1891 184.322C17.8691 184.322 16.9091 182.882 16.4291 181.682C15.8291 180.241 15.3491 178.801 14.9891 177.241C14.3891 175.201 13.9091 173.281 13.7891 171.121C13.7891 169.081 14.2691 166.921 15.5891 165.241C16.4291 164.161 17.7491 163.321 18.9491 162.721C20.6292 161.881 22.6692 161.161 24.4692 161.881" fill="#FFBE9D"/>
<path d="M28.6761 177.244C28.3161 175.564 28.3161 174.724 28.9161 173.644C29.0361 173.284 29.2761 172.924 29.6361 172.684C30.1161 172.324 30.5961 172.324 31.0761 172.564C31.4361 172.684 31.6762 172.924 31.7962 173.284C32.3962 171.124 32.5162 168.724 32.2762 166.444C32.0362 162.844 29.8761 160.084 26.6361 158.764C20.756 156.364 12.3559 158.764 9.95585 164.524C8.15582 168.844 9.11583 175.204 12.4759 178.804C15.4759 182.044 19.916 182.524 23.996 181.804C26.0361 181.444 29.2761 181.684 30.3561 178.804C30.4761 178.564 30.2361 178.324 29.9961 178.444C29.2761 178.564 28.6761 177.604 28.6761 177.244Z" fill="#5B5B5B"/>
<path d="M29.1535 169.563C29.3935 169.923 29.2735 170.403 29.5135 170.763C29.8735 171.363 30.3536 171.603 30.9536 171.843C31.9136 172.323 31.6736 173.763 31.6736 174.363C32.3936 173.883 32.5136 172.563 32.7536 171.843C32.9936 171.123 33.1136 170.283 33.3536 169.563C33.5936 168.843 33.9536 168.123 34.0736 167.283C34.3136 164.523 32.6336 161.402 30.5936 159.842C29.0335 158.762 26.7535 158.762 25.0735 159.962C24.3535 160.442 23.8735 161.162 23.5135 162.003C23.3935 162.363 23.2735 162.723 23.3935 163.083" fill="#5B5B5B"/>
<path d="M15.7188 188.764C15.8388 187.804 16.0788 186.724 17.0388 186.363C17.2788 186.243 17.5188 186.243 17.7588 186.243C20.5188 186.003 23.1589 185.763 25.9189 185.883C26.9989 185.883 28.1989 186.003 29.1589 186.483C30.719 187.324 31.559 189.004 32.399 190.564" fill="#CE5C3F"/>
<path d="M38.6393 223.559C38.2793 222.959 37.4393 222.359 37.0793 221.759C36.3593 220.319 35.6392 214.079 35.8792 212.519C36.1193 210.839 37.6793 209.879 38.3993 206.159C39.2393 201.239 37.3193 197.519 36.1193 195.839C34.5592 193.559 35.5192 193.559 34.9192 190.799C34.7992 190.319 34.6792 189.719 34.3192 189.359C33.9592 188.999 31.6792 187.919 31.1992 187.919C26.7591 187.199 24.2391 187.799 19.799 187.919C17.639 188.039 15.359 188.279 13.1989 188.759C10.7989 189.239 8.75886 189.959 8.27886 193.199C7.55885 198.239 8.15885 203.279 9.71888 208.079C10.6789 211.199 16.799 222.119 15.239 224.279C14.8789 224.759 14.0389 225.719 13.9189 226.319C13.5589 228.479 18.479 229.319 20.639 229.439C23.8791 229.679 27.5991 229.559 30.8392 229.319C33.3592 229.199 38.6393 228.359 39.1193 225.359C39.2393 224.519 38.9993 224.039 38.6393 223.559Z" fill="#F37E60"/>
<path d="M37.6739 207.002C37.6739 207.842 37.1938 209.042 37.0738 209.522C36.4738 209.882 33.9538 210.362 32.6338 209.762C32.2738 206.882 30.5938 201.242 30.5938 201.242C30.5938 201.242 37.6739 206.162 37.6739 207.002Z" fill="#CE5C3F"/>
<path d="M34.5625 204.96C34.5625 204.96 42.7226 224.52 46.2027 224.52C48.7227 224.52 55.0828 206.4 55.0828 206.4L51.1227 204.48L46.6827 212.04L42.1226 198" fill="#FFBE9D"/>
<path d="M50.2812 205.921C50.2812 205.921 51.6013 203.881 51.4813 202.441C51.4813 201.841 51.1213 199.201 51.3613 198.721C51.6013 198.24 52.3213 196.44 52.6813 196.2C53.0413 195.84 54.4813 195.36 54.8413 195.6C55.2013 195.84 55.5613 194.76 56.1613 194.88C56.7613 195 57.2413 195.48 57.2413 195.96C57.2413 196.44 57.9614 196.56 58.0814 196.92C58.2014 197.28 58.0814 197.64 58.3214 197.88C58.4414 198.12 58.9214 198 59.0414 198.721C59.1614 199.321 59.0414 199.441 59.0414 199.801C59.0414 200.161 59.4014 200.161 59.2814 200.761C59.1614 201.361 58.8014 202.201 58.3214 202.921C57.9614 203.641 57.1213 204.481 56.1613 205.201C55.6813 205.561 55.3213 206.041 54.8413 207.001" fill="#FFBE9D"/>
<path d="M52.4444 190.8C52.3244 190.68 52.0844 190.44 51.7244 190.56C51.3644 190.8 51.4844 191.16 51.6044 191.28C51.7244 191.4 54.0044 196.68 54.0044 196.68C54.0044 196.68 54.2444 196.92 54.6044 196.56C54.9644 196.2 54.8444 196.08 54.8444 196.08C54.8444 196.08 52.5644 190.92 52.4444 190.8Z" fill="#1B227A"/>
<path d="M54.9569 195.846C54.4769 196.686 53.9969 196.926 53.5169 197.406C53.1569 197.766 53.1569 198.006 52.7969 198.366C53.5169 198.366 53.3969 197.886 54.3569 197.166C54.8369 196.806 55.1969 196.566 55.3169 195.966C55.3169 195.726 55.0769 195.606 54.9569 195.846Z" fill="#F2A181"/>
<path d="M27.1172 187.446C29.2772 187.566 35.3973 186.486 38.7574 190.086C41.6374 193.086 43.3174 200.886 44.3974 204.126C41.5174 207.006 38.7574 209.406 34.4373 208.446C34.3173 208.326 32.1573 201.486 30.5972 200.886" fill="#F37E60"/>
<path d="M42.8364 249.722C42.8364 249.722 44.2764 283.322 44.0364 285.722C43.7964 288.123 41.0363 334.443 41.0363 334.443C41.0363 334.443 35.3963 335.403 32.1562 334.443C32.1562 334.443 27.8361 298.323 32.1562 287.163L30.2362 276.362C30.2362 276.362 30.4762 284.402 30.2362 285.962C29.9962 287.643 21.3561 333.243 21.3561 333.243C21.3561 333.243 15.596 333.123 13.0759 330.843C13.0759 330.843 12.2359 299.163 18.236 285.722L12.8359 250.802L15.956 241.922L42.8364 249.722Z" fill="#397789"/>
<path d="M30.1145 276.364C29.2745 271.204 24.3545 252.964 24.2345 252.484C21.5944 250.444 19.0744 248.524 18.2344 246.844C19.6744 251.284 22.5544 251.524 23.6345 253.804C26.2745 259.444 24.2345 258.244 30.3545 277.084" fill="#1C4E5D"/>
<path d="M6.12009 187.205C6.00008 189.005 6.36009 190.806 6.36009 192.606C6.36009 194.406 6.00008 196.326 4.68007 197.526C3.36005 198.726 0.960014 198.846 0 197.286C0.960014 199.206 3.00004 200.646 5.16007 201.006C7.3201 201.366 9.60014 200.886 11.5202 200.046C16.8002 197.646 20.2803 192.126 20.1603 186.245C20.0403 181.445 16.4402 176.885 11.2802 179.285C8.28012 180.725 6.36009 183.965 6.12009 187.205Z" fill="#5B5B5B"/>
</svg>
