<svg width="112" height="140" viewBox="0 0 112 140" fill="none" xmlns="http://www.w3.org/2000/svg">
<rect width="111.822" height="139.777" rx="6.98884" fill="white"/>
<rect x="5.57959" y="5.58862" width="100.639" height="100.639" rx="6.78724" fill="#EAF1FF"/>
<path d="M86.1159 57.9231C85.9809 57.8725 81.5433 54.5654 81.5433 54.5654C81.5433 54.5654 81.4083 57.265 81.189 57.2144C80.9696 57.1638 77.6794 54.3798 77.7131 54.4473C77.7469 54.5147 81.4927 59.6947 81.8133 59.3235C82.1507 58.9523 82.4207 57.13 82.4207 57.13L85.4747 59.9816L86.1159 57.9231Z" fill="#6683C2"/>
<path d="M87.6672 44.5767C87.4985 44.6442 80.4456 45.741 80.4456 45.741C80.4456 45.741 82.8078 48.3056 82.5716 48.4744C82.3353 48.6431 76.7842 49.1493 76.8854 49.183C76.9698 49.2168 85.1194 50.4485 85.0856 49.8073C85.0519 49.1662 83.6177 47.2764 83.6177 47.2764L89.0001 47.0402L87.6672 44.5767Z" fill="#6683C2"/>
<path d="M80.8524 36.1909C80.7849 36.2921 77.0391 39.4979 77.0391 39.4979C77.0391 39.4979 79.3507 40.156 79.2832 40.3416C79.1988 40.5272 76.1279 42.8388 76.1954 42.8219C76.2629 42.805 81.4935 40.5778 81.2404 40.2235C80.9873 39.8692 79.4519 39.2617 79.4519 39.2617L82.5228 37.1695L80.8524 36.1909Z" fill="#6683C2"/>
<path d="M25.475 59.1546C25.475 59.1546 23.0284 59.8801 22.809 60.5888C22.5728 61.365 24.1589 66.6799 25.2219 66.7643C26.2849 66.8486 27.9047 65.8531 27.9047 65.8531L25.475 59.1546Z" fill="#6683C2"/>
<path d="M32.9854 67.8781C32.9854 67.8781 36.1912 81.9501 36.478 82.8612C36.7649 83.7723 44.3408 83.2662 44.189 82.5744C44.054 81.8994 42.2655 80.7521 42.3329 79.841C42.4004 78.9298 43.1935 77.4619 43.0416 76.7195C42.9066 75.9771 40.8313 75.3021 41.0337 74.1042C41.2531 72.9062 42.3329 72.0119 42.4004 71.1683C42.4679 70.3078 41.8268 67.7937 41.8268 67.7937L32.9854 67.8781Z" fill="#6683C2"/>
<path opacity="0.3" d="M32.9854 67.8781C32.9854 67.8781 36.1912 81.9501 36.478 82.8612C36.7649 83.7723 44.3408 83.2662 44.189 82.5744C44.054 81.8994 42.2655 80.7521 42.3329 79.841C42.4004 78.9298 43.1935 77.4619 43.0416 76.7195C42.9066 75.9771 40.8313 75.3021 41.0337 74.1042C41.2531 72.9062 42.3329 72.0119 42.4004 71.1683C42.4679 70.3078 41.8268 67.7937 41.8268 67.7937L32.9854 67.8781Z" fill="black"/>
<path d="M26.9914 65.4819C26.9914 65.4819 21.6764 56.708 30.8384 53.1141L35.3097 67.8441C35.3266 67.861 29.1174 69.1265 26.9914 65.4819Z" fill="#6683C2"/>
<path d="M31.1672 52.9284C31.1672 52.9284 38.6756 48.4909 41.4428 46.7192C46.6228 43.4459 49.6093 39.5145 49.6093 39.5145L60.0536 69.0758C60.0536 69.0758 50.1155 68.3165 44.7667 67.9791C39.418 67.6416 34.6599 67.8947 34.6599 67.8947C34.6599 67.8947 30.8297 64.3176 30.3235 58.6315C29.8174 52.9284 31.1672 52.9284 31.1672 52.9284Z" fill="#6683C2"/>
<path opacity="0.7" d="M31.1672 52.9284C31.1672 52.9284 38.6756 48.4909 41.4428 46.7192C46.6228 43.4459 49.6093 39.5145 49.6093 39.5145L60.0536 69.0758C60.0536 69.0758 50.1155 68.3165 44.7667 67.9791C39.418 67.6416 34.6599 67.8947 34.6599 67.8947C34.6599 67.8947 30.8297 64.3176 30.3235 58.6315C29.8174 52.9284 31.1672 52.9284 31.1672 52.9284Z" fill="white"/>
<path d="M66.7193 71.2957C73.7666 69.6332 77.3618 59.3081 74.7494 48.2338C72.137 37.1595 64.3062 29.5297 57.259 31.1922C50.2117 32.8546 46.6166 43.1797 49.229 54.254C51.8414 65.3283 59.6721 72.9581 66.7193 71.2957Z" fill="#6683C2"/>
<path opacity="0.3" d="M66.5513 67.8964C71.8209 66.6533 74.3357 58.1975 72.1683 49.0097C70.001 39.822 63.9721 33.3815 58.7025 34.6246C53.433 35.8677 50.9181 44.3236 53.0855 53.5113C55.2529 62.6991 61.2817 69.1395 66.5513 67.8964Z" fill="black"/>
<g opacity="0.3">
<path d="M53.2479 40.8306C54.9858 40.3581 57.753 42.366 59.4403 44.2895C64.7046 50.3131 65.4133 59.9138 61.1613 66.6799C54.4121 62.4279 50.4301 49.7732 53.2479 40.8306Z" fill="black"/>
</g>
<path d="M30.8101 67.8951C30.8101 67.8951 33.4591 82.4564 33.6953 83.4013C33.9315 84.3462 40.1745 83.8062 40.0564 83.1145C39.9383 82.4227 38.4704 81.2247 38.521 80.2967C38.5716 79.3518 39.2296 77.8332 39.1115 77.0571C38.9934 76.2978 37.2893 75.5891 37.458 74.3574C37.6267 73.1257 38.521 72.1977 38.5885 71.3034C38.6391 70.426 38.116 67.8107 38.116 67.8107L30.8101 67.8951Z" fill="#6683C2"/>
<path d="M53.0806 53.5022C53.6205 55.797 54.4136 57.9398 55.3584 59.8127C55.8815 59.5765 65.3135 55.3414 65.5834 55.0545C65.8703 54.7677 63.3393 46.2469 63.3393 46.2469L52.3044 48.0692C52.4057 49.8239 52.6419 51.6462 53.0806 53.5022Z" fill="#6683C2"/>
<path opacity="0.7" d="M53.0806 53.5022C53.6205 55.797 54.4136 57.9398 55.3584 59.8127C55.8815 59.5765 65.3135 55.3414 65.5834 55.0545C65.8703 54.7677 63.3393 46.2469 63.3393 46.2469L52.3044 48.0692C52.4057 49.8239 52.6419 51.6462 53.0806 53.5022Z" fill="white"/>
<path d="M65.5053 55.0374C66.8839 54.7122 67.5367 52.4781 66.9633 50.0474C66.3899 47.6166 64.8074 45.9098 63.4288 46.235C62.0502 46.5602 61.3975 48.7943 61.9709 51.2251C62.5443 53.6558 64.1267 55.3626 65.5053 55.0374Z" fill="#6683C2"/>
<g opacity="0.3">
<path d="M38.9821 72.045C39.8426 71.9438 40.72 71.8425 41.5805 71.7582C41.7155 71.7413 41.8336 71.6569 41.8336 71.5051C41.8336 71.3869 41.7155 71.2351 41.5805 71.252C40.72 71.3532 39.8426 71.4544 38.9821 71.5388C38.8471 71.5557 38.729 71.64 38.729 71.7919C38.729 71.91 38.8471 72.0619 38.9821 72.045Z" fill="black"/>
</g>
<g opacity="0.3">
<path d="M39.5258 76.8374C40.5719 76.7362 41.6349 76.6518 42.6979 76.6012C43.0185 76.5843 43.0185 76.0781 42.6979 76.095C41.6349 76.1456 40.5888 76.23 39.5258 76.3312C39.3908 76.3481 39.2727 76.4325 39.2727 76.5843C39.2727 76.7193 39.3908 76.8543 39.5258 76.8374Z" fill="black"/>
</g>
<path d="M38.9924 67.8273C38.8743 67.8441 39.3468 70.78 39.8698 70.8138C40.3929 70.8475 43.2613 70.7125 43.2781 70.4594C43.3119 69.8689 42.6032 67.861 42.6032 67.861C42.6032 67.861 39.8529 67.6585 38.9924 67.8273Z" fill="#263238"/>
<g opacity="0.3">
<path d="M23.289 62.5634C23.5759 62.4959 23.8796 62.4115 24.1664 62.344C24.3014 62.3103 24.3858 62.1584 24.3351 62.0403C24.2845 61.9053 24.1664 61.8378 24.0314 61.8716C23.7446 61.9391 23.4409 62.0234 23.154 62.0909C23.0191 62.1247 22.9347 62.2765 22.9853 62.3946C23.0359 62.5127 23.154 62.5971 23.289 62.5634Z" fill="black"/>
</g>
<g opacity="0.3">
<path d="M23.5507 63.5584C23.8376 63.4909 24.1413 63.4065 24.4281 63.339C24.5631 63.3053 24.6475 63.1534 24.5969 63.0353C24.5462 62.9003 24.4281 62.8328 24.2931 62.8666C24.0063 62.9341 23.7026 63.0184 23.4158 63.0859C23.2808 63.1197 23.1964 63.2715 23.247 63.3896C23.2808 63.5077 23.4158 63.5921 23.5507 63.5584Z" fill="black"/>
</g>
<g opacity="0.3">
<path d="M23.9406 64.5541C24.2275 64.4866 24.5312 64.4022 24.818 64.3347C24.953 64.301 25.0374 64.1491 24.9868 64.031C24.9361 63.896 24.818 63.8286 24.683 63.8623C24.3962 63.9298 24.0925 64.0142 23.8056 64.0816C23.6707 64.1154 23.5863 64.2672 23.6369 64.3854C23.6707 64.5203 23.8056 64.5878 23.9406 64.5541Z" fill="black"/>
</g>
<g opacity="0.3">
<path d="M24.3693 65.6171C24.6562 65.5496 24.9599 65.4653 25.2467 65.3978C25.3817 65.364 25.4661 65.2122 25.4155 65.0941C25.3648 64.9591 25.2467 64.8916 25.1117 64.9253C24.8249 64.9928 24.5212 65.0772 24.2344 65.1447C24.0994 65.1784 24.015 65.3303 24.0656 65.4484C24.0994 65.5834 24.2344 65.6509 24.3693 65.6171Z" fill="black"/>
</g>
<path opacity="0.3" d="M31.3789 53.7214C31.3789 53.7214 30.6365 58.5977 32.1888 60.5887C33.7579 62.5966 48.8761 56.3536 48.8761 56.3536C48.8761 56.3536 46.2439 49.8913 47.6106 44.9644C48.0324 43.429 48.1168 42.8722 47.8468 42.9565C47.2563 43.1421 45.0628 46.1286 40.3215 48.6596C37.0988 50.3806 31.3789 53.7214 31.3789 53.7214Z" fill="white"/>
<path opacity="0.3" d="M30.8101 67.8781L31.08 69.346C31.08 69.346 42.8067 69.4304 42.9417 68.9073L42.5873 67.8612C40.6638 67.6756 35.5513 67.7937 30.8101 67.8781Z" fill="black"/>
<path opacity="0.3" d="M58.1187 58.581C55.1322 54.0254 54.8116 49.0479 54.7779 47.6812L52.3313 48.0861C52.3988 49.8409 52.6519 51.6632 53.0906 53.5192C53.6305 55.8139 54.4235 57.9568 55.3684 59.8296C55.5372 59.7453 56.6676 59.2391 58.1187 58.581Z" fill="black"/>
<path opacity="0.3" d="M25.4734 59.1546C25.9459 61.618 26.5702 63.9465 27.4476 66.1062L27.0089 66.3256C26.7895 66.4268 24.5454 59.4583 24.866 59.3571C24.9672 59.3233 25.4734 59.1546 25.4734 59.1546Z" fill="black"/>
<path opacity="0.1" d="M60.4389 35.6C60.1858 35.5493 57.9248 40.105 58.1273 40.7631C58.3129 41.4211 61.2657 45.0319 61.9912 45.0319C62.7167 45.0319 68.9597 44.7451 68.9597 43.9689C68.9597 43.1928 65.8382 36.7305 60.4389 35.6Z" fill="white"/>
<path opacity="0.1" d="M66.0379 57.3495C66.0379 57.3495 64.1987 63.5587 64.4687 64.0986C64.7387 64.6386 69.0413 64.2167 70.003 63.2044C70.9816 62.2089 72.0278 57.2651 71.9434 56.4552C71.8759 55.6453 66.0379 57.3495 66.0379 57.3495Z" fill="white"/>
<g opacity="0.2">
<path d="M38.5692 82.0852C38.4004 81.5284 37.658 81.4609 37.4218 80.9885C37.135 80.3979 37.7424 79.7399 37.6918 79.0987C37.658 78.6769 37.3374 78.3394 36.9662 78.137C36.595 77.9514 36.1732 77.8839 35.7514 77.8332C35.0934 77.7489 34.2497 77.6814 33.676 78.0357C33.6929 79.0312 34.0135 80.2629 34.3003 81.2078C34.4184 81.6128 34.5872 82.0177 34.9077 82.2877C35.1946 82.5239 35.5995 82.6252 35.9707 82.6758C36.6288 82.777 37.2868 82.7939 37.9449 82.7264C38.1811 82.7095 38.4511 82.6589 38.5523 82.4227C38.6029 82.3046 38.6029 82.1865 38.5692 82.0852Z" fill="white"/>
</g>
<path d="M31.1368 125.385L31.1368 115.922L32.9236 115.922L32.9236 124.035L32.7647 123.876L35.1867 123.876C35.672 123.876 36.0558 123.757 36.3382 123.518C36.6205 123.271 36.7617 122.936 36.7617 122.513C36.7617 122.098 36.6205 121.776 36.3382 121.546C36.0558 121.317 35.672 121.202 35.1867 121.202L31.9971 121.202L31.9971 119.694L35.1735 119.694C35.8617 119.694 36.4573 119.808 36.9602 120.038C37.472 120.267 37.869 120.594 38.1514 121.017C38.4337 121.441 38.5749 121.939 38.5749 122.513C38.5749 123.077 38.4337 123.576 38.1514 124.008C37.869 124.44 37.472 124.78 36.9602 125.027C36.4485 125.265 35.8529 125.385 35.1735 125.385L31.1368 125.385ZM32.0501 117.444L32.0501 115.922L37.8337 115.922L37.8337 117.444L32.0501 117.444ZM39.2066 125.385L39.2066 123.955L39.6566 123.955C39.9037 123.955 40.0802 123.902 40.186 123.796C40.3007 123.691 40.3713 123.51 40.3978 123.254L40.8213 118.727L46.0491 118.727L46.0491 125.385L44.3021 125.385L44.3021 118.979L45.5594 120.13L41.1257 120.13L42.4624 118.979L41.9992 123.611C41.9286 124.282 41.7345 124.745 41.4169 125.001C41.1081 125.257 40.6272 125.385 39.9743 125.385L39.2066 125.385ZM51.1646 125.596C50.4411 125.596 49.8014 125.446 49.2456 125.146C48.6897 124.838 48.2573 124.418 47.9485 123.889C47.6397 123.351 47.4853 122.742 47.4853 122.063C47.4853 121.366 47.6397 120.752 47.9485 120.223C48.2573 119.694 48.6897 119.279 49.2456 118.979C49.8014 118.67 50.4411 118.516 51.1646 118.516C51.8881 118.516 52.5278 118.67 53.0837 118.979C53.6396 119.279 54.0719 119.694 54.3807 120.223C54.6895 120.752 54.8439 121.361 54.8439 122.049C54.8439 122.738 54.6895 123.351 54.3807 123.889C54.0719 124.418 53.6396 124.838 53.0837 125.146C52.5278 125.446 51.8881 125.596 51.1646 125.596ZM51.1646 124.14C51.5352 124.14 51.8617 124.052 52.144 123.876C52.4264 123.699 52.6469 123.457 52.8058 123.148C52.9646 122.83 53.044 122.468 53.044 122.063C53.044 121.648 52.9646 121.286 52.8058 120.977C52.6469 120.66 52.4264 120.413 52.144 120.236C51.8617 120.06 51.5352 119.971 51.1646 119.971C50.794 119.971 50.4676 120.06 50.1852 120.236C49.9029 120.413 49.6823 120.66 49.5235 120.977C49.3647 121.286 49.2853 121.648 49.2853 122.063C49.2853 122.468 49.3647 122.83 49.5235 123.148C49.6823 123.457 49.9029 123.699 50.1852 123.876C50.4676 124.052 50.794 124.14 51.1646 124.14ZM56.2831 125.385L56.2831 118.727L61.1801 118.727L61.1801 120.13L56.6802 120.13L58.0301 119.072L58.0301 125.385L56.2831 125.385ZM62.4482 125.385L62.4482 118.727L64.1158 118.727L64.1158 123.161L64.0232 123.135L67.3584 118.727L68.8936 118.727L68.8936 125.385L67.226 125.385L67.226 120.951L67.3187 120.977L63.9835 125.385L62.4482 125.385ZM75.4317 125.385L75.4317 118.727L77.1787 118.727L77.1787 125.385L75.4317 125.385ZM70.7201 125.385L70.7201 118.727L72.4671 118.727L72.4671 125.385L70.7201 125.385ZM71.5406 122.592L71.5406 121.189L76.4508 121.189L76.4508 122.592L71.5406 122.592ZM79.0048 125.385L79.0048 118.727L83.9018 118.727L83.9018 120.13L79.4019 120.13L80.7518 119.072L80.7518 125.385L79.0048 125.385Z" fill="#003C56"/>
</svg>
