<svg width="112" height="141" viewBox="0 0 112 141" fill="none" xmlns="http://www.w3.org/2000/svg">
<rect y="0.54541" width="111.822" height="139.777" rx="6.98884" fill="white"/>
<rect x="5.58789" y="6.13525" width="100.639" height="100.639" rx="6.78724" fill="#EAF1FF"/>
<path d="M55.0889 22.0016C52.2634 22.0147 49.5654 22.2556 47.193 22.6759C40.1969 23.9117 38.9272 26.4975 38.9272 31.2683V37.5678H55.4526V39.6673H38.9272H32.7263C27.9234 39.6673 23.7147 42.5544 22.4018 48.044C20.8842 54.3373 20.817 58.2699 22.4018 64.8406C23.5766 69.7335 26.3824 73.2173 31.1853 73.2173H36.8678V65.6666C36.8678 60.2115 41.5875 55.3975 47.1923 55.3975H63.6992C68.2944 55.3975 71.965 51.6141 71.965 47.0023V31.2659C71.965 26.7872 68.1866 23.4254 63.6992 22.6734C60.8602 22.2008 57.9144 21.9861 55.0883 21.9991L55.0889 22.0016ZM46.1513 27.0677C47.8587 27.0677 49.2523 28.4847 49.2523 30.2267C49.2523 31.9624 47.858 33.3665 46.1513 33.3665C44.4383 33.3665 43.0502 31.963 43.0502 30.2267C43.0502 28.4847 44.4383 27.0677 46.1513 27.0677Z" fill="url(#paint0_linear_105_10456)"/>
<path d="M74.023 39.6649V47.0061C74.023 52.696 69.1991 57.4847 63.6985 57.4847H47.1916C42.6697 57.4847 38.9258 61.3544 38.9258 65.88V81.6164C38.9258 86.0951 42.8207 88.7295 47.1916 90.0116C52.4229 91.5501 57.4421 91.8281 63.6985 90.0116C67.8591 88.8072 71.9643 86.3823 71.9643 81.6164V75.3169H55.4573V73.2175H71.9643H80.23C85.0329 73.2175 86.8254 69.8674 88.4958 64.8407C90.2211 59.6637 90.1477 54.6826 88.4958 48.0441C87.3087 43.2628 85.0416 39.6674 80.23 39.6674H74.0292L74.023 39.6649ZM64.7402 79.5207C66.4531 79.5207 67.8412 80.9242 67.8412 82.6605C67.8412 84.4025 66.4531 85.8195 64.7402 85.8195C63.0328 85.8195 61.6391 84.4025 61.6391 82.6605C61.6391 80.9248 63.0334 79.5207 64.7402 79.5207Z" fill="url(#paint1_linear_105_10456)"/>
<path d="M36.0888 125.932L34.3021 125.932L34.3021 116.469L38.1402 116.469C38.8196 116.469 39.4107 116.593 39.9137 116.84C40.4254 117.078 40.8225 117.413 41.1048 117.846C41.396 118.278 41.5416 118.781 41.5416 119.354C41.5416 119.928 41.396 120.435 41.1048 120.876C40.8225 121.309 40.4254 121.648 39.9137 121.895C39.4107 122.134 38.8196 122.253 38.1402 122.253L35.9564 122.253L35.9564 120.744L38.1402 120.744C38.6343 120.744 39.0225 120.621 39.3049 120.373C39.5872 120.126 39.7284 119.787 39.7284 119.354C39.7284 118.931 39.5872 118.596 39.3049 118.349C39.0225 118.101 38.6343 117.978 38.1402 117.978L36.0888 117.978L36.0888 125.932ZM49.3135 125.932L47.5665 125.932L47.5665 122.081C47.5665 121.56 47.4473 121.172 47.2091 120.916C46.9709 120.651 46.6488 120.519 46.243 120.519C45.9606 120.519 45.6915 120.594 45.4356 120.744C45.1798 120.894 44.9724 121.128 44.8136 121.445C44.6548 121.763 44.5754 122.182 44.5754 122.703L44.5754 125.932L42.8284 125.932L42.8284 116.403L44.5754 116.403L44.5754 121.34L44.3504 121.34C44.4298 120.748 44.593 120.29 44.8401 119.963C45.0959 119.628 45.3915 119.394 45.7268 119.262C46.0709 119.129 46.4106 119.063 46.7459 119.063C47.54 119.063 48.1664 119.306 48.6253 119.791C49.0841 120.276 49.3135 120.982 49.3135 121.909L49.3135 125.932ZM55.4971 119.275L57.2573 119.275L54.0942 126.7C53.8383 127.291 53.5163 127.736 53.128 128.036C52.7398 128.345 52.2236 128.5 51.5795 128.5L50.7193 128.5L50.7193 127.07L51.4869 127.07C51.7516 127.07 51.9722 127.009 52.1486 126.885C52.3339 126.77 52.4795 126.585 52.5854 126.329L52.731 125.945L49.8855 119.275L51.6987 119.275L53.8692 124.953L53.3001 124.953L55.4971 119.275ZM62.5622 125.932L60.8946 125.932C60.2946 125.932 59.8402 125.782 59.5314 125.482C59.2314 125.173 59.0814 124.719 59.0814 124.119L59.0814 117.515L60.8284 117.515L60.8284 123.815C60.8284 124.053 60.8813 124.229 60.9872 124.344C61.0931 124.45 61.2607 124.503 61.4901 124.503L62.5622 124.503L62.5622 125.932ZM62.4828 120.678L57.9167 120.678L57.9167 119.275L62.4828 119.275L62.4828 120.678ZM67.0395 126.144C66.316 126.144 65.6763 125.994 65.1204 125.694C64.5646 125.385 64.1322 124.966 63.8234 124.437C63.5146 123.898 63.3602 123.29 63.3602 122.61C63.3602 121.913 63.5146 121.3 63.8234 120.771C64.1322 120.241 64.5646 119.826 65.1204 119.526C65.6763 119.218 66.316 119.063 67.0395 119.063C67.763 119.063 68.4027 119.218 68.9586 119.526C69.5144 119.826 69.9468 120.241 70.2556 120.771C70.5644 121.3 70.7188 121.909 70.7188 122.597C70.7188 123.285 70.5644 123.898 70.2556 124.437C69.9468 124.966 69.5144 125.385 68.9586 125.694C68.4027 125.994 67.763 126.144 67.0395 126.144ZM67.0395 124.688C67.4101 124.688 67.7365 124.6 68.0189 124.423C68.3012 124.247 68.5218 124.004 68.6806 123.695C68.8395 123.378 68.9189 123.016 68.9189 122.61C68.9189 122.195 68.8395 121.834 68.6806 121.525C68.5218 121.207 68.3012 120.96 68.0189 120.784C67.7365 120.607 67.4101 120.519 67.0395 120.519C66.6689 120.519 66.3425 120.607 66.0601 120.784C65.7778 120.96 65.5572 121.207 65.3984 121.525C65.2396 121.834 65.1601 122.195 65.1601 122.61C65.1601 123.016 65.2396 123.378 65.3984 123.695C65.5572 124.004 65.7778 124.247 66.0601 124.423C66.3425 124.6 66.6689 124.688 67.0395 124.688ZM78.4976 125.932L76.7505 125.932L76.7505 122.081C76.7505 121.56 76.6314 121.172 76.3932 120.916C76.155 120.651 75.8329 120.519 75.427 120.519C75.1447 120.519 74.8756 120.594 74.6197 120.744C74.3638 120.894 74.1565 121.128 73.9977 121.445C73.8389 121.763 73.7594 122.182 73.7594 122.703L73.7594 125.932L72.0124 125.932L72.0124 119.275L73.7462 119.275L73.7462 121.34L73.5344 121.34C73.6139 120.748 73.7771 120.29 74.0241 119.963C74.28 119.628 74.5756 119.394 74.9109 119.262C75.255 119.129 75.5947 119.063 75.93 119.063C76.7241 119.063 77.3505 119.306 77.8093 119.791C78.2681 120.276 78.4976 120.982 78.4976 121.909L78.4976 125.932Z" fill="#003C56"/>
<defs>
<linearGradient id="paint0_linear_105_10456" x1="21.2372" y1="22.0002" x2="59.3593" y2="54.4737" gradientUnits="userSpaceOnUse">
<stop stop-color="#5A9FD4"/>
<stop offset="1" stop-color="#306998"/>
</linearGradient>
<linearGradient id="paint1_linear_105_10456" x1="64.3503" y1="82.1515" x2="50.6524" y2="62.9862" gradientUnits="userSpaceOnUse">
<stop stop-color="#FFD43B"/>
<stop offset="1" stop-color="#FFE873"/>
</linearGradient>
</defs>
</svg>
