<svg width="112" height="140" viewBox="0 0 112 140" fill="none" xmlns="http://www.w3.org/2000/svg">
<rect y="0.0991211" width="111.822" height="139.777" rx="6.98884" fill="white"/>
<rect x="5.58789" y="5.68896" width="100.639" height="100.639" rx="6.78724" fill="#EAF1FF"/>
<path d="M32.2949 54.741C31.4865 54.9524 26.9768 57.3464 22.7584 60.6749C21.2754 61.8451 22.1123 64.2309 23.9937 64.2309C25.3879 64.2309 25.4795 63.1048 30.746 60.0231C31.0233 58.1103 31.5584 56.3699 32.2949 54.741ZM31.6668 68.8001C26.8893 71.313 24.1281 73.7722 22.8699 74.6301C21.961 75.25 21.7268 76.4894 22.3467 77.3983C22.9686 78.31 24.2086 78.5393 25.1147 77.9215C26.5974 76.9103 29.1285 74.6223 33.6162 72.2763C32.8181 71.2072 32.1627 70.0386 31.6668 68.8001ZM89.5907 41.5837C88.9269 40.7064 87.6777 40.5335 86.8002 41.1971C86.4204 41.4846 86.0504 41.7848 85.6908 42.0972C73.4399 52.7423 60.6913 48.4207 45.4184 50.7829C45.6404 52.0407 45.8719 53.3498 46.1121 54.7071C60.8817 52.451 74.857 56.7888 88.3037 45.1046C88.5956 44.8511 88.8959 44.6075 89.2041 44.3741C90.0816 43.7104 90.2546 42.4611 89.5907 41.5837Z" fill="#6683C2"/>
<path d="M89.2093 44.3761C88.9025 44.6072 88.5997 44.8528 88.3088 45.1065C79.1387 53.0747 69.7231 53.5914 59.9766 53.8291V49.8476C69.1679 49.6391 77.5424 49.1836 85.6953 42.0985C86.0538 41.7864 86.427 41.4836 86.8042 41.1981C87.682 40.5354 88.9317 40.708 89.5957 41.5845C90.2597 42.4624 90.0858 43.7121 89.2093 44.3761Z" fill="#6683C2"/>
<path d="M89.5099 55.5357C88.7882 54.705 87.53 54.6169 86.6996 55.3387C77.5636 63.2777 68.4288 62.8577 57.0547 63.1834C57.4824 64.4612 57.647 65.8123 57.5385 67.1553C63.3722 66.9973 69.0225 67.0455 74.6656 65.7715C80.2133 64.5189 85.0045 62.0901 89.3129 58.346C90.1433 57.6243 90.2315 56.3661 89.5099 55.5357Z" fill="#6683C2"/>
<path d="M89.3127 58.3451C85.0045 62.0901 80.213 64.5178 74.6659 65.7715C69.8119 66.8671 64.9526 66.9853 59.9766 67.0969V63.1087C70.0205 62.867 78.3592 62.5855 86.7006 55.3384C87.5306 54.6173 88.7883 54.7049 89.5107 55.5349C90.2317 56.3663 90.1441 57.6239 89.3127 58.3451Z" fill="#6683C2"/>
<path d="M46.9676 55.7081C46.2716 51.7821 45.5791 47.8555 44.8902 43.9283C46.7759 41.8393 48.4489 39.749 49.5378 37.406C50.9012 34.4722 51.5204 31.7619 51.3786 29.3505C50.7648 18.9085 36.7409 19.7844 38.9635 33.0269C39.3671 35.432 39.9511 38.8116 40.6265 42.6764C35.1089 48.5821 30.2438 53.7418 29.89 62.0899C29.4496 72.479 38.2085 80.0131 47.036 78.8072C47.3014 80.29 47.4578 81.1624 47.4675 81.2164C47.9181 83.7693 46.0055 86.0484 43.5005 86.225C40.9779 86.4018 38.7704 84.3919 38.8805 81.7948L38.8922 81.5178C38.9388 80.4187 38.0856 79.4899 36.9863 79.4432C35.8899 79.3924 34.9583 80.2498 34.9118 81.3491L34.9001 81.626C34.6916 86.5435 38.84 90.5486 43.7807 90.199C48.6918 89.8526 52.2431 85.3529 51.3899 80.5183C51.2189 79.5653 51.0482 78.6123 50.8778 77.6593C54.5604 75.904 57.3411 72.4585 58.0799 68.1629C59.288 61.1393 53.3781 55.1351 46.9676 55.7081ZM45.9247 35.7269C45.442 36.7657 44.778 37.7869 43.9964 38.8075C43.5584 36.2842 43.1797 34.0782 42.8925 32.3675C41.2733 22.7196 50.9974 24.8106 45.9247 35.7269ZM33.8704 62.2584C34.1309 56.1109 37.6877 51.7025 41.488 47.5886C42.0217 50.6225 42.5847 53.8077 43.1434 56.9594C39.6993 59.0379 38.0014 63.1216 39.1776 66.6838C39.5225 67.7285 40.6488 68.2958 41.6937 67.9508C42.7385 67.6059 43.3057 66.4793 42.9607 65.4347C42.5301 64.1307 42.8959 62.6434 43.9385 61.4401C44.8452 66.5428 45.6951 71.3063 46.3335 74.8793C39.9997 75.6324 33.5398 70.059 33.8704 62.2584ZM54.1537 67.4876C53.7097 70.0686 52.1994 72.206 50.1379 73.5207C49.4679 69.7702 48.5914 64.8563 47.6688 59.6605C51.4111 59.5731 54.8882 63.2163 54.1537 67.4876Z" fill="#F37E60"/>
<path d="M85.3564 74.2226C83.7603 72.9817 82.1228 71.4523 80.9573 69.5978L79.937 67.9744C79.7209 67.6305 79.318 67.4773 78.9436 67.5966C78.7618 67.655 78.6025 67.774 78.4893 67.9358C78.3761 68.0977 78.315 68.2939 78.315 68.4954V83.2306C77.7921 82.9071 77.1922 82.7082 76.5443 82.7082C74.5912 82.7082 73.0029 84.393 73.0029 86.4649C73.0029 88.5368 74.5912 90.2215 76.5443 90.2215C78.4975 90.2215 80.0857 88.5367 80.0857 86.4648V71.5791C81.3368 73.2566 82.9018 74.6427 84.3094 75.7377C85.001 76.2752 85.3979 77.1044 85.3979 78.0123C85.3979 79.5659 84.2064 80.8298 82.7418 80.8298C82.2524 80.8298 81.8565 81.2499 81.8565 81.769C81.8565 82.2881 82.2524 82.7082 82.7418 82.7082C85.1826 82.7082 87.1686 80.6015 87.1686 78.0123C87.1686 76.5219 86.4916 75.1058 85.3564 74.2226Z" fill="#F2C45B"/>
<path d="M74.8579 25.0889L64.0033 28.1399C63.8427 28.1856 63.7015 28.2818 63.601 28.4142C63.5005 28.5466 63.446 28.7079 63.446 28.8737V39.2137C62.9923 38.951 62.472 38.7894 61.91 38.7894C60.2157 38.7894 58.8379 40.1578 58.8379 41.8405C58.8379 43.5231 60.2157 44.8915 61.91 44.8915C63.6043 44.8915 64.982 43.5231 64.982 41.8405V32.5003L74.3006 29.8851V36.1627C73.847 35.9 73.3266 35.7384 72.7646 35.7384C71.0703 35.7384 69.6925 37.1068 69.6925 38.7894C69.6925 40.4721 71.0703 41.8405 72.7646 41.8405C74.4589 41.8405 75.8367 40.4721 75.8367 38.7894V25.8227C75.8367 25.3182 75.3508 24.9507 74.8579 25.0889Z" fill="#F2C45B"/>
<path d="M37.586 124.467L36.2625 124.467L32.57 116.751L33.4964 116.738L33.4964 125.486L31.7759 125.486L31.7759 116.023L33.8405 116.023L37.2948 123.276L36.5669 123.276L40.0212 116.023L42.0594 116.023L42.0594 125.486L40.3124 125.486L40.3124 116.738L41.2785 116.751L37.586 124.467ZM49.0371 118.829L50.7974 118.829L47.6342 126.253C47.3783 126.845 47.0563 127.29 46.6681 127.59C46.2798 127.899 45.7637 128.053 45.1196 128.053L44.2593 128.053L44.2593 126.624L45.0269 126.624C45.2916 126.624 45.5122 126.562 45.6887 126.439C45.874 126.324 46.0195 126.139 46.1254 125.883L46.271 125.499L43.4255 118.829L45.2387 118.829L47.4092 124.506L46.8401 124.506L49.0371 118.829ZM53.9763 125.698C53.4116 125.698 52.8558 125.601 52.3087 125.406C51.7705 125.203 51.3117 124.904 50.9323 124.506L51.8455 123.474C52.4102 124.03 53.1072 124.308 53.9366 124.308C54.4131 124.308 54.7792 124.233 55.0351 124.083C55.2998 123.924 55.4322 123.704 55.4322 123.421C55.4322 122.918 54.9866 122.667 54.0954 122.667L52.7852 122.667L52.7852 121.529L54.0822 121.529C54.4704 121.529 54.7616 121.467 54.9557 121.343C55.1498 121.211 55.2469 121.026 55.2469 120.787C55.2469 120.54 55.1278 120.351 54.8895 120.218C54.6601 120.077 54.3425 120.007 53.9366 120.007C53.2043 120.007 52.569 120.28 52.0308 120.827L51.1308 119.755C51.8984 118.996 52.8514 118.617 53.9896 118.617C54.5631 118.617 55.066 118.701 55.4983 118.868C55.9395 119.036 56.288 119.27 56.5439 119.57C56.7998 119.861 56.9277 120.192 56.9277 120.562C56.9277 120.915 56.8263 121.22 56.6233 121.476C56.4204 121.723 56.1292 121.908 55.7498 122.032L55.7498 121.912C56.1822 122.027 56.5174 122.226 56.7557 122.508C57.0027 122.782 57.1262 123.117 57.1262 123.514C57.1262 123.929 56.9895 124.304 56.716 124.639C56.4424 124.965 56.0719 125.226 55.6042 125.42C55.1366 125.605 54.594 125.698 53.9763 125.698ZM58.4343 125.486L58.4343 118.829L60.1152 118.829L60.1152 125.261L58.8578 124.083L61.5445 124.083C61.8887 124.083 62.1533 124.004 62.3386 123.845C62.5239 123.686 62.6166 123.461 62.6166 123.17C62.6166 122.879 62.5239 122.658 62.3386 122.508C62.1533 122.349 61.8887 122.27 61.5445 122.27L59.3343 122.27L59.3343 120.854L61.7166 120.854C62.5283 120.854 63.1769 121.065 63.6621 121.489C64.1474 121.912 64.3901 122.455 64.3901 123.117C64.3901 123.602 64.2798 124.021 64.0592 124.374C63.8386 124.727 63.5254 125.001 63.1195 125.195C62.7136 125.389 62.246 125.486 61.7166 125.486L58.4343 125.486ZM65.118 125.486L65.118 118.829L66.865 118.829L66.865 125.486L65.118 125.486ZM73.2097 125.486L70.0465 122.018L70.1921 122.018L73.0509 118.829L75.142 118.829L71.7406 122.614L71.648 121.449L75.4067 125.486L73.2097 125.486ZM68.6966 125.486L68.6966 118.829L70.4436 118.829L70.4436 125.486L68.6966 125.486ZM82.2274 125.486L80.6393 125.486L80.6393 124.149L80.5598 123.937L80.5598 121.436C80.5598 120.968 80.4098 120.607 80.1099 120.351C79.8099 120.095 79.3996 119.967 78.879 119.967C78.4996 119.967 78.1423 120.042 77.807 120.192C77.4805 120.333 77.1938 120.536 76.9467 120.801L76.0335 119.742C76.3864 119.389 76.8144 119.115 77.3173 118.921C77.8202 118.718 78.3673 118.617 78.9584 118.617C79.6025 118.617 80.1716 118.727 80.6657 118.948C81.1598 119.168 81.5436 119.486 81.8172 119.901C82.0907 120.307 82.2274 120.805 82.2274 121.396L82.2274 125.486ZM78.3761 125.698C77.8643 125.698 77.4143 125.605 77.0261 125.42C76.6379 125.234 76.3335 124.979 76.1129 124.652C75.9011 124.326 75.7953 123.946 75.7953 123.514C75.7953 123.055 75.9276 122.667 76.1923 122.349C76.457 122.023 76.832 121.771 77.3173 121.595C77.8114 121.418 78.3805 121.33 79.0246 121.33L80.7319 121.33L80.7319 122.468L79.1569 122.468C78.6805 122.468 78.2967 122.552 78.0055 122.72C77.7143 122.887 77.5687 123.13 77.5687 123.448C77.5687 123.739 77.679 123.968 77.8996 124.136C78.129 124.304 78.4246 124.387 78.7864 124.387C79.1305 124.387 79.4437 124.317 79.726 124.176C80.0084 124.026 80.2378 123.823 80.4143 123.567C80.5907 123.311 80.6922 123.02 80.7187 122.693L81.2216 122.931C81.2216 123.479 81.1025 123.959 80.8642 124.374C80.626 124.789 80.2907 125.115 79.8584 125.353C79.4349 125.583 78.9408 125.698 78.3761 125.698Z" fill="#003C56"/>
</svg>
