<svg width="112" height="141" viewBox="0 0 112 141" fill="none" xmlns="http://www.w3.org/2000/svg">
<rect y="0.653076" width="111.822" height="139.777" rx="6.98884" fill="white"/>
<rect x="5.58789" y="6.24292" width="100.639" height="100.639" rx="6.78724" fill="#EAF1FF"/>
<path d="M78.0512 51.058V48.1174H75.1105V45.1767H69.2293V42.2361H60.4073V39.2955H54.5261V27.5329H51.5854V24.5923H45.7042V27.5329H42.7635V53.9987H39.8229V51.058H31.001V53.9987V55.469V59.8799H33.9416V62.8206H36.8823V68.7018H39.8229V74.5831H42.7635V80.4644H45.7042V86.3457V89.2863H72.1699H75.1105V80.4644H78.0512V71.6425H80.9918V51.058H78.0512Z" fill="white"/>
<path d="M45.7131 27.5334H42.7725V62.8211H45.7131V27.5334Z" fill="black"/>
<path d="M51.5883 24.594H45.707V27.5346H51.5883V24.594Z" fill="black"/>
<path d="M54.5315 27.5334H51.5908V53.9992H54.5315V27.5334Z" fill="black"/>
<path d="M60.4115 39.3005H54.5303V42.2412H60.4115V39.3005Z" fill="black"/>
<path d="M63.3488 45.1792H60.4082V54.0011H63.3488V45.1792Z" fill="black"/>
<path d="M69.2301 42.24H60.4082V45.1806H69.2301V42.24Z" fill="black"/>
<path d="M72.1721 48.1187H69.2314V56.9406H72.1721V48.1187Z" fill="black"/>
<path d="M75.1127 45.1792H69.2314V48.1198H75.1127V45.1792Z" fill="black"/>
<path d="M78.0559 48.1187H75.1152V51.0593H78.0559V48.1187Z" fill="black"/>
<path d="M81.0002 51.0579H78.0596V71.6423H81.0002V51.0579Z" fill="black"/>
<path d="M78.0559 71.6431H75.1152V80.465H78.0559V71.6431Z" fill="black"/>
<path d="M75.1164 80.4612H72.1758V89.2831H75.1164V80.4612Z" fill="black"/>
<path d="M72.1728 86.3496H45.707V89.2902H72.1728V86.3496Z" fill="black"/>
<path d="M42.7639 53.9973H39.8232V56.938H42.7639V53.9973Z" fill="black"/>
<path d="M39.8278 51.0579H31.0059V53.9985H39.8278V51.0579Z" fill="black"/>
<path d="M33.9465 53.9973H31.0059V59.8786H33.9465V53.9973Z" fill="black"/>
<path d="M36.885 59.8857H33.9443V62.8264H36.885V59.8857Z" fill="black"/>
<path d="M39.8293 62.8252H36.8887V68.7065H39.8293V62.8252Z" fill="black"/>
<path d="M42.7639 68.7039H39.8232V74.5851H42.7639V68.7039Z" fill="black"/>
<path d="M45.7131 74.5825H42.7725V80.4638H45.7131V74.5825Z" fill="black"/>
<path d="M48.6477 80.4612H45.707V86.3425H48.6477V80.4612Z" fill="black"/>
<path d="M43.6347 123.287L44.8126 124.478C44.3979 125.007 43.8509 125.435 43.1715 125.762C42.5009 126.088 41.7642 126.252 40.9613 126.252C40.2289 126.252 39.5584 126.132 38.9496 125.894C38.3407 125.647 37.8113 125.303 37.3614 124.862C36.9202 124.412 36.5761 123.887 36.329 123.287C36.0908 122.687 35.9717 122.025 35.9717 121.302C35.9717 120.596 36.0952 119.943 36.3423 119.343C36.5981 118.734 36.9511 118.209 37.4011 117.768C37.8511 117.318 38.3805 116.974 38.9893 116.736C39.6069 116.489 40.2775 116.365 41.001 116.365C41.8039 116.365 42.5362 116.528 43.198 116.855C43.8597 117.181 44.3979 117.609 44.8126 118.139L43.6347 119.33C43.3436 118.906 42.9686 118.571 42.5098 118.324C42.0598 118.068 41.5568 117.94 41.001 117.94C40.401 117.94 39.8628 118.086 39.3863 118.377C38.9187 118.668 38.5481 119.065 38.2746 119.568C38.001 120.071 37.8643 120.649 37.8643 121.302C37.8643 121.955 38.001 122.537 38.2746 123.049C38.5481 123.552 38.9187 123.949 39.3863 124.24C39.8628 124.531 40.401 124.677 41.001 124.677C41.5568 124.677 42.0598 124.553 42.5098 124.306C42.9686 124.05 43.3436 123.71 43.6347 123.287ZM52.1839 126.04L50.5957 126.04L50.5957 124.703L50.5163 124.491L50.5163 121.99C50.5163 121.522 50.3663 121.161 50.0663 120.905C49.7663 120.649 49.356 120.521 48.8354 120.521C48.456 120.521 48.0987 120.596 47.7634 120.746C47.4369 120.887 47.1502 121.09 46.9031 121.355L45.9899 120.296C46.3429 119.943 46.7708 119.669 47.2737 119.475C47.7766 119.272 48.3237 119.171 48.9148 119.171C49.5589 119.171 50.128 119.281 50.6221 119.502C51.1163 119.722 51.5001 120.04 51.7736 120.455C52.0471 120.861 52.1839 121.359 52.1839 121.95L52.1839 126.04ZM48.3325 126.252C47.8208 126.252 47.3708 126.159 46.9825 125.974C46.5943 125.788 46.2899 125.532 46.0693 125.206C45.8576 124.88 45.7517 124.5 45.7517 124.068C45.7517 123.609 45.884 123.221 46.1487 122.903C46.4134 122.577 46.7884 122.325 47.2737 122.149C47.7678 121.972 48.3369 121.884 48.981 121.884L50.6883 121.884L50.6883 123.022L49.1134 123.022C48.6369 123.022 48.2531 123.106 47.9619 123.274C47.6708 123.441 47.5252 123.684 47.5252 124.002C47.5252 124.293 47.6355 124.522 47.856 124.69C48.0855 124.857 48.381 124.941 48.7428 124.941C49.0869 124.941 49.4001 124.871 49.6825 124.73C49.9648 124.58 50.1942 124.377 50.3707 124.121C50.5472 123.865 50.6486 123.574 50.6751 123.247L51.178 123.485C51.178 124.032 51.0589 124.513 50.8207 124.928C50.5824 125.343 50.2472 125.669 49.8148 125.907C49.3913 126.137 48.8972 126.252 48.3325 126.252ZM53.775 126.04L53.775 119.383L55.4426 119.383L55.4426 123.816L55.3499 123.79L58.6851 119.383L60.2204 119.383L60.2204 126.04L58.5528 126.04L58.5528 121.606L58.6454 121.633L55.3102 126.04L53.775 126.04ZM57.0705 118.258C56.4352 118.258 55.9058 118.099 55.4823 117.781C55.0587 117.455 54.794 116.965 54.6882 116.312L56.0514 116.312C56.1043 116.665 56.219 116.917 56.3955 117.067C56.5719 117.217 56.7969 117.291 57.0705 117.291C57.3528 117.291 57.5778 117.217 57.7454 117.067C57.9219 116.917 58.0322 116.665 58.0763 116.312L59.4527 116.312C59.3557 116.965 59.0954 117.455 58.6719 117.781C58.2484 118.099 57.7146 118.258 57.0705 118.258ZM63.6879 126.04L63.6879 119.978L65.4349 119.978L65.4349 126.04L63.6879 126.04ZM61.438 120.786L61.438 119.383L67.6849 119.383L67.6849 120.786L61.438 120.786ZM68.884 126.04L68.884 119.383L70.5648 119.383L70.5648 125.815L69.3075 124.637L71.9942 124.637C72.3383 124.637 72.603 124.557 72.7883 124.399C72.9736 124.24 73.0662 124.015 73.0662 123.724C73.0662 123.433 72.9736 123.212 72.7883 123.062C72.603 122.903 72.3383 122.824 71.9942 122.824L69.784 122.824L69.784 121.408L72.1663 121.408C72.978 121.408 73.6265 121.619 74.1118 122.043C74.5971 122.466 74.8397 123.009 74.8397 123.671C74.8397 124.156 74.7294 124.575 74.5088 124.928C74.2883 125.281 73.975 125.555 73.5692 125.749C73.1633 125.943 72.6956 126.04 72.1663 126.04L68.884 126.04ZM75.5676 126.04L75.5676 119.383L77.3146 119.383L77.3146 126.04L75.5676 126.04Z" fill="#003C56"/>
</svg>
