<svg width="112" height="141" viewBox="0 0 112 141" fill="none" xmlns="http://www.w3.org/2000/svg">
<rect y="0.429932" width="111.822" height="139.777" rx="6.98884" fill="white"/>
<rect x="5.58789" y="6.01978" width="100.639" height="100.639" rx="6.78724" fill="#EAF1FF"/>
<path d="M30.2039 88.4784C30.2471 88.5333 30.2982 88.5883 30.3453 88.6433C30.1765 88.926 30.4199 89.299 30.6594 89.566C30.6673 89.5895 30.6751 89.6092 30.683 89.6288C30.6908 89.6877 30.7144 89.7309 30.7497 89.7623C30.8322 89.8958 30.9539 90.0018 31.1149 90.0332C31.1306 90.0371 31.1423 90.0332 31.1541 90.0371C31.2955 90.1471 31.4525 90.2413 31.6214 90.2766C31.9394 90.3434 32.2692 90.2138 32.548 90.0685C32.7129 89.9822 32.8778 89.8958 33.0388 89.8133C33.506 89.778 33.9732 89.6838 34.4326 89.6288C37.4245 89.2872 40.436 89.4953 43.4358 89.4443C46.4002 89.3932 49.3724 89.0359 52.0894 87.7795C54.7358 86.5584 57.0602 84.5795 58.4423 81.9881C59.7694 79.4988 60.2445 76.4794 59.4317 73.7467C59.4749 73.7153 59.5181 73.6799 59.5456 73.6368L62.5021 69.1843C62.7141 68.8898 62.5453 68.3558 62.0899 67.6883C79.3972 45.795 91.5611 27.0741 89.8374 24.895C89.8138 24.8636 89.7864 24.8361 89.7549 24.8086C87.5837 23.0732 71.5759 39.4579 53.605 61.7321C53.5932 61.7281 53.5815 61.7281 53.5736 61.7281C53.5304 61.7203 53.4872 61.7124 53.444 61.7046C53.3891 61.6967 53.338 61.6889 53.287 61.6849C53.2477 61.681 53.2084 61.6771 53.1731 61.6771C53.126 61.6732 53.0789 61.6732 53.0318 61.6771C53.0003 61.6771 52.965 61.681 52.9336 61.681C52.8904 61.6849 52.8511 61.6928 52.8119 61.7006C52.7844 61.7046 52.7608 61.7124 52.7373 61.7203C52.698 61.7321 52.6627 61.7517 52.6273 61.7674C52.6116 61.7752 52.592 61.7831 52.5763 61.7949C52.5292 61.8263 52.4899 61.8616 52.4585 61.9048L49.1565 66.0825C48.0571 65.9647 46.9498 65.949 45.8426 66.0471C43.2237 66.2866 40.648 67.1347 38.4414 68.5718C35.9129 70.2169 33.8829 72.6159 32.4145 75.2348C30.8793 77.9832 29.9291 81.0419 29.5482 84.1633C29.3676 85.6435 29.2145 87.2376 30.2039 88.4784Z" fill="#F37E60"/>
<path d="M30.2076 88.4772C30.2508 88.5321 30.3018 88.5871 30.3489 88.6421C30.1801 88.9248 30.4235 89.2978 30.663 89.5648C30.6709 89.5883 30.6787 89.6079 30.6866 89.6276C30.6944 89.6865 30.718 89.7297 30.7533 89.7611C30.8358 89.8946 30.9575 90.0006 31.1185 90.032C31.1342 90.0359 31.146 90.032 31.1577 90.0359C31.2991 90.1459 31.4561 90.2401 31.625 90.2754C31.943 90.3422 32.2728 90.2126 32.5516 90.0673C32.7165 89.9809 32.8814 89.8946 33.0424 89.8121C33.5096 89.7768 33.9769 89.6825 34.4362 89.6276C37.4281 89.286 40.4396 89.4941 43.4394 89.443C46.4038 89.392 49.376 89.0347 52.0931 87.7783C54.7394 86.5572 57.0638 84.5783 58.4459 81.9869C59.773 79.4976 60.2481 76.4782 59.4353 73.7455C59.2312 73.8868 58.8935 73.9104 58.4538 73.8319C58.2064 73.7887 57.9276 73.7101 57.6214 73.6041C57.3936 73.5256 57.1541 73.4314 56.8989 73.3214C56.5495 73.1683 56.1725 72.9798 55.7838 72.7678C55.4187 72.5676 55.0378 72.3477 54.6491 72.1003C54.3311 71.9001 54.0052 71.6841 53.6793 71.4564C53.5733 71.3818 53.4673 71.3072 53.3613 71.2326C52.9529 70.9342 52.5642 70.6358 52.1991 70.3335C51.775 69.984 51.3824 69.6346 51.0329 69.2969C50.9309 69.1988 50.8327 69.1006 50.7345 69.0024C50.7306 68.9985 50.7306 68.9985 50.7267 68.9946C50.656 68.9239 50.5893 68.8532 50.5225 68.7826C50.4322 68.6844 50.3419 68.5902 50.2595 68.4959C50.1338 68.3507 50.0121 68.2132 49.9061 68.0758C49.9022 68.068 49.8943 68.0601 49.8904 68.0562C49.8158 67.962 49.749 67.8717 49.6823 67.7853C49.6784 67.7774 49.6744 67.7735 49.6705 67.7656C49.592 67.6596 49.5213 67.5536 49.4585 67.4515C49.4153 67.3848 49.38 67.322 49.3446 67.2591C49.3407 67.2513 49.3328 67.2434 49.3289 67.2317C49.2857 67.1571 49.2504 67.0825 49.219 67.0118C49.215 67 49.2111 66.9921 49.2033 66.9804C49.1719 66.9097 49.1444 66.8429 49.1247 66.7762C49.1247 66.7723 49.1208 66.7644 49.1208 66.7605C49.1012 66.6977 49.0855 66.6388 49.0776 66.5799C49.0776 66.576 49.0737 66.5681 49.0737 66.5603C49.0658 66.5014 49.0619 66.4503 49.0619 66.3993C49.0619 66.3914 49.0619 66.3796 49.0619 66.3718C49.0658 66.3207 49.0737 66.2776 49.0855 66.2344C49.0894 66.2265 49.0894 66.2187 49.0933 66.2147C49.109 66.1715 49.1287 66.1284 49.1561 66.093L49.1679 66.0812C48.0685 65.9634 46.9613 65.9477 45.8541 66.0459C43.2352 66.2854 40.6595 67.1335 38.4529 68.5705C35.9243 70.2157 33.8944 72.6147 32.426 75.2336C30.8908 77.982 29.9406 81.0406 29.5597 84.1621C29.3713 85.6423 29.2181 87.2364 30.2076 88.4772Z" fill="#B56740"/>
<path d="M57.469 63.5586C63.1583 56.3105 69.036 49.2392 74.9923 42.2071C78.0313 38.6184 81.0703 35.0376 83.9915 31.3546C84.3841 30.8599 84.7807 30.3652 85.1851 29.8744L87.2072 27.5225C88.0435 26.6038 88.9152 25.7164 89.8457 24.8919C89.8221 24.8605 89.7947 24.833 89.7633 24.8055C87.592 23.07 71.5842 39.4547 53.6133 61.7289C54.5596 61.9213 55.9613 62.577 57.469 63.5586Z" fill="#FDA189"/>
<path d="M49.0642 66.5746C49.0642 66.5785 49.0681 66.5863 49.0681 66.5942C49.0799 66.6531 49.0917 66.712 49.1113 66.7748C49.1113 66.7787 49.1152 66.7866 49.1152 66.7905C49.1348 66.8533 49.1623 66.924 49.1937 66.9947C49.1977 67.0065 49.2016 67.0143 49.2094 67.0261C49.2409 67.0968 49.2762 67.1675 49.3194 67.246C49.3233 67.2538 49.3312 67.2617 49.3351 67.2735C49.3704 67.3363 49.4097 67.3991 49.449 67.4659C49.4529 67.4737 49.4607 67.4816 49.4647 67.4894C49.5236 67.5836 49.5903 67.6779 49.661 67.78C49.6649 67.7878 49.6688 67.7917 49.6728 67.7996C49.7356 67.8899 49.8063 67.9802 49.8809 68.0705C49.8848 68.0784 49.8926 68.0862 49.8966 68.0901C49.9555 68.1608 50.0144 68.2354 50.0772 68.31C50.0772 68.31 50.0772 68.31 50.0811 68.3139C50.1361 68.3807 50.191 68.4435 50.2499 68.5103C50.2578 68.5181 50.2656 68.526 50.2696 68.5338C50.3442 68.6163 50.4227 68.7027 50.5012 68.7851C50.5051 68.789 50.5091 68.793 50.513 68.7969C50.5797 68.8676 50.6465 68.9382 50.7172 69.0089C50.7211 69.0128 50.7211 69.0128 50.725 69.0168C50.8193 69.1149 50.9174 69.2131 51.0234 69.3112C51.0352 69.3191 51.0431 69.3309 51.0548 69.3387C51.0627 69.3426 51.0666 69.3505 51.0745 69.3544C51.1726 69.4487 51.2747 69.5429 51.3807 69.6411C51.4082 69.6646 51.4357 69.6921 51.4632 69.7157C51.5496 69.7942 51.6399 69.8766 51.7341 69.9552C51.7655 69.9826 51.7969 70.0101 51.8283 70.0376C51.9461 70.1397 52.0678 70.2457 52.1935 70.3478C52.5586 70.6501 52.9473 70.9485 53.3557 71.2469C53.4617 71.3255 53.5677 71.3961 53.6737 71.4707C53.9996 71.6985 54.3255 71.9144 54.6435 72.1147C55.0322 72.3581 55.4131 72.5819 55.7782 72.7821C56.1669 72.9942 56.5439 73.1787 56.8933 73.3358C57.1485 73.4496 57.388 73.5399 57.6158 73.6184C57.9181 73.7245 58.2008 73.803 58.4482 73.8462C58.8918 73.9247 59.2295 73.9011 59.4297 73.7598C59.4729 73.7284 59.5161 73.693 59.5436 73.6499L62.5002 69.1974C62.7122 68.9029 62.5433 68.3689 62.0879 67.7014C61.4086 66.712 60.0933 65.4359 58.4364 64.2345C58.1105 63.9989 57.7846 63.7751 57.4626 63.567C55.9549 62.5854 54.5532 61.9336 53.603 61.7373C53.5913 61.7334 53.5795 61.7334 53.5716 61.7334C53.5284 61.7255 53.4852 61.7177 53.4421 61.7137C53.3871 61.7059 53.336 61.698 53.285 61.6941C53.2457 61.6902 53.2065 61.6863 53.1711 61.6863C53.124 61.6823 53.0769 61.6823 53.0298 61.6863C52.9984 61.6863 52.963 61.6902 52.9316 61.6902C52.8884 61.6941 52.8492 61.702 52.8099 61.7098C52.7824 61.7137 52.7589 61.7216 52.7353 61.7295C52.6961 61.7412 52.6607 61.7609 52.6254 61.7766C52.6097 61.7844 52.59 61.7923 52.5743 61.8041C52.5272 61.8355 52.488 61.8708 52.4565 61.914L49.1545 66.0916L49.1427 66.1034C49.1152 66.1387 49.0956 66.1819 49.0799 66.2251C49.076 66.233 49.076 66.2408 49.072 66.2448C49.0602 66.2879 49.0524 66.3351 49.0485 66.3822C49.0485 66.39 49.0485 66.4018 49.0485 66.4097C49.0524 66.4607 49.0563 66.5157 49.0642 66.5746Z" fill="#F2C45B"/>
<path d="M36.0418 88.6708C38.5193 88.0622 41.0989 88.0465 43.6354 87.9444C46.1325 87.8423 48.6925 87.6892 51.0522 86.8057C53.4512 85.9105 55.4262 84.2144 56.7297 82.0117C58.1825 79.5577 58.6811 76.6601 58.4416 73.8409C58.1943 73.7977 57.9155 73.7192 57.6092 73.6132C57.727 75.8394 57.3737 78.0853 56.4353 80.1192C55.4183 82.3179 53.7339 84.2183 51.5862 85.3609C47.2869 87.6538 42.163 86.8646 37.4985 87.4379C36.3441 87.5792 35.1898 87.803 34.0825 88.1682C37.0077 86.2757 40.7809 85.8516 44.1615 85.2588C46.4152 84.8622 48.6768 84.3636 50.7263 83.3113C52.7288 82.2826 54.3072 80.6846 55.328 78.6821C56.18 77.0134 56.6473 75.1798 56.8829 73.3227C56.5334 73.1695 56.1565 72.9811 55.7678 72.769C55.5754 74.422 55.2024 76.0554 54.5506 77.5867C53.6593 79.6676 52.2184 81.407 50.2591 82.5614C46.3171 84.8858 41.5073 84.7366 37.2079 85.9459C35.5314 86.417 33.8823 87.0963 32.4806 88.125C33.0146 86.7508 33.9608 85.5572 35.0916 84.5874C36.8702 83.0639 39.0337 82.1687 41.2167 81.3874C43.4783 80.5786 45.7752 79.8561 47.8758 78.6703C49.7016 77.6416 51.3781 76.3263 52.7602 74.7518C53.4748 73.9352 54.1069 73.0478 54.637 72.1016C54.319 71.9013 53.9931 71.6854 53.6672 71.4576C52.2498 74.1511 49.9568 76.3617 47.3497 77.944C45.3041 79.1847 43.0464 79.9386 40.8005 80.7278C38.5861 81.5052 36.352 82.3533 34.4791 83.806C33.4268 84.6227 32.4845 85.6278 31.8288 86.7861C32.1625 83.5587 33.5917 80.4529 35.8926 78.1442C39.1397 74.8814 43.8474 74.0019 47.7305 71.76C48.9163 71.0768 50.0549 70.2679 51.0208 69.2981C50.9187 69.2 50.8206 69.1018 50.7224 69.0037C50.7185 68.9997 50.7185 68.9997 50.7146 68.9958C50.6439 68.9251 50.5771 68.8545 50.5104 68.7838C48.1624 71.4655 44.4481 72.7023 41.2481 74.1001C39.1122 75.0345 37.0391 76.1182 35.3233 77.7241C33.8155 79.1376 32.6102 80.8848 31.8092 82.7852C31.7974 82.8166 31.7817 82.8519 31.7699 82.8833C32.2175 80.5864 33.0735 78.3798 34.4163 76.4205C35.606 74.6851 37.1333 73.197 38.9198 72.0858C40.7181 70.9668 42.7166 70.1933 44.7544 69.6358C46.5605 69.1411 48.4019 68.7995 50.2513 68.4972C50.1256 68.3519 50.0039 68.2145 49.8979 68.077C49.894 68.0692 49.8861 68.0613 49.8822 68.0574C49.8076 67.9632 49.7408 67.8729 49.6741 67.7865C49.6702 67.7786 49.6662 67.7747 49.6623 67.7669C49.5838 67.6608 49.5131 67.5548 49.4503 67.4528C45.8145 68.0574 42.1473 68.8623 38.9355 70.7038C35.0288 72.9457 32.3392 76.715 31.1574 81.034C30.4938 83.4566 30.3211 86.0048 30.5292 88.5059C30.5056 88.5019 30.4821 88.5019 30.4664 88.5137C30.4114 88.553 30.3761 88.6001 30.3486 88.6433C30.1758 88.926 30.4232 89.299 30.6627 89.566C30.6705 89.5895 30.6784 89.6092 30.6862 89.6288C30.6941 89.6877 30.7176 89.7309 30.753 89.7623C30.8354 89.8958 30.9572 90.0018 31.1181 90.0332C31.1338 90.0371 31.1456 90.0332 31.1574 90.0371C31.2987 90.1471 31.4558 90.2413 31.6246 90.2766C31.9427 90.3434 32.2725 90.2138 32.5513 90.0685C32.7162 89.9822 32.8811 89.8958 33.0421 89.8133C33.4347 89.6052 33.8312 89.4011 34.2474 89.2362C34.8246 89.0084 35.4293 88.8239 36.0418 88.6708Z" fill="#864636"/>
<path d="M49.0674 66.593C49.0674 66.5969 49.0713 66.6048 49.0713 66.6126C49.0831 66.6715 49.0949 66.7304 49.1145 66.7932C49.1145 66.7972 49.1184 66.805 49.1184 66.8089C49.138 66.8718 49.1655 66.9424 49.1969 67.0131C49.2009 67.0249 49.2048 67.0327 49.2126 67.0445C49.2441 67.1152 49.2794 67.1859 49.3226 67.2644C49.3265 67.2722 49.3344 67.2801 49.3383 67.2919C49.4286 67.4529 49.5385 67.6217 49.6642 67.7984C49.6681 67.8062 49.672 67.8102 49.676 67.818C49.7388 67.9083 49.8095 67.9986 49.8841 68.0889C49.888 68.0968 49.8958 68.1046 49.8998 68.1086C50.1314 68.3991 50.4063 68.7054 50.7204 69.0273C50.7243 69.0312 50.7243 69.0312 50.7282 69.0352C51.1523 69.4671 51.647 69.9147 52.1927 70.3662C52.5304 69.9343 52.8642 69.5024 53.2018 69.0666C53.5199 68.6582 53.834 68.2538 54.1481 67.8455C54.1677 67.818 54.1913 67.7905 54.2109 67.763C54.5682 67.2997 54.9294 66.8364 55.2867 66.377C55.4752 66.1336 55.6597 65.8941 55.8482 65.6507C56.3822 64.9596 56.924 64.2764 57.4619 63.5893C55.9542 62.6077 54.5525 61.956 53.6023 61.7596C53.5905 61.7557 53.5788 61.7557 53.5709 61.7557C53.5277 61.7479 53.4845 61.74 53.4413 61.7322C53.3864 61.7243 53.3353 61.7165 53.2843 61.7125C53.245 61.7086 53.2057 61.7047 53.1704 61.7047C53.1233 61.7007 53.0762 61.7007 53.0291 61.7047C52.9977 61.7047 52.9623 61.7086 52.9309 61.7086C52.8877 61.7125 52.8484 61.7204 52.8092 61.7282C52.7817 61.7322 52.7581 61.74 52.7346 61.7479C52.6953 61.7596 52.66 61.7793 52.6246 61.795C52.6089 61.8028 52.5893 61.8107 52.5736 61.8225C52.5265 61.8539 52.4872 61.8892 52.4558 61.9324L49.142 66.1218C49.1145 66.1572 49.0949 66.2003 49.0791 66.2435C49.0752 66.2514 49.0752 66.2592 49.0713 66.2632C49.0595 66.3064 49.0517 66.3535 49.0477 66.4006C49.0477 66.4084 49.0477 66.4202 49.0477 66.4281C49.0556 66.4791 49.0595 66.5341 49.0674 66.593Z" fill="#E2B141"/>
<path d="M84.9993 27.9782C81.065 32.093 77.2172 36.2903 73.4636 40.57C69.7179 44.834 66.0664 49.1766 62.5012 53.5937C60.491 56.0869 58.5121 58.6037 56.5607 61.1441C56.4075 61.3443 56.6981 61.3797 56.8434 61.3718C57.0711 61.36 57.4559 61.2815 57.6051 61.0852C61.0721 56.5699 64.6372 52.1292 68.2887 47.7631C71.9323 43.4127 75.6663 39.1369 79.4867 34.9435C80.9708 33.3141 82.4707 31.7043 83.9823 30.1023C84.6694 29.376 85.3526 28.6457 86.0397 27.9232C86.1497 27.8093 86.0672 27.7465 85.9612 27.719C85.8905 27.6994 85.8081 27.6916 85.757 27.6955C85.5136 27.7073 85.1799 27.7897 84.9993 27.9782Z" fill="white"/>
<path d="M53.244 63.1202C52.07 64.0468 51.1041 65.2286 50.4366 66.5675C50.3424 66.7599 50.7664 66.9719 50.8882 67.0191C51.0216 67.074 51.43 67.2311 51.5281 67.0308C52.1799 65.7273 53.1065 64.5847 54.2491 63.6817C54.5161 63.4736 53.5149 62.9082 53.244 63.1202Z" fill="white"/>
<path d="M53.506 44.3871C53.9295 43.1368 54.2051 41.8259 54.3194 40.4748L51.6238 39.1707C51.6238 38.7337 51.6103 38.29 51.57 37.8531C51.5565 37.6985 51.5364 37.5506 51.5229 37.396L54.0572 35.7893C53.7951 34.4583 53.3716 33.1878 52.8136 31.998L49.8155 32.2131C49.5264 31.6955 49.197 31.198 48.8407 30.7208L50.2323 28.0655C49.3516 27.0638 48.35 26.1698 47.2543 25.4034L44.767 27.0907C44.2562 26.7882 43.7318 26.5193 43.1806 26.2841L43.0596 23.2926C41.8294 22.8691 40.5186 22.5935 39.1674 22.4792L37.8633 25.1816C37.4263 25.1749 36.9894 25.195 36.5457 25.2354C36.3911 25.2488 36.2432 25.269 36.0886 25.2892L34.4887 22.7414C33.1577 23.0103 31.8805 23.4271 30.6906 23.985L30.9057 26.9832C30.3881 27.279 29.8907 27.6016 29.4201 27.9579L26.7648 26.5597C25.7632 27.4403 24.8691 28.4419 24.1028 29.5376L25.7901 32.0182C25.4876 32.529 25.2187 33.0534 24.9834 33.6046L21.9853 33.7189C21.5618 34.9692 21.2862 36.2801 21.1719 37.6312L23.8675 38.9354C23.8675 39.3723 23.881 39.816 23.9146 40.2529C23.928 40.4075 23.9482 40.5554 23.9683 40.7101L21.434 42.3167C21.7029 43.6477 22.1197 44.9182 22.6777 46.108L25.6758 45.8929C25.9716 46.4105 26.2942 46.908 26.6505 47.3853L25.2523 50.0406C26.1329 51.0489 27.1345 51.9362 28.2303 52.7026L30.7108 51.0153C31.2217 51.3178 31.7527 51.5867 32.2972 51.822L32.4182 54.8201C33.6686 55.2436 34.9727 55.5192 36.3239 55.6335L37.6347 52.9379C38.0717 52.9379 38.5086 52.9244 38.9523 52.8908C39.1069 52.8774 39.2548 52.8572 39.4027 52.837L41.0026 55.378C42.3403 55.1092 43.6108 54.6924 44.8007 54.1344L44.5855 51.1363C45.1032 50.8405 45.6006 50.5178 46.0779 50.1616L48.7332 51.5598C49.7348 50.6792 50.6289 49.6776 51.3952 48.5818L49.7146 46.1013C50.0104 45.5904 50.286 45.0594 50.5213 44.5149L53.506 44.3871ZM37.749 48.8373C32.3577 48.8373 27.9681 44.4476 27.9681 39.0564C27.9681 33.6651 32.3577 29.2755 37.749 29.2755C43.1403 29.2755 47.5299 33.6651 47.5299 39.0564C47.5299 44.4476 43.1403 48.8373 37.749 48.8373Z" fill="#6683C2"/>
<path d="M28.667 39.0588C28.667 44.0669 32.7407 48.1406 37.7488 48.1406C42.7569 48.1406 46.8306 44.0669 46.8306 39.0588C46.8306 34.0507 42.7569 29.9771 37.7488 29.9771C32.7407 29.9771 28.667 34.0507 28.667 39.0588ZM44.5786 38.4606C44.908 42.2385 42.1115 45.566 38.3403 45.8954C34.5624 46.2248 31.2349 43.4283 30.9055 39.6571C30.5761 35.8792 33.3726 32.5517 37.1438 32.229C40.9284 31.8929 44.2559 34.6894 44.5786 38.4606Z" fill="#6683C2"/>
<path d="M27.9805 39.0565C27.9805 44.4478 32.3701 48.8374 37.7614 48.8374C43.1526 48.8374 47.5423 44.4478 47.5423 39.0565C47.5423 33.6653 43.1526 29.2756 37.7614 29.2756C32.3634 29.2756 27.9805 33.6653 27.9805 39.0565ZM46.8432 39.0565C46.8432 44.0646 42.7695 48.1383 37.7614 48.1383C32.7533 48.1383 28.6796 44.0646 28.6796 39.0565C28.6796 34.0484 32.7533 29.9748 37.7614 29.9748C42.7695 29.9748 46.8432 34.0484 46.8432 39.0565Z" fill="white"/>
<path d="M22.7584 125.817L22.7584 116.354L24.5452 116.354L24.5452 124.996L23.354 124.996L29.0053 116.354L30.9112 116.354L30.9112 125.817L29.1245 125.817L29.1245 117.135L30.3024 117.135L24.6378 125.817L22.7584 125.817ZM36.2328 126.028C35.421 126.028 34.671 125.874 33.9828 125.565C33.3034 125.256 32.7387 124.82 32.2887 124.255L33.4269 123.103C33.7887 123.545 34.2122 123.88 34.6975 124.109C35.1916 124.339 35.721 124.453 36.2857 124.453C36.7092 124.453 37.0798 124.392 37.3974 124.268C37.7151 124.145 37.9621 123.973 38.1386 123.752C38.3239 123.523 38.4165 123.267 38.4165 122.984C38.4165 122.579 38.24 122.265 37.8871 122.045C37.543 121.815 37.0621 121.701 36.4445 121.701L34.5916 121.701L34.5916 120.192L36.4577 120.192C36.9695 120.192 37.3754 120.082 37.6754 119.861C37.9842 119.64 38.1386 119.349 38.1386 118.987C38.1386 118.608 37.9665 118.304 37.6224 118.074C37.2783 117.836 36.8195 117.717 36.246 117.717C35.7166 117.717 35.249 117.823 34.8431 118.035C34.446 118.246 34.0578 118.595 33.6784 119.08L32.5137 117.929C33.0078 117.32 33.5637 116.87 34.1813 116.579C34.8078 116.279 35.5137 116.129 36.2989 116.129C37.0048 116.129 37.6312 116.243 38.1783 116.473C38.7342 116.702 39.1665 117.015 39.4753 117.412C39.7929 117.801 39.9518 118.246 39.9518 118.749C39.9518 119.217 39.8194 119.627 39.5547 119.98C39.29 120.333 38.9239 120.606 38.4562 120.801C39.0121 120.986 39.4444 121.277 39.7532 121.674C40.0709 122.071 40.2297 122.539 40.2297 123.077C40.2297 123.642 40.0532 124.149 39.7003 124.599C39.3562 125.04 38.8797 125.389 38.2709 125.645C37.6709 125.9 36.9916 126.028 36.2328 126.028ZM46.3113 126.028C45.5789 126.028 44.9039 125.905 44.2863 125.658C43.6775 125.411 43.1437 125.067 42.6849 124.626C42.2261 124.184 41.8731 123.664 41.6261 123.064C41.379 122.455 41.2555 121.793 41.2555 121.079C41.2555 120.364 41.379 119.707 41.6261 119.107C41.8731 118.507 42.2261 117.986 42.6849 117.545C43.1437 117.104 43.6775 116.76 44.2863 116.512C44.9039 116.265 45.5789 116.142 46.3113 116.142C47.0436 116.142 47.7142 116.265 48.323 116.512C48.9406 116.76 49.4788 117.104 49.9376 117.545C50.3964 117.986 50.7494 118.507 50.9964 119.107C51.2435 119.707 51.367 120.364 51.367 121.079C51.367 121.793 51.2435 122.455 50.9964 123.064C50.7494 123.664 50.3964 124.184 49.9376 124.626C49.4788 125.067 48.9406 125.411 48.323 125.658C47.7142 125.905 47.0436 126.028 46.3113 126.028ZM46.3113 124.453C46.9377 124.453 47.4892 124.308 47.9656 124.017C48.4421 123.726 48.8127 123.328 49.0774 122.826C49.3509 122.314 49.4876 121.731 49.4876 121.079C49.4876 120.426 49.3509 119.848 49.0774 119.345C48.8127 118.842 48.4421 118.445 47.9656 118.154C47.4892 117.862 46.9377 117.717 46.3113 117.717C45.6936 117.717 45.1422 117.862 44.6569 118.154C44.1804 118.445 43.8054 118.842 43.5319 119.345C43.2672 119.848 43.1349 120.426 43.1349 121.079C43.1349 121.731 43.2672 122.314 43.5319 122.826C43.8054 123.328 44.1804 123.726 44.6569 124.017C45.1422 124.308 45.6936 124.453 46.3113 124.453ZM55.5303 125.817L55.5303 119.159L57.1979 119.159L57.1979 123.593L57.1053 123.567L60.4405 119.159L61.9757 119.159L61.9757 125.817L60.3081 125.817L60.3081 121.383L60.4008 121.409L57.0656 125.817L55.5303 125.817ZM68.0282 125.817L68.0282 119.755L69.7753 119.755L69.7753 125.817L68.0282 125.817ZM65.7783 120.562L65.7783 119.159L72.0252 119.159L72.0252 120.562L65.7783 120.562ZM78.5642 123.739L79.4906 124.811C79.1553 125.19 78.723 125.49 78.1936 125.711C77.673 125.923 77.0951 126.028 76.4598 126.028C75.6922 126.028 75.0172 125.878 74.4349 125.578C73.8525 125.278 73.3981 124.864 73.0717 124.334C72.7452 123.805 72.582 123.192 72.582 122.495C72.582 121.798 72.7364 121.184 73.0452 120.655C73.3629 120.117 73.7908 119.698 74.329 119.398C74.8761 119.098 75.4893 118.948 76.1687 118.948C76.8304 118.948 77.4172 119.098 77.9289 119.398C78.4495 119.689 78.8554 120.095 79.1465 120.615C79.4377 121.136 79.5833 121.74 79.5833 122.429L79.5833 122.508L77.876 122.508L77.876 122.323C77.876 121.917 77.801 121.564 77.651 121.264C77.5098 120.964 77.3113 120.73 77.0554 120.562C76.8084 120.395 76.5128 120.311 76.1687 120.311C75.8069 120.311 75.4893 120.399 75.2157 120.576C74.9422 120.743 74.7261 120.99 74.5672 121.317C74.4172 121.634 74.3422 122.014 74.3422 122.455C74.3422 122.923 74.4349 123.324 74.6202 123.659C74.8143 123.986 75.0746 124.237 75.401 124.414C75.7363 124.581 76.1201 124.665 76.5525 124.665C77.3466 124.665 78.0171 124.356 78.5642 123.739ZM79.5833 123.024L73.707 123.024L73.707 121.912L79.3715 121.912L79.5833 122.429L79.5833 123.024ZM81.9897 125.817L80.0177 125.817L82.5588 122.362L80.2294 119.159L82.1882 119.159L83.6573 121.343L85.1396 119.159L87.1116 119.159L84.769 122.362L87.3101 125.817L85.3249 125.817L83.6573 123.408L81.9897 125.817ZM90.2912 124.89C90.2912 125.181 90.1853 125.433 89.9735 125.645C89.7618 125.848 89.5015 125.949 89.1927 125.949C88.8927 125.949 88.6324 125.848 88.4118 125.645C88.2 125.433 88.0942 125.181 88.0942 124.89C88.0942 124.59 88.2 124.339 88.4118 124.136C88.6324 123.924 88.8927 123.818 89.1927 123.818C89.5015 123.818 89.7618 123.924 89.9735 124.136C90.1853 124.339 90.2912 124.59 90.2912 124.89Z" fill="#003C56"/>
</svg>
