<svg width="112" height="140" viewBox="0 0 112 140" fill="none" xmlns="http://www.w3.org/2000/svg">
<rect y="0.207031" width="111.822" height="139.777" rx="6.98884" fill="white"/>
<rect x="5.58789" y="5.79688" width="100.639" height="100.639" rx="6.78724" fill="#EAF1FF"/>
<path fill-rule="evenodd" clip-rule="evenodd" d="M54.1012 36.5037C51.9705 36.1332 49.7472 35.9479 47.1533 36.1332C42.7993 36.3184 38.6306 37.8933 38.6306 37.8933L27.4213 30.5749C27.0508 30.3896 26.5876 30.6675 26.6802 31.038L28.6256 47.6203C29.1814 46.8792 18.8059 59.4781 25.3833 70.0389C31.9606 80.5996 45.949 85.3242 63.3651 81.8966C80.7811 78.469 84.8572 68.464 83.7455 63.1836C82.6339 57.9032 76.0565 55.9578 76.0565 55.9578C76.0565 55.9578 75.9639 51.7891 72.9995 46.694C71.2393 43.6369 65.3105 39.2829 65.3105 39.2829L62.9019 29.3706C62.8092 29 62.346 28.9074 62.0681 29.0926L54.1012 36.5037Z" fill="#FFAB19" stroke="#001026" stroke-width="0.65"/>
<path fill-rule="evenodd" clip-rule="evenodd" d="M75.7815 56.3298C75.7815 56.3298 82.1735 57.9973 83.2852 63.2777C84.3969 68.5581 79.9502 78.0999 62.7195 81.4348C40.3009 86.0668 29.6475 72.7268 35.8543 62.9071C42.0611 52.9948 52.7145 61.4249 60.4961 60.8691C67.1661 60.4059 67.9072 54.5697 75.7815 56.3298Z" fill="white"/>
<path fill-rule="evenodd" clip-rule="evenodd" d="M46.5973 66.2378C46.5973 65.8673 46.9678 65.5894 47.3384 65.682C49.0985 66.3305 54.101 67.8127 59.6593 68.1833C64.6618 68.4612 67.6262 68.1833 69.0158 67.9053C69.479 67.8127 69.8496 68.2759 69.6643 68.7391C68.8305 71.2403 65.3103 78.1882 55.5832 77.6324C47.1531 76.706 46.3194 70.7771 46.5973 66.2378Z" fill="white" stroke="#001026" stroke-width="0.65" stroke-linecap="round" stroke-linejoin="round"/>
<path d="M81.7998 60.9545C81.7998 60.9545 88.4698 60.8618 92.8238 57.3416M82.1704 66.4201C82.1704 66.4201 85.7833 68.1803 91.6195 67.7171" stroke="#001026" stroke-width="0.65" stroke-linecap="round" stroke-linejoin="round"/>
<path fill-rule="evenodd" clip-rule="evenodd" d="M60.1232 58.4539C62.0687 58.4539 64.1067 58.6391 64.1993 59.2876C64.292 60.5845 62.9024 63.1784 61.4202 63.2711C59.7527 63.4563 55.8619 61.1404 55.8619 59.6582C55.7692 58.5465 58.2705 58.4539 60.1232 58.4539Z" fill="#001026" stroke="#001026" stroke-width="0.65" stroke-linecap="round" stroke-linejoin="round"/>
<path d="M18.4375 57.0635C18.4375 57.0635 26.4044 59.6574 29.6468 62.5291M19.086 66.3273C19.086 66.3273 25.9412 67.3463 29.9247 65.7715" stroke="#001026" stroke-width="0.65" stroke-linecap="round" stroke-linejoin="round"/>
<path fill-rule="evenodd" clip-rule="evenodd" d="M71.0545 47.6185C73.7411 51.7872 73.8337 56.5118 71.2398 58.1793C68.6459 59.8468 64.3846 57.9014 61.6054 53.7326C58.9189 49.5639 58.8263 44.8394 61.4201 43.1719C64.014 41.4117 68.368 43.4498 71.0545 47.6185Z" fill="white" stroke="#001026" stroke-width="0.65" stroke-linecap="round" stroke-linejoin="round"/>
<path fill-rule="evenodd" clip-rule="evenodd" d="M70.6846 52.9053C70.6846 53.9243 69.9435 54.758 69.0171 54.758C68.0907 54.758 67.3496 53.9243 67.3496 52.9053C67.3496 51.8862 68.0907 51.0525 69.0171 51.0525C69.9435 51.0525 70.6846 51.8862 70.6846 52.9053Z" fill="#001026"/>
<path fill-rule="evenodd" clip-rule="evenodd" d="M48.0791 50.2148C50.8583 54.2909 50.673 59.2934 48.1718 61.0535C45.1147 62.8136 41.0386 61.5167 38.2595 57.4406C35.3877 53.3645 35.2024 48.0841 38.0742 46.0461C40.946 43.9154 45.3 46.1387 48.0791 50.2148Z" fill="white" stroke="#001026" stroke-width="0.65" stroke-linecap="round" stroke-linejoin="round"/>
<path fill-rule="evenodd" clip-rule="evenodd" d="M47.5244 55.5901C47.5244 56.6091 46.7833 57.4428 45.8569 57.4428C44.9306 57.4428 44.1895 56.6091 44.1895 55.5901C44.1895 54.5711 44.9306 53.7373 45.8569 53.7373C46.7833 53.8299 47.5244 54.5711 47.5244 55.5901Z" fill="#001026"/>
<path d="M32.1336 124.045L33.338 122.841C33.5674 123.132 33.8453 123.384 34.1718 123.595C34.4983 123.807 34.8512 123.97 35.2306 124.085C35.61 124.2 35.9982 124.257 36.3953 124.257C36.8276 124.257 37.1982 124.204 37.507 124.098C37.8246 123.992 38.0673 123.842 38.2349 123.648C38.4114 123.445 38.4996 123.211 38.4996 122.947C38.4996 122.594 38.3276 122.311 37.9835 122.1C37.6482 121.879 37.0438 121.703 36.1703 121.57C35.3144 121.447 34.6174 121.266 34.0791 121.028C33.5497 120.789 33.1571 120.489 32.9012 120.128C32.6542 119.766 32.5307 119.338 32.5307 118.844C32.5307 118.27 32.6895 117.763 33.0071 117.322C33.3336 116.881 33.7792 116.537 34.3438 116.29C34.9085 116.043 35.5526 115.919 36.2761 115.919C37.1232 115.919 37.8776 116.078 38.5393 116.395C39.2011 116.713 39.7613 117.141 40.2202 117.679L39.029 118.87C38.6937 118.438 38.2923 118.094 37.8246 117.838C37.3658 117.582 36.8541 117.454 36.2894 117.454C35.7159 117.454 35.2482 117.573 34.8865 117.812C34.5247 118.041 34.3438 118.35 34.3438 118.738C34.3438 118.941 34.4144 119.117 34.5556 119.267C34.6968 119.417 34.9306 119.545 35.2571 119.651C35.5923 119.748 36.0423 119.841 36.607 119.929C37.4629 120.062 38.1599 120.256 38.6981 120.512C39.2452 120.759 39.6511 121.076 39.9158 121.464C40.1805 121.853 40.3128 122.316 40.3128 122.854C40.3128 123.454 40.1452 123.975 39.8099 124.416C39.4746 124.857 39.0114 125.201 38.4202 125.448C37.829 125.686 37.1452 125.806 36.3688 125.806C35.46 125.806 34.6482 125.647 33.9336 125.329C33.2189 125.003 32.6189 124.575 32.1336 124.045ZM46.9596 123.397L48.0449 124.456C47.7008 124.888 47.2817 125.223 46.7876 125.461C46.3023 125.691 45.7464 125.806 45.12 125.806C44.4318 125.806 43.8141 125.656 43.2671 125.356C42.72 125.047 42.2877 124.628 41.9701 124.098C41.6613 123.56 41.5068 122.951 41.5068 122.272C41.5068 121.584 41.6657 120.975 41.9833 120.445C42.3009 119.907 42.7333 119.488 43.2803 119.188C43.8362 118.879 44.4626 118.725 45.1597 118.725C45.7685 118.725 46.3155 118.844 46.8008 119.082C47.2861 119.312 47.7008 119.638 48.0449 120.062L46.9596 121.134C46.7743 120.851 46.5361 120.622 46.245 120.445C45.9626 120.269 45.6317 120.181 45.2523 120.181C44.8729 120.181 44.5376 120.269 44.2465 120.445C43.9553 120.622 43.7259 120.869 43.5583 121.187C43.3906 121.504 43.3068 121.866 43.3068 122.272C43.3068 122.669 43.3906 123.026 43.5583 123.344C43.7259 123.661 43.9553 123.909 44.2465 124.085C44.5376 124.261 44.8729 124.35 45.2523 124.35C45.6406 124.35 45.9758 124.261 46.2582 124.085C46.5405 123.909 46.7743 123.679 46.9596 123.397ZM53.3969 118.817L53.3969 120.406L53.0395 120.406C52.6248 120.406 52.2675 120.489 51.9675 120.657C51.6675 120.816 51.4293 121.067 51.2528 121.412C51.0852 121.756 51.0014 122.201 51.0014 122.748L51.0014 125.594L49.2543 125.594L49.2543 118.937L50.9881 118.937L50.9881 121.094L50.7764 121.094C50.8558 120.503 51.019 120.044 51.2661 119.717C51.5219 119.391 51.8175 119.162 52.1528 119.029C52.4969 118.888 52.8322 118.817 53.1587 118.817L53.3969 118.817ZM60.5139 125.594L58.9257 125.594L58.9257 124.257L58.8463 124.045L58.8463 121.544C58.8463 121.076 58.6963 120.714 58.3963 120.459C58.0963 120.203 57.686 120.075 57.1654 120.075C56.786 120.075 56.4287 120.15 56.0934 120.3C55.7669 120.441 55.4802 120.644 55.2331 120.909L54.3199 119.85C54.6729 119.497 55.1008 119.223 55.6037 119.029C56.1066 118.826 56.6537 118.725 57.2448 118.725C57.8889 118.725 58.458 118.835 58.9521 119.056C59.4463 119.276 59.8301 119.594 60.1036 120.009C60.3771 120.414 60.5139 120.913 60.5139 121.504L60.5139 125.594ZM56.6625 125.806C56.1508 125.806 55.7008 125.713 55.3125 125.528C54.9243 125.342 54.6199 125.086 54.3993 124.76C54.1876 124.433 54.0817 124.054 54.0817 123.622C54.0817 123.163 54.214 122.775 54.4787 122.457C54.7434 122.131 55.1184 121.879 55.6037 121.703C56.0978 121.526 56.6669 121.438 57.311 121.438L59.0183 121.438L59.0183 122.576L57.4434 122.576C56.9669 122.576 56.5831 122.66 56.2919 122.828C56.0008 122.995 55.8552 123.238 55.8552 123.556C55.8552 123.847 55.9655 124.076 56.186 124.244C56.4155 124.411 56.711 124.495 57.0728 124.495C57.4169 124.495 57.7301 124.425 58.0125 124.283C58.2948 124.133 58.5242 123.931 58.7007 123.675C58.8771 123.419 58.9786 123.128 59.0051 122.801L59.508 123.039C59.508 123.586 59.3889 124.067 59.1507 124.482C58.9124 124.897 58.5772 125.223 58.1448 125.461C57.7213 125.691 57.2272 125.806 56.6625 125.806ZM66.1059 125.594L64.4383 125.594C63.8384 125.594 63.384 125.444 63.0751 125.144C62.7752 124.835 62.6252 124.381 62.6252 123.781L62.6252 117.176L64.3722 117.176L64.3722 123.476C64.3722 123.714 64.4251 123.891 64.531 124.006C64.6369 124.111 64.8045 124.164 65.0339 124.164L66.1059 124.164L66.1059 125.594ZM66.0265 120.339L61.4605 120.339L61.4605 118.937L66.0265 118.937L66.0265 120.339ZM72.3568 123.397L73.442 124.456C73.0979 124.888 72.6788 125.223 72.1847 125.461C71.6994 125.691 71.1436 125.806 70.5171 125.806C69.8289 125.806 69.2113 125.656 68.6642 125.356C68.1172 125.047 67.6848 124.628 67.3672 124.098C67.0584 123.56 66.904 122.951 66.904 122.272C66.904 121.584 67.0628 120.975 67.3804 120.445C67.6981 119.907 68.1304 119.488 68.6775 119.188C69.2333 118.879 69.8598 118.725 70.5568 118.725C71.1656 118.725 71.7127 118.844 72.1979 119.082C72.6832 119.312 73.0979 119.638 73.442 120.062L72.3568 121.134C72.1715 120.851 71.9332 120.622 71.6421 120.445C71.3597 120.269 71.0289 120.181 70.6495 120.181C70.2701 120.181 69.9348 120.269 69.6436 120.445C69.3524 120.622 69.123 120.869 68.9554 121.187C68.7877 121.504 68.7039 121.866 68.7039 122.272C68.7039 122.669 68.7877 123.026 68.9554 123.344C69.123 123.661 69.3524 123.909 69.6436 124.085C69.9348 124.261 70.2701 124.35 70.6495 124.35C71.0377 124.35 71.373 124.261 71.6553 124.085C71.9377 123.909 72.1715 123.679 72.3568 123.397ZM81.1366 125.594L79.3896 125.594L79.3896 121.742C79.3896 121.222 79.2705 120.834 79.0322 120.578C78.794 120.313 78.472 120.181 78.0661 120.181C77.7837 120.181 77.5146 120.256 77.2588 120.406C77.0029 120.556 76.7955 120.789 76.6367 121.107C76.4779 121.425 76.3985 121.844 76.3985 122.364L76.3985 125.594L74.6515 125.594L74.6515 116.065L76.3985 116.065L76.3985 121.001L76.1735 121.001C76.2529 120.41 76.4161 119.951 76.6632 119.625C76.9191 119.29 77.2146 119.056 77.5499 118.923C77.894 118.791 78.2337 118.725 78.569 118.725C79.3631 118.725 79.9896 118.967 80.4484 119.453C80.9072 119.938 81.1366 120.644 81.1366 121.57L81.1366 125.594Z" fill="#003C56"/>
</svg>
