<svg width="113" height="141" viewBox="0 0 113 141" fill="none" xmlns="http://www.w3.org/2000/svg">
<rect x="0.797852" y="0.368164" width="111.822" height="139.777" rx="6.98884" fill="white"/>
<rect x="6.38477" y="5.95923" width="100.639" height="100.639" rx="6.78724" fill="#EAF1FF"/>
<path d="M33.1309 79.7014C33.1309 73.2581 38.3543 68.0347 44.7975 68.0347H56.4642V79.7014C56.4642 86.1446 51.2408 91.368 44.7975 91.368C38.3543 91.368 33.1309 86.1446 33.1309 79.7014Z" fill="#24CB71"/>
<path d="M56.4644 21.3682V44.7015H68.131C74.5743 44.7015 79.7977 39.4781 79.7977 33.0348C79.7977 26.5916 74.5743 21.3682 68.131 21.3682H56.4644Z" fill="#FF7237"/>
<path d="M68.0334 68.0348C74.4767 68.0348 79.7001 62.8114 79.7001 56.3681C79.7001 49.9248 74.4767 44.7014 68.0334 44.7014C61.5901 44.7014 56.3667 49.9248 56.3667 56.3681C56.3667 62.8114 61.5901 68.0348 68.0334 68.0348Z" fill="#00B6FF"/>
<path d="M33.1309 33.0348C33.1309 39.4781 38.3543 44.7015 44.7975 44.7015H56.4642V21.3682H44.7975C38.3543 21.3682 33.1309 26.5916 33.1309 33.0348Z" fill="#FF3737"/>
<path d="M33.1309 56.3681C33.1309 62.8114 38.3543 68.0348 44.7975 68.0348H56.4642V44.7014H44.7975C38.3543 44.7014 33.1309 49.9248 33.1309 56.3681Z" fill="#874FFF"/>
<path d="M40.0467 125.753L38.26 125.753L38.26 116.29L44.6525 116.29L44.6525 117.799L40.0467 117.799L40.0467 125.753ZM44.401 121.716L39.9144 121.716L39.9144 120.207L44.401 120.207L44.401 121.716ZM47.6674 125.753L45.9203 125.753L45.9203 119.096L47.6674 119.096L47.6674 125.753ZM46.7939 117.944C46.5027 117.944 46.2512 117.847 46.0395 117.653C45.8365 117.45 45.7351 117.208 45.7351 116.925C45.7351 116.625 45.8365 116.378 46.0395 116.184C46.2512 115.99 46.5027 115.893 46.7939 115.893C47.0938 115.893 47.3453 115.994 47.5482 116.197C47.7512 116.391 47.8526 116.634 47.8526 116.925C47.8526 117.208 47.7512 117.45 47.5482 117.653C47.3453 117.847 47.0938 117.944 46.7939 117.944ZM56.2969 124.932C56.2969 125.665 56.1336 126.3 55.8072 126.838C55.4807 127.376 55.0307 127.791 54.4572 128.082C53.8837 128.382 53.2175 128.532 52.4587 128.532C51.8323 128.532 51.2455 128.431 50.6985 128.228C50.1602 128.034 49.7103 127.76 49.3485 127.407L50.3014 126.243C50.5661 126.516 50.8661 126.728 51.2014 126.878C51.5455 127.028 51.9381 127.103 52.3793 127.103C52.8293 127.103 53.2131 127.019 53.5307 126.851C53.8572 126.684 54.1087 126.446 54.2851 126.137C54.4616 125.828 54.5498 125.457 54.5498 125.025L54.5498 122.471C54.5498 122.012 54.4616 121.624 54.2851 121.306C54.1175 120.988 53.8925 120.75 53.6102 120.591C53.3278 120.424 53.0146 120.34 52.6705 120.34C52.2911 120.34 51.9602 120.428 51.6779 120.605C51.3955 120.781 51.1749 121.024 51.0161 121.332C50.8573 121.632 50.7779 121.972 50.7779 122.352C50.7779 122.731 50.8573 123.071 51.0161 123.371C51.1838 123.671 51.4132 123.909 51.7043 124.085C52.0043 124.253 52.3484 124.337 52.7367 124.337C53.0631 124.337 53.3587 124.275 53.6234 124.152C53.8969 124.019 54.1219 123.838 54.2984 123.609C54.4837 123.371 54.5984 123.097 54.6425 122.788L55.0263 123.027C55.0528 123.547 54.9557 124.015 54.7351 124.429C54.5234 124.844 54.2101 125.175 53.7954 125.422C53.3808 125.66 52.8866 125.779 52.3131 125.779C51.7043 125.779 51.144 125.638 50.6323 125.356C50.1294 125.065 49.7279 124.663 49.4279 124.152C49.1279 123.631 48.9779 123.031 48.9779 122.352C48.9779 121.672 49.1279 121.072 49.4279 120.552C49.7279 120.031 50.1294 119.625 50.6323 119.334C51.1352 119.034 51.6911 118.884 52.2999 118.884C52.7764 118.884 53.1999 118.977 53.5705 119.162C53.9499 119.347 54.2543 119.612 54.4837 119.956C54.7219 120.291 54.8719 120.693 54.9337 121.16L54.5631 121.16L54.5631 119.096L56.2969 119.096L56.2969 124.932ZM68.5176 125.753L66.7705 125.753L66.7705 121.862C66.7705 121.35 66.6647 120.971 66.4529 120.724C66.2411 120.468 65.9544 120.34 65.5926 120.34C65.3279 120.34 65.0765 120.415 64.8382 120.565C64.6088 120.706 64.4191 120.935 64.2691 121.253C64.128 121.562 64.0574 121.968 64.0574 122.471L64.0574 125.753L62.3104 125.753L62.3104 121.862C62.3104 121.35 62.2045 120.971 61.9927 120.724C61.781 120.468 61.4898 120.34 61.1192 120.34C60.8545 120.34 60.6031 120.415 60.3648 120.565C60.1354 120.706 59.9457 120.935 59.7957 121.253C59.6546 121.562 59.584 121.968 59.584 122.471L59.584 125.753L57.837 125.753L57.837 119.096L59.5707 119.096L59.5707 120.552L59.4781 120.538C59.6016 120.106 59.7781 119.775 60.0075 119.546C60.2457 119.308 60.506 119.14 60.7884 119.043C61.0795 118.937 61.3663 118.884 61.6486 118.884C62.2045 118.884 62.6677 119.034 63.0383 119.334C63.4177 119.634 63.6692 120.08 63.7927 120.671L63.6206 120.684C63.753 120.225 63.9471 119.868 64.203 119.612C64.4677 119.347 64.7632 119.162 65.0897 119.056C65.4162 118.941 65.7382 118.884 66.0559 118.884C66.8323 118.884 67.4367 119.127 67.869 119.612C68.3014 120.097 68.5176 120.803 68.5176 121.73L68.5176 125.753ZM76.1405 125.753L74.5523 125.753L74.5523 124.416L74.4729 124.204L74.4729 121.703C74.4729 121.235 74.3229 120.874 74.0229 120.618C73.7229 120.362 73.3126 120.234 72.792 120.234C72.4126 120.234 72.0553 120.309 71.72 120.459C71.3935 120.6 71.1068 120.803 70.8597 121.068L69.9465 120.009C70.2995 119.656 70.7274 119.383 71.2303 119.188C71.7332 118.985 72.2803 118.884 72.8714 118.884C73.5155 118.884 74.0846 118.994 74.5787 119.215C75.0729 119.435 75.4567 119.753 75.7302 120.168C76.0037 120.574 76.1405 121.072 76.1405 121.663L76.1405 125.753ZM72.2891 125.965C71.7774 125.965 71.3274 125.872 70.9391 125.687C70.5509 125.501 70.2465 125.246 70.0259 124.919C69.8142 124.593 69.7083 124.213 69.7083 123.781C69.7083 123.322 69.8406 122.934 70.1053 122.616C70.37 122.29 70.745 122.038 71.2303 121.862C71.7244 121.685 72.2935 121.597 72.9376 121.597L74.6449 121.597L74.6449 122.735L73.07 122.735C72.5935 122.735 72.2097 122.819 71.9185 122.987C71.6274 123.154 71.4818 123.397 71.4818 123.715C71.4818 124.006 71.5921 124.235 71.8126 124.403C72.0421 124.571 72.3376 124.654 72.6994 124.654C73.0435 124.654 73.3567 124.584 73.6391 124.443C73.9214 124.293 74.1508 124.09 74.3273 123.834C74.5038 123.578 74.6052 123.287 74.6317 122.96L75.1346 123.199C75.1346 123.746 75.0155 124.227 74.7773 124.641C74.539 125.056 74.2038 125.382 73.7714 125.621C73.3479 125.85 72.8538 125.965 72.2891 125.965Z" fill="#003C56"/>
</svg>
