<svg width="113" height="141" viewBox="0 0 113 141" fill="none" xmlns="http://www.w3.org/2000/svg">
<rect x="0.797852" y="0.82373" width="111.822" height="139.777" rx="6.98884" fill="white"/>
<rect x="6.38477" y="6.41431" width="100.639" height="100.639" rx="6.78724" fill="#EAF1FF"/>
<path d="M56.856 102.19C64.07 102.19 69.9181 82.2418 69.9181 57.6346C69.9181 33.0274 64.07 13.0793 56.856 13.0793C49.642 13.0793 43.7939 33.0274 43.7939 57.6346C43.7939 82.2418 49.642 102.19 56.856 102.19Z" stroke="#6683C2" stroke-width="0.678724" stroke-miterlimit="10" stroke-linecap="round" stroke-linejoin="round"/>
<path d="M63.3994 68.9526C84.7092 56.649 99.0602 41.6105 95.4532 35.3632C91.8462 29.1158 71.6472 34.0254 50.3373 46.329C29.0275 58.6326 14.6765 73.6711 18.2835 79.9184C21.8905 86.1658 42.0896 81.2562 63.3994 68.9526Z" stroke="#6683C2" stroke-width="0.678724" stroke-miterlimit="10" stroke-linecap="round" stroke-linejoin="round"/>
<path d="M95.4488 79.9218C99.0558 73.6744 84.7048 58.636 63.395 46.3324C42.0852 34.0288 21.8861 29.1192 18.2791 35.3665C14.6721 41.6138 29.0231 56.6523 50.3329 68.9559C71.6428 81.2595 91.8419 86.1691 95.4488 79.9218Z" stroke="#6683C2" stroke-width="0.678724" stroke-miterlimit="10" stroke-linecap="round" stroke-linejoin="round"/>
<path d="M65.5152 57.6596C65.5152 62.0215 61.8512 65.6855 57.4893 65.6855C53.1274 65.6855 49.4634 62.0215 49.4634 57.6596C49.4634 53.2977 53.1274 49.6337 57.4893 49.6337C61.8512 49.6337 65.5152 53.2977 65.5152 57.6596Z" fill="#F2C45B"/>
<path d="M38.8267 33.5557C38.8267 35.7341 36.9922 37.5686 34.8137 37.5686C32.6353 37.5686 30.8008 35.7341 30.8008 33.5557C30.8008 31.3772 32.6353 29.5427 34.8137 29.5427C36.9922 29.5427 38.8267 31.3772 38.8267 33.5557Z" fill="#F2C45B"/>
<path d="M95.5713 47.2053C95.5713 49.3838 93.7368 51.2183 91.5584 51.2183C89.3799 51.2183 87.5454 49.3838 87.5454 47.2053C87.5454 45.0269 89.3799 43.1924 91.5584 43.1924C93.7368 43.1924 95.5713 44.9122 95.5713 47.2053Z" fill="#F2C45B"/>
<path d="M50.8443 89.736C50.8443 91.9144 49.0098 93.7489 46.8313 93.7489C44.6529 93.7489 42.8184 91.9144 42.8184 89.736C42.8184 87.5575 44.6529 85.723 46.8313 85.723C49.1244 85.723 50.8443 87.5575 50.8443 89.736Z" fill="#F2C45B"/>
<path d="M37.5749 125.27C35.8455 125.27 34.5353 124.948 33.6441 124.304C32.753 123.66 32.3074 122.716 32.3074 121.471C32.3074 120.227 32.753 119.288 33.6441 118.652C34.5353 118.008 35.8455 117.686 37.5749 117.686C39.3043 117.686 40.6101 118.008 41.4924 118.652C42.3836 119.288 42.8292 120.227 42.8292 121.471C42.8292 122.716 42.3836 123.66 41.4924 124.304C40.6101 124.948 39.3043 125.27 37.5749 125.27ZM37.5749 123.801C38.7837 123.801 39.666 123.616 40.2219 123.245C40.7866 122.874 41.0689 122.283 41.0689 121.471C41.0689 120.669 40.7866 120.082 40.2219 119.711C39.666 119.341 38.7837 119.155 37.5749 119.155C36.3661 119.155 35.4794 119.341 34.9147 119.711C34.3588 120.082 34.0809 120.669 34.0809 121.471C34.0809 122.274 34.3588 122.866 34.9147 123.245C35.4794 123.616 36.3661 123.801 37.5749 123.801ZM36.6749 126.646L36.6749 124.714L36.7279 124.132L36.7279 118.745L36.6749 118.229L36.6749 116.31L38.4616 116.31L38.4616 118.229L38.4087 118.745L38.4087 124.132L38.4616 124.714L38.4616 126.646L36.6749 126.646ZM44.3979 126.21L44.3979 119.552L46.0655 119.552L46.0655 123.986L45.9729 123.96L49.3081 119.552L50.8433 119.552L50.8433 126.21L49.1757 126.21L49.1757 121.776L49.2684 121.802L45.9332 126.21L44.3979 126.21ZM54.9197 126.421C54.355 126.421 53.7991 126.324 53.2521 126.13C52.7139 125.927 52.2551 125.627 51.8757 125.23L52.7889 124.198C53.3536 124.754 54.0506 125.032 54.88 125.032C55.3564 125.032 55.7226 124.957 55.9785 124.807C56.2432 124.648 56.3755 124.427 56.3755 124.145C56.3755 123.642 55.93 123.391 55.0388 123.391L53.7285 123.391L53.7285 122.252L55.0256 122.252C55.4138 122.252 55.705 122.191 55.8991 122.067C56.0932 121.935 56.1902 121.749 56.1902 121.511C56.1902 121.264 56.0711 121.074 55.8329 120.942C55.6035 120.801 55.2859 120.73 54.88 120.73C54.1477 120.73 53.5124 121.004 52.9742 121.551L52.0742 120.479C52.8418 119.72 53.7947 119.341 54.9329 119.341C55.5064 119.341 56.0094 119.424 56.4417 119.592C56.8829 119.76 57.2314 119.994 57.4873 120.294C57.7431 120.585 57.8711 120.916 57.8711 121.286C57.8711 121.639 57.7696 121.944 57.5667 122.199C57.3637 122.446 57.0726 122.632 56.6932 122.755L56.6932 122.636C57.1255 122.751 57.4608 122.949 57.699 123.232C57.9461 123.505 58.0696 123.841 58.0696 124.238C58.0696 124.652 57.9328 125.027 57.6593 125.363C57.3858 125.689 57.0152 125.949 56.5476 126.143C56.08 126.329 55.5373 126.421 54.9197 126.421ZM59.3777 126.21L59.3777 119.552L61.0453 119.552L61.0453 123.986L60.9527 123.96L64.2879 119.552L65.8231 119.552L65.8231 126.21L64.1555 126.21L64.1555 121.776L64.2482 121.802L60.9129 126.21L59.3777 126.21ZM72.1626 126.21L68.9995 122.742L69.1451 122.742L72.0038 119.552L74.0949 119.552L70.6936 123.338L70.6009 122.173L74.3596 126.21L72.1626 126.21ZM67.6495 126.21L67.6495 119.552L69.3965 119.552L69.3965 126.21L67.6495 126.21ZM81.1804 126.21L79.5922 126.21L79.5922 124.873L79.5128 124.661L79.5128 122.16C79.5128 121.692 79.3628 121.33 79.0628 121.074C78.7628 120.819 78.3525 120.691 77.832 120.691C77.4526 120.691 77.0952 120.766 76.7599 120.916C76.4335 121.057 76.1467 121.26 75.8997 121.524L74.9864 120.466C75.3394 120.113 75.7673 119.839 76.2702 119.645C76.7732 119.442 77.3202 119.341 77.9114 119.341C78.5555 119.341 79.1246 119.451 79.6187 119.672C80.1128 119.892 80.4966 120.21 80.7701 120.624C81.0436 121.03 81.1804 121.529 81.1804 122.12L81.1804 126.21ZM77.329 126.421C76.8173 126.421 76.3673 126.329 75.9791 126.143C75.5908 125.958 75.2864 125.702 75.0659 125.376C74.8541 125.049 74.7482 124.67 74.7482 124.238C74.7482 123.779 74.8806 123.391 75.1453 123.073C75.41 122.746 75.785 122.495 76.2702 122.319C76.7643 122.142 77.3334 122.054 77.9775 122.054L79.6848 122.054L79.6848 123.192L78.1099 123.192C77.6334 123.192 77.2496 123.276 76.9584 123.443C76.6673 123.611 76.5217 123.854 76.5217 124.171C76.5217 124.463 76.632 124.692 76.8526 124.86C77.082 125.027 77.3776 125.111 77.7393 125.111C78.0834 125.111 78.3966 125.041 78.679 124.899C78.9613 124.749 79.1907 124.546 79.3672 124.291C79.5437 124.035 79.6451 123.743 79.6716 123.417L80.1745 123.655C80.1745 124.202 80.0554 124.683 79.8172 125.098C79.579 125.513 79.2437 125.839 78.8113 126.077C78.3878 126.307 77.8937 126.421 77.329 126.421Z" fill="#003C56"/>
</svg>
