<svg width="113" height="141" viewBox="0 0 113 141" fill="none" xmlns="http://www.w3.org/2000/svg">
<rect x="0.797852" y="0.600586" width="111.822" height="139.777" rx="6.98884" fill="white"/>
<rect x="6.37744" y="6.18921" width="100.639" height="100.639" rx="6.78724" fill="#EAF1FF"/>
<path d="M64.5596 18.0275L64.5596 68.8451C64.5596 70.2451 63.4396 71.505 61.8997 71.505L54.76 71.505L54.62 71.505L51.8202 71.505C51.4002 71.505 50.9802 71.365 50.7002 71.225C50.5602 71.225 50.4202 71.085 50.4202 71.085C49.7203 70.665 49.3003 69.8251 49.3003 68.8451L49.3003 18.0275C49.3003 16.6276 50.4202 15.3677 51.9602 15.3677L61.8997 15.3677C63.2996 15.3677 64.5596 16.4876 64.5596 18.0275Z" fill="#DCEEEF"/>
<path d="M82.3453 71.5059C82.3453 72.4858 82.3453 73.4658 82.2053 74.3057C82.0653 75.4257 81.9253 76.5456 81.6453 77.5256C81.5053 78.2256 81.2253 78.9255 81.0853 79.6255C81.0853 79.7655 81.0853 79.7655 80.9453 79.9055C80.1054 82.1454 78.9854 84.2453 77.7255 86.2052C73.6657 91.9449 67.366 95.8647 60.0863 96.7047C59.1064 96.8447 57.9864 96.8447 57.0065 96.8447L56.7265 96.8447C55.7465 96.8447 54.7666 96.8447 53.7866 96.7047C45.527 95.8647 38.5274 90.965 34.7475 84.1053C34.0476 82.8453 33.3476 81.4454 32.9276 80.0455C32.6476 79.3455 32.3676 78.5056 32.2277 77.6656C32.0877 77.2456 32.0877 76.9656 31.9477 76.5456C31.8077 75.8457 31.6677 75.1457 31.6677 74.4457C31.3877 73.4658 31.3877 72.4858 31.3877 71.5059C31.3877 60.1664 38.9473 50.5069 49.3068 47.147C50.7068 46.7271 52.1067 46.4471 53.6466 46.1671L53.7866 46.1671C54.7666 46.0271 55.7465 46.0271 56.7265 46.0271L57.0065 46.0271C57.1465 46.0271 57.2865 46.0271 57.4265 46.0271C57.5664 46.0271 57.7064 46.0271 57.8464 46.0271C58.5464 46.0271 59.2464 46.1671 59.9463 46.1671L60.0863 46.1671C61.6263 46.3071 63.1662 46.7271 64.5661 47.147C74.9256 50.5069 82.3453 60.1664 82.3453 71.5059Z" fill="#B4DEE0"/>
<path d="M77.1571 71.5067C77.1571 82.7061 68.0576 91.8057 56.8581 91.8057C45.6586 91.8057 36.5591 82.7061 36.5591 71.5067C36.5591 70.1067 36.6991 68.7068 36.9791 67.4469C38.939 58.2073 47.0586 51.2076 56.8581 51.2076C66.6576 51.2076 74.9173 58.2073 76.7372 67.4469C77.0172 68.8468 77.1571 70.1067 77.1571 71.5067Z" fill="#EEFEFF"/>
<path d="M60.0731 18.0269L60.0731 68.8445C60.0731 70.2444 59.6532 71.5044 58.9532 71.5044L54.7534 71.5044C54.4734 71.5044 54.1934 71.0844 53.9134 70.5244C53.9134 70.3844 53.7734 69.9645 53.7734 69.5445C53.7734 69.2645 53.7734 69.1245 53.7734 68.8445L53.7734 18.0269C53.7734 16.627 54.1934 15.3671 54.8934 15.3671L59.0932 15.3671C59.5132 15.3671 60.0731 16.487 60.0731 18.0269Z" fill="#F4FEFF"/>
<path d="M67.9412 17.8887C67.9412 19.2886 66.8213 20.4085 65.4213 20.4085L48.3421 20.4085C46.9422 20.4085 45.8223 19.2886 45.8223 17.8887C45.8223 17.1887 46.1023 16.6287 46.5222 16.0687C46.9422 15.6488 47.6422 15.3688 48.3421 15.3688L65.5613 15.3688C66.8213 15.3688 67.9412 16.4887 67.9412 17.8887Z" fill="#B4DEE0"/>
<path d="M77.1576 71.5054C77.1576 82.7048 68.0581 91.8044 56.8586 91.8044C45.6591 91.8044 36.5596 82.7048 36.5596 71.5054C36.5596 70.1054 36.6996 68.7055 36.9796 67.4456L76.7377 67.4456C77.0176 68.8455 77.1576 70.1054 77.1576 71.5054Z" fill="#68CCEA"/>
<path d="M69.485 74.7265C69.485 76.2664 68.225 77.5264 66.6851 77.5264C65.1452 77.5264 63.8853 76.2664 63.8853 74.7265C63.8853 73.1866 65.1452 71.9266 66.6851 71.9266C68.225 71.9266 69.485 73.1866 69.485 74.7265Z" fill="#54A6BF"/>
<path d="M54.9241 71.5053C54.9241 72.7652 53.9442 73.7452 52.6842 73.7452C51.4243 73.7452 50.4443 72.7652 50.4443 71.5053C50.4443 70.2453 51.4243 69.2654 52.6842 69.2654C53.8042 69.2654 54.9241 70.2453 54.9241 71.5053Z" fill="#54A6BF"/>
<path d="M45.5172 71.5061C45.5172 72.206 44.9573 72.626 44.3973 72.626C43.6973 72.626 43.2773 72.066 43.2773 71.5061C43.2773 70.8061 43.8373 70.3861 44.3973 70.3861C44.9573 70.3861 45.5172 70.9461 45.5172 71.5061Z" fill="#54A6BF"/>
<path d="M65.3969 83.2662C65.3969 84.2461 64.557 84.9461 63.717 84.9461C62.7371 84.9461 62.0371 84.1061 62.0371 83.2662C62.0371 82.2862 62.8771 81.5862 63.717 81.5862C64.697 81.4462 65.3969 82.2862 65.3969 83.2662Z" fill="#54A6BF"/>
<path d="M53.3687 83.9663C53.3687 85.6462 51.9688 87.0462 50.2888 87.0462C48.6089 87.0462 47.209 85.6462 47.209 83.9663C47.209 82.2864 48.6089 80.8865 50.2888 80.8865C51.9688 80.8865 53.3687 82.2864 53.3687 83.9663Z" fill="#54A6BF"/>
<path d="M61.4797 57.2267C61.4797 58.6266 60.3598 59.7465 58.9598 59.7465C57.5599 59.7465 56.4399 58.6266 56.4399 57.2267C56.4399 55.8267 57.5599 54.7068 58.9598 54.7068C60.3598 54.7068 61.4797 55.8267 61.4797 57.2267Z" fill="#68CCEA"/>
<path d="M55.9035 62.5471C55.9035 64.507 54.3635 66.0469 52.4036 66.0469C50.4437 66.0469 48.9038 64.507 48.9038 62.5471C48.9038 60.5872 50.4437 59.0472 52.4036 59.0472C54.3635 59.1872 55.9035 60.7272 55.9035 62.5471Z" fill="#68CCEA"/>
<path d="M59.5206 48.126C59.5206 49.246 58.5406 50.2259 57.4207 50.2259C56.3008 50.2259 55.3208 49.246 55.3208 48.126C55.3208 47.0061 56.3008 46.0261 57.4207 46.0261C58.5406 46.0261 59.5206 47.0061 59.5206 48.126Z" fill="#68CCEA"/>
<path d="M59.8106 34.4044C59.8106 35.2444 59.1106 35.8044 58.4107 35.8044C57.5707 35.8044 57.0107 35.1044 57.0107 34.4044C57.0107 33.7045 57.7107 33.0045 58.4107 33.0045C59.2506 32.8645 59.8106 33.5645 59.8106 34.4044Z" fill="#68CCEA"/>
<path d="M62.898 63.9462C62.898 64.7862 62.198 65.3461 61.4981 65.3461C60.6581 65.3461 60.0981 64.6462 60.0981 63.9462C60.0981 63.1062 60.7981 62.5463 61.4981 62.5463C62.338 62.5463 62.898 63.2462 62.898 63.9462Z" fill="#68CCEA"/>
<path d="M37.9303 125.985L35.8259 125.985L39.4788 120.81L39.4788 121.353L36.1436 116.522L38.2479 116.522L40.6037 120.122L40.2464 120.122L42.6022 116.522L44.6801 116.522L41.3714 121.353L41.3846 120.81L45.0242 125.985L42.9066 125.985L40.2332 122.028L40.6037 122.028L37.9303 125.985ZM46.1182 125.985L46.1182 119.328L47.7858 119.328L47.7858 123.762L47.6931 123.735L51.0283 119.328L52.5636 119.328L52.5636 125.985L50.896 125.985L50.896 121.551L50.9886 121.578L47.6534 125.985L46.1182 125.985ZM54.39 125.985L54.39 119.328L56.1767 119.328L58.5325 123.788L58.2811 123.788L60.5839 119.328L62.4368 119.328L62.4368 125.985L60.8751 125.985L60.8751 119.91L61.4839 120.413L58.9296 125.297L57.8046 125.297L55.2503 120.413L55.8988 119.976L55.8988 125.985L54.39 125.985ZM64.2645 125.985L64.2645 119.328L65.9321 119.328L65.9321 123.762L65.8395 123.735L69.1747 119.328L70.7099 119.328L70.7099 125.985L69.0423 125.985L69.0423 121.551L69.135 121.578L65.7998 125.985L64.2645 125.985ZM76.6921 125.985L76.6921 119.553L77.8171 120.625L75.1436 120.625C74.8348 120.625 74.5789 120.696 74.376 120.837C74.1819 120.978 74.0848 121.198 74.0848 121.498C74.0848 121.79 74.1775 122.01 74.3628 122.16C74.5569 122.31 74.826 122.385 75.1701 122.385L77.3406 122.385L77.3406 123.59L74.9319 123.59C74.1466 123.59 73.5201 123.4 73.0525 123.02C72.5849 122.641 72.351 122.125 72.351 121.472C72.351 121.057 72.4613 120.691 72.6819 120.373C72.9113 120.047 73.2246 119.791 73.6216 119.606C74.0186 119.421 74.473 119.328 74.9848 119.328L78.2935 119.328L78.2935 125.985L76.6921 125.985ZM72.0202 125.985L74.2436 123.1L75.9907 123.1L73.9128 125.985L72.0202 125.985Z" fill="#003C56"/>
</svg>
