<svg width="112" height="141" viewBox="0 0 112 141" fill="none" xmlns="http://www.w3.org/2000/svg">
<rect y="0.661316" width="111.822" height="139.777" rx="6.98884" fill="white"/>
<rect x="5.58789" y="6.25116" width="100.639" height="100.639" rx="6.78724" fill="#EAF1FF"/>
<path d="M56.2268 84.4971C56.1464 84.5641 56.0794 84.6444 55.999 84.7248V84.631C56.0258 84.6176 56.0526 84.6042 56.0794 84.5775H56.0928C56.133 84.5507 56.1866 84.5239 56.2268 84.4971Z" fill="#D3DCFB"/>
<path d="M81.1651 73.1096C74.2924 72.8015 67.0311 75.6551 60.5603 80.6924C59.0732 81.8445 57.6263 83.1173 56.233 84.4972H56.2196C56.166 84.524 56.1259 84.5508 56.0723 84.591C57.4924 82.1259 58.9928 79.835 60.5469 77.7316C65.1555 71.5019 70.2063 67.0139 75.0024 65.3392V45.0559C74.9891 42.9392 74.9891 40.809 74.9891 38.6923V33.0387C77.0522 32.5966 79.102 32.4224 81.1383 32.5162V49.1019C81.1651 57.1 81.1651 65.1115 81.1651 73.1096Z" fill="#E2EAFA"/>
<path d="M55.8822 84.712C55.8684 84.7258 55.8684 84.7258 55.8545 84.7258V84.6843L55.8822 84.712Z" fill="#BEC8F7"/>
<path d="M75.0218 45.0555V65.3255C70.2122 67.0001 65.1615 71.4881 60.5662 77.7178C59.0122 79.8212 57.5117 82.1255 56.0916 84.5772H56.0782C56.0514 84.5906 56.0246 84.604 55.9978 84.6308C55.971 84.6442 55.9442 84.6576 55.9174 84.6843V44.5197C55.904 44.5063 55.904 44.5063 55.8906 44.5063C55.9308 44.4795 55.9576 44.4527 55.9978 44.4393V44.1311C61.6648 34.3244 68.5509 26.9828 75.0218 24.7321V38.6919C75.0084 40.822 75.0084 42.9388 75.0218 45.0555Z" fill="#F4F7FF"/>
<path d="M85.3657 39.8842V80.0891C85.3389 80.0757 85.3255 80.0757 85.2987 80.0757C77.0326 77.8517 68.2977 78.8163 60.5541 82.246C59.0804 82.8891 57.6469 83.6393 56.267 84.4699L56.2804 84.4431C57.6469 83.09 59.0804 81.8307 60.5541 80.6919C67.0383 75.6546 74.2862 72.801 81.1723 73.1091C81.1723 65.111 81.1723 57.0995 81.1589 49.088V39.0134C82.579 39.2277 83.9724 39.5091 85.3657 39.8842ZM56.2804 84.4431L56.267 84.4699C56.2536 84.4699 56.2402 84.4833 56.2402 84.4833L56.2804 84.4431Z" fill="#ADBFE6"/>
<path d="M88.8484 45.0554H85.3652V80.089C85.3518 80.0756 85.3116 80.0756 85.2982 80.0756V83.9608H62.8178L60.5536 82.889V82.2459C59.0666 82.9024 57.6197 83.6526 56.2263 84.4833H56.213C56.1594 84.5101 56.1192 84.5368 56.0656 84.577H56.0522C56.0254 84.5904 55.9986 84.6038 55.9718 84.6306C55.945 84.644 55.9182 84.6574 55.8914 84.6842L55.8646 84.711H55.8512L55.8244 84.6842C55.811 84.6842 55.811 84.6708 55.811 84.6708L55.6905 84.5904C54.2168 83.7062 52.6895 82.9158 51.122 82.2191V82.889L48.8713 83.9608H26.4043V45.0554H22.854C22.1976 45.0554 21.6885 45.4975 21.6885 46.0602V87.0019C21.6885 87.5646 22.211 88.0067 22.854 88.0067H48.9651C49.7153 88.0067 50.4656 87.846 51.1086 87.5244L55.8512 85.2603L60.5938 87.5244C61.2503 87.8326 61.9871 88.0067 62.7374 88.0067H88.835C89.4915 88.0067 90.0006 87.5646 90.0006 87.0019V46.0602C90.014 45.4975 89.4915 45.0554 88.8484 45.0554Z" fill="#6683C2"/>
<path d="M51.1306 82.2194V82.8893L48.8798 83.9611H26.3994V80.0893C34.6655 77.852 43.4004 78.8032 51.1306 82.2194ZM85.2933 80.0759V83.9611H62.8129L60.5488 82.8893V82.2462C68.2923 78.8166 77.0407 77.852 85.2933 80.0759Z" fill="#5171B5"/>
<path d="M55.7036 84.5908C54.2299 83.7066 52.7027 82.9161 51.1352 82.2195C43.405 78.8032 34.6701 77.852 26.3906 80.0893V39.8845C27.7973 39.4959 29.2308 39.2012 30.6777 39.0002C30.6643 41.0232 30.6643 43.0328 30.6643 45.0558V49.0883C30.6643 57.0998 30.6643 65.0979 30.6509 73.1094C37.4835 72.8013 44.6777 75.6147 51.1218 80.585C52.716 81.7908 54.2433 83.1439 55.7036 84.5908Z" fill="#ADBFE6"/>
<path d="M55.9138 44.5194V84.6841L55.887 84.7109H55.8736L55.8468 84.6841C55.8334 84.6841 55.8334 84.6707 55.8334 84.6707L55.7128 84.5903C54.2392 83.1434 52.7119 81.7903 51.1444 80.5846C44.687 75.6142 37.4927 72.8008 30.6602 73.109C30.6736 65.1109 30.6736 57.0994 30.6736 49.0879V45.0553C30.6736 43.0324 30.6736 41.0228 30.687 38.9998V32.5156C39.2343 32.1271 48.3578 36.6419 55.8468 44.1309V44.4792L55.8736 44.506H55.887C55.9004 44.506 55.9004 44.506 55.9138 44.5194Z" fill="#E2EAFA"/>
<path d="M51.7928 51.4192C51.5517 51.4192 51.3105 51.3388 51.0962 51.1781C46.166 47.2393 40.8474 44.6804 35.743 43.7828C35.1402 43.6756 34.7382 43.0996 34.8454 42.4967C34.9526 41.8938 35.5287 41.4919 36.1316 41.5991C41.611 42.5503 47.2646 45.2699 52.4895 49.4498C52.9718 49.8383 53.0522 50.535 52.6636 51.0173C52.4359 51.2718 52.1144 51.4192 51.7928 51.4192ZM51.7928 60.757C51.5517 60.757 51.3105 60.6766 51.0962 60.5159C46.166 56.5771 40.8474 54.0183 35.743 53.1206C35.1402 53.0135 34.7382 52.4374 34.8454 51.8345C34.9526 51.2316 35.5287 50.8297 36.1316 50.9369C41.611 51.8881 47.2646 54.6077 52.4895 58.7876C52.9718 59.1762 53.0522 59.8728 52.6636 60.3551C52.4359 60.6097 52.1144 60.757 51.7928 60.757ZM51.7928 71.1532C51.5517 71.1532 51.3105 71.0728 51.0962 70.9121C46.166 66.9733 40.8474 64.4144 35.743 63.5168C35.1402 63.4097 34.7382 62.8336 34.8454 62.2307C34.9526 61.6278 35.5287 61.2259 36.1316 61.3331C41.611 62.2843 47.2646 65.0039 52.4895 69.1838C52.9718 69.5724 53.0522 70.269 52.6636 70.7513C52.4359 71.0058 52.1144 71.1532 51.7928 71.1532Z" fill="#F37E60"/>
<path d="M56.2698 84.4831L55.8545 85.1932L56.2698 84.4831ZM56.5779 83.9606L56.2832 84.4429L56.5779 83.9606Z" fill="black"/>
<path d="M35.6451 122.7C34.5951 122.7 33.7746 122.439 33.1834 121.919C32.6011 121.398 32.3099 120.67 32.3099 119.735L32.3099 116.585L34.0966 116.585L34.0966 119.523C34.0966 120.079 34.251 120.494 34.5598 120.767C34.8775 121.032 35.3451 121.164 35.9627 121.164C36.3774 121.164 36.7789 121.107 37.1671 120.992C37.5642 120.878 37.8994 120.728 38.173 120.542L38.6494 121.641C38.2965 121.985 37.8597 122.25 37.3392 122.435C36.8186 122.611 36.2539 122.7 35.6451 122.7ZM38.0539 126.048L38.0539 116.585L39.8406 116.585L39.8406 126.048L38.0539 126.048ZM43.5212 126.048L43.5212 119.986L45.2682 119.986L45.2682 126.048L43.5212 126.048ZM41.2713 120.794L41.2713 119.391L47.5182 119.391L47.5182 120.794L41.2713 120.794ZM54.0572 123.97L54.9836 125.042C54.6483 125.422 54.216 125.722 53.6866 125.942C53.166 126.154 52.5881 126.26 51.9528 126.26C51.1852 126.26 50.5102 126.11 49.9279 125.81C49.3455 125.51 48.8911 125.095 48.5647 124.566C48.2382 124.036 48.075 123.423 48.075 122.726C48.075 122.029 48.2294 121.416 48.5382 120.886C48.8558 120.348 49.2838 119.929 49.822 119.629C50.369 119.329 50.9823 119.179 51.6616 119.179C52.3234 119.179 52.9101 119.329 53.4219 119.629C53.9425 119.92 54.3483 120.326 54.6395 120.847C54.9307 121.367 55.0763 121.972 55.0763 122.66L55.0763 122.739L53.369 122.739L53.369 122.554C53.369 122.148 53.294 121.795 53.144 121.495C53.0028 121.195 52.8043 120.961 52.5484 120.794C52.3013 120.626 52.0058 120.542 51.6616 120.542C51.2999 120.542 50.9823 120.63 50.7087 120.807C50.4352 120.975 50.219 121.222 50.0602 121.548C49.9102 121.866 49.8352 122.245 49.8352 122.686C49.8352 123.154 49.9279 123.555 50.1132 123.891C50.3073 124.217 50.5676 124.469 50.894 124.645C51.2293 124.813 51.6131 124.897 52.0455 124.897C52.8396 124.897 53.5101 124.588 54.0572 123.97ZM55.0763 123.255L49.1999 123.255L49.1999 122.144L54.8645 122.144L55.0763 122.66L55.0763 123.255ZM61.2484 126.048L61.2484 119.391L62.9954 119.391L62.9954 126.048L61.2484 126.048ZM56.5368 126.048L56.5368 119.391L58.2838 119.391L58.2838 126.048L56.5368 126.048ZM57.3573 123.255L57.3573 121.852L62.2675 121.852L62.2675 123.255L57.3573 123.255ZM64.8215 126.048L64.8215 119.391L66.4891 119.391L66.4891 123.825L66.3965 123.798L69.7317 119.391L71.2669 119.391L71.2669 126.048L69.5993 126.048L69.5993 121.614L69.692 121.641L66.3568 126.048L64.8215 126.048ZM78.6917 123.97L79.6182 125.042C79.2829 125.422 78.8506 125.722 78.3212 125.942C77.8006 126.154 77.2227 126.26 76.5874 126.26C75.8197 126.26 75.1448 126.11 74.5624 125.81C73.9801 125.51 73.5257 125.095 73.1992 124.566C72.8728 124.036 72.7095 123.423 72.7095 122.726C72.7095 122.029 72.8639 121.416 73.1728 120.886C73.4904 120.348 73.9183 119.929 74.4566 119.629C75.0036 119.329 75.6168 119.179 76.2962 119.179C76.958 119.179 77.5447 119.329 78.0565 119.629C78.577 119.92 78.9829 120.326 79.2741 120.847C79.5652 121.367 79.7108 121.972 79.7108 122.66L79.7108 122.739L78.0035 122.739L78.0035 122.554C78.0035 122.148 77.9285 121.795 77.7785 121.495C77.6373 121.195 77.4388 120.961 77.1829 120.794C76.9359 120.626 76.6403 120.542 76.2962 120.542C75.9345 120.542 75.6168 120.63 75.3433 120.807C75.0698 120.975 74.8536 121.222 74.6948 121.548C74.5448 121.866 74.4698 122.245 74.4698 122.686C74.4698 123.154 74.5624 123.555 74.7477 123.891C74.9418 124.217 75.2021 124.469 75.5286 124.645C75.8639 124.813 76.2477 124.897 76.68 124.897C77.4741 124.897 78.1447 124.588 78.6917 123.97ZM79.7108 123.255L73.8345 123.255L73.8345 122.144L79.4991 122.144L79.7108 122.66L79.7108 123.255Z" fill="#003C56"/>
</svg>
