<svg width="113" height="141" viewBox="0 0 113 141" fill="none" xmlns="http://www.w3.org/2000/svg">
<rect x="0.797852" y="0.931152" width="111.822" height="139.777" rx="6.98884" fill="white"/>
<rect x="6.37744" y="6.51978" width="100.639" height="100.639" rx="6.78724" fill="#EAF1FF"/>
<path d="M87.1196 89.5598H54.604C54.604 85.7681 56.3118 84.1775 56.3118 84.1775H85.4118C85.4118 84.1775 85.8372 84.5782 86.2687 85.4475C86.6942 86.323 87.1196 87.667 87.1196 89.5598Z" fill="#6683C2"/>
<path d="M75.8048 61.8839H70.8664H65.928C64.6765 65.6201 62.9872 68.9801 61.1685 71.3352L70.8664 71.4031L80.5643 71.3352C78.7456 68.9801 77.0625 65.6201 75.8048 61.8839Z" fill="#3E5486"/>
<path d="M83.5583 84.1775H76.7087C73.6754 84.1775 70.8702 84.1775 70.8702 84.1775C70.8702 84.1775 60.8085 84.1775 58.1821 84.1775C58.1821 84.1775 56.4311 81.3908 57.4176 78.0616C57.88 76.4956 59.3966 74.8186 61.5668 73.4746H80.1797C82.3499 74.8125 83.8665 76.4956 84.3289 78.0616C85.3092 81.397 83.5583 84.1775 83.5583 84.1775Z" fill="#6683C2"/>
<path d="M61.1724 71.335C61.1724 72.1426 61.3142 72.8578 61.5669 73.4743H80.1798C80.4326 72.8516 80.5744 72.1426 80.5744 71.335C78.7125 71.335 63.0281 71.335 61.1724 71.335Z" fill="#3E5486"/>
<path d="M87.0274 50.6634C85.7142 56.5944 82.983 62.1061 80.0854 67.4514H60.8991C58.6796 63.7091 58.5686 58.7769 60.6956 54.9668C62.052 52.5315 64.1728 50.6388 66.0286 48.5611C66.8054 47.6979 67.9028 46.5635 68.7351 45.2997C69.4195 44.2639 69.9312 43.1418 69.9497 42.0136C69.9497 41.9951 69.9497 41.9766 69.9497 41.9581C69.8387 41.9458 69.6229 41.9581 69.3208 41.9889C69.2962 41.9889 69.2715 41.9951 69.2468 41.9951C67.3294 42.2109 62.5514 43.1357 62.5514 43.1357C62.5514 43.1357 61.9842 44.0419 61.6451 44.6831L58.0076 45.312C57.1691 45.0962 56.0902 44.418 55.4798 43.8077C55.0236 43.1603 54.7153 39.4057 54.888 38.3576C57.9829 34.8311 60.8991 33.2712 64.6722 31.1997C64.999 30.4291 65.3196 29.6584 65.6463 28.8939C66.978 27.8705 68.5687 27.18 70.0113 26.8902C70.0052 26.7484 70.0052 26.6128 69.999 26.471C69.9743 25.5277 69.9435 24.5782 69.9189 23.635C76.1519 22.8458 81.9041 26.8594 84.9991 32.3341C86.4294 34.8619 87.2617 37.6547 87.607 40.5278C88.0077 43.8878 87.7611 47.3589 87.0274 50.6634Z" fill="#6683C2"/>
<path d="M87.6034 40.5339C87.252 37.6547 86.4258 34.868 84.9955 32.3403C83.5713 29.8248 81.5923 27.6177 79.2556 26.0455C85.8093 38.1726 81.7279 53.2775 77.6342 57.0444C78.7316 54.4304 78.8672 51.5019 78.1829 48.7645C76.9992 51.6005 75.39 54.3132 73.9967 57.0629C72.3629 60.2874 70.9942 63.9187 70.9634 67.4575H80.0818C82.9795 62.1123 85.7168 56.6067 87.0239 50.6696C87.7637 47.3588 88.0103 43.8878 87.6034 40.5339Z" fill="#3E5486"/>
<path d="M78.9578 38.0245C76.911 41.884 73.0207 44.535 68.7358 45.2995C69.4202 44.2638 69.9319 43.1417 69.9504 42.0135C73.3351 42.0443 76.7137 40.5585 78.9578 38.0245Z" fill="#3E5486"/>
<path d="M69.2227 30.4966C68.1006 31.3967 67.0525 31.7481 66.3682 31.631C66.4175 32.266 67.1512 32.7839 67.8848 32.5866C68.8034 32.3338 69.5063 31.3967 69.2227 30.4966Z" fill="#3E5486"/>
<path d="M83.5471 84.1779H76.6975C77.3078 82.9016 77.5791 81.459 77.462 80.0471C77.2955 78.1112 76.3954 76.2432 74.9774 74.9115C74.4533 74.4183 73.8676 73.999 73.3867 73.475H80.1685C82.3387 74.8128 83.8553 76.4959 84.3177 78.0619C85.298 81.3973 83.5471 84.1779 83.5471 84.1779Z" fill="#3E5486"/>
<path d="M87.1227 89.5599H78.6948C78.5283 87.6671 77.9303 85.8052 76.9438 84.1776H85.4149C85.4149 84.1776 85.8403 84.5784 86.2719 85.4477C86.6973 86.3231 87.1227 87.6671 87.1227 89.5599Z" fill="#3E5486"/>
<path d="M58.1995 38.6164C57.694 38.4623 57.1021 38.6288 56.7568 39.0357C56.4116 39.4364 56.3314 40.0468 56.5657 40.5277C57.2747 39.8618 57.7433 39.4796 58.1995 38.6164Z" fill="#3E5486"/>
<path d="M47.6284 44.2474C47.6284 48.0327 44.2645 51.1018 40.1154 51.1018C39.5478 51.1018 38.9921 51.0467 38.4607 50.9365C35.1089 50.2477 32.6025 47.5148 32.6025 44.2529C32.6025 40.462 35.9664 37.3929 40.1154 37.3929C40.8824 37.3929 41.6253 37.4976 42.3258 37.696C45.3938 38.5555 47.6284 41.1618 47.6284 44.2474Z" fill="#F2C45B"/>
<path d="M47.6311 44.2475C47.6311 48.0329 44.2672 51.1019 40.1182 51.1019C39.5505 51.1019 38.9948 51.0468 38.4634 50.9366C42.099 49.9889 44.9134 46.716 44.9134 43.2447C44.9134 41.173 43.9048 39.1728 42.3225 37.6962C45.3965 38.5557 47.6311 41.1619 47.6311 44.2475Z" fill="#B79039"/>
<path d="M51.9343 80.3602C51.5297 79.1039 50.201 77.7595 48.2926 76.6851H31.9381C30.0297 77.7595 28.7011 79.1039 28.2964 80.3602C27.4328 83.0326 28.9668 85.2641 28.9668 85.2641C31.2738 85.2641 40.1154 85.2641 40.1154 85.2641C40.1154 85.2641 48.9569 85.2641 51.2639 85.2641C51.2639 85.2641 52.7979 83.0326 51.9343 80.3602Z" fill="#F2C45B"/>
<path d="M43.7308 74.9876C41.6714 75.0041 40.1133 75.0207 40.1133 75.0207C40.1133 75.0207 38.5551 75.0041 36.4957 74.9876C34.9919 74.9766 33.2224 74.9656 31.5918 74.9656C31.5918 75.6158 31.7126 76.1833 31.936 76.6847H48.2905C48.514 76.1888 48.6347 75.6158 48.6347 74.9656C47.0041 74.9656 45.2346 74.9766 43.7308 74.9876Z" fill="#B79039"/>
<path d="M48.5169 74.822C48.5592 74.8716 48.5954 74.9212 48.6377 74.9653L40.1162 75.0204L31.5947 74.9653C36.7463 68.8822 40.6899 60.0332 34.5419 54.1651C34.5419 54.1651 33.6723 53.1568 32.2107 52.7215C32.0296 52.6664 31.8725 52.5617 31.7638 52.4239C31.6551 52.2862 31.5947 52.1209 31.5947 51.9446C31.5947 51.625 31.8001 51.344 32.096 51.2117C33.938 50.2199 38.1957 49.5477 40.1162 49.5477C42.0367 49.5477 46.3005 50.2199 48.1364 51.2117C48.2813 51.2779 48.4082 51.3826 48.4988 51.5093C48.5833 51.636 48.6377 51.7848 48.6377 51.9446C48.6377 52.2972 48.3901 52.6058 48.0217 52.716C46.5601 53.1513 45.6905 54.1596 45.6905 54.1596C42.2722 57.4215 41.9763 61.5981 43.2627 65.714C44.2773 68.9539 46.2763 72.1497 48.5169 74.822Z" fill="#F2C45B"/>
<path d="M52.9001 85.2639H40.1209H27.3417C27.3417 85.2639 25.8379 86.5367 25.8379 89.5782H40.1209H54.4038C54.4038 86.5367 52.9001 85.2639 52.9001 85.2639Z" fill="#F2C45B"/>
<path d="M51.2681 85.2641H45.2469C45.7844 84.2392 46.026 83.0876 45.9173 81.9581C45.7723 80.4043 44.9812 78.9111 43.7371 77.8421C43.2781 77.4509 42.7587 77.1093 42.3359 76.6906H48.2907C50.1991 77.765 51.5278 79.1094 51.9324 80.3657C52.8021 83.0325 51.2681 85.2641 51.2681 85.2641Z" fill="#B79039"/>
<path d="M54.4045 89.5781H47.0003C46.8554 88.0574 46.3299 86.5697 45.4663 85.2638H52.9067C52.9067 85.2638 53.2812 85.5834 53.6556 86.2831C54.0301 86.9774 54.4045 88.0574 54.4045 89.5781Z" fill="#B79039"/>
<path d="M48.644 74.9656L43.8367 74.9987L43.269 65.7198C44.2836 68.9542 46.2827 72.1445 48.5232 74.8223C48.5595 74.8719 48.6018 74.916 48.644 74.9656Z" fill="#B79039"/>
<path d="M26.6999 126.316L26.6999 116.853L28.4867 116.853L28.4867 125.958L27.4411 124.794L32.8145 124.794L32.1527 125.958L32.1527 116.853L33.9394 116.853L33.9394 125.958L33.2777 124.794L38.6511 124.794L37.6055 125.958L37.6055 116.853L39.3922 116.853L39.3922 126.316L26.6999 126.316ZM47.4505 126.316L45.8623 126.316L45.8623 124.979L45.7829 124.767L45.7829 122.266C45.7829 121.798 45.6329 121.436 45.3329 121.181C45.0329 120.925 44.6226 120.797 44.102 120.797C43.7226 120.797 43.3653 120.872 43.03 121.022C42.7035 121.163 42.4168 121.366 42.1697 121.631L41.2565 120.572C41.6094 120.219 42.0374 119.945 42.5403 119.751C43.0432 119.548 43.5903 119.447 44.1814 119.447C44.8255 119.447 45.3946 119.557 45.8887 119.778C46.3828 119.998 46.7667 120.316 47.0402 120.731C47.3137 121.136 47.4505 121.635 47.4505 122.226L47.4505 126.316ZM43.5991 126.527C43.0873 126.527 42.6374 126.435 42.2491 126.249C41.8609 126.064 41.5565 125.808 41.3359 125.482C41.1242 125.155 41.0183 124.776 41.0183 124.344C41.0183 123.885 41.1506 123.497 41.4153 123.179C41.68 122.853 42.055 122.601 42.5403 122.425C43.0344 122.248 43.6035 122.16 44.2476 122.16L45.9549 122.16L45.9549 123.298L44.38 123.298C43.9035 123.298 43.5197 123.382 43.2285 123.55C42.9373 123.717 42.7918 123.96 42.7918 124.277C42.7918 124.569 42.9021 124.798 43.1226 124.966C43.352 125.133 43.6476 125.217 44.0094 125.217C44.3535 125.217 44.6667 125.147 44.9491 125.005C45.2314 124.855 45.4608 124.652 45.6373 124.397C45.8137 124.141 45.9152 123.85 45.9417 123.523L46.4446 123.761C46.4446 124.308 46.3255 124.789 46.0873 125.204C45.849 125.619 45.5137 125.945 45.0814 126.183C44.6579 126.413 44.1638 126.527 43.5991 126.527ZM50.2459 126.316L48.2739 126.316L50.815 122.861L48.4857 119.658L50.4444 119.658L51.9135 121.842L53.3958 119.658L55.3678 119.658L53.0253 122.861L55.5664 126.316L53.5811 126.316L51.9135 123.907L50.2459 126.316ZM56.6284 126.316L56.6284 119.658L58.4151 119.658L60.7709 124.119L60.5194 124.119L62.8223 119.658L64.6752 119.658L64.6752 126.316L63.1135 126.316L63.1135 120.241L63.7223 120.744L61.168 125.627L60.043 125.627L57.4886 120.744L58.1372 120.307L58.1372 126.316L56.6284 126.316ZM72.5115 126.316L70.9233 126.316L70.9233 124.979L70.8439 124.767L70.8439 122.266C70.8439 121.798 70.6939 121.436 70.394 121.181C70.094 120.925 69.6837 120.797 69.1631 120.797C68.7837 120.797 68.4264 120.872 68.0911 121.022C67.7646 121.163 67.4779 121.366 67.2308 121.631L66.3176 120.572C66.6705 120.219 67.0985 119.945 67.6014 119.751C68.1043 119.548 68.6514 119.447 69.2425 119.447C69.8866 119.447 70.4557 119.557 70.9498 119.778C71.4439 119.998 71.8277 120.316 72.1013 120.731C72.3748 121.136 72.5115 121.635 72.5115 122.226L72.5115 126.316ZM68.6602 126.527C68.1484 126.527 67.6984 126.435 67.3102 126.249C66.922 126.064 66.6176 125.808 66.397 125.482C66.1852 125.155 66.0794 124.776 66.0794 124.344C66.0794 123.885 66.2117 123.497 66.4764 123.179C66.7411 122.853 67.1161 122.601 67.6014 122.425C68.0955 122.248 68.6646 122.16 69.3087 122.16L71.016 122.16L71.016 123.298L69.441 123.298C68.9646 123.298 68.5808 123.382 68.2896 123.55C67.9984 123.717 67.8528 123.96 67.8528 124.277C67.8528 124.569 67.9631 124.798 68.1837 124.966C68.4131 125.133 68.7087 125.217 69.0705 125.217C69.4146 125.217 69.7278 125.147 70.0101 125.005C70.2925 124.855 70.5219 124.652 70.6984 124.397C70.8748 124.141 70.9763 123.85 71.0028 123.523L71.5057 123.761C71.5057 124.308 71.3866 124.789 71.1483 125.204C70.9101 125.619 70.5748 125.945 70.1425 126.183C69.719 126.413 69.2249 126.527 68.6602 126.527ZM75.7438 126.316L75.7438 120.254L77.4908 120.254L77.4908 126.316L75.7438 126.316ZM73.4938 121.061L73.4938 119.658L79.7407 119.658L79.7407 121.061L73.4938 121.061ZM80.9398 126.316L80.9398 119.658L82.6207 119.658L82.6207 126.091L81.3633 124.913L84.05 124.913C84.3941 124.913 84.6588 124.833 84.8441 124.675C85.0294 124.516 85.1221 124.291 85.1221 124C85.1221 123.708 85.0294 123.488 84.8441 123.338C84.6588 123.179 84.3941 123.1 84.05 123.1L81.8398 123.1L81.8398 121.683L84.2221 121.683C85.0338 121.683 85.6823 121.895 86.1676 122.319C86.6529 122.742 86.8955 123.285 86.8955 123.947C86.8955 124.432 86.7853 124.851 86.5647 125.204C86.3441 125.557 86.0309 125.83 85.625 126.025C85.2191 126.219 84.7515 126.316 84.2221 126.316L80.9398 126.316ZM87.6235 126.316L87.6235 119.658L89.3705 119.658L89.3705 126.316L87.6235 126.316Z" fill="#003C56"/>
</svg>
