<svg width="366" height="191" viewBox="0 0 366 191" fill="none" xmlns="http://www.w3.org/2000/svg">
<g clip-path="url(#clip0_26_1185)">
<path d="M213.506 164.436C195.657 164.436 183.651 160.806 177.787 153.637C172.622 147.325 172.432 138.4 177.219 127.113C178.425 124.251 181.158 121.12 184.04 117.789C190.122 110.78 197.023 102.832 193.154 94.3966C186.762 80.4865 188.666 66.4169 188.756 65.8286C189.374 58.7987 195.467 50.8017 205.469 43.9414C214.763 37.5696 225.283 33.7406 232.871 33.9201C233.42 33.9301 233.859 34.3888 233.849 34.9372C233.839 35.4756 233.39 35.9144 232.851 35.9144H232.822C225.712 35.7249 215.421 39.534 206.596 45.5866C197.222 52.0182 191.299 59.6662 190.741 66.0579C190.711 66.2474 188.836 80.2073 194.969 93.569C199.376 103.171 191.708 112.006 185.545 119.096C182.763 122.297 180.141 125.318 179.054 127.881C174.586 138.44 174.676 146.677 179.333 152.37C193.433 169.611 244.479 159.45 244.987 159.35C245.526 159.241 246.054 159.59 246.164 160.128C246.274 160.666 245.925 161.195 245.386 161.305C245.256 161.335 232.134 163.977 217.395 164.376C216.069 164.416 214.773 164.436 213.506 164.436Z" fill="#363537"/>
<path d="M195.971 93.5041C188.482 80.282 189.299 65.9531 189.299 65.9531C189.349 51.1356 214.319 32.2897 229.625 31.3723C231.979 30.7242 234.452 30.3652 237.014 30.3752C252.082 30.4251 264.257 42.6699 264.218 57.7367L264.188 66.0927C264.926 70.6297 265.344 74.6781 265.723 77.5C267.468 90.4728 279.554 90.064 285.348 96.7946C291.141 103.525 285.308 109.319 286.175 119.16C286.933 127.816 294.293 127.846 299.378 137.169C295.808 142.703 291.58 147.778 286.804 152.275C272.345 155.347 252.521 155.287 252.521 155.287C252.521 155.287 165.766 180.754 182.937 128.244C185.819 119.43 203.14 106.168 195.971 93.5041Z" fill="#363537"/>
<path d="M283.474 75.8149C283.793 59.8906 276.185 46.6785 276.185 46.6785C269.025 32.6487 237.694 26.0477 223.594 32.1003C221.18 32.539 218.807 33.3268 216.524 34.4934C203.101 41.3438 198.126 58.4647 205.405 72.7237L209.444 80.6311C210.969 85.2678 212.535 89.2962 213.552 92.148C218.229 105.24 207.25 110.306 205.315 119.3C203.381 128.294 211.368 131.156 215.327 140.878C218.807 149.434 212.256 152.784 212.206 163.912C218.059 167.542 224.262 170.443 230.683 172.557C245.053 168.938 262.723 159.924 262.723 159.924C262.723 159.924 352.359 144.897 311.814 102.847C305.003 95.7876 283.185 91.0312 283.494 75.7949L283.474 75.8149Z" fill="#363537"/>
<path d="M241.942 114.832C252.941 113.207 278.908 110.555 278.908 110.555L299.669 120.646L359.141 180.115L342.677 216.042H161.609L192.303 143.59C197.687 130.886 208.975 121.633 222.487 118.841L241.932 114.832H241.942Z" fill="#F37E60"/>
<path d="M278.899 165.17C293.983 165.17 306.211 152.942 306.211 137.859C306.211 122.775 293.983 110.547 278.899 110.547C263.814 110.547 251.586 122.775 251.586 137.859C251.586 152.942 263.814 165.17 278.899 165.17Z" fill="#F37E60"/>
<path d="M308.206 189.878C307.946 189.878 307.697 189.779 307.498 189.589L293.378 175.44C292.989 175.051 292.989 174.423 293.378 174.034C293.767 173.645 294.395 173.645 294.784 174.034L308.904 188.183C309.293 188.572 309.293 189.2 308.904 189.589C308.704 189.779 308.455 189.878 308.196 189.878H308.206Z" fill="#D56448"/>
<path d="M301.535 190.652C301.515 190.452 301.415 190.273 301.265 190.153C301.106 190.034 300.906 189.974 300.717 190.004L251.287 196.306C249.103 193.324 245.354 188.468 238.902 180.441C237.944 179.254 236.518 178.566 234.993 178.566H234.235L233.647 177.819C232.42 176.263 230.406 175.575 228.451 176.054L227.045 174.877C225.23 173.361 222.568 173.331 220.713 174.797L220.225 175.196C220.225 175.196 220.185 175.196 220.165 175.206L205.885 180.561C205.736 180.611 205.616 180.72 205.526 180.85L195.544 196.425C195.375 196.694 195.395 197.043 195.594 197.293C196.272 198.1 197.788 199.197 199.752 199.197C200.62 199.197 201.577 198.988 202.584 198.449C203.631 197.891 204.489 197.303 205.207 196.724L202.285 204.103C202.146 204.462 202.305 204.881 202.664 205.041C203.053 205.21 205.626 206.337 207.87 206.337C208.697 206.337 209.465 206.177 210.073 205.778C210.901 206.327 212.028 206.805 213.214 206.805C214.172 206.805 215.179 206.496 216.096 205.649C216.814 204.991 217.482 204.233 218.071 203.455C218.091 203.654 218.15 203.854 218.32 203.984C218.968 204.482 219.915 205.021 220.923 205.26C220.933 205.28 220.943 205.31 220.962 205.33C221.232 205.649 227.534 213.257 232.988 214.344C239.071 215.56 247.846 215.57 248.215 215.57H303.22C303.429 215.57 303.629 215.481 303.758 215.331C303.898 215.181 303.968 214.972 303.938 214.773L301.505 190.682L301.535 190.652Z" fill="#F1BBA2"/>
<path d="M251.167 198.049C250.669 198.049 250.24 197.68 250.18 197.181C250.11 196.633 250.499 196.134 251.048 196.065L300.697 189.733C301.236 189.673 301.744 190.052 301.814 190.6C301.884 191.149 301.495 191.647 300.946 191.717L251.297 198.049C251.297 198.049 251.217 198.049 251.167 198.049Z" fill="#D59A7E"/>
<path d="M207.862 206.58C205.658 206.58 203.195 205.543 202.567 205.254C202.078 205.035 201.849 204.476 202.048 203.978L209.188 185.91C209.986 183.875 211.312 182.081 213.007 180.705L220.546 174.572C222.511 173.027 225.313 173.066 227.217 174.652L228.524 175.739C230.518 175.3 232.592 176.018 233.858 177.623L234.367 178.272H234.995C236.611 178.272 238.106 178.99 239.114 180.246C254.59 199.511 254.59 200.637 254.59 201.176C254.59 201.714 254.141 202.173 253.593 202.173C253.094 202.173 252.675 201.804 252.605 201.315C252.127 200.059 246.243 192.311 237.558 181.492C236.93 180.715 235.992 180.266 234.995 180.266H233.888C233.579 180.266 233.29 180.126 233.101 179.887L232.293 178.86C231.435 177.763 229.969 177.334 228.663 177.773C228.334 177.883 227.925 177.833 227.656 177.613L225.951 176.188C224.764 175.2 223.019 175.17 221.803 176.128L214.284 182.24C212.858 183.407 211.741 184.922 211.063 186.638L204.282 203.788C206.057 204.446 208.341 204.915 209.208 204.277C209.647 203.948 210.275 204.038 210.604 204.476C210.933 204.915 210.844 205.543 210.405 205.872C209.717 206.391 208.819 206.58 207.882 206.58H207.862Z" fill="#D59A7E"/>
<path d="M213.239 207.056C211.524 207.056 209.948 206.109 209.11 205.341C208.811 205.072 208.712 204.643 208.851 204.264L213.338 192.119C214.286 189.556 215.722 187.243 217.596 185.249L223.181 179.335C223.56 178.937 224.188 178.917 224.587 179.296C224.986 179.675 225.005 180.303 224.627 180.702L219.042 186.615C217.347 188.409 216.061 190.493 215.203 192.807L210.975 204.264C211.813 204.832 213.518 205.66 214.954 204.354C217.457 202.08 219.332 198.132 219.342 198.092C219.581 197.593 220.169 197.384 220.668 197.613C221.166 197.852 221.376 198.441 221.146 198.939C221.067 199.119 219.082 203.287 216.29 205.819C215.303 206.717 214.246 207.046 213.229 207.046L213.239 207.056Z" fill="#D59A7E"/>
<path d="M221.958 205.63C220.542 205.63 219.086 204.862 218.188 204.174C217.859 203.925 217.72 203.496 217.839 203.097L219.983 195.908C220.871 192.927 222.566 190.254 224.889 188.2C229.746 183.902 230.284 183.623 230.513 183.514C231.012 183.264 231.6 183.464 231.85 183.962C232.099 184.451 231.899 185.049 231.411 185.298C231.251 185.388 230.424 185.957 226.206 189.696C224.161 191.511 222.666 193.854 221.888 196.486L219.963 202.968C220.751 203.426 222.177 204.065 222.915 203.227C224.57 201.332 228.659 195.798 228.708 195.748C228.768 195.669 228.848 195.589 228.928 195.529L234.033 191.88C234.482 191.56 235.1 191.66 235.419 192.109C235.739 192.558 235.639 193.176 235.19 193.495L230.204 197.055C229.566 197.922 225.996 202.718 224.411 204.533C223.703 205.341 222.835 205.64 221.958 205.64V205.63Z" fill="#D59A7E"/>
<path d="M199.755 199.45C197.691 199.45 196.095 198.304 195.387 197.456C195.108 197.117 195.078 196.648 195.318 196.279L205.299 180.704C205.409 180.525 205.579 180.395 205.768 180.315L219.15 174.961C219.659 174.761 220.237 175 220.447 175.519C220.656 176.028 220.407 176.606 219.888 176.815L206.805 182.05L197.442 196.658C198.199 197.247 199.725 197.995 201.769 196.908C205.1 195.133 206.486 192.909 206.496 192.889C206.785 192.421 207.393 192.271 207.862 192.55C208.331 192.839 208.48 193.448 208.201 193.916C208.131 194.026 206.556 196.609 202.707 198.663C201.65 199.221 200.653 199.44 199.755 199.44V199.45Z" fill="#D59A7E"/>
<path d="M357.951 209.717C366.386 201.283 366.386 187.608 357.951 179.173C349.516 170.739 335.84 170.739 327.406 179.173C318.971 187.608 318.971 201.283 327.406 209.717C335.84 218.152 349.516 218.152 357.951 209.717Z" fill="#F37E60"/>
<path d="M302.626 191.381C302.118 191.381 301.679 190.992 301.629 190.463C301.579 189.915 301.988 189.436 302.537 189.386L320.655 187.881C321.214 187.821 321.682 188.24 321.732 188.788C321.782 189.337 321.373 189.815 320.825 189.865L302.706 191.371C302.706 191.371 302.646 191.371 302.626 191.371V191.381Z" fill="#D56448"/>
<path d="M86.4568 216.211H179.673L155.811 127.147C154.435 122.021 148.81 118.103 143.964 118.9L70.6515 130.876C66.7625 131.514 64.6983 135.014 65.8052 139.122L86.4568 216.211Z" fill="#E4E4E4"/>
<path d="M108.44 174.35C110.136 179.356 114.224 182.507 117.565 181.37C120.905 180.243 122.231 175.258 120.536 170.252C118.841 165.246 114.753 162.095 111.412 163.232C108.071 164.359 106.745 169.344 108.44 174.35Z" fill="#D3D3D3"/>
<path d="M243.431 135.162C254.899 132.031 261.66 120.195 258.519 108.728L252.247 85.7734L219.539 94.7078L228.215 126.477C230.019 133.078 236.83 136.967 243.422 135.162H243.431Z" fill="#F1BBA2"/>
<path d="M225.771 117.51L219.539 94.705L240.32 89.0312L249.086 95.0141C246.303 105.155 238.156 113.341 225.771 117.51Z" fill="#D59A7E"/>
<path d="M226.039 107.799C241.107 107.849 253.362 95.6635 253.402 80.5967L253.452 63.5257C253.502 48.4589 241.316 36.2041 226.249 36.1642C211.181 36.1144 198.926 48.2994 198.886 63.3662L198.836 80.4372C198.786 95.504 210.972 107.759 226.039 107.799Z" fill="#F1BBA2"/>
<path d="M228.214 34.4689C244.558 34.5187 257.771 47.332 257.721 63.0868L257.701 68.9699C246.193 76.2291 230.607 74.9527 220.526 65.1808L207.463 52.5171C205.847 50.9516 204.471 49.2465 203.305 47.4417C208.6 39.6041 217.774 34.439 228.204 34.4689H228.214Z" fill="#363537"/>
<path d="M248.852 86.0658C253.02 87.9504 257.916 86.0958 259.801 81.9277L260.349 80.7012C262.234 76.5332 260.379 71.6372 256.211 69.7526C252.043 67.8681 247.147 69.7227 245.262 73.8908L244.714 75.1173C242.829 79.2853 244.684 84.1812 248.852 86.0658Z" fill="#F1BBA2"/>
<path d="M202.146 75.0211C202.475 77.0353 203.771 78.4912 205.058 78.2917C206.334 78.0823 207.112 76.2875 206.783 74.2733C206.454 72.259 205.157 70.8032 203.871 71.0026C202.595 71.212 201.817 73.0069 202.146 75.0211Z" fill="#363537"/>
<path d="M195.182 70.9017C194.952 70.9017 194.713 70.822 194.524 70.6525C194.105 70.2935 194.065 69.6553 194.424 69.2465C199.081 63.9018 207.018 65.1881 207.357 65.248C207.896 65.3377 208.265 65.8562 208.175 66.3947C208.085 66.9331 207.557 67.3021 207.028 67.2123C206.958 67.2024 199.849 66.0656 195.93 70.5527C195.73 70.7821 195.451 70.8918 195.182 70.8918V70.9017Z" fill="#363537"/>
<path d="M220.365 73.2946C220.694 75.3088 221.99 76.7646 223.276 76.5652C224.553 76.3558 225.331 74.5609 225.001 72.5467C224.672 70.5325 223.376 69.0767 222.09 69.2761C220.813 69.4855 220.035 71.2803 220.365 73.2946Z" fill="#363537"/>
<path d="M215.213 68.1665C214.924 68.1665 214.635 68.0469 214.445 67.7976C214.096 67.3688 214.156 66.7406 214.585 66.3916C220.06 61.8945 227.678 64.4771 227.997 64.5868C228.516 64.7663 228.795 65.3347 228.615 65.8532C228.436 66.3717 227.867 66.6509 227.349 66.4714C227.279 66.4515 220.458 64.158 215.851 67.9372C215.662 68.0868 215.443 68.1665 215.223 68.1665H215.213Z" fill="#363537"/>
<path d="M213.596 87.5079C213.157 87.5079 209.308 87.4381 207.902 85.4139C207.503 84.8356 207.124 83.8584 207.643 82.4624C208.7 79.5906 210.644 70.2973 210.664 70.1976C210.774 69.6591 211.293 69.3101 211.841 69.4298C212.38 69.5395 212.729 70.0679 212.609 70.6064C212.529 70.9953 210.615 80.149 209.508 83.1504C209.278 83.7886 209.408 84.0977 209.538 84.2772C210.186 85.2045 212.549 85.5136 213.596 85.5136C214.145 85.5136 214.593 85.9623 214.593 86.5108C214.593 87.0592 214.145 87.5079 213.596 87.5079Z" fill="#D59A7E"/>
<path d="M214.913 94.2347C214.384 94.2347 213.945 93.8259 213.916 93.2974C213.886 92.749 214.304 92.2704 214.853 92.2404C219.649 91.9513 222.471 88.0325 222.501 87.9926C222.82 87.5439 223.439 87.4342 223.887 87.7533C224.336 88.0724 224.446 88.6906 224.137 89.1393C223.997 89.3388 220.766 93.8957 214.973 94.2347C214.953 94.2347 214.933 94.2347 214.913 94.2347Z" fill="#D59A7E"/>
<path d="M250.164 82.0272C249.646 82.0272 249.207 81.6283 249.167 81.0999C248.698 74.09 253.196 72.1555 253.385 72.0757C253.894 71.8663 254.472 72.1057 254.691 72.6142C254.901 73.1227 254.661 73.7011 254.163 73.9105C254.003 73.9803 250.792 75.466 251.171 80.9603C251.211 81.5087 250.792 81.9873 250.244 82.0272C250.224 82.0272 250.194 82.0272 250.174 82.0272H250.164Z" fill="#D59A7E"/>
<path d="M18.7338 66.1172L85.5019 66.1172C95.8476 66.1172 104.234 57.7284 104.234 47.3804V18.7422C104.234 8.39415 95.8476 0.00540161 85.5019 0.00540161L18.7338 0.00540161C8.3882 0.00540161 0.00139618 8.39415 0.00139618 18.7422V47.3804C0.00139618 57.7284 8.3882 66.1172 18.7338 66.1172Z" fill="#F37E60"/>
<path d="M73.7334 50.3359V84.6989L42.2109 55.4327L73.7334 50.3359Z" fill="#F37E60"/>
<path d="M145.068 42.2967H114.487C103.553 42.2967 94.6719 51.164 94.6719 62.1169V67.014C94.6719 76.0358 100.711 83.6364 108.958 86.0308V99.3473L123.322 86.8187H145.068C156.003 86.8187 164.884 77.9514 164.884 66.9985V62.1014C164.884 51.164 156.018 42.2812 145.068 42.2812V42.2967Z" fill="#6683C2"/>
<path d="M147.749 60.5068H112.318C111.473 60.5068 110.781 59.76 110.781 58.8472C110.781 57.9344 111.473 57.1875 112.318 57.1875H147.749C148.594 57.1875 149.286 57.9344 149.286 58.8472C149.286 59.76 148.594 60.5068 147.749 60.5068Z" fill="white"/>
<path d="M147.749 70.4678H112.318C111.473 70.4678 110.781 69.7209 110.781 68.8081C110.781 67.8953 111.473 67.1484 112.318 67.1484H147.749C148.594 67.1484 149.286 67.8953 149.286 68.8081C149.286 69.7209 148.594 70.4678 147.749 70.4678Z" fill="white"/>
<path d="M55.1869 40.0042H47.9628C47.8111 38.3051 47.8869 36.8514 48.1903 35.6431C48.5316 34.3971 49.1952 33.2266 50.1812 32.1316C51.2051 30.9989 52.6651 29.7528 54.5612 28.3935C55.623 27.6384 56.3814 26.9587 56.8365 26.3546C57.2916 25.7127 57.5191 24.9953 57.5191 24.2024C57.5191 22.9941 57.0451 21.9935 56.097 21.2006C55.149 20.4077 53.8976 20.0112 52.3428 20.0112C50.8638 20.0112 49.309 20.4643 47.6784 21.3705C46.0856 22.239 44.5877 23.6927 43.1846 25.7316L36.9844 19.5581C38.9942 17.1416 41.3644 15.2726 44.0947 13.9511C46.8251 12.6295 49.6693 11.9688 52.6272 11.9688C55.3955 11.9688 57.8414 12.5162 59.9651 13.6112C62.1266 14.7062 63.8331 16.1788 65.0845 18.0289C66.3359 19.8413 66.9617 21.8991 66.9617 24.2024C66.9617 26.3546 66.3549 28.2803 65.1414 29.9794C63.9279 31.6408 62.1456 33.1322 59.7944 34.4537C57.9362 35.4732 56.7038 36.3794 56.097 37.1723C55.5282 37.9652 55.2248 38.9092 55.1869 40.0042ZM57.4053 48.4998C57.4053 50.0101 56.8555 51.2939 55.7557 52.3511C54.656 53.4083 53.3098 53.9369 51.717 53.9369C50.1243 53.9369 48.7781 53.4083 47.6784 52.3511C46.5786 51.2939 46.0288 50.0101 46.0288 48.4998C46.0288 46.9517 46.5786 45.649 47.6784 44.5918C48.7781 43.5346 50.1243 43.006 51.717 43.006C53.3098 43.006 54.656 43.5346 55.7557 44.5918C56.8555 45.649 57.4053 46.9517 57.4053 48.4998Z" fill="white"/>
</g>
<defs>
<clipPath id="clip0_26_1185">
<rect width="373" height="191" fill="white"/>
</clipPath>
</defs>
</svg>
