<svg width="450" height="275" viewBox="0 0 450 275" fill="none" xmlns="http://www.w3.org/2000/svg">
<mask id="mask0_2003_1559" style="mask-type:alpha" maskUnits="userSpaceOnUse" x="0" y="0" width="450" height="275">
<rect width="450" height="275" fill="#D9D9D9"/>
</mask>
<g mask="url(#mask0_2003_1559)">
<mask id="mask1_2003_1559" style="mask-type:alpha" maskUnits="userSpaceOnUse" x="-7" y="-15" width="457" height="290">
<rect x="-7" y="-15" width="457" height="290" fill="#D9D9D9"/>
</mask>
<g mask="url(#mask1_2003_1559)">
</g>
<g clip-path="url(#clip0_2003_1559)">
<path d="M297.857 223.199C279.341 223.199 266.887 219.434 260.804 211.997C255.446 205.449 255.25 196.192 260.215 184.483C261.467 181.514 264.301 178.266 267.29 174.811C273.6 167.54 280.758 159.296 276.745 150.545C270.114 136.116 272.09 121.521 272.183 120.911C272.824 113.618 279.145 105.323 289.52 98.2063C299.16 91.5967 310.073 87.6248 317.945 87.811C318.514 87.8213 318.969 88.2971 318.959 88.866C318.948 89.4246 318.483 89.8797 317.924 89.8797H317.893C310.518 89.6832 299.843 93.6344 290.688 99.913C280.965 106.585 274.821 114.518 274.241 121.148C274.21 121.345 272.266 135.826 278.627 149.687C283.199 159.647 275.245 168.812 268.852 176.166C265.966 179.487 263.246 182.621 262.118 185.279C257.484 196.233 257.577 204.777 262.408 210.683C277.034 228.567 329.986 218.027 330.513 217.924C331.072 217.81 331.62 218.172 331.734 218.73C331.847 219.289 331.485 219.837 330.927 219.951C330.792 219.982 317.18 222.723 301.891 223.137C300.515 223.178 299.171 223.199 297.857 223.199Z" fill="#363537"/>
<path d="M279.658 149.626C271.89 135.911 272.738 121.047 272.738 121.047C272.79 105.676 298.691 86.1268 314.569 85.1752C317.011 84.5029 319.576 84.1305 322.234 84.1408C337.864 84.1926 350.494 96.8945 350.453 112.524L350.422 121.192C351.187 125.898 351.622 130.098 352.015 133.025C353.825 146.482 366.362 146.058 372.372 153.04C378.382 160.022 372.331 166.031 373.231 176.241C374.017 185.219 381.651 185.25 386.926 194.921C383.223 200.662 378.837 205.927 373.882 210.592C358.883 213.778 338.319 213.716 338.319 213.716C338.319 213.716 248.326 240.133 266.139 185.664C269.128 176.52 287.096 162.763 279.658 149.626Z" fill="#363537"/>
<path d="M370.428 131.273C370.759 114.754 362.866 101.049 362.866 101.049C355.439 86.4953 322.938 79.6478 308.312 85.9264C305.808 86.3815 303.346 87.1987 300.978 88.4089C287.055 95.515 281.893 113.275 289.444 128.066L293.633 136.269C295.216 141.079 296.84 145.257 297.895 148.216C302.747 161.797 291.358 167.052 289.351 176.381C287.344 185.711 295.63 188.68 299.736 198.765C303.347 207.64 296.55 211.115 296.499 222.659C302.571 226.424 309.005 229.434 315.666 231.627C330.572 227.872 348.902 218.521 348.902 218.521C348.902 218.521 441.884 202.934 399.826 159.314C392.761 151.991 370.128 147.057 370.448 131.252L370.428 131.273Z" fill="#363537"/>
<path d="M327.34 171.742C338.749 170.056 365.685 167.305 365.685 167.305L387.221 177.772L448.913 239.462L431.835 276.73H244.008L275.847 201.573C281.433 188.395 293.142 178.796 307.158 175.9L327.329 171.742H327.34Z" fill="#F37E60"/>
<path d="M365.684 223.959C381.331 223.959 394.016 211.275 394.016 195.628C394.016 179.981 381.331 167.297 365.684 167.297C350.036 167.297 337.352 179.981 337.352 195.628C337.352 211.275 350.036 223.959 365.684 223.959Z" fill="#F37E60"/>
<path d="M396.083 249.59C395.814 249.59 395.555 249.487 395.348 249.29L380.701 234.613C380.298 234.209 380.298 233.558 380.701 233.154C381.104 232.751 381.756 232.751 382.16 233.154L396.807 247.832C397.21 248.235 397.21 248.887 396.807 249.29C396.6 249.487 396.341 249.59 396.072 249.59H396.083Z" fill="#D56448"/>
<path d="M389.16 250.393C389.139 250.186 389.036 250 388.88 249.876C388.715 249.752 388.508 249.69 388.311 249.721L337.036 256.258C334.771 253.165 330.881 248.128 324.189 239.801C323.196 238.571 321.716 237.857 320.134 237.857H319.348L318.737 237.081C317.465 235.467 315.376 234.754 313.348 235.25L311.89 234.03C310.007 232.457 307.245 232.426 305.321 233.947L304.814 234.361C304.814 234.361 304.773 234.361 304.752 234.371L289.939 239.926C289.784 239.977 289.66 240.091 289.567 240.226L279.213 256.382C279.037 256.662 279.058 257.024 279.264 257.282C279.968 258.12 281.54 259.258 283.578 259.258C284.478 259.258 285.471 259.041 286.516 258.482C287.602 257.903 288.491 257.293 289.236 256.693L286.205 264.347C286.06 264.719 286.226 265.154 286.598 265.319C287.002 265.495 289.671 266.664 291.998 266.664C292.857 266.664 293.653 266.498 294.284 266.085C295.143 266.653 296.311 267.15 297.542 267.15C298.535 267.15 299.58 266.829 300.532 265.95C301.277 265.267 301.97 264.481 302.58 263.675C302.601 263.881 302.663 264.088 302.839 264.223C303.511 264.74 304.494 265.298 305.538 265.547C305.549 265.567 305.559 265.598 305.58 265.619C305.859 265.95 312.396 273.842 318.055 274.97C324.365 276.232 333.467 276.242 333.85 276.242H390.908C391.125 276.242 391.332 276.149 391.466 275.994C391.611 275.839 391.684 275.621 391.653 275.415L389.129 250.424L389.16 250.393Z" fill="#F1BBA2"/>
<path d="M336.915 258.071C336.398 258.071 335.953 257.688 335.891 257.171C335.819 256.602 336.222 256.085 336.791 256.012L388.294 249.444C388.853 249.382 389.38 249.775 389.453 250.344C389.525 250.913 389.122 251.43 388.553 251.502L337.05 258.071C337.05 258.071 336.967 258.071 336.915 258.071Z" fill="#D59A7E"/>
<path d="M291.988 266.919C289.702 266.919 287.147 265.843 286.495 265.543C285.988 265.316 285.75 264.737 285.957 264.219L293.364 245.477C294.191 243.367 295.567 241.505 297.325 240.077L305.146 233.716C307.183 232.113 310.09 232.154 312.066 233.799L313.421 234.926C315.49 234.471 317.641 235.216 318.955 236.881L319.482 237.554H320.134C321.81 237.554 323.361 238.298 324.406 239.602C340.46 259.586 340.46 260.754 340.46 261.313C340.46 261.871 339.995 262.347 339.426 262.347C338.909 262.347 338.474 261.965 338.402 261.458C337.905 260.154 331.802 252.117 322.793 240.895C322.141 240.088 321.169 239.622 320.134 239.622H318.986C318.665 239.622 318.365 239.477 318.169 239.229L317.331 238.164C316.441 237.026 314.921 236.581 313.566 237.036C313.224 237.15 312.8 237.098 312.521 236.871L310.752 235.392C309.521 234.368 307.711 234.337 306.449 235.33L298.65 241.67C297.17 242.881 296.012 244.453 295.308 246.232L288.274 264.023C290.116 264.706 292.484 265.192 293.384 264.53C293.84 264.188 294.491 264.282 294.833 264.737C295.174 265.192 295.081 265.843 294.626 266.185C293.912 266.723 292.981 266.919 292.009 266.919H291.988Z" fill="#D59A7E"/>
<path d="M297.569 267.415C295.79 267.415 294.155 266.432 293.286 265.636C292.976 265.357 292.873 264.912 293.018 264.519L297.672 251.92C298.655 249.262 300.145 246.862 302.089 244.793L307.882 238.66C308.275 238.246 308.927 238.225 309.34 238.618C309.754 239.011 309.775 239.663 309.382 240.077L303.589 246.21C301.831 248.072 300.496 250.234 299.607 252.634L295.221 264.519C296.09 265.108 297.859 265.967 299.348 264.612C301.944 262.253 303.889 258.157 303.9 258.116C304.148 257.599 304.758 257.382 305.275 257.62C305.792 257.868 306.01 258.478 305.772 258.995C305.689 259.181 303.631 263.505 300.734 266.132C299.71 267.063 298.614 267.405 297.559 267.405L297.569 267.415Z" fill="#D59A7E"/>
<path d="M306.613 265.936C305.144 265.936 303.634 265.14 302.703 264.426C302.361 264.168 302.217 263.723 302.341 263.309L304.565 255.851C305.485 252.759 307.244 249.986 309.654 247.856C314.692 243.398 315.25 243.108 315.488 242.994C316.005 242.736 316.616 242.942 316.874 243.46C317.133 243.966 316.926 244.587 316.419 244.846C316.254 244.939 315.395 245.528 311.019 249.407C308.899 251.29 307.347 253.72 306.54 256.451L304.544 263.175C305.361 263.65 306.84 264.312 307.606 263.444C309.323 261.478 313.564 255.737 313.616 255.686C313.678 255.603 313.761 255.52 313.843 255.458L319.14 251.672C319.605 251.341 320.246 251.445 320.577 251.91C320.908 252.376 320.805 253.017 320.339 253.348L315.167 257.041C314.505 257.941 310.802 262.916 309.158 264.799C308.423 265.636 307.523 265.947 306.613 265.947V265.936Z" fill="#D59A7E"/>
<path d="M390.932 276.511H333.874C333.491 276.511 324.357 276.501 318.017 275.229C312.286 274.08 305.355 266.136 305.066 265.805C304.693 265.371 304.735 264.719 305.169 264.347C305.604 263.975 306.255 264.016 306.628 264.45C306.7 264.523 313.382 272.198 318.42 273.201C324.554 274.432 333.781 274.442 333.874 274.442H390.932C391.501 274.442 391.966 274.908 391.966 275.477C391.966 276.046 391.501 276.511 390.932 276.511Z" fill="#D59A7E"/>
<path d="M283.583 259.523C281.442 259.523 279.787 258.334 279.052 257.455C278.763 257.103 278.732 256.617 278.98 256.234L289.334 240.077C289.448 239.891 289.624 239.757 289.82 239.674L303.702 234.119C304.23 233.913 304.83 234.161 305.047 234.699C305.264 235.226 305.006 235.826 304.468 236.043L290.896 241.474L281.183 256.627C281.969 257.237 283.552 258.013 285.672 256.886C289.127 255.045 290.565 252.738 290.576 252.717C290.876 252.231 291.507 252.076 291.993 252.366C292.479 252.666 292.634 253.297 292.344 253.783C292.272 253.896 290.638 256.576 286.645 258.706C285.548 259.286 284.514 259.513 283.583 259.513V259.523Z" fill="#D59A7E"/>
<path d="M319.107 260.091C318.755 260.091 318.414 259.915 318.217 259.594C316.779 257.225 316.159 256.594 316.014 256.46C315.662 256.295 315.414 255.932 315.414 255.519C315.414 254.95 315.88 254.484 316.448 254.484C316.904 254.484 317.535 254.484 319.986 258.518C320.286 259.005 320.131 259.646 319.634 259.935C319.469 260.039 319.283 260.091 319.097 260.091H319.107Z" fill="#D59A7E"/>
<path d="M447.677 270.17C456.427 261.421 456.427 247.235 447.677 238.486C438.927 229.736 424.741 229.736 415.991 238.486C407.242 247.235 407.242 261.421 415.991 270.17C424.741 278.92 438.927 278.92 447.677 270.17Z" fill="#F37E60"/>
<path d="M390.296 251.144C389.769 251.144 389.314 250.741 389.262 250.193C389.21 249.624 389.634 249.127 390.203 249.076L408.999 247.514C409.578 247.452 410.064 247.886 410.116 248.455C410.167 249.024 409.743 249.52 409.174 249.572L390.379 251.134C390.379 251.134 390.317 251.134 390.296 251.134V251.144Z" fill="#D56448"/>
<path d="M330.763 276.914H204.948V266.426H321.484C326.615 266.426 330.773 270.584 330.773 275.714V276.914H330.763Z" fill="#F1F1F1"/>
<path d="M166.059 276.91H262.755L238.002 184.521C236.575 179.204 230.741 175.139 225.713 175.967L149.664 188.389C145.63 189.051 143.488 192.682 144.637 196.944L166.059 276.91Z" fill="#E4E4E4"/>
<path d="M188.859 233.493C190.617 238.685 194.858 241.954 198.323 240.775C201.789 239.606 203.164 234.434 201.406 229.241C199.647 224.049 195.406 220.78 191.941 221.959C188.476 223.128 187.1 228.3 188.859 233.493Z" fill="#D3D3D3"/>
<path d="M328.886 192.834C340.782 189.586 347.795 177.308 344.536 165.413L338.03 141.602L304.102 150.869L313.101 183.824C314.973 190.672 322.038 194.706 328.876 192.834H328.886Z" fill="#F1BBA2"/>
<path d="M310.567 174.518L304.102 150.862L325.659 144.977L334.751 151.183C331.865 161.702 323.414 170.194 310.567 174.518Z" fill="#D59A7E"/>
<path d="M310.852 164.449C326.481 164.501 339.194 151.861 339.236 136.232L339.287 118.524C339.339 102.894 326.699 90.1822 311.069 90.1408C295.439 90.0891 282.726 102.729 282.685 118.358L282.633 136.067C282.581 151.696 295.222 164.408 310.852 164.449Z" fill="#F1BBA2"/>
<path d="M313.105 88.3751C330.059 88.4269 343.765 101.718 343.713 118.061L343.692 124.164C331.755 131.694 315.588 130.37 305.13 120.234L291.579 107.097C289.903 105.473 288.476 103.704 287.266 101.832C292.758 93.7021 302.275 88.3441 313.095 88.3751H313.105Z" fill="#363537"/>
<path d="M334.518 141.905C338.842 143.86 343.921 141.936 345.876 137.613L346.445 136.341C348.4 132.017 346.476 126.938 342.152 124.983C337.828 123.028 332.749 124.952 330.794 129.276L330.226 130.548C328.27 134.872 330.194 139.951 334.518 141.905Z" fill="#F1BBA2"/>
<path d="M286.063 130.445C286.404 132.535 287.749 134.045 289.083 133.838C290.407 133.621 291.214 131.759 290.873 129.669C290.531 127.58 289.187 126.07 287.852 126.277C286.528 126.494 285.721 128.356 286.063 130.445Z" fill="#363537"/>
<path d="M278.844 126.182C278.606 126.182 278.358 126.099 278.161 125.923C277.727 125.551 277.686 124.889 278.058 124.465C282.889 118.921 291.123 120.255 291.474 120.317C292.033 120.41 292.416 120.948 292.322 121.507C292.229 122.065 291.681 122.448 291.133 122.355C291.06 122.344 283.685 121.165 279.62 125.82C279.413 126.058 279.123 126.172 278.844 126.172V126.182Z" fill="#363537"/>
<path d="M304.969 128.656C305.31 130.746 306.655 132.256 307.989 132.049C309.313 131.832 310.12 129.97 309.779 127.88C309.438 125.791 308.093 124.281 306.758 124.488C305.434 124.705 304.628 126.567 304.969 128.656Z" fill="#363537"/>
<path d="M299.618 123.339C299.318 123.339 299.018 123.215 298.821 122.957C298.459 122.512 298.521 121.86 298.966 121.498C304.645 116.833 312.548 119.512 312.879 119.626C313.417 119.812 313.706 120.402 313.52 120.939C313.334 121.477 312.744 121.767 312.206 121.581C312.134 121.56 305.059 119.181 300.28 123.101C300.083 123.256 299.855 123.339 299.628 123.339H299.618Z" fill="#363537"/>
<path d="M297.945 143.402C297.49 143.402 293.497 143.33 292.038 141.23C291.625 140.63 291.232 139.617 291.769 138.169C292.866 135.19 294.883 125.549 294.904 125.446C295.018 124.887 295.555 124.525 296.124 124.649C296.683 124.763 297.045 125.311 296.921 125.87C296.838 126.273 294.852 135.769 293.704 138.882C293.466 139.544 293.6 139.865 293.735 140.051C294.407 141.013 296.859 141.334 297.945 141.334C298.514 141.334 298.979 141.799 298.979 142.368C298.979 142.937 298.514 143.402 297.945 143.402Z" fill="#D59A7E"/>
<path d="M299.309 150.382C298.761 150.382 298.306 149.958 298.275 149.41C298.244 148.841 298.678 148.344 299.247 148.313C304.223 148.013 307.15 143.948 307.181 143.907C307.512 143.441 308.154 143.328 308.619 143.659C309.085 143.99 309.198 144.631 308.878 145.096C308.733 145.303 305.381 150.03 299.371 150.382C299.351 150.382 299.33 150.382 299.309 150.382Z" fill="#D59A7E"/>
<path d="M335.882 137.714C335.345 137.714 334.889 137.3 334.848 136.752C334.362 129.48 339.027 127.474 339.224 127.391C339.751 127.174 340.351 127.422 340.579 127.95C340.796 128.477 340.548 129.077 340.03 129.294C339.865 129.367 336.534 130.908 336.927 136.607C336.969 137.176 336.534 137.673 335.965 137.714C335.944 137.714 335.913 137.714 335.893 137.714H335.882Z" fill="#D59A7E"/>
<path d="M59.5063 110.406L150.44 110.406C164.53 110.406 175.953 98.9813 175.953 84.8879V45.8845C175.953 31.7911 164.53 20.3662 150.44 20.3662L59.5063 20.3662C45.4162 20.3662 33.9939 31.7911 33.9939 45.8845V84.8879C33.9939 98.9813 45.4162 110.406 59.5063 110.406Z" fill="#F37E60"/>
<path d="M134.415 88.9219V135.722L91.4839 95.8633L134.415 88.9219Z" fill="#F37E60"/>
<path d="M231.566 77.982H189.917C175.025 77.982 162.93 90.0587 162.93 104.976V111.645C162.93 123.932 171.154 134.284 182.387 137.545V155.681L201.949 138.618H231.566C246.459 138.618 258.554 126.541 258.554 111.624V104.955C258.554 90.0587 246.48 77.9609 231.566 77.9609V77.982Z" fill="#6683C2"/>
<path d="M235.231 102.786H186.975C185.824 102.786 184.883 101.769 184.883 100.526C184.883 99.2828 185.824 98.2656 186.975 98.2656H235.231C236.382 98.2656 237.323 99.2828 237.323 100.526C237.323 101.769 236.382 102.786 235.231 102.786Z" fill="white"/>
<path d="M235.231 116.349H186.975C185.824 116.349 184.883 115.332 184.883 114.088C184.883 112.845 185.824 111.828 186.975 111.828H235.231C236.382 111.828 237.323 112.845 237.323 114.088C237.323 115.332 236.382 116.349 235.231 116.349Z" fill="white"/>
<path d="M109.142 74.8622H99.3034C99.0969 72.5481 99.2002 70.5682 99.6133 68.9227C100.078 67.2257 100.982 65.6315 102.325 64.1402C103.719 62.5975 105.708 60.9005 108.29 59.0492C109.736 58.0207 110.769 57.0951 111.389 56.2723C112.009 55.3981 112.319 54.421 112.319 53.3411C112.319 51.6956 111.673 50.3328 110.382 49.2529C109.091 48.173 107.386 47.633 105.269 47.633C103.254 47.633 101.137 48.2501 98.9161 49.4843C96.7469 50.6671 94.7068 52.6469 92.7959 55.4238L84.3516 47.016C87.0889 43.7248 90.3168 41.1793 94.0354 39.3795C97.754 37.5796 101.628 36.6797 105.656 36.6797C109.426 36.6797 112.758 37.4253 115.65 38.9166C118.594 40.4079 120.918 42.4135 122.622 44.9333C124.327 47.4016 125.179 50.2043 125.179 53.3411C125.179 56.2723 124.352 58.8949 122.7 61.209C121.047 63.4717 118.62 65.503 115.417 67.3028C112.887 68.6913 111.208 69.9254 110.382 71.0054C109.607 72.0853 109.194 73.3709 109.142 74.8622ZM112.164 86.4326C112.164 88.4896 111.415 90.238 109.917 91.6779C108.419 93.1178 106.586 93.8377 104.417 93.8377C102.247 93.8377 100.414 93.1178 98.9161 91.6779C97.4183 90.238 96.6694 88.4896 96.6694 86.4326C96.6694 84.3242 97.4183 82.5501 98.9161 81.1102C100.414 79.6703 102.247 78.9504 104.417 78.9504C106.586 78.9504 108.419 79.6703 109.917 81.1102C111.415 82.5501 112.164 84.3242 112.164 86.4326Z" fill="white"/>
</g>
</g>
<defs>
<clipPath id="clip0_2003_1559">
<path d="M-7 -76H450V244C450 261.121 436.121 275 419 275H-7V-76Z" fill="white"/>
</clipPath>
</defs>
</svg>
