<svg width="133" height="100" fill="none" xmlns="http://www.w3.org/2000/svg"><g clip-path="url(#a)" fill-rule="evenodd" clip-rule="evenodd"><path d="M34.197 74.586c0-10.181 6.114-19.004 14.861-22.965a24.866 24.866 0 0 1 8.109-2.13v-7.48c-4.119-2.557-7.056-7.017-7.056-13.382V17.6c0-1.396.1-2.693.297-3.899H16.637v78.56h17.56V74.586ZM75.88 41.974l.009 7.493v.008l-.009-3.792-.044.03v3.778c2.86.25 5.59.993 8.109 2.13 8.738 3.961 14.86 12.784 14.86 22.965V92.26h17.282V13.7H88.11c-.539 3.041-2.086 6.038-5.227 8.344v6.583c0 6.336-2.913 10.791-7.003 13.347Z" fill="#81D4FA"/><path d="M116.084 13.7v78.56h5.841c6.091 0 11.075-4.977 11.075-11.068V24.768c0-6.085-4.984-11.068-11.075-11.068h-5.841Z" fill="#D4D4D4"/><path d="M16.636 92.26V13.7h-5.568C4.992 13.7.022 18.661 0 24.73v56.497a11.097 11.097 0 0 0 11.068 11.03l5.568.003Z" fill="#EEE"/><path d="M106.415 45.448c0 8.716-2.98 16.877-8.169 23.865.373 1.7.561 3.466.561 5.273V92.26h17.281V13.7H90.887c9.642 8.344 15.528 19.496 15.528 31.748Z" fill="#4FC3F7"/><path d="M50.114 28.63c0 14.899 16.088 19.359 25.722 13.382 4.112-2.558 7.047-7.018 7.047-13.382v-6.583c-9.142 0-15.945 0-22.256-7.422-2.952 7.519-7.714 7.42-10.516 7.42v6.583l.003.002Z" fill="#FFD9B8"/><path d="M60.627 14.625c6.311 7.419 13.114 7.419 22.256 7.419 10.596-7.759 3.05-23.477-.31-21.939-8.025 3.68-14.52 1.547-20.868 2.148C54.77 2.896 50.11 8.08 50.11 17.6v4.445c2.8 0 7.564.1 10.516-7.42Z" fill="#74787A"/><path d="M75.83 42.012c-5.519 3.42-13.151 3.42-18.664 0v10.46l9.328 7.542 9.339-7.542-.002-10.46Z" fill="#FCC492"/><path d="M57.168 45.736c1.73 1.061 3.662 1.782 5.673 2.176 4.438.874 9.239.129 13.038-2.23l.01 3.793v-.006l-.01-7.52c-3.799 2.361-8.6 3.104-13.038 2.24a17.312 17.312 0 0 1-5.675-2.177l.002 3.724Z" fill="#F7AF6F"/><path d="M78.275 1.6c3.179 3.535 6.052 14.126-1.494 20.346 1.918.098 3.946.098 6.098.098 10.596-7.759 3.05-23.477-.31-21.939A23.411 23.411 0 0 1 78.275 1.6Z" fill="#5A5B5C"/><path d="M76.781 28.53c0 6.364-2.937 10.826-7.056 13.382-1.957 1.215-4.18 1.995-6.477 2.352 4.323.743 8.951-.022 12.629-2.314v.022c4.09-2.556 7.002-7.01 7.002-13.345v-6.583c-2.154 0-4.18 0-6.098-.098v6.584Z" fill="#FCC492"/><path d="m66.497 57.032-17.439-5.409c-8.747 3.96-14.86 12.782-14.86 22.963V92.26h64.607V74.586c0-10.181-6.122-19.004-14.86-22.965l-17.448 5.411Z" fill="#EEE"/><path d="m66.501 57.032-9.33-7.541a24.867 24.867 0 0 0-8.108 2.133l8.715 12.158 8.723-6.75Zm9.337-7.541-9.337 7.541 8.725 6.75 8.723-12.158a24.97 24.97 0 0 0-8.111-2.133Z" fill="#81D4FA"/><path d="M71.389 53.08c1.74.376 3.437.938 5.058 1.676a25.011 25.011 0 0 1 3.74 2.092l3.755-5.227a24.967 24.967 0 0 0-8.109-2.13L71.39 53.08Z" fill="#4FC3F7"/><path d="m83.945 51.621-3.757 5.227c6.698 4.544 11.12 12.214 11.12 20.87V92.26h7.495V74.586c0-10.181-6.12-19.004-14.858-22.965Z" fill="#D4D4D4"/><path d="M66.495 74.152a18.11 18.11 0 0 0 0 36.216A18.103 18.103 0 0 0 84.603 92.26a18.106 18.106 0 0 0-18.108-18.108Z" fill="#79E0C1"/><path d="M58.765 75.883a18.123 18.123 0 0 1 8.944 11.106l6.668 3.914c.592.31.865.834.858 1.357a1.501 1.501 0 0 1-.858 1.365l-6.956 4.09A18.16 18.16 0 0 1 58 108.26a18.021 18.021 0 0 0 8.494 2.108 18.11 18.11 0 0 0 12.806-5.301 18.1 18.1 0 0 0 5.303-12.805 18.105 18.105 0 0 0-25.838-16.379Z" fill="#7FCBB4"/><path d="M75.234 92.26c.009-.523-.266-1.046-.856-1.357L62.84 84.13c-1.197-.585-1.973.235-1.973.924v14.422c0 .683.776 1.501 1.973.925l11.538-6.775a1.502 1.502 0 0 0 .858-1.365h-.002Z" fill="#F37E60"/></g><defs><clipPath id="a"><path fill="#fff" d="M0 0h133v100H0z"/></clipPath></defs></svg>