<svg width="55" height="75" fill="none" xmlns="http://www.w3.org/2000/svg"><path d="M20.817 16.591a7.45 7.45 0 0 1 .164 1.547c0 4.593-4.165 8.329-9.284 8.329-5.12 0-9.285-3.736-9.285-8.329 0-.625.08-1.233.226-1.819H.17c-.113.6-.17 1.209-.171 1.82 0 5.922 5.247 10.74 11.697 10.74 6.45 0 11.696-4.818 11.696-10.74 0-.526-.041-1.042-.121-1.548h-2.455Z" fill="#F3C55C"/><path d="M1.352 17.778c.584 0 1.08-.42 1.185-.995.724-3.95 4.555-6.973 9.16-6.973s8.437 3.023 9.16 6.973a1.204 1.204 0 1 0 2.373-.42c-.923-5.08-5.742-8.966-11.533-8.966-5.79 0-10.609 3.886-11.533 8.966a1.204 1.204 0 0 0 1.188 1.415Z" fill="#FFD77C"/><path d="M42.572 28.879c-6.45 0-11.697-4.818-11.697-10.74 0-5.923 5.247-10.742 11.697-10.742 6.45 0 11.696 4.819 11.696 10.741 0 5.923-5.247 10.74-11.696 10.74Zm0-19.07c-5.12 0-9.285 3.737-9.285 8.33 0 4.592 4.165 8.328 9.285 8.328s9.284-3.736 9.284-8.329c0-4.592-4.165-8.328-9.284-8.328Z" fill="#FDD272"/><path d="M38.376 57.82a8.487 8.487 0 0 1-8.467-7.905l-1.225-17.809H25.43c.036.233.055.467.055.703v18.668c0 1.481-1.762 2.968-3.42 4.039a6.215 6.215 0 0 0-2.853 5.217h19.212V57.82h-.05Z" fill="#FFD77C"/><path d="M22.204 57.469a8.45 8.45 0 0 0 .753-.264c3.594-1.45 5.634-5.276 5.007-9.102l-2.621-15.997-1.11 17.757a8.487 8.487 0 0 1-8.471 7.957v2.913h4.02v-.07c0-1.488.996-2.77 2.422-3.194Zm-.653 3.264h23.87V72.64h-23.87V60.733Z" fill="#E4B854"/><path d="M24.267 64.433v-3.7H8.766v13.782h36.657v-3.103H31.247a6.98 6.98 0 0 1-6.98-6.979Z" fill="#F3C55C"/><path d="M36.118 33.692c5.2-6.822 8.686-19.356 8.686-33.692H17.172V13.45c0 10.684 8.286 19.537 18.946 20.243Z" fill="#FFD77C"/><path d="M34.939 30.85c-2.958 0-5.746-1.604-8.196-4.438-.584-.675.162-1.693.978-1.33l.026.012 2.054.955c1.102.513 2.339-.386 2.192-1.592l-.274-2.249a1.552 1.552 0 0 1 .404-1.243l1.543-1.658c.828-.89.356-2.344-.837-2.577l-2.223-.434a1.549 1.549 0 0 1-1.058-.769l-1.1-1.98c-.59-1.062-2.119-1.062-2.71 0l-1.1 1.98a1.549 1.549 0 0 1-1.057.769l-.028.005a2.62 2.62 0 0 1-2.996-1.756C19.163 10.263 18.15 5.335 17.63 0H9.383c0 21.623 7.929 39.153 17.71 39.153 3.379 0 6.536-2.092 9.222-5.722.799-1.079.002-2.588-1.34-2.582h-.036Z" fill="#F3C55C"/><path d="m28.447 10.814 1.1 1.98a1.55 1.55 0 0 0 1.058.768l2.223.435c1.193.233 1.665 1.687.837 2.576l-1.543 1.659a1.55 1.55 0 0 0-.404 1.243l.274 2.248a1.55 1.55 0 0 1-2.192 1.593l-2.054-.955a1.551 1.551 0 0 0-1.307 0l-2.054.955c-1.102.512-2.338-.386-2.192-1.593l.274-2.248a1.55 1.55 0 0 0-.404-1.244l-1.543-1.658a1.55 1.55 0 0 1 .837-2.576l2.223-.435a1.549 1.549 0 0 0 1.058-.768l1.1-1.98c.59-1.063 2.119-1.063 2.71 0Z" fill="#fff"/><path d="M37.35 63.997H21.2v7.436H37.35a1.075 1.075 0 0 0 1.075-1.075v-5.286a1.075 1.075 0 0 0-1.075-1.075Z" fill="#FFC305"/><path d="M21.55 70.358v-5.286a1.075 1.075 0 0 1 1.076-1.075h-5.79a1.075 1.075 0 0 0-1.074 1.075v5.286a1.075 1.075 0 0 0 1.075 1.075h5.789a1.075 1.075 0 0 1-1.075-1.075Z" fill="#D28C40"/></svg>