<svg width="206" height="178" fill="none" xmlns="http://www.w3.org/2000/svg"><g clip-path="url(#a)"><path d="m120.599 151.588 76.108-53.636-105.11-19.129-77.304 50.646 106.306 22.119Z" fill="#FFDA87"/><path d="M119.113 98.34 43.006 50.146l105.117-17.192 76.821 44.903L119.113 98.34Z" fill="#FFB7A5"/><path d="M92.047 56.738 29.734 17.285l86.063-14.08 63.163 36.243-86.913 17.29Z" fill="#8AA7E6"/><path d="M126.299 154.931c-1.054-1.665-2.494-2.827-4.084-3.126L15.481 132.676s4.573 13.224 4.41 22.024c-.123 7.128-4.35 20.617-4.35 20.617l106.728 19.129c1.59.299 3.031-.347 4.078-1.624 1.046-1.278 1.698-3.181 1.692-5.396l-.034-26.488c-.001-2.215-.653-4.356-1.706-6.007Zm97.934-73.587L117.505 98.53c-1.597.272-3.037 1.311-4.09 2.813a9.459 9.459 0 0 0-1.706 5.395l-.027 23.811c-.007 1.998.639 3.704 1.685 4.838 1.047 1.156 2.487 1.733 4.077 1.468l106.735-17.192s-3.065-7.597-3.935-19.645c-.571-7.89 3.989-18.674 3.989-18.674ZM90.684 88.276l87.375-14.087s-3.84-6.456-4.207-15.426c-.292-7.1 4.254-15.948 4.254-15.948l-87.38 14.08c-1.299.217-2.482 1.073-3.344 2.296a7.7 7.7 0 0 0-1.394 4.417l-.027 19.49c-.007 1.623.524 3.03 1.38 3.968.856.938 2.038 1.406 3.343 1.21Z" fill="#FFF3E4"/><path d="m149.473 131.238-25.016 17.63a8.293 8.293 0 0 0-1.631-.487l-106.735-19.13c-1.855-.34-3.696.921-4.036 2.81a3.478 3.478 0 0 0 2.813 4.04l106.701 19.122c.441.085 1.134.537 1.793 1.58.741 1.156 1.162 2.66 1.162 4.138l.035 26.495c.006 1.294-.333 2.484-.905 3.181-.407.486-.638.421-.774.404L16.153 171.892c-1.849-.343-3.697.921-4.037 2.81a3.476 3.476 0 0 0 2.813 4.04l106.694 19.121c.483.093.958.137 1.427.137 1.873 0 3.644-.708 5.096-2.033l72.582-51.854c2.079-1.474 3.465-4.471 3.458-8.161l-.016-13.066-54.697 8.352Z" fill="#F3C55C"/><path d="m223.627 116.228-106.754 17.196c-.252.051-.557.043-.952-.395-.475-.523-.767-1.444-.761-2.477l.027-23.814c0-1.189.388-2.426 1.074-3.397.543-.771 1.209-1.278 1.794-1.376l106.727-17.186a3.47 3.47 0 0 0 2.834-2.632c.105-.445.121-.906.048-1.357-.306-1.896-2.127-3.21-3.982-2.881 0 0-85.348 13.881-108.747 17.783l-14.258-9.028-13.475 2.141-5.313-14.038-38.882-24.62c-3.35.985-7.298 5.483-7.447 10.553l-.035 23.994c0 3.31 1.38 6 3.459 7.325l73.173 46.922c-.028-.018-.048-.036-.075-.054a7.742 7.742 0 0 0 4.593 1.512c.435 0 .877-.035 1.318-.109l106.735-17.193a3.465 3.465 0 0 0 2.268-1.396 3.476 3.476 0 0 0 .613-2.593c-.299-1.898-2.14-3.186-3.982-2.88Z" fill="#F37E60"/><path d="M177.51 70.754 89.912 84.72c-.232-.251-.47-.805-.47-1.62l.028-19.493c0-.856.272-1.73.754-2.412.408-.578.836-.83 1.053-.867l87.382-14.08a3.475 3.475 0 0 0 2.881-3.989c-.306-1.899-2.133-3.194-3.982-2.881 0 0-88.874 14.453-89.56 14.792l-58.26-36.886c-2.738.802-5.972 4.485-6.095 8.63L23.44 46.44c0 2.725 1.129 4.926 2.834 6.014 0 0 59.247 38.177 61.736 39.023 1.37.466 2.847.291 3.228.233l87.374-14.086a3.477 3.477 0 0 0 2.881-3.99c-.306-1.899-2.127-3.193-3.982-2.88Z" fill="#6683C2"/></g><defs><clipPath id="a"><path fill="#fff" d="M0 0h206v178H0z"/></clipPath></defs></svg>