<svg width="744" height="270" fill="none" xmlns="http://www.w3.org/2000/svg"><path d="M73.258 34.291c3.717 4.227 4.797 10.992 1.893 15.96-.684-3.073.471-6.29-.574-9.326-1.34-5.028-5.615-8.57-10.117-10.717-1.347-.601-2.718-1.129-4.076-1.71-.994-.742-2-1.479-3.06-2.127l-.029-.02c6.06.541 11.88 3.4 15.963 7.94Z" fill="#622519"/><path d="M75.15 50.252c-1.091.325-2.355.745-3.427.146a61.755 61.755 0 0 0 2.167-.497c-1.233-2.18-3.089-3.89-4.595-5.858-3.53-4.755-7.364-9.307-10.045-14.63a11.53 11.53 0 0 1 5.21.796c4.5 2.149 8.776 5.688 10.117 10.716 1.045 3.036-.11 6.253.574 9.327Z" fill="#F7AC2D"/><path d="M69.295 44.044c1.506 1.97 3.362 3.68 4.595 5.857-.719.178-1.442.343-2.167.497-4.35.618-8.5-1.466-11.589-4.394-3.565-2.892-5.126-7.773-4.472-12.271.4-2.49.87-4.972 1.663-7.362 1.059.649 2.066 1.383 3.059 2.127-.555-.154-1.669-.47-2.222-.624-.67 4.312-2.467 9.317.234 13.278 1.747 2.77 5.336 2.807 8.227 2.505-1.732-3.33-4.47-6-6.14-9.362-.85-1.647-1.166-3.497-1.537-5.297.078.103.226.314.303.416 2.68 5.321 6.516 9.876 10.044 14.63h.002Zm-1.786.628c-2.216.466-4.485.252-6.716.031 2.822 2.875 6.786 4.527 10.823 4.372-1.059-1.737-2.648-3.03-4.107-4.403Z" fill="#7A2F1A"/><path d="M67.509 44.672c1.46 1.374 3.048 2.666 4.107 4.403-4.037.155-8-1.497-10.823-4.372 2.231.22 4.5.434 6.716-.031Z" fill="#EC872B"/><path d="M60.485 34.295c1.67 3.362 4.408 6.032 6.14 9.363-2.892.303-6.482.265-8.227-2.505-2.701-3.963-.904-8.967-.234-13.279.555.154 1.668.47 2.222.625 1.358.58 2.73 1.109 4.075 1.71a11.553 11.553 0 0 0-5.209-.796c-.078-.103-.226-.314-.302-.416.371 1.8.687 3.65 1.537 5.297l-.002.001Z" fill="#EF8D24"/><path d="M650.817 121.608c2.256-3.386 6.777-5.405 10.789-4.308-2.018 1.053-4.48.848-6.404 2.146-3.26 1.877-4.933 5.524-5.59 9.069-.168 1.053-.28 2.109-.432 3.166-.332.832-.658 1.673-.913 2.534l-.007.024c-.757-4.332.151-8.93 2.557-12.631Z" fill="#622519"/><path d="M661.606 117.3c.432.702.962 1.505.744 2.366-.242-.477-.493-.95-.753-1.42-1.291 1.269-2.137 2.885-3.23 4.304-2.66 3.355-5.121 6.883-8.336 9.751a8.327 8.327 0 0 1-.419-3.786c.658-3.545 2.33-7.192 5.59-9.069 1.924-1.298 4.386-1.094 6.404-2.146Z" fill="#F7AC2D"/><path d="M658.367 122.55c1.094-1.419 1.941-3.035 3.231-4.304.258.469.509.943.752 1.42 1.245 2.921.567 6.209-.9 8.914-1.352 3.031-4.468 5.034-7.732 5.418-1.813.187-3.633.322-5.45.217.254-.861.579-1.702.913-2.534-.004.416-.017 1.253-.021 1.668 3.136-.339 6.968-.021 9.228-2.648 1.606-1.738.961-4.25.21-6.213-2.002 1.833-3.354 4.243-5.389 6.039-.99.901-2.223 1.468-3.411 2.064.057-.074.177-.216.234-.289 3.214-2.868 5.677-6.397 8.337-9.75l-.002-.002Zm.773 1.13c.74 1.46 1.015 3.084 1.278 4.683 1.48-2.508 1.891-5.585 1.028-8.375-1.015 1.065-1.62 2.416-2.306 3.692Z" fill="#7A2F1A"/><path d="M659.14 123.68c.686-1.277 1.291-2.627 2.306-3.691.863 2.79.452 5.866-1.027 8.375-.264-1.6-.539-3.223-1.279-4.684Z" fill="#EC872B"/><path d="M653.209 130.526c2.035-1.796 3.387-4.206 5.388-6.039.753 1.963 1.399 4.476-.21 6.213-2.261 2.627-6.091 2.309-9.227 2.648l.02-1.669c.152-1.057.264-2.113.432-3.165a8.342 8.342 0 0 0 .419 3.786c-.057.073-.177.216-.234.289 1.188-.596 2.42-1.163 3.411-2.065l.001.002Z" fill="#EF8D24"/><path d="M695.805 52.143c3.746 5.559.432 13.487-5.238 16.122-.192-.311-.581-.914-.77-1.221-2.179-.467-3.072-2.787-3.616-4.706-.913-4.364 1.302-8.867 4.661-11.505-.784 1.69-1.635 3.346-2.363 5.07-1.351 3.75-.809 8.063 1.515 11.37 4.238-3.638 6.967-9.414 5.811-15.13Z" fill="#6D2817"/><path d="M693.968 50.329a8.115 8.115 0 0 1 1.865 1.818c1.157 5.744-1.604 11.556-5.88 15.22-2.334-3.319-2.873-7.655-1.505-11.426 1.479 1.433 1.334 3.599 1.85 5.442 1.527-3.584 1.927-7.55 3.669-11.056l.001.002Z" fill="#EC6E26"/><path d="m694.081 49.862.011.554c-1.753 3.509-2.16 7.476-3.695 11.066-.514-1.844-.364-4.012-1.846-5.442.74-1.735 1.603-3.404 2.402-5.107.647-.943 2.138-.733 3.127-1.073l.001.002Z" fill="#CE5328"/><path d="M89.793 91.54c.704.608 1.409 1.366 1.432 2.359-.416 1.373-.197 2.841-.575 4.225-.392 1.57-.783 3.275-1.997 4.429-1.293 1.132-2.949 1.767-4.188 2.974-.582-1.378-1.305-2.782-1.219-4.313.121-2.133.941-4.242 2.414-5.794 1.26-1.42 2.912-2.425 4.132-3.881Zm-1.046 3.446c-.84.93-.895 2.234-1.258 3.377-.255 1.046-.773 2-1.102 3.021 1.594-.996 2.117-2.934 2.426-4.678.07-.566.3-1.205-.067-1.72Z" fill="#F1A729"/><path d="M84.834 94.616c1.383-1.374 3.058-2.57 4.958-3.076-1.22 1.455-2.872 2.46-4.131 3.881-1.473 1.551-2.294 3.66-2.414 5.794-.087 1.531.636 2.935 1.219 4.313-.014.095-.04.296-.055.396l-.16.072c-.606-.915-1.252-1.802-1.818-2.741-.856-3.058.21-6.428 2.4-8.637v-.002Z" fill="#73231A"/><path d="M91.225 93.899c.031.178.096.533.126.711.642 2.61.022 5.39-1.364 7.64-1.056 1.714-2.977 2.514-4.595 3.577-.247.023-.735.071-.981.096.015-.101.041-.299.054-.396 1.24-1.207 2.895-1.842 4.188-2.973 1.214-1.154 1.607-2.86 1.997-4.43.378-1.384.158-2.852.575-4.225Z" fill="#6E3B21"/><path d="M88.746 94.986c.368.515.136 1.155.067 1.72-.31 1.743-.832 3.682-2.425 4.677.328-1.021.847-1.974 1.101-3.02.365-1.143.418-2.448 1.258-3.378Z" fill="#A85525"/></svg>