<svg width="279" height="313" viewBox="0 0 279 313" fill="none" xmlns="http://www.w3.org/2000/svg">
<path d="M110.72 2.49573C112.617 0.534571 115.471 -0.294089 118.15 0.0926189C123.665 0.783168 128.251 4.44768 133.711 5.35C140.312 6.40884 146.96 4.22671 153.562 5.3408C157.521 6.08659 161.167 8.29635 163.69 11.4268C164.794 12.7895 165.596 14.364 166.516 15.8464C166.516 14.1062 166.544 12.3107 165.881 10.6718C165.319 9.23549 164.178 8.14903 163.275 6.93366C165.319 7.62421 166.645 9.53013 167.207 11.5281C167.805 13.6182 167.52 15.8187 167.336 17.9548C169.978 17.4024 173.587 16.7211 175.309 19.4188C174.158 19.0965 173.063 18.627 171.884 18.3968C170.687 18.1666 169.463 18.4336 168.293 18.6638C170.208 19.8239 172.298 20.8736 173.661 22.7242C176.405 26.2506 176.773 30.9464 176.46 35.2462C175.945 41.5164 174.342 47.6945 172.05 53.5504C171.332 52.9243 170.567 52.3442 169.776 51.8194C168.717 51.1196 167.465 50.7513 166.203 50.6593C164.113 50.4751 162.023 50.337 159.942 50.1068C160.016 45.319 159.942 40.255 157.539 35.9552C156.517 34.1873 155.081 32.3919 153.037 31.8303C151.214 31.5725 149.363 32.0052 147.522 31.8211C143.01 31.3975 138.738 29.7218 134.677 27.8159C132.974 26.9044 131.298 28.3039 129.641 28.6353C124.853 29.7862 119.817 28.4788 115.498 26.3427C114.016 25.2286 112.672 23.9396 111.493 22.5217C109.836 20.5421 109.182 17.9825 108.068 15.7082C108.151 17.2551 108.298 18.8571 109.09 20.229C109.808 21.7206 111.033 22.936 111.539 24.5197C111.576 26.3611 110.711 28.0829 110.204 29.8323C108.556 28.3683 107 26.711 106.199 24.6117C105.103 21.8219 104.367 18.6822 105.186 15.7267C105.499 14.5757 105.868 13.4432 106.153 12.2923C104.284 14.0049 103.952 16.6566 103.86 19.0413C103.759 23.2767 105.84 27.3555 109.007 30.0901C109.772 30.6886 110.158 31.6369 109.827 32.5853C109.468 34.4452 108.39 36.0288 107.507 37.6677C106.061 35.9091 105.067 33.8559 103.989 31.8671C102.056 28.1289 100.481 24.0317 100.537 19.7595C100.555 16.9236 101.54 14.0049 103.63 12.0253C104.781 10.8836 106.31 10.2667 107.764 9.63141C108.068 7.06256 108.796 4.38323 110.72 2.53256V2.49573ZM112.018 5.76433C113.648 6.77714 115.591 7.12702 117.22 8.13061C119.283 9.3736 121.225 10.8192 123.048 12.3936C126.335 15.2387 129.669 18.0285 133.029 20.7907C136.077 23.3043 139.576 25.1918 143.084 26.9688C145.312 28.1105 147.825 28.7274 150.33 28.5064C150.947 28.4696 151.444 28.0737 151.959 27.7975C149.612 27.4384 147.199 27.3463 144.944 26.5453C140.782 25.2562 137.347 22.4756 133.885 19.9436C128.941 16.5461 124.973 11.8964 119.863 8.71988C117.487 7.21909 114.882 5.83799 112 5.76433H112.018ZM112.064 14.2995C112.469 16.2699 113.583 17.9825 114.891 19.474C117.828 23.0189 122.155 25.1458 126.584 26.1586C128.002 26.3795 129.871 26.6558 130.755 25.2102C128.702 25.0261 126.603 25.1918 124.614 24.5657C121.382 23.5897 118.647 21.4904 116.143 19.2991C114.467 17.8996 113.5 15.8924 112.055 14.2995H112.064ZM166.424 22.6045C167.971 23.8659 169.859 24.7498 171.12 26.3427C172.326 27.6409 172.676 29.5192 174.011 30.7254C173.845 28.7458 173.026 26.8675 171.746 25.3391C170.448 23.7554 168.606 22.2731 166.415 22.5953L166.424 22.6045ZM159.997 30.7162C160.55 33.9111 163.137 36.1209 165.421 38.1741C167.713 40.2366 170.881 41.4611 173.983 40.9087C172.713 40.0616 171.111 40.1813 169.73 39.6381C166.397 38.3951 163.496 35.9367 161.848 32.7694C161.425 31.9316 160.872 31.1305 159.997 30.7162Z" fill="#58301F"/>
<path d="M112.01 5.77148C114.882 5.84514 117.497 7.22624 119.873 8.72704C124.983 11.9036 128.951 16.5441 133.896 19.9508C137.358 22.492 140.792 25.2634 144.954 26.5524C147.209 27.3535 149.622 27.4455 151.97 27.8046C151.454 28.09 150.948 28.4767 150.34 28.5136C147.835 28.7346 145.322 28.1177 143.094 26.976C139.586 25.1989 136.087 23.3206 133.03 20.7978C129.669 18.0356 126.336 15.2458 123.049 12.4008C121.226 10.8263 119.284 9.38076 117.221 8.13777C115.582 7.14338 113.649 6.78429 112.019 5.77148H112.01Z" fill="#341707"/>
<path d="M103.864 19.0224C103.966 16.6285 104.288 13.9768 106.157 12.2734C105.872 13.4244 105.503 14.5569 105.19 15.7078C104.362 18.6633 105.107 21.803 106.203 24.5928C107.004 26.6921 108.56 28.3494 110.208 29.8134C110.715 28.064 111.571 26.3514 111.543 24.5008C111.046 22.9171 109.812 21.7017 109.094 20.2102C108.311 18.8383 108.164 17.2362 108.072 15.6894C109.186 17.9636 109.84 20.5232 111.497 22.5028C112.676 23.9207 114.029 25.2189 115.502 26.3238C112.786 31.2497 111.405 36.7557 110.319 42.2341C109.241 40.8069 108.081 39.3522 107.501 37.6396C108.385 36.0007 109.462 34.4171 109.821 32.5572C110.153 31.6088 109.766 30.6605 109.002 30.062C105.835 27.3274 103.754 23.2486 103.855 19.0132L103.864 19.0224Z" fill="#3A1807"/>
<path d="M112.053 14.2988C113.498 15.9009 114.465 17.8989 116.141 19.2984C118.645 21.4897 121.38 23.589 124.612 24.565C126.6 25.1911 128.7 25.0254 130.753 25.2095C129.869 26.6551 128 26.3696 126.582 26.1579C122.153 25.1543 117.826 23.0274 114.889 19.4733C113.572 17.9818 112.458 16.2692 112.062 14.2988H112.053Z" fill="#381906"/>
<path d="M166.426 22.6035C168.617 22.272 170.459 23.7544 171.757 25.3472C173.027 26.8665 173.847 28.754 174.022 30.7335C172.687 29.5274 172.337 27.6583 171.131 26.3508C169.869 24.7488 167.982 23.8741 166.435 22.6127L166.426 22.6035Z" fill="#39190A"/>
<path d="M115.502 26.3231C119.82 28.4684 124.856 29.7666 129.644 28.6157C131.302 28.2843 132.977 26.8847 134.681 27.7963C138.741 29.7114 143.022 31.3779 147.534 31.8015C149.366 31.9856 151.217 31.5529 153.049 31.8107C155.103 32.3723 156.539 34.1677 157.552 35.9355C159.946 40.2354 160.028 45.2994 159.955 50.0872C157.386 49.8478 154.762 49.7097 152.34 48.7337C149.569 47.6473 146.825 46.2754 143.796 46.1557C139.892 45.9531 135.767 46.0084 132.167 47.7209C130.657 48.3931 129.718 49.8018 128.926 51.1921C127.333 51.054 125.74 50.9895 124.147 50.9803C122.776 49.0468 120.888 47.4539 118.577 46.8002C115.898 45.8979 113.016 45.8242 110.217 46.0268L110.447 45.9531C111.893 45.4559 113.43 45.1245 114.949 45.4007C116.662 45.6217 118.264 46.4595 120.004 46.4411C121.358 46.4411 122.38 44.6549 121.441 43.5776C120.253 42.3623 118.513 41.9479 116.901 41.5981C114.655 41.1101 112.353 41.5612 110.272 42.4451L110.327 42.2149C111.405 36.7366 112.786 31.2306 115.511 26.3047L115.502 26.3231ZM138.548 41.1653C137.001 41.4876 135.362 41.819 134.119 42.841C132.913 43.8815 134.018 46.1281 135.555 45.99C138.097 45.8703 140.546 44.9771 143.096 45.0508C144.956 44.9679 146.696 45.7137 148.528 45.9163C149.366 46.036 150.287 45.4743 150.416 44.5996C150.25 43.5868 149.33 42.9423 148.492 42.4912C145.453 40.9351 141.89 40.5668 138.548 41.1561V41.1653Z" fill="#F5A288"/>
<path d="M159.99 30.7148C160.865 31.1292 161.417 31.9302 161.841 32.7681C163.489 35.9354 166.389 38.3845 169.722 39.6367C171.103 40.18 172.706 40.0603 173.976 40.9074C170.873 41.4598 167.706 40.2444 165.413 38.1728C163.13 36.1103 160.543 33.9098 159.99 30.7148Z" fill="#391A0A"/>
<path d="M138.549 41.1659C141.891 40.5858 145.454 40.9449 148.493 42.5009C149.331 42.9521 150.251 43.5966 150.417 44.6094C150.288 45.4749 149.367 46.0365 148.529 45.926C146.706 45.7235 144.957 44.9777 143.097 45.0606C140.538 44.9777 138.088 45.88 135.556 45.9997C134.028 46.1378 132.914 43.8912 134.12 42.8508C135.363 41.8288 137.002 41.4881 138.549 41.1751V41.1659Z" fill="#562F1E"/>
<path d="M110.271 42.4632C112.352 41.5793 114.654 41.1282 116.9 41.6162C118.512 41.966 120.252 42.3804 121.44 43.5957C122.379 44.6638 121.357 46.4592 120.003 46.4592C118.254 46.4776 116.661 45.6398 114.948 45.4188C113.429 45.1426 111.882 45.474 110.446 45.9712C109.516 44.94 109.737 43.6326 110.28 42.4724L110.271 42.4632Z" fill="#542D1C"/>
<path d="M103.852 48.2936C105.961 47.511 108.005 46.5258 110.205 46.0286C112.995 45.8261 115.877 45.8997 118.565 46.8021C120.876 47.465 122.755 49.0578 124.136 50.9822C125.738 50.9822 127.322 51.0558 128.914 51.1939C129.706 49.8128 130.645 48.3949 132.155 47.7228C135.755 46.0102 139.88 45.955 143.784 46.1575C146.813 46.2864 149.557 47.6491 152.329 48.7356C154.75 49.7116 157.374 49.8497 159.943 50.0891C162.024 50.3193 164.114 50.4574 166.204 50.6415C167.475 50.7336 168.708 51.1019 169.776 51.8016C168.322 51.9397 166.867 52.1607 165.449 52.5106C163.442 52.4554 161.462 52.1147 159.464 51.9397C157.577 51.9489 155.339 51.0098 153.71 52.3265C152.513 53.1827 152.614 54.794 152.384 56.0922C151.933 59.3516 151.086 62.8873 148.526 65.1707C145.718 67.5646 141.694 67.8868 138.195 67.2147C135.286 66.6623 132.791 64.6643 131.446 62.0586C130.084 59.8304 129.706 57.2155 129.016 54.7388C128.509 52.8421 125.94 52.6119 124.476 53.5326C123.749 54.9137 123.031 56.2948 122.211 57.6207C122.432 55.2728 122.856 52.7316 121.705 50.5402C118.096 47.2624 112.442 46.5995 108.023 48.533C108.649 48.6896 109.284 48.8553 109.92 49.0118C109.901 49.6195 109.883 50.2272 109.864 50.8441C108.446 50.7612 107.038 50.6599 105.62 50.5586C105.049 53.6891 105.196 56.9577 106.099 60.0146C106.596 61.7087 107.728 63.1635 109.155 64.1763C109.855 64.5077 110.583 64.7932 111.328 65.0234C112.654 65.2627 114.017 65.364 115.352 65.1707C116.844 64.9497 118.142 64.1394 119.458 63.4397C119.118 64.2868 118.796 65.1338 118.464 65.9809C115.61 66.8832 112.498 67.095 109.634 66.1006C107.59 65.1891 105.905 63.4949 105.058 61.4141C103.944 58.9741 103.852 56.2488 103.723 53.6063C103.788 52.1147 102.02 51.2124 102.342 49.6839C102.232 48.8 103.244 48.6159 103.852 48.2936ZM131.373 50.9269C130.231 53.4866 131.152 56.4145 131.953 58.9557C132.846 62.3716 135.673 65.1523 139.162 65.806C142.348 66.1282 146.058 65.7323 148.185 63.0438C150.515 59.8672 150.929 55.724 150.708 51.8937L150.506 51.8753C150.174 50.9177 149.787 49.8681 148.83 49.3709C146.086 47.8057 142.781 47.6031 139.687 47.7872C136.759 48.045 133.279 48.3949 131.373 50.9269Z" fill="#435A8C"/>
<path d="M108.006 48.5315C112.416 46.6072 118.069 47.2701 121.688 50.5387C120.638 51.4686 119.616 52.417 118.594 53.3561C117.305 52.905 115.943 52.638 114.58 52.7576C112.877 52.9694 110.565 54.4334 111.1 56.413C112.563 56.7997 113.604 55.4094 114.552 54.5347C115.491 54.6636 116.431 54.7833 117.351 55.0226C117.471 55.1147 117.72 55.2989 117.839 55.3909C115.381 58.4109 113.604 61.8913 111.311 65.0218C110.565 64.7916 109.838 64.5062 109.138 64.1747C109.359 59.7276 109.599 55.2805 109.847 50.8425C109.866 50.2256 109.884 49.618 109.903 49.0103C109.267 48.8537 108.632 48.688 108.006 48.5315Z" fill="#FBCDC0"/>
<path d="M131.372 50.9268C133.269 48.3948 136.759 48.0449 139.686 47.7871C138.646 49.914 137.228 51.8291 136.409 54.0573C135.976 54.7478 135.525 55.4292 135.028 56.0829C134.144 57.1878 133.057 58.0993 131.943 58.9556C131.142 56.4144 130.231 53.4864 131.363 50.9268H131.372Z" fill="#F5AF9B"/>
<path d="M139.688 47.7849C142.782 47.6008 146.087 47.8033 148.831 49.3686C149.788 49.8658 150.175 50.9154 150.507 51.873C149.862 51.7901 149.227 51.6704 148.591 51.5875C147.662 52.628 146.75 53.6776 145.838 54.7364C144.955 54.1011 144.071 53.4474 143.132 52.8858L142.818 52.8305C140.599 52.2781 138.316 52.8858 136.41 54.0551C137.23 51.8269 138.648 49.9026 139.688 47.7849Z" fill="#FACABE"/>
<path d="M121.685 50.5391C122.836 52.7212 122.413 55.2716 122.192 57.6195C121.234 59.5438 120.267 61.459 119.439 63.4477C118.131 64.1475 116.833 64.9577 115.332 65.1787C113.997 65.3721 112.634 65.2708 111.309 65.0314C113.601 61.9009 115.378 58.4205 117.837 55.4005C118.776 56.1832 119.761 56.9105 120.838 57.4906C121.188 56.0082 120.313 54.7652 119.236 53.8537C119.015 53.6788 118.794 53.5222 118.564 53.3657C119.595 52.4174 120.617 51.469 121.658 50.5483L121.685 50.5391Z" fill="#FAB5A1"/>
<path d="M148.58 51.5879C149.215 51.6708 149.851 51.7905 150.495 51.8733L150.698 51.8917C150.919 55.7128 150.504 59.8653 148.175 63.0418C146.048 65.7303 142.328 66.1263 139.143 65.804C140.864 62.7011 142.448 59.5154 144.382 56.5322C144.87 56.477 145.367 56.4217 145.864 56.3757C145.846 55.8233 145.827 55.28 145.818 54.7368C146.729 53.678 147.641 52.6283 148.571 51.5879H148.58Z" fill="#F9B7A5"/>
<path d="M153.701 52.3258C155.34 51.0091 157.577 51.9483 159.455 51.9391C159.455 54.1396 159.032 56.3126 158.7 58.4855C158.958 58.5683 159.464 58.7525 159.713 58.8354C161.398 56.5427 163.101 54.1949 165.431 52.5099C166.849 52.16 168.304 51.9483 169.758 51.801C170.55 52.335 171.314 52.9058 172.032 53.5319C174.196 55.9719 174.509 59.5443 173.699 62.6012C172.797 65.8237 171.057 68.9082 168.414 71.0166C166.968 72.1952 165.136 72.9594 163.258 72.941C162.531 72.9134 161.812 72.8397 161.094 72.7845C161.094 74.4786 161.14 76.182 161.288 77.8761C161.766 84.0634 161.914 90.2784 162.54 96.4565C162.558 100.314 163.203 104.145 163.203 108.002C162.669 109.881 161.84 111.676 160.79 113.324C156.684 118.352 150.607 121.721 144.153 122.449C139.696 122.992 134.964 122.449 131.069 120.073C128.869 118.766 127.239 116.547 126.677 114.052C126.208 111.989 126.429 109.872 126.576 107.791C128.712 107.754 130.876 107.818 132.966 107.312C138.656 105.949 144.024 103.224 148.342 99.2555C152.983 94.9373 156.988 89.7628 159.161 83.7596C159.474 82.8297 159.621 81.8537 159.778 80.8961C158.498 82.7376 157.641 84.8461 156.288 86.6415C153.59 90.1679 150.423 93.4549 146.464 95.5542C140.35 98.8412 133.122 100.213 126.272 98.8228L126.014 98.7859C123.639 97.8284 121.162 96.9169 119.247 95.149C115.306 91.8344 113.161 86.9637 111.678 82.1483C110.62 78.6035 110.122 74.9206 109.662 71.2653C109.432 69.5527 109.377 67.8125 109.616 66.0907C112.48 67.0851 115.592 66.8734 118.446 65.971C119.256 68.1716 120.987 70.2617 123.409 70.6484C125.075 70.6207 126.65 70.0038 128.27 69.6908C128.141 69.3225 128.003 68.9634 127.865 68.6043C126.263 68.8161 124.744 69.5251 123.123 69.5435C121.346 68.8898 119.339 66.8365 120.398 64.8385C122.037 61.1924 124.707 57.7213 124.44 53.5135C125.904 52.602 128.463 52.823 128.979 54.7197C129.67 57.1965 130.038 59.8021 131.41 62.0395C132.763 64.6452 135.258 66.6432 138.159 67.1956C141.658 67.8677 145.681 67.5455 148.489 65.1516C151.049 62.8774 151.905 59.3418 152.347 56.0732C152.587 54.7749 152.485 53.1637 153.673 52.3074L153.701 52.3258ZM167.364 58.421C164.823 60.5019 162.724 63.4022 162.282 66.726C163.755 65.2805 163.792 62.8221 165.698 61.7633C166.278 63.2088 166.609 64.7649 167.493 66.0723C167.843 64.1848 167.143 62.3802 166.259 60.7597C167.53 59.6456 168.902 58.6512 170.182 57.5371C169.187 57.62 168.129 57.7121 167.364 58.421ZM126.898 73.9446C124.044 74.2576 121.116 73.963 118.354 74.8837C117.525 75.6479 116.669 76.5595 116.798 77.7932C116.927 82.1851 119.67 86.3837 123.556 88.4001C127.184 90.0298 131.548 90.0666 135.065 88.1331C137.873 86.6691 139.881 83.999 140.967 81.0711C141.611 78.6403 142.09 75.9057 140.654 73.6592L140.433 73.8433C139.604 73.3553 138.693 73.0054 137.717 73.0791C134.098 73.1435 130.507 73.6776 126.898 73.9446Z" fill="#F5A48A"/>
<path d="M159.455 51.9375C161.453 52.1124 163.432 52.4531 165.44 52.5084C163.11 54.1933 161.407 56.5504 159.722 58.8338C159.464 58.7509 158.958 58.5668 158.709 58.4839C159.04 56.311 159.455 54.1381 159.464 51.9375H159.455Z" fill="#4F2A19"/>
<path d="M114.581 52.7583C115.944 52.6294 117.306 52.9056 118.595 53.3568C118.816 53.5041 119.046 53.6698 119.258 53.8448C118.623 54.2315 117.988 54.6274 117.362 55.0233C116.441 54.7839 115.492 54.6642 114.562 54.5353C114.995 53.9737 115.391 53.3844 115.778 52.7951C115.483 52.7859 114.876 52.7583 114.581 52.7583Z" fill="#6E6868"/>
<path d="M136.416 54.0564C138.331 52.8963 140.606 52.2794 142.825 52.8319C142.309 52.7766 141.784 52.7306 141.269 52.6845C140.937 53.3843 140.606 54.084 140.283 54.7838C140.458 54.7838 140.817 54.7654 140.992 54.7562C139.077 54.9587 137.475 56.0728 136.002 57.2145C135.68 56.8278 135.357 56.4503 135.035 56.0728C135.532 55.4191 135.974 54.7378 136.416 54.0472V54.0564Z" fill="#726462"/>
<path d="M111.11 56.4131C110.576 54.4335 112.887 52.9696 114.59 52.7578C114.894 52.7578 115.492 52.7854 115.787 52.7946C115.391 53.3839 115.004 53.9732 114.572 54.5348C113.623 55.4095 112.574 56.7998 111.11 56.4131Z" fill="#524945"/>
<path d="M140.285 54.7848C140.607 54.0851 140.939 53.3853 141.27 52.6855C141.786 52.7316 142.302 52.7776 142.826 52.8329L143.139 52.8881C142.882 53.4958 142.633 54.1035 142.375 54.7204C141.915 54.7296 141.454 54.748 140.994 54.7664C140.819 54.7664 140.46 54.7848 140.285 54.794V54.7848Z" fill="#29150D"/>
<path d="M143.13 52.8867C144.069 53.4484 144.944 54.1021 145.837 54.7374C145.855 55.2806 145.874 55.8239 145.883 56.3763C145.386 56.4315 144.889 56.4776 144.401 56.5328C143.728 55.9159 143.047 55.3175 142.375 54.719C142.624 54.1113 142.881 53.5036 143.139 52.8867H143.13Z" fill="#796B6F"/>
<path d="M232.037 14.9051C232.322 14.6197 232.737 14.5184 233.114 14.3711C233.28 15.9179 233.317 17.474 233.271 19.03C232.829 19.03 232.387 19.03 231.954 19.0392C231.917 17.6581 231.733 16.2586 232.037 14.9051Z" fill="#FFF2E0"/>
<path d="M221.393 18.6348C222.811 19.1412 224.007 20.154 224.799 21.4246C225.02 21.8481 224.772 22.3545 224.79 22.8057C223.381 21.6916 221.715 20.5407 221.402 18.6348H221.393Z" fill="#FFF2E0"/>
<path d="M243.131 28.47C244.659 28.3779 246.197 28.3779 247.725 28.4516C247.725 28.7186 247.725 29.2434 247.725 29.5104C246.197 29.5841 244.668 29.5841 243.14 29.492V28.47H243.131Z" fill="#FFF2E0"/>
<path d="M242.439 19.1528C242.835 18.8306 243.47 18.5083 243.793 19.116C243.176 20.4511 242.089 21.556 240.846 22.3294C240.469 22.1913 240.11 22.0071 239.76 21.8414C240.634 20.9299 241.454 19.9447 242.439 19.1528Z" fill="#FFF2E0"/>
<path d="M226.518 24.5176C229.887 21.2582 235.891 21.3871 239.03 24.9043C241.323 27.2982 241.839 30.9995 240.798 34.084C240.209 35.7597 238.809 36.929 237.87 38.3838C237.014 39.7281 237.023 41.3762 236.839 42.8954C235.403 42.9783 233.976 43.0611 232.539 43.0795C231.112 43.0979 229.694 43.1256 228.267 43.1716C228.018 41.7629 227.972 40.2989 227.494 38.9454C226.923 37.684 225.882 36.7173 225.155 35.5571C222.908 32.1873 223.369 27.1601 226.527 24.5084L226.518 24.5176ZM226.693 26.1288C224.971 28.0716 224.63 30.9627 225.505 33.3566C226.112 35.0139 227.42 36.2477 228.35 37.7117C229.132 38.8994 229.307 40.345 229.538 41.7168C229.989 41.7629 230.431 41.8089 230.891 41.8642C231.066 39.2677 230.771 36.6712 230.67 34.0748C229.611 33.6973 227.862 33.4763 227.899 32.0123C227.659 30.6496 229.676 29.7657 230.55 30.8154C231.057 31.4507 231.186 32.2978 231.444 33.0528C232.254 32.9423 233.064 32.8226 233.874 32.7029C234.27 31.8834 234.528 30.9167 235.255 30.3182C236.066 30.042 237.18 30.4103 237.272 31.3678C237.585 32.8134 235.854 33.2277 234.887 33.7433C234.583 36.4687 234.546 39.2217 234.537 41.9654C234.749 41.9839 235.163 42.0207 235.366 42.0299C235.642 40.6856 235.808 39.2861 236.452 38.0523C237.309 36.5515 238.726 35.4375 239.454 33.8538C240.771 30.9811 239.942 27.3258 237.612 25.2173C234.583 22.3999 229.243 22.9155 226.683 26.1104L226.693 26.1288ZM228.865 31.3586C229.004 32.0768 229.344 32.7213 230.044 33.0159C230.062 32.6753 230.108 32.0031 230.136 31.6624C229.713 31.5612 229.289 31.4599 228.865 31.3586ZM231.803 33.863C231.766 36.5147 231.876 39.1664 232.18 41.7905C232.475 41.7997 233.082 41.8273 233.377 41.8458C233.432 39.1664 233.589 36.4963 233.727 33.817C233.073 33.8354 232.438 33.8446 231.793 33.863H231.803Z" fill="#FFF2E0"/>
<path d="M226.696 26.1296C229.255 22.9254 234.605 22.419 237.625 25.2364C239.954 27.3357 240.792 31.0002 239.466 33.8729C238.739 35.4566 237.321 36.5707 236.455 38.0715C235.811 39.296 235.645 40.7048 235.369 42.049C235.166 42.0306 234.752 41.9938 234.54 41.9846C234.54 39.2408 234.586 36.4878 234.89 33.7624C235.857 33.2468 237.588 32.8325 237.275 31.3869C237.183 30.4294 236.069 30.0611 235.258 30.3373C234.522 30.9358 234.264 31.9025 233.877 32.722C233.067 32.8417 232.257 32.9522 231.447 33.0719C231.18 32.3169 231.06 31.479 230.553 30.8345C229.688 29.7849 227.662 30.6688 227.902 32.0315C227.865 33.4954 229.614 33.7164 230.673 34.0939C230.774 36.6904 231.069 39.2776 230.894 41.8833C230.434 41.828 229.983 41.782 229.541 41.736C229.31 40.3641 229.126 38.9185 228.353 37.7308C227.423 36.2668 226.116 35.0238 225.508 33.3757C224.624 30.9818 224.974 28.0907 226.696 26.148V26.1296Z" fill="#FFD08E"/>
<path d="M216.955 28.8925C218.548 28.6439 220.168 28.6439 221.761 28.7728C221.761 29.0398 221.752 29.5739 221.743 29.8501C220.454 29.8869 219.156 30.0342 217.876 29.8501C217.406 29.7488 217.25 29.2056 216.955 28.8925Z" fill="#FFF2E0"/>
<path d="M228.867 31.3594C229.282 31.4607 229.705 31.5619 230.138 31.6632C230.119 32.0039 230.073 32.676 230.046 33.0167C229.346 32.7221 229.015 32.0683 228.867 31.3594Z" fill="#FFD08E"/>
<path d="M235.26 33.0167C235.242 32.676 235.196 32.0039 235.168 31.6632C235.592 31.5619 236.015 31.4607 236.439 31.3594C236.3 32.0775 235.96 32.7221 235.26 33.0167Z" fill="#FFD08E"/>
<path d="M231.797 33.8644C232.432 33.846 233.077 33.8368 233.73 33.8184C233.592 36.4885 233.427 39.1678 233.381 41.8471C233.086 41.8287 232.487 41.8103 232.184 41.7919C231.88 39.1586 231.769 36.5069 231.806 33.8644H231.797Z" fill="#FFD08E"/>
<path d="M227.91 43.1821H228.26C229.687 43.136 231.105 43.0992 232.532 43.0808C233.987 43.0716 235.442 43.1544 236.897 43.2281C236.897 43.4859 236.869 44.0015 236.86 44.2593C233.886 44.3146 230.912 44.3238 227.938 44.2961C227.938 44.0107 227.919 43.4583 227.91 43.1729V43.1821Z" fill="#5F8FBB"/>
<path d="M227.957 45.327C230.959 45.0692 233.969 45.06 236.98 44.9863C236.98 45.2718 236.953 45.8426 236.943 46.128C233.951 46.3674 230.959 46.4963 227.957 46.4503V45.3362V45.327Z" fill="#5E89B2"/>
<path d="M228.096 47.1328C230.867 47.1328 233.795 47.2341 236.594 47.1328C236.566 47.3814 236.207 47.7865 236.18 48.0351C235.867 48.4863 235.6 49.407 235.093 49.5267C234.2 49.8858 231.429 49.895 230.204 49.6464C228.657 49.2597 229.946 48.7349 228.584 47.9523L228.096 47.142V47.1328Z" fill="#5F88AF"/>
<path d="M122.195 57.6095C123.015 56.2837 123.742 54.9026 124.46 53.5215C124.718 57.7292 122.048 61.2004 120.418 64.8465C119.359 66.8445 121.357 68.8977 123.144 69.5514C124.755 69.533 126.283 68.8241 127.885 68.6123C128.014 68.9714 128.152 69.3305 128.29 69.6988C126.67 70.0118 125.096 70.6287 123.429 70.6563C120.998 70.2696 119.276 68.1795 118.457 65.979C118.788 65.1319 119.111 64.2756 119.451 63.4378C120.28 61.4582 121.247 59.5339 122.204 57.6095H122.195Z" fill="#D0684F"/>
<path d="M117.359 55.0223C117.985 54.6172 118.621 54.2305 119.256 53.8438C120.324 54.7553 121.199 55.9983 120.858 57.4806C119.781 56.9006 118.796 56.164 117.857 55.3906C117.737 55.2985 117.488 55.1236 117.369 55.0223H117.359Z" fill="#2F1B15"/>
<path d="M140.997 54.7648C141.458 54.7464 141.918 54.728 142.378 54.7188C143.06 55.3172 143.732 55.9249 144.413 56.5326C142.48 59.5158 140.896 62.7015 139.174 65.8044C135.685 65.1414 132.858 62.3608 131.965 58.9541C133.079 58.0978 134.175 57.1863 135.049 56.0814C135.372 56.4589 135.694 56.8364 136.016 57.2231C137.489 56.0722 139.091 54.9673 141.006 54.7648H140.997Z" fill="#FBCDC1"/>
<path d="M167.358 58.421C168.122 57.712 169.181 57.62 170.175 57.5371C168.895 58.6512 167.524 59.6456 166.253 60.7597C167.137 62.3802 167.846 64.1848 167.487 66.0723C166.612 64.7649 166.271 63.2088 165.691 61.7633C163.785 62.8221 163.749 65.2897 162.275 66.726C162.708 63.4022 164.817 60.5019 167.358 58.421Z" fill="#C76246"/>
<path d="M40.8453 67.1116C42.429 66.6144 44.1784 65.9423 45.8357 66.55C47.6679 67.2866 48.6715 69.1188 49.3989 70.8406C45.0991 70.6565 40.9834 72.1849 36.877 73.2161C35.6984 73.4923 34.612 74.0171 33.636 74.7261C38.7 73.9803 43.5339 71.9271 48.6623 71.6048C51.268 71.4759 52.0046 74.542 52.069 76.5952C47.0879 76.853 42.1159 77.7093 37.3465 79.1548C38.6356 79.2193 39.9246 79.2101 41.1952 78.9891C44.3809 78.409 47.5943 77.9118 50.8261 77.6816C52.1243 77.6356 53.708 77.5988 54.5919 78.7313C55.5586 79.9006 55.3376 81.5119 55.3192 82.9206C52.2624 82.5247 49.1595 82.7365 46.1211 83.206C45.0531 83.3718 44.0311 83.7585 43.0459 84.1912C46.4894 84.3385 49.8777 83.2245 53.3212 83.5928C54.2328 83.6664 55.218 84.1544 55.3745 85.158C56.0282 88.1596 55.3561 91.2624 54.6655 94.1996C54.4353 94.66 53.9381 94.8901 53.4501 94.973C51.71 95.1756 49.9606 95.3045 48.2204 95.5254C48.2204 94.3653 48.2204 93.2052 48.2204 92.0451C49.27 92.3305 50.3197 92.6251 51.3785 92.9198C51.1023 92.4962 50.8261 92.0727 50.5498 91.6492C51.1115 90.885 51.6639 90.1115 52.2256 89.3473C51.2864 89.9918 50.3933 90.7745 49.2884 91.1059C48.5334 91.1059 47.8061 90.8942 47.0787 90.7376C46.8853 92.7264 46.9406 94.8073 47.9534 96.6027C49.6475 100.092 51.4061 103.932 50.6051 107.909C50.3289 109.732 49.1872 111.215 48.2848 112.762C47.6864 114.069 47.4193 115.487 47.1339 116.877C41.2873 116.325 35.5695 114.879 30.0175 113.029C30.0175 111.832 30.0175 110.635 29.9531 109.447C29.686 106.565 28.9034 103.766 28.4246 100.921C27.2093 94.2088 26.0123 87.4967 25.11 80.7385C24.9259 78.3354 24.4471 75.1865 26.8226 73.658C31.1592 70.8406 35.9746 68.8242 40.8545 67.1485L40.8453 67.1116Z" fill="#F4A489"/>
<path d="M36.8707 73.2071C40.9864 72.1759 45.0929 70.6475 49.3927 70.8316C49.7426 70.9329 50.0832 71.0802 50.4055 71.2736C51.1973 71.8997 52.0352 72.6086 52.3482 73.6122C52.7994 74.7447 52.8454 76.1074 53.7477 77.0189C54.4199 77.7832 55.2854 78.4092 55.7549 79.3392C56.1877 80.3336 55.9667 81.4477 55.8931 82.4973C55.6168 84.0902 56.5744 85.5633 56.4915 87.1562C56.4087 89.5869 55.9391 92.0821 54.6409 94.1722C55.3406 91.2351 56.0035 88.1322 55.3498 85.1306C55.2025 84.1362 54.2081 83.639 53.2966 83.5654C49.8531 83.1971 46.4648 84.3111 43.0212 84.1638C44.0064 83.7311 45.0284 83.3444 46.0965 83.1786C49.1349 82.7091 52.2285 82.4973 55.2946 82.8932C55.313 81.4845 55.5432 79.8732 54.5672 78.7039C53.6833 77.5714 52.0996 77.6082 50.8014 77.6542C47.5696 77.8844 44.3563 78.3816 41.1705 78.9617C39.8999 79.1827 38.6109 79.1919 37.3219 79.1274C42.1005 77.6819 47.0632 76.8256 52.0444 76.5678C51.9799 74.5146 51.2526 71.4485 48.6377 71.5774C43.5 71.8997 38.6754 73.9529 33.6113 74.6987C34.5873 73.9897 35.683 73.4649 36.8523 73.1887L36.8707 73.2071Z" fill="#C25D42"/>
<path d="M86.5 243.885C87.5036 246.84 87.697 250.054 89.1701 252.843C91.2694 256.849 93.8014 260.651 96.9135 263.948C96.2598 263.819 95.5968 263.699 94.9523 263.552C93.9671 261.241 92.0152 259.556 90.7906 257.383C88.4151 253.414 86.3711 248.967 86.5184 244.253V243.885H86.5092H86.5Z" fill="#C25D42"/>
<path d="M50.4121 71.273C51.738 71.0888 53.2203 70.9047 54.3897 71.7242C56.3416 73.0684 57.3728 75.2966 58.5146 77.3038C59.0394 78.4271 59.8404 79.6701 59.4721 80.9591C58.8921 82.377 57.1795 82.3494 55.8997 82.5059C55.9733 81.4563 56.1943 80.3422 55.7616 79.3478C55.292 78.4179 54.4357 77.7918 53.7544 77.0276C52.8521 76.116 52.806 74.7534 52.3549 73.6209C52.0326 72.6173 51.2039 71.9083 50.4121 71.2822V71.273Z" fill="#F4A588"/>
<path d="M161.102 72.793C161.82 72.8574 162.538 72.9219 163.265 72.9495C162.704 74.6252 162.031 76.2733 161.295 77.8846C161.148 76.1905 161.111 74.4963 161.102 72.793Z" fill="#502A18"/>
<path d="M126.907 73.9438C130.516 73.6676 134.107 73.1428 137.726 73.0783C138.702 72.9955 139.613 73.3545 140.433 73.8425C139.254 74.8369 137.974 75.7208 136.529 76.2733C132.211 77.9398 127.515 78.6027 122.902 78.2528C121.806 78.1331 120.655 78.0042 119.725 77.3782C118.952 76.7705 118.74 75.7484 118.354 74.8922C121.116 73.9714 124.053 74.2661 126.898 73.953L126.907 73.9438Z" fill="#FEFEFE"/>
<path d="M140.424 73.8326L140.645 73.6484C142.081 75.9042 141.602 78.6388 140.958 81.0603C137.965 80.5171 134.789 80.2225 131.87 81.3181C128.316 82.5243 125.517 85.2681 123.547 88.3894C119.652 86.373 116.917 82.1744 116.788 77.7825C116.659 76.558 117.516 75.6372 118.344 74.873C118.731 75.7293 118.943 76.7513 119.716 77.359C120.646 77.9759 121.806 78.114 122.893 78.2337C127.506 78.5836 132.201 77.9206 136.52 76.2541C137.965 75.7017 139.245 74.8178 140.424 73.8234V73.8326Z" fill="#701115"/>
<path d="M131.87 81.3295C134.78 80.2338 137.956 80.5285 140.958 81.0717C139.871 83.9996 137.864 86.6605 135.056 88.1337C131.539 90.0673 127.175 90.0304 123.547 88.4007C125.526 85.2794 128.316 82.5357 131.87 81.3295Z" fill="#DE594C"/>
<path d="M156.286 86.6497C157.649 84.8542 158.496 82.7458 159.776 80.9043C159.619 81.8619 159.481 82.8378 159.168 83.7678C156.995 89.771 152.999 94.9547 148.349 99.2637C144.031 103.232 138.654 105.957 132.973 107.32C130.883 107.817 128.719 107.762 126.583 107.799L126.279 107.817C126.712 104.843 126.574 101.814 126.279 98.831C133.13 100.212 140.357 98.8494 146.471 95.5624C150.43 93.4631 153.597 90.1761 156.295 86.6497H156.286Z" fill="#CE6851"/>
<path d="M49.2831 91.0711C50.388 90.7396 51.2811 89.957 52.2202 89.3125C51.6586 90.0767 51.1061 90.8501 50.5445 91.6143C50.8207 92.0379 51.0969 92.4614 51.3731 92.8849C50.3235 92.5903 49.2647 92.2957 48.215 92.0102C48.2058 93.1704 48.2058 94.3305 48.215 95.4906C49.9552 95.2696 51.7046 95.1407 53.4448 94.9382C51.7138 95.7945 49.7158 95.7852 47.9572 96.5679C46.9444 94.7816 46.8892 92.7008 47.0825 90.7028C47.8099 90.8593 48.5373 91.0803 49.2923 91.0711H49.2831Z" fill="#C15D41"/>
<path d="M163.212 108.011C163.212 104.153 162.568 100.323 162.549 96.4648C165.358 96.603 168.147 97.1278 170.799 98.0577C175.228 99.669 178.846 102.947 181.645 106.667C182.492 107.753 183.054 109.06 184.012 110.073C185.301 110.837 186.82 111.086 188.219 111.611C194.278 113.756 200.198 116.27 205.953 119.133C213.273 122.825 220.565 126.775 226.789 132.171C230.914 136.167 233.74 141.24 236.558 146.194C243.795 159.636 248.923 174.101 253.288 188.695C255.028 194.716 256.611 200.775 258.057 206.879C258.591 209.264 259.116 211.658 259.567 214.07C261.132 222.449 262.283 230.919 262.78 239.436C262.716 240.863 262.707 242.281 262.716 243.708C262.716 244.417 262.716 245.136 262.716 245.854C262.707 247.005 262.651 248.156 262.587 249.306C262.458 251.148 262.311 252.989 262.025 254.822C261.537 257.658 260.93 260.484 259.926 263.182C258.987 265.392 257.679 267.555 255.635 268.918C253.684 270.198 251.538 271.146 249.384 272.049C247.726 272.684 246.023 273.246 244.329 273.77C243.381 274.056 242.423 274.332 241.465 274.581C240.664 274.728 239.863 274.875 239.062 275.041C236.503 275.566 233.915 275.989 231.328 276.376C229.698 276.597 228.069 276.763 226.43 276.901C214.792 278.006 203.098 278.337 191.414 278.227C183.137 278.098 174.694 278.917 166.601 276.79C163.746 276.118 161.26 274.479 158.461 273.632C160.211 275.492 162.651 276.394 164.999 277.241C169.703 278.788 174.721 278.558 179.583 279.249C186.673 280.215 193.836 280.473 200.944 281.33C206.809 281.974 212.637 282.84 218.484 283.631C221.752 284.046 225.003 284.672 228.308 284.709C229.321 289.073 230.242 293.465 231.172 297.847C231.383 298.925 231.595 300.011 231.761 301.107C232.286 305.048 233.059 308.979 232.958 312.975C209.378 312.975 185.798 312.975 162.218 312.975C158.986 312.929 155.736 313.178 152.523 312.699C151.427 299.965 151.178 287.176 151.28 274.406C148.628 274.258 145.93 274.111 143.426 273.19C144.54 272.279 145.728 271.386 146.538 270.17C147.532 268.669 148.057 266.92 148.619 265.226C147.965 265.189 147.311 265.161 146.667 265.161C147.385 265.088 148.094 264.977 148.803 264.885C149.797 261.018 149.724 257.004 149.254 253.072C153.554 252.483 157.835 251.765 162.153 251.268C163.083 255.844 163.627 260.604 162.54 265.208C162.006 267.961 160.33 270.299 159.668 273.006C160.551 272.251 161.398 271.413 161.868 270.336C163.415 267.067 164.151 263.449 164.28 259.84C164.382 256.902 163.811 253.993 163.203 251.13C168.405 250.273 173.607 249.454 178.81 248.69C180.485 248.423 182.189 248.358 183.837 247.935C184.831 247.704 185.338 246.738 185.844 245.955C186.093 245.145 186.258 244.325 186.424 243.497C177.355 243.349 168.276 243.561 159.216 243.368C160.634 241.6 162.641 240.477 164.713 239.657C174.942 235.403 185.872 233.277 196.368 229.833C199.701 228.783 203.034 227.688 206.45 226.942C207.361 226.684 208.365 226.546 209.102 225.901C209.01 223.894 208.245 222.016 207.794 220.082C206.284 214.061 205.179 207.938 204.074 201.833C203.531 199.108 203.55 196.263 202.518 193.648C201.717 195.701 202.159 197.911 202.261 200.038C202.482 203.96 202.831 207.864 203.172 211.777C203.458 215.405 203.504 219.125 202.546 222.67C201.929 224.962 200.336 226.988 198.209 228.056C195.898 229.216 193.357 229.741 190.908 230.487C183.017 232.779 175.044 234.823 167.254 237.457C163.673 238.773 159.962 240.357 157.476 243.377C155.487 243.423 153.489 243.423 151.501 243.414C151.519 237.475 151.998 231.564 152.108 225.644C152.265 222.504 152.265 219.364 152.458 216.225C152.882 210.838 152.817 205.424 153.25 200.047C153.471 197.276 153.554 194.504 153.664 191.733C154.539 174.699 156.067 157.694 158.535 140.807C159.879 131.057 161.417 121.334 162.872 111.602C163.047 110.423 163.194 109.235 163.268 108.048L163.212 108.011ZM184.951 112.624C185.117 113.517 185.31 114.419 185.595 115.294C187.483 120.846 189.048 126.536 189.821 132.364C190.042 134.684 190.208 137.051 189.858 139.371C189.729 140.559 188.698 141.654 187.437 141.526C184.021 141.176 181.609 137.833 178.064 137.971C175.44 138.174 173.874 140.642 172.622 142.667C169.133 149.048 165.661 155.465 162.982 162.242C162.043 164.728 160.947 167.196 160.542 169.838C160.993 169.065 161.408 168.273 161.712 167.435C162.881 164.157 164.271 160.962 165.8 157.832C168.479 152.427 171.167 147.004 174.408 141.903C175.32 140.55 176.581 138.966 178.395 139.104C181.563 139.574 183.901 142.244 187.087 142.686C188.146 142.87 189.278 142.455 189.914 141.562C191.193 139.951 191.064 137.769 191.101 135.826C190.982 128.737 188.855 121.859 186.396 115.266C186.056 114.309 185.549 113.434 184.951 112.624ZM219.322 134.206C214.506 138.634 210.952 144.278 208.301 150.226C205.557 156.184 203.715 162.527 202.546 168.973C201.367 175.639 200.907 182.452 201.552 189.201C201.699 190.278 201.515 191.623 202.555 192.322C202.703 189.947 202.316 187.59 202.27 185.223C202.067 174.018 204.157 162.785 208.365 152.409C210.593 147.068 213.484 141.94 217.269 137.539C218.751 135.725 220.777 134.408 222.112 132.456C221.08 132.852 220.114 133.414 219.322 134.187V134.206ZM158.176 197.018C158.204 197.322 158.259 197.92 158.286 198.224C159.566 198.418 160.855 198.721 162.153 198.528C162.688 198.464 163.12 198.049 162.973 197.497C161.527 196.613 159.769 196.742 158.176 197.018ZM159.133 220.359C158.369 220.635 157.67 221.417 157.918 222.274C158.167 223.894 160.736 223.913 161.325 222.541C161.785 221.289 160.376 219.861 159.133 220.359ZM214.267 224.318C212.527 224.806 210.63 225.064 209.212 226.288C211.569 226.509 213.917 226.03 216.274 226.049C224.505 226.086 232.7 228.415 239.716 232.715C239.9 232.623 240.268 232.429 240.453 232.337C237.93 229.861 234.449 228.765 231.19 227.605C225.776 225.699 219.985 225.192 214.276 225.312C215.372 224.769 216.532 224.345 217.747 224.18C222.986 223.388 228.373 223.093 233.602 224.115C235.757 224.52 237.755 225.459 239.9 225.92C239.458 225.34 238.989 224.723 238.289 224.465C233.869 222.568 228.943 222.449 224.211 222.624C220.832 222.734 217.508 223.443 214.258 224.318H214.267ZM157.522 290.868C157.522 291.135 157.513 291.66 157.513 291.927C159.382 291.89 161.463 292.397 163.12 291.273C161.316 290.647 159.401 290.795 157.522 290.878V290.868Z" fill="#6A86C4"/>
<path d="M21.9898 121.693C22.6895 117.743 22.8184 113.6 24.4942 109.898C25.9949 111.454 27.9377 112.476 30.0185 113.001C35.5798 114.852 41.2975 116.298 47.135 116.85C49.4828 117.181 51.8952 116.786 53.9576 115.579C54.4088 119.391 54.0128 123.221 54.0957 127.042C54.9796 127.742 55.9095 128.451 56.4436 129.473C57.1894 130.864 57.4748 132.438 57.7234 133.985C58.3955 138.681 58.8559 143.422 59.2334 148.155C59.2334 151.074 59.7674 153.955 60.0805 156.847C60.5408 160.539 60.9275 164.24 61.5905 167.905C51.3888 167.923 41.187 167.868 30.9853 167.868C24.1719 167.813 17.3493 167.969 10.5358 167.831C10.5266 167.693 10.5082 167.417 10.499 167.269C10.4714 166.791 10.4898 166.312 10.5451 165.833C12.3589 153.891 14.2556 141.968 16.2076 130.044C16.5759 128.083 16.8613 126.002 18.0859 124.354C19.0618 123.056 20.5995 122.402 21.999 121.684L21.9898 121.693ZM22.6435 123.157C23.2788 123.755 23.9509 124.336 24.7335 124.759C29.6226 127.356 34.9629 129.022 40.3952 130.053C44.2807 130.679 48.2951 131.057 52.1898 130.348C52.7975 130.302 53.2026 129.842 53.5801 129.418C50.7258 129.455 47.8808 129.934 45.0265 129.639C38.0473 129.068 31.1879 127.061 24.9637 123.857C24.2271 123.525 23.4353 123.341 22.6435 123.166V123.157Z" fill="#6A86C4"/>
<path d="M116.568 102.469C119.523 100.784 122.847 99.9735 126.005 98.7949L126.263 98.8317C126.567 101.815 126.696 104.844 126.263 107.818C124.652 111.151 123.169 114.549 121.88 118.02L121.77 118.342C119.708 123.765 118.142 129.363 116.632 134.961C113.419 147.207 111.163 159.711 109.828 172.297C109.349 170.667 108.677 168.66 106.891 168.089C104.801 167.638 102.656 167.942 100.538 167.905C93.9086 167.887 87.2886 167.96 80.6593 167.887C82.0128 160.153 83.1637 152.345 83.1729 144.482C83.1729 143.681 83.0716 142.88 83.0164 142.079C82.5468 143.211 82.3258 144.436 82.2982 145.66C82.1417 150.163 81.5524 154.647 80.8987 159.103C80.4843 162.031 79.8122 164.931 79.536 167.877C73.9195 167.914 68.3031 167.887 62.6958 167.887C62.0973 163.191 61.4896 158.504 60.928 153.809C60.7162 151.7 60.4952 149.592 59.9336 147.548C63.6257 142.594 67.456 137.742 71.3415 132.945C74.1865 129.566 77.096 126.214 80.4015 123.268C81.7549 122.043 83.2834 121.04 84.9223 120.239C90.7413 117.375 96.7905 114.963 103.015 113.094C104.12 112.744 105.381 112.477 106.071 111.446C108.843 107.717 112.434 104.614 116.549 102.459L116.568 102.469ZM99.433 119.217C97.4534 122.301 95.8974 125.643 94.4979 129.032C93.8902 130.579 93.2917 132.291 93.7429 133.958C93.9731 134.796 94.8662 135.182 95.6396 135.339C97.9967 135.753 100.271 134.4 102.619 134.814C103.53 135.302 103.862 136.37 104.138 137.291C104.764 139.758 105.003 142.3 105.289 144.832C105.694 148.791 106.228 152.75 106.688 156.7C106.79 157.639 107.057 158.55 107.379 159.434C107.646 156.958 107.213 154.49 106.992 152.032C106.55 147.327 106.292 142.585 105.712 137.898C105.445 136.213 105.105 134.16 103.429 133.304C100.74 132.31 97.7297 134.722 95.17 133.203C94.9122 131.49 95.6396 129.842 96.2657 128.295C97.4811 125.284 98.9174 122.366 100.483 119.521C101.385 117.891 102.536 116.409 103.401 114.751C101.588 115.736 100.538 117.559 99.4238 119.208L99.433 119.217Z" fill="#6A86C4"/>
<path d="M61.6818 254.547C67.3443 254.574 75.0876 254.584 80.7501 254.547C82.5456 257.613 83.9359 258.93 86.9927 260.348C87.895 260.716 88.8342 261.02 89.7457 261.379C91.4122 262.244 93.0879 263.147 94.9478 263.542C95.6015 263.69 96.2553 263.809 96.909 263.938C99.9014 264.564 102.839 265.568 105.932 265.614C105.822 270.052 105.859 274.49 105.776 278.928C105.343 289.599 105.527 300.298 104.744 310.96C104.68 311.586 104.597 312.222 104.523 312.857C97.4338 313.059 90.335 312.885 83.2453 312.949C73.5224 312.949 63.7994 312.967 54.0765 312.931C53.966 311.743 53.8555 310.555 53.7266 309.377C53.7082 308.631 53.7266 307.894 53.7358 307.158C53.9108 298.125 55.3839 289.185 56.8295 280.291C58.2474 272.041 59.693 263.791 61.3687 255.597C61.4608 255.237 61.5713 254.888 61.6726 254.547H61.6818ZM96.7525 287.408C95.6476 288.025 95.3437 289.618 96.0067 290.667C96.7985 292.232 99.6804 291.938 99.9106 290.096C100.435 288.301 98.4558 286.588 96.7525 287.408Z" fill="#6A86C4"/>
<path d="M126.281 107.819L126.585 107.801C126.438 109.882 126.217 111.999 126.686 114.062C127.248 116.557 128.878 118.776 131.078 120.083C134.964 122.45 139.705 123.002 144.162 122.459C150.616 121.722 156.693 118.362 160.799 113.334C161.011 115.912 160.588 118.49 159.998 120.995C159.796 121.86 159.363 122.689 158.626 123.214C154.078 126.648 148.397 128.315 142.753 128.637C137.054 128.959 131.179 127.348 126.668 123.785C124.651 122.247 123.712 119.77 121.898 118.039C123.178 114.568 124.661 111.171 126.281 107.838V107.819Z" fill="#E9E9E9"/>
<path d="M160.801 113.326C161.851 111.678 162.689 109.891 163.213 108.004C163.14 109.192 162.992 110.379 162.817 111.558C161.372 121.29 159.825 131.013 158.481 140.764C156.013 157.641 154.485 174.647 153.61 191.689C153.49 194.461 153.417 197.232 153.196 200.003C152.763 205.39 152.828 210.794 152.404 216.181C152.201 219.32 152.211 222.46 152.054 225.6C151.944 231.529 151.465 237.44 151.446 243.37C149.66 243.37 147.874 243.37 146.088 243.37C146.364 241.179 146.327 238.96 146.336 236.759C147.064 222.479 147.717 208.198 149.016 193.954C150.507 177.105 152.699 160.311 155.627 143.655C156.105 140.598 156.685 137.559 157.33 134.53C158.057 131.151 158.453 127.717 159.245 124.347C156.243 126.013 153.15 127.597 149.835 128.536C145.093 129.834 140.02 130.175 135.232 128.941C132.222 128.214 129.229 127.081 126.826 125.065C124.662 123.26 122.434 121.189 121.799 118.335L121.909 118.012C123.723 119.743 124.662 122.22 126.679 123.758C131.181 127.321 137.065 128.932 142.764 128.61C148.408 128.288 154.08 126.621 158.637 123.187C159.374 122.662 159.816 121.833 160.009 120.968C160.608 118.463 161.022 115.885 160.81 113.307L160.801 113.326Z" fill="#BFBFBF"/>
<path d="M24.4877 109.899C26.2555 109.392 28.1062 109.273 29.9385 109.411C30.0029 110.608 30.0029 111.795 30.0029 112.992C27.9221 112.467 25.9793 111.455 24.4785 109.889L24.4877 109.899Z" fill="#4B5A7D"/>
<path d="M47.127 116.84C47.4124 115.45 47.6794 114.023 48.2779 112.725C50.3035 113.24 53.0933 113.259 53.9496 115.579C51.8871 116.776 49.4748 117.181 47.127 116.849V116.84Z" fill="#4B5A7D"/>
<path d="M184.957 112.625C185.546 113.444 186.062 114.319 186.402 115.277C188.87 121.869 190.988 128.747 191.107 135.837C191.071 137.779 191.199 139.962 189.92 141.573C189.284 142.457 188.152 142.871 187.093 142.696C183.916 142.254 181.569 139.575 178.401 139.114C176.587 138.967 175.326 140.56 174.405 141.914C171.164 147.005 168.476 152.428 165.796 157.842C164.277 160.963 162.878 164.158 161.708 167.445C161.405 168.283 160.99 169.084 160.539 169.849C160.953 167.206 162.04 164.738 162.979 162.252C165.658 155.476 169.129 149.058 172.619 142.678C173.871 140.643 175.427 138.185 178.061 137.982C181.596 137.844 184.009 141.186 187.434 141.536C188.695 141.665 189.726 140.578 189.855 139.381C190.205 137.061 190.039 134.695 189.818 132.375C189.045 126.546 187.48 120.866 185.592 115.304C185.307 114.43 185.104 113.537 184.948 112.634L184.957 112.625Z" fill="#3D5B9C"/>
<path d="M99.443 119.216C100.557 117.568 101.607 115.736 103.421 114.76C102.555 116.417 101.404 117.899 100.502 119.529C98.9366 122.374 97.5003 125.293 96.2849 128.304C95.6588 129.86 94.9407 131.499 95.1893 133.211C97.7581 134.721 100.769 132.309 103.448 133.313C105.124 134.16 105.465 136.222 105.732 137.898C106.312 142.594 106.56 147.326 107.011 152.031C107.232 154.489 107.665 156.957 107.398 159.434C107.067 158.55 106.809 157.638 106.708 156.699C106.247 152.74 105.713 148.79 105.308 144.831C105.023 142.299 104.783 139.758 104.157 137.29C103.881 136.36 103.55 135.292 102.638 134.813C100.29 134.399 98.0067 135.752 95.6588 135.338C94.8762 135.182 93.9831 134.795 93.7621 133.957C93.311 132.291 93.9186 130.578 94.5171 129.031C95.9166 125.643 97.4727 122.31 99.4522 119.216H99.443Z" fill="#3D5B9C"/>
<path d="M116.659 134.961C118.169 129.363 119.725 123.765 121.797 118.342C122.432 121.205 124.669 123.277 126.824 125.072C129.218 127.089 132.21 128.212 135.23 128.949C140.018 130.182 145.101 129.851 149.833 128.544C153.148 127.604 156.241 126.021 159.243 124.354C158.451 127.724 158.064 131.158 157.328 134.537C156.683 137.567 156.103 140.605 155.625 143.662C152.697 160.318 150.505 177.112 149.014 193.962C147.715 208.205 147.062 222.495 146.334 236.766C146.334 238.967 146.362 241.186 146.086 243.377C140.442 243.322 134.798 243.506 129.153 243.258C128.288 240.845 127.68 238.368 127.008 235.901C122.672 220.341 118.537 204.725 114.302 189.128C112.838 183.511 111.19 177.932 109.846 172.288C111.181 159.701 113.437 147.198 116.65 134.952L116.659 134.961Z" fill="#E9E9E9"/>
<path d="M22.6323 123.158C23.4241 123.333 24.2159 123.517 24.9525 123.848C31.1674 127.052 38.0361 129.06 45.0153 129.63C47.8695 129.925 50.7146 129.446 53.5689 129.409C53.1914 129.833 52.7862 130.293 52.1786 130.349C48.2747 131.048 44.2695 130.671 40.3748 130.045C34.9517 129.014 29.6022 127.356 24.7131 124.751C23.9305 124.336 23.2676 123.747 22.623 123.148L22.6323 123.158Z" fill="#3D5B9C"/>
<path d="M219.332 134.208C220.124 133.425 221.091 132.872 222.122 132.477C220.787 134.419 218.761 135.736 217.279 137.559C213.495 141.96 210.604 147.079 208.375 152.429C204.168 162.805 202.078 174.038 202.28 185.244C202.326 187.61 202.713 189.967 202.566 192.343C201.525 191.643 201.7 190.299 201.562 189.221C200.917 182.472 201.378 175.65 202.556 168.993C203.726 162.548 205.567 156.204 208.311 150.247C210.963 144.299 214.517 138.655 219.332 134.226V134.208Z" fill="#3D5B9C"/>
<path d="M82.3286 145.67C82.347 144.436 82.5772 143.22 83.0468 142.088C83.102 142.88 83.2033 143.69 83.2033 144.491C83.2033 152.354 82.0432 160.162 80.6897 167.896C80.4043 167.896 79.8426 167.896 79.5664 167.896C79.8518 164.94 80.5148 162.049 80.9291 159.121C81.592 154.665 82.1813 150.19 82.3286 145.679V145.67Z" fill="#3D5B9C"/>
<path d="M59.2246 148.155C59.4088 147.999 59.777 147.704 59.952 147.557C60.5044 149.601 60.7346 151.718 60.9464 153.827C61.4988 158.523 62.1065 163.218 62.7142 167.905C62.4288 167.905 61.8671 167.905 61.5909 167.905C60.928 164.24 60.5505 160.539 60.0809 156.847C59.7586 153.956 59.2338 151.074 59.2338 148.155H59.2246Z" fill="#3D5B9C"/>
<path d="M1.75916 168.256C4.04258 167.713 6.54697 167.869 8.55417 167.833C9.02374 167.805 10.1562 167.833 10.5245 167.833C17.338 167.961 24.1606 167.805 30.974 167.869C41.1757 167.869 51.3774 167.925 61.5792 167.897C61.8646 167.897 62.4262 167.897 62.7025 167.897C68.3189 167.897 73.9262 167.915 79.5427 167.888C79.8281 167.888 80.3897 167.888 80.6659 167.888C87.2952 167.961 93.9153 167.888 100.545 167.906C102.653 167.943 104.808 167.639 106.898 168.09C108.693 168.661 109.356 170.668 109.835 172.298C111.179 177.951 112.827 183.522 114.291 189.138C118.526 204.726 122.67 220.342 126.997 235.902C127.669 238.361 128.277 240.847 129.143 243.259C129.363 243.885 129.575 244.502 129.769 245.146C130.284 246.693 130.395 248.351 130.174 249.962C129.796 250.146 129.428 250.339 129.05 250.524C127.467 244.115 125.754 237.744 123.894 231.409C122.255 225.268 120.653 219.127 118.886 213.013C115.7 200.887 112.339 188.816 109.061 176.718C108.454 174.526 108.049 172.059 106.272 170.466C105.342 169.554 103.988 169.37 102.736 169.333C71.0075 169.416 39.2698 169.315 7.54136 169.379C5.06459 169.287 2.56941 169.361 0.138672 169.932C0.645075 169.343 1.06861 168.643 1.74995 168.256H1.75916Z" fill="#DFE5E9"/>
<path d="M0.150302 169.94C2.58104 169.369 5.06701 169.296 7.55299 169.388C39.2814 169.323 71.0191 169.425 102.748 169.342C103.991 169.369 105.344 169.563 106.283 170.474C108.06 172.067 108.465 174.535 109.073 176.726C112.351 188.834 115.711 200.905 118.897 213.031C120.665 219.135 122.276 225.286 123.906 231.427C125.766 237.761 127.488 244.133 129.062 250.541C127.414 251.407 125.508 251.296 123.713 251.14C120.085 250.808 116.448 251.029 112.82 250.919C110.841 250.854 108.852 250.9 106.891 251.149C105.427 247.825 104.23 244.151 101.339 241.748C100.409 240.91 98.8989 240.358 97.8032 241.214C96.8825 241.988 97.1311 243.332 97.1863 244.391C97.2047 244.547 97.2508 244.869 97.2692 245.026C97.573 246.96 98.0058 248.856 98.5306 250.735C97.9689 250.827 97.4073 250.919 96.8456 251.02C95.3541 247.613 94.4149 243.875 92.1315 240.864C91.045 239.336 88.6327 238.673 87.1043 239.898C86.2112 240.993 86.5426 242.568 86.515 243.884V244.253C85.3457 244.216 84.0935 243.93 82.961 244.4C82.1415 244.897 82.2981 245.984 82.2889 246.812C82.5467 247.761 82.8321 248.7 83.0991 249.648C83.2004 249.998 83.3017 250.348 83.4029 250.707C75.3097 251.048 67.2165 250.771 59.114 250.836C48.6269 250.845 38.1305 250.836 27.6342 250.873C26.5845 250.873 25.5349 250.854 24.4853 250.771C23.4264 250.256 22.3584 249.547 21.8796 248.424C21.0417 246.343 21.0141 245.606 20.1394 243.157C20.1026 242.908 19.8356 242.015 19.6238 240.947C18.8964 237.577 17.9297 235.331 17.0181 232.007C14.836 224.346 12.6631 216.686 10.4165 209.053C9.15507 204.91 8.11464 200.693 6.72433 196.586C6.35604 195.122 5.94171 193.677 5.51817 192.231C3.74116 186.099 2.01018 179.949 0.223961 173.817C-0.144332 172.546 0.0213996 171.22 0.15951 169.931H0.150302V169.94ZM58.5248 204.468C56.4439 204.652 54.3815 205.655 53.1845 207.405C51.5916 209.615 51.5456 212.671 52.6505 215.102C54.584 219.697 60.5412 222.302 65.1172 220.083C67.9899 218.905 69.638 215.535 68.9474 212.524C67.9991 207.865 63.3402 204.044 58.5155 204.459L58.5248 204.468Z" fill="#B2B7BF"/>
<path d="M202.213 200.013C202.121 197.886 201.679 195.676 202.471 193.623C203.502 196.238 203.484 199.083 204.027 201.808C205.141 207.913 206.237 214.026 207.747 220.057C208.198 221.991 208.962 223.878 209.054 225.876C208.317 226.521 207.305 226.659 206.402 226.917C202.977 227.663 199.653 228.758 196.32 229.808C185.824 233.242 174.895 235.369 164.666 239.632C162.594 240.461 160.596 241.584 159.169 243.343C158.579 243.343 157.999 243.343 157.41 243.343C159.896 240.323 163.607 238.739 167.188 237.432C174.978 234.798 182.951 232.763 190.842 230.462C193.291 229.716 195.842 229.182 198.143 228.031C200.27 226.963 201.863 224.937 202.48 222.645C203.438 219.109 203.392 215.38 203.106 211.752C202.775 207.839 202.416 203.935 202.195 200.013H202.213Z" fill="#3D5B9C"/>
<path d="M16.9908 239.676C11.9451 234.538 8.55684 227.817 7.39672 220.709C6.07087 212.744 6.15373 204.605 6.70617 196.576C8.09648 200.683 9.13691 204.89 10.3983 209.043C12.6449 216.676 14.9375 224.438 17.1197 232.098C18.0312 235.422 19.6885 240.569 20.4159 243.939" fill="#6A86C4"/>
<path d="M158.186 197.018C159.778 196.741 161.537 196.622 162.992 197.496C163.139 198.058 162.697 198.472 162.172 198.528C160.874 198.721 159.576 198.417 158.305 198.224C158.278 197.92 158.222 197.321 158.195 197.018H158.186Z" fill="#3D5B9C"/>
<path d="M58.5354 204.466C63.36 204.052 68.0189 207.864 68.9673 212.532C69.6579 215.534 68.0097 218.913 65.1371 220.091C60.561 222.301 54.6039 219.705 52.6703 215.11C51.5563 212.679 51.6115 209.623 53.2044 207.413C54.4013 205.663 56.4638 204.66 58.5446 204.476L58.5354 204.466Z" fill="#DEE5EA"/>
<path d="M159.142 220.359C160.385 219.862 161.803 221.289 161.334 222.541C160.744 223.913 158.176 223.895 157.927 222.274C157.669 221.418 158.378 220.635 159.142 220.359Z" fill="#3D5B9C"/>
<path d="M214.276 224.318C217.535 223.444 220.85 222.735 224.229 222.624C228.971 222.449 233.888 222.569 238.307 224.466C239.016 224.723 239.477 225.34 239.918 225.92C237.773 225.46 235.775 224.521 233.621 224.116C228.391 223.103 223.005 223.398 217.766 224.18C216.55 224.346 215.39 224.769 214.294 225.313C220.003 225.184 225.785 225.699 231.208 227.605C234.468 228.765 237.939 229.861 240.471 232.338C240.287 232.43 239.919 232.623 239.734 232.715C232.718 228.416 224.524 226.086 216.292 226.049C213.935 226.031 211.588 226.5 209.23 226.289C210.639 225.064 212.545 224.806 214.285 224.318H214.276Z" fill="#3D5B9C"/>
<path d="M87.0856 239.896C88.614 238.681 91.0264 239.334 92.1128 240.863C94.3962 243.874 95.3354 247.612 96.827 251.018C97.849 252.832 99.3406 254.333 100.252 256.211C101.366 258.449 102.628 260.668 104.487 262.38C105.519 263.375 106.78 264.056 107.968 264.839C108.17 265.06 108.364 265.29 108.557 265.529C107.673 265.557 106.799 265.612 105.924 265.621C102.839 265.566 99.893 264.572 96.9006 263.946C93.7886 260.649 91.2566 256.856 89.1573 252.841C87.6841 250.052 87.4908 246.838 86.4872 243.883C86.524 242.566 86.1833 240.992 87.0764 239.896H87.0856ZM86.837 241.056C86.9751 242.281 86.8186 243.653 87.4723 244.757C88.0892 245.77 89.8662 245.457 90.0596 244.269C90.253 243.109 90.2161 241.645 89.2309 240.826C88.4391 240.55 87.6197 240.927 86.837 241.056Z" fill="#F5A58B"/>
<path d="M86.8457 241.056C87.6283 240.927 88.4478 240.54 89.2396 240.825C90.2248 241.645 90.2616 243.109 90.0683 244.269C89.8749 245.457 88.0979 245.779 87.481 244.757C86.8273 243.643 86.9838 242.28 86.8457 241.056Z" fill="#FBC8B9"/>
<path d="M97.7961 241.213C98.8917 240.357 100.402 240.909 101.332 241.747C104.223 244.15 105.42 247.824 106.884 251.147C107.62 252.556 108.725 253.716 109.848 254.821C110.87 256.202 111.911 257.685 113.513 258.458C117.205 260.392 121.459 260.613 125.427 261.644C127.766 262.196 130.031 263.08 132.434 263.329C130.169 261.837 127.425 261.497 124.875 260.732C121.358 259.738 117.647 259.462 114.25 258.053C112.924 257.574 112.15 256.359 111.451 255.226C112.436 253.79 113.743 252.483 115.493 252.068C120.63 250.54 125.869 252.667 130.565 254.637C132.047 254.969 133.585 254.978 135.095 254.876C139.827 254.462 144.514 253.698 149.21 253.053C149.679 256.985 149.753 260.999 148.759 264.866C148.05 264.968 147.341 265.069 146.622 265.143C144.431 265.281 142.249 265.465 140.067 265.649C136.872 265.907 133.677 266.211 130.473 266.248C125.897 266.33 121.33 266.653 116.754 266.376C114.001 266.238 111.312 265.456 108.55 265.548C108.357 265.308 108.163 265.087 107.961 264.857C106.626 263.135 104.665 262.021 103.385 260.254C101.304 257.353 99.3981 254.25 98.505 250.761C97.9802 248.883 97.5475 246.977 97.2436 245.052C97.5475 245.835 97.9065 246.599 98.2472 247.363C98.8273 247.142 99.4165 246.931 99.9506 246.617C100.558 245.513 100.264 244.095 99.6928 243.027C99.2692 242.216 98.2104 242.336 97.4554 242.134C97.3449 242.889 97.2252 243.644 97.1515 244.408C97.0963 243.349 96.8569 241.995 97.7684 241.231L97.7961 241.213ZM114.765 253.854C113.66 253.956 113.08 255.143 113.181 256.147C114.323 257.068 115.806 257.408 117.233 257.611C118.964 258.302 120.455 255.457 118.982 254.416C117.693 253.781 116.174 253.67 114.774 253.854H114.765Z" fill="#F4A48A"/>
<path d="M97.4841 242.105C98.2391 242.307 99.2979 242.188 99.7215 242.998C100.283 244.057 100.587 245.475 99.9793 246.589C99.4452 246.911 98.856 247.114 98.2759 247.335C97.9352 246.561 97.5762 245.806 97.2723 245.014C97.2539 244.858 97.2079 244.536 97.1895 244.379C97.2631 243.606 97.3828 242.851 97.4933 242.096L97.4841 242.105Z" fill="#FBC7BC"/>
<path d="M129.156 243.268C134.791 243.516 140.444 243.332 146.089 243.387C147.875 243.387 149.661 243.378 151.447 243.387C153.445 243.396 155.434 243.406 157.423 243.35C158.003 243.341 158.592 243.341 159.181 243.35C168.251 243.544 177.32 243.341 186.389 243.479C186.223 244.299 186.058 245.127 185.809 245.938C178.48 246.536 171.215 247.752 163.905 248.553C157.754 249.179 151.641 250.173 145.472 250.679C141.954 251.039 138.419 251.333 134.957 252.097C135.003 253.027 135.049 253.957 135.113 254.887C133.603 254.988 132.066 254.979 130.583 254.648C131.495 253.414 131.541 251.876 131.2 250.44C134.524 249.915 137.876 249.694 141.209 249.298C146.595 248.682 151.981 248.037 157.377 247.448C160.157 247.07 162.975 246.895 165.709 246.232C163.877 245.173 161.695 245.662 159.688 245.533C154.605 245.33 149.514 245.56 144.431 245.275C139.551 245.137 134.662 245.293 129.782 245.174C129.589 244.538 129.368 243.912 129.156 243.295V243.268Z" fill="#C0C6CC"/>
<path d="M82.9514 244.39C84.0839 243.92 85.3361 244.206 86.5146 244.243C86.3673 248.966 88.4113 253.413 90.7868 257.372C92.0114 259.545 93.9633 261.23 94.9485 263.541C93.0978 263.145 91.4221 262.234 89.7464 261.377C87.4261 258.716 85.3084 255.862 83.9826 252.557C83.7524 251.94 83.5683 251.323 83.3841 250.697C83.2828 250.338 83.1815 249.979 83.0803 249.638C83.7064 249.537 84.4153 249.62 84.9862 249.288C85.8701 248.137 85.2808 245.872 83.688 245.78C83.1723 246.056 82.7304 246.443 82.27 246.802C82.2884 245.983 82.1227 244.896 82.9422 244.39H82.9514Z" fill="#F6A68B"/>
<path d="M129.789 245.145C134.669 245.264 139.558 245.108 144.438 245.246C149.52 245.531 154.612 245.301 159.694 245.504C161.702 245.623 163.884 245.145 165.716 246.203C162.981 246.866 160.164 247.041 157.383 247.419C151.988 248.008 146.602 248.653 141.215 249.269C137.882 249.665 134.522 249.886 131.207 250.411C130.866 250.255 130.535 250.107 130.203 249.96C130.424 248.349 130.314 246.691 129.798 245.145H129.789Z" fill="#6B6E76"/>
<path d="M82.2715 246.803C82.7319 246.444 83.1646 246.057 83.6894 245.781C85.2823 245.873 85.8715 248.148 84.9876 249.289C84.426 249.621 83.717 249.529 83.0817 249.639C82.8147 248.691 82.5293 247.752 82.2715 246.803Z" fill="#FCC4B5"/>
<path d="M163.901 248.533C171.212 247.741 178.476 246.516 185.805 245.918C185.299 246.701 184.783 247.667 183.798 247.898C182.15 248.321 180.447 248.395 178.771 248.653C173.559 249.417 168.357 250.236 163.164 251.092C162.907 251.129 162.382 251.194 162.124 251.231C157.815 251.728 153.524 252.446 149.224 253.035C144.52 253.68 139.833 254.453 135.11 254.858C135.054 253.928 134.999 252.998 134.953 252.068C138.415 251.304 141.951 251.019 145.468 250.651C151.637 250.144 157.75 249.159 163.901 248.524V248.533Z" fill="#85888F"/>
<path d="M129.064 250.523C129.441 250.338 129.81 250.145 130.187 249.961C130.519 250.108 130.85 250.256 131.191 250.412C131.531 251.858 131.495 253.386 130.574 254.62C125.878 252.649 120.639 250.523 115.501 252.051C113.752 252.465 112.445 253.773 111.459 255.209C110.925 255.08 110.382 254.951 109.857 254.813C108.734 253.708 107.629 252.548 106.893 251.149C108.863 250.9 110.843 250.854 112.822 250.918C116.45 251.02 120.087 250.808 123.714 251.139C125.51 251.296 127.406 251.406 129.064 250.541V250.523Z" fill="#878B94"/>
<path d="M27.625 250.873C38.1213 250.827 48.6085 250.845 59.1048 250.836C67.1981 250.771 75.3005 251.048 83.3938 250.707C83.5779 251.333 83.7621 251.95 83.9922 252.567C83.7989 252.567 83.403 252.567 83.2096 252.576C81.451 252.484 81.8285 253.23 80.6868 254.556C75.0243 254.593 67.3546 254.583 61.6921 254.556C61.5816 254.896 61.4803 255.246 61.3883 255.605C61.3791 255.348 61.3514 254.823 61.3422 254.565C51.2234 254.565 41.1137 254.565 30.9949 254.565C30.1018 254.519 29.1902 254.491 28.3432 254.197C27.6895 253.221 27.7815 251.987 27.6342 250.873H27.625Z" fill="#8B8F96"/>
<path d="M96.8477 251.02C97.4093 250.919 97.971 250.827 98.5326 250.744C99.4165 254.234 101.332 257.337 103.412 260.237C104.692 262.005 106.653 263.119 107.989 264.841C106.81 264.049 105.549 263.367 104.517 262.382C102.657 260.679 101.396 258.451 100.282 256.213C99.3613 254.335 97.8697 252.834 96.8569 251.02H96.8477Z" fill="#CB6E4F"/>
<path d="M162.116 251.232C162.374 251.195 162.899 251.131 163.157 251.094C163.764 253.957 164.335 256.858 164.234 259.804C164.105 263.413 163.368 267.022 161.822 270.3C161.343 271.378 160.496 272.215 159.621 272.97C160.284 270.254 161.96 267.916 162.494 265.172C163.589 260.568 163.046 255.808 162.107 251.232H162.116Z" fill="#3D5B9C"/>
<path d="M80.6674 254.444C81.7078 253.035 82.205 253.302 83.9636 253.266C84.7278 256.129 86.91 258.32 88.3095 260.852C85.1514 259.656 82.8495 259.646 80.6582 254.453L80.6674 254.444Z" fill="#F5A68A"/>
<path d="M82.978 252.566C83.1805 252.566 83.7882 252.566 83.9816 252.566C85.3074 255.872 87.4251 258.726 89.7453 261.387C88.8338 261.028 87.9039 260.724 86.9924 260.356C85.777 257.732 83.5304 255.485 82.9688 252.576L82.978 252.566Z" fill="#C46243"/>
<path d="M114.764 253.856C116.173 253.672 117.683 253.782 118.972 254.417C120.445 255.458 118.963 258.303 117.223 257.612C115.805 257.41 114.313 257.069 113.172 256.148C113.07 255.145 113.65 253.957 114.755 253.856H114.764Z" fill="#FCCEC0"/>
<path d="M109.854 254.812C110.378 254.95 110.912 255.079 111.456 255.208C112.155 256.35 112.938 257.565 114.255 258.035C117.652 259.443 121.372 259.71 124.88 260.714C127.43 261.478 130.165 261.828 132.439 263.31C130.036 263.062 127.771 262.178 125.432 261.625C121.455 260.594 117.201 260.373 113.518 258.44C111.916 257.666 110.876 256.193 109.854 254.803V254.812Z" fill="#CB6E4F"/>
<path d="M140.081 265.631C142.264 265.447 144.446 265.263 146.637 265.125C147.291 265.125 147.935 265.153 148.589 265.189C148.027 266.884 147.512 268.633 146.508 270.134C145.698 271.349 144.519 272.242 143.396 273.154C141.021 271.432 140.164 268.44 140.072 265.631H140.081Z" fill="#3D5B9C"/>
<path d="M105.934 265.622C106.809 265.622 107.692 265.557 108.567 265.53C111.329 265.447 114.018 266.22 116.771 266.358C121.338 266.635 125.914 266.312 130.49 266.229C133.703 266.193 136.889 265.889 140.084 265.631C140.176 268.43 141.023 271.432 143.408 273.153C145.921 274.074 148.619 274.221 151.262 274.369C151.16 287.139 151.418 299.928 152.504 312.662C149.972 312.349 147.431 312.828 144.899 312.828C132.764 312.828 120.62 312.809 108.484 312.828C107.333 312.809 106.182 312.763 105.032 312.717C104.93 312.119 104.82 311.539 104.746 310.949C105.529 300.287 105.345 289.588 105.777 278.917C105.86 274.479 105.823 270.041 105.934 265.603V265.622Z" fill="#E9E9E9"/>
<path d="M158.453 273.605C161.243 274.453 163.738 276.082 166.592 276.764C174.695 278.89 183.138 278.071 191.406 278.2C203.09 278.31 214.784 277.979 226.422 276.874C227.14 279.452 227.72 282.067 228.3 284.682C224.994 284.645 221.735 284.028 218.476 283.605C212.629 282.813 206.801 281.947 200.945 281.303C193.837 280.446 186.674 280.189 179.584 279.222C174.732 278.531 169.704 278.762 165 277.215C162.652 276.368 160.212 275.465 158.462 273.605H158.453Z" fill="#3D5B9C"/>
<path d="M96.7534 287.408C98.4568 286.588 100.427 288.301 99.9115 290.106C99.6814 291.947 96.7995 292.233 96.0076 290.677C95.3539 289.627 95.6578 288.034 96.7534 287.417V287.408Z" fill="#3D5B9C"/>
<path d="M157.533 290.868C159.402 290.785 161.326 290.638 163.131 291.264C161.473 292.387 159.393 291.881 157.523 291.917C157.523 291.65 157.533 291.126 157.533 290.859V290.868Z" fill="#3D5B9C"/>
<path d="M189.464 66.3026C189.326 63.1445 192.162 60.1705 195.329 60.3731H195.347H195.366C216.137 60.3731 241.108 60.4007 261.944 60.3639C261.944 62.5184 262.552 64.7558 264.052 66.4223C265.498 68.1717 267.662 69.1292 269.835 69.387C269.871 73.5119 269.862 75.2705 269.862 77.0199C269.862 78.8338 269.844 80.6476 269.881 85.0763C269.89 86.7152 269.789 88.3173 268.923 89.5787V89.5971C267.855 91.2728 265.894 92.2488 263.896 92.3133H263.491H263.482C246.411 92.3041 225.087 92.3409 208.017 92.2949C206.967 92.2304 206.111 92.6447 205.383 93.1511C205.015 93.4089 204.665 93.6944 204.334 93.9614C203.993 94.2376 203.68 94.4954 203.358 94.7072C202.124 95.5819 200.927 96.5118 199.748 97.4233C198.791 98.1507 197.843 98.8689 196.857 99.5318C196.959 97.3221 197.355 95.1491 197.622 92.8933L197.677 92.4054L197.189 92.3777C196.36 92.3317 195.587 92.3225 194.804 92.2304C194.132 92.1475 193.506 92.0002 192.935 91.724L192.696 91.5951C190.79 90.4718 189.427 88.391 189.51 86.1996V86.1812C189.51 81.1264 189.519 78.6864 189.519 76.2465L189.501 66.3118L189.464 66.3026Z" fill="#D2E2FE" stroke="url(#paint0_linear_2003_7333)"/>
<path d="M264.521 77.6468C264.521 77.8586 264.447 78.0428 264.281 78.1993C264.134 78.3466 263.95 78.4295 263.729 78.4295C263.508 78.4295 263.314 78.3558 263.158 78.1993C263.011 78.052 262.928 77.8678 262.928 77.6468C262.928 77.4259 263.001 77.2509 263.158 77.0944C263.314 76.9471 263.508 76.8642 263.729 76.8642C263.95 76.8642 264.125 76.9379 264.281 77.0944C264.438 77.2417 264.521 77.4259 264.521 77.6468ZM264.042 75.9711H263.416C263.397 75.8606 263.379 75.6673 263.36 75.4002C263.342 75.124 263.314 74.811 263.287 74.4611C263.259 74.1112 263.232 73.7429 263.204 73.3746C263.176 72.9971 263.149 72.6473 263.121 72.3158C263.103 71.9843 263.075 71.7081 263.057 71.4963C263.038 71.2754 263.038 71.1373 263.038 71.1004C263.038 70.9071 263.103 70.7505 263.241 70.6309C263.379 70.502 263.545 70.4375 263.738 70.4375C263.931 70.4375 264.097 70.502 264.226 70.6309C264.364 70.7505 264.429 70.9071 264.429 71.1004C264.429 71.1465 264.429 71.2754 264.41 71.4963C264.392 71.7081 264.373 71.9843 264.346 72.3158C264.327 72.6473 264.3 72.9971 264.272 73.3746C264.244 73.7521 264.217 74.1112 264.189 74.4611C264.162 74.811 264.134 75.124 264.115 75.4002C264.097 75.6673 264.079 75.8606 264.06 75.9711H264.042Z" fill="#3A4F73"/>
<path d="M259.014 78.4828C258.443 78.4828 257.937 78.3631 257.495 78.1145C257.053 77.8659 256.712 77.5345 256.463 77.1017C256.215 76.669 256.086 76.1718 256.086 75.6101C256.086 75.0485 256.215 74.5605 256.463 74.137C256.712 73.7042 257.062 73.3728 257.495 73.1242C257.937 72.8756 258.443 72.7559 259.014 72.7559C259.585 72.7559 260.091 72.8756 260.533 73.1242C260.975 73.3728 261.325 73.7042 261.564 74.137C261.813 74.5697 261.942 75.0577 261.942 75.6101C261.942 76.1626 261.813 76.669 261.564 77.1017C261.325 77.5345 260.975 77.8659 260.533 78.1145C260.091 78.3631 259.585 78.4828 259.014 78.4828ZM259.014 77.47C259.355 77.47 259.649 77.3871 259.898 77.2306C260.146 77.0741 260.34 76.8531 260.478 76.5861C260.625 76.3099 260.69 75.9784 260.69 75.6193C260.69 75.2603 260.616 74.9472 260.478 74.671C260.34 74.3948 260.146 74.1738 259.898 74.0173C259.649 73.8607 259.355 73.7779 259.014 73.7779C258.673 73.7779 258.397 73.8607 258.139 74.0173C257.891 74.1738 257.688 74.3948 257.55 74.671C257.412 74.9472 257.347 75.2603 257.347 75.6193C257.347 75.9784 257.412 76.3099 257.55 76.5861C257.697 76.8623 257.891 77.0741 258.139 77.2306C258.388 77.3871 258.682 77.47 259.014 77.47Z" fill="#3A4F73"/>
<path d="M252.514 78.3087V73.3276H253.721V78.3087H252.514ZM250.627 73.9168V72.9316H255.599V73.9168H250.627Z" fill="#3A4F73"/>
<path d="M247.223 78.4834C246.735 78.4834 246.293 78.3913 245.888 78.2072C245.492 78.023 245.151 77.756 244.875 77.4245L245.63 76.6879C245.814 76.9458 246.026 77.1483 246.284 77.2956C246.551 77.4429 246.855 77.5074 247.186 77.5074C247.729 77.5074 248.153 77.3417 248.457 77.001C248.76 76.6603 248.908 76.2092 248.908 75.6291C248.908 75.049 248.751 74.5887 248.447 74.248C248.144 73.9073 247.729 73.7416 247.195 73.7416C246.845 73.7416 246.551 73.8153 246.293 73.9534C246.035 74.1007 245.814 74.294 245.648 74.5426L244.903 73.8245C245.179 73.4838 245.51 73.226 245.906 73.0418C246.302 72.8577 246.744 72.7656 247.241 72.7656C247.812 72.7656 248.309 72.8853 248.742 73.1339C249.184 73.3733 249.525 73.7048 249.764 74.1375C250.013 74.5611 250.142 75.0582 250.142 75.6291C250.142 76.2 250.022 76.6972 249.773 77.1391C249.525 77.5718 249.184 77.9033 248.751 78.1427C248.309 78.3821 247.803 78.5018 247.223 78.5018V78.4834ZM246.118 75.9974V75.1595H249.644V75.9974H246.118Z" fill="#3A4F73"/>
<path d="M236.264 78.3087V77.3051H236.65C236.844 77.3051 236.991 77.2591 237.083 77.167C237.184 77.0749 237.24 76.9092 237.258 76.679L237.608 72.9316H241.705V78.3087H240.499V73.125L241.365 73.9076H237.838L238.75 73.125L238.381 76.9184C238.335 77.434 238.188 77.8023 237.949 78.0049C237.709 78.2074 237.35 78.3087 236.862 78.3087H236.273H236.264Z" fill="#3A4F73"/>
<path d="M235.452 78.3079H234.338V77.2398L234.283 77.0096V74.9932C234.283 74.5881 234.154 74.2751 233.896 74.0541C233.639 73.8239 233.289 73.7134 232.838 73.7134C232.515 73.7134 232.211 73.7779 231.935 73.9068C231.659 74.0357 231.429 74.2198 231.226 74.45L230.536 73.695C230.83 73.4004 231.18 73.1702 231.567 73.0045C231.963 72.8387 232.396 72.7559 232.884 72.7559C233.39 72.7559 233.841 72.8479 234.219 73.0229C234.605 73.1978 234.909 73.4464 235.121 73.7779C235.333 74.1093 235.443 74.5053 235.443 74.9656V78.3079H235.452ZM232.432 78.4828C232.018 78.4828 231.659 78.4092 231.346 78.2526C231.033 78.1053 230.784 77.8935 230.609 77.6357C230.434 77.3779 230.352 77.0741 230.352 76.7334C230.352 76.3559 230.462 76.0429 230.674 75.7851C230.886 75.5181 231.189 75.3155 231.567 75.1774C231.954 75.0301 232.396 74.9656 232.902 74.9656H234.412V75.7943H233.012C232.589 75.7943 232.248 75.8679 231.981 76.0245C231.723 76.1718 231.595 76.402 231.595 76.6966C231.595 76.9636 231.696 77.1754 231.898 77.3319C232.101 77.4792 232.359 77.5621 232.681 77.5621C233.003 77.5621 233.27 77.4976 233.537 77.3687C233.795 77.2398 233.998 77.0649 234.154 76.8439C234.311 76.6137 234.403 76.3559 234.421 76.0613L234.808 76.2454C234.808 76.6874 234.707 77.0741 234.504 77.424C234.302 77.7646 234.025 78.0317 233.666 78.225C233.307 78.4092 232.893 78.5012 232.442 78.5012L232.432 78.4828Z" fill="#3A4F73"/>
<path d="M223.75 78.3087V77.3051H224.137C224.33 77.3051 224.477 77.2591 224.569 77.167C224.671 77.0749 224.726 76.9092 224.744 76.679L225.094 72.9316H229.192V78.3087H227.985V73.125L228.851 73.9076H225.324L226.245 73.125L225.877 76.9184C225.831 77.434 225.684 77.8023 225.444 78.0049C225.205 78.2074 224.846 78.3087 224.358 78.3087H223.768H223.75Z" fill="#3A4F73"/>
<path d="M222.278 76.6874L222.969 77.4424C222.693 77.7646 222.343 78.0225 221.928 78.2066C221.514 78.3907 221.045 78.4828 220.538 78.4828C219.94 78.4828 219.396 78.3631 218.936 78.1145C218.476 77.8659 218.117 77.5345 217.85 77.1017C217.592 76.669 217.463 76.181 217.463 75.6285C217.463 75.0761 217.592 74.5697 217.84 74.137C218.089 73.7042 218.439 73.3728 218.872 73.1242C219.314 72.8756 219.802 72.7559 220.345 72.7559C220.888 72.7559 221.348 72.8756 221.754 73.1242C222.159 73.3635 222.481 73.695 222.72 74.1185C222.96 74.5329 223.079 75.0209 223.079 75.5733V75.6378H221.882V75.5181C221.882 75.159 221.818 74.8459 221.68 74.5789C221.551 74.3027 221.367 74.1001 221.137 73.9528C220.906 73.8055 220.639 73.7226 220.326 73.7226C220.004 73.7226 219.719 73.8055 219.461 73.962C219.212 74.1093 219.028 74.3303 218.89 74.6065C218.752 74.8828 218.687 75.2142 218.687 75.6009C218.687 75.9876 218.77 76.3283 218.927 76.6137C219.093 76.8992 219.314 77.1201 219.599 77.2859C219.884 77.4332 220.216 77.5161 220.593 77.5161C221.275 77.5161 221.836 77.2398 222.288 76.6874H222.278ZM223.079 76.0061H218.292V75.1866H222.904L223.079 75.5825V76.0061Z" fill="#3A4F73"/>
<path d="M210.852 77.8029V77.3333H211.026C211.174 77.3333 211.294 77.3057 211.386 77.2504C211.478 77.186 211.551 77.0755 211.588 76.9282C211.634 76.7717 211.68 76.5507 211.708 76.2745L212.076 72.9414H216.1V77.6463H214.912V73.1348L215.75 73.9174H212.279L213.227 73.1348L212.84 76.3665C212.803 76.7256 212.73 77.011 212.629 77.2136C212.527 77.4254 212.371 77.5727 212.168 77.6648C211.966 77.7568 211.699 77.8029 211.349 77.8029H210.861H210.852ZM210.594 79.7548V77.3333H216.928V79.7548H215.796V77.6095L216.477 78.3093H211.303L211.735 77.6095V79.7548H210.594Z" fill="#3A4F73"/>
<path d="M209.223 76.6612L209.997 77.4162C209.729 77.7476 209.407 78.0054 209.011 78.1988C208.625 78.3829 208.183 78.475 207.676 78.475C207.124 78.475 206.627 78.3553 206.185 78.1067C205.752 77.8581 205.411 77.5174 205.163 77.0939C204.914 76.6612 204.785 76.164 204.785 75.6023C204.785 75.0407 204.914 74.5619 205.163 74.1383C205.411 73.7056 205.761 73.3741 206.194 73.1255C206.636 72.8769 207.142 72.748 207.704 72.748C208.192 72.748 208.625 72.8401 209.011 73.0243C209.398 73.2084 209.729 73.4754 209.997 73.8069L209.223 74.5619C209.067 74.3133 208.864 74.1199 208.625 73.9818C208.385 73.8345 208.1 73.7516 207.759 73.7516C207.418 73.7516 207.133 73.8345 206.875 73.991C206.617 74.1476 206.415 74.3685 206.277 74.6448C206.129 74.921 206.065 75.234 206.065 75.5931C206.065 75.9522 206.139 76.2744 206.277 76.5507C206.424 76.8269 206.627 77.0479 206.875 77.2044C207.133 77.3609 207.428 77.4438 207.759 77.4438C208.091 77.4438 208.385 77.3701 208.625 77.2136C208.864 77.0663 209.067 76.8729 209.223 76.6335V76.6612Z" fill="#3A4F73"/>
<path d="M200.024 78.3095V71.6618H198.182C197.74 71.6618 197.39 71.7723 197.142 71.9933C196.893 72.205 196.764 72.5089 196.764 72.8864C196.764 73.2639 196.893 73.5677 197.142 73.7887C197.39 74.0005 197.74 74.1109 198.182 74.1109H200.134V75.1698H198.182C197.648 75.1698 197.179 75.0777 196.773 74.8936C196.368 74.7002 196.055 74.4332 195.834 74.0833C195.613 73.7427 195.503 73.3375 195.503 72.8864C195.503 72.4352 195.613 72.0301 195.834 71.6894C196.055 71.3488 196.368 71.0817 196.773 70.8884C197.188 70.695 197.657 70.5938 198.182 70.5938H201.267V78.3003H200.024V78.3095ZM194.969 78.3095L197.565 74.7186H198.946L196.451 78.3095H194.978H194.969Z" fill="#3A4F73"/>
<path d="M270.183 68.8525C274.51 68.8525 278.019 65.3445 278.019 61.0171C278.019 56.6897 274.51 53.1816 270.183 53.1816C265.856 53.1816 262.348 56.6897 262.348 61.0171C262.348 65.3445 265.856 68.8525 270.183 68.8525Z" fill="#6683C2" stroke="white" stroke-width="1.71"/>
<path d="M269.862 56.8281H271.05V65.2897H269.696V58.2553L267.551 59.7929V58.4118L269.862 56.8281Z" fill="white"/>
<path d="M85.7695 256.986C83.9833 254.224 82.5378 251.158 82.4088 247.834C81.4421 247.871 80.3924 247.714 79.4993 248.165C78.8548 248.626 79.0482 249.5 79.085 250.182C79.4441 249.86 79.7756 249.519 80.1807 249.261C81.4881 249.243 82.105 251.066 81.4513 252.06C81.0093 252.364 80.4201 252.336 79.9137 252.456C80.0149 252.732 80.1162 253.018 80.2267 253.312C80.4109 253.81 80.6042 254.316 80.8252 254.804C81.3684 255.918 82.0221 256.949 82.7495 257.934C83.4401 257.649 85.88 260.015 87.3348 260.512C87.5465 260.586 86.0734 257.446 85.7695 256.995V256.986Z" fill="#F6A68B"/>
<path d="M79.0742 250.171C79.4333 249.849 79.7648 249.508 80.1699 249.25C81.4773 249.232 82.0942 251.064 81.4405 252.049C80.9985 252.353 80.4093 252.325 79.9029 252.445C79.6267 251.681 79.3412 250.926 79.0742 250.171Z" fill="#FCC4B5"/>
<defs>
<linearGradient id="paint0_linear_2003_7333" x1="190.329" y1="18.0562" x2="240.003" y2="95.1123" gradientUnits="userSpaceOnUse">
<stop stop-color="white"/>
<stop offset="1" stop-color="white" stop-opacity="0"/>
</linearGradient>
</defs>
</svg>
