<svg width="204" height="203" viewBox="0 0 204 203" fill="none" xmlns="http://www.w3.org/2000/svg">
<path d="M6.3184 198.208L7.72327 197.336L14.9719 197.46C14.9719 197.46 16.2587 199.062 16.2587 203.272H10.8636L6.3125 198.208H6.3184Z" fill="#CACACA"/>
<path d="M51.4029 104.155C51.4029 104.155 52.2352 115.508 51.7629 121.219C50.9188 131.359 49.8977 147.575 47.3713 157.673C47.3713 172.111 45.7716 183.935 46.3678 197.46C43.7174 197.531 41.7341 197.26 39.0896 197.336C38.157 187.75 35.9493 180.943 34.3615 170.468C33.8302 166.959 35.3532 161.495 36.4688 158.268C34.6448 152.02 32.6025 129.934 31.9709 125.788C30.9851 119.347 32.8209 113.111 33.9129 106.687L51.4029 104.155Z" fill="#263238"/>
<path d="M44.4735 108.506C39.2554 124.358 33.0044 146.45 25.0533 159.846C24.3981 174.278 17.7043 183.935 14.9713 197.46C12.3032 197.531 10.3848 197.26 7.72266 197.336C9.14523 187.75 11.6421 160.77 13.6668 157.461C14.5109 150.813 17.4032 125.912 17.8164 121.472C18.4126 115.031 20.1717 110.22 23.6071 106.693L44.4794 108.512L44.4735 108.506Z" fill="#37474F"/>
<path d="M51.8039 100.216C51.5088 100.781 51.5914 101.446 51.68 102.071L51.9987 104.296C52.0873 104.915 52.1935 105.574 52.6244 106.057C53.2265 106.728 54.3717 106.869 55.2217 106.481C56.0717 106.092 57.3231 104.691 57.4529 103.831C57.5887 102.971 56.6442 102.665 56.2429 101.882C55.8651 101.152 55.2158 99.9037 54.4189 99.468C53.5689 99.0028 52.2171 99.4268 51.8039 100.222V100.216Z" fill="#FFCCBC"/>
<path d="M54.9073 97.1833C55.6451 92.3844 57.351 90.5885 59.3639 86.1606C55.9107 83.0104 52.3277 78.3999 49.459 74.708C47.2749 71.8934 45.2385 68.8551 44.3767 65.4046C43.5149 61.9541 44.0107 57.9913 46.4131 55.3593C55.9048 62.9904 62.7639 71.5401 67.8521 82.7866C69.8 87.0909 67.1733 92.4198 65.1427 96.6887C64.3872 98.2786 63.4486 99.833 62.0733 100.934C60.6979 102.035 59.5469 102.506 57.8528 102.006C56.1587 101.505 54.6475 98.9263 54.9132 97.1892L54.9073 97.1833Z" fill="#6683C2"/>
<path d="M29.188 52.9451C24.8081 53.5575 23.598 54.164 19.8261 56.4604C19.1532 56.8725 16.4733 58.7627 16.4143 59.5458C15.7886 67.3006 18.1143 74.9965 20.1272 82.5511C21.355 87.1557 22.3702 99.8625 18.9053 113.217C27.7123 116.797 43.1127 119.706 51.9079 116.102C54.145 100.934 56.2582 82.0565 52.4745 63.7147C51.4592 58.8039 47.5634 55.006 42.5696 54.4466L29.188 52.9392V52.9451Z" fill="#6683C2"/>
<path d="M27.978 43.6359C28.769 47.0216 29.1054 50.5074 28.9815 53.9756C28.645 53.6812 27.5648 54.1169 27.3641 54.5114C27.1634 54.9118 27.2815 55.4123 27.5589 55.7715C27.8304 56.1248 28.2318 56.3603 28.6273 56.5664C31.4784 58.0561 34.8135 58.6155 38.001 58.1327C38.5853 58.0444 39.1815 57.9148 39.6774 57.6027C40.1732 57.2848 40.5687 56.749 40.5628 56.1601C40.5569 55.5242 40.0847 54.9648 39.518 54.6645C38.9513 54.3642 38.302 54.2759 37.6704 54.1935C37.4874 51.6085 37.0447 49.2061 36.8617 46.6271L27.9839 43.6359H27.978Z" fill="#FFCCBC"/>
<path d="M35.0993 52.8745C35.9316 53.3161 36.7816 53.7106 37.6434 54.0521C37.4546 51.5261 37.0296 49.159 36.8466 46.6271L27.9688 43.6359C28.1104 44.2306 28.2285 44.8253 28.3406 45.4259C28.6653 47.1982 29.6392 48.7881 31.0264 49.9422C32.3132 51.0079 33.6 52.0737 35.0934 52.8745H35.0993Z" fill="#FFAB91"/>
<path d="M25.9534 40.356C24.4304 38.5307 23.7575 36.0223 24.1648 33.6787C23.6099 33.5021 23.0669 33.0487 22.8898 32.4893C22.7127 31.9358 22.8249 31.2999 23.179 30.8347C22.1283 30.8877 21.1367 30.1399 20.812 29.1448C20.4874 28.1497 20.8002 27.0015 21.5027 26.2301C22.2051 25.4529 23.2558 25.0348 24.3065 24.9877C24.3419 22.5735 25.487 20.177 27.4291 18.7344C27.919 18.3694 28.4621 18.0632 29.0641 17.969C29.6662 17.8806 30.3332 18.0514 30.7228 18.5166C31.1124 18.9817 31.1301 19.759 30.6756 20.1594C33.4794 17.9042 36.9621 16.6794 40.551 16.3909C41.2357 16.3379 41.9441 16.3202 42.5934 16.5499C43.2427 16.7736 43.833 17.2859 43.9805 17.9572C44.1281 18.6284 43.709 19.4233 43.0302 19.5352C44.7243 19.0465 46.5128 19.1172 48.1066 19.865C49.7003 20.6128 50.9104 22.3145 50.7156 24.0633C50.5621 25.4529 49.6 26.6129 48.567 27.555C47.4337 28.5795 46.1646 29.451 44.7951 30.134C43.5142 30.7759 44.0986 36.034 42.6937 36.3285L25.9652 40.3619L25.9534 40.356Z" fill="#263238"/>
<path d="M42.2452 28.762C42.6879 28.8916 43.0067 29.2802 43.0539 29.7395C43.6914 35.4216 44.2286 40.1911 42.7883 45.7143C42.257 47.7575 41.2536 49.9361 39.282 50.6839C37.3636 51.4082 35.2209 50.5191 33.4914 49.418C31.2601 47.9989 29.2709 46.2089 27.6299 44.1362C26.2191 44.4777 25.1448 43.9596 24.3774 42.7348C23.7045 41.6632 23.433 40.2147 24.1236 39.1548C24.8143 38.0949 26.6795 37.9124 27.2757 39.0311C27.2521 36.6935 28.2202 35.4099 29.4066 33.3961C29.0171 31.9947 28.7219 30.3813 29.749 29.3509C30.0677 29.0329 30.475 28.8327 30.8823 28.6502C33.8219 27.3665 38.9279 27.7846 42.2452 28.7679V28.762Z" fill="#FFCCBC"/>
<path d="M36.1907 33.0488C34.5261 32.2009 32.6431 32.4011 31.1792 33.5434C30.7424 33.8849 31.3563 34.4973 31.7931 34.1558C32.9324 33.2667 34.4671 33.143 35.748 33.7966C36.2438 34.0498 36.6865 33.302 36.1848 33.0488H36.1907Z" fill="#37474F"/>
<path d="M43.5603 32.8957C42.3857 31.9771 40.6502 32.0654 39.6645 33.2254C39.3221 33.6258 39.9065 34.2146 40.2489 33.8083C40.9159 33.0193 42.1378 32.8191 42.9759 33.4786C43.3891 33.8025 43.9794 33.2254 43.5603 32.8957Z" fill="#37474F"/>
<path d="M34.7305 35.0036C34.6892 34.4501 33.8214 34.4443 33.8628 35.0036C33.9041 35.5571 33.9454 36.1047 33.9867 36.6582C34.028 37.2117 34.8957 37.2176 34.8544 36.6582C34.8131 36.1047 34.7718 35.5571 34.7305 35.0036Z" fill="#37474F"/>
<path d="M42.5586 34.6681C42.5173 34.1146 41.6496 34.1087 41.6909 34.6681C41.7322 35.2216 41.7735 35.7692 41.8148 36.3227C41.8562 36.8762 42.7239 36.882 42.6826 36.3227C42.6412 35.7692 42.5999 35.2216 42.5586 34.6681Z" fill="#37474F"/>
<path d="M37.3448 44.5543C36.241 44.4306 35.2847 43.8771 34.5823 43.0292C34.2222 42.5994 33.6142 43.2176 33.9684 43.6416C34.8302 44.672 36.0167 45.2726 37.3448 45.4198C37.8996 45.4846 37.8937 44.6131 37.3448 44.5543Z" fill="#37474F"/>
<path d="M36.3558 46.6446C35.8128 46.6269 35.2933 46.5033 34.8034 46.2619C34.3017 46.0146 33.8649 46.7624 34.3666 47.0097C34.9923 47.3217 35.6593 47.4925 36.3558 47.5102C36.9166 47.5278 36.9166 46.6623 36.3558 46.6446Z" fill="#FFAB91"/>
<path d="M40.3412 40.4856C39.863 40.9566 39.255 41.1509 38.588 41.0921C38.0332 41.0391 38.0332 41.9046 38.588 41.9576C39.4734 42.0401 40.3234 41.7162 40.955 41.0979C41.3564 40.7093 40.7425 40.0969 40.3412 40.4856Z" fill="#FFAB91"/>
<path d="M26.9051 41.8281C26.1259 41.7339 26.1672 40.7741 26.7752 40.4856C27.277 40.2442 26.8401 39.4964 26.3384 39.7378C25.7068 40.0381 25.3231 40.7506 25.4589 41.4395C25.5947 42.1579 26.2144 42.6054 26.9051 42.6937C27.4599 42.7644 27.454 41.8988 26.9051 41.8281Z" fill="#FFAB91"/>
<path d="M38.5266 51.2022C38.2551 51.3906 38.0071 51.632 37.9009 51.9441C37.7946 52.2562 37.8832 52.6507 38.1665 52.8156C38.4794 52.9981 38.8689 52.8509 39.2172 52.7449H39.2349C39.8193 52.5683 40.4096 52.7744 40.7697 53.1865L42.7117 51.1257C41.4662 50.3307 39.7367 50.3543 38.5266 51.2081V51.2022Z" fill="#FFCCBC"/>
<path d="M46.8296 46.8337L45.9491 45.8816C45.8629 45.7883 45.7172 45.7825 45.6238 45.8685L38.5125 52.412C38.4191 52.498 38.4132 52.6433 38.4994 52.7365L39.3799 53.6887C39.4661 53.7819 39.6118 53.7878 39.7052 53.7018L46.8164 47.1582C46.9099 47.0722 46.9158 46.927 46.8296 46.8337Z" fill="#E65100"/>
<path d="M46.7552 46.7381L46.0547 45.9808L38.6062 52.8371L39.3068 53.5944L46.7552 46.7381Z" fill="#F09563"/>
<path d="M47.5717 45.2786L46.8457 45.4552L47.3356 45.9852L47.5717 45.2786Z" fill="#F37E60"/>
<path d="M46.8475 45.4552L45.8027 45.7143L46.9951 47.0038L47.3375 45.9851L46.8475 45.4552Z" fill="#FFE0B2"/>
<path d="M49.4348 52.951C48.9272 51.32 47.5223 49.8715 45.8755 49.4357C45.4623 49.3239 45.2143 48.9058 45.2734 48.4818C45.48 46.9215 45.5862 45.3611 45.7928 43.8007C45.8577 43.3237 45.3206 43.0176 44.9369 43.3061C44.7362 43.4533 44.565 43.6476 44.4352 43.8537C44.1164 44.3601 43.9984 44.9607 43.8862 45.5436C43.5143 47.4455 43.1897 49.2826 42.8178 51.1845C42.7824 51.161 42.747 51.1433 42.7116 51.1198L40.7695 53.1806C40.982 53.4221 41.1119 53.74 41.1178 54.0933C41.1296 55.0472 41.224 55.9893 41.5369 56.8843C42.0622 58.3917 43.355 59.7519 44.9546 59.852C46.1588 59.9286 47.3216 59.2808 48.1421 58.3917C49.4703 56.955 50.0251 54.8117 49.4408 52.9451L49.4348 52.951Z" fill="#FFCCBC"/>
<path d="M47.3656 64.3918C46.3621 70.651 45.3528 76.9514 43.3458 82.9868C41.4392 88.7161 36.8763 99.1324 28.9194 95.941C23.2232 93.6563 20.9565 85.0654 19.6106 79.7365C18.011 73.4008 17.3971 66.8825 16.8009 60.3937C16.7419 59.7578 15.7384 59.7519 15.7974 60.3937C16.494 67.966 17.1964 75.6325 19.4631 82.9339C21.0509 88.0566 23.6659 95.8526 29.6513 97.2481C36.0381 98.7379 40.477 92.6671 42.667 87.6091C45.8132 80.3313 47.0823 72.441 48.3337 64.6686C48.434 64.0385 47.4719 63.7677 47.3656 64.4036V64.3918Z" fill="#536B91"/>
<path d="M39.8138 62.9315C35.2863 70.333 31.1071 80.2311 29.4484 88.7396C29.3245 89.3696 30.2925 89.6346 30.4165 89.0046C32.0575 80.5785 36.1953 70.7628 40.6815 63.432C41.0179 62.8844 40.1502 62.378 39.8138 62.9256V62.9315Z" fill="#536B91"/>
<path d="M29.0671 67.8777C28.8605 67.2712 27.8925 67.5303 28.099 68.1427C29.6338 72.6177 30.6845 77.1811 31.2334 81.8799C31.3102 82.51 32.3077 82.5158 32.2369 81.8799C31.6761 77.0987 30.6314 72.4352 29.0671 67.8777Z" fill="#536B91"/>
<path d="M42.2782 57.7086C42.1779 59.8637 41.0977 63.4261 41.0977 63.4261C42.6855 64.6626 45.088 65.1631 47.0123 64.5743C47.1303 62.4487 47.1775 60.3701 47.2956 58.2445L42.2782 57.7028V57.7086Z" fill="#FFCCBC"/>
<path d="M53.6758 101.105C54.4727 100.11 55.3935 97.3953 56.1904 96.4002C56.6095 95.882 58.2505 96.1941 58.7463 96.3766C60.523 97.0302 61.0248 99.0322 60.6057 100.775C60.405 101.623 59.8265 102.341 59.0709 102.777C57.4418 103.713 55.24 105.568 53.8647 106.098L53.6758 101.105Z" fill="#FFCCBC"/>
<path d="M52.9494 67.2122C52.8136 66.435 51.8455 66.7647 51.9813 67.542C54.8205 83.4402 54.4487 99.8625 50.9129 115.543C50.7417 116.308 51.7039 116.638 51.8809 115.873C55.4699 99.9802 55.8299 83.3224 52.9494 67.2122Z" fill="#536B91"/>
<path d="M54.169 99.5799C52.9235 99.5622 51.7075 99.7742 50.5447 100.222C49.6534 100.563 50.037 102.012 50.9461 101.67C51.9909 101.27 53.0534 101.07 54.1749 101.087C55.143 101.099 55.143 99.5975 54.1749 99.5858L54.169 99.5799Z" fill="#FFCCBC"/>
<path d="M54.5167 101.405C53.2712 101.388 52.0552 101.6 50.8923 102.047C50.001 102.389 50.3847 103.837 51.2937 103.49C52.3385 103.089 53.401 102.889 54.5226 102.907C55.4906 102.918 55.4906 101.417 54.5226 101.405H54.5167Z" fill="#FFCCBC"/>
<path d="M55.0049 103.319C53.7595 103.301 52.5435 103.513 51.3806 103.955C50.4893 104.296 50.873 105.745 51.782 105.397C52.8268 104.997 53.8893 104.797 55.0109 104.814C55.9789 104.826 55.9789 103.325 55.0109 103.313L55.0049 103.319Z" fill="#FFCCBC"/>
<path d="M55.1034 105.103C54.0231 105.091 52.9665 105.268 51.9572 105.656C51.1839 105.951 51.5204 107.211 52.3054 106.911C53.2145 106.563 54.1294 106.392 55.1034 106.404C55.9416 106.416 55.9416 105.115 55.1034 105.103Z" fill="#FFCCBC"/>
<path d="M11.6263 203.272C11.6145 200.31 9.20021 197.913 6.2311 197.913C3.25609 197.913 0.847743 200.31 0.835938 203.272H11.6263Z" fill="#E6E6E6"/>
<path d="M57.4036 203.272C57.3918 200.31 54.9776 197.913 52.0084 197.913C49.0334 197.913 46.6251 200.31 46.6133 203.272H57.4036Z" fill="#E6E6E6"/>
<path d="M52.0156 197.913L46.3667 197.46L39.0885 197.336C39.0885 197.336 37.9434 200.11 37.9434 203.272H50.1504L52.0156 197.913Z" fill="#CACACA"/>
<path d="M40.1716 113.052C33.8084 111.109 28.2243 107.529 23.8031 102.571C23.3958 102.112 22.7229 102.789 23.1302 103.242C27.6577 108.318 33.407 111.98 39.9178 113.971C40.5022 114.147 40.756 113.235 40.1716 113.058V113.052Z" fill="#536B91"/>
<path d="M51.1853 115.949C45.9613 118.234 40.1943 117.663 34.7224 116.732C29.3567 115.82 24.0914 114.418 18.9206 112.728C18.3362 112.54 18.0883 113.452 18.6668 113.641C24.664 115.602 30.8029 117.186 37.0599 118.051C42.0183 118.74 47.0061 118.811 51.6634 116.768C52.2242 116.52 51.7402 115.702 51.1853 115.949Z" fill="#536B91"/>
<path d="M64.6549 84.3588C63.008 84.1763 61.4024 84.5708 60.0271 85.4835C59.5194 85.8191 59.9976 86.6435 60.5052 86.302C61.7625 85.4658 63.1497 85.1361 64.649 85.3069C65.257 85.3775 65.2511 84.4236 64.649 84.3588H64.6549Z" fill="#536B91"/>
<path d="M31.3888 70.121C30.9638 71.493 30.5388 72.859 30.1138 74.231C29.9308 74.8139 30.8516 75.0671 31.0287 74.4842C31.4537 73.1122 31.8787 71.7462 32.3037 70.3742C32.4867 69.7913 31.5659 69.5381 31.3888 70.121Z" fill="#536B91"/>
<path d="M54.2686 70.3861C53.9616 71.7404 53.6488 73.1005 53.3418 74.4548C53.2061 75.0496 54.121 75.3027 54.2568 74.708L55.1835 70.6393C55.3193 70.0446 54.4043 69.7914 54.2686 70.3861Z" fill="#536B91"/>
<path d="M47.9464 107.293C44.3339 109.207 40.261 109.384 36.5068 107.747C35.9519 107.505 35.4679 108.324 36.0287 108.565C40.1075 110.344 44.4933 110.196 48.4304 108.112C48.9735 107.823 48.4895 107.005 47.9523 107.293H47.9464Z" fill="#536B91"/>
<path d="M24.8197 156.501C22.2224 158.639 19.6252 160.77 17.0221 162.908C16.5498 163.296 17.2227 163.962 17.695 163.579C20.2922 161.442 22.8894 159.31 25.4926 157.173C25.9648 156.784 25.2919 156.119 24.8197 156.501Z" fill="#263238"/>
<path d="M18.8955 164.121C18.5236 164.492 18.1518 164.863 17.7799 165.234C17.349 165.663 18.016 166.335 18.4528 165.905C18.8247 165.534 19.1966 165.163 19.5684 164.792C19.9993 164.362 19.3323 163.691 18.8955 164.121Z" fill="#263238"/>
<path d="M14.4362 194.098L10.4518 194.516C9.84974 194.581 9.84384 195.529 10.4518 195.464L14.4362 195.046C15.0383 194.981 15.0442 194.033 14.4362 194.098Z" fill="#263238"/>
<path d="M14.6286 192.832L12.8695 193.15C12.2675 193.262 12.5213 194.174 13.1234 194.062C13.7077 193.956 14.2921 193.85 14.8824 193.744C15.4845 193.633 15.2307 192.72 14.6286 192.832Z" fill="#263238"/>
<path d="M175.964 11.0798H156.16L151.037 0.528076H134.521L130.129 11.0798H108.896L109.386 25.188L109.499 28.3853H177.989L175.964 11.0798ZM140.683 5.40353C141.126 4.90892 141.799 4.69106 142.448 4.66161C143.08 4.63217 143.812 4.96191 144.266 5.40353C144.744 5.86281 145.051 6.54585 145.069 7.19355V7.3702C145.098 8.05324 144.833 8.66561 144.396 9.16022C143.953 9.65483 143.28 9.8727 142.631 9.90214C141.999 9.93158 141.267 9.60184 140.813 9.16022C140.335 8.70094 140.028 8.01791 140.01 7.3702V7.19355C139.981 6.51052 140.246 5.89814 140.683 5.40353Z" fill="#5D73A3"/>
<path d="M81.9547 18.5696L58.373 195.47L60.5984 197.684H181.948L195.318 85.5541L203.305 18.5696L201.079 16.3556L81.9547 18.5696Z" fill="#546E7A"/>
<path d="M64.1794 146.839L58.3828 195.47H179.733L193.102 83.3402C149.794 100.357 108.197 120.754 65.7613 145.914C65.2301 146.215 64.7047 146.521 64.1794 146.839Z" fill="#5D73A3"/>
<path d="M79.7375 16.3556L64.1777 146.839C64.6972 146.521 65.2225 146.215 65.7597 145.914C108.195 120.754 149.792 100.357 193.101 83.3401L201.087 16.3556H79.7375Z" fill="#85A2E0"/>
<path d="M173.181 188.61H66.5645L86.2857 23.2095H192.902L173.181 188.61Z" fill="white"/>
<path d="M154.053 11.0798L150.553 0.528076H134.037L128.022 11.0798H106.79L105.107 25.188C128.441 18.1751 151.828 14.5008 175.168 12.0042L175.28 11.0798H154.048H154.053ZM143.546 7.3702C143.464 8.05323 143.104 8.66561 142.59 9.16022C142.077 9.65483 141.368 9.8727 140.707 9.90214C140.07 9.93158 139.391 9.60184 139.001 9.16022C138.594 8.70094 138.393 8.0179 138.47 7.3702L138.494 7.19355C138.576 6.51052 138.936 5.89814 139.45 5.40353C139.963 4.90892 140.672 4.69105 141.333 4.66161C141.97 4.63217 142.649 4.96191 143.039 5.40353C143.446 5.86281 143.647 6.54585 143.57 7.19355L143.546 7.3702Z" fill="#CFD8DC"/>
<path d="M105.11 25.188L104.727 28.3853H173.217L175.171 12.0043C151.831 14.5068 128.444 18.1751 105.11 25.188Z" fill="#B0BEC5"/>
<path d="M157.746 41.7576H91.481C90.0584 41.7576 90.0584 43.9598 91.481 43.9598H157.746C159.168 43.9598 159.168 41.7576 157.746 41.7576Z" fill="#5D73A3"/>
<path d="M184.465 48.5821L185.699 38.2188C185.817 37.206 185.026 36.311 184.005 36.311H169.566C168.699 36.311 167.973 36.9587 167.872 37.8125L166.639 48.1758C166.521 49.1886 167.312 50.0836 168.333 50.0836H182.771C183.639 50.0836 184.365 49.4359 184.465 48.5821Z" fill="white" stroke="#5D73A3" stroke-miterlimit="10"/>
<path d="M154.113 73.3773H87.8482C86.4256 73.3773 86.4256 75.5795 87.8482 75.5795H154.113C155.536 75.5795 155.536 73.3773 154.113 73.3773Z" fill="#5D73A3"/>
<path d="M180.826 80.2019L182.06 69.8386C182.178 68.8258 181.387 67.9308 180.366 67.9308H165.928C165.06 67.9308 164.334 68.5785 164.234 69.4323L163 79.7956C162.882 80.8084 163.673 81.7034 164.694 81.7034H179.132C180 81.7034 180.726 81.0557 180.826 80.2019Z" fill="white" stroke="#5D73A3" stroke-miterlimit="10"/>
<path d="M150.478 105.003H84.2134C82.7908 105.003 82.7908 107.205 84.2134 107.205H150.478C151.901 107.205 151.901 105.003 150.478 105.003Z" fill="#5D73A3"/>
<path d="M177.198 111.822L178.431 101.458C178.549 100.446 177.758 99.5505 176.737 99.5505H162.299C161.431 99.5505 160.705 100.198 160.605 101.052L159.371 111.415C159.253 112.428 160.044 113.323 161.065 113.323H175.503C176.371 113.323 177.097 112.675 177.198 111.822Z" fill="white" stroke="#5D73A3" stroke-miterlimit="10"/>
<path d="M146.842 136.623H80.5767C79.1541 136.623 79.1541 138.825 80.5767 138.825H146.842C148.264 138.825 148.264 136.623 146.842 136.623Z" fill="#5D73A3"/>
<path d="M173.561 143.441L174.795 133.078C174.913 132.065 174.122 131.17 173.1 131.17H158.662C157.794 131.17 157.068 131.818 156.968 132.672L155.734 143.035C155.616 144.048 156.407 144.943 157.428 144.943H171.867C172.734 144.943 173.46 144.295 173.561 143.441Z" fill="white" stroke="#5D73A3" stroke-miterlimit="10"/>
<path d="M143.215 168.243H76.9497C75.5272 168.243 75.5272 170.445 76.9497 170.445H143.215C144.637 170.445 144.637 168.243 143.215 168.243Z" fill="#5D73A3"/>
<path d="M169.926 175.061L171.16 164.698C171.278 163.685 170.487 162.79 169.466 162.79H155.027C154.16 162.79 153.434 163.438 153.333 164.292L152.1 174.655C151.982 175.668 152.773 176.563 153.794 176.563H168.232C169.1 176.563 169.826 175.915 169.926 175.061Z" fill="white" stroke="#5D73A3" stroke-miterlimit="10"/>
<path d="M183.375 32.4952C181.445 35.0271 179.515 37.5591 177.584 40.091C176.758 41.1745 175.985 42.517 175.011 43.465C174.232 44.2246 174.232 44.6308 173.116 44.0479C172.49 43.7241 171.723 42.7289 171.239 42.2697C170.206 41.2922 168.642 42.8467 169.675 43.83C171.788 45.832 173.588 48.8056 175.949 45.8438C179.149 41.8398 182.177 37.6827 185.282 33.6081C186.143 32.4775 184.225 31.3823 183.375 32.4952Z" fill="#F37E60"/>
<path d="M177.133 94.6515C175.203 97.1834 173.272 99.7153 171.342 102.247C170.516 103.331 169.743 104.673 168.769 105.621C167.989 106.381 167.989 106.787 166.874 106.204C166.248 105.88 165.481 104.885 164.997 104.426C163.964 103.448 162.399 105.003 163.432 105.986C165.546 107.988 167.346 110.962 169.707 108C172.906 103.996 175.935 99.839 179.039 95.7643C179.901 94.6338 177.983 93.5386 177.133 94.6515Z" fill="#F37E60"/>
</svg>
