<svg width="371" height="264" viewBox="0 0 371 264" fill="none" xmlns="http://www.w3.org/2000/svg">
<path fill-rule="evenodd" clip-rule="evenodd" d="M196.818 262.2C242.053 262.2 283.675 262.871 316.704 264C397.534 218.091 369.54 128.583 340.523 77.9668C300.128 7.50285 204.697 -17.8154 165.202 38.4033C111.618 114.704 59.9274 88.0738 32.0152 146.021C4.10294 203.968 46.4931 259.516 76.953 264C109.981 262.871 151.604 262.2 196.828 262.2H196.818Z" fill="#B9E9F8"/>
<g clip-path="url(#clip0_2060_296)">
<path d="M259.908 175.145C257.402 173.918 255.538 177.894 258.571 179.057C261.604 180.22 263.324 180.979 264.279 180.979C265.234 180.979 266.108 178.501 265.292 177.685C264.476 176.869 261.639 175.99 259.908 175.145Z" fill="#F1BBA2"/>
<path d="M140.979 142.723C145.228 142.723 146.345 148.181 151.648 149.94C158.224 152.122 166.768 148.673 168.973 143.047C171.839 135.737 166.415 131.929 167.648 119.781C168.464 111.731 162.982 112.443 158.288 104.606C153.593 96.7642 154.849 95.9135 148.482 88.708C142.114 81.5026 131.474 80.484 123.48 81.7514C115.486 83.0189 111.503 84.4831 105.246 88.7833C98.9881 93.0834 101.819 97.6902 97.7957 100.729C93.7725 103.761 91.978 107.286 90.7624 113.317C88.4238 124.892 96.2848 130.488 92.7537 134.487C89.2226 138.486 82.0562 156.41 100.597 155.328C107.15 154.946 113.02 157.099 116.233 152.128C120.962 144.812 123.324 149.68 129.801 146.473C136.285 143.261 140.974 142.735 140.974 142.735L140.979 142.723Z" fill="#363537"/>
<path d="M93.4629 146.682C109.075 133.978 110.557 146.682 148.01 144.199C152.629 143.892 173.654 148.123 177.712 150.617C198.285 163.251 214.366 245.99 214.366 245.99L95.2342 244.676L93.4629 146.682Z" fill="#F3C55C"/>
<path d="M123.323 140.906C123.051 146.149 118.275 141.189 118.275 147.833C118.275 153.603 124.736 162.823 143.022 159.9C154.652 158.043 158.148 148.117 151.236 145.223C147.323 143.585 145.476 137.005 145.476 137.005L123.323 140.9V140.906Z" fill="#F1BBA2"/>
<path d="M148.115 110.845C151.71 125.245 151.571 146.161 135.166 147.417C115.096 148.956 93.0009 109.578 109.105 95.1206C125.209 80.6633 143.021 90.4558 148.115 110.845Z" fill="#F1BBA2"/>
<path d="M116.291 105.891C113.93 110.446 113.762 111.262 111.145 113.878C108.529 116.494 108.772 123.271 110.022 127.137C115.979 145.57 110.879 136.669 109.698 137.85C108.517 139.03 103.626 126.992 102.954 126.321C102.277 125.644 96.9688 106.342 96.9688 104.317C96.9688 102.291 109.756 90.0795 111.302 88.5284C112.853 86.9774 126.815 84.0836 130.781 84.0836C134.746 84.0836 142.671 83.5801 144.361 86.2771C146.045 88.9741 157.009 111.569 157.009 111.569C157.009 111.569 163.585 122.096 159.139 121.801C153.449 121.419 152.378 120.273 150.919 116.945C149.356 113.368 147.875 105.335 140.037 107.992C126.786 112.477 116.291 105.903 116.291 105.903V105.891Z" fill="#363537"/>
<path d="M61.886 253.994C56.8093 222.388 82.0191 149.674 98.3838 143.053C109.915 138.382 118.8 142.057 120.942 154.819C123.084 167.58 103.588 227.713 103.588 227.713C103.588 227.713 160.763 212.005 165.828 227.713C170.887 243.42 168.358 254.549 168.358 254.549L61.8918 253.994H61.886Z" fill="#F3C55C"/>
<path d="M114.745 229.316C109.506 229.316 104.852 229.2 101.332 229.107C99.6362 229.067 98.1658 229.026 96.9676 229.009C96.4466 229.003 96.0125 228.766 95.7404 228.349C94.4321 226.329 97.2802 219.437 102.866 206.397C108.58 193.051 115.688 176.441 115.688 167.43C115.688 167.036 116.007 166.718 116.4 166.718C116.794 166.718 117.112 167.036 117.112 167.43C117.112 176.736 109.94 193.491 104.175 206.959C101.876 212.324 99.7114 217.388 98.3511 221.161C96.4061 226.561 96.8229 227.446 96.9386 227.58C96.9386 227.58 96.956 227.58 96.985 227.58C98.189 227.597 99.6651 227.632 101.367 227.678C109.182 227.875 120.985 228.176 133.13 227.279C133.523 227.25 133.865 227.545 133.894 227.938C133.923 228.332 133.627 228.673 133.234 228.702C126.86 229.171 120.458 229.31 114.745 229.31V229.316Z" fill="#C99565"/>
<path d="M123.508 125.175C123.381 125.997 124.244 128.48 126.084 127.912C127.3 127.536 127.097 124.434 125.668 123.867C124.504 123.41 123.636 124.353 123.508 125.175Z" fill="#372313"/>
<path d="M138.596 120.568C138.382 121.373 139.14 123.919 141.027 123.543C142.277 123.3 142.237 120.209 140.882 119.498C139.777 118.913 138.81 119.764 138.596 120.568Z" fill="#372313"/>
<path d="M131.562 138.978C132.564 140.136 134.966 141.496 138.659 140.246C142.353 138.996 141.93 135.274 141.93 135.274C138.596 137.381 135.418 138.394 131.562 138.973V138.978Z" fill="#E66C40"/>
<path d="M135.891 117.727C136.632 117.727 138.977 116.083 141.205 116.442C143.434 116.801 143.353 116.494 142.82 115.956C142.282 115.417 140.771 114.862 137.946 115.226C134.519 115.672 135.249 117.727 135.891 117.727Z" fill="#363537"/>
<path d="M126.067 120.088C126.107 119.376 124.579 119.202 123.473 119.492C121.957 119.891 119.641 122.102 119.259 123.688C119.056 124.515 119.641 124.921 120.492 123.757C121.499 122.386 122.292 121.552 123.572 121.355C124.602 121.193 126.038 120.649 126.067 120.094V120.088Z" fill="#363537"/>
<path d="M113.295 127.398C115.101 129.944 117.59 134.95 115.738 136.264C113.885 137.578 108.392 134.707 106.586 132.161C104.78 129.614 104.814 126.483 106.667 125.169C108.519 123.856 111.489 124.851 113.295 127.398Z" fill="#F1BBA2"/>
<path d="M135.48 149.176C131.839 149.176 128.817 147.961 128.649 147.891C128.412 147.793 128.296 147.521 128.395 147.283C128.493 147.046 128.765 146.93 129.002 147.029C129.054 147.052 134.311 149.159 139.104 147.758C139.353 147.689 139.607 147.827 139.682 148.076C139.752 148.325 139.613 148.58 139.364 148.655C138.056 149.037 136.73 149.182 135.48 149.182V149.176Z" fill="#C99565"/>
<path d="M115.243 137.011C116.557 138.324 122.641 144.28 128.829 147.463C130.623 148.389 129.715 154.547 129.558 155.467C128.377 162.47 120.875 160.959 116.395 158.72C111.584 156.312 116.088 140.964 109.281 140.501C101.564 139.974 98.4962 143.388 97.3732 143.093C95.1735 142.509 99.1156 139.094 104.482 137.479C108.783 136.189 114.456 136.507 115.243 137.011Z" fill="#363537"/>
<path d="M118.501 89.6804C115.583 89.2 114.159 92.713 112.793 94.6403C112.521 95.0223 113.152 95.5084 113.441 95.1438C114.715 93.558 115.879 90.207 118.385 90.5138C118.854 90.5717 118.97 89.7614 118.495 89.6804H118.501Z" fill="#352D27"/>
<path d="M119.82 92.684C117.852 92.8634 116.7 94.3855 115.559 95.8266C115.229 96.2433 115.808 96.8336 116.15 96.4169C117.128 95.2073 118.153 93.7315 119.825 93.529C120.352 93.4653 120.375 92.6319 119.825 92.684H119.82Z" fill="#352D27"/>
<path d="M105.712 110.423C104.034 112.437 102.893 115.007 102.424 117.588C102.326 118.114 103.131 118.346 103.241 117.814C103.727 115.394 104.757 112.952 106.303 111.013C106.633 110.602 106.06 110.012 105.712 110.423Z" fill="#352D27"/>
<path d="M125.159 151.341C125.199 150.791 124.36 150.803 124.308 151.341C124.204 152.51 124.43 153.685 124.372 154.86C124.343 155.386 124.279 156 123.949 156.434C123.526 156.99 122.832 156.99 122.195 156.943C121.639 156.903 121.668 157.725 122.195 157.794C126.097 158.28 124.997 153.685 125.159 151.341Z" fill="#352D27"/>
<path d="M164.235 124.689C163.755 123.694 163.129 122.779 162.545 121.847C162.163 121.234 161.474 120.372 161.509 119.608C161.532 119.075 160.71 119.075 160.681 119.608C160.64 120.25 160.999 120.892 161.306 121.431C161.787 122.281 162.342 123.092 162.84 123.931C163.292 124.683 163.801 125.511 163.946 126.396C164.096 127.317 163.558 127.704 162.73 127.93C162.198 128.075 162.423 128.862 162.956 128.752C163.801 128.572 164.6 128.098 164.797 127.201C164.982 126.35 164.606 125.447 164.241 124.695L164.235 124.689Z" fill="#352D27"/>
<path d="M164.281 134.892C163.801 134.354 163.193 134.094 162.556 133.793C161.786 133.422 161.393 133.058 161.503 132.143C161.555 131.686 160.75 131.57 160.687 132.033C160.496 133.393 161.167 134.076 162.336 134.62C162.915 134.887 163.865 135.292 164.009 136.009C164.119 136.576 163.181 137.034 162.852 137.398C162.487 137.803 163.054 138.382 163.454 138C163.893 137.578 164.53 137.225 164.785 136.646C165.069 136.004 164.715 135.378 164.287 134.898L164.281 134.892Z" fill="#352D27"/>
<path d="M142.177 95.9773C141.441 95.1902 140.504 94.9066 139.456 94.8082C138.275 94.6924 137.123 94.7561 136.307 93.7491C135.954 93.315 135.352 93.9285 135.693 94.3625C137.216 96.2782 139.93 94.9529 141.569 96.5792C141.957 96.9669 142.541 96.3766 142.171 95.9773H142.177Z" fill="#352D27"/>
<path d="M173.848 149.234C180.337 150.114 200.927 174.201 226.988 179.792C253.049 185.383 262.571 179.485 262.571 179.485L273.697 197.508C248.198 216.184 208.366 206.374 183.115 193.798L173.848 149.234Z" fill="#F3C55C"/>
<path d="M277.186 251.424C277.186 251.424 292.931 201.75 259.93 177.407C252.983 172.285 246.94 169.872 232.335 169.924C216.781 169.982 202.784 184.549 197.284 194.417C187.096 212.7 178.656 251.424 178.656 251.424H277.186Z" fill="#7FCBB4"/>
<path d="M258.578 251.384C258.19 251.384 257.884 251.071 257.884 250.689V222.388C257.878 222.255 257.004 205.396 254.642 198.833C254.509 198.468 254.7 198.069 255.065 197.942C255.429 197.808 255.829 197.999 255.956 198.364C258.393 205.124 259.244 221.659 259.285 222.359V250.695C259.285 251.083 258.972 251.389 258.59 251.389L258.578 251.384Z" fill="#539A85"/>
<path d="M207.247 246.875C206.9 246.875 206.599 246.615 206.559 246.256C206.391 244.803 202.437 210.512 204.695 198.462C204.764 198.086 205.129 197.837 205.511 197.907C205.887 197.976 206.136 198.341 206.067 198.723C203.844 210.564 207.907 245.747 207.948 246.1C207.994 246.482 207.716 246.829 207.334 246.875C207.305 246.875 207.276 246.875 207.253 246.875H207.247Z" fill="#539A85"/>
<path d="M223.194 175.688C219.698 179.659 217.469 191.807 223.848 192.131C238.847 192.901 244.074 172.534 240.057 171.238C230.876 168.269 223.194 175.688 223.194 175.688Z" fill="#F1F2F2"/>
<path d="M222.556 165.531C222.556 167.082 221.647 176.979 224.194 178.391C231.65 182.524 240.067 173.877 240.067 171.244V162.748L222.562 165.537L222.556 165.531Z" fill="#F1BBA2"/>
<path d="M210.585 126.657C209.855 119.087 205.427 112.767 201.601 115.938C197.774 119.11 193.398 122.449 194.33 126.657C194.851 129.012 207.117 132.861 207.117 132.861L210.585 126.657Z" fill="#363537"/>
<path d="M203.038 134.042C202.835 134.042 202.633 133.955 202.494 133.781C202.251 133.48 202.303 133.041 202.598 132.803C205.035 130.841 206.222 128.746 206.222 126.402C206.222 126.015 206.534 125.708 206.916 125.708C207.298 125.708 207.611 126.02 207.611 126.402C207.611 129.157 206.216 131.675 203.466 133.891C203.339 133.995 203.183 134.048 203.032 134.048L203.038 134.042Z" fill="#DE501D"/>
<path d="M205.223 144.644C202.797 145.188 201.003 145.813 200.007 144.824C199.011 143.828 200.007 141.264 200.007 141.264L203.208 140.749L205.223 144.644Z" fill="#82512B"/>
<path d="M250.043 147.22C247.739 163.107 237.534 175.689 223.213 175.689C212.631 175.689 205.644 170.393 204.498 159.565C204.232 157.047 204.741 153.551 204.55 152.076C204.232 149.593 202.402 146.838 202.402 144.234C202.402 128.347 216.064 120.725 230.385 120.725C244.706 120.725 252.324 131.501 250.043 147.22Z" fill="#F1BBA2"/>
<path d="M219.291 148.649C219.233 148.134 220.455 147.098 222.127 147.492C223.795 147.885 225.033 149.066 224.489 149.39C223.945 149.714 222.724 148.707 221.659 148.829C220.593 148.944 219.337 149.014 219.297 148.649H219.291Z" fill="#363537"/>
<path d="M211.002 148.95C211.06 148.435 209.838 147.399 208.165 147.793C206.498 148.186 205.26 149.367 205.804 149.691C206.348 150.015 207.569 149.008 208.634 149.13C209.699 149.251 210.956 149.315 210.996 148.95H211.002Z" fill="#363537"/>
<path d="M217.146 138.897C229.337 137.705 230.026 142.619 233.51 147.22C237.001 151.821 245.545 150.935 249.47 150.316C250.807 150.108 252.827 141.415 252.272 136.223C251.861 132.375 252.086 125.302 244.156 121.182C236.225 117.061 233.47 116.135 225.765 117.564C218.066 118.994 209.702 139.626 217.14 138.897H217.146Z" fill="#363537"/>
<path d="M237.885 127.137C238.614 119.567 246.029 113.125 249.862 116.297C253.694 119.469 257.277 128.48 255.291 129.857C253.306 131.235 241.352 133.341 241.352 133.341L237.885 127.137Z" fill="#363537"/>
<path d="M242.544 133.544C239.169 133.544 237.78 131.478 237.317 130.505C236.506 128.81 236.593 126.738 237.514 125.887C237.797 125.627 238.237 125.644 238.498 125.927C238.758 126.211 238.741 126.651 238.457 126.911C238.133 127.212 237.93 128.572 238.567 129.904C239.053 130.922 240.367 132.554 243.707 132.062C244.084 132.004 244.443 132.271 244.5 132.653C244.558 133.035 244.292 133.388 243.91 133.445C243.418 133.515 242.961 133.55 242.538 133.55L242.544 133.544Z" fill="#D9886B"/>
<path d="M199.084 144.048C203.153 149.332 204.745 134.956 216.056 137.705C220.473 138.776 217.006 131.206 221.214 128.272C225.417 125.337 232.12 118.774 224.826 117.825C217.532 116.876 207.657 121.089 204.913 125.592C203.692 127.594 201.168 130.268 200.803 133.88C200.317 138.753 197.915 142.526 199.09 144.048H199.084Z" fill="#363537"/>
<path d="M212.703 165.885C212.703 165.885 213.971 168.801 217.351 168.981C220.732 169.16 221.34 165.913 221.34 165.913C218.364 166.926 215.789 167.135 212.703 165.885Z" fill="#F1F2F2"/>
<path d="M221.761 152.689C221.171 152.909 220.574 153.858 220.858 155.259C221.142 156.653 222.189 157.267 222.844 156.844C223.498 156.422 223.967 154.466 223.556 153.65C223.145 152.834 222.137 152.55 221.755 152.695L221.761 152.689Z" fill="#372313"/>
<path d="M208.526 152.712C207.947 152.955 207.385 153.927 207.727 155.316C208.068 156.7 209.134 157.267 209.776 156.821C210.419 156.37 210.801 154.402 210.361 153.603C209.921 152.805 208.896 152.562 208.526 152.718V152.712Z" fill="#372313"/>
<path d="M230.267 133.237C228.826 131.571 226.128 131.125 224.125 131.9C223.639 132.091 223.842 132.873 224.345 132.693C226.18 132.039 228.276 132.473 229.665 133.839C230.059 134.227 230.626 133.648 230.267 133.237Z" fill="#251C16"/>
<path d="M233.029 125.546C230.569 124.955 228.3 125.245 226.042 126.362C225.556 126.605 225.984 127.328 226.471 127.091C228.554 126.078 230.552 125.922 232.809 126.356C233.336 126.46 233.567 125.673 233.035 125.546H233.029Z" fill="#251C16"/>
<path d="M242.88 141.345C241.432 141.82 239.626 140.292 239.684 138.811C239.707 138.278 238.897 138.284 238.862 138.811C238.735 140.778 241.166 142.92 243.105 142.161C243.597 141.965 243.406 141.172 242.88 141.345Z" fill="#251C16"/>
<path d="M209.061 129.881C207.654 129.747 206.241 130.216 205.419 131.42C205.113 131.866 204.962 132.375 204.8 132.884C204.563 133.631 204.308 133.972 203.486 134.048C202.953 134.1 202.936 134.881 203.486 134.893C204.702 134.91 205.298 134.198 205.645 133.116C205.848 132.479 206.039 131.906 206.554 131.437C207.237 130.812 208.169 130.644 209.066 130.697C209.599 130.726 209.582 129.927 209.066 129.881H209.061Z" fill="#251C16"/>
<path d="M215.833 122.606C214.901 122.368 214.276 121.685 213.245 121.813C212.284 121.934 211.52 122.606 210.93 123.329C210.594 123.74 211.15 124.336 211.526 123.925C212.093 123.318 212.794 122.588 213.708 122.675C214.386 122.739 214.941 123.277 215.613 123.41C216.134 123.514 216.36 122.739 215.833 122.606Z" fill="#251C16"/>
<path d="M223.197 176.152C222.943 176.152 222.734 175.943 222.734 175.689C222.734 175.434 222.943 175.226 223.197 175.226C227.25 175.226 230.624 174.444 233.218 172.905C233.438 172.772 233.721 172.847 233.854 173.067C233.988 173.287 233.912 173.57 233.692 173.704C230.954 175.33 227.423 176.152 223.197 176.152Z" fill="#C48976"/>
<path d="M225.828 251.58C225.828 244.143 236.219 229.674 255.293 229.674C274.366 229.674 284.138 231.005 284.138 231.005V251.302L225.828 251.58Z" fill="#7FCBB4"/>
<path d="M225.502 234.918C225.224 234.918 224.958 234.75 224.854 234.473C224.715 234.114 224.894 233.709 225.253 233.57C231.187 231.301 253.548 228.928 258.584 228.992C258.972 228.992 259.279 229.31 259.273 229.698C259.273 230.08 258.955 230.387 258.579 230.387C258.579 230.387 258.573 230.387 258.567 230.387C253.745 230.317 231.424 232.702 225.757 234.872C225.676 234.901 225.589 234.918 225.508 234.918H225.502Z" fill="#539A85"/>
<path d="M132.838 239.282H220.346C225.492 239.282 229.671 243.461 229.671 248.606V250.053H132.832V239.276L132.838 239.282Z" fill="#7C8CAF"/>
<path d="M208.507 250.058H112.148L105.815 178.461C105.451 176.395 106.354 174.491 108.426 174.491H198.689C200.298 174.491 201.682 175.66 201.966 177.269L208.507 250.058Z" fill="#7C8CAF"/>
<path d="M160.586 201.42C160.841 205.39 158.063 208.799 154.381 209.037C150.699 209.274 147.504 206.253 147.243 202.283C146.983 198.312 149.767 194.903 153.449 194.666C157.131 194.429 160.326 197.45 160.586 201.42Z" fill="#DBDBDB"/>
<path d="M371.005 248.93H-0.849609V264.157H371.005V248.93Z" fill="#DCBFA3"/>
<path d="M330.196 108.264C330.196 101.51 329.467 72.121 339.14 58.2483C339.14 58.2483 341.328 69.9275 341.328 78.9676C341.328 88.0077 334.572 123.231 334.572 123.231L330.19 108.264H330.196Z" fill="#A7CBBD"/>
<path d="M295.378 56.24C295.378 56.24 313.815 127.612 313.815 141.849C313.815 156.086 305.323 150.611 305.323 150.611C305.323 150.611 299.025 101.053 296.831 95.3926C294.643 89.7324 296.009 84.9866 296.009 81.0627C296.009 77.1387 294 72.1209 294 68.3764C294 64.6319 295.372 56.24 295.372 56.24H295.378Z" fill="#A7CBBD"/>
<path d="M321.076 213.071C322.72 206.05 332.85 196.894 332.85 187.733C332.85 178.571 331.756 143.47 334.766 136.45C337.776 129.429 340.242 117.831 340.242 111.112C340.242 104.393 348.457 97.378 348.457 92.4934V84.252C348.457 84.252 352.289 89.4434 352.289 97.6848C352.289 105.926 349.278 116.61 346.813 119.359C344.347 122.108 342.703 125.465 342.703 131.264C342.703 137.063 341.331 165.758 341.331 173.391C341.331 181.025 340.781 182.547 338.865 189.874C336.949 197.201 322.431 214.598 322.431 214.598L321.059 213.071H321.076Z" fill="#A4CABB"/>
<path d="M305.46 213.07C301.628 204.522 295.602 186.21 295.602 177.355C295.602 168.5 296.974 159.958 295.602 155.073C294.23 150.189 286.531 117.57 289.529 105.573C291.399 98.0953 292.042 103.362 292.042 103.362C292.042 103.362 304.094 122.414 305.46 130.042C306.826 137.67 305.037 152.023 306.832 156.271C308.62 160.519 311.764 170.642 311.764 177.361V212.161L305.466 213.076L305.46 213.07Z" fill="#C2E8D8"/>
<path d="M321.071 100.121L308.475 75.3967C308.475 75.3967 304.093 89.4372 304.093 94.0152C304.093 98.5931 302.449 102.257 302.449 106.835C302.449 111.412 306.281 120.875 306.281 128.816C306.281 136.756 304.909 144.992 304.909 151.711C304.909 158.43 311.757 213.07 311.757 213.07H316.689L321.071 100.127V100.121Z" fill="#92BCAB"/>
<path d="M316.694 213.07C316.694 206.964 314.778 202.08 314.778 192.924C314.778 183.768 314.778 177.969 313.134 166.672C311.49 155.374 316.694 138.891 316.694 131.564C316.694 124.237 313.956 102.563 316.694 94.3218C319.432 86.0804 322.442 69.2908 322.442 69.2908C322.442 69.2908 336.682 101.035 336.682 106.533V143.163C336.682 150.183 333.672 161.48 332.3 169.108C330.928 176.742 330.928 182.541 330.928 190.476C330.928 198.41 324.746 213.064 324.746 213.064H316.688L316.694 213.07Z" fill="#C2E8D8"/>
<path d="M338.29 249.092H298.672L293.451 204.841C293.184 202.601 294.938 200.633 297.196 200.633H339.552C341.804 200.633 343.552 202.589 343.297 204.823L338.296 249.092H338.29Z" fill="#E3AC69"/>
<path d="M341.132 235.948H295.54L294 214.592H342.579L341.132 235.948Z" fill="#FCC583"/>
<path d="M45.9764 232.146C21.6233 232.146 1.80859 212.335 1.80859 187.987C1.80859 174.299 8.0025 161.607 18.81 153.169C19.3599 152.741 20.1472 152.828 20.5871 153.36L75.3887 219.263C75.8344 219.795 75.7708 220.588 75.2498 221.045C67.1746 228.199 56.7781 232.14 45.9706 232.14L45.9764 232.146ZM19.4236 155.982C9.84909 163.917 4.38456 175.515 4.38456 187.993C4.38456 210.923 23.0415 229.576 45.9764 229.576C55.7361 229.576 65.1427 226.161 72.6044 219.94L19.4236 155.982Z" fill="#9CA8D3"/>
<path d="M45.9709 223.32C65.4886 223.32 81.3109 207.501 81.3109 187.987C81.3109 168.473 65.4886 152.654 45.9709 152.654C26.4531 152.654 10.6309 168.473 10.6309 187.987C10.6309 207.501 26.4531 223.32 45.9709 223.32Z" fill="#68CCEB"/>
<mask id="mask0_2060_296" style="mask-type:luminance" maskUnits="userSpaceOnUse" x="10" y="152" width="56" height="56">
<path d="M38.2356 207.852C53.4813 207.852 65.8403 195.496 65.8403 180.253C65.8403 165.011 53.4813 152.654 38.2356 152.654C22.9899 152.654 10.6309 165.011 10.6309 180.253C10.6309 195.496 22.9899 207.852 38.2356 207.852Z" fill="white"/>
</mask>
<g mask="url(#mask0_2060_296)">
<path d="M28.6716 179.746C23.2013 183.438 16.307 196.813 23.2013 195.8C30.0899 194.787 33.3373 190.128 36.579 194.99C39.8207 199.851 40.168 203.301 45.974 203.301C51.7801 203.301 59.317 207.641 60.4979 206.467C61.673 205.292 57.4588 198.237 55.2302 191.546C53.0015 184.862 46.3098 178.171 41.8525 176.348C37.3952 174.525 28.6774 179.746 28.6774 179.746H28.6716Z" fill="#F3C55C"/>
<path d="M49.4193 182.171C46.9013 179.41 44.0937 177.263 41.8477 176.348C37.3904 174.525 28.6726 179.746 28.6726 179.746C26.1546 181.447 23.3355 185.197 21.6973 188.653C25.0026 189.359 25.2284 186.378 31.1618 185.799C38.0503 185.122 37.6451 185.116 41.1589 187.281C44.6726 189.445 43.3586 186.071 45.9751 184.717C47.648 183.855 48.8 182.934 49.4193 182.171Z" fill="#7DD2B1"/>
<path d="M24.0078 179.745C20.1583 178.374 17.727 178.779 17.727 174.114C17.727 169.449 19.2031 168.124 16.7429 168.124C14.2827 168.124 8.80664 178.756 8.80664 181.904C8.80664 185.053 15.0758 185.105 16.4072 183.773C17.7386 182.442 24.0078 179.745 24.0078 179.745Z" fill="#F3C55C"/>
<path d="M57.8511 151.392C47.5124 151.392 41.0291 160.537 48.1203 163.17C55.2114 165.803 56.4328 165.369 60.6875 168.124C64.9422 170.873 68.9943 174.317 70.0131 171.683C71.0261 169.05 75.2808 168.442 75.2808 166.214C75.2808 163.986 59.4719 151.398 57.8511 151.398V151.392Z" fill="#7CC8AA"/>
<path d="M22.7559 160.745C24.8572 160.745 25.7949 161.752 31.6762 159.727C37.5518 157.701 40.695 152.811 40.695 152.811L29.6502 154.761L22.7616 160.745H22.7559Z" fill="#F1F2F2"/>
</g>
<path d="M66.6586 196.292C67.6717 197.305 67.6196 199.18 68.7889 198.017C69.9524 196.853 68.5863 195.736 70.5139 196.292C72.4416 196.848 73.6572 195.684 73.6572 193.96C73.6572 192.235 73.7614 190.412 71.8337 191.124C69.9061 191.836 68.6905 192.339 67.4749 192.947C66.2592 193.554 66.6644 196.292 66.6644 196.292H66.6586Z" fill="#DCF8C1"/>
<path d="M73.6445 199.33C73.6445 198.115 74.235 197.351 75.2654 198.381C76.2958 199.411 79.0164 201.859 77.193 201.252C75.3696 200.644 73.6503 199.325 73.6503 199.325L73.6445 199.33Z" fill="#DCF8C1"/>
<path d="M71.1133 188.693C71.1133 187.68 73.2551 186.592 74.4013 185.452C75.5416 184.312 74.6675 182.413 75.7269 182.413C76.7862 182.413 76.7862 182.107 76.7862 183.629C76.7862 185.151 77.5966 187.176 76.1784 187.176C74.7602 187.176 74.5576 187.784 73.6487 188.699C72.7341 189.613 71.1133 188.699 71.1133 188.699V188.693Z" fill="#F3C55C"/>
<path d="M46.3923 230.861L52.7946 243.831H39.168L46.3923 230.861Z" fill="#9CA8D3"/>
<path d="M36.4792 241.597H55.4835C59.1593 241.597 62.1463 244.583 62.1463 248.258V249.508H29.8164V248.258C29.8164 244.583 32.8034 241.597 36.4792 241.597Z" fill="#9CA8D3"/>
<path d="M262.932 179.792C262.446 184.914 255.563 187.918 261.445 193.798C263.094 195.447 265.566 196.888 267.546 196.564C271.106 195.98 273.977 191.691 273.751 189.498C273.103 183.27 265.311 176.557 264.461 177.407C263.61 178.258 263.1 178.061 262.932 179.792Z" fill="#F1BBA2"/>
<path d="M260.429 192.449C260.325 192.449 260.221 192.397 260.157 192.299C260.064 192.148 260.111 191.951 260.261 191.865C262.426 190.534 265.072 187.657 265.587 185.342C266.096 183.039 267.022 179.45 267.034 179.416C267.08 179.248 267.254 179.144 267.422 179.19C267.59 179.236 267.694 179.404 267.648 179.578C267.636 179.612 266.716 183.189 266.206 185.487C265.651 188.004 262.918 190.985 260.591 192.414C260.539 192.449 260.481 192.461 260.423 192.461L260.429 192.449Z" fill="#C99565"/>
<path d="M262.104 194.371C261.953 194.371 261.82 194.266 261.791 194.116C261.757 193.942 261.872 193.78 262.04 193.746C263.638 193.433 267.082 190.302 267.713 188.826C268.385 187.258 269.78 182.524 269.78 181.968C269.78 181.794 269.924 181.65 270.098 181.65C270.272 181.65 270.416 181.794 270.416 181.968C270.416 182.715 268.917 187.64 268.304 189.075C267.655 190.591 264.113 193.989 262.168 194.365C262.15 194.365 262.127 194.371 262.11 194.371H262.104Z" fill="#C99565"/>
<path d="M265.462 195.945C265.328 195.945 265.207 195.864 265.16 195.731C265.103 195.563 265.189 195.384 265.357 195.326C267.441 194.596 269.849 191.98 270.457 190.568C271.082 189.121 272.159 185.689 272.165 185.655C272.217 185.487 272.396 185.394 272.564 185.446C272.732 185.498 272.825 185.678 272.773 185.846C272.726 185.99 271.673 189.341 271.042 190.817C270.399 192.316 267.887 195.117 265.566 195.928C265.531 195.939 265.496 195.945 265.462 195.945Z" fill="#C99565"/>
<path d="M99.38 249.452L68.1675 249.544L68.1281 236.262L99.3406 236.169C100.539 236.166 101.514 237.135 101.518 238.333L101.544 247.269C101.548 248.467 100.578 249.442 99.38 249.446L99.38 249.452Z" fill="#6683C2"/>
<path d="M77.8324 245.816L77.815 239.861C77.815 239.195 77.3461 238.651 76.7673 238.651L41.1494 238.761C41.1147 238.761 41.08 238.738 41.0626 238.703C40.7442 238.009 40.7558 237.239 41.0626 236.412C41.08 236.371 41.1089 236.348 41.1494 236.348L78.7354 236.232C79.3085 236.232 79.7774 236.77 79.7832 237.442L79.8179 248.305C79.8179 248.97 79.3548 249.515 78.776 249.52L41.3925 249.636C41.2189 249.636 41.0626 249.515 41.0047 249.324C40.8079 248.722 40.8253 248.102 41.0105 247.46C41.0684 247.269 41.2247 247.142 41.3983 247.142L76.7904 247.037C77.3635 247.037 77.8324 246.493 77.8324 245.822V245.816Z" fill="#92AEEA"/>
<path d="M47.9535 240.671L42.2806 240.688C42.3848 240.393 42.5237 240.393 42.6858 238.327L77.5859 238.223C77.7132 238.223 77.7537 238.767 77.7595 238.912L77.7827 247.078C77.7827 247.223 42.5063 247.205 42.5063 247.205C42.2285 245.237 42.159 245.145 42.0664 244.294L45.4644 244.207L42.1474 244.219C42.0548 244.219 42.0954 242.072 42.2343 241.001L47.9535 240.665V240.671Z" fill="#E6E6E6"/>
<path d="M77.0019 241.169L77.0135 245.052L77.0193 245.92L75.491 245.492L73.9686 245.932V245.064L73.957 241.18L77.0019 241.169Z" fill="#F3C55C"/>
<path d="M297.2 185.99C296.199 193.705 288.766 198.914 281.084 197.699C273.403 196.483 268.158 189.266 269.38 181.586C270.595 173.906 277.814 168.663 285.495 169.884C293.177 171.105 297.947 180.238 297.206 185.996L297.2 185.99Z" fill="#FCDCB5"/>
<path d="M318.564 215.779C320.416 233.095 320.822 250.07 297.626 250.07C279.942 250.07 275.224 237.03 276.197 217.087C277.152 197.507 282.877 177.187 293.563 182.286C305.406 187.935 316.689 198.306 318.564 215.779Z" fill="#FCDCB5"/>
<path d="M279.202 197.178C279.092 197.178 278.976 197.149 278.872 197.091C278.554 196.906 278.444 196.501 278.629 196.183C282.814 188.914 287.208 186.72 291.717 184.943C296.377 183.109 297.894 184.081 298.154 184.295L297.303 185.32C297.303 185.32 297.315 185.331 297.338 185.343C297.327 185.337 296.134 184.631 292.209 186.176C287.932 187.86 283.758 189.944 279.787 196.843C279.665 197.057 279.44 197.178 279.208 197.178H279.202Z" fill="#9E614B"/>
<path d="M332.24 284.859C332.188 284.859 332.136 284.859 332.078 284.859C330.081 284.772 328.535 283.082 328.622 281.091C328.622 281.027 328.905 274.36 328.57 267.236C327.991 254.995 325.861 252.854 324.222 251.997C321.791 250.828 311.858 249.277 302.353 248.455C300.361 248.282 298.891 246.528 299.065 244.543C299.238 242.552 300.992 241.082 302.978 241.256C308.031 241.695 324.859 243.31 329.369 245.724C331.742 246.991 333.334 249.781 334.376 254.503C335.041 257.507 335.505 261.396 335.753 266.061C336.17 273.839 335.858 281.103 335.846 281.409C335.759 283.348 334.162 284.865 332.234 284.865L332.24 284.859Z" fill="#FCDCB5"/>
<path d="M271.768 181.308L267.108 175.307C266.61 174.664 267.125 173.738 267.93 173.819L275.392 174.572L271.768 181.308Z" fill="#FCDCB5"/>
<path d="M289.114 171.8L286.445 166.162C286.271 165.676 285.582 165.682 285.415 166.162L283.059 171.227L289.114 171.794V171.8Z" fill="#FCDCB5"/>
<path d="M282.507 217.145C280.209 216.85 278.472 214.841 278.571 212.486C278.71 209.152 277.071 207.393 275.671 206.502C273.905 205.379 272.221 205.413 271.781 205.616C269.812 207.103 267.005 206.739 265.488 204.783C263.96 202.815 264.325 199.985 266.293 198.463C269.529 195.962 274.75 195.852 279.289 198.196C284.753 201.015 287.856 206.502 287.59 212.868C287.485 215.356 285.384 217.284 282.895 217.179C282.762 217.179 282.634 217.162 282.507 217.145Z" fill="#FCDCB5"/>
<path d="M289.576 243.252C288.626 243.252 273.17 242.332 273.124 246.539C273.072 250.747 275.104 249.994 280.765 249.994C286.426 249.994 295.335 250.047 295.335 250.047L289.576 243.252Z" fill="#FCDCB5"/>
<path d="M51.4902 44.7317L65.0705 70.0058C70.3845 61.967 77.0647 60.3465 89.1631 58.5234L72.619 34.8062C60.0749 37.2022 56.0923 38.5449 51.496 44.7317H51.4902Z" fill="#68CCEB"/>
<path d="M89.1613 58.5176C89.1613 58.5176 98.7184 42.3704 110.77 44.2398L90.8226 19.9554C90.8226 19.9554 85.3813 19.2377 79.9804 23.8041C74.5796 28.3704 72.6172 34.8003 72.6172 34.8003L89.1613 58.5176Z" fill="#68CCEB"/>
<path d="M76.5971 35.3966C76.4813 35.3966 76.3887 35.304 76.3887 35.1882C76.3887 33.07 78.5189 29.3486 82.0847 26.779C85.4422 24.3598 87.3293 23.6248 90.1716 23.6248C90.2873 23.6248 90.38 23.7174 90.38 23.8331C90.38 23.9489 90.2873 24.0415 90.1716 24.0415C87.4046 24.0415 85.6448 24.7302 82.3279 27.1204C78.9183 29.5743 76.8055 33.2205 76.8055 35.1882C76.8055 35.304 76.7128 35.3966 76.5971 35.3966Z" fill="#57B8D6"/>
<path d="M78.7475 38.5797C78.6317 38.5797 78.5391 38.4871 78.5391 38.3713C78.5391 36.2531 80.6693 32.5317 84.2351 29.9621C87.5926 27.5429 89.4855 26.8079 92.322 26.8079C92.4377 26.8079 92.5303 26.9005 92.5303 27.0162C92.5303 27.132 92.4377 27.2246 92.322 27.2246C89.555 27.2246 87.7952 27.9133 84.4783 30.3035C81.0687 32.7574 78.9558 36.4036 78.9558 38.3713C78.9558 38.4871 78.8632 38.5797 78.7475 38.5797Z" fill="#57B8D6"/>
<path d="M81.3119 42.3182C81.1961 42.3182 81.1035 42.2256 81.1035 42.1098C81.1035 39.9916 83.2338 36.2702 86.7996 33.7006C90.157 31.2814 92.0442 30.5464 94.8864 30.5464C95.0022 30.5464 95.0948 30.639 95.0948 30.7547C95.0948 30.8705 95.0022 30.9631 94.8864 30.9631C92.1194 30.9631 90.3596 31.6518 87.0427 34.042C83.6332 36.496 81.5203 40.1421 81.5203 42.1098C81.5203 42.2256 81.4277 42.3182 81.3119 42.3182Z" fill="#57B8D6"/>
<path d="M83.7279 46.1265C83.6122 46.1265 83.5195 46.0339 83.5195 45.9182C83.5195 43.8 85.6498 40.0786 89.2156 37.5089C92.5731 35.0898 94.4602 34.3547 97.3024 34.3547C97.4182 34.3547 97.5108 34.4473 97.5108 34.5631C97.5108 34.6788 97.4182 34.7714 97.3024 34.7714C94.5354 34.7714 92.7757 35.4602 89.4587 37.8504C86.0492 40.3043 83.9363 43.9504 83.9363 45.9182C83.9363 46.0339 83.8437 46.1265 83.7279 46.1265Z" fill="#57B8D6"/>
<path d="M85.5391 47.9962L89.1686 53.3265C89.1686 53.3265 91.0788 48.4824 93.7822 46.885L90.1816 41.6936C90.1816 41.6936 88.1035 42.6948 86.8589 44.46C85.8169 45.9359 85.5449 47.9904 85.5449 47.9904L85.5391 47.9962Z" fill="#57B8D6"/>
<path d="M243.448 57.5477L238.975 53.8384L219.43 77.4001L223.904 81.1094L243.448 57.5477Z" fill="#EDB941"/>
<path d="M243.447 57.5538L242.053 56.3975L222.508 79.9592L223.903 81.1155L243.447 57.5538Z" fill="#F3C55C"/>
<path d="M240.369 55.0011L238.975 53.8447L219.43 77.4064L220.825 78.5628L240.369 55.0011Z" fill="#F3C55C"/>
<path d="M243.449 57.5439L238.975 53.8341L243.171 52.1615L245.035 51.4207L244.549 53.2958L243.449 57.5439Z" fill="#E5C3A5"/>
<path d="M244.53 53.325L243.158 52.1848L245.022 51.4382L244.53 53.325Z" fill="#E6B340"/>
<path d="M219.423 77.4126C219.237 77.7888 214.491 81.7648 217.235 84.2187C220.031 86.7247 223.897 81.1282 223.897 81.1282L219.423 77.4184V77.4126Z" fill="#6683C2"/>
<path d="M18.3257 75.9903L15.1035 80.8262L40.5839 97.7967L43.806 92.9608L18.3257 75.9903Z" fill="#E4AF9C"/>
<path d="M18.3287 75.9965L17.3242 77.5042L42.8046 94.4747L43.8091 92.9671L18.3287 75.9965Z" fill="#FBE8E2"/>
<path d="M16.1158 79.3215L15.1113 80.8291L40.5917 97.7997L41.5962 96.2921L16.1158 79.3215Z" fill="#E4AF9C"/>
<path d="M18.3142 75.9821L15.0899 80.8204L12.9828 76.8213L12.0566 75.0503L13.9727 75.3339L18.3142 75.9821Z" fill="#E5C3A5"/>
<path d="M13.9999 75.3563L13.01 76.8379L12.0723 75.0669L13.9999 75.3563Z" fill="#877268"/>
<path d="M40.5879 97.8066C40.9815 97.9513 45.4272 102.257 47.5864 99.2709C49.7861 96.2266 43.8122 92.9683 43.8122 92.9683L40.5879 97.8066Z" fill="#FCC583"/>
<path d="M170.635 28.831C160.852 37.5354 159.903 52.473 168.453 62.3407L172.47 58.764L175.556 56.0208L197.078 36.8699L200.163 34.1208L204.181 30.5499C195.37 20.9137 180.424 20.1208 170.635 28.831ZM172.985 51.7264C170.919 46.2977 172.273 39.9257 176.87 35.8397C181.466 31.7479 187.955 31.1402 193.107 33.8256L172.985 51.7322V51.7264Z" fill="#DCF8C1"/>
<path d="M164.07 50.002C163.931 50.002 163.809 49.9036 163.786 49.7647C163.757 49.6084 163.861 49.4522 164.018 49.4232L166.374 48.966C166.536 48.9371 166.686 49.0412 166.715 49.1975C166.744 49.3538 166.646 49.51 166.484 49.539L164.128 49.9962C164.128 49.9962 164.087 49.9962 164.07 49.9962V50.002Z" fill="#83A4CE"/>
<path d="M191.355 27.3667C191.326 27.3667 191.297 27.3667 191.268 27.3551C191.117 27.3088 191.031 27.141 191.077 26.9905L191.806 24.7044C191.853 24.554 192.02 24.4671 192.171 24.5134C192.321 24.5597 192.408 24.7276 192.362 24.8781L191.633 27.1641C191.592 27.2857 191.482 27.3667 191.355 27.3667Z" fill="#83A4CE"/>
<path d="M172.869 32.5352C172.788 32.5352 172.707 32.5005 172.655 32.4368L170.681 30.2202C170.577 30.0986 170.582 29.9192 170.704 29.8093C170.826 29.7051 171.005 29.7109 171.115 29.8324L173.089 32.049C173.193 32.1706 173.187 32.35 173.066 32.4599C173.008 32.5062 172.944 32.5352 172.875 32.5352H172.869Z" fill="#83A4CE"/>
<path d="M174.243 57.4793C174.162 57.4793 174.081 57.4446 174.029 57.3809L172.652 55.8356C172.547 55.7141 172.553 55.5347 172.675 55.4247C172.796 55.3206 172.976 55.3263 173.086 55.4479L174.463 56.9932C174.568 57.1147 174.562 57.2941 174.44 57.4041C174.382 57.4562 174.319 57.4793 174.249 57.4793H174.243Z" fill="#83A4CE"/>
<path d="M177.868 54.2613C177.787 54.2613 177.706 54.2266 177.654 54.1629L176.277 52.6176C176.172 52.4961 176.178 52.3167 176.3 52.2067C176.421 52.1025 176.601 52.1083 176.711 52.2299L178.088 53.7751C178.193 53.8967 178.187 54.0761 178.065 54.186C178.007 54.2323 177.944 54.2613 177.874 54.2613H177.868Z" fill="#83A4CE"/>
<path d="M181.476 51.0438C181.395 51.0438 181.314 51.009 181.262 50.9454L179.884 49.4001C179.78 49.2786 179.786 49.0991 179.907 48.9892C180.029 48.885 180.208 48.8908 180.318 49.0123L181.696 50.5576C181.8 50.6791 181.794 50.8586 181.673 50.9685C181.615 51.0148 181.551 51.0438 181.482 51.0438H181.476Z" fill="#83A4CE"/>
<path d="M185.099 47.8255C185.018 47.8255 184.937 47.7908 184.885 47.7271L183.507 46.1818C183.403 46.0603 183.409 45.8809 183.53 45.7709C183.652 45.6668 183.831 45.6725 183.941 45.7941L185.319 47.3393C185.423 47.4609 185.417 47.6403 185.296 47.7503C185.238 47.7966 185.174 47.8255 185.105 47.8255H185.099Z" fill="#83A4CE"/>
<path d="M188.708 44.608C188.627 44.608 188.546 44.5732 188.494 44.5096L187.116 42.9643C187.012 42.8428 187.018 42.6634 187.14 42.5534C187.261 42.4492 187.441 42.455 187.551 42.5765L188.928 44.1218C189.032 44.2434 189.027 44.4228 188.905 44.5327C188.853 44.579 188.784 44.608 188.714 44.608H188.708Z" fill="#83A4CE"/>
<path d="M192.324 41.3958C192.242 41.3958 192.161 41.3611 192.109 41.2974L190.732 39.7522C190.627 39.6306 190.633 39.4512 190.755 39.3412C190.876 39.2371 191.056 39.2428 191.166 39.3644L192.543 40.9097C192.648 41.0312 192.642 41.2106 192.52 41.3206C192.468 41.3669 192.399 41.3958 192.329 41.3958H192.324Z" fill="#83A4CE"/>
<path d="M195.933 38.1775C195.852 38.1775 195.771 38.1428 195.719 38.0792L194.341 36.5339C194.237 36.4124 194.243 36.2329 194.364 36.123C194.486 36.0188 194.665 36.0246 194.775 36.1461L196.153 37.6914C196.257 37.8129 196.251 37.9923 196.13 38.1023C196.072 38.1486 196.008 38.1775 195.939 38.1775H195.933Z" fill="#83A4CE"/>
<path d="M199.556 34.96C199.475 34.96 199.394 34.9253 199.342 34.8616L197.964 33.3164C197.86 33.1948 197.866 33.0154 197.987 32.9054C198.109 32.8013 198.288 32.8071 198.398 32.9286L199.776 34.4739C199.88 34.5954 199.874 34.7748 199.753 34.8848C199.701 34.9311 199.631 34.96 199.562 34.96H199.556Z" fill="#83A4CE"/>
<path d="M314.17 35.6484L318.656 37.3499C318.656 37.1184 318.541 37.0779 318.94 35.6195L291.345 25.1325C291.247 25.0978 291.068 25.4566 291.033 25.555L288.92 31.1168C288.885 31.2152 316.804 41.7311 316.804 41.7311C317.528 40.4694 317.609 40.4289 317.898 39.8791L315.23 38.8084L317.852 39.8038C317.921 39.8328 318.442 38.357 318.61 37.5814L314.17 35.6484Z" fill="#D9D4A7"/>
<path d="M318.218 35.116C318.362 37.6162 315.566 41.8006 315.566 41.8006L316.799 42.0957C316.799 42.0957 318.901 38.2702 319.155 37.2053C319.41 36.1404 319.41 35.4632 319.41 35.4632L318.212 35.1218L318.218 35.116Z" fill="#C2BD95"/>
<path d="M289.21 30.2427L290.75 26.1857C290.924 25.7285 291.433 25.5028 291.891 25.6764L320.053 36.3775C320.053 36.3775 320.111 36.3775 320.134 36.3601C320.568 35.9782 320.753 35.4515 320.724 34.7975C320.724 34.7686 320.701 34.7396 320.672 34.7281L290.953 23.4308C290.496 23.2572 289.986 23.4887 289.812 23.9401L286.999 31.3424C286.826 31.7996 287.057 32.3089 287.509 32.4825L317.066 43.7161C317.205 43.7682 317.355 43.7276 317.454 43.6177C317.76 43.2646 317.911 42.8364 317.928 42.3444C317.928 42.194 317.841 42.0608 317.702 42.0088L289.72 31.3713C289.263 31.1977 289.037 30.6884 289.21 30.2312V30.2427Z" fill="#7FCBB4"/>
<path d="M292.413 28.0901L289.467 35.828L288.812 37.5527L290.966 37.3848L292.448 38.9359L293.102 37.2112L296.048 29.4733L292.413 28.0901Z" fill="#F3C55C"/>
<path d="M287.231 32.315L275.891 12.7301L278.374 7.01779C278.901 5.81398 280.307 5.26417 281.511 5.79662L308.585 17.7941L320.666 34.7284L290.501 24.062L287.231 32.3092V32.315Z" fill="#7FCBB4"/>
<path d="M280.215 5.6228C279.428 5.73277 278.716 6.23628 278.374 7.02338L275.891 12.7357L287.231 32.3206L290.501 24.0734L291.069 24.276C287.908 19.0093 282.472 9.88242 280.215 5.62859V5.6228Z" fill="#A2EBD5"/>
</g>
<defs>
<clipPath id="clip0_2060_296">
<rect width="370.909" height="264" rx="32" fill="white"/>
</clipPath>
</defs>
</svg>
