<svg width="342" height="264" viewBox="0 0 342 264" fill="none" xmlns="http://www.w3.org/2000/svg">
<mask id="mask0_2060_723" style="mask-type:alpha" maskUnits="userSpaceOnUse" x="0" y="0" width="342" height="264">
<rect width="342" height="264" fill="#D9D9D9"/>
</mask>
<g mask="url(#mask0_2060_723)">
<path fill-rule="evenodd" clip-rule="evenodd" d="M171.484 254.364C215.546 254.364 256.09 255.018 288.262 256.119C366.997 211.329 339.729 124.001 311.464 74.6176C272.116 5.86987 179.158 -18.8317 140.687 36.0177C88.4926 110.46 38.1417 84.4783 10.953 141.014C-16.2357 197.55 25.0557 251.745 54.726 256.119C86.898 255.018 127.442 254.364 171.494 254.364H171.484Z" fill="#68CCEA"/>
<g clip-path="url(#clip0_2060_723)">
<path fill-rule="evenodd" clip-rule="evenodd" d="M160.829 248.056C250.756 248.056 323.657 251.237 323.657 255.159C323.657 259.081 250.756 262.253 160.829 262.253C70.9014 262.253 -2 259.073 -2 255.159C-2 251.245 70.9014 248.056 160.829 248.056Z" fill="#68CCEA" fill-opacity="0.09"/>
<path fill-rule="evenodd" clip-rule="evenodd" d="M283.258 181.217C283.387 180.901 283.747 180.739 284.064 180.867C284.381 180.978 284.552 181.344 284.424 181.66C283.807 183.254 283.284 184.943 282.847 186.691C283.018 186.52 283.207 186.375 283.404 186.213C284.252 185.531 285.212 184.943 286.283 184.44C286.6 184.303 286.969 184.431 287.114 184.738C287.26 185.045 287.131 185.42 286.823 185.565C285.838 186.025 284.955 186.563 284.184 187.177C283.447 187.765 282.813 188.413 282.282 189.138C281.476 192.915 280.962 196.991 280.491 201.288C281.211 200.171 281.982 199.173 282.804 198.287C284.235 196.743 285.803 195.55 287.534 194.697C287.843 194.535 288.211 194.671 288.374 194.978C288.52 195.285 288.4 195.652 288.091 195.805C286.506 196.59 285.049 197.698 283.73 199.122C282.419 200.555 281.236 202.286 280.174 204.349L280.062 205.509C279.788 208.075 279.523 210.693 279.197 213.37C279.197 213.396 279.197 213.421 279.188 213.447C278.854 216.244 278.46 219.1 277.963 222.008C279.317 219.936 280.756 218.102 282.316 216.517C284.587 214.189 287.089 212.373 289.796 211.077C290.113 210.932 290.482 211.06 290.636 211.366C290.782 211.673 290.653 212.04 290.345 212.194C287.765 213.43 285.392 215.161 283.216 217.386C281.048 219.603 279.085 222.315 277.329 225.512C276.558 229.366 275.581 233.288 274.287 237.253C273.644 239.206 272.933 241.167 272.128 243.137C274.013 241.525 276.018 240.127 278.134 238.959C281.091 237.321 284.27 236.111 287.654 235.335C287.988 235.258 288.322 235.471 288.391 235.795C288.468 236.128 288.262 236.46 287.937 236.528C284.655 237.296 281.588 238.447 278.743 240.033C275.932 241.593 273.327 243.554 270.928 245.925C270.337 247.221 269.703 248.525 269.017 249.838L267.646 249.787C269.917 245.49 271.682 241.184 273.079 236.938C273.31 233.911 272.959 230.892 271.999 227.874C271.04 224.804 269.446 221.726 267.261 218.657C267.064 218.375 267.132 217.992 267.415 217.796C267.698 217.591 268.083 217.659 268.281 217.932C270.551 221.121 272.188 224.301 273.19 227.49C273.764 229.298 274.133 231.114 274.304 232.922C276.172 226.211 277.209 219.637 277.963 213.37C277.235 210.718 276.412 208.476 275.512 206.626C274.613 204.801 273.644 203.386 272.591 202.397C272.333 202.158 272.325 201.774 272.565 201.518C272.796 201.271 273.19 201.262 273.439 201.493C274.613 202.593 275.667 204.127 276.635 206.08C277.235 207.299 277.8 208.698 278.331 210.267C278.511 208.604 278.674 206.975 278.846 205.372L278.983 204.127C278.983 204.127 278.983 204.085 278.991 204.059C279.874 195.55 280.774 187.79 283.301 181.208L283.258 181.217Z" fill="white"/>
<path fill-rule="evenodd" clip-rule="evenodd" d="M137.77 208.595C138.25 215.041 139.201 215.937 145.387 216.431C139.201 216.934 138.25 217.821 137.77 224.267C137.307 217.813 136.339 216.926 130.169 216.431C136.339 215.937 137.307 215.041 137.77 208.595ZM112.664 225.606C112.912 229.042 113.426 229.52 116.725 229.792C113.426 230.057 112.921 230.526 112.664 233.97C112.407 230.534 111.901 230.057 108.594 229.792C111.893 229.52 112.407 229.042 112.664 225.606ZM123.666 199.105C123.923 202.593 124.437 203.07 127.779 203.343C124.437 203.607 123.923 204.093 123.666 207.572C123.409 204.085 122.895 203.607 119.544 203.343C122.886 203.07 123.409 202.584 123.666 199.105Z" fill="white"/>
<path fill-rule="evenodd" clip-rule="evenodd" d="M236.459 192.702C236.099 197.647 235.37 198.321 230.641 198.704C235.37 199.08 236.099 199.77 236.459 204.699C236.819 199.77 237.555 199.08 242.294 198.704C237.555 198.321 236.827 197.639 236.459 192.702ZM255.695 205.73C255.498 208.365 255.104 208.732 252.585 208.936C255.104 209.141 255.507 209.499 255.695 212.134C255.884 209.49 256.278 209.132 258.797 208.936C256.278 208.732 255.875 208.365 255.695 205.73ZM247.272 185.437C247.075 188.114 246.681 188.481 244.128 188.686C246.681 188.89 247.084 189.257 247.272 191.934C247.469 189.257 247.863 188.89 250.417 188.686C247.863 188.481 247.461 188.114 247.272 185.437Z" fill="white"/>
<path fill-rule="evenodd" clip-rule="evenodd" d="M32.6432 62.4755L151.241 47.5966C160.495 46.4284 169.029 53.0195 170.194 62.2282L190.75 224.438C191.916 233.655 185.301 242.139 176.038 243.299L57.4578 258.186C48.1951 259.346 39.6694 252.763 38.4955 243.546L17.9395 81.3363C16.7656 72.1276 23.3891 63.6436 32.6432 62.4755Z" fill="#86A5E8"/>
<path fill-rule="evenodd" clip-rule="evenodd" d="M33.2542 67.216L151.835 52.3286C158.475 51.493 164.593 56.2252 165.424 62.8333L185.98 225.034C186.82 231.643 182.073 237.739 175.433 238.566L56.852 253.445C50.2114 254.281 44.0934 249.557 43.2537 242.949L22.6977 80.7392C21.858 74.1311 26.6135 68.0516 33.2542 67.216Z" fill="#DFEDFA"/>
<path fill-rule="evenodd" clip-rule="evenodd" d="M24.9922 76.6638L141.473 52.687L175.808 217.855L59.335 241.832L24.9922 76.6638Z" fill="white"/>
<path fill-rule="evenodd" clip-rule="evenodd" d="M42.1267 112.569C41.7894 110.945 42.8337 109.356 44.4581 109.021L51.8541 107.495C53.4752 107.161 55.0609 108.203 55.3973 109.824L56.9193 117.155C57.2565 118.779 56.2112 120.369 54.586 120.703L47.19 122.224C45.5695 122.557 43.9852 121.515 43.6487 119.895L42.1267 112.569ZM64.4136 219.774C64.0762 218.15 65.1206 216.56 66.7449 216.225L74.1409 214.7C75.7621 214.366 77.3477 215.408 77.6842 217.029L79.2061 224.36C79.5434 225.984 78.498 227.574 76.8729 227.908L69.4769 229.428C67.8563 229.762 66.272 228.72 65.9355 227.1L64.4136 219.774ZM59.9578 198.329C59.6205 196.705 60.6646 195.116 62.2888 194.781L69.6782 193.256C71.2988 192.921 72.8841 193.962 73.2215 195.582L74.7483 202.914C75.0867 204.539 74.0412 206.13 72.4154 206.464L65.0212 207.984C63.4007 208.317 61.8163 207.276 61.4798 205.656L59.9578 198.329ZM55.4959 176.886C55.1574 175.262 56.2018 173.671 57.8269 173.336L65.221 171.811C66.8422 171.477 68.4278 172.519 68.7643 174.14L70.2863 181.471C70.6236 183.096 69.5784 184.685 67.9534 185.02L60.564 186.54C58.9441 186.873 57.3601 185.832 57.0227 184.213L55.4959 176.886ZM51.038 155.441C50.7007 153.817 51.745 152.227 53.3694 151.892L60.7654 150.367C62.3866 150.033 63.9722 151.075 64.3086 152.695L65.8306 160.027C66.1679 161.651 65.1225 163.241 63.4973 163.575L56.1013 165.095C54.4808 165.429 52.8965 164.387 52.56 162.767L51.038 155.441ZM46.5823 133.996C46.245 132.372 47.2891 130.783 48.9133 130.448L56.3009 128.923C57.9222 128.589 59.508 129.631 59.8445 131.252L61.3665 138.583C61.7037 140.207 60.6585 141.797 59.0336 142.131L51.646 143.651C50.0253 143.984 48.4408 142.942 48.1042 141.322L46.5823 133.996Z" fill="#D7EBFF"/>
<path fill-rule="evenodd" clip-rule="evenodd" d="M65.3023 105.228L137.338 90.4C138.555 90.1528 139.755 90.9372 140.003 92.148C140.26 93.3588 139.472 94.5525 138.247 94.8083L66.2192 109.636C65.0024 109.892 63.8028 109.099 63.5458 107.888C63.2973 106.677 64.0856 105.484 65.3023 105.236V105.228ZM87.5892 212.441L159.634 197.605C160.85 197.349 162.05 198.142 162.299 199.353C162.556 200.563 161.759 201.757 160.542 202.004L88.5146 216.841C87.2979 217.096 86.0982 216.304 85.8412 215.093C85.5927 213.882 86.381 212.688 87.5978 212.441H87.5892ZM89.2258 220.277C88.009 220.524 87.2207 221.726 87.4692 222.937C87.7263 224.139 88.9259 224.924 90.1426 224.677L133.405 215.775C134.622 215.519 135.419 214.325 135.162 213.115C134.913 211.904 133.705 211.119 132.497 211.367L89.2258 220.277ZM83.1421 190.997L155.169 176.16C156.386 175.905 157.586 176.698 157.843 177.908C158.091 179.119 157.303 180.313 156.086 180.56L84.0504 195.396C82.8336 195.652 81.6255 194.859 81.377 193.648C81.1199 192.438 81.9082 191.244 83.1335 190.997H83.1421ZM84.7701 198.833C83.5534 199.08 82.7565 200.282 83.0136 201.493C83.2621 202.704 84.4617 203.48 85.6784 203.241L128.95 194.331C130.166 194.075 130.946 192.881 130.706 191.67C130.449 190.459 129.25 189.675 128.033 189.922L84.7701 198.833ZM78.6779 169.552L150.722 154.725C151.939 154.469 153.139 155.262 153.387 156.473C153.644 157.683 152.856 158.877 151.639 159.124L79.6033 173.961C78.3865 174.216 77.1869 173.423 76.9384 172.213C76.6814 171.002 77.4697 169.808 78.6864 169.561L78.6779 169.552ZM80.3145 177.388C79.0977 177.644 78.3094 178.838 78.5579 180.049C78.815 181.259 80.0146 182.035 81.2313 181.796L124.494 172.886C125.711 172.63 126.508 171.437 126.251 170.226C126.002 169.015 124.802 168.231 123.586 168.478L80.3145 177.388ZM74.2308 148.108L146.258 133.28C147.475 133.024 148.683 133.817 148.932 135.028C149.189 136.239 148.392 137.433 147.175 137.688L75.1476 152.516C73.9309 152.772 72.7313 151.979 72.4742 150.768C72.2257 149.557 73.014 148.364 74.2308 148.116V148.108ZM75.8588 155.944C74.6421 156.2 73.8452 157.393 74.1023 158.604C74.3507 159.815 75.5589 160.591 76.7756 160.352L120.038 151.442C121.255 151.186 122.052 149.992 121.795 148.782C121.538 147.571 120.338 146.786 119.122 147.034L75.8588 155.944ZM69.7751 126.664L141.811 111.836C143.028 111.589 144.227 112.373 144.485 113.584C144.733 114.795 143.945 115.988 142.728 116.244L70.6834 131.072C69.4667 131.328 68.2671 130.535 68.0186 129.324C67.7615 128.113 68.5584 126.919 69.7751 126.672V126.664ZM71.4032 134.5C70.1864 134.755 69.3981 135.949 69.6466 137.16H69.6552C69.9037 138.371 71.1033 139.147 72.32 138.908L115.591 129.997C116.808 129.742 117.596 128.548 117.348 127.337C117.091 126.126 115.891 125.342 114.674 125.589L71.4032 134.5ZM66.9475 113.055C65.7308 113.311 64.951 114.505 65.1909 115.715C65.448 116.926 66.6476 117.702 67.8643 117.463L111.127 108.553C112.344 108.297 113.141 107.104 112.884 105.893C112.635 104.682 111.427 103.898 110.219 104.145L66.9475 113.055Z" fill="#A4D0FC"/>
<path fill-rule="evenodd" clip-rule="evenodd" d="M61.5442 51.3482L82.4001 48.7305L81.8432 44.3479C81.2434 39.6412 84.6279 35.3097 89.3578 34.7128C94.0962 34.116 98.449 37.484 99.0403 42.1906L99.5972 46.5733L120.453 43.9471C123.306 43.5975 125.946 45.6183 126.297 48.4662L127.548 58.3229C127.908 61.1708 125.86 63.7885 123.007 64.1466L64.0891 71.5391C61.2357 71.8973 58.6052 69.8679 58.2453 67.0201L56.9943 57.1633C56.6344 54.324 58.6737 51.7063 61.5356 51.3482H61.5442ZM90.0176 39.8203C87.9097 40.0931 86.4188 41.9945 86.6844 44.0836C86.9586 46.1811 88.8694 47.6647 90.9687 47.3919C93.0766 47.1275 94.5675 45.2261 94.2933 43.1371C94.0277 41.0396 92.1169 39.5559 90.0176 39.8203Z" fill="#86A5E8"/>
<path fill-rule="evenodd" clip-rule="evenodd" d="M43.6588 112.398C43.1618 111.878 43.1961 111.077 43.7102 110.582C44.2329 110.105 45.0469 110.13 45.5353 110.642L49.5112 114.854L54.4552 103.897C54.7466 103.249 55.5092 102.96 56.1604 103.249C56.803 103.539 57.0943 104.298 56.803 104.946L51.0963 117.608C51.0278 117.779 50.925 117.941 50.7793 118.069C50.2566 118.555 49.434 118.529 48.9542 118.009L43.6588 112.39V112.398ZM48.1145 133.843C47.6261 133.323 47.6603 132.521 48.1745 132.027C48.6971 131.541 49.5026 131.566 49.991 132.086L53.9668 136.298L58.9194 125.342C59.2108 124.694 59.9734 124.404 60.6246 124.694C61.2758 124.984 61.5671 125.743 61.2758 126.391L55.5606 139.053C55.492 139.223 55.3806 139.385 55.2435 139.513C54.7208 139.999 53.8983 139.973 53.4184 139.453L48.1145 133.834V133.843ZM65.9371 219.612C65.4487 219.092 65.483 218.29 65.9971 217.795C66.5198 217.309 67.3424 217.335 67.8222 217.855L71.798 222.067L76.7421 211.119C77.0334 210.471 77.796 210.181 78.4472 210.471C79.0899 210.761 79.3812 211.52 79.0899 212.168L73.3832 224.83C73.3147 225 73.2118 225.162 73.0576 225.29C72.5435 225.776 71.7295 225.751 71.2411 225.231L65.9285 219.612H65.9371ZM61.4814 198.167C60.993 197.647 61.0188 196.846 61.5414 196.351C62.0641 195.865 62.8696 195.891 63.358 196.411L67.3509 200.623L72.2864 189.666C72.5777 189.018 73.3404 188.728 73.9916 189.018C74.6428 189.308 74.9341 190.067 74.6428 190.715L68.9275 203.377C68.859 203.548 68.7476 203.71 68.6105 203.837C68.0878 204.324 67.2824 204.298 66.7854 203.778L61.49 198.159L61.4814 198.167ZM57.0258 176.723C56.5374 176.203 56.5717 175.401 57.0772 174.907C57.5999 174.421 58.4225 174.446 58.9023 174.966L62.8781 179.179L67.8308 168.222C68.1221 167.574 68.8761 167.284 69.5359 167.574C70.1871 167.864 70.4699 168.623 70.1786 169.271L64.4719 181.933C64.4033 182.103 64.2919 182.265 64.1548 182.393C63.6322 182.879 62.8182 182.854 62.3297 182.333L57.0258 176.714V176.723ZM52.5616 155.279C52.0732 154.758 52.0989 153.957 52.6215 153.462C53.1442 152.976 53.9582 153.002 54.4467 153.522L58.4225 157.734L63.358 146.778C63.6493 146.13 64.4119 145.84 65.0717 146.13C65.7143 146.42 66.0057 147.178 65.7143 147.826L59.9991 160.488C59.9391 160.659 59.8277 160.821 59.682 160.949C59.1594 161.435 58.3539 161.409 57.8655 160.889L52.5616 155.27V155.279Z" fill="#6683C2"/>
<path fill-rule="evenodd" clip-rule="evenodd" d="M217.211 175.981H220.827V173.278C220.827 170.303 223.26 167.881 226.259 167.881H250.337C253.327 167.881 255.761 170.303 255.761 173.278V175.777H259.385V173.278C259.385 168.325 255.315 164.274 250.337 164.274H226.259C221.272 164.274 217.211 168.325 217.211 173.278V175.981Z" fill="#F57A44"/>
<path fill-rule="evenodd" clip-rule="evenodd" d="M253.172 179.793C253.172 180.458 253.712 180.995 254.38 180.995H260.609C261.278 180.995 261.818 180.458 261.818 179.793V175.777C261.818 175.12 261.278 174.583 260.609 174.583H254.38C253.712 174.583 253.172 175.12 253.172 175.777V179.793Z" fill="#FC9774"/>
<path fill-rule="evenodd" clip-rule="evenodd" d="M214.547 179.793C214.547 180.458 215.087 180.995 215.746 180.995H221.984C222.653 180.995 223.193 180.458 223.193 179.793V175.777C223.193 175.12 222.653 174.583 221.984 174.583H215.746C215.087 174.583 214.547 175.12 214.547 175.777V179.793Z" fill="#FC9774"/>
<path fill-rule="evenodd" clip-rule="evenodd" d="M184.594 247.75C184.594 251.732 187.841 254.955 191.843 254.955H284.161C288.162 254.955 291.401 251.732 291.401 247.75V182.897C291.401 180.918 289.782 179.298 287.776 179.298H188.218C186.213 179.298 184.594 180.918 184.594 182.897V247.75Z" fill="#F2957D"/>
<path fill-rule="evenodd" clip-rule="evenodd" d="M188.39 182.896H287.957C289.945 182.896 291.573 184.517 291.573 186.503V208.11C291.573 216.073 285.086 222.52 277.092 222.52H243.426V226.212C243.426 229.204 240.993 231.626 237.994 231.626C234.995 231.626 232.561 229.204 232.561 226.212V222.52H199.255C191.252 222.52 184.766 216.065 184.766 208.11V186.503C184.766 184.517 186.394 182.896 188.39 182.896Z" fill="#F37E60"/>
<path fill-rule="evenodd" clip-rule="evenodd" d="M184.766 204.511C184.766 212.467 191.261 218.921 199.255 218.921H277.092C285.086 218.921 291.573 212.467 291.573 204.511V182.897C291.573 180.918 289.945 179.298 287.957 179.298H188.39C186.394 179.298 184.766 180.918 184.766 182.897V204.511Z" fill="#FFAA94"/>
<path fill-rule="evenodd" clip-rule="evenodd" d="M232.562 222.622C232.562 225.606 234.996 228.027 237.995 228.027C240.994 228.027 243.427 225.606 243.427 222.622V214.01H232.562V222.622Z" fill="#FC9774"/>
<path fill-rule="evenodd" clip-rule="evenodd" d="M233.766 222.272C233.766 224.6 235.659 226.476 237.99 226.476C240.321 226.476 242.214 224.6 242.214 222.272V215.579H233.766V222.272Z" fill="#FFE2DC"/>
<path d="M242.906 218.955H233.609V220.396H242.906V218.955Z" fill="#FC9774"/>
<path d="M262.723 107.862H220.531V130.091H262.723V107.862Z" fill="white"/>
<path d="M262.723 136.443H220.531V145.985H262.723V136.443Z" fill="white"/>
<path fill-rule="evenodd" clip-rule="evenodd" d="M242.919 110.19C242.053 108.826 241.274 107.837 240.562 107.24C243.913 105.424 245.772 103.437 246.149 101.271C246.638 101.698 247.057 102.218 247.392 102.823C246.141 105.782 244.658 108.238 242.919 110.19Z" fill="#5EB69B"/>
<path fill-rule="evenodd" clip-rule="evenodd" d="M238.207 110.19C239.073 108.826 239.852 107.837 240.572 107.24C237.213 105.424 235.354 103.437 234.977 101.271C234.488 101.698 234.077 102.218 233.734 102.823C234.985 105.782 236.476 108.238 238.207 110.19Z" fill="#5EB69B"/>
<path fill-rule="evenodd" clip-rule="evenodd" d="M267.874 113.055C264.258 108.067 257.429 104.665 247.395 102.832C246.144 105.79 244.662 108.246 242.922 110.199C242.057 108.834 241.277 107.845 240.566 107.248C239.855 107.845 239.067 108.834 238.201 110.199C236.47 108.254 234.979 105.79 233.728 102.832C223.703 104.665 216.865 108.067 213.25 113.055C210.482 121.121 208.648 127.507 207.766 132.231C210.705 132.854 214.089 133.604 217.911 134.448C217.397 143.546 217.268 151.322 217.517 157.777C222.872 159.329 230.344 162.083 239.247 165.8C239.701 165.783 240.146 165.758 240.566 165.732C240.977 165.758 241.423 165.783 241.886 165.8C250.797 162.091 258.26 159.329 263.616 157.777C263.864 151.331 263.727 143.546 263.221 134.448C267.052 133.595 270.428 132.854 273.358 132.231C272.475 127.507 270.642 121.121 267.874 113.055Z" fill="#7FCBB4"/>
<path fill-rule="evenodd" clip-rule="evenodd" d="M261.617 119.203C262.32 123.764 262.86 128.846 263.22 134.448C263.699 134.346 264.179 134.235 264.65 134.133C264.025 130.662 263.014 125.691 261.617 119.203Z" fill="#5EB69B"/>
<path fill-rule="evenodd" clip-rule="evenodd" d="M219.518 119.203C218.815 123.764 218.275 128.846 217.915 134.448C217.435 134.346 216.956 134.235 216.484 134.133C217.11 130.662 218.121 125.691 219.518 119.203Z" fill="#5EB69B"/>
<path fill-rule="evenodd" clip-rule="evenodd" d="M261.321 175.589C262.4 178.318 260.412 182.734 259.067 183.613C234.561 181.165 219.257 177.738 209.806 172.98C206.996 171.437 202.077 170.771 199.087 168.793C191.847 161.196 197.271 151.22 204.451 151.706C209.472 152.67 211.837 154.102 214.211 156.924C222.805 158.868 240.285 165.783 261.312 175.589H261.321Z" fill="#6683C2"/>
<path fill-rule="evenodd" clip-rule="evenodd" d="M287.389 179.656C288.374 186.316 280.02 187.373 262.848 184.474C270.072 182.095 271.023 180.006 265.65 176.663C280.594 173.969 287.415 173.995 287.389 179.656ZM193.734 179.656C192.749 186.316 201.103 187.373 218.283 184.474C211.06 182.095 210.109 180.006 215.49 176.663C200.546 173.969 193.717 173.995 193.743 179.656H193.734Z" fill="#6682C1"/>
<path fill-rule="evenodd" clip-rule="evenodd" d="M259.386 183.348C260.826 183.621 261.983 183.996 262.848 184.482C270.071 182.104 271.023 180.015 265.65 176.672C264.425 176.732 263.045 176.57 261.503 176.203C262.068 178.701 260.595 182.163 259.386 183.348ZM221.745 183.348C220.297 183.621 219.14 183.996 218.274 184.482C211.051 182.104 210.1 180.015 215.481 176.672C216.698 176.732 218.077 176.57 219.62 176.203C219.063 178.701 220.528 182.163 221.745 183.348Z" fill="#F1BBA2"/>
<path fill-rule="evenodd" clip-rule="evenodd" d="M272.473 147.434C273.064 142.625 272.918 137.663 272.027 132.513C269.799 132.999 267.332 133.544 264.65 134.141C264.187 134.244 263.707 134.354 263.219 134.457C263.707 143.282 263.853 150.853 263.63 157.18C268.017 153.659 270.965 150.41 272.464 147.434H272.473Z" fill="#F1BBA2"/>
<path fill-rule="evenodd" clip-rule="evenodd" d="M208.65 147.434C208.058 142.625 208.213 137.663 209.095 132.513C211.323 132.999 213.791 133.544 216.481 134.141C216.944 134.244 217.432 134.354 217.912 134.457C217.415 143.282 217.278 150.853 217.501 157.18C213.105 153.659 210.158 150.41 208.658 147.434H208.65Z" fill="#F1BBA2"/>
<path fill-rule="evenodd" clip-rule="evenodd" d="M265.764 146.155C265.729 142.719 265.592 138.652 265.387 133.962C265.147 134.014 264.89 134.065 264.65 134.133C264.187 134.235 263.707 134.346 263.219 134.448C263.519 139.888 263.699 144.851 263.733 149.344C264.127 148.884 264.598 148.338 265.138 147.724C266.655 147.076 268.172 146.761 269.697 146.769C267.94 146.232 266.638 146.036 265.772 146.164L265.764 146.155ZM215.355 146.155C215.398 142.719 215.526 138.652 215.732 133.962C215.98 134.014 216.22 134.065 216.469 134.133C216.931 134.235 217.42 134.346 217.9 134.448C217.6 139.888 217.42 144.851 217.386 149.344C216.983 148.884 216.52 148.338 215.989 147.724C214.464 147.076 212.947 146.761 211.422 146.769C213.178 146.232 214.481 146.036 215.346 146.164L215.355 146.155Z" fill="#CF9980"/>
<path fill-rule="evenodd" clip-rule="evenodd" d="M218.17 136.938H262.95C263.37 136.938 263.721 137.288 263.721 137.714V157.751C258.374 159.295 250.877 162.057 241.94 165.775H239.163C230.226 162.066 222.729 159.295 217.391 157.751V137.714C217.391 137.288 217.742 136.938 218.162 136.938H218.17Z" fill="#6682C1"/>
<path fill-rule="evenodd" clip-rule="evenodd" d="M219.484 158.374C224.626 159.977 231.343 162.509 239.175 165.766L239.243 165.8L239.783 165.766H241.343L241.883 165.8C249.74 162.526 256.492 159.994 261.65 158.374V141.824C258.703 145.533 252.859 148.602 245.361 150.436C245.396 150.683 245.413 150.93 245.413 151.194C245.413 153.855 243.245 156.012 240.572 156.012C238.172 156.012 236.185 154.281 235.79 151.996C233.631 152.192 231.403 152.294 229.124 152.294C225.782 152.294 222.543 152.073 219.484 151.672V158.382V158.374Z" fill="#7F9DDD"/>
<path fill-rule="evenodd" clip-rule="evenodd" d="M235.88 78.71C238.896 82.888 243.686 86.5544 250.258 89.7263C248.622 94.612 246.145 99.3954 240.721 100.282C235.529 99.4551 232.658 95.7205 231.484 90.4255C234.269 87.3389 235.734 83.4337 235.88 78.71Z" fill="#F1BBA2"/>
<path fill-rule="evenodd" clip-rule="evenodd" d="M255.557 81.3618C255.557 73.1166 248.77 66.3721 240.493 66.3721C232.216 66.3721 225.43 73.1166 225.43 81.3618V104.946C227.897 104.094 230.665 103.394 233.724 102.832C234.067 102.226 234.487 101.706 234.966 101.28C235.335 103.446 237.194 105.432 240.562 107.249C243.912 105.432 245.771 103.446 246.148 101.28C246.637 101.706 247.057 102.226 247.391 102.832C250.398 103.377 253.123 104.068 255.557 104.904V81.3618ZM235.883 78.71C238.899 82.8881 243.689 86.5545 250.261 89.7264C248.625 94.6121 246.148 99.3955 240.725 100.282C235.532 99.4552 232.662 95.7206 231.488 90.4256C234.272 87.3389 235.738 83.4338 235.883 78.71Z" fill="#5A595A"/>
<path fill-rule="evenodd" clip-rule="evenodd" d="M246.15 101.271C245.773 100.683 245.507 99.6428 245.353 98.1421C244.102 99.2164 242.585 99.9753 240.726 100.282C238.55 99.9412 236.785 99.08 235.371 97.801C235.328 99.1823 235.191 100.333 234.977 101.271C235.345 103.437 237.204 105.424 240.572 107.24C243.922 105.424 245.782 103.437 246.159 101.271H246.15Z" fill="#F1BBA2"/>
<path fill-rule="evenodd" clip-rule="evenodd" d="M245.503 99.2761C245.443 98.9351 245.391 98.5514 245.349 98.1421C244.098 99.2164 242.581 99.9753 240.722 100.282C238.545 99.9412 236.78 99.08 235.366 97.801C235.349 98.2956 235.323 98.7475 235.289 99.1823C236.583 100.061 238.417 100.811 240.764 101.425C242.255 101.033 243.832 100.478 245.503 99.2761Z" fill="#CF9980"/>
<path fill-rule="evenodd" clip-rule="evenodd" d="M225.425 94.2029H232.237L231.363 121.846H228.176L228.776 112.859L227.199 121.846H222.906C224.483 115.366 225.974 101.109 225.425 94.2029Z" fill="#5A595A"/>
<path fill-rule="evenodd" clip-rule="evenodd" d="M248.811 94.5352L255.186 93.998C255.04 103.914 255.177 115.511 256.3 122.221H253.086L252.838 121.385L252.461 122.221H251.313L250.533 116.449L250.31 122.221H247.945L248.819 94.5352H248.811Z" fill="#5A595A"/>
<path fill-rule="evenodd" clip-rule="evenodd" d="M240.574 148.065C242.304 148.065 243.71 149.464 243.71 151.194C243.71 152.925 242.304 154.307 240.574 154.307C238.843 154.307 237.438 152.908 237.438 151.194C237.438 149.481 238.843 148.065 240.574 148.065Z" fill="#7F9DDD"/>
<path fill-rule="evenodd" clip-rule="evenodd" d="M219.81 175.589C218.731 178.318 220.71 182.734 222.064 183.613C246.57 181.165 261.865 177.738 271.316 172.98C274.126 171.437 279.045 170.771 282.035 168.793C289.284 161.196 283.86 151.22 276.671 151.706C271.659 152.67 269.294 154.102 266.912 156.924C258.326 158.868 240.837 165.783 219.819 175.589H219.81Z" fill="#6683C2"/>
<path fill-rule="evenodd" clip-rule="evenodd" d="M238.926 165.673C225.525 170.857 214.977 172.946 207.273 171.923C208.216 172.247 209.09 172.588 209.818 172.988C212.286 174.233 215.157 175.384 218.481 176.45C218.85 176.391 219.244 176.305 219.629 176.211C219.681 175.998 219.741 175.794 219.826 175.598C227.264 172.119 234.256 169.015 240.579 166.355C240.134 166.167 239.688 165.988 239.26 165.809C239.234 165.8 239.217 165.792 239.191 165.775C239.114 165.749 239.029 165.715 238.943 165.681L238.926 165.673Z" fill="#5570AB"/>
<path fill-rule="evenodd" clip-rule="evenodd" d="M261.598 176.774C255.951 178.505 249.027 180.014 240.57 181.319C246.063 182.163 252.206 182.922 259.078 183.612C259.173 183.544 259.284 183.45 259.395 183.348C260.518 182.248 261.855 179.213 261.598 176.774Z" fill="#5570AB"/>
<path fill-rule="evenodd" clip-rule="evenodd" d="M233.782 77.5077C236.353 75.6489 238.366 75.5466 239.814 77.2093C239.943 81.7796 238.469 85.463 235.436 88.2598C236.207 86.1111 235.659 82.5214 233.773 77.5077H233.782Z" fill="#5A595A"/>
</g>
</g>
<defs>
<clipPath id="clip0_2060_723">
<rect width="325.666" height="227.66" fill="white" transform="translate(-2 34.585)"/>
</clipPath>
</defs>
</svg>
