<svg width="163" height="163" viewBox="0 0 163 163" fill="none" xmlns="http://www.w3.org/2000/svg">
<g clip-path="url(#clip0_2011_21)">
<path d="M137.179 162.686H127.693V46.1033L137.081 45.436L137.179 162.686Z" fill="#7799E2"/>
<path d="M162.631 162.686H137.172C137.113 162.686 137.074 162.627 137.074 162.549V45.5737C137.074 45.4952 137.113 45.4363 137.172 45.4363L162.611 46.7709C162.67 46.7709 162.709 46.8298 162.709 46.9083V162.549C162.729 162.627 162.67 162.686 162.631 162.686Z" fill="#6683C2"/>
<path d="M154.282 101.863C154.125 101.863 153.988 101.725 153.988 101.568V54.2287C153.988 54.0717 154.125 53.9343 154.282 53.9343C154.439 53.9343 154.576 54.0717 154.576 54.2287V101.568C154.576 101.725 154.439 101.863 154.282 101.863Z" fill="#4D69A6"/>
<path d="M146.23 84.9836C146.073 84.9836 145.936 84.8463 145.936 84.6892V70.7151C145.936 70.558 146.073 70.4207 146.23 70.4207C146.386 70.4207 146.524 70.558 146.524 70.7151V84.6892C146.524 84.8659 146.386 84.9836 146.23 84.9836Z" fill="#4D69A6"/>
<path d="M146.23 132.873C146.073 132.873 145.936 132.735 145.936 132.578V108.496C145.936 108.339 146.073 108.202 146.23 108.202C146.386 108.202 146.524 108.339 146.524 108.496V132.598C146.524 132.755 146.386 132.873 146.23 132.873Z" fill="#4D69A6"/>
<path d="M91.1909 162.705H76.0215V75.6608L91.1125 72.6971L91.1909 162.705Z" fill="#9FE9FF"/>
<path d="M132.151 162.705H91.2681C91.1897 162.705 91.1113 162.666 91.1113 162.607V72.795C91.1113 72.7362 91.1897 72.6969 91.2681 72.6969L132.151 73.7371C132.23 73.7371 132.308 73.7764 132.308 73.8352V162.607C132.308 162.646 132.23 162.705 132.151 162.705Z" fill="#68CCEA"/>
<path d="M111.71 119.801C111.553 119.801 111.416 119.664 111.416 119.507V79.645C111.416 79.488 111.553 79.3506 111.71 79.3506C111.867 79.3506 112.004 79.488 112.004 79.645V119.507C112.004 119.683 111.886 119.801 111.71 119.801Z" fill="#4BADCB"/>
<path d="M100.937 92.9515C100.78 92.9515 100.643 92.8141 100.643 92.6571V85.8663C100.643 85.7093 100.78 85.5719 100.937 85.5719C101.093 85.5719 101.231 85.7093 101.231 85.8663V92.6571C101.231 92.8141 101.093 92.9515 100.937 92.9515Z" fill="#4BADCB"/>
<path d="M100.937 138.034C100.78 138.034 100.643 137.897 100.643 137.74V103.903C100.643 103.746 100.78 103.609 100.937 103.609C101.093 103.609 101.231 103.746 101.231 103.903V137.759C101.231 137.916 101.093 138.034 100.937 138.034Z" fill="#4BADCB"/>
<path d="M122.521 106.357C122.364 106.357 122.227 106.22 122.227 106.063V99.2718C122.227 99.1148 122.364 98.9774 122.521 98.9774C122.677 98.9774 122.815 99.1148 122.815 99.2718V106.063C122.815 106.22 122.677 106.357 122.521 106.357Z" fill="#4BADCB"/>
<path d="M35.5327 162.706H16.9531V112.677L35.5327 110.617V162.706Z" fill="#FFDA87"/>
<path d="M86.2195 162.706H35.5371V110.735C35.5371 110.676 35.6351 110.636 35.7527 110.636L86.2195 111.48V162.706Z" fill="#F3C55C"/>
<path d="M49.0303 148.162C48.8735 148.162 48.7363 148.025 48.7363 147.868V116.838C48.7363 116.681 48.8735 116.544 49.0303 116.544C49.1871 116.544 49.3243 116.681 49.3243 116.838V147.868C49.3243 148.025 49.1871 148.162 49.0303 148.162Z" fill="#D1A746"/>
<path d="M75.585 151.793C75.4282 151.793 75.291 151.656 75.291 151.499V120.469C75.291 120.312 75.4282 120.175 75.585 120.175C75.7418 120.175 75.879 120.312 75.879 120.469V151.499C75.879 151.656 75.7418 151.793 75.585 151.793Z" fill="#D1A746"/>
<path d="M62.2979 139.625C62.1411 139.625 62.0039 139.487 62.0039 139.33V132.971C62.0039 132.814 62.1411 132.677 62.2979 132.677C62.4547 132.677 62.5919 132.814 62.5919 132.971V139.33C62.5919 139.507 62.4743 139.625 62.2979 139.625Z" fill="#D1A746"/>
<path d="M8.70797 162.705H0.496094V137.897L8.62958 136.033L8.70797 162.705Z" fill="#FFAE99"/>
<path d="M30.7343 162.705H8.70535C8.66615 162.705 8.62695 162.666 8.62695 162.607V136.13C8.62695 136.071 8.66615 136.032 8.70535 136.032L30.7343 136.444C30.7735 136.444 30.8127 136.484 30.8127 136.543V162.607C30.8127 162.666 30.7735 162.705 30.7343 162.705Z" fill="#F37E60"/>
<path d="M24.0967 156.699C23.9399 156.699 23.8027 156.562 23.8027 156.405V140.625C23.8027 140.468 23.9399 140.331 24.0967 140.331C24.2535 140.331 24.3907 140.468 24.3907 140.625V156.405C24.3907 156.562 24.2731 156.699 24.0967 156.699Z" fill="#CB6247"/>
<path d="M17.1377 151.067C16.9809 151.067 16.8438 150.929 16.8438 150.772V146.121C16.8438 145.964 16.9809 145.826 17.1377 145.826C17.2945 145.826 17.4317 145.964 17.4317 146.121V150.772C17.4317 150.929 17.2945 151.067 17.1377 151.067Z" fill="#CB6247"/>
<path d="M102.131 39.5666C100.994 40.5087 101.66 41.3134 100.21 43.4527C99.1518 45.0424 98.2502 45.4153 98.2698 46.4555C98.2894 47.3976 99.0734 48.0649 99.5634 48.4967C101.856 50.4986 105.012 50.2827 106.972 50.1454C108.54 50.0472 110.695 49.8902 110.989 48.9089C111.283 47.9275 109.422 47.2602 109.265 45.3565C109.128 43.8059 110.264 43.3742 110.009 42.0199C109.676 40.2535 107.501 39.3507 107.148 39.2133C105.717 38.6245 103.522 38.4086 102.131 39.5666Z" fill="#363537"/>
<path d="M103.252 39.7631C103.252 39.7631 102.938 36.7602 100.528 37.4079C98.1172 38.0752 100.253 40.6659 102.017 40.9603C103.801 41.2547 103.252 39.7631 103.252 39.7631Z" fill="#363537"/>
<path d="M112.031 91.3421L109.444 95.66L108.033 93.8151L110.307 89.5953L112.031 91.3421Z" fill="white"/>
<path d="M110.34 94.9926C109.654 96.3272 107.929 99.5852 106.263 101.136C105.851 101.509 105.165 101.332 105.028 100.822C104.499 98.9375 104.166 95.0514 106.106 91.97C106.106 91.97 107.027 91.8719 108.752 92.1663L108.36 93.6972L108.576 93.5598C108.889 93.3439 109.32 93.3635 109.634 93.5991L110.124 94.0112C110.418 94.2467 110.516 94.6589 110.34 94.9926Z" fill="#3C3C3C"/>
<path d="M105.972 100.881C105.855 100.881 105.737 100.802 105.698 100.704C104.15 96.8374 106.168 92.4411 106.247 92.2644C106.305 92.1074 106.482 92.0485 106.639 92.127C106.795 92.1859 106.854 92.3625 106.776 92.5196C106.756 92.5588 104.796 96.8571 106.247 100.488C106.305 100.645 106.227 100.802 106.09 100.861C106.051 100.861 106.011 100.881 105.972 100.881Z" fill="white"/>
<path d="M109.323 97.1516C109.264 97.1516 109.225 97.1319 109.166 97.1123L107.872 96.3076C107.735 96.2291 107.696 96.0329 107.774 95.8955C107.853 95.7581 108.049 95.7188 108.186 95.7973L109.479 96.602C109.617 96.6805 109.656 96.8768 109.577 97.0142C109.519 97.1123 109.421 97.1516 109.323 97.1516Z" fill="white"/>
<path d="M108.672 98.2506C108.613 98.2506 108.554 98.231 108.495 98.1917L107.3 97.3281C107.163 97.23 107.143 97.0534 107.241 96.916C107.339 96.7786 107.515 96.759 107.653 96.8571L108.848 97.7207C108.985 97.8188 109.005 97.9955 108.907 98.1328C108.848 98.2114 108.77 98.2506 108.672 98.2506Z" fill="white"/>
<path d="M119.398 93.0105C119.398 93.1086 121.77 98.0349 121.77 98.0349L119.065 98.2312L117.223 94.0311L119.398 93.0105Z" fill="white"/>
<path d="M119.277 97.0141C119.277 97.0141 119.826 95.7777 121.217 96.4057C121.217 96.4057 123.804 99.9385 124.765 102.863C125.039 103.687 124.137 104.433 123.314 104.08C121.374 103.255 118.317 101.489 116.572 98.2506C116.572 98.2506 117.121 96.916 117.983 96.3076L119.277 97.0141Z" fill="#3C3C3C"/>
<path d="M123.982 103.471C123.237 103.471 120.513 103.118 116.985 98.5254C116.887 98.388 116.907 98.2113 117.044 98.1132C117.181 98.0151 117.357 98.0347 117.455 98.1721C121.277 103.177 124.08 102.882 124.099 102.882C124.256 102.863 124.413 102.981 124.433 103.138C124.452 103.295 124.335 103.452 124.178 103.471C124.178 103.471 124.099 103.471 123.982 103.471Z" fill="white"/>
<path d="M121.766 100.704C121.668 100.704 121.57 100.645 121.512 100.547C121.433 100.409 121.492 100.233 121.629 100.154L122.923 99.4281C123.06 99.3496 123.236 99.4085 123.315 99.5459C123.393 99.6833 123.334 99.8599 123.197 99.9384L121.904 100.665C121.864 100.684 121.825 100.704 121.766 100.704Z" fill="white"/>
<path d="M121.121 99.7814C121.023 99.7814 120.906 99.7225 120.867 99.6244C120.788 99.487 120.847 99.3104 121.004 99.2319L122.415 98.5057C122.552 98.4272 122.728 98.4861 122.807 98.6431C122.885 98.7805 122.826 98.9571 122.67 99.0356L121.259 99.7618C121.219 99.7618 121.18 99.7814 121.121 99.7814Z" fill="white"/>
<path d="M106.399 66.6124C106.399 66.6124 113.454 67.8097 118.531 72.8537C119.804 74.1294 120.275 75.9743 119.706 77.6426C118.57 81.0969 116.12 87.3971 112.024 92.1467L108.888 89.5756C108.888 89.5756 109.652 83.6287 111.691 79.9389C113.748 76.2491 101.734 68.2414 101.734 68.2414L106.399 66.6124Z" fill="#539A85"/>
<path d="M120.256 93.9327L116.572 94.9533C116.572 94.9533 109.869 81.509 107.929 79.5659C105.989 77.6229 102.206 74.4434 98.2078 73.305C94.2097 72.1667 94.9152 69.5956 94.9152 69.5956L101.01 67.4563C101.01 67.4563 110.516 71.362 113.652 75.7584C116.807 80.194 120.256 93.9327 120.256 93.9327Z" fill="#3C3C3C"/>
<path d="M108.871 71.5779C110.792 72.834 112.595 74.2668 113.673 75.778C116.809 80.194 120.278 93.9327 120.278 93.9327L116.593 94.9533C116.593 94.9533 109.891 81.509 107.95 79.5659C106.01 77.6229 102.227 74.4434 98.2293 73.305C94.2311 72.1667 94.9367 69.5956 94.9367 69.5956L101.032 67.4563C101.012 67.4759 105.148 69.1638 108.871 71.5779Z" fill="#539A85"/>
<path d="M117.262 84.1587C117.145 84.1587 117.027 84.0802 116.988 83.9624C115.675 80.1156 114.46 77.4267 113.421 75.9547C111.716 73.5603 108.051 71.3032 105.268 69.8312C105.131 69.7527 105.072 69.5761 105.15 69.4387C105.229 69.3013 105.405 69.2424 105.542 69.3209C108.384 70.8322 112.128 73.1285 113.891 75.6211C114.969 77.1323 116.204 79.8801 117.537 83.7858C117.596 83.9428 117.517 84.0998 117.36 84.1587C117.341 84.1587 117.302 84.1587 117.262 84.1587Z" fill="white"/>
<path d="M114.044 90.3019C113.946 90.3019 113.829 90.243 113.79 90.1449C112.437 87.5346 111.242 85.356 110.262 83.6681C110.183 83.5307 110.223 83.3541 110.379 83.2756C110.517 83.1971 110.693 83.2363 110.771 83.3933C111.751 85.1009 112.947 87.2794 114.299 89.8898C114.378 90.0272 114.319 90.2038 114.182 90.2823C114.142 90.3019 114.103 90.3019 114.044 90.3019Z" fill="white"/>
<path d="M101.955 47.7117C101.015 47.3584 99.9564 47.4958 99.1137 48.065C97.7613 49.007 95.8995 50.7734 95.7035 53.4427C95.3703 57.7213 91.5485 68.2412 95.5075 72.9319C95.8407 72.6768 101.759 66.9262 107.463 66.9066C107.326 64.1392 107.659 55.5231 106.581 51.8922C105.875 49.4781 103.504 48.3005 101.955 47.7117Z" fill="#F37E60"/>
<path d="M111.375 53.5406L112.453 50.7144L113.746 50.6555L116.314 53.9528L116.431 54.3846L113.197 60.41L109.199 60.881L109.297 58.1333L110.375 53.521L111.375 53.5406Z" fill="#F3C55C"/>
<path d="M112.459 50.7144L114.34 53.4228L111.361 53.4817L112.459 50.7144Z" fill="white"/>
<path d="M97.5078 58.2118C97.5078 58.2118 99.6441 58.8006 101.526 57.8193L101.565 61.0381C101.565 61.0381 106.308 59.5661 107.542 58.7025C108.777 57.8389 107.856 54.8164 110.169 54.1099C110.169 54.1099 109.679 55.5034 109.875 55.68C110.09 55.837 110.698 55.9351 111.403 55.4641C112.109 55.0127 113.383 54.3846 114.245 54.6005C115.108 54.8164 113.775 58.1333 111.697 58.8399C109.051 59.7427 104.407 65.6896 100.624 66.7102C99.7029 66.9653 98.7425 66.5335 98.331 65.6503C98.1154 65.1793 97.8998 64.5316 97.8214 63.6484C97.5862 61.3914 97.5078 58.2118 97.5078 58.2118Z" fill="#F1BBA2"/>
<path d="M102.473 45.1211L101.238 47.28C100.63 48.3399 100.689 49.6941 101.454 50.6558C101.591 50.8128 101.728 50.9895 101.885 51.1269C102.296 51.5194 102.963 51.382 103.198 50.8717L104.511 48.0062L102.473 45.1211Z" fill="#EAAC8E"/>
<path d="M109.005 43.2367C109.339 43.3348 107.634 48.791 105.889 48.948C104.145 49.105 101.891 47.5349 102.048 45.6311C102.048 45.6311 100.931 45.3171 101.499 43.8647C101.969 42.6479 102.891 43.747 103.165 44.1002C103.224 44.1787 103.302 44.218 103.381 44.2573C104.517 44.4535 103.831 42.3535 107.006 42.1768C106.967 42.1376 107.731 42.8638 109.005 43.2367Z" fill="#F1BBA2"/>
<path d="M6.2445 130.145C9.71348 125.591 13.0061 120.116 13.9076 114.463L14.084 113.384L9.77227 110.754L8.18477 119.115C7.59681 122.824 3.87305 128.634 3.87305 128.634L6.2445 130.145Z" fill="#539A85"/>
<path d="M15.342 131.931L18.2034 131.911L18.8698 126.337C19.0462 124.1 19.2618 121.96 19.105 119.703L18.6346 112.461L13.5781 112.481L14.852 119.272C15.2048 121.823 15.44 124.159 15.4988 126.828L15.342 131.931Z" fill="#539A85"/>
<path d="M15.0452 131.067L15.0844 131.597C15.1236 132.107 15.0844 132.598 14.8296 133.03C14.614 133.403 14.3984 133.933 14.3984 134.521C14.3984 134.521 18.7298 135.522 22.5319 134.58C22.5319 134.58 22.5515 134.129 21.3952 133.874C20.2389 133.619 18.8474 133.442 18.7494 133.049C18.6514 132.657 18.6514 131.617 18.4946 131.401C18.3378 131.185 16.9463 130.851 16.2211 131.401C16.1819 131.381 15.5352 130.93 15.0452 131.067Z" fill="#6683C2"/>
<path d="M22.5065 135.463C22.5261 135.267 22.5261 134.973 22.5065 134.737C22.5065 134.639 22.4085 134.561 22.3105 134.58C21.5462 134.698 18.3712 135.11 14.569 134.521C14.471 134.502 14.373 134.58 14.373 134.698V135.424C14.373 135.62 14.5298 135.797 14.7258 135.836C15.7842 135.974 19.3903 136.307 22.2125 135.777C22.3693 135.777 22.4869 135.64 22.5065 135.463Z" fill="#435F9A"/>
<path d="M20.747 134.443C20.7078 134.443 20.6686 134.443 20.649 134.423C20.4922 134.365 20.4138 134.188 20.4726 134.051L20.6098 133.697C20.6686 133.54 20.845 133.462 20.9822 133.521C21.139 133.58 21.2174 133.756 21.1586 133.894L21.0214 134.247C20.9822 134.365 20.8646 134.443 20.747 134.443Z" fill="#CCDCFF"/>
<path d="M19.8495 134.423C19.8103 134.423 19.7711 134.423 19.7319 134.404C19.5751 134.345 19.5163 134.168 19.5751 134.011L19.7907 133.501C19.8495 133.344 20.0259 133.285 20.1827 133.344C20.3395 133.403 20.3982 133.579 20.3395 133.736L20.1239 134.247C20.0847 134.365 19.9671 134.423 19.8495 134.423Z" fill="#CCDCFF"/>
<path d="M18.8999 134.188C18.8412 134.188 18.7824 134.168 18.7236 134.129C18.5864 134.031 18.5668 133.834 18.6648 133.717L19.0371 133.246C19.1351 133.108 19.3311 133.089 19.4487 133.187C19.5859 133.285 19.6055 133.481 19.5075 133.599L19.1351 134.07C19.0763 134.148 18.9979 134.188 18.8999 134.188Z" fill="#CCDCFF"/>
<path d="M18.008 133.56C17.8904 133.56 17.7924 133.501 17.7336 133.383C17.6748 133.226 17.7336 133.069 17.8708 132.991L18.5568 132.677C18.7136 132.618 18.8704 132.677 18.9488 132.814C19.0076 132.971 18.9488 133.128 18.8116 133.206L18.1256 133.52C18.0864 133.56 18.0472 133.56 18.008 133.56Z" fill="#CCDCFF"/>
<path d="M17.7705 132.598C17.6137 132.598 17.4961 132.48 17.4765 132.323C17.4569 132.166 17.5941 132.029 17.7509 132.009L18.574 131.95C18.7308 131.931 18.868 132.068 18.8876 132.225C18.9072 132.382 18.77 132.52 18.6132 132.539L17.7901 132.598H17.7705Z" fill="#CCDCFF"/>
<path d="M4.03376 127.79L3.77898 128.261C3.54379 128.693 3.23021 129.085 2.77944 129.321C2.38747 129.517 1.9171 129.831 1.60352 130.322C1.60352 130.322 4.68052 133.541 8.38468 134.816C8.38468 134.816 8.63947 134.443 7.81632 133.599C6.97357 132.755 5.89564 131.833 6.05243 131.46C6.22882 131.009 6.71879 130.459 6.77759 130.106C6.83638 129.694 5.73885 128.614 4.83731 128.693C4.81771 128.693 4.52373 127.947 4.03376 127.79Z" fill="#6683C2"/>
<path d="M7.89258 135.582C7.99057 135.444 8.12776 135.248 8.24536 135.071C8.32375 134.934 8.26496 134.777 8.12776 134.718C7.30462 134.345 4.56079 132.991 1.81697 130.538C1.69937 130.44 1.52298 130.459 1.42499 130.597L1.09181 131.107C0.974218 131.283 1.01342 131.499 1.17021 131.637C1.97376 132.324 4.83517 134.581 7.46141 135.68C7.6182 135.758 7.79459 135.719 7.89258 135.582Z" fill="#435F9A"/>
<path d="M7.13042 133.795C7.03242 133.795 6.95403 133.756 6.89523 133.678C6.79724 133.54 6.81684 133.364 6.95403 133.266L7.24801 133.05C7.3852 132.952 7.56159 132.991 7.65958 133.109C7.75758 133.246 7.73798 133.423 7.60079 133.521L7.3068 133.737C7.24801 133.776 7.18921 133.795 7.13042 133.795Z" fill="#CCDCFF"/>
<path d="M6.4029 133.305C6.30491 133.305 6.20691 133.265 6.16772 133.167C6.06972 133.03 6.10892 132.853 6.24611 132.755L6.69688 132.441C6.83407 132.343 7.01046 132.382 7.10846 132.519C7.20645 132.657 7.16725 132.834 7.03006 132.932L6.57929 133.246C6.50089 133.285 6.4617 133.305 6.4029 133.305Z" fill="#CCDCFF"/>
<path d="M5.73906 132.579C5.62146 132.579 5.50387 132.5 5.46467 132.382C5.40588 132.225 5.50387 132.068 5.64106 132.009L6.20943 131.813C6.36622 131.754 6.52301 131.852 6.5818 131.99C6.6406 132.147 6.5426 132.304 6.40541 132.363L5.83705 132.559C5.79785 132.579 5.77825 132.579 5.73906 132.579Z" fill="#CCDCFF"/>
<path d="M6.05454 131.676C6.03494 131.676 6.01535 131.676 6.01535 131.676L5.27059 131.558C5.1138 131.538 4.99621 131.381 5.01581 131.224C5.03541 131.067 5.1922 130.95 5.34899 130.969L6.09374 131.087C6.25053 131.107 6.36812 131.264 6.34852 131.421C6.32893 131.558 6.19173 131.676 6.05454 131.676Z" fill="#CCDCFF"/>
<path d="M6.3881 131.028C6.3489 131.028 6.2901 131.009 6.25091 130.989L5.52575 130.596C5.38856 130.518 5.32977 130.341 5.40816 130.204C5.48656 130.066 5.66294 130.008 5.80014 130.086L6.52529 130.479C6.66248 130.557 6.72128 130.734 6.64288 130.871C6.58409 130.969 6.48609 131.028 6.3881 131.028Z" fill="#CCDCFF"/>
<path d="M27.5063 100.206C28.1889 98.3443 26.8725 96.1475 24.566 95.2996C22.2596 94.4517 19.8365 95.2738 19.1539 97.1358C18.4713 98.9978 19.7877 101.195 22.0942 102.043C24.4006 102.891 26.8237 102.068 27.5063 100.206Z" fill="#F1BBA2"/>
<path d="M29.6879 98.1556C29.6891 97.3427 29.0319 96.6827 28.2201 96.6816C27.4083 96.6804 26.7493 97.3386 26.7481 98.1515C26.747 98.9645 27.4042 99.6244 28.216 99.6256C29.0278 99.6267 29.6868 98.9686 29.6879 98.1556Z" fill="#F1BBA2"/>
<path d="M20.4035 96.7597C21.2153 96.7597 21.8734 96.1006 21.8734 95.2877C21.8734 94.4747 21.2153 93.8157 20.4035 93.8157C19.5917 93.8157 18.9336 94.4747 18.9336 95.2877C18.9336 96.1006 19.5917 96.7597 20.4035 96.7597Z" fill="#F1BBA2"/>
<path d="M28.2042 99.8997C28.0279 99.8997 27.8515 99.8801 27.6751 99.8212C27.4791 99.7623 27.2831 99.6642 27.1263 99.5268C26.9891 99.4287 26.9695 99.2324 27.0675 99.1146C27.1655 98.9773 27.3615 98.9576 27.4791 99.0558C27.5967 99.1343 27.7143 99.2128 27.8515 99.252C28.4786 99.4483 29.1254 99.095 29.3214 98.4866C29.4194 98.1922 29.3802 97.8782 29.243 97.5838C29.1058 97.309 28.851 97.0931 28.557 97.0146C28.0279 96.8576 27.4595 97.0735 27.1851 97.5445C27.1067 97.6819 26.9303 97.7408 26.7931 97.6426C26.6559 97.5641 26.5972 97.3875 26.6951 97.2501C27.1067 96.5435 27.9691 96.2099 28.753 96.4454C29.2038 96.5828 29.5762 96.8968 29.7917 97.309C30.0073 97.7211 30.0465 98.2118 29.9093 98.6436C29.6546 99.4287 28.9686 99.8997 28.2042 99.8997Z" fill="#CE8563"/>
<path d="M20.4583 97.0344C19.9095 97.0344 19.3804 96.7792 19.0472 96.3278C18.7728 95.9549 18.6552 95.4839 18.714 95.0128C18.7728 94.5418 19.0276 94.1296 19.4 93.8549C20.1839 93.2661 21.2814 93.4427 21.8694 94.2082C22.0458 94.4437 22.1438 94.6988 22.2026 94.9736C22.2222 95.1306 22.1242 95.2876 21.9674 95.3072C21.8106 95.3269 21.6538 95.2287 21.6342 95.0717C21.595 94.8755 21.5362 94.7184 21.4186 94.5614C21.0267 94.0511 20.3015 93.9334 19.7723 94.3259C19.5176 94.5222 19.3608 94.797 19.3216 95.0914C19.2824 95.4054 19.3608 95.7194 19.5372 95.9549C19.7919 96.2886 20.2035 96.4652 20.6151 96.426C20.7719 96.4063 20.9287 96.5241 20.9483 96.6811C20.9679 96.8381 20.8503 96.9951 20.6935 97.0148C20.6151 97.0344 20.5367 97.0344 20.4583 97.0344Z" fill="#CE8563"/>
<path d="M28.1442 106.71C27.5759 107.005 26.8507 106.789 26.5567 106.22L24.2637 101.882L26.3411 100.783L28.6342 105.12C28.9282 105.69 28.7126 106.416 28.1442 106.71Z" fill="#F1BBA2"/>
<path d="M2.82383 111.853C2.43186 111.99 2.17707 111.794 2.21627 111.46C2.27507 111.146 2.62784 111.009 3.01982 110.596C3.09821 110.518 1.90269 110.832 1.37352 110.812C1.15794 110.793 0.961949 110.655 0.863955 110.459C0.863955 110.459 0.589573 109.968 1.04034 109.674C1.7067 109.223 3.56858 108.909 4.03895 108.634L5.05809 108.006L6.23401 109.262L4.8033 110.557C4.72491 110.616 4.17614 111.067 3.78417 111.283L2.82383 111.853Z" fill="#F1BBA2"/>
<path d="M15.5579 95.8569C15.5579 95.8569 12.6965 101.745 12.5985 101.902C10.913 104.885 9.71751 106.985 6.20934 109.851L4.40625 107.908L6.07214 105.395C7.58125 103.138 8.85517 100.724 9.83511 98.1728L11.2266 94.5419L15.5579 95.8569Z" fill="#F37E60"/>
<path d="M12.5145 94.2867L15.5327 94.2671L18.7077 97.9177C19.668 99.0167 20.7851 99.9588 22.0199 100.705L24.7245 102.334C25.5672 103.079 25.7436 104.316 25.1361 105.258C24.4697 106.279 23.1174 106.612 22.0787 105.965L19.8248 104.591V115.111H7.18359L12.5145 94.2867Z" fill="#F37E60"/>
<path d="M22.5053 108.398C23.3604 108.398 24.0536 107.66 24.0536 106.749C24.0536 105.839 23.3604 105.101 22.5053 105.101C21.6502 105.101 20.957 105.839 20.957 106.749C20.957 107.66 21.6502 108.398 22.5053 108.398Z" fill="#F1BBA2"/>
<path d="M19.7853 105.277C20.2557 104.453 20.0401 103.432 19.2953 103.001C18.5506 102.569 17.551 102.883 17.0807 103.707C16.6103 104.531 16.8259 105.552 17.5706 105.984C18.3154 106.416 19.3149 106.102 19.7853 105.277Z" fill="#F1BBA2"/>
<path d="M17.2413 87.4764C17.5353 87.5549 17.7901 88.5166 17.8684 88.8699C18.1036 90.1063 17.986 92.2849 17.2805 92.5204C16.6141 92.7363 16.4377 92.4027 15.987 92.7756C15.595 93.0896 15.4186 93.698 15.3598 94.6794C15.3598 94.7382 15.9674 95.3663 16.3397 95.7588C16.4377 95.857 15.5754 96.8579 13.8507 96.7598C11.6752 96.642 11.9104 95.1897 11.8908 95.0915C11.8712 95.013 13.2627 86.5147 17.2413 87.4764Z" fill="#F1BBA2"/>
<path d="M18.3997 87.751C18.4585 88.1436 18.1841 88.5165 17.7921 88.5557C16.7142 88.6735 15.6755 88.9483 14.9111 89.8511C14.1664 90.7343 14.186 95.1895 13.8724 98.0158C13.7352 99.2523 12.4613 100.037 11.2854 99.5859C8.30634 98.4672 6.42486 95.6213 7.63999 93.5213L11.207 87.0641C11.6381 86.3379 12.2849 85.7687 13.1276 85.3762C13.5196 85.1996 14.2056 85.0229 14.6367 85.0033C17.5374 84.8659 18.2429 86.6912 18.3997 87.751Z" fill="#363537"/>
<path d="M15.597 90.3615C14.8523 90.2634 14.6759 88.811 15.1267 88.654C15.5774 88.4774 15.9106 89.2232 15.9106 89.2232L15.597 90.3615Z" fill="#F1BBA2"/>
<path d="M57.0453 104.512L57.2609 108.044C57.2805 108.143 57.2021 108.241 57.1237 108.241L55.399 108.339C55.3206 108.339 55.2618 108.28 55.2422 108.201L54.6738 104.904L57.0453 104.512Z" fill="#F1BBA2"/>
<path d="M57.5702 107.142C57.6878 107.554 57.9229 108.712 58.0209 109.399C58.0797 109.83 57.8053 110.243 57.3938 110.36C56.1982 110.674 53.3564 110.674 50.985 110.773C50.8282 110.773 50.5146 110.694 50.397 110.302C49.9462 108.967 52.4353 108.555 54.8851 107.2C54.9243 107.181 54.9831 107.181 55.0419 107.2C55.0615 107.22 55.1007 107.24 55.1399 107.279C55.5711 107.554 56.2766 107.554 56.7078 107.299L57.1978 107.004C57.3546 106.926 57.5114 106.985 57.5702 107.142Z" fill="#99B9FF"/>
<path d="M58.0738 109.713C58.0738 109.732 58.0738 109.732 58.0738 109.732C58.1326 110.164 57.721 110.439 57.329 110.616C56.1531 111.165 51.4298 110.851 51.2338 110.832C51.2338 110.832 51.2338 110.832 51.2142 110.832C51.1554 110.832 50.5479 110.831 50.3911 110.459C50.3715 110.419 50.3519 110.341 50.3519 110.282C50.3323 110.184 50.3519 110.086 50.3715 109.988C50.3911 109.909 50.4695 109.85 50.5479 109.87C51.4298 110.086 53.4681 110.164 55.5259 109.948C56.8979 109.791 57.4858 109.497 57.7994 109.32C57.8778 109.261 57.9954 109.32 58.015 109.418C58.0346 109.517 58.0542 109.615 58.0738 109.713Z" fill="white"/>
<path d="M54.7306 108.574C54.6718 108.574 54.613 108.555 54.5542 108.515L53.829 107.966C53.6918 107.868 53.6722 107.691 53.7702 107.554C53.8682 107.416 54.0446 107.397 54.1818 107.495L54.907 108.044C55.0442 108.142 55.0637 108.319 54.9658 108.456C54.907 108.535 54.809 108.574 54.7306 108.574Z" fill="#556C9E"/>
<path d="M53.7634 108.967C53.7046 108.967 53.6458 108.947 53.587 108.908L52.9599 108.437C52.8227 108.339 52.8031 108.162 52.9011 108.025C52.9991 107.888 53.1755 107.868 53.3127 107.966L53.9398 108.437C54.077 108.535 54.0966 108.712 53.9986 108.849C53.9398 108.928 53.8418 108.967 53.7634 108.967Z" fill="#556C9E"/>
<path d="M62.0681 72.5594C62.0681 72.5594 63.44 75.2876 63.8908 78.1727C64.322 80.8419 65.8899 91.8721 69.7116 100.724C70.1428 101.725 69.6528 102.765 68.5749 103C68.1437 103.099 67.9673 102.942 67.5949 102.765C67.399 102.667 67.0854 102.392 67.0854 102.392C67.0854 102.392 60.3042 96.7199 57.5408 81.8625C55.7573 72.3043 56.0513 73.0697 56.0513 73.0697L62.0681 72.5594Z" fill="#539A85"/>
<path d="M60.1681 73.7959C60.1681 73.7959 60.9716 78.9773 59.4625 82.8242C58.0122 86.514 57.0911 100.979 57.6398 105.159C57.679 105.414 57.4831 105.67 57.2283 105.709C56.5619 105.807 55.386 105.925 54.5628 105.768C54.406 105.748 54.2885 105.63 54.2493 105.473C53.7201 103.354 49.2712 84.1784 52.407 74.3454L60.1681 73.7959Z" fill="#539A85"/>
<path d="M58.6992 87.3971C58.5424 87.3971 58.4052 87.2793 58.4052 87.1027C58.4052 87.0242 58.3464 84.983 59.1891 83.04C59.4635 82.3923 59.5027 81.7446 59.4831 80.9203C59.4831 80.7633 59.6007 80.6259 59.7575 80.6259C59.9143 80.6063 60.0515 80.7437 60.0515 80.9007C60.0907 81.7839 60.0319 82.5297 59.7183 83.2755C58.9343 85.1008 58.9735 87.0831 58.9735 87.1027C58.9931 87.2597 58.8755 87.3971 58.6992 87.3971Z" fill="#39836D"/>
<path d="M55.4797 82.0588C55.2641 82.0588 55.0485 82.0195 54.8329 81.9214L53.4022 81.2934C52.8535 81.0578 52.5203 80.5083 52.5399 79.9195L52.6379 77.1129C52.6379 76.9362 52.7163 76.7792 52.8535 76.6615C52.9907 76.5437 53.167 76.4848 53.3434 76.5044C55.0093 76.6811 56.5772 76.5241 57.3612 76.4063C57.5572 76.3867 57.7335 76.4456 57.8707 76.5633C58.0079 76.7007 58.0863 76.8774 58.0667 77.054L57.9099 79.998C57.8903 80.4298 57.6748 80.8419 57.3024 81.0971L56.3812 81.7644C56.1461 81.9607 55.8129 82.0588 55.4797 82.0588ZM53.2846 77.0932C53.265 77.0932 53.265 77.0932 53.265 77.1129C53.265 77.1129 53.2454 77.1325 53.2454 77.1521L53.1474 79.9587C53.1278 80.312 53.3434 80.626 53.657 80.7831L55.0877 81.4111C55.4013 81.5485 55.7933 81.5092 56.0677 81.313L56.9888 80.6457C57.2044 80.4887 57.322 80.2531 57.3416 79.998L57.4984 77.0736C57.4984 77.054 57.4984 77.054 57.4788 77.0344C57.4592 77.0344 57.4592 77.0147 57.4396 77.0147C56.636 77.1129 55.0289 77.2699 53.2846 77.0932Z" fill="#39836D"/>
<path d="M62.6791 81.3915C62.5811 81.3915 62.4831 81.3719 62.3851 81.313L60.8172 80.5083C60.6213 80.4102 60.5037 80.2139 60.4645 79.998L60.1117 76.74C60.0725 76.4064 60.3077 76.0923 60.6409 76.0334L62.5419 75.739C62.6987 75.7194 62.8555 75.8176 62.8751 75.9942C62.8947 76.1512 62.7967 76.3082 62.6203 76.3278L60.7192 76.6222C60.6996 76.6222 60.6801 76.6419 60.6801 76.6811L61.0328 79.9392C61.0328 79.9588 61.0524 79.9784 61.0524 79.9784L62.6203 80.7831C62.6399 80.7831 62.6595 80.7831 62.6791 80.7831L63.6199 80.1158C63.7571 80.0177 63.9334 80.0569 64.0314 80.1943C64.1294 80.3317 64.0902 80.5083 63.953 80.6065L63.0123 81.2738C62.9339 81.3523 62.8163 81.3915 62.6791 81.3915Z" fill="#39836D"/>
<path d="M68.5985 104.669C68.3829 103.629 68.3045 103.413 67.795 102.608C67.4226 102 68.3241 101.097 68.7945 101.038C69.5589 100.881 69.4413 101.116 70.3232 102.255L71.0092 103.099C71.0092 103.099 68.7749 105.572 68.5985 104.669Z" fill="#F1BBA2"/>
<path d="M68.4569 104.276L69.3389 102.942C69.7504 102.314 70.6324 102.216 71.1811 102.745L72.2003 103.609C72.2003 103.609 72.3963 104.198 72.3375 104.571C72.2591 105.061 72.1023 105.768 71.7887 106.475C71.3183 107.554 70.0052 109.713 69.5348 110.459C69.4368 110.616 69.2017 110.773 69.0253 110.694C68.8293 110.596 68.6137 110.439 68.4177 110.243C68.1041 109.948 68.2021 108.575 68.3197 107.613C68.3981 107.004 68.3393 105.434 68.3197 104.787C68.3197 104.61 68.3589 104.433 68.4569 104.276Z" fill="#99B9FF"/>
<path d="M68.3651 106.101C68.2279 106.101 68.1103 106.023 68.0907 105.885C68.0515 105.728 68.1495 105.571 68.2867 105.532L69.2471 105.277C69.4039 105.238 69.5606 105.316 69.5998 105.473C69.639 105.63 69.5411 105.787 69.4039 105.827L68.4435 106.082C68.4239 106.101 68.3847 106.101 68.3651 106.101Z" fill="#556C9E"/>
<path d="M68.4393 106.965C68.3022 106.965 68.1846 106.887 68.165 106.749C68.1258 106.592 68.2238 106.435 68.3609 106.396L69.3213 106.141C69.4781 106.101 69.6349 106.18 69.6741 106.337C69.7133 106.494 69.6153 106.651 69.4781 106.69L68.5177 106.945C68.4785 106.965 68.4589 106.965 68.4393 106.965Z" fill="#556C9E"/>
<path d="M69.4223 110.753C69.3243 110.753 69.2263 110.733 69.1479 110.714C68.8539 110.615 68.1483 110.399 68.2267 109.379C68.3051 108.319 69.1283 107.77 69.7162 107.083C70.167 106.553 70.1278 104.315 70.265 103.883C70.5198 103.098 71.6565 102.981 72.2445 103.609C72.6169 104.001 72.6561 104.845 72.6169 105.473C72.5581 106.651 71.8721 108.967 70.9902 110.105C70.5394 110.635 69.8926 110.753 69.4223 110.753Z" fill="white"/>
<path d="M63.3951 51.0486C63.3951 51.0486 64.4338 47.9084 64.473 46.8681C64.5318 45.8279 63.4931 41.0783 63.0815 39.5474C63.0815 39.5474 63.4735 36.6427 61.2588 36.1324C61.102 36.0931 61.004 35.9754 60.9452 35.838C60.7688 35.3473 60.6904 35.0333 60.514 34.4445C60.3573 33.9538 59.6517 34.1697 59.7105 34.7192C59.7301 34.9351 59.9457 36.7015 60.0437 37.4277C60.0633 37.5259 60.0045 37.6436 59.9457 37.7221C59.7889 37.8988 59.6517 38.252 59.9457 38.8801C60.4161 39.8614 60.612 39.567 61.1216 40.3913C61.6312 41.196 61.788 44.1008 61.8076 45.6513C61.8468 47.2018 61.2 48.5168 60.8668 49.086C60.5728 49.6551 63.3951 51.0486 63.3951 51.0486Z" fill="#F1BBA2"/>
<path d="M61.7723 47.7516C61.3803 47.6731 60.9883 47.8693 60.8119 48.2226C60.4396 48.9292 57.7349 51.8732 57.3234 52.1872C56.8334 52.5797 55.4027 54.9742 52.3061 54.8957C52.1297 54.8957 51.9533 54.9545 51.8161 55.0723C51.4633 55.3667 50.6402 55.9359 49.1899 56.3677C48.3275 56.6228 47.622 57.4668 47.5436 59.3509C47.4456 61.608 45.1133 66.024 45.7797 67.7119C46.9752 70.6559 48.8763 69.8316 50.6794 69.2231C50.6794 69.2231 50.797 69.2231 50.699 71.8727C50.5422 75.9158 50.4442 76.0925 56.0298 75.7196C60.2436 75.4448 64.0849 74.8364 64.1241 73.9532C64.1633 73.3055 63.0266 69.7923 62.7914 65.5726C62.5562 61.3528 63.301 54.8957 63.7714 53.247C64.2221 51.7946 63.6734 48.1637 61.7723 47.7516Z" fill="#F3EB5D"/>
<path d="M50.3857 69.8313C50.2681 69.8313 50.1505 69.7528 50.1113 69.635C50.0525 69.478 50.1309 69.321 50.2877 69.2621C50.3269 69.2425 51.738 68.5948 51.5028 64.5517C51.5028 64.3947 51.6204 64.2573 51.7772 64.2377C51.934 64.2181 52.0712 64.3555 52.0908 64.5125C52.3652 69.0855 50.5817 69.7724 50.5033 69.8117C50.4445 69.8313 50.4249 69.8313 50.3857 69.8313Z" fill="#D7CE37"/>
<path d="M55.7946 46.0446C55.8926 46.4175 56.1082 47.3203 56.3238 47.5951C56.8726 48.282 57.3429 50.5195 56.4806 52.0504C55.9906 52.9139 55.9514 53.6205 55.9906 54.013C56.0102 54.2878 55.8926 54.5429 55.6574 54.7C55.1087 55.0532 54.4815 55.2888 53.8348 55.3476L53.6388 55.3673C53.3252 55.4065 53.0312 55.2299 52.894 54.9551C52.4825 54.1112 51.5809 52.3448 51.0125 51.913C50.2482 51.3242 45.8385 46.339 48.7783 44.7885C53.8544 42.08 55.4615 44.9062 55.7946 46.0446Z" fill="#F1BBA2"/>
<path d="M56.9086 46.6137C56.9086 46.6137 56.7518 42.5118 54.0472 41.9622C51.3425 41.4127 48.1087 42.3155 47.2268 43.5127C46.3449 44.7099 47.1092 46.7119 47.1092 46.7119C47.1092 46.7119 46.0705 48.596 47.4424 49.4596C48.8143 50.3232 50.2058 52.5606 51.6365 51.8148C53.0672 51.0886 53.8512 50.2447 53.7924 48.7727C53.7336 46.8492 56.9086 46.6137 56.9086 46.6137Z" fill="#363537"/>
<path d="M136.874 63.1391C137.423 61.3334 137.325 60.1951 136.835 58.9978L135.992 57.3296L138.501 56.3286L139.265 58.2324C139.52 58.8408 139.873 59.41 140.324 59.881L140.735 60.3128L136.874 63.1391Z" fill="#F1BBA2"/>
<path d="M139.609 59.3905C139.668 59.1943 139.923 59.155 140.08 59.2924C140.472 59.7242 141.177 60.4307 141.706 60.784C142.196 61.1177 142.353 61.785 142.079 62.3149C141.295 63.8065 139.296 67.0449 137.179 69.4983C137.042 69.6749 136.67 69.8908 136.16 69.6553C134.435 68.8702 136.082 65.357 137.022 61.6868C137.062 61.5495 137.179 61.4317 137.316 61.4121L137.846 61.3139C138.806 61.1177 139.198 60.6663 139.609 59.3905Z" fill="#24604E"/>
<path d="M136.591 70.0478C136.415 70.0478 136.238 70.0085 136.042 69.93C134.474 69.2234 135.2 66.829 136.023 64.0616C136.258 63.2766 136.513 62.4522 136.728 61.6279C136.787 61.3728 137.003 61.1765 137.257 61.1373L137.787 61.0391C138.629 60.8625 138.963 60.4896 139.335 59.312C139.394 59.1157 139.551 58.9783 139.747 58.9391C139.943 58.8998 140.158 58.9587 140.295 59.0961C140.668 59.4886 141.354 60.1952 141.883 60.5485C142.49 60.9802 142.686 61.7849 142.334 62.4522C141.51 64.0027 139.511 67.2215 137.395 69.6945C137.238 69.8907 136.944 70.0478 136.591 70.0478ZM139.884 59.5082C139.433 60.8821 138.943 61.3924 137.885 61.6083L137.355 61.7064C137.316 61.7064 137.297 61.7457 137.297 61.7653C137.081 62.6093 136.826 63.4336 136.591 64.2383C135.827 66.7505 135.18 68.9094 136.278 69.4001C136.689 69.5767 136.905 69.3608 136.944 69.3216C139.021 66.8879 140.981 63.728 141.804 62.1971C142.02 61.8046 141.902 61.3139 141.53 61.0587C141.02 60.6662 140.354 59.9989 139.884 59.5082Z" fill="black"/>
<path d="M141.602 60.7054C141.602 60.7054 141.68 60.7643 141.72 60.784C142.21 61.1176 142.366 61.7849 142.092 62.3148C141.308 63.8065 139.309 67.0449 137.192 69.4982C137.055 69.6748 136.683 69.8907 136.173 69.6552C136.016 69.5767 135.781 69.3804 135.781 69.3804L135.918 69.2038C137.937 66.6327 139.76 63.9242 141.386 61.0784L141.602 60.7054Z" fill="#F5F0ED"/>
<path d="M136.603 70.0477C136.427 70.0477 136.251 70.0085 136.055 69.93C135.859 69.8514 135.624 69.6552 135.584 69.6159C135.467 69.5178 135.447 69.3412 135.545 69.2038L135.682 69.0271C137.681 66.4757 139.524 63.7476 141.131 60.9409L141.346 60.5484C141.386 60.4699 141.464 60.4306 141.542 60.411C141.621 60.3914 141.699 60.411 141.778 60.4503L141.895 60.5288C142.503 60.9606 142.699 61.7653 142.366 62.4326C141.542 63.9831 139.543 67.2018 137.427 69.6748C137.25 69.8907 136.956 70.0477 136.603 70.0477ZM136.192 69.3412C136.231 69.3608 136.27 69.3804 136.29 69.4C136.701 69.5767 136.917 69.3608 136.956 69.3215C139.034 66.8878 140.994 63.7279 141.817 62.197C141.993 61.8438 141.934 61.4316 141.68 61.1765L141.621 61.2746C140.033 64.0616 138.191 66.7897 136.192 69.3412Z" fill="black"/>
<path d="M136.3 64.7287C136.163 64.7287 136.026 64.6306 136.006 64.4736C135.987 64.3165 136.085 64.1595 136.242 64.1399L137.986 63.8455C138.143 63.8259 138.299 63.924 138.319 64.081C138.339 64.238 138.241 64.3951 138.084 64.4147L136.34 64.7091C136.32 64.7287 136.32 64.7287 136.3 64.7287Z" fill="black"/>
<path d="M136.007 65.7105C135.87 65.7105 135.733 65.6124 135.713 65.4553C135.694 65.2983 135.792 65.1413 135.968 65.1217L137.379 64.9058C137.536 64.8862 137.693 64.9843 137.712 65.1609C137.732 65.318 137.634 65.475 137.458 65.4946L136.047 65.7105C136.047 65.7105 136.027 65.7105 136.007 65.7105Z" fill="black"/>
<path d="M151.073 36.8787C151.073 36.8787 133.59 33.0515 128.279 36.074C127.476 36.5254 126.711 37.4871 126.554 38.3899C126.045 41.1573 127.574 47.1827 136.001 58.5072C136.119 58.6643 136.334 58.7231 136.511 58.6643L139.176 57.6437C139.392 57.5652 139.509 57.3296 139.45 57.1138L135.884 44.6312C135.786 44.2975 136.06 43.9835 136.393 44.0424L153.052 46.0836L151.073 36.8787Z" fill="#F37E60"/>
<path d="M145.925 69.7923L145.591 71.4213C145.141 73.7961 146.865 74.9933 146.865 74.9933L141.75 75.6214C141.75 75.6214 142.867 74.9344 142.632 71.6568L142.338 68.9091L145.925 69.7923Z" fill="#F1BBA2"/>
<path d="M146.019 72.7948C146.45 73.2855 147.214 74.1883 147.782 75.0715C148.155 75.621 147.939 76.2687 147.528 76.7986C146.724 77.8781 145.607 78.722 144.313 79.566C143.177 80.3118 141.903 81.0969 140.374 81.8034C139.963 81.9997 139.022 82.2548 138.395 81.9408C136.513 80.9987 139.649 78.0547 142.118 74.6593C142.216 74.5219 142.373 74.4631 142.55 74.5023L143.138 74.6201C143.725 74.7378 144.313 74.4827 144.627 73.992L145.411 72.834C145.587 72.6378 145.862 72.6181 146.019 72.7948Z" fill="#24604E"/>
<path d="M139.141 82.3923C138.847 82.3923 138.553 82.3531 138.298 82.2157C137.906 82.0194 137.671 81.7447 137.593 81.3718C137.358 80.2923 138.612 78.7222 140.18 76.7399C140.748 76.0137 141.356 75.2679 141.924 74.4828C142.081 74.2669 142.375 74.1491 142.649 74.208L143.237 74.3258C143.708 74.4239 144.178 74.2276 144.433 73.8351L145.217 72.6771C145.334 72.5005 145.511 72.4024 145.726 72.3827C145.942 72.3631 146.138 72.4612 146.256 72.6183C146.667 73.0893 147.451 74.0314 148.059 74.9342C148.451 75.523 148.353 76.2492 147.804 76.995C146.942 78.153 145.707 79.0558 144.511 79.8409C143.433 80.5474 142.12 81.3718 140.533 82.0979C140.219 82.2353 139.69 82.3923 139.141 82.3923ZM142.512 74.7968C142.473 74.7968 142.434 74.8164 142.414 74.8557C141.846 75.6408 141.238 76.4062 140.65 77.1324C139.278 78.8399 137.985 80.4493 138.181 81.2736C138.2 81.3914 138.279 81.568 138.573 81.725C139.063 81.9606 139.886 81.7643 140.298 81.5876C141.826 80.8811 143.12 80.0764 144.178 79.3698C145.511 78.4866 146.55 77.7016 147.314 76.6614C147.588 76.2884 147.863 75.7389 147.549 75.2679C146.961 74.3847 146.197 73.4818 145.805 73.0108C145.785 72.9912 145.766 72.9912 145.746 72.9912C145.726 72.9912 145.707 72.9912 145.687 73.0108L144.903 74.1688C144.511 74.7576 143.806 75.052 143.1 74.9146L142.512 74.7968Z" fill="black"/>
<path d="M147.486 74.6794C147.486 74.6794 147.76 75.0524 147.799 75.0916C147.897 75.229 147.937 75.386 147.976 75.5626C148.074 76.0926 147.878 76.6421 147.505 77.0346C147.407 77.1328 147.29 77.2505 147.153 77.3879C145.663 78.801 143.997 79.9983 142.194 80.9796C141.273 81.4703 139.254 82.5105 138.431 81.9609C138.176 81.7843 138.02 81.2936 138.02 81.2936C138.02 81.2936 138.51 81.588 139.96 80.8618C142.41 79.645 144.076 78.2711 146.114 76.6225C146.506 76.3085 146.78 75.9944 147.074 75.6608C147.29 75.3664 147.447 75.0327 147.486 74.6794Z" fill="#F5F0ED"/>
<path d="M139.061 82.3926C138.747 82.3926 138.473 82.3337 138.277 82.1963C137.943 81.9804 137.767 81.4702 137.747 81.3524C137.708 81.2346 137.747 81.0776 137.845 81.0187C137.943 80.9402 138.061 80.9402 138.179 81.0187C138.257 81.0384 138.708 81.1365 139.844 80.587C142.196 79.4094 143.843 78.0944 145.744 76.5439L145.94 76.3869C146.273 76.1121 146.547 75.8373 146.861 75.4644C147.057 75.2289 147.174 74.9541 147.214 74.6401C147.233 74.5223 147.312 74.4242 147.429 74.3849C147.547 74.3457 147.664 74.4046 147.743 74.4831C147.821 74.6008 148.017 74.856 148.056 74.9149C148.154 75.0719 148.233 75.2681 148.272 75.484C148.39 76.0925 148.174 76.7401 147.723 77.2112C147.625 77.3093 147.508 77.4271 147.351 77.5645C145.861 78.9776 144.176 80.1944 142.334 81.215C140.903 82.0197 139.825 82.3926 139.061 82.3926ZM138.512 81.6272C138.531 81.6664 138.571 81.686 138.59 81.7057C138.806 81.8627 139.609 82.059 142.059 80.7047C143.862 79.7234 145.509 78.5262 146.959 77.1523C147.096 77.0149 147.214 76.8971 147.312 76.8186C147.625 76.485 147.782 76.0336 147.704 75.6018C147.684 75.5037 147.664 75.4251 147.625 75.3466C147.547 75.5233 147.449 75.6803 147.331 75.8373C146.998 76.2495 146.704 76.5439 146.332 76.8579L146.136 77.0149C144.195 78.585 142.53 79.9196 140.119 81.1169C139.374 81.4702 138.865 81.5879 138.512 81.6272Z" fill="black"/>
<path d="M142.629 77.3287C142.61 77.3287 142.59 77.3287 142.571 77.3287L140.67 76.9166C140.513 76.8773 140.415 76.7203 140.454 76.5633C140.493 76.4063 140.65 76.3081 140.807 76.3474L142.708 76.7596C142.865 76.7988 142.963 76.9558 142.923 77.1128C142.884 77.2306 142.767 77.3287 142.629 77.3287Z" fill="black"/>
<path d="M141.572 78.1923C141.552 78.1923 141.532 78.1923 141.513 78.1923L139.964 77.8194C139.808 77.7802 139.71 77.6231 139.749 77.4661C139.788 77.3091 139.945 77.211 140.102 77.2502L141.65 77.6231C141.807 77.6624 141.905 77.8194 141.866 77.9764C141.826 78.0942 141.709 78.1923 141.572 78.1923Z" fill="black"/>
<path d="M139.762 41.8639C144.858 37.5068 161.243 37.3694 161.243 37.3694C161.243 37.3694 163.281 39.8031 162.321 44.7098C162.007 46.3191 160.851 47.7715 159.048 47.7715L148.993 47.85C148.249 47.85 147.68 48.4781 147.7 49.2043C147.896 54.0717 148.053 64.1009 146.661 70.9506C146.602 71.2254 146.387 71.4413 146.132 71.5198C145.485 71.6964 144.231 71.9712 142.859 71.9516C142.428 71.9516 142.075 71.6179 142.016 71.2058L138.684 46.3191C138.587 45.5733 138.586 44.8079 138.704 44.0621C138.841 43.2966 139.135 42.4134 139.762 41.8639Z" fill="#F37E60"/>
<path d="M138.392 45.0631C138.215 45.0631 138.098 44.9257 138.098 44.7687C138.215 40.5882 143.585 39.391 143.644 39.3714C143.801 39.3321 143.958 39.4303 143.997 39.6069C144.036 39.7639 143.938 39.9209 143.762 39.9602C143.703 39.9798 138.784 41.0593 138.686 44.7883C138.686 44.9454 138.568 45.0631 138.392 45.0631Z" fill="#CB6247"/>
<path d="M150.05 38.3508C150.05 38.3508 149.874 38.7041 154.421 39.3518C157.694 39.8228 160.673 39.6069 162.084 39.4696C162.535 39.4107 162.848 38.9789 162.731 38.5275C162.358 37.0555 162.084 35.6816 160.673 31.9329C159.693 29.3422 161.104 24.0037 158.635 21.6289C154.421 17.5858 142.211 24.7496 142.211 24.7496L143.602 26.3786C146.17 29.3814 148.189 32.8357 149.56 36.5452L150.05 38.3508Z" fill="#68CCEB"/>
<path d="M132.123 27.2422C132.163 26.673 132.339 26.045 132.045 25.5936L131.437 24.8085C131.006 24.1412 131.046 23.2384 131.32 22.5122L132.104 20.6084C132.182 20.3925 132.476 20.8832 132.535 21.099L134.671 28.6946C135.024 29.7937 136.239 29.8918 136.925 29.4208L139.747 27.4973L143.079 32.1292C143.079 32.1292 139.845 34.4256 135.69 35.1517C134.75 35.2891 131.653 35.2106 132.123 27.2422Z" fill="#F1BBA2"/>
<path d="M138.803 26.9869L138.96 26.8691C139.763 26.2607 140.625 25.6719 141.507 25.1812L143.781 23.9644L147.328 30.2645L142.468 32.7571L138.803 26.9869Z" fill="#68CCEB"/>
<path d="M148.153 29.126L146.213 30.912C146.076 31.0298 145.919 31.1279 145.742 31.1672C145.37 31.2457 144.978 31.1083 144.723 30.7943L140.901 25.1222C140.607 24.6904 140.157 24.4352 139.647 24.396L137.217 24.1997C136.903 24.1801 136.707 24.553 136.923 24.7885C137.158 25.024 137.511 25.2596 138.001 25.3577C138.314 25.4166 138.55 25.6521 138.589 25.9465C138.785 27.2615 140.294 27.8307 140.294 27.8307C140.294 27.8307 141.764 36.5841 145.899 35.5243C151.406 34.1112 154.562 30.2644 154.562 30.2644L148.153 29.126Z" fill="#F1BBA2"/>
<path d="M148.333 28.5375C148.274 28.5375 148.215 28.5179 148.156 28.4786C148.019 28.3805 147.98 28.2039 148.078 28.0665L148.96 26.7907C149.058 26.6533 149.234 26.6141 149.371 26.7122C149.509 26.8104 149.548 26.987 149.45 27.1244L148.568 28.4001C148.509 28.4983 148.431 28.5375 148.333 28.5375Z" fill="#379EBE"/>
<path d="M154.797 30.0293C154.718 30.0293 154.64 29.99 154.581 29.9312C154.483 29.8134 154.483 29.6171 154.601 29.519C157.521 26.9675 158.403 24.8675 158.795 23.9647L158.854 23.8469C158.912 23.6899 159.089 23.631 159.245 23.6899C159.402 23.7488 159.461 23.9254 159.402 24.0824L159.343 24.2002C158.951 25.1423 158.03 27.3208 154.993 29.9704C154.934 30.0097 154.875 30.0293 154.797 30.0293Z" fill="#379EBE"/>
<path d="M134.611 30.5983L139.295 30.8142C140 30.8535 140.647 30.4021 140.569 29.9114L139.001 20.1177C138.942 19.8037 138.609 19.5878 138.158 19.5485L133.454 19.3522C132.749 19.313 132.102 19.7644 132.18 20.2551L133.748 30.0488C133.807 30.3628 134.14 30.5787 134.611 30.5983Z" fill="white"/>
<path d="M154.148 21.0202L155.501 21.3735C155.814 21.452 155.814 21.8837 155.501 22.0015C151.973 23.3165 150.229 22.8062 149.131 22.6688C148.817 22.6296 148.739 22.1978 149.033 22.0604C149.425 21.8837 149.601 21.4323 149.445 21.0202L148.504 18.6453L150.542 14.6611L152.678 19.8033C152.953 20.4117 153.502 20.8435 154.148 21.0202Z" fill="#F1BBA2"/>
<path d="M146.022 12.9932C144.003 14.4848 144.826 15.839 144.826 15.839C144.963 16.2316 145.316 17.154 145.277 17.3503C145.218 17.5858 144.983 18.0176 145.003 18.155C145.022 18.2924 145.297 18.469 145.708 18.4494C145.708 18.4494 146.433 20.3728 147.021 20.5494C147.629 20.7261 149.412 19.5288 149.412 19.5288L149.706 19.2933C150.647 18.5475 151.039 17.468 151.019 16.2708C151.019 16.2708 150.627 9.59774 146.022 12.9932Z" fill="#F1BBA2"/>
<path d="M146.456 11.7173C145.908 12.0313 145.437 12.5808 145.143 12.6986C144.673 12.8949 144.301 12.4631 143.752 12.8752C143.262 13.2285 142.909 13.6996 142.987 14.2491C143.007 14.3472 143.027 14.4454 143.066 14.5239C143.575 15.8192 144.477 15.7211 144.849 15.6819C144.849 15.6819 146.829 15.1323 147.24 15.1127C147.613 15.0931 148.26 15.4463 148.652 16.1921C148.71 16.2903 148.808 16.3295 148.926 16.3099C149.043 16.2903 149.141 16.1725 149.122 16.0351C149.083 15.6426 149.024 14.8183 149.416 14.6809C149.867 14.5239 150.69 15.2501 150.259 15.9763C150.121 16.1921 150.278 16.5062 150.533 16.5258C150.749 16.5454 150.984 16.4865 151.18 16.1921C151.18 16.1921 151.748 13.8173 150.69 12.2472C149.631 10.7163 147.201 11.3051 146.456 11.7173Z" fill="#363537"/>
<path d="M144.965 18.5866C144.926 18.5866 144.867 18.567 144.828 18.5473C144.554 18.41 144.318 18.0567 144.162 17.6249C144.064 17.3305 144.024 17.0361 144.044 16.8006C144.083 16.3688 144.318 16.2118 144.456 16.1725C144.867 16.0351 145.337 16.4277 145.573 17.1146C145.631 17.2716 145.553 17.4286 145.396 17.4875C145.239 17.5464 145.083 17.4679 145.024 17.3109C144.906 16.9968 144.75 16.8006 144.652 16.7613C144.612 16.8594 144.593 17.1146 144.71 17.4482C144.828 17.7623 144.985 17.9782 145.102 18.037C145.239 18.1156 145.298 18.2922 145.22 18.4296C145.161 18.5277 145.063 18.5866 144.965 18.5866Z" fill="black"/>
<path d="M146.358 18.0174C145.946 18.0174 145.515 17.6445 145.299 17.0753C145.201 16.7809 145.162 16.4669 145.221 16.1921C145.299 15.8781 145.476 15.6426 145.731 15.5641C146.201 15.3874 146.769 15.7996 147.004 16.4865C147.102 16.7809 147.142 17.0949 147.083 17.3697C147.004 17.6837 146.828 17.9193 146.573 17.9978C146.495 17.9978 146.417 18.0174 146.358 18.0174ZM145.966 16.1136C145.946 16.1136 145.946 16.1136 145.927 16.1136C145.868 16.1332 145.829 16.2117 145.809 16.3099C145.77 16.4669 145.789 16.6632 145.868 16.8594C146.005 17.252 146.279 17.4482 146.397 17.409C146.456 17.3893 146.495 17.3108 146.514 17.2127C146.554 17.0557 146.534 16.8594 146.456 16.6632C146.319 16.3099 146.083 16.1136 145.966 16.1136Z" fill="black"/>
<path d="M146.534 16.4668C146.417 16.4668 146.299 16.3882 146.26 16.2705C146.201 16.1135 146.279 15.9565 146.436 15.8976L148.533 15.0733C148.69 15.0144 148.847 15.0929 148.906 15.2499C148.964 15.4069 148.886 15.5639 148.729 15.6228L146.632 16.4471C146.613 16.4668 146.573 16.4668 146.534 16.4668Z" fill="black"/>
</g>
<defs>
<clipPath id="clip0_2011_21">
<rect width="163" height="163" fill="white"/>
</clipPath>
</defs>
</svg>
