<svg width="320" height="198" viewBox="0 0 320 198" fill="none" xmlns="http://www.w3.org/2000/svg">
<g clip-path="url(#clip0_2002_2314)">
<path opacity="0.5" d="M233.394 71.9022C194.463 71.9022 162.914 103.451 162.914 142.382C162.914 181.313 194.463 212.862 233.394 212.862C272.325 212.862 303.874 181.313 303.874 142.382C303.874 103.451 272.325 71.9022 233.394 71.9022Z" fill="#92D5C1"/>
<path opacity="0.5" d="M280.383 50.4717C280.383 56.442 275.522 61.2964 269.543 61.2964C263.564 61.2964 258.703 56.442 258.703 50.4717C258.703 44.5013 263.564 39.6469 269.543 39.6469C275.522 39.6469 280.383 44.5013 280.383 50.4717Z" fill="#92D5C1"/>
<path d="M298.485 35.5178C298.485 40.1491 294.742 43.8875 290.104 43.8875C285.466 43.8875 281.723 40.1491 281.723 35.5178C281.723 30.8866 285.466 27.1482 290.104 27.1482C294.742 27.1482 298.485 30.8866 298.485 35.5178Z" fill="#92D5C1"/>
<path d="M289.323 65.5368C288.597 64.8115 287.479 64.8115 286.753 65.5368C286.027 66.2622 286.027 67.3782 286.753 68.1035C289.826 71.2282 289.826 76.25 286.697 79.3188C285.971 80.0442 285.971 81.1602 286.697 81.8855C287.424 82.6109 288.541 82.6109 289.267 81.8855C293.793 77.3659 293.849 70.0564 289.323 65.5368Z" fill="#F37E60"/>
<path d="M294.353 86.9631C301.673 79.7094 301.729 67.8245 294.465 60.4592C293.739 59.7339 292.621 59.7339 291.895 60.4592C291.168 61.1846 291.168 62.3006 291.895 63.0259C297.762 68.9405 297.762 78.5377 291.783 84.4522C291.057 85.1776 291.057 86.2936 291.783 87.0189C292.509 87.6327 293.683 87.6327 294.353 86.9631Z" fill="#F37E60"/>
<path d="M285.412 71.2282C284.016 69.8333 281.78 69.8333 280.384 71.2282C278.987 72.6232 278.987 74.8551 280.384 76.25C281.78 77.645 284.016 77.645 285.412 76.25C286.809 74.9109 286.809 72.6232 285.412 71.2282Z" fill="#F37E60"/>
<path d="M284.459 161.53L284.41 156.91C284.41 156.467 284.065 156.123 283.573 156.123C281.851 156.123 280.473 157.549 280.473 159.269V161.481L275.354 161.53H274.517C273.582 161.53 272.844 162.316 272.844 163.201C272.844 163.84 273.237 164.38 273.73 164.675C273.188 164.97 272.844 165.511 272.844 166.15C272.844 166.789 273.237 167.329 273.73 167.624C273.188 167.919 272.844 168.46 272.844 169.099C272.844 169.787 273.287 170.426 273.927 170.671C273.287 170.917 272.844 171.507 272.893 172.244C272.893 173.178 273.68 173.915 274.566 173.915H275.403L282.983 173.866H283.672C285.394 173.866 286.822 172.441 286.822 170.721L286.772 164.675C286.871 163.102 285.837 161.874 284.459 161.53Z" fill="#F37E60"/>
<path d="M291.645 162.66H289.283C288.643 162.66 288.102 163.201 288.102 163.84L288.151 171.311C288.151 171.95 288.692 172.49 289.332 172.49H291.694C292.334 172.49 292.876 171.95 292.876 171.311L292.826 163.84C292.826 163.152 292.285 162.66 291.645 162.66Z" fill="#F37E60"/>
<path d="M262.955 37.5264H21.6836V195.601H262.955V37.5264Z" fill="#CAD9F8"/>
<path d="M260.942 41.6556H23.75V44.5013H260.942V41.6556Z" fill="#E2E2E2"/>
<path d="M249.208 24.5814H199.367V29.7705H249.208V24.5814Z" fill="#6683C2"/>
<path d="M262.899 34.8482L258.373 26.4227H27.1034L22.2422 30.7749V41.6555H262.899V34.8482Z" fill="#6683C2"/>
<path d="M252.504 31.5004L257.086 36.0758" stroke="white" stroke-width="2.21687" stroke-miterlimit="10" stroke-linecap="round"/>
<path d="M257.086 31.5004L252.504 36.0758" stroke="white" stroke-width="2.21687" stroke-miterlimit="10" stroke-linecap="round"/>
<mask id="mask0_2002_2314" style="mask-type:luminance" maskUnits="userSpaceOnUse" x="21" y="-7" width="244" height="203">
<path d="M264.405 -7H22.8543L21.625 195.601H263.176L264.405 -7Z" fill="white"/>
</mask>
<g mask="url(#mask0_2002_2314)">
<path opacity="0.4" d="M57.2736 193.035C52.6359 181.038 53.5858 148.118 84.1498 107.72C78.0594 85.0104 86.9436 48.8535 102.868 41.6556L130.694 42.3252C130.694 42.3252 158.52 121.781 152.765 192.979H57.2736V193.035Z" fill="#9B9B9B"/>
</g>
<path d="M222.779 29.157C222.332 26.4229 221.103 24.191 221.941 18.2764C222.221 16.2677 221.885 16.1561 222.109 14.4822C222.221 13.5894 222.835 12.6966 222.835 11.9155C222.835 9.40459 222.556 9.68357 222.556 8.28863C222.947 5.10816 228.199 9.96256 226.3 16.4909C226.467 20.0061 226.858 19.9503 227.194 19.6714C227.361 19.504 228.982 18.1648 230.211 14.7054C230.826 12.9756 231.217 9.62778 231.943 7.73065C232.725 5.77774 233.172 3.88062 234.178 2.26248C235.351 0.421159 236.413 -0.638997 237.475 0.64435C237.81 1.03493 237.642 2.48567 236.804 4.38279C236.19 5.77774 236.19 6.33571 235.519 8.12124C234.96 9.85097 233.899 14.9844 234.01 15.0959C234.122 15.1517 235.743 11.1901 237.922 7.11688C238.76 5.61034 239.375 4.66178 239.877 3.71322C240.66 2.15089 241.945 2.09509 242.28 2.42988C243.006 3.21104 242.951 4.2154 242.001 6.44731C241.498 7.67486 240.716 9.18139 239.989 10.6321C238.425 13.6452 237.251 16.3235 237.363 16.4909C237.363 16.4909 237.642 17.551 237.978 17.0489C239.263 15.1517 242.168 9.014 243.789 6.83789C244.962 5.27556 245.688 6.39151 245.633 7.73065C245.633 8.23283 245.521 9.18139 244.683 10.5205C244.292 11.0785 243.621 13.0314 242.895 14.3148C241.945 15.9887 240.716 18.2764 240.771 18.388C240.771 18.388 241.051 19.0018 241.386 18.4438C242.057 17.3279 242.895 15.3749 244.012 13.6452C244.459 12.4177 245.186 11.3575 245.633 10.9111C246.191 10.3531 246.694 10.9111 246.806 11.2459C247.197 12.3061 247.029 12.7524 246.471 14.2032C246.024 15.3191 245.577 16.3793 245.297 16.8257C244.739 17.83 243.845 19.4482 243.398 20.4525C242.671 21.9591 241.777 23.5772 241.163 25.2511C239.877 28.878 235.631 34.0672 233.172 36.7454C232.614 38.8658 227.641 55.1587 227.641 55.1587C227.641 55.1587 215.683 55.7167 216.689 52.4246C217.806 49.1325 221.606 33.844 222.779 29.157Z" fill="#FFA383"/>
<path d="M154.781 103.256C159.028 105.042 184.675 93.8822 194.788 92.543C197.526 92.0966 207.081 57.4463 211.719 45.952C216.133 34.9598 239.601 48.6302 238.26 55.047C236.863 61.4637 216.468 111.514 212.557 116.871C208.645 122.227 166.683 139.19 163.107 151.521" fill="#F37E60"/>
<path d="M216.13 43.7201C218.03 40.707 220.377 36.8011 220.879 34.4576C221.382 32.1699 235.128 36.9127 233.899 39.4794C232.055 43.2737 231.831 47.7933 231.887 49.523C231.887 52.2013 214.901 45.673 216.13 43.7201Z" fill="#E45F3C"/>
<path d="M229.875 49.1324C229.875 49.1324 230.099 42.8273 232.669 38.9214L229.875 49.1324Z" fill="#9B9B9B"/>
<path d="M228.258 48.2396C228.258 48.2396 228.481 41.9344 231.052 38.0286L228.258 48.2396Z" fill="#9B9B9B"/>
<path d="M226.133 47.6259C226.133 47.6259 226.3 41.4881 229.318 37.4149L226.133 47.6259Z" fill="#9B9B9B"/>
<path d="M224.344 46.9005C224.344 46.9005 224.567 40.7627 227.64 36.6895L224.344 46.9005Z" fill="#9B9B9B"/>
<path d="M221.887 45.9518C221.887 45.9518 223.004 39.3677 225.966 36.0198L221.887 45.9518Z" fill="#9B9B9B"/>
<path d="M220.266 45.3381C220.266 45.3381 221.383 38.754 224.345 35.4061L220.266 45.3381Z" fill="#9B9B9B"/>
<path d="M218.031 44.1665C218.031 44.1665 219.708 38.0287 222.781 35.0157L218.031 44.1665Z" fill="#9B9B9B"/>
<path d="M154.67 108.557C151.373 100.745 158.86 59.2876 151.597 43.3853C147.126 33.6207 136.622 27.8177 127.402 31.5561C120.306 31.333 115.78 36.5779 112.26 42.8831C105.611 54.8796 112.092 68.1036 108.293 71.5073C102.091 77.0871 97.1177 81.3835 97.2854 87.856C97.5647 97.4532 104.493 100.522 103.041 107.664C98.794 127.807 154.67 108.557 154.67 108.557Z" fill="#59514D"/>
<path d="M110.863 73.4041C109.075 81.4948 114.16 85.6796 114.886 90.1434C115.557 94.2725 114.774 100.131 110.919 102.586L119.189 100.801L121.424 83.5593L115.501 72.8462L110.863 73.4041Z" fill="#423935"/>
<path d="M138.404 99.9083C148.182 104.372 163.436 114.639 166.118 122.785C168.801 130.932 159.246 165.08 158.799 174.845C158.352 184.553 158.128 190.189 157.905 195.49C157.57 203.525 90.9098 201.069 91.2451 192.532C91.4686 187.232 91.748 181.596 92.1391 171.887C92.5861 162.179 86.0486 127.305 89.4571 119.382C92.8655 111.514 108.958 102.587 119.071 99.0155L138.404 99.9083Z" fill="#F37E60"/>
<path d="M156.4 67.7129C155.729 71.563 152.489 76.4174 149.639 74.7993C147.348 73.4601 145.504 71.3956 146.175 67.4898C146.845 63.6397 148.968 61.7984 152.097 61.2962C155.45 60.8498 157.07 63.8629 156.4 67.7129Z" fill="#E5886E"/>
<path d="M155.673 62.747C155.115 61.9658 151.762 61.4078 150.645 64.2535L151.147 61.5194C151.147 61.5194 152.265 61.073 153.494 61.2962C155.17 61.6868 155.673 62.747 155.673 62.747Z" fill="#FFA383"/>
<path d="M106.109 65.4811C106.445 69.3869 109.238 74.5203 112.2 73.1254C114.602 72.0094 116.614 70.0565 116.279 66.1507C115.943 62.2448 113.988 60.2361 110.915 59.4549C107.618 58.7296 105.774 61.5752 106.109 65.4811Z" fill="#E5886E"/>
<path d="M107.227 60.6268C107.897 59.9015 111.25 59.6225 112.088 62.5797L111.864 59.7899C111.864 59.7899 110.803 59.2319 109.517 59.3993C107.841 59.6225 107.227 60.6268 107.227 60.6268Z" fill="#FFA383"/>
<path d="M117.619 84.1732C118.681 88.4696 116.557 97.9552 116.166 100.355C115.272 100.689 109.349 103.368 109.349 103.368C107.673 109.226 112.478 113.913 117.004 120.107C122.145 127.082 128.012 137.181 127.565 145.048L129.465 145.104C133.767 128.756 144.327 108.724 141.869 101.694C141.59 100.745 139.857 92.7102 141.645 85.7913L117.619 84.1732Z" fill="#FFA383"/>
<path d="M117.902 86.6842C117.902 86.6842 118.014 88.1907 117.734 90.7574C117.734 90.7574 124.328 99.2944 129.301 99.5176C134.274 99.7408 140.979 92.4313 140.979 92.4313C140.979 92.4313 141.09 87.3537 141.426 85.2334L117.902 86.6842Z" fill="#E5886E"/>
<path d="M151.259 59.399C150.756 70.2238 141.592 78.5934 130.752 78.147C119.912 77.6449 111.531 68.494 111.978 57.6693C112.593 43.1061 121.7 36.522 132.54 37.0241C143.38 37.4705 151.873 45.1706 151.259 59.399Z" fill="#FFA383"/>
<path d="M151.258 59.3991C150.811 69.889 150.42 78.6493 146.173 84.1732C143.603 87.5211 137.066 93.1009 132.484 94.44C131.366 94.7748 128.126 94.44 127.008 93.9936C122.594 92.2081 117.062 86.182 114.883 82.8341C111.139 76.9753 111.531 68.1593 111.978 57.6693" fill="#FFA383"/>
<path d="M143.156 67.211C143.1 68.9965 141.927 70.3914 140.642 70.3356C139.301 70.2798 138.295 68.7733 138.407 66.9878C138.463 65.2022 139.636 63.8073 140.977 63.8631C142.262 63.9189 143.268 65.4254 143.156 67.211Z" fill="#030304"/>
<path d="M124.603 66.2624C124.547 68.0479 123.374 69.4429 122.033 69.3871C120.692 69.3313 119.686 67.8247 119.798 66.0392C119.853 64.2537 121.027 62.8588 122.368 62.9146C123.653 62.9703 124.659 64.4769 124.603 66.2624Z" fill="#030304"/>
<path d="M135.278 57.781C135.278 57.781 135.502 57.6695 135.837 57.6137C136.228 57.5021 136.731 57.3905 137.346 57.2789C138.631 57.1115 140.307 57.0557 142.039 57.3347C142.486 57.3905 142.878 57.5021 143.269 57.6137C143.66 57.7253 144.107 57.8926 144.442 58.0042C144.833 58.1716 145.168 58.339 145.504 58.5064C145.839 58.6738 146.174 58.897 146.454 59.0644C146.733 59.2318 146.956 59.455 147.18 59.6782C147.403 59.8456 147.571 60.0688 147.683 60.2361C147.962 60.5709 148.074 60.7383 148.074 60.7383C148.186 60.9057 148.13 61.0731 147.962 61.1847C147.906 61.2405 147.85 61.2405 147.795 61.2405H147.739C147.739 61.2405 147.515 61.2405 147.18 61.1289C147.012 61.0731 146.789 61.0731 146.565 61.0173C146.342 60.9615 146.062 60.9057 145.783 60.9057C145.504 60.8499 145.168 60.7941 144.833 60.7383C144.498 60.6825 144.163 60.6267 143.827 60.5709C143.436 60.5151 143.101 60.4593 142.71 60.3477C142.319 60.2919 141.928 60.1803 141.592 60.1246C140.81 59.9572 140.028 59.7898 139.301 59.6224C138.575 59.455 137.905 59.2876 137.29 59.1202C136.117 58.7854 135.278 58.3948 135.278 58.3948C135.111 58.339 135.055 58.1158 135.111 58.0042C135.111 57.8926 135.223 57.8368 135.278 57.781Z" fill="#59514D"/>
<path d="M127.676 58.7294C127.676 58.7294 127.452 58.7852 127.117 58.8968C126.95 58.9526 126.726 59.0084 126.503 59.0641C126.279 59.1199 126 59.2315 125.72 59.2873C125.162 59.4547 124.491 59.5663 123.765 59.7337C123.038 59.9011 122.312 60.0127 121.53 60.1243C121.139 60.1801 120.803 60.2359 120.412 60.3475C120.021 60.4033 119.686 60.4591 119.35 60.5149C119.015 60.5707 118.68 60.6265 118.345 60.6823C118.009 60.7381 117.73 60.7939 117.451 60.8497C117.171 60.9055 116.892 60.9613 116.668 60.9613C116.445 61.0171 116.221 61.0171 116.054 61.0729C115.719 61.1287 115.495 61.1845 115.495 61.1845H115.439C115.216 61.1845 115.048 61.0171 114.992 60.7939C114.992 60.6823 114.992 60.6265 115.048 60.5149C115.048 60.5149 115.16 60.3475 115.439 60.0127C115.551 59.8453 115.719 59.6779 115.942 59.5105C116.166 59.3431 116.389 59.1199 116.668 58.9526C116.948 58.7852 117.227 58.6178 117.562 58.3946C117.898 58.2272 118.233 58.0598 118.624 57.9482C119.015 57.8366 119.406 57.6692 119.797 57.6134C120.189 57.5018 120.636 57.446 121.027 57.3902C122.703 57.1112 124.379 57.167 125.609 57.3902C126.223 57.5018 126.726 57.6134 127.117 57.725C127.452 57.8366 127.676 57.9482 127.676 57.9482C127.899 58.0598 127.955 58.283 127.899 58.5062C127.844 58.6178 127.788 58.6736 127.676 58.7294Z" fill="#59514D"/>
<path d="M127.399 77.3659C128.572 76.9196 132.651 77.087 133.601 77.6449C134.551 78.2029 131.478 78.7609 130.472 78.7051C129.354 78.6493 126.449 77.7565 127.399 77.3659Z" fill="#E5886E"/>
<path opacity="0.5" d="M132.876 88.9718C131.088 88.5813 128.015 88.5255 126.562 88.6929C125.556 88.8045 127.903 87.9117 129.691 88.0233C131.423 88.0791 133.826 89.195 132.876 88.9718Z" fill="#E5886E"/>
<path d="M124.379 81.5509C128.179 82.8343 132.817 82.8343 136.393 82.5553C136.84 82.4995 136.616 82.6111 136.225 83.1132C135.499 83.9502 133.208 86.4611 130.134 86.2937C127.173 86.1263 124.659 82.4437 124.044 81.3835C123.765 81.0487 124.044 81.4393 124.379 81.5509Z" fill="white"/>
<path d="M111.754 70.447C110.245 69.331 109.351 67.9919 110.413 66.318C110.692 65.9274 111.083 65.481 111.642 65.0346C114.38 62.8027 112.927 67.7687 112.927 67.7687L111.754 70.447Z" fill="#FFA383"/>
<path d="M123.435 80.8253C125.838 81.2159 128.799 79.8767 130.196 81.3833C132.096 80.2115 135.281 82.3318 137.739 82.3318C137.795 82.3318 137.851 82.4434 137.683 82.4434C136.398 82.834 129.134 84.2847 123.379 81.1043C123.1 80.9369 123.155 80.7695 123.435 80.8253Z" fill="#865B57"/>
<path d="M123.602 81.1044C123.602 81.1044 125.501 84.2291 126.898 85.5124C128.239 86.74 131.927 87.1306 133.492 86.1262C134.888 85.1776 137.235 82.4436 137.235 82.4436L136.676 82.6109C135.335 83.3921 134.553 84.2291 133.045 84.7313C131.536 85.2334 129.916 85.2892 128.407 84.7871C126.451 84.1733 126.06 82.7225 124.719 81.6066L124.049 81.216L123.602 81.1044Z" fill="#865B57"/>
<path d="M124.941 81.8298C125.947 82.611 127.903 83.3363 130.305 83.5037C133.267 83.7269 136.34 82.7226 136.34 82.7226C136.34 82.7226 133.155 83.1689 130.417 83.0574C127.568 82.9458 124.941 81.8298 124.941 81.8298Z" fill="#E2E2E2"/>
<path d="M111.753 70.4469C111.753 64.4766 113.933 55.9395 117.732 52.5359C120.917 49.6902 126.058 46.6771 125.331 41.4879C125.331 41.4879 124.214 47.5699 130.136 51.4757C134.383 54.2656 154.61 54.5446 148.575 70.8375L150.866 68.6056L151.202 60.2917L145.614 52.0337L124.828 37.7495L113.709 52.3685L110.859 62.5237L111.753 70.4469Z" fill="#E5886E"/>
<path d="M150.476 71.1724C150.643 65.76 151.146 61.5194 146.955 57.4462C141.033 51.699 135.445 53.373 130.64 49.8019C126.114 46.454 124.549 41.4323 125.276 36.6337L132.428 35.9641L139.692 37.3032L147.905 43.8316L151.928 53.373C151.928 53.373 152.711 56.7208 152.208 62.2448C151.649 67.7688 150.476 71.1724 150.476 71.1724Z" fill="#59514D"/>
<path d="M126.618 36.6895C112.929 40.9301 111.923 47.7374 110.805 55.6049C109.688 63.5282 111.811 70.4471 111.811 70.4471C111.532 66.9876 112.37 54.21 119.131 49.5787C125.892 44.9475 125.445 41.5439 125.445 41.5439L126.618 36.6895Z" fill="#59514D"/>
<path d="M125.331 41.488C125.331 41.488 124.325 34.9039 127.398 31.5002C127.398 31.5002 124.772 31.7234 123.711 35.1271C122.761 38.3075 125.331 41.488 125.331 41.488Z" fill="#423934"/>
<path d="M106.053 105.097C105.103 110.621 108.623 114.75 114.043 122.172C119.463 129.593 125.442 137.404 125.889 144.881C126.392 153.474 122.481 195.322 122.481 195.322L126.504 195.49L129.521 145.049C129.688 139.134 125.721 132.829 122.704 127.807C119.743 122.785 112.535 114.36 110.97 111.179C109.461 107.999 108.735 105.879 109.35 103.368C109.294 103.312 107.226 102.642 106.053 105.097Z" fill="#E45F3C"/>
<path d="M129.19 144.267C129.972 141.478 132.71 134.001 133.716 131.769C134.722 129.481 136.454 133.945 136.454 133.945C136.454 133.945 129.134 152.47 128.576 158.607C128.073 164.745 127.961 149.233 127.961 149.233L129.19 144.267Z" fill="#E45F3C"/>
<path d="M162.992 151.465C163.886 146.946 167.35 138.297 165.954 130.653C164.557 123.064 168.356 129.76 170.982 130.932C173.609 132.103 209.369 122.618 212.442 116.815C212.442 116.815 211.716 117.987 209.648 119.27C205.514 121.837 197.412 126.022 188.919 130.82C169.697 141.645 163.774 147.727 162.992 151.465Z" fill="#E45F3C"/>
<path d="M182.324 95.835C184.727 95.0539 194.17 93.4357 197.578 97.3416C200.987 101.247 201.21 97.5648 199.813 95.8908C198.416 94.2169 196.964 89.9205 197.187 88.5255C196.237 90.869 195.679 91.7618 195.064 92.3756C193.946 92.8778 193.443 92.2082 182.324 95.835Z" fill="#E45F3C"/>
<path d="M212.835 43.9989C211.997 45.2265 217.641 49.8577 225.575 52.3686C233.509 54.8795 237.812 55.2143 238.259 54.3215C238.259 54.3215 238.594 55.0469 235.185 63.8629C235.185 63.8629 236.862 57.6694 233.23 57.3904C228.927 56.9998 219.261 54.6005 213.841 48.128C212.612 46.6772 211.718 47.291 209.93 50.5831C211.606 46.175 212.053 44.6685 212.835 43.9989Z" fill="#E45F3C"/>
<path d="M106.055 143.598C106.055 143.598 100.02 157.77 102.256 161.118C104.546 164.41 109.408 165.247 109.408 167.535C109.408 169.823 104.044 167.033 104.379 169.265C104.602 170.827 121.03 185.167 124.662 190.747C126.226 193.146 124.159 199.395 124.606 200.288L122.706 200.232C117.398 195.768 98.456 175.96 98.456 175.96C98.456 175.96 92.9802 155.873 93.6507 154.534C94.377 153.195 98.5677 142.761 99.0147 142.035C99.5735 141.198 106.055 143.598 106.055 143.598Z" fill="#E45F3C"/>
<path d="M91.0239 116.815C84.8776 121.781 60.1806 163.629 63.4772 177.579C66.271 189.463 97.282 214.572 101.92 215.8C110.022 217.92 132.037 196.103 121.42 190.245C110.804 184.386 97.3938 167.312 96.7233 165.136C96.0528 162.904 107.563 140.417 107.563 140.417" fill="#F37E60"/>
<path d="M161.261 160.058C159.081 165.024 149.974 175.737 150.588 179.643C151.203 183.549 158.634 186.897 158.02 193.09C158.02 193.09 158.076 173.784 161.261 160.058Z" fill="#E45F3C"/>
<path d="M128.965 124.459C129.3 127.974 131.814 136.623 131.814 136.623L133.547 132.382C133.547 132.382 129.691 130.374 128.965 124.459Z" fill="#E2E2E2"/>
<path d="M131.812 136.623C135.556 139.525 151.313 141.98 157.18 133.052C163.047 124.124 160.756 116.815 160.756 116.815L133.545 132.382L131.812 136.623Z" fill="#E45F3C"/>
<path d="M63.1426 173.115C63.422 177.523 105.385 216.637 113.319 211.057C113.319 211.057 107.173 216.526 101.92 215.744C98.5119 215.354 74.1501 195.88 66.4951 183.717C62.0251 176.965 63.0308 174.064 63.1426 173.115Z" fill="#E45F3C"/>
<mask id="mask1_2002_2314" style="mask-type:luminance" maskUnits="userSpaceOnUse" x="63" y="41" width="176" height="175">
<path d="M211.661 45.9518C207.079 57.4461 197.468 92.0964 194.73 92.5428C184.617 93.882 158.97 105.097 154.723 103.256L156.009 110.9C150.421 106.381 143.604 102.363 138.352 99.9639L119.019 99.127C109.967 102.307 96.2216 109.729 90.9693 116.871C84.8229 121.837 60.1259 163.685 63.4225 177.634C66.2163 189.519 97.2273 214.628 101.865 215.856C107.229 217.251 118.572 208.267 122.707 200.288C139.86 201.125 157.685 199.73 157.852 195.601C158.076 190.3 158.355 184.665 158.746 174.956C158.914 170.548 160.981 161.23 162.937 151.577C166.569 139.245 208.476 122.283 212.387 116.926C216.298 111.57 236.693 61.5193 238.09 55.1026C239.543 48.6301 216.075 34.9596 211.661 45.9518Z" fill="white"/>
</mask>
<g mask="url(#mask1_2002_2314)">
<path d="M171.041 102.531C171.041 105.265 168.806 107.441 166.124 107.441C163.386 107.441 161.207 105.209 161.207 102.531C161.207 99.7967 163.442 97.6206 166.124 97.6206C168.806 97.6206 171.041 99.7967 171.041 102.531Z" fill="#EDEDED"/>
<path d="M185.568 117.708C185.568 120.442 183.333 122.618 180.651 122.618C177.914 122.618 175.734 120.386 175.734 117.708C175.734 114.974 177.969 112.798 180.651 112.798C183.333 112.798 185.568 115.03 185.568 117.708Z" fill="#EDEDED"/>
<path d="M192.666 96.6164C192.666 99.3504 190.431 101.527 187.749 101.527C185.011 101.527 182.832 99.2946 182.832 96.6164C182.832 93.8823 185.067 91.7062 187.749 91.7062C190.487 91.7062 192.666 93.9381 192.666 96.6164Z" fill="#EDEDED"/>
<path d="M210.49 117.708C210.49 120.442 208.255 122.618 205.573 122.618C202.835 122.618 200.656 120.386 200.656 117.708C200.656 114.974 202.891 112.798 205.573 112.798C208.255 112.798 210.49 115.029 210.49 117.708Z" fill="#EDEDED"/>
<path d="M218.034 102.531C220.75 102.531 222.951 100.333 222.951 97.6209C222.951 94.909 220.75 92.7107 218.034 92.7107C215.319 92.7107 213.117 94.909 213.117 97.6209C213.117 100.333 215.319 102.531 218.034 102.531Z" fill="#EDEDED"/>
<path d="M166.178 145.607C166.178 148.341 163.943 150.517 161.261 150.517C158.523 150.517 156.344 148.285 156.344 145.607C156.344 142.873 158.579 140.697 161.261 140.697C163.999 140.697 166.178 142.873 166.178 145.607Z" fill="#EDEDED"/>
<path d="M142.713 161.9C142.713 164.634 140.478 166.81 137.796 166.81C135.058 166.81 132.879 164.578 132.879 161.9C132.879 159.165 135.114 156.989 137.796 156.989C140.534 156.989 142.713 159.221 142.713 161.9Z" fill="#EDEDED"/>
<path d="M157.295 182.935C157.295 185.669 155.06 187.846 152.378 187.846C149.64 187.846 147.461 185.614 147.461 182.935C147.461 180.201 149.696 178.025 152.378 178.025C155.06 178.025 157.295 180.201 157.295 182.935Z" fill="#EDEDED"/>
<path d="M140.197 200.4C140.197 203.134 137.962 205.31 135.28 205.31C132.542 205.31 130.363 203.078 130.363 200.4C130.363 197.666 132.598 195.49 135.28 195.49C137.962 195.49 140.197 197.722 140.197 200.4Z" fill="#EDEDED"/>
<path d="M115.443 186.06C115.443 188.794 113.208 190.97 110.526 190.97C107.789 190.97 105.609 188.738 105.609 186.06C105.609 183.493 107.565 181.429 110.024 181.15C110.135 181.15 112.594 183.828 115.443 186.06Z" fill="#EDEDED"/>
<path d="M88.1193 188.348C88.1193 191.082 85.8842 193.258 83.2022 193.258C80.4643 193.258 78.2852 191.026 78.2852 188.348C78.2852 185.613 80.5202 183.437 83.2022 183.437C85.9401 183.382 88.1193 185.613 88.1193 188.348Z" fill="#EDEDED"/>
<path d="M97.2287 165.247C97.2287 167.982 94.9936 170.158 92.3116 170.158C89.5737 170.158 87.3945 167.926 87.3945 165.247C87.3945 162.513 89.6296 160.337 92.3116 160.337C95.0495 160.337 97.2287 162.569 97.2287 165.247Z" fill="#EDEDED"/>
<path d="M72.8107 160.393C72.8107 163.127 70.5757 165.303 67.8936 165.303C65.1557 165.303 62.9766 163.071 62.9766 160.393C62.9766 157.659 65.2116 155.483 67.8936 155.483C70.6315 155.483 72.8107 157.659 72.8107 160.393Z" fill="#EDEDED"/>
<path d="M103.6 141.813C103.6 144.547 101.365 146.723 98.6827 146.723C95.9448 146.723 93.7656 144.491 93.7656 141.813C93.7656 139.078 96.0007 136.902 98.6827 136.902C101.365 136.902 103.6 139.078 103.6 141.813Z" fill="#EDEDED"/>
<path d="M83.2013 136.623C83.2013 139.357 80.9663 141.533 78.2842 141.533C75.5463 141.533 73.3672 139.302 73.3672 136.623C73.3672 133.889 75.6022 131.713 78.2842 131.713C81.0222 131.713 83.2013 133.889 83.2013 136.623Z" fill="#EDEDED"/>
<path d="M101.42 114.583C101.42 117.317 99.185 119.493 96.503 119.493C93.7651 119.493 91.5859 117.261 91.5859 114.583C91.5859 111.849 93.821 109.673 96.503 109.673C99.2409 109.673 101.42 111.905 101.42 114.583Z" fill="#EDEDED"/>
<path d="M121.256 155.483C121.256 158.217 119.021 160.393 116.339 160.393C113.601 160.393 111.422 158.161 111.422 155.483C111.422 152.749 113.657 150.573 116.339 150.573C119.077 150.517 121.256 152.749 121.256 155.483Z" fill="#EDEDED"/>
<path d="M120.807 131.936C119.968 132.606 118.907 132.996 117.733 132.996C114.996 132.996 112.816 130.765 112.816 128.086C112.816 126.301 113.766 124.683 115.219 123.846C116.448 125.743 118.516 128.588 120.807 131.936Z" fill="#EDEDED"/>
<path d="M207.861 75.1342C207.861 77.8683 205.626 80.0444 202.944 80.0444C200.207 80.0444 198.027 77.8125 198.027 75.1342C198.027 72.4001 200.262 70.224 202.944 70.224C205.682 70.224 207.861 72.4001 207.861 75.1342Z" fill="#EDEDED"/>
<path d="M234.236 71.1725C234.236 73.9066 232.001 76.0827 229.319 76.0827C226.581 76.0827 224.402 73.8508 224.402 71.1725C224.402 68.4384 226.637 66.2623 229.319 66.2623C232.057 66.2623 234.236 68.4384 234.236 71.1725Z" fill="#EDEDED"/>
<path d="M221.721 53.5963C221.721 56.3303 219.486 58.5065 216.804 58.5065C214.066 58.5065 211.887 56.2745 211.887 53.5963C211.887 50.8622 214.122 48.6861 216.804 48.6861C217.027 48.6861 217.195 48.6861 217.418 48.7419C218.983 49.7462 220.547 50.4158 220.547 50.4158C221.274 51.2528 221.721 52.3687 221.721 53.5963Z" fill="#EDEDED"/>
</g>
<path opacity="0.5" d="M162.992 151.465C163.886 146.946 167.35 138.297 165.954 130.653C164.557 123.064 168.356 129.76 170.982 130.932C173.609 132.103 209.369 122.618 212.442 116.815C212.442 116.815 211.716 117.987 209.648 119.27C205.514 121.837 197.412 126.022 188.919 130.82C169.697 141.645 163.774 147.727 162.992 151.465Z" fill="#E45F3C"/>
<path opacity="0.5" d="M182.324 95.835C184.727 95.0539 194.17 93.4357 197.578 97.3416C200.987 101.247 201.21 97.5648 199.813 95.8908C198.416 94.2169 196.964 89.9205 197.187 88.5255C196.237 90.869 195.679 91.7618 195.064 92.3756C193.946 92.8778 193.443 92.2082 182.324 95.835Z" fill="#E45F3C"/>
<path opacity="0.5" d="M212.835 43.9989C211.997 45.2265 217.641 49.8577 225.575 52.3686C233.509 54.8795 237.812 55.2143 238.259 54.3215C238.259 54.3215 238.594 55.0469 235.185 63.8629C235.185 63.8629 236.862 57.6694 233.23 57.3904C228.927 56.9998 219.261 54.6005 213.841 48.128C212.612 46.6772 211.718 47.291 209.93 50.5831C211.606 46.175 212.053 44.6685 212.835 43.9989Z" fill="#E45F3C"/>
<path opacity="0.5" d="M106.054 143.598C106.054 143.598 100.02 157.77 102.255 161.118C104.546 164.41 109.407 165.247 109.407 167.535C109.407 169.823 104.043 167.033 104.378 169.265C104.602 170.827 121.029 185.167 124.661 190.747C126.225 193.146 124.158 199.395 124.605 200.288L122.705 200.232C125.22 195.099 124.773 191.974 120.526 189.742C108.569 182.935 97.1701 166.028 97.1701 166.028C97.1701 166.028 96.8348 163.964 97.3936 162.513C100.187 154.925 106.054 143.598 106.054 143.598Z" fill="#E45F3C"/>
<path opacity="0.5" d="M161.261 160.058C159.081 165.024 149.974 175.737 150.588 179.643C151.203 183.549 158.634 186.897 158.02 193.09C158.02 193.09 158.076 173.784 161.261 160.058Z" fill="#E45F3C"/>
<path opacity="0.5" d="M131.812 136.623C135.556 139.525 151.313 141.98 157.18 133.052C163.047 124.124 160.756 116.815 160.756 116.815L133.545 132.382L131.812 136.623Z" fill="#E45F3C"/>
<path opacity="0.5" d="M63.1426 173.115C63.422 177.523 105.385 216.637 113.319 211.057C113.319 211.057 107.173 216.526 101.92 215.744C98.5119 215.354 74.1501 195.88 66.4951 183.717C62.0251 176.965 63.0308 174.064 63.1426 173.115Z" fill="#E45F3C"/>
<path d="M153.214 48.128C155.17 56.944 153.661 58.4505 157.852 65.8158C161.093 71.3956 167.909 82.9457 161.26 91.2038C159.025 93.9936 155.058 96.114 154.779 100.076C154.555 103.033 156.79 105.934 157.964 108.613C160.366 114.025 162.825 121.279 159.305 126.691C156.343 131.266 151.147 134.335 146.062 134.949C139.86 135.73 132.708 134.224 129.97 127.919C126.953 121.056 131.59 115.699 136.172 111.291C138.239 109.282 140.81 107.608 141.089 104.428C141.369 101.192 139.692 98.9038 138.072 96.2256C130.64 83.8385 150.197 75.6362 150.532 65.0904C150.7 60.2918 148.465 58.1715 150.7 53.8193C150.644 53.8751 153.214 48.128 153.214 48.128Z" fill="#59514D"/>
<path d="M136.562 92.4872C143.659 96.5604 148.967 98.4017 149.023 101.303C149.079 104.149 132.651 112.351 129.41 120.609C129.41 120.274 129.41 120.274 129.41 120.274C129.41 120.274 128.628 116.313 132.428 110.733C134.551 107.664 137.624 105.321 138.462 101.415C139.021 99.2945 136.674 95.6676 136.562 92.4872Z" fill="#706661"/>
<path d="M137.063 159.668C137.063 161.397 135.722 162.792 134.102 162.792C132.482 162.792 131.141 161.397 131.141 159.668C131.141 157.938 132.482 156.543 134.102 156.543C135.722 156.543 137.063 157.938 137.063 159.668Z" fill="#484A4E"/>
<path d="M135.61 186.06C135.61 187.79 134.269 189.185 132.649 189.185C131.029 189.185 129.688 187.79 129.688 186.06C129.688 184.33 131.029 182.935 132.649 182.935C134.269 182.935 135.61 184.33 135.61 186.06Z" fill="#484A4E"/>
<path d="M132.262 160.449C132.262 160.17 132.876 161.007 134.106 161.007C135.391 161.007 135.95 160.226 135.95 160.449C135.95 161.23 135.111 161.899 134.106 161.899C133.1 161.899 132.262 161.286 132.262 160.449Z" fill="#6683C2"/>
<path d="M130.863 186.841C130.863 186.562 131.478 187.399 132.707 187.399C133.992 187.399 134.551 186.618 134.551 186.841C134.551 187.678 133.713 188.292 132.707 188.292C131.646 188.348 130.863 187.678 130.863 186.841Z" fill="#6683C2"/>
<path d="M132.262 160.449C132.262 160.17 132.876 161.007 134.106 161.007C135.391 161.007 135.95 160.226 135.95 160.449C135.95 161.23 135.111 161.899 134.106 161.899C133.1 161.899 132.262 161.286 132.262 160.449Z" fill="#EDEDED"/>
<path d="M130.863 186.841C130.863 186.562 131.478 187.399 132.707 187.399C133.992 187.399 134.551 186.618 134.551 186.841C134.551 187.678 133.713 188.292 132.707 188.292C131.646 188.348 130.863 187.678 130.863 186.841Z" fill="#EDEDED"/>
<path opacity="0.6" d="M262.898 178.75H23.75V195.657H262.898V178.75Z" fill="#6683C2"/>
<path d="M53.1406 177.077H23.75V178.695H53.1406V177.077Z" fill="#F37E60"/>
<path opacity="0.4" d="M260.996 177.077H60.9609V178.695H260.996V177.077Z" fill="#6683C2"/>
<path opacity="0.5" d="M60.9057 177.077H53.5859V178.695H60.9057V177.077Z" fill="white"/>
<path d="M250.549 182.936H248.426V185.056" stroke="white" stroke-width="0.738956" stroke-miterlimit="10" stroke-linejoin="round"/>
<path d="M254.963 185.056V182.935H252.84" stroke="white" stroke-width="0.738956" stroke-miterlimit="10" stroke-linejoin="round"/>
<path d="M252.84 189.463H254.963V187.343" stroke="white" stroke-width="0.738956" stroke-miterlimit="10" stroke-linejoin="round"/>
<path d="M248.426 187.343V189.463H250.549" stroke="white" stroke-width="0.738956" stroke-miterlimit="10" stroke-linejoin="round"/>
<path d="M243.341 185.167H237.586V189.464H243.341V185.167Z" stroke="white" stroke-width="0.738956" stroke-miterlimit="10" stroke-linecap="round" stroke-linejoin="round"/>
<path d="M21.7938 24.5814C20.2293 24.5814 19 25.809 19 27.3155C19 28.8221 19 31.2772 19 32.8395V195.49C19 197.052 20.2293 198.28 21.7938 198.28H262.953C264.518 198.28 265.747 197.052 265.747 195.49V27.3713C265.747 25.809 264.518 24.5814 262.953 24.5814H246.973C245.408 24.5814 244.067 25.7532 243.9 27.2039C243.732 28.6547 244.85 29.8264 246.414 29.8264H258.148C259.712 29.8264 260.942 31.054 260.942 32.6163V190.301C260.942 191.863 259.712 193.09 258.148 193.09H26.5432C24.9787 193.09 23.7494 191.863 23.7494 190.301V32.5605C23.7494 30.9982 24.9787 29.7706 26.5432 29.7706H209.704C211.268 29.7706 212.498 28.5989 212.442 27.1481C212.442 25.6974 211.156 24.5256 209.592 24.5256H21.7938V24.5814Z" fill="#6683C2"/>
<path d="M278.753 133.295C276.462 136.364 247.574 143.729 243.328 143.227C239.081 142.781 232.823 123.363 235.282 118.341C237.684 113.32 268.695 105.564 272.215 107.74C275.624 109.86 281.044 130.226 278.753 133.295Z" fill="white"/>
<path d="M261.601 123.251L253.387 119.792C252.437 119.401 251.375 120.238 251.655 121.299L254.225 131.621C254.504 132.625 255.79 132.904 256.46 132.123L262.048 125.204C262.606 124.591 262.383 123.586 261.601 123.251Z" fill="#F37E60"/>
<path d="M71.2689 72.9498H54.2982C50.1274 72.9498 46.6758 76.3522 46.6758 80.4633V88.0476C46.6758 92.1588 50.1274 95.5611 54.2982 95.5611H67.0262L69.4711 98.6799C69.9745 99.3178 70.9812 99.176 71.3408 98.4672L72.7071 95.4902C76.2306 94.8523 78.9632 91.8044 78.9632 88.1185V80.5342C78.8913 76.3522 75.4396 72.9498 71.2689 72.9498ZM54.2263 86.63C53.0757 86.63 52.1409 85.7085 52.1409 84.5744C52.1409 83.4403 53.0757 82.5189 54.2263 82.5189C55.3768 82.5189 56.3117 83.4403 56.3117 84.5744C56.3836 85.7085 55.3768 86.63 54.2263 86.63ZM62.7835 86.63C61.633 86.63 60.6982 85.7085 60.6982 84.5744C60.6982 83.4403 61.633 82.5189 62.7835 82.5189C63.9341 82.5189 64.8689 83.4403 64.8689 84.5744C64.8689 85.7085 63.9341 86.63 62.7835 86.63ZM71.3408 86.63C70.1902 86.63 69.2554 85.7085 69.2554 84.5744C69.2554 83.4403 70.1902 82.5189 71.3408 82.5189C72.4913 82.5189 73.4262 83.4403 73.4262 84.5744C73.4262 85.7085 72.4913 86.63 71.3408 86.63Z" fill="#F37E60"/>
<path d="M184.671 161.788L184.727 161.844L194.225 165.192L199.701 156.766L199.757 156.71C201.21 154.479 200.595 151.41 198.304 149.959C196.069 148.508 192.996 149.122 191.543 151.41L190.202 153.474L187.856 152.637C185.341 151.744 182.491 153.084 181.597 155.595C180.815 158.105 182.156 160.895 184.671 161.788Z" fill="white"/>
<path d="M238.141 98.0669L241.941 103.87L248.422 101.582H248.478C250.21 100.968 251.104 99.0713 250.49 97.3416C249.875 95.6118 247.975 94.7191 246.243 95.3328L244.679 95.8908L243.729 94.4959C242.723 92.9893 240.656 92.5429 239.091 93.5473C237.582 94.4401 237.136 96.5046 238.141 98.0669Z" fill="white"/>
<path d="M36.5539 63.1852H36.6098L43.0914 65.4729L46.835 59.7257L46.8909 59.6699C47.8967 58.1634 47.4497 56.0431 45.941 55.0387C44.4324 54.0344 42.3091 54.4808 41.3033 55.9873L40.4093 57.3822L38.8448 56.8243C37.1127 56.2105 35.2129 57.1032 34.5983 58.833C33.9278 60.6185 34.8218 62.5714 36.5539 63.1852Z" fill="#F37E60"/>
</g>
<defs>
<clipPath id="clip0_2002_2314">
<rect width="320" height="198" fill="white"/>
</clipPath>
</defs>
</svg>
