<svg width="111" height="112" viewBox="0 0 111 112" fill="none" xmlns="http://www.w3.org/2000/svg">
<g clip-path="url(#clip0_2002_3613)">
<path d="M60.2698 69.1202C59.7004 65.5617 58.277 62.1455 55.9521 59.2038C48.503 49.9042 32.5608 47.1997 23.024 54.6963C12.8229 62.7623 5.56356 81.4564 17.6625 90.0917C19.0385 91.0406 20.5568 91.8947 22.2174 92.6064C21.7904 94.6466 20.794 98.0628 18.8487 99.3438C18.8487 99.3438 26.108 99.9132 28.8125 94.5517C39.583 96.5445 52.2987 93.8874 57.2806 85.0149C60.0326 80.0804 61.1238 74.4342 60.2698 69.1202Z" fill="#6683C2"/>
<path d="M37.4938 87.6719C32.7491 87.0551 28.1942 85.1098 25.3474 81.0768C22.4532 76.9964 21.3619 71.7772 21.694 66.7953C21.9787 62.098 23.3546 57.3059 26.8657 53.9846C28.1942 52.751 29.6651 51.7546 31.2308 50.9006C28.2417 51.5648 25.3949 52.7985 22.9751 54.6963C12.8214 62.7623 5.56208 81.4564 17.661 90.0917C19.037 91.0406 20.5553 91.8947 22.2159 92.6064C21.7889 94.6466 20.7925 98.0628 18.8472 99.3438C18.8472 99.3438 26.1066 99.9132 28.811 94.5517C39.5815 96.5445 52.2972 93.8874 57.2791 85.0149C57.7536 84.1134 58.2281 83.2119 58.6077 82.3104C52.8666 86.9602 44.7532 88.5734 37.4938 87.6719Z" fill="#506FB2"/>
<path d="M56.9613 73.9151C56.9296 74.4544 56.6846 74.7241 56.2263 74.7241C55.7821 74.7241 55.56 74.495 55.56 74.0367L55.5336 73.5026C54.7404 73.6295 54.1729 74.0367 53.8309 74.7241L53.8362 77.3838C53.8362 77.5848 53.7675 77.7505 53.63 77.8809C53.4925 78.0148 53.318 78.0818 53.1065 78.0818C52.888 78.0818 52.7188 78.0113 52.5989 77.8703C52.4861 77.7434 52.4297 77.5813 52.4297 77.3838V73.9204C52.4297 73.8111 52.4332 73.6489 52.4403 73.4339C52.4473 73.2153 52.4508 73.0514 52.4508 72.9421C52.4508 72.7447 52.509 72.5808 52.6253 72.4504C52.7452 72.3164 52.9144 72.2494 53.133 72.2494C53.5242 72.2494 53.7569 72.4504 53.8309 72.8522C54.4549 72.3869 55.1476 72.1543 55.909 72.1543C56.6141 72.1543 56.9666 72.6231 56.9666 73.5608C56.9666 73.7406 56.9648 73.8587 56.9613 73.9151Z" fill="white"/>
<path d="M51.524 74.6712C51.524 74.9074 51.5257 75.2634 51.5293 75.7393C51.5328 76.2152 51.5345 76.5713 51.5345 76.8075C51.5345 76.8815 51.5398 76.9925 51.5504 77.1406C51.5645 77.2851 51.5716 77.3944 51.5716 77.4684C51.5716 77.6658 51.4993 77.828 51.3548 77.9549C51.2138 78.0853 51.0393 78.1505 50.8313 78.1505C50.5387 78.1505 50.3254 78.0183 50.1915 77.754C49.7402 77.9196 49.2732 78.0025 48.7902 78.0025C48.2896 78.0025 47.8684 77.8967 47.5264 77.6852C47.1422 77.442 46.9131 77.0877 46.839 76.6224C46.7016 75.7411 46.6328 74.9532 46.6328 74.2588C46.6328 73.8005 46.6857 73.277 46.7914 72.6883C46.8619 72.29 47.0999 72.0908 47.5053 72.0908C47.7097 72.0908 47.8842 72.156 48.0288 72.2864C48.1733 72.4133 48.2456 72.5755 48.2456 72.7729C48.2456 72.928 48.2191 73.1713 48.1663 73.5026C48.1169 73.834 48.0922 74.086 48.0922 74.2588C48.0922 74.7558 48.1081 75.1912 48.1398 75.5648C48.1751 75.935 48.2262 76.2417 48.2932 76.4849C48.3813 76.5237 48.4659 76.5536 48.547 76.5748C48.6316 76.5959 48.7127 76.6065 48.7902 76.6065C49.1815 76.6065 49.6116 76.5501 50.0804 76.4373C50.0804 76.1659 50.0787 75.8574 50.0751 75.512C50.0681 75.0995 50.0646 74.8034 50.0646 74.6236C50.0646 73.901 50.098 73.277 50.165 72.7518C50.2179 72.3323 50.4576 72.1225 50.8842 72.1225C51.0921 72.1225 51.2702 72.1877 51.4182 72.3182C51.5663 72.4486 51.635 72.6125 51.6244 72.8099C51.5575 74.153 51.524 74.7734 51.524 74.6712Z" fill="white"/>
<path d="M43.3674 78.0395C42.7153 78.0395 42.1548 77.8156 41.6859 77.3679C41.1713 76.8779 40.9016 76.224 40.8769 75.4062C40.8522 74.6271 41.0655 73.9327 41.5167 73.3228C42.0526 72.6037 42.7981 72.2441 43.7535 72.2441C44.4585 72.2441 45.019 72.5261 45.435 73.0901C45.8086 73.5978 45.9955 74.227 45.9955 74.9779C45.9955 75.7957 45.7769 76.4937 45.3398 77.0718C44.8498 77.7169 44.1923 78.0395 43.3674 78.0395ZM43.6847 73.6401C43.2511 73.6365 42.9092 73.834 42.6589 74.2323C42.4474 74.5672 42.3416 74.9585 42.3416 75.4062C42.3416 75.8292 42.4615 76.1535 42.7012 76.3791C42.8915 76.5589 43.1136 76.6488 43.3674 76.6488C43.6741 76.6488 43.9403 76.5448 44.1659 76.3368C44.4232 76.0936 44.5607 75.764 44.5783 75.348C44.6242 74.2129 44.3263 73.6436 43.6847 73.6401Z" fill="white"/>
<path d="M38.7526 71.3982C38.527 71.3982 38.3314 71.3224 38.1657 71.1708C38.0035 71.0192 37.9225 70.8324 37.9225 70.6103C37.9225 70.3882 38.0035 70.2014 38.1657 70.0498C38.3314 69.8947 38.527 69.8172 38.7526 69.8172C38.9782 69.8172 39.1739 69.8947 39.3396 70.0498C39.5052 70.2014 39.5881 70.3882 39.5881 70.6103C39.5881 70.8324 39.5052 71.0192 39.3396 71.1708C39.1739 71.3224 38.9782 71.3982 38.7526 71.3982ZM38.4988 78.7164C38.4988 78.3463 38.4389 77.3698 38.319 75.787C38.1992 74.2042 38.1392 73.2648 38.1392 72.9687C38.1392 72.7572 38.2009 72.5668 38.3243 72.3976C38.4689 72.2072 38.6557 72.112 38.8848 72.112C39.047 72.112 39.2091 72.1667 39.3713 72.276C39.5475 72.3958 39.6392 72.5333 39.6463 72.6884C39.6886 73.3617 39.7467 74.3399 39.8207 75.6231C39.9159 77.3328 39.9635 78.3815 39.9635 78.7693C39.9635 79.2805 39.8031 79.7493 39.4823 80.1759C39.1263 80.6482 38.6839 80.8844 38.1551 80.8844C37.302 80.8844 36.6023 80.2816 36.0559 79.076C36.003 78.9597 35.9766 78.8504 35.9766 78.7482C35.9766 78.5543 36.0541 78.3868 36.2092 78.2458C36.3608 78.1154 36.5353 78.0502 36.7327 78.0502C36.9583 78.0502 37.1575 78.1718 37.3302 78.415C37.4571 78.6406 37.5858 78.868 37.7162 79.0972C37.8572 79.3404 38.0035 79.462 38.1551 79.462C38.3384 79.462 38.453 79.2135 38.4988 78.7164Z" fill="white"/>
<path d="M35.3231 78.1029C34.8895 78.1029 34.648 77.8897 34.5987 77.4631C34.5493 77.1 34.5 76.7352 34.4506 76.3686C34.3977 75.9808 34.3713 75.6159 34.3713 75.274C34.3713 75.1823 34.3766 75.0255 34.3872 74.8034C34.4013 74.5813 34.4083 74.4244 34.4083 74.3328C34.4083 74.3081 34.4118 74.2464 34.4189 74.1477C34.4259 74.0455 34.4295 73.9626 34.4295 73.8992C34.4295 73.6066 34.3537 73.4603 34.2021 73.4603C33.8778 73.4603 33.5587 73.6507 33.245 74.0314C32.9348 74.4086 32.6916 74.888 32.5153 75.4696C32.5082 75.586 32.4924 75.7411 32.4677 75.935C32.4466 76.0936 32.436 76.2487 32.436 76.4003C32.436 76.499 32.4466 76.6488 32.4677 76.8497C32.4924 77.0472 32.5047 77.1952 32.5047 77.2939C32.5047 77.4949 32.4342 77.6605 32.2932 77.791C32.1557 77.9249 31.9812 77.9919 31.7697 77.9919C31.5582 77.9919 31.3837 77.9249 31.2462 77.791C31.1088 77.6605 31.04 77.4949 31.04 77.2939C31.04 77.1952 31.0294 77.0472 31.0083 76.8497C30.9871 76.6488 30.9766 76.499 30.9766 76.4003C30.9766 76.0619 31.0012 75.5913 31.0506 74.9885C31.0999 74.3857 31.1246 73.9151 31.1246 73.5766C31.1246 73.4709 31.1176 73.314 31.1035 73.106C31.0929 72.8945 31.0876 72.7376 31.0876 72.6354C31.0876 72.438 31.1581 72.2759 31.2991 72.1489C31.4436 72.0185 31.6199 71.9533 31.8279 71.9533C32.2897 71.9533 32.5364 72.23 32.5682 72.7835L32.5735 72.8416C33.0881 72.3234 33.631 72.0643 34.2021 72.0643C34.8683 72.0643 35.3284 72.3428 35.5822 72.8998C35.7514 73.2735 35.836 73.8322 35.836 74.576V74.9514C35.8325 75.1136 35.8307 75.2282 35.8307 75.2952C35.8307 75.5701 35.8677 75.9244 35.9418 76.358C36.0193 76.7916 36.0581 77.1441 36.0581 77.4155C36.0581 77.6129 35.9876 77.7769 35.8466 77.9073C35.7056 78.0377 35.5311 78.1029 35.3231 78.1029Z" fill="white"/>
<path d="M27.6331 78.0395C26.9809 78.0395 26.4204 77.8156 25.9516 77.3679C25.4369 76.8779 25.1672 76.224 25.1425 75.4062C25.1179 74.6271 25.3311 73.9327 25.7824 73.3228C26.3182 72.6037 27.0638 72.2441 28.0191 72.2441C28.7241 72.2441 29.2846 72.5261 29.7006 73.0901C30.0742 73.5978 30.2611 74.227 30.2611 74.9779C30.2611 75.7957 30.0425 76.4937 29.6054 77.0718C29.1154 77.7169 28.458 78.0395 27.6331 78.0395ZM27.9503 73.6401C27.5167 73.6365 27.1748 73.834 26.9245 74.2323C26.713 74.5672 26.6072 74.9585 26.6072 75.4062C26.6072 75.8292 26.7271 76.1535 26.9668 76.3791C27.1572 76.5589 27.3793 76.6488 27.6331 76.6488C27.9398 76.6488 28.2059 76.5448 28.4315 76.3368C28.6889 76.0936 28.8263 75.764 28.844 75.348C28.8898 74.2129 28.5919 73.6436 27.9503 73.6401Z" fill="white"/>
<path d="M22.7578 77.5213C21.9365 77.828 20.8983 77.9814 19.6433 77.9814C19.4318 77.9814 19.2415 77.8932 19.0723 77.717C18.9066 77.5407 18.8237 77.3521 18.8237 77.1512V71.5462C18.8132 71.3065 18.8043 71.0668 18.7973 70.8271C18.7867 70.5556 18.7955 70.3265 18.8237 70.1396C18.8731 69.8083 19.1815 69.6074 19.7491 69.5368C20.017 69.4593 20.4612 69.4205 21.0816 69.4205C21.7479 69.4205 22.3859 69.6356 22.9958 70.0656C23.7114 70.5662 24.0692 71.1919 24.0692 71.9428C24.0692 72.3482 23.9951 72.6901 23.8471 72.9686C23.7308 73.1942 23.5281 73.4357 23.239 73.693C23.5809 73.8587 23.8841 74.109 24.1485 74.4439C24.4481 74.8175 24.5979 75.1894 24.5979 75.5596C24.5979 76.0284 24.3424 76.4726 23.8312 76.8921C23.4893 77.1706 23.1315 77.3803 22.7578 77.5213ZM21.0816 70.8535C20.6269 70.8535 20.3537 70.857 20.262 70.8641L20.2673 71.9851L20.262 73.0955C20.5828 73.1343 20.8243 73.1466 20.9864 73.1325C22.0651 73.0479 22.6045 72.6513 22.6045 71.9428C22.6045 71.6925 22.4458 71.451 22.1286 71.2183C21.8007 70.9751 21.4517 70.8535 21.0816 70.8535ZM21.7003 74.5919C21.3795 74.5919 20.9001 74.5796 20.262 74.5549V76.5325C20.8683 76.5008 21.5258 76.3845 22.2343 76.1835C22.8548 76.0073 23.1614 75.8169 23.1544 75.6125C23.1438 75.341 22.9446 75.0996 22.5569 74.888C22.2537 74.7188 21.9682 74.6201 21.7003 74.5919Z" fill="white"/>
<g clip-path="url(#clip1_2002_3613)">
<path d="M64.8785 69.6728L105.627 79.1234C108.4 79.5419 110.343 82.1273 109.916 84.9512L103.639 104.725C103.212 107.549 100.593 109.446 97.8204 109.028L95.8322 108.865C95.8322 108.865 94.0132 113.038 95.9491 115.668C95.9491 115.668 89.4393 113.035 89.0627 108.256L62.7003 105.928C59.9274 105.509 57.9915 102.879 58.4109 100.1L59.0535 74.0199C59.4797 71.196 62.1056 69.2543 64.8785 69.6728Z" fill="#F37E60"/>
<path d="M76.9768 83.2197C75.761 82.8168 74.5545 82.3527 73.3526 81.8579L74.265 79.6765C77.453 81.0038 80.6457 81.9871 84.0588 82.6589L84.3501 80.7285L86.7077 81.0843L86.4071 83.076C88.8879 83.4504 91.4997 83.6879 94.3219 83.7847L94.2478 86.1553C91.364 86.0491 88.6882 85.8177 86.1458 85.4339C83.7882 85.0781 81.5439 84.5984 79.3536 83.9701C79.4374 86.1295 80.0682 90.095 83.062 93.9627C86.7857 91.8453 88.2212 88.599 88.3129 88.4091L90.5078 89.3202C90.4092 89.556 88.7988 93.2303 84.6644 95.7715C86.0188 97.1355 87.7129 98.441 89.8223 99.6055L88.675 101.673C86.0694 100.246 84.0494 98.5932 82.4793 96.8833C80.8506 97.5463 78.9344 98.0249 76.6816 98.1237L76.5662 95.7559C78.1996 95.689 79.6318 95.3881 80.88 94.9497C77.4471 90.2322 76.9813 85.3827 76.9768 83.2197Z" fill="white"/>
<path d="M59.2888 73.0473C59.1239 74.4435 59.0551 75.8085 58.9795 77.2183C58.8664 80.0894 58.8875 82.9808 58.9533 85.8789C59.0217 88.4565 59.1592 91.1821 59.9771 93.6436C61.3116 97.8335 65.2992 99.9023 69.2297 101.137C73.3838 102.406 77.6664 102.823 81.8746 103.733C84.18 104.219 86.5233 104.756 88.9072 105.024C90.9333 105.238 93.2413 105.403 95.1858 104.642C98.934 103.145 100.273 98.2123 101.262 94.6939C102.414 90.696 104.247 85.5172 101.958 81.5958C100.904 79.7864 99.3128 78.8127 97.4911 77.8501C96.8988 77.5315 96.1276 77.1859 95.3632 76.7954L105.528 79.1547C108.397 79.5419 110.34 82.1273 109.914 84.9512L103.636 104.725C103.209 107.549 100.59 109.446 97.8174 109.028L95.8293 108.865C95.8293 108.865 94.0103 113.038 95.9462 115.668C95.9462 115.668 89.4364 113.035 89.0598 108.256L62.6974 105.928C59.9245 105.509 57.9885 102.879 58.408 100.1L59.0506 74.0199C59.1047 73.6613 59.1968 73.3543 59.2888 73.0473Z" fill="#E56A4A"/>
</g>
<g clip-path="url(#clip2_2002_3613)">
<path d="M99.8333 46.4714C99.8333 43.2094 97.2284 40.5726 94.0059 40.5726C93.254 40.5726 92.5557 40.7085 91.9112 40.9803C91.2936 37.5824 88.3396 35 84.8216 35C81.7334 35 79.1016 36.9844 78.0812 39.7571C77.5709 39.4037 76.9533 39.1862 76.3088 39.1862C74.6169 39.1862 73.2205 40.5726 73.2205 42.3123C73.2205 42.5026 73.2473 42.6929 73.2742 42.856C72.6565 42.5026 71.9583 42.3123 71.2333 42.3123C68.9506 42.3123 67.0977 44.188 67.0977 46.4985C67.0977 48.347 68.2793 49.9236 69.9442 50.4673C69.0312 51.5274 68.4672 52.8866 68.4672 54.3817C68.4672 57.6709 71.099 60.3077 74.3215 60.3077C75.1809 60.3077 75.9865 60.1174 76.7116 59.7912C76.9533 62.8357 79.4507 65.255 82.539 65.255C85.1976 65.255 87.4534 63.4609 88.1516 60.9872C89.1721 61.9115 90.5417 62.4823 92.0455 62.4823C95.2681 62.4823 97.8729 59.8455 97.8729 56.5835C97.8729 54.7894 97.0673 53.1856 95.832 52.0983C98.1415 51.31 99.8333 49.081 99.8333 46.4714Z" fill="#68CCEA"/>
<path d="M99.8328 46.4713C99.8328 43.6987 97.953 41.3609 95.4018 40.7357C96.664 41.9317 97.577 43.6987 97.6308 45.4384C97.6845 47.1781 97.1205 49.244 95.6972 50.3314C95.0796 50.7935 93.8174 51.3915 93.0386 51.31C94.1665 52.7779 94.5693 54.5992 92.9312 56.0671C91.1051 57.7252 88.903 57.535 87.4529 55.768C87.4797 57.2631 86.9964 59.1931 85.7073 60.0358C84.6332 60.7154 83.1293 61.096 81.8672 60.9601C79.316 60.6339 77.839 58.7582 77.5973 56.2573C77.5973 56.3933 76.7916 56.9097 76.6574 57.0185C76.3351 57.2359 76.0129 57.4262 75.6369 57.5621C73.1931 58.4592 70.078 56.3933 70.3466 53.7021C70.4271 52.8051 70.7494 51.6634 71.1791 50.875C71.367 50.5217 71.9578 49.6518 72.4412 49.679C69.2187 49.4615 68.4667 43.9705 72.0653 42.3667C71.7967 42.3123 71.5013 42.2851 71.2059 42.2851C68.9233 42.2851 67.0703 44.1608 67.0703 46.4713C67.0703 48.3198 68.2519 49.8964 69.9169 50.4401C69.0038 51.5003 68.4399 52.8594 68.4399 54.3545C68.4399 57.6437 71.0716 60.2805 74.2942 60.2805C75.1535 60.2805 75.9592 60.0902 76.6842 59.764C76.9259 62.8085 79.4234 65.2278 82.5117 65.2278C85.1703 65.2278 87.426 63.4337 88.1243 60.9601C89.1447 61.8843 90.5143 62.4551 92.0182 62.4551C95.2407 62.4551 97.8456 59.8184 97.8456 56.5564C97.8456 54.7623 97.04 53.1584 95.8046 52.0711C98.141 51.31 99.8328 49.0809 99.8328 46.4713Z" fill="#5EBCD8"/>
<path d="M74.0261 63.8143C73.4622 64.4939 72.3074 64.4395 71.4212 63.7056C70.535 62.9716 70.2934 61.8299 70.8304 61.1503C71.3944 60.4707 72.5491 60.5251 73.4353 61.2591C74.3215 61.993 74.5901 63.1347 74.0261 63.8143Z" fill="#68CCEA"/>
<path d="M70.9913 65.3094C70.5616 65.8259 69.6754 65.7987 69.0309 65.2278C68.3596 64.657 68.1716 63.7871 68.6013 63.2706C69.0309 62.7542 69.9171 62.7813 70.5616 63.3522C71.233 63.923 71.421 64.7929 70.9913 65.3094Z" fill="#68CCEA"/>
<path d="M68.3055 65.989C68.0101 66.3423 67.3925 66.3152 66.9091 65.9346C66.4526 65.5269 66.2914 64.9288 66.5868 64.5483C66.8822 64.1949 67.4999 64.2221 67.9833 64.6026C68.4667 65.0104 68.6009 65.6356 68.3055 65.989Z" fill="#68CCEA"/>
<path d="M82.6723 44.1608C82.6723 42.0677 84.3373 40.3823 86.4051 40.3823C87.2376 40.3823 87.9895 40.6541 88.6072 41.1162C87.9358 40.1648 86.8348 39.5396 85.5726 39.5396C83.5048 39.5396 81.8398 41.225 81.8398 43.3181C81.8398 44.5685 82.4575 45.683 83.3974 46.3898C82.9409 45.7646 82.6723 45.0035 82.6723 44.1608Z" fill="#5EBCD8"/>
<path d="M76.3354 53.1857C77.8661 52.8866 79.37 53.9196 79.6654 55.4691C79.7728 56.0943 79.6922 56.6923 79.4505 57.236C80.0413 56.5836 80.3636 55.6593 80.1756 54.7351C79.8802 53.1857 78.4032 52.1527 76.8456 52.4517C75.9057 52.642 75.1807 53.24 74.8047 54.0555C75.2075 53.5934 75.7177 53.2944 76.3354 53.1857Z" fill="#5EBCD8"/>
<path d="M93.6339 52.6662C93.5618 52.6662 93.4473 52.5873 93.2905 52.4294C93.1463 52.4988 93.0193 52.551 92.9095 52.5857C92.7998 52.622 92.7065 52.6402 92.6297 52.6402C92.2518 52.6402 91.968 52.5383 91.7783 52.3346C91.5902 52.1309 91.4961 51.8261 91.4961 51.4203C91.4961 51.0397 91.6356 50.7144 91.9147 50.4444C92.1938 50.1728 92.5278 50.037 92.9166 50.037C93.0655 50.037 93.238 50.0796 93.434 50.1649C93.6707 50.2675 93.7891 50.3868 93.7891 50.5226C93.7891 50.5794 93.7711 50.6291 93.735 50.6718C93.7193 50.735 93.7068 50.8147 93.6974 50.911C93.6895 51.0058 93.6856 51.1171 93.6856 51.245C93.6856 51.5466 93.7068 51.7638 93.7491 51.8964C93.7538 51.9106 93.7899 51.9927 93.8573 52.1428C93.9185 52.2786 93.949 52.3559 93.949 52.3749C93.949 52.4586 93.9169 52.5281 93.8526 52.5833C93.7899 52.6386 93.717 52.6662 93.6339 52.6662ZM93.0506 51.0413C93.0506 50.9908 93.0538 50.9331 93.06 50.8684C93.0679 50.8021 93.0789 50.7286 93.093 50.6481C93.0616 50.6323 93.0334 50.6213 93.0083 50.6149C92.9848 50.607 92.9644 50.6031 92.9472 50.6031C92.7339 50.6031 92.5473 50.6876 92.3874 50.8565C92.2275 51.0239 92.1475 51.2182 92.1475 51.4392C92.1475 51.6509 92.1852 51.8103 92.2604 51.9177C92.3357 52.0235 92.4486 52.0764 92.5991 52.0764C92.6963 52.0764 92.788 52.0606 92.8742 52.0291C92.9621 51.9959 93.0444 51.9477 93.1212 51.8846C93.0742 51.5087 93.0506 51.2276 93.0506 51.0413Z" fill="white"/>
<path d="M91.0865 51.399C91.0865 51.489 91.0888 51.6335 91.0935 51.8325C91.0998 52.0314 91.1029 52.1759 91.1029 52.2659C91.1029 52.3575 91.0724 52.4333 91.0112 52.4933C90.9501 52.5518 90.8725 52.581 90.7784 52.581C90.6843 52.581 90.6067 52.5518 90.5456 52.4933C90.4844 52.4333 90.4538 52.3575 90.4538 52.2659C90.4538 52.1759 90.4507 52.0314 90.4444 51.8325C90.4397 51.6335 90.4374 51.489 90.4374 51.399C90.4374 51.2584 90.4452 51.0824 90.4609 50.8708C90.4766 50.6592 90.4844 50.4831 90.4844 50.3425C90.4844 50.2509 90.515 50.1759 90.5761 50.1175C90.6373 50.0575 90.7149 50.0275 90.809 50.0275C90.903 50.0275 90.9807 50.0575 91.0418 50.1175C91.1029 50.1759 91.1335 50.2509 91.1335 50.3425C91.1335 50.4831 91.1257 50.6592 91.11 50.8708C91.0943 51.0824 91.0865 51.2584 91.0865 51.399ZM91.3663 49.0445C91.2833 49.1013 91.1806 49.1977 91.0583 49.3335C90.9297 49.4756 90.8278 49.5743 90.7525 49.6296C90.6914 49.6754 90.624 49.6983 90.5503 49.6983C90.4672 49.6983 90.3951 49.6714 90.3339 49.6177C90.2728 49.564 90.2422 49.5016 90.2422 49.4306C90.2422 49.3722 90.2751 49.3082 90.341 49.2387C90.399 49.185 90.4562 49.1313 90.5126 49.0777C90.6804 48.8929 90.7792 48.7871 90.809 48.7602C90.9516 48.6308 91.0779 48.566 91.1876 48.566C91.2707 48.566 91.342 48.5936 91.4016 48.6489C91.4628 48.7042 91.4933 48.7666 91.4933 48.836C91.4933 48.9166 91.451 48.9861 91.3663 49.0445Z" fill="white"/>
<path d="M89.143 50.1294C89.1634 49.5909 89.1877 49.219 89.2159 49.0137C89.2426 48.8274 89.3445 48.7342 89.5217 48.7342C89.6142 48.7342 89.6887 48.7642 89.7451 48.8242C89.8015 48.8842 89.8298 48.9576 89.8298 49.0445C89.8298 49.2735 89.8117 49.6146 89.7757 50.0678C89.7412 50.521 89.7239 50.8621 89.7239 51.0911C89.7239 51.6501 89.742 52.0243 89.778 52.2138C89.7827 52.2391 89.7851 52.262 89.7851 52.2825C89.7851 52.3694 89.7537 52.4412 89.691 52.4981C89.6283 52.5533 89.5554 52.581 89.4723 52.581C89.3563 52.581 89.27 52.5289 89.2136 52.4246C89.107 52.4894 88.9964 52.5375 88.882 52.5691C88.7675 52.6023 88.6492 52.6189 88.5269 52.6189C88.1757 52.6189 87.884 52.506 87.652 52.2801C87.4152 52.0496 87.2969 51.7559 87.2969 51.399C87.2969 50.9742 87.416 50.6315 87.6543 50.371C87.8927 50.1088 88.2039 49.9778 88.588 49.9778C88.7056 49.9778 88.8107 49.9904 88.9032 50.0157C88.9957 50.0409 89.0756 50.0788 89.143 50.1294ZM89.096 50.8755C89.0443 50.776 88.9768 50.7018 88.8937 50.6528C88.8107 50.6039 88.7119 50.5794 88.5974 50.5794C88.3654 50.5794 88.1913 50.6473 88.0753 50.7831C87.9593 50.9173 87.9013 51.1195 87.9013 51.3895C87.9013 51.5601 87.964 51.7061 88.0894 51.8277C88.2149 51.9493 88.3607 52.0101 88.5269 52.0101C88.6476 52.0101 88.7393 51.9959 88.802 51.9675C88.8444 51.9485 88.9165 51.898 89.0184 51.8159C89.045 51.7938 89.0709 51.7693 89.096 51.7424C89.0929 51.6667 89.0929 51.3777 89.096 50.8755Z" fill="white"/>
<path d="M84.6676 52.6781C84.4747 52.6781 84.3673 52.5825 84.3454 52.3915C84.3234 52.2288 84.3015 52.0654 84.2795 51.9011C84.256 51.7274 84.2442 51.564 84.2442 51.4108C84.2442 51.3698 84.2466 51.2995 84.2513 51.2C84.2576 51.1005 84.2607 51.0303 84.2607 50.9892C84.2607 50.9781 84.2623 50.9505 84.2654 50.9063C84.2685 50.8605 84.2701 50.8234 84.2701 50.795C84.2701 50.6639 84.2364 50.5984 84.169 50.5984C84.0247 50.5984 83.8828 50.6836 83.7433 50.8542C83.6053 51.0231 83.4971 51.2379 83.4187 51.4985C83.4156 51.5506 83.4086 51.6201 83.3976 51.7069C83.3882 51.778 83.3835 51.8475 83.3835 51.9154C83.3835 51.9596 83.3882 52.0267 83.3976 52.1167C83.4086 52.2051 83.414 52.2715 83.414 52.3157C83.414 52.4057 83.3827 52.4799 83.32 52.5383C83.2588 52.5983 83.1812 52.6283 83.0871 52.6283C82.9931 52.6283 82.9155 52.5983 82.8543 52.5383C82.7932 52.4799 82.7626 52.4057 82.7626 52.3157C82.7626 52.2715 82.7579 52.2051 82.7485 52.1167C82.7391 52.0267 82.7344 51.9596 82.7344 51.9154C82.7344 51.7638 82.7454 51.5529 82.7673 51.2829C82.7893 51.0129 82.8002 50.8021 82.8002 50.6505C82.8002 50.6031 82.7971 50.5328 82.7908 50.4397C82.7861 50.3449 82.7838 50.2746 82.7838 50.2288C82.7838 50.1404 82.8151 50.0678 82.8778 50.0109C82.9421 49.9525 83.0205 49.9233 83.113 49.9233C83.3184 49.9233 83.4282 50.0472 83.4423 50.2952L83.4446 50.3212C83.6735 50.0891 83.915 49.973 84.169 49.973C84.4653 49.973 84.6699 50.0978 84.7828 50.3473C84.8581 50.5147 84.8957 50.765 84.8957 51.0982V51.2663C84.8941 51.339 84.8933 51.3903 84.8933 51.4203C84.8933 51.5435 84.9098 51.7022 84.9427 51.8964C84.9772 52.0906 84.9945 52.2486 84.9945 52.3702C84.9945 52.4586 84.9631 52.532 84.9004 52.5904C84.8377 52.6489 84.7601 52.6781 84.6676 52.6781Z" fill="white"/>
<path d="M81.3029 52.6189C80.9282 52.6189 80.6217 52.5289 80.3834 52.3488C80.12 52.1499 79.9883 51.8696 79.9883 51.5079C79.9883 51.1084 80.0925 50.7705 80.3011 50.4941C80.5331 50.1878 80.8459 50.0346 81.2394 50.0346C81.5122 50.0346 81.7388 50.0788 81.9191 50.1673C82.1559 50.2841 82.2742 50.4657 82.2742 50.7121C82.2742 50.8858 82.1778 51.0397 81.985 51.174C81.8972 51.2355 81.7208 51.3256 81.4558 51.444L80.6632 51.7969C80.7385 51.879 80.8294 51.9406 80.9361 51.9817C81.0427 52.0227 81.165 52.0433 81.3029 52.0433C81.513 52.0433 81.691 51.9998 81.8368 51.913C81.9669 51.8356 82.0712 51.7969 82.1496 51.7969C82.3126 51.7969 82.3942 51.8767 82.3942 52.0362C82.3942 52.2162 82.2633 52.363 82.0014 52.4767C81.7819 52.5715 81.5491 52.6189 81.3029 52.6189ZM81.2394 50.6078C81.0936 50.6078 80.969 50.6568 80.8655 50.7547C80.762 50.8526 80.6789 50.9995 80.6162 51.1953C80.7934 51.1179 80.9698 51.0413 81.1454 50.9655C81.357 50.8692 81.5256 50.78 81.651 50.6978C81.546 50.6378 81.4088 50.6078 81.2394 50.6078Z" fill="white"/>
<path d="M79.6715 51.1408C79.6715 51.2466 79.6723 51.4061 79.6739 51.6193C79.6754 51.8325 79.6762 51.9919 79.6762 52.0977C79.6762 52.1309 79.6786 52.1807 79.6833 52.247C79.6895 52.3117 79.6927 52.3607 79.6927 52.3938C79.6927 52.4823 79.6605 52.5549 79.5963 52.6118C79.5335 52.6702 79.4559 52.6994 79.3634 52.6994C79.2333 52.6994 79.1384 52.6402 79.0789 52.5217C78.8782 52.596 78.6704 52.6331 78.4556 52.6331C78.233 52.6331 78.0456 52.5857 77.8935 52.491C77.7227 52.382 77.6207 52.2233 77.5878 52.0148C77.5267 51.6201 77.4961 51.2671 77.4961 50.956C77.4961 50.7507 77.5196 50.5162 77.5666 50.2525C77.598 50.0741 77.7038 49.9849 77.8841 49.9849C77.9751 49.9849 78.0527 50.0141 78.117 50.0725C78.1813 50.1294 78.2134 50.202 78.2134 50.2904C78.2134 50.3599 78.2016 50.4689 78.1781 50.6173C78.1562 50.7657 78.1452 50.8787 78.1452 50.956C78.1452 51.1787 78.1522 51.3737 78.1664 51.5411C78.182 51.7069 78.2048 51.8443 78.2346 51.9533C78.2738 51.9706 78.3114 51.9841 78.3474 51.9935C78.3851 52.003 78.4211 52.0077 78.4556 52.0077C78.6297 52.0077 78.8209 51.9825 79.0295 51.9319C79.0295 51.8103 79.0287 51.6722 79.0271 51.5174C79.024 51.3327 79.0224 51.2 79.0224 51.1195C79.0224 50.7958 79.0373 50.5162 79.0671 50.281C79.0906 50.093 79.1972 49.9991 79.3869 49.9991C79.4794 49.9991 79.5586 50.0283 79.6245 50.0867C79.6903 50.1451 79.7209 50.2186 79.7162 50.307C79.6864 50.9087 79.6715 51.1866 79.6715 51.1408Z" fill="white"/>
<path d="M76.4119 52.4175C76.0465 52.5549 75.5848 52.6236 75.0267 52.6236C74.9326 52.6236 74.8479 52.5841 74.7727 52.5052C74.699 52.4262 74.6621 52.3417 74.6621 52.2517V49.7409C74.6574 49.6335 74.6535 49.5261 74.6504 49.4187C74.6457 49.2971 74.6496 49.1945 74.6621 49.1108C74.6841 48.9624 74.8213 48.8724 75.0737 48.8408C75.1928 48.806 75.3904 48.7887 75.6663 48.7887C75.9627 48.7887 76.2465 48.885 76.5177 49.0776C76.836 49.3019 76.9951 49.5822 76.9951 49.9185C76.9951 50.1001 76.9622 50.2533 76.8963 50.3781C76.8446 50.4791 76.7544 50.5873 76.6259 50.7026C76.778 50.7768 76.9128 50.8889 77.0304 51.0389C77.1637 51.2063 77.2303 51.3729 77.2303 51.5387C77.2303 51.7488 77.1166 51.9477 76.8893 52.1356C76.7372 52.2604 76.5781 52.3544 76.4119 52.4175ZM75.6663 49.4306C75.4641 49.4306 75.3426 49.4322 75.3018 49.4353L75.3042 49.9375L75.3018 50.4349C75.4445 50.4523 75.5519 50.4578 75.624 50.4515C76.1038 50.4136 76.3437 50.2359 76.3437 49.9185C76.3437 49.8064 76.2731 49.6982 76.132 49.594C75.9862 49.4851 75.831 49.4306 75.6663 49.4306ZM75.9415 51.1053C75.7988 51.1053 75.5856 51.0997 75.3018 51.0887V51.9746C75.5715 51.9604 75.8639 51.9083 76.179 51.8182C76.455 51.7393 76.5914 51.654 76.5882 51.5624C76.5835 51.4408 76.495 51.3327 76.3225 51.2379C76.1877 51.1621 76.0607 51.1179 75.9415 51.1053Z" fill="white"/>
</g>
</g>
<defs>
<clipPath id="clip0_2002_3613">
<rect width="111" height="112" fill="white"/>
</clipPath>
<clipPath id="clip1_2002_3613">
<rect width="51.9247" height="40.798" fill="white" transform="matrix(-0.988802 -0.149232 -0.149232 0.988802 111.168 76.6589)"/>
</clipPath>
<clipPath id="clip2_2002_3613">
<rect width="33.3802" height="31.2608" fill="white" transform="translate(66.4531 35)"/>
</clipPath>
</defs>
</svg>
