<svg width="302" height="206" viewBox="0 0 302 206" fill="none" xmlns="http://www.w3.org/2000/svg">
<g clip-path="url(#clip0_2002_808)">
<path d="M74.0318 138.892C72.8624 138.632 71.6754 139.362 71.3309 140.519L54.2602 198.769C53.9031 200.011 54.6201 201.282 55.8191 201.633L143.496 227.391C144.737 227.748 146.002 227.074 146.359 225.832L163.664 167.746C163.99 166.716 163.514 165.567 162.551 165.078L162.076 164.792C161.877 164.676 161.715 164.609 161.504 164.578L118.625 151.776C118.54 151.764 117.679 151.463 117.594 151.45L74.3209 138.979C74.2428 138.924 74.1584 138.911 74.0318 138.892Z" fill="#F37E60"/>
<path d="M74.2017 138.917C74.2017 138.917 105.915 141.215 117.631 151.499L99.8106 212.183L56.406 199.433L74.2017 138.917Z" fill="#FBFDFA"/>
<g opacity="0.25">
<path d="M56.4028 199.433C56.4028 199.433 78.7907 200.906 92.2523 206.703C96.3884 208.483 99.8074 212.183 99.8074 212.183L56.4028 199.433Z" fill="#B39143"/>
</g>
<g opacity="0.25">
<path d="M106.165 181.332C106.038 181.313 105.918 181.252 105.804 181.149C96.4367 172.768 70.4314 170.671 70.1781 170.634C69.7919 170.619 69.5404 170.28 69.5484 169.936C69.5626 169.55 69.902 169.298 70.2459 169.306C70.3304 169.319 76.9842 169.833 84.7303 171.416C95.2012 173.533 102.571 176.484 106.678 180.2C106.943 180.455 106.971 180.848 106.709 181.154C106.6 181.31 106.376 181.363 106.165 181.332Z" fill="#B39143"/>
</g>
<g opacity="0.25">
<path d="M104.071 188.441C103.945 188.423 103.824 188.361 103.71 188.258C94.3492 179.835 68.3798 177.787 68.0843 177.743C67.6982 177.729 67.4466 177.389 67.4546 177.045C67.4689 176.659 67.8082 176.408 68.1522 176.415C68.2366 176.428 74.8904 176.942 82.6365 178.525C93.1075 180.642 100.478 183.593 104.585 187.31C104.849 187.565 104.877 187.957 104.616 188.263C104.506 188.42 104.282 188.473 104.071 188.441Z" fill="#B39143"/>
</g>
<g opacity="0.25">
<path d="M101.979 195.551C101.853 195.532 101.732 195.471 101.618 195.368C92.2148 186.938 66.2517 184.848 65.9984 184.81C65.6122 184.796 65.3607 184.456 65.3687 184.112C65.3829 183.726 65.7223 183.475 66.0663 183.483C66.1507 183.495 72.8045 184.01 80.5506 185.592C91.0215 187.71 98.3918 190.66 102.499 194.377C102.763 194.632 102.791 195.024 102.53 195.331C102.42 195.487 102.19 195.582 101.979 195.551Z" fill="#B39143"/>
</g>
<g opacity="0.25">
<path d="M85.5819 195.875C85.5396 195.868 85.5396 195.868 85.4974 195.862C75.1942 192.907 64.0644 192.029 63.9378 192.01C63.5516 191.996 63.3001 191.657 63.308 191.313C63.3223 190.927 63.6617 190.675 64.0056 190.683C64.1323 190.702 75.3887 191.598 85.8186 194.572C86.1922 194.671 86.3952 195.046 86.2606 195.371C86.2104 195.709 85.8773 195.918 85.5819 195.875Z" fill="#B39143"/>
</g>
<path d="M161.795 164.664C161.795 164.664 133.854 149.466 118.457 151.751L100.637 212.435L143.999 225.179L161.795 164.664Z" fill="#FBFDFA"/>
<g opacity="0.25">
<path d="M154.487 172.293C154.403 172.28 154.318 172.268 154.283 172.219C154.042 172.097 131.063 159.795 118.596 161.824C118.239 161.901 117.891 161.633 117.814 161.277C117.738 160.92 118.005 160.572 118.362 160.495C123.798 159.621 131.599 161.125 141.553 164.978C148.936 167.844 154.808 171.003 154.851 171.01C155.169 171.186 155.282 171.591 155.105 171.91C155.061 172.206 154.783 172.337 154.487 172.293Z" fill="#B39143"/>
</g>
<g opacity="0.25">
<path d="M152.401 179.361C152.317 179.348 152.233 179.335 152.197 179.287C151.956 179.165 128.977 166.862 116.51 168.892C116.153 168.968 115.805 168.701 115.728 168.344C115.652 167.988 115.919 167.639 116.276 167.563C121.712 166.688 129.513 168.193 139.467 172.045C146.85 174.912 152.722 178.071 152.765 178.077C153.084 178.254 153.196 178.659 153.019 178.978C152.975 179.273 152.697 179.405 152.401 179.361Z" fill="#B39143"/>
</g>
<g opacity="0.25">
<path d="M150.312 186.47C150.227 186.457 150.143 186.445 150.107 186.396C149.866 186.274 126.888 173.971 114.42 176.001C114.063 176.078 113.715 175.81 113.638 175.453C113.562 175.097 113.829 174.748 114.186 174.672C119.622 173.798 127.423 175.302 137.377 179.154C144.76 182.021 150.633 185.18 150.675 185.186C150.994 185.363 151.106 185.768 150.929 186.087C150.885 186.382 150.607 186.514 150.312 186.47Z" fill="#B39143"/>
</g>
<g opacity="0.25">
<path d="M148.261 193.586C148.176 193.573 148.092 193.561 148.056 193.512C147.815 193.39 124.837 181.087 112.369 183.117C112.012 183.194 111.664 182.926 111.588 182.57C111.511 182.213 111.779 181.865 112.135 181.788C117.572 180.914 125.372 182.418 135.327 186.271C142.709 189.137 148.582 192.296 148.624 192.302C148.943 192.479 149.055 192.884 148.878 193.203C148.792 193.492 148.514 193.623 148.261 193.586Z" fill="#B39143"/>
</g>
<g opacity="0.25">
<path d="M146.175 200.653C146.09 200.64 146.006 200.628 145.97 200.579C145.729 200.457 122.751 188.154 110.283 190.184C109.927 190.261 109.578 189.993 109.502 189.637C109.425 189.28 109.693 188.932 110.049 188.855C115.486 187.981 123.287 189.485 133.241 193.338C140.624 196.204 146.496 199.363 146.538 199.369C146.857 199.546 146.969 199.951 146.793 200.27C146.7 200.601 146.428 200.69 146.175 200.653Z" fill="#B39143"/>
</g>
<g opacity="0.25">
<path d="M144.081 207.763C143.997 207.75 143.912 207.738 143.876 207.689C143.636 207.567 120.657 195.264 108.189 197.294C107.833 197.37 107.484 197.103 107.408 196.746C107.331 196.39 107.599 196.041 107.955 195.965C113.392 195.09 121.193 196.595 131.147 200.447C138.53 203.314 144.402 206.473 144.444 206.479C144.763 206.656 144.876 207.061 144.699 207.38C144.613 207.669 144.334 207.8 144.081 207.763Z" fill="#B39143"/>
</g>
<g opacity="0.25">
<path d="M134.983 210.94C134.941 210.934 134.856 210.921 134.82 210.873C119.631 204.215 111.391 203.637 107.15 204.301C106.794 204.377 106.445 204.11 106.369 203.753C106.292 203.397 106.56 203.048 106.916 202.972C114.963 201.665 126.804 205.885 135.352 209.614C135.677 209.749 135.832 210.16 135.697 210.485C135.557 210.853 135.278 210.984 134.983 210.94Z" fill="#B39143"/>
</g>
<path d="M125.862 150.393L129.442 151.27C130.092 151.539 130.408 152.32 130.175 153.018L124.388 173.083L122.319 168.72L118.454 171.208L123.962 151.275C124.299 150.463 125.134 150.069 125.862 150.393Z" fill="#6683C2"/>
<g opacity="0.25">
<path d="M92.5112 147.205C92.6349 146.662 92.2818 146.135 91.7331 146.054C87.1322 145.37 80.3769 144.668 78.7119 144.55C78.1991 144.517 77.7143 144.876 77.5968 145.376L72.0721 163.969C71.8873 164.632 72.3545 165.262 73.0361 165.32C77.1681 165.676 82.2755 166.435 85.6695 167.112C86.1697 167.229 86.6483 166.912 86.7658 166.412L92.5112 147.205Z" fill="#B39143"/>
</g>
<g opacity="0.25">
<path d="M89.5705 168.166C97.2539 170.171 102.629 172.609 104.887 173.678C105.488 173.983 106.226 173.662 106.411 172.999L112.081 154.298C112.241 153.804 112.015 153.296 111.618 153.064C106.475 149.927 101.265 148.117 95.7078 146.903C95.2919 146.798 94.8618 147.079 94.7569 147.495L88.991 167.131C88.8798 167.589 89.1125 168.055 89.5705 168.166Z" fill="#B39143"/>
</g>
<path d="M274.25 160.285C274.25 160.285 266.924 152.61 266.924 140.866L256.692 149.238L246.343 140.866C246.343 152.61 239.017 160.285 239.017 160.285C238.087 166.215 255.18 175.285 256.575 175.866C257.971 175.285 275.18 166.099 274.25 160.285Z" fill="#F6B39F"/>
<path d="M256.693 149.238C261.344 149.238 265.762 147.959 269.483 145.634C270.181 145.285 270.762 144.82 271.46 144.354C272.041 143.889 272.623 143.424 273.088 142.959C278.32 138.308 281.693 131.564 281.693 124.006L281.576 92.3777L231.344 92.494L231.46 124.122C231.46 129.82 233.437 135.052 236.576 139.238C237.507 140.401 238.553 141.564 239.6 142.61C240.646 143.541 241.809 144.471 243.088 145.285C247.041 147.843 251.693 149.354 256.693 149.238Z" fill="#FDC2B0"/>
<path d="M286.461 75.5173C285.414 68.4243 282.159 65.401 278.786 64.2382C281.228 60.9824 281.693 57.6103 281.693 57.6103C279.717 61.9126 271.461 63.8894 271.461 63.8894C270.065 64.1219 269.135 64.5871 269.135 64.5871C269.135 64.5871 263.903 56.3312 256.577 54.9359C249.252 53.6568 249.019 59.3545 249.019 59.3545C249.019 59.3545 247.159 55.7498 247.74 52.9591C248.205 50.0522 239.833 62.2615 239.833 62.2615C236.926 60.1685 225.996 64.9359 221.228 75.5173C220.879 76.215 220.647 76.9126 220.414 77.6103C217.74 77.9591 215.182 75.0522 215.182 75.0522C212.74 80.5173 219.6 92.3778 219.6 92.3778C220.647 98.1917 222.624 102.378 222.624 102.378L231.577 121.913L233.089 103.657C234.717 107.959 237.275 102.378 237.275 102.378C235.879 109.471 253.205 101.099 253.205 101.099C250.065 107.727 270.298 99.1219 270.298 99.1219C267.74 104.006 279.6 102.378 279.6 102.378L281.81 120.866L288.67 99.7033C299.833 90.6336 286.461 75.5173 286.461 75.5173Z" fill="#4C453D"/>
<path d="M264.132 113.657C264.132 113.657 271.226 109.936 275.993 114.238C280.76 118.541 277.505 110.982 272.621 109.587C267.737 108.192 265.877 109.936 265.877 109.936C265.877 109.936 265.295 109.122 264.598 109.122C262.505 108.773 260.993 114.936 264.132 113.657Z" fill="#803128"/>
<path d="M247.274 113.308C247.274 113.308 240.298 109.471 235.414 113.657C230.646 117.959 234.018 110.401 238.902 109.122C243.786 107.843 245.646 109.587 245.646 109.587C245.646 109.587 246.228 108.889 247.042 108.773C248.902 108.541 250.298 114.703 247.274 113.308Z" fill="#803128"/>
<path d="M236.46 129.587C234.6 130.866 235.065 134.82 237.506 138.308C239.948 141.796 243.437 143.657 245.297 142.378C247.158 141.099 246.693 137.145 244.251 133.657C241.809 130.052 238.32 128.308 236.46 129.587Z" fill="#FF8682" fill-opacity="0.47"/>
<path d="M276.111 130.285C277.972 131.68 277.274 135.517 274.716 139.006C272.158 142.494 268.553 144.122 266.809 142.843C264.948 141.447 265.646 137.61 268.204 134.122C270.762 130.634 274.251 128.889 276.111 130.285Z" fill="#FF8682" fill-opacity="0.47"/>
<path d="M260.184 128.889H259.951L256.579 128.773H255.881L252.509 128.657H252.277C251.928 128.657 251.695 128.889 251.695 129.122V130.866C251.695 131.099 251.928 131.331 252.277 131.331H252.509C252.509 131.331 253.672 131.564 253.905 132.145C253.905 132.145 253.905 132.494 255.184 132.494C255.416 132.494 255.649 132.494 255.881 132.494C256.579 132.494 256.579 132.494 256.579 132.494C256.695 132.494 256.928 132.494 257.277 132.494C258.672 132.494 258.556 132.261 258.556 132.261C258.672 131.68 259.835 131.564 259.835 131.564H260.067C260.416 131.564 260.649 131.331 260.649 131.099V129.354C260.765 129.122 260.533 128.889 260.184 128.889Z" fill="#FF8682"/>
<path d="M241.925 117.959C241.344 117.959 240.879 118.424 240.879 119.006V124.006H242.972V119.006C243.088 118.424 242.507 117.959 241.925 117.959Z" fill="#803128"/>
<path d="M270.297 117.959C269.715 117.959 269.25 118.424 269.25 119.006V124.006H271.343V119.006C271.343 118.424 270.878 117.959 270.297 117.959Z" fill="#803128"/>
<path d="M262.857 136.564C262.741 136.447 262.508 136.447 262.392 136.68C258.555 141.796 251.927 139.82 251.927 139.82C251.811 139.82 251.578 139.82 251.578 140.052C251.578 140.168 251.578 140.401 251.811 140.401C251.927 140.401 258.904 142.494 262.973 137.145C262.973 136.796 262.973 136.68 262.857 136.564Z" fill="#803128"/>
<path d="M312.508 171.099C309.02 166.564 271.694 152.727 269.136 151.796C266.81 156.215 262.043 159.122 256.694 159.122C251.461 159.122 246.927 156.215 244.485 152.029C244.368 151.913 244.252 151.796 244.136 151.68C244.136 151.68 204.368 166.448 200.647 171.099C196.927 175.75 189.02 244.238 189.02 244.238H256.461H256.578H324.02C324.136 244.238 316.229 175.75 312.508 171.099Z" fill="#6683C2"/>
<path d="M315.298 181.448H197.973L314.601 178.075L315.298 181.448Z" fill="#73C4AC"/>
<path d="M226.692 127.843H227.157C229.599 127.843 231.576 125.866 231.576 123.424V103.657C231.576 101.215 229.599 99.2382 227.157 99.2382H226.692C224.25 99.2382 222.273 101.215 222.273 103.657V123.424C222.273 125.866 224.25 127.843 226.692 127.843Z" fill="#F37E60"/>
<path d="M286.696 127.843H286.231C283.789 127.843 281.812 125.866 281.812 123.424V103.657C281.812 101.215 283.789 99.2382 286.231 99.2382H286.696C289.138 99.2382 291.115 101.215 291.115 103.657V123.424C291.115 125.866 289.138 127.843 286.696 127.843Z" fill="#F37E60"/>
<path d="M294.369 110.168V107.261C294.369 106.68 294.136 106.215 293.671 105.866C292.973 98.1917 288.09 66.4475 256.229 66.4475C224.253 66.4475 220.183 98.1917 219.718 105.866C219.253 106.215 219.02 106.68 219.02 107.261V110.168C217.741 110.168 216.578 111.215 216.578 112.61V115.168C216.578 116.448 217.625 117.61 219.02 117.61V120.517C219.02 121.448 219.718 122.145 220.648 122.145C221.578 122.145 222.276 121.448 222.276 120.517V107.261C222.276 106.913 222.16 106.68 222.043 106.448C222.276 99.9359 225.299 68.8894 256.229 68.8894C287.043 68.8894 290.88 99.8196 291.346 106.448C291.229 106.68 291.113 106.913 291.113 107.261V120.285C291.113 121.215 291.811 121.913 292.741 121.913C293.671 121.913 294.369 121.215 294.369 120.285V117.378C295.648 117.378 296.811 116.331 296.811 114.936V112.378C296.811 111.215 295.764 110.168 294.369 110.168Z" fill="#2C2636"/>
<path d="M304.792 219.538H203.314C201.45 219.538 200 218.019 200 216.224V166.314C200 164.45 201.519 163 203.314 163H304.723C306.587 163 308.036 164.519 308.036 166.314V216.155C308.105 218.019 306.587 219.538 304.792 219.538Z" fill="#CCCCCC"/>
<path d="M304.792 222.437H203.314C201.45 222.437 200 220.918 200 219.123V169.213C200 167.349 201.519 165.899 203.314 165.899H304.723C306.587 165.899 308.036 167.418 308.036 169.213V219.123C308.105 220.918 306.587 222.437 304.792 222.437Z" fill="#E8E8E8"/>
<path d="M238.381 222.437C241.833 214.498 240.866 195.445 252.326 195.445C263.785 195.445 262.819 214.498 266.27 222.437C269.722 230.376 269.17 234.104 269.17 234.104H252.326H235.482C235.482 234.104 234.929 230.376 238.381 222.437Z" fill="#D3D3D3"/>
<path d="M177.164 146.421C178.041 146.894 179.133 146.575 179.616 145.704C183.424 138.758 180.864 130.011 173.91 126.208C173.471 125.968 172.977 125.928 172.539 126.056C172.094 126.186 171.699 126.486 171.465 126.923C170.989 127.793 171.31 128.889 172.182 129.371C177.394 132.218 179.309 138.764 176.455 143.972C175.967 144.851 176.288 145.948 177.164 146.421Z" fill="#F37E60"/>
<path d="M168.3 140.675C167.824 141.544 168.144 142.641 169.016 143.123C169.887 143.598 170.985 143.276 171.468 142.405C173.231 139.19 172.046 135.143 168.828 133.385C168.389 133.145 167.895 133.105 167.457 133.234C167.012 133.364 166.617 133.663 166.383 134.1C165.907 134.97 166.228 136.066 167.099 136.548C168.563 137.353 169.105 139.206 168.3 140.675Z" fill="#F37E60"/>
<path d="M186.556 133.093C188.082 138.308 187.483 143.805 184.869 148.574C184.231 149.739 184.659 151.201 185.824 151.837C186.99 152.474 188.454 152.045 189.093 150.881C192.327 144.981 193.065 138.189 191.177 131.741C189.29 125.292 184.999 119.965 179.103 116.745C178.52 116.426 177.867 116.377 177.272 116.551C176.683 116.723 176.155 117.125 175.834 117.701C175.196 118.866 175.624 120.328 176.789 120.965C181.554 123.567 185.029 127.878 186.556 133.093Z" fill="#F37E60"/>
</g>
<defs>
<clipPath id="clip0_2002_808">
<rect width="302" height="206" fill="white"/>
</clipPath>
</defs>
</svg>
