<svg width="189" height="157" viewBox="0 0 189 157" fill="none" xmlns="http://www.w3.org/2000/svg">
<g clip-path="url(#clip0_2002_763)">
<path d="M96.3296 68.3966C95.255 61.6805 92.5686 55.233 88.1807 49.6809C74.1215 32.1294 44.0332 27.0251 26.0339 41.1738C6.78089 56.3971 -6.92006 91.6793 15.9149 107.977C18.5118 109.768 21.3773 111.38 24.5115 112.723C23.7056 116.574 21.8251 123.021 18.1536 125.439C18.1536 125.439 31.8545 126.514 36.9588 116.395C57.2864 120.156 81.2854 115.141 90.688 98.3954C95.8819 89.0824 97.9415 78.4261 96.3296 68.3966Z" fill="#6683C2"/>
<path d="M53.3469 103.41C44.392 102.246 35.7953 98.5746 30.4224 90.963C24.9599 83.2618 22.9003 73.4114 23.5272 64.0088C24.0645 55.1435 26.6614 46.0991 33.288 39.8307C35.7953 37.5024 38.5714 35.6219 41.5265 34.01C35.8849 35.2637 30.512 37.5919 25.945 41.1739C6.78155 56.3972 -6.9194 91.6794 15.9155 107.977C18.5124 109.768 21.378 111.38 24.5122 112.723C23.7063 116.574 21.8257 123.021 18.1542 125.439C18.1542 125.439 31.8552 126.514 36.9595 116.395C57.287 120.156 81.2861 115.141 90.6887 98.3955C91.5842 96.6941 92.4797 94.9927 93.1961 93.2913C82.3607 102.067 67.0478 105.112 53.3469 103.41Z" fill="#506FB2"/>
<path d="M90.0878 77.4462C90.028 78.4641 89.5656 78.9731 88.7007 78.9731C87.8624 78.9731 87.4432 78.5407 87.4432 77.6757L87.3933 76.6678C85.8963 76.9073 84.8252 77.6757 84.1798 78.9731L84.1898 83.993C84.1898 84.3722 84.06 84.6849 83.8006 84.9311C83.5411 85.1839 83.2118 85.3103 82.8126 85.3103C82.4001 85.3103 82.0807 85.1772 81.8545 84.9111C81.6416 84.6716 81.5352 84.3655 81.5352 83.993V77.4562C81.5352 77.2499 81.5418 76.9439 81.5551 76.538C81.5684 76.1255 81.5751 75.8162 81.5751 75.6099C81.5751 75.2373 81.6849 74.928 81.9044 74.6818C82.1306 74.429 82.45 74.3026 82.8625 74.3026C83.601 74.3026 84.0401 74.6818 84.1798 75.4403C85.3574 74.562 86.6648 74.1229 88.1019 74.1229C89.4325 74.1229 90.0978 75.0078 90.0978 76.7776C90.0978 77.1169 90.0945 77.3397 90.0878 77.4462Z" fill="white"/>
<path d="M79.829 78.8733C79.829 79.3191 79.8323 79.9911 79.839 80.8892C79.8456 81.7874 79.8489 82.4594 79.8489 82.9052C79.8489 83.0449 79.8589 83.2545 79.8789 83.5339C79.9055 83.8067 79.9188 84.0129 79.9188 84.1526C79.9188 84.5252 79.7824 84.8313 79.5096 85.0708C79.2435 85.3169 78.9142 85.44 78.5216 85.44C77.9694 85.44 77.5669 85.1905 77.3141 84.6915C76.4625 85.0042 75.5809 85.1606 74.6694 85.1606C73.7247 85.1606 72.9296 84.961 72.2842 84.5618C71.559 84.1027 71.1266 83.4341 70.9869 82.5559C70.7274 80.8926 70.5977 79.4056 70.5977 78.0949C70.5977 77.23 70.6975 76.242 70.8971 75.1309C71.0301 74.3791 71.4792 74.0032 72.2443 74.0032C72.6302 74.0032 72.9595 74.1263 73.2323 74.3724C73.5051 74.6119 73.6415 74.918 73.6415 75.2906C73.6415 75.5833 73.5916 76.0424 73.4918 76.6678C73.3987 77.2932 73.3521 77.7689 73.3521 78.0949C73.3521 79.033 73.382 79.8547 73.4419 80.5599C73.5084 81.2585 73.6049 81.8373 73.7313 82.2964C73.8976 82.3696 74.0573 82.4261 74.2103 82.466C74.37 82.506 74.523 82.5259 74.6694 82.5259C75.4079 82.5259 76.2196 82.4195 77.1045 82.2066C77.1045 81.6943 77.1012 81.1121 77.0945 80.4601C77.0812 79.6817 77.0746 79.1228 77.0746 78.7835C77.0746 77.4196 77.1378 76.242 77.2642 75.2506C77.364 74.4589 77.8164 74.0631 78.6214 74.0631C79.014 74.0631 79.3499 74.1861 79.6294 74.4323C79.9088 74.6785 80.0386 74.9878 80.0186 75.3604C79.8922 77.8953 79.829 79.0663 79.829 78.8733Z" fill="white"/>
<path d="M64.4385 85.2304C63.2076 85.2304 62.1498 84.8079 61.2649 83.963C60.2935 83.0382 59.7846 81.804 59.738 80.2605C59.6914 78.7901 60.0939 77.4794 60.9456 76.3284C61.9568 74.9712 63.364 74.2926 65.167 74.2926C66.4977 74.2926 67.5555 74.8248 68.3406 75.8893C69.0458 76.8474 69.3984 78.035 69.3984 79.4521C69.3984 80.9957 68.986 82.313 68.161 83.4041C67.2362 84.6217 65.9953 85.2304 64.4385 85.2304ZM65.0373 76.9272C64.2189 76.9206 63.5736 77.2932 63.1012 78.045C62.702 78.677 62.5024 79.4155 62.5024 80.2605C62.5024 81.0589 62.7286 81.671 63.181 82.0968C63.5403 82.4361 63.9595 82.6057 64.4385 82.6057C65.0173 82.6057 65.5196 82.4095 65.9454 82.0169C66.4311 81.5579 66.6906 80.9358 66.7239 80.1507C66.8104 78.0084 66.2482 76.9339 65.0373 76.9272Z" fill="white"/>
<path d="M55.7238 72.6959C55.298 72.6959 54.9287 72.5528 54.616 72.2667C54.31 71.9807 54.1569 71.628 54.1569 71.2089C54.1569 70.7897 54.31 70.4371 54.616 70.151C54.9287 69.8583 55.298 69.7119 55.7238 69.7119C56.1496 69.7119 56.5188 69.8583 56.8315 70.151C57.1442 70.4371 57.3006 70.7897 57.3006 71.2089C57.3006 71.628 57.1442 71.9807 56.8315 72.2667C56.5188 72.5528 56.1496 72.6959 55.7238 72.6959ZM55.2447 86.5079C55.2447 85.8093 55.1316 83.9664 54.9054 80.9791C54.6792 77.9918 54.5661 76.2187 54.5661 75.6599C54.5661 75.2607 54.6825 74.9014 54.9154 74.5821C55.1882 74.2228 55.5408 74.0431 55.9733 74.0431C56.2793 74.0431 56.5854 74.1463 56.8914 74.3525C57.2241 74.5787 57.3971 74.8382 57.4104 75.1309C57.4902 76.4017 57.6 78.248 57.7397 80.6697C57.9193 83.8965 58.0091 85.8759 58.0091 86.6077C58.0091 87.5724 57.7064 88.4573 57.101 89.2624C56.429 90.1539 55.594 90.5996 54.5961 90.5996C52.986 90.5996 51.6653 89.462 50.6341 87.1866C50.5343 86.967 50.4844 86.7607 50.4844 86.5678C50.4844 86.2019 50.6307 85.8859 50.9235 85.6197C51.2096 85.3736 51.5389 85.2505 51.9115 85.2505C52.3373 85.2505 52.7132 85.48 53.0392 85.9391C53.2787 86.3649 53.5216 86.794 53.7677 87.2265C54.0339 87.6855 54.31 87.9151 54.5961 87.9151C54.942 87.9151 55.1583 87.446 55.2447 86.5079Z" fill="white"/>
<path d="M49.2503 85.3502C48.4319 85.3502 47.9762 84.9477 47.883 84.1427C47.7899 83.4574 47.6968 82.7688 47.6036 82.0769C47.5038 81.345 47.4539 80.6564 47.4539 80.011C47.4539 79.838 47.4639 79.542 47.4839 79.1228C47.5105 78.7037 47.5238 78.4076 47.5238 78.2346C47.5238 78.1881 47.5304 78.0716 47.5437 77.8853C47.557 77.6924 47.5637 77.536 47.5637 77.4163C47.5637 76.8641 47.4206 76.588 47.1346 76.588C46.5225 76.588 45.9203 76.9472 45.3282 77.6658C44.7427 78.3777 44.2837 79.2825 43.951 80.3803C43.9377 80.5998 43.9078 80.8926 43.8612 81.2585C43.8213 81.5579 43.8013 81.8506 43.8013 82.1367C43.8013 82.323 43.8213 82.6058 43.8612 82.985C43.9078 83.3576 43.931 83.637 43.931 83.8233C43.931 84.2025 43.798 84.5153 43.5318 84.7614C43.2724 85.0142 42.943 85.1407 42.5438 85.1407C42.1447 85.1407 41.8153 85.0142 41.5558 84.7614C41.2964 84.5153 41.1666 84.2025 41.1666 83.8233C41.1666 83.637 41.1467 83.3576 41.1068 82.985C41.0668 82.6058 41.0469 82.323 41.0469 82.1367C41.0469 81.498 41.0934 80.6098 41.1866 79.4721C41.2797 78.3344 41.3263 77.4462 41.3263 76.8075C41.3263 76.6079 41.313 76.3119 41.2864 75.9193C41.2664 75.5201 41.2565 75.2241 41.2565 75.0311C41.2565 74.6585 41.3895 74.3525 41.6556 74.113C41.9284 73.8668 42.2611 73.7437 42.6536 73.7437C43.5252 73.7437 43.9909 74.266 44.0508 75.3105L44.0608 75.4203C45.0321 74.4423 46.0567 73.9533 47.1346 73.9533C48.392 73.9533 49.2603 74.4789 49.7393 75.5301C50.0586 76.2353 50.2183 77.2899 50.2183 78.6937V79.4023C50.2117 79.7083 50.2083 79.9245 50.2083 80.051C50.2083 80.5699 50.2782 81.2385 50.4179 82.0569C50.5643 82.8752 50.6375 83.5406 50.6375 84.0529C50.6375 84.4254 50.5044 84.7348 50.2383 84.981C49.9721 85.2271 49.6428 85.3502 49.2503 85.3502Z" fill="white"/>
<path d="M34.7354 85.2304C33.5045 85.2304 32.4467 84.8079 31.5618 83.963C30.5904 83.0382 30.0814 81.804 30.0349 80.2605C29.9883 78.7901 30.3908 77.4794 31.2424 76.3284C32.2537 74.9712 33.6609 74.2925 35.4639 74.2925C36.7945 74.2925 37.8524 74.8248 38.6375 75.8893C39.3427 76.8474 39.6953 78.035 39.6953 79.4521C39.6953 80.9956 39.2828 82.313 38.4578 83.4041C37.533 84.6216 36.2922 85.2304 34.7354 85.2304ZM35.3341 76.9272C34.5158 76.9206 33.8704 77.2931 33.3981 78.0449C32.9989 78.677 32.7993 79.4155 32.7993 80.2605C32.7993 81.0588 33.0255 81.6709 33.4779 82.0967C33.8372 82.4361 34.2563 82.6057 34.7354 82.6057C35.3142 82.6057 35.8165 82.4094 36.2423 82.0169C36.728 81.5578 36.9875 80.9358 37.0207 80.1507C37.1072 78.0084 36.545 76.9339 35.3341 76.9272Z" fill="white"/>
<path d="M25.5377 84.2525C23.9875 84.8313 22.0282 85.1207 19.6596 85.1207C19.2604 85.1207 18.9012 84.9544 18.5818 84.6217C18.2691 84.2891 18.1128 83.9331 18.1128 83.5539V72.9753C18.0928 72.5229 18.0762 72.0704 18.0629 71.618C18.0429 71.1057 18.0595 70.6733 18.1128 70.3206C18.2059 69.6952 18.7881 69.316 19.8592 69.1829C20.3649 69.0366 21.2032 68.9634 22.3741 68.9634C23.6316 68.9634 24.8358 69.3692 25.9868 70.1809C27.3374 71.1257 28.0127 72.3066 28.0127 73.7238C28.0127 74.4889 27.873 75.1342 27.5936 75.6598C27.374 76.0856 26.9915 76.5414 26.4459 77.0271C27.0913 77.3398 27.6634 77.8122 28.1624 78.4442C28.7279 79.1495 29.0107 79.8514 29.0107 80.5499C29.0107 81.4348 28.5283 82.2731 27.5636 83.0649C26.9183 83.5905 26.243 83.9863 25.5377 84.2525ZM22.3741 71.6679C21.5159 71.6679 21.0002 71.6746 20.8273 71.6879L20.8372 73.8036L20.8273 75.8994C21.4327 75.9725 21.8884 75.9958 22.1945 75.9692C24.2304 75.8095 25.2483 75.0611 25.2483 73.7238C25.2483 73.2514 24.9489 72.7956 24.3501 72.3565C23.7314 71.8975 23.0727 71.6679 22.3741 71.6679ZM23.5418 78.7236C22.9363 78.7236 22.0315 78.7004 20.8273 78.6538V82.3862C21.9716 82.3264 23.2124 82.1068 24.5497 81.7276C25.7207 81.3949 26.2995 81.0356 26.2862 80.6497C26.2663 80.1375 25.8903 79.6817 25.1585 79.2825C24.5863 78.9632 24.0474 78.7769 23.5418 78.7236Z" fill="white"/>
<g clip-path="url(#clip1_2002_763)">
<path d="M105.03 69.4395L181.937 87.2762C187.17 88.0661 190.837 92.9457 190.033 98.2753L178.184 135.596C177.38 140.926 172.436 144.506 167.203 143.716L163.451 143.409C163.451 143.409 160.017 151.284 163.671 156.248C163.671 156.248 151.385 151.279 150.674 142.26L100.919 137.866C95.6858 137.076 92.032 132.112 92.8236 126.867L94.0364 77.6441C94.8408 72.3145 99.7968 68.6497 105.03 69.4395Z" fill="#F37E60"/>
<path d="M127.871 95.0073C125.576 94.247 123.299 93.371 121.031 92.4372L122.753 88.3202C128.77 90.8252 134.795 92.681 141.237 93.9489L141.787 90.3056L146.236 90.9772L145.669 94.7361C150.351 95.4428 155.281 95.891 160.607 96.0738L160.467 100.548C155.024 100.347 149.974 99.9106 145.176 99.1864C140.726 98.5149 136.491 97.6095 132.357 96.4237C132.515 100.499 133.705 107.983 139.356 115.283C146.384 111.287 149.093 105.16 149.266 104.802L153.409 106.521C153.222 106.966 150.183 113.901 142.38 118.697C144.936 121.271 148.134 123.735 152.115 125.933L149.949 129.835C145.032 127.141 141.219 124.023 138.256 120.795C135.182 122.047 131.566 122.95 127.314 123.136L127.096 118.667C130.179 118.541 132.882 117.973 135.238 117.146C128.759 108.242 127.879 99.0897 127.871 95.0073Z" fill="white"/>
<path d="M94.4852 75.8085C94.1738 78.4437 94.044 81.0199 93.9015 83.6806C93.688 89.0994 93.7277 94.5565 93.8518 100.026C93.981 104.891 94.2406 110.035 95.7841 114.681C98.3029 122.589 105.829 126.493 113.247 128.824C121.087 131.219 129.17 132.006 137.112 133.724C141.463 134.64 145.886 135.654 150.385 136.16C154.209 136.564 158.565 136.875 162.235 135.439C169.309 132.613 171.837 123.304 173.702 116.663C175.877 109.118 179.338 99.3437 175.016 91.9425C173.028 88.5275 170.024 86.6899 166.586 84.8731C165.468 84.2718 164.013 83.6195 162.57 82.8826L181.754 87.3354C187.169 88.0661 190.836 92.9457 190.032 98.2753L178.183 135.596C177.379 140.926 172.435 144.506 167.202 143.716L163.45 143.409C163.45 143.409 160.017 151.284 163.67 156.248C163.67 156.248 151.384 151.279 150.673 142.26L100.918 137.866C95.6848 137.076 92.0311 132.112 92.8227 126.867L94.0355 77.6441C94.1376 76.9674 94.3114 76.3879 94.4852 75.8085Z" fill="#E56A4A"/>
</g>
<g clip-path="url(#clip2_2002_763)">
<path d="M170.995 25.6504C170.995 19.4939 166.078 14.5174 159.996 14.5174C158.577 14.5174 157.259 14.7739 156.043 15.287C154.877 8.87391 149.302 4 142.662 4C136.834 4 131.867 7.74522 129.941 12.9783C128.978 12.3113 127.812 11.9009 126.595 11.9009C123.402 11.9009 120.767 14.5174 120.767 17.8009C120.767 18.16 120.818 18.5191 120.868 18.827C119.702 18.16 118.385 17.8009 117.016 17.8009C112.708 17.8009 109.211 21.3409 109.211 25.7017C109.211 29.1904 111.441 32.1661 114.583 33.1922C112.86 35.193 111.796 37.7583 111.796 40.58C111.796 46.7878 116.763 51.7643 122.845 51.7643C124.467 51.7643 125.987 51.4052 127.356 50.7896C127.812 56.5356 132.525 61.1017 138.354 61.1017C143.372 61.1017 147.629 57.7156 148.947 53.047C150.873 54.7913 153.458 55.8687 156.296 55.8687C162.378 55.8687 167.295 50.8922 167.295 44.7357C167.295 41.3496 165.774 38.3226 163.443 36.2704C167.801 34.7826 170.995 30.5757 170.995 25.6504Z" fill="#68CCEA"/>
<path d="M170.998 25.6504C170.998 20.4174 167.45 16.0052 162.635 14.8252C165.018 17.0826 166.741 20.4174 166.842 23.7008C166.944 26.9843 165.879 30.8835 163.193 32.9356C162.027 33.8078 159.645 34.9365 158.175 34.7826C160.304 37.553 161.064 40.9904 157.973 43.7608C154.526 46.8904 150.37 46.5313 147.633 43.1965C147.684 46.0182 146.771 49.6608 144.339 51.2513C142.311 52.5339 139.473 53.2522 137.091 52.9956C132.276 52.38 129.488 48.84 129.032 44.12C129.032 44.3765 127.512 45.3513 127.258 45.5565C126.65 45.9669 126.042 46.3261 125.332 46.5826C120.72 48.2756 114.841 44.3765 115.347 39.2974C115.5 37.6043 116.108 35.4495 116.919 33.9617C117.273 33.2948 118.389 31.653 119.301 31.7043C113.219 31.2939 111.8 20.9304 118.591 17.9035C118.084 17.8008 117.527 17.7495 116.969 17.7495C112.661 17.7495 109.164 21.2895 109.164 25.6504C109.164 29.1391 111.394 32.1148 114.537 33.1408C112.813 35.1417 111.749 37.7069 111.749 40.5287C111.749 46.7365 116.716 51.713 122.798 51.713C124.42 51.713 125.94 51.3539 127.309 50.7382C127.765 56.4843 132.479 61.0504 138.307 61.0504C143.325 61.0504 147.582 57.6643 148.9 52.9956C150.826 54.74 153.411 55.8174 156.249 55.8174C162.331 55.8174 167.248 50.8408 167.248 44.6843C167.248 41.2982 165.727 38.2713 163.396 36.2191C167.805 34.7826 170.998 30.5756 170.998 25.6504Z" fill="#5EBCD8"/>
<path d="M122.289 58.3826C121.225 59.6652 119.045 59.5626 117.373 58.1774C115.7 56.7922 115.244 54.6374 116.258 53.3548C117.322 52.0722 119.502 52.1748 121.174 53.56C122.847 54.9452 123.354 57.1 122.289 58.3826Z" fill="#68CCEA"/>
<path d="M116.562 61.2043C115.752 62.1791 114.079 62.1278 112.863 61.0504C111.595 59.973 111.241 58.3313 112.052 57.3565C112.863 56.3817 114.535 56.433 115.752 57.5104C117.019 58.5878 117.373 60.2296 116.562 61.2043Z" fill="#68CCEA"/>
<path d="M111.494 62.487C110.937 63.1539 109.771 63.1026 108.859 62.3843C107.997 61.6148 107.693 60.4861 108.251 59.7678C108.808 59.1009 109.974 59.1522 110.886 59.8704C111.798 60.64 112.052 61.82 111.494 62.487Z" fill="#68CCEA"/>
<path d="M138.61 21.2896C138.61 17.3391 141.753 14.1583 145.655 14.1583C147.227 14.1583 148.646 14.6713 149.811 15.5435C148.544 13.7478 146.466 12.5678 144.084 12.5678C140.181 12.5678 137.039 15.7487 137.039 19.6991C137.039 22.0591 138.205 24.1626 139.979 25.4965C139.117 24.3165 138.61 22.88 138.61 21.2896Z" fill="#5EBCD8"/>
<path d="M126.651 38.3226C129.54 37.7583 132.378 39.7078 132.935 42.6322C133.138 43.8122 132.986 44.9409 132.53 45.967C133.645 44.7357 134.253 42.9913 133.898 41.247C133.341 38.3226 130.553 36.373 127.614 36.9374C125.84 37.2965 124.471 38.4252 123.762 39.9643C124.522 39.0922 125.485 38.5278 126.651 38.3226Z" fill="#5EBCD8"/>
<path d="M159.3 37.3423C159.164 37.3423 158.948 37.1933 158.652 36.8953C158.38 37.0264 158.14 37.1248 157.933 37.1903C157.726 37.2589 157.55 37.2932 157.405 37.2932C156.692 37.2932 156.156 37.1009 155.798 36.7165C155.443 36.332 155.266 35.7568 155.266 34.9908C155.266 34.2725 155.529 33.6586 156.056 33.1489C156.582 32.6363 157.213 32.38 157.947 32.38C158.228 32.38 158.553 32.4605 158.923 32.6214C159.37 32.8151 159.593 33.0402 159.593 33.2965C159.593 33.4038 159.559 33.4976 159.491 33.5781C159.462 33.6973 159.438 33.8478 159.42 34.0296C159.405 34.2085 159.398 34.4186 159.398 34.66C159.398 35.2292 159.438 35.6391 159.518 35.8894C159.527 35.9162 159.595 36.0712 159.722 36.3543C159.837 36.6107 159.895 36.7567 159.895 36.7925C159.895 36.9504 159.834 37.0816 159.713 37.1859C159.595 37.2902 159.457 37.3423 159.3 37.3423ZM158.2 34.2755C158.2 34.1802 158.206 34.0714 158.217 33.9492C158.232 33.824 158.253 33.6854 158.279 33.5334C158.22 33.5036 158.167 33.4827 158.12 33.4708C158.075 33.4559 158.037 33.4485 158.004 33.4485C157.602 33.4485 157.25 33.6079 156.948 33.9268C156.646 34.2427 156.495 34.6093 156.495 35.0266C156.495 35.426 156.566 35.727 156.708 35.9296C156.85 36.1293 157.063 36.2292 157.347 36.2292C157.531 36.2292 157.704 36.1994 157.867 36.1398C158.032 36.0772 158.188 35.9863 158.333 35.8671C158.244 35.1577 158.2 34.6272 158.2 34.2755Z" fill="white"/>
<path d="M154.488 34.9506C154.488 35.1205 154.492 35.3932 154.501 35.7687C154.513 36.1442 154.519 36.4169 154.519 36.5868C154.519 36.7597 154.461 36.9027 154.346 37.016C154.231 37.1263 154.084 37.1814 153.907 37.1814C153.729 37.1814 153.583 37.1263 153.467 37.016C153.352 36.9027 153.294 36.7597 153.294 36.5868C153.294 36.4169 153.288 36.1442 153.276 35.7687C153.267 35.3932 153.263 35.1205 153.263 34.9506C153.263 34.6853 153.278 34.353 153.307 33.9536C153.337 33.5543 153.352 33.222 153.352 32.9567C153.352 32.7838 153.409 32.6423 153.525 32.532C153.64 32.4187 153.787 32.3621 153.964 32.3621C154.142 32.3621 154.288 32.4187 154.404 32.532C154.519 32.6423 154.577 32.7838 154.577 32.9567C154.577 33.222 154.562 33.5543 154.532 33.9536C154.503 34.353 154.488 34.6853 154.488 34.9506ZM155.016 30.5068C154.859 30.6141 154.666 30.7959 154.435 31.0522C154.192 31.3205 154 31.5067 153.858 31.6111C153.742 31.6975 153.615 31.7407 153.476 31.7407C153.319 31.7407 153.183 31.69 153.068 31.5887C152.952 31.4874 152.895 31.3697 152.895 31.2355C152.895 31.1253 152.957 31.0046 153.081 30.8734C153.19 30.7721 153.298 30.6708 153.405 30.5694C153.722 30.2207 153.908 30.021 153.964 29.9704C154.234 29.726 154.472 29.6038 154.679 29.6038C154.836 29.6038 154.97 29.6559 155.083 29.7602C155.198 29.8646 155.256 29.9823 155.256 30.1134C155.256 30.2654 155.176 30.3966 155.016 30.5068Z" fill="white"/>
<path d="M150.828 32.5544C150.867 31.538 150.912 30.8362 150.966 30.4487C151.016 30.097 151.208 29.9212 151.543 29.9212C151.717 29.9212 151.858 29.9778 151.964 30.0911C152.071 30.2043 152.124 30.3429 152.124 30.5068C152.124 30.939 152.09 31.5828 152.022 32.4381C151.957 33.2935 151.924 33.9373 151.924 34.3694C151.924 35.4245 151.958 36.1308 152.027 36.4885C152.035 36.5361 152.04 36.5794 152.04 36.6181C152.04 36.782 151.981 36.9176 151.862 37.0249C151.744 37.1292 151.606 37.1814 151.45 37.1814C151.231 37.1814 151.068 37.083 150.961 36.8863C150.76 37.0085 150.551 37.0994 150.335 37.159C150.119 37.2216 149.896 37.2529 149.665 37.2529C149.002 37.2529 148.452 37.0398 148.014 36.6136C147.567 36.1785 147.344 35.6241 147.344 34.9506C147.344 34.1489 147.569 33.5021 148.018 33.0104C148.468 32.5156 149.056 32.2682 149.781 32.2682C150.003 32.2682 150.201 32.2921 150.375 32.3398C150.55 32.3875 150.701 32.459 150.828 32.5544ZM150.739 33.9626C150.642 33.7748 150.514 33.6347 150.358 33.5424C150.201 33.45 150.014 33.4038 149.798 33.4038C149.36 33.4038 149.032 33.5319 148.813 33.7882C148.594 34.0416 148.484 34.4231 148.484 34.9327C148.484 35.2546 148.603 35.5303 148.84 35.7598C149.076 35.9892 149.352 36.104 149.665 36.104C149.893 36.104 150.066 36.0772 150.184 36.0235C150.264 35.9878 150.401 35.8924 150.593 35.7374C150.643 35.6957 150.692 35.6495 150.739 35.5988C150.733 35.4558 150.733 34.9103 150.739 33.9626Z" fill="white"/>
<path d="M142.375 37.3647C142.011 37.3647 141.808 37.1844 141.767 36.8237C141.726 36.5168 141.684 36.2083 141.643 35.8983C141.598 35.5705 141.576 35.262 141.576 34.9729C141.576 34.8954 141.581 34.7628 141.59 34.575C141.601 34.3873 141.607 34.2547 141.607 34.1772C141.607 34.1563 141.61 34.1041 141.616 34.0207C141.622 33.9343 141.625 33.8642 141.625 33.8106C141.625 33.5632 141.561 33.4395 141.434 33.4395C141.162 33.4395 140.894 33.6005 140.631 33.9223C140.37 34.2412 140.166 34.6466 140.018 35.1383C140.012 35.2367 139.999 35.3678 139.978 35.5317C139.961 35.6659 139.952 35.797 139.952 35.9252C139.952 36.0086 139.961 36.1353 139.978 36.3052C139.999 36.4721 140.009 36.5972 140.009 36.6807C140.009 36.8506 139.95 36.9906 139.832 37.1009C139.716 37.2142 139.57 37.2708 139.392 37.2708C139.215 37.2708 139.068 37.2142 138.953 37.1009C138.838 36.9906 138.78 36.8506 138.78 36.6807C138.78 36.5972 138.771 36.4721 138.753 36.3052C138.735 36.1353 138.727 36.0086 138.727 35.9252C138.727 35.639 138.747 35.2412 138.789 34.7315C138.83 34.2219 138.851 33.824 138.851 33.5379C138.851 33.4485 138.845 33.3158 138.833 33.14C138.824 32.9612 138.82 32.8285 138.82 32.7421C138.82 32.5752 138.879 32.4381 138.997 32.3308C139.119 32.2205 139.267 32.1654 139.441 32.1654C139.829 32.1654 140.036 32.3994 140.063 32.8673L140.067 32.9165C140.499 32.4783 140.955 32.2593 141.434 32.2593C141.993 32.2593 142.38 32.4947 142.593 32.9656C142.735 33.2816 142.806 33.7539 142.806 34.3828V34.7002C142.803 34.8373 142.801 34.9342 142.801 34.9908C142.801 35.2233 142.832 35.5228 142.894 35.8894C142.96 36.256 142.992 36.554 142.992 36.7835C142.992 36.9504 142.933 37.089 142.815 37.1993C142.696 37.3095 142.55 37.3647 142.375 37.3647Z" fill="white"/>
<path d="M136.028 37.2529C135.321 37.2529 134.742 37.0831 134.293 36.7433C133.795 36.3678 133.547 35.8388 133.547 35.1562C133.547 34.4022 133.744 33.7644 134.137 33.2428C134.575 32.6646 135.166 32.3755 135.908 32.3755C136.423 32.3755 136.851 32.459 137.191 32.6259C137.638 32.8464 137.861 33.1892 137.861 33.6541C137.861 33.982 137.679 34.2726 137.315 34.5259C137.15 34.6421 136.817 34.812 136.317 35.0355L134.821 35.7017C134.963 35.8566 135.134 35.9729 135.336 36.0504C135.537 36.1279 135.768 36.1666 136.028 36.1666C136.425 36.1666 136.76 36.0846 137.036 35.9207C137.281 35.7747 137.478 35.7017 137.626 35.7017C137.934 35.7017 138.088 35.8522 138.088 36.1532C138.088 36.4929 137.841 36.7701 137.346 36.9847C136.932 37.1635 136.493 37.2529 136.028 37.2529ZM135.908 33.4574C135.633 33.4574 135.398 33.5498 135.202 33.7346C135.007 33.9194 134.85 34.1966 134.732 34.5661C135.066 34.4201 135.399 34.2755 135.731 34.1325C136.13 33.9507 136.448 33.7823 136.685 33.6273C136.487 33.5141 136.228 33.4574 135.908 33.4574Z" fill="white"/>
<path d="M132.95 34.4633C132.95 34.6629 132.951 34.964 132.954 35.3663C132.957 35.7687 132.958 36.0697 132.958 36.2694C132.958 36.332 132.963 36.4258 132.972 36.551C132.984 36.6732 132.989 36.7656 132.989 36.8282C132.989 36.9951 132.929 37.1322 132.807 37.2395C132.689 37.3498 132.543 37.4049 132.368 37.4049C132.122 37.4049 131.943 37.2931 131.831 37.0696C131.452 37.2097 131.06 37.2797 130.655 37.2797C130.235 37.2797 129.881 37.1903 129.594 37.0115C129.271 36.8058 129.079 36.5063 129.017 36.1129C128.901 35.3678 128.844 34.7017 128.844 34.1146C128.844 33.7271 128.888 33.2845 128.977 32.7868C129.036 32.45 129.236 32.2816 129.576 32.2816C129.748 32.2816 129.894 32.3368 130.016 32.447C130.137 32.5543 130.198 32.6914 130.198 32.8583C130.198 32.9895 130.175 33.1951 130.131 33.4753C130.09 33.7554 130.069 33.9685 130.069 34.1146C130.069 34.5348 130.082 34.9029 130.109 35.2188C130.138 35.5317 130.181 35.791 130.237 35.9967C130.311 36.0294 130.382 36.0548 130.451 36.0727C130.522 36.0905 130.59 36.0995 130.655 36.0995C130.983 36.0995 131.344 36.0518 131.738 35.9564C131.738 35.7269 131.736 35.4662 131.733 35.1741C131.727 34.8254 131.724 34.575 131.724 34.423C131.724 33.812 131.753 33.2845 131.809 32.8404C131.853 32.4858 132.054 32.3084 132.412 32.3084C132.587 32.3084 132.736 32.3636 132.861 32.4739C132.985 32.5841 133.043 32.7227 133.034 32.8896C132.978 34.0251 132.95 34.5497 132.95 34.4633Z" fill="white"/>
<path d="M126.797 36.8729C126.107 37.1322 125.236 37.2619 124.183 37.2619C124.005 37.2619 123.845 37.1874 123.703 37.0383C123.564 36.8893 123.495 36.7299 123.495 36.56V31.8212C123.486 31.6185 123.478 31.4158 123.472 31.2132C123.464 30.9837 123.471 30.79 123.495 30.632C123.536 30.3518 123.795 30.182 124.271 30.1224C124.496 30.0568 124.869 30.024 125.39 30.024C125.949 30.024 126.485 30.2058 126.997 30.5694C127.597 30.9926 127.898 31.5216 127.898 32.1565C127.898 32.4992 127.836 32.7883 127.711 33.0238C127.614 33.2145 127.444 33.4187 127.201 33.6362C127.488 33.7763 127.742 33.9879 127.964 34.271C128.216 34.587 128.342 34.9014 128.342 35.2143C128.342 35.6107 128.127 35.9863 127.698 36.3409C127.411 36.5764 127.111 36.7537 126.797 36.8729ZM125.39 31.2355C125.008 31.2355 124.779 31.2385 124.702 31.2445L124.706 32.1922L124.702 33.1311C124.971 33.1638 125.174 33.1743 125.31 33.1623C126.215 33.0908 126.668 32.7555 126.668 32.1565C126.668 31.9449 126.535 31.7407 126.269 31.544C125.994 31.3384 125.701 31.2355 125.39 31.2355ZM125.909 34.3962C125.64 34.3962 125.237 34.3858 124.702 34.3649V36.0369C125.211 36.0101 125.763 35.9117 126.358 35.7419C126.878 35.5928 127.136 35.4319 127.13 35.259C127.121 35.0296 126.954 34.8254 126.628 34.6466C126.374 34.5035 126.134 34.4201 125.909 34.3962Z" fill="white"/>
</g>
</g>
<defs>
<clipPath id="clip0_2002_763">
<rect width="189" height="157" fill="white"/>
</clipPath>
<clipPath id="clip1_2002_763">
<rect width="98" height="77" fill="white" transform="matrix(-0.988802 -0.149232 -0.149232 0.988802 192.395 82.6248)"/>
</clipPath>
<clipPath id="clip2_2002_763">
<rect width="63" height="59" fill="white" transform="translate(108 4)"/>
</clipPath>
</defs>
</svg>
