<svg width="352" height="303" viewBox="0 0 352 303" fill="none" xmlns="http://www.w3.org/2000/svg">
<path d="M23.2359 0.0017979C23.2359 0.0017979 -13.9447 -1.83104 5.75841 111.544C5.75841 111.544 19.0466 150.034 2.28909 174.81H248.938V0.0017979H23.2359Z" fill="#AFCDFB"/>
<path d="M48.573 294.701C48.573 294.701 31.3573 274.605 47.5257 261.84C47.5257 261.84 59.341 254.705 68.9635 255.262C68.9635 255.262 55.3153 278.14 59.7337 280.431C64.1522 282.722 73.0874 253.822 73.0874 253.822C73.0874 253.822 99.9582 251.203 108.599 255.36C108.599 255.36 85.6227 274.147 90.4667 275.292C95.3106 276.405 120.12 257.946 120.12 257.946C120.12 257.946 145.125 262.2 143.816 277.452C142.506 292.704 133.866 297.417 130.069 297.024C126.273 296.632 104.115 288.155 103.624 291.264C103.133 294.373 116.487 304.519 125.814 304.978C125.814 304.978 108.173 324.419 96.4562 318.822C84.739 313.193 83.7244 304.323 76.4258 300.985C69.1271 297.646 62.8758 297.646 65.8869 301.05C68.898 304.454 82.1207 307.76 86.3101 315.157C90.4994 322.553 94.2306 327.528 82.1207 325.695C69.978 323.863 50.2749 314.993 49.424 304.847C48.573 294.701 48.573 294.701 48.573 294.701Z" fill="#599DAD"/>
<path d="M292.406 67.0977H42.8906C40.6815 67.0977 38.8906 68.8885 38.8906 71.0977V398.935C38.8906 401.144 40.6815 402.935 42.8906 402.935H292.406C294.615 402.935 296.406 401.144 296.406 398.935V71.0977C296.406 68.8885 294.615 67.0977 292.406 67.0977Z" fill="#9ABCEF"/>
<path d="M300.444 67.0954H47.2495C48.6568 47.9487 46.5294 34.0386 43.1583 24.0562C36.6778 4.84396 25.4844 0 25.4844 0H264.246C284.636 0 300.412 12.2735 304.732 28.5728C304.896 29.1947 305.027 29.7838 305.157 30.4057C309.281 49.0614 300.641 66.7354 300.444 67.0954Z" fill="#E9F3FE"/>
<path d="M300.45 67.0978H47.2552C48.6626 47.9511 46.5352 34.0411 43.1641 24.0586C69.0531 28.8044 133.105 38.885 201.705 37.1831C246.087 36.0703 281.14 33.1246 305.163 30.4081C309.287 49.0639 300.647 66.7378 300.45 67.0978Z" fill="#D8E8FD"/>
<path d="M293.381 39.7031H54.3828C50.5168 39.7031 47.3828 42.8371 47.3828 46.7031V396C47.3828 399.866 50.5168 403 54.3828 403H293.381C297.247 403 300.381 399.866 300.381 396V46.7031C300.381 42.8371 297.247 39.7031 293.381 39.7031Z" fill="#E9F3FE"/>
<path d="M233.597 144.534H99.3405C97.9658 144.534 96.8203 143.421 96.8203 142.013V140.737C96.8203 139.362 97.9331 138.217 99.3405 138.217H233.597C234.971 138.217 236.117 139.33 236.117 140.737V142.013C236.084 143.388 234.971 144.534 233.597 144.534Z" fill="#BBD5FC"/>
<path d="M181.622 155.14H98.7841C97.704 155.14 96.8203 154.256 96.8203 153.176V150.819C96.8203 149.739 97.704 148.855 98.7841 148.855H181.622C182.702 148.855 183.586 149.739 183.586 150.819V153.176C183.619 154.223 182.702 155.14 181.622 155.14Z" fill="#BBD5FC"/>
<path d="M83.8718 154.091V141.228H82.1699C81.1552 141.228 80.6316 140.803 80.6316 139.952C80.6316 139.33 81.0243 138.905 81.8426 138.643C82.268 138.512 82.9226 138.414 83.8063 138.348C84.7228 138.283 85.4428 138.25 85.9665 138.25C86.4902 138.25 86.8174 138.348 86.9811 138.577C87.112 138.806 87.1775 139.33 87.1775 140.214V154.124H88.9121C90.0577 154.124 90.614 154.615 90.614 155.597C90.614 156.611 90.0577 157.135 88.9121 157.135H81.8753C81.3844 157.135 80.9589 157.004 80.6316 156.742C80.3043 156.48 80.1406 156.088 80.1406 155.629C80.1406 154.647 80.7298 154.124 81.8753 154.124H83.8718V154.091Z" fill="#BBD5FC"/>
<path d="M233.597 210.844H99.3405C97.9658 210.844 96.8203 209.731 96.8203 208.324V207.048C96.8203 205.673 97.9331 204.527 99.3405 204.527H233.597C234.971 204.527 236.117 205.64 236.117 207.048V208.324C236.084 209.731 234.971 210.844 233.597 210.844Z" fill="#D2E4FD"/>
<path d="M181.622 221.452H98.7841C97.704 221.452 96.8203 220.568 96.8203 219.488V217.132C96.8203 216.052 97.704 215.168 98.7841 215.168H181.622C182.702 215.168 183.586 216.052 183.586 217.132V219.488C183.619 220.568 182.702 221.452 181.622 221.452Z" fill="#D2E4FD"/>
<path d="M90.9052 220.172C90.9052 221.023 90.3161 221.448 89.1051 221.448H81.6428C80.5627 221.448 80.0391 221.023 80.0391 220.139C80.0391 219.877 80.17 219.55 80.4645 219.19C80.89 218.699 81.5119 217.979 82.3301 216.997C83.5738 215.426 84.6212 214.084 85.4394 212.939C85.734 212.546 86.1267 211.99 86.6831 211.204C87.1086 210.419 87.3377 209.764 87.3377 209.24C87.3377 208.651 87.1414 208.16 86.7813 207.768C86.3886 207.375 85.9304 207.178 85.3412 207.178C84.7521 207.178 84.2612 207.375 83.8357 207.735C83.5411 207.964 83.312 208.422 83.1484 209.109C82.952 209.96 82.7883 210.484 82.7229 210.615C82.4938 211.106 82.1337 211.335 81.6101 211.335C81.1519 211.335 80.7918 211.171 80.53 210.844C80.3009 210.55 80.17 210.19 80.17 209.699C80.17 209.175 80.2682 208.619 80.4318 208.095C80.7918 206.917 81.4464 206.033 82.3629 205.411C83.2466 204.822 84.3266 204.527 85.5703 204.527C86.945 204.527 88.0905 204.953 89.0397 205.771C89.9888 206.655 90.4798 207.768 90.4798 209.142C90.4798 210.157 90.1525 211.204 89.4651 212.284C89.0724 212.873 88.3196 213.921 87.1086 215.426C86.4868 216.212 85.5376 217.325 84.2284 218.797H89.1378C90.3161 218.83 90.9052 219.288 90.9052 220.172Z" fill="#D2E4FD"/>
<path d="M233.597 266.192H99.3405C97.9658 266.192 96.8203 265.079 96.8203 263.672V262.395C96.8203 261.021 97.9331 259.875 99.3405 259.875H233.597C234.971 259.875 236.117 260.988 236.117 262.395V263.672C236.084 265.046 234.971 266.192 233.597 266.192Z" fill="#D2E4FD"/>
<path d="M181.622 276.796H98.7841C97.704 276.796 96.8203 275.912 96.8203 274.832V272.475C96.8203 271.395 97.704 270.512 98.7841 270.512H181.622C182.702 270.512 183.586 271.395 183.586 272.475V274.832C183.619 275.879 182.702 276.796 181.622 276.796Z" fill="#D2E4FD"/>
<path d="M90.9249 271.495C90.9249 273.099 90.3685 274.408 89.223 275.39C88.1429 276.306 86.801 276.797 85.1645 276.797C83.8881 276.797 82.808 276.503 81.9243 275.881C80.4842 274.932 79.7969 273.754 79.7969 272.412C79.7969 272.019 79.9278 271.692 80.1569 271.397C80.4187 271.103 80.7133 270.972 81.1061 270.972C81.4988 270.972 81.8916 271.233 82.2516 271.79C82.8407 272.674 83.168 273.197 83.2662 273.263C83.7899 273.819 84.4444 274.081 85.23 274.081C86.31 274.081 87.0955 273.688 87.5538 272.87C87.7829 272.477 87.8811 271.953 87.8811 271.332C87.8811 269.826 86.9974 268.975 85.1972 268.811C84.1826 268.713 83.6917 268.288 83.6917 267.535C83.6917 266.979 83.9862 266.586 84.5754 266.357C85.6554 265.964 86.2119 265.735 86.2446 265.735C86.8337 265.342 87.1283 264.688 87.1283 263.706C87.1283 263.117 86.9646 262.691 86.6046 262.331C86.2773 262.004 85.8191 261.84 85.23 261.84C84.5099 261.84 83.9535 262.004 83.5608 262.364C83.2335 262.658 82.9389 263.149 82.7098 263.869C82.5134 264.426 82.1534 264.688 81.6297 264.688C81.2697 264.688 80.9424 264.524 80.7133 264.197C80.4842 263.869 80.3533 263.509 80.3533 263.117C80.3533 262.626 80.4842 262.167 80.746 261.676C81.1715 260.858 81.8588 260.236 82.7425 259.778C83.5608 259.353 84.4772 259.156 85.4263 259.156C86.7355 259.156 87.8483 259.549 88.6993 260.367C89.583 261.153 90.0085 262.2 90.0085 263.509C90.0085 265.08 89.3539 266.324 88.0447 267.24C89.9757 268.026 90.9249 269.433 90.9249 271.495Z" fill="#D2E4FD"/>
<path d="M166.332 178.476C138.741 178.476 112.591 175.006 93.0511 170.064C73.348 165.057 62.7109 156.907 62.7109 149.641C62.7109 143.063 71.3515 137.04 87.749 132.164C72.0716 136.811 63.6601 143.652 63.6601 149.641C63.6601 156.252 74.5263 162.831 93.5094 167.642C112.951 172.584 138.807 175.301 166.332 175.301C193.858 175.301 219.714 172.584 239.155 167.642C258.106 162.831 269.005 156.285 269.005 149.641C269.005 142.637 257.549 133.898 239.123 126.894C218.176 118.908 192.32 115.963 166.365 115.963C117.631 115.963 97.5678 121.657 80.1557 128.792C97.6333 121.625 117.467 113.508 166.365 113.508C192.418 113.508 218.372 117.926 239.45 125.945C258.269 133.113 269.954 142.212 269.954 149.674C269.954 156.907 259.088 163.649 239.384 168.657C219.845 173.599 193.891 178.476 166.332 178.476Z" fill="#F37E60"/>
<path d="M333.806 243.147C333.806 243.147 332.89 251.984 331.908 253.653C330.926 255.323 326.671 260.658 324.871 261.705C323.071 262.752 325.984 254.668 325.591 253.097C325.231 251.526 324.118 255.977 323.3 256.075C322.482 256.174 322.711 252.181 322.678 250.741C322.645 249.3 326.54 245.7 327.915 242.591C329.322 239.482 333.806 243.147 333.806 243.147Z" fill="#FFB27D"/>
<path d="M225.301 161.718L223.272 157.889C223.272 157.889 224.287 151.081 215.744 146.761C215.744 146.761 212.635 145.484 210.868 148.037C209.231 150.393 213.977 149.968 213.715 153.961C213.453 157.987 215.352 160.343 218.035 161.652L220.228 164.205L225.301 161.718Z" fill="#FFB27D"/>
<path d="M306.126 152.553C306.126 152.553 298.794 188.588 258.373 200.371C245.773 204.037 217.102 162.536 217.102 162.536C217.102 162.536 218.116 158.706 224.433 159.59C224.433 159.59 252.318 178.05 255.853 180.079C258.963 181.846 279.451 157.201 288.812 153.208C298.14 149.215 306.126 152.553 306.126 152.553Z" fill="#EA7659"/>
<path d="M198.609 145.453L197.461 152.926L234.987 158.689L236.134 151.216L198.609 145.453Z" fill="#6683C2"/>
<path d="M189.305 147.878L197.454 152.951L198.6 145.488L189.305 147.878Z" fill="#D4CCC6"/>
<path d="M240.107 154.392L239.747 156.749C239.518 158.189 238.176 159.203 236.703 158.974L234.969 158.712L236.114 151.25L238.013 151.545C239.387 151.741 240.336 153.017 240.107 154.392Z" fill="#D4CCC6"/>
<path d="M269.094 243.871C269.094 243.871 270.567 262.102 272.334 284.063C274.69 313.847 277.571 350.438 277.832 357.377C278.323 369.421 280.287 388.666 280.287 388.666C280.287 388.666 284.935 393.248 294.23 391.317C294.23 391.317 302.51 363.825 304.867 334.728C304.9 334.237 304.932 333.779 304.965 333.288C307.158 303.668 310.595 241.318 310.595 241.318L269.094 243.871Z" fill="#849FDA"/>
<path d="M269.094 243.872C269.094 243.872 270.567 262.102 272.334 284.063L304.867 334.761C304.9 334.27 304.932 333.812 304.965 333.321C307.158 303.701 310.595 241.352 310.595 241.352L269.094 243.872Z" fill="#6D8AC9"/>
<path d="M275.875 246.029C275.875 246.029 302.648 312.11 320.256 343.17C337.865 374.23 343.363 382.904 343.363 382.904C343.363 382.904 353.444 378.943 354.36 376.227C354.36 376.227 347.618 316.267 335.835 301.669C329.159 293.421 321.336 268.645 320.976 259.972C320.616 251.299 318.587 234.148 318.587 234.148L275.875 246.029Z" fill="#849FDA"/>
<path d="M311.087 144.208C311.087 144.208 292.988 152.946 282.547 149.706C282.547 149.706 285.132 146.466 289.616 144.044C289.256 141.949 288.962 140.116 288.798 138.578C288.373 135.011 288.373 133.014 288.373 133.014L295.377 127.516L301.988 122.246C301.432 137.04 311.087 144.208 311.087 144.208Z" fill="#FFB27D"/>
<path d="M320.646 237.485C320.679 238.598 318.322 239.841 317.275 240.332C309.518 243.736 302.285 246.093 294.103 246.911C284.415 247.893 272.992 245.733 269.032 245.798C268.639 245.798 268.279 245.634 267.952 245.373C267.657 245.176 267.461 233.524 267.657 218.829C267.657 218.24 267.657 217.651 267.69 217.062V216.865C267.755 211.138 267.984 205.115 268.246 199.093C268.803 185.87 269.85 173.139 271.617 166.102C273.745 157.789 278.556 152.29 282.942 148.297L286.542 145.122C290.142 145.842 293.972 145.646 297.801 143.78C301.99 141.751 306.474 139.591 307.194 140.147C312.66 144.14 316.359 153.108 318.322 164.596C319.435 171.208 320.024 178.604 319.959 186.361C319.959 189.209 319.893 192.122 319.73 195.035C318.781 210.679 319.73 224.295 320.286 232.183C320.483 234.441 320.581 236.241 320.646 237.485Z" fill="#F37E60"/>
<path d="M320.294 236.766C256.864 236.635 308.61 167.936 308.61 167.936L318.887 164.598C319.705 171.667 320.098 179.555 320.065 187.836C320.065 190.879 319.999 193.989 319.901 197.098C319.181 213.823 319.869 228.387 320.294 236.766Z" fill="#ED7658"/>
<path d="M302.096 127.906C302.096 127.906 297.514 136.252 288.808 138.576C288.383 135.009 288.383 133.012 288.383 133.012L295.387 127.514L302.096 127.906Z" fill="#ED985F"/>
<path d="M285.175 132.754C285.175 132.754 302.456 135.569 304.092 124.964C305.729 114.327 309.034 107.552 298.07 105.294C287.106 103.036 284.324 106.767 282.916 110.203C281.509 113.64 280.723 131.772 285.175 132.754Z" fill="#FFB27D"/>
<path d="M310.341 104.015C310.505 103.852 310.865 103.688 311.65 103.655C311.65 103.655 310.996 103.262 310.145 103.23C309.981 102.117 309.392 100.12 307.461 99.6622C307.461 99.6622 308.508 100.219 308.639 101.397C306.413 99.1058 301.635 97.4365 288.38 98.4839C270.935 99.8585 276.695 111.019 278.953 112.361C281.212 113.703 286.907 110.037 291.096 110.365C295.318 110.692 296.104 116.78 297.544 117.631C298.984 118.449 298.395 116.976 300.359 116.125C302.29 115.241 302.486 118.449 301.93 120.544C301.373 122.638 304.024 125.387 304.024 125.387C304.024 125.387 304.024 125.388 306.708 122.507C309.392 119.627 311.912 107.386 310.701 104.768C310.57 104.506 310.472 104.277 310.341 104.015Z" fill="#6B6B6B"/>
<path d="M307.233 140.086C307.233 140.086 318.165 145.257 323.401 153.21C331.518 165.549 340.944 210.552 341.141 214.709C341.304 218.866 334.267 248.289 334.267 248.289C334.267 248.289 327.1 247.831 325.267 244.198C325.267 244.198 326.707 213.989 325.791 212.025C324.874 210.094 295.974 171.473 299.214 163.258C302.454 155.043 307.233 140.086 307.233 140.086Z" fill="#F37E60"/>
<path d="M223.253 157.692C223.253 157.692 223.842 155.335 222.205 154.288C220.569 153.241 219.063 150.361 218.376 150.753C216.969 151.572 219.162 154.059 218.736 157.201C218.638 158.281 221.191 161.161 223.253 157.692Z" fill="#FFB27D"/>
<path d="M258.892 79.0287C258.892 81.1077 258.312 82.993 257.15 84.6848C255.795 86.6459 254.027 87.6265 251.848 87.6265C250.063 87.6265 248.548 87.1004 247.302 86.0483C245.981 84.9373 245.32 83.498 245.32 81.7305C245.32 79.6516 245.956 77.7536 247.227 76.0366C248.649 74.1007 250.45 73.1328 252.63 73.1328C256.805 73.1328 258.892 75.0981 258.892 79.0287ZM256.266 79.0287C256.266 77.7494 255.993 76.8699 255.446 76.3901C254.907 75.9103 253.969 75.6705 252.63 75.6705C251.334 75.6705 250.215 76.3228 249.272 77.6274C248.388 78.8646 247.946 80.2323 247.946 81.7305C247.946 82.7405 248.329 83.5612 249.095 84.1924C249.827 84.79 250.745 85.0888 251.848 85.0888C253.127 85.0888 254.2 84.4365 255.067 83.1319C255.867 81.9283 256.266 80.5606 256.266 79.0287Z" fill="#6683C2"/>
<path d="M243.503 83.5493C243.503 85.0895 242.308 86.1795 239.918 86.8192C238.42 87.2232 236.598 87.4252 234.451 87.4252C234.123 87.4252 233.807 87.2947 233.504 87.0338C233.21 86.7729 233.062 86.4825 233.062 86.1627V83.7639C233.062 83.7386 233.105 81.4829 233.189 76.9968C233.189 76.576 233.189 76.1551 233.189 75.7343C233.197 75.2209 233.252 74.8085 233.353 74.497C233.42 74.2614 233.546 74.0972 233.732 74.0047C233.816 73.9542 234.047 73.8868 234.426 73.8027C234.931 73.6764 235.773 73.6133 236.951 73.6133C238.306 73.6133 239.535 73.9415 240.638 74.598C241.925 75.364 242.569 76.3824 242.569 77.6533C242.569 78.8317 241.938 79.6944 240.675 80.2415C241.315 80.5192 241.925 80.9695 242.506 81.5924C243.171 82.2994 243.503 82.9517 243.503 83.5493ZM240.208 77.6533C240.208 77.1399 239.855 76.6896 239.148 76.3024C238.525 75.9573 237.936 75.7848 237.38 75.7848H236.863C236.223 75.7848 235.79 75.7974 235.562 75.8227C235.554 76.1088 235.55 76.5718 235.55 77.2114C235.55 77.3714 235.571 77.687 235.613 78.1583C235.646 78.5539 235.655 78.8738 235.638 79.1178C236.118 79.1683 236.551 79.1936 236.938 79.1936C237.881 79.1936 238.567 79.1347 238.996 79.0168C239.804 78.7896 240.208 78.3351 240.208 77.6533ZM241.004 83.4356C241.004 82.9811 240.671 82.5519 240.006 82.1479C239.493 81.828 238.954 81.6092 238.39 81.4914C238.062 81.424 237.578 81.3862 236.938 81.3777C236.139 81.3609 235.651 81.3441 235.474 81.3272C235.44 81.8996 235.423 82.3835 235.423 82.7791V85.241C239.144 85.0811 241.004 84.4793 241.004 83.4356Z" fill="#6683C2"/>
<path d="M230.657 74.813C230.657 75.1834 230.539 75.4906 230.303 75.7346C230.076 75.9703 229.781 76.0882 229.42 76.0882C229.192 76.0882 228.851 76.0797 228.397 76.0629C227.951 76.0377 227.614 76.025 227.387 76.025C227.134 76.025 226.823 76.0503 226.453 76.1008C226.638 80.5364 226.73 83.5454 226.73 85.1277C226.73 86.8111 226.284 87.6528 225.392 87.6528C225.055 87.6528 224.761 87.5434 224.508 87.3245C224.264 87.1057 224.142 86.8321 224.142 86.5039C224.142 86.184 224.155 85.7043 224.18 85.0646C224.205 84.4249 224.218 83.9452 224.218 83.6254C224.218 82.5143 224.134 80.0146 223.965 76.126C223.688 76.1092 223.153 76.1008 222.362 76.1008C221.63 76.1008 221.121 76.0503 220.834 75.9493C220.304 75.7641 220.039 75.3769 220.039 74.7878C220.039 74.4343 220.148 74.1313 220.367 73.8788C220.595 73.6263 220.889 73.5 221.251 73.5H228.7C229.323 73.5 229.773 73.5631 230.051 73.6894C230.455 73.883 230.657 74.2575 230.657 74.813Z" fill="#6683C2"/>
<path d="M213.394 87.6397C211.668 87.6397 210.229 87.1179 209.076 86.0742C207.864 84.98 207.258 83.5366 207.258 81.7438C207.258 80.0352 207.826 78.2719 208.962 76.4539C210.225 74.4338 211.647 73.4238 213.229 73.4238C214.054 73.4238 214.976 73.6174 215.994 74.0046C217.282 74.5012 217.926 75.1072 217.926 75.8226C217.926 76.1424 217.821 76.4286 217.61 76.6811C217.4 76.9252 217.139 77.0472 216.828 77.0472C216.584 77.0472 216.369 76.9757 216.184 76.8326C216.007 76.6811 215.834 76.5338 215.666 76.3907C215.17 75.9951 214.357 75.7974 213.229 75.7974C212.371 75.7974 211.521 76.5633 210.679 78.0951C209.913 79.5007 209.53 80.7169 209.53 81.7438C209.53 82.8548 209.909 83.7301 210.667 84.3698C211.374 84.9674 212.283 85.2662 213.394 85.2662C213.899 85.2662 214.437 85.1315 215.01 84.8622L216.474 84.0794C216.727 83.9448 216.908 83.8774 217.017 83.8774C217.328 83.8774 217.598 84.0037 217.825 84.2562C218.052 84.5003 218.166 84.7822 218.166 85.1021C218.166 85.7165 217.518 86.3099 216.222 86.8822C215.085 87.3872 214.143 87.6397 213.394 87.6397Z" fill="#6683C2"/>
<path d="M205.333 88.8139C205.333 89.1758 205.215 89.4746 204.979 89.7102C204.743 89.9459 204.445 90.0637 204.083 90.0637C203.216 90.0637 202.782 89.3736 202.782 87.9932C202.782 87.8754 202.786 87.6734 202.795 87.3872C202.795 87.1431 202.795 86.9622 202.795 86.8443H195.788C195.527 86.8443 195.157 86.8696 194.677 86.9201C194.155 86.9706 193.781 87 193.553 87.0085C193.545 87.2526 193.545 87.5682 193.553 87.9553C193.57 88.4351 193.579 88.7507 193.579 88.9022C193.579 89.2726 193.461 89.5714 193.225 89.7986C192.989 90.0343 192.691 90.1521 192.329 90.1521C191.453 90.1521 191.016 89.5293 191.016 88.2836C191.016 87.9638 191.024 87.4882 191.041 86.857C191.058 86.2257 191.066 85.7502 191.066 85.4303C191.066 85.0179 191.205 84.6981 191.483 84.4708C191.769 84.2351 192.114 84.1426 192.518 84.1931C193.377 82.981 193.957 81.6091 194.26 80.0773C194.488 78.9663 194.601 77.4807 194.601 75.6206C194.601 74.8378 194.769 74.2865 195.106 73.9667C195.443 73.6469 196.007 73.487 196.798 73.487C197.008 73.487 197.4 73.5038 197.972 73.5375C198.553 73.5711 199.012 73.588 199.348 73.588C199.668 73.588 200.144 73.5627 200.775 73.5122C201.406 73.4533 201.861 73.4238 202.138 73.4238C202.795 73.4238 203.22 73.7016 203.414 74.2571C203.515 74.5517 203.565 75.1072 203.565 75.9236C203.565 76.3108 203.54 76.8873 203.489 77.6532C203.447 78.4108 203.426 78.9789 203.426 79.3576C203.426 80.0141 203.435 80.8642 203.451 81.9079C203.477 83.3135 203.489 84.1636 203.489 84.4582C204.684 84.4582 205.282 84.879 205.282 85.7207C205.282 86.0658 205.29 86.5792 205.307 87.261C205.324 87.9511 205.333 88.4688 205.333 88.8139ZM201.065 76.0499C198.961 76.0835 197.635 76.0835 197.088 76.0499C197.088 79.0967 196.407 81.8658 195.043 84.3572C195.253 84.3404 195.502 84.3319 195.788 84.3319H200.989C200.989 83.97 200.973 83.141 200.939 81.8448C200.922 80.8179 200.914 79.9889 200.914 79.3576C200.914 78.9957 200.939 78.4486 200.989 77.7164C201.04 76.9757 201.065 76.4202 201.065 76.0499Z" fill="#6683C2"/>
<path d="M189.744 79.0287C189.744 81.1077 189.163 82.993 188.002 84.6848C186.647 86.6459 184.879 87.6265 182.699 87.6265C180.915 87.6265 179.4 87.1004 178.154 86.0483C176.833 84.9373 176.172 83.498 176.172 81.7305C176.172 79.6516 176.807 77.7536 178.078 76.0366C179.501 74.1007 181.302 73.1328 183.482 73.1328C187.657 73.1328 189.744 75.0981 189.744 79.0287ZM187.118 79.0287C187.118 77.7494 186.844 76.8699 186.297 76.3901C185.759 75.9103 184.82 75.6705 183.482 75.6705C182.186 75.6705 181.066 76.3228 180.124 77.6274C179.24 78.8646 178.798 80.2323 178.798 81.7305C178.798 82.7405 179.181 83.5612 179.947 84.1924C180.679 84.79 181.596 85.0888 182.699 85.0888C183.978 85.0888 185.052 84.4365 185.918 83.1319C186.718 81.9283 187.118 80.5606 187.118 79.0287Z" fill="#6683C2"/>
<path d="M174.386 83.5493C174.386 85.0895 173.191 86.1795 170.801 86.8192C169.303 87.2232 167.48 87.4252 165.334 87.4252C165.006 87.4252 164.69 87.2947 164.387 87.0338C164.093 86.7729 163.945 86.4825 163.945 86.1627V83.7639C163.945 83.7386 163.987 81.4829 164.072 76.9968C164.072 76.576 164.072 76.1551 164.072 75.7343C164.08 75.2209 164.135 74.8085 164.236 74.497C164.303 74.2614 164.429 74.0972 164.614 74.0047C164.699 73.9542 164.93 73.8868 165.309 73.8027C165.814 73.6764 166.656 73.6133 167.834 73.6133C169.189 73.6133 170.418 73.9415 171.52 74.598C172.808 75.364 173.452 76.3824 173.452 77.6533C173.452 78.8317 172.821 79.6944 171.558 80.2415C172.198 80.5192 172.808 80.9695 173.389 81.5924C174.054 82.2994 174.386 82.9517 174.386 83.5493ZM171.091 77.6533C171.091 77.1399 170.738 76.6896 170.031 76.3024C169.408 75.9573 168.819 75.7848 168.263 75.7848H167.745C167.106 75.7848 166.672 75.7974 166.445 75.8227C166.437 76.1088 166.432 76.5718 166.432 77.2114C166.432 77.3714 166.454 77.687 166.496 78.1583C166.529 78.5539 166.538 78.8738 166.521 79.1178C167.001 79.1683 167.434 79.1936 167.821 79.1936C168.764 79.1936 169.45 79.1347 169.879 79.0168C170.687 78.7896 171.091 78.3351 171.091 77.6533ZM171.887 83.4356C171.887 82.9811 171.554 82.5519 170.889 82.1479C170.376 81.828 169.837 81.6092 169.273 81.4914C168.945 81.424 168.461 81.3862 167.821 81.3777C167.022 81.3609 166.533 81.3441 166.357 81.3272C166.323 81.8996 166.306 82.3835 166.306 82.7791V85.241C170.026 85.0811 171.887 84.4793 171.887 83.4356Z" fill="#6683C2"/>
<path d="M161.431 79.0287C161.431 81.1077 160.851 82.993 159.689 84.6848C158.334 86.6459 156.567 87.6265 154.387 87.6265C152.602 87.6265 151.087 87.1004 149.842 86.0483C148.52 84.9373 147.859 83.498 147.859 81.7305C147.859 79.6516 148.495 77.7536 149.766 76.0366C151.188 74.1007 152.989 73.1328 155.169 73.1328C159.344 73.1328 161.431 75.0981 161.431 79.0287ZM158.805 79.0287C158.805 77.7494 158.532 76.8699 157.985 76.3901C157.446 75.9103 156.508 75.6705 155.169 75.6705C153.873 75.6705 152.754 76.3228 151.811 77.6274C150.927 78.8646 150.485 80.2323 150.485 81.7305C150.485 82.7405 150.868 83.5612 151.634 84.1924C152.367 84.79 153.284 85.0888 154.387 85.0888C155.666 85.0888 156.739 84.4365 157.606 83.1319C158.406 81.9283 158.805 80.5606 158.805 79.0287Z" fill="#6683C2"/>
<path d="M146.496 85.885C146.496 86.2216 146.361 86.4952 146.092 86.7056C145.831 86.916 145.536 87.0212 145.208 87.0212C144.619 87.0212 144.211 86.7224 143.983 86.1248C143.764 85.5273 143.154 84.5172 142.153 83.0948C141.084 81.5882 140.394 80.8307 140.082 80.8223C139.998 80.8223 139.493 80.8223 138.567 80.8223C138.567 81.1 138.563 81.5924 138.555 82.2994C138.546 82.9559 138.542 83.4525 138.542 83.7892C138.542 85.1695 138.521 85.9565 138.479 86.1501C138.344 86.8319 137.932 87.1727 137.242 87.1727C136.888 87.1727 136.585 87.0675 136.333 86.8571C136.088 86.6467 135.966 86.3689 135.966 86.0238C135.966 85.6283 135.983 85.0096 136.017 84.168C136.051 83.3179 136.067 82.6908 136.067 82.2868C136.067 81.4872 136.038 80.2878 135.979 78.6886C135.92 77.0895 135.891 75.8859 135.891 75.0779C135.891 73.9921 136.324 73.4492 137.191 73.4492C137.545 73.4492 137.843 73.5586 138.087 73.7775C138.331 73.9963 138.454 74.2741 138.454 74.6107C138.454 75.2252 138.483 76.4666 138.542 78.3351C138.769 78.3351 139.076 78.3351 139.464 78.3351C140.49 78.2678 141.231 77.8091 141.686 76.959C141.82 76.6476 141.997 76.2436 142.216 75.747C142.864 74.4003 143.668 73.727 144.627 73.727C144.93 73.727 145.246 73.7985 145.574 73.9416C145.995 74.1268 146.205 74.3709 146.205 74.6739C146.205 75.3388 145.919 75.6712 145.347 75.6712C144.876 75.6712 144.387 76.2352 143.882 77.363C143.529 78.1289 143.331 78.554 143.289 78.6381C143.028 79.1179 142.738 79.4882 142.418 79.7492C143.259 80.3467 144.143 81.3315 145.069 82.7034C146.02 84.109 146.496 85.1695 146.496 85.885Z" fill="#6683C2"/>
<path d="M133.557 75.5814L129.188 85.025C128.111 87.3228 127.286 89.246 126.714 90.7947L125.881 93.244C125.662 93.85 125.283 94.153 124.744 94.153C124.391 94.153 124.084 94.0351 123.823 93.7995C123.57 93.5722 123.444 93.286 123.444 92.941C123.444 92.0993 124.353 89.6626 126.171 85.631L121.651 76.9323L121.083 76.0107C120.856 75.6235 120.742 75.2994 120.742 75.0385C120.742 74.6934 120.873 74.3904 121.134 74.1295C121.403 73.8686 121.702 73.7381 122.03 73.7381C122.417 73.7381 122.716 73.8854 122.926 74.18C124.357 76.1664 125.893 78.9944 127.535 82.6641L129.403 78.3084C130.076 76.8018 130.724 75.5057 131.347 74.4199C131.617 73.9486 131.97 73.7129 132.408 73.7129C132.753 73.7129 133.056 73.8349 133.317 74.079C133.586 74.3231 133.721 74.6135 133.721 74.9502C133.721 75.1353 133.666 75.3457 133.557 75.5814Z" fill="#6683C2"/>
<path d="M112.545 79.4348C112.31 79.4348 111.796 79.3801 111.005 79.2707C110.938 80.5416 110.904 82.7679 110.904 85.9494C110.904 86.2861 110.795 86.5723 110.576 86.8079C110.357 87.0352 110.084 87.1488 109.755 87.1488C109.419 87.1488 109.141 87.0352 108.922 86.8079C108.703 86.5723 108.594 86.2861 108.594 85.9494V82.2376C108.594 81.0004 108.67 79.2581 108.821 77.0108C108.989 74.5784 109.082 72.8361 109.099 71.784V70.0417C109.099 69.2085 109.149 68.6025 109.25 68.2237C109.444 67.4831 109.856 67.1632 110.488 67.2642C110.757 67.1801 111.14 67.1169 111.636 67.0748C112.133 67.0328 112.743 67.0117 113.467 67.0117C115.007 67.0117 116.451 67.5378 117.797 68.5899C119.279 69.7514 120.019 71.1486 120.019 72.7814C120.019 74.8688 119.228 76.5311 117.646 77.7683C116.232 78.8793 114.532 79.4348 112.545 79.4348ZM113.177 69.4105C112.806 69.4105 112.474 69.4189 112.179 69.4357C111.893 69.4526 111.649 69.4778 111.447 69.5115L111.422 71.8345L111.157 76.8593L112.545 77.0234C113.959 77.0234 115.15 76.6657 116.118 75.9503C117.179 75.1676 117.709 74.1112 117.709 72.7814C117.709 71.8387 117.204 71.0265 116.194 70.3448C115.26 69.7219 114.254 69.4105 113.177 69.4105Z" fill="#6683C2"/>
</svg>
