<svg width="352" height="247" fill="none" xmlns="http://www.w3.org/2000/svg"><path d="m123.437 245.109-110.474-.201C7.37 231.934 1.725 218.692.305 204.604c-1.42-14.086 2.032-29.407 12.268-39.034 4.681-4.402 10.616-7.508 14.376-12.739 5.415-7.531 5.149-17.637 5.268-26.958A212.914 212.914 0 0 1 47.28 49.974C55.246 29.96 64.25 10.98 88.445 4.227c23.835-6.653 44.451-3.87 62.898 8.835 21.589 14.869 38.739 42.771 54.234 62.878 6.257 8.119 14.489 17.343 24.498 15.586 7.143-1.255 12.028-7.76 17.969-11.974 14.405-10.218 34.823-6.193 49.498 3.623 24.563 16.43 37.951 46.686 39.246 76.504 1.295 29.819-8.207 59.21-21.613 85.78l-191.738-.349v-.001Z" fill="#94A8CE" fill-opacity=".39"/><path d="M301.698 89.624a2.02 2.02 0 0 1-.989-.26 2.197 2.197 0 0 1-1.107-1.93V69.517c0-.81.423-1.549 1.107-1.93a2.015 2.015 0 0 1 2.054.045l14.544 8.96a2.193 2.193 0 0 1 1.032 1.885c0 .782-.386 1.486-1.032 1.885l-14.544 8.96a2.04 2.04 0 0 1-1.064.305l-.001-.002Zm.001-20.891a.652.652 0 0 0-.305.082.785.785 0 0 0-.385.7v17.919c0 .303.144.564.385.7a.588.588 0 0 0 .629-.016l14.545-8.96a.785.785 0 0 0 .362-.683.788.788 0 0 0-.362-.683l-14.545-8.96a.605.605 0 0 0-.324-.098v-.001Z" fill="#F08F7A"/><path d="M306.936 98.898c-11.42 0-20.709-9.29-20.709-20.71 0-11.42 9.29-20.71 20.709-20.71 11.42 0 20.71 9.29 20.71 20.71 0 11.42-9.29 20.71-20.71 20.71Zm0-40.012c-10.643 0-19.301 8.658-19.301 19.302 0 10.643 8.658 19.301 19.301 19.301 10.644 0 19.302-8.658 19.302-19.301 0-10.644-8.658-19.302-19.302-19.302Z" fill="#F08F7A"/><path d="M213.287 3.64h-61.733c-8.267 0-14.968 6.701-14.968 14.968v.358c0 8.267 6.701 14.969 14.968 14.969h61.733c8.267 0 14.968-6.702 14.968-14.969v-.358c0-8.267-6.701-14.968-14.968-14.968Z" fill="#B1D3FC"/><path d="M147.485 29.586s-3.678 7.968-2.119 10.086c1.558 2.117 12.126-8.65 12.126-8.65l-10.007-1.436Z" fill="#B1D3FC"/><path d="M212.493 16.197h-60.144a.703.703 0 0 1-.704-.704c0-.39.314-.705.704-.705h60.144a.704.704 0 1 1 0 1.41ZM178.091 22.787h-25.742a.703.703 0 0 1-.704-.705c0-.39.314-.704.704-.704h25.742a.703.703 0 1 1 0 1.41ZM198.128 22.787h-15.279a.703.703 0 0 1-.704-.705c0-.39.314-.704.704-.704h15.279a.704.704 0 1 1 0 1.409Z" fill="#FFF3E9"/><path d="M29.688 54.617c0-4.75 2.486-7.312 7.14-7.312h222.324c4.655 0 7.141 2.563 7.141 7.313v5.977H29.687v-5.978Z" fill="#ACC1EB"/><path d="M251.697 56.137c1.063 0 1.924-.879 1.924-1.963s-.861-1.963-1.924-1.963c-1.062 0-1.924.879-1.924 1.963s.862 1.963 1.924 1.963ZM243.357 56.137c1.063 0 1.924-.879 1.924-1.963s-.861-1.963-1.924-1.963c-1.062 0-1.923.879-1.923 1.963s.861 1.963 1.923 1.963ZM235.022 56.137c1.062 0 1.923-.879 1.923-1.963s-.861-1.963-1.923-1.963c-1.063 0-1.924.879-1.924 1.963s.861 1.963 1.924 1.963Z" fill="#6683C2"/><path d="M266.293 186.601V60.595H29.687v135.254h236.606v-9.248Z" fill="#D4E2FF"/><path d="M266.292 128.942H164.617c-3.574 0-6.48-3.514-6.48-7.834V60.595h1.408v60.513c0 3.542 2.276 6.425 5.072 6.425h101.675v1.409Z" fill="#FFF3E9"/><path d="M266.293 122.332H164.056a.703.703 0 0 1-.704-.705V60.595h1.408v60.327h101.533v1.41ZM211.831 173.17c-.681 0-1.346-.07-1.988-.209-2.556-.553-4.585-2.138-6.546-3.67a65.339 65.339 0 0 0-1.319-1.016c-8.214-6.109-19.311-7.356-26.986-3.025-5.099 2.869-12.003 3.415-17.182 1.348a.703.703 0 1 1 .523-1.307c4.8 1.911 11.219 1.401 15.967-1.271 8.152-4.59 19.878-3.308 28.517 3.126.452.335.9.683 1.347 1.035 1.922 1.5 3.736 2.918 5.977 3.404 3.086.666 5.989-.685 7.451-1.555 2.108-1.25 3.918-2.993 5.67-4.679l.456-.441c2.941-2.817 6.18-5.709 9.937-7.803 2.938-1.636 7.526-3.466 12.592-2.984 7.914.771 13.896 6.913 17.52 11.931a.707.707 0 0 1-.158.985.708.708 0 0 1-.984-.158c-3.455-4.783-9.125-10.636-16.515-11.355-4.705-.466-9.008 1.273-11.769 2.81-3.618 2.017-6.774 4.84-9.648 7.593l-.454.438c-1.809 1.741-3.681 3.542-5.927 4.874-2.14 1.271-4.378 1.93-6.48 1.93l-.001-.001Z" fill="#FFF3E9"/><path d="M212.207 176.162a3.695 3.695 0 1 0 0-7.39 3.695 3.695 0 0 0 0 7.39ZM243.453 158.441a3.695 3.695 0 1 0 0-7.39 3.695 3.695 0 0 0 0 7.39Z" fill="#6683C2"/><path d="M253.618 110.718h-65.796a.704.704 0 0 1-.705-.705V66.831c0-.259.142-.497.37-.62a.712.712 0 0 1 .722.03l65.796 43.183a.705.705 0 0 1-.388 1.294h.001Zm-65.093-1.408h62.735l-62.735-41.173v41.173Z" fill="#FFF3E9"/><path d="M194.016 110.014h-1.409v-4.838h-4.837v-1.408h5.541c.39 0 .705.314.705.705v5.541ZM187.947 74.426c-.066 0-.131 0-.197-.002l.041-1.408c2.95.103 4.17-2.491 4.22-2.602l1.28.59c-.064.142-1.607 3.422-5.344 3.422ZM244.889 110.206c-.032-.11-.737-2.706 1.688-4.727l.904 1.082c-1.73 1.441-1.244 3.242-1.239 3.26l-1.353.385ZM75.582 118.779a.708.708 0 0 1-.633-.395c-2.973-6.06-6.049-12.325-10.223-17.75-4.62-6-10.111-10.164-15.885-12.042-6.803-2.21-14.049-1.11-18.912 2.877a.71.71 0 0 1-.993-.098.708.708 0 0 1 .099-.993c5.231-4.282 12.991-5.485 20.241-3.125C55.32 89.22 61.048 93.55 65.84 99.777c4.264 5.535 7.37 11.866 10.375 17.988a.702.702 0 0 1-.634 1.014h.001Z" fill="#FFF3E9"/><path d="M29.685 176.013a.704.704 0 0 1-.704-.705V54.616c0-5.168 2.784-8.015 7.844-8.015h13.9c.39 0 .705.315.705.705 0 .39-.315.704-.705.704h-13.9c-4.27 0-6.436 2.223-6.436 6.607v120.692c0 .39-.315.705-.705.705l.001-.001Z" fill="#6683C2"/><path d="M191.993 122.634a2.313 2.313 0 1 0-3.81-2.626 2.313 2.313 0 0 0 3.81 2.626Z" fill="#B45C41"/><path d="m195.03 134.25-5.617-5.215-5.229-5.191-14.758 18.232-2.742 8.908 6.959 2.79s5.79-6.2 7.111-7.49c1.321-1.29 9.115-6.51 11.261-8.375 2.506-2.177 3.014-3.66 3.014-3.66l.001.001Z" fill="#FFB098"/><path d="m178.654 139.588 2.399.982c.465.191.98.005 1.141-.411L207.345 75.3c.158-.407-.081-.882-.535-1.068-.455-.186-.959-.014-1.131.387l-27.55 63.876c-.177.411.059.903.525 1.094v-.001Z" fill="#6683C2"/><path d="M186.188 124.536c2.215-1.668 2.649-4.348 2.692-5.949.029-1.081-.196-2.679-1.194-3.097-.588-.246-1.597-.066-1.958.804-1.682 4.045-4.502 4.551-7.086 6.567-2.585 2.017-5.344 9.539-7.184 14.281-1.59 4.098-8.13 9.597-8.13 9.597l3.358 4.246 19.502-26.449ZM186.478 139.207a2.248 2.248 0 0 1-1.05-4.238l6.415-3.358a2.247 2.247 0 0 1 2.084 3.982l-6.415 3.357c-.33.174-.685.256-1.034.257Z" fill="#FFB098"/><path d="M186.904 128.95a2.247 2.247 0 0 1-1.05-4.238l7.417-3.882a2.245 2.245 0 0 1 3.032.949 2.246 2.246 0 0 1-.948 3.032l-7.417 3.883c-.33.173-.685.255-1.034.256ZM190.639 121.763c-1.005.89-1.676.701-2.079-.069-.575-1.099-.07-3.595 1.03-4.17l3.123-1.635a2.248 2.248 0 0 1 2.085 3.983l-3.124 1.634a2.242 2.242 0 0 1-1.035.257ZM184.673 135.248a2.248 2.248 0 0 1-1.05-4.239l9.994-5.232a2.247 2.247 0 1 1 2.085 3.982l-9.994 5.232a2.242 2.242 0 0 1-1.035.257Z" fill="#FFB098"/><path d="M186.469 139.911a2.952 2.952 0 0 1-2.618-1.581 2.96 2.96 0 0 1 1.246-3.986l6.415-3.356a.703.703 0 0 1 .95.299.701.701 0 0 1-.298.95l-6.414 3.355a1.549 1.549 0 0 0-.651 2.085c.268.509.793.825 1.369.825h.006a.705.705 0 0 1 .003 1.409h-.009.001ZM186.894 129.653a2.95 2.95 0 0 1-2.614-1.581 2.957 2.957 0 0 1 1.247-3.984l7.418-3.883a.703.703 0 1 1 .651 1.248l-7.418 3.883a1.549 1.549 0 0 0-.651 2.083c.269.509.794.825 1.369.825.2.002.493-.059.713-.176a.704.704 0 1 1 .656 1.247c-.417.22-.89.337-1.362.337h-.01l.001.001Z" fill="#D58670"/><path d="M184.664 135.952a2.945 2.945 0 0 1-2.617-1.583 2.957 2.957 0 0 1 1.245-3.984l9.621-5.035a.7.7 0 0 1 .949.298.702.702 0 0 1-.298.95l-9.618 5.035a1.543 1.543 0 0 0 .718 2.91h.007c.387 0 .704.315.704.702.002.392-.365.661-.711.707ZM188.42 122.029a.707.707 0 0 1-.672-.917c.752-2.359.245-4.108.24-4.127a.705.705 0 0 1 1.346-.413c.027.087.651 2.164-.243 4.966a.708.708 0 0 1-.672.492l.001-.001Z" fill="#D58670"/><path d="m119.647 109.283 6.593-3.261s3.915 1.86 8.684 10.271c4.768 8.412 14.896 33.14 14.896 33.14s12.055-8.91 15.537-10.153c3.481-1.243 4.593-2.371 4.593-2.371s9.817 11.221 9.944 12.7c.126 1.478-22.842 34-36.985 30.637-14.143-3.364-32.147-56.106-32.147-56.106l8.885-14.857Z" fill="#FFF3E9"/><path d="M121.496 101.713c.631-14.103 4.653-28.11 3.149-42.147-.256-2.378-.692-6.146-1.936-8.188-2.402-3.945-7.389-4.812-11.332-7.216-5.993-3.657-12.991-5.434-19.846-3.922-7.636 1.684-13.047 8.844-15.218 16.356-2.171 7.512-1.766 15.484-1.852 23.303-.087 7.82-1.602 15.154-5.642 21.85-2.47 4.093-6.24 8.25-8.487 12.47-4.502 8.446-1.35 19.892 5.936 26.098l57.87-25.146c-2.602-3.858-2.85-8.809-2.642-13.458Z" fill="#594646"/><path d="m112.586 101.405-1.776-.462c-.485-.125-.898-.381-1.253-.697-.455.105-.918.202-1.405.274-9.292 1.371-16.81-10.897-16.813-10.897-.187 2.061-.43 4.126-.929 6.138-.494 1.992-1.313 3.689-2.464 5.376.092-.186-.39.448-.53.616-.312.368-.67.7-1.04 1.008-.757.63-1.593 1.157-2.439 1.658l.147.029s14.773 16.073 24.834 13.14c.148-.043 2.393.081 2.616-.019 6.55-2.962 2.477-12.401 1.052-16.164Z" fill="#FFB098"/><path d="m111.18 88.712-3.721-.24-15.699-1.018c-.14.765-.28 1.482-.42 2.168h.002s7.518 12.269 16.81 10.897c.488-.072.95-.169 1.406-.274-.022-.019-.049-.032-.07-.052l1.692-11.482v.001Z" fill="#D5856E"/><path d="M128.025 114.04c1.7-1.059.76-6.325.398-6.62-2.288-1.888-4.738-2.939-7.349-3.753a78.682 78.682 0 0 0-3.796-1.049c-.427-.109-.853-.22-1.286-.333-1.329-.355-2.47-.665-3.023-.782l-.38-.1c1.379 3.643 3.859 12.227-1.926 15.459-.394.22-1.909.778-2.219.849-10.044 2.309-24.358-13.265-24.358-13.265l-.146-.028c-2.55 1.51-5.627 2.465-8.171 3.636-6.314 2.912-11.42 6.655-13.615 12.612-2.812 7.663-15.264 40.806-15.861 46.406 0 0 28-10.865 28.915-12.592 0 0 1.404 8.865 1.019 17.361l-7.434 24.008h57.324s.896-15.735.983-22.721c.058-1.295.093-2.35.088-2.962-.053-6.622 3.177-15.552 3.414-19.616 0 0 4.779-5.052 5.201-11.452.262-3.982-3.341-17.389-7.779-25.058h.001Z" fill="#FFF3E9"/><path d="M130.359 151.23a.7.7 0 0 1-.578-.303.702.702 0 0 1 .177-.98c2.745-1.906 4.564-6.872 5.147-10.948.434-3.05-5.234-17.07-7.188-20.809a.701.701 0 0 1 .298-.95.708.708 0 0 1 .95.299c1.695 3.241 7.868 17.914 7.336 21.658-.581 4.06-2.432 9.613-5.739 11.906a.698.698 0 0 1-.402.126l-.001.001ZM98.448 156.65a13.35 13.35 0 0 1-6.33-1.565.708.708 0 0 1-.294-.954.71.71 0 0 1 .954-.294c6.22 3.287 12.326.03 15.26-1.535l1.581-.846c2.07-1.122 3.567-1.934 6.289-2.269 1.677-.206 3.628.152 5.707.535 1.534.279 3.12.57 4.514.596a.704.704 0 0 1-.012 1.408h-.012c-1.511-.025-3.156-.328-4.746-.619-1.968-.361-3.837-.7-5.277-.521-2.459.303-3.785 1.021-5.792 2.108l-1.589.851c-1.994 1.062-5.825 3.104-10.253 3.104v.001Z" fill="#F3DDCD"/><path d="M119.069 71.377a79.57 79.57 0 0 1-.113-4.307c.01-4.78-2.867-9.084-7.308-10.854l-15.41.01-8.432 11.104s-.065 12.022.862 16.807c1.454 7.514 10.71 11.624 10.71 11.624s6.424 3.307 11.007 1.168c4.583-2.14 7.495-7.614 8.982-13.03.955-3.476.017-6.47-.296-12.523l-.002.001Z" fill="#FFB098"/><path d="M100.149 68.664s-.446-.035-.9.101c-.157.047-2.908.465-5.163 1.51.474.207.763.442-.271.291a4.402 4.402 0 0 0-1.944 1.898c-.36.762-.51 1.55-.44 2.216.016.162.04.255.072.234 3.818-2.492 5.82-2.774 8.811-3.132.715-.086 1.149-.793.872-1.427-.249-.57-.616-1.102-1.037-1.692v.001ZM118.12 67.934l-.082-.019c-.992.367-.778.08-.369-.221-2.615-.517-5.524-.326-5.699-.338-.502-.033-.939.096-.939.096-.232.656-.427 1.246-.491 1.847-.071.668.598 1.254 1.347 1.183 2.738-.263 4.696-.418 8.266.598.08-.495.169-1 .265-1.51a21.853 21.853 0 0 0-.618 0c.203-.06.437-.137.657-.202l.032-.163a5.346 5.346 0 0 0-2.368-1.272l-.001.001Z" fill="#5A4747"/><path d="M100.447 85.856c.276-1.951-1.107-3.761-3.09-4.042-1.982-.281-3.814 1.072-4.09 3.024-.277 1.95 1.106 3.76 3.089 4.041 1.983.281 3.814-1.073 4.091-3.023ZM117.434 86.99c-2.001-.072-3.571-1.727-3.506-3.697.064-1.97 1.738-3.508 3.739-3.436.797.03 1.52.316 2.104.768-.002 1.117-.102 2.176-.404 3.276-.284 1.038-.693 2.047-1.156 3.032-.251.044-.51.067-.775.057h-.002Z" fill="#8D2E2A" opacity=".29"/><path d="M106.026 82.815a.705.705 0 0 1-.09-1.404c1.218-.156 2.2-.633 2.388-1.16.103-.294.014-.69-.111-1.179-.364-1.399-.725-2.5-1.073-3.564-.357-1.085-.725-2.207-1.098-3.651a.702.702 0 0 1 .504-.859.696.696 0 0 1 .858.505c.365 1.399.725 2.5 1.073 3.564.358 1.085.726 2.207 1.099 3.651.14.541.33 1.28.076 2.003-.566 1.591-2.852 2-3.537 2.09-.03.001-.06.004-.09.004h.001Z" fill="#DE8B79"/><path d="M99.38 78.546c.863-.018 1.53-.667 1.487-1.45l-.089-1.63c-.043-.782-.778-1.403-1.642-1.384-.862.018-1.529.667-1.486 1.45l.09 1.63c.042.783.777 1.403 1.64 1.384Z" fill="#0A0A0A"/><path d="M95.757 76.119c.16.058.345.042.486-.057 1.388-.962 2.63-1.253 3.137-1.07.254.109.547.007.654-.216.107-.224-.012-.49-.266-.593-.022-.01-.045-.018-.068-.026-1.15-.415-2.91.375-4.086 1.192a.412.412 0 0 0-.072.626.535.535 0 0 0 .216.145l-.001-.001Z" fill="#000"/><path d="M115.665 76.495c.792.02 1.43-.547 1.423-1.268l-.014-1.498c-.007-.72-.655-1.32-1.448-1.34-.792-.019-1.429.548-1.423 1.269l.014 1.498c.007.72.655 1.32 1.448 1.339Z" fill="#0A0A0A"/><path d="M112.443 74.117c.144.06.315.052.448-.032 1.313-.825 2.465-1.039 2.922-.85.229.11.502.03.609-.17.108-.2.01-.45-.219-.556-.019-.01-.04-.019-.061-.027-1.037-.429-2.685.222-3.799.922a.378.378 0 0 0-.092.571.478.478 0 0 0 .192.142Z" fill="#000"/><path d="M43.227 174.064c2.58-10.92 18.928-53.398 18.928-53.398l15.927 29.276-1.044 3.98-13.87 32.157s-4.775 3.559-8.047 3.302c-10.774-.847-14.108-5.954-11.895-15.318v.001Z" fill="#FFF3E9"/><path d="M128.911 158.015a.7.7 0 0 1-.688-.85l1.45-6.785a.69.69 0 0 1 .835-.541.7.7 0 0 1 .54.834l-1.449 6.786a.7.7 0 0 1-.688.557v-.001Z" fill="#F3DDCD"/><path d="M88.141 72.73c-.766-1.789-2.586-2.987-4.31-2.839-1.724.15-3.22 1.636-3.543 3.519-.387 2.26.81 4.62 2.346 6.294 1.052 1.146 2.326 2.11 3.743 2.422 1.417.31 2.982-.136 3.809-1.382L88.14 72.73Z" fill="#FFB098"/><path d="M86.75 76.642a.707.707 0 0 1-.662-.463c-.524-1.438-2.017-2.52-3.549-2.573a.704.704 0 0 1 .025-1.408h.026c2.114.072 4.098 1.513 4.823 3.5a.705.705 0 0 1-.662.945h-.001Z" fill="#DE8B79"/><path d="M85.192 79.025a.695.695 0 0 1-.495-.204c-1.886-1.866-1.326-3.814-.876-5.378a.693.693 0 0 1 .871-.482c.374.108.59.498.482.871-.484 1.684-.69 2.794.514 3.99.278.272.28.72.004.995a.696.696 0 0 1-.5.208Z" fill="#DE8B79"/><path d="m60.33 174.612-17.752 3.867v17.37h22.727l1.212-17.535-6.188-3.702Z" fill="#FFF3E9"/><path d="M113.807 52.861c-4.853-2.358-10.635-2.691-15.723-.906-5.086 1.786-9.416 5.668-11.772 10.557l-1.113 6.934c2.02 1.734 4.002 3.804 7.096 2.606 2.474-.957 5.728-2.359 7.894-3.902a125.563 125.563 0 0 0 7.861-6.082c1.732-1.454 3.493-2.992 5.645-3.66 2.154-.669 4.836-.206 6.063 1.701-.395-3.22-3.057-5.84-5.953-7.249l.002.001Z" fill="#594646"/><path d="M106.815 88.047c-1.56 0-3.12-.463-4.375-1.374a.706.706 0 0 1 .827-1.142c1.855 1.348 4.537 1.485 6.518.34a.706.706 0 0 1 .706 1.22c-1.108.64-2.392.957-3.676.957v-.001ZM105.991 90.716c-.025 0-.052 0-.08-.004l-1.209-.138a.703.703 0 0 1-.619-.78c.044-.382.357-.695.779-.619l1.209.138a.704.704 0 0 1-.08 1.403Z" fill="#DE8B79"/><path d="M66.596 178.558a.706.706 0 0 1-.629-.388 4.512 4.512 0 0 0-2.385-2.159.705.705 0 0 1 .504-1.316 5.92 5.92 0 0 1 3.138 2.842.7.7 0 0 1-.312.945.687.687 0 0 1-.316.076ZM75.674 156.538a.704.704 0 0 1-.629-1.023 60.978 60.978 0 0 0 3.59-8.73.709.709 0 0 1 .885-.453.701.701 0 0 1 .454.885 62.324 62.324 0 0 1-3.672 8.936.703.703 0 0 1-.629.386l.001-.001ZM149.299 154.295a.704.704 0 0 1-.662-.943 9.61 9.61 0 0 0 .557-3.628.705.705 0 0 1 .675-.734h.03c.376 0 .688.296.704.675a11.002 11.002 0 0 1-.64 4.165.701.701 0 0 1-.662.466l-.002-.001ZM176.81 153.441a.702.702 0 0 1-.609-.349 70.638 70.638 0 0 0-9.058-12.28.705.705 0 0 1 1.037-.955 72.066 72.066 0 0 1 9.237 12.524.705.705 0 0 1-.608 1.06h.001Z" fill="#F3DDCD"/><path d="M29.688 195.849v18.208c0 .947.564 1.761 1.369 2.106.268.116.563.181.872.181h232.123c.037 0 .068-.02.103-.022h.019c1.169.002 2.119-.965 2.119-2.158v-18.316H29.687v.001Z" fill="#6683C2"/><path d="M43.368 203.984c-1.062 0-1.923.945-1.923 2.113 0 1.167.861 2.113 1.923 2.113h78.312v-4.226H43.368Z" fill="#4B6BAF"/><path d="M252.613 203.984H121.68v4.226h130.933c1.062 0 1.923-.946 1.923-2.113 0-1.168-.861-2.113-1.923-2.113Z" fill="#8299C9"/><path d="M121.681 209.766a3.67 3.67 0 1 0 0-7.339 3.67 3.67 0 0 0 0 7.339Z" fill="#F37E60"/><path d="M48.763 87.576a3.695 3.695 0 1 0-7.387-.245 3.695 3.695 0 0 0 7.387.245Z" fill="#5961DE"/><path d="M253.619 70.697h-28.907a.703.703 0 0 1-.704-.704c0-.39.314-.705.704-.705h28.907c.39 0 .704.315.704.705 0 .39-.314.704-.704.704ZM253.619 78.085h-28.907a.703.703 0 0 1-.704-.705c0-.39.314-.704.704-.704h28.907c.39 0 .704.314.704.704 0 .39-.314.705-.704.705ZM253.617 85.475h-11.366a.703.703 0 0 1-.704-.704c0-.39.314-.705.704-.705h11.366a.704.704 0 1 1 0 1.41Z" fill="#FFF3E9"/><path d="M311 121.584c0-1.085-.506-2.13-1.244-2.923-.74-.794-1.698-1.356-2.696-1.777-2.577-1.087-5.444-1.287-8.238-1.177-2.794.111-5.572.516-8.367.582-1.434.033-2.932-.039-4.185-.735-.206.767-.209 1.718.128 2.438-2.067.401-4.379.93-6.244 1.907-1.865.977-3.494 2.62-3.941 4.676-.207.953-.155 1.942-.296 2.907-.141.964-.533 1.969-1.362 2.48.68.832 1.266 1.938 1.946 2.77.614.753 1.236 1.512 2.01 2.097.775.585 1.729.989 2.698.92.968-.068 1.928-.683 2.219-1.608l27.574-12.555-.002-.002Z" fill="#5C5C5C"/><path d="m256.199 206.409-5.848 8.742-27.86 13.25c-1.971 7.896.252 14.845.252 14.845 8.109-.986 32.467-3.366 39.943-9.296 3.289-2.609 6.426-6.418 8.91-9.866l.251-3.122c-6.694-3.578-13.008-11.335-15.649-14.552l.001-.001Z" fill="#FFBEAC"/><path d="M317.581 130.947c.035-2.178-.247-4.394-1.292-6.226-1.044-1.83-2.955-3.222-5.136-3.225-.294-1.225-1.076-2.429-2.111-3.115-1.035-.684-2.251-1.077-3.48-1.37-4.778-1.142-9.99-.86-14.832.8-3.787 1.298-1.751 1.675-5.665 1.897-2.99.171-5.427 1.062-7.079 3.948-.731 1.279-.222 7.989.9 9.84 1.625 2.68 2.186 4.696 5.23 5.606l21.536 17.337c-.244-1.135 1.22-2.861 1.969-3.835.75-.97 2.043-2.236 2.799-3.205 6.197-7.951 7.047-11.559 7.16-18.453l.001.001Z" fill="#5C5C5C"/><path d="m304.092 154.224-.536-5.232-14.2 6.006v2.268l-.209 3.473c-.015.002-.027.005-.042.006l-1.066 1.618-.117 2.834c13.08-1.245 16.17-10.973 16.17-10.973Z" fill="#CC9182"/><path d="M322.301 170.235c-.756-.42-.865-1.299-.865-1.299s-1.658-1.419-3.94-2.156c-3.766-1.215-9.029-3.231-10.487-5.381-2.342-3.454-.984-13.452-.984-13.452l-2.47 1.045.535 5.232s-5.656 10.092-16.17 10.973l-3.744 28.006 38.125-22.969v.001Z" fill="#FFBEAC"/><path d="M304.996 132.56c-.628-1.787-1.441-3.524-2.665-4.94-1.224-1.416-7.647-.951-9.552-1.219l-12.723 5.062c-.235 2.64.03 5.287.779 7.756.318 1.05.726 2.087.764 3.203.041 1.208-.354 2.415-.605 3.619-1.044 5.014-1.415 7.48 2.564 13.191 1.482 2.129 4.039 3.874 6.693 3.265 3.992-.913 7.836-2.509 11.142-5.014 1.31-.993 2.793-3.07 3.324-4.599 2.323-6.69 2.517-13.948.279-20.323v-.001Z" fill="#FFBEAC"/><path d="M306.398 139.268c-.444.479-.901.967-1.468 1.284-.568.317-1.278.437-1.813.144-.629-.344-.842-1.126-.989-1.839a60.573 60.573 0 0 1-1.108-8.177c2.227-1.3 6.291-4.462 8.404-5.952 4.998 4.566 3.92 17.853.692 22.714l-3.719-8.174h.001Z" fill="#B45C41"/><path d="M278.583 128.67c.03.292.064.591.103.897.261 2.467 1.178 7.099 2.103 9.483-.157-.863-.085-2.606-.009-3.784.048-.761-.12-3.129.638-3.096.956.041 17.611-3.78 19.843 1.411l.033-.017a60.8 60.8 0 0 0 .838 5.294c.104.505.245 1.042.539 1.436.122.162.266.303.451.403.534.292 1.245.173 1.812-.144.568-.317 1.024-.806 1.468-1.285l3.797 8.802c1.107-1.667 1.882-4.95 2.325-7.905l.51.718s4.252-7.004 1.306-14.185c-.26-.635-.388-1.247-.644-1.754-.081-2.074-35.38 1.156-35.112 3.727l-.001-.001Z" fill="#5C5C5C"/><path d="M305.007 140.658s2.484-3.689 5.893-2.061c3.409 1.627-.654 11.761-6.224 8.817l.33-6.756h.001Z" fill="#FFBEAC"/><path d="M348.913 214.476c-.689-2.906-1.544-5.765-2.4-8.612-3.543-11.778-5.073-23.906-12.979-33.318a13.408 13.408 0 0 0-2.088-1.97l-19.196 13.383 14.593 35.766.192.816c-15.449 4.56-31.363 11.32-31.363 11.32l1.238 14.112s44.94 3.009 52.095-10.159c2.594-4.777 1.538-11.584.994-15.605a59.431 59.431 0 0 0-1.086-5.733Z" fill="#9DC0F4"/><path d="M349.998 220.209a59.01 59.01 0 0 0-1.085-5.733c-.689-2.908-1.544-5.766-2.4-8.612-3.544-11.776-5.073-23.906-12.979-33.316a13.465 13.465 0 0 0-2.088-1.972c-4.053-3.358-19.097-6.769-19.875-6.969 0 0-1.339 1.799-4.951 3.805-5.944 3.3-14.557 6.593-18.545.921-.121-1.775-.126-3.91-.126-3.91-4.632 1.734-9.318 3.94-13.45 6.759-4.22 2.881-7.102 6.695-9.454 10.867l-.014-.02-.404.757c-.205.377-.409.756-.606 1.137 0 0-12.619 19.955-12.918 21.124-.052.204.279.729.878 1.459 2.831 3.45 12.034 11.766 19.212 15.601l-.269 3.347c.037 1.566.044 3.294.013 5.17-.069 4.189-.348 9.195-1.031 15.356h27.118c1.057.067 10.416.619 20.99 0h13.408c.028-.42.011-.944-.024-1.506 8.111-1.478 15.129-4.094 17.608-8.659 2.595-4.777 1.539-11.584.995-15.604l-.003-.002Z" fill="#7FCBB4"/><path d="M349.849 217.758c-1.649-9.894-9.639-29.74-9.639-29.74l-18.303 10.4s6.353 24.601 5.603 25.269c-.749.667-13.942 5.042-31.694 8.546-3.618-1.465-8.991-3.646-9.923-3.496-1.362.217-12.983 3.221-14.488 4.3l-5.348 3.833c-.583.417-.838 1.16-.616 1.794.3.859 1.333 1.158 2.142.617l.411-.276-4.313 4.261c-.485.481-.677 1.152-.54 1.744l34.753.028v.004s38.116 2.082 47.757-4.581c9.642-6.663 5.847-12.81 4.198-22.705v.002Z" fill="#FFBEAC"/><path d="m338.654 180.603-19.943 7.021 5.11 32.184s24.858-4.928 25.076-11.385c.22-6.506-10.243-27.82-10.243-27.82Z" fill="#7FCBB4"/><path d="M329.187 225.561a.718.718 0 0 1-.314-.073 2.497 2.497 0 0 0-1.643-.203.71.71 0 0 1-.842-.534.706.706 0 0 1 .535-.842 3.895 3.895 0 0 1 2.578.316.704.704 0 0 1-.315 1.336h.001ZM296.85 234.336a.704.704 0 0 1-.534-.244l-1.042-1.204a.703.703 0 0 1 .071-.993.709.709 0 0 1 .993.071l1.046 1.205a.702.702 0 0 1-.534 1.165Z" fill="#F2A58F"/><path d="M321.29 189.673h-.027a.705.705 0 0 1-.677-.731c.203-5.361 2.494-10.614 6.288-14.41a.703.703 0 1 1 .995.996c-3.543 3.548-5.686 8.457-5.874 13.469a.704.704 0 0 1-.705.676ZM326.16 217.164a.705.705 0 0 1-.696-.588l-3.216-19.203a.705.705 0 0 1 .578-.812.692.692 0 0 1 .813.578l3.216 19.204a.705.705 0 0 1-.695.821ZM271.192 222.809h-.02a.703.703 0 0 1-.683-.725c.006-.207.608-20.798 1.351-28.084.044-.386.411-.655.773-.631.387.041.67.385.63.773-.741 7.237-1.34 27.777-1.346 27.983a.704.704 0 0 1-.705.683v.001Z" fill="#6CBEA8"/><path d="M298.59 154.358a3.11 3.11 0 0 0-1.871-5.931 3.11 3.11 0 0 0 1.871 5.931ZM282.145 150.27a3.104 3.104 0 0 0-1.277-3.598c-.423 2.084-.684 3.76-.491 5.455.802-.331 1.471-.97 1.768-1.857Z" fill="#F2A58F" opacity=".69"/><path d="M295.508 145.491c.692.132 1.334-.278 1.432-.916l.205-1.326c.099-.637-.383-1.26-1.077-1.392-.693-.132-1.334.278-1.432.916l-.205 1.326c-.099.637.383 1.26 1.077 1.392Z" fill="#282120"/><path d="M293.024 142.926a.44.44 0 0 0 .399.036c1.272-.54 2.313-.564 2.688-.331.185.131.436.099.56-.063.123-.162.073-.396-.112-.523a1.132 1.132 0 0 0-.051-.033c-.848-.527-2.389-.19-3.468.269a.34.34 0 0 0-.164.491.434.434 0 0 0 .148.153v.001ZM283.022 143.97c.594.059 1.104-.346 1.139-.905l.073-1.162c.035-.559-.418-1.059-1.013-1.118-.594-.058-1.104.347-1.138.905l-.073 1.163c-.035.558.418 1.058 1.012 1.117Z" fill="#282120"/><path d="M280.734 141.95a.36.36 0 0 0 .339 0c1.031-.567 1.908-.67 2.241-.498.164.098.375.05.467-.099.091-.149.031-.347-.134-.442-.014-.009-.03-.017-.045-.025-.755-.388-2.028.026-2.903.508a.299.299 0 0 0-.101.437.375.375 0 0 0 .137.12l-.001-.001Z" fill="#282120"/><path d="M292.882 137.359s.348-.07.718.011c.13.028 2.066.181 3.942.906-.354.225-.287.433.514.212l.059.024a3.711 3.711 0 0 1 1.653 1.48c-.204.035-.454.098-.654.138.212.024.511.068.796.115a3.79 3.79 0 0 1 .413 1.661c.002.144-.006.225-.035.213-3.868-1.66-4.853-1.942-7.244-1.998-.572-.014-.981-.6-.822-1.183.143-.524.382-1.025.659-1.58l.001.001ZM285.03 137.886c-.166-.496-.467-.964-.817-1.482 0 0-.475-.044-.991.061-.117.024-1.345.165-2.913.494.136.764.303 1.521.525 2.258.02.066.043.132.063.197a41.38 41.38 0 0 1 2.935-.326c.788-.054 1.384-.65 1.198-1.202Z" fill="#5E5E5F"/><path d="M288.132 149.84h-.014c-.512-.011-1.092-.025-1.658-.186-.7-.194-1.26-.608-1.532-1.128-.397-.748-.167-1.571-.019-2.115l1.916-6.858a.594.594 0 0 1 .725-.408.59.59 0 0 1 .408.725l-1.915 6.856c-.141.5-.241.943-.078 1.252.123.234.427.438.812.549.427.118.906.131 1.369.14a.588.588 0 0 1-.014 1.174v-.001ZM305.653 144.166a.585.585 0 0 1-.479-.925 6.948 6.948 0 0 1 5.618-2.911h.126a.587.587 0 0 1-.012 1.174h-.111c-1.803 0-3.624.939-4.663 2.411a.584.584 0 0 1-.479.25v.001Z" fill="#CC8E7E"/><path d="M307.412 146.105a.554.554 0 0 1-.209-.04.583.583 0 0 1-.339-.757c.454-1.185.706-2.431.752-3.702.014-.323.27-.543.608-.566a.587.587 0 0 1 .566.609 12.622 12.622 0 0 1-.83 4.077.587.587 0 0 1-.548.379ZM288.051 154.284h-.057a5.603 5.603 0 0 1-3.436-1.219.584.584 0 0 1-.094-.823.582.582 0 0 1 .824-.094 4.452 4.452 0 0 0 2.718.961c1.005.07 1.952-.314 2.731-.913a.586.586 0 1 1 .716.931 5.601 5.601 0 0 1-3.401 1.156l-.001.001Z" fill="#CC8E7E"/><path d="M291.933 153.076a.599.599 0 0 1-.229-.045 2.272 2.272 0 0 1-1.244-1.349.588.588 0 0 1 .372-.743.592.592 0 0 1 .743.372c.091.279.319.523.587.637a.586.586 0 0 1-.229 1.128Z" fill="#CC8E7E"/><path d="M302.209 129.332c-.571-.487-1.357-.61-2.1-.716-1.868-.265-3.712-.423-5.554-.825-2.02-.442-4.051-.885-6.117-.967-2.066-.082-4.187.214-6.014 1.179-1.828.966-3.112 2.835-3.541 4.859 1.373.837 2.859 1.566 4.457 1.752 1.598.185 3.486-.368 4.566-1.561-.035.88-.247 1.997-.831 2.657 1.281.269 2.602-.233 3.733-.893 1.13-.659 2.172-1.489 3.387-1.976 2.348-.942 5.22-.403 7.065 1.326l1.917-1.727c-.026-1.12-.115-2.381-.968-3.107v-.001Z" fill="#5C5C5C"/><path d="M175.943 201.917h-3.485c-1.126 0-1.879.864-1.68 1.929l11.832 39.682c.199 1.065 1.273 1.93 2.4 1.93h8.815l41.361-43.541h-59.244.001Z" fill="#B1D3FC"/><path d="M274.363 240.672h-18.595l-10.981-36.826c-.199-1.066-1.273-1.929-2.4-1.929h-7.202l-41.361 43.541h83.208v-2.195c0-1.43-1.195-2.591-2.669-2.591Z" fill="#9DC0F4"/><path d="M207.641 225.134c.695 2.437 3.347 4.413 5.923 4.413s4.101-1.977 3.406-4.413c-.695-2.438-3.347-4.413-5.923-4.413s-4.102 1.976-3.406 4.413Z" fill="#FFF3E9"/><path d="M252.49 243.033a.702.702 0 0 1-.674-.502l-11.118-37.283a.703.703 0 1 1 1.348-.403l11.118 37.283a.701.701 0 0 1-.675.905h.001Z" fill="#6F77F1"/><path d="M65.174 246.065H1.333a.61.61 0 1 1 0-1.22h63.842a.61.61 0 1 1 0 1.22h-.001ZM344.301 246.065H70.778a.61.61 0 1 1 0-1.22h273.523a.61.61 0 1 1 0 1.22Z" fill="#6683C2"/></svg>