<svg width="292" height="142" fill="none" xmlns="http://www.w3.org/2000/svg"><g clip-path="url(#a)"><path d="m185.863 98.14-18.005 13.345-52.652 39.026 43.867 8.118s15.384-19.218 22.161-27.536c8.011-9.832 17.291-20.788 19.647-21.779 4.352-1.828 11.109-2.649 13.83-5.432l-28.848-5.74v-.002Z" fill="#FFB098"/><path d="M113.88 149.054s55.298-41.649 59.514-42.692l16.487 15.451s-19.526 32.995-27.446 40.224c-7.92 7.227-48.826-6.704-48.826-6.704l.274-6.279h-.003Z" fill="#6787C3"/><path d="M228.402 88.095a5.73 5.73 0 0 1-3.728-1.951l-8.226-9.536a11.134 11.134 0 0 0-7.492-3.692l-8.097-.595a4.328 4.328 0 0 0-3.372 1.252l-3.19 3.187-2.232.069c-1.711-.04-3.141.53-3.686 1.979-.532 1.42-.052 3.233 1.236 3.943-1.26-.005-2.365.913-2.592 2.035-.593 2.915 1.764 4.032 1.764 4.032-1.264-.17-2.23.35-2.566 1.25-.207.553-.463 1.552.407 2.56-.425-.023-.803.144-1.183.418-.618.444-.751 1.956-.8 2.912 0 0-.457 2.705 1.812 3.726l12.616 5.318s6.049 2.529 15.821.28a5.831 5.831 0 0 1 2.035-.109l79.701 6.366-8.876-32.827-59.351 9.376-.001.007Z" fill="#FFBEAC"/><path d="m238.739 86.463 53.72-10.186s10.246 14.065 7.911 40.269c0 0-58.359-6.433-62.507-9.638l2.402-11.904-1.526-8.541Z" fill="#F37E60"/><path d="M230.875 84.175c-.571-.453-1.136-.632-1.618-.675-.3-.027-.597.01-.877.098a3.815 3.815 0 0 0-.021-.833 3.966 3.966 0 0 0-.911-2.01c-1.007-1.202-2.353-.916-3.339-.43.166-.61.393-2.074-.74-3.308-1.475-1.603-3.066-1.35-4.502-.8 0 0 1.724-2.22-.512-3.913l-7.042 4.469s-3.016 1.774-2.683 3.991c.333 2.214 2.229 3.158 2.732 3.202 0 0-2.557 2.32-.255 4.83 1.514 1.65 3.313.79 4.481-.123-.034.857.15 1.881.98 2.678 1.743 1.674 3.653.769 4.907.01.69-.418 2.778-2.334 4.393-3.91a2.558 2.558 0 0 0 3.837 1.537l.995-.635c.581-.633 1.091-1.215 1.176-1.856.103-.794-.222-1.705-.993-2.319l-.008-.003Z" fill="#FFB098"/><path d="M216.689 75.308c-2.038 1.298-4.877 1.793-7.143 1.97l-13.486-.402a320.102 320.102 0 0 0 6.897-4.945c2.386-1.764 4.163-2.356 4.968-2.552.286-.068.582-.06.866.015 4.308 1.136 7.012 1.094 8.095.973.469-.053.94.15 1.198.545.631.961 1.063 2.832-1.39 4.397h-.005Z" fill="#FFB098"/><path d="M208.912 106.357a.15.15 0 0 1-.044.01c-.237.026-5.865.611-9.878-1.174a216.424 216.424 0 0 0-7.53-3.173.204.204 0 0 1 .151-.378c.034.012 3.575 1.415 7.544 3.179 3.917 1.74 9.614 1.147 9.671 1.141a.2.2 0 0 1 .222.18.199.199 0 0 1-.135.213l-.001.002Z" fill="#DB9885"/><path d="m189.164 82.58 6.104 2.374M188.695 89.006l6.686 2.749M186.387 92.933l7.191 3.747" stroke="#DB9885" stroke-width="1.5" stroke-linecap="round" stroke-linejoin="round"/><path d="M238.739 86.463s1.578 9.499-1.074 20.85c0 0 4.747 1.266 5.895 1.344 0 0 4.455-13.447 1.317-23.469 0 0-2.73.34-6.138 1.275Z" fill="#D86344"/><path d="M174.846 101.964s14.944 8.02 19.826 19.352c0 0-1.973 3.974-3.924 6.145 0 0-13.519-14.56-23.128-19.448 0 0 2.987-4.335 7.226-6.049Z" fill="#81A3E3"/><path d="M195.854 76.853s11.971 1.095 16.212.057c4.242-1.04 6.581-3.68 6.581-3.68M218.092 77.62s-5.396 7.894-8.087 6.067c-2.69-1.83-1.405-4.82.354-6.22" stroke="#DB9885" stroke-width="1.5" stroke-linecap="round" stroke-linejoin="round"/><path d="M222.895 81.663s-4.475 5.542-8.093 7.716c-3.615 2.174-6.948-2.333-3.448-5.418" stroke="#DB9885" stroke-width="1.5" stroke-linecap="round" stroke-linejoin="round"/><path d="M227.013 84.934s-3.613 7.125-7.868 7.395c-4.254.27-3.527-3.485-3.527-3.485" stroke="#DB9885" stroke-width="1.5" stroke-linecap="round" stroke-linejoin="round"/><path d="M230.826 88.2s-4.055 3.272-5.06-1.174" stroke="#DB9885" stroke-width="1.5" stroke-linecap="round" stroke-linejoin="round"/></g><defs><clipPath id="a"><rect width="292" height="142" rx="10" fill="#fff"/></clipPath></defs></svg>