<svg width="519" height="416" viewBox="0 0 519 416" fill="none" xmlns="http://www.w3.org/2000/svg">
<path d="M363.941 262.777C360.443 261.064 357.842 266.616 362.075 268.241C366.309 269.866 368.708 270.924 370.041 270.924C371.374 270.924 372.594 267.465 371.455 266.325C370.316 265.186 366.357 263.957 363.941 262.777Z" fill="#FBAE96"/>
<path d="M197.961 217.5C203.891 217.5 205.45 225.122 212.851 227.579C222.029 230.626 233.954 225.809 237.032 217.953C241.031 207.745 233.461 202.427 235.182 185.462C236.321 174.22 228.67 175.214 222.118 164.27C215.565 153.319 217.319 152.131 208.431 142.068C199.544 132.006 184.694 130.583 173.537 132.353C162.379 134.124 156.821 136.168 148.087 142.173C139.353 148.179 143.304 154.612 137.689 158.855C132.074 163.09 129.569 168.012 127.872 176.434C124.608 192.599 135.58 200.414 130.652 205.999C125.723 211.584 115.721 236.614 141.599 235.103C150.745 234.57 158.937 237.576 163.421 230.634C170.022 220.418 173.319 227.215 182.359 222.737C191.408 218.252 197.952 217.516 197.952 217.516L197.961 217.5Z" fill="#37231B"/>
<path d="M131.637 223.028C153.427 205.288 155.496 223.028 207.769 219.561C214.216 219.133 243.56 225.041 249.224 228.524C277.938 246.168 300.382 361.711 300.382 361.711L134.11 359.877L131.637 223.028Z" fill="#FCC583"/>
<path d="M173.31 214.962C172.931 222.285 166.265 215.358 166.265 224.637C166.265 232.695 175.282 245.57 200.804 241.488C217.036 238.894 221.916 225.033 212.269 220.991C206.807 218.704 204.23 209.515 204.23 209.515L173.31 214.954V214.962Z" fill="#FBAE96"/>
<path d="M207.914 172.983C212.931 193.092 212.737 222.301 189.84 224.055C161.829 226.204 130.99 171.213 153.467 151.023C175.944 130.834 200.804 144.509 207.914 172.983Z" fill="#FBAE96"/>
<path d="M163.502 166.065C160.206 172.425 159.971 173.565 156.319 177.218C152.667 180.871 153.007 190.336 154.752 195.735C163.066 221.477 155.948 209.046 154.3 210.695C152.651 212.344 145.824 195.533 144.887 194.595C143.942 193.649 136.533 166.695 136.533 163.866C136.533 161.038 154.38 143.984 156.537 141.818C158.703 139.652 178.19 135.611 183.724 135.611C189.259 135.611 200.319 134.908 202.679 138.674C205.03 142.44 220.332 173.993 220.332 173.993C220.332 173.993 229.51 188.695 223.305 188.283C215.363 187.749 213.868 186.149 211.832 181.502C209.651 176.507 207.583 165.289 196.643 168.999C178.15 175.262 163.502 166.081 163.502 166.081V166.065Z" fill="#37231B"/>
<path d="M87.5642 372.889C80.4786 328.752 115.664 227.207 138.504 217.96C154.598 211.438 167 216.57 169.989 234.392C172.979 252.213 145.768 336.188 145.768 336.188C145.768 336.188 225.567 314.252 232.637 336.188C239.698 358.123 236.167 373.665 236.167 373.665L87.5723 372.889H87.5642Z" fill="#FCC583"/>
<path d="M161.337 338.427C154.025 338.427 147.529 338.265 142.617 338.136C140.25 338.079 138.198 338.022 136.525 337.998C135.798 337.99 135.192 337.659 134.813 337.077C132.987 334.256 136.962 324.63 144.758 306.421C152.732 287.783 162.654 264.587 162.654 252.003C162.654 251.454 163.098 251.009 163.648 251.009C164.197 251.009 164.641 251.454 164.641 252.003C164.641 264.999 154.631 288.397 146.584 307.205C143.377 314.697 140.355 321.769 138.456 327.039C135.742 334.579 136.323 335.816 136.485 336.002C136.485 336.002 136.509 336.002 136.55 336.002C138.23 336.026 140.29 336.075 142.666 336.139C153.573 336.414 170.046 336.834 186.997 335.582C187.546 335.541 188.023 335.953 188.063 336.503C188.104 337.053 187.692 337.529 187.142 337.57C178.247 338.225 169.311 338.419 161.337 338.419V338.427Z" fill="#C99565"/>
<path d="M173.568 192.995C173.391 194.142 174.594 197.61 177.164 196.818C178.86 196.292 178.578 191.96 176.582 191.168C174.958 190.53 173.746 191.847 173.568 192.995Z" fill="#372313"/>
<path d="M194.631 186.561C194.332 187.685 195.391 191.241 198.025 190.716C199.77 190.376 199.713 186.06 197.823 185.066C196.28 184.25 194.93 185.438 194.631 186.561Z" fill="#372313"/>
<path d="M184.807 212.271C186.204 213.887 189.557 215.787 194.712 214.041C199.867 212.295 199.277 207.098 199.277 207.098C194.623 210.04 190.187 211.455 184.807 212.263V212.271Z" fill="#E66C40"/>
<path d="M190.85 182.593C191.885 182.593 195.157 180.297 198.267 180.799C201.378 181.3 201.265 180.871 200.521 180.12C199.77 179.368 197.661 178.592 193.719 179.101C188.936 179.724 189.954 182.593 190.85 182.593Z" fill="#37231B"/>
<path d="M177.14 185.89C177.197 184.896 175.064 184.654 173.521 185.058C171.404 185.616 168.172 188.703 167.639 190.918C167.356 192.074 168.172 192.639 169.36 191.015C170.765 189.099 171.872 187.935 173.658 187.66C175.096 187.434 177.1 186.674 177.14 185.899V185.89Z" fill="#37231B"/>
<path d="M159.317 196.098C161.837 199.655 165.312 206.646 162.726 208.481C160.141 210.316 152.473 206.307 149.953 202.75C147.432 199.194 147.48 194.821 150.066 192.987C152.651 191.152 156.796 192.542 159.317 196.098Z" fill="#FBAE96"/>
<path d="M190.285 226.512C185.203 226.512 180.985 224.814 180.751 224.717C180.42 224.58 180.258 224.2 180.396 223.869C180.533 223.537 180.913 223.376 181.244 223.513C181.317 223.545 188.653 226.488 195.342 224.532C195.69 224.435 196.045 224.629 196.15 224.976C196.247 225.324 196.053 225.679 195.706 225.784C193.88 226.318 192.03 226.52 190.285 226.52V226.512Z" fill="#C99565"/>
<path d="M162.031 209.523C163.865 211.358 172.357 219.674 180.994 224.119C183.498 225.413 182.23 234.012 182.012 235.297C180.363 245.077 169.893 242.967 163.639 239.839C156.925 236.477 163.211 215.043 153.71 214.396C142.94 213.661 138.658 218.429 137.09 218.017C134.02 217.201 139.522 212.432 147.012 210.177C153.015 208.375 160.933 208.82 162.031 209.523Z" fill="#37231B"/>
<path d="M166.58 143.426C162.508 142.755 160.521 147.661 158.614 150.353C158.234 150.886 159.115 151.565 159.519 151.056C161.296 148.841 162.92 144.162 166.419 144.59C167.073 144.671 167.235 143.539 166.572 143.426H166.58Z" fill="#55341B"/>
<path d="M168.414 147.621C165.667 147.872 164.059 149.997 162.467 152.01C162.007 152.592 162.815 153.416 163.291 152.834C164.657 151.145 166.087 149.084 168.422 148.801C169.157 148.712 169.189 147.548 168.422 147.621H168.414Z" fill="#55341B"/>
<path d="M148.732 172.393C146.389 175.206 144.798 178.794 144.143 182.399C144.006 183.135 145.129 183.458 145.283 182.714C145.961 179.336 147.399 175.925 149.556 173.217C150.017 172.643 149.217 171.819 148.732 172.393Z" fill="#55341B"/>
<path d="M175.871 229.534C175.928 228.766 174.756 228.783 174.683 229.534C174.538 231.167 174.853 232.808 174.772 234.448C174.732 235.184 174.643 236.041 174.183 236.647C173.593 237.423 172.623 237.423 171.735 237.358C170.959 237.302 170.999 238.449 171.735 238.546C177.18 239.225 175.645 232.808 175.871 229.534Z" fill="#55341B"/>
<path d="M230.414 192.316C229.744 190.926 228.871 189.649 228.055 188.347C227.522 187.491 226.561 186.286 226.609 185.219C226.641 184.476 225.494 184.476 225.454 185.219C225.397 186.116 225.898 187.014 226.326 187.765C226.997 188.953 227.772 190.085 228.467 191.257C229.097 192.308 229.808 193.463 230.01 194.7C230.221 195.985 229.469 196.527 228.314 196.842C227.571 197.044 227.886 198.143 228.629 197.99C229.808 197.739 230.923 197.076 231.198 195.824C231.457 194.635 230.932 193.375 230.423 192.324L230.414 192.316Z" fill="#55341B"/>
<path d="M230.471 206.565C229.801 205.813 228.953 205.449 228.064 205.029C226.989 204.512 226.44 204.003 226.593 202.726C226.666 202.087 225.543 201.925 225.454 202.572C225.188 204.471 226.125 205.425 227.757 206.185C228.565 206.557 229.89 207.122 230.092 208.125C230.245 208.917 228.936 209.555 228.476 210.064C227.967 210.63 228.759 211.439 229.316 210.905C229.93 210.315 230.819 209.822 231.174 209.014C231.57 208.117 231.077 207.244 230.48 206.573L230.471 206.565Z" fill="#55341B"/>
<path d="M199.624 152.22C198.597 151.121 197.289 150.725 195.826 150.587C194.178 150.426 192.57 150.515 191.431 149.108C190.938 148.502 190.098 149.359 190.575 149.965C192.7 152.64 196.489 150.789 198.775 153.061C199.317 153.602 200.133 152.778 199.615 152.22H199.624Z" fill="#55341B"/>
<path d="M243.826 226.593C252.883 227.821 281.622 261.459 317.995 269.267C354.368 277.074 367.658 268.838 367.658 268.838L383.187 294.007C347.597 320.088 292.003 306.389 256.761 288.826L243.826 226.593Z" fill="#FCC583"/>
<path d="M388.05 369.301C388.05 369.301 410.026 299.931 363.966 265.937C354.27 258.784 345.836 255.414 325.451 255.487C303.742 255.567 284.207 275.91 276.531 289.691C262.312 315.222 250.532 369.301 250.532 369.301H388.05Z" fill="#DB7E5D"/>
<path d="M362.084 369.244C361.542 369.244 361.114 368.808 361.114 368.274V328.752C361.106 328.566 359.886 305.023 356.59 295.857C356.404 295.348 356.67 294.791 357.179 294.613C357.688 294.427 358.246 294.694 358.424 295.203C361.825 304.643 363.013 327.734 363.069 328.712V368.282C363.069 368.824 362.633 369.252 362.1 369.252L362.084 369.244Z" fill="#9E614B"/>
<path d="M290.436 362.948C289.951 362.948 289.531 362.584 289.474 362.083C289.24 360.055 283.722 312.167 286.873 295.34C286.97 294.815 287.479 294.467 288.012 294.564C288.537 294.661 288.885 295.17 288.788 295.704C285.685 312.24 291.357 361.372 291.413 361.865C291.478 362.398 291.09 362.883 290.557 362.948C290.517 362.948 290.476 362.948 290.444 362.948H290.436Z" fill="#9E614B"/>
<path d="M312.702 263.536C307.822 269.08 304.712 286.045 313.615 286.498C334.549 287.573 341.845 259.131 336.237 257.321C323.424 253.175 312.702 263.536 312.702 263.536Z" fill="#F1F2F2"/>
<path d="M311.805 249.352C311.805 251.518 310.537 265.339 314.092 267.311C324.498 273.082 336.245 261.007 336.245 257.33V245.464L311.813 249.36L311.805 249.352Z" fill="#FBAE96"/>
<path d="M295.098 195.064C294.08 184.492 287.899 175.666 282.558 180.095C277.218 184.525 271.11 189.188 272.411 195.064C273.138 198.354 290.258 203.729 290.258 203.729L295.098 195.064Z" fill="#37231B"/>
<path d="M284.562 205.377C284.279 205.377 283.997 205.256 283.803 205.013C283.463 204.593 283.536 203.979 283.948 203.647C287.349 200.907 289.006 197.982 289.006 194.708C289.006 194.167 289.442 193.738 289.975 193.738C290.508 193.738 290.945 194.175 290.945 194.708C290.945 198.555 288.998 202.071 285.16 205.167C284.982 205.312 284.764 205.385 284.554 205.385L284.562 205.377Z" fill="#DE501D"/>
<path d="M287.616 220.183C284.231 220.943 281.726 221.816 280.337 220.434C278.947 219.044 280.337 215.463 280.337 215.463L284.804 214.744L287.616 220.183Z" fill="#82512B"/>
<path d="M350.159 223.78C346.943 245.966 332.699 263.536 312.711 263.536C297.942 263.536 288.19 256.141 286.59 241.019C286.219 237.503 286.93 232.622 286.663 230.561C286.219 227.094 283.666 223.246 283.666 219.609C283.666 197.424 302.733 186.779 322.721 186.779C342.71 186.779 353.342 201.828 350.159 223.78Z" fill="#FBAE96"/>
<path d="M307.257 225.776C307.176 225.057 308.881 223.61 311.216 224.16C313.543 224.709 315.272 226.358 314.512 226.811C313.753 227.263 312.048 225.857 310.561 226.027C309.075 226.188 307.322 226.285 307.265 225.776H307.257Z" fill="#37231B"/>
<path d="M295.687 226.196C295.768 225.477 294.063 224.03 291.728 224.58C289.402 225.129 287.673 226.778 288.432 227.231C289.192 227.684 290.896 226.277 292.383 226.447C293.869 226.617 295.623 226.706 295.679 226.196H295.687Z" fill="#37231B"/>
<path d="M304.251 212.158C321.266 210.493 322.227 217.355 327.091 223.78C331.963 230.205 343.888 228.969 349.366 228.104C351.232 227.813 354.052 215.674 353.276 208.424C352.703 203.049 353.018 193.173 341.949 187.418C330.88 181.663 327.035 180.37 316.281 182.367C305.536 184.363 293.861 213.176 304.243 212.158H304.251Z" fill="#37231B"/>
<path d="M333.2 195.735C334.218 185.163 344.567 176.167 349.916 180.596C355.264 185.026 360.265 197.61 357.494 199.534C354.723 201.457 338.039 204.399 338.039 204.399L333.2 195.735Z" fill="#37231B"/>
<path d="M339.704 204.682C334.993 204.682 333.054 201.796 332.408 200.438C331.277 198.07 331.398 195.177 332.683 193.989C333.079 193.625 333.693 193.649 334.056 194.045C334.42 194.441 334.395 195.056 334 195.419C333.547 195.84 333.264 197.739 334.153 199.598C334.832 201.02 336.666 203.3 341.327 202.613C341.853 202.532 342.354 202.904 342.434 203.437C342.515 203.971 342.144 204.464 341.61 204.544C340.924 204.641 340.285 204.69 339.695 204.69L339.704 204.682Z" fill="#D9886B"/>
<path d="M279.052 219.351C284.732 226.73 286.954 206.654 302.741 210.493C308.905 211.988 304.066 201.416 309.94 197.319C315.805 193.221 325.161 184.056 314.981 182.73C304.801 181.405 291.018 187.289 287.188 193.577C285.483 196.373 281.961 200.107 281.452 205.15C280.773 211.956 277.42 217.225 279.06 219.351H279.052Z" fill="#37231B"/>
<path d="M298.055 249.845C298.055 249.845 299.824 253.919 304.543 254.169C309.261 254.42 310.109 249.885 310.109 249.885C305.957 251.3 302.361 251.591 298.055 249.845Z" fill="#F1F2F2"/>
<path d="M310.691 231.417C309.867 231.725 309.035 233.05 309.431 235.006C309.826 236.954 311.289 237.811 312.202 237.221C313.115 236.631 313.769 233.899 313.195 232.759C312.622 231.62 311.216 231.223 310.683 231.426L310.691 231.417Z" fill="#372313"/>
<path d="M292.221 231.45C291.413 231.789 290.63 233.147 291.106 235.087C291.583 237.019 293.07 237.811 293.966 237.189C294.863 236.558 295.396 233.81 294.782 232.695C294.168 231.579 292.738 231.24 292.221 231.458V231.45Z" fill="#372313"/>
<path d="M322.576 204.253C320.564 201.925 316.799 201.303 314.003 202.386C313.325 202.653 313.608 203.744 314.31 203.493C316.872 202.58 319.796 203.186 321.735 205.094C322.285 205.635 323.076 204.827 322.576 204.253Z" fill="#643D20"/>
<path d="M326.421 193.512C322.987 192.688 319.82 193.092 316.669 194.652C315.991 194.991 316.588 196.001 317.267 195.67C320.176 194.256 322.963 194.037 326.114 194.644C326.849 194.789 327.172 193.69 326.429 193.512H326.421Z" fill="#643D20"/>
<path d="M340.164 215.577C338.144 216.239 335.623 214.105 335.704 212.036C335.736 211.293 334.605 211.301 334.557 212.036C334.379 214.784 337.772 217.775 340.479 216.716C341.166 216.441 340.899 215.334 340.164 215.577Z" fill="#643D20"/>
<path d="M292.965 199.565C291.001 199.38 289.03 200.034 287.883 201.715C287.454 202.338 287.244 203.049 287.018 203.76C286.687 204.803 286.331 205.28 285.184 205.385C284.441 205.458 284.417 206.549 285.184 206.565C286.881 206.589 287.713 205.595 288.198 204.084C288.481 203.195 288.747 202.394 289.466 201.74C290.42 200.867 291.72 200.632 292.973 200.705C293.716 200.746 293.692 199.63 292.973 199.565H292.965Z" fill="#643D20"/>
<path d="M302.417 189.406C301.116 189.075 300.244 188.121 298.805 188.299C297.464 188.468 296.398 189.406 295.574 190.416C295.105 190.99 295.881 191.823 296.406 191.249C297.198 190.4 298.175 189.382 299.452 189.503C300.397 189.592 301.173 190.344 302.11 190.53C302.837 190.675 303.152 189.592 302.417 189.406Z" fill="#643D20"/>
<path d="M312.702 264.183C312.347 264.183 312.056 263.892 312.056 263.537C312.056 263.181 312.347 262.89 312.702 262.89C318.358 262.89 323.068 261.799 326.688 259.649C326.995 259.463 327.391 259.568 327.576 259.875C327.762 260.182 327.657 260.578 327.35 260.764C323.529 263.035 318.6 264.183 312.702 264.183Z" fill="#C48976"/>
<path d="M316.37 369.519C316.37 359.133 330.873 338.927 357.494 338.927C384.116 338.927 397.753 340.786 397.753 340.786V369.131L316.37 369.519Z" fill="#DB7E5D"/>
<path d="M315.918 346.25C315.53 346.25 315.159 346.016 315.013 345.628C314.819 345.127 315.07 344.561 315.571 344.367C323.852 341.199 355.063 337.885 362.092 337.974C362.633 337.974 363.061 338.418 363.053 338.96C363.053 339.493 362.609 339.922 362.084 339.922C362.084 339.922 362.075 339.922 362.067 339.922C355.337 339.825 324.183 343.155 316.274 346.186C316.161 346.226 316.039 346.25 315.926 346.25H315.918Z" fill="#9E614B"/>
<path d="M186.592 352.344H308.727C315.91 352.344 321.743 358.18 321.743 365.365V367.386H186.584V352.336L186.592 352.344Z" fill="#7781A6"/>
<path d="M292.205 367.394H157.717L148.878 267.408C148.369 264.523 149.629 261.864 152.522 261.864H278.503C280.749 261.864 282.68 263.496 283.075 265.743L292.205 367.394Z" fill="#7781A6"/>
<path d="M225.316 299.471C225.671 305.015 221.793 309.776 216.655 310.107C211.516 310.439 207.057 306.22 206.693 300.675C206.329 295.13 210.216 290.37 215.354 290.038C220.492 289.707 224.952 293.926 225.316 299.471Z" fill="#DBDBDB"/>
<path d="M519 365.817H0V387.082H519V365.817Z" fill="#DCBFA3"/>
<path d="M462.049 169.379C462.049 159.947 461.031 118.905 474.532 99.5317C474.532 99.5317 477.586 115.842 477.586 128.466C477.586 141.091 468.157 190.279 468.157 190.279L462.041 169.379H462.049Z" fill="#A7CBBD"/>
<path d="M413.444 96.7271C413.444 96.7271 439.177 196.397 439.177 216.28C439.177 236.162 427.324 228.516 427.324 228.516C427.324 228.516 418.534 159.308 415.472 151.403C412.418 143.499 414.325 136.872 414.325 131.392C414.325 125.912 411.521 118.905 411.521 113.676C411.521 108.446 413.436 96.7271 413.436 96.7271H413.444Z" fill="#A7CBBD"/>
<path d="M449.308 315.74C451.603 305.936 465.742 293.15 465.742 280.356C465.742 267.561 464.215 218.543 468.416 208.739C472.617 198.935 476.059 182.738 476.059 173.355C476.059 163.971 487.524 154.176 487.524 147.354V135.845C487.524 135.845 492.872 143.095 492.872 154.604C492.872 166.113 488.671 181.033 485.229 184.872C481.787 188.711 479.493 193.399 479.493 201.497C479.493 209.596 477.578 249.667 477.578 260.328C477.578 270.988 476.81 273.114 474.136 283.346C471.462 293.578 451.199 317.873 451.199 317.873L449.284 315.74H449.308Z" fill="#A4CABB"/>
<path d="M427.518 315.74C422.17 303.802 413.759 278.23 413.759 265.864C413.759 253.498 415.674 241.569 413.759 234.748C411.844 227.926 401.099 182.375 405.284 165.62C407.893 155.178 408.79 162.533 408.79 162.533C408.79 162.533 425.611 189.139 427.518 199.792C429.425 210.444 426.928 230.488 429.433 236.421C431.929 242.353 436.316 256.489 436.316 265.872V314.471L427.526 315.748L427.518 315.74Z" fill="#C2E8D8"/>
<path d="M449.308 158.007L431.727 123.479C431.727 123.479 425.611 143.087 425.611 149.48C425.611 155.873 423.317 160.989 423.317 167.382C423.317 173.775 428.665 186.99 428.665 198.078C428.665 209.167 426.75 220.668 426.75 230.052C426.75 239.435 436.308 315.74 436.308 315.74H443.192L449.308 158.015V158.007Z" fill="#92BCAB"/>
<path d="M443.192 315.74C443.192 307.213 440.517 300.391 440.517 287.605C440.517 274.819 440.517 266.721 438.223 250.944C435.928 235.168 443.192 212.149 443.192 201.917C443.192 191.685 439.37 161.417 443.192 149.908C447.013 138.399 451.214 114.952 451.214 114.952C451.214 114.952 471.09 159.284 471.09 166.962V218.114C471.09 227.918 466.888 243.694 464.973 254.347C463.059 265.007 463.059 273.106 463.059 284.187C463.059 295.267 454.43 315.732 454.43 315.732H443.184L443.192 315.74Z" fill="#C2E8D8"/>
<path d="M473.336 366.044H418.041L410.753 304.247C410.382 301.119 412.83 298.371 415.981 298.371H475.097C478.24 298.371 480.68 301.103 480.325 304.222L473.344 366.044H473.336Z" fill="#E3AC69"/>
<path d="M477.311 347.689H413.678L411.529 317.865H479.331L477.311 347.689Z" fill="#FCC583"/>
<path d="M65.3618 342.379C31.3721 342.379 3.71655 314.713 3.71655 280.711C3.71655 261.597 12.3614 243.872 27.4455 232.088C28.2131 231.49 29.3119 231.612 29.9259 232.355L106.413 324.388C107.035 325.131 106.946 326.239 106.219 326.877C94.9483 336.867 80.4379 342.371 65.3538 342.371L65.3618 342.379ZM28.302 236.016C14.9387 247.097 7.31185 263.294 7.31185 280.719C7.31185 312.741 33.3515 338.79 65.3618 338.79C78.9836 338.79 92.1125 334.022 102.527 325.333L28.302 236.016Z" fill="#9CA8D3"/>
<path d="M65.3613 330.053C92.6024 330.053 114.686 307.962 114.686 280.711C114.686 253.46 92.6024 231.369 65.3613 231.369C38.1202 231.369 16.037 253.46 16.037 280.711C16.037 307.962 38.1202 330.053 65.3613 330.053Z" fill="#A3D8F5"/>
<mask id="mask0_48_5511" style="mask-type:luminance" maskUnits="userSpaceOnUse" x="16" y="231" width="99" height="100">
<path d="M65.3613 330.053C92.6024 330.053 114.686 307.962 114.686 280.711C114.686 253.46 92.6024 231.369 65.3613 231.369C38.1202 231.369 16.037 253.46 16.037 280.711C16.037 307.962 38.1202 330.053 65.3613 330.053Z" fill="white"/>
</mask>
<g mask="url(#mask0_48_5511)">
<path d="M41.2123 269.202C33.5773 274.359 23.9548 293.037 33.5773 291.622C43.1917 290.208 47.7242 283.702 52.2486 290.491C56.7731 297.28 57.2578 302.097 65.3614 302.097C73.465 302.097 83.9842 308.158 85.6324 306.518C87.2725 304.877 81.3908 295.025 78.2802 285.682C75.1697 276.347 65.83 267.004 59.6089 264.458C53.3878 261.912 41.2203 269.202 41.2203 269.202H41.2123Z" fill="#DEB788"/>
<path d="M70.1687 272.589C66.6542 268.733 62.7357 265.735 59.6009 264.458C53.3799 261.912 41.2124 269.202 41.2124 269.202C37.6979 271.579 33.7633 276.816 31.4768 281.641C36.0901 282.627 36.4052 278.465 44.6865 277.657C54.3009 276.711 53.7354 276.703 58.6395 279.726C63.5437 282.749 61.7097 278.036 65.3615 276.145C67.6964 274.941 69.3042 273.656 70.1687 272.589Z" fill="#7DD2B1"/>
<path d="M34.7088 269.203C29.336 267.287 25.9427 267.853 25.9427 261.339C25.9427 254.824 28.0029 252.973 24.5692 252.973C21.1355 252.973 13.4924 267.821 13.4924 272.218C13.4924 276.615 22.2423 276.687 24.1006 274.828C25.9588 272.969 34.7088 269.203 34.7088 269.203Z" fill="#DEB788"/>
<path d="M81.9486 229.607C67.5189 229.607 58.4701 242.377 68.3672 246.055C78.2644 249.732 79.9692 249.126 85.9075 252.973C91.8458 256.812 97.5013 261.621 98.9233 257.944C100.337 254.266 106.275 253.417 106.275 250.306C106.275 247.194 84.2108 229.615 81.9486 229.615V229.607Z" fill="#7CC8AA"/>
<path d="M59.6011 332.091C57.9044 327.565 57.7832 326.15 64.2063 323.604C70.6294 321.058 71.4777 320.492 76.8585 317.946C82.2313 315.4 83.3624 315.4 88.7432 315.4C94.1241 315.4 96.661 321.341 96.661 321.341C96.661 321.341 86.0447 327.904 85.2449 328.696C84.445 329.488 59.6011 332.091 59.6011 332.091Z" fill="#F1F2F2"/>
<path d="M32.9552 242.669C35.888 242.669 37.1968 244.075 45.4054 241.246C53.606 238.417 57.993 231.587 57.993 231.587L42.5777 234.311L32.9633 242.669H32.9552Z" fill="#F1F2F2"/>
</g>
<path d="M94.2212 292.309C95.6351 293.724 95.5624 296.343 97.1944 294.718C98.8183 293.093 96.9116 291.534 99.602 292.309C102.292 293.085 103.989 291.461 103.989 289.052C103.989 286.644 104.135 284.098 101.444 285.092C98.7537 286.086 97.057 286.789 95.3604 287.638C93.6637 288.486 94.2293 292.309 94.2293 292.309H94.2212Z" fill="#DCF8C1"/>
<path d="M103.981 296.553C103.981 294.855 104.805 293.788 106.243 295.227C107.681 296.666 111.479 300.085 108.934 299.236C106.389 298.387 103.989 296.545 103.989 296.545L103.981 296.553Z" fill="#DCF8C1"/>
<path d="M100.442 281.698C100.442 280.283 103.431 278.764 105.031 277.172C106.623 275.579 105.403 272.928 106.881 272.928C108.36 272.928 108.36 272.5 108.36 274.626C108.36 276.751 109.491 279.58 107.512 279.58C105.532 279.58 105.249 280.429 103.981 281.706C102.704 282.983 100.442 281.706 100.442 281.706V281.698Z" fill="#E3AC69"/>
<path d="M65.9358 340.584L74.8715 358.697H55.8528L65.9358 340.584Z" fill="#9CA8D3"/>
<path d="M52.1036 355.577H78.6281C83.7584 355.577 87.9274 359.748 87.9274 364.88V366.626H42.8043V364.88C42.8043 359.748 46.9733 355.577 52.1036 355.577Z" fill="#9CA8D3"/>
<path d="M368.167 269.267C367.488 276.42 357.882 280.615 366.091 288.827C368.393 291.13 371.843 293.143 374.606 292.69C379.575 291.874 383.582 285.885 383.267 282.821C382.362 274.125 371.488 264.749 370.3 265.937C369.112 267.125 368.401 266.85 368.167 269.267Z" fill="#FBAE96"/>
<path d="M364.677 286.944C364.532 286.944 364.386 286.871 364.297 286.733C364.168 286.523 364.233 286.249 364.443 286.127C367.464 284.268 371.157 280.251 371.876 277.018C372.587 273.801 373.879 268.79 373.895 268.742C373.96 268.507 374.203 268.362 374.437 268.427C374.671 268.491 374.817 268.726 374.752 268.968C374.736 269.017 373.451 274.012 372.74 277.22C371.965 280.736 368.151 284.899 364.903 286.895C364.831 286.944 364.75 286.96 364.669 286.96L364.677 286.944Z" fill="#C99565"/>
<path d="M367.003 289.627C366.793 289.627 366.608 289.482 366.567 289.271C366.519 289.029 366.68 288.803 366.915 288.754C369.145 288.318 373.952 283.945 374.832 281.884C375.77 279.694 377.717 273.082 377.717 272.306C377.717 272.064 377.919 271.862 378.161 271.862C378.403 271.862 378.605 272.064 378.605 272.306C378.605 273.349 376.513 280.227 375.656 282.231C374.752 284.349 369.807 289.094 367.092 289.619C367.068 289.619 367.036 289.627 367.012 289.627H367.003Z" fill="#C99565"/>
<path d="M371.698 291.825C371.512 291.825 371.343 291.712 371.278 291.526C371.197 291.291 371.318 291.041 371.553 290.96C374.461 289.942 377.822 286.288 378.671 284.316C379.543 282.295 381.046 277.503 381.054 277.454C381.127 277.22 381.377 277.09 381.611 277.163C381.846 277.236 381.975 277.486 381.902 277.721C381.838 277.923 380.367 282.603 379.487 284.664C378.59 286.757 375.083 290.669 371.843 291.801C371.795 291.817 371.747 291.825 371.698 291.825Z" fill="#C99565"/>
<path d="M139.904 366.546L96.3404 366.675L96.2854 348.126L139.849 347.997C141.521 347.992 142.883 349.346 142.888 351.019L142.925 363.498C142.93 365.171 141.576 366.533 139.904 366.538L139.904 366.546Z" fill="#7096C4"/>
<path d="M109.823 361.47L109.798 353.153C109.798 352.223 109.144 351.463 108.336 351.463L58.624 351.617C58.5755 351.617 58.527 351.585 58.5028 351.536C58.0584 350.566 58.0746 349.491 58.5028 348.336C58.527 348.279 58.5674 348.247 58.624 348.247L111.083 348.085C111.883 348.085 112.537 348.837 112.545 349.774L112.594 364.945C112.594 365.875 111.948 366.634 111.14 366.642L58.9633 366.804C58.7209 366.804 58.5028 366.634 58.422 366.368C58.1473 365.527 58.1715 364.662 58.4301 363.765C58.5109 363.498 58.729 363.321 58.9714 363.321L108.368 363.175C109.168 363.175 109.823 362.415 109.823 361.478V361.47Z" fill="#79ADDD"/>
<path d="M68.1172 354.284L60.1994 354.308C60.3449 353.896 60.5388 353.896 60.765 351.011L109.475 350.865C109.653 350.865 109.71 351.625 109.718 351.827L109.75 363.232C109.75 363.434 60.5145 363.409 60.5145 363.409C60.1267 360.661 60.0298 360.532 59.9005 359.344L64.6431 359.223L60.0136 359.239C59.8844 359.239 59.9409 356.24 60.1348 354.745L68.1172 354.276V354.284Z" fill="#E6E6E6"/>
<path d="M108.659 354.979L108.675 360.402L108.684 361.615L106.551 361.017L104.426 361.631V360.419L104.41 354.995L108.659 354.979Z" fill="#F6A447"/>
<path d="M415.973 277.923C414.575 288.696 404.201 295.97 393.48 294.273C382.759 292.576 375.439 282.497 377.144 271.772C378.84 261.047 388.915 253.725 399.637 255.43C410.358 257.135 417.015 269.889 415.981 277.931L415.973 277.923Z" fill="#FCDCB5"/>
<path d="M445.81 319.522C448.395 343.704 448.961 367.409 416.587 367.409C391.904 367.409 385.32 349.2 386.677 321.349C388.01 294.007 396.001 265.63 410.915 272.75C427.445 280.638 443.192 295.122 445.81 319.522Z" fill="#FCDCB5"/>
<path d="M390.854 293.546C390.7 293.546 390.539 293.506 390.393 293.425C389.949 293.167 389.795 292.601 390.054 292.156C395.895 282.005 402.027 278.941 408.321 276.46C414.825 273.898 416.942 275.256 417.305 275.555L416.118 276.985C416.118 276.985 416.134 277.002 416.166 277.018C416.15 277.01 414.486 276.024 409.008 278.182C403.037 280.534 397.212 283.443 391.67 293.078C391.5 293.377 391.185 293.546 390.862 293.546H390.854Z" fill="#9E614B"/>
<path d="M464.885 415.992C464.812 415.992 464.739 415.992 464.659 415.992C461.871 415.871 459.714 413.511 459.835 410.73C459.835 410.641 460.231 401.331 459.763 391.381C458.955 374.287 455.981 371.297 453.695 370.101C450.302 368.468 436.437 366.302 423.171 365.155C420.392 364.912 418.34 362.463 418.582 359.691C418.825 356.911 421.273 354.858 424.044 355.1C431.097 355.715 454.584 357.969 460.878 361.34C464.19 363.11 466.412 367.005 467.866 373.601C468.795 377.795 469.442 383.226 469.789 389.741C470.371 400.603 469.934 410.747 469.918 411.175C469.797 413.882 467.567 416 464.877 416L464.885 415.992Z" fill="#FCDCB5"/>
<path d="M380.488 271.385L373.984 263.003C373.289 262.106 374.008 260.813 375.131 260.926L385.546 261.977L380.488 271.385Z" fill="#FCDCB5"/>
<path d="M404.702 258.105L400.977 250.233C400.735 249.554 399.773 249.562 399.539 250.233L396.251 257.305L404.702 258.097V258.105Z" fill="#FCDCB5"/>
<path d="M395.475 321.43C392.268 321.017 389.844 318.213 389.981 314.923C390.175 310.268 387.889 307.811 385.934 306.566C383.469 304.998 381.118 305.047 380.504 305.33C377.757 307.407 373.839 306.898 371.722 304.166C369.589 301.418 370.098 297.466 372.845 295.34C377.361 291.849 384.649 291.695 390.983 294.968C398.61 298.904 402.941 306.566 402.569 315.457C402.424 318.932 399.491 321.624 396.017 321.478C395.831 321.478 395.653 321.454 395.475 321.43Z" fill="#FCDCB5"/>
<path d="M405.34 357.889C404.015 357.889 382.443 356.603 382.379 362.479C382.306 368.355 385.142 367.305 393.044 367.305C400.945 367.305 413.379 367.377 413.379 367.377L405.34 357.889Z" fill="#FCDCB5"/>
<path d="M88.0239 48.0959L106.978 83.3911C114.395 72.1648 123.718 69.9018 140.604 67.3559L117.513 34.2349C100.006 37.5809 94.447 39.456 88.032 48.0959H88.0239Z" fill="#ABCFE3"/>
<path d="M140.605 67.3478C140.605 67.3478 153.943 44.7983 170.765 47.4089L142.923 13.4958C142.923 13.4958 135.329 12.4936 127.791 18.8705C120.253 25.2474 117.514 34.2268 117.514 34.2268L140.605 67.3478Z" fill="#ABCFE3"/>
<path d="M123.072 35.06C122.91 35.06 122.781 34.9307 122.781 34.769C122.781 31.8108 125.754 26.6137 130.731 23.0251C135.417 19.6466 138.051 18.6201 142.018 18.6201C142.179 18.6201 142.309 18.7494 142.309 18.9111C142.309 19.0727 142.179 19.2021 142.018 19.2021C138.156 19.2021 135.7 20.1639 131.07 23.502C126.312 26.929 123.363 32.021 123.363 34.769C123.363 34.9307 123.233 35.06 123.072 35.06Z" fill="#7496B8"/>
<path d="M126.07 39.5051C125.908 39.5051 125.779 39.3757 125.779 39.2141C125.779 36.2559 128.752 31.0588 133.729 27.4702C138.415 24.0917 141.057 23.0652 145.016 23.0652C145.177 23.0652 145.307 23.1945 145.307 23.3562C145.307 23.5178 145.177 23.6471 145.016 23.6471C141.154 23.6471 138.698 24.6089 134.068 27.947C129.31 31.374 126.361 36.466 126.361 39.2141C126.361 39.3757 126.231 39.5051 126.07 39.5051Z" fill="#7496B8"/>
<path d="M129.641 44.7263C129.479 44.7263 129.35 44.5969 129.35 44.4353C129.35 41.4771 132.323 36.28 137.3 32.6914C141.986 29.3129 144.62 28.2864 148.587 28.2864C148.748 28.2864 148.877 28.4157 148.877 28.5773C148.877 28.739 148.748 28.8683 148.587 28.8683C144.725 28.8683 142.269 29.8301 137.639 33.1682C132.88 36.5952 129.931 41.6872 129.931 44.4353C129.931 44.5969 129.802 44.7263 129.641 44.7263Z" fill="#7496B8"/>
<path d="M133.025 50.0442C132.864 50.0442 132.735 49.9149 132.735 49.7533C132.735 46.7951 135.708 41.598 140.685 38.0094C145.371 34.6309 148.005 33.6044 151.972 33.6044C152.133 33.6044 152.262 33.7337 152.262 33.8953C152.262 34.057 152.133 34.1863 151.972 34.1863C148.11 34.1863 145.653 35.1481 141.024 38.4862C136.265 41.9132 133.316 47.0052 133.316 49.7533C133.316 49.9149 133.187 50.0442 133.025 50.0442Z" fill="#7496B8"/>
<path d="M135.538 52.6545L140.604 60.0986C140.604 60.0986 143.27 53.3335 147.043 51.1027L142.018 43.8527C142.018 43.8527 139.117 45.2509 137.38 47.7161C135.926 49.7772 135.546 52.6465 135.546 52.6465L135.538 52.6545Z" fill="#7496B8"/>
<path d="M330.884 61.1138L324.64 55.9336L297.362 88.8386L303.606 94.0188L330.884 61.1138Z" fill="#C98446"/>
<path d="M330.879 61.122L328.932 59.5071L301.653 92.4116L303.6 94.0265L330.879 61.122Z" fill="#A36B39"/>
<path d="M326.581 57.5573L324.634 55.9424L297.356 88.8474L299.302 90.4623L326.581 57.5573Z" fill="#A36B39"/>
<path d="M330.889 61.1087L324.643 55.9278L330.501 53.5919L333.102 52.5574L332.424 55.1761L330.889 61.1087Z" fill="#E5C3A5"/>
<path d="M332.392 55.2166L330.477 53.6243L333.079 52.5817L332.392 55.2166Z" fill="#877268"/>
<path d="M297.343 88.8547C297.085 89.3801 290.46 94.9328 294.289 98.3598C298.192 101.86 303.589 94.0437 303.589 94.0437L297.343 88.8628V88.8547Z" fill="#FA9876"/>
<path d="M50.1732 93.4002L45.6759 100.154L81.2394 123.853L85.7367 117.1L50.1732 93.4002Z" fill="#E4AF9C"/>
<path d="M50.1798 93.4088L48.7778 95.5143L84.341 119.214L85.743 117.109L50.1798 93.4088Z" fill="#FBE8E2"/>
<path d="M47.087 98.0524L45.6849 100.158L81.2484 123.857L82.6505 121.752L47.087 98.0524Z" fill="#E4AF9C"/>
<path d="M50.1561 93.3889L45.6559 100.146L42.7151 94.5609L41.4224 92.0876L44.0966 92.4837L50.1561 93.3889Z" fill="#E5C3A5"/>
<path d="M44.1372 92.5158L42.7556 94.5849L41.4468 92.1117L44.1372 92.5158Z" fill="#877268"/>
<path d="M81.2451 123.867C81.7945 124.069 87.9994 130.083 91.013 125.912C94.0832 121.661 85.7453 117.11 85.7453 117.11L81.2451 123.867Z" fill="#FCC583"/>
<path d="M248.738 8.45254C235.084 20.6082 233.759 41.4685 245.692 55.2487L251.299 50.2539L255.605 46.4229L285.644 19.6788L289.951 15.8397L295.558 10.853C283.261 -2.60397 262.4 -3.71124 248.738 8.45254ZM252.018 40.4259C249.134 32.8448 251.024 23.9462 257.439 18.2401C263.854 12.526 272.911 11.6774 280.102 15.4275L252.018 40.434V40.4259Z" fill="#DCF8C1"/>
<path d="M239.568 38.0174C239.374 38.0174 239.204 37.88 239.172 37.686C239.132 37.4677 239.277 37.2495 239.495 37.2091L242.784 36.5706C243.01 36.5302 243.22 36.6757 243.26 36.8939C243.301 37.1121 243.163 37.3303 242.937 37.3708L239.649 38.0093C239.649 38.0093 239.592 38.0093 239.568 38.0093V38.0174Z" fill="#A4C5EE"/>
<path d="M277.654 6.40799C277.613 6.40799 277.573 6.40799 277.533 6.39182C277.323 6.32716 277.201 6.09277 277.266 5.88263L278.284 2.69002C278.349 2.47988 278.583 2.35864 278.793 2.4233C279.003 2.48796 279.124 2.72235 279.06 2.9325L278.042 6.1251C277.985 6.29483 277.832 6.40799 277.654 6.40799Z" fill="#A4C5EE"/>
<path d="M251.848 13.6253C251.735 13.6253 251.622 13.5768 251.55 13.4879L248.795 10.3923C248.649 10.2226 248.657 9.97204 248.827 9.81847C248.996 9.67298 249.247 9.68107 249.4 9.8508L252.156 12.9464C252.301 13.1161 252.293 13.3667 252.123 13.5203C252.042 13.5849 251.954 13.6253 251.857 13.6253H251.848Z" fill="#A4C5EE"/>
<path d="M253.78 48.4597C253.666 48.4597 253.553 48.4112 253.481 48.3223L251.558 46.1643C251.412 45.9946 251.42 45.744 251.59 45.5904C251.76 45.445 252.01 45.453 252.164 45.6228L254.087 47.7808C254.232 47.9505 254.224 48.2011 254.054 48.3547C253.973 48.4274 253.885 48.4597 253.788 48.4597H253.78Z" fill="#A4C5EE"/>
<path d="M258.829 43.9661C258.716 43.9661 258.603 43.9176 258.53 43.8287L256.607 41.6706C256.462 41.5009 256.47 41.2504 256.64 41.0968C256.809 40.9513 257.06 40.9594 257.213 41.1291L259.136 43.2872C259.282 43.4569 259.273 43.7074 259.104 43.861C259.023 43.9257 258.934 43.9661 258.837 43.9661H258.829Z" fill="#A4C5EE"/>
<path d="M263.87 39.4723C263.757 39.4723 263.644 39.4238 263.571 39.3349L261.649 37.1769C261.503 37.0071 261.511 36.7566 261.681 36.603C261.85 36.4575 262.101 36.4656 262.254 36.6353L264.177 38.7934C264.323 38.9631 264.315 39.2137 264.145 39.3672C264.064 39.4319 263.975 39.4723 263.878 39.4723H263.87Z" fill="#A4C5EE"/>
<path d="M268.92 34.9787C268.807 34.9787 268.694 34.9302 268.622 34.8413L266.699 32.6832C266.553 32.5135 266.561 32.2629 266.731 32.1094C266.901 31.9639 267.151 31.972 267.305 32.1417L269.228 34.2997C269.373 34.4695 269.365 34.72 269.195 34.8736C269.114 34.9383 269.026 34.9787 268.929 34.9787H268.92Z" fill="#A4C5EE"/>
<path d="M273.962 30.4849C273.849 30.4849 273.736 30.4364 273.663 30.3475L271.74 28.1894C271.595 28.0197 271.603 27.7692 271.772 27.6156C271.942 27.4701 272.192 27.4782 272.346 27.6479L274.269 29.806C274.414 29.9757 274.406 30.2262 274.236 30.3798C274.164 30.4445 274.067 30.4849 273.97 30.4849H273.962Z" fill="#A4C5EE"/>
<path d="M279.011 25.9992C278.898 25.9992 278.785 25.9507 278.712 25.8618L276.789 23.7037C276.644 23.534 276.652 23.2834 276.821 23.1299C276.991 22.9844 277.242 22.9925 277.395 23.1622L279.318 25.3202C279.463 25.49 279.455 25.7405 279.286 25.8941C279.213 25.9588 279.116 25.9992 279.019 25.9992H279.011Z" fill="#A4C5EE"/>
<path d="M284.052 21.5055C283.939 21.5055 283.826 21.457 283.753 21.3681L281.831 19.2101C281.685 19.0403 281.693 18.7898 281.863 18.6362C282.033 18.4907 282.283 18.4988 282.436 18.6685L284.359 20.8266C284.505 20.9963 284.497 21.2469 284.327 21.4004C284.246 21.4651 284.157 21.5055 284.06 21.5055H284.052Z" fill="#A4C5EE"/>
<path d="M289.102 17.0117C288.989 17.0117 288.876 16.9633 288.803 16.8743L286.881 14.7163C286.735 14.5466 286.743 14.296 286.913 14.1424C287.083 13.997 287.333 14.005 287.487 14.1748L289.409 16.3328C289.555 16.5025 289.547 16.7531 289.377 16.9067C289.304 16.9713 289.207 17.0117 289.11 17.0117H289.102Z" fill="#A4C5EE"/>
<path d="M427.574 62.3941L433.836 64.7704C433.836 64.4471 433.674 64.3905 434.232 62.3537L395.718 47.7081C395.58 47.6596 395.33 48.1607 395.281 48.2982L392.332 56.0655C392.284 56.2029 431.25 70.8888 431.25 70.8888C432.26 69.1268 432.373 69.0703 432.777 68.3024L429.053 66.8072L432.713 68.1974C432.81 68.2378 433.537 66.1767 433.771 65.0937L427.574 62.3941Z" fill="#D9D4A7"/>
<path d="M433.213 61.6499C433.415 65.1416 429.513 70.9852 429.513 70.9852L431.234 71.3974C431.234 71.3974 434.166 66.0549 434.522 64.5677C434.877 63.0805 434.877 62.1349 434.877 62.1349L433.205 61.658L433.213 61.6499Z" fill="#C2BD95"/>
<path d="M392.728 54.8447L394.877 49.1791C395.119 48.5406 395.83 48.2254 396.469 48.4678L435.775 63.4119C435.775 63.4119 435.855 63.4119 435.888 63.3876C436.494 62.8542 436.752 62.1187 436.712 61.2054C436.712 61.165 436.679 61.1246 436.639 61.1085L395.16 45.3319C394.521 45.0894 393.81 45.4127 393.568 46.0431L389.642 56.3803C389.399 57.0188 389.722 57.7301 390.353 57.9725L431.606 73.6602C431.799 73.7329 432.01 73.6763 432.147 73.5228C432.575 73.0298 432.785 72.4317 432.809 71.7447C432.809 71.5346 432.688 71.3487 432.494 71.2759L393.439 56.4208C392.801 56.1783 392.486 55.467 392.728 54.8285V54.8447Z" fill="#B1B1E8"/>
<path d="M397.212 51.8381L393.099 62.6445L392.187 65.0531L395.192 64.8187L397.26 66.9848L398.173 64.5762L402.286 53.7699L397.212 51.8381Z" fill="#F5A98D"/>
<path d="M389.973 57.7381L374.145 30.3878L377.611 22.4106C378.347 20.7295 380.31 19.9617 381.99 20.7053L419.777 37.4597L436.639 61.1084L394.538 46.2128L389.973 57.73V57.7381Z" fill="#B1B1E8"/>
<path d="M380.189 20.4626C379.09 20.6162 378.096 21.3194 377.619 22.4185L374.153 30.3957L389.981 57.746L394.546 46.2288L395.337 46.5117C390.926 39.1569 383.34 26.4112 380.189 20.4707V20.4626Z" fill="#C8C8F0"/>
</svg>
