<svg width="51" height="51" fill="none" xmlns="http://www.w3.org/2000/svg"><circle cx="25.5" cy="25.5" r="25.5" fill="#6683C2"/><path d="M39.457 15.312c-1.718-.65-3.693-1.215-5.713-1.632-3.887-.803-7.684-1.004-10.256-.553l.707-1.088a.835.835 0 0 0-1.4-.909l-1.817 2.8a.835.835 0 0 0 .245 1.154l2.8 1.817a.83.83 0 0 0 .852.033.834.834 0 0 0 .056-1.433l-1.131-.734c2.367-.413 5.923-.213 9.607.547 1.935.4 3.822.939 5.458 1.559a.831.831 0 0 0 1.076-.485.834.834 0 0 0-.484-1.076Zm-4.045 4.812a3.7 3.7 0 0 0-3.106-1.678c-.72 0-1.425.21-2.028.605a3.924 3.924 0 0 0-1.012.966 3.704 3.704 0 0 0-3.878.11c-.43.281-.785.63-1.06 1.02a3.712 3.712 0 0 0-3.818.148 3.727 3.727 0 0 0-.786.688l-.217-.334-2.11-3.23-.728-1.117-.25-.382c-.57-.978-1.622-1.56-2.827-1.56-.76 0-1.532.232-2.177.653a3.686 3.686 0 0 0-1.6 2.345 3.686 3.686 0 0 0 .526 2.791l6.19 9.467c-.894 1.13-1.213 2.846-.27 4.38 1.175 1.914 2.295 3.268 3.524 4.261 1.633 1.32 3.482 1.989 5.498 1.989 2.497 0 5.233-.996 8.364-3.043 3.54-2.314 5.476-5.066 5.757-8.181.197-2.188-.47-4.525-1.932-6.76l-2.06-3.138Zm-2.678 16.683c-3.013 1.97-5.442 2.77-7.451 2.77-3.547 0-5.783-2.495-7.6-5.454-.688-1.118-.168-2.383.604-2.887l1.316 2.012c.09.138.189.176.268.176.067 0 .12-.026.144-.042.053-.034.204-.174.038-.427l-8.316-12.719a2.042 2.042 0 0 1 .592-2.826 2.348 2.348 0 0 1 1.263-.381c.568 0 1.106.232 1.397.753l5.107 7.822.005.01.21.323a.334.334 0 0 0 .461.096.332.332 0 0 0 .096-.46l-.054-.084a2.042 2.042 0 0 1 3.436-2.206l.81 1.237a.327.327 0 1 0 .548-.358l-.047-.07c-.561-.86-.119-2.006.74-2.567a2.04 2.04 0 0 1 2.823.594l.822 1.25a.32.32 0 0 0 .441.092.319.319 0 0 0 .093-.44l-.064-.095c-.51-.782-.057-1.934.775-2.478a2.04 2.04 0 0 1 2.826.592l2.058 3.136c1.91 2.92 3.65 8.06-3.341 12.63Z" fill="#fff"/></svg>