<svg width="190" height="222" fill="none" xmlns="http://www.w3.org/2000/svg"><g clip-path="url(#a)"><path d="M133.389 211.906c48.854 0 88.459-39.605 88.459-88.459 0-48.855-39.605-88.46-88.459-88.46-48.855 0-88.46 39.605-88.46 88.46 0 48.854 39.605 88.459 88.46 88.459Z" fill="#FFDC8C"/><path d="M139.068 211.728a92.88 92.88 0 0 1-5.679.178c-48.857 0-88.46-39.607-88.46-88.459 0-48.852 39.603-88.46 88.46-88.46 1.907 0 3.802.063 5.679.178-46.194 2.952-82.746 41.348-82.746 88.282s36.552 85.33 82.746 88.281Z" fill="#F3C55C"/><path d="M133.382 191.055c37.339 0 67.609-30.269 67.609-67.608 0-37.34-30.27-67.609-67.609-67.609-37.34 0-67.609 30.27-67.609 67.609s30.27 67.608 67.609 67.608Z" fill="#D3EFFB"/><path d="M145.197 190.075a67.441 67.441 0 0 1-11.524.982c-37.34 0-67.61-30.271-67.61-67.61 0-37.34 30.27-67.61 67.61-67.61 3.927 0 7.78.332 11.524.981-31.844 5.467-56.08 33.217-56.08 66.629 0 33.412 24.236 61.162 56.08 66.628Z" fill="#9DC6FB"/><path d="M133.383 132.059h-31.411a8.613 8.613 0 0 1 0-17.226h31.411a8.613 8.613 0 0 1 0 17.226Z" fill="#365E7D"/><path d="M133.386 132.059a8.613 8.613 0 0 1-8.613-8.613v-21.992a8.614 8.614 0 0 1 17.226 0v21.992a8.613 8.613 0 0 1-8.613 8.613Z" fill="#2B4D66"/><path d="M133.386 74.922a2.997 2.997 0 0 1-2.773-1.853 3 3 0 0 1-.229-1.149V58.375a3 3 0 1 1 6.003 0V71.92a3 3 0 0 1-3.001 3.001Zm0 116.598a3.006 3.006 0 0 1-3.002-3.002v-13.544a3.01 3.01 0 0 1 1.842-2.818 2.996 2.996 0 0 1 3.299.664 2.992 2.992 0 0 1 .862 2.154v13.544a3.003 3.003 0 0 1-3.001 3.002Zm65.071-65.072h-13.545a2.988 2.988 0 0 1-2.144-.867 2.985 2.985 0 0 1-.892-2.134 3.003 3.003 0 0 1 3.036-3.002h13.545a3.006 3.006 0 0 1 3.002 3.001 2.997 2.997 0 0 1-.879 2.123 3.006 3.006 0 0 1-2.123.879Zm-116.598 0H68.314a3.001 3.001 0 0 1 0-6.003h13.545a3.002 3.002 0 0 1 0 6.003Zm100.959-28.537a3 3 0 0 1-2.778-4.15 3.007 3.007 0 0 1 1.275-1.452l6.924-3.997a3 3 0 1 1 3.001 5.198l-6.924 3.998a2.988 2.988 0 0 1-1.498.403ZM77.034 158.984a3.003 3.003 0 0 1-1.503-5.602l6.924-3.997a3.01 3.01 0 0 1 3.328.218 2.996 2.996 0 0 1 1.148 1.99 2.997 2.997 0 0 1-1.475 2.991l-6.923 3.997a2.986 2.986 0 0 1-1.499.403Zm84.887-81.966a2.999 2.999 0 0 1-2.999-3.002c0-.527.139-1.044.402-1.5l3.998-6.924a3 3 0 1 1 5.198 3l-3.997 6.925a3.004 3.004 0 0 1-2.602 1.501Zm-61.074 105.784a3.006 3.006 0 0 1-2.999-3.003c0-.527.139-1.044.402-1.5l3.998-6.924a3.003 3.003 0 0 1 4.1-1.099 3.013 3.013 0 0 1 1.398 1.823 3.007 3.007 0 0 1-.299 2.277l-3.998 6.924a3.004 3.004 0 0 1-2.602 1.502Zm4.003-105.784a3.001 3.001 0 0 1-2.602-1.501l-3.998-6.924a3.002 3.002 0 1 1 5.199-3.001l3.997 6.923a2.994 2.994 0 0 1 .002 3.001 3 3 0 0 1-2.598 1.502Zm61.074 105.784a3 3 0 0 1-2.602-1.502l-3.998-6.924a2.99 2.99 0 0 1-.3-2.277 3.004 3.004 0 0 1 3.676-2.123 3.004 3.004 0 0 1 1.823 1.399l3.997 6.924a2.993 2.993 0 0 1 .002 3.001 3.006 3.006 0 0 1-2.598 1.502ZM83.953 97.911a2.989 2.989 0 0 1-1.498-.403L75.53 93.51a3.002 3.002 0 0 1 3.001-5.198l6.924 3.997a3.001 3.001 0 0 1-1.503 5.602Zm105.784 61.074a2.985 2.985 0 0 1-1.498-.403l-6.924-3.997a3.004 3.004 0 0 1-1.476-2.991 3.01 3.01 0 0 1 2.199-2.508 3.013 3.013 0 0 1 2.278.3l6.924 3.997a3.005 3.005 0 0 1 1.4 3.379 3.002 3.002 0 0 1-2.903 2.223Z" fill="#365E7D"/><path d="M133.384 195.058c-39.486 0-71.61-32.125-71.61-71.611 0-39.487 32.124-71.61 71.61-71.61s71.61 32.124 71.61 71.61-32.124 71.611-71.61 71.611Zm0-135.218c-35.073 0-63.606 28.534-63.606 63.607 0 35.072 28.533 63.606 63.606 63.606s63.606-28.534 63.606-63.606c0-35.073-28.534-63.607-63.606-63.607Z" fill="#F3C55C"/><path d="M68.628 93.256c22.99 0 41.628-18.637 41.628-41.628C110.256 28.638 91.619 10 68.628 10 45.638 10 27 28.638 27 51.628s18.638 41.628 41.628 41.628Z" fill="#7FCBB4"/><path d="M73.33 92.996c-1.56.176-3.13.264-4.7.263C45.638 93.259 27 74.62 27 51.629c0-22.99 18.638-41.627 41.63-41.627 1.589 0 3.16.087 4.7.262C52.554 12.6 36.402 30.228 36.402 51.63c0 21.403 16.152 39.032 36.93 41.367Z" fill="#65B69D"/><path d="M56.424 76 43.409 54.227a4.425 4.425 0 0 1 1.528-6.069l6.566-3.925a4.425 4.425 0 0 1 6.07 1.528l6.604 11.049 13.565-27.368a4.426 4.426 0 0 1 5.931-2l6.854 3.398a4.426 4.426 0 0 1 2 5.93L73.412 75.333a4.426 4.426 0 0 1-3.791 2.457l-9.224.363A4.428 4.428 0 0 1 56.424 76Z" fill="#F9F6F9"/></g><defs><clipPath id="a"><rect width="190" height="222" rx="32" fill="#fff"/></clipPath></defs></svg>