<svg width="590" height="472" fill="none" xmlns="http://www.w3.org/2000/svg"><g clip-path="url(#a)"><path d="M498.623 313.138c-4.476-2.194-7.804 4.915-2.388 6.994 5.417 2.08 8.487 3.436 10.192 3.436 1.706 0 3.266-4.429 1.809-5.888-1.457-1.459-6.522-3.032-9.613-4.542Z" fill="#F1BBA2"/><path d="M286.269 255.171c7.587 0 9.582 9.758 19.051 12.904 11.742 3.9 26.999-2.267 30.937-12.324 5.117-13.069-4.569-19.878-2.367-41.597 1.457-14.393-8.331-13.12-16.714-27.131-8.383-14.02-6.14-15.541-17.51-28.424-11.371-12.882-30.369-14.703-44.644-12.437-14.275 2.266-21.386 4.884-32.56 12.572-11.174 7.688-6.119 15.924-13.303 21.357-7.184 5.422-10.389 11.723-12.559 22.505-4.176 20.695 9.861 30.701 3.555 37.851-6.305 7.15-19.101 39.196 14.007 37.261 11.7-.683 22.182 3.166 27.919-5.722 8.445-13.079 12.662-4.377 24.228-10.11 11.577-5.742 19.95-6.684 19.95-6.684l.01-.021Z" fill="#363537"/><path d="M201.414 262.249c27.878-22.713 30.524 0 97.401-4.439 8.249-.549 45.791 7.015 53.037 11.475 36.736 22.588 65.451 170.515 65.451 170.515l-212.726-2.349-3.163-175.202Z" fill="#F3EB5D"/><path d="M254.732 251.922c-.486 9.375-9.013.507-9.013 12.386 0 10.316 11.535 26.8 44.189 21.574 20.766-3.321 27.009-21.067 14.667-26.241-6.987-2.928-10.285-14.693-10.285-14.693l-39.558 6.964v.01Z" fill="#F1BBA2"/><path d="M298.999 198.178c6.419 25.744 6.171 63.14-23.123 65.385-35.837 2.752-75.292-67.651-46.535-93.499 28.756-25.848 60.562-8.34 69.658 28.114Z" fill="#F1BBA2"/><path d="M242.183 189.32c-4.217 8.144-4.517 9.603-9.189 14.28s-4.238 16.793-2.005 23.705c10.636 32.957 1.529 17.043-.579 19.153-2.109 2.111-10.843-19.411-12.042-20.612-1.21-1.21-10.688-35.719-10.688-39.34 0-3.622 22.833-25.455 25.593-28.228 2.77-2.773 27.702-7.947 34.783-7.947 7.08 0 21.231-.9 24.249 3.922 3.008 4.822 22.586 45.218 22.586 45.218s11.742 18.822 3.803 18.294c-10.16-.683-12.073-2.732-14.678-8.681-2.79-6.395-5.437-20.757-19.432-16.008-23.661 8.02-42.401-3.735-42.401-3.735v-.021Z" fill="#363537"/><path d="M145.028 454.11c-9.065-56.507 35.951-186.512 65.172-198.349 20.591-8.35 36.457-1.78 40.282 21.036 3.824 22.816-30.989 130.326-30.989 130.326s102.094-28.083 111.139 0c9.034 28.082 4.517 47.98 4.517 47.98l-190.11-.993h-.011Z" fill="#F3EB5D"/><path d="M239.411 409.989c-9.355 0-17.665-.207-23.95-.373-3.029-.072-5.654-.145-7.794-.176-.93-.01-1.705-.434-2.191-1.179-2.336-3.611 2.749-15.935 12.724-39.248 10.202-23.861 22.896-53.558 22.896-69.669a1.27 1.27 0 1 1 2.542 0c0 16.639-12.807 46.595-23.102 70.673-4.103 9.592-7.969 18.646-10.398 25.392-3.473 9.654-2.729 11.238-2.523 11.476h.083c2.15.031 4.786.093 7.825.176 13.954.351 35.031.889 56.717-.714a1.274 1.274 0 0 1 1.364 1.179 1.274 1.274 0 0 1-1.178 1.366c-11.381.838-22.813 1.086-33.015 1.086v.011Z" fill="#C99565"/><path d="M255.061 223.798c-.227 1.469 1.313 5.908 4.6 4.894 2.17-.673 1.809-6.219-.744-7.233-2.078-.817-3.629.869-3.856 2.339ZM282 215.561c-.382 1.439.972 5.992 4.342 5.319 2.232-.435 2.16-5.96-.259-7.233-1.974-1.045-3.7.476-4.083 1.914Z" fill="#372313"/><path d="M269.438 248.476c1.788 2.07 6.077 4.501 12.672 2.266 6.595-2.235 5.84-8.888 5.84-8.888-5.954 3.766-11.628 5.577-18.512 6.612v.01Z" fill="#E66C40"/><path d="M277.17 210.481c1.323 0 5.51-2.939 9.489-2.297 3.98.641 3.835.093 2.884-.869-.961-.963-3.659-1.956-8.703-1.304-6.119.797-4.817 4.47-3.67 4.47ZM259.626 214.703c.073-1.273-2.656-1.583-4.631-1.066-2.708.714-6.842 4.667-7.525 7.502-.361 1.48.683 2.204 2.202.124 1.799-2.452 3.215-3.942 5.499-4.294 1.84-.29 4.403-1.263 4.455-2.256v-.01Z" fill="#363537"/><path d="M236.827 227.772c3.225 4.552 7.67 13.503 4.362 15.852s-13.117-2.784-16.342-7.337c-3.225-4.552-3.163-10.15.144-12.499 3.308-2.349 8.611-.569 11.836 3.984Z" fill="#F1BBA2"/><path d="M276.449 266.709c-6.502 0-11.897-2.173-12.197-2.298a.833.833 0 0 1 .63-1.541c.093.041 9.479 3.807 18.038 1.303a.838.838 0 0 1 1.033.57.838.838 0 0 1-.568 1.034c-2.336.683-4.703.942-6.936.942v-.01Z" fill="#C99565"/><path d="M240.3 244.958c2.346 2.349 13.21 12.997 24.259 18.688 3.205 1.655 1.582 12.665 1.303 14.31-2.109 12.52-15.505 9.82-23.506 5.815-8.589-4.304-.547-31.745-12.703-32.573-13.779-.942-19.257 5.163-21.262 4.635-3.928-1.045 3.111-7.15 12.693-10.037 7.68-2.307 17.81-1.738 19.216-.838Z" fill="#363537"/><path d="M246.123 160.337c-5.209-.858-7.752 5.422-10.192 8.868-.485.683.641 1.552 1.158.9 2.274-2.835 4.352-8.826 8.828-8.278.837.104 1.043-1.345.196-1.49h.01ZM248.471 165.708c-3.515.321-5.572 3.042-7.608 5.618-.589.745.444 1.801 1.054 1.056 1.747-2.163 3.577-4.801 6.564-5.164.941-.113.982-1.603 0-1.51h-.01ZM223.292 197.423c-2.997 3.6-5.034 8.195-5.871 12.81-.176.941 1.261 1.355 1.458.403.868-4.325 2.708-8.692 5.468-12.158.589-.735-.435-1.79-1.055-1.055ZM258.009 270.579c.073-.983-1.426-.963-1.519 0-.186 2.09.217 4.19.114 6.291-.052.941-.166 2.038-.755 2.814-.754.994-1.995.994-3.132.911-.992-.073-.94 1.397 0 1.521 6.967.869 5.003-7.347 5.292-11.537ZM327.79 222.929c-.858-1.78-1.975-3.415-3.019-5.081-.682-1.097-1.912-2.639-1.85-4.004.042-.952-1.426-.952-1.478 0-.072 1.148.569 2.297 1.116 3.259.858 1.521 1.851 2.97 2.74 4.47.806 1.345 1.716 2.825 1.974 4.408.269 1.645-.693 2.339-2.171 2.742-.951.259-.548 1.666.403 1.469 1.51-.32 2.936-1.169 3.287-2.773.331-1.521-.341-3.135-.992-4.48l-.01-.01ZM327.867 241.171c-.858-.962-1.943-1.428-3.08-1.966-1.375-.662-2.078-1.314-1.881-2.949.093-.817-1.344-1.024-1.458-.197-.341 2.432.858 3.653 2.946 4.626 1.034.476 2.729 1.2 2.987 2.483.197 1.014-1.478 1.832-2.067 2.483-.651.725.362 1.76 1.075 1.077.786-.756 1.923-1.387 2.377-2.422.507-1.148-.124-2.266-.888-3.125l-.011-.01ZM288.399 171.596c-1.313-1.408-2.988-1.915-4.859-2.091-2.108-.207-4.165-.093-5.623-1.893-.63-.776-1.705.321-1.095 1.097 2.718 3.425 7.566 1.055 10.491 3.963.693.693 1.737-.362 1.075-1.076h.011Z" fill="#352D27"/><path d="M344.945 266.812c11.588 1.573 48.355 44.638 94.89 54.634 46.535 9.996 63.539-.548 63.539-.548l19.867 32.221c-45.533 33.391-116.659 15.853-161.747-6.632l-16.549-79.675Z" fill="#F3EB5D"/><path d="M529.47 449.516s28.115-88.812-30.813-132.333c-12.404-9.158-23.196-13.472-49.275-13.379-27.774.103-52.768 26.148-62.588 43.79-18.192 32.687-33.263 101.922-33.263 101.922H529.47Z" fill="#7FCBB4"/><path d="M496.245 449.443c-.692 0-1.24-.559-1.24-1.242v-50.598c-.01-.238-1.571-30.38-5.789-42.114a1.238 1.238 0 0 1 .755-1.594 1.235 1.235 0 0 1 1.592.756c4.351 12.085 5.871 41.648 5.943 42.9v50.661c0 .693-.558 1.241-1.24 1.241l-.021-.01ZM404.58 441.383a1.24 1.24 0 0 1-1.23-1.107c-.3-2.598-7.36-63.906-3.328-85.449a1.247 1.247 0 0 1 1.457-.993c.672.124 1.116.776.992 1.458-3.969 21.171 3.287 84.073 3.36 84.704a1.254 1.254 0 0 1-1.096 1.387h-.155Z" fill="#539A85"/><path d="M433.07 314.11c-6.243 7.098-10.223 28.817 1.168 29.397 26.782 1.376 36.116-35.037 28.942-37.354-16.393-5.309-30.11 7.957-30.11 7.957Z" fill="#F1F2F2"/><path d="M431.922 295.95c0 2.773-1.623 20.467 2.925 22.992 13.314 7.388 28.343-8.071 28.343-12.779v-15.19l-31.258 4.987-.01-.01Z" fill="#F1BBA2"/><path d="M410.549 226.447c-1.303-13.535-9.21-24.834-16.043-19.164-6.832 5.671-14.647 11.641-12.982 19.164.93 4.211 22.833 11.092 22.833 11.092l6.192-11.092Z" fill="#363537"/><path d="M397.075 239.65a1.246 1.246 0 0 1-.786-2.214c4.352-3.508 6.471-7.254 6.471-11.444 0-.694.558-1.242 1.24-1.242.682 0 1.241.559 1.241 1.242 0 4.925-2.491 9.426-7.401 13.389a1.235 1.235 0 0 1-.776.279l.011-.01Z" fill="#DE501D"/><path d="M400.978 258.606c-4.331.973-7.535 2.09-9.313.321-1.778-1.78 0-6.364 0-6.364l5.716-.921 3.597 6.964Z" fill="#82512B"/><path d="M480.992 263.211c-4.114 28.404-22.338 50.899-47.91 50.899-18.895 0-31.372-9.468-33.418-28.828-.476-4.501.434-10.751.093-13.389-.569-4.439-3.835-9.365-3.835-14.021 0-28.404 24.394-42.031 49.967-42.031 25.572 0 39.175 19.267 35.103 47.37Z" fill="#F1BBA2"/><path d="M426.097 265.767c-.103-.921 2.078-2.773 5.065-2.07 2.977.704 5.189 2.815 4.217 3.394-.971.58-3.152-1.221-5.054-1.003-1.902.207-4.145.331-4.217-.321h-.011ZM411.303 266.305c.104-.921-2.077-2.773-5.065-2.07-2.977.704-5.189 2.815-4.217 3.394.972.58 3.153-1.221 5.055-1.003 1.901.217 4.144.331 4.217-.321h.01ZM422.264 248.331c21.769-2.131 22.999 6.654 29.221 14.88 6.233 8.226 21.49 6.643 28.498 5.536 2.388-.373 5.995-15.914 5.003-25.196-.734-6.881-.331-19.526-14.492-26.893-14.161-7.367-19.081-9.023-32.839-6.467-13.748 2.556-28.684 39.444-15.402 38.14h.011Z" fill="#363537"/><path d="M459.297 227.305c1.302-13.534 14.543-25.051 21.386-19.38 6.843 5.67 13.241 21.781 9.696 24.244-3.546 2.462-24.891 6.229-24.891 6.229l-6.191-11.093Z" fill="#363537"/><path d="M467.614 238.76c-6.026 0-8.507-3.694-9.334-5.432-1.447-3.032-1.292-6.737.352-8.258a1.244 1.244 0 0 1 1.684 1.832c-.578.538-.94 2.969.197 5.349.868 1.822 3.214 4.739 9.179 3.86a1.25 1.25 0 0 1 .361 2.473c-.878.124-1.695.186-2.449.186l.01-.01Z" fill="#D9886B"/><path d="M390.014 257.541c7.267 9.447 10.11-16.256 30.307-11.341 7.887 1.914 1.695-11.62 9.21-16.866 7.504-5.246 19.474-16.98 6.45-18.677-13.024-1.697-30.658 5.836-35.558 13.886-2.181 3.58-6.687 8.361-7.339 14.817-.868 8.713-5.158 15.459-3.059 18.181h-.011Z" fill="#363537"/><path d="M414.328 296.581s2.264 5.215 8.3 5.536c6.037.321 7.122-5.484 7.122-5.484-5.313 1.811-9.912 2.183-15.422-.052Z" fill="#F1F2F2"/><path d="M430.5 272.989c-1.054.393-2.119 2.09-1.612 4.594.506 2.494 2.377 3.591 3.545 2.836 1.168-.756 2.006-4.253 1.272-5.712-.734-1.459-2.533-1.966-3.215-1.708l.01-.01ZM406.87 273.031c-1.034.434-2.037 2.173-1.427 4.656.61 2.473 2.512 3.487 3.659 2.69 1.148-.807 1.83-4.325 1.044-5.753-.785-1.428-2.615-1.862-3.276-1.583v-.01Z" fill="#372313"/><path d="M445.705 238.212c-2.574-2.98-7.391-3.777-10.967-2.391-.868.342-.506 1.739.393 1.418 3.276-1.169 7.018-.393 9.499 2.049.703.693 1.716-.342 1.075-1.076ZM450.624 224.46c-4.393-1.055-8.445-.538-12.476 1.459-.868.435-.104 1.728.765 1.304 3.721-1.811 7.287-2.09 11.318-1.314.941.186 1.354-1.221.403-1.449h-.01ZM468.213 252.708c-2.584.849-5.809-1.883-5.705-4.532.041-.952-1.406-.941-1.468 0-.228 3.518 4.114 7.347 7.577 5.991.878-.351.537-1.769-.404-1.459ZM407.827 232.21c-2.511-.238-5.033.6-6.501 2.753-.548.796-.817 1.707-1.106 2.618-.424 1.334-.879 1.945-2.347 2.079-.951.094-.982 1.49 0 1.511 2.171.031 3.236-1.242 3.856-3.177.362-1.138.703-2.162 1.623-3 1.219-1.118 2.884-1.418 4.486-1.325.951.052.92-1.376 0-1.459h-.011ZM419.924 219.204c-1.664-.425-2.78-1.646-4.62-1.418-1.716.217-3.08 1.418-4.135 2.711-.599.735.393 1.801 1.065 1.066 1.013-1.087 2.264-2.39 3.897-2.235 1.209.114 2.202 1.076 3.401 1.314.93.186 1.333-1.2.392-1.438Z" fill="#251C16"/><path d="M433.077 314.938a.83.83 0 0 1-.827-.828.83.83 0 0 1 .827-.828c7.236 0 13.262-1.397 17.892-4.149a.831.831 0 0 1 .848 1.428c-4.889 2.907-11.194 4.377-18.74 4.377Z" fill="#C48976"/><path d="M437.766 449.795c0-13.297 18.554-39.165 52.613-39.165s51.507 2.38 51.507 2.38v36.288l-104.12.497Z" fill="#7FCBB4"/><path d="M437.179 420.005c-.496 0-.971-.3-1.158-.797a1.25 1.25 0 0 1 .714-1.614c10.595-4.056 50.525-8.298 59.518-8.185.692 0 1.24.569 1.23 1.263 0 .683-.569 1.231-1.241 1.231h-.02c-8.611-.124-48.469 4.139-58.588 8.019-.145.052-.3.083-.445.083h-.01Z" fill="#539A85"/><path d="M271.729 427.807h156.258c9.189 0 16.652 7.471 16.652 16.67v2.587h-172.92v-19.267l.01.01Z" fill="#7C8CAF"/><path d="M406.848 447.074H234.785l-11.308-128.007c-.651-3.694.961-7.099 4.662-7.099h161.178c2.873 0 5.344 2.09 5.85 4.967l11.681 130.139Z" fill="#7C8CAF"/><path d="M321.278 360.115c.455 7.098-4.507 13.193-11.081 13.617-6.574.424-12.28-4.977-12.745-12.075-.465-7.099 4.507-13.193 11.081-13.617 6.574-.425 12.28 4.977 12.745 12.075Z" fill="#DBDBDB"/><path d="M697 445.056H33v27.224h664v-27.224Z" fill="#DCBFA3"/><path d="M561.96 100.55s32.922 127.604 32.922 153.059c0 25.454-15.164 15.666-15.164 15.666s-11.246-88.605-15.163-98.725c-3.908-10.119-1.468-18.604-1.468-25.62 0-7.015-3.587-15.986-3.587-22.681s2.45-21.699 2.45-21.699h.01Z" fill="#A7CBBD"/><path d="M579.963 380.944c-6.843-15.283-17.603-48.023-17.603-63.854 0-15.832 2.449-31.104 0-39.837-2.45-8.734-16.198-67.052-10.843-88.502 3.338-13.368 4.486-3.952 4.486-3.952s21.52 34.063 23.96 47.701c2.439 13.638-.755 39.299 2.45 46.894 3.194 7.595 8.806 25.693 8.806 37.706v62.219l-11.246 1.635-.01-.01Z" fill="#C2E8D8"/><path d="M607.839 179.004 585.346 134.8s-7.825 25.103-7.825 33.288c0 8.184-2.935 14.734-2.935 22.919s6.843 25.103 6.843 39.299c0 14.197-2.45 28.921-2.45 40.935 0 12.013 12.228 109.703 12.228 109.703h8.807l7.825-201.93v-.01Z" fill="#92BCAB"/><path d="M638.584 445.346H567.84l-9.323-79.116c-.476-4.005 2.656-7.523 6.687-7.523h75.633c4.021 0 7.143 3.498 6.688 7.492l-8.931 79.147h-.01Z" fill="#E3AC69"/><path d="M643.66 421.847h-81.411l-2.749-38.182h86.744l-2.584 38.182Z" fill="#FCC583"/><path d="M116.626 415.049c-43.486 0-78.868-35.419-78.868-78.951 0-24.471 11.06-47.163 30.358-62.25a2.289 2.289 0 0 1 3.174.342l97.856 117.825c.796.952.682 2.37-.248 3.187a78.71 78.71 0 0 1-52.283 19.836l.011.011ZM69.212 278.877c-17.097 14.186-26.854 34.923-26.854 57.231 0 40.997 33.314 74.346 74.268 74.346a74.134 74.134 0 0 0 47.548-17.228L69.212 278.877Z" fill="#9CA8D3"/><path d="M116.62 399.269c34.852 0 63.105-28.283 63.105-63.171s-28.253-63.171-63.105-63.171c-34.851 0-63.104 28.283-63.104 63.171s28.253 63.171 63.104 63.171Z" fill="#68CCEB"/><mask id="b" style="mask-type:luminance" maskUnits="userSpaceOnUse" x="53" y="272" width="100" height="100"><path d="M102.808 371.615c27.223 0 49.292-22.092 49.292-49.344 0-27.252-22.069-49.344-49.292-49.344-27.224 0-49.292 22.092-49.292 49.344 0 27.252 22.069 49.344 49.292 49.344Z" fill="#fff"/></mask><g mask="url(#b)"><path d="M85.73 321.364c-9.768 6.601-22.079 30.514-9.768 28.703 12.3-1.811 18.1-10.14 23.888-1.448 5.789 8.691 6.409 14.858 16.776 14.858 10.368 0 23.826 7.761 25.935 5.66 2.098-2.1-5.427-14.714-9.407-26.675-3.979-11.951-15.928-23.913-23.887-27.172-7.96-3.26-23.526 6.074-23.526 6.074h-.01Z" fill="#F3C55C"/><path d="M122.775 325.699c-4.496-4.936-9.509-8.774-13.52-10.409-7.959-3.26-23.526 6.074-23.526 6.074-4.496 3.042-9.53 9.747-12.456 15.924 5.903 1.263 6.306-4.066 16.9-5.101 12.301-1.211 11.578-1.221 17.852 2.649 6.274 3.87 3.928-2.163 8.6-4.584 2.987-1.542 5.044-3.187 6.15-4.553Z" fill="#7DD2B1"/><path d="M77.41 321.363c-6.874-2.452-11.216-1.728-11.216-10.068s2.636-10.709-1.757-10.709-14.171 19.008-14.171 24.637c0 5.629 11.194 5.722 13.572 3.342 2.377-2.38 13.571-7.202 13.571-7.202Z" fill="#F3C55C"/><path d="M137.848 270.671c-18.461 0-30.038 16.349-17.376 21.057 12.663 4.708 14.844 3.932 22.441 8.858 7.598 4.915 14.833 11.071 16.652 6.363 1.809-4.708 9.407-5.794 9.407-9.778 0-3.984-28.23-26.489-31.124-26.489v-.011Z" fill="#7CC8AA"/><path d="M75.172 287.393c3.752 0 5.427 1.801 15.928-1.821 10.492-3.622 16.105-12.365 16.105-12.365l-19.722 3.487-12.3 10.699h-.011Z" fill="#F1F2F2"/></g><path d="M153.551 350.947c1.809 1.81 1.716 5.163 3.804 3.083 2.077-2.08-.362-4.077 3.08-3.083 3.442.993 5.613-1.087 5.613-4.17 0-3.084.186-6.343-3.256-5.071-3.442 1.273-5.613 2.173-7.784 3.26-2.17 1.086-1.447 5.981-1.447 5.981h-.01ZM166.031 356.379c0-2.173 1.055-3.539 2.894-1.697 1.84 1.842 6.699 6.219 3.443 5.132-3.256-1.086-6.326-3.445-6.326-3.445l-.011.01Z" fill="#DCF8C1"/><path d="M161.5 337.36c0-1.81 3.825-3.756 5.871-5.794 2.036-2.039.476-5.433 2.367-5.433 1.892 0 1.892-.548 1.892 2.173 0 2.722 1.447 6.343-1.086 6.343-2.532 0-2.894 1.087-4.517 2.722-1.633 1.635-4.527 0-4.527 0v-.011Z" fill="#F3C55C"/><path d="m117.361 412.752 11.432 23.188h-24.332l12.9-23.188Z" fill="#9CA8D3"/><path d="M99.663 431.946h33.935c6.564 0 11.897 5.339 11.897 11.91v2.235h-57.73v-2.235c0-6.571 5.334-11.91 11.898-11.91Z" fill="#9CA8D3"/><path d="M504.027 321.446c-.868 9.158-13.158 14.528-2.656 25.041 2.946 2.949 7.359 5.525 10.894 4.946 6.357-1.045 11.484-8.713 11.081-12.634-1.158-11.134-15.071-23.137-16.59-21.616-1.52 1.521-2.429 1.169-2.729 4.263Z" fill="#F1BBA2"/><path d="M499.555 344.076a.577.577 0 0 1-.485-.269.556.556 0 0 1 .186-.776c3.865-2.38 8.589-7.523 9.509-11.662.91-4.118 2.564-10.534 2.584-10.596a.57.57 0 0 1 .693-.403c.3.083.486.383.403.693-.021.062-1.664 6.457-2.574 10.565-.992 4.501-5.871 9.83-10.026 12.386a.528.528 0 0 1-.3.082l.01-.02ZM502.538 347.511a.564.564 0 0 1-.114-1.117c2.853-.559 9.003-6.157 10.13-8.796 1.199-2.804 3.69-11.268 3.69-12.261 0-.311.259-.569.569-.569.31 0 .568.258.568.569 0 1.335-2.677 10.14-3.773 12.706-1.157 2.711-7.483 8.785-10.956 9.458-.031 0-.073.01-.104.01h-.01ZM508.546 350.325a.562.562 0 0 1-.537-.382.566.566 0 0 1 .351-.725c3.721-1.303 8.021-5.98 9.106-8.505 1.117-2.587 3.039-8.723 3.05-8.785a.57.57 0 1 1 1.085.341c-.083.259-1.964 6.25-3.091 8.889-1.147 2.68-5.633 7.688-9.778 9.136a.576.576 0 0 1-.186.031Z" fill="#C99565"/><path d="m211.983 445.989-55.734.166-.071-23.747 55.735-.166a3.88 3.88 0 0 1 3.887 3.869l.048 15.976a3.88 3.88 0 0 1-3.865 3.892v.01Z" fill="#6683C2"/><path d="m173.498 439.49-.031-10.648c0-1.19-.837-2.163-1.871-2.163l-63.6.197a.18.18 0 0 1-.155-.103c-.569-1.242-.548-2.618 0-4.098.031-.072.082-.114.155-.114l67.115-.207c1.023 0 1.86.963 1.871 2.163l.062 19.422c0 1.19-.827 2.162-1.861 2.173l-66.753.207c-.31 0-.589-.218-.693-.559-.351-1.076-.32-2.183.011-3.332.103-.341.382-.569.692-.569l63.198-.186c1.023 0 1.86-.973 1.86-2.173v-.01Z" fill="#92AEEA"/><path d="m120.137 430.291-10.13.031c.187-.528.435-.528.724-4.222l62.319-.186c.228 0 .3.973.31 1.231l.042 14.6c0 .259-62.991.228-62.991.228-.497-3.518-.621-3.684-.786-5.205l6.068-.155-5.923.021c-.166 0-.093-3.839.155-5.753l10.212-.6v.01Z" fill="#E6E6E6"/><path d="m172.007 431.18.021 6.943.01 1.552-2.728-.765-2.719.786v-1.552l-.021-6.943 5.437-.021Z" fill="#F3C55C"/><path d="M565.196 332.528c-1.788 13.793-15.06 23.106-28.777 20.933-13.717-2.173-23.082-15.077-20.901-28.808 2.171-13.73 15.061-23.105 28.777-20.922 13.717 2.183 22.234 18.512 20.911 28.807l-.01-.01Z" fill="#FCDCB5"/><path d="M603.361 385.786c3.307 30.959 4.031 61.308-37.388 61.308-31.578 0-40.002-23.313-38.266-58.97 1.706-35.005 11.929-71.335 31.01-62.219 21.149 10.099 41.295 28.642 44.644 59.881Z" fill="#FCDCB5"/><path d="M533.059 352.53a1.23 1.23 0 0 1-.589-.155 1.188 1.188 0 0 1-.434-1.625c7.473-12.996 15.319-16.918 23.371-20.094 8.321-3.281 11.029-1.542 11.494-1.159l-1.519 1.831s.02.021.062.041c-.021-.01-2.15-1.272-9.159 1.491-7.638 3.011-15.091 6.736-22.182 19.07-.217.383-.62.6-1.034.6h-.01Z" fill="#9E614B"/><path d="M627.764 509.293h-.29a6.463 6.463 0 0 1-6.171-6.737c0-.113.507-12.034-.093-24.771-1.033-21.885-4.837-25.714-7.762-27.245-4.342-2.09-22.079-4.863-39.052-6.333a6.457 6.457 0 0 1-5.871-6.994c.31-3.56 3.442-6.188 6.987-5.878 9.024.787 39.073 3.674 47.125 7.989 4.238 2.266 7.08 7.253 8.941 15.696 1.189 5.371 2.016 12.324 2.46 20.664.744 13.907.186 26.893.165 27.441a6.462 6.462 0 0 1-6.45 6.178l.011-.01ZM519.796 324.157l-8.321-10.73c-.889-1.149.031-2.804 1.468-2.659l13.324 1.345-6.471 12.044ZM550.773 307.156l-4.765-10.078c-.31-.869-1.54-.859-1.84 0l-4.207 9.054 10.812 1.014v.01ZM538.968 388.228c-4.103-.528-7.204-4.118-7.029-8.33.248-5.96-2.677-9.105-5.178-10.699-3.153-2.007-6.161-1.945-6.947-1.583-3.514 2.659-8.527 2.007-11.235-1.49-2.729-3.518-2.078-8.578 1.436-11.299 5.779-4.47 15.102-4.667 23.206-.476 9.758 5.039 15.298 14.848 14.823 26.23a8.049 8.049 0 0 1-8.383 7.709c-.238 0-.465-.031-.693-.062ZM551.589 434.905c-1.695 0-29.294-1.645-29.376 5.877-.093 7.523 3.535 6.178 13.644 6.178s26.017.093 26.017.093l-10.285-12.148Z" fill="#FCDCB5"/><path d="m126.453 79.975 24.25 45.187c9.489-14.373 21.417-17.27 43.02-20.529l-29.541-42.404c-22.4 4.284-29.511 6.684-37.719 17.746h-.01ZM193.722 104.622s17.065-28.869 38.586-25.527l-35.62-43.417s-9.716-1.283-19.36 6.88c-9.644 8.165-13.148 19.66-13.148 19.66l29.542 42.404Z" fill="#68CCEB"/><path d="M171.294 63.285a.37.37 0 0 1-.372-.373c0-3.787 3.804-10.44 10.171-15.035 5.995-4.325 9.365-5.64 14.44-5.64a.37.37 0 0 1 .372.373.37.37 0 0 1-.372.373c-4.941 0-8.083 1.231-14.006 5.505-6.088 4.387-9.861 10.906-9.861 14.424a.37.37 0 0 1-.372.373ZM175.13 68.975a.37.37 0 0 1-.372-.372c0-3.787 3.804-10.44 10.171-15.035 5.995-4.325 9.375-5.64 14.44-5.64a.37.37 0 0 1 .372.373.37.37 0 0 1-.372.373c-4.941 0-8.083 1.231-14.006 5.505-6.088 4.387-9.861 10.906-9.861 14.424a.37.37 0 0 1-.372.372ZM179.7 75.66a.371.371 0 0 1-.372-.373c0-3.787 3.804-10.44 10.171-15.035 5.996-4.325 9.365-5.639 14.44-5.639.207 0 .373.166.373.373a.371.371 0 0 1-.373.372c-4.94 0-8.083 1.232-14.006 5.505-6.088 4.387-9.861 10.906-9.861 14.424a.37.37 0 0 1-.372.373ZM184.028 82.468a.371.371 0 0 1-.372-.372c0-3.787 3.804-10.44 10.171-15.035 5.996-4.325 9.365-5.64 14.441-5.64.206 0 .372.166.372.373a.371.371 0 0 1-.372.373c-4.941 0-8.084 1.231-14.006 5.505-6.089 4.387-9.862 10.906-9.862 14.424a.37.37 0 0 1-.372.372ZM187.242 85.81l6.481 9.53s3.411-8.66 8.238-11.516l-6.429-9.281s-3.711 1.79-5.933 4.946c-1.861 2.638-2.346 6.312-2.346 6.312l-.011.01Z" fill="#57B8D6"/><path d="m469.254 102.888-7.988-6.632-34.9 42.126 7.988 6.632 34.9-42.126Z" fill="#EDB941"/><path d="m469.24 102.899-2.49-2.067-34.899 42.125 2.49 2.068 34.899-42.126ZM463.74 98.335l-2.49-2.067-34.899 42.125 2.49 2.068 34.899-42.126Z" fill="#F3C55C"/><path d="m469.256 102.881-7.99-6.632 7.494-2.99 3.328-1.325-.868 3.352-1.964 7.595Z" fill="#E5C3A5"/><path d="m471.176 95.338-2.449-2.038 3.328-1.335-.879 3.373Z" fill="#E6B340"/><path d="M426.334 138.404c-.33.673-8.806 7.781-3.907 12.168 4.993 4.481 11.898-5.525 11.898-5.525l-7.991-6.633v-.01Z" fill="#6683C2"/><path d="m67.238 135.862-5.754 8.646 45.499 30.341 5.754-8.646-45.499-30.341Z" fill="#E4AF9C"/><path d="m67.247 135.873-1.794 2.695 45.499 30.341 1.794-2.695-45.5-30.341Z" fill="#FBE8E2"/><path d="m63.278 141.817-1.794 2.696 45.499 30.341 1.794-2.695-45.499-30.342Z" fill="#E4AF9C"/><path d="m67.213 135.847-5.758 8.65-3.762-7.15-1.654-3.166 3.422.507 7.752 1.159Z" fill="#E5C3A5"/><path d="m59.512 134.729-1.767 2.649-1.675-3.167 3.442.518Z" fill="#877268"/><path d="M106.984 174.867c.703.258 8.642 7.957 12.497 2.618 3.928-5.443-6.739-11.269-6.739-11.269l-5.758 8.651Z" fill="#FCC583"/><path d="M339.205 51.547c-17.469 15.562-19.165 42.269-3.897 59.911l7.173-6.395 5.51-4.904 38.431-34.24 5.509-4.915 7.174-6.384c-15.732-17.229-42.421-18.646-59.9-3.073Zm4.196 40.934c-3.69-9.706-1.271-21.099 6.936-28.404 8.207-7.315 19.794-8.402 28.994-3.6l-35.93 32.014v-.01Z" fill="#DCF8C1"/><path d="M327.476 89.397a.51.51 0 0 1-.506-.424.526.526 0 0 1 .413-.61l4.207-.818a.521.521 0 1 1 .196 1.025l-4.207.817h-.103v.01ZM376.198 48.929c-.052 0-.103 0-.155-.021a.528.528 0 0 1-.341-.652l1.302-4.087a.528.528 0 0 1 .652-.342.53.53 0 0 1 .341.652l-1.303 4.087a.52.52 0 0 1-.496.363ZM343.187 58.169a.496.496 0 0 1-.383-.176l-3.524-3.963a.522.522 0 0 1 .041-.735.522.522 0 0 1 .734.042l3.525 3.963a.523.523 0 0 1-.042.734.544.544 0 0 1-.341.135h-.01ZM345.653 102.766a.496.496 0 0 1-.382-.176l-2.46-2.762a.523.523 0 0 1 .041-.735.522.522 0 0 1 .734.041l2.46 2.763a.523.523 0 0 1-.382.869h-.011ZM352.114 97.013a.496.496 0 0 1-.382-.176l-2.46-2.763a.523.523 0 0 1 .041-.734.522.522 0 0 1 .734.04l2.46 2.764a.523.523 0 0 1-.041.734.546.546 0 0 1-.341.135h-.011ZM358.567 91.26a.496.496 0 0 1-.382-.176l-2.46-2.763a.523.523 0 0 1 .041-.734.522.522 0 0 1 .734.041l2.46 2.763a.523.523 0 0 1-.041.734.546.546 0 0 1-.341.135h-.011ZM365.028 85.507a.496.496 0 0 1-.382-.176l-2.46-2.763a.523.523 0 0 1 .041-.735.522.522 0 0 1 .734.042l2.46 2.762a.523.523 0 0 1-.041.735.546.546 0 0 1-.341.135h-.011ZM371.474 79.754a.497.497 0 0 1-.383-.176l-2.46-2.763a.523.523 0 0 1 .041-.735.521.521 0 0 1 .734.042l2.46 2.763a.522.522 0 0 1-.382.869h-.01ZM377.927 74.01a.497.497 0 0 1-.383-.175l-2.46-2.763a.523.523 0 0 1 .042-.734.52.52 0 0 1 .733.04l2.461 2.764a.523.523 0 0 1-.383.869h-.01ZM384.38 68.257a.498.498 0 0 1-.383-.175l-2.46-2.763a.523.523 0 0 1 .042-.735.522.522 0 0 1 .734.041l2.46 2.763a.523.523 0 0 1-.383.87h-.01ZM390.841 62.505a.497.497 0 0 1-.383-.176l-2.46-2.763a.523.523 0 0 1 .042-.735.522.522 0 0 1 .734.042l2.46 2.762a.523.523 0 0 1-.383.87h-.01Z" fill="#83A4CE"/><path d="m595.51 63.735 8.011 3.042c0-.414-.207-.486.506-3.094l-49.274-18.75c-.176-.061-.496.58-.558.756l-3.773 9.944c-.062.176 49.791 18.977 49.791 18.977 1.292-2.256 1.437-2.328 1.954-3.311l-4.765-1.914 4.682 1.78c.124.051 1.054-2.588 1.354-3.974l-7.928-3.456Z" fill="#D9D4A7"/><path d="m550.927 54.07 2.749-7.253a1.574 1.574 0 0 1 2.037-.91L606 65.038s.103 0 .145-.031c.775-.683 1.106-1.625 1.054-2.794 0-.052-.041-.104-.093-.124l-53.068-20.198a1.581 1.581 0 0 0-2.036.91l-5.024 13.234c-.31.818.104 1.728.91 2.039l52.778 20.084c.248.093.517.02.693-.176.548-.63.816-1.397.847-2.276a.63.63 0 0 0-.403-.6l-49.967-19.019a1.576 1.576 0 0 1-.909-2.038v.02Z" fill="#7FCBB4"/><path d="m556.664 50.222-5.262 13.834-1.168 3.084 3.846-.3 2.646 2.773 1.168-3.084 5.261-13.834-6.491-2.473Z" fill="#F3C55C"/><path d="m547.406 57.775-20.25-35.015 4.435-10.213a4.241 4.241 0 0 1 5.602-2.183l48.344 21.45L607.11 62.09l-53.864-19.07-5.84 14.745v.01Z" fill="#7FCBB4"/><path d="M534.893 10.053a4.21 4.21 0 0 0-3.287 2.504l-4.434 10.213 20.249 35.015 5.84-14.745 1.013.363c-5.643-9.417-15.349-25.734-19.381-33.34v-.01Z" fill="#A2EBD5"/></g><defs><clipPath id="a"><path fill="#fff" d="M0 0h590v472H0z"/></clipPath></defs></svg>