<svg width="73" height="73" fill="none" xmlns="http://www.w3.org/2000/svg"><circle cx="36.5" cy="36.5" r="36.5" fill="#ABE2F3"/><path d="M57.636 37.78c-.093-.036-3.141-2.308-3.141-2.308s-.093 1.855-.244 1.82c-.15-.034-2.41-1.947-2.387-1.9.023.046 2.596 3.604 2.816 3.35.232-.256.417-1.508.417-1.508l2.099 1.96.44-1.415ZM58.701 28.61c-.116.047-4.961.8-4.961.8s1.623 1.762 1.46 1.878c-.162.116-3.976.464-3.906.487.058.023 5.657.87 5.633.429-.023-.44-1.008-1.739-1.008-1.739l3.698-.162-.916-1.693ZM54.018 22.85c-.046.069-2.62 2.271-2.62 2.271s1.589.452 1.542.58c-.058.127-2.167 1.715-2.12 1.704.045-.012 3.639-1.542 3.465-1.785-.174-.244-1.229-.661-1.229-.661l2.11-1.438-1.148-.672ZM15.975 38.625s-1.681.499-1.832.986c-.162.533.927 4.184 1.658 4.242.73.058 1.843-.626 1.843-.626l-1.67-4.602ZM21.135 44.618s2.202 9.668 2.4 10.294c.196.626 5.4.278 5.297-.197-.093-.464-1.322-1.252-1.276-1.878.047-.626.592-1.635.487-2.145-.092-.51-1.518-.973-1.379-1.796.15-.823.892-1.438.939-2.017.046-.591-.394-2.319-.394-2.319l-6.074.058Z" fill="#6683C2"/><path opacity=".3" d="M21.135 44.618s2.202 9.668 2.4 10.294c.196.626 5.4.278 5.297-.197-.093-.464-1.322-1.252-1.276-1.878.047-.626.592-1.635.487-2.145-.092-.51-1.518-.973-1.379-1.796.15-.823.892-1.438.939-2.017.046-.591-.394-2.319-.394-2.319l-6.074.058Z" fill="#000"/><path d="M17.016 42.972s-3.651-6.028 2.643-8.497l3.072 10.12c.011.011-4.254.88-5.715-1.623Z" fill="#6683C2"/><path d="M19.886 34.348s5.158-3.049 7.06-4.266c3.558-2.248 5.61-4.95 5.61-4.95l7.175 20.31s-6.828-.522-10.502-.754c-3.675-.232-6.943-.058-6.943-.058s-2.632-2.458-2.98-6.364c-.347-3.918.58-3.918.58-3.918Z" fill="#6683C2"/><path opacity=".7" d="M19.886 34.348s5.158-3.049 7.06-4.266c3.558-2.248 5.61-4.95 5.61-4.95l7.175 20.31s-6.828-.522-10.502-.754c-3.675-.232-6.943-.058-6.943-.058s-2.632-2.458-2.98-6.364c-.347-3.918.58-3.918.58-3.918Z" fill="#fff"/><path d="M44.308 46.966c4.842-1.142 7.312-8.235 5.517-15.843-1.795-7.608-7.174-12.85-12.016-11.708-4.841 1.142-7.311 8.236-5.516 15.844 1.794 7.608 7.174 12.85 12.015 11.707Z" fill="#6683C2"/><path opacity=".3" d="M44.195 44.63c3.62-.853 5.348-6.662 3.859-12.974-1.49-6.312-5.63-10.737-9.251-9.883-3.62.854-5.348 6.663-3.859 12.975 1.49 6.312 5.63 10.737 9.251 9.883Z" fill="#000"/><path d="M35.055 26.037c1.194-.325 3.095 1.055 4.254 2.376 3.616 4.138 4.103 10.734 1.182 15.382-4.636-2.92-7.372-11.615-5.436-17.758Z" fill="#000" opacity=".3"/><path d="M19.64 44.63s1.82 10.004 1.983 10.653c.162.649 4.451.278 4.37-.197-.081-.476-1.09-1.299-1.055-1.936.035-.65.487-1.693.406-2.226-.081-.521-1.252-1.008-1.136-1.854.116-.847.73-1.484.776-2.099.035-.602-.324-2.399-.324-2.399l-5.02.058ZM34.94 34.742c.37 1.577.915 3.049 1.564 4.336.36-.163 6.84-3.072 7.025-3.27.197-.196-1.542-6.05-1.542-6.05l-7.58 1.252c.069 1.205.231 2.457.533 3.732Z" fill="#6683C2"/><path opacity=".7" d="M34.94 34.742c.37 1.577.915 3.049 1.564 4.336.36-.163 6.84-3.072 7.025-3.27.197-.196-1.542-6.05-1.542-6.05l-7.58 1.252c.069 1.205.231 2.457.533 3.732Z" fill="#fff"/><path d="M43.475 35.797c.947-.224 1.396-1.758 1.002-3.428-.394-1.67-1.481-2.843-2.428-2.62-.947.224-1.396 1.759-1.002 3.429.394 1.67 1.481 2.842 2.428 2.619Z" fill="#6683C2"/><path d="M25.254 47.481a93.39 93.39 0 0 1 1.786-.197c.092-.012.174-.07.174-.174 0-.081-.082-.185-.174-.174-.592.07-1.195.14-1.786.197-.093.012-.174.07-.174.174 0 .081.081.186.174.174ZM25.627 50.773c.719-.07 1.45-.127 2.18-.162.22-.011.22-.36 0-.348-.73.035-1.45.093-2.18.163-.093.011-.174.07-.174.173 0 .093.081.186.174.175Z" fill="#000" opacity=".3"/><path d="M25.26 44.583c-.08.012.244 2.03.604 2.053.359.023 2.33-.07 2.342-.244.023-.406-.464-1.785-.464-1.785s-1.89-.14-2.481-.024Z" fill="#263238"/><path d="M14.473 40.967c.197-.046.406-.104.603-.15.092-.024.15-.128.116-.21-.035-.092-.116-.138-.209-.115-.197.046-.406.104-.603.15-.093.024-.15.128-.116.21.035.08.116.139.209.115ZM14.652 41.65c.198-.046.406-.104.604-.15.092-.023.15-.127.115-.209-.034-.092-.116-.139-.208-.116-.197.047-.406.105-.603.151-.093.023-.151.128-.116.209.023.081.116.139.208.116ZM14.92 42.335c.197-.047.406-.105.603-.15.093-.024.15-.128.116-.21-.035-.092-.116-.139-.209-.116-.197.047-.406.105-.603.151-.092.023-.15.128-.116.209.024.093.116.139.21.116ZM15.215 43.065c.197-.046.406-.104.603-.15.093-.024.15-.128.116-.21-.035-.092-.116-.138-.209-.115-.197.046-.406.104-.603.15-.092.024-.15.128-.116.21.024.092.116.138.209.115Z" fill="#000" opacity=".3"/><path opacity=".3" d="M20.03 34.893s-.51 3.35.556 4.718c1.079 1.379 11.465-2.91 11.465-2.91s-1.809-4.44-.87-7.824c.29-1.055.348-1.438.162-1.38-.405.128-1.912 2.18-5.17 3.918-2.213 1.183-6.143 3.478-6.143 3.478Z" fill="#fff"/><path opacity=".3" d="m19.64 44.618.186 1.009s8.056.058 8.149-.302l-.243-.718c-1.322-.128-4.834-.047-8.091.011ZM38.4 38.231c-2.052-3.13-2.272-6.549-2.295-7.488l-1.681.278c.046 1.206.22 2.458.522 3.733.37 1.576.915 3.048 1.564 4.335.116-.058.893-.406 1.89-.858ZM15.974 38.625c.325 1.693.753 3.292 1.356 4.776l-.301.15c-.15.07-1.693-4.717-1.472-4.787l.417-.139Z" fill="#000"/><path opacity=".1" d="M39.995 22.443c-.174-.034-1.727 3.095-1.588 3.547.128.453 2.156 2.933 2.655 2.933.498 0 4.787-.197 4.787-.73 0-.533-2.144-4.973-5.854-5.75ZM43.84 37.385s-1.263 4.266-1.077 4.637c.185.37 3.141.08 3.802-.615.672-.683 1.39-4.08 1.333-4.636-.047-.557-4.057.614-4.057.614Z" fill="#fff"/><path d="M24.972 54.38c-.116-.383-.626-.43-.789-.754-.197-.406.22-.858.186-1.299-.023-.29-.244-.522-.499-.66-.255-.129-.545-.175-.834-.21-.453-.058-1.032-.104-1.427.14.012.684.232 1.53.43 2.18.08.278.196.556.417.742.197.162.475.231.73.266.453.07.905.081 1.357.035.162-.012.348-.046.417-.209a.324.324 0 0 0 .012-.232Z" fill="#fff" opacity=".2"/></svg>