<svg width="76" height="76" fill="none" xmlns="http://www.w3.org/2000/svg"><circle cx="38" cy="38" r="38" fill="#ABE2F3"/><path d="M49.14 38.21c-3.031 0-5.881-1.181-8.025-3.325a11.276 11.276 0 0 1-3.324-8.025c0-3.032 1.18-5.882 3.324-8.025a11.275 11.275 0 0 1 8.026-3.325c3.031 0 5.881 1.181 8.025 3.325a11.275 11.275 0 0 1 3.324 8.025c0 3.032-1.18 5.882-3.324 8.025a11.275 11.275 0 0 1-8.025 3.325Z" fill="#777"/><path d="M41.11 34.885a11.274 11.274 0 0 0 8.025 3.324c3.031 0 5.881-1.18 8.025-3.324a11.275 11.275 0 0 0 3.324-8.025c0-3.032-1.18-5.882-3.324-8.026L41.11 34.885Z" fill="#585858"/><path d="M56.846 35.914a1.334 1.334 0 0 1-.948-.393L40.48 20.103a1.34 1.34 0 0 1 1.896-1.896l15.418 15.418a1.34 1.34 0 0 1-.948 2.289Z" fill="#A3A3A3"/><path d="m57.786 33.625-7.709-7.708-1.895 1.895 7.708 7.709a1.338 1.338 0 0 0 1.896 0 1.34 1.34 0 0 0 0-1.896Z" fill="#7B7B7B"/><path d="M16.075 61.264a1.334 1.334 0 0 1-.948-.393 1.34 1.34 0 0 1 0-1.896l2.597-2.597a1.34 1.34 0 0 1 1.896 1.896l-2.597 2.597a1.337 1.337 0 0 1-.948.393Z" fill="#6683C2"/><path d="m19.624 56.378-4.493 4.493a1.335 1.335 0 0 0 .947.392c.344 0 .687-.13.948-.392l2.597-2.597a1.34 1.34 0 0 0 0-1.896Z" fill="#47629E"/><path d="M20.837 59.565a4.377 4.377 0 0 1-3.116-1.29 4.412 4.412 0 0 1 0-6.233l3.613-3.614a1.341 1.341 0 0 1 1.896 0l4.337 4.337a1.34 1.34 0 0 1 0 1.895l-3.614 3.614a4.378 4.378 0 0 1-3.116 1.291Z" fill="#777"/><path d="m27.567 52.764-2.168-2.168-7.678 7.678a4.377 4.377 0 0 0 3.116 1.29 4.377 4.377 0 0 0 3.116-1.29l3.614-3.615a1.34 1.34 0 0 0 0-1.895Z" fill="#585858"/><path d="M37.783 26.963 21.28 46.183a3.142 3.142 0 0 0 .161 4.249l4.12 4.119a3.124 3.124 0 0 0 2.213.911c.725 0 1.452-.248 2.036-.75l19.218-16.504-11.244-11.244Z" fill="#FFDB89"/><path d="m23.504 52.492 2.06 2.06a3.124 3.124 0 0 0 2.213.91c.725 0 1.452-.248 2.036-.75L49.03 38.21l-5.622-5.623-19.905 19.906Z" fill="#F2C45B"/><path d="M35.352 41.979a1.334 1.334 0 0 1-.948-.393 1.34 1.34 0 0 1 0-1.896l2.078-2.078a1.34 1.34 0 1 1 1.896 1.896L36.3 41.586a1.335 1.335 0 0 1-.948.393Z" fill="#777"/><path d="m38.38 37.613-3.974 3.974a1.338 1.338 0 0 0 1.896 0l2.078-2.079a1.34 1.34 0 0 0 0-1.895Z" fill="#585858"/></svg>