<svg width="90" height="90" fill="none" xmlns="http://www.w3.org/2000/svg"><circle cx="45" cy="45" r="45" fill="#ABE2F3"/><path d="M34.85 49.771H27.45a2.177 2.177 0 0 0-2.178 2.177V68.41c0 1.203.975 2.178 2.178 2.178h7.402a2.177 2.177 0 0 0 2.177-2.178V51.948a2.177 2.177 0 0 0-2.177-2.177Z" fill="#F2C45B"/><path d="M28.368 68.41V51.948c0-1.202.975-2.177 2.177-2.177H27.45a2.177 2.177 0 0 0-2.178 2.177V68.41c0 1.203.975 2.178 2.178 2.178h3.096a2.177 2.177 0 0 1-2.177-2.178Z" fill="#E2B348"/><path d="M50.812 42.221H43.41a2.177 2.177 0 0 0-2.178 2.177V68.41c0 1.203.975 2.178 2.178 2.178h7.402a2.177 2.177 0 0 0 2.177-2.178V44.398a2.177 2.177 0 0 0-2.177-2.177Z" fill="#F37E60"/><path d="M44.333 68.41V44.398c0-1.202.975-2.177 2.177-2.177h-3.096a2.177 2.177 0 0 0-2.178 2.177V68.41c0 1.203.975 2.178 2.178 2.178h3.096a2.177 2.177 0 0 1-2.177-2.178Z" fill="#D97056"/><path d="M66.777 34.67h-7.403a2.177 2.177 0 0 0-2.177 2.178V68.41c0 1.203.975 2.178 2.177 2.178h7.403a2.177 2.177 0 0 0 2.177-2.178V36.848a2.177 2.177 0 0 0-2.177-2.177Z" fill="#68CCEA"/><path d="M60.294 68.41V36.848c0-1.202.975-2.177 2.177-2.177h-3.096a2.177 2.177 0 0 0-2.178 2.177V68.41c0 1.203.975 2.178 2.177 2.178h3.097a2.177 2.177 0 0 1-2.177-2.178Z" fill="#56B2CE"/><path d="m68.838 19.295-7.478.975 1.807 2.417-6.403 4.788-3.369-2.97a1.618 1.618 0 0 0-2.038-.082L37.035 35.131l-3.35-2.51a1.618 1.618 0 0 0-1.94 0l-11.54 8.628 1.938 2.591 10.57-7.903 3.35 2.51a1.618 1.618 0 0 0 1.94 0L52.24 27.803l3.369 2.97a1.617 1.617 0 0 0 2.038.082l7.457-5.575 1.81 2.42 3.048-6.9a1.078 1.078 0 0 0-1.125-1.504Z" fill="#7FCBB4"/></svg>