<svg width="273" height="193" fill="none" xmlns="http://www.w3.org/2000/svg"><path opacity=".66" d="M138.908 176.563c74.056 0 134.091-3.293 134.091-7.355 0-4.063-60.035-7.356-134.091-7.356-74.057 0-134.092 3.293-134.092 7.356 0 4.062 60.035 7.355 134.092 7.355Z" fill="#A6A6A6" fill-opacity=".3"/><path d="M258.895 57.272v103.08a4.7 4.7 0 0 1-4.037 4.644 4.706 4.706 0 0 1-.659.051H137.397c-2.595 0-4.706-2.106-4.706-4.695V57.272a4.7 4.7 0 0 1 4.706-4.694h116.792c.226 0 .443.02.659.051a4.691 4.691 0 0 1 4.047 4.643Z" fill="#E2A397"/><path d="M141.648 158.38h110.264V48.499H141.648V158.38Z" fill="#F37E60"/><path d="M141.648 48.5h110.264V43.31c0-3.328-2.709-6.03-6.045-6.03h-98.164c-3.336 0-6.044 2.702-6.044 6.03V48.5h-.011Z" fill="#E2907F"/><path d="M169.718 48.499h-1.988V158.38h1.988V48.499Z" fill="url(#a)"/><path d="M141.648 130.386v1.972h110.264v-1.972H141.648Z" fill="url(#b)"/><path d="M141.648 102.392v1.972h110.264v-1.972H141.648Z" fill="url(#c)"/><path d="M141.648 74.52v1.973h110.264v-1.972H141.648Z" fill="url(#d)"/><path d="M197.778 48.499h-1.987V158.38h1.987V48.499Z" fill="url(#e)"/><path d="M225.839 48.499h-1.987V158.38h1.987V48.499Z" fill="url(#f)"/><path d="M251.916 132.358s-.021 12.04-2.852 22.252l-6.035 3.77h-21.263c4.036-10.725 4.067-26.022 4.067-26.022h26.083Z" fill="#F2C45B"/><path d="M243.041 158.38v-3.853h6.024l-6.024 3.853Z" fill="#D98C48"/><path d="M223.852 104.364s-.021 12.04-2.853 22.251l-6.034 3.771h-21.264c4.037-10.725 4.068-26.022 4.068-26.022h26.083Z" fill="#F2C45B"/><path d="M214.977 130.386v-3.853H221l-6.023 3.853Z" fill="#D98C48"/><path d="M223.852 48.5s-.021 12.04-2.853 22.25l-6.034 3.771h-21.264c4.037-10.725 4.068-26.022 4.068-26.022h26.083Z" fill="#F2C45B"/><path d="M214.977 74.521v-3.852H221l-6.023 3.852Z" fill="#D98C48"/><path d="M195.795 76.493s-.021 12.04-2.852 22.252l-6.035 3.77h-21.263c4.036-10.725 4.067-26.022 4.067-26.022h26.083Z" fill="#F2C45B"/><path d="M186.92 102.515v-3.852h6.024l-6.024 3.852Z" fill="#D98C48"/><path d="M181.858 94.286a.608.608 0 0 1-.608-.606v-8.362c0-.34.268-.606.608-.606.339 0 .607.267.607.606v8.373a.6.6 0 0 1-.607.595Z" fill="#A3A3A3"/><path d="m237.457 120.667-3.789-3.297a.744.744 0 0 1-.072-1.048.748.748 0 0 1 1.05-.072l2.678 2.332 3.82-4.253a.749.749 0 0 1 1.05-.062c.309.277.33.75.062 1.048l-4.799 5.352Z" fill="#FFDF69"/><path d="M115.176 172.865c39.945 0 72.328-32.306 72.328-72.158 0-39.852-32.383-72.158-72.328-72.158-39.946 0-72.328 32.306-72.328 72.158 0 39.852 32.382 72.158 72.328 72.158Z" fill="#F2C45B"/><path d="M48.798 104.662c0 23.782 11.533 44.883 29.327 58.033-21.13-12.606-35.29-35.648-35.29-61.988 0-39.85 32.386-72.158 72.329-72.158 16.105 0 30.984 5.25 43.012 14.136-10.833-6.462-23.509-10.181-37.05-10.181-39.953 0-72.328 32.309-72.328 72.158Z" fill="#FFDB89"/><path d="M161.433 146.851c25.547-25.487 25.547-66.81 0-92.297-25.548-25.487-66.968-25.487-92.515 0-25.548 25.487-25.548 66.81 0 92.297 25.547 25.488 66.967 25.488 92.515 0Z" fill="#FFF2F2"/><path d="M135.171 94.8c.947-2.014 1.328-11.989 1.328-11.989l-2.059-.257s-.165 2.692-1.74 6.955c-.474 1.274-.999 3.329-1.102 3.544-.093.216-6.395 4.726-7.867 5.558-.69.39-2.183 1.387-3.141 2.589-.958 1.202-.278 2.64-.278 2.64 2.595 2.681 6.405-1.572 6.405-1.572s6.714-3.811 8.454-7.468Z" fill="#EEA886"/><path d="M116.102 40.568h-1.864v6.75h1.864v-6.75ZM116.102 154.086h-1.864v6.749h1.864v-6.749ZM175.447 101.632v-1.86h-6.765v1.86h6.765Z" fill="#8B84AB"/><path d="M134.923 84.691s-.474-.4-.659-.78c-.144-.309-.577-.7-.793-.925-.206-.226-.885-1.438-1.009-1.746-.051-.124-.175-.853-.299-1.1-.133-.236-.453-.698-.236-.801.216-.103.628.226.628.226s-.103-.226.051-.38c.319-.288.567-.195.567-.195s.051-.298.206-.39c.36-.196.597-.103.597-.103s.113-.196.381-.278c.34-.102.587.154.587.154s.432-.133.628.031c.196.165.216.288.34.462.113.165.803 1.695.659 3.041-.134 1.346-.196 3.133-.196 3.133l-1.452-.349Z" fill="#EEA886"/><path d="M61.662 101.632v-1.86h-6.765v1.86h6.765ZM157.131 143.881l1.318-1.315-4.784-4.772-1.317 1.314 4.783 4.773ZM76.68 63.614l1.318-1.315-4.784-4.773-1.318 1.315 4.784 4.773ZM71.893 142.569l1.318 1.314 4.784-4.772-1.318-1.315-4.784 4.773ZM152.35 62.298l1.318 1.315 4.784-4.773-1.318-1.315-4.784 4.773Z" fill="#8B84AB"/><path d="M115.178 157.548c-15.219 0-29.532-5.918-40.293-16.653-10.76-10.735-16.692-25.005-16.692-40.188 0-15.184 5.932-29.463 16.692-40.199 10.76-10.735 25.074-16.652 40.293-16.652 15.22 0 29.533 5.917 40.294 16.652 10.76 10.736 16.692 25.015 16.692 40.199 0 15.183-5.932 29.463-16.692 40.198-10.771 10.725-25.074 16.643-40.294 16.643Zm0-113.518c-31.324 0-56.81 25.426-56.81 56.677s25.486 56.676 56.81 56.676c31.325 0 56.811-25.425 56.811-56.676-.011-31.25-25.497-56.677-56.811-56.677Z" fill="#8B84AB"/><path d="M75.746 100.419c3.285-.318 6.57-.534 9.865-.709 3.285-.174 6.57-.308 9.854-.41 3.285-.093 6.57-.175 9.855-.206 1.647-.02 3.285-.031 4.932-.031 1.648-.01 3.285 0 4.933 0l-1.174.473a749.27 749.27 0 0 1 8.217-8.034c2.77-2.65 5.54-5.29 8.361-7.89a508.824 508.824 0 0 1 8.516-7.725l2.163-1.9c.731-.627 1.452-1.264 2.183-1.88a191.292 191.292 0 0 1 4.417-3.699 216.832 216.832 0 0 1-3.748 4.376c-.628.72-1.277 1.439-1.905 2.158l-1.926 2.137a500.338 500.338 0 0 1-7.826 8.424 608.08 608.08 0 0 1-7.99 8.26 758.187 758.187 0 0 1-8.125 8.115l-.494.483-.68-.011c-1.647-.02-3.284-.03-4.932-.071a789.884 789.884 0 0 1-4.922-.103c-3.285-.082-6.57-.206-9.855-.339-3.285-.154-6.57-.329-9.854-.555-3.295-.236-6.58-.503-9.865-.863Z" fill="#66607D"/><path opacity=".69" d="M160.987 62.245c-9.731-6.853-21.604-10.87-34.424-10.87-33.013 0-59.786 26.7-59.786 59.646 0 14.875 5.457 28.477 14.488 38.925-15.343-10.797-25.372-28.621-25.372-48.777 0-32.935 26.762-59.645 59.786-59.645 18.112 0 34.341 8.033 45.308 20.72Z" fill="#fff"/><path d="M211.045 29.925s7.856 2.846 15.765 9.74l-9.082 6.739s-7.157-7.038-14.962-10.53l8.279-5.949Z" fill="url(#g)"/><path d="M221.094 80.777s4.366-13.745 15.765-27.86L249.174 68.1s-11.687 12.841-17.175 26.546l-10.905-13.869Z" fill="url(#h)"/><path d="M154.326 69.99s-10.019-9.985-16.836-26.792l19.699-5.218s5.53 16.529 14.952 27.562l-17.815 4.448Z" fill="url(#i)"/><path d="M149.168 0s-8.351 6.513-16.188 20.598l13.356 6.687s8.876-16.498 16.404-22.087L149.168 0Z" fill="url(#j)"/><path d="M166.951 21.204s8.279-1.15 18.504 1.263l-4.871 10.191s-9.628-2.876-18.164-2.322l4.531-9.132Z" fill="url(#k)"/><path d="m24.917 118.572-.206-.38c.01-.011 1.205-.668 2.894-1.891l.257.35c-1.72 1.243-2.935 1.921-2.945 1.921Zm5.663-4.099-.288-.329a34.392 34.392 0 0 0 2.482-2.394l.319.298a33.208 33.208 0 0 1-2.513 2.425Zm4.758-5.096-.35-.257c.7-.945 1.328-1.91 1.874-2.876l.38.205a24.793 24.793 0 0 1-1.904 2.928Zm3.367-6.102-.412-.144c.391-1.089.69-2.198.886-3.297l.432.072a20.17 20.17 0 0 1-.906 3.369Zm.741-6.852c-.02-1.12-.144-2.27-.36-3.4l.422-.083c.227 1.161.35 2.332.37 3.473l-.432.01Zm-1.297-6.698a25.351 25.351 0 0 0-1.41-3.133l.38-.206a24.063 24.063 0 0 1 1.431 3.185l-.401.154Zm-3.192-6.072c-.237-.349-.484-.698-.752-1.058a39.82 39.82 0 0 1-1.246-1.787l.36-.237c.392.586.804 1.182 1.226 1.767.268.36.515.72.752 1.069l-.34.246Zm-3.77-5.835a39.881 39.881 0 0 1-1.492-3.153l.401-.165a34.241 34.241 0 0 0 1.473 3.113l-.381.205Zm-2.656-6.43c-.33-1.12-.607-2.26-.813-3.39l.422-.083c.206 1.12.474 2.24.803 3.339l-.412.133Zm-1.256-6.853c-.051-.74-.082-1.49-.082-2.229 0-.421.01-.842.02-1.264l.433.021c-.02.41-.02.822-.02 1.243 0 .73.03 1.47.081 2.198l-.432.031Zm.71-6.883-.432-.061c.175-1.14.422-2.291.731-3.411l.422.113c-.298 1.1-.546 2.23-.72 3.36Zm1.833-6.616-.401-.164a29.412 29.412 0 0 1 1.493-3.154l.38.206a31.808 31.808 0 0 0-1.472 3.112Zm3.306-6.01-.35-.256c.68-.956 1.42-1.86 2.203-2.702l.32.298a26.044 26.044 0 0 0-2.173 2.66Zm4.664-5.033-.278-.329a25.76 25.76 0 0 1 2.843-2.044l.226.37a24.788 24.788 0 0 0-2.79 2.003Zm5.839-3.585-.165-.401a20.666 20.666 0 0 1 3.326-1.1l.103.422a22.082 22.082 0 0 0-3.264 1.079Zm6.642-1.603-.031-.431.515-.031a33.506 33.506 0 0 0 2.934-.247l.052.432c-.958.123-1.956.205-2.966.257-.175 0-.34.01-.504.02Zm6.899-.914-.103-.422a27.732 27.732 0 0 0 3.285-1.017l.154.401c-1.06.4-2.183.75-3.336 1.038Zm6.508-2.507-.206-.38a24.636 24.636 0 0 0 2.883-1.86l.258.35a24.647 24.647 0 0 1-2.935 1.89Zm5.58-4.181-.308-.308a22.343 22.343 0 0 0 2.235-2.61l.35.257a23.205 23.205 0 0 1-2.276 2.661Zm4.13-5.63-.391-.195c.38-.74.546-1.202.556-1.222l.412.143c-.02.052-.196.524-.577 1.274Z" fill="#EDDAD3"/><path d="M90.442 4.448 75.676 18.265l1.452-5.897 13.314-7.92Z" fill="#D6D6D6"/><path d="M90.439 4.448 80.46 6.975l-1.503 4.305 11.482-6.832Z" fill="#E8E8E8"/><path d="m79.076 15.08 2.008 1.018 9.36-11.65-11.368 10.633Z" fill="#C2C2C2"/><path d="M220.679 52.156h-19.74a.332.332 0 0 1-.33-.328v-.206c0-.174.145-.328.33-.328h19.74c.175 0 .329.143.329.328v.206a.338.338 0 0 1-.329.328ZM213.111 55.875H200.58a.331.331 0 0 1-.33-.328v-.206c0-.175.144-.329.33-.329h12.531c.175 0 .33.144.33.33v.205a.332.332 0 0 1-.33.328ZM215.047 59.594h-14.962a.331.331 0 0 1-.329-.329v-.205c0-.175.144-.329.329-.329h14.962c.175 0 .33.144.33.329v.205a.339.339 0 0 1-.33.33ZM220.856 107.693H200.9a.21.21 0 0 1-.216-.216v-.421a.21.21 0 0 1 .216-.216h19.956a.21.21 0 0 1 .216.216v.421a.217.217 0 0 1-.216.216ZM209.808 111.412h-9.268a.211.211 0 0 1-.216-.216v-.421a.21.21 0 0 1 .216-.216h9.268a.21.21 0 0 1 .216.216v.421a.218.218 0 0 1-.216.216ZM216.244 115.13h-16.198a.21.21 0 0 1-.216-.215v-.422a.21.21 0 0 1 .216-.215h16.198a.21.21 0 0 1 .216.215v.422a.21.21 0 0 1-.216.215ZM245.722 135.615h-16.609a.325.325 0 0 1-.33-.329v-.195c0-.185.144-.329.33-.329h16.609c.186 0 .33.144.33.329v.195a.332.332 0 0 1-.33.329ZM237.921 139.334h-9.299a.325.325 0 0 1-.329-.329v-.195c0-.185.144-.329.329-.329h9.299c.185 0 .329.144.329.329v.195c.011.185-.144.329-.329.329ZM239.905 143.052H227.97a.324.324 0 0 1-.329-.328v-.196c0-.184.144-.328.329-.328h11.935c.185 0 .329.144.329.328v.196a.33.33 0 0 1-.329.328Z" fill="#fff"/><path d="M258.896 57.272v103.08a4.7 4.7 0 0 1-4.037 4.644V52.619c2.276.328 4.037 2.28 4.037 4.653Z" fill="#CF8171"/><path d="M74.077 147.788v21.409H16.042a4.02 4.02 0 0 1-4.026-4.016v-13.376c0-.113.01-.216.01-.329a4.012 4.012 0 0 1 3.625-3.667c.133-.01.257-.021.39-.021h58.036Z" fill="#68CAE8"/><path d="M85.037 147.788v2.209h-1.02v17.002h1.02v2.209H42.92a4.021 4.021 0 0 1-4.026-4.017v-13.376c0-.113.01-.215.01-.328a4.014 4.014 0 0 1 3.645-3.668 4.6 4.6 0 0 1 .37-.02h42.117v-.011Z" fill="#3CA5C5"/><path d="M84.014 166.999H45.955a3.972 3.972 0 0 1-3.974-3.965v-9.072a3.972 3.972 0 0 1 3.974-3.965h38.059v17.002Z" fill="url(#l)"/><path d="M77.272 158.411H60.889v.422h16.383v-.422Z" fill="url(#m)"/><path d="M70.712 159.695H53.217v.422h17.495v-.422Z" fill="url(#n)"/><path d="M10.945 147.85h57.881c2.307 0 4.181-1.87 4.181-4.171v-8.188a4.178 4.178 0 0 0-4.18-4.17H10.944v16.529Z" fill="#7FCBB4"/><path d="M46.142 135.491v8.188a4.179 4.179 0 0 1-4.18 4.171H0v-1.705h1.02v-13.129H0v-1.706h41.961a4.174 4.174 0 0 1 4.181 4.181Z" fill="#5CB59A"/><path d="M1.02 146.155h38.635c2.306 0 4.17-1.86 4.17-4.161v-4.818a4.16 4.16 0 0 0-4.17-4.16H1.02v13.139Z" fill="url(#o)"/><path d="M7.766 139.848h16.372v-.33H7.766v.33Z" fill="url(#p)"/><path d="M14.324 140.834H31.82v-.319H14.324v.319Z" fill="url(#q)"/><path d="M88.938 131.321H22.16a2.599 2.599 0 0 1-2.605-2.599v-6.246c0-1.439 1.163-2.6 2.605-2.6h66.788v11.445h-.01Z" fill="#68CAE8"/><path d="M98.875 121.048v9.091h1.019v1.182h-43.63a2.507 2.507 0 0 1-2.512-2.507v-6.431a2.507 2.507 0 0 1 2.512-2.507h43.62v1.182h-1.01v-.01Z" fill="#3CA5C5"/><path d="M98.874 130.139H58.282a2.506 2.506 0 0 1-2.512-2.506v-4.069a2.506 2.506 0 0 1 2.512-2.506h40.582v9.081h.01Z" fill="url(#r)"/><path d="M92.129 122.989H75.746v.33H92.13v-.33Z" fill="url(#s)"/><path d="M85.561 126.235H68.066v.227h17.495v-.227Z" fill="url(#t)"/><path d="M203.597 136.58s-8.547 1.274-21.027 7.89c-12.47 6.606 9.772 1.993 21.027-7.89Z" fill="#86B9A9"/><path d="M180.882 145.436s6.209-11.794 15.847-17.187c0 0-2.801 8.188-12.974 16.981-10.174 8.794-2.873.206-2.873.206Z" fill="#7FCBB4"/><path d="M175.928 137.361s-6.405-7.807-8.969-11.362c-2.564-3.554 5.376 16.612 6.035 18.738.659 2.137 3.367 3.986 2.934-7.376ZM182.043 149.432c2.842-4.263 4.84-23.433 4.84-23.433-4.984 4.12-9.68 22.632-9.68 22.632s1.998 5.064 4.84.801Z" fill="#60B59C"/><path d="M181.404 147.501c.854-1.808-.288-25.313-.968-23.187-.68 2.127-4.562 10.931-4.562 10.931-.576 5.342 4.675 14.064 5.53 12.256ZM174.846 142.292c-1.514-2.743-16.424-17.423-16.424-17.423.144 4.541 9.391 15.338 9.391 15.338s8.547 4.818 7.033 2.085Z" fill="#85B9A9"/><path d="M182.043 149.124c-17.227-6.328-33.445-3.041-33.445-3.041 2.368 3.246 24.909 3.041 24.909 3.041h8.536Z" fill="#7FCBB4"/><path d="M178.439 149.679c-8.752-9.513-29.388-14.095-29.388-14.095 6.096 6.215 14.848 11.66 14.848 11.66s23.293 11.947 14.54 2.435Z" fill="#55B497"/><path d="M180.201 148.641c-5.128-9.451-24.631-18.8-24.631-18.8 0 2.979 15.807 16.858 15.807 16.858s13.942 11.393 8.824 1.942Z" fill="#8ED4BF"/><path d="M180.057 149.576c3.841-.699 18.071-14.629 18.071-14.629-3.696.709-18.071 9.79-18.071 9.79s-3.841 5.537 0 4.839Z" fill="#8ED4BF"/><path d="M186.883 149.637c4.84.206 20.358-9.43 20.358-9.43-4.644 0-15.302 2.804-20.512 4.263a7.687 7.687 0 0 0-4.634 3.626c-2.77 4.89.577 1.357 4.788 1.541Z" fill="#55B497"/><path d="M204.823 145.446c-1.441-.113-10.76.298-14.756.483a7.091 7.091 0 0 0-4.304 1.685c-1.73 1.489-1.215 2.599 1.133 3.082 3.13.637 19.781-5.096 17.927-5.25Z" fill="#B2EBDA"/><path d="M179.654 147.963c.34-1.459.401-2.969.195-4.448-.679-5.055-3.037-20.721-6.487-23.094 0 0-1.565 20.289 1.71 27.121 2.45 5.116 3.923 3.226 4.582.421Z" fill="#7FCBB4"/><path d="M179.621 150.747c1.956-1.86 9.937-19.92 9.937-19.92-7.466 4.356-10.792 13.191-10.792 13.191s-1.102 8.588.855 6.729Z" fill="#97D5C2"/><path d="m161.242 152.124 2.472 15.954h29.038l2.461-15.954h-33.971Z" fill="#44626C"/><path d="M195.213 152.124h-33.971l2.461 15.964h6.107s5.22-10.222 24.682-11.342l.721-4.622Z" fill="#2E454D"/><path d="M196.563 148.682h-36.659v5.332h36.659v-5.332Z" fill="#51595C"/><path d="M93.293 65.624h19.606v17.783l-2.997-3.092H93.293v-14.69Z" fill="#F2C45B"/><path d="m103.172 74.264-2.018-.873a.327.327 0 0 1-.165-.432.328.328 0 0 1 .432-.164l1.432.616 1.029-2.28a.327.327 0 0 1 .598.267l-1.308 2.866Z" fill="#fff"/><path d="M105.463 76.185a4.14 4.14 0 0 1-5.746-.996 4.118 4.118 0 0 1 .999-5.733 4.14 4.14 0 0 1 5.746.997c1.318 1.849.864 4.427-.999 5.732Zm-4.408-6.256a3.53 3.53 0 0 0-.865 4.91 3.55 3.55 0 0 0 4.923.863 3.53 3.53 0 0 0 .865-4.91c-1.113-1.603-3.326-1.983-4.923-.863Z" fill="#fff"/><path d="M128.924 159.479s-.968 1.777-1.102 2.044c-.134.267-2.945-1.284-2.945-1.284l.587-2.322s3.192 1.161 3.46 1.562Z" fill="#424773"/><path d="M127.945 161.287s.525 1.48 1.257 2.312c.731.832 3.933 2.475 4.283 3.184.258.514.35 2.23-4.932.124-3.748-1.5-5.695-1.86-5.88-2.61-.175-.76 2.255-4.263 2.255-4.263s.711.657 3.017 1.253ZM100.525 169.043s-.783 2.743-1 3.678c-.215.925.114 3.359-.112 4.284-.217.924-.752 1.191-1.184 1.068a5.068 5.068 0 0 1-2.472-1.592c-.937-1.11-.566-3.144-.68-4.448-.102-1.223-.648-1.86.412-2.877 1.36-1.305 1.545-2.054 1.545-2.054l3.491 1.941Z" fill="#818181"/><path d="M119.674 130.694s-.473 5.363-.957 8.568c-.443 2.958-2.914 12.297-3.779 13.529-1.576 2.24-5.17 5.969-5.921 6.945-1.215 1.603-8.434 11.157-8.434 11.157s-2.028-.452-4.675-2.959c0 0 7.528-8.506 8.65-11.023.855-1.911 4.541-7.417 4.52-8.301-.03-1.479 1.03-17.926 2.523-20.864 1.514-2.938 8.073 2.948 8.073 2.948Z" fill="#4B4D61"/><path d="M124.227 127.509s9.37 8.476 10.523 10.407c1.154 1.921 1.885 2.167 1.401 4.222-.494 2.044-7.63 18.564-7.754 19.087-.134.565-3.779-1.14-4.109-1.181-.329-.041 1.535-4.982 2.225-6.986.7-2.003 2.842-8.865 3.418-9.893.577-1.027-11.553-7.293-12.83-8.804-1.267-1.53.556-8.567 7.126-6.852Z" fill="#4B4D61"/><path d="M124.876 128.311s-6.034 6.646-15.95 10.221l1.565-5.896 14.385-4.325Z" fill="#F5B17F"/><path d="M125.46 114.021s-.175 1.335-1.071 1.787l-.772-1.459 1.843-.328Z" fill="#323657"/><path d="M112.088 119.979a21.356 21.356 0 0 1-1.658 7.13s-3.243 1.335-4.808-.689c-.618-.801-1.154-3.482-1.38-6.903-.35-5.27.041-12.287 2.008-16.879.01 0 6.394 7.51 5.838 17.341Z" fill="#4B4D61"/><path d="M112.085 119.979a21.38 21.38 0 0 1-1.658 7.13s-3.244 1.335-4.809-.689c-.618-.801-1.153-3.482-1.38-6.903l7.847.462Z" fill="#F5B17F"/><path d="M92.369 130.108s-1.689 3.165-1.617 3.452c.072.298.258.37.433.072.175-.288 1.72-3.01 1.72-3.01s-1.329 4.037-1.329 4.294c0 .154.35.308.463.154.103-.144 1.669-4.088 1.669-4.088s-1.236 3.77-1.164 3.986c.062.184.422.256.535-.021.114-.277 1.473-3.719 1.473-3.719s-.72 2.794-.546 2.938c.103.082.402.237.567-.493.164-.729.73-2.404.73-2.404l-2.934-1.161Z" fill="#EEA886"/><path d="M94.903 126.749s-.628 1.007-1.328.966c-.597-.041-1.4.318-1.658.431-.33.144-1.524.237-1.349.637.186.391 1.967-.072 2.369-.092.39-.031-.67 1.315-.67 1.695.01.38 2.43 1.849 3.059.853.617-.997.587-2.425.74-2.579.145-.154.485-.709.485-.709l-1.648-1.202Z" fill="#EEA886"/><path d="M117.524 99.659s3.449.678 4.994-.257c.587.411 1.833 5.917 2.028 7.181.196 1.264.206 6.626-.123 8.66-.33 2.034 1.565 11.352.721 12.842 0 0-7.054 6.143-15.426 5.948 0 0-.072-11.64-.69-14.311-.793-3.421-2.677-11.3-2.677-11.3s-.875-5.28-.01-5.702c1.874-.924 6.868-2.743 6.868-2.743l4.315-.318Z" fill="#D07B7B"/><path d="M118.461 100.625s-1.143.657-5.241-.648c0 0-.175-2.691-1.215-5.105-1.04-2.414 5.612 2.773 5.612 2.773-.062.052-.041.298.031.648.062.287.165.647.309 1.017.309.811.237.667.504 1.315Z" fill="#EEA987"/><path d="M117.956 99.3c-3.954-.237-4.778-2.384-4.788-2.415 1.72 1.788 4.479 1.397 4.479 1.397.062.298.165.658.309 1.017Z" fill="#A77860"/><path d="M104.652 118.921c-1.514 1.644-8.33 9.4-8.33 9.4l-1.576-1.366s2.008-3.647 4.809-7.654c.772-1.109 1.802-3.729 1.956-3.914.155-.185 2.441-5.537 2.698-7.201.103-.658.731-2.62 1.143-4.284.453-1.86 4.778-2.774 4.778-2.774 3.563 1.13-1.308 8.095-1.308 8.095s-2.049 7.397-4.17 9.698Z" fill="#EEA886"/><path d="m108.986 110.035-5.334-.935s.114-5.506 3.831-7.304 5.746-1.808 5.746-1.808l-4.243 10.047Z" fill="#E57575"/><path d="m108.843 118.777-.886-.75c3.1-3.626 4.098-7.448 2.976-11.362-.834-2.928-2.914-5.105-2.924-5.126l1.132-.483c.083.082 1.998 2.096 2.914 5.301.536 1.89.628 3.801.258 5.671-.464 2.321-1.627 4.592-3.47 6.749Z" fill="#4B4D61"/><path d="m124.72 97.83 2.492 4.819s-1.967 1.582-2.667 5.67c-.577 3.401-3.635-8.454-3.635-8.454s1.39-.134 3.81-2.035Z" fill="#E57575"/><path d="m125.463 114.021-.947.483c.484-6.133-.34-9.133-1.051-11.239-.762-2.26-1.966-3.544-1.977-3.555l1.112-.482c.186.174 4.078 3.575 2.863 14.793Z" fill="#4B4D61"/><path d="M118.933 99.844s3.902 5.157.638 6.41c-4.263 1.623-7.805-6.05-7.805-6.05s2.45-1.007 7.167-.36Z" fill="#EEA987"/><path d="M116.553 86.705s3.306.36 3.542 6.348c.258 6.596-4.654 5.66-6.034 4.664-1.38-.996-2.739-3.43-3.13-5.362-.381-1.942-.906-7.253 5.622-5.65Z" fill="#EEA886"/><path d="M119.878 90.495s-.474-2.136-3.079-1.232c-2.605.904-4.819 3.43-4.274 6.76 0 0-4.736-5.415-2.224-8.414 2.502-3.01 8.568-2.97 9.577 2.886Z" fill="#4B4D61"/><path d="M116.143 89.53s3.356 2.27 4.17 2.198c0 0-.237-4.078-4.17-2.198Z" fill="#E68A6B"/><path d="M112.805 93.002c-.288-.555-1.101-1.222-1.266-.298-.165.925 1.04 2.764 1.369 2.425.32-.34.423-1.1-.103-2.127Z" fill="#EEA886"/><path d="M108.008 101.539s.484-.401 1.133-.483c0-.01-.66.483-1.133.483Z" fill="#323657"/><path d="M132.307 79.329s.463 1.613.998 1.839c.526.226.392-.36.392-.36s.123.586.607.545c.484-.041.288-.73.288-.73s.217.421.67.195c.453-.215.165-.75.165-.75s.638.432.772-.184c.226-1.028-.597-1.952-.597-1.952s-.217-.206-.649.04c0 0-.505-.533-1.05.093 0 0-.834-.195-.896.493.01-.01-.886-.164-.7.77Z" fill="#DB9C7C"/><path d="m52.811 154.075-11.698-6.256 3.975-.329 7.723 6.585Z" fill="#D6D6D6"/><path d="m52.815 154.075-3.666-5.65-2.997-.031 6.663 5.681Z" fill="#E8E8E8"/><path d="m43.807 149.257-.205 1.459 9.216 3.359-9.01-4.818Z" fill="#C2C2C2"/><path d="M40.398 144.563a28.052 28.052 0 0 1-2.719-1.88l.258-.319c1.07.843 2.049 1.469 2.677 1.849l-.216.35Zm-5.17-4.079a19.003 19.003 0 0 1-2.09-2.558l.34-.226a18.878 18.878 0 0 0 2.049 2.507l-.299.277Zm-3.635-5.496c-.04-.092-.072-.185-.102-.277a12.4 12.4 0 0 1-.68-2.938l.412-.041c.092.955.319 1.91.649 2.845.03.093.072.185.102.278l-.38.133Zm-.257-6.462-.402-.072c.175-1.047.495-2.116.948-3.174l.38.154a14.07 14.07 0 0 0-.926 3.092Zm2.44-5.927-.34-.226c.258-.391.536-.802.824-1.192.36-.483.7-.996 1.03-1.5l.35.216c-.33.514-.68 1.027-1.04 1.531-.309.39-.576.78-.824 1.171Zm3.45-5.579-.37-.174c.473-.976.885-1.983 1.235-3l.391.134a30.008 30.008 0 0 1-1.256 3.04Zm2.142-6.215-.402-.082c.227-1.058.392-2.137.495-3.205l.412.041a32.134 32.134 0 0 1-.505 3.246Zm.587-6.544-.412.011a23.758 23.758 0 0 0-.34-3.226l.402-.072c.185 1.068.298 2.178.35 3.287ZM38.8 97.779l-.39.123a21.684 21.684 0 0 0-1.256-2.98l.36-.184c.411.791.782 1.634 1.09 2.486.073.195.145.37.197.555Zm-3.377-5.568a16.57 16.57 0 0 0-2.204-2.363l.268-.308a18.04 18.04 0 0 1 2.255 2.424l-.319.247Zm-4.809-4.274a16.935 16.935 0 0 0-2.924-1.376l.144-.38c1.05.38 2.05.852 2.996 1.407l-.216.35Zm-6.044-2.218a23.25 23.25 0 0 0-3.223-.35l.01-.41c1.122.04 2.235.153 3.285.349l-.072.41Z" fill="#EDDAD3"/><defs><linearGradient id="a" x1="159.524" y1="154.655" x2="180.723" y2="36.04" gradientUnits="userSpaceOnUse"><stop stop-color="#E6583B"/><stop offset="1" stop-color="#A16132"/></linearGradient><linearGradient id="b" x1="191.573" y1="160.383" x2="212.772" y2="41.767" gradientUnits="userSpaceOnUse"><stop stop-color="#E6583B"/><stop offset="1" stop-color="#A16132"/></linearGradient><linearGradient id="c" x1="186.703" y1="159.512" x2="207.901" y2="40.897" gradientUnits="userSpaceOnUse"><stop stop-color="#E6583B"/><stop offset="1" stop-color="#A16132"/></linearGradient><linearGradient id="d" x1="181.854" y1="158.645" x2="203.052" y2="40.031" gradientUnits="userSpaceOnUse"><stop stop-color="#E6583B"/><stop offset="1" stop-color="#A16132"/></linearGradient><linearGradient id="e" x1="186.713" y1="159.514" x2="207.911" y2="40.899" gradientUnits="userSpaceOnUse"><stop stop-color="#E6583B"/><stop offset="1" stop-color="#A16132"/></linearGradient><linearGradient id="f" x1="213.902" y1="164.373" x2="235.1" y2="45.758" gradientUnits="userSpaceOnUse"><stop stop-color="#E6583B"/><stop offset="1" stop-color="#A16132"/></linearGradient><linearGradient id="g" x1="205.312" y1="20.45" x2="229.485" y2="64.871" gradientUnits="userSpaceOnUse"><stop stop-color="#F0EEEE"/><stop offset="1" stop-color="#DBBCB4"/></linearGradient><linearGradient id="h" x1="239.839" y1="57.686" x2="227.493" y2="101.806" gradientUnits="userSpaceOnUse"><stop stop-color="#F0EEEE"/><stop offset="1" stop-color="#DBBCB4"/></linearGradient><linearGradient id="i" x1="149.107" y1="19.356" x2="158.231" y2="75.569" gradientUnits="userSpaceOnUse"><stop stop-color="#F0EEEE"/><stop offset="1" stop-color="#DBBCB4"/></linearGradient><linearGradient id="j" x1="149.441" y1="-4.531" x2="145.416" y2="40.113" gradientUnits="userSpaceOnUse"><stop stop-color="#F0EEEE"/><stop offset="1" stop-color="#DBBCB4"/></linearGradient><linearGradient id="k" x1="166.618" y1="17.399" x2="189.735" y2="45.959" gradientUnits="userSpaceOnUse"><stop stop-color="#F0EEEE"/><stop offset="1" stop-color="#DBBCB4"/></linearGradient><linearGradient id="l" x1="62.996" y1="167.079" x2="62.996" y2="140.855" gradientUnits="userSpaceOnUse"><stop stop-color="#EBD8D1"/><stop offset="1" stop-color="#FAE7E0"/></linearGradient><linearGradient id="m" x1="69.082" y1="164.875" x2="69.082" y2="137.896" gradientUnits="userSpaceOnUse"><stop stop-color="#BFB0AA"/><stop offset="1" stop-color="#FAE7E0"/></linearGradient><linearGradient id="n" x1="61.959" y1="164.872" x2="61.959" y2="137.893" gradientUnits="userSpaceOnUse"><stop stop-color="#BFB0AA"/><stop offset="1" stop-color="#FAE7E0"/></linearGradient><linearGradient id="o" x1="22.417" y1="146.372" x2="22.417" y2="126.385" gradientUnits="userSpaceOnUse"><stop stop-color="#EBD8D1"/><stop offset="1" stop-color="#FAE7E0"/></linearGradient><linearGradient id="p" x1="15.952" y1="145.579" x2="15.952" y2="114.826" gradientUnits="userSpaceOnUse"><stop stop-color="#BFB0AA"/><stop offset="1" stop-color="#FAE7E0"/></linearGradient><linearGradient id="q" x1="23.074" y1="145.577" x2="23.074" y2="114.823" gradientUnits="userSpaceOnUse"><stop stop-color="#BFB0AA"/><stop offset="1" stop-color="#FAE7E0"/></linearGradient><linearGradient id="r" x1="77.32" y1="130.236" x2="77.32" y2="115.577" gradientUnits="userSpaceOnUse"><stop stop-color="#EBD8D1"/><stop offset="1" stop-color="#FAE7E0"/></linearGradient><linearGradient id="s" x1="83.937" y1="134.837" x2="83.937" y2="88.693" gradientUnits="userSpaceOnUse"><stop stop-color="#BFB0AA"/><stop offset="1" stop-color="#FAE7E0"/></linearGradient><linearGradient id="t" x1="76.816" y1="134.829" x2="76.816" y2="88.683" gradientUnits="userSpaceOnUse"><stop stop-color="#BFB0AA"/><stop offset="1" stop-color="#FAE7E0"/></linearGradient></defs></svg>