<svg width="111" height="111" viewBox="0 0 111 111" fill="none" xmlns="http://www.w3.org/2000/svg">
<circle cx="55.5" cy="55.5" r="55.5" fill="#F8C0A2"/>
<path d="M83.7351 58.1189V37.4577C83.7351 21.7408 70.9941 9 55.2774 9C39.5607 9 26.8197 21.7408 26.8197 37.4577V58.1189C22.5963 59.6566 19.5802 63.7069 19.5802 68.4619C19.5802 74.5393 24.5069 79.4663 30.5846 79.4663H79.9702C86.0477 79.4663 90.9746 74.5395 90.9746 68.4619C90.9746 63.7069 87.9585 59.6566 83.7351 58.1189Z" fill="#BA915F"/>
<path d="M37.3834 68.4613C37.3834 71.4995 38.615 74.252 40.607 76.2422C42.5972 78.2343 45.3479 79.4659 48.3879 79.4659H30.5837C27.5455 79.4659 24.7948 78.2343 22.8028 76.2422C20.8107 74.252 19.5791 71.4995 19.5791 68.4613C19.5791 63.7075 22.595 59.6566 26.8184 58.1189V37.4583C26.8184 29.5995 30.005 22.4844 35.1539 17.3355C40.3047 12.1847 47.4179 9 55.2767 9C58.3872 9 61.379 9.49894 64.1797 10.4208C59.9007 11.8267 56.0705 14.2231 52.9582 17.3355C47.8074 22.4844 44.6227 29.5995 44.6227 37.4583V58.1189C40.3993 59.6566 37.3834 63.7075 37.3834 68.4613Z" fill="#E7BF8F"/>
<path d="M79.736 22.9036C82.2771 27.1622 83.7349 32.1387 83.7349 37.4583V47.1812M26.8184 47.1793V37.4583C26.8184 29.5995 30.0031 22.4844 35.1539 17.3355C40.3028 12.1847 47.4179 9 55.2767 9C63.3766 9 70.6864 12.3832 75.8669 17.814M77.1689 79.4659H68.2158M84.679 58.5159C86.3873 59.3227 87.8507 60.5599 88.9377 62.0845C90.2212 63.8837 90.9742 66.0835 90.9742 68.4613C90.9742 72.2655 89.0452 75.6172 86.1109 77.5944M42.3376 79.4659H32.8317M19.5865 68.0663C19.581 68.1979 19.5791 68.3296 19.5791 68.4613C19.5791 71.4995 20.8107 74.252 22.8028 76.2422C23.2386 76.6781 23.7116 77.0787 24.2143 77.4367M25.8743 58.5159C24.2274 59.2967 22.7999 60.4738 21.7195 61.9417" stroke="#96544A" stroke-width="2" stroke-miterlimit="10" stroke-linecap="round" stroke-linejoin="round"/>
<path d="M82.996 101.184H27.5527C32.787 91.2179 43.2362 84.4229 55.2754 84.4229C67.3125 84.4229 77.7617 91.2181 82.996 101.184Z" fill="#F5941F"/>
<path d="M62.679 85.3049C53.8483 87.4453 46.4847 93.3287 42.3596 101.184H27.5527C32.787 91.218 43.237 84.4238 55.2746 84.4238C57.825 84.4238 60.3049 84.7299 62.679 85.3049Z" fill="#FFBB69"/>
<path d="M82.9958 101.184H27.552M30.7571 96.2686C34.9471 90.9898 40.8046 87.0985 47.5356 85.3883M79.2417 95.5953C77.677 93.7329 75.9018 92.058 73.9518 90.604M68.3707 87.2895C66.6698 86.5031 64.8855 85.865 63.0362 85.3939" stroke="#96544A" stroke-width="2" stroke-miterlimit="10" stroke-linecap="round" stroke-linejoin="round"/>
<path d="M86.5721 52.6029C86.5721 57.3233 83.3596 61.2908 79.0008 62.4407C77.8267 71.5237 71.5593 79.0097 63.157 81.9366V84.027C63.157 88.421 59.5569 91.9766 55.1424 91.9043C50.8226 91.832 47.3986 88.217 47.3986 83.8971V81.9347C38.9964 79.0097 32.729 71.5237 31.5549 62.4407C29.3736 61.8657 27.4817 60.5859 26.1333 58.861C24.7867 57.136 23.9836 54.964 23.9836 52.6029C23.9836 48.9582 26.9383 45.9997 30.5867 45.9997H31.3546C31.3546 45.9997 48.3594 47.6246 59.8815 38.1984C59.8815 38.1984 66.2583 45.9997 79.1992 45.9997H79.969C81.7923 45.9997 83.443 46.738 84.6375 47.9343C85.832 49.1288 86.5721 50.7814 86.5721 52.6029Z" fill="#FFDFCF"/>
<path d="M63.4408 81.8345C63.3462 81.8697 63.2516 81.9031 63.157 81.9365V84.0269C63.157 88.4209 59.5569 91.9766 55.1424 91.9042C50.8226 91.8319 47.3986 88.2169 47.3986 83.897V81.9346C38.9964 79.0096 32.729 71.5236 31.5549 62.4406C29.3736 61.8656 27.4817 60.5858 26.1351 58.8609C24.7867 57.1359 23.9836 54.9639 23.9836 52.6028C23.9836 48.9581 26.9383 45.9996 30.5867 45.9996H31.3546C31.3546 45.9996 36.3737 46.48 42.8043 45.4061V59.1335C42.8043 70.9969 51.8631 80.7439 63.4408 81.8345Z" fill="#FFCEBF"/>
<path d="M79.78 56.0192C79.78 56.0192 79.7014 53.8248 81.3512 52.1752M30.7755 56.0192C30.7755 56.0192 30.8542 53.8248 29.2043 52.1752" stroke="#96544A" stroke-width="2" stroke-miterlimit="10" stroke-linecap="round" stroke-linejoin="round"/>
<path d="M79.1994 45.9997C66.2585 45.9997 59.8816 38.1984 59.8816 38.1984C54.6196 42.5034 48.2112 44.5048 42.8045 45.4062C36.3738 46.4801 31.3547 45.9997 31.3547 45.9997L31.3551 45.9999H30.5872C26.9392 45.9999 23.9836 48.9574 23.9836 52.6036C23.9836 54.9635 24.7863 57.1356 26.1346 58.8612C27.4828 60.5865 29.3746 61.8652 31.5545 62.4415C32.7286 71.5232 38.9958 79.009 47.3984 81.9355V83.8969C47.3984 88.2177 50.8231 91.8323 55.1434 91.9039C59.5567 91.977 63.1574 88.4214 63.1574 84.0266V81.9375C71.56 79.009 77.8272 71.5232 79.0013 62.4417C83.3594 61.2908 86.5723 57.3235 86.5723 52.6038C86.5723 50.7816 85.8333 49.1297 84.6379 47.9343C83.4425 46.7389 81.7924 45.9999 79.9684 45.9999H79.2005" stroke="#96544A" stroke-width="2" stroke-miterlimit="10" stroke-linecap="round" stroke-linejoin="round"/>
<path d="M59.7899 69.5903C57.2974 72.0828 53.2561 72.0828 50.7636 69.5903M48.9318 57.3108C46.2869 59.9557 41.9986 59.9557 39.3536 57.3108M70.6501 57.3108C68.0052 59.9557 63.7169 59.9557 61.0719 57.3108" stroke="#96544A" stroke-width="2" stroke-miterlimit="10" stroke-linecap="round" stroke-linejoin="round"/>
<path d="M89.1287 88.4086L97.1635 84.1182C98.3842 83.4664 98.8462 81.9455 98.1944 80.7249C98.0396 80.4341 97.8289 80.1768 97.5744 79.9678C97.3199 79.7587 97.0266 79.602 96.7113 79.5066C96.3963 79.4104 96.0654 79.3775 95.7376 79.4096C95.4098 79.4418 95.0916 79.5384 94.8012 79.694L87.8867 83.3861" fill="#FFCEBF"/>
<path d="M89.8086 82.3575L94.7999 79.694C95.4101 79.3675 96.0964 79.3193 96.7103 79.5067C97.3224 79.6921 97.8677 80.1132 98.1942 80.7253C98.8452 81.9457 98.3834 83.4667 97.1629 84.1177L93.2622 86.2006" stroke="#96544A" stroke-width="2" stroke-miterlimit="10" stroke-linecap="round" stroke-linejoin="round"/>
<path d="M99.2661 86.9351C99.0335 86.7018 98.7571 86.5169 98.4528 86.3908C98.1485 86.2648 97.8222 86.2001 97.4929 86.2006H89.6545C89.877 85.5069 89.9976 84.7668 89.9976 83.9989C89.9976 80.0148 86.7684 76.7837 82.7824 76.7837C78.7964 76.7837 75.5672 80.0148 75.5672 83.9989C75.5672 86.6977 77.0473 89.0514 79.2416 90.2886V101.184H89.2093V91.216H97.4929C98.8765 91.216 100.001 90.0919 100.001 88.7083C100.001 88.0146 99.7186 87.3876 99.2661 86.9351ZM82.7824 81.4244C84.205 81.4244 85.3587 82.5763 85.3587 83.9989C85.3587 85.4215 84.205 86.5752 82.7824 86.5752C81.3598 86.5752 80.2061 85.4215 80.2061 83.9989C80.2061 82.5763 81.3598 81.4244 82.7824 81.4244Z" fill="#FFDFCF"/>
<path d="M84.6534 101.184H79.2422V90.2888H80.001C82.5704 90.2888 84.6534 92.3718 84.6534 94.9413V101.184Z" fill="#FFCEBF"/>
<path d="M99.2661 86.9351C99.0335 86.7018 98.7571 86.5169 98.4528 86.3908C98.1485 86.2648 97.8222 86.2001 97.4929 86.2006H89.6545C89.877 85.5069 89.9976 84.7668 89.9976 83.9989C89.9976 80.0148 86.7684 76.7837 82.7824 76.7837C78.7964 76.7837 75.5672 80.0148 75.5672 83.9989C75.5672 86.6977 77.0473 89.0514 79.2416 90.2886V101.184H89.2093V91.216H97.4929C98.8765 91.216 100.001 90.0919 100.001 88.7083C100.001 88.0146 99.7186 87.3876 99.2661 86.9351ZM82.7824 81.4244C84.205 81.4244 85.3587 82.5763 85.3587 83.9989C85.3587 85.4215 84.205 86.5752 82.7824 86.5752C81.3598 86.5752 80.2061 85.4215 80.2061 83.9989C80.2061 82.5763 81.3598 81.4244 82.7824 81.4244Z" stroke="#96544A" stroke-width="2" stroke-miterlimit="10" stroke-linecap="round" stroke-linejoin="round"/>
<path d="M85.3594 83.9989C85.3594 85.4215 84.2058 86.5752 82.7831 86.5752C81.3605 86.5752 80.2068 85.4215 80.2068 83.9989C80.2068 82.5762 81.3605 81.4244 82.7831 81.4244C84.2058 81.4244 85.3594 82.5762 85.3594 83.9989Z" stroke="#96544A" stroke-width="2" stroke-miterlimit="10" stroke-linecap="round" stroke-linejoin="round"/>
<path d="M82.7831 81.4244C81.3605 81.4244 80.2068 82.5763 80.2068 83.9989C80.2068 85.4215 81.3605 86.5752 82.7831 86.5752C84.2058 86.5752 85.3594 85.4215 85.3594 83.9989C85.3594 82.5763 84.2058 81.4244 82.7831 81.4244ZM82.7831 81.4244V76.7837" stroke="#96544A" stroke-width="2" stroke-miterlimit="10" stroke-linecap="round" stroke-linejoin="round"/>
<path d="M22.1149 83.3861L15.2006 79.6939C14.9102 79.5384 14.592 79.4418 14.2642 79.4096C13.9364 79.3775 13.6055 79.4104 13.2905 79.5066C12.9752 79.602 12.6819 79.7587 12.4274 79.9677C12.1729 80.1768 11.9622 80.4341 11.8074 80.7248C11.1556 81.9455 11.6176 83.4664 12.8383 84.1182L20.8731 88.4085" fill="#FFCEBF"/>
<path d="M16.7378 86.2006L12.8371 84.1176C11.6166 83.4666 11.1548 81.9457 11.8058 80.7252C12.1323 80.1131 12.6776 79.6921 13.2897 79.5066C13.9036 79.3193 14.5899 79.3675 15.2001 79.6939L20.1914 82.3574" stroke="#96544A" stroke-width="2" stroke-miterlimit="10" stroke-linecap="round" stroke-linejoin="round"/>
<path d="M10 88.7083C10 90.0919 11.124 91.216 12.5077 91.216H20.7913V101.184H30.759V90.2886C32.9532 89.0514 34.4333 86.6977 34.4333 83.9989C34.4333 80.0148 31.2041 76.7837 27.2182 76.7837C23.2322 76.7837 20.003 80.0148 20.003 83.9989C20.003 84.7668 20.1235 85.5069 20.3461 86.2006H12.5077C11.8159 86.2006 11.1889 86.4806 10.7345 86.9351C10.5013 87.1677 10.3164 87.4441 10.1904 87.7484C10.0643 88.0527 9.99962 88.3789 10 88.7083ZM29.7945 83.9989C29.7945 85.4215 28.6408 86.5752 27.2182 86.5752C25.7955 86.5752 24.6418 85.4215 24.6418 83.9989C24.6418 82.5763 25.7955 81.4244 27.2182 81.4244C28.6408 81.4244 29.7945 82.5763 29.7945 83.9989Z" fill="#FFDFCF"/>
<path d="M26.2021 101.184H20.7909V90.2888H21.5497C24.1192 90.2888 26.2021 92.3718 26.2021 94.9413V101.184Z" fill="#FFCEBF"/>
<path d="M10 88.7083C10 90.0919 11.124 91.216 12.5077 91.216H20.7913V101.184H30.759V90.2886C32.9532 89.0514 34.4333 86.6977 34.4333 83.9989C34.4333 80.0148 31.2041 76.7837 27.2182 76.7837C23.2322 76.7837 20.003 80.0148 20.003 83.9989C20.003 84.7668 20.1235 85.5069 20.3461 86.2006H12.5077C11.8159 86.2006 11.1889 86.4806 10.7345 86.9351C10.5013 87.1677 10.3164 87.4441 10.1904 87.7484C10.0643 88.0527 9.99962 88.3789 10 88.7083ZM29.7945 83.9989C29.7945 85.4215 28.6408 86.5752 27.2182 86.5752C25.7955 86.5752 24.6418 85.4215 24.6418 83.9989C24.6418 82.5763 25.7955 81.4244 27.2182 81.4244C28.6408 81.4244 29.7945 82.5763 29.7945 83.9989Z" stroke="#96544A" stroke-width="2" stroke-miterlimit="10" stroke-linecap="round" stroke-linejoin="round"/>
<path d="M24.6428 83.9989C24.6428 85.4215 25.7964 86.5752 27.2191 86.5752C28.6417 86.5752 29.7954 85.4215 29.7954 83.9989C29.7954 82.5762 28.6417 81.4244 27.2191 81.4244C25.7964 81.4244 24.6428 82.5762 24.6428 83.9989Z" stroke="#96544A" stroke-width="2" stroke-miterlimit="10" stroke-linecap="round" stroke-linejoin="round"/>
<path d="M27.2191 81.4244C28.6417 81.4244 29.7954 82.5763 29.7954 83.9989C29.7954 85.4215 28.6417 86.5752 27.2191 86.5752C25.7964 86.5752 24.6428 85.4215 24.6428 83.9989C24.6428 82.5763 25.7964 81.4244 27.2191 81.4244ZM27.2191 81.4244V76.7837" stroke="#96544A" stroke-width="2" stroke-miterlimit="10" stroke-linecap="round" stroke-linejoin="round"/>
</svg>
