<svg width="69" height="79" viewBox="0 0 69 79" fill="none" xmlns="http://www.w3.org/2000/svg">
<path d="M12.8567 21.0347C23.1559 5.57882 43.7949 -3.64006 62.1091 1.37046C52.8968 6.17755 41.6561 5.24169 32.8739 11.1648C17.9947 19.7327 10.3575 36.3802 7.3584 52.5627C6.59119 57.3698 6.07975 62.1885 5.3881 67.013C3.87112 70.8145 2.38318 74.6509 1.22075 78.5802L1.18587 78.6907C-2.26656 58.916 1.87753 37.9264 12.8567 21.0347Z" fill="#622519"/>
<path d="M62.1096 1.37061C64.08 4.57339 66.4978 8.24116 65.504 12.1705C64.3996 9.99078 63.2546 7.83426 62.0689 5.68938C56.1754 11.4788 52.3103 18.8551 47.3235 25.3363C35.1818 40.6469 23.9469 56.7537 9.27118 69.8439C7.30086 64.2928 6.6615 58.4104 7.35896 52.5628C10.3639 36.3803 17.9952 19.7328 32.8744 11.165C41.6566 5.24183 52.8973 6.17188 62.1096 1.37061Z" fill="#F7AC2D"/>
<path d="M47.3238 25.3358C52.3165 18.8547 56.1816 11.4784 62.0693 5.68896C63.2492 7.82803 64.3942 9.99036 65.5043 12.1701C71.1886 25.5044 68.0908 40.5127 61.3951 52.8589C55.2226 66.693 41.0002 75.8364 26.1036 77.5918C17.8271 78.4463 9.51565 79.0624 1.22168 78.5799C2.38411 74.6506 3.86624 70.8142 5.38903 67.0127C5.3716 68.9135 5.31346 72.7324 5.29602 74.6274C19.6114 73.0812 37.1003 74.5343 47.4169 62.5428C54.7518 54.6085 51.805 43.1401 48.3758 34.1827C39.2391 42.5472 33.0666 53.5506 23.7787 61.7465C19.2569 65.8618 13.6307 68.4485 8.20792 71.1688C8.46947 70.8316 9.01583 70.1806 9.27738 69.8493C23.9473 56.7591 35.188 40.6464 47.3297 25.3417L47.3238 25.3358ZM50.8518 30.4917C54.2287 37.1588 55.4842 44.57 56.6873 51.8707C63.441 40.4198 65.3183 26.3763 61.3777 13.6407C56.7454 18.5001 53.9846 24.6674 50.8518 30.4917Z" fill="#7A2F1A"/>
<path d="M50.8516 30.4921C53.9843 24.6619 56.7451 18.5005 61.3774 13.6411C65.3181 26.3767 63.4408 40.4201 56.687 51.8711C55.4839 44.5704 54.2284 37.1592 50.8516 30.4921Z" fill="#EC872B"/>
<path d="M23.7776 61.741C33.0655 53.5451 39.238 42.5417 48.3748 34.1772C51.8097 43.1346 54.7565 54.6088 47.4158 62.5373C37.0933 74.5289 19.6103 73.0757 5.29492 74.6219C5.31236 72.7212 5.3705 68.9022 5.38794 67.0072C6.07959 62.1827 6.59103 57.3582 7.35824 52.5569C6.66659 58.4045 7.30014 64.2869 9.27046 69.838C9.00892 70.1751 8.46256 70.8262 8.20101 71.1575C13.6238 68.4372 19.25 65.8505 23.7718 61.7352L23.7776 61.741Z" fill="#EF8D24"/>
</svg>
