<svg width="320" height="138" fill="none" xmlns="http://www.w3.org/2000/svg"><g clip-path="url(#a)"><path fill="url(#b)" d="M0 0h320v138H0z"/><path d="M304.798 21H202.745C189.078 21 178 32.078 178 45.745v.592c0 13.666 11.078 24.745 24.745 24.745h102.053c13.666 0 24.744-11.079 24.744-24.745v-.593c0-13.666-11.078-24.744-24.744-24.744Z" fill="#EED18E"/><path d="M196 63.898s-6.081 13.172-3.504 16.673c2.577 3.5 20.046-14.3 20.046-14.3L196 63.898Z" fill="#EED18E"/><path d="M303.482 41.76h-99.427c-.645 0-1.164-.52-1.164-1.166 0-.645.519-1.164 1.164-1.164h99.427c.645 0 1.165.52 1.165 1.164 0 .646-.52 1.165-1.165 1.165ZM246.611 52.65h-42.556c-.645 0-1.164-.52-1.164-1.165s.519-1.165 1.164-1.165h42.556c.645 0 1.165.52 1.165 1.165s-.52 1.165-1.165 1.165ZM279.743 52.65h-25.258c-.645 0-1.165-.52-1.165-1.165s.52-1.165 1.165-1.165h25.258c.645 0 1.165.52 1.165 1.165s-.52 1.165-1.165 1.165Z" fill="#F1F5FD"/><path d="M253.545 83.32h70.885c9.492 0 17.187 7.695 17.187 17.188v.411c0 9.492-7.695 17.187-17.187 17.187h-70.885c-9.493 0-17.188-7.695-17.188-17.187v-.411c0-9.493 7.695-17.188 17.188-17.188Z" fill="#E4B855"/><path d="M329.101 113.102s4.224 9.149 2.433 11.58c-1.79 2.432-13.924-9.932-13.924-9.932l11.491-1.648Z" fill="#E4B855"/><path d="M254.45 97.735h69.061a.807.807 0 0 0 .809-.809.807.807 0 0 0-.809-.809H254.45a.807.807 0 0 0-.809.81c0 .447.361.808.809.808ZM293.952 105.306h29.559a.807.807 0 0 0 .809-.809.807.807 0 0 0-.809-.809h-29.559a.807.807 0 0 0-.809.809c0 .448.361.809.809.809ZM270.952 105.306h17.544a.807.807 0 0 0 .809-.809.807.807 0 0 0-.809-.809h-17.544a.808.808 0 0 0-.81.809c0 .448.361.809.81.809Z" fill="#D2E6FF"/></g><defs><linearGradient id="b" x1="160" y1="0" x2="160" y2="138" gradientUnits="userSpaceOnUse"><stop stop-color="#F2C45B"/><stop offset="1" stop-color="#EED294"/></linearGradient><clipPath id="a"><path fill="#fff" d="M0 0h320v138H0z"/></clipPath></defs></svg>