<svg width="300" height="142" fill="none" xmlns="http://www.w3.org/2000/svg"><g clip-path="url(#a)"><path fill="url(#b)" d="M0 0h300v142H0z"/><path d="M216.284 8.763c14.842-19.536 42.755-27.492 63.674-17.95 31.237 14.248 41.383 65 16.145 89.148-19.331 18.496-57.349 19.397-78.064-3.745-17.21-19.228-16.362-48.227-1.755-67.453Z" fill="#86A2E0"/><path d="M183.993 90.783c14.186-18.673 40.868-26.278 60.865-17.157 29.858 13.62 39.556 62.133 15.432 85.214-18.478 17.68-54.819 18.541-74.619-3.579-16.452-18.38-15.641-46.099-1.678-64.478Z" fill="#95AFE7"/><path d="M256.155 10.573c-.48-1.318-1.96-2.022-3.306-1.573l-45.033 15.037c-1.346.449-2.048 1.882-1.568 3.2l20.984 57.607c.48 1.317 1.96 2.021 3.306 1.572l45.034-15.037c1.345-.449 2.047-1.882 1.567-3.2l-20.984-57.606Z" fill="#6683C2" fill-opacity=".52" style="mix-blend-mode:multiply" opacity=".25"/><path d="m275.667 71.049-45.728 12.164c-1.366.363-2.799-.433-3.2-1.78l-17.527-58.852a2.463 2.463 0 0 1 1.748-3.096l45.728-12.164c1.367-.363 2.8.433 3.2 1.78l17.528 58.852a2.464 2.464 0 0 1-1.749 3.096Z" fill="#6C89C8"/><path d="m249.362 20.272-24.701 6.659a1.249 1.249 0 0 1-1.514-.854 1.184 1.184 0 0 1 .827-1.485l24.702-6.658a1.249 1.249 0 0 1 1.514.854 1.184 1.184 0 0 1-.828 1.484Z" fill="#fff"/><path d="m257.866 30.656-26.594 7.172a1.249 1.249 0 0 1-1.514-.854 1.185 1.185 0 0 1 .827-1.486l26.595-7.172a1.248 1.248 0 0 1 1.513.855c.19.646-.18 1.31-.827 1.485ZM260.225 38.766l-26.594 7.171a1.249 1.249 0 0 1-1.514-.854 1.184 1.184 0 0 1 .828-1.485l26.594-7.172a1.249 1.249 0 0 1 1.514.854 1.184 1.184 0 0 1-.828 1.486ZM262.796 47.578l-26.595 7.172a1.247 1.247 0 0 1-1.513-.854 1.184 1.184 0 0 1 .827-1.486l26.595-7.172a1.247 1.247 0 0 1 1.513.855 1.184 1.184 0 0 1-.827 1.485ZM265.577 57.094l-26.594 7.172a1.249 1.249 0 0 1-1.514-.855 1.184 1.184 0 0 1 .827-1.485l26.595-7.172a1.248 1.248 0 0 1 1.513.854c.19.646-.18 1.311-.827 1.486Z" fill="#E4ECF9"/><path d="M224.601 41.402a2.993 2.993 0 0 1-2.219-.286 2.95 2.95 0 0 1-1.409-1.742 2.78 2.78 0 0 1 .24-2.181 2.822 2.822 0 0 1 1.75-1.342 2.948 2.948 0 0 1 1.162-.074l-.087.734a2.186 2.186 0 0 0-.862.054 2.093 2.093 0 0 0-1.299.997 2.064 2.064 0 0 0-.179 1.619c.164.55.536 1.01 1.047 1.293.511.284 1.103.36 1.658.21a2.094 2.094 0 0 0 1.299-.997 2.06 2.06 0 0 0 .179-1.619 2.189 2.189 0 0 0-.121-.315l.684-.3c.065.135.119.277.163.422a2.78 2.78 0 0 1-.241 2.18 2.821 2.821 0 0 1-1.764 1.347h-.001Z" fill="#DFF3ED"/><path d="M224.158 39.508a.386.386 0 0 1-.288-.036l-1.347-.749a.371.371 0 0 1-.151-.505.378.378 0 0 1 .514-.137l1.014.564 2.454-4.343a.378.378 0 0 1 .514-.136.37.37 0 0 1 .15.505l-2.635 4.664a.363.363 0 0 1-.225.174ZM229.523 58.331a2.993 2.993 0 0 1-2.219-.287 2.956 2.956 0 0 1-1.41-1.741 2.807 2.807 0 0 1 1.991-3.523 3.024 3.024 0 0 1 1.161-.074l-.086.733a2.28 2.28 0 0 0-.862.055 2.083 2.083 0 0 0-1.478 2.615c.164.55.536 1.01 1.046 1.294a2.234 2.234 0 0 0 1.659.21 2.094 2.094 0 0 0 1.299-.996 2.06 2.06 0 0 0 .178-1.62 2.198 2.198 0 0 0-.12-.314l.684-.301c.064.136.119.278.162.422a2.78 2.78 0 0 1-.241 2.181 2.821 2.821 0 0 1-1.75 1.342l-.014.004Z" fill="#DFF3ED"/><path d="M229.08 56.422a.39.39 0 0 1-.289-.036l-1.346-.749a.371.371 0 0 1-.151-.505.378.378 0 0 1 .514-.137l1.014.564 2.454-4.343a.378.378 0 0 1 .514-.136.371.371 0 0 1 .15.505l-2.635 4.664a.364.364 0 0 1-.225.174ZM232.296 67.847a2.994 2.994 0 0 1-2.219-.286 2.954 2.954 0 0 1-1.409-1.742 2.78 2.78 0 0 1 .241-2.181 2.82 2.82 0 0 1 1.749-1.342c.38-.101.771-.126 1.162-.074l-.087.734a2.2 2.2 0 0 0-.862.054 2.096 2.096 0 0 0-1.299.997 2.06 2.06 0 0 0-.178 1.619c.163.55.535 1.01 1.046 1.293.511.284 1.102.36 1.658.21a2.098 2.098 0 0 0 1.3-.997c.279-.494.342-1.069.178-1.619a2.183 2.183 0 0 0-.121-.315l.684-.3c.065.135.12.277.163.422a2.78 2.78 0 0 1-.241 2.18 2.821 2.821 0 0 1-1.764 1.347h-.001Z" fill="#DFF3ED"/><path d="M231.861 65.946a.386.386 0 0 1-.288-.037l-1.347-.748a.371.371 0 0 1-.151-.506.378.378 0 0 1 .514-.136l1.014.563 2.454-4.342a.378.378 0 0 1 .514-.137.371.371 0 0 1 .151.506l-2.636 4.664a.363.363 0 0 1-.225.173ZM226.96 49.511a2.994 2.994 0 0 1-2.219-.286 2.954 2.954 0 0 1-1.409-1.742 2.805 2.805 0 0 1 1.99-3.523c1.552-.41 3.188.495 3.644 2.024a2.78 2.78 0 0 1-.241 2.181 2.822 2.822 0 0 1-1.75 1.343l-.015.003Zm-1.414-4.84-.011.003a2.083 2.083 0 0 0-1.478 2.615c.164.55.536 1.01 1.046 1.294a2.204 2.204 0 0 0 1.659.21 2.093 2.093 0 0 0 1.299-.997c.279-.494.343-1.07.179-1.62-.338-1.131-1.545-1.805-2.695-1.506l.001.001Z" fill="#DFF3ED"/><path d="m267.77 5.888-46.566 9.898c-1.391.296-2.258 1.638-1.935 2.998l14.12 59.467c.323 1.36 1.713 2.223 3.105 1.927l46.565-9.898c1.392-.296 2.258-1.638 1.935-2.998l-14.12-59.467c-.323-1.36-1.713-2.223-3.104-1.927Z" fill="#6683C2" fill-opacity=".52" style="mix-blend-mode:multiply" opacity=".25"/><path d="m283.237 66.942-46.95 7.04c-1.403.211-2.739-.736-2.985-2.114l-10.723-60.27c-.246-1.379.693-2.667 2.096-2.877l46.95-7.041c1.403-.21 2.739.736 2.984 2.115l10.724 60.27c.245 1.378-.693 2.666-2.096 2.877Z" fill="#fff"/><path d="m262.906 13.686-25.346 3.84a1.248 1.248 0 0 1-1.411-1.011 1.18 1.18 0 0 1 .991-1.376l25.347-3.84c.663-.101 1.295.352 1.411 1.011a1.18 1.18 0 0 1-.992 1.376Z" fill="#6683C2"/><path d="m270.146 24.922-27.289 4.136a1.248 1.248 0 0 1-1.411-1.012 1.18 1.18 0 0 1 .991-1.376l27.289-4.136c.664-.1 1.295.352 1.411 1.012a1.18 1.18 0 0 1-.991 1.376ZM271.544 33.243l-27.289 4.136a1.249 1.249 0 0 1-1.411-1.013 1.18 1.18 0 0 1 .992-1.376l27.288-4.136a1.25 1.25 0 0 1 1.412 1.012 1.18 1.18 0 0 1-.992 1.377ZM273.067 42.274l-27.288 4.136a1.248 1.248 0 0 1-1.411-1.012 1.18 1.18 0 0 1 .991-1.377l27.289-4.136c.663-.1 1.295.353 1.411 1.013a1.18 1.18 0 0 1-.992 1.376ZM274.724 52.047l-27.289 4.136a1.248 1.248 0 0 1-1.411-1.012 1.18 1.18 0 0 1 .991-1.376l27.289-4.136c.664-.1 1.295.352 1.411 1.012a1.18 1.18 0 0 1-.991 1.376Z" fill="#E2EBFD"/><path d="M236.049 31.915a3.005 3.005 0 0 1-2.415-.483 2.927 2.927 0 0 1-1.205-1.882c-.279-1.566.792-3.035 2.386-3.274a2.99 2.99 0 0 1 1.166.055l-.17.717a2.217 2.217 0 0 0-.865-.04c-1.184.178-1.979 1.268-1.772 2.43.1.564.418 1.06.894 1.397a2.233 2.233 0 0 0 1.794.36 2.086 2.086 0 0 0 1.522-2.725l.716-.224c.048.142.087.289.113.437.265 1.492-.694 2.896-2.164 3.232Z" fill="#F37E60"/><path d="M235.599 30.023a.387.387 0 0 1-.283-.068l-1.257-.89a.368.368 0 0 1-.092-.519c.12-.165.356-.2.528-.079l.946.67 2.945-4.04c.12-.165.357-.2.528-.08a.37.37 0 0 1 .092.52l-3.162 4.34a.369.369 0 0 1-.245.146ZM238.987 49.259a2.98 2.98 0 0 1-.223.042c-1.595.239-3.119-.84-3.397-2.407-.279-1.566.792-3.035 2.386-3.274.39-.058.782-.04 1.165.055l-.17.717a2.217 2.217 0 0 0-.865-.04c-1.184.177-1.978 1.267-1.772 2.43.207 1.163 1.339 1.965 2.523 1.787a2.086 2.086 0 0 0 1.687-2.756l.716-.223c.049.142.087.289.113.437.266 1.492-.693 2.895-2.163 3.232Z" fill="#F37E60"/><path d="M238.536 47.36a.39.39 0 0 1-.283-.069l-1.257-.89a.37.37 0 0 1-.092-.519c.12-.165.357-.2.528-.08l.947.672 2.944-4.04a.381.381 0 0 1 .528-.08.369.369 0 0 1 .093.518l-3.163 4.34a.37.37 0 0 1-.244.147h-.001ZM240.635 59.024a2.93 2.93 0 0 1-.223.042c-1.594.24-3.118-.84-3.397-2.406-.279-1.567.792-3.035 2.386-3.274.39-.059.783-.04 1.166.054l-.17.717a2.218 2.218 0 0 0-.865-.04c-1.184.178-1.979 1.268-1.772 2.43.207 1.164 1.338 1.965 2.522 1.788.056-.009.111-.02.165-.032a2.085 2.085 0 0 0 1.522-2.724l.716-.224c.049.142.087.29.114.437.265 1.492-.694 2.896-2.164 3.232Z" fill="#F37E60"/><path d="M240.185 57.133a.387.387 0 0 1-.283-.068l-1.257-.891a.368.368 0 0 1-.092-.518c.12-.166.356-.201.528-.08l.946.671 2.945-4.04c.12-.166.356-.201.528-.08a.37.37 0 0 1 .092.519l-3.162 4.34a.371.371 0 0 1-.245.147ZM237.458 40.22a3.006 3.006 0 0 1-2.418-.483 2.927 2.927 0 0 1-1.205-1.882c-.278-1.566.792-3.035 2.387-3.274a3.007 3.007 0 0 1 2.193.525 2.929 2.929 0 0 1 1.204 1.882 2.773 2.773 0 0 1-.489 2.135 2.837 2.837 0 0 1-1.672 1.096Zm-1.271-4.876a2.086 2.086 0 0 0-1.607 2.4c.101.563.418 1.059.895 1.396a2.231 2.231 0 0 0 1.628.39 2.114 2.114 0 0 0 1.408-.845 2.06 2.06 0 0 0 .363-1.585 2.168 2.168 0 0 0-.894-1.397 2.23 2.23 0 0 0-1.793-.359Z" fill="#F37E60"/><path d="m299.094 63.015-10.692-13.007-.822.637-1.976-2.403a11.912 11.912 0 0 0 3.222-6.288c.595-3.37-.251-6.979-2.638-9.881a12.826 12.826 0 0 0-5.69-3.968c-3.992-1.4-8.585-.829-12.109 1.906-.512.398-.984.827-1.413 1.282a11.999 11.999 0 0 0-2.478 3.94c-1.493 3.897-.906 8.46 1.947 11.998.027.034.052.067.08.1a12.78 12.78 0 0 0 2.85 2.565c4.012 2.643 9.29 2.884 13.507.459l1.976 2.403-.822.638 10.693 13.007a1.532 1.532 0 0 0 2.11.245l2.035-1.58c.643-.499.743-1.418.221-2.053h-.001Z" fill="#6683C2" fill-opacity=".63" style="mix-blend-mode:multiply" opacity=".25"/><path opacity=".31" d="M278.782 49.121c5.943-1.36 9.532-7.202 8.014-13.05-1.518-5.848-7.566-9.487-13.51-8.127-5.944 1.36-9.532 7.203-8.015 13.05 1.518 5.849 7.567 9.487 13.511 8.127Z" fill="#fff"/><path d="m285.448 45.476-2.487 2.344 3.326 3.293 2.487-2.344-3.326-3.293Z" fill="#4C4C4C"/><path d="M284.963 29.99a13.09 13.09 0 0 0-1.71-1.448 12.998 12.998 0 0 0-4.356-2.01c-4.109-1.039-8.602-.048-11.804 3.013a11.872 11.872 0 0 0-3.3 5.587c-1.063 4.04.008 8.558 3.216 11.843a13.03 13.03 0 0 0 3.191 2.404c4.762 2.552 10.77 1.956 14.766-1.865a11.92 11.92 0 0 0 3.671-7.863c.229-3.43-.996-6.97-3.674-9.66Zm1.275 10.474a9.74 9.74 0 0 1-2.89 5.425c-2.69 2.572-6.492 3.36-9.926 2.4a10.644 10.644 0 0 1-4.708-2.762c-3.109-3.127-3.828-7.65-2.155-11.332a9.759 9.759 0 0 1 2.15-3.025c3.185-3.046 7.931-3.589 11.777-1.692a10.707 10.707 0 0 1 2.861 2.057c2.459 2.47 3.422 5.816 2.891 8.928ZM300.956 61.56l-1.844 1.764c-.583.558-1.529.535-2.113-.053l-11.961-12.034 3.956-3.784 11.961 12.034c.584.587.584 1.515.001 2.073Z" fill="#5B5B5B"/><path d="M216.128 44.894c-.038-.123-.396-.247-.941-.362-.299-1.091-.819-2.286-.186-3.05 0 0-.453-1.365-.677-1.828-.225-.463-.657-.331-1.35-.112-.693.218-4.373 1.596-6.157 2.4-1.783.805-2.904 1.545-5.224 2.677-2.387.992-3.694 1.346-5.478 2.151-1.783.805-5.238 2.645-5.856 3.019-.619.373-1.001.608-.777 1.07.225.464 1.02 1.674 1.02 1.674 1.015.021 1.632 1.172 2.309 2.093-.258.477-.389.821-.316.93.286.418 1.25.531 1.616.416.441.302.929.435 1.72.43 1.339-.008 3.557-1.102 4.503-1.592.945-.489 1.686-1.137 1.929-2.218.242-1.082.196-3.288.117-3.912-.142-1.135-.114-1.422.384-1.647.499-.225.746-.061 1.557.772.446.458 2.171 1.906 3.188 2.42 1.016.514 2.006.38 3.002-.006.995-.386 3.289-1.326 4.153-2.312.511-.582.718-1.03.76-1.55.327-.196.855-.982.704-1.462Zm-3.018-3.116c.135.225.265.5.406.813.191.425.43 1.102.631 1.763-1.76-.25-4.239-.414-5.482-.35 1.791-.9 3.409-1.709 4.445-2.226Zm-4.903.478c1.2-.508 2.066-.802 2.705-.966a1557.285 1557.285 0 0 0-6.991 3.836c.304-.938 3.288-2.447 4.286-2.87Zm-7.701 4.411c-2.663.951-5.488 1.973-7.534 2.716.54-.368 1.328-.82 2.502-1.383.977-.468 4.091-1.71 5.032-1.333Zm-8.169 5.477a8.052 8.052 0 0 1-.387-.822c1.076-.435 2.758-1.114 4.621-1.863-.848.879-2.307 2.818-3.235 4.283-.398-.573-.783-1.184-.999-1.598Zm9.463-.724c-.142 1.224-.373 1.736-1.388 2.413-1.014.677-2.429 1.253-3.541 1.598-1.035.32-1.791.189-2.292-.182.485-1.002 1.302-2.827 1.523-3.315.298-.658 1.114-1.91 2.502-2.765.32-.197 1.328-.729 2.687-1.429.478 1.149.613 2.773.508 3.68h.001Zm11.424-3.366c-.987.602-2.352 1.28-3.541 1.597-1.189.317-1.745.16-2.81-.52-.788-.503-1.994-1.645-2.601-2.735 1.428-.557 2.496-.963 2.858-1.073 1.571-.479 3.091-.281 3.805-.08.529.15 2.507.715 3.614.998-.026.608-.406 1.252-1.325 1.813Z" fill="#6683C2" fill-opacity=".65" style="mix-blend-mode:multiply" opacity=".25"/><path d="M191.595 53.568s14.299-7.137 15.827-7.732c1.527-.595 3.06-.498 3.79-.342.729.156 4.162.903 4.445.882.283-.022.925-1.044.707-1.593-.218-.55-6.732-.666-8.048-.3-1.315.365-17.539 7.749-17.539 7.749l.818 1.335Z" fill="#5B5B5B"/><path d="M214.168 41.218s-13.614 8.115-14.923 9.068c-1.309.953-2.017 2.264-2.258 2.945-.242.68-1.366 3.89-1.531 4.111-.165.222-1.388.227-1.754-.234-.366-.46 2.902-5.883 3.901-6.778.999-.896 15.825-10.47 15.825-10.47l.74 1.358Z" fill="#5B5B5B"/><path d="M212.735 39.656c-.672.267-4.22 1.902-5.929 2.832-1.709.93-2.764 1.75-4.98 3.043-2.294 1.16-3.566 1.605-5.275 2.535-1.709.93-4.997 3.013-5.581 3.43-.585.416-.947.679-.686 1.127.261.448 1.149 1.605 1.149 1.605 1.19-.058 1.959 1.491 2.869 2.374.909.882 1.411 1.232 2.741 1.131 1.331-.1 3.449-1.351 4.35-1.907.901-.555 1.586-1.256 1.74-2.356.154-1.1-.07-3.307-.198-3.925-.233-1.128-.228-1.418.249-1.677.478-.26.737-.114 1.611.665.48.427 2.313 1.758 3.365 2.202 1.052.444 2.026.242 2.985-.214.959-.456 3.164-1.557 3.944-2.604.781-1.048.732-1.644.425-2.855-.306-1.21-1.276-2.65-.606-3.604 0 0-.56-1.335-.821-1.783-.261-.449-.68-.286-1.352-.019ZM202.578 52.33c-.042 1.236-.231 1.765-1.185 2.514-.954.748-2.315 1.423-3.393 1.845-1.077.423-1.876.3-2.407-.1-.53-.4-1.849-2.044-2.367-2.877-.517-.833-.825-1.42-.503-1.89.322-.47 1.084-1.21 3.29-2.478.993-.57 4.32-2.186 5.056-1.603 1.054.835 1.552 3.353 1.51 4.589h-.001Zm10.942-9.657c.467.86 1.233 2.805 1.311 3.451.078.646-.229 1.37-1.162 2.042-.933.671-2.236 1.446-3.393 1.845-1.157.4-1.722.281-2.836-.326-1.114-.607-3.079-2.328-3.269-3.632-.133-.911 3.022-2.822 4.042-3.346 2.266-1.165 3.316-1.41 3.898-1.432.583-.022.941.538 1.408 1.398h.001Z" fill="#5B5B5B"/><path d="M288.379 22.212a2.383 2.383 0 0 0 1.795-2.94c-.345-1.32-1.707-2.143-3.044-1.839a2.383 2.383 0 0 0-1.795 2.94c.345 1.32 1.708 2.143 3.044 1.839ZM196.714 21.446a1.52 1.52 0 0 0 1.145-1.875 1.64 1.64 0 0 0-1.942-1.173 1.519 1.519 0 0 0-1.144 1.876 1.64 1.64 0 0 0 1.941 1.172ZM281.026 82.157a1.52 1.52 0 0 0 1.145-1.875 1.64 1.64 0 0 0-1.941-1.172 1.52 1.52 0 0 0-1.145 1.874 1.64 1.64 0 0 0 1.941 1.173Z" fill="#F37E60"/></g><defs><linearGradient id="b" x1="150" y1="0" x2="150" y2="142" gradientUnits="userSpaceOnUse"><stop stop-color="#6683C2"/><stop offset="1" stop-color="#8FABE9"/></linearGradient><clipPath id="a"><path fill="#fff" d="M0 0h300v142H0z"/></clipPath></defs></svg>