<svg width="88" height="88" fill="none" xmlns="http://www.w3.org/2000/svg"><circle cx="43.988" cy="43.988" r="43.988" fill="#fff"/><path d="M49.898 39.4h-3.106V24.646h-1.387c-2.54 0-3.867 1.219-3.867 3.037 0 2.063.918 3.019 2.812 4.237l1.563 1.012L41.42 39.4h-3.34l4.044-5.774c-2.325-1.593-3.634-3.15-3.634-5.774 0-3.28 2.383-5.512 6.896-5.512h4.492l.02 17.06Z" fill="#FC3F1D"/><path d="M21.41 50.245h9.57c.223 0 .403.17.403.38v1.778c0 .236-.109.46-.298.616l-5.352 4.227h5.247c.223 0 .403.168.403.378v2.04c0 .21-.18.381-.403.381h-9.57a.393.393 0 0 1-.404-.38V57.89c0-.237.109-.46.298-.616l5.352-4.227h-5.247a.396.396 0 0 1-.403-.385v-2.036c0-.21.18-.381.403-.381Zm16.644-.348c1.107 0 2.093.235 2.917.665a4.775 4.775 0 0 1 1.939 1.83c.455.778.704 1.71.704 2.754 0 1.045-.25 1.977-.704 2.755a4.776 4.776 0 0 1-1.939 1.83c-.824.43-1.81.665-2.917.665-1.106 0-2.093-.235-2.916-.665a4.775 4.775 0 0 1-1.94-1.83c-.454-.778-.703-1.71-.703-2.755 0-1.044.249-1.976.704-2.754a4.774 4.774 0 0 1 1.939-1.83c.823-.43 1.81-.665 2.916-.665Zm0 2.8c-.529 0-.994.105-1.378.302a2.136 2.136 0 0 0-.896.846c-.208.363-.32.802-.32 1.301 0 .5.112.939.32 1.302.208.363.512.65.896.846.384.197.849.302 1.378.302.53 0 .994-.105 1.379-.302.384-.196.688-.483.896-.846.208-.363.32-.802.32-1.302s-.112-.938-.32-1.301a2.136 2.136 0 0 0-.896-.846c-.385-.197-.85-.302-1.379-.302Zm11.86-2.8c1.107 0 2.093.235 2.917.665a4.775 4.775 0 0 1 1.939 1.83c.454.778.703 1.71.703 2.754 0 1.045-.248 1.977-.703 2.755a4.776 4.776 0 0 1-1.94 1.83c-.823.43-1.81.665-2.916.665-1.107 0-2.093-.235-2.917-.665a4.775 4.775 0 0 1-1.939-1.83c-.454-.778-.703-1.71-.703-2.755 0-1.044.249-1.976.703-2.754a4.774 4.774 0 0 1 1.94-1.83c.823-.43 1.81-.665 2.916-.665Zm0 2.8c-.53 0-.994.105-1.378.302a2.136 2.136 0 0 0-.897.846c-.207.363-.32.802-.32 1.301 0 .5.113.939.32 1.302.208.363.512.65.897.846.384.197.849.302 1.378.302.53 0 .994-.105 1.378-.302.385-.196.689-.483.897-.846.208-.363.32-.802.32-1.302s-.112-.938-.32-1.301a2.135 2.135 0 0 0-.897-.846c-.384-.197-.849-.302-1.378-.302Zm17.05-2.07v9.037c0 .21-.18.381-.404.381h-1.88a.885.885 0 0 1-.653-.281L59.55 54.71v4.953c0 .21-.185.381-.407.381h-2.156a.393.393 0 0 1-.403-.381v-9.037c0-.21.18-.381.403-.381h1.881c.25 0 .488.103.652.282l4.478 5.054v-4.955a.39.39 0 0 1 .4-.381h2.162c.223 0 .404.17.404.381Z" fill="url(#a)"/><defs><linearGradient id="a" x1="67.673" y1="53.131" x2="46.59" y2="52.88" gradientUnits="userSpaceOnUse"><stop stop-color="#6339F5"/><stop offset="1" stop-color="#3D3F55"/></linearGradient></defs></svg>