<svg width="111" height="111" viewBox="0 0 111 111" fill="none" xmlns="http://www.w3.org/2000/svg">
<circle cx="55.5" cy="55.5" r="55.5" fill="#F8C0A2"/>
<path d="M100.578 11.6639C100.066 11.664 99.574 11.8653 99.2087 12.2245C98.8434 12.5836 98.6338 13.0719 98.6251 13.5841L97.9221 55.0538H103.234L102.531 13.5841C102.522 13.0718 102.313 12.5835 101.947 12.2243C101.582 11.8651 101.09 11.6639 100.578 11.6639Z" fill="#DBDBDB"/>
<path d="M91.0516 61.9868C92.4578 59.4091 94.0436 56.9335 95.7973 54.5784C96.2366 53.9989 96.7945 53.5196 97.4336 53.1727C98.0727 52.8257 98.7785 52.6189 99.5038 52.5662C100.229 52.5135 100.957 52.616 101.64 52.8668C102.323 53.1177 102.944 53.5112 103.462 54.0211C103.866 54.4167 104.254 54.8267 104.628 55.2505C105.384 56.0986 105.837 57.1729 105.919 58.3059C106 59.4389 105.704 60.5669 105.077 61.5142L99.5342 69.8391C99.5342 69.8391 93.5888 66.9239 91.0516 61.9868Z" fill="#FFD4CA"/>
<path d="M42.9374 104.227H49.6625C52.8574 103.41 56.2062 103.41 59.4011 104.227H66.1265L67.873 95.7887H41.2891L42.9374 104.227Z" fill="#464659"/>
<path d="M49.6629 97.1628H59.4012V104.227H49.6629V97.1628Z" fill="#FCC583"/>
<path d="M44.5911 47.6897H64.4733C64.4733 47.6897 67.5406 67.9399 67.4415 97.3798C67.4415 97.3798 56.3569 99.783 41.4208 97.3798C41.4208 97.381 39.1651 75.606 44.5911 47.6897Z" fill="white"/>
<path d="M67.4415 97.381C67.444 96.6979 67.444 96.0219 67.4415 95.3489C61.7928 95.5637 57.8185 95.056 55.2303 94.4797C54.1407 94.2372 53.1765 93.6067 52.5175 92.7058C51.8586 91.8048 51.5499 90.6949 51.6489 89.5831L54.8083 54.0172L51.0024 47.6897H44.5911C39.1651 75.606 41.4208 97.3798 41.4208 97.3798C56.3569 99.7843 67.4415 97.381 67.4415 97.381Z" fill="#DBDBDB"/>
<path d="M64.4737 47.6897H44.5915C44.2962 49.2096 44.0235 50.7101 43.7734 52.1909C44.0838 52.7605 46.3236 56.7453 49.3771 58.939L54.4749 55.1503L59.2906 58.9384C59.2906 58.9384 62.4161 57.4004 65.165 53.1452C64.7657 49.6178 64.4737 47.6897 64.4737 47.6897Z" fill="#DBDBDB"/>
<path d="M50.5855 74.7425L49.6613 85.9276L54.5306 90.7111L59.4 85.9276L57.539 63.4064C54.7484 66.2823 52.4547 70.1069 50.5855 74.7425Z" fill="#F5941F"/>
<path d="M57.5406 63.4064L56.3965 49.557H52.6682L50.587 74.7425L57.5406 63.4064Z" fill="#EC872B"/>
<path d="M59.9711 44.5126H49.093L44.5908 47.6897C45.8546 50.3998 47.5284 52.8991 49.5531 55.0996L54.5319 50.4358L59.511 55.0996C61.5358 52.8991 63.2095 50.3998 64.4733 47.6897L59.9711 44.5126Z" fill="white"/>
<path d="M49.0928 41.4087V44.5125L54.5317 50.4357L59.9706 44.5125V41.6185L49.0928 41.4087Z" fill="#FFD4CA"/>
<path d="M49.0928 41.4087C52.8367 43.1322 57.6487 43.1626 59.9706 41.6185V37.6003H49.0928V41.4087Z" fill="#FFD4CA"/>
<path d="M44.5914 47.6897C44.5914 47.6897 44.3018 55.6953 43.9552 66.5106C42.6939 71.6106 42.6976 77.2541 43.4494 83.2184C43.2448 90.4511 43.0586 97.8046 42.9381 104.227L30.999 104.221C30.999 104.221 28.8825 86.5513 30.9542 70.1343C31.2916 67.4513 31.6017 64.8021 31.863 62.2688C32.0655 60.3 32.6886 58.3977 33.6903 56.6907C34.692 54.9838 36.0488 53.5119 37.6688 52.375C39.9257 50.792 42.5252 49.0059 44.5914 47.6897Z" fill="#F5941F"/>
<path d="M43.4492 83.2184C43.5412 79.9364 43.6388 76.6786 43.7348 73.5438L31.946 72.2157L30.6482 72.5062C28.5864 88.2076 25.7197 104.219 25.7197 104.219L31.2273 104.222C31.7431 104.222 32.2538 104.121 32.7304 103.923C33.207 103.726 33.6401 103.437 34.0049 103.072C34.3697 102.708 34.6591 102.275 34.8565 101.798C35.054 101.322 35.1556 100.811 35.1556 100.296V87.5663C37.3772 85.6032 37.2913 82.6153 37.2913 82.6153C39.3759 82.3013 41.9821 82.8383 43.4492 83.2184Z" fill="#EC872B"/>
<path d="M91.052 61.987L84.915 71.1615L74.3656 56.1076C72.7708 53.8294 70.7716 51.8632 68.4672 50.3064C67.1477 49.4161 65.8164 48.5434 64.4736 47.6885C64.4736 47.6885 65.7036 81.6906 66.1272 104.226H75.0181C75.0181 104.226 74.6543 91.9682 73.9267 78.278L83.3375 85.8575C83.7928 86.2242 84.3195 86.4921 84.8841 86.644C85.4487 86.7959 86.0387 86.8285 86.6165 86.7398C87.1944 86.6511 87.7475 86.443 88.2405 86.1288C88.7335 85.8145 89.1556 85.401 89.48 84.9146L99.5352 69.838L91.052 61.987Z" fill="#F5941F"/>
<path d="M4.07434 66.5513C4.07434 66.5513 19.4764 60.3207 25.7196 74.3244L8.70258 72.4255C8.70258 72.4255 7.39806 68.272 4.07434 66.5513ZM47.3649 66.5513C47.3649 66.5513 31.9628 60.3207 25.7196 74.3244L43.8841 73.0693C43.8841 73.0693 44.0418 68.272 47.3649 66.5513Z" fill="white"/>
<path d="M25.7196 74.3244C25.7196 74.3244 17.8348 67.2565 5.34293 72.6307C5.05443 72.7556 4.80878 72.9621 4.63627 73.225C4.46377 73.4878 4.37195 73.7953 4.37213 74.1097V79.1275C4.37183 79.2757 4.40955 79.4215 4.48168 79.5509C4.55381 79.6803 4.65794 79.7891 4.78411 79.8668C4.91028 79.9445 5.05428 79.9885 5.20233 79.9947C5.35038 80.0009 5.49753 79.9689 5.62972 79.902C8.59794 78.3867 16.4898 75.2906 25.7205 79.2493C34.953 75.2906 42.8436 78.3867 45.8112 79.902C45.9434 79.9689 46.0906 80.0009 46.2386 79.9947C46.3867 79.9885 46.5307 79.9445 46.6568 79.8668C46.783 79.7891 46.8871 79.6803 46.9593 79.5509C47.0314 79.4215 47.0691 79.2757 47.0688 79.1275V74.1097C47.069 73.7953 46.9772 73.4878 46.8047 73.225C46.6322 72.9621 46.3865 72.7556 46.098 72.6307C33.604 67.2565 25.7196 74.3244 25.7196 74.3244Z" fill="#FCC583"/>
<path d="M20.4648 84.0481V98.6791C20.4647 99.4077 20.6082 100.129 20.887 100.802C21.1658 101.475 21.5745 102.087 22.0897 102.602C22.6049 103.117 23.2166 103.526 23.8897 103.805C24.5628 104.084 25.2843 104.227 26.0129 104.227C27.4842 104.227 28.8952 103.642 29.9356 102.602C30.9759 101.562 31.5604 100.151 31.5604 98.6794V82.1678L20.4648 84.0481Z" fill="#F5941F"/>
<path d="M22.0108 77.1942H29.4293C30.6481 77.1942 31.817 77.6784 32.6788 78.5402C33.5406 79.402 34.0247 80.5709 34.0247 81.7896C34.0247 83.3219 33.4161 84.7913 32.3326 85.8748C31.2492 86.9582 29.7797 87.5669 28.2475 87.5669H23.1923C21.6601 87.5669 20.1906 86.9582 19.1072 85.8748C18.0237 84.7913 17.415 83.3219 17.415 81.7896C17.415 80.5709 17.8992 79.402 18.761 78.5402C19.6228 77.6784 20.792 77.1942 22.0108 77.1942Z" fill="#FFD4CA"/>
<path d="M41.6064 24.9769H44.7458V33.3589H41.6064C40.6754 33.3589 39.7824 32.9891 39.1241 32.3307C38.4657 31.6724 38.0959 30.7794 38.0959 29.8484V28.4874C38.0959 27.5564 38.4657 26.6635 39.1241 26.0051C39.7824 25.3468 40.6754 24.9769 41.6064 24.9769ZM66.3726 33.3589H63.2333V24.9769H66.3726C67.3037 24.9769 68.1966 25.3468 68.8549 26.0051C69.5133 26.6635 69.8831 27.5564 69.8831 28.4874V29.8484C69.8831 30.3094 69.7923 30.7659 69.6159 31.1918C69.4395 31.6177 69.1809 32.0047 68.8549 32.3307C68.529 32.6567 68.142 32.9153 67.716 33.0917C67.2901 33.2681 66.8336 33.3589 66.3726 33.3589Z" fill="#FFD4CA"/>
<path d="M45.9192 10.8141C44.6579 10.6338 43.3714 10.793 42.1921 11.2753C41.0128 11.7575 39.9833 12.5454 39.2098 13.5578C36.5863 16.8481 35.6284 24.3126 44.7705 28.1888L64.6315 25.2031C65.772 25.3748 66.9252 25.4467 68.0782 25.4178C69.9207 25.3724 71.6722 23.332 71.6648 21.4886C71.6283 20.3545 71.339 19.2428 70.8179 18.2348C70.2013 16.9491 69.7738 15.5811 69.5487 14.1731C69.0699 11.1898 66.924 6.07361 57.8374 6.07361C48.504 6.07361 45.9192 10.8141 45.9192 10.8141Z" fill="#FCC583"/>
<path d="M45.5102 35.1441C46.6665 36.7947 48.6388 38.5375 52.0003 39.5328C53.3445 39.9439 54.763 40.0526 56.1541 39.851C57.5453 39.6495 58.8746 39.1428 60.047 38.3673C62.0053 37.0276 63.5164 35.1309 64.3847 32.9228C64.8399 31.7969 65.0708 30.593 65.0645 29.3786V25.6147C65.064 25.233 64.9581 24.8588 64.7584 24.5334C64.5588 24.2081 64.2731 23.9442 63.9329 23.7709C62.4091 22.99 59.636 21.1223 57.4438 17.153C57.0141 16.3507 56.3444 15.703 55.5283 15.3003C55.4403 15.2582 55.3483 15.2163 55.2522 15.1746C49.8762 12.8434 43.8842 16.9146 43.8842 22.7744V29.8071C43.8663 31.7107 44.4339 33.5739 45.5102 35.1441Z" fill="#FFD4CA"/>
<path d="M51.3294 27.3069C51.0447 27.3069 50.7716 27.1938 50.5703 26.9924C50.369 26.7911 50.2559 26.518 50.2559 26.2333V25.2374C50.2559 24.9526 50.369 24.6796 50.5703 24.4783C50.7716 24.2769 51.0447 24.1638 51.3294 24.1638C51.6141 24.1638 51.8872 24.2769 52.0885 24.4783C52.2899 24.6796 52.403 24.9526 52.403 25.2374V26.2333C52.403 26.518 52.2899 26.7911 52.0885 26.9924C51.8872 27.1938 51.6141 27.3069 51.3294 27.3069ZM58.3198 27.3069C58.035 27.3069 57.762 27.1938 57.5607 26.9924C57.3593 26.7911 57.2462 26.518 57.2462 26.2333V25.2374C57.2462 24.9526 57.3593 24.6796 57.5607 24.4783C57.762 24.2769 58.035 24.1638 58.3198 24.1638C58.6045 24.1638 58.8776 24.2769 59.0789 24.4783C59.2802 24.6796 59.3933 24.9526 59.3933 25.2374V26.2333C59.3933 26.518 59.2802 26.7911 59.0789 26.9924C58.8776 27.1938 58.6045 27.3069 58.3198 27.3069ZM54.8102 34.1721C52.2287 34.1721 50.9892 33.0136 50.5773 32.5157C50.3955 32.2966 50.3083 32.0142 50.3347 31.7307C50.3611 31.4472 50.4991 31.1858 50.7183 31.004C50.9374 30.8223 51.2198 30.735 51.5033 30.7614C51.7868 30.7878 52.0482 30.9258 52.23 31.145C52.3527 31.2919 53.0492 32.025 54.8114 32.025C56.5736 32.025 57.2711 31.2919 57.3928 31.145C57.4829 31.0365 57.5934 30.9467 57.7181 30.8809C57.8428 30.8151 57.9792 30.7745 58.1196 30.7615C58.26 30.7484 58.4016 30.7631 58.5363 30.8047C58.671 30.8464 58.7962 30.9142 58.9047 31.0042C59.0132 31.0942 59.1029 31.2047 59.1687 31.3294C59.2345 31.4541 59.2751 31.5906 59.2882 31.731C59.3013 31.8713 59.2866 32.0129 59.2449 32.1476C59.2033 32.2824 59.1355 32.4075 59.0455 32.5161C58.6311 33.0139 57.3916 34.1721 54.8102 34.1721Z" fill="#F99C9C"/>
<path d="M104.278 53.3209L103.604 13.5657C103.59 12.7722 103.265 12.0159 102.699 11.4596C102.133 10.9034 101.371 10.5917 100.577 10.5917C99.7837 10.5917 99.0218 10.9034 98.4558 11.4596C97.8897 12.0159 97.5648 12.7722 97.5509 13.5657L96.8952 52.2415C96.1375 52.6565 95.4757 53.2264 94.953 53.9141L94.9499 53.9168L94.948 53.9199L94.9388 53.9316C93.1609 56.3164 91.5534 58.8237 90.1284 61.4348L84.8941 69.2628L75.2444 55.4925C73.5756 53.1057 71.4817 51.0465 69.0675 49.4177C67.7792 48.5485 61.045 43.9561 61.045 43.9561V38.9672C62.6583 37.7779 63.9678 36.2241 64.8665 34.4325H66.3722C67.5876 34.4311 68.7528 33.9477 69.6121 33.0883C70.4715 32.2289 70.9549 31.0638 70.9563 29.8484V28.4875C70.9568 27.4369 70.5944 26.4185 69.9306 25.6042C70.7612 25.2838 71.4746 24.7183 71.976 23.9828C72.4775 23.2473 72.7433 22.3766 72.7381 21.4864C72.6995 20.193 72.3741 18.9244 71.7854 17.7722C71.2135 16.5798 70.8171 15.3109 70.6085 14.005C70.1738 11.2968 68.0602 5 57.8375 5C49.9309 5 46.5097 8.27035 45.4042 9.67639C44.0586 9.59609 42.7138 9.84685 41.4875 10.4067C40.2612 10.9666 39.1908 11.8185 38.37 12.8878C37.0247 14.6431 36.3116 16.8013 36.3463 19.0126C36.381 21.2238 37.1614 23.3586 38.5611 25.0708C38.0777 25.4992 37.6905 26.0252 37.4253 26.6141C37.16 27.203 37.0226 27.8415 37.0223 28.4875V29.8484C37.0236 31.0638 37.507 32.2289 38.3664 33.0883C39.2258 33.9477 40.391 34.4311 41.6063 34.4325H43.8504C44.0753 34.8949 44.3364 35.3388 44.6313 35.76C45.5332 37.0394 46.686 38.1219 48.0197 38.9414V43.9561C48.0197 43.9561 39.8914 49.5036 37.052 51.4958C35.3057 52.7208 33.8432 54.3069 32.7636 56.1467C31.684 57.9864 31.0125 60.0367 30.7947 62.1587C30.6312 63.7351 30.456 65.3103 30.2693 66.8841C28.3993 68.2242 26.8461 69.9582 25.7193 71.9639C22.1744 65.8379 16.7263 64.2855 12.6002 64.1138C9.55865 64.012 6.52628 64.5016 3.6713 65.5554C3.48097 65.6323 3.31669 65.7622 3.19792 65.9296C3.07915 66.097 3.01088 66.295 3.0012 66.5001C2.99151 66.7051 3.04082 66.9087 3.14328 67.0865C3.24574 67.2644 3.39705 67.4092 3.57928 67.5037C5.1255 68.3046 6.18832 69.753 6.83429 70.8992C5.83908 71.2466 4.86311 71.6468 3.91055 72.0982C3.72692 72.1853 3.57178 72.3228 3.46318 72.4946C3.35459 72.6664 3.29699 72.8655 3.29709 73.0687V80.6142C3.30284 80.8073 3.3581 80.9956 3.45757 81.1611C3.55705 81.3267 3.6974 81.4639 3.86515 81.5596C4.04081 81.6354 4.23154 81.67 4.42266 81.6606C4.61377 81.6512 4.80018 81.5981 4.96754 81.5053C8.74706 79.2862 13.0894 78.2118 17.4677 78.4125C16.7369 79.3868 16.3417 80.5717 16.3414 81.7896C16.3417 82.9168 16.6203 84.0265 17.1523 85.0203C17.6843 86.014 18.4533 86.8612 19.3912 87.4865V98.6794C19.3932 100.435 20.0915 102.118 21.3329 103.359C22.5743 104.6 24.2573 105.299 26.0128 105.3L75.0352 105.105C75.1769 105.102 75.3166 105.071 75.4463 105.013C75.5759 104.956 75.6929 104.874 75.7905 104.771C75.8881 104.668 75.9643 104.547 76.0148 104.414C76.0654 104.282 76.0892 104.141 76.0848 103.999C76.048 102.792 75.7244 92.4659 75.1229 80.6213L82.6639 86.6945C83.2353 87.1548 83.8964 87.4909 84.6049 87.6815C85.3134 87.8722 86.0539 87.9131 86.7792 87.8018C87.5044 87.6905 88.1985 87.4293 88.8172 87.0349C89.436 86.6405 89.9658 86.1216 90.3729 85.5112L100.429 70.4348L105.972 62.1099C106.728 60.965 107.085 59.6024 106.988 58.2337C106.891 56.8649 106.345 55.5666 105.434 54.5401C105.062 54.1211 104.677 53.7145 104.278 53.3209ZM63.1126 48.0436C62.1036 50.018 60.872 51.8704 59.4417 53.5647L56.0419 50.3803L60.1248 45.9339L63.1126 48.0436ZM54.5322 51.9084L55.5956 52.9043L58.2902 85.5161L54.5322 89.2063L50.7742 85.5145L53.4688 52.9028L54.5322 51.9084ZM50.1668 44.096V40.0285C50.6554 40.2269 52.8384 41.0229 54.8328 41.0229C56.2292 41.0232 57.6114 40.7436 58.8979 40.2005V44.096L54.5322 48.8503L50.1668 44.096ZM68.8092 29.85C68.8085 30.4961 68.5515 31.1155 68.0946 31.5723C67.6378 32.0292 67.0183 32.2862 66.3722 32.2869H65.7379C66.0055 31.3413 66.1397 30.3629 66.1367 29.3801V26.0505H66.3701C67.0162 26.0512 67.6356 26.3082 68.0925 26.7651C68.5493 27.2219 68.8063 27.8414 68.8071 28.4875L68.8092 29.85ZM41.6063 32.2869C40.9602 32.2862 40.3408 32.0292 39.8839 31.5723C39.4271 31.1155 39.1701 30.4961 39.1694 29.85V28.4875C39.1701 27.8414 39.4271 27.2219 39.8839 26.7651C40.3408 26.3082 40.9602 26.0512 41.6063 26.0505H42.8105V29.807C42.8099 30.6412 42.9048 31.4728 43.0933 32.2854L41.6063 32.2869ZM42.8105 22.7759V23.9049H41.6063C41.235 23.9065 40.8652 23.9533 40.5052 24.0445C39.2771 22.7285 38.5569 21.0187 38.4733 19.2207C38.3898 17.4226 38.9483 15.6534 40.0491 14.2292C40.6975 13.3697 41.5628 12.6981 42.5562 12.283C43.5496 11.868 44.6356 11.7246 45.7027 11.8674C45.928 11.9137 46.1622 11.8864 46.3708 11.7896C46.5794 11.6928 46.7514 11.5316 46.8615 11.3297C46.8842 11.2879 49.2405 7.14894 57.8375 7.14894C65.6864 7.14894 67.9614 11.0628 68.4884 14.346C68.7299 15.8559 69.1885 17.323 69.8499 18.7016C70.2993 19.5669 70.5523 20.5207 70.591 21.495C70.5878 22.1003 70.3457 22.6798 69.9172 23.1073C69.4887 23.5349 68.9087 23.7758 68.3034 23.7776C67.3517 23.8079 66.4041 23.6408 65.5201 23.2869C65.5042 23.2795 65.4873 23.2765 65.4714 23.27C65.4407 23.2559 65.4094 23.2433 65.3775 23.2323C65.337 23.2197 61.3026 21.9198 58.3841 16.6355C57.7681 15.5517 56.82 14.6948 55.6797 14.1911C54.2926 13.5773 52.7725 13.3254 51.2616 13.4591C49.7506 13.5927 48.2984 14.1076 47.0406 14.9555C45.7408 15.8041 44.6732 16.9635 43.9346 18.3288C43.196 19.6941 42.8096 21.2221 42.8105 22.7743V22.7759ZM46.3901 34.5297C45.4375 33.1412 44.9373 31.4923 44.958 29.8086V22.7743C44.9571 21.5778 45.2548 20.4 45.8242 19.3477C46.3935 18.2953 47.2165 17.4017 48.2185 16.7477C49.3557 15.9893 50.6909 15.582 52.0578 15.5763C53.0145 15.5368 53.9659 15.7371 54.8254 16.1591C55.5123 16.5013 56.093 17.0242 56.5051 17.6716C59.1049 22.3793 62.4921 24.3215 63.9923 24.9892V29.3785C63.9996 30.4533 63.7958 31.5191 63.3927 32.5154C62.6036 34.5275 61.229 36.2566 59.4466 37.4789C58.4068 38.1682 57.2267 38.6178 55.9918 38.795C54.7569 38.9722 53.498 38.8727 52.3063 38.5037C49.6843 37.728 47.694 36.3894 46.3901 34.5282V34.5297ZM48.9408 45.9354L53.0228 50.3806L49.6221 53.5644C48.1911 51.8707 46.9595 50.0182 45.9515 48.0433L48.9408 45.9354ZM32.9296 62.3804C33.1159 60.5645 33.6904 58.8099 34.6142 57.2355C35.538 55.6611 36.7895 54.3036 38.2838 53.2552C40.2616 51.8682 41.9888 50.6848 43.4436 49.7193C43.3461 52.4869 43.1614 57.8138 42.9498 64.3395C41.5889 64.1376 40.2122 64.0626 38.8375 64.1153C36.6794 64.1872 34.5557 64.6767 32.5839 65.5569C32.7096 64.4588 32.8259 63.3932 32.9308 62.3789L32.9296 62.3804ZM45.003 66.9222C43.9886 67.8858 43.1457 69.0152 42.5106 70.2618C36.5422 68.7211 31.856 69.852 28.8375 71.19C33.7768 64.9511 41.4189 65.9845 45.003 66.9222ZM6.45088 66.9338C8.42885 66.4208 10.4701 66.1935 12.5125 66.259C16.7965 66.4375 20.1834 68.0957 22.625 71.1992C19.6059 69.8572 14.9129 68.7181 8.9317 70.2618C8.29802 69.0203 7.4587 67.8951 6.44935 66.9338H6.45088ZM18.49 81.7896C18.491 80.8559 18.8623 79.9607 19.5225 79.3005C20.1827 78.6402 21.0778 78.2688 22.0116 78.2678H29.4286C30.3622 78.2691 31.2573 78.6406 31.9175 79.3008C32.5777 79.961 32.9493 80.856 32.9507 81.7896C32.9494 83.0367 32.4533 84.2323 31.5715 85.1141C30.6897 85.9959 29.4941 86.4919 28.247 86.4933H23.1918C21.9448 86.4919 20.7493 85.9958 19.8676 85.114C18.9858 84.2322 18.4898 83.0366 18.4885 81.7896H18.49ZM30.4883 98.6794C30.4883 99.8659 30.017 101.004 29.1779 101.843C28.3389 102.682 27.2009 103.153 26.0144 103.153C24.8278 103.153 23.6898 102.682 22.8508 101.843C22.0118 101.004 21.5404 99.8659 21.5404 98.6794V88.4377C22.0811 88.5722 22.6362 88.6403 23.1934 88.6404H28.247C29.0093 88.6404 29.7661 88.5127 30.4862 88.2625L30.4883 98.6794ZM41.8845 103.153H30.8794C32.0067 101.936 32.6333 100.338 32.6339 98.6794V87.0467C33.405 86.4047 34.0255 85.601 34.4513 84.6925C34.8771 83.784 35.0978 82.793 35.0978 81.7896C35.0971 80.5729 34.7024 79.3892 33.9728 78.4156C36.8612 78.2954 39.7464 78.7205 42.4774 79.6686C42.2097 88.8291 42.0106 96.7227 41.8845 103.153ZM26.9312 74.7438C28.8123 73.4015 35.8604 69.2508 45.9944 73.7576V78.788C41.507 76.5913 36.4636 75.7917 31.5168 76.4927C31.4993 76.4952 31.4833 76.5019 31.4662 76.5053C30.8165 76.2519 30.1255 76.1214 29.4283 76.1204H22.01C21.3159 76.1214 20.628 76.2508 19.981 76.5022C15.0159 75.7856 9.95008 76.5822 5.4445 78.788V73.7576C15.5359 69.265 22.6253 73.4159 24.5102 74.749C24.8634 74.9974 25.285 75.1301 25.7168 75.1287C26.1518 75.13 26.5764 74.9954 26.9312 74.7438ZM48.5893 103.153H44.0322C44.0588 101.783 44.0889 100.348 44.1224 98.8487C45.6622 99.0421 47.1512 99.1895 48.5893 99.2907V103.153ZM58.328 103.153H50.7364V99.4219C52.1538 99.4888 53.5062 99.5173 54.7825 99.5173C56.0425 99.5173 57.2265 99.4891 58.328 99.4425V103.153ZM44.1718 96.6933C44.2844 91.8859 44.4276 86.4764 44.6012 80.5155C45.2464 80.8036 45.8715 81.1347 46.4723 81.5065C46.6339 81.6145 46.8218 81.6767 47.016 81.6862C47.2102 81.6958 47.4033 81.6525 47.5747 81.5609C47.7462 81.4693 47.8896 81.3328 47.9896 81.1661C48.0895 80.9994 48.1424 80.8086 48.1424 80.6142V73.0687C48.1425 72.8655 48.0849 72.6664 47.9763 72.4946C47.8677 72.3228 47.7126 72.1853 47.529 72.0982C46.5762 71.6469 45.6002 71.2465 44.6049 70.8989C45.2543 69.7465 46.3158 68.3034 47.8599 67.5037C48.0422 67.4092 48.1935 67.2644 48.2959 67.0865C48.3984 66.9087 48.4477 66.7051 48.438 66.5001C48.4283 66.295 48.36 66.097 48.2413 65.9296C48.1225 65.7622 47.9582 65.6323 47.7679 65.5554C46.8943 65.2224 45.9984 64.9512 45.0868 64.7438C45.2628 59.3036 45.4211 54.6729 45.5272 51.6219C46.4803 53.1283 47.5708 54.5432 48.785 55.8483C48.9812 56.0497 49.2485 56.1661 49.5295 56.1725C49.8105 56.1789 50.0828 56.0749 50.288 55.8827L51.1346 55.0898L48.5918 85.8394C48.5788 85.9964 48.6006 86.1543 48.6555 86.3019C48.7104 86.4495 48.7972 86.5833 48.9095 86.6936L53.7789 91.4771C53.9796 91.6742 54.2497 91.7847 54.5311 91.7847C54.8125 91.7847 55.0826 91.6742 55.2834 91.4771L60.1524 86.6936C60.2648 86.5833 60.3515 86.4495 60.4064 86.3019C60.4614 86.1543 60.4831 85.9964 60.4702 85.8394L57.9308 55.0889C57.9308 55.0889 58.8979 56.1369 59.511 56.1719C59.6549 56.1757 59.798 56.1487 59.9306 56.0928C60.0633 56.0369 60.1825 55.9533 60.2803 55.8477C61.4942 54.5426 62.5847 53.1278 63.5378 51.6216C63.8261 59.9168 64.5 79.9385 64.8929 96.7163C58.0138 97.6024 51.0489 97.5946 44.1718 96.6933ZM60.4751 103.153V99.3232C62.3044 99.1968 63.816 99.0287 64.9423 98.8775C64.9751 100.337 65.0036 101.766 65.0325 103.153H60.4751ZM99.6987 13.6022C99.703 13.3718 99.7975 13.1523 99.962 12.9908C100.126 12.8294 100.348 12.7389 100.578 12.7389C100.809 12.7389 101.03 12.8294 101.194 12.9908C101.359 13.1523 101.453 13.3718 101.458 13.6022L102.107 51.8989C101.129 51.553 100.087 51.4285 99.0555 51.5345L99.6987 13.6022ZM88.5865 84.3201C88.3449 84.6825 88.0304 84.9905 87.6631 85.2246C87.2959 85.4587 86.8839 85.6138 86.4534 85.6799C86.0229 85.7459 85.5834 85.7216 85.1628 85.6085C84.7423 85.4953 84.3499 85.2957 84.0107 85.0226L74.9745 77.7448L74.3579 65.3529C74.3438 65.0685 74.2173 64.8014 74.0062 64.6103C73.7951 64.4192 73.5168 64.3197 73.2324 64.3338C72.948 64.3479 72.6809 64.4745 72.4897 64.6855C72.2986 64.8966 72.1992 65.175 72.2133 65.4594L72.854 78.3325V78.3359C73.4411 89.3864 73.7936 99.5778 73.904 102.982L67.1793 103.13C66.8053 84.0668 65.8848 57.2666 65.6189 49.7058C66.3717 50.1972 67.1206 50.6944 67.8657 51.1974C70.0624 52.6795 71.9675 54.5532 73.4859 56.725L84.0352 71.7789C84.1368 71.9204 84.2705 72.0358 84.4255 72.1153C84.5804 72.1949 84.7521 72.2365 84.9263 72.2365C85.1008 72.2346 85.2722 72.1902 85.4256 72.107C85.5791 72.0239 85.7099 71.9047 85.8069 71.7596L91.0044 63.988C93.1463 67.1056 96.3397 69.2469 97.9923 70.217L88.5865 84.3201ZM104.184 60.9195L99.1873 68.4239C97.6117 67.5037 94.1548 65.226 92.2755 61.9878C93.4115 59.9608 94.6569 57.997 96.0063 56.1054L98.6211 58.1503C98.8022 58.2846 98.9237 58.4841 98.96 58.7065C98.9964 58.929 98.9445 59.1568 98.8156 59.3417C98.7666 59.4354 98.6993 59.5184 98.6177 59.5856C98.5361 59.6529 98.4419 59.7031 98.3405 59.7333C98.2392 59.7635 98.1328 59.7731 98.0277 59.7615C97.9226 59.7498 97.8208 59.7172 97.7285 59.6656C97.6637 59.6339 97.598 59.5998 97.5313 59.5634C97.2815 59.4268 96.9877 59.3949 96.7144 59.4749C96.4412 59.5549 96.2109 59.7401 96.0742 59.9899C95.9375 60.2397 95.9057 60.5336 95.9857 60.8068C96.0657 61.0801 96.2509 61.3104 96.5007 61.447C96.5986 61.5007 96.6952 61.5504 96.789 61.5961C97.2086 61.8043 97.6703 61.9137 98.1386 61.916C98.6435 61.9118 99.1387 61.7774 99.5764 61.5258C100.014 61.2742 100.379 60.9138 100.637 60.4796C101.047 59.845 101.204 59.0792 101.076 58.3344C100.948 57.5896 100.544 56.9203 99.945 56.4593L97.4056 54.4733C98.1776 53.8741 99.141 53.5756 100.117 53.6332C101.092 53.6908 102.014 54.1006 102.71 54.7864C103.095 55.1654 103.467 55.5573 103.825 55.9615C104.423 56.6331 104.782 57.4831 104.847 58.3796C104.912 59.276 104.679 60.1689 104.184 60.9195Z" fill="#96544A"/>
</svg>
