<svg width="353" height="1584" fill="none" xmlns="http://www.w3.org/2000/svg"><mask id="a" style="mask-type:alpha" maskUnits="userSpaceOnUse" x="0" y="0" width="353" height="1584"><path fill="#D9D9D9" d="M0 0h353v1584H0z"/></mask><g mask="url(#a)"><path d="M0 10C0 4.477 4.474 0 9.997 0h243.488C268 0 299 23.3 322.5 54.963s30.5 49.713 30.5 57.95l-.191 1799.137c0 5.52-4.477 8.95-10 8.95H10c-5.523 0-10-4.48-10-10V10Z" fill="#fff"/><path opacity=".41" d="M272.091 17c.128.657.245 1.324.35 2H26a8 8 0 0 0-8 8v1903c0 4.42 3.582 8 8 8h301a8 8 0 0 0 8-8V78.451c.682.794 1.349 1.59 2 2.387V1930c0 5.35-4.202 9.72-9.485 9.99l-.515.01H26c-5.35 0-9.72-4.2-9.987-9.49L16 1930V27c0-5.523 4.477-10 10-10h246.091Z" fill="#F37E60"/><path d="M268.112 9c.4.638.775 1.306 1.124 2H18a8 8 0 0 0-8 8v1864c0 4.42 3.582 8 8 8h317a8 8 0 0 0 8-8V87.59c.698.973 1.367 1.94 2 2.9V1883c0 5.35-4.202 9.72-9.485 9.99l-.515.01H18l-.515-.01C12.202 1892.72 8 1888.35 8 1883V19c0-5.523 4.477-10 10-10h250.112Z" fill="#6683C2"/><path opacity=".32" d="M251 .05c20.627-1.316 24.544 23.419 21.193 46.344C309.009 42.444 352.009 90.653 353 111 351.442 77.874 283.191-2.034 251 .05Z" fill="url(#b)"/></g><defs><radialGradient id="b" cx="0" cy="0" r="1" gradientTransform="matrix(-9.06102 -190.791 164.2 -10.5284 209.431 181.226)" gradientUnits="userSpaceOnUse"><stop offset=".788" stop-color="#fff"/><stop offset=".813" stop-color="#FAFAFA"/><stop offset=".842" stop-color="#ECECEC"/><stop offset=".873" stop-color="#D4D4D4"/><stop offset=".906" stop-color="#B3B3B3"/><stop offset=".939" stop-color="#898989"/><stop offset=".946" stop-color="gray"/><stop offset=".966" stop-color="#828282"/><stop offset=".978" stop-color="#8B8B8B"/><stop offset=".988" stop-color="#999"/><stop offset=".996" stop-color="#ACACAC"/><stop offset="1" stop-color="#B9B9B9"/></radialGradient></defs></svg>