<svg preserveAspectRatio="none" width="482" height="1171" fill="none" xmlns="http://www.w3.org/2000/svg"><mask id="a" style="mask-type:alpha" maskUnits="userSpaceOnUse" x="0" y="0" width="482" height="1171"><path fill="#D9D9D9" d="M0 0h482v1171H0z"/></mask><g mask="url(#a)"><path d="M0 10C0 4.477 4.475 0 9.998 0h372.384c14.53 0 45.562 19.5 69.086 46C474.993 72.5 482 87.607 482 94.5c0 6.513-.171 971.67-.19 1078.02-.001 5.52-4.478 9.48-10 9.48H10c-5.523 0-10-4.48-10-10V10Z" fill="#fff"/><path opacity=".41" d="M402.096 25c.034.662.058 1.328.069 2H35.527a8 8 0 0 0-8 8v1480c0 4.42 3.582 8 8 8h411.448a8 8 0 0 0 8-8V60.16a122.3 122.3 0 0 1 2 1.612V1515l-.013.51c-.259 5.12-4.359 9.22-9.473 9.48l-.514.01H35.527l-.514-.01c-5.113-.26-9.214-4.36-9.473-9.48l-.013-.51V35c0-5.35 4.202-9.72 9.486-9.987l.514-.013h366.569Z" fill="#F37E60"/><path d="M401.004 17c.154.655.291 1.322.413 2H27.516a8 8 0 0 0-8 8v1480c0 4.42 3.581 8 8 8h427.463c4.419 0 8-3.58 8-8V67.056c.681.641 1.348 1.286 2 1.931V1507l-.012.51c-.259 5.12-4.36 9.22-9.473 9.48l-.515.01H27.516l-.515-.01c-5.113-.26-9.213-4.36-9.473-9.48l-.012-.51V27c0-5.35 4.201-9.72 9.485-9.987l.515-.013h373.488Z" fill="#6683C2"/><path opacity=".32" d="M379.895.044c20.648-1.139 24.569 20.253 21.215 40.08C437.964 36.71 481.008 78.402 482 96 480.441 67.35 412.119-1.759 379.895.044Z" fill="url(#b)"/></g><defs><radialGradient id="b" cx="0" cy="0" r="1" gradientUnits="userSpaceOnUse" gradientTransform="rotate(-93.146 243.32 -81.73) scale(165.258 164.623)"><stop offset=".788" stop-color="#fff"/><stop offset=".813" stop-color="#FAFAFA"/><stop offset=".842" stop-color="#ECECEC"/><stop offset=".873" stop-color="#D4D4D4"/><stop offset=".906" stop-color="#B3B3B3"/><stop offset=".939" stop-color="#898989"/><stop offset=".946" stop-color="gray"/><stop offset=".966" stop-color="#828282"/><stop offset=".978" stop-color="#8B8B8B"/><stop offset=".988" stop-color="#999"/><stop offset=".996" stop-color="#ACACAC"/><stop offset="1" stop-color="#B9B9B9"/></radialGradient></defs></svg>