<svg width="353" height="1135" fill="none" xmlns="http://www.w3.org/2000/svg"><mask id="a" style="mask-type:alpha" maskUnits="userSpaceOnUse" x="0" y="0" width="353" height="1135"><path fill="#D9D9D9" d="M0 0h353v1135H0z"/></mask><g mask="url(#a)"><g filter="url(#b)"><path d="M0 10C0 4.477 4.474 0 9.997 0h243.488C268 0 299 19.968 322.5 47.103S353 89.707 353 96.765c0 6.68-.172 1016.935-.19 1125.345-.001 5.52-4.478 9.39-10 9.39H10c-5.523 0-10-4.48-10-10V10Z" fill="#fff"/></g><path opacity=".41" d="M272.091 17c.128.657.245 1.324.35 2H26a8 8 0 0 0-8 8v1110c0 4.42 3.582 8 8 8h301a8 8 0 0 0 8-8V78.451c.682.794 1.349 1.59 2 2.387V1137l-.013.51c-.259 5.12-4.359 9.22-9.472 9.48l-.515.01H26l-.515-.01c-5.113-.26-9.213-4.36-9.472-9.48L16 1137V27c0-5.35 4.202-9.72 9.485-9.987L26 17h246.091Z" fill="#F37E60"/><path d="M268.995 9c.379.64.73 1.308 1.055 2H18a8 8 0 0 0-8 8v1122c0 4.42 3.582 8 8 8h317a8 8 0 0 0 8-8V76.65c.698.853 1.366 1.7 2 2.541V1141l-.013.51c-.259 5.12-4.359 9.22-9.472 9.48l-.515.01H18l-.515-.01c-5.113-.26-9.213-4.36-9.472-9.48L8 1141V19c0-5.35 4.202-9.72 9.485-9.987L18 9h250.995Z" fill="#6683C2"/><path opacity=".32" d="M251 .044c20.627-1.139 24.544 20.253 21.193 40.08C309.009 36.71 352.009 78.402 353 96 351.442 67.35 283.191-1.759 251 .044Z" fill="url(#c)"/></g><defs><radialGradient id="c" cx="0" cy="0" r="1" gradientUnits="userSpaceOnUse" gradientTransform="matrix(-9.06103 -165.0084 164.20462 -9.0169 209.431 156.736)"><stop offset=".788" stop-color="#fff"/><stop offset=".813" stop-color="#FAFAFA"/><stop offset=".842" stop-color="#ECECEC"/><stop offset=".873" stop-color="#D4D4D4"/><stop offset=".906" stop-color="#B3B3B3"/><stop offset=".939" stop-color="#898989"/><stop offset=".946" stop-color="gray"/><stop offset=".966" stop-color="#828282"/><stop offset=".978" stop-color="#8B8B8B"/><stop offset=".988" stop-color="#999"/><stop offset=".996" stop-color="#ACACAC"/><stop offset="1" stop-color="#B9B9B9"/></radialGradient><filter id="b" x="-16" y="-19" width="385" height="1263.5" filterUnits="userSpaceOnUse" color-interpolation-filters="sRGB"><feFlood flood-opacity="0" result="BackgroundImageFix"/><feColorMatrix in="SourceAlpha" values="0 0 0 0 0 0 0 0 0 0 0 0 0 0 0 0 0 0 127 0" result="hardAlpha"/><feOffset dy="-3"/><feGaussianBlur stdDeviation="8"/><feComposite in2="hardAlpha" operator="out"/><feColorMatrix values="0 0 0 0 0 0 0 0 0 0 0 0 0 0 0 0 0 0 0.09 0"/><feBlend in2="BackgroundImageFix" result="effect1_dropShadow_2025_1306"/><feBlend in="SourceGraphic" in2="effect1_dropShadow_2025_1306" result="shape"/></filter></defs></svg>