<svg width="320" height="244" fill="none" xmlns="http://www.w3.org/2000/svg"><mask id="a" style="mask-type:alpha" maskUnits="userSpaceOnUse" x="0" y="0" width="320" height="244"><path fill="#D9D9D9" d="M0 0h320v244H0z"/></mask><g mask="url(#a)"><path d="m343.923 131.727.94 112.041H144.73l199.193-112.041Z" fill="#666F82"/><g clip-path="url(#b)"><path d="M202.911 295.743c.778.086 1.382.432 2.16.605 1.21.172 2.42.172 3.629 0 .605-.087 1.21-.26 1.815-.432.518-.173.95-.346 1.382-.692.432-.345.778-.691 1.037-1.123.692-.951 1.124-1.901 1.556-2.938.173-.432.259-.95.432-1.382.605-2.42.518-5.099.345-7.604-.259-3.111-.518-6.308-.864-9.419-.95-8.641-2.074-17.282-2.246-25.923-.173-10.542 1.296-21.083 2.851-31.539.519-3.456 1.037-6.74 1.21-10.196a47.084 47.084 0 0 1 17.627 16.331c1.901 6.481 3.111 13.134 3.543 19.874.259 3.37.259 6.74-.605 10.024-.518 1.901-1.296 3.802-2.074 5.616-2.246 5.444-4.147 10.974-5.616 16.677-.691 2.765-1.21 5.53-1.642 8.382-.605 4.234-.778 8.554-.432 12.875v.173c0 .432.086.864.086 1.296.346 3.629 1.037 7.604 2.506 10.887.087.087.087.259.173.346.346.864.605 1.987-.259 2.592-1.123.778-2.765 1.123-4.061 1.469-2.765.864-5.703 1.555-8.641 1.815-4.148.345-8.209-.605-12.098-2.074-.777-.346-1.641-.692-2.419-1.037-2.592-1.296-5.184-3.284-5.703-6.394-.691-3.284 2.42-8.382 6.308-8.209Z" fill="#EFC0AC"/><path d="M231.341 283.559c.345 1.21 1.036 2.333 1.901 3.284 3.197 3.802 7.776 6.307 12.615 7.431 4.753 1.037 10.196.432 14.776-1.469 2.506-1.037 2.16-2.42 1.469-4.148-.259-.691-.691-1.469-.864-2.333-.95-3.024-1.555-6.049-1.987-9.159-.778-5.358-.778-10.801-.087-16.159-4.666-3.888-8.641-8.468-12.615-13.134-1.642-1.901-3.025-3.888-4.148-6.049 1.123 8.382 2.247 16.677 3.283 25.059.26 1.901.519 3.888.432 5.876-.086 1.642-.432 3.37-1.728 4.32-.086.087-.259.173-.345.26-.864.518-1.729.432-2.765.345-1.556-.173-3.198.087-4.753.259-1.642.173-3.456.605-4.493 1.988-.864 1.037-1.037 2.419-.691 3.629Z" fill="#FFA361"/><path d="M216.046 205.1c.086-1.556 1.408-2.077 1.321-3.633-.173-4.579 4.189-2.868 8.941-4.164 2.506-.691 1.23-7.066 3.823-6.72.345.087.777.087 1.123.173 7.69 1.037 15.467 2.074 22.898 4.148-.691.086-1.382.259-1.987.432-1.901.518-3.716 1.382-5.357 2.505-4.666 3.025-8.382 7.518-10.369 12.789-1.124 2.851-.346 6.567-.173 9.591 0 .519.086 1.124.173 1.642a16.485 16.485 0 0 1-2.852-.518c0 .086 0 .086.086.173a46.622 46.622 0 0 0-17.627-16.418Z" fill="#EBB7A1"/><path d="M236.352 220.135c0 .518.087 1.123.173 1.642.259 2.938.691 5.876 1.469 8.727 1.037 4.061 2.419 7.863 4.407 11.406 1.123 2.16 2.506 4.148 4.147 6.049 3.975 4.579 7.95 9.245 12.616 13.134.519.432 1.037.864 1.555 1.209 4.407 3.37 9.592 6.481 14.69 8.641 10.628 4.494 22.898 1.901 33.44-1.209 2.506-.778 4.925-1.037 7.345-2.247 5.012-2.592 8.727-6.913 12.097-11.406 8.814-11.838 12.184-25.059 11.233-39.662-.172-2.506-.345-5.098-1.123-7.431-1.037-3.197-3.197-5.876-5.357-8.381-3.802-4.667-7.864-9.16-11.838-13.653-.26-.346-.605-.691-.864-.951-.519 2.593-2.679 4.407-4.667 6.049-2.592 2.16-5.443 3.975-8.295 5.789-3.802 2.42-7.863 4.407-12.27 5.099a32.752 32.752 0 0 1-14.171-.778c-.778-.259-1.642-.519-2.16-1.21-.519-.778-.432-1.728-.519-2.592-.086-3.024-1.296-5.962-2.419-8.814-.951-2.419-.239 1.289-.508 1.559 0 .809-.42 2.158-.54 2.698-.12.539-.809 1.349-1.619 3.237-1.079 1.32-1.349 1.889-4.316 3.507-1.185.646-4.047 1.889-6.475 2.428-2.428.54-6.745 1.463-12.41.81-7.015-.81-8.427 3.517-9.983 3.777-.691.086-2.947-5.573-3.638-5.4-1.901.518-5.781 2.927-7.423 4.051-4.666 3.024 3.606.664 1.619 5.935-1.123 2.765 5.545 4.963 5.804 7.987Z" fill="#3F9FBC"/></g><path d="m343.591 118.834-2.381 29.835-155.323 95.099h-40.989l198.693-124.934Z" fill="silver"/><path d="M232.34 24.138s10.895-3.636 9.292-18.81c0 .008-13.576 7.488-9.292 18.81Z" fill="#5CAA93"/><path opacity=".34" d="M234.928 60.97c5.827 0 10.55-1.525 10.55-3.406 0-1.88-4.723-3.405-10.55-3.405-5.826 0-10.549 1.524-10.549 3.405 0 1.881 4.723 3.406 10.549 3.406Z" fill="#C97D7F"/><path d="m245.198 43.616-26.389-.78 4.26 13.216c.157 1.226 1.038 2.42 2.641 3.358 3.546 2.069 9.284 2.085 12.806.024 1.478-.86 2.335-1.957 2.563-3.08l4.119-12.738Z" fill="snow"/><path d="M245.195 43.616c-3.664 7.392-7.319 14.792-13.199 17.354 2.358.024 4.725-.486 6.517-1.536 1.478-.86 2.334-1.957 2.562-3.08l4.12-12.738Z" fill="#EDE1E1"/><path d="M245.472 42.068c.023-4.315-5.948-7.846-13.337-7.887-7.389-.04-13.398 3.425-13.421 7.74-.023 4.316 5.948 7.847 13.337 7.887 7.389.04 13.398-3.425 13.421-7.74Z" fill="#fff"/><path d="M243.486 41.807c.02-3.704-5.106-6.735-11.449-6.77-6.343-.035-11.501 2.94-11.521 6.644-.019 3.705 5.106 6.736 11.449 6.77 6.343.036 11.501-2.94 11.521-6.644Z" fill="#6D6058"/><path d="M232.211 11.32v32.352" stroke="#7FCBB4" stroke-width="6" stroke-miterlimit="10" stroke-linecap="round" stroke-linejoin="round"/><path d="M232.091 34.72s.495-11.592-14.095-15.451c0 0 2.115 15.483 14.095 15.452Z" fill="#7FCBB4"/><path d="M232.491 30.488s11.359-1.623 12.444-16.845c0 .008-14.668 4.941-12.444 16.845ZM232.329 21.624S237.415 10.652 224.876 1c0 .008-4.119 15.794 7.453 20.624Z" fill="#7FCBB4"/><path d="m232.357 20.963-7.209-19.295" stroke="#5CAA93" stroke-width="2.428" stroke-miterlimit="10" stroke-linecap="round" stroke-linejoin="round"/><path opacity=".34" d="m44.416 208.841 17.25-10.073c1.084-.639.953-1.76-.31-2.495l-32.654-19.075c-1.262-.735-3.179-.819-4.262-.181L7.19 187.091c-1.084.639-.953 1.759.309 2.495l32.655 19.075c1.25.747 3.167.819 4.262.18Z" fill="#939393"/><path d="M3 188.67V188.634l.071-1.567 1.215.205 16.702-9.748c1.084-.639 3.012-.555 4.262.18l31.941 18.654 1.833.313-.071 1.506c0 .41-.238.796-.726 1.085l-17.25 10.074c-1.084.638-3.012.554-4.262-.181L4.06 190.08c-.715-.386-1.06-.916-1.06-1.41Z" fill="snow"/><path d="m41.037 207.829 17.25-10.074c1.084-.638.953-1.759-.31-2.494l-32.654-19.075c-1.262-.735-3.179-.819-4.262-.181L3.81 186.079c-1.084.639-.953 1.759.31 2.494l32.654 19.075c1.25.735 3.179.82 4.262.181Z" fill="#5B78B7"/><path d="m36.63 207.576 21.487-12.206-33.035-19.292-21.203 12.351 32.75 19.147Z" fill="#E4EDFF"/><path d="m47.475 190.803-22.917-13.376-14.703 8.568 37.62 4.808Z" fill="#fff"/><path d="m19.442 191.502 12.929-7.544c.595-.349.524-.964-.167-1.373l-4.25-2.483c-.69-.409-1.738-.445-2.345-.096l-12.917 7.543c-.595.35-.524.964.167 1.374l4.25 2.482c.69.398 1.738.446 2.333.097Z" fill="#EDE1E1"/><path d="M17.845 190.023c1.611-.009 2.913-.782 2.908-1.727-.005-.945-1.315-1.704-2.926-1.695-1.611.009-2.913.782-2.908 1.727.005.945 1.315 1.704 2.926 1.695Z" fill="#fff"/><path d="m28.048 181.5-7.798 4.567M29.485 182.741l-4.06 2.386" stroke="#fff" stroke-width="1.922" stroke-miterlimit="10" stroke-linecap="round" stroke-linejoin="round"/><path d="m29.477 197.575 12.93-7.543c.594-.35.523-.964-.167-1.374l-4.25-2.482c-.691-.41-1.739-.446-2.346-.097l-12.929 7.543c-.595.35-.523.964.167 1.374l4.25 2.482c.69.398 1.738.446 2.345.097Z" fill="#FFAC80"/><path d="M27.88 196.097c1.611-.009 2.913-.782 2.908-1.727-.005-.945-1.315-1.704-2.926-1.696-1.61.009-2.913.783-2.907 1.728.005.945 1.315 1.703 2.925 1.695Z" fill="#fff"/><path d="m38.071 187.573-7.798 4.579M39.513 188.815l-4.048 2.386" stroke="#fff" stroke-width="1.922" stroke-miterlimit="10" stroke-linecap="round" stroke-linejoin="round"/><path d="m39.497 203.648 12.929-7.543c.595-.35.523-.964-.167-1.374l-4.25-2.482c-.69-.41-1.738-.446-2.345-.097l-12.929 7.544c-.595.349-.524.963.167 1.373l4.25 2.482c.702.398 1.75.446 2.345.097Z" fill="#EDE1E1"/><path d="M37.904 202.17c1.61-.009 2.912-.782 2.907-1.727-.005-.945-1.315-1.704-2.926-1.695-1.61.009-2.912.782-2.907 1.727.005.945 1.315 1.704 2.926 1.695Z" fill="#fff"/><path d="m48.106 193.646-7.797 4.579M49.548 194.9l-4.06 2.374" stroke="#fff" stroke-width="1.922" stroke-miterlimit="10" stroke-linecap="round" stroke-linejoin="round"/><path opacity=".34" d="m92.42 131.164 92.465-53.996c1.072-.627 2.953-.542 4.191.18l54.143 31.56c1.238.723 1.369 1.819.298 2.446l-85.204 52.682a13.23 13.23 0 0 1-9.833 1.675 4.517 4.517 0 0 1-1.619-.542L92.718 133.61c-1.227-.711-1.37-1.82-.298-2.446Z" fill="#989898"/><path d="m83.36 124.717 2.285 1.458.953-3.277h-3.489l.25 1.819ZM163.804 6.688l-2.286-1.47-3.928 3.735 4.893.771 1.321-3.036Z" fill="#463757"/><path d="m86.455 124.742 90.918-53.092c2.012-1.17 3-4.41 2.214-7.182L163.528 8.11c-.786-2.771-3.084-4.085-5.096-2.916L67.277 58.756c-2.012 1.169-2.608 3.314-1.81 6.097l15.905 56.973c.786 2.783 3.071 4.097 5.083 2.916Z" fill="#5B78B7"/><path d="m88.8 126.248 90.918-53.092c2.012-1.17 3-4.41 2.214-7.182l-16.06-56.358c-.785-2.771-3.083-4.085-5.095-2.916L68.991 60.395c-2.012 1.169-2.417 2.735-1.62 5.519l16.334 57.418c.798 2.783 3.083 4.097 5.095 2.916Z" fill="#E4EDFF"/><path d="M176.918 48.369 165.882 9.616c-.786-2.771-3.083-4.085-5.095-2.916l-58.572 34.27 74.703 7.399Z" fill="#fff" fill-opacity=".62"/><path d="M87.25 129.152v-3l13.345 7.856.762-1.771 88.858-51.887c1.072-.627 3.203-.542 4.429.18l38.5 22.341v-.626l5.846 2.867.821-.337-.107 2.723c-.095.591-.322.844-.679 1.049l-92.477 54.14c-1.071.627-2.952.615-4.19-.108l-53.68-31.029c-1.44-.747-1.428-2.398-1.428-2.398Z" fill="#4B6499"/><path d="M87.25 129.152v-3l13.345 7.856.762-1.771 43.584-25.45 1.607 55.912c-.535.313-1.274.47-2.036.458-.761-.012-1.535-.193-2.154-.554l-53.68-31.053c-1.44-.747-1.428-2.398-1.428-2.398Z" fill="#5B78B7"/><path d="m87.967 125.995 92.465-53.996c1.071-.627 2.952-.542 4.191.18l54.143 31.559c1.238.723 1.369 1.82.298 2.446l-92.466 53.996c-1.071.627-2.952.543-4.19-.18l-54.144-31.559c-1.226-.723-1.369-1.832-.297-2.446Z" fill="#A4BAEA"/><path d="M184.707 87.206c.131.084.405.048.607-.073l5.619-3.277c.202-.12.262-.277.119-.362l-3.714-2.169c-.131-.084-.405-.048-.607.073l-5.619 3.277c-.203.12-.262.277-.119.362l3.714 2.169ZM178.194 96.978c.131.085.405.049.607-.072l5.62-3.278c.202-.12.261-.277.119-.361l-3.715-2.169c-.131-.072-.405-.048-.607.072l-5.619 3.278c-.202.12-.262.277-.131.361l3.726 2.17ZM181.491 101.051c.131.085.405.048.607-.072l5.62-3.278c.202-.12.261-.277.119-.361l-3.727-2.17c-.131-.072-.404-.047-.607.073l-5.619 3.278c-.202.12-.262.277-.131.35l3.738 2.18ZM190.397 101.834c.131.073.405.048.607-.072l5.619-3.278c.203-.12.25-.277.119-.349l-3.714-2.169c-.131-.072-.405-.048-.607.072l-5.619 3.278c-.203.12-.25.277-.119.361l3.714 2.157ZM205.849 99.545c.131.084.404.048.607-.072l5.619-3.278c.202-.12.262-.277.119-.361l-4.369-2.555c-.131-.072-.405-.048-.607.072l-5.619 3.278c-.203.12-.25.277-.12.361l4.37 2.555ZM196.155 105.196c.131.085.453.013.727-.144l7.357-4.29c.262-.157.369-.349.238-.422l-4.369-2.554c-.131-.073-.464-.012-.726.132l-7.358 4.29c-.261.157-.369.35-.238.422l4.369 2.566ZM147.848 133.441c.107.061.369.024.572-.096l5.607-3.278c.202-.12.286-.265.167-.337l-1.619-.94c-.108-.06-.369-.024-.572.096l-5.607 3.278c-.202.121-.274.265-.167.337l1.619.94ZM140.344 137.936c.108.06.369.024.572-.096l5.607-3.278c.202-.12.286-.265.167-.337l-1.619-.94c-.107-.061-.369-.024-.572.096l-5.607 3.278c-.202.12-.274.265-.167.337l1.619.94ZM132.394 142.467c.107.06.357.012.56-.097l5.607-3.277c.202-.121.286-.265.179-.326l-1.56-.903c-.107-.061-.357-.012-.56.096l-5.607 3.278c-.202.12-.274.265-.178.325l1.559.904ZM137.277 136.201c.107.06.357.012.56-.097l5.607-3.277c.202-.121.285-.265.178-.325l-1.559-.904c-.107-.06-.357-.012-.56.096l-5.607 3.278c-.202.12-.274.265-.179.325l1.56.904ZM157.552 127.73c.131.084.405.048.607-.073l36.536-21.316c.203-.12.262-.277.119-.361l-4.369-2.555c-.131-.072-.416-.048-.607.072l-36.536 21.317c-.202.12-.262.277-.131.361l4.381 2.555Z" fill="#849FDA"/><path d="M197.169 103.786c.012 0 .036 0 .06-.012l4.285-2.506c.024-.012.036-.024.024-.036l-.274-.157c-.012 0-.035 0-.059.012l-4.286 2.507c-.024.012-.036.024-.024.036l.274.156ZM208.166 96.894h.035l1.822-1.06c.012 0 .012-.013 0-.025l-.274-.157h-.036l-1.821 1.06c-.012 0-.012.013 0 .025l.274.157ZM182.691 106.317c.131.072.405.048.607-.073l5.619-3.277c.203-.121.262-.277.12-.362l-3.715-2.169c-.131-.072-.416-.048-.607.073l-5.619 3.277c-.202.121-.262.277-.119.362l3.714 2.169ZM174.967 110.824c.131.072.405.048.607-.073l5.607-3.277c.203-.121.262-.277.131-.362l-3.714-2.169c-.131-.072-.417-.048-.607.073l-5.607 3.277c-.203.121-.25.277-.119.362l3.702 2.169ZM167.241 115.342c.131.073.404.049.607-.072l5.619-3.278c.202-.12.25-.277.119-.349l-3.714-2.169c-.131-.072-.405-.048-.607.072l-5.62 3.278c-.202.12-.25.277-.119.361l3.715 2.157ZM159.502 119.849c.131.072.405.048.608-.072l5.619-3.278c.202-.12.262-.277.119-.361l-3.715-2.169c-.131-.073-.404-.049-.607.072l-5.619 3.278c-.202.12-.25.277-.119.361l3.714 2.169ZM151.776 124.368c.131.072.405.048.607-.073l5.608-3.277c.202-.121.25-.277.119-.35l-3.715-2.169c-.131-.072-.404-.048-.607.073l-5.607 3.277c-.202.121-.262.277-.131.362l3.726 2.157ZM144.051 128.874c.131.073.404.049.607-.072l5.607-3.277c.202-.121.262-.278.119-.362l-3.714-2.169c-.131-.072-.405-.048-.607.072l-5.608 3.278c-.202.12-.262.277-.119.361l3.715 2.169ZM126.633 139.033c.131.072.404.048.607-.073l15.298-8.929c.202-.12.261-.277.119-.361l-3.715-2.169c-.131-.072-.404-.048-.607.072l-15.298 8.929c-.202.121-.262.277-.119.362l3.715 2.169ZM173.792 105.534c.131.084.404.048.607-.073l5.619-3.277c.202-.121.262-.277.119-.35l-3.726-2.169c-.131-.072-.405-.048-.607.073l-5.62 3.277c-.202.121-.25.277-.119.35l3.727 2.169ZM166.057 110.041c.131.084.405.048.607-.073l5.62-3.277c.202-.121.261-.277.119-.35l-3.727-2.169c-.131-.072-.404-.048-.607.073l-5.619 3.277c-.202.121-.25.277-.119.35l3.726 2.169ZM158.335 114.559c.131.085.405.048.607-.072l5.619-3.278c.203-.12.262-.277.131-.361l-3.726-2.169c-.131-.072-.417-.048-.607.072l-5.619 3.278c-.203.12-.262.277-.131.349l3.726 2.181ZM150.598 119.066c.131.084.404.048.607-.072l5.607-3.278c.202-.121.262-.277.119-.362l-3.726-2.169c-.131-.072-.405-.048-.607.073l-5.608 3.277c-.202.121-.261.277-.119.35l3.727 2.181ZM142.871 123.573c.131.084.405.048.607-.073l5.619-3.277c.203-.121.262-.277.119-.35l-3.726-2.169c-.131-.072-.405-.048-.607.073l-5.619 3.277c-.202.121-.262.277-.119.35l3.726 2.169ZM135.143 128.091c.131.085.405.048.607-.072l5.607-3.278c.203-.12.262-.277.131-.361l-3.726-2.169c-.131-.072-.405-.048-.607.072l-5.607 3.278c-.203.12-.25.277-.119.349l3.714 2.181ZM127.409 132.598c.131.085.405.048.607-.072l5.619-3.278c.202-.12.262-.277.119-.349l-3.726-2.169c-.131-.072-.405-.048-.607.072l-5.619 3.278c-.203.12-.25.277-.119.349l3.726 2.169ZM170.499 101.473c.131.084.405.048.607-.072l5.619-3.278c.203-.12.25-.277.119-.35l-3.714-2.168c-.131-.073-.405-.049-.607.072l-5.619 3.277c-.203.121-.262.278-.131.35l3.726 2.169ZM162.776 105.98c.131.084.405.048.607-.072l5.619-3.278c.202-.121.262-.277.119-.362l-3.714-2.168c-.131-.073-.405-.049-.607.072l-5.619 3.277c-.203.121-.25.278-.119.35l3.714 2.181ZM155.038 110.498c.131.085.405.049.607-.072l5.607-3.278c.203-.12.25-.277.119-.361l-3.714-2.169c-.131-.072-.405-.048-.607.072l-5.607 3.278c-.203.12-.262.277-.131.361l3.726 2.169ZM147.315 115.005c.131.085.405.048.607-.072l5.619-3.278c.203-.12.262-.277.119-.361l-3.714-2.169c-.131-.072-.405-.048-.607.072l-5.619 3.278c-.203.12-.25.277-.119.349l3.714 2.181ZM139.588 119.512c.131.084.405.048.608-.073l5.619-3.277c.202-.121.262-.277.119-.362l-3.715-2.169c-.131-.072-.404-.048-.607.073l-5.619 3.277c-.202.121-.25.277-.119.35l3.714 2.181ZM131.846 124.031c.131.084.405.048.619-.073l5.62-3.277c.202-.121.261-.277.119-.362l-3.715-2.169c-.131-.072-.404-.048-.607.073l-5.619 3.277c-.202.121-.262.277-.131.362l3.714 2.169ZM124.12 128.537c.131.085.404.048.607-.072l5.619-3.278c.202-.12.262-.277.119-.361l-3.714-2.169c-.131-.072-.405-.048-.608.072l-5.619 3.278c-.202.12-.25.277-.119.349l3.715 2.181ZM185.921 92.471c.131.085.405.049.607-.072l9.524-5.555c.202-.12.262-.277.119-.361l-3.714-2.17c-.131-.072-.405-.048-.608.073l-9.523 5.555c-.203.12-.262.277-.131.361l3.726 2.17ZM111.262 130.056c.13.084.404.048.607-.073l9.524-5.555c.202-.12.262-.277.119-.361l-3.715-2.169c-.131-.085-.416-.048-.607.072l-9.524 5.555c-.202.121-.262.277-.119.362l3.715 2.169ZM189.218 96.532c.131.085.405.049.607-.072l11.345-6.627c.203-.12.262-.278.119-.362l-3.726-2.169c-.131-.072-.405-.048-.607.072l-11.345 6.628c-.203.12-.262.277-.131.35l3.738 2.18ZM198.121 97.316c.131.072.405.048.607-.073l7.572-4.41c.202-.12.261-.277.119-.361l-3.715-2.17c-.131-.072-.404-.048-.607.073l-7.571 4.41c-.203.12-.262.277-.119.362l3.714 2.169ZM176.976 91.713c.131.084.405.048.608-.073l5.607-3.277c.202-.12.262-.278.119-.362l-3.715-2.169c-.13-.084-.404-.048-.607.072l-5.607 3.278c-.202.12-.262.277-.119.361l3.714 2.17ZM169.273 96.195c.131.084.405.048.607-.072l5.62-3.278c.202-.12.261-.277.119-.361l-3.715-2.17c-.131-.084-.405-.048-.607.073l-5.619 3.277c-.202.12-.262.278-.119.362l3.714 2.169ZM161.549 100.714c.131.084.405.048.607-.072l5.62-3.278c.202-.12.261-.277.119-.361l-3.715-2.17c-.131-.084-.404-.048-.607.073l-5.619 3.277c-.202.12-.25.278-.119.35l3.714 2.181ZM153.824 105.22c.131.085.405.048.607-.072l5.607-3.278c.203-.12.262-.277.119-.361l-3.714-2.17c-.131-.083-.405-.047-.607.073l-5.607 3.278c-.203.12-.262.277-.119.361l3.714 2.169ZM146.096 109.727c.131.084.405.048.607-.072l5.608-3.278c.202-.12.261-.277.119-.361l-3.715-2.169c-.131-.085-.405-.048-.607.072l-5.607 3.278c-.202.12-.25.277-.119.349l3.714 2.181ZM138.359 114.246c.131.084.405.048.607-.072l5.619-3.278c.203-.121.25-.277.12-.349l-3.715-2.169c-.131-.085-.405-.049-.607.072l-5.619 3.277c-.202.121-.262.278-.119.35l3.714 2.169ZM130.633 118.753c.131.084.404.048.607-.073l5.619-3.277c.202-.121.262-.277.119-.362l-3.714-2.169c-.131-.084-.405-.048-.608.073l-5.619 3.277c-.202.121-.262.277-.119.362l3.715 2.169ZM122.909 123.259c.131.085.404.048.607-.072l5.619-3.278c.202-.12.25-.277.119-.349l-3.714-2.169c-.131-.084-.405-.048-.608.072l-5.619 3.278c-.202.12-.25.277-.119.349l3.715 2.169ZM118.405 127.248a.718.718 0 0 1 .333-.109c.119-.012.214 0 .274.036l3.714 2.169c.06.037.096.097.072.169-.024.072-.095.133-.191.193l-1.464.855 4.881 2.856c.059.036.083.097.059.169-.023.072-.095.133-.19.193l-3.786 2.205a.78.78 0 0 1-.333.108.522.522 0 0 1-.286-.036l-8.845-5.169c-.06-.036-.083-.097-.06-.169.024-.072.096-.132.191-.193l5.631-3.277Z" fill="#849FDA"/><path d="M199.118 95.484c.012 0 .036 0 .06-.012l4.286-2.506c.023-.012.035-.024.023-.036l-.273-.157a.13.13 0 0 0-.06.012l-4.286 2.506c-.023.012-.035.025-.023.037l.273.156Z" fill="#849FDA"/><path d="m177.206 132.622 21.715-12.676c1.167-.687 1.095-1.76-.167-2.398l-7.262-3.652c-1.262-.638-3.25-.59-4.428.085l-21.715 12.676c-1.167.687-1.095 1.76.167 2.398l7.262 3.651c1.262.639 3.25.603 4.428-.084Z" fill="#9BB1E0"/><path opacity=".34" d="m139.334 72.866-16.263 9.941c-4.511 2.76-9.226.458-10.452-5.109l-1.571-7.061c-1.239-5.567 1.452-12.388 5.964-15.147l16.262-9.941c4.512-2.76 9.226-.458 10.452 5.109l1.572 7.061c1.226 5.567-1.452 12.388-5.964 15.147Z" fill="#E3CFCF"/><path d="m137.396 70.396-16.262 9.941c-4.512 2.76-9.226.458-10.453-5.109l-1.571-7.061c-1.238-5.567 1.452-12.388 5.964-15.147l16.262-9.941c4.512-2.76 9.227-.458 10.453 5.109l1.571 7.061c1.238 5.58-1.44 12.388-5.964 15.147Z" fill="#7FCBB4"/><path d="m124.571 69.227-2.19-9.845c-.179-.795.393-1.723 1.047-1.723l9.072.048c.726 0 .976 1.133.428 1.916l-6.892 9.797c-.5.71-1.286.602-1.465-.193Z" fill="#fff"/><path opacity=".34" d="m110.013 70.938-6.155 3.76c-3.655 2.241-5.834 7.76-4.834 12.267 1 4.506 4.81 6.374 8.477 4.145l6.154-3.76c.155-.096.31-.193.453-.301l-.048.06 4.06.326-1.31-3.338c1.619-2.627 2.334-6.037 1.679-9.014-1-4.518-4.81-6.374-8.476-4.145ZM146.121 36.921l-7.214 4.41c-2.893 1.772-4.608 6.134-3.822 9.7l.203.892c.797 3.567 3.809 5.037 6.702 3.278l7.214-4.41c2.893-1.772 4.608-6.134 3.822-9.7l-.203-.892c-.797-3.58-3.821-5.05-6.702-3.278Z" fill="#E3CFCF"/><path d="m111.574 87.688-6.155 3.76c-3.654 2.24-7.476.373-8.476-4.146-1-4.507 1.167-10.038 4.833-12.267l6.155-3.76c3.655-2.24 7.477-.373 8.477 4.146 1 4.506-1.179 10.037-4.834 12.267Z" fill="#F37E60"/><path d="m111.98 87.446 4.06.326-1.31-3.338-2.75 3.012Z" fill="#FF9963"/><path d="M103.967 83.626c.256-.826-.009-1.645-.592-1.83-.584-.186-1.264.332-1.52 1.158-.257.825.009 1.645.592 1.83.583.186 1.264-.333 1.52-1.158ZM107.651 81.37c.256-.825-.009-1.645-.593-1.83-.583-.186-1.264.333-1.52 1.158-.256.826.009 1.645.592 1.83.584.186 1.264-.332 1.521-1.158ZM111.408 78.096c.166.759-.191 1.675-.81 2.048-.619.374-1.25.06-1.416-.699-.167-.759.19-1.675.809-2.048.619-.374 1.25-.06 1.417.699Z" fill="#fff"/><path d="m150.193 47.115-7.214 4.41c-2.893 1.772-5.905.29-6.703-3.277l-.202-.892c-.798-3.566.928-7.928 3.821-9.7l7.215-4.41c2.892-1.772 5.904-.29 6.702 3.277l.202.892c.786 3.567-.94 7.929-3.821 9.7Z" fill="#68CCEA"/><path d="m138.266 42.15 11.44-6.988M139.02 45.525l11.44-6.99M139.762 48.911l7.881-4.82" stroke="snow" stroke-width="2.428" stroke-miterlimit="10" stroke-linecap="round" stroke-linejoin="round"/><path opacity=".34" d="M63.026 135.35c.92-7.6-8.562-15.029-21.179-16.594-12.616-1.564-23.59 3.329-24.51 10.929-.92 7.6 8.563 15.03 21.18 16.594 12.616 1.564 23.59-3.329 24.51-10.929Z" fill="#5B78B7"/><path d="M36.94 144.516c11.818-.635 21.096-6.918 20.723-14.034-.373-7.116-10.255-12.37-22.073-11.736-11.818.634-21.096 6.917-20.724 14.033.373 7.117 10.256 12.371 22.074 11.737Z" fill="#5672B1"/><path d="M36.58 137.719c11.818-.634 21.096-6.917 20.724-14.033-.373-7.116-10.256-12.37-22.074-11.736-11.818.634-21.096 6.917-20.723 14.033.373 7.116 10.255 12.371 22.073 11.736Z" fill="#7B9DE5"/><path d="m39.765 114.464 2.77 6.559a1.35 1.35 0 0 1-.491 1.651l-7.91 5.202c-.86.565-2-.034-2.045-1.063l-.357-8.142a1.324 1.324 0 0 1 .603-1.176l5.486-3.608a1.314 1.314 0 0 1 1.944.577Z" fill="#7694D4"/><path d="m37.584 112.236-2.905-1.436-6.58 4.399-.827 9.103c-.045.486.156.972.536 1.278l1.251 1.018c1.218.995 3.017.067 2.95-1.516l-.313-7.192 5.988-3.946c.648-.408.592-1.369-.1-1.708Z" fill="#5D7BBD"/><path d="m32.457 48.412-18.836 31.55 20.87 33.665" stroke="#5877B8" stroke-width="14.566" stroke-miterlimit="10" stroke-linecap="round" stroke-linejoin="round"/><path d="M27.269 45.924 8.008 80.731l22.478 35.61" stroke="#5877B8" stroke-width="14.566" stroke-miterlimit="10" stroke-linecap="round" stroke-linejoin="round"/><path d="m12.828 46.693 14.066 9.036c3.787 2.43 8.86 1.289 11.261-2.545l.246-.384c2.402-3.834 1.274-8.956-2.514-11.388l-14.066-9.035c-3.787-2.431-8.859-1.29-11.261 2.544l-.246.385c-2.413 3.822-1.273 8.945 2.514 11.387Z" fill="#7694D4"/><path opacity=".68" d="m19.64 35.6 8.357 4.976a.883.883 0 0 0 1.206-.317.906.906 0 0 0-.313-1.221l-8.356-4.976a.883.883 0 0 0-1.207.317c-.246.43-.1.972.313 1.221ZM15.273 38.755l8.356 4.975a.883.883 0 0 0 1.207-.316.906.906 0 0 0-.313-1.221l-8.357-4.976a.883.883 0 0 0-1.206.317c-.246.43-.1.972.313 1.22ZM13.444 44.092l8.357 4.976a.883.883 0 0 0 1.207-.317.906.906 0 0 0-.313-1.221l-8.357-4.976a.883.883 0 0 0-1.206.317.906.906 0 0 0 .313 1.221Z" fill="#B7CDFE"/><path d="M50.983 62.746c6.407-9.411 9.39-18.583 6.662-20.486-2.728-1.904-10.135 4.183-16.542 13.593-6.408 9.41-9.391 18.583-6.663 20.486 2.728 1.903 10.135-4.183 16.543-13.593Z" fill="#8EA8E0"/><path d="m32.433 74.75-4.871-5.655c-6-6.977-6.301-17.268-.715-24.573 5.117-6.706 13.954-9.261 21.808-6.332l7.25 2.714-23.472 33.845Z" fill="#88A5E5"/><path d="M49.24 61.377c6.408-9.41 9.391-18.583 6.663-20.486-2.728-1.903-10.135 4.183-16.543 13.594-6.407 9.41-9.39 18.582-6.662 20.486 2.728 1.903 10.134-4.183 16.542-13.594Z" fill="#5877B8"/><path d="M50.445 53.083c-.056 3.483-1.318 8.594-7.697 10.822-2.76.96-5.508-1.538-4.749-4.388 1.006-3.811 3.955-8.12 7.206-9.793 2.425-1.244 5.285.622 5.24 3.359Z" fill="#C7D8FB"/><path d="M39.357 54.496c6.413-9.408 13.82-15.504 16.546-13.604.514.35.815.961.95 1.787-3.475.758-9.352 6.208-14.558 13.864-5.206 7.656-8.156 15.142-7.608 18.693-.804.17-1.475.101-1.989-.26-2.737-1.9.257-11.071 6.659-20.48Z" fill="#B7CDFE"/><path d="m14.802 77.656-7.329 3.8a1.703 1.703 0 0 0-.648 2.408l3.509 5.586c.324.509.972.679 1.497.396l7.451-4.105c.626-.34.827-1.142.447-1.742l-3.765-6.004a.866.866 0 0 0-1.162-.34Z" fill="#7B9DE5"/><path d="m7.945 81.206-.86.51a1.317 1.317 0 0 0-.436 1.842l3.654 5.813a1.204 1.204 0 0 0 1.597.418l1.397-.769-5.352-7.814Z" fill="#5D7BBD"/><path opacity=".34" d="m103.988 205.019-10.226 1.928 13.571-50.14 33.215 19.401c2.833 1.663 2.833 5.796 0 7.459l-36.56 21.352Z" fill="#A4A4A4"/><path d="m93.722 169.617 29.857 7.362 6.464 4.193 1.798 1.314a.954.954 0 0 1 .381.723c.024.41.036.759-.131.867l-37.75 22.823a.735.735 0 0 1-.393.096c-3.334 0-1.143-37.499-.226-37.378Z" fill="#A6603B"/><path d="m94.743 204.814 34.489-20.87c.464-.277.678-3.82.202-4.085l-49.608-28.342a.7.7 0 0 0-.702.012l-37.512 22.389a.706.706 0 0 0 .012 1.217l51.786 29.703a1.406 1.406 0 0 0 1.333-.024Z" fill="#A6603B"/><path d="m95.363 204.429 35.453-21.473c-1.858-3.338-1.739-5.989-.691-10.785l-33.75 21.304c-1.453 4.013-2.096 8.134-1.012 10.954Z" fill="snow"/><path d="m41.184 164.628 1.488-.012v.06l36.381-21.702a.695.695 0 0 1 .702-.012l51.37 29.354v-.314l.964-.012.012 1.169h-.012a.705.705 0 0 1-.333.735l-37.512 22.389a.695.695 0 0 1-.703.012l-51.988-29.703a.69.69 0 0 1-.346-.566l-.023-1.398Z" fill="#C27750"/><path d="M93.719 177.738c.214-.132 37.405-5.434 37.405-5.434v-.314l.964-.421.012 1.578h-.012a.705.705 0 0 1-.333.735l-37.512 22.389c-.108.06-1.25.844-1.381.844-.12-.013.857-19.377.857-19.377Z" fill="#A6603B"/><path d="m94.217 194.488 37.512-22.389a.706.706 0 0 0-.012-1.217l-51.786-29.595c-.214-.121-.798-.157-1.012-.036l-37.393 22.304a.706.706 0 0 0 .012 1.217l51.988 29.703a.65.65 0 0 0 .69.013Z" fill="#FFAC80"/><path d="m94.221 194.488 3.452-2.061-53.167-30.643-2.988 1.783a.706.706 0 0 0 .012 1.217l51.989 29.704a.7.7 0 0 0 .702 0Z" fill="#FFB994"/><path d="m96.364 191.74-51.286-29.534" stroke="#C77347" stroke-width="2.428" stroke-miterlimit="10" stroke-linecap="round" stroke-linejoin="round"/><path d="M93.935 194.584c-1.702 5.796-1.023 10.495-.166 12.375L41.28 177.136s-2.81-7.52-.167-12.81l52.822 30.258Z" fill="#E38B5D"/><path d="m63.241 163.362 20.143-11.76c1.083-.627.94-1.748-.31-2.471-1.25-.723-3.154-.807-4.238-.18l-20.143 11.76c-1.083.627-.94 1.748.31 2.471 1.25.735 3.155.807 4.238.18ZM108.689 165.953c-.738-.433-1.881-.482-2.523-.108l-21.608 12.628c-.643.374-.56 1.037.179 1.47.738.434 1.88.482 2.524.109l21.619-12.629c.643-.373.559-1.036-.191-1.47ZM116.729 170.761c-.738-.433-1.881-.482-2.524-.108l-21.62 12.628c-.642.374-.559 1.037.18 1.47.737.434 1.88.482 2.523.109l21.619-12.629c.643-.373.56-1.036-.178-1.47Z" fill="#FFDCC9"/><path opacity=".34" d="M84.575 173.014c6.93 0 12.548-2.535 12.548-5.663s-5.618-5.663-12.548-5.663-12.548 2.535-12.548 5.663 5.618 5.663 12.548 5.663Z" fill="#6E5487"/><path d="m88.5 147.794-5.297-2.169c-.285-.121-.56-.241-.833-.386a5.312 5.312 0 0 0-.774-.325c-.024-.012-.048-.012-.071-.024a6.138 6.138 0 0 0-.631-.169c-4.334-.94-9.667-.434-12.536 4.447C65.703 153.686 67 159.362 67 159.362c.857 4.531 4.81 9.459 5.214 9.628 0 0 2.333 1.795 4.072 2.374.964.325 2.75.674 4.916.795 5.988.349 8.62-4.29 10.334-7.712.678-1.374 5.75-13.279-3.036-16.653Z" fill="#E46681"/><path d="m88.608 147.782-5.297-2.157c-.286-.12-.56-.241-.834-.385a5.32 5.32 0 0 0-.773-.326c-.024-.012-.048-.012-.072-.024a6.406 6.406 0 0 0-.63-.169 16.54 16.54 0 0 0-2.584-.361l4.452 1.819c8.786 3.362 3.631 15.244 3.024 16.653-3.512 8.219-11.274 7.869-10.322 8.351 2.453 1.229 3.56.844 5.727.976 5.988.35 8.619-4.29 10.333-7.712.69-1.386 5.762-13.291-3.024-16.665Z" fill="#E3758C"/><path d="M81.302 150.144c-.75.433-1.964.433-2.714 0-.75-.434-.762-1.145-.012-1.591.75-.434 1.964-.434 2.714 0 .762.446.762 1.157.012 1.591Z" fill="#E3758C"/><path d="M79.98 149.144c-.023-.145-.452-3.627 2.215-5.194" stroke="#463757" stroke-width="3.757" stroke-miterlimit="10" stroke-linecap="round" stroke-linejoin="round"/><path d="M71.824 151.12a.613.613 0 0 1-.608.614.613.613 0 0 1-.607-.614c0-.338.274-.615.608-.615.345 0 .607.277.607.615ZM74.632 152.349a.613.613 0 0 1-.607.614.614.614 0 0 1 0-1.229c.334 0 .607.265.607.615ZM72.44 154.06a.614.614 0 0 1-.606.615.613.613 0 0 1-.607-.615c0-.337.273-.614.607-.614.333 0 .607.277.607.614ZM70.218 155.169a.613.613 0 0 1-.607.614.613.613 0 0 1-.607-.614c0-.338.274-.615.607-.615.333 0 .607.277.607.615ZM73.027 156.398a.614.614 0 0 1-.607.615.614.614 0 0 1-.608-.615.606.606 0 1 1 1.214 0Z" fill="#FA909C"/><path d="m97.121 197.524 32.25-19.762M97.441 200.332l32.251-19.762" stroke="#BFB1A8" stroke-width="2.428" stroke-miterlimit="10" stroke-linecap="round" stroke-linejoin="round"/><path opacity=".15" d="M177.072 130.701c1.556 0 3.197-.259 4.666.26h-1.382c1.728.432 3.456.777 4.925 1.641 1.296.692 2.42 1.642 3.456 2.593 5.531 4.925 9.592 11.233 15.208 15.899 3.975 3.283 8.641 6.394 13.826 6.394 4.234 0 8.295-2.16 10.887-5.444 3.457-4.493 4.407-10.801 8.814-14.43 2.42-1.901 5.444-2.679 8.123-4.234 2.073-1.123 3.974-3.284 3.456-5.53-.519-2.16-2.938-3.197-5.098-3.889-5.617-1.814-11.838-3.629-17.368-5.443-3.716-1.21-7.604-1.988-11.579-2.161-2.42-.172-4.839-.086-7.259-.432a40.352 40.352 0 0 1-4.406-1.037c-2.852-.777-5.703-1.814-8.468-2.937-1.21-.519-2.593-1.21-3.111-2.42-2.592-6.913 7.604-9.159 12.27-8.641 4.493.519 8.554 2.506 12.702 4.321 9.419 4.061 19.269 6.999 29.379 8.813 10.801 1.901 22.207 2.679 31.712 8.123 2.679 1.555 5.357 3.629 5.962 6.653 1.037 5.185-3.888 10.024-5.098 14.776-1.123 4.753-.864 9.678-.95 14.603-.087 4.926-.519 9.937-3.025 14.171-.259.519 2.038 15.624 1.692 16.056l-31.565 19.425c-1.037-.173-6.85-15.088-7.887-15.434-6.395-2.333-12.616-5.098-18.837-7.949-.346-.173-.605-.26-.951-.432-6.913-3.198-12.529-6.827-16.936-13.135-6.222-8.813-11.06-18.837-19.356-25.663-2.851-2.333-6.221-4.407-7.777-7.69-.691-1.469-1.036-3.37-.172-4.753.864-1.382 2.592-2.074 4.147-2.074Z" fill="#9E9EA4"/><path d="M247.32 80.325c.173.346.259.778.432 1.123 2.247 5.271 5.876 9.937 10.11 13.912 1.21 1.123 2.419 2.16 3.975 2.506 2.074.518 4.493-.346 6.308.691.777.432 1.382 1.21 2.16 1.815.778.605 1.814.95 2.592.432.519-.346.778-.864 1.21-1.296 1.382-1.383 3.715-.432 5.444.605l2.073 1.296c2.161 1.469 4.234 3.11 5.963 5.011.95 1.037 1.814 2.161 2.938 2.938 1.123.778 2.678 1.124 3.974.519.432-.26.864-.605 1.297-.864a5.2 5.2 0 0 1 1.641-.519c.519-.086 1.124-.086 1.642-.173 2.938-.259 6.049-.95 7.777-3.283l.778-1.296c.345-.519.604-1.124 1.123-1.469.691-.519 1.728-.692 2.506-1.21 1.469-1.123 2.506-2.679 3.197-4.493.778-2.16 1.968-3.624 2.952-6.096.458-1.148.54-1.553.54-2.158.26-4.234-.409-8.62-1.619-12.68-1.642-6.395-5.336-12.407-10.521-16.727-2.419-2.074-4.578-4.414-7.343-5.969-1.901-1.123-4.526-1.779-6.686-2.125-1.123-.172-1.931-.194-2.967-.54-2.593-.777-5.232-3.313-7.824-2.967-.692.087-2.007.354-2.698.44-2.247.346-3.408-1.205-5.396-2.328-2.333-1.297-6.222-1.3-7.95.86-.519.605-.984 1.123-1.762 1.469-1.123.518-1.844-.26-2.968 0-.864.172-1.924 1.123-2.615 1.642-1.469 1.036-3.457.69-4.926 1.555-1.555.95-2.765 3.715-3.715 5.184-3.975 7.172-4.58 16.505-1.642 24.195Z" fill="#3D3D3D"/><path d="M252.764 50.86c1.469-.865 3.37 1.036 4.839 0 .691-.52 1.382-2.852 2.246-3.025 1.21-.26 2.42.605 3.543.173.778-.346 1.123-1.123 1.642-1.815 1.728-2.073 5.098-1.814 7.431-.518 1.987 1.123 3.975 2.851 6.221 2.506.692-.087 1.383-.432 2.074-.519 2.679-.345 4.839 2.074 7.345 2.852 1.037.259 2.16.259 3.284.518 2.16.346 4.147 1.47 6.048 2.592 2.765 1.642 5.444 3.284 7.95 5.271 5.184 4.32 8.9 10.283 10.715 16.764 1.123 4.06 1.901 8.295 1.641 12.529 0 .605-.173 1.21-.259 1.815 2.247-.692 4.148-2.42 5.357-4.407 1.469-2.42 1.988-5.271 2.074-8.123.432-8.554-2.851-17.195-8.727-23.416-1.383-1.47-2.938-2.766-4.234-4.321-1.901-2.16-3.284-4.752-5.271-6.826a19.492 19.492 0 0 0-5.357-3.802c-7.172-3.284-15.468-1.037-23.417-.691-2.247.086-4.58.086-6.827.69-1.555.433-3.024 1.297-4.666 1.815-1.901.605-3.888.864-5.616 1.729-1.123.518-2.16 1.296-3.197 1.987-1.642 1.21-3.37 2.42-4.321 4.148-.259.69-.518 1.382-.518 2.073Z" fill="#434343"/><path d="M272.902 109.877c2.419 1.037 4.58 2.506 6.221 4.579 1.642 2.074 2.42 4.926 1.729 7.432.864.172 1.728.432 2.592.518 2.074.346 4.234.259 6.394.086.691-.086 1.469-.086 2.16-.345 2.074-.691 3.111-2.852 4.58-4.234.864-.864 1.987-1.21 3.197-1.469.864-.259 2.333-.432 3.024-1.037l.26-.259a13.04 13.04 0 0 1-1.988-1.815c-.259-.259-.518-.605-.777-.864a19.106 19.106 0 0 1-2.593-3.888 5.212 5.212 0 0 0-1.642.518c-.432.259-.864.605-1.296.864-1.209.605-2.765.259-3.974-.518-1.124-.778-1.988-1.901-2.938-2.938-1.729-1.901-3.802-3.543-5.963-5.012.346.778.692 1.642.692 2.42.086 1.469-.346 2.937-1.383 3.888-1.037.95-2.765 1.21-3.975.432-.086.605-.777.951-1.382 1.123-1.124.26-1.988.432-2.938.519Z" fill="#E4A387"/><path d="M258.383 169.412c1.382 2.42 3.715 4.321 6.221 5.617 2.419 1.21 5.098 2.16 6.74 4.32.259.346.432.605.605.951.345.691.605 1.296.864 1.987.95 2.42 1.987 4.839 2.938 7.172 1.123 2.852 2.333 5.703 2.419 8.814 0 .864 0 1.901.519 2.592.518.691 1.296.951 2.16 1.21a32.752 32.752 0 0 0 14.171.778c4.493-.778 8.468-2.679 12.27-5.099 2.852-1.814 5.703-3.629 8.295-5.789 1.988-1.642 4.148-3.456 4.666-6.049.087-.259.087-.518.087-.777.086-1.642 0-3.543-.087-5.185-.172-2.16-.432-4.32-.432-6.567 0-2.592.519-4.752 1.124-7.172 1.296-5.184 1.728-11.147 1.209-16.417-.604-6.568-2.938-13.048-2.073-19.529.345-3.024 1.469-5.962 2.16-8.9.691-2.938 1.123-6.135.173-9.073-1.124-3.37-3.975-5.962-7.259-7.258-2.333-.951-4.925-1.296-7.517-1.21-.26.432-.432.864-.778 1.296-1.728 2.333-4.925 3.111-7.777 3.284-.518.086-1.123.086-1.642.172.692 1.383 1.556 2.766 2.593 3.889a15.04 15.04 0 0 1 3.37.95c.691.346 1.469.692 1.901 1.383.518.605.691 1.555.345 2.247-.518 1.123-1.987 1.296-3.197 1.555a7.721 7.721 0 0 0-3.888 2.247c-.778.864-1.469 1.901-2.333 2.678-1.642 1.469-4.148 1.556-6.222 1.556-2.678 0-5.271-.778-7.949-1.124-1.469-.259-2.938-.345-4.407.087-.864.259-1.642.691-2.42 1.209a4.98 4.98 0 0 1-.432 1.21c-.432.605-1.123.864-1.641 1.383-.173.172-.26.259-.346.432-.346.518-.519 1.123-.864 1.641-.432.692-1.124 1.297-1.642 2.074-.518.778-.95 1.642-1.383 2.506 3.198-1.296 6.481-2.246 9.851-2.16 4.148.086 8.555 1.901 10.715 5.444 1.21 2.073 1.642 4.493 1.987 6.912.173 1.124.259 2.247.087 3.284-.173 1.123-.692 2.247-1.297 3.197-1.728 3.111-4.234 5.962-7.603 7.258-1.469.605-3.025.864-4.58 1.21-2.938.691-5.358 2.333-7.863 3.802-3.111 1.815-6.395 3.284-9.678 4.753-.605.345-1.383.777-2.16 1.209Z" fill="#E97084"/><path d="M230.473 175.029c1.124 2.679 2.506 5.53 5.099 6.826 1.123.605 2.333.778 3.629.951 2.419-1.642 4.752-3.284 7.172-4.925 1.209-.865 2.506-1.729 3.715-2.679 2.679-1.988 5.444-4.061 8.382-5.789.778-.433 1.555-.865 2.333-1.21 3.284-1.469 6.653-2.938 9.678-4.753 2.506-1.555 4.925-3.11 7.863-3.802 1.555-.345 3.111-.605 4.58-1.209 3.283-1.297 5.789-4.148 7.604-7.259.604-1.037 1.123-2.074 1.296-3.197.173-1.123.086-2.247-.087-3.283-.345-2.42-.691-4.839-1.987-6.913-2.16-3.543-6.481-5.444-10.715-5.444-3.37-.086-6.74.864-9.85 2.16-.432.864-.951 1.728-1.556 2.42a14.681 14.681 0 0 1-2.678 2.506c-1.729 1.382-3.63 2.419-5.271 3.802-1.556 1.296-3.197 2.419-5.012 3.283-3.629 1.815-7.604 3.111-11.233 4.925-5.185 2.593-10.196 5.617-15.208 8.469 0 .172-.087.259-.087.432-1.296 4.925.432 10.023 2.333 14.689Z" fill="#FDE797"/><path d="M224.855 164.228c0 3.457.346 6.999 1.469 10.283.692 2.074 1.642 3.975 2.938 5.703.259.345.519.777.864 1.123.605.691 1.21 1.296 1.815 1.901.95.864 2.16 1.642 3.456 1.555.864-.086 1.728-.604 2.506-1.123.432-.259.864-.605 1.296-.864-1.21-.086-2.506-.346-3.629-.95-2.592-1.297-3.975-4.148-5.098-6.827-1.901-4.666-3.629-9.85-2.506-14.776 0-.172.086-.259.086-.432-.172.087-.432.26-.604.346-.864.518-1.901 1.123-2.333 2.074-.087.086-.087.259-.087.345-.173.519-.173 1.124-.173 1.642Z" fill="#E97084"/><path d="M246.459 87.238c.519.69 1.296 1.21 2.074 1.641.605.346 1.296.692 1.728 1.297.519.777.173 1.987.173 2.851 0 1.123 0 2.247.173 3.284.259 1.728.864 3.37 1.987 4.666.173.172.346.432.519.691.432.691.259 1.642.604 2.419.346.778.692 1.729 1.383 2.333.864.778 2.074 1.124 3.197 1.469.864.26 1.728.432 2.592.605 1.642.346 3.284.519 4.926.864 2.333.519 4.752.778 7.085.519.951-.087 1.815-.259 2.679-.432.605-.173 1.296-.432 1.382-1.124 1.21.778 2.938.519 3.975-.432 1.037-.95 1.556-2.505 1.383-3.888-.087-.864-.346-1.642-.691-2.419l-2.074-1.297c-1.642-1.036-4.061-1.9-5.444-.605-.432.433-.691 1.037-1.21 1.297-.777.518-1.901.172-2.592-.432-.778-.605-1.383-1.383-2.16-1.815-1.901-1.037-4.234-.26-6.308-.691-1.555-.346-2.852-1.47-3.975-2.506-4.234-3.975-7.863-8.641-10.11-13.912-.345.519-.691 1.037-1.123 1.556-.346.518-.778 1.123-.864 1.728-.173.69.173 1.641.691 2.333Z" fill="#EBAA8F"/><path d="M190.897 106.248c.087-1.642.087-3.198.173-4.839 0-.605.087-1.21.259-1.815.605-1.382 2.247-1.901 3.716-2.247 2.333-.604 4.753-1.21 7.258-1.036 1.469.086 2.852.431 4.234.777 2.161.519 4.321 1.037 6.481 1.815 3.024 1.123 5.962 2.678 8.987 3.715 6.826 2.42 14.257 2.333 21.256 3.457 5.876.95 11.752 1.901 17.628 2.333 1.641.345 3.283.518 4.925.864 2.333.518 4.752.778 7.085.518 2.42 1.037 4.58 2.506 6.222 4.58 1.642 2.074 2.419 4.925 1.728 7.431-.518-.086-.95-.173-1.469-.173-1.382 0-2.851.519-3.456 1.815-.259.518-.346 1.123-.432 1.642-.087.432-.26.864-.432 1.209-.432.605-1.124.864-1.642 1.383-.173.173-.259.259-.346.432-6.394-2.506-12.961-4.839-19.528-6.74-7.863-2.247-15.813-4.407-23.676-6.653-2.852-.778-5.703-1.642-8.727-1.469-1.729.086-3.37.518-5.099.604-4.839.346-9.591-1.641-14.43-1.555-1.987 0-4.148.259-5.616-.95-.519-.432-1.21-1.124-1.815-.864-.173.086-.259.172-.432.259-.259 0-.432-.173-.605-.259-.864-.778-1.815-1.642-2.074-2.766-.259-.432-.173-.95-.173-1.468Zm7.691.95c1.123-.346 2.333-.173 3.543-.086 1.209.086 2.505.086 3.542-.346-1.296-.864-2.851-1.383-4.407-1.555-.345 0-.691-.087-1.036.086-.432.173-.692.605-1.037.864-.26.173-.519.259-.778.346-.432.086-.864-.087-.951-.519v-.345c-.086-.432-.604-.692-.95-.432-.346.172-.432.691-.432 1.037-.086.604-.086 1.296-.173 1.901.951-.087 1.728-.692 2.679-.951Z" fill="#F6B599"/><path d="M300.895 113.333c.605.692 1.296 1.21 1.987 1.815.691-.951-.95-1.556-1.987-1.815Z" fill="#9C2D33"/><path d="M275.404 125.171a7.962 7.962 0 0 1 2.42-1.209c1.382-.432 2.938-.26 4.407-.087 2.592.432 5.27 1.124 7.949 1.124 2.074 0 4.58-.087 6.222-1.556.864-.778 1.469-1.814 2.333-2.679a7.72 7.72 0 0 1 3.888-2.246c1.21-.259 2.679-.432 3.197-1.556.346-.691.173-1.555-.345-2.246-.519-.605-1.21-1.037-1.901-1.383-1.037-.518-2.247-.777-3.37-.95.259.259.518.605.777.864.951.259 2.679.864 1.988 1.814-.087.087-.087.173-.26.26-.691.691-2.16.864-3.024 1.037-1.123.259-2.246.604-3.197 1.469-1.469 1.382-2.592 3.542-4.58 4.234-.691.259-1.469.345-2.16.345-2.16.173-4.32.346-6.394-.086-.864-.173-1.728-.432-2.592-.519-.519-.086-.951-.172-1.469-.172-1.383 0-2.852.518-3.457 1.814-.259.605-.259 1.21-.432 1.728Z" fill="#FDE797"/><path d="M173.705 133.294c.173 0 .432-.087.605 0 .259.086.345.518.432.777l.259 2.593c.086.604.173 1.209.432 1.641.259.519.864.864 1.382.864.519-.086.951-.518 1.124-1.036.173-.519.086-1.037.086-1.642 0-.173 0-.432.087-.519.172-.259.518-.086.777 0 2.593 1.469 4.148 4.58 6.827 5.79 1.036.432 2.16.691 3.197 1.123 1.296.518 2.333 1.469 3.283 2.419 1.469 1.469 2.074 3.37 2.938 5.099 1.296 2.678 2.852 5.271 4.407 7.863 4.148 6.913 8.9 13.48 14.085 19.615 1.296 1.555 2.678 3.11 4.493 3.974 1.901.865 4.148.865 6.221.346 1.728-.432 3.284-1.21 4.926-1.987-1.297-1.728-2.247-3.716-2.938-5.703-1.124-3.284-1.556-6.827-1.469-10.283 0-.518 0-1.123.173-1.642-.346.087-.778 0-1.124-.086-.691-.259-1.209-.691-1.728-1.21-5.53-5.184-10.369-10.974-15.294-16.763-.605-.778-1.21-1.469-1.901-2.247-.778-.95-1.556-1.901-2.247-2.938-.086-.173-.259-.345-.259-.605 0-.259.086-.432.173-.691 1.123-2.851-.26-5.357-1.901-7.604-.519-.691-1.124-1.469-1.815-2.074-.864-.691-1.901-1.123-2.851-1.641-3.284-1.642-6.135-4.234-9.419-5.963-.605-.345-1.296-.605-1.987-.864-1.556-.432-3.457-.259-4.666.778l-1.037 1.037c-1.037.95-2.506 1.296-3.543 2.246-.951.865-1.383 2.334-1.123 3.63.086.259.086.432.086.691 0 .259-.173.518-.346.778-.518.777-.95 1.728-1.123 2.678 0 .692.086 1.469.778 1.556Z" fill="#F6B599"/><path d="m348.711 244-83.703-.157c.083-1.422.345-3.289.666-4.711l15.286-65.347c2.762-11.833 11.203-23.666 21.096-29.607l46.655-27.956V244Z" fill="#6683C2"/><path d="M348.711 243.02h-59.238l9.535-61.274c4.167-17.822 29.286-29.1 44.191-38.03l5.512-3.048V243.02Z" fill="#5B78B7"/><path d="M312.43 198.676s20.44 5.519 36.155 13.4v-10.447c-8.226-3.929-20.179-6.628-36.155-2.953ZM348.71 169.046c-5.964-9.195-11.595-15.93-11.595-15.557.131 9.977 3.571 20.907 7.821 30.667-8.976-8.628-23.393-18.219-41.881-16.183 0 0 26.952 11.038 45.643 27.498v-26.425h.012Z" fill="#7FCBB4"/><path d="M348.581 222.27v-12.11c-11.476-3.169-26.536-3.109-42.179 8.7 0-.012 22.572-.036 42.179 3.41Z" fill="#7FCBB4"/><path d="M49.45 173.856s-.31 9.266 2.096 13.869l6.155 3.495s-2.584-10.472-2.215-13.906l-6.035-3.458Z" fill="snow"/></g><defs><clipPath id="b"><path fill="#fff" transform="translate(173.148 177.707)" d="M0 0h166.571v66.138H0z"/></clipPath></defs></svg>