<svg width="800" height="518" fill="none" xmlns="http://www.w3.org/2000/svg"><g clip-path="url(#a)"><path d="m792.126 335.455 1.743 207.646h-370.91l369.167-207.646Z" fill="#666F82"/><g clip-path="url(#b)"><path d="M530.782 639.428c1.441.16 2.562.8 4.004 1.121 2.242.32 4.484.32 6.726 0 1.121-.161 2.242-.481 3.363-.801.96-.32 1.761-.641 2.562-1.281.801-.641 1.441-1.281 1.922-2.082 1.281-1.762 2.081-3.523 2.882-5.445.32-.801.481-1.762.801-2.562 1.121-4.484.961-9.449.64-14.093-.48-5.765-.96-11.69-1.601-17.456-1.762-16.014-3.843-32.028-4.164-48.042-.32-19.538 2.402-39.075 5.285-58.453.961-6.405 1.922-12.491 2.242-18.897 13.292 7.047 24.662 17.616 32.669 30.267 3.523 12.011 5.765 24.342 6.566 36.833.481 6.246.481 12.492-1.121 18.577-.961 3.523-2.402 7.046-3.843 10.409-4.164 10.089-7.687 20.338-10.41 30.908-1.281 5.125-2.242 10.249-3.042 15.534-1.121 7.847-1.442 15.854-.801 23.861v.32c0 .801.16 1.602.16 2.403.641 6.726 1.922 14.092 4.644 20.178.16.16.16.48.321.64.64 1.602 1.121 3.684-.481 4.805-2.082 1.441-5.124 2.081-7.527 2.722-5.124 1.601-10.569 2.883-16.014 3.363-7.687.641-15.214-1.121-22.42-3.843-1.441-.641-3.043-1.282-4.484-1.922-4.804-2.402-9.609-6.086-10.569-11.851-1.282-6.085 4.484-15.534 11.69-15.213Z" fill="#EFC0AC"/><path d="M555.123 471.437c.16-2.882 2.609-3.849 2.448-6.732-.32-8.487 7.763-5.315 16.571-7.717 4.644-1.281 2.28-13.095 7.084-12.455.641.16 1.442.16 2.082.321 14.253 1.921 28.666 3.843 42.438 7.686-1.281.161-2.562.481-3.683.801-3.523.961-6.886 2.562-9.929 4.644-8.648 5.605-15.534 13.933-19.217 23.702-2.082 5.284-.641 12.17-.321 17.775 0 .961.161 2.082.321 3.043a30.512 30.512 0 0 1-5.285-.961c0 .16 0 .16.16.321a86.418 86.418 0 0 0-32.669-30.428Z" fill="#EBB7A1"/><path d="M592.757 499.302c0 .961.16 2.082.32 3.043.481 5.445 1.281 10.89 2.723 16.174 1.921 7.527 4.484 14.574 8.167 21.139 2.082 4.004 4.644 7.687 7.687 11.21 7.366 8.488 14.733 17.136 23.381 24.342.961.801 1.921 1.602 2.882 2.242 8.168 6.246 17.776 12.011 27.225 16.014 19.697 8.328 42.438 3.524 61.975-2.242 4.644-1.441 9.128-1.921 13.612-4.163 9.289-4.805 16.175-12.812 22.42-21.139 16.335-21.94 22.58-46.442 20.819-73.506-.32-4.644-.641-9.448-2.082-13.772-1.922-5.925-5.925-10.89-9.929-15.534-7.046-8.648-14.573-16.975-21.939-25.303-.481-.64-1.121-1.281-1.602-1.761-.961 4.804-4.964 8.167-8.648 11.21-4.804 4.003-10.089 7.366-15.373 10.729-7.047 4.484-14.573 8.168-22.741 9.449-8.647 1.441-17.776.961-26.263-1.442-1.441-.48-3.043-.96-4.004-2.242-.961-1.441-.8-3.202-.961-4.804-.16-5.605-2.402-11.05-4.484-16.334-1.761-4.484-.442 2.388-.942 2.888 0 1.5-.778 4-1 5-.222 1-1.5 2.5-3 6-2 2.446-2.5 3.5-8 6.5-2.195 1.197-7.5 3.5-12 4.5s-12.5 2.712-23 1.5c-13-1.5-15.617 6.52-18.5 7-1.281.16-5.462-10.328-6.743-10.008-3.523.961-10.714 5.426-13.757 7.508-8.648 5.605 6.683 1.231 3 11-2.082 5.125 10.277 9.197 10.757 14.802Z" fill="#3F9FBC"/></g><path d="m752.236 200.858-145.884-63.804V1.162h145.884v199.696Z" fill="#A1E4D0"/><path d="M747.687 115.079s-31.727-50.002-33.845-78.163c-2.118-28.161-4.016-35.754-4.016-35.754h-25.594s24.248 54.736 29.058 68.091c4.832 13.333 19.35 43.839 19.35 43.839l17.982 14.538-2.935-12.551Z" fill="#7FCBB4"/><path d="M747.032 177.073s-3.751-18.826-6.774-23.784c-3-4.935-1.655-29.099 2.096-36.714 3.751-7.615-15.863-19.25-15.863-19.25s5.67 40.354 5.118 50.448l-.948 4.556s-11.65-10.451-26.521-18.826c-14.849-8.375-18.798-19.586-18.798-19.586s-1.125 10.452-1.125 11.033c0 .58 6.95 8.374 21.821 18.446 14.87 10.072 23.696 18.447 24.27 27.38.573 8.933 15.797 12.171 16.746 12.171.949 0-.022-5.874-.022-5.874ZM656.72 122.381s.176-18.268.265-25.034c.088-6.767 8.009-41.315 8.009-41.315l-7.303-6.477s-11.738 55.05-3.045 76.087l2.074-3.261Z" fill="#7FCBB4"/><path d="M658.952 125.084s-24.292-32.94-27.359-36.313c-3.089-3.372-23.167-50.114-23.167-50.114l-5.847 10.92 23.432 34.705-25.484-10.138v6.23c.839-4.757 43.863 20.166 51.784 52.95l7.258-3.461-.617-4.779ZM657.694 36.626s-17.673-25.013-16.371-35.464h-6.024s5.649 26.91 22.373 39.461c0 0-6.399-7.794-25.572-11.791-19.173-3.998-28.594-6.856-28.594-6.856l4.898 14.18s30.47-6.744 49.268 13.4c18.798 20.166 9.928-7.459 9.928-7.459l-9.906-5.471ZM735.6 94.22s-5.362-46.898 10.524-66.237V1.16c-5.516-.96-15.422 0-15.422 0s-.596 65.479-8.781 64.653C713.757 64.965 735.6 94.22 735.6 94.22Z" fill="#7FCBB4"/><path opacity=".34" d="m326.341 507.213-18.952 3.574 25.152-92.925 61.557 35.955c5.252 3.082 5.252 10.742 0 13.823l-67.757 39.573Z" fill="#A4A4A4"/><path d="m760.684 1.161 1.345 224.754 12.202-7.549.154-217.205h-13.701Z" fill="#CECECE"/><path d="m673.977 1.162.948 158.761 19.085 9.067-2.736-167.828h-17.297Z" fill="#D6F3EA"/><path d="m610.499 105.99-.596-100.853-.044-3.976h-12.554l.684 114.342 148.134 85.578-.11-18.268-135.514-76.823Z" fill="#D6F3EA"/><path d="m581.73 121.846 180.303 104.069-1.346-224.753h-15.753l1.192 199.919-68.133-39.305-.948-160.614h-12.378l.927 153.446-67.647-39.06-.684-114.386h-16.261l.728 120.684Z" fill="#EEE"/><path d="m791.51 311.559-4.413 55.295-287.863 176.248H423.27l368.24-231.543Z" fill="silver"/><path d="m92.006 466.011 45.562-26.62v-2.703l-64.007-34.682L28 425.924v2.702l64.006 37.385Z" fill="#5B78B7"/><path d="m92.006 463.309 45.562-26.621-64.007-37.362L28 425.924l64.006 37.385Z" fill="#6683C2"/><path d="m92.007 458.998 42.958-25.079v-6.186l-60.322-29.032-42.957 18.893v6.186l60.321 35.218Z" fill="#EDE1E1"/><path d="m92.007 452.812 42.958-25.079-60.322-35.218-42.957 25.079 60.321 35.218Z" fill="snow"/><path d="m73.741 401.18 2.118-1.25c.883-.514.772-1.43-.242-2.033-1.038-.603-2.604-.67-3.487-.156l-2.118 1.251c-.882.513-.772 1.429.243 2.032 1.037.603 2.604.67 3.486.156ZM64.866 406.339l2.118-1.251c.883-.513.772-1.429-.242-2.032-1.038-.603-2.604-.67-3.487-.156l-2.118 1.25c-.882.514-.772 1.43.243 2.033 1.015.625 2.604.692 3.486.156ZM55.999 411.52l2.118-1.251c.883-.514.772-1.429-.243-2.032-1.037-.603-2.603-.67-3.486-.156l-2.118 1.25c-.882.514-.772 1.429.243 2.032 1.015.603 2.581.67 3.486.157ZM47.13 416.679l2.118-1.251c.882-.514.772-1.429-.243-2.032-1.037-.603-2.603-.67-3.486-.157l-2.118 1.251c-.883.514-.772 1.429.243 2.032 1.015.603 2.581.67 3.486.157Z" fill="#EDE1E1"/><path d="M60.412 400.845a16.765 16.765 0 0 1-.486-1.363c-.64-1.943-.485-3.796.441-5.091.773-1.095 2.075-1.698 3.619-1.698 3.596 0 7.568 3.149 8.825 7.035.067.223.31.335.53.268a.412.412 0 0 0 .265-.514c-1.368-4.198-5.693-7.615-9.62-7.615-1.81 0-3.332.715-4.28 2.032-1.06 1.497-1.28 3.618-.552 5.829.11.357.441 1.161.596 1.496l.662-.379Z" fill="#433878"/><path d="M51.54 406.003a16.611 16.611 0 0 1-.485-1.362c-.64-1.943-.485-3.796.441-5.092.773-1.094 2.074-1.697 3.619-1.697 3.596 0 7.568 3.149 8.825 7.035.067.223.31.335.53.268a.412.412 0 0 0 .265-.514c-1.368-4.198-5.693-7.615-9.62-7.615-1.81 0-3.332.715-4.28 2.032-1.06 1.496-1.28 3.618-.552 5.829.11.357.441 1.161.596 1.496l.662-.38Z" fill="#433878"/><path d="M42.673 411.185a16.765 16.765 0 0 1-.485-1.363c-.64-1.943-.485-3.796.441-5.091.773-1.095 2.074-1.698 3.619-1.698 3.596 0 7.568 3.149 8.825 7.035.066.223.309.335.53.268a.411.411 0 0 0 .264-.514c-1.368-4.198-5.692-7.615-9.62-7.615-1.809 0-3.33.715-4.28 2.032-1.059 1.497-1.28 3.618-.551 5.829.11.357.441 1.161.596 1.496l.661-.379Z" fill="#433878"/><path d="M33.806 416.344a16.803 16.803 0 0 1-.485-1.363c-.64-1.943-.486-3.796.441-5.091.772-1.095 2.074-1.698 3.618-1.698 3.597 0 7.568 3.149 8.826 7.035.066.223.309.335.53.268a.411.411 0 0 0 .264-.514c-1.368-4.198-5.692-7.615-9.62-7.615-1.809 0-3.331.715-4.28 2.032-1.059 1.496-1.28 3.618-.551 5.829.11.357.44 1.161.595 1.496l.662-.379Z" fill="#433878"/><path d="m85.191 399.46-40.994 24.03M94.146 405.043l-40.994 24.008M102.885 410.649l-40.994 24.03M112.021 415.942l-40.994 24.029M121.174 421.48 80.18 445.487" stroke="#D4C9C9" stroke-width="1.517" stroke-miterlimit="10" stroke-linecap="round" stroke-linejoin="round"/><path d="M528.608 94.732s30.58-10.206 26.079-52.794c0 .023-38.103 21.015-26.079 52.794Z" fill="#5CAA93"/><path opacity=".34" d="M535.867 198.109c16.353 0 29.609-4.28 29.609-9.559 0-5.279-13.256-9.558-29.609-9.558s-29.609 4.279-29.609 9.558 13.256 9.559 29.609 9.559Z" fill="#C97D7F"/><path d="m564.681 149.401-74.068-2.188 11.959 37.094c.441 3.439 2.912 6.789 7.413 9.424 9.951 5.806 26.057 5.851 35.942.067 4.148-2.412 6.552-5.494 7.192-8.643l11.562-35.754Z" fill="snow"/><path d="M564.681 149.402c-10.281 20.746-20.541 41.516-37.044 48.707 6.619.067 13.26-1.363 18.29-4.311 4.148-2.412 6.553-5.493 7.193-8.642l11.561-35.754Z" fill="#EDE1E1"/><path d="M565.466 145.057c.064-12.112-16.696-22.022-37.435-22.136-20.74-.114-37.605 9.613-37.67 21.725-.064 12.111 16.696 22.022 37.435 22.136 20.74.113 37.605-9.613 37.67-21.725Z" fill="#fff"/><path d="M559.883 144.325c.056-10.398-14.331-18.906-32.134-19.003-17.803-.098-32.28 8.252-32.336 18.649-.055 10.398 14.332 18.906 32.134 19.003 17.803.098 32.28-8.252 32.336-18.649Z" fill="#6D6058"/><path d="M528.248 58.755v90.803" stroke="#7FCBB4" stroke-width="12.138" stroke-miterlimit="10" stroke-linecap="round" stroke-linejoin="round"/><path d="M527.9 124.434s1.39-32.538-39.56-43.37c0 0 5.935 43.46 39.56 43.37Z" fill="#7FCBB4"/><path d="M529.026 112.554s31.881-4.556 34.926-47.278c0 .022-41.17 13.868-34.926 47.278ZM528.564 87.675s14.275-30.796-20.916-57.885c0 .022-11.561 44.33 20.916 57.885Z" fill="#7FCBB4"/><path d="m528.648 85.822-20.232-54.157" stroke="#5CAA93" stroke-width="2.428" stroke-miterlimit="10" stroke-linecap="round" stroke-linejoin="round"/><path opacity=".34" d="m198.442 516.437 31.97-18.67c2.008-1.183 1.765-3.26-.574-4.623l-60.52-35.352c-2.339-1.362-5.891-1.519-7.899-.335l-31.97 18.67c-2.008 1.184-1.765 3.261.574 4.623l60.52 35.352c2.317 1.385 5.869 1.519 7.899.335Z" fill="#939393"/><path d="M121.682 479.053v-.067l.132-2.903 2.251.379 30.955-18.067c2.007-1.183 5.582-1.027 7.898.335l59.197 34.571 3.398.58-.133 2.792c0 .759-.441 1.474-1.346 2.01l-31.97 18.67c-2.007 1.183-5.582 1.027-7.898-.335l-60.521-35.352c-1.324-.715-1.963-1.698-1.963-2.613Z" fill="snow"/><path d="m192.174 514.561 31.97-18.67c2.008-1.184 1.766-3.261-.573-4.623l-60.52-35.352c-2.339-1.362-5.891-1.519-7.899-.335l-31.97 18.67c-2.008 1.184-1.765 3.26.573 4.623l60.521 35.352c2.316 1.362 5.891 1.519 7.898.335Z" fill="#5B78B7"/><path d="m184.009 514.092 39.825-22.622-61.226-35.755-39.296 22.891 60.697 35.486Z" fill="#E4EDFF"/><path d="m204.111 483.005-42.472-24.789-27.248 15.879 69.72 8.91Z" fill="#fff"/><path d="m152.153 484.301 23.961-13.98c1.103-.648.971-1.787-.309-2.546l-7.876-4.601c-1.28-.759-3.222-.826-4.347-.178l-23.939 13.98c-1.103.648-.971 1.786.309 2.546l7.877 4.6c1.28.737 3.221.827 4.324.179Z" fill="#EDE1E1"/><path d="M149.195 481.561c2.986-.016 5.398-1.449 5.389-3.201-.009-1.751-2.437-3.158-5.423-3.141-2.985.016-5.398 1.449-5.388 3.2.009 1.752 2.437 3.158 5.422 3.142Z" fill="#fff"/><path d="m168.106 465.765-14.452 8.464M170.772 468.065l-7.524 4.422" stroke="#fff" stroke-width="1.922" stroke-miterlimit="10" stroke-linecap="round" stroke-linejoin="round"/><path d="m170.753 495.556 23.961-13.98c1.104-.647.971-1.786-.308-2.546l-7.877-4.6c-1.28-.759-3.221-.826-4.347-.179l-23.961 13.98c-1.103.648-.97 1.787.309 2.546l7.877 4.601c1.28.737 3.221.826 4.346.178Z" fill="#FFAC80"/><path d="M167.797 492.817c2.985-.017 5.398-1.45 5.389-3.201-.01-1.752-2.438-3.158-5.423-3.142-2.985.017-5.398 1.45-5.389 3.201.01 1.751 2.438 3.158 5.423 3.142Z" fill="#fff"/><path d="m186.682 477.021-14.452 8.486M189.351 479.321l-7.501 4.422" stroke="#fff" stroke-width="1.922" stroke-miterlimit="10" stroke-linecap="round" stroke-linejoin="round"/><path d="m189.328 506.812 23.961-13.98c1.103-.648.971-1.787-.309-2.546l-7.877-4.601c-1.28-.759-3.221-.826-4.346-.178l-23.961 13.98c-1.104.647-.971 1.786.308 2.546l7.877 4.6c1.302.737 3.244.827 4.347.179Z" fill="#EDE1E1"/><path d="M186.369 504.072c2.986-.016 5.398-1.449 5.389-3.2-.01-1.752-2.437-3.158-5.423-3.142-2.985.016-5.398 1.449-5.388 3.201.009 1.751 2.437 3.158 5.422 3.141Z" fill="#fff"/><path d="m205.282 488.276-14.452 8.487M207.949 490.599l-7.523 4.399" stroke="#fff" stroke-width="1.922" stroke-miterlimit="10" stroke-linecap="round" stroke-linejoin="round"/><path opacity=".34" d="m326.01 334.411 171.367-100.072c1.986-1.161 5.472-1.005 7.766.335l100.345 58.489c2.295 1.34 2.538 3.372.552 4.534l-157.909 97.637a24.524 24.524 0 0 1-18.224 3.104c-1.081-.156-2.118-.491-3.001-1.005l-100.345-58.489c-2.272-1.317-2.537-3.372-.551-4.533Z" fill="#989898"/><path d="m309.217 322.463 4.236 2.703 1.766-6.075h-6.465l.463 3.372ZM458.3 103.717l-4.236-2.724-7.281 6.923 9.068 1.429 2.449-5.628Z" fill="#463757"/><path d="m314.954 322.508 168.499-98.396c3.729-2.166 5.56-8.174 4.104-13.31l-29.764-104.449c-1.456-5.136-5.714-7.57-9.443-5.404l-168.941 99.267c-3.728 2.166-4.832 6.142-3.353 11.3l29.477 105.588c1.456 5.159 5.692 7.593 9.421 5.404Z" fill="#5B78B7"/><path d="m319.298 325.3 168.499-98.397c3.729-2.166 5.56-8.174 4.104-13.31l-29.764-104.449c-1.456-5.136-5.715-7.57-9.443-5.404l-170.11 99.513c-3.729 2.166-4.479 5.07-3.001 10.228l30.271 106.414c1.479 5.159 5.715 7.593 9.444 5.405Z" fill="#E4EDFF"/><path d="m482.615 180.965-20.453-71.821c-1.456-5.136-5.715-7.571-9.443-5.404l-108.553 63.513 138.449 13.712Z" fill="#fff" fill-opacity=".62"/><path d="M316.432 330.682v-5.561l24.733 14.561 1.412-3.283 164.682-96.163c1.986-1.161 5.935-1.005 8.208.335l71.353 41.404v-1.161l10.834 5.315 1.522-.625-.199 5.047c-.176 1.094-.595 1.563-1.257 1.943L426.33 392.833c-1.986 1.161-5.472 1.139-7.766-.201l-99.485-57.506c-2.669-1.384-2.647-4.444-2.647-4.444Z" fill="#4B6499"/><path d="M316.432 330.682v-5.561l24.733 14.561 1.412-3.283 80.775-47.166 2.978 103.623c-.993.58-2.361.87-3.773.848-1.412-.022-2.846-.357-3.993-1.027l-99.485-57.551c-2.669-1.384-2.647-4.444-2.647-4.444Z" fill="#5B78B7"/><path d="m317.756 324.831 171.367-100.072c1.986-1.161 5.472-1.005 7.766.335l100.345 58.489c2.295 1.34 2.538 3.372.552 4.533L426.419 388.188c-1.986 1.161-5.472 1.005-7.767-.335l-100.345-58.489c-2.272-1.34-2.537-3.394-.551-4.533Z" fill="#A4BAEA"/><path d="M497.045 252.942c.243.157.75.09 1.125-.134l10.414-6.074c.375-.223.486-.514.221-.67l-6.884-4.02c-.243-.156-.75-.089-1.125.134l-10.414 6.074c-.375.224-.486.514-.221.67l6.884 4.02ZM484.976 271.054c.243.157.75.09 1.126-.134l10.413-6.074c.376-.223.486-.514.221-.67l-6.884-4.02c-.242-.134-.75-.089-1.125.134l-10.414 6.074c-.375.224-.485.514-.243.67l6.906 4.02ZM491.084 278.602c.243.157.75.09 1.126-.134l10.413-6.074c.376-.223.486-.514.221-.67l-6.906-4.02c-.242-.134-.75-.089-1.125.134l-10.414 6.075c-.375.223-.485.513-.243.647l6.928 4.042ZM507.588 280.054c.243.134.75.089 1.125-.134l10.414-6.074c.375-.224.463-.514.221-.648l-6.884-4.02c-.243-.134-.75-.089-1.125.134l-10.414 6.075c-.375.223-.464.513-.221.669l6.884 3.998ZM536.227 275.811c.243.156.75.089 1.125-.134l10.414-6.074c.376-.224.486-.514.221-.67l-8.097-4.735c-.243-.134-.75-.089-1.126.134l-10.413 6.075c-.376.223-.464.513-.221.67l8.097 4.734ZM518.269 286.285c.243.156.839.022 1.346-.268l13.635-7.95c.486-.291.684-.648.442-.782l-8.098-4.735c-.242-.134-.86-.022-1.346.246l-13.635 7.95c-.485.291-.684.648-.441.782l8.097 4.757ZM428.731 338.632c.199.111.684.044 1.059-.179l10.392-6.074c.375-.224.53-.492.309-.626l-3.001-1.742c-.198-.111-.684-.044-1.059.179l-10.392 6.074c-.375.224-.507.492-.308.626l3 1.742ZM414.833 346.962c.198.112.684.045 1.059-.179l10.392-6.074c.375-.223.529-.491.309-.625l-3.001-1.742c-.199-.112-.684-.045-1.059.178l-10.392 6.075c-.375.223-.507.491-.309.625l3.001 1.742ZM400.095 355.359c.198.111.661.022 1.037-.179l10.391-6.074c.376-.224.53-.492.331-.603l-2.89-1.675c-.199-.112-.662-.023-1.037.178l-10.392 6.075c-.375.223-.507.491-.331.603l2.891 1.675ZM409.141 343.746c.199.112.662.022 1.037-.179l10.392-6.074c.375-.223.53-.491.331-.603l-2.89-1.675c-.199-.112-.662-.022-1.037.179l-10.392 6.074c-.375.223-.507.491-.331.603l2.89 1.675ZM446.717 328.046c.243.157.75.09 1.125-.134l67.713-39.506c.375-.223.486-.513.221-.67l-8.097-4.734c-.243-.134-.773-.09-1.126.134l-67.713 39.506c-.375.223-.485.513-.242.67l8.119 4.734Z" fill="#849FDA"/><path d="M520.143 283.672c.022 0 .066 0 .11-.023l7.943-4.645c.044-.022.066-.044.044-.067l-.507-.29a.24.24 0 0 0-.11.022l-7.943 4.645c-.044.023-.066.045-.044.067l.507.291ZM540.528 270.897h.066l3.376-1.965c.022 0 .022-.022 0-.045l-.508-.29h-.066l-3.376 1.965c-.022 0-.022.023 0 .045l.508.29ZM493.314 288.361c.243.134.751.09 1.126-.134l10.414-6.074c.375-.223.485-.514.22-.67l-6.884-4.02c-.242-.134-.772-.089-1.125.134l-10.414 6.074c-.375.224-.485.514-.22.67l6.883 4.02ZM478.992 296.714c.242.134.75.089 1.125-.134l10.392-6.074c.375-.224.485-.514.243-.67l-6.884-4.02c-.243-.134-.773-.09-1.126.134l-10.391 6.074c-.376.224-.464.514-.221.67l6.862 4.02ZM464.674 305.088c.243.134.75.09 1.125-.134l10.414-6.074c.375-.223.463-.514.221-.648l-6.884-4.019c-.243-.134-.75-.09-1.125.134l-10.414 6.074c-.375.223-.464.514-.221.67l6.884 3.997ZM450.336 313.441c.243.134.75.089 1.125-.134l10.414-6.074c.375-.224.486-.514.221-.67l-6.884-4.02c-.243-.134-.75-.09-1.125.134l-10.414 6.074c-.375.224-.464.514-.221.67l6.884 4.02ZM436.015 321.815c.243.134.751.09 1.126-.134l10.392-6.074c.375-.223.463-.514.22-.648l-6.884-4.02c-.242-.134-.75-.089-1.125.134l-10.392 6.075c-.375.223-.485.513-.243.67l6.906 3.997ZM421.699 330.168c.243.134.75.089 1.125-.134l10.392-6.074c.375-.224.486-.514.221-.67l-6.884-4.02c-.243-.134-.75-.09-1.125.134l-10.392 6.074c-.375.223-.485.514-.221.67l6.884 4.02ZM389.416 348.994c.243.134.75.089 1.125-.134l28.352-16.548c.375-.224.485-.514.22-.67l-6.883-4.02c-.243-.134-.75-.089-1.126.134l-28.351 16.548c-.375.224-.486.514-.221.67l6.884 4.02ZM476.811 286.91c.243.157.75.09 1.125-.134l10.414-6.074c.375-.223.486-.514.221-.648l-6.906-4.02c-.243-.134-.75-.089-1.125.134l-10.414 6.075c-.375.223-.463.513-.221.647l6.906 4.02ZM462.487 295.262c.243.157.75.09 1.125-.134l10.414-6.074c.375-.223.486-.514.221-.648l-6.906-4.019c-.243-.134-.75-.09-1.125.133l-10.414 6.075c-.375.223-.464.514-.221.648l6.906 4.019ZM448.172 303.637c.242.156.75.09 1.125-.134l10.414-6.074c.375-.224.485-.514.243-.67l-6.906-4.02c-.243-.134-.773-.089-1.126.134l-10.414 6.074c-.375.224-.485.514-.242.648l6.906 4.042ZM433.831 311.989c.242.157.75.09 1.125-.134l10.392-6.074c.375-.224.485-.514.22-.67l-6.905-4.02c-.243-.134-.751-.089-1.126.134l-10.392 6.074c-.375.224-.485.514-.22.648l6.906 4.042ZM419.512 320.342c.243.156.75.089 1.126-.134l10.414-6.075c.375-.223.485-.513.22-.647l-6.906-4.02c-.242-.134-.75-.089-1.125.134l-10.414 6.074c-.375.224-.485.514-.221.648l6.906 4.02ZM405.189 328.716c.243.157.751.09 1.126-.134l10.392-6.074c.375-.224.485-.514.242-.67l-6.906-4.02c-.242-.134-.75-.089-1.125.134l-10.392 6.074c-.375.224-.463.514-.22.648l6.883 4.042ZM390.852 337.069c.243.156.75.089 1.125-.134l10.414-6.074c.375-.224.486-.514.221-.648l-6.906-4.02c-.243-.134-.75-.089-1.125.134l-10.414 6.075c-.375.223-.463.513-.221.647l6.906 4.02ZM470.718 279.384c.243.156.751.089 1.126-.134l10.414-6.074c.375-.224.463-.514.22-.648l-6.884-4.02c-.242-.134-.75-.089-1.125.134l-10.414 6.075c-.375.223-.485.513-.242.647l6.905 4.02ZM456.404 287.737c.243.156.751.089 1.126-.134l10.414-6.075c.375-.223.485-.513.22-.67l-6.884-4.02c-.242-.134-.75-.089-1.125.134l-10.414 6.075c-.375.223-.463.514-.22.648l6.883 4.042ZM442.06 296.111c.243.156.75.089 1.126-.134l10.391-6.074c.376-.224.464-.514.221-.67l-6.884-4.02c-.242-.134-.75-.09-1.125.134l-10.392 6.074c-.375.224-.485.514-.243.67l6.906 4.02ZM427.742 304.464c.243.156.75.089 1.125-.134l10.414-6.075c.376-.223.486-.513.221-.67l-6.884-4.02c-.242-.134-.75-.089-1.125.134l-10.414 6.075c-.375.223-.463.513-.221.647l6.884 4.043ZM413.424 312.816c.243.156.75.089 1.125-.134l10.414-6.075c.375-.223.485-.513.221-.67l-6.884-4.019c-.243-.134-.75-.09-1.125.133l-10.414 6.075c-.375.223-.464.514-.221.648l6.884 4.042ZM399.081 321.19c.243.157.75.09 1.147-.134l10.414-6.074c.376-.223.486-.514.221-.67l-6.884-4.02c-.242-.134-.75-.089-1.125.134l-10.414 6.075c-.375.223-.485.513-.243.67l6.884 4.019ZM384.764 329.543c.242.156.75.089 1.125-.134l10.414-6.075c.375-.223.485-.513.221-.67l-6.884-4.019c-.243-.134-.75-.09-1.126.134l-10.413 6.074c-.376.223-.464.514-.221.648l6.884 4.042ZM499.293 262.702c.242.156.75.089 1.125-.134l17.651-10.295c.375-.224.485-.514.22-.67l-6.883-4.02c-.243-.134-.751-.09-1.126.134l-17.651 10.295c-.375.223-.485.514-.242.67l6.906 4.02ZM360.934 332.357c.242.156.75.089 1.125-.134l17.651-10.295c.375-.224.485-.514.22-.67l-6.884-4.02c-.242-.157-.772-.09-1.125.134l-17.651 10.295c-.375.223-.485.514-.22.67l6.884 4.02ZM505.409 270.228c.242.156.75.089 1.125-.134l21.026-12.283c.375-.223.486-.514.221-.67l-6.906-4.02c-.243-.134-.75-.089-1.125.134l-21.027 12.283c-.375.223-.485.514-.242.648l6.928 4.042ZM521.908 271.68c.243.134.75.089 1.125-.134l14.033-8.174c.375-.223.485-.514.22-.67l-6.883-4.02c-.243-.134-.751-.089-1.126.134l-14.032 8.174c-.375.223-.485.513-.221.67l6.884 4.02ZM482.721 261.295c.242.156.75.089 1.125-.134l10.392-6.075c.375-.223.485-.513.22-.67l-6.883-4.019c-.243-.157-.751-.09-1.126.134l-10.392 6.074c-.375.223-.485.514-.22.67l6.884 4.02ZM468.447 269.602c.243.157.75.09 1.125-.134l10.414-6.074c.376-.223.486-.514.221-.67l-6.884-4.02c-.242-.156-.75-.089-1.125.134l-10.414 6.074c-.375.224-.485.514-.221.67l6.884 4.02ZM454.131 277.977c.243.157.75.09 1.125-.134l10.414-6.074c.375-.223.486-.514.221-.67l-6.884-4.02c-.243-.156-.75-.089-1.125.134l-10.414 6.075c-.375.223-.464.513-.221.647l6.884 4.042ZM439.811 286.329c.242.156.75.089 1.125-.134l10.392-6.074c.375-.224.485-.514.22-.67l-6.884-4.02c-.242-.156-.75-.089-1.125.134l-10.392 6.074c-.375.224-.485.514-.22.67l6.884 4.02ZM425.492 294.682c.243.156.75.089 1.125-.134l10.392-6.075c.375-.223.486-.513.221-.67l-6.884-4.02c-.243-.156-.75-.089-1.125.134l-10.392 6.075c-.375.223-.463.514-.221.648l6.884 4.042ZM411.152 303.056c.243.157.75.09 1.126-.134l10.414-6.074c.375-.223.463-.514.22-.648l-6.884-4.02c-.242-.156-.75-.089-1.125.135l-10.414 6.074c-.375.223-.485.514-.221.648l6.884 4.019ZM396.832 311.409c.243.156.75.089 1.125-.134l10.414-6.074c.375-.224.486-.514.221-.67l-6.884-4.02c-.243-.157-.75-.09-1.125.134l-10.414 6.074c-.375.223-.486.514-.221.67l6.884 4.02ZM382.512 319.761c.242.156.75.089 1.125-.134l10.414-6.074c.375-.224.463-.514.221-.648l-6.884-4.02c-.243-.156-.75-.089-1.125.134l-10.414 6.074c-.376.224-.464.514-.221.648l6.884 4.02ZM374.171 327.153c.177-.112.375-.179.618-.201.221-.022.397 0 .507.067l6.884 4.02c.111.067.177.178.133.312-.044.134-.177.246-.353.358l-2.714 1.585 9.046 5.293c.11.067.154.179.11.313s-.176.245-.353.357l-7.016 4.087a1.437 1.437 0 0 1-.618.201c-.22.022-.397 0-.529-.067l-16.394-9.581c-.11-.067-.154-.178-.11-.312s.177-.246.353-.358l10.436-6.074Z" fill="#849FDA"/><path d="M523.758 268.285c.022 0 .067 0 .111-.023l7.943-4.645c.044-.022.066-.044.044-.067l-.508-.29a.24.24 0 0 0-.11.022l-7.943 4.645c-.044.023-.066.045-.044.067l.507.291Z" fill="#849FDA"/><path d="m483.144 337.113 40.244-23.493c2.162-1.273 2.029-3.261-.309-4.444l-13.459-6.767c-2.339-1.184-6.024-1.094-8.208.156l-40.244 23.494c-2.162 1.273-2.03 3.26.309 4.444l13.459 6.767c2.339 1.183 6.023 1.116 8.208-.157Z" fill="#9BB1E0"/><path opacity=".34" d="m412.958 226.367-30.139 18.424c-8.362 5.114-17.099.848-19.371-9.469l-2.913-13.087c-2.294-10.318 2.692-22.958 11.054-28.072l30.139-18.424c8.362-5.114 17.099-.849 19.372 9.469l2.912 13.087c2.273 10.317-2.692 22.957-11.054 28.072Z" fill="#E3CFCF"/><path d="m409.364 221.789-30.138 18.424c-8.362 5.114-17.1.849-19.372-9.469l-2.912-13.087c-2.295-10.317 2.691-22.958 11.053-28.072l30.139-18.424c8.362-5.114 17.099-.849 19.372 9.469l2.912 13.087c2.295 10.34-2.669 22.958-11.054 28.072Z" fill="#7FCBB4"/><path d="m385.603 219.622-4.059-18.245c-.331-1.474.728-3.194 1.941-3.194l16.813.09c1.346 0 1.809 2.099.794 3.55l-12.775 18.157c-.926 1.317-2.383 1.116-2.714-.358Z" fill="#fff"/><path opacity=".34" d="m358.616 222.794-11.407 6.967c-6.773 4.154-10.811 14.382-8.958 22.735 1.854 8.352 8.914 11.814 15.709 7.682l11.407-6.968c.287-.178.574-.357.839-.558l-.089.112 7.524.603-2.427-6.186c3.001-4.869 4.325-11.189 3.111-16.705-1.853-8.375-8.914-11.814-15.709-7.682ZM425.537 159.749l-13.371 8.174c-5.361 3.282-8.538 11.367-7.082 17.977l.375 1.653c1.478 6.61 7.06 9.335 12.422 6.074l13.37-8.174c5.362-3.282 8.539-11.367 7.083-17.977l-.375-1.653c-1.479-6.632-7.083-9.357-12.422-6.074Z" fill="#E3CFCF"/><path d="m361.509 253.835-11.406 6.968c-6.774 4.154-13.856.693-15.71-7.682-1.853-8.352 2.163-18.603 8.958-22.735l11.407-6.967c6.774-4.154 13.856-.693 15.709 7.682 1.854 8.352-2.184 18.603-8.958 22.734Z" fill="#F37E60"/><path d="m362.26 253.389 7.523.603-2.427-6.187-5.096 5.584Z" fill="#FF9963"/><path d="M347.41 246.308c.475-1.53-.017-3.049-1.098-3.393-1.081-.344-2.342.618-2.817 2.147-.475 1.53.016 3.049 1.097 3.393 1.081.343 2.343-.618 2.818-2.147ZM354.242 242.127c.475-1.529-.017-3.048-1.098-3.392-1.081-.344-2.342.617-2.817 2.147-.475 1.53.016 3.049 1.097 3.392 1.081.344 2.343-.617 2.818-2.147ZM361.198 236.059c.309 1.407-.353 3.104-1.501 3.796-1.147.693-2.316.112-2.625-1.295-.309-1.407.353-3.104 1.5-3.796 1.148-.693 2.317-.112 2.626 1.295Z" fill="#fff"/><path d="m433.083 178.642-13.37 8.174c-5.362 3.283-10.944.536-12.422-6.074l-.375-1.653c-1.479-6.61 1.721-14.695 7.082-17.978l13.371-8.173c5.361-3.283 10.943-.536 12.421 6.074l.375 1.653c1.457 6.61-1.743 14.694-7.082 17.977Z" fill="#68CCEA"/><path d="m410.975 169.441 21.203-12.952M412.367 175.694l21.203-12.952M413.752 181.97l14.606-8.933" stroke="snow" stroke-width="2.428" stroke-miterlimit="10" stroke-linecap="round" stroke-linejoin="round"/><path opacity=".34" d="M235.925 410.897c1.816-15.01-16.91-29.682-41.826-32.771-24.916-3.09-46.587 6.573-48.403 21.582-1.817 15.01 16.909 29.682 41.825 32.771 24.916 3.09 46.587-6.573 48.404-21.582Z" fill="#5B78B7"/><path d="M184.408 428.997c23.338-1.253 41.661-13.661 40.925-27.714-.736-14.054-20.253-24.43-43.592-23.178-23.339 1.253-41.662 13.661-40.925 27.715.736 14.053 20.253 24.43 43.592 23.177Z" fill="#5672B1"/><path d="M183.702 415.575c23.339-1.253 41.662-13.661 40.926-27.714-.736-14.053-20.253-24.43-43.592-23.177-23.339 1.253-41.662 13.661-40.925 27.714.736 14.053 20.253 24.43 43.591 23.177Z" fill="#7B9DE5"/><path d="m189.978 369.649 5.472 12.952a2.667 2.667 0 0 1-.971 3.261l-15.621 10.273c-1.699 1.117-3.949-.067-4.038-2.099l-.706-16.08a2.614 2.614 0 0 1 1.192-2.322l10.833-7.124a2.593 2.593 0 0 1 3.839 1.139Z" fill="#7694D4"/><path d="m185.678 365.249-5.737-2.836-12.995 8.687-1.633 17.978a2.91 2.91 0 0 0 1.059 2.523l2.471 2.01c2.405 1.965 5.957.134 5.825-2.992l-.618-14.204 11.826-7.794c1.28-.804 1.169-2.702-.198-3.372Z" fill="#5D7BBD"/><path d="m175.549 239.205-37.199 62.307 41.214 66.484" stroke="#5877B8" stroke-width="14.566" stroke-miterlimit="10" stroke-linecap="round" stroke-linejoin="round"/><path d="m165.309 234.292-38.038 68.739 44.392 70.325" stroke="#5877B8" stroke-width="14.566" stroke-miterlimit="10" stroke-linecap="round" stroke-linejoin="round"/><path d="m136.785 235.811 27.778 17.843c7.48 4.802 17.497 2.546 22.241-5.025l.485-.759c4.744-7.571 2.515-17.687-4.964-22.489l-27.778-17.843c-7.48-4.802-17.497-2.546-22.24 5.025l-.486.759c-4.766 7.548-2.515 17.665 4.964 22.489Z" fill="#7694D4"/><path opacity=".68" d="m150.241 213.903 16.504 9.826c.816.491 1.897.201 2.383-.625.485-.827.198-1.921-.618-2.412l-16.503-9.827c-.817-.491-1.898-.201-2.383.626a1.784 1.784 0 0 0 .617 2.412ZM141.616 220.133l16.504 9.826c.816.492 1.897.201 2.383-.625.485-.826.198-1.921-.618-2.412l-16.503-9.826c-.817-.492-1.898-.201-2.383.625a1.783 1.783 0 0 0 .617 2.412ZM137.999 230.674l16.504 9.826c.816.491 1.897.201 2.383-.625.485-.827.198-1.921-.618-2.412l-16.504-9.826c-.816-.492-1.897-.201-2.382.625-.486.826-.199 1.92.617 2.412Z" fill="#B7CDFE"/><path d="M212.136 267.512c12.655-18.585 18.546-36.698 13.158-40.457-5.388-3.759-20.015 8.26-32.67 26.845-12.654 18.585-18.545 36.698-13.157 40.457 5.388 3.758 20.014-8.261 32.669-26.845Z" fill="#8EA8E0"/><path d="m175.508 291.217-9.62-11.166c-11.848-13.779-12.443-34.101-1.412-48.528 10.105-13.243 27.558-18.29 43.068-12.506l14.32 5.359-46.356 66.841Z" fill="#88A5E5"/><path d="M208.7 264.809c12.655-18.585 18.546-36.698 13.158-40.457-5.388-3.758-20.014 8.261-32.669 26.846-12.655 18.585-18.546 36.698-13.158 40.456 5.388 3.759 20.015-8.26 32.669-26.845Z" fill="#5877B8"/><path d="M211.07 248.428c-.11 6.879-2.603 16.973-15.201 21.372-5.45 1.899-10.878-3.037-9.377-8.665 1.985-7.526 7.81-16.034 14.231-19.339 4.787-2.457 10.436 1.228 10.347 6.632Z" fill="#C7D8FB"/><path d="M189.183 251.22c12.664-18.581 27.292-30.618 32.676-26.866 1.015.692 1.611 1.898 1.875 3.529-6.861 1.496-18.467 12.26-28.748 27.379-10.282 15.119-16.107 29.903-15.026 36.916-1.588.335-2.912.201-3.927-.514-5.406-3.752.507-21.864 13.15-40.444Z" fill="#B7CDFE"/><path d="m140.691 296.957-14.474 7.503c-1.721.894-2.317 3.105-1.28 4.757l6.928 11.032a2.236 2.236 0 0 0 2.957.782l14.716-8.107c1.236-.67 1.633-2.255.883-3.439l-7.436-11.858c-.463-.827-1.478-1.095-2.294-.67Z" fill="#7B9DE5"/><path d="m127.144 303.969-1.699 1.005c-1.258.737-1.655 2.39-.861 3.64l7.215 11.479a2.377 2.377 0 0 0 3.155.826l2.758-1.518-10.568-15.432Z" fill="#5D7BBD"/><path d="m307.304 441.601 55.336 13.645 11.98 7.771 3.332 2.435c.419.312.684.804.706 1.34.044.759.066 1.407-.243 1.607l-69.963 42.298c-.221.134-.464.179-.728.179-6.178 0-2.118-69.499-.42-69.275Z" fill="#A6603B"/><path d="m309.204 506.834 63.918-38.68c.86-.514 1.257-7.079.375-7.571l-91.939-52.525a1.29 1.29 0 0 0-1.302.022l-69.522 41.494c-.86.513-.838 1.764.022 2.255l95.976 55.049a2.614 2.614 0 0 0 2.472-.044Z" fill="#A6603B"/><path d="m310.349 506.119 65.705-39.796c-3.441-6.186-3.221-11.099-1.279-19.987l-62.55 39.483c-2.692 7.437-3.884 15.075-1.876 20.3Z" fill="snow"/><path d="m209.939 432.355 2.758-.022v.111l67.427-40.22c.397-.246.882-.246 1.301-.023l95.204 54.402v-.58l1.788-.023.022 2.166h-.022a1.31 1.31 0 0 1-.618 1.363l-69.522 41.493c-.397.246-.883.246-1.302.023l-96.352-55.05a1.272 1.272 0 0 1-.639-1.049l-.045-2.591Z" fill="#C27750"/><path d="M307.303 456.653c.397-.246 69.323-10.072 69.323-10.072V446l1.787-.781.022 2.925h-.022c.089.514-.11 1.05-.617 1.362L308.273 491c-.198.112-2.316 1.563-2.559 1.563-.221-.022 1.589-35.91 1.589-35.91Z" fill="#A6603B"/><path d="m308.231 487.695 69.522-41.494c.861-.513.839-1.764-.022-2.255l-95.976-54.849c-.397-.223-1.478-.29-1.876-.067l-69.301 41.338c-.861.513-.839 1.764.022 2.255l96.351 55.049c.397.268.883.246 1.28.023Z" fill="#FFAC80"/><path d="m308.232 487.695 6.398-3.819-98.536-56.792-5.538 3.306c-.86.513-.838 1.764.022 2.255l96.352 55.05c.419.245.904.223 1.302 0Z" fill="#FFB994"/><path d="m312.206 482.603-95.05-54.737" stroke="#C77347" stroke-width="2.428" stroke-miterlimit="10" stroke-linecap="round" stroke-linejoin="round"/><path d="M307.703 487.873c-3.156 10.742-1.898 19.452-.309 22.936l-97.278-55.273s-5.207-13.935-.309-23.739l97.896 56.076Z" fill="#E38B5D"/><path d="m250.819 430.01 37.332-21.796c2.008-1.162 1.743-3.239-.574-4.578-2.316-1.34-5.847-1.497-7.854-.335l-37.332 21.796c-2.008 1.161-1.743 3.238.574 4.578 2.316 1.362 5.847 1.496 7.854.335ZM335.057 434.812c-1.368-.804-3.486-.894-4.678-.201l-40.045 23.404c-1.191.692-1.037 1.921.331 2.725 1.368.804 3.486.893 4.678.201l40.067-23.405c1.191-.692 1.037-1.92-.353-2.724ZM349.95 443.723c-1.368-.804-3.486-.894-4.677-.201l-40.068 23.404c-1.191.692-1.037 1.921.331 2.725 1.368.804 3.486.893 4.678.201l40.067-23.405c1.191-.692 1.037-1.92-.331-2.724Z" fill="#FFDCC9"/><path opacity=".34" d="M290.357 447.899c12.843 0 23.255-4.7 23.255-10.497 0-5.796-10.412-10.496-23.255-10.496-12.844 0-23.255 4.7-23.255 10.496 0 5.797 10.411 10.497 23.255 10.497Z" fill="#6E5487"/><path d="m297.639 401.157-9.818-4.02a19.27 19.27 0 0 1-1.544-.714 9.781 9.781 0 0 0-1.434-.603c-.044-.023-.089-.023-.133-.045a11.493 11.493 0 0 0-1.169-.313c-8.031-1.742-17.916-.804-23.233 8.241-4.92 8.375-2.515 18.893-2.515 18.893 1.588 8.397 8.913 17.531 9.664 17.844 0 0 4.324 3.327 7.545 4.399 1.787.603 5.097 1.251 9.113 1.474 11.098.648 15.974-7.95 19.151-14.293 1.257-2.546 10.656-24.61-5.627-30.863Z" fill="#E46681"/><path d="m297.836 401.135-9.818-3.998a19.291 19.291 0 0 1-1.545-.714 9.736 9.736 0 0 0-1.434-.603c-.044-.023-.088-.023-.132-.045a11.581 11.581 0 0 0-1.17-.313 30.603 30.603 0 0 0-4.788-.67l8.252 3.372c16.283 6.231 6.73 28.251 5.604 30.864-6.508 15.231-20.894 14.583-19.129 15.476 4.545 2.278 6.597 1.563 10.613 1.809 11.098.648 15.974-7.95 19.151-14.293 1.28-2.568 10.679-24.632-5.604-30.885Z" fill="#E3758C"/><path d="M284.289 405.512c-1.39.804-3.64.804-5.03 0-1.39-.804-1.412-2.122-.022-2.948 1.39-.804 3.64-.804 5.03 0 1.412.826 1.412 2.144.022 2.948Z" fill="#E3758C"/><path d="M281.842 403.658c-.044-.268-.838-6.722 4.104-9.625" stroke="#463757" stroke-width="3.757" stroke-miterlimit="10" stroke-linecap="round" stroke-linejoin="round"/><path d="M266.727 407.321c0 .625-.507 1.138-1.125 1.138a1.136 1.136 0 0 1-1.125-1.138c0-.626.507-1.139 1.125-1.139.64 0 1.125.513 1.125 1.139ZM271.934 409.599c0 .625-.507 1.139-1.125 1.139a1.137 1.137 0 0 1-1.125-1.139c0-.626.507-1.139 1.125-1.139s1.125.491 1.125 1.139ZM267.872 412.77c0 .625-.508 1.139-1.126 1.139a1.137 1.137 0 0 1-1.125-1.139c0-.625.508-1.139 1.125-1.139.618 0 1.126.514 1.126 1.139ZM263.749 414.825c0 .625-.508 1.139-1.126 1.139a1.137 1.137 0 0 1-1.125-1.139c0-.626.508-1.139 1.125-1.139.618 0 1.126.513 1.126 1.139ZM268.958 417.103c0 .625-.508 1.139-1.126 1.139a1.137 1.137 0 0 1-1.125-1.139c0-.626.507-1.139 1.125-1.139s1.126.491 1.126 1.139Z" fill="#FA909C"/><path d="M224.657 440.306s-.574 17.173 3.883 25.704l11.407 6.477s-4.788-19.407-4.104-25.772l-11.186-6.409Z" fill="snow"/><path d="m313.613 493.323 59.77-36.625M314.207 498.526l59.77-36.625" stroke="#BFB1A8" stroke-width="2.428" stroke-miterlimit="10" stroke-linecap="round" stroke-linejoin="round"/><path opacity=".15" d="M482.903 333.554c2.882 0 5.925-.48 8.647.481h-2.562c3.203.8 6.406 1.441 9.128 3.042 2.402 1.281 4.484 3.043 6.406 4.805 10.249 9.128 17.776 20.818 28.185 29.466 7.367 6.085 16.014 11.85 25.623 11.85 7.847 0 15.374-4.003 20.178-10.089 6.406-8.327 8.167-20.017 16.335-26.743 4.484-3.524 10.089-4.965 15.053-7.847 3.844-2.082 7.367-6.086 6.406-10.25-.961-4.003-5.445-5.925-9.449-7.206-10.409-3.363-21.939-6.726-32.188-10.089-6.887-2.242-14.093-3.683-21.46-4.004-4.484-.32-8.968-.16-13.452-.8a75.44 75.44 0 0 1-8.167-1.922c-5.285-1.441-10.569-3.363-15.694-5.445-2.242-.961-4.804-2.242-5.765-4.484-4.804-12.811 14.092-16.975 22.74-16.014 8.328.961 15.854 4.644 23.541 8.007 17.456 7.527 35.712 12.971 54.449 16.334 20.018 3.524 41.157 4.965 58.773 15.054 4.964 2.882 9.928 6.726 11.049 12.331 1.922 9.609-7.206 18.577-9.448 27.384-2.082 8.808-1.601 17.936-1.762 27.065-.16 9.128-.96 18.416-5.605 26.263-.48.961 3.777 28.956 3.136 29.757l-58.5 36c-1.922-.32-12.696-27.963-14.618-28.604-11.851-4.324-23.381-9.448-34.911-14.733-.641-.32-1.121-.48-1.762-.801-12.811-5.925-23.221-12.651-31.388-24.341-11.53-16.335-20.498-34.912-35.872-47.563-5.285-4.324-11.53-8.167-14.413-14.253-1.281-2.722-1.922-6.245-.32-8.807 1.601-2.563 4.804-3.844 7.687-3.844Z" fill="#9E9EA4"/><path d="M613.097 240.191c.32.64.48 1.441.8 2.081 4.164 9.769 10.89 18.417 18.737 25.784 2.242 2.081 4.484 4.003 7.367 4.644 3.843.961 8.327-.641 11.69 1.281 1.442.801 2.563 2.242 4.004 3.363 1.441 1.121 3.363 1.761 4.804.801.961-.641 1.441-1.602 2.242-2.403 2.562-2.562 6.886-.8 10.089 1.121l3.844 2.403c4.003 2.722 7.847 5.765 11.049 9.288 1.762 1.922 3.363 4.003 5.445 5.445 2.082 1.441 4.965 2.082 7.367.961.801-.481 1.601-1.121 2.402-1.602a9.672 9.672 0 0 1 3.043-.961c.961-.16 2.082-.16 3.042-.32 5.445-.48 11.211-1.762 14.413-6.085l1.442-2.403c.64-.96 1.121-2.081 2.082-2.722 1.281-.961 3.202-1.281 4.644-2.242 2.722-2.082 4.644-4.964 5.925-8.327 1.441-4.004 3.647-6.717 5.472-11.298.847-2.127 1.001-2.879 1.001-4 .48-7.847-.76-15.973-3.002-23.5-3.042-11.851-9.889-22.993-19.498-31-4.484-3.843-8.484-8.18-13.609-11.062-3.523-2.082-8.387-3.297-12.391-3.938-2.082-.32-3.578-.359-5.5-1-4.804-1.441-9.696-6.141-14.5-5.5-1.281.16-3.719.656-5 .817-4.164.64-6.317-2.235-10-4.317-4.324-2.402-11.532-2.409-14.735 1.594-.961 1.121-1.824 2.082-3.265 2.723-2.082.96-3.418-.481-5.5 0-1.601.32-3.566 2.081-4.847 3.042-2.723 1.922-6.406 1.281-9.128 2.883-2.883 1.761-5.125 6.886-6.887 9.608-7.366 13.292-8.487 30.588-3.042 44.841Z" fill="#3D3D3D"/><path d="M623.187 185.582c2.722-1.602 6.245 1.922 8.968 0 1.281-.961 2.562-5.285 4.163-5.605 2.242-.481 4.484 1.121 6.566.32 1.442-.64 2.082-2.082 3.043-3.363 3.203-3.843 9.449-3.363 13.772-.961 3.684 2.082 7.367 5.285 11.531 4.644 1.281-.16 2.562-.8 3.843-.96 4.965-.641 8.968 3.843 13.612 5.284 1.922.481 4.004.481 6.086.961 4.003.641 7.687 2.723 11.21 4.804 5.124 3.043 10.089 6.086 14.733 9.769 9.609 8.007 16.495 19.057 19.858 31.068 2.082 7.527 3.523 15.374 3.042 23.221 0 1.121-.32 2.242-.48 3.363 4.164-1.281 7.687-4.484 9.929-8.168 2.722-4.484 3.683-9.768 3.843-15.053.801-15.854-5.284-31.869-16.174-43.399-2.562-2.722-5.445-5.124-7.847-8.007-3.523-4.004-6.086-8.808-9.769-12.651a36.11 36.11 0 0 0-9.929-7.047c-13.292-6.085-28.665-1.921-43.399-1.281-4.163.16-8.487.16-12.651 1.281-2.882.801-5.605 2.403-8.648 3.363-3.523 1.121-7.206 1.602-10.409 3.203-2.082.961-4.004 2.402-5.925 3.684-3.043 2.242-6.246 4.484-8.007 7.686-.481 1.282-.961 2.563-.961 3.844Z" fill="#434343"/><path d="M660.501 294.96c4.484 1.921 8.487 4.644 11.53 8.487 3.043 3.844 4.484 9.128 3.203 13.773 1.601.32 3.203.8 4.804.96 3.844.641 7.847.481 11.851.161 1.281-.161 2.722-.161 4.003-.641 3.844-1.281 5.765-5.285 8.488-7.847 1.601-1.602 3.683-2.242 5.925-2.722 1.602-.481 4.324-.801 5.605-1.922l.481-.481c-1.282-.961-2.563-2.082-3.684-3.363-.48-.48-.961-1.121-1.441-1.601a35.282 35.282 0 0 1-4.804-7.207 9.697 9.697 0 0 0-3.043.961c-.801.481-1.601 1.121-2.402 1.602-2.242 1.121-5.125.48-7.367-.961-2.082-1.441-3.683-3.523-5.445-5.445-3.202-3.523-7.046-6.566-11.049-9.288.64 1.441 1.281 3.042 1.281 4.484.16 2.722-.641 5.445-2.563 7.206-1.921 1.762-5.124 2.242-7.366.801-.16 1.121-1.441 1.761-2.562 2.082-2.082.48-3.684.8-5.445.961Z" fill="#E4A387"/><path d="M633.595 405.298c2.562 4.484 6.886 8.007 11.53 10.41 4.484 2.242 9.449 4.003 12.492 8.007.48.64.8 1.121 1.121 1.761a36.575 36.575 0 0 1 1.601 3.684c1.762 4.484 3.683 8.968 5.445 13.292 2.082 5.284 4.324 10.569 4.484 16.334 0 1.602 0 3.523.961 4.804.961 1.282 2.402 1.762 4.003 2.242 8.488 2.403 17.616 2.883 26.264 1.442 8.327-1.442 15.694-4.965 22.74-9.449 5.285-3.363 10.57-6.726 15.374-10.729 3.683-3.043 7.687-6.406 8.648-11.21.16-.481.16-.961.16-1.442.16-3.042 0-6.566-.16-9.608-.321-4.004-.801-8.007-.801-12.171 0-4.804.961-8.808 2.082-13.292 2.402-9.609 3.203-20.658 2.242-30.427-1.121-12.171-5.445-24.182-3.844-36.193.641-5.605 2.723-11.049 4.004-16.494 1.281-5.445 2.082-11.371.32-16.815-2.082-6.246-7.366-11.05-13.452-13.452-4.324-1.762-9.128-2.403-13.932-2.242-.481.8-.801 1.601-1.442 2.402-3.202 4.324-9.128 5.765-14.412 6.085-.961.16-2.082.16-3.043.32 1.281 2.563 2.882 5.125 4.804 7.207a27.87 27.87 0 0 1 6.246 1.761c1.281.641 2.722 1.282 3.523 2.563.961 1.121 1.281 2.882.64 4.164-.96 2.081-3.683 2.402-5.925 2.882-2.722.641-5.285 2.082-7.206 4.164-1.442 1.601-2.723 3.523-4.324 4.964-3.043 2.723-7.687 2.883-11.531 2.883-4.964 0-9.768-1.441-14.733-2.082-2.722-.48-5.445-.641-8.167.16-1.601.481-3.043 1.281-4.484 2.242-.16.801-.48 1.602-.801 2.242-.8 1.121-2.082 1.602-3.042 2.562-.321.321-.481.481-.641.801-.641.961-.961 2.082-1.601 3.043-.801 1.281-2.082 2.402-3.043 3.843-.961 1.442-1.762 3.043-2.562 4.644 5.925-2.402 12.01-4.163 18.256-4.003 7.687.16 15.854 3.523 19.858 10.089 2.242 3.843 3.042 8.327 3.683 12.811.32 2.082.48 4.164.16 6.086-.32 2.082-1.281 4.163-2.402 5.925-3.203 5.765-7.847 11.05-14.093 13.452-2.722 1.121-5.605 1.602-8.487 2.242-5.445 1.281-9.929 4.324-14.573 7.046-5.765 3.363-11.851 6.086-17.936 8.808a397.295 397.295 0 0 1-4.004 2.242Z" fill="#E97084"/><path d="M581.872 415.708c2.082 4.964 4.644 10.249 9.448 12.651 2.082 1.121 4.324 1.441 6.726 1.761 4.484-3.042 8.808-6.085 13.292-9.128 2.242-1.601 4.644-3.203 6.886-4.964 4.965-3.683 10.089-7.527 15.534-10.73 1.441-.8 2.883-1.601 4.324-2.242 6.085-2.722 12.331-5.445 17.936-8.808 4.644-2.882 9.128-5.765 14.573-7.046 2.883-.64 5.765-1.121 8.488-2.242 6.085-2.402 10.729-7.687 14.092-13.452 1.121-1.922 2.082-3.843 2.402-5.925.321-2.082.161-4.164-.16-6.086-.64-4.484-1.281-8.968-3.683-12.811-4.004-6.566-12.011-10.089-19.858-10.089-6.245-.16-12.491 1.601-18.256 4.003-.801 1.602-1.762 3.203-2.883 4.484-1.441 1.762-3.203 3.363-4.964 4.645-3.203 2.562-6.726 4.484-9.769 7.046-2.882 2.402-5.925 4.484-9.288 6.085-6.726 3.363-14.093 5.765-20.819 9.129-9.608 4.804-18.897 10.409-28.185 15.694 0 .32-.16.48-.16.8-2.402 9.128.801 18.577 4.324 27.225Z" fill="#FDE797"/><path d="M571.459 395.69c0 6.405.641 12.971 2.723 19.057 1.281 3.843 3.042 7.366 5.444 10.569.481.641.961 1.441 1.602 2.082 1.121 1.281 2.242 2.402 3.363 3.523 1.762 1.602 4.004 3.043 6.406 2.883 1.601-.16 3.203-1.121 4.644-2.082.801-.48 1.601-1.121 2.402-1.601-2.242-.161-4.644-.641-6.726-1.762-4.804-2.402-7.367-7.687-9.448-12.651-3.524-8.648-6.727-18.257-4.645-27.385 0-.32.161-.48.161-.801-.321.161-.801.481-1.121.641-1.602.961-3.524 2.082-4.324 3.843-.161.161-.161.481-.161.641-.32.961-.32 2.082-.32 3.043Z" fill="#E97084"/><path d="M611.495 253.002c.961 1.281 2.403 2.242 3.844 3.043 1.121.64 2.402 1.281 3.203 2.402.961 1.441.32 3.683.32 5.285 0 2.082 0 4.163.32 6.085.481 3.203 1.602 6.246 3.684 8.648.32.32.64.801.961 1.281.8 1.281.48 3.043 1.121 4.484.64 1.441 1.281 3.203 2.562 4.324 1.601 1.441 3.843 2.082 5.925 2.722 1.602.481 3.203.801 4.804 1.121 3.043.641 6.086.961 9.129 1.602 4.323.961 8.807 1.441 13.131.961 1.762-.161 3.363-.481 4.965-.801 1.121-.32 2.402-.801 2.562-2.082 2.242 1.441 5.445.961 7.367-.801 1.921-1.761 2.882-4.644 2.562-7.206-.16-1.602-.641-3.043-1.281-4.484l-3.844-2.402c-3.042-1.922-7.526-3.523-10.089-1.121-.8.8-1.281 1.921-2.242 2.402-1.441.961-3.523.32-4.804-.801-1.441-1.121-2.562-2.562-4.004-3.363-3.523-1.922-7.847-.48-11.69-1.281-2.883-.641-5.285-2.722-7.367-4.644-7.847-7.367-14.573-16.014-18.736-25.783-.641.961-1.281 1.922-2.082 2.882-.641.961-1.441 2.082-1.602 3.203-.32 1.281.321 3.043 1.281 4.324Z" fill="#EBAA8F"/><path d="M508.522 288.234c.16-3.043.16-5.926.32-8.968 0-1.121.161-2.242.481-3.363 1.121-2.563 4.164-3.524 6.886-4.164 4.324-1.121 8.808-2.242 13.452-1.922 2.722.16 5.285.801 7.847 1.441 4.004.961 8.007 1.922 12.011 3.363 5.605 2.082 11.05 4.965 16.655 6.887 12.651 4.484 26.423 4.323 39.395 6.405 10.89 1.762 21.779 3.524 32.669 4.324 3.043.641 6.086.961 9.128 1.602 4.324.961 8.808 1.441 13.132.961 4.484 1.921 8.488 4.644 11.53 8.487 3.043 3.844 4.484 9.128 3.203 13.772-.961-.16-1.761-.32-2.722-.32-2.562 0-5.285.961-6.406 3.363-.48.961-.64 2.082-.801 3.043-.16.801-.48 1.601-.8 2.242-.801 1.121-2.082 1.601-3.043 2.562-.32.32-.48.481-.641.801-11.85-4.644-24.021-8.968-36.192-12.491-14.573-4.164-29.306-8.168-43.879-12.331-5.285-1.442-10.57-3.043-16.175-2.723-3.203.16-6.245.961-9.448 1.121-8.968.641-17.776-3.042-26.744-2.882-3.683 0-7.687.48-10.409-1.762-.961-.801-2.242-2.082-3.363-1.601-.321.16-.481.32-.801.48-.481 0-.801-.32-1.121-.48-1.602-1.442-3.363-3.043-3.844-5.125-.48-.801-.32-1.762-.32-2.722Zm14.253 1.761c2.082-.64 4.324-.32 6.566-.16s4.644.16 6.566-.64c-2.402-1.602-5.285-2.563-8.168-2.883-.64 0-1.281-.16-1.921.16-.801.32-1.282 1.121-1.922 1.601-.481.321-.961.481-1.441.641-.801.16-1.602-.16-1.762-.961v-.64c-.16-.801-1.121-1.282-1.762-.801-.64.32-.8 1.281-.8 1.922-.16 1.121-.16 2.402-.321 3.523 1.762-.16 3.203-1.281 4.965-1.762Z" fill="#F6B599"/><path d="M712.386 301.365c1.121 1.282 2.402 2.242 3.684 3.363 1.281-1.761-1.762-2.882-3.684-3.363Z" fill="#9C2D33"/><path d="M665.144 323.305c1.281-.961 2.883-1.762 4.484-2.242 2.562-.801 5.445-.48 8.167-.16 4.805.801 9.769 2.082 14.733 2.082 3.844 0 8.488-.16 11.531-2.883 1.601-1.441 2.722-3.363 4.324-4.964 1.921-2.082 4.484-3.523 7.206-4.164 2.242-.48 4.965-.801 5.925-2.883.641-1.281.321-2.882-.64-4.163-.961-1.121-2.242-1.922-3.523-2.563-1.922-.96-4.164-1.441-6.246-1.761.481.48.961 1.121 1.441 1.601 1.762.481 4.965 1.602 3.684 3.363-.16.16-.16.321-.481.481-1.281 1.281-4.003 1.601-5.605 1.921-2.082.481-4.163 1.121-5.925 2.723-2.723 2.562-4.804 6.566-8.488 7.847-1.281.48-2.722.64-4.003.64-4.004.321-8.007.641-11.851-.16-1.601-.32-3.203-.8-4.804-.961-.961-.16-1.762-.32-2.723-.32-2.562 0-5.284.961-6.405 3.363-.481 1.121-.481 2.242-.801 3.203Z" fill="#FDE797"/><path d="M476.655 338.358c.32 0 .801-.16 1.121 0 .48.161.64.961.801 1.442l.48 4.804c.16 1.121.32 2.242.801 3.043.48.961 1.601 1.601 2.562 1.601.961-.16 1.762-.961 2.082-1.922.32-.96.16-1.921.16-3.042 0-.321 0-.801.16-.961.32-.481.961-.16 1.441 0 4.805 2.722 7.687 8.487 12.652 10.729 1.922.801 4.003 1.282 5.925 2.082 2.402.961 4.324 2.723 6.086 4.484 2.722 2.723 3.843 6.246 5.444 9.449 2.403 4.964 5.285 9.769 8.168 14.573 7.687 12.811 16.494 24.982 26.103 36.352 2.402 2.883 4.964 5.765 8.327 7.367 3.524 1.601 7.687 1.601 11.531.641 3.203-.801 6.085-2.242 9.128-3.684-2.402-3.203-4.164-6.886-5.445-10.569-2.082-6.086-2.882-12.652-2.722-19.057 0-.961 0-2.082.32-3.043-.641.16-1.441 0-2.082-.16-1.281-.481-2.242-1.281-3.203-2.242-10.249-9.609-19.217-20.338-28.345-31.068-1.121-1.441-2.242-2.722-3.523-4.164-1.442-1.761-2.883-3.523-4.164-5.445-.16-.32-.48-.64-.48-1.121 0-.48.16-.8.32-1.281 2.082-5.284-.481-9.929-3.523-14.092-.961-1.281-2.082-2.723-3.363-3.844-1.602-1.281-3.523-2.082-5.285-3.042-6.085-3.043-11.37-7.847-17.456-11.05-1.121-.641-2.402-1.121-3.683-1.602-2.883-.8-6.406-.48-8.648 1.442l-1.921 1.921c-1.922 1.762-4.645 2.402-6.566 4.164-1.762 1.601-2.563 4.324-2.082 6.726.16.48.16.801.16 1.281 0 .481-.32.961-.641 1.441-.96 1.442-1.761 3.203-2.081 4.965 0 1.281.16 2.722 1.441 2.882Z" fill="#F6B599"/><path d="m801 543.532-155.129-.29c.155-2.635.64-6.097 1.236-8.732l28.329-121.109c5.119-21.93 20.762-43.861 39.097-54.871L801 306.719v236.813Z" fill="#6683C2"/><path d="M800.997 541.716H691.209l17.673-113.56c7.722-33.03 54.276-53.933 81.9-70.481l10.215-5.65v189.691Z" fill="#5B78B7"/><path d="M733.754 459.533s37.883 10.228 67.007 24.834v-19.363c-15.246-7.28-37.398-12.282-67.007-5.471ZM801 404.617c-11.053-17.039-21.489-29.523-21.489-28.831.242 18.491 6.619 38.747 14.495 56.836-16.636-15.99-43.355-33.766-77.619-29.992 0 0 49.952 20.456 84.591 50.962v-48.975H801Z" fill="#7FCBB4"/><path d="M800.759 503.26v-22.444c-21.269-5.874-49.18-5.762-78.171 16.124 0-.023 41.832-.067 78.171 6.32Z" fill="#7FCBB4"/></g><defs><clipPath id="a"><path fill="#fff" d="M0 0h800v518H0z"/></clipPath><clipPath id="b"><path fill="#fff" transform="translate(475.627 420.669)" d="M0 0h308.709v122.575H0z"/></clipPath></defs></svg>