<svg width="435" height="352" fill="none" xmlns="http://www.w3.org/2000/svg"><mask id="a" style="mask-type:alpha" maskUnits="userSpaceOnUse" x="0" y="0" width="435" height="352"><path fill="#D9D9D9" d="M0 0h435v352H0z"/></mask><g mask="url(#a)"><path d="m463.202 216.625 1.139 135.626H222.078l241.124-135.626Z" fill="#666F82"/><g clip-path="url(#b)"><path d="M292.504 415.167c.942.105 1.674.523 2.615.732 1.465.209 2.929.209 4.393 0 .732-.104 1.465-.314 2.197-.523.627-.209 1.15-.418 1.673-.837.523-.418.942-.836 1.256-1.359.836-1.151 1.359-2.302 1.882-3.557.21-.523.314-1.15.523-1.673.733-2.929.628-6.172.419-9.205-.314-3.766-.628-7.636-1.046-11.401-1.151-10.46-2.511-20.92-2.72-31.38-.209-12.761 1.569-25.522 3.452-38.178.628-4.184 1.255-8.159 1.464-12.343 8.682 4.602 16.109 11.506 21.339 19.769 2.301 7.845 3.765 15.899 4.288 24.058.314 4.079.314 8.159-.732 12.133-.628 2.301-1.569 4.603-2.51 6.799-2.72 6.59-5.021 13.284-6.799 20.188-.837 3.347-1.465 6.694-1.988 10.146-.732 5.125-.941 10.355-.523 15.585v.209c0 .523.105 1.046.105 1.569.418 4.393 1.255 9.205 3.033 13.18.105.104.105.313.209.418.419 1.046.733 2.406-.313 3.138-1.36.941-3.348 1.36-4.917 1.778-3.347 1.046-6.903 1.883-10.459 2.197-5.021.418-9.937-.732-14.644-2.511-.942-.418-1.988-.836-2.929-1.255-3.138-1.569-6.276-3.975-6.904-7.74-.836-3.975 2.929-10.146 7.636-9.937Z" fill="#EFC0AC"/><path d="M326.919 400.419c.419 1.464 1.255 2.824 2.301 3.974 3.871 4.603 9.414 7.636 15.272 8.996 5.753 1.255 12.342.523 17.886-1.778 3.034-1.256 2.615-2.929 1.778-5.021-.313-.837-.836-1.778-1.046-2.824-1.15-3.661-1.882-7.322-2.405-11.088-.942-6.485-.942-13.075-.105-19.56-5.648-4.707-10.46-10.25-15.271-15.899-1.988-2.301-3.661-4.707-5.021-7.322 1.36 10.147 2.719 20.188 3.975 30.334.313 2.301.627 4.707.523 7.113-.105 1.987-.523 4.079-2.092 5.23-.105.104-.314.209-.419.314-1.046.627-2.092.523-3.347.418-1.883-.209-3.87.104-5.753.314-1.987.209-4.184.732-5.439 2.405-1.046 1.256-1.255 2.929-.837 4.394Z" fill="#FFA361"/><path d="M308.403 305.443c.105-1.883 1.704-2.514 1.6-4.397-.21-5.544 5.07-3.472 10.823-5.041 3.033-.837 1.489-8.553 4.627-8.135.418.105.941.105 1.36.21 9.309 1.255 18.723 2.51 27.718 5.02-.837.105-1.673.314-2.406.523-2.301.628-4.497 1.674-6.485 3.034-5.648 3.661-10.146 9.1-12.551 15.48-1.36 3.452-.419 7.95-.21 11.611 0 .627.105 1.36.21 1.987a19.974 19.974 0 0 1-3.452-.627c0 .104 0 .104.104.209a56.439 56.439 0 0 0-21.338-19.874Z" fill="#EBB7A1"/><path d="M332.984 323.643c0 .628.104 1.36.209 1.988.314 3.556.837 7.112 1.778 10.564 1.255 4.916 2.929 9.518 5.335 13.807 1.359 2.615 3.033 5.021 5.02 7.322 4.812 5.544 9.623 11.192 15.272 15.899.627.523 1.255 1.046 1.882 1.464 5.335 4.08 11.611 7.845 17.782 10.46 12.866 5.439 27.719 2.301 40.48-1.464 3.033-.942 5.962-1.255 8.891-2.72 6.067-3.138 10.564-8.368 14.644-13.807 10.669-14.33 14.748-30.333 13.597-48.011-.209-3.033-.418-6.171-1.359-8.995-1.256-3.87-3.871-7.113-6.485-10.146-4.603-5.648-9.519-11.088-14.33-16.527-.314-.418-.733-.837-1.046-1.15-.628 3.138-3.243 5.334-5.649 7.322-3.138 2.615-6.59 4.811-10.041 7.008-4.603 2.928-9.519 5.334-14.853 6.171-5.649.941-11.611.628-17.154-.941-.942-.314-1.988-.628-2.615-1.465-.628-.941-.523-2.092-.628-3.138-.105-3.661-1.569-7.217-2.929-10.669-1.15-2.929-.289 1.56-.615 1.887 0 .98-.508 2.612-.653 3.266-.146.653-.98 1.633-1.96 3.919-1.306 1.597-1.633 2.286-5.225 4.245-1.434.782-4.899 2.286-7.838 2.939s-8.165 1.771-15.023.98c-8.491-.98-10.2 4.258-12.083 4.572-.837.105-3.568-6.746-4.404-6.536-2.302.627-6.998 3.543-8.986 4.903-5.648 3.661 4.365.804 1.96 7.185-1.36 3.347 6.712 6.007 7.026 9.668Z" fill="#3F9FBC"/></g><path d="m423.84 92.712-95.285-41.674v-88.76h95.285V92.713Z" fill="#A1E4D0"/><path d="M420.872 36.685s-20.723-32.66-22.107-51.053c-1.383-18.393-2.623-23.353-2.623-23.353h-16.716s15.837 35.752 18.979 44.475c3.156 8.708 12.638 28.633 12.638 28.633l11.745 9.496-1.916-8.198Z" fill="#7FCBB4"/><path d="M420.442 77.177s-2.45-12.297-4.424-15.535c-1.96-3.223-1.081-19.006 1.369-23.98s-10.362-12.574-10.362-12.574 3.704 26.358 3.344 32.951l-.62 2.976s-7.609-6.826-17.322-12.296c-9.698-5.47-12.278-12.793-12.278-12.793s-.735 6.827-.735 7.206c0 .38 4.54 5.47 14.253 12.049 9.713 6.578 15.477 12.048 15.852 17.883.374 5.834 10.318 7.95 10.937 7.95.62 0-.014-3.837-.014-3.837ZM361.457 41.455s.115-11.932.173-16.352c.057-4.42 5.231-26.985 5.231-26.985l-4.77-4.23s-7.667 35.956-1.989 49.696l1.355-2.13Z" fill="#7FCBB4"/><path d="M362.914 43.22s-15.866-21.516-17.869-23.718c-2.018-2.203-15.132-32.732-15.132-32.732l-3.819 7.132 15.305 22.668-16.645-6.622v4.07c.548-3.108 28.649 13.17 33.822 34.584l4.742-2.26-.404-3.122ZM362.093-14.557S350.549-30.895 351.4-37.721h-3.935s3.69 17.577 14.613 25.774c0 0-4.179-5.09-16.702-7.701-12.523-2.611-18.677-4.478-18.677-4.478l3.199 9.262s19.902-4.405 32.18 8.752c12.278 13.172 6.485-4.872 6.485-4.872l-6.47-3.573ZM412.98 23.061s-3.502-30.632 6.874-43.264V-37.72c-3.603-.628-10.074 0-10.074 0s-.389 42.768-5.735 42.228c-5.332-.554 8.935 18.554 8.935 18.554Z" fill="#7FCBB4"/><path d="m429.359-37.721.879 146.799 7.97-4.93.101-141.87h-8.95Z" fill="#CECECE"/><path d="m372.727-37.721.619 103.696 12.466 5.922-1.787-109.618h-11.298Z" fill="#D6F3EA"/><path d="m331.266 30.748-.389-65.873-.029-2.596h-8.2l.447 74.683 96.755 55.896-.072-11.932-88.512-50.178Z" fill="#D6F3EA"/><path d="m312.476 41.105 117.766 67.973-.879-146.8h-10.29l.779 130.58-44.501-25.672-.62-104.907h-8.085l.606 100.224-44.184-25.512-.447-74.712H312l.476 78.826Z" fill="#EEE"/><path d="m462.8 201.017-2.882 36.117-188.02 115.117h-49.617L462.8 201.017Z" fill="silver"/><path d="m54.806 274.428 29.759-17.388v-1.765l-41.806-22.652L13 248.245v1.765l41.806 24.418Z" fill="#5B78B7"/><path d="m54.806 272.663 29.759-17.388-41.806-24.403L13 248.245l41.806 24.418Z" fill="#6683C2"/><path d="m54.806 269.847 28.058-16.38v-4.041l-39.4-18.962-28.058 12.34v4.04l39.4 23.003Z" fill="#EDE1E1"/><path d="m54.806 265.807 28.058-16.381-39.4-23.003-28.058 16.381 39.4 23.003Z" fill="snow"/><path d="m42.876 232.083 1.383-.817c.577-.335.505-.933-.158-1.327-.678-.394-1.7-.438-2.277-.102l-1.384.816c-.576.336-.504.934.159 1.328.677.394 1.7.437 2.277.102ZM37.079 235.452l1.383-.816c.577-.336.505-.934-.158-1.328-.678-.394-1.7-.437-2.277-.102l-1.384.817c-.576.335-.504.934.159 1.327.663.409 1.7.453 2.277.102ZM31.29 238.836l1.383-.817c.577-.335.505-.933-.158-1.327-.678-.394-1.7-.438-2.277-.102l-1.384.817c-.576.335-.504.933.159 1.327.663.394 1.686.438 2.277.102ZM25.497 242.206l1.383-.817c.577-.335.505-.933-.158-1.327-.678-.394-1.7-.438-2.277-.102l-1.384.816c-.576.336-.504.934.159 1.328s1.686.437 2.277.102Z" fill="#EDE1E1"/><path d="M34.17 231.864c-.087-.204-.26-.686-.317-.89-.418-1.269-.317-2.48.288-3.326.504-.714 1.355-1.108 2.363-1.108 2.35 0 4.943 2.056 5.765 4.594.043.146.201.219.346.176a.27.27 0 0 0 .172-.336c-.893-2.742-3.718-4.974-6.283-4.974-1.181 0-2.176.467-2.795 1.327-.692.978-.836 2.363-.36 3.807.071.234.288.759.388.978l.433-.248Z" fill="#433878"/><path d="M28.377 235.233c-.087-.204-.26-.685-.317-.889-.418-1.269-.317-2.48.288-3.326.504-.715 1.355-1.109 2.363-1.109 2.35 0 4.943 2.057 5.765 4.595.043.146.201.219.346.175a.268.268 0 0 0 .172-.335c-.893-2.743-3.718-4.974-6.283-4.974-1.181 0-2.176.466-2.795 1.327-.692.977-.836 2.363-.36 3.807.071.233.287.759.388.977l.433-.248Z" fill="#433878"/><path d="M22.584 238.617a10.95 10.95 0 0 1-.317-.889c-.418-1.269-.317-2.48.288-3.326.504-.715 1.355-1.109 2.363-1.109 2.35 0 4.943 2.057 5.765 4.595.043.146.201.219.346.175a.268.268 0 0 0 .172-.335c-.893-2.743-3.718-4.974-6.283-4.974-1.181 0-2.176.466-2.795 1.327-.692.977-.836 2.363-.36 3.807.071.234.287.759.388.977l.433-.248Z" fill="#433878"/><path d="M16.79 241.987c-.086-.204-.259-.685-.316-.89-.418-1.269-.317-2.479.288-3.325.504-.715 1.355-1.109 2.363-1.109 2.35 0 4.943 2.057 5.765 4.595.043.146.201.219.346.175a.269.269 0 0 0 .172-.336c-.893-2.742-3.718-4.974-6.283-4.974-1.181 0-2.176.467-2.795 1.328-.692.977-.836 2.363-.36 3.807.071.233.288.758.388.977l.433-.248Z" fill="#433878"/><path d="m50.354 230.96-26.776 15.695M56.205 234.606 29.43 250.287M61.912 238.268l-26.775 15.695M67.877 241.724 41.102 257.42M73.858 245.342l-26.776 15.68" stroke="#D4C9C9" stroke-width="1.517" stroke-miterlimit="10" stroke-linecap="round" stroke-linejoin="round"/><path d="M294.928 85.914s13.614-4.544 11.61-23.505c0 .01-16.964 9.356-11.61 23.505Z" fill="#5CAA93"/><path opacity=".34" d="M298.159 131.939c7.281 0 13.183-1.905 13.183-4.255 0-2.351-5.902-4.256-13.183-4.256-7.28 0-13.182 1.905-13.182 4.256 0 2.35 5.902 4.255 13.182 4.255Z" fill="#C97D7F"/><path d="m310.992 110.254-32.976-.975 5.324 16.516c.196 1.531 1.296 3.022 3.3 4.195 4.431 2.586 11.602 2.605 16.002.03 1.847-1.074 2.918-2.446 3.203-3.848l5.147-15.918Z" fill="snow"/><path d="M310.989 110.254c-4.577 9.237-9.145 18.484-16.493 21.685 2.947.03 5.904-.606 8.144-1.919 1.846-1.073 2.917-2.446 3.202-3.848l5.147-15.918Z" fill="#EDE1E1"/><path d="M311.338 108.32c.029-5.393-7.433-9.805-16.667-9.856-9.234-.05-16.742 4.28-16.771 9.672-.029 5.393 7.433 9.805 16.667 9.856 9.233.051 16.742-4.28 16.771-9.672Z" fill="#fff"/><path d="M308.854 107.994c.024-4.63-6.381-8.418-14.307-8.461-7.926-.043-14.372 3.674-14.397 8.303-.024 4.629 6.381 8.417 14.307 8.461 7.926.043 14.372-3.674 14.397-8.303Z" fill="#6D6058"/><path d="M294.766 69.896v40.428" stroke="#7FCBB4" stroke-width="8" stroke-miterlimit="10" stroke-linecap="round" stroke-linejoin="round"/><path d="M294.613 99.138S295.232 84.651 277 79.83c0 0 2.642 19.349 17.613 19.31Z" fill="#7FCBB4"/><path d="M295.115 93.849s14.195-2.029 15.55-21.05c0 .01-18.33 6.175-15.55 21.05ZM294.91 82.772S301.265 69.06 285.597 57c0 .01-5.147 19.737 9.313 25.772Z" fill="#7FCBB4"/><path d="m294.945 81.947-9.007-24.112" stroke="#5CAA93" stroke-width="2.428" stroke-miterlimit="10" stroke-linecap="round" stroke-linejoin="round"/><path opacity=".34" d="m127.137 321.268 20.882-12.194c1.311-.773 1.153-2.13-.375-3.019l-39.529-23.091c-1.528-.89-3.848-.992-5.159-.219L82.074 294.94c-1.311.773-1.153 2.129.375 3.019l39.529 23.091c1.513.904 3.833.992 5.159.218Z" fill="#939393"/><path d="M77 296.851v-.044l.087-1.896 1.47.248 20.218-11.801c1.311-.773 3.646-.671 5.159.219l38.665 22.58 2.219.379-.087 1.823c0 .496-.288.963-.879 1.313l-20.881 12.195c-1.311.773-3.646.671-5.159-.219l-39.53-23.091c-.864-.466-1.282-1.108-1.282-1.706Z" fill="snow"/><path d="m123.043 320.043 20.882-12.194c1.311-.773 1.153-2.13-.375-3.02l-39.529-23.09c-1.528-.89-3.848-.992-5.16-.219l-20.88 12.194c-1.312.773-1.153 2.13.374 3.02l39.529 23.09c1.513.89 3.848.992 5.159.219Z" fill="#5B78B7"/><path d="m117.707 319.737 26.012-14.776-39.991-23.353-25.665 14.951 39.644 23.178Z" fill="#E4EDFF"/><path d="m130.839 299.432-27.741-16.191-17.797 10.371 45.538 5.82Z" fill="#fff"/><path d="m96.901 300.278 15.65-9.131c.721-.423.634-1.167-.201-1.663l-5.145-3.004c-.836-.496-2.104-.54-2.839-.117l-15.636 9.131c-.72.423-.634 1.167.202 1.663l5.144 3.005c.836.481 2.104.539 2.825.116Z" fill="#EDE1E1"/><path d="M94.967 298.489c1.95-.011 3.526-.947 3.52-2.091-.007-1.144-1.592-2.062-3.542-2.052-1.95.011-3.526.947-3.52 2.091.006 1.144 1.592 2.063 3.542 2.052Z" fill="#fff"/><path d="m107.322 288.172-9.44 5.528M109.063 289.674l-4.915 2.888" stroke="#fff" stroke-width="1.922" stroke-miterlimit="10" stroke-linecap="round" stroke-linejoin="round"/><path d="m109.052 307.63 15.65-9.131c.721-.423.634-1.167-.201-1.663l-5.145-3.005c-.836-.496-2.104-.539-2.839-.116l-15.65 9.131c-.721.423-.634 1.167.201 1.663l5.145 3.004c.836.482 2.104.54 2.839.117Z" fill="#FFAC80"/><path d="M107.119 305.841c1.95-.011 3.526-.947 3.52-2.091-.006-1.144-1.592-2.063-3.542-2.052-1.95.011-3.526.947-3.52 2.091.007 1.144 1.592 2.062 3.542 2.052Z" fill="#fff"/><path d="m119.455 295.523-9.439 5.543M121.201 297.026l-4.9 2.888" stroke="#fff" stroke-width="1.922" stroke-miterlimit="10" stroke-linecap="round" stroke-linejoin="round"/><path d="m121.181 314.982 15.65-9.131c.721-.424.634-1.167-.201-1.663l-5.145-3.005c-.836-.496-2.104-.54-2.839-.117l-15.65 9.131c-.721.423-.635 1.167.201 1.663l5.145 3.005c.85.481 2.118.54 2.839.117Z" fill="#EDE1E1"/><path d="M119.248 313.192c1.95-.01 3.526-.946 3.52-2.09-.006-1.144-1.592-2.063-3.542-2.052-1.95.011-3.526.947-3.52 2.091.007 1.143 1.592 2.062 3.542 2.051Z" fill="#fff"/><path d="m131.603 302.875-9.439 5.543M133.344 304.392l-4.914 2.874" stroke="#fff" stroke-width="1.922" stroke-miterlimit="10" stroke-linecap="round" stroke-linejoin="round"/><path opacity=".34" d="m158.755 215.943 111.93-65.362c1.297-.759 3.574-.657 5.073.218l65.541 38.203c1.499.875 1.657 2.202.36 2.961L238.52 255.735a16.02 16.02 0 0 1-11.904 2.028c-.706-.102-1.383-.321-1.959-.657l-65.541-38.202c-1.485-.86-1.658-2.202-.361-2.961Z" fill="#989898"/><path d="m147.787 208.139 2.767 1.765 1.153-3.967h-4.223l.303 2.202ZM245.163 65.264l-2.767-1.78-4.755 4.522 5.923.934 1.599-3.676Z" fill="#463757"/><path d="M151.535 208.169 261.592 143.9c2.435-1.414 3.631-5.338 2.68-8.693l-19.44-68.221c-.951-3.355-3.733-4.945-6.168-3.53l-110.345 64.837c-2.435 1.415-3.156 4.011-2.19 7.381l19.253 68.965c.951 3.369 3.718 4.959 6.153 3.53Z" fill="#5B78B7"/><path d="m154.372 209.992 110.057-64.268c2.435-1.415 3.631-5.339 2.68-8.694l-19.44-68.221c-.951-3.355-3.733-4.945-6.168-3.53l-111.109 64.997c-2.435 1.415-2.925 3.312-1.959 6.681l19.771 69.505c.966 3.37 3.733 4.96 6.168 3.53Z" fill="#E4EDFF"/><path d="m261.046 115.719-13.359-46.91c-.951-3.355-3.732-4.945-6.168-3.53l-70.902 41.484 90.429 8.956Z" fill="#fff" fill-opacity=".62"/><path d="M152.5 213.508v-3.632l16.155 9.51.922-2.144 107.563-62.81c1.297-.759 3.877-.656 5.361.219l46.605 27.043v-.758l7.076 3.471.994-.408-.129 3.297c-.116.714-.389 1.021-.822 1.269l-111.944 65.537c-1.297.759-3.574.744-5.073-.131l-64.979-37.561c-1.743-.904-1.729-2.902-1.729-2.902Z" fill="#4B6499"/><path d="M152.5 213.507v-3.632l16.155 9.511.922-2.144 52.759-30.807 1.945 67.682c-.649.379-1.542.568-2.464.554-.923-.015-1.859-.234-2.609-.671l-64.979-37.59c-1.743-.904-1.729-2.903-1.729-2.903Z" fill="#5B78B7"/><path d="m153.365 209.686 111.93-65.363c1.296-.758 3.573-.656 5.072.219l65.541 38.202c1.499.875 1.657 2.203.36 2.961l-111.929 65.363c-1.297.758-3.574.656-5.073-.219l-65.541-38.202c-1.484-.875-1.657-2.217-.36-2.961Z" fill="#A4BAEA"/><path d="M270.47 162.731c.159.102.49.059.735-.087l6.802-3.968c.245-.146.317-.335.144-.437l-4.496-2.626c-.159-.102-.49-.058-.735.088l-6.802 3.967c-.245.146-.317.336-.144.438l4.496 2.625ZM262.587 174.561c.159.102.49.059.735-.087l6.802-3.968c.245-.146.317-.335.144-.437l-4.496-2.626c-.159-.087-.49-.058-.735.088l-6.802 3.967c-.245.146-.317.336-.159.438l4.511 2.625ZM266.578 179.491c.159.102.49.059.735-.087l6.802-3.968c.245-.146.317-.335.144-.437l-4.511-2.626c-.158-.087-.49-.058-.735.088l-6.801 3.967c-.245.146-.318.336-.159.423l4.525 2.64ZM277.358 180.44c.159.087.49.058.735-.088l6.802-3.968c.245-.145.303-.335.144-.423l-4.496-2.625c-.158-.088-.49-.058-.735.087l-6.802 3.968c-.245.146-.302.335-.144.438l4.496 2.611ZM296.061 177.668c.159.102.49.059.735-.087l6.802-3.968c.245-.146.317-.335.144-.437l-5.289-3.093c-.158-.087-.49-.058-.735.088l-6.802 3.967c-.245.146-.302.336-.144.438l5.289 3.092ZM284.333 184.509c.159.102.548.015.879-.175l8.906-5.193c.317-.189.447-.423.288-.51l-5.289-3.092c-.158-.088-.562-.015-.879.16l-8.906 5.193c-.317.189-.446.423-.288.51l5.289 3.107ZM225.852 218.7c.13.073.447.029.692-.117l6.787-3.967c.245-.146.346-.321.202-.409l-1.96-1.138c-.13-.072-.447-.029-.692.117l-6.787 3.968c-.245.146-.332.321-.202.408l1.96 1.138ZM216.77 224.141c.13.073.447.029.692-.117l6.787-3.967c.245-.146.346-.321.202-.409l-1.96-1.138c-.13-.072-.447-.029-.692.117l-6.787 3.968c-.245.146-.332.321-.202.408l1.96 1.138ZM207.145 229.625c.13.073.433.015.678-.116l6.787-3.968c.245-.146.346-.321.216-.394l-1.887-1.094c-.13-.073-.433-.014-.678.117l-6.787 3.967c-.245.146-.332.321-.217.394l1.888 1.094ZM213.055 222.04c.13.073.433.015.678-.116l6.787-3.968c.245-.146.346-.321.217-.394l-1.888-1.094c-.13-.073-.433-.014-.678.117l-6.787 3.968c-.245.145-.332.32-.216.393l1.887 1.094ZM237.598 211.786c.159.102.49.058.735-.088l44.228-25.803c.245-.146.317-.336.144-.438l-5.289-3.092c-.159-.088-.504-.058-.735.087l-44.227 25.804c-.245.146-.317.336-.159.438l5.303 3.092Z" fill="#849FDA"/><path d="M285.556 182.802c.014 0 .043 0 .072-.014l5.188-3.034c.029-.015.043-.029.029-.044l-.332-.189c-.014 0-.043 0-.072.014l-5.188 3.034c-.029.015-.043.029-.029.044l.332.189ZM298.874 174.459h.043l2.205-1.284c.014 0 .014-.014 0-.029l-.332-.19h-.043l-2.205 1.284c-.014 0-.014.015 0 .029l.332.19ZM268.033 185.865c.158.088.49.059.735-.087l6.802-3.968c.245-.145.317-.335.144-.437l-4.497-2.626c-.158-.087-.504-.058-.735.088l-6.801 3.967c-.245.146-.318.336-.145.438l4.497 2.625ZM258.68 191.321c.158.088.49.058.735-.087l6.787-3.968c.245-.146.317-.336.159-.438l-4.496-2.625c-.159-.088-.505-.059-.735.087l-6.788 3.968c-.245.146-.302.335-.144.437l4.482 2.626ZM249.327 196.791c.159.087.49.058.735-.088l6.802-3.967c.245-.146.303-.336.144-.423l-4.496-2.626c-.159-.087-.49-.058-.735.088l-6.802 3.967c-.245.146-.303.336-.144.438l4.496 2.611ZM239.96 202.246c.158.088.49.059.735-.087l6.802-3.968c.245-.145.317-.335.144-.437l-4.496-2.626c-.159-.087-.49-.058-.735.088l-6.802 3.967c-.245.146-.303.336-.144.438l4.496 2.625ZM230.611 207.716c.158.088.489.058.734-.087l6.788-3.968c.245-.146.303-.335.144-.423l-4.496-2.626c-.159-.087-.49-.058-.735.088l-6.788 3.968c-.245.145-.317.335-.158.437l4.511 2.611ZM221.255 213.172c.159.087.49.058.735-.088l6.788-3.967c.245-.146.317-.336.144-.438l-4.496-2.625c-.159-.088-.49-.059-.735.087l-6.788 3.968c-.245.145-.317.335-.144.437l4.496 2.626ZM200.169 225.468c.159.088.49.059.735-.087l18.518-10.809c.245-.146.317-.335.144-.438l-4.496-2.625c-.158-.088-.49-.059-.735.087l-18.518 10.809c-.245.146-.317.335-.144.438l4.496 2.625ZM257.256 184.918c.158.102.49.058.735-.088l6.801-3.967c.245-.146.318-.336.145-.423l-4.511-2.626c-.159-.087-.49-.058-.735.088l-6.802 3.967c-.245.146-.303.336-.144.423l4.511 2.626ZM247.896 190.373c.159.102.49.058.735-.088l6.802-3.967c.245-.146.317-.336.144-.423l-4.51-2.626c-.159-.087-.49-.058-.735.088l-6.802 3.967c-.245.146-.303.336-.144.423l4.51 2.626ZM238.548 195.843c.159.102.49.058.735-.087l6.802-3.968c.245-.146.317-.336.158-.438l-4.51-2.625c-.159-.088-.505-.059-.735.087l-6.802 3.968c-.245.146-.317.335-.159.423l4.511 2.64ZM229.184 201.298c.158.102.49.059.735-.087l6.787-3.968c.245-.146.317-.335.144-.437l-4.51-2.626c-.159-.088-.49-.058-.735.087l-6.788 3.968c-.245.146-.317.336-.144.423l4.511 2.64ZM219.828 206.754c.159.102.49.058.735-.088l6.802-3.967c.245-.146.317-.336.144-.423l-4.51-2.626c-.159-.087-.49-.058-.735.088l-6.802 3.967c-.245.146-.317.336-.144.423l4.51 2.626ZM210.475 212.224c.159.102.49.058.735-.088l6.788-3.968c.245-.145.317-.335.159-.437l-4.511-2.626c-.159-.087-.49-.058-.735.088l-6.788 3.967c-.245.146-.302.336-.144.423l4.496 2.641ZM201.111 217.679c.159.102.49.059.735-.087l6.802-3.968c.245-.146.317-.335.144-.423l-4.511-2.625c-.158-.088-.49-.059-.735.087l-6.802 3.968c-.244.146-.302.335-.144.423l4.511 2.625ZM253.275 180.002c.158.102.49.058.735-.088l6.801-3.967c.245-.146.303-.336.145-.423l-4.497-2.626c-.158-.087-.49-.058-.735.088l-6.802 3.967c-.245.146-.317.336-.158.423l4.511 2.626ZM243.925 185.458c.158.102.49.058.735-.088l6.802-3.968c.245-.145.317-.335.144-.437l-4.496-2.626c-.159-.087-.49-.058-.735.088l-6.802 3.967c-.245.146-.303.336-.144.423l4.496 2.641ZM234.556 190.927c.158.102.49.059.735-.087l6.787-3.968c.245-.146.303-.335.144-.437l-4.496-2.626c-.158-.088-.49-.058-.735.088l-6.787 3.967c-.245.146-.317.336-.159.438l4.511 2.625ZM225.206 196.383c.159.102.49.058.735-.088l6.802-3.967c.245-.146.317-.336.144-.438l-4.496-2.625c-.159-.088-.49-.059-.735.087l-6.802 3.968c-.245.145-.303.335-.144.423l4.496 2.64ZM215.851 201.838c.158.102.489.058.734-.088l6.802-3.967c.245-.146.317-.336.145-.438l-4.497-2.625c-.158-.088-.49-.059-.735.087l-6.802 3.968c-.245.146-.302.335-.144.423l4.497 2.64ZM206.487 207.308c.158.102.49.058.749-.088l6.802-3.967c.245-.146.317-.336.144-.438l-4.496-2.625c-.159-.088-.49-.059-.735.087l-6.802 3.968c-.245.146-.317.335-.159.437l4.497 2.626ZM197.132 212.763c.158.103.49.059.735-.087l6.802-3.968c.245-.146.317-.335.144-.437l-4.496-2.626c-.159-.087-.49-.058-.735.088l-6.802 3.967c-.245.146-.303.336-.144.423l4.496 2.64ZM271.939 169.106c.158.102.49.058.735-.088l11.528-6.724c.245-.146.317-.336.144-.438l-4.496-2.625c-.158-.088-.49-.059-.735.087l-11.528 6.725c-.245.145-.318.335-.159.437l4.511 2.626ZM181.568 214.601c.158.103.49.059.735-.087l11.528-6.725c.245-.145.318-.335.145-.437l-4.497-2.626c-.158-.102-.504-.058-.735.088l-11.528 6.724c-.245.146-.317.336-.144.438l4.496 2.625ZM275.93 174.021c.158.102.49.059.735-.087l13.733-8.023c.245-.146.317-.335.144-.437l-4.51-2.626c-.159-.087-.49-.058-.735.088l-13.734 8.022c-.245.146-.317.336-.158.423l4.525 2.64ZM286.708 174.97c.159.087.49.058.735-.088l9.166-5.339c.245-.145.317-.335.144-.437l-4.496-2.626c-.159-.087-.49-.058-.735.088l-9.166 5.338c-.245.146-.317.336-.144.438l4.496 2.626ZM261.115 168.187c.158.102.49.058.735-.088l6.787-3.967c.245-.146.317-.336.144-.438l-4.496-2.625c-.158-.103-.49-.059-.735.087l-6.787 3.968c-.245.146-.317.335-.145.437l4.497 2.626ZM251.79 173.613c.159.102.49.058.735-.088l6.802-3.967c.245-.146.317-.336.144-.438l-4.496-2.625c-.158-.102-.49-.059-.735.087l-6.802 3.968c-.245.146-.317.335-.144.437l4.496 2.626ZM242.44 179.083c.159.102.49.059.735-.087l6.802-3.968c.245-.146.317-.335.144-.437l-4.496-2.626c-.158-.102-.49-.058-.735.087l-6.802 3.968c-.245.146-.302.336-.144.423l4.496 2.64ZM233.087 184.538c.159.102.49.059.735-.087l6.788-3.968c.245-.146.317-.335.144-.438l-4.496-2.625c-.159-.102-.49-.058-.735.087l-6.788 3.968c-.245.146-.317.335-.144.438l4.496 2.625ZM223.733 189.994c.159.102.49.058.735-.088l6.788-3.967c.245-.146.317-.336.144-.438l-4.496-2.626c-.159-.102-.49-.058-.735.088l-6.788 3.968c-.245.145-.302.335-.144.423l4.496 2.64ZM214.369 195.464c.158.102.49.058.735-.088l6.801-3.967c.245-.146.303-.336.145-.423l-4.497-2.626c-.158-.102-.49-.058-.735.087l-6.802 3.968c-.245.146-.317.336-.144.423l4.497 2.626ZM205.013 200.919c.159.102.49.058.735-.087l6.802-3.968c.245-.146.317-.335.144-.438l-4.496-2.625c-.159-.102-.49-.058-.735.087l-6.802 3.968c-.245.146-.317.335-.144.438l4.496 2.625ZM195.663 206.374c.159.102.49.059.735-.087l6.802-3.968c.245-.146.303-.335.144-.423l-4.496-2.625c-.159-.102-.49-.059-.735.087l-6.802 3.968c-.245.146-.303.335-.144.423l4.496 2.625ZM190.214 211.203a.89.89 0 0 1 .404-.132c.144-.014.259 0 .331.044l4.496 2.626c.072.043.116.116.087.204-.029.087-.115.16-.231.233l-1.772 1.036 5.908 3.457c.072.044.101.117.072.204-.029.088-.115.161-.23.233l-4.583 2.67a.945.945 0 0 1-.403.131.62.62 0 0 1-.346-.044l-10.708-6.257c-.072-.044-.101-.117-.072-.205.029-.087.116-.16.231-.233l6.816-3.967Z" fill="#849FDA"/><path d="M287.915 172.752c.015 0 .043 0 .072-.014l5.188-3.034c.029-.015.043-.029.029-.044l-.331-.19c-.015 0-.044 0-.072.015l-5.188 3.034c-.029.015-.044.029-.029.044l.331.189Z" fill="#849FDA"/><path d="m261.389 217.708 26.285-15.345c1.413-.831 1.326-2.129-.201-2.903l-8.791-4.419c-1.528-.773-3.934-.715-5.361.102l-26.286 15.345c-1.412.831-1.325 2.13.202 2.903l8.791 4.419c1.527.773 3.934.73 5.361-.102Z" fill="#9BB1E0"/><path opacity=".34" d="m215.551 145.373-19.686 12.034c-5.461 3.34-11.168.554-12.653-6.185l-1.902-8.547c-1.499-6.739 1.758-14.995 7.22-18.336l19.685-12.034c5.462-3.34 11.169-.554 12.653 6.185l1.903 8.548c1.484 6.739-1.759 14.995-7.22 18.335Z" fill="#E3CFCF"/><path d="m213.199 142.383-19.685 12.034c-5.462 3.34-11.169.554-12.653-6.185l-1.902-8.547c-1.499-6.739 1.758-14.995 7.22-18.336l19.685-12.034c5.462-3.34 11.168-.554 12.653 6.185l1.902 8.548c1.499 6.753-1.744 14.995-7.22 18.335Z" fill="#7FCBB4"/><path d="m197.68 140.968-2.652-11.917c-.216-.963.476-2.086 1.269-2.086l10.981.058c.879 0 1.181 1.371.518 2.32l-8.343 11.858c-.606.861-1.557.73-1.773-.233Z" fill="#fff"/><path opacity=".34" d="m180.056 143.039-7.45 4.551c-4.424 2.714-7.061 9.394-5.851 14.85 1.211 5.455 5.822 7.716 10.261 5.017l7.45-4.551c.188-.116.375-.233.548-.364l-.058.073 4.914.393-1.585-4.04c1.96-3.18 2.825-7.308 2.032-10.911-1.21-5.47-5.822-7.716-10.261-5.018ZM223.766 101.861l-8.733 5.339c-3.502 2.144-5.578 7.425-4.626 11.742l.245 1.08c.965 4.317 4.611 6.097 8.113 3.967l8.733-5.339c3.502-2.144 5.577-7.424 4.626-11.742l-.245-1.079c-.966-4.332-4.626-6.112-8.113-3.968Z" fill="#E3CFCF"/><path d="m181.944 163.315-7.451 4.551c-4.424 2.713-9.05.452-10.26-5.018-1.211-5.456 1.412-12.151 5.851-14.849l7.45-4.551c4.424-2.713 9.05-.453 10.261 5.017 1.21 5.456-1.427 12.151-5.851 14.85Z" fill="#F37E60"/><path d="m182.434 163.023 4.914.393-1.585-4.04-3.329 3.647Z" fill="#FF9963"/><path d="M172.736 158.398c.31-.999-.011-1.991-.717-2.216-.706-.225-1.53.403-1.84 1.402-.31.999.011 1.991.717 2.216.706.225 1.53-.403 1.84-1.402ZM177.197 155.667c.31-.999-.011-1.991-.717-2.215-.706-.225-1.53.403-1.84 1.402-.31.999.011 1.991.717 2.216.706.224 1.53-.404 1.84-1.403ZM181.74 151.704c.202.919-.23 2.027-.979 2.479-.75.453-1.514.073-1.715-.846-.202-.919.23-2.027.98-2.479.749-.453 1.513-.073 1.714.846Z" fill="#fff"/><path d="m228.694 114.202-8.733 5.338c-3.502 2.145-7.148.35-8.113-3.967l-.245-1.08c-.966-4.317 1.124-9.598 4.626-11.742l8.733-5.339c3.502-2.144 7.148-.35 8.113 3.968l.245 1.079c.951 4.318-1.138 9.598-4.626 11.743Z" fill="#68CCEA"/><path d="m214.254 108.192 13.849-8.46M215.164 112.276l13.849-8.46M216.066 116.375l9.54-5.834" stroke="snow" stroke-width="2.428" stroke-miterlimit="10" stroke-linecap="round" stroke-linejoin="round"/><path opacity=".34" d="M108.019 212.304c.797-6.583-7.417-13.019-18.345-14.374-10.93-1.355-20.434 2.883-21.231 9.467-.797 6.583 7.416 13.018 18.345 14.374 10.929 1.355 20.434-2.884 21.231-9.467Z" fill="#5B78B7"/><path d="M85.42 220.243c10.237-.55 18.274-5.992 17.951-12.156-.323-6.164-8.884-10.715-19.12-10.166-10.238.55-18.274 5.992-17.951 12.156.323 6.164 8.883 10.716 19.12 10.166Z" fill="#5672B1"/><path d="M85.111 214.356c10.237-.55 18.274-5.992 17.951-12.156-.323-6.164-8.883-10.715-19.12-10.166-10.237.55-18.274 5.992-17.951 12.156.323 6.164 8.883 10.715 19.12 10.166Z" fill="#7B9DE5"/><path d="m87.862 194.212 2.4 5.681a1.169 1.169 0 0 1-.426 1.43l-6.852 4.506c-.745.49-1.732-.029-1.77-.921l-.31-7.052c-.02-.412.184-.803.522-1.019l4.752-3.125a1.138 1.138 0 0 1 1.684.5Z" fill="#7694D4"/><path d="m85.977 192.282-2.516-1.244-5.7 3.81-.717 7.886c-.038.421.136.842.465 1.107l1.084.881c1.055.862 2.613.059 2.555-1.312l-.271-6.23 5.187-3.419a.847.847 0 0 0-.087-1.479Z" fill="#5D7BBD"/><path d="m81.535 136.997-16.316 27.329 18.077 29.161" stroke="#5877B8" stroke-width="14.566" stroke-miterlimit="10" stroke-linecap="round" stroke-linejoin="round"/><path d="m77.043 134.842-16.684 30.15 19.471 30.846" stroke="#5877B8" stroke-width="14.566" stroke-miterlimit="10" stroke-linecap="round" stroke-linejoin="round"/><path d="m64.533 135.508 12.184 7.826c3.28 2.106 7.674 1.117 9.755-2.204l.213-.333c2.08-3.32 1.103-7.758-2.178-9.864l-12.184-7.826c-3.28-2.106-7.674-1.117-9.754 2.204l-.213.333c-2.09 3.311-1.104 7.748 2.177 9.864Z" fill="#7694D4"/><path opacity=".68" d="m70.433 125.899 7.24 4.31a.765.765 0 0 0 1.044-.275.785.785 0 0 0-.27-1.058l-7.24-4.31a.765.765 0 0 0-1.044.275.783.783 0 0 0 .27 1.058ZM66.652 128.631l7.239 4.31a.764.764 0 0 0 1.045-.274.785.785 0 0 0-.27-1.058l-7.24-4.31a.766.766 0 0 0-1.045.274.782.782 0 0 0 .271 1.058ZM65.062 133.255l7.24 4.31a.765.765 0 0 0 1.044-.275.785.785 0 0 0-.27-1.058l-7.24-4.31a.765.765 0 0 0-1.045.275.785.785 0 0 0 .271 1.058Z" fill="#B7CDFE"/><path d="M97.581 149.412c5.551-8.151 8.135-16.096 5.771-17.745-2.363-1.648-8.778 3.623-14.329 11.775-5.55 8.152-8.135 16.097-5.771 17.745 2.363 1.649 8.779-3.623 14.33-11.775Z" fill="#8EA8E0"/><path d="m81.514 159.81-4.219-4.897c-5.197-6.044-5.458-14.958-.62-21.286 4.433-5.809 12.088-8.022 18.891-5.485l6.281 2.351-20.332 29.317Z" fill="#88A5E5"/><path d="M96.077 148.227c5.551-8.152 8.135-16.096 5.771-17.745-2.363-1.649-8.778 3.623-14.329 11.775-5.55 8.152-8.135 16.096-5.771 17.745 2.363 1.649 8.778-3.623 14.33-11.775Z" fill="#5877B8"/><path d="M97.115 141.042c-.049 3.017-1.142 7.445-6.668 9.374-2.39.833-4.771-1.332-4.113-3.8.87-3.301 3.426-7.033 6.242-8.483 2.1-1.078 4.577.539 4.539 2.909Z" fill="#C7D8FB"/><path d="M87.514 142.267c5.555-8.15 11.97-13.43 14.332-11.784.445.303.707.832.823 1.547-3.01.657-8.1 5.378-12.61 12.01-4.51 6.631-7.064 13.116-6.59 16.191-.697.147-1.278.089-1.723-.225-2.37-1.645.223-9.59 5.768-17.739Z" fill="#B7CDFE"/><path d="m66.247 162.328-6.348 3.291a1.475 1.475 0 0 0-.561 2.086l3.038 4.839a.98.98 0 0 0 1.297.343l6.455-3.556c.542-.293.716-.989.387-1.508l-3.261-5.201a.75.75 0 0 0-1.007-.294Z" fill="#7B9DE5"/><path d="m60.303 165.403-.746.441a1.141 1.141 0 0 0-.377 1.597l3.164 5.035c.3.47.9.627 1.384.362l1.21-.666-4.635-6.769Z" fill="#5D7BBD"/><path d="M131.509 262.383c-.908.525-2.378.525-3.286 0-.908-.525-.922-1.385-.014-1.925.908-.525 2.378-.525 3.286 0 .922.54.922 1.4.014 1.925Z" fill="#E3758C"/><path opacity=".34" d="m175.488 301.282-12.379 2.334 16.429-60.695 40.206 23.485c3.43 2.013 3.43 7.016 0 9.029l-44.256 25.847Z" fill="#A4A4A4"/><path d="m163.053 258.427 36.143 8.912 7.825 5.076 2.176 1.59c.274.204.447.525.461.875.029.496.044.919-.158 1.051l-45.697 27.626a.884.884 0 0 1-.476.117c-4.035 0-1.383-45.393-.274-45.247Z" fill="#A6603B"/><path d="m164.293 301.034 41.749-25.264c.562-.335.821-4.624.244-4.945l-60.05-34.307a.845.845 0 0 0-.85.014l-45.41 27.102a.854.854 0 0 0 .015 1.473l62.688 35.956a1.705 1.705 0 0 0 1.614-.029Z" fill="#A6603B"/><path d="m165.04 300.568 42.915-25.994c-2.248-4.04-2.104-7.249-.835-13.055l-40.856 25.789c-1.758 4.858-2.536 9.846-1.224 13.26Z" fill="snow"/><path d="m99.46 252.388 1.802-.015v.073l44.04-26.27a.842.842 0 0 1 .85-.015l62.184 35.533v-.379l1.167-.015.014 1.415h-.014a.854.854 0 0 1-.403.89l-45.409 27.102a.846.846 0 0 1-.851.014l-62.932-35.956a.832.832 0 0 1-.418-.685l-.03-1.692Z" fill="#C27750"/><path d="M163.054 268.258c.259-.16 45.279-6.578 45.279-6.578v-.38l1.167-.51.015 1.911h-.015a.854.854 0 0 1-.403.889l-45.409 27.102c-.13.073-1.513 1.021-1.672 1.021-.144-.014 1.038-23.455 1.038-23.455Z" fill="#A6603B"/><path d="m163.658 288.533 45.409-27.101a.855.855 0 0 0-.014-1.474l-62.688-35.824c-.259-.146-.965-.19-1.225-.044l-45.265 27a.854.854 0 0 0 .015 1.473l62.932 35.956c.26.175.577.16.836.014Z" fill="#FFAC80"/><path d="m163.657 288.533 4.179-2.494-64.359-37.094-3.617 2.159a.854.854 0 0 0 .014 1.473l62.933 35.956a.842.842 0 0 0 .85 0Z" fill="#FFB994"/><path d="m166.254 285.207-62.082-35.751" stroke="#C77347" stroke-width="2.428" stroke-miterlimit="10" stroke-linecap="round" stroke-linejoin="round"/><path d="M163.313 288.65c-2.061 7.016-1.24 12.705-.202 14.98l-63.538-36.101s-3.4-9.102-.202-15.506l63.942 36.627Z" fill="#E38B5D"/><path d="m126.16 250.856 24.384-14.236c1.311-.759 1.138-2.115-.375-2.99-1.513-.876-3.819-.978-5.13-.219l-24.384 14.236c-1.311.759-1.138 2.115.375 2.99 1.513.89 3.819.978 5.13.219ZM181.181 253.992c-.894-.525-2.277-.583-3.055-.131l-26.156 15.287c-.778.452-.678 1.254.216 1.779.893.526 2.277.584 3.055.132l26.17-15.287c.779-.452.678-1.254-.23-1.78ZM190.906 259.813c-.893-.525-2.277-.584-3.055-.132l-26.17 15.287c-.779.452-.678 1.255.216 1.78.893.525 2.277.583 3.055.131l26.17-15.287c.778-.452.678-1.254-.216-1.779Z" fill="#FFDCC9"/><path opacity=".34" d="M151.986 262.54c8.389 0 15.189-3.069 15.189-6.855 0-3.787-6.8-6.856-15.189-6.856s-15.189 3.069-15.189 6.856c0 3.786 6.8 6.855 15.189 6.855Z" fill="#6E5487"/><path d="m156.738 232.011-6.413-2.626a12.618 12.618 0 0 1-1.008-.467 6.497 6.497 0 0 0-.937-.394c-.029-.014-.058-.014-.087-.029a7.427 7.427 0 0 0-.763-.204c-5.246-1.138-11.702-.525-15.175 5.382-3.214 5.47-1.643 12.341-1.643 12.341 1.038 5.484 5.822 11.45 6.312 11.654 0 0 2.825 2.174 4.929 2.874 1.167.394 3.328.817 5.951.963 7.249.423 10.434-5.193 12.509-9.336.821-1.663 6.96-16.074-3.675-20.158Z" fill="#E46681"/><path d="m156.869 231.996-6.412-2.611a12.639 12.639 0 0 1-1.009-.467 6.563 6.563 0 0 0-.937-.394c-.029-.014-.058-.014-.086-.029a7.513 7.513 0 0 0-.764-.204 19.888 19.888 0 0 0-3.127-.437l5.389 2.202c10.636 4.07 4.396 18.452 3.661 20.159-4.252 9.948-13.647 9.525-12.495 10.108 2.969 1.488 4.309 1.021 6.932 1.182 7.249.423 10.434-5.193 12.509-9.336.836-1.677 6.975-16.089-3.661-20.173Z" fill="#E3758C"/><path d="M146.422 233.644c-.028-.175-.547-4.39 2.681-6.287" stroke="#463757" stroke-width="3.757" stroke-miterlimit="10" stroke-linecap="round" stroke-linejoin="round"/><path d="M136.548 236.036a.742.742 0 0 1-.735.744.743.743 0 0 1-.735-.744c0-.408.332-.744.735-.744.418 0 .735.336.735.744ZM139.95 237.524a.742.742 0 0 1-.735.744.743.743 0 0 1-.735-.744c0-.408.332-.743.735-.743.404 0 .735.32.735.743ZM137.298 239.596a.743.743 0 0 1-.735.744.743.743 0 0 1-.735-.744c0-.409.332-.744.735-.744.404 0 .735.335.735.744ZM134.603 240.938a.743.743 0 0 1-.735.744.743.743 0 0 1-.735-.744c0-.409.331-.744.735-.744.403 0 .735.335.735.744ZM138.009 242.426a.742.742 0 0 1-.735.743.742.742 0 0 1-.735-.743c0-.409.332-.744.735-.744.404 0 .735.321.735.744Z" fill="#FA909C"/><path d="M109.07 257.581s-.374 11.217 2.537 16.789l7.45 4.23s-3.127-12.676-2.68-16.833l-7.307-4.186Z" fill="snow"/><path d="m167.172 292.209 39.039-23.922M167.562 295.608l39.04-23.922" stroke="#BFB1A8" stroke-width="2.428" stroke-miterlimit="10" stroke-linecap="round" stroke-linejoin="round"/><path opacity=".15" d="M261.234 215.383c1.883 0 3.87-.313 5.649.314h-1.674c2.092.523 4.184.942 5.962 1.988 1.569.836 2.929 1.987 4.184 3.138 6.694 5.962 11.61 13.597 18.409 19.246 4.812 3.974 10.46 7.74 16.736 7.74 5.125 0 10.042-2.615 13.18-6.59 4.184-5.439 5.334-13.075 10.669-17.468 2.928-2.301 6.589-3.242 9.832-5.125 2.51-1.36 4.811-3.975 4.184-6.694-.628-2.615-3.556-3.87-6.171-4.707-6.799-2.197-14.33-4.393-21.025-6.59-4.498-1.464-9.204-2.406-14.016-2.615-2.929-.209-5.858-.105-8.786-.523a49.25 49.25 0 0 1-5.335-1.255c-3.452-.942-6.903-2.197-10.25-3.556-1.465-.628-3.138-1.465-3.766-2.929-3.138-8.368 9.205-11.088 14.853-10.46 5.439.627 10.355 3.033 15.376 5.23 11.401 4.916 23.325 8.472 35.564 10.669 13.074 2.301 26.881 3.242 38.387 9.832 3.243 1.883 6.485 4.393 7.218 8.054 1.255 6.276-4.707 12.134-6.172 17.887-1.36 5.753-1.046 11.715-1.15 17.677-.105 5.962-.628 12.029-3.661 17.154-.314.628 2.466 18.913 2.048 19.436l-38.21 23.514c-1.255-.21-8.293-18.265-9.548-18.683-7.74-2.824-15.271-6.171-22.802-9.623-.419-.209-.733-.314-1.151-.523-8.368-3.87-15.167-8.263-20.501-15.899-7.531-10.669-13.389-22.803-23.43-31.066-3.452-2.824-7.532-5.335-9.414-9.309-.837-1.778-1.256-4.08-.21-5.753 1.046-1.674 3.138-2.511 5.021-2.511Z" fill="#9E9EA4"/><path d="M346.268 154.402c.209.419.314.942.523 1.36 2.719 6.381 7.113 12.029 12.238 16.841 1.464 1.359 2.929 2.614 4.812 3.033 2.51.627 5.439-.419 7.635.837.942.523 1.674 1.464 2.615 2.196.942.732 2.197 1.151 3.138.523.628-.418.942-1.046 1.465-1.569 1.673-1.673 4.497-.523 6.589.732l2.511 1.569c2.615 1.779 5.125 3.766 7.217 6.067 1.15 1.255 2.196 2.615 3.556 3.557 1.36.941 3.243 1.359 4.812.627.523-.314 1.046-.732 1.569-1.046a6.284 6.284 0 0 1 1.987-.627c.628-.105 1.36-.105 1.988-.21 3.556-.313 7.321-1.15 9.413-3.974l.942-1.569c.418-.628.732-1.36 1.36-1.779.836-.627 2.092-.836 3.033-1.464 1.778-1.36 3.033-3.243 3.87-5.439.941-2.615 2.382-4.387 3.574-7.379.554-1.389.654-1.881.654-2.613.314-5.125-.496-10.433-1.961-15.349-1.987-7.74-6.459-15.018-12.735-20.248-2.929-2.51-5.541-5.342-8.889-7.225-2.301-1.36-5.478-2.154-8.093-2.572-1.36-.209-2.337-.235-3.593-.653-3.137-.942-6.332-4.011-9.47-3.593-.837.105-2.429.429-3.266.534-2.72.418-4.126-1.46-6.532-2.82-2.824-1.569-7.532-1.573-9.624 1.041-.628.733-1.191 1.36-2.132 1.779-1.36.627-2.233-.314-3.593 0-1.046.209-2.329 1.359-3.166 1.987-1.778 1.255-4.184.837-5.962 1.883-1.883 1.15-3.347 4.498-4.498 6.276-4.811 8.681-5.543 19.978-1.987 29.287Z" fill="#3D3D3D"/><path d="M352.86 118.734c1.778-1.046 4.08 1.255 5.858 0 .837-.627 1.673-3.452 2.719-3.661 1.465-.313 2.929.732 4.289.209.941-.418 1.36-1.359 1.987-2.196 2.092-2.51 6.172-2.197 8.996-.628 2.406 1.36 4.811 3.452 7.531 3.034.837-.105 1.673-.523 2.51-.628 3.243-.418 5.858 2.51 8.891 3.452 1.255.314 2.615.314 3.975.627 2.615.419 5.021 1.779 7.322 3.138 3.347 1.988 6.59 3.975 9.623 6.381 6.276 5.23 10.774 12.447 12.97 20.292 1.36 4.916 2.301 10.042 1.988 15.167 0 .732-.21 1.464-.314 2.196 2.719-.836 5.02-2.928 6.485-5.334 1.778-2.929 2.406-6.381 2.51-9.832.523-10.356-3.452-20.815-10.564-28.347-1.674-1.778-3.557-3.347-5.126-5.23-2.301-2.614-3.974-5.752-6.38-8.263a23.577 23.577 0 0 0-6.485-4.602c-8.682-3.975-18.723-1.255-28.346-.837-2.72.105-5.544.105-8.264.837-1.883.523-3.661 1.569-5.648 2.196-2.301.733-4.707 1.046-6.799 2.092-1.36.628-2.615 1.569-3.87 2.406-1.988 1.465-4.08 2.929-5.23 5.021-.314.837-.628 1.673-.628 2.51Z" fill="#434343"/><path d="M377.229 190.175c2.929 1.255 5.544 3.033 7.532 5.544 1.987 2.51 2.928 5.962 2.092 8.995 1.046.21 2.091.523 3.137.628 2.511.418 5.126.314 7.741.105.837-.105 1.778-.105 2.615-.419 2.51-.837 3.765-3.452 5.543-5.125 1.046-1.046 2.406-1.465 3.871-1.778 1.046-.314 2.824-.523 3.661-1.256l.313-.313c-.836-.628-1.673-1.36-2.405-2.197-.314-.314-.628-.732-.942-1.046a23.062 23.062 0 0 1-3.138-4.707 6.31 6.31 0 0 0-1.987.628c-.523.314-1.046.732-1.569 1.046-1.464.732-3.347.314-4.812-.628-1.359-.941-2.405-2.301-3.556-3.556-2.092-2.301-4.602-4.289-7.217-6.067.418.941.836 1.987.836 2.929.105 1.778-.418 3.556-1.673 4.707-1.255 1.15-3.347 1.464-4.812.523-.104.732-.941 1.15-1.673 1.36-1.36.313-2.406.523-3.557.627Z" fill="#E4A387"/><path d="M359.656 262.244c1.673 2.928 4.497 5.23 7.531 6.799 2.928 1.464 6.171 2.615 8.158 5.229.314.419.523.733.733 1.151a24.07 24.07 0 0 1 1.046 2.406c1.15 2.929 2.405 5.857 3.556 8.682 1.36 3.451 2.824 6.903 2.929 10.669 0 1.046 0 2.301.627 3.138.628.836 1.569 1.15 2.615 1.464a39.621 39.621 0 0 0 17.154.941c5.439-.941 10.251-3.242 14.853-6.171 3.452-2.197 6.904-4.393 10.042-7.008 2.406-1.987 5.021-4.184 5.648-7.322.105-.314.105-.628.105-.941.104-1.988 0-4.289-.105-6.276-.209-2.615-.523-5.23-.523-7.95 0-3.138.628-5.753 1.36-8.682 1.569-6.275 2.092-13.493 1.464-19.873-.732-7.95-3.556-15.795-2.51-23.64.418-3.661 1.778-7.217 2.615-10.773.837-3.557 1.36-7.427.209-10.983-1.36-4.079-4.811-7.217-8.786-8.786-2.824-1.151-5.962-1.569-9.1-1.465-.314.523-.523 1.046-.942 1.569-2.092 2.824-5.962 3.766-9.414 3.975-.627.105-1.359.105-1.987.209.837 1.674 1.883 3.347 3.138 4.707 1.36.209 2.824.628 4.079 1.151.837.418 1.779.836 2.302 1.673.627.732.836 1.883.418 2.72-.628 1.36-2.406 1.569-3.87 1.883-1.778.418-3.452 1.359-4.707 2.719-.941 1.046-1.778 2.301-2.824 3.243-1.988 1.778-5.021 1.883-7.531 1.883-3.243 0-6.381-.942-9.623-1.36-1.779-.314-3.557-.419-5.335.104-1.046.314-1.987.837-2.929 1.465a6.022 6.022 0 0 1-.523 1.464c-.523.732-1.36 1.046-1.987 1.674-.209.209-.314.313-.418.523-.419.627-.628 1.359-1.046 1.987-.523.837-1.36 1.569-1.988 2.51-.627.942-1.15 1.988-1.673 3.034 3.87-1.569 7.844-2.72 11.924-2.615 5.021.104 10.355 2.301 12.97 6.59 1.464 2.51 1.987 5.439 2.406 8.367.209 1.36.314 2.72.104 3.975-.209 1.36-.836 2.72-1.569 3.87-2.092 3.766-5.125 7.218-9.204 8.787-1.778.732-3.661 1.046-5.544 1.464-3.556.837-6.485 2.824-9.518 4.602-3.766 2.197-7.741 3.975-11.716 5.753-.732.419-1.673.942-2.614 1.465Z" fill="#E97084"/><path d="M325.875 269.043c1.36 3.242 3.033 6.694 6.171 8.263 1.36.732 2.824.941 4.393 1.15 2.929-1.987 5.753-3.974 8.682-5.962 1.464-1.046 3.033-2.092 4.498-3.242 3.242-2.406 6.589-4.916 10.146-7.008.941-.523 1.883-1.046 2.824-1.465 3.975-1.778 8.054-3.556 11.715-5.753 3.033-1.882 5.962-3.765 9.518-4.602 1.883-.418 3.766-.732 5.544-1.464 3.975-1.569 7.008-5.021 9.205-8.787.732-1.255 1.36-2.51 1.569-3.87.209-1.36.104-2.719-.105-3.975-.418-2.928-.837-5.857-2.405-8.367-2.615-4.289-7.845-6.59-12.971-6.59-4.079-.105-8.158 1.046-11.924 2.615-.523 1.046-1.151 2.092-1.883 2.929-.941 1.15-2.092 2.196-3.242 3.033-2.092 1.674-4.393 2.929-6.381 4.602-1.883 1.569-3.87 2.929-6.067 3.975-4.393 2.197-9.204 3.766-13.597 5.962-6.276 3.138-12.343 6.799-18.41 10.251 0 .209-.104.314-.104.523-1.569 5.962.523 12.133 2.824 17.782Z" fill="#FDE797"/><path d="M319.074 255.968c0 4.184.419 8.472 1.778 12.447.837 2.51 1.988 4.811 3.557 6.903.313.419.627.942 1.046 1.36.732.837 1.464 1.569 2.196 2.301 1.151 1.046 2.615 1.988 4.184 1.883 1.046-.104 2.092-.732 3.034-1.36.523-.313 1.046-.732 1.569-1.046-1.465-.104-3.034-.418-4.394-1.15-3.138-1.569-4.811-5.021-6.171-8.263-2.301-5.649-4.393-11.925-3.033-17.887 0-.209.104-.314.104-.523-.209.105-.523.314-.732.419-1.046.627-2.301 1.359-2.824 2.51-.105.105-.105.314-.105.418-.209.628-.209 1.36-.209 1.988Z" fill="#E97084"/><path d="M345.224 162.77c.627.837 1.569 1.465 2.51 1.988.732.418 1.569.837 2.092 1.569.628.941.209 2.405.209 3.451 0 1.36 0 2.72.21 3.975.313 2.092 1.046 4.08 2.405 5.649.209.209.419.523.628.836.523.837.314 1.988.732 2.929.418.941.837 2.092 1.674 2.824 1.046.942 2.51 1.36 3.87 1.778 1.046.314 2.092.523 3.138.733 1.987.418 3.975.627 5.962 1.046 2.824.627 5.753.941 8.577.627 1.151-.104 2.197-.314 3.243-.523.732-.209 1.569-.523 1.673-1.36 1.464.942 3.556.628 4.812-.523 1.255-1.15 1.882-3.033 1.673-4.707-.104-1.045-.418-1.987-.837-2.928l-2.51-1.569c-1.987-1.255-4.916-2.301-6.59-.732-.523.523-.836 1.255-1.464 1.569-.941.627-2.301.209-3.138-.523-.941-.733-1.674-1.674-2.615-2.197-2.301-1.255-5.125-.314-7.636-.837-1.882-.418-3.451-1.778-4.811-3.033-5.126-4.812-9.519-10.46-12.238-16.841-.419.628-.837 1.256-1.36 1.883-.418.628-.941 1.36-1.046 2.092-.209.837.209 1.988.837 2.824Z" fill="#EBAA8F"/><path d="M277.963 185.782c.105-1.987.105-3.87.21-5.857 0-.733.104-1.465.313-2.197.733-1.674 2.72-2.301 4.498-2.72 2.824-.732 5.753-1.464 8.786-1.255 1.779.105 3.452.523 5.126.942 2.615.627 5.23 1.255 7.845 2.196 3.661 1.36 7.217 3.243 10.878 4.498 8.263 2.929 17.259 2.824 25.731 4.184 7.113 1.15 14.226 2.301 21.338 2.824 1.988.418 3.975.628 5.962 1.046 2.825.628 5.753.941 8.578.628 2.928 1.255 5.543 3.033 7.531 5.543 1.987 2.511 2.928 5.962 2.092 8.996-.628-.105-1.151-.209-1.779-.209-1.673 0-3.451.627-4.184 2.196-.313.628-.418 1.36-.523 1.988a5.98 5.98 0 0 1-.523 1.464c-.523.732-1.359 1.046-1.987 1.674-.209.209-.314.313-.418.523-7.741-3.034-15.69-5.858-23.64-8.159-9.518-2.72-19.141-5.335-28.66-8.054-3.451-.942-6.903-1.988-10.564-1.778-2.092.104-4.079.627-6.171.732-5.858.418-11.611-1.988-17.468-1.883-2.406 0-5.021.314-6.799-1.151-.628-.523-1.465-1.359-2.197-1.046-.209.105-.314.21-.523.314-.314 0-.523-.209-.732-.314-1.046-.941-2.197-1.987-2.51-3.347-.314-.523-.21-1.15-.21-1.778Zm9.31 1.151c1.359-.419 2.824-.21 4.288-.105 1.465.105 3.034.105 4.289-.418-1.569-1.046-3.452-1.674-5.335-1.883-.418 0-.837-.105-1.255.104-.523.21-.837.733-1.255 1.046-.314.21-.628.314-.942.419-.523.104-1.046-.105-1.15-.628v-.418c-.105-.523-.732-.837-1.151-.523-.418.209-.523.837-.523 1.255-.104.732-.104 1.569-.209 2.301 1.151-.104 2.092-.837 3.243-1.15Z" fill="#F6B599"/><path d="M411.121 194.359c.732.837 1.569 1.465 2.406 2.197.837-1.151-1.151-1.883-2.406-2.197Z" fill="#9C2D33"/><path d="M380.264 208.689a9.64 9.64 0 0 1 2.929-1.464c1.674-.523 3.556-.314 5.335-.105 3.138.523 6.38 1.36 9.623 1.36 2.51 0 5.543-.105 7.531-1.883 1.046-.941 1.778-2.196 2.824-3.242 1.255-1.36 2.929-2.302 4.707-2.72 1.464-.314 3.243-.523 3.87-1.883.419-.837.209-1.883-.418-2.719-.628-.733-1.465-1.256-2.301-1.674-1.256-.628-2.72-.941-4.08-1.151.314.314.628.733.942 1.046 1.15.314 3.242 1.046 2.405 2.197-.104.105-.104.209-.313.314-.837.837-2.615 1.046-3.661 1.255-1.36.314-2.72.732-3.871 1.778-1.778 1.674-3.138 4.289-5.543 5.126-.837.313-1.778.418-2.615.418-2.615.209-5.23.418-7.741-.105-1.046-.209-2.092-.523-3.138-.627-.627-.105-1.15-.209-1.778-.209-1.673 0-3.451.627-4.184 2.196-.313.732-.313 1.465-.523 2.092Z" fill="#FDE797"/><path d="M257.149 218.521c.209 0 .523-.104.733 0 .313.105.418.628.522.942l.314 3.138c.105.732.209 1.464.523 1.987.314.628 1.046 1.046 1.674 1.046.627-.105 1.15-.628 1.36-1.255.209-.628.104-1.255.104-1.987 0-.21 0-.523.105-.628.209-.314.627-.105.941 0 3.138 1.778 5.021 5.544 8.264 7.008 1.255.523 2.614.837 3.87 1.36 1.569.627 2.824 1.778 3.974 2.929 1.779 1.778 2.511 4.079 3.557 6.171 1.569 3.242 3.452 6.38 5.334 9.518 5.021 8.368 10.774 16.318 17.05 23.744 1.569 1.883 3.242 3.766 5.439 4.812 2.301 1.046 5.021 1.046 7.531.418 2.092-.523 3.975-1.464 5.962-2.406-1.569-2.092-2.719-4.497-3.556-6.903-1.36-3.975-1.883-8.263-1.778-12.447 0-.628 0-1.36.209-1.988-.418.105-.941 0-1.36-.104-.837-.314-1.464-.837-2.092-1.465-6.694-6.276-12.552-13.284-18.514-20.292-.732-.941-1.464-1.778-2.301-2.719-.941-1.151-1.883-2.302-2.72-3.557-.104-.209-.313-.418-.313-.732s.104-.523.209-.837c1.36-3.451-.314-6.485-2.301-9.204-.628-.837-1.36-1.779-2.197-2.511-1.046-.837-2.301-1.36-3.452-1.987-3.974-1.988-7.426-5.125-11.401-7.217-.732-.419-1.569-.733-2.406-1.046-1.882-.523-4.184-.314-5.648.941l-1.255 1.255c-1.255 1.151-3.034 1.569-4.289 2.72-1.15 1.046-1.673 2.824-1.359 4.393.104.314.104.523.104.837 0 .313-.209.627-.418.941-.628.941-1.151 2.092-1.36 3.243 0 .836.105 1.778.941 1.882Z" fill="#F6B599"/><path d="m468.999 352.532-101.323-.19c.101-1.721.418-3.982.807-5.703l18.503-79.103c3.344-14.324 13.561-28.648 25.537-35.839l56.476-33.841v154.676Z" fill="#6683C2"/><path d="M468.998 351.346h-71.709l11.543-74.173c5.044-21.573 35.451-35.226 53.494-46.035l6.672-3.69v123.898Z" fill="#5B78B7"/><path d="M425.078 297.668s24.744 6.68 43.766 16.22v-12.647c-9.958-4.755-24.426-8.022-43.766-3.573ZM469 261.799c-7.22-11.13-14.036-19.284-14.036-18.831.159 12.077 4.323 25.307 9.468 37.122-10.866-10.444-28.317-22.054-50.698-19.589 0 0 32.627 13.361 55.252 33.286v-31.988H469Z" fill="#7FCBB4"/><path d="M468.843 326.228v-14.66c-13.892-3.836-32.122-3.763-51.058 10.532 0-.015 27.323-.044 51.058 4.128Z" fill="#7FCBB4"/></g><defs><clipPath id="b"><path fill="#fff" transform="translate(256.48 272.283)" d="M0 0h201.635v80.061H0z"/></clipPath></defs></svg>