<svg width="393" height="283" fill="none" xmlns="http://www.w3.org/2000/svg"><mask id="a" style="mask-type:alpha" maskUnits="userSpaceOnUse" x="0" y="0" width="393" height="283"><path fill="#D9D9D9" d="M0 0h393v283H0z"/></mask><g mask="url(#a)"><path d="m428.43 153.012 1.093 130.283H196.805L428.43 153.012Z" fill="#666F82"/><g clip-path="url(#b)"><path d="M264.452 343.732c.905.101 1.608.503 2.512.704 1.407.201 2.814.201 4.22 0 .704-.101 1.407-.302 2.111-.503.602-.201 1.105-.402 1.607-.803.503-.402.904-.804 1.206-1.307.804-1.105 1.306-2.21 1.809-3.416.2-.502.301-1.105.502-1.608.703-2.813.603-5.928.402-8.842-.302-3.617-.603-7.335-1.005-10.952-1.105-10.048-2.411-20.095-2.612-30.143-.201-12.258 1.507-24.517 3.315-36.675.603-4.019 1.206-7.837 1.407-11.856 8.34 4.421 15.474 11.053 20.498 18.99 2.21 7.536 3.617 15.273 4.119 23.11.302 3.919.302 7.838-.703 11.656-.603 2.21-1.507 4.421-2.412 6.531-2.612 6.33-4.823 12.761-6.531 19.392-.804 3.215-1.406 6.431-1.909 9.746-.703 4.924-.904 9.948-.502 14.972v.201c0 .502.1 1.004.1 1.507.402 4.22 1.206 8.842 2.914 12.66.101.1.101.301.201.402.402 1.005.703 2.311-.301 3.014-1.307.905-3.216 1.306-4.723 1.708-3.215 1.005-6.631 1.809-10.048 2.11-4.823.402-9.545-.703-14.066-2.411-.905-.402-1.91-.804-2.814-1.206-3.014-1.507-6.029-3.818-6.631-7.435-.804-3.818 2.813-9.747 7.334-9.546Z" fill="#EFC0AC"/><path d="M297.512 329.565c.402 1.407 1.205 2.713 2.21 3.818 3.718 4.421 9.043 7.335 14.67 8.641 5.526 1.206 11.856.503 17.182-1.708 2.914-1.206 2.512-2.813 1.708-4.823-.302-.804-.804-1.708-1.005-2.713-1.105-3.516-1.808-7.033-2.311-10.65-.904-6.23-.904-12.56-.1-18.79-5.426-4.521-10.048-9.847-14.67-15.272-1.909-2.211-3.517-4.522-4.823-7.034 1.306 9.747 2.612 19.392 3.818 29.139.302 2.21.603 4.521.502 6.832-.1 1.909-.502 3.919-2.009 5.024-.101.101-.302.201-.402.302-1.005.602-2.01.502-3.215.402-1.809-.201-3.718.1-5.527.301-1.909.201-4.019.703-5.224 2.311-1.005 1.206-1.206 2.813-.804 4.22Z" fill="#FFA361"/><path d="M279.728 238.331c.101-1.809 1.637-2.415 1.537-4.224-.201-5.325 4.87-3.335 10.396-4.842 2.914-.804 1.431-8.216 4.445-7.814.402.1.905.1 1.306.201 8.943 1.205 17.986 2.411 26.627 4.823-.804.1-1.608.301-2.311.502-2.21.603-4.32 1.608-6.23 2.914-5.425 3.517-9.746 8.741-12.057 14.871-1.306 3.315-.402 7.636-.201 11.153 0 .603.101 1.306.201 1.909a19.296 19.296 0 0 1-3.316-.603c0 .1 0 .1.101.201a54.222 54.222 0 0 0-20.498-19.091Z" fill="#EBB7A1"/><path d="M303.341 255.814c0 .603.1 1.306.201 1.909.301 3.416.804 6.833 1.708 10.149 1.206 4.722 2.813 9.143 5.124 13.263 1.307 2.512 2.914 4.823 4.823 7.033 4.622 5.325 9.244 10.751 14.67 15.273.603.502 1.206 1.004 1.809 1.406 5.124 3.919 11.153 7.536 17.081 10.048 12.359 5.225 26.627 2.211 38.885-1.407 2.914-.904 5.727-1.205 8.54-2.612 5.828-3.014 10.149-8.038 14.067-13.263 10.249-13.765 14.168-29.139 13.063-46.119-.201-2.914-.402-5.929-1.307-8.641-1.205-3.718-3.717-6.833-6.229-9.747-4.421-5.426-9.144-10.651-13.766-15.875-.301-.402-.703-.804-1.005-1.106-.602 3.015-3.114 5.125-5.425 7.034-3.015 2.512-6.33 4.622-9.646 6.732-4.421 2.813-9.144 5.124-14.268 5.928a38.08 38.08 0 0 1-16.479-.904c-.904-.302-1.909-.603-2.511-1.407-.603-.904-.503-2.01-.603-3.014-.101-3.517-1.507-6.933-2.814-10.249-1.105-2.813-.277 1.499-.591 1.812 0 .941-.488 2.51-.627 3.137-.14.628-.942 1.569-1.883 3.765-1.255 1.535-1.568 2.196-5.019 4.078-1.377.751-4.706 2.196-7.529 2.824-2.824.627-7.843 1.701-14.431.941-8.156-.941-9.799 4.09-11.607 4.392-.804.1-3.427-6.48-4.231-6.279-2.211.603-6.722 3.404-8.632 4.71-5.425 3.517 4.194.773 1.883 6.902-1.306 3.215 6.447 5.77 6.749 9.287Z" fill="#3F9FBC"/></g><path d="m428.043 138.019-2.768 34.694-180.613 110.582H197l231.043-145.276Z" fill="silver"/><path d="M298.683 27.906s12.669-4.229 10.805-21.873c0 .01-15.787 8.707-10.805 21.873Z" fill="#5CAA93"/><path opacity=".34" d="M301.689 70.734c6.775 0 12.267-1.773 12.267-3.96 0-2.187-5.492-3.96-12.267-3.96-6.775 0-12.267 1.773-12.267 3.96 0 2.187 5.492 3.96 12.267 3.96Z" fill="#C97D7F"/><path d="m313.631 50.555-30.686-.907 4.955 15.368c.182 1.425 1.206 2.813 3.071 3.904 4.123 2.406 10.795 2.424 14.89.028 1.719-1 2.715-2.276 2.98-3.58l4.79-14.813Z" fill="snow"/><path d="M313.629 50.555c-4.26 8.595-8.51 17.2-15.348 20.179 2.743.028 5.494-.564 7.578-1.786 1.718-.999 2.715-2.276 2.98-3.58l4.79-14.813Z" fill="#EDE1E1"/><path d="M313.953 48.755c.027-5.018-6.917-9.124-15.509-9.171-8.592-.047-15.58 3.983-15.606 9-.027 5.018 6.916 9.124 15.509 9.171 8.592.047 15.579-3.982 15.606-9Z" fill="#fff"/><path d="M311.642 48.452c.023-4.308-5.937-7.833-13.313-7.873-7.376-.04-13.374 3.419-13.397 7.726-.023 4.308 5.938 7.833 13.313 7.873 7.376.04 13.374-3.419 13.397-7.726Z" fill="#6D6058"/><path d="M298.531 13v37.62" stroke="#7FCBB4" stroke-width="6" stroke-miterlimit="10" stroke-linecap="round" stroke-linejoin="round"/><path d="M298.39 40.211s.575-13.48-16.39-17.968c0 0 2.459 18.005 16.39 17.968Z" fill="#7FCBB4"/><path d="M298.857 35.289s13.208-1.888 14.47-19.587c0 .01-17.057 5.746-14.47 19.587ZM298.666 24.982S304.58 12.223 290 1c0 .01-4.79 18.366 8.666 23.982Z" fill="#7FCBB4"/><path d="m298.699 24.214-8.383-22.437" stroke="#5CAA93" stroke-width="2.428" stroke-miterlimit="10" stroke-linecap="round" stroke-linejoin="round"/><path opacity=".34" d="m80.159 242.682 20.059-11.714c1.26-.742 1.107-2.046-.36-2.9l-37.972-22.181c-1.467-.855-3.696-.953-4.956-.21l-20.059 11.714c-1.26.742-1.107 2.045.36 2.9l37.972 22.181c1.454.869 3.682.953 4.956.21Z" fill="#939393"/><path d="M32 219.226v-.042l.083-1.821 1.412.238 19.422-11.336c1.26-.742 3.502-.644 4.956.21l37.141 21.691 2.132.364-.083 1.752c0 .476-.277.924-.844 1.261l-20.06 11.714c-1.259.742-3.501.644-4.955-.21l-37.972-22.181c-.83-.449-1.232-1.065-1.232-1.64Z" fill="snow"/><path d="m76.23 241.505 20.058-11.714c1.26-.743 1.108-2.046-.36-2.9L57.956 204.71c-1.467-.855-3.696-.953-4.956-.211l-20.058 11.714c-1.26.743-1.108 2.046.36 2.901l37.971 22.181c1.454.855 3.697.953 4.956.21Z" fill="#5B78B7"/><path d="m71.106 241.211 24.987-14.194-38.415-22.433-24.655 14.362 38.083 22.265Z" fill="#E4EDFF"/><path d="M83.717 221.706 57.07 206.153l-17.096 9.962 43.744 5.591Z" fill="#fff"/><path d="m51.118 222.519 15.034-8.771c.692-.407.61-1.121-.194-1.598l-4.942-2.886c-.803-.477-2.02-.519-2.727-.112l-15.02 8.771c-.692.406-.609 1.121.194 1.597l4.942 2.887c.803.462 2.021.518 2.713.112Z" fill="#EDE1E1"/><path d="M49.26 220.8c1.874-.01 3.387-.909 3.382-2.008-.006-1.099-1.53-1.982-3.403-1.971-1.873.01-3.387.909-3.38 2.008.005 1.099 1.528 1.981 3.401 1.971Z" fill="#fff"/><path d="m61.126 210.889-9.067 5.311M62.799 212.332l-4.72 2.775" stroke="#fff" stroke-width="1.922" stroke-miterlimit="10" stroke-linecap="round" stroke-linejoin="round"/><path d="m62.788 229.581 15.034-8.771c.692-.407.61-1.121-.194-1.598l-4.942-2.886c-.803-.477-2.02-.519-2.727-.112l-15.033 8.771c-.693.406-.61 1.121.193 1.597l4.942 2.887c.803.462 2.022.518 2.727.112Z" fill="#FFAC80"/><path d="M60.932 227.862c1.873-.01 3.387-.909 3.381-2.008-.005-1.099-1.529-1.982-3.402-1.971-1.873.01-3.387.909-3.38 2.008.005 1.099 1.528 1.981 3.401 1.971Z" fill="#fff"/><path d="m72.782 217.951-9.067 5.325M74.457 219.394l-4.707 2.775" stroke="#fff" stroke-width="1.922" stroke-miterlimit="10" stroke-linecap="round" stroke-linejoin="round"/><path d="m74.44 236.643 15.035-8.771c.692-.407.609-1.121-.194-1.598l-4.942-2.886c-.803-.477-2.021-.519-2.727-.112l-15.034 8.771c-.692.406-.61 1.121.194 1.597l4.942 2.887c.817.462 2.035.518 2.727.112Z" fill="#EDE1E1"/><path d="M72.585 234.924c1.873-.01 3.387-.909 3.38-2.008-.005-1.099-1.528-1.981-3.401-1.971-1.874.01-3.387.909-3.381 2.008.005 1.099 1.529 1.982 3.402 1.971Z" fill="#fff"/><path d="m84.45 225.013-9.067 5.325M86.127 226.47l-4.72 2.761" stroke="#fff" stroke-width="1.922" stroke-miterlimit="10" stroke-linecap="round" stroke-linejoin="round"/><path opacity=".34" d="m135.979 152.357 107.52-62.787c1.246-.729 3.433-.63 4.873.21l62.959 36.697c1.44.841 1.592 2.116.346 2.845l-99.076 61.26a15.387 15.387 0 0 1-11.435 1.947 5.254 5.254 0 0 1-1.882-.63l-62.959-36.697c-1.426-.827-1.592-2.116-.346-2.845Z" fill="#989898"/><path d="m125.443 144.861 2.658 1.695 1.107-3.811h-4.056l.291 2.116ZM218.984 7.614l-2.658-1.71-4.568 4.344 5.689.897 1.537-3.531Z" fill="#463757"/><path d="m129.042 144.889 105.72-61.736c2.34-1.36 3.489-5.129 2.575-8.351L218.663 9.268c-.914-3.223-3.586-4.75-5.925-3.391L106.74 68.16c-2.339 1.36-3.032 3.853-2.104 7.09l18.495 66.248c.913 3.237 3.571 4.764 5.911 3.391Z" fill="#5B78B7"/><path d="m131.77 146.64 105.72-61.736c2.34-1.36 3.489-5.129 2.575-8.351l-18.674-65.534c-.914-3.223-3.586-4.75-5.925-3.39L108.735 70.064c-2.34 1.36-2.811 3.181-1.883 6.418l18.993 66.767c.927 3.236 3.585 4.764 5.925 3.39Z" fill="#E4EDFF"/><path d="M234.233 56.081 221.401 11.02c-.914-3.223-3.586-4.75-5.925-3.39l-68.109 39.85 86.866 8.602Z" fill="#fff" fill-opacity=".62"/><path d="M129.969 150.018v-3.489l15.518 9.135.886-2.059 103.326-60.336c1.246-.728 3.724-.63 5.15.21l44.769 25.979v-.729l6.797 3.335.955-.393-.125 3.167c-.111.687-.374.981-.789 1.219l-107.534 62.956c-1.246.728-3.433.714-4.873-.126l-62.419-36.081c-1.675-.869-1.661-2.788-1.661-2.788Z" fill="#4B6499"/><path d="M129.969 150.018v-3.489l15.518 9.135.886-2.059 50.68-29.594 1.869 65.016c-.623.364-1.481.546-2.367.532-.886-.014-1.786-.224-2.506-.644l-62.419-36.109c-1.675-.869-1.661-2.788-1.661-2.788Z" fill="#5B78B7"/><path d="m130.799 146.346 107.52-62.787c1.246-.729 3.433-.63 4.873.21l62.959 36.697c1.44.841 1.592 2.116.346 2.845l-107.52 62.787c-1.246.729-3.433.631-4.873-.21l-62.959-36.697c-1.426-.841-1.592-2.13-.346-2.845Z" fill="#A4BAEA"/><path d="M243.293 101.242c.152.098.471.056.706-.084l6.534-3.812c.235-.14.305-.322.139-.42l-4.319-2.522c-.153-.098-.471-.056-.706.084l-6.535 3.811c-.235.14-.304.322-.138.42l4.319 2.523ZM235.719 112.606c.152.098.47.056.706-.085l6.534-3.811c.235-.14.304-.322.138-.42l-4.319-2.522c-.152-.084-.471-.056-.706.084l-6.534 3.811c-.235.14-.305.322-.152.42l4.333 2.523ZM239.553 117.341c.152.098.47.056.706-.084l6.534-3.811c.235-.14.304-.322.138-.42l-4.333-2.522c-.152-.084-.47-.056-.706.084l-6.534 3.811c-.235.14-.304.322-.152.406l4.347 2.536ZM249.908 118.252c.152.084.471.056.706-.084l6.534-3.811c.236-.14.291-.322.139-.406l-4.319-2.523c-.153-.084-.471-.056-.706.084l-6.534 3.812c-.236.14-.291.322-.139.42l4.319 2.508ZM267.877 115.59c.152.098.47.056.706-.084l6.534-3.811c.235-.14.304-.323.138-.421l-5.08-2.97c-.153-.084-.471-.056-.706.084l-6.534 3.811c-.236.14-.291.322-.139.421l5.081 2.97ZM256.606 122.162c.153.098.526.014.845-.169l8.555-4.988c.304-.182.429-.406.277-.49l-5.081-2.971c-.152-.084-.54-.014-.844.154l-8.555 4.989c-.305.182-.429.406-.277.49l5.08 2.985ZM200.433 155.005c.124.07.429.028.664-.112l6.52-3.811c.235-.14.332-.308.194-.392l-1.883-1.093c-.124-.07-.429-.028-.664.112l-6.52 3.811c-.236.14-.319.308-.194.392l1.883 1.093ZM191.706 160.232c.125.07.429.028.664-.112l6.521-3.811c.235-.141.332-.309.193-.393l-1.882-1.093c-.125-.07-.429-.028-.665.112l-6.52 3.812c-.235.14-.318.308-.194.392l1.883 1.093ZM182.464 165.5c.124.07.415.014.65-.112l6.52-3.811c.236-.14.333-.308.208-.378l-1.814-1.051c-.124-.07-.415-.014-.65.112l-6.52 3.811c-.236.14-.319.308-.208.378l1.814 1.051ZM188.139 158.214c.125.07.416.014.651-.112l6.52-3.811c.235-.14.332-.308.208-.379l-1.814-1.05c-.124-.07-.415-.014-.65.112l-6.521 3.811c-.235.14-.318.308-.207.378l1.813 1.051ZM211.714 148.364c.153.098.471.056.706-.084l42.485-24.787c.236-.14.305-.323.139-.421l-5.081-2.97c-.152-.084-.484-.056-.706.084l-42.485 24.787c-.235.14-.304.322-.152.42l5.094 2.971Z" fill="#849FDA"/><path d="M257.785 120.522c.014 0 .041 0 .069-.014l4.984-2.914c.027-.014.041-.028.027-.042l-.318-.183c-.014 0-.042 0-.069.014l-4.984 2.915c-.028.014-.041.028-.028.042l.319.182ZM270.571 112.507h.042l2.118-1.233c.013 0 .013-.014 0-.028l-.319-.182h-.041l-2.118 1.233c-.014 0-.014.014 0 .028l.318.182ZM240.949 123.464c.153.085.471.056.706-.084l6.534-3.811c.236-.14.305-.322.139-.42l-4.319-2.522c-.153-.084-.485-.056-.706.084l-6.534 3.811c-.236.14-.305.322-.139.42l4.319 2.522ZM231.965 128.705c.152.084.47.056.706-.084l6.52-3.811c.235-.14.304-.322.152-.42l-4.319-2.523c-.152-.084-.485-.056-.706.084l-6.52 3.812c-.236.14-.291.322-.139.42l4.306 2.522ZM222.982 133.959c.153.085.471.057.706-.084l6.534-3.811c.236-.14.291-.322.139-.406l-4.319-2.522c-.153-.084-.471-.056-.706.084l-6.534 3.811c-.236.14-.291.322-.139.42l4.319 2.508ZM213.982 139.2c.153.084.471.056.706-.084l6.534-3.811c.236-.14.305-.323.139-.421l-4.319-2.522c-.153-.084-.471-.056-.706.084l-6.534 3.812c-.236.14-.291.322-.139.42l4.319 2.522ZM205 144.454c.152.084.47.056.706-.084l6.52-3.811c.235-.14.291-.322.138-.406l-4.319-2.522c-.152-.085-.47-.056-.706.084l-6.52 3.811c-.235.14-.304.322-.152.42l4.333 2.508ZM196.016 149.695c.152.084.47.056.706-.084l6.52-3.811c.235-.14.305-.323.138-.421l-4.319-2.522c-.152-.084-.47-.056-.706.084l-6.52 3.812c-.235.14-.304.322-.138.42l4.319 2.522ZM175.762 161.507c.152.084.471.056.706-.084l17.788-10.383c.236-.14.305-.322.139-.42l-4.319-2.522c-.152-.084-.471-.056-.706.084l-17.789 10.382c-.235.141-.304.323-.138.421l4.319 2.522ZM230.598 122.554c.152.098.47.056.706-.084l6.534-3.811c.235-.14.304-.323.138-.407l-4.333-2.522c-.152-.084-.47-.056-.706.084l-6.534 3.812c-.235.14-.29.322-.138.406l4.333 2.522ZM221.606 127.794c.152.098.47.056.706-.084l6.534-3.811c.235-.14.304-.322.138-.406l-4.333-2.522c-.152-.085-.471-.057-.706.084l-6.534 3.811c-.235.14-.291.322-.138.406l4.333 2.522ZM212.625 133.049c.152.098.47.056.706-.084l6.534-3.811c.235-.141.304-.323.152-.421l-4.333-2.522c-.152-.084-.484-.056-.706.084l-6.534 3.811c-.235.141-.304.323-.152.407l4.333 2.536ZM203.627 138.289c.153.098.471.056.706-.084l6.52-3.811c.236-.14.305-.322.139-.421l-4.333-2.522c-.152-.084-.471-.056-.706.084l-6.52 3.812c-.236.14-.305.322-.139.406l4.333 2.536ZM194.643 143.53c.152.098.471.056.706-.084l6.534-3.812c.235-.14.305-.322.138-.406l-4.333-2.522c-.152-.084-.47-.056-.706.084l-6.534 3.811c-.235.14-.304.323-.138.407l4.333 2.522ZM185.658 148.784c.152.098.471.056.706-.084l6.52-3.811c.236-.14.305-.322.153-.421l-4.333-2.522c-.153-.084-.471-.056-.706.084l-6.52 3.812c-.236.14-.291.322-.139.406l4.319 2.536ZM176.664 154.025c.152.098.471.056.706-.084l6.534-3.811c.236-.141.305-.323.139-.407l-4.333-2.522c-.153-.084-.471-.056-.706.084l-6.534 3.811c-.236.141-.291.323-.139.407l4.333 2.522ZM226.773 117.832c.152.098.471.056.706-.084l6.534-3.811c.236-.141.291-.323.139-.407l-4.319-2.522c-.153-.084-.471-.056-.706.084l-6.534 3.811c-.236.141-.305.323-.153.407l4.333 2.522ZM217.791 123.072c.152.099.471.057.706-.084l6.534-3.811c.235-.14.305-.322.138-.42l-4.319-2.522c-.152-.084-.47-.056-.706.084l-6.534 3.811c-.235.14-.29.322-.138.406l4.319 2.536ZM208.793 128.327c.152.098.47.056.706-.084l6.52-3.812c.235-.14.291-.322.138-.42l-4.319-2.522c-.152-.084-.47-.056-.706.084l-6.52 3.811c-.235.14-.304.323-.152.421l4.333 2.522ZM199.811 133.567c.152.098.47.056.706-.084l6.534-3.811c.235-.14.304-.322.138-.42l-4.319-2.522c-.152-.085-.471-.057-.706.084l-6.534 3.811c-.235.14-.291.322-.139.406l4.32 2.536ZM190.826 138.808c.152.098.471.056.706-.084l6.534-3.812c.235-.14.305-.322.139-.42l-4.32-2.522c-.152-.084-.47-.056-.706.084l-6.534 3.811c-.235.14-.29.322-.138.407l4.319 2.536ZM181.826 144.062c.152.098.47.056.72-.084l6.534-3.811c.235-.14.304-.322.138-.42l-4.319-2.523c-.152-.084-.471-.056-.706.084l-6.534 3.812c-.235.14-.305.322-.152.42l4.319 2.522ZM172.842 149.303c.152.098.47.056.706-.084l6.534-3.812c.235-.14.304-.322.138-.42l-4.319-2.522c-.152-.084-.471-.056-.706.084l-6.534 3.811c-.235.14-.291.322-.138.407l4.319 2.536ZM244.703 107.365c.152.098.471.056.706-.084l11.074-6.46c.236-.14.305-.322.139-.42l-4.319-2.522c-.152-.084-.471-.056-.706.084l-11.075 6.46c-.235.14-.304.322-.152.42l4.333 2.522ZM157.891 151.068c.152.098.47.056.706-.084l11.074-6.459c.236-.14.305-.323.139-.421l-4.319-2.522c-.153-.098-.485-.056-.706.084l-11.075 6.46c-.235.14-.304.322-.138.42l4.319 2.522ZM248.537 112.087c.152.098.471.056.706-.084l13.193-7.707c.235-.14.304-.322.138-.42l-4.333-2.522c-.152-.084-.47-.056-.706.084l-13.192 7.706c-.236.141-.305.323-.153.407l4.347 2.536ZM258.891 112.998c.152.084.47.056.706-.084l8.804-5.129c.235-.14.305-.322.139-.42l-4.32-2.522c-.152-.084-.47-.056-.706.084l-8.804 5.128c-.235.141-.304.323-.138.421l4.319 2.522ZM234.301 106.482c.152.098.471.056.706-.084l6.52-3.811c.235-.14.305-.322.139-.42l-4.32-2.523c-.152-.098-.47-.056-.706.084l-6.52 3.812c-.235.14-.304.322-.138.42l4.319 2.522ZM225.348 111.694c.152.099.471.057.706-.084l6.534-3.811c.235-.14.304-.322.138-.42l-4.319-2.522c-.152-.098-.47-.056-.706.084l-6.534 3.811c-.235.14-.304.322-.138.42l4.319 2.522ZM216.365 116.949c.152.098.471.056.706-.084l6.534-3.811c.236-.14.305-.322.139-.42l-4.319-2.522c-.153-.099-.471-.056-.706.084l-6.534 3.811c-.236.14-.291.322-.139.406l4.319 2.536ZM207.379 122.189c.152.098.471.056.706-.084l6.52-3.811c.236-.14.305-.322.139-.42l-4.319-2.522c-.153-.099-.471-.056-.706.084l-6.521 3.811c-.235.14-.304.322-.138.42l4.319 2.522ZM198.396 127.43c.153.098.471.056.706-.084l6.521-3.811c.235-.14.304-.323.138-.421l-4.319-2.522c-.152-.098-.471-.056-.706.084l-6.52 3.811c-.236.141-.291.323-.139.407l4.319 2.536ZM189.399 132.685c.152.098.47.056.706-.085l6.534-3.811c.235-.14.29-.322.138-.406l-4.319-2.522c-.152-.098-.471-.056-.706.084l-6.534 3.811c-.235.14-.305.322-.138.406l4.319 2.523ZM180.414 137.925c.153.098.471.056.706-.084l6.534-3.811c.236-.14.305-.323.139-.421l-4.319-2.522c-.153-.098-.471-.056-.706.084l-6.534 3.812c-.236.14-.305.322-.139.42l4.319 2.522ZM171.432 143.165c.152.098.47.056.706-.084l6.534-3.811c.235-.14.29-.322.138-.406l-4.319-2.522c-.152-.099-.471-.057-.706.084l-6.534 3.811c-.235.14-.291.322-.138.406l4.319 2.522ZM166.194 147.803a.849.849 0 0 1 .388-.126c.138-.014.249 0 .318.042l4.319 2.522c.069.042.111.112.083.196-.028.085-.111.155-.221.225l-1.703.995 5.676 3.32c.069.042.097.112.069.197-.028.084-.111.154-.222.224l-4.402 2.564a.903.903 0 0 1-.387.126.605.605 0 0 1-.333-.042l-10.285-6.011c-.069-.042-.097-.112-.069-.196.027-.084.11-.154.221-.225l6.548-3.811Z" fill="#849FDA"/><path d="M260.05 110.868c.014 0 .042 0 .07-.014l4.983-2.915c.028-.014.042-.028.028-.042l-.319-.182c-.013 0-.041 0-.069.014l-4.983 2.915c-.028.014-.042.028-.028.042l.318.182Z" fill="#849FDA"/><path d="m234.569 154.053 25.25-14.741c1.357-.798 1.274-2.046-.194-2.788l-8.444-4.246c-1.468-.742-3.779-.686-5.15.098l-25.25 14.741c-1.357.799-1.274 2.046.194 2.788l8.444 4.246c1.468.742 3.779.7 5.15-.098Z" fill="#9BB1E0"/><path opacity=".34" d="m190.531 84.567-18.91 11.56c-5.246 3.209-10.728.533-12.154-5.94l-1.827-8.212c-1.44-6.473 1.688-14.404 6.935-17.613l18.91-11.56c5.247-3.208 10.728-.532 12.154 5.941l1.828 8.211c1.425 6.474-1.689 14.405-6.936 17.613Z" fill="#E3CFCF"/><path d="m188.277 81.695-18.91 11.56c-5.246 3.209-10.728.532-12.154-5.941l-1.827-8.211c-1.44-6.474 1.689-14.404 6.935-17.613l18.91-11.56c5.247-3.209 10.729-.532 12.154 5.941l1.828 8.211c1.439 6.488-1.675 14.404-6.936 17.613Z" fill="#7FCBB4"/><path d="m173.367 80.336-2.547-11.448c-.208-.925.457-2.004 1.218-2.004l10.548.057c.845 0 1.136 1.317.499 2.227L175.07 80.56c-.582.827-1.495.7-1.703-.224Z" fill="#fff"/><path opacity=".34" d="m156.435 82.326-7.157 4.371c-4.25 2.606-6.783 9.024-5.62 14.264 1.162 5.241 5.592 7.413 9.856 4.82l7.157-4.371c.18-.112.36-.224.526-.351l-.055.07 4.72.379-1.523-3.882c1.883-3.054 2.714-7.02 1.952-10.48-1.163-5.255-5.592-7.413-9.856-4.82ZM198.426 42.77l-8.39 5.128c-3.363 2.06-5.357 7.132-4.443 11.28l.235 1.037c.928 4.147 4.43 5.856 7.794 3.81l8.389-5.128c3.364-2.06 5.357-7.132 4.444-11.28l-.236-1.036c-.927-4.162-4.443-5.871-7.793-3.811Z" fill="#E3CFCF"/><path d="m158.254 101.802-7.157 4.372c-4.25 2.606-8.694.434-9.856-4.82-1.163-5.24 1.356-11.672 5.62-14.264l7.157-4.372c4.25-2.606 8.693-.434 9.856 4.82 1.163 5.24-1.37 11.672-5.62 14.264Z" fill="#F37E60"/><path d="m158.727 101.522 4.72.378-1.523-3.881-3.197 3.503Z" fill="#FF9963"/><path d="M149.406 97.079c.298-.96-.01-1.913-.689-2.129-.678-.215-1.469.388-1.767 1.347-.298.96.01 1.913.688 2.129.679.216 1.47-.387 1.768-1.347ZM153.691 94.456c.298-.96-.01-1.913-.688-2.128-.679-.216-1.47.387-1.768 1.347-.298.96.01 1.913.689 2.128.678.216 1.469-.387 1.767-1.347ZM158.058 90.648c.194.883-.221 1.948-.941 2.383-.72.434-1.454.07-1.648-.813-.193-.883.222-1.948.942-2.382.72-.434 1.453-.07 1.647.813Z" fill="#fff"/><path d="m203.16 54.624-8.389 5.128c-3.364 2.06-6.866.337-7.794-3.81l-.235-1.038c-.927-4.147 1.08-9.22 4.444-11.28l8.389-5.128c3.364-2.06 6.866-.336 7.794 3.811l.235 1.037c.914 4.148-1.094 9.22-4.444 11.28Z" fill="#68CCEA"/><path d="m189.289 48.851 13.303-8.127M190.164 52.774l13.303-8.127M191.031 56.712l9.164-5.605" stroke="snow" stroke-width="2.428" stroke-miterlimit="10" stroke-linecap="round" stroke-linejoin="round"/><path opacity=".34" d="M101.799 157.225c1.069-8.837-9.957-17.476-24.627-19.296-14.671-1.819-27.431 3.871-28.5 12.709-1.07 8.837 9.955 17.476 24.626 19.295 14.671 1.82 27.431-3.87 28.501-12.708Z" fill="#5B78B7"/><path d="M71.468 167.883c13.742-.738 24.53-8.044 24.097-16.319-.433-8.274-11.925-14.384-25.667-13.646-13.742.737-24.53 8.043-24.097 16.318.433 8.275 11.925 14.384 25.667 13.647Z" fill="#5672B1"/><path d="M71.05 159.98c13.742-.738 24.53-8.044 24.097-16.318-.433-8.275-11.925-14.385-25.667-13.647-13.742.737-24.53 8.043-24.097 16.318.433 8.275 11.925 14.385 25.667 13.647Z" fill="#7B9DE5"/><path d="m74.749 132.938 3.221 7.627a1.57 1.57 0 0 1-.571 1.92l-9.198 6.048c-1 .658-2.325-.039-2.377-1.236l-.416-9.467a1.542 1.542 0 0 1 .701-1.368l6.38-4.194a1.527 1.527 0 0 1 2.26.67Z" fill="#7694D4"/><path d="m72.217 130.347-3.378-1.67-7.652 5.116-.961 10.585a1.714 1.714 0 0 0 .623 1.486l1.456 1.183c1.416 1.158 3.507.079 3.43-1.762l-.365-8.363 6.964-4.589c.753-.473.688-1.591-.117-1.986Z" fill="#5D7BBD"/><path d="M66.255 56.132 44.352 92.819l24.267 39.146" stroke="#5877B8" stroke-width="14.566" stroke-miterlimit="10" stroke-linecap="round" stroke-linejoin="round"/><path d="M60.221 53.239 37.824 93.713l26.139 41.408" stroke="#5877B8" stroke-width="14.566" stroke-miterlimit="10" stroke-linecap="round" stroke-linejoin="round"/><path d="M43.428 54.133 59.784 64.64c4.404 2.827 10.302 1.499 13.095-2.96l.286-.446c2.793-4.458 1.48-10.415-2.923-13.242L53.886 37.486c-4.404-2.827-10.302-1.5-13.095 2.959l-.286.447c-2.806 4.444-1.481 10.4 2.923 13.241Z" fill="#7694D4"/><path opacity=".68" d="m51.347 41.233 9.718 5.786c.48.29 1.117.119 1.403-.368a1.054 1.054 0 0 0-.364-1.42l-9.718-5.786a1.027 1.027 0 0 0-1.403.368 1.05 1.05 0 0 0 .364 1.42ZM46.273 44.902l9.717 5.786c.48.29 1.117.118 1.403-.368a1.054 1.054 0 0 0-.364-1.42l-9.717-5.786a1.027 1.027 0 0 0-1.403.368 1.05 1.05 0 0 0 .364 1.42ZM44.144 51.108l9.717 5.786c.481.29 1.118.119 1.403-.368a1.053 1.053 0 0 0-.363-1.42l-9.718-5.786a1.027 1.027 0 0 0-1.403.368 1.053 1.053 0 0 0 .364 1.42Z" fill="#B7CDFE"/><path d="M87.793 72.799c7.451-10.943 10.92-21.608 7.747-23.821-3.172-2.214-11.785 4.863-19.236 15.806-7.451 10.943-10.92 21.608-7.747 23.822 3.172 2.213 11.784-4.864 19.236-15.807Z" fill="#8EA8E0"/><path d="m66.228 86.757-5.665-6.575c-6.976-8.113-7.327-20.08-.831-28.574 5.95-7.797 16.226-10.77 25.359-7.363l8.431 3.156-27.294 39.356Z" fill="#88A5E5"/><path d="M85.77 71.208c7.45-10.943 10.92-21.608 7.747-23.822-3.173-2.213-11.785 4.864-19.236 15.807-7.452 10.943-10.92 21.608-7.748 23.821 3.173 2.214 11.785-4.863 19.236-15.806Z" fill="#5877B8"/><path d="M87.168 61.563c-.065 4.05-1.533 9.993-8.95 12.584-3.21 1.117-6.405-1.789-5.522-5.102 1.17-4.432 4.599-9.442 8.38-11.388 2.818-1.446 6.144.723 6.092 3.906Z" fill="#C7D8FB"/><path d="M74.278 63.206c7.457-10.94 16.07-18.028 19.24-15.819.598.408.948 1.118 1.104 2.078-4.04.881-10.873 7.22-16.927 16.121-6.054 8.903-9.484 17.608-8.847 21.736-.936.198-1.715.119-2.313-.302-3.183-2.21.3-12.873 7.743-23.814Z" fill="#B7CDFE"/><path d="m45.725 90.136-8.522 4.419c-1.013.526-1.364 1.827-.753 2.8l4.079 6.496c.377.592 1.13.789 1.74.461l8.666-4.774a1.433 1.433 0 0 0 .52-2.025l-4.378-6.982a1.007 1.007 0 0 0-1.352-.395Z" fill="#7B9DE5"/><path d="m37.749 94.265-1 .592a1.532 1.532 0 0 0-.507 2.144l4.248 6.758a1.4 1.4 0 0 0 1.857.487l1.624-.894-6.222-9.087Z" fill="#5D7BBD"/><path opacity=".34" d="m149.43 238.238-11.891 2.241 15.781-58.303 38.623 22.559c3.295 1.934 3.295 6.74 0 8.673l-42.513 24.83Z" fill="#A4A4A4"/><path d="m137.491 197.07 34.719 8.562 7.516 4.876 2.091 1.527c.263.196.429.505.443.841.027.476.041.883-.153 1.009l-43.896 26.538a.855.855 0 0 1-.457.112c-3.876 0-1.329-43.605-.263-43.465Z" fill="#A6603B"/><path d="m138.68 237.999 40.104-24.268c.54-.323.789-4.442.236-4.75l-57.685-32.956a.812.812 0 0 0-.817.014l-43.62 26.034a.82.82 0 0 0 .014 1.415l60.218 34.539a1.634 1.634 0 0 0 1.55-.028Z" fill="#A6603B"/><path d="m139.4 237.551 41.226-24.969c-2.16-3.881-2.022-6.964-.803-12.541l-39.246 24.773c-1.689 4.666-2.436 9.458-1.177 12.737Z" fill="snow"/><path d="m76.402 191.269 1.73-.014v.071l42.306-25.236a.81.81 0 0 1 .816-.014l59.734 34.133v-.364l1.121-.014.014 1.359h-.014a.821.821 0 0 1-.387.855l-43.62 26.034a.812.812 0 0 1-.817.014l-60.453-34.54a.8.8 0 0 1-.402-.658l-.028-1.626Z" fill="#C27750"/><path d="M137.489 206.515c.249-.155 43.495-6.32 43.495-6.32v-.364l1.122-.491.013 1.836h-.013a.823.823 0 0 1-.388.855l-43.62 26.034c-.125.07-1.454.981-1.606.981-.138-.014.997-22.531.997-22.531Z" fill="#A6603B"/><path d="m138.071 225.991 43.62-26.034a.82.82 0 0 0-.014-1.415l-60.218-34.414c-.25-.14-.928-.182-1.177-.042L76.8 190.022a.821.821 0 0 0 .014 1.416l60.454 34.539c.249.168.553.154.803.014Z" fill="#FFAC80"/><path d="m138.073 225.991 4.014-2.396-61.824-35.632-3.474 2.073a.821.821 0 0 0 .013 1.416l60.454 34.539c.263.154.567.14.817 0Z" fill="#FFB994"/><path d="M140.566 222.796 80.93 188.453" stroke="#C77347" stroke-width="2.428" stroke-miterlimit="10" stroke-linecap="round" stroke-linejoin="round"/><path d="M137.74 226.103c-1.98 6.74-1.191 12.204-.194 14.39l-61.035-34.679s-3.267-8.744-.194-14.895l61.423 35.184Z" fill="#E38B5D"/><path d="m102.049 189.798 23.423-13.675c1.26-.729 1.094-2.032-.36-2.873-1.453-.841-3.668-.939-4.928-.21l-23.423 13.676c-1.26.728-1.093 2.031.36 2.872 1.454.855 3.669.939 4.928.21ZM154.9 192.811c-.858-.504-2.187-.56-2.935-.126l-25.125 14.684c-.748.435-.651 1.205.207 1.71.859.504 2.188.56 2.935.126l25.139-14.685c.748-.434.651-1.205-.221-1.709ZM164.246 198.402c-.858-.504-2.187-.561-2.935-.126l-25.139 14.684c-.748.435-.651 1.205.207 1.71.859.504 2.188.56 2.935.126l25.139-14.685c.748-.434.651-1.205-.207-1.709Z" fill="#FFDCC9"/><path opacity=".34" d="M126.856 201.022c8.059 0 14.591-2.948 14.591-6.586 0-3.637-6.532-6.585-14.591-6.585-8.058 0-14.59 2.948-14.59 6.585 0 3.638 6.532 6.586 14.59 6.586Z" fill="#6E5487"/><path d="m131.424 171.695-6.16-2.522c-.332-.14-.651-.28-.969-.448a6.06 6.06 0 0 0-.9-.379c-.027-.014-.055-.014-.083-.028a7.05 7.05 0 0 0-.734-.196c-5.038-1.093-11.24-.504-14.576 5.17-3.087 5.255-1.579 11.855-1.579 11.855.997 5.268 5.593 10.999 6.064 11.195 0 0 2.713 2.088 4.734 2.76 1.121.379 3.198.785 5.717.925 6.964.407 10.023-4.988 12.016-8.967.789-1.598 6.687-15.442-3.53-19.365Z" fill="#E46681"/><path d="m131.549 171.681-6.161-2.508c-.332-.14-.65-.28-.969-.448a6.049 6.049 0 0 0-.899-.379c-.028-.014-.056-.014-.084-.028a7.1 7.1 0 0 0-.733-.196 19.18 19.18 0 0 0-3.004-.42l5.177 2.115c10.216 3.91 4.222 17.726 3.516 19.365-4.083 9.556-13.109 9.15-12.002 9.71 2.852 1.429 4.139.981 6.659 1.135 6.963.407 10.022-4.988 12.016-8.967.803-1.612 6.7-15.456-3.516-19.379Z" fill="#E3758C"/><path d="M123.052 174.427c-.872.505-2.284.505-3.157 0-.872-.504-.886-1.331-.013-1.849.872-.505 2.284-.505 3.156 0 .886.518.886 1.345.014 1.849Z" fill="#E3758C"/><path d="M121.514 173.264c-.027-.168-.526-4.217 2.575-6.039" stroke="#463757" stroke-width="3.757" stroke-miterlimit="10" stroke-linecap="round" stroke-linejoin="round"/><path d="M112.029 175.562a.713.713 0 0 1-.706.715.714.714 0 0 1-.706-.715c0-.392.319-.714.706-.714.402 0 .706.322.706.714ZM115.295 176.992a.713.713 0 0 1-.706.714.713.713 0 0 1-.706-.714c0-.393.318-.715.706-.715.387 0 .706.308.706.715ZM112.748 178.981a.713.713 0 0 1-.706.715.713.713 0 0 1-.706-.715c0-.392.318-.714.706-.714.388 0 .706.322.706.714ZM110.162 180.271a.713.713 0 0 1-.706.714.713.713 0 0 1-.706-.714c0-.393.318-.715.706-.715.388 0 .706.322.706.715ZM113.428 181.7a.713.713 0 0 1-.706.714.713.713 0 0 1-.706-.714c0-.393.318-.715.706-.715.387 0 .706.308.706.715Z" fill="#FA909C"/><path d="m141.445 229.522 37.502-22.979M141.82 232.787l37.502-22.98" stroke="#BFB1A8" stroke-width="2.428" stroke-miterlimit="10" stroke-linecap="round" stroke-linejoin="round"/><path opacity=".15" d="M234.416 151.819c1.809 0 3.718-.301 5.426.302h-1.608c2.01.502 4.019.904 5.727 1.909 1.508.804 2.814 1.909 4.02 3.014 6.43 5.728 11.153 13.062 17.684 18.488 4.622 3.818 10.047 7.436 16.076 7.436 4.924 0 9.646-2.512 12.66-6.33 4.019-5.225 5.125-12.56 10.249-16.78 2.813-2.211 6.33-3.115 9.445-4.924 2.411-1.306 4.622-3.818 4.019-6.43-.603-2.512-3.416-3.718-5.928-4.522-6.531-2.11-13.766-4.22-20.196-6.33-4.321-1.407-8.842-2.311-13.464-2.512-2.814-.201-5.627-.1-8.44-.502a47.496 47.496 0 0 1-5.125-1.206c-3.315-.904-6.631-2.11-9.847-3.416-1.406-.603-3.014-1.407-3.617-2.814-3.014-8.038 8.842-10.65 14.268-10.047 5.225.602 9.947 2.913 14.77 5.023 10.952 4.723 22.407 8.139 34.163 10.249 12.56 2.211 25.823 3.115 36.875 9.445 3.115 1.809 6.23 4.22 6.933 7.737 1.206 6.029-4.521 11.655-5.928 17.182-1.306 5.526-1.005 11.253-1.105 16.98-.101 5.728-.603 11.555-3.517 16.479-.301.603 2.369 18.168 1.967 18.67l-36.704 22.587c-1.206-.201-7.966-17.544-9.172-17.946-7.435-2.713-14.67-5.928-21.904-9.244-.402-.201-.703-.302-1.105-.503-8.038-3.717-14.57-7.937-19.694-15.272-7.234-10.249-12.861-21.904-22.507-29.842-3.316-2.713-7.234-5.125-9.043-8.943-.804-1.708-1.206-3.918-.201-5.526 1.005-1.608 3.014-2.412 4.823-2.412Z" fill="#9E9EA4"/><path d="M316.1 93.24c.201.403.301.905.502 1.307 2.613 6.129 6.833 11.555 11.756 16.177 1.407 1.306 2.814 2.512 4.622 2.914 2.412.603 5.225-.402 7.335.804.904.502 1.608 1.406 2.512 2.11.904.703 2.11 1.105 3.014.502.603-.402.905-1.005 1.407-1.507 1.608-1.608 4.321-.502 6.33.703l2.412 1.507c2.512 1.709 4.923 3.618 6.933 5.828 1.105 1.206 2.11 2.512 3.416 3.416 1.306.905 3.115 1.307 4.622.603.502-.301 1.005-.703 1.507-1.005a6.063 6.063 0 0 1 1.909-.602c.603-.101 1.306-.101 1.909-.201 3.416-.302 7.034-1.106 9.043-3.819l.904-1.507c.402-.603.704-1.306 1.307-1.708.803-.603 2.009-.804 2.914-1.407 1.708-1.306 2.913-3.114 3.717-5.224.905-2.512 2.288-4.215 3.434-7.089.531-1.334.627-1.806.627-2.509.302-4.924-.476-10.023-1.883-14.745-1.909-7.435-6.205-14.426-12.234-19.45-2.813-2.412-5.323-5.132-8.538-6.94-2.21-1.307-5.263-2.07-7.775-2.472-1.306-.2-2.245-.225-3.45-.627-3.015-.904-6.084-3.853-9.098-3.45-.804.1-2.333.411-3.137.512-2.613.402-3.963-1.402-6.274-2.709-2.713-1.507-7.236-1.511-9.246 1-.602.704-1.144 1.307-2.048 1.709-1.306.603-2.145-.302-3.451 0-1.005.2-2.237 1.306-3.041 1.909-1.708 1.205-4.019.803-5.727 1.808-1.809 1.105-3.216 4.32-4.321 6.029-4.622 8.34-5.325 19.191-1.909 28.134Z" fill="#3D3D3D"/><path d="M322.432 58.978c1.708-1.005 3.918 1.206 5.627 0 .803-.603 1.607-3.316 2.612-3.517 1.407-.301 2.813.703 4.12.201.904-.402 1.306-1.306 1.909-2.11 2.009-2.411 5.928-2.11 8.641-.603 2.311 1.306 4.622 3.316 7.234 2.914.804-.1 1.608-.502 2.412-.603 3.115-.402 5.626 2.412 8.54 3.316 1.206.301 2.512.301 3.818.603 2.512.402 4.823 1.708 7.034 3.014 3.215 1.91 6.33 3.818 9.244 6.13 6.029 5.023 10.349 11.956 12.459 19.492 1.306 4.722 2.211 9.646 1.909 14.569 0 .704-.201 1.407-.301 2.11 2.612-.803 4.823-2.813 6.229-5.124 1.709-2.813 2.311-6.13 2.412-9.445.502-9.947-3.316-19.995-10.148-27.23-1.608-1.708-3.417-3.215-4.924-5.023-2.21-2.512-3.818-5.527-6.129-7.938a22.673 22.673 0 0 0-6.23-4.421c-8.339-3.818-17.985-1.206-27.229-.804-2.613.1-5.325.1-7.938.804-1.808.502-3.517 1.507-5.426 2.11-2.21.703-4.521 1.005-6.531 2.01-1.306.602-2.512 1.507-3.717 2.31-1.909 1.407-3.919 2.814-5.024 4.823-.302.804-.603 1.608-.603 2.412Z" fill="#434343"/><path d="M345.847 127.604c2.814 1.206 5.326 2.914 7.235 5.326 1.909 2.411 2.813 5.727 2.009 8.641 1.005.201 2.01.502 3.015.603 2.411.401 4.923.301 7.435.1.804-.1 1.708-.1 2.512-.402 2.411-.804 3.617-3.316 5.325-4.923 1.005-1.005 2.311-1.407 3.718-1.708 1.005-.302 2.713-.503 3.517-1.206l.301-.302a15.061 15.061 0 0 1-2.311-2.11c-.301-.301-.603-.703-.904-1.004a22.16 22.16 0 0 1-3.015-4.522 6.09 6.09 0 0 0-1.909.603c-.502.301-1.004.703-1.507 1.005-1.407.703-3.215.301-4.622-.603-1.306-.904-2.311-2.211-3.416-3.416-2.01-2.211-4.421-4.12-6.933-5.828.402.904.804 1.909.804 2.813.1 1.708-.402 3.417-1.608 4.522-1.206 1.105-3.215 1.406-4.622.502-.1.704-.904 1.105-1.607 1.306-1.307.302-2.311.503-3.417.603Z" fill="#E4A387"/><path d="M328.966 196.834c1.607 2.813 4.32 5.023 7.234 6.531 2.813 1.406 5.928 2.512 7.837 5.024.302.401.503.703.704 1.105.402.804.703 1.507 1.004 2.311 1.106 2.813 2.311 5.627 3.417 8.339 1.306 3.316 2.713 6.632 2.813 10.249 0 1.005 0 2.211.603 3.015.603.803 1.507 1.105 2.512 1.406a38.06 38.06 0 0 0 16.478.904c5.225-.904 9.847-3.114 14.268-5.928 3.316-2.11 6.632-4.22 9.646-6.732 2.311-1.909 4.823-4.019 5.426-7.033.1-.302.1-.603.1-.904.101-1.91 0-4.12-.1-6.029-.201-2.512-.503-5.024-.503-7.636 0-3.015.603-5.527 1.307-8.34 1.507-6.029 2.009-12.962 1.406-19.091-.703-7.636-3.416-15.172-2.411-22.708.402-3.517 1.708-6.933 2.512-10.349.804-3.416 1.306-7.134.201-10.55-1.306-3.919-4.622-6.933-8.44-8.441-2.713-1.105-5.728-1.507-8.742-1.406-.301.502-.502 1.005-.904 1.507-2.01 2.713-5.727 3.617-9.043 3.818-.603.101-1.306.101-1.909.201.804 1.608 1.808 3.215 3.014 4.522a17.45 17.45 0 0 1 3.919 1.105c.803.402 1.708.804 2.21 1.607.603.704.804 1.809.402 2.613-.603 1.306-2.311 1.507-3.718 1.809-1.708.401-3.315 1.306-4.521 2.612-.904 1.005-1.708 2.21-2.713 3.115-1.909 1.708-4.823 1.808-7.234 1.808-3.115 0-6.13-.904-9.244-1.306-1.709-.301-3.417-.402-5.125.101-1.005.301-1.909.803-2.813 1.406a5.825 5.825 0 0 1-.503 1.407c-.502.703-1.306 1.005-1.909 1.608-.201.201-.301.301-.402.502-.401.603-.602 1.306-1.004 1.909-.503.804-1.307 1.507-1.909 2.412-.603.904-1.106 1.909-1.608 2.913 3.718-1.507 7.536-2.612 11.454-2.511 4.823.1 9.948 2.21 12.46 6.33 1.406 2.411 1.909 5.224 2.311 8.038.201 1.306.301 2.612.1 3.818-.201 1.306-.804 2.612-1.507 3.718-2.01 3.617-4.923 6.933-8.842 8.44-1.708.703-3.517 1.005-5.325 1.407-3.417.803-6.23 2.712-9.144 4.421-3.617 2.11-7.435 3.818-11.253 5.526-.704.402-1.608.904-2.512 1.407Z" fill="#E97084"/><path d="M296.512 203.365c1.306 3.114 2.914 6.43 5.928 7.937 1.306.704 2.713.905 4.22 1.106 2.814-1.909 5.527-3.819 8.34-5.728 1.407-1.004 2.914-2.009 4.321-3.114 3.114-2.311 6.33-4.723 9.746-6.732.904-.503 1.809-1.005 2.713-1.407 3.818-1.708 7.737-3.416 11.253-5.526 2.914-1.809 5.728-3.618 9.144-4.421 1.808-.402 3.617-.704 5.325-1.407 3.818-1.507 6.732-4.823 8.842-8.44.704-1.206 1.306-2.412 1.507-3.718.201-1.306.101-2.612-.1-3.818-.402-2.814-.804-5.627-2.311-8.038-2.512-4.12-7.536-6.33-12.459-6.33-3.919-.101-7.838 1.004-11.455 2.511-.502 1.005-1.105 2.01-1.808 2.814a17.08 17.08 0 0 1-3.115 2.914c-2.01 1.607-4.22 2.813-6.129 4.421-1.809 1.507-3.718 2.813-5.828 3.818-4.22 2.11-8.842 3.617-13.062 5.727-6.029 3.014-11.857 6.531-17.684 9.847 0 .201-.101.301-.101.502-1.507 5.728.503 11.656 2.713 17.082Z" fill="#FDE797"/><path d="M289.977 190.805c0 4.019.402 8.139 1.708 11.957.804 2.411 1.909 4.622 3.416 6.631.302.402.603.905 1.005 1.307.703.803 1.407 1.507 2.11 2.21 1.105 1.005 2.512 1.909 4.019 1.809 1.005-.101 2.01-.704 2.914-1.307.502-.301 1.005-.703 1.507-1.004-1.406-.101-2.914-.402-4.22-1.106-3.014-1.507-4.622-4.823-5.928-7.937-2.211-5.426-4.22-11.455-2.914-17.182 0-.201.101-.302.101-.502-.201.1-.503.301-.704.401-1.005.603-2.21 1.307-2.713 2.412-.1.1-.1.301-.1.402-.201.603-.201 1.306-.201 1.909Z" fill="#E97084"/><path d="M315.1 101.279c.602.804 1.507 1.407 2.411 1.909.703.402 1.507.804 2.01 1.507.602.905.2 2.311.2 3.316 0 1.306 0 2.613.201 3.818.302 2.01 1.005 3.919 2.311 5.426.201.201.402.502.603.804.503.804.302 1.909.704 2.813.402.905.803 2.01 1.607 2.713 1.005.905 2.412 1.306 3.718 1.708 1.005.302 2.01.503 3.014.704 1.909.402 3.818.603 5.728 1.004 2.712.603 5.526.905 8.239.603 1.105-.1 2.11-.301 3.115-.502.703-.201 1.507-.502 1.607-1.306 1.407.904 3.416.603 4.622-.503 1.206-1.105 1.809-2.914 1.608-4.521-.101-1.005-.402-1.909-.804-2.814l-2.411-1.507c-1.91-1.205-4.723-2.21-6.331-.703-.502.502-.803 1.206-1.406 1.507-.905.603-2.211.201-3.015-.502-.904-.704-1.607-1.608-2.512-2.11-2.21-1.206-4.923-.302-7.334-.804-1.809-.402-3.316-1.708-4.622-2.914-4.924-4.622-9.144-10.048-11.756-16.177-.402.603-.804 1.206-1.307 1.809-.401.602-.904 1.306-1.004 2.01-.201.803.201 1.908.804 2.712Z" fill="#EBAA8F"/><path d="M250.492 123.384c.1-1.909.1-3.717.201-5.627 0-.703.1-1.406.301-2.11.703-1.607 2.612-2.21 4.321-2.612 2.713-.703 5.526-1.407 8.44-1.206 1.708.101 3.316.503 4.923.905 2.512.602 5.024 1.205 7.536 2.11 3.517 1.306 6.933 3.114 10.45 4.32 7.937 2.814 16.579 2.713 24.717 4.019 6.833 1.106 13.665 2.211 20.498 2.713 1.909.402 3.818.603 5.727 1.005 2.713.603 5.526.904 8.239.603 2.814 1.206 5.326 2.914 7.235 5.325 1.909 2.412 2.813 5.727 2.009 8.641-.603-.1-1.105-.201-1.708-.201-1.608 0-3.316.603-4.019 2.11-.301.603-.402 1.307-.502 1.909a5.825 5.825 0 0 1-.503 1.407c-.502.703-1.306 1.005-1.909 1.608-.201.201-.301.301-.402.502-7.435-2.914-15.071-5.627-22.708-7.837-9.143-2.613-18.387-5.124-27.531-7.737-3.316-.904-6.631-1.909-10.148-1.708-2.01.1-3.919.603-5.928.703-5.627.402-11.153-1.909-16.78-1.808-2.311 0-4.823.301-6.531-1.106-.603-.502-1.407-1.306-2.11-1.004-.201.1-.302.201-.503.301-.301 0-.502-.201-.703-.301-1.005-.905-2.11-1.909-2.411-3.216-.302-.502-.201-1.105-.201-1.708Zm8.942 1.106c1.306-.402 2.713-.201 4.12-.101 1.406.101 2.914.101 4.119-.402-1.507-1.005-3.315-1.608-5.124-1.808-.402 0-.804-.101-1.206.1-.502.201-.804.703-1.205 1.005-.302.201-.603.301-.905.402-.502.1-1.005-.101-1.105-.603v-.402c-.101-.502-.703-.804-1.105-.502-.402.2-.503.803-.503 1.205-.1.704-.1 1.507-.201 2.211 1.106-.101 2.01-.804 3.115-1.105Z" fill="#F6B599"/><path d="M378.396 131.623c.703.804 1.507 1.407 2.311 2.11.804-1.105-1.105-1.808-2.311-2.11Z" fill="#9C2D33"/><path d="M348.759 145.389a9.237 9.237 0 0 1 2.813-1.407c1.608-.502 3.416-.301 5.124-.1 3.015.502 6.13 1.306 9.244 1.306 2.412 0 5.326-.101 7.235-1.809 1.005-.904 1.708-2.11 2.713-3.114 1.205-1.307 2.813-2.211 4.521-2.613 1.407-.301 3.115-.502 3.718-1.808.402-.804.201-1.809-.402-2.613-.603-.703-1.407-1.206-2.211-1.608-1.205-.602-2.612-.904-3.918-1.105.301.302.603.704.904 1.005 1.105.301 3.115 1.005 2.311 2.11-.1.1-.1.201-.301.301-.804.804-2.512 1.005-3.517 1.206-1.306.302-2.613.704-3.718 1.708-1.708 1.608-3.014 4.12-5.325 4.924-.804.301-1.708.402-2.512.402-2.512.201-5.024.402-7.435-.101-1.005-.201-2.01-.502-3.015-.603-.603-.1-1.105-.201-1.708-.201-1.608 0-3.316.603-4.019 2.11-.301.704-.301 1.407-.502 2.01Z" fill="#FDE797"/><path d="M230.498 154.834c.201 0 .503-.101.704 0 .301.1.401.603.502.904l.301 3.014c.101.704.201 1.407.503 1.91.301.602 1.005 1.004 1.607 1.004.603-.1 1.106-.603 1.307-1.205.201-.603.1-1.206.1-1.91 0-.2 0-.502.101-.602.2-.302.602-.101.904 0 3.014 1.708 4.823 5.325 7.938 6.732 1.205.502 2.512.803 3.717 1.306 1.507.603 2.713 1.708 3.818 2.813 1.709 1.708 2.412 3.919 3.417 5.928 1.507 3.115 3.315 6.13 5.124 9.144 4.823 8.038 10.349 15.674 16.378 22.808 1.507 1.809 3.115 3.618 5.225 4.622 2.21 1.005 4.823 1.005 7.234.402 2.01-.502 3.818-1.406 5.727-2.311-1.507-2.009-2.612-4.32-3.416-6.631-1.306-3.818-1.808-7.938-1.708-11.957 0-.603 0-1.306.201-1.909-.402.1-.904 0-1.306-.101-.804-.301-1.407-.803-2.01-1.406-6.43-6.029-12.057-12.761-17.784-19.493-.704-.904-1.407-1.708-2.211-2.613-.904-1.105-1.808-2.21-2.612-3.416-.101-.201-.302-.402-.302-.703 0-.302.101-.502.201-.804 1.306-3.316-.301-6.23-2.21-8.842-.603-.804-1.306-1.708-2.11-2.411-1.005-.804-2.211-1.307-3.316-1.91-3.818-1.909-7.134-4.923-10.952-6.933-.703-.401-1.507-.703-2.311-1.004-1.809-.503-4.019-.302-5.426.904l-1.206 1.206c-1.205 1.105-2.914 1.507-4.119 2.612-1.106 1.005-1.608 2.713-1.306 4.22.1.302.1.503.1.804 0 .301-.201.603-.402.904-.603.905-1.105 2.01-1.306 3.115 0 .804.1 1.708.904 1.809Z" fill="#F6B599"/><path d="m434 283.565-97.332-.182c.097-1.653.401-3.825.775-5.479l17.775-75.986c3.212-13.76 13.026-27.52 24.53-34.428L434 134.983v148.582Z" fill="#6683C2"/><path d="M434.001 282.426h-68.884l11.089-71.251c4.845-20.723 34.054-33.839 51.386-44.221l6.409-3.545v119.017Z" fill="#5B78B7"/><path d="M391.809 230.862s23.768 6.417 42.041 15.581v-12.148c-9.565-4.568-23.464-7.707-42.041-3.433ZM433.999 196.406c-6.936-10.691-13.483-18.523-13.483-18.089.152 11.602 4.153 24.311 9.095 35.66-10.438-10.032-27.202-21.186-48.701-18.818 0 0 31.341 12.835 53.075 31.976v-30.729h.014Z" fill="#7FCBB4"/><path d="M433.847 258.297v-14.082c-13.345-3.685-30.856-3.615-49.046 10.117 0-.014 26.247-.042 49.046 3.965Z" fill="#7FCBB4"/><path d="M86.015 202s-.36 10.775 2.436 16.128l7.157 4.063s-3.004-12.176-2.574-16.17L86.015 202Z" fill="snow"/></g><defs><clipPath id="b"><path fill="#fff" transform="translate(229.852 206.478)" d="M0 0h193.692v76.907H0z"/></clipPath></defs></svg>