<svg width="2227" height="232" fill="none" xmlns="http://www.w3.org/2000/svg"><path fill="#F2C45B" d="M2.782 0 2226.77 200.422l-2.783 30.875L0 30.875z"/><path d="M27.992 19.212c-1.254-.113-2.203-.509-2.849-1.188-.645-.69-.916-1.598-.815-2.725l.336-3.728 1.833.165-.317 3.521c-.065.712.094 1.273.474 1.682.393.4.982.635 1.768.706a5.28 5.28 0 0 0 1.6-.097 4.739 4.739 0 0 0 1.348-.521l.438 1.196a4.363 4.363 0 0 1-1.714.841 6.254 6.254 0 0 1-2.102.148Zm2.61 4.38 1.026-11.394 1.833.165-1.027 11.394-1.833-.165Zm12.514 1.128-7.84-.707 1.027-11.394 7.84.707-.14 1.562-6.008-.542-.746 8.27 6.008.542-.14 1.562Zm.148-5.031L37.4 19.16l.141-1.561 5.864.528-.14 1.562Zm3.835 5.39-1.832-.165 1.027-11.394 4.557.41c.786.071 1.464.277 2.033.617.57.33.997.765 1.28 1.305.295.53.412 1.135.35 1.814-.06.67-.283 1.244-.669 1.723-.375.48-.873.837-1.494 1.07-.62.223-1.323.299-2.109.228l-2.884-.26.14-1.561 2.885.26c.648.058 1.172-.056 1.573-.34.412-.296.643-.725.694-1.288.05-.563-.1-1.02-.454-1.374-.342-.363-.837-.573-1.486-.632l-2.724-.245-.887 9.832Zm16.462 1.483 1.027-11.394 1.832.166-1.026 11.393-1.833-.165Zm-5.848-.527-1.833-.165 1.027-11.394 1.832.165-1.026 11.394Zm.298-5.098.143-1.577 6.167.556-.143 1.577-6.167-.555Zm18.344 4.015-6.565-.592.14-1.561 6.566.591-.141 1.562Zm2.016 2.945-1.944-.175-2.99-10.503.606.055-4.82 9.799-1.88-.17 5.537-10.987 2.008.18 3.483 11.801Zm8.412.758.885-9.832-2.724-.246c-.66-.06-1.19.06-1.59.355-.401.285-.627.71-.678 1.272-.05.563.095 1.026.438 1.39.343.351.843.557 1.502.617l2.885.26-.141 1.561-2.885-.26c-.786-.07-1.47-.271-2.05-.602-.569-.34-.995-.78-1.278-1.32-.284-.54-.395-1.144-.335-1.814.061-.68.279-1.254.653-1.724.376-.48.873-.832 1.493-1.054.631-.232 1.34-.313 2.126-.242l4.558.41-1.027 11.394-1.832-.165Zm-7.474-.674 4.318-4.96 2.04.184-4.175 4.973-2.183-.197Zm15.258 1.375 1.027-11.393 9.465.853-1.026 11.394-1.833-.166.988-10.963.821 1.23-7.713-.695 1.092-1.058-.988 10.964-1.833-.165Zm18.795 1.694.886-9.832-2.725-.245c-.658-.06-1.188.059-1.59.354-.4.285-.626.71-.677 1.273-.051.563.095 1.026.437 1.388.343.353.844.559 1.503.618l2.884.26-.14 1.561-2.885-.26c-.786-.07-1.469-.271-2.05-.602-.569-.34-.995-.78-1.279-1.32-.283-.54-.395-1.144-.334-1.813.061-.68.279-1.255.653-1.725.375-.48.873-.831 1.493-1.054.631-.232 1.34-.313 2.126-.242l4.558.41-1.027 11.394-1.833-.165Zm-7.473-.673 4.318-4.96 2.04.183-4.175 4.974-2.183-.197Zm16.735 1.508-1.833-.165.899-9.976 1.833.165-.899 9.976Zm4.534-9.487-9.115-.822.142-1.577 9.115.821-.142 1.578Zm8.75 10.684 1.027-11.394 1.833.166-1.027 11.393-1.833-.165Zm-5.848-.527-1.832-.165 1.026-11.394 1.833.165-1.027 11.394Zm.299-5.098.142-1.577 6.167.556-.142 1.577-6.167-.556Zm10.24 6.048 1.027-11.394 1.833.165-.944 10.47-1.179-.107 7.891-9.843 1.976.178-1.027 11.394-1.832-.165.945-10.486 1.147.104-7.893 9.86-1.944-.176Zm12.419 1.119 1.026-11.394 1.833.165-.988 10.964-.885-1.236 7.665.69-1.027 1.064.988-10.963 1.832.165-1.026 11.394-9.418-.849Zm8.721 3.581.392-4.35 1.737.156-.392 4.35-1.737-.156Zm12.158-4.462-6.565-.592.141-1.562 6.565.592-.141 1.562Zm2.016 2.944-1.944-.175-2.99-10.503.606.055-4.819 9.799-1.88-.17 5.536-10.987 2.008.181 3.483 11.8ZM207.329 35.824l1.59 1.958c-.566.581-1.281 1.03-2.145 1.35-.854.319-1.775.434-2.763.345-.924-.084-1.75-.303-2.479-.657a5.97 5.97 0 0 1-1.848-1.42 5.59 5.59 0 0 1-1.089-1.994 6.364 6.364 0 0 1-.229-2.446 6.01 6.01 0 0 1 .676-2.333 5.64 5.64 0 0 1 1.461-1.78 5.932 5.932 0 0 1 2.087-1.05c.792-.228 1.644-.3 2.558-.218.988.089 1.863.366 2.624.83.772.466 1.385 1.036 1.838 1.708l-1.915 1.643a3.502 3.502 0 0 0-1.16-1.213 3.346 3.346 0 0 0-1.604-.562 3.278 3.278 0 0 0-1.763.307 3.179 3.179 0 0 0-1.291 1.137c-.334.505-.533 1.103-.595 1.793-.062.69.025 1.32.263 1.888a3.3 3.3 0 0 0 1.066 1.365 3.367 3.367 0 0 0 1.681.601 3.349 3.349 0 0 0 1.679-.266 3.72 3.72 0 0 0 1.358-.986Zm5.912 4.227-2.741-.247 1.027-11.394 2.741.247-1.027 11.394Zm8.398.757-3.57-.322-4.694-6.383.255.023 5.052-5.07 3.314.298-5.423 5.279.043-.479 5.023 6.654Zm1.435.13 1.027-11.394 2.741.247-.925 10.262-1.88-.17 7.458-9.673 2.868.258-1.026 11.394-2.741-.247.937-10.406 1.913.173-7.503 9.814-2.869-.258Zm12.556-.154.092-1.02.733.066c.297.027.555-.154.772-.54.218-.399.427-1.06.628-1.984l1.38-6.398 7.92.713-.876 9.72-2.709-.243.844-9.37 1.1 2.059-6.183-.557 2.47-1.738-1.407 6.348c-.164.745-.401 1.356-.712 1.831-.299.466-.677.801-1.135 1.006-.457.205-.989.28-1.594.226l-1.323-.12Zm-.763 4.011.457-5.067 12.493 1.126-.457 5.067-2.549-.23.367-4.079 1.317 1.436-10.024-.903 1.287-.912-.341 3.792-2.55-.23Zm17.31-1.235-2.741-.247 1.027-11.394 2.741.247-1.027 11.394Zm8.398.757-3.57-.322-4.694-6.383.255.023 5.052-5.07 3.314.298-5.423 5.278.043-.478 5.023 6.654Zm1.435.13 1.027-11.395 2.741.248-.925 10.262-1.88-.17 7.458-9.673 2.868.258-1.026 11.394-2.741-.247.937-10.406 1.913.173-7.503 9.814-2.869-.259Zm15.668.126.092-1.02.733.066c.298.027.555-.153.772-.54.218-.399.427-1.06.629-1.984l1.379-6.398 7.92.714-.876 9.72-2.709-.244.845-9.37 1.099 2.059-6.183-.557 2.47-1.737-1.407 6.347c-.164.745-.401 1.356-.711 1.831-.299.466-.678.801-1.135 1.007-.458.205-.989.28-1.595.225l-1.323-.119Zm-.763 4.012.457-5.068 12.493 1.126-.456 5.068-2.55-.23.368-4.08 1.316 1.436-10.023-.903 1.287-.912-.342 3.793-2.55-.23Zm19.908-.744c-.903-.082-1.718-.305-2.445-.67a6.133 6.133 0 0 1-1.864-1.422 5.675 5.675 0 0 1-1.122-1.996 6.341 6.341 0 0 1-.231-2.43c.078-.861.298-1.64.661-2.335a5.681 5.681 0 0 1 1.46-1.764 6.143 6.143 0 0 1 2.088-1.065c.781-.23 1.623-.303 2.526-.222.903.081 1.718.305 2.446.67a5.97 5.97 0 0 1 1.848 1.42 5.38 5.38 0 0 1 1.121 1.996c.243.75.326 1.556.248 2.416a6.124 6.124 0 0 1-.677 2.35 5.39 5.39 0 0 1-1.461 1.763c-.6.482-1.291.837-2.072 1.066-.781.23-1.623.304-2.526.223Zm.217-2.407c.659.06 1.246-.037 1.761-.29a3.18 3.18 0 0 0 1.277-1.155c.336-.516.535-1.119.597-1.81.062-.69-.026-1.314-.265-1.87a3.075 3.075 0 0 0-1.051-1.349c-.461-.352-1.021-.557-1.68-.617-.648-.058-1.235.044-1.763.307a3.179 3.179 0 0 0-1.291 1.137c-.324.506-.517 1.105-.579 1.795-.062.69.02 1.32.247 1.886a3.3 3.3 0 0 0 1.066 1.365c.473.343 1.033.543 1.681.601Zm19.946-7.52-.196 2.167-5.994 8.762-2.932-.264 6.17-8.746-5.658-.51.196-2.167 8.414.758Zm4.541 12.153c-.999-.09-1.838-.396-2.52-.918-.669-.532-1.156-1.255-1.459-2.172-.302-.926-.396-2.022-.282-3.286.173-1.913.73-3.346 1.673-4.3.943-.953 2.163-1.363 3.661-1.228 1.498.135 2.625.756 3.382 1.863.757 1.107 1.05 2.617.877 4.53-.114 1.264-.402 2.325-.865 3.183-.462.847-1.075 1.472-1.84 1.874-.752.393-1.628.544-2.627.454Zm.198-2.2c.638.058 1.159-.205 1.566-.79.417-.594.683-1.518.796-2.772.114-1.264.018-2.22-.288-2.869-.294-.658-.76-1.016-1.397-1.074-.638-.057-1.165.211-1.583.805-.406.585-.666 1.51-.78 2.774-.113 1.253-.022 2.21.272 2.868.305.648.777 1.001 1.414 1.059Zm8.911 2.764-2.63-.237 9.25-10.653 2.629.237-9.249 10.653Zm6.37.799a2.8 2.8 0 0 1-1.385-.495 2.69 2.69 0 0 1-.914-1.094 2.836 2.836 0 0 1-.237-1.467c.047-.52.211-.977.493-1.37a2.685 2.685 0 0 1 1.094-.913 2.806 2.806 0 0 1 1.451-.239 2.753 2.753 0 0 1 2.299 1.589c.207.436.287.92.239 1.451-.047.52-.212.983-.495 1.386a2.684 2.684 0 0 1-1.094.913c-.436.207-.92.287-1.451.239Zm.165-1.833c.244.022.46-.05.646-.215.187-.176.293-.396.317-.662a.946.946 0 0 0-.195-.692.804.804 0 0 0-.596-.343.804.804 0 0 0-.647.23.944.944 0 0 0-.315.647.999.999 0 0 0 .193.708.825.825 0 0 0 .597.327Zm-6.788-5.078a2.807 2.807 0 0 1-1.385-.494 2.687 2.687 0 0 1-.913-1.094 2.836 2.836 0 0 1-.238-1.467c.047-.521.212-.977.493-1.37a2.694 2.694 0 0 1 1.095-.913c.447-.206.93-.286 1.451-.239.531.048.993.213 1.385.494a2.748 2.748 0 0 1 1.152 2.546c-.047.52-.211.982-.494 1.385a2.754 2.754 0 0 1-2.546 1.152Zm.165-1.832c.245.022.46-.05.646-.215a.998.998 0 0 0 .317-.662.942.942 0 0 0-.195-.693.802.802 0 0 0-.595-.342.806.806 0 0 0-.648.23.944.944 0 0 0-.315.647c-.024.265.041.501.193.708a.826.826 0 0 0 .597.327ZM365.624 49.639c-1.254-.113-2.204-.51-2.849-1.189-.645-.69-.916-1.598-.815-2.724l.336-3.728 1.833.165-.318 3.521c-.064.712.095 1.273.475 1.682.393.4.982.635 1.768.705a5.275 5.275 0 0 0 1.599-.096 4.721 4.721 0 0 0 1.348-.522l.439 1.197a4.366 4.366 0 0 1-1.715.841 6.25 6.25 0 0 1-2.101.148Zm2.609 4.38 1.027-11.394 1.832.165-1.026 11.394-1.833-.165Zm12.515 1.128-7.84-.707 1.027-11.394 7.84.707-.141 1.562-6.007-.542-.746 8.27 6.008.542-.141 1.562Zm.148-5.031-5.864-.529.141-1.561 5.864.528-.141 1.562Zm3.835 5.39-1.832-.165 1.026-11.394 4.558.41c.786.071 1.464.277 2.033.617.57.33.997.765 1.28 1.305.295.53.412 1.134.35 1.814-.06.67-.283 1.244-.669 1.723-.375.48-.873.837-1.494 1.07-.62.223-1.323.299-2.109.228l-2.884-.26.141-1.562 2.884.26c.648.059 1.172-.055 1.573-.34.412-.295.643-.724.694-1.287.051-.563-.101-1.02-.454-1.374-.343-.363-.838-.574-1.486-.632l-2.725-.245-.886 9.832Zm16.462 1.483 1.027-11.394 1.832.166-1.027 11.393-1.832-.165Zm-5.849-.527-1.832-.165 1.027-11.394 1.832.165-1.027 11.394Zm.299-5.098.142-1.577 6.167.556-.142 1.577-6.167-.556Zm18.344 4.015-6.566-.592.141-1.561 6.566.591-.141 1.562Zm2.016 2.945-1.944-.175-2.99-10.503.606.054-4.819 9.8-1.881-.17 5.537-10.987 2.008.18 3.483 11.8Zm8.411.758.886-9.832-2.725-.246c-.658-.06-1.188.059-1.59.355-.4.285-.626.71-.677 1.272-.051.563.095 1.026.437 1.39.343.351.844.557 1.503.616l2.884.26-.14 1.562-2.885-.26c-.786-.07-1.469-.272-2.05-.602-.569-.34-.995-.78-1.279-1.32-.283-.54-.395-1.145-.334-1.814.061-.68.279-1.255.653-1.724.375-.48.873-.832 1.493-1.054.631-.233 1.34-.313 2.126-.242l4.558.41-1.027 11.394-1.833-.165Zm-7.473-.674 4.318-4.96 2.04.184-4.175 4.973-2.183-.197Zm15.258 1.375 1.027-11.393 9.465.853-1.026 11.393-1.833-.165.988-10.963.821 1.23-7.713-.695 1.091-1.058-.988 10.964-1.832-.166Zm18.795 1.694.886-9.832-2.725-.245c-.658-.06-1.189.058-1.59.354-.401.285-.626.71-.677 1.273-.051.563.095 1.026.437 1.388.343.353.844.558 1.503.618l2.884.26-.141 1.561-2.884-.26c-.786-.07-1.47-.271-2.05-.602-.569-.34-.995-.78-1.279-1.32-.283-.54-.395-1.144-.334-1.813.061-.68.279-1.255.653-1.725.375-.48.873-.831 1.493-1.054.631-.232 1.34-.313 2.126-.242l4.557.41-1.026 11.394-1.833-.165Zm-7.474-.673 4.319-4.96 2.04.183L445.704 61l-2.184-.196Zm16.736 1.508-1.833-.165.899-9.976 1.833.165-.899 9.976Zm4.534-9.487-9.116-.822.143-1.578 9.115.822-.142 1.578Zm8.75 10.684 1.027-11.394 1.833.165-1.027 11.394-1.833-.165Zm-5.848-.527-1.833-.165 1.027-11.394 1.833.165-1.027 11.394Zm.299-5.098.142-1.577 6.167.555-.142 1.578-6.167-.556Zm10.24 6.048 1.027-11.394 1.832.165-.943 10.47-1.179-.107 7.891-9.843 1.976.178-1.027 11.394-1.832-.165.945-10.486 1.147.104-7.893 9.859-1.944-.175Zm12.419 1.119 1.026-11.394 1.833.165-.988 10.964-.885-1.237 7.665.691-1.027 1.064.988-10.963 1.832.165-1.027 11.394-9.417-.85Zm8.721 3.581.392-4.35 1.737.156-.392 4.35-1.737-.156Zm12.158-4.463-6.565-.591.14-1.562 6.566.592-.141 1.561Zm2.016 2.945-1.944-.175-2.99-10.503.606.055-4.819 9.799-1.88-.17 5.536-10.987 2.008.18 3.483 11.801ZM539.917 65.346c-1.253-.113-2.203-.51-2.849-1.188-.644-.69-.916-1.598-.814-2.724l.336-3.73 1.832.166-.317 3.521c-.064.712.094 1.273.475 1.682.392.4.982.635 1.768.705a5.279 5.279 0 0 0 1.599-.096 4.733 4.733 0 0 0 1.348-.522l.438 1.197a4.353 4.353 0 0 1-1.714.841 6.254 6.254 0 0 1-2.102.148Zm2.61 4.38 1.026-11.394 1.833.165-1.027 11.394-1.832-.165Zm12.515 1.128-7.841-.707 1.027-11.394 7.841.707-.141 1.562-6.008-.542-.745 8.27 6.007.542-.14 1.562Zm.148-5.031-5.864-.529.14-1.561 5.865.528-.141 1.562Zm3.835 5.39-1.833-.165 1.027-11.394 4.558.41c.786.071 1.463.277 2.032.617.57.33.997.765 1.281 1.305.294.53.411 1.135.35 1.814-.06.67-.283 1.244-.669 1.723-.376.48-.874.837-1.494 1.07-.62.223-1.323.299-2.109.228l-2.885-.26.141-1.562 2.884.26c.648.059 1.173-.055 1.573-.34.412-.295.644-.724.695-1.287.05-.563-.101-1.02-.455-1.374-.342-.363-.837-.573-1.485-.632l-2.725-.245-.886 9.832Zm16.461 1.483 1.027-11.394 1.833.166-1.027 11.393-1.833-.165Zm-5.848-.527-1.833-.165 1.027-11.394 1.833.165-1.027 11.394Zm.299-5.098.142-1.577 6.167.556-.142 1.577-6.167-.556Zm18.343 4.015-6.565-.592.141-1.561 6.565.591-.141 1.562Zm2.016 2.945-1.944-.175-2.989-10.503.605.054-4.819 9.8-1.88-.17 5.536-10.987 2.008.18 3.483 11.8Zm8.412.758.886-9.832-2.725-.246c-.659-.06-1.189.06-1.59.355-.401.285-.626.71-.677 1.272-.051.563.095 1.026.437 1.39.343.351.844.557 1.503.617l2.884.26-.141 1.561-2.884-.26c-.786-.07-1.47-.272-2.05-.602-.569-.34-.996-.78-1.279-1.32-.283-.54-.395-1.144-.335-1.814.062-.68.279-1.254.654-1.724.375-.48.873-.832 1.492-1.054.632-.233 1.341-.313 2.127-.242l4.557.41-1.027 11.394-1.832-.165Zm-7.474-.674 4.319-4.96 2.04.184-4.176 4.973-2.183-.197Zm15.258 1.375 1.027-11.393 9.466.853-1.027 11.394-1.832-.166.988-10.963.82 1.23-7.712-.695 1.091-1.058-.988 10.964-1.833-.166Zm18.796 1.694.886-9.832-2.725-.246c-.659-.059-1.189.06-1.59.355-.401.285-.627.71-.677 1.273-.051.563.095 1.026.437 1.388.343.353.844.558 1.502.618l2.885.26-.141 1.561-2.884-.26c-.787-.07-1.47-.271-2.051-.602-.569-.34-.995-.78-1.278-1.32-.284-.54-.395-1.144-.335-1.813.061-.68.279-1.255.654-1.725.375-.48.872-.831 1.492-1.054.632-.232 1.34-.313 2.127-.242l4.557.41-1.027 11.394-1.832-.165Zm-7.474-.673 4.319-4.96 2.039.183-4.175 4.974-2.183-.197Zm16.735 1.508-1.832-.165.899-9.976 1.832.165-.899 9.976Zm4.534-9.488-9.115-.82.142-1.579 9.115.822-.142 1.578Zm8.751 10.685 1.027-11.394 1.832.165-1.027 11.394-1.832-.165Zm-5.849-.527-1.832-.165 1.027-11.394 1.832.165-1.027 11.394Zm.299-5.098.142-1.577 6.167.555-.142 1.578-6.167-.556Zm10.241 6.048 1.026-11.394 1.833.165-.943 10.47-1.18-.107 7.892-9.843 1.976.178-1.027 11.394-1.833-.165.945-10.486 1.148.104-7.893 9.859-1.944-.175Zm12.418 1.119 1.027-11.394 1.832.165-.988 10.964-.884-1.237 7.665.691-1.028 1.064.988-10.963 1.833.165-1.027 11.394-9.418-.85Zm8.722 3.581.392-4.35 1.737.156-.392 4.35-1.737-.156Zm12.158-4.463-6.566-.591.141-1.562 6.565.592-.14 1.561Zm2.015 2.945-1.944-.175-2.989-10.503.605.055-4.819 9.799-1.88-.17 5.537-10.987 2.007.181 3.483 11.8ZM719.254 81.957l1.591 1.96c-.567.58-1.282 1.03-2.146 1.348-.853.32-1.774.434-2.762.345-.924-.083-1.751-.302-2.479-.657a5.947 5.947 0 0 1-1.848-1.42 5.608 5.608 0 0 1-1.09-1.993 6.384 6.384 0 0 1-.229-2.447c.078-.86.303-1.638.676-2.332a5.644 5.644 0 0 1 1.462-1.78 5.926 5.926 0 0 1 2.086-1.05c.792-.228 1.645-.3 2.558-.219.988.09 1.863.366 2.624.831.772.466 1.385 1.035 1.839 1.708l-1.916 1.643a3.5 3.5 0 0 0-1.159-1.213 3.354 3.354 0 0 0-1.604-.562 3.276 3.276 0 0 0-1.763.307 3.173 3.173 0 0 0-1.291 1.136c-.335.506-.534 1.104-.596 1.794-.062.69.026 1.32.264 1.887a3.292 3.292 0 0 0 1.066 1.366 3.363 3.363 0 0 0 1.68.6 3.349 3.349 0 0 0 1.679-.266c.535-.23.988-.558 1.358-.986Zm5.912 4.228-2.74-.247 1.026-11.394 2.741.247-1.027 11.394Zm8.398.757-3.569-.322-4.694-6.383.255.023 5.051-5.07 3.315.298-5.424 5.278.043-.478 5.023 6.654Zm1.436.13 1.026-11.395 2.741.247-.925 10.263-1.88-.17 7.458-9.673 2.869.258-1.027 11.394-2.741-.247.938-10.406 1.912.173-7.503 9.814L735 87.07Zm12.555-.154.092-1.02.733.066c.298.027.555-.154.772-.541.218-.398.427-1.06.629-1.984l1.379-6.398 7.92.714-.876 9.72-2.709-.243.845-9.37 1.099 2.059-6.183-.558 2.47-1.737-1.407 6.347c-.164.746-.401 1.356-.711 1.832-.299.465-.678.8-1.135 1.006-.458.205-.989.28-1.595.226l-1.323-.12Zm-.763 4.011.457-5.067 12.493 1.126-.456 5.067-2.55-.23.368-4.08 1.316 1.437-10.023-.903 1.287-.913-.342 3.793-2.55-.23Zm17.31-1.235-2.74-.247 1.026-11.394 2.741.247-1.027 11.394Zm8.398.757-3.569-.322-4.694-6.383.255.023 5.051-5.071 3.315.299-5.424 5.278.043-.478 5.023 6.654Zm1.436.13 1.026-11.395 2.741.247-.925 10.263-1.88-.17 7.458-9.673 2.869.258-1.027 11.394-2.741-.247.938-10.406 1.912.172-7.503 9.815-2.868-.259Zm15.668.126.092-1.02.733.066c.297.027.554-.153.771-.54.218-.399.428-1.06.629-1.984l1.38-6.398 7.92.713-.876 9.721-2.709-.244.844-9.37 1.1 2.059-6.183-.557 2.47-1.738-1.408 6.348c-.163.745-.4 1.356-.711 1.831-.299.466-.677.801-1.135 1.006-.457.205-.989.28-1.595.226l-1.322-.12Zm-.763 4.012.456-5.068 12.494 1.126-.457 5.067-2.55-.23.368-4.079 1.316 1.436-10.023-.903 1.287-.912-.342 3.792-2.549-.23Zm19.908-.745c-.903-.08-1.719-.304-2.446-.67a6.133 6.133 0 0 1-1.864-1.42 5.673 5.673 0 0 1-1.121-1.998 6.302 6.302 0 0 1-.231-2.43c.077-.86.297-1.639.66-2.334a5.682 5.682 0 0 1 1.46-1.764 6.143 6.143 0 0 1 2.088-1.065c.781-.23 1.623-.304 2.526-.222.903.081 1.719.305 2.446.67a5.944 5.944 0 0 1 1.848 1.42 5.38 5.38 0 0 1 1.121 1.996c.243.75.326 1.556.249 2.416a6.143 6.143 0 0 1-.678 2.349 5.375 5.375 0 0 1-1.46 1.764c-.6.481-1.291.837-2.072 1.066-.781.23-1.623.304-2.526.222Zm.216-2.406c.659.06 1.246-.037 1.762-.29a3.176 3.176 0 0 0 1.276-1.155c.336-.516.535-1.12.597-1.81.063-.69-.026-1.314-.265-1.871a3.067 3.067 0 0 0-1.051-1.348c-.461-.352-1.021-.558-1.679-.617-.648-.059-1.236.044-1.763.307a3.173 3.173 0 0 0-1.291 1.137c-.324.506-.518 1.104-.58 1.795-.062.69.021 1.319.248 1.886a3.292 3.292 0 0 0 1.066 1.365c.472.342 1.032.543 1.68.601Zm19.946-7.52-.195 2.167-5.995 8.762-2.932-.265 6.17-8.745-5.657-.51.195-2.167 8.414.758Zm4.542 12.153c-.999-.09-1.839-.396-2.52-.918-.67-.532-1.156-1.256-1.459-2.172-.302-.927-.396-2.022-.282-3.286.172-1.913.729-3.346 1.672-4.3.943-.954 2.163-1.363 3.661-1.228 1.498.135 2.626.756 3.383 1.863.757 1.107 1.049 2.617.877 4.53-.114 1.263-.403 2.324-.865 3.182-.462.848-1.076 1.472-1.84 1.875-.753.392-1.629.544-2.627.454Zm.198-2.2c.637.058 1.159-.206 1.565-.79.418-.594.683-1.518.796-2.772.114-1.264.018-2.22-.288-2.87-.294-.658-.759-1.016-1.397-1.073-.637-.057-1.165.211-1.583.805-.406.585-.666 1.51-.78 2.773-.113 1.254-.022 2.21.272 2.868.306.65.777 1.002 1.415 1.06Zm8.91 2.763-2.629-.236 9.249-10.653 2.63.237-9.25 10.653Zm6.37.8a2.807 2.807 0 0 1-1.385-.495 2.688 2.688 0 0 1-.913-1.094 2.826 2.826 0 0 1-.238-1.467c.047-.521.211-.977.493-1.37a2.693 2.693 0 0 1 1.095-.913c.446-.206.93-.286 1.451-.239a2.75 2.75 0 0 1 2.537 3.04c-.047.52-.211.982-.494 1.385a2.692 2.692 0 0 1-1.095.914c-.436.207-.92.286-1.451.239Zm.165-1.833c.245.022.46-.05.646-.215.187-.176.293-.397.317-.662a.942.942 0 0 0-.195-.692.802.802 0 0 0-.595-.343.806.806 0 0 0-.648.23.944.944 0 0 0-.315.647c-.024.265.041.502.193.708a.826.826 0 0 0 .597.327Zm-6.787-5.078a2.807 2.807 0 0 1-1.386-.494 2.696 2.696 0 0 1-.913-1.095 2.836 2.836 0 0 1-.237-1.467c.047-.52.211-.977.493-1.369a2.685 2.685 0 0 1 1.094-.913 2.806 2.806 0 0 1 1.451-.24 2.757 2.757 0 0 1 2.299 1.59c.207.436.287.92.239 1.45-.047.521-.212.983-.495 1.386a2.684 2.684 0 0 1-1.094.913c-.436.207-.92.287-1.451.24Zm.165-1.832a.826.826 0 0 0 .646-.215.996.996 0 0 0 .316-.662.941.941 0 0 0-.194-.693.804.804 0 0 0-.596-.343.804.804 0 0 0-.647.231.94.94 0 0 0-.315.647.999.999 0 0 0 .193.708.822.822 0 0 0 .597.327ZM877.549 95.773c-1.254-.113-2.203-.51-2.849-1.189-.645-.69-.916-1.598-.815-2.724l.336-3.729 1.833.165-.317 3.522c-.065.712.094 1.273.475 1.682.392.4.981.634 1.767.705a5.284 5.284 0 0 0 1.6-.097 4.745 4.745 0 0 0 1.348-.52l.438 1.195a4.362 4.362 0 0 1-1.714.842 6.258 6.258 0 0 1-2.102.148Zm2.609 4.38 1.027-11.394 1.833.165-1.027 11.394-1.833-.165Zm12.515 1.128-7.84-.707 1.027-11.394 7.84.707-.141 1.561-6.007-.541-.745 8.27 6.007.542-.141 1.562Zm.149-5.032-5.865-.528.141-1.562 5.864.529-.14 1.561Zm3.835 5.391-1.833-.166 1.027-11.394 4.557.411c.786.071 1.464.277 2.033.617.57.33.997.765 1.28 1.304.295.53.412 1.135.351 1.815-.061.67-.284 1.244-.67 1.723-.375.48-.873.837-1.494 1.07-.619.223-1.322.299-2.109.228l-2.884-.26.141-1.562 2.884.26c.648.059 1.172-.055 1.573-.34.412-.295.644-.724.694-1.287.051-.563-.1-1.021-.454-1.374-.342-.363-.837-.574-1.485-.632l-2.725-.246-.886 9.833Zm16.461 1.483 1.027-11.394 1.832.165-1.026 11.394-1.833-.165Zm-5.848-.527-1.833-.165 1.027-11.394 1.833.165-1.027 11.394Zm.299-5.098.142-1.577 6.167.555-.142 1.578-6.167-.556Zm18.343 4.015-6.565-.592.14-1.562 6.566.592-.141 1.562Zm2.016 2.945-1.944-.176-2.99-10.502.606.054-4.819 9.799-1.88-.169 5.536-10.988 2.008.181 3.483 11.801Zm8.412.758.886-9.832-2.725-.246c-.659-.06-1.189.059-1.591.355-.4.285-.626.709-.676 1.272-.051.563.094 1.026.437 1.389.343.352.844.558 1.502.617l2.885.26-.141 1.562-2.884-.26c-.787-.071-1.47-.272-2.051-.603-.569-.34-.995-.78-1.278-1.32-.284-.54-.395-1.144-.335-1.813.061-.68.279-1.255.653-1.724.376-.48.873-.832 1.493-1.055.632-.232 1.34-.313 2.126-.242l4.558.411-1.027 11.394-1.832-.165Zm-7.474-.674 4.319-4.96 2.039.184-4.175 4.973-2.183-.197Zm15.258 1.375 1.027-11.394 9.466.853-1.027 11.394-1.833-.165.988-10.964.821 1.231-7.713-.695 1.092-1.058-.988 10.963-1.833-.165Zm18.795 1.694.886-9.832-2.725-.246c-.658-.06-1.188.06-1.59.355-.4.285-.626.71-.677 1.272-.05.563.095 1.026.437 1.389.344.352.844.558 1.503.618l2.884.259-.14 1.562-2.885-.26c-.786-.071-1.469-.271-2.05-.602-.569-.341-.995-.781-1.279-1.32-.283-.54-.394-1.144-.334-1.814.061-.68.279-1.254.653-1.724.376-.48.873-.832 1.493-1.054.631-.233 1.34-.313 2.126-.242l4.558.41-1.027 11.394-1.833-.165Zm-7.473-.674 4.318-4.96 2.04.184-4.175 4.973-2.183-.197Zm16.735 1.509-1.833-.166.899-9.975 1.833.165-.899 9.976Zm4.534-9.488-9.115-.821.142-1.578 9.115.822-.142 1.577Zm8.751 10.685 1.026-11.394 1.833.165-1.027 11.394-1.832-.165Zm-5.849-.527-1.832-.165 1.026-11.394 1.833.165-1.027 11.394Zm.299-5.098.142-1.578 6.167.556-.142 1.578-6.167-.556Zm10.24 6.048 1.027-11.394 1.833.165-.944 10.469-1.179-.106 7.891-9.843 1.976.178-1.026 11.394-1.833-.166.945-10.485 1.147.103-7.893 9.86-1.944-.175Zm12.414 1.119 1.03-11.394 1.83.165-.98 10.964-.89-1.237 7.67.691-1.03 1.064.99-10.964 1.83.166-1.03 11.393-9.42-.848Zm8.73 3.581.39-4.35 1.74.156-.4 4.35-1.73-.156Zm12.15-4.463-6.56-.592.14-1.561 6.57.591-.15 1.562Zm2.02 2.945-1.94-.175-2.99-10.503.6.055-4.82 9.799-1.88-.17 5.54-10.987 2.01.181 3.48 11.8ZM1056.89 112.384l1.59 1.959c-.57.581-1.29 1.03-2.15 1.349-.85.319-1.77.434-2.76.345-.93-.083-1.75-.302-2.48-.657a6.007 6.007 0 0 1-1.85-1.419 5.625 5.625 0 0 1-1.09-1.994c-.23-.76-.31-1.576-.23-2.447.08-.86.31-1.638.68-2.332.37-.706.86-1.299 1.46-1.78a5.913 5.913 0 0 1 2.09-1.049c.79-.229 1.64-.302 2.56-.22.98.089 1.86.366 2.62.831.77.466 1.38 1.035 1.84 1.708l-1.92 1.643a3.49 3.49 0 0 0-1.16-1.213 3.33 3.33 0 0 0-1.6-.562c-.64-.058-1.23.044-1.76.307-.53.252-.96.631-1.3 1.136-.33.506-.53 1.104-.59 1.794-.06.691.02 1.32.26 1.887.24.557.6 1.012 1.07 1.365.48.344 1.04.544 1.68.602a3.37 3.37 0 0 0 1.68-.267c.53-.23.99-.559 1.36-.986Zm5.91 4.228-2.74-.247 1.02-11.394 2.74.247-1.02 11.394Zm8.4.757-3.57-.322-4.7-6.383.26.023 5.05-5.071 3.31.299-5.42 5.278.04-.478 5.03 6.654Zm1.43.129 1.03-11.394 2.74.247-.93 10.263-1.88-.17 7.46-9.673 2.87.258-1.03 11.394-2.74-.247.94-10.406 1.91.172-7.5 9.815-2.87-.259Zm12.56-.154.09-1.019.73.066c.3.026.56-.154.77-.541.22-.398.43-1.059.63-1.984l1.38-6.398 7.92.714-.87 9.721-2.71-.245.84-9.37 1.1 2.059-6.18-.557 2.47-1.737-1.41 6.347c-.16.746-.4 1.356-.71 1.832-.3.465-.68.801-1.14 1.006-.45.205-.98.28-1.59.226l-1.32-.12Zm-.77 4.012.46-5.067 12.49 1.126-.45 5.067-2.55-.23.37-4.079 1.31 1.436-10.02-.904 1.29-.912-.35 3.793-2.55-.23Zm17.31-1.235-2.74-.247 1.03-11.394 2.74.247-1.03 11.394Zm8.4.757-3.57-.322-4.69-6.383.25.023 5.06-5.071 3.31.299-5.42 5.278.04-.478 5.02 6.654Zm1.44.129 1.02-11.394 2.74.247-.92 10.263-1.88-.17 7.46-9.673 2.87.258-1.03 11.394-2.74-.247.94-10.406 1.91.172-7.5 9.814-2.87-.258Zm15.67.127.09-1.02.73.066c.3.027.56-.154.77-.541.22-.398.43-1.059.63-1.984l1.38-6.397 7.92.713-.88 9.721-2.7-.244.84-9.37 1.1 2.059-6.18-.558 2.47-1.737-1.41 6.347c-.16.746-.4 1.357-.71 1.832-.3.466-.68.801-1.14 1.006-.45.205-.99.281-1.59.226l-1.32-.119Zm-.77 4.011.46-5.067 12.49 1.126-.45 5.067-2.55-.229.36-4.08 1.32 1.436-10.02-.903 1.28-.912-.34 3.792-2.55-.23Zm19.91-.744c-.9-.081-1.72-.304-2.45-.67a6.27 6.27 0 0 1-1.86-1.421 5.696 5.696 0 0 1-1.12-1.997 6.3 6.3 0 0 1-.23-2.43c.08-.861.3-1.639.66-2.334.37-.695.86-1.283 1.46-1.764a6.135 6.135 0 0 1 2.09-1.065c.78-.23 1.62-.304 2.52-.222.91.081 1.72.304 2.45.67.73.365 1.34.838 1.85 1.419.51.582.89 1.248 1.12 1.997.24.75.32 1.556.25 2.416a6.25 6.25 0 0 1-.68 2.349 5.373 5.373 0 0 1-1.46 1.764c-.6.481-1.29.837-2.07 1.066-.78.23-1.63.304-2.53.222Zm.22-2.406c.66.059 1.24-.038 1.76-.291.53-.263.95-.648 1.28-1.154.33-.516.53-1.119.59-1.81.06-.69-.02-1.314-.26-1.871a3.093 3.093 0 0 0-1.05-1.348c-.47-.352-1.03-.558-1.68-.617-.65-.059-1.24.044-1.77.307-.52.252-.95.631-1.29 1.137-.32.506-.51 1.104-.58 1.795-.06.69.02 1.319.25 1.886.24.557.59 1.012 1.07 1.365.47.342 1.03.543 1.68.601Zm19.94-7.52-.19 2.167-6 8.761-2.93-.264 6.17-8.745-5.66-.51.2-2.167 8.41.758Zm4.54 12.153c-.99-.09-1.83-.396-2.52-.918-.67-.532-1.15-1.256-1.45-2.172-.31-.927-.4-2.022-.29-3.287.18-1.912.73-3.345 1.68-4.299.94-.954 2.16-1.363 3.66-1.228 1.49.135 2.62.756 3.38 1.863.76 1.107 1.05 2.617.88 4.529-.12 1.264-.41 2.325-.87 3.183-.46.847-1.07 1.472-1.84 1.875-.75.392-1.63.544-2.63.454Zm.2-2.199c.64.057 1.16-.207 1.57-.791.42-.594.68-1.518.79-2.772.12-1.264.02-2.221-.28-2.869-.3-.659-.76-1.017-1.4-1.074-.64-.058-1.17.211-1.58.805-.41.585-.67 1.509-.78 2.773-.12 1.254-.03 2.21.27 2.868.3.649.78 1.002 1.41 1.06Zm8.91 2.762-2.63-.237 9.25-10.652 2.63.237-9.25 10.652Zm6.37.799a2.775 2.775 0 0 1-1.38-.494 2.682 2.682 0 0 1-.92-1.094c-.2-.447-.28-.936-.23-1.468.04-.52.21-.977.49-1.369.28-.403.65-.707 1.09-.913.45-.206.93-.286 1.46-.239.53.048.99.213 1.38.494.4.283.71.648.91 1.095.21.436.29.92.24 1.451-.04.521-.21.982-.49 1.385a2.67 2.67 0 0 1-1.1.914c-.43.207-.92.286-1.45.238Zm.17-1.832a.81.81 0 0 0 .64-.215c.19-.176.3-.397.32-.662a.977.977 0 0 0-.19-.693.834.834 0 0 0-.6-.342.817.817 0 0 0-.65.23.95.95 0 0 0-.31.647c-.03.265.04.501.19.708.15.196.35.305.6.327Zm-6.79-5.078a2.785 2.785 0 0 1-1.38-.494 2.685 2.685 0 0 1-.92-1.095c-.2-.447-.28-.936-.24-1.467.05-.52.22-.977.5-1.369.28-.403.64-.708 1.09-.914.45-.206.93-.285 1.45-.238.53.048 1 .212 1.39.494.4.283.71.647.91 1.094.21.437.29.921.24 1.452-.05.52-.21.982-.49 1.385-.29.403-.65.707-1.1.913-.43.207-.92.287-1.45.239Zm.17-1.832a.81.81 0 0 0 .64-.215c.19-.176.29-.397.32-.663a.936.936 0 0 0-.2-.692.798.798 0 0 0-.59-.343.806.806 0 0 0-.65.231.907.907 0 0 0-.31.646c-.03.266.04.502.19.709.15.196.35.305.6.327ZM1215.18 126.2c-1.25-.113-2.2-.509-2.85-1.189-.64-.69-.91-1.598-.81-2.724l.33-3.729 1.84.165-.32 3.522c-.07.712.09 1.272.47 1.682.4.399.99.634 1.77.705.54.049 1.08.017 1.6-.097.53-.124.98-.298 1.35-.521l.44 1.196c-.49.396-1.06.676-1.72.842-.65.165-1.36.215-2.1.148Zm2.61 4.38 1.03-11.394 1.83.165-1.03 11.394-1.83-.165Zm12.52 1.127-7.84-.706 1.02-11.394 7.84.707-.14 1.561-6.01-.541-.74 8.27 6.01.542-.14 1.561Zm.14-5.031-5.86-.528.14-1.562 5.86.529-.14 1.561Zm3.84 5.39-1.83-.165 1.02-11.394 4.56.411c.79.071 1.46.277 2.03.617.57.33 1 .765 1.28 1.304.3.53.41 1.135.35 1.815-.06.669-.28 1.244-.67 1.723-.37.48-.87.837-1.49 1.07-.62.223-1.32.299-2.11.228l-2.88-.26.14-1.562 2.88.26c.65.058 1.17-.055 1.57-.34.42-.295.65-.724.7-1.287.05-.563-.1-1.021-.46-1.374-.34-.363-.83-.574-1.48-.632l-2.73-.246-.88 9.832Zm16.46 1.484 1.03-11.394 1.83.165-1.03 11.394-1.83-.165Zm-5.85-.527-1.83-.165 1.03-11.394 1.83.165-1.03 11.394Zm.3-5.098.14-1.578 6.17.556-.14 1.578-6.17-.556Zm18.34 4.015-6.56-.592.14-1.562 6.56.592-.14 1.562Zm2.02 2.945-1.94-.176-2.99-10.502.6.054-4.82 9.799-1.88-.169 5.54-10.988 2.01.181 3.48 11.801Zm8.41.758.89-9.833-2.73-.245c-.66-.06-1.19.059-1.59.355-.4.285-.62.709-.67 1.272-.06.563.09 1.026.43 1.389.35.352.85.558 1.51.617l2.88.26-.14 1.562-2.89-.26c-.78-.071-1.47-.272-2.05-.603-.56-.34-.99-.78-1.27-1.32-.29-.539-.4-1.144-.34-1.813.06-.68.28-1.255.65-1.724.38-.481.88-.832 1.5-1.055.63-.232 1.34-.313 2.12-.242l4.56.411-1.03 11.394-1.83-.165Zm-7.47-.674 4.32-4.96 2.04.183-4.18 4.974-2.18-.197Zm15.26 1.375 1.02-11.394 9.47.853-1.03 11.394-1.83-.165.99-10.964.82 1.231-7.71-.695 1.09-1.058-.99 10.963-1.83-.165Zm18.79 1.694.89-9.832-2.73-.246c-.66-.059-1.19.059-1.59.355-.4.285-.62.709-.67 1.272-.06.563.09 1.026.43 1.389.35.352.85.558 1.5.617l2.89.26-.14 1.562-2.89-.26c-.78-.071-1.47-.272-2.05-.602a3.293 3.293 0 0 1-1.27-1.32c-.29-.54-.4-1.145-.34-1.814.06-.68.28-1.254.65-1.724.38-.48.88-.832 1.5-1.054.63-.233 1.34-.313 2.12-.243l4.56.411-1.03 11.394-1.83-.165Zm-7.47-.674 4.32-4.96 2.04.184-4.18 4.973-2.18-.197Zm16.73 1.509-1.83-.166.9-9.975 1.83.165-.9 9.976Zm4.54-9.488-9.12-.821.14-1.578 9.12.822-.14 1.577Zm8.75 10.685 1.02-11.394 1.84.165-1.03 11.394-1.83-.165Zm-5.85-.527-1.83-.165 1.02-11.394 1.84.165-1.03 11.394Zm.3-5.098.14-1.578 6.17.556-.15 1.578-6.16-.556Zm10.24 6.047 1.03-11.393 1.83.165-.95 10.469-1.18-.106 7.9-9.843 1.97.178-1.02 11.394-1.84-.166.95-10.485 1.15.103-7.9 9.86-1.94-.176Zm12.42 1.12 1.02-11.394 1.84.165-.99 10.963-.89-1.236 7.67.691-1.03 1.064.99-10.964 1.83.165-1.03 11.394-9.41-.848Zm8.72 3.581.39-4.351 1.74.157-.39 4.35-1.74-.156Zm12.16-4.463-6.57-.592.14-1.561 6.57.591-.14 1.562Zm2.01 2.945-1.94-.175-2.99-10.503.6.055-4.81 9.799-1.89-.17 5.54-10.987 2.01.181 3.48 11.8ZM1394.52 142.811l1.59 1.959c-.57.581-1.28 1.03-2.15 1.349-.85.319-1.77.434-2.76.345-.92-.083-1.75-.302-2.48-.657a6.01 6.01 0 0 1-1.85-1.42 5.777 5.777 0 0 1-1.09-1.994c-.23-.759-.3-1.575-.23-2.446.08-.861.31-1.638.68-2.333.37-.705.86-1.298 1.46-1.78.61-.48 1.31-.83 2.09-1.049.79-.228 1.64-.301 2.56-.219.98.089 1.86.366 2.62.831.77.466 1.39 1.035 1.84 1.708l-1.92 1.643a3.394 3.394 0 0 0-1.16-1.213 3.332 3.332 0 0 0-1.6-.563c-.64-.057-1.23.045-1.76.307-.53.253-.96.632-1.29 1.137-.34.505-.54 1.103-.6 1.794-.06.69.03 1.319.26 1.887.24.557.6 1.012 1.07 1.365.48.344 1.04.544 1.68.602.6.053 1.16-.036 1.68-.267.53-.23.99-.559 1.36-.986Zm5.91 4.228-2.74-.247 1.03-11.394 2.74.247-1.03 11.394Zm8.4.757-3.57-.322-4.7-6.383.26.023 5.05-5.071 3.32.298-5.43 5.279.04-.478 5.03 6.654Zm1.43.129 1.03-11.394 2.74.247-.92 10.262-1.88-.169 7.45-9.674 2.87.259-1.02 11.394-2.75-.247.94-10.406 1.91.172-7.5 9.814-2.87-.258Zm12.56-.154.09-1.02.73.066c.3.027.56-.153.78-.54.21-.399.42-1.06.62-1.984l1.38-6.398 7.92.714-.87 9.72-2.71-.244.84-9.37 1.1 2.059-6.18-.557 2.47-1.737-1.41 6.347c-.16.746-.4 1.356-.71 1.831-.3.466-.68.802-1.13 1.007-.46.205-.99.28-1.6.225l-1.32-.119Zm-.76 4.012.45-5.068 12.5 1.126-.46 5.068-2.55-.23.37-4.079 1.31 1.436-10.02-.904 1.29-.912-.34 3.793-2.55-.23Zm17.31-1.235-2.75-.247 1.03-11.394 2.74.247-1.02 11.394Zm8.39.756-3.57-.321-4.69-6.383.26.023 5.05-5.071 3.31.298-5.42 5.279.04-.478 5.02 6.653Zm1.44.13 1.03-11.394 2.74.247-.93 10.262-1.88-.169 7.46-9.674 2.87.259-1.03 11.394-2.74-.247.94-10.406 1.91.172-7.5 9.814-2.87-.258Zm15.67.127.09-1.02.73.066c.3.027.56-.154.77-.541.22-.398.43-1.059.63-1.984l1.38-6.398 7.92.714-.87 9.721-2.71-.245.84-9.37 1.1 2.059-6.18-.557 2.47-1.737-1.41 6.347c-.16.746-.4 1.356-.71 1.832-.3.465-.68.801-1.14 1.006-.45.205-.98.28-1.59.226l-1.32-.119Zm-.77 4.011.46-5.067 12.49 1.126-.45 5.067-2.55-.23.37-4.079 1.31 1.436-10.02-.903 1.29-.913-.35 3.793-2.55-.23Zm19.91-.744c-.9-.081-1.72-.305-2.44-.67a6.204 6.204 0 0 1-1.87-1.421 5.705 5.705 0 0 1-1.12-1.997c-.23-.76-.31-1.57-.23-2.43.08-.861.3-1.639.66-2.335.37-.694.86-1.282 1.46-1.764a6.17 6.17 0 0 1 2.09-1.065c.78-.229 1.62-.303 2.52-.222.91.082 1.72.305 2.45.671.73.365 1.34.838 1.85 1.419.51.582.89 1.248 1.12 1.997.24.75.33 1.555.25 2.416a6.26 6.26 0 0 1-.68 2.349 5.373 5.373 0 0 1-1.46 1.764 5.97 5.97 0 0 1-2.07 1.066c-.78.229-1.62.303-2.53.222Zm.22-2.406c.66.059 1.24-.038 1.76-.291.53-.263.95-.648 1.28-1.154.33-.516.53-1.12.59-1.81.07-.691-.02-1.314-.26-1.871a3.093 3.093 0 0 0-1.05-1.348c-.46-.352-1.02-.558-1.68-.617-.65-.059-1.24.044-1.76.307-.53.252-.96.631-1.3 1.136-.32.507-.51 1.105-.58 1.796-.06.69.02 1.319.25 1.885.24.557.6 1.012 1.07 1.366.47.342 1.03.542 1.68.601Zm19.94-7.52-.19 2.167-6 8.761-2.93-.264 6.17-8.746-5.65-.509.19-2.168 8.41.759Zm4.55 12.152c-1-.09-1.84-.396-2.52-.918-.67-.531-1.16-1.255-1.46-2.171-.3-.927-.4-2.023-.28-3.287.17-1.912.72-3.345 1.67-4.299.94-.954 2.16-1.363 3.66-1.228s2.62.756 3.38 1.863c.76 1.107 1.05 2.616.88 4.529-.12 1.264-.4 2.325-.87 3.183-.46.847-1.07 1.472-1.84 1.874-.75.393-1.63.544-2.62.454Zm.19-2.199c.64.058 1.16-.206 1.57-.79.42-.595.68-1.519.8-2.772.11-1.264.01-2.221-.29-2.87-.3-.658-.76-1.016-1.4-1.073-.64-.058-1.16.211-1.58.805-.41.584-.67 1.509-.78 2.773-.12 1.254-.02 2.21.27 2.868.31.649.78 1.002 1.41 1.059Zm8.91 2.763-2.62-.237 9.24-10.653 2.63.237-9.25 10.653Zm6.37.799a2.785 2.785 0 0 1-1.38-.494c-.4-.283-.71-.648-.91-1.095a2.776 2.776 0 0 1-.24-1.467c.05-.52.21-.977.49-1.369a2.67 2.67 0 0 1 1.1-.914c.44-.206.93-.285 1.45-.238.53.048.99.212 1.38.494.41.283.71.648.92 1.094.2.437.28.921.23 1.452-.04.52-.21.982-.49 1.385s-.65.707-1.09.913c-.44.207-.92.287-1.46.239Zm.17-1.832c.24.022.46-.05.65-.215.18-.176.29-.397.31-.663a.93.93 0 0 0-.19-.692.817.817 0 0 0-.6-.343.818.818 0 0 0-.65.231.947.947 0 0 0-.31.646c-.02.266.04.502.19.709a.85.85 0 0 0 .6.327Zm-6.79-5.078a2.785 2.785 0 0 1-1.38-.494 2.685 2.685 0 0 1-.92-1.095c-.2-.447-.28-.936-.23-1.467.04-.521.21-.977.49-1.369.28-.403.65-.708 1.09-.914.45-.206.93-.285 1.45-.239.54.048 1 .213 1.39.495.4.282.71.647.91 1.094.21.437.29.92.24 1.451-.04.521-.21.983-.49 1.386-.28.403-.65.707-1.1.913-.43.207-.92.287-1.45.239Zm.17-1.833c.24.022.46-.049.64-.215.19-.176.3-.396.32-.662a.976.976 0 0 0-.19-.692.832.832 0 0 0-.6-.343.818.818 0 0 0-.65.231.947.947 0 0 0-.31.646c-.03.266.04.502.19.708.15.196.35.305.6.327ZM1552.81 156.626c-1.25-.113-2.2-.509-2.85-1.188-.64-.69-.91-1.598-.81-2.724l.33-3.729 1.84.165-.32 3.522c-.06.712.09 1.272.48 1.681.39.4.98.635 1.76.706.54.049 1.08.016 1.6-.097.53-.124.98-.298 1.35-.521l.44 1.196a4.41 4.41 0 0 1-1.72.842c-.65.165-1.35.214-2.1.147Zm2.61 4.38 1.03-11.393 1.83.165-1.03 11.394-1.83-.166Zm12.52 1.128-7.84-.706 1.02-11.394 7.84.706-.14 1.562-6-.541-.75 8.27 6.01.542-.14 1.561Zm.15-5.031-5.87-.528.14-1.562 5.87.529-.14 1.561Zm3.83 5.39-1.83-.165 1.02-11.394 4.56.411c.79.071 1.47.276 2.03.617.57.33 1 .764 1.28 1.304.3.53.42 1.135.36 1.815-.07.669-.29 1.243-.67 1.723-.38.48-.88.837-1.5 1.07-.62.222-1.32.298-2.11.227l-2.88-.259.14-1.562 2.88.26c.65.058 1.18-.055 1.58-.34.41-.295.64-.724.69-1.287.05-.563-.1-1.021-.45-1.375-.35-.362-.84-.573-1.49-.631l-2.72-.246-.89 9.832Zm16.46 1.484 1.03-11.394 1.83.165-1.03 11.394-1.83-.165Zm-5.85-.527-1.83-.166 1.03-11.393 1.83.165-1.03 11.394Zm.3-5.098.14-1.578 6.17.556-.14 1.578-6.17-.556Zm18.35 4.014-6.57-.591.14-1.562 6.57.592-.14 1.561Zm2.01 2.945-1.94-.175-2.99-10.503.6.055-4.82 9.799-1.88-.169 5.54-10.988 2.01.181 3.48 11.8Zm8.41.758.89-9.832-2.73-.245c-.65-.06-1.18.058-1.59.354-.4.285-.62.71-.67 1.273-.05.563.09 1.026.43 1.389.35.352.85.558 1.51.617l2.88.26-.14 1.561-2.88-.259c-.79-.071-1.47-.272-2.05-.603-.57-.34-1-.78-1.28-1.32-.29-.54-.4-1.144-.34-1.813.06-.68.28-1.255.66-1.725.37-.48.87-.831 1.49-1.054.63-.232 1.34-.313 2.12-.242l4.56.411-1.02 11.393-1.84-.165Zm-7.47-.673 4.32-4.961 2.04.184-4.18 4.974-2.18-.197Zm15.26 1.375 1.02-11.394 9.47.853-1.03 11.394-1.83-.165.99-10.964.82 1.231-7.71-.695 1.09-1.059-.99 10.964-1.83-.165Zm18.79 1.694.89-9.833-2.73-.245c-.65-.059-1.18.059-1.59.355-.4.285-.62.709-.67 1.272-.05.563.09 1.026.43 1.389.35.352.85.558 1.51.617l2.88.26-.14 1.562-2.88-.26c-.79-.071-1.47-.272-2.05-.603-.57-.34-1-.78-1.28-1.32-.29-.539-.4-1.144-.34-1.813.06-.68.28-1.255.66-1.724.37-.481.87-.832 1.49-1.055.63-.232 1.34-.313 2.12-.242l4.56.411-1.02 11.394-1.84-.165Zm-7.47-.674 4.32-4.96 2.04.184-4.18 4.973-2.18-.197Zm16.73 1.508-1.83-.165.9-9.975 1.83.165-.9 9.975Zm4.54-9.487-9.12-.822.15-1.577 9.11.821-.14 1.578Zm8.75 10.684 1.03-11.393 1.83.165-1.03 11.394-1.83-.166Zm-5.85-.527-1.83-.165 1.02-11.394 1.84.166-1.03 11.393Zm.3-5.097.14-1.578 6.17.556-.14 1.577-6.17-.555Zm10.24 6.047 1.03-11.394 1.83.166-.94 10.469-1.18-.106 7.89-9.844 1.97.178-1.02 11.394-1.84-.165.95-10.485 1.15.103-7.9 9.859-1.94-.175Zm12.42 1.119 1.03-11.394 1.83.166-.99 10.963-.88-1.236 7.66.691-1.03 1.064.99-10.964 1.83.165-1.02 11.394-9.42-.849Zm8.72 3.582.39-4.351 1.74.157-.39 4.35-1.74-.156Zm12.16-4.463-6.57-.592.14-1.562 6.57.592-.14 1.562Zm2.01 2.945-1.94-.176-2.99-10.502.61.054-4.82 9.799-1.88-.169 5.53-10.988 2.01.181 3.48 11.801ZM1732.15 173.238l1.59 1.959c-.57.58-1.28 1.03-2.15 1.348-.85.32-1.77.435-2.76.346-.92-.083-1.75-.302-2.48-.657a5.967 5.967 0 0 1-1.84-1.42c-.5-.58-.86-1.244-1.09-1.994-.24-.759-.31-1.575-.23-2.446.07-.861.3-1.638.67-2.333.38-.705.86-1.298 1.46-1.78.61-.48 1.31-.83 2.09-1.049.79-.228 1.65-.301 2.56-.219.99.089 1.86.366 2.62.831.77.466 1.39 1.035 1.84 1.708l-1.91 1.642a3.59 3.59 0 0 0-1.16-1.213 3.378 3.378 0 0 0-1.61-.562 3.271 3.271 0 0 0-1.76.307c-.53.253-.96.632-1.29 1.137-.34.505-.54 1.103-.6 1.794-.06.69.03 1.319.27 1.887.24.557.59 1.012 1.06 1.365.49.344 1.05.544 1.68.601.6.054 1.16-.035 1.68-.266.54-.23.99-.559 1.36-.986Zm5.91 4.228-2.74-.247 1.03-11.394 2.74.247-1.03 11.394Zm8.4.756-3.57-.321-4.69-6.383.25.023 5.05-5.071 3.32.298-5.43 5.279.05-.478 5.02 6.653Zm1.43.13 1.03-11.394 2.74.247-.92 10.262-1.88-.169 7.46-9.674 2.86.259-1.02 11.394-2.74-.247.93-10.406 1.92.172-7.51 9.814-2.87-.258Zm12.56-.154.09-1.02.74.066c.29.027.55-.153.77-.541.22-.398.42-1.059.63-1.983l1.38-6.398 7.92.714-.88 9.72-2.71-.244.84-9.37 1.1 2.059-6.18-.557 2.47-1.738-1.41 6.348c-.16.745-.4 1.356-.71 1.831-.3.466-.67.801-1.13 1.007-.46.205-.99.28-1.6.225l-1.32-.119Zm-.76 4.012.45-5.068 12.5 1.126-.46 5.068-2.55-.23.37-4.08 1.32 1.436-10.03-.903 1.29-.912-.34 3.793-2.55-.23Zm17.31-1.236-2.74-.247 1.02-11.393 2.74.247-1.02 11.393Zm8.4.757-3.57-.321-4.7-6.383.26.023 5.05-5.072 3.31.299-5.42 5.279.04-.478 5.03 6.653Zm1.43.13 1.03-11.394 2.74.247-.93 10.262-1.88-.169 7.46-9.674 2.87.259-1.03 11.393-2.74-.247.94-10.405 1.91.172-7.5 9.814-2.87-.258Zm15.67.126.09-1.019.73.066c.3.026.56-.154.78-.541.21-.398.42-1.06.62-1.984l1.38-6.398 7.92.714-.87 9.72-2.71-.244.84-9.37 1.1 2.059-6.18-.557 2.47-1.737-1.41 6.347c-.16.746-.4 1.356-.71 1.832-.3.465-.68.801-1.13 1.006-.46.205-.99.28-1.6.226l-1.32-.12Zm-.76 4.012.45-5.067 12.5 1.126-.46 5.067-2.55-.23.37-4.079 1.31 1.436-10.02-.904 1.29-.912-.34 3.793-2.55-.23Zm19.9-.744a6.748 6.748 0 0 1-2.44-.67 6.204 6.204 0 0 1-1.87-1.421 5.867 5.867 0 0 1-1.12-1.997c-.23-.76-.31-1.57-.23-2.431a6.3 6.3 0 0 1 .66-2.334c.38-.694.86-1.282 1.46-1.764a6.17 6.17 0 0 1 2.09-1.065c.78-.229 1.62-.303 2.53-.222.9.082 1.71.305 2.44.67.73.366 1.35.839 1.85 1.42.52.582.89 1.248 1.12 1.997.24.75.33 1.555.25 2.416-.08.86-.3 1.643-.68 2.348a5.353 5.353 0 0 1-1.46 1.764c-.6.482-1.29.837-2.07 1.067-.78.229-1.62.303-2.53.222Zm.22-2.406c.66.059 1.25-.038 1.76-.291.53-.263.95-.648 1.28-1.154.33-.516.53-1.12.6-1.81.06-.691-.03-1.314-.27-1.872a3.09 3.09 0 0 0-1.05-1.347c-.46-.352-1.02-.558-1.68-.618-.65-.058-1.24.044-1.76.307-.53.253-.96.632-1.29 1.137-.33.506-.52 1.105-.58 1.795-.07.691.02 1.32.24 1.886.24.557.6 1.012 1.07 1.365.47.343 1.03.543 1.68.602Zm19.95-7.52-.2 2.167-5.99 8.761-2.94-.264 6.17-8.746-5.65-.509.19-2.168 8.42.759Zm4.54 12.152c-1-.09-1.84-.396-2.52-.918-.67-.531-1.16-1.255-1.46-2.171-.3-.927-.4-2.023-.28-3.287.17-1.912.73-3.345 1.67-4.299.94-.954 2.16-1.364 3.66-1.229s2.63.757 3.38 1.864c.76 1.107 1.05 2.616.88 4.529-.11 1.264-.4 2.325-.87 3.183-.46.847-1.07 1.472-1.83 1.874-.76.393-1.63.544-2.63.454Zm.2-2.199c.63.058 1.16-.206 1.56-.791.42-.594.68-1.518.8-2.771.11-1.265.02-2.221-.29-2.87-.29-.658-.76-1.016-1.4-1.073-.64-.058-1.16.211-1.58.805-.41.584-.67 1.509-.78 2.773-.11 1.254-.02 2.21.27 2.868.31.649.78 1.002 1.42 1.059Zm8.91 2.763-2.63-.237 9.25-10.653 2.63.237-9.25 10.653Zm6.37.799a2.82 2.82 0 0 1-1.39-.494c-.4-.283-.71-.648-.91-1.095a2.776 2.776 0 0 1-.24-1.467c.05-.52.21-.977.49-1.369.29-.403.65-.708 1.1-.914.44-.206.93-.285 1.45-.238.53.047.99.212 1.38.494.41.283.71.647.92 1.094.2.437.28.92.24 1.452-.05.52-.22.982-.5 1.385s-.65.707-1.09.913c-.44.207-.92.287-1.45.239Zm.16-1.833c.25.022.46-.049.65-.214.18-.176.29-.397.31-.663a.93.93 0 0 0-.19-.692.797.797 0 0 0-.6-.343.786.786 0 0 0-.64.231.958.958 0 0 0-.32.646c-.02.266.04.502.19.709.16.195.36.304.6.326Zm-6.79-5.077a2.776 2.776 0 0 1-1.38-.495c-.4-.282-.71-.647-.91-1.094a2.776 2.776 0 0 1-.24-1.467c.04-.521.21-.977.49-1.37.28-.402.65-.707 1.1-.913a2.79 2.79 0 0 1 1.45-.239c.53.048.99.213 1.38.495.4.282.71.647.92 1.094.2.436.28.92.23 1.451-.04.521-.21.983-.49 1.386-.28.402-.65.707-1.09.913-.44.207-.92.287-1.46.239Zm.17-1.833c.24.022.46-.049.64-.215.19-.176.3-.396.32-.662a.93.93 0 0 0-.19-.692.814.814 0 0 0-.6-.343.818.818 0 0 0-.65.231.945.945 0 0 0-.31.646c-.03.266.04.502.19.708.16.196.35.305.6.327ZM1890.44 187.053c-1.25-.113-2.2-.509-2.84-1.188-.65-.69-.92-1.598-.82-2.724l.34-3.729 1.83.165-.32 3.522c-.06.712.1 1.272.48 1.681.39.4.98.635 1.76.706a5.3 5.3 0 0 0 1.6-.097c.53-.124.98-.298 1.35-.521l.44 1.196c-.48.395-1.06.676-1.71.841-.66.166-1.36.215-2.11.148Zm2.61 4.38 1.03-11.394 1.83.166-1.02 11.393-1.84-.165Zm12.52 1.128-7.84-.706 1.03-11.394 7.84.706-.15 1.562-6-.541-.75 8.27 6.01.541-.14 1.562Zm.15-5.031-5.87-.528.14-1.562 5.87.528-.14 1.562Zm3.83 5.39-1.83-.165 1.03-11.394 4.55.411c.79.071 1.47.276 2.04.617.57.33.99.764 1.28 1.304.29.53.41 1.135.35 1.815a3.173 3.173 0 0 1-.67 1.723c-.38.48-.88.837-1.5 1.07-.62.222-1.32.298-2.11.227l-2.88-.26.14-1.561 2.89.26c.64.058 1.17-.055 1.57-.34.41-.295.64-.724.69-1.287.05-.563-.1-1.022-.45-1.375-.34-.363-.84-.573-1.49-.632l-2.72-.245-.89 9.832Zm16.46 1.484 1.03-11.394 1.83.165-1.02 11.394-1.84-.165Zm-5.84-.528-1.84-.165 1.03-11.394 1.83.166-1.02 11.393Zm.29-5.097.15-1.578 6.16.556-.14 1.577-6.17-.555Zm18.35 4.014-6.57-.591.14-1.562 6.57.592-.14 1.561Zm2.01 2.945-1.94-.175-2.99-10.503.61.055-4.82 9.799-1.88-.17 5.53-10.987 2.01.181 3.48 11.8Zm8.41.758.89-9.832-2.72-.246c-.66-.059-1.19.059-1.59.355-.4.285-.63.709-.68 1.273-.05.563.09 1.026.44 1.388.34.353.84.558 1.5.618l2.88.26-.14 1.561-2.88-.26c-.79-.07-1.47-.271-2.05-.602-.57-.34-1-.781-1.28-1.32-.28-.54-.4-1.144-.34-1.813.07-.68.28-1.255.66-1.725.37-.48.87-.831 1.49-1.054.63-.232 1.34-.313 2.13-.242l4.55.411-1.02 11.393-1.84-.165Zm-7.47-.673 4.32-4.961 2.04.184-4.18 4.973-2.18-.196Zm15.26 1.375 1.03-11.394 9.46.853-1.02 11.394-1.84-.165.99-10.964.82 1.231-7.71-.695 1.09-1.059-.99 10.964-1.83-.165Zm18.79 1.694.89-9.833-2.72-.245c-.66-.06-1.19.059-1.59.354-.4.286-.63.71-.68 1.273-.05.563.09 1.026.44 1.389.34.352.84.558 1.5.617l2.88.26-.14 1.562-2.88-.26c-.79-.071-1.47-.272-2.05-.603-.57-.34-1-.78-1.28-1.32a3.232 3.232 0 0 1-.34-1.813c.07-.68.28-1.255.66-1.724.37-.481.87-.832 1.49-1.055.63-.232 1.34-.313 2.13-.242l4.55.411-1.02 11.394-1.84-.165Zm-7.47-.674 4.32-4.96 2.04.183-4.18 4.974-2.18-.197Zm16.74 1.508-1.84-.165.9-9.976 1.84.166-.9 9.975Zm4.53-9.487-9.11-.822.14-1.577 9.11.821-.14 1.578Zm8.75 10.684 1.03-11.393 1.83.165-1.03 11.393-1.83-.165Zm-5.85-.527-1.83-.165 1.03-11.394 1.83.165-1.03 11.394Zm.3-5.097.14-1.578 6.17.556-.14 1.577-6.17-.555Zm10.24 6.047 1.03-11.394 1.83.165-.94 10.47-1.18-.106 7.89-9.844 1.98.178-1.03 11.394-1.83-.165.94-10.486 1.15.104-7.89 9.859-1.95-.175Zm12.42 1.119 1.03-11.394 1.83.166-.99 10.963-.88-1.236 7.66.69-1.03 1.065.99-10.964 1.83.165-1.02 11.394-9.42-.849Zm8.72 3.581.39-4.35 1.74.157-.39 4.35-1.74-.157Zm12.16-4.462-6.57-.592.14-1.562 6.57.592-.14 1.562Zm2.02 2.944-1.95-.175-2.99-10.502.61.054-4.82 9.799-1.88-.169 5.53-10.988 2.01.181 3.49 11.8ZM2069.78 203.665l1.59 1.958c-.56.581-1.28 1.031-2.14 1.349-.86.32-1.78.435-2.77.346-.92-.084-1.75-.303-2.48-.657a5.967 5.967 0 0 1-1.84-1.42c-.5-.58-.86-1.245-1.09-1.994a6.362 6.362 0 0 1-.23-2.446c.08-.861.3-1.638.67-2.333.38-.705.87-1.299 1.47-1.78.61-.481 1.3-.83 2.08-1.049.79-.229 1.65-.302 2.56-.219.99.089 1.86.366 2.62.831.78.465 1.39 1.035 1.84 1.707l-1.91 1.643a3.59 3.59 0 0 0-1.16-1.213 3.378 3.378 0 0 0-1.61-.562 3.279 3.279 0 0 0-1.76.307c-.53.252-.96.631-1.29 1.137-.34.505-.53 1.103-.6 1.793-.06.691.03 1.32.27 1.888.24.557.59 1.012 1.06 1.365.49.343 1.05.544 1.68.601.6.054 1.16-.035 1.68-.266.54-.23.99-.559 1.36-.986Zm5.91 4.227-2.74-.247 1.03-11.393 2.74.247-1.03 11.393Zm8.4.757-3.57-.321-4.69-6.384.25.023 5.05-5.071 3.32.299-5.42 5.279.04-.478 5.02 6.653Zm1.44.13 1.02-11.394 2.74.247-.92 10.262-1.88-.169 7.46-9.674 2.87.259-1.03 11.393-2.74-.247.94-10.405 1.91.172-7.51 9.814-2.86-.258Zm12.55-.154.09-1.02.74.066c.29.027.55-.153.77-.541.22-.398.43-1.059.63-1.983l1.38-6.398 7.92.713-.88 9.721-2.71-.244.85-9.37 1.1 2.059-6.19-.557 2.47-1.738-1.4 6.348c-.17.745-.4 1.356-.72 1.831-.29.466-.67.801-1.13 1.006-.46.205-.99.281-1.59.226l-1.33-.119Zm-.76 4.012.46-5.068 12.49 1.126-.46 5.067-2.55-.229.37-4.08 1.32 1.436-10.03-.903 1.29-.912-.34 3.792-2.55-.229Zm17.31-1.236-2.74-.247 1.03-11.394 2.74.247-1.03 11.394Zm8.4.757-3.57-.322-4.7-6.383.26.023 5.05-5.071 3.31.299-5.42 5.278.04-.478 5.03 6.654Zm1.43.129 1.03-11.393 2.74.247-.92 10.262-1.89-.169 7.46-9.674 2.87.258-1.03 11.394-2.74-.247.94-10.406 1.91.173-7.5 9.814-2.87-.259Zm15.67.127.09-1.02.74.066c.29.027.55-.153.77-.541.22-.398.42-1.059.63-1.983l1.38-6.398 7.92.714-.88 9.72-2.71-.244.85-9.37 1.09 2.059-6.18-.557 2.47-1.737-1.41 6.347c-.16.746-.4 1.356-.71 1.831-.3.466-.67.802-1.13 1.007-.46.205-.99.28-1.6.225l-1.32-.119Zm-.76 4.012.45-5.068 12.5 1.126-.46 5.068-2.55-.23.37-4.079 1.32 1.435-10.03-.903 1.29-.912-.34 3.793-2.55-.23Zm19.91-.744c-.91-.082-1.72-.305-2.45-.67a6.043 6.043 0 0 1-1.86-1.422 5.715 5.715 0 0 1-1.13-1.996c-.23-.76-.3-1.57-.23-2.431a6.3 6.3 0 0 1 .66-2.334 5.77 5.77 0 0 1 1.46-1.764c.62-.48 1.31-.835 2.09-1.065.78-.229 1.63-.303 2.53-.222.9.081 1.72.305 2.44.67.73.366 1.35.839 1.85 1.42a5.28 5.28 0 0 1 1.12 1.996c.25.751.33 1.556.25 2.417-.08.86-.3 1.643-.68 2.348a5.353 5.353 0 0 1-1.46 1.764c-.6.482-1.29.837-2.07 1.067-.78.229-1.62.303-2.52.222Zm.21-2.407c.66.06 1.25-.037 1.76-.291.53-.263.96-.647 1.28-1.154.34-.516.54-1.119.6-1.809.06-.691-.03-1.315-.27-1.872a3.099 3.099 0 0 0-1.05-1.348c-.46-.352-1.02-.557-1.68-.617-.65-.058-1.23.044-1.76.307-.53.253-.96.632-1.29 1.137-.33.506-.52 1.105-.58 1.795-.06.691.02 1.319.25 1.886.23.557.59 1.012 1.06 1.365.47.343 1.03.543 1.68.601Zm19.95-7.52-.2 2.168-5.99 8.761-2.93-.264 6.17-8.746-5.66-.51.19-2.167 8.42.758Zm4.54 12.153c-1-.09-1.84-.396-2.52-.918-.67-.531-1.16-1.255-1.46-2.172-.3-.926-.4-2.022-.28-3.286.17-1.912.73-3.345 1.67-4.299.94-.954 2.16-1.364 3.66-1.229s2.63.756 3.38 1.863c.76 1.107 1.05 2.617.88 4.529-.11 1.265-.4 2.326-.86 3.184-.47.847-1.08 1.472-1.84 1.874-.76.393-1.63.544-2.63.454Zm.2-2.199c.64.057 1.16-.206 1.56-.791.42-.594.69-1.518.8-2.772.11-1.264.02-2.22-.29-2.869-.29-.658-.76-1.016-1.4-1.074-.63-.057-1.16.211-1.58.806-.4.584-.66 1.508-.78 2.773-.11 1.253-.02 2.209.27 2.868.31.648.78 1.001 1.42 1.059Zm8.91 2.763-2.63-.237 9.25-10.653 2.63.237-9.25 10.653Zm6.37.799a2.848 2.848 0 0 1-1.39-.495 2.776 2.776 0 0 1-1.15-2.561c.05-.521.21-.977.5-1.369.28-.403.64-.708 1.09-.914.45-.206.93-.286 1.45-.239.53.048.99.213 1.39.495.4.282.7.647.91 1.094.21.436.29.92.24 1.451-.05.521-.21.983-.5 1.386-.28.403-.64.707-1.09.913-.44.207-.92.287-1.45.239Zm.16-1.833c.25.022.46-.049.65-.215.19-.176.29-.396.32-.662a.98.98 0 0 0-.2-.692.795.795 0 0 0-.59-.343.806.806 0 0 0-.65.231.958.958 0 0 0-.32.646c-.02.266.04.502.2.708.15.196.35.305.59.327Zm-6.78-5.078a2.801 2.801 0 0 1-1.39-.494c-.4-.282-.71-.647-.91-1.094a2.776 2.776 0 0 1-.24-1.467c.05-.521.21-.977.49-1.37.29-.403.65-.707 1.1-.913a2.79 2.79 0 0 1 1.45-.239c.53.048.99.213 1.38.494.41.283.71.648.92 1.095.2.436.28.92.24 1.451-.05.521-.22.982-.5 1.385s-.65.708-1.09.914c-.44.207-.92.286-1.45.238Zm.16-1.832c.25.022.46-.05.65-.215.18-.176.29-.397.31-.662a.928.928 0 0 0-.19-.692.797.797 0 0 0-.6-.343.788.788 0 0 0-.64.23.92.92 0 0 0-.32.647c-.02.265.04.501.19.708a.85.85 0 0 0 .6.327Z" fill="#243353"/></svg>