<svg width="207" height="25" fill="none" xmlns="http://www.w3.org/2000/svg"><mask id="b" style="mask-type:alpha" maskUnits="userSpaceOnUse" x="0" y="0" width="207" height="25"><path fill="url(#a)" d="M0 0h206.677v24.665H0z"/></mask><g mask="url(#b)"><path d="M10.188 21.552H7.575V4.106h2.613v17.446Zm6.369-17.174H1.234V2.092h15.323v2.286Zm6.674 17.609c-1.415 0-2.667-.308-3.756-.925a6.721 6.721 0 0 1-2.558-2.532c-.617-1.088-.926-2.331-.926-3.728 0-1.397.309-2.631.926-3.702a6.721 6.721 0 0 1 2.558-2.53c1.089-.636 2.34-.953 3.756-.953 1.415 0 2.658.317 3.729.952a6.721 6.721 0 0 1 2.558 2.531c.635 1.07.953 2.305.953 3.702 0 1.397-.318 2.64-.953 3.729a6.721 6.721 0 0 1-2.558 2.53c-1.07.618-2.314.926-3.729.926Zm0-2.177c.907 0 1.706-.209 2.395-.626.69-.418 1.225-1.007 1.606-1.77.38-.761.571-1.632.571-2.612 0-.98-.19-1.842-.571-2.586-.381-.762-.916-1.351-1.606-1.769-.69-.435-1.488-.653-2.395-.653s-1.715.218-2.422.653c-.69.418-1.225 1.007-1.606 1.77-.381.743-.572 1.605-.572 2.585s.19 1.85.572 2.613c.381.762.916 1.351 1.606 1.769.707.417 1.515.626 2.422.626Zm8.957 1.742v-2.123h1.034c.508 0 .88-.127 1.116-.381.254-.254.408-.699.463-1.334l.843-9.662h9.934v13.5h-2.53V8.515l1.796 1.66h-8.71l1.96-1.66-.925 9.634c-.11 1.27-.445 2.16-1.008 2.668-.562.49-1.406.735-2.53.735h-1.443Zm17.525 0v-13.5h2.504v13.119l-1.66-1.715h5.606c.835 0 1.48-.2 1.933-.599.472-.417.708-.989.708-1.715 0-.707-.236-1.252-.708-1.633-.454-.399-1.098-.598-1.932-.598h-5.199v-2.123h5.307c1.543 0 2.776.408 3.702 1.224.943.799 1.415 1.833 1.415 3.103 0 .871-.218 1.642-.653 2.314-.436.653-1.043 1.17-1.824 1.551-.762.381-1.642.572-2.64.572h-6.559Zm23.578 0-7.376-6.995h.272l6.668-6.505h3.24l-7.24 7.05-.517-1.416 8.41 7.866H73.29Zm-9.172 0v-13.5h2.531v13.5h-2.531Zm20.35.435c-1.416 0-2.667-.308-3.756-.925a6.721 6.721 0 0 1-2.559-2.532c-.617-1.088-.925-2.331-.925-3.728 0-1.397.308-2.631.925-3.702a6.721 6.721 0 0 1 2.559-2.53c1.089-.636 2.34-.953 3.756-.953 1.415 0 2.658.317 3.728.952a6.721 6.721 0 0 1 2.559 2.531c.635 1.07.952 2.305.952 3.702 0 1.397-.317 2.64-.952 3.729a6.721 6.721 0 0 1-2.559 2.53c-1.07.618-2.313.926-3.728.926Zm0-2.177c.907 0 1.705-.209 2.395-.626.69-.418 1.224-1.007 1.606-1.77.38-.761.571-1.632.571-2.612 0-.98-.19-1.842-.571-2.586-.382-.762-.917-1.351-1.606-1.769-.69-.435-1.488-.653-2.395-.653s-1.715.218-2.423.653c-.69.418-1.224 1.007-1.605 1.77-.381.743-.572 1.605-.572 2.585s.19 1.85.572 2.613c.38.762.916 1.351 1.605 1.769.708.417 1.515.626 2.423.626Zm26.112-2.096 1.714 1.633a7.01 7.01 0 0 1-2.422 1.932c-.962.472-2.05.708-3.266.708-1.379 0-2.613-.308-3.701-.925a6.778 6.778 0 0 1-2.532-2.532c-.617-1.088-.925-2.331-.925-3.728 0-1.38.308-2.604.925-3.674a6.665 6.665 0 0 1 2.559-2.559c1.107-.635 2.349-.952 3.728-.952 1.198 0 2.268.235 3.212.707a7.01 7.01 0 0 1 2.422 1.933l-1.714 1.633a4.877 4.877 0 0 0-1.579-1.524c-.635-.382-1.397-.572-2.286-.572-.907 0-1.715.218-2.422.653-.69.418-1.234 1.007-1.633 1.77-.381.743-.572 1.605-.572 2.585s.191 1.85.572 2.613a4.646 4.646 0 0 0 1.633 1.769c.707.417 1.515.626 2.422.626.907 0 1.669-.19 2.286-.572a4.877 4.877 0 0 0 1.579-1.524Zm15.41-.136 1.579 1.633a7.409 7.409 0 0 1-2.613 2.041c-1.016.49-2.168.735-3.456.735-1.47 0-2.776-.308-3.92-.925-1.143-.617-2.041-1.461-2.694-2.532-.635-1.088-.953-2.331-.953-3.728 0-1.397.309-2.631.926-3.702a6.67 6.67 0 0 1 2.558-2.558c1.089-.617 2.314-.925 3.674-.925 1.325 0 2.495.308 3.511.925a6.307 6.307 0 0 1 2.423 2.504c.598 1.052.898 2.277.898 3.674v.163h-2.559v-.244c0-.98-.181-1.833-.544-2.559-.363-.744-.871-1.315-1.524-1.714-.635-.418-1.37-.626-2.205-.626-.889 0-1.678.208-2.367.626-.69.417-1.225 1.007-1.606 1.769-.381.744-.572 1.623-.572 2.64 0 1.016.209 1.914.626 2.694a4.552 4.552 0 0 0 1.797 1.77c.762.416 1.633.625 2.612.625 1.797 0 3.266-.762 4.409-2.286Zm1.933-1.932h-12.112v-1.878h11.676l.436.952v.925Zm3.28 5.906v-13.5h9.58v2.123h-9.09l2.041-1.606v12.983h-2.531Zm18.303.435c-1.415 0-2.667-.308-3.756-.925a6.726 6.726 0 0 1-2.558-2.532c-.617-1.088-.925-2.331-.925-3.728 0-1.397.308-2.631.925-3.702a6.726 6.726 0 0 1 2.558-2.53c1.089-.636 2.341-.953 3.756-.953 1.415 0 2.658.317 3.729.952a6.719 6.719 0 0 1 2.558 2.531c.635 1.07.953 2.305.953 3.702 0 1.397-.318 2.64-.953 3.729a6.719 6.719 0 0 1-2.558 2.53c-1.071.618-2.314.926-3.729.926Zm0-2.177c.907 0 1.706-.209 2.395-.626.69-.418 1.225-1.007 1.606-1.77.381-.761.572-1.632.572-2.612 0-.98-.191-1.842-.572-2.586-.381-.762-.916-1.351-1.606-1.769-.689-.435-1.488-.653-2.395-.653s-1.714.218-2.422.653c-.69.418-1.225 1.007-1.606 1.77-.381.743-.571 1.605-.571 2.585s.19 1.85.571 2.613c.381.762.916 1.351 1.606 1.769.708.417 1.515.626 2.422.626Zm8.946.816v-1.17h.49c.381 0 .671-.082.871-.245.217-.163.39-.435.517-.817.127-.399.227-.952.299-1.66l.98-8.682h9.716V20.3h-2.504V8.515l1.769 1.66h-8.573l2.014-1.66-1.034 8.41c-.109.925-.29 1.66-.544 2.204-.236.526-.59.907-1.062 1.143-.472.236-1.116.354-1.932.354h-1.007Zm-.599 4.491v-5.661h15.486v5.661h-2.395v-5.171l1.579 1.606h-13.228l.953-1.606v5.171h-2.395Zm29.005-3.565v-13.5h2.531v13.5h-2.531Zm-10.152 0v-13.5h2.531v13.5h-2.531Zm1.225-6.043v-2.095h10.342v2.095h-10.342Zm24.281 6.043V8.433l1.606 1.66h-5.361c-.708 0-1.325.173-1.851.517-.526.327-.789.871-.789 1.633 0 .69.235 1.225.707 1.606s1.125.572 1.96.572h4.926v1.96h-5.09c-1.524 0-2.748-.373-3.674-1.117-.925-.762-1.388-1.769-1.388-3.02 0-.799.218-1.506.653-2.123.454-.636 1.062-1.134 1.824-1.497.78-.381 1.651-.572 2.613-.572h6.287v13.5h-2.423Zm-9.58 0 4.818-6.151h2.694l-4.572 6.15h-2.94Z" fill="#F37E60"/></g><defs><linearGradient id="a" x1="116.865" y1="-38.191" x2="71.115" y2="78.769" gradientUnits="userSpaceOnUse"><stop stop-opacity="0"/><stop offset="1"/></linearGradient></defs></svg>