<svg width="74" height="66" viewBox="0 0 74 66" fill="none" xmlns="http://www.w3.org/2000/svg">
<path d="M47.9809 50.8926H25.4258V63.5234H47.9809V50.8926Z" fill="#6683C2"/>
<path opacity="0.5" d="M47.9809 50.8926H25.4258V63.5234H47.9809V50.8926Z" fill="#6683C2"/>
<g opacity="0.7">
<path d="M47.9809 51.1797H25.4258V55.1576H47.9809V51.1797Z" fill="#153F59"/>
<path opacity="0.5" d="M47.9809 51.1797H25.4258V55.1576H47.9809V51.1797Z" fill="#6683C2"/>
</g>
<path d="M70.5359 53.6401H2.82964C1.27129 53.6401 0 52.3688 0 50.8105V2.82964C0 1.27129 1.27129 0 2.82964 0H70.5359C72.0943 0 73.3655 1.27129 73.3655 2.82964V50.7695C73.3655 52.3688 72.0943 53.6401 70.5359 53.6401Z" fill="#92ADE8"/>
<path d="M70.5078 47.6874L70.5078 2.86426L2.88355 2.86426L2.88355 47.6874L70.5078 47.6874Z" fill="#F5F8FF"/>
<path d="M43.3474 52.0409H30.0604C29.4042 52.0409 28.9121 51.5078 28.9121 50.8926C28.9121 50.2365 29.4452 49.7444 30.0604 49.7444H43.3474C44.0035 49.7444 44.4956 50.2775 44.4956 50.8926C44.4956 51.5078 43.9625 52.0409 43.3474 52.0409Z" fill="#6683C2"/>
<path d="M70.4953 2.87109H2.87109V4.55247H70.4953V2.87109Z" fill="#7595C7"/>
<path d="M55.6894 65.861H17.7148C17.7148 63.2774 19.8063 61.2269 22.3489 61.2269H51.0554C53.5979 61.1859 55.6894 63.2774 55.6894 65.861Z" fill="#92ADE8"/>
<path d="M45.166 25.3005C46.4994 26.0703 46.4993 27.9948 45.166 28.7646L34.2093 35.0904C32.876 35.8602 31.2093 34.898 31.2093 33.3584L31.2093 20.7066C31.2093 19.167 32.876 18.2048 34.2093 18.9746L45.166 25.3005Z" fill="#F37E60"/>
</svg>
