<svg width="63" height="88" viewBox="0 0 63 88" fill="none" xmlns="http://www.w3.org/2000/svg">
<path d="M50.336 0C51.6947 0 52.8 1.10528 52.8 2.464V85.536C52.8 86.8947 51.6947 88 50.336 88H2.464C1.10528 88 0 86.8947 0 85.536V2.464C0 1.10528 1.10528 0 2.464 0" fill="#6682C1"/>
<path d="M48.4006 84.4805H4.40062C3.4291 84.4805 2.64062 83.692 2.64062 82.7205V5.28051C2.64062 4.30899 3.4291 3.52051 4.40062 3.52051H48.4006C49.3721 3.52051 50.1606 4.30899 50.1606 5.28051V82.7205C50.1606 83.692 49.3721 84.4805 48.4006 84.4805Z" fill="#DEE5F6"/>
<path d="M26.3995 2.59789C26.8855 2.59789 27.2795 2.2039 27.2795 1.71789C27.2795 1.23188 26.8855 0.837891 26.3995 0.837891C25.9135 0.837891 25.5195 1.23188 25.5195 1.71789C25.5195 2.2039 25.9135 2.59789 26.3995 2.59789Z" fill="white"/>
<path d="M28.3165 15.6425C30.6749 16.0015 32.6602 17.8601 33.85 20.1199C34.3709 21.1196 34.7722 22.2389 34.7441 23.4005C34.73 24.0623 34.5751 24.717 34.5962 25.3788C34.6737 27.6879 36.7293 29.1663 37.8487 31.0953C38.6724 32.5174 38.9892 34.3407 38.5457 35.9881C38.1021 37.6354 36.842 39.0434 35.3284 39.3884C34.7652 39.5151 34.1527 39.5151 33.6669 39.8742C33.1319 40.2754 32.8996 41.0076 32.4913 41.5638C31.6746 42.6761 30.2666 42.9436 28.9924 43.1337C26.5706 43.4927 23.8391 43.7532 21.9876 42.0495C21.354 41.4652 20.8612 40.6767 20.122 40.2684C18.7281 39.501 16.9892 40.3388 15.4897 39.8812C14.0324 39.4377 13.0468 37.6636 13.3354 36.0092C13.8564 33.0524 17.5665 31.6374 17.8481 28.6524C17.9396 27.6668 17.6157 26.7023 17.4397 25.7378C17.13 24.0623 17.2989 22.1897 18.2353 20.7957C18.8266 19.9158 19.77 19.2892 20.7485 19.1625C21.9946 19.0006 22.1565 19.4511 22.945 18.2402C24.17 16.3606 26.2397 15.3327 28.3165 15.6425Z" fill="#3D3D3D"/>
<path opacity="0.4" d="M13.3354 36.0164C13.8564 33.0596 17.5665 31.6445 17.8481 28.6596C17.9396 27.674 17.6157 26.7095 17.4397 25.745C17.2004 24.4497 17.2497 23.0417 17.7143 21.8237C17.7213 22.7882 17.8269 24.5271 18.4042 25.8436C19.249 27.7655 19.1082 29.9409 18.4042 32.2852C17.1652 36.4247 23.9377 38.8113 28.8657 37.9946C33.5684 37.2132 37.5671 36.1149 36.7927 29.6029C37.1729 30.0817 37.546 30.5745 37.8487 31.0954C38.6724 32.5175 38.9892 34.3409 38.5457 35.9882C38.1021 37.6356 36.842 39.0436 35.3284 39.3885C34.7652 39.5153 34.1527 39.5153 33.6669 39.8743C33.1319 40.2756 32.8996 41.0077 32.4913 41.5639C31.6746 42.6762 30.2666 42.9437 28.9924 43.1338C26.5706 43.4929 23.8391 43.7533 21.9876 42.0497C21.354 41.4653 20.8612 40.6769 20.122 40.2685C18.7281 39.5012 16.9892 40.3389 15.4897 39.8813C14.0324 39.4449 13.0468 37.6708 13.3354 36.0164Z" fill="#202224"/>
<path d="M61.1372 30.1946C60.7077 30.6382 60.2008 31.0183 59.701 31.3914C59.5391 31.5111 59.3631 31.6378 59.1519 31.673C58.9336 31.7082 58.7084 31.6378 58.4972 31.5745C58.2437 31.49 57.9762 31.3985 57.8072 31.2084C57.6172 30.9972 57.596 30.7015 57.5749 30.427C57.3989 27.435 60.0037 24.8372 60.4754 24.3092C61.4751 23.2039 62.693 23.218 61.7285 25.6538C61.5455 26.1114 62.0172 26.5902 62.1509 27.0618C62.4677 28.2094 61.9538 29.3428 61.1372 30.1946Z" fill="#FFCAAD"/>
<path d="M57.3213 28.5823C57.441 27.8783 57.7226 27.1954 58.2224 26.6886C58.7222 26.1817 59.4474 25.879 60.1514 25.9775C60.3978 26.0127 60.6864 26.1606 60.6653 26.407C60.6512 26.6111 60.447 26.7308 60.2781 26.8364C59.9472 27.0546 59.6797 27.3644 59.5178 27.7305C59.3136 28.1881 59.2784 28.695 59.208 29.1948C59.1376 29.6876 59.0109 30.2015 58.673 30.5676C58.4054 30.8562 57.5747 31.2082 57.3354 30.7154C57.2157 30.469 57.265 30.0114 57.2579 29.7439C57.2368 29.3567 57.2579 28.9695 57.3213 28.5823Z" fill="#FFCAAD"/>
<path d="M62.6493 28.4559C62.5015 28.9346 62.0861 29.2936 61.6215 29.4767C61.361 29.5752 61.0724 29.6315 60.8049 29.5471C60.4036 29.4203 60.1361 28.9979 60.1149 28.5826C60.0938 28.1602 60.2769 27.7519 60.5373 27.421C60.7415 27.1605 61.002 26.9352 61.3188 26.8507C62.1565 26.6325 62.8746 27.7167 62.6493 28.4559Z" fill="#FFCAAD"/>
<path d="M40.2775 70.2942C35.1805 74.2084 30.3088 77.2286 27.2535 79.0027C24.3459 77.3131 19.7981 74.4971 14.9757 70.8574C15.2784 67.795 15.4192 64.7185 15.1517 62.9867C14.6167 59.53 14.2365 56.8196 14.0535 53.3278C13.7719 47.9633 15.0743 42.7537 17.5664 37.9947C25.592 34.6155 32.9277 36.3825 34.5258 36.9387C38.7991 38.4171 45.4589 39.9799 49.5491 38.058C53.4775 36.2135 55.0122 33.6651 56.5328 29.7227C58.2083 30.2366 59.1095 31.7431 59.2784 32.6302C58.4125 38.4734 53.6112 47.2875 40.0099 48.0619C38.433 49.4699 38.2851 56.6225 39.1722 62.8318C39.4327 64.6199 39.8269 67.4148 40.2775 70.2942Z" fill="#F37E60"/>
<path opacity="0.33" d="M40.2779 70.2939C35.1809 74.2081 30.3092 77.2283 27.2539 79.0023C24.3464 77.3127 19.7985 74.4967 14.9761 70.8571C15.2788 67.7947 15.4196 64.7182 15.1521 62.9863C14.6452 59.7127 14.2792 57.1009 14.082 53.8695C14.9057 51.9547 15.8772 50.5255 17.0248 49.9412C16.5531 54.3201 24.5716 56.8545 27.8312 56.8545C31.0907 56.8545 36.0539 55.7633 36.955 49.9412C37.835 44.274 42.4884 46.5409 49.7819 43.0139C55.3998 40.2964 57.6878 33.8267 58.4481 30.9966C58.9198 31.5598 59.1944 32.1723 59.2859 32.6228C58.42 38.466 53.6187 47.2801 40.0174 48.0545C38.4404 49.4625 38.2926 56.6151 39.1796 62.8244C39.4331 64.6196 39.8273 67.4145 40.2779 70.2939Z" fill="#C2654D"/>
<path d="M34.0199 57.8611L21.2916 73.1168L11.0625 64.3802L23.7838 48.6035L34.0199 57.8611Z" fill="#6683C2"/>
<path d="M26.9713 64.4512C27.4993 64.4371 28.0344 64.4301 28.5624 64.416C28.858 64.409 29.1608 64.4019 29.4494 64.4864C29.731 64.5709 30.0056 64.761 30.1112 65.0355C30.2168 65.3171 30.1041 65.6762 29.8296 65.7888C30.0689 66.4506 30.1816 67.2883 29.8155 67.8938C29.4494 68.4992 28.6961 68.816 27.9992 68.7386C27.2952 68.6682 26.6616 68.2387 26.2392 67.6755C25.8238 67.1053 25.6056 66.4083 25.5352 65.7043L26.9713 64.4512Z" fill="#FFCAAD"/>
<path d="M27.9019 32.6582L28.3806 37.1075C28.4229 37.5299 28.1694 37.9382 27.7611 38.0649C26.3672 38.5155 25.0014 38.2832 24.1426 37.4595C23.9384 37.2624 23.8398 36.9808 23.868 36.6992L24.5157 31.2432L27.9019 32.6582Z" fill="#FFCAAD"/>
<path d="M16.6443 50.1527C15.4335 52.9687 16.2431 56.0311 18.3269 58.2417C20.284 60.3185 27.2536 64.3453 27.2536 64.3453L25.6837 66.6193C25.6837 66.6193 20.6571 65.7252 18.2354 64.5284C16.0952 63.4724 13.8143 62.5572 12.2443 60.769C9.61138 57.7629 8.94258 53.4052 9.6325 49.4698C10.0338 47.1818 11.4981 40.5431 17.5525 37.9946C19.2773 39.466 19.8123 41.9652 19.4885 44.2109C19.1717 46.4567 17.5384 48.0689 16.6443 50.1527Z" fill="#F37E60"/>
<path opacity="0.6" d="M24.4262 32.0039L27.7491 32.5953L27.8969 32.6586L28.2841 36.2772C27.5731 36.4461 26.3833 36.4673 25.0175 35.4465C24.6515 35.1719 24.3558 34.8903 24.1094 34.6087L24.4262 32.0039Z" fill="#FFCAAD"/>
<path d="M22.9294 22.4223C24.098 20.9369 26.1537 20.2117 27.9911 20.6271C29.378 20.9369 30.8635 21.838 31.5604 23.07C32.3841 24.5343 31.3563 26.4773 31.6942 28.1177C31.7857 28.5823 31.8843 29.061 31.8631 29.5327C31.8209 30.4338 31.4407 31.1449 30.8635 31.8418C30.1031 32.7641 29.3147 34.1721 28.1812 34.5663C26.9985 34.9817 25.6187 34.2425 24.5627 33.5737C23.5067 32.9049 22.6971 31.8981 22.0212 30.8492C21.6833 31.0252 21.4087 30.99 21.0638 30.821C20.7259 30.6521 20.4513 30.3634 20.2331 30.0537C19.9233 29.6242 19.691 29.1244 19.6417 28.5964C19.5924 28.0684 19.7473 27.5122 20.1275 27.1391C20.5076 26.766 21.2468 26.8786 21.7185 27.1109C21.2539 24.9708 22.3943 23.0981 22.9294 22.4223Z" fill="#FFCAAD"/>
<path d="M29.1764 26.3722C29.1764 26.7078 29.396 26.9987 29.6682 26.9987C29.9405 26.9987 30.1601 26.7078 30.1601 26.3722C30.1601 26.0254 29.9405 25.7345 29.6682 25.7345C29.396 25.7345 29.1764 26.0254 29.1764 26.3722ZM30.8185 24.6932C30.8596 24.6931 30.8995 24.6794 30.9317 24.6543C30.9639 24.6291 30.9863 24.5941 30.9955 24.5549C31.0046 24.5156 30.9998 24.4745 30.982 24.4383C30.9641 24.402 30.9342 24.3728 30.8971 24.3553C29.7986 23.8418 28.7161 24.0335 28.6701 24.0419C28.6228 24.0506 28.581 24.0773 28.5538 24.1162C28.5266 24.155 28.5164 24.2028 28.5252 24.2491C28.5296 24.272 28.5385 24.2939 28.5516 24.3134C28.5646 24.333 28.5814 24.3499 28.6011 24.3631C28.6208 24.3763 28.6429 24.3855 28.6663 24.3903C28.6896 24.3952 28.7137 24.3954 28.7372 24.3911C28.7471 24.3894 29.7523 24.2142 30.7401 24.6758C30.7645 24.6873 30.7913 24.6932 30.8185 24.6932ZM24.8243 26.3722C24.8243 26.7078 24.6046 26.9987 24.3324 26.9987C24.0601 26.9987 23.8405 26.7078 23.8405 26.3722C23.8405 26.0254 24.0601 25.7345 24.3324 25.7345C24.6047 25.7345 24.8243 26.0254 24.8243 26.3722ZM23.1823 24.6932C23.2094 24.6932 23.2361 24.6873 23.2605 24.6758C24.2481 24.2146 25.253 24.3893 25.2632 24.3911C25.3106 24.3996 25.3595 24.3895 25.3992 24.3628C25.4389 24.3362 25.4662 24.2953 25.4752 24.2491C25.4841 24.2028 25.4738 24.155 25.4466 24.1162C25.4195 24.0773 25.3776 24.0506 25.3303 24.0419C25.2845 24.0337 24.2022 23.8421 23.1035 24.3553C23.06 24.3756 23.0266 24.412 23.0105 24.4565C22.9945 24.5009 22.9971 24.5498 23.0179 24.5923C23.0328 24.6225 23.0561 24.648 23.0852 24.6659C23.1143 24.6837 23.1479 24.6932 23.1823 24.6932ZM27.0003 32.0002C27.7984 32.0002 28.5963 31.7172 29.2327 31.1514C29.2504 31.1357 29.2647 31.1167 29.2749 31.0956C29.285 31.0745 29.2909 31.0517 29.292 31.0284C29.2931 31.0051 29.2895 30.9818 29.2814 30.9599C29.2733 30.9379 29.2609 30.9178 29.2448 30.9005C29.2123 30.8658 29.1671 30.845 29.1189 30.8428C29.0708 30.8406 29.0238 30.8571 28.9881 30.8888C27.8549 31.8964 26.1457 31.8964 25.0125 30.8888C24.9948 30.8731 24.9742 30.8609 24.9518 30.853C24.9293 30.8451 24.9055 30.8416 24.8817 30.8427C24.8578 30.8438 24.8345 30.8495 24.8129 30.8594C24.7913 30.8693 24.7719 30.8833 24.7558 30.9005C24.7398 30.9178 24.7273 30.9379 24.7192 30.9599C24.7112 30.9818 24.7076 31.0051 24.7087 31.0284C24.7098 31.0517 24.7156 31.0745 24.7258 31.0956C24.7359 31.1167 24.7502 31.1357 24.7679 31.1514C25.4042 31.7172 26.2022 32.0002 27.0003 32.0002Z" fill="black"/>
<path d="M27.0089 27.1997C27.2755 27.333 27.8086 28.0794 27.8086 28.3993C27.8086 28.7192 27.4087 28.7992 27.0089 28.7992" stroke="black" stroke-width="0.3" stroke-linecap="round"/>
<path opacity="0.33" d="M25.6915 66.6196C25.6915 66.6196 20.665 65.7255 18.2432 64.5287C16.103 63.4727 13.8221 62.5575 12.2521 60.7694C9.61919 57.7633 8.95039 53.4055 9.64031 49.4702C9.84447 48.2945 10.3373 45.9642 11.5904 43.627C10.7949 48.6746 10.1401 58.5377 16.5465 61.6634C21.3549 64.0078 24.5792 65.113 26.3181 65.7185L25.6915 66.6196Z" fill="#C2654D"/>
<path opacity="0.6" d="M19.8742 27.7302C19.6489 29.99 22.662 30.1379 22.662 30.1379C22.662 30.1379 24.767 32.7708 27.1395 33.2214C28.47 33.4748 30.0963 32.3414 31.2649 31.2995C31.1452 31.4825 31.0115 31.6585 30.8707 31.8345C30.1103 32.7568 29.3219 34.1648 28.1884 34.559C27.0057 34.9744 25.6259 34.2352 24.5699 33.5664C23.5139 32.8976 22.7043 31.8908 22.0284 30.8419C21.6905 31.0179 21.4159 30.9827 21.071 30.8137C20.7331 30.6448 20.4585 30.3561 20.2403 30.0464C19.9305 29.6169 19.6982 29.1171 19.6489 28.5891C19.6137 28.2089 19.6911 27.8076 19.8742 27.4697C19.8812 27.5542 19.8812 27.6316 19.8742 27.7302Z" fill="#FFCAAD"/>
<path d="M4.39861 84.7686C3.27925 84.7686 2.37109 83.8605 2.37109 82.7411V70.1606H50.4191V82.7482C50.4191 83.8675 49.5109 84.7757 48.3916 84.7757H4.39861V84.7686Z" fill="white"/>
<path d="M30.953 78.2526C31.3612 75.7374 29.6531 73.3675 27.1379 72.9593C24.6227 72.5511 22.2528 74.2592 21.8446 76.7744C21.4364 79.2896 23.1445 81.6595 25.6597 82.0677C28.1749 82.4759 30.5448 80.7679 30.953 78.2526Z" fill="#E07C7C"/>
<path d="M45.5443 78.5835C46.1299 76.1037 44.5943 73.6188 42.1145 73.0332C39.6347 72.4477 37.1497 73.9832 36.5641 76.463C35.9786 78.9428 37.5142 81.4278 39.994 82.0134C42.4738 82.5989 44.9588 81.0633 45.5443 78.5835Z" fill="#6783C2"/>
<path d="M12.8059 81.9937C15.2857 81.4081 16.8213 78.9231 16.2357 76.4433C15.6502 73.9635 13.1652 72.4279 10.6854 73.0135C8.20559 73.599 6.67 76.084 7.25555 78.5638C7.8411 81.0436 10.3261 82.5792 12.8059 81.9937Z" fill="#6783C2"/>
<path d="M26.3984 76.3706C27.7919 76.3706 28.82 76.9824 28.82 78.1719H27.8854" stroke="white" stroke-miterlimit="10" stroke-linecap="round" stroke-linejoin="round"/>
<path d="M26.3981 76.3706C25.0047 76.3706 23.9766 76.9824 23.9766 78.1719H24.9112" stroke="white" stroke-miterlimit="10" stroke-linecap="round" stroke-linejoin="round"/>
<path d="M41.4581 78.6904H40.6764C40.2176 78.6904 39.8438 78.3165 39.8438 77.8577V76.2433C39.8438 75.7845 40.2176 75.4106 40.6764 75.4106H41.4581C41.917 75.4106 42.2908 75.7845 42.2908 76.2433V77.8577C42.2908 78.3165 41.917 78.6904 41.4581 78.6904Z" stroke="white" stroke-miterlimit="10" stroke-linecap="round" stroke-linejoin="round"/>
<path d="M41.0586 78.6904V79.8545" stroke="white" stroke-miterlimit="10" stroke-linecap="round" stroke-linejoin="round"/>
<path d="M40.0977 79.8545H42.0264" stroke="white" stroke-miterlimit="10" stroke-linecap="round" stroke-linejoin="round"/>
<path d="M12.6539 76.0142H10.8271C10.3258 76.0142 9.91797 76.422 9.91797 76.9233V77.4076V77.8664V79.5658L11.4814 78.7756H12.6539C13.1552 78.7756 13.5631 78.3677 13.5631 77.8664V76.9233C13.5631 76.422 13.1552 76.0142 12.6539 76.0142Z" stroke="white" stroke-miterlimit="10" stroke-linecap="round" stroke-linejoin="round"/>
<path d="M6.857 8.90589C7.53741 8.90589 8.089 8.35431 8.089 7.67389C8.089 6.99348 7.53741 6.44189 6.857 6.44189C6.17659 6.44189 5.625 6.99348 5.625 7.67389C5.625 8.35431 6.17659 8.90589 6.857 8.90589Z" fill="#E07C7C"/>
</svg>
