<svg width="68" height="70" viewBox="0 0 68 70" fill="none" xmlns="http://www.w3.org/2000/svg">
<g clip-path="url(#clip0_101_2241)">
<path d="M54.1 70H17.6C10.4 70 4.5 64.1001 4.5 56.9001V20.4C4.5 13.2 10.4 7.30005 17.6 7.30005H54.1C61.3 7.30005 67.2 13.2 67.2 20.4V56.9001C67.2 64.1001 61.3 70 54.1 70Z" fill="#BFCDEE"/>
<path d="M67.2 18.8C67.2 12.5 62.1 7.30005 55.7 7.30005H16C9.7 7.30005 4.5 12.4 4.5 18.8V23.7001H67.2V18.8Z" fill="#E36E50"/>
<path d="M49.6 70H13.1C5.9 70 0 64.1001 0 56.9001V20.4C0 13.2 5.9 7.30005 13.1 7.30005H49.6C56.8 7.30005 62.7 13.2 62.7 20.4V56.9001C62.7 64.1001 56.8 70 49.6 70Z" fill="#DEE5F6"/>
<path d="M44.1004 64.7H18.5004C11.3004 64.7 5.40039 58.8 5.40039 51.6V26.1C5.40039 18.9 11.3004 13 18.5004 13H44.1004C51.3004 13 57.2004 18.9 57.2004 26.1V51.7C57.2004 58.9 51.4004 64.7 44.1004 64.7Z" fill="#F9F9F9"/>
<path d="M62.7 18.8C62.7 12.5 57.6 7.30005 51.2 7.30005H11.5C5.1 7.30005 0 12.5 0 18.8V23.7001H62.7V18.8Z" fill="#F37E60"/>
<path d="M19.7008 14.6C17.5008 14.6 15.8008 12.8 15.8008 10.7V3.9C15.8008 1.7 17.6008 0 19.7008 0C21.9008 0 23.6008 1.8 23.6008 3.9V10.7C23.7008 12.9 21.9008 14.6 19.7008 14.6Z" fill="#E4B13B"/>
<path d="M46.3004 14.6C44.1004 14.6 42.4004 12.8 42.4004 10.7V3.9C42.4004 1.7 44.2004 0 46.3004 0C48.5004 0 50.2004 1.8 50.2004 3.9V10.7C50.2004 12.9 48.4004 14.6 46.3004 14.6Z" fill="#E4B13B"/>
<path d="M18.0992 14.6C15.8992 14.6 14.1992 12.8 14.1992 10.7V3.9C14.1992 1.7 15.9992 0 18.0992 0C20.2992 0 21.9992 1.8 21.9992 3.9V10.7C21.9992 12.9 20.2992 14.6 18.0992 14.6Z" fill="#F2C45B"/>
<path d="M44.5992 14.6C42.3992 14.6 40.6992 12.8 40.6992 10.7V3.9C40.6992 1.7 42.4992 0 44.5992 0C46.7992 0 48.4992 1.8 48.4992 3.9V10.7C48.4992 12.9 46.7992 14.6 44.5992 14.6Z" fill="#F2C45B"/>
<path d="M16.9492 42.8036C16.9492 35.1714 20.9684 30.8496 26.4492 30.8496C31.8386 30.8496 35.9492 35.1714 35.9492 42.8036C35.9492 50.4358 31.93 54.8496 26.4492 54.8496C20.9684 54.7577 16.9492 50.4358 16.9492 42.8036ZM32.6608 42.8036C32.6608 36.8266 30.1031 33.7921 26.5406 33.7921C22.8867 33.7921 20.329 36.8266 20.329 42.8036C20.329 48.7806 22.8867 51.8151 26.5406 51.8151C30.1031 51.8151 32.6608 48.7806 32.6608 42.8036Z" fill="#6683C2"/>
<path d="M46.9492 30.8496V53.8496H43.5024V33.7359H37.9492V30.8496H46.9492Z" fill="#6683C2"/>
</g>
<defs>
<clipPath id="clip0_101_2241">
<rect width="67.2" height="70" fill="white"/>
</clipPath>
</defs>
</svg>
