<svg width="24" height="24" viewBox="0 0 24 24" fill="none" xmlns="http://www.w3.org/2000/svg">
<circle cx="12" cy="12" r="12" fill="#95A7CB" fill-opacity="0.43"/>
<path d="M16.1741 16.6173C16.2633 16.6173 16.3505 16.5909 16.4246 16.5413C16.4988 16.4918 16.5566 16.4214 16.5907 16.339C16.6248 16.2566 16.6337 16.166 16.6163 16.0785C16.5989 15.9911 16.556 15.9107 16.4929 15.8477L8.16218 7.51694C8.07763 7.43239 7.96295 7.38489 7.84338 7.38489C7.7238 7.38489 7.60913 7.43239 7.52457 7.51694C7.44002 7.60149 7.39252 7.71617 7.39252 7.83574C7.39252 7.95532 7.44002 8.07 7.52457 8.15455L15.8553 16.4853C15.8971 16.5272 15.9468 16.5604 16.0015 16.5831C16.0563 16.6057 16.1149 16.6174 16.1741 16.6173Z" fill="white"/>
<path d="M7.8434 16.6173C7.90262 16.6174 7.96126 16.6057 8.01597 16.5831C8.07068 16.5604 8.12038 16.5272 8.16221 16.4853L16.4929 8.15455C16.5775 8.07 16.625 7.95532 16.625 7.83574C16.625 7.71617 16.5775 7.60149 16.4929 7.51694C16.4084 7.43239 16.2937 7.38489 16.1741 7.38489C16.0546 7.38489 15.9399 7.43239 15.8553 7.51694L7.5246 15.8477C7.46154 15.9107 7.41859 15.9911 7.40119 16.0785C7.38379 16.166 7.39271 16.2566 7.42684 16.339C7.46097 16.4214 7.51876 16.4918 7.59291 16.5413C7.66706 16.5909 7.75423 16.6173 7.8434 16.6173Z" fill="white"/>
</svg>
