<svg width="143" height="143" viewBox="0 0 143 143" fill="none" xmlns="http://www.w3.org/2000/svg">
<path d="M0 68.4518C0 36.1833 0 20.049 10.0245 10.0245C20.049 0 36.1833 0 68.4518 0H74.404C106.672 0 122.807 0 132.831 10.0245C142.856 20.049 142.856 36.1833 142.856 68.4518V74.404C142.856 106.672 142.856 122.807 132.831 132.831C122.807 142.856 106.673 142.856 74.4043 142.856H68.452C36.1836 142.856 20.0492 142.856 10.0248 132.832C0 122.807 0 106.673 0 74.4043V68.4518Z" fill="#2787F5"/>
<path fill-rule="evenodd" clip-rule="evenodd" d="M38.6944 44.6426H28.2754C25.2985 44.6426 24.7031 46.0438 24.7031 47.5884C24.7031 50.3476 28.2355 64.0317 41.15 82.13C49.7599 94.4898 61.8901 101.19 72.9282 101.19C79.5512 101.19 80.3704 99.7016 80.3704 97.1383V87.7968C80.3704 84.8206 80.9979 84.2265 83.0947 84.2265C84.6402 84.2265 87.2894 84.9991 93.4707 90.9584C100.535 98.0211 101.7 101.19 105.673 101.19H116.092C119.069 101.19 120.558 99.7016 119.699 96.765C118.759 93.8381 115.387 89.5915 110.911 84.558C108.482 81.6886 104.84 78.5988 103.736 77.0536C102.191 75.0673 102.632 74.1842 103.736 72.4189C103.736 72.4189 116.43 54.5409 117.755 48.4718C118.417 46.2645 117.755 44.6426 114.604 44.6426H104.185C101.536 44.6426 100.314 46.0438 99.6518 47.5884C99.6518 47.5884 94.3535 60.5002 86.8477 68.8874C84.4192 71.3151 83.3154 72.0877 81.9906 72.0877C81.3285 72.0877 80.3698 71.3151 80.3698 69.1084V48.4718C80.3698 45.8231 79.6011 44.6426 77.393 44.6426H61.0204C59.365 44.6426 58.3692 45.8716 58.3692 47.0368C58.3692 49.5474 62.1222 50.1266 62.5089 57.1894V72.5291C62.5089 75.8921 61.9012 76.502 60.5767 76.502C57.0447 76.502 48.4527 63.5325 43.357 48.6919C42.359 45.8077 41.3573 44.6426 38.6944 44.6426Z" fill="white"/>
</svg>
