<svg width="49" height="91" fill="none" xmlns="http://www.w3.org/2000/svg"><path d="M2.66.112a2 2 0 1 0-1.32 3.776L2.66.112Zm8.46 81.204a2 2 0 0 0 1.197 2.564l16.916 6.151a2 2 0 0 0 1.367-3.76l-15.037-5.467 5.468-15.037a2 2 0 0 0-3.76-1.367l-6.15 16.916ZM1.34 3.889c19.848 6.947 31.542 14.633 37.745 22.214 6.11 7.468 6.971 14.922 4.933 21.9-2.077 7.106-7.213 13.857-13.353 19.538-6.12 5.663-13.072 10.11-18.51 12.648l1.69 3.624c5.812-2.712 13.11-7.39 19.537-13.336 6.407-5.929 12.114-13.272 14.475-21.353 2.399-8.21 1.292-17.037-5.676-25.553C35.305 15.166 22.812 7.165 2.66.112L1.339 3.888Z" fill="#F37E60"/></svg>