<svg width="888" height="150" viewBox="0 0 888 150" fill="none" xmlns="http://www.w3.org/2000/svg">
<g clip-path="url(#clip0_2028_1268)">
<rect width="888" height="150" fill="url(#paint0_linear_2028_1268)"/>
<path d="M377.31 62.6426L410.274 43.3823V41.4272L363.964 16.334L331 33.6391V35.5942L377.31 62.6426Z" fill="#BBB9F8"/>
<path d="M377.31 60.6889L410.274 41.4287L363.964 14.3965L331 33.6406L377.31 60.6889Z" fill="#CECCFA"/>
<path d="M377.31 57.5717L408.391 39.4264V34.9506L364.747 13.9453L333.666 27.6149V32.0907L377.31 57.5717Z" fill="#E8E6FF"/>
<path d="M377.31 53.0932L408.391 34.9478L364.747 9.4668L333.666 27.6121L377.31 53.0932Z" fill="#F4F7FF"/>
<path d="M364.094 15.7378L365.627 14.8329C366.265 14.4613 366.185 13.7988 365.451 13.3625C364.701 12.9263 363.567 12.8778 362.929 13.2494L361.396 14.1543C360.758 14.5259 360.838 15.1884 361.572 15.6247C362.322 16.0609 363.456 16.1094 364.094 15.7378Z" fill="#A4A2E5"/>
<path d="M357.672 19.4702L359.205 18.5653C359.843 18.1937 359.763 17.5312 359.029 17.095C358.279 16.6587 357.145 16.6102 356.507 16.9819L354.974 17.8867C354.336 18.2583 354.416 18.9208 355.15 19.3571C355.884 19.8095 357.034 19.858 357.672 19.4702Z" fill="#A4A2E5"/>
<path d="M351.256 23.2202L352.789 22.3153C353.427 21.9437 353.347 21.2812 352.613 20.845C351.863 20.4087 350.729 20.3602 350.091 20.7319L348.558 21.6367C347.92 22.0083 348 22.6708 348.734 23.1071C349.468 23.5433 350.602 23.5918 351.256 23.2202Z" fill="#A4A2E5"/>
<path d="M344.84 26.9526L346.373 26.0478C347.011 25.6761 346.931 25.0137 346.197 24.5774C345.447 24.1411 344.313 24.0926 343.675 24.4643L342.142 25.3691C341.504 25.7407 341.584 26.4032 342.318 26.8395C343.052 27.2758 344.186 27.3242 344.84 26.9526Z" fill="#A4A2E5"/>
<path d="M354.448 15.4955C354.352 15.2693 354.161 14.7361 354.097 14.5098C353.634 13.1041 353.746 11.763 354.416 10.8258C354.975 10.0341 355.917 9.59784 357.034 9.59784C359.636 9.59784 362.51 11.8761 363.42 14.6876C363.468 14.8492 363.643 14.93 363.803 14.8815C363.962 14.833 364.042 14.6553 363.994 14.5098C363.005 11.4722 359.876 9 357.034 9C355.725 9 354.624 9.51705 353.937 10.4704C353.171 11.5529 353.012 13.0879 353.538 14.6876C353.618 14.9461 353.858 15.5278 353.969 15.7702L354.448 15.4955Z" fill="#BBB9F8"/>
<path d="M348.032 19.2279C347.936 19.0017 347.745 18.4685 347.681 18.2423C347.218 16.8365 347.33 15.4954 348 14.5583C348.559 13.7665 349.501 13.3303 350.618 13.3303C353.22 13.3303 356.094 15.6085 357.004 18.42C357.052 18.5816 357.227 18.6624 357.387 18.6139C357.546 18.5654 357.626 18.3877 357.578 18.2423C356.589 15.2046 353.46 12.7324 350.618 12.7324C349.309 12.7324 348.208 13.2495 347.521 14.2028C346.755 15.2854 346.596 16.8204 347.122 18.42C347.202 18.6785 347.442 19.2602 347.553 19.5026L348.032 19.2279Z" fill="#BBB9F8"/>
<path d="M341.618 22.9779C341.522 22.7517 341.331 22.2185 341.267 21.9923C340.804 20.5866 340.916 19.2454 341.586 18.3083C342.145 17.5165 343.087 17.0803 344.204 17.0803C346.806 17.0803 349.68 19.3585 350.59 22.17C350.637 22.3316 350.813 22.4124 350.973 22.3639C351.132 22.3154 351.212 22.1377 351.164 21.9923C350.175 18.9546 347.046 16.4824 344.204 16.4824C342.895 16.4824 341.794 16.9995 341.107 17.9528C340.341 19.0354 340.181 20.5704 340.708 22.17C340.788 22.4286 341.028 23.0102 341.139 23.2526L341.618 22.9779Z" fill="#BBB9F8"/>
<path d="M335.202 26.7084C335.106 26.4822 334.915 25.949 334.851 25.7227C334.388 24.317 334.5 22.9759 335.17 22.0387C335.729 21.247 336.671 20.8107 337.788 20.8107C340.39 20.8107 343.264 23.089 344.174 25.9005C344.221 26.0621 344.397 26.1428 344.557 26.0944C344.716 26.0459 344.796 25.8682 344.748 25.7227C343.759 22.685 340.63 20.2129 337.788 20.2129C336.479 20.2129 335.378 20.7299 334.691 21.6833C333.925 22.7658 333.765 24.3008 334.292 25.9005C334.372 26.159 334.612 26.7407 334.723 26.983L335.202 26.7084Z" fill="#BBB9F8"/>
<path d="M372.377 14.4922L342.717 31.8781" stroke="#CECCFA" stroke-width="1.5167" stroke-miterlimit="10" stroke-linecap="round" stroke-linejoin="round"/>
<path d="M378.857 18.5352L349.197 35.9049" stroke="#CECCFA" stroke-width="1.5167" stroke-miterlimit="10" stroke-linecap="round" stroke-linejoin="round"/>
<path d="M385.181 22.5879L355.521 39.9738" stroke="#CECCFA" stroke-width="1.5167" stroke-miterlimit="10" stroke-linecap="round" stroke-linejoin="round"/>
<path d="M391.791 26.418L362.131 43.8039" stroke="#CECCFA" stroke-width="1.5167" stroke-miterlimit="10" stroke-linecap="round" stroke-linejoin="round"/>
<path d="M398.412 30.4258L368.752 47.7955" stroke="#CECCFA" stroke-width="1.5167" stroke-miterlimit="10" stroke-linecap="round" stroke-linejoin="round"/>
<path d="M822.37 16.7568C823.399 28.2863 819.808 35.4367 815.956 39.7197C813.981 41.9163 811.927 43.37 810.369 44.2734C809.591 44.7249 808.937 45.0386 808.481 45.2383C808.391 45.2778 808.307 45.3091 808.232 45.3398C805.204 36.7437 808.748 29.5907 813.175 24.501C815.428 21.9106 817.897 19.8736 819.805 18.4824C820.758 17.7876 821.569 17.2557 822.141 16.8975C822.222 16.8466 822.299 16.8006 822.37 16.7568Z" fill="#BBB9F8" stroke="#BBB9F8"/>
<path opacity="0.34" d="M812.074 104.882C821.389 104.882 828.941 102.444 828.941 99.437C828.941 96.4299 821.389 93.9922 812.074 93.9922C802.759 93.9922 795.207 96.4299 795.207 99.437C795.207 102.444 802.759 104.882 812.074 104.882Z" fill="#9998C8"/>
<path d="M828.485 77.1354L786.293 75.8887L793.105 97.0193C793.356 98.9784 794.764 100.887 797.328 102.388C802.996 105.695 812.171 105.721 817.802 102.426C820.165 101.052 821.535 99.2964 821.899 97.5027L828.485 77.1354Z" fill="white"/>
<path d="M828.485 77.1367C822.628 88.9551 816.784 100.786 807.383 104.883C811.153 104.921 814.936 104.107 817.802 102.427C820.165 101.053 821.535 99.2978 821.899 97.504L828.485 77.1367Z" fill="#E5E4FF"/>
<path d="M828.934 74.6617C828.971 67.7623 819.423 62.1166 807.609 62.0519C795.795 61.9872 786.188 67.5278 786.151 74.4273C786.114 81.3268 795.661 86.9724 807.475 87.0371C819.29 87.1019 828.897 81.5612 828.934 74.6617Z" fill="#F9F9FF"/>
<path d="M825.755 74.2446C825.787 68.3217 817.591 63.4752 807.45 63.4196C797.309 63.364 789.062 68.1204 789.03 74.0433C788.998 79.9661 797.194 84.8126 807.335 84.8682C817.476 84.9238 825.723 80.1675 825.755 74.2446Z" fill="#BBB9F8"/>
<path d="M807.734 25.498V77.2241" stroke="#D7D6FB" stroke-width="8" stroke-miterlimit="10" stroke-linecap="round" stroke-linejoin="round"/>
<path d="M807.535 62.9143C807.535 62.9143 808.327 44.379 785 38.209C785 38.209 788.381 62.9652 807.535 62.9143Z" fill="#D7D6FB"/>
<path d="M808.178 56.1465C808.178 56.1465 826.339 53.5513 828.074 29.2148C828.074 29.2276 804.621 37.115 808.178 56.1465Z" fill="#CDCCFF"/>
<path d="M807.913 41.9744C807.913 41.9744 816.045 24.4313 795.998 9C795.998 9.01272 789.413 34.2524 807.913 41.9744Z" fill="#D7D6FB"/>
<path d="M807.961 40.9183L796.436 10.0684" stroke="#BBB9F8" stroke-miterlimit="10" stroke-linecap="round" stroke-linejoin="round"/>
<path opacity="0.34" d="M571.503 135.511L681.609 71.2137C682.885 70.4676 685.124 70.568 686.599 71.429L751.072 109.009C752.546 109.87 752.702 111.175 751.426 111.922L649.968 174.655C646.466 176.821 642.27 177.539 638.258 176.649C637.563 176.549 636.897 176.334 636.33 176.004L571.857 138.424C570.397 137.577 570.227 136.257 571.503 135.511Z" fill="#9998C8"/>
<path d="M560.714 127.835L563.436 129.571L564.57 125.668H560.416L560.714 127.835Z" fill="#BBB9F8"/>
<path d="M564.4 127.864L672.663 64.6428C675.059 63.251 676.235 59.3911 675.3 56.0909L656.176 -11.0188C655.24 -14.3191 652.504 -15.8831 650.109 -14.4913L541.562 49.2895C539.166 50.6814 538.457 53.2355 539.407 56.55L558.347 124.392C559.282 127.706 562.004 129.27 564.4 127.864Z" fill="#BBB9F8"/>
<path d="M567.192 129.657L675.455 66.4358C677.851 65.0439 679.028 61.1841 678.092 57.8838L658.968 -9.22586C658.033 -12.5261 655.297 -14.0901 652.901 -12.6983L543.603 51.2403C541.207 52.6322 540.725 54.4975 541.675 57.8121L561.125 126.185C562.074 129.499 564.796 131.063 567.192 129.657Z" fill="#EEEEFF"/>
<path d="M672.123 36.9201L658.982 -9.22586C658.046 -12.5261 655.31 -14.0901 652.914 -12.6983L583.168 28.1099L672.123 36.9201Z" fill="white" fill-opacity="0.62"/>
<path d="M565.348 133.116V129.543L581.239 138.898L582.146 136.789L687.957 75.0028C689.233 74.2567 691.77 74.3571 693.23 75.218L739.076 101.821V101.075L746.037 104.49L747.015 104.088L746.887 107.331C746.774 108.034 746.504 108.335 746.079 108.579L635.959 173.049C634.683 173.795 632.443 173.78 630.969 172.92L567.049 135.971C565.333 135.082 565.348 133.116 565.348 133.116Z" fill="#BBB9F8"/>
<path d="M565.348 133.116V129.543L581.239 138.898L582.146 136.789L634.045 106.484L635.959 173.063C635.321 173.436 634.442 173.623 633.535 173.608C632.628 173.594 631.706 173.379 630.969 172.948L567.049 135.971C565.333 135.082 565.348 133.116 565.348 133.116Z" fill="#BBB9F8"/>
<path d="M566.202 129.357L676.308 65.0594C677.584 64.3133 679.824 64.4137 681.298 65.2747L745.771 102.854C747.245 103.715 747.401 105.021 746.125 105.767L636.019 170.065C634.744 170.811 632.504 170.71 631.029 169.849L566.556 132.27C565.096 131.409 564.926 130.089 566.202 129.357Z" fill="#D0CFF8"/>
<path d="M681.399 83.1664C681.555 83.2668 681.881 83.2238 682.122 83.0803L688.813 79.1774C689.054 79.0339 689.125 78.8474 688.955 78.7469L684.532 76.1641C684.376 76.0637 684.05 76.1067 683.809 76.2502L677.118 80.1531C676.877 80.2966 676.806 80.4831 676.976 80.5836L681.399 83.1664Z" fill="#E4E3F8"/>
<path d="M673.645 94.8046C673.801 94.905 674.127 94.862 674.368 94.7185L681.059 90.8156C681.3 90.6721 681.371 90.4856 681.201 90.3851L676.778 87.8023C676.622 87.7162 676.296 87.7449 676.055 87.8884L669.364 91.7913C669.123 91.9348 669.052 92.1213 669.208 92.2218L673.645 94.8046Z" fill="#E4E3F8"/>
<path d="M677.569 99.6542C677.725 99.7546 678.051 99.7116 678.292 99.5681L684.983 95.6652C685.224 95.5217 685.295 95.3352 685.125 95.2347L680.688 92.6519C680.532 92.5659 680.206 92.5945 679.965 92.738L673.274 96.6409C673.033 96.7844 672.962 96.971 673.118 97.0571L677.569 99.6542Z" fill="#E4E3F8"/>
<path d="M688.172 100.587C688.328 100.673 688.654 100.645 688.895 100.501L695.586 96.5981C695.827 96.4546 695.884 96.2681 695.728 96.182L691.305 93.5992C691.149 93.5131 690.823 93.5418 690.582 93.6853L683.891 97.5882C683.65 97.7317 683.593 97.9182 683.749 98.0187L688.172 100.587Z" fill="#E4E3F8"/>
<path d="M706.573 97.8614C706.729 97.9619 707.055 97.9188 707.296 97.7753L713.987 93.8724C714.228 93.7289 714.299 93.5424 714.129 93.4419L708.926 90.4C708.77 90.3139 708.444 90.3426 708.203 90.4861L701.512 94.389C701.271 94.5325 701.214 94.719 701.37 94.8194L706.573 97.8614Z" fill="#E4E3F8"/>
<path d="M695.035 104.592C695.191 104.692 695.573 104.606 695.9 104.419L704.66 99.3111C704.972 99.1246 705.1 98.895 704.944 98.8089L699.741 95.767C699.585 95.6809 699.188 95.7526 698.877 95.9248L690.116 101.033C689.804 101.22 689.676 101.449 689.832 101.535L695.035 104.592Z" fill="#E4E3F8"/>
<path d="M637.505 138.223C637.632 138.295 637.944 138.252 638.185 138.108L644.862 134.205C645.103 134.062 645.202 133.89 645.06 133.804L643.133 132.684C643.005 132.613 642.693 132.656 642.452 132.799L635.775 136.702C635.534 136.846 635.449 137.018 635.577 137.104L637.505 138.223Z" fill="#E4E3F8"/>
<path d="M628.575 143.577C628.702 143.648 629.014 143.605 629.255 143.462L635.932 139.559C636.173 139.415 636.273 139.243 636.131 139.157L634.203 138.038C634.075 137.966 633.763 138.009 633.522 138.153L626.845 142.056C626.604 142.199 626.519 142.371 626.647 142.457L628.575 143.577Z" fill="#E4E3F8"/>
<path d="M619.106 148.972C619.234 149.043 619.531 148.986 619.772 148.857L626.449 144.954C626.69 144.81 626.789 144.638 626.662 144.566L624.805 143.49C624.677 143.418 624.379 143.476 624.138 143.605L617.462 147.508C617.221 147.651 617.135 147.824 617.249 147.895L619.106 148.972Z" fill="#E4E3F8"/>
<path d="M624.918 141.509C625.046 141.58 625.344 141.523 625.585 141.394L632.262 137.491C632.503 137.347 632.602 137.175 632.474 137.104L630.617 136.027C630.49 135.956 630.192 136.013 629.951 136.142L623.274 140.045C623.033 140.189 622.948 140.361 623.061 140.432L624.918 141.509Z" fill="#E4E3F8"/>
<path d="M649.059 131.424C649.215 131.524 649.541 131.481 649.782 131.338L693.289 105.954C693.53 105.811 693.601 105.624 693.431 105.524L688.228 102.482C688.072 102.396 687.732 102.425 687.505 102.568L643.999 127.951C643.758 128.095 643.687 128.281 643.843 128.382L649.059 131.424Z" fill="#E4E3F8"/>
<path d="M696.238 102.91C696.252 102.91 696.28 102.91 696.309 102.896L701.412 99.9112C701.44 99.8969 701.455 99.8825 701.44 99.8682L701.114 99.6816C701.1 99.6816 701.072 99.6816 701.044 99.696L695.94 102.681C695.912 102.695 695.898 102.709 695.912 102.724L696.238 102.91Z" fill="#E4E3F8"/>
<path d="M709.337 94.7026C709.351 94.7026 709.365 94.7026 709.379 94.7026L711.548 93.4398C711.562 93.4398 711.562 93.4255 711.548 93.4112L711.222 93.2246C711.208 93.2246 711.194 93.2246 711.18 93.2246L709.011 94.4873C708.996 94.4873 708.996 94.5017 709.011 94.516L709.337 94.7026Z" fill="#E4E3F8"/>
<path d="M679.003 105.924C679.159 106.01 679.485 105.981 679.726 105.838L686.417 101.935C686.658 101.791 686.729 101.605 686.559 101.504L682.136 98.9215C681.98 98.8354 681.639 98.8641 681.413 99.0076L674.722 102.91C674.481 103.054 674.41 103.24 674.58 103.341L679.003 105.924Z" fill="#E4E3F8"/>
<path d="M669.799 111.291C669.955 111.377 670.281 111.348 670.522 111.205L677.199 107.302C677.44 107.158 677.511 106.972 677.355 106.871L672.932 104.289C672.776 104.203 672.435 104.231 672.209 104.375L665.532 108.278C665.291 108.421 665.234 108.608 665.39 108.708L669.799 111.291Z" fill="#E4E3F8"/>
<path d="M660.598 116.673C660.754 116.759 661.08 116.73 661.321 116.587L668.012 112.684C668.253 112.541 668.31 112.354 668.154 112.268L663.731 109.685C663.575 109.599 663.249 109.628 663.008 109.771L656.317 113.674C656.076 113.818 656.019 114.004 656.175 114.105L660.598 116.673Z" fill="#E4E3F8"/>
<path d="M651.387 122.039C651.543 122.125 651.869 122.096 652.11 121.953L658.801 118.05C659.042 117.906 659.113 117.72 658.943 117.62L654.52 115.037C654.364 114.951 654.038 114.979 653.797 115.123L647.106 119.026C646.865 119.169 646.808 119.356 646.964 119.456L651.387 122.039Z" fill="#E4E3F8"/>
<path d="M642.186 127.419C642.342 127.505 642.668 127.477 642.909 127.333L649.586 123.43C649.827 123.287 649.884 123.1 649.728 123.014L645.305 120.431C645.149 120.345 644.823 120.374 644.582 120.517L637.905 124.42C637.664 124.564 637.593 124.75 637.749 124.851L642.186 127.419Z" fill="#E4E3F8"/>
<path d="M632.987 132.787C633.143 132.873 633.469 132.844 633.71 132.701L640.387 128.798C640.628 128.655 640.699 128.468 640.529 128.368L636.106 125.785C635.95 125.699 635.624 125.727 635.383 125.871L628.706 129.774C628.465 129.917 628.394 130.104 628.564 130.204L632.987 132.787Z" fill="#E4E3F8"/>
<path d="M612.245 144.882C612.401 144.968 612.727 144.939 612.968 144.796L631.184 134.163C631.425 134.02 631.496 133.833 631.326 133.733L626.903 131.15C626.747 131.064 626.421 131.093 626.18 131.236L607.964 141.869C607.723 142.012 607.652 142.199 607.822 142.299L612.245 144.882Z" fill="#E4E3F8"/>
<path d="M668.397 104.991C668.553 105.092 668.879 105.049 669.12 104.905L675.811 101.002C676.052 100.859 676.123 100.672 675.953 100.586L671.516 98.0035C671.36 97.9174 671.034 97.9461 670.793 98.0896L664.102 101.992C663.861 102.136 663.804 102.323 663.96 102.409L668.397 104.991Z" fill="#E4E3F8"/>
<path d="M659.192 110.359C659.348 110.459 659.674 110.416 659.915 110.273L666.606 106.37C666.847 106.226 666.918 106.04 666.748 105.953L662.311 103.371C662.155 103.285 661.829 103.313 661.588 103.457L654.897 107.36C654.656 107.503 654.599 107.69 654.755 107.776L659.192 110.359Z" fill="#E4E3F8"/>
<path d="M649.995 115.738C650.151 115.839 650.477 115.796 650.718 115.652L657.409 111.749C657.65 111.606 657.721 111.419 657.565 111.319L653.128 108.736C652.972 108.65 652.631 108.679 652.405 108.822L645.713 112.725C645.472 112.868 645.402 113.055 645.557 113.141L649.995 115.738Z" fill="#E4E3F8"/>
<path d="M640.781 121.105C640.937 121.206 641.263 121.163 641.504 121.019L648.181 117.116C648.422 116.973 648.492 116.786 648.322 116.686L643.885 114.103C643.729 114.017 643.403 114.046 643.162 114.189L636.485 118.092C636.244 118.236 636.173 118.422 636.343 118.508L640.781 121.105Z" fill="#E4E3F8"/>
<path d="M631.579 126.472C631.735 126.572 632.061 126.529 632.302 126.386L638.994 122.483C639.235 122.339 639.305 122.153 639.135 122.067L634.698 119.484C634.542 119.398 634.216 119.427 633.975 119.57L627.284 123.473C627.043 123.616 626.972 123.803 627.142 123.889L631.579 126.472Z" fill="#E4E3F8"/>
<path d="M622.379 131.853C622.535 131.954 622.861 131.911 623.102 131.767L629.779 127.864C630.02 127.721 630.091 127.534 629.935 127.434L625.498 124.851C625.342 124.765 625.016 124.794 624.775 124.937L618.098 128.84C617.857 128.984 617.8 129.17 617.956 129.256L622.379 131.853Z" fill="#E4E3F8"/>
<path d="M613.167 137.22C613.323 137.32 613.649 137.277 613.89 137.134L620.581 133.231C620.822 133.087 620.893 132.901 620.723 132.815L616.286 130.232C616.13 130.146 615.804 130.175 615.563 130.318L608.872 134.221C608.631 134.365 608.574 134.551 608.73 134.637L613.167 137.22Z" fill="#E4E3F8"/>
<path d="M664.483 100.157C664.639 100.258 664.965 100.215 665.206 100.071L671.897 96.1684C672.138 96.0249 672.195 95.8384 672.039 95.7523L667.616 93.1695C667.46 93.0834 667.134 93.1121 666.893 93.2556L660.202 97.1585C659.961 97.302 659.89 97.4885 660.046 97.5746L664.483 100.157Z" fill="#E4E3F8"/>
<path d="M655.286 105.523C655.441 105.624 655.768 105.581 656.009 105.437L662.7 101.534C662.941 101.391 663.012 101.204 662.841 101.104L658.418 98.5211C658.263 98.435 657.936 98.4637 657.695 98.6072L651.004 102.51C650.763 102.654 650.707 102.84 650.863 102.926L655.286 105.523Z" fill="#E4E3F8"/>
<path d="M646.069 110.904C646.225 111.005 646.551 110.962 646.792 110.818L653.469 106.915C653.71 106.772 653.766 106.585 653.611 106.485L649.188 103.902C649.032 103.816 648.706 103.845 648.465 103.988L641.788 107.891C641.547 108.034 641.476 108.221 641.632 108.321L646.069 110.904Z" fill="#E4E3F8"/>
<path d="M636.872 116.271C637.027 116.372 637.353 116.329 637.594 116.185L644.286 112.282C644.527 112.139 644.597 111.952 644.427 111.852L640.004 109.269C639.848 109.183 639.522 109.212 639.281 109.355L632.59 113.258C632.349 113.402 632.293 113.588 632.449 113.674L636.872 116.271Z" fill="#E4E3F8"/>
<path d="M627.67 121.637C627.826 121.737 628.152 121.694 628.393 121.551L635.084 117.648C635.325 117.504 635.396 117.318 635.226 117.217L630.803 114.634C630.647 114.548 630.321 114.577 630.08 114.72L623.389 118.623C623.148 118.767 623.091 118.953 623.247 119.039L627.67 121.637Z" fill="#E4E3F8"/>
<path d="M618.455 127.017C618.611 127.118 618.937 127.075 619.192 126.931L625.883 123.028C626.124 122.885 626.195 122.698 626.025 122.598L621.602 120.015C621.446 119.929 621.12 119.958 620.879 120.101L614.188 124.004C613.947 124.148 613.876 124.334 614.032 124.435L618.455 127.017Z" fill="#E4E3F8"/>
<path d="M609.254 132.385C609.41 132.485 609.736 132.442 609.977 132.299L616.668 128.396C616.909 128.252 616.98 128.066 616.81 127.965L612.387 125.382C612.231 125.296 611.905 125.325 611.664 125.469L604.973 129.371C604.732 129.515 604.675 129.701 604.831 129.788L609.254 132.385Z" fill="#E4E3F8"/>
<path d="M682.84 89.4384C682.996 89.5388 683.322 89.4958 683.563 89.3523L694.904 82.7375C695.145 82.594 695.216 82.4075 695.046 82.307L690.623 79.7242C690.467 79.6381 690.141 79.6668 689.9 79.8103L678.559 86.4251C678.318 86.5686 678.247 86.7552 678.403 86.8556L682.84 89.4384Z" fill="#E4E3F8"/>
<path d="M593.944 134.193C594.1 134.293 594.426 134.25 594.667 134.107L606.008 127.492C606.249 127.348 606.32 127.162 606.15 127.061L601.727 124.479C601.571 124.378 601.231 124.421 601.004 124.565L589.663 131.179C589.422 131.323 589.351 131.51 589.521 131.61L593.944 134.193Z" fill="#E4E3F8"/>
<path d="M686.771 94.274C686.926 94.3745 687.252 94.3314 687.493 94.188L701.003 86.2961C701.244 86.1526 701.315 85.966 701.145 85.8656L696.708 83.2828C696.552 83.1967 696.226 83.2254 695.985 83.3689L682.475 91.2608C682.234 91.4043 682.163 91.5908 682.319 91.6769L686.771 94.274Z" fill="#E4E3F8"/>
<path d="M697.374 95.2061C697.53 95.2922 697.856 95.2635 698.097 95.12L707.113 89.8683C707.354 89.7248 707.425 89.5383 707.255 89.4379L702.832 86.8551C702.676 86.769 702.35 86.7977 702.109 86.9412L693.093 92.1929C692.852 92.3363 692.781 92.5229 692.951 92.6233L697.374 95.2061Z" fill="#E4E3F8"/>
<path d="M672.196 88.5336C672.352 88.634 672.678 88.591 672.919 88.4475L679.596 84.5446C679.837 84.4011 679.908 84.2145 679.738 84.1141L675.315 81.5313C675.159 81.4309 674.833 81.4739 674.592 81.6174L667.915 85.5203C667.674 85.6638 667.603 85.8503 667.773 85.9508L672.196 88.5336Z" fill="#E4E3F8"/>
<path d="M663.024 93.8714C663.18 93.9719 663.506 93.9288 663.747 93.7853L670.438 89.8825C670.679 89.739 670.75 89.5524 670.58 89.452L666.157 86.8692C666.001 86.7688 665.675 86.8118 665.434 86.9553L658.743 90.8582C658.502 91.0017 658.431 91.1882 658.601 91.2886L663.024 93.8714Z" fill="#E4E3F8"/>
<path d="M653.825 99.2543C653.981 99.3547 654.307 99.3116 654.548 99.1682L661.239 95.2653C661.48 95.1218 661.551 94.9352 661.38 94.8348L656.958 92.252C656.802 92.1516 656.476 92.1946 656.235 92.3381L649.543 96.241C649.302 96.3845 649.246 96.571 649.402 96.6571L653.825 99.2543Z" fill="#E4E3F8"/>
<path d="M644.622 104.618C644.778 104.718 645.104 104.675 645.345 104.531L652.022 100.629C652.263 100.485 652.334 100.299 652.164 100.198L647.741 97.6153C647.585 97.5148 647.259 97.5579 647.018 97.7014L640.341 101.604C640.1 101.748 640.029 101.934 640.199 102.035L644.622 104.618Z" fill="#E4E3F8"/>
<path d="M635.424 109.985C635.58 110.085 635.906 110.042 636.147 109.899L642.824 105.996C643.065 105.852 643.136 105.666 642.966 105.565L638.543 102.982C638.387 102.882 638.061 102.925 637.82 103.069L631.143 106.971C630.902 107.115 630.845 107.301 631.001 107.388L635.424 109.985Z" fill="#E4E3F8"/>
<path d="M626.21 115.367C626.366 115.467 626.692 115.424 626.933 115.281L633.624 111.378C633.865 111.234 633.922 111.048 633.766 110.962L629.343 108.379C629.187 108.279 628.861 108.322 628.62 108.465L621.929 112.368C621.688 112.511 621.617 112.698 621.787 112.784L626.21 115.367Z" fill="#E4E3F8"/>
<path d="M617.009 120.735C617.165 120.835 617.491 120.792 617.732 120.649L624.423 116.746C624.664 116.602 624.735 116.416 624.564 116.315L620.142 113.732C619.986 113.632 619.66 113.675 619.419 113.819L612.727 117.721C612.486 117.865 612.416 118.051 612.586 118.152L617.009 120.735Z" fill="#E4E3F8"/>
<path d="M607.807 126.099C607.963 126.2 608.289 126.157 608.53 126.013L615.221 122.11C615.462 121.967 615.519 121.78 615.363 121.694L610.94 119.111C610.784 119.011 610.458 119.054 610.217 119.197L603.526 123.1C603.285 123.244 603.228 123.43 603.384 123.516L607.807 126.099Z" fill="#E4E3F8"/>
<path d="M602.449 130.847C602.562 130.776 602.69 130.733 602.846 130.718C602.988 130.704 603.101 130.718 603.172 130.761L607.595 133.344C607.666 133.387 607.708 133.459 607.68 133.545C607.651 133.631 607.566 133.703 607.453 133.775L605.709 134.793L611.522 138.194C611.592 138.237 611.621 138.309 611.592 138.395C611.564 138.481 611.479 138.553 611.366 138.625L606.858 141.25C606.744 141.322 606.602 141.365 606.461 141.379C606.319 141.394 606.206 141.379 606.12 141.336L595.588 135.181C595.517 135.138 595.488 135.066 595.517 134.98C595.545 134.894 595.63 134.822 595.744 134.75L602.449 130.847Z" fill="#E4E3F8"/>
<path d="M698.56 93.0254C698.574 93.0254 698.603 93.0254 698.631 93.011L703.734 90.0265C703.763 90.0121 703.777 89.9978 703.763 89.9834L703.437 89.7969C703.423 89.7969 703.394 89.7969 703.366 89.8112L698.262 92.7958C698.234 92.8101 698.22 92.8245 698.234 92.8388L698.56 93.0254Z" fill="#E4E3F8"/>
<path d="M672.467 137.248L698.324 122.153C699.713 121.335 699.628 120.058 698.125 119.298L689.478 114.95C687.975 114.189 685.608 114.247 684.204 115.05L658.347 130.145C656.958 130.963 657.043 132.24 658.546 133.001L667.193 137.348C668.696 138.109 671.063 138.066 672.467 137.248Z" fill="#E4E3F8"/>
<path d="M625.059 63.1499L605.694 74.9877C600.322 78.2736 594.708 75.533 593.248 68.9038L591.377 60.4953C589.902 53.8662 593.106 45.7447 598.479 42.4588L617.843 30.621C623.216 27.3351 628.83 30.0757 630.29 36.7049L632.161 45.1133C633.636 51.7569 630.446 59.864 625.059 63.1499Z" fill="#C8C6FB"/>
<path d="M609.794 61.7573L607.186 50.0343C606.973 49.0873 607.654 47.9824 608.433 47.9824L619.236 48.0398C620.1 48.0398 620.398 49.3886 619.746 50.3213L611.538 61.9869C610.943 62.8335 610.007 62.7044 609.794 61.7573Z" fill="white"/>
<path d="M594.312 83.7395L586.983 88.2163C582.631 90.8852 578.081 88.6611 576.89 83.2803C575.699 77.9138 578.279 71.3277 582.646 68.6731L589.975 64.1963C594.327 61.5274 598.877 63.7515 600.068 69.1323C601.259 74.4988 598.665 81.0849 594.312 83.7395Z" fill="#AAA8EE"/>
<path d="M594.793 83.4525L599.627 83.8399L598.068 79.8652L594.793 83.4525Z" fill="#C8C6FB"/>
<path d="M585.252 78.9034C585.557 77.9206 585.241 76.9447 584.546 76.7238C583.852 76.5028 583.041 77.1204 582.736 78.1033C582.431 79.0861 582.747 80.0619 583.441 80.2829C584.136 80.5038 584.946 79.8862 585.252 78.9034Z" fill="white"/>
<path d="M589.644 76.2179C589.949 75.235 589.634 74.2592 588.939 74.0382C588.244 73.8173 587.434 74.4349 587.129 75.4177C586.824 76.4005 587.139 77.3764 587.834 77.5973C588.529 77.8183 589.339 77.2007 589.644 76.2179Z" fill="white"/>
<path d="M594.112 72.3168C594.31 73.2208 593.885 74.3113 593.148 74.7561C592.411 75.2009 591.659 74.8278 591.461 73.9238C591.262 73.0199 591.688 71.9294 592.425 71.4845C593.162 71.0397 593.913 71.4128 594.112 72.3168Z" fill="white"/>
<path d="M640.299 35.4267L631.708 40.6784C628.263 42.7877 624.677 41.0228 623.727 36.7755L623.486 35.7137C622.536 31.4665 624.592 26.2722 628.036 24.1629L636.627 18.9112C640.072 16.8019 643.658 18.5668 644.608 22.8141L644.849 23.8759C645.785 28.1232 643.729 33.3175 640.299 35.4267Z" fill="#AAA8EE"/>
<path d="M626.096 29.5157L639.719 21.1934" stroke="#FFFAFA" stroke-miterlimit="10" stroke-linecap="round" stroke-linejoin="round"/>
<path d="M626.988 33.5313L640.612 25.209" stroke="#FFFAFA" stroke-miterlimit="10" stroke-linecap="round" stroke-linejoin="round"/>
<path d="M627.879 37.5638L637.263 31.8242" stroke="#FFFAFA" stroke-miterlimit="10" stroke-linecap="round" stroke-linejoin="round"/>
<path opacity="0.34" d="M499.484 137.849C500.321 130.934 491.694 124.175 480.215 122.751C468.737 121.328 458.753 125.78 457.916 132.694C457.079 139.609 465.706 146.369 477.185 147.792C488.663 149.215 498.647 144.764 499.484 137.849Z" fill="#B3B2E7"/>
<path d="M475.75 146.188C486.502 145.61 494.943 139.894 494.604 133.42C494.265 126.945 485.273 122.165 474.521 122.742C463.769 123.319 455.328 129.036 455.667 135.51C456.006 141.984 464.998 146.765 475.75 146.188Z" fill="#BBB9F8"/>
<path d="M475.424 140.004C486.176 139.427 494.617 133.71 494.278 127.236C493.939 120.762 484.947 115.981 474.195 116.558C463.443 117.136 455.002 122.852 455.341 129.326C455.68 135.801 464.671 140.581 475.424 140.004Z" fill="#F6F5FF"/>
<path d="M478.316 118.847L480.836 124.814C481.07 125.359 480.877 125.987 480.389 126.316L473.193 131.049C472.41 131.563 471.373 131.018 471.332 130.082L471.007 122.674C470.987 122.242 471.2 121.83 471.556 121.604L476.547 118.322C477.177 117.9 478.021 118.157 478.316 118.847Z" fill="#CBC9FE"/>
<path d="M476.335 116.82L473.692 115.514L467.705 119.516L466.953 127.798C466.912 128.241 467.095 128.683 467.441 128.961L468.579 129.887C469.687 130.792 471.324 129.948 471.263 128.508L470.978 121.965L476.426 118.374C477.016 118.003 476.965 117.129 476.335 116.82Z" fill="#BBB9F8"/>
<path d="M471.669 58.752L454.531 87.4569L473.519 118.086" stroke="#BBB9F8" stroke-width="2" stroke-miterlimit="10" stroke-linecap="round" stroke-linejoin="round"/>
<path d="M466.952 56.4883L449.428 88.1563L469.879 120.555" stroke="#BBB9F8" stroke-width="2" stroke-miterlimit="10" stroke-linecap="round" stroke-linejoin="round"/>
<path d="M453.811 57.1878L466.608 65.4083C470.054 67.6203 474.669 66.5812 476.854 63.0934L477.078 62.7436C479.263 59.2558 478.237 54.5951 474.791 52.3831L461.994 44.1625C458.548 41.9505 453.933 42.9896 451.748 46.4775L451.524 46.8273C449.329 50.3048 450.365 54.9655 453.811 57.1878Z" fill="#DFDEFF"/>
<path opacity="0.68" d="M460.009 47.0937L467.612 51.6207C467.988 51.847 468.486 51.7133 468.71 51.3326C468.934 50.9519 468.801 50.4478 468.425 50.2214L460.822 45.6945C460.446 45.4681 459.948 45.6019 459.724 45.9826C459.501 46.3735 459.633 46.8674 460.009 47.0937Z" fill="#CBC9FE"/>
<path opacity="0.68" d="M456.034 49.9648L463.638 54.4918C464.014 54.7181 464.512 54.5844 464.735 54.2037C464.959 53.823 464.827 53.3189 464.451 53.0925L456.848 48.5656C456.471 48.3392 455.973 48.473 455.75 48.8537C455.526 49.2446 455.658 49.7385 456.034 49.9648Z" fill="#CBC9FE"/>
<path opacity="0.68" d="M454.368 54.8203L461.972 59.3472C462.348 59.5736 462.846 59.4398 463.069 59.0592C463.293 58.6785 463.161 58.1743 462.785 57.948L455.182 53.4211C454.805 53.1947 454.307 53.3285 454.084 53.7091C453.86 54.0898 453.992 54.5939 454.368 54.8203Z" fill="#CBC9FE"/>
<path d="M488.526 71.7932C494.356 63.2312 497.07 54.8865 494.587 53.1549C492.105 51.4232 485.367 56.9604 479.537 65.5224C473.707 74.0845 470.993 82.4292 473.475 84.1608C475.957 85.8924 482.696 80.3553 488.526 71.7932Z" fill="#AFADEB"/>
<path d="M471.651 82.7137L467.219 77.5695C461.761 71.2215 461.486 61.8589 466.569 55.2125C471.224 49.1114 479.264 46.7862 486.41 49.451L493.007 51.9202L471.651 82.7137Z" fill="#F6F5FF"/>
<path d="M486.942 70.5471C492.772 61.9851 495.486 53.6404 493.003 51.9088C490.521 50.1771 483.783 55.7143 477.953 64.2763C472.123 72.8384 469.409 81.1831 471.891 82.9147C474.373 84.6463 481.112 79.1092 486.942 70.5471Z" fill="#BBB9F8"/>
<path d="M488.032 63.0015C487.981 66.1703 486.832 70.8207 481.028 72.8476C478.518 73.7221 476.017 71.4483 476.708 68.8556C477.623 65.3884 480.307 61.4685 483.265 59.9458C485.47 58.814 488.073 60.5116 488.032 63.0015Z" fill="#DBDAFF"/>
<path d="M477.95 64.2864C483.785 55.7264 490.524 50.1809 493.004 51.9093C493.471 52.2283 493.746 52.7839 493.868 53.5349C490.707 54.2243 485.36 59.1833 480.623 66.1486C475.887 73.114 473.203 79.925 473.701 83.1556C472.969 83.3099 472.359 83.2482 471.892 82.9189C469.402 81.1905 472.126 72.8465 477.95 64.2864Z" fill="#CECCFA"/>
<path d="M455.608 85.3593L448.94 88.8162C448.148 89.2278 447.873 90.2463 448.351 91.0077L451.543 96.0902C451.837 96.5532 452.427 96.7075 452.905 96.4503L459.684 92.7156C460.254 92.4069 460.437 91.6764 460.091 91.1312L456.666 85.668C456.452 85.2873 455.985 85.1638 455.608 85.3593Z" fill="#F6F5FF"/>
<path d="M449.368 88.5879L448.585 89.0509C448.006 89.3904 447.823 90.1517 448.189 90.7279L451.513 96.0162C451.828 96.51 452.458 96.6747 452.966 96.3969L454.237 95.6973L449.368 88.5879Z" fill="#BBB9F8"/>
</g>
<defs>
<linearGradient id="paint0_linear_2028_1268" x1="888" y1="75" x2="2.90987e-07" y2="75" gradientUnits="userSpaceOnUse">
<stop stop-color="#BBB9F8"/>
<stop offset="1" stop-color="#E3E1F9"/>
</linearGradient>
<clipPath id="clip0_2028_1268">
<rect width="888" height="150" fill="white"/>
</clipPath>
</defs>
</svg>
