<svg width="320" height="50" viewBox="0 0 320 50" fill="none" xmlns="http://www.w3.org/2000/svg">
<g clip-path="url(#clip0_2114_410)">
<path d="M242.774 90.1903C251.239 90.5262 255.653 64.3299 252.633 31.6793C249.613 -0.971296 240.303 -27.7122 231.838 -28.0481C223.374 -28.3839 218.96 -2.18769 221.98 30.4629C225 63.1135 234.31 89.8544 242.774 90.1903Z" stroke="white" stroke-width="2" stroke-miterlimit="10" stroke-linecap="round" stroke-linejoin="round"/>
<path d="M246.374 46.393C269.868 31.0599 284.861 11.774 279.862 3.31667C274.863 -5.14066 251.765 0.433235 228.271 15.7663C204.776 31.0994 189.783 50.3853 194.782 58.8426C199.781 67.3 222.879 61.7261 246.374 46.393Z" stroke="white" stroke-width="2" stroke-miterlimit="10" stroke-linecap="round" stroke-linejoin="round"/>
<path d="M285.35 62.4428C288.816 54.3213 270.131 33.699 243.617 16.3814C217.103 -0.936118 192.799 -8.39104 189.334 -0.269607C185.868 7.85183 204.553 28.4742 231.067 45.7917C257.581 63.1093 281.884 70.5642 285.35 62.4428Z" stroke="white" stroke-width="2" stroke-miterlimit="10" stroke-linecap="round" stroke-linejoin="round"/>
<path d="M247.448 31.51C247.984 37.2977 244.134 41.9888 239.016 41.7857C233.898 41.5826 229.149 36.5503 228.614 30.7626C228.079 24.9749 231.928 20.2839 237.046 20.487C242.164 20.6901 246.913 25.7224 247.448 31.51Z" fill="#B5EDDC"/>
<path d="M213.199 -1.71569C213.466 1.17485 211.539 3.52357 208.983 3.42213C206.427 3.3207 204.049 0.801146 203.782 -2.08939C203.514 -4.97993 205.442 -7.32864 207.998 -7.22721C210.554 -7.12578 212.932 -4.60622 213.199 -1.71569Z" fill="#B5EDDC"/>
<path d="M281.476 19.0402C281.744 21.9307 279.816 24.2794 277.26 24.178C274.704 24.0766 272.326 21.557 272.059 18.6665C271.792 15.7759 273.719 13.4272 276.275 13.5286C278.831 13.6301 281.195 15.9975 281.476 19.0402Z" fill="#B5EDDC"/>
</g>
<defs>
<clipPath id="clip0_2114_410">
<rect width="320" height="50" fill="white"/>
</clipPath>
</defs>
</svg>
