<svg width="431" height="150" viewBox="0 0 431 150" fill="none" xmlns="http://www.w3.org/2000/svg">
<g clip-path="url(#clip0_2028_1222)">
<rect width="431" height="150" fill="url(#paint0_linear_2028_1222)"/>
<path d="M313.177 189.881C330.433 190.484 339.431 143.489 333.275 84.9151C327.118 26.3413 308.139 -21.6305 290.883 -22.2331C273.627 -22.8357 264.629 24.1592 270.786 82.7329C276.942 141.307 295.921 189.279 313.177 189.881Z" stroke="white" stroke-width="2" stroke-miterlimit="10" stroke-linecap="round" stroke-linejoin="round"/>
<path d="M320.519 111.311C368.414 83.8044 398.979 49.2063 388.788 34.0342C378.597 18.8621 331.509 28.8614 283.614 56.3683C235.719 83.8751 205.154 118.473 215.345 133.645C225.536 148.817 272.624 138.818 320.519 111.311Z" stroke="white" stroke-width="2" stroke-miterlimit="10" stroke-linecap="round" stroke-linejoin="round"/>
<path d="M399.969 140.104C407.034 125.535 368.944 88.5392 314.893 57.4723C260.841 26.4054 211.297 13.0316 204.232 27.6011C197.167 42.1705 235.257 79.1661 289.308 110.233C343.359 141.3 392.904 154.674 399.969 140.104Z" stroke="white" stroke-width="2" stroke-miterlimit="10" stroke-linecap="round" stroke-linejoin="round"/>
<path d="M322.714 84.6093C323.806 94.9922 315.958 103.408 305.524 103.043C295.091 102.679 285.41 93.6514 284.319 83.2685C283.227 72.8857 291.075 64.4701 301.509 64.8345C311.942 65.1988 321.623 74.2265 322.714 84.6093Z" fill="#B5EDDC"/>
<path d="M252.893 25.0058C253.438 30.1913 249.509 34.4048 244.298 34.2228C239.087 34.0409 234.24 29.5209 233.695 24.3354C233.15 19.1499 237.08 14.9364 242.29 15.1184C247.501 15.3004 252.348 19.8203 252.893 25.0058Z" fill="#B5EDDC"/>
<path d="M392.077 62.2402C392.622 67.4257 388.693 71.6392 383.482 71.4572C378.271 71.2753 373.424 66.7553 372.879 61.5698C372.334 56.3843 376.263 52.1708 381.474 52.3528C386.685 52.5348 391.503 56.7818 392.077 62.2402Z" fill="#B5EDDC"/>
<path d="M295.721 159.74C296.267 164.926 292.337 169.139 287.126 168.957C281.916 168.775 277.069 164.255 276.524 159.07C275.978 153.884 279.908 149.671 285.119 149.853C290.604 150.044 295.176 154.555 295.721 159.74Z" fill="#B5EDDC"/>
</g>
<defs>
<linearGradient id="paint0_linear_2028_1222" x1="431" y1="75" x2="1.41233e-07" y2="75" gradientUnits="userSpaceOnUse">
<stop stop-color="#7FCBB4"/>
<stop offset="1" stop-color="#B7EEDD"/>
</linearGradient>
<clipPath id="clip0_2028_1222">
<rect width="431" height="150" fill="white"/>
</clipPath>
</defs>
</svg>
