<svg width="665" height="50" viewBox="0 0 665 50" fill="none" xmlns="http://www.w3.org/2000/svg">
<g clip-path="url(#clip0_2028_4807)">
<rect width="665" height="50" fill="url(#paint0_linear_2028_4807)"/>
<path d="M142.691 22.899L154.537 15.9782V15.2756L137.896 6.25879L126.051 12.4771V13.1796L142.691 22.899Z" fill="#BBB9F8"/>
<path d="M142.691 22.1969L154.537 15.2761L137.896 5.5625L126.051 12.4775L142.691 22.1969Z" fill="#CECCFA"/>
<path d="M142.691 21.0768L153.859 14.5566V12.9483L138.176 5.40039L127.008 10.3123V11.9206L142.691 21.0768Z" fill="#E8E6FF"/>
<path d="M142.691 19.4684L153.859 12.9482L138.176 3.79199L127.008 10.3122L142.691 19.4684Z" fill="#F4F7FF"/>
<path d="M137.941 6.04558L138.492 5.72034C138.722 5.58676 138.693 5.34865 138.429 5.19184C138.159 5.03503 137.752 5.0176 137.522 5.15118L136.971 5.47642C136.742 5.61 136.771 5.84811 137.035 6.00492C137.304 6.16173 137.712 6.17915 137.941 6.04558Z" fill="#A4A2E5"/>
<path d="M135.637 7.38639L136.187 7.06116C136.417 6.92758 136.388 6.68946 136.124 6.53265C135.855 6.37584 135.447 6.35842 135.218 6.492L134.667 6.81723C134.437 6.95081 134.466 7.18893 134.73 7.34574C134.994 7.50836 135.407 7.52578 135.637 7.38639Z" fill="#A4A2E5"/>
<path d="M133.332 8.73405L133.883 8.40882C134.112 8.27524 134.083 8.03712 133.82 7.88031C133.55 7.7235 133.142 7.70608 132.913 7.83966L132.362 8.16489C132.133 8.29847 132.161 8.53659 132.425 8.6934C132.689 8.85021 133.097 8.86763 133.332 8.73405Z" fill="#A4A2E5"/>
<path d="M131.023 10.0749L131.574 9.74964C131.804 9.61606 131.775 9.37794 131.511 9.22113C131.241 9.06432 130.834 9.0469 130.604 9.18047L130.054 9.50571C129.824 9.63929 129.853 9.87741 130.117 10.0342C130.381 10.191 130.788 10.2085 131.023 10.0749Z" fill="#A4A2E5"/>
<path d="M134.477 5.95807C134.442 5.87678 134.373 5.68518 134.35 5.6039C134.184 5.09877 134.224 4.61686 134.465 4.28011C134.666 3.99561 135.004 3.83885 135.406 3.83885C136.341 3.83885 137.373 4.6575 137.7 5.66776C137.718 5.72582 137.781 5.75486 137.838 5.73744C137.895 5.72002 137.924 5.65615 137.907 5.6039C137.551 4.51235 136.427 3.62402 135.406 3.62402C134.936 3.62402 134.54 3.80982 134.293 4.15238C134.018 4.54138 133.96 5.09296 134.15 5.66776C134.178 5.76066 134.264 5.96968 134.305 6.05678L134.477 5.95807Z" fill="#BBB9F8"/>
<path d="M132.172 7.29889C132.138 7.2176 132.069 7.026 132.046 6.94472C131.879 6.43959 131.92 5.95769 132.16 5.62093C132.361 5.33644 132.7 5.17967 133.101 5.17967C134.036 5.17967 135.069 5.99832 135.396 7.00858C135.413 7.06664 135.476 7.09568 135.533 7.07826C135.591 7.06084 135.619 6.99697 135.602 6.94472C135.247 5.85317 134.122 4.96484 133.101 4.96484C132.631 4.96484 132.235 5.15064 131.988 5.4932C131.713 5.8822 131.656 6.43378 131.845 7.00858C131.874 7.10148 131.96 7.3105 132 7.3976L132.172 7.29889Z" fill="#BBB9F8"/>
<path d="M129.867 8.64655C129.833 8.56527 129.764 8.37367 129.741 8.29238C129.575 7.78725 129.615 7.30534 129.856 6.96859C130.057 6.68409 130.395 6.52733 130.797 6.52733C131.732 6.52733 132.764 7.34599 133.091 8.35625C133.108 8.41431 133.171 8.44334 133.229 8.42592C133.286 8.4085 133.315 8.34464 133.298 8.29238C132.942 7.20084 131.818 6.3125 130.797 6.3125C130.326 6.3125 129.93 6.4983 129.684 6.84086C129.408 7.22987 129.351 7.78144 129.54 8.35625C129.569 8.44914 129.655 8.65816 129.695 8.74525L129.867 8.64655Z" fill="#BBB9F8"/>
<path d="M127.563 9.98639C127.528 9.9051 127.459 9.7135 127.436 9.63222C127.27 9.12709 127.31 8.64518 127.551 8.30843C127.752 8.02393 128.09 7.86717 128.492 7.86717C129.427 7.86717 130.459 8.68582 130.786 9.69608C130.804 9.75414 130.867 9.78317 130.924 9.76575C130.981 9.74834 131.01 9.68447 130.993 9.63222C130.637 8.54067 129.513 7.65234 128.492 7.65234C128.021 7.65234 127.626 7.83814 127.379 8.1807C127.104 8.5697 127.046 9.12128 127.236 9.69608C127.264 9.78898 127.35 9.998 127.391 10.0851L127.563 9.98639Z" fill="#BBB9F8"/>
<path d="M140.92 5.59766L130.262 11.845" stroke="#CECCFA" stroke-width="1.5167" stroke-miterlimit="10" stroke-linecap="round" stroke-linejoin="round"/>
<path d="M143.248 7.0498L132.59 13.2913" stroke="#CECCFA" stroke-width="1.5167" stroke-miterlimit="10" stroke-linecap="round" stroke-linejoin="round"/>
<path d="M145.521 8.50684L134.863 14.7542" stroke="#CECCFA" stroke-width="1.5167" stroke-miterlimit="10" stroke-linecap="round" stroke-linejoin="round"/>
<path d="M147.896 9.88281L137.238 16.1302" stroke="#CECCFA" stroke-width="1.5167" stroke-miterlimit="10" stroke-linecap="round" stroke-linejoin="round"/>
<path d="M150.275 11.3223L139.617 17.5638" stroke="#CECCFA" stroke-width="1.5167" stroke-miterlimit="10" stroke-linecap="round" stroke-linejoin="round"/>
<path d="M302.335 6.97168C302.546 10.7138 301.337 13.0416 300.072 14.4482C299.389 15.2078 298.679 15.71 298.143 16.0215C297.989 16.1105 297.849 16.1822 297.729 16.2412C296.896 13.4527 298.06 11.1204 299.553 9.4043C300.342 8.49698 301.209 7.78063 301.882 7.29004C302.046 7.17007 302.199 7.06348 302.335 6.97168Z" fill="#BBB9F8" stroke="#BBB9F8"/>
<path opacity="0.34" d="M298.916 38.0771C302.264 38.0771 304.977 37.2011 304.977 36.1206C304.977 35.04 302.264 34.1641 298.916 34.1641C295.569 34.1641 292.855 35.04 292.855 36.1206C292.855 37.2011 295.569 38.0771 298.916 38.0771Z" fill="#9998C8"/>
<path d="M304.813 28.1081L289.652 27.6602L292.1 35.2531C292.19 35.9571 292.696 36.6428 293.618 37.1822C295.654 38.3707 298.951 38.3799 300.975 37.1959C301.824 36.7022 302.316 36.0714 302.447 35.4268L304.813 28.1081Z" fill="white"/>
<path d="M304.813 28.1084C302.709 32.3551 300.609 36.6064 297.23 38.0784C298.585 38.0921 299.945 37.7996 300.974 37.1961C301.824 36.7024 302.316 36.0716 302.447 35.4271L304.813 28.1084Z" fill="#E5E4FF"/>
<path d="M304.975 27.2192C304.989 24.74 301.558 22.7114 297.313 22.6881C293.068 22.6648 289.615 24.6558 289.602 27.135C289.589 29.6142 293.02 31.6429 297.265 31.6661C301.51 31.6894 304.962 29.6985 304.975 27.2192Z" fill="#F9F9FF"/>
<path d="M303.834 27.0693C303.846 24.941 300.901 23.1995 297.257 23.1795C293.613 23.1596 290.649 24.8687 290.638 26.997C290.626 29.1253 293.571 30.8668 297.215 30.8868C300.86 30.9067 303.823 29.1976 303.834 27.0693Z" fill="#BBB9F8"/>
<path d="M297.355 9.55273V28.1396" stroke="#D7D6FB" stroke-width="2" stroke-miterlimit="10" stroke-linecap="round" stroke-linejoin="round"/>
<path d="M297.285 22.9966C297.285 22.9966 297.57 16.3362 289.188 14.1191C289.188 14.1191 290.402 23.0149 297.285 22.9966Z" fill="#D7D6FB"/>
<path d="M297.515 20.5651C297.515 20.5651 304.041 19.6326 304.664 10.8877C304.664 10.8923 296.237 13.7265 297.515 20.5651Z" fill="#CDCCFF"/>
<path d="M297.421 15.4728C297.421 15.4728 300.343 9.16901 293.14 3.62402C293.14 3.62859 290.773 12.6981 297.421 15.4728Z" fill="#D7D6FB"/>
<path d="M297.438 15.0932L293.297 4.00781" stroke="#BBB9F8" stroke-width="0.4" stroke-miterlimit="10" stroke-linecap="round" stroke-linejoin="round"/>
<path opacity="0.34" d="M212.472 49.084L252.037 25.9798C252.496 25.7117 253.301 25.7478 253.83 26.0571L276.998 39.5608C277.527 39.8701 277.583 40.3393 277.125 40.6074L240.667 63.1496C239.409 63.9282 237.901 64.186 236.46 63.8663C236.21 63.8302 235.971 63.7529 235.767 63.6343L212.6 50.1306C212.075 49.8264 212.014 49.3521 212.472 49.084Z" fill="#9998C8"/>
<path d="M208.595 46.3257L209.574 46.9497L209.981 45.5469H208.488L208.595 46.3257Z" fill="#BBB9F8"/>
<path d="M209.92 46.3358L248.823 23.6183C249.683 23.1182 250.106 21.7312 249.77 20.5453L242.898 -3.56943C242.562 -4.75532 241.579 -5.31733 240.718 -4.81719L201.714 18.1014C200.853 18.6015 200.598 19.5193 200.939 20.7103L207.745 45.0881C208.081 46.2791 209.059 46.8411 209.92 46.3358Z" fill="#BBB9F8"/>
<path d="M210.923 46.9813L249.825 24.2638C250.686 23.7637 251.109 22.3767 250.773 21.1908L243.901 -2.92392C243.565 -4.10981 242.582 -4.67182 241.721 -4.17168L202.447 18.8036C201.586 19.3037 201.413 19.974 201.754 21.1651L208.743 45.7336C209.084 46.9246 210.062 47.4866 210.923 46.9813Z" fill="#EEEEFF"/>
<path d="M248.629 13.6569L243.907 -2.9249C243.57 -4.11079 242.587 -4.6728 241.726 -4.17266L216.664 10.4911L248.629 13.6569Z" fill="white" fill-opacity="0.62"/>
<path d="M210.262 48.223V46.9392L215.972 50.3009L216.298 49.543L254.319 27.3411C254.778 27.073 255.69 27.1091 256.214 27.4184L272.688 36.9777V36.7096L275.189 37.9368L275.541 37.7924L275.495 38.9577C275.454 39.2103 275.357 39.3186 275.205 39.4062L235.635 62.5723C235.176 62.8404 234.371 62.8352 233.842 62.5259L210.873 49.2491C210.257 48.9294 210.262 48.223 210.262 48.223Z" fill="#BBB9F8"/>
<path d="M210.262 48.2239V46.94L215.972 50.3018L216.298 49.5438L234.947 38.6543L235.635 62.5783C235.406 62.7124 235.09 62.7794 234.764 62.7742C234.438 62.7691 234.107 62.6917 233.842 62.537L210.873 49.2499C210.257 48.9303 210.262 48.2239 210.262 48.2239Z" fill="#BBB9F8"/>
<path d="M210.566 46.8721L250.131 23.7679C250.589 23.4997 251.394 23.5358 251.924 23.8452L275.091 37.3489C275.621 37.6582 275.677 38.1274 275.219 38.3955L235.654 61.4997C235.195 61.7678 234.391 61.7317 233.861 61.4224L210.694 47.9187C210.169 47.6094 210.108 47.135 210.566 46.8721Z" fill="#D0CFF8"/>
<path d="M251.963 30.2741C252.019 30.3102 252.136 30.2947 252.223 30.2432L254.627 28.8407C254.713 28.7892 254.739 28.7221 254.678 28.686L253.089 27.7579C253.032 27.7219 252.915 27.7373 252.829 27.7889L250.424 29.1913C250.338 29.2429 250.312 29.3099 250.373 29.346L251.963 30.2741Z" fill="#E4E3F8"/>
<path d="M249.175 34.4564C249.231 34.4925 249.348 34.477 249.435 34.4255L251.839 33.023C251.926 32.9715 251.951 32.9044 251.89 32.8683L250.301 31.9403C250.245 31.9093 250.128 31.9196 250.041 31.9712L247.637 33.3736C247.55 33.4252 247.525 33.4922 247.581 33.5283L249.175 34.4564Z" fill="#E4E3F8"/>
<path d="M250.586 36.1986C250.642 36.2347 250.76 36.2192 250.846 36.1677L253.25 34.7652C253.337 34.7136 253.363 34.6466 253.301 34.6105L251.707 33.6824C251.651 33.6515 251.534 33.6618 251.447 33.7134L249.043 35.1158C248.956 35.1674 248.931 35.2344 248.987 35.2653L250.586 36.1986Z" fill="#E4E3F8"/>
<path d="M254.394 36.5343C254.45 36.5652 254.567 36.5549 254.654 36.5033L257.058 35.1009C257.145 35.0493 257.165 34.9823 257.109 34.9513L255.52 34.0233C255.464 33.9923 255.347 34.0026 255.26 34.0542L252.856 35.4566C252.769 35.5082 252.749 35.5752 252.805 35.6113L254.394 36.5343Z" fill="#E4E3F8"/>
<path d="M261.006 35.554C261.062 35.5901 261.179 35.5746 261.266 35.5231L263.67 34.1206C263.757 34.0691 263.782 34.002 263.721 33.9659L261.852 32.8729C261.796 32.8419 261.679 32.8522 261.592 32.9038L259.188 34.3062C259.101 34.3578 259.081 34.4248 259.137 34.4609L261.006 35.554Z" fill="#E4E3F8"/>
<path d="M256.862 37.9731C256.918 38.0092 257.056 37.9783 257.173 37.9113L260.321 36.0757C260.433 36.0087 260.479 35.9262 260.423 35.8952L258.553 34.8022C258.497 34.7712 258.355 34.797 258.243 34.8589L255.095 36.6944C254.982 36.7615 254.937 36.844 254.993 36.8749L256.862 37.9731Z" fill="#E4E3F8"/>
<path d="M236.191 50.0581C236.236 50.0839 236.348 50.0685 236.435 50.0169L238.834 48.6144C238.921 48.5629 238.957 48.501 238.906 48.4701L238.213 48.0679C238.167 48.0421 238.055 48.0576 237.968 48.1092L235.569 49.5116C235.482 49.5632 235.452 49.625 235.498 49.656L236.191 50.0581Z" fill="#E4E3F8"/>
<path d="M232.98 51.981C233.025 52.0068 233.138 51.9913 233.224 51.9397L235.623 50.5373C235.71 50.4857 235.746 50.4239 235.695 50.3929L235.002 49.9908C234.956 49.965 234.844 49.9804 234.757 50.032L232.358 51.4345C232.272 51.486 232.241 51.5479 232.287 51.5788L232.98 51.981Z" fill="#E4E3F8"/>
<path d="M231.666 51.2392C231.712 51.265 231.819 51.2444 231.905 51.198L234.305 49.7951C234.392 49.7435 234.428 49.6816 234.382 49.6559L233.714 49.269C233.668 49.2433 233.561 49.2639 233.475 49.3103L231.075 50.7132C230.988 50.7647 230.958 50.8266 230.998 50.8524L231.666 51.2392Z" fill="#E4E3F8"/>
<path d="M240.342 47.6144C240.398 47.6505 240.515 47.635 240.602 47.5835L256.235 38.4624C256.322 38.4109 256.347 38.3438 256.286 38.3078L254.416 37.2147C254.36 37.1837 254.238 37.194 254.157 37.2456L238.523 46.3666C238.437 46.4182 238.411 46.4852 238.467 46.5213L240.342 47.6144Z" fill="#E4E3F8"/>
<path d="M257.295 37.3694C257.3 37.3694 257.31 37.3694 257.32 37.3643L259.155 36.2915C259.165 36.2863 259.17 36.2812 259.165 36.276L259.048 36.209C259.043 36.209 259.033 36.209 259.022 36.2141L257.188 37.2869C257.178 37.2921 257.173 37.2972 257.178 37.3024L257.295 37.3694Z" fill="#E4E3F8"/>
<path d="M262 34.4199C262.005 34.4199 262.01 34.4199 262.015 34.4199L262.795 33.966C262.8 33.966 262.8 33.9609 262.795 33.9557L262.678 33.8887C262.673 33.8887 262.667 33.8887 262.662 33.8887L261.883 34.3425C261.878 34.3425 261.878 34.3477 261.883 34.3528L262 34.4199Z" fill="#E4E3F8"/>
<path d="M251.099 38.4515C251.155 38.4824 251.273 38.4721 251.359 38.4206L253.764 37.0181C253.85 36.9666 253.876 36.8995 253.815 36.8635L252.225 35.9354C252.169 35.9044 252.047 35.9147 251.965 35.9663L249.561 37.3687C249.474 37.4203 249.449 37.4873 249.51 37.5234L251.099 38.4515Z" fill="#E4E3F8"/>
<path d="M247.795 40.3802C247.851 40.4112 247.968 40.4009 248.055 40.3493L250.454 38.9468C250.541 38.8953 250.566 38.8283 250.51 38.7922L248.921 37.8641C248.865 37.8331 248.743 37.8435 248.661 37.895L246.262 39.2975C246.175 39.349 246.155 39.416 246.211 39.4521L247.795 40.3802Z" fill="#E4E3F8"/>
<path d="M244.488 42.3145C244.544 42.3455 244.661 42.3351 244.748 42.2836L247.152 40.8811C247.239 40.8296 247.259 40.7626 247.203 40.7316L245.614 39.8035C245.558 39.7726 245.44 39.7829 245.354 39.8345L242.949 41.2369C242.863 41.2885 242.842 41.3555 242.899 41.3916L244.488 42.3145Z" fill="#E4E3F8"/>
<path d="M241.179 44.2425C241.235 44.2735 241.352 44.2632 241.439 44.2116L243.843 42.8092C243.93 42.7576 243.955 42.6906 243.894 42.6545L242.305 41.7264C242.249 41.6955 242.132 41.7058 242.045 41.7573L239.641 43.1598C239.554 43.2113 239.534 43.2784 239.59 43.3144L241.179 44.2425Z" fill="#E4E3F8"/>
<path d="M237.87 46.1759C237.926 46.2068 238.043 46.1965 238.13 46.1449L240.529 44.7425C240.616 44.6909 240.636 44.6239 240.58 44.5929L238.991 43.6649C238.935 43.6339 238.818 43.6442 238.731 43.6958L236.332 45.0982C236.245 45.1498 236.22 45.2168 236.276 45.2529L237.87 46.1759Z" fill="#E4E3F8"/>
<path d="M234.568 48.1039C234.624 48.1348 234.741 48.1245 234.828 48.0729L237.227 46.6705C237.314 46.6189 237.339 46.5519 237.278 46.5158L235.689 45.5877C235.633 45.5568 235.516 45.5671 235.429 45.6186L233.03 47.0211C232.943 47.0727 232.918 47.1397 232.979 47.1758L234.568 48.1039Z" fill="#E4E3F8"/>
<path d="M227.115 52.4507C227.171 52.4817 227.288 52.4714 227.375 52.4198L233.921 48.5992C234.007 48.5476 234.033 48.4806 233.972 48.4445L232.382 47.5164C232.326 47.4855 232.209 47.4958 232.122 47.5474L225.577 51.368C225.49 51.4195 225.465 51.4866 225.526 51.5227L227.115 52.4507Z" fill="#E4E3F8"/>
<path d="M247.29 38.1163C247.346 38.1524 247.463 38.1369 247.55 38.0853L249.954 36.6829C250.041 36.6313 250.066 36.5643 250.005 36.5334L248.41 35.6053C248.354 35.5744 248.237 35.5847 248.151 35.6362L245.746 37.0387C245.66 37.0902 245.639 37.1573 245.695 37.1882L247.29 38.1163Z" fill="#E4E3F8"/>
<path d="M243.981 40.045C244.037 40.0811 244.154 40.0656 244.241 40.0141L246.645 38.6116C246.732 38.56 246.757 38.493 246.696 38.4621L245.102 37.534C245.046 37.5031 244.929 37.5134 244.842 37.5649L242.438 38.9674C242.351 39.0189 242.331 39.086 242.387 39.1169L243.981 40.045Z" fill="#E4E3F8"/>
<path d="M240.679 41.9789C240.735 42.015 240.852 41.9995 240.939 41.9479L243.343 40.5455C243.43 40.4939 243.455 40.4269 243.399 40.3908L241.805 39.4627C241.749 39.4318 241.626 39.4421 241.545 39.4937L239.14 40.8961C239.054 40.9477 239.028 41.0147 239.084 41.0456L240.679 41.9789Z" fill="#E4E3F8"/>
<path d="M237.366 43.9076C237.422 43.9437 237.539 43.9282 237.626 43.8766L240.025 42.4742C240.112 42.4226 240.137 42.3556 240.076 42.3195L238.482 41.3914C238.426 41.3605 238.309 41.3708 238.222 41.4224L235.823 42.8248C235.736 42.8764 235.711 42.9434 235.772 42.9743L237.366 43.9076Z" fill="#E4E3F8"/>
<path d="M234.062 45.835C234.118 45.8711 234.235 45.8557 234.321 45.8041L236.726 44.4017C236.812 44.3501 236.838 44.2831 236.777 44.2521L235.182 43.324C235.126 43.2931 235.009 43.3034 234.922 43.355L232.518 44.7574C232.432 44.809 232.406 44.876 232.467 44.9069L234.062 45.835Z" fill="#E4E3F8"/>
<path d="M230.753 47.7699C230.809 47.806 230.927 47.7905 231.013 47.7389L233.413 46.3365C233.499 46.2849 233.525 46.2179 233.469 46.1818L231.874 45.2537C231.818 45.2228 231.701 45.2331 231.614 45.2847L229.215 46.6871C229.128 46.7387 229.108 46.8057 229.164 46.8366L230.753 47.7699Z" fill="#E4E3F8"/>
<path d="M227.446 49.6973C227.502 49.7334 227.619 49.718 227.706 49.6664L230.11 48.264C230.197 48.2124 230.222 48.1454 230.161 48.1144L228.567 47.1863C228.511 47.1554 228.394 47.1657 228.307 47.2173L225.903 48.6197C225.816 48.6713 225.796 48.7383 225.852 48.7692L227.446 49.6973Z" fill="#E4E3F8"/>
<path d="M245.886 36.38C245.942 36.416 246.059 36.4006 246.146 36.349L248.55 34.9466C248.637 34.895 248.657 34.828 248.601 34.797L247.012 33.869C246.956 33.838 246.838 33.8483 246.752 33.8999L244.348 35.3023C244.261 35.3539 244.235 35.4209 244.291 35.4519L245.886 36.38Z" fill="#E4E3F8"/>
<path d="M242.578 38.308C242.634 38.3441 242.751 38.3286 242.837 38.277L245.242 36.8746C245.328 36.823 245.354 36.756 245.293 36.7199L243.703 35.7918C243.647 35.7609 243.53 35.7712 243.444 35.8228L241.039 37.2252C240.953 37.2768 240.932 37.3438 240.988 37.3747L242.578 38.308Z" fill="#E4E3F8"/>
<path d="M239.269 40.2416C239.325 40.2776 239.442 40.2622 239.529 40.2106L241.928 38.8082C242.014 38.7566 242.035 38.6896 241.979 38.6535L240.389 37.7254C240.333 37.6945 240.216 37.7048 240.13 37.7563L237.73 39.1588C237.644 39.2104 237.618 39.2774 237.674 39.3135L239.269 40.2416Z" fill="#E4E3F8"/>
<path d="M235.961 42.1703C236.017 42.2064 236.134 42.1909 236.22 42.1393L238.625 40.7369C238.711 40.6853 238.737 40.6183 238.676 40.5822L237.086 39.6541C237.03 39.6232 236.913 39.6335 236.826 39.6851L234.422 41.0875C234.336 41.1391 234.315 41.2061 234.371 41.237L235.961 42.1703Z" fill="#E4E3F8"/>
<path d="M232.656 44.098C232.712 44.1341 232.829 44.1186 232.916 44.0671L235.32 42.6646C235.407 42.6131 235.432 42.546 235.371 42.5099L233.782 41.5819C233.726 41.5509 233.608 41.5612 233.522 41.6128L231.117 43.0152C231.031 43.0668 231.01 43.1338 231.066 43.1648L232.656 44.098Z" fill="#E4E3F8"/>
<path d="M229.346 46.0316C229.402 46.0677 229.519 46.0522 229.611 46.0007L232.015 44.5982C232.101 44.5467 232.127 44.4796 232.066 44.4435L230.477 43.5154C230.42 43.4845 230.303 43.4948 230.217 43.5464L227.812 44.9488C227.726 45.0004 227.7 45.0674 227.756 45.1035L229.346 46.0316Z" fill="#E4E3F8"/>
<path d="M226.039 47.9603C226.095 47.9964 226.212 47.9809 226.298 47.9294L228.703 46.5269C228.789 46.4754 228.815 46.4083 228.754 46.3722L227.164 45.4442C227.108 45.4132 226.991 45.4235 226.905 45.4751L224.5 46.8775C224.414 46.9291 224.393 46.9961 224.449 47.0271L226.039 47.9603Z" fill="#E4E3F8"/>
<path d="M252.48 32.5276C252.536 32.5637 252.653 32.5482 252.739 32.4966L256.815 30.1197C256.901 30.0681 256.927 30.0011 256.866 29.965L255.276 29.0369C255.22 29.006 255.103 29.0163 255.016 29.0679L250.941 31.4448C250.855 31.4964 250.829 31.5634 250.885 31.5995L252.48 32.5276Z" fill="#E4E3F8"/>
<path d="M220.537 48.6099C220.593 48.646 220.71 48.6305 220.797 48.579L224.872 46.202C224.959 46.1505 224.984 46.0835 224.923 46.0474L223.334 45.1193C223.278 45.0832 223.155 45.0987 223.074 45.1502L218.999 47.5271C218.912 47.5787 218.887 47.6457 218.948 47.6818L220.537 48.6099Z" fill="#E4E3F8"/>
<path d="M253.891 34.2658C253.947 34.3018 254.064 34.2864 254.151 34.2348L259.005 31.399C259.092 31.3474 259.117 31.2804 259.056 31.2443L257.462 30.3162C257.406 30.2853 257.289 30.2956 257.202 30.3472L252.348 33.183C252.261 33.2345 252.235 33.3016 252.291 33.3325L253.891 34.2658Z" fill="#E4E3F8"/>
<path d="M257.701 34.6002C257.757 34.6312 257.874 34.6209 257.961 34.5693L261.201 32.6822C261.287 32.6306 261.313 32.5636 261.252 32.5275L259.662 31.5994C259.606 31.5685 259.489 31.5788 259.402 31.6304L256.163 33.5175C256.076 33.569 256.051 33.6361 256.112 33.6722L257.701 34.6002Z" fill="#E4E3F8"/>
<path d="M248.654 32.2028C248.71 32.2389 248.827 32.2234 248.914 32.1719L251.313 30.7694C251.4 30.7179 251.425 30.6508 251.364 30.6147L249.775 29.6867C249.719 29.6506 249.602 29.666 249.515 29.7176L247.116 31.12C247.029 31.1716 247.004 31.2386 247.065 31.2747L248.654 32.2028Z" fill="#E4E3F8"/>
<path d="M245.361 34.1208C245.417 34.1569 245.534 34.1414 245.621 34.0898L248.025 32.6874C248.112 32.6358 248.137 32.5688 248.076 32.5327L246.487 31.6046C246.431 31.5685 246.314 31.584 246.227 31.6356L243.823 33.038C243.736 33.0896 243.711 33.1566 243.772 33.1927L245.361 34.1208Z" fill="#E4E3F8"/>
<path d="M242.054 36.0544C242.11 36.0905 242.227 36.075 242.314 36.0234L244.718 34.621C244.805 34.5694 244.83 34.5024 244.769 34.4663L243.18 33.5382C243.124 33.5021 243.007 33.5176 242.92 33.5692L240.516 34.9716C240.429 35.0232 240.409 35.0902 240.465 35.1211L242.054 36.0544Z" fill="#E4E3F8"/>
<path d="M238.748 37.9831C238.804 38.0192 238.921 38.0037 239.008 37.9521L241.407 36.5497C241.494 36.4981 241.519 36.4311 241.458 36.395L239.869 35.4669C239.813 35.4308 239.695 35.4463 239.609 35.4979L237.21 36.9003C237.123 36.9519 237.097 37.0189 237.159 37.055L238.748 37.9831Z" fill="#E4E3F8"/>
<path d="M235.441 39.9108C235.497 39.9469 235.614 39.9314 235.701 39.8799L238.1 38.4774C238.187 38.4259 238.212 38.3588 238.151 38.3228L236.562 37.3947C236.506 37.3586 236.388 37.374 236.302 37.4256L233.903 38.8281C233.816 38.8796 233.796 38.9466 233.852 38.9776L235.441 39.9108Z" fill="#E4E3F8"/>
<path d="M232.131 41.8451C232.187 41.8812 232.304 41.8657 232.39 41.8142L234.795 40.4117C234.881 40.3602 234.902 40.2931 234.846 40.2622L233.256 39.3341C233.2 39.298 233.083 39.3135 232.997 39.3651L230.592 40.7675C230.506 40.8191 230.48 40.8861 230.541 40.917L232.131 41.8451Z" fill="#E4E3F8"/>
<path d="M228.826 43.7731C228.882 43.8092 228.999 43.7937 229.086 43.7422L231.49 42.3397C231.577 42.2882 231.602 42.2212 231.541 42.1851L229.952 41.257C229.896 41.2209 229.779 41.2363 229.692 41.2879L227.288 42.6904C227.201 42.7419 227.176 42.8089 227.237 42.845L228.826 43.7731Z" fill="#E4E3F8"/>
<path d="M225.519 45.7006C225.575 45.7367 225.692 45.7212 225.779 45.6696L228.183 44.2672C228.27 44.2156 228.29 44.1486 228.234 44.1177L226.645 43.1896C226.589 43.1535 226.472 43.169 226.385 43.2205L223.981 44.623C223.894 44.6745 223.874 44.7416 223.93 44.7725L225.519 45.7006Z" fill="#E4E3F8"/>
<path d="M223.593 47.4077C223.633 47.3819 223.679 47.3665 223.735 47.3613C223.786 47.3562 223.827 47.3613 223.852 47.3768L225.442 48.3049C225.467 48.3203 225.482 48.3461 225.472 48.377C225.462 48.408 225.431 48.4338 225.391 48.4595L224.764 48.8256L226.853 50.0476C226.878 50.0631 226.888 50.0889 226.878 50.1198C226.868 50.1507 226.837 50.1765 226.797 50.2023L225.177 51.1458C225.136 51.1716 225.085 51.1871 225.034 51.1922C224.983 51.1974 224.942 51.1922 224.912 51.1768L221.127 48.9648C221.102 48.9494 221.091 48.9236 221.102 48.8926C221.112 48.8617 221.142 48.8359 221.183 48.8102L223.593 47.4077Z" fill="#E4E3F8"/>
<path d="M258.131 33.8167C258.136 33.8167 258.146 33.8167 258.156 33.8115L259.991 32.7388C260.001 32.7336 260.006 32.7285 260.001 32.7233L259.884 32.6562C259.879 32.6562 259.868 32.6563 259.858 32.6614L258.024 33.7342C258.014 33.7393 258.009 33.7445 258.014 33.7497L258.131 33.8167Z" fill="#E4E3F8"/>
<path d="M248.753 49.7077L258.044 44.2835C258.543 43.9896 258.513 43.5307 257.973 43.2575L254.866 41.6952C254.326 41.4219 253.475 41.4425 252.971 41.7313L243.679 47.1554C243.18 47.4493 243.211 47.9082 243.75 48.1815L246.858 49.7438C247.398 50.017 248.248 50.0016 248.753 49.7077Z" fill="#E4E3F8"/>
<path d="M231.717 23.0829L224.758 27.3366C222.828 28.5174 220.81 27.5326 220.286 25.1505L219.613 22.129C219.084 19.747 220.235 16.8286 222.165 15.6479L229.124 11.3942C231.054 10.2135 233.072 11.1983 233.596 13.5803L234.269 16.6018C234.798 18.989 233.652 21.9022 231.717 23.0829Z" fill="#C8C6FB"/>
<path d="M226.233 22.5826L225.295 18.3701C225.219 18.0298 225.464 17.6328 225.744 17.6328L229.625 17.6534C229.936 17.6534 230.043 18.1381 229.809 18.4732L226.859 22.6651C226.645 22.9693 226.309 22.9229 226.233 22.5826Z" fill="white"/>
<path d="M220.67 30.4813L218.036 32.0899C216.472 33.049 214.837 32.2498 214.409 30.3163C213.981 28.3879 214.908 26.0213 216.477 25.0674L219.111 23.4587C220.675 22.4997 222.31 23.2989 222.738 25.2324C223.166 27.1608 222.233 29.5274 220.67 30.4813Z" fill="#AAA8EE"/>
<path d="M220.844 30.3792L222.581 30.5185L222.021 29.0898L220.844 30.3792Z" fill="#C8C6FB"/>
<path d="M217.415 28.7437C217.525 28.3904 217.411 28.0396 217.162 27.9602C216.912 27.8808 216.621 28.1028 216.511 28.4561C216.401 28.8093 216.515 29.1601 216.765 29.2395C217.014 29.3189 217.306 29.0969 217.415 28.7437Z" fill="white"/>
<path d="M218.993 27.7778C219.103 27.4246 218.99 27.0738 218.74 26.9944C218.49 26.915 218.199 27.137 218.089 27.4902C217.98 27.8435 218.093 28.1943 218.343 28.2737C218.592 28.3531 218.884 28.1311 218.993 27.7778Z" fill="white"/>
<path d="M220.599 26.3773C220.671 26.7023 220.518 27.0942 220.253 27.2541C219.988 27.414 219.718 27.2799 219.646 26.955C219.575 26.6301 219.728 26.2381 219.993 26.0782C220.258 25.9183 220.528 26.0524 220.599 26.3773Z" fill="white"/>
<path d="M237.195 13.1212L234.108 15.0083C232.87 15.7663 231.582 15.1321 231.24 13.6059L231.154 13.2243C230.812 11.6981 231.551 9.83166 232.789 9.07372L235.876 7.18661C237.114 6.42868 238.402 7.06287 238.744 8.58906L238.83 8.9706C239.166 10.4968 238.428 12.3633 237.195 13.1212Z" fill="#AAA8EE"/>
<path d="M232.09 10.9973L236.985 8.00684" stroke="#FFFAFA" stroke-miterlimit="10" stroke-linecap="round" stroke-linejoin="round"/>
<path d="M232.41 12.4407L237.305 9.4502" stroke="#FFFAFA" stroke-miterlimit="10" stroke-linecap="round" stroke-linejoin="round"/>
<path d="M232.73 13.8902L236.104 11.8271" stroke="#FFFAFA" stroke-miterlimit="10" stroke-linecap="round" stroke-linejoin="round"/>
<path opacity="0.34" d="M186.595 49.9245C186.895 47.4397 183.796 45.0109 179.671 44.4994C175.546 43.9879 171.959 45.5876 171.658 48.0723C171.357 50.557 174.457 52.9859 178.582 53.4974C182.706 54.0088 186.294 52.4092 186.595 49.9245Z" fill="#B3B2E7"/>
<path d="M178.066 52.9203C181.93 52.7129 184.963 50.6588 184.841 48.3324C184.719 46.006 181.488 44.2882 177.625 44.4956C173.761 44.703 170.728 46.757 170.85 49.0835C170.972 51.4099 174.202 53.1277 178.066 52.9203Z" fill="#BBB9F8"/>
<path d="M177.949 50.6986C181.812 50.4912 184.846 48.4372 184.724 46.1107C184.602 43.7843 181.371 42.0665 177.507 42.2739C173.644 42.4813 170.611 44.5354 170.732 46.8618C170.854 49.1882 174.085 50.906 177.949 50.6986Z" fill="#F6F5FF"/>
<path d="M178.986 43.0961L179.892 45.2403C179.976 45.4363 179.906 45.6618 179.731 45.7801L177.145 47.4807C176.864 47.6656 176.491 47.4696 176.477 47.1332L176.36 44.4714C176.353 44.3161 176.429 44.1682 176.557 44.0869L178.35 42.9075C178.577 42.7559 178.88 42.8484 178.986 43.0961Z" fill="#CBC9FE"/>
<path d="M178.276 42.368L177.326 41.8984L175.175 43.3366L174.904 46.3127C174.89 46.4716 174.955 46.6306 175.08 46.7304L175.489 47.0632C175.887 47.3885 176.475 47.0853 176.453 46.5678L176.351 44.2165L178.308 42.9262C178.52 42.7931 178.502 42.4789 178.276 42.368Z" fill="#BBB9F8"/>
<path d="M176.6 21.502L170.441 31.8166L177.264 42.8226" stroke="#BBB9F8" stroke-width="2" stroke-miterlimit="10" stroke-linecap="round" stroke-linejoin="round"/>
<path d="M174.902 20.6885L168.605 32.0679L175.954 43.7098" stroke="#BBB9F8" stroke-width="2" stroke-miterlimit="10" stroke-linecap="round" stroke-linejoin="round"/>
<path d="M170.181 20.9399L174.78 23.8939C176.018 24.6887 177.676 24.3153 178.462 23.062L178.542 22.9363C179.327 21.683 178.958 20.0083 177.72 19.2134L173.122 16.2595C171.884 15.4647 170.225 15.8381 169.44 17.0914L169.36 17.2171C168.571 18.4666 168.943 20.1414 170.181 20.9399Z" fill="#DFDEFF"/>
<path opacity="0.68" d="M172.407 17.3141L175.14 18.9413C175.275 19.0227 175.454 18.9746 175.535 18.8378C175.615 18.7009 175.567 18.5197 175.432 18.4384L172.699 16.8112C172.564 16.7298 172.385 16.7779 172.305 16.9148C172.224 17.0553 172.272 17.2328 172.407 17.3141Z" fill="#CBC9FE"/>
<path opacity="0.68" d="M170.981 18.3454L173.714 19.9725C173.849 20.0539 174.028 20.0058 174.109 19.869C174.189 19.7322 174.142 19.551 174.007 19.4696L171.274 17.8425C171.138 17.7611 170.959 17.8092 170.879 17.946C170.799 18.0865 170.846 18.264 170.981 18.3454Z" fill="#CBC9FE"/>
<path opacity="0.68" d="M170.384 20.0895L173.117 21.7167C173.252 21.798 173.431 21.75 173.511 21.6131C173.592 21.4763 173.544 21.2951 173.409 21.2138L170.676 19.5866C170.541 19.5052 170.362 19.5533 170.281 19.6901C170.201 19.827 170.249 20.0082 170.384 20.0895Z" fill="#CBC9FE"/>
<path d="M182.656 26.1875C184.751 23.1108 185.726 20.1123 184.834 19.4901C183.942 18.8678 181.521 20.8575 179.426 23.9341C177.331 27.0108 176.356 30.0093 177.248 30.6315C178.14 31.2538 180.561 29.2641 182.656 26.1875Z" fill="#AFADEB"/>
<path d="M176.593 30.1123L175.001 28.2637C173.04 25.9827 172.941 22.6184 174.767 20.2301C176.44 18.0378 179.329 17.2023 181.897 18.1598L184.267 19.0471L176.593 30.1123Z" fill="#F6F5FF"/>
<path d="M182.086 25.7412C184.181 22.6645 185.156 19.666 184.264 19.0438C183.372 18.4215 180.951 20.4112 178.856 23.4879C176.761 26.5645 175.786 29.563 176.678 30.1852C177.569 30.8075 179.991 28.8178 182.086 25.7412Z" fill="#BBB9F8"/>
<path d="M182.478 23.0293C182.46 24.168 182.047 25.8391 179.961 26.5674C179.059 26.8816 178.161 26.0646 178.409 25.1329C178.738 23.8871 179.702 22.4785 180.765 21.9313C181.558 21.5247 182.493 22.1347 182.478 23.0293Z" fill="#DBDAFF"/>
<path d="M178.856 23.4906C180.953 20.4147 183.374 18.422 184.266 19.0431C184.434 19.1577 184.532 19.3573 184.576 19.6272C183.44 19.8749 181.519 21.6569 179.817 24.1598C178.115 26.6626 177.151 29.11 177.33 30.2709C177.067 30.3264 176.847 30.3042 176.679 30.1859C175.784 29.5648 176.763 26.5665 178.856 23.4906Z" fill="#CECCFA"/>
<path d="M170.829 31.0623L168.433 32.3044C168.148 32.4523 168.05 32.8183 168.221 33.0919L169.368 34.9182C169.474 35.0846 169.686 35.1401 169.858 35.0476L172.294 33.7056C172.498 33.5947 172.564 33.3322 172.44 33.1363L171.209 31.1732C171.132 31.0364 170.964 30.992 170.829 31.0623Z" fill="#F6F5FF"/>
<path d="M168.586 32.2227L168.304 32.3891C168.096 32.5111 168.03 32.7848 168.162 32.9919L169.356 34.8927C169.47 35.0702 169.696 35.1293 169.879 35.0295L170.336 34.778L168.586 32.2227Z" fill="#BBB9F8"/>
</g>
<defs>
<linearGradient id="paint0_linear_2028_4807" x1="665" y1="25" x2="2.17912e-07" y2="25" gradientUnits="userSpaceOnUse">
<stop stop-color="#BBB9F8"/>
<stop offset="1" stop-color="#E3E1F9"/>
</linearGradient>
<clipPath id="clip0_2028_4807">
<rect width="665" height="50" fill="white"/>
</clipPath>
</defs>
</svg>
