<svg width="33" height="33" viewBox="0 0 33 33" fill="none" xmlns="http://www.w3.org/2000/svg">
<circle cx="16.5" cy="16.5" r="16.5" fill="#F37E60"/>
<g clip-path="url(#clip0_1581_11045)">
<path d="M16.1013 17.408C14.3731 17.545 12.8604 16.2603 12.7212 14.5375C12.5821 12.8148 13.8691 11.3054 15.5969 11.1648C17.3273 11.0241 18.8441 12.3094 18.9835 14.0348C19.1228 15.7601 17.8319 17.2709 16.1013 17.408ZM15.7293 12.1898C14.5638 12.2565 13.6758 13.2567 13.7509 14.4182C13.8259 15.5796 14.8353 16.458 15.9998 16.3751C17.1528 16.293 18.0233 15.2986 17.949 14.1485C17.8747 12.9985 16.8834 12.1237 15.7293 12.1898Z" fill="white"/>
<path d="M12.0904 21.5436C11.0087 20.7212 9.86627 19.9785 8.79091 19.1482C8.30747 18.775 8.10376 18.3234 7.81688 17.8016L6.81944 15.9634C6.41868 15.2279 5.94332 14.51 5.58849 13.752C5.10492 12.7191 5.84518 11.6235 6.92363 11.4973C8.10573 11.4279 8.4702 12.5019 8.95357 13.3472L10.0885 15.3131C10.5838 16.1739 10.4667 15.9973 11.2683 16.5169C12.7783 17.4957 12.7278 17.8916 14.4196 17.8984L16.3585 17.8979C17.9247 17.897 19.3145 17.7811 20.3476 19.1665C20.5816 19.4803 20.7284 19.9003 20.8963 20.2548L21.8089 22.1517C22.4617 23.4924 23.1605 24.8111 23.8112 26.153C24.1033 26.7555 24.4738 27.3016 24.2045 28.0014C23.775 29.1174 22.207 29.3157 21.4664 28.3848C21.2457 28.1075 21.1212 27.7636 20.9657 27.4481C20.5417 26.588 20.0451 25.7516 19.6579 24.8764C19.6116 26.9477 19.7219 29.0207 19.8307 31.0882L20.0819 35.9279C20.1084 36.4014 20.2324 37.0752 20.0455 37.527C19.601 38.6012 18.5717 39.0231 17.4921 38.572C16.3003 37.9958 16.4157 36.9889 16.3347 35.8434L15.9718 30.7749C15.9364 30.2986 15.921 29.452 15.7693 29.0326C15.853 30.33 15.6198 32.1765 15.5378 33.4974L15.3889 35.8029C15.3597 36.2845 15.3628 36.7992 15.2682 37.2722C14.8631 39.2956 11.837 39.1595 11.6245 37.1835C11.5663 36.6417 11.6433 36.0629 11.6704 35.5192L11.8663 32.0134C11.9373 30.6928 12.0481 29.3672 12.0854 28.0457C12.1433 25.9914 12.1638 23.6056 12.0904 21.5436ZM6.92363 12.5343C6.65646 12.6571 6.51458 12.7903 6.45989 13.076C6.62944 13.7023 7.43073 14.9145 7.76113 15.5222L8.41117 16.7182C9.18954 18.1818 9.06187 18.098 10.4057 19.0466L12.1572 20.2865C13.3395 21.1221 13.1693 20.9651 13.1655 22.3174L13.1648 24.0277C13.1649 27.0564 13.0363 29.7581 12.8692 32.7828L12.707 35.6315C12.6816 36.0571 12.6009 36.5217 12.631 36.9453C12.686 37.7212 13.7627 38.0336 14.1619 37.3123C14.3988 36.8845 14.3632 35.3712 14.4 34.8292L14.7586 29.6738C14.7938 29.2052 14.6517 28.0465 15.2127 27.8552C15.4978 27.7578 16.33 27.7664 16.5824 27.9073C16.9256 28.099 16.8666 28.7459 16.8905 29.0803L17.333 35.1314C17.3816 35.8899 17.1952 38.0543 18.5299 37.7108C19.5621 37.3019 18.9861 35.3658 18.9299 34.3894L18.7883 31.5749C18.705 30.0077 18.6505 28.5781 18.6653 27.0129L18.6661 23.5762C18.6664 23.1946 18.5446 21.9094 19.3524 22.2422C19.7595 22.4099 20.0529 23.3981 20.2398 23.7712C20.4634 24.2173 22.1749 27.687 22.4089 27.871C22.6717 28.0775 23.0958 27.928 23.2307 27.6427C23.406 27.2717 22.598 26.036 22.4204 25.6893C21.9959 24.8605 21.5861 24.0209 21.1742 23.1856L20.0328 20.8167C19.0724 18.8403 18.8886 18.9298 16.5132 18.9306L14.2111 18.9325C12.8945 18.9334 13.0998 18.9342 12.0096 18.2469L10.3455 17.1814C10.084 17.0127 9.8799 16.9274 9.69713 16.6621C9.1342 15.8447 8.47127 14.6168 7.9852 13.7384C7.7484 13.3105 7.53155 12.4832 6.92363 12.5343Z" fill="white"/>
<path d="M20.0714 16.5672L20.0703 11.4315C20.0702 10.4121 20.2186 9.47608 21.5106 9.34002C22.5167 9.32641 23.5248 9.34015 24.5312 9.33958L25.4395 9.33934C26.5404 9.33953 27.3825 9.67734 27.3955 10.9935L27.3962 12.953C27.3963 13.6865 27.5284 14.4234 26.9619 14.9922C26.3909 15.5655 25.6002 15.4506 24.861 15.4488C24.4493 15.4486 21.9245 15.4085 21.7417 15.4804C21.4548 15.5932 20.3697 16.36 20.0714 16.5672ZM23.3499 10.1196L22.1446 10.1187C21.155 10.1179 20.8601 10.1225 20.8602 11.2911L20.8618 15.098C21.7625 14.6768 21.2045 14.7006 22.3279 14.7017L23.831 14.7021L25.1708 14.7038C25.9278 14.7045 26.6228 14.7656 26.6228 13.8028L26.6218 11.7453C26.6207 10.2882 26.7563 10.1186 25.0847 10.1189L23.3499 10.1196Z" fill="white"/>
<path d="M23.3472 12.8751C23.3847 12.2587 23.7691 12.2357 24.0346 11.8554C24.145 11.6973 24.1219 11.4307 23.9493 11.3234C23.5925 11.1015 23.2992 11.6158 22.9587 11.3956C22.3566 11.0061 23.1569 10.651 23.5805 10.62C24.3048 10.5742 25.0332 11.0933 24.835 11.8648C24.7255 12.2909 24.3119 12.3899 24.0607 12.6935C23.9804 12.7905 24.0291 12.9285 23.9616 13.0197C23.9039 13.0977 23.3788 13.2073 23.3472 12.8751Z" fill="white"/>
<path d="M23.801 14.0366C23.6019 14.0997 23.3889 13.9911 23.3238 13.7931C23.2586 13.5952 23.3656 13.3819 23.5635 13.3151C23.7641 13.2474 23.9815 13.3557 24.0475 13.5563C24.1136 13.7569 24.0028 13.9726 23.801 14.0366Z" fill="white"/>
</g>
<defs>
<clipPath id="clip0_1581_11045">
<rect width="22.8" height="16.8" fill="white" transform="translate(5.39844 8.40039)"/>
</clipPath>
</defs>
</svg>
