<svg width="359" height="787" viewBox="0 0 359 787" fill="none" xmlns="http://www.w3.org/2000/svg">
<g clip-path="url(#clip0_3038_477)">
<rect width="359" height="787" fill="#6683C2"/>
<rect y="517" width="361" height="322" fill="#546B9E"/>
<path d="M22.8615 577H7.97656V343.263H22.8615V577Z" fill="#546B9E"/>
<path d="M7.97091 316.211H-6.91406V297.508H7.97091V316.211Z" fill="#546B9E"/>
<path d="M37.7131 577H22.8281V329.888H37.7131V577Z" fill="#546B9E"/>
<path d="M52.6115 577H37.7266V350.511H52.6115V577Z" fill="#546B9E"/>
<path d="M67.4865 577H52.6016V365.482H67.4865V577Z" fill="#546B9E"/>
<path d="M82.3537 577H67.4688V333.814H82.3537V577Z" fill="#546B9E"/>
<path d="M112.127 296.902H97.2422V277.293H112.127V296.902Z" fill="#546B9E"/>
<path d="M112.127 264.543H97.2422V249.119H112.127V264.543Z" fill="#546B9E"/>
<path d="M97.2287 577H82.3438V323.351H97.2287V577Z" fill="#546B9E"/>
<path d="M112.127 577H97.2422V310.667H112.127V577Z" fill="#546B9E"/>
<path d="M126.979 577H112.094V350.511H126.979V577Z" fill="#546B9E"/>
<path d="M156.752 295.824H141.867V273.41H156.752V295.824Z" fill="#546B9E"/>
<path d="M305.526 303.742H290.641V286.743H305.526V303.742Z" fill="#546B9E"/>
<path d="M216.244 287.604H201.359V271.683H216.244V287.604Z" fill="#546B9E"/>
<path d="M216.244 261.287H201.359V245H216.244V261.287Z" fill="#546B9E"/>
<path d="M186.51 303.375H171.625V287.088H186.51V303.375Z" fill="#546B9E"/>
<path d="M67.4865 322.184H52.6016V297.505H67.4865V322.184Z" fill="#546B9E"/>
<path d="M67.4865 285.125H52.6016V269.463H67.4865V285.125Z" fill="#546B9E"/>
<path d="M37.7131 305.037H22.8281V288.75H37.7131V305.037Z" fill="#546B9E"/>
<path d="M7.97091 280.074H-6.91406V263.787H7.97091V280.074Z" fill="#546B9E"/>
<path d="M141.869 577H126.984V333.814H141.869V577Z" fill="#546B9E"/>
<path d="M156.752 577H141.867V323.351H156.752V577Z" fill="#546B9E"/>
<path d="M171.619 577H156.734V350.511H171.619V577Z" fill="#546B9E"/>
<path d="M186.51 577H171.625V375.578H186.51V577Z" fill="#546B9E"/>
<path d="M201.362 577H186.477V318.088H201.362V577Z" fill="#546B9E"/>
<path d="M7.97091 577H-6.91406V356.638H7.97091V577Z" fill="#546B9E"/>
<path d="M216.244 577H201.359V299.449H216.244V577Z" fill="#546B9E"/>
<path d="M231.135 577H216.25V310.667H231.135V577Z" fill="#546B9E"/>
<path d="M246.002 577H231.117V329.888H246.002V577Z" fill="#546B9E"/>
<path d="M275.776 577H260.891V332.412H275.776V577Z" fill="#546B9E"/>
<path d="M290.643 577H275.758V367.51H290.643V577Z" fill="#546B9E"/>
<path d="M275.776 317.352H260.891V284.475H275.776V317.352Z" fill="#546B9E"/>
<path d="M365.041 298.023H350.156V281.24H365.041V298.023Z" fill="#546B9E"/>
<path d="M275.776 274.793H260.891V257.837H275.776V274.793Z" fill="#546B9E"/>
<path d="M305.526 577H290.641V318.088H305.526V577Z" fill="#546B9E"/>
<path d="M320.401 577H305.516V329.888H320.401V577Z" fill="#546B9E"/>
<path d="M260.885 577H246V345.485H260.885V577Z" fill="#546B9E"/>
<path d="M335.268 577H320.383V297.939H335.268V577Z" fill="#546B9E"/>
<path d="M335.268 276.73H320.383V260.659H335.268V276.73Z" fill="#546B9E"/>
<path d="M350.151 577H335.266V310.667H350.151V577Z" fill="#546B9E"/>
<path d="M365.041 577H350.156V327.386H365.041V577Z" fill="#546B9E"/>
<path d="M350.151 367.336H335.266V351.221H350.151V367.336Z" fill="#6683C2"/>
<path d="M126.979 386.881H112.094V364.295H126.979V386.881Z" fill="#6683C2"/>
</g>
<defs>
<clipPath id="clip0_3038_477">
<rect width="359" height="787" fill="white"/>
</clipPath>
</defs>
</svg>
