<svg width="248" height="157" viewBox="0 0 248 157" fill="none" xmlns="http://www.w3.org/2000/svg">
<g clip-path="url(#clip0_1573_18042)">
<path d="M227.067 31.8818H98.7422V49.0184H227.067V31.8818Z" fill="#CBBBA0"/>
<path d="M137.993 63.7646H98.5391V158.414H137.993V63.7646Z" fill="#E6D4B5"/>
<path d="M227.259 63.7646H187.805V158.414H227.259V63.7646Z" fill="#E6D4B5"/>
<path d="M229.057 61.5723H96.9453V63.9634H229.057V61.5723Z" fill="#DBCAAD"/>
<path d="M229.057 53.2031H96.9453V59.181H229.057V53.2031Z" fill="#DBCAAD"/>
<path d="M230.456 59.1816H95.5547V61.5728H230.456V59.1816Z" fill="#A89B85"/>
<path d="M231.054 50.8125H94.7578V53.2037H231.054V50.8125Z" fill="#A89B85"/>
<path d="M232.445 47.4248H93.3594V50.8123H232.445V47.4248Z" fill="#E6D4B5"/>
<path d="M229.662 30.6865H96.1562V33.0777H229.662V30.6865Z" fill="#A89B85"/>
<path d="M231.054 27.2988H94.7578V30.6863H231.054V27.2988Z" fill="#DBCAAD"/>
<path d="M129.231 144.865H107.711V163.197H129.231V144.865Z" fill="#D4C3A7"/>
<path d="M218.294 144.865H196.773V163.197H218.294V144.865Z" fill="#D4C3A7"/>
<path d="M187.812 63.7646V163.795H184.026V90.0673C184.026 80.702 177.849 72.7315 169.28 70.1411C167.288 69.5433 165.295 69.344 163.302 69.344H162.705C160.712 69.344 158.52 69.7425 156.727 70.1411C148.158 72.7315 141.981 80.702 141.981 90.0673V163.795H138.195V63.7646H187.812Z" fill="#BDAE95"/>
<path d="M162.708 67.7496C150.354 67.7496 140.391 77.7127 140.391 90.067V162.399H139.594V65.3584H186.421V162.399H185.623V90.067C185.623 77.7127 175.66 67.7496 163.306 67.7496H162.708Z" fill="#A89B85"/>
<path d="M143.174 91.4619H96.9453V93.8531H143.174V91.4619Z" fill="#DBCAAD"/>
<path d="M229.057 91.4619H182.828V93.8531H229.057V91.4619Z" fill="#DBCAAD"/>
<path d="M141.779 93.6523H98.5391V98.6339H141.779V93.6523Z" fill="#A89B85"/>
<path d="M227.263 93.6523H184.023V98.6339H227.263V93.6523Z" fill="#A89B85"/>
<path d="M133.612 68.5469H103.125V86.4805H133.612V68.5469Z" fill="#DBCAAD"/>
<path d="M222.69 68.5469H192.203V86.4805H222.69V68.5469Z" fill="#DBCAAD"/>
<path d="M132.213 69.9424H104.516V85.0864H132.213V69.9424Z" fill="#A89B85"/>
<path d="M221.283 69.9424H193.586V85.0864H221.283V69.9424Z" fill="#A89B85"/>
<path d="M130.822 71.3359H105.914V83.491H130.822V71.3359Z" fill="#DBCAAD"/>
<path d="M219.892 71.3359H194.984V83.491H219.892V71.3359Z" fill="#DBCAAD"/>
<path d="M130.021 72.1328H106.508V82.893H130.021V72.1328Z" fill="#CBBBA0"/>
<path d="M219.294 72.1328H195.781V82.893H219.294V72.1328Z" fill="#CBBBA0"/>
<path d="M111.096 43.6387H98.7422V47.4247H111.096V43.6387Z" fill="#DBCAAD"/>
<path d="M227.065 43.6387H214.711V47.4247H227.065V43.6387Z" fill="#DBCAAD"/>
<path d="M124.042 43.6387H111.688V47.4247H124.042V43.6387Z" fill="#DBCAAD"/>
<path d="M214.112 43.6387H201.758V47.4247H214.112V43.6387Z" fill="#DBCAAD"/>
<path d="M137.003 43.6387H124.648V47.4247H137.003V43.6387Z" fill="#DBCAAD"/>
<path d="M201.159 43.6387H188.805V47.4247H201.159V43.6387Z" fill="#DBCAAD"/>
<path d="M149.956 43.6387H137.602V47.4247H149.956V43.6387Z" fill="#DBCAAD"/>
<path d="M188.214 43.6387H175.859V47.4247H188.214V43.6387Z" fill="#DBCAAD"/>
<path d="M162.702 43.8389H150.547V47.6249H162.702V43.8389Z" fill="#DBCAAD"/>
<path d="M175.46 43.8389H163.305V47.6249H175.46V43.8389Z" fill="#DBCAAD"/>
<path d="M107.904 38.4581C107.904 40.0522 106.708 41.2478 105.114 41.2478C103.52 41.2478 102.125 39.853 102.125 38.4581C102.125 36.864 103.321 35.6685 104.915 35.6685C106.509 35.4692 107.904 36.864 107.904 38.4581Z" fill="#DBCAAD"/>
<path d="M218.102 38.4581C218.102 40.0522 219.297 41.2478 220.891 41.2478C222.485 41.2478 223.681 40.0522 223.681 38.4581C223.681 36.864 222.485 35.6685 220.891 35.6685C219.297 35.4692 218.102 36.864 218.102 38.4581Z" fill="#DBCAAD"/>
<path d="M120.868 38.4581C120.868 40.0522 119.673 41.2478 118.079 41.2478C116.485 41.2478 115.289 40.0522 115.289 38.4581C115.289 36.864 116.485 35.6685 118.079 35.6685C119.474 35.4692 120.868 36.864 120.868 38.4581Z" fill="#DBCAAD"/>
<path d="M205.141 38.4581C205.141 40.0522 206.336 41.2478 207.93 41.2478C209.524 41.2478 210.72 40.0522 210.72 38.4581C210.72 36.864 209.524 35.6685 207.93 35.6685C206.336 35.4692 205.141 36.864 205.141 38.4581Z" fill="#DBCAAD"/>
<path d="M133.611 38.4581C133.611 40.0522 132.415 41.2478 130.821 41.2478C129.227 41.2478 128.031 40.0522 128.031 38.4581C128.031 36.864 129.227 35.6685 130.821 35.6685C132.415 35.4692 133.611 36.864 133.611 38.4581Z" fill="#DBCAAD"/>
<path d="M192.203 38.4581C192.203 40.0522 193.399 41.2478 194.993 41.2478C196.587 41.2478 197.782 40.0522 197.782 38.4581C197.782 36.864 196.587 35.6685 194.993 35.6685C193.399 35.4692 192.203 36.864 192.203 38.4581Z" fill="#DBCAAD"/>
<path d="M146.564 38.4581C146.564 40.0522 145.368 41.2478 143.774 41.2478C142.18 41.2478 140.984 40.0522 140.984 38.4581C140.984 36.864 142.18 35.6685 143.774 35.6685C145.368 35.4692 146.564 36.864 146.564 38.4581Z" fill="#DBCAAD"/>
<path d="M179.242 38.4581C179.242 40.0522 180.438 41.2478 182.032 41.2478C183.626 41.2478 184.822 40.0522 184.822 38.4581C184.822 36.864 183.626 35.6685 182.032 35.6685C180.438 35.4692 179.242 36.864 179.242 38.4581Z" fill="#DBCAAD"/>
<path d="M159.517 38.4581C159.517 40.0522 158.321 41.2478 156.727 41.2478C155.133 41.2478 153.938 40.0522 153.938 38.4581C153.938 36.864 155.133 35.6685 156.727 35.6685C158.321 35.4692 159.517 36.864 159.517 38.4581Z" fill="#DBCAAD"/>
<path d="M166.297 38.4581C166.297 40.0522 167.492 41.2478 169.087 41.2478C170.681 41.2478 171.876 40.0522 171.876 38.4581C171.876 36.864 170.681 35.6685 169.087 35.6685C167.492 35.4692 166.297 36.864 166.297 38.4581Z" fill="#DBCAAD"/>
<path d="M107.903 27.2994C107.903 28.8935 106.708 30.0891 105.113 30.0891C103.519 30.0891 102.324 28.8935 102.324 27.2994C102.125 25.7053 103.519 24.5098 104.914 24.5098C106.508 24.5098 107.903 25.7053 107.903 27.2994Z" fill="#DBCAAD"/>
<path d="M218.102 27.2994C218.102 28.8935 219.297 30.0891 220.891 30.0891C222.485 30.0891 223.681 28.8935 223.681 27.2994C223.681 25.7053 222.485 24.5098 220.891 24.5098C219.297 24.5098 218.102 25.7053 218.102 27.2994Z" fill="#DBCAAD"/>
<path d="M120.868 27.2994C120.868 28.8935 119.673 30.0891 118.079 30.0891C116.485 30.0891 115.289 28.8935 115.289 27.2994C115.289 25.7053 116.485 24.5098 118.079 24.5098C119.474 24.5098 120.868 25.7053 120.868 27.2994Z" fill="#DBCAAD"/>
<path d="M205.141 27.2994C205.141 28.8935 206.336 30.0891 207.93 30.0891C209.524 30.0891 210.72 28.8935 210.72 27.2994C210.72 25.7053 209.524 24.5098 207.93 24.5098C206.336 24.5098 205.141 25.7053 205.141 27.2994Z" fill="#DBCAAD"/>
<path d="M133.611 27.2994C133.611 28.8935 132.415 30.0891 130.821 30.0891C129.227 30.0891 128.031 28.8935 128.031 27.2994C128.031 25.7053 129.227 24.5098 130.821 24.5098C132.415 24.5098 133.611 25.7053 133.611 27.2994Z" fill="#DBCAAD"/>
<path d="M192.203 27.2994C192.203 28.8935 193.399 30.0891 194.993 30.0891C196.587 30.0891 197.782 28.8935 197.782 27.2994C197.782 25.7053 196.587 24.5098 194.993 24.5098C193.399 24.5098 192.203 25.7053 192.203 27.2994Z" fill="#DBCAAD"/>
<path d="M146.564 27.2994C146.564 28.8935 145.368 30.0891 143.774 30.0891C142.18 30.0891 140.984 28.8935 140.984 27.2994C140.984 25.7053 142.18 24.5098 143.774 24.5098C145.368 24.5098 146.564 25.7053 146.564 27.2994Z" fill="#DBCAAD"/>
<path d="M179.242 27.2994C179.242 28.8935 180.438 30.0891 182.032 30.0891C183.626 30.0891 184.822 28.8935 184.822 27.2994C184.822 25.7053 183.626 24.5098 182.032 24.5098C180.438 24.5098 179.242 25.7053 179.242 27.2994Z" fill="#DBCAAD"/>
<path d="M159.517 27.2994C159.517 28.8935 158.321 30.0891 156.727 30.0891C155.133 30.0891 153.938 28.8935 153.938 27.2994C153.938 25.7053 155.133 24.5098 156.727 24.5098C158.321 24.5098 159.517 25.7053 159.517 27.2994Z" fill="#DBCAAD"/>
<path d="M166.297 27.2994C166.297 28.8935 167.492 30.0891 169.087 30.0891C170.681 30.0891 171.876 28.8935 171.876 27.2994C172.076 25.7053 170.681 24.5098 169.087 24.5098C167.492 24.5098 166.297 25.7053 166.297 27.2994Z" fill="#DBCAAD"/>
<path d="M113.294 33.6758H109.906V42.8419H113.294V33.6758Z" fill="#DBCAAD"/>
<path d="M216.106 33.6758H212.719V42.8419H216.106V33.6758Z" fill="#DBCAAD"/>
<path d="M126.044 33.6758H122.656V42.8419H126.044V33.6758Z" fill="#DBCAAD"/>
<path d="M203.356 33.6758H199.969V42.8419H203.356V33.6758Z" fill="#DBCAAD"/>
<path d="M138.989 33.6758H135.602V42.8419H138.989V33.6758Z" fill="#DBCAAD"/>
<path d="M190.403 33.6758H187.016V42.8419H190.403V33.6758Z" fill="#DBCAAD"/>
<path d="M151.95 33.6758H148.562V42.8419H151.95V33.6758Z" fill="#DBCAAD"/>
<path d="M177.247 33.6758H173.859V42.8419H177.247V33.6758Z" fill="#DBCAAD"/>
<path d="M164.7 33.6758H161.312V42.8419H164.7V33.6758Z" fill="#DBCAAD"/>
<path d="M108.704 140.082C108.106 138.288 107.708 136.296 107.509 134.502C107.309 131.314 108.106 128.126 107.708 125.137C107.309 121.55 105.914 117.963 107.309 114.775C107.907 113.58 108.704 112.583 109.103 111.388C109.9 109.594 109.501 107.402 110.298 105.609C111.494 103.019 114.682 101.823 117.671 102.022C121.855 102.222 126.239 105.011 127.236 109.395C127.634 111.587 127.236 113.779 127.236 116.17C127.036 120.554 128.431 124.738 128.83 129.122C128.83 130.517 128.83 131.912 128.63 133.107C128.431 134.104 128.033 134.901 127.833 135.897C127.634 137.69 128.63 139.882 127.634 141.277C126.638 142.672 124.446 142.074 122.852 141.875C118.866 141.277 114.881 142.871 110.896 142.273C110.298 142.273 109.7 142.074 109.501 141.676C109.103 140.879 108.903 140.48 108.704 140.082Z" fill="#F0DDBD"/>
<path d="M217.102 140.082C217.7 138.288 218.098 136.296 218.298 134.502C218.497 131.314 217.899 128.126 218.098 125.137C218.497 121.55 219.892 117.963 218.497 114.775C217.899 113.58 217.102 112.583 216.704 111.388C215.907 109.594 216.305 107.402 215.508 105.609C214.312 103.019 211.124 101.823 208.135 102.022C203.951 102.222 199.567 105.011 198.571 109.395C198.172 111.587 198.571 113.779 198.571 116.17C198.77 120.554 197.375 124.738 196.977 129.122C196.977 130.517 196.977 131.912 197.176 133.107C197.375 134.104 197.774 134.901 197.973 135.897C198.172 137.69 197.176 139.882 198.172 141.277C199.168 142.672 201.36 142.074 202.954 141.875C206.94 141.277 210.925 142.871 214.91 142.273C215.508 142.273 216.106 142.074 216.305 141.676C216.903 140.879 216.903 140.48 217.102 140.082Z" fill="#F0DDBD"/>
<path d="M111.889 126.336C113.682 125.34 114.679 122.749 115.675 120.358C115.874 119.76 116.073 119.362 116.472 118.963C116.871 118.565 117.269 118.365 117.668 118.565C117.867 117.967 117.468 117.17 117.468 116.373C117.668 115.576 118.664 115.376 119.062 116.173C119.461 116.771 119.461 117.967 119.062 118.565C119.66 118.565 120.059 119.362 120.457 120.159C120.856 120.956 121.055 121.554 121.454 122.351C121.653 122.948 121.852 123.347 122.051 123.945C122.051 124.542 122.051 125.14 121.852 125.738C121.653 126.535 121.454 127.531 121.254 128.328C121.055 129.125 120.856 129.923 120.657 130.72C120.258 133.111 120.657 135.502 120.856 137.893C120.457 137.893 120.059 137.893 119.859 137.893C119.66 135.9 119.262 134.107 119.062 132.114C119.062 131.915 119.062 131.915 119.062 131.716C118.863 131.517 118.465 131.517 118.465 131.915C118.265 132.314 118.465 132.513 118.465 132.911C118.664 133.908 118.664 134.705 118.863 135.701C119.062 136.498 119.062 137.495 118.664 138.092C118.265 138.491 117.668 138.491 117.269 138.292C117.668 136.697 117.668 134.904 117.668 133.31C117.269 133.111 117.07 133.509 116.671 133.509C116.273 133.709 115.874 133.709 115.675 133.31C115.476 133.111 115.476 132.911 115.476 132.513C115.476 129.723 115.675 126.734 115.874 123.945C115.276 125.14 114.28 125.937 113.483 126.734C113.085 127.133 112.885 127.332 112.487 127.332C112.088 127.332 111.69 126.734 111.889 126.336Z" fill="#D4C3A7"/>
<path d="M121.852 132.313C122.051 130.32 122.251 128.328 122.45 126.335C122.45 125.538 122.649 124.542 122.649 123.744C122.649 123.545 122.649 123.346 122.649 123.147C122.649 122.748 122.45 122.549 122.251 122.35C121.653 121.353 121.055 120.357 120.656 119.361C120.457 119.161 120.457 118.763 120.258 118.364C120.059 117.966 120.059 117.368 120.059 116.97C120.059 115.774 119.859 114.578 119.859 113.383C120.258 113.781 120.457 114.578 120.656 115.176C120.856 115.973 120.656 116.77 120.856 117.368C121.055 117.966 121.653 118.364 122.051 118.763C122.45 119.161 122.848 119.759 122.848 120.556C123.048 120.556 123.247 120.158 123.247 119.759C123.247 119.361 123.048 119.161 123.048 118.763C122.848 117.966 123.446 117.169 124.044 117.169C124.642 117.169 125.239 117.966 125.04 118.763C125.04 119.161 124.841 119.56 124.642 119.958C124.642 120.357 125.04 120.756 125.239 120.357C125.439 119.759 125.837 119.161 126.435 118.763C126.634 118.763 126.634 118.564 126.834 118.763C127.033 118.763 127.033 118.962 127.033 119.161C127.431 121.154 126.037 123.147 126.236 125.339C126.236 125.936 126.435 126.534 126.435 127.132C126.435 127.73 126.236 128.328 126.236 128.925C126.236 129.324 126.236 129.722 126.435 130.121C126.834 131.715 126.834 133.708 126.435 135.302C126.435 135.7 126.236 135.9 126.236 136.298C126.236 136.896 126.634 137.494 126.834 138.091C127.033 138.689 127.232 139.486 126.834 139.885C126.634 140.084 126.435 140.084 126.037 140.084C124.642 140.084 123.247 140.084 122.251 138.888C121.653 138.091 121.453 136.896 121.453 135.7C121.453 134.505 121.653 133.309 121.852 132.313Z" fill="#D4C3A7"/>
<path d="M109.5 113.183C109.102 113.582 108.504 114.179 108.305 114.976C108.902 115.375 109.7 115.973 109.899 116.969C109.899 117.567 109.7 117.965 109.7 118.563C109.7 119.161 109.7 119.759 110.098 119.958C109.899 118.962 110.497 117.965 111.294 117.567C112.091 117.168 112.888 117.168 113.486 116.969C114.482 116.77 115.279 116.172 115.877 115.375C116.076 115.176 116.275 114.976 116.474 114.777C116.873 114.578 117.471 114.578 117.869 114.179C118.268 113.781 118.666 112.984 118.866 112.386C119.065 111.788 119.463 111.191 120.061 110.593C120.26 110.393 120.26 110.393 120.46 110.393L120.659 110.593C120.858 110.991 121.058 111.39 121.456 111.589C121.855 111.788 122.253 111.589 122.452 111.191C122.652 110.991 122.652 110.792 122.851 110.593C123.05 110.194 123.648 110.393 123.847 110.792C124.046 111.191 124.246 111.589 124.445 111.988C124.644 112.386 125.242 112.585 125.441 112.386C124.046 110.194 122.851 107.803 122.054 105.213C122.452 105.412 122.851 105.412 123.05 105.611C123.249 105.412 123.449 104.814 123.249 104.416C123.249 104.017 122.851 103.619 122.652 103.22C122.054 102.423 121.456 102.024 120.659 102.024C119.862 102.024 119.065 102.821 119.065 103.818C119.065 104.017 119.065 104.416 118.866 104.615C118.866 104.814 118.666 104.814 118.467 105.013C117.272 105.611 116.076 105.412 115.08 104.416C114.681 104.017 114.083 103.419 113.486 103.22C113.286 103.419 112.688 103.818 112.29 104.216C112.888 104.017 113.685 104.216 114.083 105.013C114.283 105.412 114.482 105.611 114.681 106.01C115.478 107.006 116.873 106.408 118.069 106.807C118.069 107.604 117.869 108.202 117.67 108.799C116.873 108.999 116.076 108.401 115.478 108.999C115.279 109.198 115.08 109.596 114.88 109.995C114.083 111.39 112.489 111.191 111.294 111.788C110.696 111.988 110.098 112.585 109.5 113.183Z" fill="#D4C3A7"/>
<path d="M115.877 140.483C116.275 139.686 116.275 138.491 115.877 137.693C115.677 137.295 115.478 136.896 115.279 136.498C114.681 134.904 115.08 133.11 115.478 131.516C115.877 129.125 116.076 126.535 116.076 123.944C116.076 123.147 115.877 122.35 115.478 121.952C115.08 121.553 114.282 121.354 114.083 120.756C113.884 119.959 114.282 118.763 113.884 118.166C113.884 118.166 113.884 118.166 113.685 118.166C113.286 118.166 113.087 117.966 112.688 118.166C112.091 118.365 111.692 119.162 111.891 119.959C111.891 120.756 112.489 121.354 113.087 121.354C112.489 121.553 112.688 122.948 112.091 123.347C111.692 123.745 111.094 123.147 110.696 122.749C110.098 122.35 109.5 121.952 108.902 121.952C108.902 122.35 109.102 122.749 109.301 122.948C110.098 123.745 111.294 124.144 112.489 124.144C112.489 125.14 112.29 126.136 112.29 127.133C112.29 127.332 112.29 127.73 112.091 127.93C112.091 128.129 111.891 128.129 111.692 128.328C110.696 128.926 109.699 129.324 109.301 130.52C108.504 132.712 109.899 135.502 109.301 137.693C109.102 138.491 108.703 139.288 108.703 140.085C111.094 140.284 113.485 140.483 115.877 140.483Z" fill="#D4C3A7"/>
<path d="M143.569 143.071H96.3438V144.865H143.569V143.071Z" fill="#DBCAAD"/>
<path d="M229.46 143.071H182.234V144.865H229.46V143.071Z" fill="#DBCAAD"/>
<path d="M142.576 141.277H97.3438V143.071H142.576V141.277Z" fill="#BDAE95"/>
<path d="M228.467 141.277H183.234V143.071H228.467V141.277Z" fill="#BDAE95"/>
<path d="M129.825 143.071H106.711V144.865H129.825V143.071Z" fill="#A89B85"/>
<path d="M219.099 143.071H195.984V144.865H219.099V143.071Z" fill="#A89B85"/>
<path d="M128.629 141.277H108.305V143.071H128.629V141.277Z" fill="#DBCAAD"/>
<path d="M217.708 141.277H197.383V143.071H217.708V141.277Z" fill="#DBCAAD"/>
<path d="M216.708 132.112C216.907 131.913 217.106 131.913 217.106 131.713C217.505 131.315 217.505 130.518 217.305 129.92C217.106 128.525 216.508 127.33 215.711 126.333C215.512 125.935 215.313 125.735 215.114 125.337C215.114 124.938 215.114 124.54 215.114 123.942C215.114 123.544 215.313 122.946 215.114 122.547C214.914 122.149 214.516 121.949 214.316 122.149C213.918 122.547 214.117 123.344 213.918 123.942C213.719 124.54 212.922 124.54 212.324 124.739C211.925 124.938 211.726 125.337 211.527 125.735C211.726 125.138 211.925 124.739 212.324 124.341C212.523 124.141 212.722 124.141 212.722 123.942C212.722 123.743 212.722 123.544 212.722 123.344C212.722 122.547 212.324 121.949 211.925 121.352C211.726 120.953 211.328 120.754 210.929 121.152C210.929 121.152 210.929 121.352 210.73 121.551C210.53 122.547 210.53 123.743 210.73 124.739C210.132 124.938 209.733 125.536 209.534 126.333C209.335 127.13 209.335 127.927 209.534 128.724C209.534 129.322 209.733 130.119 209.534 130.717C209.335 131.116 209.136 131.514 208.936 132.112C208.936 131.913 208.936 131.713 208.737 131.713C208.737 131.315 208.737 131.116 208.737 130.717C208.936 129.322 208.737 127.927 209.136 126.532C209.335 125.735 209.733 124.938 209.335 124.341C208.936 123.743 208.139 123.942 207.542 123.743C207.542 123.743 207.342 123.743 207.342 123.544C207.342 123.344 207.342 123.145 207.342 123.145C207.342 122.747 207.342 122.348 207.143 121.949C207.542 121.949 207.94 121.949 208.139 122.149C208.339 122.348 208.737 122.547 208.936 122.547C209.335 122.547 209.534 122.348 209.534 121.949C209.534 121.551 208.936 121.352 208.737 120.953C208.339 120.355 208.538 119.359 208.936 118.761C208.936 119.359 209.335 119.758 209.733 120.156C211.726 121.352 213.719 122.149 215.911 122.747C214.715 120.555 212.523 119.558 210.53 118.562C210.331 118.562 210.132 118.363 209.933 118.163C209.733 117.765 209.733 117.366 209.534 116.968C209.534 115.772 209.335 114.577 208.936 113.78C208.737 113.381 208.339 112.983 208.339 112.385C208.339 111.986 208.339 111.588 208.538 111.189C209.136 108.798 209.933 106.407 209.933 104.016C209.933 103.817 209.933 103.617 209.733 103.418C209.733 103.418 209.733 103.418 209.534 103.219C209.335 103.418 209.136 103.617 208.737 103.817C208.737 106.008 208.139 108.4 207.143 110.193C207.143 110.392 206.944 110.591 206.744 110.392C206.545 109.794 206.744 109.197 206.545 108.599C206.545 108.4 206.346 108.2 206.147 108.2C205.549 107.802 204.752 108.001 204.353 108.599C203.955 109.197 203.955 110.193 204.353 110.791C204.553 110.99 204.752 111.389 204.553 111.588L204.353 111.787C202.56 112.186 200.567 110.791 198.973 111.787C198.774 111.986 198.575 112.186 198.575 112.584C198.575 112.983 198.774 113.182 199.172 113.182C199.77 113.381 200.567 113.182 201.165 113.182C202.361 113.182 203.357 113.58 204.353 113.979C204.951 114.178 205.35 114.377 205.748 114.975C205.947 115.374 206.147 115.972 206.346 116.569C206.346 116.569 206.346 116.769 206.346 116.968C206.346 116.968 206.346 117.167 206.147 117.167C205.748 117.566 205.549 118.163 205.15 118.562C204.553 119.359 203.955 120.355 204.353 121.352C204.353 121.551 204.553 121.75 204.553 121.75C204.353 122.149 204.553 122.946 204.752 123.344C204.951 123.743 205.35 124.341 205.35 124.739C203.955 124.341 202.56 122.946 202.161 121.152C201.962 120.355 201.962 119.359 201.564 118.562C201.364 117.765 200.767 116.968 199.97 116.968C200.567 117.566 200.767 118.562 200.966 119.359C200.966 119.957 201.165 120.555 201.165 121.152C201.364 123.145 202.161 125.138 203.357 126.532C203.556 126.732 203.556 126.732 203.756 126.931C203.756 127.13 203.756 127.33 203.756 127.529C203.756 128.127 203.756 128.724 203.955 129.322C203.556 129.123 203.158 128.924 202.958 128.326C202.759 127.728 202.958 126.532 202.361 126.333C201.962 126.134 201.364 126.732 200.966 126.732C200.767 126.333 200.767 125.935 200.966 125.536C200.767 125.337 200.567 125.138 200.368 125.138C200.767 125.138 200.966 124.54 200.767 124.141C200.567 123.743 200.368 123.544 199.97 123.344C199.571 123.145 199.172 122.946 198.774 123.145C198.375 123.145 197.977 123.544 197.977 124.141C197.778 124.938 198.575 125.735 198.973 126.532C198.375 126.532 197.977 126.931 197.778 127.529C197.578 128.127 197.578 128.724 197.578 129.322C197.578 129.92 197.379 130.717 196.981 130.916C196.781 131.116 196.582 131.116 196.383 131.514V131.713C196.383 131.913 196.582 132.112 196.582 132.311C196.981 132.909 197.379 133.307 197.578 133.905C197.778 133.706 197.778 133.108 197.578 132.71C197.379 132.311 197.18 131.913 197.379 131.514C197.379 131.315 197.578 131.116 197.778 130.916C198.176 130.318 198.575 129.521 198.375 128.724C198.375 128.724 198.575 128.724 198.774 128.724C199.172 129.721 198.774 131.116 199.172 132.112C199.172 132.311 199.372 132.51 199.372 132.71C199.372 132.909 199.372 133.108 199.372 133.307C199.172 133.905 199.172 134.503 198.973 135.101C198.774 135.898 198.575 136.695 198.973 137.293C199.172 137.691 199.571 137.89 199.77 138.09C200.368 138.488 200.767 139.086 201.165 139.883C200.567 140.282 200.169 140.68 199.97 141.477C200.567 141.676 201.165 141.477 201.564 141.278C201.763 141.278 201.962 141.079 202.161 140.879C202.361 140.68 202.361 140.082 202.361 139.684C202.56 138.09 203.158 136.695 203.955 135.699C203.955 136.695 204.154 137.691 204.553 138.488C204.752 139.086 204.951 139.485 204.752 140.082C204.752 140.282 204.353 140.68 204.353 140.879C204.154 141.079 204.154 141.477 204.353 141.676C204.951 141.477 205.549 141.477 206.346 141.278C206.744 139.086 205.35 136.894 205.35 134.503C205.35 134.304 205.35 134.104 205.549 133.905C205.748 133.706 205.947 133.706 206.147 133.905C206.944 134.304 207.542 134.902 207.94 135.699C207.94 136.496 208.139 137.293 208.139 138.09C208.139 138.488 208.339 138.887 208.139 139.285C207.94 140.082 207.542 140.481 207.143 141.079C207.542 141.278 207.94 141.477 208.339 141.278C208.538 141.278 208.538 141.079 208.538 141.079C208.538 140.879 208.538 140.68 208.538 140.68C208.538 139.485 208.339 138.289 208.538 137.293C208.737 137.492 208.737 137.89 208.936 138.09C209.534 139.285 210.331 140.082 211.128 141.079C211.328 141.278 211.726 141.676 212.125 141.676H212.324C212.125 140.879 211.726 140.481 211.328 139.883C211.128 139.485 210.929 139.086 210.73 138.688C210.132 137.492 209.534 136.097 209.136 134.902C209.335 134.503 209.534 134.104 209.933 133.905C210.132 135.499 210.73 136.894 211.726 138.09C211.925 138.488 212.324 138.887 212.523 139.285C212.722 139.684 212.722 140.082 212.722 140.481C212.722 140.879 212.922 141.278 213.121 141.477C213.32 141.676 213.719 141.477 213.719 141.278C213.918 141.477 214.117 141.477 214.316 141.278C214.117 139.883 214.117 138.289 214.316 136.894C214.715 136.894 215.114 136.894 215.313 136.496C215.313 136.296 215.313 136.097 215.313 136.097C215.114 135.499 214.914 135.101 214.715 134.503C215.114 134.902 215.711 135.101 216.309 135.101C217.704 133.706 216.508 132.909 216.708 132.112ZM205.35 132.311C205.15 132.311 205.15 132.311 205.35 132.311C204.553 132.909 203.955 133.507 203.357 134.503C202.759 135.3 202.56 136.496 202.759 137.492C201.962 136.695 202.161 135.101 202.361 133.706C202.56 132.909 202.759 131.913 203.556 131.913C203.955 131.913 204.154 132.112 204.553 132.112C204.752 132.112 205.15 131.713 205.35 131.514C205.35 131.514 205.35 131.315 205.549 131.315C205.35 131.514 205.35 131.713 205.35 132.311ZM213.32 136.695C213.719 137.293 213.918 137.89 214.117 138.488C213.918 137.89 213.519 137.293 213.32 136.695Z" fill="#D4C3A7"/>
<path opacity="0.1" d="M227.067 33.0801H98.7422V36.8661H227.067V33.0801Z" fill="#1D1D1B"/>
<path opacity="0.1" d="M229.057 53.2041H96.9453V56.9901H229.057V53.2041Z" fill="#1D1D1B"/>
<path opacity="0.1" d="M229.057 63.3672V63.965H227.263V70.1421H169.278C167.285 69.5443 165.292 69.3451 163.3 69.3451H162.702C160.709 69.3451 158.518 69.7436 156.724 70.1421H98.5394V63.965H96.9453V63.3672H229.057Z" fill="#1D1D1B"/>
<path d="M137.724 131.553C136.884 127.163 136.779 122.19 141.407 119.89C145.101 118.115 149.615 118.382 153.566 118.382C158.071 118.507 164.198 118.507 166.632 123.097C167.872 125.607 167.557 128.384 166.956 130.971C166.278 133.843 165.095 136.687 163.1 138.902C160.686 141.679 157.002 143.072 153.413 143.206C150.76 143.33 148.031 143.034 145.549 142.003C141.131 140.18 138.563 136.124 137.724 131.553ZM139.413 131.286C140.186 137.709 144.232 141.965 150.818 142.261C157.231 142.605 162.213 139.894 164.122 133.567C164.484 132.393 164.723 131.152 164.866 129.93C165.076 128.108 165.114 126.008 164.179 124.433C163.473 123.259 162.155 122.629 160.867 122.314C157.832 121.589 154.158 121.828 150.961 121.799C148.451 121.828 146.017 121.732 143.631 122.219C142.219 122.524 141.007 123.126 140.234 124.347C139.661 125.235 139.375 126.485 139.289 127.573C139.174 128.804 139.27 130.035 139.413 131.286Z" fill="#3A3E42"/>
<path d="M119.617 137.643L120.81 139.046C121.125 139.418 121.325 139.866 121.392 140.344C124.035 158.582 131.728 154.945 131.728 154.945L132.587 149.63L133.617 143.283H130.124C128.779 143.283 127.547 142.529 126.937 141.327L125.419 138.358L125.104 137.729C124.541 136.621 123.405 135.925 122.165 135.925H120.399C119.521 135.944 119.044 136.965 119.617 137.643Z" fill="#65B49C"/>
<path d="M125.43 138.367C125.955 140.142 125.42 142.5 126.06 144.79C127.052 148.34 131.814 147.529 131.814 147.529L132.597 147.711L133.628 143.282H130.135C128.789 143.282 127.558 142.528 126.947 141.326L125.43 138.367Z" fill="#7FCBB4"/>
<path d="M160.633 133.852C160.633 131.16 156.739 128.984 151.929 128.984C147.128 128.984 143.234 131.16 143.234 133.852H160.633Z" fill="#65B49C"/>
<path d="M156.657 133.853C156.657 131.858 153.775 130.245 150.215 130.245C146.656 130.245 143.773 131.858 143.773 133.853H156.657Z" fill="#7FCBB4"/>
<path d="M130.383 148.683C130.383 140.933 134.916 137.326 141.597 135.818C141.215 135.57 141.015 135.312 141.015 135.035C141.015 133.012 145.901 133.842 151.933 133.842C157.964 133.842 162.851 132.936 162.851 135.035C162.851 135.312 162.631 135.579 162.24 135.837C168.94 137.364 173.482 141.01 173.482 148.683C173.482 156.146 169.541 159.858 162.851 161.462C162.631 162.741 157.831 163.59 151.942 163.59C146.321 163.59 141.692 162.817 141.091 161.634C134.677 160.269 130.383 156.852 130.383 148.683Z" fill="#65B49C"/>
<path d="M150.227 127.067C150.227 128.012 150.99 129.796 151.935 129.796C152.88 129.796 153.643 128.012 153.643 127.067C153.643 126.122 152.88 125.358 151.935 125.358C150.99 125.358 150.227 126.122 150.227 127.067Z" fill="#65B49C"/>
<path d="M152.905 127.162C152.848 127.162 152.81 127.124 152.81 127.067C152.81 126.58 152.409 126.179 151.922 126.179C151.435 126.179 151.035 126.58 151.035 127.067C151.035 127.124 150.996 127.162 150.939 127.162C150.882 127.162 150.844 127.124 150.844 127.067C150.844 126.475 151.33 125.988 151.922 125.988C152.514 125.988 153.001 126.475 153.001 127.067C153.001 127.114 152.962 127.162 152.905 127.162Z" fill="white"/>
<path d="M151.924 136.554C147.945 136.554 143.259 136.039 143.211 136.039C143.163 136.029 143.125 135.982 143.125 135.934C143.135 135.886 143.173 135.848 143.23 135.848C143.278 135.858 147.945 136.364 151.915 136.364C155.885 136.364 160.351 135.848 160.399 135.848C160.456 135.839 160.495 135.877 160.504 135.934C160.514 135.982 160.476 136.029 160.418 136.039C160.38 136.039 155.914 136.554 151.924 136.554Z" fill="white"/>
<path d="M122.545 137.24C121.705 137.24 120.35 136.868 120.006 136.773C119.958 136.753 119.93 136.706 119.939 136.658C119.958 136.61 120.006 136.582 120.054 136.591C121.075 136.887 122.783 137.24 123.022 136.954C123.108 136.858 123.089 136.801 123.079 136.782C123.032 136.629 122.688 136.496 122.488 136.448C122.44 136.439 122.402 136.381 122.421 136.334C122.43 136.286 122.488 136.248 122.535 136.267C122.602 136.286 123.165 136.419 123.27 136.725C123.299 136.811 123.308 136.935 123.184 137.087C123.079 137.202 122.85 137.24 122.545 137.24Z" fill="white"/>
<path d="M169.049 146.862C169.526 151.835 173.248 155.538 177.352 155.146C180.273 154.869 182.611 152.589 183.537 149.515C183.918 148.265 184.062 146.881 183.928 145.44C183.451 140.468 179.729 136.765 175.625 137.156C174.117 137.299 172.762 137.977 171.674 139.027C169.813 140.831 168.753 143.722 169.049 146.862ZM173.85 140.411C176.608 140.143 179.099 142.587 179.414 145.86C179.729 149.134 177.744 152.006 174.985 152.274C172.227 152.541 171.636 149.916 171.321 146.643C171.015 143.369 171.092 140.678 173.85 140.411Z" fill="#65B49C"/>
<path d="M147.914 158.991C156.168 158.991 162.86 154.377 162.86 148.684C162.86 142.992 156.168 138.377 147.914 138.377C139.66 138.377 132.969 142.992 132.969 148.684C132.969 154.377 139.66 158.991 147.914 158.991Z" fill="#7FCBB4"/>
<path d="M171.68 139.025C178.723 136.028 183.982 144.598 183.543 149.504C183.924 148.253 184.067 146.87 183.934 145.429C183.457 140.456 179.735 136.753 175.631 137.145C174.113 137.297 172.758 137.975 171.68 139.025Z" fill="#7FCBB4"/>
<path d="M147.86 151.032C147.821 151.032 147.783 151.042 147.745 151.042C147.354 151.023 147.039 150.698 147.058 150.297C147.077 149.906 147.402 149.591 147.802 149.61L151.267 149.734C151.257 149.439 151.257 149.143 151.257 148.847C151.248 148.379 151.248 147.912 151.248 147.444C151.229 146.938 151.324 146.432 151.677 146.041C151.887 145.85 152.068 146.26 152.154 146.394C152.269 146.623 152.326 146.852 152.345 147.091C152.355 147.978 152.345 148.875 152.326 149.763L156.21 149.906C156.23 149.906 156.249 149.925 156.249 149.944C156.249 149.973 156.239 149.992 156.21 149.992L152.307 150.479C152.297 150.87 152.288 151.261 152.278 151.643C152.212 153.514 152.116 155.384 151.916 157.255C151.897 157.398 151.696 157.388 151.677 157.255C151.448 155.041 151.343 152.827 151.286 150.603L147.86 151.032ZM153.643 152.645C153.672 152.702 153.71 152.75 153.748 152.798L156.478 155.881C156.525 155.938 156.63 155.881 156.592 155.804L154.836 152.082C154.683 151.758 154.292 151.614 153.958 151.767C153.624 151.929 153.49 152.321 153.643 152.645ZM146.963 154.354C146.714 154.602 146.724 155.012 146.972 155.251C147.22 155.499 147.631 155.489 147.869 155.241C147.907 155.203 147.946 155.146 147.974 155.098L149.883 151.557C149.921 151.49 149.826 151.424 149.778 151.481L146.963 154.354ZM157.127 143.397C157.327 143.378 157.642 143.416 157.833 143.311C157.89 143.283 157.89 143.187 157.833 143.149C157.642 143.035 157.337 143.073 157.127 143.063C156.726 143.054 155.695 143.016 155.161 143.006C155.189 142.624 155.208 142.243 155.142 141.861C155.122 141.727 154.989 141.632 154.855 141.66C154.75 141.679 154.674 141.765 154.655 141.861C154.607 142.109 154.607 142.367 154.617 142.615C154.626 142.739 154.626 142.863 154.636 142.987C153.137 142.939 151.353 142.892 149.654 142.844C149.654 142.767 149.663 142.691 149.663 142.615C149.663 142.357 149.654 142.109 149.568 141.861C149.492 141.632 149.158 141.632 149.081 141.861C148.976 142.176 148.976 142.5 148.995 142.834C148.136 142.815 147.316 142.796 146.571 142.777C146.323 142.767 146.113 142.968 146.104 143.226C146.094 143.483 146.314 143.703 146.571 143.693C146.571 143.693 148.566 143.645 149.062 143.636C149.1 144.056 149.158 144.476 149.243 144.886C149.263 144.972 149.387 144.972 149.406 144.886C149.463 144.638 149.501 144.38 149.53 144.132C149.549 143.96 149.568 143.798 149.587 143.626C151.066 143.588 152.985 143.531 154.664 143.483C154.683 143.703 154.703 143.922 154.722 144.132C154.75 144.38 154.779 144.638 154.817 144.886C154.827 144.934 154.865 144.963 154.903 144.953C154.941 144.943 154.97 144.924 154.97 144.886C155.037 144.409 155.084 143.941 155.122 143.464C155.581 143.455 156.02 143.436 156.411 143.426L157.127 143.397ZM146.8 149.429C148.69 148.475 150.36 146.776 151.629 145.058C151.687 145.163 151.744 145.258 151.811 145.363C152.765 146.843 154.101 148.026 155.504 149.076C155.743 149.257 155.972 149.419 156.23 149.582C156.926 149.992 157.527 148.99 156.831 148.57C155.876 148.036 154.96 147.406 154.12 146.699C153.29 146.003 152.507 145.22 151.973 144.275C151.858 144.065 151.563 144.046 151.41 144.228C151.238 144.438 151.057 144.657 150.866 144.867C149.759 146.108 148.518 147.263 147.068 148.064C146.829 148.198 146.59 148.312 146.342 148.417C145.655 148.742 146.104 149.734 146.8 149.429Z" fill="#65B49C"/>
<path d="M61.5761 120.774C63.0603 121.314 64.4096 122.528 66.0288 122.258C67.5131 121.988 68.3227 120.234 69.2672 119.02C70.8864 116.861 73.5851 115.511 76.2837 115.107C78.9824 114.702 81.816 115.242 84.3797 116.186C86.4037 116.861 88.5626 117.94 90.5866 117.401C91.6661 117.131 92.4757 116.591 93.5551 116.186C97.3332 114.567 102.056 115.646 104.755 118.615C105.294 119.155 105.699 119.829 106.374 120.369C109.207 122.528 113.93 119.964 116.629 122.258C118.113 123.473 118.383 125.766 117.843 127.52C117.303 129.41 116.089 130.894 114.874 132.378C111.906 136.156 108.803 139.799 105.834 143.577C104.889 144.657 104.08 145.871 102.865 146.546C101.381 147.625 99.4921 148.03 97.738 148.3C89.3722 150.054 80.8714 151.943 72.3707 150.999C69.2672 150.729 66.0288 149.784 64.2747 147.356C63.3302 146.006 63.0603 144.252 62.5206 142.768C61.711 140.069 60.2267 137.506 58.7425 135.077C57.1233 132.378 54.4246 129.275 54.5596 126.036C54.5596 121.314 57.7979 120.774 61.5761 120.774Z" fill="#E64455"/>
<path d="M96.38 117.67C98.1342 118.075 99.6184 119.155 100.833 120.369C101.642 121.179 102.317 122.123 103.397 122.393C104.476 122.798 105.825 122.528 107.04 122.528C108.254 122.528 109.603 122.798 110.143 123.877C110.548 124.822 110.008 126.036 109.199 126.576C108.389 127.116 107.31 127.251 106.23 127.251C105.151 127.251 104.071 127.116 103.262 127.79C102.722 128.33 102.452 129.005 102.047 129.679C101.507 130.759 100.698 131.838 99.6184 132.243C99.2136 132.378 98.8088 132.513 98.539 132.378C98.1342 132.243 97.8643 131.838 97.7294 131.299C97.3246 130.084 97.3246 128.735 97.4595 127.521C97.5944 126.306 97.5944 124.957 96.9198 123.742C96.38 122.663 94.8958 121.718 93.8163 122.258C93.5464 122.393 93.2766 122.528 93.0067 122.528C92.7368 122.528 92.6019 122.258 92.467 122.123C91.3875 120.774 90.8478 119.829 92.332 118.48C93.1416 117.805 95.0307 117.401 96.38 117.67Z" fill="#F34D60"/>
<path d="M59.2825 128.87C60.227 130.489 62.1161 131.569 63.7353 130.759C64.4099 130.489 64.9497 129.949 65.6243 130.084C66.8387 130.354 66.8387 132.378 67.9182 133.053C68.8627 133.728 70.2121 132.783 71.2915 133.188C73.1806 133.863 73.0456 137.506 74.9347 138.045C75.7443 138.18 76.419 137.776 76.9587 137.101C77.4984 136.561 77.9032 135.752 78.308 135.077C80.0621 132.378 83.5704 131.299 86.404 132.513C87.0786 132.783 87.7533 133.188 88.428 133.053C89.1026 132.918 89.6424 132.378 90.0472 131.973C90.5869 131.434 91.2616 130.894 92.0711 130.759C92.8807 130.624 93.6903 130.759 94.2301 131.299C95.0397 132.243 94.4999 133.728 94.7698 134.942C95.3095 137.101 97.8733 137.911 99.8972 137.236C101.921 136.561 103.271 134.807 104.89 133.323C105.834 132.378 106.914 131.569 108.128 131.839C108.668 131.973 109.073 132.243 109.612 132.378C110.422 132.513 111.232 131.839 111.771 131.164C112.311 130.489 112.716 129.545 113.391 129.005C113.525 128.87 113.795 128.735 114.065 128.735C114.875 128.735 114.875 129.949 114.74 130.759C113.121 136.021 107.993 138.99 105.16 143.578C104.215 145.062 103.54 146.681 102.326 148.03C101.247 149.245 99.8972 150.054 98.413 150.594C95.4445 151.674 92.0711 151.539 88.9677 150.999C85.8642 150.459 82.7608 149.515 79.5224 149.11C77.0936 148.84 74.6648 148.84 72.371 148.165C70.6169 147.626 68.8627 146.681 67.2435 145.737C66.1641 145.197 65.2195 144.522 64.4099 143.578C63.8702 142.903 63.4654 142.093 62.9257 141.284C61.3065 138.45 59.1476 136.021 57.5284 133.188C55.9092 130.354 54.8297 126.846 55.7743 123.608C55.9092 123.338 57.3934 123.608 57.5284 123.743C58.0681 124.147 57.9332 124.417 58.0681 125.092C58.203 126.306 58.4729 127.656 59.2825 128.87Z" fill="#CA505E"/>
<path d="M111.771 144.116C111.636 145.87 110.962 147.354 110.962 147.354L85.1895 146.005L73.1805 146.68L65.2195 147.085L62.3859 147.219L59.5523 147.354C59.5523 147.354 59.4174 147.219 59.4174 146.815C59.2825 146.275 59.0126 145.195 58.8777 144.116C58.7427 142.362 59.9571 139.528 59.9571 139.528H67.7832C67.7832 139.528 68.9976 143.037 75.4744 143.037C81.9511 143.037 82.221 135.885 82.221 135.885V134.806L85.4594 135.345L88.6978 134.806V135.885C88.6978 135.885 88.9676 143.037 95.4444 143.037C101.921 143.037 103.136 139.528 103.136 139.528H110.962C110.962 139.528 111.232 140.338 111.636 141.282C111.636 142.227 111.906 143.306 111.771 144.116Z" fill="#F2D065"/>
<path d="M110.145 148.299H60.625V157.474H110.145V148.299Z" fill="#EFC745"/>
<path d="M81.8126 106.065C81.8126 106.065 81.5428 106.065 81.138 106.065C80.7332 106.065 80.3284 106.065 79.6537 106.065C79.5188 106.065 79.3838 106.065 79.2489 106.065C78.4393 106.065 77.3599 106.335 76.2804 106.469C75.2009 106.739 73.8516 107.009 72.5023 107.279C71.1529 107.684 69.8036 108.089 68.3194 108.628C66.8351 109.168 65.4858 109.708 64.1364 110.383C62.7871 111.057 61.5727 111.867 60.4933 112.676C54.1514 117.534 55.6357 125.9 59.1439 131.297C59.2789 131.567 59.4138 131.702 59.5487 131.972C59.6837 132.107 59.8186 132.377 59.8186 132.377C59.9535 132.512 59.9535 132.646 59.9535 132.646C59.9535 132.646 59.9535 132.646 59.9535 132.781L58.4693 133.861L57.5247 134.805C57.5247 134.805 57.3898 134.805 57.2549 134.67C57.12 134.67 56.985 134.535 56.7152 134.401C56.1754 134.131 55.6357 133.861 54.8261 133.456C54.4213 133.186 54.0165 132.916 53.6117 132.646C53.3418 132.377 52.8021 132.107 52.3973 131.702C52.1274 131.567 51.9925 131.297 51.7226 131.162C51.4528 131.027 51.3178 130.757 51.048 130.488C50.7781 130.218 50.6432 130.083 50.3733 129.813C50.2384 129.543 49.9685 129.273 49.8336 129.003C49.6987 128.733 49.4288 128.464 49.2939 128.194C49.1589 127.924 48.8891 127.654 48.7541 127.384C48.4843 126.844 48.2144 126.17 47.9445 125.495C47.6747 124.82 47.5397 124.146 47.2699 123.471C47.2699 123.066 47.1349 122.796 47.1349 122.392C47.1349 122.257 47.1349 121.987 47 121.852V121.582V121.312C47 120.907 47 120.502 47 120.233C47 120.098 47 119.828 47 119.693V119.423V119.153C47 118.883 47 118.479 47.1349 118.209V117.669V117.399V117.264V117.129V116.994C47.2699 116.185 47.5397 115.375 47.9445 114.565C48.3493 113.621 49.024 112.811 49.8336 112.002C51.3178 110.517 53.072 109.303 54.961 108.493C56.8501 107.549 58.8741 106.874 60.7631 106.469C62.6522 105.93 64.5412 105.525 66.2954 105.255C68.0495 104.985 69.6687 104.715 71.2879 104.58C72.7721 104.446 74.2564 104.311 75.4708 104.176C76.6852 104.041 77.7647 104.041 78.7092 103.906C79.5188 103.771 80.3284 103.636 80.7332 103.636C81.003 103.636 81.138 103.501 81.2729 103.501C81.4078 103.501 81.4078 103.501 81.4078 103.501L81.8126 106.065Z" fill="#F2D065"/>
<path d="M89.6384 116.725C89.6384 117.939 89.5034 119.018 89.3685 120.233C89.3685 120.503 89.3685 120.638 89.2336 120.908C89.0986 121.582 88.9637 122.122 88.8288 122.797C88.8288 122.932 88.6938 123.066 88.6938 123.201C88.6938 123.336 88.5589 123.471 88.5589 123.606C88.424 123.876 88.424 124.146 88.289 124.416C88.1541 124.686 88.1541 124.956 88.0192 125.225C87.8842 125.495 87.8842 125.63 87.7493 125.9C87.6144 126.17 87.6144 126.305 87.4794 126.44C87.3445 126.575 87.3445 126.845 87.2096 126.98C86.9397 127.519 86.6698 127.924 86.6698 127.924H81.8123C81.8123 127.924 81.5424 127.519 81.2725 126.98C81.1376 126.71 80.8677 126.305 80.7328 125.9C80.5979 125.63 80.5979 125.495 80.4629 125.225C80.4629 125.09 80.4629 125.09 80.328 124.956C80.328 124.821 80.1931 124.686 80.1931 124.416C80.0581 124.146 80.0581 123.876 79.9232 123.606C79.7883 123.336 79.7883 123.066 79.6533 122.797C79.5184 122.257 79.3835 121.582 79.2485 120.908C78.9787 119.558 78.8438 118.209 78.8438 116.86C78.8438 115.51 78.8437 114.026 79.1136 112.812C79.2485 111.867 79.5184 110.923 79.7883 110.113C79.9232 109.843 79.9232 109.438 80.0581 109.168C80.1931 108.629 80.4629 108.224 80.5979 107.684C80.8677 107.279 81.0027 106.875 81.1376 106.605C81.5424 106.065 81.8123 105.66 81.8123 105.66H86.6698C86.6698 105.66 86.9397 106.065 87.3445 106.605C87.4794 106.875 87.7493 107.279 87.8842 107.684C88.0192 108.089 88.289 108.629 88.424 109.168C88.8288 110.248 89.0986 111.462 89.3685 112.677C89.5034 113.891 89.6384 115.375 89.6384 116.725Z" fill="#F2D065"/>
<path d="M123.237 119.153V119.423C123.237 119.558 123.237 119.828 123.237 119.963C123.237 120.233 123.237 120.368 123.237 120.638C123.237 120.773 123.237 120.907 123.237 121.042V121.312V121.582C123.237 121.717 123.237 121.987 123.102 122.122C123.102 122.527 122.967 122.797 122.967 123.201C122.832 123.876 122.562 124.551 122.292 125.225C122.022 125.9 121.752 126.44 121.483 127.114C121.348 127.384 121.078 127.654 120.943 127.924C120.808 128.194 120.538 128.464 120.403 128.734C120.268 129.003 119.998 129.273 119.863 129.543C119.728 129.813 119.459 130.083 119.189 130.218C118.919 130.488 118.784 130.623 118.514 130.892C118.244 131.162 118.109 131.297 117.839 131.432C117.435 131.837 117.03 132.107 116.625 132.377C116.22 132.647 115.815 132.916 115.411 133.186C114.601 133.591 114.061 133.996 113.521 134.131C113.252 134.266 113.117 134.266 112.982 134.401C112.847 134.401 112.712 134.536 112.712 134.536L110.148 132.512C110.148 132.512 110.148 132.512 110.148 132.377C110.148 132.377 110.283 132.242 110.283 132.107C110.418 131.972 110.418 131.837 110.553 131.702C110.688 131.567 110.823 131.297 110.958 131.027C114.466 125.63 115.95 117.264 109.743 112.542C108.664 111.732 107.45 110.922 106.1 110.248C104.751 109.573 103.267 108.898 101.917 108.494C100.433 107.954 99.0837 107.549 97.7343 107.144C96.385 106.74 95.1706 106.47 93.9562 106.335C92.8768 106.065 91.7973 105.93 90.9877 105.93C90.5829 105.93 90.3131 105.93 89.9083 105.93C89.5035 105.93 89.2336 105.93 88.9637 105.93C88.5589 105.93 88.2891 105.93 88.2891 105.93L88.424 104.985L88.5589 104.311L88.6939 103.366C88.6939 103.366 88.6939 103.366 88.8288 103.366C88.9637 103.366 89.0987 103.366 89.3685 103.501C89.9083 103.636 90.5829 103.771 91.3925 103.771C92.2021 103.906 93.2816 104.041 94.6309 104.041C95.8453 104.176 97.1946 104.311 98.8138 104.446C100.298 104.581 102.052 104.85 103.806 105.12C105.56 105.39 107.45 105.795 109.339 106.335C111.228 106.874 113.252 107.549 115.141 108.359C117.03 109.303 118.919 110.518 120.268 111.867C121.752 113.351 122.697 115.105 122.967 116.859V116.994V117.129V117.264V117.534V118.074C122.967 118.344 122.967 118.749 123.102 119.018L123.237 119.153Z" fill="#F2D065"/>
<path d="M89.6413 116.724C89.6413 118.073 89.5063 119.558 89.2365 120.772C89.1015 121.447 88.9666 121.986 88.8317 122.661C88.8317 122.796 88.6967 122.931 88.6967 123.066C88.9666 120.637 88.9666 118.343 88.8317 115.914C88.6967 114.565 88.5618 113.081 88.0221 111.866C87.4823 110.517 86.6727 109.438 85.4584 108.763C84.109 108.088 82.22 108.088 80.8706 108.898C80.4658 109.168 80.061 109.438 79.6562 109.842C79.7912 109.573 79.7912 109.168 79.9261 108.898C80.061 108.358 80.3309 107.953 80.4658 107.414C80.7357 107.009 80.8706 106.604 81.0056 106.334C81.4104 105.794 81.6802 105.39 81.6802 105.39H86.5378C86.5378 105.39 86.8077 105.794 87.2125 106.334C87.3474 106.604 87.6173 107.009 87.7522 107.414C87.8871 107.818 88.157 108.358 88.2919 108.898C88.6967 109.977 88.9666 111.192 89.2365 112.406C89.5063 113.89 89.6413 115.375 89.6413 116.724Z" fill="#E9C245"/>
<path d="M80.4633 106.064C80.3284 106.064 80.1934 106.064 79.9236 106.064C79.114 106.064 78.0345 106.334 76.8201 106.469C75.6057 106.739 74.3913 107.008 73.042 107.278C71.6927 107.683 70.2084 108.088 68.7242 108.628C67.3748 109.167 65.8906 109.842 64.4063 110.517C63.057 111.191 61.7077 112.001 60.6282 112.81C55.5008 116.589 55.5008 122.661 57.6597 127.788C58.1994 129.002 58.7391 130.217 59.5487 131.296C59.6837 131.566 59.8186 131.701 59.9535 131.971C60.0885 132.106 60.2234 132.376 60.2234 132.376C60.3583 132.511 60.3583 132.646 60.3583 132.646C60.3583 132.646 60.3583 132.646 60.3583 132.781L58.8741 133.86C58.4693 134.13 57.9295 134.4 57.3898 134.67C57.2549 134.67 56.985 134.535 56.8501 134.4C56.4453 134.265 55.7706 133.995 55.096 133.455C54.6912 133.185 54.2864 132.915 53.8816 132.646C53.4768 132.376 53.072 131.971 52.5322 131.701C52.2624 131.566 52.1274 131.296 51.8576 131.161C51.7226 131.026 51.5877 130.891 51.3178 130.622L51.1829 130.487C50.913 130.217 50.7781 130.082 50.5082 129.812C50.3733 129.542 50.1035 129.272 49.9685 129.002C49.6987 128.733 49.5637 128.463 49.4288 128.193C49.2939 127.923 49.024 127.653 48.8891 127.383C48.4843 126.843 48.3493 126.169 47.9445 125.494C47.6747 124.819 47.5397 124.145 47.2699 123.47C47.2699 123.065 47.1349 122.795 47.1349 122.391C47.1349 122.256 47.1349 121.986 47 121.851V121.581V121.311C47 120.906 47 120.502 47 120.232C47 120.097 47 119.827 47 119.692V119.422V119.152C47 118.882 47 118.478 47.1349 118.208V117.668V117.398V117.263V117.128V116.993C47.2699 116.184 47.5397 115.374 47.9445 114.565C47.5397 115.374 47.2699 116.319 47.2699 117.263C47 120.232 47.6747 123.335 49.6987 125.494C50.3733 126.304 51.4528 126.843 52.3973 126.439C52.937 126.169 53.2069 125.629 53.4768 125.089C55.6357 120.637 54.6912 115.644 58.6042 112.001C63.4618 107.548 71.2879 105.929 77.6297 104.984C78.7092 104.984 80.1934 105.119 80.4633 106.064Z" fill="#E9C245"/>
<path d="M123.109 120.771C123.109 120.906 123.109 121.041 123.109 121.176V121.446V121.716C123.109 121.851 123.109 122.121 122.974 122.256C122.974 122.66 122.839 122.93 122.839 123.335C122.704 124.01 122.434 124.684 122.164 125.359C121.894 126.034 121.624 126.573 121.355 127.248C121.22 127.518 120.95 127.788 120.815 128.058C120.68 128.328 120.41 128.597 120.275 128.867C120.14 129.137 119.87 129.407 119.735 129.677C119.6 129.947 119.331 130.217 119.061 130.352C118.791 130.621 118.656 130.756 118.386 131.026C118.386 131.026 118.386 131.026 118.251 131.161C118.116 131.296 117.846 131.431 117.711 131.701C117.307 132.106 116.902 132.376 116.497 132.645C116.092 132.915 115.687 133.185 115.283 133.455C114.473 133.86 113.933 134.265 113.394 134.4C113.124 134.534 112.989 134.534 112.854 134.669C112.719 134.669 112.584 134.804 112.584 134.804L110.02 132.78C110.02 132.78 110.02 132.78 110.02 132.645C110.02 132.645 110.155 132.51 110.155 132.376C110.29 132.241 110.29 132.106 110.425 131.971C110.56 131.836 110.695 131.566 110.83 131.296C111.37 130.487 111.774 129.677 112.179 128.732C114.608 123.47 114.878 116.723 109.615 112.675C108.536 111.866 107.322 111.056 105.972 110.382C104.623 109.707 103.139 109.032 101.789 108.627C100.305 108.088 98.9558 107.683 97.6064 107.278C96.2571 106.873 95.0427 106.603 93.8283 106.468C92.7489 106.199 91.6694 106.064 90.8598 106.064C90.455 106.064 90.1852 106.064 89.7804 106.064C89.3756 105.659 88.8358 105.389 88.2961 105.119C88.1612 105.119 88.0262 104.984 87.8913 104.984C87.6214 104.849 87.3516 104.849 87.3516 104.445C87.3516 104.31 87.7564 104.31 88.431 104.31C89.9153 104.445 92.6139 105.119 92.8838 105.119C94.9078 105.659 96.7969 105.929 98.6859 106.334C103.139 107.278 107.187 108.492 110.695 112.271C112.719 114.43 114.068 116.993 115.283 119.557C115.957 120.906 116.902 123.47 118.521 124.145C120.41 124.819 122.029 122.795 122.704 121.311C122.974 121.041 123.109 120.906 123.109 120.771Z" fill="#E9C245"/>
<path d="M90.7213 82.1836L87.4829 88.2556H81.4109L77.6328 82.1836H90.7213Z" fill="#E6A73F"/>
<path d="M94.0982 96.4854L93.0187 95.9457L87.3516 93.5169V88.1196L92.3441 85.5559L94.0982 84.6113V96.4854Z" fill="#E6A73F"/>
<path d="M81.6763 88.1196V93.5169L75.1996 96.3505L74.9297 96.4854V84.6113L76.4139 85.4209L81.6763 88.1196Z" fill="#E6A73F"/>
<path d="M90.1781 98.2378C90.1781 101.071 87.6144 103.365 84.5109 103.365C81.4075 103.365 78.8438 101.071 78.8438 98.2378C78.8438 97.9679 78.8438 97.6981 78.8438 97.4282C79.2485 94.9994 81.5424 93.1104 84.376 93.1104C84.7808 93.1104 85.1856 93.1104 85.5904 93.2453C88.289 93.785 90.1781 95.809 90.1781 98.2378Z" fill="#E6A73F"/>
<path d="M80.4623 101.882L79.3828 106.604H89.6377L88.4233 101.882H80.4623Z" fill="#CE963B"/>
<path d="M90.1781 98.2386C90.1781 101.072 87.6144 103.366 84.5109 103.366C81.4075 103.366 78.8438 101.072 78.8438 98.2386C78.8438 97.9687 78.8438 97.6989 78.8438 97.429C79.2485 98.7783 80.1931 99.9927 81.5424 100.532C83.5664 101.342 86.1301 100.398 87.3445 98.5085C87.7493 97.8338 88.0192 96.8893 87.8842 96.0797C87.7493 95.405 87.2096 94.8653 86.8048 94.3256C86.4 93.9208 86.1301 93.516 85.7253 93.2461C88.289 93.7858 90.1781 95.8098 90.1781 98.2386Z" fill="#AA8343"/>
<path d="M118.247 130.893C118.112 131.028 117.842 131.163 117.707 131.432C117.302 131.837 116.897 132.107 116.492 132.377C116.088 132.647 115.683 132.917 115.278 133.187C114.468 133.591 113.929 133.996 113.389 134.131C113.119 134.266 112.984 134.266 112.849 134.401C112.714 134.401 112.579 134.536 112.579 134.536L110.016 132.512C110.016 132.512 110.016 132.512 110.016 132.377C110.016 132.377 110.151 132.242 110.151 132.107C110.285 131.972 110.285 131.837 110.42 131.702C110.555 131.567 110.69 131.297 110.825 131.028C111.365 130.218 111.77 129.408 112.175 128.464C112.714 129.543 113.119 130.353 114.603 130.758C115.953 131.163 117.167 131.028 118.247 130.893Z" fill="#CFAE41"/>
<path d="M60.3608 132.782L58.8765 133.861C58.4717 134.131 57.932 134.401 57.3923 134.671C57.2573 134.671 56.9875 134.536 56.8526 134.401C56.4478 134.266 55.7731 133.996 55.0984 133.456C54.6936 133.186 54.2888 132.917 53.884 132.647C53.4792 132.377 53.0744 131.972 52.5347 131.702C52.2648 131.567 52.1299 131.297 51.86 131.162C51.7251 131.027 51.5902 130.893 51.3203 130.623C53.0744 131.027 54.6936 131.027 56.043 129.408C56.4478 129.003 56.7176 128.464 57.1224 128.059C57.2574 127.924 57.3923 127.789 57.5272 127.789C58.0669 129.003 58.6067 130.218 59.4163 131.297C59.5512 131.567 59.6861 131.702 59.8211 131.972C59.956 132.107 60.0909 132.377 60.0909 132.377C60.2259 132.512 60.3608 132.647 60.3608 132.782Z" fill="#CFAE41"/>
<path d="M70.4781 141.146H69.9384L64.4061 140.337L62.9219 135.614L67.2397 130.892V131.027L70.4781 141.146Z" fill="#E6A73F"/>
<path d="M89.2272 120.232C89.2272 120.502 89.2272 120.637 89.0923 120.907C88.9573 121.582 88.8224 122.121 88.6875 122.796C88.6875 122.931 88.5525 123.066 88.5525 123.201C88.5525 123.336 88.4176 123.471 88.4176 123.606C88.2827 123.876 88.2827 124.145 88.1477 124.415C88.0128 124.685 88.0128 124.955 87.8779 125.225C87.7429 125.495 87.7429 125.63 87.608 125.9C87.4731 126.169 87.4731 126.304 87.3381 126.439C86.5286 126.709 85.719 126.709 84.9094 126.574C83.2902 126.439 81.671 125.765 80.3217 124.955C80.3217 124.82 80.1867 124.685 80.1867 124.415C80.0518 124.145 80.0518 123.876 79.9169 123.606C79.7819 123.336 79.7819 123.066 79.647 122.796C79.5121 122.256 79.3771 121.582 79.2422 120.907C79.647 121.312 80.0518 121.717 80.5915 121.987C81.536 122.526 82.6155 122.661 83.56 122.661C85.584 122.526 87.7429 121.852 89.2272 120.232Z" fill="#CFAE41"/>
<path d="M90.9947 123.336L87.8913 130.083H81.8193L77.9062 123.336H90.9947Z" fill="#E6A73F"/>
<path d="M94.3638 138.718L90.8556 136.964L87.6172 135.48V129.543L93.2844 126.17L94.3638 125.63V138.718Z" fill="#E6A73F"/>
<path d="M81.9419 129.947V136.019L76.6796 138.448L75.1953 139.123V126.034L78.2988 127.788L81.9419 129.947Z" fill="#E6A73F"/>
<path d="M80.4697 116.455C80.6046 117.67 80.8745 119.154 81.819 119.829C82.4936 120.368 83.5731 120.503 84.5176 120.503C84.7875 120.503 85.1923 120.503 85.4622 120.368C85.732 120.234 86.0019 119.964 86.1368 119.694C87.3512 117.805 87.6211 115.376 87.2163 113.082C87.0814 112.407 86.9464 111.733 86.5416 111.193C85.5971 109.844 82.8984 108.764 81.5491 109.979C80.0649 111.463 80.3347 114.701 80.4697 116.455Z" fill="#FBE087"/>
<path d="M52.1305 111.598C50.3763 113.217 49.2969 115.511 49.2969 117.804C49.2969 119.424 50.1065 121.043 51.4558 121.718C51.7257 121.852 51.9955 121.852 52.2654 121.852C52.5353 121.718 52.6702 121.583 52.6702 121.313C54.8291 117.939 54.8291 113.352 57.7976 110.653C59.2819 109.304 58.8771 108.224 56.988 108.764C55.3688 109.169 53.4798 110.383 52.1305 111.598Z" fill="#FBE087"/>
<path d="M118.248 111.598C120.002 113.217 121.081 115.511 121.081 117.804C121.081 119.424 120.272 121.043 118.922 121.718C118.653 121.852 118.383 121.852 118.113 121.852C117.843 121.718 117.708 121.583 117.708 121.313C115.549 117.939 115.549 113.352 112.581 110.653C111.096 109.304 111.501 108.224 113.39 108.764C115.009 109.169 116.898 110.383 118.248 111.598Z" fill="#FBE087"/>
<path d="M90.9947 123.336L87.7563 130.083H81.6844L77.9062 123.336H79.1206C79.2556 123.741 79.3905 124.011 79.5254 124.146C80.6049 125.765 82.7638 126.439 84.7878 126.035C86.5419 125.63 88.1611 124.55 89.3755 123.336H90.9947Z" fill="#DDA243"/>
<path d="M93.2865 126.17C92.6118 126.98 91.5324 127.519 90.8577 128.464C90.0481 129.678 89.5084 131.162 89.3734 132.647C89.3734 134.266 89.7782 135.75 90.5878 137.099L87.4844 135.615V129.543L93.2865 126.17Z" fill="#DDA243"/>
<path d="M81.9499 129.948V136.02L76.6875 138.449C76.6875 137.504 77.632 136.83 78.1718 136.155C79.5211 134.806 80.1957 132.782 79.791 130.758C79.656 129.678 78.9814 128.599 78.3067 127.654L81.9499 129.948Z" fill="#DDA243"/>
<path d="M88.9589 132.647C88.9589 134.806 87.2048 136.56 85.0459 136.56C82.8869 136.56 81.1328 134.806 81.1328 132.647C81.1328 130.488 82.8869 128.734 85.0459 128.734C87.2048 128.599 88.9589 130.353 88.9589 132.647Z" fill="#D34C5B"/>
<path d="M87.4826 132.647C87.4826 133.996 86.4031 135.075 85.0538 135.075C83.7045 135.075 82.625 133.996 82.625 132.647C82.625 131.297 83.7045 130.218 85.0538 130.218C86.4031 130.218 87.4826 131.297 87.4826 132.647Z" fill="#F2D065"/>
<path d="M82.2215 123.74C81.9517 123.74 81.5469 123.875 81.5469 124.145C81.5469 124.28 81.5469 124.55 81.6818 124.685C82.0866 125.225 82.7613 125.494 83.4359 125.629C84.1106 125.764 84.7853 125.629 85.4599 125.36C86.4045 125.09 86.8093 124.145 85.7298 123.74C84.9202 123.201 83.4359 123.47 82.2215 123.74Z" fill="#EAA73B"/>
<path d="M90.9844 131.837C90.9844 132.647 90.9844 133.456 91.2542 134.131C91.5241 134.671 91.9289 135.076 92.4686 134.941C93.0084 134.806 93.2782 134.266 93.4132 133.726C93.683 132.782 93.683 131.837 93.683 130.893C93.683 130.218 93.818 128.329 93.1433 128.059C91.794 127.115 90.9844 131.028 90.9844 131.837Z" fill="#EAA73B"/>
<path d="M75.8778 132.647C75.8778 133.456 76.1477 134.401 76.8224 134.941C76.9573 135.076 77.0922 135.076 77.2271 135.076C77.3621 135.076 77.6319 134.941 77.6319 134.806C78.5765 133.726 79.1162 130.353 77.7669 129.408C75.7429 127.789 75.7429 131.567 75.8778 132.647Z" fill="#EAA73B"/>
<path d="M82.4838 95.8101C82.3488 95.8101 82.079 95.9451 81.944 95.9451C81.8091 96.08 81.6742 96.2149 81.5392 96.3499C80.8646 97.1594 81.1344 98.5088 81.8091 99.1834C82.6187 99.8581 83.8331 99.993 84.7776 99.5882C85.7221 99.0485 86.2619 98.104 86.3968 97.0245C86.3968 96.7546 86.3968 96.3499 86.2619 96.08C85.5872 95.1355 83.2934 95.5403 82.4838 95.8101Z" fill="#EAA73B"/>
<path d="M93.0187 95.9445L87.3516 93.5157V88.1184L92.3441 85.5547C92.2091 85.6896 92.2091 85.6896 92.0742 85.8246C91.3995 86.6341 90.8598 87.5787 90.5899 88.6581C90.3201 89.3328 90.1851 90.1424 90.3201 90.8171C90.455 92.8411 91.9393 94.3253 93.0187 95.9445Z" fill="#DDA243"/>
<path d="M90.7213 82.1826L87.4829 88.2546H81.4109L77.6328 82.1826H78.0376C78.8472 83.397 79.5219 84.6114 81.0061 85.2861C82.3555 85.9607 83.9746 86.2306 85.4589 85.8258C86.9432 85.421 88.2925 84.6114 89.237 83.397C89.6418 82.9922 89.9117 82.5874 90.3165 82.1826H90.7213Z" fill="#DDA243"/>
<path d="M81.6778 88.1186V93.5159L75.3359 96.2145C75.3359 95.6748 75.8757 95.4049 76.2805 95.1351C77.6298 94.1905 78.7093 92.9762 79.1141 91.4919C79.6538 90.0076 79.3839 88.2535 78.4394 86.9042C77.8997 86.2295 77.225 85.8247 76.5503 85.4199L81.6778 88.1186Z" fill="#DDA243"/>
<path d="M88.9645 91.087C88.9645 93.3809 86.9405 95.135 84.3768 95.135C81.8131 95.135 79.7891 93.246 79.7891 91.087C79.7891 88.7932 81.8131 87.0391 84.3768 87.0391C86.9405 87.0391 88.9645 88.9281 88.9645 91.087Z" fill="#D34C5B"/>
<path d="M82.8869 88.3878C81.9424 88.7926 81.1328 89.7371 81.1328 90.6817C81.1328 91.3563 81.4027 92.1659 82.0773 92.5707C82.752 92.9755 83.4267 93.1105 84.2363 92.8406C84.3712 92.8406 84.3712 92.8406 84.3712 92.7057C84.3712 92.5707 84.5061 92.5707 84.5061 92.4358C84.5061 91.8961 84.5061 91.2214 84.5061 90.6817C84.5061 90.2769 84.5061 89.7371 84.9109 89.6022C85.3157 89.4673 85.7205 89.6022 86.1253 89.6022C87.3397 89.4673 86.6651 88.118 85.9904 87.8481C85.1808 87.7132 83.4267 88.118 82.8869 88.3878Z" fill="#F34D60"/>
<path d="M82.7609 82.9906C82.4911 82.9906 82.2212 83.1256 81.9513 83.2605C81.6815 83.3954 81.5465 83.6653 81.4116 83.9352C81.2767 84.4749 81.8164 84.8797 82.3561 85.1496C83.8404 85.6893 85.4596 85.4194 86.9438 84.7448C88.0233 84.34 88.1582 82.9906 86.8089 82.8557C85.4596 82.5858 83.9753 82.8557 82.7609 82.9906Z" fill="#EAA73B"/>
<path d="M91.3893 91.7612C91.5243 92.0311 91.6592 92.166 91.7941 92.301C92.064 92.4359 92.3339 92.301 92.6037 92.166C92.8736 91.8962 92.8736 91.6263 93.0085 91.3564C93.2784 90.4119 93.2784 89.4674 93.2784 88.3879C93.2784 87.9831 93.1435 86.7687 92.6037 86.6338C92.064 86.6338 91.6592 87.5783 91.5243 87.9831C90.8496 89.1975 90.8496 90.5468 91.3893 91.7612Z" fill="#EAA73B"/>
<path d="M76.0082 92.1666C76.1431 92.3015 76.413 92.5714 76.6829 92.4365C76.8178 92.4365 76.8178 92.3015 76.9527 92.3015C77.6274 91.6269 78.0322 90.5474 78.0322 89.6029C78.0322 88.7933 77.8973 87.1741 76.8178 87.1741C74.7938 87.0392 75.3335 91.2221 76.0082 92.1666Z" fill="#EAA73B"/>
<path d="M66.4279 123.875C67.5073 124.28 68.8567 124.55 69.8012 124.01C70.3409 123.74 70.7457 123.2 71.1505 122.66C71.6903 121.851 72.3649 121.041 73.0396 120.367C73.5793 119.827 74.119 119.287 74.7937 118.882C75.4684 118.612 76.4129 118.612 76.9526 119.152C77.8972 120.097 77.4924 121.716 76.5478 122.66C75.6033 123.605 74.3889 124.415 73.8492 125.629C73.4444 126.574 73.4444 127.653 73.5793 128.732C73.7142 129.407 73.8492 130.082 73.7142 130.756C73.5793 131.566 72.9046 132.376 72.0951 132.645C71.2855 132.915 70.3409 132.645 69.6663 132.106C68.7217 131.296 68.7217 129.812 67.9121 128.867C67.2375 128.058 66.158 127.518 65.0786 127.383C63.9991 127.113 62.9196 127.113 61.8402 126.708C60.7607 126.439 59.8162 125.764 59.4114 124.819C57.6573 120.097 64.9436 123.335 66.4279 123.875Z" fill="#F34D60"/>
<path d="M64.2682 149.918C63.1887 150.997 62.3791 152.752 62.9189 154.236C63.3237 155.72 64.538 156.8 66.0223 157.339C66.1572 157.339 66.1572 157.339 66.2922 157.474H60.625V148.299H66.697C65.8874 148.973 64.673 149.648 64.2682 149.918Z" fill="#E9C245"/>
<path d="M110.148 148.3V157.475H80.8672C85.32 157.071 89.7727 156.801 94.2255 156.801C97.7338 156.801 101.377 157.071 104.48 155.586C106.639 154.507 108.393 152.213 107.584 149.919C107.449 149.514 107.179 149.11 107.179 148.57C107.179 148.435 107.179 148.3 107.314 148.165H110.148V148.3Z" fill="#E9C245"/>
<path d="M113.115 159.228V160.037C113.115 161.387 112.036 162.466 110.686 162.466H60.4913C59.142 162.466 58.0625 161.387 58.0625 160.037V159.228C58.0625 158.418 58.4673 157.743 59.007 157.339C59.4118 156.934 59.9516 156.799 60.6262 156.799H110.956C111.901 156.799 112.71 157.339 113.115 158.148C113.115 158.418 113.115 158.823 113.115 159.228Z" fill="#E6A73F"/>
<path d="M72.2327 150.322C71.4231 150.322 70.7484 150.322 70.0738 150.727C69.3991 150.997 68.8594 151.671 68.8594 152.481C68.8594 153.156 69.3991 153.695 69.9388 154.1C71.558 155.315 73.8519 155.449 75.8759 155.449C79.5191 155.449 83.2972 155.315 86.9404 154.91C89.0993 154.64 91.2582 154.37 93.2822 153.425C93.8219 153.156 94.3617 152.751 94.2267 152.211C94.0918 151.941 93.9569 151.671 93.687 151.536C92.3377 150.592 91.2582 150.727 89.7739 150.862C87.8849 150.862 85.8609 150.592 83.8369 150.457C79.9239 150.187 76.1457 150.187 72.2327 150.322Z" fill="#FBE087"/>
<path d="M111.766 144.117C111.631 145.871 110.956 147.355 110.956 147.355L85.1838 146.006L73.1748 146.681C70.4762 146.681 67.9124 146.951 65.2138 147.086C64.6741 147.086 64.1343 147.22 63.5946 147.22C63.1898 147.22 62.785 147.22 62.3802 147.22C61.3007 147.22 60.3562 147.22 59.2768 146.816C59.1418 146.276 58.872 145.196 58.737 144.117C58.6021 142.363 59.8165 139.529 59.8165 139.529H61.9754C61.4357 140.609 60.896 141.553 61.9754 142.768C62.9199 143.982 64.6741 144.387 66.1583 144.792C68.9919 145.331 71.9604 145.736 74.9289 146.006C76.818 146.141 78.7071 146.141 80.4612 145.466C81.5406 144.927 82.4852 144.252 83.6996 143.712C85.8585 142.903 88.1523 143.577 90.3113 144.252C94.4942 145.466 99.0819 146.681 103.265 145.196C106.098 144.252 108.527 141.958 111.361 141.283C111.631 142.228 111.9 143.307 111.766 144.117Z" fill="#E9C245"/>
<path d="M113.117 147.352C113.117 147.892 112.847 148.432 112.442 148.837C112.038 149.241 111.498 149.511 110.958 149.511H60.0886C58.8742 149.511 57.9297 148.567 57.9297 147.352C57.9297 146.813 58.0646 146.408 58.4694 146.003L58.6044 145.868C59.0091 145.463 59.5489 145.193 60.0886 145.193H111.093C111.768 145.193 112.442 145.463 112.712 146.003C112.982 146.408 113.117 146.813 113.117 147.352Z" fill="#E6A73F"/>
<path d="M113.117 147.352C113.117 147.892 112.847 148.432 112.442 148.837C112.038 149.241 111.498 149.511 110.958 149.511H60.0886C58.8742 149.511 57.9297 148.567 57.9297 147.352C57.9297 146.813 58.0646 146.408 58.4694 146.003C58.6044 146.543 59.0091 146.948 59.4139 147.352C60.4934 148.162 62.1126 148.567 63.327 148.702C66.2955 149.107 69.1291 148.702 72.0976 148.432C75.336 148.297 78.4395 148.297 81.6778 148.297C86.9402 148.432 92.3375 148.567 97.5999 147.892C102.592 147.352 107.72 147.083 112.712 145.868C112.982 146.408 113.117 146.813 113.117 147.352Z" fill="#DDA243"/>
<path d="M64.1321 147.218C63.9972 147.218 63.7273 147.353 63.5924 147.488C63.3225 147.758 63.4575 148.163 63.7273 148.433C63.9972 148.703 64.2671 148.703 64.6719 148.838C66.8308 149.108 68.8548 148.568 71.0137 148.298C73.5774 148.028 76.0062 148.298 78.5699 148.298C79.1097 148.298 81.5385 148.568 81.5385 147.488C81.5385 146.679 80.1891 146.544 79.6494 146.544C74.522 145.599 69.1247 146.274 64.1321 147.218Z" fill="#EAA73B"/>
<path d="M89.9083 146.004C89.5035 146.004 89.2336 146.004 88.9637 146.139C88.6939 146.273 88.424 146.543 88.2891 146.813C88.2891 147.083 88.424 147.488 88.6939 147.623C88.9637 147.758 89.2336 147.893 89.6384 147.893C90.5829 148.028 91.6624 148.028 92.6069 147.893C93.9562 147.758 95.3056 147.758 96.52 147.488C98.5439 147.218 97.7344 145.599 96.1152 145.464C94.0912 145.734 91.9322 146.004 89.9083 146.004Z" fill="#EAA73B"/>
<path d="M63.9992 129.541L63.0547 135.613L58.332 137.097L56.0382 134.938L53.6094 132.779L63.7293 129.676L63.9992 129.541Z" fill="#E6A73F"/>
<path d="M64.0058 129.541L63.1962 135.613L58.4735 137.097L56.1797 134.938C56.9893 135.208 57.7989 135.343 58.6085 135.478C59.4181 135.478 60.2277 135.343 60.9023 135.073C61.577 134.668 62.1167 133.994 62.5215 133.319C63.0613 132.51 63.3311 131.565 63.601 130.62C63.601 130.351 63.7359 129.946 63.8708 129.676L64.0058 129.541Z" fill="#DDA243"/>
<path d="M69.9384 141.146L64.4061 140.336L62.9219 135.613L67.2397 130.891V131.026C66.9699 131.43 66.7 131.7 66.5651 131.97C66.0253 132.915 65.6205 133.859 65.4856 134.939C65.3507 136.828 66.1603 138.852 67.6445 139.931C68.1842 140.336 68.9938 140.606 69.6685 140.876C69.8034 141.011 69.8034 141.011 69.9384 141.146Z" fill="#DDA243"/>
<path d="M64.6709 137.638C65.2107 139.392 64.2661 141.146 62.512 141.686C60.7579 142.225 59.0038 141.281 58.464 139.527C57.9243 137.773 58.8688 136.018 60.623 135.479C62.3771 134.939 64.2661 135.883 64.6709 137.638Z" fill="#D34C5B"/>
<path d="M63.3243 138.716C63.3243 139.66 62.5147 140.335 61.7051 140.335C60.8955 140.335 60.0859 139.525 60.0859 138.716C60.0859 137.771 60.8955 137.097 61.7051 137.097C62.5147 137.097 63.3243 137.771 63.3243 138.716Z" fill="#F2D065"/>
<path d="M60.088 133.32C60.6278 132.915 61.1675 132.51 61.1675 131.835C61.1675 131.701 61.1675 131.701 61.0326 131.566C61.0326 131.431 60.8976 131.431 60.7627 131.431C59.5483 131.161 56.7147 131.161 56.5798 132.78C56.3099 135.074 59.2784 133.994 60.088 133.32Z" fill="#EAA73B"/>
<path d="M66.6998 137.098C66.9697 137.638 67.5094 138.177 68.1841 138.447C68.319 138.447 68.319 138.447 68.454 138.447C68.5889 138.447 68.5889 138.312 68.5889 138.177C68.5889 137.368 68.0492 134.534 67.2396 134.264C65.6204 133.725 66.43 136.558 66.6998 137.098Z" fill="#EAA73B"/>
<path d="M117.021 132.917L115.536 134.131L112.163 137.1L107.44 135.48L106.901 130.218L106.766 129.273L117.021 132.917Z" fill="#E6A73F"/>
<path d="M115.542 134.13L112.169 136.964L107.446 135.344L106.906 130.082C107.041 130.352 107.041 130.622 107.176 130.757C108.121 133.185 109.335 134.805 112.169 134.67C113.383 134.67 114.462 134.4 115.542 134.13Z" fill="#DDA243"/>
<path d="M107.72 135.615L106.236 140.338L100.569 141.147H100.164L103.402 130.893L105.696 133.456L107.72 135.615Z" fill="#E6A73F"/>
<path d="M107.714 135.616L106.23 140.339L100.562 141.148C100.562 141.013 100.562 141.013 100.697 140.878C100.832 140.743 100.967 140.608 101.237 140.474C102.182 139.934 103.396 139.664 104.206 138.989C105.69 137.91 106.5 135.886 105.96 133.997C105.96 133.862 105.825 133.592 105.825 133.457L107.714 135.616Z" fill="#DDA243"/>
<path d="M109.067 141.821C110.855 141.821 112.305 140.371 112.305 138.582C112.305 136.794 110.855 135.344 109.067 135.344C107.278 135.344 105.828 136.794 105.828 138.582C105.828 140.371 107.278 141.821 109.067 141.821Z" fill="#D34C5B"/>
<path d="M110.692 138.718C110.692 139.662 109.882 140.337 109.072 140.337C108.128 140.337 107.453 139.528 107.453 138.718C107.453 137.773 108.263 137.099 109.072 137.099C109.882 136.964 110.692 137.773 110.692 138.718Z" fill="#F2D065"/>
<path d="M102.186 135.885C102.051 136.559 101.916 137.234 101.781 137.909C101.781 138.178 101.781 138.448 101.916 138.718C102.051 138.988 102.456 139.123 102.861 138.988C103.131 138.853 103.4 138.583 103.67 138.313C104.48 137.369 105.694 134.805 104.75 133.591C103.67 131.837 102.456 135.21 102.186 135.885Z" fill="#EAA73B"/>
<path d="M108.932 130.758C108.797 130.758 108.797 130.758 108.662 130.758C108.527 130.758 108.527 130.893 108.527 131.028C108.258 131.972 108.662 133.052 109.607 133.591C110.282 133.996 110.956 133.996 111.766 133.996C112.71 133.996 115.949 133.591 113.925 132.242C112.44 131.432 110.416 131.028 108.932 130.758Z" fill="#EAA73B"/>
</g>
<defs>
<clipPath id="clip0_1573_18042">
<path d="M0 0H248V147C248 152.523 243.523 157 238 157H10C4.47716 157 0 152.523 0 147V0Z" fill="white"/>
</clipPath>
</defs>
</svg>
