<svg width="359" height="198" viewBox="0 0 359 198" fill="none" xmlns="http://www.w3.org/2000/svg">
<g clip-path="url(#clip0_1580_1114)">
<path opacity="0.5" d="M268.621 76.9785C226.198 76.9785 191.82 111.357 191.82 153.78C191.82 196.203 226.198 230.581 268.621 230.581C311.044 230.581 345.423 196.203 345.423 153.78C345.423 111.357 311.044 76.9785 268.621 76.9785Z" fill="#92D5C1"/>
<path opacity="0.5" d="M319.827 53.6257C319.827 60.1315 314.53 65.4213 308.015 65.4213C301.5 65.4213 296.203 60.1315 296.203 53.6257C296.203 47.1199 301.5 41.8301 308.015 41.8301C314.53 41.8301 319.827 47.1199 319.827 53.6257Z" fill="#92D5C1"/>
<path d="M339.555 37.3312C339.555 42.3778 335.476 46.4515 330.422 46.4515C325.368 46.4515 321.289 42.3778 321.289 37.3312C321.289 32.2847 325.368 28.2109 330.422 28.2109C335.476 28.2109 339.555 32.2847 339.555 37.3312Z" fill="#92D5C1"/>
<path d="M329.573 70.044C328.781 69.2536 327.563 69.2536 326.772 70.044C325.98 70.8344 325.98 72.0505 326.772 72.8409C330.121 76.2458 330.121 81.718 326.711 85.0621C325.919 85.8525 325.919 87.0686 326.711 87.859C327.502 88.6494 328.72 88.6494 329.512 87.859C334.444 82.934 334.504 74.969 329.573 70.044Z" fill="#F37E60"/>
<path d="M335.043 93.3918C343.019 85.4875 343.08 72.5367 335.165 64.5108C334.373 63.7204 333.155 63.7204 332.364 64.5108C331.572 65.3012 331.572 66.5173 332.364 67.3077C338.757 73.7527 338.757 84.2106 332.242 90.6557C331.451 91.4461 331.451 92.6621 332.242 93.4526C333.034 94.1214 334.312 94.1214 335.043 93.3918Z" fill="#F37E60"/>
<path d="M325.309 76.2465C323.787 74.7264 321.351 74.7264 319.829 76.2465C318.307 77.7665 318.307 80.1986 319.829 81.7187C321.351 83.2387 323.787 83.2387 325.309 81.7187C326.831 80.2594 326.831 77.7665 325.309 76.2465Z" fill="#F37E60"/>
<path d="M324.267 174.644L324.213 169.61C324.213 169.128 323.837 168.753 323.301 168.753C321.424 168.753 319.922 170.306 319.922 172.181V174.591L314.345 174.644H313.433C312.414 174.644 311.609 175.501 311.609 176.465C311.609 177.161 312.038 177.751 312.575 178.072C311.985 178.393 311.609 178.982 311.609 179.679C311.609 180.375 312.038 180.964 312.575 181.285C311.985 181.607 311.609 182.196 311.609 182.892C311.609 183.642 312.092 184.338 312.789 184.606C312.092 184.874 311.609 185.516 311.663 186.32C311.663 187.337 312.521 188.141 313.486 188.141H314.398L322.658 188.087H323.408C325.286 188.087 326.841 186.534 326.841 184.659L326.787 178.072C326.895 176.358 325.768 175.019 324.267 174.644Z" fill="#F37E60"/>
<path d="M332.096 175.877H329.522C328.824 175.877 328.234 176.466 328.234 177.162L328.288 185.303C328.288 185.999 328.878 186.588 329.575 186.588H332.15C332.847 186.588 333.437 185.999 333.437 185.303L333.383 177.162C333.383 176.413 332.793 175.877 332.096 175.877Z" fill="#F37E60"/>
<path d="M300.832 39.5186H37.9219V211.771H300.832V39.5186Z" fill="#CAD9F8"/>
<path d="M298.645 44.0205H40.1797V47.1214H298.645V44.0205Z" fill="#E2E2E2"/>
<path d="M285.858 25.4141H231.547V31.0687H285.858V25.4141Z" fill="#6683C2"/>
<path d="M300.772 36.6001L295.84 27.4189H43.8284L38.5312 32.1615V44.0179H300.772V36.6001Z" fill="#6683C2"/>
<path d="M289.445 32.9531L294.438 37.9389" stroke="white" stroke-width="2.21687" stroke-miterlimit="10" stroke-linecap="round"/>
<path d="M294.438 32.9531L289.445 37.9389" stroke="white" stroke-width="2.21687" stroke-miterlimit="10" stroke-linecap="round"/>
<mask id="mask0_1580_1114" style="mask-type:luminance" maskUnits="userSpaceOnUse" x="37" y="-9" width="266" height="221">
<path d="M302.414 -9H39.1989L37.8594 211.772H301.074L302.414 -9Z" fill="white"/>
</mask>
<g mask="url(#mask0_1580_1114)">
<path opacity="0.4" d="M76.7086 208.976C71.655 195.904 72.6901 160.031 105.995 116.01C99.3586 91.2637 109.04 51.864 126.392 44.0205L156.714 44.7501C156.714 44.7501 187.036 131.332 180.765 208.916H76.7086V208.976Z" fill="#9B9B9B"/>
</g>
<path d="M257.062 30.3999C256.574 27.4206 255.235 24.9885 256.148 18.5435C256.453 16.3546 256.087 16.233 256.331 14.409C256.453 13.4361 257.122 12.4633 257.122 11.6121C257.122 8.87598 256.818 9.17999 256.818 7.65993C257.244 4.19422 262.968 9.484 260.897 16.5978C261.08 20.4284 261.506 20.3676 261.872 20.0636C262.054 19.8811 263.82 18.4219 265.16 14.6522C265.829 12.7673 266.255 9.11918 267.047 7.05191C267.899 4.92384 268.387 2.85657 269.482 1.09332C270.761 -0.913152 271.918 -2.06839 273.075 -0.669944C273.44 -0.24433 273.257 1.33652 272.344 3.40379C271.674 4.92384 271.674 5.53186 270.944 7.47753C270.335 9.36239 269.178 14.9562 269.3 15.0778C269.422 15.1386 271.187 10.8216 273.562 6.38309C274.475 4.74144 275.145 3.7078 275.693 2.67417C276.545 0.971712 277.946 0.910909 278.311 1.27572C279.103 2.12695 279.042 3.22139 278.007 5.65347C277.459 6.99111 276.606 8.63277 275.815 10.2136C274.11 13.4969 272.831 16.4154 272.953 16.5978C272.953 16.5978 273.257 17.7531 273.623 17.2059C275.023 15.1386 278.189 8.45036 279.955 6.07908C281.234 4.37662 282.025 5.59267 281.964 7.05191C281.964 7.59913 281.843 8.63277 280.929 10.092C280.503 10.7 279.772 12.8281 278.981 14.2266C277.946 16.0506 276.606 18.5435 276.667 18.6651C276.667 18.6651 276.972 19.3339 277.337 18.7259C278.068 17.5099 278.981 15.3818 280.199 13.4969C280.686 12.1593 281.477 11.004 281.964 10.5176C282.573 9.90961 283.121 10.5176 283.243 10.8824C283.669 12.0377 283.487 12.5241 282.878 14.105C282.391 15.321 281.903 16.4762 281.599 16.9626C280.99 18.0571 280.016 19.8203 279.529 20.9148C278.737 22.5564 277.763 24.3197 277.093 26.1438C275.693 30.0959 271.066 35.7505 268.387 38.669C267.778 40.9795 262.359 58.7336 262.359 58.7336C262.359 58.7336 249.329 59.3417 250.425 55.7543C251.643 52.167 255.783 35.5073 257.062 30.3999Z" fill="#FFA383"/>
<path d="M182.961 111.145C187.588 113.091 215.536 100.931 226.556 99.4714C229.54 98.9849 239.951 61.2269 245.005 48.7017C249.815 36.7237 275.387 51.6202 273.926 58.6124C272.404 65.6046 250.18 120.144 245.918 125.981C241.656 131.818 195.93 150.302 192.033 163.739" fill="#F37E60"/>
<path d="M249.804 46.2692C251.874 42.9859 254.431 38.7298 254.979 36.1761C255.527 33.6832 270.505 38.8514 269.166 41.6483C267.157 45.7828 266.913 50.7078 266.974 52.5926C266.974 55.5111 248.464 48.3973 249.804 46.2692Z" fill="#E45F3C"/>
<path d="M264.789 52.1668C264.789 52.1668 265.033 45.2962 267.833 41.04L264.789 52.1668Z" fill="#9B9B9B"/>
<path d="M263.023 51.1942C263.023 51.1942 263.267 44.3235 266.068 40.0674L263.023 51.1942Z" fill="#9B9B9B"/>
<path d="M260.711 50.5262C260.711 50.5262 260.894 43.838 264.181 39.3994L260.711 50.5262Z" fill="#9B9B9B"/>
<path d="M258.758 49.7342C258.758 49.7342 259.001 43.046 262.35 38.6074L258.758 49.7342Z" fill="#9B9B9B"/>
<path d="M256.078 48.7007C256.078 48.7007 257.296 41.5261 260.523 37.8779L256.078 48.7007Z" fill="#9B9B9B"/>
<path d="M254.32 48.0327C254.32 48.0327 255.538 40.8581 258.765 37.21L254.32 48.0327Z" fill="#9B9B9B"/>
<path d="M251.883 46.7557C251.883 46.7557 253.709 40.0675 257.058 36.7842L251.883 46.7557Z" fill="#9B9B9B"/>
<path d="M182.84 116.922C179.248 108.409 187.407 63.2335 179.491 45.9049C174.62 35.2645 163.174 28.9411 153.127 33.0148C145.395 32.7716 140.463 38.487 136.627 45.3577C129.381 58.4301 136.444 72.8402 132.304 76.5491C125.545 82.6293 120.127 87.3111 120.309 94.3641C120.614 104.822 128.164 108.166 126.581 115.949C121.953 137.898 182.84 116.922 182.84 116.922Z" fill="#59514D"/>
<path d="M135.1 78.6149C133.152 87.4312 138.692 91.9913 139.484 96.8555C140.215 101.355 139.362 107.739 135.161 110.414L144.172 108.469L146.608 89.6808L140.154 78.0068L135.1 78.6149Z" fill="#423935"/>
<path d="M165.117 107.496C175.772 112.36 192.394 123.548 195.317 132.425C198.24 141.302 187.828 178.513 187.341 189.153C186.854 199.733 186.61 205.874 186.367 211.65C186.001 220.406 113.363 217.73 113.728 208.428C113.972 202.651 114.276 196.51 114.703 185.931C115.19 175.351 108.066 137.35 111.78 128.716C115.494 120.143 133.03 110.415 144.05 106.523L165.117 107.496Z" fill="#F37E60"/>
<path d="M184.716 72.4131C183.986 76.6085 180.454 81.8983 177.349 80.135C174.852 78.6758 172.843 76.4261 173.574 72.1699C174.304 67.9746 176.618 65.9681 180.028 65.4209C183.681 64.9345 185.447 68.2178 184.716 72.4131Z" fill="#E5886E"/>
<path d="M183.925 67.0034C183.316 66.1522 179.663 65.5442 178.445 68.6451L178.993 65.6658C178.993 65.6658 180.211 65.1794 181.551 65.4226C183.377 65.8482 183.925 67.0034 183.925 67.0034Z" fill="#FFA383"/>
<path d="M129.925 69.9821C130.291 74.2382 133.335 79.832 136.562 78.3119C139.18 77.0959 141.372 74.9678 141.007 70.7117C140.641 66.4555 138.51 64.2667 135.162 63.4154C131.569 62.625 129.56 65.7259 129.925 69.9821Z" fill="#E5886E"/>
<path d="M131.141 64.6931C131.871 63.9026 135.524 63.5986 136.438 66.8211L136.194 63.781C136.194 63.781 135.037 63.173 133.637 63.3554C131.81 63.5986 131.141 64.6931 131.141 64.6931Z" fill="#FFA383"/>
<path d="M142.462 90.3506C143.618 95.0323 141.305 105.369 140.878 107.983C139.904 108.348 133.45 111.266 133.45 111.266C131.624 117.651 136.86 122.758 141.792 129.507C147.393 137.107 153.786 148.113 153.299 156.686L155.37 156.746C160.058 138.931 171.566 117.103 168.886 109.442C168.582 108.409 166.695 99.6533 168.643 92.1139L142.462 90.3506Z" fill="#FFA383"/>
<path d="M142.769 93.0877C142.769 93.0877 142.89 94.7293 142.586 97.5262C142.586 97.5262 149.771 106.829 155.19 107.072C160.608 107.315 167.915 99.3503 167.915 99.3503C167.915 99.3503 168.037 93.8173 168.402 91.5068L142.769 93.0877Z" fill="#E5886E"/>
<path d="M179.119 63.355C178.571 75.1506 168.586 84.2709 156.774 83.7845C144.961 83.2373 135.828 73.2657 136.315 61.4701C136.985 45.6008 146.91 38.4262 158.722 38.9734C170.534 39.4598 179.789 47.8505 179.119 63.355Z" fill="#FFA383"/>
<path d="M179.123 63.3546C178.635 74.7854 178.209 84.3313 173.582 90.3507C170.781 93.9988 163.657 100.079 158.664 101.538C157.447 101.903 153.915 101.538 152.698 101.052C147.887 99.1062 141.86 92.5396 139.485 88.8914C135.406 82.5072 135.832 72.9005 136.319 61.4697" fill="#FFA383"/>
<path d="M170.294 71.8667C170.233 73.8123 168.955 75.3324 167.554 75.2716C166.093 75.2108 164.997 73.5691 165.119 71.6235C165.18 69.6778 166.458 68.1578 167.919 68.2186C169.32 68.2794 170.416 69.921 170.294 71.8667Z" fill="#030304"/>
<path d="M150.074 70.8345C150.013 72.7801 148.734 74.3002 147.273 74.2394C145.812 74.1786 144.716 72.5369 144.837 70.5912C144.898 68.6456 146.177 67.1255 147.638 67.1863C149.039 67.2471 150.135 68.8888 150.074 70.8345Z" fill="#030304"/>
<path d="M161.713 61.5928C161.713 61.5928 161.957 61.4712 162.322 61.4104C162.748 61.2888 163.296 61.1672 163.966 61.0456C165.367 60.8632 167.193 60.8024 169.081 61.1064C169.568 61.1672 169.994 61.2888 170.42 61.4104C170.846 61.532 171.333 61.7144 171.699 61.836C172.125 62.0184 172.49 62.2008 172.856 62.3832C173.221 62.5656 173.586 62.8088 173.891 62.9912C174.195 63.1736 174.439 63.4168 174.682 63.66C174.926 63.8425 175.108 64.0857 175.23 64.2681C175.535 64.6329 175.656 64.8153 175.656 64.8153C175.778 64.9977 175.717 65.1801 175.535 65.3017C175.474 65.3625 175.413 65.3625 175.352 65.3625H175.291C175.291 65.3625 175.048 65.3625 174.682 65.2409C174.5 65.1801 174.256 65.1801 174.012 65.1193C173.769 65.0585 173.465 64.9977 173.16 64.9977C172.856 64.9369 172.49 64.8761 172.125 64.8153C171.76 64.7545 171.394 64.6937 171.029 64.6329C170.603 64.5721 170.237 64.5113 169.811 64.3897C169.385 64.3289 168.959 64.2073 168.594 64.1465C167.741 63.9641 166.889 63.7817 166.097 63.5992C165.306 63.4168 164.575 63.2344 163.905 63.052C162.627 62.6872 161.713 62.2616 161.713 62.2616C161.531 62.2008 161.47 61.9576 161.531 61.836C161.531 61.7144 161.652 61.6536 161.713 61.5928Z" fill="#59514D"/>
<path d="M153.423 62.6241C153.423 62.6241 153.179 62.6849 152.814 62.8065C152.631 62.8673 152.388 62.9281 152.144 62.9889C151.901 63.0497 151.596 63.1713 151.292 63.2321C150.683 63.4145 149.952 63.5361 149.161 63.7185C148.369 63.9009 147.578 64.0225 146.725 64.1441C146.299 64.2049 145.934 64.2657 145.508 64.3873C145.081 64.4481 144.716 64.5089 144.351 64.5697C143.985 64.6305 143.62 64.6913 143.255 64.7521C142.889 64.8129 142.585 64.8737 142.281 64.9345C141.976 64.9953 141.672 65.0562 141.428 65.0562C141.185 65.117 140.941 65.117 140.758 65.1778C140.393 65.2386 140.15 65.2994 140.15 65.2994H140.089C139.845 65.2994 139.662 65.117 139.602 64.8737C139.602 64.7521 139.602 64.6913 139.662 64.5697C139.662 64.5697 139.784 64.3873 140.089 64.0225C140.21 63.8401 140.393 63.6577 140.637 63.4753C140.88 63.2929 141.124 63.0497 141.428 62.8673C141.733 62.6849 142.037 62.5025 142.402 62.2593C142.768 62.0768 143.133 61.8944 143.559 61.7728C143.985 61.6512 144.412 61.4688 144.838 61.408C145.264 61.2864 145.751 61.2256 146.177 61.1648C148.004 60.8608 149.831 60.9216 151.17 61.1648C151.84 61.2864 152.388 61.408 152.814 61.5296C153.179 61.6512 153.423 61.7728 153.423 61.7728C153.666 61.8944 153.727 62.1377 153.666 62.3809C153.606 62.5025 153.545 62.5633 153.423 62.6241Z" fill="#59514D"/>
<path d="M153.119 82.9336C154.397 82.4472 158.842 82.6296 159.877 83.2376C160.912 83.8457 157.563 84.4537 156.468 84.3929C155.25 84.3321 152.084 83.3592 153.119 82.9336Z" fill="#E5886E"/>
<path opacity="0.5" d="M159.089 95.5793C157.14 95.1537 153.792 95.0929 152.209 95.2753C151.113 95.3969 153.67 94.4241 155.618 94.5457C157.506 94.6065 160.124 95.8225 159.089 95.5793Z" fill="#E5886E"/>
<path d="M149.834 87.4941C153.974 88.8925 159.028 88.8925 162.924 88.5885C163.412 88.5277 163.168 88.6493 162.742 89.1965C161.95 90.1085 159.454 92.8446 156.105 92.6622C152.878 92.4798 150.138 88.4669 149.468 87.3117C149.164 86.9468 149.468 87.3725 149.834 87.4941Z" fill="white"/>
<path d="M136.076 75.3944C134.432 74.1784 133.458 72.7191 134.615 70.895C134.919 70.4694 135.345 69.983 135.954 69.4966C138.938 67.0645 137.355 72.4759 137.355 72.4759L136.076 75.3944Z" fill="#FFA383"/>
<path d="M148.8 86.7035C151.418 87.1291 154.645 85.6699 156.167 87.3115C158.238 86.0347 161.708 88.3452 164.387 88.3452C164.448 88.3452 164.509 88.4668 164.326 88.4668C162.926 88.8924 155.011 90.4732 148.739 87.0075C148.435 86.8251 148.496 86.6427 148.8 86.7035Z" fill="#865B57"/>
<path d="M148.984 87.0078C148.984 87.0078 151.055 90.4127 152.577 91.8112C154.038 93.1488 158.057 93.5744 159.761 92.48C161.284 91.4464 163.841 88.4671 163.841 88.4671L163.232 88.6495C161.771 89.5007 160.918 90.4127 159.274 90.9599C157.63 91.5072 155.865 91.568 154.221 91.0208C152.09 90.3519 151.663 88.7711 150.202 87.555L149.471 87.1294L148.984 87.0078Z" fill="#865B57"/>
<path d="M150.438 87.7969C151.533 88.6481 153.665 89.4385 156.283 89.6209C159.51 89.8641 162.858 88.7697 162.858 88.7697C162.858 88.7697 159.388 89.2561 156.404 89.1345C153.299 89.0129 150.438 87.7969 150.438 87.7969Z" fill="#E2E2E2"/>
<path d="M136.076 75.3937C136.076 68.8878 138.45 59.5851 142.591 55.8762C146.061 52.7753 151.663 49.492 150.871 43.8374C150.871 43.8374 149.654 50.4648 156.108 54.721C160.735 57.7611 182.776 58.0651 176.2 75.8193L178.697 73.3872L179.062 64.3277L172.973 55.329L150.323 39.7637L138.207 55.6938L135.102 66.7598L136.076 75.3937Z" fill="#E5886E"/>
<path d="M178.27 76.1844C178.453 70.2867 179.001 65.6657 174.435 61.2271C167.981 54.9645 161.892 56.7886 156.656 52.8973C151.724 49.2491 150.019 43.777 150.81 38.548L158.604 37.8184L166.519 39.2776L175.47 46.3914L179.854 56.7886C179.854 56.7886 180.706 60.4367 180.158 66.4561C179.549 72.4755 178.27 76.1844 178.27 76.1844Z" fill="#59514D"/>
<path d="M152.273 38.6074C137.355 43.2284 136.259 50.6462 135.042 59.2193C133.824 67.8532 136.138 75.3927 136.138 75.3927C135.833 71.6229 136.746 57.6993 144.114 52.6527C151.481 47.6061 150.994 43.8972 150.994 43.8972L152.273 38.6074Z" fill="#59514D"/>
<path d="M150.87 43.8367C150.87 43.8367 149.774 36.662 153.123 32.9531C153.123 32.9531 150.261 33.1963 149.105 36.9053C148.069 40.371 150.87 43.8367 150.87 43.8367Z" fill="#423934"/>
<path d="M129.864 113.153C128.829 119.172 132.665 123.671 138.571 131.758C144.477 139.845 150.992 148.357 151.479 156.504C152.027 165.868 147.765 211.469 147.765 211.469L152.148 211.652L155.436 156.687C155.619 150.242 151.296 143.371 148.008 137.899C144.781 132.427 136.927 123.246 135.222 119.78C133.578 116.314 132.786 114.004 133.456 111.268C133.395 111.207 131.142 110.477 129.864 113.153Z" fill="#E45F3C"/>
<path d="M155.074 155.835C155.926 152.795 158.91 144.648 160.006 142.216C161.102 139.723 162.989 144.587 162.989 144.587C162.989 144.587 155.013 164.773 154.404 171.462C153.856 178.15 153.734 161.247 153.734 161.247L155.074 155.835Z" fill="#E45F3C"/>
<path d="M191.906 163.677C192.88 158.752 196.655 149.328 195.133 140.998C193.611 132.729 197.751 140.025 200.613 141.302C203.475 142.579 242.442 132.242 245.791 125.919C245.791 125.919 245 127.196 242.747 128.594C238.241 131.391 229.413 135.951 220.158 141.18C199.213 152.976 192.759 159.603 191.906 163.677Z" fill="#E45F3C"/>
<path d="M212.977 103.058C215.595 102.207 225.885 100.443 229.599 104.699C233.313 108.956 233.556 104.943 232.034 103.119C230.512 101.295 228.929 96.6128 229.173 95.0928C228.137 97.6465 227.529 98.6193 226.859 99.2881C225.641 99.8353 225.093 99.1057 212.977 103.058Z" fill="#E45F3C"/>
<path d="M246.221 46.5742C245.307 47.9119 251.457 52.9584 260.103 55.6945C268.749 58.4306 273.437 58.7954 273.924 57.8226C273.924 57.8226 274.29 58.613 270.576 68.2197C270.576 68.2197 272.402 61.4707 268.445 61.1667C263.756 60.7411 253.223 58.1266 247.317 51.0736C245.977 49.4927 245.003 50.1615 243.055 53.7489C244.881 48.9455 245.368 47.3038 246.221 46.5742Z" fill="#E45F3C"/>
<path d="M129.86 155.104C129.86 155.104 123.284 170.547 125.72 174.195C128.216 177.783 133.513 178.695 133.513 181.188C133.513 183.681 127.668 180.64 128.034 183.073C128.277 184.775 146.178 200.401 150.136 206.481C151.84 209.096 149.588 215.906 150.075 216.878L148.005 216.818C142.22 211.953 121.58 190.369 121.58 190.369C121.58 190.369 115.613 168.48 116.343 167.021C117.135 165.562 121.701 154.192 122.188 153.401C122.797 152.489 129.86 155.104 129.86 155.104Z" fill="#E45F3C"/>
<path d="M113.479 125.919C106.781 131.33 79.869 176.932 83.4613 192.132C86.5057 205.083 120.298 232.444 125.352 233.782C134.18 236.092 158.17 212.319 146.601 205.934C135.033 199.55 120.42 180.945 119.689 178.574C118.958 176.141 131.501 151.638 131.501 151.638" fill="#F37E60"/>
<path d="M190.021 173.042C187.647 178.453 177.722 190.127 178.392 194.384C179.061 198.64 187.159 202.288 186.49 209.037C186.49 209.037 186.551 187.999 190.021 173.042Z" fill="#E45F3C"/>
<path d="M154.828 134.249C155.193 138.08 157.933 147.504 157.933 147.504L159.821 142.883C159.821 142.883 155.62 140.694 154.828 134.249Z" fill="#E2E2E2"/>
<path d="M157.93 147.504C162.009 150.665 179.179 153.341 185.572 143.612C191.966 133.884 189.469 125.919 189.469 125.919L159.817 142.883L157.93 147.504Z" fill="#E45F3C"/>
<path d="M83.1035 187.27C83.4079 192.073 129.134 234.695 137.78 228.615C137.78 228.615 131.082 234.574 125.359 233.722C121.645 233.297 95.0982 212.077 86.7567 198.822C81.8857 191.465 82.9817 188.303 83.1035 187.27Z" fill="#E45F3C"/>
<mask id="mask1_1580_1114" style="mask-type:luminance" maskUnits="userSpaceOnUse" x="83" y="44" width="191" height="190">
<path d="M244.948 48.7005C239.955 61.2257 229.482 98.9837 226.499 99.4702C215.478 100.929 187.531 113.151 182.904 111.144L184.304 119.474C178.216 114.549 170.787 110.171 165.064 107.557L143.997 106.645C134.133 110.111 119.155 118.197 113.432 125.98C106.734 131.391 79.8221 176.993 83.4144 192.193C86.4588 205.144 120.251 232.505 125.305 233.843C131.15 235.363 143.51 225.574 148.016 216.879C166.708 217.791 186.131 216.271 186.314 211.772C186.557 205.995 186.861 199.854 187.288 189.275C187.47 184.471 189.723 174.317 191.854 163.799C195.812 150.361 241.477 131.878 245.739 126.041C250.001 120.204 272.225 65.6642 273.747 58.672C275.33 51.619 249.758 36.7225 244.948 48.7005Z" fill="white"/>
</mask>
<g mask="url(#mask1_1580_1114)">
<path d="M200.669 110.354C200.669 113.334 198.234 115.705 195.311 115.705C192.328 115.705 189.953 113.273 189.953 110.354C189.953 107.375 192.389 105.004 195.311 105.004C198.234 105.004 200.669 107.375 200.669 110.354Z" fill="#EDEDED"/>
<path d="M216.505 126.892C216.505 129.871 214.07 132.242 211.147 132.242C208.164 132.242 205.789 129.81 205.789 126.892C205.789 123.912 208.225 121.541 211.147 121.541C214.07 121.541 216.505 123.973 216.505 126.892Z" fill="#EDEDED"/>
<path d="M224.24 103.908C224.24 106.887 221.804 109.259 218.881 109.259C215.898 109.259 213.523 106.827 213.523 103.908C213.523 100.929 215.959 98.5576 218.881 98.5576C221.865 98.5576 224.24 100.99 224.24 103.908Z" fill="#EDEDED"/>
<path d="M243.661 126.892C243.661 129.871 241.226 132.242 238.303 132.242C235.32 132.242 232.945 129.81 232.945 126.892C232.945 123.912 235.381 121.541 238.303 121.541C241.226 121.541 243.661 123.973 243.661 126.892Z" fill="#EDEDED"/>
<path d="M251.882 110.354C254.841 110.354 257.24 107.959 257.24 105.004C257.24 102.049 254.841 99.6533 251.882 99.6533C248.922 99.6533 246.523 102.049 246.523 105.004C246.523 107.959 248.922 110.354 251.882 110.354Z" fill="#EDEDED"/>
<path d="M195.38 157.292C195.38 160.271 192.945 162.643 190.022 162.643C187.039 162.643 184.664 160.21 184.664 157.292C184.664 154.313 187.1 151.941 190.022 151.941C193.006 151.941 195.38 154.313 195.38 157.292Z" fill="#EDEDED"/>
<path d="M169.802 175.047C169.802 178.026 167.367 180.397 164.444 180.397C161.461 180.397 159.086 177.965 159.086 175.047C159.086 172.068 161.521 169.696 164.444 169.696C167.427 169.696 169.802 172.128 169.802 175.047Z" fill="#EDEDED"/>
<path d="M185.7 197.971C185.7 200.95 183.265 203.321 180.342 203.321C177.359 203.321 174.984 200.889 174.984 197.971C174.984 194.991 177.42 192.62 180.342 192.62C183.265 192.62 185.7 194.991 185.7 197.971Z" fill="#EDEDED"/>
<path d="M140.091 201.374C140.091 204.353 137.656 206.725 134.733 206.725C131.75 206.725 129.375 204.293 129.375 201.374C129.375 198.577 131.506 196.327 134.185 196.023C134.307 196.023 136.986 198.942 140.091 201.374Z" fill="#EDEDED"/>
<path d="M120.24 178.694C120.24 181.674 117.804 184.045 114.881 184.045C111.898 184.045 109.523 181.613 109.523 178.694C109.523 175.715 111.959 173.344 114.881 173.344C117.865 173.344 120.24 175.776 120.24 178.694Z" fill="#EDEDED"/>
<path d="M93.638 173.405C93.638 176.385 91.2025 178.756 88.2799 178.756C85.2965 178.756 82.9219 176.324 82.9219 173.405C82.9219 170.426 85.3574 168.055 88.2799 168.055C91.2634 168.055 93.638 170.426 93.638 173.405Z" fill="#EDEDED"/>
<path d="M127.185 153.159C127.185 156.138 124.749 158.51 121.827 158.51C118.843 158.51 116.469 156.078 116.469 153.159C116.469 150.18 118.904 147.809 121.827 147.809C124.749 147.809 127.185 150.18 127.185 153.159Z" fill="#EDEDED"/>
<path d="M104.958 147.504C104.958 150.483 102.523 152.854 99.6002 152.854C96.6168 152.854 94.2422 150.422 94.2422 147.504C94.2422 144.525 96.6777 142.153 99.6002 142.153C102.584 142.153 104.958 144.525 104.958 147.504Z" fill="#EDEDED"/>
<path d="M124.81 123.486C124.81 126.466 122.374 128.837 119.452 128.837C116.468 128.837 114.094 126.405 114.094 123.486C114.094 120.507 116.529 118.136 119.452 118.136C122.435 118.136 124.81 120.568 124.81 123.486Z" fill="#EDEDED"/>
<path d="M146.427 168.054C146.427 171.033 143.992 173.404 141.069 173.404C138.086 173.404 135.711 170.972 135.711 168.054C135.711 165.075 138.146 162.703 141.069 162.703C144.052 162.642 146.427 165.075 146.427 168.054Z" fill="#EDEDED"/>
<path d="M145.941 142.397C145.028 143.127 143.871 143.553 142.592 143.553C139.609 143.553 137.234 141.121 137.234 138.202C137.234 136.256 138.269 134.493 139.853 133.581C141.192 135.648 143.445 138.749 145.941 142.397Z" fill="#EDEDED"/>
<path d="M240.802 80.499C240.802 83.4783 238.367 85.8496 235.444 85.8496C232.461 85.8496 230.086 83.4175 230.086 80.499C230.086 77.5197 232.521 75.1484 235.444 75.1484C238.427 75.1484 240.802 77.5197 240.802 80.499Z" fill="#EDEDED"/>
<path d="M269.544 76.1826C269.544 79.1619 267.109 81.5332 264.186 81.5332C261.203 81.5332 258.828 79.1011 258.828 76.1826C258.828 73.2033 261.264 70.832 264.186 70.832C267.17 70.832 269.544 73.2033 269.544 76.1826Z" fill="#EDEDED"/>
<path d="M255.904 57.0303C255.904 60.0096 253.468 62.3808 250.546 62.3808C247.562 62.3808 245.188 59.9488 245.188 57.0303C245.188 54.051 247.623 51.6797 250.546 51.6797C250.789 51.6797 250.972 51.6797 251.215 51.7405C252.92 52.8349 254.625 53.5645 254.625 53.5645C255.417 54.4766 255.904 55.6926 255.904 57.0303Z" fill="#EDEDED"/>
</g>
<path opacity="0.5" d="M191.906 163.677C192.88 158.752 196.655 149.328 195.133 140.998C193.611 132.729 197.751 140.025 200.613 141.302C203.475 142.579 242.442 132.242 245.791 125.919C245.791 125.919 245 127.196 242.747 128.594C238.241 131.391 229.413 135.951 220.158 141.18C199.213 152.976 192.759 159.603 191.906 163.677Z" fill="#E45F3C"/>
<path opacity="0.5" d="M212.977 103.058C215.595 102.207 225.885 100.443 229.599 104.699C233.313 108.956 233.556 104.943 232.034 103.119C230.512 101.295 228.929 96.6128 229.173 95.0928C228.137 97.6465 227.529 98.6193 226.859 99.2881C225.641 99.8353 225.093 99.1057 212.977 103.058Z" fill="#E45F3C"/>
<path opacity="0.5" d="M246.221 46.5742C245.307 47.9119 251.457 52.9584 260.103 55.6945C268.749 58.4306 273.437 58.7954 273.924 57.8226C273.924 57.8226 274.29 58.613 270.576 68.2197C270.576 68.2197 272.402 61.4707 268.445 61.1667C263.756 60.7411 253.223 58.1266 247.317 51.0736C245.977 49.4927 245.003 50.1615 243.055 53.7489C244.881 48.9455 245.368 47.3038 246.221 46.5742Z" fill="#E45F3C"/>
<path opacity="0.5" d="M129.86 155.104C129.86 155.104 123.284 170.548 125.72 174.196C128.216 177.784 133.513 178.696 133.513 181.189C133.513 183.681 127.668 180.641 128.033 183.073C128.277 184.776 146.178 200.402 150.135 206.482C151.84 209.097 149.587 215.907 150.075 216.879L148.004 216.819C150.744 211.225 150.257 207.82 145.63 205.388C132.6 197.97 120.179 179.547 120.179 179.547C120.179 179.547 119.814 177.297 120.423 175.716C123.467 167.447 129.86 155.104 129.86 155.104Z" fill="#E45F3C"/>
<path opacity="0.5" d="M190.021 173.042C187.647 178.453 177.722 190.127 178.392 194.384C179.061 198.64 187.159 202.288 186.49 209.037C186.49 209.037 186.551 187.999 190.021 173.042Z" fill="#E45F3C"/>
<path opacity="0.5" d="M157.93 147.504C162.009 150.665 179.179 153.341 185.572 143.612C191.966 133.884 189.469 125.919 189.469 125.919L159.817 142.883L157.93 147.504Z" fill="#E45F3C"/>
<path opacity="0.5" d="M83.1035 187.27C83.4079 192.073 129.134 234.695 137.78 228.615C137.78 228.615 131.082 234.574 125.359 233.722C121.645 233.297 95.0982 212.077 86.7567 198.822C81.8857 191.465 82.9817 188.303 83.1035 187.27Z" fill="#E45F3C"/>
<path d="M181.252 51.0732C183.383 60.68 181.739 62.3216 186.306 70.3475C189.837 76.4277 197.266 89.0137 190.02 98.0124C187.585 101.053 183.262 103.363 182.957 107.68C182.714 110.902 185.149 114.064 186.428 116.983C189.046 122.88 191.725 130.785 187.889 136.683C184.662 141.668 179 145.012 173.459 145.681C166.7 146.532 158.907 144.891 155.923 138.02C152.635 130.541 157.689 124.704 162.682 119.901C164.935 117.712 167.735 115.888 168.04 112.422C168.344 108.896 166.518 106.403 164.752 103.485C156.654 89.9865 177.964 81.0486 178.33 69.5571C178.512 64.3281 176.077 62.0176 178.512 57.275C178.452 57.3358 181.252 51.0732 181.252 51.0732Z" fill="#59514D"/>
<path d="M163.108 99.4111C170.841 103.85 176.625 105.856 176.686 109.018C176.747 112.119 158.846 121.057 155.315 130.055C155.315 129.691 155.315 129.691 155.315 129.691C155.315 129.691 154.462 125.374 158.603 119.293C160.916 115.949 164.265 113.396 165.178 109.139C165.787 106.829 163.23 102.877 163.108 99.4111Z" fill="#706661"/>
<path d="M163.649 172.616C163.649 174.501 162.188 176.021 160.422 176.021C158.657 176.021 157.195 174.501 157.195 172.616C157.195 170.731 158.657 169.211 160.422 169.211C162.188 169.211 163.649 170.731 163.649 172.616Z" fill="#484A4E"/>
<path d="M162.071 201.376C162.071 203.26 160.61 204.781 158.844 204.781C157.078 204.781 155.617 203.26 155.617 201.376C155.617 199.491 157.078 197.971 158.844 197.971C160.61 197.971 162.071 199.491 162.071 201.376Z" fill="#484A4E"/>
<path d="M158.422 173.467C158.422 173.163 159.092 174.075 160.431 174.075C161.832 174.075 162.44 173.224 162.44 173.467C162.44 174.319 161.527 175.048 160.431 175.048C159.335 175.048 158.422 174.379 158.422 173.467Z" fill="#6683C2"/>
<path d="M158.422 173.467C158.422 173.163 159.092 174.075 160.431 174.075C161.832 174.075 162.44 173.224 162.44 173.467C162.44 174.319 161.527 175.048 160.431 175.048C159.335 175.048 158.422 174.379 158.422 173.467Z" fill="#EDEDED"/>
<path opacity="0.6" d="M300.776 193.409H40.1797V211.832H300.776V193.409Z" fill="#6683C2"/>
<path d="M72.2063 191.586H40.1797V193.349H72.2063V191.586Z" fill="#F37E60"/>
<path opacity="0.4" d="M298.702 191.586H80.7266V193.349H298.702V191.586Z" fill="#6683C2"/>
<path opacity="0.5" d="M80.6637 191.586H72.6875V193.349H80.6637V191.586Z" fill="white"/>
<path d="M287.314 197.971H285V200.281" stroke="white" stroke-width="0.738956" stroke-miterlimit="10" stroke-linejoin="round"/>
<path d="M292.118 200.281V197.971H289.805" stroke="white" stroke-width="0.738956" stroke-miterlimit="10" stroke-linejoin="round"/>
<path d="M38.0444 25.4133C36.3395 25.4133 35 26.751 35 28.3926C35 30.0343 35 32.7096 35 34.412V211.65C35 213.352 36.3395 214.69 38.0444 214.69H300.833C302.538 214.69 303.877 213.352 303.877 211.65V28.4534C303.877 26.751 302.538 25.4133 300.833 25.4133H283.419C281.714 25.4133 280.253 26.6902 280.07 28.271C279.888 29.8519 281.105 31.1287 282.81 31.1287H295.597C297.301 31.1287 298.641 32.4664 298.641 34.1688V205.995C298.641 207.698 297.301 209.035 295.597 209.035H43.2198C41.5149 209.035 40.1754 207.698 40.1754 205.995V34.108C40.1754 32.4056 41.5149 31.0679 43.2198 31.0679H242.807C244.512 31.0679 245.852 29.7911 245.791 28.2102C245.791 26.6294 244.391 25.3525 242.686 25.3525H38.0444V25.4133Z" fill="#6683C2"/>
<path d="M318.053 143.877C315.557 147.222 284.078 155.247 279.451 154.7C274.823 154.214 268.004 133.055 270.683 127.583C273.301 122.11 307.093 113.659 310.929 116.03C314.643 118.341 320.549 140.533 318.053 143.877Z" fill="white"/>
<path d="M299.356 132.933L290.406 129.163C289.371 128.737 288.214 129.65 288.518 130.805L291.319 142.053C291.624 143.148 293.024 143.452 293.755 142.6L299.843 135.061C300.452 134.392 300.209 133.298 299.356 132.933Z" fill="#F37E60"/>
<path d="M91.955 78.1201H73.4623C68.9175 78.1201 65.1562 81.8276 65.1562 86.3074V94.572C65.1562 99.0518 68.9175 102.759 73.4623 102.759H87.3318L89.9961 106.158C90.5446 106.853 91.6416 106.698 92.0334 105.926L93.5222 102.682C97.3618 101.987 100.339 98.6657 100.339 94.6492V86.3847C100.261 81.8276 96.4999 78.1201 91.955 78.1201ZM73.3839 93.0272C72.1302 93.0272 71.1115 92.0231 71.1115 90.7873C71.1115 89.5515 72.1302 88.5474 73.3839 88.5474C74.6377 88.5474 75.6564 89.5515 75.6564 90.7873C75.7347 92.0231 74.6377 93.0272 73.3839 93.0272ZM82.7087 93.0272C81.4549 93.0272 80.4363 92.0231 80.4363 90.7873C80.4363 89.5515 81.4549 88.5474 82.7087 88.5474C83.9624 88.5474 84.9811 89.5515 84.9811 90.7873C84.9811 92.0231 83.9624 93.0272 82.7087 93.0272ZM92.0334 93.0272C90.7796 93.0272 89.761 92.0231 89.761 90.7873C89.761 89.5515 90.7796 88.5474 92.0334 88.5474C93.2871 88.5474 94.3058 89.5515 94.3058 90.7873C94.3058 92.0231 93.2871 93.0272 92.0334 93.0272Z" fill="#F37E60"/>
<path d="M215.529 174.925L215.59 174.986L225.94 178.634L231.907 169.453L231.968 169.392C233.551 166.96 232.882 163.616 230.385 162.035C227.95 160.454 224.601 161.123 223.018 163.616L221.557 165.866L218.999 164.954C216.259 163.981 213.154 165.44 212.18 168.176C211.328 170.912 212.789 173.952 215.529 174.925Z" fill="white"/>
<path d="M273.799 105.49L277.939 111.813L285.002 109.32H285.063C286.951 108.651 287.925 106.584 287.255 104.699C286.585 102.814 284.515 101.842 282.628 102.51L280.923 103.119L279.888 101.598C278.792 99.9568 276.539 99.4704 274.834 100.565C273.19 101.538 272.703 103.787 273.799 105.49Z" fill="white"/>
<path d="M54.1321 67.48H54.193L61.2559 69.9729L65.3354 63.7103L65.3963 63.6495C66.4922 62.0078 66.0051 59.6973 64.3612 58.6029C62.7172 57.5085 60.4035 57.9949 59.3075 59.6365L58.3334 61.1566L56.6285 60.5486C54.741 59.8798 52.6709 60.8526 52.0011 62.7374C51.2705 64.6831 52.2446 66.8112 54.1321 67.48Z" fill="#F37E60"/>
</g>
<defs>
<clipPath id="clip0_1580_1114">
<path d="M0 0H359V188C359 193.523 354.523 198 349 198H10C4.47715 198 0 193.523 0 188V0Z" fill="white"/>
</clipPath>
</defs>
</svg>
