<svg width="300" height="215" viewBox="0 0 300 215" fill="none" xmlns="http://www.w3.org/2000/svg">
<g clip-path="url(#clip0_1580_7304)">
<path d="M288.055 21.0977H98.4531V46.4171H288.055V21.0977Z" fill="#CBBBA0"/>
<path d="M156.45 68.2031H98.1562V208.049H156.45V68.2031Z" fill="#E6D4B5"/>
<path d="M288.341 68.2031H230.047V208.049H288.341V68.2031Z" fill="#E6D4B5"/>
<path d="M290.992 64.9648H95.7969V68.4978H290.992V64.9648Z" fill="#DBCAAD"/>
<path d="M290.992 52.5996H95.7969V61.432H290.992V52.5996Z" fill="#DBCAAD"/>
<path d="M293.052 61.4336H93.7344V64.9665H293.052V61.4336Z" fill="#A89B85"/>
<path d="M293.941 49.0664H92.5625V52.5994H293.941V49.0664Z" fill="#A89B85"/>
<path d="M296 44.0625H90.5V49.0675H296V44.0625Z" fill="#E6D4B5"/>
<path d="M291.881 19.332H94.625V22.865H291.881V19.332Z" fill="#A89B85"/>
<path d="M293.941 14.3262H92.5625V19.3312H293.941V14.3262Z" fill="#DBCAAD"/>
<path d="M143.5 188.031H111.703V215.117H143.5V188.031Z" fill="#D4C3A7"/>
<path d="M275.093 188.031H243.297V215.117H275.093V188.031Z" fill="#D4C3A7"/>
<path d="M230.051 68.2031V215.998H224.457V107.066C224.457 93.2282 215.33 81.4517 202.671 77.6243C199.726 76.7411 196.782 76.4467 193.838 76.4467H192.955C190.011 76.4467 186.772 77.0355 184.123 77.6243C171.463 81.4517 162.336 93.2282 162.336 107.066V215.998H156.742V68.2031H230.051Z" fill="#BDAE95"/>
<path d="M192.957 74.0915C174.703 74.0915 159.982 88.8122 159.982 107.066V213.938H158.805V70.5586H227.992V213.938H226.814V107.066C226.814 88.8122 212.093 74.0915 193.84 74.0915H192.957Z" fill="#A89B85"/>
<path d="M162.04 210.7H95.7969L98.1522 208.051H156.74L162.04 210.7Z" fill="#DBCAAD"/>
<path d="M224.461 210.7H290.998L288.348 208.051H230.055L224.461 210.7Z" fill="#DBCAAD"/>
<path d="M162.334 210.699H95.7969V215.999H162.334V210.699Z" fill="#A89B85"/>
<path d="M290.998 210.699H224.461V215.999H290.998V210.699Z" fill="#A89B85"/>
<path d="M164.101 109.127H95.7969V112.66H164.101V109.127Z" fill="#DBCAAD"/>
<path d="M290.991 109.127H222.688V112.66H290.991V109.127Z" fill="#DBCAAD"/>
<path d="M162.044 112.365H98.1562V119.726H162.044V112.365Z" fill="#A89B85"/>
<path d="M288.348 112.365H224.461V119.726H288.348V112.365Z" fill="#A89B85"/>
<path d="M149.967 75.2695H104.922V101.767H149.967V75.2695Z" fill="#DBCAAD"/>
<path d="M281.576 75.2695H236.531V101.767H281.576V75.2695Z" fill="#DBCAAD"/>
<path d="M147.908 77.332H106.984V99.7074H147.908V77.332Z" fill="#A89B85"/>
<path d="M279.509 77.332H238.586V99.7074H279.509V77.332Z" fill="#A89B85"/>
<path d="M145.848 79.3926H109.047V97.3518H145.848V79.3926Z" fill="#DBCAAD"/>
<path d="M277.45 79.3926H240.648V97.3518H277.45V79.3926Z" fill="#DBCAAD"/>
<path d="M144.67 80.5703H109.93V96.4686H144.67V80.5703Z" fill="#CBBBA0"/>
<path d="M276.569 80.5703H241.828V96.4686H276.569V80.5703Z" fill="#CBBBA0"/>
<path d="M116.707 38.4688H98.4531V44.0626H116.707V38.4688Z" fill="#DBCAAD"/>
<path d="M288.05 38.4688H269.797V44.0626H288.05V38.4688Z" fill="#DBCAAD"/>
<path d="M135.84 38.4688H117.586V44.0626H135.84V38.4688Z" fill="#DBCAAD"/>
<path d="M268.91 38.4688H250.656V44.0626H268.91V38.4688Z" fill="#DBCAAD"/>
<path d="M154.98 38.4688H136.727V44.0626H154.98V38.4688Z" fill="#DBCAAD"/>
<path d="M249.777 38.4688H231.523V44.0626H249.777V38.4688Z" fill="#DBCAAD"/>
<path d="M174.113 38.4688H155.859V44.0626H174.113V38.4688Z" fill="#DBCAAD"/>
<path d="M230.644 38.4688H212.391V44.0626H230.644V38.4688Z" fill="#DBCAAD"/>
<path d="M192.959 38.7637H175V44.3575H192.959V38.7637Z" fill="#DBCAAD"/>
<path d="M211.803 38.7637H193.844V44.3575H211.803V38.7637Z" fill="#DBCAAD"/>
<path d="M111.991 30.814C111.991 33.1693 110.225 34.9357 107.869 34.9357C105.514 34.9357 103.453 32.8749 103.453 30.814C103.453 28.4587 105.22 26.6922 107.575 26.6922C109.93 26.3978 111.991 28.4587 111.991 30.814Z" fill="#DBCAAD"/>
<path d="M274.805 30.814C274.805 33.1693 276.571 34.9357 278.926 34.9357C281.282 34.9357 283.048 33.1693 283.048 30.814C283.048 28.4587 281.282 26.6922 278.926 26.6922C276.571 26.3978 274.805 28.4587 274.805 30.814Z" fill="#DBCAAD"/>
<path d="M131.134 30.814C131.134 33.1693 129.368 34.9357 127.012 34.9357C124.657 34.9357 122.891 33.1693 122.891 30.814C122.891 28.4587 124.657 26.6922 127.012 26.6922C129.073 26.3978 131.134 28.4587 131.134 30.814Z" fill="#DBCAAD"/>
<path d="M255.664 30.814C255.664 33.1693 257.431 34.9357 259.786 34.9357C262.141 34.9357 263.908 33.1693 263.908 30.814C263.908 28.4587 262.141 26.6922 259.786 26.6922C257.431 26.3978 255.664 28.4587 255.664 30.814Z" fill="#DBCAAD"/>
<path d="M149.97 30.814C149.97 33.1693 148.204 34.9357 145.848 34.9357C143.493 34.9357 141.727 33.1693 141.727 30.814C141.727 28.4587 143.493 26.6922 145.848 26.6922C148.204 26.3978 149.97 28.4587 149.97 30.814Z" fill="#DBCAAD"/>
<path d="M236.531 30.814C236.531 33.1693 238.298 34.9357 240.653 34.9357C243.008 34.9357 244.775 33.1693 244.775 30.814C244.775 28.4587 243.008 26.6922 240.653 26.6922C238.298 26.3978 236.531 28.4587 236.531 30.814Z" fill="#DBCAAD"/>
<path d="M169.111 30.814C169.111 33.1693 167.344 34.9357 164.989 34.9357C162.634 34.9357 160.867 33.1693 160.867 30.814C160.867 28.4587 162.634 26.6922 164.989 26.6922C167.344 26.3978 169.111 28.4587 169.111 30.814Z" fill="#DBCAAD"/>
<path d="M217.391 30.814C217.391 33.1693 219.157 34.9357 221.512 34.9357C223.868 34.9357 225.634 33.1693 225.634 30.814C225.634 28.4587 223.868 26.6922 221.512 26.6922C219.157 26.3978 217.391 28.4587 217.391 30.814Z" fill="#DBCAAD"/>
<path d="M188.244 30.814C188.244 33.1693 186.477 34.9357 184.122 34.9357C181.766 34.9357 180 33.1693 180 30.814C180 28.4587 181.766 26.6922 184.122 26.6922C186.477 26.3978 188.244 28.4587 188.244 30.814Z" fill="#DBCAAD"/>
<path d="M198.258 30.814C198.258 33.1693 200.024 34.9357 202.38 34.9357C204.735 34.9357 206.501 33.1693 206.501 30.814C206.501 28.4587 204.735 26.6922 202.38 26.6922C200.024 26.3978 198.258 28.4587 198.258 30.814Z" fill="#DBCAAD"/>
<path d="M111.991 14.3269C111.991 16.6822 110.224 18.4486 107.869 18.4486C105.513 18.4486 103.747 16.6822 103.747 14.3269C103.453 11.9716 105.513 10.2051 107.574 10.2051C109.93 10.2051 111.991 11.9716 111.991 14.3269Z" fill="#DBCAAD"/>
<path d="M274.805 14.3269C274.805 16.6822 276.571 18.4486 278.926 18.4486C281.282 18.4486 283.048 16.6822 283.048 14.3269C283.048 11.9716 281.282 10.2051 278.926 10.2051C276.571 10.2051 274.805 11.9716 274.805 14.3269Z" fill="#DBCAAD"/>
<path d="M131.134 14.3269C131.134 16.6822 129.368 18.4486 127.012 18.4486C124.657 18.4486 122.891 16.6822 122.891 14.3269C122.891 11.9716 124.657 10.2051 127.012 10.2051C129.073 10.2051 131.134 11.9716 131.134 14.3269Z" fill="#DBCAAD"/>
<path d="M255.664 14.3269C255.664 16.6822 257.431 18.4486 259.786 18.4486C262.141 18.4486 263.908 16.6822 263.908 14.3269C263.908 11.9716 262.141 10.2051 259.786 10.2051C257.431 10.2051 255.664 11.9716 255.664 14.3269Z" fill="#DBCAAD"/>
<path d="M149.97 14.3269C149.97 16.6822 148.204 18.4486 145.848 18.4486C143.493 18.4486 141.727 16.6822 141.727 14.3269C141.727 11.9716 143.493 10.2051 145.848 10.2051C148.204 10.2051 149.97 11.9716 149.97 14.3269Z" fill="#DBCAAD"/>
<path d="M236.531 14.3269C236.531 16.6822 238.298 18.4486 240.653 18.4486C243.008 18.4486 244.775 16.6822 244.775 14.3269C244.775 11.9716 243.008 10.2051 240.653 10.2051C238.298 10.2051 236.531 11.9716 236.531 14.3269Z" fill="#DBCAAD"/>
<path d="M169.111 14.3269C169.111 16.6822 167.344 18.4486 164.989 18.4486C162.634 18.4486 160.867 16.6822 160.867 14.3269C160.867 11.9716 162.634 10.2051 164.989 10.2051C167.344 10.2051 169.111 11.9716 169.111 14.3269Z" fill="#DBCAAD"/>
<path d="M217.391 14.3269C217.391 16.6822 219.157 18.4486 221.512 18.4486C223.868 18.4486 225.634 16.6822 225.634 14.3269C225.634 11.9716 223.868 10.2051 221.512 10.2051C219.157 10.2051 217.391 11.9716 217.391 14.3269Z" fill="#DBCAAD"/>
<path d="M188.244 14.3269C188.244 16.6822 186.477 18.4486 184.122 18.4486C181.766 18.4486 180 16.6822 180 14.3269C180 11.9716 181.766 10.2051 184.122 10.2051C186.477 10.2051 188.244 11.9716 188.244 14.3269Z" fill="#DBCAAD"/>
<path d="M198.258 14.3269C198.258 16.6822 200.024 18.4486 202.38 18.4486C204.735 18.4486 206.501 16.6822 206.501 14.3269C206.796 11.9716 204.735 10.2051 202.38 10.2051C200.024 10.2051 198.258 11.9716 198.258 14.3269Z" fill="#DBCAAD"/>
<path d="M119.943 23.748H114.938V37.291H119.943V23.748Z" fill="#DBCAAD"/>
<path d="M271.857 23.748H266.852V37.291H271.857V23.748Z" fill="#DBCAAD"/>
<path d="M138.786 23.748H133.781V37.291H138.786V23.748Z" fill="#DBCAAD"/>
<path d="M253.021 23.748H248.016V37.291H253.021V23.748Z" fill="#DBCAAD"/>
<path d="M157.919 23.748H152.914V37.291H157.919V23.748Z" fill="#DBCAAD"/>
<path d="M233.88 23.748H228.875V37.291H233.88V23.748Z" fill="#DBCAAD"/>
<path d="M177.06 23.748H172.055V37.291H177.06V23.748Z" fill="#DBCAAD"/>
<path d="M214.45 23.748H209.445V37.291H214.45V23.748Z" fill="#DBCAAD"/>
<path d="M195.903 23.748H190.898V37.291H195.903V23.748Z" fill="#DBCAAD"/>
<path d="M113.167 180.964C112.284 178.314 111.695 175.37 111.401 172.72C111.106 168.009 112.284 163.299 111.695 158.883C111.106 153.583 109.046 148.284 111.106 143.573C111.99 141.807 113.167 140.335 113.756 138.568C114.934 135.918 114.345 132.68 115.523 130.03C117.289 126.203 122 124.436 126.416 124.731C132.599 125.025 139.076 129.147 140.548 135.624C141.137 138.863 140.548 142.101 140.548 145.634C140.253 152.111 142.314 158.294 142.903 164.771C142.903 166.832 142.903 168.893 142.609 170.659C142.314 172.131 141.725 173.309 141.431 174.781C141.137 177.431 142.609 180.669 141.137 182.73C139.665 184.791 136.426 183.908 134.071 183.613C128.182 182.73 122.294 185.085 116.406 184.202C115.523 184.202 114.639 183.908 114.345 183.319C113.756 182.141 113.462 181.552 113.167 180.964Z" fill="#F0DDBD"/>
<path d="M273.329 180.964C274.213 178.314 274.801 175.37 275.096 172.72C275.39 168.009 274.507 163.299 274.801 158.883C275.39 153.583 277.451 148.284 275.39 143.573C274.507 141.807 273.329 140.335 272.741 138.568C271.563 135.918 272.152 132.68 270.974 130.03C269.208 126.203 264.497 124.436 260.081 124.731C253.898 125.025 247.421 129.147 245.949 135.624C245.36 138.863 245.949 142.101 245.949 145.634C246.243 152.111 244.183 158.294 243.594 164.771C243.594 166.832 243.594 168.893 243.888 170.659C244.183 172.131 244.771 173.309 245.066 174.781C245.36 177.431 243.888 180.669 245.36 182.73C246.832 184.791 250.071 183.908 252.426 183.613C258.314 182.73 264.203 185.085 270.091 184.202C270.974 184.202 271.857 183.908 272.152 183.319C273.035 182.141 273.035 181.552 273.329 180.964Z" fill="#F0DDBD"/>
<path d="M117.875 160.651C120.525 159.179 121.997 155.352 123.469 151.819C123.763 150.936 124.058 150.347 124.647 149.758C125.236 149.169 125.824 148.875 126.413 149.169C126.708 148.286 126.119 147.108 126.119 145.931C126.413 144.753 127.885 144.459 128.474 145.636C129.063 146.52 129.063 148.286 128.474 149.169C129.357 149.169 129.946 150.347 130.535 151.525C131.124 152.702 131.418 153.586 132.007 154.763C132.301 155.646 132.596 156.235 132.89 157.119C132.89 158.002 132.89 158.885 132.596 159.768C132.301 160.946 132.007 162.418 131.713 163.596C131.418 164.773 131.124 165.951 130.829 167.129C130.241 170.661 130.829 174.194 131.124 177.727C130.535 177.727 129.946 177.727 129.652 177.727C129.357 174.783 128.768 172.134 128.474 169.189C128.474 168.895 128.474 168.895 128.474 168.601C128.18 168.306 127.591 168.306 127.591 168.895C127.296 169.484 127.591 169.778 127.591 170.367C127.885 171.839 127.885 173.017 128.18 174.489C128.474 175.667 128.474 177.139 127.885 178.022C127.296 178.611 126.413 178.611 125.824 178.316C126.413 175.961 126.413 173.311 126.413 170.956C125.824 170.661 125.53 171.25 124.941 171.25C124.352 171.545 123.763 171.545 123.469 170.956C123.175 170.661 123.175 170.367 123.175 169.778C123.175 165.656 123.469 161.24 123.763 157.119C122.88 158.885 121.408 160.063 120.23 161.24C119.642 161.829 119.347 162.124 118.758 162.124C118.17 162.124 117.581 161.24 117.875 160.651Z" fill="#D4C3A7"/>
<path d="M132.6 169.483C132.895 166.539 133.189 163.595 133.484 160.65C133.484 159.473 133.778 158.001 133.778 156.823C133.778 156.529 133.778 156.234 133.778 155.94C133.778 155.351 133.484 155.057 133.189 154.762C132.306 153.29 131.423 151.818 130.834 150.346C130.539 150.052 130.539 149.463 130.245 148.874C129.951 148.285 129.951 147.402 129.951 146.813C129.951 145.047 129.656 143.28 129.656 141.514C130.245 142.102 130.539 143.28 130.834 144.163C131.128 145.341 130.834 146.519 131.128 147.402C131.423 148.285 132.306 148.874 132.895 149.463C133.484 150.052 134.072 150.935 134.072 152.113C134.367 152.113 134.661 151.524 134.661 150.935C134.661 150.346 134.367 150.052 134.367 149.463C134.072 148.285 134.956 147.108 135.839 147.108C136.722 147.108 137.605 148.285 137.311 149.463C137.311 150.052 137.017 150.64 136.722 151.229C136.722 151.818 137.311 152.407 137.605 151.818C137.9 150.935 138.489 150.052 139.372 149.463C139.666 149.463 139.666 149.168 139.961 149.463C140.255 149.463 140.255 149.757 140.255 150.052C140.844 152.996 138.783 155.94 139.077 159.178C139.077 160.062 139.372 160.945 139.372 161.828C139.372 162.711 139.077 163.595 139.077 164.478C139.077 165.067 139.077 165.656 139.372 166.244C139.961 168.6 139.961 171.544 139.372 173.899C139.372 174.488 139.077 174.782 139.077 175.371C139.077 176.254 139.666 177.138 139.961 178.021C140.255 178.904 140.55 180.082 139.961 180.671C139.666 180.965 139.372 180.965 138.783 180.965C136.722 180.965 134.661 180.965 133.189 179.199C132.306 178.021 132.012 176.254 132.012 174.488C132.012 172.721 132.306 170.955 132.6 169.483Z" fill="#D4C3A7"/>
<path d="M114.345 141.22C113.756 141.808 112.873 142.692 112.578 143.869C113.461 144.458 114.639 145.341 114.933 146.813C114.933 147.697 114.639 148.285 114.639 149.169C114.639 150.052 114.639 150.935 115.228 151.23C114.933 149.757 115.817 148.285 116.994 147.697C118.172 147.108 119.35 147.108 120.233 146.813C121.705 146.519 122.883 145.636 123.766 144.458C124.06 144.164 124.355 143.869 124.649 143.575C125.238 143.28 126.121 143.28 126.71 142.692C127.299 142.103 127.888 140.925 128.182 140.042C128.476 139.159 129.065 138.275 129.948 137.392C130.243 137.098 130.243 137.098 130.537 137.098L130.832 137.392C131.126 137.981 131.421 138.57 132.009 138.864C132.598 139.159 133.187 138.864 133.481 138.275C133.776 137.981 133.776 137.687 134.07 137.392C134.365 136.803 135.248 137.098 135.542 137.687C135.837 138.275 136.131 138.864 136.426 139.453C136.72 140.042 137.603 140.336 137.898 140.042C135.837 136.803 134.07 133.27 132.893 129.443C133.481 129.737 134.07 129.737 134.365 130.032C134.659 129.737 134.953 128.854 134.659 128.265C134.659 127.677 134.07 127.088 133.776 126.499C132.893 125.321 132.009 124.732 130.832 124.732C129.654 124.732 128.476 125.91 128.476 127.382C128.476 127.677 128.476 128.265 128.182 128.56C128.182 128.854 127.888 128.854 127.593 129.149C125.827 130.032 124.06 129.737 122.588 128.265C121.999 127.677 121.116 126.793 120.233 126.499C119.938 126.793 119.055 127.382 118.466 127.971C119.35 127.677 120.527 127.971 121.116 129.149C121.411 129.737 121.705 130.032 121.999 130.621C123.177 132.093 125.238 131.209 127.004 131.798C127.004 132.976 126.71 133.859 126.416 134.742C125.238 135.037 124.06 134.154 123.177 135.037C122.883 135.331 122.588 135.92 122.294 136.509C121.116 138.57 118.761 138.275 116.994 139.159C116.111 139.453 115.228 140.336 114.345 141.22Z" fill="#D4C3A7"/>
<path d="M123.771 181.554C124.36 180.377 124.36 178.61 123.771 177.433C123.476 176.844 123.182 176.255 122.887 175.666C122.004 173.311 122.593 170.661 123.182 168.306C123.771 164.773 124.065 160.945 124.065 157.118C124.065 155.94 123.771 154.763 123.182 154.174C122.593 153.585 121.415 153.291 121.121 152.407C120.827 151.23 121.415 149.463 120.827 148.58C120.827 148.58 120.827 148.58 120.532 148.58C119.943 148.58 119.649 148.286 119.06 148.58C118.177 148.874 117.588 150.052 117.882 151.23C117.882 152.407 118.766 153.291 119.649 153.291C118.766 153.585 119.06 155.646 118.177 156.235C117.588 156.824 116.705 155.94 116.116 155.352C115.233 154.763 114.35 154.174 113.466 154.174C113.466 154.763 113.761 155.352 114.055 155.646C115.233 156.824 116.999 157.412 118.766 157.412C118.766 158.885 118.471 160.357 118.471 161.829C118.471 162.123 118.471 162.712 118.177 163.006C118.177 163.301 117.882 163.301 117.588 163.595C116.116 164.478 114.644 165.067 114.055 166.834C112.877 170.072 114.938 174.194 114.055 177.433C113.761 178.61 113.172 179.788 113.172 180.965C116.705 181.26 120.238 181.554 123.771 181.554Z" fill="#D4C3A7"/>
<path d="M164.69 185.381H94.9141V188.031H164.69V185.381Z" fill="#DBCAAD"/>
<path d="M291.581 185.381H221.805V188.031H291.581V185.381Z" fill="#DBCAAD"/>
<path d="M163.222 182.73H96.3906V185.38H163.222V182.73Z" fill="#BDAE95"/>
<path d="M290.113 182.73H223.281V185.38H290.113V182.73Z" fill="#BDAE95"/>
<path d="M144.378 185.381H110.227V188.031H144.378V185.381Z" fill="#A89B85"/>
<path d="M276.277 185.381H242.125V188.031H276.277V185.381Z" fill="#A89B85"/>
<path d="M142.608 182.73H112.578V185.38H142.608V182.73Z" fill="#DBCAAD"/>
<path d="M274.218 182.73H244.188V185.38H274.218V182.73Z" fill="#DBCAAD"/>
<path d="M272.741 169.188C273.035 168.893 273.33 168.893 273.33 168.599C273.919 168.01 273.919 166.833 273.624 165.949C273.33 163.888 272.447 162.122 271.269 160.65C270.975 160.061 270.68 159.767 270.386 159.178C270.386 158.589 270.386 158 270.386 157.117C270.386 156.528 270.68 155.645 270.386 155.056C270.091 154.467 269.502 154.173 269.208 154.467C268.619 155.056 268.914 156.234 268.619 157.117C268.325 158 267.147 158 266.264 158.295C265.675 158.589 265.381 159.178 265.086 159.767C265.381 158.883 265.675 158.295 266.264 157.706C266.558 157.411 266.853 157.411 266.853 157.117C266.853 156.823 266.853 156.528 266.853 156.234C266.853 155.056 266.264 154.173 265.675 153.29C265.381 152.701 264.792 152.406 264.203 152.995C264.203 152.995 264.203 153.29 263.909 153.584C263.614 155.056 263.614 156.823 263.909 158.295C263.025 158.589 262.437 159.472 262.142 160.65C261.848 161.828 261.848 163.005 262.142 164.183C262.142 165.066 262.437 166.244 262.142 167.127C261.848 167.716 261.553 168.305 261.259 169.188C261.259 168.893 261.259 168.599 260.965 168.599C260.965 168.01 260.965 167.716 260.965 167.127C261.259 165.066 260.965 163.005 261.553 160.944C261.848 159.767 262.437 158.589 261.848 157.706C261.259 156.823 260.081 157.117 259.198 156.823C259.198 156.823 258.904 156.823 258.904 156.528C258.904 156.234 258.904 155.939 258.904 155.939C258.904 155.35 258.904 154.762 258.609 154.173C259.198 154.173 259.787 154.173 260.081 154.467C260.376 154.762 260.965 155.056 261.259 155.056C261.848 155.056 262.142 154.762 262.142 154.173C262.142 153.584 261.259 153.29 260.965 152.701C260.376 151.818 260.67 150.345 261.259 149.462C261.259 150.345 261.848 150.934 262.437 151.523C265.381 153.29 268.325 154.467 271.563 155.35C269.797 152.112 266.558 150.64 263.614 149.168C263.32 149.168 263.025 148.873 262.731 148.579C262.437 147.99 262.437 147.401 262.142 146.813C262.142 145.046 261.848 143.28 261.259 142.102C260.965 141.513 260.376 140.924 260.376 140.041C260.376 139.452 260.376 138.863 260.67 138.275C261.553 134.742 262.731 131.209 262.731 127.676C262.731 127.381 262.731 127.087 262.437 126.792C262.437 126.792 262.437 126.792 262.142 126.498C261.848 126.792 261.553 127.087 260.965 127.381C260.965 130.62 260.081 134.153 258.609 136.802C258.609 137.097 258.315 137.391 258.02 137.097C257.726 136.214 258.02 135.33 257.726 134.447C257.726 134.153 257.432 133.858 257.137 133.858C256.254 133.27 255.076 133.564 254.487 134.447C253.899 135.33 253.899 136.802 254.487 137.686C254.782 137.98 255.076 138.569 254.782 138.863L254.487 139.158C251.838 139.747 248.894 137.686 246.538 139.158C246.244 139.452 245.949 139.747 245.949 140.335C245.949 140.924 246.244 141.219 246.833 141.219C247.716 141.513 248.894 141.219 249.777 141.219C251.543 141.219 253.015 141.808 254.487 142.396C255.371 142.691 255.96 142.985 256.548 143.868C256.843 144.457 257.137 145.34 257.432 146.224C257.432 146.224 257.432 146.518 257.432 146.813C257.432 146.813 257.432 147.107 257.137 147.107C256.548 147.696 256.254 148.579 255.665 149.168C254.782 150.345 253.899 151.818 254.487 153.29C254.487 153.584 254.782 153.878 254.782 153.878C254.487 154.467 254.782 155.645 255.076 156.234C255.371 156.823 255.96 157.706 255.96 158.295C253.899 157.706 251.838 155.645 251.249 152.995C250.954 151.818 250.954 150.345 250.366 149.168C250.071 147.99 249.188 146.813 248.01 146.813C248.894 147.696 249.188 149.168 249.482 150.345C249.482 151.229 249.777 152.112 249.777 152.995C250.071 155.939 251.249 158.883 253.015 160.944C253.31 161.239 253.31 161.239 253.604 161.533C253.604 161.828 253.604 162.122 253.604 162.416C253.604 163.3 253.604 164.183 253.899 165.066C253.31 164.772 252.721 164.477 252.427 163.594C252.132 162.711 252.427 160.944 251.543 160.65C250.954 160.355 250.071 161.239 249.482 161.239C249.188 160.65 249.188 160.061 249.482 159.472C249.188 159.178 248.894 158.883 248.599 158.883C249.188 158.883 249.482 158 249.188 157.411C248.894 156.823 248.599 156.528 248.01 156.234C247.422 155.939 246.833 155.645 246.244 155.939C245.655 155.939 245.066 156.528 245.066 157.411C244.772 158.589 245.949 159.767 246.538 160.944C245.655 160.944 245.066 161.533 244.772 162.416C244.477 163.3 244.477 164.183 244.477 165.066C244.477 165.949 244.183 167.127 243.594 167.421C243.3 167.716 243.005 167.716 242.711 168.305V168.599C242.711 168.893 243.005 169.188 243.005 169.482C243.594 170.366 244.183 170.954 244.477 171.838C244.772 171.543 244.772 170.66 244.477 170.071C244.183 169.482 243.889 168.893 244.183 168.305C244.183 168.01 244.477 167.716 244.772 167.421C245.361 166.538 245.949 165.361 245.655 164.183C245.655 164.183 245.949 164.183 246.244 164.183C246.833 165.655 246.244 167.716 246.833 169.188C246.833 169.482 247.127 169.777 247.127 170.071C247.127 170.366 247.127 170.66 247.127 170.954C246.833 171.838 246.833 172.721 246.538 173.604C246.244 174.782 245.949 175.959 246.538 176.843C246.833 177.431 247.422 177.726 247.716 178.02C248.599 178.609 249.188 179.492 249.777 180.67C248.894 181.259 248.305 181.848 248.01 183.025C248.894 183.32 249.777 183.025 250.366 182.731C250.66 182.731 250.954 182.436 251.249 182.142C251.543 181.848 251.543 180.964 251.543 180.376C251.838 178.02 252.721 175.959 253.899 174.487C253.899 175.959 254.193 177.431 254.782 178.609C255.076 179.492 255.371 180.081 255.076 180.964C255.076 181.259 254.487 181.848 254.487 182.142C254.193 182.436 254.193 183.025 254.487 183.32C255.371 183.025 256.254 183.025 257.432 182.731C258.02 179.492 255.96 176.254 255.96 172.721C255.96 172.426 255.96 172.132 256.254 171.838C256.548 171.543 256.843 171.543 257.137 171.838C258.315 172.426 259.198 173.31 259.787 174.487C259.787 175.665 260.081 176.843 260.081 178.02C260.081 178.609 260.376 179.198 260.081 179.787C259.787 180.964 259.198 181.553 258.609 182.436C259.198 182.731 259.787 183.025 260.376 182.731C260.67 182.731 260.67 182.436 260.67 182.436C260.67 182.142 260.67 181.848 260.67 181.848C260.67 180.081 260.376 178.315 260.67 176.843C260.965 177.137 260.965 177.726 261.259 178.02C262.142 179.787 263.32 180.964 264.497 182.436C264.792 182.731 265.381 183.32 265.97 183.32H266.264C265.97 182.142 265.381 181.553 264.792 180.67C264.497 180.081 264.203 179.492 263.909 178.903C263.025 177.137 262.142 175.076 261.553 173.31C261.848 172.721 262.142 172.132 262.731 171.838C263.025 174.193 263.909 176.254 265.381 178.02C265.675 178.609 266.264 179.198 266.558 179.787C266.853 180.376 266.853 180.964 266.853 181.553C266.853 182.142 267.147 182.731 267.442 183.025C267.736 183.32 268.325 183.025 268.325 182.731C268.619 183.025 268.914 183.025 269.208 182.731C268.914 180.67 268.914 178.315 269.208 176.254C269.797 176.254 270.386 176.254 270.68 175.665C270.68 175.371 270.68 175.076 270.68 175.076C270.386 174.193 270.091 173.604 269.797 172.721C270.386 173.31 271.269 173.604 272.152 173.604C274.213 171.543 272.447 170.366 272.741 169.188ZM255.96 169.482C255.665 169.482 255.665 169.482 255.96 169.482C254.782 170.366 253.899 171.249 253.015 172.721C252.132 173.898 251.838 175.665 252.132 177.137C250.954 175.959 251.249 173.604 251.543 171.543C251.838 170.366 252.132 168.893 253.31 168.893C253.899 168.893 254.193 169.188 254.782 169.188C255.076 169.188 255.665 168.599 255.96 168.305C255.96 168.305 255.96 168.01 256.254 168.01C255.96 168.305 255.96 168.599 255.96 169.482ZM267.736 175.959C268.325 176.843 268.619 177.726 268.914 178.609C268.619 177.726 268.03 176.843 267.736 175.959Z" fill="#D4C3A7"/>
<path opacity="0.1" d="M288.055 22.8652H98.4531V28.4591H288.055V22.8652Z" fill="#1D1D1B"/>
<path opacity="0.1" d="M290.992 52.5996H95.7969V58.1934H290.992V52.5996Z" fill="#1D1D1B"/>
<path opacity="0.1" d="M290.992 67.6152V68.4985H288.343V77.6253H202.669C199.725 76.742 196.78 76.4476 193.836 76.4476H192.953C190.009 76.4476 186.77 77.0364 184.121 77.6253H98.1522V68.4985H95.7969V67.6152H290.992Z" fill="#1D1D1B"/>
<path d="M156.048 168.357C154.807 161.871 154.652 154.524 161.491 151.126C166.948 148.503 173.618 148.898 179.455 148.898C186.111 149.081 195.164 149.081 198.76 155.864C200.593 159.573 200.127 163.676 199.239 167.497C198.238 171.742 196.489 175.944 193.542 179.215C189.975 183.319 184.532 185.377 179.23 185.575C175.31 185.758 171.277 185.321 167.611 183.798C161.082 181.105 157.289 175.112 156.048 168.357ZM158.544 167.963C159.686 177.453 165.665 183.742 175.394 184.179C184.87 184.686 192.231 180.682 195.051 171.333C195.587 169.598 195.939 167.765 196.151 165.96C196.461 163.267 196.518 160.165 195.136 157.838C194.092 156.104 192.146 155.173 190.243 154.708C185.759 153.636 180.33 153.989 175.606 153.946C171.897 153.989 168.302 153.848 164.776 154.567C162.689 155.018 160.899 155.906 159.756 157.711C158.91 159.023 158.487 160.87 158.36 162.477C158.191 164.296 158.332 166.115 158.544 167.963Z" fill="#3A3E42"/>
<path d="M129.298 177.355L131.061 179.427C131.526 179.977 131.822 180.64 131.921 181.345C135.827 208.292 147.192 202.92 147.192 202.92L148.461 195.065L149.984 185.688H144.823C142.835 185.688 141.016 184.574 140.114 182.798L137.872 178.412L137.406 177.481C136.574 175.846 134.896 174.816 133.063 174.816H130.455C129.157 174.845 128.452 176.353 129.298 177.355Z" fill="#65B49C"/>
<path d="M137.875 178.426C138.651 181.049 137.861 184.532 138.806 187.916C140.272 193.161 147.309 191.963 147.309 191.963L148.465 192.231L149.988 185.688H144.827C142.839 185.688 141.02 184.574 140.117 182.797L137.875 178.426Z" fill="#7FCBB4"/>
<path d="M189.894 171.756C189.894 167.779 184.14 164.564 177.033 164.564C169.941 164.564 164.188 167.779 164.188 171.756H189.894Z" fill="#65B49C"/>
<path d="M184.021 171.756C184.021 168.809 179.762 166.426 174.503 166.426C169.243 166.426 164.984 168.809 164.984 171.756H184.021Z" fill="#7FCBB4"/>
<path d="M145.203 193.668C145.203 182.218 151.901 176.888 161.772 174.66C161.208 174.293 160.912 173.912 160.912 173.503C160.912 170.514 168.131 171.741 177.043 171.741C185.955 171.741 193.175 170.401 193.175 173.503C193.175 173.912 192.85 174.307 192.272 174.688C202.171 176.944 208.883 182.331 208.883 193.668C208.883 204.695 203.059 210.18 193.175 212.549C192.85 214.439 185.758 215.694 177.057 215.694C168.752 215.694 161.913 214.551 161.024 212.803C151.549 210.786 145.203 205.738 145.203 193.668Z" fill="#65B49C"/>
<path d="M174.508 161.729C174.508 163.125 175.636 165.762 177.032 165.762C178.428 165.762 179.556 163.125 179.556 161.729C179.556 160.333 178.428 159.205 177.032 159.205C175.636 159.205 174.508 160.333 174.508 161.729Z" fill="#65B49C"/>
<path d="M178.483 161.871C178.399 161.871 178.342 161.815 178.342 161.73C178.342 161.011 177.75 160.419 177.031 160.419C176.312 160.419 175.72 161.011 175.72 161.73C175.72 161.815 175.663 161.871 175.579 161.871C175.494 161.871 175.438 161.815 175.438 161.73C175.438 160.856 176.157 160.137 177.031 160.137C177.905 160.137 178.624 160.856 178.624 161.73C178.624 161.801 178.568 161.871 178.483 161.871Z" fill="white"/>
<path d="M177.032 175.747C171.152 175.747 164.229 174.985 164.158 174.985C164.088 174.971 164.031 174.901 164.031 174.83C164.045 174.76 164.102 174.703 164.186 174.703C164.257 174.717 171.152 175.465 177.018 175.465C182.884 175.465 189.484 174.703 189.554 174.703C189.639 174.689 189.695 174.746 189.709 174.83C189.723 174.901 189.667 174.971 189.582 174.985C189.526 174.985 182.927 175.747 177.032 175.747Z" fill="white"/>
<path d="M176.618 213.381C171.147 213.381 164.393 212.563 164.322 212.563C164.252 212.549 164.195 212.479 164.195 212.408C164.209 212.338 164.28 212.281 164.35 212.281C164.421 212.296 171.161 213.099 176.618 213.099C182.075 213.099 189.648 212.281 189.718 212.281C189.789 212.267 189.859 212.324 189.873 212.408C189.887 212.479 189.831 212.549 189.746 212.563C189.676 212.563 182.075 213.381 176.618 213.381Z" fill="white"/>
<path d="M133.618 176.762C132.377 176.762 130.375 176.212 129.867 176.071C129.797 176.043 129.754 175.972 129.768 175.902C129.797 175.831 129.867 175.789 129.938 175.803C131.446 176.24 133.97 176.762 134.323 176.339C134.45 176.198 134.422 176.113 134.408 176.085C134.337 175.86 133.829 175.662 133.533 175.592C133.463 175.578 133.406 175.493 133.435 175.423C133.449 175.352 133.533 175.296 133.604 175.324C133.702 175.352 134.534 175.549 134.69 176.001C134.732 176.128 134.746 176.311 134.563 176.537C134.408 176.706 134.069 176.762 133.618 176.762Z" fill="white"/>
<path d="M202.323 190.976C203.028 198.323 208.527 203.794 214.591 203.216C218.905 202.807 222.36 199.437 223.728 194.896C224.292 193.049 224.504 191.005 224.306 188.875C223.601 181.529 218.102 176.058 212.038 176.636C209.81 176.847 207.808 177.848 206.2 179.399C203.451 182.065 201.886 186.337 202.323 190.976ZM209.415 181.444C213.491 181.049 217.171 184.659 217.636 189.496C218.102 194.332 215.169 198.577 211.093 198.972C207.018 199.366 206.144 195.489 205.679 190.652C205.227 185.815 205.34 181.839 209.415 181.444Z" fill="#65B49C"/>
<path d="M171.098 208.898C183.293 208.898 193.18 202.079 193.18 193.669C193.18 185.258 183.293 178.439 171.098 178.439C158.902 178.439 149.016 185.258 149.016 193.669C149.016 202.079 158.902 208.898 171.098 208.898Z" fill="#7FCBB4"/>
<path d="M206.219 179.398C216.625 174.97 224.395 187.633 223.746 194.881C224.31 193.034 224.522 190.989 224.324 188.86C223.619 181.513 218.12 176.042 212.057 176.62C209.815 176.846 207.812 177.847 206.219 179.398Z" fill="#7FCBB4"/>
<path d="M171.013 197.138C170.957 197.138 170.9 197.152 170.844 197.152C170.266 197.124 169.801 196.644 169.829 196.052C169.857 195.474 170.336 195.009 170.929 195.037L176.047 195.22C176.033 194.783 176.033 194.346 176.033 193.909C176.019 193.218 176.019 192.527 176.019 191.836C175.991 191.089 176.132 190.341 176.654 189.763C176.964 189.481 177.232 190.087 177.359 190.285C177.528 190.623 177.613 190.962 177.641 191.314C177.655 192.626 177.641 193.951 177.613 195.262L183.352 195.474C183.38 195.474 183.408 195.502 183.408 195.53C183.408 195.573 183.394 195.601 183.352 195.601L177.584 196.32C177.57 196.898 177.556 197.476 177.542 198.04C177.443 200.804 177.302 203.568 177.006 206.332C176.978 206.543 176.682 206.529 176.654 206.332C176.315 203.06 176.16 199.789 176.076 196.503L171.013 197.138ZM179.558 199.521C179.601 199.606 179.657 199.676 179.714 199.747L183.746 204.301C183.817 204.386 183.972 204.301 183.916 204.188L181.321 198.689C181.095 198.21 180.517 197.998 180.024 198.224C179.53 198.463 179.333 199.042 179.558 199.521ZM169.688 202.045C169.321 202.412 169.335 203.018 169.702 203.371C170.069 203.737 170.675 203.723 171.027 203.356C171.084 203.3 171.14 203.215 171.182 203.145L174.003 197.913C174.059 197.815 173.918 197.716 173.848 197.801L169.688 202.045ZM184.705 185.857C185.001 185.829 185.467 185.885 185.749 185.73C185.833 185.688 185.833 185.547 185.749 185.49C185.467 185.321 185.016 185.378 184.705 185.364C184.113 185.349 182.59 185.293 181.801 185.279C181.843 184.715 181.871 184.151 181.772 183.587C181.744 183.389 181.547 183.248 181.349 183.291C181.194 183.319 181.081 183.446 181.053 183.587C180.983 183.953 180.983 184.334 180.997 184.701C181.011 184.884 181.011 185.067 181.025 185.251C178.811 185.18 176.174 185.11 173.664 185.039C173.664 184.926 173.678 184.814 173.678 184.701C173.678 184.32 173.664 183.953 173.537 183.587C173.425 183.248 172.931 183.248 172.818 183.587C172.663 184.052 172.663 184.532 172.691 185.025C171.422 184.997 170.21 184.969 169.11 184.941C168.743 184.926 168.433 185.223 168.419 185.603C168.405 185.984 168.729 186.308 169.11 186.294C169.11 186.294 172.057 186.224 172.79 186.21C172.846 186.83 172.931 187.451 173.058 188.057C173.086 188.184 173.269 188.184 173.298 188.057C173.382 187.69 173.439 187.31 173.481 186.943C173.509 186.689 173.537 186.449 173.566 186.196C175.751 186.139 178.585 186.055 181.067 185.984C181.095 186.308 181.124 186.633 181.152 186.943C181.194 187.31 181.236 187.69 181.293 188.057C181.307 188.127 181.363 188.17 181.42 188.156C181.476 188.141 181.518 188.113 181.518 188.057C181.617 187.352 181.688 186.661 181.744 185.956C182.421 185.942 183.07 185.914 183.648 185.899L184.705 185.857ZM169.448 194.769C172.24 193.359 174.708 190.849 176.583 188.311C176.668 188.466 176.752 188.607 176.851 188.762C178.261 190.948 180.235 192.696 182.308 194.247C182.661 194.515 182.999 194.755 183.38 194.995C184.409 195.601 185.298 194.12 184.268 193.5C182.858 192.71 181.504 191.78 180.264 190.736C179.037 189.707 177.88 188.55 177.091 187.154C176.922 186.844 176.484 186.816 176.259 187.084C176.005 187.394 175.737 187.718 175.455 188.029C173.819 189.862 171.986 191.568 169.843 192.752C169.49 192.95 169.138 193.119 168.771 193.274C167.756 193.754 168.419 195.22 169.448 194.769Z" fill="#65B49C"/>
<path d="M43.5304 152.434C45.7234 153.231 47.717 155.025 50.1094 154.627C52.3024 154.228 53.4986 151.636 54.8942 149.842C57.2865 146.652 61.2738 144.658 65.2611 144.06C69.2484 143.462 73.435 144.26 77.223 145.655C80.2134 146.652 83.4033 148.247 86.3937 147.449C87.9886 147.051 89.1848 146.253 90.7797 145.655C96.3619 143.263 103.34 144.858 107.327 149.244C108.124 150.041 108.723 151.038 109.719 151.835C113.906 155.025 120.884 151.237 124.871 154.627C127.064 156.421 127.463 159.81 126.665 162.402C125.868 165.193 124.074 167.386 122.279 169.579C117.893 175.161 113.308 180.544 108.922 186.126C107.526 187.721 106.33 189.515 104.536 190.512C102.343 192.107 99.5518 192.705 96.96 193.104C84.5994 195.696 72.0395 198.487 59.4795 197.091C54.8942 196.692 50.1094 195.297 47.5177 191.708C46.1221 189.715 45.7234 187.123 44.9259 184.93C43.7298 180.943 41.5368 177.155 39.3437 173.566C36.9514 169.579 32.9641 164.994 33.1635 160.209C33.1635 153.231 37.9482 152.434 43.5304 152.434Z" fill="#E64455"/>
<path d="M94.9663 147.848C97.5581 148.446 99.7511 150.041 101.545 151.835C102.742 153.031 103.738 154.427 105.333 154.825C106.928 155.423 108.922 155.025 110.716 155.025C112.51 155.025 114.504 155.423 115.302 157.018C115.9 158.414 115.102 160.208 113.906 161.006C112.71 161.803 111.115 162.002 109.52 162.002C107.925 162.002 106.33 161.803 105.134 162.8C104.336 163.597 103.938 164.594 103.34 165.591C102.542 167.186 101.346 168.781 99.7511 169.379C99.153 169.578 98.5549 169.778 98.1562 169.578C97.5581 169.379 97.1593 168.781 96.96 167.983C96.3619 166.189 96.3619 164.195 96.5613 162.401C96.7606 160.607 96.7606 158.613 95.7638 156.819C94.9663 155.224 92.7733 153.828 91.1784 154.626C90.7797 154.825 90.381 155.025 89.9822 155.025C89.5835 155.025 89.3841 154.626 89.1848 154.427C87.5899 152.433 86.7924 151.037 88.9854 149.044C90.1816 148.047 92.9727 147.449 94.9663 147.848Z" fill="#F34D60"/>
<path d="M40.1416 164.395C41.5372 166.787 44.3283 168.382 46.7206 167.186C47.7175 166.787 48.5149 165.99 49.5117 166.189C51.306 166.588 51.306 169.579 52.9009 170.575C54.2965 171.572 56.2901 170.177 57.885 170.775C60.6761 171.772 60.4768 177.154 63.2679 177.952C64.4641 178.151 65.4609 177.553 66.2583 176.556C67.0558 175.759 67.6539 174.563 68.252 173.566C70.8437 169.579 76.0272 167.984 80.2138 169.778C81.2107 170.177 82.2075 170.775 83.2043 170.575C84.2011 170.376 84.9986 169.579 85.5967 168.98C86.3941 168.183 87.391 167.385 88.5871 167.186C89.7833 166.987 90.9795 167.186 91.777 167.984C92.9732 169.379 92.1757 171.572 92.5744 173.366C93.3719 176.556 97.1598 177.752 100.15 176.756C103.141 175.759 105.134 173.167 107.527 170.974C108.922 169.579 110.517 168.382 112.311 168.781C113.109 168.98 113.707 169.379 114.505 169.579C115.701 169.778 116.897 168.781 117.694 167.784C118.492 166.787 119.09 165.392 120.087 164.594C120.286 164.395 120.685 164.196 121.084 164.196C122.28 164.196 122.28 165.99 122.08 167.186C119.688 174.961 112.112 179.347 107.925 186.126C106.53 188.319 105.533 190.711 103.739 192.705C102.144 194.499 100.15 195.695 97.9573 196.493C93.5712 198.088 88.5871 197.888 84.0018 197.091C79.4164 196.293 74.831 194.898 70.0463 194.3C66.4577 193.901 62.8691 193.901 59.48 192.904C56.8882 192.107 54.2965 190.711 51.9041 189.316C50.3092 188.518 48.9136 187.521 47.7175 186.126C46.92 185.129 46.3219 183.933 45.5245 182.737C43.1321 178.55 39.9423 174.961 37.5499 170.775C35.1575 166.588 33.5626 161.405 34.9581 156.62C35.1575 156.221 37.3505 156.62 37.5499 156.819C38.3473 157.417 38.148 157.816 38.3473 158.813C38.5467 160.607 38.9454 162.601 40.1416 164.395Z" fill="#CA505E"/>
<path d="M117.698 186.922C117.498 189.514 116.501 191.707 116.501 191.707L78.4227 189.713L60.6793 190.71L48.9168 191.308L44.7302 191.508L40.5435 191.707C40.5435 191.707 40.3442 191.508 40.3442 190.909C40.1448 190.112 39.7461 188.517 39.5467 186.922C39.3473 184.33 41.1416 180.144 41.1416 180.144H52.7048C52.7048 180.144 54.499 185.327 64.0685 185.327C73.638 185.327 74.0367 174.761 74.0367 174.761V173.166L78.8215 173.963L83.6062 173.166V174.761C83.6062 174.761 84.0049 185.327 93.5744 185.327C103.144 185.327 104.938 180.144 104.938 180.144H116.501C116.501 180.144 116.9 181.34 117.498 182.736C117.498 184.131 117.897 185.726 117.698 186.922Z" fill="#F2D065"/>
<path d="M115.299 193.102H42.1328V206.658H115.299V193.102Z" fill="#EFC745"/>
<path d="M73.436 130.702C73.436 130.702 73.0373 130.702 72.4392 130.702C71.8411 130.702 71.243 130.702 70.2462 130.702C70.0468 130.702 69.8474 130.702 69.6481 130.702C68.4519 130.702 66.857 131.101 65.2621 131.3C63.6671 131.699 61.6735 132.098 59.6799 132.496C57.6862 133.094 55.6926 133.692 53.4996 134.49C51.3066 135.287 49.3129 136.085 47.3193 137.082C45.3256 138.078 43.5313 139.275 41.9364 140.471C32.5663 147.648 34.7593 160.009 39.9428 167.983C40.1422 168.382 40.3415 168.581 40.5409 168.98C40.7402 169.179 40.9396 169.578 40.9396 169.578C41.139 169.777 41.139 169.977 41.139 169.977C41.139 169.977 41.139 169.977 41.139 170.176L38.946 171.771L37.5504 173.167C37.5504 173.167 37.3511 173.167 37.1517 172.967C36.9523 172.967 36.753 172.768 36.3542 172.568C35.5568 172.17 34.7593 171.771 33.5631 171.173C32.965 170.774 32.3669 170.375 31.7689 169.977C31.3701 169.578 30.5727 169.179 29.9746 168.581C29.5758 168.382 29.3765 167.983 28.9778 167.784C28.579 167.584 28.3797 167.186 27.9809 166.787C27.5822 166.388 27.3828 166.189 26.9841 165.79C26.7847 165.391 26.386 164.993 26.1866 164.594C25.9873 164.195 25.5886 163.796 25.3892 163.398C25.1898 162.999 24.7911 162.6 24.5917 162.202C24.193 161.404 23.7943 160.407 23.3956 159.41C22.9968 158.414 22.7975 157.417 22.3987 156.42C22.3987 155.822 22.1994 155.423 22.1994 154.825C22.1994 154.626 22.1994 154.227 22 154.028V153.629V153.23C22 152.632 22 152.034 22 151.635C22 151.436 22 151.037 22 150.838V150.439V150.04C22 149.642 22 149.044 22.1994 148.645V147.847V147.449V147.249V147.05V146.85C22.3987 145.654 22.7975 144.458 23.3956 143.262C23.9936 141.866 24.9905 140.67 26.1866 139.474C28.3797 137.281 30.9714 135.487 33.7625 134.291C36.5536 132.895 39.5441 131.898 42.3352 131.3C45.1263 130.503 47.9174 129.905 50.5091 129.506C53.1008 129.107 55.4932 128.708 57.8856 128.509C60.0786 128.31 62.2716 128.11 64.0659 127.911C65.8601 127.712 67.4551 127.712 68.8506 127.512C70.0468 127.313 71.243 127.113 71.8411 127.113C72.2398 127.113 72.4392 126.914 72.6385 126.914C72.8379 126.914 72.8379 126.914 72.8379 126.914L73.436 130.702Z" fill="#F2D065"/>
<path d="M84.996 146.451C84.996 148.246 84.7967 149.841 84.5973 151.635C84.5973 152.034 84.5973 152.233 84.3979 152.632C84.1986 153.629 83.9992 154.426 83.7998 155.423C83.7998 155.622 83.6005 155.822 83.6005 156.021C83.6005 156.22 83.4011 156.42 83.4011 156.619C83.2017 157.018 83.2017 157.416 83.0024 157.815C82.803 158.214 82.803 158.613 82.6036 159.011C82.4043 159.41 82.4043 159.609 82.2049 160.008C82.0056 160.407 82.0056 160.606 81.8062 160.806C81.6068 161.005 81.6068 161.404 81.4075 161.603C81.0087 162.401 80.61 162.999 80.61 162.999H73.4329C73.4329 162.999 73.0342 162.401 72.6354 161.603C72.4361 161.204 72.0373 160.606 71.838 160.008C71.6386 159.609 71.6386 159.41 71.4392 159.011C71.4392 158.812 71.4392 158.812 71.2399 158.613C71.2399 158.413 71.0405 158.214 71.0405 157.815C70.8412 157.416 70.8412 157.018 70.6418 156.619C70.4424 156.22 70.4424 155.822 70.2431 155.423C70.0437 154.625 69.8443 153.629 69.645 152.632C69.2462 150.638 69.0469 148.644 69.0469 146.651C69.0469 144.657 69.0469 142.464 69.4456 140.67C69.645 139.274 70.0437 137.879 70.4424 136.683C70.6418 136.284 70.6418 135.686 70.8412 135.287C71.0405 134.49 71.4392 133.891 71.6386 133.094C72.0373 132.496 72.2367 131.898 72.4361 131.499C73.0342 130.702 73.4329 130.104 73.4329 130.104H80.61C80.61 130.104 81.0087 130.702 81.6068 131.499C81.8062 131.898 82.2049 132.496 82.4043 133.094C82.6036 133.692 83.0024 134.49 83.2017 135.287C83.7998 136.882 84.1986 138.676 84.5973 140.47C84.7967 142.265 84.996 144.458 84.996 146.451Z" fill="#F2D065"/>
<path d="M134.643 150.04V150.439C134.643 150.639 134.643 151.037 134.643 151.237C134.643 151.635 134.643 151.835 134.643 152.233C134.643 152.433 134.643 152.632 134.643 152.832V153.23V153.629C134.643 153.828 134.643 154.227 134.444 154.426C134.444 155.025 134.244 155.423 134.244 156.021C134.045 157.018 133.646 158.015 133.248 159.012C132.849 160.009 132.45 160.806 132.051 161.803C131.852 162.202 131.453 162.6 131.254 162.999C131.055 163.398 130.656 163.797 130.457 164.195C130.257 164.594 129.858 164.993 129.659 165.392C129.46 165.79 129.061 166.189 128.662 166.388C128.264 166.787 128.064 166.986 127.665 167.385C127.267 167.784 127.067 167.983 126.669 168.183C126.07 168.781 125.472 169.179 124.874 169.578C124.276 169.977 123.678 170.376 123.08 170.774C121.884 171.372 121.086 171.971 120.289 172.17C119.89 172.369 119.691 172.369 119.491 172.569C119.292 172.569 119.093 172.768 119.093 172.768L115.305 169.778C115.305 169.778 115.305 169.778 115.305 169.578C115.305 169.578 115.504 169.379 115.504 169.179C115.704 168.98 115.704 168.781 115.903 168.581C116.102 168.382 116.302 167.983 116.501 167.585C121.684 159.61 123.877 147.249 114.707 140.272C113.112 139.075 111.318 137.879 109.324 136.882C107.33 135.886 105.137 134.889 103.144 134.291C100.951 133.493 98.957 132.895 96.9633 132.297C94.9697 131.699 93.1754 131.3 91.3811 131.101C89.7862 130.702 88.1913 130.503 86.9951 130.503C86.397 130.503 85.9983 130.503 85.4002 130.503C84.8021 130.503 84.4034 130.503 84.0046 130.503C83.4065 130.503 83.0078 130.503 83.0078 130.503L83.2072 129.107L83.4065 128.11L83.6059 126.715C83.6059 126.715 83.6059 126.715 83.8053 126.715C84.0046 126.715 84.204 126.715 84.6027 126.914C85.4002 127.114 86.397 127.313 87.5932 127.313C88.7894 127.512 90.3843 127.712 92.3779 127.712C94.1722 127.911 96.1659 128.11 98.5582 128.31C100.751 128.509 103.343 128.908 105.935 129.307C108.526 129.705 111.318 130.303 114.109 131.101C116.9 131.898 119.89 132.895 122.681 134.091C125.472 135.487 128.264 137.281 130.257 139.275C132.45 141.468 133.846 144.06 134.244 146.651V146.851V147.05V147.249V147.648V148.446C134.244 148.844 134.244 149.442 134.444 149.841L134.643 150.04Z" fill="#F2D065"/>
<path d="M85.003 146.452C85.003 148.445 84.8036 150.638 84.4049 152.433C84.2055 153.429 84.0061 154.227 83.8068 155.224C83.8068 155.423 83.6074 155.622 83.6074 155.822C84.0061 152.233 84.0061 148.844 83.8068 145.255C83.6074 143.262 83.408 141.069 82.6106 139.275C81.8131 137.281 80.6169 135.686 78.8227 134.689C76.829 133.692 74.0379 133.692 72.0443 134.889C71.4462 135.287 70.8481 135.686 70.25 136.284C70.4494 135.885 70.4494 135.287 70.6487 134.889C70.8481 134.091 71.2468 133.493 71.4462 132.696C71.8449 132.097 72.0443 131.499 72.2436 131.101C72.8417 130.303 73.2405 129.705 73.2405 129.705H80.4176C80.4176 129.705 80.8163 130.303 81.4144 131.101C81.6138 131.499 82.0125 132.097 82.2119 132.696C82.4112 133.294 82.81 134.091 83.0093 134.889C83.6074 136.483 84.0061 138.278 84.4049 140.072C84.8036 142.265 85.003 144.458 85.003 146.452Z" fill="#E9C245"/>
<path d="M71.4423 130.7C71.243 130.7 71.0436 130.7 70.6449 130.7C69.4487 130.7 67.8538 131.099 66.0595 131.298C64.2652 131.697 62.471 132.096 60.4773 132.495C58.4837 133.093 56.2907 133.691 54.0977 134.488C52.104 135.286 49.911 136.283 47.718 137.279C45.7244 138.276 43.7307 139.472 42.1358 140.669C34.56 146.251 34.56 155.222 37.7498 162.798C38.5472 164.592 39.3447 166.387 40.5409 167.982C40.7402 168.38 40.9396 168.58 41.139 168.978C41.3383 169.178 41.5377 169.576 41.5377 169.576C41.7371 169.776 41.7371 169.975 41.7371 169.975C41.7371 169.975 41.7371 169.975 41.7371 170.175L39.5441 171.769C38.946 172.168 38.1485 172.567 37.3511 172.966C37.1517 172.966 36.753 172.766 36.5536 172.567C35.9555 172.368 34.9587 171.969 33.9619 171.171C33.3638 170.773 32.7657 170.374 32.1676 169.975C31.5695 169.576 30.9714 168.978 30.1739 168.58C29.7752 168.38 29.5758 167.982 29.1771 167.782C28.9778 167.583 28.7784 167.383 28.3797 166.985L28.1803 166.785C27.7816 166.387 27.5822 166.187 27.1835 165.788C26.9841 165.39 26.5854 164.991 26.386 164.592C25.9873 164.194 25.7879 163.795 25.5886 163.396C25.3892 162.997 24.9905 162.599 24.7911 162.2C24.193 161.402 23.9936 160.406 23.3956 159.409C22.9968 158.412 22.7975 157.415 22.3987 156.418C22.3987 155.82 22.1994 155.422 22.1994 154.823C22.1994 154.624 22.1994 154.225 22 154.026V153.627V153.229C22 152.63 22 152.032 22 151.634C22 151.434 22 151.036 22 150.836V150.437V150.039C22 149.64 22 149.042 22.1994 148.643V147.846V147.447V147.248V147.048V146.849C22.3987 145.653 22.7975 144.457 23.3956 143.26C22.7975 144.457 22.3987 145.852 22.3987 147.248C22 151.634 22.9968 156.219 25.9873 159.409C26.9841 160.605 28.579 161.402 29.9746 160.804C30.772 160.406 31.1708 159.608 31.5695 158.811C34.7593 152.232 33.3638 144.855 39.1453 139.472C46.3224 132.893 57.8856 130.501 67.2557 129.105C68.8506 129.105 71.0436 129.305 71.4423 130.7Z" fill="#E9C245"/>
<path d="M134.441 152.432C134.441 152.631 134.441 152.831 134.441 153.03V153.429V153.827C134.441 154.027 134.441 154.425 134.242 154.625C134.242 155.223 134.042 155.622 134.042 156.22C133.843 157.217 133.444 158.213 133.045 159.21C132.647 160.207 132.248 161.004 131.849 162.001C131.65 162.4 131.251 162.799 131.052 163.197C130.852 163.596 130.454 163.995 130.254 164.394C130.055 164.792 129.656 165.191 129.457 165.59C129.257 165.989 128.859 166.387 128.46 166.587C128.061 166.985 127.862 167.185 127.463 167.584C127.463 167.584 127.463 167.584 127.264 167.783C127.064 167.982 126.666 168.182 126.466 168.58C125.868 169.178 125.27 169.577 124.672 169.976C124.074 170.375 123.476 170.773 122.878 171.172C121.682 171.77 120.884 172.368 120.087 172.568C119.688 172.767 119.489 172.767 119.289 172.966C119.09 172.966 118.89 173.166 118.89 173.166L115.103 170.175C115.103 170.175 115.103 170.175 115.103 169.976C115.103 169.976 115.302 169.777 115.302 169.577C115.501 169.378 115.501 169.178 115.701 168.979C115.9 168.78 116.099 168.381 116.299 167.982C117.096 166.786 117.694 165.59 118.292 164.194C121.881 156.419 122.28 146.451 114.504 140.47C112.91 139.274 111.115 138.078 109.122 137.081C107.128 136.084 104.935 135.087 102.941 134.489C100.748 133.692 98.7547 133.093 96.7611 132.495C94.7674 131.897 92.9731 131.499 91.1789 131.299C89.5839 130.9 87.989 130.701 86.7928 130.701C86.1948 130.701 85.796 130.701 85.1979 130.701C84.5998 130.103 83.8024 129.704 83.0049 129.306C82.8056 129.306 82.6062 129.106 82.4068 129.106C82.0081 128.907 81.6094 128.907 81.6094 128.309C81.6094 128.109 82.2075 128.109 83.2043 128.109C85.3973 128.309 89.3846 129.306 89.7833 129.306C92.7738 130.103 95.5649 130.502 98.356 131.1C104.935 132.495 110.916 134.29 116.099 139.872C119.09 143.062 121.083 146.85 122.878 150.638C123.875 152.631 125.27 156.419 127.663 157.416C130.454 158.413 132.846 155.422 133.843 153.229C134.242 152.831 134.441 152.631 134.441 152.432Z" fill="#E9C245"/>
<path d="M86.5883 95.4141L81.8036 104.385H72.8322L67.25 95.4141H86.5883Z" fill="#E6A73F"/>
<path d="M91.5776 116.546L89.9827 115.749L81.6094 112.16V104.185L88.9859 100.398L91.5776 99.002V116.546Z" fill="#E6A73F"/>
<path d="M73.2338 104.185V112.16L63.6644 116.347L63.2656 116.546V99.002L65.4586 100.198L73.2338 104.185Z" fill="#E6A73F"/>
<path d="M85.7935 119.138C85.7935 123.325 82.0056 126.714 77.4202 126.714C72.8348 126.714 69.0469 123.325 69.0469 119.138C69.0469 118.74 69.0469 118.341 69.0469 117.942C69.645 114.354 73.0342 111.562 77.2208 111.562C77.8189 111.562 78.417 111.562 79.0151 111.762C83.0024 112.559 85.7935 115.55 85.7935 119.138Z" fill="#E6A73F"/>
<path d="M71.4387 124.521L69.8438 131.499H84.9954L83.2012 124.521H71.4387Z" fill="#CE963B"/>
<path d="M85.7935 119.138C85.7935 123.325 82.0056 126.714 77.4202 126.714C72.8348 126.714 69.0469 123.325 69.0469 119.138C69.0469 118.739 69.0469 118.341 69.0469 117.942C69.645 119.936 71.0405 121.73 73.0342 122.527C76.0246 123.724 79.8125 122.328 81.6068 119.537C82.2049 118.54 82.6036 117.145 82.4043 115.948C82.2049 114.952 81.4075 114.154 80.8094 113.357C80.2113 112.759 79.8125 112.16 79.2145 111.762C83.0024 112.559 85.7935 115.55 85.7935 119.138Z" fill="#AA8343"/>
<path d="M127.263 167.385C127.063 167.585 126.665 167.784 126.465 168.183C125.867 168.781 125.269 169.18 124.671 169.578C124.073 169.977 123.475 170.376 122.877 170.775C121.681 171.373 120.883 171.971 120.086 172.17C119.687 172.37 119.488 172.37 119.288 172.569C119.089 172.569 118.889 172.768 118.889 172.768L115.102 169.778C115.102 169.778 115.102 169.778 115.102 169.578C115.102 169.578 115.301 169.379 115.301 169.18C115.5 168.98 115.5 168.781 115.7 168.582C115.899 168.382 116.098 167.984 116.298 167.585C117.095 166.389 117.693 165.192 118.291 163.797C119.089 165.392 119.687 166.588 121.88 167.186C123.874 167.784 125.668 167.585 127.263 167.385Z" fill="#CFAE41"/>
<path d="M41.7402 170.175L39.5472 171.77C38.9491 172.169 38.1517 172.568 37.3542 172.966C37.1548 172.966 36.7561 172.767 36.5567 172.568C35.9587 172.368 34.9618 171.97 33.965 171.172C33.3669 170.773 32.7688 170.375 32.1707 169.976C31.5726 169.577 30.9745 168.979 30.1771 168.58C29.7784 168.381 29.579 167.982 29.1803 167.783C28.9809 167.584 28.7815 167.384 28.3828 166.985C30.9745 167.584 33.3669 167.584 35.3606 165.191C35.9587 164.593 36.3574 163.796 36.9555 163.198C37.1548 162.998 37.3542 162.799 37.5536 162.799C38.351 164.593 39.1485 166.387 40.3447 167.982C40.544 168.381 40.7434 168.58 40.9428 168.979C41.1421 169.178 41.3415 169.577 41.3415 169.577C41.5409 169.777 41.7402 169.976 41.7402 170.175Z" fill="#CFAE41"/>
<path d="M56.6878 182.536H55.8904L47.7164 181.34L45.5234 174.363L51.9031 167.385V167.584L56.6878 182.536Z" fill="#E6A73F"/>
<path d="M84.4014 151.635C84.4014 152.033 84.4014 152.233 84.202 152.632C84.0027 153.628 83.8033 154.426 83.6039 155.423C83.6039 155.622 83.4046 155.821 83.4046 156.021C83.4046 156.22 83.2052 156.42 83.2052 156.619C83.0058 157.018 83.0058 157.416 82.8065 157.815C82.6071 158.214 82.6071 158.613 82.4078 159.011C82.2084 159.41 82.2084 159.609 82.009 160.008C81.8097 160.407 81.8097 160.606 81.6103 160.806C80.4141 161.204 79.2179 161.204 78.0217 161.005C75.6294 160.806 73.237 159.809 71.2434 158.613C71.2434 158.413 71.044 158.214 71.044 157.815C70.8446 157.416 70.8446 157.018 70.6453 156.619C70.4459 156.22 70.4459 155.821 70.2465 155.423C70.0472 154.625 69.8478 153.628 69.6484 152.632C70.2465 153.23 70.8446 153.828 71.6421 154.227C73.0376 155.024 74.6325 155.223 76.0281 155.223C79.0186 155.024 82.2084 154.027 84.4014 151.635Z" fill="#CFAE41"/>
<path d="M86.9946 156.221L82.4092 166.189H73.4378L67.6562 156.221H86.9946Z" fill="#E6A73F"/>
<path d="M91.976 178.948L86.7926 176.356L82.0078 174.163V165.391L90.3811 160.407L91.976 159.609V178.948Z" fill="#E6A73F"/>
<path d="M73.6323 165.989V174.96L65.8571 178.549L63.6641 179.545V160.207L68.2494 162.799L73.6323 165.989Z" fill="#E6A73F"/>
<path d="M71.4442 146.053C71.6436 147.848 72.0423 150.041 73.4378 151.037C74.4347 151.835 76.0296 152.034 77.4251 152.034C77.8238 152.034 78.4219 152.034 78.8207 151.835C79.2194 151.636 79.6181 151.237 79.8175 150.838C81.6118 148.047 82.0105 144.458 81.4124 141.069C81.213 140.072 81.0137 139.076 80.4156 138.278C79.02 136.285 75.0327 134.69 73.0391 136.484C70.8461 138.677 71.2448 143.462 71.4442 146.053Z" fill="#FBE087"/>
<path d="M29.5773 138.877C26.9855 141.269 25.3906 144.658 25.3906 148.048C25.3906 150.44 26.5868 152.832 28.5805 153.829C28.9792 154.029 29.3779 154.029 29.7766 154.029C30.1754 153.829 30.3747 153.63 30.3747 153.231C33.5646 148.247 33.5646 141.469 37.9506 137.481C40.1436 135.488 39.5455 133.893 36.7544 134.69C34.362 135.288 31.5709 137.083 29.5773 138.877Z" fill="#FBE087"/>
<path d="M127.267 138.877C129.859 141.269 131.454 144.658 131.454 148.048C131.454 150.44 130.257 152.832 128.264 153.829C127.865 154.029 127.466 154.029 127.068 154.029C126.669 153.829 126.469 153.63 126.469 153.231C123.28 148.247 123.28 141.469 118.894 137.481C116.701 135.488 117.299 133.893 120.09 134.69C122.482 135.288 125.273 137.083 127.267 138.877Z" fill="#FBE087"/>
<path d="M86.9946 156.221L82.2098 166.189H73.2385L67.6562 156.221H69.4505C69.6499 156.819 69.8493 157.218 70.0486 157.417C71.6435 159.809 74.8334 160.806 77.8238 160.208C80.4156 159.61 82.8079 158.015 84.6022 156.221H86.9946Z" fill="#DDA243"/>
<path d="M90.3852 160.406C89.3883 161.602 87.7934 162.4 86.7966 163.795C85.6004 165.59 84.803 167.783 84.6036 169.976C84.6036 172.368 85.2017 174.561 86.3979 176.555L81.8125 174.362V165.39L90.3852 160.406Z" fill="#DDA243"/>
<path d="M73.6346 165.989V174.96L65.8594 178.549C65.8594 177.153 67.2549 176.156 68.0524 175.16C70.046 173.166 71.0428 170.175 70.4448 167.185C70.2454 165.59 69.2486 163.995 68.2517 162.6L73.6346 165.989Z" fill="#DDA243"/>
<path d="M84.0006 169.976C84.0006 173.166 81.4089 175.757 78.2191 175.757C75.0292 175.757 72.4375 173.166 72.4375 169.976C72.4375 166.786 75.0292 164.194 78.2191 164.194C81.4089 163.995 84.0006 166.587 84.0006 169.976Z" fill="#D34C5B"/>
<path d="M81.8099 169.975C81.8099 171.969 80.215 173.564 78.2214 173.564C76.2277 173.564 74.6328 171.969 74.6328 169.975C74.6328 167.982 76.2277 166.387 78.2214 166.387C80.215 166.387 81.8099 167.982 81.8099 169.975Z" fill="#F2D065"/>
<path d="M74.0359 156.818C73.6372 156.818 73.0391 157.017 73.0391 157.416C73.0391 157.615 73.0391 158.014 73.2384 158.213C73.8365 159.011 74.8333 159.41 75.8302 159.609C76.827 159.808 77.8238 159.609 78.8206 159.21C80.2162 158.811 80.8143 157.416 79.2194 156.818C78.0232 156.02 75.8302 156.419 74.0359 156.818Z" fill="#EAA73B"/>
<path d="M86.9922 168.78C86.9922 169.977 86.9922 171.173 87.3909 172.17C87.7896 172.967 88.3877 173.565 89.1852 173.366C89.9827 173.167 90.3814 172.369 90.5808 171.572C90.9795 170.176 90.9795 168.78 90.9795 167.385C90.9795 166.388 91.1788 163.597 90.182 163.198C88.1884 161.803 86.9922 167.584 86.9922 168.78Z" fill="#EAA73B"/>
<path d="M64.6672 169.976C64.6672 171.172 65.0659 172.568 66.0627 173.365C66.2621 173.564 66.4615 173.564 66.6608 173.564C66.8602 173.564 67.2589 173.365 67.2589 173.166C68.6545 171.571 69.4519 166.587 67.4583 165.191C64.4678 162.799 64.4678 168.381 64.6672 169.976Z" fill="#EAA73B"/>
<path d="M74.4339 115.55C74.2345 115.55 73.8358 115.749 73.6364 115.749C73.4371 115.948 73.2377 116.148 73.0383 116.347C72.0415 117.543 72.4402 119.537 73.4371 120.534C74.6333 121.531 76.4275 121.73 77.8231 121.132C79.2186 120.334 80.0161 118.939 80.2155 117.344C80.2155 116.945 80.2155 116.347 80.0161 115.948C79.0193 114.553 75.6301 115.151 74.4339 115.55Z" fill="#EAA73B"/>
<path d="M89.9827 115.749L81.6094 112.161V104.186L88.9859 100.398C88.7865 100.598 88.7865 100.598 88.5871 100.797C87.5903 101.993 86.7928 103.389 86.3941 104.984C85.9954 105.981 85.796 107.177 85.9954 108.174C86.1948 111.164 88.3878 113.357 89.9827 115.749Z" fill="#DDA243"/>
<path d="M86.5961 95.4141L81.8114 104.385H72.84L67.2578 95.4141H67.8559C69.0521 97.2083 70.0489 99.0026 72.2419 99.9994C74.2356 100.996 76.6279 101.395 78.8209 100.797C81.0139 100.199 83.0076 99.0026 84.4031 97.2083C85.0012 96.6102 85.4 96.0122 85.998 95.4141H86.5961Z" fill="#DDA243"/>
<path d="M73.2373 104.187V112.161L63.8672 116.148C63.8672 115.351 64.6646 114.952 65.2627 114.553C67.2564 113.158 68.8513 111.364 69.4494 109.171C70.2468 106.978 69.8481 104.386 68.4526 102.392C67.6551 101.395 66.6583 100.797 65.6615 100.199L73.2373 104.187Z" fill="#DDA243"/>
<path d="M84.0021 108.573C84.0021 111.962 81.0116 114.554 77.2237 114.554C73.4358 114.554 70.4453 111.763 70.4453 108.573C70.4453 105.184 73.4358 102.592 77.2237 102.592C81.0116 102.592 84.0021 105.383 84.0021 108.573Z" fill="#D34C5B"/>
<path d="M75.0292 104.585C73.6337 105.183 72.4375 106.579 72.4375 107.974C72.4375 108.971 72.8362 110.167 73.8331 110.765C74.8299 111.363 75.8267 111.563 77.0229 111.164C77.2222 111.164 77.2222 111.164 77.2222 110.965C77.2222 110.765 77.4216 110.765 77.4216 110.566C77.4216 109.769 77.4216 108.772 77.4216 107.974C77.4216 107.376 77.4216 106.579 78.0197 106.379C78.6178 106.18 79.2159 106.379 79.814 106.379C81.6083 106.18 80.6114 104.186 79.6146 103.788C78.4184 103.588 75.8267 104.186 75.0292 104.585Z" fill="#F34D60"/>
<path d="M74.8293 96.6102C74.4306 96.6102 74.0319 96.8096 73.6331 97.0089C73.2344 97.2083 73.035 97.607 72.8357 98.0058C72.6363 98.8032 73.4338 99.4013 74.2312 99.8C76.4242 100.597 78.8166 100.199 81.0096 99.2019C82.6045 98.6038 82.8039 96.6102 80.8102 96.4108C78.8166 96.0121 76.6236 96.4108 74.8293 96.6102Z" fill="#EAA73B"/>
<path d="M87.5909 109.568C87.7902 109.967 87.9896 110.166 88.189 110.365C88.5877 110.565 88.9864 110.365 89.3852 110.166C89.7839 109.767 89.7839 109.369 89.9832 108.97C90.382 107.574 90.382 106.179 90.382 104.584C90.382 103.986 90.1826 102.192 89.3852 101.992C88.5877 101.992 87.9896 103.388 87.7902 103.986C86.7934 105.78 86.7934 107.774 87.5909 109.568Z" fill="#EAA73B"/>
<path d="M64.8619 110.166C65.0612 110.366 65.46 110.764 65.8587 110.565C66.0581 110.565 66.0581 110.366 66.2574 110.366C67.2542 109.369 67.8523 107.774 67.8523 106.378C67.8523 105.182 67.653 102.79 66.0581 102.79C63.0676 102.591 63.8651 108.771 64.8619 110.166Z" fill="#EAA73B"/>
<path d="M50.7045 157.017C52.2994 157.615 54.293 158.014 55.6886 157.217C56.486 156.818 57.0841 156.02 57.6822 155.223C58.4797 154.027 59.4765 152.831 60.4733 151.834C61.2708 151.036 62.0683 150.239 63.0651 149.641C64.0619 149.242 65.4574 149.242 66.2549 150.04C67.6505 151.435 67.0524 153.827 65.6568 155.223C64.2613 156.619 62.467 157.815 61.6695 159.609C61.0714 161.005 61.0714 162.599 61.2708 164.194C61.4702 165.191 61.6695 166.188 61.4702 167.185C61.2708 168.381 60.274 169.577 59.0778 169.976C57.8816 170.375 56.486 169.976 55.4892 169.179C54.0937 167.982 54.0937 165.789 52.8975 164.394C51.9007 163.198 50.3058 162.4 48.7108 162.201C47.1159 161.802 45.521 161.802 43.9261 161.204C42.3312 160.805 40.9356 159.808 40.3375 158.413C37.7458 151.435 48.5115 156.22 50.7045 157.017Z" fill="#F34D60"/>
<path d="M47.5156 195.494C45.9207 197.089 44.7245 199.681 45.522 201.874C46.1201 204.067 47.9144 205.662 50.1074 206.459C50.3067 206.459 50.3067 206.459 50.5061 206.658H42.1328V193.102H51.1042C49.908 194.098 48.1137 195.095 47.5156 195.494Z" fill="#E9C245"/>
<path d="M115.301 193.104V206.66H72.0391C78.6181 206.062 85.1971 205.664 91.7761 205.664C96.9596 205.664 102.342 206.062 106.928 203.869C110.118 202.274 112.709 198.885 111.513 195.496C111.314 194.898 110.915 194.3 110.915 193.502C110.915 193.303 110.915 193.104 111.114 192.904H115.301V193.104Z" fill="#E9C245"/>
<path d="M119.684 209.251V210.447C119.684 212.44 118.089 214.035 116.096 214.035H41.9323C39.9387 214.035 38.3438 212.44 38.3438 210.447V209.251C38.3438 208.054 38.9418 207.058 39.7393 206.46C40.3374 205.861 41.1349 205.662 42.1317 205.662H116.495C117.89 205.662 119.086 206.46 119.684 207.656C119.684 208.054 119.684 208.653 119.684 209.251Z" fill="#E6A73F"/>
<path d="M119.684 209.25V210.446C119.684 212.44 118.089 214.035 116.096 214.035H41.9323C39.9387 214.035 38.3438 212.44 38.3438 210.446V209.25C38.3438 208.054 38.9418 207.057 39.7393 206.459C39.3406 207.855 39.3406 209.25 40.5368 210.247C42.5304 211.642 45.1221 211.244 47.3151 211.244C50.3056 211.244 53.4954 211.443 56.4859 211.443C62.4668 211.642 68.4478 212.241 74.4287 212.44C82.2039 212.639 89.7797 212.241 97.5549 211.642C104.134 211.044 111.909 211.642 118.089 208.453C118.488 208.253 118.887 208.054 119.485 207.855C119.684 208.054 119.684 208.652 119.684 209.25Z" fill="#DDA243"/>
<path d="M103.339 207.855C103.538 207.855 103.937 207.855 104.136 208.055C104.535 208.453 104.336 209.052 104.136 209.45C103.738 209.849 103.339 209.849 102.741 210.048C99.551 210.646 96.3612 209.849 93.3707 209.65C89.5828 209.45 85.9943 210.048 82.2063 210.048C81.4089 210.048 77.8203 210.646 77.8203 209.052C77.8203 207.855 79.814 207.656 80.6114 207.457C87.7885 206.26 95.9625 206.859 103.339 207.855Z" fill="#EAA73B"/>
<path d="M65.2619 207.457C65.86 207.457 66.2587 207.457 66.6575 207.657C67.0562 207.856 67.6543 208.255 67.6543 208.653C67.6543 209.052 67.4549 209.65 67.0562 209.85C66.6575 210.049 66.2587 210.248 65.6607 210.448C64.2651 210.647 62.6702 210.647 61.2746 210.647C59.281 210.647 57.2873 210.647 55.4931 210.248C52.5026 209.85 53.4994 207.457 55.8918 207.258C59.0816 207.457 62.2715 207.657 65.2619 207.457Z" fill="#EAA73B"/>
<path d="M59.281 196.092C58.0848 196.092 57.088 196.092 56.0912 196.69C55.0943 197.089 54.2969 198.086 54.2969 199.282C54.2969 200.279 55.0943 201.076 55.8918 201.674C58.2842 203.468 61.6734 203.668 64.6638 203.668C70.0467 203.668 75.6289 203.468 81.0117 202.87C84.2015 202.472 87.3913 202.073 90.3818 200.677C91.1793 200.279 91.9767 199.68 91.7774 198.883C91.578 198.484 91.3786 198.086 90.9799 197.886C88.9863 196.491 87.3913 196.69 85.1983 196.889C82.4072 196.889 79.4168 196.491 76.4263 196.291C70.6447 195.893 65.0625 195.893 59.281 196.092Z" fill="#FBE087"/>
<path d="M117.694 186.923C117.494 189.515 116.498 191.708 116.498 191.708L78.419 189.714L60.6756 190.711C56.6883 190.711 52.9004 191.11 48.9131 191.309C48.1156 191.309 47.3182 191.508 46.5207 191.508C45.9226 191.508 45.3245 191.508 44.7264 191.508C43.1315 191.508 41.736 191.508 40.141 190.91C39.9417 190.113 39.543 188.518 39.3436 186.923C39.1442 184.331 40.9385 180.145 40.9385 180.145H44.1283C43.3309 181.739 42.5334 183.135 44.1283 184.929C45.5239 186.724 48.1156 187.322 50.3086 187.92C54.4953 188.717 58.8813 189.315 63.2673 189.714C66.0584 189.913 68.8495 189.913 71.4412 188.917C73.0361 188.119 74.4317 187.122 76.226 186.325C79.4158 185.129 82.805 186.125 85.9948 187.122C92.1751 188.917 98.9535 190.711 105.134 188.518C109.32 187.122 112.909 183.733 117.096 182.736C117.494 184.132 117.893 185.727 117.694 186.923Z" fill="#E9C245"/>
<path d="M119.688 191.707C119.688 192.505 119.29 193.302 118.692 193.9C118.094 194.499 117.296 194.897 116.499 194.897H41.3383C39.544 194.897 38.1484 193.502 38.1484 191.707C38.1484 190.91 38.3478 190.312 38.9459 189.714L39.1453 189.514C39.7434 188.916 40.5408 188.518 41.3383 188.518H116.698C117.695 188.518 118.692 188.916 119.09 189.714C119.489 190.312 119.688 190.91 119.688 191.707Z" fill="#E6A73F"/>
<path d="M119.688 191.707C119.688 192.504 119.29 193.302 118.692 193.9C118.094 194.498 117.296 194.897 116.499 194.897H41.3383C39.544 194.897 38.1484 193.501 38.1484 191.707C38.1484 190.909 38.3478 190.311 38.9459 189.713C39.1453 190.51 39.7434 191.109 40.3414 191.707C41.9364 192.903 44.3287 193.501 46.123 193.7C50.509 194.298 54.6957 193.7 59.0817 193.302C63.8664 193.102 68.4518 193.102 73.2366 193.102C81.0118 193.302 88.9863 193.501 96.7615 192.504C104.138 191.707 111.714 191.308 119.09 189.514C119.489 190.311 119.688 190.909 119.688 191.707Z" fill="#DDA243"/>
<path d="M47.3195 191.509C47.1201 191.509 46.7214 191.708 46.522 191.908C46.1233 192.306 46.3227 192.904 46.7214 193.303C47.1201 193.702 47.5189 193.702 48.1169 193.901C51.3068 194.3 54.2972 193.502 57.4871 193.104C61.275 192.705 64.8635 193.104 68.6515 193.104C69.4489 193.104 73.0375 193.502 73.0375 191.908C73.0375 190.711 71.0438 190.512 70.2464 190.512C62.6705 189.116 54.696 190.113 47.3195 191.509Z" fill="#EAA73B"/>
<path d="M85.4002 189.713C84.8021 189.713 84.4034 189.713 84.0046 189.913C83.6059 190.112 83.2072 190.511 83.0078 190.91C83.0078 191.308 83.2072 191.906 83.6059 192.106C84.0046 192.305 84.4034 192.505 85.0015 192.505C86.397 192.704 87.9919 192.704 89.3875 192.505C91.3811 192.305 93.3748 192.305 95.169 191.906C98.1595 191.508 96.9633 189.115 94.5709 188.916C91.5805 189.315 88.3906 189.713 85.4002 189.713Z" fill="#EAA73B"/>
<path d="M47.1167 165.391L45.7211 174.362L38.7434 176.555L35.3542 173.365L31.7656 170.175L46.7179 165.59L47.1167 165.391Z" fill="#E6A73F"/>
<path d="M47.1178 165.391L45.9216 174.362L38.9439 176.555L35.5547 173.365C36.7509 173.764 37.9471 173.963 39.1432 174.163C40.3394 174.163 41.5356 173.963 42.5324 173.565C43.5293 172.966 44.3267 171.97 44.9248 170.973C45.7223 169.777 46.121 168.381 46.5197 166.986C46.5197 166.587 46.7191 165.989 46.9185 165.59L47.1178 165.391Z" fill="#DDA243"/>
<path d="M55.8904 182.536L47.7164 181.34L45.5234 174.363L51.9031 167.385V167.584C51.5044 168.182 51.1056 168.581 50.9063 168.98C50.1088 170.375 49.5107 171.771 49.3114 173.366C49.112 176.157 50.3082 179.147 52.5012 180.742C53.2986 181.34 54.4948 181.739 55.4917 182.138C55.691 182.337 55.691 182.337 55.8904 182.536Z" fill="#DDA243"/>
<path d="M48.1134 177.353C48.9108 179.945 47.5153 182.537 44.9236 183.334C42.3318 184.132 39.7401 182.736 38.9426 180.144C38.1452 177.553 39.5407 174.961 42.1325 174.163C44.7242 173.366 47.5153 174.761 48.1134 177.353Z" fill="#D34C5B"/>
<path d="M46.1207 178.947C46.1207 180.343 44.9245 181.339 43.7283 181.339C42.5321 181.339 41.3359 180.143 41.3359 178.947C41.3359 177.552 42.5321 176.555 43.7283 176.555C44.9245 176.555 46.1207 177.552 46.1207 178.947Z" fill="#F2D065"/>
<path d="M41.334 170.973C42.1315 170.375 42.9289 169.777 42.9289 168.78C42.9289 168.581 42.9289 168.581 42.7295 168.381C42.7295 168.182 42.5302 168.182 42.3308 168.182C40.5365 167.783 36.3499 167.783 36.1505 170.176C35.7518 173.565 40.1378 171.97 41.334 170.973Z" fill="#EAA73B"/>
<path d="M51.1062 176.555C51.5049 177.352 52.3024 178.15 53.2992 178.548C53.4986 178.548 53.4986 178.548 53.6979 178.548C53.8973 178.548 53.8973 178.349 53.8973 178.15C53.8973 176.953 53.0999 172.767 51.9037 172.368C49.5113 171.571 50.7075 175.757 51.1062 176.555Z" fill="#EAA73B"/>
<path d="M125.464 170.375L123.271 172.169L118.287 176.555L111.309 174.163L110.512 166.388L110.312 164.992L125.464 170.375Z" fill="#E6A73F"/>
<path d="M123.275 172.168L118.291 176.355L111.313 173.963L110.516 166.188C110.715 166.586 110.715 166.985 110.914 167.184C112.31 170.773 114.104 173.165 118.291 172.966C120.085 172.966 121.68 172.567 123.275 172.168Z" fill="#DDA243"/>
<path d="M111.711 174.363L109.518 181.34L101.145 182.536H100.547L105.332 167.385L108.721 171.173L111.711 174.363Z" fill="#E6A73F"/>
<path d="M111.707 174.364L109.514 181.341L101.141 182.538C101.141 182.338 101.141 182.338 101.34 182.139C101.539 181.94 101.739 181.74 102.137 181.541C103.533 180.743 105.327 180.345 106.523 179.348C108.716 177.753 109.913 174.762 109.115 171.971C109.115 171.772 108.916 171.373 108.916 171.174L111.707 174.364Z" fill="#DDA243"/>
<path d="M113.707 183.532C116.349 183.532 118.491 181.39 118.491 178.748C118.491 176.105 116.349 173.963 113.707 173.963C111.064 173.963 108.922 176.105 108.922 178.748C108.922 181.39 111.064 183.532 113.707 183.532Z" fill="#D34C5B"/>
<path d="M116.097 178.947C116.097 180.343 114.901 181.34 113.705 181.34C112.309 181.34 111.312 180.144 111.312 178.947C111.312 177.552 112.509 176.555 113.705 176.555C114.901 176.356 116.097 177.552 116.097 178.947Z" fill="#F2D065"/>
<path d="M103.536 174.761C103.336 175.757 103.137 176.754 102.938 177.751C102.938 178.15 102.938 178.548 103.137 178.947C103.336 179.346 103.934 179.545 104.532 179.346C104.931 179.147 105.33 178.748 105.729 178.349C106.925 176.954 108.719 173.166 107.324 171.371C105.729 168.78 103.934 173.764 103.536 174.761Z" fill="#EAA73B"/>
<path d="M113.508 167.186C113.309 167.186 113.309 167.186 113.11 167.186C112.91 167.186 112.91 167.385 112.91 167.584C112.512 168.98 113.11 170.575 114.505 171.372C115.502 171.97 116.499 171.97 117.695 171.97C119.091 171.97 123.875 171.372 120.885 169.379C118.692 168.182 115.701 167.584 113.508 167.186Z" fill="#EAA73B"/>
</g>
<defs>
<clipPath id="clip0_1580_7304">
<path d="M0 0H300V205C300 210.523 295.523 215 290 215H10C4.47716 215 0 210.523 0 205V0Z" fill="white"/>
</clipPath>
</defs>
</svg>
