<svg width="207" height="131" viewBox="0 0 207 131" fill="none" xmlns="http://www.w3.org/2000/svg">
<path opacity="0.5" d="M155.79 57.332C127.502 57.332 104.578 80.256 104.578 108.544C104.578 136.833 127.502 159.757 155.79 159.757C184.079 159.757 207.003 136.833 207.003 108.544C207.003 80.256 184.079 57.332 155.79 57.332Z" fill="#92D5C1"/>
<path opacity="0.5" d="M189.933 41.76C189.933 46.0982 186.4 49.6256 182.056 49.6256C177.712 49.6256 174.18 46.0982 174.18 41.76C174.18 37.4219 177.712 33.8945 182.056 33.8945C186.4 33.8945 189.933 37.4219 189.933 41.76Z" fill="#92D5C1"/>
<path d="M203.079 30.8941C203.079 34.2592 200.358 36.9757 196.989 36.9757C193.619 36.9757 190.898 34.2592 190.898 30.8941C190.898 27.5289 193.619 24.8125 196.989 24.8125C200.358 24.8125 203.079 27.5289 203.079 30.8941Z" fill="#92D5C1"/>
<path d="M196.429 52.7049C195.901 52.1778 195.089 52.1778 194.561 52.7049C194.034 53.2319 194.034 54.0428 194.561 54.5699C196.795 56.8404 196.794 60.4893 194.521 62.7192C193.993 63.2463 193.993 64.0572 194.521 64.5842C195.049 65.1113 195.861 65.1113 196.388 64.5842C199.677 61.3002 199.718 55.9889 196.429 52.7049Z" fill="#F37E60"/>
<path d="M200.084 68.2747C205.402 63.004 205.443 54.3682 200.165 49.0164C199.637 48.4893 198.825 48.4893 198.297 49.0164C197.77 49.5435 197.77 50.3543 198.297 50.8814C202.56 55.1791 202.56 62.1526 198.216 66.4503C197.688 66.9773 197.688 67.7882 198.216 68.3153C198.744 68.7613 199.597 68.7613 200.084 68.2747Z" fill="#F37E60"/>
<path d="M193.587 56.8413C192.572 55.8277 190.948 55.8277 189.933 56.8413C188.918 57.8549 188.918 59.4766 189.933 60.4902C190.948 61.5038 192.572 61.5038 193.587 60.4902C194.602 59.5171 194.602 57.8549 193.587 56.8413Z" fill="#F37E60"/>
<path d="M192.893 122.456L192.857 119.099C192.857 118.777 192.607 118.527 192.249 118.527C190.998 118.527 189.996 119.563 189.996 120.813V122.42L186.277 122.456H185.669C184.99 122.456 184.453 123.027 184.453 123.67C184.453 124.134 184.739 124.527 185.097 124.741C184.703 124.956 184.453 125.349 184.453 125.813C184.453 126.277 184.739 126.67 185.097 126.884C184.703 127.098 184.453 127.491 184.453 127.956C184.453 128.456 184.775 128.92 185.24 129.098C184.775 129.277 184.453 129.705 184.489 130.241C184.489 130.92 185.061 131.455 185.705 131.455H186.313L191.82 131.42H192.321C193.573 131.42 194.61 130.384 194.61 129.134L194.574 124.741C194.646 123.599 193.895 122.706 192.893 122.456Z" fill="#F37E60"/>
<path d="M198.114 123.278H196.397C195.932 123.278 195.539 123.671 195.539 124.135L195.575 129.564C195.575 130.028 195.968 130.421 196.433 130.421H198.15C198.615 130.421 199.008 130.028 199.008 129.564L198.972 124.135C198.972 123.635 198.579 123.278 198.114 123.278Z" fill="#F37E60"/>
<path d="M177.259 32.3535H1.94531V147.214H177.259V32.3535Z" fill="#CAD9F8"/>
<path d="M175.803 35.3545H3.45312V37.4222H175.803V35.3545Z" fill="#E2E2E2"/>
<path d="M167.27 22.9473H131.055V26.7178H167.27V22.9473Z" fill="#6683C2"/>
<path d="M177.218 30.4073L173.93 24.2852H5.88381L2.35156 27.4476V35.3536H177.218V30.4073Z" fill="#6683C2"/>
<path d="M169.672 27.9766L173.001 31.3012" stroke="white" stroke-width="2.21687" stroke-miterlimit="10" stroke-linecap="round"/>
<path d="M173.001 27.9766L169.672 31.3012" stroke="white" stroke-width="2.21687" stroke-miterlimit="10" stroke-linecap="round"/>
<mask id="mask0_1573_17878" style="mask-type:luminance" maskUnits="userSpaceOnUse" x="1" y="0" width="178" height="148">
<path d="M178.324 0H2.80728L1.91406 147.215H177.43L178.324 0Z" fill="white"/>
</mask>
<g mask="url(#mask0_1573_17878)">
<path opacity="0.4" d="M27.8113 145.35C24.4414 136.633 25.1317 112.712 47.3402 83.3585C42.9147 66.8571 49.3702 40.5847 60.9414 35.3545L81.1604 35.841C81.1604 35.841 101.38 93.5755 97.1977 145.31H27.8113V145.35Z" fill="#9B9B9B"/>
</g>
<path d="M148.071 26.2727C147.746 24.286 146.853 22.6643 147.462 18.3666C147.665 16.9071 147.421 16.826 147.583 15.6097C147.665 14.9609 148.111 14.3122 148.111 13.7446C148.111 11.9202 147.908 12.1229 147.908 11.1093C148.192 8.79828 152.009 12.3256 150.629 17.0692C150.75 19.6235 151.035 19.583 151.278 19.3802C151.4 19.2586 152.577 18.2856 153.471 15.7718C153.917 14.515 154.201 12.0823 154.729 10.7038C155.298 9.2848 155.622 7.90631 156.353 6.73054C157.206 5.39259 157.977 4.62226 158.749 5.55477C158.992 5.83857 158.87 6.89271 158.261 8.27121C157.815 9.2848 157.815 9.69024 157.328 10.9876C156.922 12.2445 156.15 15.9745 156.231 16.0556C156.313 16.0962 157.49 13.2176 159.073 10.2579C159.682 9.16317 160.129 8.47393 160.494 7.78468C161.063 6.64945 161.997 6.60891 162.24 6.85217C162.768 7.41979 162.727 8.14958 162.037 9.77133C161.672 10.6633 161.103 11.758 160.576 12.8121C159.439 15.0015 158.586 16.9476 158.667 17.0692C158.667 17.0692 158.87 17.8396 159.114 17.4747C160.048 16.0962 162.159 11.6364 163.336 10.0551C164.189 8.91991 164.717 9.73079 164.676 10.7038C164.676 11.0687 164.595 11.758 163.986 12.731C163.702 13.1365 163.215 14.5555 162.687 15.488C161.997 16.7043 161.103 18.3666 161.144 18.4477C161.144 18.4477 161.347 18.8937 161.591 18.4883C162.078 17.6774 162.687 16.2584 163.499 15.0015C163.824 14.1095 164.352 13.3392 164.676 13.0148C165.082 12.6094 165.448 13.0148 165.529 13.2581C165.813 14.0284 165.691 14.3528 165.285 15.4069C164.961 16.2178 164.636 16.9881 164.433 17.3125C164.027 18.0423 163.377 19.2181 163.052 19.9478C162.524 21.0425 161.875 22.2183 161.428 23.4346C160.494 26.07 157.409 29.8406 155.622 31.7867C155.216 33.3273 151.603 45.1662 151.603 45.1662C151.603 45.1662 142.914 45.5716 143.645 43.1795C144.457 40.7874 147.218 29.6784 148.071 26.2727Z" fill="#FFA383"/>
<path d="M98.6641 80.1152C101.75 81.4126 120.385 73.3038 127.734 72.3307C129.724 72.0064 136.666 46.8286 140.036 38.4766C143.243 30.4894 160.296 40.4227 159.321 45.0852C158.306 49.7478 143.487 86.1157 140.645 90.0079C137.803 93.9001 107.312 106.225 104.714 115.186" fill="#F37E60"/>
<path d="M143.242 36.8543C144.622 34.6649 146.327 31.8269 146.693 30.124C147.058 28.4617 157.046 31.9079 156.153 33.773C154.813 36.5299 154.65 39.814 154.691 41.0709C154.691 43.017 142.348 38.2733 143.242 36.8543Z" fill="#E45F3C"/>
<path d="M153.227 40.7867C153.227 40.7867 153.389 36.2053 155.257 33.3672L153.227 40.7867Z" fill="#9B9B9B"/>
<path d="M152.055 40.1373C152.055 40.1373 152.217 35.5558 154.085 32.7178L152.055 40.1373Z" fill="#9B9B9B"/>
<path d="M150.516 39.693C150.516 39.693 150.637 35.2331 152.83 32.2734L150.516 39.693Z" fill="#9B9B9B"/>
<path d="M149.211 39.1656C149.211 39.1656 149.373 34.7058 151.606 31.7461L149.211 39.1656Z" fill="#9B9B9B"/>
<path d="M147.422 38.4766C147.422 38.4766 148.234 33.6924 150.386 31.2598L147.422 38.4766Z" fill="#9B9B9B"/>
<path d="M146.25 38.0303C146.25 38.0303 147.062 33.2461 149.214 30.8135L146.25 38.0303Z" fill="#9B9B9B"/>
<path d="M144.625 37.1785C144.625 37.1785 145.843 32.7187 148.076 30.5293L144.625 37.1785Z" fill="#9B9B9B"/>
<path d="M98.5826 83.9669C96.1872 78.2907 101.628 48.1666 96.3496 36.6116C93.1015 29.5164 85.4686 25.2998 78.7695 28.0163C73.6132 27.8541 70.3246 31.6652 67.7668 36.2467C62.9353 44.9636 67.645 54.5725 64.8841 57.0457C60.3775 61.1001 56.764 64.222 56.8858 68.9251C57.0888 75.8986 62.1233 78.1285 61.0677 83.3181C57.982 97.9545 98.5826 83.9669 98.5826 83.9669Z" fill="#59514D"/>
<path d="M66.7517 58.424C65.4525 64.3029 69.1472 67.3436 69.675 70.5872C70.1622 73.5874 69.5938 77.8445 66.7923 79.6284L72.8012 78.331L74.4252 65.803L70.1216 58.0186L66.7517 58.424Z" fill="#423935"/>
<path d="M86.7686 77.6809C93.8737 80.9244 104.958 88.3845 106.906 94.3039C108.855 100.223 101.913 125.036 101.588 132.131C101.263 139.186 101.101 143.281 100.938 147.133C100.695 152.971 52.2581 151.187 52.5017 144.984C52.6641 141.132 52.8671 137.037 53.1513 129.983C53.4761 122.928 48.7259 97.588 51.2025 91.8307C53.6791 86.1141 65.3721 79.627 72.7208 77.0322L86.7686 77.6809Z" fill="#F37E60"/>
<path d="M99.8437 54.2872C99.3565 57.0848 97.0017 60.6121 94.9311 59.4363C93.2664 58.4633 91.9266 56.9631 92.4138 54.1251C92.901 51.3275 94.4439 49.9896 96.7175 49.6247C99.1535 49.3003 100.331 51.4897 99.8437 54.2872Z" fill="#E5886E"/>
<path d="M99.3103 50.6796C98.9043 50.112 96.4683 49.7066 95.6562 51.7743L96.0217 49.7877C96.0217 49.7877 96.8337 49.4633 97.7269 49.6255C98.9449 49.9093 99.3103 50.6796 99.3103 50.6796Z" fill="#FFA383"/>
<path d="M63.3018 52.6661C63.5454 55.5042 65.5754 59.2343 67.7273 58.2207C69.4731 57.4098 70.9347 55.9907 70.6911 53.1527C70.4475 50.3146 69.0265 48.855 66.7934 48.2874C64.398 47.7603 63.0582 49.8281 63.3018 52.6661Z" fill="#E5886E"/>
<path d="M64.1172 49.1393C64.6044 48.6123 67.0404 48.4095 67.6494 50.5584L67.487 48.5312C67.487 48.5312 66.7156 48.1257 65.7818 48.2474C64.5638 48.4095 64.1172 49.1393 64.1172 49.1393Z" fill="#FFA383"/>
<path d="M71.6633 66.248C72.4347 69.3699 70.8918 76.2624 70.6076 78.0058C69.958 78.249 65.6544 80.1951 65.6544 80.1951C64.4364 84.4523 67.928 87.8579 71.2167 92.3583C74.9519 97.4263 79.215 104.765 78.8902 110.481L80.2706 110.522C83.3968 98.6426 91.0703 84.0874 89.2839 78.9788C89.0809 78.2896 87.8223 72.4513 89.1215 67.4238L71.6633 66.248Z" fill="#FFA383"/>
<path d="M71.864 68.0727C71.864 68.0727 71.9452 69.1674 71.7422 71.0324C71.7422 71.0324 76.5331 77.2356 80.1465 77.3978C83.76 77.56 88.632 72.2487 88.632 72.2487C88.632 72.2487 88.7132 68.5592 88.9568 67.0186L71.864 68.0727Z" fill="#E5886E"/>
<path d="M96.1093 48.2482C95.7439 56.1137 89.0854 62.1953 81.2089 61.8709C73.3324 61.506 67.2423 54.8568 67.5671 46.9913C68.0137 36.4094 74.6316 31.6252 82.5081 31.9901C90.3846 32.3144 96.5559 37.9095 96.1093 48.2482Z" fill="#FFA383"/>
<path d="M96.1038 48.2461C95.779 55.8684 95.4948 62.2338 92.4092 66.2476C90.5415 68.6802 85.7913 72.7346 82.462 73.7077C81.65 73.9509 79.2952 73.7077 78.4832 73.3833C75.2757 72.0859 71.2563 67.7072 69.6728 65.2746C66.9526 61.0174 67.2368 54.6115 67.5616 46.9893" fill="#FFA383"/>
<path d="M90.2228 53.9231C90.1822 55.2205 89.3296 56.2341 88.3958 56.1935C87.4214 56.153 86.6906 55.0583 86.7718 53.7609C86.8124 52.4635 87.665 51.4499 88.6394 51.4904C89.5732 51.531 90.304 52.6257 90.2228 53.9231Z" fill="#030304"/>
<path d="M76.74 53.2346C76.6994 54.532 75.8468 55.5456 74.8724 55.505C73.898 55.4645 73.1671 54.3698 73.2484 53.0724C73.289 51.775 74.1416 50.7614 75.116 50.802C76.0498 50.8425 76.7806 51.9372 76.74 53.2346Z" fill="#030304"/>
<path d="M84.4964 47.0717C84.4964 47.0717 84.6588 46.9906 84.9024 46.9501C85.1866 46.869 85.552 46.7879 85.9986 46.7068C86.9324 46.5852 88.1505 46.5447 89.4091 46.7474C89.7339 46.7879 90.0181 46.869 90.3023 46.9501C90.5865 47.0312 90.9113 47.1528 91.1549 47.2339C91.4391 47.3555 91.6827 47.4772 91.9263 47.5988C92.1699 47.7204 92.4135 47.8826 92.6165 48.0042C92.8195 48.1259 92.9819 48.288 93.1443 48.4502C93.3067 48.5718 93.4285 48.734 93.5097 48.8557C93.7127 49.0989 93.7939 49.2206 93.7939 49.2206C93.8751 49.3422 93.8345 49.4638 93.7127 49.5449C93.6721 49.5854 93.6315 49.5854 93.5909 49.5854H93.5503C93.5503 49.5854 93.3879 49.5854 93.1443 49.5044C93.0225 49.4638 92.8601 49.4638 92.6977 49.4233C92.5353 49.3827 92.3323 49.3422 92.1293 49.3422C91.9263 49.3016 91.6827 49.2611 91.4391 49.2206C91.1955 49.18 90.9519 49.1395 90.7083 49.0989C90.4241 49.0584 90.1805 49.0178 89.8963 48.9367C89.6121 48.8962 89.3279 48.8151 89.0843 48.7746C88.5159 48.6529 87.9474 48.5313 87.4196 48.4097C86.8918 48.288 86.4046 48.1664 85.958 48.0448C85.1054 47.8015 84.4964 47.5177 84.4964 47.5177C84.3746 47.4772 84.334 47.315 84.3746 47.2339C84.3746 47.1528 84.4558 47.1123 84.4964 47.0717Z" fill="#59514D"/>
<path d="M78.9741 47.7607C78.9741 47.7607 78.8117 47.8012 78.5681 47.8823C78.4463 47.9229 78.2839 47.9634 78.1215 48.004C77.9591 48.0445 77.7561 48.1256 77.5531 48.1661C77.1471 48.2878 76.6599 48.3689 76.1321 48.4905C75.6043 48.6121 75.0765 48.6932 74.5081 48.7743C74.2239 48.8148 73.9803 48.8554 73.6961 48.9365C73.4119 48.977 73.1683 49.0176 72.9247 49.0581C72.6811 49.0986 72.4375 49.1392 72.1938 49.1797C71.9502 49.2203 71.7472 49.2608 71.5442 49.3014C71.3412 49.3419 71.1382 49.3825 70.9758 49.3825C70.8134 49.423 70.651 49.423 70.5292 49.4635C70.2856 49.5041 70.1232 49.5446 70.1232 49.5446H70.0826C69.9202 49.5446 69.7984 49.423 69.7578 49.2608C69.7578 49.1797 69.7578 49.1392 69.7984 49.0581C69.7984 49.0581 69.8796 48.9365 70.0826 48.6932C70.1638 48.5716 70.2856 48.4499 70.448 48.3283C70.6104 48.2067 70.7728 48.0445 70.9758 47.9229C71.1788 47.8012 71.3818 47.6796 71.6254 47.5174C71.869 47.3958 72.1126 47.2742 72.3968 47.1931C72.6811 47.112 72.9653 46.9904 73.2495 46.9498C73.5337 46.8687 73.8585 46.8282 74.1427 46.7876C75.3607 46.5849 76.5787 46.6255 77.4719 46.7876C77.9185 46.8687 78.2839 46.9498 78.5681 47.0309C78.8117 47.112 78.9741 47.1931 78.9741 47.1931C79.1365 47.2742 79.1771 47.4363 79.1365 47.5985C79.0959 47.6796 79.0553 47.7202 78.9741 47.7607Z" fill="#59514D"/>
<path d="M78.7693 61.3018C79.6219 60.9775 82.5857 61.0991 83.276 61.5045C83.9662 61.91 81.7331 62.3154 81.0023 62.2749C80.1903 62.2343 78.0791 61.5856 78.7693 61.3018Z" fill="#E5886E"/>
<path opacity="0.5" d="M82.7478 69.7353C81.4486 69.4515 79.2156 69.411 78.1599 69.5326C77.4291 69.6137 79.1344 68.965 80.4336 69.0461C81.6922 69.0866 83.438 69.8975 82.7478 69.7353Z" fill="#E5886E"/>
<path d="M76.5767 64.3441C79.3375 65.2766 82.7074 65.2766 85.3058 65.0739C85.6306 65.0333 85.4682 65.1144 85.184 65.4793C84.6562 66.0875 82.9916 67.9119 80.7586 67.7903C78.6067 67.6687 76.7797 64.9928 76.3331 64.2224C76.1301 63.9792 76.3331 64.263 76.5767 64.3441Z" fill="white"/>
<path d="M67.4051 56.2756C66.3089 55.4648 65.6593 54.4917 66.4307 53.2754C66.6337 52.9916 66.9179 52.6672 67.3239 52.3429C69.3133 50.7211 68.2577 54.3295 68.2577 54.3295L67.4051 56.2756Z" fill="#FFA383"/>
<path d="M75.8928 63.8157C77.6386 64.0995 79.7905 63.1265 80.8055 64.2212C82.1859 63.3697 84.5001 64.9104 86.2866 64.9104C86.3272 64.9104 86.3678 64.9915 86.246 64.9915C85.3121 65.2753 80.0341 66.3294 75.8522 64.0184C75.6492 63.8968 75.6898 63.7752 75.8928 63.8157Z" fill="#865B57"/>
<path d="M76.0078 64.0186C76.0078 64.0186 77.3882 66.289 78.4033 67.2215C79.3777 68.1135 82.0573 68.3973 83.1941 67.6675C84.2091 66.9783 85.9144 64.9916 85.9144 64.9916L85.5084 65.1132C84.5339 65.6809 83.9655 66.289 82.8693 66.6539C81.7731 67.0188 80.5957 67.0593 79.4995 66.6945C78.0784 66.2485 77.7942 65.1943 76.8198 64.3835L76.3326 64.0996L76.0078 64.0186Z" fill="#865B57"/>
<path d="M76.9844 64.5449C77.7152 65.1125 79.1362 65.6396 80.882 65.7612C83.0339 65.9234 85.2669 65.1936 85.2669 65.1936C85.2669 65.1936 82.9527 65.518 80.9632 65.4369C78.8926 65.3558 76.9844 64.5449 76.9844 64.5449Z" fill="#E2E2E2"/>
<path d="M67.3996 56.2753C67.3996 51.9371 68.983 45.7339 71.7439 43.2607C74.0581 41.193 77.7934 39.0036 77.2656 35.233C77.2656 35.233 76.4535 39.6523 80.7572 42.4904C83.8428 44.5176 98.5403 44.7203 94.1554 56.5591L95.82 54.9374L96.0636 48.8963L92.0036 42.8958L76.9001 32.5166L68.8206 43.1391L66.75 50.5181L67.3996 56.2753Z" fill="#E5886E"/>
<path d="M95.5361 56.801C95.6579 52.8682 96.0233 49.7869 92.9782 46.8272C88.6746 42.6512 84.6145 43.8675 81.1229 41.2727C77.8342 38.84 76.6974 35.1911 77.2252 31.7043L82.4221 31.2178L87.7002 32.1908L93.6684 36.9345L96.5917 43.8675C96.5917 43.8675 97.1601 46.3001 96.7947 50.3139C96.3887 54.3278 95.5361 56.801 95.5361 56.801Z" fill="#59514D"/>
<path d="M78.1948 31.7461C68.2477 34.8274 67.5169 39.7738 66.7049 45.4905C65.8929 51.2477 67.4357 56.2752 67.4357 56.2752C67.2327 53.7614 67.8417 44.4769 72.7544 41.1117C77.667 37.7466 77.3422 35.2734 77.3422 35.2734L78.1948 31.7461Z" fill="#59514D"/>
<path d="M77.268 35.2329C77.268 35.2329 76.5372 30.4488 78.7702 27.9756C78.7702 27.9756 76.862 28.1378 76.0906 30.6109C75.4004 32.9219 77.268 35.2329 77.268 35.2329Z" fill="#423934"/>
<path d="M63.2608 81.4519C62.5706 85.4658 65.1284 88.466 69.0667 93.8584C73.0049 99.2507 77.3492 104.927 77.674 110.36C78.0394 116.603 75.1974 147.011 75.1974 147.011L78.1206 147.133L80.313 110.481C80.4348 106.184 77.5522 101.602 75.3598 97.9533C73.2079 94.3043 67.9705 88.1822 66.8336 85.8712C65.7374 83.5602 65.2096 82.0195 65.6562 80.1951C65.6156 80.1545 64.1134 79.668 63.2608 81.4519Z" fill="#E45F3C"/>
<path d="M80.0651 109.914C80.6335 107.887 82.6229 102.454 83.3537 100.832C84.0845 99.1701 85.3432 102.414 85.3432 102.414C85.3432 102.414 80.0245 115.874 79.6185 120.334C79.2531 124.794 79.1719 113.523 79.1719 113.523L80.0651 109.914Z" fill="#E45F3C"/>
<path d="M104.633 115.145C105.282 111.861 107.8 105.576 106.785 100.022C105.77 94.5077 108.53 99.373 110.439 100.224C112.347 101.076 138.331 94.1834 140.564 89.9668C140.564 89.9668 140.037 90.8182 138.534 91.7507C135.53 93.6158 129.643 96.6565 123.471 100.143C109.505 108.009 105.201 112.428 104.633 115.145Z" fill="#E45F3C"/>
<path d="M118.68 74.7214C120.426 74.1538 127.287 72.978 129.764 75.8161C132.24 78.6542 132.403 75.9783 131.388 74.7619C130.373 73.5456 129.317 70.4238 129.479 69.4102C128.789 71.113 128.383 71.7617 127.937 72.2077C127.125 72.5726 126.759 72.0861 118.68 74.7214Z" fill="#E45F3C"/>
<path d="M140.846 37.0566C140.237 37.9486 144.337 41.3137 150.103 43.1382C155.868 44.9627 158.994 45.206 159.319 44.5573C159.319 44.5573 159.562 45.0843 157.086 51.4903C157.086 51.4903 158.304 46.9899 155.665 46.7872C152.539 46.5034 145.515 44.76 141.576 40.0569C140.683 39.0027 140.034 39.4487 138.734 41.8408C139.952 38.6379 140.277 37.5432 140.846 37.0566Z" fill="#E45F3C"/>
<path d="M63.2656 109.428C63.2656 109.428 58.8808 119.726 60.5048 122.159C62.1694 124.551 65.7016 125.159 65.7016 126.821C65.7016 128.484 61.804 126.456 62.0476 128.078C62.21 129.213 74.1466 139.633 76.7856 143.688C77.9224 145.431 76.4202 149.972 76.745 150.621L75.3646 150.58C71.5075 147.337 57.7439 132.944 57.7439 132.944C57.7439 132.944 53.7651 118.348 54.2523 117.375C54.7801 116.402 57.8251 108.82 58.1499 108.293C58.5559 107.685 63.2656 109.428 63.2656 109.428Z" fill="#E45F3C"/>
<path d="M52.3367 89.9668C47.8706 93.5752 29.9252 123.983 32.3206 134.119C34.3506 142.755 56.8839 161 60.2538 161.892C66.1409 163.432 82.1375 147.58 74.4234 143.323C66.7093 139.065 56.9652 126.659 56.4779 125.078C55.9907 123.456 64.3545 107.117 64.3545 107.117" fill="#F37E60"/>
<path d="M103.37 121.389C101.787 124.997 95.1687 132.782 95.6153 135.62C96.0619 138.458 101.462 140.89 101.015 145.391C101.015 145.391 101.056 131.362 103.37 121.389Z" fill="#E45F3C"/>
<path d="M79.9062 95.5215C80.1499 98.0758 81.9769 104.36 81.9769 104.36L83.2355 101.279C83.2355 101.279 80.4341 99.8191 79.9062 95.5215Z" fill="#E2E2E2"/>
<path d="M81.9766 104.36C84.6968 106.468 96.1462 108.252 100.409 101.765C104.672 95.2781 103.008 89.9668 103.008 89.9668L83.2352 101.279L81.9766 104.36Z" fill="#E45F3C"/>
<path d="M32.0794 130.876C32.2824 134.079 62.7735 162.5 68.5388 158.446C68.5388 158.446 64.0727 162.419 60.2562 161.852C57.7796 161.568 40.0778 147.418 34.5155 138.579C31.2674 133.674 31.9982 131.565 32.0794 130.876Z" fill="#E45F3C"/>
<mask id="mask1_1573_17878" style="mask-type:luminance" maskUnits="userSpaceOnUse" x="32" y="35" width="128" height="128">
<path d="M139.995 38.4787C136.666 46.8308 129.682 72.0085 127.693 72.3329C120.344 73.3059 101.709 81.4553 98.6229 80.1173L99.5567 85.6718C95.4966 82.3878 90.5434 79.4686 86.7269 77.7252L72.6791 77.1171C66.1018 79.4281 56.1141 84.8204 52.2976 90.01C47.8316 93.6184 29.8861 124.026 32.2815 134.162C34.3116 142.798 56.8449 161.043 60.2147 161.935C64.1124 162.948 72.3543 156.421 75.3587 150.623C87.8231 151.231 100.775 150.218 100.897 147.217C101.059 143.366 101.262 139.271 101.546 132.216C101.668 129.013 103.17 122.242 104.591 115.228C107.23 106.268 137.681 93.9428 140.523 90.0506C143.365 86.1584 158.184 49.7905 159.199 45.1279C160.255 40.4248 143.202 30.4916 139.995 38.4787Z" fill="white"/>
</mask>
<g mask="url(#mask1_1573_17878)">
<path d="M110.482 79.5903C110.482 81.577 108.858 83.1582 106.909 83.1582C104.919 83.1582 103.336 81.5364 103.336 79.5903C103.336 77.6037 104.96 76.0225 106.909 76.0225C108.858 76.0225 110.482 77.6037 110.482 79.5903Z" fill="#EDEDED"/>
<path d="M121.036 90.6177C121.036 92.6043 119.412 94.1855 117.463 94.1855C115.474 94.1855 113.891 92.5638 113.891 90.6177C113.891 88.631 115.515 87.0498 117.463 87.0498C119.412 87.0498 121.036 88.6716 121.036 90.6177Z" fill="#EDEDED"/>
<path d="M126.193 75.2925C126.193 77.2791 124.569 78.8603 122.62 78.8603C120.63 78.8603 119.047 77.2386 119.047 75.2925C119.047 73.3058 120.671 71.7246 122.62 71.7246C124.609 71.7246 126.193 73.3464 126.193 75.2925Z" fill="#EDEDED"/>
<path d="M139.146 90.6177C139.146 92.6043 137.522 94.1855 135.573 94.1855C133.583 94.1855 132 92.5638 132 90.6177C132 88.631 133.624 87.0498 135.573 87.0498C137.522 87.0498 139.146 88.6716 139.146 90.6177Z" fill="#EDEDED"/>
<path d="M144.628 79.5908C146.601 79.5908 148.2 77.9934 148.2 76.0229C148.2 74.0525 146.601 72.4551 144.628 72.4551C142.654 72.4551 141.055 74.0525 141.055 76.0229C141.055 77.9934 142.654 79.5908 144.628 79.5908Z" fill="#EDEDED"/>
<path d="M106.95 110.89C106.95 112.877 105.326 114.458 103.378 114.458C101.388 114.458 99.8047 112.836 99.8047 110.89C99.8047 108.903 101.429 107.322 103.378 107.322C105.367 107.322 106.95 108.903 106.95 110.89Z" fill="#EDEDED"/>
<path d="M89.8957 122.728C89.8957 124.715 88.2717 126.296 86.3229 126.296C84.3334 126.296 82.75 124.674 82.75 122.728C82.75 120.741 84.374 119.16 86.3229 119.16C88.3123 119.16 89.8957 120.782 89.8957 122.728Z" fill="#EDEDED"/>
<path d="M56.841 125.162C56.841 127.148 55.217 128.729 53.2682 128.729C51.2787 128.729 49.6953 127.108 49.6953 125.162C49.6953 123.175 51.3193 121.594 53.2682 121.594C55.2576 121.594 56.841 123.216 56.841 125.162Z" fill="#EDEDED"/>
<path d="M39.1066 121.634C39.1066 123.621 37.4826 125.202 35.5338 125.202C33.5444 125.202 31.9609 123.58 31.9609 121.634C31.9609 119.648 33.585 118.066 35.5338 118.066C37.5232 118.066 39.1066 119.648 39.1066 121.634Z" fill="#EDEDED"/>
<path d="M61.4738 108.133C61.4738 110.12 59.8498 111.701 57.901 111.701C55.9115 111.701 54.3281 110.079 54.3281 108.133C54.3281 106.147 55.9521 104.565 57.901 104.565C59.8498 104.565 61.4738 106.147 61.4738 108.133Z" fill="#EDEDED"/>
<path d="M46.6613 104.362C46.6613 106.348 45.0373 107.93 43.0885 107.93C41.099 107.93 39.5156 106.308 39.5156 104.362C39.5156 102.375 41.1396 100.794 43.0885 100.794C45.0779 100.794 46.6613 102.375 46.6613 104.362Z" fill="#EDEDED"/>
<path d="M59.8879 88.3472C59.8879 90.3338 58.2639 91.915 56.315 91.915C54.3256 91.915 52.7422 90.2933 52.7422 88.3472C52.7422 86.3605 54.3662 84.7793 56.315 84.7793C58.3045 84.7793 59.8879 86.401 59.8879 88.3472Z" fill="#EDEDED"/>
<path d="M74.302 118.066C74.302 120.052 72.6779 121.634 70.7291 121.634C68.7397 121.634 67.1562 120.012 67.1562 118.066C67.1562 116.079 68.7803 114.498 70.7291 114.498C72.7185 114.457 74.302 116.079 74.302 118.066Z" fill="#EDEDED"/>
<path d="M73.9778 100.957C73.3688 101.444 72.5973 101.727 71.7447 101.727C69.7553 101.727 68.1719 100.106 68.1719 98.1595C68.1719 96.8621 68.8621 95.6863 69.9177 95.0781C70.8109 96.4566 72.3131 98.5244 73.9778 100.957Z" fill="#EDEDED"/>
<path d="M137.239 59.6831C137.239 61.6697 135.615 63.251 133.667 63.251C131.677 63.251 130.094 61.6292 130.094 59.6831C130.094 57.6964 131.718 56.1152 133.667 56.1152C135.656 56.1152 137.239 57.6964 137.239 59.6831Z" fill="#EDEDED"/>
<path d="M156.396 56.8042C156.396 58.7908 154.772 60.372 152.823 60.372C150.833 60.372 149.25 58.7503 149.25 56.8042C149.25 54.8175 150.874 53.2363 152.823 53.2363C154.812 53.2363 156.396 54.8175 156.396 56.8042Z" fill="#EDEDED"/>
<path d="M147.302 44.0327C147.302 46.0194 145.678 47.6006 143.729 47.6006C141.74 47.6006 140.156 45.9788 140.156 44.0327C140.156 42.0461 141.78 40.4648 143.729 40.4648C143.891 40.4648 144.013 40.4648 144.176 40.5054C145.313 41.2352 146.449 41.7217 146.449 41.7217C146.977 42.3299 147.302 43.1407 147.302 44.0327Z" fill="#EDEDED"/>
</g>
<path opacity="0.5" d="M104.633 115.145C105.282 111.861 107.8 105.576 106.785 100.022C105.77 94.5077 108.53 99.373 110.439 100.224C112.347 101.076 138.331 94.1834 140.564 89.9668C140.564 89.9668 140.037 90.8182 138.534 91.7507C135.53 93.6158 129.643 96.6565 123.471 100.143C109.505 108.009 105.201 112.428 104.633 115.145Z" fill="#E45F3C"/>
<path opacity="0.5" d="M118.68 74.7214C120.426 74.1538 127.287 72.978 129.764 75.8161C132.24 78.6542 132.403 75.9783 131.388 74.7619C130.373 73.5456 129.317 70.4238 129.479 69.4102C128.789 71.113 128.383 71.7617 127.937 72.2077C127.125 72.5726 126.759 72.0861 118.68 74.7214Z" fill="#E45F3C"/>
<path opacity="0.5" d="M140.846 37.0566C140.237 37.9486 144.337 41.3137 150.103 43.1382C155.868 44.9627 158.994 45.206 159.319 44.5573C159.319 44.5573 159.562 45.0843 157.086 51.4903C157.086 51.4903 158.304 46.9899 155.665 46.7872C152.539 46.5034 145.515 44.76 141.576 40.0569C140.683 39.0027 140.034 39.4487 138.734 41.8408C139.952 38.6379 140.277 37.5432 140.846 37.0566Z" fill="#E45F3C"/>
<path opacity="0.5" d="M63.2623 109.429C63.2623 109.429 58.8775 119.727 60.5015 122.159C62.1661 124.552 65.6984 125.16 65.6984 126.822C65.6984 128.484 61.8007 126.457 62.0443 128.079C62.2067 129.214 74.1433 139.634 76.7823 143.688C77.9192 145.432 76.4169 149.973 76.7417 150.621L75.3613 150.581C77.1883 146.851 76.8635 144.58 73.7779 142.959C65.0894 138.012 56.8068 125.727 56.8068 125.727C56.8068 125.727 56.5633 124.227 56.9693 123.173C58.9993 117.659 63.2623 109.429 63.2623 109.429Z" fill="#E45F3C"/>
<path opacity="0.5" d="M103.37 121.389C101.787 124.997 95.1687 132.782 95.6153 135.62C96.0619 138.458 101.462 140.89 101.015 145.391C101.015 145.391 101.056 131.362 103.37 121.389Z" fill="#E45F3C"/>
<path opacity="0.5" d="M81.9766 104.36C84.6968 106.468 96.1462 108.252 100.409 101.765C104.672 95.2781 103.008 89.9668 103.008 89.9668L83.2352 101.279L81.9766 104.36Z" fill="#E45F3C"/>
<path opacity="0.5" d="M32.0794 130.876C32.2824 134.079 62.7735 162.5 68.5388 158.446C68.5388 158.446 64.0727 162.419 60.2562 161.852C57.7796 161.568 40.0778 147.418 34.5155 138.579C31.2674 133.674 31.9982 131.565 32.0794 130.876Z" fill="#E45F3C"/>
<path d="M97.5264 40.0566C98.9474 46.4626 97.8512 47.5573 100.896 52.9091C103.251 56.9634 108.204 65.356 103.373 71.3565C101.749 73.3837 98.8662 74.9244 98.6632 77.803C98.5008 79.9518 100.125 82.0601 100.977 84.0062C102.723 87.939 104.51 93.2097 101.952 97.1424C99.8 100.467 96.0242 102.697 92.3295 103.143C87.8229 103.711 82.626 102.616 80.6366 98.0344C78.4441 93.0475 81.814 89.1553 85.1432 85.9523C86.6455 84.4927 88.5131 83.2764 88.7161 80.9654C88.9191 78.6139 87.7011 76.9516 86.5237 75.0055C81.1238 66.0047 95.334 60.0448 95.5776 52.382C95.6994 48.8952 94.0754 47.3545 95.6994 44.1921C95.6588 44.2327 97.5264 40.0566 97.5264 40.0566Z" fill="#59514D"/>
<path d="M85.4249 72.29C90.5812 75.2497 94.4382 76.5877 94.4788 78.696C94.5194 80.7637 82.5829 86.7237 80.228 92.7242C80.228 92.4809 80.228 92.4809 80.228 92.4809C80.228 92.4809 79.6596 89.6023 82.4205 85.5479C83.9633 83.318 86.1963 81.6151 86.8053 78.7771C87.2113 77.2364 85.5061 74.601 85.4249 72.29Z" fill="#706661"/>
<path d="M85.7958 121.105C85.7958 122.362 84.8214 123.376 83.644 123.376C82.4666 123.376 81.4922 122.362 81.4922 121.105C81.4922 119.849 82.4666 118.835 83.644 118.835C84.8214 118.835 85.7958 119.849 85.7958 121.105Z" fill="#484A4E"/>
<path d="M82.3047 121.672C82.3047 121.47 82.7513 122.078 83.6445 122.078C84.5783 122.078 84.9843 121.51 84.9843 121.672C84.9843 122.24 84.3753 122.726 83.6445 122.726C82.9137 122.726 82.3047 122.28 82.3047 121.672Z" fill="#6683C2"/>
<path d="M82.3047 121.672C82.3047 121.47 82.7513 122.078 83.6445 122.078C84.5783 122.078 84.9843 121.51 84.9843 121.672C84.9843 122.24 84.3753 122.726 83.6445 122.726C82.9137 122.726 82.3047 122.28 82.3047 121.672Z" fill="#EDEDED"/>
<path d="M2.03003 22.9468C0.893213 22.9468 0 23.8388 0 24.9334C0 26.0281 0 27.8121 0 28.9473V147.133C0 148.268 0.893213 149.16 2.03003 149.16H177.262C178.399 149.16 179.292 148.268 179.292 147.133V24.974C179.292 23.8388 178.399 22.9468 177.262 22.9468H165.65C164.514 22.9468 163.539 23.7982 163.417 24.8524C163.296 25.9065 164.108 26.7579 165.244 26.7579H173.77C174.907 26.7579 175.801 27.6499 175.801 28.7851V143.362C175.801 144.497 174.907 145.389 173.77 145.389H5.48108C4.34426 145.389 3.45105 144.497 3.45105 143.362V28.7446C3.45105 27.6093 4.34426 26.7174 5.48108 26.7174H138.57C139.707 26.7174 140.6 25.866 140.559 24.8118C140.559 23.7577 139.625 22.9062 138.489 22.9062H2.03003V22.9468Z" fill="#6683C2"/>
<path d="M188.74 101.942C187.076 104.172 166.085 109.524 163 109.159C159.914 108.835 155.367 94.7253 157.153 91.0764C158.899 87.4274 181.432 81.7918 183.99 83.373C186.467 84.9137 190.405 99.7122 188.74 101.942Z" fill="white"/>
<path d="M176.276 94.6443L170.307 92.1306C169.617 91.8468 168.846 92.4549 169.049 93.2252L170.916 100.726C171.119 101.456 172.053 101.658 172.54 101.091L176.6 96.0633C177.006 95.6173 176.844 94.8875 176.276 94.6443Z" fill="#F37E60"/>
<path d="M37.9793 58.0928H25.648C22.6174 58.0928 20.1094 60.565 20.1094 63.5522V69.0632C20.1094 72.0504 22.6174 74.5226 25.648 74.5226H34.8965L36.673 76.7888C37.0388 77.2524 37.7703 77.1493 38.0315 76.6343L39.0243 74.4711C41.5846 74.0076 43.5702 71.7929 43.5702 69.1147V63.6037C43.5179 60.565 41.0099 58.0928 37.9793 58.0928ZM25.5958 68.0331C24.7597 68.0331 24.0805 67.3635 24.0805 66.5395C24.0805 65.7154 24.7597 65.0458 25.5958 65.0458C26.4318 65.0458 27.111 65.7154 27.111 66.5395C27.1633 67.3635 26.4318 68.0331 25.5958 68.0331ZM31.8136 68.0331C30.9776 68.0331 30.2984 67.3635 30.2984 66.5395C30.2984 65.7154 30.9776 65.0458 31.8136 65.0458C32.6497 65.0458 33.3289 65.7154 33.3289 66.5395C33.3289 67.3635 32.6497 68.0331 31.8136 68.0331ZM38.0315 68.0331C37.1955 68.0331 36.5163 67.3635 36.5163 66.5395C36.5163 65.7154 37.1955 65.0458 38.0315 65.0458C38.8676 65.0458 39.5468 65.7154 39.5468 66.5395C39.5468 67.3635 38.8676 68.0331 38.0315 68.0331Z" fill="#F37E60"/>
<path d="M120.379 122.648L120.42 122.689L127.322 125.121L131.301 118.999L131.341 118.959C132.397 117.337 131.95 115.107 130.286 114.053C128.662 112.999 126.429 113.445 125.373 115.107L124.399 116.607L122.693 115.999C120.866 115.35 118.796 116.323 118.146 118.148C117.578 119.972 118.552 122 120.379 122.648Z" fill="white"/>
<path d="M159.236 76.3436L161.997 80.5602L166.706 78.8979H166.747C168.006 78.4519 168.655 77.0734 168.209 75.8166C167.762 74.5597 166.382 73.911 165.123 74.357L163.986 74.7624L163.296 73.7488C162.565 72.6541 161.063 72.3298 159.926 73.0596C158.83 73.7083 158.505 75.2084 159.236 76.3436Z" fill="white"/>
<path d="M12.7551 50.9985H12.7957L17.5054 52.6608L20.2256 48.4848L20.2662 48.4443C20.997 47.3496 20.6722 45.8089 19.576 45.0791C18.4798 44.3493 16.937 44.6737 16.2062 45.7684L15.5566 46.782L14.4197 46.3765C13.1611 45.9305 11.7807 46.5792 11.3341 47.8361C10.8469 49.1335 11.4965 50.5525 12.7551 50.9985Z" fill="#F37E60"/>
</svg>
