<svg width="107" height="98" fill="none" xmlns="http://www.w3.org/2000/svg"><g clip-path="url(#a)"><path d="M72.999 106.906c25.956 0 46.998-20.83 46.998-46.524 0-25.694-21.042-46.523-46.998-46.523C47.042 13.859 26 34.688 26 60.382c0 25.695 21.042 46.524 46.999 46.524Z" fill="#FFD93B"/><path d="M120.002 60.382c0 25.705-21.047 46.524-46.999 46.524-14.775 0-27.964-6.746-36.585-17.316 8.063 6.456 18.33 10.308 29.506 10.308 25.952 0 46.999-20.819 46.999-46.523 0-11.064-3.892-21.227-10.413-29.209 10.662 8.535 17.492 21.59 17.492 36.216Z" fill="#F4C534"/><path d="M87.027 83.79c0 1.358-1.096 2.422-2.447 2.422H61.413c-1.352 0-2.447-1.067-2.447-2.422 0-1.338 1.095-2.422 2.447-2.422H84.58c1.348 0 2.447 1.084 2.447 2.422ZM46.523 61.415c1.148-.67 4.547 2.937 9.884 3.134 5.526.204 8.736-3.803 9.885-3.134 1.43.485-.52 9.732-9.885 9.767-9.361-.035-11.315-9.282-9.884-9.767Z" fill="#3E4347"/><path d="M44.323 57.35a1.939 1.939 0 0 1-1.622-2.222 1.945 1.945 0 0 1 2.245-1.605c11.01 1.75 14.355-6.034 14.388-6.112a1.962 1.962 0 0 1 2.552-1.064 1.932 1.932 0 0 1 1.075 2.527c-2.209 5.356-9.147 9.985-18.638 8.476Z" fill="#E9B02C"/><path d="M99.469 61.415c-1.15-.67-4.548 2.937-9.885 3.134-5.526.204-8.737-3.803-9.885-3.134-1.43.485.52 9.732 9.885 9.767 9.362-.035 11.315-9.282 9.885-9.767Z" fill="#3E4347"/><path d="M83.036 48.87a1.932 1.932 0 0 1 1.075-2.526 1.965 1.965 0 0 1 2.55 1.055c.147.35 3.51 7.855 14.391 6.124a1.946 1.946 0 0 1 2.244 1.605 1.94 1.94 0 0 1-1.621 2.222c-9.424 1.5-16.412-3.074-18.64-8.48Z" fill="#E9B02C"/></g><defs><clipPath id="a"><rect width="107" height="98" rx="10" fill="#fff"/></clipPath></defs></svg>