<svg width="684" height="216" fill="none" xmlns="http://www.w3.org/2000/svg"><path fill="#6683C2" d="M0 0h684v216H0z"/><g clip-path="url(#a)"><path opacity=".26" d="M-74.5-669C357.663-669 708-313.514 708 125S357.663 919-74.5 919-857 563.514-857 125s350.337-794 782.5-794Z" fill="url(#b)"/><path opacity=".58" d="M-74-547c366.165 0 663 300.641 663 671.5S292.165 796-74 796s-663-300.641-663-671.5S-440.165-547-74-547Z" fill="url(#c)"/><path d="M-74.5-430C226.77-430 471-181.966 471 124S226.771 678-74.5 678C-375.772 678-620 429.966-620 124s244.228-554 545.5-554Z" fill="url(#d)"/><path d="M-74.5-303C156.079-303 343-111.826 343 124c0 235.825-186.921 427-417.5 427S-492 359.826-492 124s186.921-427 417.5-427Z" fill="url(#e)"/><path d="M-74-174c162.924 0 295 133.643 295 298.5S88.924 423-74 423s-295-133.643-295-298.5S-236.924-174-74-174Z" fill="url(#f)"/><path d="M-74.5-67C28.5-67 112 18.513 112 124c0 105.486-83.5 191-186.5 191-103.002 0-186.5-85.514-186.501-191 0-105.486 83.499-191 186.5-191Z" fill="url(#g)"/><path d="M-74.5 17C-16.235 17 31 64.906 31 124S-16.235 231-74.5 231c-58.267 0-105.5-47.906-105.5-107-.001-59.094 47.233-107 105.5-107Z" fill="url(#h)"/></g><defs><radialGradient id="b" cx="0" cy="0" r="1" gradientUnits="userSpaceOnUse" gradientTransform="matrix(0 -886.847 874.002 0 -74.5 -135.931)"><stop stop-color="#718BC2"/><stop offset="1" stop-color="#4664A5"/></radialGradient><radialGradient id="c" cx="0" cy="0" r="1" gradientUnits="userSpaceOnUse" gradientTransform="matrix(0 -750.022 740.528 0 -74 -96.174)"><stop stop-color="#718BC2"/><stop offset="1" stop-color="#4664A5"/></radialGradient><radialGradient id="d" cx="0" cy="0" r="1" gradientUnits="userSpaceOnUse" gradientTransform="matrix(0 -618.782 609.288 0 -74.5 -58.06)"><stop stop-color="#718BC2"/><stop offset="1" stop-color="#4664A5"/></radialGradient><radialGradient id="e" cx="0" cy="0" r="1" gradientUnits="userSpaceOnUse" gradientTransform="matrix(0 -476.931 466.321 0 -74.5 -16.325)"><stop stop-color="#718BC2"/><stop offset="1" stop-color="#4664A5"/></radialGradient><radialGradient id="f" cx="0" cy="0" r="1" gradientUnits="userSpaceOnUse" gradientTransform="matrix(0 -333.405 329.496 0 -74 26.404)"><stop stop-color="#718BC2"/><stop offset="1" stop-color="#4664A5"/></radialGradient><radialGradient id="g" cx="0" cy="0" r="1" gradientUnits="userSpaceOnUse" gradientTransform="matrix(0 -213.335 208.308 0 -74.5 61.232)"><stop stop-color="#718BC2"/><stop offset="1" stop-color="#4664A5"/></radialGradient><radialGradient id="h" cx="0" cy="0" r="1" gradientUnits="userSpaceOnUse" gradientTransform="matrix(0 -119.512 117.837 0 -74.5 88.837)"><stop stop-color="#718BC2"/><stop offset="1" stop-color="#4664A5"/></radialGradient><clipPath id="a"><path fill="#fff" d="M0 0h684v216H0z"/></clipPath></defs></svg>