<svg width="330" height="242" fill="none" xmlns="http://www.w3.org/2000/svg"><g clip-path="url(#a)"><path d="M-7.336-48h347.753V87.466l-8.622-.003c-.718-.06-1.448-.063-2.168-.09-.968-1.15-1.945-2.294-3.109-3.254-1.758-1.453-3.878-2.416-6.207-2.13-3.421.42-5.796 2.883-7.747 5.493l-106.803-.038.001-2.779c-4.056-3.916-9.352-7.598-13.81-11.126L166.63 53.27c-1.547 1.016-2.963 2.285-4.402 3.45a554.65 554.65 0 0 1-7.31 5.853l-27.799 21.881.032 3.098c-11.782.14-23.579 0-35.362-.002l-71.121.004c-.062-.026-.126-.044-.184-.077-.71-.393-1.38-1.482-1.927-2.1-2.39-2.696-5.792-4.363-9.461-3.574-3.712.799-6.448 4.16-8.341 7.235-4.064 6.6-5.933 14.705-7.092 22.291-.367 2.399-.431 4.97-.999 7.315V-48ZM128.046-9.75c-2.547.441-4.32 1.416-5.834 3.557-.554.786-1.062 1.605-1.566 2.423-2.743.337-5.676.525-7.512 2.91-.548.71-.873 1.565-1.17 2.405 7.789.165 15.624.016 23.418.022 2.775.01 13.324.387 15.217-.126l.292-.291c-.113-.886-.872-1.457-1.546-1.988-.521-.412-1.143-.686-1.749-.949-1.605-2.216-3.271-3.63-6.065-4.112-1.678-.29-3.392-.09-5.077.036-1.657-2.095-3.511-3.597-6.274-3.897-.71-.078-1.423-.032-2.134.01ZM42.17-2.94c-5.613.651-10.493 2.92-14.079 7.41-1.87 2.342-3.304 4.926-4.161 7.802-5.557-.514-10.437-.554-14.97 3.194-3.006 2.484-4.483 5.737-4.925 9.557l60.638-.008 26.446.022c3.186-.01 6.39.126 9.573.034-.767-2.588-1.738-4.783-4.259-6.13-1.922-1.028-3.915-1.184-6.054-1.174-1.752-4.63-4.517-7.65-9.065-9.703-4.545-2.052-10.032-2.692-14.922-1.695-1.668.34-3.28.937-4.902 1.444-2.698-3.868-4.935-6.61-9.252-8.734-1.689-.83-3.444-1.5-5.301-1.834a18.104 18.104 0 0 0-4.767-.185Zm234.671 7.482c-5.565.382-10.665 2.407-14.4 6.66-2.032 2.312-3.323 4.87-4.518 7.683-5.03-.396-9.415-.214-13.439 3.198-2.88 2.442-4.296 5.488-4.97 9.143 18.088.27 36.202-.122 54.293-.026 4.384.014 34.269.406 35.617-.098.223-.547.068-.983-.147-1.507-.895-2.178-2.522-4.004-4.731-4.897-1.614-.654-3.31-.633-5.021-.64-2.807-5.453-4.825-8.733-10.989-10.722-4.453-1.437-9.637-1.099-13.895.81-4.027-5.033-8.739-8.862-15.384-9.548-.782-.081-1.634-.134-2.416-.056Zm-211.53 39.03c-2.766.49-5.027 1.576-6.716 3.938-.534.749-.96 1.611-1.397 2.422-2.19.156-4.328.429-5.87 2.187-1.016 1.16-1.434 2.638-1.558 4.144 8.249-.237 16.612-.215 24.866-.112 3.105.044 6.212.048 9.317.011 1.778-.012 3.622.074 5.39-.134.233-.308.219-.17.189-.508-.084-.923-1.023-2.165-1.763-2.688-.769-.543-1.64-.733-2.538-.944-1.202-1.834-2.458-3.31-4.726-3.763-1.692-.338-3.497.042-5.103.605-1.94-2.538-3.982-4.652-7.336-5.118a10.916 10.916 0 0 0-2.755-.04Zm173.405 3.71c-2.826.724-4.974 2.045-6.464 4.624-.376.651-.675 1.371-.944 2.072-2.668.075-5.67.17-7.609 2.307-1.16 1.277-1.494 2.779-1.829 4.405 9.655-.09 19.325.037 28.977-.132 1.756-.005 15.477.243 16.178-.207.089-.816-.298-1.492-.796-2.109-.823-1.02-2.235-1.187-3.461-1.38-2.109-2.65-3.695-5.134-7.405-5.606-2.137-.272-4.226.255-6.199 1.041-1.875-2.532-3.639-4.49-6.953-4.981-1.167-.174-2.322-.105-3.495-.033Z" fill="#fff"/><path d="M120.646-3.768c.504-.818 1.012-1.637 1.567-2.423 1.514-2.142 3.287-3.116 5.833-3.558.711-.042 1.425-.087 2.135-.01 2.763.3 4.617 1.803 6.274 3.897 1.684-.126 3.399-.325 5.077-.035 2.793.481 4.46 1.895 6.064 4.112.606.263 1.229.537 1.75.948.673.531 1.433 1.102 1.546 1.989l-.293.291c-1.892.513-12.441.136-15.216.125-7.794-.005-15.629.144-23.418-.021.297-.84.622-1.695 1.169-2.406 1.837-2.384 4.769-2.573 7.512-2.909ZM23.93 12.275c.858-2.876 2.292-5.46 4.162-7.801 3.585-4.49 8.465-6.76 14.079-7.41a18.104 18.104 0 0 1 4.766.184c1.857.335 3.612 1.003 5.301 1.834 4.317 2.124 6.555 4.866 9.252 8.735 1.622-.508 3.235-1.104 4.902-1.444 4.89-.998 10.377-.357 14.922 1.695 4.549 2.053 7.313 5.073 9.065 9.703 2.139-.01 4.132.145 6.054 1.173 2.521 1.347 3.492 3.542 4.259 6.13-3.183.092-6.387-.043-9.573-.034l-26.446-.022-60.638.008c.443-3.82 1.92-7.072 4.925-9.556 4.534-3.748 9.413-3.709 14.97-3.195ZM257.92 18.886c1.196-2.813 2.486-5.372 4.518-7.685 3.736-4.251 8.835-6.276 14.401-6.659.781-.078 1.633-.025 2.415.056 6.645.686 11.357 4.515 15.384 9.55 4.258-1.91 9.442-2.249 13.896-.812 6.163 1.989 8.181 5.269 10.988 10.723 1.711.006 3.407-.015 5.021.639 2.209.893 3.837 2.719 4.731 4.897.215.524.37.96.147 1.507-1.347.504-31.232.112-35.617.098-18.091-.096-36.205.295-54.292.026.673-3.655 2.089-6.701 4.97-9.143 4.024-3.411 8.409-3.594 13.438-3.197ZM57.198 49.932c.436-.81.863-1.672 1.397-2.42 1.688-2.363 3.95-3.45 6.715-3.94a10.916 10.916 0 0 1 2.755.04c3.354.467 5.397 2.58 7.337 5.119 1.606-.563 3.41-.943 5.102-.605 2.268.453 3.525 1.928 4.726 3.762.898.212 1.77.402 2.538.945.74.523 1.68 1.765 1.763 2.688.03.337.044.2-.19.508-1.766.207-3.61.121-5.388.134-3.106.037-6.212.033-9.318-.012-8.254-.102-16.617-.124-24.866.113.125-1.506.543-2.984 1.56-4.144 1.54-1.759 3.68-2.032 5.869-2.188ZM231.309 53.978c.269-.7.568-1.42.944-2.072 1.49-2.578 3.638-3.9 6.464-4.623 1.173-.072 2.328-.14 3.495.033 3.314.49 5.079 2.449 6.954 4.982 1.972-.787 4.061-1.314 6.198-1.042 3.71.472 5.296 2.956 7.405 5.606 1.226.193 2.638.36 3.461 1.38.498.617.885 1.293.796 2.11-.701.45-14.422.201-16.178.207-9.652.168-19.321.04-28.977.13.336-1.625.669-3.127 1.829-4.404 1.939-2.136 4.941-2.232 7.609-2.307Z" fill="#ECECEC"/><path d="m20.664 87.554 71.121-.004c11.784.003 23.581.142 35.362.003l-.031-3.099 27.798-21.88c2.453-1.931 4.89-3.882 7.31-5.854 1.44-1.164 2.855-2.434 4.402-3.45l25.322 20.27c4.459 3.528 9.754 7.21 13.81 11.126v2.78l106.802.037a56.661 56.661 0 0 0-6.612 14.962l-57.094-.022c-.028 1.053-.237 2.237.156 3.223.424.24.604.204 1.083.202.011 1.572-.047 3.176.044 4.744l-44.523.013-.017-22.863c-3.624-2.39-6.918-5.323-10.33-8.006-5.176-4.068-10.423-8.067-15.553-12.19-4.35-3.496-8.626-7.179-13.126-10.48-2.901 2.077-5.626 4.42-8.431 6.624l-20.994 16.592-6.384 4.932c-1.116.858-2.244 1.853-3.451 2.573l.017 15.025c.002 2.7.091 5.43-.021 8.125l-45.88-.002.028-3.378.04-1.879c.652.01 1.044.094 1.625-.219.45-.83.216-2.049.196-2.982-6.483-.114-12.985-.015-19.47-.013l-36.72.019c-.97-3.553-2.368-7.076-3.968-10.39-.67-1.385-2.24-3.083-2.51-4.539Z" fill="#B36955"/><path d="m205.597 87.741.017 22.863c-.121 1.006-.279 2.426-.024 3.394.061.971.109 1.929.095 2.902l.1 45.315 2.702-.003.011 5.366c-2.893-.002-5.789.03-8.681-.009l.028 30.14-.007 8.936c-.001 1.616-.114 3.351.086 4.95-.056.555.027.726-.409 1.099-1.549.337-3.096.1-4.666.116.2-15.05.029-30.121.02-45.174-2.535.008-5.077.052-7.61-.044-4.595-.356-9.696-.055-14.344-.053a1937.16 1937.16 0 0 0-28.113.081c-2.191.071-4.378.054-6.568.039v28.888c-.014 5.439-.234 10.975.072 16.405-1.885.019-3.987.229-5.845-.058-.301-.469-.219-.899-.235-1.448.023-14.614-.182-29.235-.024-43.847l-7.384.022c-.083-1.838-.046-3.692-.056-5.532l2.688.017c-.266-11.363.006-22.788-.002-34.157-.003-4.507.249-9.191-.081-13.681a32.465 32.465 0 0 0-.043-3.331c.112-2.696.023-5.426.021-8.126l-.017-15.025c1.207-.719 2.336-1.714 3.451-2.573l6.384-4.931 20.994-16.592c2.805-2.204 5.53-4.547 8.431-6.624 4.5 3.301 8.776 6.984 13.126 10.48 5.13 4.123 10.376 8.122 15.552 12.19 3.413 2.682 6.707 5.616 10.331 8.005Zm-50.512 13.677-10.141-.008c-1.778 0-3.677-.136-5.437.085-.658.083-1.419.241-1.914.711-.713.677-.263 10.732-.26 12.667-.162 2.525-.302 5.547-.002 8.055-.023 2.143-.265 4.538.011 6.657 1.598.525 15.006.2 17.72.198l.039-19.679c-.002-2.842.247-5.87-.016-8.686Zm1.825-.003c-.26 9.427-.052 18.923-.063 28.357 6.271-.037 12.586.142 18.849-.064l.011-17.914c.002-3.009-.118-6.069.019-9.072.002-.448-.013-.779-.14-1.215-1.945-.318-4.17-.097-6.148-.096l-12.528.004Zm39.138 1.25c-.166-.276-.4-.738-.676-.912-.393-.246-15.847-.368-17.453-.254-.269.385-.217.75-.252 1.21l.048 2.233c-.225 3.159-.105 6.399-.109 9.566-.004 3.473-.109 6.983.004 10.45l-.021 4.74c6.11-.003 12.237.09 18.344-.05.365-2.468.107-5.363.103-7.88-.011-6.352-.205-12.757.012-19.103Zm-58.353 28.839-.424.146c-.299 2.477-.056 5.21-.071 7.718l-.049 17.901c5.94.011 11.902-.085 17.839.054l.072-24.148c.013-.583.102-1.216-.199-1.737-1.786-.262-3.815-.048-5.629-.036-3.846.012-7.693.046-11.539.102Zm19.712-55.125c-.468.144-.689.273-1.039.616-.575 1.237-.349 15.744.084 17.446 1.25.442 17.154.392 19.634.234.243-.035.499.018.633-.216.252-.44.541-16.387.195-17.352-.098-.275-.364-.392-.624-.49-1.51-.565-16.169-.306-18.883-.238Zm-.525 54.978-.053 25.967 12.959-.002c1.802.002 4.078.251 5.835-.097-.079-8.595.087-17.189.068-25.784-6.262-.011-12.551.09-18.809-.084Zm20.631.092c.013 8.621.09 17.253-.029 25.873l12.406-.022c1.945 0 4.109.183 6.038-.054.018-8.606-.049-17.218.07-25.822l-18.485.025Z" fill="#FEFEFE"/><path d="M176.09 94.68c-2.48.158-18.384.208-19.634-.234-.433-1.702-.659-16.209-.084-17.446.35-.343.571-.472 1.039-.616 2.714-.068 17.373-.327 18.883.238.26.098.526.215.624.49.346.965.057 16.911-.195 17.352-.133.234-.39.18-.633.216Z" fill="#FAE6DB"/><path d="M-7.336 118.647c.568-2.345.632-4.916.999-7.315 1.16-7.586 3.028-15.69 7.092-22.29 1.893-3.076 4.629-6.438 8.34-7.236 3.67-.79 7.072.878 9.462 3.574.547.618 1.218 1.707 1.927 2.1.058.032.122.051.184.076.27 1.457 1.84 3.154 2.51 4.54 1.6 3.313 2.999 6.837 3.969 10.39.27 1.037.487 2.133.825 3.148l.434 1.928c.732 4.026 1.343 8.075 1.576 12.165.84 14.741-1.69 34.696-10.309 47.085-.31.444-.628.883-.953 1.317l-.538.482c-1.297 1.021-2.458 2.175-3.885 3.018-.085.05-.168.103-.252.154l-.152.091-1.702.193a510.928 510.928 0 0 1-.114-12.13c.53-.679 3.526-3.699 3.42-4.297-.058-.329-.233-.506-.435-.758-.41-.16-.499-.201-.931-.01-.79.349-1.71 1.914-2.242 2.617l-.01-14.774c.003-2.565.171-5.244-.047-7.79-.042-.482-.135-.8-.43-1.189l-.368-.104c-.482.29-.663.635-.804 1.161-.545 2.029-.045 13.327-.093 16.511-.901-2.58-4.829-15.315-5.86-16.5-.267-.107-.304-.193-.59-.078-.307.124-.417.258-.622.504-.098 1.421.81 3.339 1.264 4.686 1.072 3.173 2.124 6.344 3.28 9.489.782 2.124 1.887 4.331 2.333 6.543.415 2.061.235 4.395.25 6.494l.117 9.802-.024.114c-.417-.059-.834-.107-1.251-.162-3.985-.522-6.434-3.734-8.722-6.681-5.399-9.008-5.867-13.46-7.648-23.21v-23.658ZM312.562 87.485c1.951-2.61 4.326-5.074 7.747-5.493 2.329-.286 4.449.677 6.207 2.13 1.164.96 2.141 2.103 3.109 3.254.72.027 1.45.03 2.168.09l-1.757.073c-.098.512 1.132 2.257 1.451 2.79 2.122 3.553 4.282 8.123 5.267 12.142.265 1.177.601 2.307.982 3.452.186.763.414 1.535.546 2.31a68.045 68.045 0 0 1 1.498 8.417c.207 1.713.244 3.564.635 5.238v16.801c-1.07 6.497-1.926 13.1-4.31 19.287-.743 1.923-1.942 3.666-2.676 5.577-2.228 3.457-4.757 7.321-9.073 8.272-.594.13-1.215.217-1.82.277l-.111-.061c-.167-6.61-.057-13.248-.087-19.862-.012-2.525-.393-7.98.11-10.201.665-2.942 6.187-12.016 5.885-14.173-.065-.468-.167-.499-.531-.747-1.551.525-4.037 7.79-5.197 9.68l-.104.164c-.072-2.26.25-8.949-.089-10.599-.101-.489-.208-.493-.613-.747-.445-.024-.476-.036-.846.207-.227.407-.315.753-.341 1.221-.094 1.704.085 3.529.071 5.254l-.108 14.826c-.697-1.618-3.154-7.635-4.161-8.664-.427-.09-.426-.097-.809.111-.224.328-.382.587-.351 1.001.102 1.355 1.697 4.071 2.31 5.366.719 1.516 2.603 4.833 2.948 6.315.334 1.436.055 3.644.054 5.153l-.057 15.723-.024.113c-.175-.062-.431-.083-.616-.114-2.186-.582-3.715-2.309-5.617-3.397l-.098-.144c-1.288-1.521-2.543-3.076-3.616-4.758-8.689-13.615-9.26-40.612-5.819-56.061l.418-1.894c.215-1.13.533-2.252.813-3.368a56.665 56.665 0 0 1 6.612-14.961Z" fill="#92AEEA"/><path d="M137.338 114.875c-.003-1.935-.453-11.99.26-12.666.495-.471 1.256-.629 1.913-.711 1.761-.221 3.66-.086 5.438-.086l10.141.008-.163 1.219c-1.372.499-14.216.015-17.014.208l-.166 9.028c-.201-2.895.129-5.816-.175-8.698-.16 2.715.546 9.663-.234 11.698Z" fill="#89A2D8"/><path d="M155.09 101.418c.263 2.816.014 5.844.016 8.686l-.039 19.679c-2.714.002-16.122.327-17.72-.198l.391-.078c.071-.164.091-.19.128-.393.144-.804.17-5.044-.157-5.721-.087-.178-.249-.31-.373-.465-.3-2.508-.159-5.53.002-8.055.78-2.035.075-8.983.234-11.698.304 2.882-.025 5.803.175 8.698l.166-9.028c2.798-.193 15.642.291 17.014-.208l.163-1.219Z" fill="#97BAEF"/><path d="m156.918 101.415 12.528-.004c1.978 0 4.203-.221 6.148.096.126.436.141.768.14 1.215-3.288.07-6.587-.025-9.877.004-2.85.026-5.78.214-8.621.016-.27-.357-.254-.884-.318-1.327ZM177.668 102.71c.035-.46-.017-.825.252-1.21 1.606-.114 17.06.008 17.453.254.276.174.51.635.677.912-3.88.449-9.699.116-13.755.108-1.543.011-3.086-.01-4.627-.064Z" fill="#89A2D8"/><path d="M156.846 129.775c.011-9.433-.197-18.93.063-28.357.064.442.047.97.318 1.327 2.841.198 5.771.009 8.62-.016 3.291-.029 6.59.066 9.878-.004-.137 3.003-.018 6.063-.02 9.073l-.011 17.913c-6.262.206-12.578.027-18.848.064Z" fill="#A1C0F2"/><path d="m27.148 102.487 36.72-.019c6.485-.003 12.987-.101 19.47.013.02.933.254 2.152-.197 2.982-.58.313-.972.228-1.624.219-9.393-.193-18.827-.013-28.224-.025-8.426-.01-16.899-.237-25.32-.022-.337-1.014-.554-2.111-.825-3.148ZM248.858 102.43l57.093.021c-.279 1.116-.597 2.238-.813 3.368-8.79-.223-17.617-.078-26.41-.049-9.542.03-19.09-.043-28.631.084-.479.002-.659.038-1.083-.202-.393-.986-.184-2.17-.156-3.222Z" fill="#FAE6DB"/><path d="M177.668 102.711c1.542.054 3.084.075 4.627.064-.709 1.653-3.263 3.72-4.463 5.176-.023-.984.013-2.032-.115-3.007l-.049-2.233Z" fill="#97BAEF"/><path d="M182.298 102.771c4.056.009 9.876.342 13.755-.107-.217 6.346-.023 12.751-.012 19.103.004 2.517.262 5.412-.103 7.88-.256-2.852-.078-5.851-.077-8.717l-.02-16.356c-4.678 4.485-8.756 9.648-13.234 14.335-.685.716-4.514 4.193-4.705 4.594-.174.368-.212 1.044-.287 1.454-.114-3.467-.008-6.978-.004-10.45.004-3.167-.116-6.408.109-9.566.129.975.092 2.022.115 3.007 1.2-1.456 3.754-3.523 4.463-5.177Z" fill="#A1C0F2"/><path d="M177.615 124.961c.075-.41.113-1.086.287-1.455.191-.401 4.02-3.877 4.705-4.593 4.478-4.687 8.556-9.85 13.234-14.335l.02 16.356c-.001 2.866-.179 5.865.077 8.717-6.108.139-12.234.046-18.344.05l.021-4.74Z" fill="#97BAEF"/><path d="M27.969 105.631c8.42-.215 16.893.013 25.319.023 9.398.011 18.832-.169 28.224.024l-.04 1.879c-9.584.191-19.206.028-28.793.004-8.094-.02-16.181.115-24.276-.001l-.434-1.929ZM250.096 105.849c9.541-.127 19.089-.054 28.631-.085 8.793-.028 17.62-.174 26.411.049l-.418 1.894-52.603.086c-.183 5.085-.068 10.166-.042 15.252l.026 19.156c.049 21.843-.081 43.686-.39 65.527-1.085.029-2.174.012-3.259.015l-.063-90.854-42.701.012c.015-.973-.034-1.931-.094-2.902 4.878-.247 9.883-.008 14.775-.008l29.815-.008c.028-1.138.044-2.255-.043-3.391-.091-1.567-.034-3.171-.045-4.743Z" fill="#E99E87"/><path d="M28.403 107.561c8.094.116 16.181-.019 24.275.001 9.588.024 19.21.188 28.794-.003l-.028 3.377a62.359 62.359 0 0 0-.053 3.391 107 107 0 0 0-.08 2.844l-.023 90.549c-4.554.028-9.109-.06-13.662.031-2.112-.11-4.279-.017-6.396-.017H49.226l-37.046-.008c.207-11.868.094-23.79.008-35.661l1.702-.192-.032 4.086.062.497c-.053 1.832.286 5.676-.177 7.27l.078.553c-.222 2.174-.103 4.457-.105 6.647l.05.389-.032 2.799-.012 2.224 11.204.001.008-2.28c.002-.92-.012-1.84-.042-2.759l.044-.354c-.189-2.198-.019-4.498-.041-6.711l-.038-.436c.253-2.384.078-4.932.067-7.331l.077-.49c-.042-2.326-.132-4.722.06-7.041l-.118-.529c-.923-.639-4.905-.302-6.227-.281.325-.433.643-.872.954-1.317 8.619-12.389 11.149-32.343 10.308-47.084-.233-4.09-.843-8.139-1.575-12.165Zm26.167 20.363c-1.642-.39-3.83-.156-5.54-.179l.014 8.577.022.418c-.007 2.039.074 4.129-.053 6.162l.04.631c-.007 2.257.082 4.564-.046 6.815l.052.496-.025 2-.006 2.336c3.617.124 7.277.017 10.898.013l-.003-2.405-.042-2.017.052-.525c-.165-2.196-.045-4.482-.046-6.689l.028-.698a219.773 219.773 0 0 1-.028-6.098l.085-.462c-.23-2.767-.047-5.674-.028-8.456-1.605-.035-3.523-.259-5.085.086l-.289-.005Zm22.913.616-.02-.47c-.873-.504-9.663-.268-11.256-.233-.197.331-.15.548-.114.921.025 2.543-.046 5.126.1 7.663l.017.31-.05 6.134.028.823c-.004 2.203.128 4.502-.043 6.693l.07.391c-.013.698-.045 1.401-.038 2.099l.018 2.356c3.732.002 7.476.07 11.206-.028l.012-2.319-.05-2.156.04-.389-.02-6.799.04-.658c-.107-2.026-.023-4.092-.059-6.124l.06-.343c-.07-2.608-.04-5.265.058-7.871Zm-46.115-.653-.024 8.554.036.317c-.056 2.045.117 4.23-.11 6.251l.094.474c-.161 2.288.005 4.592-.162 6.872l.041.509-.113 2.071a19.25 19.25 0 0 0-.083 2.137c3.551.332 7.304.147 10.874.105l-.004-2.29-.03-2.025.055-.477c-.05-2.307.01-4.618.04-6.924l.026-.403c-.18-2.051 0-4.25.019-6.314l.09-.328c-.13-2.742-.213-5.821.146-8.536l-10.895.007Zm23.745 40.312c-1.517-.063-4.618-.528-5.96.115-.025.199-.061.374-.032.573.048 2.33.286 4.942-.033 7.248l.116.376c.002 2.309.262 4.979-.096 7.246l.043.541c.015 2.158.202 4.489-.065 6.63l.042.426.026 2.693.043 2.285 10.79-.003-.066-2.28-.043-2.72.017-.5c-.21-2.121-.054-4.344-.027-6.475l.023-.71c-.256-2.279-.057-4.722-.023-7.016l.03-.646.018-7.872c-1.6-.002-3.209-.041-4.803.089Zm16.447-.078c-1.383-.013-4.034-.4-5.252.214-.107.342-.105.469-.078.815.007 2.215.207 4.673-.089 6.859l.129.629a263.946 263.946 0 0 0-.04 7.018l.023.671c-.087 2.198-.023 4.392.025 6.589l.053.425c-.06.934-.046 1.846-.013 2.78l-.001 2.217 11.198-.006-.07-2.258-.078-2.731-.04-.411c.217-2.11.053-4.396.056-6.525l-.002-.704c-.124-2.34-.025-4.72.01-7.062.119-2.841-.013-5.708.074-8.556-1.968.026-3.937.038-5.905.036Zm-40.19.179c-.065 2.543-.011 5.1-.012 7.644l.032.505c-.028 2.367.186 4.907-.059 7.244l.06.594c-.03 2.202.04 4.433-.06 6.63l.045.394a58.082 58.082 0 0 1-.13 2.806c-.01.708-.04 1.421-.018 2.128 3.566.037 7.132.043 10.698.018l.048-2.141c.02-.924.01-1.831-.04-2.754l-.08-.417c.398-2.036.146-4.586.162-6.677l-.013-.551c.036-2.45.052-4.899.046-7.349l.113-.388c-.13-2.537.011-5.143.018-7.69a201.89 201.89 0 0 1-10.81.004ZM252.121 107.797l52.604-.086c-3.442 15.449-2.871 42.446 5.818 56.061 1.074 1.682 2.329 3.237 3.616 4.758l-.366.126c-1.74-.131-3.478-.087-5.218-.171.007 2.327.08 4.673.016 6.998l.009 1.062c.038 2.345.114 4.73-.003 7.073l-.026 1.044c.049 2.469.137 4.985-.069 7.448l.023.362-.051 1.273c-.03.753-.077 1.51-.077 2.263l11.971.005c-.048 3.914-.108 7.855-.002 11.767-2.081.543-7.88.099-10.417.092l-27.739-.006-8.665-.032c-1.494-.006-3.084-.116-4.566.031-1.97-.173-4.03-.077-6.01-.086l-11.254-.047c.309-21.841.439-43.684.39-65.527l-.026-19.156c-.025-5.086-.141-10.167.042-15.252Zm9.228 20.258c-1.059-.277-4.265-.466-5.238-.009-.051.024-.095.06-.142.09l-.091.423c.08 2.551-.029 5.103.031 7.651l-.014.373a311.277 311.277 0 0 0-.079 6.034l.035.228-.088.804.087.374c-.002 1.8.201 3.917-.09 5.672l.1.476c-.023.852-.002 1.729-.096 2.575-.322.224-.399.242-.461.655-.078.527.012 1.132.049 1.663 4.179.003 8.376.085 12.553-.017.031-.698.149-1.472-.108-2.134-.243-.173-.317-.219-.622-.28-.146-.757-.046-1.644-.036-2.418l.018-.556c-.12-1.897.019-3.89.046-5.795l.006-.433.093-.403-.075-.53c.012-1.972.012-3.944 0-5.916l.074-.369c-.171-2.606-.01-5.333.076-7.948-.095-.213-.018-.088-.311-.311-1.665-.105-3.565-.164-5.217.072l-.5.029Zm16.943-.038c-1.059-.186-4.689-.459-5.545.088-.017 2.695.131 5.476-.048 8.158l.071.317c-.167 2.018-.095 4.071-.094 6.096l.076.172-.039.74-.002.41c.005 1.808.218 3.955-.049 5.723l.091.545c-.043.865-.04 1.756-.17 2.611-.155.697-.092 1.506-.104 2.222l12.407-.005c.03-.607.077-1.196-.02-1.799-.314-.422-.451-.379-.949-.495l.041-2.467c.303-1.058.064-5.481-.009-6.832l.092-.611c-.077-2.139-.029-4.292-.023-6.433l.032-.3c-.027-2.694-.022-5.388.015-8.082-.095-.054-.181-.127-.284-.162-.675-.226-4.368-.081-5.076.12l-.413-.016Zm18.005-.108-5.597-.005c-.009 2.318-.326 6.807.058 8.949.011 1.947.004 3.894-.021 5.84l.03.273-.034.671.07.326c0 1.79.239 4.08-.093 5.806l.072.582c-.053.854-.074 1.727-.163 2.577-.054.732-.107 1.454-.095 2.189 3.852.099 7.784.171 11.633-.009-.045-.644-.004-1.47-.259-2.063-.315-.831-.191-1.868-.183-2.745l.051-.511c-.192-1.867-.064-3.884-.068-5.768l.056-.467.024-.45-.076-.421.018-5.947.026-.118c.385-1.811.054-4.291.017-6.164-.022-.844.043-1.678.104-2.519a121.823 121.823 0 0 0-4.985.026l-.585-.052Zm-17.628 40.349-.32.091c-.791-.263-4.31-.383-5.085-.145-.103.032-.189.103-.283.155l-.078.284c.097 2.225-.015 4.45.031 6.674l-.048 1.221c-.007 2.379-.09 4.784-.006 7.16l.011.954c-.044 2.604-.05 5.209-.02 7.813l.056.804c-.126.849-.062 1.765-.063 2.623 3.592.177 7.265.057 10.86.021a65.967 65.967 0 0 0-.029-2.706l.064-.713c-.154-2.619-.049-5.292-.047-7.917l.035-.8c-.132-2.421-.029-4.898-.032-7.325l.045-.552c-.096-2.456-.033-4.935.027-7.392-.915-.543-3.95-.186-5.118-.25Zm-16.864.126-.373.278c-.876-.715-4.33-.21-5.566-.27l.015 8.107c.008 2.443.193 5.057-.074 7.477l.087.508c-.024 2.652.122 5.36-.058 8.002l.075.767c-.009.873-.033 1.748-.014 2.621l11.198.011c.003-.858.037-1.729-.008-2.586l.042-.864c-.132-2.63-.03-5.296-.048-7.932l.03-.555.002-.153c-.053-2.477.036-4.972.07-7.451l.04-.367c.003-2.471.02-4.941.051-7.412-.774-.498-4.243-.02-5.469-.181Zm34.414.047c-1.737-.164-3.621-.124-5.361-.013l-.121.237c.062 2.414.223 4.959-.035 7.359l.081.384c.014 2.479.193 5.1-.023 7.564l.076.418c-.015 2.63.177 5.415-.062 8.021l.092.85a50.297 50.297 0 0 0-.037 2.691c3.691.013 7.396.089 11.086.018l.008-2.449-.083-.804-.012-.308c.162-2.613.043-5.292.039-7.912l.041-.644c-.189-2.396-.036-4.915-.037-7.325l.034-1.044c-.032-2.334.008-4.673.013-7.006a243.466 243.466 0 0 0-5.337.027l-.362-.064Z" fill="#E9B49C"/><path d="m205.617 110.603 44.523-.013c.088 1.135.072 2.253.044 3.39l-29.815.009c-4.892-.001-9.897-.239-14.775.008-.255-.968-.098-2.388.023-3.394ZM81.395 114.325a62.327 62.327 0 0 1 .053-3.391l45.879.002c.066 1.119.091 2.21.043 3.331l-41.863.047-4.112.011Z" fill="#FAE6DB"/><path d="m81.396 114.327 4.112-.011.024 2.823c-1.405.023-2.81.033-4.216.031.014-.948.04-1.896.08-2.843Z" fill="#F37E60"/><path d="m85.508 114.321 41.863-.048c-.097.947-.102 1.867-.092 2.817-8.634.087-17.268.122-25.903.105-5.262-.006-10.578.133-15.833-.086l-.03 58.542c-.013 10.681-.258 21.412-.007 32.087l-4.213-.014.023-90.549c1.406.002 2.81-.009 4.216-.032l-.024-2.822Z" fill="#E99E87"/><path d="M127.369 114.273c.33 4.49.078 9.175.081 13.681.008 11.37-.263 22.794.002 34.158l-2.688-.017c.01 1.84-.027 3.694.057 5.531l7.383-.022c-.157 14.613.047 29.233.025 43.847l-3.027.002a1377.596 1377.596 0 0 0-5.022-13.321c-.885-2.332-1.916-4.671-2.568-7.079.147-2.155.089-4.353.102-6.514-.132-2.096-.075-4.226-.082-6.328l.021-1.677.051-.491c-.21-2.559-.032-5.262-.048-7.84-3.702.024-7.404.021-11.106-.008.281 2.466.137 5.302.052 7.786l.095.51c-.013 2.313.177 4.852-.094 7.139l.058.801c-.024 2.127.037 4.291-.087 6.411l.03.411-.103 2.743-.037 2.272c2.083.021 4.166.021 6.249.002-1.56 3.813-2.996 7.697-4.413 11.565-1.797.026-3.595.017-5.392-.027-.486-.585-.947-1.252-1.546-1.727-.628-.498-1.427-.843-2.241-.736-1.371.18-2.225 1.397-2.977 2.426l-14.64-.033c-.252-10.675-.007-21.406.007-32.087l.03-58.542c5.255.219 10.57.08 15.832.086 8.635.017 17.27-.018 25.904-.105-.01-.95-.006-1.87.092-2.817ZM93.19 127.871l.007 8.366.018.456c.002 2.065-.011 4.13-.038 6.195l.037.517c-.003 2.249.105 4.56-.032 6.801l.036.463-.029 2.381.003 2.305c3.623.035 7.246.025 10.869-.031l.015-2.328-.028-2.313.059-.526c-.202-2.075-.028-4.316-.034-6.411l.057-.518-.046-.363c.022-2.084.015-4.169-.021-6.254l.05-.375c-.04-2.782-.02-5.566.059-8.347-3.661.032-7.322.026-10.982-.018Zm17.301-.072c-.112 2.793-.007 5.618-.021 8.415l.061.421a358.196 358.196 0 0 0-.031 6.22l.046.388a235.964 235.964 0 0 0-.032 6.938l.047.469-.055 2.086.018 2.532c3.769.055 7.537.066 11.305.034l.017-2.575a48.705 48.705 0 0 0-.104-2.058l.063-.435c-.211-2.249-.027-4.622-.07-6.891l.029-.484c-.108-2.029-.033-4.104-.047-6.139l.041-.491c-.106-2.781-.002-5.601.057-8.384-3.774.087-7.55.072-11.324-.046Zm-6.278 48.162c-.015-2.586.057-5.186-.018-7.769l-10.84-.008c.002 2.567.17 5.251-.03 7.804l.08.611c-.014 2.331.059 4.697-.058 7.023l.01.975c.006 2.084.114 4.224-.006 6.301l.046.397c-.011.95-.046 1.904.007 2.854l.042 2.197 10.752.012-.001-2.281c-.002-.934-.006-1.851-.104-2.78l.066-.362c-.185-2.118-.04-4.331.022-6.456l-.01-.817c-.152-2.334-.037-4.73.003-7.067l.039-.634ZM205.688 116.903l42.7-.012.064 90.854-16.536.013-1.029-1.511c-1.599-.634-3.241-1.124-4.921-.427-1.231.511-1.984 1.385-2.708 2.464-1.318-.206-2.659-.281-3.988-.386a531.003 531.003 0 0 1-2.578-11.613c2.302.067 4.611.016 6.914-.002 0-.793.092-1.685-.163-2.441-.334-3.063-.058-6.461-.048-9.557l.034-.338c-.154-2.563-.038-5.199-.033-7.769l.007-.515.028-7.279c-1.764-.051-3.573-.048-5.332.08l-.366.028c-1.618-.486-3.963-.194-5.686-.188l-.027 11.753c-.002 2.101-.162 4.359.126 6.433l.048.167c-.489.647-.871 1.241-1.155 2.006-1.18 3.186-1.804 6.729-2.622 10.027-1.042 4.198-2.261 8.379-3.165 12.607-1.685-.021-3.414-.123-5.093.027-.23.225-.186.114-.232.274-.2-1.599-.086-3.334-.085-4.95l.006-8.936-.027-30.14c2.891.039 5.788.007 8.681.008l-.011-5.365-2.702.003-.101-45.315Zm12.408 11.048-.565.117c-.98-.402-4.21-.175-5.389-.097l-.143.214c.034 2.611.143 5.276-.008 7.883l.082.445-.023 11.767c-.006 1.256-.3 3.117.005 4.304l-.03.116c-.385.308-.405.325-.459.838-.054.513-.012 1.051.009 1.566 1.706.008 11.655.332 12.284-.26.116-.61.088-1.482-.291-2.001-.031-.043-.073-.077-.11-.116-.386-3.229-.058-7.82-.048-11.227v-4.938l.103-.462c-.271-2.595-.128-5.543.061-8.15-1.825.022-3.653.066-5.478.001Zm16.479.022c-1.243-.005-4.48-.434-5.495.182l-.033.456c-.049 2.471.126 5.022-.065 7.476l.064.49c-.019 2.043-.017 4.087.007 6.13l.046.139-.063.74.007.484c.007 1.859.065 3.735.009 5.592l.036 1.947-.071 1.108c-.176.815-.146 1.581-.127 2.408l11.75-.011c.029-.738.138-1.517-.112-2.223l-.214-.19c.072-.994-.026-2.05-.053-3.049l-.025-5.765.052-.348-.072-.628c.154-2.073.058-4.245.015-6.326l.067-.353c-.143-2.186-.041-4.433.007-6.623.048-.557.13-1.077-.034-1.623-1.655-.247-3.633-.15-5.307-.02l-.389.007Zm-3.114 40.382-2.291-.055c-.002 2.385.088 4.809-.02 7.189l.003 1.047c-.012 2.351.058 4.734-.056 7.081l-.026 1.054c.012 2.654.107 5.337-.007 7.987l-.048 1.105c-.022.827-.002 1.66-.002 2.488 3.675.039 7.351.037 11.026-.006l.005-2.544.02-1.073c-.293-2.601-.077-5.378-.016-7.99l.019-1.037c-.071-2.372-.022-4.746.003-7.119l.03-1.009c-.089-2.323.009-4.682.051-7.006-.693-.405-4.191-.217-5.053-.016l-.588.039c-.809-.373-2.183-.216-3.05-.135Z" fill="#E9B49C"/><path d="M137.335 122.934c.124.155.286.286.373.465.327.677.301 4.916.156 5.72-.036.203-.056.23-.127.394l-.391.077c-.276-2.118-.034-4.514-.011-6.656Z" fill="#89A2D8"/><path d="m320.508 172.068.058-15.723c.001-1.51.279-3.717-.055-5.153-.344-1.482-2.229-4.799-2.947-6.315-.614-1.296-2.208-4.011-2.31-5.367-.031-.413.127-.672.351-1 .383-.208.381-.201.809-.112 1.007 1.03 3.463 7.047 4.16 8.665l.108-14.826c.015-1.725-.164-3.55-.071-5.255.026-.467.115-.813.342-1.22.369-.243.4-.231.846-.207.404.253.512.257.612.747.339 1.65.018 8.338.09 10.599l.104-.165c1.16-1.889 3.646-9.155 5.196-9.68.364.248.466.28.532.748.301 2.157-5.22 11.231-5.886 14.173-.502 2.22-.121 7.676-.11 10.201.03 6.613-.08 13.251.088 19.861l-1.917.029Z" fill="#7C5452"/><path d="M49.031 127.745c1.71.022 3.898-.212 5.54.178-.66 2.521-.14 5.78-.272 8.415-1.642-.271-3.594-.094-5.254-.017l-.014-8.576ZM54.867 127.924c1.562-.345 3.48-.121 5.085-.086-.019 2.782-.202 5.689.028 8.456-1.552-.048-3.468-.277-4.97.092-.096-2.73.357-5.785-.143-8.462Z" fill="#A1C0F2"/><path d="M71.47 128.423c-1.028.192-4.905-.089-5.371.334-.037-.374-.083-.59.114-.921 1.593-.035 10.383-.272 11.255.232l.02.47-4.843.011c-.004 2.603.145 5.301-.033 7.891l-.144.319-.155-.092c.247-1.52.253-6.108-.03-7.695-.07-.4-.053-.425-.403-.661l-.41.112Z" fill="#89A2D8"/><path d="M110.473 136.212c.014-2.797-.091-5.623.021-8.415 3.774.117 7.55.133 11.324.046-.059 2.783-.163 5.603-.057 8.384-.882-.016-4.513-.331-5.042.223-.045.047-.081.102-.122.153l-.134.043c-.024-1.446.344-7.207-.278-8.138l-.387-.025c-.419.704-.194 6.431-.197 7.679-1.676-.15-3.454-.105-5.128.05ZM31.348 136.44l.023-8.554 10.896-.007c-.36 2.715-.276 5.794-.147 8.535-1.074-.017-4.41-.365-5.162.279l-.1.005c.014-2.76.092-5.541-.104-8.294l-.174-.115c-.737 1.483-.381 6.329-.405 8.148-1.607-.035-3.22-.001-4.827.003Z" fill="#A1C0F2"/><path d="m54.573 127.922.289.005c.5 2.677.047 5.732.143 8.461l-.013.251c-.083 2.058-.205 4.251.032 6.298l-.034.535c-.032 2.085-.36 4.84.112 6.856l.035.423c-.022.667-.059 1.338-.057 2.005 1.612-.014 3.236-.068 4.846.029l.002 2.405c-3.62.005-7.28.112-10.897-.012l.006-2.337c1.702-.187 3.449-.123 5.154-.007l-.03-2.004V143.424l-.007-.445c.012-2.104-.006-4.212.124-6.312l.023-.33c.132-2.635-.388-5.895.272-8.415Z" fill="#FEFEFE"/><path d="M98.982 132.074c-.005-.943.214-2.669-.23-3.45l-.261.009c-.406.806-.171 6.411-.162 7.584l-5.135.016-.007-8.366c3.66.044 7.322.049 10.982.018a195.186 195.186 0 0 0-.059 8.347c-1.601-.017-3.439-.201-4.998.162.002-1.444.017-2.881-.13-4.32Z" fill="#A1C0F2"/><path d="m212.001 128.185.142-.215c1.179-.078 4.41-.304 5.389.098a107.308 107.308 0 0 0-.057 8.395l-.207.085-5.085.02-.108-.055-.083-.446 5.39.01-.006-7.879c-1.788.039-3.59.113-5.375-.013Z" fill="#5D72AF"/><path d="M218.098 127.946c1.825.065 3.653.021 5.478-.001-.189 2.607-.332 5.554-.061 8.15-1.742-.02-3.624-.144-5.348.067.019-2.739-.004-5.478-.069-8.216Z" fill="#A1C0F2"/><path d="m229.047 128.612.032-.456c1.016-.616 4.252-.187 5.496-.182l-.12.678c-1.8-.188-3.627.173-5.408-.04Z" fill="#97BAEF"/><path d="m234.575 127.972.389-.007c-.003 2.702-.274 5.767.122 8.424l-.004.195c.004.515-.035 1.079.059 1.583-.023 1.109-.368 3.844.2 4.715l.306.041 4.569-.013.071.628c-1.707.011-3.429.07-5.134.016-.011 2.534-.347 6.818.099 9.156 1.593.07 3.179.028 4.772-.011l.29.001.214.191c.25.706.14 1.484.112 2.222l-11.751.011c-.018-.827-.048-1.593.128-2.408 1.745.005 3.497-.019 5.242.016.472-.685.194-14.068.186-16.283l.092-.347c-.214-2.44-.045-4.993-.082-7.452l.12-.678Z" fill="#FEFEFE"/><path d="M234.964 127.965c1.674-.13 3.652-.228 5.307.02.163.546.082 1.066.034 1.623l-.065-1.21c-1.059-.413-3.659-.012-4.952-.09l.017 7.938-.219.143c-.395-2.658-.125-5.722-.122-8.424Z" fill="#8794BD"/><path d="m255.879 128.555.091-.424c.047-.03.092-.066.142-.09.974-.457 4.18-.268 5.238.009-.111 2.707-.057 5.428-.052 8.138l-.339-.058c-.017-2.547-.006-5.093.03-7.64-1.71.078-3.399.096-5.11.065Z" fill="#89A2D8"/><path d="M261.848 128.023c1.652-.236 3.551-.176 5.216-.072.294.223.216.099.311.311a53.816 53.816 0 0 1-5.188.248c.198 2.498.279 5.213.018 7.708l-.224.025c-.008-2.687.194-5.558-.133-8.22Z" fill="#97BAEF"/><path d="M272.745 128.104c.857-.547 4.486-.274 5.546-.087l-.019 16.346c.004 2.337.355 6.377-.165 8.499-.353-.734-.205-1.836-.197-2.642a98.566 98.566 0 0 0-5.158.046l-.092-.545c1.713-.172 3.527-.049 5.252-.047l.012-5.689c-1.733.073-3.48.02-5.214.012l.002-.409c.899.006 4.561.247 5.189-.261l-.112-.229c-1.495-.481-3.461-.263-5.039-.25l-.076-.173c1.726.089 3.507.014 5.238.018-.009-2.084-.027-4.166.046-6.249l.024-.126c-.303-.287-3.723-.121-4.364-.157 1.301-.277 2.957-.087 4.294-.08a360.01 360.01 0 0 0-.01-7.846c-1.49.111-3.817.558-5.157-.131ZM278.699 128.031c.708-.201 4.401-.346 5.076-.119.103.035.189.108.283.161-1.669.192-3.262.367-4.949.351.014 2.481.329 5.466-.13 7.879l.089.295c.046 2.03.056 4.061.031 6.092 1.592-.012 3.193.012 4.785-.045.009-1.882.279-4.247-.055-6.072l.183-.117c-.006 2.14-.054 4.293.023 6.432-1.731-.035-3.47.014-5.202.03-.091-4.915.314-10.003-.134-14.887Z" fill="#99A4BE"/><path d="m290.698 127.895 5.597.005-.048 18.726c0 1.18.242 4.973-.015 5.909-.038.136-.144.244-.216.366-.367-.763-.225-1.758-.211-2.586l-5.025.027-.072-.582c1.697-.021 3.399-.07 5.096-.024l-.003-5.899c-1.662.152-3.332.12-5 .117l-.07-.326c1.734-.24 3.512.155 5.223-.418-1.177-.602-3.89-.306-5.189-.253l-.03-.273 5.137-.028c-.167-2.013-.023-4.117.102-6.132l.05-.094-.085-.165a70.483 70.483 0 0 0-2.476-.067c.811-.15 1.639-.107 2.461-.101.143-2.538.123-5.084.136-7.625l-5.225.031c-.071 2.593.057 5.19-.065 7.783l.226.306-.24.252c-.384-2.142-.068-6.631-.058-8.949Z" fill="#8794BD"/><path d="m296.291 127.906.584.053.034 1.012c-.39 4.627-.07 9.438-.093 14.088 1.645 0 3.314-.059 4.956.043l-.025.449c-1.079-.014-4.076-.376-4.832.306-.38 1.664-.229 4.262.002 5.943l.02.532c-.019.867-.053 1.703.089 2.562 1.38.423 3.406.157 4.865.149.255.592.215 1.419.259 2.062-3.848.181-7.781.109-11.633.009-.012-.735.042-1.456.096-2.188a236.91 236.91 0 0 1 5.398-.019c.072-.122.179-.229.216-.365.258-.936.015-4.729.015-5.909l.049-18.727Z" fill="#FEFEFE"/><path d="M296.875 127.958c1.661-.043 3.323-.051 4.985-.026-.061.841-.126 1.675-.104 2.519l-.053 5.648c-1.465.03-3.331-.143-4.729.273.018-2.448.129-4.962-.065-7.402l-.034-1.012Z" fill="#A1C0F2"/><path d="m217.531 128.063.564-.118c.066 2.739.089 5.477.07 8.217l.002.32c-.056 1.945-.325 4.383.051 6.282.087.027.173.057.26.083 1.49.433 3.32-.447 4.788.304l-.029.216c-.983.461-3.773.192-4.906.168-.001 1.472-.261 8.384.229 9.199l4.715-.018.183.006c.037.038.079.072.11.115.378.52.407 1.392.291 2.001-.629.593-10.578.269-12.285.26-.02-.514-.063-1.053-.009-1.565.055-.513.075-.53.46-.839 1.771.031 3.542.036 5.313.014.602-1.259.136-7.338.188-9.169-1.606.061-3.364.257-4.934-.12-.214-.052-.126.001-.258-.213 1.4-.648 3.636-.346 5.167-.305l-.027-6.443c-.088-2.772-.076-5.626.057-8.395ZM261.346 128.048l.501-.028c.327 2.661.125 5.532.133 8.22l.003.218.021.457a145.29 145.29 0 0 0-.026 5.978c1.482-.014 3.951-.355 5.321.129l-.092.403c-1.737.127-3.471.104-5.211.096-.013 1.5-.394 8.39.191 9.227 1.634-.003 3.371.114 4.986-.121.305.061.378.106.621.28.258.662.139 1.435.109 2.134-4.178.101-8.375.02-12.553.017-.038-.532-.128-1.137-.049-1.664.061-.412.139-.431.461-.654 1.785.043 3.569-.027 5.353.005.518-.874.177-13.924.167-16.289l.012-.27c-.005-2.709-.059-5.43.052-8.138Z" fill="#FEFEFE"/><path d="M272.747 128.098c1.34.688 3.667.242 5.157.13.032 2.615.035 5.231.009 7.846-1.336-.007-2.992-.197-4.293.08l-.921.102c.179-2.682.031-5.463.048-8.158Z" fill="#A1C0F2"/><path d="m278.285 128.016.413.015c.448 4.884.042 9.972.134 14.887 1.732-.016 3.471-.066 5.202-.03l-.092.612a88.658 88.658 0 0 1-4.999.066c.011 2.242.182 4.621-.033 6.846l-.007 2.387c1.667-.028 3.343-.096 5.007 0 .498.115.635.072.949.494.097.604.05 1.192.02 1.8l-12.408.004c.012-.715-.05-1.524.104-2.222 1.842-.05 3.685-.055 5.527-.014.52-2.122.168-6.162.165-8.499l.018-16.346Z" fill="#FEFEFE"/><path d="M279.111 128.421c1.686.016 3.28-.159 4.949-.351a345.625 345.625 0 0 0-.014 8.082c-1.649.028-3.441-.075-5.066.148.46-2.413.144-5.398.131-7.879Z" fill="#A1C0F2"/><path d="M36.171 136.437c.023-1.819-.332-6.665.405-8.148l.174.115c.196 2.753.118 5.534.105 8.294l-.108.178-.331.247c-.08.646.12 2.508-.206 2.963a88.036 88.036 0 0 0-.04-3.334l.001-.315ZM71.468 128.421l.41-.112c.35.236.333.261.404.661.283 1.587.276 6.175.03 7.695-.28.138-.58.259-.83.446l-.06-.36.017-.259c.12-2.674.024-5.392.03-8.071Z" fill="#fff"/><path d="M212.001 128.184c1.785.126 3.587.052 5.375.013l.006 7.879-5.39-.01c.152-2.607.042-5.272.009-7.882ZM235.285 128.303c1.293.078 3.893-.323 4.952.09l.064 1.21c-.047 2.19-.149 4.437-.007 6.623a96.603 96.603 0 0 0-4.992.015l-.017-7.938ZM262.18 128.509c1.756.006 3.44-.086 5.188-.247-.085 2.615-.247 5.341-.076 7.947-1.692-.089-3.4-.017-5.094.009.261-2.496.179-5.21-.018-7.709Z" fill="#A1C0F2"/><path d="M115.597 136.16c.002-1.248-.223-6.976.197-7.68l.386.026c.622.931.254 6.692.278 8.138.029 2.736.011 5.472-.053 8.208-.027 1.777-.16 3.679.057 5.444l.007.25-.022 2.19 5.398-.013-.017 2.575c-3.769.032-7.537.021-11.305-.034l-.019-2.532h5.11l-.024-2.148.013-.32c.094-2.351.039-4.71-.012-7.062l-.016-.339c.057-2.083.063-4.166.019-6.249l.003-.454Z" fill="#FEFEFE"/><path d="M255.91 136.203c-.06-2.548.049-5.099-.031-7.651 1.711.032 3.4.014 5.11-.064a367.123 367.123 0 0 0-.03 7.64c-1.679.023-3.372.006-5.049.075ZM290.766 136.29c.122-2.593-.006-5.189.064-7.782l5.225-.031c-.012 2.54.007 5.087-.136 7.624-.821-.005-1.65-.049-2.461.101a36.617 36.617 0 0 0-2.692.088ZM66.098 128.763c.466-.423 4.343-.141 5.37-.333-.004 2.678.092 5.397-.028 8.07-1.578-.343-3.617-.094-5.242-.074-.147-2.537-.076-5.12-.1-7.663ZM72.643 128.55l4.843-.011c-.1 2.606-.13 5.263-.059 7.871-1.604-.02-3.213.019-4.818.031.18-2.59.03-5.289.034-7.891Z" fill="#A1C0F2"/><path d="M98.33 136.214c-.01-1.172-.244-6.778.162-7.584l.262-.009c.443.782.224 2.507.23 3.45-.12 3.435-.31 7.345.142 10.744l-.019.988a49.404 49.404 0 0 0 .028 6.346l.1 2.67c1.427.386 3.338.143 4.84.17l-.016 2.328c-3.623.056-7.246.066-10.87.031l-.001-2.305c1.688.017 3.378-.006 5.066-.068.252-.805.15-1.858.164-2.704-.147-4.535.129-9.096-.13-13.626l.042-.431Z" fill="url(#b)"/><path d="M229.046 128.61c1.781.213 3.608-.148 5.408.04.037 2.459-.132 5.012.082 7.452-1.842-.103-3.71-.028-5.556-.016.192-2.454.016-5.005.066-7.476Z" fill="#A1C0F2"/><path d="M296.816 143.056c.023-4.649-.296-9.46.094-14.087.194 2.439.084 4.954.066 7.402.939.582 3.553.167 4.764.243l-.026.117-4.644.008c.019 2.027.073 4.06.021 6.086 1.536-.084 3.065-.173 4.605-.147l.076.422c-1.641-.102-3.311-.043-4.956-.044Z" fill="#B4BED6"/><path d="M301.762 130.449c.036 1.873.368 4.353-.017 6.164-1.211-.075-3.825.34-4.765-.242 1.398-.416 3.264-.244 4.729-.274l.053-5.648Z" fill="#5D72AF"/><path d="M137.7 131.504c3.846-.056 7.693-.09 11.539-.102 1.814-.012 3.843-.226 5.629.037.301.52.212 1.153.199 1.736-1.49.595-10.986 10.657-12.614 12.442-1.534 1.683-2.952 3.481-4.534 5.118-.026 1.961.153 4.294-.447 6.171-.434-.929-.298-5.871-.113-6.975.341-1.535.05-3.446.101-5.048.088-2.757.903-11.14.24-13.379Z" fill="#97BAEF"/><path d="m156.832 157.327.052-25.968c6.259.174 12.548.074 18.81.085.018 8.595-.148 17.188-.068 25.784-1.757.347-4.033.099-5.835.096l-12.959.003Z" fill="#A1C0F2"/><path d="m137.273 131.654.425-.146c.664 2.239-.152 10.622-.24 13.379-.051 1.602.24 3.513-.101 5.048-.053-4.042.003-8.094.004-12.136.001-2.029.108-4.129-.088-6.145Z" fill="#6683C2"/><path d="M177.488 157.323c.12-8.62.042-17.251.03-25.872l18.485-.025c-.119 8.604-.053 17.216-.071 25.822-1.929.237-4.093.054-6.038.054l-12.406.021Z" fill="#97BAEF"/><path d="m137.159 157.275.049-17.901c.015-2.508-.228-5.241.071-7.718.195 2.016.088 4.117.087 6.145-.001 4.042-.057 8.094-.004 12.136-.185 1.104-.321 6.047.114 6.975.599-1.877.42-4.21.446-6.171 1.582-1.636 3-3.435 4.534-5.118 1.628-1.785 11.124-11.847 12.614-12.442l-.072 24.148c-5.937-.139-11.899-.042-17.839-.054Z" fill="#A1C0F2"/><path d="M98.982 132.074c.147 1.439.132 2.876.13 4.32.68.539 3.938.229 4.949.214.036 2.084.043 4.169.021 6.253a99.589 99.589 0 0 0-4.733.049l-.223-.091c-.452-3.4-.262-7.31-.144-10.745Z" fill="#CCD7EE"/><path d="M12.188 172.063c-.63.037-1.261.055-1.882.177l-.116-9.801c-.016-2.1.164-4.434-.251-6.494-.446-2.212-1.551-4.419-2.333-6.544-1.156-3.144-2.208-6.315-3.28-9.488-.455-1.347-1.362-3.265-1.264-4.686.205-.246.315-.381.621-.504.287-.115.324-.03.59.078 1.032 1.185 4.96 13.92 5.86 16.5.049-3.185-.451-14.482.094-16.512.141-.525.322-.87.803-1.16l.368.103c.296.39.39.708.43 1.189.22 2.547.05 5.225.048 7.791l.01 14.774c.532-.704 1.452-2.268 2.242-2.617.432-.191.521-.15.931.01.202.252.377.428.435.758.106.598-2.891 3.617-3.42 4.297-.01 4.043.028 8.087.114 12.129Z" fill="#7C5452"/><path d="M110.473 136.209c1.674-.156 3.452-.201 5.128-.05l-.003.454c-1.687-.021-3.377.009-5.064.017l-.061-.421ZM218.164 136.172c1.724-.211 3.606-.087 5.348-.066l-.103.461c-1.741.004-3.506.065-5.242-.075l-.003-.32Z" fill="#6683C2"/><path d="M228.98 136.088c1.846-.011 3.714-.087 5.556.016l-.092.347-.19.106-5.209.021-.065-.49ZM260.953 136.129l.339.058-.012.27-.319.125-5.07-.004.014-.373c1.676-.07 3.369-.052 5.048-.076ZM278.98 136.305c1.625-.224 3.417-.121 5.066-.148l-.032.3-.184.118-4.76.024-.09-.294Z" fill="#5D72AF"/><path d="M49.043 136.324c1.66-.078 3.612-.254 5.254.017l-.023.33-.343.011-4.866.06-.022-.418ZM55.005 136.39c1.502-.369 3.418-.141 4.97-.092l-.085.462c-1.578.001-3.35.164-4.898-.12l.013-.25ZM93.2 136.235l5.134-.016-.041.431c-1.686.003-3.393-.052-5.075.041l-.019-.456Z" fill="#6683C2"/><path d="M99.117 136.395c1.558-.362 3.397-.179 4.998-.162l-.049.376c-1.011.015-4.27.325-4.949-.214ZM116.59 136.6c.04-.051.077-.106.122-.153.529-.553 4.159-.238 5.042-.223l-.042.492c-1.686-.079-3.462.158-5.122-.116ZM235.086 136.387l.219-.143a96.607 96.607 0 0 1 4.992-.015l-.066.354-5.149-.001.004-.195ZM261.977 136.241l.224-.025c1.694-.026 3.401-.098 5.094-.008l-.074.369c-1.668.013-3.62.228-5.241-.117l-.003-.219ZM272.699 136.262l.921-.102c.64.036 4.06-.129 4.364.157l-.025.126c-1.44.433-3.661.152-5.189.135l-.071-.316ZM290.766 136.292c.901-.06 1.788-.094 2.692-.088.826.008 1.651.03 2.476.067l.086.165-.05.094c-1.637.133-3.335.056-4.979.068l-.225-.306Z" fill="#5D72AF"/><path d="M31.348 136.437c1.607-.004 3.22-.039 4.827-.003v.315l-4.792.005-.035-.317Z" fill="#6683C2"/><path d="M36.96 136.696c.754-.644 4.088-.295 5.163-.278l-.09.329c-1.69.01-3.384.047-5.072-.051ZM66.2 136.426c1.624-.019 3.662-.269 5.24.075l-.017.259-5.208-.024-.016-.31ZM72.465 136.757l.143-.318c1.605-.012 3.213-.051 4.818-.031l-.06.344-4.901.005Z" fill="#5D72AF"/><path d="M218.169 136.492c1.737.14 3.501.079 5.243.076v4.938c-.037.278-.02.789-.232.977-1.16 1.028-3.9-.358-4.96.291-.376-1.898-.107-4.337-.051-6.282ZM261.98 136.469c1.622.345 3.574.13 5.242.117.011 1.972.011 3.944 0 5.916l-5.036.027c.161-1.496.505-4.264-.185-5.603l-.021-.457Z" fill="#CCD7EE"/><path d="m53.938 136.68.343-.012c-.13 2.101-.112 4.208-.123 6.312l-.215-.09c-.274-1.943-.28-4.268-.005-6.21Z" fill="#B4BED6"/><path d="M54.996 136.641c1.548.284 3.32.121 4.898.12-.018 2.033-.01 4.066.029 6.098-1.575.006-3.346-.153-4.894.08-.237-2.047-.115-4.24-.033-6.298ZM93.218 136.691c1.682-.093 3.39-.037 5.075-.041.258 4.53-.018 9.091.13 13.626l-.153.042c-1.359-.452-3.628-.133-5.085-.114.137-2.241.03-4.552.032-6.801 1.59-.014 3.138-.01 4.71-.27l.044-.124c-1.597-.146-3.19-.129-4.791-.123.027-2.065.04-4.13.038-6.195ZM110.53 136.626c1.687-.008 3.377-.038 5.064-.017.044 2.083.038 4.166-.019 6.249l-5.076-.013c-.008-2.073.002-4.146.031-6.219ZM116.462 136.641l.135-.043c1.66.274 3.436.036 5.122.115.014 2.035-.06 4.11.047 6.139-1.42-.003-3.696-.257-4.978.31 1.65.148 3.294.164 4.95.174.042 2.269-.141 4.641.069 6.891-1.671-.017-3.711-.253-5.341.066-.217-1.765-.084-3.667-.056-5.444.063-2.736.081-5.472.052-8.208Z" fill="#CCD7EE"/><path d="m212.074 136.519.108.055.018 6.113 4.999-.003c-.013-2.038-.09-4.098.069-6.13l.207-.085.027 6.443c-1.53-.041-3.766-.343-5.167.305.133.214.045.161.258.213 1.571.377 3.329.181 4.935.12-.052 1.831.413 7.91-.188 9.169-.288-.768-.187-1.66-.179-2.471-1.64.036-3.281.046-4.922.03.008.779.082 1.569-.182 2.312-.306-1.188-.012-3.048-.006-4.304l.023-11.767Zm.149 7.539-.023 5.698 5.006-.01.017-5.737-5 .049Z" fill="#97BAEF"/><path d="m212.18 136.567 5.085-.02c-.159 2.032-.082 4.092-.069 6.13l-4.999.003-.017-6.113ZM229.044 136.576l5.209-.021c-.123 2.034-.095 4.07-.089 6.107a67.58 67.58 0 0 1-5.113.045 291.39 291.39 0 0 1-.007-6.131Z" fill="#CCD7EE"/><path d="m234.258 136.551.191-.106c.007 2.216.286 15.598-.187 16.284-.229-.831-.158-1.699-.146-2.554-1.566-.02-3.18-.12-4.738.053-.258.341-.233.949-.287 1.377l-.036-1.948 5.074-.007.008-5.614a94.954 94.954 0 0 0-5.091.029l-.007-.484c1.029.013 4.226.309 4.965-.391-1.062-.69-3.628-.372-4.902-.348l-.046-.139c1.704.049 3.41.034 5.112-.045-.006-2.037-.033-4.073.09-6.107Z" fill="#97BAEF"/><path d="m235.083 136.586 5.149.001c.042 2.08.139 4.252-.015 6.325l-4.569.013c-.581-1.459-.029-3.197-.506-4.755-.094-.505-.055-1.069-.059-1.584ZM255.888 136.578l5.07.005-.008 5.968a191.52 191.52 0 0 1-5.141.061c.006-2.011.033-4.023.079-6.034Z" fill="#CCD7EE"/><path d="m260.961 136.578.319-.125c.01 2.364.351 15.415-.167 16.289-.242-.833-.174-1.698-.164-2.558l-2.526-.015.871-.151.192-.369 1.462-.088-.022-5.608-5.081.06-.087-.373c1.35-.2 4.381.351 5.412-.386l-.2-.218c-1.409-.534-3.603-.221-5.124-.2l-.035-.228a200.3 200.3 0 0 0 5.142-.061l.008-5.969Z" fill="#99A4BE"/><path d="M272.771 136.573c1.528.016 3.749.298 5.189-.135-.073 2.082-.055 4.164-.045 6.248-1.731-.003-3.513.072-5.239-.017-.001-2.025-.072-4.078.095-6.096ZM279.07 136.595l4.761-.025c.334 1.825.064 4.19.055 6.072-1.591.057-3.192.033-4.785.045.025-2.031.015-4.062-.031-6.092ZM290.995 136.6c1.644-.013 3.342.064 4.978-.069-.125 2.015-.269 4.119-.102 6.132l-5.137.028c.025-1.946.032-3.893.021-5.84l.24-.251ZM31.38 136.754l4.79-.004c.034 1.111.048 2.223.04 3.334-.012.941.065 2.008-.097 2.929a150.384 150.384 0 0 0-4.843-.008c.227-2.02.053-4.206.11-6.251ZM36.853 136.7l.1-.005c1.688.098 3.382.061 5.072.051-.018 2.064-.2 4.263-.018 6.314-1.238-.033-4.18-.411-5.155.247-.034-2.142.006-4.289-.106-6.429l.107-.178ZM49.065 136.739l4.865-.059c-.275 1.942-.269 4.267.006 6.21l-4.924.011c.127-2.033.046-4.123.053-6.162ZM66.21 136.73l5.208.024.06.36-.005 5.741-5.313.009.05-6.134Z" fill="#CCD7EE"/><path d="M71.477 137.114c.25-.188.55-.309.83-.446l.155.091a233.345 233.345 0 0 0-.027 6.131l.029.642c-.05 2.258-.11 4.549 0 6.804v.457l-.03 2.084 4.978.002-.012 2.319c-3.73.098-7.474.031-11.206.028l-.018-2.356 5.309.002-.03-2.067.025-.501a336.07 336.07 0 0 0-.028-6.653l.02-.796.005-5.741Z" fill="#FEFEFE"/><path d="m72.47 136.755 4.9-.005c.036 2.032-.047 4.098.06 6.124l-4.987.013c-.018-2.044-.01-4.088.026-6.132ZM297.07 136.739l4.644-.009-.018 5.948c-1.54-.027-3.069.062-4.605.147.052-2.026-.002-4.06-.021-6.086Z" fill="#CCD7EE"/><path d="M36.214 140.082c.325-.455.126-2.317.206-2.964l.331-.247c.111 2.139.072 4.287.106 6.429.266 2.336.04 4.763.14 7.12l.002 2.455 4.921.006.005 2.29c-3.57.042-7.323.227-10.875-.105-.014-.721.02-1.419.084-2.137 1.662-.093 3.342-.056 5.008-.064l-.019-2.029.027-.5c.024-2.281.06-4.561-.011-6.841l-.022-.485c.161-.921.085-1.988.097-2.928Z" fill="#FEFEFE"/><path d="M262.002 136.918c.69 1.339.346 4.107.185 5.603l5.036-.026.074.53c-1.37-.484-3.839-.143-5.321-.129-.032-1.993-.024-3.986.026-5.978ZM235.144 138.168c.477 1.558-.075 3.296.506 4.756l-.306-.041c-.568-.872-.223-3.607-.2-4.715Z" fill="#B4BED6"/><path d="M218.223 142.769c1.06-.65 3.799.736 4.96-.292.212-.188.194-.699.232-.977-.01 3.407-.338 7.997.048 11.227l-.183-.006-.037-2.398-4.569-.017c.018.824.049 1.618-.109 2.433-.49-.815-.23-7.728-.229-9.199 1.133.024 3.923.293 4.906-.168l.029-.216c-1.468-.751-3.298.129-4.788-.304-.087-.026-.173-.056-.26-.083Zm.476 1.194-.028 5.714 4.588-.055c.076-1.929.103-3.86.082-5.791-1.554.124-3.084.144-4.642.132Z" fill="#97BAEF"/><path d="m49.012 142.902 4.924-.011.214.09.007.446-.23.095-4.874.011-.041-.631Z" fill="#6683C2"/><path d="M55.026 142.936c1.549-.233 3.32-.074 4.894-.08l-.027.698-4.9-.083.033-.535ZM66.16 142.868l5.313-.009-.02.797c-1.755-.01-3.51.001-5.265.036l-.028-.824ZM72.441 142.892l4.987-.013-.04.658-4.918-.003-.029-.642ZM93.18 142.887c1.602-.006 3.194-.023 4.791.123l-.044.124c-1.572.259-3.12.256-4.71.27l-.037-.517Z" fill="#89A2D8"/><path d="m99.128 142.816.224.091c.709.645 3.693.277 4.779.315l-.058.518c-1.651.02-3.314.005-4.964.064l.02-.988Z" fill="#B4BED6"/><path d="M99.352 142.913a98.29 98.29 0 0 1 4.733-.048l.046.363c-1.086-.039-4.07.33-4.78-.315Z" fill="#6683C2"/><path d="m110.5 142.855 5.077.013.016.339c-1.683.112-3.362.067-5.047.037l-.046-.389Z" fill="#5D72AF"/><path d="M121.738 143.336c-1.655-.009-3.299-.026-4.949-.173 1.282-.568 3.558-.314 4.978-.31l-.029.483Z" fill="#6683C2"/><path d="M229.102 142.848c1.274-.024 3.84-.342 4.902.348-.739.7-3.936.404-4.965.391l.063-.739ZM255.846 142.841c1.521-.022 3.715-.334 5.124.2l.2.218c-1.031.737-4.062.186-5.412.386l.088-.804ZM272.749 142.845c1.578-.012 3.544-.231 5.04.251l.111.229c-.628.508-4.29.266-5.189.26l.038-.74ZM290.764 142.963c1.3-.053 4.012-.349 5.189.253-1.71.573-3.489.178-5.223.418l.034-.671Z" fill="#FEFEFE"/><path d="M31.27 143.004c1.614-.023 3.229-.021 4.843.008l.022.485-4.771-.018-.095-.475ZM36.86 143.303c.974-.658 3.917-.28 5.154-.247l-.026.402c-1.539.047-3.665.344-5.129-.155Z" fill="#6683C2"/><path d="M110.548 143.239c1.685.031 3.364.076 5.047-.036.05 2.352.106 4.711.011 7.062-1.641-.23-3.429-.09-5.09-.087-.023-2.313-.013-4.626.032-6.939ZM31.365 143.484l4.77.018c.072 2.281.036 4.56.012 6.841l-4.944.014c.167-2.281 0-4.584.162-6.873ZM36.86 143.309c1.463.499 3.589.202 5.128.154-.03 2.307-.09 4.618-.04 6.925-1.562-.01-3.273-.163-4.811.087l-.138-.046c-.1-2.358.126-4.784-.14-7.12ZM54.992 143.477l4.9.083c0 2.207-.12 4.492.046 6.689-1.611.054-3.223.082-4.834.084-.471-2.016-.144-4.771-.112-6.856ZM49.055 143.535l4.874-.012c-.019 2.166-.244 4.549-.012 6.691-1.52.328-3.342.126-4.91.136.129-2.251.04-4.559.048-6.815Z" fill="#CCD7EE"/><path d="m53.933 143.517.23-.095v6.737l-.242.049c-.232-2.142-.007-4.525.012-6.691Z" fill="#B4BED6"/><path d="m72.472 143.535 4.919.003.02 6.799-4.94.002c-.109-2.256-.048-4.546 0-6.804Z" fill="#CCD7EE"/><path d="M235.155 143.551c1.706.054 3.427-.005 5.134-.016l-.052.348c-1.615.045-3.231.072-4.847.079.034 1.91.12 3.831-.05 5.737l4.923-.051c.027 1 .124 2.055.053 3.05l-.29-.001.027-2.507-4.639-.007c.038.842.132 1.721-.16 2.524-.446-2.338-.11-6.622-.099-9.156Z" fill="#97BAEF"/><path d="M261.993 143.522c1.74.008 3.475.03 5.211-.096l-.007.433-4.991.031c.197 1.753.33 4.105-.039 5.835l-.03.457c.131.831.161 1.731.047 2.567-.585-.837-.203-7.727-.191-9.227Z" fill="#B4BED6"/><path d="M278.947 143.566c1.666.025 3.333.003 4.999-.066.073 1.351.312 5.774.009 6.831-1.274-.316-3.795-.248-5.041.081.215-2.225.045-4.604.033-6.846Zm.225.439c.049 1.915.06 3.831.032 5.746 1.538.055 3.072.043 4.61.028.241-1.884.105-3.894.107-5.794l-4.749.02Z" fill="#97BAEF"/><path d="M296.918 143.856c.755-.682 3.753-.32 4.832-.306l-.056.467c-1.484.022-3.347.241-4.776-.161Z" fill="#B4BED6"/><path d="M66.192 143.688c1.755-.034 3.51-.046 5.264-.036.031 2.217.04 4.435.028 6.652l-5.336.077c.172-2.191.04-4.49.044-6.693ZM99.116 143.806c1.65-.059 3.313-.043 4.964-.064.007 2.095-.167 4.337.034 6.411l-4.97-.001a49.422 49.422 0 0 1-.028-6.346ZM218.664 149.674l.029-5.713c1.558.011 3.087-.009 4.642-.133.021 1.931-.007 3.862-.083 5.791l-4.588.055ZM235.394 143.962a211.65 211.65 0 0 0 4.847-.079l.026 5.765-4.923.05c.171-1.905.084-3.826.05-5.736ZM255.848 144.017l5.08-.06.022 5.608-1.462.088a58.713 58.713 0 0 0-3.73.037c.29-1.756.088-3.872.09-5.673ZM262.207 143.887l4.991-.032c-.026 1.905-.166 3.899-.045 5.795-1.664-.005-3.323-.013-4.985.071.369-1.729.236-4.082.039-5.834ZM290.804 143.957c1.668.003 3.338.035 5.001-.117l.002 5.899c-1.697-.046-3.399.003-5.096.025.332-1.727.093-4.017.093-5.807ZM296.921 149.795c-.231-1.681-.382-4.279-.001-5.943 1.429.402 3.292.183 4.776.161.004 1.884-.124 3.901.067 5.768l-4.842.014ZM212.199 149.748l.024-5.698 5-.05-.017 5.738-5.007.01ZM229.043 144.07a96.053 96.053 0 0 1 5.092-.03l-.009 5.615-5.074.007c.056-1.857-.001-3.733-.009-5.592ZM272.71 143.993c1.734.007 3.481.06 5.214-.013l-.012 5.689c-1.725-.002-3.539-.124-5.252.047.267-1.768.054-3.916.05-5.723ZM279.204 149.746a142.9 142.9 0 0 0-.032-5.745l4.75-.021c-.003 1.901.133 3.911-.108 5.794-1.538.015-3.072.028-4.61-.028Z" fill="#CCD7EE"/><path d="M255.758 149.692a57.98 57.98 0 0 1 3.73-.037l-.191.369-.872.15-2.567-.007-.1-.475Z" fill="#6683C2"/><path d="m262.141 150.184.03-.458c1.662-.084 3.321-.076 4.984-.071l-.018.557c-1.663-.054-3.333-.026-4.996-.028Z" fill="#89A2D8"/><path d="m296.918 149.798 4.842-.013-.05.511a93.518 93.518 0 0 0-4.556.051l-.216-.016-.02-.533ZM49.008 150.349c1.567-.01 3.389.192 4.91-.136l.24-.049v.669l-5.098.012-.052-.496Z" fill="#6683C2"/><path d="M55.102 150.33c1.611-.002 3.222-.03 4.833-.084l-.052.524c-1.582.019-3.165.013-4.747-.017l-.034-.423Z" fill="#5D72AF"/><path d="M93.184 150.201c1.457-.019 3.726-.338 5.084.114-.266.325-.237.247-.62.293-1.468.079-2.957.044-4.428.057l-.036-.464Z" fill="#6683C2"/><path d="m99.133 150.156 4.971.001-.059.527c-1.551-.112-3.11-.019-4.664-.024.006.682.112 1.53-.148 2.166l-.1-2.67Z" fill="#8794BD"/><path d="M110.516 150.178c1.661-.003 3.448-.143 5.09.087l-.013.32c-1.664.149-3.361.074-5.031.062l-.046-.469Z" fill="#5D72AF"/><path d="M116.465 150.295c1.63-.319 3.67-.084 5.342-.066l-.064.435c-1.625.017-3.714.284-5.271-.119l-.007-.25Z" fill="#6683C2"/><path d="M212.054 152.584c.264-.743.189-1.532.182-2.311 1.641.015 3.282.005 4.922-.031-.008.811-.109 1.704.179 2.471-1.771.022-3.543.018-5.314-.013l.031-.116ZM229.09 151.609c.055-.427.03-1.036.287-1.376 1.559-.173 3.172-.073 4.739-.054-.012.855-.083 1.723.146 2.554-1.745-.035-3.497-.011-5.242-.015l.07-1.109ZM235.254 152.709c.292-.804.198-1.683.16-2.525l4.638.007-.026 2.507c-1.593.038-3.179.08-4.772.011ZM255.858 150.168l2.568.007 2.525.016c-.009.86-.078 1.725.165 2.558-1.784-.033-3.569.038-5.354-.006.093-.846.073-1.723.096-2.575ZM262.141 150.185c1.663.002 3.333-.026 4.996.028-.01.773-.109 1.661.037 2.418-1.616.235-3.353.117-4.987.12a9.006 9.006 0 0 0-.046-2.566ZM272.749 150.263a98.565 98.565 0 0 1 5.158-.045c-.008.806-.156 1.908.197 2.642a110.658 110.658 0 0 0-5.526.014c.131-.854.128-1.746.171-2.611ZM278.913 150.407c1.245-.329 3.767-.397 5.04-.081l-.04 2.468c-1.665-.097-3.341-.028-5.007 0l.007-2.387Z" fill="#CCD7EE"/><path d="m31.203 150.357 4.944-.013-.026.5-4.877.022-.04-.509ZM37.137 150.475c1.538-.251 3.25-.097 4.81-.088l-.054.478c-1.2.015-2.422.072-3.621.017-.577-.026-.747.018-1.135-.407ZM66.148 150.385l5.336-.076-.024.501c-1.745.023-3.495-.019-5.241-.034l-.07-.391Z" fill="#6683C2"/><path d="m72.465 150.338 4.939-.002-.04.389c-1.634.076-3.263.075-4.898.069l-.001-.456Z" fill="#5D72AF"/><path d="m98.269 150.32.153-.043c-.014.846.088 1.9-.164 2.705-.231-.634-.023-1.322-.181-1.979-.069-.285-.19-.263-.429-.391.384-.046.355.032.62-.292Z" fill="#B4BED6"/><path d="M218.559 152.742c.158-.815.126-1.609.108-2.433l4.569.017.037 2.398-4.714.018ZM290.78 150.347l5.025-.027c-.014.828-.156 1.823.211 2.586-1.8-.015-3.6-.009-5.399.018.089-.85.11-1.723.163-2.577ZM296.936 150.328l.216.017a91.031 91.031 0 0 1 4.555-.051c-.008.877-.132 1.914.183 2.745-1.459.008-3.486.274-4.865-.149-.142-.859-.108-1.695-.089-2.562ZM36.992 150.426l.138.046c.388.426.558.381 1.135.407 1.199.055 2.42-.002 3.621-.017l.03 2.025-4.922-.006-.002-2.455ZM99.39 150.656c1.554.005 3.113-.087 4.664.025l.028 2.313c-1.502-.028-3.412.215-4.84-.171.26-.636.154-1.484.148-2.167ZM110.559 150.644c1.67.012 3.367.087 5.031-.062l.024 2.148h-5.11l.055-2.086ZM116.476 150.543c1.556.404 3.645.136 5.27.119.047.687.088 1.37.105 2.058l-5.398.014.023-2.191ZM55.136 150.754c1.582.03 3.165.037 4.747.018l.042 2.016c-1.61-.097-3.234-.043-4.847-.029-.001-.667.036-1.338.058-2.005ZM66.215 150.77c1.746.015 3.496.057 5.242.034l.029 2.067-5.31-.002c-.005-.698.026-1.401.04-2.099ZM72.468 150.792c1.636.006 3.264.007 4.898-.069l.05 2.156-4.978-.002.03-2.085ZM93.217 150.663c1.47-.013 2.959.022 4.427-.058.24.128.36.107.429.392.158.656-.05 1.345.18 1.978-1.687.062-3.377.085-5.066.068l.03-2.38ZM31.25 150.859l4.876-.023.019 2.029c-1.666.009-3.346-.029-5.008.064l.113-2.07ZM49.06 150.844l5.1-.012.03 2.003c-1.706-.115-3.453-.18-5.155.008l.025-1.999Z" fill="#CCD7EE"/><path d="M322.535 172.1a15.96 15.96 0 0 0 1.82-.278c4.316-.95 6.845-4.814 9.074-8.271.156 16.684-.945 28.795-6.842 44.621-1.348-.007-2.689-.018-4.034-.111.232-11.968.005-23.988-.018-35.961ZM.309 165.512c2.288 2.947 4.736 6.159 8.721 6.681.417.055.835.103 1.252.162.039 6.052.042 12.105.009 18.158-.371 5.678-.124 11.516-.126 17.214-.998.001-2.424-.168-3.357.13-4.399-13.992-6.167-27.736-6.5-42.345Z" fill="#E9B49C"/><path d="M144.807 167.627c9.371-.094 18.742-.121 28.113-.08 4.648-.003 9.749-.303 14.345.052l.064 28.837c.015 4.878.285 9.89.057 14.756-2.167-.087-4.602.692-6.769.191-.533-.123-.562-.287-.833-.726.365-2.41.089-6.851.1-9.543.021-5.643.304-11.435.017-17.062-.042-.831-.087-2.056-.538-2.764-.482-.757-1.576-1.182-2.408-1.37-1.343-.304-6.963-.483-8.037.199-.992-.589-4.141-.306-5.269-.097-.919-.473-7.368-.443-8.546-.088-.726.219-1.542.746-1.903 1.434-.355.678-.422 1.625-.463 2.383-.168 3.123-.024 6.329-.017 9.461l.024 17.438a45.95 45.95 0 0 1-8.26-.091c.021-.018.044-.035.063-.055.45-.5.259-38.836.26-42.875Z" fill="#FAE6DB"/><path d="M138.234 167.665c2.19.014 4.378.031 6.568-.04-.001 4.038.19 42.375-.26 42.874-.019.021-.042.037-.063.056-.578.07-1.12.072-1.592.45l-.153.446c-1.05-.357-3.111-.199-4.21-.02-.257.444-.2 1.026-.218 1.526-.306-5.43-.086-10.965-.072-16.405v-28.887ZM187.262 167.598c2.532.096 5.074.052 7.609.043.01 15.053.18 30.125-.02 45.175-.06-.511-.022-.838-.346-1.247-.948-.442-2.155-.246-3.192-.243-1.291-.154-2.623 0-3.929-.135.227-4.867-.043-9.878-.058-14.757l-.064-28.836Z" fill="#E9B49C"/><path d="m18.188 168.609.537-.482c1.322-.021 5.304-.358 6.226.281l.12.528c-1.756.062-3.517-.022-5.272-.071l-.5-.046-1.111-.21ZM49.124 168.883c-.03-.2.007-.375.032-.574 1.342-.643 4.443-.178 5.96-.115l-.162.249c-.431.049-.272-.051-.508.242-1.62.402-3.639.171-5.322.198ZM55.115 168.201c1.594-.129 3.204-.09 4.803-.089l-.018 7.873-.164-.01c-.038-2.355.022-4.719.043-7.075-1.574-.014-3.216.068-4.774-.144l-.052-.306.162-.249ZM66.239 169.15c-.028-.346-.03-.474.077-.816 1.218-.613 3.869-.227 5.252-.214l-.282.708c-1.155-.002-4.192-.33-5.047.322Z" fill="#8794BD"/><path d="M71.563 168.125a400.82 400.82 0 0 0 5.905-.035c-.087 2.847.045 5.715-.075 8.555-1.659.026-3.322-.002-4.981-.006-.036-.264-.002-.507.02-.771 1.507.219 3.263.034 4.804.048-.012-2.351.016-4.702.085-7.053l-4.745-.025c.042 2.237.074 4.512-.077 6.743-.01-1.311.264-6.144-.392-6.843l-.355.057c-.42.737-.154 17.49-.152 19.952 0 1.622.29 3.818-.126 5.354-.214-.901-.15-1.812-.13-2.731l.084-.412c-.464-1.952-.145-4.596-.073-6.601l.02-.701c-.23-2.284-.078-4.706-.072-7.007l-5.03-.007-.129-.628c1.704-.168 3.43.006 5.14-.13l-.003-7.051.282-.708Z" fill="#8794BD"/><path d="m104.216 175.953-4.905.035c-.055-1.466.376-6.229-.24-7.219l-.267-.054c-.443.844-.174 5.95-.168 7.277-1.765-.074-3.541-.024-5.308-.012.201-2.553.033-5.237.032-7.804l10.839.008c.075 2.583.003 5.183.017 7.769ZM110.607 175.974c.085-2.484.229-5.32-.052-7.786 3.702.029 7.404.032 11.106.008.016 2.578-.162 5.28.048 7.84-1.103-.025-4.377-.401-5.184.229l-.053.231-.203.113c.1-2.144.215-4.597.018-6.73-.036-.393-.057-1.02-.36-1.285-.711 1.854-.138 5.118-.354 7.191l-.022.19c-1.652-.057-3.293-.036-4.944-.001Z" fill="#A1C0F2"/><path d="m272.9 168.642.078-.285c.094-.051.18-.123.283-.154.775-.239 4.294-.119 5.085.144-.217 3.277-.082 6.629-.08 9.914.003 4.767-.059 9.545.016 14.311l-.345-.1c.107-2.615-.112-5.245.067-7.856.072-.321.033-.525-.037-.844-.128-2.4-.052-4.83-.043-7.234-1.675-.061-3.365-.008-5.041-.002l.048-1.221c.911.617 3.755.209 4.993.287-.008-2.329-.004-4.65.09-6.977-1.636.118-3.499.338-5.114.017Z" fill="#99A4BE"/><path d="M36.49 175.879c-1.702.107-3.421.064-5.126.066 0-2.544-.053-5.101.012-7.644 3.603.095 7.208.094 10.81-.004-.007 2.547-.148 5.153-.018 7.69-1.116-.022-4.051-.363-4.82.314l-.183.066c-.017-2.442.398-5.373-.222-7.732l-.268.083c-.546 2.136-.195 4.934-.185 7.161Z" fill="#A1C0F2"/><path d="M54.45 168.692c.236-.294.077-.194.508-.243l.052.307c.047 2.424.123 4.853.084 7.278l.05.541c-.058 2.34-.138 4.735.013 7.07l-.003.663c-.088 2.191-.058 4.398-.003 6.59l.014.432-.032 2.681c-1.422.152-2.855.091-4.281.052l3.633-.033-.037-2.717.008-.422c.031-2.211.026-4.423-.015-6.634l.06-.559c.032-2.4.022-4.8-.032-7.2l-.03-.392c.145-2.45.052-4.959.011-7.414Z" fill="#fff"/><path d="M212.045 168.303c1.724-.006 4.068-.297 5.686.189-.205 1.876-.114 3.821-.118 5.708v9.88l-.323-.443.044-7.108v-1.049c-.082-2.307-.024-4.634-.023-6.943-1.706.107-3.409.139-5.115.034l-.022 6.898.034 1.123c.003 2.333.084 4.695-.013 7.025l.057 1.034-.107 1.838c-.288-2.074-.128-4.332-.127-6.433l.027-11.753Z" fill="#8794BD"/><path d="M218.098 168.459c1.759-.129 3.567-.132 5.332-.08l-.028 7.279c-1.122.497-3.816.158-5.102.137l-.124-.068c-.114-2.409-.024-4.852-.078-7.268ZM229.169 168.297l2.29.055c.561.42 2.12.229 2.835.21l-.006 6.883c-1.71.007-3.431-.029-5.14.041.109-2.381.019-4.804.021-7.189Z" fill="#A1C0F2"/><path d="M231.459 168.357c.868-.081 2.242-.238 3.051.135-.129 5.066-.232 10.299-.02 15.36l-.226-.273c-.208-2.317-.136-4.69-.052-7.012-1.675-.107-3.382-.035-5.06-.029l-.004-1.047c1.709-.07 3.43-.034 5.14-.041l.006-6.883c-.715.019-2.274.21-2.835-.21ZM235.098 168.454c.861-.201 4.359-.389 5.052.016-1.586.295-3.175.274-4.783.236.015 2.248.104 4.529-.079 6.77h4.811l-.03 1.01-4.728-.02-.191-.119c-.082-2.625-.036-5.267-.052-7.893Z" fill="#97BAEF"/><path d="M255.863 168.391c1.236.06 4.69-.445 5.565.27-.322 5.086-.149 10.297-.13 15.398l-.289-.105c-.042-2.492.022-4.992.043-7.484l-5.174.028-.015-8.107Zm.288.371c-.527 1.922-.096 5.088-.141 7.167 1.655-.007 3.449.112 5.089-.041l.002-7.195c-1.649.034-3.301.091-4.95.069Z" fill="#8794BD"/><path d="M261.805 168.377c1.226.161 4.695-.317 5.469.181-1.626.335-3.485.164-5.147.144.305 2.429.242 4.928.084 7.367l.099.192 1.364.07c-.484.032-.988-.009-1.375.318-.161 2.393.078 4.793-.059 7.19 1.622-.005 3.253.026 4.873-.051l-.002.153c-1.575-.006-3.304-.158-4.856.085-.041.107-.104.211-.11.325.43 2.175.366 5.914.02 8.114l-.235.291c.324-3.816.046-7.878.046-11.722 0-2.825.33-10.436-.171-12.657Z" fill="#B4BED6"/><path d="m278.348 168.345.32-.091c.556 2.585.063 5.572.24 8.223.007 2.404-.022 4.814.025 7.217l.024.807c-.016 2.687.176 5.528-.056 8.195l.168.459c1.436.263 3.158.052 4.625.047.028.902.038 1.804.029 2.706-3.595.037-7.268.156-10.86-.02.001-.859-.063-1.774.063-2.623 1.256-.026 4.314.348 5.3-.166l.058-.53c-.075-4.766-.013-9.543-.016-14.311-.001-3.285-.137-6.637.08-9.913Z" fill="#FEFEFE"/><path d="M278.668 168.249c1.168.063 4.204-.294 5.118.249-1.461.348-3.165.192-4.668.171l-.03 7.149c1.548 0 3.129-.065 4.671.072l-.044.552c-1.601-.014-3.205.018-4.807.03-.176-2.651.316-5.638-.24-8.223ZM290.731 168.65l.12-.236c1.74-.112 3.624-.152 5.361.013-.106 8.044-.134 16.089-.086 24.135l-.339-.144-.034-8.059-4.924.017-.076-.419c1.656-.091 3.342-.022 5.001-.018l.008-7.588c-1.662-.011-3.324.003-4.986.043l-.08-.385c1.697-.128 3.407-.116 5.109-.139-.03-2.401-.013-4.803.051-7.204-1.674.068-3.468.253-5.125-.016Z" fill="#8794BD"/><path d="m212.176 175.471.022-6.899c1.706.106 3.409.074 5.115-.033-.001 2.309-.059 4.636.023 6.943l-5.16-.011Z" fill="#A1C0F2"/><path d="m217.734 168.493.366-.028c.054 2.416-.036 4.859.078 7.268l.016 11.666c.002 2.106.116 4.309-.07 6.405 1.737-.047 3.601-.222 5.32.038.255.756.163 1.649.163 2.441-2.303.018-4.613.069-6.914.002a18.31 18.31 0 0 1-.548-2.498c.514.028 1.021-.018 1.533-.055-.056-3.166-.045-6.335-.062-9.502l-.001-.149v-9.88c.004-1.886-.087-3.832.119-5.708ZM234.51 168.489l.588-.04c.017 2.627-.029 5.269.052 7.893a402.706 402.706 0 0 0-.016 7.373l.01.783a642.94 642.94 0 0 0-.022 9.107c1.64.06 3.281.091 4.921.094l-.005 2.545c-3.675.043-7.35.045-11.025.005-.001-.827-.021-1.66.001-2.487l5.495-.047c-.142-3.038-.064-6.112-.073-9.154l.054-.712c-.212-5.061-.109-10.294.02-15.36Z" fill="#FEFEFE"/><path d="M235.365 168.702c1.607.037 3.196.058 4.783-.237-.043 2.325-.14 4.684-.052 7.006h-4.811c.184-2.241.094-4.522.08-6.769Z" fill="#A1C0F2"/><path d="m261.428 168.661.373-.278c.501 2.221.171 9.832.171 12.657 0 3.844.279 7.906-.046 11.722l.138.431c1.536.329 3.443.106 5.019.105.045.857.012 1.728.009 2.586l-11.198-.011c-.019-.873.005-1.748.013-2.621 1.149-.038 3.688-.448 4.66.051.318.164.259.18.66.188l.112-.829c-.201-2.726-.045-5.576-.059-8.317l.017-.286c-.019-5.101-.191-10.312.131-15.398ZM296.216 168.434l.362.064.053 1.615c-.149 7.771-.185 15.65.018 23.418 1.755-.007 3.516-.04 5.271-.017l-.008 2.448c-3.69.072-7.395-.004-11.086-.018a50.26 50.26 0 0 1 .037-2.69l4.463-.034c-.087-.161-.031-.091-.209-.233a4.943 4.943 0 0 0-.143-.11c.384-.037.587-.036.944.117l.074.399.138-.824c-.048-8.045-.02-16.091.086-24.135Z" fill="#FEFEFE"/><path d="M296.578 168.493c1.779-.029 3.558-.038 5.337-.028-.004 2.334-.045 4.673-.012 7.006-1.705-.089-3.448-.003-5.157.009.149-1.723.14-3.663-.115-5.372l-.053-1.615ZM308.566 168.477c1.741.083 3.479.039 5.218.17-.025 2.33-.029 4.661-.011 6.991-1.705-.194-3.474-.134-5.191-.164.065-2.325-.008-4.67-.016-6.997Z" fill="#A1C0F2"/><path d="m313.79 168.653.367-.126.098.144c.029 2.461.014 4.935.16 7.392.035 2.504.039 5.009.014 7.513l.021.484c-.005 3.242-.092 6.506.022 9.745l5.729-.026.16.053.004 2.178-11.97-.004c0-.754.047-1.51.076-2.263 1.7-.052 3.413-.006 5.114-.005.275-.39.197-.709.207-1.175l-.017-.384c.379-1.709.163-3.96.145-5.71l-.136-9.969-.005-.856c-.018-2.33-.014-4.66.011-6.991Z" fill="#FEFEFE"/><path d="m13.891 171.872.152-.09c.085-.051.168-.104.252-.154 1.427-.843 2.588-1.997 3.885-3.019l1.111.211c-.017 2.355-.015 4.713-.059 7.069a356.4 356.4 0 0 0-5.373.07l.032-4.087Z" fill="#A1C0F2"/><path d="M36.488 175.877c-.01-2.227-.362-5.025.185-7.161l.268-.083c.62 2.359.204 5.29.221 7.733-.047 4.87-.15 9.781-.005 14.648l.019.3-.014 2.797-.684.045c.027-.945-.014-1.902-.027-2.848l.017-.396c.102-2.202.052-4.441-.001-6.645l.017-.554c.018-2.402.133-4.863-.046-7.258l.05-.578Z" fill="#fff"/><path d="M55.008 168.754c1.558.211 3.2.13 4.774.143-.02 2.356-.08 4.72-.043 7.076-1.546.018-3.103-.004-4.647.059.04-2.425-.037-4.854-.084-7.278Z" fill="#A1C0F2"/><path d="M71.475 194.096c.416-1.535.126-3.731.125-5.354-.001-2.461-.268-19.214.153-19.951l.355-.057c.656.698.382 5.531.391 6.843l-.066.286c-.022.264-.056.508-.02.772.085 2.348.046 4.704.04 7.054l.02.667a171.453 171.453 0 0 0-.02 6.569l.034.443-.025 2.716 4.986-.01.07 2.258-11.198.007.001-2.217 5.154-.026Z" fill="#FEFEFE"/><path d="M98.638 175.995c-.007-1.326-.276-6.432.167-7.276l.266.053c.617.99.186 5.753.241 7.22l.003.554c-.033 2.36-.042 4.721-.027 7.082l.015.841a152.31 152.31 0 0 0 .012 6.448l-.001.38-.022 2.73-.645.067c.01-.94-.011-1.881-.02-2.821l.016-.546c.016-2.065.008-4.13-.022-6.195.018-2.424 0-4.848-.052-7.272l.152-.658-.084-.607ZM115.551 175.975l.022-.19c.216-2.073-.357-5.337.354-7.191.303.265.324.892.36 1.285.197 2.133.082 4.586-.018 6.73l-.649-.097-.069-.537Z" fill="#fff"/><path d="M256.01 175.928c.046-2.079-.386-5.245.141-7.167 1.649.022 3.301-.035 4.95-.07l-.002 7.196c-1.64.153-3.433.034-5.089.041ZM262.121 168.707c1.662.019 3.522.19 5.148-.145a654.233 654.233 0 0 0-.051 7.412c-1.654-.017-3.37-.102-5.013.099.159-2.438.222-4.937-.084-7.366ZM272.898 168.635c1.616.321 3.479.101 5.115-.018-.095 2.327-.098 4.649-.091 6.978-1.238-.078-4.082.329-4.993-.287-.046-2.224.067-4.449-.031-6.673ZM279.116 168.671c1.503.021 3.207.176 4.669-.171-.06 2.457-.124 4.936-.028 7.392-1.542-.137-3.122-.072-4.671-.073l.03-7.148ZM290.73 168.648c1.658.269 3.451.084 5.126.016a186.045 186.045 0 0 0-.052 7.204c-1.701.023-3.411.011-5.109.14.258-2.401.097-4.945.035-7.36ZM314.25 168.672c1.902 1.088 3.431 2.815 5.617 3.397.006 1.14-.075 2.365.067 3.493-1.861-.135-3.683.468-5.524.502-.146-2.458-.131-4.931-.16-7.392Z" fill="#A1C0F2"/><path d="m19.295 168.816.5.046.058.181c-.03 2.834-.034 5.668-.013 8.503.006 2.086-.083 4.263.173 6.338l.005.297c-.074 2.258-.162 4.567-.008 6.822l-.003 3.065c1.643-.008 3.29-.042 4.932-.013l-.008 2.28H13.727l.012-2.225c1.804-.074 3.635-.019 5.442-.02l-.024-2.787.053-.493a203.11 203.11 0 0 0-.015-6.432l.006-.788-.03-7.236.064-.468c.044-2.356.042-4.714.06-7.07Z" fill="#FEFEFE"/><path d="M19.793 168.867c1.755.05 3.516.134 5.27.072-.191 2.319-.102 4.715-.06 7.041-1.554-.036-3.515-.268-5.008.182.044-1.954.406-5.298-.145-7.113l-.057-.182ZM49.131 168.889c1.683-.027 3.702.204 5.322-.198.041 2.455.134 4.964-.01 7.415-1.737-.192-3.602-.066-5.345.03.319-2.306.081-4.918.033-7.247ZM66.234 169.149c.855-.652 3.892-.325 5.047-.323l.002 7.052c-1.708.135-3.435-.039-5.139.129.296-2.185.096-4.644.09-6.858ZM72.5 175.579c.151-2.232.12-4.507.078-6.743l4.745.025c-.07 2.35-.098 4.702-.085 7.053-1.54-.014-3.297.17-4.804-.049l.067-.286Z" fill="#A1C0F2"/><path d="M19.85 169.047c.551 1.816.19 5.159.145 7.114.652.61 3.903.313 4.931.307.011 2.399.187 4.947-.067 7.332-1.517-.021-3.375-.232-4.848.088-.256-2.075-.168-4.252-.174-6.339-.02-2.834-.016-5.668.013-8.502ZM296.635 170.109c.255 1.71.263 3.649.115 5.373.233.436.245.455.168.943 1.598.235 3.337.099 4.953.092.002 2.41-.151 4.929.038 7.326-1.34-.029-4.004-.448-5.122.254l-.068.123c.801.632 4.024.249 5.149.266.003 2.62.123 5.299-.039 7.912-1.606-.018-3.164-.003-4.765.16 1.349.487 3.344.103 4.777.148l.083.805c-1.755-.023-3.516.009-5.271.017-.204-7.768-.167-15.648-.018-23.419Z" fill="#CCD7EE"/><path d="M10.307 172.244c.62-.123 1.252-.141 1.882-.178.086 11.871.2 23.793-.008 35.661-.12 2.024.228 11.357-.419 12.403-.708-1.405-1.272-2.901-1.88-4.354.185-.404.303-.723.354-1.168.344-3.022.074-6.379.083-9.433.015-4.862.222-9.808-.026-14.659.032-6.053.03-12.106-.01-18.159l.024-.113Z" fill="#954131"/><path d="M319.873 172.066c.185.032.441.052.615.114-.037 7.189.14 14.468-.126 21.65l-.16-.053c-.068-.044-.146-.077-.206-.133-.342-.319-.227-.732-.214-1.152.105-.801.007-1.718-.082-2.519-.004-1.687.02-3.374.071-5.061.133-.539.097-1.049.076-1.598.003-2.282.02-4.564.049-6.845l.044-.91c-.141-1.128-.06-2.353-.067-3.493Z" fill="#E9B49C"/><path d="m320.515 172.072 1.917-.029.111.061c.023 11.973.25 23.993.017 35.961-.712-.128-1.437-.12-2.159-.14l-.033-.145c-.106-3.913-.047-7.854.001-11.768l-.004-2.178c.266-7.182.089-14.461.126-21.65l.024-.112Z" fill="#954131"/><path d="m212.176 175.469 5.16.011v1.049l-5.127.062-.033-1.122Z" fill="#89A2D8"/><path d="M218.301 175.802c1.286.02 3.98.36 5.102-.138l-.008.515-.167.127c-1.593.038-3.194.007-4.787.009l-.14-.513Z" fill="#6683C2"/><path d="M296.742 175.479c1.709-.013 3.452-.098 5.157-.009l-.035 1.044c-1.616.007-3.356.143-4.953-.092.076-.488.065-.507-.169-.943Z" fill="#97BAEF"/><path d="M308.59 175.477c1.716.029 3.486-.03 5.19.163l.006.856-5.187.043-.009-1.062Z" fill="#89A2D8"/><path d="M314.414 176.065c1.841-.034 3.663-.637 5.524-.502l-.044.909-5.12.017c.006 2.348.058 4.708-.036 7.053l-.31.035c.025-2.504.02-5.009-.014-7.512Z" fill="#99A4BE"/><path d="M13.86 175.961a356.4 356.4 0 0 1 5.372-.07l-.065.468-.243.088a208.5 208.5 0 0 1-5.002.011l-.063-.497Z" fill="#6683C2"/><path d="M31.363 175.949c1.705-.002 3.424.041 5.126-.066l-.05.578-.166-.022c-1.626-.064-3.25-.018-4.877.014l-.033-.504ZM99.313 175.992l4.905-.035-.038.633c-1.617-.07-3.246-.039-4.864-.044l-.004-.554Z" fill="#5D72AF"/><path d="m218.175 175.727.124.068.14.513c.063 2.475.128 4.99.003 7.462 1.605.01 3.216.049 4.821.019.039-2.224.398-5.351-.037-7.49l.168-.127c-.005 2.57-.121 5.206.033 7.769-1.579-.002-3.176-.055-4.747.121 1.228.459 3.389.217 4.713.217-.01 3.096-.286 6.494.048 9.557-1.719-.26-3.583-.085-5.32-.038.186-2.096.072-4.299.07-6.405l-.016-11.666Zm.222 9.041c.054 2.647.059 5.295.013 7.943 1.624.016 3.242.028 4.866-.031l.028-7.916-4.907.004Z" fill="#97BAEF"/><path d="M19.996 176.161c1.493-.451 3.455-.218 5.009-.182l-.078.489c-1.028.006-4.278.304-4.93-.307ZM37.344 176.302c.768-.677 3.703-.336 4.819-.314l-.112.388c-1.557.008-3.159.094-4.707-.074ZM49.098 176.138c1.742-.096 3.608-.222 5.345-.03l.03.392c-1.75.109-3.508.058-5.259.014l-.116-.376Z" fill="#5D72AF"/><path d="M55.09 176.028c1.544-.063 3.1-.041 4.647-.059l.164.009-.03.646c-1.577.014-3.155-.004-4.731-.055l-.05-.541ZM93.328 175.985c1.767-.012 3.543-.062 5.308.012l.084.606c-.53-.097-1.114-.025-1.651-.001l-3.66-.006-.08-.611ZM110.602 175.976c1.651-.035 3.292-.056 4.944.001l.069.536c-1.605-.139-3.303-.027-4.919-.027l-.094-.51ZM116.469 176.496l.053-.23c.807-.63 4.081-.255 5.184-.23l-.052.491c-1.728.005-3.457-.005-5.185-.031Z" fill="#6683C2"/><path d="m263.666 176.335-1.363-.07-.1-.192c1.643-.201 3.359-.116 5.013-.099l-.04.367-3.51-.006Z" fill="#5D72AF"/><path d="M13.931 176.46a208.5 208.5 0 0 0 5.002-.011c-.02 2.387-.088 4.787.006 7.172-1.66.333-3.488-.02-5.185.109.463-1.595.125-5.438.177-7.27Z" fill="#CCD7EE"/><path d="m36.273 176.434.166.021c.18 2.395.064 4.857.046 7.259l-.371-.071c.089-2.303-.374-4.98.159-7.209Z" fill="#B4BED6"/><path d="m37.162 176.372.184-.067c1.549.168 3.15.082 4.707.074.006 2.45-.01 4.899-.047 7.349-1.314-.022-3.565-.268-4.703.372 1.574.153 3.137.168 4.717.179-.017 2.091.235 4.642-.162 6.677-1.488-.019-3.247-.204-4.7.064-.147-4.867-.044-9.778.004-14.648ZM218.441 176.314c1.594-.002 3.195.029 4.787-.009.435 2.138.076 5.266.037 7.49-1.605.03-3.216-.009-4.821-.019.125-2.472.06-4.987-.003-7.462ZM263.676 176.336l3.509.005c-.034 2.479-.123 4.974-.07 7.452-1.619.076-3.251.045-4.873.05.137-2.396-.101-4.797.059-7.19.387-.327.892-.285 1.375-.317ZM290.781 176.398c1.662-.04 3.324-.054 4.986-.043l-.008 7.588c-1.659-.003-3.346-.073-5.001.018.215-2.463.037-5.084.023-7.563Z" fill="#CCD7EE"/><path d="m18.93 176.443.243-.088.03 7.236-.268.024c-.094-2.385-.026-4.785-.005-7.172Z" fill="#B4BED6"/><path d="M31.4 176.449c1.626-.032 3.25-.079 4.877-.015-.533 2.229-.07 4.907-.16 7.209l-4.777.05c.245-2.338.03-4.877.06-7.244ZM49.209 176.514c1.751.044 3.508.094 5.258-.014.054 2.4.064 4.8.031 7.2-1.787.015-3.601-.027-5.385.06.358-2.267.098-4.937.096-7.246ZM55.14 176.574c1.576.051 3.154.069 4.73.055-.033 2.293-.232 4.736.024 7.016l-4.74-.001c-.152-2.335-.072-4.73-.014-7.07Z" fill="#CCD7EE"/><path d="M97.063 176.603c.537-.024 1.122-.096 1.65.001l-.151.659c-.179 2.027.302 4.416-.149 6.349-.46-1.643-.1-4.848-.097-6.641-.404-.337-.74-.3-1.254-.368Z" fill="#B4BED6"/><path d="M99.312 176.545c1.618.006 3.247-.025 4.864.045-.041 2.337-.156 4.734-.004 7.068l-4.887-.03c-.016-2.361-.007-4.722.027-7.083ZM110.695 176.48c1.615 0 3.313-.112 4.918.027l.01 7.104-5.021.008c.271-2.287.08-4.826.093-7.139Z" fill="#CCD7EE"/><path d="m115.62 176.516.649.097.131.453c-.36 2.02-.13 4.42-.12 6.485-.028 2.086-.368 5.332.149 7.301l.024.26-.099 2.872 1.251.016c-.293.754-.564 1.527-.887 2.267-2.083.02-4.166.019-6.249-.002l.037-2.272.875.084c1.407-.075 2.832-.062 4.242-.091-.001-.955-.032-1.912-.051-2.866l.011-.238c.093-2.163.047-4.329.026-6.493l.021-.77-.01-7.103Z" fill="#FEFEFE"/><path d="m116.266 176.612.203-.112c1.728.025 3.457.035 5.185.031l-.02 1.677c-.033 1.795-.054 3.59-.063 5.386-1.648.012-3.366-.076-5.004.08.022-1.124.355-5.906-.171-6.609l-.13-.453ZM212.208 176.594l5.127-.063-.045 7.108-5.095-.02c.097-2.33.017-4.692.013-7.025ZM229.154 176.537c1.679-.006 3.386-.078 5.06.029-.084 2.322-.155 4.695.053 7.012-1.723.053-3.446.066-5.169.04.114-2.347.044-4.73.056-7.081Z" fill="#CCD7EE"/><path d="m235.147 176.344.191.119c.181 2.281.354 4.892 0 7.156l-.207.098c-.017-2.458-.012-4.916.016-7.373Z" fill="#B4BED6"/><path d="m235.344 176.461 4.729.02c-.025 2.372-.074 4.746-.003 7.118l-4.726.019c.354-2.264.181-4.876 0-7.157ZM255.878 176.493l5.174-.028c-.021 2.492-.084 4.992-.042 7.484-1.735-.008-3.47-.001-5.205.021.267-2.421.081-5.035.073-7.477ZM272.883 176.535c1.677-.006 3.366-.059 5.041.002-.009 2.404-.085 4.834.043 7.234l-5.09-.076c-.084-2.376-.001-4.781.006-7.16ZM278.905 176.471c1.602-.012 3.205-.044 4.807-.03.002 2.427-.101 4.904.031 7.325-1.587.009-3.237.112-4.813-.078-.047-2.404-.018-4.813-.025-7.217ZM308.597 176.543l5.188-.043.135 9.969c.018 1.75.234 4.001-.144 5.71-1.749-.082-3.524-.05-5.276-.071.206-2.463.118-4.979.069-7.448 1.615.021 3.555.218 5.065-.416l.039-.22c-1.393-.688-3.541-.429-5.079-.409.118-2.342.041-4.727.003-7.072ZM314.779 176.494l5.119-.017a578.34 578.34 0 0 0-.049 6.845c-.713.571-3.761.36-4.777.269-.111-.01-.22-.03-.33-.045.095-2.345.042-4.705.037-7.052ZM66.234 183.655c-.017-2.34-.004-4.679.04-7.018l5.031.006c-.006 2.301-.158 4.723.072 7.008l-5.143.004ZM72.414 176.633c1.66.004 3.322.031 4.982.006-.035 2.342-.134 4.723-.01 7.063a337.793 337.793 0 0 0-4.932-.015c.007-2.35.046-4.706-.04-7.054ZM93.41 176.59l3.659.006c.514.067.85.03 1.253.367-.002 1.793-.363 4.999.097 6.642l-5.067.008c.116-2.326.043-4.692.057-7.023Z" fill="#CCD7EE"/><path d="M116.397 177.062c.525.703.192 5.485.17 6.609l-.134.139-.156-.262c-.01-2.066-.24-4.466.12-6.486Z" fill="#B4BED6"/><path d="M98.42 183.607c.45-1.933-.03-4.322.148-6.349.053 2.423.07 4.847.053 7.271l-.317.041c-1.645-.054-3.297-.001-4.942.02l-.01-.975 5.067-.008Z" fill="#8794BD"/><path d="M121.572 183.592c.01-1.795.031-3.59.063-5.385.007 2.101-.05 4.231.082 6.328-1.637-.198-3.619.291-5.169-.216l-.114-.507.134-.139c1.638-.157 3.356-.068 5.004-.081Z" fill="#89A2D8"/><path d="m152.74 210.643-.023-17.438c-.008-3.132-.152-6.338.017-9.461.041-.758.107-1.705.462-2.383.362-.688 1.177-1.214 1.904-1.434 1.177-.355 7.627-.385 8.546.088.684.528 1.385.846 2.211 1.094l.001 29.506c-4.371.073-8.75-.079-13.118.028ZM167.056 181.075l1.866-.966c1.074-.681 6.694-.502 8.037-.198.832.188 1.927.613 2.409 1.37.45.708.495 1.933.538 2.764.287 5.626.003 11.419-.018 17.062-.01 2.692.265 7.133-.1 9.543-4.225-.159-8.501-.031-12.732-.032.002-8.918.088-17.846-.029-26.762l.029-2.781Z" fill="#4F5284"/><path d="M163.648 180.016c1.128-.209 4.277-.491 5.269.097l-1.866.966-.029 2.78c-.717 3.829.435 25.299-.312 26.712-.289.028-.558.058-.849.045l-.001-29.506c-.826-.248-1.527-.566-2.212-1.094Z" fill="#FEFEFE"/><path d="M314.736 183.541c.11.015.219.035.329.045 1.017.09 4.064.302 4.778-.27.021.55.057 1.059-.077 1.599l-.137-.19c-1.464-.332-3.335-.107-4.848-.099l-.334-.566-.021-.484.31-.035Z" fill="#97BAEF"/><path d="m116.276 183.547.156.262.114.507c1.55.507 3.532.018 5.169.216-.013 2.161.045 4.358-.102 6.513a87.566 87.566 0 0 0-1.527-2.414c-.499.696-.906 1.32-1.22 2.128-.8-.003-1.655-.068-2.441.088-.517-1.969-.177-5.215-.149-7.3Z" fill="#CCD7EE"/><path d="M229.096 183.611c1.723.026 3.447.012 5.169-.041l.226.274-.054.711-.188.101-.121.016c-1.673-.087-3.381-.012-5.058-.007l.026-1.054Z" fill="#97BAEF"/><path d="M13.754 183.723c1.697-.13 3.526.224 5.185-.109l.268-.024-.006.788c-1.742-.234-3.61-.104-5.37-.103l-.077-.552ZM31.34 183.69l4.777-.049.372.071-.017.553-5.072.019-.06-.594ZM42.022 184.272c-1.58-.011-3.143-.026-4.717-.179 1.138-.64 3.39-.394 4.703-.372l.014.551ZM49.113 183.756c1.784-.087 3.598-.045 5.385-.061l-.06.559c-1.256.039-2.514.058-3.772.056l-1.51-.014-.043-.54ZM55.156 183.641h4.74l-.022.71-4.722-.047.004-.663ZM66.238 183.656l5.144-.004-.022.701c-1.684.064-3.41-.015-5.098-.025l-.024-.672ZM72.457 183.69c1.644-.006 3.288-.002 4.932.015l.002.704-4.914-.052-.02-.667Z" fill="#6683C2"/><path d="m99.29 183.629 4.887.03.01.817-4.883-.006-.015-.841ZM110.602 183.625l5.021-.008-.021.77c-1.648.035-3.295.048-4.943.039l-.057-.801ZM212.195 183.617l5.095.02.323.443.002.149-.332.38c-1.666.111-3.36.047-5.031.043l-.057-1.035Z" fill="#89A2D8"/><path d="m235.137 183.71.206-.098 4.726-.018-.018 1.037-4.694-.023-.21-.116-.01-.782Z" fill="#97BAEF"/><path d="m272.879 183.695 5.09.076c.07.318.11.523.037.844l-5.116.034-.011-.954ZM278.93 183.695c1.575.191 3.226.088 4.812.079l-.035.8-4.554.033-.2-.104-.023-.808Z" fill="#89A2D8"/><path d="M308.592 183.611c1.538-.02 3.686-.279 5.079.409l-.039.22c-1.511.634-3.45.437-5.066.416l.026-1.045Z" fill="#97BAEF"/><path d="M20.012 183.886c1.473-.32 3.331-.108 4.848-.088l.038.436c-1.605.019-3.288.144-4.882-.051l-.004-.297Z" fill="#5D72AF"/><path d="M301.86 184.485c-1.125-.017-4.348.366-5.149-.266l.068-.123c1.118-.702 3.782-.283 5.122-.255l-.041.644Z" fill="#89A2D8"/><path d="M223.396 184.284c-1.323 0-3.484.242-4.712-.217 1.571-.175 3.167-.123 4.746-.12l-.034.337ZM255.805 183.978c1.735-.022 3.47-.03 5.205-.022l.288.105-.018.286-.297.115-5.092.023-.086-.507ZM262.141 184.353c.006-.114.069-.218.11-.325 1.552-.243 3.281-.091 4.856-.085l-.03.555c-1.62 0-3.337.116-4.936-.145Z" fill="#6683C2"/><path d="M20.015 184.184c1.593.194 3.276.069 4.881.051.023 2.212-.147 4.512.042 6.71-1.466-.015-3.382-.247-4.786.12l-.145-.059c-.154-2.255-.066-4.564.008-6.822Z" fill="#CCD7EE"/><path d="M50.664 184.31c1.258.002 2.515-.017 3.773-.056.04 2.211.046 4.423.015 6.634-.93.038-1.86.009-2.79-.009.808-.174 1.67-.119 2.494-.124-.039-2.108-.082-4.196.234-6.286-1.256.013-2.482.039-3.726-.159Z" fill="#B4BED6"/><path d="M165.86 210.612c.292.013.561-.016.85-.045.747-1.413-.405-22.883.312-26.712.117 8.917.03 17.845.029 26.762 4.231.002 8.507-.126 12.732.032.271.44.3.603.833.726 2.167.501 4.602-.277 6.77-.19 1.307.136 2.638-.019 3.929.135.077.789.057.825.59 1.421.737.824.431 1.872 1.583 2.422.298.143.628.239.756.57.315.814.505 1.761.734 2.607.263.08.336.074.598.039.763 1.014 1.511 2.779 1.896 4.001.067.215.166.404.274.601-10.616.044-21.234-.376-31.851-.24-6.906.104-13.813.138-20.72.104-3.415-.002-7.121.283-10.487-.209l.111-.552c.561-.401.844-1.121 1.248-1.675 1.316-1.805 4.929-7.343 6.46-8.343.065-.042.133-.081.198-.121l.033-.499.153-.446c.472-.379 1.014-.38 1.593-.45a46.03 46.03 0 0 0 8.259.09c4.368-.107 8.746.045 13.117-.028Z" fill="#ECECEC"/><path d="M13.717 190.923c.003-2.19-.117-4.474.105-6.648 1.76-.001 3.627-.13 5.37.103.038 2.144.043 4.288.014 6.432-1.822.192-3.66.054-5.489.113ZM31.4 184.288l5.072-.018c.053 2.203.104 4.443.002 6.644l-5.134.004c.1-2.197.03-4.427.06-6.63ZM49.155 184.297l1.51.014c1.244.198 2.47.172 3.726.159-.316 2.09-.272 4.178-.233 6.285-.824.005-1.687-.049-2.494.125l-2.574.047c.267-2.141.08-4.472.065-6.63ZM55.15 184.309l4.721.047c-.028 2.131-.184 4.354.027 6.475l-4.752.067c-.054-2.191-.085-4.399.003-6.589ZM66.262 184.328c1.688.011 3.414.09 5.098.025-.071 2.005-.39 4.649.074 6.601-1.708-.131-3.435-.059-5.147-.037-.049-2.197-.112-4.391-.025-6.589ZM72.476 184.355l4.914.052c-.002 2.129.162 4.415-.056 6.525l-4.878-.008c-.035-2.189-.029-4.379.02-6.569Z" fill="#CCD7EE"/><path d="m217.29 184.61.332-.38c.017 3.167.006 6.336.062 9.502-.513.037-1.02.083-1.534.055l-.408-1.131c.512-.016 1.032.036 1.474-.258.429-2.4.102-5.34.074-7.788Z" fill="#8794BD"/><path d="m290.832 184.376 4.923-.017.034 8.059-5.019-.021c.239-2.606.046-5.391.062-8.021Z" fill="#CCD7EE"/><path d="m314.451 184.055.334.565-.008 7.568c1.597.005 3.192.024 4.787-.079.026-.7-.002-1.452.135-2.138.09.8.188 1.717.082 2.519-1.333.114-4.241-.374-5.135.52l-.174.79c-.114-3.239-.026-6.503-.021-9.745Z" fill="#99A4BE"/><path d="M93.362 184.595c1.645-.022 3.297-.075 4.942-.021-.025 2.018-.154 4.136.019 6.145-1.514.346-3.398.144-4.967.176.119-2.077.011-4.217.006-6.3ZM99.302 184.469l4.883.006c-.062 2.124-.206 4.337-.022 6.455-1.608-.091-3.239-.025-4.85-.013-.049-2.149-.053-4.299-.011-6.448ZM110.664 184.426a185.2 185.2 0 0 0 4.944-.039c.021 2.164.067 4.33-.026 6.493-1.562-.29-3.412-.079-5.004-.043.124-2.12.063-4.285.086-6.411Z" fill="#CCD7EE"/><path d="m234.253 184.667.188-.101c.01 3.042-.068 6.117.074 9.154l-5.495.048.048-1.106c1.727.028 3.455.047 5.182.057.318-2.072.203-5.95.003-8.052Z" fill="#8794BD"/><path d="m255.886 184.48 5.092-.023c-.008 2.615-.295 5.56.052 8.134-1.571-.375-3.578-.14-5.202-.109.181-2.641.035-5.35.058-8.002Z" fill="#CCD7EE"/><path d="m260.982 184.459.298-.115c.014 2.741-.142 5.591.06 8.317l-.305-.068c-.347-2.574-.061-5.519-.053-8.134Z" fill="#99A4BE"/><path d="M262.141 184.355c1.599.261 3.316.145 4.936.145.018 2.636-.084 5.302.048 7.932l-4.964.037c.346-2.2.41-5.938-.02-8.114Z" fill="#CCD7EE"/><path d="m98.3 184.572.317-.041c.03 2.065.037 4.13.021 6.196l-.32-.01c-.172-2.009-.042-4.127-.018-6.145Z" fill="#B4BED6"/><path d="M212.255 184.648c1.67.004 3.365.068 5.031-.043.028 2.449.355 5.389-.074 7.789-.443.293-.962.242-1.474.258-.31-1.415-.78-3.019-1.527-4.266-.527-.879-.993-1.495-2.015-1.733l-.048-.167.107-1.838ZM229.073 184.667c1.677-.005 3.384-.079 5.058.008-.017 2.489-.368 5.629.118 8.036-1.728-.01-3.455-.029-5.183-.057.114-2.65.019-5.333.007-7.987Z" fill="#CCD7EE"/><path d="m234.126 184.68.121-.016c.2 2.102.315 5.98-.003 8.052-.485-2.406-.135-5.547-.118-8.036ZM235.142 184.496l.21.116c.256 2.3.384 5.743.034 8.011l-.266.98a642.94 642.94 0 0 1 .022-9.107Z" fill="#B4BED6"/><path d="m235.359 184.617 4.694.023c-.061 2.612-.277 5.389.016 7.99l-4.676-.001c.35-2.269.222-5.711-.034-8.012ZM272.89 184.652l5.116-.035c-.178 2.611.041 5.241-.067 7.856l-5.069-.008c-.03-2.604-.024-5.209.02-7.813Z" fill="#CCD7EE"/><path d="m278.954 184.5.2.105c.178 2.579.307 5.335-.004 7.905l-.252.185c.233-2.667.041-5.508.056-8.195Z" fill="#B4BED6"/><path d="m279.149 184.608 4.554-.034c-.001 2.625-.107 5.299.047 7.918l-4.605.021c.311-2.57.182-5.327.004-7.905ZM314.782 184.628c1.513-.007 3.384-.232 4.848.1l.137.19a158.166 158.166 0 0 0-.071 5.061c-.137.687-.11 1.438-.136 2.138-1.594.103-3.19.084-4.787.079l.009-7.568ZM218.412 192.716c.045-2.647.041-5.296-.014-7.943l4.908-.003-.029 7.916c-1.623.058-3.242.046-4.865.03Z" fill="#CCD7EE"/><path d="M205.249 211.297c.904-4.229 2.123-8.409 3.164-12.607.818-3.299 1.443-6.842 2.622-10.027.284-.766.666-1.36 1.155-2.007 1.022.239 1.489.855 2.015 1.734.747 1.246 1.217 2.851 1.528 4.265l.407 1.13c.135.859.298 1.664.548 2.499a534.267 534.267 0 0 0 2.578 11.613c.155 1.148.168 3.82.678 4.678.003.11.009.219.01.328.014.787-.234 1.627-.384 2.397-.565 2.894-.227 5.083 1.467 7.526-5.441-.076-11.043-.433-16.467-.008-.606-.169-1.219-.364-1.604-.903-1.14-1.596 1.833-8.403 2.283-10.618ZM118.864 190.765c.314-.808.721-1.432 1.22-2.128a87.566 87.566 0 0 1 1.527 2.414c.652 2.408 1.683 4.748 2.568 7.08 1.697 4.431 3.371 8.871 5.022 13.32 1.236 3.661 3.076 7.402 3.819 11.197-1.494.052-2.99.063-4.485.032-2.883-.042-5.805-.09-8.682.106.011-.36.068-.822-.001-1.172-.088-.447-.292-.552-.625-.809-.415-.008-.417.034-.746.298-.303.561-.167 1.122-.101 1.73-3.868-.13-7.943-.376-11.802-.079l3.742-9.627c.651-1.768 1.31-3.532 1.979-5.294 1.417-3.868 2.853-7.752 4.413-11.564.323-.741.594-1.514.888-2.267.213-.924.729-1.784.962-2.725l-.216-.23c.128-.127.355-.203.518-.282Z" fill="#5D79B5"/><path d="M10.166 207.73c.002-5.698-.245-11.537.126-17.214.248 4.851.04 9.797.026 14.659-.01 3.054.261 6.411-.083 9.433-.05.445-.169.764-.353 1.168-1.167-2.553-2.08-5.288-3.073-7.916.933-.298 2.359-.129 3.357-.13Z" fill="#B36955"/><path d="M13.719 190.925c1.828-.059 3.666.08 5.489-.113l-.053.494-5.385.008-.051-.389ZM55.148 190.895l4.752-.067-.017.5c-1.57-.052-3.149-.009-4.72-.001l-.015-.432ZM93.356 190.891c1.57-.032 3.453.17 4.967-.176l.319.01-.016.546-5.225.017-.045-.397ZM110.578 190.839c1.592-.037 3.442-.248 5.004.042l-.011.238c-1.561.314-3.364.128-4.963.13l-.03-.41ZM116.426 190.846c.785-.156 1.64-.091 2.44-.088-.163.079-.389.155-.517.282-.63.1-1.264.072-1.899.066l-.024-.26ZM20.152 191.065c1.404-.366 3.32-.135 4.786-.12l-.043.355c-1.513.034-3.027.034-4.54.001l-.203-.236ZM31.34 190.914l5.134-.004-.017.396-5.072.003-.045-.395ZM37.156 191.015c1.454-.268 3.213-.083 4.7-.064l.081.417c-1.57.022-3.203.139-4.762-.053l-.019-.3ZM49.132 191.356l-.042-.426 2.574-.047c.93.017 1.86.047 2.79.009l-.009.421c-1.763.007-3.555-.056-5.313.043ZM66.285 190.915c1.712-.022 3.439-.095 5.147.036l-.085.413c-1.67-.017-3.34-.024-5.009-.024l-.053-.425ZM72.457 190.926l4.878.008.04.41c-1.617-.065-3.263.012-4.883.025l-.035-.443ZM99.314 190.921c1.61-.012 3.241-.078 4.849.013l-.066.362-4.784.004v-.379Z" fill="#5D72AF"/><path d="m20.007 191.008.144.059.204.236c1.512.033 3.026.032 4.539-.002.029.92.043 1.839.042 2.759-1.642-.03-3.29.005-4.932.012l.003-3.064ZM110.606 191.251c1.6-.002 3.403.184 4.964-.13.019.955.05 1.911.05 2.866-1.41.029-2.834.016-4.241.092l-.875-.085.102-2.743ZM116.446 191.106c.636.006 1.27.033 1.9-.067l.215.231c-.232.94-.749 1.8-.962 2.724l-1.251-.016.098-2.872ZM13.767 191.317l5.385-.008.024 2.786c-1.807.001-3.637-.054-5.442.02l.033-2.798ZM31.38 191.315l5.071-.003c.013.946.053 1.903.026 2.848-1.712-.148-3.505-.041-5.227-.04a58.1 58.1 0 0 0 .13-2.805ZM37.174 191.316c1.56.192 3.193.075 4.763.053.049.923.059 1.831.04 2.754l-4.817-.01.014-2.797ZM49.133 191.357c1.758-.099 3.55-.036 5.313-.042l.037 2.717-3.633.033-1.69-.014-.027-2.694ZM55.158 191.333c1.57-.008 3.15-.051 4.719.001l.043 2.72c-1.595-.054-3.199-.03-4.795-.039l.033-2.682ZM66.334 191.34c1.67 0 3.34.007 5.01.024-.02.919-.084 1.83.13 2.73l-5.153.026c-.032-.935-.047-1.846.013-2.78ZM72.486 191.367c1.62-.013 3.266-.09 4.883-.025l.078 2.731-4.986.01.025-2.716ZM93.397 191.291l5.224-.018c.01.94.03 1.881.02 2.821-1.746.007-3.492.024-5.238.051-.052-.949-.018-1.904-.006-2.854ZM99.31 191.297l4.785-.004c.098.929.101 1.847.103 2.78-1.639-.036-3.271.092-4.909-.046l.022-2.73Z" fill="#CCD7EE"/><path d="M308.5 192.102c1.752.021 3.527-.011 5.276.071l.017.384a205.75 205.75 0 0 0-5.27-.094l-.023-.361ZM255.828 192.48c1.624-.031 3.631-.266 5.202.109l.305.068-.112.829c-.401-.008-.342-.024-.66-.188-.972-.499-3.511-.088-4.659-.051l-.076-.767Z" fill="#6683C2"/><path d="m261.926 192.762.235-.291 4.964-.037-.042.864c-1.576.001-3.484.224-5.019-.105l-.138-.431Z" fill="#89A2D8"/><path d="m272.871 192.461 5.069.008.345.1-.058.53c-.986.514-4.044.14-5.3.166l-.056-.804ZM278.898 192.698l.252-.185 4.605-.021-.064.713c-1.467.004-3.188.215-4.625-.048l-.168-.459ZM290.77 192.398l5.019.021.339.144-.138.825-.074-.4c-.356-.153-.56-.153-.944-.117.048.037.096.073.143.111.178.142.123.072.209.232l-4.463.034-.091-.85ZM301.835 192.704c-1.433-.045-3.428.339-4.776-.147 1.6-.163 3.159-.178 4.765-.161l.011.308Z" fill="#6683C2"/><path d="M308.524 192.465c1.757.008 3.514.04 5.27.094-.011.465.067.785-.207 1.175-1.702-.002-3.414-.047-5.114.005l.051-1.274ZM314.469 193.803l.174-.789c.893-.894 3.801-.407 5.135-.521-.012.42-.128.833.214 1.152.06.056.138.089.206.133l-5.729.025Z" fill="#CCD7EE"/><path d="m235.121 193.601.266-.98 4.676.002-.02 1.072a141.714 141.714 0 0 1-4.922-.094Z" fill="#8794BD"/><path d="m36.477 194.156.684-.045 4.816.01-.048 2.141a605.6 605.6 0 0 1-10.699-.018c-.021-.707.009-1.42.02-2.128 1.721 0 3.514-.107 5.227.04ZM50.846 194.055c1.427.039 2.86.101 4.282-.051 1.596.009 3.2-.015 4.795.039l.065 2.28-10.79.003-.042-2.285 1.69.014ZM98.64 194.09l.646-.067c1.638.138 3.27.01 4.909.046l.002 2.281-10.752-.011-.043-2.198a457.35 457.35 0 0 1 5.239-.051Z" fill="#FEFEFE"/><path d="M100.147 207.765c.752-1.029 1.606-2.246 2.977-2.425.814-.107 1.613.238 2.241.736.599.475 1.06 1.141 1.546 1.727 1.099 1.78 2.176 3.631 3.413 5.32l-3.742 9.627c-.902.707-3.44.391-4.608.558l-.61.015c-2.289-.156-3.658-.402-5.541-1.778-.203-.284-.385-.548-.496-.883-.729-2.19 3.684-10.547 4.82-12.897ZM230.891 206.244l1.028 1.511c1.908 2.984 4.53 8.549 3.67 12.109-.259 1.073-.784 1.716-1.637 2.387-2.209.625-4.357.818-6.646.71l-.259.05c-1.999-.006-4.015.05-6.003-.187-1.694-2.443-2.032-4.632-1.467-7.526.15-.771.398-1.611.384-2.397-.001-.11-.007-.219-.011-.328l.162-.671c.478-.614 1.144-.889 1.821-1.239.39-.819.875-1.597 1.328-2.382.724-1.079 1.478-1.953 2.709-2.464 1.679-.697 3.321-.207 4.921.427Z" fill="#92AEEA"/><path d="m12.18 207.724 37.047.008H61.23c2.117 0 4.283-.093 6.396.018 4.724.341 9.66.211 14.401.088-.016 4.541-.064 9.085-.025 13.626 2.155-.013 4.336-.09 6.486.046-6.914.377-13.974.143-20.904.143l-35.76.008-12.576-.01c-2.2-.003-4.516-.139-6.705.074-.312-.502-.539-1.059-.782-1.598.646-1.045.299-10.379.418-12.403Z" fill="#B36955"/><path d="M67.629 207.749c4.553-.091 9.108-.003 13.662-.03l4.213.014 14.641.032c-1.136 2.35-5.55 10.707-4.82 12.897.11.334.293.599.495.883a459.14 459.14 0 0 0-7.329-.036c-2.15-.135-4.33-.058-6.485-.045-.04-4.541.009-9.085.025-13.626-4.74.123-9.678.253-14.402-.089ZM231.914 207.759l16.536-.013c1.085-.003 2.174.014 3.259-.016l11.253.048c1.981.009 4.041-.087 6.011.086-2.617.257-5.352.106-7.986.095-3.153-.013-6.363.083-9.508-.133-.738 4.742-1.109 9.585-1.655 14.354-2.947.234-5.977.12-8.936.136-2.266.012-4.694.195-6.941-.06.853-.672 1.378-1.315 1.637-2.388.86-3.56-1.762-9.125-3.67-12.109Z" fill="#B97161"/><path d="M268.973 207.862c1.482-.147 3.072-.037 4.566-.031l8.665.032 27.739.006c2.538.007 8.336.451 10.417-.092l.034.146c-.046 4.419-.185 8.96.015 13.373-.121.225-.129.401-.394.471-.928.246-11.086-.048-12.774-.052l-38.311.129-10.774.133c-2.721.008-5.641-.2-8.332.201.546-4.769.917-9.612 1.655-14.354 3.145.216 6.356.12 9.509.133 2.634.011 5.368.162 7.985-.095Z" fill="#B36955"/><path d="M106.906 207.805c1.797.044 3.595.053 5.392.027a579.278 579.278 0 0 0-1.979 5.293c-1.236-1.689-2.313-3.54-3.413-5.32Z" fill="#B97161"/><path d="M219.273 207.895c1.33.105 2.671.18 3.989.386-.453.785-.939 1.564-1.329 2.382-.676.35-1.343.625-1.821 1.239l-.161.671c-.51-.859-.522-3.53-.678-4.678Z" fill="#B36955"/><path d="M320.398 207.926c.722.02 1.448.012 2.16.14-.106 2.833-.517 6.995-.001 9.717a66.62 66.62 0 0 1-1.644 3.497l-.5.019c-.2-4.413-.06-8.954-.015-13.373Z" fill="#7C5452"/><path d="M322.56 208.062c1.345.094 2.686.104 4.034.111-1.256 3.235-2.481 6.5-4.035 9.606-.516-2.721-.105-6.883.001-9.717Z" fill="#B36955"/><path d="m129.203 211.45 3.027-.001c.015.549-.066.979.234 1.448 1.858.287 3.96.077 5.845.058.018-.501-.038-1.082.218-1.526 1.099-.179 3.161-.338 4.21.02l-.032.498c-.066.041-.133.08-.199.122-1.531 1-5.144 6.538-6.46 8.343-.404.554-.687 1.274-1.248 1.675l-.111.551-1.665.009c-.743-3.795-2.582-7.537-3.819-11.197ZM199.929 211.596c.046-.16.003-.049.233-.273 1.679-.151 3.407-.048 5.093-.027-.45 2.215-3.424 9.022-2.283 10.618.385.539.998.734 1.604.903l-.065.179c-2.243.1-4.518.032-6.763-.014a3.26 3.26 0 0 1-.275-.601c-.384-1.222-1.133-2.987-1.896-4.001-.262.035-.335.041-.598-.039-.229-.846-.419-1.792-.734-2.607-.128-.331-.457-.427-.756-.57-1.151-.55-.846-1.597-1.583-2.422-.532-.596-.513-.632-.59-1.421 1.038-.003 2.244-.198 3.193.244.323.409.286.735.345 1.246 1.571-.016 3.118.221 4.666-.116.437-.372.354-.544.409-1.099Z" fill="#7C5452"/><path d="M118.381 222.833c-.066-.608-.202-1.169.101-1.73.329-.264.331-.306.746-.297.333.256.537.362.625.808.069.35.012.812.001 1.172.203 1.265.348 2.738.292 4.018l-1.024.042-.229-.103c-.47-.571-.357-2.956-.489-3.771l-.023-.139Z" fill="#954131"/><path d="m227.047 223.011.259-.05c.019 1.188.097 2.413-.038 3.594l-.227-.158c-.138-1.104-.031-2.273.006-3.386Z" fill="#66424D"/><path d="m101.367 223.324.61-.015c.581.033.883-.064 1.31.349.318.902-.004 2.122-.06 3.09l-1.7-.003c-.115-1.135-.124-2.281-.16-3.421Z" fill="#954131"/><path d="m15.25 226.68 86.274.064 1.701.002c5.268.017 10.645-.187 15.901.095l1.024-.041c2.772-.012 5.636-.162 8.396.086-.068.922-.539 1.514-1.083 2.229-12.648-.334-25.327-.152-37.98-.208l-73-.168c-.404-.69-.815-1.377-1.233-2.059Z" fill="#ECECEC"/><path fill="#A69492" d="M-7.336 226.91h347.753v50.091H-7.336z"/><path fill="#ECECEC" d="M-7.336 226.539h347.753v2.586H-7.336z"/><path fill="#7C5452" d="M-7.336 221.445h347.753v6.206H-7.336z"/><path fill="#ECECEC" d="M124.609 222.852h83.853v6.28h-83.853z"/><path fill="#B36955" d="M-7.336 207.777h25.488v13.668H-7.336zM314.93 207.926h25.488v13.52H314.93z"/><path fill="#E9B49C" d="M326.602 174.309h13.816v33.615h-13.816zM-7.336 167.953h8.644v39.821h-8.644z"/><path fill="#E9B49C" d="M-.387 175.863h7.166v31.916H-.387z"/></g><defs><linearGradient id="b" x1="96.405" y1="128.937" x2="98.662" y2="155.329" gradientUnits="userSpaceOnUse"><stop stop-color="#FFFCE8"/><stop offset="1" stop-color="#FEFDFD"/></linearGradient><clipPath id="a"><path fill="#fff" transform="translate(.465)" d="M0 0h329v242H0z"/></clipPath></defs></svg>