<svg width="237" height="198" fill="none" xmlns="http://www.w3.org/2000/svg"><path d="m86.72 197.628-77.613-.142c-3.93-9.109-7.895-18.407-8.893-28.298-.998-9.891 1.428-20.649 8.62-27.408 3.288-3.091 7.457-5.271 10.1-8.944 3.804-5.289 3.616-12.384 3.7-18.929a149.419 149.419 0 0 1 10.582-53.291c5.597-14.054 11.922-27.38 28.92-32.122 16.746-4.671 31.23-2.717 44.191 6.204 15.167 10.44 27.216 30.031 38.102 44.15 4.395 5.7 10.179 12.177 17.211 10.943 5.018-.881 8.45-5.448 12.624-8.408 10.12-7.174 24.465-4.348 34.775 2.544 17.257 11.536 26.662 32.78 27.572 53.717.91 20.937-5.766 41.574-15.184 60.229l-134.706-.245Z" fill="#94A8CE" fill-opacity=".39"/><path d="M23.618 68.908c0-3.778 1.978-5.817 5.68-5.817H206.17c3.703 0 5.681 2.039 5.681 5.817v4.756H23.618v-4.756Z" fill="#ACC1EB"/><path d="M200.237 70.116c.846 0 1.531-.7 1.531-1.562 0-.863-.685-1.562-1.531-1.562-.845 0-1.53.7-1.53 1.562 0 .862.685 1.562 1.53 1.562ZM193.604 70.116c.845 0 1.531-.7 1.531-1.562 0-.863-.686-1.562-1.531-1.562-.845 0-1.531.7-1.531 1.562 0 .862.686 1.562 1.531 1.562ZM186.971 70.116c.845 0 1.53-.7 1.53-1.562 0-.863-.685-1.562-1.53-1.562-.846 0-1.531.7-1.531 1.562 0 .862.685 1.562 1.531 1.562Z" fill="#6683C2"/><path d="M211.85 173.907V73.662H23.618v107.602H211.85v-7.357Z" fill="#D4E2FF"/><path d="M23.616 165.485a.56.56 0 0 1-.561-.56V68.907c0-4.111 2.215-6.376 6.24-6.376h11.06a.56.56 0 1 1 0 1.121h-11.06c-3.397 0-5.12 1.768-5.12 5.256v96.017a.56.56 0 0 1-.56.561v-.001Z" fill="#6683C2"/><path d="M152.737 123.015a1.84 1.84 0 1 0-3.03-2.089 1.84 1.84 0 0 0 3.03 2.089Z" fill="#B45C41"/><path d="m155.153 132.26-4.469-4.149-4.16-4.13-11.74 14.504-2.182 7.087 5.536 2.219s4.607-4.931 5.658-5.958c1.051-1.027 7.251-5.179 8.959-6.663 1.993-1.732 2.397-2.911 2.397-2.911l.001.001Z" fill="#FFB098"/><path d="M148.12 124.532c1.762-1.327 2.107-3.459 2.141-4.733.023-.86-.155-2.131-.949-2.463-.468-.196-1.271-.053-1.558.639-1.339 3.218-3.582 3.621-5.638 5.225-2.056 1.604-4.251 7.588-5.715 11.361-1.265 3.26-6.467 7.635-6.467 7.635l2.671 3.378 15.515-21.042ZM148.349 136.203a1.788 1.788 0 0 1-.835-3.371l5.103-2.672a1.788 1.788 0 1 1 1.658 3.168l-5.103 2.671a1.78 1.78 0 0 1-.823.204Z" fill="#FFB098"/><path d="M148.689 128.042a1.79 1.79 0 0 1-1.591-.958 1.79 1.79 0 0 1 .755-2.413l5.901-3.089a1.788 1.788 0 0 1 1.658 3.168l-5.901 3.088a1.767 1.767 0 0 1-.822.204ZM151.661 122.324c-.8.708-1.334.557-1.654-.055-.458-.874-.056-2.86.819-3.318l8.906-4.384a1.788 1.788 0 1 1 1.658 3.168l-8.905 4.385a1.796 1.796 0 0 1-.824.204ZM146.915 133.052a1.788 1.788 0 0 1-.835-3.372l7.95-4.162a1.789 1.789 0 1 1 1.659 3.168l-7.951 4.162a1.777 1.777 0 0 1-.823.204Z" fill="#FFB098"/><path d="M148.344 136.759a2.346 2.346 0 0 1-2.082-1.257 2.354 2.354 0 0 1 .991-3.171l5.103-2.67a.56.56 0 0 1 .756.238.558.558 0 0 1-.237.755l-5.103 2.67a1.231 1.231 0 0 0-.518 1.658c.214.405.631.657 1.089.657h.005a.56.56 0 0 1 .003 1.12h-.008.001ZM148.683 128.602a2.347 2.347 0 0 1-1.088-4.427l5.902-3.09a.56.56 0 0 1 .518.993l-5.901 3.09a1.231 1.231 0 0 0-.519 1.657 1.23 1.23 0 0 0 1.657.516.56.56 0 1 1 .522.992 2.337 2.337 0 0 1-1.084.268h-.008l.001.001Z" fill="#D58670"/><path d="M146.909 133.615a2.342 2.342 0 0 1-2.082-1.259 2.353 2.353 0 0 1 .991-3.17l7.653-4.006a.558.558 0 0 1 .756.238.558.558 0 0 1-.238.755l-7.651 4.006a1.229 1.229 0 0 0 .571 2.315h.005c.309 0 .561.251.561.559.001.312-.29.525-.566.562ZM149.894 122.535a.562.562 0 0 1-.534-.729c.598-1.876.195-3.269.191-3.283a.56.56 0 0 1 1.071-.329c.021.07.518 1.721-.194 3.951a.563.563 0 0 1-.535.391l.001-.001Z" fill="#D58670"/><path d="m95.183 112.394 5.245-2.594s3.115 1.48 6.908 8.171c3.794 6.692 11.851 26.365 11.851 26.365s9.591-7.088 12.361-8.077c2.769-.989 3.654-1.887 3.654-1.887s7.81 8.927 7.91 10.104c.101 1.176-18.171 27.049-29.423 24.373-11.251-2.676-25.575-44.635-25.575-44.635l7.069-11.82Z" fill="#FFF3E9"/><path d="M96.655 106.374c.502-11.22 3.702-22.364 2.505-33.53-.203-1.892-.55-4.89-1.54-6.515-1.91-3.138-5.878-3.827-9.015-5.74-4.767-2.91-10.335-4.323-15.789-3.12-6.074 1.34-10.38 7.036-12.106 13.012-1.727 5.976-1.405 12.318-1.474 18.539-.069 6.22-1.274 12.055-4.488 17.382-1.964 3.257-4.964 6.564-6.752 9.921-3.581 6.719-1.073 15.825 4.723 20.763l46.038-20.005c-2.07-3.07-2.267-7.009-2.102-10.707Z" fill="#594646"/><path d="m89.568 106.127-1.413-.367a2.403 2.403 0 0 1-.997-.555c-.362.084-.73.161-1.118.218-7.392 1.091-13.374-8.67-13.375-8.67-.15 1.64-.342 3.284-.74 4.884-.393 1.585-1.044 2.935-1.96 4.277.073-.148-.31.357-.422.49a6.605 6.605 0 0 1-.827.802c-.602.501-1.267.92-1.94 1.319l.116.023s11.753 12.787 19.758 10.454c.117-.034 1.903.064 2.08-.016 5.211-2.356 1.971-9.865.838-12.859Z" fill="#FFB098"/><path d="m88.45 96.03-2.96-.19L73 95.03c-.111.608-.223 1.179-.334 1.724h.002s5.981 9.761 13.373 8.67a14.25 14.25 0 0 0 1.118-.218c-.017-.016-.038-.025-.055-.042l1.346-9.134Z" fill="#D5856E"/><path d="M101.85 116.181c1.352-.842.605-5.031.317-5.267-1.82-1.501-3.77-2.337-5.847-2.985a61.462 61.462 0 0 0-3.02-.834c-.34-.087-.678-.175-1.023-.265-1.057-.283-1.966-.53-2.405-.623l-.303-.079c1.098 2.898 3.07 9.727-1.532 12.298-.313.175-1.518.619-1.765.676-7.99 1.837-19.378-10.553-19.378-10.553l-.116-.023c-2.029 1.202-4.477 1.961-6.5 2.893-5.023 2.317-9.087 5.295-10.832 10.034-2.237 6.096-12.143 32.463-12.618 36.918 0 0 22.275-8.644 23.003-10.017 0 0 1.117 7.052.81 13.811l-5.913 19.1h45.604s.713-12.518.782-18.076c.046-1.031.074-1.87.07-2.357-.042-5.268 2.527-12.372 2.716-15.605 0 0 3.802-4.019 4.137-9.111.209-3.168-2.657-13.833-6.188-19.935h.001Z" fill="#FFF3E9"/><path d="M103.707 145.768a.557.557 0 0 1-.46-.241.558.558 0 0 1 .141-.78c2.184-1.516 3.631-5.467 4.095-8.709.345-2.427-4.164-13.58-5.719-16.555a.558.558 0 0 1 .238-.756.563.563 0 0 1 .755.238c1.348 2.578 6.259 14.251 5.836 17.23-.462 3.23-1.934 7.647-4.566 9.472a.55.55 0 0 1-.319.1l-.001.001ZM78.32 150.077c-1.611 0-3.32-.337-5.036-1.245a.563.563 0 0 1-.234-.759.565.565 0 0 1 .76-.234c4.948 2.615 9.805.024 12.14-1.221l1.257-.673c1.647-.893 2.838-1.538 5.003-1.805 1.334-.165 2.887.121 4.54.425 1.221.223 2.482.454 3.591.474a.56.56 0 0 1-.009 1.121h-.009c-1.202-.02-2.511-.262-3.776-.493-1.565-.287-3.053-.557-4.198-.414-1.957.241-3.012.812-4.608 1.677l-1.265.677c-1.585.845-4.633 2.469-8.156 2.469v.001Z" fill="#F3DDCD"/><path d="M94.725 82.24a63.337 63.337 0 0 1-.09-3.427c.008-3.803-2.28-7.227-5.813-8.636l-12.26.009-6.708 8.834s-.052 9.564.685 13.37c1.157 5.978 8.521 9.248 8.521 9.248s5.11 2.631 8.757.929c3.646-1.702 5.962-6.057 7.146-10.365.759-2.766.013-5.147-.236-9.963h-.002Z" fill="#FFB098"/><path d="M79.67 80.081s-.353-.027-.715.08c-.125.038-2.313.37-4.107 1.201.376.166.606.353-.216.233l-.056.027a3.502 3.502 0 0 0-1.491 1.482c-.285.606-.405 1.233-.35 1.763.013.129.032.203.057.186 3.038-1.982 4.631-2.206 7.01-2.491.57-.069.914-.632.694-1.135-.198-.455-.49-.878-.825-1.347v.001ZM93.97 79.502l-.064-.015c-.79.292-.62.063-.294-.177-2.08-.41-4.395-.259-4.534-.268-.4-.026-.748.076-.748.076-.184.522-.339.991-.39 1.47-.056.531.476.997 1.072.94 2.178-.208 3.736-.332 6.576.476.063-.393.134-.795.21-1.2a18.21 18.21 0 0 0-.49 0c.16-.048.347-.11.522-.162a8.46 8.46 0 0 1 .025-.13 4.254 4.254 0 0 0-1.884-1.011Z" fill="#5A4747"/><path d="M79.91 93.753c.22-1.552-.88-2.992-2.458-3.216-1.578-.223-3.035.854-3.255 2.406-.22 1.552.88 2.992 2.458 3.215 1.577.224 3.034-.853 3.254-2.405ZM93.423 94.661c-1.592-.057-2.841-1.374-2.79-2.941.052-1.567 1.383-2.791 2.975-2.734a2.9 2.9 0 0 1 1.674.611c-.002.889-.08 1.731-.321 2.607-.227.825-.552 1.628-.92 2.412-.2.035-.406.053-.617.045h-.001Z" fill="#8D2E2A" opacity=".29"/><path d="M84.349 91.337a.561.561 0 0 1-.072-1.117c.97-.124 1.75-.504 1.9-.923.082-.234.011-.55-.088-.938a45.41 45.41 0 0 0-.854-2.836 43.372 43.372 0 0 1-.874-2.905.56.56 0 0 1 .401-.682.554.554 0 0 1 .683.401c.29 1.113.577 1.99.854 2.835.284.863.577 1.756.874 2.905.112.43.263 1.019.06 1.593-.45 1.267-2.268 1.591-2.814 1.663-.024.001-.047.004-.071.004Z" fill="#DE8B79"/><path d="M79.062 87.943c.686-.014 1.216-.53 1.182-1.154l-.07-1.296c-.035-.623-.62-1.116-1.307-1.102-.686.015-1.216.531-1.182 1.154l.07 1.296c.035.624.62 1.117 1.307 1.102Z" fill="#0A0A0A"/><path d="M76.177 86.013a.426.426 0 0 0 .387-.045c1.104-.765 2.092-.997 2.495-.852.202.087.436.006.52-.171.086-.178-.009-.39-.21-.472-.019-.008-.036-.014-.055-.02-.914-.33-2.315.298-3.25.948a.328.328 0 0 0-.058.498.426.426 0 0 0 .172.115h-.001Z" fill="#000"/><path d="M92.016 86.308c.63.016 1.138-.436 1.133-1.009l-.011-1.192c-.006-.573-.522-1.05-1.152-1.065-.63-.016-1.138.436-1.132 1.009l.01 1.192c.006.573.522 1.05 1.152 1.065Z" fill="#0A0A0A"/><path d="M89.453 84.418c.114.048.25.042.356-.025 1.045-.656 1.961-.826 2.325-.676.182.088.4.024.485-.135.085-.16.007-.358-.174-.443a.487.487 0 0 0-.05-.021c-.824-.341-2.135.177-3.021.734a.301.301 0 0 0-.074.454c.041.05.095.088.153.112Z" fill="#000"/><path d="M34.388 163.932c2.053-8.687 15.059-42.481 15.059-42.481l12.67 23.291-.83 3.166-11.035 25.583s-3.798 2.831-6.401 2.627c-8.57-.674-11.223-4.737-9.463-12.187v.001Z" fill="#FFF3E9"/><path d="M102.553 151.168a.556.556 0 0 1-.547-.677l1.153-5.398a.549.549 0 0 1 .664-.43.557.557 0 0 1 .43.664l-1.153 5.398a.559.559 0 0 1-.547.444v-.001Z" fill="#F3DDCD"/><path d="M70.12 83.317c-.61-1.423-2.057-2.377-3.428-2.258-1.372.118-2.562 1.301-2.819 2.799-.308 1.798.645 3.676 1.866 5.007.837.912 1.851 1.68 2.978 1.927 1.127.247 2.372-.109 3.03-1.1l-1.627-6.375Z" fill="#FFB098"/><path d="M69.012 86.427a.562.562 0 0 1-.527-.368c-.416-1.144-1.605-2.006-2.823-2.047a.56.56 0 0 1 .02-1.12h.02c1.683.057 3.26 1.204 3.838 2.784a.561.561 0 0 1-.527.752h-.001Z" fill="#DE8B79"/><path d="M67.774 88.324a.553.553 0 0 1-.394-.162c-1.5-1.485-1.055-3.034-.697-4.279a.551.551 0 0 1 .693-.383.56.56 0 0 1 .384.693c-.385 1.339-.55 2.223.409 3.173a.558.558 0 0 1-.394.958Z" fill="#DE8B79"/><path d="m47.995 164.367-14.122 3.077v13.819h18.08l.964-13.951-4.922-2.945Z" fill="#FFF3E9"/><path d="M90.539 67.511c-3.861-1.876-8.46-2.141-12.508-.72-4.047 1.42-7.492 4.508-9.366 8.397l-.885 5.517c1.606 1.38 3.184 3.026 5.645 2.074 1.968-.762 4.556-1.877 6.28-3.105a99.906 99.906 0 0 0 6.254-4.839c1.378-1.156 2.779-2.38 4.491-2.912 1.713-.531 3.847-.163 4.823 1.354-.314-2.562-2.432-4.646-4.736-5.767l.002.001Z" fill="#594646"/><path d="M84.976 95.499c-1.241 0-2.482-.368-3.48-1.093a.561.561 0 0 1 .657-.909c1.476 1.073 3.61 1.182 5.186.27a.562.562 0 0 1 .562.972c-.882.51-1.904.76-2.925.76ZM84.319 97.627c-.02 0-.042 0-.064-.004l-.962-.11a.56.56 0 0 1-.493-.62c.035-.304.285-.553.62-.492l.962.11a.56.56 0 0 1-.064 1.116h.001Z" fill="#DE8B79"/><path d="M52.98 167.51a.56.56 0 0 1-.5-.308 3.59 3.59 0 0 0-1.897-1.718.561.561 0 0 1 .4-1.047 4.714 4.714 0 0 1 2.497 2.261.557.557 0 0 1-.5.812ZM60.2 149.99a.56.56 0 0 1-.5-.814 48.514 48.514 0 0 0 2.856-6.945.56.56 0 1 1 1.065.344 49.613 49.613 0 0 1-2.92 7.109.56.56 0 0 1-.501.307v-.001ZM118.775 148.203a.56.56 0 0 1-.527-.749 7.647 7.647 0 0 0 .444-2.887.56.56 0 0 1 .537-.584h.023c.3 0 .548.235.561.537a8.796 8.796 0 0 1-.509 3.313.559.559 0 0 1-.527.371l-.002-.001ZM140.662 147.525a.557.557 0 0 1-.484-.278 56.289 56.289 0 0 0-7.207-9.77.56.56 0 0 1 .825-.759 57.334 57.334 0 0 1 7.349 9.964.56.56 0 0 1-.484.843h.001Z" fill="#F3DDCD"/><path d="M23.617 181.264v14.486c0 .753.45 1.401 1.09 1.675.213.093.448.144.693.144h184.667c.029 0 .054-.016.082-.017h.015c.93.001 1.686-.768 1.686-1.718v-14.57H23.617Z" fill="#6683C2"/><path d="M34.502 187.736c-.845 0-1.53.752-1.53 1.681s.685 1.681 1.53 1.681h62.3v-3.362h-62.3Z" fill="#4B6BAF"/><path d="M200.965 187.736H96.801v3.361h104.164c.845 0 1.53-.751 1.53-1.68 0-.93-.685-1.681-1.53-1.681Z" fill="#8299C9"/><path d="M96.801 192.337a2.92 2.92 0 1 0 0-5.838 2.92 2.92 0 0 0 0 5.838Z" fill="#F37E60"/><g clip-path="url(#a)"><path d="M135.136 97.056c.068-.091 1.973-.911 2.24-1.046-.323-.382-2.269-2.836-2.94-3.868-.133-.2 1.461-.758 1.984-.772.167-.003 4.311 3.915 4.581 4.043.269.128 4.663-2.027 6.586-2.946 1.155-.551 2.318-1.13 3.513-1.623a16.374 16.374 0 0 0 2.334-3.187c.946-1.709 2.245-4.683 2.403-4.812.162-.13 1.474-.318 1.479-.266.111 1.878-.364 4.627-.878 6.409.451-.168.843-.294 1.588-.566.741-.272 2.135-.694 2.946-.82a11.519 11.519 0 0 1 2.67-.133c1.167.066 2.634.21 3.898.602a.207.207 0 0 1 .092.344c-.735.732-1.911 1.414-3.403 1.95-1.493.531-4.641 1.632-5.749 2.074-1.107.446-3.549 1.295-4.164 1.509-.349.694-1.001 1.494-1.48 2.079-.899 1.099-1.75 2.048-2.733 3.193-1.942 2.262-5.731 6.787-5.884 6.898-.152.11-2.771.683-2.743.541.044-.201 4.947-8.928 5.692-10.6-1.783.34-7.801 2.036-8.135 2.043-.088.002-.736-.872-.984-1.227-1 1.028-3.847 2.177-3.848 2.098.003-.33.864-1.821.932-1.912l.003-.005Z" fill="#fff"/><path d="M155.616 83.74c.155-.374.264-.626.291-.653.089-.094 1.153-.383 1.163-.276a7.31 7.31 0 0 1-.017.825c-.478.04-.957.072-1.437.104ZM154.174 87.104c.346-.684.955-2.18 1.349-3.14.501-.037 1.007-.069 1.506-.113-.148 1.633-.647 4.15-.924 5.222-1.01.35-3.933 1.371-4.162 1.451.874-.97 1.65-2.294 2.23-3.424l.001.004ZM159.745 88.267c.204.329 1.698 1 2.084 1.015.387.02 2.687-.808 3.453-1.365-1.117-.132-3.366-.385-5.533.35h-.004ZM142.914 104.693c1.516-2.67 4.502-7.98 4.876-9.329.68-.37 6.221-2.346 6.478-2.339.262.01-1.56 2.524-2.546 3.682-.92 1.08-1.812 2.094-2.651 3.086-1.39 1.638-2.774 3.112-4.087 4.74-.689.065-1.382.113-2.075.156l.005.004ZM144.806 104.771c-.27.342-.543.693-.806 1.056a50.84 50.84 0 0 1-1.962.421c.015-.042.308-.55.749-1.326.675-.045 1.346-.093 2.019-.151Z" fill="#D4E2FF"/><path d="M156.225 92.899a3.284 3.284 0 0 1-.74-1.068c-.254-.614-.282-1.5.016-2.181 1.431-.486 2.87-.951 3.919-1.277.234.38 1.883 1.354 2.476 1.266.895-.127 3.03-1.018 3.725-1.65.53.077 1.145.215 1.598.337-.624.808-3.494 1.908-5.534 2.589-.254.084-.908.323-1.688.575-.783.257-3.39 1.275-3.776 1.41l.004-.001ZM139.133 95.247c-.048.026-1.004.384-1.421.594-.067-.08-2.803-3.54-2.826-3.668-.022-.128 1.439-.54 1.528-.463.088.076 4.265 3.954 4.645 3.957.282.002 2.72-1.021 4.721-1.924-.243.746-.244 1.563.133 2.225-2.401.56-6.623 1.741-6.707 1.717-.106-.03-.543-.704-.834-1.078.346-.386.608-.753.888-1.215.051-.084-.034-.192-.127-.145Z" fill="#D4E2FF"/><path d="M146.054 93.62a76.929 76.929 0 0 0 1.47-.686c1.015-.49 1.841-.931 3.766-1.741.965-.403 2.439-.94 3.953-1.454a3.056 3.056 0 0 0-.067 1.891c.153.514.449.966.821 1.353-.532.182-1.065.355-1.509.49.266-.468.453-1.002.359-.99-.664.087-7.242 2.457-7.291 2.576-.09.217-.17.412-.255.633-.245.03-.654.111-1.164.223-.418-.668-.38-1.531-.083-2.295ZM137.094 97.18c.748-.532 1.415-1.199 1.648-1.6-.232.111-3.382 1.568-3.413 1.617-.035.05-.682 1.206-.692 1.278-.006.04 1.709-.763 2.457-1.295Z" fill="#D4E2FF"/><path d="M153.917 89.868c.179-.563.486-1.096.68-1.666.177-.519.287-1.07.363-1.614.005-.023.044-.025.049 0 .003.619-.143 1.215-.298 1.81-.13.488-.328 1.164-.68 1.542-.051.058-.135-.016-.115-.076l.001.004ZM153.487 87.836c.074-.11.205-.115.325-.136.213-.038.427-.076.636-.143.041-.017.065.045.035.072a.929.929 0 0 1-.456.217c-.157.037-.366.126-.521.07-.033-.011-.036-.055-.014-.08h-.005ZM147.384 96.007c.454-.252 1.018-.228 1.487-.465.029-.014.061.02.038.042-.382.383-.949.44-1.444.606-.125.044-.194-.124-.078-.188l-.003.005ZM146.306 98.191c.175-.132.407-.19.609-.27.194-.074.387-.13.593-.136.03-.005.047.04.019.054a4.361 4.361 0 0 1-.543.25c-.201.084-.4.207-.616.227-.066.003-.12-.075-.058-.126l-.004.001ZM144.389 102.614a41.32 41.32 0 0 0 2.677-3.662c.784-1.205 1.414-2.528 2.267-3.69.029-.035.096-.007.077.04-.569 1.317-1.379 2.571-2.14 3.781-.804 1.289-1.708 2.533-2.799 3.595-.049.049-.126-.013-.082-.064ZM135.795 97.717c.055-.239.114-.477.226-.695.012-.028.054-.018.056.017.027.206-.03.405-.083.607-.021.1-.047.206-.068.311-.021.109-.008.181-.096.254a.054.054 0 0 1-.072-.01c-.094-.127.001-.342.034-.48l.003-.004ZM135.337 93.204c.187-.143.419-.228.626-.326.094-.043.188-.086.282-.124a10.651 10.651 0 0 1-.18-.245c-.022-.027.02-.065.046-.04.076.08.153.163.229.246.202-.08.41-.152.619-.189.026-.004.042.037.018.05l-.518.263c.596.628 1.215 1.34 1.537 2.113.015.037-.033.085-.062.046-.334-.464-.639-.946-.996-1.392-.192-.238-.388-.476-.581-.718-.061.028-.121.06-.182.089-.226.119-.471.28-.722.36-.038-.046-.073-.092-.116-.133ZM160.968 87.779c.242.449.651.763 1.049 1.07.02.015-.001.045-.026.031-.438-.286-.88-.564-1.127-1.039-.034-.068.065-.13.104-.062Z" fill="#fff"/></g><g clip-path="url(#b)" fill-rule="evenodd" clip-rule="evenodd"><path d="M196.2 87.564c-3.612-2.698-11.439-2.909-15.586 3.421-4.07 6.204-1.983 12.252-.035 14.866 1.767 2.367 5.01 3.611 6.937 3.976-.063.323-.313.801-.703.941-.292.106-.57.281-.57.661 0 .309.341.499.661.506.605.014.828-.661 1.224-.19-.09.14-.174.365-.055.59.097.183.334.211.299.436-.063.435-1.009.119-1.065.597-.055.478.564.428.529.752-.035.323-.723.428-.911 1.081-.473 1.637 1.934 1.651 2.191 2.368.202.541-.034.941-.257 1.272-.23.33-.793.892-1.12 1.405-.202.323-.32.843-.195 1.222.111.351.438.464.765.555.557.162 1.134.295.905.984-.174.512-.696.864-.933 1.362-.201.422-.201.928.063 1.293.118.162.348.281.445.506.188.414.167.998-.132 1.693-.042.105.181.091.39-.499.139-.4.278-1.075-.063-1.531-.139-.183-.313-.33-.431-.534-.195-.33 0-.773.271-1.089.348-.408.689-.808.772-1.321a.974.974 0 0 0-.521-1.04c-.32-.161-1.072-.182-1.19-.59-.181-.632.71-1.461 1.044-1.89.507-.646.765-1.18.598-1.875-.278-1.174-2.54-.759-2.206-2.241.112-.492.717-.52.849-1.103.118-.506-.473-.443-.417-.738.041-.225.953.007.96-.752 0-.407-.494-.379-.265-.78.279.169.46-.098.661-.063.244.035.202.267.529.288.292.021.439-.246.647-.175.404.14.64.056.738-.45.049-.267-.132-.478-.459-.604-.327-.12-1.107-.295-1.051-.892 3.632-.183 7.021-1.567 9.393-5.417 2.86-4.637 3.34-12.463-2.734-17.008l.028.007Z" fill="#fff"/><path d="M179.765 103.076c-1.211-2.902-1.35-7.96.932-11.424 2.289-3.463 5.553-5.48 9.832-5.43 3.346.035 6.408 1.75 8.349 4.96 1.941 3.217 1.983 7.868.007 12.069-1.906 4.054-5.684 5.979-9.414 6.197-.076-.591-1.419-.548-1.746-.078-4.481-.99-6.659-3.182-7.953-6.294h-.007Z" fill="#D4E2FF"/><path d="M188.991 109.658c-.118.106-.856-.021-.96-.105.076-.295.995-.281.96.105ZM187.801 111.288c-.271.042-.355.218-.696.302-.236.057-.494 0-.521-.175-.056-.373.737-.555 1.391-.513.571.035.8.485 1.141.351-.542-.407-.974-.752-1.704-.527.347-.449.48-.885.48-.885s.501.274 1.203.119c.077.331.286.745.814.963.529.211.947.316.794.667-.119.274-.348.035-.578.057-.16.014-.32.182-.403.182-.258 0-.209-.253-.467-.323-.229-.063-.438.176-.64.148-.292-.043-.341-.436-.814-.359v-.007Z" fill="#D4E2FF"/></g><g clip-path="url(#c)"><path d="M190.459 155.12c-1.03-1.982-2.818-4.071-5.118-5.653-2.818-1.939-7.79-2.846-12.245-1.376-7.778 2.57-13.439 11.282-8.157 20.863 3.5 6.354 11.386 7.493 15.783 6.423 3.874-.938 7.368-2.995 9.472-6.592 2.395-4.09 2.464-9.418.265-13.665Z" fill="#fff"/><path d="M189.714 155.646c-1.662-1.251-4.291-1.683-6.028-1.282a4.506 4.506 0 0 0-1.245.512 18.022 18.022 0 0 0-2.711-2.051c1.669-1.263 3.551-2.157 5.668-2.27a13.2 13.2 0 0 1 4.316 5.097v-.006ZM177.671 148.097a13.302 13.302 0 0 1 6.678 1.783c-1.333.143-2.691.85-3.759 1.494-.524.319-1.03.67-1.51 1.057a26.37 26.37 0 0 0-2.54-1.282c.531-.95.777-2.014 1.131-3.046v-.006ZM173.633 148.741a13.38 13.38 0 0 1 3.589-.644c-.322.576-.505 1.22-.802 1.82a9.188 9.188 0 0 1-.55.938c-1.441-.563-3.38-1.082-5.017-.875a15.83 15.83 0 0 1 2.786-1.239h-.006ZM169.646 150.736c1.946-.181 3.892.113 5.744.757-.24.282-.493.544-.784.794-1.27 1.082-3.033 1.47-4.625 1.783-1.497.287-3.361.6-4.638 1.488a13.83 13.83 0 0 1 4.297-4.815l.006-.007Z" fill="#D4E2FF"/><path d="M163.865 162.05a12.158 12.158 0 0 1 .72-4.797c1.725-2.289 5.162-2.095 7.753-2.964 1.396-.469 2.666-1.201 3.633-2.314.057-.063.101-.132.152-.194a17.36 17.36 0 0 1 2.363 1.151c-1.207 1.05-2.287 2.263-3.286 3.47-1.655 2.008-3.102 4.247-4.359 6.523-1.372 2.477-2.673 5.46-2.907 8.343-2.205-2.02-3.848-5.003-4.069-9.212v-.006Z" fill="#D4E2FF"/><path d="M168.288 171.569c.84-2.696 1.51-5.285 2.818-7.837 1.125-2.189 2.565-4.259 4.075-6.198 1.138-1.463 2.446-2.976 3.937-4.221a20.163 20.163 0 0 1 2.653 2.039c-1.067.913-1.718 2.276-2.097 3.671-.777 2.839-.777 5.841-.973 8.756-.152 2.27-.24 5.134-1.725 7.029-.215 0-.424-.012-.638-.031-2.566-.182-5.605-1.145-8.05-3.208Z" fill="#D4E2FF"/><path d="M187.142 170.975c-2.641 2.414-5.92 3.833-9.465 3.852 1.201-1.238 1.415-3.321 1.573-4.978.253-2.664.114-5.028.398-7.599.253-2.258.695-4.966 2.604-6.467.29.282.575.57.846.864 1.687 1.844 2.831 4.115 3.532 6.485.752 2.533 1.428 5.297.518 7.843h-.006Z" fill="#D4E2FF"/><path d="M188.109 169.986c.531-2.257-.164-4.897-.72-7.01-.714-2.683-2.123-5.123-4-7.168-.145-.156-.297-.3-.449-.45.942-.45 2.048-.5 3.071-.4 2.123.206 3.488 1.176 4.512 2.808 1.181 4.159.455 8.956-2.414 12.22ZM178.814 159.367c-.119.075 0 .262.12.181.12-.075 0-.262-.12-.181ZM178.77 160.08c-.12.075 0 .262.12.187.119-.075 0-.262-.12-.187ZM173.861 156.634c-.12.075 0 .262.119.187.12-.075 0-.262-.119-.187Z" fill="#D4E2FF"/></g><path d="M174.804 121.752c.495-.08.805-.11.856-.073.51.357.753 3.861 1.063 5.027.081.313.162.422.295.4.347-.058 1.048-.954 3.07-1.282l.295-.044c3.077-.386 3.446 4.415 1.262 5.552a3.23 3.23 0 0 1-.967.32c-1.092.175-2.073-.204-2.472-.138-.148.022-.214.109-.184.299.236 1.398 1.66 5.93 1.018 6.141-.214.073-.827.182-1.579.306-1.498.24-3.52.517-3.881.576-.539.087 1.298-5.304-2.664-4.663-.044 0-.081.015-.126.022-4.132.779-.612 5.741-1.055 5.814-.383.065-3.593 1.172-4.848 1.376-.184.03-.317.044-.405.03-.694-.11-2.959-15.788-2.812-16.254.163-.524 10.109-2.921 13.134-3.417v.008Zm-.11-.649c-1.498.241-4.737.962-7.696 1.705-5.741 1.45-5.837 1.763-5.962 2.164-.052.167-.096.306.236 2.819.199 1.516.479 3.439.767 5.267.805 5.1 1.41 8 1.801 8.626a.782.782 0 0 0 .546.386c.162.022.346.015.619-.029.856-.138 2.494-.648 3.682-1.027.495-.153 1.056-.335 1.174-.357a.694.694 0 0 0 .494-.35c.199-.357.059-.685-.214-1.348-.361-.859-1.033-2.462-.539-3.358.214-.386.642-.634 1.321-.765.037 0 .074-.015.111-.022.634-.102 1.092-.029 1.372.226.613.554.509 1.989.443 2.849-.052.728-.081 1.121.236 1.413a.737.737 0 0 0 .613.175c.118-.022.413-.066.811-.117a211.87 211.87 0 0 0 3.07-.459c1.195-.197 1.527-.277 1.682-.328.834-.276.627-1.464.487-2.244-.147-.845-.413-1.894-.642-2.819a52.435 52.435 0 0 1-.31-1.282c.517.087 1.218.204 2 .073a3.811 3.811 0 0 0 1.166-.386c1.608-.831 2.051-3.067 1.542-4.656-.48-1.5-1.704-2.316-3.195-2.127l-.317.044c-1.351.218-2.184.685-2.694 1.012-.073-.393-.147-.918-.228-1.464-.325-2.266-.502-3.22-1.011-3.584-.258-.182-.554-.175-1.35-.044l-.015.007Z" fill="#fff"/><path d="M44.316 198.001H.989c-.23 0-.415-.218-.415-.486s.186-.485.415-.485h43.327c.229 0 .414.217.414.485s-.185.486-.414.486ZM233.751 198.001H48.119c-.228 0-.414-.218-.414-.486s.186-.485.414-.485h185.632c.229 0 .415.217.415.485s-.186.486-.415.486Z" fill="#6683C2"/><path d="M193.782 44.257c-.348 0-.694-.09-1.013-.268a2.251 2.251 0 0 1-1.135-1.976v-18.36c0-.83.434-1.588 1.135-1.978a2.064 2.064 0 0 1 2.104.045l14.903 9.18a2.246 2.246 0 0 1 1.057 1.933c0 .802-.395 1.523-1.057 1.932l-14.903 9.18a2.09 2.09 0 0 1-1.09.313l-.001-.002Zm.001-21.407a.663.663 0 0 0-.312.084c-.247.139-.395.406-.395.717v18.36c0 .311.148.579.395.718a.602.602 0 0 0 .644-.016l14.903-9.181a.804.804 0 0 0 .371-.7.806.806 0 0 0-.371-.7l-14.903-9.18a.62.62 0 0 0-.332-.102Z" fill="#F08F7A"/><path d="M199.15 53.76c-11.703 0-21.221-9.518-21.221-21.22 0-11.702 9.519-21.22 21.221-21.22 11.701 0 21.22 9.518 21.22 21.22 0 11.702-9.519 21.22-21.22 21.22Zm0-40.999c-10.906 0-19.778 8.872-19.778 19.778 0 10.906 8.872 19.778 19.778 19.778 10.905 0 19.777-8.872 19.777-19.778 0-10.906-8.872-19.778-19.777-19.778Z" fill="#F08F7A"/><path d="M133.138.927H75.25c-7.752 0-14.036 6.284-14.036 14.036v.336c0 7.752 6.284 14.036 14.036 14.036h57.888c7.752 0 14.036-6.284 14.036-14.036v-.336c0-7.752-6.284-14.036-14.036-14.036Z" fill="#B1D3FC"/><path d="M71.435 25.256s-3.449 7.472-1.987 9.458c1.462 1.985 11.371-8.112 11.371-8.112l-9.384-1.346Z" fill="#B1D3FC"/><path d="M132.394 12.702H75.996a.66.66 0 1 1 0-1.321h56.398a.66.66 0 0 1 .66.66.66.66 0 0 1-.66.661ZM100.135 18.88h-24.14a.66.66 0 1 1 0-1.321h24.14c.366 0 .66.295.66.66 0 .366-.294.661-.66.661ZM118.925 18.88h-14.327a.659.659 0 0 1-.66-.66c0-.366.294-.661.66-.661h14.327a.66.66 0 1 1 0 1.321Z" fill="#FFF3E9"/><defs><clipPath id="a"><path fill="#fff" transform="scale(-1 1) rotate(10.021 -544.663 -908.503)" d="M0 0h34.845v21.069H0z"/></clipPath><clipPath id="b"><path fill="#fff" transform="translate(178.276 85.78)" d="M0 0h22.69v42.138H0z"/></clipPath><clipPath id="c"><path fill="#fff" transform="translate(162.879 147.365)" d="M0 0h29.172v28.362H0z"/></clipPath></defs></svg>