<svg width="280" height="186" fill="none" xmlns="http://www.w3.org/2000/svg"><g clip-path="url(#a)"><path d="M0-44h279.999V65.072l-6.943-.002c-.578-.048-1.165-.05-1.745-.072-.78-.927-1.566-1.847-2.503-2.62-1.416-1.17-3.123-1.946-4.998-1.716-2.755.338-4.667 2.322-6.238 4.423l-85.994-.03.001-2.238c-3.266-3.153-7.53-6.118-11.12-8.958l-20.388-16.321c-1.246.818-2.385 1.84-3.544 2.778a451.158 451.158 0 0 1-5.886 4.713l-22.382 17.618.025 2.494c-9.486.112-18.984 0-28.472-.002l-57.264.003c-.05-.02-.102-.035-.148-.061-.572-.317-1.111-1.194-1.552-1.69-1.924-2.172-4.664-3.514-7.618-2.879-2.989.643-5.191 3.35-6.716 5.826-3.272 5.314-4.776 11.84-5.71 17.948-.295 1.931-.347 4.001-.804 5.89V-44Zm109.004 30.797c-2.05.356-3.477 1.14-4.696 2.865a36.86 36.86 0 0 0-1.262 1.95c-2.208.272-4.57.423-6.048 2.343-.441.572-.703 1.26-.942 1.937 6.271.133 12.58.013 18.856.017 2.234.009 10.728.313 12.251-.1l.236-.235c-.091-.714-.703-1.173-1.245-1.601-.419-.332-.921-.552-1.408-.764-1.292-1.785-2.634-2.923-4.884-3.31-1.351-.234-2.731-.074-4.087.028-1.334-1.687-2.827-2.896-5.052-3.138-.571-.062-1.146-.025-1.719.008ZM39.861-7.72c-4.52.524-8.45 2.351-11.336 5.966-1.506 1.886-2.66 3.966-3.351 6.282-4.474-.414-8.403-.446-12.053 2.572-2.42 2-3.61 4.619-3.966 7.695l48.824-.007 21.293.018c2.566-.008 5.145.101 7.708.027-.617-2.084-1.4-3.851-3.429-4.936-1.547-.827-3.152-.953-4.874-.944-1.411-3.728-3.637-6.16-7.3-7.813-3.659-1.652-8.076-2.168-12.014-1.365C58.02.05 56.723.53 55.416.94c-2.172-3.115-3.973-5.322-7.45-7.033-1.36-.669-2.773-1.207-4.268-1.476a14.577 14.577 0 0 0-3.837-.15ZM228.81-1.695c-4.481.308-8.587 1.938-11.595 5.362-1.636 1.862-2.675 3.922-3.638 6.187-4.049-.32-7.58-.172-10.82 2.574-2.319 1.966-3.459 4.419-4.002 7.362 14.563.217 29.149-.098 43.714-.02 3.531.01 27.593.326 28.679-.08.179-.44.054-.791-.119-1.213-.72-1.754-2.031-3.224-3.809-3.943-1.3-.526-2.666-.51-4.043-.515-2.26-4.391-3.885-7.032-8.848-8.633-3.585-1.157-7.759-.885-11.187.653-3.243-4.054-7.037-7.137-12.387-7.69-.63-.064-1.316-.107-1.945-.044ZM58.493 29.73c-2.227.395-4.048 1.27-5.407 3.172-.43.602-.774 1.297-1.125 1.949-1.763.126-3.486.346-4.726 1.761-.819.934-1.155 2.125-1.255 3.337 6.641-.19 13.375-.173 20.02-.09 2.501.036 5.002.039 7.503.009 1.432-.01 2.916.06 4.34-.108.187-.248.176-.138.151-.41-.067-.742-.823-1.742-1.419-2.163-.618-.438-1.32-.59-2.043-.761-.968-1.477-1.98-2.664-3.806-3.03-1.362-.272-2.815.035-4.108.488-1.562-2.044-3.207-3.746-5.907-4.121a8.797 8.797 0 0 0-2.218-.033Zm139.62 2.988c-2.276.583-4.006 1.647-5.205 3.723-.303.524-.544 1.104-.76 1.668-2.149.06-4.566.138-6.127 1.858-.934 1.028-1.202 2.237-1.472 3.546 7.774-.072 15.559.03 23.331-.106 1.414-.004 12.462.196 13.026-.166.071-.658-.24-1.202-.641-1.698-.663-.821-1.8-.957-2.787-1.112-1.698-2.134-2.975-4.133-5.962-4.514-1.721-.219-3.403.206-4.991.84-1.509-2.04-2.93-3.617-5.599-4.012-.939-.14-1.869-.084-2.813-.026Z" fill="#fff"/><path d="M25.174 4.532c.69-2.316 1.845-4.397 3.351-6.282 2.887-3.615 6.816-5.442 11.336-5.967 1.28-.12 2.57-.07 3.838.15 1.495.269 2.908.807 4.268 1.476 3.476 1.71 5.278 3.918 7.45 7.033 1.306-.409 2.604-.89 3.946-1.163 3.938-.803 8.356-.287 12.015 1.365 3.662 1.653 5.888 4.085 7.299 7.812 1.722-.008 3.327.118 4.874.945 2.03 1.085 2.812 2.852 3.429 4.936-2.563.074-5.142-.035-7.708-.028l-21.293-.017-48.823.007c.356-3.077 1.545-5.695 3.965-7.695 3.65-3.018 7.58-2.986 12.053-2.572ZM213.575 9.854c.963-2.265 2.002-4.325 3.638-6.187 3.008-3.423 7.113-5.054 11.594-5.362.63-.063 1.316-.02 1.945.045 5.351.553 9.145 3.635 12.387 7.689 3.429-1.538 7.603-1.81 11.188-.653 4.963 1.601 6.587 4.242 8.848 8.634 1.377.004 2.743-.012 4.043.514 1.778.72 3.088 2.19 3.808 3.943.174.422.299.773.119 1.213-1.085.406-25.147.09-28.678.08-14.566-.078-29.151.237-43.714.02.543-2.943 1.683-5.395 4.002-7.362 3.24-2.746 6.77-2.893 10.82-2.574ZM51.96 34.852c.352-.652.695-1.347 1.125-1.95 1.36-1.902 3.18-2.776 5.407-3.171a8.797 8.797 0 0 1 2.218.032c2.7.376 4.345 2.078 5.907 4.121 1.294-.453 2.747-.76 4.109-.487 1.826.365 2.838 1.553 3.805 3.03.723.17 1.425.323 2.044.76.595.421 1.352 1.421 1.419 2.164.024.272.036.161-.153.41-1.422.167-2.907.097-4.339.108-2.5.03-5.001.026-7.502-.01-6.646-.082-13.379-.1-20.02.09.1-1.212.436-2.402 1.254-3.336 1.24-1.416 2.963-1.636 4.726-1.761ZM192.149 38.11c.216-.565.457-1.145.76-1.669 1.199-2.076 2.929-3.14 5.205-3.722.943-.058 1.874-.113 2.813.026 2.668.395 4.089 1.972 5.599 4.011 1.588-.633 3.27-1.058 4.991-.838 2.987.38 4.264 2.38 5.962 4.514.987.155 2.124.29 2.787 1.11.4.498.712 1.041.641 1.699-.565.362-11.612.163-13.026.167-7.772.136-15.557.033-23.331.105.27-1.309.538-2.518 1.472-3.546 1.561-1.72 3.978-1.798 6.127-1.858Z" fill="#ECECEC"/><path d="m22.545 65.144 57.264-.003c9.488.002 18.986.114 28.472.001l-.025-2.494 22.382-17.618a449.488 449.488 0 0 0 5.886-4.713c1.159-.937 2.299-1.96 3.544-2.778l20.389 16.322c3.589 2.84 7.853 5.804 11.119 8.958v2.237l85.994.03a45.612 45.612 0 0 0-5.325 12.047l-45.969-.017c-.023.847-.192 1.8.125 2.595.342.193.486.163.872.162.009 1.266-.038 2.557.036 3.82l-35.849.01-.014-18.409c-2.917-1.923-5.57-4.285-8.317-6.445-4.168-3.276-8.392-6.495-12.523-9.815-3.502-2.815-6.945-5.78-10.568-8.438-2.336 1.672-4.53 3.558-6.789 5.333l-16.903 13.36-5.141 3.97c-.898.692-1.806 1.493-2.778 2.072l.013 12.097c.002 2.175.074 4.373-.017 6.543l-36.94-.002.022-2.72.032-1.513c.525.008.841.076 1.308-.176.363-.668.174-1.65.158-2.401-5.22-.092-10.455-.012-15.676-.01l-29.565.015c-.782-2.86-1.907-5.698-3.196-8.365-.539-1.116-1.803-2.483-2.021-3.655Z" fill="#B36955"/><path d="m171.446 65.294.014 18.408c-.098.81-.224 1.954-.019 2.733.048.782.087 1.553.076 2.337l.081 36.485 2.175-.001.009 4.32c-2.329-.002-4.661.024-6.99-.008l.023 24.269-.006 7.194c0 1.301-.092 2.698.069 3.986-.045.447.022.585-.329.885-1.247.271-2.493.08-3.757.093.161-12.117.024-24.253.016-36.373-2.041.007-4.087.042-6.127-.035-3.7-.287-7.807-.044-11.549-.043-7.546-.032-15.091-.011-22.636.065-1.764.058-3.525.044-5.288.032V152.9c-.012 4.38-.188 8.837.057 13.209-1.517.016-3.21.185-4.706-.046-.242-.378-.176-.724-.188-1.167.017-11.766-.147-23.538-.02-35.304l-5.945.018c-.067-1.48-.037-2.972-.046-4.454l2.165.014c-.214-9.149.005-18.348-.002-27.502-.003-3.629.2-7.4-.065-11.016a26.37 26.37 0 0 0-.035-2.682c.091-2.17.019-4.368.017-6.542l-.013-12.098c.971-.579 1.88-1.38 2.778-2.071l5.14-3.971 16.904-13.36c2.258-1.774 4.453-3.66 6.788-5.332 3.623 2.657 7.066 5.623 10.569 8.438 4.13 3.32 8.355 6.539 12.522 9.814 2.748 2.16 5.4 4.523 8.318 6.446Zm-40.67 11.012-8.165-.006c-1.432 0-2.961-.11-4.379.068-.529.067-1.142.194-1.54.573-.574.545-.212 8.64-.209 10.198-.131 2.034-.244 4.467-.002 6.486-.019 1.725-.214 3.654.008 5.36 1.287.423 12.083.161 14.268.16l.031-15.845c-.001-2.288.2-4.726-.012-6.994Zm1.469-.002c-.209 7.59-.042 15.236-.051 22.831 5.049-.03 10.135.115 15.177-.05l.008-14.424c.002-2.423-.094-4.887.016-7.305.001-.36-.011-.627-.113-.978-1.565-.256-3.357-.078-4.95-.078l-10.087.004Zm31.513 1.006c-.134-.222-.323-.594-.545-.734-.316-.198-12.759-.296-14.052-.205-.217.31-.175.604-.203.975l.039 1.797c-.182 2.544-.085 5.153-.088 7.703-.004 2.796-.088 5.622.003 8.414l-.017 3.816c4.919-.002 9.852.073 14.77-.04.294-1.987.086-4.318.083-6.345-.009-5.114-.165-10.271.01-15.38Zm-46.984 23.22-.342.118c-.24 1.994-.045 4.195-.057 6.214l-.039 14.413c4.782.009 9.583-.068 14.363.044l.058-19.443c.01-.47.083-.979-.16-1.399-1.438-.211-3.072-.039-4.532-.029-3.097.01-6.195.037-9.291.082Zm15.871-44.385c-.377.117-.554.22-.836.497-.464.996-.281 12.676.067 14.047 1.006.356 13.812.315 15.809.188.196-.029.402.014.51-.174.202-.355.435-13.194.156-13.971-.079-.221-.292-.316-.502-.395-1.216-.454-13.018-.246-15.204-.192Zm-.423 44.267-.042 20.908 10.434-.002c1.451.002 3.284.202 4.698-.078-.064-6.921.07-13.84.055-20.76-5.042-.009-10.105.072-15.145-.068Zm16.612.074c.01 6.942.073 13.891-.024 20.832l9.989-.017c1.566 0 3.309.147 4.862-.044.014-6.929-.039-13.863.057-20.791l-14.884.02Z" fill="#FEFEFE"/><path d="M147.689 70.88c-1.998.128-14.803.169-15.81-.187-.348-1.371-.53-13.051-.067-14.047.282-.277.459-.38.837-.496 2.185-.055 13.988-.263 15.204.192.209.078.423.173.502.394.278.777.046 13.616-.157 13.971-.108.189-.314.145-.509.174Z" fill="#FAE6DB"/><path d="M0 90.178c.457-1.888.509-3.958.804-5.89.934-6.108 2.438-12.633 5.71-17.947 1.525-2.476 3.728-5.183 6.716-5.826 2.954-.635 5.694.707 7.618 2.878.44.498.98 1.374 1.552 1.69.046.027.098.042.148.062.218 1.173 1.482 2.54 2.021 3.655 1.289 2.668 2.414 5.505 3.195 8.366.218.835.393 1.718.665 2.534l.35 1.553c.589 3.242 1.08 6.502 1.268 9.795.677 11.869-1.36 27.936-8.3 37.911-.25.357-.506.711-.768 1.06l-.433.388c-1.044.823-1.979 1.752-3.128 2.431-.068.04-.135.083-.203.124l-.122.073-1.37.155c-.07-3.255-.1-6.511-.093-9.766.427-.547 2.84-2.979 2.755-3.46-.047-.265-.188-.407-.35-.61-.331-.129-.403-.162-.75-.008-.637.28-1.377 1.54-1.805 2.107l-.01-11.896c.003-2.066.14-4.222-.037-6.272-.033-.388-.108-.644-.347-.958l-.296-.083c-.387.233-.533.511-.646.934-.44 1.635-.037 10.731-.076 13.295-.725-2.078-3.887-12.331-4.718-13.285-.215-.087-.244-.156-.475-.063-.247.099-.336.207-.5.406-.08 1.144.65 2.688 1.017 3.772.864 2.556 1.71 5.108 2.641 7.64.63 1.711 1.52 3.488 1.879 5.269.334 1.659.189 3.538.202 5.229l.093 7.892-.019.091c-.336-.047-.672-.086-1.008-.13-3.208-.42-5.18-3.006-7.022-5.379-4.347-7.253-4.724-10.838-6.158-18.688V90.178ZM257.571 65.088c1.571-2.101 3.483-4.085 6.238-4.423 1.875-.23 3.581.545 4.997 1.715.937.773 1.724 1.694 2.503 2.62.58.022 1.167.024 1.746.072l-1.415.06c-.079.411.911 1.816 1.168 2.246 1.709 2.86 3.448 6.54 4.241 9.776.214.947.484 1.857.791 2.78.15.614.333 1.236.44 1.86a54.806 54.806 0 0 1 1.206 6.777c.166 1.378.197 2.87.511 4.217v13.527c-.861 5.232-1.55 10.548-3.47 15.53-.599 1.548-1.564 2.951-2.155 4.49-1.794 2.783-3.83 5.895-7.305 6.66-.479.105-.979.175-1.466.223l-.089-.049c-.134-5.322-.046-10.667-.07-15.992-.01-2.033-.316-6.425.088-8.213.536-2.369 4.982-9.675 4.739-11.412-.052-.377-.135-.402-.428-.602-1.248.423-3.25 6.273-4.184 7.794-.027.045-.056.089-.084.133-.057-1.82.201-7.206-.072-8.534-.081-.394-.167-.398-.493-.602-.358-.019-.384-.028-.681.167a2.082 2.082 0 0 0-.275.983c-.075 1.372.069 2.841.057 4.231l-.087 11.937c-.561-1.303-2.539-6.148-3.349-6.977-.345-.071-.344-.077-.652.09-.18.264-.307.473-.283.806.083 1.091 1.366 3.278 1.86 4.321.579 1.22 2.096 3.891 2.374 5.084.269 1.156.044 2.934.043 4.149l-.046 12.66-.019.091c-.141-.05-.347-.067-.496-.092-1.76-.468-2.991-1.859-4.522-2.735l-.079-.116c-1.037-1.225-2.048-2.477-2.912-3.831-6.996-10.962-7.456-32.7-4.685-45.138l.336-1.525c.173-.91.43-1.813.655-2.712a45.64 45.64 0 0 1 5.324-12.046Z" fill="#92AEEA"/><path d="M277.05 77.153c-.793-3.235-2.532-6.916-4.241-9.776-.257-.43-1.247-1.834-1.168-2.246l1.414-.06 6.943.003v12.089l-2.948-.01Z" fill="#B36955"/><path d="M116.487 87.141c-.003-1.558-.365-9.654.209-10.198.399-.379 1.011-.506 1.54-.573 1.418-.178 2.947-.068 4.379-.068l8.165.006-.132.981c-1.105.402-11.446.012-13.699.168l-.133 7.269c-.162-2.331.104-4.683-.141-7.004-.129 2.186.439 7.78-.188 9.42Z" fill="#89A2D8"/><path d="M130.78 76.306c.212 2.268.011 4.706.012 6.994l-.031 15.845c-2.185.001-12.981.263-14.267-.16l.315-.062c.057-.132.073-.154.102-.317.116-.647.137-4.06-.126-4.606-.07-.144-.2-.25-.3-.374-.242-2.02-.129-4.453.002-6.487.627-1.638.059-7.232.188-9.418.245 2.32-.021 4.672.141 7.003l.134-7.27c2.253-.154 12.594.236 13.698-.166l.132-.982Z" fill="#97BAEF"/><path d="m132.251 76.304 10.087-.003c1.593 0 3.385-.178 4.95.077.102.351.114.618.113.978-2.647.057-5.303-.02-7.952.004-2.295.02-4.654.172-6.941.012-.218-.287-.205-.712-.257-1.068ZM148.959 77.347c.028-.37-.014-.665.203-.975 1.293-.091 13.736.007 14.052.205.222.14.411.511.545.734-3.124.362-7.809.093-11.075.087a88.617 88.617 0 0 1-3.725-.051Z" fill="#89A2D8"/><path d="M132.193 99.138c.009-7.595-.158-15.242.051-22.832.052.356.039.78.256 1.069 2.288.16 4.647.007 6.941-.013 2.649-.024 5.306.053 7.953-.003-.11 2.417-.014 4.881-.016 7.304l-.008 14.424c-5.043.165-10.128.021-15.177.051Z" fill="#A1C0F2"/><path d="m27.766 77.167 29.565-.016c5.221-.002 10.456-.08 15.676.01.016.752.205 1.734-.158 2.402-.467.252-.783.184-1.308.176-7.563-.155-15.158-.01-22.725-.02-6.784-.007-13.606-.19-20.386-.018-.272-.816-.447-1.699-.664-2.534ZM206.279 77.12l45.969.018c-.225.899-.481 1.802-.654 2.712-7.078-.18-14.185-.063-21.265-.04-7.683.025-15.371-.034-23.053.068-.385.001-.53.03-.872-.162-.317-.795-.148-1.748-.125-2.595Z" fill="#FAE6DB"/><path d="m277.052 77.152 2.948.01v2.718l-2.158.052a29.141 29.141 0 0 1-.79-2.78Z" fill="#FEFEFE"/><path d="M148.959 77.347c1.241.044 2.483.06 3.725.052-.571 1.33-2.627 2.995-3.593 4.168-.019-.793.011-1.637-.093-2.422l-.039-1.798Z" fill="#97BAEF"/><path d="M152.687 77.396c3.265.007 7.951.275 11.075-.086-.175 5.109-.019 10.266-.01 15.38.003 2.027.211 4.358-.083 6.345-.206-2.296-.063-4.71-.062-7.019l-.016-13.168c-3.767 3.61-7.05 7.768-10.656 11.541-.551.577-3.634 3.376-3.787 3.7-.141.296-.172.84-.232 1.17-.091-2.792-.007-5.618-.003-8.414.003-2.55-.094-5.16.088-7.702.103.785.074 1.628.092 2.42.967-1.171 3.023-2.836 3.594-4.167Z" fill="#A1C0F2"/><path d="M148.916 95.262c.06-.33.091-.875.231-1.171.154-.323 3.237-3.122 3.788-3.699 3.606-3.773 6.889-7.93 10.656-11.541l.016 13.168c-.001 2.308-.144 4.723.062 7.02-4.918.112-9.851.037-14.77.04l.017-3.817Z" fill="#97BAEF"/><path d="M28.426 79.698c6.78-.172 13.602.01 20.386.019 7.567.009 15.163-.136 22.725.019l-.032 1.513c-7.717.154-15.464.023-23.184.003-6.516-.016-13.028.093-19.545 0l-.35-1.554ZM207.275 79.874c7.682-.103 15.37-.044 23.053-.069 7.08-.022 14.187-.14 21.265.04l-.336 1.525-42.354.07c-.148 4.094-.055 8.185-.035 12.28l.021 15.423c.04 17.588-.065 35.175-.314 52.76-.873.024-1.75.01-2.623.013l-.051-73.153-34.381.01a30.873 30.873 0 0 0-.076-2.337c3.927-.199 7.957-.007 11.896-.006l24.006-.007c.023-.916.035-1.815-.035-2.73-.073-1.262-.027-2.554-.036-3.82Z" fill="#E99E87"/><path d="m277.839 79.934 2.157-.052v1.931l-1.717-.019c-.107-.624-.29-1.245-.44-1.86Z" fill="#F37E60"/><path d="M28.776 81.253c6.517.093 13.028-.016 19.545 0 7.72.02 15.467.151 23.184-.002l-.023 2.72a50.21 50.21 0 0 0-.042 2.73 86.544 86.544 0 0 0-.064 2.289l-.019 72.907c-3.667.023-7.334-.048-11 .025-1.701-.089-3.445-.014-5.15-.014h-9.665l-29.829-.006c.168-9.556.076-19.155.007-28.713l1.37-.155-.025 3.29.05.4c-.043 1.476.23 4.57-.143 5.854l.063.445c-.179 1.75-.083 3.589-.085 5.352l.041.314-.026 2.253-.01 1.791h9.022l.006-1.836c0-.74-.01-1.481-.034-2.221l.035-.285c-.152-1.77-.015-3.622-.033-5.403l-.03-.351c.204-1.92.062-3.972.053-5.903l.063-.395c-.034-1.873-.107-3.802.048-5.669l-.095-.425c-.743-.515-3.95-.244-5.013-.227.261-.349.517-.702.767-1.06 6.94-9.975 8.977-26.042 8.3-37.91-.187-3.294-.679-6.554-1.268-9.795Zm21.069 16.395c-1.322-.314-3.084-.126-4.461-.144l.011 6.906.018.336c-.006 1.642.06 3.325-.043 4.962l.033.508c-.006 1.817.066 3.675-.038 5.487l.042.4-.02 1.609-.004 1.882c2.911.099 5.858.014 8.774.01l-.002-1.937-.034-1.624.042-.422c-.133-1.769-.037-3.609-.037-5.386l.022-.562c-.03-1.636-.038-3.273-.023-4.91l.069-.371c-.185-2.228-.038-4.57-.022-6.809-1.293-.028-2.837-.209-4.095.069l-.232-.004Zm18.448.496-.017-.379c-.701-.405-7.78-.215-9.061-.187-.16.267-.122.44-.092.742.02 2.047-.038 4.127.08 6.169l.013.25-.04 4.939.023.663c-.003 1.773.103 3.625-.035 5.389l.057.314c-.011.563-.036 1.128-.031 1.691l.015 1.896c3.004.002 6.019.057 9.022-.022l.01-1.867-.04-1.736.032-.313-.016-5.475.032-.529c-.086-1.632-.019-3.295-.047-4.931l.047-.277c-.056-2.1-.032-4.239.048-6.337Zm-37.13-.526-.02 6.888.03.255c-.045 1.646.094 3.406-.089 5.033l.076.382c-.13 1.842.004 3.697-.13 5.533l.033.41-.091 1.667c-.052.578-.08 1.14-.068 1.721 2.86.267 5.882.118 8.756.084l-.003-1.844-.024-1.63.044-.384c-.04-1.858.008-3.718.032-5.576l.021-.323c-.145-1.652 0-3.422.015-5.084l.073-.265c-.105-2.207-.171-4.686.117-6.872l-8.772.005Zm19.119 32.458c-1.222-.051-3.718-.425-4.799.093-.02.16-.05.301-.025.461.038 1.876.23 3.979-.027 5.836l.093.302c.002 1.86.21 4.009-.077 5.835l.034.435c.012 1.738.163 3.615-.052 5.338l.034.343.021 2.169.034 1.84 8.688-.002-.053-1.836-.035-2.191.014-.402c-.17-1.708-.044-3.498-.021-5.214l.018-.571c-.206-1.835-.046-3.802-.019-5.649l.024-.52.015-6.339c-1.288-.001-2.583-.032-3.867.072Zm13.243-.063c-1.114-.01-3.249-.322-4.23.172-.086.276-.084.378-.062.657.006 1.783.166 3.762-.071 5.522l.103.506a212.936 212.936 0 0 0-.033 5.651l.02.541c-.07 1.769-.02 3.536.02 5.305l.042.342a22.475 22.475 0 0 0-.01 2.239l-.001 1.785 9.016-.006-.057-1.817-.062-2.2-.033-.33c.176-1.699.044-3.54.046-5.254l-.002-.567c-.1-1.884-.02-3.8.008-5.686.096-2.287-.01-4.596.06-6.889-1.585.021-3.17.031-4.754.029Zm-32.36.144c-.053 2.048-.01 4.106-.01 6.155l.026.406c-.023 1.906.15 3.951-.048 5.833l.05.479c-.026 1.773.031 3.569-.05 5.338l.037.317a46.77 46.77 0 0 1-.105 2.259c-.008.57-.032 1.144-.015 1.714 2.871.03 5.743.034 8.614.014l.039-1.724c.015-.743.008-1.474-.032-2.217l-.065-.336c.32-1.639.117-3.693.13-5.376l-.01-.444a341.2 341.2 0 0 0 .037-5.917l.09-.312c-.104-2.043.01-4.141.016-6.192-2.901.079-5.803.08-8.705.003ZM208.906 81.442l42.354-.069c-2.771 12.44-2.311 34.176 4.685 45.138.865 1.355 1.875 2.607 2.912 3.831l-.296.102c-1.4-.106-2.8-.07-4.201-.138.006 1.874.065 3.763.013 5.635l.007.855c.031 1.888.093 3.808-.002 5.694l-.021.842c.04 1.987.111 4.013-.055 5.996l.018.291-.041 1.026c-.024.606-.062 1.215-.062 1.822l9.639.003c-.039 3.152-.087 6.325-.002 9.476-1.676.437-6.344.079-8.387.073l-22.335-.005-6.976-.026c-1.203-.004-2.483-.093-3.677.026-1.586-.14-3.244-.062-4.839-.07l-9.061-.038c.248-17.585.353-35.173.314-52.76l-.021-15.424c-.02-4.094-.114-8.185.034-12.28Zm7.429 16.311c-.852-.223-3.433-.375-4.217-.007-.041.02-.076.048-.114.072l-.074.341c.065 2.055-.023 4.109.026 6.161l-.011.3a245.905 245.905 0 0 0-.064 4.859l.028.183-.071.647.07.301c-.001 1.45.162 3.154-.072 4.568l.08.382c-.018.686-.002 1.392-.077 2.074-.259.18-.322.195-.371.527-.063.424.009.911.039 1.339 3.365.003 6.744.068 10.107-.014.025-.562.121-1.185-.087-1.718-.196-.139-.255-.176-.5-.225-.118-.61-.037-1.324-.03-1.947l.015-.448c-.097-1.527.016-3.132.037-4.666l.005-.348.075-.325-.06-.426c.009-1.588.009-3.176 0-4.764l.059-.297c-.138-2.099-.008-4.294.061-6.4-.076-.17-.014-.07-.25-.25-1.341-.084-2.87-.132-4.201.058l-.403.023Zm13.643-.03c-.853-.15-3.775-.37-4.465.07-.013 2.17.106 4.41-.038 6.569l.057.255c-.135 1.625-.077 3.278-.076 4.908l.061.14-.031.595-.002.33c.004 1.456.175 3.185-.04 4.608l.074.439c-.035.696-.032 1.414-.137 2.102-.124.562-.074 1.213-.084 1.789l9.99-.003c.024-.49.062-.963-.016-1.449-.253-.34-.363-.306-.764-.398l.033-1.988c.244-.851.051-4.412-.007-5.5l.074-.492c-.062-1.722-.024-3.456-.019-5.18l.026-.241c-.022-2.169-.018-4.338.011-6.508-.076-.043-.145-.102-.228-.13-.543-.182-3.517-.066-4.087.096l-.332-.012Zm14.497-.087-4.507-.004c-.008 1.867-.262 5.481.047 7.205.008 1.568.003 3.135-.017 4.703l.024.219-.027.541.056.262c0 1.441.192 3.285-.075 4.675l.058.468c-.042.688-.06 1.391-.131 2.075-.043.59-.087 1.171-.077 1.763 3.102.079 6.268.137 9.367-.008-.036-.518-.003-1.183-.209-1.66-.253-.669-.153-1.504-.147-2.21l.041-.412c-.154-1.503-.051-3.128-.055-4.645l.045-.376.02-.362-.062-.339.015-4.788.021-.095c.31-1.458.043-3.455.014-4.963-.018-.68.034-1.35.083-2.028a97.606 97.606 0 0 0-4.013.02l-.471-.041Zm-14.194 32.488-.258.073c-.636-.212-3.47-.309-4.094-.117-.082.026-.152.083-.228.125l-.063.229c.079 1.791-.012 3.582.025 5.373l-.038.983c-.006 1.916-.073 3.852-.005 5.765l.009.769a219.805 219.805 0 0 0-.016 6.29l.045.648c-.102.683-.05 1.42-.051 2.112 2.892.142 5.85.046 8.745.016a52.771 52.771 0 0 0-.024-2.179l.051-.573c-.124-2.109-.039-4.262-.038-6.375l.029-.644c-.106-1.95-.024-3.944-.026-5.898l.036-.444c-.077-1.978-.026-3.974.022-5.952-.737-.438-3.181-.15-4.121-.201Zm-13.578.101-.301.224c-.705-.576-3.486-.169-4.481-.218l.012 6.528c.006 1.967.156 4.071-.059 6.02l.069.409c-.019 2.135.099 4.316-.047 6.443l.061.617c-.007.703-.026 1.408-.011 2.111l9.016.009c.003-.691.03-1.392-.007-2.082l.034-.696c-.106-2.118-.023-4.264-.038-6.386l.024-.448.002-.123c-.043-1.994.028-4.003.056-5.999l.033-.296c.002-1.989.016-3.978.041-5.967-.624-.401-3.417-.017-4.404-.146Zm27.709.038c-1.399-.133-2.916-.1-4.317-.011l-.097.191c.05 1.944.179 3.993-.028 5.925l.065.309c.011 1.997.155 4.107-.018 6.09l.061.337c-.013 2.118.142 4.36-.05 6.459l.074.684a40.103 40.103 0 0 0-.03 2.166c2.972.011 5.955.072 8.926.015l.006-1.971-.066-.648-.01-.248c.13-2.104.034-4.261.031-6.371l.033-.518c-.152-1.929-.028-3.957-.03-5.898l.028-.841c-.026-1.878.007-3.762.01-5.641a192.382 192.382 0 0 0-4.297.023l-.291-.052Z" fill="#E9B49C"/><path d="m278.282 81.791 1.717.02v10.975c-.314-1.348-.344-2.839-.511-4.218a54.808 54.808 0 0 0-1.206-6.777Z" fill="#FEFEFE"/><path d="m171.463 83.701 35.848-.01c.07.914.058 1.814.035 2.73l-24.006.006c-3.939 0-7.969-.192-11.897.007-.205-.78-.078-1.923.02-2.733ZM71.443 86.698c-.01-.91.003-1.82.042-2.73l36.941.001c.053.902.073 1.78.035 2.683l-33.707.037-3.311.009Z" fill="#FAE6DB"/><path d="m71.444 86.7 3.31-.008.02 2.272c-1.131.019-2.263.027-3.394.026.011-.764.032-1.527.064-2.29Z" fill="#F37E60"/><path d="m74.755 86.695 33.707-.038c-.079.762-.083 1.503-.075 2.268-6.952.07-13.904.098-20.856.084-4.237-.004-8.517.108-12.748-.07l-.024 47.137c-.011 8.6-.208 17.24-.006 25.836l-3.392-.011.019-72.908c1.131.002 2.263-.007 3.394-.025l-.02-2.273Z" fill="#E99E87"/><path d="M108.46 86.657c.265 3.615.062 7.387.065 11.015.007 9.155-.212 18.353.001 27.503l-2.164-.014c.008 1.482-.021 2.974.046 4.454l5.944-.018c-.126 11.766.038 23.537.02 35.304l-2.437.001a1081.367 1081.367 0 0 0-4.043-10.725c-.713-1.878-1.543-3.761-2.068-5.7.119-1.735.072-3.505.082-5.244-.106-1.688-.06-3.404-.066-5.095l.017-1.351.042-.395c-.17-2.061-.027-4.237-.039-6.313-2.981.02-5.962.017-8.942-.007.226 1.987.11 4.27.041 6.27l.077.41c-.01 1.863.143 3.907-.075 5.748l.046.646c-.019 1.712.03 3.454-.07 5.162l.024.33-.083 2.209-.03 1.829c1.677.017 3.355.017 5.032.002-1.256 3.07-2.413 6.197-3.553 9.311-1.448.022-2.895.014-4.342-.021-.39-.472-.762-1.008-1.244-1.391-.506-.4-1.15-.678-1.805-.592-1.104.144-1.792 1.124-2.397 1.953l-11.788-.026c-.202-8.596-.005-17.236.006-25.836l.024-47.136c4.231.177 8.511.065 12.748.07 6.952.013 13.904-.015 20.856-.085-.008-.765-.004-1.506.075-2.268ZM80.94 97.606l.005 6.736.015.366c.002 1.663-.009 3.326-.03 4.988l.03.417c-.003 1.81.083 3.671-.027 5.476l.03.373-.024 1.916.002 1.856c2.917.029 5.835.02 8.752-.024l.012-1.875-.022-1.862.047-.424c-.163-1.67-.023-3.475-.028-5.162l.047-.417-.037-.292c.017-1.678.012-3.357-.017-5.035l.04-.302c-.032-2.241-.017-4.482.047-6.721a429.35 429.35 0 0 1-8.842-.014Zm13.93-.059c-.09 2.249-.006 4.524-.017 6.776l.05.339a286.27 286.27 0 0 0-.026 5.008l.037.312a189.54 189.54 0 0 0-.025 5.587l.037.377-.044 1.68.015 2.038c3.034.045 6.068.054 9.102.028l.014-2.073a39.775 39.775 0 0 0-.084-1.657l.051-.35c-.17-1.812-.022-3.722-.056-5.549l.023-.39c-.087-1.634-.027-3.304-.038-4.943l.033-.395c-.085-2.239-.001-4.51.046-6.75-3.039.07-6.08.057-9.118-.038Zm-5.055 38.779c-.012-2.082.046-4.176-.014-6.256l-8.728-.006c.002 2.067.137 4.228-.025 6.283l.065.492c-.012 1.877.047 3.783-.046 5.655l.008.785c.004 1.678.09 3.401-.005 5.073l.037.32c-.01.765-.037 1.533.005 2.298l.034 1.769 8.657.01-.001-1.837c-.002-.752-.004-1.49-.083-2.239l.053-.291c-.149-1.706-.033-3.487.018-5.198l-.009-.657c-.122-1.88-.03-3.809.003-5.691l.03-.51ZM171.52 88.774l34.38-.01.052 73.153-13.315.01-.828-1.216c-1.288-.511-2.61-.905-3.962-.344-.991.411-1.598 1.115-2.181 1.984-1.061-.166-2.141-.226-3.211-.311a425.947 425.947 0 0 1-2.076-9.351c1.854.055 3.713.014 5.567-.001 0-.638.075-1.356-.13-1.965-.269-2.467-.048-5.203-.04-7.695l.028-.272c-.124-2.064-.031-4.186-.027-6.256l.006-.414.022-5.861c-1.42-.041-2.876-.039-4.293.065l-.294.022c-1.303-.391-3.191-.156-4.579-.152l-.021 9.464c-.001 1.691-.13 3.509.101 5.179l.039.135c-.394.52-.702.999-.93 1.615-.95 2.565-1.453 5.418-2.111 8.073-.839 3.381-1.82 6.746-2.548 10.151-1.357-.017-2.749-.099-4.101.022-.185.181-.15.091-.187.22-.161-1.287-.07-2.684-.069-3.985l.006-7.195-.023-24.268c2.329.031 4.661.006 6.99.007l-.009-4.32-2.175.002-.081-36.486Zm9.99 8.895-.455.095c-.789-.324-3.39-.141-4.339-.078l-.115.172c.027 2.102.115 4.248-.007 6.347l.067.359-.019 9.474c-.005 1.011-.242 2.509.004 3.466l-.024.092c-.31.249-.326.262-.37.676-.043.412-.009.846.007 1.26 1.375.007 9.385.268 9.891-.209.094-.491.071-1.193-.234-1.611-.025-.035-.059-.062-.088-.094-.311-2.6-.048-6.296-.039-9.039l-.001-3.976.083-.372c-.218-2.09-.102-4.463.05-6.562-1.47.018-2.942.053-4.411 0Zm13.268.018c-1.001-.003-3.606-.349-4.424.147l-.026.367c-.04 1.989.101 4.044-.053 6.019l.052.395c-.016 1.645-.014 3.29.005 4.936l.038.112-.051.595.005.39c.006 1.496.052 3.007.007 4.502l.029 1.568-.057.892c-.141.656-.117 1.273-.102 1.939l9.461-.009c.023-.594.111-1.221-.091-1.789l-.172-.153c.058-.801-.021-1.651-.042-2.456l-.021-4.642.042-.28-.058-.505c.125-1.669.047-3.418.013-5.093l.053-.285c-.115-1.76-.032-3.569.006-5.332.039-.45.104-.867-.028-1.307-1.332-.2-2.925-.12-4.273-.017l-.313.006Zm-2.507 32.515-1.844-.045c-.002 1.921.071 3.872-.017 5.789l.003.842c-.01 1.894.047 3.813-.046 5.702l-.02.849c.01 2.136.086 4.297-.006 6.43l-.039.89c-.017.666-.001 1.337-.001 2.003 2.959.032 5.918.03 8.878-.004l.004-2.049.016-.864c-.236-2.094-.063-4.33-.013-6.433l.015-.835c-.057-1.91-.018-3.821.003-5.732l.023-.812c-.071-1.871.008-3.77.042-5.642-.558-.325-3.375-.174-4.068-.013l-.474.032c-.651-.3-1.758-.174-2.456-.108Z" fill="#E9B49C"/><path d="M116.484 93.63c.1.125.23.23.3.374.263.545.242 3.959.126 4.606-.029.164-.045.185-.102.317l-.315.063c-.222-1.706-.028-3.635-.009-5.36Z" fill="#89A2D8"/><path d="m263.969 133.191.046-12.66c.001-1.215.225-2.993-.044-4.149-.277-1.193-1.795-3.864-2.373-5.084-.494-1.043-1.778-3.23-1.86-4.321-.025-.333.102-.542.283-.806.308-.167.307-.161.651-.09.811.829 2.789 5.674 3.35 6.977l.087-11.937c.012-1.39-.133-2.859-.057-4.231.021-.377.092-.656.275-.983.297-.195.322-.186.681-.167.326.204.412.208.493.602.273 1.328.014 6.714.072 8.534l.084-.133c.934-1.521 2.936-7.371 4.184-7.794.293.2.375.225.428.602.243 1.737-4.203 9.043-4.739 11.412-.404 1.788-.098 6.18-.088 8.213.024 5.325-.065 10.67.07 15.992l-1.543.023Z" fill="#7C5452"/><path d="M45.385 97.504c1.377.018 3.139-.17 4.46.143-.53 2.03-.112 4.654-.219 6.776-1.322-.219-2.893-.076-4.23-.014l-.011-6.905ZM50.084 97.648c1.258-.278 2.801-.097 4.094-.07-.015 2.24-.162 4.581.022 6.809-1.25-.039-2.792-.223-4.001.074-.078-2.198.287-4.658-.115-6.813Z" fill="#A1C0F2"/><path d="M63.452 98.05c-.828.154-3.95-.072-4.325.269-.03-.301-.067-.475.092-.742 1.282-.028 8.36-.219 9.062.187l.016.379-3.899.008c-.004 2.096.117 4.268-.027 6.354l-.115.256-.125-.073c.198-1.224.204-4.918-.024-6.196-.057-.322-.044-.342-.325-.533l-.33.091Z" fill="#89A2D8"/><path d="M94.856 104.321c.01-2.252-.074-4.527.017-6.775 3.038.094 6.078.107 9.117.037-.047 2.24-.131 4.511-.045 6.75-.711-.012-3.634-.266-4.06.179-.036.038-.066.083-.098.124l-.108.035c-.02-1.165.277-5.803-.224-6.553l-.312-.02c-.337.567-.156 5.178-.158 6.183-1.35-.121-2.781-.085-4.13.04ZM31.147 104.505l.019-6.888 8.772-.005c-.288 2.186-.222 4.665-.117 6.872-.866-.014-3.55-.294-4.157.224l-.08.004c.01-2.222.074-4.461-.084-6.678l-.14-.092c-.594 1.194-.307 5.096-.326 6.56-1.294-.028-2.593-.001-3.887.003Z" fill="#A1C0F2"/><path d="m49.847 97.646.233.004c.402 2.156.037 4.615.115 6.813l-.01.202c-.067 1.657-.166 3.423.025 5.071l-.027.43c-.026 1.679-.29 3.898.09 5.521l.028.34c-.017.537-.047 1.077-.046 1.615 1.298-.012 2.606-.055 3.902.024l.002 1.936c-2.915.004-5.862.089-8.774-.01l.005-1.881c1.37-.152 2.777-.1 4.15-.007l-.025-1.613v-5.963l-.005-.358c.01-1.694-.005-3.391.1-5.083l.018-.266c.106-2.121-.312-4.745.22-6.775Z" fill="#FEFEFE"/><path d="M85.604 100.989c-.005-.759.172-2.149-.185-2.778l-.21.008c-.328.649-.139 5.162-.131 6.106l-4.135.013-.005-6.736c2.947.035 5.895.04 8.842.014-.064 2.24-.08 4.481-.047 6.721-1.29-.014-2.77-.162-4.024.13 0-1.162.013-2.319-.105-3.478Z" fill="#A1C0F2"/><path d="m176.603 97.858.114-.173c.95-.063 3.55-.245 4.339.079a86.075 86.075 0 0 0-.046 6.759l-.167.069-4.094.015-.087-.044-.067-.359 4.34.008-.005-6.343c-1.439.03-2.89.09-4.327-.011Z" fill="#5D72AF"/><path d="M181.511 97.665c1.47.053 2.942.017 4.412 0-.153 2.099-.268 4.472-.05 6.562-1.402-.016-2.918-.116-4.306.054.015-2.206-.003-4.411-.056-6.616Z" fill="#A1C0F2"/><path d="m190.327 98.202.026-.367c.818-.496 3.424-.15 4.425-.147l-.097.546c-1.449-.151-2.92.14-4.354-.032Z" fill="#97BAEF"/><path d="m194.778 97.687.313-.006c-.002 2.176-.22 4.643.099 6.782l-.003.157c.003.416-.029.869.047 1.275-.019.893-.296 3.095.161 3.797l.247.033 3.678-.011.058.506c-1.375.008-2.761.056-4.134.012-.009 2.041-.279 5.49.079 7.373 1.283.056 2.56.022 3.843-.009l.233.001.172.153c.202.568.114 1.195.09 1.79l-9.46.008c-.015-.665-.04-1.283.102-1.938 1.406.003 2.816-.016 4.221.013.38-.553.156-11.328.15-13.111l.074-.28c-.172-1.964-.036-4.02-.066-6l.096-.545Z" fill="#FEFEFE"/><path d="M195.091 97.68c1.348-.104 2.941-.183 4.273.017.132.44.066.858.028 1.307l-.053-.975c-.852-.332-2.945-.01-3.986-.072l.013 6.391-.176.115c-.319-2.139-.101-4.606-.099-6.782Z" fill="#8794BD"/><path d="m211.931 98.156.074-.342c.038-.024.074-.052.114-.071.784-.368 3.365-.216 4.217.006-.089 2.18-.046 4.371-.042 6.553l-.272-.047c-.014-2.05-.005-4.101.024-6.151a64.31 64.31 0 0 1-4.115.052Z" fill="#89A2D8"/><path d="M216.737 97.728c1.331-.19 2.86-.142 4.201-.058.236.18.173.08.25.25a43.31 43.31 0 0 1-4.178.2c.16 2.011.225 4.197.015 6.206l-.18.02c-.007-2.163.156-4.475-.108-6.618Z" fill="#97BAEF"/><path d="M225.511 97.793c.69-.44 3.613-.22 4.466-.07l-.015 13.161c.003 1.882.286 5.134-.133 6.843-.285-.591-.166-1.478-.159-2.127a78.778 78.778 0 0 0-4.153.037l-.074-.439c1.38-.138 2.84-.04 4.229-.038l.009-4.58c-1.395.058-2.802.016-4.198.01l.002-.33c.724.004 3.672.199 4.177-.21l-.089-.184c-1.204-.388-2.787-.212-4.057-.202l-.062-.139c1.39.072 2.824.011 4.218.014-.008-1.678-.022-3.354.036-5.031l.02-.102c-.244-.23-2.998-.097-3.514-.126 1.048-.223 2.382-.07 3.458-.064.02-2.106.018-4.212-.008-6.318-1.2.09-3.073.45-4.153-.105ZM230.306 97.734c.569-.162 3.543-.278 4.086-.096.083.028.153.087.229.13-1.344.154-2.627.295-3.985.283.011 1.997.265 4.401-.105 6.344l.072.237c.037 1.635.045 3.27.024 4.905 1.283-.009 2.572.01 3.853-.036.008-1.516.225-3.419-.044-4.889l.147-.095c-.004 1.724-.043 3.457.019 5.179-1.394-.028-2.794.012-4.189.025-.073-3.958.254-8.054-.107-11.987Z" fill="#99A4BE"/><path d="m239.967 97.624 4.506.004-.039 15.078c0 .95.196 4.004-.012 4.758-.03.11-.116.196-.174.294-.295-.613-.181-1.415-.169-2.081l-4.047.021-.058-.468c1.367-.017 2.737-.057 4.104-.02l-.002-4.75c-1.339.123-2.684.097-4.027.095l-.056-.263c1.396-.193 2.828.125 4.205-.336-.948-.485-3.131-.246-4.178-.204l-.023-.22 4.135-.022c-.134-1.621-.018-3.315.083-4.937l.04-.076-.069-.133a55.17 55.17 0 0 0-1.993-.054c.653-.121 1.32-.086 1.981-.082.115-2.043.1-4.093.109-6.139l-4.206.026c-.057 2.087.046 4.178-.052 6.266l.181.246-.193.203c-.309-1.724-.054-5.339-.046-7.206Z" fill="#8794BD"/><path d="m244.47 97.633.471.043.027.815c-.314 3.726-.057 7.599-.076 11.343 1.325 0 2.669-.048 3.991.034l-.02.362c-.868-.011-3.282-.302-3.89.247-.307 1.339-.185 3.431.001 4.785l.016.428c-.015.698-.043 1.371.072 2.063 1.111.341 2.743.126 3.917.12.206.477.173 1.142.209 1.66-3.099.145-6.266.087-9.367.008a19.22 19.22 0 0 1 .077-1.763c1.449-.021 2.898-.026 4.347-.014.058-.099.143-.185.174-.295.207-.754.012-3.808.012-4.757l.039-15.079Z" fill="#FEFEFE"/><path d="M244.94 97.675a97.664 97.664 0 0 1 4.014-.02c-.049.677-.102 1.348-.084 2.028l-.042 4.547c-1.18.024-2.682-.115-3.808.22.015-1.971.104-3.995-.052-5.96l-.028-.815Z" fill="#A1C0F2"/><path d="m181.055 97.76.454-.095c.053 2.205.071 4.41.056 6.616l.002.257c-.045 1.566-.262 3.53.041 5.058.07.023.139.047.21.067 1.199.349 2.673-.36 3.854.245l-.023.174c-.791.371-3.038.155-3.95.135-.001 1.185-.21 6.751.185 7.407l3.796-.015.147.005c.03.031.064.059.089.093.304.419.327 1.121.234 1.611-.507.477-8.517.216-9.891.21-.017-.414-.051-.848-.007-1.261.044-.413.059-.427.37-.675 1.426.025 2.852.029 4.278.011.484-1.014.109-5.909.151-7.382-1.293.049-2.709.206-3.973-.097-.172-.042-.101 0-.208-.172 1.128-.521 2.928-.278 4.161-.245l-.022-5.188a85.592 85.592 0 0 1 .046-6.76ZM216.334 97.748l.403-.023c.263 2.143.101 4.455.107 6.618l.003.176.016.368c-.04 1.604-.046 3.209-.02 4.814 1.193-.012 3.18-.286 4.284.103l-.074.325c-1.399.102-2.795.084-4.196.077-.01 1.208-.317 6.756.153 7.429 1.316-.002 2.715.092 4.015-.097.246.049.305.086.5.225.208.533.112 1.156.088 1.718-3.364.082-6.743.017-10.108.014-.03-.428-.102-.915-.039-1.339.049-.332.112-.347.371-.527 1.437.035 2.874-.022 4.311.004.417-.704.142-11.212.134-13.115l.01-.218c-.004-2.181-.048-4.372.042-6.552Z" fill="#FEFEFE"/><path d="M225.513 97.788c1.079.554 2.952.195 4.152.105.026 2.105.028 4.211.008 6.317-1.076-.006-2.41-.159-3.457.065l-.741.081c.143-2.159.025-4.398.038-6.568Z" fill="#A1C0F2"/><path d="m229.972 97.722.333.012c.361 3.933.034 8.029.107 11.986 1.395-.012 2.795-.052 4.189-.024l-.074.493a71.088 71.088 0 0 1-4.025.053c.009 1.805.146 3.721-.027 5.512l-.005 1.923c1.342-.023 2.691-.078 4.031-.001.401.093.511.058.764.399.079.485.04.959.016 1.448l-9.99.004c.01-.576-.04-1.228.084-1.789a89.212 89.212 0 0 1 4.45-.012c.418-1.709.135-4.961.132-6.843l.015-13.161Z" fill="#FEFEFE"/><path d="M230.637 98.048c1.358.013 2.641-.128 3.985-.282-.03 2.169-.033 4.338-.012 6.507-1.327.022-2.77-.061-4.078.119.37-1.943.116-4.346.105-6.344Z" fill="#A1C0F2"/><path d="M35.03 104.502c.02-1.464-.267-5.366.326-6.56l.14.092c.159 2.217.095 4.456.085 6.678l-.087.144-.267.199c-.064.52.097 2.019-.165 2.386.006-.895-.005-1.79-.032-2.685v-.254ZM63.45 98.048l.33-.09c.282.19.268.21.326.532.227 1.278.222 4.972.023 6.196-.225.111-.467.208-.668.359l-.048-.29.014-.209c.097-2.152.02-4.341.023-6.498Z" fill="#fff"/><path d="M176.603 97.857c1.437.102 2.888.042 4.327.01l.005 6.344-4.34-.008c.122-2.098.034-4.244.008-6.346ZM195.35 97.953c1.041.063 3.134-.26 3.987.072l.052.975c-.038 1.763-.121 3.572-.006 5.332a78.084 78.084 0 0 0-4.02.012l-.013-6.39ZM217.005 98.12c1.414.004 2.77-.07 4.177-.2-.069 2.106-.199 4.301-.061 6.399-1.363-.072-2.738-.014-4.102.007.21-2.01.145-4.195-.014-6.207Z" fill="#A1C0F2"/><path d="M98.981 104.279c.002-1.005-.179-5.616.159-6.183l.31.02c.502.75.206 5.388.225 6.553.023 2.203.008 4.406-.043 6.609-.022 1.43-.129 2.962.045 4.383l.006.201-.018 1.764 4.347-.011-.014 2.073c-3.034.026-6.068.017-9.102-.027l-.015-2.039h4.114l-.019-1.729.01-.258c.076-1.893.031-3.792-.01-5.686l-.012-.273c.045-1.677.05-3.354.015-5.031l.002-.366Z" fill="#FEFEFE"/><path d="M211.957 104.314c-.049-2.052.039-4.106-.026-6.16 1.378.025 2.738.01 4.115-.052-.029 2.051-.038 4.101-.024 6.151-1.352.019-2.715.005-4.065.061ZM240.021 104.384c.098-2.088-.005-4.178.052-6.266l4.207-.025c-.01 2.046.006 4.096-.109 6.139-.662-.004-1.329-.04-1.982.081a29.582 29.582 0 0 0-2.168.071ZM59.126 98.324c.375-.34 3.497-.114 4.325-.269-.004 2.157.073 4.346-.024 6.498-1.27-.276-2.911-.075-4.22-.06-.118-2.042-.06-4.122-.08-6.17ZM64.396 98.151l3.9-.008a98.09 98.09 0 0 0-.048 6.337c-1.292-.015-2.587.016-3.879.025.144-2.085.024-4.258.027-6.353Z" fill="#A1C0F2"/><path d="M85.079 104.323c-.008-.944-.197-5.457.13-6.106l.21-.008c.358.63.181 2.019.185 2.778-.095 2.766-.248 5.914.116 8.651l-.016.795a39.787 39.787 0 0 0 .022 5.11l.081 2.149c1.15.311 2.688.116 3.897.138l-.012 1.874c-2.917.045-5.835.053-8.752.025l-.002-1.856c1.36.013 2.72-.005 4.08-.055.203-.648.12-1.496.132-2.177-.12-3.652.103-7.324-.105-10.971l.034-.347Z" fill="url(#b)"/><path d="M190.326 98.2c1.434.172 2.905-.119 4.355.032.03 1.98-.106 4.036.066 6.001-1.483-.083-2.988-.023-4.473-.013.154-1.976.013-4.03.052-6.02Z" fill="#A1C0F2"/><path d="M244.893 109.832c.018-3.744-.239-7.617.075-11.343.157 1.964.067 3.989.053 5.96.757.469 2.861.135 3.836.195l-.021.095-3.739.006c.015 1.632.058 3.27.017 4.901 1.237-.068 2.468-.14 3.707-.119l.062.34c-1.322-.082-2.666-.035-3.99-.035Z" fill="#B4BED6"/><path d="M248.875 99.681c.029 1.508.296 3.505-.014 4.963-.975-.06-3.08.274-3.836-.195 1.125-.335 2.628-.197 3.807-.22l.043-4.548Z" fill="#5D72AF"/><path d="M116.778 100.53c3.096-.044 6.194-.072 9.291-.082 1.46-.009 3.094-.181 4.532.03.243.419.17.929.16 1.398-1.2.479-8.846 8.581-10.156 10.018-1.235 1.354-2.377 2.803-3.651 4.12-.021 1.58.123 3.458-.359 4.969-.35-.747-.24-4.727-.091-5.616.274-1.236.039-2.775.08-4.064.071-2.22.728-8.97.194-10.773Z" fill="#97BAEF"/><path d="m132.182 121.322.042-20.908c5.04.14 10.103.059 15.145.068.015 6.921-.118 13.84-.055 20.76-1.414.28-3.247.08-4.698.078l-10.434.002Z" fill="#A1C0F2"/><path d="m116.435 100.651.341-.118c.535 1.803-.122 8.553-.193 10.773-.041 1.289.193 2.828-.081 4.064-.043-3.254.002-6.517.003-9.771.001-1.633.087-3.325-.07-4.948Z" fill="#6683C2"/><path d="M148.814 121.319c.096-6.94.034-13.89.024-20.832l14.883-.019c-.096 6.927-.042 13.862-.057 20.79-1.553.191-3.295.044-4.861.044l-9.989.017Z" fill="#97BAEF"/><path d="m116.343 121.28.038-14.413c.012-2.019-.182-4.22.058-6.214.157 1.623.071 3.315.07 4.948-.001 3.254-.046 6.517-.003 9.771-.149.889-.258 4.869.091 5.616.483-1.511.339-3.389.359-4.969 1.274-1.317 2.417-2.765 3.652-4.12 1.31-1.437 8.956-9.539 10.156-10.018l-.059 19.443c-4.779-.112-9.58-.034-14.362-.044Z" fill="#A1C0F2"/><path d="M85.604 100.99c.118 1.158.106 2.315.105 3.478.546.433 3.17.184 3.984.172.029 1.678.034 3.357.017 5.035a80.709 80.709 0 0 0-3.811.039l-.18-.074c-.363-2.737-.21-5.885-.115-8.65Z" fill="#CCD7EE"/><path d="M15.72 133.187c-.508.029-1.016.044-1.515.143l-.094-7.892c-.013-1.691.133-3.57-.202-5.229-.359-1.781-1.249-3.558-1.878-5.268-.931-2.532-1.778-5.085-2.641-7.64-.367-1.085-1.097-2.629-1.018-3.773.165-.198.253-.307.5-.406.231-.093.26-.024.475.063.831.954 3.993 11.208 4.719 13.285.038-2.564-.364-11.66.075-13.294.114-.424.26-.702.647-.935l.296.084c.238.313.313.569.347.957.176 2.05.04 4.207.038 6.272l.008 11.896c.428-.567 1.169-1.826 1.805-2.107.348-.154.42-.121.75.008.162.203.303.345.35.61.085.482-2.328 2.913-2.754 3.46-.008 3.256.023 6.511.092 9.766Z" fill="#7C5452"/><path d="M94.856 104.318c1.348-.125 2.78-.161 4.129-.04l-.003.366c-1.358-.017-2.719.007-4.077.013l-.05-.339ZM181.565 104.289c1.388-.17 2.903-.07 4.305-.053l-.082.371c-1.402.003-2.823.053-4.221-.06l-.002-.258Z" fill="#6683C2"/><path d="M190.274 104.222c1.485-.01 2.99-.07 4.473.012l-.074.28-.153.085-4.195.017-.051-.394ZM216.017 104.254l.273.047-.01.217-.256.101-4.083-.004.011-.3c1.35-.056 2.713-.042 4.065-.061ZM230.532 104.396c1.308-.18 2.751-.097 4.078-.119l-.025.241-.148.095-3.833.02-.072-.237Z" fill="#5D72AF"/><path d="M45.394 104.411c1.337-.062 2.908-.205 4.23.014l-.018.265-.276.01-3.918.048-.018-.337ZM50.195 104.464c1.21-.296 2.752-.113 4.001-.073l-.068.372c-1.27 0-2.697.132-3.944-.097l.011-.202ZM80.948 104.34l4.134-.013-.033.347c-1.357.003-2.732-.042-4.087.033l-.014-.367Z" fill="#6683C2"/><path d="M85.712 104.469c1.255-.292 2.735-.145 4.025-.131l-.04.303c-.814.012-3.438.261-3.985-.172ZM99.78 104.634c.033-.041.063-.085.099-.123.426-.446 3.349-.192 4.06-.18l-.034.396c-1.357-.064-2.787.128-4.124-.093ZM195.19 104.462l.176-.115a78.08 78.08 0 0 1 4.02-.012l-.054.285-4.145-.001.003-.157ZM216.841 104.344l.181-.02c1.363-.021 2.739-.079 4.101-.006l-.059.297c-1.343.011-2.915.184-4.22-.094l-.003-.177ZM225.475 104.361l.741-.082c.515.029 3.269-.104 3.514.127l-.02.101c-1.16.349-2.948.122-4.178.109l-.057-.255ZM240.021 104.385c.726-.048 1.44-.075 2.168-.07.665.006 1.33.024 1.994.054l.068.133-.04.075c-1.318.107-2.684.045-4.008.055l-.182-.247Z" fill="#5D72AF"/><path d="M31.147 104.502c1.294-.003 2.593-.031 3.887-.002l-.001.254-3.858.003-.028-.255Z" fill="#6683C2"/><path d="M35.666 104.711c.606-.518 3.291-.238 4.157-.224l-.073.265c-1.36.008-2.724.038-4.084-.041ZM59.208 104.493c1.309-.015 2.95-.216 4.22.06l-.014.209-4.193-.019-.013-.25ZM64.253 104.76l.115-.256c1.292-.01 2.588-.041 3.88-.025l-.048.277-3.947.004Z" fill="#5D72AF"/><path d="M181.569 104.547c1.398.113 2.819.063 4.221.06l.001 3.976c-.031.224-.017.636-.188.787-.934.828-3.139-.288-3.993.235-.303-1.529-.086-3.492-.041-5.058ZM216.844 104.528c1.306.278 2.877.105 4.22.094.01 1.588.01 3.176.001 4.764l-4.055.021c.13-1.204.407-3.433-.149-4.511l-.017-.368Z" fill="#CCD7EE"/><path d="m49.335 104.698.277-.01c-.104 1.692-.09 3.389-.1 5.083l-.172-.073a18.92 18.92 0 0 1-.005-5Z" fill="#B4BED6"/><path d="M50.188 104.666c1.246.229 2.673.098 3.944.097-.015 1.637-.008 3.274.022 4.91-1.268.005-2.693-.123-3.94.064-.19-1.648-.092-3.414-.026-5.071ZM80.963 104.707c1.354-.075 2.729-.03 4.086-.033.208 3.647-.015 7.319.104 10.971l-.123.034c-1.094-.364-2.921-.108-4.094-.092.11-1.805.023-3.665.026-5.476 1.28-.011 2.526-.008 3.792-.217l.036-.1c-1.286-.118-2.569-.104-3.858-.099.022-1.663.032-3.325.03-4.988ZM94.901 104.654c1.359-.006 2.72-.03 4.078-.013.035 1.677.03 3.354-.015 5.031l-4.088-.01c-.006-1.669.002-3.339.025-5.008ZM99.678 104.667l.108-.035c1.337.22 2.767.029 4.124.093.012 1.638-.048 3.308.038 4.942-1.143-.002-2.975-.207-4.008.25 1.329.119 2.652.132 3.985.14.035 1.827-.113 3.737.057 5.549-1.346-.015-2.989-.204-4.301.052-.175-1.421-.068-2.952-.046-4.383.052-2.202.066-4.405.043-6.608Z" fill="#CCD7EE"/><path d="m176.662 104.568.087.044.014 4.923 4.024-.003c-.01-1.641-.072-3.299.056-4.936l.167-.068.022 5.188c-1.233-.033-3.033-.276-4.16.245.106.172.035.13.207.172 1.265.303 2.68.145 3.973.096-.041 1.474.333 6.369-.151 7.383-.232-.618-.15-1.337-.144-1.99-1.321.029-2.642.037-3.963.025.006.627.066 1.262-.147 1.861-.246-.956-.009-2.454-.004-3.465l.019-9.475Zm.12 6.071-.019 4.588 4.031-.009.013-4.619-4.025.04Z" fill="#97BAEF"/><path d="m176.746 104.607 4.095-.016c-.128 1.636-.066 3.295-.056 4.936l-4.024.002-.015-4.922ZM190.325 104.614l4.194-.017c-.099 1.638-.077 3.277-.072 4.917a54.32 54.32 0 0 1-4.116.036c-.02-1.645-.021-3.29-.006-4.936Z" fill="#CCD7EE"/><path d="m194.523 104.594.154-.085c.006 1.784.23 12.559-.151 13.111-.184-.669-.127-1.368-.117-2.057-1.261-.015-2.561-.096-3.815.043-.208.275-.188.765-.231 1.109l-.029-1.568 4.085-.006.007-4.52a76.77 76.77 0 0 0-4.1.023l-.005-.389c.829.01 3.403.248 3.998-.315-.855-.556-2.922-.3-3.947-.281l-.037-.112a54.32 54.32 0 0 0 4.116-.036c-.005-1.64-.027-3.279.072-4.917Z" fill="#97BAEF"/><path d="m195.187 104.622 4.146.001c.034 1.674.112 3.424-.012 5.093l-3.679.01c-.468-1.175-.023-2.574-.407-3.829-.076-.406-.045-.86-.048-1.275ZM211.938 104.616l4.083.004-.006 4.805c-1.38.035-2.76.051-4.14.05.005-1.62.027-3.24.063-4.859Z" fill="#CCD7EE"/><path d="m216.024 104.616.256-.101c.008 1.904.283 12.411-.134 13.115-.195-.67-.14-1.367-.132-2.059l-2.034-.013.702-.121.153-.297 1.178-.071-.018-4.515-4.09.048-.071-.3c1.087-.161 3.528.282 4.358-.311l-.161-.176c-1.135-.43-2.901-.178-4.126-.161l-.028-.183c1.38.002 2.761-.015 4.14-.05l.007-4.805Z" fill="#99A4BE"/><path d="M225.532 104.612c1.23.013 3.019.24 4.178-.109-.058 1.677-.044 3.353-.036 5.031-1.394-.003-2.828.058-4.218-.014-.001-1.631-.058-3.283.076-4.908ZM230.604 104.629l3.834-.019c.269 1.469.051 3.373.044 4.889-1.282.045-2.57.026-3.853.036.021-1.635.012-3.271-.025-4.906ZM240.206 104.633c1.324-.01 2.69.052 4.008-.055-.101 1.622-.217 3.316-.082 4.938l-4.136.022c.02-1.567.025-3.135.016-4.702l.194-.203ZM31.172 104.758l3.857-.004c.028.895.039 1.79.033 2.685-.01.757.052 1.616-.078 2.358-1.3-.023-2.6-.025-3.9-.006.183-1.627.043-3.387.088-5.033ZM35.58 104.714l.08-.004c1.36.079 2.723.049 4.084.041-.015 1.662-.16 3.432-.015 5.084-.996-.027-3.365-.331-4.15.199-.028-1.725.004-3.454-.086-5.176l.087-.144ZM45.412 104.746l3.917-.048a18.915 18.915 0 0 0 .005 5l-3.965.009c.102-1.637.037-3.319.043-4.961ZM59.216 104.739l4.194.018.048.291-.004 4.622-4.278.007.04-4.938Z" fill="#CCD7EE"/><path d="M63.457 105.047c.201-.151.443-.248.669-.359l.124.074a188.008 188.008 0 0 0-.021 4.936l.023.517c-.04 1.818-.088 3.662 0 5.478v.368l-.024 1.678 4.008.002-.01 1.867c-3.003.079-6.017.025-9.022.023l-.015-1.897 4.275.001-.024-1.664.02-.404c.01-1.785.002-3.571-.023-5.356l.016-.641.004-4.623Z" fill="#FEFEFE"/><path d="m64.256 104.759 3.947-.005c.028 1.636-.039 3.3.047 4.931l-4.015.01c-.015-1.645-.008-3.291.021-4.936ZM245.097 104.745l3.739-.006-.014 4.788c-1.24-.021-2.471.05-3.708.119.042-1.632-.002-3.269-.017-4.901Z" fill="#CCD7EE"/><path d="M35.065 107.437c.262-.367.101-1.866.166-2.386l.266-.199c.09 1.722.058 3.452.086 5.176.214 1.881.031 3.835.112 5.733l.002 1.977 3.962.005.004 1.843c-2.875.034-5.896.183-8.756-.084-.012-.581.016-1.143.067-1.721 1.339-.075 2.692-.045 4.033-.052l-.015-1.633.021-.403c.02-1.836.049-3.672-.009-5.508l-.017-.39c.13-.742.068-1.601.078-2.358Z" fill="#FEFEFE"/><path d="M216.862 104.89c.555 1.078.278 3.306.148 4.511l4.055-.021.06.427c-1.103-.39-3.091-.116-4.284-.104-.026-1.605-.019-3.209.021-4.813ZM195.237 105.896c.384 1.255-.061 2.654.407 3.829l-.246-.033c-.458-.702-.18-2.904-.161-3.796Z" fill="#B4BED6"/><path d="M181.612 109.6c.854-.523 3.06.593 3.994-.234.17-.152.157-.563.187-.787-.009 2.743-.272 6.439.038 9.039l-.147-.005-.03-1.93-3.679-.014c.015.663.04 1.303-.087 1.959-.395-.656-.186-6.222-.184-7.407.911.02 3.158.236 3.949-.135l.024-.174c-1.182-.605-2.656.104-3.855-.245-.07-.02-.14-.044-.21-.067Zm.384.962-.023 4.601 3.694-.044c.061-1.554.083-3.109.067-4.663-1.252.099-2.484.116-3.738.106Z" fill="#97BAEF"/><path d="m45.37 109.707 3.964-.009.172.073.006.359-.185.077-3.925.009-.033-.509Z" fill="#6683C2"/><path d="M50.212 109.735c1.246-.188 2.672-.059 3.94-.064l-.022.562-3.946-.067.028-.431ZM59.176 109.68l4.278-.007-.016.642c-1.413-.009-2.826.001-4.239.029l-.023-.664ZM64.234 109.699l4.015-.01-.032.53-3.96-.003-.023-.517ZM80.932 109.695c1.29-.005 2.572-.018 3.858.099l-.036.1c-1.266.209-2.513.206-3.792.218l-.03-.417Z" fill="#89A2D8"/><path d="m85.721 109.639.18.073c.57.519 2.974.223 3.848.253l-.046.417c-1.33.017-2.669.004-3.997.052l.015-.795Z" fill="#B4BED6"/><path d="M85.901 109.716a79.39 79.39 0 0 1 3.811-.038l.037.292c-.874-.031-3.277.266-3.848-.254Z" fill="#6683C2"/><path d="m94.877 109.67 4.088.01.013.273c-1.355.091-2.707.054-4.064.03l-.037-.313Z" fill="#5D72AF"/><path d="M103.926 110.057c-1.333-.007-2.656-.021-3.985-.14 1.033-.456 2.865-.252 4.008-.249l-.023.389Z" fill="#6683C2"/><path d="M190.372 109.664c1.025-.02 3.092-.275 3.947.28-.595.564-3.169.325-3.998.315l.051-.595ZM211.905 109.658c1.225-.017 2.991-.269 4.126.161l.161.176c-.83.593-3.271.15-4.358.311l.071-.648ZM225.515 109.662c1.27-.01 2.854-.186 4.058.202l.089.184c-.506.409-3.454.214-4.178.21l.031-.596ZM240.02 109.756c1.046-.042 3.23-.28 4.178.204-1.377.462-2.809.144-4.205.337l.027-.541Z" fill="#FEFEFE"/><path d="M31.084 109.79c1.3-.019 2.6-.017 3.9.006l.017.39-3.841-.014-.076-.382ZM35.584 110.031c.785-.531 3.154-.226 4.15-.2l-.02.324c-1.24.038-2.951.277-4.13-.124Z" fill="#6683C2"/><path d="M94.916 109.979c1.356.025 2.708.061 4.064-.029.04 1.893.085 3.793.009 5.686-1.322-.185-2.761-.072-4.098-.07-.02-1.862-.011-3.724.025-5.587ZM31.16 110.177l3.842.014c.057 1.836.028 3.671.009 5.508l-3.98.011c.134-1.836 0-3.691.13-5.533ZM35.584 110.035c1.179.402 2.89.163 4.13.125-.025 1.857-.073 3.718-.032 5.575-1.258-.008-2.636-.131-3.874.07l-.111-.037c-.081-1.898.101-3.852-.113-5.733ZM50.184 110.17l3.946.067c0 1.777-.097 3.618.036 5.387a123.17 123.17 0 0 1-3.891.067c-.38-1.623-.117-3.841-.09-5.521ZM45.404 110.217l3.925-.009c-.016 1.743-.197 3.662-.01 5.387-1.224.264-2.69.101-3.953.109.103-1.812.032-3.67.038-5.487Z" fill="#CCD7EE"/><path d="m49.331 110.203.185-.077v5.424l-.194.04c-.187-1.725-.006-3.644.01-5.387Z" fill="#B4BED6"/><path d="m64.258 110.218 3.96.002.017 5.474-3.977.002c-.088-1.816-.04-3.66 0-5.478Z" fill="#CCD7EE"/><path d="M195.245 110.23c1.374.044 2.76-.004 4.134-.012l-.042.28c-1.3.036-2.601.057-3.903.063.028 1.538.097 3.085-.04 4.619l3.964-.041c.022.805.1 1.655.043 2.456l-.234-.001.022-2.019-3.735-.005c.03.678.106 1.386-.129 2.033-.359-1.883-.089-5.332-.08-7.373Z" fill="#97BAEF"/><path d="M216.855 110.206c1.401.008 2.797.025 4.195-.077l-.005.349-4.019.025c.159 1.411.266 3.306-.032 4.698l-.024.369c.106.669.13 1.393.038 2.066-.471-.673-.164-6.221-.153-7.43Z" fill="#B4BED6"/><path d="M230.505 110.242c1.342.021 2.684.003 4.025-.053.059 1.088.251 4.649.007 5.5-1.026-.254-3.056-.199-4.058.065.173-1.791.035-3.706.026-5.512Zm.181.354c.039 1.542.048 3.084.026 4.626 1.238.045 2.473.035 3.712.022.194-1.516.084-3.134.086-4.664l-3.824.016Z" fill="#97BAEF"/><path d="M244.975 110.476c.608-.549 3.022-.258 3.89-.247l-.045.376c-1.194.018-2.695.195-3.845-.129Z" fill="#B4BED6"/><path d="M59.202 110.34c1.413-.027 2.826-.037 4.239-.029a271 271 0 0 1 .022 5.357l-4.296.061c.138-1.764.032-3.615.035-5.389ZM85.712 110.436c1.328-.048 2.667-.035 3.996-.052.006 1.687-.134 3.492.028 5.162l-4.002-.001a39.752 39.752 0 0 1-.022-5.109ZM181.967 115.161l.024-4.601c1.254.009 2.485-.007 3.737-.107a91.755 91.755 0 0 1-.067 4.663l-3.694.045ZM195.438 110.561c1.301-.006 2.602-.027 3.903-.064l.02 4.642-3.964.041c.138-1.534.068-3.081.041-4.619ZM211.906 110.606l4.091-.049.018 4.515-1.178.071a46.98 46.98 0 0 0-3.003.03c.234-1.414.071-3.118.072-4.567ZM217.026 110.5l4.02-.025c-.022 1.534-.134 3.139-.037 4.666-1.34-.004-2.676-.01-4.014.057.297-1.392.19-3.286.031-4.698ZM240.052 110.558c1.343.002 2.688.027 4.026-.095l.002 4.749c-1.366-.036-2.736.003-4.103.02.267-1.39.075-3.233.075-4.674ZM244.977 115.257c-.186-1.353-.307-3.445-.001-4.785 1.151.324 2.651.148 3.845.13.004 1.517-.099 3.141.055 4.645l-3.899.01ZM176.762 115.22l.019-4.588 4.026-.04-.014 4.619-4.031.009ZM190.324 110.648a77.835 77.835 0 0 1 4.1-.024l-.007 4.521-4.085.006c.044-1.495-.001-3.006-.008-4.503ZM225.483 110.586c1.396.006 2.803.048 4.198-.01l-.009 4.581c-1.389-.002-2.849-.101-4.229.037.215-1.424.044-3.153.04-4.608ZM230.712 115.218c.022-1.542.013-3.084-.026-4.626l3.824-.016c-.002 1.53.107 3.148-.086 4.665a80.585 80.585 0 0 1-3.712-.023Z" fill="#CCD7EE"/><path d="M211.834 115.174c1-.042 2.002-.051 3.003-.029l-.154.297-.701.121-2.067-.006-.081-.383Z" fill="#6683C2"/><path d="m216.973 115.571.024-.369c1.338-.067 2.674-.061 4.014-.057l-.015.448c-1.339-.043-2.683-.02-4.023-.022Z" fill="#89A2D8"/><path d="m244.975 115.26 3.899-.01-.041.411a74.757 74.757 0 0 0-3.668.041l-.174-.013-.016-.429ZM45.366 115.704c1.262-.008 2.729.155 3.953-.109l.194-.04v.539l-4.105.009-.042-.399Z" fill="#6683C2"/><path d="M50.273 115.688c1.297-.001 2.594-.024 3.891-.067l-.041.422c-1.274.015-2.549.01-3.823-.014l-.027-.341Z" fill="#5D72AF"/><path d="M80.935 115.585c1.173-.016 3-.272 4.094.092-.214.261-.19.198-.5.235-1.182.064-2.38.036-3.565.046l-.03-.373Z" fill="#6683C2"/><path d="M85.725 115.549h4.002l-.047.425c-1.25-.091-2.504-.016-3.755-.02.004.549.09 1.232-.12 1.744l-.08-2.149Z" fill="#8794BD"/><path d="M94.89 115.566c1.337-.002 2.776-.115 4.098.07l-.01.258c-1.34.12-2.706.06-4.05.05l-.038-.378Z" fill="#5D72AF"/><path d="M99.68 115.66c1.313-.256 2.955-.067 4.301-.053l-.051.35c-1.308.014-2.99.229-4.244-.096l-.006-.201Z" fill="#6683C2"/><path d="M176.645 117.504c.213-.599.153-1.234.147-1.862 1.321.013 2.642.005 3.963-.024-.007.653-.088 1.371.144 1.989a141.88 141.88 0 0 1-4.278-.011l.024-.092ZM190.362 116.719c.044-.345.024-.835.231-1.109 1.255-.139 2.554-.059 3.815-.043-.009.689-.066 1.388.118 2.057-1.405-.029-2.815-.01-4.221-.013l.057-.892ZM195.325 117.604c.235-.648.159-1.355.129-2.033l3.735.005-.022 2.019c-1.282.031-2.559.065-3.842.009ZM211.915 115.558l2.067.006 2.034.013c-.008.692-.063 1.388.132 2.059-1.437-.026-2.873.031-4.311-.004.076-.682.059-1.388.078-2.074ZM216.973 115.572c1.34.002 2.684-.021 4.023.022-.008.623-.088 1.337.029 1.947-1.3.189-2.699.095-4.014.097a7.26 7.26 0 0 0-.038-2.066ZM225.514 115.635a78.826 78.826 0 0 1 4.154-.037c-.007.649-.126 1.536.159 2.127a89.215 89.215 0 0 0-4.45.012c.105-.688.103-1.406.137-2.102ZM230.477 115.75c1.003-.265 3.033-.32 4.059-.065l-.033 1.987c-1.34-.077-2.689-.022-4.031.001l.005-1.923Z" fill="#CCD7EE"/><path d="m31.03 115.71 3.98-.011-.02.403-3.927.018-.033-.41ZM35.808 115.805c1.238-.201 2.616-.078 3.874-.07l-.044.384c-.967.012-1.951.058-2.916.014-.465-.021-.602.015-.914-.328ZM59.167 115.733l4.296-.062-.02.404c-1.405.018-2.814-.015-4.22-.028l-.056-.314Z" fill="#6683C2"/><path d="m64.253 115.695 3.977-.002-.032.313c-1.316.061-2.627.061-3.944.056l-.001-.367Z" fill="#5D72AF"/><path d="m85.03 115.68.123-.034c-.012.681.07 1.529-.133 2.177-.186-.51-.018-1.064-.145-1.592-.055-.23-.153-.213-.345-.315.308-.037.285.026.5-.236Z" fill="#B4BED6"/><path d="M181.882 117.63c.127-.656.102-1.295.088-1.959l3.679.014.029 1.931-3.796.014ZM240.033 115.702l4.046-.021c-.012.666-.126 1.467.169 2.081a190.775 190.775 0 0 0-4.346.015c.071-.684.088-1.387.131-2.075ZM244.989 115.687l.174.013a74.757 74.757 0 0 1 3.668-.041c-.007.706-.107 1.541.147 2.21-1.175.007-2.807.221-3.918-.119-.114-.692-.086-1.365-.071-2.063ZM35.691 115.766l.111.037c.313.342.45.307.914.328.965.044 1.95-.002 2.916-.014l.024 1.63-3.963-.005-.002-1.976ZM85.932 115.951c1.251.004 2.506-.07 3.756.02l.022 1.862c-1.21-.022-2.747.174-3.897-.137.21-.512.124-1.195.12-1.745ZM94.925 115.941c1.345.01 2.711.071 4.051-.05l.019 1.73h-4.114l.044-1.68ZM99.689 115.86c1.253.325 2.935.11 4.244.096.037.552.07 1.103.084 1.657l-4.346.011.018-1.764ZM50.3 116.03c1.274.024 2.548.029 3.822.014l.034 1.624c-1.297-.078-2.604-.035-3.902-.024-.001-.537.029-1.077.046-1.614ZM59.22 116.042c1.407.013 2.816.046 4.221.028l.023 1.664-4.274-.001c-.005-.563.02-1.128.03-1.691ZM64.256 116.061c1.317.004 2.628.005 3.943-.056l.04 1.736-4.008-.002.025-1.678ZM80.962 115.956c1.184-.01 2.382.018 3.564-.046.193.103.29.086.345.315.128.529-.04 1.083.146 1.593-1.359.05-2.72.068-4.079.055l.023-1.917ZM31.068 116.114l3.926-.018.015 1.633c-1.341.007-2.694-.023-4.032.052l.09-1.667ZM45.408 116.102l4.105-.009.025 1.613c-1.373-.093-2.78-.145-4.15.006l.02-1.61Z" fill="#CCD7EE"/><path d="M265.601 133.216c.487-.048.987-.117 1.465-.223 3.476-.765 5.512-3.876 7.306-6.66.126 13.434-.76 23.185-5.509 35.927-1.085-.005-2.165-.014-3.248-.089.187-9.636.004-19.314-.014-28.955ZM6.155 127.912c1.842 2.373 3.813 4.959 7.022 5.38.336.044.672.083 1.008.13.031 4.873.034 9.747.008 14.62-.3 4.572-.1 9.273-.102 13.86-.804.001-1.952-.135-2.703.105-3.542-11.266-4.965-22.332-5.233-34.095Z" fill="#E9B49C"/><path d="M122.5 129.616c7.545-.077 15.091-.098 22.636-.065 3.742-.002 7.849-.244 11.55.042l.051 23.218c.012 3.928.23 7.963.047 11.882-1.745-.071-3.706.556-5.451.153-.429-.099-.452-.231-.671-.584.294-1.941.073-5.517.081-7.684.017-4.543.245-9.207.014-13.738-.034-.669-.07-1.655-.433-2.225-.388-.61-1.269-.952-1.939-1.103-1.082-.245-5.607-.389-6.471.16-.799-.474-3.335-.246-4.243-.078-.739-.381-5.932-.357-6.881-.071-.584.177-1.241.6-1.532 1.155-.286.545-.34 1.308-.373 1.918-.135 2.515-.019 5.096-.013 7.618l.019 14.04a37.034 37.034 0 0 1-6.651-.073c.017-.015.036-.028.051-.044.362-.402.208-31.27.209-34.521Z" fill="#FAE6DB"/><path d="M117.208 129.646c1.763.011 3.524.025 5.288-.032-.001 3.251.153 34.119-.209 34.521-.015.016-.034.029-.051.044-.465.057-.902.058-1.282.363l-.123.359c-.845-.288-2.505-.16-3.39-.016-.206.357-.161.826-.175 1.229-.246-4.372-.07-8.829-.058-13.209v-23.259ZM156.683 129.592c2.04.077 4.086.042 6.127.035.008 12.12.145 24.255-.016 36.373-.048-.412-.018-.675-.279-1.004-.763-.356-1.734-.198-2.57-.196-1.039-.124-2.111.001-3.163-.109.183-3.918-.035-7.953-.047-11.881l-.052-23.218Z" fill="#E9B49C"/><path d="m20.55 130.406.434-.388c1.064-.017 4.27-.288 5.013.226l.095.426c-1.413.05-2.83-.018-4.244-.058l-.403-.037-.895-.169ZM45.46 130.626c-.024-.16.005-.301.026-.461 1.08-.518 3.576-.144 4.798-.093l-.13.2c-.347.04-.22-.041-.41.196-1.304.323-2.93.137-4.284.158ZM50.283 130.078c1.284-.105 2.58-.073 3.867-.072l-.014 6.339-.132-.008c-.03-1.896.018-3.8.034-5.697-1.266-.011-2.589.055-3.843-.115l-.042-.247.13-.2ZM59.24 130.842c-.023-.279-.024-.382.062-.657.98-.494 3.115-.183 4.23-.173l-.228.57c-.93-.002-3.375-.265-4.064.26Z" fill="#8794BD"/><path d="M63.527 130.017c1.585.002 3.17-.008 4.754-.029-.07 2.293.036 4.602-.06 6.889-1.336.02-2.675-.003-4.01-.006-.03-.212-.002-.408.015-.62 1.214.176 2.628.027 3.868.038-.01-1.893.013-3.786.069-5.678l-3.82-.02c.033 1.8.058 3.632-.063 5.429-.008-1.056.213-4.948-.315-5.51l-.286.046c-.339.594-.124 14.082-.123 16.064 0 1.306.235 3.075-.1 4.311-.173-.725-.121-1.459-.106-2.199l.068-.332c-.374-1.571-.117-3.7-.06-5.314l.018-.564c-.186-1.84-.064-3.79-.058-5.643l-4.051-.005-.103-.506c1.371-.135 2.762.005 4.137-.104l-.002-5.678.228-.569Z" fill="#8794BD"/><path d="m89.818 136.319-3.95.028c-.044-1.18.303-5.015-.193-5.812l-.215-.044c-.357.68-.14 4.791-.135 5.859-1.421-.059-2.851-.019-4.274-.009.162-2.055.027-4.217.026-6.284l8.727.006c.06 2.08.002 4.174.014 6.256ZM94.963 136.336c.069-2 .185-4.283-.042-6.269 2.981.024 5.962.026 8.943.006.012 2.076-.131 4.252.039 6.313-.888-.02-3.525-.323-4.175.185l-.042.186-.164.09c.081-1.726.174-3.701.015-5.418-.029-.317-.046-.821-.29-1.035-.572 1.492-.111 4.121-.285 5.79l-.018.153a71.403 71.403 0 0 0-3.98-.001Z" fill="#A1C0F2"/><path d="m225.636 130.433.063-.23c.076-.041.145-.098.228-.124.624-.192 3.458-.095 4.094.117-.175 2.637-.066 5.337-.064 7.981.002 3.839-.048 7.686.013 11.524l-.278-.081c.086-2.106-.09-4.223.053-6.326.059-.258.027-.423-.029-.679-.103-1.932-.042-3.889-.035-5.824-1.349-.049-2.709-.007-4.059-.002l.039-.983c.733.496 3.023.168 4.02.231-.006-1.875-.003-3.744.073-5.618-1.317.095-2.818.273-4.118.014Z" fill="#99A4BE"/><path d="M35.287 136.26c-1.37.086-2.754.051-4.127.053 0-2.049-.043-4.107.01-6.155 2.9.077 5.803.076 8.704-.003-.006 2.05-.12 4.149-.015 6.192-.899-.018-3.262-.293-3.88.252l-.149.054c-.013-1.967.321-4.327-.178-6.226l-.216.067c-.44 1.719-.157 3.973-.149 5.766Z" fill="#A1C0F2"/><path d="M49.748 130.473c.19-.237.062-.156.409-.196l.042.247c.038 1.952.1 3.908.067 5.86l.04.436c-.046 1.884-.11 3.812.011 5.692l-.002.534c-.071 1.764-.047 3.542-.003 5.306l.012.348-.026 2.159c-1.145.122-2.299.073-3.447.041l2.925-.026-.03-2.188.007-.339c.025-1.781.02-3.561-.012-5.342l.047-.45a159.36 159.36 0 0 0-.024-5.797l-.024-.316c.116-1.973.041-3.993.008-5.969Z" fill="#fff"/><path d="M176.638 130.159c1.388-.004 3.275-.239 4.578.152-.165 1.511-.092 3.078-.095 4.596v7.956l-.26-.357.036-5.723v-.845c-.067-1.857-.02-3.731-.019-5.59a33.092 33.092 0 0 1-4.118.027l-.018 5.554.027.904c.002 1.879.067 3.781-.011 5.657l.046.833-.086 1.479c-.232-1.67-.103-3.487-.102-5.179l.022-9.464Z" fill="#8794BD"/><path d="M181.511 130.285c1.417-.103 2.873-.106 4.293-.064l-.022 5.86c-.903.401-3.072.128-4.108.111l-.1-.055c-.091-1.939-.019-3.907-.063-5.852ZM190.425 130.155l1.845.044c.451.339 1.706.184 2.282.169l-.005 5.542c-1.376.006-2.763-.023-4.138.033.087-1.917.015-3.868.016-5.788Z" fill="#A1C0F2"/><path d="M192.27 130.203c.698-.065 1.804-.192 2.456.109-.104 4.079-.187 8.292-.016 12.367l-.182-.22c-.167-1.865-.11-3.776-.042-5.646-1.348-.086-2.723-.028-4.075-.023l-.002-.843c1.375-.056 2.762-.028 4.138-.033l.005-5.542c-.576.015-1.831.17-2.282-.169ZM195.199 130.281c.694-.161 3.511-.313 4.068.013-1.277.238-2.556.221-3.851.191.012 1.809.084 3.646-.064 5.45h3.874l-.024.813-3.807-.016-.154-.096c-.065-2.113-.028-4.24-.042-6.355Z" fill="#97BAEF"/><path d="M211.919 130.23c.995.049 3.776-.358 4.481.218-.26 4.094-.121 8.29-.106 12.397l-.232-.084c-.033-2.006.018-4.019.034-6.026l-4.166.023-.011-6.528Zm.231.299c-.424 1.548-.076 4.097-.113 5.771 1.333-.006 2.777.09 4.097-.034l.002-5.793c-1.328.028-2.658.074-3.986.056Z" fill="#8794BD"/><path d="M216.703 130.219c.987.13 3.78-.255 4.404.146-1.31.27-2.807.132-4.145.116.246 1.956.195 3.968.067 5.932l.081.154 1.097.057c-.389.026-.795-.008-1.107.256-.129 1.926.063 3.859-.047 5.788 1.306-.004 2.619.022 3.924-.04l-.002.123c-1.268-.005-2.66-.128-3.91.068-.033.087-.084.17-.089.262.347 1.751.295 4.762.017 6.533l-.19.234c.262-3.072.037-6.343.037-9.438 0-2.275.266-8.403-.137-10.191Z" fill="#B4BED6"/><path d="m230.023 130.193.257-.073c.448 2.082.052 4.487.194 6.621.005 1.936-.018 3.876.02 5.811l.019.65c-.012 2.163.142 4.451-.045 6.598l.135.37c1.157.211 2.543.041 3.724.038.023.726.031 1.452.024 2.178-2.895.03-5.852.126-8.744-.016.001-.691-.051-1.428.05-2.112 1.012-.02 3.474.28 4.268-.133l.047-.427c-.061-3.838-.011-7.684-.013-11.523-.002-2.645-.111-5.344.064-7.982Z" fill="#FEFEFE"/><path d="M230.281 130.116c.94.051 3.384-.237 4.121.201-1.177.28-2.549.155-3.759.138l-.025 5.755c1.247.001 2.52-.051 3.762.059l-.036.444c-1.289-.011-2.58.014-3.87.024-.142-2.134.254-4.539-.193-6.621ZM239.993 130.439l.097-.19c1.401-.09 2.918-.122 4.316.01-.085 6.477-.108 12.955-.069 19.433l-.273-.116-.027-6.489-3.965.014-.061-.337c1.333-.073 2.691-.018 4.027-.015l.006-6.109c-1.338-.009-2.676.002-4.014.034l-.065-.309c1.366-.104 2.743-.094 4.113-.113-.024-1.933-.01-3.867.041-5.8-1.348.055-2.792.203-4.126-.013Z" fill="#8794BD"/><path d="m176.743 135.931.018-5.554a33.09 33.09 0 0 0 4.118-.027c0 1.859-.047 3.733.019 5.59l-4.155-.009Z" fill="#A1C0F2"/><path d="m181.218 130.312.295-.022c.044 1.945-.029 3.912.063 5.852l.013 9.393c.002 1.696.093 3.47-.056 5.157 1.398-.037 2.899-.178 4.283.031.206.609.131 1.327.131 1.965-1.854.015-3.714.056-5.567.002a14.766 14.766 0 0 1-.441-2.012c.414.023.822-.014 1.235-.044-.045-2.549-.037-5.101-.05-7.65l-.001-.12v-7.956c.003-1.518-.07-3.085.095-4.596ZM194.726 130.309l.473-.032c.014 2.115-.023 4.242.042 6.356a326.25 326.25 0 0 0-.013 5.936l.008.63a512.167 512.167 0 0 0-.017 7.333 116.3 116.3 0 0 0 3.962.076l-.004 2.049c-2.959.034-5.918.036-8.877.004-.001-.666-.017-1.337.001-2.003l4.425-.038c-.115-2.446-.052-4.921-.06-7.37l.044-.573c-.171-4.075-.088-8.289.016-12.368Z" fill="#FEFEFE"/><path d="M195.414 130.481c1.295.03 2.574.047 3.851-.191-.034 1.872-.112 3.771-.041 5.642l-3.874-.001c.148-1.804.076-3.641.064-5.45Z" fill="#A1C0F2"/><path d="m216.399 130.448.301-.224c.404 1.788.138 7.916.138 10.191 0 3.095.224 6.366-.037 9.438l.111.347c1.236.265 2.772.086 4.041.085.036.69.009 1.391.007 2.082l-9.016-.009c-.016-.703.003-1.407.01-2.11.925-.031 2.97-.361 3.752.041.256.132.208.145.531.151l.091-.667c-.162-2.196-.037-4.49-.048-6.697l.014-.23c-.015-4.107-.154-8.303.105-12.398ZM244.41 130.265l.291.052.043 1.3c-.12 6.257-.15 12.601.014 18.856 1.414-.006 2.831-.033 4.244-.014l-.006 1.971c-2.971.057-5.954-.003-8.926-.014a41.21 41.21 0 0 1 .029-2.167l3.594-.027c-.07-.129-.025-.073-.168-.187-.038-.031-.077-.06-.115-.089.309-.03.472-.029.759.094l.06.322.111-.664c-.038-6.478-.015-12.956.07-19.433Z" fill="#FEFEFE"/><path d="M244.701 130.313c1.433-.024 2.865-.031 4.297-.023-.003 1.879-.036 3.763-.01 5.641-1.373-.071-2.776-.003-4.152.008.12-1.388.113-2.95-.092-4.326l-.043-1.3ZM254.354 130.299c1.401.068 2.8.032 4.201.138a293.29 293.29 0 0 0-.009 5.628c-1.373-.155-2.798-.108-4.18-.132.052-1.871-.006-3.76-.012-5.634Z" fill="#A1C0F2"/><path d="m258.56 130.442.295-.102.079.116c.024 1.982.011 3.973.129 5.952.028 2.016.032 4.032.011 6.049l.017.389c-.004 2.611-.074 5.239.017 7.847l4.614-.021.128.043.004 1.754-9.639-.004c0-.607.038-1.216.062-1.822 1.369-.041 2.748-.005 4.118-.004.221-.314.158-.571.167-.946l-.014-.309c.305-1.376.131-3.189.116-4.598l-.109-8.027-.005-.689c-.014-1.876-.011-3.752.01-5.628Z" fill="#FEFEFE"/><path d="m17.091 133.033.123-.072c.068-.041.134-.084.203-.124 1.149-.679 2.083-1.609 3.128-2.431l.894.17c-.014 1.896-.012 3.795-.047 5.691-1.442.009-2.884.027-4.326.057l.025-3.291Z" fill="#A1C0F2"/><path d="M35.285 136.258c-.008-1.793-.29-4.046.15-5.765l.215-.068c.5 1.9.165 4.26.178 6.226-.038 3.922-.121 7.876-.004 11.795l.015.242-.011 2.251-.55.037c.02-.761-.012-1.532-.022-2.293l.014-.319c.082-1.773.041-3.576-.002-5.35l.014-.446c.015-1.934.108-3.916-.037-5.844l.04-.466Z" fill="#fff"/><path d="M50.197 130.523c1.255.17 2.577.104 3.844.115-.017 1.897-.065 3.801-.035 5.697-1.244.015-2.498-.003-3.741.048.032-1.953-.03-3.908-.068-5.86Z" fill="#A1C0F2"/><path d="M63.456 150.928c.335-1.237.101-3.005.1-4.311 0-1.982-.215-15.471.124-16.065l.285-.045c.528.562.308 4.453.316 5.51l-.054.23c-.017.213-.045.409-.016.621.069 1.891.037 3.788.032 5.68l.016.537c-.04 1.763-.045 3.526-.016 5.289l.028.356-.02 2.187 4.014-.007.057 1.818-9.017.005.001-1.785 4.15-.02Z" fill="#FEFEFE"/><path d="M85.326 136.353c-.005-1.068-.222-5.179.135-5.859l.215.044c.496.797.15 4.632.193 5.812l.003.447c-.027 1.9-.034 3.801-.022 5.702l.012.677c-.033 1.731-.03 3.462.01 5.192l-.001.305-.018 2.199-.52.053c.009-.756-.008-1.514-.015-2.271l.013-.439c.012-1.663.006-3.326-.018-4.989.014-1.951 0-3.903-.042-5.854l.122-.531-.067-.488ZM98.944 136.337l.018-.153c.173-1.669-.288-4.298.285-5.79.244.214.26.718.29 1.035.159 1.717.066 3.692-.015 5.418l-.522-.078-.056-.432Z" fill="#fff"/><path d="M212.037 136.299c.037-1.674-.311-4.223.114-5.771 1.327.018 2.658-.028 3.985-.056l-.001 5.794c-1.321.123-2.765.027-4.098.033ZM216.958 130.485c1.338.015 2.835.153 4.144-.116a539.513 539.513 0 0 0-.041 5.967c-1.332-.013-2.713-.082-4.036.08.128-1.963.179-3.976-.067-5.931ZM225.635 130.427c1.3.258 2.801.081 4.118-.014-.076 1.873-.079 3.743-.073 5.618-.997-.063-3.287.265-4.02-.231-.037-1.791.053-3.582-.025-5.373ZM230.642 130.456c1.209.017 2.582.142 3.758-.138-.048 1.978-.099 3.975-.022 5.952-1.242-.11-2.514-.058-3.761-.058l.025-5.756ZM239.993 130.438c1.334.216 2.778.067 4.126.012a149.574 149.574 0 0 0-.041 5.801c-1.37.018-2.747.008-4.114.112.208-1.933.078-3.981.029-5.925ZM258.93 130.457c1.531.876 2.762 2.267 4.523 2.735.004.918-.061 1.904.053 2.812-1.498-.109-2.965.377-4.447.404-.118-1.978-.106-3.97-.129-5.951Z" fill="#A1C0F2"/><path d="m21.442 130.573.403.036.046.146a384.801 384.801 0 0 0-.01 6.846c.005 1.681-.067 3.433.14 5.104l.003.239c-.06 1.818-.13 3.677-.006 5.493l-.002 2.468c1.322-.006 2.649-.034 3.97-.011l-.006 1.836H16.96l.01-1.791c1.453-.06 2.927-.016 4.382-.017l-.02-2.243.043-.397c.023-1.727.019-3.453-.013-5.179l.005-.635-.024-5.826.052-.377c.036-1.897.034-3.795.048-5.692Z" fill="#FEFEFE"/><path d="M21.843 130.614c1.413.04 2.831.108 4.244.058-.155 1.867-.082 3.796-.048 5.669-1.252-.029-2.83-.216-4.033.147.036-1.574.327-4.266-.116-5.728l-.047-.146ZM45.465 130.631c1.355-.021 2.981.165 4.285-.159.034 1.977.109 3.997-.008 5.97-1.399-.154-2.9-.053-4.303.025.257-1.857.065-3.96.026-5.836ZM59.236 130.84c.689-.525 3.133-.261 4.063-.259l.002 5.678c-1.375.109-2.766-.031-4.137.104.237-1.76.077-3.739.072-5.523ZM64.281 136.018c.122-1.797.096-3.629.063-5.429l3.82.02a164.678 164.678 0 0 0-.069 5.679c-1.24-.011-2.654.137-3.867-.039l.053-.231Z" fill="#A1C0F2"/><path d="M21.89 130.759c.443 1.462.151 4.154.116 5.727.525.492 3.142.253 3.97.248.01 1.931.15 3.983-.054 5.903-1.22-.016-2.717-.187-3.903.071-.207-1.67-.135-3.423-.14-5.103-.017-2.283-.014-4.565.01-6.846ZM244.747 131.614c.205 1.376.212 2.938.092 4.326.188.351.198.366.136.759 1.286.19 2.687.08 3.988.074.002 1.941-.122 3.969.03 5.898-1.078-.022-3.223-.36-4.123.206l-.055.098c.645.51 3.24.201 4.145.215.003 2.109.099 4.266-.031 6.37-1.293-.014-2.547-.002-3.836.129 1.085.392 2.692.082 3.846.119l.066.648c-1.413-.019-2.83.008-4.244.014-.163-6.255-.134-12.599-.014-18.856Z" fill="#CCD7EE"/><path d="M14.206 133.333c.5-.099 1.007-.114 1.515-.143.07 9.558.16 19.157-.007 28.713-.096 1.629.184 9.144-.337 9.986-.57-1.132-1.024-2.336-1.513-3.505.148-.326.244-.583.284-.941.277-2.433.06-5.136.067-7.595.012-3.915.179-7.897-.021-11.803.026-4.874.024-9.747-.008-14.621l.02-.091Z" fill="#954131"/><path d="M263.458 133.19c.148.025.355.042.495.092-.03 5.788.112 11.648-.102 17.431l-.128-.043c-.056-.035-.118-.061-.166-.106-.276-.257-.183-.59-.173-.928.085-.645.006-1.384-.066-2.028-.003-1.359.016-2.717.057-4.075.108-.435.079-.844.062-1.287.002-1.837.015-3.675.039-5.512l.035-.732c-.114-.908-.048-1.894-.053-2.812Z" fill="#E9B49C"/><path d="m263.975 133.194 1.543-.023.089.049c.018 9.641.201 19.319.014 28.955-.573-.103-1.157-.097-1.739-.113l-.026-.117c-.086-3.151-.038-6.324.001-9.475l-.004-1.754c.215-5.783.072-11.643.102-17.431l.02-.091Z" fill="#954131"/><path d="m176.743 135.929 4.155.009v.845l-4.128.05-.027-.904Z" fill="#89A2D8"/><path d="M181.675 136.197c1.035.017 3.204.29 4.108-.111l-.006.415-.135.102c-1.283.031-2.571.006-3.855.008l-.112-.414Z" fill="#6683C2"/><path d="M244.833 135.938c1.376-.011 2.779-.08 4.152-.008l-.028.841c-1.301.006-2.702.115-3.988-.074.062-.393.052-.408-.136-.759Z" fill="#97BAEF"/><path d="M254.373 135.936c1.381.024 2.806-.024 4.179.131l.004.689-4.176.035-.007-.855Z" fill="#89A2D8"/><path d="M259.062 136.409c1.483-.027 2.95-.513 4.447-.404l-.035.732-4.122.014c.005 1.89.047 3.79-.029 5.679l-.25.028c.02-2.016.017-4.033-.011-6.049Z" fill="#99A4BE"/><path d="M17.066 136.325c1.442-.029 2.884-.048 4.326-.056l-.053.377-.196.071c-1.342.019-2.685.022-4.027.009l-.05-.401Z" fill="#6683C2"/><path d="M31.16 136.316c1.372-.002 2.756.033 4.126-.053l-.04.465-.134-.017c-1.309-.052-2.617-.015-3.927.011l-.026-.406ZM85.87 136.35l3.95-.027-.031.509c-1.302-.056-2.614-.031-3.917-.035l-.002-.447Z" fill="#5D72AF"/><path d="m181.573 136.137.101.055.112.413c.051 1.993.104 4.018.003 6.008 1.292.008 2.589.04 3.881.016.032-1.791.321-4.309-.029-6.031l.135-.102c-.004 2.069-.097 4.191.026 6.255-1.271-.002-2.557-.044-3.822.097.989.37 2.729.175 3.795.175-.008 2.493-.23 5.229.039 7.695-1.384-.209-2.885-.068-4.284-.031.15-1.687.059-3.461.057-5.157l-.014-9.393Zm.179 7.28c.044 2.131.048 4.263.011 6.395 1.307.013 2.61.022 3.917-.024l.024-6.374-3.952.003Z" fill="#97BAEF"/><path d="M22.007 136.486c1.202-.362 2.781-.175 4.033-.146l-.063.394c-.828.005-3.445.244-3.97-.248ZM35.975 136.6c.618-.545 2.981-.27 3.88-.252l-.09.312c-1.254.006-2.544.076-3.79-.06ZM45.438 136.468c1.404-.077 2.905-.179 4.304-.024l.024.316c-1.409.087-2.824.047-4.234.011l-.093-.303Z" fill="#5D72AF"/><path d="M50.263 136.379c1.243-.05 2.497-.033 3.742-.047l.132.007-.024.521c-1.27.011-2.54-.004-3.81-.045l-.04-.436ZM81.051 136.345c1.423-.01 2.853-.05 4.274.009l.067.488c-.425-.078-.896-.02-1.33 0l-2.946-.005-.065-.492ZM94.96 136.337a71.403 71.403 0 0 1 3.98.001l.056.432c-1.293-.112-2.66-.022-3.96-.022l-.077-.411ZM99.683 136.757l.043-.186c.65-.507 3.286-.205 4.174-.185l-.041.395c-1.392.004-2.784-.004-4.176-.024Z" fill="#6683C2"/><path d="m218.201 136.627-1.097-.057-.081-.154c1.323-.162 2.705-.094 4.037-.08l-.033.295-2.826-.004Z" fill="#5D72AF"/><path d="M17.124 136.727c1.342.014 2.685.011 4.027-.008-.016 1.921-.072 3.854.005 5.774-1.336.269-2.808-.016-4.175.088.372-1.284.1-4.379.143-5.854Z" fill="#CCD7EE"/><path d="m35.112 136.706.134.018c.145 1.928.052 3.91.037 5.844l-.299-.057c.072-1.854-.3-4.01.128-5.805Z" fill="#B4BED6"/><path d="m35.828 136.656.148-.054c1.247.136 2.537.067 3.79.06.005 1.972-.008 3.945-.037 5.917-1.058-.017-2.871-.215-3.788.3 1.268.123 2.526.135 3.799.144-.014 1.683.19 3.737-.13 5.376-1.199-.015-2.615-.164-3.785.052-.118-3.919-.035-7.874.003-11.795ZM181.788 136.61c1.283-.002 2.572.023 3.854-.008.35 1.722.062 4.24.03 6.031-1.292.025-2.589-.007-3.882-.015.101-1.99.049-4.016-.002-6.008ZM218.209 136.627l2.826.005c-.028 1.996-.099 4.005-.056 5.999-1.305.062-2.618.037-3.924.041.11-1.929-.082-3.862.048-5.789.311-.263.717-.23 1.106-.256ZM240.033 136.677a131.08 131.08 0 0 1 4.015-.034l-.007 6.11c-1.335-.003-2.693-.059-4.026.014.173-1.983.029-4.093.018-6.09Z" fill="#CCD7EE"/><path d="m21.148 136.714.196-.071.024 5.826-.215.02c-.076-1.921-.021-3.853-.005-5.775Z" fill="#B4BED6"/><path d="M31.188 136.718c1.31-.026 2.618-.063 3.927-.011-.429 1.794-.056 3.951-.128 5.804l-3.847.04c.197-1.882.025-3.927.048-5.833ZM45.528 136.771c1.41.035 2.825.076 4.234-.011.043 1.932.051 3.864.024 5.797-1.438.012-2.899-.022-4.335.048.288-1.825.079-3.975.077-5.834ZM50.303 136.819c1.27.041 2.54.056 3.81.044-.028 1.847-.188 3.814.018 5.649h-3.817c-.121-1.881-.057-3.809-.01-5.693Z" fill="#CCD7EE"/><path d="M84.058 136.843c.433-.02.904-.078 1.33 0l-.123.531c-.144 1.632.244 3.556-.12 5.112-.37-1.323-.08-3.903-.078-5.347-.324-.272-.595-.242-1.009-.296Z" fill="#B4BED6"/><path d="M85.87 136.796c1.302.004 2.614-.021 3.915.036-.032 1.882-.125 3.811-.002 5.691l-3.936-.024c-.012-1.901-.005-3.802.022-5.703ZM95.034 136.743c1.3.001 2.668-.09 3.96.023l.008 5.719-4.043.006c.218-1.841.065-3.885.075-5.748Z" fill="#CCD7EE"/><path d="m99 136.772.522.078.106.365c-.29 1.627-.105 3.559-.097 5.222-.022 1.679-.296 4.293.12 5.878l.02.21-.08 2.312 1.008.013c-.237.607-.455 1.229-.715 1.826-1.677.015-3.355.014-5.032-.002l.03-1.829.705.067c1.133-.06 2.28-.05 3.415-.073 0-.769-.025-1.539-.04-2.308l.008-.191c.075-1.742.038-3.486.021-5.228l.017-.62-.008-5.72Z" fill="#FEFEFE"/><path d="m99.52 136.85.163-.09c1.392.02 2.784.028 4.176.024l-.017 1.351a329.91 329.91 0 0 0-.05 4.336c-1.328.01-2.711-.061-4.03.065.018-.905.286-4.756-.137-5.321l-.105-.365ZM176.769 136.835l4.128-.05-.036 5.723-4.102-.016c.078-1.877.013-3.778.01-5.657ZM190.414 136.789c1.351-.004 2.726-.062 4.074.024-.068 1.869-.125 3.78.042 5.645a90.23 90.23 0 0 1-4.162.033c.092-1.89.036-3.809.046-5.702Z" fill="#CCD7EE"/><path d="m195.239 136.634.154.095c.145 1.837.285 3.94-.001 5.763l-.166.078c-.014-1.979-.01-3.957.013-5.936Z" fill="#B4BED6"/><path d="m195.398 136.728 3.807.016c-.02 1.911-.06 3.822-.003 5.732l-3.805.015c.286-1.823.146-3.926.001-5.763ZM211.931 136.754l4.166-.023c-.017 2.007-.068 4.02-.034 6.026a243.962 243.962 0 0 0-4.191.017c.215-1.949.065-4.054.059-6.02ZM225.623 136.788c1.35-.005 2.71-.048 4.059.001-.008 1.936-.069 3.892.034 5.825l-4.098-.061c-.068-1.913-.001-3.85.005-5.765ZM230.472 136.736c1.289-.01 2.58-.035 3.869-.024.002 1.954-.08 3.949.026 5.898-1.278.007-2.606.09-3.875-.063-.038-1.935-.015-3.875-.02-5.811ZM254.379 136.794l4.176-.034.109 8.026c.015 1.409.188 3.222-.116 4.598-1.408-.066-2.838-.041-4.248-.058.166-1.983.095-4.009.056-5.996 1.3.016 2.862.175 4.078-.335l.031-.177c-1.121-.554-2.851-.346-4.089-.329.095-1.887.033-3.807.003-5.695ZM259.355 136.754l4.122-.013a506.227 506.227 0 0 0-.039 5.511c-.574.46-3.028.29-3.847.217-.088-.008-.176-.024-.265-.036.076-1.888.034-3.788.029-5.679ZM59.236 142.52c-.014-1.883-.003-3.767.032-5.65l4.051.005c-.005 1.852-.127 3.802.058 5.642l-4.14.003ZM64.212 136.866c1.336.003 2.675.026 4.01.006-.027 1.886-.107 3.802-.007 5.686a291.979 291.979 0 0 0-3.97-.012c.005-1.892.036-3.789-.033-5.68ZM81.117 136.832l2.946.005c.414.054.684.024 1.01.296-.002 1.444-.293 4.024.078 5.347l-4.08.007c.093-1.873.034-3.778.046-5.655Z" fill="#CCD7EE"/><path d="M99.625 137.212c.423.566.155 4.417.137 5.322l-.108.112-.125-.212c-.008-1.663-.193-3.595.096-5.222Z" fill="#B4BED6"/><path d="M85.15 142.482c.364-1.556-.024-3.48.12-5.112.042 1.951.057 3.903.042 5.854l-.255.033c-1.324-.043-2.654-.001-3.978.017l-.009-.785 4.08-.007Z" fill="#8794BD"/><path d="M103.793 142.47c.007-1.445.024-2.891.05-4.336.005 1.692-.04 3.407.066 5.095-1.318-.159-2.914.234-4.162-.174l-.092-.408.108-.112c1.319-.126 2.702-.055 4.03-.065Z" fill="#89A2D8"/><path d="m128.888 164.25-.019-14.04c-.006-2.522-.122-5.103.014-7.618.032-.61.086-1.373.372-1.918.291-.554.948-.978 1.532-1.155.949-.286 6.142-.31 6.881.071.551.425 1.116.681 1.781.881v23.757c-3.519.059-7.044-.064-10.561.022ZM140.414 140.443l1.503-.777c.865-.549 5.39-.405 6.471-.16.67.151 1.551.494 1.939 1.103.363.57.399 1.556.434 2.226.231 4.53.003 9.194-.015 13.737-.008 2.168.214 5.744-.08 7.684-3.402-.128-6.845-.025-10.251-.026.001-7.18.07-14.368-.024-21.548l.023-2.239Z" fill="#4F5284"/><path d="M137.671 139.591c.907-.168 3.443-.396 4.242.077l-1.503.778-.023 2.239c-.578 3.082.35 20.369-.251 21.507-.233.023-.45.047-.684.037l-.001-23.758c-.665-.199-1.229-.455-1.78-.88Z" fill="#FEFEFE"/><path d="M259.321 142.429c.089.012.176.028.265.036.819.073 3.272.243 3.847-.217.017.443.046.853-.062 1.287l-.11-.153c-1.179-.267-2.686-.086-3.904-.08l-.269-.455-.017-.39.25-.028Z" fill="#97BAEF"/><path d="m99.528 142.434.125.211.093.408c1.248.408 2.843.014 4.161.174-.01 1.739.037 3.509-.082 5.244a69.885 69.885 0 0 0-1.229-1.944c-.402.56-.73 1.063-.983 1.713-.644-.002-1.332-.054-1.965.071-.416-1.585-.143-4.199-.12-5.877Z" fill="#CCD7EE"/><path d="M190.367 142.485a90.24 90.24 0 0 0 4.162-.033l.182.221-.044.573-.151.081-.098.013c-1.347-.071-2.722-.01-4.072-.007l.021-.848Z" fill="#97BAEF"/><path d="M16.98 142.575c1.368-.104 2.84.181 4.176-.088l.215-.019-.005.634c-1.402-.187-2.906-.083-4.322-.082l-.063-.445ZM31.14 142.549l3.847-.04.3.057-.014.446-4.084.015-.049-.478ZM39.741 143.017c-1.272-.009-2.53-.02-3.798-.144.916-.515 2.73-.317 3.788-.3l.01.444ZM45.45 142.602c1.437-.07 2.898-.036 4.336-.049l-.047.45a93.214 93.214 0 0 1-3.038.045l-1.216-.011-.034-.435ZM50.316 142.509l3.817.001-.018.571-3.802-.038.003-.534ZM59.24 142.522l4.14-.003-.016.564c-1.356.052-2.746-.012-4.105-.021l-.02-.54ZM64.247 142.549c1.323-.005 2.647-.002 3.97.012l.002.566-3.957-.041-.015-.537Z" fill="#6683C2"/><path d="m85.85 142.5 3.936.024.009.657-3.932-.004-.012-.677ZM94.96 142.496l4.042-.006-.016.62a155.34 155.34 0 0 1-3.98.032l-.047-.646ZM176.759 142.49l4.102.016.26.357.002.12-.267.306c-1.342.089-2.706.038-4.051.034l-.046-.833Z" fill="#89A2D8"/><path d="m195.23 142.564.167-.078 3.805-.015-.015.835-3.779-.018-.17-.093-.008-.631Z" fill="#97BAEF"/><path d="m225.619 142.553 4.099.061c.056.256.088.421.029.679l-4.119.028-.009-.768ZM230.491 142.553c1.269.154 2.598.071 3.875.063l-.028.644-3.667.027-.161-.084-.019-.65Z" fill="#89A2D8"/><path d="M254.374 142.486c1.238-.017 2.968-.225 4.089.329l-.031.177c-1.216.51-2.778.351-4.078.335l.02-.841Z" fill="#97BAEF"/><path d="M22.02 142.707c1.186-.258 2.682-.087 3.903-.071l.03.351c-1.292.015-2.647.116-3.93-.041l-.004-.239Z" fill="#5D72AF"/><path d="M248.954 143.189c-.906-.014-3.501.295-4.146-.215l.055-.098c.9-.566 3.045-.228 4.124-.206l-.033.519Z" fill="#89A2D8"/><path d="M185.778 143.027c-1.066 0-2.806.195-3.795-.174 1.265-.142 2.55-.099 3.822-.098l-.027.272ZM211.872 142.78c1.397-.018 2.794-.023 4.191-.017l.232.084-.015.23-.239.093-4.1.019-.069-.409ZM216.973 143.083c.005-.092.056-.176.089-.262 1.25-.196 2.642-.073 3.91-.069l-.024.448c-1.304 0-2.687.093-3.975-.117Z" fill="#6683C2"/><path d="M22.022 142.946c1.283.157 2.638.056 3.93.041.018 1.782-.118 3.634.033 5.403-1.18-.012-2.722-.198-3.853.097l-.116-.047c-.124-1.816-.054-3.676.006-5.494Z" fill="#CCD7EE"/><path d="M46.7 143.048a96.13 96.13 0 0 0 3.037-.045c.033 1.78.038 3.561.013 5.341-.75.031-1.498.007-2.247-.007.65-.14 1.345-.096 2.008-.1-.031-1.697-.066-3.378.189-5.061-1.011.01-1.999.031-3-.128Z" fill="#B4BED6"/><path d="M139.452 164.226c.234.01.451-.014.684-.037.601-1.138-.327-18.425.251-21.507.094 7.179.024 14.368.023 21.548 3.407.001 6.85-.102 10.252.025.218.354.241.486.67.585 1.745.403 3.706-.224 5.451-.153 1.052.109 2.125-.016 3.164.108.062.636.046.664.475 1.144.593.664.347 1.508 1.274 1.951.241.114.506.192.609.459.254.655.406 1.417.591 2.099.212.064.27.059.481.031.615.816 1.217 2.238 1.527 3.221.055.174.134.325.221.484-8.548.036-17.097-.302-25.645-.193-5.561.084-11.122.112-16.684.084-2.749-.002-5.733.228-8.444-.169l.09-.444c.452-.323.68-.902 1.005-1.348 1.059-1.454 3.968-5.913 5.201-6.718.053-.034.107-.065.16-.098l.026-.401.123-.359c.38-.305.817-.306 1.283-.363 2.112.225 4.534.247 6.65.073 3.517-.086 7.042.036 10.562-.022Z" fill="#ECECEC"/><path d="M16.951 148.372c.002-1.763-.094-3.602.085-5.352 1.417-.001 2.92-.105 4.323.083.031 1.726.035 3.452.012 5.179-1.467.155-2.948.043-4.42.09ZM31.19 143.03l4.083-.015c.042 1.775.083 3.578 0 5.35l-4.133.003c.082-1.768.024-3.564.05-5.338ZM45.484 143.037l1.217.012c1.001.159 1.989.138 3 .128-.255 1.683-.22 3.364-.188 5.06-.664.004-1.358-.039-2.008.101l-2.073.037c.215-1.723.065-3.6.052-5.338ZM50.31 143.047l3.803.038c-.023 1.716-.148 3.505.021 5.213l-3.826.055c-.044-1.765-.068-3.542.003-5.306ZM59.258 143.062c1.36.009 2.75.073 4.105.021-.057 1.614-.314 3.743.06 5.314-1.376-.105-2.766-.047-4.144-.029-.04-1.769-.09-3.536-.02-5.306ZM64.262 143.084l3.957.042c-.003 1.714.13 3.555-.046 5.254l-3.928-.006c-.028-1.763-.023-3.527.017-5.29Z" fill="#CCD7EE"/><path d="m180.861 143.289.267-.305c.014 2.549.005 5.101.05 7.65-.413.03-.821.067-1.235.044l-.328-.91c.412-.013.83.029 1.186-.208.346-1.932.082-4.299.06-6.271Z" fill="#8794BD"/><path d="m240.074 143.101 3.964-.013.028 6.488-4.042-.016c.193-2.099.038-4.341.05-6.459Z" fill="#CCD7EE"/><path d="m259.092 142.842.269.456-.007 6.093c1.286.004 2.57.019 3.854-.064.021-.563-.001-1.169.109-1.721.072.644.151 1.383.067 2.028-1.074.092-3.415-.301-4.135.419l-.14.636c-.092-2.608-.022-5.237-.017-7.847Z" fill="#99A4BE"/><path d="M81.078 143.277c1.325-.017 2.655-.06 3.98-.016-.02 1.624-.125 3.33.014 4.947-1.218.279-2.735.116-3.999.142.096-1.672.01-3.395.005-5.073ZM85.861 143.176l3.932.004c-.05 1.711-.167 3.492-.018 5.198-1.295-.073-2.608-.02-3.904-.011-.04-1.73-.043-3.461-.01-5.191ZM95.01 143.141c1.327.007 2.654-.003 3.98-.031.017 1.742.054 3.486-.02 5.228-1.259-.234-2.748-.064-4.03-.035.1-1.707.051-3.45.07-5.162Z" fill="#CCD7EE"/><path d="m194.519 143.336.151-.082c.008 2.45-.055 4.925.06 7.371l-4.425.038.039-.89c1.391.022 2.782.038 4.173.046.255-1.668.163-4.791.002-6.483Z" fill="#8794BD"/><path d="m211.937 143.185 4.1-.019c-.007 2.106-.237 4.477.042 6.55-1.265-.303-2.881-.113-4.188-.088.145-2.127.028-4.308.046-6.443Z" fill="#CCD7EE"/><path d="m216.04 143.168.24-.093c.012 2.207-.114 4.502.048 6.697l-.245-.055c-.28-2.072-.049-4.444-.043-6.549Z" fill="#99A4BE"/><path d="M216.973 143.084c1.288.21 2.671.117 3.975.117.015 2.122-.068 4.269.038 6.386l-3.996.03c.278-1.771.33-4.781-.017-6.533Z" fill="#CCD7EE"/><path d="m85.054 143.259.255-.033c.025 1.663.03 3.326.018 4.989l-.257-.009c-.14-1.617-.035-3.322-.016-4.947Z" fill="#B4BED6"/><path d="M176.807 143.32c1.345.004 2.709.055 4.051-.034.022 1.971.285 4.338-.06 6.271-.356.236-.775.195-1.187.207-.249-1.138-.628-2.43-1.229-3.434-.424-.708-.8-1.204-1.623-1.396l-.038-.134.086-1.48ZM190.348 143.335c1.35-.003 2.725-.064 4.072.007-.013 2.003-.295 4.532.096 6.47a387.05 387.05 0 0 1-4.173-.046c.092-2.134.015-4.294.005-6.431Z" fill="#CCD7EE"/><path d="m194.417 143.346.097-.013c.161 1.693.254 4.815-.002 6.483-.391-1.937-.109-4.466-.095-6.47ZM195.235 143.198l.169.093c.206 1.852.309 4.624.028 6.45l-.215.789c-.011-2.444-.005-4.888.018-7.332Z" fill="#B4BED6"/><path d="m195.41 143.295 3.779.019c-.049 2.103-.223 4.339.013 6.433l-3.765-.001c.282-1.827.179-4.598-.027-6.451ZM225.628 143.323l4.119-.028c-.143 2.103.033 4.22-.053 6.326l-4.082-.007a223.61 223.61 0 0 1 .016-6.291Z" fill="#CCD7EE"/><path d="m230.511 143.201.161.084c.144 2.077.247 4.296-.004 6.365l-.202.149c.187-2.147.033-4.434.045-6.598Z" fill="#B4BED6"/><path d="m230.668 143.288 3.666-.027c-.001 2.113-.086 4.266.038 6.375l-3.708.017c.251-2.07.147-4.289.004-6.365ZM259.358 143.304c1.218-.005 2.725-.187 3.903.08l.111.154c-.041 1.358-.06 2.716-.057 4.074-.111.553-.089 1.159-.109 1.722-1.284.083-2.569.068-3.855.064l.007-6.094ZM181.764 149.816c.037-2.131.033-4.264-.011-6.395l3.952-.003-.023 6.374c-1.307.047-2.611.037-3.918.024Z" fill="#CCD7EE"/><path d="M171.166 164.777c.728-3.405 1.709-6.771 2.548-10.151.658-2.656 1.161-5.508 2.111-8.074.228-.616.536-1.094.93-1.615.823.192 1.198.688 1.622 1.396.602 1.003.98 2.295 1.23 3.434l.328.91c.109.692.24 1.34.441 2.012.658 3.124 1.35 6.241 2.076 9.35.125.925.135 3.076.546 3.767.003.088.007.176.008.264.011.634-.189 1.31-.309 1.93-.455 2.33-.183 4.093 1.181 6.06-4.381-.061-8.891-.349-13.259-.007-.488-.136-.981-.293-1.291-.727-.918-1.285 1.476-6.765 1.838-8.549ZM101.612 148.245c.253-.65.58-1.153.982-1.713.42.641.83 1.289 1.23 1.944.525 1.939 1.354 3.822 2.067 5.7 1.367 3.568 2.715 7.143 4.044 10.725.995 2.947 2.476 5.96 3.075 9.016-1.203.041-2.407.05-3.611.025-2.322-.033-4.675-.072-6.991.086.009-.291.055-.662-.001-.944-.07-.36-.235-.445-.503-.651-.334-.007-.336.027-.6.239-.245.452-.135.904-.082 1.393-3.114-.104-6.395-.302-9.502-.063l3.012-7.752a450.11 450.11 0 0 1 1.594-4.262c1.14-3.114 2.297-6.242 3.553-9.311.26-.596.478-1.219.715-1.826.172-.743.587-1.436.775-2.193l-.174-.186c.103-.102.286-.163.417-.227Z" fill="#5D79B5"/><path d="M14.092 161.905c.002-4.588-.198-9.289.101-13.861.2 3.907.033 7.889.021 11.804-.007 2.459.21 5.162-.066 7.595-.041.358-.136.615-.285.941-.94-2.056-1.675-4.258-2.474-6.374.75-.241 1.9-.105 2.703-.105Z" fill="#B36955"/><path d="M16.952 148.374c1.472-.047 2.953.064 4.42-.091l-.042.397-4.337.007-.04-.313ZM50.31 148.35l3.826-.054-.014.402c-1.264-.041-2.535-.006-3.8 0l-.012-.348ZM81.073 148.347c1.264-.026 2.78.137 4-.142l.257.008-.013.439-4.207.014-.037-.319ZM94.94 148.305c1.282-.03 2.771-.2 4.03.034l-.01.191c-1.256.253-2.708.103-3.996.105l-.024-.33ZM99.649 148.311c.632-.126 1.321-.073 1.964-.072-.13.064-.313.126-.416.228-.507.08-1.017.058-1.53.053l-.018-.209ZM22.133 148.487c1.13-.295 2.673-.109 3.853-.097l-.035.286a82.46 82.46 0 0 1-3.655.001l-.163-.19ZM31.14 148.365l4.134-.003-.014.319-4.083.002-.037-.318ZM35.824 148.447c1.17-.216 2.586-.067 3.784-.052l.065.336c-1.264.018-2.58.112-3.834-.042l-.015-.242ZM45.466 148.721l-.034-.343 2.072-.038c.75.014 1.498.038 2.247.007l-.007.34c-1.42.005-2.862-.046-4.278.034ZM59.277 148.366c1.378-.018 2.769-.076 4.144.03l-.068.332c-1.345-.014-2.689-.02-4.033-.02l-.043-.342ZM64.247 148.375l3.927.006.032.331c-1.302-.053-2.627.009-3.931.019l-.028-.356ZM85.87 148.371c1.297-.01 2.61-.063 3.905.01l-.053.292-3.852.003v-.305Z" fill="#5D72AF"/><path d="m22.015 148.441.117.047.163.19a80.96 80.96 0 0 0 3.655-.001c.024.74.035 1.481.034 2.221-1.322-.024-2.648.004-3.97.01l.001-2.467ZM94.963 148.637c1.288-.002 2.74.148 3.996-.105.016.769.04 1.539.041 2.308-1.135.023-2.282.013-3.415.073l-.704-.067.082-2.209ZM99.665 148.52c.512.005 1.022.026 1.529-.054l.174.186c-.187.757-.603 1.449-.775 2.193l-1.007-.013.08-2.312ZM16.991 148.69l4.336-.007.02 2.244c-1.455 0-2.93-.044-4.382.016l.026-2.253ZM31.173 148.688l4.083-.002c.01.762.043 1.532.021 2.293-1.379-.119-2.823-.033-4.209-.032.059-.753.082-1.505.105-2.259ZM35.838 148.689c1.255.155 2.571.06 3.835.043a29.8 29.8 0 0 1 .032 2.217l-3.878-.008.011-2.252ZM45.467 148.722c1.416-.08 2.859-.029 4.278-.034l.03 2.188-2.926.026-1.36-.011-.022-2.169ZM50.318 148.703c1.265-.007 2.536-.041 3.8 0l.035 2.191c-1.285-.044-2.576-.024-3.861-.032l.026-2.159ZM59.317 148.708c1.344 0 2.688.006 4.033.019-.015.741-.067 1.474.105 2.199l-4.15.021a22.473 22.473 0 0 1 .012-2.239ZM64.27 148.73c1.305-.01 2.63-.072 3.932-.02l.062 2.199-4.014.007.02-2.186ZM81.106 148.669l4.207-.014c.007.756.024 1.514.016 2.271-1.406.006-2.812.019-4.217.041-.042-.765-.015-1.533-.006-2.298ZM85.868 148.674l3.852-.004c.08.749.082 1.487.084 2.239-1.32-.029-2.634.074-3.953-.037l.017-2.198Z" fill="#CCD7EE"/><path d="M254.3 149.322c1.41.016 2.84-.009 4.248.057l.014.309a166.776 166.776 0 0 0-4.244-.075l-.018-.291ZM211.891 149.626c1.307-.025 2.923-.214 4.188.088l.246.055-.091.667c-.323-.006-.275-.019-.531-.151-.782-.402-2.827-.071-3.752-.041l-.06-.618Z" fill="#6683C2"/><path d="m216.8 149.853.19-.234 3.996-.03-.034.696c-1.268.001-2.804.18-4.041-.085l-.111-.347Z" fill="#89A2D8"/><path d="m225.613 149.611 4.082.006.277.081-.046.427c-.794.413-3.256.113-4.268.133l-.045-.647ZM230.466 149.802l.202-.149 3.708-.017-.051.574c-1.181.003-2.567.173-3.724-.038l-.135-.37ZM240.024 149.561l4.042.016.273.116-.111.664-.06-.322c-.287-.123-.451-.123-.76-.094l.115.089c.143.115.099.058.168.188l-3.593.027-.074-.684ZM248.934 149.807c-1.154-.037-2.761.273-3.846-.119 1.289-.131 2.543-.143 3.836-.129l.01.248Z" fill="#6683C2"/><path d="M254.319 149.614c1.415.007 2.83.032 4.244.076-.009.374.054.632-.167.946-1.37-.002-2.749-.038-4.118.004l.041-1.026ZM259.106 150.692l.14-.636c.72-.72 3.061-.327 4.135-.419-.01.338-.103.671.172.927.048.045.111.071.166.107l-4.613.021Z" fill="#CCD7EE"/><path d="m195.218 150.529.214-.789 3.765.001-.016.864a116.31 116.31 0 0 1-3.963-.076Z" fill="#8794BD"/><path d="m35.276 150.976.551-.037 3.878.009-.039 1.723c-2.871.021-5.742.016-8.614-.014-.017-.569.007-1.143.015-1.714 1.387 0 2.83-.086 4.21.033ZM46.846 150.894c1.15.032 2.303.081 3.447-.041 1.286.008 2.577-.012 3.862.032l.052 1.836-8.687.002-.034-1.84 1.36.011ZM85.329 150.923l.52-.054c1.318.111 2.632.008 3.952.037l.001 1.836-8.657-.009-.034-1.769c1.406-.022 2.812-.036 4.218-.041Z" fill="#FEFEFE"/><path d="M86.542 161.933c.605-.828 1.293-1.808 2.397-1.952.655-.087 1.298.191 1.804.592.483.383.854.919 1.245 1.391.885 1.433 1.752 2.924 2.748 4.283l-3.013 7.752c-.726.568-2.77.314-3.71.449l-.491.012c-1.843-.126-2.946-.324-4.462-1.431-.163-.229-.31-.442-.4-.711-.586-1.764 2.967-8.492 3.882-10.385ZM191.812 160.709l.828 1.216c1.536 2.403 3.647 6.883 2.955 9.75-.209.864-.631 1.382-1.318 1.922-1.779.503-3.508.658-5.351.571l-.209.041c-1.609-.005-3.233.04-4.833-.151-1.364-1.967-1.636-3.73-1.182-6.06.121-.62.321-1.296.31-1.93-.001-.088-.006-.176-.009-.264l.13-.54c.385-.494.922-.716 1.466-.998.314-.659.705-1.286 1.07-1.917.583-.869 1.19-1.573 2.181-1.984 1.352-.562 2.674-.167 3.962.344Z" fill="#92AEEA"/><path d="m15.714 161.9 29.828.006h9.665c1.705 0 3.45-.075 5.15.015 3.804.274 7.78.17 11.596.071-.013 3.656-.052 7.315-.02 10.971 1.735-.01 3.49-.073 5.222.037-5.567.303-11.252.115-16.831.115l-28.793.006-10.126-.007c-1.772-.003-3.636-.112-5.398.06-.251-.405-.434-.854-.63-1.287.52-.842.24-8.357.337-9.987Z" fill="#B36955"/><path d="M60.36 161.921c3.665-.074 7.333-.003 11-.025l3.391.011 11.789.026c-.915 1.892-4.468 8.621-3.881 10.384.09.27.236.482.4.711a362.782 362.782 0 0 0-5.902-.028c-1.732-.11-3.487-.047-5.222-.037-.032-3.656.007-7.315.02-10.971-3.817.099-7.792.203-11.596-.071ZM192.636 161.928l13.314-.01c.874-.003 1.751.011 2.624-.013l9.061.038c1.595.008 3.253-.069 4.839.07-2.107.206-4.309.085-6.429.076-2.539-.01-5.124.067-7.656-.107-.595 3.818-.893 7.718-1.333 11.558-2.373.188-4.813.096-7.195.109-1.824.01-3.779.157-5.588-.049.686-.54 1.109-1.058 1.318-1.922.692-2.866-1.419-7.347-2.955-9.75Z" fill="#B97161"/><path d="M222.475 162.011c1.193-.118 2.473-.029 3.676-.025l6.977.026 22.334.005c2.043.005 6.712.363 8.388-.074l.026.117c-.036 3.558-.148 7.215.012 10.768-.097.181-.103.323-.317.379-.746.198-8.926-.038-10.284-.042l-30.847.104-8.675.108c-2.191.006-4.542-.162-6.709.161.44-3.84.739-7.739 1.333-11.557 2.532.174 5.117.096 7.656.106 2.121.009 4.322.131 6.43-.076Z" fill="#B36955"/><path d="M91.984 161.965c1.447.036 2.894.043 4.342.022a440.06 440.06 0 0 0-1.594 4.262c-.996-1.36-1.863-2.851-2.748-4.284Z" fill="#B97161"/><path d="M182.458 162.037c1.07.085 2.15.146 3.211.312-.365.631-.756 1.258-1.069 1.917-.545.282-1.082.504-1.467.998l-.129.54c-.411-.691-.421-2.842-.546-3.767Z" fill="#B36955"/><path d="M263.88 162.062c.581.017 1.166.01 1.739.113-.085 2.282-.416 5.633-.001 7.824-.413.951-.855 1.89-1.323 2.816l-.403.015c-.16-3.553-.048-7.21-.012-10.768Z" fill="#7C5452"/><path d="M265.621 162.173c1.083.075 2.162.083 3.248.089-1.011 2.604-1.998 5.233-3.249 7.734-.415-2.191-.084-5.542.001-7.823Z" fill="#B36955"/><path d="m109.937 164.9 2.437-.001c.012.442-.054.789.188 1.166 1.496.232 3.189.062 4.706.047.015-.403-.03-.871.176-1.229.885-.144 2.545-.272 3.389.016l-.026.402c-.053.033-.107.064-.159.098-1.233.805-4.142 5.264-5.202 6.717-.325.446-.553 1.026-1.005 1.349l-.089.444-1.34.007c-.599-3.056-2.08-6.069-3.075-9.016ZM166.883 165.018c.037-.129.002-.039.187-.22 1.352-.121 2.744-.039 4.101-.022-.363 1.784-2.757 7.265-1.839 8.55.31.433.804.59 1.292.727l-.052.144c-1.806.08-3.638.025-5.446-.012a2.646 2.646 0 0 1-.221-.484c-.309-.983-.912-2.404-1.526-3.221-.211.029-.27.033-.482-.031-.184-.681-.337-1.443-.591-2.099-.103-.267-.368-.344-.609-.459-.927-.443-.681-1.287-1.274-1.951-.429-.48-.413-.508-.475-1.143.835-.003 1.807-.16 2.57.196.261.329.231.592.279 1.003 1.264-.012 2.509.178 3.757-.093.351-.3.284-.438.329-.885Z" fill="#7C5452"/><path d="M101.223 174.065c-.053-.489-.163-.941.082-1.393.264-.212.266-.246.6-.239.268.206.432.291.503.651.056.282.01.653.001.944.163 1.018.28 2.204.235 3.235l-.824.033-.185-.082c-.378-.46-.287-2.381-.393-3.037l-.019-.112Z" fill="#954131"/><path d="m188.717 174.209.208-.041c.016.957.078 1.943-.03 2.894l-.183-.127c-.111-.889-.024-1.83.005-2.726Z" fill="#66424D"/><path d="m87.524 174.461.491-.013c.468.027.71-.051 1.055.282.256.726-.004 1.708-.048 2.487l-1.37-.002c-.092-.913-.1-1.837-.128-2.754Z" fill="#954131"/><path d="m18.185 177.163 69.465.051 1.37.002c4.242.014 8.57-.15 12.803.077l.824-.034c2.232-.009 4.538-.13 6.76.07-.055.742-.433 1.219-.872 1.794-10.183-.268-20.392-.122-30.58-.167l-58.776-.135a96.814 96.814 0 0 0-.994-1.658Z" fill="#ECECEC"/><path fill="#A69492" d="M0 177.348h279.999v40.331H0z"/><path fill="#ECECEC" d="M0 177.049h279.999v2.082H0z"/><path fill="#7C5452" d="M0 172.948h279.999v4.997H0z"/><path fill="#ECECEC" d="M106.238 174.08h67.516v5.056h-67.516z"/><path fill="#B36955" d="M0 161.943h20.522v11.005H0zM259.477 162.062h20.522v10.886h-20.522z"/><path fill="#E9B49C" d="M268.875 134.995h11.124v27.066h-11.124z"/><path fill="#E9B49C" d="M274.404 128.686h5.592v22.545h-5.592zM0 129.878h6.96v32.063H0z"/><path fill="#E9B49C" d="M5.595 136.247h5.77v25.698h-5.77z"/></g><defs><linearGradient id="b" x1="83.528" y1="98.464" x2="85.346" y2="119.714" gradientUnits="userSpaceOnUse"><stop stop-color="#FFFCE8"/><stop offset="1" stop-color="#FEFDFD"/></linearGradient><clipPath id="a"><path fill="#fff" d="M0 0h280v186H0z"/></clipPath></defs></svg>