<svg width="371" height="221" fill="none" xmlns="http://www.w3.org/2000/svg"><path d="M371 5.737v209.046c0 3.174-2.67 5.741-5.961 5.741H5.961c-3.29 0-5.961-2.567-5.961-5.741V5.737C0 2.567 2.67 0 5.96 0H365.04C368.33 0 371 2.567 371 5.737Z" fill="#F2F6FD"/><path d="M347.887 16.133H112.516a2 2 0 0 0-2 2V168.76a2 2 0 0 0 2 2h235.371a2 2 0 0 0 2-2V18.133a2 2 0 0 0-2-2ZM93.704 16.133H18.801a2 2 0 0 0-2 2v46.97a2 2 0 0 0 2 2h74.903a2 2 0 0 0 2-2v-46.97a2 2 0 0 0-2-2ZM349.887 180.637H110.516v4.582h239.371v-4.582ZM93.704 75.523H18.801a2 2 0 0 0-2 2v.583a2 2 0 0 0 2 2h74.903a2 2 0 0 0 2-2v-.583a2 2 0 0 0-2-2ZM93.704 88.426H18.801a2 2 0 0 0-2 2v46.97a2 2 0 0 0 2 2h74.903a2 2 0 0 0 2-2v-46.97a2 2 0 0 0-2-2ZM93.704 147.816H18.801a2 2 0 0 0-2 2v.583a2 2 0 0 0 2 2h74.903a2 2 0 0 0 2-2v-.583a2 2 0 0 0-2-2ZM93.704 160.715H18.801a2 2 0 0 0-2 2v43.631a2 2 0 0 0 2 2h74.903a2 2 0 0 0 2-2v-43.631a2 2 0 0 0-2-2ZM349.887 190.012H110.516v4.582h239.371v-4.582Z" fill="#DFE9FF"/><path d="M220.085 108.127c-3.201 1.554-6.933-.757-6.969-4.317l-.177-17.674-.177-17.675c-.035-3.56 3.648-5.946 6.88-4.454l19.96 9.196 17.599 8.107c3.719 1.713 3.773 6.982.089 8.77l-17.431 8.457-19.769 9.59h-.005Z" fill="#6683C2"/><path d="M230.198 128.439c-24.051 0-43.616-19.566-43.616-43.616s19.565-43.616 43.616-43.616c24.05 0 43.616 19.565 43.616 43.616 0 24.05-19.566 43.616-43.616 43.616Zm0-84.133c-22.342 0-40.512 18.175-40.512 40.512s18.175 40.513 40.512 40.513 40.512-18.176 40.512-40.513-18.175-40.512-40.512-40.512ZM52.23 50.887a1.929 1.929 0 0 1-2.772-1.718l-.07-7.03-.072-7.032c-.013-1.417 1.453-2.364 2.737-1.77l7.938 3.656 7 3.224c1.48.681 1.501 2.776.036 3.489l-6.934 3.364-7.863 3.817Z" fill="#6683C2"/><path d="M56.25 58.969c-9.568 0-17.352-7.784-17.352-17.352 0-9.568 7.784-17.351 17.352-17.351 9.568 0 17.352 7.783 17.352 17.351 0 9.568-7.784 17.352-17.352 17.352Zm0-33.468c-8.886 0-16.116 7.23-16.116 16.116s7.23 16.117 16.116 16.117 16.116-7.23 16.116-16.117c0-8.886-7.23-16.116-16.116-16.116ZM52.23 123.184a1.928 1.928 0 0 1-2.772-1.718l-.07-7.031-.072-7.031a1.929 1.929 0 0 1 2.737-1.771l7.938 3.657 7 3.223c1.48.682 1.501 2.777.036 3.489l-6.934 3.365-7.863 3.817Z" fill="#6683C2"/><path d="M56.25 131.262c-9.568 0-17.352-7.784-17.352-17.352 0-9.568 7.784-17.351 17.352-17.351 9.568 0 17.352 7.783 17.352 17.351 0 9.568-7.784 17.352-17.352 17.352Zm0-33.468c-8.886 0-16.116 7.23-16.116 16.116s7.23 16.116 16.116 16.116 16.116-7.23 16.116-16.116-7.23-16.116-16.116-16.116ZM52.23 195.473a1.928 1.928 0 0 1-2.772-1.718l-.07-7.031-.072-7.031a1.929 1.929 0 0 1 2.737-1.771l7.938 3.657 7 3.223c1.48.682 1.501 2.777.036 3.489l-6.934 3.365-7.863 3.817Z" fill="#6683C2"/><path d="M56.25 203.555c-9.568 0-17.352-7.784-17.352-17.352 0-9.568 7.784-17.351 17.352-17.351 9.568 0 17.352 7.783 17.352 17.351 0 9.568-7.784 17.352-17.352 17.352Zm0-33.468c-8.886 0-16.116 7.23-16.116 16.116s7.23 16.116 16.116 16.116 16.116-7.23 16.116-16.116-7.23-16.116-16.116-16.116Z" fill="#6683C2"/><path d="M332.181 162.413H128.23a5.401 5.401 0 0 1-5.402-5.402 5.401 5.401 0 0 1 5.402-5.402h203.951a5.4 5.4 0 0 1 5.401 5.402 5.4 5.4 0 0 1-5.401 5.402Z" fill="#999" style="mix-blend-mode:screen"/><path d="M298.628 156.219H130.483c-.416 0-.753.367-.753.823 0 .456.337.824.753.824h168.145c.417 0 .753-.368.753-.824 0-.456-.336-.823-.753-.823Z" fill="#E58967"/><path d="M161.661 154.883h-1.001v4.334h1.001v-4.334ZM125.152 157.047c0-.735.594-1.328 1.329-1.328s1.328.593 1.328 1.328c0 .735-.593 1.328-1.328 1.328a1.327 1.327 0 0 1-1.329-1.328ZM309.656 157.047c0-.735.594-1.328 1.329-1.328.734 0 1.328.593 1.328 1.328 0 .735-.594 1.328-1.328 1.328a1.327 1.327 0 0 1-1.329-1.328ZM315.23 157.047c0-.735.594-1.328 1.329-1.328s1.328.593 1.328 1.328c0 .735-.593 1.328-1.328 1.328a1.327 1.327 0 0 1-1.329-1.328ZM303.305 157.047c0-.735.593-1.328 1.328-1.328.735 0 1.328.593 1.328 1.328 0 .735-.593 1.328-1.328 1.328a1.326 1.326 0 0 1-1.328-1.328ZM331.15 160.731a.446.446 0 0 1-.447-.447c0-.248.199-.448.447-.448a1.65 1.65 0 0 0 1.652-1.647c0-.248.199-.447.447-.447s.447.199.447.447a2.543 2.543 0 0 1-2.541 2.537l-.005.005ZM333.249 156.34a.446.446 0 0 1-.447-.447 1.65 1.65 0 0 0-1.652-1.647.446.446 0 0 1-.447-.447c0-.248.199-.447.447-.447a2.54 2.54 0 0 1 2.542 2.537.446.446 0 0 1-.447.447l.004.004ZM323.615 156.34a.446.446 0 0 1-.447-.448 2.543 2.543 0 0 1 2.541-2.537.447.447 0 1 1 0 .895 1.65 1.65 0 0 0-1.651 1.647.446.446 0 0 1-.447.447l.004-.004ZM325.717 160.73a2.54 2.54 0 0 1-2.541-2.537c0-.248.199-.447.447-.447s.447.199.447.447c0 .908.74 1.647 1.652 1.647a.446.446 0 1 1 0 .895l-.005-.005Z" fill="#E58967"/></svg>