<svg width="280" height="186" fill="none" xmlns="http://www.w3.org/2000/svg"><g clip-path="url(#a)"><path d="M155.821 40.488c-1.236-.528-2.344-.669-3.616-.153-.881.358-1.633.954-2.392 1.514-8.03-3.555-13.536-6.42-16.927-15.136a24.001 24.001 0 0 1-1.269-4.556c-1.889 4.783-4.309 11.023-9.425 13.202-1.359.58-2.814.855-4.281.97 4.198-4.373 5.83-10.84 6.568-16.707-2.652 7.938-4.335 13.357-12.349 17.351-4.275 2.13-13.732 4.843-16.682 7.714-.878-1.418-1.935-2.736-3.633-3.17-1.3-.332-2.57-.086-3.85.184-.802-4.563-1.21-9.336-.31-13.913 1.502-7.647 6.439-14.222 12.846-18.516 5.325-3.57 12.391-5.24 18.76-4.894 1.917.104 3.781.46 5.659.832.084-1.027.178-1.948.66-2.884.545-1.061 1.423-1.85 2.586-2.165 1.343-.365 2.807-.093 3.979.64 1.743 1.09 2.184 2.62 2.652 4.495 1.13-.89 2.247-1.513 3.737-1.312 1.049.142 2.067.707 2.695 1.567.433.592.64 1.311.517 2.04-.194 1.15-.952 1.735-1.85 2.363a30.857 30.857 0 0 1 8.111 6.26c6.521 7.057 8.158 14.976 7.814 24.274Z" fill="#835245"/><path d="M149.809 41.848c.76-.56 1.512-1.157 2.393-1.515 1.271-.516 2.38-.375 3.616.153 1.595 1.47 2.689 3.573 2.757 5.76.095 3.02-1.163 6.784-3.29 8.973-1.407 1.448-3.505 2.571-5.559 2.59-.559.006-1.123-.09-1.674-.176-1.598 5.226-3.651 10.213-7.43 14.275-.737.791-1.628 1.713-2.597 2.212-.06.03-.122.057-.183.085-5.627 4.029-11.468 6.896-18.588 5.738-2.485-.404-4.878-1.283-7.108-2.435-.762-.394-1.491-.88-2.268-1.237-.264-.078-.523-.23-.757-.375-5.779-3.619-10.925-11.507-12.334-18.122-2.062.73-3.877 1.148-5.955.131-2.391-1.171-4.108-3.767-4.94-6.23-.816-2.408-1.16-5.856.059-8.185.466-.89 1.056-1.475 2.011-1.791 1.28-.27 2.55-.516 3.85-.184 1.698.434 2.755 1.752 3.633 3.17 2.95-2.87 12.407-5.583 16.682-7.714 8.014-3.994 9.696-9.413 12.349-17.351-.739 5.867-2.37 12.334-6.568 16.707 1.467-.115 2.922-.39 4.281-.97 5.116-2.179 7.535-8.419 9.425-13.202a23.997 23.997 0 0 0 1.269 4.556c3.391 8.717 8.896 11.58 16.926 15.137Zm-36.074-2.349c-1.215.034-3.262-.069-4.213.863-.155.153-.12.147-.17.366.57.335.977.24 1.593.136l.122-.016c1.062-.134 2.818.252 3.65-.474.1-.368.118-.365-.049-.705a2.832 2.832 0 0 0-.933-.17Zm19.856-.042c-.09.437-.174.508.05.886 1.467.617 3.407.417 4.996.735.04-.487.06-.565-.166-.99-1.161-.909-3.44-.631-4.88-.631Zm21.576 3.946c-1.923.635-3.277 1.788-4.19 3.617-.656 1.312-1.596 3.953-1.172 5.388.017.057.045.11.068.164l.276.071.144-.333c.37-2.138.917-5.664 2.84-7.036.882-.63 1.982-1.058 2.946-1.562l.01-.205c-.335-.126-.567-.124-.922-.104Zm-67.248.289-.11.366c.266.307.624.362.99.488 2.186.752 3.118 1.715 3.842 3.895.38 1.144.528 4.224 1.132 4.848.498-.822.181-2.71-.039-3.633-.5-2.098-1.49-4.178-3.435-5.29-.75-.43-1.527-.606-2.38-.674Zm37.07.515c-.584 1.842-.812 4.84.125 6.58.678 1.26 2.16 2.744 1.763 4.305-.091.36-.234.58-.564.746-.606.307-1.66.179-2.264-.067-.179-.072-.344-.168-.514-.258-.083-.045-.167-.087-.25-.131l-.158-.09-.135.174.093.37c.79.587 1.528.94 2.54.797a2.16 2.16 0 0 0 1.456-.887c.396-.543.614-1.254.485-1.923-.323-1.671-2.173-2.67-2.346-4.4-.157-1.567.261-3.244.073-4.755-.031-.25-.117-.318-.304-.46Zm9.868 2.976a2.726 2.726 0 1 0 1.057 5.35 2.726 2.726 0 0 0-1.057-5.35Zm-22.906.13a2.807 2.807 0 1 0 .943 5.534 2.807 2.807 0 0 0-.943-5.534Zm4.942 12.247c-.155 1.415.406 2.854 1.282 3.955 1.183 1.485 3.002 2.538 4.9 2.73 1.938.197 3.745-.558 5.205-1.79l.301-.262c1.212-1.484 1.716-2.654 2.001-4.543-3.024.22-6.075.166-9.105.125-1.456-.019-3.152.065-4.584-.215Z" fill="#E9B49C"/><path d="M110.95 40.863c-.616.104-1.023.199-1.593-.137.05-.218.015-.212.17-.365.951-.932 2.998-.829 4.213-.863.35.008.602.057.933.17.166.34.149.337.049.705-.832.726-2.588.34-3.65.473l-.122.017ZM138.644 41.078c-1.589-.317-3.529-.117-4.996-.735-.224-.378-.14-.449-.05-.885 1.44 0 3.719-.278 4.88.63.226.426.206.504.166.99ZM150.295 52.31l-.144.334-.276-.072c-.023-.054-.052-.107-.068-.163-.424-1.435.516-4.076 1.171-5.388.914-1.83 2.267-2.982 4.191-3.618.355-.019.587-.021.922.105l-.01.205c-.964.504-2.064.932-2.946 1.562-1.923 1.372-2.47 4.898-2.84 7.035ZM93.777 53.29c-.604-.624-.752-3.704-1.132-4.848-.724-2.18-1.655-3.143-3.841-3.895-.367-.126-.725-.182-.99-.488l.11-.366c.853.068 1.63.244 2.38.673 1.944 1.112 2.934 3.193 3.434 5.29.22.924.537 2.812.04 3.634Z" fill="#4F3437"/><path d="m123.086 55.84-.093-.37.135-.174.159.09.25.13c.169.091.335.186.514.259.603.246 1.657.373 2.264.067.33-.167.473-.387.564-.747.396-1.56-1.086-3.044-1.764-4.304-.936-1.741-.708-4.738-.124-6.58.186.142.272.212.303.46.189 1.512-.229 3.188-.072 4.755.172 1.731 2.023 2.73 2.345 4.4.13.67-.088 1.381-.485 1.924a2.16 2.16 0 0 1-1.456.886c-1.012.143-1.749-.21-2.54-.797Z" fill="#3E201E"/><path d="M135.901 52.537a2.726 2.726 0 1 1-1.017-5.356 2.726 2.726 0 0 1 1.017 5.356ZM112.917 52.847a2.807 2.807 0 1 1-.958-5.533 2.808 2.808 0 0 1 .958 5.533Z" fill="#4F3437"/><path d="M36.492 103.058c-.467-2.407-1.063-4.782-1.56-7.18-.37-1.781-.525-3.871-1.242-5.546-.549-1.28-2.082-2.248-2.902-3.375-2.463-3.383-6.812-12.24-3.986-16.254 1.243-1.767 3.938-2.843 5.89-3.572.467-1.128 1.242-1.792 2.382-2.236 1.888-.733 3.79-.561 5.69-.016-1.33-2.717-5.802-8.663-4.821-11.556a1.899 1.899 0 0 1 1.09-1.178c.765-.321 1.569-.204 2.307.129 1.363.613 2.58 1.83 3.625 2.871 4.895 4.874 10.047 12.938 12.33 19.5.832 2.391 1.022 4.942.98 7.459-.018 1.024-.191 2.191-.007 3.2.45 2.458 2.048 5.72 3.027 8.101 1.565 3.808 3.08 7.715 4.822 11.441-.18.117-.45.248-.585.423-1.077.628-3.395 1.79-3.956 2.93l.127.445c1.442.957 8.37 22.349 9.832 26.256a37.428 37.428 0 0 1-12.183 5.137c-.17-.54-.36-1.033-.735-1.467-.613-.711-1.459-.829-2.342-.918-.036-2.676.456-5.589-1.52-7.738-.948-1.029-2.325-1.757-3.743-1.759-1.95-.003-3.044 1.182-4.326 2.453-.81-1.584-1.285-3.559-1.865-5.261a238.36 238.36 0 0 1-6.33-22.289Zm3.783-38.069c-.83.53-1.293 1.093-1.522 2.07-.342 1.457.687 3.34 1.482 4.53.69 1.032 3.657 3.875 3.706 4.832-.314.638-.833 1.17-1.522 1.395-.934.305-1.856.258-2.727-.211-2.457-1.326-3.4-4.757-5.266-6.764l.06.195c.564 1.712 1.681 3.375 2.7 4.85.356.516.886 1.1 1.141 1.652.146.314.08.618-.073.916-.38.746-1.31 1.427-2.116 1.622-.965.234-1.892-.062-2.712-.58-1.234-.78-2.109-1.928-2.871-3.147-.119-.19-.729-1.313-.845-1.365-.092-.041-.202-.002-.303-.003l.254-.06-.284-.219c-.148.779.572 1.887 1.012 2.535.625.919 1.352 1.718 2.154 2.485-.634.465-1.47.942-1.77 1.691.288.106.514-.05.787-.182.384-.186.664-.47.973-.754l.415-.377c1.457.595 2.53.794 4.08.312.985-.69 1.513-1.348 2.108-2.387 1.283.517 2.406.68 3.715.15.229-.096.453-.2.673-.314-.486 1.936-.853 4.67.18 6.523.154.274.208.372.494.514l.195-.235c-.346-1.017-.895-2.219-.883-3.292.023-2.1.567-3.682 1.381-5.602-2.387-1.735-5.055-4.668-5.531-7.675-.098-.616-.13-1.408.274-1.932.344-.447.94-.583 1.475-.575 2.3.036 6.566 3.286 8.5 4.69.642.467 1.504 1.319 2.237 1.534.033-.351-.2-.584-.417-.853-1.03-1.276-8.212-5.803-9.867-5.993a5.383 5.383 0 0 0-1.287.024Z" fill="#E9B49C"/><path d="M128.587 64.192c-.099.088-.2.175-.301.26-1.46 1.234-3.266 1.989-5.204 1.793-1.899-.193-3.718-1.246-4.9-2.73-.877-1.102-1.437-2.54-1.282-3.957 1.431.28 3.127.197 4.584.216 3.029.04 6.081.094 9.104-.125-.285 1.889-.789 3.059-2.001 4.543Zm-11.279-4.097c.255 1.783 1.097 3.259 2.534 4.366 1.369 1.056 3.104 1.615 4.829 1.321 1.447-.247 2.516-.973 3.609-1.891.956-1.173 1.539-2.32 1.928-3.788-4.3.04-8.6.038-12.9-.008Z" fill="#3E201E"/><path d="M128.281 63.89c-1.092.92-2.162 1.645-3.609 1.892-1.725.294-3.46-.265-4.829-1.32-1.437-1.108-2.279-2.584-2.534-4.367 4.3.046 8.6.048 12.9.008-.389 1.468-.972 2.615-1.928 3.788Z" fill="#FEFEFE"/><path d="M173.723 99.784c.276-3.011.052-6.221.048-9.253l-.014-18.257c0-2.67-.25-5.621.084-8.264.085-.678.222-1.255.597-1.829 1.255-.618 9.796-.264 11.84-.264l29.219.009c4.891.022 9.791.096 14.681.024 9.37.015 18.781.166 28.149-.014l21.225-.07.078 41.201c-.178 18.966.039 37.952.052 56.92l.005 20.908c0 3.524-.19 7.155.034 10.667-1.523.596-25.143.156-28.527.155l-54.257-.024-15.438.022c-2.53.009-5.357.26-7.854-.074a515.3 515.3 0 0 1 .017-10.024c.175-1.164.182-2.424.075-3.596l.034-.42c.051-.671.193-1.404-.061-2.041-.402-.344-.653-.272-1.171-.3l-.045-.117c.432-.014.78-.024 1.188-.192.377-1.382-.018-4.849-.034-6.422l-.05-13.669-.052-.153-.501-.154c.163-.005.311-.053.469-.091.262-.473.156-.975.116-1.493l.066-.293.035-3.093-.369-.311.27-.219c.13-.718.046-1.366-.029-2.083-.092-10.303.029-20.612.053-30.917l-.016-9.822c-.008-2.135-.097-4.321.083-6.447Zm52.59-28.263c-14.224-.231-28.479-.067-42.706-.022l.037 26.135c.002 2.501.332 8.578-.078 10.689l.055.373c.152 8.407.05 16.833.045 25.242-.003 3.614-.309 7.566.051 11.14.406.284 1.053.178 1.534.181-.535.021-1.362-.055-1.829.202.212.247.083.162.385.261-.184.449-.092 34.095-.035 37.414 9.757-.089 19.513-.125 29.269-.108l8.58-.02c1.501-.002 3.099-.103 4.585.065l.245.229.14-.097c1.766-.402 7.224-.098 9.392-.115l34.42.047.019-25.776c-.003-2.667.232-9.367-.213-11.672l.125-.279c-.14-1.555-.053-3.185-.044-4.748l.053-8.438.056-23.614-.116-.364c.314-1.215.018-7.36.015-9.03l-.027-27.68c-9.837-.078-19.694.087-29.535.082l-9.44-.01c-1.442-.007-3.02-.178-4.444.014-.296.421-.23.785-.256 1.292l-.067-1.26-.216-.133Z" fill="#89A2D8"/><path d="M34.425 70.844c1.866 2.007 2.809 5.438 5.266 6.764.87.47 1.793.516 2.727.211.689-.225 1.208-.757 1.521-1.395-.048-.957-3.015-3.8-3.705-4.833-.796-1.19-1.824-3.072-1.483-4.528.23-.978.693-1.541 1.523-2.07a5.378 5.378 0 0 1 1.287-.024c1.655.189 8.837 4.716 9.867 5.992.217.27.45.502.417.853-.733-.215-1.595-1.067-2.237-1.533-1.934-1.405-6.2-4.655-8.5-4.69-.535-.01-1.131.127-1.475.574-.404.524-.372 1.316-.274 1.933.476 3.006 3.144 5.939 5.531 7.674-.815 1.92-1.358 3.503-1.381 5.602-.012 1.074.537 2.275.883 3.293l-.196.234c-.286-.142-.34-.24-.492-.514-1.034-1.853-.667-4.587-.181-6.523-.22.114-.444.218-.673.314-1.309.53-2.432.367-3.715-.15-.596 1.039-1.123 1.697-2.109 2.387-1.549.482-2.622.283-4.08-.312l-.414.377c-.31.285-.59.569-.973.754-.273.131-.499.288-.788.182.3-.749 1.137-1.225 1.77-1.691-.801-.767-1.528-1.566-2.153-2.484-.44-.648-1.16-1.757-1.012-2.536l.284.219-.254.06c.1.001.21-.038.303.003.116.052.726 1.175.845 1.365.762 1.22 1.636 2.368 2.87 3.147.82.518 1.748.814 2.713.58.805-.195 1.736-.876 2.116-1.621.152-.3.218-.603.073-.917-.255-.551-.785-1.136-1.141-1.651-1.02-1.476-2.136-3.14-2.7-4.85l-.06-.196Z" fill="#3E201E"/><path d="m226.315 71.52.216.132.067 1.26c.171 4.822.012 9.686.02 14.513.012 6.928.138 13.87.039 20.796l27.816-.058c5.247.008 10.574-.163 15.813.082l.115.364c-14.584.195-29.177-.143-43.761-.016-.002 4.246-.237 36.078.178 36.721l-.172.375c-.387 2.993-.092 6.612-.088 9.689l.05 18.69c.005 3.023.148 6.125-.015 9.136l-.139.097-.246-.229.002-37.408-42.401.057c-.302-.099-.172-.014-.384-.261.466-.257 1.294-.181 1.828-.202l40.979-.017.1-36.542.105-.424c-.384-2.957-.108-8.388-.117-11.573l-.005-25.183Z" fill="#7C6B6B"/><path d="M226.596 72.912c.026-.507-.039-.87.256-1.292 1.425-.192 3.002-.02 4.445-.014l9.44.01c9.84.005 19.697-.16 29.535-.082l.026 27.68c.003 1.67.3 7.815-.014 9.03-5.239-.245-10.566-.074-15.813-.082l-27.816.058c.099-6.926-.027-13.868-.039-20.796-.008-4.827.151-9.69-.02-14.512Z" fill="#C4DCF7"/><path d="M109.882 76.272c.777.356 1.506.843 2.267 1.236 2.231 1.153 4.624 2.032 7.109 2.436 7.12 1.157 12.961-1.71 18.588-5.738l.141.468c-.351.467-.954.836-1.423 1.18-3.14 2.307-7.17 4.077-11.041 4.612-5.689.787-10.677-.814-15.563-3.62l-.078-.574Z" fill="#3E201E"/><path d="M137.988 74.675c.03.095.061.19.09.287.786 2.623-.079 5.719 2.853 7.33 1.937 1.066 5.241 1.463 7.452 1.99-.054.074-.109.145-.161.22-.889 1.245-1.411 3.086-2.075 4.488-2.384 5.037-6.231 8.262-11.743 9.31-7.223 1.375-13.969-.612-19.934-4.72a59.613 59.613 0 0 1-10.063-8.9c1.279-.184 2.646-.303 3.684-1.154 1.726-1.418 1.641-4.632 1.87-6.68 4.886 2.806 9.874 4.407 15.563 3.62 3.872-.535 7.901-2.305 11.041-4.612.469-.344 1.072-.713 1.423-1.18Z" fill="#E9B49C"/><path d="M104.408 84.687a59.622 59.622 0 0 0 10.063 8.9c5.964 4.107 12.71 6.094 19.933 4.72 5.513-1.05 9.359-4.274 11.744-9.311.664-1.402 1.185-3.243 2.074-4.489.053-.074.108-.145.161-.218 2.126.674 4.248 1.361 6.366 2.06-.996 4.025-5.308 9.845-8.421 12.573a25.065 25.065 0 0 1-18.467 6.189c-12.652-.881-21.553-9.979-29.379-18.926 1.944-.615 3.951-.996 5.926-1.498Z" fill="#F37E60"/><path d="M64.12 104.852c7.502-5.823 17.534-11.194 26.134-15.16 2.576-1.187 5.217-2.464 7.89-3.402 1.087 1.76 2.621 3.41 4.015 4.937 5.781 6.332 12.82 11.832 21.323 13.829 6.582 1.546 13.886.632 19.655-2.965 5.926-3.695 9.465-9.176 12.215-15.455 4.017 1.425 9.531 4.958 12.773 7.726 1.966 1.68 4.282 3.694 6.111 5.52-.18 2.128-.008 4.183 0 6.318v9.869c-.024 10.305-.091 20.491 0 30.794-.392.174-1.426.49-1.83.63-1.18-.11-5.295 4.337-8.067 4.2.113-4.667.079-9.357.017-14.025-6.673-.204-13.411.017-20.092.018l-38.25-.025-12.599.064c-2.583.019-5.504.291-8.028-.189a6.761 6.761 0 0 0-1.11-.038c-1.118.081-8.56 2.098-9.526 2.576-.227.112-.357.27-.513.459-.116.142-.22.257-.376.359-.411.27-1.033.36-1.511.192-1.469-.513-2.116-4.523-2.711-5.938l-.102-.24c-1.462-3.906-8.39-25.299-9.832-26.256 1.13-.466 2.03-1.573 3.042-2.282.083.348.138.725.353 1.019.127.174.267.154.464.199.26-.244.237-.254.27-.615-.215-.453-.389-.604-.796-.898l.496-.797c.135-.176.404-.307.585-.424Zm92.007-1.387.044.174c.522 1.955 1.297 3.877 1.95 5.794 1.055 3.104 2.033 6.278 2.836 9.458a105.236 105.236 0 0 1 2.036 10.211c.365 2.602.573 5.232 1.017 7.822.142-3.736.841-6.285 1.979-9.8.262-.72 1.158-2.653.854-3.368-1.604 2.046-2.063 5.519-2.899 7.955-1.212-8.546-2.891-15.34-5.602-23.534-.423-1.276-.929-3.604-1.806-4.605l-.409-.107Zm-92.686 4.557c.182.621.312 1.146.758 1.641.163.056.333.13.501.163-.11-.704-.232-1.228-.797-1.705l-.462-.099Zm.843 2.111c.13.623.222 1.669.806 2.039.166.106.367.124.557.147-.21-.68-.367-1.441-.793-2.019-.192-.066-.37-.132-.57-.167Zm1.275 2.492c-.132.574-.214 1.025.121 1.562.211.338.513.509.848.7-.084-.728-.275-1.589-.805-2.136-.048-.049-.11-.084-.164-.126Zm20.665 1.346c-.468 2.099-1.42 21.035-.704 22.021.047.064.111.113.166.17.406-2.268.12-4.975.166-7.297.077-3.669.249-7.335.515-10.995.043-.674.426-3.313-.013-3.806-.035-.04-.087-.062-.13-.093Zm-19.746 1.26c-.21.339-.253.372-.135.779.145.503.505 1.077.915 1.4.17-.629.062-1.086-.27-1.658-.143-.246-.25-.39-.51-.521Zm.684 2.503c.135.741.241 1.366.796 1.912l.422.126c-.115-.759-.212-1.349-.786-1.899l-.431-.139Zm1.156 2.182c-.197.416-.314.753-.18 1.214.094.33.29.642.611.785.134.059.213.077.348.116.158-.541-.134-1.243-.42-1.712-.182-.3-.104-.204-.359-.403Zm.503 2.387c.005.81.137 1.419.65 2.059.203.101.351.174.576.219-.011-.786-.286-1.462-.72-2.108l-.506-.17Zm58.936.667a1.842 1.842 0 1 0 1.614 3.312 1.842 1.842 0 0 0-1.614-3.312Zm-58.142 1.985c.05.761.261 1.445.696 2.075l.317.163c.14-.547.156-1.123-.118-1.639-.14-.263-.294-.484-.598-.564-.097-.025-.198-.023-.297-.035Zm.932 2.371c-.094.617-.056 1.115.323 1.637.216.296.459.411.793.539-.114-.761-.264-1.418-.736-2.039l-.38-.137Zm.861 2.318c-.081.655.107 1.669.592 2.159.15.151.175.153.337.244.081-.628-.092-1.682-.567-2.149-.155-.153-.191-.16-.362-.254Zm.665 2.683c.138.621.232 1.141.613 1.666.153.085.306.191.476.234-.082-.522-.15-1.397-.628-1.723-.23-.156-.145-.103-.461-.177Zm.846 2.287c.012.765.154 1.343.605 1.968l.397.217c-.046-.777-.157-1.358-.607-2.005l-.395-.18Zm.646 2.347c.095.796.202 1.411.65 2.089.23.124.444.231.693.313-.189-.83-.372-1.549-.9-2.232l-.443-.17Z" fill="#F37E60"/><path d="m98.14 86.289.339-.11c7.825 8.947 16.727 18.045 29.379 18.926a25.059 25.059 0 0 0 18.466-6.189c3.114-2.728 7.425-8.548 8.422-12.573l.601.292c-2.75 6.28-6.289 11.76-12.215 15.454-5.769 3.598-13.073 4.512-19.656 2.966-8.502-1.997-15.541-7.498-21.322-13.83-1.394-1.526-2.927-3.177-4.014-4.936ZM164.002 136.927c-.443-2.591-.652-5.22-1.017-7.823a105.453 105.453 0 0 0-2.035-10.21c-.804-3.18-1.781-6.354-2.837-9.458-.652-1.918-1.428-3.84-1.949-5.795l-.045-.174.409.107c.878 1.001 1.384 3.329 1.806 4.605 2.711 8.194 4.39 14.988 5.602 23.535.837-2.437 1.296-5.91 2.899-7.955.305.714-.592 2.647-.854 3.367-1.138 3.516-1.836 6.065-1.979 9.801Z" fill="#4F3437"/><path d="m59.703 108.646-.127-.444c.56-1.14 2.88-2.303 3.957-2.931l-.496.798-.29.295c-1.012.709-1.914 1.816-3.044 2.282Z" fill="#3E201E"/><path d="m62.744 106.362.291-.295c.407.294.581.445.797.898-.034.36-.01.371-.271.615-.196-.045-.337-.025-.464-.199-.215-.294-.27-.671-.353-1.019ZM64.697 109.821c-.168-.034-.338-.107-.5-.164-.447-.495-.577-1.02-.759-1.641l.462.099c.566.477.687 1.002.797 1.706Z" fill="#FEFEFE"/><path d="M183.563 108.319c1.673-.162 3.427-.064 5.108-.059l8.888.019 28.873-.007-.105.423-42.709-.003-.055-.373Z" fill="#9D6A53"/><path d="m183.617 108.695 42.709.004-.1 36.542-40.979.017c-.481-.003-1.127.103-1.533-.181-.36-3.574-.054-7.526-.052-11.139.005-8.41.108-16.836-.045-25.243Zm17.028 26.03.123-.163c2.649-3.406 9.913-8.45 9.339-13.108-.144-1.174-.882-2.327-1.815-3.04-1.127-.861-2.852-1.029-4.211-.803-1.51.25-2.643.967-3.486 2.243-.319.483-.532.93-.523 1.518l.202.244c.803-.346 2.035-5.144 6.626-3.247 1.083.448 2.119 1.278 2.55 2.397.429 1.118.155 2.354-.333 3.404-1.34 2.878-4.344 5.497-6.599 7.702-.775.757-1.662 1.521-2.306 2.393a1.464 1.464 0 0 0-.317.974c1.092.314 9.232.429 10.006.01l.049-.209c-.783-.466-7.394-.098-9.121-.293a5.44 5.44 0 0 1-.184-.022ZM65.642 112.319c-.19-.023-.39-.041-.556-.147-.584-.371-.677-1.416-.806-2.04.2.035.378.101.57.167.426.578.583 1.34.793 2.02Z" fill="#FEFEFE"/><path d="M10.169 134.177c-1.788-.58-3.27-1.435-4.14-3.195a5.528 5.528 0 0 1-.249-4.302c.512-1.407 1.655-2.463 3.006-3.064 1.942-.864 4.338-.402 6.405-.593-1.602-1.264-2.654-2.558-2.903-4.67a6.23 6.23 0 0 1 1.414-4.793 6.89 6.89 0 0 1 4.652-2.395c1.74-.139 3.515.406 4.811 1.591 1.204 1.1 1.945 2.79 2.009 4.415.07 1.761-.642 3.565-1.839 4.85-.394.415-.816.803-1.262 1.161 2.767-.038 6.571-.559 8.748 1.521 1.044.998 1.535 2.414 1.505 3.843-.032 1.587-.773 3.123-1.915 4.212-.78.744-1.657 1.169-2.696 1.431-1.592-.221-3.473-.041-5.093-.038-4.15.007-8.305.085-12.453.026Z" fill="#454051"/><path d="M66.528 114.884c-.336-.191-.637-.362-.849-.701-.335-.537-.253-.988-.121-1.562.055.042.116.077.164.126.53.547.721 1.409.806 2.137Z" fill="#FEFEFE"/><path d="M85.68 136.16c-.054-.056-.118-.106-.165-.17-.717-.985.236-19.921.704-22.021.043.031.094.053.13.093.438.494.056 3.133.013 3.806-.266 3.66-.439 7.326-.516 10.995-.045 2.323.24 5.03-.165 7.297Z" fill="#190C0E"/><path d="M67.252 117.408c-.41-.324-.77-.898-.915-1.401-.118-.407-.074-.44.135-.78.26.131.367.276.51.521.332.573.441 1.03.27 1.66ZM68.375 119.767l-.421-.127c-.555-.545-.662-1.171-.796-1.911l.43.139c.575.549.672 1.14.787 1.899ZM69.088 122.031c-.136-.038-.214-.056-.348-.116-.321-.142-.517-.455-.612-.784-.133-.462-.016-.799.18-1.215.256.199.177.103.36.403.286.469.577 1.171.42 1.712ZM70.043 124.582c-.224-.046-.372-.119-.576-.22-.513-.64-.645-1.249-.65-2.059l.506.17c.435.646.71 1.323.72 2.109ZM129.305 126.306a1.842 1.842 0 1 1-1.499-3.365 1.842 1.842 0 0 1 1.499 3.365ZM70.62 127.188l-.317-.163c-.435-.63-.647-1.314-.696-2.076.099.012.2.011.296.035.305.08.46.302.599.565.274.515.257 1.092.118 1.639ZM71.655 129.501c-.335-.128-.578-.243-.793-.539-.38-.522-.417-1.02-.324-1.638l.38.138c.473.621.622 1.278.737 2.039Z" fill="#FEFEFE"/><path d="M44.685 130.617c1.282-1.271 2.376-2.456 4.326-2.454 1.418.002 2.795.73 3.742 1.76 1.977 2.148 1.485 5.062 1.52 7.737.884.089 1.73.208 2.343.918.375.434.566.928.735 1.467.016.742-.062 1.389-.599 1.949-.71.742-1.764.811-2.724.857-.025 2.899-.311 6.084.042 8.953l.027.378c-.062.795-.02 1.536.051 2.326l.143.378c.116 6.954 1.378 15.064 6.056 20.504l.426.269c.242.927 1.487 1.43 1.973 2.202l.305.385c-.047.698-.01 1.469-.548 1.992-.222.216-.556.283-.86.3-2.205-.31-24.456-.131-24.862.094-.06.034-.11.083-.164.127-.319.01-.513-.091-.756-.293-.39-.324-.697-.941-.687-1.45.025-1.31 1.544-2.392 2.383-3.241 1.85-1.871 2.877-3.986 3.793-6.44 3.188-8.535 2.555-17.521 2.494-26.452-1.25.055-2.357.079-3.316-.846-.482-.464-.752-1.165-.737-1.832.01-.691.303-1.347.809-1.818.988-.919 2.074-.828 3.326-.8.033-2.335-.42-4.852.759-6.97Zm4.054 3.291a1.706 1.706 0 1 0 .942 3.28 1.706 1.706 0 0 0-.942-3.28Z" fill="#F37E60"/><path d="M72.334 132.044c-.163-.091-.188-.094-.337-.244-.485-.49-.674-1.504-.592-2.16.17.094.206.101.362.254.475.467.648 1.521.567 2.15ZM73.161 134.228c-.17-.043-.323-.15-.476-.234-.382-.525-.476-1.045-.614-1.667.316.074.232.021.461.177.479.327.547 1.202.63 1.724ZM49.68 137.183a1.707 1.707 0 1 1-.942-3.281 1.707 1.707 0 0 1 .941 3.281Z" fill="#FEFEFE"/><path d="M10.17 134.174c4.149.059 8.304-.019 12.454-.027 1.62-.003 3.501-.182 5.093.039 1.96.81 3.53 1.28 4.396 3.476.542 1.377.426 2.976-.2 4.305-.727 1.548-2.096 2.649-3.701 3.19-.405.14-.816.26-1.233.358-1.903.142-3.897.027-5.81.028l-11.256.002c-1.623-.567-2.99-1.52-3.898-3.012-.749-1.23-1.016-2.718-.612-4.113.743-2.565 2.71-3.103 4.768-4.246Z" fill="#E9B49C"/><path d="m73.919 136.798-.397-.217c-.452-.625-.594-1.203-.606-1.968l.395.179c.451.647.561 1.228.608 2.006ZM74.904 139.358a4.12 4.12 0 0 1-.693-.312c-.448-.678-.555-1.294-.65-2.089l.444.169c.527.683.71 1.403.899 2.232Z" fill="#FEFEFE"/><path d="M226.817 145.309c10.118-.284 20.323-.123 30.447-.035 2.731.029 5.462.044 8.193.045 1.601.002 3.29-.097 4.878.085l-.124.278c-4.617.217-9.316-.012-13.943-.023l-29.623.025.172-.375Z" fill="#9D6A53"/><path d="m9.911 145.548 11.256-.002c1.913-.001 3.907.114 5.81-.027 1.859.423 3.533 1.22 4.591 2.884.817 1.284 1.046 2.791.684 4.267-.42 1.715-1.61 3.124-3.137 3.973-.32.178-.664.322-1 .468l-18.113-.06a21.163 21.163 0 0 1-1.302-.561c-1.477-.717-2.572-1.903-3.085-3.472-.481-1.472-.404-3.18.328-4.558.852-1.603 2.291-2.409 3.968-2.912Z" fill="#89A2D8"/><path d="m183.802 145.72 42.401-.056-.002 37.408c-1.485-.168-3.084-.067-4.585-.066l-8.579.021c-9.757-.018-19.513.018-29.27.107-.057-3.319-.149-36.965.035-37.414Z" fill="#C4DCF7"/><path d="m226.645 145.688 29.622-.024c4.627.011 9.326.239 13.943.023.444 2.305.21 9.006.213 11.672l-.019 25.776-34.421-.047c-2.167.018-7.626-.287-9.391.115.162-3.01.02-6.113.015-9.136l-.051-18.69c-.003-3.077-.299-6.696.089-9.689Zm21.407 9.002c-1.988.162-3.635 1.059-4.928 2.587-.218.257-.34.491-.352.834.161.316.185.374.485.557.492-.494.673-1.195 1.043-1.775.69-1.084 2.336-1.727 3.575-1.736a4.774 4.774 0 0 1 3.423 1.428 4.94 4.94 0 0 1 1.47 3.587 4.879 4.879 0 0 1-.784 2.503c-1.336 2.086-6.833 6.682-8.954 8.598l-1.598 1.435 2.934-.01c2.015.005 7.637.397 9.183-.34-1.184-.507-8.705-.203-10.565-.254a146.156 146.156 0 0 1 5.024-4.647c1.519-1.353 3.349-2.701 4.458-4.43.564-.879.889-1.878.89-2.926 0-1.407-.574-2.929-1.572-3.931-1.029-1.035-2.314-1.402-3.732-1.48ZM172.404 147.491c.404-.14.808-.349 1.2-.522.075.717.159 1.365.029 2.083l-.271.219a29.065 29.065 0 0 1-2.463-.617c.526-.361 1.066-.697 1.505-1.163ZM113.244 152.073c1.952-.012 4.029-.142 5.966.093.018.758.008 1.519.149 2.266-1.883-.307-4.176-.053-6.104-.046l-.011-2.313Z" fill="#FEFEFE"/><path d="M10.346 168.517a7.022 7.022 0 0 1-1.709-.514c-1.387-.636-2.46-1.74-2.985-3.181a5.775 5.775 0 0 1 .324-4.661c.877-1.702 2.27-2.539 4.023-3.113l18.114.059c1.842 1.042 3.659 2.13 4.272 4.317.402 1.433.135 2.992-.598 4.274-.764 1.337-2.028 2.26-3.506 2.666-.25.068-.507.114-.763.153H10.346Z" fill="#E9B49C"/><path d="m10.352 168.518 17.172.001.178.114c2.223 1.403 3.688 1.543 4.349 4.504.311 1.394.249 3.071-.555 4.3-.901 1.38-2.39 1.766-3.656 2.644-1.529-.344-16.353-.23-18.25.002-.022-.138-2.267-1.589-2.606-1.895-.711-.644-1.192-1.435-1.511-2.337-.436-1.231-.4-2.645.186-3.821.96-1.93 2.75-2.856 4.693-3.512Z" fill="#C4DCF7"/><path d="M134.58 175.397c2.354-.154 5.063-.271 7.396.01l.043 2.303-7.463.017.024-2.33Z" fill="#FEFEFE"/><path d="M9.294 191.435c-1.714-.843-3.09-1.947-3.698-3.838a6.172 6.172 0 0 1 .385-4.656c.795-1.545 2-2.355 3.609-2.856 1.896-.232 16.72-.346 18.25-.002 1.75.569 3.262 1.449 4.117 3.165.67 1.344.658 2.875.165 4.275-.665 1.892-2 2.968-3.699 3.888 2.702.035 5.404.051 8.106.046-1.556.23-3.287.1-4.86.078-2.904-.039-5.804-.125-8.709-.123l-19.576.113c-2.482 0-5 .086-7.477-.014 4.383-.346 8.981-.078 13.387-.076Z" fill="#89A2D8"/><path d="M36.62 180.759c.054-.044.104-.094.164-.127.405-.226 22.657-.405 24.861-.095l-.058 1.516c-.45 3.017-.128 6.456-.097 9.522-2.936-.003-23.634.267-24.802-.125.02-3.514.245-7.202-.068-10.691Z" fill="#454051"/><path d="M61.49 191.572c-.03-3.066-.354-6.505.097-9.523l.021 9.528 23.814-.02 78.976.017c2.464-.015 7.005-.322 9.248.066 2.497.333 5.324.083 7.854.074l15.438-.023 54.258.025c3.383 0 27.003.44 28.526-.155 1.589-.112 3.193-.077 4.785-.08.09 1.642.049 3.288.031 4.932-18.78.125-37.561.139-56.341.041l-125.993.059-71.52-.043-22.046.029c-4.424.023-8.97.256-13.378-.052-.12-1.157-.58-3.919.114-4.864l.535-.072c2.478.1 4.995.014 7.477.014l19.577-.113c2.904-.002 5.804.084 8.707.123 1.574.022 3.305.152 4.861-.078l.157-.011c1.168.393 21.866.123 24.802.126Z" fill="#835245"/><path d="M86.987 168.182c0-4.342-1.71-20.266-2.764-30.399v-1.579l2.764.79 15.002-3.554 56.061 2.764 7.501 1.579v34.742c0 6.712 1.184 18.555 1.184 18.555H86.987c-.132-5 0-18.555 0-22.898Z" fill="#F37E60"/><path d="M129.305 144.861a1.842 1.842 0 1 1-1.499-3.365 1.842 1.842 0 0 1 1.499 3.365ZM129.305 160.652a1.841 1.841 0 1 1-1.5-3.364 1.841 1.841 0 0 1 1.5 3.364Z" fill="#FEFEFE"/><path d="m171.868 147.653 2.368-.789v44.216h-2.368v-43.427Z" fill="#fff"/><path d="M174.237 164.629c-1.58-.631-5.527-9.606-7.107-13.818.395-.394 3.159-2.368 3.948-3.158.632-.632 2.369-.789 3.159-.789v17.765Z" fill="#E9B49C"/><path d="m171.868 56.85 2.368-.79v44.218l-2.368-2.764V56.85Z" fill="#fff"/><path d="M201.777 99.59a.946.946 0 0 1-.695-.284.947.947 0 0 1-.284-.695c0-.274.095-.505.284-.695a.9.9 0 0 1 .695-.316h2.653l.253-15.823-2.274 2.432a.935.935 0 0 1-.727.316.944.944 0 0 1-.694-.285 1.053 1.053 0 0 1-.285-.726c0-.253.095-.474.285-.663l3.979-4.327c.084-.084.19-.158.316-.221a.994.994 0 0 1 .379-.095c.295 0 .537.105.726.316.19.19.285.421.285.695L206.42 97.6h2.085c.315 0 .568.106.758.316.189.19.284.421.284.695a.902.902 0 0 1-.316.695.91.91 0 0 1-.663.284h-6.791ZM249.595 99.78c-1.243 0-2.316-.232-3.222-.695-.884-.485-1.558-.99-2.021-1.516-.463-.527-.769-.948-.916-1.264a1.174 1.174 0 0 1-.158-.631c0-.274.084-.495.253-.664.189-.168.421-.252.695-.252.421 0 .715.179.884.537.337.59.863 1.158 1.579 1.705.737.526 1.685.79 2.843.79.758 0 1.495-.169 2.21-.506a4.173 4.173 0 0 0 1.738-1.516c.463-.695.694-1.526.694-2.495 0-1.158-.305-2.084-.916-2.78-.61-.694-1.316-1.178-2.116-1.452s-1.516-.41-2.147-.41a.944.944 0 0 1-.695-.285 1.006 1.006 0 0 1-.253-.695c0-.294.095-.526.284-.694a.947.947 0 0 1 .695-.285c.716 0 1.432-.168 2.148-.505.737-.358 1.337-.821 1.8-1.39.463-.568.695-1.179.695-1.832 0-.463-.168-.915-.505-1.358-.316-.442-.79-.8-1.422-1.074-.61-.273-1.337-.41-2.179-.41-.926 0-1.663.116-2.211.347a6.829 6.829 0 0 0-1.484.853c-.274.21-.505.316-.695.316-.316 0-.558-.095-.726-.284a1.085 1.085 0 0 1-.253-.695c0-.421.358-.863 1.074-1.327a8.552 8.552 0 0 1 1.926-.852 7.862 7.862 0 0 1 2.369-.348c1.116 0 2.137.221 3.064.663.947.422 1.684 1 2.211 1.737.547.737.821 1.548.821 2.432 0 .948-.274 1.832-.821 2.654-.548.8-1.274 1.463-2.18 1.99 1.116.505 1.969 1.263 2.559 2.273.61 1.01.916 2.148.916 3.411 0 1.474-.348 2.706-1.043 3.696-.695.968-1.547 1.684-2.558 2.147-1.011.442-1.99.663-2.937.663ZM204.304 136.89c-1.095 0-2.084-.2-2.969-.6-.884-.421-1.6-.895-2.147-1.421-.548-.548-.916-1.032-1.106-1.453-.084-.105-.126-.263-.126-.474 0-.274.095-.505.284-.695.211-.189.453-.284.726-.284.211 0 .369.042.474.126.127.063.253.19.379.379.632.8 1.295 1.411 1.99 1.832.695.4 1.527.6 2.495.6.905 0 1.758-.273 2.558-.821a6.13 6.13 0 0 0 1.959-2.242 6.576 6.576 0 0 0 .726-3.032c0-1.453-.4-2.696-1.2-3.727-.779-1.053-1.916-1.579-3.411-1.579-1.032 0-1.895.2-2.59.6-.674.4-1.274.863-1.8 1.389-.232.232-.485.348-.758.348-.316 0-.579-.106-.79-.316a1.03 1.03 0 0 1-.221-.821l.821-8.18a.875.875 0 0 1 .348-.632c.21-.168.431-.253.663-.253h9.033c.273 0 .505.095.695.285a.9.9 0 0 1 .315.694.9.9 0 0 1-.315.695.945.945 0 0 1-.695.284h-8.149l-.505 5.022c1.305-.716 2.621-1.074 3.948-1.074 1.242 0 2.358.306 3.348.916 1.01.611 1.8 1.464 2.368 2.559.569 1.094.853 2.358.853 3.79 0 1.452-.337 2.8-1.011 4.042-.673 1.243-1.568 2.232-2.684 2.969-1.095.716-2.264 1.074-3.506 1.074ZM207.084 174.79c-.274 0-.516-.095-.727-.284a1.02 1.02 0 0 1-.284-.695v-4.2l-7.675-.127a.948.948 0 0 1-.695-.284 1.02 1.02 0 0 1-.284-.695c0-.189.053-.368.158-.537l8.622-14.212c.211-.337.506-.506.885-.506.294 0 .526.095.694.284.19.169.285.401.285.695v13.423l.979.032c.252 0 .473.095.663.284.189.19.284.421.284.695 0 .274-.095.516-.284.726a.91.91 0 0 1-.663.285l-.979-.032v4.169c0 .253-.106.484-.316.695a.912.912 0 0 1-.663.284Zm-1.011-17.023-5.906 9.759 5.906.095v-9.854ZM244.194 135.753c0-1.684.252-3.116.758-4.295.526-1.179 1.2-2.158 2.021-2.938.821-.8 1.853-1.6 3.095-2.4 1.116-.695 1.948-1.253 2.495-1.674a5.546 5.546 0 0 0 1.422-1.547c.4-.611.6-1.316.6-2.116 0-.969-.39-1.78-1.169-2.432-.758-.653-1.695-.979-2.811-.979-1.074 0-2.011.263-2.811.789-.8.526-1.389 1.011-1.768 1.453-.211.232-.379.4-.506.505-.105.084-.263.127-.473.127a.937.937 0 0 1-.727-.316 1.02 1.02 0 0 1-.284-.695c0-.19.063-.379.189-.569.127-.189.369-.442.727-.758 1.705-1.663 3.59-2.495 5.653-2.495 1.137 0 2.158.242 3.064.727.905.463 1.611 1.105 2.116 1.926.526.822.79 1.727.79 2.717 0 1.137-.243 2.116-.727 2.937a7.26 7.26 0 0 1-1.705 2.021c-.674.527-1.611 1.179-2.811 1.958-1.032.674-1.885 1.306-2.559 1.895-.673.569-1.252 1.285-1.737 2.148-.484.842-.758 1.842-.821 3h9.633c.274 0 .505.106.695.316.211.19.316.421.316.695 0 .253-.105.474-.316.663a.945.945 0 0 1-.695.285h-11.654v-.948ZM250.763 174.79c-1.2 0-2.316-.263-3.348-.789-1.01-.527-1.831-1.379-2.463-2.558-.632-1.18-.948-2.696-.948-4.549 0-3.453.832-6.274 2.495-8.464 1.664-2.211 3.622-3.874 5.875-4.99.253-.105.463-.158.632-.158.273 0 .495.084.663.253.168.168.253.389.253.663 0 .21-.053.389-.158.537a.716.716 0 0 1-.379.316 12.656 12.656 0 0 0-4.011 2.811c-1.158 1.179-2.011 2.505-2.559 3.979 1.39-.8 2.864-1.2 4.422-1.2 1.137 0 2.158.253 3.064.758.905.484 1.621 1.211 2.147 2.179.548.948.821 2.106.821 3.474 0 1.537-.294 2.896-.884 4.075-.568 1.158-1.347 2.063-2.337 2.716a5.98 5.98 0 0 1-3.285.947Zm.032-1.895c.884 0 1.674-.242 2.369-.726.716-.484 1.273-1.169 1.674-2.053.4-.884.6-1.906.6-3.064 0-1.495-.39-2.621-1.169-3.379s-1.79-1.137-3.032-1.137c-1.221 0-2.274.232-3.158.695-.864.463-1.548.947-2.053 1.453-.106.61-.158 1.347-.158 2.21 0 2.043.442 3.559 1.326 4.549.885.968 2.085 1.452 3.601 1.452Z" fill="#F37E60"/><path d="M97.683 144.958c.223-.427.59-1.888 3.134-1.888h20.76l2.516 35.814H94.265c-1.31 0-2.116-.538-2.116-2.024 0 0-.065-11.559-.065-15.837 0-1.487.086-1.921.463-3.159 1.57-5.144 5.134-12.908 5.134-12.908l.002.002Z" fill="#C4DCF7"/><path d="M99.54 146.779c.19-.374.494-1.656 2.624-1.656h17.376l.086 31.377H96.678c-1.095 0-1.769-.473-1.769-1.774 0 0-.053-10.127-.053-13.873 0-1.301.07-1.683.386-2.766 1.316-4.506 4.299-11.308 4.299-11.308Z" fill="#B2C9E4"/><path d="M97.014 161.139c0-1.13.062-1.484.318-2.449 1.084-4.098 3.546-10.278 3.546-10.278.156-.339.409-1.506 2.167-1.506h14.349l.035 14.235H97.014v-.002Z" fill="#DFF4FD"/><path d="M122.57 176.38c.153 2.189 1.646 3.752 3.678 3.752h57.5c2.03 0 3.526-1.563 3.681-3.752l2.86-36.276c0-2.071-1.644-3.752-3.678-3.752h-62.56c-2.032 0-3.678 1.681-3.678 3.752l2.197 36.276Z" fill="#FFF9E6"/><path d="M179.638 146.157h-1.054a3.004 3.004 0 0 0-3.006 2.999v20.09a3.004 3.004 0 0 0 3.006 2.999h1.054a3.002 3.002 0 0 0 3.004-2.996v-20.091a3.002 3.002 0 0 0-3.004-2.996v-.005ZM164.456 146.157h-1.051a3.004 3.004 0 0 0-3.006 2.999v20.086a3.004 3.004 0 0 0 3.006 2.998h1.051a3.003 3.003 0 0 0 3.007-2.998v-20.089a3.003 3.003 0 0 0-3.007-2.998v.002ZM143.939 169.244a3.003 3.003 0 0 0 3.006 2.999h1.051a3.002 3.002 0 0 0 3.007-2.999v-20.088a3.002 3.002 0 0 0-3.007-2.999h-1.051a3.003 3.003 0 0 0-3.006 2.999v20.088ZM128.38 169.244a3.005 3.005 0 0 0 3.007 2.999h1.053a3.004 3.004 0 0 0 3.007-2.999v-20.088a3.004 3.004 0 0 0-3.007-2.999h-1.053a3.004 3.004 0 0 0-3.007 2.999v20.088Z" fill="#E0BFAF"/><path d="M123.681 169.075c4.688.011 9.364.443 14.047.628 6.348.253 12.519-.051 18.804-1.076 6.792-1.106 13.498-4.123 18.46-8.945 6.169-5.992 8.938-14.42 8.943-22.873 0-.153-.007-.304-.012-.457h2.688c2.032 0 3.678 1.681 3.678 3.752l-2.86 36.276c-.153 2.189-1.648 3.752-3.681 3.752h-57.497c-2.032 0-3.528-1.563-3.679-3.752l-.448-7.389c.513.054 1.034.084 1.56.084h-.003Z" fill="#F4D8CA" style="mix-blend-mode:multiply"/><path d="M118.543 138.764a3.13 3.13 0 0 0 3.134 3.126h67.569a3.129 3.129 0 0 0 3.134-3.126v-1.408a3.132 3.132 0 0 0-3.134-3.126h-67.569a3.13 3.13 0 0 0-3.134 3.126v1.408Z" fill="#E0BFAF"/><path d="M120.085 139.634h43.897c6.15-.056 18.795 1.458 23.506-5.404h1.755a3.133 3.133 0 0 1 3.137 3.126v1.408a3.13 3.13 0 0 1-3.134 3.126h-67.569a3.134 3.134 0 0 1-3.06-2.454c.47.123.963.195 1.465.195l.003.003Z" fill="#EFDED6" style="mix-blend-mode:multiply"/><path d="M138.416 143.58s-9.219-.816-12.765 6.448c-3.156 6.461-.751 7.344 1.151 6.076 1.902-1.269 3.425-3.296 6.547-3.653 3.123-.357 3.963.427 5.483-2.869 1.519-3.295 3.793-5.552-.416-6.002Z" fill="#E6DCD5" style="mix-blend-mode:soft-light"/><path d="M90.54 176.475h101.891v5.074H90.541v-5.074Z" fill="#6982B9"/><path d="M90.54 179.091h101.891v2.46H90.541v-2.46Z" fill="#F2F2F2" style="mix-blend-mode:multiply"/><path d="M163.308 182.05c0 5.536 4.499 10.023 10.047 10.023 5.548 0 10.049-4.487 10.049-10.023s-4.497-10.021-10.049-10.021c-5.553 0-10.047 4.488-10.047 10.021Z" fill="#89A2D8"/><path d="M167.286 182.05c0 3.344 2.718 6.055 6.071 6.055 3.353 0 6.069-2.711 6.069-6.055s-2.721-6.053-6.069-6.053-6.071 2.711-6.071 6.053Z" fill="#DFF4FD"/><path d="M173.357 173.961c4.49 0 8.129 3.629 8.129 8.108 0 4.478-3.639 8.107-8.129 8.107s-8.129-3.629-8.129-8.107c0-4.479 3.637-8.108 8.129-8.108Zm0 13.003c2.711 0 4.911-2.191 4.911-4.895 0-2.705-2.2-4.896-4.911-4.896-2.711 0-4.911 2.191-4.911 4.896a4.902 4.902 0 0 0 4.911 4.895Z" fill="#DCE1EE" style="mix-blend-mode:multiply"/><path d="M97.486 182.05c0 5.536 4.499 10.023 10.049 10.023 5.551 0 10.048-4.487 10.048-10.023s-4.5-10.021-10.048-10.021-10.05 4.488-10.05 10.021Z" fill="#89A2D8"/><path d="M101.466 182.05c0 3.344 2.719 6.055 6.069 6.055 3.351 0 6.069-2.711 6.069-6.055s-2.718-6.053-6.069-6.053c-3.35 0-6.069 2.711-6.069 6.053Z" fill="#DFF4FD"/><path d="M107.535 173.961c4.49 0 8.129 3.629 8.129 8.108 0 4.478-3.641 8.107-8.129 8.107-4.487 0-8.129-3.629-8.129-8.107 0-4.479 3.639-8.108 8.129-8.108Zm0 13.003a4.901 4.901 0 0 0 4.909-4.895 4.901 4.901 0 0 0-4.909-4.896 4.901 4.901 0 0 0-4.908 4.896 4.9 4.9 0 0 0 4.908 4.895Z" fill="#DCE1EE" style="mix-blend-mode:multiply"/></g><defs><clipPath id="a"><path fill="#fff" d="M0 0h280v186H0z"/></clipPath></defs></svg>