<svg width="394" height="407" viewBox="0 0 394 407" fill="none" xmlns="http://www.w3.org/2000/svg">
<g clip-path="url(#clip0_2016_4947)">
<path d="M455.878 237.976C456.275 214.503 466.269 203.866 475.108 198.651C483.948 193.436 499.785 180.393 509.415 178.666C495.505 193.111 491.91 225.338 478.97 237.976C492.416 227.276 500.382 221.475 511.325 223.227C528.916 226.042 545.856 235.368 564.368 241.788C555.21 247.408 519.354 254.629 514.986 254.431C510.618 254.228 488.525 251.423 488.525 251.423C502.66 265.068 505.695 297.77 513.134 302.585C498.079 301.183 468.617 285.933 462.645 269.883C454.683 285.33 408.498 296.97 400.737 309.608C402.53 296.368 416.063 266.871 426.019 256.84C435.971 246.81 447.318 246.005 447.318 246.005C447.318 246.005 390.584 247.408 375.258 229.753C399.345 231.56 416.464 216.71 430.002 218.118C443.54 219.52 454.687 232.563 455.882 237.98L455.878 237.976Z" fill="#3A8585"/>
<path d="M297.466 200.049C266.913 231.353 217.017 205.829 215.989 199.443C212.829 179.803 218.597 171.155 214.773 161.529C210.94 151.903 206.409 142.247 207.458 126.758C208.303 114.141 213.648 98.874 221.589 86.8047C229.058 75.4432 238.818 66.9126 249.283 66.07C255.632 65.5519 262.244 67.8773 268.765 74.112C276.727 69.7182 295.798 84.6815 297.466 103.356C302.95 164.36 328.031 168.749 297.466 200.053V200.049Z" fill="#363537"/>
<path d="M303.033 138.182C302.34 137.086 300.597 138.101 301.295 139.205C306.741 147.807 312.362 156.814 314.536 166.916C316.859 177.721 313.9 190.865 301.98 194.075C300.73 194.412 301.261 196.371 302.515 196.03C312.346 193.384 317.466 183.767 317.395 173.955C317.298 160.854 309.783 148.835 303.033 138.177V138.182Z" fill="#363537"/>
<path d="M315.869 183.966C315.272 174.134 311.903 164.807 306.407 156.698C305.679 155.628 303.936 156.639 304.668 157.721C309.056 164.196 312.112 171.429 313.336 179.202C314.657 187.559 314.883 198.959 306.214 203.349C305.057 203.934 306.076 205.687 307.23 205.101C315.083 201.124 316.354 192.012 315.865 183.966H315.869Z" fill="#363537"/>
<path d="M227.595 178.257C219.578 178.822 215.244 168.526 212.285 162.397C209.029 155.665 206.559 148.402 205.706 140.933C204.937 134.185 205.593 127.398 207.871 120.991C210.3 114.158 213.748 105.93 219.219 101.018C220.189 100.146 218.759 98.7184 217.794 99.5862C211.98 104.806 208.486 113.185 205.928 120.456C203.194 128.228 202.785 136.455 204.21 144.548C205.71 153.087 209.096 161.247 213.338 168.758C216.51 174.373 220.322 180.806 227.595 180.292C228.878 180.204 228.89 178.173 227.595 178.262V178.257Z" fill="#363537"/>
<path d="M219.906 210.454C210.448 202.319 210.001 188.578 210.92 176.989C211.865 165.063 214.356 153.313 213.411 141.299C213.311 140.006 211.296 139.993 211.397 141.299C212.487 155.154 208.939 168.664 208.609 182.461C208.358 193.022 210.084 204.666 218.481 211.886C219.463 212.729 220.893 211.301 219.902 210.454H219.906Z" fill="#363537"/>
<path d="M291.123 190.873C291.123 190.873 314.542 202.449 318.922 205.259C323.302 208.069 329.141 217.08 332.459 237.41C343.657 306.026 354.766 301.746 353.47 319.38C355.681 324.612 357.499 328.172 358.745 329.975C359.69 331.344 360.567 340.919 358.348 347.761C357.232 351.202 361.002 363.579 361.399 366.077C361.796 368.575 349.349 395.027 340.697 395.027H272.399C272.399 395.027 212.392 399.29 213.7 392.36C215.009 385.43 205.939 371.044 203.406 359.253C192.397 348.987 174.567 341.989 174.228 319.249C174.019 305.221 173.756 288.657 180.021 240.97C183.557 214.047 191.511 207.029 195.105 205.525C196.368 204.998 225.424 190.873 225.424 190.873H291.127H291.123Z" fill="#9ED2EC"/>
<path d="M259.929 252.379C259.833 251.082 257.86 251.495 257.957 252.784C259.089 267.857 259.436 282.955 259.022 298.066C258.989 299.367 260.995 299.511 261.029 298.205C261.446 282.913 261.074 267.633 259.929 252.379Z" fill="#446C8F"/>
<path d="M234.914 188.606C227.738 208.001 248.13 246.855 257.676 252.74C280.656 232.409 282.503 197.545 281.496 187.806C280.91 187.705 276.146 183.484 276.108 179.41C256.861 176.141 243.524 178.142 238.638 179.267C237.873 183.222 234.914 188.61 234.914 188.61V188.606Z" fill="#F1BBA2"/>
<path d="M236.512 166.89C237.377 170.538 239.35 185.215 240.449 187.936C245.799 201.176 252.842 202.381 257.193 202.381C261.895 202.381 270.881 200.106 274.73 188.201C276.051 184.119 276.109 177.741 277.284 165.862C257.205 161.864 236.508 166.885 236.508 166.885L236.512 166.89Z" fill="#F1BBA2"/>
<path d="M276.879 171.402C266.258 189.862 250.798 203.418 238.64 179.263C238.527 178.593 237.281 171.031 237.281 171.031L276.9 170.197L276.879 171.402Z" fill="#CD9A82"/>
<path d="M287.281 126.623C298.687 124.782 297.588 143.178 285.789 152.05C285.789 152.05 285.789 130.073 287.281 126.623Z" fill="#F1BBA2"/>
<path d="M223.927 126.62C212.521 124.779 210.389 140.821 225.419 152.048C225.419 152.048 225.419 130.07 223.927 126.62Z" fill="#F1BBA2"/>
<path d="M291.175 113.768C291.175 99.0366 285.616 80.1934 256.61 80.1934C227.603 80.1934 221.982 98.8217 221.982 117.661C221.894 132.123 222.901 141.694 226.078 153.708C229.601 167.029 238.454 173.331 248.271 180.787C249.684 181.862 253.111 183.429 256.61 183.585C260.108 183.429 263.535 181.862 264.948 180.787C274.766 173.331 284.747 167.029 287.142 153.708C289.524 140.447 292.278 127.801 291.179 113.768H291.175Z" fill="#F1BBA2"/>
<path d="M272.398 135.543C272.398 133.302 273.815 131.486 275.562 131.486C277.309 131.486 278.726 133.302 278.726 135.543C278.726 137.784 277.309 139.6 275.562 139.6C273.815 139.6 272.398 137.784 272.398 135.543Z" fill="#363537"/>
<path d="M237.281 135.543C237.281 133.302 238.698 131.486 240.445 131.486C242.192 131.486 243.609 133.302 243.609 135.543C243.609 137.784 242.192 139.6 240.445 139.6C238.698 139.6 237.281 137.784 237.281 135.543Z" fill="#363537"/>
<path d="M258.575 157.423C257.923 157.423 257.296 157.048 257.004 156.408C256.602 155.532 256.983 154.5 257.852 154.095C259.587 153.291 259.465 151.412 258.538 147.498C258.354 146.727 258.182 145.994 258.061 145.295C257.902 144.347 258.533 143.446 259.474 143.285C260.414 143.121 261.309 143.762 261.467 144.709C261.568 145.299 261.727 145.973 261.898 146.689C262.696 150.051 263.9 155.127 259.298 157.263C259.064 157.373 258.818 157.423 258.575 157.423Z" fill="#CD9A82"/>
<path d="M270.534 120.892C267.132 121.238 263.68 125.707 266.756 125.556C279.788 124.928 284.26 127.713 284.578 127.06C285.418 125.337 279.441 119.982 270.534 120.892Z" fill="#363537"/>
<path d="M243.203 121.032C246.622 120.956 250.175 125.67 247.094 125.599C234.05 125.304 231.509 127.739 231.082 127.149C229.803 125.38 235.345 121.205 243.199 121.032H243.203Z" fill="#363537"/>
<path d="M242.609 159.455C253.426 162.151 261.225 161.861 271.787 159.455C271.787 159.455 267.804 170.197 257.514 170.197C247.224 170.197 242.609 159.455 242.609 159.455Z" fill="#5D1A1C"/>
<mask id="mask0_2016_4947" style="mask-type:luminance" maskUnits="userSpaceOnUse" x="242" y="159" width="30" height="12">
<path d="M242.609 159.457C253.426 162.153 261.225 161.862 271.787 159.457C271.787 159.457 267.804 170.199 257.514 170.199C247.224 170.199 242.609 159.457 242.609 159.457Z" fill="white"/>
</mask>
<g mask="url(#mask0_2016_4947)">
<path d="M257.764 178.883C264.576 178.883 270.098 175.373 270.098 171.043C270.098 166.713 264.576 163.203 257.764 163.203C250.952 163.203 245.43 166.713 245.43 171.043C245.43 175.373 250.952 178.883 257.764 178.883Z" fill="#ED4053"/>
<path d="M257.202 164.487C264.976 164.487 271.279 161.485 271.279 157.781C271.279 154.077 264.976 151.074 257.202 151.074C249.427 151.074 243.125 154.077 243.125 157.781C243.125 161.485 249.427 164.487 257.202 164.487Z" fill="white"/>
</g>
<path d="M289.865 138.251C290.558 110.549 272.808 111.29 269.314 90.5387C268.641 96.3016 262.66 100.834 255.153 105.308C250.443 108.118 245.13 110.898 240.157 113.948C229.641 120.398 220.621 128.035 221.971 139.599L216.467 158.729C216.467 158.729 207.439 105.485 221.971 91.0442C224.103 88.9252 226.218 87.0801 228.291 85.4666C236.391 79.2193 243.981 76.6706 250.664 76.0724C260.093 75.2425 267.713 78.2714 272.39 80.1924C281.225 83.8237 301.141 93.1547 289.86 138.251H289.865Z" fill="#363537"/>
<path opacity="0.26" d="M250.363 102.458C247.446 99.395 253.753 94.5757 254.074 91.4331C254.204 90.0555 253.924 88.8886 253.147 87.7512C251.859 85.885 249.331 85.6533 248.035 84.0778C245.761 81.31 249.335 80.7203 250.38 78.5002C250.923 77.3544 250.852 76.8657 250.672 76.0779C250.614 75.8041 250.543 75.5008 250.48 75.1132C250.359 74.4139 249.552 74.3128 249.314 73.7146C247.584 69.5273 248.035 70.7321 248.57 68.2972C248.729 67.5262 248.992 66.7975 249.272 66.0645C238.806 66.907 229.043 75.4376 221.578 86.7991C223.722 86.5169 226.631 85.1646 228.299 85.4721C229.457 85.6954 230.021 86.7107 229.327 89.4278C228.713 91.8333 227.104 95.5741 229.035 97.8363C229.728 98.6493 230.623 98.9021 231.643 99.0327C232.88 99.2054 235.818 97.8363 236.654 98.4134C238.384 99.6098 233.816 106.232 234.109 108.646C234.522 112.083 236.775 111.679 239.061 112.926C239.613 113.229 239.968 113.566 240.169 113.95C245.139 110.896 250.455 108.115 255.165 105.31C253.899 103.717 251.571 103.738 250.363 102.458Z" fill="#9ED2EC"/>
<path d="M276.326 176.539C280.271 178.966 289.283 187.538 292.668 194.026C299.598 207.308 279.256 270.207 275.557 269.192L257.188 252.072C262.282 246.09 280.004 215.67 277.91 185.398C275.348 183.587 275.937 180.297 276.326 176.539Z" fill="white"/>
<path d="M236.507 186.898C234.488 213.766 250.905 243.137 257.191 252.072C250.178 259.027 237.284 269.204 237.284 269.204C225.142 245.365 221.707 225.486 220.683 210.851C219.847 198.921 224.942 187.353 234.333 180.039C236.632 178.249 238.262 176.973 238.262 176.973C239.407 183.582 238.642 185.798 236.511 186.898H236.507Z" fill="white"/>
<path d="M322.307 233.763C320.042 240.886 315.925 246.241 311.336 252.117C310.541 253.133 311.958 254.578 312.757 253.554C317.563 247.399 321.17 240.608 323.54 233.152C323.937 231.905 322.7 232.524 322.307 233.767V233.763Z" fill="#446C8F"/>
<path d="M193.201 216.509C192.816 215.266 192.344 216.859 192.728 218.11C195.963 228.595 198.287 239.464 197.769 250.556C197.217 262.275 194.145 274.285 192.235 285.853C192.022 287.13 193.965 287.677 194.174 286.393C196.118 274.627 199.223 262.482 199.779 250.556C200.31 239.253 196.49 227.171 193.201 216.509Z" fill="#446C8F"/>
<path d="M316.382 322.317C316.754 315.716 313.005 310.252 315.538 304.329C317.707 299.253 319.028 293.928 319.479 288.418C320.47 276.37 316.541 266.049 313.419 254.683C309.632 240.908 314.326 230.069 317.398 216.913C317.694 215.645 316.992 214.444 316.695 215.716C314.192 226.437 308.767 236.944 310.054 248.225C310.769 254.51 313.239 260.362 315.007 266.386C316.929 272.945 317.912 279.774 317.586 286.619C317.247 293.726 315.299 300.138 312.324 306.532C310.806 309.789 316.319 313.007 315.358 316.428C314.514 320.54 314.133 323.05 314.702 326.067C315.044 327.886 315.822 329.424 316.34 331.168C317.26 334.248 319.011 334.783 316.808 340.432C316.148 342.121 316.399 343.326 317.51 344.872C319.115 347.105 320.511 346.502 320.478 350.521C320.47 351.444 320.202 352.497 319.851 353.571L322.518 351.827C322.835 350.542 322.977 349.295 322.739 348.2C322.275 346.081 320.269 345.516 319.249 343.84C317.807 341.481 319.818 339.32 320.127 337.171C320.311 335.874 319.993 334.825 319.655 333.578C319.053 331.366 317.619 329.437 317.021 327.191C316.583 325.548 316.386 323.927 316.378 322.305L316.39 322.317H316.382Z" fill="#446C8F"/>
<path d="M348.558 345.115C343.258 344.706 337.804 344.285 332.592 345.62C328.086 346.774 324.204 349.34 320.383 351.905C315.188 355.393 310.093 358.245 303.765 358.957C298.01 359.606 292.175 358.877 286.458 358.182C285.175 358.026 285.187 360.057 286.458 360.213C296.585 361.443 306.854 362.281 316.066 357.066C320.409 354.606 324.266 351.294 328.797 349.159C335.045 346.214 341.871 346.627 348.562 347.145C349.854 347.246 349.85 345.216 348.562 345.115H348.558Z" fill="#446C8F"/>
<path d="M342.648 315.071C332.575 324.103 325.077 334.104 320.609 346.923C320.178 348.158 322.122 348.688 322.548 347.463C326.903 334.968 334.205 324.053 344.023 315.253C344.992 314.385 343.613 314.208 342.648 315.071Z" fill="#446C8F"/>
<path d="M198.544 259.872C196.668 253.448 194.298 247.226 191.443 241.185C190.887 240.005 191.364 242.723 191.916 243.898C194.699 249.787 194.774 254.156 196.601 260.416C196.965 261.667 198.908 261.132 198.54 259.877L198.544 259.872Z" fill="#446C8F"/>
<path d="M256.771 216.697C247.258 216.697 240.5 206.026 236.116 184.095C235.953 183.27 236.479 182.469 237.298 182.305C238.113 182.141 238.912 182.671 239.075 183.497C243.125 203.73 249.173 213.887 257.051 213.656C266.618 213.386 272.524 203.731 275.638 183.278C275.763 182.448 276.532 181.879 277.36 182.006C278.183 182.132 278.747 182.912 278.622 183.741C276.499 197.69 271.96 216.28 257.139 216.701C257.018 216.701 256.896 216.705 256.775 216.705L256.771 216.697Z" fill="#F6BB5A"/>
<path d="M242.171 169.148C237.591 169.557 232.592 169.692 228.588 167.038C223.869 163.908 223.882 158.928 224.446 153.819C224.688 151.641 221.303 151.657 221.064 153.819C220.433 159.527 220.692 164.948 225.361 168.87C230.071 172.826 236.341 173.079 242.167 172.556C244.316 172.363 244.336 168.955 242.167 169.148H242.171Z" fill="#9ED2EC"/>
<path d="M292.908 123.127H290.693C289.098 123.127 287.805 124.43 287.805 126.038V152.493C287.805 154.101 289.098 155.404 290.693 155.404H292.908C294.503 155.404 295.796 154.101 295.796 152.493V126.038C295.796 124.43 294.503 123.127 292.908 123.127Z" fill="#2E282F"/>
<path d="M223.088 123.127H220.872C219.277 123.127 217.984 124.43 217.984 126.038V152.493C217.984 154.101 219.277 155.404 220.872 155.404H223.088C224.683 155.404 225.976 154.101 225.976 152.493V126.038C225.976 124.43 224.683 123.127 223.088 123.127Z" fill="#2E282F"/>
<path d="M293.641 116.186H291.125V123.145H293.641V116.186Z" fill="#2E282F"/>
<path d="M223.235 116.186H220.719V123.145H223.235V116.186Z" fill="#2E282F"/>
<path d="M292.385 118.722C290.997 118.722 289.869 117.585 289.869 116.186C289.869 94.8282 278.843 84.0017 257.097 84.0017C241.348 84.0017 224.517 92.4565 224.517 116.186C224.517 117.585 223.392 118.722 222.001 118.722C220.609 118.722 219.484 117.585 219.484 116.186C219.484 88.6862 239.743 78.9297 257.092 78.9297C281.823 78.9297 294.897 91.812 294.897 116.186C294.897 117.585 293.772 118.722 292.381 118.722H292.385Z" fill="#446C8F"/>
<path d="M126.976 241.467C126.579 232.048 141.705 226.984 141.705 226.984L144.66 247.294C144.66 247.294 134.939 255.302 126.976 241.467Z" fill="#446C8F"/>
<path d="M158.004 229.894C157.352 225.307 154.296 211.734 153.44 207.664C152.248 202.011 141.879 194.984 135.087 191.563C130.498 189.251 118.686 178.424 116.617 176.958C114.39 175.374 108.576 178.454 111.464 182.612C114.352 186.769 119.28 190.54 121.829 192.937C124.379 195.334 126.418 200.646 126.418 200.646C126.418 200.646 111.974 203.515 109.591 203.367C107.213 203.216 97.5249 198.59 95.6567 197.908C93.7884 197.221 84.7019 193.11 82.19 194.137C79.678 195.165 78.7 198.249 81.0615 200.305C83.4188 202.361 93.4456 207.155 93.4456 207.155C93.4456 207.155 79.678 206.299 77.9811 208.182C76.28 210.065 76.1128 213.663 79.6822 214.864C82.5703 218.461 94.2983 219.662 94.2983 219.662C94.2983 219.662 103.477 228.053 107.385 227.54C111.293 227.026 120.3 224.97 121.319 224.629C122.339 224.287 137.804 226.17 138.146 227.198C138.485 228.226 141.035 246.897 141.035 246.897C141.035 246.897 158.489 245.275 158.004 229.899V229.894Z" fill="#F1BBA2"/>
<path d="M147.154 214.63C142.907 211.003 139.994 207.115 134.038 208.635C130.582 209.516 127.719 211.706 124.751 213.581C121.002 215.949 117.032 217.789 112.718 218.843C109.546 219.618 107.08 220.321 104.146 218.122C102.871 217.166 101.956 215.784 100.627 214.87C99.1136 213.83 97.1408 212.979 95.2725 213.53C91.8369 214.546 91.4649 218.674 93.818 220.953C94.6163 221.724 95.6069 221 94.8086 220.229C93.1117 217.528 94.4575 214.95 96.7772 214.95C98.4198 214.95 99.0551 215.835 100.773 217.259C101.542 217.895 102.169 218.699 102.925 219.352C103.845 220.149 104.815 220.974 106.018 221.299C109.646 222.276 114.825 220.229 118.118 218.944C122.503 217.229 126.076 214.432 130.155 212.182C133.294 210.451 136.742 209.208 140.249 210.594C142.644 211.542 144.68 213.691 146.627 215.355C147.467 216.071 147.99 215.355 147.145 214.634L147.154 214.63Z" fill="#CD9A82"/>
<path d="M126.423 200.641L133.052 198.927C133.39 198.072 125.453 198.43 125.453 198.43L126.423 200.637V200.641Z" fill="#CD9A82"/>
<path d="M215.854 390.513C207.566 370.95 157.482 226.447 157.482 226.447C158.297 230.866 141.921 244.903 127.062 241.482C128.596 245.08 132.83 278.356 140.726 301.171C146.339 317.394 146.401 333.289 149.147 349.448C153.996 377.997 174.451 387.543 203.035 389.595L215.858 390.517L215.854 390.513Z" fill="#9ED2EC"/>
<path d="M362.408 375.14C360.778 375.14 359.461 373.809 359.461 372.17V343.638C359.461 341.995 360.782 340.668 362.408 340.668C377.993 340.668 379.995 348.436 379.995 355.206C379.995 366.947 372.765 375.144 362.408 375.144V375.14ZM365.354 346.684V368.855C371.369 367.359 374.098 361.259 374.098 355.206C374.098 348.815 371.373 347.042 365.354 346.688V346.684Z" fill="#B52F41"/>
<path d="M365.608 332.348H328.543C327.022 332.348 325.789 333.591 325.789 335.124V383.258C325.789 384.791 327.022 386.034 328.543 386.034H365.608C367.129 386.034 368.362 384.791 368.362 383.258V335.124C368.362 333.591 367.129 332.348 365.608 332.348Z" fill="#E2606E"/>
<path d="M325.789 383.254C325.789 384.784 327.03 386.035 328.548 386.035H365.608C367.125 386.035 368.367 384.784 368.367 383.254V361.361L325.793 382.644V383.254H325.789Z" fill="#C8606B"/>
<path d="M344.1 267.172H159.283C155.63 267.172 153.933 270.934 152.094 273.735L161.97 363.065C161.222 369.982 164.21 372.488 167.466 372.488H335.678C338.938 372.488 341.923 369.982 342.353 366.864L351.201 274.611C349.676 270.344 347.749 267.176 344.1 267.176V267.172Z" fill="white"/>
<path d="M345.82 270.061H157.332C153.679 270.061 151.163 273.426 151.707 277.538L160.793 371.779C161.219 374.897 164.208 377.403 167.468 377.403H335.68C338.94 377.403 341.924 374.897 342.355 371.779L351.441 277.538C351.985 273.426 349.468 270.061 345.815 270.061H345.82Z" fill="#2E282F"/>
<path d="M337.845 377.404H165.295C163.234 377.404 161.562 379.089 161.562 381.166V381.503C161.562 383.581 163.234 385.265 165.295 385.265H337.845C339.907 385.265 341.578 383.581 341.578 381.503V381.166C341.578 379.089 339.907 377.404 337.845 377.404Z" fill="#363537"/>
<path d="M243.86 328.841C243.814 325.126 247.362 322.08 251.793 322.08C256.223 322.08 259.776 325.126 259.726 328.841C259.68 332.511 256.127 335.455 251.793 335.455C247.458 335.455 243.906 332.511 243.86 328.841Z" fill="#FCF7ED"/>
<path opacity="0.49" d="M262.665 172.443C259.017 172.987 255.898 172.913 252.325 172.033C250.993 171.708 250.428 173.867 251.76 174.193C255.735 175.17 259.189 175.203 263.229 174.598C264.579 174.398 264.006 172.238 262.665 172.438V172.443Z" fill="#CD9A82"/>
<path d="M276.692 84.5884C274.982 83.7236 272.34 83.1034 270.427 83.4662C270.123 83.5253 267.997 84.4829 268.388 84.4998C268.052 84.4829 267.373 83.694 267.053 83.559C262.935 81.8209 260.497 80.7536 255.759 81.0489C245.97 81.6606 239.606 85.5376 232.188 91.6252C228.956 94.2787 226.348 97.8519 224.189 101.543C221.343 106.416 221.535 114.938 223.265 121.211C223.96 123.729 227.479 119.641 227.675 117.043C227.987 112.913 226.344 108.85 227.367 104.699C228.349 100.729 231.406 97.544 234.431 95.0381C240.404 90.0938 245.546 86.162 253.517 85.276C256.907 84.9006 260.497 84.5757 263.609 86.2379C265.485 87.2377 266.146 88.1321 268.318 88.0941C271.005 88.0435 272.673 87.2166 275.157 88.6763C277.208 89.8828 279.146 91.6547 280.473 93.6333C282.794 97.0968 284.059 103.294 282.632 107.433C281.779 109.905 288.223 116.136 289.072 113.68C292.017 105.15 287.969 90.2836 276.692 84.5842V84.5884Z" fill="#363537"/>
<path d="M49.0023 390.507C49.0023 395.202 51.0198 399 53.5087 399H664.489C665.737 399 666.861 398.054 667.679 396.511C668.493 394.977 669 392.85 669 390.507C669 385.811 666.978 382 664.487 382H53.5064C52.2584 382 51.1347 382.946 50.3207 384.489C49.6474 385.758 49.1853 387.429 49.0446 389.291C49.0164 389.684 49 390.091 49 390.507H49.0023Z" fill="#DCBFA3"/>
<path d="M56 399H662C662 403.42 660.119 407 657.798 407H60.2022C57.8807 407 56 403.42 56 399Z" fill="#BDA084"/>
</g>
<defs>
<clipPath id="clip0_2016_4947">
<path d="M0 0H374C385.046 0 394 8.95431 394 20V387C394 398.046 385.046 407 374 407H0V0Z" fill="white"/>
</clipPath>
</defs>
</svg>
