<svg width="888" height="150" fill="none" xmlns="http://www.w3.org/2000/svg"><g clip-path="url(#a)"><path d="m377.31 62.644 32.964-19.26v-1.956l-46.31-25.093L331 33.64v1.955l46.31 27.049Z" fill="#BBB9F8"/><path d="m377.31 60.689 32.964-19.26-46.31-27.033L331 33.642l46.31 27.048Z" fill="#CECCFA"/><path d="m377.31 57.57 31.081-18.145V34.95l-43.644-21.006-31.081 13.67v4.476l43.644 25.48Z" fill="#E8E6FF"/><path d="m377.31 53.094 31.081-18.145-43.644-25.481-31.081 18.145 43.644 25.481Z" fill="#F4F7FF"/><path d="m364.094 15.738 1.533-.905c.638-.372.558-1.034-.176-1.47-.75-.437-1.884-.485-2.522-.114l-1.533.905c-.638.372-.558 1.034.176 1.47.75.437 1.884.485 2.522.114ZM357.672 19.47l1.533-.905c.638-.371.558-1.034-.176-1.47-.75-.436-1.884-.485-2.522-.113l-1.533.905c-.638.371-.558 1.034.176 1.47.734.453 1.884.501 2.522.113ZM351.256 23.22l1.533-.906c.638-.371.558-1.034-.176-1.47-.75-.436-1.884-.485-2.522-.113l-1.533.905c-.638.371-.558 1.034.176 1.47.734.436 1.868.485 2.522.113ZM344.84 26.953l1.533-.905c.638-.372.558-1.034-.176-1.47-.75-.437-1.884-.485-2.522-.114l-1.533.905c-.638.372-.558 1.034.176 1.47.734.437 1.868.485 2.522.114Z" fill="#A4A2E5"/><path d="M354.448 15.495c-.096-.226-.287-.759-.351-.985-.463-1.406-.351-2.747.319-3.684.559-.792 1.501-1.228 2.618-1.228 2.602 0 5.476 2.278 6.386 5.09.048.161.223.242.383.194a.298.298 0 0 0 .191-.372c-.989-3.038-4.118-5.51-6.96-5.51-1.309 0-2.41.517-3.097 1.47-.766 1.083-.925 2.618-.399 4.218.08.258.32.84.431 1.082l.479-.274Z" fill="#BBB9F8"/><path d="M348.032 19.229c-.096-.226-.287-.76-.351-.986-.463-1.405-.351-2.747.319-3.684.559-.791 1.501-1.228 2.618-1.228 2.602 0 5.476 2.279 6.386 5.09.048.162.223.242.383.194a.298.298 0 0 0 .191-.372c-.989-3.037-4.118-5.51-6.96-5.51-1.309 0-2.41.517-3.097 1.47-.766 1.083-.925 2.618-.399 4.218.08.259.32.84.431 1.083l.479-.275Z" fill="#BBB9F8"/><path d="M341.618 22.977c-.096-.226-.287-.76-.351-.986-.463-1.405-.351-2.747.319-3.684.559-.791 1.501-1.228 2.618-1.228 2.602 0 5.476 2.279 6.386 5.09.047.162.223.242.383.194a.298.298 0 0 0 .191-.372c-.989-3.037-4.118-5.51-6.96-5.51-1.309 0-2.41.517-3.097 1.47-.766 1.083-.926 2.618-.399 4.218a13 13 0 0 0 .431 1.083l.479-.275Z" fill="#BBB9F8"/><path d="M335.202 26.71c-.096-.227-.287-.76-.351-.986-.463-1.406-.351-2.747.319-3.684.559-.792 1.501-1.228 2.618-1.228 2.602 0 5.476 2.278 6.386 5.09.047.161.223.242.383.193a.298.298 0 0 0 .191-.371c-.989-3.038-4.118-5.51-6.96-5.51-1.309 0-2.41.517-3.097 1.47-.766 1.083-.926 2.618-.399 4.217a13 13 0 0 0 .431 1.083l.479-.275Z" fill="#BBB9F8"/><path d="m372.377 14.493-29.66 17.386M378.857 18.534l-29.66 17.37M385.181 22.589l-29.66 17.386M391.791 26.419l-29.66 17.386M398.412 30.425l-29.66 17.37" stroke="#CECCFA" stroke-width="1.517" stroke-miterlimit="10" stroke-linecap="round" stroke-linejoin="round"/><path d="M822.37 16.758c1.029 11.53-2.562 18.68-6.414 22.963a23.25 23.25 0 0 1-5.587 4.553c-.778.452-1.432.766-1.888.965-.09.04-.174.071-.249.102-3.028-8.596.516-15.75 4.943-20.839 2.253-2.59 4.722-4.627 6.63-6.019a40.436 40.436 0 0 1 2.336-1.585l.229-.14Z" fill="#BBB9F8" stroke="#BBB9F8"/><path opacity=".34" d="M812.074 104.882c9.315 0 16.867-2.438 16.867-5.445s-7.552-5.445-16.867-5.445c-9.315 0-16.867 2.438-16.867 5.445s7.552 5.445 16.867 5.445Z" fill="#9998C8"/><path d="m828.485 77.137-42.192-1.246 6.812 21.13c.251 1.96 1.659 3.868 4.223 5.369 5.668 3.307 14.843 3.333 20.474.038 2.363-1.374 3.733-3.13 4.097-4.923l6.586-20.368Z" fill="#fff"/><path d="M828.485 77.137c-5.857 11.818-11.701 23.649-21.102 27.746 3.77.038 7.553-.776 10.419-2.456 2.363-1.374 3.733-3.13 4.097-4.923l6.586-20.367Z" fill="#E5E4FF"/><path d="M828.934 74.664c.037-6.9-9.511-12.545-21.325-12.61-11.814-.065-21.421 5.476-21.458 12.375-.037 6.9 9.51 12.545 21.324 12.61 11.815.065 21.422-5.476 21.459-12.375Z" fill="#F9F9FF"/><path d="M825.755 74.246c.032-5.922-8.164-10.769-18.305-10.824-10.141-.056-18.388 4.7-18.42 10.623-.032 5.923 8.164 10.77 18.305 10.825 10.141.056 18.388-4.7 18.42-10.624Z" fill="#BBB9F8"/><path d="M807.734 25.499v51.726" stroke="#D7D6FB" stroke-width="8" stroke-miterlimit="10" stroke-linecap="round" stroke-linejoin="round"/><path d="M807.535 62.914S808.327 44.38 785 38.21c0 0 3.381 24.756 22.535 24.705Z" fill="#D7D6FB"/><path d="M808.178 56.147s18.161-2.596 19.896-26.932c0 .013-23.453 7.9-19.896 26.932Z" fill="#CDCCFF"/><path d="M807.913 41.974S816.045 24.431 795.998 9c0 .013-6.585 25.252 11.915 32.974Z" fill="#D7D6FB"/><path d="m807.961 40.918-11.525-30.85" stroke="#BBB9F8" stroke-miterlimit="10" stroke-linecap="round" stroke-linejoin="round"/><path opacity=".34" d="m571.503 135.511 110.106-64.297c1.276-.746 3.515-.646 4.99.215l64.473 37.58c1.474.861 1.63 2.166.354 2.913l-101.458 62.733a15.762 15.762 0 0 1-11.71 1.994 5.372 5.372 0 0 1-1.928-.645l-64.473-37.58c-1.46-.847-1.63-2.167-.354-2.913Z" fill="#9998C8"/><path d="m560.714 127.835 2.722 1.736 1.134-3.903h-4.154l.298 2.167Z" fill="#BBB9F8"/><path d="m564.4 127.864 108.263-63.221c2.396-1.392 3.572-5.252 2.637-8.552l-19.124-67.11c-.936-3.3-3.672-4.864-6.067-3.472l-108.547 63.78c-2.396 1.392-3.105 3.947-2.155 7.261l18.94 67.842c.935 3.314 3.657 4.878 6.053 3.472Z" fill="#BBB9F8"/><path d="m567.192 129.658 108.263-63.221c2.396-1.392 3.573-5.252 2.637-8.552l-19.124-67.11c-.935-3.3-3.671-4.864-6.067-3.472L543.603 51.24c-2.396 1.392-2.878 3.258-1.928 6.572l19.45 68.372c.949 3.315 3.671 4.879 6.067 3.473Z" fill="#EEF"/><path d="M672.123 36.921 658.982-9.225c-.936-3.3-3.672-4.864-6.067-3.472L583.168 28.11l88.955 8.81Z" fill="#fff" fill-opacity=".62"/><path d="M565.348 133.116v-3.573l15.891 9.355.907-2.109 105.811-61.786c1.276-.746 3.813-.646 5.273.215l45.846 26.603v-.746l6.961 3.415.978-.402-.128 3.243c-.113.703-.383 1.004-.808 1.248l-110.12 64.47c-1.276.746-3.516.731-4.99-.129l-63.92-36.949c-1.716-.889-1.701-2.855-1.701-2.855Z" fill="#BBB9F8"/><path d="M565.348 133.116v-3.573l15.891 9.355.907-2.109 51.899-30.305 1.914 66.579c-.638.373-1.517.56-2.424.545-.907-.014-1.829-.229-2.566-.66l-63.92-36.977c-1.716-.889-1.701-2.855-1.701-2.855Z" fill="#BBB9F8"/><path d="m566.202 129.357 110.106-64.298c1.276-.746 3.516-.645 4.99.216l64.473 37.579c1.474.861 1.63 2.167.354 2.913l-110.106 64.298c-1.275.746-3.515.645-4.99-.216l-64.473-37.579c-1.46-.861-1.63-2.181-.354-2.913Z" fill="#D0CFF8"/><path d="M681.399 83.166c.156.1.482.058.723-.086l6.691-3.903c.241-.143.312-.33.142-.43l-4.423-2.583c-.156-.1-.482-.057-.723.086l-6.691 3.903c-.241.144-.312.33-.142.43l4.423 2.583ZM673.645 94.805c.156.1.482.057.723-.087l6.691-3.902c.241-.144.312-.33.142-.43l-4.423-2.584c-.156-.086-.482-.057-.723.086l-6.691 3.903c-.241.144-.312.33-.156.43l4.437 2.584ZM677.569 99.654c.156.1.482.058.723-.086l6.691-3.903c.241-.143.312-.33.142-.43l-4.437-2.583c-.156-.086-.482-.058-.723.086l-6.691 3.903c-.241.143-.312.33-.156.416l4.451 2.597ZM688.172 100.587c.156.086.482.058.723-.086l6.691-3.903c.241-.143.298-.33.142-.416l-4.423-2.583c-.156-.086-.482-.057-.723.086l-6.691 3.903c-.241.144-.298.33-.142.43l4.423 2.569ZM706.573 97.861c.156.1.482.058.723-.086l6.691-3.903c.241-.143.312-.33.142-.43l-5.203-3.042c-.156-.086-.482-.057-.723.086l-6.691 3.903c-.241.144-.298.33-.142.43l5.203 3.042ZM695.035 104.592c.156.1.538.014.865-.173l8.76-5.108c.312-.186.44-.416.284-.502l-5.203-3.042c-.156-.086-.553-.014-.864.158l-8.761 5.108c-.312.187-.44.416-.284.502l5.203 3.057ZM637.505 138.223c.127.072.439.029.68-.115l6.677-3.903c.241-.143.34-.315.198-.401l-1.927-1.12c-.128-.071-.44-.028-.681.115l-6.677 3.903c-.241.144-.326.316-.198.402l1.928 1.119ZM628.575 143.577c.127.071.439.028.68-.115l6.677-3.903c.241-.144.341-.316.199-.402l-1.928-1.119c-.128-.072-.44-.029-.681.115l-6.677 3.903c-.241.143-.326.315-.198.401l1.928 1.12ZM619.106 148.972c.128.071.425.014.666-.115l6.677-3.903c.241-.144.34-.316.213-.388l-1.857-1.076c-.128-.072-.426-.014-.667.115l-6.676 3.903c-.241.143-.327.316-.213.387l1.857 1.077ZM624.918 141.509c.128.071.426.014.667-.115l6.677-3.903c.241-.144.34-.316.212-.387l-1.857-1.077c-.127-.071-.425-.014-.666.115l-6.677 3.903c-.241.144-.326.316-.213.387l1.857 1.077ZM649.059 131.424c.156.1.482.057.723-.086l43.507-25.384c.241-.143.312-.33.142-.43l-5.203-3.042c-.156-.086-.496-.057-.723.086l-43.506 25.383c-.241.144-.312.33-.156.431l5.216 3.042Z" fill="#E4E3F8"/><path d="M696.238 102.91c.014 0 .042 0 .071-.014l5.103-2.985c.028-.014.043-.029.028-.043l-.326-.186c-.014 0-.042 0-.07.014l-5.104 2.985c-.028.014-.042.028-.028.043l.326.186ZM709.337 94.703h.042l2.169-1.263c.014 0 .014-.014 0-.029l-.326-.186h-.042l-2.169 1.262c-.015 0-.015.015 0 .029l.326.187ZM679.003 105.924c.156.086.482.057.723-.086l6.691-3.903c.241-.144.312-.33.142-.431l-4.423-2.583c-.156-.086-.497-.057-.723.087l-6.691 3.902c-.241.144-.312.33-.142.431l4.423 2.583ZM669.799 111.291c.156.086.482.057.723-.086l6.677-3.903c.241-.144.312-.33.156-.431l-4.423-2.582c-.156-.086-.497-.058-.723.086l-6.677 3.903c-.241.143-.298.33-.142.43l4.409 2.583ZM660.598 116.673c.156.086.482.057.723-.086l6.691-3.903c.241-.143.298-.33.142-.416l-4.423-2.583c-.156-.086-.482-.057-.723.086l-6.691 3.903c-.241.144-.298.33-.142.431l4.423 2.568ZM651.387 122.039c.156.086.482.057.723-.086l6.691-3.903c.241-.144.312-.33.142-.43l-4.423-2.583c-.156-.086-.482-.058-.723.086l-6.691 3.903c-.241.143-.298.33-.142.43l4.423 2.583ZM642.186 127.419c.156.086.482.058.723-.086l6.677-3.903c.241-.143.298-.33.142-.416l-4.423-2.583c-.156-.086-.482-.057-.723.086l-6.677 3.903c-.241.144-.312.33-.156.431l4.437 2.568ZM632.987 132.787c.156.086.482.057.723-.086l6.677-3.903c.241-.143.312-.33.142-.43l-4.423-2.583c-.156-.086-.482-.058-.723.086l-6.677 3.903c-.241.143-.312.33-.142.43l4.423 2.583ZM612.245 144.882c.156.086.482.057.723-.086l18.216-10.633c.241-.143.312-.33.142-.43l-4.423-2.583c-.156-.086-.482-.057-.723.086l-18.216 10.633c-.241.143-.312.33-.142.43l4.423 2.583ZM668.397 104.991c.156.101.482.058.723-.086l6.691-3.903c.241-.143.312-.33.142-.416l-4.437-2.582c-.156-.087-.482-.058-.723.086l-6.691 3.902c-.241.144-.298.331-.142.417l4.437 2.582ZM659.192 110.359c.156.1.482.057.723-.086l6.691-3.903c.241-.144.312-.33.142-.417l-4.437-2.582c-.156-.086-.482-.058-.723.086l-6.691 3.903c-.241.143-.298.33-.142.416l4.437 2.583ZM649.995 115.738c.156.101.482.058.723-.086l6.691-3.903c.241-.143.312-.33.156-.43l-4.437-2.583c-.156-.086-.497-.057-.723.086l-6.692 3.903c-.241.143-.311.33-.156.416l4.438 2.597ZM640.781 121.105c.156.101.482.058.723-.086l6.677-3.903c.241-.143.311-.33.141-.43l-4.437-2.583c-.156-.086-.482-.057-.723.086l-6.677 3.903c-.241.144-.312.33-.142.416l4.438 2.597ZM631.579 126.472c.156.1.482.057.723-.086l6.692-3.903c.241-.144.311-.33.141-.416l-4.437-2.583c-.156-.086-.482-.057-.723.086l-6.691 3.903c-.241.143-.312.33-.142.416l4.437 2.583ZM622.379 131.853c.156.101.482.058.723-.086l6.677-3.903c.241-.143.312-.33.156-.43l-4.437-2.583c-.156-.086-.482-.057-.723.086l-6.677 3.903c-.241.144-.298.33-.142.416l4.423 2.597ZM613.167 137.22c.156.1.482.057.723-.086l6.691-3.903c.241-.144.312-.33.142-.416l-4.437-2.583c-.156-.086-.482-.057-.723.086l-6.691 3.903c-.241.144-.298.33-.142.416l4.437 2.583ZM664.483 100.157c.156.101.482.058.723-.086l6.691-3.903c.241-.143.298-.33.142-.416l-4.423-2.582c-.156-.087-.482-.058-.723.086l-6.691 3.903c-.241.143-.312.33-.156.416l4.437 2.582ZM655.286 105.523c.155.101.482.058.723-.086l6.691-3.903c.241-.143.312-.33.141-.43l-4.423-2.583c-.155-.086-.482-.057-.723.086l-6.691 3.903c-.241.144-.297.33-.141.416l4.423 2.597ZM646.069 110.904c.156.101.482.058.723-.086l6.677-3.903c.241-.143.297-.33.142-.43l-4.423-2.583c-.156-.086-.482-.057-.723.086l-6.677 3.903c-.241.143-.312.33-.156.43l4.437 2.583ZM636.872 116.271c.155.101.481.058.722-.086l6.692-3.903c.241-.143.311-.33.141-.43l-4.423-2.583c-.156-.086-.482-.057-.723.086l-6.691 3.903c-.241.144-.297.33-.141.416l4.423 2.597ZM627.67 121.637c.156.1.482.057.723-.086l6.691-3.903c.241-.144.312-.33.142-.431l-4.423-2.583c-.156-.086-.482-.057-.723.086l-6.691 3.903c-.241.144-.298.33-.142.416l4.423 2.598ZM618.455 127.017c.156.101.482.058.737-.086l6.691-3.903c.241-.143.312-.33.142-.43l-4.423-2.583c-.156-.086-.482-.057-.723.086l-6.691 3.903c-.241.144-.312.33-.156.431l4.423 2.582ZM609.254 132.385c.156.1.482.057.723-.086l6.691-3.903c.241-.144.312-.33.142-.431l-4.423-2.583c-.156-.086-.482-.057-.723.087l-6.691 3.902c-.241.144-.298.33-.142.417l4.423 2.597ZM682.84 89.438c.156.1.482.058.723-.086l11.341-6.615c.241-.143.312-.33.142-.43l-4.423-2.583c-.156-.086-.482-.057-.723.086l-11.341 6.615c-.241.144-.312.33-.156.43l4.437 2.583ZM593.944 134.193c.156.1.482.057.723-.086l11.341-6.615c.241-.144.312-.33.142-.431l-4.423-2.582c-.156-.101-.496-.058-.723.086l-11.341 6.614c-.241.144-.312.331-.142.431l4.423 2.583ZM686.771 94.274c.155.1.481.057.722-.086l13.51-7.892c.241-.143.312-.33.142-.43l-4.437-2.583c-.156-.086-.482-.058-.723.086l-13.51 7.892c-.241.143-.312.33-.156.416l4.452 2.597ZM697.374 95.206c.156.086.482.057.723-.086l9.016-5.252c.241-.143.312-.33.142-.43l-4.423-2.583c-.156-.086-.482-.057-.723.086l-9.016 5.252c-.241.143-.312.33-.142.43l4.423 2.583ZM672.196 88.534c.156.1.482.057.723-.087l6.677-3.902c.241-.144.312-.33.142-.43l-4.423-2.584c-.156-.1-.482-.057-.723.086l-6.677 3.903c-.241.144-.312.33-.142.43l4.423 2.584ZM663.024 93.871c.156.1.482.058.723-.086l6.691-3.903c.241-.143.312-.33.142-.43l-4.423-2.583c-.156-.1-.482-.057-.723.086l-6.691 3.903c-.241.144-.312.33-.142.43l4.423 2.583ZM653.825 99.254c.156.1.482.058.723-.086l6.691-3.903c.241-.143.312-.33.141-.43l-4.422-2.583c-.156-.1-.482-.057-.723.086l-6.692 3.903c-.241.144-.297.33-.141.416l4.423 2.597ZM644.622 104.618c.156.1.482.057.723-.087l6.677-3.902c.241-.144.312-.33.142-.431l-4.423-2.583c-.156-.1-.482-.057-.723.086l-6.677 3.903c-.241.144-.312.33-.142.431l4.423 2.583ZM635.424 109.985c.156.1.482.057.723-.086l6.677-3.903c.241-.144.312-.33.142-.431l-4.423-2.583c-.156-.1-.482-.057-.723.087l-6.677 3.902c-.241.144-.298.33-.142.417l4.423 2.597ZM626.21 115.367c.156.1.482.057.723-.086l6.691-3.903c.241-.144.298-.33.142-.416l-4.423-2.583c-.156-.1-.482-.057-.723.086l-6.691 3.903c-.241.143-.312.33-.142.416l4.423 2.583ZM617.009 120.735c.156.1.482.057.723-.086l6.691-3.903c.241-.144.312-.33.141-.431l-4.422-2.583c-.156-.1-.482-.057-.723.087l-6.692 3.902c-.241.144-.311.33-.141.431l4.423 2.583ZM607.807 126.099c.156.101.482.058.723-.086l6.691-3.903c.241-.143.298-.33.142-.416l-4.423-2.583c-.156-.1-.482-.057-.723.086l-6.691 3.903c-.241.144-.298.33-.142.416l4.423 2.583ZM602.449 130.847a.884.884 0 0 1 .397-.129c.142-.014.255 0 .326.043l4.423 2.583c.071.043.113.115.085.201-.029.086-.114.158-.227.23l-1.744 1.018 5.813 3.401c.07.043.099.115.07.201-.028.086-.113.158-.226.23l-4.508 2.625a.926.926 0 0 1-.397.129.616.616 0 0 1-.341-.043l-10.532-6.155c-.071-.043-.1-.115-.071-.201.028-.086.113-.158.227-.23l6.705-3.903Z" fill="#E4E3F8"/><path d="M698.56 93.025c.014 0 .043 0 .071-.014l5.103-2.984c.029-.015.043-.03.029-.044l-.326-.186c-.014 0-.043 0-.071.014l-5.104 2.985c-.028.014-.042.028-.028.043l.326.186ZM672.467 137.248l25.857-15.095c1.389-.818 1.304-2.095-.199-2.855l-8.647-4.348c-1.503-.761-3.87-.703-5.274.1l-25.857 15.095c-1.389.818-1.304 2.095.199 2.856l8.647 4.347c1.503.761 3.87.718 5.274-.1Z" fill="#E4E3F8"/><path d="M625.059 63.15 605.694 74.99c-5.372 3.286-10.986.545-12.446-6.084l-1.871-8.409c-1.475-6.629 1.729-14.75 7.102-18.036l19.364-11.838c5.373-3.286 10.987-.545 12.447 6.084l1.871 8.408c1.475 6.644-1.715 14.751-7.102 18.037Z" fill="#C8C6FB"/><path d="m609.794 61.758-2.608-11.723c-.213-.947.468-2.052 1.247-2.052l10.803.058c.864 0 1.162 1.349.51 2.281l-8.208 11.666c-.595.846-1.531.717-1.744-.23Z" fill="#fff"/><path d="m594.312 83.741-7.329 4.477c-4.352 2.67-8.902.445-10.093-4.936-1.191-5.366 1.389-11.952 5.756-14.607l7.329-4.477c4.352-2.669 8.902-.445 10.093 4.936 1.191 5.367-1.403 11.953-5.756 14.607Z" fill="#AAA8EE"/><path d="m594.793 83.454 4.834.388-1.559-3.975-3.275 3.587Z" fill="#C8C6FB"/><path d="M585.252 78.905c.305-.983-.011-1.958-.706-2.18-.694-.22-1.505.397-1.81 1.38-.305.983.011 1.959.705 2.18.695.22 1.505-.397 1.811-1.38ZM589.644 76.22c.305-.983-.01-1.959-.705-2.18-.695-.22-1.505.397-1.81 1.38-.305.983.01 1.958.705 2.18.695.22 1.505-.397 1.81-1.38ZM594.112 72.32c.198.905-.227 1.995-.964 2.44-.737.445-1.489.072-1.687-.832-.199-.904.227-1.995.964-2.44.737-.444 1.488-.071 1.687.833Z" fill="#fff"/><path d="m640.299 35.428-8.591 5.251c-3.445 2.11-7.031.345-7.981-3.903l-.241-1.061c-.95-4.248 1.106-9.442 4.55-11.551l8.591-5.252c3.445-2.11 7.031-.344 7.981 3.903l.241 1.062c.936 4.247-1.12 9.441-4.55 11.55Z" fill="#AAA8EE"/><path d="m626.096 29.517 13.623-8.323M626.988 33.533l13.624-8.322M627.879 37.566l9.384-5.74" stroke="snow" stroke-miterlimit="10" stroke-linecap="round" stroke-linejoin="round"/><path opacity=".34" d="M499.484 137.849c.837-6.915-7.79-13.674-19.269-15.098-11.478-1.423-21.462 3.029-22.299 9.943-.837 6.915 7.79 13.675 19.269 15.098 11.478 1.423 21.462-3.028 22.299-9.943Z" fill="#B3B2E7"/><path d="M475.75 146.188c10.752-.578 19.193-6.294 18.854-12.768-.339-6.475-9.331-11.255-20.083-10.678-10.752.577-19.193 6.294-18.854 12.768.339 6.474 9.331 11.255 20.083 10.678Z" fill="#BBB9F8"/><path d="M475.424 140.004c10.752-.577 19.193-6.294 18.854-12.768-.339-6.474-9.331-11.255-20.083-10.678-10.752.578-19.193 6.294-18.854 12.768.339 6.475 9.33 11.255 20.083 10.678Z" fill="#F6F5FF"/><path d="m478.316 118.847 2.52 5.967a1.228 1.228 0 0 1-.447 1.502l-7.196 4.733c-.783.514-1.82-.031-1.861-.967l-.325-7.408c-.02-.432.193-.844.549-1.07l4.991-3.282a1.195 1.195 0 0 1 1.769.525Z" fill="#CBC9FE"/><path d="m476.335 116.82-2.643-1.306-5.987 4.002-.752 8.282a1.34 1.34 0 0 0 .488 1.163l1.138.926c1.108.905 2.745.061 2.684-1.379l-.285-6.543 5.448-3.591c.59-.371.539-1.245-.091-1.554Z" fill="#BBB9F8"/><path d="m471.669 58.752-17.138 28.705 18.988 30.629" stroke="#BBB9F8" stroke-width="2" stroke-miterlimit="10" stroke-linecap="round" stroke-linejoin="round"/><path d="m466.952 56.488-17.524 31.668 20.451 32.399" stroke="#BBB9F8" stroke-width="2" stroke-miterlimit="10" stroke-linecap="round" stroke-linejoin="round"/><path d="m453.811 57.188 12.797 8.22c3.446 2.212 8.061 1.173 10.246-2.315l.224-.35c2.185-3.487 1.159-8.148-2.287-10.36l-12.797-8.22c-3.446-2.212-8.061-1.173-10.246 2.315l-.224.35c-2.195 3.477-1.159 8.137 2.287 10.36Z" fill="#DFDEFF"/><path opacity=".68" d="m460.009 47.095 7.603 4.527a.804.804 0 0 0 1.098-.288.824.824 0 0 0-.285-1.112l-7.603-4.526a.804.804 0 0 0-1.098.288.823.823 0 0 0 .285 1.11ZM456.034 49.965l7.604 4.527a.802.802 0 0 0 1.097-.288.824.824 0 0 0-.284-1.111l-7.603-4.527a.803.803 0 0 0-1.098.288.821.821 0 0 0 .284 1.11ZM454.368 54.821l7.604 4.527a.802.802 0 0 0 1.097-.288.824.824 0 0 0-.284-1.111l-7.603-4.527a.803.803 0 0 0-1.098.288.824.824 0 0 0 .284 1.111Z" fill="#CBC9FE"/><path d="M488.526 71.793c5.83-8.562 8.544-16.907 6.061-18.638-2.482-1.732-9.22 3.805-15.05 12.367-5.83 8.563-8.544 16.907-6.062 18.639 2.482 1.731 9.221-3.806 15.051-12.368Z" fill="#AFADEB"/><path d="m471.651 82.714-4.432-5.144c-5.458-6.348-5.733-15.711-.65-22.357 4.655-6.102 12.695-8.427 19.841-5.762l6.597 2.47-21.356 30.793Z" fill="#F6F5FF"/><path d="M486.942 70.547c5.83-8.562 8.544-16.907 6.061-18.638-2.482-1.732-9.22 3.805-15.05 12.367-5.83 8.562-8.544 16.907-6.062 18.639 2.482 1.731 9.221-3.806 15.051-12.368Z" fill="#BBB9F8"/><path d="M488.032 63.002c-.051 3.168-1.2 7.819-7.004 9.846-2.51.874-5.011-1.4-4.32-3.992.915-3.468 3.599-7.387 6.557-8.91 2.205-1.132 4.808.566 4.767 3.056Z" fill="#DBDAFF"/><path d="M477.95 64.287c5.835-8.56 12.574-14.105 15.054-12.377.467.32.742.875.864 1.626-3.161.69-8.508 5.648-13.245 12.614-4.736 6.965-7.42 13.776-6.922 17.006-.732.155-1.342.093-1.809-.236-2.49-1.729.234-10.073 6.058-18.633Z" fill="#CECCFA"/><path d="m455.608 85.36-6.668 3.456a1.55 1.55 0 0 0-.589 2.192l3.192 5.082a1.03 1.03 0 0 0 1.362.36l6.779-3.734a1.12 1.12 0 0 0 .407-1.585l-3.425-5.463a.788.788 0 0 0-1.058-.309Z" fill="#F6F5FF"/><path d="m449.368 88.588-.783.463c-.579.34-.762 1.1-.396 1.677l3.324 5.288c.315.494.945.659 1.453.38l1.271-.699-4.869-7.11Z" fill="#BBB9F8"/></g><defs><clipPath id="a"><path fill="#fff" d="M0 0h888v150H0z"/></clipPath></defs></svg>