<svg width="26" height="27" fill="none" xmlns="http://www.w3.org/2000/svg"><circle cx="13" cy="13" r="9" fill="#fff"/><path d="M24.137 13.557a.774.774 0 0 1 0-.685l.985-2.016a2.294 2.294 0 0 0-.99-3.047L22.15 6.757a.775.775 0 0 1-.403-.554l-.387-2.21a2.294 2.294 0 0 0-2.592-1.883l-2.222.314a.774.774 0 0 1-.651-.212L14.28.652a2.294 2.294 0 0 0-3.203 0l-1.613 1.56a.775.775 0 0 1-.651.212L6.59 2.11A2.294 2.294 0 0 0 4 3.993l-.388 2.21a.775.775 0 0 1-.402.554L1.227 7.81a2.294 2.294 0 0 0-.99 3.047l.986 2.016a.774.774 0 0 1 0 .685l-.986 2.016a2.294 2.294 0 0 0 .99 3.047l1.983 1.052a.775.775 0 0 1 .402.554L4 22.436A2.293 2.293 0 0 0 6.59 24.32l2.223-.315a.774.774 0 0 1 .65.212l1.614 1.56a2.296 2.296 0 0 0 3.203 0l1.614-1.56a.775.775 0 0 1 .65-.212l2.223.315a2.294 2.294 0 0 0 2.592-1.883l.387-2.211a.775.775 0 0 1 .403-.554l1.983-1.052a2.294 2.294 0 0 0 .99-3.047l-.986-2.016ZM9.63 6.355a2.798 2.798 0 0 1 2.795 2.795 2.798 2.798 0 0 1-2.795 2.794A2.798 2.798 0 0 1 6.836 9.15a2.798 2.798 0 0 1 2.795-2.795ZM8.19 18.783a.76.76 0 0 1-1.078 0 .762.762 0 0 1 0-1.077l10.06-10.06a.762.762 0 1 1 1.078 1.078l-10.06 10.06Zm7.54 1.291a2.798 2.798 0 0 1-2.795-2.795 2.798 2.798 0 0 1 2.794-2.794 2.798 2.798 0 0 1 2.795 2.794 2.798 2.798 0 0 1-2.795 2.795Z" fill="#F37E60"/><path d="M15.727 16.01c-.7 0-1.27.57-1.27 1.27 0 .7.57 1.27 1.27 1.27.7 0 1.27-.57 1.27-1.27 0-.7-.57-1.27-1.27-1.27ZM9.63 7.88c-.7 0-1.27.57-1.27 1.27 0 .7.57 1.27 1.27 1.27.7 0 1.27-.57 1.27-1.27 0-.7-.57-1.27-1.27-1.27Z" fill="#F37E60"/></svg>