<svg width="154" height="61" fill="none" xmlns="http://www.w3.org/2000/svg"><path d="M13.625 50.52V39.222c5.573-.462 11.16-.931 16.746-1.397V51.11c-1.516-.055-3.032-.107-4.534-.163V38.952c.716.556 1.432 1.12 2.162 1.69-4.099.246-8.184.49-12.268.73.8-.598 1.614-1.21 2.428-1.829v11.133c-1.516-.052-3.032-.108-4.534-.157Zm31.401 1.105V39.609c-1.123.066-2.246.137-3.355.202-.786.046-1.402.245-1.853.584-.461.346-.688.775-.688 1.307 0 .535.226.948.688 1.25.45.296 1.067.443 1.853.418l3.622-.115v3.014l-3.622.024c-1.417.01-2.652-.18-3.734-.55-1.08-.367-1.909-.882-2.512-1.539a3.27 3.27 0 0 1-.899-2.29c0-.887.296-1.677.899-2.381.604-.707 1.432-1.294 2.512-1.762 1.082-.47 2.317-.769 3.734-.887 2.625-.219 5.264-.441 7.903-.657v15.558c-1.516-.052-3.032-.108-4.548-.16Zm-12.142-.428A190.036 190.036 0 0 0 36 48.062c1.042-1.077 2.078-2.19 3.13-3.316 1.685-.03 3.37-.066 5.054-.1a348.555 348.555 0 0 1-2.976 3.454c-.98 1.121-1.965 2.211-2.948 3.285-1.797-.059-3.593-.125-5.376-.188Zm29.829 1.053c-1.516-.052-3.032-.104-4.548-.16V38.64c1.516-.093 3.032-.184 4.548-.278v13.89Zm5.685-13.986-15.918.945v-3.228c5.306-.445 10.612-.887 15.918-1.328v3.611Zm15.174 14.723V33.388l4.534-.376V53.147c-1.516-.052-3.032-.108-4.534-.16Zm-7.72-.27c-1.516-.056-3.032-.108-4.548-.16V34.412c1.516-.129 3.032-.257 4.548-.382V52.716Zm-.267-7.654v-3.754c2.737-.1 5.489-.205 8.24-.306v3.952c-2.752.035-5.503.073-8.24.108Zm16.76 8.234V32.654l4.548-.375v19.078c-1.052-.028-2.091-.048-3.13-.076 1.797-3.111 3.63-6.28 5.418-9.534a646.838 646.838 0 0 0 5.433-10.115c1.586-.135 3.172-.264 4.758-.4v22.666c-1.516-.052-3.032-.108-4.548-.16v-20.2c1.053-.08 2.106-.157 3.173-.237-1.825 3.528-3.638 7-5.461 10.382a515.582 515.582 0 0 1-5.432 9.78l-4.759-.166Zm21.253.75V30.883c1.516-.125 3.032-.25 4.548-.38V52.818c-.815-1.144-1.629-2.284-2.429-3.41 4.015.046 8.03.087 12.044.136-.73 1.171-1.446 2.336-2.162 3.483V29.88c1.516-.125 3.032-.254 4.548-.38V54.632c-5.516-.198-11.033-.389-16.549-.584Zm14.781 6.584V49.55c1.403.017 2.807.031 4.225.049v11.303c-1.418-.094-2.822-.181-4.225-.272Zm21.589-10.296c-3.931-.052-7.861-.107-11.791-.163v-5.217c3.93-.038 7.86-.076 11.791-.118v5.498Zm4.029 5.134c-1.643-.056-3.271-.111-4.899-.17-.955-3.775-1.892-7.523-2.836-11.234a2488.88 2488.88 0 0 0-2.821-10.962c.379-.025.772-.046 1.165-.073a5992.56 5992.56 0 0 1-2.85 11.098c-.936 3.634-1.895 7.24-2.835 10.813l-4.731-.167c1.221-4.248 2.462-8.544 3.678-12.892 1.226-4.386 2.456-8.835 3.692-13.332 1.684-.14 3.369-.279 5.053-.421 1.221 4.439 2.462 8.922 3.678 13.454 1.227 4.575 2.47 9.211 3.706 13.886ZM8.623 22.741c-2.701.067-4.816-.836-6.341-2.753C.746 18.058 0 15.348 0 11.913V0c1.935.153 3.885.306 5.835.455V11.113c0 1.707.317 2.936.953 3.682.635.745 1.661 1.12 3.062 1.13.91.006 1.79-.124 2.643-.373.867-.252 1.604-.587 2.21-1.004.433 1.533.881 3.059 1.329 4.578-.809 1.123-1.879 1.99-3.178 2.614a10.267 10.267 0 0 1-4.231 1.001Zm5.849 10.902V1.126c1.95.153 3.9.306 5.85.456v31.606c-1.95.149-3.9.302-5.85.455Zm29.016-2.256c-5.921.462-11.829.92-17.736 1.38V2.002c5.907.46 11.815.918 17.736 1.377v5.604L31.602 8.43v17.913c3.957-.184 7.915-.369 11.886-.556v5.6Zm-.635-11.267-11.598.178v-5.983c3.856.063 7.727.122 11.598.184v5.621Zm10.731 10.485c-1.95.152-3.9.305-5.85.455V3.709c3.38.26 6.775.524 10.169.79 1.805.14 3.407.615 4.795 1.393 1.37.769 2.45 1.77 3.22 2.986.775 1.221 1.156 2.6 1.156 4.168 0 1.544-.381 2.895-1.155 4.085-.772 1.184-1.85 2.132-3.221 2.826-1.388.703-2.99 1.085-4.795 1.126-1.56.036-3.106.066-4.651.101v-5.298c1.545.014 3.09.03 4.65.042.997.008 1.793-.26 2.384-.813.58-.543.88-1.29.88-2.232 0-.942-.301-1.706-.88-2.28-.591-.587-1.387-.903-2.383-.95l-4.319-.198v21.15Zm33.176-2.576V6.74l5.835.452V27.577c-1.95.153-3.9.302-5.835.452Zm-9.922.771-5.85.456V5.513l5.85.456V28.8Zm-.347-9.347v-4.61c3.524.063 7.063.122 10.601.185v4.275c-3.538.052-7.077.101-10.6.15Zm39.964 3.243c-5.055.247-10.11.497-15.151.744v-3.803c5.041-.094 10.096-.188 15.151-.278v3.337Zm5.171 2.628-6.297.49c-1.213-2.242-2.45-4.534-3.64-6.89a394.527 394.527 0 0 1-3.625-7.359c.491.028.982.053 1.488.077a316.787 316.787 0 0 0-3.655 7.36 468.465 468.465 0 0 0-3.639 7.824c-2.037.16-4.073.316-6.095.473a461.334 461.334 0 0 1 4.737-9.91c1.561-3.154 3.163-6.202 4.752-9.182 2.152.167 4.318.334 6.485.5a326.608 326.608 0 0 0 4.737 8.681c1.561 2.745 3.163 5.374 4.752 7.936Zm16.956-1.317V13.412c-1.444-.067-2.888-.137-4.318-.202-.997-.046-1.791.075-2.383.361-.593.287-.881.706-.881 1.245 0 .538.288.971.881 1.293.591.321 1.386.48 2.383.49 1.545.015 3.091.028 4.651.042v2.638l-4.651.104c-1.82.04-3.41-.114-4.795-.49-1.373-.372-2.455-.936-3.221-1.665-.78-.741-1.156-1.602-1.156-2.576 0-.987.376-1.832 1.156-2.523.765-.679 1.848-1.179 3.221-1.474 1.386-.299 2.975-.37 4.795-.23 3.38.262 6.774.528 10.168.79V23.55c-1.95.153-3.9.306-5.85.456Zm-15.598 1.21c1.329-1.3 2.667-2.584 4.001-3.81A137.728 137.728 0 0 1 131 17.882c2.152-.014 4.318-.025 6.485-.035-1.271 1.064-2.562 2.147-3.813 3.281a164.682 164.682 0 0 0-3.799 3.553c-2.296.18-4.593.358-6.889.535Z" fill="#fff"/></svg>