<svg width="310" height="168" viewBox="0 0 310 168" fill="none" xmlns="http://www.w3.org/2000/svg">
<path d="M188.629 122.035C175.079 122.035 165.965 119.28 161.514 113.838C157.593 109.046 157.449 102.271 161.082 93.7027C161.998 91.5303 164.072 89.1534 166.26 86.6252C170.878 81.3039 176.116 75.271 173.179 68.8672C168.327 58.3077 169.772 47.6272 169.841 47.1806C170.31 41.8441 174.935 35.7734 182.528 30.5655C189.583 25.7286 197.569 22.822 203.329 22.9582C203.746 22.9658 204.079 23.314 204.071 23.7303C204.064 24.139 203.723 24.4721 203.314 24.4721H203.292C197.894 24.3283 190.082 27.2198 183.383 31.8145C176.267 36.6968 171.771 42.5026 171.347 47.3547C171.324 47.4985 169.901 58.0958 174.557 68.2389C177.902 75.5283 172.081 82.2349 167.403 87.6168C165.291 90.0466 163.3 92.3402 162.475 94.2856C159.084 102.302 159.152 108.554 162.687 112.876C173.391 125.964 212.141 118.251 212.527 118.175C212.935 118.092 213.337 118.357 213.42 118.765C213.503 119.174 213.238 119.575 212.83 119.659C212.731 119.681 202.769 121.687 191.581 121.99C190.574 122.02 189.59 122.035 188.629 122.035Z" fill="#363537"/>
<path d="M175.321 68.1858C169.636 58.1487 170.257 47.2713 170.257 47.2713C170.295 36.023 189.249 21.7167 200.869 21.0203C202.655 20.5283 204.533 20.2558 206.478 20.2633C217.916 20.3012 227.159 29.5965 227.129 41.034L227.106 47.3773C227.666 50.8214 227.984 53.8946 228.272 56.0368C229.596 65.8847 238.771 65.5743 243.169 70.6837C247.567 75.7931 243.139 80.191 243.797 87.6621C244.373 94.2324 249.959 94.2551 253.82 101.333C251.11 105.534 247.9 109.387 244.274 112.8C233.298 115.132 218.249 115.086 218.249 115.086C218.249 115.086 152.392 134.419 165.427 94.5579C167.615 87.8665 180.764 77.7991 175.321 68.1858Z" fill="#363537"/>
<path d="M241.746 54.7577C241.988 42.6692 236.212 32.6396 236.212 32.6396C230.777 21.9893 206.993 16.9783 196.289 21.573C194.457 21.9061 192.656 22.5041 190.922 23.3897C180.733 28.5899 176.956 41.5868 182.482 52.4111L185.548 58.4138C186.706 61.9336 187.894 64.9916 188.667 67.1565C192.217 77.0953 183.882 80.9406 182.414 87.7683C180.945 94.5959 187.009 96.7684 190.014 104.149C192.656 110.643 187.682 113.187 187.645 121.634C192.088 124.389 196.796 126.592 201.671 128.197C212.58 125.449 225.993 118.606 225.993 118.606C225.993 118.606 294.038 107.199 263.259 75.2786C258.089 69.9194 241.526 66.3087 241.761 54.7426L241.746 54.7577Z" fill="#363537"/>
<path d="M210.21 84.3772C218.56 83.1434 238.271 81.1299 238.271 81.1299L254.032 88.7902L299.178 133.935L286.68 161.208H149.228L172.528 106.208C176.615 96.5641 185.184 89.5396 195.441 87.4201L210.203 84.3772H210.21Z" fill="#F37E60"/>
<path d="M238.271 122.588C249.722 122.588 259.005 113.305 259.005 101.855C259.005 90.4045 249.722 81.1221 238.271 81.1221C226.82 81.1221 217.538 90.4045 217.538 101.855C217.538 113.305 226.82 122.588 238.271 122.588Z" fill="#F37E60"/>
<path d="M260.519 141.337C260.322 141.337 260.133 141.262 259.982 141.118L249.263 130.377C248.968 130.082 248.968 129.605 249.263 129.31C249.558 129.014 250.035 129.014 250.33 129.31L261.049 140.051C261.344 140.346 261.344 140.823 261.049 141.118C260.898 141.262 260.708 141.337 260.512 141.337H260.519Z" fill="#D56448"/>
<path d="M255.455 141.935C255.44 141.784 255.364 141.648 255.251 141.557C255.129 141.466 254.978 141.421 254.834 141.443L217.311 146.227C215.653 143.964 212.807 140.278 207.909 134.184C207.182 133.283 206.1 132.761 204.942 132.761H204.366L203.92 132.193C202.989 131.013 201.46 130.49 199.976 130.854L198.909 129.96C197.531 128.81 195.51 128.787 194.102 129.9L193.731 130.203C193.731 130.203 193.7 130.203 193.685 130.21L182.845 134.275C182.732 134.313 182.641 134.396 182.573 134.494L174.995 146.318C174.867 146.522 174.882 146.787 175.033 146.977C175.548 147.59 176.699 148.422 178.19 148.422C178.849 148.422 179.575 148.263 180.34 147.855C181.135 147.431 181.786 146.984 182.331 146.545L180.113 152.147C180.007 152.419 180.128 152.737 180.4 152.858C180.696 152.987 182.649 153.842 184.352 153.842C184.98 153.842 185.563 153.721 186.025 153.418C186.653 153.835 187.508 154.198 188.409 154.198C189.136 154.198 189.9 153.963 190.597 153.32C191.142 152.82 191.649 152.245 192.096 151.655C192.111 151.806 192.156 151.957 192.285 152.056C192.777 152.434 193.496 152.843 194.261 153.025C194.268 153.04 194.276 153.062 194.291 153.078C194.495 153.32 199.279 159.095 203.42 159.92C208.038 160.844 214.699 160.851 214.979 160.851H256.734C256.893 160.851 257.045 160.783 257.143 160.67C257.249 160.556 257.302 160.397 257.279 160.246L255.432 141.958L255.455 141.935Z" fill="#F1BBA2"/>
<path d="M217.212 147.552C216.834 147.552 216.508 147.272 216.463 146.894C216.41 146.477 216.705 146.099 217.122 146.046L254.812 141.239C255.22 141.194 255.606 141.481 255.659 141.898C255.712 142.314 255.417 142.692 255.001 142.745L217.311 147.552C217.311 147.552 217.25 147.552 217.212 147.552Z" fill="#D59A7E"/>
<path d="M184.344 154.032C182.671 154.032 180.802 153.245 180.325 153.025C179.954 152.858 179.78 152.435 179.931 152.056L185.351 138.34C185.957 136.796 186.963 135.434 188.25 134.389L193.973 129.734C195.464 128.56 197.591 128.591 199.037 129.794L200.029 130.619C201.543 130.286 203.117 130.831 204.079 132.05L204.465 132.542H204.942C206.168 132.542 207.303 133.087 208.068 134.041C219.816 148.665 219.816 149.52 219.816 149.929C219.816 150.338 219.476 150.686 219.059 150.686C218.681 150.686 218.363 150.406 218.31 150.035C217.947 149.081 213.48 143.2 206.887 134.987C206.41 134.396 205.699 134.056 204.942 134.056H204.101C203.867 134.056 203.647 133.95 203.503 133.768L202.89 132.989C202.239 132.156 201.126 131.83 200.135 132.163C199.885 132.247 199.575 132.209 199.37 132.042L198.076 130.96C197.175 130.211 195.85 130.188 194.927 130.915L189.219 135.555C188.137 136.44 187.289 137.591 186.774 138.893L181.627 151.912C182.974 152.412 184.708 152.768 185.366 152.283C185.699 152.033 186.176 152.102 186.426 152.435C186.676 152.768 186.608 153.245 186.275 153.494C185.752 153.888 185.071 154.032 184.359 154.032H184.344Z" fill="#D59A7E"/>
<path d="M188.424 154.387C187.122 154.387 185.926 153.668 185.29 153.085C185.063 152.881 184.988 152.555 185.094 152.268L188.5 143.048C189.219 141.103 190.309 139.347 191.732 137.833L195.971 133.344C196.259 133.041 196.736 133.026 197.039 133.314C197.341 133.601 197.357 134.078 197.069 134.381L192.83 138.87C191.543 140.232 190.566 141.814 189.915 143.57L186.706 152.268C187.342 152.699 188.636 153.328 189.726 152.336C191.626 150.61 193.049 147.613 193.057 147.582C193.239 147.204 193.685 147.045 194.064 147.219C194.442 147.401 194.601 147.847 194.427 148.226C194.367 148.362 192.86 151.526 190.741 153.449C189.991 154.13 189.189 154.38 188.417 154.38L188.424 154.387Z" fill="#D59A7E"/>
<path d="M195.041 153.305C193.966 153.305 192.86 152.722 192.179 152.2C191.929 152.011 191.823 151.685 191.914 151.382L193.542 145.925C194.215 143.661 195.502 141.633 197.266 140.073C200.953 136.811 201.361 136.599 201.535 136.516C201.914 136.327 202.361 136.478 202.55 136.856C202.739 137.227 202.588 137.681 202.217 137.871C202.096 137.939 201.467 138.37 198.265 141.209C196.713 142.587 195.578 144.365 194.988 146.364L193.527 151.284C194.125 151.632 195.207 152.117 195.767 151.481C197.024 150.042 200.127 145.841 200.165 145.804C200.211 145.743 200.271 145.682 200.332 145.637L204.208 142.867C204.548 142.624 205.018 142.7 205.26 143.041C205.502 143.381 205.426 143.851 205.086 144.093L201.301 146.795C200.816 147.454 198.106 151.095 196.903 152.472C196.365 153.085 195.707 153.313 195.041 153.313V153.305Z" fill="#D59A7E"/>
<path d="M256.75 161.041H214.995C214.714 161.041 208.03 161.033 203.39 160.102C199.196 159.262 194.125 153.448 193.913 153.206C193.64 152.888 193.67 152.411 193.988 152.139C194.306 151.866 194.783 151.897 195.056 152.215C195.109 152.268 199.999 157.884 203.685 158.618C208.174 159.519 214.926 159.527 214.995 159.527H256.75C257.166 159.527 257.507 159.867 257.507 160.284C257.507 160.7 257.166 161.041 256.75 161.041Z" fill="#D59A7E"/>
<path d="M178.19 148.612C176.623 148.612 175.412 147.741 174.874 147.098C174.662 146.841 174.64 146.485 174.821 146.205L182.399 134.381C182.482 134.245 182.611 134.147 182.755 134.086L192.913 130.021C193.299 129.87 193.738 130.051 193.897 130.445C194.056 130.831 193.867 131.27 193.473 131.429L183.542 135.403L176.434 146.492C177.009 146.939 178.167 147.507 179.719 146.682C182.247 145.334 183.3 143.646 183.307 143.631C183.527 143.275 183.988 143.162 184.344 143.374C184.7 143.593 184.814 144.055 184.602 144.411C184.549 144.494 183.353 146.455 180.431 148.014C179.628 148.438 178.871 148.604 178.19 148.604V148.612Z" fill="#D59A7E"/>
<path d="M204.185 149.036C203.927 149.036 203.678 148.907 203.534 148.672C202.482 146.939 202.027 146.477 201.921 146.379C201.664 146.258 201.482 145.993 201.482 145.69C201.482 145.273 201.823 144.933 202.239 144.933C202.572 144.933 203.034 144.933 204.828 147.885C205.048 148.241 204.934 148.71 204.571 148.922C204.45 148.998 204.314 149.036 204.177 149.036H204.185Z" fill="#D59A7E"/>
<path d="M298.276 156.407C304.679 150.004 304.679 139.623 298.276 133.22C291.873 126.817 281.492 126.817 275.088 133.22C268.685 139.623 268.685 150.004 275.088 156.407C281.492 162.809 291.873 162.809 298.276 156.407Z" fill="#F37E60"/>
<path d="M256.28 142.48C255.894 142.48 255.561 142.185 255.523 141.784C255.485 141.368 255.795 141.004 256.212 140.966L269.966 139.823C270.39 139.778 270.746 140.096 270.784 140.512C270.821 140.929 270.511 141.292 270.095 141.33L256.34 142.473C256.34 142.473 256.295 142.473 256.28 142.473V142.48Z" fill="#D56448"/>
<path d="M212.716 161.336H120.645V153.661H205.926C209.681 153.661 212.724 156.704 212.724 160.458V161.336H212.716Z" fill="#F1F1F1"/>
<path d="M92.1819 161.336H162.944L144.83 93.7254C143.785 89.8347 139.516 86.8599 135.837 87.4655L80.1837 96.5564C77.2315 97.0409 75.6645 99.6978 76.5048 102.816L92.1819 161.336Z" fill="#E4E4E4"/>
<path d="M108.866 129.559C110.153 133.359 113.256 135.751 115.792 134.888C118.328 134.033 119.335 130.248 118.048 126.448C116.761 122.649 113.658 120.257 111.122 121.12C108.586 121.975 107.579 125.76 108.866 129.559Z" fill="#D3D3D3"/>
<path d="M211.338 99.8113C220.043 97.4345 225.176 88.4495 222.791 79.7446L218.03 62.3196L193.201 69.1018L199.787 93.2183C201.157 98.2293 206.327 101.181 211.331 99.8113H211.338Z" fill="#F1BBA2"/>
<path d="M197.932 86.4132L193.201 69.1017L208.976 64.7947L215.63 69.3364C213.518 77.0345 207.334 83.2491 197.932 86.4132Z" fill="#D59A7E"/>
<path d="M198.152 79.0405C209.59 79.0783 218.893 69.8284 218.923 58.3909L218.961 45.4319C218.999 33.9944 209.748 24.6915 198.31 24.6612C186.873 24.6234 177.569 33.8733 177.539 45.3108L177.501 58.2698C177.463 69.7073 186.714 79.0102 198.152 79.0405Z" fill="#F1BBA2"/>
<path d="M199.794 23.3595C212.201 23.3973 222.231 33.1241 222.193 45.0839L222.178 49.5499C213.443 55.0605 201.611 54.0916 193.958 46.6735L184.041 37.0603C182.815 35.8718 181.77 34.5775 180.885 33.2074C184.904 27.2578 191.869 23.3368 199.787 23.3595H199.794Z" fill="#363537"/>
<path d="M215.464 62.5389C218.628 63.9695 222.345 62.5616 223.775 59.3975L224.192 58.4665C225.622 55.3024 224.214 51.5858 221.05 50.1552C217.886 48.7246 214.169 50.1325 212.739 53.2965L212.322 54.2276C210.892 57.3916 212.299 61.1082 215.464 62.5389Z" fill="#F1BBA2"/>
<path d="M180.007 54.1523C180.257 55.6813 181.241 56.7864 182.217 56.6351C183.186 56.4761 183.777 55.1136 183.527 53.5846C183.277 52.0555 182.293 50.9504 181.316 51.1018C180.347 51.2607 179.757 52.6232 180.007 54.1523Z" fill="#363537"/>
<path d="M174.723 51.0335C174.549 51.0335 174.367 50.9729 174.223 50.8442C173.906 50.5717 173.875 50.0873 174.148 49.7769C177.683 45.7197 183.708 46.6961 183.966 46.7415C184.375 46.8097 184.655 47.2033 184.587 47.612C184.518 48.0208 184.117 48.3009 183.716 48.2327C183.663 48.2252 178.266 47.3622 175.291 50.7685C175.139 50.9426 174.927 51.0259 174.723 51.0259V51.0335Z" fill="#363537"/>
<path d="M193.844 52.8349C194.094 54.3639 195.078 55.4691 196.055 55.3177C197.024 55.1587 197.614 53.7962 197.364 52.2672C197.115 50.7381 196.131 49.633 195.154 49.7844C194.185 49.9433 193.595 51.3058 193.844 52.8349Z" fill="#363537"/>
<path d="M189.923 48.9518C189.704 48.9518 189.484 48.861 189.34 48.6717C189.075 48.3462 189.121 47.8694 189.446 47.6044C193.602 44.1906 199.385 46.1511 199.628 46.2344C200.021 46.3706 200.233 46.8021 200.097 47.1957C199.961 47.5893 199.529 47.8012 199.136 47.665C199.083 47.6499 193.905 45.9089 190.408 48.7777C190.264 48.8913 190.097 48.9518 189.931 48.9518H189.923Z" fill="#363537"/>
<path d="M188.697 63.6366C188.364 63.6366 185.442 63.5836 184.374 62.047C184.072 61.608 183.784 60.8662 184.178 59.8065C184.98 57.6264 186.456 50.5717 186.471 50.496C186.555 50.0872 186.948 49.8223 187.364 49.9131C187.773 49.9964 188.038 50.3976 187.947 50.8063C187.887 51.1015 186.433 58.0503 185.593 60.3287C185.419 60.8132 185.517 61.0479 185.616 61.1841C186.108 61.8881 187.902 62.1227 188.697 62.1227C189.113 62.1227 189.454 62.4633 189.454 62.8797C189.454 63.296 189.113 63.6366 188.697 63.6366Z" fill="#D59A7E"/>
<path d="M189.704 68.7388C189.302 68.7388 188.969 68.4284 188.947 68.0273C188.924 67.6109 189.242 67.2476 189.658 67.2249C193.299 67.0054 195.442 64.0306 195.464 64.0003C195.707 63.6597 196.176 63.5764 196.517 63.8186C196.857 64.0608 196.94 64.5301 196.706 64.8708C196.6 65.0222 194.147 68.4814 189.749 68.7388C189.734 68.7388 189.719 68.7388 189.704 68.7388Z" fill="#D59A7E"/>
<path d="M216.463 59.481C216.069 59.481 215.736 59.1782 215.706 58.777C215.35 53.4557 218.764 51.9872 218.908 51.9266C219.294 51.7677 219.733 51.9494 219.9 52.3354C220.059 52.7214 219.877 53.1605 219.498 53.3194C219.377 53.3724 216.94 54.5003 217.227 58.6711C217.258 59.0874 216.94 59.4507 216.523 59.481C216.508 59.481 216.486 59.481 216.47 59.481H216.463Z" fill="#D59A7E"/>
<path d="M16.426 56.1213L73.1044 56.1213C81.8867 56.1213 89.0061 49.0003 89.0061 40.216V15.9054C89.0061 7.12112 81.8867 3.43323e-05 73.1044 3.43323e-05L16.426 3.43323e-05C7.64373 3.43323e-05 0.5243 7.12112 0.5243 15.9054V40.216C0.5243 49.0003 7.64373 56.1213 16.426 56.1213Z" fill="#F37E60"/>
<path d="M63.1147 42.7322V71.9024L36.3557 47.0587L63.1147 42.7322Z" fill="#F37E60"/>
<path d="M123.663 35.9172H97.7037C88.4213 35.9172 80.8826 43.4445 80.8826 52.7422V56.8993C80.8826 64.5578 86.0089 71.0098 93.0101 73.0424V84.3465L105.203 73.7112H123.663C132.946 73.7112 140.484 66.1839 140.484 56.8862V52.7291C140.484 43.4445 132.959 35.9041 123.663 35.9041V35.9172Z" fill="#6683C2"/>
<path d="M125.943 51.3807H95.8656C95.1482 51.3807 94.5613 50.7467 94.5613 49.9719C94.5613 49.197 95.1482 48.563 95.8656 48.563H125.943C126.66 48.563 127.247 49.197 127.247 49.9719C127.247 50.7467 126.66 51.3807 125.943 51.3807Z" fill="white"/>
<path d="M125.943 59.8336H95.8656C95.1482 59.8336 94.5613 59.1996 94.5613 58.4247C94.5613 57.6499 95.1482 57.0159 95.8656 57.0159H125.943C126.66 57.0159 127.247 57.6499 127.247 58.4247C127.247 59.1996 126.66 59.8336 125.943 59.8336Z" fill="white"/>
<path d="M61.2934 37.8679H56.916L70.6054 18.899H74.9829L61.2934 37.8679ZM71.9319 38.2393C71.0653 38.2393 70.2782 38.0359 69.5708 37.6291C68.8633 37.2223 68.3062 36.6652 67.8994 35.9577C67.4926 35.2502 67.2892 34.4544 67.2892 33.57C67.2892 32.7034 67.4926 31.9252 67.8994 31.2354C68.3062 30.5279 68.8633 29.9708 69.5708 29.564C70.2782 29.1572 71.0653 28.9538 71.9319 28.9538C72.8162 28.9538 73.6033 29.1572 74.2931 29.564C75.0005 29.9708 75.5577 30.5279 75.9645 31.2354C76.3713 31.9252 76.5746 32.7122 76.5746 33.5966C76.5746 34.4632 76.3713 35.2502 75.9645 35.9577C75.5577 36.6652 75.0005 37.2223 74.2931 37.6291C73.6033 38.0359 72.8162 38.2393 71.9319 38.2393ZM71.9319 35.1883C72.3387 35.1883 72.6836 35.038 72.9666 34.7373C73.2496 34.419 73.3911 34.0387 73.3911 33.5966C73.3911 33.1544 73.2496 32.783 72.9666 32.4823C72.6836 32.1639 72.3387 32.0048 71.9319 32.0048C71.5251 32.0048 71.1802 32.1639 70.8973 32.4823C70.6143 32.783 70.4728 33.1544 70.4728 33.5966C70.4728 34.0387 70.6143 34.419 70.8973 34.7373C71.1802 35.038 71.5251 35.1883 71.9319 35.1883ZM59.9669 27.813C59.1003 27.813 58.3133 27.6096 57.6058 27.2029C56.8983 26.7961 56.3412 26.2389 55.9344 25.5315C55.5276 24.824 55.3242 24.0281 55.3242 23.1438C55.3242 22.2771 55.5276 21.4989 55.9344 20.8092C56.3412 20.1017 56.8983 19.5446 57.6058 19.1378C58.3133 18.731 59.1003 18.5276 59.9669 18.5276C60.8513 18.5276 61.6383 18.731 62.3281 19.1378C63.0356 19.5446 63.5927 20.1017 63.9995 20.8092C64.4063 21.4989 64.6097 22.286 64.6097 23.1703C64.6097 24.037 64.4063 24.824 63.9995 25.5315C63.5927 26.2389 63.0356 26.7961 62.3281 27.2029C61.6383 27.6096 60.8513 27.813 59.9669 27.813ZM59.9669 24.7621C60.3737 24.7621 60.7186 24.6118 61.0016 24.3111C61.2846 23.9927 61.4261 23.6125 61.4261 23.1703C61.4261 22.7282 61.2846 22.3567 61.0016 22.0561C60.7186 21.7377 60.3737 21.5785 59.9669 21.5785C59.5602 21.5785 59.2153 21.7377 58.9323 22.0561C58.6493 22.3567 58.5078 22.7282 58.5078 23.1703C58.5078 23.6125 58.6493 23.9927 58.9323 24.3111C59.2153 24.6118 59.5602 24.7621 59.9669 24.7621Z" fill="white"/>
<path d="M46.1674 38.2922C44.5048 38.2922 43.0722 37.9119 41.8695 37.1514C40.6845 36.3732 39.7737 35.2501 39.137 33.7821C38.5002 32.2964 38.1819 30.5012 38.1819 28.3965C38.1819 25.213 38.8893 22.7634 40.3043 21.0478C41.7192 19.3322 43.6736 18.4744 46.1674 18.4744C48.6612 18.4744 50.6156 19.3322 52.0305 21.0478C53.4454 22.7634 54.1529 25.213 54.1529 28.3965C54.1529 30.5012 53.8345 32.2964 53.1978 33.7821C52.5611 35.2501 51.6414 36.3732 50.4387 37.1514C49.2537 37.9119 47.8299 38.2922 46.1674 38.2922ZM46.1674 34.6311C47.2286 34.6311 48.051 34.1181 48.6347 33.0923C49.236 32.0488 49.5367 30.4836 49.5367 28.3965C49.5367 26.2918 49.236 24.7266 48.6347 23.7007C48.051 22.6572 47.2286 22.1355 46.1674 22.1355C45.1062 22.1355 44.2749 22.6572 43.6736 23.7007C43.0899 24.7266 42.7981 26.2918 42.7981 28.3965C42.7981 30.4836 43.0899 32.0488 43.6736 33.0923C44.2749 34.1181 45.1062 34.6311 46.1674 34.6311Z" fill="white"/>
<path d="M24.414 32.1106C24.9799 32.8711 25.6255 33.4636 26.3507 33.8881C27.0935 34.3125 27.9248 34.5248 28.8445 34.5248C29.4635 34.5248 30.0118 34.3921 30.4893 34.1268C30.9845 33.8438 31.3736 33.4636 31.6566 32.986C31.9396 32.5085 32.0811 31.9691 32.0811 31.3677C32.0811 30.7664 31.9485 30.2446 31.6832 29.8025C31.4355 29.3426 31.0818 28.9889 30.622 28.7413C30.1621 28.476 29.6315 28.3433 29.0302 28.3433C28.4111 28.3433 27.8452 28.476 27.3323 28.7413C26.8193 28.9889 26.3772 29.3691 26.0058 29.882L24.5732 29.8025C24.697 28.8474 24.9888 27.9896 25.4486 27.2291C25.9085 26.4685 26.5275 25.8672 27.3057 25.425C28.1016 24.9829 29.0302 24.7618 30.0914 24.7618C31.3648 24.7618 32.4879 25.0448 33.4607 25.6107C34.4334 26.1767 35.1851 26.9549 35.7157 27.9454C36.264 28.9358 36.5381 30.0766 36.5381 31.3677C36.5381 32.7296 36.2021 33.9323 35.53 34.9758C34.8756 36.0193 33.9824 36.8329 32.8505 37.4165C31.7185 38.0002 30.4451 38.292 29.0302 38.292C27.5268 38.292 26.1473 38.0267 24.8915 37.4961C23.6358 36.9655 22.5127 36.1343 21.5222 35.0023L24.414 32.1106ZM35.583 22.5067H25.0507L27.2527 19.9333L26.0058 29.882H22.1589L23.5385 18.8987H35.583V22.5067Z" fill="white"/>
<path d="M20.1189 31.9779H12.4783V28.2637H20.1189V31.9779Z" fill="white"/>
</svg>
