<svg width="756" height="494" fill="none" xmlns="http://www.w3.org/2000/svg"><g clip-path="url(#a)"><path d="M489.116 373.395H329.059V231.634h151.394c15.76 0 28.536 13.896 28.536 31.04l-19.871 110.724-.002-.003Z" fill="#BF9A76"/><g clip-path="url(#b)"><path d="M329.154 51.176c9.641-19.406 29.717-31.142 50.781-33.822 10.448-1.334 23.217-1.578 33.46 1.205 16.513 4.502 32.077 14.507 39.576 30.308 3.923 8.273 5.821 17.251 8.475 25.96 4.756 15.61 10.051 31.629 10.589 48.085.192 5.836-.038 12.941-3.961 17.674-.308.372-.859.269-1.18 0a35.104 35.104 0 0 0-.808-.68c-.538 1.527-1.294 2.937-2.371 4.117-1.616 1.758-2.603 1.488-4.667 1.501-2.961.026-5.064.462-7.628 1.95-1.179.679-2.333 1.359-3.59 1.872-6.499 2.694-12.948-.449-19.704-.064-1.013.051-2.026.116-3.026.141-6.371 3.54-15.871 3.438-22.371 3.681-11.731.436-23.474-.397-35.204.475-5.385.397-9.846-.167-15.064-1.424-5.218-1.244-10.91-2.026-15.91-3.989-1.615-.628-2.846-1.5-3.833-2.514-1.231 3.463-3.128 7.734-6.359 5.618-2.167-1.411-3.154-4.938-4.038-7.234-1.359-3.553-2.257-7.259-2.782-11.017-.988-7.016 2.243-67.016 9.615-81.843Z" fill="#657398"/><path d="M444.26 28.166a52.077 52.077 0 0 1 5.641-7.657c1.602-1.796 3.436-3.566 5.782-4.13 2.807-.68 4.256 1.667 6.359 2.95 3.666 2.257 10.679 3.681 10.948 9.145.09 1.757-.82 3.54-2.295 4.502-.884.577-2.051 1-2.333 2.026-.333 1.193.808 2.245 1.243 3.412.641 1.706-.333 3.694-1.833 4.733-1.5 1.039-3.372 1.334-5.192 1.462a39.844 39.844 0 0 1-17.141-2.514c-1.423-.551-2.897-1.231-3.769-2.488-1.615-2.322-.589-5.515.693-8.042a48.388 48.388 0 0 1 1.897-3.399ZM308.78 31.052c.5-1.616 1.666-2.976 3.051-3.963 1.526-1.103 3.32-1.783 5.102-2.399.667-.23 1.359-.474 1.821-1 .32-.372.474-.847.692-1.283.936-1.988 2.962-3.412 5.141-3.642 4.077-.41 6.167 2.95 8.179 5.874 2.411 3.514 4.718 7.105 6.564 10.94 1.013 2.117 1.898 4.592.988 6.76-.949 2.27-3.5 3.373-5.847 4.104-5.256 1.616-10.82 2.476-16.281 1.834-1.68-.192-3.398-.564-4.744-1.59-1.346-1.026-2.179-2.873-1.602-4.45.449-1.22 1.679-2.297 1.307-3.54-.333-1.117-1.692-1.463-2.666-2.104-1.577-1.04-2.231-3.156-1.846-4.99.038-.18.09-.372.141-.538v-.013Z" fill="#657398"/><path d="M444.85 36.375c1.539 1.282 2.628 2.962 3.244 4.86.333 1.027-1.282 1.463-1.603.45-.526-1.642-1.5-3.027-2.82-4.13-.821-.693.359-1.86 1.179-1.18Z" fill="#303F66"/><path d="m277.054 210.616-40.512-6.259s-7.487-17.187-4.538-25.793c2.949-8.606 14.153-9.889 27.538-9.094 13.397.796 27.999.334 27.999.334l-10.487 40.812ZM507.251 214.99l28.114 20.431s.359 19.188-5.999 25.678c-6.372 6.49-17.038 2.822-28.769-3.681-11.73-6.503-25.115-12.39-25.115-12.39l31.782-30.026-.013-.012Z" fill="#FCBFA3"/><path d="M500.593 257.405s20.845-11.505 20.948-16.199c.115-5.515-.859-2.475 6.961-20.804 4.205-9.863 19.59-42.646 20.833-49.418.064-.36 21.423 5.63 21.423 5.63a1066.846 1066.846 0 0 1-4.654 33.13c-2.526 16.212-3.961 35.04-13.73 48.816-12.423 17.494-37.397 9.76-51.781-1.142v-.013Z" fill="#FCBFA3"/><path d="M305.603 247.324c.013.565.051 1.155.103 1.719.051.936.102 1.86.166 2.796.885 13.121 2.667 26.588 2.667 33.963 0 11.659-2.795 29.987-2.795 29.987s75.075 11.095 99.151 12.762c24.064 1.668 33.102 4.451 37.461 0 3.141-3.193 8.756-15.66 12.948-32.347a187.07 187.07 0 0 0 2-8.901c.116-.564.231-1.154.334-1.719.628-3.347 1.192-6.81 1.666-10.35.539-4.053 1.295-8.645 2.218-13.57.116-.603.231-1.206.346-1.822 1.398-7.4 3.103-15.404 4.808-23.253l.346-1.655c1.91-8.824 3.808-17.353 5.244-24.42.128-.616.243-1.219.371-1.796 1.68-8.529 2.616-14.622 1.962-16.071-.205-.436-.833-.962-1.821-1.565-2.679-1.654-7.974-3.886-14.204-6.208-.898-.346-1.834-.679-2.77-1.013a381.411 381.411 0 0 0-7.153-2.565 1102.934 1102.934 0 0 0-9.628-3.284c-9.859-3.27-17.884-5.733-17.884-5.733s-14.667-2.552-33.82-2.552c-16.166 0-35.448-1.45-53.499-.167-3.307.231-6.589.564-9.794 1.013-.218.039-.539.411-.936 1.129a25.246 25.246 0 0 0-.846 1.693c-2.013 4.361-5.193 13.275-8.244 23.074-.231.744-.461 1.514-.705 2.283-.167.513-.32 1.052-.487 1.565a309.664 309.664 0 0 0-3.641 13.031 202.348 202.348 0 0 0-1.936 8.157 58.403 58.403 0 0 0-.346 1.668c-.564 2.783-.987 5.258-1.179 7.362-.5 4.912-.449 10.723-.129 16.776l.026.013Z" fill="#7FCBB4"/><path d="M372.161 178.256c0 .334.038.654.076.962.411 2.553 2.462 4.63 5.116 4.964l11.935 1.578a58.493 58.493 0 0 0 26.91-2.796l.243-.09a6.006 6.006 0 0 0 3.962-5.002l2.384-21.535.27-3.386 1.295-16.43-9.193 3.001-42.191 13.775-.243 8.568-.206 6.926-.205 4.22-.077 2.629-.064 2.219c0 .128-.012.243-.012.385v.012Z" fill="#FCBFA3"/><path d="M372.143 178.256c0 .334.039.654.077.962 4.885-.167 11.539-1.064 17.949-3.014 22.474-6.875 32.704-21.586 32.704-21.586s-3.782-12.159-3.782-13.827c0-.577-1.577-1-3.949-1.244l-42.191 13.776-.243 8.567-.206 6.926-.205 4.22-.077 2.629-.064 2.219c0 .129-.013.244-.013.385v-.013Z" fill="#F7B091"/><path d="M337.959 119.41c.384 4.246 1.064 8.466 2.205 12.647 3.538 13.005 11.397 25.049 23.794 31.013 11.103 5.349 24.115 5.721 35.935 2.758 8.321-2.091 16.449-5.682 23.025-11.223 11.962-10.068 16.423-24.87 17.654-29.897 2.782-11.441 4.064-23.395 3.705-35.17-.231-7.297-.872-15.314-4.218-21.945-8.166-16.199-51.319-22.638-69.973-17.276-18.666 5.374-28.345 10.85-29.384 18.546-1.41 10.44-3.179 22.715-3.23 33.207-.026 5.823-.013 11.594.513 17.34h-.026Z" fill="#FCBFA3"/><path d="M355.721 108.098a9.984 9.984 0 0 1-.487-3.527c.064-1.283.436-2.63 1.41-3.451 3.629-3.027 6.141 4.836 6.411 7.157.102.924.102 1.873-.218 2.745-.321.872-1.026 1.642-1.923 1.86-1.334.32-2.641-.616-3.5-1.668a9.885 9.885 0 0 1-1.693-3.103v-.013ZM408.049 109.047a9.31 9.31 0 0 1 .089-4.245c.27-1.026.744-2.04 1.616-2.642 3.961-2.72 5.564 5.887 5.512 8.183-.025.859-.141 1.731-.525 2.488-.385.757-1.09 1.398-1.923 1.539-1.295.218-2.5-.757-3.257-1.834-.743-1.039-1.243-2.245-1.512-3.502v.013Z" fill="#000"/><path d="M428.201 99.633s12.294-10.056 22.499-4.913c10.205 5.156 5.41 24.883-2.41 31.796-6.641 5.874-16.115 8.196-16.115 8.196l-3.974-35.08Z" fill="#FCBFA3"/><path d="M379.76 111.099c.334-1.013 1.936-.577 1.603.449-1.039 3.206-6.654 10.876-.487 11.787 1.051.154.602 1.757-.449 1.603-2.256-.333-3.923-2.039-4.179-4.322-.385-3.335 2.525-6.477 3.499-9.504l.013-.013Z" fill="#F7B091"/><path d="M369.918 130.633s7 2.014 14.474 1.885c7.474-.128 13.872-2.501 13.872-2.501s-4.923 8.004-14.154 8.94c-9.23.949-14.179-8.324-14.179-8.324h-.013Z" fill="#fff"/><path d="M404.645 91c1.206-1.526 4.218-1.667 5.808-1.59 2.974.167 6.205.603 8.91 2.091 1.577.872 5.654 4.066 1.5 4.233a72.235 72.235 0 0 1-12.679-.616c-1.526-.218-4.308-.86-4.026-2.963.064-.449.231-.834.487-1.154ZM366.291 92.142c.282 2.104-2.5 2.745-4.026 2.963-4.192.59-8.448.795-12.679.616-3.423-.141-.756-2.604.654-3.617 2.859-2.052 6.294-2.514 9.756-2.707 1.59-.09 4.602.065 5.807 1.59.257.322.424.706.488 1.155Z" fill="#657398"/><path d="M436.16 121.719c1.769-1.437 3.602-2.989 4.538-5.118 1.321-3.001.052-5.592-1.372-8.272-.499-.95.936-1.783 1.436-.847 1.385 2.604 2.744 5.413 1.962 8.44-.769 2.962-3.103 5.117-5.397 6.977-.821.667-2.013-.5-1.18-1.18h.013Z" fill="#F7B091"/><path d="M359.883 77.88a6.44 6.44 0 0 1-.641.538c-2.615 1.847-6.077-.308-9.077.27-2.564.5-4.807-.193-7.307.077-2.731.295-4.846 1.808-7.757 1.731-.064 0-.128-.013-.192-.013a13.172 13.172 0 0 1-2-4.514c-2.295-10.159 6.795-22.664 14.487-28.333 9.564-7.055 21.666-7.234 33.153-6.272.333-.334 1-.346 1.333.115a314.2 314.2 0 0 1 5.359.552c1.052.115 1.064 1.783 0 1.667a250.779 250.779 0 0 0-4.577-.474c.206.474.398.962.616 1.423.333-.513 1.256-.448 1.474.218 1.039-.05 2.09-.05 3.141-.77 1.205-.846 2.09-2.103 3.282-2.975 4.141-3.065 9.513-3.36 14.41-2.462 11.859 2.154 24.91 8.44 33.743 16.622 7.846 7.273 16.166 19.072 13.012 30.36-1.089 3.898-3.436 7.797-7.858 7.874-4 .065-9.052-1.667-11.116-5.297-.615-1.09-.718-2.373-1.448-3.386-.962-1.334-2.603-1.654-4.064-2.411a36.584 36.584 0 0 1-3.616-2.13 67.156 67.156 0 0 1 1.385 3.618c.256.757-.615 1.218-1.218.936-6.551-2.95-12.359-7.144-17.923-11.659.116.206.231.41.334.629.641 1.231 2.525 3.758 1.654 5.323-1.911 3.45-7.628-1.886-9.205-3.117-7.628-5.964-13.551-13.775-17.346-22.587-2.449 3.348-3.628 7.362-4.718 11.326-1.026 3.732-1.41 7.567-2.333 11.3-.487 1.975-1.257 3.424-3.231 4.027-.577.18-.987-.295-1.051-.808a41.966 41.966 0 0 1-.077-10.53c-.667 1.539-1.397 3.052-2.885 3.975-1.141.706-2.41.59-3.615 1.065-1.923.744-2.705 2.732-4.102 4.092h-.026Z" fill="#657398"/><path d="M389.898 28.807c.602-.885 2.038-.05 1.436.847-3.474 5.092-5.641 10.671-6.526 16.764-.154 1.051-1.756.602-1.602-.45.91-6.22 3.154-11.966 6.692-17.16ZM391.267 46.443c.821 8.58 5.898 15.558 12.269 21.035.821.705-.371 1.872-1.179 1.18-6.756-5.798-11.897-13.173-12.756-22.215-.103-1.065 1.564-1.065 1.666 0ZM406.538 45.943c1.782 4.86 3.615 9.914 7.179 13.8 1.782 1.937 3.936 3.566 6.449 4.438 1.705.603 3.358.68 4.858 1.745 2.667 1.885 4.616 5.322 6.898 7.657 3.397 3.475 7.205 6.259 11.987 7.413 1.038.257.602 1.86-.449 1.603-3.987-.974-7.385-2.975-10.461-5.682-4.116-3.63-6.859-8.798-12.064-10.786-9.167-3.489-12.769-10.915-16.013-19.752-.372-1.014 1.244-1.437 1.603-.45l.013.014ZM367.952 67.362c2.244-7.875 5.975-15.006 11.154-21.355.679-.834 1.846.359 1.179 1.18-4.987 6.13-8.551 13.018-10.717 20.624-.295 1.026-1.898.59-1.603-.45h-.013ZM332.264 44.968a24.476 24.476 0 0 1 6.654-6.977c.872-.616 1.705.82.846 1.437a22.575 22.575 0 0 0-6.051 6.374c-.577.898-2.013.064-1.436-.846l-.013.012ZM448.958 31.77c3.308-4.54 7.307-8.4 11.987-11.517.897-.603 1.731.846.846 1.436a44.56 44.56 0 0 0-11.384 10.928c-.629.86-2.064.026-1.436-.847h-.013Z" fill="#303F66"/><path d="M454.654 28.73a48.567 48.567 0 0 1 10.551-4.36c1.039-.296 1.475 1.32.449 1.602a46.833 46.833 0 0 0-10.154 4.194c-.935.526-1.782-.91-.846-1.436ZM321.623 26.96c4.731 1.77 8.795 4.656 11.949 8.62.667.833-.513 2.013-1.18 1.18-2.961-3.733-6.743-6.53-11.217-8.197-1-.372-.564-1.975.448-1.603Z" fill="#303F66"/><path d="M311.836 29.398c5.538-.18 10.82.884 15.871 3.142.974.436.128 1.873-.846 1.436-4.782-2.129-9.808-3.078-15.025-2.911-1.077.038-1.065-1.629 0-1.668ZM335.878 74.16a117.12 117.12 0 0 1 16.089-35.925c.59-.885 2.039-.051 1.436.846A115.75 115.75 0 0 0 337.48 74.61c-.269 1.04-1.871.603-1.602-.449ZM329.475 80.586c1.692-7.067 3.141-14.686 7.192-20.83.59-.884 2.026-.05 1.436.847-3.949 5.977-5.385 13.557-7.026 20.432-.243 1.039-1.859.603-1.602-.449ZM463.544 99.556c3.846 11.287 3.667 23.151 3.321 34.925-.026 1.065-1.692 1.077-1.667 0 .346-11.633.539-23.33-3.256-34.49-.346-1.012 1.256-1.448 1.602-.448v.013ZM459.351 139.842a65.336 65.336 0 0 0 2.32-18.969c-.026-1.078 1.641-1.078 1.667 0a66.522 66.522 0 0 1-2.372 19.405c-.282 1.039-1.885.59-1.603-.449l-.012.013ZM328.509 102.852c.116-1.052 1.782-1.065 1.667 0-1.487 13.339-2.885 26.768-.59 40.094.18 1.052-1.423 1.5-1.602.449-2.321-13.493-.987-27.037.525-40.543Z" fill="#303F66"/><path d="M425.629 263.844c0 .551.039 1.116.052 1.693.205 4.566.666 9.606 1.5 15.186.064.551.154 1.103.243 1.667a199.395 199.395 0 0 0 2.91 14.776c7.321 31.244 16.603 15.763 24.961-.988 1.398-2.809 2.782-5.682 4.116-8.35.269-.538.538-1.051.782-1.552 3.346-6.541 6.41-11.671 8.987-11.889 9.884-.834 9.153-3.604 14.435-3.053 5.257.552 10.538-1.949 13.32-9.709.065-.18.129-.372.218-.577.167-.462.372-.988.603-1.565 1.731-4.361 5.051-11.915 8.295-19.201.23-.513.461-1.039.705-1.552 4.243-9.529 8.23-18.187 8.23-18.187s-7.538-5.849-17.461-13.454c-.718-.552-1.448-1.116-2.192-1.681-.91-.705-1.859-1.41-2.808-2.154-8.256-6.298-15.179-10.056-19.717-12.172-3.641-1.693-5.756-2.322-5.756-2.322l-21.808 25.216-1.269 1.437-11.384 13.172s-1.564 1.962-3.218 6.477a24.875 24.875 0 0 0-.577 1.668c-1.82 5.617-3.525 14.39-3.128 27.101l-.039.013ZM270.213 169.188s.628 11.607 1.358 24.626c.039.538.065 1.077.103 1.629.333 6.284.705 12.774 1.013 18.354.051.577.077 1.167.102 1.718.347 5.862.616 10.531.744 12.531.551 8.042 8.743 9.299 17.064 12.916 2.73 1.18 5.051 3.066 7.423 5.079h.012a223.11 223.11 0 0 0 2.513 2.104h.013c1.615 1.334 3.346 2.616 5.282 3.694 3.102 1.731 6.782 2.937 11.551 2.937 3.615 0 6.359-.398 8.436-1.078h.012a10.02 10.02 0 0 0 2.013-.872h.013c1.115-.603 1.962-1.321 2.615-2.103 1.68-2.065 1.962-4.643 2.013-7.119.013-.461.013-1.372.051-2.629 0-.462.013-.962.013-1.513.039-2.065.077-4.759.128-7.876.013-.564.039-1.154.052-1.731.115-7.016.269-15.84.436-24.575 0-.667.012-1.321.038-1.962.167-9.581.321-18.854.436-25.255.013-.615.013-1.218.038-1.782.065-4.169.116-6.708.116-6.708s-6.949-.103-15.974-.218h-.013a279.757 279.757 0 0 0-4.795-.065c-1.436-.012-2.897-.038-4.359-.051-3.359-.051-6.794-.09-10.089-.115-9.231-.077-17.397-.154-20.346-.077l-8.038.167.026-.026Z" fill="#7FCBB4"/><path d="M313.057 169.277c.487.218.949.436 1.436.654a505.66 505.66 0 0 0 7.782 3.476 272.537 272.537 0 0 0 11.422 4.643c7.975 3.027 16.103 5.58 24.615 7.414 15.538 3.36 31.551 6.285 47.409 7.58 7.744.628 15.551.667 23.256-.487 7.795-1.168 15.141-3.887 22.692-6.003a95.71 95.71 0 0 1 6.923-1.693c-.898-.346-1.833-.68-2.769-1.013a104.42 104.42 0 0 0-7.59 1.988c-8.013 2.411-15.833 4.899-24.23 5.643-8.231.731-16.5.231-24.692-.744-16.615-1.988-33.589-4.784-49.781-9.068-5.333-1.411-10.589-3.283-15.807-5.399-3.551-1.437-7.077-2.976-10.602-4.567-1.744-.782-3.5-1.577-5.244-2.36h-.013a290.613 290.613 0 0 0-4.794-.064h-.013ZM271.582 193.814c.038.539.064 1.077.102 1.629a284.443 284.443 0 0 1 34.256 3.617c2.32.384 4.615.821 6.91 1.269 6.872 1.386 13.654 3.066 20.384 4.951 8.244 2.271 16.384 4.81 24.615 7.401 8.525 2.668 16.948 4.168 25.897 3.848 9.025-.334 17.935-1.899 26.961-2.168 11.128-.321 22.23 1.154 33.268 1.065 6.564-.013 13.102-.603 19.602-2.437 2.949-.834 5.846-1.68 8.731-2.463 6.025-1.629 12.025-2.975 18.461-3.309 2.269-.115 4.513-.154 6.782-.115-.718-.552-1.449-1.116-2.192-1.681a102.2 102.2 0 0 0-8.411.398c-4.922.449-9.628 1.616-14.268 2.912-4.359 1.218-8.693 2.565-13.167 3.604-4.718 1.077-9.474 1.526-14.256 1.667-13.589.372-27.358-2.014-40.871-.936-9.487.769-18.961 2.36-28.499 1.718-9.064-.628-17.602-3.719-26.153-6.541a293.91 293.91 0 0 0-16.423-4.912 293.943 293.943 0 0 0-19.935-4.553 288.677 288.677 0 0 0-41.743-4.951l-.051-.013ZM272.695 213.797c.052.577.077 1.167.103 1.718 11.487 2.065 22.91 4.464 34.114 7.658 3.244.936 6.475 1.911 9.68 2.975 5.371 1.796 10.717 3.745 16.153 5.413 4.09 1.244 8.231 2.334 12.449 3.065 9.628 1.668 19.397 1.732 29.127 1.796 18.154.102 36.281.205 54.448.295 2.717.013 5.448.038 8.153.051 9.795.051 19.782-.244 29.756-.205 11.487.064 22.974.564 34.127 2.616 1.77.321 3.513.68 5.244 1.078.231-.513.461-1.039.705-1.552a120.214 120.214 0 0 0-10.718-1.988c-9.551-1.334-19.269-1.732-28.999-1.821-10.884-.103-21.833.23-32.589.166-1.692-.013-3.397-.013-5.09-.038-19.384-.103-38.781-.167-58.178-.334-10.91-.089-21.807-.487-32.422-3.193-2-.513-3.974-1.078-5.962-1.693-7.563-2.296-14.948-5.182-22.525-7.452-1-.295-2-.603-3-.885-11.371-3.245-22.922-5.644-34.563-7.709l-.013.039ZM298.054 246.054c.834.68 1.654 1.386 2.513 2.078h.013c1.718.282 3.41.577 5.115.898a250.96 250.96 0 0 1 12.987 2.745c2.41.577 4.795 1.218 7.179 1.898h.013c6.641 1.847 13.218 3.912 19.91 5.618 8.692 2.219 17.333 3.027 26.294 3.104 17.936.166 35.717 2.732 53.602 3.142 1.41.039 2.833.051 4.243.051 9.231.013 18.128-1.167 27.14-3.027 1.488-.295 2.962-.615 4.449-.897 8.025-1.616 16.038-2.886 24.333-2.194 3.807.321 7.577.898 11.32 1.604.167-.462.372-.988.603-1.565-6.346-1.219-12.718-2.078-19.231-1.898-5.628.153-11.166 1.128-16.666 2.244-3.295.68-6.577 1.411-9.872 2.027-8.743 1.68-17.512 2.18-26.358 1.962-1.243-.038-2.5-.09-3.769-.128-9.743-.462-19.435-1.578-29.14-2.296-9.475-.68-18.936-.385-28.384-.872-12.436-.629-24.423-4.259-36.435-7.734h-.013c-6.513-1.886-13.026-3.72-19.602-5.002-.898-.167-1.795-.347-2.693-.501a219.066 219.066 0 0 0-7.538-1.269l-.013.012ZM366.588 282.48c20.269 1.629 40.563-.949 60.845-.077 1.179.051 2.384.115 3.564.205 9.076.564 17.653 2.437 26.307 4.694.705.18 1.41.372 2.115.552.269-.539.539-1.052.782-1.552-.679-.18-1.346-.385-2.013-.564-.179-.052-.371-.103-.551-.154-9.269-2.565-18.576-4.233-28.217-4.746-.744-.038-1.487-.09-2.231-.102-20.192-.834-40.409 1.718-60.588.089-1.077-.089-1.064 1.578 0 1.668l-.013-.013Z" fill="#fff"/><path d="M347.864 363.246c-.038-5.31.129-10.659.488-16.02.038-.577.077-1.154.128-1.732.051-.936.115-1.885.205-2.809.769-9.26 1.936-18.507 3.167-27.755.166-1.129.32-2.245.461-3.386.885-6.452.731-13.865 8.859-16.097 10.884-2.975 23.525-3.283 34.781-2.834 11.32.449 23.41 1.834 34.063 5.476 8.962 3.066 13.141 9.133 15.487 17.264.449 1.552.885 3.027 1.333 4.451 3.141 10.184 6.09 17.353 7.59 26.37.077.552.167 1.116.244 1.693.23 1.668.435 3.399.551 5.246.038.231.051.487.051.731.115 1.667.167 3.399.18 5.246.038 8.927 1.359 13.993 2.102 22.907.654 7.747-2.051 25.306-1.487 33.22.372 5.181 1.179 10.055 2.769 15.044 1.398 4.4-6.839-56.777-6.121-52.25 1.551 9.915-2.859 33.232-1.821 43.16.539 5.079 2.282 9.44 4.115 14.211 1.77 4.617 2.295 9.158 2.154 14.044-.051 2.296.539 6.426-1.359 8.376-.705.718-1.666.987-2.628 1.27-3 .872-6.23 1.321-9.307 1.949a1566.84 1566.84 0 0 1-34.461 6.631 1550.968 1550.968 0 0 1-16.871 2.95c-3.5.603-9.539 2.86-13 1.334-2.41-1.064-2.91-4.066-3.615-6.144-1.821-5.463-3.641-10.94-5.475-16.43-3.115-9.363-7.089-18.828-8.64-28.525-.706-4.348-.283-8.58-.167-12.928.167-5.862-2.167-9.556-5.5-13.596-.833-1.039-1.769-2.103-2.718-3.232-5.166-6.067-.058 52.776-.699 44.939-.41-5.233.885-10.376 1.231-15.57.385-5.798-.654-11.493-1.859-17.162-2.833-13.364-4.141-26.652-4.231-40.042Z" fill="#B3E8F8"/><path d="M270.219 441.1c5.243-26.537 15.448-53.19 20.397-82.703 0 0 .064-.282.205-.82.82-2.861 3.602-9.8 6.564-16.841.218-.513.449-1.052.666-1.565 3.834-9.081 7.705-17.841 7.705-17.841s6.91 7.58 12.41 6.041c7.539-2.103 9.577-4.861 16.872-7.593 5.423-2.013 10.987-4.078 16.833-4.861a32.792 32.792 0 0 1 3.359-.32c19.512-.821 27.294 14.031 30.755 29.589.128.603.269 1.206.385 1.796 1.397 6.9 2 13.826 2.461 19.495.013.231.039.449.052.667 1.205 14.66.333 28.82-6.064 42.48-3.026 6.464-4.962 12.262-5.359 18.88 1.782-1.231 3.615-2.411 5.525-3.476 1.013-.564 1.936.872.936 1.437a60.46 60.46 0 0 0-6.538 4.219c-.013.885 0 1.77.038 2.694.411 7.965.987 15.943 1.487 23.92.065 1.065-1.782 1.065-1.846 0l-1.153-18.585c-.129-2.18-.295-4.386-.385-6.592-.449.372-.91.731-1.346 1.103-.449 7.118-1.987 14.121-4.756 20.842-.962 2.347-2.167 4.592-3.436 6.811-3.346 5.9 8.974-63.861 7.064-57.422-2.667 9.029-4.064 18.251-7.064 27.229-3.051 9.132-6.949 17.995-11.526 26.576-.179.346-.666.449-1.038.385a706.895 706.895 0 0 0-76.396-10.21c-.654-.051-1-.487-.897-1.052 5.179-28.499-9.099 10.877-5.897-4.245l-.013-.038Z" fill="#B3E8F8"/><path d="m290.617 358.397 57.255 4.849 36.217 3.065 4.731-.834 66.472-11.633.167-.038s-.064-.244-.218-.706c-.269-.949-.833-2.834-1.551-5.374-.154-.551-.295-1.128-.487-1.744-1.821-6.593-4.411-16.507-6.359-26.191-1.167-5.733-2.103-11.389-2.526-16.238-2.025-23.035-3-53.228-7.794-56.152-4.795-2.911-31.782-1.552-52.435-4.168-26.256-3.297-55.627-7.696-61.294-2.617-2.551 2.296-16.371 44.891-18.871 59.051-1.397 7.901-5.372 25.216-8.628 39.03-.128.564-.269 1.116-.384 1.667-1.949 8.247-3.577 14.955-4.116 17.213-.128.538-.205.82-.205.82h.026Z" fill="#B3E8F8"/><path d="M294.922 340.364c.821.103 1.628.231 2.449.372 1.243.218 2.512.436 3.782.68 13.256 2.565 26.512 6.195 40.114 6.207 2.398 0 4.756-.166 7.09-.41 4.141-.449 8.243-1.218 12.371-1.937 8.128-1.398 15.602-1.077 23.692.372.654.116 1.282.231 1.936.334 13.115 2.27 26.153 3.527 39.524 2.744 7.116-.41 14.192-1.667 21.308-1.526 2.179.039 4.346.231 6.5.539.333.038.666.077 1 .128-.077-.577-.167-1.154-.244-1.693-.41-.064-.821-.115-1.231-.18a57.1 57.1 0 0 0-6.795-.461c-8.192-.052-16.332 1.462-24.525 1.731a154.561 154.561 0 0 1-22.332-.885c-4.564-.513-9.077-1.385-13.59-2.18-2.782-.488-5.564-.936-8.359-1.27-6.948-.821-13.551.064-20.384 1.321a110.95 110.95 0 0 1-8.743 1.244c-4.679.462-9.359.565-14.141.167-12.282-1.039-24.204-4.309-36.319-6.477-.911-.167-1.821-.321-2.731-.462-.128.565-.269 1.116-.385 1.668l.013-.026Z" fill="#68CCEA"/><path d="m417.92 251.48 9.936.987c1.321-13.57 2.808-26.768 6.474-39.209 2.885-9.825 7.474-20.034 14.32-31.962a1091.666 1091.666 0 0 0-9.628-3.284c-6.73 11.89-11.307 22.305-14.281 32.411-3.898 13.288-5.462 26.999-6.821 41.057ZM298.617 169.111c.846 6.311 3.449 23.69 7.397 35.285a386.019 386.019 0 0 0 3.193 8.965c4.589 12.3 8.512 20.355 11.192 25.216 4.102 7.452 7.128 11.197 10.141 12.146a5.332 5.332 0 0 0 1.602.244c.538 0 1.064-.064 1.615-.231.885-.244 5.193-1.847 3.667-8.298l-4.859 1.154-4.782 1.154c.103-.872.705-2.36 2.295-3.232a4.457 4.457 0 0 1 2.526-.539c.82.065 1.487.372 1.769.603-.321-.243-.898-.936-1.744-2.116-3.077-4.348-9.41-15.609-17.153-38.299-.5-1.462-.962-3.027-1.436-4.681-2.615-9.491-4.474-21.355-5.333-27.255-3.359-.052-6.795-.077-10.09-.116Z" fill="#B3E8F8"/><path d="M465.12 258.496c1.885-4.476 4.667-8.491 6.462-13.044 3.679-9.35 5.448-19.432 7.679-29.205.244-1.039 1.846-.603 1.603.449-2.116 9.286-3.847 18.816-7.141 27.781-1.398 3.809-3.244 7.324-5.18 10.877-3 5.528-3.653 10.376-2.987 16.596.116 1.065-1.551 1.052-1.666 0-.5-4.707-.641-9.016 1.218-13.454h.012ZM299.021 203.01c2.385 5.541 2.462 11.287 2.834 17.213.474 7.811 2.012 15.493 3.551 23.151.205 1.051-1.398 1.5-1.603.448-1.282-6.323-2.551-12.672-3.243-19.097-.744-6.991-.141-14.289-2.975-20.868-.423-.975 1.013-1.822 1.436-.847Z" fill="#336660"/><path d="M418.717 254.879a3.694 3.694 0 0 1 3.692-3.694 3.695 3.695 0 0 1 0 7.388 3.694 3.694 0 0 1-3.692-3.694ZM326.772 247.619a3.768 3.768 0 0 1 3.769-3.771 3.777 3.777 0 0 1 3.77 3.771 3.777 3.777 0 0 1-3.77 3.771 3.777 3.777 0 0 1-3.769-3.771Z" fill="#fff"/><path d="M427.198 263.549a.787.787 0 0 0 .538-.205.876.876 0 0 0 .295-.565l1.128-14.839a.833.833 0 0 0-.769-.898.84.84 0 0 0-.897.769l-1.065 14.006-9.012-.705 1.333-14.006a.842.842 0 0 0-.743-.911.854.854 0 0 0-.911.744l-1.41 14.853a.828.828 0 0 0 .192.615.821.821 0 0 0 .577.295l10.692.834h.065l-.013.013ZM329.65 257.777c.141 0 .27-.038.398-.102l9.448-5.067a.85.85 0 0 0 .41-.487.853.853 0 0 0-.064-.641l-7.051-13.096a.825.825 0 0 0-1.128-.333.825.825 0 0 0-.333 1.128l6.653 12.365-7.961 4.271-6.436-12.518a.816.816 0 0 0-1.115-.36.832.832 0 0 0-.359 1.116l6.82 13.275a.853.853 0 0 0 .488.411.816.816 0 0 0 .243.038h-.013Z" fill="#68CCEA"/><path d="M329.129 390.181a664.03 664.03 0 0 0 13.295 19.367c4.282 6.002 8.461 12.813 14.294 17.469l-4.73-16.379c-.295-1.026 1.307-1.475 1.602-.449 4.244 14.699 8.487 29.385 12.718 44.07.295 1.026-1.308 1.475-1.603.449-2.436-8.452-4.872-16.892-7.32-25.344-.167.039-.359 0-.551-.128-5.808-4.246-9.808-10.453-13.974-16.212a663.737 663.737 0 0 1-15.192-22.01c-.59-.898.846-1.731 1.435-.846l.026.013Z" fill="#ED934E"/><path d="M382.983 304.58c7.334 0 13.103-3.297 14.756-8.645 1.885-6.067 2.911-24.216 2.949-24.985a.83.83 0 0 0-.218-.616.881.881 0 0 0-.602-.269c-.167 0-17.346-.218-25.154-.629-7.769-.41-24.499-3.296-24.666-3.321a.86.86 0 0 0-.654.166.88.88 0 0 0-.32.59 271.448 271.448 0 0 0-.718 13.121 70.97 70.97 0 0 1-.167 2.783c-.397 5.593-.987 14.045 3.654 16.956 5.769 3.605 13.884 3.938 21.051 4.233 2.602.103 5.064.205 7.32.449.949.103 1.872.154 2.782.154l-.013.013Zm16-32.848c-.231 3.745-1.231 18.572-2.82 23.716-1.629 5.233-7.962 8.183-15.769 7.336-2.308-.244-4.795-.359-7.423-.462-6.949-.282-14.833-.615-20.23-3.989-3.795-2.372-3.244-10.222-2.872-15.416a72.54 72.54 0 0 0 .166-2.835c.141-4.181.359-8.26.641-12.133 3.616.602 17.154 2.834 23.961 3.193 6.821.359 20.731.565 24.346.616v-.026Z" fill="#68CCEA"/><path d="M400.482 276.426s-17.551-.256-28.653-.936c-6.821-.423-23.282-2.604-23.282-2.604l.526-6.554c.051-.641.666-1.09 1.282-.923 2.859.744 9.269 1.68 23.166 2.475 12.653.731 22.589.475 25.948.654a1.258 1.258 0 0 1 1.192 1.309l-.192 6.567.013.012Z" fill="#fff"/><path d="M569.747 136.071c.526-.513 1.282-.615 2.347-.038 5.384 2.899 3.384 14.763 3.102 19.457-.269 4.604-1.115 8.952-1.654 13.544-.628 5.361-3.295 11.531-3.295 11.531s-7.448-.295-11.961-2.206c.141.282.051.692-.192.898l-.231.192c-.346.295-.782.244-1.115-.051-.052-.052-.116-.103-.18-.154a.622.622 0 0 1-.179-.731 3.63 3.63 0 0 1-2.103-.449c-.846-.295-1.692-.603-2.538-.911a36.837 36.837 0 0 1-2.654-1.116c-3.384-1.616-5.666-6.477-7.474-9.619-1.231-2.142-9.974-17.495-3.756-17.341 1.512.038 2.487 1.334 3.32 2.411 1.923 2.476 3.628 5.131 5.397 7.721.616-2.167 1.359-4.296 1.526-6.592.218-2.847.602-5.977.09-8.786-.616-3.309-1.911-8.26-.641-9.555 3.756-3.835 7.012 3.373 8.525 9.183.154-2.283.269-4.553.218-6.836-.038-2.091-1.308-5.926.731-7.555 1.589-1.282 2.987-.705 4.166.68.231-.68.564-1.283 1.129-1.68 1.564-1.103 3.243-.128 4.307 1.116 1.564 1.834 2.526 4.258 3.09 6.9l.025-.013Z" fill="#FCBFA3"/><path d="M549.234 159.889c5.538 2.091 9.666 6.58 11.192 12.326.282 1.039-1.333 1.475-1.602.449-1.372-5.143-5.052-9.273-10.039-11.159-.987-.372-.564-1.988.449-1.603v-.013ZM556.386 145.037c.154 2.013.218 4.027.192 6.041-.012 1.077-1.679 1.077-1.666 0a68.083 68.083 0 0 0-.192-6.041c-.077-1.065 1.589-1.065 1.666 0ZM561.386 132.108c-.103-1.064 1.564-1.064 1.666 0 .616 6.657.77 13.314.449 20.009-.051 1.064-1.718 1.077-1.666 0 .32-6.683.179-13.339-.449-20.009ZM567.89 150.552a39.305 39.305 0 0 0 1.102-11.351c-.051-1.078 1.616-1.065 1.667 0a40.533 40.533 0 0 1-1.154 11.787c-.256 1.039-1.859.603-1.602-.449l-.013.013Z" fill="#F7B091"/><path d="M233.272 203.575c-18.102-4.836-31.243-27.987-40.627-41.441a1093.72 1093.72 0 0 1-18.718-27.73s16.551-14.763 16.769-14.468c4.09 5.541 32.294 28.243 40.397 35.259 15.076 13.031 22.473 15.301 24.999 20.201 2.154 4.181 7.769 3.822 7.769 3.822 5.769 21.804-9.872 29.898-30.602 24.357h.013Z" fill="#FCBFA3"/><path d="M192.604 123.656a.931.931 0 0 1-.192.436c-4.359 5.451-15.025 14.198-15.025 14.198s-12.167-4.797-17.474-8.439c-3.615-2.476-13.91-7.401-13.474-12.66a3.45 3.45 0 0 1 1.577-2.642c-2.436-2.154-4.513-4.668-4.321-8.016.09-1.642.795-2.693 1.782-3.258a15.26 15.26 0 0 1-.833-1.642c-.692-1.667-.68-3.45.41-4.95 1.769-2.463 4.359-1.668 6.962-.103.205-1.27 2.051-3.206 4.025-3.104 3.923.205 15.487 8.812 22.025 14.186.269-3.681-2.256-6.785-2.705-10.35-.32-2.579.769-6.734 4.077-4.374 2.897 2.064 4.449 5.207 5.974 8.298a147.615 147.615 0 0 1 4.744 10.594c.807 2.014 1.205 4.079 1.589 6.208.231 1.308.257 3.386 1.103 4.489.346.449.141.898-.231 1.129h-.013Z" fill="#FCBFA3"/><path d="M183.278 129.094c-6.321-3.848-7.526-11.159-5.129-17.764.372-1.013-1.243-1.449-1.602-.449-2.654 7.324-1.026 15.43 5.897 19.649.923.565 1.757-.885.846-1.436h-.012ZM165.373 107.482a100.97 100.97 0 0 0-11.704-9.312c-.885-.602-1.629.885-.757 1.488a99.176 99.176 0 0 1 11.359 9.068c.782.731 1.897-.513 1.115-1.244h-.013ZM159.633 113.446a141.512 141.512 0 0 0-12.192-9.184c-.884-.602-1.628.898-.743 1.488a140.59 140.59 0 0 1 11.846 8.94c.82.693 1.923-.551 1.102-1.244h-.013ZM159.529 120.77a301.692 301.692 0 0 1-9.077-5.733c-.897-.59-1.731.859-.846 1.436 3 1.962 6.025 3.873 9.077 5.733.923.565 1.756-.885.846-1.436Z" fill="#F7B091"/></g><path d="M423.606 366.995H780s-64.179 159.822-248.127 111.96C347.925 431.093 61.813 521.454 18.2 459.23c-43.614-62.224 43.73-94.011 43.73-94.011l361.676 1.776Z" fill="#F2F2F2"/><path d="M367.219 396.548v.472c-.072.513-.388.99-.979 1.209l-8.012 2.956-68.798 25.373s-.005 0-.014-.005c-.432-.11-11.332-2.948-11.951-2.948-.393 0-.911-2.57-1.244-4.494-.198-1.148-.33-2.067-.33-2.067l2.519-21.837h87.331c.858 0 1.384.638 1.478 1.341Z" fill="#B3B3B3"/><path d="m292.335 421.106 30.165-11.637c1.781-.687 1.293-3.357-.612-3.357h-32.359l2.806 14.994Z" fill="gray"/><path d="M290.66 426.559H74.635a8.402 8.402 0 0 1-8.079-6.073L38.891 273.605c-1.174-6.226 3.613-11.982 9.962-11.982h221.869a8.397 8.397 0 0 1 8.33 7.271l19.938 148.165c.677 5.028-3.245 9.5-8.33 9.5Z" fill="#E6E6E6"/></g><defs><clipPath id="a"><path fill="#fff" d="M0 0h756v494H0z"/></clipPath><clipPath id="b"><path fill="#fff" transform="matrix(-1 0 0 1 575.783 16.854)" d="M0 0h432.105v443.01H0z"/></clipPath></defs></svg>