<svg width="597" height="367" viewBox="0 0 597 367" fill="none" xmlns="http://www.w3.org/2000/svg">
<path d="M87.7248 176.45C126.233 176.45 157.45 145.233 157.45 106.725C157.45 68.2169 126.233 37 87.7248 37C49.2169 37 18 68.2169 18 106.725C18 145.233 49.2169 176.45 87.7248 176.45Z" fill="white"/>
<path d="M54.529 102.372H53.089V91.6473H57.319C58.049 91.6473 58.684 91.7773 59.224 92.0373C59.764 92.2973 60.184 92.6573 60.484 93.1173C60.794 93.5773 60.949 94.1173 60.949 94.7373C60.949 95.3573 60.794 95.8973 60.484 96.3573C60.184 96.8173 59.764 97.1773 59.224 97.4373C58.684 97.6973 58.049 97.8273 57.319 97.8273H54.379V96.5823H57.319C57.989 96.5823 58.514 96.4223 58.894 96.1023C59.284 95.7723 59.479 95.3173 59.479 94.7373C59.479 94.1573 59.284 93.7073 58.894 93.3873C58.514 93.0573 57.989 92.8923 57.319 92.8923H54.529V102.372ZM68.0964 100.182L68.9664 101.082C68.5764 101.562 68.0964 101.937 67.5264 102.207C66.9664 102.477 66.3314 102.612 65.6214 102.612C64.8114 102.612 64.0914 102.442 63.4614 102.102C62.8314 101.762 62.3364 101.297 61.9764 100.707C61.6264 100.107 61.4514 99.4223 61.4514 98.6523C61.4514 97.8823 61.6214 97.2023 61.9614 96.6123C62.3014 96.0123 62.7714 95.5423 63.3714 95.2023C63.9714 94.8623 64.6464 94.6923 65.3964 94.6923C66.1264 94.6923 66.7714 94.8623 67.3314 95.2023C67.9014 95.5323 68.3464 95.9923 68.6664 96.5823C68.9964 97.1623 69.1614 97.8373 69.1614 98.6073V98.6973H67.7514V98.5623C67.7514 98.0223 67.6514 97.5523 67.4514 97.1523C67.2514 96.7423 66.9714 96.4273 66.6114 96.2073C66.2614 95.9773 65.8564 95.8623 65.3964 95.8623C64.9064 95.8623 64.4714 95.9773 64.0914 96.2073C63.7114 96.4373 63.4164 96.7623 63.2064 97.1823C62.9964 97.5923 62.8914 98.0773 62.8914 98.6373C62.8914 99.1973 63.0064 99.6923 63.2364 100.122C63.4764 100.542 63.8064 100.867 64.2264 101.097C64.6464 101.327 65.1264 101.442 65.6664 101.442C66.6564 101.442 67.4664 101.022 68.0964 100.182ZM69.1614 99.1173H62.4864V98.0823H68.9214L69.1614 98.6073V99.1173ZM73.3991 102.627C72.7791 102.627 72.1691 102.517 71.5691 102.297C70.9691 102.067 70.4691 101.737 70.0691 101.307L70.8941 100.437C71.5541 101.107 72.3791 101.442 73.3691 101.442C73.9891 101.442 74.4791 101.327 74.8391 101.097C75.2091 100.857 75.3941 100.542 75.3941 100.152C75.3941 99.4323 74.7841 99.0723 73.5641 99.0723H72.0491V98.0223H73.5791C74.0991 98.0223 74.4941 97.9373 74.7641 97.7673C75.0341 97.5873 75.1691 97.3323 75.1691 97.0023C75.1691 96.6523 75.0041 96.3773 74.6741 96.1773C74.3541 95.9673 73.9191 95.8623 73.3691 95.8623C72.4691 95.8623 71.7041 96.2023 71.0741 96.8823L70.2491 95.9823C71.0691 95.1223 72.1141 94.6923 73.3841 94.6923C74.0041 94.6923 74.5491 94.7873 75.0191 94.9773C75.4891 95.1573 75.8591 95.4073 76.1291 95.7273C76.4091 96.0473 76.5491 96.4173 76.5491 96.8373C76.5491 97.2373 76.4241 97.5873 76.1741 97.8873C75.9341 98.1773 75.5891 98.3873 75.1391 98.5173L75.1241 98.3973C75.6541 98.5273 76.0641 98.7523 76.3541 99.0723C76.6441 99.3923 76.7891 99.7823 76.7891 100.242C76.7891 100.692 76.6391 101.097 76.3391 101.457C76.0391 101.817 75.6341 102.102 75.1241 102.312C74.6241 102.522 74.0491 102.627 73.3991 102.627ZM78.3959 102.372V94.9323H79.7609V100.542L79.6559 100.512L84.1109 94.9323H85.3259V102.372H83.9609V96.7623L84.0809 96.8073L79.6109 102.372H78.3959ZM87.1294 101.862V101.217H87.3994C87.6094 101.217 87.7694 101.172 87.8794 101.082C87.9994 100.992 88.0944 100.842 88.1644 100.632C88.2344 100.412 88.2894 100.107 88.3294 99.7173L88.8694 94.9323H94.2244V101.682H92.8444V95.1873L93.8194 96.1023H89.0944L90.2044 95.1873L89.6344 99.8223C89.5744 100.332 89.4744 100.737 89.3344 101.037C89.2044 101.327 89.0094 101.537 88.7494 101.667C88.4894 101.797 88.1344 101.862 87.6844 101.862H87.1294ZM86.7994 104.337V101.217H95.3344V104.337H94.0144V101.487L94.8844 102.372H87.5944L88.1194 101.487V104.337H86.7994ZM102.784 100.182L103.654 101.082C103.264 101.562 102.784 101.937 102.214 102.207C101.654 102.477 101.019 102.612 100.309 102.612C99.4989 102.612 98.7789 102.442 98.1489 102.102C97.5189 101.762 97.0239 101.297 96.6639 100.707C96.3139 100.107 96.1389 99.4223 96.1389 98.6523C96.1389 97.8823 96.3089 97.2023 96.6489 96.6123C96.9889 96.0123 97.4589 95.5423 98.0589 95.2023C98.6589 94.8623 99.3339 94.6923 100.084 94.6923C100.814 94.6923 101.459 94.8623 102.019 95.2023C102.589 95.5323 103.034 95.9923 103.354 96.5823C103.684 97.1623 103.849 97.8373 103.849 98.6073V98.6973H102.439V98.5623C102.439 98.0223 102.339 97.5523 102.139 97.1523C101.939 96.7423 101.659 96.4273 101.299 96.2073C100.949 95.9773 100.544 95.8623 100.084 95.8623C99.5939 95.8623 99.1589 95.9773 98.7789 96.2073C98.3989 96.4373 98.1039 96.7623 97.8939 97.1823C97.6839 97.5923 97.5789 98.0773 97.5789 98.6373C97.5789 99.1973 97.6939 99.6923 97.9239 100.122C98.1639 100.542 98.4939 100.867 98.9139 101.097C99.3339 101.327 99.8139 101.442 100.354 101.442C101.344 101.442 102.154 101.022 102.784 100.182ZM103.849 99.1173H97.1739V98.0823H103.609L103.849 98.6073V99.1173ZM111.252 102.372V94.9323H112.647V102.372H111.252ZM105.657 102.372V94.9323H107.052V102.372H105.657ZM106.332 99.0423V97.8873H112.032V99.0423H106.332ZM116.834 102.372V95.3673H118.229V102.372H116.834ZM114.149 96.1023V94.9323H120.899V96.1023H114.149ZM46.9317 120.862L44.7717 117.652L46.9317 114.442H48.4917L46.3017 117.652L48.4917 120.862H46.9317ZM49.9017 120.862L47.7417 117.652L49.9017 114.442H51.4617L49.2717 117.652L51.4617 120.862H49.9017ZM61.7404 118.612L62.7454 119.587C62.2754 120.207 61.6654 120.702 60.9154 121.072C60.1654 121.432 59.3404 121.612 58.4404 121.612C57.6504 121.612 56.9204 121.472 56.2504 121.192C55.5904 120.912 55.0154 120.522 54.5254 120.022C54.0354 119.512 53.6504 118.917 53.3704 118.237C53.1004 117.557 52.9654 116.817 52.9654 116.017C52.9654 115.217 53.1054 114.477 53.3854 113.797C53.6654 113.107 54.0504 112.512 54.5404 112.012C55.0404 111.502 55.6254 111.107 56.2954 110.827C56.9654 110.547 57.6954 110.407 58.4854 110.407C59.3754 110.407 60.1904 110.592 60.9304 110.962C61.6704 111.322 62.2754 111.812 62.7454 112.432L61.7404 113.407C61.3804 112.887 60.9254 112.472 60.3754 112.162C59.8254 111.852 59.1954 111.697 58.4854 111.697C57.7254 111.697 57.0404 111.887 56.4304 112.267C55.8304 112.637 55.3554 113.147 55.0054 113.797C54.6554 114.437 54.4804 115.177 54.4804 116.017C54.4804 116.837 54.6554 117.572 55.0054 118.222C55.3554 118.872 55.8304 119.387 56.4304 119.767C57.0404 120.137 57.7254 120.322 58.4854 120.322C59.1954 120.322 59.8254 120.167 60.3754 119.857C60.9254 119.547 61.3804 119.132 61.7404 118.612ZM69.5129 121.372L65.4479 117.517H65.5979L69.2729 113.932H71.0579L67.0679 117.817L66.7829 117.037L71.4179 121.372H69.5129ZM64.4579 121.372V113.932H65.8529V121.372H64.4579ZM75.6733 121.612C74.8933 121.612 74.2033 121.442 73.6033 121.102C73.0033 120.762 72.5333 120.297 72.1933 119.707C71.8533 119.107 71.6833 118.422 71.6833 117.652C71.6833 116.882 71.8533 116.202 72.1933 115.612C72.5333 115.022 73.0033 114.557 73.6033 114.217C74.2033 113.867 74.8933 113.692 75.6733 113.692C76.4533 113.692 77.1383 113.867 77.7283 114.217C78.3283 114.557 78.7983 115.022 79.1383 115.612C79.4883 116.202 79.6633 116.882 79.6633 117.652C79.6633 118.422 79.4883 119.107 79.1383 119.707C78.7983 120.297 78.3283 120.762 77.7283 121.102C77.1383 121.442 76.4533 121.612 75.6733 121.612ZM75.6733 120.412C76.1733 120.412 76.6133 120.297 76.9933 120.067C77.3733 119.837 77.6683 119.512 77.8783 119.092C78.0883 118.672 78.1933 118.192 78.1933 117.652C78.1933 117.112 78.0883 116.637 77.8783 116.227C77.6683 115.807 77.3733 115.482 76.9933 115.252C76.6133 115.012 76.1733 114.892 75.6733 114.892C75.1733 114.892 74.7283 115.012 74.3383 115.252C73.9583 115.482 73.6633 115.807 73.4533 116.227C73.2433 116.637 73.1383 117.112 73.1383 117.652C73.1383 118.192 73.2433 118.672 73.4533 119.092C73.6633 119.512 73.9583 119.837 74.3383 120.067C74.7283 120.297 75.1733 120.412 75.6733 120.412ZM80.6097 121.372V120.202H81.1797C81.4597 120.202 81.6647 120.132 81.7947 119.992C81.9347 119.852 82.0197 119.607 82.0497 119.257L82.5147 113.932H87.9897V121.372H86.5947V114.187L87.5847 115.102H82.7847L83.8647 114.187L83.3547 119.497C83.2947 120.197 83.1097 120.687 82.7997 120.967C82.4897 121.237 82.0247 121.372 81.4047 121.372H80.6097ZM95.3234 121.372L91.2584 117.517H91.4084L95.0834 113.932H96.8684L92.8784 117.817L92.5934 117.037L97.2284 121.372H95.3234ZM90.2684 121.372V113.932H91.6634V121.372H90.2684ZM101.484 121.612C100.704 121.612 100.014 121.442 99.4138 121.102C98.8138 120.762 98.3438 120.297 98.0038 119.707C97.6638 119.107 97.4938 118.422 97.4938 117.652C97.4938 116.882 97.6638 116.202 98.0038 115.612C98.3438 115.022 98.8138 114.557 99.4138 114.217C100.014 113.867 100.704 113.692 101.484 113.692C102.264 113.692 102.949 113.867 103.539 114.217C104.139 114.557 104.609 115.022 104.949 115.612C105.299 116.202 105.474 116.882 105.474 117.652C105.474 118.422 105.299 119.107 104.949 119.707C104.609 120.297 104.139 120.762 103.539 121.102C102.949 121.442 102.264 121.612 101.484 121.612ZM101.484 120.412C101.984 120.412 102.424 120.297 102.804 120.067C103.184 119.837 103.479 119.512 103.689 119.092C103.899 118.672 104.004 118.192 104.004 117.652C104.004 117.112 103.899 116.637 103.689 116.227C103.479 115.807 103.184 115.482 102.804 115.252C102.424 115.012 101.984 114.892 101.484 114.892C100.984 114.892 100.539 115.012 100.149 115.252C99.7688 115.482 99.4738 115.807 99.2638 116.227C99.0538 116.637 98.9488 117.112 98.9488 117.652C98.9488 118.192 99.0538 118.672 99.2638 119.092C99.4738 119.512 99.7688 119.837 100.149 120.067C100.539 120.297 100.984 120.412 101.484 120.412ZM107.275 121.372V113.932H111.07C111.85 113.932 112.465 114.112 112.915 114.472C113.375 114.832 113.605 115.312 113.605 115.912C113.605 116.292 113.49 116.622 113.26 116.902C113.04 117.182 112.74 117.397 112.36 117.547L112.345 117.412C112.815 117.542 113.2 117.762 113.5 118.072C113.8 118.382 113.95 118.762 113.95 119.212C113.95 119.632 113.825 120.007 113.575 120.337C113.325 120.667 112.99 120.922 112.57 121.102C112.15 121.282 111.68 121.372 111.16 121.372H107.275ZM108.61 121.042L107.83 120.277H111.055C111.515 120.277 111.875 120.182 112.135 119.992C112.395 119.792 112.525 119.512 112.525 119.152C112.525 118.802 112.395 118.532 112.135 118.342C111.875 118.142 111.515 118.042 111.055 118.042H107.995V116.992H110.98C111.42 116.992 111.73 116.902 111.91 116.722C112.09 116.542 112.18 116.292 112.18 115.972C112.18 115.662 112.085 115.432 111.895 115.282C111.715 115.122 111.41 115.042 110.98 115.042H107.815L108.61 114.247V121.042ZM119.077 121.612C118.297 121.612 117.607 121.442 117.007 121.102C116.407 120.762 115.937 120.297 115.597 119.707C115.257 119.107 115.087 118.422 115.087 117.652C115.087 116.882 115.257 116.202 115.597 115.612C115.937 115.022 116.407 114.557 117.007 114.217C117.607 113.867 118.297 113.692 119.077 113.692C119.857 113.692 120.542 113.867 121.132 114.217C121.732 114.557 122.202 115.022 122.542 115.612C122.892 116.202 123.067 116.882 123.067 117.652C123.067 118.422 122.892 119.107 122.542 119.707C122.202 120.297 121.732 120.762 121.132 121.102C120.542 121.442 119.857 121.612 119.077 121.612ZM119.077 120.412C119.577 120.412 120.017 120.297 120.397 120.067C120.777 119.837 121.072 119.512 121.282 119.092C121.492 118.672 121.597 118.192 121.597 117.652C121.597 117.112 121.492 116.637 121.282 116.227C121.072 115.807 120.777 115.482 120.397 115.252C120.017 115.012 119.577 114.892 119.077 114.892C118.577 114.892 118.132 115.012 117.742 115.252C117.362 115.482 117.067 115.807 116.857 116.227C116.647 116.637 116.542 117.112 116.542 117.652C116.542 118.192 116.647 118.672 116.857 119.092C117.067 119.512 117.362 119.837 117.742 120.067C118.132 120.297 118.577 120.412 119.077 120.412ZM125.993 114.442L128.168 117.652L125.993 120.862H124.448L126.638 117.652L124.448 114.442H125.993ZM128.963 114.442L131.138 117.652L128.963 120.862H127.418L129.608 117.652L127.418 114.442H128.963Z" fill="black"/>
<path d="M378 98C387.389 98 395 90.3888 395 81C395 71.6112 387.389 64 378 64C368.611 64 361 71.6112 361 81C361 90.3888 368.611 98 378 98Z" fill="#68CCEA"/>
<path d="M222.5 314C236.031 314 247 303.031 247 289.5C247 275.969 236.031 265 222.5 265C208.969 265 198 275.969 198 289.5C198 303.031 208.969 314 222.5 314Z" fill="#7FCBB4"/>
<path d="M108.599 366.199C153.113 366.199 189.199 330.113 189.199 285.599C189.199 241.086 153.113 205 108.599 205C64.0855 205 28 241.086 28 285.599C28 330.113 64.0855 366.199 108.599 366.199Z" fill="white"/>
<path d="M48.7876 278.457H42.7876V277.212H48.7876V278.457ZM50.8876 281.247H49.3576L45.5326 271.452H46.0726L42.2476 281.247H40.7776L45.0376 270.522H46.6126L50.8876 281.247ZM57.5807 281.247L53.5157 277.392H53.6657L57.3407 273.807H59.1257L55.1357 277.692L54.8507 276.912L59.4857 281.247H57.5807ZM52.5257 281.247V273.807H53.9207V281.247H52.5257ZM65.8718 281.247L61.8068 277.392H61.9568L65.6318 273.807H67.4168L63.4268 277.692L63.1418 276.912L67.7768 281.247H65.8718ZM60.8168 281.247V273.807H62.2118V281.247H60.8168ZM70.5028 284.157H69.1078V273.807H70.4878V276.087H70.1728C70.2528 275.597 70.4378 275.162 70.7278 274.782C71.0278 274.402 71.3978 274.107 71.8378 273.897C72.2878 273.677 72.7778 273.567 73.3078 273.567C74.0278 273.567 74.6678 273.742 75.2278 274.092C75.7878 274.432 76.2278 274.902 76.5478 275.502C76.8678 276.092 77.0278 276.767 77.0278 277.527C77.0278 278.297 76.8628 278.982 76.5328 279.582C76.2128 280.172 75.7628 280.637 75.1828 280.977C74.6128 281.317 73.9628 281.487 73.2328 281.487C72.5628 281.487 71.9828 281.352 71.4928 281.082C71.0028 280.802 70.6328 280.427 70.3828 279.957C70.1328 279.477 70.0328 278.942 70.0828 278.352L70.3678 278.067C70.4078 278.497 70.5478 278.882 70.7878 279.222C71.0378 279.562 71.3528 279.827 71.7328 280.017C72.1228 280.197 72.5428 280.287 72.9928 280.287C73.5128 280.287 73.9628 280.172 74.3428 279.942C74.7228 279.702 75.0228 279.372 75.2428 278.952C75.4628 278.532 75.5728 278.057 75.5728 277.527C75.5728 276.997 75.4678 276.527 75.2578 276.117C75.0478 275.697 74.7578 275.367 74.3878 275.127C74.0178 274.887 73.5828 274.767 73.0828 274.767C72.5828 274.767 72.1378 274.892 71.7478 275.142C71.3678 275.382 71.0628 275.722 70.8328 276.162C70.6128 276.602 70.5028 277.112 70.5028 277.692V284.157ZM85.029 279.057L85.899 279.957C85.509 280.437 85.029 280.812 84.459 281.082C83.899 281.352 83.264 281.487 82.554 281.487C81.744 281.487 81.024 281.317 80.394 280.977C79.764 280.637 79.269 280.172 78.909 279.582C78.559 278.982 78.384 278.297 78.384 277.527C78.384 276.757 78.554 276.077 78.894 275.487C79.234 274.887 79.704 274.417 80.304 274.077C80.904 273.737 81.579 273.567 82.329 273.567C83.059 273.567 83.704 273.737 84.264 274.077C84.834 274.407 85.279 274.867 85.599 275.457C85.929 276.037 86.094 276.712 86.094 277.482V277.572H84.684V277.437C84.684 276.897 84.584 276.427 84.384 276.027C84.184 275.617 83.904 275.302 83.544 275.082C83.194 274.852 82.789 274.737 82.329 274.737C81.839 274.737 81.404 274.852 81.024 275.082C80.644 275.312 80.349 275.637 80.139 276.057C79.929 276.467 79.824 276.952 79.824 277.512C79.824 278.072 79.939 278.567 80.169 278.997C80.409 279.417 80.739 279.742 81.159 279.972C81.579 280.202 82.059 280.317 82.599 280.317C83.589 280.317 84.399 279.897 85.029 279.057ZM86.094 277.992H79.419V276.957H85.854L86.094 277.482V277.992ZM87.4067 280.737V280.092H87.6767C87.8867 280.092 88.0467 280.047 88.1567 279.957C88.2767 279.867 88.3717 279.717 88.4417 279.507C88.5117 279.287 88.5667 278.982 88.6067 278.592L89.1467 273.807H94.5017V280.557H93.1217V274.062L94.0967 274.977H89.3717L90.4817 274.062L89.9117 278.697C89.8517 279.207 89.7517 279.612 89.6117 279.912C89.4817 280.202 89.2867 280.412 89.0267 280.542C88.7667 280.672 88.4117 280.737 87.9617 280.737H87.4067ZM87.0767 283.212V280.092H95.6117V283.212H94.2917V280.362L95.1617 281.247H87.8717L88.3967 280.362V283.212H87.0767ZM97.4671 281.247V273.807H98.8321V279.417L98.7271 279.387L103.182 273.807H104.397V281.247H103.032V275.637L103.152 275.682L98.6821 281.247H97.4671ZM108.601 281.247V274.242H109.996V281.247H108.601ZM105.916 274.977V273.807H112.666V274.977H105.916ZM117.398 281.487C116.618 281.487 115.928 281.317 115.328 280.977C114.728 280.637 114.258 280.172 113.918 279.582C113.578 278.982 113.408 278.297 113.408 277.527C113.408 276.757 113.578 276.077 113.918 275.487C114.258 274.897 114.728 274.432 115.328 274.092C115.928 273.742 116.618 273.567 117.398 273.567C118.178 273.567 118.863 273.742 119.453 274.092C120.053 274.432 120.523 274.897 120.863 275.487C121.213 276.077 121.388 276.757 121.388 277.527C121.388 278.297 121.213 278.982 120.863 279.582C120.523 280.172 120.053 280.637 119.453 280.977C118.863 281.317 118.178 281.487 117.398 281.487ZM117.398 280.287C117.898 280.287 118.338 280.172 118.718 279.942C119.098 279.712 119.393 279.387 119.603 278.967C119.813 278.547 119.918 278.067 119.918 277.527C119.918 276.987 119.813 276.512 119.603 276.102C119.393 275.682 119.098 275.357 118.718 275.127C118.338 274.887 117.898 274.767 117.398 274.767C116.898 274.767 116.453 274.887 116.063 275.127C115.683 275.357 115.388 275.682 115.178 276.102C114.968 276.512 114.863 276.987 114.863 277.527C114.863 278.067 114.968 278.547 115.178 278.967C115.388 279.387 115.683 279.712 116.063 279.942C116.453 280.172 116.898 280.287 117.398 280.287ZM123.19 281.247V273.807H126.985C127.765 273.807 128.38 273.987 128.83 274.347C129.29 274.707 129.52 275.187 129.52 275.787C129.52 276.167 129.405 276.497 129.175 276.777C128.955 277.057 128.655 277.272 128.275 277.422L128.26 277.287C128.73 277.417 129.115 277.637 129.415 277.947C129.715 278.257 129.865 278.637 129.865 279.087C129.865 279.507 129.74 279.882 129.49 280.212C129.24 280.542 128.905 280.797 128.485 280.977C128.065 281.157 127.595 281.247 127.075 281.247H123.19ZM124.525 280.917L123.745 280.152H126.97C127.43 280.152 127.79 280.057 128.05 279.867C128.31 279.667 128.44 279.387 128.44 279.027C128.44 278.677 128.31 278.407 128.05 278.217C127.79 278.017 127.43 277.917 126.97 277.917H123.91V276.867H126.895C127.335 276.867 127.645 276.777 127.825 276.597C128.005 276.417 128.095 276.167 128.095 275.847C128.095 275.537 128 275.307 127.81 275.157C127.63 274.997 127.325 274.917 126.895 274.917H123.73L124.525 274.122V280.917ZM138.075 281.247H136.77V279.777L136.725 279.417V276.642C136.725 276.052 136.535 275.587 136.155 275.247C135.775 274.897 135.26 274.722 134.61 274.722C134.14 274.722 133.71 274.822 133.32 275.022C132.93 275.212 132.59 275.477 132.3 275.817L131.43 274.917C131.84 274.487 132.31 274.157 132.84 273.927C133.38 273.687 133.98 273.567 134.64 273.567C135.32 273.567 135.915 273.692 136.425 273.942C136.945 274.192 137.35 274.542 137.64 274.992C137.93 275.432 138.075 275.967 138.075 276.597V281.247ZM134.025 281.487C133.465 281.487 132.97 281.387 132.54 281.187C132.11 280.977 131.775 280.692 131.535 280.332C131.295 279.972 131.175 279.562 131.175 279.102C131.175 278.582 131.32 278.142 131.61 277.782C131.91 277.412 132.32 277.132 132.84 276.942C133.36 276.742 133.955 276.642 134.625 276.642H136.89V277.677H134.775C134.145 277.677 133.625 277.792 133.215 278.022C132.815 278.242 132.615 278.587 132.615 279.057C132.615 279.457 132.765 279.777 133.065 280.017C133.375 280.257 133.775 280.377 134.265 280.377C134.745 280.377 135.18 280.282 135.57 280.092C135.96 279.902 136.27 279.637 136.5 279.297C136.74 278.947 136.875 278.547 136.905 278.097L137.4 278.367C137.4 278.967 137.255 279.502 136.965 279.972C136.675 280.442 136.275 280.812 135.765 281.082C135.265 281.352 134.685 281.487 134.025 281.487ZM145.689 281.247V273.807H147.084V281.247H145.689ZM140.094 281.247V273.807H141.489V281.247H140.094ZM140.769 277.917V276.762H146.469V277.917H140.769ZM154.962 281.247V273.807H156.357V281.247H154.962ZM149.367 281.247V273.807H150.762V281.247H149.367ZM150.042 277.917V276.762H155.742V277.917H150.042ZM164.984 281.247H163.679V279.777L163.634 279.417V276.642C163.634 276.052 163.444 275.587 163.064 275.247C162.684 274.897 162.169 274.722 161.519 274.722C161.049 274.722 160.619 274.822 160.229 275.022C159.839 275.212 159.499 275.477 159.209 275.817L158.339 274.917C158.749 274.487 159.219 274.157 159.749 273.927C160.289 273.687 160.889 273.567 161.549 273.567C162.229 273.567 162.824 273.692 163.334 273.942C163.854 274.192 164.259 274.542 164.549 274.992C164.839 275.432 164.984 275.967 164.984 276.597V281.247ZM160.934 281.487C160.374 281.487 159.879 281.387 159.449 281.187C159.019 280.977 158.684 280.692 158.444 280.332C158.204 279.972 158.084 279.562 158.084 279.102C158.084 278.582 158.229 278.142 158.519 277.782C158.819 277.412 159.229 277.132 159.749 276.942C160.269 276.742 160.864 276.642 161.534 276.642H163.799V277.677H161.684C161.054 277.677 160.534 277.792 160.124 278.022C159.724 278.242 159.524 278.587 159.524 279.057C159.524 279.457 159.674 279.777 159.974 280.017C160.284 280.257 160.684 280.377 161.174 280.377C161.654 280.377 162.089 280.282 162.479 280.092C162.869 279.902 163.179 279.637 163.409 279.297C163.649 278.947 163.784 278.547 163.814 278.097L164.309 278.367C164.309 278.967 164.164 279.502 163.874 279.972C163.584 280.442 163.184 280.812 162.674 281.082C162.174 281.352 161.594 281.487 160.934 281.487ZM171.788 281.247V274.017L172.673 274.932H169.718C169.328 274.932 168.988 275.027 168.698 275.217C168.408 275.397 168.263 275.697 168.263 276.117C168.263 276.497 168.393 276.792 168.653 277.002C168.913 277.212 169.273 277.317 169.733 277.317H172.448V278.397H169.643C168.803 278.397 168.128 278.192 167.618 277.782C167.108 277.362 166.853 276.807 166.853 276.117C166.853 275.677 166.973 275.287 167.213 274.947C167.463 274.597 167.798 274.322 168.218 274.122C168.648 273.912 169.128 273.807 169.658 273.807H173.123V281.247H171.788ZM166.508 281.247L169.163 277.857H170.648L168.128 281.247H166.508ZM66.704 300.247H65.264V289.522H66.704V300.247ZM73.3765 300.247H71.9365V290.632H73.3765V300.247ZM76.8865 290.782H68.4415V289.522H76.8865V290.782ZM80.6207 296.587H76.5407V295.372H80.6207V296.587ZM87.2951 300.247L83.2301 296.392H83.3801L87.0551 292.807H88.8401L84.8501 296.692L84.5651 295.912L89.2001 300.247H87.2951ZM82.2401 300.247V292.807H83.6351V300.247H82.2401ZM93.4555 300.487C92.6755 300.487 91.9855 300.317 91.3855 299.977C90.7855 299.637 90.3155 299.172 89.9755 298.582C89.6355 297.982 89.4655 297.297 89.4655 296.527C89.4655 295.757 89.6355 295.077 89.9755 294.487C90.3155 293.897 90.7855 293.432 91.3855 293.092C91.9855 292.742 92.6755 292.567 93.4555 292.567C94.2355 292.567 94.9205 292.742 95.5105 293.092C96.1105 293.432 96.5805 293.897 96.9205 294.487C97.2705 295.077 97.4455 295.757 97.4455 296.527C97.4455 297.297 97.2705 297.982 96.9205 298.582C96.5805 299.172 96.1105 299.637 95.5105 299.977C94.9205 300.317 94.2355 300.487 93.4555 300.487ZM93.4555 299.287C93.9555 299.287 94.3955 299.172 94.7755 298.942C95.1555 298.712 95.4505 298.387 95.6605 297.967C95.8705 297.547 95.9755 297.067 95.9755 296.527C95.9755 295.987 95.8705 295.512 95.6605 295.102C95.4505 294.682 95.1555 294.357 94.7755 294.127C94.3955 293.887 93.9555 293.767 93.4555 293.767C92.9555 293.767 92.5105 293.887 92.1205 294.127C91.7405 294.357 91.4455 294.682 91.2355 295.102C91.0255 295.512 90.9205 295.987 90.9205 296.527C90.9205 297.067 91.0255 297.547 91.2355 297.967C91.4455 298.387 91.7405 298.712 92.1205 298.942C92.5105 299.172 92.9555 299.287 93.4555 299.287ZM99.2469 300.247V292.807H100.792L103.717 298.297H103.462L106.372 292.807H107.962V300.247H106.657V293.287L107.302 293.467L104.077 299.542H103.027L99.8169 293.467L100.522 293.302V300.247H99.2469ZM110.263 300.247V292.807H116.983V300.247H115.588V293.062L116.578 293.977H110.548L111.658 293.062V300.247H110.263ZM125.616 300.247H124.311V298.777L124.266 298.417V295.642C124.266 295.052 124.076 294.587 123.696 294.247C123.316 293.897 122.801 293.722 122.151 293.722C121.681 293.722 121.251 293.822 120.861 294.022C120.471 294.212 120.131 294.477 119.841 294.817L118.971 293.917C119.381 293.487 119.851 293.157 120.381 292.927C120.921 292.687 121.521 292.567 122.181 292.567C122.861 292.567 123.456 292.692 123.966 292.942C124.486 293.192 124.891 293.542 125.181 293.992C125.471 294.432 125.616 294.967 125.616 295.597V300.247ZM121.566 300.487C121.006 300.487 120.511 300.387 120.081 300.187C119.651 299.977 119.316 299.692 119.076 299.332C118.836 298.972 118.716 298.562 118.716 298.102C118.716 297.582 118.861 297.142 119.151 296.782C119.451 296.412 119.861 296.132 120.381 295.942C120.901 295.742 121.496 295.642 122.166 295.642H124.431V296.677H122.316C121.686 296.677 121.166 296.792 120.756 297.022C120.356 297.242 120.156 297.587 120.156 298.057C120.156 298.457 120.306 298.777 120.606 299.017C120.916 299.257 121.316 299.377 121.806 299.377C122.286 299.377 122.721 299.282 123.111 299.092C123.501 298.902 123.811 298.637 124.041 298.297C124.281 297.947 124.416 297.547 124.446 297.097L124.941 297.367C124.941 297.967 124.796 298.502 124.506 298.972C124.216 299.442 123.816 299.812 123.306 300.082C122.806 300.352 122.226 300.487 121.566 300.487ZM133.231 300.247V292.807H134.626V300.247H133.231ZM127.636 300.247V292.807H129.031V300.247H127.636ZM128.311 296.917V295.762H134.011V296.917H128.311ZM136.908 300.247V292.807H138.273V298.417L138.168 298.387L142.623 292.807H143.838V300.247H142.473V294.637L142.593 294.682L138.123 300.247H136.908ZM150.922 300.247V293.017L151.807 293.932H148.852C148.462 293.932 148.122 294.027 147.832 294.217C147.542 294.397 147.397 294.697 147.397 295.117C147.397 295.497 147.527 295.792 147.787 296.002C148.047 296.212 148.407 296.317 148.867 296.317H151.582V297.397H148.777C147.937 297.397 147.262 297.192 146.752 296.782C146.242 296.362 145.987 295.807 145.987 295.117C145.987 294.677 146.107 294.287 146.347 293.947C146.597 293.597 146.932 293.322 147.352 293.122C147.782 292.912 148.262 292.807 148.792 292.807H152.257V300.247H150.922ZM145.642 300.247L148.297 296.857H149.782L147.262 300.247H145.642Z" fill="black"/>
<path d="M501 193C554.019 193 597 149.796 597 96.5C597 43.2045 554.019 0 501 0C447.981 0 405 43.2045 405 96.5C405 149.796 447.981 193 501 193Z" fill="white"/>
<path d="M451.611 83.24C450.801 83.24 450.056 83.1 449.376 82.82C448.696 82.54 448.101 82.15 447.591 81.65C447.081 81.14 446.686 80.545 446.406 79.865C446.126 79.175 445.986 78.43 445.986 77.63C445.986 76.83 446.126 76.09 446.406 75.41C446.686 74.73 447.081 74.14 447.591 73.64C448.101 73.13 448.696 72.735 449.376 72.455C450.056 72.175 450.801 72.035 451.611 72.035C452.421 72.035 453.166 72.175 453.846 72.455C454.526 72.735 455.121 73.13 455.631 73.64C456.141 74.14 456.536 74.73 456.816 75.41C457.096 76.09 457.236 76.83 457.236 77.63C457.236 78.43 457.096 79.175 456.816 79.865C456.536 80.545 456.141 81.14 455.631 81.65C455.121 82.15 454.526 82.54 453.846 82.82C453.166 83.1 452.421 83.24 451.611 83.24ZM451.611 81.95C452.421 81.95 453.136 81.765 453.756 81.395C454.376 81.025 454.856 80.515 455.196 79.865C455.546 79.205 455.721 78.46 455.721 77.63C455.721 76.8 455.546 76.06 455.196 75.41C454.856 74.76 454.376 74.25 453.756 73.88C453.136 73.51 452.421 73.325 451.611 73.325C450.811 73.325 450.096 73.51 449.466 73.88C448.846 74.25 448.361 74.76 448.011 75.41C447.671 76.06 447.501 76.8 447.501 77.63C447.501 78.46 447.671 79.205 448.011 79.865C448.361 80.515 448.846 81.025 449.466 81.395C450.096 81.765 450.811 81.95 451.611 81.95ZM464.773 83V75.56H466.168V83H464.773ZM459.178 83V75.56H460.573V83H459.178ZM459.853 79.67V78.515H465.553V79.67H459.853ZM467.596 83V81.83H468.166C468.446 81.83 468.651 81.76 468.781 81.62C468.921 81.48 469.006 81.235 469.036 80.885L469.501 75.56H474.976V83H473.581V75.815L474.571 76.73H469.771L470.851 75.815L470.341 81.125C470.281 81.825 470.096 82.315 469.786 82.595C469.476 82.865 469.011 83 468.391 83H467.596ZM483.599 83H482.294V81.53L482.249 81.17V78.395C482.249 77.805 482.059 77.34 481.679 77C481.299 76.65 480.784 76.475 480.134 76.475C479.664 76.475 479.234 76.575 478.844 76.775C478.454 76.965 478.114 77.23 477.824 77.57L476.954 76.67C477.364 76.24 477.834 75.91 478.364 75.68C478.904 75.44 479.504 75.32 480.164 75.32C480.844 75.32 481.439 75.445 481.949 75.695C482.469 75.945 482.874 76.295 483.164 76.745C483.454 77.185 483.599 77.72 483.599 78.35V83ZM479.549 83.24C478.989 83.24 478.494 83.14 478.064 82.94C477.634 82.73 477.299 82.445 477.059 82.085C476.819 81.725 476.699 81.315 476.699 80.855C476.699 80.335 476.844 79.895 477.134 79.535C477.434 79.165 477.844 78.885 478.364 78.695C478.884 78.495 479.479 78.395 480.149 78.395H482.414V79.43H480.299C479.669 79.43 479.149 79.545 478.739 79.775C478.339 79.995 478.139 80.34 478.139 80.81C478.139 81.21 478.289 81.53 478.589 81.77C478.899 82.01 479.299 82.13 479.789 82.13C480.269 82.13 480.704 82.035 481.094 81.845C481.484 81.655 481.794 81.39 482.024 81.05C482.264 80.7 482.399 80.3 482.429 79.85L482.924 80.12C482.924 80.72 482.779 81.255 482.489 81.725C482.199 82.195 481.799 82.565 481.289 82.835C480.789 83.105 480.209 83.24 479.549 83.24ZM485.619 83V75.56H486.984V81.17L486.879 81.14L491.334 75.56H492.549V83H491.184V77.39L491.304 77.435L486.834 83H485.619ZM489.174 74.225C488.484 74.225 487.909 74.05 487.449 73.7C486.989 73.34 486.719 72.835 486.639 72.185H487.824C487.884 72.605 488.029 72.91 488.259 73.1C488.499 73.29 488.804 73.385 489.174 73.385C489.544 73.385 489.844 73.29 490.074 73.1C490.314 72.91 490.464 72.605 490.524 72.185H491.709C491.629 72.835 491.359 73.34 490.899 73.7C490.439 74.05 489.864 74.225 489.174 74.225ZM500.442 83V75.56H501.837V83H500.442ZM494.847 83V75.56H496.242V83H494.847ZM495.522 79.67V78.515H501.222V79.67H495.522ZM507.524 79.34H503.444V78.125H507.524V79.34ZM509.144 83V75.56H510.524V82.685L510.164 81.845H514.049L513.659 82.685V75.56H515.039V82.685L514.754 81.845H518.669L518.174 82.685V75.56H519.554V83H509.144ZM526.899 83L522.834 79.145H522.984L526.659 75.56H528.444L524.454 79.445L524.169 78.665L528.804 83H526.899ZM521.844 83V75.56H523.239V83H521.844ZM533.06 83.24C532.28 83.24 531.59 83.07 530.99 82.73C530.39 82.39 529.92 81.925 529.58 81.335C529.24 80.735 529.07 80.05 529.07 79.28C529.07 78.51 529.24 77.83 529.58 77.24C529.92 76.65 530.39 76.185 530.99 75.845C531.59 75.495 532.28 75.32 533.06 75.32C533.84 75.32 534.525 75.495 535.115 75.845C535.715 76.185 536.185 76.65 536.525 77.24C536.875 77.83 537.05 78.51 537.05 79.28C537.05 80.05 536.875 80.735 536.525 81.335C536.185 81.925 535.715 82.39 535.115 82.73C534.525 83.07 533.84 83.24 533.06 83.24ZM533.06 82.04C533.56 82.04 534 81.925 534.38 81.695C534.76 81.465 535.055 81.14 535.265 80.72C535.475 80.3 535.58 79.82 535.58 79.28C535.58 78.74 535.475 78.265 535.265 77.855C535.055 77.435 534.76 77.11 534.38 76.88C534 76.64 533.56 76.52 533.06 76.52C532.56 76.52 532.115 76.64 531.725 76.88C531.345 77.11 531.05 77.435 530.84 77.855C530.63 78.265 530.525 78.74 530.525 79.28C530.525 79.82 530.63 80.3 530.84 80.72C531.05 81.14 531.345 81.465 531.725 81.695C532.115 81.925 532.56 82.04 533.06 82.04ZM537.996 83V81.83H538.566C538.846 81.83 539.051 81.76 539.181 81.62C539.321 81.48 539.406 81.235 539.436 80.885L539.901 75.56H545.376V83H543.981V75.815L544.971 76.73H540.171L541.251 75.815L540.741 81.125C540.681 81.825 540.496 82.315 540.186 82.595C539.876 82.865 539.411 83 538.791 83H537.996ZM554 83H552.695V81.53L552.65 81.17V78.395C552.65 77.805 552.46 77.34 552.08 77C551.7 76.65 551.185 76.475 550.535 76.475C550.065 76.475 549.635 76.575 549.245 76.775C548.855 76.965 548.515 77.23 548.225 77.57L547.355 76.67C547.765 76.24 548.235 75.91 548.765 75.68C549.305 75.44 549.905 75.32 550.565 75.32C551.245 75.32 551.84 75.445 552.35 75.695C552.87 75.945 553.275 76.295 553.565 76.745C553.855 77.185 554 77.72 554 78.35V83ZM549.95 83.24C549.39 83.24 548.895 83.14 548.465 82.94C548.035 82.73 547.7 82.445 547.46 82.085C547.22 81.725 547.1 81.315 547.1 80.855C547.1 80.335 547.245 79.895 547.535 79.535C547.835 79.165 548.245 78.885 548.765 78.695C549.285 78.495 549.88 78.395 550.55 78.395H552.815V79.43H550.7C550.07 79.43 549.55 79.545 549.14 79.775C548.74 79.995 548.54 80.34 548.54 80.81C548.54 81.21 548.69 81.53 548.99 81.77C549.3 82.01 549.7 82.13 550.19 82.13C550.67 82.13 551.105 82.035 551.495 81.845C551.885 81.655 552.195 81.39 552.425 81.05C552.665 80.7 552.8 80.3 552.83 79.85L553.325 80.12C553.325 80.72 553.18 81.255 552.89 81.725C552.6 82.195 552.2 82.565 551.69 82.835C551.19 83.105 550.61 83.24 549.95 83.24ZM445.606 102V94.56H450.886V95.73H445.876L447.001 94.845V102H445.606ZM455.694 102.24C454.914 102.24 454.224 102.07 453.624 101.73C453.024 101.39 452.554 100.925 452.214 100.335C451.874 99.735 451.704 99.05 451.704 98.28C451.704 97.51 451.874 96.83 452.214 96.24C452.554 95.65 453.024 95.185 453.624 94.845C454.224 94.495 454.914 94.32 455.694 94.32C456.474 94.32 457.159 94.495 457.749 94.845C458.349 95.185 458.819 95.65 459.159 96.24C459.509 96.83 459.684 97.51 459.684 98.28C459.684 99.05 459.509 99.735 459.159 100.335C458.819 100.925 458.349 101.39 457.749 101.73C457.159 102.07 456.474 102.24 455.694 102.24ZM455.694 101.04C456.194 101.04 456.634 100.925 457.014 100.695C457.394 100.465 457.689 100.14 457.899 99.72C458.109 99.3 458.214 98.82 458.214 98.28C458.214 97.74 458.109 97.265 457.899 96.855C457.689 96.435 457.394 96.11 457.014 95.88C456.634 95.64 456.194 95.52 455.694 95.52C455.194 95.52 454.749 95.64 454.359 95.88C453.979 96.11 453.684 96.435 453.474 96.855C453.264 97.265 453.159 97.74 453.159 98.28C453.159 98.82 453.264 99.3 453.474 99.72C453.684 100.14 453.979 100.465 454.359 100.695C454.749 100.925 455.194 101.04 455.694 101.04ZM460.624 101.49V100.845H460.894C461.104 100.845 461.264 100.8 461.374 100.71C461.494 100.62 461.589 100.47 461.659 100.26C461.729 100.04 461.784 99.735 461.824 99.345L462.364 94.56H467.719V101.31H466.339V94.815L467.314 95.73H462.589L463.699 94.815L463.129 99.45C463.069 99.96 462.969 100.365 462.829 100.665C462.699 100.955 462.504 101.165 462.244 101.295C461.984 101.425 461.629 101.49 461.179 101.49H460.624ZM460.294 103.965V100.845H468.829V103.965H467.509V101.115L468.379 102H461.089L461.614 101.115V103.965H460.294ZM476.736 102H475.431V100.53L475.386 100.17V97.395C475.386 96.805 475.196 96.34 474.816 96C474.436 95.65 473.921 95.475 473.271 95.475C472.801 95.475 472.371 95.575 471.981 95.775C471.591 95.965 471.251 96.23 470.961 96.57L470.091 95.67C470.501 95.24 470.971 94.91 471.501 94.68C472.041 94.44 472.641 94.32 473.301 94.32C473.981 94.32 474.576 94.445 475.086 94.695C475.606 94.945 476.011 95.295 476.301 95.745C476.591 96.185 476.736 96.72 476.736 97.35V102ZM472.686 102.24C472.126 102.24 471.631 102.14 471.201 101.94C470.771 101.73 470.436 101.445 470.196 101.085C469.956 100.725 469.836 100.315 469.836 99.855C469.836 99.335 469.981 98.895 470.271 98.535C470.571 98.165 470.981 97.885 471.501 97.695C472.021 97.495 472.616 97.395 473.286 97.395H475.551V98.43H473.436C472.806 98.43 472.286 98.545 471.876 98.775C471.476 98.995 471.276 99.34 471.276 99.81C471.276 100.21 471.426 100.53 471.726 100.77C472.036 101.01 472.436 101.13 472.926 101.13C473.406 101.13 473.841 101.035 474.231 100.845C474.621 100.655 474.931 100.39 475.161 100.05C475.401 99.7 475.536 99.3 475.566 98.85L476.061 99.12C476.061 99.72 475.916 100.255 475.626 100.725C475.336 101.195 474.936 101.565 474.426 101.835C473.926 102.105 473.346 102.24 472.686 102.24ZM481.685 102V94.56H488.405V102H487.01V94.815L488 95.73H481.97L483.08 94.815V102H481.685ZM494.219 102.24C493.439 102.24 492.749 102.07 492.149 101.73C491.549 101.39 491.079 100.925 490.739 100.335C490.399 99.735 490.229 99.05 490.229 98.28C490.229 97.51 490.399 96.83 490.739 96.24C491.079 95.65 491.549 95.185 492.149 94.845C492.749 94.495 493.439 94.32 494.219 94.32C494.999 94.32 495.684 94.495 496.274 94.845C496.874 95.185 497.344 95.65 497.684 96.24C498.034 96.83 498.209 97.51 498.209 98.28C498.209 99.05 498.034 99.735 497.684 100.335C497.344 100.925 496.874 101.39 496.274 101.73C495.684 102.07 494.999 102.24 494.219 102.24ZM494.219 101.04C494.719 101.04 495.159 100.925 495.539 100.695C495.919 100.465 496.214 100.14 496.424 99.72C496.634 99.3 496.739 98.82 496.739 98.28C496.739 97.74 496.634 97.265 496.424 96.855C496.214 96.435 495.919 96.11 495.539 95.88C495.159 95.64 494.719 95.52 494.219 95.52C493.719 95.52 493.274 95.64 492.884 95.88C492.504 96.11 492.209 96.435 491.999 96.855C491.789 97.265 491.684 97.74 491.684 98.28C491.684 98.82 491.789 99.3 491.999 99.72C492.209 100.14 492.504 100.465 492.884 100.695C493.274 100.925 493.719 101.04 494.219 101.04ZM502.94 102V94.56H506.735C507.515 94.56 508.13 94.74 508.58 95.1C509.04 95.46 509.27 95.94 509.27 96.54C509.27 96.92 509.155 97.25 508.925 97.53C508.705 97.81 508.405 98.025 508.025 98.175L508.01 98.04C508.48 98.17 508.865 98.39 509.165 98.7C509.465 99.01 509.615 99.39 509.615 99.84C509.615 100.26 509.49 100.635 509.24 100.965C508.99 101.295 508.655 101.55 508.235 101.73C507.815 101.91 507.345 102 506.825 102H502.94ZM504.275 101.67L503.495 100.905H506.72C507.18 100.905 507.54 100.81 507.8 100.62C508.06 100.42 508.19 100.14 508.19 99.78C508.19 99.43 508.06 99.16 507.8 98.97C507.54 98.77 507.18 98.67 506.72 98.67H503.66V97.62H506.645C507.085 97.62 507.395 97.53 507.575 97.35C507.755 97.17 507.845 96.92 507.845 96.6C507.845 96.29 507.75 96.06 507.56 95.91C507.38 95.75 507.075 95.67 506.645 95.67H503.48L504.275 94.875V101.67ZM517.397 99.81L518.267 100.71C517.877 101.19 517.397 101.565 516.827 101.835C516.267 102.105 515.632 102.24 514.922 102.24C514.112 102.24 513.392 102.07 512.762 101.73C512.132 101.39 511.637 100.925 511.277 100.335C510.927 99.735 510.752 99.05 510.752 98.28C510.752 97.51 510.922 96.83 511.262 96.24C511.602 95.64 512.072 95.17 512.672 94.83C513.272 94.49 513.947 94.32 514.697 94.32C515.427 94.32 516.072 94.49 516.632 94.83C517.202 95.16 517.647 95.62 517.967 96.21C518.297 96.79 518.462 97.465 518.462 98.235V98.325H517.052V98.19C517.052 97.65 516.952 97.18 516.752 96.78C516.552 96.37 516.272 96.055 515.912 95.835C515.562 95.605 515.157 95.49 514.697 95.49C514.207 95.49 513.772 95.605 513.392 95.835C513.012 96.065 512.717 96.39 512.507 96.81C512.297 97.22 512.192 97.705 512.192 98.265C512.192 98.825 512.307 99.32 512.537 99.75C512.777 100.17 513.107 100.495 513.527 100.725C513.947 100.955 514.427 101.07 514.967 101.07C515.957 101.07 516.767 100.65 517.397 99.81ZM518.462 98.745H511.787V97.71H518.222L518.462 98.235V98.745ZM521.664 104.91H520.269V94.56H521.649V96.84H521.334C521.414 96.35 521.599 95.915 521.889 95.535C522.189 95.155 522.559 94.86 522.999 94.65C523.449 94.43 523.939 94.32 524.469 94.32C525.189 94.32 525.829 94.495 526.389 94.845C526.949 95.185 527.389 95.655 527.709 96.255C528.029 96.845 528.189 97.52 528.189 98.28C528.189 99.05 528.024 99.735 527.694 100.335C527.374 100.925 526.924 101.39 526.344 101.73C525.774 102.07 525.124 102.24 524.394 102.24C523.724 102.24 523.144 102.105 522.654 101.835C522.164 101.555 521.794 101.18 521.544 100.71C521.294 100.23 521.194 99.695 521.244 99.105L521.529 98.82C521.569 99.25 521.709 99.635 521.949 99.975C522.199 100.315 522.514 100.58 522.894 100.77C523.284 100.95 523.704 101.04 524.154 101.04C524.674 101.04 525.124 100.925 525.504 100.695C525.884 100.455 526.184 100.125 526.404 99.705C526.624 99.285 526.734 98.81 526.734 98.28C526.734 97.75 526.629 97.28 526.419 96.87C526.209 96.45 525.919 96.12 525.549 95.88C525.179 95.64 524.744 95.52 524.244 95.52C523.744 95.52 523.299 95.645 522.909 95.895C522.529 96.135 522.224 96.475 521.994 96.915C521.774 97.355 521.664 97.865 521.664 98.445V104.91ZM535.681 99.885L536.626 100.785C536.266 101.235 535.821 101.59 535.291 101.85C534.761 102.11 534.161 102.24 533.491 102.24C532.731 102.24 532.051 102.07 531.451 101.73C530.861 101.39 530.396 100.925 530.056 100.335C529.716 99.735 529.546 99.05 529.546 98.28C529.546 97.52 529.716 96.845 530.056 96.255C530.396 95.655 530.866 95.185 531.466 94.845C532.076 94.495 532.761 94.32 533.521 94.32C534.181 94.32 534.771 94.45 535.291 94.71C535.821 94.97 536.266 95.325 536.626 95.775L535.681 96.675C535.451 96.325 535.161 96.045 534.811 95.835C534.461 95.625 534.041 95.52 533.551 95.52C533.051 95.52 532.606 95.64 532.216 95.88C531.836 96.11 531.536 96.435 531.316 96.855C531.106 97.265 531.001 97.74 531.001 98.28C531.001 98.82 531.106 99.3 531.316 99.72C531.536 100.13 531.836 100.455 532.216 100.695C532.606 100.925 533.051 101.04 533.551 101.04C534.051 101.04 534.471 100.935 534.811 100.725C535.161 100.515 535.451 100.235 535.681 99.885ZM538.287 102V94.56H539.652V100.17L539.547 100.14L544.002 94.56H545.217V102H543.852V96.39L543.972 96.435L539.502 102H538.287ZM547.515 102V94.56H548.88V100.17L548.775 100.14L553.23 94.56H554.445V102H553.08V96.39L553.2 96.435L548.73 102H547.515ZM457.055 120.49L454.895 117.28L457.055 114.07H458.615L456.425 117.28L458.615 120.49H457.055ZM460.025 120.49L457.865 117.28L460.025 114.07H461.585L459.395 117.28L461.585 120.49H460.025ZM473.438 121H472.073V119.455L472.253 119.515C471.893 120.055 471.393 120.48 470.753 120.79C470.123 121.09 469.418 121.24 468.638 121.24C467.848 121.24 467.113 121.105 466.433 120.835C465.763 120.555 465.173 120.165 464.663 119.665C464.163 119.155 463.773 118.56 463.493 117.88C463.223 117.19 463.088 116.44 463.088 115.63C463.088 114.83 463.228 114.09 463.508 113.41C463.788 112.73 464.178 112.14 464.678 111.64C465.188 111.13 465.783 110.735 466.463 110.455C467.143 110.175 467.883 110.035 468.683 110.035C469.613 110.035 470.453 110.22 471.203 110.59C471.953 110.95 472.573 111.44 473.063 112.06L472.058 113.035C471.688 112.515 471.218 112.1 470.648 111.79C470.088 111.48 469.433 111.325 468.683 111.325C467.903 111.325 467.203 111.515 466.583 111.895C465.963 112.265 465.478 112.775 465.128 113.425C464.778 114.065 464.603 114.8 464.603 115.63C464.603 116.46 464.778 117.205 465.128 117.865C465.478 118.515 465.963 119.03 466.583 119.41C467.213 119.78 467.933 119.965 468.743 119.965C469.543 119.965 470.248 119.79 470.858 119.44C471.478 119.09 471.923 118.615 472.193 118.015L472.058 118.585V116.545H468.608V115.33H473.438V121ZM481.625 118.81L482.495 119.71C482.105 120.19 481.625 120.565 481.055 120.835C480.495 121.105 479.86 121.24 479.15 121.24C478.34 121.24 477.62 121.07 476.99 120.73C476.36 120.39 475.865 119.925 475.505 119.335C475.155 118.735 474.98 118.05 474.98 117.28C474.98 116.51 475.15 115.83 475.49 115.24C475.83 114.64 476.3 114.17 476.9 113.83C477.5 113.49 478.175 113.32 478.925 113.32C479.655 113.32 480.3 113.49 480.86 113.83C481.43 114.16 481.875 114.62 482.195 115.21C482.525 115.79 482.69 116.465 482.69 117.235V117.325H481.28V117.19C481.28 116.65 481.18 116.18 480.98 115.78C480.78 115.37 480.5 115.055 480.14 114.835C479.79 114.605 479.385 114.49 478.925 114.49C478.435 114.49 478 114.605 477.62 114.835C477.24 115.065 476.945 115.39 476.735 115.81C476.525 116.22 476.42 116.705 476.42 117.265C476.42 117.825 476.535 118.32 476.765 118.75C477.005 119.17 477.335 119.495 477.755 119.725C478.175 119.955 478.655 120.07 479.195 120.07C480.185 120.07 480.995 119.65 481.625 118.81ZM482.69 117.745H476.015V116.71H482.45L482.69 117.235V117.745ZM488.555 121H486.77C486.19 121 485.745 120.85 485.435 120.55C485.135 120.24 484.985 119.8 484.985 119.23V111.46H486.38V119.05C486.38 119.3 486.445 119.495 486.575 119.635C486.705 119.765 486.895 119.83 487.145 119.83H488.555V121ZM488.45 114.73H483.53V113.56H488.45V114.73ZM498.655 118.24L499.66 119.215C499.19 119.835 498.58 120.33 497.83 120.7C497.08 121.06 496.255 121.24 495.355 121.24C494.565 121.24 493.835 121.1 493.165 120.82C492.505 120.54 491.93 120.15 491.44 119.65C490.95 119.14 490.565 118.545 490.285 117.865C490.015 117.185 489.88 116.445 489.88 115.645C489.88 114.845 490.02 114.105 490.3 113.425C490.58 112.735 490.965 112.14 491.455 111.64C491.955 111.13 492.54 110.735 493.21 110.455C493.88 110.175 494.61 110.035 495.4 110.035C496.29 110.035 497.105 110.22 497.845 110.59C498.585 110.95 499.19 111.44 499.66 112.06L498.655 113.035C498.295 112.515 497.84 112.1 497.29 111.79C496.74 111.48 496.11 111.325 495.4 111.325C494.64 111.325 493.955 111.515 493.345 111.895C492.745 112.265 492.27 112.775 491.92 113.425C491.57 114.065 491.395 114.805 491.395 115.645C491.395 116.465 491.57 117.2 491.92 117.85C492.27 118.5 492.745 119.015 493.345 119.395C493.955 119.765 494.64 119.95 495.4 119.95C496.11 119.95 496.74 119.795 497.29 119.485C497.84 119.175 498.295 118.76 498.655 118.24ZM504.839 121.24C504.059 121.24 503.369 121.07 502.769 120.73C502.169 120.39 501.699 119.925 501.359 119.335C501.019 118.735 500.849 118.05 500.849 117.28C500.849 116.51 501.019 115.83 501.359 115.24C501.699 114.65 502.169 114.185 502.769 113.845C503.369 113.495 504.059 113.32 504.839 113.32C505.619 113.32 506.304 113.495 506.894 113.845C507.494 114.185 507.964 114.65 508.304 115.24C508.654 115.83 508.829 116.51 508.829 117.28C508.829 118.05 508.654 118.735 508.304 119.335C507.964 119.925 507.494 120.39 506.894 120.73C506.304 121.07 505.619 121.24 504.839 121.24ZM504.839 120.04C505.339 120.04 505.779 119.925 506.159 119.695C506.539 119.465 506.834 119.14 507.044 118.72C507.254 118.3 507.359 117.82 507.359 117.28C507.359 116.74 507.254 116.265 507.044 115.855C506.834 115.435 506.539 115.11 506.159 114.88C505.779 114.64 505.339 114.52 504.839 114.52C504.339 114.52 503.894 114.64 503.504 114.88C503.124 115.11 502.829 115.435 502.619 115.855C502.409 116.265 502.304 116.74 502.304 117.28C502.304 117.82 502.409 118.3 502.619 118.72C502.829 119.14 503.124 119.465 503.504 119.695C503.894 119.925 504.339 120.04 504.839 120.04ZM517.306 121H515.926V119.56L515.911 119.14V113.56H517.306V121ZM516.046 117.82L516.331 118.12C516.371 118.73 516.261 119.27 516.001 119.74C515.751 120.2 515.391 120.565 514.921 120.835C514.461 121.105 513.926 121.24 513.316 121.24C512.426 121.24 511.716 120.975 511.186 120.445C510.656 119.915 510.391 119.15 510.391 118.15V113.56H511.786V118C511.786 118.67 511.946 119.18 512.266 119.53C512.596 119.87 513.051 120.04 513.631 120.04C514.041 120.04 514.421 119.95 514.771 119.77C515.121 119.58 515.411 119.32 515.641 118.99C515.871 118.65 516.006 118.26 516.046 117.82ZM523.484 113.44V114.76H523.154C522.704 114.76 522.289 114.87 521.909 115.09C521.539 115.3 521.239 115.635 521.009 116.095C520.789 116.545 520.679 117.135 520.679 117.865V121H519.284V113.56H520.664V115.945H520.454C520.564 115.315 520.764 114.82 521.054 114.46C521.354 114.1 521.699 113.84 522.089 113.68C522.479 113.52 522.879 113.44 523.289 113.44H523.484ZM524.251 119.86L525.136 118.96C525.486 119.32 525.886 119.605 526.336 119.815C526.786 120.015 527.276 120.115 527.806 120.115C528.366 120.115 528.821 120.005 529.171 119.785C529.521 119.555 529.696 119.265 529.696 118.915C529.696 118.595 529.546 118.35 529.246 118.18C528.946 118 528.426 117.86 527.686 117.76C526.576 117.6 525.781 117.355 525.301 117.025C524.831 116.685 524.596 116.225 524.596 115.645C524.596 115.185 524.731 114.78 525.001 114.43C525.271 114.08 525.641 113.81 526.111 113.62C526.581 113.42 527.121 113.32 527.731 113.32C528.411 113.32 529.021 113.44 529.561 113.68C530.101 113.92 530.571 114.255 530.971 114.685L530.101 115.585C529.801 115.235 529.451 114.96 529.051 114.76C528.661 114.55 528.221 114.445 527.731 114.445C527.221 114.445 526.801 114.55 526.471 114.76C526.151 114.97 525.991 115.24 525.991 115.57C525.991 115.83 526.131 116.035 526.411 116.185C526.701 116.325 527.196 116.445 527.896 116.545C529.026 116.705 529.836 116.965 530.326 117.325C530.826 117.685 531.076 118.19 531.076 118.84C531.076 119.31 530.936 119.73 530.656 120.1C530.376 120.46 529.986 120.74 529.486 120.94C528.996 121.14 528.426 121.24 527.776 121.24C527.046 121.24 526.386 121.12 525.796 120.88C525.216 120.63 524.701 120.29 524.251 119.86ZM538.974 118.81L539.844 119.71C539.454 120.19 538.974 120.565 538.404 120.835C537.844 121.105 537.209 121.24 536.499 121.24C535.689 121.24 534.969 121.07 534.339 120.73C533.709 120.39 533.214 119.925 532.854 119.335C532.504 118.735 532.329 118.05 532.329 117.28C532.329 116.51 532.499 115.83 532.839 115.24C533.179 114.64 533.649 114.17 534.249 113.83C534.849 113.49 535.524 113.32 536.274 113.32C537.004 113.32 537.649 113.49 538.209 113.83C538.779 114.16 539.224 114.62 539.544 115.21C539.874 115.79 540.039 116.465 540.039 117.235V117.325H538.629V117.19C538.629 116.65 538.529 116.18 538.329 115.78C538.129 115.37 537.849 115.055 537.489 114.835C537.139 114.605 536.734 114.49 536.274 114.49C535.784 114.49 535.349 114.605 534.969 114.835C534.589 115.065 534.294 115.39 534.084 115.81C533.874 116.22 533.769 116.705 533.769 117.265C533.769 117.825 533.884 118.32 534.114 118.75C534.354 119.17 534.684 119.495 535.104 119.725C535.524 119.955 536.004 120.07 536.544 120.07C537.534 120.07 538.344 119.65 538.974 118.81ZM540.039 117.745H533.364V116.71H539.799L540.039 117.235V117.745ZM542.972 114.07L545.147 117.28L542.972 120.49H541.427L543.617 117.28L541.427 114.07H542.972ZM545.942 114.07L548.117 117.28L545.942 120.49H544.397L546.587 117.28L544.397 114.07H545.942Z" fill="black"/>
<path d="M283.069 269.778C338.888 269.778 384.138 224.385 384.138 168.389C384.138 112.393 338.888 67 283.069 67C227.25 67 182 112.393 182 168.389C182 224.385 227.25 269.778 283.069 269.778Z" fill="white"/>
<path d="M202.026 145.166V134.441H203.466V144.866L202.656 143.906H208.911L208.341 144.866V134.441H209.781V144.866L209.211 143.906H215.466L214.656 144.866V134.441H216.096V145.166H202.026ZM223.672 145.166L219.607 141.311H219.757L223.432 137.726H225.217L221.227 141.611L220.942 140.831L225.577 145.166H223.672ZM218.617 145.166V137.726H220.012V145.166H218.617ZM229.832 145.406C229.052 145.406 228.362 145.236 227.762 144.896C227.162 144.556 226.692 144.091 226.352 143.501C226.012 142.901 225.842 142.216 225.842 141.446C225.842 140.676 226.012 139.996 226.352 139.406C226.692 138.816 227.162 138.351 227.762 138.011C228.362 137.661 229.052 137.486 229.832 137.486C230.612 137.486 231.297 137.661 231.887 138.011C232.487 138.351 232.957 138.816 233.297 139.406C233.647 139.996 233.822 140.676 233.822 141.446C233.822 142.216 233.647 142.901 233.297 143.501C232.957 144.091 232.487 144.556 231.887 144.896C231.297 145.236 230.612 145.406 229.832 145.406ZM229.832 144.206C230.332 144.206 230.772 144.091 231.152 143.861C231.532 143.631 231.827 143.306 232.037 142.886C232.247 142.466 232.352 141.986 232.352 141.446C232.352 140.906 232.247 140.431 232.037 140.021C231.827 139.601 231.532 139.276 231.152 139.046C230.772 138.806 230.332 138.686 229.832 138.686C229.332 138.686 228.887 138.806 228.497 139.046C228.117 139.276 227.822 139.601 227.612 140.021C227.402 140.431 227.297 140.906 227.297 141.446C227.297 141.986 227.402 142.466 227.612 142.886C227.822 143.306 228.117 143.631 228.497 143.861C228.887 144.091 229.332 144.206 229.832 144.206ZM234.768 145.166V143.996H235.338C235.618 143.996 235.823 143.926 235.953 143.786C236.093 143.646 236.178 143.401 236.208 143.051L236.673 137.726H242.148V145.166H240.753V137.981L241.743 138.896H236.943L238.023 137.981L237.513 143.291C237.453 143.991 237.268 144.481 236.958 144.761C236.648 145.031 236.183 145.166 235.563 145.166H234.768ZM250.772 145.166H249.467V143.696L249.422 143.336V140.561C249.422 139.971 249.232 139.506 248.852 139.166C248.472 138.816 247.957 138.641 247.307 138.641C246.837 138.641 246.407 138.741 246.017 138.941C245.627 139.131 245.287 139.396 244.997 139.736L244.127 138.836C244.537 138.406 245.007 138.076 245.537 137.846C246.077 137.606 246.677 137.486 247.337 137.486C248.017 137.486 248.612 137.611 249.122 137.861C249.642 138.111 250.047 138.461 250.337 138.911C250.627 139.351 250.772 139.886 250.772 140.516V145.166ZM246.722 145.406C246.162 145.406 245.667 145.306 245.237 145.106C244.807 144.896 244.472 144.611 244.232 144.251C243.992 143.891 243.872 143.481 243.872 143.021C243.872 142.501 244.017 142.061 244.307 141.701C244.607 141.331 245.017 141.051 245.537 140.861C246.057 140.661 246.652 140.561 247.322 140.561H249.587V141.596H247.472C246.842 141.596 246.322 141.711 245.912 141.941C245.512 142.161 245.312 142.506 245.312 142.976C245.312 143.376 245.462 143.696 245.762 143.936C246.072 144.176 246.472 144.296 246.962 144.296C247.442 144.296 247.877 144.201 248.267 144.011C248.657 143.821 248.967 143.556 249.197 143.216C249.437 142.866 249.572 142.466 249.602 142.016L250.097 142.286C250.097 142.886 249.952 143.421 249.662 143.891C249.372 144.361 248.972 144.731 248.462 145.001C247.962 145.271 247.382 145.406 246.722 145.406ZM255.766 145.166V134.441H257.311L263.581 143.681H263.176V134.441H264.571V145.166H263.026L256.741 135.926H257.161V145.166H255.766ZM266.731 141.836V140.816H271.831V141.836H266.731ZM269.281 140.036C268.721 140.036 268.226 139.916 267.796 139.676C267.366 139.436 267.031 139.106 266.791 138.686C266.551 138.266 266.431 137.781 266.431 137.231C266.431 136.691 266.551 136.211 266.791 135.791C267.031 135.361 267.366 135.031 267.796 134.801C268.226 134.561 268.721 134.441 269.281 134.441C269.831 134.441 270.321 134.561 270.751 134.801C271.181 135.031 271.516 135.361 271.756 135.791C272.006 136.211 272.131 136.691 272.131 137.231C272.131 137.781 272.006 138.266 271.756 138.686C271.516 139.106 271.181 139.436 270.751 139.676C270.321 139.916 269.831 140.036 269.281 140.036ZM269.281 139.001C269.751 139.001 270.131 138.836 270.421 138.506C270.721 138.166 270.871 137.741 270.871 137.231C270.871 136.721 270.721 136.301 270.421 135.971C270.131 135.641 269.751 135.476 269.281 135.476C268.811 135.476 268.426 135.641 268.126 135.971C267.836 136.301 267.691 136.721 267.691 137.231C267.691 137.741 267.836 138.166 268.126 138.506C268.426 138.836 268.811 139.001 269.281 139.001ZM276.838 134.441H278.143V145.166H276.733V135.956L274.003 138.026V136.541L276.838 134.441ZM283.89 145.166V137.726H287.685C288.465 137.726 289.08 137.906 289.53 138.266C289.99 138.626 290.22 139.106 290.22 139.706C290.22 140.086 290.105 140.416 289.875 140.696C289.655 140.976 289.355 141.191 288.975 141.341L288.96 141.206C289.43 141.336 289.815 141.556 290.115 141.866C290.415 142.176 290.565 142.556 290.565 143.006C290.565 143.426 290.44 143.801 290.19 144.131C289.94 144.461 289.605 144.716 289.185 144.896C288.765 145.076 288.295 145.166 287.775 145.166H283.89ZM285.225 144.836L284.445 144.071H287.67C288.13 144.071 288.49 143.976 288.75 143.786C289.01 143.586 289.14 143.306 289.14 142.946C289.14 142.596 289.01 142.326 288.75 142.136C288.49 141.936 288.13 141.836 287.67 141.836H284.61V140.786H287.595C288.035 140.786 288.345 140.696 288.525 140.516C288.705 140.336 288.795 140.086 288.795 139.766C288.795 139.456 288.7 139.226 288.51 139.076C288.33 138.916 288.025 138.836 287.595 138.836H284.43L285.225 138.041V144.836ZM296.491 148.076H295.096V137.726H296.476V140.006H296.161C296.241 139.516 296.426 139.081 296.716 138.701C297.016 138.321 297.386 138.026 297.826 137.816C298.276 137.596 298.766 137.486 299.296 137.486C300.016 137.486 300.656 137.661 301.216 138.011C301.776 138.351 302.216 138.821 302.536 139.421C302.856 140.011 303.016 140.686 303.016 141.446C303.016 142.216 302.851 142.901 302.521 143.501C302.201 144.091 301.751 144.556 301.171 144.896C300.601 145.236 299.951 145.406 299.221 145.406C298.551 145.406 297.971 145.271 297.481 145.001C296.991 144.721 296.621 144.346 296.371 143.876C296.121 143.396 296.021 142.861 296.071 142.271L296.356 141.986C296.396 142.416 296.536 142.801 296.776 143.141C297.026 143.481 297.341 143.746 297.721 143.936C298.111 144.116 298.531 144.206 298.981 144.206C299.501 144.206 299.951 144.091 300.331 143.861C300.711 143.621 301.011 143.291 301.231 142.871C301.451 142.451 301.561 141.976 301.561 141.446C301.561 140.916 301.456 140.446 301.246 140.036C301.036 139.616 300.746 139.286 300.376 139.046C300.006 138.806 299.571 138.686 299.071 138.686C298.571 138.686 298.126 138.811 297.736 139.061C297.356 139.301 297.051 139.641 296.821 140.081C296.601 140.521 296.491 141.031 296.491 141.611V148.076ZM311.017 142.976L311.887 143.876C311.497 144.356 311.017 144.731 310.447 145.001C309.887 145.271 309.252 145.406 308.542 145.406C307.732 145.406 307.012 145.236 306.382 144.896C305.752 144.556 305.257 144.091 304.897 143.501C304.547 142.901 304.372 142.216 304.372 141.446C304.372 140.676 304.542 139.996 304.882 139.406C305.222 138.806 305.692 138.336 306.292 137.996C306.892 137.656 307.567 137.486 308.317 137.486C309.047 137.486 309.692 137.656 310.252 137.996C310.822 138.326 311.267 138.786 311.587 139.376C311.917 139.956 312.082 140.631 312.082 141.401V141.491H310.672V141.356C310.672 140.816 310.572 140.346 310.372 139.946C310.172 139.536 309.892 139.221 309.532 139.001C309.182 138.771 308.777 138.656 308.317 138.656C307.827 138.656 307.392 138.771 307.012 139.001C306.632 139.231 306.337 139.556 306.127 139.976C305.917 140.386 305.812 140.871 305.812 141.431C305.812 141.991 305.927 142.486 306.157 142.916C306.397 143.336 306.727 143.661 307.147 143.891C307.567 144.121 308.047 144.236 308.587 144.236C309.577 144.236 310.387 143.816 311.017 142.976ZM312.082 141.911H305.407V140.876H311.842L312.082 141.401V141.911ZM313.89 145.166V137.726H315.255V143.336L315.15 143.306L319.605 137.726H320.82V145.166H319.455V139.556L319.575 139.601L315.105 145.166H313.89ZM317.445 136.391C316.755 136.391 316.18 136.216 315.72 135.866C315.26 135.506 314.99 135.001 314.91 134.351H316.095C316.155 134.771 316.3 135.076 316.53 135.266C316.77 135.456 317.075 135.551 317.445 135.551C317.815 135.551 318.115 135.456 318.345 135.266C318.585 135.076 318.735 134.771 318.795 134.351H319.98C319.9 135.001 319.63 135.506 319.17 135.866C318.71 136.216 318.135 136.391 317.445 136.391ZM325.024 145.166V138.161H326.419V145.166H325.024ZM322.339 138.896V137.726H329.089V138.896H322.339ZM330.589 145.166V137.726H331.954V143.336L331.849 143.306L336.304 137.726H337.519V145.166H336.154V139.556L336.274 139.601L331.804 145.166H330.589ZM345.413 145.166V137.726H346.808V145.166H345.413ZM339.818 145.166V137.726H341.213V145.166H339.818ZM340.493 141.836V140.681H346.193V141.836H340.493ZM349.09 145.166V137.726H354.37V138.896H349.36L350.485 138.011V145.166H349.09ZM361.833 142.976L362.703 143.876C362.313 144.356 361.833 144.731 361.263 145.001C360.703 145.271 360.068 145.406 359.358 145.406C358.548 145.406 357.828 145.236 357.198 144.896C356.568 144.556 356.073 144.091 355.713 143.501C355.363 142.901 355.188 142.216 355.188 141.446C355.188 140.676 355.358 139.996 355.698 139.406C356.038 138.806 356.508 138.336 357.108 137.996C357.708 137.656 358.383 137.486 359.133 137.486C359.863 137.486 360.508 137.656 361.068 137.996C361.638 138.326 362.083 138.786 362.403 139.376C362.733 139.956 362.898 140.631 362.898 141.401V141.491H361.488V141.356C361.488 140.816 361.388 140.346 361.188 139.946C360.988 139.536 360.708 139.221 360.348 139.001C359.998 138.771 359.593 138.656 359.133 138.656C358.643 138.656 358.208 138.771 357.828 139.001C357.448 139.231 357.153 139.556 356.943 139.976C356.733 140.386 356.628 140.871 356.628 141.431C356.628 141.991 356.743 142.486 356.973 142.916C357.213 143.336 357.543 143.661 357.963 143.891C358.383 144.121 358.863 144.236 359.403 144.236C360.393 144.236 361.203 143.816 361.833 142.976ZM362.898 141.911H356.223V140.876H362.658L362.898 141.401V141.911ZM219.371 164.166V156.726H220.751V163.851L220.391 163.011H224.276L223.886 163.851V156.726H225.266V163.851L224.981 163.011H228.896L228.401 163.851V156.726H229.781V164.166H219.371ZM237.126 164.166L233.061 160.311H233.211L236.886 156.726H238.671L234.681 160.611L234.396 159.831L239.031 164.166H237.126ZM232.071 164.166V156.726H233.466V164.166H232.071ZM243.287 164.406C242.507 164.406 241.817 164.236 241.217 163.896C240.617 163.556 240.147 163.091 239.807 162.501C239.467 161.901 239.297 161.216 239.297 160.446C239.297 159.676 239.467 158.996 239.807 158.406C240.147 157.816 240.617 157.351 241.217 157.011C241.817 156.661 242.507 156.486 243.287 156.486C244.067 156.486 244.752 156.661 245.342 157.011C245.942 157.351 246.412 157.816 246.752 158.406C247.102 158.996 247.277 159.676 247.277 160.446C247.277 161.216 247.102 161.901 246.752 162.501C246.412 163.091 245.942 163.556 245.342 163.896C244.752 164.236 244.067 164.406 243.287 164.406ZM243.287 163.206C243.787 163.206 244.227 163.091 244.607 162.861C244.987 162.631 245.282 162.306 245.492 161.886C245.702 161.466 245.807 160.986 245.807 160.446C245.807 159.906 245.702 159.431 245.492 159.021C245.282 158.601 244.987 158.276 244.607 158.046C244.227 157.806 243.787 157.686 243.287 157.686C242.787 157.686 242.342 157.806 241.952 158.046C241.572 158.276 241.277 158.601 241.067 159.021C240.857 159.431 240.752 159.906 240.752 160.446C240.752 160.986 240.857 161.466 241.067 161.886C241.277 162.306 241.572 162.631 241.952 162.861C242.342 163.091 242.787 163.206 243.287 163.206ZM248.223 164.166V162.996H248.793C249.073 162.996 249.278 162.926 249.408 162.786C249.548 162.646 249.633 162.401 249.663 162.051L250.128 156.726H255.603V164.166H254.208V156.981L255.198 157.896H250.398L251.478 156.981L250.968 162.291C250.908 162.991 250.723 163.481 250.413 163.761C250.103 164.031 249.638 164.166 249.018 164.166H248.223ZM266.406 164.166V156.726H267.801V164.166H266.406ZM260.811 164.166V156.726H262.206V164.166H260.811ZM261.486 160.836V159.681H267.186V160.836H261.486ZM276.429 164.166H275.124V162.696L275.079 162.336V159.561C275.079 158.971 274.889 158.506 274.509 158.166C274.129 157.816 273.614 157.641 272.964 157.641C272.494 157.641 272.064 157.741 271.674 157.941C271.284 158.131 270.944 158.396 270.654 158.736L269.784 157.836C270.194 157.406 270.664 157.076 271.194 156.846C271.734 156.606 272.334 156.486 272.994 156.486C273.674 156.486 274.269 156.611 274.779 156.861C275.299 157.111 275.704 157.461 275.994 157.911C276.284 158.351 276.429 158.886 276.429 159.516V164.166ZM272.379 164.406C271.819 164.406 271.324 164.306 270.894 164.106C270.464 163.896 270.129 163.611 269.889 163.251C269.649 162.891 269.529 162.481 269.529 162.021C269.529 161.501 269.674 161.061 269.964 160.701C270.264 160.331 270.674 160.051 271.194 159.861C271.714 159.661 272.309 159.561 272.979 159.561H275.244V160.596H273.129C272.499 160.596 271.979 160.711 271.569 160.941C271.169 161.161 270.969 161.506 270.969 161.976C270.969 162.376 271.119 162.696 271.419 162.936C271.729 163.176 272.129 163.296 272.619 163.296C273.099 163.296 273.534 163.201 273.924 163.011C274.314 162.821 274.624 162.556 274.854 162.216C275.094 161.866 275.229 161.466 275.259 161.016L275.754 161.286C275.754 161.886 275.609 162.421 275.319 162.891C275.029 163.361 274.629 163.731 274.119 164.001C273.619 164.271 273.039 164.406 272.379 164.406ZM281.378 164.166V156.726H285.173C285.953 156.726 286.568 156.906 287.018 157.266C287.478 157.626 287.708 158.106 287.708 158.706C287.708 159.086 287.593 159.416 287.363 159.696C287.143 159.976 286.843 160.191 286.463 160.341L286.448 160.206C286.918 160.336 287.303 160.556 287.603 160.866C287.903 161.176 288.053 161.556 288.053 162.006C288.053 162.426 287.928 162.801 287.678 163.131C287.428 163.461 287.093 163.716 286.673 163.896C286.253 164.076 285.783 164.166 285.263 164.166H281.378ZM282.713 163.836L281.933 163.071H285.158C285.618 163.071 285.978 162.976 286.238 162.786C286.498 162.586 286.628 162.306 286.628 161.946C286.628 161.596 286.498 161.326 286.238 161.136C285.978 160.936 285.618 160.836 285.158 160.836H282.098V159.786H285.083C285.523 159.786 285.833 159.696 286.013 159.516C286.193 159.336 286.283 159.086 286.283 158.766C286.283 158.456 286.188 158.226 285.998 158.076C285.818 157.916 285.513 157.836 285.083 157.836H281.918L282.713 157.041V163.836ZM295.249 164.166V156.726H296.644V164.166H295.249ZM289.654 164.166V156.726H291.049V164.166H289.654ZM290.329 160.836V159.681H296.029V160.836H290.329ZM305.107 161.976L305.977 162.876C305.587 163.356 305.107 163.731 304.537 164.001C303.977 164.271 303.342 164.406 302.632 164.406C301.822 164.406 301.102 164.236 300.472 163.896C299.842 163.556 299.347 163.091 298.987 162.501C298.637 161.901 298.462 161.216 298.462 160.446C298.462 159.676 298.632 158.996 298.972 158.406C299.312 157.806 299.782 157.336 300.382 156.996C300.982 156.656 301.657 156.486 302.407 156.486C303.137 156.486 303.782 156.656 304.342 156.996C304.912 157.326 305.357 157.786 305.677 158.376C306.007 158.956 306.172 159.631 306.172 160.401V160.491H304.762V160.356C304.762 159.816 304.662 159.346 304.462 158.946C304.262 158.536 303.982 158.221 303.622 158.001C303.272 157.771 302.867 157.656 302.407 157.656C301.917 157.656 301.482 157.771 301.102 158.001C300.722 158.231 300.427 158.556 300.217 158.976C300.007 159.386 299.902 159.871 299.902 160.431C299.902 160.991 300.017 161.486 300.247 161.916C300.487 162.336 300.817 162.661 301.237 162.891C301.657 163.121 302.137 163.236 302.677 163.236C303.667 163.236 304.477 162.816 305.107 161.976ZM306.172 160.911H299.497V159.876H305.932L306.172 160.401V160.911ZM307.979 164.166V156.726H309.359V163.851L308.999 163.011H312.884L312.494 163.851V156.726H313.874V163.851L313.589 163.011H317.504L317.009 163.851V156.726H318.389V164.166H307.979ZM326.275 164.166V156.726H327.67V164.166H326.275ZM320.68 164.166V156.726H322.075V164.166H320.68ZM321.355 160.836V159.681H327.055V160.836H321.355ZM329.952 164.166V156.726H331.317V162.336L331.212 162.306L335.667 156.726H336.882V164.166H335.517V158.556L335.637 158.601L331.167 164.166H329.952ZM339.826 164.166H338.221L341.116 160.311L338.476 156.726H340.066L342.016 159.501L343.951 156.726H345.541L342.901 160.311L345.811 164.166H344.176L342.016 161.166L339.826 164.166ZM198.548 183.166V175.726H205.268V183.166H203.873V175.981L204.863 176.896H198.833L199.943 175.981V183.166H198.548ZM206.702 183.166V181.996H207.272C207.552 181.996 207.757 181.926 207.887 181.786C208.027 181.646 208.112 181.401 208.142 181.051L208.607 175.726H214.082V183.166H212.687V175.981L213.677 176.896H208.877L209.957 175.981L209.447 181.291C209.387 181.991 209.202 182.481 208.892 182.761C208.582 183.031 208.117 183.166 207.497 183.166H206.702ZM222.706 183.166H221.401V181.696L221.356 181.336V178.561C221.356 177.971 221.166 177.506 220.786 177.166C220.406 176.816 219.891 176.641 219.241 176.641C218.771 176.641 218.341 176.741 217.951 176.941C217.561 177.131 217.221 177.396 216.931 177.736L216.061 176.836C216.471 176.406 216.941 176.076 217.471 175.846C218.011 175.606 218.611 175.486 219.271 175.486C219.951 175.486 220.546 175.611 221.056 175.861C221.576 176.111 221.981 176.461 222.271 176.911C222.561 177.351 222.706 177.886 222.706 178.516V183.166ZM218.656 183.406C218.096 183.406 217.601 183.306 217.171 183.106C216.741 182.896 216.406 182.611 216.166 182.251C215.926 181.891 215.806 181.481 215.806 181.021C215.806 180.501 215.951 180.061 216.241 179.701C216.541 179.331 216.951 179.051 217.471 178.861C217.991 178.661 218.586 178.561 219.256 178.561H221.521V179.596H219.406C218.776 179.596 218.256 179.711 217.846 179.941C217.446 180.161 217.246 180.506 217.246 180.976C217.246 181.376 217.396 181.696 217.696 181.936C218.006 182.176 218.406 182.296 218.896 182.296C219.376 182.296 219.811 182.201 220.201 182.011C220.591 181.821 220.901 181.556 221.131 181.216C221.371 180.866 221.506 180.466 221.536 180.016L222.031 180.286C222.031 180.886 221.886 181.421 221.596 181.891C221.306 182.361 220.906 182.731 220.396 183.001C219.896 183.271 219.316 183.406 218.656 183.406ZM226.63 183.166V176.161H228.025V183.166H226.63ZM223.945 176.896V175.726H230.695V176.896H223.945ZM236.373 183.406C235.363 183.406 234.488 183.246 233.748 182.926C233.008 182.606 232.438 182.151 232.038 181.561C231.638 180.961 231.438 180.256 231.438 179.446C231.438 178.636 231.638 177.936 232.038 177.346C232.438 176.756 233.008 176.301 233.748 175.981C234.488 175.651 235.363 175.486 236.373 175.486H236.823C237.843 175.486 238.718 175.651 239.448 175.981C240.188 176.301 240.758 176.756 241.158 177.346C241.558 177.936 241.758 178.636 241.758 179.446C241.758 180.256 241.558 180.961 241.158 181.561C240.758 182.151 240.188 182.606 239.448 182.926C238.718 183.246 237.843 183.406 236.823 183.406H236.373ZM236.373 182.221H236.823C237.993 182.221 238.873 181.991 239.463 181.531C240.053 181.061 240.348 180.366 240.348 179.446C240.348 178.536 240.053 177.851 239.463 177.391C238.873 176.921 237.993 176.686 236.823 176.686H236.373C235.203 176.686 234.323 176.916 233.733 177.376C233.143 177.836 232.848 178.526 232.848 179.446C232.848 180.366 233.143 181.061 233.733 181.531C234.323 181.991 235.203 182.221 236.373 182.221ZM235.908 186.226V182.911L235.938 182.686V176.341L235.908 176.101V172.366H237.303V176.101L237.273 176.341V182.686L237.303 182.911V186.226H235.908ZM247.103 183.406C246.323 183.406 245.633 183.236 245.033 182.896C244.433 182.556 243.963 182.091 243.623 181.501C243.283 180.901 243.113 180.216 243.113 179.446C243.113 178.676 243.283 177.996 243.623 177.406C243.963 176.816 244.433 176.351 245.033 176.011C245.633 175.661 246.323 175.486 247.103 175.486C247.883 175.486 248.568 175.661 249.158 176.011C249.758 176.351 250.228 176.816 250.568 177.406C250.918 177.996 251.093 178.676 251.093 179.446C251.093 180.216 250.918 180.901 250.568 181.501C250.228 182.091 249.758 182.556 249.158 182.896C248.568 183.236 247.883 183.406 247.103 183.406ZM247.103 182.206C247.603 182.206 248.043 182.091 248.423 181.861C248.803 181.631 249.098 181.306 249.308 180.886C249.518 180.466 249.623 179.986 249.623 179.446C249.623 178.906 249.518 178.431 249.308 178.021C249.098 177.601 248.803 177.276 248.423 177.046C248.043 176.806 247.603 176.686 247.103 176.686C246.603 176.686 246.158 176.806 245.768 177.046C245.388 177.276 245.093 177.601 244.883 178.021C244.673 178.431 244.568 178.906 244.568 179.446C244.568 179.986 244.673 180.466 244.883 180.886C245.093 181.306 245.388 181.631 245.768 181.861C246.158 182.091 246.603 182.206 247.103 182.206ZM254.289 186.076H252.894V175.726H254.274V178.006H253.959C254.039 177.516 254.224 177.081 254.514 176.701C254.814 176.321 255.184 176.026 255.624 175.816C256.074 175.596 256.564 175.486 257.094 175.486C257.814 175.486 258.454 175.661 259.014 176.011C259.574 176.351 260.014 176.821 260.334 177.421C260.654 178.011 260.814 178.686 260.814 179.446C260.814 180.216 260.649 180.901 260.319 181.501C259.999 182.091 259.549 182.556 258.969 182.896C258.399 183.236 257.749 183.406 257.019 183.406C256.349 183.406 255.769 183.271 255.279 183.001C254.789 182.721 254.419 182.346 254.169 181.876C253.919 181.396 253.819 180.861 253.869 180.271L254.154 179.986C254.194 180.416 254.334 180.801 254.574 181.141C254.824 181.481 255.139 181.746 255.519 181.936C255.909 182.116 256.329 182.206 256.779 182.206C257.299 182.206 257.749 182.091 258.129 181.861C258.509 181.621 258.809 181.291 259.029 180.871C259.249 180.451 259.359 179.976 259.359 179.446C259.359 178.916 259.254 178.446 259.044 178.036C258.834 177.616 258.544 177.286 258.174 177.046C257.804 176.806 257.369 176.686 256.869 176.686C256.369 176.686 255.924 176.811 255.534 177.061C255.154 177.301 254.849 177.641 254.619 178.081C254.399 178.521 254.289 179.031 254.289 179.611V186.076ZM262.635 183.166V175.726H264.18L267.105 181.216H266.85L269.76 175.726H271.35V183.166H270.045V176.206L270.69 176.386L267.465 182.461H266.415L263.205 176.386L263.91 176.221V183.166H262.635ZM279.996 183.166H278.691V181.696L278.646 181.336V178.561C278.646 177.971 278.456 177.506 278.076 177.166C277.696 176.816 277.181 176.641 276.531 176.641C276.061 176.641 275.631 176.741 275.241 176.941C274.851 177.131 274.511 177.396 274.221 177.736L273.351 176.836C273.761 176.406 274.231 176.076 274.761 175.846C275.301 175.606 275.901 175.486 276.561 175.486C277.241 175.486 277.836 175.611 278.346 175.861C278.866 176.111 279.271 176.461 279.561 176.911C279.851 177.351 279.996 177.886 279.996 178.516V183.166ZM275.946 183.406C275.386 183.406 274.891 183.306 274.461 183.106C274.031 182.896 273.696 182.611 273.456 182.251C273.216 181.891 273.096 181.481 273.096 181.021C273.096 180.501 273.241 180.061 273.531 179.701C273.831 179.331 274.241 179.051 274.761 178.861C275.281 178.661 275.876 178.561 276.546 178.561H278.811V179.596H276.696C276.066 179.596 275.546 179.711 275.136 179.941C274.736 180.161 274.536 180.506 274.536 180.976C274.536 181.376 274.686 181.696 274.986 181.936C275.296 182.176 275.696 182.296 276.186 182.296C276.666 182.296 277.101 182.201 277.491 182.011C277.881 181.821 278.191 181.556 278.421 181.216C278.661 180.866 278.796 180.466 278.826 180.016L279.321 180.286C279.321 180.886 279.176 181.421 278.886 181.891C278.596 182.361 278.196 182.731 277.686 183.001C277.186 183.271 276.606 183.406 275.946 183.406ZM282.66 183.166H281.055L283.95 179.311L281.31 175.726H282.9L284.85 178.501L286.785 175.726H288.375L285.735 179.311L288.645 183.166H287.01L284.85 180.166L282.66 183.166ZM292.884 183.166V175.726H299.604V183.166H298.209V175.981L299.199 176.896H293.169L294.279 175.981V183.166H292.884ZM305.418 183.406C304.638 183.406 303.948 183.236 303.348 182.896C302.748 182.556 302.278 182.091 301.938 181.501C301.598 180.901 301.428 180.216 301.428 179.446C301.428 178.676 301.598 177.996 301.938 177.406C302.278 176.816 302.748 176.351 303.348 176.011C303.948 175.661 304.638 175.486 305.418 175.486C306.198 175.486 306.883 175.661 307.473 176.011C308.073 176.351 308.543 176.816 308.883 177.406C309.233 177.996 309.408 178.676 309.408 179.446C309.408 180.216 309.233 180.901 308.883 181.501C308.543 182.091 308.073 182.556 307.473 182.896C306.883 183.236 306.198 183.406 305.418 183.406ZM305.418 182.206C305.918 182.206 306.358 182.091 306.738 181.861C307.118 181.631 307.413 181.306 307.623 180.886C307.833 180.466 307.938 179.986 307.938 179.446C307.938 178.906 307.833 178.431 307.623 178.021C307.413 177.601 307.118 177.276 306.738 177.046C306.358 176.806 305.918 176.686 305.418 176.686C304.918 176.686 304.473 176.806 304.083 177.046C303.703 177.276 303.408 177.601 303.198 178.021C302.988 178.431 302.883 178.906 302.883 179.446C302.883 179.986 302.988 180.466 303.198 180.886C303.408 181.306 303.703 181.631 304.083 181.861C304.473 182.091 304.918 182.206 305.418 182.206ZM314.139 183.166V175.726H317.934C318.714 175.726 319.329 175.906 319.779 176.266C320.239 176.626 320.469 177.106 320.469 177.706C320.469 178.086 320.354 178.416 320.124 178.696C319.904 178.976 319.604 179.191 319.224 179.341L319.209 179.206C319.679 179.336 320.064 179.556 320.364 179.866C320.664 180.176 320.814 180.556 320.814 181.006C320.814 181.426 320.689 181.801 320.439 182.131C320.189 182.461 319.854 182.716 319.434 182.896C319.014 183.076 318.544 183.166 318.024 183.166H314.139ZM315.474 182.836L314.694 182.071H317.919C318.379 182.071 318.739 181.976 318.999 181.786C319.259 181.586 319.389 181.306 319.389 180.946C319.389 180.596 319.259 180.326 318.999 180.136C318.739 179.936 318.379 179.836 317.919 179.836H314.859V178.786H317.844C318.284 178.786 318.594 178.696 318.774 178.516C318.954 178.336 319.044 178.086 319.044 177.766C319.044 177.456 318.949 177.226 318.759 177.076C318.579 176.916 318.274 176.836 317.844 176.836H314.679L315.474 176.041V182.836ZM328.595 180.976L329.465 181.876C329.075 182.356 328.595 182.731 328.025 183.001C327.465 183.271 326.83 183.406 326.12 183.406C325.31 183.406 324.59 183.236 323.96 182.896C323.33 182.556 322.835 182.091 322.475 181.501C322.125 180.901 321.95 180.216 321.95 179.446C321.95 178.676 322.12 177.996 322.46 177.406C322.8 176.806 323.27 176.336 323.87 175.996C324.47 175.656 325.145 175.486 325.895 175.486C326.625 175.486 327.27 175.656 327.83 175.996C328.4 176.326 328.845 176.786 329.165 177.376C329.495 177.956 329.66 178.631 329.66 179.401V179.491H328.25V179.356C328.25 178.816 328.15 178.346 327.95 177.946C327.75 177.536 327.47 177.221 327.11 177.001C326.76 176.771 326.355 176.656 325.895 176.656C325.405 176.656 324.97 176.771 324.59 177.001C324.21 177.231 323.915 177.556 323.705 177.976C323.495 178.386 323.39 178.871 323.39 179.431C323.39 179.991 323.505 180.486 323.735 180.916C323.975 181.336 324.305 181.661 324.725 181.891C325.145 182.121 325.625 182.236 326.165 182.236C327.155 182.236 327.965 181.816 328.595 180.976ZM329.66 179.911H322.985V178.876H329.42L329.66 179.401V179.911ZM332.863 186.076H331.468V175.726H332.848V178.006H332.533C332.613 177.516 332.798 177.081 333.088 176.701C333.388 176.321 333.758 176.026 334.198 175.816C334.648 175.596 335.138 175.486 335.668 175.486C336.388 175.486 337.028 175.661 337.588 176.011C338.148 176.351 338.588 176.821 338.908 177.421C339.228 178.011 339.388 178.686 339.388 179.446C339.388 180.216 339.223 180.901 338.893 181.501C338.573 182.091 338.123 182.556 337.543 182.896C336.973 183.236 336.323 183.406 335.593 183.406C334.923 183.406 334.343 183.271 333.853 183.001C333.363 182.721 332.993 182.346 332.743 181.876C332.493 181.396 332.393 180.861 332.443 180.271L332.728 179.986C332.768 180.416 332.908 180.801 333.148 181.141C333.398 181.481 333.713 181.746 334.093 181.936C334.483 182.116 334.903 182.206 335.353 182.206C335.873 182.206 336.323 182.091 336.703 181.861C337.083 181.621 337.383 181.291 337.603 180.871C337.823 180.451 337.933 179.976 337.933 179.446C337.933 178.916 337.828 178.446 337.618 178.036C337.408 177.616 337.118 177.286 336.748 177.046C336.378 176.806 335.943 176.686 335.443 176.686C334.943 176.686 334.498 176.811 334.108 177.061C333.728 177.301 333.423 177.641 333.193 178.081C332.973 178.521 332.863 179.031 332.863 179.611V186.076ZM346.879 181.051L347.824 181.951C347.464 182.401 347.019 182.756 346.489 183.016C345.959 183.276 345.359 183.406 344.689 183.406C343.929 183.406 343.249 183.236 342.649 182.896C342.059 182.556 341.594 182.091 341.254 181.501C340.914 180.901 340.744 180.216 340.744 179.446C340.744 178.686 340.914 178.011 341.254 177.421C341.594 176.821 342.064 176.351 342.664 176.011C343.274 175.661 343.959 175.486 344.719 175.486C345.379 175.486 345.969 175.616 346.489 175.876C347.019 176.136 347.464 176.491 347.824 176.941L346.879 177.841C346.649 177.491 346.359 177.211 346.009 177.001C345.659 176.791 345.239 176.686 344.749 176.686C344.249 176.686 343.804 176.806 343.414 177.046C343.034 177.276 342.734 177.601 342.514 178.021C342.304 178.431 342.199 178.906 342.199 179.446C342.199 179.986 342.304 180.466 342.514 180.886C342.734 181.296 343.034 181.621 343.414 181.861C343.804 182.091 344.249 182.206 344.749 182.206C345.249 182.206 345.669 182.101 346.009 181.891C346.359 181.681 346.649 181.401 346.879 181.051ZM349.486 183.166V175.726H350.851V181.336L350.746 181.306L355.201 175.726H356.416V183.166H355.051V177.556L355.171 177.601L350.701 183.166H349.486ZM358.714 183.166V175.726H360.079V181.336L359.974 181.306L364.429 175.726H365.644V183.166H364.279V177.556L364.399 177.601L359.929 183.166H358.714ZM202.577 201.656L200.417 198.446L202.577 195.236H204.137L201.947 198.446L204.137 201.656H202.577ZM205.547 201.656L203.387 198.446L205.547 195.236H207.107L204.917 198.446L207.107 201.656H205.547ZM208.356 200.426L209.376 199.436C209.666 199.786 210.001 200.086 210.381 200.336C210.761 200.586 211.171 200.781 211.611 200.921C212.051 201.061 212.516 201.131 213.006 201.131C213.556 201.131 214.041 201.051 214.461 200.891C214.881 200.721 215.211 200.491 215.451 200.201C215.691 199.911 215.811 199.571 215.811 199.181C215.811 198.671 215.586 198.271 215.136 197.981C214.696 197.681 213.936 197.451 212.856 197.291C211.876 197.141 211.091 196.941 210.501 196.691C209.911 196.441 209.481 196.126 209.211 195.746C208.941 195.356 208.806 194.896 208.806 194.366C208.806 193.746 208.981 193.196 209.331 192.716C209.681 192.236 210.161 191.866 210.771 191.606C211.391 191.336 212.096 191.201 212.886 191.201C213.796 191.201 214.601 191.381 215.301 191.741C216.011 192.091 216.631 192.571 217.161 193.181L216.156 194.156C215.746 193.646 215.281 193.241 214.761 192.941C214.241 192.631 213.616 192.476 212.886 192.476C212.126 192.476 211.501 192.646 211.011 192.986C210.531 193.316 210.291 193.761 210.291 194.321C210.291 194.611 210.381 194.861 210.561 195.071C210.741 195.271 211.036 195.441 211.446 195.581C211.856 195.721 212.406 195.846 213.096 195.956C214.096 196.096 214.901 196.306 215.511 196.586C216.131 196.856 216.581 197.201 216.861 197.621C217.151 198.041 217.296 198.546 217.296 199.136C217.296 199.786 217.111 200.356 216.741 200.846C216.381 201.336 215.876 201.721 215.226 202.001C214.586 202.271 213.846 202.406 213.006 202.406C212.016 202.406 211.136 202.231 210.366 201.881C209.596 201.521 208.926 201.036 208.356 200.426ZM230.984 202.166H229.589V197.861C229.589 197.141 229.439 196.601 229.139 196.241C228.839 195.871 228.429 195.686 227.909 195.686C227.539 195.686 227.184 195.791 226.844 196.001C226.514 196.211 226.244 196.541 226.034 196.991C225.834 197.431 225.734 198.006 225.734 198.716V202.166H224.339V197.861C224.339 197.141 224.184 196.601 223.874 196.241C223.574 195.871 223.169 195.686 222.659 195.686C222.279 195.686 221.919 195.791 221.579 196.001C221.249 196.211 220.979 196.541 220.769 196.991C220.569 197.431 220.469 198.006 220.469 198.716V202.166H219.074V194.726H220.454V196.541L220.334 196.526C220.474 196.016 220.679 195.616 220.949 195.326C221.229 195.036 221.544 194.826 221.894 194.696C222.254 194.556 222.619 194.486 222.989 194.486C223.659 194.486 224.209 194.671 224.639 195.041C225.079 195.411 225.364 195.956 225.494 196.676H225.314C225.454 196.146 225.669 195.721 225.959 195.401C226.259 195.081 226.599 194.851 226.979 194.711C227.369 194.561 227.764 194.486 228.164 194.486C229.054 194.486 229.744 194.766 230.234 195.326C230.734 195.876 230.984 196.676 230.984 197.726V202.166ZM239.368 202.166H238.063V200.696L238.018 200.336V197.561C238.018 196.971 237.828 196.506 237.448 196.166C237.068 195.816 236.553 195.641 235.903 195.641C235.433 195.641 235.003 195.741 234.613 195.941C234.223 196.131 233.883 196.396 233.593 196.736L232.723 195.836C233.133 195.406 233.603 195.076 234.133 194.846C234.673 194.606 235.273 194.486 235.933 194.486C236.613 194.486 237.208 194.611 237.718 194.861C238.238 195.111 238.643 195.461 238.933 195.911C239.223 196.351 239.368 196.886 239.368 197.516V202.166ZM235.318 202.406C234.758 202.406 234.263 202.306 233.833 202.106C233.403 201.896 233.068 201.611 232.828 201.251C232.588 200.891 232.468 200.481 232.468 200.021C232.468 199.501 232.613 199.061 232.903 198.701C233.203 198.331 233.613 198.051 234.133 197.861C234.653 197.661 235.248 197.561 235.918 197.561H238.183V198.596H236.068C235.438 198.596 234.918 198.711 234.508 198.941C234.108 199.161 233.908 199.506 233.908 199.976C233.908 200.376 234.058 200.696 234.358 200.936C234.668 201.176 235.068 201.296 235.558 201.296C236.038 201.296 236.473 201.201 236.863 201.011C237.253 200.821 237.563 200.556 237.793 200.216C238.033 199.866 238.168 199.466 238.198 199.016L238.693 199.286C238.693 199.886 238.548 200.421 238.258 200.891C237.968 201.361 237.568 201.731 237.058 202.001C236.558 202.271 235.978 202.406 235.318 202.406ZM245.438 194.606V195.926H245.108C244.658 195.926 244.243 196.036 243.863 196.256C243.493 196.466 243.193 196.801 242.963 197.261C242.743 197.711 242.633 198.301 242.633 199.031V202.166H241.238V194.726H242.618V197.111H242.408C242.518 196.481 242.718 195.986 243.008 195.626C243.308 195.266 243.653 195.006 244.043 194.846C244.433 194.686 244.833 194.606 245.243 194.606H245.438ZM251.363 202.166H249.578C248.998 202.166 248.553 202.016 248.243 201.716C247.943 201.406 247.793 200.966 247.793 200.396V192.626H249.188V200.216C249.188 200.466 249.253 200.661 249.383 200.801C249.513 200.931 249.703 200.996 249.953 200.996H251.363V202.166ZM251.258 195.896H246.338V194.726H251.258V195.896ZM254.533 202.166H253.093V191.441H257.323C258.053 191.441 258.688 191.571 259.228 191.831C259.768 192.091 260.188 192.451 260.488 192.911C260.798 193.371 260.953 193.911 260.953 194.531C260.953 195.151 260.798 195.691 260.488 196.151C260.188 196.611 259.768 196.971 259.228 197.231C258.688 197.491 258.053 197.621 257.323 197.621H254.383V196.376H257.323C257.993 196.376 258.518 196.216 258.898 195.896C259.288 195.566 259.483 195.111 259.483 194.531C259.483 193.951 259.288 193.501 258.898 193.181C258.518 192.851 257.993 192.686 257.323 192.686H254.533V202.166ZM262.018 202.166H260.203L256.183 197.171H257.863L262.018 202.166ZM269.442 202.166H268.137V200.696L268.092 200.336V197.561C268.092 196.971 267.902 196.506 267.522 196.166C267.142 195.816 266.627 195.641 265.977 195.641C265.507 195.641 265.077 195.741 264.687 195.941C264.297 196.131 263.957 196.396 263.667 196.736L262.797 195.836C263.207 195.406 263.677 195.076 264.207 194.846C264.747 194.606 265.347 194.486 266.007 194.486C266.687 194.486 267.282 194.611 267.792 194.861C268.312 195.111 268.717 195.461 269.007 195.911C269.297 196.351 269.442 196.886 269.442 197.516V202.166ZM265.392 202.406C264.832 202.406 264.337 202.306 263.907 202.106C263.477 201.896 263.142 201.611 262.902 201.251C262.662 200.891 262.542 200.481 262.542 200.021C262.542 199.501 262.687 199.061 262.977 198.701C263.277 198.331 263.687 198.051 264.207 197.861C264.727 197.661 265.322 197.561 265.992 197.561H268.257V198.596H266.142C265.512 198.596 264.992 198.711 264.582 198.941C264.182 199.161 263.982 199.506 263.982 199.976C263.982 200.376 264.132 200.696 264.432 200.936C264.742 201.176 265.142 201.296 265.632 201.296C266.112 201.296 266.547 201.201 266.937 201.011C267.327 200.821 267.637 200.556 267.867 200.216C268.107 199.866 268.242 199.466 268.272 199.016L268.767 199.286C268.767 199.886 268.622 200.421 268.332 200.891C268.042 201.361 267.642 201.731 267.132 202.001C266.632 202.271 266.052 202.406 265.392 202.406ZM278.271 202.166H276.876V197.876C276.876 197.146 276.711 196.601 276.381 196.241C276.051 195.871 275.606 195.686 275.046 195.686C274.646 195.686 274.266 195.791 273.906 196.001C273.546 196.211 273.256 196.541 273.036 196.991C272.816 197.441 272.706 198.021 272.706 198.731V202.166H271.311V194.726H272.691V197.006H272.481C272.591 196.376 272.791 195.881 273.081 195.521C273.371 195.151 273.716 194.886 274.116 194.726C274.516 194.566 274.931 194.486 275.361 194.486C276.261 194.486 276.971 194.766 277.491 195.326C278.011 195.876 278.271 196.676 278.271 197.726V202.166ZM281.539 202.166H280.144V191.366H281.539V202.166ZM287.449 202.166H285.514L281.134 198.311H281.284L285.214 194.726H287.014L282.844 198.446V198.176L287.449 202.166ZM290.035 202.166H288.64V194.726H290.035V202.166ZM289.345 192.971C289.085 192.971 288.86 192.886 288.67 192.716C288.49 192.536 288.4 192.316 288.4 192.056C288.4 191.796 288.49 191.576 288.67 191.396C288.86 191.216 289.085 191.126 289.345 191.126C289.605 191.126 289.825 191.216 290.005 191.396C290.185 191.576 290.275 191.796 290.275 192.056C290.275 192.316 290.185 192.536 290.005 192.716C289.825 192.886 289.605 192.971 289.345 192.971ZM298.969 202.166H297.574V197.876C297.574 197.146 297.409 196.601 297.079 196.241C296.749 195.871 296.304 195.686 295.744 195.686C295.344 195.686 294.964 195.791 294.604 196.001C294.244 196.211 293.954 196.541 293.734 196.991C293.514 197.441 293.404 198.021 293.404 198.731V202.166H292.009V194.726H293.389V197.006H293.179C293.289 196.376 293.489 195.881 293.779 195.521C294.069 195.151 294.414 194.886 294.814 194.726C295.214 194.566 295.629 194.486 296.059 194.486C296.959 194.486 297.669 194.766 298.189 195.326C298.709 195.876 298.969 196.676 298.969 197.726V202.166ZM308.447 201.446C308.447 202.206 308.272 202.876 307.922 203.456C307.582 204.036 307.112 204.491 306.512 204.821C305.912 205.151 305.222 205.316 304.442 205.316C303.732 205.316 303.087 205.191 302.507 204.941C301.927 204.701 301.447 204.366 301.067 203.936L301.937 203.006C302.217 203.356 302.557 203.631 302.957 203.831C303.367 204.031 303.852 204.131 304.412 204.131C304.942 204.131 305.402 204.016 305.792 203.786C306.192 203.566 306.502 203.256 306.722 202.856C306.942 202.466 307.052 202.006 307.052 201.476V198.611C307.052 197.971 306.932 197.436 306.692 197.006C306.452 196.576 306.137 196.251 305.747 196.031C305.367 195.801 304.952 195.686 304.502 195.686C304.012 195.686 303.572 195.806 303.182 196.046C302.802 196.286 302.507 196.611 302.297 197.021C302.087 197.421 301.982 197.876 301.982 198.386C301.982 198.906 302.087 199.366 302.297 199.766C302.517 200.166 302.817 200.481 303.197 200.711C303.587 200.931 304.042 201.041 304.562 201.041C305.022 201.041 305.442 200.946 305.822 200.756C306.202 200.566 306.512 200.306 306.752 199.976C307.002 199.636 307.147 199.251 307.187 198.821L307.472 199.106C307.542 199.706 307.442 200.241 307.172 200.711C306.912 201.181 306.532 201.556 306.032 201.836C305.542 202.106 304.972 202.241 304.322 202.241C303.602 202.241 302.952 202.081 302.372 201.761C301.802 201.431 301.352 200.976 301.022 200.396C300.692 199.806 300.527 199.136 300.527 198.386C300.527 197.626 300.692 196.956 301.022 196.376C301.362 195.786 301.812 195.326 302.372 194.996C302.942 194.656 303.577 194.486 304.277 194.486C304.787 194.486 305.257 194.581 305.687 194.771C306.127 194.961 306.497 195.246 306.797 195.626C307.097 195.996 307.292 196.456 307.382 197.006H307.067V194.726H308.447V201.446ZM311.697 195.236L313.872 198.446L311.697 201.656H310.152L312.342 198.446L310.152 195.236H311.697ZM314.667 195.236L316.842 198.446L314.667 201.656H313.122L315.312 198.446L313.122 195.236H314.667ZM321.186 197.651C321.186 196.451 321.371 195.306 321.741 194.216C322.111 193.126 322.641 192.121 323.331 191.201H324.666C323.956 192.241 323.421 193.296 323.061 194.366C322.711 195.426 322.536 196.521 322.536 197.651C322.536 199.871 323.246 202.021 324.666 204.101H323.331C322.641 203.181 322.111 202.176 321.741 201.086C321.371 199.996 321.186 198.851 321.186 197.651ZM333.143 202.166H325.958V200.996L329.783 197.426C330.393 196.846 330.858 196.321 331.178 195.851C331.508 195.381 331.673 194.896 331.673 194.396C331.673 194.026 331.583 193.691 331.403 193.391C331.233 193.091 330.993 192.851 330.683 192.671C330.373 192.491 330.013 192.401 329.603 192.401C329.033 192.401 328.513 192.561 328.043 192.881C327.573 193.191 327.163 193.631 326.813 194.201L325.838 193.286C326.348 192.596 326.918 192.076 327.548 191.726C328.188 191.376 328.893 191.201 329.663 191.201C330.353 191.201 330.953 191.346 331.463 191.636C331.973 191.916 332.368 192.296 332.648 192.776C332.938 193.256 333.083 193.801 333.083 194.411C333.083 194.871 332.983 195.311 332.783 195.731C332.593 196.151 332.308 196.581 331.928 197.021C331.548 197.461 331.063 197.946 330.473 198.476C330.173 198.756 329.868 199.041 329.558 199.331C329.248 199.611 328.938 199.891 328.628 200.171C328.328 200.451 328.028 200.726 327.728 200.996H333.143V202.166ZM339.033 202.406C338.203 202.406 337.483 202.186 336.873 201.746C336.273 201.296 335.813 200.656 335.493 199.826C335.173 198.986 335.013 197.981 335.013 196.811C335.013 195.041 335.368 193.666 336.078 192.686C336.798 191.696 337.783 191.201 339.033 191.201C340.293 191.201 341.278 191.696 341.988 192.686C342.708 193.666 343.068 195.041 343.068 196.811C343.068 197.981 342.908 198.986 342.588 199.826C342.268 200.656 341.808 201.296 341.208 201.746C340.608 202.186 339.883 202.406 339.033 202.406ZM339.033 201.206C339.853 201.206 340.483 200.831 340.923 200.081C341.373 199.321 341.598 198.231 341.598 196.811C341.598 195.381 341.373 194.291 340.923 193.541C340.483 192.781 339.853 192.401 339.033 192.401C338.223 192.401 337.593 192.781 337.143 193.541C336.693 194.291 336.468 195.381 336.468 196.811C336.468 198.231 336.693 199.321 337.143 200.081C337.593 200.831 338.223 201.206 339.033 201.206ZM351.85 202.166H344.665V200.996L348.49 197.426C349.1 196.846 349.565 196.321 349.885 195.851C350.215 195.381 350.38 194.896 350.38 194.396C350.38 194.026 350.29 193.691 350.11 193.391C349.94 193.091 349.7 192.851 349.39 192.671C349.08 192.491 348.72 192.401 348.31 192.401C347.74 192.401 347.22 192.561 346.75 192.881C346.28 193.191 345.87 193.631 345.52 194.201L344.545 193.286C345.055 192.596 345.625 192.076 346.255 191.726C346.895 191.376 347.6 191.201 348.37 191.201C349.06 191.201 349.66 191.346 350.17 191.636C350.68 191.916 351.075 192.296 351.355 192.776C351.645 193.256 351.79 193.801 351.79 194.411C351.79 194.871 351.69 195.311 351.49 195.731C351.3 196.151 351.015 196.581 350.635 197.021C350.255 197.461 349.77 197.946 349.18 198.476C348.88 198.756 348.575 199.041 348.265 199.331C347.955 199.611 347.645 199.891 347.335 200.171C347.035 200.451 346.735 200.726 346.435 200.996H351.85V202.166ZM360.221 202.166H358.826V199.601H353.231V198.461L358.826 191.441H360.221V198.461H361.826V199.601H360.221V202.166ZM358.826 193.241L354.656 198.461H358.826V193.241ZM366.436 197.651C366.436 198.851 366.251 199.996 365.881 201.086C365.521 202.176 364.991 203.181 364.291 204.101H362.941C364.371 202.021 365.086 199.871 365.086 197.651C365.086 196.521 364.906 195.426 364.546 194.366C364.196 193.296 363.661 192.241 362.941 191.201H364.291C364.991 192.121 365.521 193.126 365.881 194.216C366.251 195.306 366.436 196.451 366.436 197.651Z" fill="black"/>
<path d="M152 203C163.046 203 172 194.046 172 183C172 171.954 163.046 163 152 163C140.954 163 132 171.954 132 183C132 194.046 140.954 203 152 203Z" fill="#F2C45B"/>
<path d="M509.5 296C535.181 296 556 275.181 556 249.5C556 223.819 535.181 203 509.5 203C483.819 203 463 223.819 463 249.5C463 275.181 483.819 296 509.5 296Z" fill="#6683C2"/>
<path d="M185 98C195.493 98 204 89.4934 204 79C204 68.5066 195.493 60 185 60C174.507 60 166 68.5066 166 79C166 89.4934 174.507 98 185 98Z" fill="white" fill-opacity="0.63"/>
<path d="M28 229C43.464 229 56 216.464 56 201C56 185.536 43.464 173 28 173C12.536 173 0 185.536 0 201C0 216.464 12.536 229 28 229Z" fill="white" fill-opacity="0.63"/>
<path d="M398 358C431.689 358 459 330.689 459 297C459 263.311 431.689 236 398 236C364.311 236 337 263.311 337 297C337 330.689 364.311 358 398 358Z" fill="white" fill-opacity="0.63"/>
<path d="M419 229C433.912 229 446 216.912 446 202C446 187.088 433.912 175 419 175C404.088 175 392 187.088 392 202C392 216.912 404.088 229 419 229Z" fill="white" fill-opacity="0.63"/>
</svg>
