<svg width="307" height="546" viewBox="0 0 307 546" fill="none" xmlns="http://www.w3.org/2000/svg">
<path d="M91.5 408C101.165 408 109 400.165 109 390.5C109 380.835 101.165 373 91.5 373C81.835 373 74 380.835 74 390.5C74 400.165 81.835 408 91.5 408Z" fill="#6683C2"/>
<path d="M214.5 312C227.479 312 238 301.479 238 288.5C238 275.521 227.479 265 214.5 265C201.521 265 191 275.521 191 288.5C191 301.479 201.521 312 214.5 312Z" fill="#7FCBB4"/>
<path d="M170.109 98.2187C181.768 98.2187 191.219 88.7677 191.219 77.1094C191.219 65.451 181.768 56 170.109 56C158.451 56 149 65.451 149 77.1094C149 88.7677 158.451 98.2187 170.109 98.2187Z" fill="#68CCEA"/>
<path d="M100.5 203C117.345 203 131 189.345 131 172.5C131 155.655 117.345 142 100.5 142C83.6553 142 70 155.655 70 172.5C70 189.345 83.6553 203 100.5 203Z" fill="#F2C45B"/>
<path d="M49 510C74.9574 510 96 488.957 96 463C96 437.043 74.9574 416 49 416C23.0426 416 2 437.043 2 463C2 488.957 23.0426 510 49 510Z" fill="white" fill-opacity="0.63"/>
<path d="M104 365C146.526 365 181 330.302 181 287.5C181 244.698 146.526 210 104 210C61.474 210 27 244.698 27 287.5C27 330.302 61.474 365 104 365Z" fill="white"/>
<path d="M54.6114 274.24C53.8014 274.24 53.0564 274.1 52.3764 273.82C51.6964 273.54 51.1014 273.15 50.5914 272.65C50.0814 272.14 49.6864 271.545 49.4064 270.865C49.1264 270.175 48.9864 269.43 48.9864 268.63C48.9864 267.83 49.1264 267.09 49.4064 266.41C49.6864 265.73 50.0814 265.14 50.5914 264.64C51.1014 264.13 51.6964 263.735 52.3764 263.455C53.0564 263.175 53.8014 263.035 54.6114 263.035C55.4214 263.035 56.1664 263.175 56.8464 263.455C57.5264 263.735 58.1214 264.13 58.6314 264.64C59.1414 265.14 59.5364 265.73 59.8164 266.41C60.0964 267.09 60.2364 267.83 60.2364 268.63C60.2364 269.43 60.0964 270.175 59.8164 270.865C59.5364 271.545 59.1414 272.14 58.6314 272.65C58.1214 273.15 57.5264 273.54 56.8464 273.82C56.1664 274.1 55.4214 274.24 54.6114 274.24ZM54.6114 272.95C55.4214 272.95 56.1364 272.765 56.7564 272.395C57.3764 272.025 57.8564 271.515 58.1964 270.865C58.5464 270.205 58.7214 269.46 58.7214 268.63C58.7214 267.8 58.5464 267.06 58.1964 266.41C57.8564 265.76 57.3764 265.25 56.7564 264.88C56.1364 264.51 55.4214 264.325 54.6114 264.325C53.8114 264.325 53.0964 264.51 52.4664 264.88C51.8464 265.25 51.3614 265.76 51.0114 266.41C50.6714 267.06 50.5014 267.8 50.5014 268.63C50.5014 269.46 50.6714 270.205 51.0114 270.865C51.3614 271.515 51.8464 272.025 52.4664 272.395C53.0964 272.765 53.8114 272.95 54.6114 272.95ZM67.7731 274V266.56H69.1681V274H67.7731ZM62.1781 274V266.56H63.5731V274H62.1781ZM62.8531 270.67V269.515H68.5531V270.67H62.8531ZM70.5955 274V272.83H71.1655C71.4455 272.83 71.6505 272.76 71.7805 272.62C71.9205 272.48 72.0055 272.235 72.0355 271.885L72.5005 266.56H77.9755V274H76.5805V266.815L77.5705 267.73H72.7705L73.8505 266.815L73.3405 272.125C73.2805 272.825 73.0955 273.315 72.7855 273.595C72.4755 273.865 72.0105 274 71.3905 274H70.5955ZM86.5993 274H85.2943V272.53L85.2493 272.17V269.395C85.2493 268.805 85.0593 268.34 84.6793 268C84.2993 267.65 83.7843 267.475 83.1343 267.475C82.6643 267.475 82.2343 267.575 81.8443 267.775C81.4543 267.965 81.1143 268.23 80.8243 268.57L79.9543 267.67C80.3643 267.24 80.8343 266.91 81.3643 266.68C81.9043 266.44 82.5043 266.32 83.1643 266.32C83.8443 266.32 84.4393 266.445 84.9493 266.695C85.4693 266.945 85.8743 267.295 86.1643 267.745C86.4543 268.185 86.5993 268.72 86.5993 269.35V274ZM82.5493 274.24C81.9893 274.24 81.4943 274.14 81.0643 273.94C80.6343 273.73 80.2993 273.445 80.0593 273.085C79.8193 272.725 79.6993 272.315 79.6993 271.855C79.6993 271.335 79.8443 270.895 80.1343 270.535C80.4343 270.165 80.8443 269.885 81.3643 269.695C81.8843 269.495 82.4793 269.395 83.1493 269.395H85.4143V270.43H83.2993C82.6693 270.43 82.1493 270.545 81.7393 270.775C81.3393 270.995 81.1393 271.34 81.1393 271.81C81.1393 272.21 81.2893 272.53 81.5893 272.77C81.8993 273.01 82.2993 273.13 82.7893 273.13C83.2693 273.13 83.7043 273.035 84.0943 272.845C84.4843 272.655 84.7943 272.39 85.0243 272.05C85.2643 271.7 85.3993 271.3 85.4293 270.85L85.9243 271.12C85.9243 271.72 85.7793 272.255 85.4893 272.725C85.1993 273.195 84.7993 273.565 84.2893 273.835C83.7893 274.105 83.2093 274.24 82.5493 274.24ZM88.6185 274V266.56H89.9835V272.17L89.8785 272.14L94.3335 266.56H95.5485V274H94.1835V268.39L94.3035 268.435L89.8335 274H88.6185ZM92.1735 265.225C91.4835 265.225 90.9085 265.05 90.4485 264.7C89.9885 264.34 89.7185 263.835 89.6385 263.185H90.8235C90.8835 263.605 91.0285 263.91 91.2585 264.1C91.4985 264.29 91.8035 264.385 92.1735 264.385C92.5435 264.385 92.8435 264.29 93.0735 264.1C93.3135 263.91 93.4635 263.605 93.5235 263.185H94.7085C94.6285 263.835 94.3585 264.34 93.8985 264.7C93.4385 265.05 92.8635 265.225 92.1735 265.225ZM103.442 274V266.56H104.837V274H103.442ZM97.847 274V266.56H99.242V274H97.847ZM98.522 270.67V269.515H104.222V270.67H98.522ZM110.524 270.34H106.444V269.125H110.524V270.34ZM112.144 274V266.56H113.524V273.685L113.164 272.845H117.049L116.659 273.685V266.56H118.039V273.685L117.754 272.845H121.669L121.174 273.685V266.56H122.554V274H112.144ZM129.899 274L125.834 270.145H125.984L129.659 266.56H131.444L127.454 270.445L127.169 269.665L131.804 274H129.899ZM124.844 274V266.56H126.239V274H124.844ZM136.06 274.24C135.28 274.24 134.59 274.07 133.99 273.73C133.39 273.39 132.92 272.925 132.58 272.335C132.24 271.735 132.07 271.05 132.07 270.28C132.07 269.51 132.24 268.83 132.58 268.24C132.92 267.65 133.39 267.185 133.99 266.845C134.59 266.495 135.28 266.32 136.06 266.32C136.84 266.32 137.525 266.495 138.115 266.845C138.715 267.185 139.185 267.65 139.525 268.24C139.875 268.83 140.05 269.51 140.05 270.28C140.05 271.05 139.875 271.735 139.525 272.335C139.185 272.925 138.715 273.39 138.115 273.73C137.525 274.07 136.84 274.24 136.06 274.24ZM136.06 273.04C136.56 273.04 137 272.925 137.38 272.695C137.76 272.465 138.055 272.14 138.265 271.72C138.475 271.3 138.58 270.82 138.58 270.28C138.58 269.74 138.475 269.265 138.265 268.855C138.055 268.435 137.76 268.11 137.38 267.88C137 267.64 136.56 267.52 136.06 267.52C135.56 267.52 135.115 267.64 134.725 267.88C134.345 268.11 134.05 268.435 133.84 268.855C133.63 269.265 133.525 269.74 133.525 270.28C133.525 270.82 133.63 271.3 133.84 271.72C134.05 272.14 134.345 272.465 134.725 272.695C135.115 272.925 135.56 273.04 136.06 273.04ZM140.996 274V272.83H141.566C141.846 272.83 142.051 272.76 142.181 272.62C142.321 272.48 142.406 272.235 142.436 271.885L142.901 266.56H148.376V274H146.981V266.815L147.971 267.73H143.171L144.251 266.815L143.741 272.125C143.681 272.825 143.496 273.315 143.186 273.595C142.876 273.865 142.411 274 141.791 274H140.996ZM157 274H155.695V272.53L155.65 272.17V269.395C155.65 268.805 155.46 268.34 155.08 268C154.7 267.65 154.185 267.475 153.535 267.475C153.065 267.475 152.635 267.575 152.245 267.775C151.855 267.965 151.515 268.23 151.225 268.57L150.355 267.67C150.765 267.24 151.235 266.91 151.765 266.68C152.305 266.44 152.905 266.32 153.565 266.32C154.245 266.32 154.84 266.445 155.35 266.695C155.87 266.945 156.275 267.295 156.565 267.745C156.855 268.185 157 268.72 157 269.35V274ZM152.95 274.24C152.39 274.24 151.895 274.14 151.465 273.94C151.035 273.73 150.7 273.445 150.46 273.085C150.22 272.725 150.1 272.315 150.1 271.855C150.1 271.335 150.245 270.895 150.535 270.535C150.835 270.165 151.245 269.885 151.765 269.695C152.285 269.495 152.88 269.395 153.55 269.395H155.815V270.43H153.7C153.07 270.43 152.55 270.545 152.14 270.775C151.74 270.995 151.54 271.34 151.54 271.81C151.54 272.21 151.69 272.53 151.99 272.77C152.3 273.01 152.7 273.13 153.19 273.13C153.67 273.13 154.105 273.035 154.495 272.845C154.885 272.655 155.195 272.39 155.425 272.05C155.665 271.7 155.8 271.3 155.83 270.85L156.325 271.12C156.325 271.72 156.18 272.255 155.89 272.725C155.6 273.195 155.2 273.565 154.69 273.835C154.19 274.105 153.61 274.24 152.95 274.24ZM48.599 293V285.56H53.879V286.73H48.869L49.994 285.845V293H48.599ZM58.6865 293.24C57.9065 293.24 57.2165 293.07 56.6165 292.73C56.0165 292.39 55.5465 291.925 55.2065 291.335C54.8665 290.735 54.6965 290.05 54.6965 289.28C54.6965 288.51 54.8665 287.83 55.2065 287.24C55.5465 286.65 56.0165 286.185 56.6165 285.845C57.2165 285.495 57.9065 285.32 58.6865 285.32C59.4665 285.32 60.1515 285.495 60.7415 285.845C61.3415 286.185 61.8115 286.65 62.1515 287.24C62.5015 287.83 62.6765 288.51 62.6765 289.28C62.6765 290.05 62.5015 290.735 62.1515 291.335C61.8115 291.925 61.3415 292.39 60.7415 292.73C60.1515 293.07 59.4665 293.24 58.6865 293.24ZM58.6865 292.04C59.1865 292.04 59.6265 291.925 60.0065 291.695C60.3865 291.465 60.6815 291.14 60.8915 290.72C61.1015 290.3 61.2065 289.82 61.2065 289.28C61.2065 288.74 61.1015 288.265 60.8915 287.855C60.6815 287.435 60.3865 287.11 60.0065 286.88C59.6265 286.64 59.1865 286.52 58.6865 286.52C58.1865 286.52 57.7415 286.64 57.3515 286.88C56.9715 287.11 56.6765 287.435 56.4665 287.855C56.2565 288.265 56.1515 288.74 56.1515 289.28C56.1515 289.82 56.2565 290.3 56.4665 290.72C56.6765 291.14 56.9715 291.465 57.3515 291.695C57.7415 291.925 58.1865 292.04 58.6865 292.04ZM63.6313 292.49V291.845H63.9013C64.1113 291.845 64.2713 291.8 64.3813 291.71C64.5013 291.62 64.5963 291.47 64.6663 291.26C64.7363 291.04 64.7913 290.735 64.8313 290.345L65.3713 285.56H70.7263V292.31H69.3463V285.815L70.3213 286.73H65.5963L66.7063 285.815L66.1363 290.45C66.0763 290.96 65.9763 291.365 65.8363 291.665C65.7063 291.955 65.5113 292.165 65.2513 292.295C64.9913 292.425 64.6363 292.49 64.1863 292.49H63.6313ZM63.3013 294.965V291.845H71.8363V294.965H70.5163V292.115L71.3863 293H64.0963L64.6213 292.115V294.965H63.3013ZM79.7438 293H78.4388V291.53L78.3938 291.17V288.395C78.3938 287.805 78.2038 287.34 77.8238 287C77.4438 286.65 76.9288 286.475 76.2788 286.475C75.8088 286.475 75.3788 286.575 74.9888 286.775C74.5988 286.965 74.2588 287.23 73.9688 287.57L73.0988 286.67C73.5088 286.24 73.9788 285.91 74.5088 285.68C75.0488 285.44 75.6488 285.32 76.3088 285.32C76.9888 285.32 77.5838 285.445 78.0938 285.695C78.6138 285.945 79.0188 286.295 79.3088 286.745C79.5988 287.185 79.7438 287.72 79.7438 288.35V293ZM75.6938 293.24C75.1338 293.24 74.6388 293.14 74.2088 292.94C73.7788 292.73 73.4438 292.445 73.2038 292.085C72.9638 291.725 72.8438 291.315 72.8438 290.855C72.8438 290.335 72.9888 289.895 73.2788 289.535C73.5788 289.165 73.9888 288.885 74.5088 288.695C75.0288 288.495 75.6238 288.395 76.2938 288.395H78.5588V289.43H76.4438C75.8138 289.43 75.2938 289.545 74.8838 289.775C74.4838 289.995 74.2838 290.34 74.2838 290.81C74.2838 291.21 74.4338 291.53 74.7338 291.77C75.0438 292.01 75.4438 292.13 75.9338 292.13C76.4138 292.13 76.8488 292.035 77.2388 291.845C77.6288 291.655 77.9388 291.39 78.1688 291.05C78.4088 290.7 78.5438 290.3 78.5738 289.85L79.0688 290.12C79.0688 290.72 78.9238 291.255 78.6338 291.725C78.3438 292.195 77.9438 292.565 77.4338 292.835C76.9338 293.105 76.3538 293.24 75.6938 293.24ZM84.6927 293V285.56H91.4127V293H90.0177V285.815L91.0077 286.73H84.9777L86.0877 285.815V293H84.6927ZM97.2265 293.24C96.4465 293.24 95.7565 293.07 95.1565 292.73C94.5565 292.39 94.0865 291.925 93.7465 291.335C93.4065 290.735 93.2365 290.05 93.2365 289.28C93.2365 288.51 93.4065 287.83 93.7465 287.24C94.0865 286.65 94.5565 286.185 95.1565 285.845C95.7565 285.495 96.4465 285.32 97.2265 285.32C98.0065 285.32 98.6915 285.495 99.2815 285.845C99.8815 286.185 100.352 286.65 100.692 287.24C101.042 287.83 101.217 288.51 101.217 289.28C101.217 290.05 101.042 290.735 100.692 291.335C100.352 291.925 99.8815 292.39 99.2815 292.73C98.6915 293.07 98.0065 293.24 97.2265 293.24ZM97.2265 292.04C97.7265 292.04 98.1665 291.925 98.5465 291.695C98.9265 291.465 99.2215 291.14 99.4315 290.72C99.6415 290.3 99.7465 289.82 99.7465 289.28C99.7465 288.74 99.6415 288.265 99.4315 287.855C99.2215 287.435 98.9265 287.11 98.5465 286.88C98.1665 286.64 97.7265 286.52 97.2265 286.52C96.7265 286.52 96.2815 286.64 95.8915 286.88C95.5115 287.11 95.2165 287.435 95.0065 287.855C94.7965 288.265 94.6915 288.74 94.6915 289.28C94.6915 289.82 94.7965 290.3 95.0065 290.72C95.2165 291.14 95.5115 291.465 95.8915 291.695C96.2815 291.925 96.7265 292.04 97.2265 292.04ZM105.948 293V285.56H109.743C110.523 285.56 111.138 285.74 111.588 286.1C112.048 286.46 112.278 286.94 112.278 287.54C112.278 287.92 112.163 288.25 111.933 288.53C111.713 288.81 111.413 289.025 111.033 289.175L111.018 289.04C111.488 289.17 111.873 289.39 112.173 289.7C112.473 290.01 112.623 290.39 112.623 290.84C112.623 291.26 112.498 291.635 112.248 291.965C111.998 292.295 111.663 292.55 111.243 292.73C110.823 292.91 110.353 293 109.833 293H105.948ZM107.283 292.67L106.503 291.905H109.728C110.188 291.905 110.548 291.81 110.808 291.62C111.068 291.42 111.198 291.14 111.198 290.78C111.198 290.43 111.068 290.16 110.808 289.97C110.548 289.77 110.188 289.67 109.728 289.67H106.668V288.62H109.653C110.093 288.62 110.403 288.53 110.583 288.35C110.763 288.17 110.853 287.92 110.853 287.6C110.853 287.29 110.758 287.06 110.568 286.91C110.388 286.75 110.083 286.67 109.653 286.67H106.488L107.283 285.875V292.67ZM120.404 290.81L121.274 291.71C120.884 292.19 120.404 292.565 119.834 292.835C119.274 293.105 118.639 293.24 117.929 293.24C117.119 293.24 116.399 293.07 115.769 292.73C115.139 292.39 114.644 291.925 114.284 291.335C113.934 290.735 113.759 290.05 113.759 289.28C113.759 288.51 113.929 287.83 114.269 287.24C114.609 286.64 115.079 286.17 115.679 285.83C116.279 285.49 116.954 285.32 117.704 285.32C118.434 285.32 119.079 285.49 119.639 285.83C120.209 286.16 120.654 286.62 120.974 287.21C121.304 287.79 121.469 288.465 121.469 289.235V289.325H120.059V289.19C120.059 288.65 119.959 288.18 119.759 287.78C119.559 287.37 119.279 287.055 118.919 286.835C118.569 286.605 118.164 286.49 117.704 286.49C117.214 286.49 116.779 286.605 116.399 286.835C116.019 287.065 115.724 287.39 115.514 287.81C115.304 288.22 115.199 288.705 115.199 289.265C115.199 289.825 115.314 290.32 115.544 290.75C115.784 291.17 116.114 291.495 116.534 291.725C116.954 291.955 117.434 292.07 117.974 292.07C118.964 292.07 119.774 291.65 120.404 290.81ZM121.469 289.745H114.794V288.71H121.229L121.469 289.235V289.745ZM124.672 295.91H123.277V285.56H124.657V287.84H124.342C124.422 287.35 124.607 286.915 124.897 286.535C125.197 286.155 125.567 285.86 126.007 285.65C126.457 285.43 126.947 285.32 127.477 285.32C128.197 285.32 128.837 285.495 129.397 285.845C129.957 286.185 130.397 286.655 130.717 287.255C131.037 287.845 131.197 288.52 131.197 289.28C131.197 290.05 131.032 290.735 130.702 291.335C130.382 291.925 129.932 292.39 129.352 292.73C128.782 293.07 128.132 293.24 127.402 293.24C126.732 293.24 126.152 293.105 125.662 292.835C125.172 292.555 124.802 292.18 124.552 291.71C124.302 291.23 124.202 290.695 124.252 290.105L124.537 289.82C124.577 290.25 124.717 290.635 124.957 290.975C125.207 291.315 125.522 291.58 125.902 291.77C126.292 291.95 126.712 292.04 127.162 292.04C127.682 292.04 128.132 291.925 128.512 291.695C128.892 291.455 129.192 291.125 129.412 290.705C129.632 290.285 129.742 289.81 129.742 289.28C129.742 288.75 129.637 288.28 129.427 287.87C129.217 287.45 128.927 287.12 128.557 286.88C128.187 286.64 127.752 286.52 127.252 286.52C126.752 286.52 126.307 286.645 125.917 286.895C125.537 287.135 125.232 287.475 125.002 287.915C124.782 288.355 124.672 288.865 124.672 289.445V295.91ZM138.688 290.885L139.633 291.785C139.273 292.235 138.828 292.59 138.298 292.85C137.768 293.11 137.168 293.24 136.498 293.24C135.738 293.24 135.058 293.07 134.458 292.73C133.868 292.39 133.403 291.925 133.063 291.335C132.723 290.735 132.553 290.05 132.553 289.28C132.553 288.52 132.723 287.845 133.063 287.255C133.403 286.655 133.873 286.185 134.473 285.845C135.083 285.495 135.768 285.32 136.528 285.32C137.188 285.32 137.778 285.45 138.298 285.71C138.828 285.97 139.273 286.325 139.633 286.775L138.688 287.675C138.458 287.325 138.168 287.045 137.818 286.835C137.468 286.625 137.048 286.52 136.558 286.52C136.058 286.52 135.613 286.64 135.223 286.88C134.843 287.11 134.543 287.435 134.323 287.855C134.113 288.265 134.008 288.74 134.008 289.28C134.008 289.82 134.113 290.3 134.323 290.72C134.543 291.13 134.843 291.455 135.223 291.695C135.613 291.925 136.058 292.04 136.558 292.04C137.058 292.04 137.478 291.935 137.818 291.725C138.168 291.515 138.458 291.235 138.688 290.885ZM141.294 293V285.56H142.659V291.17L142.554 291.14L147.009 285.56H148.224V293H146.859V287.39L146.979 287.435L142.509 293H141.294ZM150.523 293V285.56H151.888V291.17L151.783 291.14L156.238 285.56H157.453V293H156.088V287.39L156.208 287.435L151.738 293H150.523ZM60.0547 311.49L57.8947 308.28L60.0547 305.07H61.6147L59.4247 308.28L61.6147 311.49H60.0547ZM63.0247 311.49L60.8647 308.28L63.0247 305.07H64.5847L62.3947 308.28L64.5847 311.49H63.0247ZM76.4385 312H75.0735V310.455L75.2535 310.515C74.8935 311.055 74.3935 311.48 73.7535 311.79C73.1235 312.09 72.4185 312.24 71.6385 312.24C70.8485 312.24 70.1135 312.105 69.4335 311.835C68.7635 311.555 68.1735 311.165 67.6635 310.665C67.1635 310.155 66.7735 309.56 66.4935 308.88C66.2235 308.19 66.0885 307.44 66.0885 306.63C66.0885 305.83 66.2285 305.09 66.5085 304.41C66.7885 303.73 67.1785 303.14 67.6785 302.64C68.1885 302.13 68.7835 301.735 69.4635 301.455C70.1435 301.175 70.8835 301.035 71.6835 301.035C72.6135 301.035 73.4535 301.22 74.2035 301.59C74.9535 301.95 75.5735 302.44 76.0635 303.06L75.0585 304.035C74.6885 303.515 74.2185 303.1 73.6485 302.79C73.0885 302.48 72.4335 302.325 71.6835 302.325C70.9035 302.325 70.2035 302.515 69.5835 302.895C68.9635 303.265 68.4785 303.775 68.1285 304.425C67.7785 305.065 67.6035 305.8 67.6035 306.63C67.6035 307.46 67.7785 308.205 68.1285 308.865C68.4785 309.515 68.9635 310.03 69.5835 310.41C70.2135 310.78 70.9335 310.965 71.7435 310.965C72.5435 310.965 73.2485 310.79 73.8585 310.44C74.4785 310.09 74.9235 309.615 75.1935 309.015L75.0585 309.585V307.545H71.6085V306.33H76.4385V312ZM84.6252 309.81L85.4952 310.71C85.1052 311.19 84.6252 311.565 84.0552 311.835C83.4952 312.105 82.8602 312.24 82.1502 312.24C81.3402 312.24 80.6202 312.07 79.9902 311.73C79.3602 311.39 78.8652 310.925 78.5052 310.335C78.1552 309.735 77.9802 309.05 77.9802 308.28C77.9802 307.51 78.1502 306.83 78.4902 306.24C78.8302 305.64 79.3002 305.17 79.9002 304.83C80.5002 304.49 81.1752 304.32 81.9252 304.32C82.6552 304.32 83.3002 304.49 83.8602 304.83C84.4302 305.16 84.8752 305.62 85.1952 306.21C85.5252 306.79 85.6902 307.465 85.6902 308.235V308.325H84.2802V308.19C84.2802 307.65 84.1802 307.18 83.9802 306.78C83.7802 306.37 83.5002 306.055 83.1402 305.835C82.7902 305.605 82.3852 305.49 81.9252 305.49C81.4352 305.49 81.0002 305.605 80.6202 305.835C80.2402 306.065 79.9452 306.39 79.7352 306.81C79.5252 307.22 79.4202 307.705 79.4202 308.265C79.4202 308.825 79.5352 309.32 79.7652 309.75C80.0052 310.17 80.3352 310.495 80.7552 310.725C81.1752 310.955 81.6552 311.07 82.1952 311.07C83.1852 311.07 83.9952 310.65 84.6252 309.81ZM85.6902 308.745H79.0152V307.71H85.4502L85.6902 308.235V308.745ZM91.5549 312H89.7699C89.1899 312 88.7449 311.85 88.4349 311.55C88.1349 311.24 87.9849 310.8 87.9849 310.23V302.46H89.3799V310.05C89.3799 310.3 89.4449 310.495 89.5749 310.635C89.7049 310.765 89.8949 310.83 90.1449 310.83H91.5549V312ZM91.4499 305.73H86.5299V304.56H91.4499V305.73ZM101.655 309.24L102.66 310.215C102.19 310.835 101.58 311.33 100.83 311.7C100.08 312.06 99.2554 312.24 98.3554 312.24C97.5654 312.24 96.8354 312.1 96.1654 311.82C95.5054 311.54 94.9304 311.15 94.4404 310.65C93.9504 310.14 93.5654 309.545 93.2854 308.865C93.0154 308.185 92.8804 307.445 92.8804 306.645C92.8804 305.845 93.0204 305.105 93.3004 304.425C93.5804 303.735 93.9654 303.14 94.4554 302.64C94.9554 302.13 95.5404 301.735 96.2104 301.455C96.8804 301.175 97.6104 301.035 98.4004 301.035C99.2904 301.035 100.105 301.22 100.845 301.59C101.585 301.95 102.19 302.44 102.66 303.06L101.655 304.035C101.295 303.515 100.84 303.1 100.29 302.79C99.7404 302.48 99.1104 302.325 98.4004 302.325C97.6404 302.325 96.9554 302.515 96.3454 302.895C95.7454 303.265 95.2704 303.775 94.9204 304.425C94.5704 305.065 94.3954 305.805 94.3954 306.645C94.3954 307.465 94.5704 308.2 94.9204 308.85C95.2704 309.5 95.7454 310.015 96.3454 310.395C96.9554 310.765 97.6404 310.95 98.4004 310.95C99.1104 310.95 99.7404 310.795 100.29 310.485C100.84 310.175 101.295 309.76 101.655 309.24ZM107.839 312.24C107.059 312.24 106.369 312.07 105.769 311.73C105.169 311.39 104.699 310.925 104.359 310.335C104.019 309.735 103.849 309.05 103.849 308.28C103.849 307.51 104.019 306.83 104.359 306.24C104.699 305.65 105.169 305.185 105.769 304.845C106.369 304.495 107.059 304.32 107.839 304.32C108.619 304.32 109.304 304.495 109.894 304.845C110.494 305.185 110.964 305.65 111.304 306.24C111.654 306.83 111.829 307.51 111.829 308.28C111.829 309.05 111.654 309.735 111.304 310.335C110.964 310.925 110.494 311.39 109.894 311.73C109.304 312.07 108.619 312.24 107.839 312.24ZM107.839 311.04C108.339 311.04 108.779 310.925 109.159 310.695C109.539 310.465 109.834 310.14 110.044 309.72C110.254 309.3 110.359 308.82 110.359 308.28C110.359 307.74 110.254 307.265 110.044 306.855C109.834 306.435 109.539 306.11 109.159 305.88C108.779 305.64 108.339 305.52 107.839 305.52C107.339 305.52 106.894 305.64 106.504 305.88C106.124 306.11 105.829 306.435 105.619 306.855C105.409 307.265 105.304 307.74 105.304 308.28C105.304 308.82 105.409 309.3 105.619 309.72C105.829 310.14 106.124 310.465 106.504 310.695C106.894 310.925 107.339 311.04 107.839 311.04ZM120.306 312H118.926V310.56L118.911 310.14V304.56H120.306V312ZM119.046 308.82L119.331 309.12C119.371 309.73 119.261 310.27 119.001 310.74C118.751 311.2 118.391 311.565 117.921 311.835C117.461 312.105 116.926 312.24 116.316 312.24C115.426 312.24 114.716 311.975 114.186 311.445C113.656 310.915 113.391 310.15 113.391 309.15V304.56H114.786V309C114.786 309.67 114.946 310.18 115.266 310.53C115.596 310.87 116.051 311.04 116.631 311.04C117.041 311.04 117.421 310.95 117.771 310.77C118.121 310.58 118.411 310.32 118.641 309.99C118.871 309.65 119.006 309.26 119.046 308.82ZM126.484 304.44V305.76H126.154C125.704 305.76 125.289 305.87 124.909 306.09C124.539 306.3 124.239 306.635 124.009 307.095C123.789 307.545 123.679 308.135 123.679 308.865V312H122.284V304.56H123.664V306.945H123.454C123.564 306.315 123.764 305.82 124.054 305.46C124.354 305.1 124.699 304.84 125.089 304.68C125.479 304.52 125.879 304.44 126.289 304.44H126.484ZM127.251 310.86L128.136 309.96C128.486 310.32 128.886 310.605 129.336 310.815C129.786 311.015 130.276 311.115 130.806 311.115C131.366 311.115 131.821 311.005 132.171 310.785C132.521 310.555 132.696 310.265 132.696 309.915C132.696 309.595 132.546 309.35 132.246 309.18C131.946 309 131.426 308.86 130.686 308.76C129.576 308.6 128.781 308.355 128.301 308.025C127.831 307.685 127.596 307.225 127.596 306.645C127.596 306.185 127.731 305.78 128.001 305.43C128.271 305.08 128.641 304.81 129.111 304.62C129.581 304.42 130.121 304.32 130.731 304.32C131.411 304.32 132.021 304.44 132.561 304.68C133.101 304.92 133.571 305.255 133.971 305.685L133.101 306.585C132.801 306.235 132.451 305.96 132.051 305.76C131.661 305.55 131.221 305.445 130.731 305.445C130.221 305.445 129.801 305.55 129.471 305.76C129.151 305.97 128.991 306.24 128.991 306.57C128.991 306.83 129.131 307.035 129.411 307.185C129.701 307.325 130.196 307.445 130.896 307.545C132.026 307.705 132.836 307.965 133.326 308.325C133.826 308.685 134.076 309.19 134.076 309.84C134.076 310.31 133.936 310.73 133.656 311.1C133.376 311.46 132.986 311.74 132.486 311.94C131.996 312.14 131.426 312.24 130.776 312.24C130.046 312.24 129.386 312.12 128.796 311.88C128.216 311.63 127.701 311.29 127.251 310.86ZM141.974 309.81L142.844 310.71C142.454 311.19 141.974 311.565 141.404 311.835C140.844 312.105 140.209 312.24 139.499 312.24C138.689 312.24 137.969 312.07 137.339 311.73C136.709 311.39 136.214 310.925 135.854 310.335C135.504 309.735 135.329 309.05 135.329 308.28C135.329 307.51 135.499 306.83 135.839 306.24C136.179 305.64 136.649 305.17 137.249 304.83C137.849 304.49 138.524 304.32 139.274 304.32C140.004 304.32 140.649 304.49 141.209 304.83C141.779 305.16 142.224 305.62 142.544 306.21C142.874 306.79 143.039 307.465 143.039 308.235V308.325H141.629V308.19C141.629 307.65 141.529 307.18 141.329 306.78C141.129 306.37 140.849 306.055 140.489 305.835C140.139 305.605 139.734 305.49 139.274 305.49C138.784 305.49 138.349 305.605 137.969 305.835C137.589 306.065 137.294 306.39 137.084 306.81C136.874 307.22 136.769 307.705 136.769 308.265C136.769 308.825 136.884 309.32 137.114 309.75C137.354 310.17 137.684 310.495 138.104 310.725C138.524 310.955 139.004 311.07 139.544 311.07C140.534 311.07 141.344 310.65 141.974 309.81ZM143.039 308.745H136.364V307.71H142.799L143.039 308.235V308.745ZM145.972 305.07L148.147 308.28L145.972 311.49H144.427L146.617 308.28L144.427 305.07H145.972ZM148.942 305.07L151.117 308.28L148.942 311.49H147.397L149.587 308.28L147.397 305.07H148.942Z" fill="black"/>
<path d="M69.7248 139.45C108.233 139.45 139.45 108.233 139.45 69.7249C139.45 31.2169 108.233 0 69.7248 0C31.2169 0 0 31.2169 0 69.7249C0 108.233 31.2169 139.45 69.7248 139.45Z" fill="white"/>
<path d="M36.529 65.3723H35.089V54.6473H39.319C40.049 54.6473 40.684 54.7773 41.224 55.0373C41.764 55.2973 42.184 55.6573 42.484 56.1173C42.794 56.5773 42.949 57.1173 42.949 57.7373C42.949 58.3573 42.794 58.8973 42.484 59.3573C42.184 59.8173 41.764 60.1773 41.224 60.4373C40.684 60.6973 40.049 60.8273 39.319 60.8273H36.379V59.5823H39.319C39.989 59.5823 40.514 59.4223 40.894 59.1023C41.284 58.7723 41.479 58.3173 41.479 57.7373C41.479 57.1573 41.284 56.7073 40.894 56.3873C40.514 56.0573 39.989 55.8923 39.319 55.8923H36.529V65.3723ZM50.0964 63.1823L50.9664 64.0823C50.5764 64.5623 50.0964 64.9373 49.5264 65.2073C48.9664 65.4773 48.3314 65.6123 47.6214 65.6123C46.8114 65.6123 46.0914 65.4423 45.4614 65.1023C44.8314 64.7623 44.3364 64.2973 43.9764 63.7073C43.6264 63.1073 43.4514 62.4223 43.4514 61.6523C43.4514 60.8823 43.6214 60.2023 43.9614 59.6123C44.3014 59.0123 44.7714 58.5423 45.3714 58.2023C45.9714 57.8623 46.6464 57.6923 47.3964 57.6923C48.1264 57.6923 48.7714 57.8623 49.3314 58.2023C49.9014 58.5323 50.3464 58.9923 50.6664 59.5823C50.9964 60.1623 51.1614 60.8373 51.1614 61.6073V61.6973H49.7514V61.5623C49.7514 61.0223 49.6514 60.5523 49.4514 60.1523C49.2514 59.7423 48.9714 59.4273 48.6114 59.2073C48.2614 58.9773 47.8564 58.8623 47.3964 58.8623C46.9064 58.8623 46.4714 58.9773 46.0914 59.2073C45.7114 59.4373 45.4164 59.7623 45.2064 60.1823C44.9964 60.5923 44.8914 61.0773 44.8914 61.6373C44.8914 62.1973 45.0064 62.6923 45.2364 63.1223C45.4764 63.5423 45.8064 63.8673 46.2264 64.0973C46.6464 64.3273 47.1264 64.4423 47.6664 64.4423C48.6564 64.4423 49.4664 64.0223 50.0964 63.1823ZM51.1614 62.1173H44.4864V61.0823H50.9214L51.1614 61.6073V62.1173ZM55.3991 65.6273C54.7791 65.6273 54.1691 65.5173 53.5691 65.2973C52.9691 65.0673 52.4691 64.7373 52.0691 64.3073L52.8941 63.4373C53.5541 64.1073 54.3791 64.4423 55.3691 64.4423C55.9891 64.4423 56.4791 64.3273 56.8391 64.0973C57.2091 63.8573 57.3941 63.5423 57.3941 63.1523C57.3941 62.4323 56.7841 62.0723 55.5641 62.0723H54.0491V61.0223H55.5791C56.0991 61.0223 56.4941 60.9373 56.7641 60.7673C57.0341 60.5873 57.1691 60.3323 57.1691 60.0023C57.1691 59.6523 57.0041 59.3773 56.6741 59.1773C56.3541 58.9673 55.9191 58.8623 55.3691 58.8623C54.4691 58.8623 53.7041 59.2023 53.0741 59.8823L52.2491 58.9823C53.0691 58.1223 54.1141 57.6923 55.3841 57.6923C56.0041 57.6923 56.5491 57.7873 57.0191 57.9773C57.4891 58.1573 57.8591 58.4073 58.1291 58.7273C58.4091 59.0473 58.5491 59.4173 58.5491 59.8373C58.5491 60.2373 58.4241 60.5873 58.1741 60.8873C57.9341 61.1773 57.5891 61.3873 57.1391 61.5173L57.1241 61.3973C57.6541 61.5273 58.0641 61.7523 58.3541 62.0723C58.6441 62.3923 58.7891 62.7823 58.7891 63.2423C58.7891 63.6923 58.6391 64.0973 58.3391 64.4573C58.0391 64.8173 57.6341 65.1023 57.1241 65.3123C56.6241 65.5223 56.0491 65.6273 55.3991 65.6273ZM60.3959 65.3723V57.9323H61.7609V63.5423L61.6559 63.5123L66.1109 57.9323H67.3259V65.3723H65.9609V59.7623L66.0809 59.8073L61.6109 65.3723H60.3959ZM69.1294 64.8623V64.2173H69.3994C69.6094 64.2173 69.7694 64.1723 69.8794 64.0823C69.9994 63.9923 70.0944 63.8423 70.1644 63.6323C70.2344 63.4123 70.2894 63.1073 70.3294 62.7173L70.8694 57.9323H76.2244V64.6823H74.8444V58.1873L75.8194 59.1023H71.0944L72.2044 58.1873L71.6344 62.8223C71.5744 63.3323 71.4744 63.7373 71.3344 64.0373C71.2044 64.3273 71.0094 64.5373 70.7494 64.6673C70.4894 64.7973 70.1344 64.8623 69.6844 64.8623H69.1294ZM68.7994 67.3373V64.2173H77.3344V67.3373H76.0144V64.4873L76.8844 65.3723H69.5944L70.1194 64.4873V67.3373H68.7994ZM84.7839 63.1823L85.6539 64.0823C85.2639 64.5623 84.7839 64.9373 84.2139 65.2073C83.6539 65.4773 83.0189 65.6123 82.3089 65.6123C81.4989 65.6123 80.7789 65.4423 80.1489 65.1023C79.5189 64.7623 79.0239 64.2973 78.6639 63.7073C78.3139 63.1073 78.1389 62.4223 78.1389 61.6523C78.1389 60.8823 78.3089 60.2023 78.6489 59.6123C78.9889 59.0123 79.4589 58.5423 80.0589 58.2023C80.6589 57.8623 81.3339 57.6923 82.0839 57.6923C82.8139 57.6923 83.4589 57.8623 84.0189 58.2023C84.5889 58.5323 85.0339 58.9923 85.3539 59.5823C85.6839 60.1623 85.8489 60.8373 85.8489 61.6073V61.6973H84.4389V61.5623C84.4389 61.0223 84.3389 60.5523 84.1389 60.1523C83.9389 59.7423 83.6589 59.4273 83.2989 59.2073C82.9489 58.9773 82.5439 58.8623 82.0839 58.8623C81.5939 58.8623 81.1589 58.9773 80.7789 59.2073C80.3989 59.4373 80.1039 59.7623 79.8939 60.1823C79.6839 60.5923 79.5789 61.0773 79.5789 61.6373C79.5789 62.1973 79.6939 62.6923 79.9239 63.1223C80.1639 63.5423 80.4939 63.8673 80.9139 64.0973C81.3339 64.3273 81.8139 64.4423 82.3539 64.4423C83.3439 64.4423 84.1539 64.0223 84.7839 63.1823ZM85.8489 62.1173H79.1739V61.0823H85.6089L85.8489 61.6073V62.1173ZM93.2516 65.3723V57.9323H94.6466V65.3723H93.2516ZM87.6566 65.3723V57.9323H89.0516V65.3723H87.6566ZM88.3316 62.0423V60.8873H94.0316V62.0423H88.3316ZM98.8341 65.3723V58.3673H100.229V65.3723H98.8341ZM96.1491 59.1023V57.9323H102.899V59.1023H96.1491ZM28.9317 83.8623L26.7717 80.6523L28.9317 77.4423H30.4917L28.3017 80.6523L30.4917 83.8623H28.9317ZM31.9017 83.8623L29.7417 80.6523L31.9017 77.4423H33.4617L31.2717 80.6523L33.4617 83.8623H31.9017ZM43.7404 81.6123L44.7454 82.5873C44.2754 83.2073 43.6654 83.7023 42.9154 84.0723C42.1654 84.4323 41.3404 84.6123 40.4404 84.6123C39.6504 84.6123 38.9204 84.4723 38.2504 84.1923C37.5904 83.9123 37.0154 83.5223 36.5254 83.0223C36.0354 82.5123 35.6504 81.9173 35.3704 81.2373C35.1004 80.5573 34.9654 79.8173 34.9654 79.0173C34.9654 78.2173 35.1054 77.4773 35.3854 76.7973C35.6654 76.1073 36.0504 75.5123 36.5404 75.0123C37.0404 74.5023 37.6254 74.1073 38.2954 73.8273C38.9654 73.5473 39.6954 73.4073 40.4854 73.4073C41.3754 73.4073 42.1904 73.5923 42.9304 73.9623C43.6704 74.3223 44.2754 74.8123 44.7454 75.4323L43.7404 76.4073C43.3804 75.8873 42.9254 75.4723 42.3754 75.1623C41.8254 74.8523 41.1954 74.6973 40.4854 74.6973C39.7254 74.6973 39.0404 74.8873 38.4304 75.2673C37.8304 75.6373 37.3554 76.1473 37.0054 76.7973C36.6554 77.4373 36.4804 78.1773 36.4804 79.0173C36.4804 79.8373 36.6554 80.5723 37.0054 81.2223C37.3554 81.8723 37.8304 82.3873 38.4304 82.7673C39.0404 83.1373 39.7254 83.3223 40.4854 83.3223C41.1954 83.3223 41.8254 83.1673 42.3754 82.8573C42.9254 82.5473 43.3804 82.1323 43.7404 81.6123ZM51.5129 84.3723L47.4479 80.5173H47.5979L51.2729 76.9323H53.0579L49.0679 80.8173L48.7829 80.0373L53.4179 84.3723H51.5129ZM46.4579 84.3723V76.9323H47.8529V84.3723H46.4579ZM57.6733 84.6123C56.8933 84.6123 56.2033 84.4423 55.6033 84.1023C55.0033 83.7623 54.5333 83.2973 54.1933 82.7073C53.8533 82.1073 53.6833 81.4223 53.6833 80.6523C53.6833 79.8823 53.8533 79.2023 54.1933 78.6123C54.5333 78.0223 55.0033 77.5573 55.6033 77.2173C56.2033 76.8673 56.8933 76.6923 57.6733 76.6923C58.4533 76.6923 59.1383 76.8673 59.7283 77.2173C60.3283 77.5573 60.7983 78.0223 61.1383 78.6123C61.4883 79.2023 61.6633 79.8823 61.6633 80.6523C61.6633 81.4223 61.4883 82.1073 61.1383 82.7073C60.7983 83.2973 60.3283 83.7623 59.7283 84.1023C59.1383 84.4423 58.4533 84.6123 57.6733 84.6123ZM57.6733 83.4123C58.1733 83.4123 58.6133 83.2973 58.9933 83.0673C59.3733 82.8373 59.6683 82.5123 59.8783 82.0923C60.0883 81.6723 60.1933 81.1923 60.1933 80.6523C60.1933 80.1123 60.0883 79.6373 59.8783 79.2273C59.6683 78.8073 59.3733 78.4823 58.9933 78.2523C58.6133 78.0123 58.1733 77.8923 57.6733 77.8923C57.1733 77.8923 56.7283 78.0123 56.3383 78.2523C55.9583 78.4823 55.6633 78.8073 55.4533 79.2273C55.2433 79.6373 55.1383 80.1123 55.1383 80.6523C55.1383 81.1923 55.2433 81.6723 55.4533 82.0923C55.6633 82.5123 55.9583 82.8373 56.3383 83.0673C56.7283 83.2973 57.1733 83.4123 57.6733 83.4123ZM62.6097 84.3723V83.2023H63.1797C63.4597 83.2023 63.6647 83.1323 63.7947 82.9923C63.9347 82.8523 64.0197 82.6073 64.0497 82.2573L64.5147 76.9323H69.9897V84.3723H68.5947V77.1873L69.5847 78.1023H64.7847L65.8647 77.1873L65.3547 82.4973C65.2947 83.1973 65.1097 83.6873 64.7997 83.9673C64.4897 84.2373 64.0247 84.3723 63.4047 84.3723H62.6097ZM77.3234 84.3723L73.2584 80.5173H73.4084L77.0834 76.9323H78.8684L74.8784 80.8173L74.5934 80.0373L79.2284 84.3723H77.3234ZM72.2684 84.3723V76.9323H73.6634V84.3723H72.2684ZM83.4838 84.6123C82.7038 84.6123 82.0138 84.4423 81.4138 84.1023C80.8138 83.7623 80.3438 83.2973 80.0038 82.7073C79.6638 82.1073 79.4938 81.4223 79.4938 80.6523C79.4938 79.8823 79.6638 79.2023 80.0038 78.6123C80.3438 78.0223 80.8138 77.5573 81.4138 77.2173C82.0138 76.8673 82.7038 76.6923 83.4838 76.6923C84.2638 76.6923 84.9488 76.8673 85.5388 77.2173C86.1388 77.5573 86.6088 78.0223 86.9488 78.6123C87.2988 79.2023 87.4738 79.8823 87.4738 80.6523C87.4738 81.4223 87.2988 82.1073 86.9488 82.7073C86.6088 83.2973 86.1388 83.7623 85.5388 84.1023C84.9488 84.4423 84.2638 84.6123 83.4838 84.6123ZM83.4838 83.4123C83.9838 83.4123 84.4238 83.2973 84.8038 83.0673C85.1838 82.8373 85.4788 82.5123 85.6888 82.0923C85.8988 81.6723 86.0038 81.1923 86.0038 80.6523C86.0038 80.1123 85.8988 79.6373 85.6888 79.2273C85.4788 78.8073 85.1838 78.4823 84.8038 78.2523C84.4238 78.0123 83.9838 77.8923 83.4838 77.8923C82.9838 77.8923 82.5388 78.0123 82.1488 78.2523C81.7688 78.4823 81.4738 78.8073 81.2638 79.2273C81.0538 79.6373 80.9488 80.1123 80.9488 80.6523C80.9488 81.1923 81.0538 81.6723 81.2638 82.0923C81.4738 82.5123 81.7688 82.8373 82.1488 83.0673C82.5388 83.2973 82.9838 83.4123 83.4838 83.4123ZM89.2753 84.3723V76.9323H93.0703C93.8503 76.9323 94.4653 77.1123 94.9153 77.4723C95.3753 77.8323 95.6053 78.3123 95.6053 78.9123C95.6053 79.2923 95.4903 79.6223 95.2603 79.9023C95.0403 80.1823 94.7403 80.3973 94.3603 80.5473L94.3453 80.4123C94.8153 80.5423 95.2003 80.7623 95.5003 81.0723C95.8003 81.3823 95.9503 81.7623 95.9503 82.2123C95.9503 82.6323 95.8253 83.0073 95.5753 83.3373C95.3253 83.6673 94.9903 83.9223 94.5703 84.1023C94.1503 84.2823 93.6803 84.3723 93.1603 84.3723H89.2753ZM90.6103 84.0423L89.8303 83.2773H93.0553C93.5153 83.2773 93.8753 83.1823 94.1353 82.9923C94.3953 82.7923 94.5253 82.5123 94.5253 82.1523C94.5253 81.8023 94.3953 81.5323 94.1353 81.3423C93.8753 81.1423 93.5153 81.0423 93.0553 81.0423H89.9953V79.9923H92.9803C93.4203 79.9923 93.7303 79.9023 93.9103 79.7223C94.0903 79.5423 94.1803 79.2923 94.1803 78.9723C94.1803 78.6623 94.0853 78.4323 93.8953 78.2823C93.7153 78.1223 93.4103 78.0423 92.9803 78.0423H89.8153L90.6103 77.2473V84.0423ZM101.077 84.6123C100.297 84.6123 99.6066 84.4423 99.0066 84.1023C98.4066 83.7623 97.9366 83.2973 97.5966 82.7073C97.2566 82.1073 97.0866 81.4223 97.0866 80.6523C97.0866 79.8823 97.2566 79.2023 97.5966 78.6123C97.9366 78.0223 98.4066 77.5573 99.0066 77.2173C99.6066 76.8673 100.297 76.6923 101.077 76.6923C101.857 76.6923 102.542 76.8673 103.132 77.2173C103.732 77.5573 104.202 78.0223 104.542 78.6123C104.892 79.2023 105.067 79.8823 105.067 80.6523C105.067 81.4223 104.892 82.1073 104.542 82.7073C104.202 83.2973 103.732 83.7623 103.132 84.1023C102.542 84.4423 101.857 84.6123 101.077 84.6123ZM101.077 83.4123C101.577 83.4123 102.017 83.2973 102.397 83.0673C102.777 82.8373 103.072 82.5123 103.282 82.0923C103.492 81.6723 103.597 81.1923 103.597 80.6523C103.597 80.1123 103.492 79.6373 103.282 79.2273C103.072 78.8073 102.777 78.4823 102.397 78.2523C102.017 78.0123 101.577 77.8923 101.077 77.8923C100.577 77.8923 100.132 78.0123 99.7416 78.2523C99.3616 78.4823 99.0666 78.8073 98.8566 79.2273C98.6466 79.6373 98.5416 80.1123 98.5416 80.6523C98.5416 81.1923 98.6466 81.6723 98.8566 82.0923C99.0666 82.5123 99.3616 82.8373 99.7416 83.0673C100.132 83.2973 100.577 83.4123 101.077 83.4123ZM107.993 77.4423L110.168 80.6523L107.993 83.8623H106.448L108.638 80.6523L106.448 77.4423H107.993ZM110.963 77.4423L113.138 80.6523L110.963 83.8623H109.418L111.608 80.6523L109.418 77.4423H110.963Z" fill="black"/>
<path d="M221.599 252.199C266.113 252.199 302.199 216.113 302.199 171.599C302.199 127.086 266.113 91 221.599 91C177.086 91 141 127.086 141 171.599C141 216.113 177.086 252.199 221.599 252.199Z" fill="white"/>
<path d="M161.788 164.457H155.788V163.212H161.788V164.457ZM163.888 167.247H162.358L158.533 157.452H159.073L155.248 167.247H153.778L158.038 156.522H159.613L163.888 167.247ZM170.581 167.247L166.516 163.392H166.666L170.341 159.807H172.126L168.136 163.692L167.851 162.912L172.486 167.247H170.581ZM165.526 167.247V159.807H166.921V167.247H165.526ZM178.872 167.247L174.807 163.392H174.957L178.632 159.807H180.417L176.427 163.692L176.142 162.912L180.777 167.247H178.872ZM173.817 167.247V159.807H175.212V167.247H173.817ZM183.503 170.157H182.108V159.807H183.488V162.087H183.173C183.253 161.597 183.438 161.162 183.728 160.782C184.028 160.402 184.398 160.107 184.838 159.897C185.288 159.677 185.778 159.567 186.308 159.567C187.028 159.567 187.668 159.742 188.228 160.092C188.788 160.432 189.228 160.902 189.548 161.502C189.868 162.092 190.028 162.767 190.028 163.527C190.028 164.297 189.863 164.982 189.533 165.582C189.213 166.172 188.763 166.637 188.183 166.977C187.613 167.317 186.963 167.487 186.233 167.487C185.563 167.487 184.983 167.352 184.493 167.082C184.003 166.802 183.633 166.427 183.383 165.957C183.133 165.477 183.033 164.942 183.083 164.352L183.368 164.067C183.408 164.497 183.548 164.882 183.788 165.222C184.038 165.562 184.353 165.827 184.733 166.017C185.123 166.197 185.543 166.287 185.993 166.287C186.513 166.287 186.963 166.172 187.343 165.942C187.723 165.702 188.023 165.372 188.243 164.952C188.463 164.532 188.573 164.057 188.573 163.527C188.573 162.997 188.468 162.527 188.258 162.117C188.048 161.697 187.758 161.367 187.388 161.127C187.018 160.887 186.583 160.767 186.083 160.767C185.583 160.767 185.138 160.892 184.748 161.142C184.368 161.382 184.063 161.722 183.833 162.162C183.613 162.602 183.503 163.112 183.503 163.692V170.157ZM198.029 165.057L198.899 165.957C198.509 166.437 198.029 166.812 197.459 167.082C196.899 167.352 196.264 167.487 195.554 167.487C194.744 167.487 194.024 167.317 193.394 166.977C192.764 166.637 192.269 166.172 191.909 165.582C191.559 164.982 191.384 164.297 191.384 163.527C191.384 162.757 191.554 162.077 191.894 161.487C192.234 160.887 192.704 160.417 193.304 160.077C193.904 159.737 194.579 159.567 195.329 159.567C196.059 159.567 196.704 159.737 197.264 160.077C197.834 160.407 198.279 160.867 198.599 161.457C198.929 162.037 199.094 162.712 199.094 163.482V163.572H197.684V163.437C197.684 162.897 197.584 162.427 197.384 162.027C197.184 161.617 196.904 161.302 196.544 161.082C196.194 160.852 195.789 160.737 195.329 160.737C194.839 160.737 194.404 160.852 194.024 161.082C193.644 161.312 193.349 161.637 193.139 162.057C192.929 162.467 192.824 162.952 192.824 163.512C192.824 164.072 192.939 164.567 193.169 164.997C193.409 165.417 193.739 165.742 194.159 165.972C194.579 166.202 195.059 166.317 195.599 166.317C196.589 166.317 197.399 165.897 198.029 165.057ZM199.094 163.992H192.419V162.957H198.854L199.094 163.482V163.992ZM200.407 166.737V166.092H200.677C200.887 166.092 201.047 166.047 201.157 165.957C201.277 165.867 201.372 165.717 201.442 165.507C201.512 165.287 201.567 164.982 201.607 164.592L202.147 159.807H207.502V166.557H206.122V160.062L207.097 160.977H202.372L203.482 160.062L202.912 164.697C202.852 165.207 202.752 165.612 202.612 165.912C202.482 166.202 202.287 166.412 202.027 166.542C201.767 166.672 201.412 166.737 200.962 166.737H200.407ZM200.077 169.212V166.092H208.612V169.212H207.292V166.362L208.162 167.247H200.872L201.397 166.362V169.212H200.077ZM210.467 167.247V159.807H211.832V165.417L211.727 165.387L216.182 159.807H217.397V167.247H216.032V161.637L216.152 161.682L211.682 167.247H210.467ZM221.601 167.247V160.242H222.996V167.247H221.601ZM218.916 160.977V159.807H225.666V160.977H218.916ZM230.398 167.487C229.618 167.487 228.928 167.317 228.328 166.977C227.728 166.637 227.258 166.172 226.918 165.582C226.578 164.982 226.408 164.297 226.408 163.527C226.408 162.757 226.578 162.077 226.918 161.487C227.258 160.897 227.728 160.432 228.328 160.092C228.928 159.742 229.618 159.567 230.398 159.567C231.178 159.567 231.863 159.742 232.453 160.092C233.053 160.432 233.523 160.897 233.863 161.487C234.213 162.077 234.388 162.757 234.388 163.527C234.388 164.297 234.213 164.982 233.863 165.582C233.523 166.172 233.053 166.637 232.453 166.977C231.863 167.317 231.178 167.487 230.398 167.487ZM230.398 166.287C230.898 166.287 231.338 166.172 231.718 165.942C232.098 165.712 232.393 165.387 232.603 164.967C232.813 164.547 232.918 164.067 232.918 163.527C232.918 162.987 232.813 162.512 232.603 162.102C232.393 161.682 232.098 161.357 231.718 161.127C231.338 160.887 230.898 160.767 230.398 160.767C229.898 160.767 229.453 160.887 229.063 161.127C228.683 161.357 228.388 161.682 228.178 162.102C227.968 162.512 227.863 162.987 227.863 163.527C227.863 164.067 227.968 164.547 228.178 164.967C228.388 165.387 228.683 165.712 229.063 165.942C229.453 166.172 229.898 166.287 230.398 166.287ZM236.19 167.247V159.807H239.985C240.765 159.807 241.38 159.987 241.83 160.347C242.29 160.707 242.52 161.187 242.52 161.787C242.52 162.167 242.405 162.497 242.175 162.777C241.955 163.057 241.655 163.272 241.275 163.422L241.26 163.287C241.73 163.417 242.115 163.637 242.415 163.947C242.715 164.257 242.865 164.637 242.865 165.087C242.865 165.507 242.74 165.882 242.49 166.212C242.24 166.542 241.905 166.797 241.485 166.977C241.065 167.157 240.595 167.247 240.075 167.247H236.19ZM237.525 166.917L236.745 166.152H239.97C240.43 166.152 240.79 166.057 241.05 165.867C241.31 165.667 241.44 165.387 241.44 165.027C241.44 164.677 241.31 164.407 241.05 164.217C240.79 164.017 240.43 163.917 239.97 163.917H236.91V162.867H239.895C240.335 162.867 240.645 162.777 240.825 162.597C241.005 162.417 241.095 162.167 241.095 161.847C241.095 161.537 241 161.307 240.81 161.157C240.63 160.997 240.325 160.917 239.895 160.917H236.73L237.525 160.122V166.917ZM251.075 167.247H249.77V165.777L249.725 165.417V162.642C249.725 162.052 249.535 161.587 249.155 161.247C248.775 160.897 248.26 160.722 247.61 160.722C247.14 160.722 246.71 160.822 246.32 161.022C245.93 161.212 245.59 161.477 245.3 161.817L244.43 160.917C244.84 160.487 245.31 160.157 245.84 159.927C246.38 159.687 246.98 159.567 247.64 159.567C248.32 159.567 248.915 159.692 249.425 159.942C249.945 160.192 250.35 160.542 250.64 160.992C250.93 161.432 251.075 161.967 251.075 162.597V167.247ZM247.025 167.487C246.465 167.487 245.97 167.387 245.54 167.187C245.11 166.977 244.775 166.692 244.535 166.332C244.295 165.972 244.175 165.562 244.175 165.102C244.175 164.582 244.32 164.142 244.61 163.782C244.91 163.412 245.32 163.132 245.84 162.942C246.36 162.742 246.955 162.642 247.625 162.642H249.89V163.677H247.775C247.145 163.677 246.625 163.792 246.215 164.022C245.815 164.242 245.615 164.587 245.615 165.057C245.615 165.457 245.765 165.777 246.065 166.017C246.375 166.257 246.775 166.377 247.265 166.377C247.745 166.377 248.18 166.282 248.57 166.092C248.96 165.902 249.27 165.637 249.5 165.297C249.74 164.947 249.875 164.547 249.905 164.097L250.4 164.367C250.4 164.967 250.255 165.502 249.965 165.972C249.675 166.442 249.275 166.812 248.765 167.082C248.265 167.352 247.685 167.487 247.025 167.487ZM258.689 167.247V159.807H260.084V167.247H258.689ZM253.094 167.247V159.807H254.489V167.247H253.094ZM253.769 163.917V162.762H259.469V163.917H253.769ZM267.962 167.247V159.807H269.357V167.247H267.962ZM262.367 167.247V159.807H263.762V167.247H262.367ZM263.042 163.917V162.762H268.742V163.917H263.042ZM277.984 167.247H276.679V165.777L276.634 165.417V162.642C276.634 162.052 276.444 161.587 276.064 161.247C275.684 160.897 275.169 160.722 274.519 160.722C274.049 160.722 273.619 160.822 273.229 161.022C272.839 161.212 272.499 161.477 272.209 161.817L271.339 160.917C271.749 160.487 272.219 160.157 272.749 159.927C273.289 159.687 273.889 159.567 274.549 159.567C275.229 159.567 275.824 159.692 276.334 159.942C276.854 160.192 277.259 160.542 277.549 160.992C277.839 161.432 277.984 161.967 277.984 162.597V167.247ZM273.934 167.487C273.374 167.487 272.879 167.387 272.449 167.187C272.019 166.977 271.684 166.692 271.444 166.332C271.204 165.972 271.084 165.562 271.084 165.102C271.084 164.582 271.229 164.142 271.519 163.782C271.819 163.412 272.229 163.132 272.749 162.942C273.269 162.742 273.864 162.642 274.534 162.642H276.799V163.677H274.684C274.054 163.677 273.534 163.792 273.124 164.022C272.724 164.242 272.524 164.587 272.524 165.057C272.524 165.457 272.674 165.777 272.974 166.017C273.284 166.257 273.684 166.377 274.174 166.377C274.654 166.377 275.089 166.282 275.479 166.092C275.869 165.902 276.179 165.637 276.409 165.297C276.649 164.947 276.784 164.547 276.814 164.097L277.309 164.367C277.309 164.967 277.164 165.502 276.874 165.972C276.584 166.442 276.184 166.812 275.674 167.082C275.174 167.352 274.594 167.487 273.934 167.487ZM284.788 167.247V160.017L285.673 160.932H282.718C282.328 160.932 281.988 161.027 281.698 161.217C281.408 161.397 281.263 161.697 281.263 162.117C281.263 162.497 281.393 162.792 281.653 163.002C281.913 163.212 282.273 163.317 282.733 163.317H285.448V164.397H282.643C281.803 164.397 281.128 164.192 280.618 163.782C280.108 163.362 279.853 162.807 279.853 162.117C279.853 161.677 279.973 161.287 280.213 160.947C280.463 160.597 280.798 160.322 281.218 160.122C281.648 159.912 282.128 159.807 282.658 159.807H286.123V167.247H284.788ZM279.508 167.247L282.163 163.857H283.648L281.128 167.247H279.508ZM179.704 186.247H178.264V175.522H179.704V186.247ZM186.377 186.247H184.937V176.632H186.377V186.247ZM189.887 176.782H181.442V175.522H189.887V176.782ZM193.621 182.587H189.541V181.372H193.621V182.587ZM200.295 186.247L196.23 182.392H196.38L200.055 178.807H201.84L197.85 182.692L197.565 181.912L202.2 186.247H200.295ZM195.24 186.247V178.807H196.635V186.247H195.24ZM206.456 186.487C205.676 186.487 204.986 186.317 204.386 185.977C203.786 185.637 203.316 185.172 202.976 184.582C202.636 183.982 202.466 183.297 202.466 182.527C202.466 181.757 202.636 181.077 202.976 180.487C203.316 179.897 203.786 179.432 204.386 179.092C204.986 178.742 205.676 178.567 206.456 178.567C207.236 178.567 207.921 178.742 208.511 179.092C209.111 179.432 209.581 179.897 209.921 180.487C210.271 181.077 210.446 181.757 210.446 182.527C210.446 183.297 210.271 183.982 209.921 184.582C209.581 185.172 209.111 185.637 208.511 185.977C207.921 186.317 207.236 186.487 206.456 186.487ZM206.456 185.287C206.956 185.287 207.396 185.172 207.776 184.942C208.156 184.712 208.451 184.387 208.661 183.967C208.871 183.547 208.976 183.067 208.976 182.527C208.976 181.987 208.871 181.512 208.661 181.102C208.451 180.682 208.156 180.357 207.776 180.127C207.396 179.887 206.956 179.767 206.456 179.767C205.956 179.767 205.511 179.887 205.121 180.127C204.741 180.357 204.446 180.682 204.236 181.102C204.026 181.512 203.921 181.987 203.921 182.527C203.921 183.067 204.026 183.547 204.236 183.967C204.446 184.387 204.741 184.712 205.121 184.942C205.511 185.172 205.956 185.287 206.456 185.287ZM212.247 186.247V178.807H213.792L216.717 184.297H216.462L219.372 178.807H220.962V186.247H219.657V179.287L220.302 179.467L217.077 185.542H216.027L212.817 179.467L213.522 179.302V186.247H212.247ZM223.263 186.247V178.807H229.983V186.247H228.588V179.062L229.578 179.977H223.548L224.658 179.062V186.247H223.263ZM238.616 186.247H237.311V184.777L237.266 184.417V181.642C237.266 181.052 237.076 180.587 236.696 180.247C236.316 179.897 235.801 179.722 235.151 179.722C234.681 179.722 234.251 179.822 233.861 180.022C233.471 180.212 233.131 180.477 232.841 180.817L231.971 179.917C232.381 179.487 232.851 179.157 233.381 178.927C233.921 178.687 234.521 178.567 235.181 178.567C235.861 178.567 236.456 178.692 236.966 178.942C237.486 179.192 237.891 179.542 238.181 179.992C238.471 180.432 238.616 180.967 238.616 181.597V186.247ZM234.566 186.487C234.006 186.487 233.511 186.387 233.081 186.187C232.651 185.977 232.316 185.692 232.076 185.332C231.836 184.972 231.716 184.562 231.716 184.102C231.716 183.582 231.861 183.142 232.151 182.782C232.451 182.412 232.861 182.132 233.381 181.942C233.901 181.742 234.496 181.642 235.166 181.642H237.431V182.677H235.316C234.686 182.677 234.166 182.792 233.756 183.022C233.356 183.242 233.156 183.587 233.156 184.057C233.156 184.457 233.306 184.777 233.606 185.017C233.916 185.257 234.316 185.377 234.806 185.377C235.286 185.377 235.721 185.282 236.111 185.092C236.501 184.902 236.811 184.637 237.041 184.297C237.281 183.947 237.416 183.547 237.446 183.097L237.941 183.367C237.941 183.967 237.796 184.502 237.506 184.972C237.216 185.442 236.816 185.812 236.306 186.082C235.806 186.352 235.226 186.487 234.566 186.487ZM246.231 186.247V178.807H247.626V186.247H246.231ZM240.636 186.247V178.807H242.031V186.247H240.636ZM241.311 182.917V181.762H247.011V182.917H241.311ZM249.908 186.247V178.807H251.273V184.417L251.168 184.387L255.623 178.807H256.838V186.247H255.473V180.637L255.593 180.682L251.123 186.247H249.908ZM263.922 186.247V179.017L264.807 179.932H261.852C261.462 179.932 261.122 180.027 260.832 180.217C260.542 180.397 260.397 180.697 260.397 181.117C260.397 181.497 260.527 181.792 260.787 182.002C261.047 182.212 261.407 182.317 261.867 182.317H264.582V183.397H261.777C260.937 183.397 260.262 183.192 259.752 182.782C259.242 182.362 258.987 181.807 258.987 181.117C258.987 180.677 259.107 180.287 259.347 179.947C259.597 179.597 259.932 179.322 260.352 179.122C260.782 178.912 261.262 178.807 261.792 178.807H265.257V186.247H263.922ZM258.642 186.247L261.297 182.857H262.782L260.262 186.247H258.642Z" fill="black"/>
<path d="M205.069 545.778C260.888 545.778 306.138 500.385 306.138 444.389C306.138 388.393 260.888 343 205.069 343C149.25 343 104 388.393 104 444.389C104 500.385 149.25 545.778 205.069 545.778Z" fill="white"/>
<path d="M123.526 421.166V410.441H124.966V420.866L124.156 419.906H130.411L129.841 420.866V410.441H131.281V420.866L130.711 419.906H136.966L136.156 420.866V410.441H137.596V421.166H123.526ZM145.172 421.166L141.107 417.311H141.257L144.932 413.726H146.717L142.727 417.611L142.442 416.831L147.077 421.166H145.172ZM140.117 421.166V413.726H141.512V421.166H140.117ZM151.332 421.406C150.552 421.406 149.862 421.236 149.262 420.896C148.662 420.556 148.192 420.091 147.852 419.501C147.512 418.901 147.342 418.216 147.342 417.446C147.342 416.676 147.512 415.996 147.852 415.406C148.192 414.816 148.662 414.351 149.262 414.011C149.862 413.661 150.552 413.486 151.332 413.486C152.112 413.486 152.797 413.661 153.387 414.011C153.987 414.351 154.457 414.816 154.797 415.406C155.147 415.996 155.322 416.676 155.322 417.446C155.322 418.216 155.147 418.901 154.797 419.501C154.457 420.091 153.987 420.556 153.387 420.896C152.797 421.236 152.112 421.406 151.332 421.406ZM151.332 420.206C151.832 420.206 152.272 420.091 152.652 419.861C153.032 419.631 153.327 419.306 153.537 418.886C153.747 418.466 153.852 417.986 153.852 417.446C153.852 416.906 153.747 416.431 153.537 416.021C153.327 415.601 153.032 415.276 152.652 415.046C152.272 414.806 151.832 414.686 151.332 414.686C150.832 414.686 150.387 414.806 149.997 415.046C149.617 415.276 149.322 415.601 149.112 416.021C148.902 416.431 148.797 416.906 148.797 417.446C148.797 417.986 148.902 418.466 149.112 418.886C149.322 419.306 149.617 419.631 149.997 419.861C150.387 420.091 150.832 420.206 151.332 420.206ZM156.268 421.166V419.996H156.838C157.118 419.996 157.323 419.926 157.453 419.786C157.593 419.646 157.678 419.401 157.708 419.051L158.173 413.726H163.648V421.166H162.253V413.981L163.243 414.896H158.443L159.523 413.981L159.013 419.291C158.953 419.991 158.768 420.481 158.458 420.761C158.148 421.031 157.683 421.166 157.063 421.166H156.268ZM172.272 421.166H170.967V419.696L170.922 419.336V416.561C170.922 415.971 170.732 415.506 170.352 415.166C169.972 414.816 169.457 414.641 168.807 414.641C168.337 414.641 167.907 414.741 167.517 414.941C167.127 415.131 166.787 415.396 166.497 415.736L165.627 414.836C166.037 414.406 166.507 414.076 167.037 413.846C167.577 413.606 168.177 413.486 168.837 413.486C169.517 413.486 170.112 413.611 170.622 413.861C171.142 414.111 171.547 414.461 171.837 414.911C172.127 415.351 172.272 415.886 172.272 416.516V421.166ZM168.222 421.406C167.662 421.406 167.167 421.306 166.737 421.106C166.307 420.896 165.972 420.611 165.732 420.251C165.492 419.891 165.372 419.481 165.372 419.021C165.372 418.501 165.517 418.061 165.807 417.701C166.107 417.331 166.517 417.051 167.037 416.861C167.557 416.661 168.152 416.561 168.822 416.561H171.087V417.596H168.972C168.342 417.596 167.822 417.711 167.412 417.941C167.012 418.161 166.812 418.506 166.812 418.976C166.812 419.376 166.962 419.696 167.262 419.936C167.572 420.176 167.972 420.296 168.462 420.296C168.942 420.296 169.377 420.201 169.767 420.011C170.157 419.821 170.467 419.556 170.697 419.216C170.937 418.866 171.072 418.466 171.102 418.016L171.597 418.286C171.597 418.886 171.452 419.421 171.162 419.891C170.872 420.361 170.472 420.731 169.962 421.001C169.462 421.271 168.882 421.406 168.222 421.406ZM177.266 421.166V410.441H178.811L185.081 419.681H184.676V410.441H186.071V421.166H184.526L178.241 411.926H178.661V421.166H177.266ZM188.231 417.836V416.816H193.331V417.836H188.231ZM190.781 416.036C190.221 416.036 189.726 415.916 189.296 415.676C188.866 415.436 188.531 415.106 188.291 414.686C188.051 414.266 187.931 413.781 187.931 413.231C187.931 412.691 188.051 412.211 188.291 411.791C188.531 411.361 188.866 411.031 189.296 410.801C189.726 410.561 190.221 410.441 190.781 410.441C191.331 410.441 191.821 410.561 192.251 410.801C192.681 411.031 193.016 411.361 193.256 411.791C193.506 412.211 193.631 412.691 193.631 413.231C193.631 413.781 193.506 414.266 193.256 414.686C193.016 415.106 192.681 415.436 192.251 415.676C191.821 415.916 191.331 416.036 190.781 416.036ZM190.781 415.001C191.251 415.001 191.631 414.836 191.921 414.506C192.221 414.166 192.371 413.741 192.371 413.231C192.371 412.721 192.221 412.301 191.921 411.971C191.631 411.641 191.251 411.476 190.781 411.476C190.311 411.476 189.926 411.641 189.626 411.971C189.336 412.301 189.191 412.721 189.191 413.231C189.191 413.741 189.336 414.166 189.626 414.506C189.926 414.836 190.311 415.001 190.781 415.001ZM198.338 410.441H199.643V421.166H198.233V411.956L195.503 414.026V412.541L198.338 410.441ZM205.39 421.166V413.726H209.185C209.965 413.726 210.58 413.906 211.03 414.266C211.49 414.626 211.72 415.106 211.72 415.706C211.72 416.086 211.605 416.416 211.375 416.696C211.155 416.976 210.855 417.191 210.475 417.341L210.46 417.206C210.93 417.336 211.315 417.556 211.615 417.866C211.915 418.176 212.065 418.556 212.065 419.006C212.065 419.426 211.94 419.801 211.69 420.131C211.44 420.461 211.105 420.716 210.685 420.896C210.265 421.076 209.795 421.166 209.275 421.166H205.39ZM206.725 420.836L205.945 420.071H209.17C209.63 420.071 209.99 419.976 210.25 419.786C210.51 419.586 210.64 419.306 210.64 418.946C210.64 418.596 210.51 418.326 210.25 418.136C209.99 417.936 209.63 417.836 209.17 417.836H206.11V416.786H209.095C209.535 416.786 209.845 416.696 210.025 416.516C210.205 416.336 210.295 416.086 210.295 415.766C210.295 415.456 210.2 415.226 210.01 415.076C209.83 414.916 209.525 414.836 209.095 414.836H205.93L206.725 414.041V420.836ZM217.991 424.076H216.596V413.726H217.976V416.006H217.661C217.741 415.516 217.926 415.081 218.216 414.701C218.516 414.321 218.886 414.026 219.326 413.816C219.776 413.596 220.266 413.486 220.796 413.486C221.516 413.486 222.156 413.661 222.716 414.011C223.276 414.351 223.716 414.821 224.036 415.421C224.356 416.011 224.516 416.686 224.516 417.446C224.516 418.216 224.351 418.901 224.021 419.501C223.701 420.091 223.251 420.556 222.671 420.896C222.101 421.236 221.451 421.406 220.721 421.406C220.051 421.406 219.471 421.271 218.981 421.001C218.491 420.721 218.121 420.346 217.871 419.876C217.621 419.396 217.521 418.861 217.571 418.271L217.856 417.986C217.896 418.416 218.036 418.801 218.276 419.141C218.526 419.481 218.841 419.746 219.221 419.936C219.611 420.116 220.031 420.206 220.481 420.206C221.001 420.206 221.451 420.091 221.831 419.861C222.211 419.621 222.511 419.291 222.731 418.871C222.951 418.451 223.061 417.976 223.061 417.446C223.061 416.916 222.956 416.446 222.746 416.036C222.536 415.616 222.246 415.286 221.876 415.046C221.506 414.806 221.071 414.686 220.571 414.686C220.071 414.686 219.626 414.811 219.236 415.061C218.856 415.301 218.551 415.641 218.321 416.081C218.101 416.521 217.991 417.031 217.991 417.611V424.076ZM232.517 418.976L233.387 419.876C232.997 420.356 232.517 420.731 231.947 421.001C231.387 421.271 230.752 421.406 230.042 421.406C229.232 421.406 228.512 421.236 227.882 420.896C227.252 420.556 226.757 420.091 226.397 419.501C226.047 418.901 225.872 418.216 225.872 417.446C225.872 416.676 226.042 415.996 226.382 415.406C226.722 414.806 227.192 414.336 227.792 413.996C228.392 413.656 229.067 413.486 229.817 413.486C230.547 413.486 231.192 413.656 231.752 413.996C232.322 414.326 232.767 414.786 233.087 415.376C233.417 415.956 233.582 416.631 233.582 417.401V417.491H232.172V417.356C232.172 416.816 232.072 416.346 231.872 415.946C231.672 415.536 231.392 415.221 231.032 415.001C230.682 414.771 230.277 414.656 229.817 414.656C229.327 414.656 228.892 414.771 228.512 415.001C228.132 415.231 227.837 415.556 227.627 415.976C227.417 416.386 227.312 416.871 227.312 417.431C227.312 417.991 227.427 418.486 227.657 418.916C227.897 419.336 228.227 419.661 228.647 419.891C229.067 420.121 229.547 420.236 230.087 420.236C231.077 420.236 231.887 419.816 232.517 418.976ZM233.582 417.911H226.907V416.876H233.342L233.582 417.401V417.911ZM235.39 421.166V413.726H236.755V419.336L236.65 419.306L241.105 413.726H242.32V421.166H240.955V415.556L241.075 415.601L236.605 421.166H235.39ZM238.945 412.391C238.255 412.391 237.68 412.216 237.22 411.866C236.76 411.506 236.49 411.001 236.41 410.351H237.595C237.655 410.771 237.8 411.076 238.03 411.266C238.27 411.456 238.575 411.551 238.945 411.551C239.315 411.551 239.615 411.456 239.845 411.266C240.085 411.076 240.235 410.771 240.295 410.351H241.48C241.4 411.001 241.13 411.506 240.67 411.866C240.21 412.216 239.635 412.391 238.945 412.391ZM246.524 421.166V414.161H247.919V421.166H246.524ZM243.839 414.896V413.726H250.589V414.896H243.839ZM252.089 421.166V413.726H253.454V419.336L253.349 419.306L257.804 413.726H259.019V421.166H257.654V415.556L257.774 415.601L253.304 421.166H252.089ZM266.913 421.166V413.726H268.308V421.166H266.913ZM261.318 421.166V413.726H262.713V421.166H261.318ZM261.993 417.836V416.681H267.693V417.836H261.993ZM270.59 421.166V413.726H275.87V414.896H270.86L271.985 414.011V421.166H270.59ZM283.333 418.976L284.203 419.876C283.813 420.356 283.333 420.731 282.763 421.001C282.203 421.271 281.568 421.406 280.858 421.406C280.048 421.406 279.328 421.236 278.698 420.896C278.068 420.556 277.573 420.091 277.213 419.501C276.863 418.901 276.688 418.216 276.688 417.446C276.688 416.676 276.858 415.996 277.198 415.406C277.538 414.806 278.008 414.336 278.608 413.996C279.208 413.656 279.883 413.486 280.633 413.486C281.363 413.486 282.008 413.656 282.568 413.996C283.138 414.326 283.583 414.786 283.903 415.376C284.233 415.956 284.398 416.631 284.398 417.401V417.491H282.988V417.356C282.988 416.816 282.888 416.346 282.688 415.946C282.488 415.536 282.208 415.221 281.848 415.001C281.498 414.771 281.093 414.656 280.633 414.656C280.143 414.656 279.708 414.771 279.328 415.001C278.948 415.231 278.653 415.556 278.443 415.976C278.233 416.386 278.128 416.871 278.128 417.431C278.128 417.991 278.243 418.486 278.473 418.916C278.713 419.336 279.043 419.661 279.463 419.891C279.883 420.121 280.363 420.236 280.903 420.236C281.893 420.236 282.703 419.816 283.333 418.976ZM284.398 417.911H277.723V416.876H284.158L284.398 417.401V417.911ZM140.871 440.166V432.726H142.251V439.851L141.891 439.011H145.776L145.386 439.851V432.726H146.766V439.851L146.481 439.011H150.396L149.901 439.851V432.726H151.281V440.166H140.871ZM158.626 440.166L154.561 436.311H154.711L158.386 432.726H160.171L156.181 436.611L155.896 435.831L160.531 440.166H158.626ZM153.571 440.166V432.726H154.966V440.166H153.571ZM164.787 440.406C164.007 440.406 163.317 440.236 162.717 439.896C162.117 439.556 161.647 439.091 161.307 438.501C160.967 437.901 160.797 437.216 160.797 436.446C160.797 435.676 160.967 434.996 161.307 434.406C161.647 433.816 162.117 433.351 162.717 433.011C163.317 432.661 164.007 432.486 164.787 432.486C165.567 432.486 166.252 432.661 166.842 433.011C167.442 433.351 167.912 433.816 168.252 434.406C168.602 434.996 168.777 435.676 168.777 436.446C168.777 437.216 168.602 437.901 168.252 438.501C167.912 439.091 167.442 439.556 166.842 439.896C166.252 440.236 165.567 440.406 164.787 440.406ZM164.787 439.206C165.287 439.206 165.727 439.091 166.107 438.861C166.487 438.631 166.782 438.306 166.992 437.886C167.202 437.466 167.307 436.986 167.307 436.446C167.307 435.906 167.202 435.431 166.992 435.021C166.782 434.601 166.487 434.276 166.107 434.046C165.727 433.806 165.287 433.686 164.787 433.686C164.287 433.686 163.842 433.806 163.452 434.046C163.072 434.276 162.777 434.601 162.567 435.021C162.357 435.431 162.252 435.906 162.252 436.446C162.252 436.986 162.357 437.466 162.567 437.886C162.777 438.306 163.072 438.631 163.452 438.861C163.842 439.091 164.287 439.206 164.787 439.206ZM169.723 440.166V438.996H170.293C170.573 438.996 170.778 438.926 170.908 438.786C171.048 438.646 171.133 438.401 171.163 438.051L171.628 432.726H177.103V440.166H175.708V432.981L176.698 433.896H171.898L172.978 432.981L172.468 438.291C172.408 438.991 172.223 439.481 171.913 439.761C171.603 440.031 171.138 440.166 170.518 440.166H169.723ZM187.906 440.166V432.726H189.301V440.166H187.906ZM182.311 440.166V432.726H183.706V440.166H182.311ZM182.986 436.836V435.681H188.686V436.836H182.986ZM197.929 440.166H196.624V438.696L196.579 438.336V435.561C196.579 434.971 196.389 434.506 196.009 434.166C195.629 433.816 195.114 433.641 194.464 433.641C193.994 433.641 193.564 433.741 193.174 433.941C192.784 434.131 192.444 434.396 192.154 434.736L191.284 433.836C191.694 433.406 192.164 433.076 192.694 432.846C193.234 432.606 193.834 432.486 194.494 432.486C195.174 432.486 195.769 432.611 196.279 432.861C196.799 433.111 197.204 433.461 197.494 433.911C197.784 434.351 197.929 434.886 197.929 435.516V440.166ZM193.879 440.406C193.319 440.406 192.824 440.306 192.394 440.106C191.964 439.896 191.629 439.611 191.389 439.251C191.149 438.891 191.029 438.481 191.029 438.021C191.029 437.501 191.174 437.061 191.464 436.701C191.764 436.331 192.174 436.051 192.694 435.861C193.214 435.661 193.809 435.561 194.479 435.561H196.744V436.596H194.629C193.999 436.596 193.479 436.711 193.069 436.941C192.669 437.161 192.469 437.506 192.469 437.976C192.469 438.376 192.619 438.696 192.919 438.936C193.229 439.176 193.629 439.296 194.119 439.296C194.599 439.296 195.034 439.201 195.424 439.011C195.814 438.821 196.124 438.556 196.354 438.216C196.594 437.866 196.729 437.466 196.759 437.016L197.254 437.286C197.254 437.886 197.109 438.421 196.819 438.891C196.529 439.361 196.129 439.731 195.619 440.001C195.119 440.271 194.539 440.406 193.879 440.406ZM202.878 440.166V432.726H206.673C207.453 432.726 208.068 432.906 208.518 433.266C208.978 433.626 209.208 434.106 209.208 434.706C209.208 435.086 209.093 435.416 208.863 435.696C208.643 435.976 208.343 436.191 207.963 436.341L207.948 436.206C208.418 436.336 208.803 436.556 209.103 436.866C209.403 437.176 209.553 437.556 209.553 438.006C209.553 438.426 209.428 438.801 209.178 439.131C208.928 439.461 208.593 439.716 208.173 439.896C207.753 440.076 207.283 440.166 206.763 440.166H202.878ZM204.213 439.836L203.433 439.071H206.658C207.118 439.071 207.478 438.976 207.738 438.786C207.998 438.586 208.128 438.306 208.128 437.946C208.128 437.596 207.998 437.326 207.738 437.136C207.478 436.936 207.118 436.836 206.658 436.836H203.598V435.786H206.583C207.023 435.786 207.333 435.696 207.513 435.516C207.693 435.336 207.783 435.086 207.783 434.766C207.783 434.456 207.688 434.226 207.498 434.076C207.318 433.916 207.013 433.836 206.583 433.836H203.418L204.213 433.041V439.836ZM216.749 440.166V432.726H218.144V440.166H216.749ZM211.154 440.166V432.726H212.549V440.166H211.154ZM211.829 436.836V435.681H217.529V436.836H211.829ZM226.607 437.976L227.477 438.876C227.087 439.356 226.607 439.731 226.037 440.001C225.477 440.271 224.842 440.406 224.132 440.406C223.322 440.406 222.602 440.236 221.972 439.896C221.342 439.556 220.847 439.091 220.487 438.501C220.137 437.901 219.962 437.216 219.962 436.446C219.962 435.676 220.132 434.996 220.472 434.406C220.812 433.806 221.282 433.336 221.882 432.996C222.482 432.656 223.157 432.486 223.907 432.486C224.637 432.486 225.282 432.656 225.842 432.996C226.412 433.326 226.857 433.786 227.177 434.376C227.507 434.956 227.672 435.631 227.672 436.401V436.491H226.262V436.356C226.262 435.816 226.162 435.346 225.962 434.946C225.762 434.536 225.482 434.221 225.122 434.001C224.772 433.771 224.367 433.656 223.907 433.656C223.417 433.656 222.982 433.771 222.602 434.001C222.222 434.231 221.927 434.556 221.717 434.976C221.507 435.386 221.402 435.871 221.402 436.431C221.402 436.991 221.517 437.486 221.747 437.916C221.987 438.336 222.317 438.661 222.737 438.891C223.157 439.121 223.637 439.236 224.177 439.236C225.167 439.236 225.977 438.816 226.607 437.976ZM227.672 436.911H220.997V435.876H227.432L227.672 436.401V436.911ZM229.479 440.166V432.726H230.859V439.851L230.499 439.011H234.384L233.994 439.851V432.726H235.374V439.851L235.089 439.011H239.004L238.509 439.851V432.726H239.889V440.166H229.479ZM247.775 440.166V432.726H249.17V440.166H247.775ZM242.18 440.166V432.726H243.575V440.166H242.18ZM242.855 436.836V435.681H248.555V436.836H242.855ZM251.452 440.166V432.726H252.817V438.336L252.712 438.306L257.167 432.726H258.382V440.166H257.017V434.556L257.137 434.601L252.667 440.166H251.452ZM261.326 440.166H259.721L262.616 436.311L259.976 432.726H261.566L263.516 435.501L265.451 432.726H267.041L264.401 436.311L267.311 440.166H265.676L263.516 437.166L261.326 440.166ZM121.513 459.166V451.726H128.233V459.166H126.838V451.981L127.828 452.896H121.798L122.908 451.981V459.166H121.513ZM129.667 459.166V457.996H130.237C130.517 457.996 130.722 457.926 130.852 457.786C130.992 457.646 131.077 457.401 131.107 457.051L131.572 451.726H137.047V459.166H135.652V451.981L136.642 452.896H131.842L132.922 451.981L132.412 457.291C132.352 457.991 132.167 458.481 131.857 458.761C131.547 459.031 131.082 459.166 130.462 459.166H129.667ZM145.671 459.166H144.366V457.696L144.321 457.336V454.561C144.321 453.971 144.131 453.506 143.751 453.166C143.371 452.816 142.856 452.641 142.206 452.641C141.736 452.641 141.306 452.741 140.916 452.941C140.526 453.131 140.186 453.396 139.896 453.736L139.026 452.836C139.436 452.406 139.906 452.076 140.436 451.846C140.976 451.606 141.576 451.486 142.236 451.486C142.916 451.486 143.511 451.611 144.021 451.861C144.541 452.111 144.946 452.461 145.236 452.911C145.526 453.351 145.671 453.886 145.671 454.516V459.166ZM141.621 459.406C141.061 459.406 140.566 459.306 140.136 459.106C139.706 458.896 139.371 458.611 139.131 458.251C138.891 457.891 138.771 457.481 138.771 457.021C138.771 456.501 138.916 456.061 139.206 455.701C139.506 455.331 139.916 455.051 140.436 454.861C140.956 454.661 141.551 454.561 142.221 454.561H144.486V455.596H142.371C141.741 455.596 141.221 455.711 140.811 455.941C140.411 456.161 140.211 456.506 140.211 456.976C140.211 457.376 140.361 457.696 140.661 457.936C140.971 458.176 141.371 458.296 141.861 458.296C142.341 458.296 142.776 458.201 143.166 458.011C143.556 457.821 143.866 457.556 144.096 457.216C144.336 456.866 144.471 456.466 144.501 456.016L144.996 456.286C144.996 456.886 144.851 457.421 144.561 457.891C144.271 458.361 143.871 458.731 143.361 459.001C142.861 459.271 142.281 459.406 141.621 459.406ZM149.595 459.166V452.161H150.99V459.166H149.595ZM146.91 452.896V451.726H153.66V452.896H146.91ZM159.338 459.406C158.328 459.406 157.453 459.246 156.713 458.926C155.973 458.606 155.403 458.151 155.003 457.561C154.603 456.961 154.403 456.256 154.403 455.446C154.403 454.636 154.603 453.936 155.003 453.346C155.403 452.756 155.973 452.301 156.713 451.981C157.453 451.651 158.328 451.486 159.338 451.486H159.788C160.808 451.486 161.683 451.651 162.413 451.981C163.153 452.301 163.723 452.756 164.123 453.346C164.523 453.936 164.723 454.636 164.723 455.446C164.723 456.256 164.523 456.961 164.123 457.561C163.723 458.151 163.153 458.606 162.413 458.926C161.683 459.246 160.808 459.406 159.788 459.406H159.338ZM159.338 458.221H159.788C160.958 458.221 161.838 457.991 162.428 457.531C163.018 457.061 163.313 456.366 163.313 455.446C163.313 454.536 163.018 453.851 162.428 453.391C161.838 452.921 160.958 452.686 159.788 452.686H159.338C158.168 452.686 157.288 452.916 156.698 453.376C156.108 453.836 155.813 454.526 155.813 455.446C155.813 456.366 156.108 457.061 156.698 457.531C157.288 457.991 158.168 458.221 159.338 458.221ZM158.873 462.226V458.911L158.903 458.686V452.341L158.873 452.101V448.366H160.268V452.101L160.238 452.341V458.686L160.268 458.911V462.226H158.873ZM170.067 459.406C169.287 459.406 168.597 459.236 167.997 458.896C167.397 458.556 166.927 458.091 166.587 457.501C166.247 456.901 166.077 456.216 166.077 455.446C166.077 454.676 166.247 453.996 166.587 453.406C166.927 452.816 167.397 452.351 167.997 452.011C168.597 451.661 169.287 451.486 170.067 451.486C170.847 451.486 171.532 451.661 172.122 452.011C172.722 452.351 173.192 452.816 173.532 453.406C173.882 453.996 174.057 454.676 174.057 455.446C174.057 456.216 173.882 456.901 173.532 457.501C173.192 458.091 172.722 458.556 172.122 458.896C171.532 459.236 170.847 459.406 170.067 459.406ZM170.067 458.206C170.567 458.206 171.007 458.091 171.387 457.861C171.767 457.631 172.062 457.306 172.272 456.886C172.482 456.466 172.587 455.986 172.587 455.446C172.587 454.906 172.482 454.431 172.272 454.021C172.062 453.601 171.767 453.276 171.387 453.046C171.007 452.806 170.567 452.686 170.067 452.686C169.567 452.686 169.122 452.806 168.732 453.046C168.352 453.276 168.057 453.601 167.847 454.021C167.637 454.431 167.532 454.906 167.532 455.446C167.532 455.986 167.637 456.466 167.847 456.886C168.057 457.306 168.352 457.631 168.732 457.861C169.122 458.091 169.567 458.206 170.067 458.206ZM177.254 462.076H175.859V451.726H177.239V454.006H176.924C177.004 453.516 177.189 453.081 177.479 452.701C177.779 452.321 178.149 452.026 178.589 451.816C179.039 451.596 179.529 451.486 180.059 451.486C180.779 451.486 181.419 451.661 181.979 452.011C182.539 452.351 182.979 452.821 183.299 453.421C183.619 454.011 183.779 454.686 183.779 455.446C183.779 456.216 183.614 456.901 183.284 457.501C182.964 458.091 182.514 458.556 181.934 458.896C181.364 459.236 180.714 459.406 179.984 459.406C179.314 459.406 178.734 459.271 178.244 459.001C177.754 458.721 177.384 458.346 177.134 457.876C176.884 457.396 176.784 456.861 176.834 456.271L177.119 455.986C177.159 456.416 177.299 456.801 177.539 457.141C177.789 457.481 178.104 457.746 178.484 457.936C178.874 458.116 179.294 458.206 179.744 458.206C180.264 458.206 180.714 458.091 181.094 457.861C181.474 457.621 181.774 457.291 181.994 456.871C182.214 456.451 182.324 455.976 182.324 455.446C182.324 454.916 182.219 454.446 182.009 454.036C181.799 453.616 181.509 453.286 181.139 453.046C180.769 452.806 180.334 452.686 179.834 452.686C179.334 452.686 178.889 452.811 178.499 453.061C178.119 453.301 177.814 453.641 177.584 454.081C177.364 454.521 177.254 455.031 177.254 455.611V462.076ZM185.6 459.166V451.726H187.145L190.07 457.216H189.815L192.725 451.726H194.315V459.166H193.01V452.206L193.655 452.386L190.43 458.461H189.38L186.17 452.386L186.875 452.221V459.166H185.6ZM202.961 459.166H201.656V457.696L201.611 457.336V454.561C201.611 453.971 201.421 453.506 201.041 453.166C200.661 452.816 200.146 452.641 199.496 452.641C199.026 452.641 198.596 452.741 198.206 452.941C197.816 453.131 197.476 453.396 197.186 453.736L196.316 452.836C196.726 452.406 197.196 452.076 197.726 451.846C198.266 451.606 198.866 451.486 199.526 451.486C200.206 451.486 200.801 451.611 201.311 451.861C201.831 452.111 202.236 452.461 202.526 452.911C202.816 453.351 202.961 453.886 202.961 454.516V459.166ZM198.911 459.406C198.351 459.406 197.856 459.306 197.426 459.106C196.996 458.896 196.661 458.611 196.421 458.251C196.181 457.891 196.061 457.481 196.061 457.021C196.061 456.501 196.206 456.061 196.496 455.701C196.796 455.331 197.206 455.051 197.726 454.861C198.246 454.661 198.841 454.561 199.511 454.561H201.776V455.596H199.661C199.031 455.596 198.511 455.711 198.101 455.941C197.701 456.161 197.501 456.506 197.501 456.976C197.501 457.376 197.651 457.696 197.951 457.936C198.261 458.176 198.661 458.296 199.151 458.296C199.631 458.296 200.066 458.201 200.456 458.011C200.846 457.821 201.156 457.556 201.386 457.216C201.626 456.866 201.761 456.466 201.791 456.016L202.286 456.286C202.286 456.886 202.141 457.421 201.851 457.891C201.561 458.361 201.161 458.731 200.651 459.001C200.151 459.271 199.571 459.406 198.911 459.406ZM205.625 459.166H204.02L206.915 455.311L204.275 451.726H205.865L207.815 454.501L209.75 451.726H211.34L208.7 455.311L211.61 459.166H209.975L207.815 456.166L205.625 459.166ZM212.919 459.166V451.726H219.639V459.166H218.244V451.981L219.234 452.896H213.204L214.314 451.981V459.166H212.919ZM225.453 459.406C224.673 459.406 223.983 459.236 223.383 458.896C222.783 458.556 222.313 458.091 221.973 457.501C221.633 456.901 221.463 456.216 221.463 455.446C221.463 454.676 221.633 453.996 221.973 453.406C222.313 452.816 222.783 452.351 223.383 452.011C223.983 451.661 224.673 451.486 225.453 451.486C226.233 451.486 226.918 451.661 227.508 452.011C228.108 452.351 228.578 452.816 228.918 453.406C229.268 453.996 229.443 454.676 229.443 455.446C229.443 456.216 229.268 456.901 228.918 457.501C228.578 458.091 228.108 458.556 227.508 458.896C226.918 459.236 226.233 459.406 225.453 459.406ZM225.453 458.206C225.953 458.206 226.393 458.091 226.773 457.861C227.153 457.631 227.448 457.306 227.658 456.886C227.868 456.466 227.973 455.986 227.973 455.446C227.973 454.906 227.868 454.431 227.658 454.021C227.448 453.601 227.153 453.276 226.773 453.046C226.393 452.806 225.953 452.686 225.453 452.686C224.953 452.686 224.508 452.806 224.118 453.046C223.738 453.276 223.443 453.601 223.233 454.021C223.023 454.431 222.918 454.906 222.918 455.446C222.918 455.986 223.023 456.466 223.233 456.886C223.443 457.306 223.738 457.631 224.118 457.861C224.508 458.091 224.953 458.206 225.453 458.206ZM234.174 459.166V451.726H237.969C238.749 451.726 239.364 451.906 239.814 452.266C240.274 452.626 240.504 453.106 240.504 453.706C240.504 454.086 240.389 454.416 240.159 454.696C239.939 454.976 239.639 455.191 239.259 455.341L239.244 455.206C239.714 455.336 240.099 455.556 240.399 455.866C240.699 456.176 240.849 456.556 240.849 457.006C240.849 457.426 240.724 457.801 240.474 458.131C240.224 458.461 239.889 458.716 239.469 458.896C239.049 459.076 238.579 459.166 238.059 459.166H234.174ZM235.509 458.836L234.729 458.071H237.954C238.414 458.071 238.774 457.976 239.034 457.786C239.294 457.586 239.424 457.306 239.424 456.946C239.424 456.596 239.294 456.326 239.034 456.136C238.774 455.936 238.414 455.836 237.954 455.836H234.894V454.786H237.879C238.319 454.786 238.629 454.696 238.809 454.516C238.989 454.336 239.079 454.086 239.079 453.766C239.079 453.456 238.984 453.226 238.794 453.076C238.614 452.916 238.309 452.836 237.879 452.836H234.714L235.509 452.041V458.836ZM248.631 456.976L249.501 457.876C249.111 458.356 248.631 458.731 248.061 459.001C247.501 459.271 246.866 459.406 246.156 459.406C245.346 459.406 244.626 459.236 243.996 458.896C243.366 458.556 242.871 458.091 242.511 457.501C242.161 456.901 241.986 456.216 241.986 455.446C241.986 454.676 242.156 453.996 242.496 453.406C242.836 452.806 243.306 452.336 243.906 451.996C244.506 451.656 245.181 451.486 245.931 451.486C246.661 451.486 247.306 451.656 247.866 451.996C248.436 452.326 248.881 452.786 249.201 453.376C249.531 453.956 249.696 454.631 249.696 455.401V455.491H248.286V455.356C248.286 454.816 248.186 454.346 247.986 453.946C247.786 453.536 247.506 453.221 247.146 453.001C246.796 452.771 246.391 452.656 245.931 452.656C245.441 452.656 245.006 452.771 244.626 453.001C244.246 453.231 243.951 453.556 243.741 453.976C243.531 454.386 243.426 454.871 243.426 455.431C243.426 455.991 243.541 456.486 243.771 456.916C244.011 457.336 244.341 457.661 244.761 457.891C245.181 458.121 245.661 458.236 246.201 458.236C247.191 458.236 248.001 457.816 248.631 456.976ZM249.696 455.911H243.021V454.876H249.456L249.696 455.401V455.911ZM252.898 462.076H251.503V451.726H252.883V454.006H252.568C252.648 453.516 252.833 453.081 253.123 452.701C253.423 452.321 253.793 452.026 254.233 451.816C254.683 451.596 255.173 451.486 255.703 451.486C256.423 451.486 257.063 451.661 257.623 452.011C258.183 452.351 258.623 452.821 258.943 453.421C259.263 454.011 259.423 454.686 259.423 455.446C259.423 456.216 259.258 456.901 258.928 457.501C258.608 458.091 258.158 458.556 257.578 458.896C257.008 459.236 256.358 459.406 255.628 459.406C254.958 459.406 254.378 459.271 253.888 459.001C253.398 458.721 253.028 458.346 252.778 457.876C252.528 457.396 252.428 456.861 252.478 456.271L252.763 455.986C252.803 456.416 252.943 456.801 253.183 457.141C253.433 457.481 253.748 457.746 254.128 457.936C254.518 458.116 254.938 458.206 255.388 458.206C255.908 458.206 256.358 458.091 256.738 457.861C257.118 457.621 257.418 457.291 257.638 456.871C257.858 456.451 257.968 455.976 257.968 455.446C257.968 454.916 257.863 454.446 257.653 454.036C257.443 453.616 257.153 453.286 256.783 453.046C256.413 452.806 255.978 452.686 255.478 452.686C254.978 452.686 254.533 452.811 254.143 453.061C253.763 453.301 253.458 453.641 253.228 454.081C253.008 454.521 252.898 455.031 252.898 455.611V462.076ZM266.914 457.051L267.859 457.951C267.499 458.401 267.054 458.756 266.524 459.016C265.994 459.276 265.394 459.406 264.724 459.406C263.964 459.406 263.284 459.236 262.684 458.896C262.094 458.556 261.629 458.091 261.289 457.501C260.949 456.901 260.779 456.216 260.779 455.446C260.779 454.686 260.949 454.011 261.289 453.421C261.629 452.821 262.099 452.351 262.699 452.011C263.309 451.661 263.994 451.486 264.754 451.486C265.414 451.486 266.004 451.616 266.524 451.876C267.054 452.136 267.499 452.491 267.859 452.941L266.914 453.841C266.684 453.491 266.394 453.211 266.044 453.001C265.694 452.791 265.274 452.686 264.784 452.686C264.284 452.686 263.839 452.806 263.449 453.046C263.069 453.276 262.769 453.601 262.549 454.021C262.339 454.431 262.234 454.906 262.234 455.446C262.234 455.986 262.339 456.466 262.549 456.886C262.769 457.296 263.069 457.621 263.449 457.861C263.839 458.091 264.284 458.206 264.784 458.206C265.284 458.206 265.704 458.101 266.044 457.891C266.394 457.681 266.684 457.401 266.914 457.051ZM269.521 459.166V451.726H270.886V457.336L270.781 457.306L275.236 451.726H276.451V459.166H275.086V453.556L275.206 453.601L270.736 459.166H269.521ZM278.749 459.166V451.726H280.114V457.336L280.009 457.306L284.464 451.726H285.679V459.166H284.314V453.556L284.434 453.601L279.964 459.166H278.749ZM124.077 477.656L121.917 474.446L124.077 471.236H125.637L123.447 474.446L125.637 477.656H124.077ZM127.047 477.656L124.887 474.446L127.047 471.236H128.607L126.417 474.446L128.607 477.656H127.047ZM129.856 476.426L130.876 475.436C131.166 475.786 131.501 476.086 131.881 476.336C132.261 476.586 132.671 476.781 133.111 476.921C133.551 477.061 134.016 477.131 134.506 477.131C135.056 477.131 135.541 477.051 135.961 476.891C136.381 476.721 136.711 476.491 136.951 476.201C137.191 475.911 137.311 475.571 137.311 475.181C137.311 474.671 137.086 474.271 136.636 473.981C136.196 473.681 135.436 473.451 134.356 473.291C133.376 473.141 132.591 472.941 132.001 472.691C131.411 472.441 130.981 472.126 130.711 471.746C130.441 471.356 130.306 470.896 130.306 470.366C130.306 469.746 130.481 469.196 130.831 468.716C131.181 468.236 131.661 467.866 132.271 467.606C132.891 467.336 133.596 467.201 134.386 467.201C135.296 467.201 136.101 467.381 136.801 467.741C137.511 468.091 138.131 468.571 138.661 469.181L137.656 470.156C137.246 469.646 136.781 469.241 136.261 468.941C135.741 468.631 135.116 468.476 134.386 468.476C133.626 468.476 133.001 468.646 132.511 468.986C132.031 469.316 131.791 469.761 131.791 470.321C131.791 470.611 131.881 470.861 132.061 471.071C132.241 471.271 132.536 471.441 132.946 471.581C133.356 471.721 133.906 471.846 134.596 471.956C135.596 472.096 136.401 472.306 137.011 472.586C137.631 472.856 138.081 473.201 138.361 473.621C138.651 474.041 138.796 474.546 138.796 475.136C138.796 475.786 138.611 476.356 138.241 476.846C137.881 477.336 137.376 477.721 136.726 478.001C136.086 478.271 135.346 478.406 134.506 478.406C133.516 478.406 132.636 478.231 131.866 477.881C131.096 477.521 130.426 477.036 129.856 476.426ZM152.484 478.166H151.089V473.861C151.089 473.141 150.939 472.601 150.639 472.241C150.339 471.871 149.929 471.686 149.409 471.686C149.039 471.686 148.684 471.791 148.344 472.001C148.014 472.211 147.744 472.541 147.534 472.991C147.334 473.431 147.234 474.006 147.234 474.716V478.166H145.839V473.861C145.839 473.141 145.684 472.601 145.374 472.241C145.074 471.871 144.669 471.686 144.159 471.686C143.779 471.686 143.419 471.791 143.079 472.001C142.749 472.211 142.479 472.541 142.269 472.991C142.069 473.431 141.969 474.006 141.969 474.716V478.166H140.574V470.726H141.954V472.541L141.834 472.526C141.974 472.016 142.179 471.616 142.449 471.326C142.729 471.036 143.044 470.826 143.394 470.696C143.754 470.556 144.119 470.486 144.489 470.486C145.159 470.486 145.709 470.671 146.139 471.041C146.579 471.411 146.864 471.956 146.994 472.676H146.814C146.954 472.146 147.169 471.721 147.459 471.401C147.759 471.081 148.099 470.851 148.479 470.711C148.869 470.561 149.264 470.486 149.664 470.486C150.554 470.486 151.244 470.766 151.734 471.326C152.234 471.876 152.484 472.676 152.484 473.726V478.166ZM160.868 478.166H159.563V476.696L159.518 476.336V473.561C159.518 472.971 159.328 472.506 158.948 472.166C158.568 471.816 158.053 471.641 157.403 471.641C156.933 471.641 156.503 471.741 156.113 471.941C155.723 472.131 155.383 472.396 155.093 472.736L154.223 471.836C154.633 471.406 155.103 471.076 155.633 470.846C156.173 470.606 156.773 470.486 157.433 470.486C158.113 470.486 158.708 470.611 159.218 470.861C159.738 471.111 160.143 471.461 160.433 471.911C160.723 472.351 160.868 472.886 160.868 473.516V478.166ZM156.818 478.406C156.258 478.406 155.763 478.306 155.333 478.106C154.903 477.896 154.568 477.611 154.328 477.251C154.088 476.891 153.968 476.481 153.968 476.021C153.968 475.501 154.113 475.061 154.403 474.701C154.703 474.331 155.113 474.051 155.633 473.861C156.153 473.661 156.748 473.561 157.418 473.561H159.683V474.596H157.568C156.938 474.596 156.418 474.711 156.008 474.941C155.608 475.161 155.408 475.506 155.408 475.976C155.408 476.376 155.558 476.696 155.858 476.936C156.168 477.176 156.568 477.296 157.058 477.296C157.538 477.296 157.973 477.201 158.363 477.011C158.753 476.821 159.063 476.556 159.293 476.216C159.533 475.866 159.668 475.466 159.698 475.016L160.193 475.286C160.193 475.886 160.048 476.421 159.758 476.891C159.468 477.361 159.068 477.731 158.558 478.001C158.058 478.271 157.478 478.406 156.818 478.406ZM166.938 470.606V471.926H166.608C166.158 471.926 165.743 472.036 165.363 472.256C164.993 472.466 164.693 472.801 164.463 473.261C164.243 473.711 164.133 474.301 164.133 475.031V478.166H162.738V470.726H164.118V473.111H163.908C164.018 472.481 164.218 471.986 164.508 471.626C164.808 471.266 165.153 471.006 165.543 470.846C165.933 470.686 166.333 470.606 166.743 470.606H166.938ZM172.863 478.166H171.078C170.498 478.166 170.053 478.016 169.743 477.716C169.443 477.406 169.293 476.966 169.293 476.396V468.626H170.688V476.216C170.688 476.466 170.753 476.661 170.883 476.801C171.013 476.931 171.203 476.996 171.453 476.996H172.863V478.166ZM172.758 471.896H167.838V470.726H172.758V471.896ZM176.033 478.166H174.593V467.441H178.823C179.553 467.441 180.188 467.571 180.728 467.831C181.268 468.091 181.688 468.451 181.988 468.911C182.298 469.371 182.453 469.911 182.453 470.531C182.453 471.151 182.298 471.691 181.988 472.151C181.688 472.611 181.268 472.971 180.728 473.231C180.188 473.491 179.553 473.621 178.823 473.621H175.883V472.376H178.823C179.493 472.376 180.018 472.216 180.398 471.896C180.788 471.566 180.983 471.111 180.983 470.531C180.983 469.951 180.788 469.501 180.398 469.181C180.018 468.851 179.493 468.686 178.823 468.686H176.033V478.166ZM183.518 478.166H181.703L177.683 473.171H179.363L183.518 478.166ZM190.942 478.166H189.637V476.696L189.592 476.336V473.561C189.592 472.971 189.402 472.506 189.022 472.166C188.642 471.816 188.127 471.641 187.477 471.641C187.007 471.641 186.577 471.741 186.187 471.941C185.797 472.131 185.457 472.396 185.167 472.736L184.297 471.836C184.707 471.406 185.177 471.076 185.707 470.846C186.247 470.606 186.847 470.486 187.507 470.486C188.187 470.486 188.782 470.611 189.292 470.861C189.812 471.111 190.217 471.461 190.507 471.911C190.797 472.351 190.942 472.886 190.942 473.516V478.166ZM186.892 478.406C186.332 478.406 185.837 478.306 185.407 478.106C184.977 477.896 184.642 477.611 184.402 477.251C184.162 476.891 184.042 476.481 184.042 476.021C184.042 475.501 184.187 475.061 184.477 474.701C184.777 474.331 185.187 474.051 185.707 473.861C186.227 473.661 186.822 473.561 187.492 473.561H189.757V474.596H187.642C187.012 474.596 186.492 474.711 186.082 474.941C185.682 475.161 185.482 475.506 185.482 475.976C185.482 476.376 185.632 476.696 185.932 476.936C186.242 477.176 186.642 477.296 187.132 477.296C187.612 477.296 188.047 477.201 188.437 477.011C188.827 476.821 189.137 476.556 189.367 476.216C189.607 475.866 189.742 475.466 189.772 475.016L190.267 475.286C190.267 475.886 190.122 476.421 189.832 476.891C189.542 477.361 189.142 477.731 188.632 478.001C188.132 478.271 187.552 478.406 186.892 478.406ZM199.771 478.166H198.376V473.876C198.376 473.146 198.211 472.601 197.881 472.241C197.551 471.871 197.106 471.686 196.546 471.686C196.146 471.686 195.766 471.791 195.406 472.001C195.046 472.211 194.756 472.541 194.536 472.991C194.316 473.441 194.206 474.021 194.206 474.731V478.166H192.811V470.726H194.191V473.006H193.981C194.091 472.376 194.291 471.881 194.581 471.521C194.871 471.151 195.216 470.886 195.616 470.726C196.016 470.566 196.431 470.486 196.861 470.486C197.761 470.486 198.471 470.766 198.991 471.326C199.511 471.876 199.771 472.676 199.771 473.726V478.166ZM203.039 478.166H201.644V467.366H203.039V478.166ZM208.949 478.166H207.014L202.634 474.311H202.784L206.714 470.726H208.514L204.344 474.446V474.176L208.949 478.166ZM211.535 478.166H210.14V470.726H211.535V478.166ZM210.845 468.971C210.585 468.971 210.36 468.886 210.17 468.716C209.99 468.536 209.9 468.316 209.9 468.056C209.9 467.796 209.99 467.576 210.17 467.396C210.36 467.216 210.585 467.126 210.845 467.126C211.105 467.126 211.325 467.216 211.505 467.396C211.685 467.576 211.775 467.796 211.775 468.056C211.775 468.316 211.685 468.536 211.505 468.716C211.325 468.886 211.105 468.971 210.845 468.971ZM220.469 478.166H219.074V473.876C219.074 473.146 218.909 472.601 218.579 472.241C218.249 471.871 217.804 471.686 217.244 471.686C216.844 471.686 216.464 471.791 216.104 472.001C215.744 472.211 215.454 472.541 215.234 472.991C215.014 473.441 214.904 474.021 214.904 474.731V478.166H213.509V470.726H214.889V473.006H214.679C214.789 472.376 214.989 471.881 215.279 471.521C215.569 471.151 215.914 470.886 216.314 470.726C216.714 470.566 217.129 470.486 217.559 470.486C218.459 470.486 219.169 470.766 219.689 471.326C220.209 471.876 220.469 472.676 220.469 473.726V478.166ZM229.947 477.446C229.947 478.206 229.772 478.876 229.422 479.456C229.082 480.036 228.612 480.491 228.012 480.821C227.412 481.151 226.722 481.316 225.942 481.316C225.232 481.316 224.587 481.191 224.007 480.941C223.427 480.701 222.947 480.366 222.567 479.936L223.437 479.006C223.717 479.356 224.057 479.631 224.457 479.831C224.867 480.031 225.352 480.131 225.912 480.131C226.442 480.131 226.902 480.016 227.292 479.786C227.692 479.566 228.002 479.256 228.222 478.856C228.442 478.466 228.552 478.006 228.552 477.476V474.611C228.552 473.971 228.432 473.436 228.192 473.006C227.952 472.576 227.637 472.251 227.247 472.031C226.867 471.801 226.452 471.686 226.002 471.686C225.512 471.686 225.072 471.806 224.682 472.046C224.302 472.286 224.007 472.611 223.797 473.021C223.587 473.421 223.482 473.876 223.482 474.386C223.482 474.906 223.587 475.366 223.797 475.766C224.017 476.166 224.317 476.481 224.697 476.711C225.087 476.931 225.542 477.041 226.062 477.041C226.522 477.041 226.942 476.946 227.322 476.756C227.702 476.566 228.012 476.306 228.252 475.976C228.502 475.636 228.647 475.251 228.687 474.821L228.972 475.106C229.042 475.706 228.942 476.241 228.672 476.711C228.412 477.181 228.032 477.556 227.532 477.836C227.042 478.106 226.472 478.241 225.822 478.241C225.102 478.241 224.452 478.081 223.872 477.761C223.302 477.431 222.852 476.976 222.522 476.396C222.192 475.806 222.027 475.136 222.027 474.386C222.027 473.626 222.192 472.956 222.522 472.376C222.862 471.786 223.312 471.326 223.872 470.996C224.442 470.656 225.077 470.486 225.777 470.486C226.287 470.486 226.757 470.581 227.187 470.771C227.627 470.961 227.997 471.246 228.297 471.626C228.597 471.996 228.792 472.456 228.882 473.006H228.567V470.726H229.947V477.446ZM233.197 471.236L235.372 474.446L233.197 477.656H231.652L233.842 474.446L231.652 471.236H233.197ZM236.167 471.236L238.342 474.446L236.167 477.656H234.622L236.812 474.446L234.622 471.236H236.167ZM242.686 473.651C242.686 472.451 242.871 471.306 243.241 470.216C243.611 469.126 244.141 468.121 244.831 467.201H246.166C245.456 468.241 244.921 469.296 244.561 470.366C244.211 471.426 244.036 472.521 244.036 473.651C244.036 475.871 244.746 478.021 246.166 480.101H244.831C244.141 479.181 243.611 478.176 243.241 477.086C242.871 475.996 242.686 474.851 242.686 473.651ZM254.643 478.166H247.458V476.996L251.283 473.426C251.893 472.846 252.358 472.321 252.678 471.851C253.008 471.381 253.173 470.896 253.173 470.396C253.173 470.026 253.083 469.691 252.903 469.391C252.733 469.091 252.493 468.851 252.183 468.671C251.873 468.491 251.513 468.401 251.103 468.401C250.533 468.401 250.013 468.561 249.543 468.881C249.073 469.191 248.663 469.631 248.313 470.201L247.338 469.286C247.848 468.596 248.418 468.076 249.048 467.726C249.688 467.376 250.393 467.201 251.163 467.201C251.853 467.201 252.453 467.346 252.963 467.636C253.473 467.916 253.868 468.296 254.148 468.776C254.438 469.256 254.583 469.801 254.583 470.411C254.583 470.871 254.483 471.311 254.283 471.731C254.093 472.151 253.808 472.581 253.428 473.021C253.048 473.461 252.563 473.946 251.973 474.476C251.673 474.756 251.368 475.041 251.058 475.331C250.748 475.611 250.438 475.891 250.128 476.171C249.828 476.451 249.528 476.726 249.228 476.996H254.643V478.166ZM260.533 478.406C259.703 478.406 258.983 478.186 258.373 477.746C257.773 477.296 257.313 476.656 256.993 475.826C256.673 474.986 256.513 473.981 256.513 472.811C256.513 471.041 256.868 469.666 257.578 468.686C258.298 467.696 259.283 467.201 260.533 467.201C261.793 467.201 262.778 467.696 263.488 468.686C264.208 469.666 264.568 471.041 264.568 472.811C264.568 473.981 264.408 474.986 264.088 475.826C263.768 476.656 263.308 477.296 262.708 477.746C262.108 478.186 261.383 478.406 260.533 478.406ZM260.533 477.206C261.353 477.206 261.983 476.831 262.423 476.081C262.873 475.321 263.098 474.231 263.098 472.811C263.098 471.381 262.873 470.291 262.423 469.541C261.983 468.781 261.353 468.401 260.533 468.401C259.723 468.401 259.093 468.781 258.643 469.541C258.193 470.291 257.968 471.381 257.968 472.811C257.968 474.231 258.193 475.321 258.643 476.081C259.093 476.831 259.723 477.206 260.533 477.206ZM273.35 478.166H266.165V476.996L269.99 473.426C270.6 472.846 271.065 472.321 271.385 471.851C271.715 471.381 271.88 470.896 271.88 470.396C271.88 470.026 271.79 469.691 271.61 469.391C271.44 469.091 271.2 468.851 270.89 468.671C270.58 468.491 270.22 468.401 269.81 468.401C269.24 468.401 268.72 468.561 268.25 468.881C267.78 469.191 267.37 469.631 267.02 470.201L266.045 469.286C266.555 468.596 267.125 468.076 267.755 467.726C268.395 467.376 269.1 467.201 269.87 467.201C270.56 467.201 271.16 467.346 271.67 467.636C272.18 467.916 272.575 468.296 272.855 468.776C273.145 469.256 273.29 469.801 273.29 470.411C273.29 470.871 273.19 471.311 272.99 471.731C272.8 472.151 272.515 472.581 272.135 473.021C271.755 473.461 271.27 473.946 270.68 474.476C270.38 474.756 270.075 475.041 269.765 475.331C269.455 475.611 269.145 475.891 268.835 476.171C268.535 476.451 268.235 476.726 267.935 476.996H273.35V478.166ZM281.721 478.166H280.326V475.601H274.731V474.461L280.326 467.441H281.721V474.461H283.326V475.601H281.721V478.166ZM280.326 469.241L276.156 474.461H280.326V469.241ZM287.936 473.651C287.936 474.851 287.751 475.996 287.381 477.086C287.021 478.176 286.491 479.181 285.791 480.101H284.441C285.871 478.021 286.586 475.871 286.586 473.651C286.586 472.521 286.406 471.426 286.046 470.366C285.696 469.296 285.161 468.241 284.441 467.201H285.791C286.491 468.121 287.021 469.126 287.381 470.216C287.751 471.306 287.936 472.451 287.936 473.651Z" fill="black"/>
</svg>
