<svg width="597" height="367" viewBox="0 0 597 367" fill="none" xmlns="http://www.w3.org/2000/svg">
<path d="M87.7248 176.45C126.233 176.45 157.45 145.233 157.45 106.725C157.45 68.2169 126.233 37 87.7248 37C49.2169 37 18 68.2169 18 106.725C18 145.233 49.2169 176.45 87.7248 176.45Z" fill="white"/>
<path d="M54.529 102.372H53.089V91.6473H57.319C58.049 91.6473 58.684 91.7773 59.224 92.0373C59.764 92.2973 60.184 92.6573 60.484 93.1173C60.794 93.5773 60.949 94.1173 60.949 94.7373C60.949 95.3573 60.794 95.8973 60.484 96.3573C60.184 96.8173 59.764 97.1773 59.224 97.4373C58.684 97.6973 58.049 97.8273 57.319 97.8273H54.379V96.5823H57.319C57.989 96.5823 58.514 96.4223 58.894 96.1023C59.284 95.7723 59.479 95.3173 59.479 94.7373C59.479 94.1573 59.284 93.7073 58.894 93.3873C58.514 93.0573 57.989 92.8923 57.319 92.8923H54.529V102.372ZM68.0964 100.182L68.9664 101.082C68.5764 101.562 68.0964 101.937 67.5264 102.207C66.9664 102.477 66.3314 102.612 65.6214 102.612C64.8114 102.612 64.0914 102.442 63.4614 102.102C62.8314 101.762 62.3364 101.297 61.9764 100.707C61.6264 100.107 61.4514 99.4223 61.4514 98.6523C61.4514 97.8823 61.6214 97.2023 61.9614 96.6123C62.3014 96.0123 62.7714 95.5423 63.3714 95.2023C63.9714 94.8623 64.6464 94.6923 65.3964 94.6923C66.1264 94.6923 66.7714 94.8623 67.3314 95.2023C67.9014 95.5323 68.3464 95.9923 68.6664 96.5823C68.9964 97.1623 69.1614 97.8373 69.1614 98.6073V98.6973H67.7514V98.5623C67.7514 98.0223 67.6514 97.5523 67.4514 97.1523C67.2514 96.7423 66.9714 96.4273 66.6114 96.2073C66.2614 95.9773 65.8564 95.8623 65.3964 95.8623C64.9064 95.8623 64.4714 95.9773 64.0914 96.2073C63.7114 96.4373 63.4164 96.7623 63.2064 97.1823C62.9964 97.5923 62.8914 98.0773 62.8914 98.6373C62.8914 99.1973 63.0064 99.6923 63.2364 100.122C63.4764 100.542 63.8064 100.867 64.2264 101.097C64.6464 101.327 65.1264 101.442 65.6664 101.442C66.6564 101.442 67.4664 101.022 68.0964 100.182ZM69.1614 99.1173H62.4864V98.0823H68.9214L69.1614 98.6073V99.1173ZM73.3991 102.627C72.7791 102.627 72.1691 102.517 71.5691 102.297C70.9691 102.067 70.4691 101.737 70.0691 101.307L70.8941 100.437C71.5541 101.107 72.3791 101.442 73.3691 101.442C73.9891 101.442 74.4791 101.327 74.8391 101.097C75.2091 100.857 75.3941 100.542 75.3941 100.152C75.3941 99.4323 74.7841 99.0723 73.5641 99.0723H72.0491V98.0223H73.5791C74.0991 98.0223 74.4941 97.9373 74.7641 97.7673C75.0341 97.5873 75.1691 97.3323 75.1691 97.0023C75.1691 96.6523 75.0041 96.3773 74.6741 96.1773C74.3541 95.9673 73.9191 95.8623 73.3691 95.8623C72.4691 95.8623 71.7041 96.2023 71.0741 96.8823L70.2491 95.9823C71.0691 95.1223 72.1141 94.6923 73.3841 94.6923C74.0041 94.6923 74.5491 94.7873 75.0191 94.9773C75.4891 95.1573 75.8591 95.4073 76.1291 95.7273C76.4091 96.0473 76.5491 96.4173 76.5491 96.8373C76.5491 97.2373 76.4241 97.5873 76.1741 97.8873C75.9341 98.1773 75.5891 98.3873 75.1391 98.5173L75.1241 98.3973C75.6541 98.5273 76.0641 98.7523 76.3541 99.0723C76.6441 99.3923 76.7891 99.7823 76.7891 100.242C76.7891 100.692 76.6391 101.097 76.3391 101.457C76.0391 101.817 75.6341 102.102 75.1241 102.312C74.6241 102.522 74.0491 102.627 73.3991 102.627ZM78.3959 102.372V94.9323H79.7609V100.542L79.6559 100.512L84.1109 94.9323H85.3259V102.372H83.9609V96.7623L84.0809 96.8073L79.6109 102.372H78.3959ZM87.1294 101.862V101.217H87.3994C87.6094 101.217 87.7694 101.172 87.8794 101.082C87.9994 100.992 88.0944 100.842 88.1644 100.632C88.2344 100.412 88.2894 100.107 88.3294 99.7173L88.8694 94.9323H94.2244V101.682H92.8444V95.1873L93.8194 96.1023H89.0944L90.2044 95.1873L89.6344 99.8223C89.5744 100.332 89.4744 100.737 89.3344 101.037C89.2044 101.327 89.0094 101.537 88.7494 101.667C88.4894 101.797 88.1344 101.862 87.6844 101.862H87.1294ZM86.7994 104.337V101.217H95.3344V104.337H94.0144V101.487L94.8844 102.372H87.5944L88.1194 101.487V104.337H86.7994ZM102.784 100.182L103.654 101.082C103.264 101.562 102.784 101.937 102.214 102.207C101.654 102.477 101.019 102.612 100.309 102.612C99.4989 102.612 98.7789 102.442 98.1489 102.102C97.5189 101.762 97.0239 101.297 96.6639 100.707C96.3139 100.107 96.1389 99.4223 96.1389 98.6523C96.1389 97.8823 96.3089 97.2023 96.6489 96.6123C96.9889 96.0123 97.4589 95.5423 98.0589 95.2023C98.6589 94.8623 99.3339 94.6923 100.084 94.6923C100.814 94.6923 101.459 94.8623 102.019 95.2023C102.589 95.5323 103.034 95.9923 103.354 96.5823C103.684 97.1623 103.849 97.8373 103.849 98.6073V98.6973H102.439V98.5623C102.439 98.0223 102.339 97.5523 102.139 97.1523C101.939 96.7423 101.659 96.4273 101.299 96.2073C100.949 95.9773 100.544 95.8623 100.084 95.8623C99.5939 95.8623 99.1589 95.9773 98.7789 96.2073C98.3989 96.4373 98.1039 96.7623 97.8939 97.1823C97.6839 97.5923 97.5789 98.0773 97.5789 98.6373C97.5789 99.1973 97.6939 99.6923 97.9239 100.122C98.1639 100.542 98.4939 100.867 98.9139 101.097C99.3339 101.327 99.8139 101.442 100.354 101.442C101.344 101.442 102.154 101.022 102.784 100.182ZM103.849 99.1173H97.1739V98.0823H103.609L103.849 98.6073V99.1173ZM111.252 102.372V94.9323H112.647V102.372H111.252ZM105.657 102.372V94.9323H107.052V102.372H105.657ZM106.332 99.0423V97.8873H112.032V99.0423H106.332ZM116.834 102.372V95.3673H118.229V102.372H116.834ZM114.149 96.1023V94.9323H120.899V96.1023H114.149ZM46.9317 120.862L44.7717 117.652L46.9317 114.442H48.4917L46.3017 117.652L48.4917 120.862H46.9317ZM49.9017 120.862L47.7417 117.652L49.9017 114.442H51.4617L49.2717 117.652L51.4617 120.862H49.9017ZM61.7404 118.612L62.7454 119.587C62.2754 120.207 61.6654 120.702 60.9154 121.072C60.1654 121.432 59.3404 121.612 58.4404 121.612C57.6504 121.612 56.9204 121.472 56.2504 121.192C55.5904 120.912 55.0154 120.522 54.5254 120.022C54.0354 119.512 53.6504 118.917 53.3704 118.237C53.1004 117.557 52.9654 116.817 52.9654 116.017C52.9654 115.217 53.1054 114.477 53.3854 113.797C53.6654 113.107 54.0504 112.512 54.5404 112.012C55.0404 111.502 55.6254 111.107 56.2954 110.827C56.9654 110.547 57.6954 110.407 58.4854 110.407C59.3754 110.407 60.1904 110.592 60.9304 110.962C61.6704 111.322 62.2754 111.812 62.7454 112.432L61.7404 113.407C61.3804 112.887 60.9254 112.472 60.3754 112.162C59.8254 111.852 59.1954 111.697 58.4854 111.697C57.7254 111.697 57.0404 111.887 56.4304 112.267C55.8304 112.637 55.3554 113.147 55.0054 113.797C54.6554 114.437 54.4804 115.177 54.4804 116.017C54.4804 116.837 54.6554 117.572 55.0054 118.222C55.3554 118.872 55.8304 119.387 56.4304 119.767C57.0404 120.137 57.7254 120.322 58.4854 120.322C59.1954 120.322 59.8254 120.167 60.3754 119.857C60.9254 119.547 61.3804 119.132 61.7404 118.612ZM69.5129 121.372L65.4479 117.517H65.5979L69.2729 113.932H71.0579L67.0679 117.817L66.7829 117.037L71.4179 121.372H69.5129ZM64.4579 121.372V113.932H65.8529V121.372H64.4579ZM75.6733 121.612C74.8933 121.612 74.2033 121.442 73.6033 121.102C73.0033 120.762 72.5333 120.297 72.1933 119.707C71.8533 119.107 71.6833 118.422 71.6833 117.652C71.6833 116.882 71.8533 116.202 72.1933 115.612C72.5333 115.022 73.0033 114.557 73.6033 114.217C74.2033 113.867 74.8933 113.692 75.6733 113.692C76.4533 113.692 77.1383 113.867 77.7283 114.217C78.3283 114.557 78.7983 115.022 79.1383 115.612C79.4883 116.202 79.6633 116.882 79.6633 117.652C79.6633 118.422 79.4883 119.107 79.1383 119.707C78.7983 120.297 78.3283 120.762 77.7283 121.102C77.1383 121.442 76.4533 121.612 75.6733 121.612ZM75.6733 120.412C76.1733 120.412 76.6133 120.297 76.9933 120.067C77.3733 119.837 77.6683 119.512 77.8783 119.092C78.0883 118.672 78.1933 118.192 78.1933 117.652C78.1933 117.112 78.0883 116.637 77.8783 116.227C77.6683 115.807 77.3733 115.482 76.9933 115.252C76.6133 115.012 76.1733 114.892 75.6733 114.892C75.1733 114.892 74.7283 115.012 74.3383 115.252C73.9583 115.482 73.6633 115.807 73.4533 116.227C73.2433 116.637 73.1383 117.112 73.1383 117.652C73.1383 118.192 73.2433 118.672 73.4533 119.092C73.6633 119.512 73.9583 119.837 74.3383 120.067C74.7283 120.297 75.1733 120.412 75.6733 120.412ZM80.6097 121.372V120.202H81.1797C81.4597 120.202 81.6647 120.132 81.7947 119.992C81.9347 119.852 82.0197 119.607 82.0497 119.257L82.5147 113.932H87.9897V121.372H86.5947V114.187L87.5847 115.102H82.7847L83.8647 114.187L83.3547 119.497C83.2947 120.197 83.1097 120.687 82.7997 120.967C82.4897 121.237 82.0247 121.372 81.4047 121.372H80.6097ZM95.3234 121.372L91.2584 117.517H91.4084L95.0834 113.932H96.8684L92.8784 117.817L92.5934 117.037L97.2284 121.372H95.3234ZM90.2684 121.372V113.932H91.6634V121.372H90.2684ZM101.484 121.612C100.704 121.612 100.014 121.442 99.4138 121.102C98.8138 120.762 98.3438 120.297 98.0038 119.707C97.6638 119.107 97.4938 118.422 97.4938 117.652C97.4938 116.882 97.6638 116.202 98.0038 115.612C98.3438 115.022 98.8138 114.557 99.4138 114.217C100.014 113.867 100.704 113.692 101.484 113.692C102.264 113.692 102.949 113.867 103.539 114.217C104.139 114.557 104.609 115.022 104.949 115.612C105.299 116.202 105.474 116.882 105.474 117.652C105.474 118.422 105.299 119.107 104.949 119.707C104.609 120.297 104.139 120.762 103.539 121.102C102.949 121.442 102.264 121.612 101.484 121.612ZM101.484 120.412C101.984 120.412 102.424 120.297 102.804 120.067C103.184 119.837 103.479 119.512 103.689 119.092C103.899 118.672 104.004 118.192 104.004 117.652C104.004 117.112 103.899 116.637 103.689 116.227C103.479 115.807 103.184 115.482 102.804 115.252C102.424 115.012 101.984 114.892 101.484 114.892C100.984 114.892 100.539 115.012 100.149 115.252C99.7688 115.482 99.4738 115.807 99.2638 116.227C99.0538 116.637 98.9488 117.112 98.9488 117.652C98.9488 118.192 99.0538 118.672 99.2638 119.092C99.4738 119.512 99.7688 119.837 100.149 120.067C100.539 120.297 100.984 120.412 101.484 120.412ZM107.275 121.372V113.932H111.07C111.85 113.932 112.465 114.112 112.915 114.472C113.375 114.832 113.605 115.312 113.605 115.912C113.605 116.292 113.49 116.622 113.26 116.902C113.04 117.182 112.74 117.397 112.36 117.547L112.345 117.412C112.815 117.542 113.2 117.762 113.5 118.072C113.8 118.382 113.95 118.762 113.95 119.212C113.95 119.632 113.825 120.007 113.575 120.337C113.325 120.667 112.99 120.922 112.57 121.102C112.15 121.282 111.68 121.372 111.16 121.372H107.275ZM108.61 121.042L107.83 120.277H111.055C111.515 120.277 111.875 120.182 112.135 119.992C112.395 119.792 112.525 119.512 112.525 119.152C112.525 118.802 112.395 118.532 112.135 118.342C111.875 118.142 111.515 118.042 111.055 118.042H107.995V116.992H110.98C111.42 116.992 111.73 116.902 111.91 116.722C112.09 116.542 112.18 116.292 112.18 115.972C112.18 115.662 112.085 115.432 111.895 115.282C111.715 115.122 111.41 115.042 110.98 115.042H107.815L108.61 114.247V121.042ZM119.077 121.612C118.297 121.612 117.607 121.442 117.007 121.102C116.407 120.762 115.937 120.297 115.597 119.707C115.257 119.107 115.087 118.422 115.087 117.652C115.087 116.882 115.257 116.202 115.597 115.612C115.937 115.022 116.407 114.557 117.007 114.217C117.607 113.867 118.297 113.692 119.077 113.692C119.857 113.692 120.542 113.867 121.132 114.217C121.732 114.557 122.202 115.022 122.542 115.612C122.892 116.202 123.067 116.882 123.067 117.652C123.067 118.422 122.892 119.107 122.542 119.707C122.202 120.297 121.732 120.762 121.132 121.102C120.542 121.442 119.857 121.612 119.077 121.612ZM119.077 120.412C119.577 120.412 120.017 120.297 120.397 120.067C120.777 119.837 121.072 119.512 121.282 119.092C121.492 118.672 121.597 118.192 121.597 117.652C121.597 117.112 121.492 116.637 121.282 116.227C121.072 115.807 120.777 115.482 120.397 115.252C120.017 115.012 119.577 114.892 119.077 114.892C118.577 114.892 118.132 115.012 117.742 115.252C117.362 115.482 117.067 115.807 116.857 116.227C116.647 116.637 116.542 117.112 116.542 117.652C116.542 118.192 116.647 118.672 116.857 119.092C117.067 119.512 117.362 119.837 117.742 120.067C118.132 120.297 118.577 120.412 119.077 120.412ZM125.993 114.442L128.168 117.652L125.993 120.862H124.448L126.638 117.652L124.448 114.442H125.993ZM128.963 114.442L131.138 117.652L128.963 120.862H127.418L129.608 117.652L127.418 114.442H128.963Z" fill="black"/>
<path d="M378 98C387.389 98 395 90.3888 395 81C395 71.6112 387.389 64 378 64C368.611 64 361 71.6112 361 81C361 90.3888 368.611 98 378 98Z" fill="#68CCEA"/>
<path d="M222.5 314C236.031 314 247 303.031 247 289.5C247 275.969 236.031 265 222.5 265C208.969 265 198 275.969 198 289.5C198 303.031 208.969 314 222.5 314Z" fill="#7FCBB4"/>
<path d="M108.599 366.199C153.113 366.199 189.199 330.113 189.199 285.599C189.199 241.086 153.113 205 108.599 205C64.0855 205 28 241.086 28 285.599C28 330.113 64.0855 366.199 108.599 366.199Z" fill="white"/>
<path d="M48.7876 278.457H42.7876V277.212H48.7876V278.457ZM50.8876 281.247H49.3576L45.5326 271.452H46.0726L42.2476 281.247H40.7776L45.0376 270.522H46.6126L50.8876 281.247ZM57.5807 281.247L53.5157 277.392H53.6657L57.3407 273.807H59.1257L55.1357 277.692L54.8507 276.912L59.4857 281.247H57.5807ZM52.5257 281.247V273.807H53.9207V281.247H52.5257ZM65.8718 281.247L61.8068 277.392H61.9568L65.6318 273.807H67.4168L63.4268 277.692L63.1418 276.912L67.7768 281.247H65.8718ZM60.8168 281.247V273.807H62.2118V281.247H60.8168ZM70.5028 284.157H69.1078V273.807H70.4878V276.087H70.1728C70.2528 275.597 70.4378 275.162 70.7278 274.782C71.0278 274.402 71.3978 274.107 71.8378 273.897C72.2878 273.677 72.7778 273.567 73.3078 273.567C74.0278 273.567 74.6678 273.742 75.2278 274.092C75.7878 274.432 76.2278 274.902 76.5478 275.502C76.8678 276.092 77.0278 276.767 77.0278 277.527C77.0278 278.297 76.8628 278.982 76.5328 279.582C76.2128 280.172 75.7628 280.637 75.1828 280.977C74.6128 281.317 73.9628 281.487 73.2328 281.487C72.5628 281.487 71.9828 281.352 71.4928 281.082C71.0028 280.802 70.6328 280.427 70.3828 279.957C70.1328 279.477 70.0328 278.942 70.0828 278.352L70.3678 278.067C70.4078 278.497 70.5478 278.882 70.7878 279.222C71.0378 279.562 71.3528 279.827 71.7328 280.017C72.1228 280.197 72.5428 280.287 72.9928 280.287C73.5128 280.287 73.9628 280.172 74.3428 279.942C74.7228 279.702 75.0228 279.372 75.2428 278.952C75.4628 278.532 75.5728 278.057 75.5728 277.527C75.5728 276.997 75.4678 276.527 75.2578 276.117C75.0478 275.697 74.7578 275.367 74.3878 275.127C74.0178 274.887 73.5828 274.767 73.0828 274.767C72.5828 274.767 72.1378 274.892 71.7478 275.142C71.3678 275.382 71.0628 275.722 70.8328 276.162C70.6128 276.602 70.5028 277.112 70.5028 277.692V284.157ZM85.029 279.057L85.899 279.957C85.509 280.437 85.029 280.812 84.459 281.082C83.899 281.352 83.264 281.487 82.554 281.487C81.744 281.487 81.024 281.317 80.394 280.977C79.764 280.637 79.269 280.172 78.909 279.582C78.559 278.982 78.384 278.297 78.384 277.527C78.384 276.757 78.554 276.077 78.894 275.487C79.234 274.887 79.704 274.417 80.304 274.077C80.904 273.737 81.579 273.567 82.329 273.567C83.059 273.567 83.704 273.737 84.264 274.077C84.834 274.407 85.279 274.867 85.599 275.457C85.929 276.037 86.094 276.712 86.094 277.482V277.572H84.684V277.437C84.684 276.897 84.584 276.427 84.384 276.027C84.184 275.617 83.904 275.302 83.544 275.082C83.194 274.852 82.789 274.737 82.329 274.737C81.839 274.737 81.404 274.852 81.024 275.082C80.644 275.312 80.349 275.637 80.139 276.057C79.929 276.467 79.824 276.952 79.824 277.512C79.824 278.072 79.939 278.567 80.169 278.997C80.409 279.417 80.739 279.742 81.159 279.972C81.579 280.202 82.059 280.317 82.599 280.317C83.589 280.317 84.399 279.897 85.029 279.057ZM86.094 277.992H79.419V276.957H85.854L86.094 277.482V277.992ZM87.4067 280.737V280.092H87.6767C87.8867 280.092 88.0467 280.047 88.1567 279.957C88.2767 279.867 88.3717 279.717 88.4417 279.507C88.5117 279.287 88.5667 278.982 88.6067 278.592L89.1467 273.807H94.5017V280.557H93.1217V274.062L94.0967 274.977H89.3717L90.4817 274.062L89.9117 278.697C89.8517 279.207 89.7517 279.612 89.6117 279.912C89.4817 280.202 89.2867 280.412 89.0267 280.542C88.7667 280.672 88.4117 280.737 87.9617 280.737H87.4067ZM87.0767 283.212V280.092H95.6117V283.212H94.2917V280.362L95.1617 281.247H87.8717L88.3967 280.362V283.212H87.0767ZM97.4671 281.247V273.807H98.8321V279.417L98.7271 279.387L103.182 273.807H104.397V281.247H103.032V275.637L103.152 275.682L98.6821 281.247H97.4671ZM108.601 281.247V274.242H109.996V281.247H108.601ZM105.916 274.977V273.807H112.666V274.977H105.916ZM117.398 281.487C116.618 281.487 115.928 281.317 115.328 280.977C114.728 280.637 114.258 280.172 113.918 279.582C113.578 278.982 113.408 278.297 113.408 277.527C113.408 276.757 113.578 276.077 113.918 275.487C114.258 274.897 114.728 274.432 115.328 274.092C115.928 273.742 116.618 273.567 117.398 273.567C118.178 273.567 118.863 273.742 119.453 274.092C120.053 274.432 120.523 274.897 120.863 275.487C121.213 276.077 121.388 276.757 121.388 277.527C121.388 278.297 121.213 278.982 120.863 279.582C120.523 280.172 120.053 280.637 119.453 280.977C118.863 281.317 118.178 281.487 117.398 281.487ZM117.398 280.287C117.898 280.287 118.338 280.172 118.718 279.942C119.098 279.712 119.393 279.387 119.603 278.967C119.813 278.547 119.918 278.067 119.918 277.527C119.918 276.987 119.813 276.512 119.603 276.102C119.393 275.682 119.098 275.357 118.718 275.127C118.338 274.887 117.898 274.767 117.398 274.767C116.898 274.767 116.453 274.887 116.063 275.127C115.683 275.357 115.388 275.682 115.178 276.102C114.968 276.512 114.863 276.987 114.863 277.527C114.863 278.067 114.968 278.547 115.178 278.967C115.388 279.387 115.683 279.712 116.063 279.942C116.453 280.172 116.898 280.287 117.398 280.287ZM123.19 281.247V273.807H126.985C127.765 273.807 128.38 273.987 128.83 274.347C129.29 274.707 129.52 275.187 129.52 275.787C129.52 276.167 129.405 276.497 129.175 276.777C128.955 277.057 128.655 277.272 128.275 277.422L128.26 277.287C128.73 277.417 129.115 277.637 129.415 277.947C129.715 278.257 129.865 278.637 129.865 279.087C129.865 279.507 129.74 279.882 129.49 280.212C129.24 280.542 128.905 280.797 128.485 280.977C128.065 281.157 127.595 281.247 127.075 281.247H123.19ZM124.525 280.917L123.745 280.152H126.97C127.43 280.152 127.79 280.057 128.05 279.867C128.31 279.667 128.44 279.387 128.44 279.027C128.44 278.677 128.31 278.407 128.05 278.217C127.79 278.017 127.43 277.917 126.97 277.917H123.91V276.867H126.895C127.335 276.867 127.645 276.777 127.825 276.597C128.005 276.417 128.095 276.167 128.095 275.847C128.095 275.537 128 275.307 127.81 275.157C127.63 274.997 127.325 274.917 126.895 274.917H123.73L124.525 274.122V280.917ZM138.075 281.247H136.77V279.777L136.725 279.417V276.642C136.725 276.052 136.535 275.587 136.155 275.247C135.775 274.897 135.26 274.722 134.61 274.722C134.14 274.722 133.71 274.822 133.32 275.022C132.93 275.212 132.59 275.477 132.3 275.817L131.43 274.917C131.84 274.487 132.31 274.157 132.84 273.927C133.38 273.687 133.98 273.567 134.64 273.567C135.32 273.567 135.915 273.692 136.425 273.942C136.945 274.192 137.35 274.542 137.64 274.992C137.93 275.432 138.075 275.967 138.075 276.597V281.247ZM134.025 281.487C133.465 281.487 132.97 281.387 132.54 281.187C132.11 280.977 131.775 280.692 131.535 280.332C131.295 279.972 131.175 279.562 131.175 279.102C131.175 278.582 131.32 278.142 131.61 277.782C131.91 277.412 132.32 277.132 132.84 276.942C133.36 276.742 133.955 276.642 134.625 276.642H136.89V277.677H134.775C134.145 277.677 133.625 277.792 133.215 278.022C132.815 278.242 132.615 278.587 132.615 279.057C132.615 279.457 132.765 279.777 133.065 280.017C133.375 280.257 133.775 280.377 134.265 280.377C134.745 280.377 135.18 280.282 135.57 280.092C135.96 279.902 136.27 279.637 136.5 279.297C136.74 278.947 136.875 278.547 136.905 278.097L137.4 278.367C137.4 278.967 137.255 279.502 136.965 279.972C136.675 280.442 136.275 280.812 135.765 281.082C135.265 281.352 134.685 281.487 134.025 281.487ZM145.689 281.247V273.807H147.084V281.247H145.689ZM140.094 281.247V273.807H141.489V281.247H140.094ZM140.769 277.917V276.762H146.469V277.917H140.769ZM154.962 281.247V273.807H156.357V281.247H154.962ZM149.367 281.247V273.807H150.762V281.247H149.367ZM150.042 277.917V276.762H155.742V277.917H150.042ZM164.984 281.247H163.679V279.777L163.634 279.417V276.642C163.634 276.052 163.444 275.587 163.064 275.247C162.684 274.897 162.169 274.722 161.519 274.722C161.049 274.722 160.619 274.822 160.229 275.022C159.839 275.212 159.499 275.477 159.209 275.817L158.339 274.917C158.749 274.487 159.219 274.157 159.749 273.927C160.289 273.687 160.889 273.567 161.549 273.567C162.229 273.567 162.824 273.692 163.334 273.942C163.854 274.192 164.259 274.542 164.549 274.992C164.839 275.432 164.984 275.967 164.984 276.597V281.247ZM160.934 281.487C160.374 281.487 159.879 281.387 159.449 281.187C159.019 280.977 158.684 280.692 158.444 280.332C158.204 279.972 158.084 279.562 158.084 279.102C158.084 278.582 158.229 278.142 158.519 277.782C158.819 277.412 159.229 277.132 159.749 276.942C160.269 276.742 160.864 276.642 161.534 276.642H163.799V277.677H161.684C161.054 277.677 160.534 277.792 160.124 278.022C159.724 278.242 159.524 278.587 159.524 279.057C159.524 279.457 159.674 279.777 159.974 280.017C160.284 280.257 160.684 280.377 161.174 280.377C161.654 280.377 162.089 280.282 162.479 280.092C162.869 279.902 163.179 279.637 163.409 279.297C163.649 278.947 163.784 278.547 163.814 278.097L164.309 278.367C164.309 278.967 164.164 279.502 163.874 279.972C163.584 280.442 163.184 280.812 162.674 281.082C162.174 281.352 161.594 281.487 160.934 281.487ZM171.788 281.247V274.017L172.673 274.932H169.718C169.328 274.932 168.988 275.027 168.698 275.217C168.408 275.397 168.263 275.697 168.263 276.117C168.263 276.497 168.393 276.792 168.653 277.002C168.913 277.212 169.273 277.317 169.733 277.317H172.448V278.397H169.643C168.803 278.397 168.128 278.192 167.618 277.782C167.108 277.362 166.853 276.807 166.853 276.117C166.853 275.677 166.973 275.287 167.213 274.947C167.463 274.597 167.798 274.322 168.218 274.122C168.648 273.912 169.128 273.807 169.658 273.807H173.123V281.247H171.788ZM166.508 281.247L169.163 277.857H170.648L168.128 281.247H166.508ZM66.704 300.247H65.264V289.522H66.704V300.247ZM73.3765 300.247H71.9365V290.632H73.3765V300.247ZM76.8865 290.782H68.4415V289.522H76.8865V290.782ZM80.6207 296.587H76.5407V295.372H80.6207V296.587ZM87.2951 300.247L83.2301 296.392H83.3801L87.0551 292.807H88.8401L84.8501 296.692L84.5651 295.912L89.2001 300.247H87.2951ZM82.2401 300.247V292.807H83.6351V300.247H82.2401ZM93.4555 300.487C92.6755 300.487 91.9855 300.317 91.3855 299.977C90.7855 299.637 90.3155 299.172 89.9755 298.582C89.6355 297.982 89.4655 297.297 89.4655 296.527C89.4655 295.757 89.6355 295.077 89.9755 294.487C90.3155 293.897 90.7855 293.432 91.3855 293.092C91.9855 292.742 92.6755 292.567 93.4555 292.567C94.2355 292.567 94.9205 292.742 95.5105 293.092C96.1105 293.432 96.5805 293.897 96.9205 294.487C97.2705 295.077 97.4455 295.757 97.4455 296.527C97.4455 297.297 97.2705 297.982 96.9205 298.582C96.5805 299.172 96.1105 299.637 95.5105 299.977C94.9205 300.317 94.2355 300.487 93.4555 300.487ZM93.4555 299.287C93.9555 299.287 94.3955 299.172 94.7755 298.942C95.1555 298.712 95.4505 298.387 95.6605 297.967C95.8705 297.547 95.9755 297.067 95.9755 296.527C95.9755 295.987 95.8705 295.512 95.6605 295.102C95.4505 294.682 95.1555 294.357 94.7755 294.127C94.3955 293.887 93.9555 293.767 93.4555 293.767C92.9555 293.767 92.5105 293.887 92.1205 294.127C91.7405 294.357 91.4455 294.682 91.2355 295.102C91.0255 295.512 90.9205 295.987 90.9205 296.527C90.9205 297.067 91.0255 297.547 91.2355 297.967C91.4455 298.387 91.7405 298.712 92.1205 298.942C92.5105 299.172 92.9555 299.287 93.4555 299.287ZM99.2469 300.247V292.807H100.792L103.717 298.297H103.462L106.372 292.807H107.962V300.247H106.657V293.287L107.302 293.467L104.077 299.542H103.027L99.8169 293.467L100.522 293.302V300.247H99.2469ZM110.263 300.247V292.807H116.983V300.247H115.588V293.062L116.578 293.977H110.548L111.658 293.062V300.247H110.263ZM125.616 300.247H124.311V298.777L124.266 298.417V295.642C124.266 295.052 124.076 294.587 123.696 294.247C123.316 293.897 122.801 293.722 122.151 293.722C121.681 293.722 121.251 293.822 120.861 294.022C120.471 294.212 120.131 294.477 119.841 294.817L118.971 293.917C119.381 293.487 119.851 293.157 120.381 292.927C120.921 292.687 121.521 292.567 122.181 292.567C122.861 292.567 123.456 292.692 123.966 292.942C124.486 293.192 124.891 293.542 125.181 293.992C125.471 294.432 125.616 294.967 125.616 295.597V300.247ZM121.566 300.487C121.006 300.487 120.511 300.387 120.081 300.187C119.651 299.977 119.316 299.692 119.076 299.332C118.836 298.972 118.716 298.562 118.716 298.102C118.716 297.582 118.861 297.142 119.151 296.782C119.451 296.412 119.861 296.132 120.381 295.942C120.901 295.742 121.496 295.642 122.166 295.642H124.431V296.677H122.316C121.686 296.677 121.166 296.792 120.756 297.022C120.356 297.242 120.156 297.587 120.156 298.057C120.156 298.457 120.306 298.777 120.606 299.017C120.916 299.257 121.316 299.377 121.806 299.377C122.286 299.377 122.721 299.282 123.111 299.092C123.501 298.902 123.811 298.637 124.041 298.297C124.281 297.947 124.416 297.547 124.446 297.097L124.941 297.367C124.941 297.967 124.796 298.502 124.506 298.972C124.216 299.442 123.816 299.812 123.306 300.082C122.806 300.352 122.226 300.487 121.566 300.487ZM133.231 300.247V292.807H134.626V300.247H133.231ZM127.636 300.247V292.807H129.031V300.247H127.636ZM128.311 296.917V295.762H134.011V296.917H128.311ZM136.908 300.247V292.807H138.273V298.417L138.168 298.387L142.623 292.807H143.838V300.247H142.473V294.637L142.593 294.682L138.123 300.247H136.908ZM150.922 300.247V293.017L151.807 293.932H148.852C148.462 293.932 148.122 294.027 147.832 294.217C147.542 294.397 147.397 294.697 147.397 295.117C147.397 295.497 147.527 295.792 147.787 296.002C148.047 296.212 148.407 296.317 148.867 296.317H151.582V297.397H148.777C147.937 297.397 147.262 297.192 146.752 296.782C146.242 296.362 145.987 295.807 145.987 295.117C145.987 294.677 146.107 294.287 146.347 293.947C146.597 293.597 146.932 293.322 147.352 293.122C147.782 292.912 148.262 292.807 148.792 292.807H152.257V300.247H150.922ZM145.642 300.247L148.297 296.857H149.782L147.262 300.247H145.642Z" fill="black"/>
<path d="M501 193C554.019 193 597 149.796 597 96.5C597 43.2045 554.019 0 501 0C447.981 0 405 43.2045 405 96.5C405 149.796 447.981 193 501 193Z" fill="white"/>
<path d="M451.611 83.24C450.801 83.24 450.056 83.1 449.376 82.82C448.696 82.54 448.101 82.15 447.591 81.65C447.081 81.14 446.686 80.545 446.406 79.865C446.126 79.175 445.986 78.43 445.986 77.63C445.986 76.83 446.126 76.09 446.406 75.41C446.686 74.73 447.081 74.14 447.591 73.64C448.101 73.13 448.696 72.735 449.376 72.455C450.056 72.175 450.801 72.035 451.611 72.035C452.421 72.035 453.166 72.175 453.846 72.455C454.526 72.735 455.121 73.13 455.631 73.64C456.141 74.14 456.536 74.73 456.816 75.41C457.096 76.09 457.236 76.83 457.236 77.63C457.236 78.43 457.096 79.175 456.816 79.865C456.536 80.545 456.141 81.14 455.631 81.65C455.121 82.15 454.526 82.54 453.846 82.82C453.166 83.1 452.421 83.24 451.611 83.24ZM451.611 81.95C452.421 81.95 453.136 81.765 453.756 81.395C454.376 81.025 454.856 80.515 455.196 79.865C455.546 79.205 455.721 78.46 455.721 77.63C455.721 76.8 455.546 76.06 455.196 75.41C454.856 74.76 454.376 74.25 453.756 73.88C453.136 73.51 452.421 73.325 451.611 73.325C450.811 73.325 450.096 73.51 449.466 73.88C448.846 74.25 448.361 74.76 448.011 75.41C447.671 76.06 447.501 76.8 447.501 77.63C447.501 78.46 447.671 79.205 448.011 79.865C448.361 80.515 448.846 81.025 449.466 81.395C450.096 81.765 450.811 81.95 451.611 81.95ZM464.773 83V75.56H466.168V83H464.773ZM459.178 83V75.56H460.573V83H459.178ZM459.853 79.67V78.515H465.553V79.67H459.853ZM467.596 83V81.83H468.166C468.446 81.83 468.651 81.76 468.781 81.62C468.921 81.48 469.006 81.235 469.036 80.885L469.501 75.56H474.976V83H473.581V75.815L474.571 76.73H469.771L470.851 75.815L470.341 81.125C470.281 81.825 470.096 82.315 469.786 82.595C469.476 82.865 469.011 83 468.391 83H467.596ZM483.599 83H482.294V81.53L482.249 81.17V78.395C482.249 77.805 482.059 77.34 481.679 77C481.299 76.65 480.784 76.475 480.134 76.475C479.664 76.475 479.234 76.575 478.844 76.775C478.454 76.965 478.114 77.23 477.824 77.57L476.954 76.67C477.364 76.24 477.834 75.91 478.364 75.68C478.904 75.44 479.504 75.32 480.164 75.32C480.844 75.32 481.439 75.445 481.949 75.695C482.469 75.945 482.874 76.295 483.164 76.745C483.454 77.185 483.599 77.72 483.599 78.35V83ZM479.549 83.24C478.989 83.24 478.494 83.14 478.064 82.94C477.634 82.73 477.299 82.445 477.059 82.085C476.819 81.725 476.699 81.315 476.699 80.855C476.699 80.335 476.844 79.895 477.134 79.535C477.434 79.165 477.844 78.885 478.364 78.695C478.884 78.495 479.479 78.395 480.149 78.395H482.414V79.43H480.299C479.669 79.43 479.149 79.545 478.739 79.775C478.339 79.995 478.139 80.34 478.139 80.81C478.139 81.21 478.289 81.53 478.589 81.77C478.899 82.01 479.299 82.13 479.789 82.13C480.269 82.13 480.704 82.035 481.094 81.845C481.484 81.655 481.794 81.39 482.024 81.05C482.264 80.7 482.399 80.3 482.429 79.85L482.924 80.12C482.924 80.72 482.779 81.255 482.489 81.725C482.199 82.195 481.799 82.565 481.289 82.835C480.789 83.105 480.209 83.24 479.549 83.24ZM485.619 83V75.56H486.984V81.17L486.879 81.14L491.334 75.56H492.549V83H491.184V77.39L491.304 77.435L486.834 83H485.619ZM489.174 74.225C488.484 74.225 487.909 74.05 487.449 73.7C486.989 73.34 486.719 72.835 486.639 72.185H487.824C487.884 72.605 488.029 72.91 488.259 73.1C488.499 73.29 488.804 73.385 489.174 73.385C489.544 73.385 489.844 73.29 490.074 73.1C490.314 72.91 490.464 72.605 490.524 72.185H491.709C491.629 72.835 491.359 73.34 490.899 73.7C490.439 74.05 489.864 74.225 489.174 74.225ZM500.442 83V75.56H501.837V83H500.442ZM494.847 83V75.56H496.242V83H494.847ZM495.522 79.67V78.515H501.222V79.67H495.522ZM507.524 79.34H503.444V78.125H507.524V79.34ZM509.144 83V75.56H510.524V82.685L510.164 81.845H514.049L513.659 82.685V75.56H515.039V82.685L514.754 81.845H518.669L518.174 82.685V75.56H519.554V83H509.144ZM526.899 83L522.834 79.145H522.984L526.659 75.56H528.444L524.454 79.445L524.169 78.665L528.804 83H526.899ZM521.844 83V75.56H523.239V83H521.844ZM533.06 83.24C532.28 83.24 531.59 83.07 530.99 82.73C530.39 82.39 529.92 81.925 529.58 81.335C529.24 80.735 529.07 80.05 529.07 79.28C529.07 78.51 529.24 77.83 529.58 77.24C529.92 76.65 530.39 76.185 530.99 75.845C531.59 75.495 532.28 75.32 533.06 75.32C533.84 75.32 534.525 75.495 535.115 75.845C535.715 76.185 536.185 76.65 536.525 77.24C536.875 77.83 537.05 78.51 537.05 79.28C537.05 80.05 536.875 80.735 536.525 81.335C536.185 81.925 535.715 82.39 535.115 82.73C534.525 83.07 533.84 83.24 533.06 83.24ZM533.06 82.04C533.56 82.04 534 81.925 534.38 81.695C534.76 81.465 535.055 81.14 535.265 80.72C535.475 80.3 535.58 79.82 535.58 79.28C535.58 78.74 535.475 78.265 535.265 77.855C535.055 77.435 534.76 77.11 534.38 76.88C534 76.64 533.56 76.52 533.06 76.52C532.56 76.52 532.115 76.64 531.725 76.88C531.345 77.11 531.05 77.435 530.84 77.855C530.63 78.265 530.525 78.74 530.525 79.28C530.525 79.82 530.63 80.3 530.84 80.72C531.05 81.14 531.345 81.465 531.725 81.695C532.115 81.925 532.56 82.04 533.06 82.04ZM537.996 83V81.83H538.566C538.846 81.83 539.051 81.76 539.181 81.62C539.321 81.48 539.406 81.235 539.436 80.885L539.901 75.56H545.376V83H543.981V75.815L544.971 76.73H540.171L541.251 75.815L540.741 81.125C540.681 81.825 540.496 82.315 540.186 82.595C539.876 82.865 539.411 83 538.791 83H537.996ZM554 83H552.695V81.53L552.65 81.17V78.395C552.65 77.805 552.46 77.34 552.08 77C551.7 76.65 551.185 76.475 550.535 76.475C550.065 76.475 549.635 76.575 549.245 76.775C548.855 76.965 548.515 77.23 548.225 77.57L547.355 76.67C547.765 76.24 548.235 75.91 548.765 75.68C549.305 75.44 549.905 75.32 550.565 75.32C551.245 75.32 551.84 75.445 552.35 75.695C552.87 75.945 553.275 76.295 553.565 76.745C553.855 77.185 554 77.72 554 78.35V83ZM549.95 83.24C549.39 83.24 548.895 83.14 548.465 82.94C548.035 82.73 547.7 82.445 547.46 82.085C547.22 81.725 547.1 81.315 547.1 80.855C547.1 80.335 547.245 79.895 547.535 79.535C547.835 79.165 548.245 78.885 548.765 78.695C549.285 78.495 549.88 78.395 550.55 78.395H552.815V79.43H550.7C550.07 79.43 549.55 79.545 549.14 79.775C548.74 79.995 548.54 80.34 548.54 80.81C548.54 81.21 548.69 81.53 548.99 81.77C549.3 82.01 549.7 82.13 550.19 82.13C550.67 82.13 551.105 82.035 551.495 81.845C551.885 81.655 552.195 81.39 552.425 81.05C552.665 80.7 552.8 80.3 552.83 79.85L553.325 80.12C553.325 80.72 553.18 81.255 552.89 81.725C552.6 82.195 552.2 82.565 551.69 82.835C551.19 83.105 550.61 83.24 549.95 83.24ZM445.606 102V94.56H450.886V95.73H445.876L447.001 94.845V102H445.606ZM455.694 102.24C454.914 102.24 454.224 102.07 453.624 101.73C453.024 101.39 452.554 100.925 452.214 100.335C451.874 99.735 451.704 99.05 451.704 98.28C451.704 97.51 451.874 96.83 452.214 96.24C452.554 95.65 453.024 95.185 453.624 94.845C454.224 94.495 454.914 94.32 455.694 94.32C456.474 94.32 457.159 94.495 457.749 94.845C458.349 95.185 458.819 95.65 459.159 96.24C459.509 96.83 459.684 97.51 459.684 98.28C459.684 99.05 459.509 99.735 459.159 100.335C458.819 100.925 458.349 101.39 457.749 101.73C457.159 102.07 456.474 102.24 455.694 102.24ZM455.694 101.04C456.194 101.04 456.634 100.925 457.014 100.695C457.394 100.465 457.689 100.14 457.899 99.72C458.109 99.3 458.214 98.82 458.214 98.28C458.214 97.74 458.109 97.265 457.899 96.855C457.689 96.435 457.394 96.11 457.014 95.88C456.634 95.64 456.194 95.52 455.694 95.52C455.194 95.52 454.749 95.64 454.359 95.88C453.979 96.11 453.684 96.435 453.474 96.855C453.264 97.265 453.159 97.74 453.159 98.28C453.159 98.82 453.264 99.3 453.474 99.72C453.684 100.14 453.979 100.465 454.359 100.695C454.749 100.925 455.194 101.04 455.694 101.04ZM460.624 101.49V100.845H460.894C461.104 100.845 461.264 100.8 461.374 100.71C461.494 100.62 461.589 100.47 461.659 100.26C461.729 100.04 461.784 99.735 461.824 99.345L462.364 94.56H467.719V101.31H466.339V94.815L467.314 95.73H462.589L463.699 94.815L463.129 99.45C463.069 99.96 462.969 100.365 462.829 100.665C462.699 100.955 462.504 101.165 462.244 101.295C461.984 101.425 461.629 101.49 461.179 101.49H460.624ZM460.294 103.965V100.845H468.829V103.965H467.509V101.115L468.379 102H461.089L461.614 101.115V103.965H460.294ZM476.736 102H475.431V100.53L475.386 100.17V97.395C475.386 96.805 475.196 96.34 474.816 96C474.436 95.65 473.921 95.475 473.271 95.475C472.801 95.475 472.371 95.575 471.981 95.775C471.591 95.965 471.251 96.23 470.961 96.57L470.091 95.67C470.501 95.24 470.971 94.91 471.501 94.68C472.041 94.44 472.641 94.32 473.301 94.32C473.981 94.32 474.576 94.445 475.086 94.695C475.606 94.945 476.011 95.295 476.301 95.745C476.591 96.185 476.736 96.72 476.736 97.35V102ZM472.686 102.24C472.126 102.24 471.631 102.14 471.201 101.94C470.771 101.73 470.436 101.445 470.196 101.085C469.956 100.725 469.836 100.315 469.836 99.855C469.836 99.335 469.981 98.895 470.271 98.535C470.571 98.165 470.981 97.885 471.501 97.695C472.021 97.495 472.616 97.395 473.286 97.395H475.551V98.43H473.436C472.806 98.43 472.286 98.545 471.876 98.775C471.476 98.995 471.276 99.34 471.276 99.81C471.276 100.21 471.426 100.53 471.726 100.77C472.036 101.01 472.436 101.13 472.926 101.13C473.406 101.13 473.841 101.035 474.231 100.845C474.621 100.655 474.931 100.39 475.161 100.05C475.401 99.7 475.536 99.3 475.566 98.85L476.061 99.12C476.061 99.72 475.916 100.255 475.626 100.725C475.336 101.195 474.936 101.565 474.426 101.835C473.926 102.105 473.346 102.24 472.686 102.24ZM481.685 102V94.56H488.405V102H487.01V94.815L488 95.73H481.97L483.08 94.815V102H481.685ZM494.219 102.24C493.439 102.24 492.749 102.07 492.149 101.73C491.549 101.39 491.079 100.925 490.739 100.335C490.399 99.735 490.229 99.05 490.229 98.28C490.229 97.51 490.399 96.83 490.739 96.24C491.079 95.65 491.549 95.185 492.149 94.845C492.749 94.495 493.439 94.32 494.219 94.32C494.999 94.32 495.684 94.495 496.274 94.845C496.874 95.185 497.344 95.65 497.684 96.24C498.034 96.83 498.209 97.51 498.209 98.28C498.209 99.05 498.034 99.735 497.684 100.335C497.344 100.925 496.874 101.39 496.274 101.73C495.684 102.07 494.999 102.24 494.219 102.24ZM494.219 101.04C494.719 101.04 495.159 100.925 495.539 100.695C495.919 100.465 496.214 100.14 496.424 99.72C496.634 99.3 496.739 98.82 496.739 98.28C496.739 97.74 496.634 97.265 496.424 96.855C496.214 96.435 495.919 96.11 495.539 95.88C495.159 95.64 494.719 95.52 494.219 95.52C493.719 95.52 493.274 95.64 492.884 95.88C492.504 96.11 492.209 96.435 491.999 96.855C491.789 97.265 491.684 97.74 491.684 98.28C491.684 98.82 491.789 99.3 491.999 99.72C492.209 100.14 492.504 100.465 492.884 100.695C493.274 100.925 493.719 101.04 494.219 101.04ZM502.94 102V94.56H506.735C507.515 94.56 508.13 94.74 508.58 95.1C509.04 95.46 509.27 95.94 509.27 96.54C509.27 96.92 509.155 97.25 508.925 97.53C508.705 97.81 508.405 98.025 508.025 98.175L508.01 98.04C508.48 98.17 508.865 98.39 509.165 98.7C509.465 99.01 509.615 99.39 509.615 99.84C509.615 100.26 509.49 100.635 509.24 100.965C508.99 101.295 508.655 101.55 508.235 101.73C507.815 101.91 507.345 102 506.825 102H502.94ZM504.275 101.67L503.495 100.905H506.72C507.18 100.905 507.54 100.81 507.8 100.62C508.06 100.42 508.19 100.14 508.19 99.78C508.19 99.43 508.06 99.16 507.8 98.97C507.54 98.77 507.18 98.67 506.72 98.67H503.66V97.62H506.645C507.085 97.62 507.395 97.53 507.575 97.35C507.755 97.17 507.845 96.92 507.845 96.6C507.845 96.29 507.75 96.06 507.56 95.91C507.38 95.75 507.075 95.67 506.645 95.67H503.48L504.275 94.875V101.67ZM517.397 99.81L518.267 100.71C517.877 101.19 517.397 101.565 516.827 101.835C516.267 102.105 515.632 102.24 514.922 102.24C514.112 102.24 513.392 102.07 512.762 101.73C512.132 101.39 511.637 100.925 511.277 100.335C510.927 99.735 510.752 99.05 510.752 98.28C510.752 97.51 510.922 96.83 511.262 96.24C511.602 95.64 512.072 95.17 512.672 94.83C513.272 94.49 513.947 94.32 514.697 94.32C515.427 94.32 516.072 94.49 516.632 94.83C517.202 95.16 517.647 95.62 517.967 96.21C518.297 96.79 518.462 97.465 518.462 98.235V98.325H517.052V98.19C517.052 97.65 516.952 97.18 516.752 96.78C516.552 96.37 516.272 96.055 515.912 95.835C515.562 95.605 515.157 95.49 514.697 95.49C514.207 95.49 513.772 95.605 513.392 95.835C513.012 96.065 512.717 96.39 512.507 96.81C512.297 97.22 512.192 97.705 512.192 98.265C512.192 98.825 512.307 99.32 512.537 99.75C512.777 100.17 513.107 100.495 513.527 100.725C513.947 100.955 514.427 101.07 514.967 101.07C515.957 101.07 516.767 100.65 517.397 99.81ZM518.462 98.745H511.787V97.71H518.222L518.462 98.235V98.745ZM521.664 104.91H520.269V94.56H521.649V96.84H521.334C521.414 96.35 521.599 95.915 521.889 95.535C522.189 95.155 522.559 94.86 522.999 94.65C523.449 94.43 523.939 94.32 524.469 94.32C525.189 94.32 525.829 94.495 526.389 94.845C526.949 95.185 527.389 95.655 527.709 96.255C528.029 96.845 528.189 97.52 528.189 98.28C528.189 99.05 528.024 99.735 527.694 100.335C527.374 100.925 526.924 101.39 526.344 101.73C525.774 102.07 525.124 102.24 524.394 102.24C523.724 102.24 523.144 102.105 522.654 101.835C522.164 101.555 521.794 101.18 521.544 100.71C521.294 100.23 521.194 99.695 521.244 99.105L521.529 98.82C521.569 99.25 521.709 99.635 521.949 99.975C522.199 100.315 522.514 100.58 522.894 100.77C523.284 100.95 523.704 101.04 524.154 101.04C524.674 101.04 525.124 100.925 525.504 100.695C525.884 100.455 526.184 100.125 526.404 99.705C526.624 99.285 526.734 98.81 526.734 98.28C526.734 97.75 526.629 97.28 526.419 96.87C526.209 96.45 525.919 96.12 525.549 95.88C525.179 95.64 524.744 95.52 524.244 95.52C523.744 95.52 523.299 95.645 522.909 95.895C522.529 96.135 522.224 96.475 521.994 96.915C521.774 97.355 521.664 97.865 521.664 98.445V104.91ZM535.681 99.885L536.626 100.785C536.266 101.235 535.821 101.59 535.291 101.85C534.761 102.11 534.161 102.24 533.491 102.24C532.731 102.24 532.051 102.07 531.451 101.73C530.861 101.39 530.396 100.925 530.056 100.335C529.716 99.735 529.546 99.05 529.546 98.28C529.546 97.52 529.716 96.845 530.056 96.255C530.396 95.655 530.866 95.185 531.466 94.845C532.076 94.495 532.761 94.32 533.521 94.32C534.181 94.32 534.771 94.45 535.291 94.71C535.821 94.97 536.266 95.325 536.626 95.775L535.681 96.675C535.451 96.325 535.161 96.045 534.811 95.835C534.461 95.625 534.041 95.52 533.551 95.52C533.051 95.52 532.606 95.64 532.216 95.88C531.836 96.11 531.536 96.435 531.316 96.855C531.106 97.265 531.001 97.74 531.001 98.28C531.001 98.82 531.106 99.3 531.316 99.72C531.536 100.13 531.836 100.455 532.216 100.695C532.606 100.925 533.051 101.04 533.551 101.04C534.051 101.04 534.471 100.935 534.811 100.725C535.161 100.515 535.451 100.235 535.681 99.885ZM538.287 102V94.56H539.652V100.17L539.547 100.14L544.002 94.56H545.217V102H543.852V96.39L543.972 96.435L539.502 102H538.287ZM547.515 102V94.56H548.88V100.17L548.775 100.14L553.23 94.56H554.445V102H553.08V96.39L553.2 96.435L548.73 102H547.515ZM457.055 120.49L454.895 117.28L457.055 114.07H458.615L456.425 117.28L458.615 120.49H457.055ZM460.025 120.49L457.865 117.28L460.025 114.07H461.585L459.395 117.28L461.585 120.49H460.025ZM473.438 121H472.073V119.455L472.253 119.515C471.893 120.055 471.393 120.48 470.753 120.79C470.123 121.09 469.418 121.24 468.638 121.24C467.848 121.24 467.113 121.105 466.433 120.835C465.763 120.555 465.173 120.165 464.663 119.665C464.163 119.155 463.773 118.56 463.493 117.88C463.223 117.19 463.088 116.44 463.088 115.63C463.088 114.83 463.228 114.09 463.508 113.41C463.788 112.73 464.178 112.14 464.678 111.64C465.188 111.13 465.783 110.735 466.463 110.455C467.143 110.175 467.883 110.035 468.683 110.035C469.613 110.035 470.453 110.22 471.203 110.59C471.953 110.95 472.573 111.44 473.063 112.06L472.058 113.035C471.688 112.515 471.218 112.1 470.648 111.79C470.088 111.48 469.433 111.325 468.683 111.325C467.903 111.325 467.203 111.515 466.583 111.895C465.963 112.265 465.478 112.775 465.128 113.425C464.778 114.065 464.603 114.8 464.603 115.63C464.603 116.46 464.778 117.205 465.128 117.865C465.478 118.515 465.963 119.03 466.583 119.41C467.213 119.78 467.933 119.965 468.743 119.965C469.543 119.965 470.248 119.79 470.858 119.44C471.478 119.09 471.923 118.615 472.193 118.015L472.058 118.585V116.545H468.608V115.33H473.438V121ZM481.625 118.81L482.495 119.71C482.105 120.19 481.625 120.565 481.055 120.835C480.495 121.105 479.86 121.24 479.15 121.24C478.34 121.24 477.62 121.07 476.99 120.73C476.36 120.39 475.865 119.925 475.505 119.335C475.155 118.735 474.98 118.05 474.98 117.28C474.98 116.51 475.15 115.83 475.49 115.24C475.83 114.64 476.3 114.17 476.9 113.83C477.5 113.49 478.175 113.32 478.925 113.32C479.655 113.32 480.3 113.49 480.86 113.83C481.43 114.16 481.875 114.62 482.195 115.21C482.525 115.79 482.69 116.465 482.69 117.235V117.325H481.28V117.19C481.28 116.65 481.18 116.18 480.98 115.78C480.78 115.37 480.5 115.055 480.14 114.835C479.79 114.605 479.385 114.49 478.925 114.49C478.435 114.49 478 114.605 477.62 114.835C477.24 115.065 476.945 115.39 476.735 115.81C476.525 116.22 476.42 116.705 476.42 117.265C476.42 117.825 476.535 118.32 476.765 118.75C477.005 119.17 477.335 119.495 477.755 119.725C478.175 119.955 478.655 120.07 479.195 120.07C480.185 120.07 480.995 119.65 481.625 118.81ZM482.69 117.745H476.015V116.71H482.45L482.69 117.235V117.745ZM488.555 121H486.77C486.19 121 485.745 120.85 485.435 120.55C485.135 120.24 484.985 119.8 484.985 119.23V111.46H486.38V119.05C486.38 119.3 486.445 119.495 486.575 119.635C486.705 119.765 486.895 119.83 487.145 119.83H488.555V121ZM488.45 114.73H483.53V113.56H488.45V114.73ZM498.655 118.24L499.66 119.215C499.19 119.835 498.58 120.33 497.83 120.7C497.08 121.06 496.255 121.24 495.355 121.24C494.565 121.24 493.835 121.1 493.165 120.82C492.505 120.54 491.93 120.15 491.44 119.65C490.95 119.14 490.565 118.545 490.285 117.865C490.015 117.185 489.88 116.445 489.88 115.645C489.88 114.845 490.02 114.105 490.3 113.425C490.58 112.735 490.965 112.14 491.455 111.64C491.955 111.13 492.54 110.735 493.21 110.455C493.88 110.175 494.61 110.035 495.4 110.035C496.29 110.035 497.105 110.22 497.845 110.59C498.585 110.95 499.19 111.44 499.66 112.06L498.655 113.035C498.295 112.515 497.84 112.1 497.29 111.79C496.74 111.48 496.11 111.325 495.4 111.325C494.64 111.325 493.955 111.515 493.345 111.895C492.745 112.265 492.27 112.775 491.92 113.425C491.57 114.065 491.395 114.805 491.395 115.645C491.395 116.465 491.57 117.2 491.92 117.85C492.27 118.5 492.745 119.015 493.345 119.395C493.955 119.765 494.64 119.95 495.4 119.95C496.11 119.95 496.74 119.795 497.29 119.485C497.84 119.175 498.295 118.76 498.655 118.24ZM504.839 121.24C504.059 121.24 503.369 121.07 502.769 120.73C502.169 120.39 501.699 119.925 501.359 119.335C501.019 118.735 500.849 118.05 500.849 117.28C500.849 116.51 501.019 115.83 501.359 115.24C501.699 114.65 502.169 114.185 502.769 113.845C503.369 113.495 504.059 113.32 504.839 113.32C505.619 113.32 506.304 113.495 506.894 113.845C507.494 114.185 507.964 114.65 508.304 115.24C508.654 115.83 508.829 116.51 508.829 117.28C508.829 118.05 508.654 118.735 508.304 119.335C507.964 119.925 507.494 120.39 506.894 120.73C506.304 121.07 505.619 121.24 504.839 121.24ZM504.839 120.04C505.339 120.04 505.779 119.925 506.159 119.695C506.539 119.465 506.834 119.14 507.044 118.72C507.254 118.3 507.359 117.82 507.359 117.28C507.359 116.74 507.254 116.265 507.044 115.855C506.834 115.435 506.539 115.11 506.159 114.88C505.779 114.64 505.339 114.52 504.839 114.52C504.339 114.52 503.894 114.64 503.504 114.88C503.124 115.11 502.829 115.435 502.619 115.855C502.409 116.265 502.304 116.74 502.304 117.28C502.304 117.82 502.409 118.3 502.619 118.72C502.829 119.14 503.124 119.465 503.504 119.695C503.894 119.925 504.339 120.04 504.839 120.04ZM517.306 121H515.926V119.56L515.911 119.14V113.56H517.306V121ZM516.046 117.82L516.331 118.12C516.371 118.73 516.261 119.27 516.001 119.74C515.751 120.2 515.391 120.565 514.921 120.835C514.461 121.105 513.926 121.24 513.316 121.24C512.426 121.24 511.716 120.975 511.186 120.445C510.656 119.915 510.391 119.15 510.391 118.15V113.56H511.786V118C511.786 118.67 511.946 119.18 512.266 119.53C512.596 119.87 513.051 120.04 513.631 120.04C514.041 120.04 514.421 119.95 514.771 119.77C515.121 119.58 515.411 119.32 515.641 118.99C515.871 118.65 516.006 118.26 516.046 117.82ZM523.484 113.44V114.76H523.154C522.704 114.76 522.289 114.87 521.909 115.09C521.539 115.3 521.239 115.635 521.009 116.095C520.789 116.545 520.679 117.135 520.679 117.865V121H519.284V113.56H520.664V115.945H520.454C520.564 115.315 520.764 114.82 521.054 114.46C521.354 114.1 521.699 113.84 522.089 113.68C522.479 113.52 522.879 113.44 523.289 113.44H523.484ZM524.251 119.86L525.136 118.96C525.486 119.32 525.886 119.605 526.336 119.815C526.786 120.015 527.276 120.115 527.806 120.115C528.366 120.115 528.821 120.005 529.171 119.785C529.521 119.555 529.696 119.265 529.696 118.915C529.696 118.595 529.546 118.35 529.246 118.18C528.946 118 528.426 117.86 527.686 117.76C526.576 117.6 525.781 117.355 525.301 117.025C524.831 116.685 524.596 116.225 524.596 115.645C524.596 115.185 524.731 114.78 525.001 114.43C525.271 114.08 525.641 113.81 526.111 113.62C526.581 113.42 527.121 113.32 527.731 113.32C528.411 113.32 529.021 113.44 529.561 113.68C530.101 113.92 530.571 114.255 530.971 114.685L530.101 115.585C529.801 115.235 529.451 114.96 529.051 114.76C528.661 114.55 528.221 114.445 527.731 114.445C527.221 114.445 526.801 114.55 526.471 114.76C526.151 114.97 525.991 115.24 525.991 115.57C525.991 115.83 526.131 116.035 526.411 116.185C526.701 116.325 527.196 116.445 527.896 116.545C529.026 116.705 529.836 116.965 530.326 117.325C530.826 117.685 531.076 118.19 531.076 118.84C531.076 119.31 530.936 119.73 530.656 120.1C530.376 120.46 529.986 120.74 529.486 120.94C528.996 121.14 528.426 121.24 527.776 121.24C527.046 121.24 526.386 121.12 525.796 120.88C525.216 120.63 524.701 120.29 524.251 119.86ZM538.974 118.81L539.844 119.71C539.454 120.19 538.974 120.565 538.404 120.835C537.844 121.105 537.209 121.24 536.499 121.24C535.689 121.24 534.969 121.07 534.339 120.73C533.709 120.39 533.214 119.925 532.854 119.335C532.504 118.735 532.329 118.05 532.329 117.28C532.329 116.51 532.499 115.83 532.839 115.24C533.179 114.64 533.649 114.17 534.249 113.83C534.849 113.49 535.524 113.32 536.274 113.32C537.004 113.32 537.649 113.49 538.209 113.83C538.779 114.16 539.224 114.62 539.544 115.21C539.874 115.79 540.039 116.465 540.039 117.235V117.325H538.629V117.19C538.629 116.65 538.529 116.18 538.329 115.78C538.129 115.37 537.849 115.055 537.489 114.835C537.139 114.605 536.734 114.49 536.274 114.49C535.784 114.49 535.349 114.605 534.969 114.835C534.589 115.065 534.294 115.39 534.084 115.81C533.874 116.22 533.769 116.705 533.769 117.265C533.769 117.825 533.884 118.32 534.114 118.75C534.354 119.17 534.684 119.495 535.104 119.725C535.524 119.955 536.004 120.07 536.544 120.07C537.534 120.07 538.344 119.65 538.974 118.81ZM540.039 117.745H533.364V116.71H539.799L540.039 117.235V117.745ZM542.972 114.07L545.147 117.28L542.972 120.49H541.427L543.617 117.28L541.427 114.07H542.972ZM545.942 114.07L548.117 117.28L545.942 120.49H544.397L546.587 117.28L544.397 114.07H545.942Z" fill="black"/>
<path d="M283.069 269.778C338.888 269.778 384.138 224.385 384.138 168.389C384.138 112.393 338.888 67 283.069 67C227.25 67 182 112.393 182 168.389C182 224.385 227.25 269.778 283.069 269.778Z" fill="white"/>
<path d="M201.526 145.166V134.441H202.966V144.866L202.156 143.906H208.411L207.841 144.866V134.441H209.281V144.866L208.711 143.906H214.966L214.156 144.866V134.441H215.596V145.166H201.526ZM223.172 145.166L219.107 141.311H219.257L222.932 137.726H224.717L220.727 141.611L220.442 140.831L225.077 145.166H223.172ZM218.117 145.166V137.726H219.512V145.166H218.117ZM229.332 145.406C228.552 145.406 227.862 145.236 227.262 144.896C226.662 144.556 226.192 144.091 225.852 143.501C225.512 142.901 225.342 142.216 225.342 141.446C225.342 140.676 225.512 139.996 225.852 139.406C226.192 138.816 226.662 138.351 227.262 138.011C227.862 137.661 228.552 137.486 229.332 137.486C230.112 137.486 230.797 137.661 231.387 138.011C231.987 138.351 232.457 138.816 232.797 139.406C233.147 139.996 233.322 140.676 233.322 141.446C233.322 142.216 233.147 142.901 232.797 143.501C232.457 144.091 231.987 144.556 231.387 144.896C230.797 145.236 230.112 145.406 229.332 145.406ZM229.332 144.206C229.832 144.206 230.272 144.091 230.652 143.861C231.032 143.631 231.327 143.306 231.537 142.886C231.747 142.466 231.852 141.986 231.852 141.446C231.852 140.906 231.747 140.431 231.537 140.021C231.327 139.601 231.032 139.276 230.652 139.046C230.272 138.806 229.832 138.686 229.332 138.686C228.832 138.686 228.387 138.806 227.997 139.046C227.617 139.276 227.322 139.601 227.112 140.021C226.902 140.431 226.797 140.906 226.797 141.446C226.797 141.986 226.902 142.466 227.112 142.886C227.322 143.306 227.617 143.631 227.997 143.861C228.387 144.091 228.832 144.206 229.332 144.206ZM234.268 145.166V143.996H234.838C235.118 143.996 235.323 143.926 235.453 143.786C235.593 143.646 235.678 143.401 235.708 143.051L236.173 137.726H241.648V145.166H240.253V137.981L241.243 138.896H236.443L237.523 137.981L237.013 143.291C236.953 143.991 236.768 144.481 236.458 144.761C236.148 145.031 235.683 145.166 235.063 145.166H234.268ZM250.272 145.166H248.967V143.696L248.922 143.336V140.561C248.922 139.971 248.732 139.506 248.352 139.166C247.972 138.816 247.457 138.641 246.807 138.641C246.337 138.641 245.907 138.741 245.517 138.941C245.127 139.131 244.787 139.396 244.497 139.736L243.627 138.836C244.037 138.406 244.507 138.076 245.037 137.846C245.577 137.606 246.177 137.486 246.837 137.486C247.517 137.486 248.112 137.611 248.622 137.861C249.142 138.111 249.547 138.461 249.837 138.911C250.127 139.351 250.272 139.886 250.272 140.516V145.166ZM246.222 145.406C245.662 145.406 245.167 145.306 244.737 145.106C244.307 144.896 243.972 144.611 243.732 144.251C243.492 143.891 243.372 143.481 243.372 143.021C243.372 142.501 243.517 142.061 243.807 141.701C244.107 141.331 244.517 141.051 245.037 140.861C245.557 140.661 246.152 140.561 246.822 140.561H249.087V141.596H246.972C246.342 141.596 245.822 141.711 245.412 141.941C245.012 142.161 244.812 142.506 244.812 142.976C244.812 143.376 244.962 143.696 245.262 143.936C245.572 144.176 245.972 144.296 246.462 144.296C246.942 144.296 247.377 144.201 247.767 144.011C248.157 143.821 248.467 143.556 248.697 143.216C248.937 142.866 249.072 142.466 249.102 142.016L249.597 142.286C249.597 142.886 249.452 143.421 249.162 143.891C248.872 144.361 248.472 144.731 247.962 145.001C247.462 145.271 246.882 145.406 246.222 145.406ZM255.266 145.166V134.441H256.811L263.081 143.681H262.676V134.441H264.071V145.166H262.526L256.241 135.926H256.661V145.166H255.266ZM266.231 141.836V140.816H271.331V141.836H266.231ZM268.781 140.036C268.221 140.036 267.726 139.916 267.296 139.676C266.866 139.436 266.531 139.106 266.291 138.686C266.051 138.266 265.931 137.781 265.931 137.231C265.931 136.691 266.051 136.211 266.291 135.791C266.531 135.361 266.866 135.031 267.296 134.801C267.726 134.561 268.221 134.441 268.781 134.441C269.331 134.441 269.821 134.561 270.251 134.801C270.681 135.031 271.016 135.361 271.256 135.791C271.506 136.211 271.631 136.691 271.631 137.231C271.631 137.781 271.506 138.266 271.256 138.686C271.016 139.106 270.681 139.436 270.251 139.676C269.821 139.916 269.331 140.036 268.781 140.036ZM268.781 139.001C269.251 139.001 269.631 138.836 269.921 138.506C270.221 138.166 270.371 137.741 270.371 137.231C270.371 136.721 270.221 136.301 269.921 135.971C269.631 135.641 269.251 135.476 268.781 135.476C268.311 135.476 267.926 135.641 267.626 135.971C267.336 136.301 267.191 136.721 267.191 137.231C267.191 137.741 267.336 138.166 267.626 138.506C267.926 138.836 268.311 139.001 268.781 139.001ZM276.338 134.441H277.643V145.166H276.233V135.956L273.503 138.026V136.541L276.338 134.441ZM283.39 145.166V137.726H287.185C287.965 137.726 288.58 137.906 289.03 138.266C289.49 138.626 289.72 139.106 289.72 139.706C289.72 140.086 289.605 140.416 289.375 140.696C289.155 140.976 288.855 141.191 288.475 141.341L288.46 141.206C288.93 141.336 289.315 141.556 289.615 141.866C289.915 142.176 290.065 142.556 290.065 143.006C290.065 143.426 289.94 143.801 289.69 144.131C289.44 144.461 289.105 144.716 288.685 144.896C288.265 145.076 287.795 145.166 287.275 145.166H283.39ZM284.725 144.836L283.945 144.071H287.17C287.63 144.071 287.99 143.976 288.25 143.786C288.51 143.586 288.64 143.306 288.64 142.946C288.64 142.596 288.51 142.326 288.25 142.136C287.99 141.936 287.63 141.836 287.17 141.836H284.11V140.786H287.095C287.535 140.786 287.845 140.696 288.025 140.516C288.205 140.336 288.295 140.086 288.295 139.766C288.295 139.456 288.2 139.226 288.01 139.076C287.83 138.916 287.525 138.836 287.095 138.836H283.93L284.725 138.041V144.836ZM295.991 148.076H294.596V137.726H295.976V140.006H295.661C295.741 139.516 295.926 139.081 296.216 138.701C296.516 138.321 296.886 138.026 297.326 137.816C297.776 137.596 298.266 137.486 298.796 137.486C299.516 137.486 300.156 137.661 300.716 138.011C301.276 138.351 301.716 138.821 302.036 139.421C302.356 140.011 302.516 140.686 302.516 141.446C302.516 142.216 302.351 142.901 302.021 143.501C301.701 144.091 301.251 144.556 300.671 144.896C300.101 145.236 299.451 145.406 298.721 145.406C298.051 145.406 297.471 145.271 296.981 145.001C296.491 144.721 296.121 144.346 295.871 143.876C295.621 143.396 295.521 142.861 295.571 142.271L295.856 141.986C295.896 142.416 296.036 142.801 296.276 143.141C296.526 143.481 296.841 143.746 297.221 143.936C297.611 144.116 298.031 144.206 298.481 144.206C299.001 144.206 299.451 144.091 299.831 143.861C300.211 143.621 300.511 143.291 300.731 142.871C300.951 142.451 301.061 141.976 301.061 141.446C301.061 140.916 300.956 140.446 300.746 140.036C300.536 139.616 300.246 139.286 299.876 139.046C299.506 138.806 299.071 138.686 298.571 138.686C298.071 138.686 297.626 138.811 297.236 139.061C296.856 139.301 296.551 139.641 296.321 140.081C296.101 140.521 295.991 141.031 295.991 141.611V148.076ZM310.517 142.976L311.387 143.876C310.997 144.356 310.517 144.731 309.947 145.001C309.387 145.271 308.752 145.406 308.042 145.406C307.232 145.406 306.512 145.236 305.882 144.896C305.252 144.556 304.757 144.091 304.397 143.501C304.047 142.901 303.872 142.216 303.872 141.446C303.872 140.676 304.042 139.996 304.382 139.406C304.722 138.806 305.192 138.336 305.792 137.996C306.392 137.656 307.067 137.486 307.817 137.486C308.547 137.486 309.192 137.656 309.752 137.996C310.322 138.326 310.767 138.786 311.087 139.376C311.417 139.956 311.582 140.631 311.582 141.401V141.491H310.172V141.356C310.172 140.816 310.072 140.346 309.872 139.946C309.672 139.536 309.392 139.221 309.032 139.001C308.682 138.771 308.277 138.656 307.817 138.656C307.327 138.656 306.892 138.771 306.512 139.001C306.132 139.231 305.837 139.556 305.627 139.976C305.417 140.386 305.312 140.871 305.312 141.431C305.312 141.991 305.427 142.486 305.657 142.916C305.897 143.336 306.227 143.661 306.647 143.891C307.067 144.121 307.547 144.236 308.087 144.236C309.077 144.236 309.887 143.816 310.517 142.976ZM311.582 141.911H304.907V140.876H311.342L311.582 141.401V141.911ZM313.39 145.166V137.726H314.755V143.336L314.65 143.306L319.105 137.726H320.32V145.166H318.955V139.556L319.075 139.601L314.605 145.166H313.39ZM316.945 136.391C316.255 136.391 315.68 136.216 315.22 135.866C314.76 135.506 314.49 135.001 314.41 134.351H315.595C315.655 134.771 315.8 135.076 316.03 135.266C316.27 135.456 316.575 135.551 316.945 135.551C317.315 135.551 317.615 135.456 317.845 135.266C318.085 135.076 318.235 134.771 318.295 134.351H319.48C319.4 135.001 319.13 135.506 318.67 135.866C318.21 136.216 317.635 136.391 316.945 136.391ZM324.524 145.166V138.161H325.919V145.166H324.524ZM321.839 138.896V137.726H328.589V138.896H321.839ZM330.089 145.166V137.726H331.454V143.336L331.349 143.306L335.804 137.726H337.019V145.166H335.654V139.556L335.774 139.601L331.304 145.166H330.089ZM344.913 145.166V137.726H346.308V145.166H344.913ZM339.318 145.166V137.726H340.713V145.166H339.318ZM339.993 141.836V140.681H345.693V141.836H339.993ZM348.59 145.166V137.726H353.87V138.896H348.86L349.985 138.011V145.166H348.59ZM361.333 142.976L362.203 143.876C361.813 144.356 361.333 144.731 360.763 145.001C360.203 145.271 359.568 145.406 358.858 145.406C358.048 145.406 357.328 145.236 356.698 144.896C356.068 144.556 355.573 144.091 355.213 143.501C354.863 142.901 354.688 142.216 354.688 141.446C354.688 140.676 354.858 139.996 355.198 139.406C355.538 138.806 356.008 138.336 356.608 137.996C357.208 137.656 357.883 137.486 358.633 137.486C359.363 137.486 360.008 137.656 360.568 137.996C361.138 138.326 361.583 138.786 361.903 139.376C362.233 139.956 362.398 140.631 362.398 141.401V141.491H360.988V141.356C360.988 140.816 360.888 140.346 360.688 139.946C360.488 139.536 360.208 139.221 359.848 139.001C359.498 138.771 359.093 138.656 358.633 138.656C358.143 138.656 357.708 138.771 357.328 139.001C356.948 139.231 356.653 139.556 356.443 139.976C356.233 140.386 356.128 140.871 356.128 141.431C356.128 141.991 356.243 142.486 356.473 142.916C356.713 143.336 357.043 143.661 357.463 143.891C357.883 144.121 358.363 144.236 358.903 144.236C359.893 144.236 360.703 143.816 361.333 142.976ZM362.398 141.911H355.723V140.876H362.158L362.398 141.401V141.911ZM218.871 164.166V156.726H220.251V163.851L219.891 163.011H223.776L223.386 163.851V156.726H224.766V163.851L224.481 163.011H228.396L227.901 163.851V156.726H229.281V164.166H218.871ZM236.626 164.166L232.561 160.311H232.711L236.386 156.726H238.171L234.181 160.611L233.896 159.831L238.531 164.166H236.626ZM231.571 164.166V156.726H232.966V164.166H231.571ZM242.787 164.406C242.007 164.406 241.317 164.236 240.717 163.896C240.117 163.556 239.647 163.091 239.307 162.501C238.967 161.901 238.797 161.216 238.797 160.446C238.797 159.676 238.967 158.996 239.307 158.406C239.647 157.816 240.117 157.351 240.717 157.011C241.317 156.661 242.007 156.486 242.787 156.486C243.567 156.486 244.252 156.661 244.842 157.011C245.442 157.351 245.912 157.816 246.252 158.406C246.602 158.996 246.777 159.676 246.777 160.446C246.777 161.216 246.602 161.901 246.252 162.501C245.912 163.091 245.442 163.556 244.842 163.896C244.252 164.236 243.567 164.406 242.787 164.406ZM242.787 163.206C243.287 163.206 243.727 163.091 244.107 162.861C244.487 162.631 244.782 162.306 244.992 161.886C245.202 161.466 245.307 160.986 245.307 160.446C245.307 159.906 245.202 159.431 244.992 159.021C244.782 158.601 244.487 158.276 244.107 158.046C243.727 157.806 243.287 157.686 242.787 157.686C242.287 157.686 241.842 157.806 241.452 158.046C241.072 158.276 240.777 158.601 240.567 159.021C240.357 159.431 240.252 159.906 240.252 160.446C240.252 160.986 240.357 161.466 240.567 161.886C240.777 162.306 241.072 162.631 241.452 162.861C241.842 163.091 242.287 163.206 242.787 163.206ZM247.723 164.166V162.996H248.293C248.573 162.996 248.778 162.926 248.908 162.786C249.048 162.646 249.133 162.401 249.163 162.051L249.628 156.726H255.103V164.166H253.708V156.981L254.698 157.896H249.898L250.978 156.981L250.468 162.291C250.408 162.991 250.223 163.481 249.913 163.761C249.603 164.031 249.138 164.166 248.518 164.166H247.723ZM265.906 164.166V156.726H267.301V164.166H265.906ZM260.311 164.166V156.726H261.706V164.166H260.311ZM260.986 160.836V159.681H266.686V160.836H260.986ZM275.929 164.166H274.624V162.696L274.579 162.336V159.561C274.579 158.971 274.389 158.506 274.009 158.166C273.629 157.816 273.114 157.641 272.464 157.641C271.994 157.641 271.564 157.741 271.174 157.941C270.784 158.131 270.444 158.396 270.154 158.736L269.284 157.836C269.694 157.406 270.164 157.076 270.694 156.846C271.234 156.606 271.834 156.486 272.494 156.486C273.174 156.486 273.769 156.611 274.279 156.861C274.799 157.111 275.204 157.461 275.494 157.911C275.784 158.351 275.929 158.886 275.929 159.516V164.166ZM271.879 164.406C271.319 164.406 270.824 164.306 270.394 164.106C269.964 163.896 269.629 163.611 269.389 163.251C269.149 162.891 269.029 162.481 269.029 162.021C269.029 161.501 269.174 161.061 269.464 160.701C269.764 160.331 270.174 160.051 270.694 159.861C271.214 159.661 271.809 159.561 272.479 159.561H274.744V160.596H272.629C271.999 160.596 271.479 160.711 271.069 160.941C270.669 161.161 270.469 161.506 270.469 161.976C270.469 162.376 270.619 162.696 270.919 162.936C271.229 163.176 271.629 163.296 272.119 163.296C272.599 163.296 273.034 163.201 273.424 163.011C273.814 162.821 274.124 162.556 274.354 162.216C274.594 161.866 274.729 161.466 274.759 161.016L275.254 161.286C275.254 161.886 275.109 162.421 274.819 162.891C274.529 163.361 274.129 163.731 273.619 164.001C273.119 164.271 272.539 164.406 271.879 164.406ZM280.878 164.166V156.726H284.673C285.453 156.726 286.068 156.906 286.518 157.266C286.978 157.626 287.208 158.106 287.208 158.706C287.208 159.086 287.093 159.416 286.863 159.696C286.643 159.976 286.343 160.191 285.963 160.341L285.948 160.206C286.418 160.336 286.803 160.556 287.103 160.866C287.403 161.176 287.553 161.556 287.553 162.006C287.553 162.426 287.428 162.801 287.178 163.131C286.928 163.461 286.593 163.716 286.173 163.896C285.753 164.076 285.283 164.166 284.763 164.166H280.878ZM282.213 163.836L281.433 163.071H284.658C285.118 163.071 285.478 162.976 285.738 162.786C285.998 162.586 286.128 162.306 286.128 161.946C286.128 161.596 285.998 161.326 285.738 161.136C285.478 160.936 285.118 160.836 284.658 160.836H281.598V159.786H284.583C285.023 159.786 285.333 159.696 285.513 159.516C285.693 159.336 285.783 159.086 285.783 158.766C285.783 158.456 285.688 158.226 285.498 158.076C285.318 157.916 285.013 157.836 284.583 157.836H281.418L282.213 157.041V163.836ZM294.749 164.166V156.726H296.144V164.166H294.749ZM289.154 164.166V156.726H290.549V164.166H289.154ZM289.829 160.836V159.681H295.529V160.836H289.829ZM304.607 161.976L305.477 162.876C305.087 163.356 304.607 163.731 304.037 164.001C303.477 164.271 302.842 164.406 302.132 164.406C301.322 164.406 300.602 164.236 299.972 163.896C299.342 163.556 298.847 163.091 298.487 162.501C298.137 161.901 297.962 161.216 297.962 160.446C297.962 159.676 298.132 158.996 298.472 158.406C298.812 157.806 299.282 157.336 299.882 156.996C300.482 156.656 301.157 156.486 301.907 156.486C302.637 156.486 303.282 156.656 303.842 156.996C304.412 157.326 304.857 157.786 305.177 158.376C305.507 158.956 305.672 159.631 305.672 160.401V160.491H304.262V160.356C304.262 159.816 304.162 159.346 303.962 158.946C303.762 158.536 303.482 158.221 303.122 158.001C302.772 157.771 302.367 157.656 301.907 157.656C301.417 157.656 300.982 157.771 300.602 158.001C300.222 158.231 299.927 158.556 299.717 158.976C299.507 159.386 299.402 159.871 299.402 160.431C299.402 160.991 299.517 161.486 299.747 161.916C299.987 162.336 300.317 162.661 300.737 162.891C301.157 163.121 301.637 163.236 302.177 163.236C303.167 163.236 303.977 162.816 304.607 161.976ZM305.672 160.911H298.997V159.876H305.432L305.672 160.401V160.911ZM307.479 164.166V156.726H308.859V163.851L308.499 163.011H312.384L311.994 163.851V156.726H313.374V163.851L313.089 163.011H317.004L316.509 163.851V156.726H317.889V164.166H307.479ZM325.775 164.166V156.726H327.17V164.166H325.775ZM320.18 164.166V156.726H321.575V164.166H320.18ZM320.855 160.836V159.681H326.555V160.836H320.855ZM329.452 164.166V156.726H330.817V162.336L330.712 162.306L335.167 156.726H336.382V164.166H335.017V158.556L335.137 158.601L330.667 164.166H329.452ZM339.326 164.166H337.721L340.616 160.311L337.976 156.726H339.566L341.516 159.501L343.451 156.726H345.041L342.401 160.311L345.311 164.166H343.676L341.516 161.166L339.326 164.166ZM199.513 183.166V175.726H206.233V183.166H204.838V175.981L205.828 176.896H199.798L200.908 175.981V183.166H199.513ZM207.667 183.166V181.996H208.237C208.517 181.996 208.722 181.926 208.852 181.786C208.992 181.646 209.077 181.401 209.107 181.051L209.572 175.726H215.047V183.166H213.652V175.981L214.642 176.896H209.842L210.922 175.981L210.412 181.291C210.352 181.991 210.167 182.481 209.857 182.761C209.547 183.031 209.082 183.166 208.462 183.166H207.667ZM223.671 183.166H222.366V181.696L222.321 181.336V178.561C222.321 177.971 222.131 177.506 221.751 177.166C221.371 176.816 220.856 176.641 220.206 176.641C219.736 176.641 219.306 176.741 218.916 176.941C218.526 177.131 218.186 177.396 217.896 177.736L217.026 176.836C217.436 176.406 217.906 176.076 218.436 175.846C218.976 175.606 219.576 175.486 220.236 175.486C220.916 175.486 221.511 175.611 222.021 175.861C222.541 176.111 222.946 176.461 223.236 176.911C223.526 177.351 223.671 177.886 223.671 178.516V183.166ZM219.621 183.406C219.061 183.406 218.566 183.306 218.136 183.106C217.706 182.896 217.371 182.611 217.131 182.251C216.891 181.891 216.771 181.481 216.771 181.021C216.771 180.501 216.916 180.061 217.206 179.701C217.506 179.331 217.916 179.051 218.436 178.861C218.956 178.661 219.551 178.561 220.221 178.561H222.486V179.596H220.371C219.741 179.596 219.221 179.711 218.811 179.941C218.411 180.161 218.211 180.506 218.211 180.976C218.211 181.376 218.361 181.696 218.661 181.936C218.971 182.176 219.371 182.296 219.861 182.296C220.341 182.296 220.776 182.201 221.166 182.011C221.556 181.821 221.866 181.556 222.096 181.216C222.336 180.866 222.471 180.466 222.501 180.016L222.996 180.286C222.996 180.886 222.851 181.421 222.561 181.891C222.271 182.361 221.871 182.731 221.361 183.001C220.861 183.271 220.281 183.406 219.621 183.406ZM227.595 183.166V176.161H228.99V183.166H227.595ZM224.91 176.896V175.726H231.66V176.896H224.91ZM237.338 183.406C236.328 183.406 235.453 183.246 234.713 182.926C233.973 182.606 233.403 182.151 233.003 181.561C232.603 180.961 232.403 180.256 232.403 179.446C232.403 178.636 232.603 177.936 233.003 177.346C233.403 176.756 233.973 176.301 234.713 175.981C235.453 175.651 236.328 175.486 237.338 175.486H237.788C238.808 175.486 239.683 175.651 240.413 175.981C241.153 176.301 241.723 176.756 242.123 177.346C242.523 177.936 242.723 178.636 242.723 179.446C242.723 180.256 242.523 180.961 242.123 181.561C241.723 182.151 241.153 182.606 240.413 182.926C239.683 183.246 238.808 183.406 237.788 183.406H237.338ZM237.338 182.221H237.788C238.958 182.221 239.838 181.991 240.428 181.531C241.018 181.061 241.313 180.366 241.313 179.446C241.313 178.536 241.018 177.851 240.428 177.391C239.838 176.921 238.958 176.686 237.788 176.686H237.338C236.168 176.686 235.288 176.916 234.698 177.376C234.108 177.836 233.813 178.526 233.813 179.446C233.813 180.366 234.108 181.061 234.698 181.531C235.288 181.991 236.168 182.221 237.338 182.221ZM236.873 186.226V182.911L236.903 182.686V176.341L236.873 176.101V172.366H238.268V176.101L238.238 176.341V182.686L238.268 182.911V186.226H236.873ZM248.067 183.406C247.287 183.406 246.597 183.236 245.997 182.896C245.397 182.556 244.927 182.091 244.587 181.501C244.247 180.901 244.077 180.216 244.077 179.446C244.077 178.676 244.247 177.996 244.587 177.406C244.927 176.816 245.397 176.351 245.997 176.011C246.597 175.661 247.287 175.486 248.067 175.486C248.847 175.486 249.532 175.661 250.122 176.011C250.722 176.351 251.192 176.816 251.532 177.406C251.882 177.996 252.057 178.676 252.057 179.446C252.057 180.216 251.882 180.901 251.532 181.501C251.192 182.091 250.722 182.556 250.122 182.896C249.532 183.236 248.847 183.406 248.067 183.406ZM248.067 182.206C248.567 182.206 249.007 182.091 249.387 181.861C249.767 181.631 250.062 181.306 250.272 180.886C250.482 180.466 250.587 179.986 250.587 179.446C250.587 178.906 250.482 178.431 250.272 178.021C250.062 177.601 249.767 177.276 249.387 177.046C249.007 176.806 248.567 176.686 248.067 176.686C247.567 176.686 247.122 176.806 246.732 177.046C246.352 177.276 246.057 177.601 245.847 178.021C245.637 178.431 245.532 178.906 245.532 179.446C245.532 179.986 245.637 180.466 245.847 180.886C246.057 181.306 246.352 181.631 246.732 181.861C247.122 182.091 247.567 182.206 248.067 182.206ZM255.254 186.076H253.859V175.726H255.239V178.006H254.924C255.004 177.516 255.189 177.081 255.479 176.701C255.779 176.321 256.149 176.026 256.589 175.816C257.039 175.596 257.529 175.486 258.059 175.486C258.779 175.486 259.419 175.661 259.979 176.011C260.539 176.351 260.979 176.821 261.299 177.421C261.619 178.011 261.779 178.686 261.779 179.446C261.779 180.216 261.614 180.901 261.284 181.501C260.964 182.091 260.514 182.556 259.934 182.896C259.364 183.236 258.714 183.406 257.984 183.406C257.314 183.406 256.734 183.271 256.244 183.001C255.754 182.721 255.384 182.346 255.134 181.876C254.884 181.396 254.784 180.861 254.834 180.271L255.119 179.986C255.159 180.416 255.299 180.801 255.539 181.141C255.789 181.481 256.104 181.746 256.484 181.936C256.874 182.116 257.294 182.206 257.744 182.206C258.264 182.206 258.714 182.091 259.094 181.861C259.474 181.621 259.774 181.291 259.994 180.871C260.214 180.451 260.324 179.976 260.324 179.446C260.324 178.916 260.219 178.446 260.009 178.036C259.799 177.616 259.509 177.286 259.139 177.046C258.769 176.806 258.334 176.686 257.834 176.686C257.334 176.686 256.889 176.811 256.499 177.061C256.119 177.301 255.814 177.641 255.584 178.081C255.364 178.521 255.254 179.031 255.254 179.611V186.076ZM263.6 183.166V175.726H265.145L268.07 181.216H267.815L270.725 175.726H272.315V183.166H271.01V176.206L271.655 176.386L268.43 182.461H267.38L264.17 176.386L264.875 176.221V183.166H263.6ZM280.961 183.166H279.656V181.696L279.611 181.336V178.561C279.611 177.971 279.421 177.506 279.041 177.166C278.661 176.816 278.146 176.641 277.496 176.641C277.026 176.641 276.596 176.741 276.206 176.941C275.816 177.131 275.476 177.396 275.186 177.736L274.316 176.836C274.726 176.406 275.196 176.076 275.726 175.846C276.266 175.606 276.866 175.486 277.526 175.486C278.206 175.486 278.801 175.611 279.311 175.861C279.831 176.111 280.236 176.461 280.526 176.911C280.816 177.351 280.961 177.886 280.961 178.516V183.166ZM276.911 183.406C276.351 183.406 275.856 183.306 275.426 183.106C274.996 182.896 274.661 182.611 274.421 182.251C274.181 181.891 274.061 181.481 274.061 181.021C274.061 180.501 274.206 180.061 274.496 179.701C274.796 179.331 275.206 179.051 275.726 178.861C276.246 178.661 276.841 178.561 277.511 178.561H279.776V179.596H277.661C277.031 179.596 276.511 179.711 276.101 179.941C275.701 180.161 275.501 180.506 275.501 180.976C275.501 181.376 275.651 181.696 275.951 181.936C276.261 182.176 276.661 182.296 277.151 182.296C277.631 182.296 278.066 182.201 278.456 182.011C278.846 181.821 279.156 181.556 279.386 181.216C279.626 180.866 279.761 180.466 279.791 180.016L280.286 180.286C280.286 180.886 280.141 181.421 279.851 181.891C279.561 182.361 279.161 182.731 278.651 183.001C278.151 183.271 277.571 183.406 276.911 183.406ZM283.625 183.166H282.02L284.915 179.311L282.275 175.726H283.865L285.815 178.501L287.75 175.726H289.34L286.7 179.311L289.61 183.166H287.975L285.815 180.166L283.625 183.166ZM290.919 183.166V175.726H297.639V183.166H296.244V175.981L297.234 176.896H291.204L292.314 175.981V183.166H290.919ZM303.453 183.406C302.673 183.406 301.983 183.236 301.383 182.896C300.783 182.556 300.313 182.091 299.973 181.501C299.633 180.901 299.463 180.216 299.463 179.446C299.463 178.676 299.633 177.996 299.973 177.406C300.313 176.816 300.783 176.351 301.383 176.011C301.983 175.661 302.673 175.486 303.453 175.486C304.233 175.486 304.918 175.661 305.508 176.011C306.108 176.351 306.578 176.816 306.918 177.406C307.268 177.996 307.443 178.676 307.443 179.446C307.443 180.216 307.268 180.901 306.918 181.501C306.578 182.091 306.108 182.556 305.508 182.896C304.918 183.236 304.233 183.406 303.453 183.406ZM303.453 182.206C303.953 182.206 304.393 182.091 304.773 181.861C305.153 181.631 305.448 181.306 305.658 180.886C305.868 180.466 305.973 179.986 305.973 179.446C305.973 178.906 305.868 178.431 305.658 178.021C305.448 177.601 305.153 177.276 304.773 177.046C304.393 176.806 303.953 176.686 303.453 176.686C302.953 176.686 302.508 176.806 302.118 177.046C301.738 177.276 301.443 177.601 301.233 178.021C301.023 178.431 300.918 178.906 300.918 179.446C300.918 179.986 301.023 180.466 301.233 180.886C301.443 181.306 301.738 181.631 302.118 181.861C302.508 182.091 302.953 182.206 303.453 182.206ZM312.174 183.166V175.726H315.969C316.749 175.726 317.364 175.906 317.814 176.266C318.274 176.626 318.504 177.106 318.504 177.706C318.504 178.086 318.389 178.416 318.159 178.696C317.939 178.976 317.639 179.191 317.259 179.341L317.244 179.206C317.714 179.336 318.099 179.556 318.399 179.866C318.699 180.176 318.849 180.556 318.849 181.006C318.849 181.426 318.724 181.801 318.474 182.131C318.224 182.461 317.889 182.716 317.469 182.896C317.049 183.076 316.579 183.166 316.059 183.166H312.174ZM313.509 182.836L312.729 182.071H315.954C316.414 182.071 316.774 181.976 317.034 181.786C317.294 181.586 317.424 181.306 317.424 180.946C317.424 180.596 317.294 180.326 317.034 180.136C316.774 179.936 316.414 179.836 315.954 179.836H312.894V178.786H315.879C316.319 178.786 316.629 178.696 316.809 178.516C316.989 178.336 317.079 178.086 317.079 177.766C317.079 177.456 316.984 177.226 316.794 177.076C316.614 176.916 316.309 176.836 315.879 176.836H312.714L313.509 176.041V182.836ZM326.631 180.976L327.501 181.876C327.111 182.356 326.631 182.731 326.061 183.001C325.501 183.271 324.866 183.406 324.156 183.406C323.346 183.406 322.626 183.236 321.996 182.896C321.366 182.556 320.871 182.091 320.511 181.501C320.161 180.901 319.986 180.216 319.986 179.446C319.986 178.676 320.156 177.996 320.496 177.406C320.836 176.806 321.306 176.336 321.906 175.996C322.506 175.656 323.181 175.486 323.931 175.486C324.661 175.486 325.306 175.656 325.866 175.996C326.436 176.326 326.881 176.786 327.201 177.376C327.531 177.956 327.696 178.631 327.696 179.401V179.491H326.286V179.356C326.286 178.816 326.186 178.346 325.986 177.946C325.786 177.536 325.506 177.221 325.146 177.001C324.796 176.771 324.391 176.656 323.931 176.656C323.441 176.656 323.006 176.771 322.626 177.001C322.246 177.231 321.951 177.556 321.741 177.976C321.531 178.386 321.426 178.871 321.426 179.431C321.426 179.991 321.541 180.486 321.771 180.916C322.011 181.336 322.341 181.661 322.761 181.891C323.181 182.121 323.661 182.236 324.201 182.236C325.191 182.236 326.001 181.816 326.631 180.976ZM327.696 179.911H321.021V178.876H327.456L327.696 179.401V179.911ZM330.898 186.076H329.503V175.726H330.883V178.006H330.568C330.648 177.516 330.833 177.081 331.123 176.701C331.423 176.321 331.793 176.026 332.233 175.816C332.683 175.596 333.173 175.486 333.703 175.486C334.423 175.486 335.063 175.661 335.623 176.011C336.183 176.351 336.623 176.821 336.943 177.421C337.263 178.011 337.423 178.686 337.423 179.446C337.423 180.216 337.258 180.901 336.928 181.501C336.608 182.091 336.158 182.556 335.578 182.896C335.008 183.236 334.358 183.406 333.628 183.406C332.958 183.406 332.378 183.271 331.888 183.001C331.398 182.721 331.028 182.346 330.778 181.876C330.528 181.396 330.428 180.861 330.478 180.271L330.763 179.986C330.803 180.416 330.943 180.801 331.183 181.141C331.433 181.481 331.748 181.746 332.128 181.936C332.518 182.116 332.938 182.206 333.388 182.206C333.908 182.206 334.358 182.091 334.738 181.861C335.118 181.621 335.418 181.291 335.638 180.871C335.858 180.451 335.968 179.976 335.968 179.446C335.968 178.916 335.863 178.446 335.653 178.036C335.443 177.616 335.153 177.286 334.783 177.046C334.413 176.806 333.978 176.686 333.478 176.686C332.978 176.686 332.533 176.811 332.143 177.061C331.763 177.301 331.458 177.641 331.228 178.081C331.008 178.521 330.898 179.031 330.898 179.611V186.076ZM344.914 181.051L345.859 181.951C345.499 182.401 345.054 182.756 344.524 183.016C343.994 183.276 343.394 183.406 342.724 183.406C341.964 183.406 341.284 183.236 340.684 182.896C340.094 182.556 339.629 182.091 339.289 181.501C338.949 180.901 338.779 180.216 338.779 179.446C338.779 178.686 338.949 178.011 339.289 177.421C339.629 176.821 340.099 176.351 340.699 176.011C341.309 175.661 341.994 175.486 342.754 175.486C343.414 175.486 344.004 175.616 344.524 175.876C345.054 176.136 345.499 176.491 345.859 176.941L344.914 177.841C344.684 177.491 344.394 177.211 344.044 177.001C343.694 176.791 343.274 176.686 342.784 176.686C342.284 176.686 341.839 176.806 341.449 177.046C341.069 177.276 340.769 177.601 340.549 178.021C340.339 178.431 340.234 178.906 340.234 179.446C340.234 179.986 340.339 180.466 340.549 180.886C340.769 181.296 341.069 181.621 341.449 181.861C341.839 182.091 342.284 182.206 342.784 182.206C343.284 182.206 343.704 182.101 344.044 181.891C344.394 181.681 344.684 181.401 344.914 181.051ZM347.521 183.166V175.726H348.886V181.336L348.781 181.306L353.236 175.726H354.451V183.166H353.086V177.556L353.206 177.601L348.736 183.166H347.521ZM356.749 183.166V175.726H358.114V181.336L358.009 181.306L362.464 175.726H363.679V183.166H362.314V177.556L362.434 177.601L357.964 183.166H356.749ZM202.084 201.656L199.924 198.446L202.084 195.236H203.644L201.454 198.446L203.644 201.656H202.084ZM205.054 201.656L202.894 198.446L205.054 195.236H206.614L204.424 198.446L206.614 201.656H205.054ZM207.863 200.426L208.883 199.436C209.173 199.786 209.508 200.086 209.888 200.336C210.268 200.586 210.678 200.781 211.118 200.921C211.558 201.061 212.023 201.131 212.513 201.131C213.063 201.131 213.548 201.051 213.968 200.891C214.388 200.721 214.718 200.491 214.958 200.201C215.198 199.911 215.318 199.571 215.318 199.181C215.318 198.671 215.093 198.271 214.643 197.981C214.203 197.681 213.443 197.451 212.363 197.291C211.383 197.141 210.598 196.941 210.008 196.691C209.418 196.441 208.988 196.126 208.718 195.746C208.448 195.356 208.313 194.896 208.313 194.366C208.313 193.746 208.488 193.196 208.838 192.716C209.188 192.236 209.668 191.866 210.278 191.606C210.898 191.336 211.603 191.201 212.393 191.201C213.303 191.201 214.108 191.381 214.808 191.741C215.518 192.091 216.138 192.571 216.668 193.181L215.663 194.156C215.253 193.646 214.788 193.241 214.268 192.941C213.748 192.631 213.123 192.476 212.393 192.476C211.633 192.476 211.008 192.646 210.518 192.986C210.038 193.316 209.798 193.761 209.798 194.321C209.798 194.611 209.888 194.861 210.068 195.071C210.248 195.271 210.543 195.441 210.953 195.581C211.363 195.721 211.913 195.846 212.603 195.956C213.603 196.096 214.408 196.306 215.018 196.586C215.638 196.856 216.088 197.201 216.368 197.621C216.658 198.041 216.803 198.546 216.803 199.136C216.803 199.786 216.618 200.356 216.248 200.846C215.888 201.336 215.383 201.721 214.733 202.001C214.093 202.271 213.353 202.406 212.513 202.406C211.523 202.406 210.643 202.231 209.873 201.881C209.103 201.521 208.433 201.036 207.863 200.426ZM230.492 202.166H229.097V197.861C229.097 197.141 228.947 196.601 228.647 196.241C228.347 195.871 227.937 195.686 227.417 195.686C227.047 195.686 226.692 195.791 226.352 196.001C226.022 196.211 225.752 196.541 225.542 196.991C225.342 197.431 225.242 198.006 225.242 198.716V202.166H223.847V197.861C223.847 197.141 223.692 196.601 223.382 196.241C223.082 195.871 222.677 195.686 222.167 195.686C221.787 195.686 221.427 195.791 221.087 196.001C220.757 196.211 220.487 196.541 220.277 196.991C220.077 197.431 219.977 198.006 219.977 198.716V202.166H218.582V194.726H219.962V196.541L219.842 196.526C219.982 196.016 220.187 195.616 220.457 195.326C220.737 195.036 221.052 194.826 221.402 194.696C221.762 194.556 222.127 194.486 222.497 194.486C223.167 194.486 223.717 194.671 224.147 195.041C224.587 195.411 224.872 195.956 225.002 196.676H224.822C224.962 196.146 225.177 195.721 225.467 195.401C225.767 195.081 226.107 194.851 226.487 194.711C226.877 194.561 227.272 194.486 227.672 194.486C228.562 194.486 229.252 194.766 229.742 195.326C230.242 195.876 230.492 196.676 230.492 197.726V202.166ZM238.876 202.166H237.571V200.696L237.526 200.336V197.561C237.526 196.971 237.336 196.506 236.956 196.166C236.576 195.816 236.061 195.641 235.411 195.641C234.941 195.641 234.511 195.741 234.121 195.941C233.731 196.131 233.391 196.396 233.101 196.736L232.231 195.836C232.641 195.406 233.111 195.076 233.641 194.846C234.181 194.606 234.781 194.486 235.441 194.486C236.121 194.486 236.716 194.611 237.226 194.861C237.746 195.111 238.151 195.461 238.441 195.911C238.731 196.351 238.876 196.886 238.876 197.516V202.166ZM234.826 202.406C234.266 202.406 233.771 202.306 233.341 202.106C232.911 201.896 232.576 201.611 232.336 201.251C232.096 200.891 231.976 200.481 231.976 200.021C231.976 199.501 232.121 199.061 232.411 198.701C232.711 198.331 233.121 198.051 233.641 197.861C234.161 197.661 234.756 197.561 235.426 197.561H237.691V198.596H235.576C234.946 198.596 234.426 198.711 234.016 198.941C233.616 199.161 233.416 199.506 233.416 199.976C233.416 200.376 233.566 200.696 233.866 200.936C234.176 201.176 234.576 201.296 235.066 201.296C235.546 201.296 235.981 201.201 236.371 201.011C236.761 200.821 237.071 200.556 237.301 200.216C237.541 199.866 237.676 199.466 237.706 199.016L238.201 199.286C238.201 199.886 238.056 200.421 237.766 200.891C237.476 201.361 237.076 201.731 236.566 202.001C236.066 202.271 235.486 202.406 234.826 202.406ZM244.945 194.606V195.926H244.615C244.165 195.926 243.75 196.036 243.37 196.256C243 196.466 242.7 196.801 242.47 197.261C242.25 197.711 242.14 198.301 242.14 199.031V202.166H240.745V194.726H242.125V197.111H241.915C242.025 196.481 242.225 195.986 242.515 195.626C242.815 195.266 243.16 195.006 243.55 194.846C243.94 194.686 244.34 194.606 244.75 194.606H244.945ZM250.87 202.166H249.085C248.505 202.166 248.06 202.016 247.75 201.716C247.45 201.406 247.3 200.966 247.3 200.396V192.626H248.695V200.216C248.695 200.466 248.76 200.661 248.89 200.801C249.02 200.931 249.21 200.996 249.46 200.996H250.87V202.166ZM250.765 195.896H245.845V194.726H250.765V195.896ZM254.04 202.166H252.6V191.441H256.83C257.56 191.441 258.195 191.571 258.735 191.831C259.275 192.091 259.695 192.451 259.995 192.911C260.305 193.371 260.46 193.911 260.46 194.531C260.46 195.151 260.305 195.691 259.995 196.151C259.695 196.611 259.275 196.971 258.735 197.231C258.195 197.491 257.56 197.621 256.83 197.621H253.89V196.376H256.83C257.5 196.376 258.025 196.216 258.405 195.896C258.795 195.566 258.99 195.111 258.99 194.531C258.99 193.951 258.795 193.501 258.405 193.181C258.025 192.851 257.5 192.686 256.83 192.686H254.04V202.166ZM261.525 202.166H259.71L255.69 197.171H257.37L261.525 202.166ZM268.934 202.166H267.629V200.696L267.584 200.336V197.561C267.584 196.971 267.394 196.506 267.014 196.166C266.634 195.816 266.119 195.641 265.469 195.641C264.999 195.641 264.569 195.741 264.179 195.941C263.789 196.131 263.449 196.396 263.159 196.736L262.289 195.836C262.699 195.406 263.169 195.076 263.699 194.846C264.239 194.606 264.839 194.486 265.499 194.486C266.179 194.486 266.774 194.611 267.284 194.861C267.804 195.111 268.209 195.461 268.499 195.911C268.789 196.351 268.934 196.886 268.934 197.516V202.166ZM264.884 202.406C264.324 202.406 263.829 202.306 263.399 202.106C262.969 201.896 262.634 201.611 262.394 201.251C262.154 200.891 262.034 200.481 262.034 200.021C262.034 199.501 262.179 199.061 262.469 198.701C262.769 198.331 263.179 198.051 263.699 197.861C264.219 197.661 264.814 197.561 265.484 197.561H267.749V198.596H265.634C265.004 198.596 264.484 198.711 264.074 198.941C263.674 199.161 263.474 199.506 263.474 199.976C263.474 200.376 263.624 200.696 263.924 200.936C264.234 201.176 264.634 201.296 265.124 201.296C265.604 201.296 266.039 201.201 266.429 201.011C266.819 200.821 267.129 200.556 267.359 200.216C267.599 199.866 267.734 199.466 267.764 199.016L268.259 199.286C268.259 199.886 268.114 200.421 267.824 200.891C267.534 201.361 267.134 201.731 266.624 202.001C266.124 202.271 265.544 202.406 264.884 202.406ZM277.763 202.166H276.368V197.876C276.368 197.146 276.203 196.601 275.873 196.241C275.543 195.871 275.098 195.686 274.538 195.686C274.138 195.686 273.758 195.791 273.398 196.001C273.038 196.211 272.748 196.541 272.528 196.991C272.308 197.441 272.198 198.021 272.198 198.731V202.166H270.803V194.726H272.183V197.006H271.973C272.083 196.376 272.283 195.881 272.573 195.521C272.863 195.151 273.208 194.886 273.608 194.726C274.008 194.566 274.423 194.486 274.853 194.486C275.753 194.486 276.463 194.766 276.983 195.326C277.503 195.876 277.763 196.676 277.763 197.726V202.166ZM281.031 202.166H279.636V191.366H281.031V202.166ZM286.941 202.166H285.006L280.626 198.311H280.776L284.706 194.726H286.506L282.336 198.446V198.176L286.941 202.166ZM289.528 202.166H288.133V194.726H289.528V202.166ZM288.838 192.971C288.578 192.971 288.353 192.886 288.163 192.716C287.983 192.536 287.893 192.316 287.893 192.056C287.893 191.796 287.983 191.576 288.163 191.396C288.353 191.216 288.578 191.126 288.838 191.126C289.098 191.126 289.318 191.216 289.498 191.396C289.678 191.576 289.768 191.796 289.768 192.056C289.768 192.316 289.678 192.536 289.498 192.716C289.318 192.886 289.098 192.971 288.838 192.971ZM298.462 202.166H297.067V197.876C297.067 197.146 296.902 196.601 296.572 196.241C296.242 195.871 295.797 195.686 295.237 195.686C294.837 195.686 294.457 195.791 294.097 196.001C293.737 196.211 293.447 196.541 293.227 196.991C293.007 197.441 292.897 198.021 292.897 198.731V202.166H291.502V194.726H292.882V197.006H292.672C292.782 196.376 292.982 195.881 293.272 195.521C293.562 195.151 293.907 194.886 294.307 194.726C294.707 194.566 295.122 194.486 295.552 194.486C296.452 194.486 297.162 194.766 297.682 195.326C298.202 195.876 298.462 196.676 298.462 197.726V202.166ZM307.94 201.446C307.94 202.206 307.765 202.876 307.415 203.456C307.075 204.036 306.605 204.491 306.005 204.821C305.405 205.151 304.715 205.316 303.935 205.316C303.225 205.316 302.58 205.191 302 204.941C301.42 204.701 300.94 204.366 300.56 203.936L301.43 203.006C301.71 203.356 302.05 203.631 302.45 203.831C302.86 204.031 303.345 204.131 303.905 204.131C304.435 204.131 304.895 204.016 305.285 203.786C305.685 203.566 305.995 203.256 306.215 202.856C306.435 202.466 306.545 202.006 306.545 201.476V198.611C306.545 197.971 306.425 197.436 306.185 197.006C305.945 196.576 305.63 196.251 305.24 196.031C304.86 195.801 304.445 195.686 303.995 195.686C303.505 195.686 303.065 195.806 302.675 196.046C302.295 196.286 302 196.611 301.79 197.021C301.58 197.421 301.475 197.876 301.475 198.386C301.475 198.906 301.58 199.366 301.79 199.766C302.01 200.166 302.31 200.481 302.69 200.711C303.08 200.931 303.535 201.041 304.055 201.041C304.515 201.041 304.935 200.946 305.315 200.756C305.695 200.566 306.005 200.306 306.245 199.976C306.495 199.636 306.64 199.251 306.68 198.821L306.965 199.106C307.035 199.706 306.935 200.241 306.665 200.711C306.405 201.181 306.025 201.556 305.525 201.836C305.035 202.106 304.465 202.241 303.815 202.241C303.095 202.241 302.445 202.081 301.865 201.761C301.295 201.431 300.845 200.976 300.515 200.396C300.185 199.806 300.02 199.136 300.02 198.386C300.02 197.626 300.185 196.956 300.515 196.376C300.855 195.786 301.305 195.326 301.865 194.996C302.435 194.656 303.07 194.486 303.77 194.486C304.28 194.486 304.75 194.581 305.18 194.771C305.62 194.961 305.99 195.246 306.29 195.626C306.59 195.996 306.785 196.456 306.875 197.006H306.56V194.726H307.94V201.446ZM311.19 195.236L313.365 198.446L311.19 201.656H309.645L311.835 198.446L309.645 195.236H311.19ZM314.16 195.236L316.335 198.446L314.16 201.656H312.615L314.805 198.446L312.615 195.236H314.16ZM320.678 197.651C320.678 196.451 320.863 195.306 321.233 194.216C321.603 193.126 322.133 192.121 322.823 191.201H324.158C323.448 192.241 322.913 193.296 322.553 194.366C322.203 195.426 322.028 196.521 322.028 197.651C322.028 199.871 322.738 202.021 324.158 204.101H322.823C322.133 203.181 321.603 202.176 321.233 201.086C320.863 199.996 320.678 198.851 320.678 197.651ZM332.636 202.166H325.451V200.996L329.276 197.426C329.886 196.846 330.351 196.321 330.671 195.851C331.001 195.381 331.166 194.896 331.166 194.396C331.166 194.026 331.076 193.691 330.896 193.391C330.726 193.091 330.486 192.851 330.176 192.671C329.866 192.491 329.506 192.401 329.096 192.401C328.526 192.401 328.006 192.561 327.536 192.881C327.066 193.191 326.656 193.631 326.306 194.201L325.331 193.286C325.841 192.596 326.411 192.076 327.041 191.726C327.681 191.376 328.386 191.201 329.156 191.201C329.846 191.201 330.446 191.346 330.956 191.636C331.466 191.916 331.861 192.296 332.141 192.776C332.431 193.256 332.576 193.801 332.576 194.411C332.576 194.871 332.476 195.311 332.276 195.731C332.086 196.151 331.801 196.581 331.421 197.021C331.041 197.461 330.556 197.946 329.966 198.476C329.666 198.756 329.361 199.041 329.051 199.331C328.741 199.611 328.431 199.891 328.121 200.171C327.821 200.451 327.521 200.726 327.221 200.996H332.636V202.166ZM338.526 202.406C337.696 202.406 336.976 202.186 336.366 201.746C335.766 201.296 335.306 200.656 334.986 199.826C334.666 198.986 334.506 197.981 334.506 196.811C334.506 195.041 334.861 193.666 335.571 192.686C336.291 191.696 337.276 191.201 338.526 191.201C339.786 191.201 340.771 191.696 341.481 192.686C342.201 193.666 342.561 195.041 342.561 196.811C342.561 197.981 342.401 198.986 342.081 199.826C341.761 200.656 341.301 201.296 340.701 201.746C340.101 202.186 339.376 202.406 338.526 202.406ZM338.526 201.206C339.346 201.206 339.976 200.831 340.416 200.081C340.866 199.321 341.091 198.231 341.091 196.811C341.091 195.381 340.866 194.291 340.416 193.541C339.976 192.781 339.346 192.401 338.526 192.401C337.716 192.401 337.086 192.781 336.636 193.541C336.186 194.291 335.961 195.381 335.961 196.811C335.961 198.231 336.186 199.321 336.636 200.081C337.086 200.831 337.716 201.206 338.526 201.206ZM351.342 202.166H344.157V200.996L347.982 197.426C348.592 196.846 349.057 196.321 349.377 195.851C349.707 195.381 349.872 194.896 349.872 194.396C349.872 194.026 349.782 193.691 349.602 193.391C349.432 193.091 349.192 192.851 348.882 192.671C348.572 192.491 348.212 192.401 347.802 192.401C347.232 192.401 346.712 192.561 346.242 192.881C345.772 193.191 345.362 193.631 345.012 194.201L344.037 193.286C344.547 192.596 345.117 192.076 345.747 191.726C346.387 191.376 347.092 191.201 347.862 191.201C348.552 191.201 349.152 191.346 349.662 191.636C350.172 191.916 350.567 192.296 350.847 192.776C351.137 193.256 351.282 193.801 351.282 194.411C351.282 194.871 351.182 195.311 350.982 195.731C350.792 196.151 350.507 196.581 350.127 197.021C349.747 197.461 349.262 197.946 348.672 198.476C348.372 198.756 348.067 199.041 347.757 199.331C347.447 199.611 347.137 199.891 346.827 200.171C346.527 200.451 346.227 200.726 345.927 200.996H351.342V202.166ZM359.713 202.166H358.318V199.601H352.723V198.461L358.318 191.441H359.713V198.461H361.318V199.601H359.713V202.166ZM358.318 193.241L354.148 198.461H358.318V193.241ZM365.928 197.651C365.928 198.851 365.743 199.996 365.373 201.086C365.013 202.176 364.483 203.181 363.783 204.101H362.433C363.863 202.021 364.578 199.871 364.578 197.651C364.578 196.521 364.398 195.426 364.038 194.366C363.688 193.296 363.153 192.241 362.433 191.201H363.783C364.483 192.121 365.013 193.126 365.373 194.216C365.743 195.306 365.928 196.451 365.928 197.651Z" fill="black"/>
<path d="M152 203C163.046 203 172 194.046 172 183C172 171.954 163.046 163 152 163C140.954 163 132 171.954 132 183C132 194.046 140.954 203 152 203Z" fill="#F2C45B"/>
<path d="M509.5 296C535.181 296 556 275.181 556 249.5C556 223.819 535.181 203 509.5 203C483.819 203 463 223.819 463 249.5C463 275.181 483.819 296 509.5 296Z" fill="#6683C2"/>
<path d="M185 98C195.493 98 204 89.4934 204 79C204 68.5066 195.493 60 185 60C174.507 60 166 68.5066 166 79C166 89.4934 174.507 98 185 98Z" fill="white" fill-opacity="0.63"/>
<path d="M28 229C43.464 229 56 216.464 56 201C56 185.536 43.464 173 28 173C12.536 173 0 185.536 0 201C0 216.464 12.536 229 28 229Z" fill="white" fill-opacity="0.63"/>
<path d="M398 358C431.689 358 459 330.689 459 297C459 263.311 431.689 236 398 236C364.311 236 337 263.311 337 297C337 330.689 364.311 358 398 358Z" fill="white" fill-opacity="0.63"/>
<path d="M419 229C433.912 229 446 216.912 446 202C446 187.088 433.912 175 419 175C404.088 175 392 187.088 392 202C392 216.912 404.088 229 419 229Z" fill="white" fill-opacity="0.63"/>
</svg>
