<svg width="233" height="219" viewBox="0 0 233 219" fill="none" xmlns="http://www.w3.org/2000/svg">
<path d="M232.523 42.1157C232.523 65.3748 214.209 84.2308 191.612 84.2308C169.021 84.2308 150.707 65.3755 150.707 42.1157C150.707 18.856 169.021 0 191.612 0C214.209 0 232.523 18.856 232.523 42.1157Z" fill="#F37E60"/>
<path d="M135.016 24.7079C135.016 34.6318 126.737 42.677 116.522 42.677C106.31 42.677 98.0302 34.6321 98.0302 24.7079C98.0302 14.7837 106.309 6.73853 116.522 6.73853C126.737 6.73853 135.016 14.7837 135.016 24.7079Z" fill="#68CCEA"/>
<path d="M161.914 138.139C161.914 182.8 125.785 219 81.2172 219C36.6536 219 0.522949 182.8 0.522949 138.139C0.522949 93.4801 36.6536 57.2769 81.2172 57.2769C125.786 57.2778 161.914 93.481 161.914 138.139Z" fill="#6683C2"/>
</svg>
