<svg width="68" height="68" viewBox="0 0 68 68" fill="none" xmlns="http://www.w3.org/2000/svg">
<path d="M50.209 49.1722L54.0964 45.2848L59.612 50.8001L55.7246 54.6876L50.209 49.1722Z" fill="#ECDAEC"/>
<path d="M59.6238 50.7999L54.1075 45.2837L52.0703 47.3209L53.903 51.5458L57.5865 52.8371H59.6238V50.7999Z" fill="#EDEDED"/>
<path d="M52.0696 47.3207L50.2188 49.1715L55.735 54.6877H57.5859V52.837L52.0696 47.3207Z" fill="#D9D9D9"/>
<path d="M2.05647 66.7275H47.3509C48.4865 66.7275 49.4073 65.9435 49.4073 63.476V15.2092L36.6658 0H2.05647C0.920789 0 0 0.920656 0 2.05647V63.4759C0 65.9435 0.920789 66.7275 2.05647 66.7275Z" fill="#F9F6F6"/>
<path d="M36.666 10.6849C36.666 11.8206 37.5867 12.7414 38.7225 12.7414Z" fill="#E2CBE2"/>
<path d="M42.1101 20.9694H19.1532C18.8805 20.9694 18.619 20.861 18.4262 20.6682C18.2333 20.4754 18.125 20.2138 18.125 19.9411C18.125 19.6684 18.2333 19.4069 18.4262 19.2141C18.619 19.0212 18.8805 18.9129 19.1532 18.9129H42.1101C42.3828 18.9129 42.6444 19.0212 42.8372 19.2141C43.03 19.4069 43.1384 19.6684 43.1384 19.9411C43.1384 20.2138 43.03 20.4754 42.8372 20.6682C42.6444 20.861 42.3828 20.9694 42.1101 20.9694ZM32.3446 25.9785H19.1532C18.8805 25.9785 18.619 25.8702 18.4262 25.6774C18.2333 25.4845 18.125 25.223 18.125 24.9503C18.125 24.6776 18.2333 24.4161 18.4262 24.2232C18.619 24.0304 18.8805 23.9221 19.1532 23.9221H32.3446C32.6173 23.9221 32.8788 24.0304 33.0716 24.2232C33.2645 24.4161 33.3728 24.6776 33.3728 24.9503C33.3728 25.223 33.2645 25.4845 33.0716 25.6774C32.8788 25.8702 32.6173 25.9785 32.3446 25.9785ZM27.4357 35.3867H19.1532C18.8805 35.3867 18.619 35.2784 18.4262 35.0855C18.2333 34.8927 18.125 34.6312 18.125 34.3585C18.125 34.0858 18.2333 33.8242 18.4262 33.6314C18.619 33.4386 18.8805 33.3302 19.1532 33.3302H27.4357C27.7084 33.3302 27.9699 33.4386 28.1628 33.6314C28.3556 33.8242 28.4639 34.0858 28.4639 34.3585C28.4639 34.6312 28.3556 34.8927 28.1628 35.0855C27.9699 35.2784 27.7084 35.3867 27.4357 35.3867ZM27.509 40.3957H19.1532C18.8805 40.3957 18.619 40.2874 18.4262 40.0946C18.2333 39.9017 18.125 39.6402 18.125 39.3675C18.125 39.0948 18.2333 38.8333 18.4262 38.6404C18.619 38.4476 18.8805 38.3393 19.1532 38.3393H27.509C27.7817 38.3393 28.0432 38.4476 28.2361 38.6404C28.4289 38.8333 28.5372 39.0948 28.5372 39.3675C28.5372 39.6402 28.4289 39.9017 28.2361 40.0946C28.0432 40.2874 27.7817 40.3957 27.509 40.3957ZM32.0554 50.0969H19.1532C19.0182 50.0969 18.8845 50.0703 18.7597 50.0186C18.635 49.9669 18.5216 49.8912 18.4262 49.7957C18.3307 49.7002 18.2549 49.5869 18.2033 49.4621C18.1516 49.3374 18.125 49.2037 18.125 49.0687C18.125 48.9336 18.1516 48.7999 18.2033 48.6752C18.2549 48.5504 18.3307 48.4371 18.4262 48.3416C18.5216 48.2461 18.635 48.1704 18.7597 48.1187C18.8845 48.067 19.0182 48.0404 19.1532 48.0404H32.0554C32.1905 48.0404 32.3242 48.067 32.4489 48.1187C32.5737 48.1704 32.687 48.2461 32.7825 48.3416C32.878 48.4371 32.9537 48.5504 33.0054 48.6752C33.0571 48.7999 33.0837 48.9336 33.0837 49.0687C33.0837 49.2037 33.0571 49.3374 33.0054 49.4621C32.9537 49.5869 32.878 49.7002 32.7825 49.7957C32.687 49.8912 32.5737 49.9669 32.4489 50.0186C32.3242 50.0703 32.1905 50.0969 32.0554 50.0969ZM41.9445 55.1059H19.1532C19.0182 55.1059 18.8845 55.0793 18.7597 55.0276C18.635 54.976 18.5216 54.9002 18.4262 54.8048C18.3307 54.7093 18.2549 54.5959 18.2033 54.4712C18.1516 54.3464 18.125 54.2127 18.125 54.0777C18.125 53.9426 18.1516 53.8089 18.2033 53.6842C18.2549 53.5594 18.3307 53.4461 18.4262 53.3506C18.5216 53.2551 18.635 53.1794 18.7597 53.1277C18.8845 53.076 19.0182 53.0494 19.1532 53.0494H41.9445C42.0796 53.0494 42.2133 53.076 42.338 53.1277C42.4628 53.1794 42.5761 53.2551 42.6716 53.3506C42.7671 53.4461 42.8428 53.5594 42.8945 53.6842C42.9462 53.8089 42.9728 53.9426 42.9728 54.0777C42.9728 54.2127 42.9462 54.3464 42.8945 54.4712C42.8428 54.5959 42.7671 54.7093 42.6716 54.8048C42.5761 54.9002 42.4628 54.976 42.338 55.0276C42.2133 55.0793 42.0796 55.1059 41.9445 55.1059Z" fill="#6683C2"/>
<path d="M29.876 48.0404C36.541 54.7052 47.3467 54.7052 54.0115 48.0404C57.03 45.022 58.9657 40.5616 58.9657 35.7737C58.6812 31.826 57.03 27.9583 54.0115 24.9398C47.3467 18.275 36.5408 18.275 29.876 24.9398C26.8576 27.9583 25.2064 31.8259 24.9219 35.7737C24.9219 40.3839 26.8576 45.022 29.876 48.0404Z" fill="#EDEDED"/>
<path d="M29.6484 35.7737C29.6484 39.3676 31.1066 42.5798 33.2052 44.6784C38.0308 49.504 45.8546 49.504 50.6802 44.6784C52.7788 42.5798 54.237 39.1115 54.237 35.7737C53.9636 33.0343 52.7788 30.3686 50.6802 28.2701C45.8546 23.4444 38.0308 23.4444 33.2052 28.2701C31.1066 30.3686 29.9218 33.0343 29.6484 35.7737Z" fill="#FFE27A"/>
<path d="M36.2305 35.9406C36.3078 36.0513 36.496 37.4498 36.496 37.4498L39.3315 40.2071C39.7343 40.5999 40.2749 40.8195 40.8376 40.8187C41.3997 40.8187 41.9612 40.6006 42.3846 40.1666L47.7627 34.6518C47.7627 34.6518 47.9206 33.2768 47.9876 33.1806C47.9098 33.0687 47.8217 32.9642 47.7243 32.8688C46.8701 32.0359 45.5021 32.0529 44.6688 32.9072L40.7972 36.8772L39.5085 35.624C38.653 34.7922 37.2851 34.8112 36.4532 35.6668C36.3716 35.7519 36.2972 35.8434 36.2305 35.9406Z" fill="#7FCBB4"/>
<path d="M67.642 60.8498C68.3028 59.4309 68.0478 57.6909 66.8768 56.5199L60.8745 50.5175C60.8109 50.4539 60.7353 50.4034 60.6521 50.3689C60.569 50.3344 60.4798 50.3167 60.3898 50.3167C60.2998 50.3167 60.2106 50.3344 60.1275 50.3689C60.0443 50.4034 59.9687 50.4539 59.9051 50.5175L56.8189 53.6037L56.3711 55.3903L61.9903 61.2113C63.1635 62.3846 65.9429 62.629 67.642 60.8498Z" fill="#F2C45B"/>
<path d="M63.3039 60.0888L56.8189 53.6038L55.4528 54.9699C55.3891 55.0336 55.3386 55.1091 55.3041 55.1923C55.2697 55.2755 55.252 55.3646 55.252 55.4546C55.252 55.5447 55.2697 55.6338 55.3041 55.717C55.3386 55.8001 55.3891 55.8757 55.4528 55.9393L61.4551 61.9417C62.9523 63.4389 65.3796 63.4389 66.8768 61.9417C67.1938 61.6254 67.4528 61.2558 67.6419 60.8499C66.2216 61.5156 64.4771 61.2621 63.3039 60.0888Z" fill="#E1B144"/>
<path d="M8.30293 24.6941H12.8013C13.5036 24.6941 14.073 23.6932 14.073 22.2271V20.1964C14.073 19.8591 13.939 19.5356 13.7005 19.2971C13.462 19.0587 13.1386 18.9247 12.8013 18.9247H8.30293C7.96566 18.9247 7.6422 19.0587 7.40372 19.2971C7.16523 19.5356 7.03125 19.8591 7.03125 20.1964V22.2271C7.03138 23.756 7.60062 24.6941 8.30293 24.6941Z" fill="#7FCBB4"/>
<path d="M36.666 10.6849V13.1527C36.666 14.2884 37.5867 15.2092 38.7225 15.2092H49.4074V12.7414L36.666 10.6849Z" fill="#FAFAFA"/>
<path d="M38.7225 12.7414H49.4074L36.666 0V10.6849C36.666 11.8207 37.5868 12.7414 38.7225 12.7414Z" fill="#D9D9D9"/>
<path d="M47.7625 33.4565L42.3844 38.9712C42.1833 39.1779 41.9427 39.3422 41.677 39.4542C41.4113 39.5662 41.1257 39.6237 40.8373 39.6233C40.2747 39.624 39.7341 39.4045 39.3313 39.0117L36.4957 36.2544C36.3975 36.1585 36.3086 36.0534 36.2302 35.9406C35.6357 36.7932 35.7262 37.9739 36.4957 38.7222L39.3313 41.4795C39.7341 41.8724 40.2747 42.0919 40.8373 42.0911C41.3994 42.0911 41.9609 41.873 42.3844 41.439L47.7625 35.9242C48.4985 35.1695 48.5697 34.0143 47.9874 33.1807C47.9201 33.2787 47.8449 33.3709 47.7625 33.4565ZM12.8013 23.4987H8.30293C7.96566 23.4987 7.6422 23.3647 7.40372 23.1262C7.16523 22.8877 7.03125 22.5643 7.03125 22.227V24.6948C7.03125 25.0321 7.16523 25.3555 7.40372 25.594C7.6422 25.8325 7.96566 25.9665 8.30293 25.9665H12.8013C13.1386 25.9665 13.462 25.8325 13.7005 25.594C13.939 25.3555 14.073 25.0321 14.073 24.6948V22.227C14.0728 22.9295 13.5036 23.4987 12.8013 23.4987Z" fill="#55B799"/>
<path d="M8.30293 39.1115H12.8013C13.5036 39.1115 14.073 38.1106 14.073 36.6445V34.6138C14.073 34.2765 13.939 33.9531 13.7005 33.7146C13.462 33.4761 13.1386 33.3421 12.8013 33.3421H8.30293C7.96566 33.3421 7.6422 33.4761 7.40372 33.7146C7.16523 33.9531 7.03125 34.2765 7.03125 34.6138V36.6445C7.03138 38.1734 7.60062 39.1115 8.30293 39.1115Z" fill="#7FCBB4"/>
<path d="M12.8013 37.9161H8.30293C7.96566 37.9161 7.6422 37.7821 7.40372 37.5436C7.16523 37.3051 7.03125 36.9817 7.03125 36.6444V39.1122C7.03125 39.4495 7.16523 39.7729 7.40372 40.0114C7.6422 40.2499 7.96566 40.3839 8.30293 40.3839H12.8013C13.1386 40.3839 13.462 40.2499 13.7005 40.0114C13.939 39.7729 14.073 39.4495 14.073 39.1122V36.6444C14.0728 37.3467 13.5036 37.9161 12.8013 37.9161Z" fill="#55B799"/>
<path d="M8.30293 53.8215H12.8013C13.5036 53.8215 14.073 52.8207 14.073 51.3545V49.3238C14.073 48.9866 13.939 48.6631 13.7005 48.4246C13.462 48.1861 13.1386 48.0522 12.8013 48.0522H8.30293C7.96566 48.0522 7.6422 48.1861 7.40372 48.4246C7.16523 48.6631 7.03125 48.9866 7.03125 49.3238V51.3545C7.03138 52.8835 7.60062 53.8215 8.30293 53.8215Z" fill="#7FCBB4"/>
<path d="M12.8013 52.6263H8.30293C7.96566 52.6263 7.6422 52.4923 7.40372 52.2538C7.16523 52.0153 7.03125 51.6919 7.03125 51.3546V53.8224C7.03125 54.1597 7.16523 54.4831 7.40372 54.7216C7.6422 54.9601 7.96566 55.0941 8.30293 55.0941H12.8013C13.1386 55.0941 13.462 54.9601 13.7005 54.7216C13.939 54.4831 14.073 54.1597 14.073 53.8224V51.3546C14.0728 52.0569 13.5036 52.6263 12.8013 52.6263Z" fill="#55B799"/>
<path d="M47.3509 65.5322H2.05647C0.920789 65.5322 0 64.6116 0 63.4758V65.9436C0 67.0794 0.920789 68 2.05647 68H47.3509C48.4865 68 49.4073 67.0794 49.4073 65.9436V63.4758C49.4073 64.6116 48.4865 65.5322 47.3509 65.5322Z" fill="#FAFAFA"/>
<path d="M54.011 46.6075C47.3462 53.2723 36.5403 53.2723 29.8755 46.6075C26.8571 43.5891 25.2058 39.7214 24.9213 35.7736C24.5778 40.5428 26.229 45.4288 29.8755 49.0752C36.5403 55.74 47.3462 55.74 54.011 49.0752C57.6575 45.4287 59.3088 40.5428 58.9652 35.7736C58.6807 39.7214 57.0293 43.5892 54.011 46.6075Z" fill="#D9D9D9"/>
<path d="M50.6811 43.2774C45.8555 48.103 38.0316 48.103 33.206 43.2774C31.1075 41.1788 29.9226 38.5131 29.6493 35.7737C29.2942 39.3336 30.479 43.0181 33.206 45.7452C38.0316 50.5708 45.8555 50.5708 50.6811 45.7452C53.4081 43.0181 54.593 39.3336 54.2378 35.7737C53.9645 38.5131 52.7797 41.1788 50.6811 43.2774Z" fill="#F9CF58"/>
</svg>
