<svg width="63" height="69" viewBox="0 0 63 69" fill="none" xmlns="http://www.w3.org/2000/svg">
<path d="M31.4146 1.87759e-05C19.435 -0.015614 9.67369 9.73265 9.67383 21.7122C9.67396 29.6759 13.9622 36.6371 20.3551 40.4153C21.4902 41.0861 22.1774 42.3157 22.1774 43.6344V48.9229C22.3936 48.8325 22.6256 48.786 22.86 48.7862H39.9116C40.1536 48.7862 40.3841 48.835 40.5942 48.9229V43.6343C40.5942 42.3001 41.307 41.0741 42.4542 40.393C48.8262 36.6096 53.0976 29.6603 53.0976 21.7121C53.0977 9.73036 43.3926 0.0156516 31.4146 1.87759e-05Z" fill="#F3C55C"/>
<path d="M27.9157 43.6344C27.9157 42.3159 27.2287 41.0861 26.0934 40.4153C19.7005 36.637 15.4123 29.6759 15.4121 21.7122C15.412 10.7132 23.6412 1.59645 34.2605 0.189499C33.317 0.064655 32.3664 0.00136101 31.4148 1.87762e-05C19.4352 -0.015614 9.67369 9.73252 9.67383 21.7122C9.67396 29.6759 13.9622 36.6371 20.3551 40.4153C21.4903 41.0861 22.1774 42.3159 22.1774 43.6344V48.9229C22.3936 48.8325 22.6256 48.786 22.86 48.7862H27.9157V43.6344Z" fill="#EAB148"/>
<path d="M34.1061 49.8274C33.83 49.8274 33.5652 49.7177 33.3699 49.5225C33.1746 49.3272 33.0649 49.0624 33.0649 48.7862V39.4677C33.0649 38.5312 33.3803 37.6074 33.9526 36.8662L35.4426 34.9372C35.7358 34.5563 35.8951 34.0893 35.896 33.6087V23.884C35.896 23.6078 36.0057 23.343 36.2009 23.1477C36.3962 22.9525 36.661 22.8428 36.9372 22.8428C37.2133 22.8428 37.4781 22.9525 37.6734 23.1477C37.8687 23.343 37.9784 23.6078 37.9784 23.884V33.6087C37.9784 34.5451 37.663 35.469 37.0907 36.2102L35.6007 38.1392C35.3075 38.5201 35.1481 38.9871 35.1473 39.4677V48.7862C35.1473 49.0624 35.0376 49.3272 34.8424 49.5225C34.6471 49.7177 34.3823 49.8274 34.1061 49.8274ZM28.6673 49.8274C28.3911 49.8274 28.1263 49.7177 27.931 49.5225C27.7358 49.3272 27.6261 49.0624 27.6261 48.7862V39.4677C27.6261 38.9896 27.465 38.5178 27.1727 38.1392L25.6826 36.2102C25.1086 35.4643 24.7966 34.5499 24.7949 33.6087V23.884C24.7949 23.6078 24.9046 23.343 25.0999 23.1477C25.2951 22.9525 25.56 22.8428 25.8361 22.8428C26.1123 22.8428 26.3771 22.9525 26.5724 23.1477C26.7676 23.343 26.8773 23.6078 26.8773 23.884V33.6087C26.8773 34.0869 27.0384 34.5586 27.3307 34.937L28.8208 36.8661C29.3948 37.612 29.7068 38.5264 29.7085 39.4676V48.7861C29.7085 48.9228 29.6816 49.0582 29.6293 49.1846C29.5769 49.3109 29.5002 49.4257 29.4036 49.5224C29.3069 49.6191 29.1921 49.6958 29.0658 49.7482C28.9394 49.8005 28.804 49.8274 28.6673 49.8274Z" fill="#EAB148"/>
<path d="M46.5325 17.4608C45.4057 13.2619 42.5109 9.75102 38.5903 7.82859C38.3472 7.70417 38.1628 7.48925 38.0766 7.23012C37.9905 6.971 38.0096 6.68841 38.1298 6.44322C38.25 6.19803 38.4617 6.00987 38.7193 5.91928C38.9769 5.82868 39.2598 5.84289 39.507 5.95885C43.9673 8.14596 47.2611 12.1416 48.5437 16.9211C48.6103 17.1862 48.5701 17.4668 48.4316 17.7024C48.2932 17.9381 48.0677 18.1099 47.8037 18.1807C47.5397 18.2516 47.2585 18.2158 47.0206 18.0811C46.7828 17.9464 46.6075 17.7236 46.5325 17.4608Z" fill="#FFEAC8"/>
<path d="M27.1797 64.0323V64.7951C27.1797 67.1077 29.0718 68.9999 31.3844 68.9999C33.697 68.9999 35.5891 67.1078 35.5891 64.7951V64.0323H27.1797Z" fill="#F5F5F5"/>
<path d="M30.9437 64.7951V64.0323H27.1797V64.7951C27.1797 67.1077 29.0718 68.9999 31.3844 68.9999C32.06 68.9999 32.6991 68.8376 33.2664 68.5512C31.8923 67.8575 30.9437 66.4321 30.9437 64.7951Z" fill="#DDDDDD"/>
<path d="M37.9768 26.08H24.7942C24.518 26.08 24.2532 25.9703 24.0579 25.775C23.8627 25.5798 23.753 25.3149 23.753 25.0388C23.753 24.7626 23.8627 24.4978 24.0579 24.3025C24.2532 24.1073 24.518 23.9976 24.7942 23.9976H37.9768C38.253 23.9976 38.5178 24.1073 38.713 24.3025C38.9083 24.4978 39.018 24.7626 39.018 25.0388C39.018 25.3149 38.9083 25.5798 38.713 25.775C38.5178 25.9703 38.253 26.08 37.9768 26.08ZM4.62313 22.1974H1.0412C0.765056 22.1974 0.500223 22.0877 0.30496 21.8924C0.109697 21.6972 0 21.4323 0 21.1562C0 20.88 0.109697 20.6152 0.30496 20.4199C0.500223 20.2247 0.765056 20.115 1.0412 20.115H4.62313C4.89928 20.115 5.16411 20.2247 5.35937 20.4199C5.55463 20.6152 5.66433 20.88 5.66433 21.1562C5.66433 21.4323 5.55463 21.6972 5.35937 21.8924C5.16411 22.0877 4.89928 22.1974 4.62313 22.1974ZM5.64533 15.5898L2.29641 14.3188C2.04195 14.2182 1.83735 14.0214 1.72686 13.771C1.61636 13.5207 1.60885 13.2369 1.70595 12.9811C1.80305 12.7252 1.99695 12.5179 2.24573 12.4039C2.4945 12.2899 2.77815 12.2784 3.03533 12.3719L6.38425 13.6429C6.63871 13.7435 6.8433 13.9403 6.9538 14.1907C7.06429 14.441 7.0718 14.7248 6.97471 14.9807C6.87761 15.2365 6.6837 15.4438 6.43493 15.5578C6.18616 15.6718 5.90251 15.6833 5.64533 15.5898ZM1.69239 29.3363C1.59443 29.0781 1.60303 28.7916 1.7163 28.5398C1.82957 28.2879 2.03824 28.0914 2.29641 27.9934L5.64533 26.7224C5.90251 26.6289 6.18616 26.6404 6.43493 26.7544C6.6837 26.8684 6.87761 27.0757 6.97471 27.3316C7.0718 27.5874 7.06429 27.8712 6.9538 28.1215C6.8433 28.3719 6.63871 28.5687 6.38425 28.6694L3.03533 29.9403C2.90749 29.9889 2.77134 30.0117 2.63467 30.0076C2.49799 30.0035 2.36346 29.9726 2.23875 29.9165C2.11405 29.8604 2.00161 29.7803 1.90787 29.6807C1.81412 29.5812 1.7409 29.4642 1.69239 29.3363ZM61.7299 22.1974H58.148C57.8718 22.1974 57.607 22.0877 57.4117 21.8924C57.2165 21.6972 57.1068 21.4323 57.1068 21.1562C57.1068 20.88 57.2165 20.6152 57.4117 20.4199C57.607 20.2247 57.8718 20.115 58.148 20.115H61.7299C62.0061 20.115 62.2709 20.2247 62.4662 20.4199C62.6614 20.6152 62.7711 20.88 62.7711 21.1562C62.7711 21.4323 62.6614 21.6972 62.4662 21.8924C62.2709 22.0877 62.0061 22.1974 61.7299 22.1974ZM55.7827 14.9857C55.6848 14.7275 55.6934 14.441 55.8066 14.1891C55.9199 13.9373 56.1286 13.7407 56.3867 13.6427L59.7357 12.3718C59.9928 12.2783 60.2765 12.2897 60.5253 12.4037C60.774 12.5177 60.9679 12.7251 61.065 12.9809C61.1621 13.2368 61.1546 13.5205 61.0441 13.7709C60.9336 14.0212 60.729 14.218 60.4746 14.3187L57.1258 15.5898C56.8676 15.6878 56.581 15.6792 56.3291 15.5659C56.0773 15.4526 55.8807 15.2439 55.7827 14.9857ZM59.7358 29.9405L56.3869 28.6695C56.1324 28.5688 55.9278 28.372 55.8173 28.1217C55.7068 27.8713 55.6993 27.5875 55.7964 27.3317C55.8935 27.0759 56.0874 26.8685 56.3362 26.7545C56.585 26.6405 56.8686 26.629 57.1258 26.7225L60.4747 27.9935C60.7292 28.0942 60.9338 28.291 61.0443 28.5413C61.1548 28.7917 61.1623 29.0755 61.0652 29.3313C60.9681 29.5871 60.7742 29.7945 60.5254 29.9085C60.2766 30.0225 59.993 30.034 59.7358 29.9405Z" fill="#FFDD8E"/>
<path d="M38.5228 58.9156H24.2463C23.2499 58.9156 22.4395 59.7261 22.4395 60.7223V62.2602C22.4395 63.2564 23.2499 64.0669 24.2463 64.0669H38.5229C39.5191 64.0669 40.3296 63.2564 40.3296 62.2602V60.7223C40.3296 59.7261 39.5191 58.9156 38.5228 58.9156Z" fill="#EFECEF"/>
<path d="M38.5228 61.4914H24.2463C23.4304 61.4914 22.7398 60.9475 22.5163 60.2036C22.4655 60.3719 22.4396 60.5467 22.4395 60.7225V62.2604C22.4395 63.2566 23.2499 64.0671 24.2463 64.0671H38.5229C39.5191 64.0671 40.3296 63.2566 40.3296 62.2604V60.7225C40.3296 60.542 40.3022 60.368 40.2528 60.2036C40.0292 60.9475 39.3387 61.4914 38.5228 61.4914Z" fill="#E2DFE2"/>
<path d="M39.9112 53.8336H22.8594C21.8632 53.8336 21.0527 54.6441 21.0527 55.6403V57.1782C21.0527 58.1746 21.8632 58.985 22.8594 58.985H39.9112C40.9075 58.985 41.718 58.1746 41.718 57.1782V55.6403C41.718 54.6441 40.9075 53.8336 39.9112 53.8336Z" fill="#EFECEF"/>
<path d="M39.9113 56.4094H22.8595C22.0437 56.4094 21.3531 55.8654 21.1295 55.1214C21.0787 55.2897 21.0529 55.4645 21.0527 55.6402V57.1782C21.0527 58.1745 21.8632 58.985 22.8594 58.985H39.9112C40.9075 58.985 41.718 58.1745 41.718 57.1782V55.6402C41.718 55.4598 41.6906 55.2859 41.6411 55.1214C41.4177 55.8654 40.7272 56.4094 39.9113 56.4094Z" fill="#E2DFE2"/>
<path d="M39.9112 48.7515H22.8594C21.8632 48.7515 21.0527 49.5619 21.0527 50.5583V52.0962C21.0527 53.0924 21.8632 53.9029 22.8594 53.9029H39.9112C40.9075 53.9029 41.718 53.0924 41.718 52.0962V50.5583C41.718 49.5619 40.9075 48.7515 39.9112 48.7515Z" fill="#EFECEF"/>
<path d="M39.9113 51.3273H22.8595C22.0437 51.3273 21.3531 50.7834 21.1295 50.0395C21.0787 50.2078 21.0529 50.3826 21.0527 50.5583V52.0963C21.0527 53.0925 21.8632 53.9029 22.8594 53.9029H39.9112C40.9075 53.9029 41.718 53.0925 41.718 52.0963V50.5583C41.718 50.3779 41.6906 50.2039 41.6411 50.0395C41.4177 50.7834 40.7272 51.3273 39.9113 51.3273Z" fill="#E2DFE2"/>
</svg>
