<svg width="74" height="67" viewBox="0 0 74 67" fill="none" xmlns="http://www.w3.org/2000/svg">
<path d="M37.256 50.9035L63.3649 32.5034L27.3064 25.9412L0.787109 43.3153L37.256 50.9035Z" fill="#FFDA87"/>
<path d="M36.7457 32.6362L10.6367 16.1036L46.6975 10.2058L73.0514 25.6101L36.7457 32.6362Z" fill="#FFB7A5"/>
<path d="M27.4607 18.3649L6.08398 4.83023L35.6081 0L57.2764 12.4333L27.4607 18.3649Z" fill="#8AA7E6"/>
<path d="M39.21 52.0503C38.8487 51.479 38.3545 51.0804 37.809 50.9779L1.19336 44.4156C1.19336 44.4156 2.76225 48.9523 2.70631 51.971C2.66425 54.4164 1.21432 59.0437 1.21432 59.0437L37.8277 65.606C38.3732 65.7085 38.8673 65.4869 39.2265 65.0489C39.5853 64.6105 39.8092 63.9578 39.8069 63.1979L39.7953 54.111C39.7952 53.3511 39.5713 52.6166 39.21 52.0503ZM72.8067 26.806L36.1933 32.7016C35.6456 32.795 35.1514 33.1515 34.7901 33.6667C34.4108 34.2096 34.2067 34.8554 34.205 35.5177L34.1958 43.686C34.1933 44.3714 34.4149 44.9566 34.7739 45.3458C35.1328 45.7421 35.6271 45.9403 36.1725 45.8493L72.7882 39.9515C72.7882 39.9515 71.7369 37.3453 71.4384 33.2121C71.2426 30.5056 72.8067 26.806 72.8067 26.806ZM26.9923 29.1839L56.9665 24.3513C56.9665 24.3513 55.6494 22.1367 55.5235 19.0596C55.4234 16.6237 56.9829 13.5884 56.9829 13.5884L27.0063 18.4185C26.561 18.4932 26.1553 18.7869 25.8593 19.2065C25.5632 19.6237 25.3814 20.1599 25.3814 20.7216L25.3721 27.4074C25.3697 27.9645 25.5516 28.4471 25.8453 28.7688C26.1392 29.0907 26.5447 29.2514 26.9923 29.1839Z" fill="#FFF3E4"/>
<path d="M47.1606 43.9223L38.5787 49.9704C38.3984 49.8957 38.211 49.8397 38.0192 49.8031L1.40356 43.2407C0.767188 43.1241 0.135442 43.5567 0.0188051 44.2047C-0.00893133 44.3591 -0.00595992 44.5174 0.0275493 44.6707C0.0610586 44.8239 0.124448 44.969 0.214092 45.0977C0.303736 45.2264 0.417875 45.3362 0.549981 45.4208C0.682087 45.5053 0.829567 45.563 0.983985 45.5905L37.588 52.1506C37.7394 52.1797 37.9772 52.3346 38.2034 52.6926C38.4575 53.0889 38.602 53.6052 38.602 54.1122L38.6137 63.2013C38.616 63.6453 38.4995 64.0535 38.3035 64.2924C38.1636 64.4592 38.0844 64.4369 38.0377 64.431L1.42452 57.8689C0.790457 57.7512 0.156399 58.1848 0.0397621 58.8329C0.012006 58.9873 0.0149631 59.1456 0.0484642 59.2988C0.0819654 59.4521 0.145353 59.5972 0.235 59.7259C0.324647 59.8546 0.438794 59.9644 0.570909 60.0489C0.703024 60.1335 0.850515 60.1912 1.00494 60.2186L37.6066 66.7785C37.7722 66.8101 37.9353 66.8253 38.0961 66.8253C38.7387 66.8253 39.3463 66.5825 39.8442 66.1278L64.7438 48.3392C65.4572 47.8333 65.9327 46.8053 65.9303 45.5395L65.9246 41.0571L47.1606 43.9223Z" fill="#F3C55C"/>
<path d="M72.5995 38.7733L35.9768 44.6722C35.8906 44.6897 35.7858 44.6873 35.6505 44.537C35.4873 44.3574 35.3871 44.0415 35.3893 43.6873L35.3986 35.5176C35.3986 35.1098 35.5315 34.6854 35.767 34.3521C35.9534 34.0876 36.1819 33.9139 36.3824 33.8801L72.9958 27.9845C73.1506 27.9598 73.2991 27.9048 73.4326 27.8226C73.5662 27.7403 73.6822 27.6326 73.774 27.5055C73.8658 27.3783 73.9317 27.2343 73.9678 27.0817C74.0038 26.9291 74.0094 26.7709 73.9842 26.6161C73.8793 25.9657 73.2545 25.5146 72.6182 25.6276C72.6182 25.6276 43.3393 30.3898 35.312 31.7282L30.4209 28.6312L25.7984 29.3658L23.9754 24.5499L10.637 16.1038C9.48773 16.4417 8.13333 17.985 8.08202 19.724L8.07031 27.9553C8.07031 29.0906 8.54351 30.0137 9.25677 30.4683L34.3592 46.5652C34.3496 46.559 34.3425 46.5527 34.3332 46.5465C34.7972 46.8856 35.3419 47.0651 35.9091 47.0651C36.0582 47.0651 36.2098 47.0532 36.3613 47.0278L72.977 41.1296C73.1318 41.1049 73.2803 41.0499 73.4138 40.9677C73.5474 40.8855 73.6634 40.7778 73.7552 40.6507C73.8471 40.5236 73.9129 40.3796 73.949 40.227C73.985 40.0744 73.9906 39.9161 73.9654 39.7614C73.863 39.1101 73.2312 38.6683 72.5995 38.7733Z" fill="#F37E60"/>
<path d="M56.7785 23.173L26.7274 27.9646C26.648 27.8783 26.5665 27.6884 26.5665 27.4086L26.5758 20.7216C26.5758 20.4279 26.6691 20.1284 26.8346 19.894C26.9745 19.6958 27.1214 19.6095 27.196 19.5967L57.1725 14.7666C57.3273 14.7418 57.4757 14.6867 57.6092 14.6045C57.7427 14.5223 57.8587 14.4145 57.9505 14.2874C58.0423 14.1603 58.1082 14.0163 58.1443 13.8637C58.1804 13.7111 58.186 13.5529 58.1609 13.3982C58.0558 12.7466 57.429 12.3025 56.7948 12.4097C56.7948 12.4097 26.3064 17.368 26.0709 17.4841L6.08486 4.8302C5.14541 5.10524 4.03584 6.36888 3.99378 7.79078L3.92383 14.8321C3.92383 15.7669 4.31088 16.5221 4.89595 16.8951C4.89595 16.8951 25.2208 29.9919 26.0748 30.2823C26.5446 30.442 27.0514 30.382 27.1819 30.3622L57.1561 25.5297C57.311 25.5049 57.4594 25.4498 57.5929 25.3676C57.7264 25.2853 57.8424 25.1776 57.9342 25.0505C58.026 24.9234 58.0918 24.7794 58.1279 24.6268C58.164 24.4742 58.1697 24.316 58.1446 24.1613C58.0395 23.5097 57.4147 23.0657 56.7785 23.173Z" fill="#6683C2"/>
</svg>
