<svg width="68" height="102" viewBox="0 0 68 102" fill="none" xmlns="http://www.w3.org/2000/svg">
<g clip-path="url(#clip0_60_655)">
<path d="M49.8417 15.2382C63.8453 15.2382 75.1963 26.6472 75.1963 40.7206C75.1963 54.7929 63.8453 66.2021 49.8417 66.2021C35.8384 66.2021 24.4866 54.7929 24.4866 40.7206C24.4869 26.6469 35.8387 15.2382 49.8417 15.2382Z" fill="#7FCBB4"/>
<path d="M36.6512 -19.5235C45.7975 -19.5235 53.2124 -12.0061 53.2124 -2.73088C53.2124 6.54201 45.7978 14.0597 36.6512 14.0597C27.5047 14.0597 20.0898 6.54231 20.0898 -2.73087C20.0898 -12.0061 27.5047 -19.5235 36.6512 -19.5235Z" fill="#68CCEA"/>
<path d="M73.5077 6.69494C73.5077 1.97672 69.6169 -1.84815 64.8173 -1.84815C60.0178 -1.84815 56.127 1.97672 56.127 6.69495C56.127 11.4132 60.0178 15.238 64.8173 15.238C69.6169 15.238 73.5077 11.4132 73.5077 6.69494Z" fill="#F2C45B"/>
<line x1="0.464844" y1="100.406" x2="0.464844" y2="98.4142" stroke="white" stroke-width="0.398438"/>
</g>
<defs>
<clipPath id="clip0_60_655">
<rect width="102" height="67" fill="white" transform="translate(0.664062 102) rotate(-90)"/>
</clipPath>
</defs>
</svg>
